<?xml version="1.0" encoding="UTF-8" standalone="no"?>
<svg xmlns:xlink="http://www.w3.org/1999/xlink" height="12.0px" width="12.0px" xmlns="http://www.w3.org/2000/svg">
  <g transform="matrix(1.0, 0.0, 0.0, 1.0, -2.9, -3.45)">
    <path d="M12.8 13.35 Q11.2 14.95 8.9 14.95 6.6 14.95 5.0 13.35 3.4 11.75 3.4 9.45 3.4 7.15 5.0 5.55 6.6 3.95 8.9 3.95 11.2 3.95 12.8 5.55 14.4 7.15 14.4 9.45 14.4 11.75 12.8 13.35" fill="#0066cc" fill-rule="evenodd" stroke="none"/>
    <path d="M12.8 13.35 Q11.2 14.95 8.9 14.95 6.6 14.95 5.0 13.35 3.4 11.75 3.4 9.45 3.4 7.15 5.0 5.55 6.6 3.95 8.9 3.95 11.2 3.95 12.8 5.55 14.4 7.15 14.4 9.45 14.4 11.75 12.8 13.35 Z" fill="none" stroke="#000000" stroke-linecap="round" stroke-linejoin="round" stroke-width="1.0"/>
  </g>
</svg>
