<?xml version="1.0" encoding="UTF-8" standalone="no"?>
<svg xmlns:xlink="http://www.w3.org/1999/xlink" height="145.5px" width="48.7px" xmlns="http://www.w3.org/2000/svg">
  <g transform="matrix(1.0, 0.0, 0.0, 1.0, 31.4, 40.75)">
    <path d="M-17.35 -16.4 L-16.0 -20.7 -15.5 -21.9 -17.45 -22.7 -17.55 -23.05 -16.5 -23.05 Q-15.75 -23.05 -15.5 -23.8 L-14.4 -27.4 Q-13.95 -29.15 -14.2 -30.5 L-11.55 -31.7 Q-4.3 -34.1 3.2 -35.8 L8.85 -34.85 Q9.65 -34.25 9.65 -33.3 9.6 -27.9 9.9 -22.2 L10.15 -12.6 Q10.15 -0.55 7.6 10.95 L7.05 14.05 Q6.0 21.9 4.05 29.5 2.85 34.0 2.8 38.75 2.75 44.3 4.55 49.3 3.0 54.3 3.55 59.5 L3.95 62.95 5.55 76.8 6.7 87.35 1.1 95.35 Q-0.5 97.6 -0.2 100.3 L-12.05 100.65 -16.2 100.0 Q-16.95 98.55 -17.05 96.9 -17.45 90.5 -18.8 84.3 L-19.8 78.95 Q-20.55 74.15 -22.7 69.85 -23.85 67.5 -24.5 64.95 -25.75 59.95 -25.7 54.55 -22.65 49.7 -22.25 44.0 -21.9 38.8 -21.15 33.55 -20.05 26.0 -18.35 18.6 -16.8 11.75 -16.7 4.75 -16.7 2.7 -16.85 0.7 L-17.2 -0.3 Q-18.7 -6.15 -18.1 -11.9 -17.9 -14.2 -17.35 -16.4" fill="#99ccff" fill-rule="evenodd" stroke="none"/>
    <path d="M-18.1 -11.9 Q-18.7 -6.15 -17.2 -0.3 L-16.85 0.7 Q-16.7 2.7 -16.7 4.75 -16.8 11.75 -18.35 18.6 -20.05 26.0 -21.15 33.55 -21.9 38.8 -22.25 44.0 -22.65 49.7 -25.7 54.55 -25.75 59.95 -24.5 64.95 -23.85 67.5 -22.7 69.85 -20.55 74.15 -19.8 78.95 L-18.8 84.3 Q-17.45 90.5 -17.05 96.9 -16.95 98.55 -16.2 100.0 L-12.05 100.65 -0.2 100.3 Q-0.5 97.6 1.1 95.35 L6.7 87.35 5.55 76.8 3.95 62.95 3.55 59.5 Q3.0 54.3 4.55 49.3 2.75 44.3 2.8 38.75 2.85 34.0 4.05 29.5 6.0 21.9 7.05 14.05 L7.6 10.95 Q10.15 -0.55 10.15 -12.6 L9.9 -22.2 Q9.6 -27.9 9.65 -33.3 9.65 -34.25 8.85 -34.85 L3.2 -35.8 Q-4.3 -34.1 -11.55 -31.7 L-14.2 -30.5 Q-13.95 -29.15 -14.4 -27.4 L-15.5 -23.8 Q-15.75 -23.05 -16.5 -23.05 L-17.55 -23.05 -17.45 -22.7 -15.5 -21.9 -16.0 -20.7 -17.35 -16.4 Q-21.5 -17.9 -21.0 -22.95 -20.85 -24.2 -20.0 -25.3 L-18.25 -26.95 -17.25 -27.65 -16.85 -29.1 -14.15 -33.75 -14.05 -33.85 -14.0 -33.9 -13.85 -34.05 -13.75 -34.15 -13.65 -34.25 -13.5 -34.4 -13.35 -34.55 -12.9 -34.95 -12.8 -35.05 -12.4 -35.35 -12.15 -35.55 -11.7 -35.9 -8.7 -38.2 Q-6.1 -40.5 -2.75 -40.7 L-1.7 -40.75 Q2.35 -40.55 5.5 -38.15 L7.1 -37.9 Q15.15 -36.8 14.45 -29.6 14.3 -28.15 13.5 -26.75 L14.1 -10.15 12.5 -7.9 13.7 -7.5 Q19.0 -5.15 16.45 0.2 14.9 3.35 11.25 3.85 L11.1 18.1 9.6 31.25 4.45 47.55 5.1 48.35 Q6.0 48.45 6.75 48.9 11.1 51.45 9.75 55.95 9.05 58.2 7.0 59.35 L7.5 63.1 6.75 74.75 7.0 76.6 Q9.65 79.5 10.3 83.3 11.35 89.3 6.75 93.75 L3.4 96.75 2.55 97.5 6.4 103.85 -19.95 104.75 -16.65 101.65 -23.75 95.25 -21.5 82.1 -24.75 72.25 -30.25 64.5 -31.4 55.1 -25.9 50.85 -26.65 44.5 -22.4 34.0 -24.25 25.0 -22.65 17.5 -18.4 6.6 Q-20.6 1.0 -22.05 -4.35 -22.3 -5.2 -21.9 -6.15 -20.5 -9.5 -18.1 -11.9" fill="#6699ff" fill-rule="evenodd" stroke="none"/>
  </g>
</svg>
