<?xml version="1.0" encoding="UTF-8" standalone="no"?>
<svg xmlns:xlink="http://www.w3.org/1999/xlink" height="11.65px" width="31.2px" xmlns="http://www.w3.org/2000/svg">
  <g transform="matrix(1.0, 0.0, 0.0, 1.0, 15.45, -1.85)">
    <path d="M13.8 2.5 L13.75 2.35 Q13.6 2.05 13.75 1.85 L14.6 2.1 14.75 2.3 Q15.45 3.65 15.65 5.1 L15.75 5.8 Q15.8 7.3 15.25 8.7 L15.15 9.15 14.2 11.55 12.95 13.0 12.65 13.2 11.75 13.5 10.35 13.2 10.3 12.85 10.4 12.3 10.75 11.75 11.1 11.1 11.2 10.8 11.1 10.85 10.15 11.05 9.9 10.8 9.85 10.65 10.3 10.1 10.6 9.75 11.1 9.2 11.2 8.9 11.3 8.4 11.2 7.3 10.75 6.35 9.95 5.0 10.25 3.4 10.5 3.0 10.5 3.05 Q10.35 3.4 10.55 3.85 L10.6 3.85 10.65 4.0 10.6 4.15 10.45 4.45 10.4 4.6 11.45 6.3 Q11.8 7.15 11.75 8.1 11.7 8.85 11.3 9.45 L10.35 10.35 10.6 10.0 10.15 10.55 10.45 10.5 10.8 10.45 11.55 10.15 11.75 10.7 Q11.7 11.4 11.25 12.0 L10.75 13.05 12.45 13.0 13.85 11.15 14.45 10.05 Q15.4 7.95 15.2 5.55 L15.15 4.8 15.0 3.9 14.8 3.55 14.3 3.0 13.8 2.5 M-10.2 3.05 L-10.15 3.0 -9.95 3.4 -9.6 5.0 -10.45 6.35 -10.85 7.3 -11.0 8.4 -10.85 8.9 -10.75 9.2 -10.3 9.75 -10.0 10.1 -9.55 10.65 -9.55 10.8 -9.85 11.05 Q-10.35 11.15 -10.8 10.85 L-10.9 10.8 -10.8 11.1 -10.45 11.75 -10.1 12.3 -9.95 12.85 -10.05 13.2 -11.45 13.5 -12.35 13.2 -12.65 13.0 -13.9 11.55 Q-14.55 10.4 -14.85 9.15 L-14.95 8.7 Q-15.5 7.3 -15.45 5.8 L-15.35 5.1 Q-15.15 3.65 -14.45 2.3 L-14.3 2.1 -13.45 1.85 Q-13.3 2.05 -13.45 2.35 L-13.5 2.5 -14.0 3.0 -14.5 3.55 -14.65 3.9 -14.7 3.9 -14.8 4.8 -14.9 5.55 Q-15.1 7.95 -14.15 10.05 L-13.55 11.15 -12.15 13.0 -10.4 13.05 Q-10.6 12.45 -10.95 12.0 -11.4 11.4 -11.45 10.7 L-11.25 10.15 -10.45 10.45 -10.15 10.5 -9.85 10.55 -9.8 10.55 -10.3 10.0 -10.0 10.35 -11.0 9.45 Q-11.4 8.85 -11.45 8.1 -11.5 7.15 -11.15 6.3 L-10.1 4.6 -10.15 4.45 -10.25 4.15 -10.35 4.0 -10.25 3.85 Q-10.05 3.4 -10.2 3.05" fill="#000000" fill-rule="evenodd" stroke="none"/>
    <path d="M10.5 3.05 L10.65 2.8 Q10.95 2.5 11.4 2.4 L11.55 2.35 13.2 2.0 13.3 2.05 13.8 2.5 14.3 3.0 14.8 3.55 15.0 3.9 15.15 4.8 15.2 5.55 Q15.4 7.95 14.45 10.05 L13.85 11.15 12.45 13.0 10.75 13.05 11.25 12.0 Q11.7 11.4 11.75 10.7 L11.55 10.15 10.8 10.45 10.45 10.5 10.15 10.55 10.6 10.0 10.35 10.35 11.3 9.45 Q11.7 8.85 11.75 8.1 11.8 7.15 11.45 6.3 L10.4 4.6 10.45 4.45 10.6 4.15 10.65 4.0 10.6 3.85 10.55 3.85 Q10.35 3.4 10.5 3.05 M-10.2 3.05 Q-10.05 3.4 -10.25 3.85 L-10.35 4.0 -10.25 4.15 -10.15 4.45 -10.1 4.6 -11.15 6.3 Q-11.5 7.15 -11.45 8.1 -11.4 8.85 -11.0 9.45 L-10.0 10.35 -10.3 10.0 -9.8 10.55 -9.85 10.55 -10.15 10.5 -10.45 10.45 -11.25 10.15 -11.45 10.7 Q-11.4 11.4 -10.95 12.0 -10.6 12.45 -10.4 13.05 L-12.15 13.0 -13.55 11.15 -14.15 10.05 Q-15.1 7.95 -14.9 5.55 L-14.8 4.8 -14.7 3.9 -14.65 3.9 -14.5 3.55 -14.0 3.0 -13.5 2.5 -13.0 2.05 -12.85 2.0 -11.25 2.35 -11.1 2.4 -10.35 2.8 -10.2 3.05" fill="#999999" fill-rule="evenodd" stroke="none"/>
    <path d="M-14.7 3.9 L-14.65 3.9 -14.7 3.9" fill="#6666cc" fill-rule="evenodd" stroke="none"/>
  </g>
</svg>
