<?xml version="1.0" encoding="UTF-8" standalone="no"?>
<svg xmlns:xlink="http://www.w3.org/1999/xlink" height="14.95px" width="14.0px" xmlns="http://www.w3.org/2000/svg">
  <g transform="matrix(1.0, 0.0, 0.0, 1.0, 6.3, 4.9)">
    <path d="M4.4 -4.85 L4.5 -4.75 5.9 -2.95 6.6 -2.0 Q7.1 0.65 7.1 3.45 L7.1 3.9 7.0 3.9 6.9 5.25 6.85 6.1 6.75 6.9 Q6.6 8.0 6.15 8.6 5.2 9.95 2.9 9.05 L2.65 8.75 2.55 8.6 2.1 7.75 1.65 5.9 1.65 4.55 1.8 4.5 2.0 3.8 2.1 2.95 2.1 2.6 1.95 0.35 Q1.8 -0.4 1.8 -1.15 L1.75 -1.45 1.75 -1.9 1.7 -2.05 Q2.2 -4.2 4.35 -4.9 L4.4 -4.85 M6.0 4.4 L6.0 4.2 5.4 4.15 4.75 4.5 4.6 4.6 2.65 4.95 2.45 4.9 2.35 4.9 2.45 5.0 2.6 5.2 3.0 5.45 Q4.0 5.85 5.0 5.45 L5.3 5.3 6.0 4.4 M-5.2 -2.0 L-4.55 -2.95 -3.1 -4.75 -3.05 -4.85 -3.0 -4.85 -2.95 -4.9 Q-0.85 -4.2 -0.3 -2.05 L-0.35 -1.9 -0.4 -1.45 -0.4 -1.15 -0.55 0.35 -0.7 2.6 -0.7 2.95 -0.6 3.8 -0.45 4.5 -0.25 4.55 -0.25 5.9 -0.75 7.75 -1.15 8.6 -1.3 8.75 -1.5 9.05 Q-3.85 9.95 -4.8 8.6 -5.25 8.0 -5.35 6.9 L-5.45 6.1 -5.55 5.25 -5.65 3.9 -5.75 3.9 -5.75 3.45 Q-5.75 0.65 -5.2 -2.0 M-4.6 4.4 L-3.9 5.3 -3.65 5.45 Q-2.65 5.85 -1.6 5.45 L-1.25 5.2 -1.05 5.0 -1.0 4.9 -1.05 4.9 -1.25 4.95 Q-2.3 5.05 -3.25 4.6 L-3.35 4.5 -4.05 4.15 -4.65 4.2 -4.6 4.4" fill="#999999" fill-rule="evenodd" stroke="none"/>
    <path d="M4.35 -4.9 L4.4 -4.85 4.35 -4.9 M-2.95 -4.9 L-3.0 -4.85 -3.0 -4.9 -2.95 -4.9" fill="#6666cc" fill-rule="evenodd" stroke="none"/>
    <path d="M6.6 -2.0 L6.65 -1.85 7.4 0.35 7.5 2.45 7.55 3.05 7.6 3.85 7.65 3.85 7.65 4.35 7.65 4.45 7.7 5.2 7.6 5.2 7.4 6.85 7.1 7.8 6.9 8.35 6.9 8.45 6.2 9.35 6.05 9.5 6.0 9.5 Q5.85 9.55 5.75 9.7 L5.7 9.7 5.5 9.85 5.15 9.95 3.8 10.05 3.5 10.0 3.3 9.9 Q2.1 9.3 1.6 8.1 L1.35 7.0 1.1 5.6 1.1 5.0 1.3 4.6 1.4 4.55 1.75 3.35 1.85 3.05 1.85 3.0 1.55 1.75 1.4 0.05 Q1.35 -0.2 1.45 -0.45 L1.45 -0.55 Q1.4 -1.3 1.75 -1.9 L1.75 -1.45 1.8 -1.15 Q1.8 -0.4 1.95 0.35 L2.1 2.6 2.1 2.95 2.0 3.8 1.8 4.5 1.65 4.55 1.65 5.9 2.1 7.75 2.55 8.6 2.65 8.75 2.9 9.05 Q5.2 9.95 6.15 8.6 6.6 8.0 6.75 6.9 L6.85 6.1 6.9 5.25 7.0 3.9 7.1 3.9 7.1 3.45 Q7.1 0.65 6.6 -2.0 M6.0 4.4 L5.3 5.3 5.0 5.45 Q4.0 5.85 3.0 5.45 L2.6 5.2 2.45 5.0 2.35 4.9 2.45 4.9 2.65 4.95 4.6 4.6 4.75 4.5 5.4 4.15 6.0 4.2 6.0 4.4 M-5.2 -2.0 Q-5.75 0.65 -5.75 3.45 L-5.75 3.9 -5.65 3.9 -5.55 5.25 -5.45 6.1 -5.35 6.9 Q-5.25 8.0 -4.8 8.6 -3.85 9.95 -1.5 9.05 L-1.3 8.75 -1.15 8.6 -0.75 7.75 -0.25 5.9 -0.25 4.55 -0.45 4.5 -0.6 3.8 -0.7 2.95 -0.7 2.6 -0.55 0.35 -0.4 -1.15 -0.4 -1.45 -0.35 -1.9 Q-0.05 -1.3 -0.1 -0.55 L-0.05 -0.45 0.0 0.05 -0.2 1.75 -0.45 3.0 -0.45 3.05 -0.35 3.35 -0.05 4.55 0.1 4.6 0.25 5.0 0.25 5.6 0.0 7.0 -0.25 8.1 Q-0.75 9.3 -1.95 9.9 L-2.1 10.0 -2.4 10.05 -3.75 9.95 -4.1 9.85 -4.35 9.7 -4.4 9.7 -4.6 9.5 -4.65 9.5 -4.8 9.35 -5.5 8.45 -5.55 8.35 -5.7 7.8 -6.0 6.85 -6.2 5.2 -6.3 5.2 -6.3 4.45 -6.25 4.35 -6.25 3.85 -6.15 3.05 -6.15 2.45 -6.05 0.35 -5.3 -1.85 -5.2 -2.0 M-4.6 4.4 L-4.65 4.2 -4.05 4.15 -3.35 4.5 -3.25 4.6 Q-2.3 5.05 -1.25 4.95 L-1.05 4.9 -1.0 4.9 -1.05 5.0 -1.25 5.2 -1.6 5.45 Q-2.65 5.85 -3.65 5.45 L-3.9 5.3 -4.6 4.4" fill="#000000" fill-rule="evenodd" stroke="none"/>
  </g>
</svg>
