<?xml version="1.0" encoding="UTF-8" standalone="no"?>
<svg xmlns:xlink="http://www.w3.org/1999/xlink" height="271.65px" width="127.7px" xmlns="http://www.w3.org/2000/svg">
  <g transform="matrix(1.0, 0.0, 0.0, 1.0, 60.55, 29.85)">
    <path d="M-59.8 92.95 L-60.35 94.05 Q-61.0 96.0 -59.5 98.0 -57.95 100.1 -56.4 102.2 L-56.5 104.75 -56.6 112.3 -56.6 113.3 Q-56.6 114.6 -57.0 115.9 L-57.2 116.6 -58.1 119.25 -58.95 122.0 Q-59.4 123.5 -59.15 125.1 -58.95 126.55 -58.15 127.45 L-56.35 128.6 -56.25 128.6 Q-54.7 129.15 -53.15 129.65 -49.75 130.7 -46.4 131.75 -45.6 131.95 -44.8 132.15 L-44.5 132.25 Q-42.15 132.95 -39.85 133.6 L-39.65 133.65 -39.0 137.0 -38.7 138.05 -38.05 138.85 -36.0 139.55 -36.05 140.7 -36.25 141.1 Q-36.9 142.8 -37.05 144.65 L-37.3 147.5 Q-37.6 149.5 -37.9 151.45 L-39.05 156.75 Q-40.6 162.6 -43.2 168.15 L-44.0 169.75 Q-44.5 170.85 -44.4 171.95 L-44.3 172.45 -44.2 172.75 -43.7 174.15 Q-42.45 177.9 -40.8 181.55 -39.55 184.1 -38.35 186.65 -38.55 187.85 -38.75 189.0 -38.9 190.0 -39.0 191.0 L-39.15 192.2 -39.25 193.95 Q-39.55 197.6 -39.4 201.4 -39.35 202.55 -38.75 203.5 L-37.05 205.6 -38.55 209.15 -39.2 210.3 Q-40.75 212.95 -41.4 215.65 L-41.75 217.55 Q-41.95 219.3 -40.9 220.6 L-40.6 220.9 Q-39.05 222.85 -37.75 224.95 L-37.1 226.05 -36.4 227.25 -35.3 229.2 -35.0 229.7 Q-33.65 231.95 -31.75 231.8 L-29.8 233.55 -28.0 234.9 Q-27.5 235.25 -27.35 235.8 -26.85 237.9 -25.75 239.0 -24.65 240.1 -22.95 240.25 L-21.3 240.15 Q-19.0 238.3 -19.15 235.25 L-19.2 234.8 -19.2 234.4 Q-17.7 234.35 -16.25 234.3 L-14.95 233.95 Q-11.75 232.85 -8.4 232.6 L-5.5 232.6 -3.15 232.85 Q-2.6 234.2 -1.5 235.0 L-1.3 235.15 -1.25 235.2 -1.25 235.2 -0.6 235.55 Q2.45 237.2 4.3 235.3 5.05 234.55 5.6 233.2 6.3 233.35 7.0 233.5 9.8 233.9 12.45 232.85 14.9 233.7 17.35 234.5 22.6 236.2 27.85 237.85 L28.85 238.15 Q34.1 239.7 39.2 239.15 L41.5 238.75 42.3 238.55 43.6 237.3 Q44.8 236.25 45.4 234.8 L46.05 233.0 46.6 231.0 46.8 231.0 47.25 230.8 Q50.1 228.35 53.2 226.2 58.15 222.75 55.2 218.55 L54.4 217.55 54.35 216.9 Q54.25 216.2 53.7 215.85 L51.55 214.4 Q49.05 212.5 47.15 210.05 L47.2 209.05 47.25 208.35 Q47.6 202.8 48.45 197.4 48.75 195.65 49.0 193.9 49.8 190.35 50.55 186.8 L51.45 182.85 Q51.65 181.85 51.8 180.85 53.25 172.1 52.75 163.15 52.4 157.35 51.15 151.7 L50.85 150.5 49.5 144.1 48.5 139.55 47.6 135.5 Q48.6 133.4 49.75 131.35 L49.85 131.15 Q50.15 130.6 50.45 130.05 L50.9 129.25 Q53.45 124.65 56.25 120.25 58.55 116.6 61.1 113.1 L61.45 112.55 Q63.7 109.35 65.55 105.95 L66.05 104.75 66.4 103.0 Q67.3 98.5 67.15 94.05 67.1 90.9 66.5 87.8 65.95 84.8 64.9 81.8 L64.7 81.3 Q63.65 78.55 62.6 75.8 L61.9 74.15 61.9 74.05 60.8 72.15 Q59.2 69.9 56.5 68.75 54.9 68.1 54.6 66.4 L54.6 66.2 54.45 65.5 53.95 62.9 52.35 53.55 52.1 52.25 52.1 52.0 52.0 51.6 51.9 51.0 51.1 46.75 Q50.65 44.65 50.25 42.6 L49.9 41.0 Q49.25 37.95 48.65 34.9 L48.45 34.0 48.05 31.75 47.7 29.25 47.7 28.45 47.4 25.55 Q46.5 20.5 43.1 16.55 L42.05 15.5 40.3 14.3 39.6 13.9 37.8 13.0 Q35.6 12.0 33.3 11.35 L32.55 9.9 Q31.95 8.85 31.35 7.85 27.75 2.5 21.8 -0.35 L21.4 -0.55 18.55 -1.75 19.3 -2.55 19.6 -2.65 21.2 -3.1 21.45 -3.2 21.95 -3.3 Q24.3 -3.9 24.75 -6.45 L24.85 -7.75 Q24.75 -8.85 24.15 -9.8 23.8 -10.4 23.45 -11.0 L22.55 -12.9 Q21.95 -14.3 21.6 -15.75 L21.2 -17.6 21.2 -17.7 20.35 -20.2 Q19.3 -22.4 17.2 -23.95 L16.35 -24.5 15.35 -25.1 14.9 -25.4 13.4 -26.15 10.8 -27.25 Q8.65 -28.05 6.4 -28.5 4.65 -28.75 2.95 -29.0 L2.05 -29.05 1.95 -29.05 1.35 -29.1 -0.5 -29.1 Q-2.0 -29.0 -3.45 -28.95 -4.45 -28.8 -5.05 -28.1 L-5.65 -27.25 Q-6.1 -26.15 -6.55 -25.05 L-6.85 -24.95 Q-8.75 -24.05 -10.6 -23.15 L-14.65 -20.55 Q-15.75 -19.8 -16.4 -18.6 L-16.5 -18.3 -16.7 -17.8 -17.1 -16.45 -17.25 -15.25 Q-17.4 -12.25 -17.55 -9.3 L-17.7 -3.85 -18.85 -1.7 -19.1 -0.95 -19.45 0.55 -19.95 0.6 Q-21.8 0.75 -23.5 1.55 -25.25 2.25 -25.7 4.25 L-25.8 4.7 -25.95 5.55 -26.0 6.25 -27.55 7.65 Q-29.95 9.8 -32.3 11.9 L-37.05 16.05 Q-40.55 19.0 -40.4 20.75 L-42.45 21.5 -43.15 21.8 -45.0 22.7 -45.5 25.05 -45.95 26.55 -46.05 26.95 -47.1 29.45 Q-48.6 32.65 -50.95 35.4 -51.15 38.3 -51.85 40.0 -53.1 42.95 -53.35 44.85 -53.75 48.0 -53.75 51.0 L-53.75 51.6 -53.75 52.7 -53.75 53.95 Q-53.85 55.1 -53.95 56.2 L-54.2 57.9 -54.85 61.5 Q-55.55 66.45 -55.35 71.55 -55.1 79.35 -57.25 86.9 L-57.5 87.75 Q-58.4 90.65 -59.8 92.95 M12.55 224.5 L13.65 224.8 Q12.35 225.7 12.55 224.55 L12.55 224.5 M16.65 -0.05 L17.65 -2.75 Q18.35 -3.5 17.25 -4.05 L16.65 -0.05" fill="#6699ff" fill-rule="evenodd" stroke="none">
      <animate attributeName="fill" dur="2s" repeatCount="indefinite" values="#6699ff;#6699ff"/>
      <animate attributeName="fill-opacity" dur="2s" repeatCount="indefinite" values="1.0;1.0"/>
      <animate attributeName="d" dur="2s" repeatCount="indefinite" values="M-59.8 92.95 L-60.35 94.05 Q-61.0 96.0 -59.5 98.0 -57.95 100.1 -56.4 102.2 L-56.5 104.75 -56.6 112.3 -56.6 113.3 Q-56.6 114.6 -57.0 115.9 L-57.2 116.6 -58.1 119.25 -58.95 122.0 Q-59.4 123.5 -59.15 125.1 -58.95 126.55 -58.15 127.45 L-56.35 128.6 -56.25 128.6 Q-54.7 129.15 -53.15 129.65 -49.75 130.7 -46.4 131.75 -45.6 131.95 -44.8 132.15 L-44.5 132.25 Q-42.15 132.95 -39.85 133.6 L-39.65 133.65 -39.0 137.0 -38.7 138.05 -38.05 138.85 -36.0 139.55 -36.05 140.7 -36.25 141.1 Q-36.9 142.8 -37.05 144.65 L-37.3 147.5 Q-37.6 149.5 -37.9 151.45 L-39.05 156.75 Q-40.6 162.6 -43.2 168.15 L-44.0 169.75 Q-44.5 170.85 -44.4 171.95 L-44.3 172.45 -44.2 172.75 -43.7 174.15 Q-42.45 177.9 -40.8 181.55 -39.55 184.1 -38.35 186.65 -38.55 187.85 -38.75 189.0 -38.9 190.0 -39.0 191.0 L-39.15 192.2 -39.25 193.95 Q-39.55 197.6 -39.4 201.4 -39.35 202.55 -38.75 203.5 L-37.05 205.6 -38.55 209.15 -39.2 210.3 Q-40.75 212.95 -41.4 215.65 L-41.75 217.55 Q-41.95 219.3 -40.9 220.6 L-40.6 220.9 Q-39.05 222.85 -37.75 224.95 L-37.1 226.05 -36.4 227.25 -35.3 229.2 -35.0 229.7 Q-33.65 231.95 -31.75 231.8 L-29.8 233.55 -28.0 234.9 Q-27.5 235.25 -27.35 235.8 -26.85 237.9 -25.75 239.0 -24.65 240.1 -22.95 240.25 L-21.3 240.15 Q-19.0 238.3 -19.15 235.25 L-19.2 234.8 -19.2 234.4 Q-17.7 234.35 -16.25 234.3 L-14.95 233.95 Q-11.75 232.85 -8.4 232.6 L-5.5 232.6 -3.15 232.85 Q-2.6 234.2 -1.5 235.0 L-1.3 235.15 -1.25 235.2 -1.25 235.2 -0.6 235.55 Q2.45 237.2 4.3 235.3 5.05 234.55 5.6 233.2 6.3 233.35 7.0 233.5 9.8 233.9 12.45 232.85 14.9 233.7 17.35 234.5 22.6 236.2 27.85 237.85 L28.85 238.15 Q34.1 239.7 39.2 239.15 L41.5 238.75 42.3 238.55 43.6 237.3 Q44.8 236.25 45.4 234.8 L46.05 233.0 46.6 231.0 46.8 231.0 47.25 230.8 Q50.1 228.35 53.2 226.2 58.15 222.75 55.2 218.55 L54.4 217.55 54.35 216.9 Q54.25 216.2 53.7 215.85 L51.55 214.4 Q49.05 212.5 47.15 210.05 L47.2 209.05 47.25 208.35 Q47.6 202.8 48.45 197.4 48.75 195.65 49.0 193.9 49.8 190.35 50.55 186.8 L51.45 182.85 Q51.65 181.85 51.8 180.85 53.25 172.1 52.75 163.15 52.4 157.35 51.15 151.7 L50.85 150.5 49.5 144.1 48.5 139.55 47.6 135.5 Q48.6 133.4 49.75 131.35 L49.85 131.15 Q50.15 130.6 50.45 130.05 L50.9 129.25 Q53.45 124.65 56.25 120.25 58.55 116.6 61.1 113.1 L61.45 112.55 Q63.7 109.35 65.55 105.95 L66.05 104.75 66.4 103.0 Q67.3 98.5 67.15 94.05 67.1 90.9 66.5 87.8 65.95 84.8 64.9 81.8 L64.7 81.3 Q63.65 78.55 62.6 75.8 L61.9 74.15 61.9 74.05 60.8 72.15 Q59.2 69.9 56.5 68.75 54.9 68.1 54.6 66.4 L54.6 66.2 54.45 65.5 53.95 62.9 52.35 53.55 52.1 52.25 52.1 52.0 52.0 51.6 51.9 51.0 51.1 46.75 Q50.65 44.65 50.25 42.6 L49.9 41.0 Q49.25 37.95 48.65 34.9 L48.45 34.0 48.05 31.75 47.7 29.25 47.7 28.45 47.4 25.55 Q46.5 20.5 43.1 16.55 L42.05 15.5 40.3 14.3 39.6 13.9 37.8 13.0 Q35.6 12.0 33.3 11.35 L32.55 9.9 Q31.95 8.85 31.35 7.85 27.75 2.5 21.8 -0.35 L21.4 -0.55 18.55 -1.75 19.3 -2.55 19.6 -2.65 21.2 -3.1 21.45 -3.2 21.95 -3.3 Q24.3 -3.9 24.75 -6.45 L24.85 -7.75 Q24.75 -8.85 24.15 -9.8 23.8 -10.4 23.45 -11.0 L22.55 -12.9 Q21.95 -14.3 21.6 -15.75 L21.2 -17.6 21.2 -17.7 20.35 -20.2 Q19.3 -22.4 17.2 -23.95 L16.35 -24.5 15.35 -25.1 14.9 -25.4 13.4 -26.15 10.8 -27.25 Q8.65 -28.05 6.4 -28.5 4.65 -28.75 2.95 -29.0 L2.05 -29.05 1.95 -29.05 1.35 -29.1 -0.5 -29.1 Q-2.0 -29.0 -3.45 -28.95 -4.45 -28.8 -5.05 -28.1 L-5.65 -27.25 Q-6.1 -26.15 -6.55 -25.05 L-6.85 -24.95 Q-8.75 -24.05 -10.6 -23.15 L-14.65 -20.55 Q-15.75 -19.8 -16.4 -18.6 L-16.5 -18.3 -16.7 -17.8 -17.1 -16.45 -17.25 -15.25 Q-17.4 -12.25 -17.55 -9.3 L-17.7 -3.85 -18.85 -1.7 -19.1 -0.95 -19.45 0.55 -19.95 0.6 Q-21.8 0.75 -23.5 1.55 -25.25 2.25 -25.7 4.25 L-25.8 4.7 -25.95 5.55 -26.0 6.25 -27.55 7.65 Q-29.95 9.8 -32.3 11.9 L-37.05 16.05 Q-40.55 19.0 -40.4 20.75 L-42.45 21.5 -43.15 21.8 -45.0 22.7 -45.5 25.05 -45.95 26.55 -46.05 26.95 -47.1 29.45 Q-48.6 32.65 -50.95 35.4 -51.15 38.3 -51.85 40.0 -53.1 42.95 -53.35 44.85 -53.75 48.0 -53.75 51.0 L-53.75 51.6 -53.75 52.7 -53.75 53.95 Q-53.85 55.1 -53.95 56.2 L-54.2 57.9 -54.85 61.5 Q-55.55 66.45 -55.35 71.55 -55.1 79.35 -57.25 86.9 L-57.5 87.75 Q-58.4 90.65 -59.8 92.95 M12.55 224.5 L13.65 224.8 Q12.35 225.7 12.55 224.55 L12.55 224.5 M16.65 -0.05 L17.65 -2.75 Q18.35 -3.5 17.25 -4.05 L16.65 -0.05;M-58.7 95.9 L-58.7 95.9 Q-58.65 98.1 -58.65 100.25 -58.45 102.7 -57.75 105.1 L-56.95 107.5 -54.2 114.35 -53.85 115.4 Q-53.45 116.65 -53.3 118.0 L-53.2 118.9 -53.2 121.5 -53.0 124.55 Q-52.6 126.1 -52.25 127.65 -51.75 128.85 -51.25 130.0 L-50.15 131.95 -50.05 132.05 Q-49.1 130.8 -47.75 130.25 -43.15 129.85 -41.95 133.6 -41.7 134.3 -41.6 135.15 L-41.5 135.5 Q-39.55 137.1 -38.4 138.85 L-38.2 138.85 -34.75 139.1 -34.6 140.3 -34.5 141.1 -34.2 143.4 -34.1 144.6 -34.0 145.2 Q-33.75 147.05 -33.5 148.85 L-33.1 151.75 Q-32.85 153.6 -33.0 155.55 L-33.75 161.05 Q-34.8 166.95 -36.95 172.6 L-37.55 174.4 Q-37.9 175.55 -38.2 176.65 L-37.65 177.1 -37.35 177.4 -36.45 178.45 Q-34.0 182.0 -33.05 185.85 -32.35 188.6 -32.5 191.5 -32.55 192.65 -32.75 193.8 -32.9 194.95 -33.5 195.85 L-34.3 196.8 -35.6 198.2 Q-38.25 201.45 -38.6 204.95 -38.65 205.95 -38.65 206.95 L-38.15 209.55 -36.7 213.0 -36.15 214.25 Q-35.3 217.0 -37.7 219.3 L-39.75 219.65 Q-41.5 219.7 -42.85 218.9 L-43.2 218.7 Q-42.9 221.05 -42.65 223.4 L-42.45 224.6 -41.75 225.75 -39.7 227.1 -39.25 227.35 Q-37.55 228.0 -35.9 228.65 L-33.3 229.3 -31.55 230.55 Q-31.15 230.8 -30.8 231.05 -29.35 231.8 -27.9 232.55 -26.4 233.3 -25.05 234.35 L-23.75 235.45 Q-21.65 237.25 -19.6 239.05 L-19.2 239.4 -18.9 239.7 Q-17.7 240.7 -16.0 241.15 L-14.7 241.45 Q-11.5 242.05 -8.05 241.6 L-5.15 241.35 -2.75 241.35 Q-1.4 241.35 -0.1 241.35 L-0.4 241.35 -0.5 241.35 -0.6 241.35 -0.25 241.1 Q2.1 239.8 4.4 238.5 5.55 237.85 6.7 237.25 7.3 236.9 7.95 236.6 10.5 235.3 13.15 234.35 15.45 233.5 17.85 232.9 23.3 231.55 28.75 232.3 L29.85 232.4 Q34.95 232.8 40.0 233.2 L42.3 232.85 43.25 232.55 45.0 232.2 Q46.55 231.95 48.05 231.75 L49.9 231.65 49.3 229.95 49.2 229.75 48.9 228.95 Q47.65 225.4 47.05 221.7 46.35 217.25 46.6 212.55 L46.7 211.45 46.7 210.75 Q46.75 210.15 46.8 209.55 L46.9 206.8 Q47.1 203.6 47.25 200.4 L47.3 199.4 47.3 198.6 Q47.55 193.1 47.75 187.65 47.85 185.85 46.95 184.15 43.4 182.7 40.75 180.55 L37.85 177.7 Q37.25 176.95 37.25 175.85 37.3 166.65 40.6 158.55 42.7 153.5 46.05 148.85 L46.8 147.85 46.8 141.75 47.0 137.25 47.3 133.25 Q47.6 130.8 47.9 128.35 L47.95 128.15 Q48.15 127.5 48.75 127.0 L49.55 126.4 Q53.7 123.0 58.35 120.35 59.35 116.15 60.3 111.95 L60.4 111.25 Q61.05 107.45 61.3 103.55 L61.4 102.25 61.5 100.35 Q61.7 95.9 62.45 91.5 62.85 88.35 63.25 85.25 62.15 82.45 61.4 79.55 L61.3 79.05 Q60.55 76.0 60.65 73.0 L60.75 71.15 60.75 71.05 60.1 68.8 Q59.5 66.1 59.75 63.3 60.05 61.7 60.3 60.15 L60.3 59.95 60.1 59.25 59.1 56.55 56.15 47.95 55.75 46.65 55.75 46.5 55.6 46.0 55.95 46.5 53.65 43.15 Q52.45 41.5 51.85 39.5 L51.5 38.0 Q50.95 34.7 52.35 32.1 L52.0 31.35 51.0 29.5 49.5 27.3 49.1 26.75 47.1 24.4 Q43.6 20.65 41.9 15.9 L41.45 14.6 40.8 12.75 40.5 12.1 39.5 10.25 Q38.35 8.05 37.2 5.9 L36.55 4.4 Q36.15 3.45 35.15 3.1 28.65 1.5 24.7 -3.7 L24.4 -4.1 23.0 -6.25 22.4 -7.3 22.3 -7.5 21.5 -8.9 21.4 -9.2 21.4 -9.3 Q20.4 -11.4 19.45 -13.45 L18.95 -14.65 Q18.65 -15.7 18.35 -16.75 18.2 -17.55 18.2 -18.35 L17.75 -20.4 Q17.1 -21.9 16.05 -22.95 L14.65 -24.0 14.55 -24.1 12.05 -25.05 Q9.85 -26.15 7.65 -27.2 L7.05 -28.0 6.35 -28.8 5.95 -28.5 4.6 -27.6 1.85 -27.45 Q0.25 -25.95 -1.35 -24.45 -3.35 -24.4 -4.2 -26.1 L-4.55 -26.95 -4.65 -27.05 -4.75 -26.6 -5.2 -25.05 Q-5.75 -23.6 -6.7 -22.45 -7.4 -21.8 -8.05 -21.15 L-8.15 -20.35 Q-8.4 -19.2 -9.3 -18.2 L-9.85 -17.6 Q-11.45 -16.15 -13.2 -15.8 L-16.2 -11.85 Q-17.1 -10.8 -17.95 -9.75 L-17.9 -10.05 -17.8 -10.45 -18.2 -9.0 -18.55 -7.85 Q-19.45 -5.1 -20.75 -2.55 L-23.15 2.2 -24.4 4.65 -24.8 5.45 -26.35 5.3 -26.85 5.3 Q-27.45 7.05 -28.05 8.75 -28.55 10.45 -29.05 12.1 L-29.2 12.7 -29.4 13.6 -29.55 14.2 -30.1 15.95 Q-31.15 18.9 -33.3 21.15 L-38.7 24.2 Q-41.25 25.45 -43.8 26.7 L-45.6 27.5 -46.3 27.8 -46.0 30.0 -45.65 32.2 -45.6 33.7 -45.6 34.05 -44.6 36.35 Q-43.3 39.85 -42.8 43.45 -42.5 45.65 -42.45 47.9 -42.4 50.4 -42.75 53.0 -43.1 55.85 -43.9 58.75 L-44.1 59.35 -44.65 60.45 -45.7 61.05 Q-46.55 61.1 -47.7 60.1 L-48.1 61.8 -49.1 65.25 Q-50.7 69.95 -52.25 74.6 -54.75 81.9 -57.2 89.2 L-57.5 90.0 Q-58.5 92.85 -58.7 95.9 M14.2 240.15 L15.7 239.35 Q18.4 239.1 21.05 238.9 L14.2 240.15 M14.2 240.15 L15.7 239.35 Q18.4 239.1 21.05 238.9 L14.2 240.15"/>
    </path>
    <path d="M4.3 235.3 L5.6 233.2 Q9.05 234.1 12.45 232.85 9.7 236.8 4.3 235.3 M2.05 -29.05 L3.9 -28.9 7.9 -28.15 Q11.5 -27.25 14.9 -25.4 L16.35 -24.5 Q20.25 -22.1 21.2 -17.7 L21.2 -18.8 20.2 -22.8 Q14.4 -28.8 5.45 -29.85 L2.05 -29.05 M-41.4 183.6 L-41.25 184.2 -40.85 185.8 -39.35 190.15 -39.0 191.0 Q-38.65 188.8 -38.35 186.65 L-40.9 181.75 -41.4 183.6 M-43.85 15.6 L-43.35 17.5 -42.55 20.5 -42.35 21.5 -40.4 20.75 Q-40.55 19.0 -37.05 16.05 L-28.4 8.35 Q-27.25 7.35 -26.8 4.85 L-30.9 5.25 Q-32.2 8.1 -35.1 10.15 -39.35 13.15 -43.85 15.6 M-46.4 131.75 L-46.2 133.65 -45.15 138.15 -43.4 142.5 Q-42.4 144.5 -41.6 146.8 -39.85 151.75 -39.05 156.75 L-38.4 154.2 Q-37.4 149.5 -37.05 144.65 -36.9 142.8 -36.25 141.1 L-36.0 139.55 Q-37.1 139.35 -38.7 138.05 -39.4 136.0 -39.65 133.65 L-46.4 131.75 M-47.15 28.1 Q-47.1 28.7 -45.95 26.55 L-46.6 27.35 -47.15 28.1 M-47.7 211.25 L-47.7 211.55 -47.7 217.6 -47.7 217.7 Q-47.65 219.7 -47.05 221.55 -45.4 226.75 -40.15 227.75 L-38.35 227.95 Q-38.25 228.4 -38.3 228.85 -38.55 233.25 -34.55 234.65 -31.1 235.85 -27.9 235.8 -27.85 237.1 -27.0 238.1 -25.75 239.7 -23.9 240.3 -12.25 244.05 -3.05 235.35 L-1.3 235.15 Q-2.55 234.35 -3.15 232.85 -9.25 231.95 -14.95 233.95 -16.5 234.5 -18.6 234.45 -18.9 234.45 -19.15 235.25 -19.0 238.3 -21.3 240.15 -26.2 240.85 -27.35 235.8 -27.5 235.25 -28.0 234.9 -30.05 233.5 -31.75 231.8 -33.85 231.95 -35.3 229.2 L-37.75 224.95 Q-39.15 222.65 -40.9 220.6 -41.95 219.3 -41.75 217.55 -41.3 213.85 -39.2 210.3 -37.9 208.0 -37.05 205.6 -38.0 204.6 -39.4 201.4 -39.55 197.6 -39.25 193.95 -47.5 200.5 -47.7 211.25 M12.55 224.5 L13.65 224.8 Q12.35 225.7 12.55 224.55 L12.55 224.5 M18.55 -1.75 L20.3 -1.05 21.8 -0.35 24.4 1.1 Q30.2 4.75 33.3 11.35 36.6 12.25 39.3 13.3 L38.15 11.5 37.1 9.6 Q29.35 3.15 21.2 -2.25 21.2 -2.65 19.3 -2.55 L18.55 -1.75 M16.65 -0.05 L17.65 -2.75 Q18.35 -3.5 17.25 -4.05 L16.65 -0.05" fill="#00ccff" fill-rule="evenodd" stroke="none">
      <animate attributeName="fill" dur="2s" repeatCount="indefinite" values="#00ccff;#6699ff"/>
      <animate attributeName="fill-opacity" dur="2s" repeatCount="indefinite" values="1.0;1.0"/>
      <animate attributeName="d" dur="2s" repeatCount="indefinite" values="M4.3 235.3 L5.6 233.2 Q9.05 234.1 12.45 232.85 9.7 236.8 4.3 235.3 M2.05 -29.05 L3.9 -28.9 7.9 -28.15 Q11.5 -27.25 14.9 -25.4 L16.35 -24.5 Q20.25 -22.1 21.2 -17.7 L21.2 -18.8 20.2 -22.8 Q14.4 -28.8 5.45 -29.85 L2.05 -29.05 M-41.4 183.6 L-41.25 184.2 -40.85 185.8 -39.35 190.15 -39.0 191.0 Q-38.65 188.8 -38.35 186.65 L-40.9 181.75 -41.4 183.6 M-43.85 15.6 L-43.35 17.5 -42.55 20.5 -42.35 21.5 -40.4 20.75 Q-40.55 19.0 -37.05 16.05 L-28.4 8.35 Q-27.25 7.35 -26.8 4.85 L-30.9 5.25 Q-32.2 8.1 -35.1 10.15 -39.35 13.15 -43.85 15.6 M-46.4 131.75 L-46.2 133.65 -45.15 138.15 -43.4 142.5 Q-42.4 144.5 -41.6 146.8 -39.85 151.75 -39.05 156.75 L-38.4 154.2 Q-37.4 149.5 -37.05 144.65 -36.9 142.8 -36.25 141.1 L-36.0 139.55 Q-37.1 139.35 -38.7 138.05 -39.4 136.0 -39.65 133.65 L-46.4 131.75 M-47.15 28.1 Q-47.1 28.7 -45.95 26.55 L-46.6 27.35 -47.15 28.1 M-47.7 211.25 L-47.7 211.55 -47.7 217.6 -47.7 217.7 Q-47.65 219.7 -47.05 221.55 -45.4 226.75 -40.15 227.75 L-38.35 227.95 Q-38.25 228.4 -38.3 228.85 -38.55 233.25 -34.55 234.65 -31.1 235.85 -27.9 235.8 -27.85 237.1 -27.0 238.1 -25.75 239.7 -23.9 240.3 -12.25 244.05 -3.05 235.35 L-1.3 235.15 Q-2.55 234.35 -3.15 232.85 -9.25 231.95 -14.95 233.95 -16.5 234.5 -18.6 234.45 -18.9 234.45 -19.15 235.25 -19.0 238.3 -21.3 240.15 -26.2 240.85 -27.35 235.8 -27.5 235.25 -28.0 234.9 -30.05 233.5 -31.75 231.8 -33.85 231.95 -35.3 229.2 L-37.75 224.95 Q-39.15 222.65 -40.9 220.6 -41.95 219.3 -41.75 217.55 -41.3 213.85 -39.2 210.3 -37.9 208.0 -37.05 205.6 -38.0 204.6 -39.4 201.4 -39.55 197.6 -39.25 193.95 -47.5 200.5 -47.7 211.25 M12.55 224.5 L13.65 224.8 Q12.35 225.7 12.55 224.55 L12.55 224.5 M18.55 -1.75 L20.3 -1.05 21.8 -0.35 24.4 1.1 Q30.2 4.75 33.3 11.35 36.6 12.25 39.3 13.3 L38.15 11.5 37.1 9.6 Q29.35 3.15 21.2 -2.25 21.2 -2.65 19.3 -2.55 L18.55 -1.75 M16.65 -0.05 L17.65 -2.75 Q18.35 -3.5 17.25 -4.05 L16.65 -0.05;M14.2 240.15 L16.0 239.3 Q18.45 239.1 20.85 238.9 17.5 239.55 14.2 240.15 M14.2 240.15 L14.6 240.05 15.7 239.35 Q16.8 239.2 17.9 239.05 L18.35 239.0 Q19.55 238.95 20.75 238.9 L21.05 238.9 19.9 239.1 Q17.55 239.55 15.2 239.95 L14.2 240.15 M14.2 240.15 L14.6 240.05 15.7 239.35 19.05 238.95 19.65 238.95 Q20.35 238.9 19.65 239.2 L15.5 239.95 14.2 240.15 M14.2 240.15 L14.6 240.05 15.5 239.45 15.7 239.35 16.3 239.25 Q17.1 239.15 17.9 239.05 L21.05 238.9 Q20.35 239.05 19.65 239.2 L18.55 239.4 Q17.7 239.55 16.85 239.7 15.5 239.95 14.2 240.15 M14.2 240.15 L14.6 240.05 15.7 239.35 17.0 239.15 Q17.5 239.1 18.0 239.05 19.25 238.95 20.45 238.9 L21.05 238.9 Q20.05 239.1 19.05 239.3 18.65 239.4 18.25 239.5 L17.75 239.55 Q17.35 239.6 16.95 239.65 16.4 239.75 15.9 239.85 L14.2 240.15 M14.2 240.15 Q14.95 239.75 15.7 239.35 L21.05 238.9 14.2 240.15 M14.2 240.15 L14.2 240.15 14.6 240.05 14.6 240.05 Q14.75 239.95 14.9 239.85 15.3 239.6 15.7 239.35 L16.2 239.25 Q16.2 239.25 16.2 239.25 16.5 239.2 16.8 239.15 17.05 239.1 17.3 239.05 17.4 239.05 17.5 239.05 17.6 239.05 17.7 239.05 18.6 238.95 19.5 238.9 L19.6 238.9 Q19.7 238.9 19.8 238.9 20.3 238.9 20.75 238.9 20.9 238.9 21.05 238.9 21.05 238.9 21.05 238.9 20.9 238.9 20.75 238.9 20.4 238.95 20.1 239.0 20.05 239.0 20.0 239.0 19.8 239.05 19.6 239.1 19.4 239.15 19.2 239.2 L18.8 239.3 Q18.55 239.35 18.3 239.4 18.15 239.45 18.0 239.5 17.7 239.55 17.4 239.6 17.15 239.65 16.9 239.7 16.65 239.75 16.4 239.75 16.1 239.8 15.8 239.85 15.0 240.0 14.2 240.15 M14.2 240.15 L15.7 239.35 Q18.4 239.1 21.05 238.9 L14.2 240.15 M14.2 240.15 L14.6 240.05 15.0 239.75 15.7 239.35 Q17.45 239.15 19.15 238.95 20.1 238.9 21.05 238.9 L20.55 239.0 20.05 239.1 Q17.6 239.6 15.2 240.05 14.85 240.1 14.5 240.15 L14.2 240.15 M14.2 240.15 L15.7 239.35 Q18.4 239.1 21.05 238.9 L14.2 240.15"/>
    </path>
    <path d="M-59.8 92.95 Q-58.4 90.65 -57.5 87.75 L-57.25 86.9 Q-55.1 79.35 -55.35 71.55 -55.55 66.45 -54.85 61.5 L-54.2 57.9 -53.95 56.2 Q-53.85 55.1 -53.75 53.95 L-53.75 52.7 -53.75 51.6 -53.75 51.0 Q-53.75 48.0 -53.35 44.85 -53.1 42.95 -51.85 40.0 -51.15 38.3 -50.95 35.4 -48.6 32.65 -47.1 29.45 L-46.05 26.95 -45.95 26.55 -45.5 25.05 -45.0 22.7 -43.15 21.8 -42.45 21.5 -40.4 20.75 Q-40.55 19.0 -37.05 16.05 L-32.3 11.9 Q-29.95 9.8 -27.55 7.65 L-26.0 6.25 -25.95 5.55 -25.8 4.7 -25.7 4.25 Q-25.25 2.25 -23.5 1.55 -21.8 0.75 -19.95 0.6 L-19.45 0.55 -19.1 -0.95 -18.85 -1.7 -17.7 -3.85 -17.55 -9.3 Q-17.4 -12.25 -17.25 -15.25 L-17.1 -16.45 -16.7 -17.8 -16.5 -18.3 -16.4 -18.6 Q-15.75 -19.8 -14.65 -20.55 L-10.6 -23.15 Q-8.75 -24.05 -6.85 -24.95 L-6.55 -25.05 Q-6.1 -26.15 -5.65 -27.25 L-5.05 -28.1 Q-4.45 -28.8 -3.45 -28.95 -2.0 -29.0 -0.5 -29.1 L1.35 -29.1 1.95 -29.05 2.05 -29.05 2.95 -29.0 Q4.65 -28.75 6.4 -28.5 8.65 -28.05 10.8 -27.25 L13.4 -26.15 14.9 -25.4 15.35 -25.1 16.35 -24.5 17.2 -23.95 Q19.3 -22.4 20.35 -20.2 L21.2 -17.7 21.2 -17.6 21.6 -15.75 Q21.95 -14.3 22.55 -12.9 L23.45 -11.0 Q23.8 -10.4 24.15 -9.8 24.75 -8.85 24.85 -7.75 L24.75 -6.45 Q24.3 -3.9 21.95 -3.3 L21.45 -3.2 21.2 -3.1 19.6 -2.65 19.3 -2.55 18.55 -1.75 21.4 -0.55 21.8 -0.35 Q27.75 2.5 31.35 7.85 31.95 8.85 32.55 9.9 L33.3 11.35 Q35.6 12.0 37.8 13.0 L39.6 13.9 40.3 14.3 42.05 15.5 43.1 16.55 Q46.5 20.5 47.4 25.55 L47.7 28.45 47.7 29.25 48.05 31.75 48.45 34.0 48.65 34.9 Q49.25 37.95 49.9 41.0 L50.25 42.6 Q50.65 44.65 51.1 46.75 L51.9 51.0 52.0 51.6 52.1 52.0 52.1 52.25 52.35 53.55 53.95 62.9 54.45 65.5 54.6 66.2 54.6 66.4 Q54.9 68.1 56.5 68.75 59.2 69.9 60.8 72.15 L61.9 74.05 61.9 74.15 62.6 75.8 Q63.65 78.55 64.7 81.3 L64.9 81.8 Q65.95 84.8 66.5 87.8 67.1 90.9 67.15 94.05 67.3 98.5 66.4 103.0 L66.05 104.75 65.55 105.95 Q63.7 109.35 61.45 112.55 L61.1 113.1 Q58.55 116.6 56.25 120.25 53.45 124.65 50.9 129.25 L50.45 130.05 Q50.15 130.6 49.85 131.15 L49.75 131.35 Q48.6 133.4 47.6 135.5 L48.5 139.55 49.5 144.1 50.85 150.5 51.15 151.7 Q52.4 157.35 52.75 163.15 53.25 172.1 51.8 180.85 51.65 181.85 51.45 182.85 L50.55 186.8 Q49.8 190.35 49.0 193.9 48.75 195.65 48.45 197.4 47.6 202.8 47.25 208.35 L47.2 209.05 47.15 210.05 Q49.05 212.5 51.55 214.4 L53.7 215.85 Q54.25 216.2 54.35 216.9 L54.4 217.55 55.2 218.55 Q58.15 222.75 53.2 226.2 50.1 228.35 47.25 230.8 L46.8 231.0 46.6 231.0 46.05 233.0 45.4 234.8 Q44.8 236.25 43.6 237.3 L42.3 238.55 41.5 238.75 39.2 239.15 Q34.1 239.7 28.85 238.15 L27.85 237.85 Q22.6 236.2 17.35 234.5 14.9 233.7 12.45 232.85 9.8 233.9 7.0 233.5 6.3 233.35 5.6 233.2 5.05 234.55 4.3 235.3 2.45 237.2 -0.6 235.55 L-1.25 235.2 -1.25 235.2 -1.3 235.15 -1.5 235.0 Q-2.6 234.2 -3.15 232.85 L-5.5 232.6 -8.4 232.6 Q-11.75 232.85 -14.95 233.95 L-16.25 234.3 Q-17.7 234.35 -19.2 234.4 L-19.2 234.8 -19.15 235.25 Q-19.0 238.3 -21.3 240.15 L-22.95 240.25 Q-24.65 240.1 -25.75 239.0 -26.85 237.9 -27.35 235.8 -27.5 235.25 -28.0 234.9 L-29.8 233.55 -31.75 231.8 Q-33.65 231.95 -35.0 229.7 L-35.3 229.2 -36.4 227.25 -37.1 226.05 -37.75 224.95 Q-39.05 222.85 -40.6 220.9 L-40.9 220.6 Q-41.95 219.3 -41.75 217.55 L-41.4 215.65 Q-40.75 212.95 -39.2 210.3 L-38.55 209.15 -37.05 205.6 -38.75 203.5 Q-39.35 202.55 -39.4 201.4 -39.55 197.6 -39.25 193.95 L-39.15 192.2 -39.0 191.0 Q-38.9 190.0 -38.75 189.0 -38.55 187.85 -38.35 186.65 -39.55 184.1 -40.8 181.55 -42.45 177.9 -43.7 174.15 L-44.2 172.75 -44.3 172.45 -44.4 171.95 Q-44.5 170.85 -44.0 169.75 L-43.2 168.15 Q-40.6 162.6 -39.05 156.75 L-37.9 151.45 Q-37.6 149.5 -37.3 147.5 L-37.05 144.65 Q-36.9 142.8 -36.25 141.1 L-36.05 140.7 -36.0 139.55 -38.05 138.85 -38.7 138.05 -39.0 137.0 -39.65 133.65 -39.85 133.6 Q-42.15 132.95 -44.5 132.25 L-44.8 132.15 Q-45.6 131.95 -46.4 131.75 -49.75 130.7 -53.15 129.65 -54.7 129.15 -56.25 128.6 L-56.35 128.6 -58.15 127.45 Q-58.95 126.55 -59.15 125.1 -59.4 123.5 -58.95 122.0 L-58.1 119.25 -57.2 116.6 -57.0 115.9 Q-56.6 114.6 -56.6 113.3 L-56.6 112.3 -56.5 104.75 -56.4 102.2 Q-57.95 100.1 -59.5 98.0 -61.0 96.0 -60.35 94.05 L-59.8 92.95 M-54.4 53.5 L-53.75 51.6 -53.75 52.7 Q-54.05 53.7 -54.4 53.5 M-47.7 211.25 Q-47.5 200.5 -39.25 193.95 -39.55 197.6 -39.4 201.4 -38.0 204.6 -37.05 205.6 -37.9 208.0 -39.2 210.3 -41.3 213.85 -41.75 217.55 -41.95 219.3 -40.9 220.6 -39.15 222.65 -37.75 224.95 L-35.3 229.2 Q-33.85 231.95 -31.75 231.8 -30.05 233.5 -28.0 234.9 -27.5 235.25 -27.35 235.8 -26.2 240.85 -21.3 240.15 -19.0 238.3 -19.15 235.25 -18.9 234.45 -18.6 234.45 -16.5 234.5 -14.95 233.95 -9.25 231.95 -3.15 232.85 -2.55 234.35 -1.3 235.15 L-3.05 235.35 Q-12.25 244.05 -23.9 240.3 -25.75 239.7 -27.0 238.1 -27.85 237.1 -27.9 235.8 -31.1 235.85 -34.55 234.65 -38.55 233.25 -38.3 228.85 -38.25 228.4 -38.35 227.95 L-40.15 227.75 Q-45.4 226.75 -47.05 221.55 -47.65 219.7 -47.7 217.7 L-47.7 217.6 -47.7 211.55 -47.7 211.25 M-47.15 28.1 L-46.6 27.35 -45.95 26.55 Q-47.1 28.7 -47.15 28.1 M-46.4 131.75 L-39.65 133.65 Q-39.4 136.0 -38.7 138.05 -37.1 139.35 -36.0 139.55 L-36.25 141.1 Q-36.9 142.8 -37.05 144.65 -37.4 149.5 -38.4 154.2 L-39.05 156.75 Q-39.85 151.75 -41.6 146.8 -42.4 144.5 -43.4 142.5 L-45.15 138.15 -46.2 133.65 -46.4 131.75 M-43.85 15.6 Q-39.35 13.15 -35.1 10.15 -32.2 8.1 -30.9 5.25 L-26.8 4.85 Q-27.25 7.35 -28.4 8.35 L-37.05 16.05 Q-40.55 19.0 -40.4 20.75 L-42.35 21.5 -42.55 20.5 -43.35 17.5 -43.85 15.6 M-41.4 183.6 L-40.9 181.75 -38.35 186.65 Q-38.65 188.8 -39.0 191.0 L-39.35 190.15 -40.85 185.8 -41.25 184.2 -41.4 183.6 M2.05 -29.05 L5.45 -29.85 Q14.4 -28.8 20.2 -22.8 L21.2 -18.8 21.2 -17.7 Q20.25 -22.1 16.35 -24.5 L14.9 -25.4 Q11.5 -27.25 7.9 -28.15 L3.9 -28.9 2.05 -29.05 M4.3 235.3 Q9.7 236.8 12.45 232.85 9.05 234.1 5.6 233.2 L4.3 235.3 M12.55 224.5 L12.55 224.55 Q12.35 225.7 13.65 224.8 L12.55 224.5 12.55 224.55 Q12.35 225.7 13.65 224.8 L12.55 224.5 M16.65 -0.05 L17.25 -4.05 Q18.35 -3.5 17.65 -2.75 L16.65 -0.05 17.25 -4.05 Q18.35 -3.5 17.65 -2.75 L16.65 -0.05 M18.55 -1.75 L19.3 -2.55 Q21.2 -2.65 21.2 -2.25 29.35 3.15 37.1 9.6 L38.15 11.5 39.3 13.3 Q36.6 12.25 33.3 11.35 30.2 4.75 24.4 1.1 L21.8 -0.35 20.3 -1.05 18.55 -1.75" fill="none" stroke="#000000" stroke-linecap="round" stroke-linejoin="round" stroke-opacity="0.0" stroke-width="1.0">
      <animate attributeName="stroke" dur="2s" repeatCount="indefinite" values="#000000;#000001"/>
      <animate attributeName="stroke-width" dur="2s" repeatCount="indefinite" values="0.0;0.0"/>
      <animate attributeName="fill-opacity" dur="2s" repeatCount="indefinite" values="0.0;0.0"/>
      <animate attributeName="d" dur="2s" repeatCount="indefinite" values="M-59.8 92.95 Q-58.4 90.65 -57.5 87.75 L-57.25 86.9 Q-55.1 79.35 -55.35 71.55 -55.55 66.45 -54.85 61.5 L-54.2 57.9 -53.95 56.2 Q-53.85 55.1 -53.75 53.95 L-53.75 52.7 -53.75 51.6 -53.75 51.0 Q-53.75 48.0 -53.35 44.85 -53.1 42.95 -51.85 40.0 -51.15 38.3 -50.95 35.4 -48.6 32.65 -47.1 29.45 L-46.05 26.95 -45.95 26.55 -45.5 25.05 -45.0 22.7 -43.15 21.8 -42.45 21.5 -40.4 20.75 Q-40.55 19.0 -37.05 16.05 L-32.3 11.9 Q-29.95 9.8 -27.55 7.65 L-26.0 6.25 -25.95 5.55 -25.8 4.7 -25.7 4.25 Q-25.25 2.25 -23.5 1.55 -21.8 0.75 -19.95 0.6 L-19.45 0.55 -19.1 -0.95 -18.85 -1.7 -17.7 -3.85 -17.55 -9.3 Q-17.4 -12.25 -17.25 -15.25 L-17.1 -16.45 -16.7 -17.8 -16.5 -18.3 -16.4 -18.6 Q-15.75 -19.8 -14.65 -20.55 L-10.6 -23.15 Q-8.75 -24.05 -6.85 -24.95 L-6.55 -25.05 Q-6.1 -26.15 -5.65 -27.25 L-5.05 -28.1 Q-4.45 -28.8 -3.45 -28.95 -2.0 -29.0 -0.5 -29.1 L1.35 -29.1 1.95 -29.05 2.05 -29.05 2.95 -29.0 Q4.65 -28.75 6.4 -28.5 8.65 -28.05 10.8 -27.25 L13.4 -26.15 14.9 -25.4 15.35 -25.1 16.35 -24.5 17.2 -23.95 Q19.3 -22.4 20.35 -20.2 L21.2 -17.7 21.2 -17.6 21.6 -15.75 Q21.95 -14.3 22.55 -12.9 L23.45 -11.0 Q23.8 -10.4 24.15 -9.8 24.75 -8.85 24.85 -7.75 L24.75 -6.45 Q24.3 -3.9 21.95 -3.3 L21.45 -3.2 21.2 -3.1 19.6 -2.65 19.3 -2.55 18.55 -1.75 21.4 -0.55 21.8 -0.35 Q27.75 2.5 31.35 7.85 31.95 8.85 32.55 9.9 L33.3 11.35 Q35.6 12.0 37.8 13.0 L39.6 13.9 40.3 14.3 42.05 15.5 43.1 16.55 Q46.5 20.5 47.4 25.55 L47.7 28.45 47.7 29.25 48.05 31.75 48.45 34.0 48.65 34.9 Q49.25 37.95 49.9 41.0 L50.25 42.6 Q50.65 44.65 51.1 46.75 L51.9 51.0 52.0 51.6 52.1 52.0 52.1 52.25 52.35 53.55 53.95 62.9 54.45 65.5 54.6 66.2 54.6 66.4 Q54.9 68.1 56.5 68.75 59.2 69.9 60.8 72.15 L61.9 74.05 61.9 74.15 62.6 75.8 Q63.65 78.55 64.7 81.3 L64.9 81.8 Q65.95 84.8 66.5 87.8 67.1 90.9 67.15 94.05 67.3 98.5 66.4 103.0 L66.05 104.75 65.55 105.95 Q63.7 109.35 61.45 112.55 L61.1 113.1 Q58.55 116.6 56.25 120.25 53.45 124.65 50.9 129.25 L50.45 130.05 Q50.15 130.6 49.85 131.15 L49.75 131.35 Q48.6 133.4 47.6 135.5 L48.5 139.55 49.5 144.1 50.85 150.5 51.15 151.7 Q52.4 157.35 52.75 163.15 53.25 172.1 51.8 180.85 51.65 181.85 51.45 182.85 L50.55 186.8 Q49.8 190.35 49.0 193.9 48.75 195.65 48.45 197.4 47.6 202.8 47.25 208.35 L47.2 209.05 47.15 210.05 Q49.05 212.5 51.55 214.4 L53.7 215.85 Q54.25 216.2 54.35 216.9 L54.4 217.55 55.2 218.55 Q58.15 222.75 53.2 226.2 50.1 228.35 47.25 230.8 L46.8 231.0 46.6 231.0 46.05 233.0 45.4 234.8 Q44.8 236.25 43.6 237.3 L42.3 238.55 41.5 238.75 39.2 239.15 Q34.1 239.7 28.85 238.15 L27.85 237.85 Q22.6 236.2 17.35 234.5 14.9 233.7 12.45 232.85 9.8 233.9 7.0 233.5 6.3 233.35 5.6 233.2 5.05 234.55 4.3 235.3 2.45 237.2 -0.6 235.55 L-1.25 235.2 -1.25 235.2 -1.3 235.15 -1.5 235.0 Q-2.6 234.2 -3.15 232.85 L-5.5 232.6 -8.4 232.6 Q-11.75 232.85 -14.95 233.95 L-16.25 234.3 Q-17.7 234.35 -19.2 234.4 L-19.2 234.8 -19.15 235.25 Q-19.0 238.3 -21.3 240.15 L-22.95 240.25 Q-24.65 240.1 -25.75 239.0 -26.85 237.9 -27.35 235.8 -27.5 235.25 -28.0 234.9 L-29.8 233.55 -31.75 231.8 Q-33.65 231.95 -35.0 229.7 L-35.3 229.2 -36.4 227.25 -37.1 226.05 -37.75 224.95 Q-39.05 222.85 -40.6 220.9 L-40.9 220.6 Q-41.95 219.3 -41.75 217.55 L-41.4 215.65 Q-40.75 212.95 -39.2 210.3 L-38.55 209.15 -37.05 205.6 -38.75 203.5 Q-39.35 202.55 -39.4 201.4 -39.55 197.6 -39.25 193.95 L-39.15 192.2 -39.0 191.0 Q-38.9 190.0 -38.75 189.0 -38.55 187.85 -38.35 186.65 -39.55 184.1 -40.8 181.55 -42.45 177.9 -43.7 174.15 L-44.2 172.75 -44.3 172.45 -44.4 171.95 Q-44.5 170.85 -44.0 169.75 L-43.2 168.15 Q-40.6 162.6 -39.05 156.75 L-37.9 151.45 Q-37.6 149.5 -37.3 147.5 L-37.05 144.65 Q-36.9 142.8 -36.25 141.1 L-36.05 140.7 -36.0 139.55 -38.05 138.85 -38.7 138.05 -39.0 137.0 -39.65 133.65 -39.85 133.6 Q-42.15 132.95 -44.5 132.25 L-44.8 132.15 Q-45.6 131.95 -46.4 131.75 -49.75 130.7 -53.15 129.65 -54.7 129.15 -56.25 128.6 L-56.35 128.6 -58.15 127.45 Q-58.95 126.55 -59.15 125.1 -59.4 123.5 -58.95 122.0 L-58.1 119.25 -57.2 116.6 -57.0 115.9 Q-56.6 114.6 -56.6 113.3 L-56.6 112.3 -56.5 104.75 -56.4 102.2 Q-57.95 100.1 -59.5 98.0 -61.0 96.0 -60.35 94.05 L-59.8 92.95 M-54.4 53.5 L-53.75 51.6 -53.75 52.7 Q-54.05 53.7 -54.4 53.5 M-47.7 211.25 Q-47.5 200.5 -39.25 193.95 -39.55 197.6 -39.4 201.4 -38.0 204.6 -37.05 205.6 -37.9 208.0 -39.2 210.3 -41.3 213.85 -41.75 217.55 -41.95 219.3 -40.9 220.6 -39.15 222.65 -37.75 224.95 L-35.3 229.2 Q-33.85 231.95 -31.75 231.8 -30.05 233.5 -28.0 234.9 -27.5 235.25 -27.35 235.8 -26.2 240.85 -21.3 240.15 -19.0 238.3 -19.15 235.25 -18.9 234.45 -18.6 234.45 -16.5 234.5 -14.95 233.95 -9.25 231.95 -3.15 232.85 -2.55 234.35 -1.3 235.15 L-3.05 235.35 Q-12.25 244.05 -23.9 240.3 -25.75 239.7 -27.0 238.1 -27.85 237.1 -27.9 235.8 -31.1 235.85 -34.55 234.65 -38.55 233.25 -38.3 228.85 -38.25 228.4 -38.35 227.95 L-40.15 227.75 Q-45.4 226.75 -47.05 221.55 -47.65 219.7 -47.7 217.7 L-47.7 217.6 -47.7 211.55 -47.7 211.25 M-47.15 28.1 L-46.6 27.35 -45.95 26.55 Q-47.1 28.7 -47.15 28.1 M-46.4 131.75 L-39.65 133.65 Q-39.4 136.0 -38.7 138.05 -37.1 139.35 -36.0 139.55 L-36.25 141.1 Q-36.9 142.8 -37.05 144.65 -37.4 149.5 -38.4 154.2 L-39.05 156.75 Q-39.85 151.75 -41.6 146.8 -42.4 144.5 -43.4 142.5 L-45.15 138.15 -46.2 133.65 -46.4 131.75 M-43.85 15.6 Q-39.35 13.15 -35.1 10.15 -32.2 8.1 -30.9 5.25 L-26.8 4.85 Q-27.25 7.35 -28.4 8.35 L-37.05 16.05 Q-40.55 19.0 -40.4 20.75 L-42.35 21.5 -42.55 20.5 -43.35 17.5 -43.85 15.6 M-41.4 183.6 L-40.9 181.75 -38.35 186.65 Q-38.65 188.8 -39.0 191.0 L-39.35 190.15 -40.85 185.8 -41.25 184.2 -41.4 183.6 M2.05 -29.05 L5.45 -29.85 Q14.4 -28.8 20.2 -22.8 L21.2 -18.8 21.2 -17.7 Q20.25 -22.1 16.35 -24.5 L14.9 -25.4 Q11.5 -27.25 7.9 -28.15 L3.9 -28.9 2.05 -29.05 M4.3 235.3 Q9.7 236.8 12.45 232.85 9.05 234.1 5.6 233.2 L4.3 235.3 M12.55 224.5 L12.55 224.55 Q12.35 225.7 13.65 224.8 L12.55 224.5 12.55 224.55 Q12.35 225.7 13.65 224.8 L12.55 224.5 M16.65 -0.05 L17.25 -4.05 Q18.35 -3.5 17.65 -2.75 L16.65 -0.05 17.25 -4.05 Q18.35 -3.5 17.65 -2.75 L16.65 -0.05 M18.55 -1.75 L19.3 -2.55 Q21.2 -2.65 21.2 -2.25 29.35 3.15 37.1 9.6 L38.15 11.5 39.3 13.3 Q36.6 12.25 33.3 11.35 30.2 4.75 24.4 1.1 L21.8 -0.35 20.3 -1.05 18.55 -1.75;M-58.7 95.9 Q-58.5 92.85 -57.5 90.0 L-57.2 89.2 Q-54.75 81.9 -52.25 74.6 -50.7 69.95 -49.1 65.25 L-48.1 61.8 -47.7 60.1 Q-46.55 61.1 -45.7 61.05 L-44.65 60.45 -44.1 59.35 -43.9 58.75 Q-43.1 55.85 -42.75 53.0 -42.4 50.4 -42.45 47.9 -42.5 45.65 -42.8 43.45 -43.3 39.85 -44.6 36.35 L-45.6 34.05 -45.6 33.7 -45.65 32.2 -46.0 30.0 -46.3 27.8 -45.6 27.5 -43.8 26.7 Q-41.25 25.45 -38.7 24.2 L-33.3 21.15 Q-31.15 18.9 -30.1 15.95 L-29.55 14.2 -29.4 13.6 -29.2 12.7 -29.05 12.1 Q-28.55 10.45 -28.05 8.75 -27.45 7.05 -26.85 5.3 L-26.35 5.3 -24.8 5.45 -24.4 4.65 -23.15 2.2 -20.75 -2.55 Q-19.45 -5.1 -18.55 -7.85 L-18.2 -9.0 -17.8 -10.45 -17.9 -10.05 -17.95 -9.75 Q-17.1 -10.8 -16.2 -11.85 L-13.2 -15.8 Q-11.45 -16.15 -9.85 -17.6 L-9.3 -18.2 Q-8.4 -19.2 -8.15 -20.35 L-8.05 -21.15 Q-7.4 -21.8 -6.7 -22.45 -5.75 -23.6 -5.2 -25.05 L-4.75 -26.6 -4.65 -27.05 -4.55 -26.95 -4.2 -26.1 Q-3.35 -24.4 -1.35 -24.45 0.25 -25.95 1.85 -27.45 L4.6 -27.6 5.95 -28.5 6.35 -28.8 7.05 -28.0 7.65 -27.2 Q9.85 -26.15 12.05 -25.05 L14.55 -24.1 14.65 -24.0 16.05 -22.95 Q17.1 -21.9 17.75 -20.4 L18.2 -18.35 Q18.2 -17.55 18.35 -16.75 18.65 -15.7 18.95 -14.65 L19.45 -13.45 Q20.4 -11.4 21.4 -9.3 L21.4 -9.2 21.5 -8.9 22.3 -7.5 22.4 -7.3 23.0 -6.25 24.4 -4.1 24.7 -3.7 Q28.65 1.5 35.15 3.1 36.15 3.45 36.55 4.4 L37.2 5.9 Q38.35 8.05 39.5 10.25 L40.5 12.1 40.8 12.75 41.45 14.6 41.9 15.9 Q43.6 20.65 47.1 24.4 L49.1 26.75 49.5 27.3 51.0 29.5 52.0 31.35 52.35 32.1 Q50.95 34.7 51.5 38.0 L51.85 39.5 Q52.45 41.5 53.65 43.15 L55.95 46.5 55.6 46.0 55.75 46.5 55.75 46.65 56.15 47.95 59.1 56.55 60.1 59.25 60.3 59.95 60.3 60.15 Q60.05 61.7 59.75 63.3 59.5 66.1 60.1 68.8 L60.75 71.05 60.75 71.15 60.65 73.0 Q60.55 76.0 61.3 79.05 L61.4 79.55 Q62.15 82.45 63.25 85.25 62.85 88.35 62.45 91.5 61.7 95.9 61.5 100.35 L61.4 102.25 61.3 103.55 Q61.05 107.45 60.4 111.25 L60.3 111.95 Q59.35 116.15 58.35 120.35 53.7 123.0 49.55 126.4 L48.75 127.0 Q48.15 127.5 47.95 128.15 L47.9 128.35 Q47.6 130.8 47.3 133.25 L47.0 137.25 46.8 141.75 46.8 147.85 46.05 148.85 Q42.7 153.5 40.6 158.55 37.3 166.65 37.25 175.85 37.25 176.95 37.85 177.7 L40.75 180.55 Q43.4 182.7 46.95 184.15 47.85 185.85 47.75 187.65 47.55 193.1 47.3 198.6 L47.3 199.4 47.25 200.4 Q47.1 203.6 46.9 206.8 L46.8 209.55 Q46.75 210.15 46.7 210.75 L46.7 211.45 46.6 212.55 Q46.35 217.25 47.05 221.7 47.65 225.4 48.9 228.95 L49.2 229.75 49.3 229.95 49.9 231.65 48.05 231.75 Q46.55 231.95 45.0 232.2 L43.25 232.55 42.3 232.85 40.0 233.2 Q34.95 232.8 29.85 232.4 L28.75 232.3 Q23.3 231.55 17.85 232.9 15.45 233.5 13.15 234.35 10.5 235.3 7.95 236.6 7.3 236.9 6.7 237.25 5.55 237.85 4.4 238.5 2.1 239.8 -0.25 241.1 L-0.6 241.35 -0.5 241.35 -0.4 241.35 -0.1 241.35 Q-1.4 241.35 -2.75 241.35 L-5.15 241.35 -8.05 241.6 Q-11.5 242.05 -14.7 241.45 L-16.0 241.15 Q-17.7 240.7 -18.9 239.7 L-19.2 239.4 -19.6 239.05 Q-21.65 237.25 -23.75 235.45 L-25.05 234.35 Q-26.4 233.3 -27.9 232.55 -29.35 231.8 -30.8 231.05 -31.15 230.8 -31.55 230.55 L-33.3 229.3 -35.9 228.65 Q-37.55 228.0 -39.25 227.35 L-39.7 227.1 -41.75 225.75 -42.45 224.6 -42.65 223.4 Q-42.9 221.05 -43.2 218.7 L-42.85 218.9 Q-41.5 219.7 -39.75 219.65 L-37.7 219.3 Q-35.3 217.0 -36.15 214.25 L-36.7 213.0 -38.15 209.55 -38.65 206.95 Q-38.65 205.95 -38.6 204.95 -38.25 201.45 -35.6 198.2 L-34.3 196.8 -33.5 195.85 Q-32.9 194.95 -32.75 193.8 -32.55 192.65 -32.5 191.5 -32.35 188.6 -33.05 185.85 -34.0 182.0 -36.45 178.45 L-37.35 177.4 -37.65 177.1 -38.2 176.65 Q-37.9 175.55 -37.55 174.4 L-36.95 172.6 Q-34.8 166.95 -33.75 161.05 L-33.0 155.55 Q-32.85 153.6 -33.1 151.75 L-33.5 148.85 Q-33.75 147.05 -34.0 145.2 L-34.1 144.6 -34.2 143.4 -34.5 141.1 -34.6 140.3 -34.75 139.1 -38.2 138.85 -38.4 138.85 Q-39.55 137.1 -41.5 135.5 L-41.6 135.15 Q-41.7 134.3 -41.95 133.6 -43.15 129.85 -47.75 130.25 -49.1 130.8 -50.05 132.05 L-50.15 131.95 -51.25 130.0 Q-51.75 128.85 -52.25 127.65 -52.6 126.1 -53.0 124.55 L-53.2 121.5 -53.2 118.9 -53.3 118.0 Q-53.45 116.65 -53.85 115.4 L-54.2 114.35 -56.95 107.5 -57.75 105.1 Q-58.45 102.7 -58.65 100.25 -58.65 98.1 -58.7 95.9 L-58.7 95.9 M14.2 240.15 L21.05 238.9 15.7 239.35 Q14.95 239.75 14.2 240.15 M14.2 240.15 Q15.0 240.0 15.8 239.85 16.1 239.8 16.4 239.75 16.65 239.75 16.9 239.7 17.15 239.65 17.4 239.6 17.7 239.55 18.0 239.5 18.15 239.45 18.3 239.4 18.55 239.35 18.8 239.3 L19.2 239.2 Q19.4 239.15 19.6 239.1 19.8 239.05 20.0 239.0 20.05 239.0 20.1 239.0 20.4 238.95 20.75 238.9 20.9 238.9 21.05 238.9 21.05 238.9 21.05 238.9 20.9 238.9 20.75 238.9 20.3 238.9 19.8 238.9 19.7 238.9 19.6 238.9 L19.5 238.9 Q18.6 238.95 17.7 239.05 17.6 239.05 17.5 239.05 17.4 239.05 17.3 239.05 17.05 239.1 16.8 239.15 16.5 239.2 16.2 239.25 16.2 239.25 16.2 239.25 L15.7 239.35 Q15.3 239.6 14.9 239.85 14.75 239.95 14.6 240.05 L14.6 240.05 14.2 240.15 14.2 240.15 M14.2 240.15 L21.05 238.9 15.7 239.35 Q14.95 239.75 14.2 240.15 M14.2 240.15 L15.9 239.85 Q16.4 239.75 16.95 239.65 17.35 239.6 17.75 239.55 L18.25 239.5 Q18.65 239.4 19.05 239.3 20.05 239.1 21.05 238.9 L20.45 238.9 Q19.25 238.95 18.0 239.05 17.5 239.1 17.0 239.15 L15.7 239.35 14.6 240.05 14.2 240.15 M14.2 240.15 Q15.5 239.95 16.85 239.7 17.7 239.55 18.55 239.4 L19.65 239.2 Q20.35 239.05 21.05 238.9 L17.9 239.05 Q17.1 239.15 16.3 239.25 L15.7 239.35 15.5 239.45 14.6 240.05 14.2 240.15 M14.2 240.15 L15.5 239.95 19.65 239.2 Q20.35 238.9 19.65 238.95 L19.05 238.95 15.7 239.35 14.6 240.05 14.2 240.15 M14.2 240.15 L15.2 239.95 Q17.55 239.55 19.9 239.1 L21.05 238.9 20.75 238.9 Q19.55 238.95 18.35 239.0 L17.9 239.05 Q16.8 239.2 15.7 239.35 L14.6 240.05 14.2 240.15 M14.2 240.15 Q17.5 239.55 20.85 238.9 18.45 239.1 16.0 239.3 L14.2 240.15 M14.2 240.15 L21.05 238.9 Q18.4 239.1 15.7 239.35 L14.2 240.15 21.05 238.9 Q18.4 239.1 15.7 239.35 L14.2 240.15 M14.2 240.15 L21.05 238.9 Q18.4 239.1 15.7 239.35 L14.2 240.15 21.05 238.9 Q18.4 239.1 15.7 239.35 L14.2 240.15 M14.2 240.15 L14.5 240.15 Q14.85 240.1 15.2 240.05 17.6 239.6 20.05 239.1 L20.55 239.0 21.05 238.9 Q20.1 238.9 19.15 238.95 17.45 239.15 15.7 239.35 L15.0 239.75 14.6 240.05 14.2 240.15"/>
    </path>
  </g>
</svg>
