<?xml version="1.0" encoding="UTF-8" standalone="no"?>
<svg xmlns:xlink="http://www.w3.org/1999/xlink" height="260.1px" width="80.55px" xmlns="http://www.w3.org/2000/svg">
  <g transform="matrix(1.0, 0.0, 0.0, 1.0, 41.1, 35.25)">
    <path d="M-41.05 62.05 L-41.05 62.05 Q-41.05 62.55 -41.05 63.05 -41.0 63.35 -40.95 63.6 -39.5 69.25 -38.5 75.2 -37.45 81.75 -37.05 88.35 -37.4 90.05 -36.8 92.1 -36.4 95.45 -35.2 98.4 -33.85 104.95 -32.95 111.65 -32.4 115.6 -32.0 119.65 L-31.8 121.2 -31.6 121.4 -31.55 121.5 Q-31.45 121.65 -31.35 121.8 L-30.9 122.15 -29.6 122.15 Q-29.5 122.15 -29.4 122.15 L-29.3 122.05 -29.05 121.85 Q-28.65 121.4 -28.6 120.75 L-28.5 119.1 -28.5 118.75 -28.2 118.8 Q-27.85 118.95 -27.55 119.1 -27.5 119.25 -27.5 119.4 -27.45 119.6 -27.4 119.75 -27.3 119.85 -27.2 119.95 -27.2 120.0 -27.2 120.05 -27.0 120.25 -26.85 120.4 -26.35 120.4 -25.9 120.4 -25.9 120.4 -25.9 120.4 -25.75 120.3 -25.65 120.2 L-25.55 120.1 Q-25.35 120.05 -25.15 120.0 L-25.15 120.0 -24.9 119.65 -24.7 119.3 Q-24.55 119.15 -24.45 119.0 L-25.3 110.8 Q-25.7 103.85 -27.15 97.1 L-29.45 86.85 Q-30.55 82.1 -31.25 77.35 L-31.15 77.25 Q-30.35 76.45 -30.05 75.4 -29.8 74.7 -29.6 74.05 -29.4 72.7 -28.65 71.45 L-28.25 70.5 -27.2 68.05 -26.55 68.45 -23.05 71.1 Q-21.95 71.9 -21.95 73.3 L-17.85 78.2 Q-17.4 78.7 -16.65 78.85 L-15.95 79.05 Q-15.85 79.25 -15.8 79.45 -15.7 79.8 -15.6 80.15 L-15.0 81.35 Q-13.5 83.65 -12.75 86.4 L-13.15 86.95 -12.3 89.95 Q-11.5 92.25 -10.75 94.55 L-10.75 94.6 -12.35 101.6 -13.75 103.75 Q-18.6 111.75 -17.75 121.6 L-17.4 126.25 Q-17.1 129.35 -16.8 132.4 L-15.65 139.3 Q-15.5 139.95 -15.65 140.5 -17.7 147.55 -18.6 154.75 L-19.0 158.6 Q-19.65 164.85 -18.15 171.05 L-17.45 173.8 Q-16.45 177.45 -16.15 181.25 -15.25 192.35 -12.75 203.25 -10.05 214.65 -4.7 224.85 -3.9 224.85 -3.15 224.85 -2.95 224.7 -2.8 224.55 L-2.5 223.85 Q-2.2 222.25 -2.55 220.55 -3.25 217.45 -3.95 214.4 -4.8 211.1 -5.8 207.85 -6.2 206.55 -5.95 205.3 -5.35 202.4 -6.15 199.55 -9.0 188.95 -9.7 178.0 L-9.3 177.75 -8.8 177.5 -8.4 177.35 Q-7.35 176.3 -7.4 174.85 L-7.5 158.45 Q-7.4 152.85 -6.55 147.35 L-3.95 128.6 Q-3.6 128.45 -3.25 128.3 -3.0 128.2 -2.75 128.15 -1.6 127.25 -0.9 125.9 0.25 123.6 -0.1 120.95 5.3 128.2 8.15 136.65 8.2 136.85 8.25 137.05 8.25 137.6 8.25 138.15 7.15 143.0 10.6 146.1 12.8 154.95 13.85 164.0 15.3 176.15 15.35 188.6 15.4 192.1 17.7 194.05 L17.7 194.3 17.7 194.6 18.15 194.5 18.9 193.8 19.2 193.15 19.3 191.9 19.1 189.7 Q18.8 185.15 19.25 180.4 20.95 180.45 21.75 179.1 24.3 174.85 23.45 169.75 L22.95 166.65 Q21.55 157.5 20.55 148.5 21.0 149.55 22.0 150.05 26.4 152.25 28.15 148.0 29.3 145.2 28.45 142.2 27.9 140.25 27.4 138.3 25.85 131.85 24.35 125.45 L23.4 120.6 22.3 115.25 Q20.4 107.0 17.7 98.85 L16.75 96.05 Q16.45 95.15 15.7 94.65 15.2 94.35 14.7 94.1 15.6 90.05 15.15 85.65 L15.15 84.1 17.65 66.95 Q18.6 60.7 19.85 54.55 20.85 49.75 21.85 45.0 24.1 46.55 26.35 48.1 28.05 49.2 29.75 50.25 L31.5 56.75 32.35 60.8 Q33.45 66.1 33.65 71.55 33.7 73.9 34.3 76.2 34.8 78.3 35.25 80.4 35.8 83.05 36.3 85.65 L36.5 86.0 Q36.8 86.35 37.05 86.65 37.1 86.75 37.15 86.8 37.2 86.9 37.25 87.0 38.1 87.25 38.95 87.5 L39.15 87.4 38.85 87.05 Q38.9 86.9 38.9 86.75 38.9 86.7 38.9 86.65 38.95 86.55 39.0 86.45 39.1 86.25 39.15 86.1 38.7 83.65 38.25 81.2 38.2 80.7 38.3 80.25 39.6 74.85 39.4 69.4 39.15 66.6 38.95 63.85 37.9 56.9 38.7 50.05 L38.75 49.1 38.55 48.15 Q37.2 43.2 34.75 38.55 35.15 37.45 35.55 36.35 36.05 34.25 35.55 32.1 33.65 24.35 25.55 21.75 19.05 19.7 12.4 18.75 L6.85 18.15 Q6.75 9.5 7.15 0.8 7.45 -5.6 8.35 -11.85 8.5 -12.85 9.15 -13.65 10.7 -15.45 12.25 -17.25 L12.85 -17.95 14.55 -20.35 Q15.15 -22.9 16.2 -25.2 16.7 -26.2 17.2 -27.2 17.3 -27.35 17.35 -27.5 15.85 -29.05 14.1 -30.1 10.7 -32.15 6.45 -32.4 5.65 -32.4 4.95 -32.75 1.0 -34.45 -3.0 -35.25 -5.35 -29.75 -8.15 -24.45 L-8.35 -24.15 Q-11.05 -17.45 -9.75 -10.35 -9.75 -9.7 -9.75 -9.05 -10.35 -5.5 -11.85 -2.45 -13.25 0.45 -15.45 2.9 -16.2 3.8 -17.35 4.2 -18.6 4.6 -19.9 5.35 L-21.5 8.3 Q-19.55 11.5 -18.7 14.95 -18.55 15.55 -18.85 16.15 -20.25 18.95 -21.25 21.8 -21.9 21.8 -22.55 21.8 -26.95 21.7 -31.35 21.85 -31.6 21.9 -31.8 21.95 -33.1 23.3 -33.7 24.95 -34.4 26.85 -34.05 29.15 -33.65 31.95 -33.95 34.55 -34.3 37.4 -35.45 40.0 -36.9 43.4 -35.5 45.35 L-36.0 46.65 Q-37.8 51.2 -39.6 55.7 -40.85 58.8 -41.05 62.05 M-26.4 10.3 Q-26.45 11.35 -26.0 12.3 -25.55 13.3 -25.75 12.25 L-26.4 10.3 Q-26.45 11.35 -25.75 12.25 L-26.4 10.3" fill="#99ccff" fill-rule="evenodd" stroke="none">
      <animate attributeName="fill" dur="2s" repeatCount="indefinite" values="#99ccff;#99ccff"/>
      <animate attributeName="fill-opacity" dur="2s" repeatCount="indefinite" values="1.0;1.0"/>
      <animate attributeName="d" dur="2s" repeatCount="indefinite" values="M-41.05 62.05 L-41.05 62.05 Q-41.05 62.55 -41.05 63.05 -41.0 63.35 -40.95 63.6 -39.5 69.25 -38.5 75.2 -37.45 81.75 -37.05 88.35 -37.4 90.05 -36.8 92.1 -36.4 95.45 -35.2 98.4 -33.85 104.95 -32.95 111.65 -32.4 115.6 -32.0 119.65 L-31.8 121.2 -31.6 121.4 -31.55 121.5 Q-31.45 121.65 -31.35 121.8 L-30.9 122.15 -29.6 122.15 Q-29.5 122.15 -29.4 122.15 L-29.3 122.05 -29.05 121.85 Q-28.65 121.4 -28.6 120.75 L-28.5 119.1 -28.5 118.75 -28.2 118.8 Q-27.85 118.95 -27.55 119.1 -27.5 119.25 -27.5 119.4 -27.45 119.6 -27.4 119.75 -27.3 119.85 -27.2 119.95 -27.2 120.0 -27.2 120.05 -27.0 120.25 -26.85 120.4 -26.35 120.4 -25.9 120.4 -25.9 120.4 -25.9 120.4 -25.75 120.3 -25.65 120.2 L-25.55 120.1 Q-25.35 120.05 -25.15 120.0 L-25.15 120.0 -24.9 119.65 -24.7 119.3 Q-24.55 119.15 -24.45 119.0 L-25.3 110.8 Q-25.7 103.85 -27.15 97.1 L-29.45 86.85 Q-30.55 82.1 -31.25 77.35 L-31.15 77.25 Q-30.35 76.45 -30.05 75.4 -29.8 74.7 -29.6 74.05 -29.4 72.7 -28.65 71.45 L-28.25 70.5 -27.2 68.05 -26.55 68.45 -23.05 71.1 Q-21.95 71.9 -21.95 73.3 L-17.85 78.2 Q-17.4 78.7 -16.65 78.85 L-15.95 79.05 Q-15.85 79.25 -15.8 79.45 -15.7 79.8 -15.6 80.15 L-15.0 81.35 Q-13.5 83.65 -12.75 86.4 L-13.15 86.95 -12.3 89.95 Q-11.5 92.25 -10.75 94.55 L-10.75 94.6 -12.35 101.6 -13.75 103.75 Q-18.6 111.75 -17.75 121.6 L-17.4 126.25 Q-17.1 129.35 -16.8 132.4 L-15.65 139.3 Q-15.5 139.95 -15.65 140.5 -17.7 147.55 -18.6 154.75 L-19.0 158.6 Q-19.65 164.85 -18.15 171.05 L-17.45 173.8 Q-16.45 177.45 -16.15 181.25 -15.25 192.35 -12.75 203.25 -10.05 214.65 -4.7 224.85 -3.9 224.85 -3.15 224.85 -2.95 224.7 -2.8 224.55 L-2.5 223.85 Q-2.2 222.25 -2.55 220.55 -3.25 217.45 -3.95 214.4 -4.8 211.1 -5.8 207.85 -6.2 206.55 -5.95 205.3 -5.35 202.4 -6.15 199.55 -9.0 188.95 -9.7 178.0 L-9.3 177.75 -8.8 177.5 -8.4 177.35 Q-7.35 176.3 -7.4 174.85 L-7.5 158.45 Q-7.4 152.85 -6.55 147.35 L-3.95 128.6 Q-3.6 128.45 -3.25 128.3 -3.0 128.2 -2.75 128.15 -1.6 127.25 -0.9 125.9 0.25 123.6 -0.1 120.95 5.3 128.2 8.15 136.65 8.2 136.85 8.25 137.05 8.25 137.6 8.25 138.15 7.15 143.0 10.6 146.1 12.8 154.95 13.85 164.0 15.3 176.15 15.35 188.6 15.4 192.1 17.7 194.05 L17.7 194.3 17.7 194.6 18.15 194.5 18.9 193.8 19.2 193.15 19.3 191.9 19.1 189.7 Q18.8 185.15 19.25 180.4 20.95 180.45 21.75 179.1 24.3 174.85 23.45 169.75 L22.95 166.65 Q21.55 157.5 20.55 148.5 21.0 149.55 22.0 150.05 26.4 152.25 28.15 148.0 29.3 145.2 28.45 142.2 27.9 140.25 27.4 138.3 25.85 131.85 24.35 125.45 L23.4 120.6 22.3 115.25 Q20.4 107.0 17.7 98.85 L16.75 96.05 Q16.45 95.15 15.7 94.65 15.2 94.35 14.7 94.1 15.6 90.05 15.15 85.65 L15.15 84.1 17.65 66.95 Q18.6 60.7 19.85 54.55 20.85 49.75 21.85 45.0 24.1 46.55 26.35 48.1 28.05 49.2 29.75 50.25 L31.5 56.75 32.35 60.8 Q33.45 66.1 33.65 71.55 33.7 73.9 34.3 76.2 34.8 78.3 35.25 80.4 35.8 83.05 36.3 85.65 L36.5 86.0 Q36.8 86.35 37.05 86.65 37.1 86.75 37.15 86.8 37.2 86.9 37.25 87.0 38.1 87.25 38.95 87.5 L39.15 87.4 38.85 87.05 Q38.9 86.9 38.9 86.75 38.9 86.7 38.9 86.65 38.95 86.55 39.0 86.45 39.1 86.25 39.15 86.1 38.7 83.65 38.25 81.2 38.2 80.7 38.3 80.25 39.6 74.85 39.4 69.4 39.15 66.6 38.95 63.85 37.9 56.9 38.7 50.05 L38.75 49.1 38.55 48.15 Q37.2 43.2 34.75 38.55 35.15 37.45 35.55 36.35 36.05 34.25 35.55 32.1 33.65 24.35 25.55 21.75 19.05 19.7 12.4 18.75 L6.85 18.15 Q6.75 9.5 7.15 0.8 7.45 -5.6 8.35 -11.85 8.5 -12.85 9.15 -13.65 10.7 -15.45 12.25 -17.25 L12.85 -17.95 14.55 -20.35 Q15.15 -22.9 16.2 -25.2 16.7 -26.2 17.2 -27.2 17.3 -27.35 17.35 -27.5 15.85 -29.05 14.1 -30.1 10.7 -32.15 6.45 -32.4 5.65 -32.4 4.95 -32.75 1.0 -34.45 -3.0 -35.25 -5.35 -29.75 -8.15 -24.45 L-8.35 -24.15 Q-11.05 -17.45 -9.75 -10.35 -9.75 -9.7 -9.75 -9.05 -10.35 -5.5 -11.85 -2.45 -13.25 0.45 -15.45 2.9 -16.2 3.8 -17.35 4.2 -18.6 4.6 -19.9 5.35 L-21.5 8.3 Q-19.55 11.5 -18.7 14.95 -18.55 15.55 -18.85 16.15 -20.25 18.95 -21.25 21.8 -21.9 21.8 -22.55 21.8 -26.95 21.7 -31.35 21.85 -31.6 21.9 -31.8 21.95 -33.1 23.3 -33.7 24.95 -34.4 26.85 -34.05 29.15 -33.65 31.95 -33.95 34.55 -34.3 37.4 -35.45 40.0 -36.9 43.4 -35.5 45.35 L-36.0 46.65 Q-37.8 51.2 -39.6 55.7 -40.85 58.8 -41.05 62.05 M-26.4 10.3 Q-26.45 11.35 -26.0 12.3 -25.55 13.3 -25.75 12.25 L-26.4 10.3 Q-26.45 11.35 -25.75 12.25 L-26.4 10.3;M-36.75 87.6 L-31.55 113.05 Q-31.05 113.35 -31.55 113.05 -31.05 113.35 -31.55 113.05 -31.0 113.25 -30.45 113.4 -27.35 113.55 -26.25 112.1 -25.15 110.65 -26.05 107.6 -26.55 105.95 -27.0 104.3 -28.85 96.9 -28.85 89.5 -28.85 84.95 -28.15 80.4 L-27.8 78.6 -26.75 74.65 -26.25 73.15 Q-24.65 74.9 -23.6 77.4 L-22.8 78.95 -20.6 82.3 Q-20.85 84.25 -20.35 86.6 L-19.5 90.85 -18.95 94.3 Q-17.85 102.65 -18.15 111.1 L-19.05 111.95 -19.3 112.25 -19.8 113.75 Q-20.15 116.0 -19.5 117.95 -18.85 119.9 -17.25 121.6 -18.1 127.05 -20.1 132.35 -24.05 143.0 -25.6 154.05 -26.15 157.8 -24.65 160.1 -23.15 162.45 -19.65 163.35 -19.1 164.0 -18.85 164.75 -18.55 165.5 -18.55 166.3 -18.9 177.4 -15.35 187.95 L-13.95 192.0 Q-10.25 203.2 -7.45 214.45 L-7.05 215.25 -6.2 215.8 -3.95 215.7 Q-3.25 215.0 -3.5 213.05 L-3.35 212.95 Q-3.3 212.85 -3.25 212.75 L-3.15 212.6 Q-3.1 212.5 -3.05 212.4 L-2.8 211.75 Q-2.5 207.7 -3.2 203.55 -4.85 193.35 -7.0 183.25 -6.65 182.55 -6.3 181.9 L-6.05 180.45 -5.3 180.15 -5.05 179.85 -3.6 181.1 Q-3.1 181.3 -2.6 181.45 L1.2 181.3 Q1.7 180.7 2.15 180.1 L2.6 178.75 Q3.25 173.35 2.75 167.9 1.85 157.6 -0.45 147.6 L2.8 146.1 Q3.2 145.95 3.6 145.8 L4.4 146.0 5.55 147.2 Q6.55 148.65 7.9 149.1 L11.05 149.05 13.35 152.4 14.1 153.65 Q16.55 158.0 17.75 162.75 L18.6 166.55 Q20.6 176.8 21.65 187.25 L23.85 209.95 Q24.05 212.25 25.3 213.3 26.55 214.35 28.85 214.15 L29.05 213.95 Q29.15 213.85 29.25 213.75 L29.25 213.65 Q29.4 213.5 29.5 213.35 29.7 213.0 29.9 212.65 30.1 212.2 30.25 211.8 30.7 210.55 30.55 209.05 30.3 206.45 30.4 203.75 L30.5 193.3 Q30.35 192.35 30.25 191.4 28.95 185.95 29.3 180.2 29.65 174.15 30.7 168.2 31.15 166.0 31.6 163.8 31.9 163.65 32.2 163.55 32.2 163.5 32.2 163.5 L32.25 163.5 32.7 163.35 33.2 162.8 Q33.55 162.25 33.85 161.75 L34.0 161.35 Q34.05 161.2 34.05 161.1 L34.1 160.55 Q33.95 157.85 33.1 155.3 32.3 152.75 30.8 150.35 31.15 150.0 31.5 149.7 31.85 149.15 32.15 148.6 32.6 147.65 32.55 146.45 32.4 143.0 31.05 139.8 26.65 129.4 21.2 119.55 21.45 118.8 21.7 118.1 21.75 117.8 21.75 117.5 21.7 117.05 21.65 116.65 21.25 114.75 20.35 113.1 L19.4 111.55 18.15 110.05 18.1 108.1 19.9 94.3 20.6 86.75 21.4 71.7 22.75 70.7 Q25.25 68.75 28.0 67.4 28.0 67.8 28.0 68.15 28.15 69.25 28.25 70.3 L28.4 70.95 Q28.95 73.05 29.95 74.95 29.9 75.25 29.85 75.55 29.7 76.5 29.55 77.4 29.5 78.15 29.45 78.9 29.4 80.95 29.7 82.9 30.7 89.15 29.9 95.65 L29.2 100.45 28.1 105.7 Q26.15 113.6 27.05 121.85 L26.9 124.7 Q26.35 127.05 26.8 128.9 27.3 130.8 28.85 132.2 29.15 132.05 29.45 131.95 L29.45 131.95 29.65 131.8 Q29.7 131.7 29.75 131.65 30.35 129.8 30.25 127.75 30.15 124.55 30.55 121.55 30.9 119.2 31.6 116.9 L32.55 115.2 33.05 113.35 Q34.1 105.8 35.3 98.25 36.0 97.45 36.75 91.4 36.55 89.85 36.75 91.4 36.55 89.85 36.75 91.4 L36.05 88.4 Q36.85 84.35 36.5 80.2 36.35 77.7 36.9 75.35 37.8 71.5 37.55 67.7 37.3 63.9 35.95 60.2 L37.15 58.0 37.85 55.65 Q38.55 50.05 36.95 45.05 35.35 40.1 31.5 35.7 23.1 26.1 16.2 15.3 14.55 9.9 14.9 4.15 15.0 2.75 14.75 1.7 14.4 0.15 13.45 -0.8 12.5 -1.7 10.9 -2.0 11.0 -3.2 11.55 -4.25 13.0 -7.1 13.3 -10.3 L13.45 -11.15 13.5 -12.05 Q13.4 -12.5 13.3 -12.95 11.25 -14.4 9.75 -16.25 8.25 -18.05 7.25 -20.2 7.0 -20.9 6.75 -21.55 6.6 -22.25 6.45 -22.9 L6.35 -23.5 Q6.2 -24.45 6.1 -25.4 5.95 -26.1 5.8 -26.8 4.6 -26.05 3.35 -25.45 0.4 -24.0 -2.85 -23.35 L-4.2 -23.1 -5.75 -21.65 Q-7.35 -15.6 -9.9 -9.45 -11.05 -6.75 -11.55 -4.0 -12.0 -1.25 -11.8 1.55 -11.8 2.25 -11.8 2.9 -11.8 4.4 -12.55 5.5 -13.3 6.6 -14.8 7.35 -15.1 7.55 -15.35 7.7 -15.6 8.0 -15.8 8.3 L-17.1 9.95 Q-17.95 10.65 -18.75 11.35 -17.15 12.75 -16.8 14.5 -16.4 16.25 -17.25 18.35 -17.85 20.1 -18.4 21.85 -18.95 21.35 -19.45 20.85 -20.0 20.6 -20.5 20.35 L-22.3 20.15 Q-22.75 20.25 -23.15 20.3 -23.25 20.35 -23.35 20.35 -23.8 20.55 -24.25 20.7 -25.45 21.2 -25.95 22.1 -26.45 23.0 -26.25 24.3 -25.75 28.15 -24.45 31.9 -25.1 35.7 -26.3 39.45 -27.8 43.75 -29.25 48.0 -31.1 53.1 -32.95 58.2 -35.1 63.75 -36.0 69.55 -36.85 75.35 -36.5 81.4 L-36.5 82.0 Q-36.35 83.65 -36.5 85.3 -36.65 86.45 -36.75 87.6 M-23.55 13.4 Q-23.3 14.8 -22.05 15.95 -22.6 15.25 -23.1 14.6 L-23.55 13.4 Q-13.6 -13.95 -13.45 -14.35 L-13.75 -13.5"/>
    </path>
    <path d="M-41.05 62.05 Q-40.85 58.8 -39.6 55.7 -37.8 51.2 -36.0 46.65 L-35.5 45.35 Q-36.9 43.4 -35.45 40.0 -34.3 37.4 -33.95 34.55 -33.65 31.95 -34.05 29.15 -34.4 26.85 -33.7 24.95 -33.1 23.3 -31.8 21.95 -31.6 21.9 -31.35 21.85 -26.95 21.7 -22.55 21.8 -21.9 21.8 -21.25 21.8 -20.25 18.95 -18.85 16.15 -18.55 15.55 -18.7 14.95 -19.55 11.5 -21.5 8.3 L-19.9 5.35 Q-18.6 4.6 -17.35 4.2 -16.2 3.8 -15.45 2.9 -13.25 0.45 -11.85 -2.45 -10.35 -5.5 -9.75 -9.05 -9.75 -9.7 -9.75 -10.35 -11.05 -17.45 -8.35 -24.15 L-8.15 -24.45 Q-5.35 -29.75 -3.0 -35.25 1.0 -34.45 4.95 -32.75 5.65 -32.4 6.45 -32.4 10.7 -32.15 14.1 -30.1 15.85 -29.05 17.35 -27.5 17.3 -27.35 17.2 -27.2 16.7 -26.2 16.2 -25.2 15.15 -22.9 14.55 -20.35 L12.85 -17.95 12.25 -17.25 Q10.7 -15.45 9.15 -13.65 8.5 -12.85 8.35 -11.85 7.45 -5.6 7.15 0.8 6.75 9.5 6.85 18.15 L12.4 18.75 Q19.05 19.7 25.55 21.75 33.65 24.35 35.55 32.1 36.05 34.25 35.55 36.35 35.15 37.45 34.75 38.55 37.2 43.2 38.55 48.15 L38.75 49.1 38.7 50.05 Q37.9 56.9 38.95 63.85 39.15 66.6 39.4 69.4 39.6 74.85 38.3 80.25 38.2 80.7 38.25 81.2 38.7 83.65 39.15 86.1 39.1 86.25 39.0 86.45 38.95 86.55 38.9 86.65 38.9 86.7 38.9 86.75 38.9 86.9 38.85 87.05 L39.15 87.4 38.95 87.5 Q38.1 87.25 37.25 87.0 37.2 86.9 37.15 86.8 37.1 86.75 37.05 86.65 36.8 86.35 36.5 86.0 L36.3 85.65 Q35.8 83.05 35.25 80.4 34.8 78.3 34.3 76.2 33.7 73.9 33.65 71.55 33.45 66.1 32.35 60.8 L31.5 56.75 29.75 50.25 Q28.05 49.2 26.35 48.1 24.1 46.55 21.85 45.0 20.85 49.75 19.85 54.55 18.6 60.7 17.65 66.95 L15.15 84.1 15.15 85.65 Q15.6 90.05 14.7 94.1 15.2 94.35 15.7 94.65 16.45 95.15 16.75 96.05 L17.7 98.85 Q20.4 107.0 22.3 115.25 L23.4 120.6 24.35 125.45 Q25.85 131.85 27.4 138.3 27.9 140.25 28.45 142.2 29.3 145.2 28.15 148.0 26.4 152.25 22.0 150.05 21.0 149.55 20.55 148.5 21.55 157.5 22.95 166.65 L23.45 169.75 Q24.3 174.85 21.75 179.1 20.95 180.45 19.25 180.4 18.8 185.15 19.1 189.7 L19.3 191.9 19.2 193.15 18.9 193.8 18.15 194.5 17.7 194.6 17.7 194.3 17.7 194.05 Q15.4 192.1 15.35 188.6 15.3 176.15 13.85 164.0 12.8 154.95 10.6 146.1 7.15 143.0 8.25 138.15 8.25 137.6 8.25 137.05 8.2 136.85 8.15 136.65 5.3 128.2 -0.1 120.95 0.25 123.6 -0.9 125.9 -1.6 127.25 -2.75 128.15 -3.0 128.2 -3.25 128.3 -3.6 128.45 -3.95 128.6 L-6.55 147.35 Q-7.4 152.85 -7.5 158.45 L-7.4 174.85 Q-7.35 176.3 -8.4 177.35 L-8.8 177.5 -9.3 177.75 -9.7 178.0 Q-9.0 188.95 -6.15 199.55 -5.35 202.4 -5.95 205.3 -6.2 206.55 -5.8 207.85 -4.8 211.1 -3.95 214.4 -3.25 217.45 -2.55 220.55 -2.2 222.25 -2.5 223.85 L-2.8 224.55 Q-2.95 224.7 -3.15 224.85 -3.9 224.85 -4.7 224.85 -10.05 214.65 -12.75 203.25 -15.25 192.35 -16.15 181.25 -16.45 177.45 -17.45 173.8 L-18.15 171.05 Q-19.65 164.85 -19.0 158.6 L-18.6 154.75 Q-17.7 147.55 -15.65 140.5 -15.5 139.95 -15.65 139.3 L-16.8 132.4 Q-17.1 129.35 -17.4 126.25 L-17.75 121.6 Q-18.6 111.75 -13.75 103.75 L-12.35 101.6 -10.75 94.6 -10.75 94.55 Q-11.5 92.25 -12.3 89.95 L-13.15 86.95 -12.75 86.4 Q-13.5 83.65 -15.0 81.35 L-15.6 80.15 Q-15.7 79.8 -15.8 79.45 -15.85 79.25 -15.95 79.05 L-16.65 78.85 Q-17.4 78.7 -17.85 78.2 L-21.95 73.3 Q-21.95 71.9 -23.05 71.1 L-26.55 68.45 -27.2 68.05 -28.25 70.5 -28.65 71.45 Q-29.4 72.7 -29.6 74.05 -29.8 74.7 -30.05 75.4 -30.35 76.45 -31.15 77.25 L-31.25 77.35 Q-30.55 82.1 -29.45 86.85 L-27.15 97.1 Q-25.7 103.85 -25.3 110.8 L-24.45 119.0 Q-24.55 119.15 -24.7 119.3 L-24.9 119.65 -25.15 120.0 -25.15 120.0 Q-25.35 120.05 -25.55 120.1 L-25.65 120.2 Q-25.75 120.3 -25.9 120.4 -25.9 120.4 -25.9 120.4 -26.35 120.4 -26.85 120.4 -27.0 120.25 -27.2 120.05 -27.2 120.0 -27.2 119.95 -27.3 119.85 -27.4 119.75 -27.45 119.6 -27.5 119.4 -27.5 119.25 -27.55 119.1 -27.85 118.95 -28.2 118.8 L-28.5 118.75 -28.5 119.1 -28.6 120.75 Q-28.65 121.4 -29.05 121.85 L-29.3 122.05 -29.4 122.15 Q-29.5 122.15 -29.6 122.15 L-30.9 122.15 -31.35 121.8 Q-31.45 121.65 -31.55 121.5 L-31.6 121.4 -31.8 121.2 -32.0 119.65 Q-32.4 115.6 -32.95 111.65 -33.85 104.95 -35.2 98.4 -36.4 95.45 -36.8 92.1 -37.4 90.05 -37.05 88.35 -37.45 81.75 -38.5 75.2 -39.5 69.25 -40.95 63.6 -41.0 63.35 -41.05 63.05 -41.05 62.55 -41.05 62.05 L-41.05 62.05 M-26.4 10.3 L-26.2 11.05 Q-25.95 11.65 -25.7 12.25 L-25.5 12.55 -25.2 13.25 Q-24.9 13.65 -24.6 14.05 L-24.6 14.15 -25.2 13.55 -25.55 13.05 -26.15 11.9 -26.4 10.6 -26.4 10.6 -26.4 10.3 -25.75 12.25 Q-25.55 13.3 -26.0 12.3 -26.45 11.35 -26.4 10.3 L-25.75 12.25 Q-25.55 13.3 -26.0 12.3 -26.45 11.35 -26.4 10.3 L-25.75 12.25 Q-26.45 11.35 -26.4 10.3 L-25.75 12.25 Q-26.45 11.35 -26.4 10.3" fill="none" stroke="#000000" stroke-linecap="round" stroke-linejoin="round" stroke-opacity="0.0" stroke-width="1.0">
      <animate attributeName="stroke" dur="2s" repeatCount="indefinite" values="#000000;#000001"/>
      <animate attributeName="stroke-width" dur="2s" repeatCount="indefinite" values="0.0;0.0"/>
      <animate attributeName="fill-opacity" dur="2s" repeatCount="indefinite" values="0.0;0.0"/>
      <animate attributeName="d" dur="2s" repeatCount="indefinite" values="M-41.05 62.05 Q-40.85 58.8 -39.6 55.7 -37.8 51.2 -36.0 46.65 L-35.5 45.35 Q-36.9 43.4 -35.45 40.0 -34.3 37.4 -33.95 34.55 -33.65 31.95 -34.05 29.15 -34.4 26.85 -33.7 24.95 -33.1 23.3 -31.8 21.95 -31.6 21.9 -31.35 21.85 -26.95 21.7 -22.55 21.8 -21.9 21.8 -21.25 21.8 -20.25 18.95 -18.85 16.15 -18.55 15.55 -18.7 14.95 -19.55 11.5 -21.5 8.3 L-19.9 5.35 Q-18.6 4.6 -17.35 4.2 -16.2 3.8 -15.45 2.9 -13.25 0.45 -11.85 -2.45 -10.35 -5.5 -9.75 -9.05 -9.75 -9.7 -9.75 -10.35 -11.05 -17.45 -8.35 -24.15 L-8.15 -24.45 Q-5.35 -29.75 -3.0 -35.25 1.0 -34.45 4.95 -32.75 5.65 -32.4 6.45 -32.4 10.7 -32.15 14.1 -30.1 15.85 -29.05 17.35 -27.5 17.3 -27.35 17.2 -27.2 16.7 -26.2 16.2 -25.2 15.15 -22.9 14.55 -20.35 L12.85 -17.95 12.25 -17.25 Q10.7 -15.45 9.15 -13.65 8.5 -12.85 8.35 -11.85 7.45 -5.6 7.15 0.8 6.75 9.5 6.85 18.15 L12.4 18.75 Q19.05 19.7 25.55 21.75 33.65 24.35 35.55 32.1 36.05 34.25 35.55 36.35 35.15 37.45 34.75 38.55 37.2 43.2 38.55 48.15 L38.75 49.1 38.7 50.05 Q37.9 56.9 38.95 63.85 39.15 66.6 39.4 69.4 39.6 74.85 38.3 80.25 38.2 80.7 38.25 81.2 38.7 83.65 39.15 86.1 39.1 86.25 39.0 86.45 38.95 86.55 38.9 86.65 38.9 86.7 38.9 86.75 38.9 86.9 38.85 87.05 L39.15 87.4 38.95 87.5 Q38.1 87.25 37.25 87.0 37.2 86.9 37.15 86.8 37.1 86.75 37.05 86.65 36.8 86.35 36.5 86.0 L36.3 85.65 Q35.8 83.05 35.25 80.4 34.8 78.3 34.3 76.2 33.7 73.9 33.65 71.55 33.45 66.1 32.35 60.8 L31.5 56.75 29.75 50.25 Q28.05 49.2 26.35 48.1 24.1 46.55 21.85 45.0 20.85 49.75 19.85 54.55 18.6 60.7 17.65 66.95 L15.15 84.1 15.15 85.65 Q15.6 90.05 14.7 94.1 15.2 94.35 15.7 94.65 16.45 95.15 16.75 96.05 L17.7 98.85 Q20.4 107.0 22.3 115.25 L23.4 120.6 24.35 125.45 Q25.85 131.85 27.4 138.3 27.9 140.25 28.45 142.2 29.3 145.2 28.15 148.0 26.4 152.25 22.0 150.05 21.0 149.55 20.55 148.5 21.55 157.5 22.95 166.65 L23.45 169.75 Q24.3 174.85 21.75 179.1 20.95 180.45 19.25 180.4 18.8 185.15 19.1 189.7 L19.3 191.9 19.2 193.15 18.9 193.8 18.15 194.5 17.7 194.6 17.7 194.3 17.7 194.05 Q15.4 192.1 15.35 188.6 15.3 176.15 13.85 164.0 12.8 154.95 10.6 146.1 7.15 143.0 8.25 138.15 8.25 137.6 8.25 137.05 8.2 136.85 8.15 136.65 5.3 128.2 -0.1 120.95 0.25 123.6 -0.9 125.9 -1.6 127.25 -2.75 128.15 -3.0 128.2 -3.25 128.3 -3.6 128.45 -3.95 128.6 L-6.55 147.35 Q-7.4 152.85 -7.5 158.45 L-7.4 174.85 Q-7.35 176.3 -8.4 177.35 L-8.8 177.5 -9.3 177.75 -9.7 178.0 Q-9.0 188.95 -6.15 199.55 -5.35 202.4 -5.95 205.3 -6.2 206.55 -5.8 207.85 -4.8 211.1 -3.95 214.4 -3.25 217.45 -2.55 220.55 -2.2 222.25 -2.5 223.85 L-2.8 224.55 Q-2.95 224.7 -3.15 224.85 -3.9 224.85 -4.7 224.85 -10.05 214.65 -12.75 203.25 -15.25 192.35 -16.15 181.25 -16.45 177.45 -17.45 173.8 L-18.15 171.05 Q-19.65 164.85 -19.0 158.6 L-18.6 154.75 Q-17.7 147.55 -15.65 140.5 -15.5 139.95 -15.65 139.3 L-16.8 132.4 Q-17.1 129.35 -17.4 126.25 L-17.75 121.6 Q-18.6 111.75 -13.75 103.75 L-12.35 101.6 -10.75 94.6 -10.75 94.55 Q-11.5 92.25 -12.3 89.95 L-13.15 86.95 -12.75 86.4 Q-13.5 83.65 -15.0 81.35 L-15.6 80.15 Q-15.7 79.8 -15.8 79.45 -15.85 79.25 -15.95 79.05 L-16.65 78.85 Q-17.4 78.7 -17.85 78.2 L-21.95 73.3 Q-21.95 71.9 -23.05 71.1 L-26.55 68.45 -27.2 68.05 -28.25 70.5 -28.65 71.45 Q-29.4 72.7 -29.6 74.05 -29.8 74.7 -30.05 75.4 -30.35 76.45 -31.15 77.25 L-31.25 77.35 Q-30.55 82.1 -29.45 86.85 L-27.15 97.1 Q-25.7 103.85 -25.3 110.8 L-24.45 119.0 Q-24.55 119.15 -24.7 119.3 L-24.9 119.65 -25.15 120.0 -25.15 120.0 Q-25.35 120.05 -25.55 120.1 L-25.65 120.2 Q-25.75 120.3 -25.9 120.4 -25.9 120.4 -25.9 120.4 -26.35 120.4 -26.85 120.4 -27.0 120.25 -27.2 120.05 -27.2 120.0 -27.2 119.95 -27.3 119.85 -27.4 119.75 -27.45 119.6 -27.5 119.4 -27.5 119.25 -27.55 119.1 -27.85 118.95 -28.2 118.8 L-28.5 118.75 -28.5 119.1 -28.6 120.75 Q-28.65 121.4 -29.05 121.85 L-29.3 122.05 -29.4 122.15 Q-29.5 122.15 -29.6 122.15 L-30.9 122.15 -31.35 121.8 Q-31.45 121.65 -31.55 121.5 L-31.6 121.4 -31.8 121.2 -32.0 119.65 Q-32.4 115.6 -32.95 111.65 -33.85 104.95 -35.2 98.4 -36.4 95.45 -36.8 92.1 -37.4 90.05 -37.05 88.35 -37.45 81.75 -38.5 75.2 -39.5 69.25 -40.95 63.6 -41.0 63.35 -41.05 63.05 -41.05 62.55 -41.05 62.05 L-41.05 62.05 M-26.4 10.3 L-26.2 11.05 Q-25.95 11.65 -25.7 12.25 L-25.5 12.55 -25.2 13.25 Q-24.9 13.65 -24.6 14.05 L-24.6 14.15 -25.2 13.55 -25.55 13.05 -26.15 11.9 -26.4 10.6 -26.4 10.6 -26.4 10.3 -25.75 12.25 Q-25.55 13.3 -26.0 12.3 -26.45 11.35 -26.4 10.3 L-25.75 12.25 Q-25.55 13.3 -26.0 12.3 -26.45 11.35 -26.4 10.3 L-25.75 12.25 Q-26.45 11.35 -26.4 10.3 L-25.75 12.25 Q-26.45 11.35 -26.4 10.3;M-36.75 87.6 Q-36.65 86.45 -36.5 85.3 -36.35 83.65 -36.5 82.0 L-36.5 81.4 Q-36.85 75.35 -36.0 69.55 -35.1 63.75 -32.95 58.2 -31.1 53.1 -29.25 48.0 -27.8 43.75 -26.3 39.45 -25.1 35.7 -24.45 31.9 -25.75 28.15 -26.25 24.3 -26.45 23.0 -25.95 22.1 -25.45 21.2 -24.25 20.7 -23.8 20.55 -23.35 20.35 -23.25 20.35 -23.15 20.3 -22.75 20.25 -22.3 20.15 L-20.5 20.35 Q-20.0 20.6 -19.45 20.85 -18.95 21.35 -18.4 21.85 -17.85 20.1 -17.25 18.35 -16.4 16.25 -16.8 14.5 -17.15 12.75 -18.75 11.35 -17.95 10.65 -17.1 9.95 L-15.8 8.3 Q-15.6 8.0 -15.35 7.7 -15.1 7.55 -14.8 7.35 -13.3 6.6 -12.55 5.5 -11.8 4.4 -11.8 2.9 -11.8 2.25 -11.8 1.55 -12.0 -1.25 -11.55 -4.0 -11.05 -6.75 -9.9 -9.45 -7.35 -15.6 -5.75 -21.65 L-4.2 -23.1 -2.85 -23.35 Q0.4 -24.0 3.35 -25.45 4.6 -26.05 5.8 -26.8 5.95 -26.1 6.1 -25.4 6.2 -24.45 6.35 -23.5 L6.45 -22.9 Q6.6 -22.25 6.75 -21.55 7.0 -20.9 7.25 -20.2 8.25 -18.05 9.75 -16.25 11.25 -14.4 13.3 -12.95 13.4 -12.5 13.5 -12.05 L13.45 -11.15 13.3 -10.3 Q13.0 -7.1 11.55 -4.25 11.0 -3.2 10.9 -2.0 12.5 -1.7 13.45 -0.8 14.4 0.15 14.75 1.7 15.0 2.75 14.9 4.15 14.55 9.9 16.2 15.3 23.1 26.1 31.5 35.7 35.35 40.1 36.95 45.05 38.55 50.05 37.85 55.65 L37.15 58.0 35.95 60.2 Q37.3 63.9 37.55 67.7 37.8 71.5 36.9 75.35 36.35 77.7 36.5 80.2 36.85 84.35 36.05 88.4 L36.75 91.4 Q36.55 89.85 36.75 91.4 36.55 89.85 36.75 91.4 36.0 97.45 35.3 98.25 34.1 105.8 33.05 113.35 L32.55 115.2 31.6 116.9 Q30.9 119.2 30.55 121.55 30.15 124.55 30.25 127.75 30.35 129.8 29.75 131.65 29.7 131.7 29.65 131.8 L29.45 131.95 29.45 131.95 Q29.15 132.05 28.85 132.2 27.3 130.8 26.8 128.9 26.35 127.05 26.9 124.7 L27.05 121.85 Q26.15 113.6 28.1 105.7 L29.2 100.45 29.9 95.65 Q30.7 89.15 29.7 82.9 29.4 80.95 29.45 78.9 29.5 78.15 29.55 77.4 29.7 76.5 29.85 75.55 29.9 75.25 29.95 74.95 28.95 73.05 28.4 70.95 L28.25 70.3 Q28.15 69.25 28.0 68.15 28.0 67.8 28.0 67.4 25.25 68.75 22.75 70.7 L21.4 71.7 20.6 86.75 19.9 94.3 18.1 108.1 18.15 110.05 19.4 111.55 20.35 113.1 Q21.25 114.75 21.65 116.65 21.7 117.05 21.75 117.5 21.75 117.8 21.7 118.1 21.45 118.8 21.2 119.55 26.65 129.4 31.05 139.8 32.4 143.0 32.55 146.45 32.6 147.65 32.15 148.6 31.85 149.15 31.5 149.7 31.15 150.0 30.8 150.35 32.3 152.75 33.1 155.3 33.95 157.85 34.1 160.55 L34.05 161.1 Q34.05 161.2 34.0 161.35 L33.85 161.75 Q33.55 162.25 33.2 162.8 L32.7 163.35 32.25 163.5 32.2 163.5 Q32.2 163.5 32.2 163.55 31.9 163.65 31.6 163.8 31.15 166.0 30.7 168.2 29.65 174.15 29.3 180.2 28.95 185.95 30.25 191.4 30.35 192.35 30.5 193.3 L30.4 203.75 Q30.3 206.45 30.55 209.05 30.7 210.55 30.25 211.8 30.1 212.2 29.9 212.65 29.7 213.0 29.5 213.35 29.4 213.5 29.25 213.65 L29.25 213.75 Q29.15 213.85 29.05 213.95 L28.85 214.15 Q26.55 214.35 25.3 213.3 24.05 212.25 23.85 209.95 L21.65 187.25 Q20.6 176.8 18.6 166.55 L17.75 162.75 Q16.55 158.0 14.1 153.65 L13.35 152.4 11.05 149.05 7.9 149.1 Q6.55 148.65 5.55 147.2 L4.4 146.0 3.6 145.8 Q3.2 145.95 2.8 146.1 L-0.45 147.6 Q1.85 157.6 2.75 167.9 3.25 173.35 2.6 178.75 L2.15 180.1 Q1.7 180.7 1.2 181.3 L-2.6 181.45 Q-3.1 181.3 -3.6 181.1 L-5.05 179.85 -5.3 180.15 -6.05 180.45 -6.3 181.9 Q-6.65 182.55 -7.0 183.25 -4.85 193.35 -3.2 203.55 -2.5 207.7 -2.8 211.75 L-3.05 212.4 Q-3.1 212.5 -3.15 212.6 L-3.25 212.75 Q-3.3 212.85 -3.35 212.95 L-3.5 213.05 Q-3.25 215.0 -3.95 215.7 L-6.2 215.8 -7.05 215.25 -7.45 214.45 Q-10.25 203.2 -13.95 192.0 L-15.35 187.95 Q-18.9 177.4 -18.55 166.3 -18.55 165.5 -18.85 164.75 -19.1 164.0 -19.65 163.35 -23.15 162.45 -24.65 160.1 -26.15 157.8 -25.6 154.05 -24.05 143.0 -20.1 132.35 -18.1 127.05 -17.25 121.6 -18.85 119.9 -19.5 117.95 -20.15 116.0 -19.8 113.75 L-19.3 112.25 -19.05 111.95 -18.15 111.1 Q-17.85 102.65 -18.95 94.3 L-19.5 90.85 -20.35 86.6 Q-20.85 84.25 -20.6 82.3 L-22.8 78.95 -23.6 77.4 Q-24.65 74.9 -26.25 73.15 L-26.75 74.65 -27.8 78.6 -28.15 80.4 Q-28.85 84.95 -28.85 89.5 -28.85 96.9 -27.0 104.3 -26.55 105.95 -26.05 107.6 -25.15 110.65 -26.25 112.1 -27.35 113.55 -30.45 113.4 -31.0 113.25 -31.55 113.05 -31.05 113.35 -31.55 113.05 -31.05 113.35 -31.55 113.05 L-36.75 87.6 M-27.8 78.6 L-26.75 74.65 Q-24.65 74.9 -23.6 77.4 L-22.8 78.95 -20.6 82.3 Q-20.85 84.25 -20.35 86.6 L-19.8 89.4 -18.95 94.3 -21.2 91.5 -22.6 83.75 -27.7 78.6 -27.8 78.6 -27.8 78.6 -23.1 14.6 Q-22.6 15.25 -22.05 15.95 -23.3 14.8 -23.55 13.4 L-23.1 14.6 Q-22.6 15.25 -22.05 15.95 -23.3 14.8 -23.55 13.4 L-13.45 -14.35 Q-13.6 -13.95 -13.75 -13.5 L-13.45 -14.35 Q-13.6 -13.95 -13.75 -13.5"/>
    </path>
  </g>
</svg>
