<?xml version="1.0" encoding="UTF-8" standalone="no"?>
<svg xmlns:xlink="http://www.w3.org/1999/xlink" height="71.75px" width="72.7px" xmlns="http://www.w3.org/2000/svg">
  <g transform="matrix(1.0, 0.0, 0.0, 1.0, -19.9, -16.9)">
    <path d="M87.15 49.45 L88.85 52.95 89.1 53.65 89.45 55.45 89.55 55.95 89.65 56.35 90.3 63.65 90.25 64.9 89.7 64.65 89.0 64.45 89.0 64.5 88.75 64.5 88.65 64.55 88.6 64.6 Q88.5 64.45 88.25 64.45 L88.55 64.25 88.7 64.1 Q88.8 63.45 88.1 63.45 86.75 63.8 86.6 65.2 L86.6 65.65 Q86.6 66.2 87.25 66.1 L87.4 66.0 87.65 66.85 88.3 67.5 88.6 67.65 89.4 67.55 89.7 67.55 89.75 67.5 89.75 67.4 89.7 67.4 89.45 67.25 89.4 67.15 89.25 67.05 88.85 66.8 Q89.55 67.1 90.15 67.55 L90.15 67.6 90.15 67.8 89.85 68.15 89.15 68.55 88.9 69.4 88.3 70.85 87.0 72.55 86.65 71.55 87.15 71.0 87.2 70.5 Q86.85 69.6 85.8 69.6 84.05 69.65 83.25 71.2 82.75 72.2 83.75 72.6 L84.2 72.5 84.65 74.25 84.1 74.35 Q83.45 74.3 82.8 73.9 L82.05 73.1 81.7 72.35 81.7 72.05 81.65 71.55 81.8 69.1 81.85 67.4 81.65 65.65 82.45 65.35 82.8 65.1 Q83.05 64.8 82.9 64.6 L83.05 64.5 83.3 64.05 Q83.8 62.9 83.05 62.45 L83.15 62.15 83.05 61.75 Q82.8 61.35 82.25 61.35 81.55 61.35 81.05 61.7 L80.85 61.95 80.5 60.05 80.25 58.9 80.35 59.6 77.7 57.4 77.6 57.35 Q75.6 56.1 75.05 54.15 L75.1 54.0 75.15 53.75 75.3 53.35 75.1 53.25 74.95 53.2 74.65 52.9 74.5 53.3 74.4 53.5 74.35 53.75 74.25 53.55 73.5 52.4 71.8 53.7 71.45 53.65 71.25 54.2 71.15 54.25 70.4 55.05 70.05 55.5 69.95 55.6 69.2 56.8 Q68.55 57.85 68.5 59.2 L66.65 61.3 66.05 61.85 66.1 62.45 66.15 63.1 Q65.75 63.5 65.7 64.2 L65.75 65.95 66.1 67.05 Q66.35 67.65 67.0 67.4 L67.1 67.35 67.55 67.7 67.9 67.95 Q68.35 68.5 69.0 68.7 L70.3 69.95 69.85 69.1 71.3 71.8 71.4 71.95 72.85 74.95 73.5 76.85 Q74.1 79.4 73.55 81.8 L73.05 83.45 71.55 83.8 70.1 83.9 70.0 83.85 68.1 82.9 63.5 80.85 63.45 80.8 Q61.7 79.35 59.35 79.4 L59.15 79.05 58.15 78.95 58.05 78.95 57.75 78.9 57.4 78.85 55.65 78.65 52.8 78.65 51.65 78.2 51.65 78.15 51.1 77.95 51.05 77.95 Q47.4 76.6 43.5 75.85 L42.8 75.7 41.6 75.35 40.5 74.75 39.55 74.1 39.7 75.5 40.15 75.75 40.25 75.8 39.95 76.05 39.8 76.15 39.75 76.15 39.7 76.15 39.6 75.95 39.2 76.05 37.95 76.45 37.9 76.4 37.75 76.45 Q36.25 76.55 35.0 77.3 L34.85 77.5 32.8 77.95 31.5 78.0 30.8 78.05 Q30.45 78.15 30.6 78.55 L30.65 78.65 30.55 78.6 Q28.55 77.7 27.6 75.7 L27.5 75.5 27.85 75.95 Q29.2 77.0 30.95 77.15 32.05 77.25 32.95 76.45 33.6 75.5 34.85 75.45 L35.1 75.35 37.25 74.6 37.55 73.9 37.75 73.55 37.9 73.35 37.9 70.3 38.05 70.05 38.2 69.9 Q39.4 69.85 39.65 70.95 L39.7 71.1 39.75 71.2 40.45 73.05 41.95 74.05 43.2 74.65 44.0 74.95 46.1 75.35 47.95 75.2 55.7 75.4 Q56.3 75.55 56.85 75.8 58.45 76.5 59.4 77.75 59.65 77.3 60.3 77.2 63.95 76.5 64.6 73.0 L64.65 72.75 64.55 72.0 64.35 69.0 64.05 68.85 Q61.8 67.6 61.95 65.15 L61.95 65.05 61.9 65.05 Q61.55 64.4 62.15 63.75 L63.0 62.45 63.4 61.05 Q63.5 60.35 63.9 59.8 64.75 58.6 65.9 57.6 L65.85 57.5 65.85 56.95 66.05 56.3 66.1 56.15 66.25 55.65 66.3 55.55 66.35 55.05 66.35 54.85 Q65.5 54.15 64.6 53.7 L64.9 53.55 64.55 53.7 62.2 54.7 63.85 52.95 66.45 50.85 66.9 50.55 Q68.45 49.5 70.3 49.1 L70.65 48.9 Q71.8 48.3 72.4 47.1 L72.4 47.0 72.6 46.25 72.6 45.6 72.8 45.0 72.9 43.05 72.7 42.0 72.45 41.2 71.45 39.45 71.4 39.45 70.25 38.45 Q69.0 37.65 67.65 37.15 L66.45 36.6 66.3 36.5 65.9 36.25 Q65.25 35.85 64.95 35.2 L64.4 34.15 64.35 34.05 64.05 33.05 64.15 33.1 64.1 32.9 64.05 32.8 63.9 32.05 64.65 32.8 64.9 33.15 65.65 33.1 65.75 33.1 66.35 33.0 66.55 33.0 Q66.35 33.2 66.55 33.55 L66.85 33.95 66.95 34.15 66.95 34.6 66.9 34.85 66.8 35.45 66.75 35.65 Q67.65 35.8 68.35 36.2 L68.5 36.4 68.85 36.85 69.25 36.8 69.45 36.85 70.95 36.75 71.4 36.6 71.5 36.6 71.55 36.55 72.25 36.35 73.0 36.3 73.15 36.55 73.2 36.6 73.25 36.65 73.3 36.75 73.35 36.8 73.7 37.1 74.15 37.25 74.3 37.85 74.35 38.35 74.55 38.8 74.6 39.4 74.6 39.45 74.4 40.0 73.45 41.5 73.3 41.85 Q73.05 42.4 72.95 43.0 L73.2 44.05 73.75 44.65 74.5 45.5 75.1 42.35 75.3 42.35 Q75.7 42.9 76.45 43.25 L77.45 44.65 77.95 45.0 78.2 45.1 78.2 46.3 Q77.65 46.55 77.45 47.1 L77.3 47.9 77.3 48.25 77.3 48.45 77.25 48.95 77.3 48.8 Q77.65 49.4 77.65 50.25 L77.85 51.25 77.95 51.5 78.2 52.1 78.5 52.6 Q79.4 53.9 81.15 54.4 82.85 54.9 83.9 56.25 84.8 56.6 85.1 57.55 L87.0 58.85 88.35 57.3 88.15 56.85 87.95 56.1 87.55 54.8 87.25 54.2 Q86.6 53.3 86.9 52.3 L87.15 49.45 M81.05 62.8 L81.05 62.75 81.05 62.8 M37.8 65.05 L37.8 65.0 37.1 63.45 36.95 63.1 Q36.65 60.45 35.9 58.05 L35.85 57.15 35.4 51.1 35.45 51.0 35.5 50.9 35.4 50.75 35.0 47.35 34.95 46.85 35.0 47.25 35.0 47.2 34.95 45.1 Q34.65 43.65 34.5 42.2 L34.45 41.85 Q34.35 41.1 33.65 41.1 L33.35 41.35 33.35 41.9 33.15 42.2 32.55 43.95 30.6 44.85 27.95 45.65 26.7 46.05 Q23.55 45.35 21.1 43.35 L20.9 42.9 20.75 42.5 20.8 42.1 21.65 42.15 22.5 42.25 21.75 42.15 Q21.6 41.65 21.85 41.1 22.4 39.9 23.3 38.95 24.35 37.9 25.65 37.4 26.95 37.25 27.4 38.35 L27.4 38.75 Q27.9 39.7 26.95 40.45 L26.15 41.15 Q26.05 41.95 25.25 42.0 L25.05 42.1 24.8 42.45 26.55 42.6 26.55 42.55 27.0 41.7 Q27.55 40.75 28.45 40.15 28.6 40.0 28.8 40.0 L28.85 39.95 29.05 39.8 29.05 39.75 29.15 39.75 29.3 39.5 30.05 39.3 30.25 38.45 30.95 36.75 Q31.85 35.0 33.3 33.75 L33.6 33.45 35.2 32.05 Q36.2 31.25 37.45 31.0 L38.25 31.15 37.95 31.7 37.9 31.75 37.8 32.1 37.35 32.55 37.25 34.35 Q37.3 35.55 37.8 36.75 L38.1 37.4 39.7 40.6 40.05 41.05 40.1 41.55 40.45 42.6 Q41.4 45.4 42.75 48.05 43.8 50.1 45.2 51.9 L45.8 52.55 47.2 54.2 47.5 54.8 47.55 54.85 48.6 56.45 48.95 57.25 Q49.15 58.9 50.5 59.75 51.35 61.95 53.55 62.9 54.4 63.3 54.9 62.7 L55.3 62.75 55.8 62.45 Q56.65 61.35 57.0 60.0 57.35 58.6 56.8 57.25 L56.8 57.2 58.0 55.55 58.4 55.1 60.05 55.35 60.85 55.45 59.55 56.3 Q59.15 58.1 58.25 59.8 56.95 62.35 56.0 65.05 L54.2 65.05 53.35 66.45 52.15 66.65 51.95 66.65 Q51.4 65.95 50.35 66.0 49.8 66.1 49.35 66.65 L49.05 66.0 48.75 65.05 50.6 65.05 Q50.3 64.3 50.3 63.5 50.3 62.6 50.55 61.8 L49.6 61.1 48.95 60.45 47.3 58.15 Q46.85 57.5 46.7 56.8 46.0 54.25 44.7 51.95 L44.2 51.2 41.8 48.15 Q41.1 47.15 41.0 45.95 40.8 43.95 39.55 42.55 L38.2 42.8 Q37.95 43.1 37.85 43.45 L37.85 43.6 37.8 47.7 37.75 48.75 Q37.75 49.85 37.9 50.9 38.25 53.6 39.6 56.1 L40.2 57.05 Q41.35 58.8 41.6 60.75 L41.6 60.8 41.65 61.45 41.65 61.6 Q42.45 62.0 42.65 63.1 L42.8 64.15 42.8 65.05 42.9 65.05 42.85 65.1 Q43.3 65.75 42.75 66.6 L42.55 67.25 Q42.6 68.15 41.9 68.55 L40.9 68.6 Q40.0 68.1 39.65 67.1 L39.2 66.35 Q38.7 65.75 38.55 65.05 L37.8 65.05 M48.7 26.2 L48.7 26.3 48.85 26.25 48.75 26.2 48.9 26.25 48.9 26.2 Q49.95 25.8 50.8 24.85 L51.3 24.25 Q51.7 23.7 51.5 23.35 L51.55 22.9 51.85 21.65 Q52.0 21.35 52.3 21.2 L53.15 20.8 Q53.6 20.55 54.1 20.4 L54.2 20.35 54.5 21.1 54.5 21.15 Q54.35 21.55 54.55 21.9 L54.75 22.45 55.15 22.65 55.25 22.75 55.75 22.8 56.25 22.75 55.75 23.15 55.5 23.3 55.05 23.05 Q54.0 22.7 53.2 23.45 52.45 24.05 52.5 25.05 L52.55 25.5 52.55 25.7 52.65 25.7 52.7 25.65 52.75 25.6 52.7 25.8 52.2 26.45 52.4 26.2 Q51.85 26.25 51.55 26.75 L51.4 26.95 51.65 26.85 51.35 27.0 50.95 27.3 48.4 28.8 47.6 29.3 46.55 29.95 46.55 29.8 40.75 30.45 40.4 30.25 Q39.4 30.15 38.6 30.55 L39.25 29.85 39.25 29.75 Q39.95 27.85 42.0 28.0 L44.15 28.65 44.25 28.7 44.65 28.75 45.65 29.0 46.15 29.2 46.7 28.9 47.05 28.75 47.95 28.1 48.75 27.65 48.7 26.2 M57.1 22.4 L57.4 22.2 Q57.8 21.55 57.8 20.85 L57.8 20.35 58.05 20.3 58.3 20.3 58.45 20.3 58.65 20.25 Q58.85 21.4 60.15 21.9 L62.8 22.9 63.4 23.1 64.4 23.3 64.6 23.3 64.4 23.6 64.15 24.4 Q64.05 24.9 64.25 25.4 L64.35 25.45 64.45 25.5 64.45 25.55 64.5 25.6 64.6 25.65 64.95 26.1 65.9 26.25 66.5 25.95 66.65 25.8 67.0 25.45 67.5 25.95 68.25 27.0 68.4 27.2 68.4 27.25 68.45 27.3 68.55 27.65 68.6 27.85 68.6 28.15 68.45 28.4 68.5 28.6 68.45 28.65 68.1 29.5 67.1 31.25 66.35 30.55 Q67.6 30.05 67.55 28.75 67.5 27.85 66.85 27.25 L66.55 27.05 66.25 26.9 65.6 26.75 65.5 26.65 65.4 26.6 65.35 26.55 Q65.1 26.35 64.85 26.25 L62.85 25.0 62.3 24.75 61.95 24.55 59.05 23.1 57.6 22.6 57.1 22.4 M84.3 58.85 Q83.8 59.15 84.05 59.6 84.45 60.55 85.75 60.65 L86.3 60.3 Q86.85 58.95 85.1 58.75 L84.6 58.65 Q84.4 58.7 84.3 58.85 M85.05 65.35 L85.25 65.15 Q85.5 64.55 84.85 64.45 84.4 64.35 84.05 64.6 83.25 64.95 83.1 65.8 83.0 66.1 83.2 66.25 L82.7 67.35 82.65 67.45 Q82.05 68.15 82.2 68.95 L82.45 69.55 83.05 69.65 84.2 68.9 84.95 68.2 85.4 67.55 85.95 66.9 85.95 66.6 Q85.75 65.7 85.05 65.35 M69.7 86.35 L69.65 86.35 69.7 86.35" fill="#666633" fill-rule="evenodd" stroke="none"/>
    <path d="M73.7 37.1 L74.4 37.2 74.6 37.35 75.95 37.95 75.9 38.05 Q78.5 39.3 80.65 41.1 L83.2 43.7 83.5 44.1 84.05 44.8 87.15 49.45 86.9 52.3 Q86.6 53.3 87.25 54.2 L87.55 54.8 87.95 56.1 88.15 56.85 88.35 57.3 87.0 58.85 85.1 57.55 Q84.8 56.6 83.9 56.25 82.85 54.9 81.15 54.4 79.4 53.9 78.5 52.6 L78.2 52.1 77.95 51.5 77.85 51.25 77.65 50.25 Q77.65 49.4 77.3 48.8 L77.25 48.95 77.3 48.45 77.3 48.25 77.3 47.9 77.45 47.1 Q77.65 46.55 78.2 46.3 L78.2 45.1 77.95 45.0 77.45 44.65 76.45 43.25 Q75.7 42.9 75.3 42.35 L75.1 42.35 74.5 45.5 73.75 44.65 73.2 44.05 72.95 43.0 Q73.05 42.4 73.3 41.85 L73.45 41.5 74.4 40.0 74.6 39.45 74.6 39.4 74.55 38.8 74.35 38.35 74.3 37.85 74.15 37.25 73.7 37.1 M85.0 70.6 L84.8 70.35 84.55 70.35 84.45 70.35 Q83.8 70.85 84.0 71.65 L84.05 71.9 84.2 72.5 83.75 72.6 Q82.75 72.2 83.25 71.2 84.05 69.65 85.8 69.6 86.85 69.6 87.2 70.5 L87.15 71.0 86.65 71.55 86.3 71.05 85.85 70.65 85.8 70.6 85.75 70.55 85.7 70.5 85.65 70.5 85.25 70.5 85.0 70.6 M81.05 62.75 L81.0 62.7 80.9 62.15 80.85 61.95 81.05 61.7 Q81.55 61.35 82.25 61.35 82.8 61.35 83.05 61.75 L83.15 62.15 83.05 62.45 Q82.7 62.25 82.2 62.15 L81.7 62.25 81.65 62.2 81.05 62.75 M64.3 20.9 L64.05 20.8 63.2 20.4 63.2 20.35 63.1 20.35 62.7 20.1 61.0 19.75 Q62.1 19.65 63.15 20.2 L64.05 20.75 64.2 20.85 64.3 20.9 M50.8 23.25 L50.8 23.35 50.75 23.35 50.65 23.6 50.8 23.25 M51.65 78.2 L51.1 77.95 51.65 78.15 51.65 78.2 M26.5 74.85 L26.6 74.3 26.7 74.15 Q26.9 72.8 27.5 71.6 27.9 70.6 28.75 69.95 L29.85 69.1 32.25 67.4 Q33.2 66.8 34.25 66.3 L34.8 66.0 35.5 65.65 36.45 65.75 36.65 65.65 36.95 65.55 37.1 65.45 37.15 65.3 37.2 65.15 37.15 65.1 37.1 65.05 37.8 65.05 38.55 65.05 Q38.7 65.75 39.2 66.35 L39.65 67.1 Q40.0 68.1 40.9 68.6 L41.9 68.55 Q42.6 68.15 42.55 67.25 L42.75 66.6 Q43.3 65.75 42.85 65.1 L42.9 65.05 42.8 65.05 42.8 64.15 42.65 63.1 Q42.45 62.0 41.65 61.6 L41.65 61.45 41.6 60.8 41.6 60.75 Q41.35 58.8 40.2 57.05 L39.6 56.1 Q38.25 53.6 37.9 50.9 37.75 49.85 37.75 48.75 L37.8 47.7 37.85 43.6 37.85 43.45 Q37.95 43.1 38.2 42.8 L39.55 42.55 Q40.8 43.95 41.0 45.95 41.1 47.15 41.8 48.15 L44.2 51.2 44.7 51.95 Q46.0 54.25 46.7 56.8 46.85 57.5 47.3 58.15 L48.95 60.45 49.6 61.1 50.55 61.8 Q50.3 62.6 50.3 63.5 50.3 64.3 50.6 65.05 L48.75 65.05 49.05 66.0 49.35 66.65 49.25 66.8 Q48.65 67.8 48.65 68.95 48.65 69.45 48.95 69.85 L49.2 70.1 49.35 70.2 49.2 70.0 Q49.7 70.65 50.65 70.4 L50.8 70.5 51.7 70.55 52.1 69.95 52.2 69.45 52.15 69.9 Q52.55 69.3 52.5 68.5 L52.3 67.05 52.15 66.65 53.35 66.45 54.2 65.05 56.0 65.05 Q56.95 62.35 58.25 59.8 59.15 58.1 59.55 56.3 L60.85 55.45 62.2 54.7 64.55 53.7 64.9 53.55 64.6 53.7 Q65.5 54.15 66.35 54.85 L66.35 55.05 66.3 55.55 66.25 55.65 66.1 56.15 66.05 56.3 65.85 56.95 65.85 57.5 65.9 57.6 Q64.75 58.6 63.9 59.8 63.5 60.35 63.4 61.05 L63.0 62.45 62.15 63.75 Q61.55 64.4 61.9 65.05 L61.95 65.05 61.95 65.15 Q61.8 67.6 64.05 68.85 L64.35 69.0 64.55 72.0 64.65 72.75 64.6 73.0 Q63.95 76.5 60.3 77.2 59.65 77.3 59.4 77.75 58.45 76.5 56.85 75.8 56.3 75.55 55.7 75.4 L47.95 75.2 46.1 75.35 44.0 74.95 43.2 74.65 41.95 74.05 40.45 73.05 39.75 71.2 39.7 71.1 39.65 70.95 Q39.4 69.85 38.2 69.9 L38.05 70.05 37.9 70.3 37.9 73.35 37.75 73.55 37.55 73.9 37.25 74.6 35.1 75.35 34.85 75.45 Q33.6 75.5 32.95 76.45 32.05 77.25 30.95 77.15 29.2 77.0 27.85 75.95 L27.5 75.5 27.45 75.45 26.6 74.35 26.5 74.85 M20.8 42.1 L21.2 39.0 21.45 38.65 Q24.25 35.2 28.2 33.1 L28.85 32.7 29.3 32.3 30.7 30.6 31.0 30.1 31.3 29.8 34.2 29.1 34.35 28.9 34.4 28.8 36.45 28.15 Q40.25 27.25 44.1 26.85 L48.2 26.4 48.7 26.2 48.75 27.65 47.95 28.1 47.05 28.75 46.7 28.9 46.15 29.2 45.65 29.0 44.65 28.75 44.25 28.7 44.15 28.65 42.0 28.0 Q39.95 27.85 39.25 29.75 L39.25 29.85 38.6 30.55 38.25 31.15 37.45 31.0 Q36.2 31.25 35.2 32.05 L33.6 33.45 33.3 33.75 Q31.85 35.0 30.95 36.75 L30.25 38.45 30.05 39.3 29.3 39.5 29.15 39.75 29.05 39.75 29.05 39.8 28.85 39.95 28.8 40.0 Q28.6 40.0 28.45 40.15 27.55 40.75 27.0 41.7 L26.55 42.55 26.55 42.6 24.8 42.45 25.05 42.1 25.25 42.0 Q26.05 41.95 26.15 41.15 L26.95 40.45 Q27.9 39.7 27.4 38.75 L27.4 38.35 Q26.95 37.25 25.65 37.4 24.35 37.9 23.3 38.95 22.4 39.9 21.85 41.1 21.6 41.65 21.75 42.15 L22.5 42.25 21.65 42.15 20.8 42.1 M56.8 22.35 L57.1 22.4 57.6 22.6 59.05 23.1 61.95 24.55 62.3 24.75 62.85 25.0 64.85 26.25 Q65.1 26.35 65.35 26.55 L65.3 26.6 65.4 26.6 65.5 26.65 65.6 26.75 65.65 26.85 65.55 26.85 63.3 27.1 62.85 27.25 62.8 27.3 62.75 27.1 62.65 26.85 62.45 26.45 62.25 26.1 Q61.7 25.25 60.8 24.95 L60.75 24.95 Q58.85 24.35 56.95 24.95 L57.05 24.9 57.0 24.8 56.9 24.6 56.8 24.4 Q56.15 23.8 55.4 23.4 L55.2 23.5 55.5 23.3 55.75 23.15 56.25 22.75 55.75 22.8 56.35 22.7 56.8 22.35 M58.65 20.25 L59.85 20.15 61.1 20.0 63.4 21.0 63.85 21.15 63.9 21.25 64.75 22.45 64.95 22.8 65.0 22.85 65.1 23.05 65.0 23.1 64.9 23.2 64.6 23.25 64.6 23.3 64.4 23.3 63.4 23.1 62.8 22.9 60.15 21.9 Q58.85 21.4 58.65 20.25 M68.6 28.15 L68.5 28.6 68.45 28.4 68.6 28.15 M67.1 31.25 L66.75 31.75 66.95 32.7 67.0 33.0 67.05 33.25 67.1 33.45 67.4 33.3 67.85 33.4 68.05 33.5 68.05 33.45 68.1 33.45 68.65 33.5 68.9 33.6 71.2 34.25 71.3 34.35 71.4 34.45 72.55 35.7 73.0 36.3 72.25 36.35 71.55 36.55 71.5 36.6 71.4 36.6 70.95 36.75 69.45 36.85 69.25 36.8 68.85 36.85 68.5 36.4 68.35 36.2 Q67.65 35.8 66.75 35.65 L66.8 35.45 66.9 34.85 66.95 34.6 66.95 34.15 66.85 33.95 66.55 33.55 Q66.35 33.2 66.55 33.0 L66.35 33.0 65.75 33.1 65.65 33.1 64.9 33.15 64.65 32.8 63.9 32.05 63.65 31.85 63.6 31.75 63.05 31.6 63.05 31.1 63.3 31.15 63.65 31.15 65.25 30.75 65.9 30.7 66.35 30.5 66.35 30.55 67.1 31.25 M87.4 66.0 L87.25 66.1 Q86.6 66.2 86.6 65.65 L86.6 65.2 Q86.75 63.8 88.1 63.45 88.8 63.45 88.7 64.1 L88.55 64.25 88.25 64.45 88.15 64.45 Q87.8 64.5 87.65 64.85 87.35 65.4 87.4 66.0 M83.2 66.25 Q83.0 66.1 83.1 65.8 83.25 64.95 84.05 64.6 84.4 64.35 84.85 64.45 85.5 64.55 85.25 65.15 L85.05 65.35 84.75 65.25 84.65 65.2 Q83.65 65.2 83.25 66.2 L83.2 66.25 M63.1 32.8 L63.2 32.8 63.1 32.8 M48.7 50.7 L48.6 50.8 48.45 50.55 48.7 50.7 M47.8 49.45 L47.7 49.35 47.75 49.3 47.8 49.45 M48.9 37.35 L48.9 37.4 48.9 37.35 M62.65 32.65 L62.1 32.5 62.65 32.65" fill="#999966" fill-rule="evenodd" stroke="none"/>
    <path d="M87.15 49.45 L84.05 44.8 83.5 44.1 83.2 43.7 80.65 41.1 Q78.5 39.3 75.9 38.05 L75.95 37.95 74.6 37.35 74.4 37.2 73.7 37.1 73.35 36.8 73.3 36.75 73.25 36.65 73.2 36.6 73.15 36.55 73.0 36.3 72.55 35.7 71.4 34.45 71.3 34.35 71.2 34.25 68.9 33.6 68.65 33.5 68.1 33.45 68.05 33.45 68.05 33.5 67.85 33.4 67.4 33.3 67.1 33.45 67.05 33.25 67.0 33.0 66.95 32.7 66.75 31.75 67.1 31.25 68.1 29.5 68.45 28.65 68.5 28.6 68.6 28.15 68.6 27.85 68.55 27.65 68.45 27.3 68.4 27.25 68.4 27.2 68.25 27.0 67.5 25.95 67.0 25.45 67.15 25.35 67.45 25.1 67.45 25.0 67.7 24.6 68.7 23.65 69.25 23.2 69.9 22.75 69.85 22.3 69.2 22.35 68.85 22.4 68.3 22.45 66.25 22.65 66.05 22.75 Q65.6 23.0 65.3 23.4 L65.05 23.75 64.95 23.9 64.65 24.5 64.55 24.9 64.55 25.25 64.6 25.65 64.5 25.6 64.45 25.55 64.45 25.5 64.35 25.45 64.25 25.4 Q64.05 24.9 64.15 24.4 L64.4 23.6 64.6 23.3 64.6 23.25 64.9 23.2 65.0 23.1 65.1 23.05 65.0 22.85 64.95 22.8 64.75 22.45 63.9 21.25 63.85 21.15 63.4 21.0 61.1 20.0 59.85 20.15 58.65 20.25 58.45 20.3 58.3 20.3 58.05 20.3 57.8 20.35 57.8 20.85 Q57.8 21.55 57.4 22.2 L57.1 22.4 56.8 22.35 56.8 22.3 57.05 21.8 57.05 21.65 56.95 20.55 56.75 20.0 56.5 19.5 56.4 19.35 55.0 18.3 53.55 17.2 53.25 17.7 53.35 17.95 53.65 18.9 53.65 19.0 53.75 19.25 54.05 19.85 54.2 20.25 54.2 20.35 54.1 20.4 Q53.6 20.55 53.15 20.8 L52.3 21.2 Q52.0 21.35 51.85 21.65 L51.55 22.9 51.5 23.35 Q51.7 23.7 51.3 24.25 L50.8 24.85 Q49.95 25.8 48.9 26.2 L48.9 26.25 48.75 26.2 48.85 26.25 48.7 26.3 48.7 26.2 48.2 26.4 44.1 26.85 Q40.25 27.25 36.45 28.15 L34.4 28.8 34.35 28.9 34.2 29.1 31.3 29.8 31.0 30.1 30.7 30.6 29.3 32.3 28.85 32.7 28.2 33.1 Q24.25 35.2 21.45 38.65 L21.2 39.0 20.8 42.1 20.75 42.5 20.9 42.9 21.1 43.35 Q23.55 45.35 26.7 46.05 L27.95 45.65 30.6 44.85 32.55 43.95 33.15 42.2 33.35 41.9 33.35 41.35 33.65 41.1 Q34.35 41.1 34.45 41.85 L34.5 42.2 Q34.65 43.65 34.95 45.1 L35.0 47.2 35.0 47.25 34.95 46.85 35.0 47.35 35.4 50.75 35.5 50.9 35.45 51.0 35.4 51.1 35.85 57.15 35.9 58.05 Q36.65 60.45 36.95 63.1 L37.1 63.45 37.8 65.0 37.8 65.05 37.1 65.05 37.15 65.1 37.2 65.15 37.15 65.3 37.1 65.45 36.95 65.55 36.65 65.65 36.45 65.75 35.5 65.65 34.8 66.0 34.25 66.3 Q33.2 66.8 32.25 67.4 L29.85 69.1 28.75 69.95 Q27.9 70.6 27.5 71.6 26.9 72.8 26.7 74.15 L26.6 74.3 26.5 74.85 26.05 78.4 25.95 79.35 Q26.7 81.0 28.05 82.35 L28.3 82.65 28.3 82.7 28.35 82.7 28.5 82.95 Q29.5 84.5 31.3 84.3 L31.95 83.85 32.2 83.3 Q32.75 81.85 32.75 80.2 L32.9 80.15 33.2 79.2 32.65 79.15 32.45 79.15 Q31.95 79.15 31.8 78.85 L31.65 78.85 30.65 78.65 30.6 78.55 Q30.45 78.15 30.8 78.05 L31.5 78.0 32.8 77.95 34.85 77.5 35.0 77.3 Q36.25 76.55 37.75 76.45 L37.9 76.4 37.9 76.45 37.95 76.45 39.2 76.05 39.6 75.95 39.7 76.15 39.75 76.15 39.8 76.15 39.95 76.05 40.25 75.8 40.15 75.75 39.7 75.5 39.55 74.1 40.5 74.75 41.6 75.35 42.8 75.7 43.5 75.85 Q47.4 76.6 51.05 77.95 L51.1 77.95 51.65 78.2 52.8 78.65 55.65 78.65 57.4 78.85 57.75 78.9 58.05 78.95 58.15 78.95 59.15 79.05 59.35 79.4 Q61.7 79.35 63.45 80.8 L63.5 80.85 68.1 82.9 70.0 83.85 70.1 83.9 69.9 83.85 69.85 83.85 69.65 83.8 69.2 83.7 66.55 83.0 67.05 85.3 Q67.65 87.9 70.4 87.5 L70.9 87.25 Q72.1 86.45 72.8 85.1 L73.6 83.2 Q73.9 82.3 73.55 81.8 74.1 79.4 73.5 76.85 L72.85 74.95 71.4 71.95 71.3 71.8 69.85 69.1 70.3 69.95 69.0 68.7 Q68.35 68.5 67.9 67.95 L67.55 67.7 67.1 67.35 67.0 67.4 Q66.35 67.65 66.1 67.05 L65.75 65.95 65.7 64.2 Q65.75 63.5 66.15 63.1 L66.1 62.45 66.05 61.85 66.65 61.3 68.5 59.2 Q68.55 57.85 69.2 56.8 L69.95 55.6 70.05 55.5 70.4 55.05 71.15 54.25 71.25 54.2 71.45 53.65 71.8 53.7 73.5 52.4 74.25 53.55 Q72.8 54.1 71.75 55.05 L71.2 55.6 Q70.45 56.45 69.95 57.55 69.5 59.65 67.95 61.15 L67.5 62.45 67.2 63.7 67.25 63.9 67.15 64.45 67.15 64.55 67.15 65.05 67.6 66.15 67.65 66.2 67.6 66.25 67.75 66.55 Q69.05 67.35 70.05 68.7 L71.5 70.6 71.8 71.05 Q73.3 73.25 73.95 75.9 74.65 78.8 74.35 81.7 L73.8 84.5 Q73.25 86.25 71.95 87.6 70.8 88.8 69.15 88.65 L67.85 88.5 Q67.2 88.35 66.8 87.7 66.05 86.55 65.9 85.1 65.8 84.15 65.95 83.2 L66.1 82.85 62.9 81.7 61.25 81.0 60.3 80.85 60.15 80.9 Q59.55 80.5 58.6 80.4 L58.35 80.4 53.95 80.2 Q51.2 79.9 48.85 78.6 47.8 78.0 46.65 77.75 L42.75 76.75 40.9 76.1 41.2 76.25 41.3 76.3 41.15 76.35 40.9 76.5 38.15 77.55 36.7 77.85 35.15 78.5 34.7 78.9 33.9 80.15 33.7 81.35 33.3 83.55 33.1 84.05 32.6 84.75 32.45 84.8 31.25 85.25 31.2 85.25 30.25 85.25 Q28.75 84.9 27.65 83.95 L27.3 83.7 26.85 83.3 25.6 81.15 25.45 80.8 25.35 80.55 25.25 79.9 Q25.2 79.5 25.3 79.2 L25.3 79.15 25.35 79.05 25.4 79.2 25.35 78.85 25.35 78.3 25.45 76.75 25.6 75.45 25.7 74.7 Q25.85 73.2 26.6 71.8 L27.75 70.15 28.75 69.15 29.35 68.45 30.6 67.4 31.1 67.05 Q31.7 66.6 32.4 66.25 L33.25 65.85 33.65 65.35 Q34.85 64.45 36.25 64.05 L35.55 61.5 Q35.0 58.6 34.85 55.65 L34.65 51.85 Q35.0 50.15 34.85 48.4 L34.5 47.75 34.35 47.65 34.2 46.3 34.15 46.0 Q33.85 44.6 32.3 44.85 L30.85 45.55 29.3 46.4 29.15 46.45 27.7 46.4 26.35 46.75 25.3 46.35 22.0 45.2 20.7 44.35 20.7 44.3 Q20.3 44.1 20.2 43.6 19.6 41.45 20.3 39.35 L20.65 38.45 Q21.45 36.9 22.75 35.7 L23.55 35.1 Q25.8 33.3 28.5 32.25 29.25 32.0 29.55 31.25 L29.8 30.6 29.7 30.35 Q30.3 29.6 31.05 29.0 L31.3 28.85 32.7 28.25 34.15 27.8 36.65 27.8 37.1 27.45 41.6 26.5 47.25 25.55 48.05 25.65 48.5 25.65 49.3 25.75 49.35 25.7 50.15 24.75 50.35 24.05 50.4 24.0 50.45 23.95 50.5 23.9 50.6 23.7 50.65 23.6 50.75 23.35 50.8 23.35 50.8 23.25 50.95 22.6 51.4 21.25 Q52.15 20.55 53.0 20.2 L52.75 18.7 Q52.7 18.35 52.8 18.15 L52.75 18.05 Q52.35 16.8 53.6 16.9 55.25 17.2 56.45 18.5 L57.85 19.8 58.45 19.75 Q59.7 19.55 61.0 19.75 L62.7 20.1 63.1 20.35 63.2 20.35 63.2 20.4 64.05 20.8 64.3 20.9 65.45 21.95 65.85 22.45 66.6 22.25 Q67.35 21.95 68.15 21.95 L69.95 21.85 70.1 22.1 70.2 22.2 70.35 22.55 70.25 22.95 68.0 25.45 68.2 25.65 68.25 25.75 Q69.25 26.85 69.15 28.25 69.05 30.15 67.65 31.7 L67.95 32.75 Q69.55 32.9 71.05 33.6 L71.4 33.8 72.55 34.65 74.4 36.9 76.0 37.5 76.05 37.45 76.15 37.5 78.1 38.65 Q80.0 39.65 81.55 41.15 L82.05 41.6 83.85 43.4 83.85 43.45 85.3 45.7 86.15 46.95 Q88.0 49.2 89.35 51.85 90.05 53.25 90.4 54.75 91.0 57.65 91.05 60.55 L91.1 61.7 90.95 64.75 91.0 64.9 91.15 64.8 91.9 65.45 92.55 67.25 Q92.7 67.9 92.45 68.5 L92.5 68.85 92.25 69.7 91.75 69.75 90.55 68.95 90.35 69.6 89.9 70.55 88.75 71.9 87.75 72.75 87.75 73.1 87.45 74.6 86.9 76.7 86.8 76.95 Q86.5 77.6 85.95 77.2 L85.9 77.15 85.3 76.4 85.15 76.05 84.85 75.45 84.35 74.65 82.95 74.85 82.2 74.75 Q81.35 74.35 81.05 73.45 L81.05 73.4 80.85 73.45 80.45 73.5 79.1 73.95 78.35 74.1 Q77.7 74.4 77.55 73.8 L77.5 73.45 77.55 73.4 78.25 71.85 78.35 71.6 79.4 70.15 80.8 68.8 80.85 68.75 80.9 68.75 Q81.2 67.25 81.1 65.8 80.4 66.15 79.8 66.65 L79.3 66.85 Q78.6 66.8 78.75 66.15 L78.95 65.55 Q79.25 64.25 79.85 63.05 L80.25 62.35 80.0 61.8 Q79.55 60.75 79.65 59.7 78.45 59.1 77.4 58.35 L76.95 58.05 75.45 56.55 Q74.85 55.25 74.4 53.95 L74.35 53.75 74.4 53.5 74.5 53.3 74.65 52.9 74.95 53.2 75.1 53.25 75.3 53.35 75.15 53.75 75.1 54.0 75.05 54.15 Q75.6 56.1 77.6 57.35 L77.7 57.4 80.35 59.6 80.25 58.9 80.5 60.05 80.85 61.95 80.9 62.15 81.0 62.7 81.05 62.75 81.05 62.8 80.9 62.95 80.55 63.25 80.05 63.8 79.25 65.85 79.95 66.3 80.3 66.1 81.05 65.45 81.55 65.15 82.1 64.75 82.75 64.65 82.85 64.65 82.9 64.6 Q83.05 64.8 82.8 65.1 L82.45 65.35 81.65 65.65 81.85 67.4 81.8 69.1 81.65 71.55 81.7 72.05 81.7 72.35 82.05 73.1 82.8 73.9 Q83.45 74.3 84.1 74.35 L84.65 74.25 84.2 72.5 84.05 71.9 84.0 71.65 Q83.8 70.85 84.45 70.35 L84.55 70.35 84.8 70.35 85.0 70.6 Q84.35 70.85 84.45 71.55 L84.45 71.6 84.45 71.65 84.5 71.85 84.8 72.75 85.1 74.05 85.15 74.45 85.15 74.7 85.5 75.3 85.55 75.5 85.85 76.55 85.9 76.65 86.15 76.6 86.45 76.25 Q87.05 74.75 87.05 73.25 L87.05 72.95 87.0 72.6 87.0 72.55 88.3 70.85 88.9 69.4 89.15 68.55 89.85 68.15 90.15 67.8 90.15 67.6 90.15 67.55 90.25 67.6 90.65 67.9 91.4 68.55 91.45 68.6 91.9 68.5 92.15 68.35 91.9 67.55 91.25 65.55 91.0 65.35 90.9 65.3 90.25 64.9 90.3 63.65 89.65 56.35 89.55 55.95 89.45 55.45 89.1 53.65 88.85 52.95 87.15 49.45 M77.5 73.45 L78.65 73.05 80.8 73.0 80.7 69.9 79.75 70.65 77.5 73.45 M84.3 58.85 Q84.4 58.7 84.6 58.65 L85.1 58.75 Q86.85 58.95 86.3 60.3 L85.75 60.65 Q84.45 60.55 84.05 59.6 83.8 59.15 84.3 58.85 M88.25 64.45 Q88.5 64.45 88.6 64.6 87.65 65.2 88.05 66.3 L88.3 66.55 88.85 66.8 89.25 67.05 89.4 67.15 89.45 67.25 89.7 67.4 89.75 67.4 89.75 67.5 89.7 67.55 89.4 67.55 88.6 67.65 88.3 67.5 87.65 66.85 87.4 66.0 Q87.35 65.4 87.65 64.85 87.8 64.5 88.15 64.45 L88.25 64.45 M83.2 66.25 L83.25 66.2 Q83.65 65.2 84.65 65.2 L84.75 65.25 85.05 65.35 Q85.75 65.7 85.95 66.6 L85.95 66.9 85.4 67.55 Q86.05 66.1 84.35 65.85 L84.15 66.0 83.75 66.2 82.95 67.15 82.65 67.45 82.7 67.35 83.2 66.25 M56.65 25.7 L56.55 25.45 56.45 25.15 56.85 25.0 56.95 24.95 Q58.85 24.35 60.75 24.95 L60.8 24.95 Q61.7 25.25 62.25 26.1 L62.45 26.45 62.65 26.85 62.75 27.1 62.8 27.3 62.85 27.35 62.85 27.45 62.85 27.85 61.95 28.45 61.9 28.4 61.8 28.25 61.85 28.2 62.0 28.1 62.05 28.1 62.3 27.95 62.25 27.2 Q62.05 26.5 61.35 26.0 L60.7 25.4 60.35 25.15 57.85 25.75 57.35 25.85 57.2 25.8 57.15 25.8 56.75 25.75 56.65 25.7 M69.7 65.05 L69.75 65.0 69.85 65.05 69.7 65.05" fill="#000000" fill-rule="evenodd" stroke="none"/>
    <path d="M90.25 64.9 L90.9 65.3 91.0 65.35 91.25 65.55 91.9 67.55 92.15 68.35 91.9 68.5 91.45 68.6 91.4 68.55 90.65 67.9 90.25 67.6 90.15 67.55 Q89.55 67.1 88.85 66.8 L88.3 66.55 88.05 66.3 Q87.65 65.2 88.6 64.6 L88.65 64.55 88.75 64.5 89.0 64.5 89.0 64.45 89.7 64.65 90.25 64.9 M87.0 72.55 L87.0 72.6 87.05 72.95 87.05 73.25 Q87.05 74.75 86.45 76.25 L86.15 76.6 85.9 76.65 85.85 76.55 85.55 75.5 85.5 75.3 85.15 74.7 85.15 74.45 85.1 74.05 84.8 72.75 84.5 71.85 84.45 71.65 84.45 71.6 84.45 71.55 Q84.35 70.85 85.0 70.6 L85.25 70.5 85.65 70.5 85.7 70.5 85.75 70.55 85.8 70.6 85.85 70.65 86.3 71.05 86.65 71.55 87.0 72.55 M82.9 64.6 L82.85 64.65 82.75 64.65 82.1 64.75 81.55 65.15 81.05 65.45 80.3 66.1 79.95 66.3 79.25 65.85 80.05 63.8 80.55 63.25 80.9 62.95 81.05 62.8 81.05 62.75 81.65 62.2 81.7 62.25 82.2 62.15 Q82.7 62.25 83.05 62.45 83.8 62.9 83.3 64.05 L83.05 64.5 82.9 64.6 M77.5 73.45 L79.75 70.65 80.7 69.9 80.8 73.0 78.65 73.05 77.5 73.45 M85.4 67.55 L84.95 68.2 84.2 68.9 83.05 69.65 82.45 69.55 82.2 68.95 Q82.05 68.15 82.65 67.45 L82.95 67.15 83.75 66.2 84.15 66.0 84.35 65.85 Q86.05 66.1 85.4 67.55 M53.25 25.35 L53.25 25.25 Q53.1 24.35 53.45 23.85 L53.7 23.6 Q54.05 23.3 54.7 23.3 L55.1 23.55 55.35 23.7 55.85 24.25 56.45 25.15 56.55 25.45 56.65 25.7 56.65 25.8 56.7 25.85 56.7 26.0 56.65 26.8 56.45 27.25 56.35 27.15 55.85 26.5 55.75 26.1 55.6 24.9 Q54.9 26.1 53.45 25.45 L53.3 25.35 53.25 25.35 M61.95 28.45 L62.85 27.85 63.55 27.5 63.6 27.55 63.65 27.5 64.45 27.3 64.6 27.3 65.65 27.3 65.7 27.3 65.9 27.3 66.25 27.35 66.25 27.5 66.35 27.55 66.65 27.6 Q67.15 28.05 67.15 28.7 L67.15 28.85 67.05 29.4 66.95 29.55 66.95 29.65 66.15 30.2 66.1 30.15 Q65.3 30.3 64.75 29.75 64.45 29.2 64.6 28.65 L64.7 28.25 64.5 28.25 Q64.15 28.2 64.0 28.6 L63.7 28.85 Q63.15 29.1 62.85 28.55 L61.75 29.0 61.5 29.1 61.8 28.65 61.85 28.55 61.95 28.45 M44.35 39.0 L43.95 38.65 43.9 38.6 43.85 38.5 Q43.45 38.0 43.4 37.4 L43.75 35.5 44.0 35.15 Q44.7 34.4 46.3 34.35 L46.65 34.5 46.85 34.45 47.75 34.8 48.0 34.95 48.75 35.15 49.25 35.65 Q49.85 35.65 50.2 36.1 L49.85 36.2 48.3 36.1 47.15 35.9 46.65 35.6 46.5 35.6 46.45 35.6 46.5 35.65 Q47.4 37.1 46.55 38.5 L45.8 39.25 44.8 39.35 44.35 39.0 M49.85 46.7 L49.95 46.7 50.15 46.6 50.85 46.75 51.15 46.8 51.7 46.9 51.8 46.95 Q52.1 47.0 52.35 47.2 L52.3 47.2 50.5 47.55 50.3 47.55 49.35 47.6 Q50.4 48.5 50.45 49.95 L50.4 50.35 50.35 50.3 49.9 50.35 Q48.7 50.35 48.4 49.25 L48.35 48.2 Q48.45 47.7 48.8 47.4 49.5 47.25 49.8 46.75 L49.85 46.75 49.85 46.7 M58.2 48.35 Q57.75 48.25 57.8 47.8 L57.7 47.6 56.85 47.35 57.1 47.2 57.85 47.0 58.9 47.5 59.05 47.5 Q59.95 47.8 60.35 48.6 L60.4 48.75 Q60.9 49.2 61.0 49.8 L61.05 50.05 60.85 50.85 60.6 51.3 60.15 51.65 60.1 51.7 59.9 51.8 59.25 51.45 Q58.55 50.85 58.6 49.95 58.7 48.8 59.6 48.6 L58.9 48.4 58.2 48.35 M62.75 40.0 Q62.95 39.45 63.4 39.3 L64.2 39.25 64.3 39.3 66.1 39.55 66.35 39.45 66.45 39.5 Q67.4 39.6 68.1 40.05 69.2 40.8 69.5 42.45 L69.45 43.0 69.25 43.15 68.15 43.8 67.05 43.45 66.45 42.7 66.4 42.6 66.2 41.7 Q66.2 41.05 66.45 40.65 66.75 40.2 67.35 40.1 67.0 40.15 66.8 40.3 L66.45 40.3 65.65 40.4 65.25 40.85 Q64.9 41.3 64.35 41.15 L64.15 40.65 64.25 40.3 64.3 39.95 63.2 40.1 62.95 40.1 62.7 40.1 62.75 40.05 62.75 40.0 M53.8 57.5 L54.05 57.5 54.25 57.45 54.45 57.45 54.8 57.55 55.5 58.45 55.7 58.8 56.0 59.35 55.9 59.8 55.85 59.9 55.9 60.2 55.95 60.55 55.8 60.45 55.55 60.25 54.35 59.35 54.1 59.35 52.65 59.75 52.5 59.25 52.4 59.15 52.6 58.9 52.6 58.75 Q52.8 57.7 53.8 57.5 M49.7 67.05 L49.75 67.05 Q49.95 66.65 50.3 66.55 L50.5 66.5 51.3 66.65 51.3 66.7 51.45 66.75 51.55 66.8 51.6 66.9 51.75 67.1 51.8 67.15 52.1 67.9 52.2 68.25 52.25 68.7 Q51.3 68.0 50.05 68.3 L49.9 68.4 49.05 69.0 49.1 68.6 49.45 67.55 49.6 67.25 49.7 67.05" fill="#cccccc" fill-rule="evenodd" stroke="none"/>
    <path d="M54.2 20.35 L54.2 20.25 54.05 19.85 53.75 19.25 53.65 19.0 53.65 18.9 53.35 17.95 53.25 17.7 53.55 17.2 55.0 18.3 56.4 19.35 56.5 19.5 56.75 20.0 56.95 20.55 57.05 21.65 57.05 21.8 56.8 22.3 56.8 22.35 56.35 22.7 55.75 22.8 55.25 22.75 55.15 22.65 54.75 22.45 54.55 21.9 Q54.35 21.55 54.5 21.15 L54.5 21.1 54.2 20.35 M64.6 25.65 L64.55 25.25 64.55 24.9 64.65 24.5 64.95 23.9 65.05 23.75 65.3 23.4 Q65.6 23.0 66.05 22.75 L66.25 22.65 68.3 22.45 68.85 22.4 69.2 22.35 69.85 22.3 69.9 22.75 69.25 23.2 68.7 23.65 67.7 24.6 67.45 25.0 67.45 25.1 67.15 25.35 67.0 25.45 66.65 25.8 66.5 25.95 65.9 26.25 64.95 26.1 64.6 25.65" fill="#ffffcc" fill-rule="evenodd" stroke="none"/>
    <path d="M65.6 26.75 L66.25 26.9 66.55 27.05 66.85 27.25 Q67.5 27.85 67.55 28.75 67.6 30.05 66.35 30.55 L66.35 30.5 65.9 30.7 65.25 30.75 63.65 31.15 63.3 31.15 63.05 31.1 63.0 31.1 62.5 30.95 62.1 30.65 61.55 29.8 61.5 29.7 61.45 29.2 61.3 29.15 61.35 29.1 61.4 28.75 61.4 28.7 61.7 28.45 61.8 28.25 61.9 28.4 61.95 28.45 61.85 28.55 61.8 28.65 61.5 29.1 61.75 29.0 62.85 28.55 Q63.15 29.1 63.7 28.85 L64.0 28.6 Q64.15 28.2 64.5 28.25 L64.7 28.25 64.6 28.65 Q64.45 29.2 64.75 29.75 65.3 30.3 66.1 30.15 L66.15 30.2 66.95 29.65 66.95 29.55 67.05 29.4 67.15 28.85 67.15 28.7 Q67.15 28.05 66.65 27.6 L66.35 27.55 66.25 27.5 66.25 27.35 65.9 27.3 65.7 27.3 65.65 27.3 64.6 27.3 64.45 27.3 63.65 27.5 63.6 27.55 63.55 27.5 62.85 27.85 62.85 27.45 62.85 27.35 62.8 27.3 62.85 27.25 63.3 27.1 65.55 26.85 65.65 26.85 65.6 26.75 M56.45 25.15 L55.85 24.25 55.35 23.7 55.1 23.55 54.7 23.3 Q54.05 23.3 53.7 23.6 L53.45 23.85 Q53.1 24.35 53.25 25.25 L53.25 25.35 52.75 25.6 52.7 25.65 52.65 25.7 52.55 25.7 52.55 25.5 52.5 25.05 Q52.45 24.05 53.2 23.45 54.0 22.7 55.05 23.05 L55.5 23.3 55.2 23.5 55.4 23.4 Q56.15 23.8 56.8 24.4 L56.9 24.6 57.0 24.8 57.05 24.9 56.95 24.95 56.85 25.0 56.45 25.15 M53.3 25.35 L53.45 25.45 Q54.9 26.1 55.6 24.9 L55.75 26.1 55.85 26.5 56.35 27.15 56.45 27.25 56.65 26.8 56.7 26.0 56.7 25.85 56.65 25.8 56.65 25.7 56.75 25.75 57.15 25.8 57.2 25.8 57.35 25.85 57.35 26.15 Q57.3 27.15 56.55 27.55 L56.2 27.7 56.05 27.7 Q55.35 28.35 54.3 27.35 L53.75 26.65 53.55 26.25 53.3 25.45 53.3 25.35 M56.2 58.85 L56.25 58.55 Q56.55 59.4 56.35 60.3 L56.3 60.55 56.2 60.9 55.95 61.2 55.65 61.55 55.15 61.85 54.65 62.15 54.4 62.2 54.3 62.25 53.95 62.2 Q53.4 62.1 52.75 61.6 L52.65 61.5 52.3 61.1 52.15 60.6 52.25 59.6 52.2 59.7 52.15 59.5 52.0 59.45 51.75 59.6 Q51.7 59.05 51.95 58.45 L52.1 58.2 Q53.1 56.85 54.8 56.75 L55.25 56.9 55.85 57.55 55.95 57.75 56.25 58.6 56.2 58.85 M52.35 46.8 L52.75 47.45 Q52.95 48.0 52.8 48.6 L52.2 49.4 51.45 50.35 51.1 50.6 50.65 51.0 49.65 51.1 Q49.2 51.0 48.7 50.7 L48.45 50.55 Q47.9 50.1 47.8 49.45 L47.75 49.3 Q47.55 48.1 48.0 47.5 48.15 47.25 48.45 47.1 L48.6 46.7 48.7 46.55 48.65 46.55 Q49.3 46.15 50.15 46.05 51.15 46.2 52.0 46.8 L52.35 46.8 M46.5 35.6 L46.65 35.6 47.15 35.9 48.3 36.1 49.85 36.2 50.2 36.1 Q49.85 35.65 49.25 35.65 L48.75 35.15 48.0 34.95 47.75 34.8 46.85 34.45 46.65 34.5 46.3 34.35 Q44.7 34.4 44.0 35.15 L43.75 35.5 43.4 37.4 Q43.45 38.0 43.85 38.5 L43.9 38.6 43.95 38.65 44.35 39.0 44.7 39.3 44.45 39.25 44.2 39.2 Q43.15 38.35 42.95 36.95 42.85 35.7 43.7 34.9 44.8 33.8 46.35 33.9 47.9 33.85 49.05 34.8 L49.8 35.3 Q50.4 35.65 50.35 36.35 L50.45 36.5 50.55 37.25 Q50.7 38.05 50.05 38.6 49.0 39.55 47.55 39.45 L44.8 39.35 45.8 39.25 46.55 38.5 Q47.4 37.1 46.5 35.65 L46.5 35.6 M48.9 37.35 L48.9 37.4 48.9 37.35 M49.95 46.7 L49.75 46.65 49.85 46.7 49.85 46.75 49.8 46.75 Q49.5 47.25 48.8 47.4 48.45 47.7 48.35 48.2 L48.4 49.25 Q48.7 50.35 49.9 50.35 L50.35 50.3 50.4 50.35 50.45 49.95 Q50.4 48.5 49.35 47.6 L50.3 47.55 50.5 47.55 52.3 47.2 52.35 47.2 Q52.1 47.0 51.8 46.95 L51.7 46.9 51.15 46.8 51.15 46.75 50.8 46.75 50.85 46.75 50.15 46.6 49.95 46.7 M61.5 49.45 L61.25 49.65 61.45 49.5 61.55 50.0 61.55 50.25 Q61.5 51.3 60.55 51.75 L59.45 51.85 59.35 51.85 58.9 51.55 58.8 51.4 57.3 51.05 56.85 50.75 56.35 50.05 Q55.75 48.6 56.45 47.25 56.6 46.95 56.9 46.8 L57.05 47.15 57.0 46.95 58.35 46.7 59.45 47.1 60.15 47.3 60.6 47.8 Q61.3 48.55 61.5 49.45 M58.2 48.35 L58.9 48.4 59.6 48.6 Q58.7 48.8 58.6 49.95 58.55 50.85 59.25 51.45 L59.9 51.8 60.1 51.7 60.15 51.65 60.6 51.3 60.85 50.85 61.05 50.05 61.0 49.8 Q60.9 49.2 60.4 48.75 L60.35 48.6 Q59.95 47.8 59.05 47.5 L58.9 47.5 57.85 47.0 57.1 47.2 56.85 47.35 57.7 47.6 57.8 47.8 Q57.75 48.25 58.2 48.35 M62.7 40.05 Q62.55 38.9 63.75 38.9 L66.45 39.15 67.1 39.15 67.9 39.3 Q69.5 39.85 69.95 41.45 70.15 42.0 69.95 42.5 69.5 43.85 68.15 44.15 L67.0 44.15 67.0 44.1 66.45 44.1 64.75 43.65 64.45 43.5 64.35 43.4 64.0 42.8 Q63.4 42.9 62.9 42.25 62.4 41.55 62.55 40.65 L62.7 40.1 62.95 40.1 63.2 40.1 64.3 39.95 64.25 40.3 64.15 40.65 64.35 41.15 Q64.9 41.3 65.25 40.85 L65.65 40.4 66.45 40.3 66.8 40.3 Q67.0 40.15 67.35 40.1 66.75 40.2 66.45 40.65 66.2 41.05 66.2 41.7 L66.4 42.6 66.45 42.7 67.05 43.45 68.15 43.8 69.25 43.15 69.45 43.0 69.5 42.45 Q69.2 40.8 68.1 40.05 67.4 39.6 66.45 39.5 L66.35 39.45 66.1 39.55 64.3 39.3 64.2 39.25 63.4 39.3 Q62.95 39.45 62.75 40.0 L62.7 40.05 M53.8 57.5 Q52.8 57.7 52.6 58.75 L52.6 58.9 52.4 59.15 52.5 59.25 52.65 59.75 54.1 59.35 54.35 59.35 55.55 60.25 55.8 60.45 55.95 60.55 55.9 60.2 55.85 59.9 55.9 59.8 56.0 59.35 55.7 58.8 55.5 58.45 54.8 57.55 54.45 57.45 54.25 57.45 54.05 57.5 53.8 57.5 M52.15 66.65 L52.3 67.05 52.5 68.5 Q52.55 69.3 52.15 69.9 L52.2 69.45 52.1 69.95 51.7 70.55 50.8 70.5 50.65 70.4 Q49.7 70.65 49.2 70.0 L49.2 70.1 48.95 69.85 Q48.65 69.45 48.65 68.95 48.65 67.8 49.25 66.8 L49.35 66.65 Q49.8 66.1 50.35 66.0 51.4 65.95 51.95 66.65 L52.15 66.65 M49.7 67.05 L49.6 67.25 49.45 67.55 49.1 68.6 49.05 69.0 49.9 68.4 50.05 68.3 Q51.3 68.0 52.25 68.7 L52.2 68.25 52.1 67.9 51.8 67.15 51.75 67.1 51.6 66.9 51.55 66.8 51.45 66.75 51.3 66.7 51.3 66.65 50.5 66.5 50.3 66.55 Q49.95 66.65 49.75 67.05 L49.7 67.05" fill="#333333" fill-rule="evenodd" stroke="none"/>
    <path d="M73.55 81.8 Q73.9 82.3 73.6 83.2 L72.8 85.1 Q72.1 86.45 70.9 87.25 L70.4 87.5 Q67.65 87.9 67.05 85.3 L66.55 83.0 69.2 83.7 69.65 83.8 69.85 83.85 69.9 83.85 70.1 83.9 71.55 83.8 73.05 83.45 73.55 81.8 M30.65 78.65 L31.65 78.85 31.8 78.85 Q31.95 79.15 32.45 79.15 L32.65 79.15 33.2 79.2 32.9 80.15 32.75 80.2 Q32.75 81.85 32.2 83.3 L31.95 83.85 31.3 84.3 Q29.5 84.5 28.5 82.95 L28.35 82.7 28.3 82.7 28.3 82.65 28.05 82.35 Q26.7 81.0 25.95 79.35 L26.05 78.4 26.5 74.85 26.6 74.35 27.45 75.45 27.5 75.5 27.6 75.7 Q28.55 77.7 30.55 78.6 L30.65 78.65 M57.35 25.85 L57.85 25.75 60.35 25.15 60.7 25.4 61.35 26.0 Q62.05 26.5 62.25 27.2 L62.3 27.95 62.05 28.1 62.0 28.1 61.85 28.2 61.8 28.25 61.7 28.45 61.4 28.7 61.4 28.75 61.35 29.1 61.3 29.15 61.45 29.2 61.5 29.7 61.55 29.8 62.1 30.65 62.5 30.95 Q62.4 31.2 62.65 31.65 L62.8 31.95 63.05 32.0 63.05 31.8 63.1 32.1 63.05 32.1 63.1 32.8 63.15 32.9 63.6 33.95 63.7 34.15 63.85 34.55 64.0 34.85 64.2 35.2 65.3 37.5 66.45 37.75 67.0 37.7 67.55 37.75 Q68.85 38.15 70.0 39.15 L70.4 39.65 71.4 41.45 71.65 41.95 71.4 42.25 Q71.05 42.75 70.85 43.45 70.55 44.6 70.85 45.8 68.45 46.3 66.95 48.0 L66.45 48.15 64.4 49.35 63.7 48.75 Q62.5 48.85 61.5 49.45 61.3 48.55 60.6 47.8 L60.15 47.3 59.45 47.1 58.35 46.7 57.0 46.95 57.05 47.15 56.9 46.8 56.4 46.0 56.15 45.8 56.1 45.8 56.1 45.65 55.9 44.75 Q56.7 42.7 57.0 40.5 L56.85 39.5 Q57.0 37.3 56.8 35.15 L56.7 34.05 56.65 33.9 56.5 33.8 56.4 33.75 56.35 33.75 Q54.5 34.3 54.45 36.45 54.4 37.15 53.95 37.75 53.4 38.55 53.25 39.45 L52.65 40.55 Q52.25 41.0 52.2 41.6 52.0 43.3 52.75 44.85 52.45 45.8 52.45 46.8 L52.35 46.8 52.0 46.8 Q51.15 46.2 50.15 46.05 49.3 46.15 48.65 46.55 L48.15 46.5 45.95 45.8 45.25 45.4 Q44.2 41.55 41.5 38.6 41.6 37.15 41.05 35.8 L40.75 35.2 40.35 34.6 Q41.15 32.8 40.0 31.4 L39.55 31.1 38.55 31.6 38.8 31.1 Q39.5 30.15 40.65 30.7 L40.95 30.85 41.8 31.1 42.25 31.15 45.9 31.15 46.55 31.05 46.55 31.0 47.35 30.65 47.5 30.55 49.2 29.4 51.05 28.25 52.35 27.2 52.7 26.85 52.85 26.7 53.0 26.6 53.1 26.55 53.55 26.25 53.75 26.65 54.3 27.35 Q55.35 28.35 56.05 27.7 L56.2 27.7 56.55 27.55 Q57.3 27.15 57.35 26.15 L57.35 25.85 M44.35 39.0 L44.8 39.35 47.55 39.45 Q49.0 39.55 50.05 38.6 50.7 38.05 50.55 37.25 L50.45 36.5 50.35 36.35 Q50.4 35.65 49.8 35.3 L49.05 34.8 Q47.9 33.85 46.35 33.9 44.8 33.8 43.7 34.9 42.85 35.7 42.95 36.95 43.15 38.35 44.2 39.2 L44.45 39.25 44.7 39.3 44.35 39.0 M62.65 32.65 L62.1 32.5 62.65 32.65 M67.0 44.15 L68.15 44.15 Q69.5 43.85 69.95 42.5 70.15 42.0 69.95 41.45 69.5 39.85 67.9 39.3 L67.1 39.15 66.45 39.15 63.75 38.9 Q62.55 38.9 62.7 40.05 L62.7 40.1 62.55 40.65 Q62.4 41.55 62.9 42.25 63.4 42.9 64.0 42.8 L64.35 43.4 64.45 43.5 64.75 43.65 66.45 44.1 67.0 44.1 66.75 44.1 67.0 44.15 M69.7 86.35 L69.65 86.35 69.7 86.35" fill="#c7af52" fill-rule="evenodd" stroke="none"/>
    <path d="M53.25 25.35 L53.3 25.35 53.3 25.45 53.55 26.25 53.1 26.55 53.0 26.6 52.85 26.7 52.7 26.85 52.35 27.2 51.05 28.25 49.2 29.4 47.5 30.55 47.35 30.65 46.55 31.0 46.55 31.05 45.9 31.15 42.25 31.15 41.8 31.1 40.95 30.85 40.65 30.7 Q39.5 30.15 38.8 31.1 L38.55 31.6 38.5 31.7 Q38.35 32.2 38.65 32.75 L38.6 34.0 38.6 34.7 38.65 35.05 Q38.1 35.85 38.3 36.6 38.4 37.25 39.1 37.9 L40.25 39.35 40.8 40.35 41.4 41.5 42.2 43.25 43.75 47.65 43.95 48.1 47.95 54.35 Q48.95 55.95 50.6 56.85 L50.1 58.3 Q50.0 58.85 50.4 59.3 L50.55 59.5 51.75 59.6 52.0 59.45 52.15 59.5 52.2 59.7 52.25 59.6 52.15 60.6 52.3 61.1 52.65 61.5 52.75 61.6 Q53.4 62.1 53.95 62.2 L54.3 62.25 54.4 62.2 54.65 62.15 55.15 61.85 55.65 61.55 55.95 61.2 56.2 60.9 56.3 60.55 56.35 60.3 Q56.55 59.4 56.25 58.55 L56.2 58.85 56.25 58.5 56.3 57.5 56.3 56.15 56.75 55.35 56.85 54.6 57.2 54.45 58.45 53.8 58.6 53.8 58.7 53.8 Q59.5 55.15 60.9 54.8 L61.8 54.2 63.55 51.7 Q65.1 51.1 66.35 49.95 L66.45 49.85 67.55 48.8 Q70.45 49.05 71.75 46.55 L71.9 46.15 72.05 45.8 72.1 45.4 72.1 45.35 72.25 44.5 Q72.4 43.6 72.0 42.75 L71.65 41.95 71.4 41.45 70.4 39.65 70.0 39.15 Q68.85 38.15 67.55 37.75 L67.0 37.7 66.45 37.75 65.3 37.5 64.2 35.2 64.0 34.85 63.85 34.55 63.7 34.15 63.6 33.95 63.15 32.9 63.1 32.8 63.05 32.1 63.1 32.1 63.05 31.8 63.05 32.0 62.8 31.95 62.65 31.65 Q62.4 31.2 62.5 30.95 L63.0 31.1 63.05 31.1 63.05 31.6 63.6 31.75 63.65 31.85 63.9 32.05 64.05 32.8 64.1 32.9 64.15 33.1 64.05 33.05 64.35 34.05 64.4 34.15 64.95 35.2 Q65.25 35.85 65.9 36.25 L66.3 36.5 66.45 36.6 67.65 37.15 Q69.0 37.65 70.25 38.45 L71.4 39.45 71.45 39.45 72.45 41.2 72.7 42.0 72.9 43.05 72.8 45.0 72.6 45.6 72.6 46.25 72.4 47.0 72.4 47.1 Q71.8 48.3 70.65 48.9 L70.3 49.1 Q68.45 49.5 66.9 50.55 L66.45 50.85 63.85 52.95 62.2 54.7 60.85 55.45 60.05 55.35 58.4 55.1 58.0 55.55 56.8 57.2 56.8 57.25 Q57.35 58.6 57.0 60.0 56.65 61.35 55.8 62.45 L55.3 62.75 54.9 62.7 Q54.4 63.3 53.55 62.9 51.35 61.95 50.5 59.75 49.15 58.9 48.95 57.25 L48.6 56.45 47.55 54.85 47.5 54.8 47.2 54.2 45.8 52.55 45.2 51.9 Q43.8 50.1 42.75 48.05 41.4 45.4 40.45 42.6 L40.1 41.55 40.05 41.05 39.7 40.6 38.1 37.4 37.8 36.75 Q37.3 35.55 37.25 34.35 L37.35 32.55 37.8 32.1 37.9 31.75 37.95 31.7 38.25 31.15 38.6 30.55 Q39.4 30.15 40.4 30.25 L40.75 30.45 46.55 29.8 46.55 29.95 47.6 29.3 48.4 28.8 50.95 27.3 51.35 27.0 51.65 26.85 51.4 26.95 51.55 26.75 Q51.85 26.25 52.4 26.2 L52.2 26.45 52.7 25.8 52.75 25.6 53.25 25.35 M63.1 32.8 L63.2 32.8 63.1 32.8" fill="#663300" fill-rule="evenodd" stroke="none"/>
    <path d="M65.35 26.55 L65.4 26.6 65.3 26.6 65.35 26.55 M53.3 25.45 L53.3 25.35 53.3 25.45 M46.5 35.65 L46.45 35.6 46.5 35.6 46.5 35.65 M67.0 44.15 L66.75 44.1 67.0 44.1 67.0 44.15 M62.7 40.1 L62.7 40.05 62.75 40.0 62.75 40.05 62.7 40.1 M49.2 70.0 L49.35 70.2 49.2 70.1 49.2 70.0" fill="#666666" fill-rule="evenodd" stroke="none"/>
    <path d="M71.65 41.95 L72.0 42.75 Q72.4 43.6 72.25 44.5 L72.1 45.35 72.1 45.4 72.05 45.8 71.9 46.15 71.75 46.55 Q70.45 49.05 67.55 48.8 L66.45 49.85 66.35 49.95 Q65.1 51.1 63.55 51.7 L61.8 54.2 60.9 54.8 Q59.5 55.15 58.7 53.8 L58.6 53.8 58.45 53.8 57.2 54.45 56.85 54.6 56.75 55.35 56.3 56.15 56.3 57.5 56.25 58.5 56.2 58.85 56.25 58.6 55.95 57.75 55.85 57.55 55.25 56.9 54.8 56.75 Q53.1 56.85 52.1 58.2 L51.95 58.45 Q51.7 59.05 51.75 59.6 L50.55 59.5 50.4 59.3 Q50.0 58.85 50.1 58.3 L50.6 56.85 Q48.95 55.95 47.95 54.35 L43.95 48.1 43.75 47.65 42.2 43.25 41.4 41.5 40.8 40.35 40.25 39.35 39.1 37.9 Q38.4 37.25 38.3 36.6 38.1 35.85 38.65 35.05 L38.6 34.7 38.6 34.0 38.65 32.75 Q38.35 32.2 38.5 31.7 L38.55 31.6 39.55 31.1 40.0 31.4 Q41.15 32.8 40.35 34.6 L40.75 35.2 41.05 35.8 Q41.6 37.15 41.5 38.6 44.2 41.55 45.25 45.4 L45.95 45.8 48.15 46.5 48.65 46.55 48.7 46.55 48.6 46.7 48.45 47.1 Q48.15 47.25 48.0 47.5 47.55 48.1 47.75 49.3 L47.7 49.35 47.8 49.45 Q47.9 50.1 48.45 50.55 L48.6 50.8 48.7 50.7 Q49.2 51.0 49.65 51.1 L50.65 51.0 51.1 50.6 51.45 50.35 52.2 49.4 52.8 48.6 Q52.95 48.0 52.75 47.45 L52.35 46.8 52.45 46.8 Q52.45 45.8 52.75 44.85 52.0 43.3 52.2 41.6 52.25 41.0 52.65 40.55 L53.25 39.45 Q53.4 38.55 53.95 37.75 54.4 37.15 54.45 36.45 54.5 34.3 56.35 33.75 L56.4 33.75 56.5 33.8 56.65 33.9 56.7 34.05 56.8 35.15 Q57.0 37.3 56.85 39.5 L57.0 40.5 Q56.7 42.7 55.9 44.75 L56.1 45.65 56.1 45.8 56.15 45.8 56.4 46.0 56.9 46.8 Q56.6 46.95 56.45 47.25 55.75 48.6 56.35 50.05 L56.85 50.75 57.3 51.05 58.8 51.4 58.9 51.55 59.35 51.85 59.45 51.85 60.55 51.75 Q61.5 51.3 61.55 50.25 L61.55 50.0 61.45 49.5 61.25 49.65 61.5 49.45 Q62.5 48.85 63.7 48.75 L64.4 49.35 66.45 48.15 66.95 48.0 Q68.45 46.3 70.85 45.8 70.55 44.6 70.85 43.45 71.05 42.75 71.4 42.25 L71.65 41.95 M49.85 46.7 L49.75 46.65 49.95 46.7 49.85 46.7 M50.85 46.75 L50.8 46.75 51.15 46.75 51.15 46.8 50.85 46.75" fill="#996633" fill-rule="evenodd" stroke="none"/>
    <path d="M37.95 76.45 L37.9 76.45 37.9 76.4 37.95 76.45" fill="#0066cc" fill-rule="evenodd" stroke="none"/>
  </g>
</svg>
