<?xml version="1.0" encoding="UTF-8" standalone="no"?>
<svg xmlns:xlink="http://www.w3.org/1999/xlink" height="71.75px" width="75.15px" xmlns="http://www.w3.org/2000/svg">
  <g transform="matrix(1.0, 0.0, 0.0, 1.0, -20.65, -16.9)">
    <path d="M37.9 76.4 L37.95 76.45 37.9 76.45 37.9 76.4" fill="#0066cc" fill-rule="evenodd" stroke="none"/>
    <path d="M54.1 23.6 L54.15 23.7 54.25 23.9 54.3 23.95 54.35 24.0 54.4 24.05 Q54.35 24.45 54.6 24.75 L55.45 25.7 55.5 25.75 56.25 25.65 56.7 25.65 57.5 25.55 63.15 26.5 68.85 27.7 70.1 28.05 70.1 28.35 70.6 28.4 73.6 29.2 75.0 29.6 77.0 30.15 78.15 30.45 Q79.1 30.75 79.9 31.4 L80.9 32.4 81.95 34.4 82.15 34.75 84.05 36.3 86.9 38.2 87.0 38.6 86.95 38.35 87.0 38.3 86.95 38.2 88.8 39.85 90.55 41.75 91.05 42.75 91.3 43.35 Q92.25 45.8 92.75 48.35 L93.0 49.45 93.45 52.5 93.55 52.6 93.65 52.5 94.5 53.0 95.45 54.65 Q95.7 55.3 95.6 55.9 L95.7 56.25 Q95.9 56.7 95.6 57.1 L95.15 57.25 93.8 56.7 93.75 57.35 93.45 58.4 92.6 59.9 91.8 60.95 91.8 61.3 91.8 62.8 91.6 65.25 Q91.45 65.95 90.8 65.65 L90.75 65.6 Q90.15 65.3 89.8 64.65 L89.4 64.1 88.75 63.45 87.4 63.9 86.65 63.9 Q85.75 63.7 85.3 62.85 L85.3 62.8 85.1 62.9 84.7 63.0 83.45 63.7 82.75 64.0 Q82.2 64.4 81.9 63.85 81.8 63.7 81.85 63.55 L81.85 63.45 82.25 61.8 82.3 61.55 83.05 59.9 84.2 58.3 84.25 58.25 84.3 58.25 Q84.3 56.75 83.95 55.35 83.3 55.8 82.8 56.4 L82.35 56.7 Q81.65 56.75 81.7 56.1 L81.75 55.45 Q81.85 54.15 82.2 52.85 L82.45 52.1 82.15 51.6 Q81.5 50.65 81.4 49.6 L80.55 49.35 79.4 47.85 76.45 44.85 76.35 44.75 75.4 44.1 75.35 44.0 75.25 43.85 75.2 43.8 74.8 43.55 72.45 43.1 Q71.15 43.65 70.4 44.9 L70.2 45.4 70.1 45.9 70.05 46.2 70.1 47.2 70.1 52.0 69.9 55.65 Q69.75 58.6 69.2 61.5 L68.85 63.05 68.55 64.1 68.45 64.3 67.6 66.25 67.75 66.55 Q69.05 67.35 70.05 68.7 L71.5 70.6 71.8 71.05 Q73.3 73.25 73.95 75.9 74.65 78.8 74.35 81.7 L73.8 84.5 Q73.25 86.25 71.95 87.6 70.8 88.8 69.15 88.65 L67.85 88.5 Q67.2 88.35 66.8 87.7 66.05 86.55 65.9 85.1 65.8 84.15 65.95 83.2 L66.1 82.85 62.9 81.7 61.25 81.0 60.3 80.85 60.15 80.9 Q59.55 80.5 58.6 80.4 L58.35 80.4 53.95 80.2 Q51.2 79.9 48.85 78.6 47.8 78.0 46.65 77.75 L42.75 76.75 40.9 76.1 41.2 76.25 41.3 76.3 41.15 76.35 40.9 76.5 38.15 77.55 36.7 77.85 35.15 78.5 34.7 78.9 33.9 80.15 33.7 81.35 33.3 83.55 33.1 84.05 32.6 84.75 32.45 84.8 31.25 85.25 31.2 85.25 30.25 85.25 Q28.75 84.9 27.65 83.95 L27.3 83.7 26.85 83.3 25.6 81.15 25.45 80.8 25.35 80.55 25.25 79.9 Q25.2 79.5 25.3 79.2 L25.3 79.15 25.35 79.05 25.4 79.2 25.35 78.85 25.35 78.3 25.45 76.75 25.6 75.45 25.7 74.7 Q25.85 73.2 26.6 71.8 L27.75 70.15 28.75 69.15 29.35 68.45 30.6 67.4 31.1 67.05 Q31.7 66.6 32.4 66.25 L34.05 65.45 36.35 64.4 37.3 64.05 37.45 63.95 37.55 63.9 37.55 63.7 37.25 62.45 36.85 61.15 Q35.25 59.65 34.8 57.55 L33.55 55.6 33.0 55.05 Q31.9 54.05 30.35 53.5 L26.45 52.05 23.15 50.9 Q21.35 50.15 20.9 48.25 20.4 45.75 20.95 43.45 L21.0 42.35 Q21.2 41.45 21.8 40.75 L22.15 40.35 Q23.85 39.3 25.8 38.6 L30.35 36.9 32.2 34.65 33.7 33.6 Q35.2 32.9 36.8 32.75 L37.1 31.7 Q35.7 30.15 35.6 28.25 35.5 26.85 36.5 25.75 L36.55 25.65 36.75 25.45 34.5 22.95 34.4 22.55 34.55 22.2 34.65 22.1 34.7 22.1 34.85 21.85 36.65 21.95 38.2 22.25 38.95 22.45 39.35 21.95 Q39.85 21.3 40.5 20.9 L40.7 20.8 41.6 20.4 41.6 20.35 41.7 20.35 42.1 20.1 43.75 19.75 Q45.05 19.55 46.35 19.75 L46.9 19.8 48.35 18.5 Q49.5 17.2 51.2 16.9 52.4 16.8 52.05 18.05 L52.0 18.15 52.0 18.7 51.75 20.2 Q52.6 20.55 53.35 21.25 53.4 22.0 53.8 22.6 L53.95 23.25 54.0 23.25 53.95 23.35 54.0 23.35 54.1 23.6 M81.85 63.55 L82.85 62.9 84.95 62.45 84.3 59.45 83.5 60.35 81.85 63.55 M92.8 52.8 L92.6 51.55 Q91.85 47.95 90.6 44.45 L90.45 44.1 90.3 43.6 89.65 42.0 89.25 41.7 87.15 39.85 87.05 38.85 86.35 38.45 84.7 37.5 Q82.75 36.4 81.05 35.05 L80.95 34.8 Q80.75 33.55 79.95 32.7 L79.4 32.2 Q77.6 30.8 75.3 30.6 L75.0 30.55 75.0 30.25 74.1 30.1 72.8 29.75 71.7 29.45 70.1 28.9 70.1 28.7 68.85 28.3 68.3 28.15 Q64.5 27.25 60.65 26.85 L56.55 26.4 56.1 26.2 56.05 26.3 55.95 26.25 56.0 26.2 55.9 26.25 55.9 26.2 Q54.8 25.8 53.95 24.85 L53.45 24.25 Q53.05 23.7 53.25 23.35 L53.25 22.9 52.9 21.65 52.45 21.2 51.6 20.8 50.7 20.4 50.55 20.35 50.6 20.25 50.7 19.85 51.05 19.25 51.1 19.0 51.15 18.9 51.45 17.95 51.55 17.7 51.25 17.2 49.75 18.3 48.4 19.35 48.3 19.5 48.0 20.0 47.8 20.55 47.7 21.65 47.75 21.8 47.95 22.3 47.95 22.35 47.7 22.4 47.4 22.2 Q46.95 21.55 46.95 20.85 L47.0 20.35 46.7 20.3 46.5 20.3 46.35 20.3 46.1 20.25 44.9 20.15 43.7 20.0 41.4 21.0 40.95 21.15 40.85 21.25 40.05 22.45 39.8 22.8 39.8 22.85 39.65 23.05 39.75 23.1 39.85 23.2 40.2 23.25 40.2 23.3 40.4 23.6 40.65 24.4 40.5 25.4 40.45 25.45 40.35 25.5 40.3 25.55 40.25 25.6 40.2 25.65 40.25 25.25 40.2 24.9 40.1 24.5 39.85 23.9 39.75 23.75 39.5 23.4 38.75 22.75 38.55 22.65 36.45 22.45 35.95 22.4 35.55 22.35 34.95 22.3 34.85 22.75 35.55 23.2 36.1 23.65 37.05 24.6 37.3 25.0 37.3 25.1 37.65 25.35 37.8 25.45 37.3 25.95 36.5 27.0 36.4 27.2 36.35 27.25 36.35 27.3 36.25 27.65 36.2 27.85 36.2 28.15 36.3 28.6 36.3 28.65 36.7 29.5 37.65 31.25 38.05 31.75 37.85 32.7 37.8 33.0 37.75 33.0 37.7 33.25 37.7 33.45 37.35 33.3 36.9 33.4 36.7 33.5 36.7 33.45 36.65 33.45 36.1 33.5 35.85 33.6 33.55 34.25 33.45 34.35 Q32.5 35.2 31.8 36.3 L31.75 36.3 31.6 36.55 31.55 36.6 31.55 36.65 31.5 36.75 31.4 36.8 31.05 37.1 30.4 37.2 30.15 37.35 28.55 38.1 27.6 38.5 26.1 39.15 24.7 39.75 22.8 40.65 22.45 41.3 21.65 43.3 21.55 44.0 21.5 44.0 21.5 44.25 21.5 44.4 21.5 44.6 Q21.4 45.3 21.45 46.05 L21.65 47.4 21.75 47.75 21.8 47.9 22.05 48.6 22.25 49.05 Q25.75 51.95 30.8 52.1 L33.0 53.7 33.35 53.65 33.55 54.2 33.6 54.25 34.35 55.05 34.75 55.5 34.8 55.6 35.6 56.8 Q36.2 57.85 36.3 59.2 L38.1 61.3 38.7 61.85 38.65 62.45 38.6 63.7 38.6 63.8 38.7 64.85 38.8 64.95 38.75 64.95 38.55 64.9 38.5 64.9 37.9 64.75 37.9 64.4 37.75 64.5 37.5 64.6 37.45 64.6 36.5 65.15 36.4 65.15 36.3 65.2 36.0 65.4 34.8 66.0 34.25 66.3 Q33.2 66.8 32.25 67.4 L29.85 69.1 28.75 69.95 Q27.9 70.6 27.5 71.6 26.9 72.8 26.7 74.15 L26.6 74.3 26.5 74.85 26.05 78.4 25.95 79.35 Q26.7 81.0 28.05 82.35 L28.3 82.65 28.3 82.7 28.35 82.7 28.5 82.95 Q29.5 84.5 31.3 84.3 L31.95 83.85 32.2 83.3 Q32.75 81.85 32.75 80.2 L32.9 80.15 33.2 79.2 32.65 79.15 32.45 79.15 Q31.95 79.15 31.8 78.85 L31.65 78.85 30.65 78.65 30.6 78.55 Q30.45 78.15 30.8 78.05 L31.5 78.0 32.8 77.95 34.85 77.5 35.0 77.3 Q36.25 76.55 37.75 76.45 L37.9 76.4 37.9 76.45 37.95 76.45 39.2 76.05 39.6 75.95 39.7 76.15 39.75 76.15 39.8 76.15 39.95 76.05 40.25 75.8 40.15 75.75 39.7 75.5 39.55 74.1 40.5 74.75 41.6 75.35 42.8 75.7 43.5 75.85 Q47.4 76.6 51.05 77.95 L51.1 77.95 51.65 78.2 52.8 78.65 55.65 78.65 57.4 78.85 57.75 78.9 58.05 78.95 58.15 78.95 59.15 79.05 59.35 79.4 Q61.7 79.35 63.45 80.8 L63.5 80.85 68.1 82.9 70.0 83.85 70.1 83.9 69.9 83.85 69.85 83.85 69.65 83.8 69.2 83.7 66.55 83.0 67.05 85.3 Q67.65 87.9 70.4 87.5 L70.9 87.25 Q72.1 86.45 72.8 85.1 L73.6 83.2 Q73.9 82.3 73.55 81.8 74.1 79.4 73.5 76.85 L72.85 74.95 71.4 71.95 71.3 71.8 69.85 69.1 70.3 69.95 69.0 68.7 Q68.35 68.5 67.9 67.95 L67.55 67.7 Q66.85 67.3 66.85 66.75 L66.6 67.05 66.2 66.45 66.25 66.35 66.9 65.15 66.95 65.05 67.0 65.0 67.65 63.45 67.8 63.1 Q68.05 60.5 68.85 58.15 L68.9 58.05 68.9 57.15 Q69.05 54.1 69.35 51.1 L69.3 51.0 69.25 50.9 69.4 50.75 69.75 47.35 69.25 45.95 Q68.4 45.25 69.2 44.35 L69.75 43.75 Q70.65 42.55 72.05 42.0 L72.5 41.9 72.6 41.85 Q74.75 42.25 76.55 43.6 L76.9 44.05 77.9 44.8 78.35 45.25 Q79.95 46.75 81.25 48.55 L81.5 48.95 82.1 49.35 81.85 48.7 82.3 49.8 83.0 51.6 83.1 51.75 83.3 52.3 83.35 52.4 83.25 52.55 83.2 52.55 82.95 52.9 82.55 53.55 82.15 55.7 Q82.4 55.95 82.9 56.0 L83.2 55.75 83.85 55.0 84.25 54.6 84.75 54.1 85.35 53.9 85.45 53.85 85.5 53.8 Q85.7 53.95 85.5 54.3 L85.2 54.65 84.5 55.1 84.95 56.75 85.25 58.45 85.55 60.85 85.65 61.35 85.75 61.65 86.2 62.35 87.1 62.95 88.45 63.2 89.0 63.0 88.2 61.35 87.95 60.8 87.85 60.55 Q87.55 59.8 88.05 59.2 L88.15 59.15 88.4 59.1 88.7 59.35 Q88.1 59.65 88.3 60.35 L88.3 60.4 88.35 60.45 88.4 60.65 88.85 61.5 89.4 62.7 89.55 63.1 89.6 63.35 90.0 63.85 90.1 64.05 90.65 65.1 Q90.95 65.1 91.1 64.6 91.45 63.05 91.2 61.6 L91.1 61.25 91.0 60.95 91.0 60.9 91.95 59.0 92.3 57.45 92.35 56.55 93.0 56.05 93.2 55.65 93.2 55.45 93.2 55.4 93.3 55.45 93.7 55.65 94.6 56.15 94.65 56.15 95.05 56.0 95.3 55.8 94.9 55.05 93.9 53.25 93.6 53.1 93.5 53.05 92.8 52.8 M91.75 54.9 L92.2 55.05 92.35 55.15 92.4 55.2 92.7 55.3 92.75 55.3 92.75 55.4 92.7 55.45 92.4 55.5 Q92.2 55.9 91.65 55.75 L91.35 55.65 90.55 55.15 90.2 54.35 Q90.05 53.8 90.2 53.2 L90.65 52.7 90.75 52.7 91.1 52.8 Q90.3 53.55 90.85 54.55 L91.15 54.75 91.75 54.9 M85.8 47.9 L86.05 47.65 86.6 47.65 Q88.35 47.55 88.05 48.95 L87.55 49.4 Q86.3 49.55 85.7 48.7 85.4 48.3 85.8 47.9 M86.1 55.4 L86.1 55.3 Q86.35 54.25 87.3 54.1 L87.45 54.1 87.75 54.15 Q88.55 54.35 88.85 55.2 L88.9 55.5 88.5 56.3 88.5 56.25 Q88.85 54.7 87.15 54.75 L86.95 54.95 86.6 55.25 86.0 56.3 85.8 56.65 85.8 56.55 86.1 55.4 M47.45 25.85 L46.9 25.75 44.45 25.15 44.4 25.15 44.05 25.4 43.45 26.0 Q42.7 26.5 42.55 27.2 42.4 27.55 42.5 27.95 L42.75 28.1 42.8 28.1 42.9 28.2 42.95 28.2 42.95 28.25 42.9 28.4 42.8 28.45 41.9 27.85 Q41.85 27.65 41.95 27.45 L41.95 27.35 41.95 27.3 42.0 27.1 42.1 26.85 42.3 26.45 42.55 26.1 Q43.05 25.25 44.0 24.95 L44.05 24.95 Q45.9 24.35 47.8 24.95 L47.9 25.0 47.95 25.0 48.35 25.15 48.2 25.45 48.1 25.7 48.05 25.75 47.65 25.8 47.6 25.8 47.45 25.85" fill="#000000" fill-rule="evenodd" stroke="none"/>
    <path d="M81.85 63.55 L83.5 60.35 84.3 59.45 84.95 62.45 82.85 62.9 81.85 63.55 M85.25 51.65 Q86.1 51.95 85.8 53.2 L85.6 53.7 85.5 53.8 85.45 53.85 85.35 53.9 84.75 54.1 84.25 54.6 83.85 55.0 83.2 55.75 82.9 56.0 Q82.4 55.95 82.15 55.7 L82.55 53.55 82.95 52.9 83.2 52.55 83.25 52.55 83.35 52.4 83.35 52.35 83.8 51.7 83.9 51.7 84.35 51.55 85.25 51.65 M90.05 59.55 Q90.65 60.0 91.0 60.9 L91.0 60.95 91.1 61.25 91.2 61.6 Q91.45 63.05 91.1 64.6 90.95 65.1 90.65 65.1 L90.1 64.05 90.0 63.85 89.6 63.35 89.55 63.1 89.4 62.7 88.85 61.5 88.4 60.65 88.35 60.45 88.3 60.4 88.3 60.35 Q88.1 59.65 88.7 59.35 L88.9 59.2 89.25 59.1 89.35 59.15 89.4 59.15 89.45 59.2 89.5 59.2 90.05 59.55 M93.2 55.4 L91.75 54.9 91.15 54.75 90.85 54.55 Q90.3 53.55 91.1 52.8 L91.15 52.7 91.25 52.65 91.45 52.6 91.45 52.55 92.2 52.65 92.8 52.8 93.5 53.05 93.6 53.1 93.9 53.25 94.9 55.05 95.3 55.8 95.05 56.0 94.65 56.15 94.6 56.15 93.7 55.65 93.3 55.45 93.2 55.4 M88.5 56.25 L88.15 57.0 87.55 57.85 86.55 58.75 85.95 58.75 85.6 58.2 Q85.3 57.45 85.8 56.65 L86.0 56.3 86.6 55.25 86.95 54.95 87.15 54.75 Q88.85 54.7 88.5 56.25 M48.35 25.15 L48.9 24.25 49.45 23.7 49.7 23.55 50.05 23.3 Q50.7 23.3 51.05 23.6 L51.3 23.85 Q51.65 24.35 51.5 25.25 L51.5 25.35 51.45 25.35 51.35 25.45 Q49.85 26.1 49.15 24.9 48.95 25.45 49.0 26.1 L48.95 26.5 48.45 27.15 48.35 27.25 48.1 26.8 48.05 26.0 48.1 25.85 48.1 25.8 48.1 25.7 48.2 25.45 48.35 25.15 M59.95 39.35 L58.95 39.25 Q58.35 39.1 58.2 38.5 57.35 37.1 58.25 35.65 L58.3 35.6 58.25 35.6 58.1 35.6 57.6 35.9 56.45 36.1 54.9 36.2 54.6 36.1 Q54.9 35.65 55.5 35.65 55.65 35.25 56.0 35.15 L56.75 34.95 57.0 34.8 Q57.45 34.5 57.9 34.45 L58.1 34.5 58.45 34.35 Q60.05 34.4 60.75 35.15 L61.0 35.5 61.35 37.4 60.9 38.5 60.85 38.6 60.8 38.65 60.45 39.0 59.95 39.35 M41.9 27.85 L42.8 28.45 42.95 28.55 43.0 28.65 43.3 29.1 43.05 29.0 41.95 28.55 Q41.6 29.1 41.1 28.85 L40.8 28.6 Q40.6 28.2 40.3 28.25 L40.05 28.25 40.2 28.65 40.05 29.75 Q39.45 30.3 38.65 30.15 L38.65 30.2 37.85 29.65 37.8 29.55 37.75 29.4 37.6 28.85 37.6 28.7 Q37.6 28.05 38.15 27.6 L38.45 27.55 38.5 27.5 38.55 27.35 38.85 27.3 39.05 27.3 39.15 27.3 40.2 27.3 40.3 27.3 41.15 27.5 41.2 27.55 41.25 27.5 41.9 27.85 M42.05 40.1 L41.8 40.1 41.55 40.1 40.45 39.95 40.5 40.3 40.6 40.65 40.4 41.15 Q39.85 41.3 39.5 40.85 L39.1 40.4 38.3 40.3 38.0 40.3 37.45 40.1 38.3 40.65 38.55 41.7 38.35 42.6 38.3 42.7 37.7 43.45 36.6 43.8 35.5 43.15 35.35 43.0 35.25 42.45 Q35.55 40.8 36.7 40.05 37.35 39.6 38.3 39.5 L38.4 39.45 38.65 39.55 40.45 39.3 40.55 39.25 41.4 39.3 42.0 40.0 42.05 40.05 42.05 40.1 M44.45 48.6 Q44.8 47.8 45.7 47.5 L45.9 47.5 Q46.35 47.15 46.9 47.0 L47.7 47.2 47.95 47.35 47.05 47.6 46.95 47.8 Q47.0 48.25 46.55 48.35 L45.85 48.4 45.15 48.6 Q46.05 48.8 46.15 49.95 46.2 50.85 45.5 51.45 L44.9 51.8 44.85 51.8 44.7 51.7 44.6 51.65 44.15 51.3 43.9 50.85 43.75 50.05 43.75 49.8 Q43.85 49.2 44.4 48.75 L44.45 48.6 M54.95 46.7 L54.95 46.75 Q55.25 47.25 55.95 47.4 L56.4 48.2 56.35 49.25 Q56.05 50.35 54.85 50.35 L54.4 50.3 54.35 50.35 54.3 49.95 Q54.35 48.5 55.4 47.6 L54.45 47.55 54.25 47.55 52.45 47.2 Q52.65 47.0 53.0 46.95 L53.05 46.9 53.6 46.8 53.9 46.75 54.6 46.6 54.85 46.7 54.95 46.7 M52.15 58.75 L52.2 58.9 52.35 59.15 52.25 59.25 52.15 59.75 Q51.45 59.35 50.65 59.35 L50.4 59.35 49.2 60.25 48.95 60.45 48.85 60.55 48.85 60.2 48.9 59.9 48.85 59.8 48.75 59.35 49.05 58.8 49.3 58.45 49.95 57.55 50.3 57.45 50.5 57.45 50.75 57.5 50.95 57.5 Q51.95 57.7 52.15 58.75 M50.5 66.5 L51.3 66.65 51.3 66.7 51.45 66.75 51.55 66.8 51.6 66.9 51.75 67.1 51.8 67.15 52.1 67.9 52.2 68.25 52.25 68.7 Q51.3 68.0 50.05 68.3 L49.9 68.4 49.05 69.0 49.1 68.6 49.45 67.55 49.6 67.25 49.7 67.05 49.75 67.05 Q49.95 66.65 50.3 66.55 L50.5 66.5" fill="#cccccc" fill-rule="evenodd" stroke="none"/>
    <path d="M39.4 26.6 L39.45 26.55 39.45 26.6 39.4 26.6 M51.5 25.45 L51.45 25.35 51.5 25.35 51.5 25.45 M58.25 35.65 L58.25 35.6 58.3 35.6 58.25 35.65 M42.0 40.0 L42.05 40.05 42.0 40.0 M37.8 44.15 L37.75 44.1 38.0 44.1 37.8 44.15 M42.05 40.1 L42.05 40.05 42.05 40.1 M49.2 70.1 L49.2 70.0 49.35 70.2 49.2 70.1" fill="#666666" fill-rule="evenodd" stroke="none"/>
    <path d="M54.1 23.6 L54.0 23.35 53.95 23.35 54.0 23.25 54.1 23.6 M43.75 19.75 L42.1 20.1 41.7 20.35 41.6 20.35 41.6 20.4 40.7 20.8 40.5 20.9 40.6 20.85 40.7 20.75 41.65 20.2 Q42.65 19.65 43.75 19.75 M79.95 32.7 L78.65 32.6 78.15 32.85 76.3 34.5 76.1 34.85 75.25 34.0 75.0 33.95 75.0 33.85 73.95 33.9 73.55 33.8 70.05 33.3 69.7 33.15 69.05 32.7 68.85 32.75 68.3 32.85 68.1 32.8 Q67.75 32.6 67.4 32.55 L67.0 32.1 66.85 31.75 66.15 30.55 65.5 29.85 65.5 29.75 Q64.8 27.85 62.75 28.0 L60.65 28.65 60.5 28.7 60.1 28.75 59.15 29.0 58.6 29.2 58.05 28.9 57.7 28.75 56.8 28.1 56.0 27.65 56.1 26.2 56.55 26.4 60.65 26.85 Q64.5 27.25 68.3 28.15 L68.85 28.3 70.1 28.7 70.1 28.9 71.7 29.45 72.8 29.75 74.1 30.1 75.0 30.25 75.0 30.55 75.3 30.6 Q77.6 30.8 79.4 32.2 L79.95 32.7 M43.9 55.45 L45.2 56.3 Q45.6 58.1 46.5 59.8 48.05 62.8 49.05 66.0 L49.35 66.65 49.25 66.8 Q48.65 67.8 48.65 68.95 48.65 69.45 48.95 69.85 L49.2 70.1 49.35 70.2 49.2 70.0 Q49.7 70.65 50.65 70.4 L50.8 70.5 51.7 70.55 52.1 69.95 52.2 69.45 52.15 69.9 Q52.55 69.3 52.5 68.5 L52.3 67.05 52.15 66.65 53.35 66.45 Q54.45 65.15 54.45 63.5 L54.2 61.8 55.15 61.1 55.8 60.45 57.45 58.15 58.05 56.8 Q58.75 54.25 60.05 51.95 L60.55 51.2 62.95 48.15 Q63.65 47.15 63.75 45.95 63.95 43.95 65.25 42.55 L66.55 42.8 66.95 43.45 66.9 43.6 66.95 47.7 67.0 48.75 66.85 50.9 Q66.5 53.6 65.15 56.1 L64.55 57.05 Q63.4 58.8 63.2 60.75 L63.15 60.8 63.1 61.45 63.1 61.8 Q63.1 62.1 63.25 62.3 L64.25 63.7 64.7 64.35 64.8 64.5 64.75 64.8 64.65 65.2 Q64.1 68.6 64.55 72.0 L64.65 72.75 64.6 73.0 Q63.95 76.5 60.3 77.2 59.65 77.3 59.4 77.75 58.45 76.5 56.85 75.8 56.3 75.55 55.7 75.4 L47.95 75.2 46.1 75.35 44.0 74.95 43.2 74.65 41.95 74.05 40.45 73.05 39.75 71.2 39.7 71.1 39.65 70.95 Q39.4 69.85 38.2 69.9 L38.05 70.05 37.9 70.3 37.9 73.35 37.75 73.55 37.55 73.9 37.25 74.6 35.1 75.35 34.85 75.45 Q33.6 75.5 32.95 76.45 32.05 77.25 30.95 77.15 29.2 77.0 27.85 75.95 L27.5 75.5 27.45 75.45 26.6 74.35 26.5 74.85 26.6 74.3 26.7 74.15 Q26.9 72.8 27.5 71.6 27.9 70.6 28.75 69.95 L29.85 69.1 32.25 67.4 Q33.2 66.8 34.25 66.3 L34.8 66.0 36.0 65.4 36.3 65.2 36.4 65.15 36.5 65.15 37.45 64.6 37.5 64.6 37.75 64.5 37.9 64.4 37.9 64.75 38.5 64.9 38.5 65.0 Q38.7 65.75 39.2 66.35 L39.65 67.1 Q40.0 68.1 40.9 68.6 L41.9 68.55 Q42.6 68.15 42.55 67.25 L42.75 66.6 Q43.3 65.75 42.85 65.1 43.2 64.45 42.6 63.75 L41.75 62.45 41.35 61.05 40.85 59.8 38.85 57.6 38.9 57.5 38.9 56.95 38.7 56.3 38.65 56.15 38.5 55.65 38.5 55.55 38.4 55.05 38.4 54.85 40.2 53.7 39.9 53.55 40.2 53.7 42.6 54.7 43.9 55.45 M51.1 77.95 L51.65 78.15 51.65 78.2 51.1 77.95 M83.0 51.6 L83.15 51.3 Q83.6 50.85 84.25 50.75 L85.1 51.0 85.3 51.35 85.25 51.65 84.35 51.55 83.9 51.7 83.8 51.7 83.35 52.35 83.3 52.3 83.1 51.75 83.0 51.6 M88.2 61.35 L87.8 61.5 Q86.75 61.3 87.05 60.25 87.55 58.55 89.25 58.2 90.3 58.0 90.8 58.8 L90.85 59.35 90.5 59.95 90.05 59.55 89.5 59.2 89.45 59.2 89.4 59.15 89.35 59.15 89.25 59.1 88.9 59.2 88.7 59.35 88.4 59.1 88.15 59.15 88.05 59.2 Q87.55 59.8 87.85 60.55 L87.95 60.8 88.2 61.35 M90.2 54.35 L90.05 54.5 Q89.45 54.7 89.3 54.15 L89.25 53.7 Q89.15 52.3 90.4 51.7 91.1 51.6 91.1 52.25 L91.0 52.45 90.75 52.7 90.65 52.7 90.2 53.2 Q90.05 53.8 90.2 54.35 M88.0 42.95 L88.25 43.3 88.9 44.5 89.25 45.2 89.5 45.65 88.45 47.4 Q87.35 47.1 86.35 46.45 85.9 45.6 84.95 45.4 83.65 44.3 81.9 44.1 80.1 43.95 78.95 42.85 L78.05 41.6 77.7 40.65 77.45 39.85 77.5 39.85 78.4 39.3 78.85 38.85 79.4 38.6 Q79.95 38.15 80.6 38.1 L80.65 38.1 80.75 38.2 81.05 38.4 81.1 38.45 Q83.45 38.8 85.5 40.1 L86.5 40.8 87.2 41.8 87.15 41.45 87.35 42.15 Q87.5 42.75 88.0 42.95 M86.1 55.4 L85.9 54.95 Q85.9 54.1 86.6 53.6 86.95 53.3 87.4 53.3 88.05 53.3 87.9 53.9 L87.75 54.15 87.45 54.1 87.3 54.1 Q86.35 54.25 86.1 55.3 L86.1 55.4 M40.2 23.3 L40.2 23.25 39.85 23.2 39.75 23.1 39.65 23.05 39.8 22.85 39.8 22.8 40.05 22.45 40.85 21.25 40.95 21.15 41.4 21.0 43.7 20.0 44.9 20.15 46.1 20.25 Q45.9 21.4 44.6 21.9 L42.0 22.9 41.35 23.1 40.4 23.3 40.2 23.3 M47.7 22.4 L47.95 22.35 48.4 22.7 49.0 22.8 48.5 22.75 49.0 23.15 49.3 23.3 49.55 23.5 49.4 23.4 Q48.6 23.8 48.0 24.4 L47.85 24.6 47.8 24.8 47.75 24.9 47.8 24.95 Q45.9 24.35 44.05 24.95 L44.0 24.95 Q43.05 25.25 42.55 26.1 L42.3 26.45 42.1 26.85 42.0 27.1 41.95 27.3 41.95 27.25 41.45 27.1 39.2 26.85 39.1 26.85 39.2 26.75 39.25 26.65 39.4 26.6 39.45 26.6 39.45 26.55 39.9 26.25 Q40.85 25.55 41.9 25.0 L42.45 24.75 42.8 24.55 Q44.25 23.8 45.75 23.1 L47.15 22.6 47.7 22.4 M36.2 28.15 L36.35 28.4 36.3 28.6 36.2 28.15 M37.65 31.25 L38.4 30.55 38.45 30.5 38.85 30.7 39.55 30.75 41.1 31.15 41.5 31.15 41.75 31.1 41.75 31.6 41.2 31.75 41.1 31.85 40.9 32.05 40.15 32.8 39.9 33.15 39.1 33.1 39.0 33.1 38.4 33.0 38.25 33.0 38.2 33.55 37.9 33.95 37.8 34.15 37.85 34.6 37.85 34.85 37.95 35.45 38.0 35.65 36.4 36.2 36.25 36.4 35.9 36.85 35.5 36.8 35.35 36.85 33.85 36.75 33.25 36.6 33.2 36.55 31.8 36.3 Q32.5 35.2 33.45 34.35 L33.55 34.25 35.85 33.6 36.1 33.5 36.65 33.45 36.7 33.45 36.7 33.5 36.9 33.4 37.35 33.3 37.7 33.45 37.7 33.25 37.75 33.0 37.8 33.0 37.85 32.7 38.05 31.75 37.65 31.25 M41.65 32.8 L41.7 32.8 41.6 32.8 41.65 32.8 M42.15 32.65 L42.7 32.5 42.15 32.65 M55.9 37.4 L55.85 37.35 55.9 37.35 55.9 37.4 M57.0 49.3 L57.05 49.35 57.0 49.45 57.0 49.3 M56.3 50.55 L56.15 50.8 56.05 50.7 56.3 50.55 M21.75 47.75 L21.65 47.4 21.45 46.05 Q21.4 45.3 21.5 44.6 L21.5 44.4 21.5 44.25 21.5 44.0 21.55 44.0 21.65 43.3 22.45 41.3 22.8 40.65 24.7 39.75 26.1 39.15 27.6 38.5 28.55 38.1 30.15 37.35 30.4 37.2 31.05 37.1 30.65 37.25 30.45 37.85 30.45 38.35 30.25 38.8 30.15 39.4 30.15 39.45 30.35 40.0 31.45 41.85 31.85 43.0 Q31.65 43.55 31.6 44.05 L31.0 44.65 Q29.7 45.7 29.85 47.35 L29.1 47.75 28.1 48.3 28.7 48.35 22.8 47.85 21.75 47.75" fill="#999966" fill-rule="evenodd" stroke="none"/>
    <path d="M86.95 38.2 L87.0 38.3 86.95 38.35 87.0 38.6 86.9 38.2 86.95 38.2 M79.95 32.7 Q80.75 33.55 80.95 34.8 L81.05 35.05 Q82.75 36.4 84.7 37.5 L86.35 38.45 87.05 38.85 87.15 39.85 89.25 41.7 89.65 42.0 90.3 43.6 90.45 44.1 90.6 44.45 Q91.85 47.95 92.6 51.55 L92.8 52.8 92.2 52.65 91.45 52.55 91.45 52.6 91.25 52.65 91.15 52.7 91.1 52.8 90.75 52.7 91.0 52.45 91.1 52.25 Q91.1 51.6 90.4 51.7 89.15 52.3 89.25 53.7 L89.3 54.15 Q89.45 54.7 90.05 54.5 L90.2 54.35 90.55 55.15 91.35 55.65 91.65 55.75 Q92.2 55.9 92.4 55.5 L92.7 55.45 92.75 55.4 92.75 55.3 92.7 55.3 92.4 55.2 92.35 55.15 92.2 55.05 91.75 54.9 93.2 55.4 93.2 55.45 93.2 55.65 93.0 56.05 92.35 56.55 92.3 57.45 91.95 59.0 91.0 60.9 Q90.65 60.0 90.05 59.55 L90.5 59.95 90.85 59.35 90.8 58.8 Q90.3 58.0 89.25 58.2 87.55 58.55 87.05 60.25 86.75 61.3 87.8 61.5 L88.2 61.35 89.0 63.0 88.45 63.2 87.1 62.95 86.2 62.35 85.75 61.65 85.65 61.35 85.55 60.85 85.25 58.45 84.95 56.75 84.5 55.1 85.2 54.65 85.5 54.3 Q85.7 53.95 85.5 53.8 L85.6 53.7 85.8 53.2 Q86.1 51.95 85.25 51.65 L85.3 51.35 85.1 51.0 84.25 50.75 Q83.6 50.85 83.15 51.3 L83.0 51.6 82.3 49.8 81.85 48.7 82.1 49.35 81.5 48.95 81.25 48.55 Q79.95 46.75 78.35 45.25 L77.9 44.8 76.9 44.05 76.55 43.6 Q74.75 42.25 72.6 41.85 L72.5 41.9 72.05 42.0 Q70.65 42.55 69.75 43.75 L69.2 44.35 Q68.4 45.25 69.25 45.95 L69.75 47.35 69.4 50.75 69.25 50.9 69.3 51.0 69.35 51.1 Q69.05 54.1 68.9 57.15 L68.9 58.05 68.85 58.15 Q68.05 60.5 67.8 63.1 L67.65 63.45 67.0 65.0 66.95 65.05 66.9 65.15 66.25 66.35 66.2 66.45 66.6 67.05 66.85 66.75 Q66.85 67.3 67.55 67.7 L67.9 67.95 Q68.35 68.5 69.0 68.7 L70.3 69.95 69.85 69.1 71.3 71.8 71.4 71.95 72.85 74.95 73.5 76.85 Q74.1 79.4 73.55 81.8 L73.05 83.45 71.55 83.8 70.1 83.9 70.0 83.85 68.1 82.9 63.5 80.85 63.45 80.8 Q61.7 79.35 59.35 79.4 L59.15 79.05 58.15 78.95 58.05 78.95 57.75 78.9 57.4 78.85 55.65 78.65 52.8 78.65 51.65 78.2 51.65 78.15 51.1 77.95 51.05 77.95 Q47.4 76.6 43.5 75.85 L42.8 75.7 41.6 75.35 40.5 74.75 39.55 74.1 39.7 75.5 40.15 75.75 40.25 75.8 39.95 76.05 39.8 76.15 39.75 76.15 39.7 76.15 39.6 75.95 39.2 76.05 37.95 76.45 37.9 76.4 37.75 76.45 Q36.25 76.55 35.0 77.3 L34.85 77.5 32.8 77.95 31.5 78.0 30.8 78.05 Q30.45 78.15 30.6 78.55 L30.65 78.65 30.55 78.6 Q28.55 77.7 27.6 75.7 L27.5 75.5 27.85 75.95 Q29.2 77.0 30.95 77.15 32.05 77.25 32.95 76.45 33.6 75.5 34.85 75.45 L35.1 75.35 37.25 74.6 37.55 73.9 37.75 73.55 37.9 73.35 37.9 70.3 38.05 70.05 38.2 69.9 Q39.4 69.85 39.65 70.95 L39.7 71.1 39.75 71.2 40.45 73.05 41.95 74.05 43.2 74.65 44.0 74.95 46.1 75.35 47.95 75.2 55.7 75.4 Q56.3 75.55 56.85 75.8 58.45 76.5 59.4 77.75 59.65 77.3 60.3 77.2 63.95 76.5 64.6 73.0 L64.65 72.75 64.55 72.0 Q64.1 68.6 64.65 65.2 L64.75 64.8 64.8 64.5 64.7 64.35 64.25 63.7 63.25 62.3 Q63.1 62.1 63.1 61.8 L63.1 61.45 63.15 60.8 63.2 60.75 Q63.4 58.8 64.55 57.05 L65.15 56.1 Q66.5 53.6 66.85 50.9 L67.0 48.75 66.95 47.7 66.9 43.6 66.95 43.45 66.55 42.8 65.25 42.55 Q63.95 43.95 63.75 45.95 63.65 47.15 62.95 48.15 L60.55 51.2 60.05 51.95 Q58.75 54.25 58.05 56.8 L57.45 58.15 55.8 60.45 55.15 61.1 54.2 61.8 54.45 63.5 Q54.45 65.15 53.35 66.45 L52.15 66.65 51.95 66.65 Q51.4 65.95 50.35 66.0 49.8 66.1 49.35 66.65 L49.05 66.0 Q48.05 62.8 46.5 59.8 45.6 58.1 45.2 56.3 L43.9 55.45 44.7 55.35 46.35 55.1 46.75 55.55 47.95 57.2 47.95 57.25 Q47.4 58.6 47.75 60.0 48.1 61.35 48.95 62.45 L49.45 62.75 49.9 62.7 Q50.35 63.3 51.2 62.9 53.4 61.95 54.25 59.75 55.6 58.9 55.8 57.25 55.85 56.8 56.15 56.45 L57.2 54.85 57.25 54.8 57.55 54.2 Q58.15 53.3 58.95 52.55 L59.55 51.9 62.0 48.05 Q63.35 45.4 64.3 42.6 L64.65 41.55 64.75 41.05 65.05 40.6 66.65 37.4 66.95 36.75 Q67.8 34.7 67.4 32.55 67.75 32.6 68.1 32.8 L68.3 32.85 68.85 32.75 69.05 32.7 69.7 33.15 70.05 33.3 73.55 33.8 73.95 33.9 75.0 33.85 75.0 33.95 75.25 34.0 76.1 34.85 76.3 34.5 78.15 32.85 78.65 32.6 79.95 32.7 M88.0 42.95 Q87.5 42.75 87.35 42.15 L87.15 41.45 87.2 41.8 86.5 40.8 85.5 40.1 Q83.45 38.8 81.1 38.45 L81.05 38.4 80.75 38.2 80.65 38.1 80.6 38.1 Q79.95 38.15 79.4 38.6 L78.85 38.85 78.4 39.3 77.5 39.85 77.45 39.85 77.7 40.65 78.05 41.6 78.95 42.85 Q80.1 43.95 81.9 44.1 83.65 44.3 84.95 45.4 85.9 45.6 86.35 46.45 87.35 47.1 88.45 47.4 L89.5 45.65 89.25 45.2 88.9 44.5 88.25 43.3 88.0 42.95 M85.8 47.9 Q85.4 48.3 85.7 48.7 86.3 49.55 87.55 49.4 L88.05 48.95 Q88.35 47.55 86.6 47.65 L86.05 47.65 85.8 47.9 M87.75 54.15 L87.9 53.9 Q88.05 53.3 87.4 53.3 86.95 53.3 86.6 53.6 85.9 54.1 85.9 54.95 L86.1 55.4 85.8 56.55 85.8 56.65 Q85.3 57.45 85.6 58.2 L85.95 58.75 86.55 58.75 87.55 57.85 88.15 57.0 88.5 56.25 88.5 56.3 88.9 55.5 88.85 55.2 Q88.55 54.35 87.75 54.15 M83.3 52.3 L83.35 52.35 83.35 52.4 83.3 52.3 M46.1 20.25 L46.35 20.3 46.5 20.3 46.7 20.3 47.0 20.35 46.95 20.85 Q46.95 21.55 47.4 22.2 L47.7 22.4 47.15 22.6 45.75 23.1 Q44.25 23.8 42.8 24.55 L42.45 24.75 41.9 25.0 Q40.85 25.55 39.9 26.25 L39.45 26.55 39.4 26.6 39.25 26.65 39.2 26.75 38.5 26.9 Q38.35 26.9 38.25 27.05 L37.95 27.25 Q37.25 27.85 37.2 28.75 37.15 30.05 38.4 30.55 L37.65 31.25 36.7 29.5 36.3 28.65 36.3 28.6 36.35 28.4 36.2 28.15 36.2 27.85 36.25 27.65 36.35 27.3 36.35 27.25 36.4 27.2 36.5 27.0 37.3 25.95 37.8 25.45 38.15 25.8 38.3 25.95 Q38.5 26.25 38.9 26.25 L39.85 26.1 40.2 25.65 40.25 25.6 40.3 25.55 40.35 25.5 40.45 25.45 40.5 25.4 40.65 24.4 40.4 23.6 40.2 23.3 40.4 23.3 41.35 23.1 42.0 22.9 44.6 21.9 Q45.9 21.4 46.1 20.25 M50.55 20.35 L50.7 20.4 51.6 20.8 52.45 21.2 52.9 21.65 53.25 22.9 53.25 23.35 Q53.05 23.7 53.45 24.25 L53.95 24.85 Q54.8 25.8 55.9 26.2 L55.9 26.25 56.0 26.2 55.95 26.25 56.05 26.3 56.1 26.2 56.0 27.65 56.8 28.1 57.7 28.75 58.05 28.9 58.6 29.2 59.15 29.0 60.1 28.75 60.5 28.7 60.65 28.65 62.75 28.0 Q64.8 27.85 65.5 29.75 L65.5 29.85 66.15 30.55 64.35 30.25 64.05 30.45 58.2 29.8 58.2 29.95 57.15 29.3 56.35 28.8 53.8 27.3 53.4 27.0 53.15 26.85 53.4 26.95 53.2 26.75 Q52.9 26.25 52.35 26.2 L52.6 26.45 52.05 25.8 52.05 25.6 52.05 25.65 52.15 25.7 52.2 25.7 52.25 25.5 52.25 25.05 Q52.3 24.05 51.6 23.45 50.75 22.7 49.7 23.05 L49.3 23.3 49.0 23.15 48.5 22.75 49.0 22.8 49.5 22.75 49.65 22.65 50.0 22.45 50.25 21.9 50.3 21.15 50.3 21.1 50.55 20.35 M40.9 32.05 L40.7 32.8 40.7 32.9 40.65 33.1 40.75 33.05 40.45 34.05 40.35 34.15 Q40.0 34.65 39.8 35.2 L38.85 36.25 38.45 36.5 38.3 36.6 37.1 37.15 Q35.75 37.65 34.5 38.45 L33.35 39.45 Q32.65 40.2 32.3 41.2 L32.05 42.0 31.9 43.05 31.95 45.0 Q32.0 45.4 32.2 45.6 32.05 46.3 32.35 47.0 32.9 48.3 34.1 48.9 L34.45 49.1 Q36.3 49.5 37.85 50.55 L38.3 50.85 40.9 52.95 42.6 54.7 40.2 53.7 39.9 53.55 40.2 53.7 38.4 54.85 38.4 55.05 38.5 55.55 38.5 55.65 38.65 56.15 38.7 56.3 38.9 56.95 38.9 57.5 38.85 57.6 40.85 59.8 41.35 61.05 41.75 62.45 42.6 63.75 Q43.2 64.45 42.85 65.1 43.3 65.75 42.75 66.6 L42.55 67.25 Q42.6 68.15 41.9 68.55 L40.9 68.6 Q40.0 68.1 39.65 67.1 L39.2 66.35 Q38.7 65.75 38.5 65.0 L38.5 64.9 38.55 64.9 38.75 64.95 38.8 64.95 38.7 64.85 38.6 63.8 38.6 63.7 38.65 62.45 38.7 61.85 38.1 61.3 36.3 59.2 Q36.2 57.85 35.6 56.8 L34.8 55.6 34.75 55.5 34.35 55.05 33.6 54.25 33.55 54.2 33.35 53.65 33.0 53.7 30.8 52.1 Q25.75 51.95 22.25 49.05 L22.05 48.6 21.8 47.9 21.75 47.75 22.8 47.85 28.7 48.35 28.1 48.3 29.1 47.75 29.85 47.35 Q29.7 45.7 31.0 44.65 L31.6 44.05 Q31.65 43.55 31.85 43.0 L31.45 41.85 30.35 40.0 30.15 39.45 30.15 39.4 30.25 38.8 30.45 38.35 30.45 37.85 30.65 37.25 31.05 37.1 31.4 36.8 31.5 36.75 31.55 36.65 31.55 36.6 31.6 36.55 31.75 36.3 31.8 36.3 33.2 36.55 33.25 36.6 33.85 36.75 35.35 36.85 35.5 36.8 35.9 36.85 36.25 36.4 36.4 36.2 38.0 35.65 37.95 35.45 37.85 34.85 37.85 34.6 37.8 34.15 37.9 33.95 38.2 33.55 38.25 33.0 38.4 33.0 39.0 33.1 39.1 33.1 39.9 33.15 40.15 32.8 40.9 32.05 M69.65 86.35 L69.7 86.35 69.65 86.35" fill="#666633" fill-rule="evenodd" stroke="none"/>
    <path d="M47.95 22.35 L47.95 22.3 47.75 21.8 47.7 21.65 47.8 20.55 48.0 20.0 48.3 19.5 48.4 19.35 49.75 18.3 51.25 17.2 51.55 17.7 51.45 17.95 51.15 18.9 51.1 19.0 51.05 19.25 50.7 19.85 50.6 20.25 50.55 20.35 50.3 21.1 50.3 21.15 50.25 21.9 50.0 22.45 49.65 22.65 49.5 22.75 49.0 22.8 48.4 22.7 47.95 22.35 M40.2 25.65 L39.85 26.1 38.9 26.25 Q38.5 26.25 38.3 25.95 L38.15 25.8 37.8 25.45 37.65 25.35 37.3 25.1 37.3 25.0 37.05 24.6 36.1 23.65 35.55 23.2 34.85 22.75 34.95 22.3 35.55 22.35 35.95 22.4 36.45 22.45 38.55 22.65 38.75 22.75 39.5 23.4 39.75 23.75 39.85 23.9 40.1 24.5 40.2 24.9 40.25 25.25 40.2 25.65" fill="#ffffcc" fill-rule="evenodd" stroke="none"/>
    <path d="M49.35 66.65 Q49.8 66.1 50.35 66.0 51.4 65.95 51.95 66.65 L52.15 66.65 52.3 67.05 52.5 68.5 Q52.55 69.3 52.15 69.9 L52.2 69.45 52.1 69.95 51.7 70.55 50.8 70.5 50.65 70.4 Q49.7 70.65 49.2 70.0 L49.2 70.1 48.95 69.85 Q48.65 69.45 48.65 68.95 48.65 67.8 49.25 66.8 L49.35 66.65 M38.4 30.55 Q37.15 30.05 37.2 28.75 37.25 27.85 37.95 27.25 L38.25 27.05 Q38.35 26.9 38.5 26.9 L39.2 26.75 39.1 26.85 39.2 26.85 41.45 27.1 41.95 27.25 41.95 27.3 41.95 27.35 41.95 27.45 Q41.85 27.65 41.9 27.85 L41.25 27.5 41.2 27.55 41.15 27.5 40.3 27.3 40.2 27.3 39.15 27.3 39.05 27.3 38.85 27.3 38.55 27.35 38.5 27.5 38.45 27.55 38.15 27.6 Q37.6 28.05 37.6 28.7 L37.6 28.85 37.75 29.4 37.8 29.55 37.85 29.65 38.65 30.2 38.65 30.15 Q39.45 30.3 40.05 29.75 L40.2 28.65 40.05 28.25 40.3 28.25 Q40.6 28.2 40.8 28.6 L41.1 28.85 Q41.6 29.1 41.95 28.55 L43.05 29.0 43.3 29.1 43.0 28.65 42.95 28.55 42.8 28.45 42.9 28.4 42.95 28.25 43.1 28.45 43.35 28.7 43.4 28.75 43.45 29.1 43.45 29.15 43.3 29.2 43.25 29.7 43.2 29.8 42.7 30.65 42.25 30.95 41.75 31.1 41.5 31.15 41.1 31.15 39.55 30.75 38.85 30.7 38.45 30.5 38.4 30.55 M49.3 23.3 L49.7 23.05 Q50.75 22.7 51.6 23.45 52.3 24.05 52.25 25.05 L52.25 25.5 52.2 25.7 52.15 25.7 52.05 25.65 52.05 25.6 Q51.75 25.4 51.5 25.35 L51.5 25.25 Q51.65 24.35 51.3 23.85 L51.05 23.6 Q50.7 23.3 50.05 23.3 L49.7 23.55 49.45 23.7 48.9 24.25 48.35 25.15 47.95 25.0 47.9 25.0 47.8 24.95 47.75 24.9 47.8 24.8 47.85 24.6 48.0 24.4 Q48.6 23.8 49.4 23.4 L49.55 23.5 49.3 23.3 M51.2 26.25 L51.0 26.65 50.45 27.35 Q49.4 28.35 48.7 27.7 L48.6 27.7 48.25 27.55 Q47.45 27.15 47.45 26.15 L47.45 25.85 47.6 25.8 47.65 25.8 48.05 25.75 48.1 25.7 48.1 25.8 48.1 25.85 48.05 26.0 48.1 26.8 48.35 27.25 48.45 27.15 48.95 26.5 49.0 26.1 Q48.95 25.45 49.15 24.9 49.85 26.1 51.35 25.45 L51.45 25.35 51.5 25.45 51.2 26.25 M43.3 49.45 Q43.45 48.55 44.15 47.8 L44.6 47.3 45.3 47.1 46.4 46.7 47.8 46.95 47.7 47.15 47.9 46.8 48.3 47.25 Q49.0 48.6 48.4 50.05 L47.9 50.75 47.45 51.05 45.95 51.4 45.9 51.55 45.85 51.55 45.45 51.85 45.3 51.85 44.2 51.75 Q43.25 51.3 43.2 50.25 L43.2 50.0 43.3 49.5 43.55 49.65 43.3 49.45 M52.4 46.8 L52.75 46.8 Q53.6 46.2 54.6 46.05 55.45 46.15 56.1 46.55 L56.05 46.55 56.15 46.7 56.35 47.1 56.75 47.5 Q57.2 48.1 57.0 49.3 L57.0 49.45 Q56.85 50.1 56.3 50.55 L56.05 50.7 55.1 51.1 54.1 51.0 53.7 50.6 53.3 50.35 52.55 49.4 51.95 48.6 Q51.8 48.0 52.0 47.45 L52.4 46.8 M53.0 59.6 L52.75 59.45 52.6 59.5 52.55 59.7 52.55 59.6 52.6 60.6 52.45 61.1 52.1 61.5 52.05 61.6 50.8 62.2 50.5 62.25 50.35 62.2 50.1 62.15 49.6 61.85 49.1 61.55 48.8 61.2 48.55 60.9 48.45 60.55 48.4 60.3 Q48.2 59.4 48.5 58.55 L48.6 58.85 48.55 58.6 48.8 57.75 48.95 57.55 Q49.15 57.15 49.5 56.9 49.7 56.7 49.95 56.75 51.65 56.85 52.65 58.2 L52.8 58.45 53.0 59.6 M59.95 39.35 L57.2 39.45 Q55.75 39.55 54.7 38.6 54.05 38.05 54.2 37.25 54.1 36.9 54.3 36.5 L54.4 36.35 Q54.35 35.65 54.95 35.3 L55.7 34.8 Q56.85 33.85 58.4 33.9 59.95 33.8 61.05 34.9 61.9 35.7 61.8 36.95 61.6 38.35 60.55 39.2 L60.3 39.25 60.05 39.3 60.45 39.0 60.8 38.65 60.85 38.6 60.9 38.5 61.35 37.4 61.0 35.5 60.75 35.15 Q60.05 34.4 58.45 34.35 L58.1 34.5 57.9 34.45 Q57.45 34.5 57.0 34.8 L56.75 34.95 56.0 35.15 Q55.65 35.25 55.5 35.65 54.9 35.65 54.6 36.1 L54.9 36.2 56.45 36.1 57.6 35.9 58.1 35.6 58.25 35.6 58.25 35.65 Q57.35 37.1 58.2 38.5 58.35 39.1 58.95 39.25 L59.95 39.35 M42.0 40.0 L41.4 39.3 40.55 39.25 40.45 39.3 38.65 39.55 38.4 39.45 38.3 39.5 Q37.35 39.6 36.7 40.05 35.55 40.8 35.25 42.45 L35.35 43.0 35.5 43.15 36.6 43.8 37.7 43.45 38.3 42.7 38.35 42.6 38.55 41.7 38.3 40.65 37.45 40.1 38.0 40.3 38.3 40.3 39.1 40.4 39.5 40.85 Q39.85 41.3 40.4 41.15 L40.6 40.65 40.5 40.3 40.45 39.95 41.55 40.1 41.8 40.1 42.05 40.1 42.2 40.65 Q42.35 41.55 41.85 42.25 41.35 42.9 40.75 42.8 L40.4 43.4 40.3 43.5 40.0 43.65 38.3 44.1 37.75 44.1 37.8 44.15 36.6 44.15 Q35.25 43.85 34.8 42.5 34.6 42.0 34.8 41.45 35.25 39.85 36.85 39.3 L37.65 39.15 38.3 39.15 41.0 38.9 Q42.2 38.9 42.05 40.05 L42.0 40.0 M44.45 48.6 L44.4 48.75 Q43.85 49.2 43.75 49.8 L43.75 50.05 43.9 50.85 44.15 51.3 44.6 51.65 44.7 51.7 44.85 51.8 44.9 51.8 45.5 51.45 Q46.2 50.85 46.15 49.95 46.05 48.8 45.15 48.6 L45.85 48.4 46.55 48.35 Q47.0 48.25 46.95 47.8 L47.05 47.6 47.95 47.35 47.7 47.2 46.9 47.0 Q46.35 47.15 45.9 47.5 L45.7 47.5 Q44.8 47.8 44.45 48.6 M55.9 37.4 L55.9 37.35 55.85 37.35 55.9 37.4 M53.6 46.8 L53.05 46.9 53.0 46.95 Q52.65 47.0 52.45 47.2 L54.25 47.55 54.45 47.55 55.4 47.6 Q54.35 48.5 54.3 49.95 L54.35 50.35 54.4 50.3 54.85 50.35 Q56.05 50.35 56.35 49.25 L56.4 48.2 55.95 47.4 Q55.25 47.25 54.95 46.75 L54.95 46.7 54.9 46.7 55.0 46.65 54.85 46.7 54.6 46.6 53.9 46.75 53.95 46.75 53.65 46.75 53.6 46.8 M50.5 66.5 L50.3 66.55 Q49.95 66.65 49.75 67.05 L49.7 67.05 49.6 67.25 49.45 67.55 49.1 68.6 49.05 69.0 49.9 68.4 50.05 68.3 Q51.3 68.0 52.25 68.7 L52.2 68.25 52.1 67.9 51.8 67.15 51.75 67.1 51.6 66.9 51.55 66.8 51.45 66.75 51.3 66.7 51.3 66.65 50.5 66.5 M52.15 58.75 Q51.95 57.7 50.95 57.5 L50.75 57.5 50.5 57.45 50.3 57.45 49.95 57.55 49.3 58.45 49.05 58.8 48.75 59.35 48.85 59.8 48.9 59.9 48.85 60.2 48.85 60.55 48.95 60.45 49.2 60.25 50.4 59.35 50.65 59.35 Q51.45 59.35 52.15 59.75 L52.25 59.25 52.35 59.15 52.2 58.9 52.15 58.75" fill="#333333" fill-rule="evenodd" stroke="none"/>
    <path d="M27.5 75.5 L27.6 75.7 Q28.55 77.7 30.55 78.6 L30.65 78.65 31.65 78.85 31.8 78.85 Q31.95 79.15 32.45 79.15 L32.65 79.15 33.2 79.2 32.9 80.15 32.75 80.2 Q32.75 81.85 32.2 83.3 L31.95 83.85 31.3 84.3 Q29.5 84.5 28.5 82.95 L28.35 82.7 28.3 82.7 28.3 82.65 28.05 82.35 Q26.7 81.0 25.95 79.35 L26.05 78.4 26.5 74.85 26.6 74.35 27.45 75.45 27.5 75.5 M70.1 83.9 L71.55 83.8 73.05 83.45 73.55 81.8 Q73.9 82.3 73.6 83.2 L72.8 85.1 Q72.1 86.45 70.9 87.25 L70.4 87.5 Q67.65 87.9 67.05 85.3 L66.55 83.0 69.2 83.7 69.65 83.8 69.85 83.85 69.9 83.85 70.1 83.9 M51.2 26.25 L51.7 26.55 51.75 26.6 51.95 26.7 52.05 26.85 52.4 27.2 53.7 28.25 55.55 29.4 57.25 30.55 57.4 30.65 58.2 31.0 58.2 31.05 58.85 31.15 62.5 31.15 63.0 31.1 63.85 30.85 64.1 30.7 Q65.25 30.15 65.95 31.1 L66.25 31.6 65.2 31.1 64.75 31.4 Q63.6 32.8 64.4 34.6 L64.0 35.2 63.75 35.8 Q63.15 37.15 63.25 38.6 60.55 41.55 59.55 45.4 L58.8 45.8 Q57.8 46.4 56.6 46.5 L56.1 46.55 Q55.45 46.15 54.6 46.05 53.6 46.2 52.75 46.8 L52.4 46.8 52.35 46.8 52.0 44.85 Q52.75 43.3 52.55 41.6 52.5 41.0 52.1 40.55 51.65 40.1 51.5 39.45 51.35 38.55 50.8 37.75 50.35 37.15 50.3 36.45 50.25 34.3 48.4 33.75 L48.35 33.75 48.25 33.8 48.1 33.9 48.05 34.05 47.95 35.15 Q47.75 37.3 47.9 39.5 47.65 40.0 47.75 40.5 48.05 42.7 48.85 44.75 L48.65 45.65 48.65 45.8 48.6 45.8 Q48.45 45.85 48.35 46.0 L47.9 46.8 47.7 47.15 47.8 46.95 46.4 46.7 45.3 47.1 44.6 47.3 44.15 47.8 Q43.45 48.55 43.3 49.45 42.25 48.85 41.05 48.75 L40.4 49.35 Q39.45 48.6 38.3 48.15 L37.8 48.0 Q36.3 46.3 33.9 45.8 34.2 44.6 33.9 43.45 33.65 42.55 33.1 41.95 33.65 40.75 34.35 39.65 L34.75 39.15 Q35.9 38.15 37.2 37.75 L37.75 37.7 38.3 37.75 39.45 37.5 40.55 35.2 40.75 34.85 40.95 34.55 41.05 34.15 41.15 33.95 41.65 32.9 41.7 32.8 41.65 32.8 41.7 32.1 41.7 31.8 41.7 32.0 41.95 31.95 42.15 31.65 42.25 30.95 42.7 30.65 43.2 29.8 43.25 29.7 43.3 29.2 43.45 29.15 43.45 29.1 43.4 28.75 43.35 28.7 43.1 28.45 42.95 28.25 42.95 28.2 42.9 28.2 42.8 28.1 42.75 28.1 42.5 27.95 Q42.4 27.55 42.55 27.2 42.7 26.5 43.45 26.0 L44.05 25.4 44.4 25.15 44.45 25.15 46.9 25.75 47.45 25.85 47.45 26.15 Q47.45 27.15 48.25 27.55 L48.6 27.7 48.7 27.7 Q49.4 28.35 50.45 27.35 L51.0 26.65 51.2 26.25 M60.45 39.0 L60.05 39.3 60.3 39.25 60.55 39.2 Q61.6 38.35 61.8 36.95 61.9 35.7 61.05 34.9 59.95 33.8 58.4 33.9 56.85 33.85 55.7 34.8 L54.95 35.3 Q54.35 35.65 54.4 36.35 L54.3 36.5 Q54.1 36.9 54.2 37.25 54.05 38.05 54.7 38.6 55.75 39.55 57.2 39.45 L59.95 39.35 60.45 39.0 M42.15 32.65 L42.7 32.5 42.15 32.65 M42.05 40.05 Q42.2 38.9 41.0 38.9 L38.3 39.15 37.65 39.15 36.85 39.3 Q35.25 39.85 34.8 41.45 34.6 42.0 34.8 42.5 35.25 43.85 36.6 44.15 L37.8 44.15 38.0 44.1 37.75 44.1 38.3 44.1 40.0 43.65 40.3 43.5 40.4 43.4 40.75 42.8 Q41.35 42.9 41.85 42.25 42.35 41.55 42.2 40.65 L42.05 40.1 42.05 40.05 M69.65 86.35 L69.7 86.35 69.65 86.35" fill="#c7af52" fill-rule="evenodd" stroke="none"/>
    <path d="M67.4 32.55 Q67.8 34.7 66.95 36.75 L66.65 37.4 65.05 40.6 64.75 41.05 64.65 41.55 64.3 42.6 Q63.35 45.4 62.0 48.05 L59.55 51.9 58.95 52.55 Q58.15 53.3 57.55 54.2 L57.25 54.8 57.2 54.85 56.15 56.45 Q55.85 56.8 55.8 57.25 55.6 58.9 54.25 59.75 53.4 61.95 51.2 62.9 50.35 63.3 49.9 62.7 L49.45 62.75 48.95 62.45 Q48.1 61.35 47.75 60.0 47.4 58.6 47.95 57.25 L47.95 57.2 46.75 55.55 46.35 55.1 44.7 55.35 43.9 55.45 42.6 54.7 40.9 52.95 38.3 50.85 37.85 50.55 Q36.3 49.5 34.45 49.1 L34.1 48.9 Q32.9 48.3 32.35 47.0 32.05 46.3 32.2 45.6 32.0 45.4 31.95 45.0 L31.9 43.05 32.05 42.0 32.3 41.2 Q32.65 40.2 33.35 39.45 L34.5 38.45 Q35.75 37.65 37.1 37.15 L38.3 36.6 38.45 36.5 38.85 36.25 39.8 35.2 Q40.0 34.65 40.35 34.15 L40.45 34.05 40.75 33.05 40.65 33.1 40.7 32.9 40.7 32.8 40.9 32.05 41.1 31.85 41.2 31.75 41.75 31.6 41.75 31.1 42.25 30.95 42.15 31.65 41.95 31.95 41.7 32.0 41.7 31.8 41.7 32.1 41.65 32.8 41.6 32.8 41.7 32.8 41.65 32.9 41.15 33.95 41.05 34.15 40.95 34.55 40.75 34.85 40.55 35.2 39.45 37.5 38.3 37.75 37.75 37.7 37.2 37.75 Q35.9 38.15 34.75 39.15 L34.35 39.65 Q33.65 40.75 33.1 41.95 L32.75 42.75 Q32.35 43.6 32.5 44.5 L32.65 45.35 32.65 45.4 32.85 46.15 Q34.1 49.05 37.2 48.8 L38.3 49.85 38.4 49.95 Q39.65 51.1 41.2 51.7 L42.95 54.2 Q43.3 54.7 43.85 54.8 45.25 55.15 46.05 53.8 L46.2 53.8 46.3 53.8 47.6 54.45 47.9 54.6 48.0 55.35 48.45 56.15 48.45 57.5 48.5 58.5 48.6 58.85 48.5 58.55 Q48.2 59.4 48.4 60.3 L48.45 60.55 48.55 60.9 48.8 61.2 49.1 61.55 49.6 61.85 50.1 62.15 50.35 62.2 50.5 62.25 50.8 62.2 52.05 61.6 52.1 61.5 52.45 61.1 52.6 60.6 52.55 59.6 52.55 59.7 52.6 59.5 52.75 59.45 53.0 59.6 54.2 59.5 54.35 59.3 Q54.75 58.85 54.65 58.3 L54.15 56.85 Q55.8 55.95 56.8 54.35 L60.8 48.1 61.0 47.65 62.55 43.25 63.35 41.5 63.95 40.35 64.5 39.35 Q64.95 38.5 65.65 37.9 66.35 37.25 66.5 36.6 66.65 35.85 66.1 35.05 L66.15 34.7 66.15 34.0 66.1 32.75 66.25 31.7 66.25 31.6 65.95 31.1 Q65.25 30.15 64.1 30.7 L63.85 30.85 63.0 31.1 62.5 31.15 58.85 31.15 58.2 31.05 58.2 31.0 57.4 30.65 57.25 30.55 55.55 29.4 53.7 28.25 52.4 27.2 52.05 26.85 51.95 26.7 51.75 26.6 51.7 26.55 51.2 26.25 51.5 25.45 51.5 25.35 Q51.75 25.4 52.05 25.6 L52.05 25.8 52.6 26.45 52.35 26.2 Q52.9 26.25 53.2 26.75 L53.4 26.95 53.15 26.85 53.4 27.0 53.8 27.3 56.35 28.8 57.15 29.3 58.2 29.95 58.2 29.8 64.05 30.45 64.35 30.25 66.15 30.55 66.85 31.75 67.0 32.1 67.4 32.55" fill="#663300" fill-rule="evenodd" stroke="none"/>
    <path d="M33.1 41.95 Q33.65 42.55 33.9 43.45 34.2 44.6 33.9 45.8 36.3 46.3 37.8 48.0 L38.3 48.15 Q39.45 48.6 40.4 49.35 L41.05 48.75 Q42.25 48.85 43.3 49.45 L43.55 49.65 43.3 49.5 43.2 50.0 43.2 50.25 Q43.25 51.3 44.2 51.75 L45.3 51.85 45.45 51.85 45.85 51.55 45.9 51.55 45.95 51.4 47.45 51.05 47.9 50.75 48.4 50.05 Q49.0 48.6 48.3 47.25 L47.9 46.8 48.35 46.0 Q48.45 45.85 48.6 45.8 L48.65 45.8 48.65 45.65 48.85 44.75 Q48.05 42.7 47.75 40.5 47.65 40.0 47.9 39.5 47.75 37.3 47.95 35.15 L48.05 34.05 48.1 33.9 48.25 33.8 48.35 33.75 48.4 33.75 Q50.25 34.3 50.3 36.45 50.35 37.15 50.8 37.75 51.35 38.55 51.5 39.45 51.65 40.1 52.1 40.55 52.5 41.0 52.55 41.6 52.75 43.3 52.0 44.85 L52.35 46.8 52.4 46.8 52.0 47.45 Q51.8 48.0 51.95 48.6 L52.55 49.4 53.3 50.35 53.7 50.6 54.1 51.0 55.1 51.1 56.05 50.7 56.15 50.8 56.3 50.55 Q56.85 50.1 57.0 49.45 L57.05 49.35 57.0 49.3 Q57.2 48.1 56.75 47.5 L56.35 47.1 56.15 46.7 56.05 46.55 56.1 46.55 56.6 46.5 Q57.8 46.4 58.8 45.8 L59.55 45.4 Q60.55 41.55 63.25 38.6 63.15 37.15 63.75 35.8 L64.0 35.2 64.4 34.6 Q63.6 32.8 64.75 31.4 L65.2 31.1 66.25 31.6 66.25 31.7 66.1 32.75 66.15 34.0 66.15 34.7 66.1 35.05 Q66.65 35.85 66.5 36.6 66.35 37.25 65.65 37.9 64.95 38.5 64.5 39.35 L63.95 40.35 63.35 41.5 62.55 43.25 61.0 47.65 60.8 48.1 56.8 54.35 Q55.8 55.95 54.15 56.85 L54.65 58.3 Q54.75 58.85 54.35 59.3 L54.2 59.5 53.0 59.6 52.8 58.45 52.65 58.2 Q51.65 56.85 49.95 56.75 49.7 56.7 49.5 56.9 49.15 57.15 48.95 57.55 L48.8 57.75 48.55 58.6 48.6 58.85 48.5 58.5 48.45 57.5 48.45 56.15 48.0 55.35 47.9 54.6 47.6 54.45 46.3 53.8 46.2 53.8 46.05 53.8 Q45.25 55.15 43.85 54.8 43.3 54.7 42.95 54.2 L41.2 51.7 Q39.65 51.1 38.4 49.95 L38.3 49.85 37.2 48.8 Q34.1 49.05 32.85 46.15 L32.65 45.4 32.65 45.35 32.5 44.5 Q32.35 43.6 32.75 42.75 L33.1 41.95 M53.6 46.8 L53.65 46.75 53.95 46.75 53.9 46.75 53.6 46.8 M54.85 46.7 L55.0 46.65 54.9 46.7 54.95 46.7 54.85 46.7" fill="#996633" fill-rule="evenodd" stroke="none"/>
  </g>
</svg>
