<?xml version="1.0" encoding="UTF-8" standalone="no"?>
<svg xmlns:xlink="http://www.w3.org/1999/xlink" height="47.1px" width="52.7px" xmlns="http://www.w3.org/2000/svg">
  <g transform="matrix(1.0, 0.0, 0.0, 1.0, -22.45, -38.2)">
    <path d="M48.55 41.6 L52.0 41.95 Q52.8 42.1 53.4 42.5 53.55 42.9 54.0 42.75 L54.4 42.65 57.85 42.45 58.15 42.5 58.1 42.85 57.95 43.1 57.95 43.15 57.75 43.55 56.3 45.65 56.25 45.65 56.2 45.75 56.5 45.8 57.05 45.7 Q58.6 45.85 59.35 47.2 59.7 47.8 59.6 48.5 59.45 49.4 58.8 50.0 L58.85 50.4 58.85 50.45 Q59.25 51.3 60.25 51.3 L60.6 51.35 62.35 51.95 62.4 50.75 62.35 50.7 62.3 50.45 62.2 50.2 Q61.25 49.7 61.2 48.65 L61.4 48.2 61.7 47.95 62.35 48.0 Q61.1 47.55 60.6 46.3 L60.5 46.05 Q60.15 44.95 61.05 44.35 61.65 44.3 62.05 44.7 L62.3 43.15 62.4 42.9 62.5 42.85 62.6 42.85 62.6 42.8 Q63.35 42.8 63.85 43.45 L64.05 41.75 64.3 41.45 64.4 41.35 Q65.75 41.5 66.4 42.7 L67.0 43.6 67.35 44.25 67.7 44.45 Q67.9 43.7 68.45 43.25 L68.5 43.25 68.65 43.15 Q69.5 43.25 70.0 44.0 70.85 45.35 70.65 46.95 L71.4 47.9 72.1 49.45 72.55 50.8 72.6 51.0 72.65 51.15 73.3 51.85 Q74.15 53.3 74.65 54.9 L74.9 55.7 Q75.45 57.75 74.75 59.75 L74.6 60.3 73.45 64.6 72.4 67.0 72.85 68.35 Q73.4 70.5 73.05 72.7 L72.9 73.4 Q72.05 75.5 70.1 76.7 L69.6 76.85 Q67.8 77.85 65.85 77.1 L65.25 76.9 Q64.0 76.5 63.6 75.35 L63.4 75.15 63.15 75.1 62.95 74.9 62.6 74.95 62.05 75.15 59.45 76.2 57.15 77.1 52.95 78.75 51.95 79.0 51.55 79.05 51.35 79.6 51.25 79.75 51.2 79.85 50.95 80.1 50.2 80.6 49.65 80.65 49.3 80.55 48.55 80.15 48.05 79.45 47.9 79.25 46.5 79.0 46.45 79.0 46.05 78.85 44.95 78.6 40.1 77.45 38.35 77.5 Q37.75 78.0 37.05 77.95 L36.85 77.85 36.7 77.85 35.15 78.5 34.7 78.9 33.9 80.15 33.7 81.35 33.3 83.55 33.1 84.05 32.6 84.75 32.45 84.8 31.25 85.25 31.2 85.25 30.25 85.25 Q28.75 84.9 27.65 83.95 L27.3 83.7 26.85 83.3 25.6 81.15 25.45 80.8 25.35 80.55 25.3 80.2 25.25 79.9 Q25.2 79.55 25.3 79.25 L25.3 79.2 25.3 79.15 25.35 79.05 25.4 79.2 25.35 78.85 25.35 78.3 25.45 76.75 25.6 75.45 25.7 74.7 Q25.85 73.2 26.6 71.8 L27.75 70.15 28.2 69.65 27.05 68.35 Q26.15 67.15 25.8 65.7 L24.9 61.4 24.5 60.3 22.9 56.25 22.8 55.95 22.45 53.8 Q22.35 53.0 22.7 52.45 22.55 52.15 22.7 51.9 23.45 50.15 23.8 48.3 L24.05 46.75 24.2 45.65 23.95 44.1 Q23.6 43.05 24.55 42.85 25.1 42.85 25.6 43.2 L25.6 43.05 26.05 42.1 Q25.75 40.85 26.15 39.65 L26.55 39.05 26.65 39.0 27.05 38.9 Q27.75 39.0 27.95 39.85 L28.0 39.95 Q28.95 39.3 30.1 39.5 L30.2 39.45 30.75 38.55 31.1 38.2 Q32.1 38.3 32.2 39.35 L32.25 40.85 32.35 40.85 Q32.9 40.9 33.1 41.45 33.25 40.95 33.7 40.8 L33.9 40.75 Q34.7 40.9 34.75 41.7 L34.8 42.2 Q34.9 44.05 33.7 45.4 L33.65 45.5 33.65 45.75 Q34.2 47.9 35.5 49.7 L36.1 50.45 36.35 50.85 37.75 50.7 39.65 51.05 40.05 50.4 40.15 50.25 Q38.85 48.95 39.8 47.35 L40.35 46.6 Q41.15 45.7 42.3 46.15 L42.35 45.9 Q42.05 44.75 41.15 43.95 L40.85 43.65 Q40.4 43.35 40.35 42.85 L40.45 42.25 40.7 41.9 41.75 42.1 41.9 42.15 43.45 42.45 44.55 42.6 44.85 42.8 46.15 42.3 Q47.35 41.8 48.55 41.6 M45.0 43.85 L44.65 43.35 43.85 43.05 43.6 42.9 40.85 42.3 40.6 42.8 40.7 43.05 41.5 43.8 42.75 44.9 42.85 45.1 43.1 45.35 43.2 45.45 43.4 45.75 43.25 45.95 43.25 46.0 42.9 46.45 42.85 46.55 43.25 46.75 43.35 46.8 43.8 47.3 43.95 47.3 44.15 47.3 Q45.2 47.4 45.5 48.65 L45.55 48.85 45.45 48.9 44.95 49.0 Q45.0 48.35 44.6 47.9 43.8 47.65 43.15 47.15 L42.05 46.45 41.95 46.4 41.35 46.45 Q40.8 46.6 40.35 47.1 L40.0 47.65 39.95 47.8 Q39.65 48.8 40.35 49.45 L40.8 49.75 40.9 49.85 Q41.35 50.0 41.25 50.65 L41.25 51.8 41.4 52.9 41.7 53.5 Q42.1 54.0 42.1 54.6 42.15 55.2 41.55 55.0 L41.35 54.85 40.8 54.1 40.55 53.35 39.6 52.1 39.5 51.65 39.45 51.6 Q39.1 51.7 38.85 51.4 L38.8 51.4 Q38.45 51.05 38.0 51.1 37.2 51.3 36.45 51.65 L36.3 51.75 36.0 51.45 35.45 50.8 34.3 48.85 Q33.5 47.4 33.15 45.9 L33.05 45.5 31.4 45.45 31.1 45.2 Q30.7 44.5 31.1 43.8 L31.35 43.75 31.3 43.95 31.3 44.25 31.3 44.3 31.35 44.45 31.7 44.9 32.0 45.05 32.3 45.15 32.5 45.15 32.7 45.1 32.75 45.05 32.95 44.9 Q33.15 44.7 33.3 44.6 L33.3 44.55 33.55 44.4 Q34.15 44.05 34.2 43.4 L34.3 42.85 Q34.55 42.0 34.0 41.55 L34.0 41.4 33.9 41.3 33.85 41.25 33.75 41.2 33.45 41.45 33.2 41.8 32.8 42.3 32.2 41.3 32.05 40.95 32.0 40.9 31.95 40.95 31.45 41.45 31.2 41.55 31.2 41.5 Q30.8 41.6 30.55 41.3 30.25 40.95 30.4 40.65 L30.45 40.8 30.5 40.85 30.9 41.0 30.95 41.0 31.15 40.95 31.2 40.9 31.35 40.75 31.7 40.3 31.75 39.5 Q31.7 38.85 31.15 38.7 L31.0 38.75 30.85 38.75 30.75 38.9 Q30.65 39.1 30.7 39.35 L30.4 39.95 28.35 40.45 28.15 40.6 27.85 40.95 27.6 40.25 27.55 40.2 Q27.3 39.55 26.65 39.55 L26.35 39.9 26.35 40.35 26.25 40.9 26.3 42.55 26.45 42.95 27.2 43.1 27.3 42.9 27.35 42.9 27.35 42.85 27.45 42.85 28.0 42.6 28.05 42.55 28.2 41.9 28.55 41.95 28.55 42.0 28.45 42.55 28.4 42.95 28.4 43.05 Q28.0 43.55 27.25 43.6 L26.55 43.45 26.3 43.2 26.3 43.25 26.05 43.7 25.9 44.05 25.8 43.95 25.55 43.65 Q25.2 43.35 24.7 43.3 L24.65 43.35 24.6 43.4 Q24.15 43.85 24.55 44.35 L24.6 44.45 Q24.75 45.25 25.35 45.75 L25.5 45.9 25.65 46.0 26.0 46.15 Q26.45 46.2 26.7 45.9 L26.85 45.5 26.9 45.25 26.8 44.95 26.75 44.9 26.7 44.85 26.7 44.8 26.85 44.8 Q27.5 44.9 27.35 45.6 27.2 46.2 26.65 46.5 L25.85 46.6 25.25 46.1 25.1 46.65 24.5 49.45 Q23.9 50.7 23.45 52.05 L23.35 52.35 23.25 52.55 23.25 52.8 Q23.25 54.6 23.65 56.45 L24.2 58.25 24.45 58.85 25.3 60.6 25.8 62.25 Q26.05 65.4 27.65 67.9 L27.9 68.35 28.2 68.75 28.45 69.0 28.75 68.9 Q29.8 69.3 29.9 70.5 L29.95 70.95 30.15 71.1 Q30.95 71.6 31.35 72.35 L32.95 73.35 Q34.95 73.85 36.35 75.4 36.7 75.8 37.3 75.85 38.25 75.9 39.05 76.3 L39.2 76.35 39.7 76.6 39.7 76.55 42.45 77.55 44.3 78.05 47.2 78.6 47.25 78.6 48.7 78.65 48.9 78.45 48.95 78.4 49.05 78.35 49.65 78.05 49.75 78.05 50.3 78.1 51.0 78.55 51.05 78.6 52.1 78.4 52.15 78.4 53.1 78.2 54.0 77.85 Q56.85 76.25 59.9 75.15 L61.2 74.4 61.55 74.25 62.65 73.75 63.0 73.6 63.5 73.05 65.1 71.85 Q65.55 70.9 66.4 70.25 66.85 69.9 67.4 69.75 L68.3 69.0 Q68.3 68.7 68.55 68.55 L68.7 68.45 69.15 68.05 69.25 68.05 69.0 68.25 70.1 67.25 70.5 66.65 Q70.7 66.3 71.0 66.25 L71.5 65.65 71.85 65.2 73.15 63.35 73.45 62.75 73.85 61.55 74.25 58.85 74.3 57.6 74.25 57.3 74.25 56.95 74.25 56.2 73.8 54.9 73.8 54.75 Q73.6 52.85 72.55 51.8 L72.5 51.65 72.2 50.9 72.15 50.8 71.15 48.8 71.1 48.7 70.45 47.8 70.4 47.7 Q70.15 48.25 69.4 48.45 68.6 48.65 68.05 48.15 L68.0 47.9 68.15 47.75 68.3 47.85 68.3 47.75 Q68.45 47.45 68.8 47.55 L69.3 47.5 69.95 46.8 70.05 46.7 70.05 46.85 70.1 46.6 70.05 45.85 69.95 44.95 Q69.8 44.05 69.2 43.75 L68.85 43.6 68.6 43.65 Q68.15 44.2 68.35 44.95 L68.2 45.35 67.6 44.9 67.45 44.8 66.6 44.3 66.4 43.55 65.9 42.65 Q65.5 42.05 64.9 41.8 L64.75 41.85 64.65 41.85 64.4 42.3 Q64.15 42.6 64.3 43.1 L64.5 43.8 64.2 43.9 63.95 43.95 63.8 44.0 63.75 44.05 63.5 43.9 63.1 43.5 62.8 43.5 62.55 43.75 Q62.35 44.15 62.55 44.45 L62.55 44.4 63.75 44.6 63.7 44.65 63.7 44.7 63.5 44.9 Q63.05 45.15 62.75 44.9 L62.7 45.05 62.6 45.2 62.5 45.4 62.0 45.05 61.3 44.65 61.1 44.7 60.95 44.85 60.9 45.15 Q60.8 45.15 60.75 45.25 L60.65 45.55 Q60.8 46.8 61.95 47.45 L62.3 47.15 62.5 47.1 63.0 46.75 63.2 45.95 63.25 45.9 63.4 46.15 Q63.85 46.85 63.25 47.35 62.85 47.65 62.45 47.6 L62.55 48.05 62.55 48.1 62.55 48.35 62.6 48.45 62.0 48.3 Q61.75 48.25 61.6 48.5 61.05 49.25 61.85 49.75 L62.5 50.0 Q62.9 50.0 63.2 49.65 L63.3 49.25 63.15 48.95 63.1 48.9 Q63.55 49.1 63.45 49.75 63.35 50.25 62.85 50.45 L62.55 50.55 62.7 50.8 62.9 52.15 62.95 52.55 62.85 52.6 62.5 52.6 62.3 52.6 60.85 52.3 60.45 52.15 59.5 51.7 59.3 51.6 58.85 52.65 58.65 52.9 58.25 53.3 57.85 54.1 57.4 54.75 57.15 54.7 57.1 54.65 Q56.45 54.5 56.75 53.85 L56.85 53.45 57.15 52.75 57.55 52.3 58.1 51.2 58.15 51.05 58.1 50.0 58.15 49.85 58.3 49.8 58.4 49.65 58.45 49.65 Q58.55 49.55 58.75 49.55 L58.8 49.5 59.2 49.1 59.25 48.95 59.25 48.8 59.25 47.75 Q58.85 46.1 56.85 46.25 L56.4 46.4 56.35 46.4 55.85 46.5 55.7 46.6 Q55.6 46.6 55.55 46.7 L55.25 47.0 54.95 47.3 53.75 48.1 Q53.15 48.4 53.2 49.05 L53.2 49.1 53.25 49.35 Q52.95 49.2 53.0 48.75 53.1 47.4 54.35 46.9 L54.85 46.65 54.85 46.7 55.0 46.4 55.95 46.0 56.1 46.0 56.05 45.95 56.0 45.9 55.9 45.8 55.85 45.7 55.75 45.55 55.6 45.4 55.85 45.15 55.95 45.05 56.0 45.0 Q56.0 44.7 56.15 44.5 56.6 43.45 57.4 42.75 L56.7 42.85 53.9 43.4 53.7 43.35 53.55 43.45 52.85 43.0 Q52.25 42.55 51.6 42.25 L50.65 42.2 Q47.65 41.85 45.55 43.4 L45.0 43.85 M66.65 44.45 L66.6 45.0 66.5 45.25 66.35 45.55 66.15 45.7 65.8 45.9 65.55 45.95 65.2 46.0 64.8 45.7 64.8 45.65 64.7 45.6 64.65 45.55 64.6 45.45 64.55 45.25 Q64.65 45.05 64.95 45.1 65.95 45.25 66.55 44.5 L66.65 44.45 M30.4 42.7 Q30.95 42.8 30.85 43.4 30.8 44.25 29.9 44.6 L29.55 44.7 Q28.55 44.85 28.25 43.9 28.1 43.5 28.45 43.35 L28.5 43.6 28.75 44.0 28.9 44.1 29.7 44.1 Q30.15 44.0 30.4 43.6 30.65 43.2 30.45 42.8 L30.4 42.7 M30.65 78.65 L30.6 78.55 Q30.45 78.15 30.8 78.05 L31.5 78.0 32.8 77.95 34.85 77.5 34.95 77.4 33.8 76.7 32.65 75.75 31.4 74.05 31.25 73.95 31.1 73.8 30.25 73.25 30.1 73.0 29.8 72.85 29.75 72.8 Q29.05 72.5 28.7 71.8 L28.5 71.6 27.95 70.85 Q27.65 71.2 27.5 71.6 26.9 72.8 26.7 74.15 L26.6 74.3 26.5 74.85 26.05 78.4 25.95 79.35 Q26.7 81.0 28.05 82.35 L28.25 82.6 28.3 82.65 28.3 82.7 28.35 82.7 28.5 82.95 Q29.5 84.5 31.3 84.3 L31.95 83.85 32.2 83.3 Q32.75 81.85 32.75 80.2 L32.9 80.15 33.2 79.2 32.65 79.15 32.45 79.15 32.4 79.15 Q31.95 79.15 31.8 78.85 L31.65 78.85 31.6 78.85 30.65 78.65 M72.95 71.05 L72.8 69.95 72.6 69.0 72.35 68.4 71.35 68.8 Q71.35 69.3 70.8 69.65 68.8 70.6 67.0 72.0 L66.25 72.75 66.0 72.95 65.9 73.1 65.75 73.35 65.7 73.45 65.1 74.25 64.45 75.0 64.5 75.15 Q64.8 76.35 66.2 76.55 L67.7 76.5 68.05 76.45 68.2 76.5 69.4 76.4 Q71.6 75.25 72.65 73.0 L72.9 72.1 72.95 71.05 M50.75 79.9 Q51.05 79.55 50.95 79.15 50.7 78.2 49.65 78.3 49.4 78.3 49.2 78.45 48.45 78.95 48.75 79.75 48.85 80.1 49.25 80.25 50.15 80.6 50.75 79.9 M47.2 78.55 L47.05 78.45 47.1 78.5 47.2 78.55" fill="#000000" fill-rule="evenodd" stroke="none"/>
    <path d="M43.25 46.0 L43.25 45.95 43.4 45.75 43.2 45.45 43.1 45.35 42.85 45.1 42.75 44.9 41.5 43.8 40.7 43.05 40.6 42.8 40.85 42.3 43.6 42.9 43.85 43.05 44.65 43.35 45.0 43.85 44.6 44.2 44.9 43.95 45.15 44.25 45.2 44.3 45.5 45.15 45.45 45.9 Q45.2 46.65 44.05 46.45 L43.7 46.35 43.45 46.15 43.25 46.0 M53.55 43.45 L53.7 43.35 53.9 43.4 56.7 42.85 57.4 42.75 Q56.6 43.45 56.15 44.5 56.0 44.7 56.0 45.0 L55.95 45.05 55.85 45.15 55.6 45.4 54.65 46.4 54.6 46.4 54.45 46.4 Q53.75 46.4 53.55 45.95 L53.5 45.85 53.35 45.8 Q52.25 45.25 52.95 44.2 L53.1 44.0 53.55 43.45 M43.7 45.4 L43.65 45.35 43.55 45.5 43.7 45.4" fill="#ffffcc" fill-rule="evenodd" stroke="none"/>
    <path d="M45.0 43.85 L45.55 43.4 Q47.65 41.85 50.65 42.2 L51.6 42.25 Q52.25 42.55 52.85 43.0 L53.55 43.45 53.1 44.0 52.95 44.2 Q52.25 45.25 53.35 45.8 L53.5 45.85 53.55 45.95 53.0 45.6 Q51.95 45.6 51.2 46.3 L51.1 46.35 48.15 46.3 47.9 46.2 47.6 45.95 44.35 46.85 44.15 47.3 43.95 47.3 43.8 47.3 43.35 46.8 43.25 46.75 42.85 46.55 42.9 46.45 43.25 46.0 43.45 46.15 43.7 46.35 44.05 46.45 Q45.2 46.65 45.45 45.9 L45.5 45.15 45.2 44.3 45.15 44.25 44.9 43.95 44.6 44.2 45.0 43.85 M55.6 45.4 L55.75 45.55 55.85 45.7 55.9 45.8 56.0 45.9 56.05 45.95 56.1 46.0 55.95 46.0 55.0 46.4 54.85 46.7 54.85 46.65 54.6 46.5 54.45 46.4 54.6 46.4 54.65 46.4 55.6 45.4 M58.15 49.85 L58.1 50.0 58.15 51.05 58.1 51.2 57.55 52.3 57.15 52.75 56.85 53.45 56.75 53.85 Q56.45 54.5 57.1 54.65 L57.15 54.7 57.4 54.75 57.85 54.1 58.25 53.3 58.65 52.9 58.85 52.65 59.3 51.6 59.5 51.7 60.45 52.15 60.85 52.3 62.3 52.6 62.5 52.6 62.85 52.6 62.95 52.55 62.9 52.15 62.7 50.8 62.55 50.55 62.85 50.45 Q63.35 50.25 63.45 49.75 63.55 49.1 63.1 48.9 L62.6 48.45 62.55 48.35 62.7 48.15 62.75 48.15 63.35 48.0 63.8 48.0 64.45 48.25 Q64.95 48.7 65.0 49.35 L65.05 49.5 65.5 49.85 65.5 50.1 65.5 50.35 65.75 50.05 64.8 50.95 Q64.95 52.35 63.95 53.05 L63.5 53.3 62.75 53.35 62.45 53.25 62.25 53.65 62.15 53.8 Q61.8 54.35 61.2 54.45 L60.5 54.55 59.9 55.75 58.5 56.85 58.05 57.45 57.1 57.6 57.5 57.65 56.75 59.1 56.75 59.15 56.85 59.45 56.95 59.7 56.85 59.5 56.1 59.15 55.45 58.9 52.75 57.7 52.35 57.5 Q51.15 56.7 49.75 56.75 L47.45 57.1 46.95 57.25 46.1 57.45 Q45.1 57.7 44.15 58.2 L42.55 58.9 42.1 59.05 42.15 59.4 42.1 59.0 42.2 58.7 Q41.1 57.7 40.35 56.35 L40.1 55.8 40.0 55.3 Q39.75 55.1 39.75 54.7 L39.65 54.5 39.5 54.5 39.5 54.35 39.0 54.2 37.6 53.8 36.4 53.4 33.8 53.05 33.65 53.0 Q32.85 52.35 33.35 51.4 L33.2 50.9 33.05 50.65 Q32.1 50.4 31.65 49.6 L31.65 49.45 31.25 49.25 30.7 49.0 29.3 48.95 28.9 49.1 28.6 49.15 28.25 49.15 28.1 49.1 28.1 49.05 Q27.3 49.0 27.55 48.3 L27.75 47.9 Q28.65 47.1 29.85 47.05 30.9 46.9 31.65 47.55 31.5 47.05 32.0 46.65 L30.85 46.35 30.6 46.05 30.4 45.3 29.7 45.4 28.75 45.2 Q28.25 44.95 28.25 44.5 27.4 44.6 26.7 44.05 26.25 43.7 26.3 43.25 L26.3 43.2 26.55 43.45 27.25 43.6 Q28.0 43.55 28.4 43.05 L28.45 43.35 Q28.1 43.5 28.25 43.9 28.55 44.85 29.55 44.7 L29.9 44.6 Q30.8 44.25 30.85 43.4 30.95 42.8 30.4 42.7 L30.35 42.65 Q31.1 42.85 31.4 43.7 L31.35 43.75 31.1 43.8 Q30.7 44.5 31.1 45.2 L31.4 45.45 33.05 45.5 33.15 45.9 Q33.5 47.4 34.3 48.85 L35.45 50.8 36.0 51.45 36.3 51.75 36.45 51.65 Q37.2 51.3 38.0 51.1 38.45 51.05 38.8 51.4 L38.85 51.4 Q39.1 51.7 39.45 51.6 L39.5 51.65 39.6 52.1 40.55 53.35 40.8 54.1 41.35 54.85 41.55 55.0 Q42.15 55.2 42.1 54.6 42.1 54.0 41.7 53.5 L41.4 52.9 41.25 51.8 41.25 50.65 Q41.35 50.0 40.9 49.85 L40.8 49.75 41.25 49.95 41.55 50.1 41.75 50.25 Q42.45 50.75 43.4 50.7 L43.5 50.7 43.65 50.75 44.95 52.5 45.35 52.5 45.65 52.25 Q47.35 51.0 49.3 50.5 51.95 50.25 53.95 51.9 L54.05 52.0 56.2 52.15 56.35 51.95 57.15 50.3 57.05 50.05 57.8 49.9 58.15 49.85 M63.7 44.7 L63.7 44.65 63.75 44.6 63.8 44.55 63.8 44.15 63.75 44.05 63.8 44.0 63.95 43.95 64.2 43.9 64.5 43.8 64.55 44.25 64.5 44.95 64.5 45.05 64.6 45.45 64.65 45.55 64.7 45.6 64.8 45.65 64.8 45.7 65.2 46.0 65.55 45.95 65.8 45.9 66.15 45.7 66.35 45.55 66.5 45.25 66.6 45.0 66.65 44.45 66.6 44.3 67.45 44.8 67.6 44.9 68.2 45.35 68.05 46.05 67.95 47.2 67.95 47.3 67.95 47.35 68.0 47.5 68.15 47.75 68.0 47.9 68.05 48.15 Q68.6 48.65 69.4 48.45 70.15 48.25 70.4 47.7 L70.45 47.8 71.1 48.7 71.15 48.8 72.15 50.8 72.2 50.9 72.5 51.65 72.55 51.8 Q73.6 52.85 73.8 54.75 L73.8 54.9 74.25 56.2 74.25 56.95 74.25 57.3 74.3 57.6 74.25 58.85 73.85 61.55 73.45 62.75 73.15 63.35 71.85 65.2 71.5 65.65 71.0 66.25 Q70.7 66.3 70.5 66.65 L70.1 67.25 69.0 68.25 69.25 68.05 69.15 68.05 68.7 68.45 68.55 68.55 Q68.3 68.7 68.3 69.0 L67.4 69.75 Q66.85 69.9 66.4 70.25 65.55 70.9 65.1 71.85 L63.5 73.05 63.0 73.6 62.65 73.75 61.55 74.25 61.2 74.4 59.9 75.15 Q56.85 76.25 54.0 77.85 L53.1 78.2 52.15 78.4 52.05 78.4 52.05 78.3 52.2 78.1 52.55 77.9 Q53.5 77.2 54.55 76.65 L56.4 75.5 57.1 75.15 59.8 74.1 61.2 73.15 63.35 71.15 64.9 69.6 65.1 69.35 65.55 69.1 66.65 68.5 68.9 66.75 Q69.45 66.1 69.45 65.25 69.5 64.5 69.1 63.9 L68.55 63.25 68.5 63.05 67.45 62.0 Q67.25 61.8 66.95 61.7 L66.8 61.65 67.05 61.65 Q70.0 61.9 72.25 59.85 72.8 59.4 73.05 58.65 L73.2 58.2 73.2 56.45 73.15 56.25 Q72.95 55.05 72.25 54.05 L70.75 52.15 70.55 51.65 70.85 51.0 70.4 50.3 70.0 49.9 69.85 49.55 69.7 49.6 68.8 49.55 68.65 49.5 Q67.85 49.3 67.6 48.45 67.45 47.75 67.8 47.4 L67.55 47.15 65.65 47.25 Q65.4 46.45 64.65 46.3 L64.25 45.75 64.2 45.6 64.1 45.15 64.2 45.4 Q63.8 45.3 63.7 44.8 L63.7 44.7 M47.2 78.6 L44.3 78.05 42.45 77.55 39.7 76.55 39.7 76.6 39.2 76.35 39.05 76.3 Q38.25 75.9 37.3 75.85 36.7 75.8 36.35 75.4 34.95 73.85 32.95 73.35 L31.35 72.35 Q30.95 71.6 30.15 71.1 L29.95 70.95 29.9 70.5 Q29.8 69.3 28.75 68.9 L28.45 69.0 28.2 68.75 27.9 68.35 27.65 67.9 Q26.05 65.4 25.8 62.25 L25.3 60.6 24.45 58.85 24.2 58.25 23.65 56.45 23.95 56.25 24.25 56.2 24.6 56.35 25.35 57.2 Q26.55 58.65 28.45 58.85 L29.95 58.85 31.3 58.75 Q32.85 58.75 34.25 59.3 34.75 59.5 35.1 59.95 L35.35 60.25 35.3 60.25 35.2 60.2 34.4 60.1 34.25 60.15 33.1 60.8 32.8 61.2 32.65 61.15 32.3 61.4 Q31.85 61.65 31.55 62.1 L31.35 62.15 31.3 62.2 31.1 62.5 30.5 63.45 30.35 63.95 30.1 65.25 30.15 65.65 31.0 66.85 31.05 67.7 Q30.85 68.75 31.55 69.55 L32.05 70.4 32.15 70.55 32.8 71.2 Q34.0 72.25 35.65 72.5 L36.8 72.9 37.15 73.1 37.65 73.35 40.35 74.05 40.85 74.15 Q41.9 74.45 42.65 75.25 L42.9 75.4 44.1 76.1 44.4 76.35 45.15 77.0 45.6 77.35 46.6 78.15 47.05 78.45 47.2 78.55 47.25 78.6 47.2 78.6 M25.1 46.65 L25.25 46.1 25.85 46.6 26.65 46.5 Q27.2 46.2 27.35 45.6 27.5 44.9 26.85 44.8 L26.7 44.8 26.6 44.65 26.65 44.65 Q27.4 44.75 27.9 45.4 28.55 46.3 27.85 47.15 27.55 47.55 27.0 47.6 L25.9 47.5 25.5 47.3 25.45 47.25 25.1 46.65 M31.2 41.55 L31.45 41.45 31.95 40.95 32.0 40.9 32.05 40.95 32.2 41.3 32.8 42.3 32.35 42.8 31.9 43.2 31.7 43.4 31.65 42.65 31.65 42.3 31.55 42.15 31.2 41.55 M39.5 52.5 L39.65 52.5 39.55 52.2 39.5 52.2 39.5 52.5 M31.25 53.45 Q33.45 53.95 34.1 56.2 34.35 56.9 33.65 57.25 32.85 57.65 32.25 57.0 29.5 57.55 28.35 55.2 28.2 54.9 28.4 54.65 29.3 53.45 30.9 53.5 L31.25 53.45 M35.45 60.45 L35.4 60.4 35.35 60.3 35.35 60.25 35.65 60.7 35.45 60.45 M67.2 67.35 L66.45 67.3 66.25 67.4 66.3 67.25 67.2 67.35 M39.85 60.95 L40.8 60.95 39.95 60.95 39.9 61.0 39.8 61.0 39.7 61.1 39.85 60.95 M26.5 74.85 L26.6 74.3 26.7 74.15 Q26.9 72.8 27.5 71.6 27.65 71.2 27.95 70.85 L28.5 71.6 28.7 71.8 Q29.05 72.5 29.75 72.8 L29.8 72.85 30.1 73.0 30.25 73.25 31.1 73.8 31.25 73.95 31.4 74.05 32.65 75.75 33.8 76.7 34.95 77.4 34.85 77.5 32.8 77.95 31.5 78.0 30.8 78.05 Q30.45 78.15 30.6 78.55 L30.65 78.65 30.55 78.6 Q28.55 77.7 27.6 75.7 L27.5 75.5 27.45 75.45 26.6 74.35 26.5 74.85 M65.0 54.95 Q65.75 54.0 66.85 53.9 69.2 54.45 68.4 56.85 68.0 58.1 67.1 58.95 65.4 59.8 64.15 58.65 63.6 58.15 63.6 57.4 63.6 56.2 64.55 55.4 L65.0 54.95 M65.1 74.25 L65.7 73.45 65.75 73.35 65.9 73.1 66.0 72.95 66.25 72.75 67.0 72.0 Q68.8 70.6 70.8 69.65 71.35 69.3 71.35 68.8 L72.35 68.4 72.6 69.0 72.8 69.95 72.95 71.05 72.8 71.25 71.9 72.55 Q71.25 73.5 70.15 73.95 L68.2 74.5 66.55 74.9 65.1 74.95 64.75 74.7 65.1 74.25 M45.1 54.7 L45.35 54.5 44.95 54.5 45.1 54.7" fill="#666633" fill-rule="evenodd" stroke="none"/>
    <path d="M54.85 46.65 L54.35 46.9 Q53.1 47.4 53.0 48.75 52.95 49.2 53.25 49.35 53.45 50.65 55.0 50.5 L56.35 50.25 57.05 50.05 57.15 50.3 56.35 51.95 56.2 52.15 54.05 52.0 53.95 51.9 Q51.95 50.25 49.3 50.5 47.35 51.0 45.65 52.25 L45.35 52.5 44.95 52.5 43.65 50.75 44.75 50.6 Q45.7 49.9 45.55 48.85 L45.5 48.65 Q45.2 47.4 44.15 47.3 L44.35 46.85 47.6 45.95 47.9 46.2 48.15 46.3 51.1 46.35 51.2 46.3 Q51.95 45.6 53.0 45.6 L53.55 45.95 Q53.75 46.4 54.45 46.4 L54.6 46.5 54.85 46.65 M62.55 48.35 L62.55 48.1 62.55 48.05 62.45 47.6 Q62.85 47.65 63.25 47.35 63.85 46.85 63.4 46.15 L63.25 45.9 62.95 45.65 62.8 45.6 62.5 45.4 62.6 45.2 62.7 45.05 62.75 44.9 Q63.05 45.15 63.5 44.9 L63.7 44.7 63.7 44.8 Q63.8 45.3 64.2 45.4 L64.1 45.15 64.2 45.6 64.25 45.75 64.65 46.3 Q65.4 46.45 65.65 47.25 L67.55 47.15 67.8 47.4 Q67.45 47.75 67.6 48.45 67.85 49.3 68.65 49.5 L68.8 49.55 69.7 49.6 69.85 49.55 70.0 49.9 70.4 50.3 70.85 51.0 70.55 51.65 70.75 52.15 72.25 54.05 Q72.95 55.05 73.15 56.25 L73.2 56.45 73.2 58.2 73.05 58.65 Q72.8 59.4 72.25 59.85 70.0 61.9 67.05 61.65 L66.8 61.65 66.55 61.55 65.6 61.2 64.9 61.0 63.8 60.95 Q63.1 60.6 62.3 60.6 L59.05 60.5 58.6 60.4 58.35 60.25 57.25 59.65 56.9 59.5 56.95 59.7 56.85 59.45 56.75 59.15 56.75 59.1 57.5 57.65 57.1 57.6 58.05 57.45 58.5 56.85 59.9 55.75 60.5 54.55 61.2 54.45 Q61.8 54.35 62.15 53.8 L62.25 53.65 62.45 53.25 62.75 53.35 63.5 53.3 63.95 53.05 Q64.95 52.35 64.8 50.95 L65.75 50.05 65.5 50.35 65.5 50.1 65.5 49.85 65.05 49.5 65.0 49.35 Q64.95 48.7 64.45 48.25 L63.8 48.0 63.35 48.0 62.75 48.15 62.7 48.15 62.55 48.35 M23.65 56.45 Q23.25 54.6 23.25 52.8 L23.25 52.55 23.35 52.35 23.45 52.05 Q23.9 50.7 24.5 49.45 L25.1 46.65 25.45 47.25 25.5 47.3 25.9 47.5 27.0 47.6 Q27.55 47.55 27.85 47.15 28.55 46.3 27.9 45.4 27.4 44.75 26.65 44.65 L26.6 44.65 26.7 44.8 26.15 44.25 25.95 44.1 25.9 44.05 26.05 43.7 26.3 43.25 Q26.25 43.7 26.7 44.05 27.4 44.6 28.25 44.5 28.25 44.95 28.75 45.2 L29.7 45.4 30.4 45.3 30.6 46.05 30.85 46.35 32.0 46.65 Q31.5 47.05 31.65 47.55 30.9 46.9 29.85 47.05 28.65 47.1 27.75 47.9 L27.55 48.3 Q27.3 49.0 28.1 49.05 L28.1 49.1 28.25 49.15 28.6 49.15 28.9 49.1 29.3 48.95 30.7 49.0 31.25 49.25 31.65 49.45 31.65 49.6 Q32.1 50.4 33.05 50.65 L33.2 50.9 33.35 51.4 Q32.85 52.35 33.65 53.0 L33.8 53.05 36.4 53.4 37.6 53.8 39.0 54.2 39.5 54.35 39.5 54.5 39.65 54.5 39.75 54.7 Q39.75 55.1 40.0 55.3 L40.1 55.8 40.35 56.35 Q41.1 57.7 42.2 58.7 L42.1 59.0 41.75 58.9 41.6 59.05 41.5 59.2 41.5 59.35 41.45 59.3 Q40.1 58.7 38.6 58.75 L37.05 59.15 Q36.2 59.4 35.45 59.75 L35.35 59.8 35.05 59.9 35.1 59.95 Q34.75 59.5 34.25 59.3 32.85 58.75 31.3 58.75 L29.95 58.85 28.45 58.85 Q26.55 58.65 25.35 57.2 L24.6 56.35 24.25 56.2 23.95 56.25 23.65 56.45 M28.55 42.0 L28.55 41.95 28.2 41.9 28.15 41.8 27.95 41.1 27.85 40.95 28.15 40.6 28.35 40.45 30.4 39.95 30.35 40.0 30.35 40.6 30.4 40.65 Q30.25 40.95 30.55 41.3 30.8 41.6 31.2 41.5 L31.2 41.55 31.55 42.15 31.65 42.3 31.65 42.65 31.7 43.4 31.6 43.45 31.35 43.75 31.4 43.7 Q31.1 42.85 30.35 42.65 L29.85 41.65 29.75 41.5 Q29.5 40.95 28.9 41.0 L28.85 41.05 28.8 41.1 28.6 41.45 28.6 41.6 28.55 42.0 M43.7 45.4 L43.55 45.5 43.65 45.35 43.7 45.4 M39.5 52.5 L39.5 52.2 39.55 52.2 39.65 52.5 39.5 52.5 M31.25 53.45 L30.9 53.5 Q29.3 53.45 28.4 54.65 28.2 54.9 28.35 55.2 29.5 57.55 32.25 57.0 32.85 57.65 33.65 57.25 34.35 56.9 34.1 56.2 33.45 53.95 31.25 53.45 M57.85 61.15 L57.9 61.2 57.85 61.15 M65.0 54.95 L64.55 55.4 Q63.6 56.2 63.6 57.4 63.6 58.15 64.15 58.65 65.4 59.8 67.1 58.95 68.0 58.1 68.4 56.85 69.2 54.45 66.85 53.9 65.75 54.0 65.0 54.95 M62.5 61.7 L62.15 61.6 62.55 61.65 62.8 61.5 62.5 61.7 M45.1 54.7 L44.95 54.5 45.35 54.5 45.1 54.7 M53.25 63.95 L52.75 63.9 53.25 63.95" fill="#999966" fill-rule="evenodd" stroke="none"/>
    <path d="M53.25 49.35 L53.2 49.1 53.55 49.05 55.4 48.1 56.0 47.95 56.7 47.75 56.95 48.15 Q57.45 49.45 58.75 49.0 L59.25 48.8 59.25 48.95 59.2 49.1 58.8 49.5 58.75 49.55 Q58.55 49.55 58.45 49.65 L58.4 49.65 58.3 49.8 58.15 49.85 57.8 49.9 57.05 50.05 56.35 50.25 55.0 50.5 Q53.45 50.65 53.25 49.35 M40.8 49.75 L40.35 49.45 Q39.65 48.8 39.95 47.8 40.85 49.5 42.25 48.0 L42.7 48.15 Q43.65 49.05 44.95 49.0 L45.45 48.9 45.55 48.85 Q45.7 49.9 44.75 50.6 L43.65 50.75 43.5 50.7 43.4 50.7 Q42.45 50.75 41.75 50.25 L41.55 50.1 41.25 49.95 40.8 49.75 M59.25 61.25 Q59.95 60.55 60.95 60.6 L61.25 60.6 Q62.25 60.75 62.8 61.5 L62.55 61.65 62.15 61.6 62.5 61.7 62.65 61.75 64.15 62.15 65.05 62.35 65.3 62.5 Q66.1 63.6 65.7 64.75 L65.45 65.25 65.3 65.45 64.9 66.0 64.75 66.15 Q64.05 66.8 63.0 67.05 L62.75 67.1 Q62.15 67.15 61.7 66.85 L61.5 66.75 61.25 66.65 61.15 66.6 60.8 66.45 60.6 66.3 Q59.8 65.8 59.45 64.8 L59.3 64.65 Q58.2 63.7 58.7 62.6 L59.1 61.95 59.6 61.5 59.25 61.25 M41.95 73.5 L41.8 73.5 41.75 73.45 41.35 73.35 Q40.4 72.95 39.85 72.05 L39.7 71.55 39.95 70.35 39.95 70.3 41.05 68.75 41.6 68.2 41.65 68.2 Q42.15 67.75 42.7 67.6 L42.75 67.55 42.8 67.55 44.4 67.7 45.05 68.3 45.2 68.8 45.25 69.0 45.15 68.8 45.2 69.75 45.1 70.05 44.55 70.9 44.4 71.35 44.35 71.45 43.6 72.25 43.3 72.3 43.15 72.65 43.1 72.8 42.85 73.1 41.95 73.5 M34.6 66.25 Q34.0 65.8 33.8 65.05 33.45 63.7 34.4 62.7 L34.9 62.3 35.2 62.25 35.4 62.15 36.7 61.3 37.9 60.6 39.85 60.95 39.7 61.1 39.8 61.0 39.9 61.0 40.65 61.45 41.0 61.8 40.7 61.9 40.65 61.85 40.4 61.55 39.95 61.25 39.65 61.15 37.95 60.95 36.7 61.9 36.65 61.9 36.0 62.4 35.9 62.45 35.1 62.75 Q34.6 63.1 34.4 63.7 34.15 64.45 34.4 65.05 L34.85 65.65 Q36.3 66.95 38.3 66.6 L38.45 66.6 38.7 66.5 Q38.9 66.25 38.75 65.8 L38.05 64.3 Q37.6 63.6 36.95 63.25 L37.35 62.8 37.55 62.7 37.9 62.65 38.15 62.9 38.35 63.15 Q38.6 63.55 39.0 63.5 L39.1 63.45 39.2 63.25 39.1 62.65 38.8 62.2 38.7 62.1 38.8 62.1 38.85 62.05 39.1 62.05 39.2 62.0 40.0 62.05 40.05 62.0 40.35 62.1 40.8 62.0 40.85 61.95 Q41.35 62.25 41.4 62.95 41.45 64.0 40.65 64.65 L40.55 64.65 40.5 64.7 40.35 64.75 40.1 64.8 39.5 66.0 39.6 66.1 39.65 66.15 Q39.4 66.55 38.95 66.8 L38.7 66.85 37.45 67.1 36.75 67.1 35.5 66.75 34.6 66.25 M54.8 71.25 L54.5 70.6 54.25 70.2 54.0 69.85 Q53.7 69.45 53.75 69.1 L53.6 68.65 Q53.6 68.1 53.95 67.7 54.4 67.15 55.1 67.0 L55.35 66.95 56.3 67.05 Q57.2 67.25 57.8 68.15 L58.0 68.45 58.3 68.95 59.25 70.7 59.3 70.75 59.2 70.8 59.2 70.85 59.3 71.4 59.1 72.35 58.3 73.3 Q57.5 73.8 56.65 73.6 55.75 73.4 55.35 72.6 L55.3 72.1 55.45 72.25 55.05 71.75 54.9 71.45 54.8 71.25 M40.4 71.0 L40.4 71.2 40.55 71.95 40.75 72.3 Q41.4 73.25 42.65 73.0 L42.75 72.95 42.85 72.95 42.9 72.85 Q43.3 72.35 43.15 71.7 42.9 70.4 41.65 70.1 42.15 69.4 43.0 69.5 L43.25 69.45 Q43.75 69.15 43.3 68.75 43.7 68.5 44.05 68.35 L44.6 68.3 44.65 68.3 44.9 68.45 45.0 68.5 45.05 68.5 44.8 68.15 44.7 68.1 Q44.15 67.6 43.25 67.8 43.05 67.9 42.8 68.05 41.8 68.7 41.05 69.55 40.65 70.05 40.65 70.55 L40.55 70.65 40.4 71.0 M62.0 61.55 L61.95 61.5 Q61.35 60.95 60.45 61.15 L60.25 61.2 60.1 61.25 59.95 61.35 59.95 61.45 60.15 61.6 Q60.95 61.75 61.5 62.25 L61.7 62.55 62.45 62.65 62.75 62.6 63.35 62.75 Q62.15 63.1 61.35 64.0 60.8 64.65 60.8 65.5 L60.95 65.85 61.1 66.3 61.15 66.4 61.85 66.7 62.2 66.75 Q63.8 66.6 64.7 65.25 L64.75 65.2 64.9 64.8 Q65.15 64.3 65.0 63.8 L64.65 62.85 Q64.2 62.5 63.6 62.4 L63.45 62.3 62.8 62.15 62.7 62.05 Q62.35 62.0 62.1 61.75 L62.05 61.6 62.0 61.55 M49.05 76.7 L48.6 76.65 Q48.25 76.55 48.05 76.15 L48.0 75.65 48.2 75.2 Q48.4 75.0 48.65 74.9 L49.3 74.65 49.5 74.6 Q50.5 74.55 51.25 75.15 L51.55 75.45 51.6 75.5 51.55 74.75 Q51.25 73.45 50.0 73.25 L49.8 73.25 49.2 73.25 49.05 73.3 48.95 73.35 48.75 73.55 48.65 73.75 48.6 73.8 48.55 73.85 48.2 74.2 Q47.4 75.05 47.8 76.0 L47.95 76.35 48.0 76.4 48.4 76.65 48.5 76.65 48.75 76.7 48.2 76.8 Q47.35 76.55 47.1 75.65 L47.1 75.05 47.25 74.5 Q47.65 73.75 48.35 73.25 L48.55 73.05 49.05 72.75 Q50.7 72.55 51.6 73.85 52.0 74.45 52.0 75.2 52.0 76.1 51.25 76.5 L50.95 76.55 50.6 76.65 50.5 76.65 49.45 76.7 49.05 76.7 M54.75 67.9 L54.45 68.05 54.1 68.4 54.4 68.3 56.25 68.65 Q56.75 68.65 56.95 69.05 L56.75 69.65 56.8 69.85 Q57.0 70.35 57.55 70.5 L57.55 70.65 57.6 70.8 56.85 71.05 Q56.1 71.35 55.75 72.0 L55.6 72.4 56.0 72.6 56.9 72.85 57.0 72.9 Q57.9 73.05 58.55 72.3 L58.75 72.05 58.9 71.05 58.55 70.45 Q57.65 69.3 56.95 67.95 L56.65 67.7 55.2 67.55 54.8 67.85 54.7 67.8 54.75 67.9" fill="#333333" fill-rule="evenodd" stroke="none"/>
    <path d="M53.2 49.1 L53.2 49.05 Q53.15 48.4 53.75 48.1 L54.95 47.3 55.25 47.0 55.55 46.7 Q55.6 46.6 55.7 46.6 L55.85 46.5 56.35 46.4 56.4 46.4 56.85 46.25 Q58.85 46.1 59.25 47.75 L59.25 48.8 58.75 49.0 Q57.45 49.45 56.95 48.15 L56.7 47.75 56.0 47.95 55.4 48.1 53.55 49.05 53.2 49.1 M63.1 48.9 L63.15 48.95 63.3 49.25 63.2 49.65 Q62.9 50.0 62.5 50.0 L61.85 49.75 Q61.05 49.25 61.6 48.5 61.75 48.25 62.0 48.3 L62.6 48.45 63.1 48.9 M63.25 45.9 L63.2 45.95 63.0 46.75 62.5 47.1 62.3 47.15 61.95 47.45 Q60.8 46.8 60.65 45.55 L60.75 45.25 Q60.8 45.15 60.9 45.15 L60.95 44.85 61.1 44.7 61.3 44.65 62.0 45.05 62.5 45.4 62.8 45.6 62.95 45.65 63.25 45.9 M63.75 44.6 L62.55 44.4 62.55 44.45 Q62.35 44.15 62.55 43.75 L62.8 43.5 63.1 43.5 63.5 43.9 63.75 44.05 63.8 44.15 63.8 44.55 63.75 44.6 M64.5 43.8 L64.3 43.1 Q64.15 42.6 64.4 42.3 L64.65 41.85 64.75 41.85 64.9 41.8 Q65.5 42.05 65.9 42.65 L66.4 43.55 66.6 44.3 66.65 44.45 66.55 44.5 Q65.95 45.25 64.95 45.1 64.65 45.05 64.55 45.25 L64.6 45.45 64.5 45.05 64.5 44.95 64.55 44.25 64.5 43.8 M68.2 45.35 L68.35 44.95 Q68.15 44.2 68.6 43.65 L68.85 43.6 69.2 43.75 Q69.8 44.05 69.95 44.95 L70.05 45.85 70.1 46.6 70.05 46.85 70.05 46.7 69.95 46.8 69.3 47.5 68.8 47.55 Q68.45 47.45 68.3 47.75 L68.3 47.85 68.15 47.75 68.0 47.5 67.95 47.35 67.95 47.3 67.95 47.2 68.05 46.05 68.2 45.35 M26.7 44.8 L26.7 44.85 26.75 44.9 26.8 44.95 26.9 45.25 26.85 45.5 26.7 45.9 Q26.45 46.2 26.0 46.15 L25.65 46.0 25.5 45.9 25.35 45.75 Q24.75 45.25 24.6 44.45 L24.55 44.35 Q24.15 43.85 24.6 43.4 L24.65 43.35 24.7 43.3 Q25.2 43.35 25.55 43.65 L25.8 43.95 25.9 44.05 25.95 44.1 26.15 44.25 26.7 44.8 M28.4 43.05 L28.4 42.95 28.45 42.55 28.55 42.0 28.6 41.6 28.6 41.45 28.8 41.1 28.85 41.05 28.9 41.0 Q29.5 40.95 29.75 41.5 L29.85 41.65 30.35 42.65 30.4 42.7 30.45 42.8 Q30.65 43.2 30.4 43.6 30.15 44.0 29.7 44.1 L28.9 44.1 28.75 44.0 28.5 43.6 28.45 43.35 28.4 43.05 M28.2 41.9 L28.05 42.55 28.0 42.6 27.45 42.85 27.35 42.85 27.35 42.9 27.3 42.9 27.2 43.1 26.45 42.95 26.3 42.55 26.25 40.9 26.35 40.35 26.35 39.9 26.65 39.55 Q27.3 39.55 27.55 40.2 L27.6 40.25 27.85 40.95 27.95 41.1 28.15 41.8 28.2 41.9 M30.4 39.95 L30.7 39.35 Q30.65 39.1 30.75 38.9 L30.85 38.75 31.0 38.75 31.15 38.7 Q31.7 38.85 31.75 39.5 L31.7 40.3 31.35 40.75 31.2 40.9 31.15 40.95 30.95 41.0 30.9 41.0 30.5 40.85 30.45 40.8 30.4 40.65 30.35 40.6 30.35 40.0 30.4 39.95 M32.8 42.3 L33.2 41.8 33.45 41.45 33.75 41.2 33.85 41.25 33.9 41.3 34.0 41.4 34.0 41.55 Q34.55 42.0 34.3 42.85 L34.2 43.4 Q34.15 44.05 33.55 44.4 L33.3 44.55 33.3 44.6 Q33.15 44.7 32.95 44.9 L32.75 45.05 32.7 45.1 32.5 45.15 32.3 45.15 32.0 45.05 31.7 44.9 31.35 44.45 31.3 44.3 31.3 44.25 31.3 43.95 31.35 43.75 31.6 43.45 31.7 43.4 31.9 43.2 32.35 42.8 32.8 42.3 M39.95 47.8 L40.0 47.65 40.35 47.1 Q40.8 46.6 41.35 46.45 L41.95 46.4 42.05 46.45 43.15 47.15 Q43.8 47.65 44.6 47.9 45.0 48.35 44.95 49.0 43.65 49.05 42.7 48.15 L42.25 48.0 Q40.85 49.5 39.95 47.8 M40.85 61.95 L40.8 62.0 40.35 62.1 40.05 62.0 40.0 62.05 39.2 62.0 39.1 62.05 38.85 62.05 38.8 62.1 38.7 62.1 38.8 62.2 39.1 62.65 39.2 63.25 39.1 63.45 39.0 63.5 Q38.6 63.55 38.35 63.15 L38.15 62.9 37.9 62.65 37.55 62.7 37.35 62.8 36.95 63.25 Q37.6 63.6 38.05 64.3 L38.75 65.8 Q38.9 66.25 38.7 66.5 L38.45 66.6 38.3 66.6 Q36.3 66.95 34.85 65.65 L34.4 65.05 Q34.15 64.45 34.4 63.7 34.6 63.1 35.1 62.75 L35.9 62.45 36.0 62.4 36.65 61.9 36.7 61.9 37.95 60.95 39.65 61.15 39.95 61.25 40.4 61.55 40.65 61.85 40.7 61.9 40.85 61.95 M40.4 71.0 L40.55 70.65 40.65 70.55 Q40.65 70.05 41.05 69.55 41.8 68.7 42.8 68.05 43.05 67.9 43.25 67.8 44.15 67.6 44.7 68.1 L44.8 68.15 45.05 68.5 45.0 68.5 44.9 68.45 44.65 68.3 44.6 68.3 44.05 68.35 Q43.7 68.5 43.3 68.75 43.75 69.15 43.25 69.45 L43.0 69.5 Q42.15 69.4 41.65 70.1 42.9 70.4 43.15 71.7 43.3 72.35 42.9 72.85 L42.85 72.95 42.75 72.95 42.65 73.0 Q41.4 73.25 40.75 72.3 L40.55 71.95 40.4 71.2 40.4 71.0 M62.0 61.55 L62.05 61.6 62.1 61.75 Q62.35 62.0 62.7 62.05 L62.8 62.15 63.45 62.3 63.6 62.4 Q64.2 62.5 64.65 62.85 L65.0 63.8 Q65.15 64.3 64.9 64.8 L64.75 65.2 64.7 65.25 Q63.8 66.6 62.2 66.75 L61.85 66.7 61.15 66.4 61.1 66.3 60.95 65.85 60.8 65.5 Q60.8 64.65 61.35 64.0 62.15 63.1 63.35 62.75 L62.75 62.6 62.45 62.65 61.7 62.55 61.5 62.25 Q60.95 61.75 60.15 61.6 L59.95 61.45 59.95 61.35 60.1 61.25 60.25 61.2 60.45 61.15 Q61.35 60.95 61.95 61.5 L62.0 61.55 M48.5 76.65 L48.4 76.65 48.0 76.4 47.95 76.35 47.8 76.0 Q47.4 75.05 48.2 74.2 L48.55 73.85 48.6 73.8 48.65 73.75 48.75 73.55 48.95 73.35 49.05 73.3 49.2 73.25 49.8 73.25 50.0 73.25 Q51.25 73.45 51.55 74.75 L51.6 75.5 51.55 75.45 51.25 75.15 Q50.5 74.55 49.5 74.6 L49.3 74.65 48.65 74.9 Q48.4 75.0 48.2 75.2 L48.0 75.65 48.05 76.15 Q48.25 76.55 48.6 76.65 L49.05 76.7 48.5 76.65 M54.8 67.85 L55.2 67.55 56.65 67.7 56.95 67.95 Q57.65 69.3 58.55 70.45 L58.9 71.05 58.75 72.05 58.55 72.3 Q57.9 73.05 57.0 72.9 L56.9 72.85 56.0 72.6 55.6 72.4 55.75 72.0 Q56.1 71.35 56.85 71.05 L57.6 70.8 57.55 70.65 57.55 70.5 Q57.0 70.35 56.8 69.85 L56.75 69.65 56.95 69.05 Q56.75 68.65 56.25 68.65 L54.4 68.3 54.1 68.4 54.45 68.05 54.75 67.9 54.8 67.85 M50.75 79.9 Q50.15 80.6 49.25 80.25 48.85 80.1 48.75 79.75 48.45 78.95 49.2 78.45 49.4 78.3 49.65 78.3 50.7 78.2 50.95 79.15 51.05 79.55 50.75 79.9" fill="#cccccc" fill-rule="evenodd" stroke="none"/>
    <path d="M52.15 78.4 L52.1 78.4 51.05 78.6 51.0 78.55 50.3 78.1 49.75 78.05 49.65 78.05 49.05 78.35 48.95 78.4 48.9 78.45 48.7 78.65 47.25 78.6 47.2 78.6 47.25 78.6 47.2 78.55 47.1 78.5 47.05 78.45 46.6 78.15 45.6 77.35 45.15 77.0 44.4 76.35 44.1 76.1 42.9 75.4 42.65 75.25 Q41.9 74.45 40.85 74.15 L40.35 74.05 37.65 73.35 37.15 73.1 36.8 72.9 35.65 72.5 Q34.0 72.25 32.8 71.2 L32.15 70.55 32.05 70.4 31.55 69.55 Q30.85 68.75 31.05 67.7 L31.0 66.85 30.15 65.65 30.1 65.25 30.35 63.95 30.5 63.45 31.1 62.5 31.3 62.2 31.35 62.15 31.55 62.1 Q31.85 61.65 32.3 61.4 L32.65 61.15 32.8 61.2 33.1 60.8 34.25 60.15 34.4 60.1 35.2 60.2 35.3 60.25 35.35 60.25 35.1 59.95 35.05 59.9 35.35 59.8 35.45 59.75 Q36.2 59.4 37.05 59.15 L38.6 58.75 Q40.1 58.7 41.45 59.3 L41.5 59.35 41.5 59.2 41.6 59.05 41.75 58.9 42.1 59.0 42.15 59.4 42.1 59.05 42.55 58.9 44.15 58.2 Q45.1 57.7 46.1 57.45 L46.95 57.25 47.45 57.1 49.75 56.75 Q51.15 56.7 52.35 57.5 L52.75 57.7 55.45 58.9 56.1 59.15 56.85 59.5 56.95 59.7 56.9 59.5 57.25 59.65 58.35 60.25 58.6 60.4 59.05 60.5 62.3 60.6 Q63.1 60.6 63.8 60.95 L64.9 61.0 65.6 61.2 66.55 61.55 66.8 61.65 66.95 61.7 Q67.25 61.8 67.45 62.0 L68.5 63.05 68.55 63.25 69.1 63.9 Q69.5 64.5 69.45 65.25 69.45 66.1 68.9 66.75 L66.65 68.5 65.55 69.1 65.1 69.35 64.9 69.6 63.35 71.15 61.2 73.15 59.8 74.1 57.1 75.15 56.4 75.5 54.55 76.65 Q53.5 77.2 52.55 77.9 L52.2 78.1 52.05 78.3 52.05 78.4 52.15 78.4 M35.65 60.7 L35.35 60.25 35.35 60.3 35.4 60.4 35.45 60.45 35.3 60.45 Q34.9 60.6 34.55 60.9 L34.0 61.65 33.3 61.8 33.15 61.8 33.05 61.85 33.0 61.85 31.85 62.55 Q30.6 63.65 30.7 65.2 L30.95 65.7 31.95 66.5 32.15 66.6 Q30.7 68.3 32.7 70.05 33.65 70.9 34.8 71.5 38.1 73.25 41.8 73.5 L41.95 73.5 42.5 73.5 43.3 74.25 44.8 75.4 Q45.4 75.75 45.9 76.25 L47.8 77.6 47.95 77.5 48.0 77.55 48.4 77.8 49.05 77.85 49.45 77.85 50.5 77.8 50.6 77.8 51.2 77.6 51.25 77.5 51.4 77.25 52.2 77.35 52.2 77.2 Q56.3 74.6 60.8 72.95 L61.65 71.9 61.9 71.6 65.2 68.9 66.25 67.4 66.45 67.3 67.2 67.35 68.0 67.15 68.05 67.1 68.15 67.05 68.7 66.55 Q69.15 65.85 69.2 65.25 69.25 64.1 67.9 63.2 L67.05 62.65 66.65 62.4 Q64.95 61.4 63.15 61.25 L62.95 61.35 62.9 61.4 62.8 61.5 Q62.25 60.75 61.25 60.6 L60.95 60.6 Q59.95 60.55 59.25 61.25 L58.1 61.15 57.9 61.2 57.85 61.15 57.1 60.15 57.05 60.15 57.05 60.2 56.95 60.25 56.95 60.3 Q56.5 59.7 55.7 59.65 L54.8 59.45 53.2 58.95 Q52.15 57.35 50.25 57.2 L49.5 57.45 49.3 57.5 48.55 57.4 47.7 57.85 46.85 57.75 42.35 59.8 42.6 60.1 42.5 60.15 42.3 60.0 41.75 59.75 38.35 59.5 Q37.25 59.7 36.3 60.3 L35.7 60.75 35.65 60.7" fill="#663300" fill-rule="evenodd" stroke="none"/>
    <path d="M35.45 60.45 L35.65 60.7 35.7 60.75 36.3 60.3 Q37.25 59.7 38.35 59.5 L41.75 59.75 42.3 60.0 42.5 60.15 42.6 60.1 42.35 59.8 46.85 57.75 47.7 57.85 48.55 57.4 49.3 57.5 49.5 57.45 50.25 57.2 Q52.15 57.35 53.2 58.95 L54.8 59.45 55.7 59.65 Q56.5 59.7 56.95 60.3 L56.95 60.25 57.05 60.2 57.05 60.15 57.1 60.15 57.85 61.15 57.9 61.2 58.1 61.15 59.25 61.25 59.6 61.5 59.1 61.95 58.7 62.6 57.45 62.65 Q56.4 62.75 55.45 63.2 L55.0 63.5 Q53.6 64.75 55.15 65.95 L55.5 66.15 56.3 66.35 55.75 66.25 55.8 66.35 56.3 67.05 55.35 66.95 55.1 67.0 Q54.4 67.15 53.95 67.7 53.6 68.1 53.6 68.65 L53.75 69.1 Q53.7 69.45 54.0 69.85 L54.25 70.2 54.5 70.6 54.8 71.25 Q53.0 71.2 51.5 70.4 L51.4 70.15 Q51.15 69.05 50.45 68.15 L50.4 67.5 Q50.5 66.3 49.45 66.05 49.05 66.0 48.8 66.4 L48.6 66.9 Q48.3 68.0 48.6 69.1 L47.35 70.55 Q45.75 70.65 44.4 71.35 L44.55 70.9 45.1 70.05 45.2 69.75 45.15 68.8 45.25 69.0 45.2 68.8 45.05 68.3 44.4 67.7 42.8 67.55 42.75 67.55 42.7 67.6 42.75 67.25 42.55 67.4 Q42.95 67.15 43.0 66.65 L43.0 66.55 44.1 66.0 Q44.55 65.6 45.3 65.6 L45.45 65.55 Q45.9 65.2 46.0 64.6 46.1 63.95 45.6 63.6 43.6 61.95 41.05 61.75 L41.0 61.8 40.65 61.45 39.9 61.0 39.95 60.95 40.8 60.95 39.85 60.95 37.9 60.6 36.7 61.3 35.4 62.15 35.2 62.25 34.9 62.3 34.4 62.7 Q33.45 63.7 33.8 65.05 34.0 65.8 34.6 66.25 L34.55 66.2 34.5 66.35 Q34.35 67.25 34.5 68.2 L34.2 69.05 34.15 69.0 Q33.4 68.55 33.45 67.7 33.45 67.0 32.85 66.6 L31.95 66.5 30.95 65.7 30.7 65.2 Q30.6 63.65 31.85 62.55 L33.0 61.85 33.05 61.85 33.15 61.8 33.3 61.8 34.0 61.65 34.55 60.9 Q34.9 60.6 35.3 60.45 L35.45 60.45 M62.8 61.5 L62.9 61.4 62.95 61.35 63.15 61.25 Q64.95 61.4 66.65 62.4 L67.05 62.65 67.9 63.2 Q69.25 64.1 69.2 65.25 L68.9 65.25 Q67.15 65.0 65.45 65.25 L65.7 64.75 Q66.1 63.6 65.3 62.5 L65.05 62.35 64.15 62.15 62.65 61.75 62.5 61.7 62.8 61.5 M30.65 78.65 L31.6 78.85 31.65 78.85 31.8 78.85 Q31.95 79.15 32.4 79.15 L32.45 79.15 32.65 79.15 33.2 79.2 32.9 80.15 32.75 80.2 Q32.75 81.85 32.2 83.3 L31.95 83.85 31.3 84.3 Q29.5 84.5 28.5 82.95 L28.35 82.7 28.3 82.7 28.3 82.65 28.25 82.6 28.05 82.35 Q26.7 81.0 25.95 79.35 L26.05 78.4 26.5 74.85 26.6 74.35 27.45 75.45 27.5 75.5 27.6 75.7 Q28.55 77.7 30.55 78.6 L30.65 78.65 M65.1 74.25 L64.75 74.7 65.1 74.95 66.55 74.9 68.2 74.5 70.15 73.95 Q71.25 73.5 71.9 72.55 L72.8 71.25 72.95 71.05 72.9 72.1 72.65 73.0 Q71.6 75.25 69.4 76.4 L68.2 76.5 68.05 76.45 67.7 76.5 66.2 76.55 Q64.8 76.35 64.5 75.15 L64.45 75.0 65.1 74.25 M53.25 63.95 L52.75 63.9 53.25 63.95 M58.0 68.45 L58.2 68.45 58.1 68.45 58.05 68.55 58.3 68.95 58.0 68.45" fill="#c7af52" fill-rule="evenodd" stroke="none"/>
    <path d="M69.2 65.25 Q69.15 65.85 68.7 66.55 L68.15 67.05 68.05 67.1 68.0 67.15 67.2 67.35 66.3 67.25 66.25 67.4 65.2 68.9 61.9 71.6 61.65 71.9 60.8 72.95 Q56.3 74.6 52.2 77.2 L52.2 77.35 51.4 77.25 51.25 77.5 51.2 77.6 50.6 77.8 50.5 77.8 49.45 77.85 49.05 77.85 48.4 77.8 48.0 77.55 47.95 77.5 47.8 77.6 45.9 76.25 Q45.4 75.75 44.8 75.4 L43.3 74.25 42.5 73.5 41.95 73.5 42.85 73.1 43.1 72.8 43.15 72.65 43.3 72.3 43.6 72.25 44.35 71.45 44.4 71.35 Q45.75 70.65 47.35 70.55 L48.6 69.1 Q48.3 68.0 48.6 66.9 L48.8 66.4 Q49.05 66.0 49.45 66.05 50.5 66.3 50.4 67.5 L50.45 68.15 Q51.15 69.05 51.4 70.15 L51.5 70.4 Q53.0 71.2 54.8 71.25 L54.9 71.45 55.05 71.75 55.45 72.25 55.3 72.1 55.35 72.6 Q55.75 73.4 56.65 73.6 57.5 73.8 58.3 73.3 L59.1 72.35 59.3 71.4 59.2 70.85 59.2 70.8 59.3 70.75 59.25 70.7 58.3 68.95 58.05 68.55 58.1 68.45 58.2 68.45 58.0 68.45 57.8 68.15 Q57.2 67.25 56.3 67.05 L55.8 66.35 55.75 66.25 56.3 66.35 55.5 66.15 55.15 65.95 Q53.6 64.75 55.0 63.5 L55.45 63.2 Q56.4 62.75 57.45 62.65 L58.7 62.6 Q58.2 63.7 59.3 64.65 L59.45 64.8 Q59.8 65.8 60.6 66.3 L60.8 66.45 61.15 66.6 61.25 66.65 61.5 66.75 61.7 66.85 Q62.15 67.15 62.75 67.1 L63.0 67.05 Q64.05 66.8 64.75 66.15 L64.9 66.0 65.3 65.45 65.45 65.25 Q67.15 65.0 68.9 65.25 L69.2 65.25 M41.8 73.5 Q38.1 73.25 34.8 71.5 33.65 70.9 32.7 70.05 30.7 68.3 32.15 66.6 L31.95 66.5 32.85 66.6 Q33.45 67.0 33.45 67.7 33.4 68.55 34.15 69.0 L34.2 69.05 34.5 68.2 Q34.35 67.25 34.5 66.35 L34.55 66.2 34.6 66.25 35.5 66.75 36.75 67.1 37.45 67.1 38.7 66.85 38.95 66.8 Q39.4 66.55 39.65 66.15 L39.6 66.1 39.5 66.0 40.1 64.8 40.35 64.75 40.5 64.7 40.55 64.65 40.65 64.65 Q41.45 64.0 41.4 62.95 41.35 62.25 40.85 61.95 L40.7 61.9 41.0 61.8 41.05 61.75 Q43.6 61.95 45.6 63.6 46.1 63.95 46.0 64.6 45.9 65.2 45.45 65.55 L45.3 65.6 Q44.55 65.6 44.1 66.0 L43.0 66.55 43.0 66.65 Q42.95 67.15 42.55 67.4 L42.75 67.25 42.7 67.6 Q42.15 67.75 41.65 68.2 L41.6 68.2 41.05 68.75 39.95 70.3 39.95 70.35 39.7 71.55 39.85 72.05 Q40.4 72.95 41.35 73.35 L41.75 73.45 41.8 73.5 M49.05 76.7 L49.45 76.7 50.5 76.65 50.6 76.65 50.95 76.55 51.25 76.5 Q52.0 76.1 52.0 75.2 52.0 74.45 51.6 73.85 50.7 72.55 49.05 72.75 L48.55 73.05 48.35 73.25 Q47.65 73.75 47.25 74.5 L47.1 75.05 47.1 75.65 Q47.35 76.55 48.2 76.8 L48.75 76.7 48.5 76.65 49.05 76.7" fill="#996633" fill-rule="evenodd" stroke="none"/>
  </g>
</svg>
