<?xml version="1.0" encoding="UTF-8" standalone="no"?>
<svg xmlns:xlink="http://www.w3.org/1999/xlink" height="71.05px" width="61.5px" xmlns="http://www.w3.org/2000/svg">
  <g transform="matrix(1.0, 0.0, 0.0, 1.0, -20.65, -17.6)">
    <path d="M57.95 21.05 Q58.7 21.25 59.35 21.7 L59.9 22.1 60.55 21.7 Q61.25 21.2 61.95 21.0 L63.65 20.4 63.9 20.6 64.0 20.65 64.25 20.95 64.25 21.35 62.8 24.4 63.1 24.6 Q64.35 25.4 64.65 26.75 65.1 28.65 64.15 30.5 64.9 31.55 65.25 32.7 67.25 32.75 69.1 33.6 L70.6 34.65 72.45 36.9 77.0 38.6 Q78.95 39.3 80.65 40.35 L81.0 40.75 Q81.6 41.45 81.8 42.35 L81.9 43.45 Q82.4 45.75 81.9 48.25 81.45 50.15 79.65 50.9 78.1 51.7 76.35 52.05 L72.45 53.5 Q69.35 54.6 68.0 57.55 67.5 59.85 65.7 61.35 L65.6 61.7 Q65.2 62.2 65.25 62.75 L65.3 63.0 65.25 63.7 65.3 63.9 65.35 63.95 66.45 64.4 68.75 65.45 70.4 66.25 72.2 67.4 73.45 68.45 74.05 69.15 75.05 70.15 76.2 71.8 Q76.95 73.2 77.1 74.7 L77.2 75.45 77.35 76.75 77.45 78.3 77.45 78.85 77.4 79.2 77.5 79.05 77.5 79.15 77.55 79.9 77.45 80.55 77.35 80.8 77.2 81.15 75.95 83.3 75.5 83.7 75.15 83.95 Q74.05 84.9 72.55 85.25 L71.6 85.25 71.55 85.25 70.35 84.8 70.2 84.75 69.7 84.05 69.5 83.55 69.1 81.35 68.9 80.15 68.1 78.9 67.65 78.5 66.15 77.85 64.65 77.55 61.9 76.5 61.7 76.35 61.5 76.3 61.65 76.25 61.9 76.1 60.05 76.75 56.15 77.75 Q55.0 78.0 53.95 78.6 51.6 79.9 48.85 80.2 L44.45 80.4 44.2 80.4 Q43.25 80.5 42.65 80.9 L42.5 80.85 41.55 81.0 39.9 81.7 36.75 82.85 36.85 83.2 36.9 85.1 Q36.75 86.55 36.0 87.7 L34.95 88.5 33.65 88.65 Q32.0 88.8 30.85 87.6 29.55 86.25 29.0 84.5 28.6 83.1 28.45 81.7 28.15 78.8 28.85 75.9 29.55 73.0 31.3 70.6 L32.75 68.7 Q33.75 67.35 35.1 66.55 L35.25 66.25 34.35 64.3 Q33.85 62.9 33.6 61.5 33.05 58.6 32.9 55.65 L32.5 49.75 31.8 43.9 31.75 43.3 31.3 42.15 28.95 41.2 27.65 40.6 25.2 38.85 Q24.2 37.8 23.55 36.45 22.9 35.15 22.7 33.65 L22.35 30.75 22.1 29.25 22.1 29.1 Q21.3 28.0 21.05 26.65 L20.65 23.75 Q20.55 23.0 21.2 22.8 L21.35 22.85 21.8 23.15 22.65 24.1 23.0 22.6 23.05 22.4 Q23.1 22.1 23.3 21.95 L23.25 21.85 Q22.9 20.35 23.4 18.95 L23.55 18.55 Q23.65 17.8 24.35 17.85 25.2 18.35 25.95 19.0 26.5 18.45 27.2 18.15 L30.15 17.6 Q31.65 17.5 32.7 18.6 L33.55 19.75 33.55 19.7 Q33.95 19.2 34.6 19.2 L34.65 19.2 34.65 19.25 34.7 19.25 35.05 20.15 35.1 20.5 35.35 21.85 35.15 23.25 Q34.95 23.75 34.9 24.3 36.0 25.0 37.25 25.45 L39.8 26.3 40.3 26.25 41.35 25.95 Q43.35 25.6 45.2 26.35 L45.5 26.5 45.55 26.35 Q45.8 25.65 45.65 24.9 46.15 24.0 46.9 23.45 L46.25 22.05 46.15 21.55 46.05 21.45 Q45.35 20.35 46.55 20.1 48.25 19.95 49.75 20.85 L51.5 21.75 Q52.9 21.05 54.5 20.8 L56.2 20.7 56.65 20.8 56.75 20.8 56.75 20.85 57.95 21.05 M61.8 24.7 L62.15 24.2 62.15 24.1 62.25 23.65 62.95 22.45 63.35 21.9 63.9 21.25 63.7 20.9 63.1 21.1 62.75 21.2 62.25 21.4 Q61.25 21.75 60.3 22.2 L60.15 22.35 59.6 23.15 59.45 23.55 59.4 23.75 59.3 24.8 59.4 25.15 59.55 25.5 59.45 25.5 59.4 25.45 59.35 25.4 59.25 25.4 59.15 25.35 Q58.6 24.6 58.8 23.6 L58.9 23.25 59.2 23.05 59.25 22.95 59.35 22.9 59.15 22.7 58.8 22.4 57.6 21.4 57.1 21.35 54.65 21.05 53.5 21.55 52.4 21.95 52.15 22.05 51.8 22.15 51.55 22.3 51.7 22.75 51.65 24.15 51.45 24.45 51.15 24.45 51.25 23.85 51.2 23.7 50.8 22.7 50.5 22.25 50.05 21.8 49.95 21.7 48.3 21.05 46.6 20.4 Q46.45 20.6 46.45 20.95 L46.6 21.15 47.15 22.05 47.2 22.1 47.35 22.35 47.85 22.85 48.05 23.15 48.1 23.25 48.0 23.3 47.2 23.95 46.5 24.6 46.2 25.15 Q46.1 25.85 46.25 26.45 L46.45 27.25 46.3 27.4 46.25 27.4 46.0 27.35 45.6 26.9 45.35 26.7 44.95 26.85 44.5 26.9 44.4 26.85 Q43.95 26.6 43.45 26.5 L41.8 26.3 Q40.85 26.3 40.15 26.75 L39.95 26.8 38.75 26.75 34.65 24.75 34.4 23.95 34.3 23.65 34.4 23.95 Q34.05 24.4 33.35 24.3 32.5 23.95 32.25 23.1 32.1 22.5 32.3 21.95 32.5 21.4 33.0 21.3 L32.85 21.65 32.55 22.3 32.45 22.6 32.45 23.0 32.75 23.5 32.9 23.65 Q33.3 23.95 33.75 23.85 L33.8 23.85 33.85 23.8 33.95 23.75 34.2 23.65 34.25 23.6 34.7 23.1 34.9 22.7 35.0 22.4 35.1 22.2 34.6 20.4 34.5 20.15 34.4 19.85 34.4 19.8 34.1 19.75 33.75 20.2 33.65 20.3 33.25 20.75 33.25 20.8 33.2 20.85 33.05 20.45 32.95 20.25 32.05 19.0 30.8 18.2 29.8 18.2 Q28.2 18.25 26.95 18.85 L26.25 19.25 26.15 19.35 26.1 19.35 25.75 19.6 25.7 19.5 25.65 19.4 Q25.15 18.75 24.55 18.55 L24.15 18.7 23.6 21.1 23.75 21.65 23.8 21.8 23.85 21.9 23.85 21.95 24.05 22.25 24.55 22.4 24.9 22.35 25.9 22.1 26.3 21.75 26.4 21.55 26.25 22.0 25.45 22.9 25.1 23.05 Q24.1 23.2 23.6 22.45 L23.5 22.65 23.25 23.3 23.0 24.45 22.9 24.9 22.6 24.55 22.3 24.25 22.0 24.05 21.45 23.65 21.25 23.45 21.15 23.4 21.0 23.55 21.15 24.5 21.3 25.55 21.3 25.7 21.65 27.0 21.85 27.35 22.2 27.8 22.35 27.95 22.55 28.1 22.6 28.1 22.75 28.15 23.15 28.2 23.55 28.05 23.8 27.9 23.95 27.75 24.0 27.55 24.05 27.25 24.05 27.15 24.0 26.45 23.75 25.6 23.8 25.6 24.45 26.35 Q24.95 27.4 24.4 28.35 24.35 28.9 23.7 28.9 L23.35 28.95 22.6 29.0 22.7 29.75 22.75 30.05 22.9 31.05 23.35 33.9 23.6 34.8 Q24.55 37.75 27.25 39.4 L28.8 40.4 29.65 40.95 29.85 41.1 31.0 41.35 31.15 40.9 31.2 40.75 Q31.4 39.9 31.15 39.05 L31.1 38.75 30.85 37.95 30.8 37.8 30.85 37.8 30.9 37.95 31.15 38.75 31.35 39.15 31.9 41.15 31.95 41.5 32.35 42.35 32.4 42.45 32.55 43.6 32.9 46.15 32.9 46.2 33.05 47.35 33.45 50.75 33.55 50.9 33.45 51.1 33.9 57.15 33.95 58.05 Q34.7 60.45 35.0 63.1 L35.85 65.0 35.85 65.05 35.9 65.15 36.6 66.35 36.65 66.45 36.2 67.05 35.95 66.75 Q35.95 67.3 35.25 67.7 L34.9 67.95 33.8 68.7 32.55 69.95 32.95 69.1 31.5 71.8 29.95 74.95 Q29.55 75.85 29.3 76.85 28.7 79.4 29.25 81.8 28.9 82.3 29.2 83.2 L30.0 85.1 Q30.7 86.45 31.9 87.25 L32.4 87.5 Q35.15 87.9 35.75 85.3 L36.25 83.0 33.6 83.7 33.2 83.8 32.95 83.85 32.75 83.9 32.8 83.85 34.7 82.9 39.3 80.85 39.35 80.8 Q41.1 79.35 43.45 79.4 L43.7 79.05 44.7 78.95 44.8 78.95 45.1 78.9 45.4 78.85 47.2 78.65 50.0 78.65 51.15 78.2 51.75 77.95 51.8 77.95 Q55.4 76.6 59.3 75.85 L60.05 75.7 Q61.3 75.5 62.35 74.75 L63.25 74.1 Q62.95 74.9 63.15 75.5 L62.65 75.75 62.55 75.8 63.05 76.15 63.1 76.15 63.2 75.95 63.6 76.05 64.9 76.45 64.9 76.4 65.05 76.45 Q66.55 76.55 67.8 77.3 L68.0 77.5 70.0 77.95 71.3 78.0 72.0 78.05 Q72.35 78.15 72.2 78.55 L72.15 78.65 71.05 78.85 70.35 79.15 70.15 79.15 69.65 79.2 69.9 80.15 70.05 80.2 Q70.05 81.85 70.6 83.3 L70.85 83.85 71.5 84.3 Q73.3 84.5 74.3 82.95 L74.35 82.95 74.5 82.7 74.5 82.65 74.75 82.35 Q76.1 81.0 76.85 79.35 L76.75 78.4 76.3 74.85 76.25 74.3 76.1 74.15 Q75.9 72.8 75.3 71.6 74.9 70.6 74.05 69.95 L72.95 69.1 Q71.75 68.2 70.55 67.4 L68.0 66.0 66.8 65.4 66.55 65.2 66.4 65.15 66.35 65.15 65.35 64.6 65.05 64.5 64.9 64.4 64.9 64.75 64.35 64.9 64.25 64.9 64.05 64.95 64.1 64.85 64.2 63.8 64.15 62.45 64.1 61.85 66.55 59.2 Q66.6 57.85 67.25 56.8 68.05 55.35 69.2 54.25 L69.3 54.2 69.5 53.65 69.85 53.7 72.0 52.1 Q77.05 51.95 80.6 49.05 L80.75 48.6 81.0 47.9 81.05 47.75 81.15 47.4 81.35 46.05 81.35 44.6 81.3 44.4 81.3 44.25 81.3 44.0 81.15 43.3 80.4 41.3 80.0 40.65 78.1 39.75 76.7 39.15 75.2 38.5 74.25 38.1 72.65 37.35 72.45 37.2 71.75 37.1 71.4 36.8 71.35 36.75 71.3 36.65 71.25 36.6 71.2 36.55 71.05 36.3 69.35 34.35 69.25 34.25 66.95 33.6 66.7 33.5 66.15 33.45 65.4 33.35 65.05 33.25 64.45 33.05 64.15 32.5 63.9 31.95 63.85 31.95 63.3 30.85 63.5 30.2 63.95 28.25 64.1 27.35 64.1 27.3 64.0 26.55 63.9 26.4 63.7 26.1 63.7 26.05 63.65 26.0 63.45 25.8 62.45 25.05 61.8 24.7 M57.8 28.95 L57.6 28.8 57.6 28.75 57.6 28.7 57.75 28.55 57.95 28.35 Q57.8 27.2 56.5 26.75 L55.75 26.35 55.3 26.2 Q54.2 26.75 53.1 27.45 L52.6 27.7 52.45 27.7 52.4 27.7 51.95 27.75 51.75 27.5 51.55 27.3 51.9 27.0 51.95 27.0 Q53.65 25.85 55.7 25.9 56.65 25.95 57.4 26.6 L58.0 27.2 58.2 27.45 58.3 27.6 58.35 27.65 58.35 27.7 58.5 28.1 57.8 28.95 M28.85 20.75 L28.9 20.75 28.8 20.85 Q28.45 21.65 29.05 22.2 L30.05 22.3 Q30.95 22.55 31.1 21.65 L31.15 21.5 31.3 21.7 Q31.55 22.5 30.75 22.85 29.55 23.3 28.65 22.55 L28.6 22.55 28.5 21.9 28.35 21.55 28.35 21.5 28.3 21.4 28.3 21.35 Q28.4 20.9 28.85 20.75 M27.1 27.7 L27.1 27.6 27.2 27.75 27.1 27.7" fill="#000000" fill-rule="evenodd" stroke="none"/>
    <path d="M59.55 25.5 L59.4 25.15 59.3 24.8 59.4 23.75 59.45 23.55 59.6 23.15 60.15 22.35 60.3 22.2 Q61.25 21.75 62.25 21.4 L62.75 21.2 63.1 21.1 63.7 20.9 63.9 21.25 63.35 21.9 62.95 22.45 62.25 23.65 62.15 24.1 62.15 24.2 61.8 24.7 61.55 25.1 61.45 25.3 60.95 25.75 60.0 25.9 59.55 25.5 M48.1 23.25 L48.05 23.15 47.85 22.85 47.35 22.35 47.2 22.1 47.15 22.05 46.6 21.15 46.45 20.95 Q46.45 20.6 46.6 20.4 L48.3 21.05 49.95 21.7 50.05 21.8 50.5 22.25 50.8 22.7 51.2 23.7 51.25 23.85 51.15 24.45 50.8 24.9 50.3 25.2 49.75 25.25 49.65 25.25 49.2 25.1 48.85 24.65 Q48.6 24.35 48.6 23.95 L48.6 23.9 48.1 23.25" fill="#ffffcc" fill-rule="evenodd" stroke="none"/>
    <path d="M59.55 25.5 L60.0 25.9 60.95 25.75 61.45 25.3 61.55 25.1 61.8 24.7 62.45 25.05 63.45 25.8 63.65 26.0 63.7 26.05 63.7 26.1 63.9 26.4 64.0 26.55 64.1 26.85 64.0 27.1 64.1 27.3 64.1 27.35 63.95 28.25 63.5 30.2 Q62.95 30.15 62.6 29.75 63.65 28.95 63.25 27.7 62.95 26.85 62.15 26.45 L61.8 26.35 61.5 26.25 60.8 26.3 60.7 26.25 60.6 26.2 60.5 26.2 60.0 26.0 57.1 25.25 53.5 24.6 51.45 24.45 51.65 24.15 51.7 22.75 51.55 22.3 51.8 22.15 52.15 22.05 52.4 21.95 Q52.85 23.0 54.25 23.1 L57.05 23.35 58.7 23.3 58.9 23.25 58.8 23.6 Q58.6 24.6 59.15 25.35 L59.25 25.4 59.35 25.4 59.4 25.45 59.45 25.5 59.55 25.5 M63.85 31.95 L63.9 31.95 64.15 32.5 64.45 33.05 65.05 33.25 65.0 34.6 64.95 34.85 64.85 35.45 64.8 35.65 Q66.25 35.9 67.2 36.8 L69.0 36.75 69.55 36.6 69.6 36.55 71.05 36.3 71.2 36.55 71.25 36.6 71.3 36.65 71.35 36.75 71.4 36.8 71.75 37.1 72.2 37.25 72.35 37.85 72.4 38.35 72.6 38.8 72.65 39.4 72.65 39.45 72.45 40.0 Q71.75 40.85 71.35 41.85 71.1 42.4 71.0 43.0 L71.25 44.05 71.8 44.65 Q73.1 45.7 72.95 47.35 L73.7 47.75 74.75 48.3 74.1 48.35 80.05 47.85 81.05 47.75 81.0 47.9 80.75 48.6 80.6 49.05 Q77.05 51.95 72.0 52.1 L69.85 53.7 69.5 53.65 69.3 54.2 69.2 54.25 Q68.05 55.35 67.25 56.8 66.6 57.85 66.55 59.2 L64.1 61.85 64.15 62.45 64.2 63.8 64.1 64.85 64.05 64.95 64.25 64.9 64.35 64.9 64.3 65.0 63.6 66.35 63.15 67.1 Q62.8 68.1 61.9 68.6 L60.9 68.55 Q60.2 68.15 60.25 67.25 L60.05 66.6 Q59.5 65.75 59.95 65.1 59.6 64.45 60.2 63.75 61.2 62.6 61.45 61.05 61.55 60.35 61.95 59.8 62.8 58.6 63.95 57.6 L63.9 57.5 63.9 56.95 64.1 56.3 64.15 56.15 64.3 55.65 64.4 54.85 Q63.55 54.15 62.65 53.7 L62.95 53.55 62.6 53.7 Q61.35 54.15 60.25 54.7 L61.9 52.95 64.95 50.55 Q66.5 49.5 68.35 49.1 L68.7 48.9 Q69.9 48.3 70.45 47.0 70.75 46.3 70.65 45.6 L70.85 45.0 Q71.1 43.5 70.75 42.0 L70.5 41.2 Q69.9 39.5 68.3 38.45 67.05 37.65 65.7 37.15 L64.35 36.5 63.95 36.25 Q63.3 35.85 63.0 35.2 L62.45 34.15 61.2 32.9 61.05 32.65 60.65 31.9 61.9 32.65 62.6 32.4 62.7 32.35 63.85 31.95 M72.15 78.65 L72.2 78.55 Q72.35 78.15 72.0 78.05 L71.3 78.0 70.0 77.95 68.0 77.5 67.8 77.3 Q66.55 76.55 65.05 76.45 L64.9 76.4 64.9 76.45 63.6 76.05 63.2 75.95 63.1 76.15 63.05 76.15 62.55 75.8 62.65 75.75 63.15 75.5 Q62.95 74.9 63.25 74.1 L62.35 74.75 Q61.3 75.5 60.05 75.7 L59.3 75.85 Q55.4 76.6 51.8 77.95 L51.75 77.95 51.15 78.15 51.15 78.2 50.0 78.65 47.2 78.65 45.4 78.85 45.1 78.9 44.8 78.95 44.7 78.95 43.7 79.05 43.45 79.4 Q41.1 79.35 39.35 80.8 L39.3 80.85 34.7 82.9 32.8 83.85 32.75 83.9 31.25 83.8 29.8 83.45 29.25 81.8 Q28.7 79.4 29.3 76.85 29.55 75.85 29.95 74.95 L31.5 71.8 32.95 69.1 32.55 69.95 33.8 68.7 34.9 67.95 35.25 67.7 Q35.95 67.3 35.95 66.75 L36.2 67.05 36.65 66.45 36.6 66.35 35.9 65.15 35.85 65.05 35.85 65.0 35.0 63.1 Q34.7 60.45 33.95 58.05 L33.9 57.15 33.45 51.1 33.55 50.9 33.45 50.75 33.05 47.35 32.9 46.2 32.9 46.15 32.55 43.6 32.4 42.45 32.35 42.35 31.95 41.5 31.9 41.15 31.35 39.15 31.15 38.75 30.9 37.95 30.85 37.8 30.8 37.8 30.85 37.95 31.1 38.75 31.15 39.05 Q31.4 39.9 31.2 40.75 L31.15 40.9 31.0 41.35 29.85 41.1 29.65 40.95 28.8 40.4 27.25 39.4 Q24.55 37.75 23.6 34.8 L23.35 33.9 22.9 31.05 22.75 30.05 22.7 29.75 22.6 29.0 23.35 28.95 23.7 28.9 Q24.35 28.9 24.4 28.35 24.95 27.4 24.45 26.35 L23.8 25.6 23.75 25.6 23.5 25.35 23.3 25.15 23.15 25.05 23.05 25.0 22.9 24.9 23.0 24.45 23.25 23.3 23.5 22.65 23.6 22.45 Q24.1 23.2 25.1 23.05 L25.45 22.9 26.25 22.0 26.4 21.55 Q26.7 20.85 26.4 20.25 L26.1 19.9 26.05 19.85 25.9 19.75 25.65 19.75 25.6 19.75 25.75 19.6 26.1 19.35 26.15 19.35 26.25 19.25 26.95 18.85 26.25 19.3 26.15 19.35 26.3 19.4 26.85 19.65 Q27.85 20.15 28.3 21.35 L28.3 21.4 28.35 21.5 28.35 21.55 28.5 21.9 28.6 22.55 28.65 22.55 28.7 23.85 28.3 25.3 Q28.0 25.85 28.15 26.35 28.35 25.25 29.75 24.85 L30.95 25.05 Q32.55 25.7 31.4 26.8 L30.65 26.75 30.1 26.85 Q29.35 27.55 28.4 27.45 L28.2 27.2 27.7 27.55 27.3 28.05 Q26.1 30.55 27.35 32.95 28.4 35.0 30.65 34.8 L31.2 34.55 32.45 33.35 33.8 32.7 34.5 32.85 34.7 32.8 Q35.05 32.6 35.4 32.55 34.95 35.05 36.15 37.4 L37.75 40.6 38.1 41.05 38.15 41.55 38.5 42.6 Q39.45 45.4 40.8 48.05 41.85 50.1 43.25 51.9 L43.85 52.55 45.25 54.2 45.55 54.8 45.6 54.85 46.65 56.45 47.0 57.25 Q47.2 58.9 48.55 59.75 49.4 61.95 51.6 62.9 52.45 63.3 52.95 62.7 L53.35 62.75 53.85 62.45 Q54.7 61.35 55.05 60.0 55.4 58.6 54.85 57.25 L54.85 57.2 56.05 55.55 56.45 55.1 58.1 55.35 58.9 55.45 57.6 56.3 Q57.2 58.1 56.3 59.8 54.75 62.8 53.75 66.0 L53.45 66.65 52.45 66.0 Q51.4 65.95 50.9 66.65 L50.65 66.65 49.45 66.45 Q48.35 65.15 48.35 63.5 48.35 62.6 48.6 61.8 L47.65 61.1 47.0 60.45 45.35 58.15 Q44.9 57.5 44.75 56.8 44.05 54.25 42.75 51.95 L42.25 51.2 39.85 48.15 Q39.15 47.15 39.05 45.95 38.85 43.95 37.6 42.55 L36.25 42.8 35.9 43.45 35.9 43.6 35.85 47.7 35.8 48.75 Q35.8 52.65 37.65 56.1 L38.25 57.05 Q39.4 58.8 39.65 60.75 L39.65 60.8 39.7 61.45 39.7 61.8 39.55 62.3 38.15 64.35 38.0 64.5 38.1 64.8 38.15 65.2 Q38.8 69.0 38.15 72.75 L38.2 73.0 Q38.85 76.5 42.5 77.2 43.15 77.3 43.45 77.75 44.35 76.5 45.95 75.8 46.5 75.55 47.1 75.4 L54.85 75.2 56.7 75.35 58.8 74.95 60.85 74.05 62.35 73.05 63.05 71.2 63.15 71.1 63.15 70.95 Q63.4 69.85 64.6 69.9 L64.75 70.05 64.9 70.3 64.9 73.35 65.05 73.55 65.25 73.9 65.6 74.6 67.7 75.35 67.95 75.45 Q69.2 75.5 69.85 76.45 70.75 77.25 71.85 77.15 73.6 77.0 74.95 75.95 L75.35 75.5 75.25 75.7 Q74.25 77.7 72.25 78.6 L72.15 78.65 M45.6 26.9 L46.0 27.35 46.25 27.4 46.3 27.4 46.45 27.25 46.25 26.45 Q46.1 25.85 46.2 25.15 L46.5 24.6 47.2 23.95 48.0 23.3 48.1 23.25 48.6 23.9 48.6 23.95 Q48.6 24.35 48.85 24.65 L49.2 25.1 49.65 25.25 49.75 25.25 50.3 25.2 50.75 25.0 50.35 25.5 50.15 25.75 49.65 25.6 Q48.55 25.55 47.95 26.5 47.45 27.3 47.75 28.25 L47.9 28.65 48.0 28.85 48.05 28.8 Q46.85 29.45 45.45 29.65 L38.8 30.45 38.45 30.25 36.65 30.55 37.3 29.85 37.3 29.75 Q38.0 27.85 40.05 28.0 L42.2 28.65 42.3 28.7 42.7 28.75 43.7 29.0 43.85 28.9 45.1 28.05 45.35 27.9 45.35 27.85 45.55 27.7 45.7 27.5 45.85 27.35 45.6 26.9 M27.1 27.7 L27.2 27.75 27.1 27.6 27.1 27.7 M33.1 86.35 L33.15 86.35 33.1 86.35" fill="#666633" fill-rule="evenodd" stroke="none"/>
    <path d="M57.95 21.05 L56.75 20.85 56.75 20.8 56.65 20.8 56.2 20.7 54.5 20.8 56.65 20.65 57.85 21.0 57.95 21.05 M64.0 26.55 L64.1 27.3 64.0 27.1 64.1 26.85 64.0 26.55 M63.5 30.2 L63.3 30.85 63.85 31.95 62.7 32.35 62.6 32.4 61.9 32.65 60.65 31.9 60.35 31.75 60.25 31.65 59.7 31.65 59.55 31.2 60.15 31.05 Q60.85 30.75 61.55 30.25 L62.2 30.05 62.55 29.75 62.6 29.75 Q62.95 30.15 63.5 30.2 M65.05 33.25 L65.4 33.35 66.15 33.45 66.7 33.5 66.95 33.6 69.25 34.25 69.35 34.35 71.05 36.3 69.6 36.55 69.55 36.6 69.0 36.75 67.2 36.8 Q66.25 35.9 64.8 35.65 L64.85 35.45 64.95 34.85 65.0 34.6 65.05 33.25 M71.75 37.1 L72.45 37.2 72.65 37.35 74.25 38.1 75.2 38.5 76.7 39.15 78.1 39.75 80.0 40.65 80.4 41.3 81.15 43.3 81.3 44.0 81.3 44.25 81.3 44.4 81.35 44.6 81.35 46.05 81.15 47.4 81.05 47.75 80.05 47.85 74.1 48.35 74.75 48.3 73.7 47.75 72.95 47.35 Q73.1 45.7 71.8 44.65 L71.25 44.05 71.0 43.0 Q71.1 42.4 71.35 41.85 71.75 40.85 72.45 40.0 L72.65 39.45 72.65 39.4 72.6 38.8 72.4 38.35 72.35 37.85 72.2 37.25 71.75 37.1 M64.35 64.9 L64.9 64.75 64.9 64.4 65.05 64.5 65.35 64.6 66.35 65.15 66.4 65.15 66.55 65.2 66.8 65.4 68.0 66.0 70.55 67.4 Q71.75 68.2 72.95 69.1 L74.05 69.95 Q74.9 70.6 75.3 71.6 75.9 72.8 76.1 74.15 L76.25 74.3 76.3 74.85 76.25 74.35 76.2 74.35 75.35 75.45 75.35 75.5 74.95 75.95 Q73.6 77.0 71.85 77.15 70.75 77.25 69.85 76.45 69.2 75.5 67.95 75.45 L67.7 75.35 65.6 74.6 65.25 73.9 65.05 73.55 64.9 73.35 64.9 70.3 64.75 70.05 64.6 69.9 Q63.4 69.85 63.15 70.95 L63.15 71.1 63.05 71.2 62.35 73.05 60.85 74.05 58.8 74.95 56.7 75.35 54.85 75.2 47.1 75.4 Q46.5 75.55 45.95 75.8 44.35 76.5 43.45 77.75 43.15 77.3 42.5 77.2 38.85 76.5 38.2 73.0 L38.15 72.75 Q38.8 69.0 38.15 65.2 L38.1 64.8 38.0 64.5 38.15 64.35 39.55 62.3 39.7 61.8 39.7 61.45 39.65 60.8 39.65 60.75 Q39.4 58.8 38.25 57.05 L37.65 56.1 Q35.8 52.65 35.8 48.75 L35.85 47.7 35.9 43.6 35.9 43.45 36.25 42.8 37.6 42.55 Q38.85 43.95 39.05 45.95 39.15 47.15 39.85 48.15 L42.25 51.2 42.75 51.95 Q44.05 54.25 44.75 56.8 44.9 57.5 45.35 58.15 L47.0 60.45 47.65 61.1 48.6 61.8 Q48.35 62.6 48.35 63.5 48.35 65.15 49.45 66.45 L50.65 66.65 50.5 67.05 50.3 68.5 Q50.25 69.3 50.7 69.9 L50.7 69.95 51.1 70.55 52.0 70.5 52.15 70.4 Q53.1 70.65 53.6 70.0 L53.5 70.2 53.65 70.1 53.85 69.85 54.15 68.95 Q54.15 67.8 53.55 66.8 L53.45 66.65 53.75 66.0 Q54.75 62.8 56.3 59.8 57.2 58.1 57.6 56.3 L58.9 55.45 60.25 54.7 Q61.35 54.15 62.6 53.7 L62.95 53.55 62.65 53.7 Q63.55 54.15 64.4 54.85 L64.3 55.65 64.15 56.15 64.1 56.3 63.9 56.95 63.9 57.5 63.95 57.6 Q62.8 58.6 61.95 59.8 61.55 60.35 61.45 61.05 61.2 62.6 60.2 63.75 59.6 64.45 59.95 65.1 59.5 65.75 60.05 66.6 L60.25 67.25 Q60.2 68.15 60.9 68.55 L61.9 68.6 Q62.8 68.1 63.15 67.1 L63.6 66.35 64.3 65.0 64.35 64.9 M51.75 77.95 L51.15 78.2 51.15 78.15 51.75 77.95 M26.95 18.85 Q28.2 18.25 29.8 18.2 L30.8 18.2 32.05 19.0 32.95 20.25 33.05 20.45 33.2 20.85 33.2 20.9 33.05 21.2 33.0 21.3 Q32.5 21.4 32.3 21.95 32.1 22.5 32.25 23.1 32.5 23.95 33.35 24.3 34.05 24.4 34.4 23.95 L34.3 23.65 34.4 23.95 34.65 24.75 38.75 26.75 39.95 26.8 40.15 26.75 Q40.85 26.3 41.8 26.3 L43.45 26.5 Q43.95 26.6 44.4 26.85 L44.5 26.9 44.95 26.85 45.35 26.7 45.6 26.9 45.85 27.35 45.7 27.5 45.55 27.7 45.35 27.85 45.35 27.9 45.1 28.05 43.85 28.9 43.7 29.0 42.7 28.75 42.3 28.7 42.2 28.65 40.05 28.0 Q38.0 27.85 37.3 29.75 L37.3 29.85 36.65 30.55 35.95 31.75 35.85 32.1 35.4 32.55 Q35.05 32.6 34.7 32.8 L34.5 32.85 33.8 32.7 32.45 33.35 31.2 34.55 30.65 34.8 Q28.4 35.0 27.35 32.95 26.1 30.55 27.3 28.05 L27.7 27.55 28.2 27.2 28.4 27.45 Q29.35 27.55 30.1 26.85 L30.65 26.75 31.4 26.8 Q32.55 25.7 30.95 25.05 L29.75 24.85 Q28.35 25.25 28.15 26.35 28.0 25.85 28.3 25.3 L28.7 23.85 28.65 22.55 Q29.55 23.3 30.75 22.85 31.55 22.5 31.3 21.7 L31.15 21.5 31.15 20.7 Q31.05 19.85 30.5 19.3 L30.4 19.2 Q29.55 19.2 29.2 20.05 L28.85 20.75 Q28.4 20.9 28.3 21.35 27.85 20.15 26.85 19.65 L26.3 19.4 26.15 19.35 26.25 19.3 26.95 18.85 M51.15 24.45 L51.45 24.45 53.5 24.6 57.1 25.25 60.0 26.0 60.5 26.2 60.5 26.25 60.6 26.2 60.7 26.25 60.8 26.3 60.9 26.4 60.8 26.4 Q59.7 26.55 58.7 27.25 L58.3 27.55 58.3 27.6 58.2 27.45 58.0 27.2 57.4 26.6 Q56.65 25.95 55.7 25.9 53.65 25.85 51.95 27.0 L52.1 26.9 51.85 26.6 51.7 26.45 50.1 25.85 49.9 26.05 50.15 25.75 50.35 25.5 50.75 25.0 50.3 25.2 50.8 24.9 51.15 24.45 M52.4 21.95 L53.5 21.55 54.65 21.05 57.1 21.35 57.6 21.4 58.8 22.4 59.15 22.7 59.35 22.9 59.25 22.95 59.2 23.05 58.9 23.25 58.7 23.3 57.05 23.35 54.25 23.1 Q52.85 23.0 52.4 21.95 M46.95 37.35 L46.95 37.4 46.95 37.35 M45.8 49.3 L45.85 49.45 45.75 49.35 45.8 49.3 M46.5 50.55 L46.75 50.7 46.65 50.8 46.5 50.55" fill="#999966" fill-rule="evenodd" stroke="none"/>
    <path d="M24.0 27.55 L23.95 27.75 23.8 27.9 23.55 28.05 23.15 28.2 22.75 28.15 22.6 28.1 22.55 28.1 22.35 27.95 22.2 27.8 21.85 27.35 21.65 27.0 21.3 25.7 21.3 25.55 22.0 26.4 22.35 26.9 22.55 27.0 22.6 27.0 23.95 27.35 24.0 27.55 M34.4 19.85 L34.5 20.15 34.6 20.4 35.1 22.2 35.0 22.4 34.9 22.7 34.7 23.1 34.25 23.6 34.2 23.65 33.95 23.75 33.9 23.65 33.85 23.55 33.85 23.3 33.95 22.95 34.0 22.85 34.2 22.1 34.25 21.7 34.25 21.45 34.3 21.1 34.4 19.85 M60.5 26.2 L60.6 26.2 60.5 26.25 60.5 26.2 M48.6 28.4 L48.6 28.35 48.6 28.4 M44.55 35.65 L44.5 35.6 44.55 35.6 44.55 35.65 M60.75 40.1 L60.75 40.05 60.8 40.0 60.8 40.05 60.75 40.1 M65.05 44.15 L64.8 44.1 65.05 44.1 65.05 44.15 M53.65 70.1 L53.5 70.2 53.6 70.0 53.65 70.1" fill="#666666" fill-rule="evenodd" stroke="none"/>
    <path d="M60.8 26.3 L61.5 26.25 61.8 26.35 62.15 26.45 Q62.95 26.85 63.25 27.7 63.65 28.95 62.6 29.75 L62.55 29.75 62.2 30.05 61.55 30.25 Q60.85 30.75 60.15 31.05 L59.55 31.2 59.5 31.2 59.0 31.2 Q58.3 31.05 57.75 30.35 L57.5 29.8 57.35 29.8 57.35 29.7 57.3 29.4 57.3 29.3 57.5 29.0 57.6 28.8 57.8 28.95 57.65 29.15 Q57.5 29.4 57.5 29.7 L58.65 28.8 59.55 28.85 59.75 28.5 Q59.8 28.1 60.15 28.05 L60.4 28.0 60.35 28.4 Q60.4 29.0 60.8 29.45 61.5 29.8 62.25 29.45 L62.3 29.45 62.9 28.75 62.9 28.65 62.95 28.45 62.9 27.9 62.85 27.75 Q62.65 27.15 62.05 26.85 L61.75 26.85 61.65 26.85 61.6 26.75 61.3 26.75 61.1 26.8 61.0 26.8 60.0 27.1 59.9 27.15 59.15 27.55 59.15 27.6 59.1 27.6 59.05 27.6 58.5 28.1 58.35 27.7 58.35 27.65 58.3 27.6 58.3 27.55 58.7 27.25 Q59.7 26.55 60.8 26.4 L60.9 26.4 60.8 26.3 M51.95 27.0 L51.9 27.0 51.55 27.3 50.75 26.55 50.1 26.2 49.85 26.1 49.4 25.95 48.5 26.5 48.35 26.85 Q48.15 27.4 48.55 28.25 L48.55 28.35 48.1 28.75 48.05 28.8 48.0 28.85 47.9 28.65 47.75 28.25 Q47.45 27.3 47.95 26.5 48.55 25.55 49.65 25.6 L50.15 25.75 49.9 26.05 50.1 25.85 51.7 26.45 51.85 26.6 52.1 26.9 51.95 27.0 M51.95 27.75 L52.4 27.7 52.45 27.7 52.6 27.7 52.7 28.0 Q53.0 29.25 51.9 29.85 L50.1 29.95 49.1 29.15 48.6 28.4 48.6 28.35 48.75 28.35 Q50.35 28.6 50.7 27.25 L51.15 28.35 51.35 28.7 52.15 29.3 52.25 28.8 52.05 28.0 52.0 27.9 51.95 27.8 51.95 27.75 M46.7 46.55 Q47.35 46.15 48.2 46.05 49.2 46.2 50.05 46.8 L50.4 46.8 50.8 47.45 Q51.0 48.0 50.85 48.6 L50.25 49.4 49.5 50.35 49.15 50.6 48.7 51.0 47.7 51.1 Q47.25 51.0 46.75 50.7 L46.5 50.55 Q45.95 50.1 45.85 49.45 L45.8 49.3 Q45.6 48.1 46.05 47.5 46.2 47.25 46.5 47.1 L46.65 46.7 46.75 46.55 46.7 46.55 M54.95 46.8 L55.1 47.15 55.05 46.95 Q55.55 46.65 56.4 46.7 L57.5 47.1 58.2 47.3 58.65 47.8 Q59.35 48.55 59.55 49.45 L59.3 49.65 59.5 49.5 59.6 50.0 59.6 50.25 Q59.55 51.3 58.6 51.75 L57.5 51.85 57.4 51.85 56.95 51.55 56.85 51.4 55.35 51.05 54.9 50.75 54.4 50.05 Q53.8 48.6 54.5 47.25 54.65 46.95 54.95 46.8 M44.55 35.6 L44.7 35.6 45.2 35.9 46.35 36.1 47.9 36.2 48.25 36.1 Q47.9 35.65 47.3 35.65 L46.8 35.15 46.05 34.95 45.8 34.8 Q45.35 34.5 44.9 34.45 L44.7 34.5 44.35 34.35 Q42.75 34.4 42.05 35.15 L41.8 35.5 41.45 37.4 Q41.5 38.0 41.9 38.5 L41.95 38.6 42.0 38.65 42.4 39.0 42.75 39.3 42.5 39.25 42.25 39.2 Q41.2 38.35 41.0 36.95 40.9 35.7 41.75 34.9 42.85 33.8 44.4 33.9 45.95 33.85 47.1 34.8 L47.85 35.3 Q48.45 35.65 48.4 36.35 L48.5 36.5 48.6 37.25 Q48.75 38.05 48.1 38.6 47.05 39.55 45.6 39.45 L42.85 39.35 43.85 39.25 44.6 38.5 Q45.45 37.1 44.55 35.65 L44.55 35.6 M46.95 37.35 L46.95 37.4 46.95 37.35 M49.8 59.6 Q49.75 59.05 50.0 58.45 L50.15 58.2 Q51.15 56.85 52.85 56.75 L53.3 56.9 53.9 57.55 54.0 57.75 54.3 58.6 54.25 58.85 54.3 58.55 Q54.6 59.4 54.4 60.3 L54.35 60.55 54.25 60.9 54.0 61.2 53.7 61.55 53.2 61.85 52.7 62.15 52.45 62.2 52.35 62.25 52.0 62.2 Q51.45 62.1 50.8 61.6 L50.7 61.5 50.35 61.1 50.2 60.6 50.3 59.6 50.25 59.7 50.2 59.5 50.05 59.45 49.8 59.6 M48.0 46.7 L47.8 46.65 47.9 46.7 47.9 46.75 47.85 46.75 Q47.55 47.25 46.85 47.4 46.5 47.7 46.4 48.2 L46.45 49.25 Q46.75 50.35 47.95 50.35 L48.4 50.3 48.45 50.35 48.5 49.95 Q48.45 48.5 47.4 47.6 L48.35 47.55 48.55 47.55 50.35 47.2 50.4 47.2 Q50.15 47.0 49.85 46.95 L49.75 46.9 49.2 46.8 49.2 46.75 48.85 46.75 48.9 46.75 48.2 46.6 48.0 46.7 M60.75 40.05 Q60.6 38.9 61.8 38.9 L65.15 39.15 65.95 39.3 Q67.55 39.85 68.0 41.45 68.2 42.0 68.0 42.5 67.55 43.85 66.2 44.15 L65.05 44.15 65.05 44.1 62.8 43.65 62.5 43.5 62.4 43.4 62.05 42.8 Q61.45 42.9 60.95 42.25 60.45 41.55 60.6 40.65 L60.75 40.1 61.0 40.1 61.25 40.1 62.35 39.95 62.3 40.3 62.2 40.65 62.4 41.15 Q62.95 41.3 63.3 40.85 L63.7 40.4 64.85 40.3 Q65.05 40.15 65.4 40.1 64.25 40.3 64.25 41.7 L64.45 42.6 Q64.7 43.1 65.1 43.45 L66.2 43.8 67.3 43.15 67.5 43.0 67.55 42.45 Q67.25 40.8 66.15 40.05 65.45 39.6 64.4 39.45 L64.15 39.55 62.35 39.3 62.25 39.25 61.45 39.3 Q61.0 39.45 60.8 40.0 L60.75 40.05 M55.85 47.8 Q55.8 48.25 56.25 48.35 L56.95 48.4 57.65 48.6 Q56.75 48.8 56.65 49.95 56.6 50.85 57.3 51.45 L57.95 51.8 58.15 51.7 58.2 51.65 58.65 51.3 58.9 50.85 59.1 50.05 59.05 49.8 Q58.95 49.2 58.45 48.75 L58.4 48.6 Q58.0 47.8 57.1 47.5 L56.95 47.5 55.9 47.0 55.15 47.2 54.9 47.35 55.75 47.6 55.85 47.8 M50.65 66.65 L50.9 66.65 Q51.4 65.95 52.45 66.0 L53.45 66.65 53.55 66.8 Q54.15 67.8 54.15 68.95 L53.85 69.85 53.65 70.1 53.6 70.0 Q53.1 70.65 52.15 70.4 L52.0 70.5 51.1 70.55 50.7 69.95 50.7 69.9 Q50.25 69.3 50.3 68.5 L50.5 67.05 50.65 66.65 M53.55 58.45 L52.85 57.55 52.5 57.45 52.3 57.45 52.1 57.5 51.85 57.5 Q50.85 57.7 50.65 58.75 L50.65 58.9 50.45 59.15 50.55 59.25 50.7 59.75 Q51.35 59.35 52.15 59.35 L52.4 59.35 53.6 60.25 53.85 60.45 54.0 60.55 53.95 60.2 53.9 59.9 53.95 59.8 54.05 59.35 53.75 58.8 53.55 58.45 M51.3 66.8 L51.25 66.8 51.2 66.9 51.05 67.1 51.05 67.15 50.7 67.9 50.65 68.25 50.6 68.7 Q51.5 68.0 52.75 68.3 L52.9 68.4 53.8 69.0 53.7 68.6 53.35 67.55 53.2 67.25 53.1 67.05 52.5 66.55 52.3 66.5 51.5 66.65 51.5 66.7 51.35 66.75 51.3 66.8" fill="#333333" fill-rule="evenodd" stroke="none"/>
    <path d="M23.75 25.6 L24.0 26.45 24.05 27.15 24.05 27.25 24.0 27.55 23.95 27.35 22.6 27.0 22.55 27.0 22.35 26.9 22.0 26.4 21.3 25.55 21.15 24.5 21.0 23.55 21.15 23.4 21.25 23.45 21.45 23.65 22.0 24.05 22.3 24.25 22.6 24.55 22.9 24.9 23.05 25.0 23.15 25.05 23.3 25.15 23.5 25.35 23.75 25.6 M26.4 21.55 L26.3 21.75 25.9 22.1 24.9 22.35 24.55 22.4 24.05 22.25 23.85 21.95 23.85 21.9 23.8 21.8 23.75 21.65 23.6 21.1 24.15 18.7 24.55 18.55 Q25.15 18.75 25.65 19.4 L25.7 19.5 25.75 19.6 25.6 19.75 25.65 19.75 25.9 19.75 26.05 19.85 26.1 19.9 26.4 20.25 Q26.7 20.85 26.4 21.55 M33.2 20.85 L33.25 20.8 33.25 20.75 33.65 20.3 33.75 20.2 34.1 19.75 34.4 19.8 34.4 19.85 34.3 21.1 34.25 21.45 34.25 21.7 34.2 22.1 34.0 22.85 33.95 22.95 33.85 23.3 33.85 23.55 33.9 23.65 33.95 23.75 33.85 23.8 33.8 23.85 33.75 23.85 Q33.3 23.95 32.9 23.65 L32.75 23.5 32.45 23.0 32.45 22.6 32.55 22.3 32.85 21.65 33.0 21.3 33.05 21.2 33.2 20.9 33.2 20.85 M58.5 28.1 L59.05 27.6 59.1 27.6 59.15 27.6 59.15 27.55 59.9 27.15 60.0 27.1 61.0 26.8 61.1 26.8 61.3 26.75 61.6 26.75 61.65 26.85 61.75 26.85 62.05 26.85 Q62.65 27.15 62.85 27.75 L62.9 27.9 62.95 28.45 62.9 28.65 62.9 28.75 62.3 29.45 62.25 29.45 Q61.5 29.8 60.8 29.45 60.4 29.0 60.35 28.4 L60.4 28.0 60.15 28.05 Q59.8 28.1 59.75 28.5 L59.55 28.85 58.65 28.8 57.5 29.7 Q57.5 29.4 57.65 29.15 L57.8 28.95 58.5 28.1 M51.55 27.3 L51.75 27.5 51.95 27.75 51.95 27.8 52.0 27.9 52.05 28.0 52.25 28.8 52.15 29.3 51.35 28.7 51.15 28.35 50.7 27.25 Q50.35 28.6 48.75 28.35 L48.6 28.35 48.55 28.35 48.55 28.25 Q48.15 27.4 48.35 26.85 L48.5 26.5 49.4 25.95 49.85 26.1 50.1 26.2 50.75 26.55 51.55 27.3 M42.4 39.0 L42.0 38.65 41.95 38.6 41.9 38.5 Q41.5 38.0 41.45 37.4 L41.8 35.5 42.05 35.15 Q42.75 34.4 44.35 34.35 L44.7 34.5 44.9 34.45 Q45.35 34.5 45.8 34.8 L46.05 34.95 46.8 35.15 47.3 35.65 Q47.9 35.65 48.25 36.1 L47.9 36.2 46.35 36.1 45.2 35.9 44.7 35.6 44.55 35.6 44.5 35.6 44.55 35.65 Q45.45 37.1 44.6 38.5 L43.85 39.25 42.85 39.35 42.4 39.0 M47.9 46.7 L48.0 46.7 48.2 46.6 48.9 46.75 49.2 46.8 49.75 46.9 49.85 46.95 Q50.15 47.0 50.4 47.2 L50.35 47.2 48.55 47.55 48.35 47.55 47.4 47.6 Q48.45 48.5 48.5 49.95 L48.45 50.35 48.4 50.3 47.95 50.35 Q46.75 50.35 46.45 49.25 L46.4 48.2 Q46.5 47.7 46.85 47.4 47.55 47.25 47.85 46.75 L47.9 46.75 47.9 46.7 M60.75 40.1 L60.8 40.05 60.8 40.0 Q61.0 39.45 61.45 39.3 L62.25 39.25 62.35 39.3 64.15 39.55 64.4 39.45 Q65.45 39.6 66.15 40.05 67.25 40.8 67.55 42.45 L67.5 43.0 67.3 43.15 66.2 43.8 65.1 43.45 Q64.7 43.1 64.45 42.6 L64.25 41.7 Q64.25 40.3 65.4 40.1 65.05 40.15 64.85 40.3 L63.7 40.4 63.3 40.85 Q62.95 41.3 62.4 41.15 L62.2 40.65 62.3 40.3 62.35 39.95 61.25 40.1 61.0 40.1 60.75 40.1 M55.85 47.8 L55.75 47.6 54.9 47.35 55.15 47.2 55.9 47.0 56.95 47.5 57.1 47.5 Q58.0 47.8 58.4 48.6 L58.45 48.75 Q58.95 49.2 59.05 49.8 L59.1 50.05 58.9 50.85 58.65 51.3 58.2 51.65 58.15 51.7 57.95 51.8 57.3 51.45 Q56.6 50.85 56.65 49.95 56.75 48.8 57.65 48.6 L56.95 48.4 56.25 48.35 Q55.8 48.25 55.85 47.8 M31.15 21.5 L31.1 21.65 Q30.95 22.55 30.05 22.3 L29.05 22.2 Q28.45 21.65 28.8 20.85 L28.9 20.75 28.85 20.75 29.2 20.05 Q29.55 19.2 30.4 19.2 L30.5 19.3 Q31.05 19.85 31.15 20.7 L31.15 21.5 M53.55 58.45 L53.75 58.8 54.05 59.35 53.95 59.8 53.9 59.9 53.95 60.2 54.0 60.55 53.85 60.45 53.6 60.25 52.4 59.35 52.15 59.35 Q51.35 59.35 50.7 59.75 L50.55 59.25 50.45 59.15 50.65 58.9 50.65 58.75 Q50.85 57.7 51.85 57.5 L52.1 57.5 52.3 57.45 52.5 57.45 52.85 57.55 53.55 58.45 M51.3 66.8 L51.35 66.75 51.5 66.7 51.5 66.65 52.3 66.5 52.5 66.55 53.1 67.05 53.2 67.25 53.35 67.55 53.7 68.6 53.8 69.0 52.9 68.4 52.75 68.3 Q51.5 68.0 50.6 68.7 L50.65 68.25 50.7 67.9 51.05 67.15 51.05 67.1 51.2 66.9 51.25 66.8 51.3 66.8" fill="#cccccc" fill-rule="evenodd" stroke="none"/>
    <path d="M76.3 74.85 L76.75 78.4 76.85 79.35 Q76.1 81.0 74.75 82.35 L74.5 82.65 74.5 82.7 74.35 82.95 74.3 82.95 Q73.3 84.5 71.5 84.3 L70.85 83.85 70.6 83.3 Q70.05 81.85 70.05 80.2 L69.9 80.15 69.65 79.2 70.15 79.15 70.35 79.15 71.05 78.85 72.15 78.65 72.25 78.6 Q74.25 77.7 75.25 75.7 L75.35 75.5 75.35 75.45 76.2 74.35 76.25 74.35 76.3 74.85 M32.75 83.9 L32.95 83.85 33.2 83.8 33.6 83.7 36.25 83.0 35.75 85.3 Q35.15 87.9 32.4 87.5 L31.9 87.25 Q30.7 86.45 30.0 85.1 L29.2 83.2 Q28.9 82.3 29.25 81.8 L29.8 83.45 31.25 83.8 32.75 83.9 M57.6 28.8 L57.5 29.0 57.3 29.3 57.3 29.4 57.35 29.7 57.35 29.8 57.5 29.8 57.75 30.35 Q58.3 31.05 59.0 31.2 L59.3 31.8 59.55 32.05 59.8 32.05 59.75 31.9 59.85 32.15 60.15 32.95 60.4 33.45 Q60.95 33.4 61.35 33.8 L62.05 34.85 62.25 35.2 63.35 37.5 65.05 37.7 65.6 37.75 Q66.9 38.15 68.05 39.15 L68.45 39.65 69.7 41.95 Q69.15 42.55 68.9 43.45 68.6 44.6 68.9 45.8 66.5 46.3 65.0 48.0 63.5 48.4 62.45 49.35 L61.75 48.75 Q60.55 48.85 59.55 49.45 59.35 48.55 58.65 47.8 L58.2 47.3 57.5 47.1 56.4 46.7 Q55.55 46.65 55.05 46.95 L55.1 47.15 54.95 46.8 54.45 46.0 54.2 45.8 54.15 45.8 54.15 45.65 53.95 44.75 Q54.75 42.7 55.05 40.5 L54.9 39.5 Q55.05 37.3 54.85 35.15 L54.75 34.05 54.7 33.9 54.55 33.8 54.45 33.75 54.4 33.75 Q52.55 34.3 52.5 36.45 52.45 37.15 52.0 37.75 51.45 38.55 51.3 39.45 L50.7 40.55 Q50.3 41.0 50.25 41.6 50.05 43.3 50.8 44.85 50.5 45.8 50.5 46.8 L50.4 46.8 50.05 46.8 Q49.2 46.2 48.2 46.05 47.35 46.15 46.7 46.55 L46.2 46.5 Q45.0 46.4 44.0 45.8 L43.3 45.4 Q42.25 41.55 39.55 38.6 39.65 36.8 38.8 35.2 L38.4 34.6 Q39.2 32.8 38.05 31.4 L37.6 31.1 Q37.0 31.3 36.6 31.6 L36.85 31.1 Q37.55 30.15 38.7 30.7 L39.0 30.85 39.85 31.1 40.3 31.15 Q44.1 31.5 47.6 30.3 L48.65 29.6 49.1 29.15 50.1 29.95 51.9 29.85 Q53.0 29.25 52.7 28.0 L52.6 27.7 53.1 27.45 Q54.2 26.75 55.3 26.2 L55.75 26.35 56.5 26.75 Q57.8 27.2 57.95 28.35 L57.75 28.55 57.6 28.7 57.6 28.75 57.6 28.8 M42.4 39.0 L42.85 39.35 45.6 39.45 Q47.05 39.55 48.1 38.6 48.75 38.05 48.6 37.25 L48.5 36.5 48.4 36.35 Q48.45 35.65 47.85 35.3 L47.1 34.8 Q45.95 33.85 44.4 33.9 42.85 33.8 41.75 34.9 40.9 35.7 41.0 36.95 41.2 38.35 42.25 39.2 L42.5 39.25 42.75 39.3 42.4 39.0 M60.75 40.05 L60.75 40.1 60.6 40.65 Q60.45 41.55 60.95 42.25 61.45 42.9 62.05 42.8 L62.4 43.4 62.5 43.5 62.8 43.65 65.05 44.1 64.8 44.1 65.05 44.15 66.2 44.15 Q67.55 43.85 68.0 42.5 68.2 42.0 68.0 41.45 67.55 39.85 65.95 39.3 L65.15 39.15 61.8 38.9 Q60.6 38.9 60.75 40.05 M33.1 86.35 L33.15 86.35 33.1 86.35" fill="#c7af52" fill-rule="evenodd" stroke="none"/>
    <path d="M36.6 31.6 Q37.0 31.3 37.6 31.1 L38.05 31.4 Q39.2 32.8 38.4 34.6 L38.8 35.2 Q39.65 36.8 39.55 38.6 42.25 41.55 43.3 45.4 L44.0 45.8 Q45.0 46.4 46.2 46.5 L46.7 46.55 46.75 46.55 46.65 46.7 46.5 47.1 Q46.2 47.25 46.05 47.5 45.6 48.1 45.8 49.3 L45.75 49.35 45.85 49.45 Q45.95 50.1 46.5 50.55 L46.65 50.8 46.75 50.7 Q47.25 51.0 47.7 51.1 L48.7 51.0 49.15 50.6 49.5 50.35 50.25 49.4 50.85 48.6 Q51.0 48.0 50.8 47.45 L50.4 46.8 50.5 46.8 Q50.5 45.8 50.8 44.85 50.05 43.3 50.25 41.6 50.3 41.0 50.7 40.55 L51.3 39.45 Q51.45 38.55 52.0 37.75 52.45 37.15 52.5 36.45 52.55 34.3 54.4 33.75 L54.45 33.75 54.55 33.8 54.7 33.9 54.75 34.05 54.85 35.15 Q55.05 37.3 54.9 39.5 L55.05 40.5 Q54.75 42.7 53.95 44.75 L54.15 45.65 54.15 45.8 54.2 45.8 54.45 46.0 54.95 46.8 Q54.65 46.95 54.5 47.25 53.8 48.6 54.4 50.05 L54.9 50.75 55.35 51.05 56.85 51.4 56.95 51.55 57.4 51.85 57.5 51.85 58.6 51.75 Q59.55 51.3 59.6 50.25 L59.6 50.0 59.5 49.5 59.3 49.65 59.55 49.45 Q60.55 48.85 61.75 48.75 L62.45 49.35 Q63.5 48.4 65.0 48.0 66.5 46.3 68.9 45.8 68.6 44.6 68.9 43.45 69.15 42.55 69.7 41.95 L70.05 42.75 Q70.45 43.6 70.3 44.5 L70.15 45.35 70.15 45.4 69.95 46.15 Q68.7 49.05 65.6 48.8 L64.4 49.95 Q63.15 51.1 61.6 51.7 L59.85 54.2 58.95 54.8 Q57.55 55.15 56.75 53.8 L56.65 53.8 56.5 53.8 55.25 54.45 54.9 54.6 54.8 55.35 54.35 56.15 54.35 57.5 54.3 58.5 54.25 58.85 54.3 58.6 54.0 57.75 53.9 57.55 53.3 56.9 52.85 56.75 Q51.15 56.85 50.15 58.2 L50.0 58.45 Q49.75 59.05 49.8 59.6 L48.6 59.5 48.45 59.3 Q48.05 58.85 48.15 58.3 L48.65 56.85 Q47.0 55.95 46.0 54.35 L42.0 48.1 41.8 47.65 40.25 43.25 39.45 41.5 38.85 40.35 38.3 39.35 37.15 37.9 Q35.7 36.55 36.7 35.05 L36.65 34.7 36.65 34.0 36.7 32.75 Q36.4 32.2 36.55 31.7 L36.6 31.6 M47.9 46.7 L47.8 46.65 48.0 46.7 47.9 46.7 M48.9 46.75 L48.85 46.75 49.2 46.75 49.2 46.8 48.9 46.75" fill="#996633" fill-rule="evenodd" stroke="none"/>
    <path d="M59.0 31.2 L59.5 31.2 59.55 31.2 59.7 31.65 60.25 31.65 60.35 31.75 60.65 31.9 61.05 32.65 61.2 32.9 62.45 34.15 63.0 35.2 Q63.3 35.85 63.95 36.25 L64.35 36.5 65.7 37.15 Q67.05 37.65 68.3 38.45 69.9 39.5 70.5 41.2 L70.75 42.0 Q71.1 43.5 70.85 45.0 L70.65 45.6 Q70.75 46.3 70.45 47.0 69.9 48.3 68.7 48.9 L68.35 49.1 Q66.5 49.5 64.95 50.55 L61.9 52.95 60.25 54.7 58.9 55.45 58.1 55.35 56.45 55.1 56.05 55.55 54.85 57.2 54.85 57.25 Q55.4 58.6 55.05 60.0 54.7 61.35 53.85 62.45 L53.35 62.75 52.95 62.7 Q52.45 63.3 51.6 62.9 49.4 61.95 48.55 59.75 47.2 58.9 47.0 57.25 L46.65 56.45 45.6 54.85 45.55 54.8 45.25 54.2 43.85 52.55 43.25 51.9 Q41.85 50.1 40.8 48.05 39.45 45.4 38.5 42.6 L38.15 41.55 38.1 41.05 37.75 40.6 36.15 37.4 Q34.95 35.05 35.4 32.55 L35.85 32.1 35.95 31.75 36.65 30.55 38.45 30.25 38.8 30.45 45.45 29.65 Q46.85 29.45 48.05 28.8 L48.1 28.75 48.55 28.35 48.6 28.35 48.6 28.4 49.1 29.15 48.65 29.6 47.6 30.3 Q44.1 31.5 40.3 31.15 L39.85 31.1 39.0 30.85 38.7 30.7 Q37.55 30.15 36.85 31.1 L36.6 31.6 36.55 31.7 Q36.4 32.2 36.7 32.75 L36.65 34.0 36.65 34.7 36.7 35.05 Q35.7 36.55 37.15 37.9 L38.3 39.35 38.85 40.35 39.45 41.5 40.25 43.25 41.8 47.65 42.0 48.1 46.0 54.35 Q47.0 55.95 48.65 56.85 L48.15 58.3 Q48.05 58.85 48.45 59.3 L48.6 59.5 49.8 59.6 50.05 59.45 50.2 59.5 50.25 59.7 50.3 59.6 50.2 60.6 50.35 61.1 50.7 61.5 50.8 61.6 Q51.45 62.1 52.0 62.2 L52.35 62.25 52.45 62.2 52.7 62.15 53.2 61.85 53.7 61.55 54.0 61.2 54.25 60.9 54.35 60.55 54.4 60.3 Q54.6 59.4 54.3 58.55 L54.25 58.85 54.3 58.5 54.35 57.5 54.35 56.15 54.8 55.35 54.9 54.6 55.25 54.45 56.5 53.8 56.65 53.8 56.75 53.8 Q57.55 55.15 58.95 54.8 L59.85 54.2 61.6 51.7 Q63.15 51.1 64.4 49.95 L65.6 48.8 Q68.7 49.05 69.95 46.15 L70.15 45.4 70.15 45.35 70.3 44.5 Q70.45 43.6 70.05 42.75 L69.7 41.95 68.45 39.65 68.05 39.15 Q66.9 38.15 65.6 37.75 L65.05 37.7 63.35 37.5 62.25 35.2 62.05 34.85 61.35 33.8 Q60.95 33.4 60.4 33.45 L60.15 32.95 59.85 32.15 59.75 31.9 59.8 32.05 59.55 32.05 59.3 31.8 59.0 31.2" fill="#663300" fill-rule="evenodd" stroke="none"/>
  </g>
</svg>
