<?xml version="1.0" encoding="UTF-8" standalone="no"?>
<svg xmlns:xlink="http://www.w3.org/1999/xlink" height="69.1px" width="29.1px" xmlns="http://www.w3.org/2000/svg">
  <g transform="matrix(1.0, 0.0, 0.0, 1.0, 24.6, -37.95)">
    <path d="M-23.1 63.0 L-23.2 63.2 Q-26.1 72.95 -23.05 82.05 -22.05 85.0 -20.4 87.9 L-19.55 89.3 -19.05 90.1 -17.45 92.9 Q-13.8 99.4 -7.45 102.3 L-4.9 107.05 -4.8 106.95 -4.1 105.75 -2.7 103.6 0.5 103.2 Q1.15 99.15 1.8 95.15 L2.3 92.05 Q2.85 88.65 3.4 85.25 L3.7 83.75 Q4.1 81.3 4.5 78.85 4.2 75.05 3.9 71.25 3.2 63.05 2.5 54.85 L2.5 54.45 2.4 53.55 Q0.95 51.0 -0.5 48.5 L-0.5 48.4 Q-1.5 46.6 -2.5 44.8 -4.1 42.0 -5.65 39.2 L-5.45 37.95 -5.85 37.95 Q-8.05 38.05 -10.25 38.1 L-12.25 39.95 -12.35 40.05 -13.95 43.4 Q-15.65 47.0 -17.3 50.6 -18.15 52.45 -19.0 54.3 -19.35 55.0 -19.7 55.7 -21.4 59.35 -23.1 63.0" fill="#6699ff" fill-rule="evenodd" stroke="none">
      <animate attributeName="fill" dur="2s" repeatCount="indefinite" values="#6699ff;#6699ff"/>
      <animate attributeName="fill-opacity" dur="2s" repeatCount="indefinite" values="1.0;1.0"/>
      <animate attributeName="d" dur="2s" repeatCount="indefinite" values="M-23.1 63.0 L-23.2 63.2 Q-26.1 72.95 -23.05 82.05 -22.05 85.0 -20.4 87.9 L-19.55 89.3 -19.05 90.1 -17.45 92.9 Q-13.8 99.4 -7.45 102.3 L-4.9 107.05 -4.8 106.95 -4.1 105.75 -2.7 103.6 0.5 103.2 Q1.15 99.15 1.8 95.15 L2.3 92.05 Q2.85 88.65 3.4 85.25 L3.7 83.75 Q4.1 81.3 4.5 78.85 4.2 75.05 3.9 71.25 3.2 63.05 2.5 54.85 L2.5 54.45 2.4 53.55 Q0.95 51.0 -0.5 48.5 L-0.5 48.4 Q-1.5 46.6 -2.5 44.8 -4.1 42.0 -5.65 39.2 L-5.45 37.95 -5.85 37.95 Q-8.05 38.05 -10.25 38.1 L-12.25 39.95 -12.35 40.05 -13.95 43.4 Q-15.65 47.0 -17.3 50.6 -18.15 52.45 -19.0 54.3 -19.35 55.0 -19.7 55.7 -21.4 59.35 -23.1 63.0;M-16.45 90.3 L-16.45 90.3 Q-19.7 94.95 -15.65 98.95 -15.95 100.6 -15.6 102.25 L-15.2 103.0 -14.85 103.35 -13.35 104.25 Q-10.05 105.85 -6.45 105.1 L-3.9 104.25 -3.8 104.25 -3.05 104.45 -1.5 104.4 0.1 103.9 Q1.7 102.95 1.25 100.2 L1.8 98.65 Q2.3 96.9 1.75 95.15 L2.5 94.7 Q3.6 93.7 3.95 92.6 4.45 90.9 3.15 88.95 0.85 85.45 -2.05 82.5 L-2.1 82.3 -2.3 81.85 Q-3.15 80.4 -4.95 80.55 L-4.95 80.6 Q-6.15 80.7 -7.0 81.15 -6.5 79.4 -8.45 78.55 L-9.1 78.3 -9.35 78.2 Q-10.45 78.3 -11.35 78.95 L-12.35 79.95 -12.35 79.95 -13.2 81.65 Q-13.9 84.0 -11.95 85.2 -12.5 85.85 -12.7 87.0 -13.2 87.15 -13.6 87.45 -15.3 88.6 -16.45 90.3"/>
    </path>
    <path d="M-23.1 63.0 Q-21.4 59.35 -19.7 55.7 -19.35 55.0 -19.0 54.3 -18.15 52.45 -17.3 50.6 -15.65 47.0 -13.95 43.4 L-12.35 40.05 -12.25 39.95 -10.25 38.1 Q-8.05 38.05 -5.85 37.95 L-5.45 37.95 -5.65 39.2 Q-4.1 42.0 -2.5 44.8 -1.5 46.6 -0.5 48.4 L-0.5 48.5 Q0.95 51.0 2.4 53.55 L2.5 54.45 2.5 54.85 Q3.2 63.05 3.9 71.25 4.2 75.05 4.5 78.85 4.1 81.3 3.7 83.75 L3.4 85.25 Q2.85 88.65 2.3 92.05 L1.8 95.15 Q1.15 99.15 0.5 103.2 L-2.7 103.6 -4.1 105.75 -4.8 106.95 -4.9 107.05 -7.45 102.3 Q-13.8 99.4 -17.45 92.9 L-19.05 90.1 -19.55 89.3 -20.4 87.9 Q-22.05 85.0 -23.05 82.05 -26.1 72.95 -23.2 63.2 L-23.1 63.0" fill="none" stroke="#000000" stroke-linecap="round" stroke-linejoin="round" stroke-opacity="0.0" stroke-width="1.0">
      <animate attributeName="stroke" dur="2s" repeatCount="indefinite" values="#000000;#000001"/>
      <animate attributeName="stroke-width" dur="2s" repeatCount="indefinite" values="0.0;0.0"/>
      <animate attributeName="fill-opacity" dur="2s" repeatCount="indefinite" values="0.0;0.0"/>
      <animate attributeName="d" dur="2s" repeatCount="indefinite" values="M-23.1 63.0 Q-21.4 59.35 -19.7 55.7 -19.35 55.0 -19.0 54.3 -18.15 52.45 -17.3 50.6 -15.65 47.0 -13.95 43.4 L-12.35 40.05 -12.25 39.95 -10.25 38.1 Q-8.05 38.05 -5.85 37.95 L-5.45 37.95 -5.65 39.2 Q-4.1 42.0 -2.5 44.8 -1.5 46.6 -0.5 48.4 L-0.5 48.5 Q0.95 51.0 2.4 53.55 L2.5 54.45 2.5 54.85 Q3.2 63.05 3.9 71.25 4.2 75.05 4.5 78.85 4.1 81.3 3.7 83.75 L3.4 85.25 Q2.85 88.65 2.3 92.05 L1.8 95.15 Q1.15 99.15 0.5 103.2 L-2.7 103.6 -4.1 105.75 -4.8 106.95 -4.9 107.05 -7.45 102.3 Q-13.8 99.4 -17.45 92.9 L-19.05 90.1 -19.55 89.3 -20.4 87.9 Q-22.05 85.0 -23.05 82.05 -26.1 72.95 -23.2 63.2 L-23.1 63.0;M-16.45 90.3 Q-15.3 88.6 -13.6 87.45 -13.2 87.15 -12.7 87.0 -12.5 85.85 -11.95 85.2 -13.9 84.0 -13.2 81.65 L-12.35 79.95 -12.35 79.95 -11.35 78.95 Q-10.45 78.3 -9.35 78.2 L-9.1 78.3 -8.45 78.55 Q-6.5 79.4 -7.0 81.15 -6.15 80.7 -4.95 80.6 L-4.95 80.55 Q-3.15 80.4 -2.3 81.85 L-2.1 82.3 -2.05 82.5 Q0.85 85.45 3.15 88.95 4.45 90.9 3.95 92.6 3.6 93.7 2.5 94.7 L1.75 95.15 Q2.3 96.9 1.8 98.65 L1.25 100.2 Q1.7 102.95 0.1 103.9 L-1.5 104.4 -3.05 104.45 -3.8 104.25 -3.9 104.25 -6.45 105.1 Q-10.05 105.85 -13.35 104.25 L-14.85 103.35 -15.2 103.0 -15.6 102.25 Q-15.95 100.6 -15.65 98.95 -19.7 94.95 -16.45 90.3 L-16.45 90.3"/>
    </path>
  </g>
</svg>
