<?xml version="1.0" encoding="UTF-8" standalone="no"?>
<svg xmlns:xlink="http://www.w3.org/1999/xlink" height="46.3px" width="33.7px" xmlns="http://www.w3.org/2000/svg">
  <g transform="matrix(1.0, 0.0, 0.0, 1.0, 18.5, 28.8)">
    <path d="M-1.15 -6.75 L-1.15 -6.65 -0.85 -5.05 Q-0.65 -3.95 -0.5 -2.85 L-0.1 -0.45 0.3 1.75 -0.45 3.15 0.3 4.65 0.5 4.55 Q2.5 2.95 4.5 1.35 L4.7 1.25 4.7 1.25 Q5.1 0.65 5.45 0.05 L5.65 -0.15 Q7.55 -2.2 9.45 -4.2 L9.75 -4.5 10.55 -5.4 12.75 -7.7 13.85 -8.9 Q13.3 -15.0 12.8 -21.05 L12.7 -22.45 13.05 -23.8 11.85 -24.3 9.85 -25.0 8.75 -24.0 Q8.15 -23.5 7.6 -23.0 L7.1 -23.2 Q6.3 -23.45 5.5 -23.7 4.8 -23.95 4.1 -24.15 L3.9 -24.25 3.15 -22.8 3.35 -22.0 3.45 -21.55 3.55 -20.85 Q2.4 -18.45 1.3 -16.05 L1.1 -15.6 -0.3 -15.9 -0.95 -16.05 Q-1.05 -11.4 -1.15 -6.75" fill="#6699ff" fill-rule="evenodd" stroke="none">
      <animate attributeName="fill" dur="2s" repeatCount="indefinite" values="#6699ff;#6699ff"/>
      <animate attributeName="fill-opacity" dur="2s" repeatCount="indefinite" values="1.0;1.0"/>
      <animate attributeName="d" dur="2s" repeatCount="indefinite" values="M-1.15 -6.75 L-1.15 -6.65 -0.85 -5.05 Q-0.65 -3.95 -0.5 -2.85 L-0.1 -0.45 0.3 1.75 -0.45 3.15 0.3 4.65 0.5 4.55 Q2.5 2.95 4.5 1.35 L4.7 1.25 4.7 1.25 Q5.1 0.65 5.45 0.05 L5.65 -0.15 Q7.55 -2.2 9.45 -4.2 L9.75 -4.5 10.55 -5.4 12.75 -7.7 13.85 -8.9 Q13.3 -15.0 12.8 -21.05 L12.7 -22.45 13.05 -23.8 11.85 -24.3 9.85 -25.0 8.75 -24.0 Q8.15 -23.5 7.6 -23.0 L7.1 -23.2 Q6.3 -23.45 5.5 -23.7 4.8 -23.95 4.1 -24.15 L3.9 -24.25 3.15 -22.8 3.35 -22.0 3.45 -21.55 3.55 -20.85 Q2.4 -18.45 1.3 -16.05 L1.1 -15.6 -0.3 -15.9 -0.95 -16.05 Q-1.05 -11.4 -1.15 -6.75;M-18.5 1.5 L-18.5 1.5 -18.45 4.45 Q-16.85 5.35 -15.35 6.8 L-12.45 9.8 -9.8 12.8 -7.9 14.95 -5.95 17.2 -5.75 17.5 Q-2.35 13.7 2.6 16.35 L2.85 16.35 2.95 16.35 Q4.15 15.95 5.25 15.25 L5.4 14.75 Q7.05 9.95 12.55 8.7 L13.4 8.3 15.0 6.95 15.2 1.5 15.15 -1.35 Q14.7 -13.75 10.3 -22.75 L9.1 -25.0 7.8 -27.05 6.35 -28.8 3.35 -26.75 1.25 -25.25 Q0.1 -24.45 -1.4 -24.5 L-2.2 -24.55 Q-3.6 -24.7 -4.35 -26.05 -5.1 -27.35 -5.35 -28.65 L-5.55 -28.45 -7.7 -26.2 -8.65 -25.15 -9.25 -24.45 -8.65 -23.2 Q-6.65 -18.4 -12.55 -16.1 L-13.45 -15.8 -16.2 -16.0 -16.5 -14.9 Q-18.5 -7.5 -18.5 1.5"/>
    </path>
    <path d="M-1.15 -6.75 Q-1.05 -11.4 -0.95 -16.05 L-0.3 -15.9 1.1 -15.6 1.3 -16.05 Q2.4 -18.45 3.55 -20.85 L3.45 -21.55 3.35 -22.0 3.15 -22.8 3.9 -24.25 4.1 -24.15 Q4.8 -23.95 5.5 -23.7 6.3 -23.45 7.1 -23.2 L7.6 -23.0 Q8.15 -23.5 8.75 -24.0 L9.85 -25.0 11.85 -24.3 13.05 -23.8 12.7 -22.45 12.8 -21.05 Q13.3 -15.0 13.85 -8.9 L12.75 -7.7 10.55 -5.4 9.75 -4.5 9.45 -4.2 Q7.55 -2.2 5.65 -0.15 L5.45 0.05 Q5.1 0.65 4.7 1.25 L4.7 1.25 4.5 1.35 Q2.5 2.95 0.5 4.55 L0.3 4.65 -0.45 3.15 0.3 1.75 -0.1 -0.45 -0.5 -2.85 Q-0.65 -3.95 -0.85 -5.05 L-1.15 -6.65 -1.15 -6.75" fill="none" stroke="#000000" stroke-linecap="round" stroke-linejoin="round" stroke-opacity="0.0" stroke-width="1.0">
      <animate attributeName="stroke" dur="2s" repeatCount="indefinite" values="#000000;#000001"/>
      <animate attributeName="stroke-width" dur="2s" repeatCount="indefinite" values="0.0;0.0"/>
      <animate attributeName="fill-opacity" dur="2s" repeatCount="indefinite" values="0.0;0.0"/>
      <animate attributeName="d" dur="2s" repeatCount="indefinite" values="M-1.15 -6.75 Q-1.05 -11.4 -0.95 -16.05 L-0.3 -15.9 1.1 -15.6 1.3 -16.05 Q2.4 -18.45 3.55 -20.85 L3.45 -21.55 3.35 -22.0 3.15 -22.8 3.9 -24.25 4.1 -24.15 Q4.8 -23.95 5.5 -23.7 6.3 -23.45 7.1 -23.2 L7.6 -23.0 Q8.15 -23.5 8.75 -24.0 L9.85 -25.0 11.85 -24.3 13.05 -23.8 12.7 -22.45 12.8 -21.05 Q13.3 -15.0 13.85 -8.9 L12.75 -7.7 10.55 -5.4 9.75 -4.5 9.45 -4.2 Q7.55 -2.2 5.65 -0.15 L5.45 0.05 Q5.1 0.65 4.7 1.25 L4.7 1.25 4.5 1.35 Q2.5 2.95 0.5 4.55 L0.3 4.65 -0.45 3.15 0.3 1.75 -0.1 -0.45 -0.5 -2.85 Q-0.65 -3.95 -0.85 -5.05 L-1.15 -6.65 -1.15 -6.75;M-18.5 1.5 Q-18.5 -7.5 -16.5 -14.9 L-16.2 -16.0 -13.45 -15.8 -12.55 -16.1 Q-6.65 -18.4 -8.65 -23.2 L-9.25 -24.45 -8.65 -25.15 -7.7 -26.2 -5.55 -28.45 -5.35 -28.65 Q-5.1 -27.35 -4.35 -26.05 -3.6 -24.7 -2.2 -24.55 L-1.4 -24.5 Q0.1 -24.45 1.25 -25.25 L3.35 -26.75 6.35 -28.8 7.8 -27.05 9.1 -25.0 10.3 -22.75 Q14.7 -13.75 15.15 -1.35 L15.2 1.5 15.0 6.95 13.4 8.3 12.55 8.7 Q7.05 9.95 5.4 14.75 L5.25 15.25 Q4.15 15.95 2.95 16.35 L2.85 16.35 2.6 16.35 Q-2.35 13.7 -5.75 17.5 L-5.95 17.2 -7.9 14.95 -9.8 12.8 -12.45 9.8 -15.35 6.8 Q-16.85 5.35 -18.45 4.45 L-18.5 1.5 -18.5 1.5"/>
    </path>
  </g>
</svg>
