<?xml version="1.0" encoding="UTF-8" standalone="no"?>
<svg xmlns:xlink="http://www.w3.org/1999/xlink" height="101.8px" width="42.2px" xmlns="http://www.w3.org/2000/svg">
  <g transform="matrix(1.0, 0.0, 0.0, 1.0, 27.0, 28.8)">
    <path d="M-18.5 1.5 L-18.5 1.5 -18.45 4.45 Q-16.85 5.35 -15.35 6.8 L-13.65 8.5 Q-13.05 9.15 -12.45 9.8 L-12.25 10.1 Q-9.65 13.05 -7.05 16.0 L-5.75 17.5 Q-4.85 16.5 -3.85 15.95 -2.55 15.2 -1.05 15.25 -0.05 15.3 1.05 15.7 L2.6 16.35 2.95 16.35 Q4.15 15.95 5.25 15.25 5.6 14.15 6.1 13.25 6.4 12.75 6.7 12.3 8.65 9.6 12.55 8.7 L13.4 8.3 Q14.2 7.6 15.0 6.95 L15.1 5.85 15.2 3.2 15.2 1.5 15.2 1.5 Q15.2 -5.1 14.1 -10.75 L13.8 -12.2 13.5 -13.6 13.3 -14.5 12.3 -18.0 11.95 -19.0 10.5 -22.45 10.3 -22.75 8.4 -26.05 8.1 -26.55 6.35 -28.8 5.3 -28.1 4.7 -27.7 1.25 -25.25 Q-0.2 -24.25 -2.2 -24.55 -3.15 -24.65 -3.85 -25.4 L-4.15 -25.75 -4.35 -26.05 Q-5.1 -27.35 -5.35 -28.65 L-8.65 -25.15 -9.25 -24.45 Q-6.0 -18.9 -12.15 -16.3 L-12.55 -16.1 -16.2 -16.0 -17.05 -12.7 -17.55 -10.35 -18.1 -6.15 Q-18.3 -3.8 -18.45 -1.45 -18.5 0.05 -18.5 1.5" fill="#6699ff" fill-rule="evenodd" stroke="none">
      <animate attributeName="fill" dur="2s" repeatCount="indefinite" values="#6699ff;#6699ff"/>
      <animate attributeName="fill-opacity" dur="2s" repeatCount="indefinite" values="1.0;1.0"/>
      <animate attributeName="d" dur="2s" repeatCount="indefinite" values="M-18.5 1.5 L-18.5 1.5 -18.45 4.45 Q-16.85 5.35 -15.35 6.8 L-13.65 8.5 Q-13.05 9.15 -12.45 9.8 L-12.25 10.1 Q-9.65 13.05 -7.05 16.0 L-5.75 17.5 Q-4.85 16.5 -3.85 15.95 -2.55 15.2 -1.05 15.25 -0.05 15.3 1.05 15.7 L2.6 16.35 2.95 16.35 Q4.15 15.95 5.25 15.25 5.6 14.15 6.1 13.25 6.4 12.75 6.7 12.3 8.65 9.6 12.55 8.7 L13.4 8.3 Q14.2 7.6 15.0 6.95 L15.1 5.85 15.2 3.2 15.2 1.5 15.2 1.5 Q15.2 -5.1 14.1 -10.75 L13.8 -12.2 13.5 -13.6 13.3 -14.5 12.3 -18.0 11.95 -19.0 10.5 -22.45 10.3 -22.75 8.4 -26.05 8.1 -26.55 6.35 -28.8 5.3 -28.1 4.7 -27.7 1.25 -25.25 Q-0.2 -24.25 -2.2 -24.55 -3.15 -24.65 -3.85 -25.4 L-4.15 -25.75 -4.35 -26.05 Q-5.1 -27.35 -5.35 -28.65 L-8.65 -25.15 -9.25 -24.45 Q-6.0 -18.9 -12.15 -16.3 L-12.55 -16.1 -16.2 -16.0 -17.05 -12.7 -17.55 -10.35 -18.1 -6.15 Q-18.3 -3.8 -18.45 -1.45 -18.5 0.05 -18.5 1.5;M-27.0 52.95 L-27.0 53.05 -26.8 57.5 Q-26.55 60.5 -26.3 63.5 L-25.85 67.2 Q-25.65 68.7 -24.85 69.75 L-24.75 69.85 Q-19.7 75.6 -13.9 70.85 L-11.3 69.2 Q-9.8 68.25 -8.35 67.3 -6.15 67.7 -3.95 68.1 -3.0 69.45 -1.15 69.75 L1.6 69.7 2.35 69.45 Q4.0 68.75 4.4 66.75 4.7 65.4 4.45 63.5 4.3 62.55 4.55 61.7 6.05 55.95 3.8 51.15 L3.25 50.1 Q2.5 48.75 1.4 47.5 L0.2 46.2 -0.2 42.1 0.75 39.65 0.95 39.25 Q3.75 30.5 6.5 21.8 L7.5 19.9 9.5 19.55 10.45 18.5 9.0 13.3 10.35 12.7 9.6 7.2 9.05 7.25 6.75 1.8 7.5 1.8 4.95 -1.8 3.75 -3.4 3.85 -4.55 -2.75 -4.45 Q-5.45 -4.4 -8.15 -4.4 -8.9 -2.9 -9.65 -1.4 L-9.2 -0.85 -9.4 -0.35 Q-10.05 1.6 -10.7 3.55 L-13.0 10.5 -13.4 11.6 Q-15.95 19.05 -18.45 26.5 L-18.45 27.1 -18.15 32.4 -17.95 37.65 -21.5 36.9 -21.15 43.25 Q-23.9 45.5 -25.9 48.7 -27.05 50.6 -27.0 52.95"/>
    </path>
    <path d="M-18.5 1.5 Q-18.5 0.05 -18.45 -1.45 -18.3 -3.8 -18.1 -6.15 L-17.55 -10.35 -17.05 -12.7 -16.2 -16.0 -12.55 -16.1 -12.15 -16.3 Q-6.0 -18.9 -9.25 -24.45 L-8.65 -25.15 -5.35 -28.65 Q-5.1 -27.35 -4.35 -26.05 L-4.15 -25.75 -3.85 -25.4 Q-3.15 -24.65 -2.2 -24.55 -0.2 -24.25 1.25 -25.25 L4.7 -27.7 5.3 -28.1 6.35 -28.8 8.1 -26.55 8.4 -26.05 10.3 -22.75 10.5 -22.45 11.95 -19.0 12.3 -18.0 13.3 -14.5 13.5 -13.6 13.8 -12.2 14.1 -10.75 Q15.2 -5.1 15.2 1.5 L15.2 1.5 15.2 3.2 15.1 5.85 15.0 6.95 Q14.2 7.6 13.4 8.3 L12.55 8.7 Q8.65 9.6 6.7 12.3 6.4 12.75 6.1 13.25 5.6 14.15 5.25 15.25 4.15 15.95 2.95 16.35 L2.6 16.35 1.05 15.7 Q-0.05 15.3 -1.05 15.25 -2.55 15.2 -3.85 15.95 -4.85 16.5 -5.75 17.5 L-7.05 16.0 Q-9.65 13.05 -12.25 10.1 L-12.45 9.8 Q-13.05 9.15 -13.65 8.5 L-15.35 6.8 Q-16.85 5.35 -18.45 4.45 L-18.5 1.5 -18.5 1.5" fill="none" stroke="#000000" stroke-linecap="round" stroke-linejoin="round" stroke-opacity="0.0" stroke-width="1.0">
      <animate attributeName="stroke" dur="2s" repeatCount="indefinite" values="#000000;#000001"/>
      <animate attributeName="stroke-width" dur="2s" repeatCount="indefinite" values="0.0;0.0"/>
      <animate attributeName="fill-opacity" dur="2s" repeatCount="indefinite" values="0.0;0.0"/>
      <animate attributeName="d" dur="2s" repeatCount="indefinite" values="M-18.5 1.5 Q-18.5 0.05 -18.45 -1.45 -18.3 -3.8 -18.1 -6.15 L-17.55 -10.35 -17.05 -12.7 -16.2 -16.0 -12.55 -16.1 -12.15 -16.3 Q-6.0 -18.9 -9.25 -24.45 L-8.65 -25.15 -5.35 -28.65 Q-5.1 -27.35 -4.35 -26.05 L-4.15 -25.75 -3.85 -25.4 Q-3.15 -24.65 -2.2 -24.55 -0.2 -24.25 1.25 -25.25 L4.7 -27.7 5.3 -28.1 6.35 -28.8 8.1 -26.55 8.4 -26.05 10.3 -22.75 10.5 -22.45 11.95 -19.0 12.3 -18.0 13.3 -14.5 13.5 -13.6 13.8 -12.2 14.1 -10.75 Q15.2 -5.1 15.2 1.5 L15.2 1.5 15.2 3.2 15.1 5.85 15.0 6.95 Q14.2 7.6 13.4 8.3 L12.55 8.7 Q8.65 9.6 6.7 12.3 6.4 12.75 6.1 13.25 5.6 14.15 5.25 15.25 4.15 15.95 2.95 16.35 L2.6 16.35 1.05 15.7 Q-0.05 15.3 -1.05 15.25 -2.55 15.2 -3.85 15.95 -4.85 16.5 -5.75 17.5 L-7.05 16.0 Q-9.65 13.05 -12.25 10.1 L-12.45 9.8 Q-13.05 9.15 -13.65 8.5 L-15.35 6.8 Q-16.85 5.35 -18.45 4.45 L-18.5 1.5 -18.5 1.5;M-27.0 52.95 Q-27.05 50.6 -25.9 48.7 -23.9 45.5 -21.15 43.25 L-21.5 36.9 -17.95 37.65 -18.15 32.4 -18.45 27.1 -18.45 26.5 Q-15.95 19.05 -13.4 11.6 L-13.0 10.5 -10.7 3.55 Q-10.05 1.6 -9.4 -0.35 L-9.2 -0.85 -9.65 -1.4 Q-8.9 -2.9 -8.15 -4.4 -5.45 -4.4 -2.75 -4.45 L3.85 -4.55 3.75 -3.4 4.95 -1.8 7.5 1.8 6.75 1.8 9.05 7.25 9.6 7.2 10.35 12.7 9.0 13.3 10.45 18.5 9.5 19.55 7.5 19.9 6.5 21.8 Q3.75 30.5 0.95 39.25 L0.75 39.65 -0.2 42.1 0.2 46.2 1.4 47.5 Q2.5 48.75 3.25 50.1 L3.8 51.15 Q6.05 55.95 4.55 61.7 4.3 62.55 4.45 63.5 4.7 65.4 4.4 66.75 4.0 68.75 2.35 69.45 L1.6 69.7 -1.15 69.75 Q-3.0 69.45 -3.95 68.1 -6.15 67.7 -8.35 67.3 -9.8 68.25 -11.3 69.2 L-13.9 70.85 Q-19.7 75.6 -24.75 69.85 L-24.85 69.75 Q-25.65 68.7 -25.85 67.2 L-26.3 63.5 Q-26.55 60.5 -26.8 57.5 L-27.0 53.05 -27.0 52.95"/>
    </path>
  </g>
</svg>
