<?xml version="1.0" encoding="UTF-8" standalone="no"?>
<svg xmlns:xlink="http://www.w3.org/1999/xlink" height="147.4px" width="57.65px" xmlns="http://www.w3.org/2000/svg">
  <g transform="matrix(1.0, 0.0, 0.0, 1.0, 36.75, 38.35)">
    <path d="M-36.4 62.65 Q-37.1 64.05 -36.4 65.55 -34.2 70.4 -29.0 69.5 L-28.15 70.65 Q-30.25 73.55 -29.5 76.9 -28.85 80.05 -26.75 81.15 -25.75 81.45 -24.75 81.75 -22.95 81.55 -21.15 81.35 L-20.15 88.5 -17.0 99.25 -15.95 101.6 Q-14.7 103.75 -12.25 104.2 -1.0 104.5 4.9 94.95 L6.4 91.85 6.55 91.3 6.6 91.1 6.65 90.9 6.7 90.7 5.2 84.4 4.5 83.55 3.5 87.95 Q3.3 88.85 3.35 89.75 3.6 93.45 3.0 96.9 L2.3 97.7 Q-3.4 98.0 -8.65 99.9 L-8.95 99.15 Q-11.5 93.25 -13.15 86.95 L-13.0 86.75 Q-12.4 85.85 -12.25 84.85 -11.45 80.05 -16.65 78.85 -17.4 78.7 -17.85 78.2 -19.9 75.75 -21.95 73.3 -21.95 71.9 -23.05 71.1 L-24.75 69.9 -26.55 68.45 Q-27.0 68.15 -27.45 67.9 -27.75 67.8 -28.0 67.75 -31.65 67.0 -33.9 65.1 -31.95 60.9 -30.35 56.55 L-25.85 44.8 Q-24.1 40.5 -23.95 36.05 -23.55 25.55 -18.85 16.15 -18.55 15.55 -18.7 14.95 -19.55 11.5 -21.5 8.3 -21.1 7.45 -20.7 6.65 -20.3 6.0 -19.9 5.35 -18.6 4.6 -17.35 4.2 -16.2 3.8 -15.45 2.9 -12.45 -0.45 -10.95 -4.6 -10.15 -6.75 -9.75 -9.05 -9.75 -9.7 -9.75 -10.35 -10.3 -13.25 -10.15 -16.1 -9.95 -20.2 -8.35 -24.15 -8.25 -24.3 -8.15 -24.45 -5.35 -29.75 -3.0 -35.25 -2.3 -35.1 -1.6 -34.95 1.7 -34.15 4.95 -32.75 5.65 -32.4 6.45 -32.4 12.9 -32.05 17.35 -27.5 17.3 -27.45 17.3 -27.4 17.25 -27.3 17.2 -27.2 L15.95 -24.55 Q15.1 -22.55 14.55 -20.35 13.7 -19.15 12.85 -17.95 L12.05 -17.0 Q10.95 -15.75 9.9 -14.55 9.5 -14.1 9.15 -13.65 L9.15 -13.65 Q8.5 -12.85 8.35 -11.85 7.45 -5.6 7.15 0.8 6.7 10.35 6.85 19.8 5.05 23.4 2.85 26.7 L1.4 28.35 Q-1.55 31.1 -0.1 33.75 0.3 34.45 1.05 35.15 1.2 35.35 1.3 35.5 1.3 35.7 1.3 35.85 1.0 38.1 1.3 40.15 L3.65 29.85 13.25 23.8 12.1 17.0 Q11.8 13.1 11.5 9.25 11.25 6.0 11.0 2.75 L10.5 -10.75 15.35 -15.75 Q19.05 -16.25 20.3 -18.45 20.6 -19.25 20.85 -20.0 L20.85 -20.15 Q21.1 -21.8 20.5 -23.95 17.8 -33.7 7.9 -35.5 6.75 -35.5 5.9 -36.0 0.1 -39.65 -6.7 -37.65 L-11.9 -28.15 -15.5 -9.25 -16.0 -2.9 Q-21.3 0.75 -24.75 5.95 -26.35 8.3 -26.4 10.3 -25.95 12.3 -24.6 14.15 L-23.5 14.95 -22.35 15.6 Q-22.2 15.65 -22.0 15.75 L-22.0 20.5 -26.25 30.6 -29.5 48.85 -32.1 53.85 -32.9 55.5 -35.4 60.5 -36.4 62.65" fill="#6699ff" fill-rule="evenodd" stroke="none">
      <animate attributeName="fill" dur="2s" repeatCount="indefinite" values="#6699ff;#6699ff"/>
      <animate attributeName="fill-opacity" dur="2s" repeatCount="indefinite" values="1.0;1.0"/>
      <animate attributeName="d" dur="2s" repeatCount="indefinite" values="M-36.4 62.65 Q-37.1 64.05 -36.4 65.55 -34.2 70.4 -29.0 69.5 L-28.15 70.65 Q-30.25 73.55 -29.5 76.9 -28.85 80.05 -26.75 81.15 -25.75 81.45 -24.75 81.75 -22.95 81.55 -21.15 81.35 L-20.15 88.5 -17.0 99.25 -15.95 101.6 Q-14.7 103.75 -12.25 104.2 -1.0 104.5 4.9 94.95 L6.4 91.85 6.55 91.3 6.6 91.1 6.65 90.9 6.7 90.7 5.2 84.4 4.5 83.55 3.5 87.95 Q3.3 88.85 3.35 89.75 3.6 93.45 3.0 96.9 L2.3 97.7 Q-3.4 98.0 -8.65 99.9 L-8.95 99.15 Q-11.5 93.25 -13.15 86.95 L-13.0 86.75 Q-12.4 85.85 -12.25 84.85 -11.45 80.05 -16.65 78.85 -17.4 78.7 -17.85 78.2 -19.9 75.75 -21.95 73.3 -21.95 71.9 -23.05 71.1 L-24.75 69.9 -26.55 68.45 Q-27.0 68.15 -27.45 67.9 -27.75 67.8 -28.0 67.75 -31.65 67.0 -33.9 65.1 -31.95 60.9 -30.35 56.55 L-25.85 44.8 Q-24.1 40.5 -23.95 36.05 -23.55 25.55 -18.85 16.15 -18.55 15.55 -18.7 14.95 -19.55 11.5 -21.5 8.3 -21.1 7.45 -20.7 6.65 -20.3 6.0 -19.9 5.35 -18.6 4.6 -17.35 4.2 -16.2 3.8 -15.45 2.9 -12.45 -0.45 -10.95 -4.6 -10.15 -6.75 -9.75 -9.05 -9.75 -9.7 -9.75 -10.35 -10.3 -13.25 -10.15 -16.1 -9.95 -20.2 -8.35 -24.15 -8.25 -24.3 -8.15 -24.45 -5.35 -29.75 -3.0 -35.25 -2.3 -35.1 -1.6 -34.95 1.7 -34.15 4.95 -32.75 5.65 -32.4 6.45 -32.4 12.9 -32.05 17.35 -27.5 17.3 -27.45 17.3 -27.4 17.25 -27.3 17.2 -27.2 L15.95 -24.55 Q15.1 -22.55 14.55 -20.35 13.7 -19.15 12.85 -17.95 L12.05 -17.0 Q10.95 -15.75 9.9 -14.55 9.5 -14.1 9.15 -13.65 L9.15 -13.65 Q8.5 -12.85 8.35 -11.85 7.45 -5.6 7.15 0.8 6.7 10.35 6.85 19.8 5.05 23.4 2.85 26.7 L1.4 28.35 Q-1.55 31.1 -0.1 33.75 0.3 34.45 1.05 35.15 1.2 35.35 1.3 35.5 1.3 35.7 1.3 35.85 1.0 38.1 1.3 40.15 L3.65 29.85 13.25 23.8 12.1 17.0 Q11.8 13.1 11.5 9.25 11.25 6.0 11.0 2.75 L10.5 -10.75 15.35 -15.75 Q19.05 -16.25 20.3 -18.45 20.6 -19.25 20.85 -20.0 L20.85 -20.15 Q21.1 -21.8 20.5 -23.95 17.8 -33.7 7.9 -35.5 6.75 -35.5 5.9 -36.0 0.1 -39.65 -6.7 -37.65 L-11.9 -28.15 -15.5 -9.25 -16.0 -2.9 Q-21.3 0.75 -24.75 5.95 -26.35 8.3 -26.4 10.3 -25.95 12.3 -24.6 14.15 L-23.5 14.95 -22.35 15.6 Q-22.2 15.65 -22.0 15.75 L-22.0 20.5 -26.25 30.6 -29.5 48.85 -32.1 53.85 -32.9 55.5 -35.4 60.5 -36.4 62.65;M-33.95 71.2 Q-35.95 78.2 -27.7 78.6 -25.15 81.2 -22.6 83.75 L-21.2 91.5 Q-16.4 97.5 -11.6 103.5 -10.35 106.65 -7.5 108.05 -3.65 109.7 0.1 108.65 8.9 106.1 6.15 97.85 L4.65 83.95 7.4 82.5 8.6 81.6 Q13.8 76.25 7.15 72.1 7.0 70.2 6.85 68.35 L6.8 67.75 7.4 62.5 8.6 59.8 9.7 57.05 10.9 54.35 10.8 41.75 10.05 35.35 10.65 24.5 Q10.45 18.1 10.3 11.75 12.5 6.9 14.65 2.1 L18.3 -12.9 Q12.55 -22.35 6.8 -31.8 L5.15 -32.0 Q0.45 -27.55 -4.2 -23.1 L-2.85 -23.35 Q1.75 -24.3 5.8 -26.8 6.1 -25.15 6.35 -23.5 6.55 -21.8 7.25 -20.2 9.25 -15.85 13.3 -12.95 13.45 -12.4 13.55 -11.9 L13.45 -11.15 13.3 -10.3 Q13.0 -7.1 11.55 -4.25 10.8 -2.75 10.8 -1.05 10.95 6.3 7.6 12.7 7.5 12.9 7.45 13.1 L7.35 13.3 Q7.3 13.4 7.25 13.5 7.15 13.75 7.1 13.95 7.1 13.95 7.1 13.95 7.1 14.0 7.1 14.05 5.9 20.65 6.2 27.5 6.5 33.4 7.8 39.15 9.75 47.95 9.2 56.8 9.15 57.8 8.5 58.55 3.7 63.75 4.4 70.8 4.8 74.25 5.2 77.7 3.3 78.85 2.7 80.95 1.5 85.4 1.4 90.15 1.3 96.9 2.2 103.45 0.9 102.8 -0.5 102.5 -2.65 101.85 -4.75 101.25 -7.0 100.3 -8.65 98.35 -16.35 89.1 -22.8 78.95 -23.2 78.15 -23.6 77.4 -25.4 73.1 -28.9 71.0 -26.9 68.05 -26.9 64.5 -26.9 59.05 -25.9 53.9 L-25.4 53.15 Q-25.25 52.6 -25.1 52.05 -21.6 47.05 -20.8 41.0 L-20.5 37.8 Q-20.3 30.4 -18.75 23.2 -18.2 20.7 -17.25 18.35 L-17.15 18.05 Q-15.65 14.1 -18.75 11.35 -18.05 10.8 -17.35 10.25 -16.55 9.25 -15.8 8.3 -15.4 7.65 -14.8 7.35 L-13.4 6.45 Q-11.8 5.1 -11.8 2.9 -11.8 2.2 -11.8 1.55 -12.15 -4.05 -9.9 -9.45 -7.35 -15.6 -5.75 -21.65 -9.5 -18.1 -13.2 -14.6 L-13.45 -14.35 -13.75 -13.5 -15.75 2.35 Q-17.45 4.55 -19.55 5.9 -21.35 7.05 -22.4 8.7 L-22.45 8.8 -22.5 8.95 Q-22.55 9.05 -22.6 9.1 -23.5 10.7 -23.65 12.15 L-23.55 13.4 Q-23.3 14.0 -23.1 14.6 -22.55 15.25 -22.05 15.85 -22.05 15.9 -22.05 15.95 -21.1 16.6 -20.2 17.25 L-21.6 31.5 -30.1 58.6 -29.45 66.35 Q-29.5 66.4 -29.55 66.45 -29.6 66.45 -29.65 66.45 -29.85 66.55 -30.05 66.6 L-30.15 66.65 -30.25 66.7 Q-30.3 66.75 -30.35 66.8 L-30.45 66.85 -33.25 69.5 -33.5 70.05 -33.6 70.25 -33.65 70.35 -33.75 70.55 -33.95 71.2"/>
    </path>
    <path d="M-26.4 10.3 Q-26.45 11.35 -26.0 12.3 -25.55 13.3 -25.75 12.25 L-26.4 10.3 M-33.9 65.1 Q-31.65 67.0 -28.0 67.75 -27.2 67.95 -26.55 68.45 L-23.05 71.1 Q-21.95 71.9 -21.95 73.3 -20.1 75.55 -18.25 77.75 L-17.85 78.2 Q-17.4 78.7 -16.65 78.85 -11.45 80.05 -12.25 84.85 -12.4 86.0 -13.15 86.95 -12.0 90.65 -10.85 94.3 -9.9 96.75 -8.95 99.15 -8.8 99.55 -8.65 99.9 -3.4 98.0 2.3 97.7 L2.65 97.3 Q2.85 97.1 3.0 96.9 3.6 93.45 3.35 89.75 3.3 88.85 3.5 87.95 L4.5 83.55 Q4.85 84.0 5.2 84.4 4.95 84.05 4.7 83.75 4.35 83.35 4.0 83.0 4.5 79.25 5.0 75.5 5.45 75.2 5.85 74.95 L6.15 70.75 Q6.4 66.15 5.5 61.75 4.8 58.2 4.45 54.6 L3.85 53.2 Q2.55 50.15 1.25 47.1 L0.7 46.4 0.1 45.6 0.2 44.85 Q0.75 42.5 1.3 40.15 1.0 38.1 1.3 35.85 1.35 35.4 1.05 35.15 -2.35 31.85 1.4 28.35 L2.85 26.7 Q4.8 23.8 6.4 20.7 L6.85 19.8 Q6.7 10.35 7.15 0.8 7.45 -5.6 8.35 -11.85 8.5 -12.85 9.15 -13.65 10.2 -14.9 11.25 -16.15 12.05 -17.05 12.85 -17.95 13.7 -19.15 14.55 -20.35 L15.25 -22.8 Q16.05 -25.1 17.2 -27.2 17.3 -27.35 17.35 -27.5 12.9 -32.05 6.45 -32.4 5.65 -32.4 4.95 -32.75 1.0 -34.45 -3.0 -35.25 -5.35 -29.75 -8.15 -24.45 -8.25 -24.3 -8.35 -24.15 -8.7 -23.2 -9.05 -22.25 -9.4 -20.95 -9.7 -19.65 -10.45 -15.9 -10.0 -12.05 L-9.75 -10.35 Q-9.75 -9.7 -9.75 -9.05 -10.95 -2.2 -15.45 2.9 -16.2 3.8 -17.35 4.2 -17.9 4.4 -19.9 5.35 -20.55 6.5 -21.2 7.6 -21.35 7.95 -21.5 8.3 -19.55 11.5 -18.85 16.15 -23.55 25.55 -23.95 36.05 -24.1 40.5 -25.85 44.8 L-30.35 56.55 Q-31.95 60.9 -33.9 65.1" fill="#99ccff" fill-rule="evenodd" stroke="none">
      <animate attributeName="fill" dur="2s" repeatCount="indefinite" values="#99ccff;#99ccff"/>
      <animate attributeName="fill-opacity" dur="2s" repeatCount="indefinite" values="1.0;1.0"/>
      <animate attributeName="d" dur="2s" repeatCount="indefinite" values="M-26.4 10.3 Q-26.45 11.35 -26.0 12.3 -25.55 13.3 -25.75 12.25 L-26.4 10.3 M-33.9 65.1 Q-31.65 67.0 -28.0 67.75 -27.2 67.95 -26.55 68.45 L-23.05 71.1 Q-21.95 71.9 -21.95 73.3 -20.1 75.55 -18.25 77.75 L-17.85 78.2 Q-17.4 78.7 -16.65 78.85 -11.45 80.05 -12.25 84.85 -12.4 86.0 -13.15 86.95 -12.0 90.65 -10.85 94.3 -9.9 96.75 -8.95 99.15 -8.8 99.55 -8.65 99.9 -3.4 98.0 2.3 97.7 L2.65 97.3 Q2.85 97.1 3.0 96.9 3.6 93.45 3.35 89.75 3.3 88.85 3.5 87.95 L4.5 83.55 Q4.85 84.0 5.2 84.4 4.95 84.05 4.7 83.75 4.35 83.35 4.0 83.0 4.5 79.25 5.0 75.5 5.45 75.2 5.85 74.95 L6.15 70.75 Q6.4 66.15 5.5 61.75 4.8 58.2 4.45 54.6 L3.85 53.2 Q2.55 50.15 1.25 47.1 L0.7 46.4 0.1 45.6 0.2 44.85 Q0.75 42.5 1.3 40.15 1.0 38.1 1.3 35.85 1.35 35.4 1.05 35.15 -2.35 31.85 1.4 28.35 L2.85 26.7 Q4.8 23.8 6.4 20.7 L6.85 19.8 Q6.7 10.35 7.15 0.8 7.45 -5.6 8.35 -11.85 8.5 -12.85 9.15 -13.65 10.2 -14.9 11.25 -16.15 12.05 -17.05 12.85 -17.95 13.7 -19.15 14.55 -20.35 L15.25 -22.8 Q16.05 -25.1 17.2 -27.2 17.3 -27.35 17.35 -27.5 12.9 -32.05 6.45 -32.4 5.65 -32.4 4.95 -32.75 1.0 -34.45 -3.0 -35.25 -5.35 -29.75 -8.15 -24.45 -8.25 -24.3 -8.35 -24.15 -8.7 -23.2 -9.05 -22.25 -9.4 -20.95 -9.7 -19.65 -10.45 -15.9 -10.0 -12.05 L-9.75 -10.35 Q-9.75 -9.7 -9.75 -9.05 -10.95 -2.2 -15.45 2.9 -16.2 3.8 -17.35 4.2 -17.9 4.4 -19.9 5.35 -20.55 6.5 -21.2 7.6 -21.35 7.95 -21.5 8.3 -19.55 11.5 -18.85 16.15 -23.55 25.55 -23.95 36.05 -24.1 40.5 -25.85 44.8 L-30.35 56.55 Q-31.95 60.9 -33.9 65.1;M-23.55 13.4 Q-23.3 14.8 -22.05 15.95 -22.6 15.25 -23.1 14.6 L-23.55 13.4 M-28.9 71.0 Q-27.15 72.05 -25.85 73.65 -24.5 75.25 -23.6 77.4 L-23.1 78.45 Q-22.95 78.7 -22.8 78.95 -16.35 89.1 -8.65 98.35 L-6.9 100.0 Q-5.8 100.65 -4.75 101.25 -2.6 101.9 -0.5 102.5 0.9 102.8 2.2 103.45 1.3 96.9 1.4 90.15 1.5 85.4 2.7 80.95 3.0 79.9 3.6 79.05 4.25 78.25 5.2 77.7 L4.4 70.8 Q4.05 67.25 5.05 64.2 6.1 61.15 8.5 58.55 8.75 58.1 8.95 57.7 L9.2 56.8 Q9.75 47.95 7.8 39.15 6.5 33.4 6.2 27.5 5.9 20.65 7.1 14.05 7.2 13.4 7.6 12.7 9.25 9.5 10.05 6.05 L10.45 3.85 Q10.85 1.45 10.8 -1.05 10.9 -1.9 10.95 -2.7 L11.55 -4.25 Q13.0 -7.1 13.3 -10.3 L13.45 -11.15 13.5 -12.05 13.3 -12.95 Q11.25 -14.4 9.75 -16.25 8.25 -18.05 7.25 -20.2 6.55 -21.8 6.35 -23.5 6.15 -24.8 6.0 -26.05 L5.8 -26.8 Q1.75 -24.3 -2.85 -23.35 L-4.2 -23.1 Q-4.7 -22.65 -5.15 -22.25 -5.45 -21.95 -5.75 -21.65 -6.45 -19.25 -7.15 -16.9 -8.35 -13.2 -9.9 -9.45 -11.05 -6.75 -11.55 -4.0 -12.0 -1.25 -11.8 1.55 L-11.8 2.9 Q-11.8 4.4 -12.55 5.5 -13.3 6.6 -14.8 7.35 -15.1 7.55 -15.35 7.7 -15.6 8.0 -15.8 8.3 -16.45 9.15 -17.1 9.95 -17.95 10.65 -18.75 11.35 -17.15 12.75 -16.8 14.5 -16.4 16.25 -17.25 18.35 -18.2 20.7 -18.75 23.2 -20.3 30.4 -20.5 37.8 L-20.8 41.0 Q-21.2 44.0 -22.3 46.75 -23.35 49.55 -25.1 52.05 -25.2 52.35 -25.25 52.6 -25.6 53.25 -25.9 53.9 -26.9 59.05 -26.9 64.5 -26.9 66.25 -27.4 67.85 -27.5 68.15 -27.6 68.45 -27.85 69.0 -28.1 69.5 -28.2 69.75 -28.3 69.95 L-28.6 70.55 Q-28.75 70.8 -28.9 71.0"/>
    </path>
    <path d="M4.45 54.6 Q4.8 58.2 5.5 61.75 L6.1 66.3 6.15 70.75 5.85 74.95 7.9 73.1 Q9.95 70.8 10.9 67.75 L11.1 67.15 11.35 66.05 Q11.5 65.25 11.25 62.75 9.0 59.1 5.0 55.95 L4.45 54.6" fill="#6699ff" fill-rule="evenodd" stroke="none">
      <animate attributeName="fill" dur="2s" repeatCount="indefinite" values="#6699ff;#99ccff"/>
      <animate attributeName="fill-opacity" dur="2s" repeatCount="indefinite" values="1.0;1.0"/>
      <animate attributeName="d" dur="2s" repeatCount="indefinite" values="M4.45 54.6 Q4.8 58.2 5.5 61.75 L6.1 66.3 6.15 70.75 5.85 74.95 7.9 73.1 Q9.95 70.8 10.9 67.75 L11.1 67.15 11.35 66.05 Q11.5 65.25 11.25 62.75 9.0 59.1 5.0 55.95 L4.45 54.6;M-13.75 -13.5 Q-13.7 -13.7 -13.7 -13.9 L-13.7 -14.15 -13.5 -14.35 -13.3 -14.5 -13.2 -14.6 Q-13.35 -14.45 -13.45 -14.35 L-13.45 -14.35 -13.55 -14.25 Q-13.55 -14.15 -13.55 -14.05 -13.65 -13.8 -13.75 -13.55 L-13.75 -13.5"/>
    </path>
    <path d="M-36.4 62.65 L-35.4 60.5 -32.9 55.5 -32.1 53.85 -29.5 48.85 -26.25 30.6 -22.0 20.5 -22.0 15.75 Q-22.2 15.65 -22.35 15.6 L-23.5 14.95 -24.6 14.15 Q-25.95 12.3 -26.4 10.3 -26.35 8.3 -24.75 5.95 -21.3 0.75 -16.0 -2.9 L-15.5 -9.25 -11.9 -28.15 -6.7 -37.65 Q0.1 -39.65 5.9 -36.0 6.75 -35.5 7.9 -35.5 17.8 -33.7 20.5 -23.95 21.1 -21.8 20.85 -20.15 L20.85 -20.0 Q20.6 -19.25 20.3 -18.45 19.05 -16.25 15.35 -15.75 L10.5 -10.75 11.0 2.75 Q11.25 6.0 11.5 9.25 11.8 13.1 12.1 17.0 L13.25 23.8 3.65 29.85 1.3 40.15 Q1.0 38.1 1.3 35.85 1.3 35.7 1.3 35.5 1.2 35.35 1.05 35.15 0.3 34.45 -0.1 33.75 -1.55 31.1 1.4 28.35 L2.85 26.7 Q5.05 23.4 6.85 19.8 6.7 10.35 7.15 0.8 7.45 -5.6 8.35 -11.85 8.5 -12.85 9.15 -13.65 L9.15 -13.65 Q9.5 -14.1 9.9 -14.55 10.95 -15.75 12.05 -17.0 L12.85 -17.95 Q13.7 -19.15 14.55 -20.35 15.1 -22.55 15.95 -24.55 L17.2 -27.2 Q17.25 -27.3 17.3 -27.4 17.3 -27.45 17.35 -27.5 12.9 -32.05 6.45 -32.4 5.65 -32.4 4.95 -32.75 1.7 -34.15 -1.6 -34.95 -2.3 -35.1 -3.0 -35.25 -5.35 -29.75 -8.15 -24.45 -8.25 -24.3 -8.35 -24.15 -9.95 -20.2 -10.15 -16.1 -10.3 -13.25 -9.75 -10.35 -9.75 -9.7 -9.75 -9.05 -10.15 -6.75 -10.95 -4.6 -12.45 -0.45 -15.45 2.9 -16.2 3.8 -17.35 4.2 -18.6 4.6 -19.9 5.35 -20.3 6.0 -20.7 6.65 -21.1 7.45 -21.5 8.3 -19.55 11.5 -18.7 14.95 -18.55 15.55 -18.85 16.15 -23.55 25.55 -23.95 36.05 -24.1 40.5 -25.85 44.8 L-30.35 56.55 Q-31.95 60.9 -33.9 65.1 -31.65 67.0 -28.0 67.75 -27.75 67.8 -27.45 67.9 -27.0 68.15 -26.55 68.45 L-24.75 69.9 -23.05 71.1 Q-21.95 71.9 -21.95 73.3 -19.9 75.75 -17.85 78.2 -17.4 78.7 -16.65 78.85 -11.45 80.05 -12.25 84.85 -12.4 85.85 -13.0 86.75 L-13.15 86.95 Q-11.5 93.25 -8.95 99.15 L-8.65 99.9 Q-3.4 98.0 2.3 97.7 L3.0 96.9 Q3.6 93.45 3.35 89.75 3.3 88.85 3.5 87.95 L4.5 83.55 5.2 84.4 6.7 90.7 6.65 90.9 6.6 91.1 6.55 91.3 6.4 91.85 4.9 94.95 Q-1.0 104.5 -12.25 104.2 -14.7 103.75 -15.95 101.6 L-17.0 99.25 -20.15 88.5 -21.15 81.35 Q-22.95 81.55 -24.75 81.75 -25.75 81.45 -26.75 81.15 -28.85 80.05 -29.5 76.9 -30.25 73.55 -28.15 70.65 L-29.0 69.5 Q-34.2 70.4 -36.4 65.55 -37.1 64.05 -36.4 62.65 M-33.9 65.1 Q-31.95 60.9 -30.35 56.55 L-25.85 44.8 Q-24.1 40.5 -23.95 36.05 -23.55 25.55 -18.85 16.15 -19.55 11.5 -21.5 8.3 -21.35 7.95 -21.2 7.6 -20.55 6.5 -19.9 5.35 -17.9 4.4 -17.35 4.2 -16.2 3.8 -15.45 2.9 -10.95 -2.2 -9.75 -9.05 -9.75 -9.7 -9.75 -10.35 L-10.0 -12.05 Q-10.45 -15.9 -9.7 -19.65 -9.4 -20.95 -9.05 -22.25 -8.7 -23.2 -8.35 -24.15 -8.25 -24.3 -8.15 -24.45 -5.35 -29.75 -3.0 -35.25 1.0 -34.45 4.95 -32.75 5.65 -32.4 6.45 -32.4 12.9 -32.05 17.35 -27.5 17.3 -27.35 17.2 -27.2 16.05 -25.1 15.25 -22.8 L14.55 -20.35 Q13.7 -19.15 12.85 -17.95 12.05 -17.05 11.25 -16.15 10.2 -14.9 9.15 -13.65 8.5 -12.85 8.35 -11.85 7.45 -5.6 7.15 0.8 6.7 10.35 6.85 19.8 L6.4 20.7 Q4.8 23.8 2.85 26.7 L1.4 28.35 Q-2.35 31.85 1.05 35.15 1.35 35.4 1.3 35.85 1.0 38.1 1.3 40.15 0.75 42.5 0.2 44.85 L0.1 45.6 0.7 46.4 1.25 47.1 Q2.55 50.15 3.85 53.2 L4.45 54.6 Q4.8 58.2 5.5 61.75 6.4 66.15 6.15 70.75 L5.85 74.95 Q5.45 75.2 5.0 75.5 4.5 79.25 4.0 83.0 4.35 83.35 4.7 83.75 4.95 84.05 5.2 84.4 4.85 84.0 4.5 83.55 L3.5 87.95 Q3.3 88.85 3.35 89.75 3.6 93.45 3.0 96.9 2.85 97.1 2.65 97.3 L2.3 97.7 Q-3.4 98.0 -8.65 99.9 -8.8 99.55 -8.95 99.15 -9.9 96.75 -10.85 94.3 -12.0 90.65 -13.15 86.95 -12.4 86.0 -12.25 84.85 -11.45 80.05 -16.65 78.85 -17.4 78.7 -17.85 78.2 L-18.25 77.75 Q-20.1 75.55 -21.95 73.3 -21.95 71.9 -23.05 71.1 L-26.55 68.45 Q-27.2 67.95 -28.0 67.75 -31.65 67.0 -33.9 65.1 M-26.4 10.3 L-25.75 12.25 Q-25.55 13.3 -26.0 12.3 -26.45 11.35 -26.4 10.3 M4.45 54.6 L5.0 55.95 Q9.0 59.1 11.25 62.75 11.5 65.25 11.35 66.05 L11.1 67.15 10.9 67.75 Q9.95 70.8 7.9 73.1 L5.85 74.95 6.15 70.75 6.1 66.3 5.5 61.75 Q4.8 58.2 4.45 54.6" fill="none" stroke="#000000" stroke-linecap="round" stroke-linejoin="round" stroke-opacity="0.0" stroke-width="1.0">
      <animate attributeName="stroke" dur="2s" repeatCount="indefinite" values="#000000;#000001"/>
      <animate attributeName="stroke-width" dur="2s" repeatCount="indefinite" values="0.0;0.0"/>
      <animate attributeName="fill-opacity" dur="2s" repeatCount="indefinite" values="0.0;0.0"/>
      <animate attributeName="d" dur="2s" repeatCount="indefinite" values="M-36.4 62.65 L-35.4 60.5 -32.9 55.5 -32.1 53.85 -29.5 48.85 -26.25 30.6 -22.0 20.5 -22.0 15.75 Q-22.2 15.65 -22.35 15.6 L-23.5 14.95 -24.6 14.15 Q-25.95 12.3 -26.4 10.3 -26.35 8.3 -24.75 5.95 -21.3 0.75 -16.0 -2.9 L-15.5 -9.25 -11.9 -28.15 -6.7 -37.65 Q0.1 -39.65 5.9 -36.0 6.75 -35.5 7.9 -35.5 17.8 -33.7 20.5 -23.95 21.1 -21.8 20.85 -20.15 L20.85 -20.0 Q20.6 -19.25 20.3 -18.45 19.05 -16.25 15.35 -15.75 L10.5 -10.75 11.0 2.75 Q11.25 6.0 11.5 9.25 11.8 13.1 12.1 17.0 L13.25 23.8 3.65 29.85 1.3 40.15 Q1.0 38.1 1.3 35.85 1.3 35.7 1.3 35.5 1.2 35.35 1.05 35.15 0.3 34.45 -0.1 33.75 -1.55 31.1 1.4 28.35 L2.85 26.7 Q5.05 23.4 6.85 19.8 6.7 10.35 7.15 0.8 7.45 -5.6 8.35 -11.85 8.5 -12.85 9.15 -13.65 L9.15 -13.65 Q9.5 -14.1 9.9 -14.55 10.95 -15.75 12.05 -17.0 L12.85 -17.95 Q13.7 -19.15 14.55 -20.35 15.1 -22.55 15.95 -24.55 L17.2 -27.2 Q17.25 -27.3 17.3 -27.4 17.3 -27.45 17.35 -27.5 12.9 -32.05 6.45 -32.4 5.65 -32.4 4.95 -32.75 1.7 -34.15 -1.6 -34.95 -2.3 -35.1 -3.0 -35.25 -5.35 -29.75 -8.15 -24.45 -8.25 -24.3 -8.35 -24.15 -9.95 -20.2 -10.15 -16.1 -10.3 -13.25 -9.75 -10.35 -9.75 -9.7 -9.75 -9.05 -10.15 -6.75 -10.95 -4.6 -12.45 -0.45 -15.45 2.9 -16.2 3.8 -17.35 4.2 -18.6 4.6 -19.9 5.35 -20.3 6.0 -20.7 6.65 -21.1 7.45 -21.5 8.3 -19.55 11.5 -18.7 14.95 -18.55 15.55 -18.85 16.15 -23.55 25.55 -23.95 36.05 -24.1 40.5 -25.85 44.8 L-30.35 56.55 Q-31.95 60.9 -33.9 65.1 -31.65 67.0 -28.0 67.75 -27.75 67.8 -27.45 67.9 -27.0 68.15 -26.55 68.45 L-24.75 69.9 -23.05 71.1 Q-21.95 71.9 -21.95 73.3 -19.9 75.75 -17.85 78.2 -17.4 78.7 -16.65 78.85 -11.45 80.05 -12.25 84.85 -12.4 85.85 -13.0 86.75 L-13.15 86.95 Q-11.5 93.25 -8.95 99.15 L-8.65 99.9 Q-3.4 98.0 2.3 97.7 L3.0 96.9 Q3.6 93.45 3.35 89.75 3.3 88.85 3.5 87.95 L4.5 83.55 5.2 84.4 6.7 90.7 6.65 90.9 6.6 91.1 6.55 91.3 6.4 91.85 4.9 94.95 Q-1.0 104.5 -12.25 104.2 -14.7 103.75 -15.95 101.6 L-17.0 99.25 -20.15 88.5 -21.15 81.35 Q-22.95 81.55 -24.75 81.75 -25.75 81.45 -26.75 81.15 -28.85 80.05 -29.5 76.9 -30.25 73.55 -28.15 70.65 L-29.0 69.5 Q-34.2 70.4 -36.4 65.55 -37.1 64.05 -36.4 62.65 M-33.9 65.1 Q-31.95 60.9 -30.35 56.55 L-25.85 44.8 Q-24.1 40.5 -23.95 36.05 -23.55 25.55 -18.85 16.15 -19.55 11.5 -21.5 8.3 -21.35 7.95 -21.2 7.6 -20.55 6.5 -19.9 5.35 -17.9 4.4 -17.35 4.2 -16.2 3.8 -15.45 2.9 -10.95 -2.2 -9.75 -9.05 -9.75 -9.7 -9.75 -10.35 L-10.0 -12.05 Q-10.45 -15.9 -9.7 -19.65 -9.4 -20.95 -9.05 -22.25 -8.7 -23.2 -8.35 -24.15 -8.25 -24.3 -8.15 -24.45 -5.35 -29.75 -3.0 -35.25 1.0 -34.45 4.95 -32.75 5.65 -32.4 6.45 -32.4 12.9 -32.05 17.35 -27.5 17.3 -27.35 17.2 -27.2 16.05 -25.1 15.25 -22.8 L14.55 -20.35 Q13.7 -19.15 12.85 -17.95 12.05 -17.05 11.25 -16.15 10.2 -14.9 9.15 -13.65 8.5 -12.85 8.35 -11.85 7.45 -5.6 7.15 0.8 6.7 10.35 6.85 19.8 L6.4 20.7 Q4.8 23.8 2.85 26.7 L1.4 28.35 Q-2.35 31.85 1.05 35.15 1.35 35.4 1.3 35.85 1.0 38.1 1.3 40.15 0.75 42.5 0.2 44.85 L0.1 45.6 0.7 46.4 1.25 47.1 Q2.55 50.15 3.85 53.2 L4.45 54.6 Q4.8 58.2 5.5 61.75 6.4 66.15 6.15 70.75 L5.85 74.95 Q5.45 75.2 5.0 75.5 4.5 79.25 4.0 83.0 4.35 83.35 4.7 83.75 4.95 84.05 5.2 84.4 4.85 84.0 4.5 83.55 L3.5 87.95 Q3.3 88.85 3.35 89.75 3.6 93.45 3.0 96.9 2.85 97.1 2.65 97.3 L2.3 97.7 Q-3.4 98.0 -8.65 99.9 -8.8 99.55 -8.95 99.15 -9.9 96.75 -10.85 94.3 -12.0 90.65 -13.15 86.95 -12.4 86.0 -12.25 84.85 -11.45 80.05 -16.65 78.85 -17.4 78.7 -17.85 78.2 L-18.25 77.75 Q-20.1 75.55 -21.95 73.3 -21.95 71.9 -23.05 71.1 L-26.55 68.45 Q-27.2 67.95 -28.0 67.75 -31.65 67.0 -33.9 65.1 M-26.4 10.3 L-25.75 12.25 Q-25.55 13.3 -26.0 12.3 -26.45 11.35 -26.4 10.3 M4.45 54.6 L5.0 55.95 Q9.0 59.1 11.25 62.75 11.5 65.25 11.35 66.05 L11.1 67.15 10.9 67.75 Q9.95 70.8 7.9 73.1 L5.85 74.95 6.15 70.75 6.1 66.3 5.5 61.75 Q4.8 58.2 4.45 54.6;M-33.95 71.2 L-33.75 70.55 -33.65 70.35 -33.6 70.25 -33.5 70.05 -33.25 69.5 -30.45 66.85 -30.35 66.8 Q-30.3 66.75 -30.25 66.7 L-30.15 66.65 -30.05 66.6 Q-29.85 66.55 -29.65 66.45 -29.6 66.45 -29.55 66.45 -29.5 66.4 -29.45 66.35 L-30.1 58.6 -21.6 31.5 -20.2 17.25 Q-21.1 16.6 -22.05 15.95 -22.05 15.9 -22.05 15.85 -22.55 15.25 -23.1 14.6 -23.3 14.0 -23.55 13.4 L-23.65 12.15 Q-23.5 10.7 -22.6 9.1 -22.55 9.05 -22.5 8.95 L-22.45 8.8 -22.4 8.7 Q-21.35 7.05 -19.55 5.9 -17.45 4.55 -15.75 2.35 L-13.75 -13.5 -13.45 -14.35 -13.2 -14.6 Q-9.5 -18.1 -5.75 -21.65 -7.35 -15.6 -9.9 -9.45 -12.15 -4.05 -11.8 1.55 -11.8 2.2 -11.8 2.9 -11.8 5.1 -13.4 6.45 L-14.8 7.35 Q-15.4 7.65 -15.8 8.3 -16.55 9.25 -17.35 10.25 -18.05 10.8 -18.75 11.35 -15.65 14.1 -17.15 18.05 L-17.25 18.35 Q-18.2 20.7 -18.75 23.2 -20.3 30.4 -20.5 37.8 L-20.8 41.0 Q-21.6 47.05 -25.1 52.05 -25.25 52.6 -25.4 53.15 L-25.9 53.9 Q-26.9 59.05 -26.9 64.5 -26.9 68.05 -28.9 71.0 -25.4 73.1 -23.6 77.4 -23.2 78.15 -22.8 78.95 -16.35 89.1 -8.65 98.35 -7.0 100.3 -4.75 101.25 -2.65 101.85 -0.5 102.5 0.9 102.8 2.2 103.45 1.3 96.9 1.4 90.15 1.5 85.4 2.7 80.95 3.3 78.85 5.2 77.7 4.8 74.25 4.4 70.8 3.7 63.75 8.5 58.55 9.15 57.8 9.2 56.8 9.75 47.95 7.8 39.15 6.5 33.4 6.2 27.5 5.9 20.65 7.1 14.05 7.1 14.0 7.1 13.95 7.1 13.95 7.1 13.95 7.15 13.75 7.25 13.5 7.3 13.4 7.35 13.3 L7.45 13.1 Q7.5 12.9 7.6 12.7 10.95 6.3 10.8 -1.05 10.8 -2.75 11.55 -4.25 13.0 -7.1 13.3 -10.3 L13.45 -11.15 13.55 -11.9 Q13.45 -12.4 13.3 -12.95 9.25 -15.85 7.25 -20.2 6.55 -21.8 6.35 -23.5 6.1 -25.15 5.8 -26.8 1.75 -24.3 -2.85 -23.35 L-4.2 -23.1 Q0.45 -27.55 5.15 -32.0 L6.8 -31.8 Q12.55 -22.35 18.3 -12.9 L14.65 2.1 Q12.5 6.9 10.3 11.75 10.45 18.1 10.65 24.5 L10.05 35.35 10.8 41.75 10.9 54.35 9.7 57.05 8.6 59.8 7.4 62.5 6.8 67.75 6.85 68.35 Q7.0 70.2 7.15 72.1 13.8 76.25 8.6 81.6 L7.4 82.5 4.65 83.95 6.15 97.85 Q8.9 106.1 0.1 108.65 -3.65 109.7 -7.5 108.05 -10.35 106.65 -11.6 103.5 -16.4 97.5 -21.2 91.5 L-22.6 83.75 Q-25.15 81.2 -27.7 78.6 -35.95 78.2 -33.95 71.2 M-28.9 71.0 Q-28.75 70.8 -28.6 70.55 L-28.3 69.95 Q-28.2 69.75 -28.1 69.5 -27.85 69.0 -27.6 68.45 -27.5 68.15 -27.4 67.85 -26.9 66.25 -26.9 64.5 -26.9 59.05 -25.9 53.9 -25.6 53.25 -25.25 52.6 -25.2 52.35 -25.1 52.05 -23.35 49.55 -22.3 46.75 -21.2 44.0 -20.8 41.0 L-20.5 37.8 Q-20.3 30.4 -18.75 23.2 -18.2 20.7 -17.25 18.35 -16.4 16.25 -16.8 14.5 -17.15 12.75 -18.75 11.35 -17.95 10.65 -17.1 9.95 -16.45 9.15 -15.8 8.3 -15.6 8.0 -15.35 7.7 -15.1 7.55 -14.8 7.35 -13.3 6.6 -12.55 5.5 -11.8 4.4 -11.8 2.9 L-11.8 1.55 Q-12.0 -1.25 -11.55 -4.0 -11.05 -6.75 -9.9 -9.45 -8.35 -13.2 -7.15 -16.9 -6.45 -19.25 -5.75 -21.65 -5.45 -21.95 -5.15 -22.25 -4.7 -22.65 -4.2 -23.1 L-2.85 -23.35 Q1.75 -24.3 5.8 -26.8 L6.0 -26.05 Q6.15 -24.8 6.35 -23.5 6.55 -21.8 7.25 -20.2 8.25 -18.05 9.75 -16.25 11.25 -14.4 13.3 -12.95 L13.5 -12.05 13.45 -11.15 13.3 -10.3 Q13.0 -7.1 11.55 -4.25 L10.95 -2.7 Q10.9 -1.9 10.8 -1.05 10.85 1.45 10.45 3.85 L10.05 6.05 Q9.25 9.5 7.6 12.7 7.2 13.4 7.1 14.05 5.9 20.65 6.2 27.5 6.5 33.4 7.8 39.15 9.75 47.95 9.2 56.8 L8.95 57.7 Q8.75 58.1 8.5 58.55 6.1 61.15 5.05 64.2 4.05 67.25 4.4 70.8 L5.2 77.7 Q4.25 78.25 3.6 79.05 3.0 79.9 2.7 80.95 1.5 85.4 1.4 90.15 1.3 96.9 2.2 103.45 0.9 102.8 -0.5 102.5 -2.6 101.9 -4.75 101.25 -5.8 100.65 -6.9 100.0 L-8.65 98.35 Q-16.35 89.1 -22.8 78.95 -22.95 78.7 -23.1 78.45 L-23.6 77.4 Q-24.5 75.25 -25.85 73.65 -27.15 72.05 -28.9 71.0 M-23.55 13.4 L-23.1 14.6 Q-22.6 15.25 -22.05 15.95 -23.3 14.8 -23.55 13.4 M-13.75 -13.5 L-13.75 -13.55 Q-13.65 -13.8 -13.55 -14.05 -13.55 -14.15 -13.55 -14.25 L-13.45 -14.35 -13.45 -14.35 Q-13.35 -14.45 -13.2 -14.6 L-13.3 -14.5 -13.5 -14.35 -13.7 -14.15 -13.7 -13.9 Q-13.7 -13.7 -13.75 -13.5"/>
    </path>
  </g>
</svg>
