<?xml version="1.0" encoding="UTF-8" standalone="no"?>
<svg xmlns:xlink="http://www.w3.org/1999/xlink" height="116.6px" width="34.25px" xmlns="http://www.w3.org/2000/svg">
  <g transform="matrix(1.0, 0.0, 0.0, 1.0, 24.85, 7.75)">
    <path d="M-20.7 33.0 L-20.7 33.0 -19.9 36.3 -19.5 38.0 -18.8 40.7 -17.95 44.25 Q-17.8 46.1 -17.05 47.6 -16.3 49.15 -14.7 49.25 L-14.2 49.25 Q-9.5 48.7 -11.4 43.15 L-8.75 43.3 -7.65 43.4 -6.15 40.3 -2.4 42.05 2.5 44.35 2.2 42.85 1.25 38.5 1.7 36.1 Q2.05 33.0 -0.8 32.1 L-0.25 31.2 0.3 30.15 Q1.25 28.2 1.5 26.2 2.0 21.6 -1.15 16.75 L0.1 15.5 Q0.75 14.75 1.0 13.85 L1.1 13.0 1.1 12.55 Q1.1 9.55 0.0 6.85 -0.95 4.6 -2.65 2.5 L-2.65 2.4 -2.55 1.75 Q-2.4 0.45 -1.85 -0.7 -0.55 -3.45 -1.1 -5.9 L-1.75 -7.65 -3.15 -7.75 -3.9 -7.15 -4.75 -6.0 Q-4.75 -5.25 -5.0 -4.6 L-5.4 -3.2 Q-5.8 -1.45 -5.65 0.35 L-6.45 0.75 -7.45 1.5 Q-10.1 3.9 -8.6 7.25 L-8.15 8.1 -8.05 8.5 -7.85 9.2 -7.8 9.35 -8.0 9.8 -8.15 10.1 -8.15 10.4 -8.75 10.75 Q-10.5 11.9 -11.0 14.1 L-11.3 14.2 -12.2 14.8 -12.2 14.8 -13.35 15.8 Q-14.9 17.45 -14.9 19.7 -14.9 21.1 -14.25 22.75 -15.65 24.25 -16.55 26.1 L-18.1 29.35 Q-19.0 31.3 -19.0 33.35 L-20.7 33.0" fill="#ffffff" fill-opacity="0.5019608" fill-rule="evenodd" stroke="none">
      <animate attributeName="fill" dur="2s" repeatCount="indefinite" values="#ffffff;#ffffff"/>
      <animate attributeName="fill-opacity" dur="2s" repeatCount="indefinite" values="0.5019608;1.0"/>
      <animate attributeName="d" dur="2s" repeatCount="indefinite" values="M-20.7 33.0 L-20.7 33.0 -19.9 36.3 -19.5 38.0 -18.8 40.7 -17.95 44.25 Q-17.8 46.1 -17.05 47.6 -16.3 49.15 -14.7 49.25 L-14.2 49.25 Q-9.5 48.7 -11.4 43.15 L-8.75 43.3 -7.65 43.4 -6.15 40.3 -2.4 42.05 2.5 44.35 2.2 42.85 1.25 38.5 1.7 36.1 Q2.05 33.0 -0.8 32.1 L-0.25 31.2 0.3 30.15 Q1.25 28.2 1.5 26.2 2.0 21.6 -1.15 16.75 L0.1 15.5 Q0.75 14.75 1.0 13.85 L1.1 13.0 1.1 12.55 Q1.1 9.55 0.0 6.85 -0.95 4.6 -2.65 2.5 L-2.65 2.4 -2.55 1.75 Q-2.4 0.45 -1.85 -0.7 -0.55 -3.45 -1.1 -5.9 L-1.75 -7.65 -3.15 -7.75 -3.9 -7.15 -4.75 -6.0 Q-4.75 -5.25 -5.0 -4.6 L-5.4 -3.2 Q-5.8 -1.45 -5.65 0.35 L-6.45 0.75 -7.45 1.5 Q-10.1 3.9 -8.6 7.25 L-8.15 8.1 -8.05 8.5 -7.85 9.2 -7.8 9.35 -8.0 9.8 -8.15 10.1 -8.15 10.4 -8.75 10.75 Q-10.5 11.9 -11.0 14.1 L-11.3 14.2 -12.2 14.8 -12.2 14.8 -13.35 15.8 Q-14.9 17.45 -14.9 19.7 -14.9 21.1 -14.25 22.75 -15.65 24.25 -16.55 26.1 L-18.1 29.35 Q-19.0 31.3 -19.0 33.35 L-20.7 33.0;M-24.85 83.0 L-24.75 83.1 -22.05 86.2 -20.3 84.85 -17.0 85.75 -16.9 90.15 Q-16.9 92.25 -16.9 94.35 -16.85 96.15 -16.85 97.95 L-16.35 98.55 Q-13.25 102.45 -10.2 106.35 L-8.2 108.85 -7.7 107.55 -6.1 103.65 -4.2 98.9 1.65 101.9 3.35 102.8 4.75 97.6 5.45 94.7 Q6.25 91.55 7.05 88.45 L7.35 87.15 8.7 87.45 Q9.05 84.9 9.4 82.4 8.0 76.35 6.6 70.3 L6.1 68.3 Q5.85 67.25 5.6 66.2 L4.6 66.15 3.95 66.15 Q1.05 64.05 -1.85 61.95 -3.0 59.0 -4.15 56.1 L-4.15 56.0 -4.05 55.1 Q-3.85 53.65 -3.65 52.2 -3.25 49.1 -2.9 46.0 L-3.8 43.9 -4.5 42.4 -5.0 41.4 -5.6 40.1 Q-5.95 39.35 -6.3 38.6 L-7.0 37.0 Q-8.3 38.8 -9.6 40.6 L-10.2 41.4 -11.0 42.5 Q-11.15 46.45 -11.25 50.35 L-12.45 50.85 -12.85 51.0 -13.75 51.35 -13.95 51.45 -14.55 51.85 -14.9 52.15 -15.2 52.35 -15.9 52.8 Q-18.1 54.55 -17.65 57.3 L-17.55 57.6 -17.15 58.75 -17.05 59.05 -16.25 60.6 Q-15.7 63.15 -15.15 65.7 -16.1 67.4 -17.05 69.1 -18.2 71.2 -19.35 73.3 L-21.25 76.7 Q-22.5 78.9 -23.75 81.1 L-24.85 83.0"/>
    </path>
    <path d="M-20.7 33.0 L-19.0 33.35 Q-19.0 31.3 -18.1 29.35 L-16.55 26.1 Q-15.65 24.25 -14.25 22.75 -14.9 21.1 -14.9 19.7 -14.9 17.45 -13.35 15.8 L-12.2 14.8 -12.2 14.8 -11.3 14.2 -11.0 14.1 Q-10.5 11.9 -8.75 10.75 L-8.15 10.4 -8.15 10.1 -8.0 9.8 -7.8 9.35 -7.85 9.2 -8.05 8.5 -8.15 8.1 -8.6 7.25 Q-10.1 3.9 -7.45 1.5 L-6.45 0.75 -5.65 0.35 Q-5.8 -1.45 -5.4 -3.2 L-5.0 -4.6 Q-4.75 -5.25 -4.75 -6.0 L-3.9 -7.15 -3.15 -7.75 -1.75 -7.65 -1.1 -5.9 Q-0.55 -3.45 -1.85 -0.7 -2.4 0.45 -2.55 1.75 L-2.65 2.4 -2.65 2.5 Q-0.95 4.6 0.0 6.85 1.1 9.55 1.1 12.55 L1.1 13.0 1.0 13.85 Q0.75 14.75 0.1 15.5 L-1.15 16.75 Q2.0 21.6 1.5 26.2 1.25 28.2 0.3 30.15 L-0.25 31.2 -0.8 32.1 Q2.05 33.0 1.7 36.1 L1.25 38.5 2.2 42.85 2.5 44.35 -2.4 42.05 -6.15 40.3 -7.65 43.4 -8.75 43.3 -11.4 43.15 Q-9.5 48.7 -14.2 49.25 L-14.7 49.25 Q-16.3 49.15 -17.05 47.6 -17.8 46.1 -17.95 44.25 L-18.8 40.7 -19.5 38.0 -19.9 36.3 -20.7 33.0 -20.7 33.0" fill="none" stroke="#000000" stroke-linecap="round" stroke-linejoin="round" stroke-opacity="0.0" stroke-width="1.0">
      <animate attributeName="stroke" dur="2s" repeatCount="indefinite" values="#000000;#000001"/>
      <animate attributeName="stroke-width" dur="2s" repeatCount="indefinite" values="0.0;0.0"/>
      <animate attributeName="fill-opacity" dur="2s" repeatCount="indefinite" values="0.0;0.0"/>
      <animate attributeName="d" dur="2s" repeatCount="indefinite" values="M-20.7 33.0 L-19.0 33.35 Q-19.0 31.3 -18.1 29.35 L-16.55 26.1 Q-15.65 24.25 -14.25 22.75 -14.9 21.1 -14.9 19.7 -14.9 17.45 -13.35 15.8 L-12.2 14.8 -12.2 14.8 -11.3 14.2 -11.0 14.1 Q-10.5 11.9 -8.75 10.75 L-8.15 10.4 -8.15 10.1 -8.0 9.8 -7.8 9.35 -7.85 9.2 -8.05 8.5 -8.15 8.1 -8.6 7.25 Q-10.1 3.9 -7.45 1.5 L-6.45 0.75 -5.65 0.35 Q-5.8 -1.45 -5.4 -3.2 L-5.0 -4.6 Q-4.75 -5.25 -4.75 -6.0 L-3.9 -7.15 -3.15 -7.75 -1.75 -7.65 -1.1 -5.9 Q-0.55 -3.45 -1.85 -0.7 -2.4 0.45 -2.55 1.75 L-2.65 2.4 -2.65 2.5 Q-0.95 4.6 0.0 6.85 1.1 9.55 1.1 12.55 L1.1 13.0 1.0 13.85 Q0.75 14.75 0.1 15.5 L-1.15 16.75 Q2.0 21.6 1.5 26.2 1.25 28.2 0.3 30.15 L-0.25 31.2 -0.8 32.1 Q2.05 33.0 1.7 36.1 L1.25 38.5 2.2 42.85 2.5 44.35 -2.4 42.05 -6.15 40.3 -7.65 43.4 -8.75 43.3 -11.4 43.15 Q-9.5 48.7 -14.2 49.25 L-14.7 49.25 Q-16.3 49.15 -17.05 47.6 -17.8 46.1 -17.95 44.25 L-18.8 40.7 -19.5 38.0 -19.9 36.3 -20.7 33.0 -20.7 33.0;M-24.85 83.0 L-23.75 81.1 Q-22.5 78.9 -21.25 76.7 L-19.35 73.3 Q-18.2 71.2 -17.05 69.1 -16.1 67.4 -15.15 65.7 -15.7 63.15 -16.25 60.6 L-17.05 59.05 -17.15 58.75 -17.55 57.6 -17.65 57.3 Q-18.1 54.55 -15.9 52.8 L-15.2 52.35 -14.9 52.15 -14.55 51.85 -13.95 51.45 -13.75 51.35 -12.85 51.0 -12.45 50.85 -11.25 50.35 Q-11.15 46.45 -11.0 42.5 L-10.2 41.4 -9.6 40.6 Q-8.3 38.8 -7.0 37.0 L-6.3 38.6 Q-5.95 39.35 -5.6 40.1 L-5.0 41.4 -4.5 42.4 -3.8 43.9 -2.9 46.0 Q-3.25 49.1 -3.65 52.2 -3.85 53.65 -4.05 55.1 L-4.15 56.0 -4.15 56.1 Q-3.0 59.0 -1.85 61.95 1.05 64.05 3.95 66.15 L4.6 66.15 5.6 66.2 Q5.85 67.25 6.1 68.3 L6.6 70.3 Q8.0 76.35 9.4 82.4 9.05 84.9 8.7 87.45 L7.35 87.15 7.05 88.45 Q6.25 91.55 5.45 94.7 L4.75 97.6 3.35 102.8 1.65 101.9 -4.2 98.9 -6.1 103.65 -7.7 107.55 -8.2 108.85 -10.2 106.35 Q-13.25 102.45 -16.35 98.55 L-16.85 97.95 Q-16.85 96.15 -16.9 94.35 -16.9 92.25 -16.9 90.15 L-17.0 85.75 -20.3 84.85 -22.05 86.2 -24.75 83.1 -24.85 83.0"/>
    </path>
  </g>
</svg>
