<?xml version="1.0" encoding="UTF-8" standalone="no"?>
<svg xmlns:xlink="http://www.w3.org/1999/xlink" height="111.6px" width="37.45px" xmlns="http://www.w3.org/2000/svg">
  <g transform="matrix(1.0, 0.0, 0.0, 1.0, 27.0, 4.55)">
    <path d="M-27.0 52.95 L-27.0 53.05 Q-26.85 60.15 -25.85 67.2 -25.65 68.75 -24.75 69.85 -19.7 75.6 -13.9 70.85 L-8.35 67.3 -8.15 67.3 -3.95 68.1 -3.25 68.9 Q-2.4 69.55 -1.15 69.75 5.4 70.55 4.45 63.5 4.3 62.55 4.55 61.7 5.05 59.7 5.15 57.85 5.3 54.2 3.7 50.95 2.6 48.65 0.6 46.6 L0.2 46.2 -0.2 42.6 -0.2 42.1 0.95 39.25 6.5 21.8 7.5 19.9 9.5 19.55 10.45 18.5 9.1 13.6 9.0 13.3 10.35 12.7 9.6 7.2 9.05 7.25 6.75 1.8 7.5 1.8 3.75 -3.4 3.85 -4.55 -7.35 -4.4 -8.15 -4.4 -9.65 -1.4 -9.2 -0.85 -14.65 14.95 -15.15 16.55 -17.15 22.55 -18.35 26.1 -18.45 26.5 -17.95 37.65 -21.5 36.9 -21.15 43.25 Q-23.9 45.5 -25.9 48.7 -27.05 50.6 -27.0 52.95" fill="#6699ff" fill-rule="evenodd" stroke="none">
      <animate attributeName="fill" dur="2s" repeatCount="indefinite" values="#6699ff;#6699ff"/>
      <animate attributeName="fill-opacity" dur="2s" repeatCount="indefinite" values="1.0;1.0"/>
      <animate attributeName="d" dur="2s" repeatCount="indefinite" values="M-27.0 52.95 L-27.0 53.05 Q-26.85 60.15 -25.85 67.2 -25.65 68.75 -24.75 69.85 -19.7 75.6 -13.9 70.85 L-8.35 67.3 -8.15 67.3 -3.95 68.1 -3.25 68.9 Q-2.4 69.55 -1.15 69.75 5.4 70.55 4.45 63.5 4.3 62.55 4.55 61.7 5.05 59.7 5.15 57.85 5.3 54.2 3.7 50.95 2.6 48.65 0.6 46.6 L0.2 46.2 -0.2 42.6 -0.2 42.1 0.95 39.25 6.5 21.8 7.5 19.9 9.5 19.55 10.45 18.5 9.1 13.6 9.0 13.3 10.35 12.7 9.6 7.2 9.05 7.25 6.75 1.8 7.5 1.8 3.75 -3.4 3.85 -4.55 -7.35 -4.4 -8.15 -4.4 -9.65 -1.4 -9.2 -0.85 -14.65 14.95 -15.15 16.55 -17.15 22.55 -18.35 26.1 -18.45 26.5 -17.95 37.65 -21.5 36.9 -21.15 43.25 Q-23.9 45.5 -25.9 48.7 -27.05 50.6 -27.0 52.95;M-23.1 63.0 L-23.1 63.0 Q-24.85 68.45 -24.65 73.8 -24.55 74.9 -24.45 76.0 -23.95 80.5 -22.0 84.85 L-19.65 89.2 -19.55 89.3 -17.85 92.2 -17.45 92.9 Q-17.0 93.65 -16.6 94.35 -14.35 97.85 -11.15 100.15 -10.6 100.5 -10.1 100.85 -8.75 101.6 -7.45 102.3 -6.15 104.7 -4.9 107.05 -3.8 105.3 -2.7 103.6 L-2.3 103.6 0.5 103.2 0.6 102.8 0.9 100.5 3.1 86.75 3.4 85.15 3.7 83.65 3.9 82.65 4.5 78.85 4.5 78.55 4.4 77.45 4.0 73.15 4.0 72.75 3.6 68.25 3.6 67.75 3.2 62.95 3.1 62.05 2.4 53.55 2.1 53.05 0.9 50.85 0.6 50.35 -5.65 39.2 -5.45 37.95 -10.25 38.1 -12.35 40.05 -12.45 40.25 -16.05 48.0 -17.25 50.5 -19.35 54.9 Q-20.55 57.4 -21.7 59.9 -22.4 61.45 -23.1 63.0"/>
    </path>
    <path d="M-27.0 52.95 Q-27.05 50.6 -25.9 48.7 -23.9 45.5 -21.15 43.25 L-21.5 36.9 -17.95 37.65 -18.45 26.5 -18.35 26.1 -17.15 22.55 -15.15 16.55 -14.65 14.95 -9.2 -0.85 -9.65 -1.4 -8.15 -4.4 -7.35 -4.4 3.85 -4.55 3.75 -3.4 7.5 1.8 6.75 1.8 9.05 7.25 9.6 7.2 10.35 12.7 9.0 13.3 9.1 13.6 10.45 18.5 9.5 19.55 7.5 19.9 6.5 21.8 0.95 39.25 -0.2 42.1 -0.2 42.6 0.2 46.2 0.6 46.6 Q2.6 48.65 3.7 50.95 5.3 54.2 5.15 57.85 5.05 59.7 4.55 61.7 4.3 62.55 4.45 63.5 5.4 70.55 -1.15 69.75 -2.4 69.55 -3.25 68.9 L-3.95 68.1 -8.15 67.3 -8.35 67.3 -13.9 70.85 Q-19.7 75.6 -24.75 69.85 -25.65 68.75 -25.85 67.2 -26.85 60.15 -27.0 53.05 L-27.0 52.95" fill="none" stroke="#000000" stroke-linecap="round" stroke-linejoin="round" stroke-opacity="0.0" stroke-width="1.0">
      <animate attributeName="stroke" dur="2s" repeatCount="indefinite" values="#000000;#000001"/>
      <animate attributeName="stroke-width" dur="2s" repeatCount="indefinite" values="0.0;0.0"/>
      <animate attributeName="fill-opacity" dur="2s" repeatCount="indefinite" values="0.0;0.0"/>
      <animate attributeName="d" dur="2s" repeatCount="indefinite" values="M-27.0 52.95 Q-27.05 50.6 -25.9 48.7 -23.9 45.5 -21.15 43.25 L-21.5 36.9 -17.95 37.65 -18.45 26.5 -18.35 26.1 -17.15 22.55 -15.15 16.55 -14.65 14.95 -9.2 -0.85 -9.65 -1.4 -8.15 -4.4 -7.35 -4.4 3.85 -4.55 3.75 -3.4 7.5 1.8 6.75 1.8 9.05 7.25 9.6 7.2 10.35 12.7 9.0 13.3 9.1 13.6 10.45 18.5 9.5 19.55 7.5 19.9 6.5 21.8 0.95 39.25 -0.2 42.1 -0.2 42.6 0.2 46.2 0.6 46.6 Q2.6 48.65 3.7 50.95 5.3 54.2 5.15 57.85 5.05 59.7 4.55 61.7 4.3 62.55 4.45 63.5 5.4 70.55 -1.15 69.75 -2.4 69.55 -3.25 68.9 L-3.95 68.1 -8.15 67.3 -8.35 67.3 -13.9 70.85 Q-19.7 75.6 -24.75 69.85 -25.65 68.75 -25.85 67.2 -26.85 60.15 -27.0 53.05 L-27.0 52.95;M-23.1 63.0 Q-22.4 61.45 -21.7 59.9 -20.55 57.4 -19.35 54.9 L-17.25 50.5 -16.05 48.0 -12.45 40.25 -12.35 40.05 -10.25 38.1 -5.45 37.95 -5.65 39.2 0.6 50.35 0.9 50.85 2.1 53.05 2.4 53.55 3.1 62.05 3.2 62.95 3.6 67.75 3.6 68.25 4.0 72.75 4.0 73.15 4.4 77.45 4.5 78.55 4.5 78.85 3.9 82.65 3.7 83.65 3.4 85.15 3.1 86.75 0.9 100.5 0.6 102.8 0.5 103.2 -2.3 103.6 -2.7 103.6 Q-3.8 105.3 -4.9 107.05 -6.15 104.7 -7.45 102.3 -8.75 101.6 -10.1 100.85 -10.6 100.5 -11.15 100.15 -14.35 97.85 -16.6 94.35 -17.0 93.65 -17.45 92.9 L-17.85 92.2 -19.55 89.3 -19.65 89.2 -22.0 84.85 Q-23.95 80.5 -24.45 76.0 -24.55 74.9 -24.65 73.8 -24.85 68.45 -23.1 63.0 L-23.1 63.0"/>
    </path>
  </g>
</svg>
