<?xml version="1.0" encoding="UTF-8" standalone="no"?>
<svg xmlns:xlink="http://www.w3.org/1999/xlink" height="17.95px" width="18.1px" xmlns="http://www.w3.org/2000/svg">
  <g transform="matrix(1.0, 0.0, 0.0, 1.0, -1.1, -0.5)">
    <path d="M11.95 18.45 Q5.3 15.45 1.1 9.1 3.0 2.25 9.7 0.5 16.1 4.55 19.2 11.2 17.55 16.8 11.95 18.45" fill="#000000" fill-rule="evenodd" stroke="none"/>
    <path d="M11.35 8.2 L10.45 7.5 9.2 6.65 8.15 6.2 7.5 6.15 7.0 6.7 Q6.75 7.15 7.2 8.15 7.65 9.25 8.4 10.2 L8.1 10.3 7.75 10.5 7.35 9.95 6.95 9.15 6.9 9.1 Q6.45 8.0 6.45 6.95 6.4 6.45 6.6 6.05 L7.05 5.4 7.15 5.4 7.45 5.25 Q8.6 5.4 9.55 6.0 L10.15 6.35 11.9 7.8 12.4 8.65 12.7 9.1 12.35 9.45 12.25 9.45 11.35 8.2 M9.15 8.2 L9.3 8.45 9.45 8.8 9.3 9.25 Q8.65 9.2 8.3 8.6 L8.25 8.15 Q8.25 7.95 8.55 7.85 L9.15 8.2 M8.1 6.9 Q8.65 7.1 8.35 7.55 L7.95 7.55 Q7.65 7.35 7.9 7.05 L8.1 6.9" fill="#ffffff" fill-rule="evenodd" stroke="none"/>
    <path d="M6.9 5.25 L6.85 5.3 6.2 5.75 6.15 5.8 6.0 6.1 5.9 6.2 Q5.75 7.35 6.3 8.45 L7.0 9.95 8.05 11.4 8.35 11.8 8.5 12.0 Q9.3 12.85 10.4 13.35 L10.8 13.5 11.75 13.7 12.95 13.3 13.2 13.0 13.8 12.2 Q14.15 10.7 13.7 9.55 13.0 8.05 11.9 7.1 11.3 6.35 10.5 5.9 L10.15 5.7 Q10.7 5.85 11.3 6.15 12.9 7.0 13.9 8.5 L14.45 9.35 Q15.4 10.95 14.8 12.8 L13.95 14.0 Q12.1 14.7 10.3 13.7 L10.05 13.55 9.3 13.85 9.25 13.85 7.75 12.5 5.55 9.8 5.15 9.1 Q4.5 7.55 4.4 5.95 L4.4 5.9 4.5 5.5 4.55 5.3 4.85 4.7 Q5.15 4.05 5.9 3.75 L6.95 3.4 7.25 3.4 7.0 3.55 Q6.1 3.95 5.85 4.85 L6.6 5.1 6.9 5.25 M10.05 1.75 L10.65 2.25 8.8 2.5 8.55 2.55 7.2 2.25 6.9 2.25 9.4 1.25 10.05 1.75 M3.2 5.7 Q3.35 7.2 3.85 8.7 L3.95 9.1 Q4.5 10.3 5.4 11.35 L7.65 13.75 7.95 14.05 7.25 14.15 6.55 14.05 Q3.95 11.75 2.0 8.8 2.4 7.05 3.2 5.7" fill="#cc9900" fill-rule="evenodd" stroke="none"/>
    <path d="M6.9 5.25 L6.6 5.1 5.85 4.85 Q6.1 3.95 7.0 3.55 L7.25 3.4 8.25 3.65 Q10.0 4.1 11.45 5.3 12.85 6.35 14.0 7.75 15.05 9.1 15.9 10.75 L16.05 11.1 16.2 11.55 16.55 13.3 16.5 13.65 Q15.6 15.2 13.9 15.85 L12.9 15.85 Q11.65 15.5 10.55 14.75 L9.25 13.85 9.3 13.85 10.05 13.55 10.3 13.7 Q12.1 14.7 13.95 14.0 L14.8 12.8 Q15.4 10.95 14.45 9.35 L13.9 8.5 Q12.9 7.0 11.3 6.15 10.7 5.85 10.15 5.7 L8.35 5.1 7.2 5.15 7.0 5.1 6.9 5.25 M17.8 12.5 L17.3 11.5 15.6 8.35 13.4 5.6 10.55 3.45 Q9.55 2.85 8.55 2.55 L8.8 2.5 10.65 2.25 10.05 1.75 Q14.75 5.5 18.2 10.85 L17.8 12.5 M7.95 14.05 L9.4 15.25 Q10.45 16.05 11.65 16.25 L11.75 16.3 13.95 16.8 14.15 16.85 11.55 17.5 6.55 14.05 7.25 14.15 7.95 14.05" fill="#996600" fill-rule="evenodd" stroke="none"/>
    <path d="M8.7 5.25 L8.65 5.25 8.7 5.25" fill="#ffcc33" fill-rule="evenodd" stroke="none"/>
    <path d="M10.15 5.7 L10.5 5.9 Q11.3 6.35 11.9 7.1 13.0 8.05 13.7 9.55 14.15 10.7 13.8 12.2 L13.2 13.0 12.95 13.3 11.75 13.7 10.8 13.5 10.4 13.35 Q9.3 12.85 8.5 12.0 L8.35 11.8 8.05 11.4 7.0 9.95 6.3 8.45 Q5.75 7.35 5.9 6.2 L6.0 6.1 6.15 5.8 6.2 5.75 6.85 5.3 6.9 5.25 7.0 5.1 7.2 5.15 8.35 5.1 10.15 5.7 M7.25 3.4 L6.95 3.4 5.9 3.75 Q5.15 4.05 4.85 4.7 L4.55 5.3 4.5 5.5 4.4 5.9 4.4 5.95 Q4.5 7.55 5.15 9.1 L5.55 9.8 7.75 12.5 9.25 13.85 10.55 14.75 Q11.65 15.5 12.9 15.85 L13.9 15.85 Q15.6 15.2 16.5 13.65 L16.55 13.3 16.2 11.55 16.05 11.1 15.9 10.75 Q15.05 9.1 14.0 7.75 12.85 6.35 11.45 5.3 10.0 4.1 8.25 3.65 L7.25 3.4 M8.55 2.55 Q9.55 2.85 10.55 3.45 L13.4 5.6 15.6 8.35 17.3 11.5 17.8 12.5 17.4 13.5 Q16.55 15.3 15.05 16.35 L14.15 16.85 13.95 16.8 11.75 16.3 11.65 16.25 Q10.45 16.05 9.4 15.25 L7.95 14.05 7.65 13.75 5.4 11.35 Q4.5 10.3 3.95 9.1 L3.85 8.7 Q3.35 7.2 3.2 5.7 3.85 4.6 4.75 3.8 L5.15 3.4 Q5.95 2.75 6.9 2.25 L7.2 2.25 8.55 2.55 M12.7 9.1 L12.4 8.65 11.9 7.8 10.15 6.35 9.55 6.0 Q8.6 5.4 7.45 5.25 L7.15 5.4 7.05 5.4 6.6 6.05 Q6.4 6.45 6.45 6.95 6.45 8.0 6.9 9.1 L6.95 9.15 7.35 9.95 7.75 10.5 8.5 11.35 8.55 11.4 9.8 12.5 9.9 12.55 9.95 12.65 10.05 12.65 Q10.8 13.15 11.6 13.15 L11.9 13.25 12.45 13.0 12.8 12.85 12.9 12.8 13.05 12.7 Q13.8 11.35 13.1 9.8 L12.7 9.1 M8.7 5.25 L8.65 5.25 8.7 5.25" fill="#663300" fill-rule="evenodd" stroke="none"/>
    <path d="M11.35 8.2 L12.25 9.45 12.55 10.2 Q12.9 11.55 12.15 12.1 11.9 12.2 11.75 12.4 L11.25 12.4 10.6 12.1 Q9.25 11.3 8.4 10.2 7.65 9.25 7.2 8.15 L7.5 8.15 Q8.35 9.85 9.7 10.9 L10.55 11.65 12.1 11.35 Q12.45 10.85 11.95 10.05 L10.6 8.2 10.65 8.2 11.35 8.2" fill="#990000" fill-rule="evenodd" stroke="none"/>
    <path d="M7.5 8.15 L7.55 8.15 8.2 8.2 8.25 8.15 8.3 8.6 Q8.65 9.2 9.3 9.25 L9.45 8.8 9.3 8.45 9.15 8.2 10.6 8.2 11.95 10.05 Q12.45 10.85 12.1 11.35 L10.55 11.65 9.7 10.9 Q8.35 9.85 7.5 8.15" fill="#ff0000" fill-rule="evenodd" stroke="none"/>
    <path d="M7.2 8.15 Q6.75 7.15 7.0 6.7 L7.5 6.15 8.15 6.2 9.2 6.65 10.45 7.5 11.35 8.2 10.65 8.2 Q9.85 7.05 8.4 6.75 L7.6 6.75 Q6.85 7.0 7.55 8.15 L7.5 8.15 7.2 8.15" fill="#666666" fill-rule="evenodd" stroke="none"/>
    <path d="M12.25 9.45 L12.35 9.45 12.7 9.1 13.1 9.8 Q13.8 11.35 13.05 12.7 L12.9 12.8 12.8 12.85 12.45 13.0 11.9 13.25 11.6 13.15 Q10.8 13.15 10.05 12.65 L9.95 12.65 9.9 12.55 9.8 12.5 8.55 11.4 8.5 11.35 7.75 10.5 8.1 10.3 8.4 10.2 Q9.25 11.3 10.6 12.1 L11.25 12.4 11.75 12.4 Q11.9 12.2 12.15 12.1 12.9 11.55 12.55 10.2 L12.25 9.45 M7.55 8.15 Q6.85 7.0 7.6 6.75 L8.4 6.75 Q9.85 7.05 10.65 8.2 L10.6 8.2 9.15 8.2 8.55 7.85 Q8.25 7.95 8.25 8.15 L8.2 8.2 7.55 8.15 M8.1 6.9 L7.9 7.05 Q7.65 7.35 7.95 7.55 L8.35 7.55 Q8.65 7.1 8.1 6.9" fill="#999999" fill-rule="evenodd" stroke="none"/>
  </g>
</svg>
