<?xml version="1.0" encoding="UTF-8" standalone="no"?>
<svg xmlns:xlink="http://www.w3.org/1999/xlink" height="15.35px" width="19.55px" xmlns="http://www.w3.org/2000/svg">
  <g transform="matrix(1.0, 0.0, 0.0, 1.0, -0.35, -2.2)">
    <path d="M15.65 6.1 L15.65 5.9 Q15.65 4.65 15.95 3.4 L16.0 3.3 17.7 3.85 18.45 4.4 18.6 4.75 18.8 7.7 18.8 7.8 18.6 7.75 17.85 8.05 17.85 7.95 17.8 7.75 17.65 7.5 17.6 7.4 17.1 6.9 15.65 6.1 M11.05 2.85 L11.55 2.8 11.9 2.7 13.35 2.7 13.5 2.75 14.8 3.05 14.9 3.1 15.2 3.15 15.4 3.2 15.0 5.65 15.0 5.85 13.75 5.55 10.5 5.85 10.45 5.85 8.05 7.5 7.45 7.2 7.5 7.2 7.3 7.15 7.3 7.05 6.8 6.65 6.75 6.6 6.45 6.0 6.25 5.35 6.7 4.95 8.65 3.9 10.1 3.15 11.05 2.85 M10.55 5.2 Q10.85 5.3 11.0 4.95 L11.15 4.6 Q11.4 3.95 10.8 3.75 L10.6 3.8 Q10.4 3.85 10.35 4.05 L10.2 4.5 Q10.05 5.05 10.55 5.2 M9.4 5.85 L9.8 5.1 Q9.95 4.45 9.3 4.4 8.9 4.75 8.85 5.35 8.75 5.95 9.4 5.85 M8.05 5.05 Q7.7 5.45 7.7 6.0 7.7 6.55 8.25 6.45 L8.4 6.2 8.55 5.7 Q8.7 5.15 8.2 5.0 L8.05 5.05 M10.3 13.2 L10.85 13.25 11.9 13.45 14.7 13.5 15.25 13.45 15.25 13.5 15.2 13.75 15.2 14.05 14.0 14.35 13.5 14.4 13.45 14.4 12.65 14.45 12.0 14.35 11.6 14.3 11.15 14.25 10.55 14.15 10.2 14.05 10.0 13.95 10.0 13.35 10.0 13.15 10.3 13.2 M3.5 14.15 L4.15 14.7 4.7 15.65 4.75 15.8 4.8 16.0 4.7 16.45 4.65 16.3 4.55 16.1 3.7 15.0 3.65 14.95 3.65 14.85 3.7 14.65 3.7 14.55 3.65 14.5 3.85 14.4 3.5 14.15 M2.25 14.25 L1.7 14.25 1.4 14.2 1.45 14.05 Q1.6 13.8 1.95 13.75 L2.2 13.75 2.25 13.75 2.25 13.85 2.3 14.0 2.2 13.95 2.25 14.1 2.25 14.25" fill="#000000" fill-rule="evenodd" stroke="none"/>
    <path d="M10.9 2.3 L11.3 2.5 11.3 2.55 11.05 2.85 10.1 3.15 8.65 3.9 Q8.45 3.9 8.35 3.75 8.2 3.55 8.3 3.35 L8.3 3.3 8.45 3.3 8.7 3.1 9.3 2.8 10.65 2.35 10.7 2.35 10.75 2.35 10.9 2.3 M0.65 12.85 L0.55 13.15 0.6 12.9 0.65 12.85 M9.2 9.5 L9.2 9.6 9.2 9.75 9.15 9.55 9.2 9.5 M15.25 13.5 Q15.5 13.45 15.65 13.65 16.0 14.1 15.5 14.45 L14.25 14.95 13.6 15.0 10.75 14.75 Q10.25 14.65 9.8 14.35 9.35 14.05 9.5 13.55 9.6 13.15 10.0 13.1 L10.3 13.2 10.0 13.15 10.0 13.35 10.0 13.95 10.2 14.05 10.55 14.15 11.15 14.25 11.6 14.3 12.0 14.35 12.65 14.45 13.45 14.4 13.5 14.4 14.0 14.35 15.2 14.05 15.2 13.75 15.25 13.5 M5.15 15.1 L5.15 15.05 5.2 15.1 5.15 15.1" fill="#999999" fill-rule="evenodd" stroke="none"/>
    <path d="M3.4 15.2 L2.8 15.25 2.55 15.15 2.45 14.9 3.4 15.2" fill="#cc3300" fill-rule="evenodd" stroke="none"/>
    <path d="M18.8 7.8 L18.8 7.7 18.6 4.75 18.45 4.4 17.7 3.85 16.0 3.3 15.95 3.4 Q15.65 4.65 15.65 5.9 L15.65 6.1 15.3 5.95 15.0 5.85 15.0 5.65 15.4 3.2 15.2 3.15 14.9 3.1 14.8 3.05 13.5 2.75 13.35 2.7 11.9 2.7 11.55 2.8 11.05 2.85 11.3 2.55 11.3 2.5 10.9 2.3 11.55 2.2 11.6 2.2 12.2 2.2 13.4 2.25 15.1 2.55 15.15 2.55 16.7 3.0 17.6 3.35 18.25 3.7 18.35 3.75 18.4 3.75 18.55 3.85 18.85 4.2 Q19.35 4.8 19.5 5.65 L19.75 7.0 19.8 7.15 19.8 7.25 19.85 7.5 19.9 8.3 19.9 9.2 19.85 8.8 19.85 8.75 19.85 8.7 19.8 8.65 19.6 8.25 18.8 7.8 M10.1 9.95 L10.15 10.0 10.0 9.95 9.85 9.95 9.75 10.0 9.7 10.05 9.6 10.05 9.55 10.05 9.45 10.25 8.75 11.1 Q8.55 11.35 8.5 11.7 L8.4 11.75 8.4 12.0 8.35 12.4 Q8.1 13.25 8.25 14.2 L8.25 14.25 8.35 14.55 8.1 14.75 7.65 15.05 7.55 15.15 7.2 15.55 7.2 15.45 7.0 15.65 6.3 16.35 6.75 15.95 6.85 15.1 6.6 13.9 5.85 12.7 5.35 12.2 4.75 11.7 4.25 11.5 3.7 11.35 2.95 11.3 2.9 11.3 2.7 11.3 2.35 11.35 2.5 11.05 2.65 10.85 2.95 10.85 3.2 10.85 3.25 10.85 3.75 10.9 Q4.75 11.05 5.6 11.8 L5.65 11.85 6.05 12.3 Q6.75 13.1 7.05 14.1 L6.85 13.55 7.75 12.5 Q7.95 11.35 8.65 10.4 L8.7 10.35 8.8 10.2 9.05 9.85 9.2 9.75 9.25 9.65 10.1 9.95 M17.5 14.3 L17.45 14.15 Q17.55 13.35 17.3 12.65 L16.9 11.95 16.7 11.65 16.5 11.35 16.65 11.2 16.75 11.15 17.25 10.7 17.45 10.5 17.7 10.2 17.75 10.3 17.75 10.25 17.75 10.15 17.9 9.95 18.0 9.75 18.55 8.8 18.6 8.75 18.7 8.6 18.7 8.55 18.75 8.5 19.3 9.3 19.4 9.8 19.4 9.9 19.4 10.05 19.4 10.4 19.25 11.25 19.2 11.5 19.1 11.75 18.35 13.35 18.2 13.5 17.55 14.2 17.5 14.3 M6.25 5.35 L5.95 4.85 6.05 4.75 Q7.0 4.0 8.0 3.45 L8.3 3.35 Q8.2 3.55 8.35 3.75 8.45 3.9 8.65 3.9 L6.7 4.95 6.25 5.35 M6.4 6.9 L6.65 7.0 7.3 7.75 7.0 7.65 6.25 7.6 6.2 7.6 5.45 7.85 4.85 8.15 3.9 8.95 3.35 9.65 3.0 9.25 3.1 9.05 3.15 9.05 3.1 9.0 3.0 8.7 2.95 8.65 3.0 8.25 3.0 8.1 3.3 7.5 Q3.8 6.25 4.95 5.6 L4.55 6.25 4.7 6.05 4.7 6.5 4.7 6.7 4.9 7.45 5.85 7.05 6.0 7.05 6.45 7.0 6.4 6.9 M2.75 10.65 L2.85 10.45 2.9 10.35 2.85 10.5 2.75 10.65 M1.45 15.25 L1.4 15.2 1.45 15.2 1.45 15.25" fill="#666666" fill-rule="evenodd" stroke="none"/>
    <path d="M18.8 7.8 L19.6 8.25 19.8 8.65 19.85 8.7 19.85 8.75 19.85 8.8 19.9 9.2 19.9 9.55 19.9 9.6 19.85 10.7 19.75 11.45 19.7 11.65 19.5 11.95 19.2 12.65 18.75 13.6 17.5 15.0 15.9 15.85 15.65 15.9 15.35 16.05 15.2 16.05 14.3 16.2 11.65 16.05 8.65 15.5 8.6 15.45 8.25 15.35 8.05 15.55 8.0 15.6 7.9 15.6 7.8 15.65 7.7 15.75 5.95 17.2 5.85 17.2 5.8 17.25 5.75 17.25 5.75 17.3 4.75 17.55 4.5 17.5 Q3.1 17.2 1.8 16.5 L1.35 16.2 0.9 15.5 1.0 15.6 0.9 15.45 0.9 15.5 Q0.4 14.8 0.35 14.0 L0.55 13.15 0.65 12.85 1.15 12.1 2.75 9.6 2.85 9.35 2.75 9.15 2.7 9.0 2.7 8.9 2.65 8.85 2.6 8.5 Q2.45 7.3 3.25 6.4 4.2 5.35 5.55 4.75 L5.9 4.8 5.95 4.85 6.25 5.35 6.45 6.0 6.75 6.6 6.8 6.65 7.3 7.05 7.3 7.15 7.5 7.2 7.45 7.2 8.05 7.5 9.05 8.05 9.45 8.55 9.75 9.05 9.8 9.15 9.9 9.15 10.7 9.4 13.75 9.4 14.0 9.4 15.4 9.05 16.45 8.7 16.8 8.55 17.85 8.05 18.6 7.75 18.8 7.8 M10.55 5.2 Q10.05 5.05 10.2 4.5 L10.35 4.05 Q10.4 3.85 10.6 3.8 L10.8 3.75 Q11.4 3.95 11.15 4.6 L11.0 4.95 Q10.85 5.3 10.55 5.2 M14.55 9.9 L13.85 9.95 13.75 9.95 13.75 10.0 10.4 10.0 10.1 9.95 9.25 9.65 9.2 9.75 9.2 9.6 9.2 9.5 9.15 9.35 8.6 8.55 8.5 8.45 8.45 8.4 7.8 7.95 7.5 7.8 7.3 7.75 6.65 7.0 6.4 6.9 6.25 6.7 6.1 6.3 6.05 6.2 6.0 6.1 5.95 6.0 5.8 5.4 5.55 5.4 5.4 5.4 5.25 5.45 4.95 5.6 Q3.8 6.25 3.3 7.5 L3.0 8.1 3.0 8.25 2.95 8.65 3.0 8.7 3.1 9.0 3.15 9.05 3.1 9.05 3.0 9.25 3.35 9.65 3.15 9.85 3.05 10.0 2.9 10.35 2.85 10.45 2.75 10.65 2.6 10.85 2.65 10.85 2.5 11.05 2.35 11.35 2.2 11.35 1.9 11.75 Q1.4 12.4 1.05 13.15 L0.95 13.45 1.2 13.3 1.05 13.4 Q0.8 14.15 1.1 14.95 L1.4 15.2 1.45 15.25 1.55 15.35 Q2.2 16.1 3.0 16.45 L4.1 16.65 4.2 16.7 4.3 16.7 Q4.55 16.95 4.85 17.0 L5.2 16.95 5.5 16.8 5.5 16.95 5.3 17.05 Q5.4 17.0 5.55 16.9 L6.1 16.5 6.3 16.35 7.0 15.65 7.2 15.45 7.2 15.55 7.55 15.15 7.65 15.05 8.1 14.75 8.35 14.55 8.45 14.75 8.5 14.8 8.7 14.85 8.95 14.95 9.35 15.1 10.4 15.4 11.1 15.6 14.1 15.65 Q15.95 15.65 17.15 14.55 L17.5 14.3 17.55 14.2 18.2 13.5 18.35 13.35 19.1 11.75 19.2 11.5 19.25 11.25 19.4 10.4 19.4 10.05 19.4 9.9 19.4 9.8 19.3 9.3 18.75 8.5 18.6 8.45 18.15 8.4 17.75 8.6 16.85 8.95 16.05 9.35 14.55 9.9 M8.05 5.05 L8.2 5.0 Q8.7 5.15 8.55 5.7 L8.4 6.2 8.25 6.45 Q7.7 6.55 7.7 6.0 7.7 5.45 8.05 5.05 M9.4 5.85 Q8.75 5.95 8.85 5.35 8.9 4.75 9.3 4.4 9.95 4.45 9.8 5.1 L9.4 5.85" fill="#333333" fill-rule="evenodd" stroke="none"/>
    <path d="M14.55 9.9 L15.45 10.45 Q16.1 10.65 16.35 11.25 L16.4 11.4 14.65 11.8 11.25 11.85 8.9 11.2 8.75 11.1 9.45 10.25 9.55 10.05 9.6 10.05 9.7 10.05 9.75 10.0 9.85 9.95 10.0 9.95 10.15 10.0 10.1 9.95 10.4 10.0 13.75 10.0 13.75 9.95 13.85 9.95 14.55 9.9 M7.3 7.75 L7.5 7.8 7.8 7.95 8.45 8.4 8.5 8.45 8.6 8.55 8.35 8.65 7.85 9.05 5.75 11.55 5.6 11.8 Q4.75 11.05 3.75 10.9 L3.25 10.85 3.2 10.85 2.95 10.85 2.65 10.85 2.6 10.85 2.75 10.65 2.85 10.5 2.9 10.35 3.05 10.0 3.15 9.85 3.35 9.65 3.9 8.95 4.85 8.15 5.45 7.85 6.2 7.6 6.25 7.6 7.0 7.65 7.3 7.75 M4.45 10.35 L6.0 8.85 Q5.85 8.5 5.4 8.5 4.9 8.55 4.55 8.9 L4.05 9.4 Q3.75 9.7 3.75 10.1 3.75 10.65 4.25 10.7 L4.45 10.35 M2.9 11.3 L2.75 11.4 2.7 11.3 2.9 11.3" fill="#cccccc" fill-rule="evenodd" stroke="none"/>
    <path d="M8.75 11.1 L8.9 11.2 11.25 11.85 14.65 11.8 16.4 11.4 16.35 11.25 Q16.1 10.65 15.45 10.45 L14.55 9.9 16.05 9.35 16.85 8.95 17.75 8.6 18.15 8.4 18.6 8.45 18.75 8.5 18.7 8.55 18.7 8.6 18.6 8.75 18.55 8.8 18.0 9.75 17.9 9.95 17.75 10.15 17.75 10.25 17.75 10.3 17.7 10.2 17.45 10.5 17.25 10.7 16.75 11.15 16.65 11.2 16.5 11.35 16.7 11.65 16.9 11.95 17.3 12.65 Q17.55 13.35 17.45 14.15 L17.5 14.3 17.15 14.55 Q15.95 15.65 14.1 15.65 L11.1 15.6 10.4 15.4 9.35 15.1 8.95 14.95 8.7 14.85 8.5 14.8 8.45 14.75 8.35 14.55 8.25 14.25 8.25 14.2 Q8.1 13.25 8.35 12.4 L8.4 12.0 8.4 11.75 8.5 11.7 Q8.55 11.35 8.75 11.1 M4.95 5.6 L5.25 5.45 5.4 5.4 5.55 5.4 5.8 5.4 5.95 6.0 6.0 6.1 6.05 6.2 6.1 6.3 6.25 6.7 6.4 6.9 6.45 7.0 6.0 7.05 5.85 7.05 4.9 7.45 4.7 6.7 4.7 6.5 4.7 6.05 4.55 6.25 4.95 5.6 M8.6 8.55 L9.15 9.35 9.2 9.5 9.15 9.55 9.2 9.75 9.05 9.85 8.8 10.2 8.7 10.35 8.65 10.4 Q7.95 11.35 7.75 12.5 L6.85 13.55 7.05 14.1 Q6.75 13.1 6.05 12.3 L5.65 11.85 5.6 11.8 5.75 11.55 7.85 9.05 8.35 8.65 8.6 8.55 M10.3 13.2 L10.0 13.1 Q9.6 13.15 9.5 13.55 9.35 14.05 9.8 14.35 10.25 14.65 10.75 14.75 L13.6 15.0 14.25 14.95 15.5 14.45 Q16.0 14.1 15.65 13.65 15.5 13.45 15.25 13.5 L15.25 13.45 14.7 13.5 11.9 13.45 10.85 13.25 10.3 13.2 M1.4 14.2 L1.3 14.45 1.3 14.2 1.4 14.2" fill="#868686" fill-rule="evenodd" stroke="none"/>
    <path d="M4.45 10.35 L4.25 10.7 Q3.75 10.65 3.75 10.1 3.75 9.7 4.05 9.4 L4.55 8.9 Q4.9 8.55 5.4 8.5 5.85 8.5 6.0 8.85 L4.45 10.35 M3.7 11.65 L2.95 12.45 2.75 12.95 2.35 12.7 2.25 12.35 Q2.4 11.85 2.8 11.5 L3.2 11.4 Q3.55 11.45 3.7 11.65" fill="#ffffff" fill-rule="evenodd" stroke="none"/>
    <path d="M1.2 13.3 L0.95 13.45 1.05 13.15 Q1.4 12.4 1.9 11.75 L2.2 11.35 2.35 11.35 2.7 11.3 2.75 11.4 2.9 11.3 2.95 11.3 3.7 11.35 4.25 11.5 4.75 11.7 5.35 12.2 4.0 13.55 3.95 13.55 3.85 13.65 3.5 13.5 1.45 13.25 1.4 13.25 1.2 13.3 M3.7 11.65 Q3.55 11.45 3.2 11.4 L2.8 11.5 Q2.4 11.85 2.25 12.35 L2.35 12.7 2.75 12.95 2.95 12.45 3.7 11.65 M4.2 16.7 L4.1 16.65 4.25 16.65 4.2 16.7 M3.95 13.65 L4.1 13.8 3.85 13.65 3.95 13.65" fill="#66ccff" fill-rule="evenodd" stroke="none"/>
    <path d="M5.35 12.2 L5.85 12.7 6.6 13.9 6.85 15.1 6.75 15.95 6.3 16.35 6.1 16.5 5.55 16.9 Q5.4 17.0 5.3 17.05 L5.5 16.95 5.5 16.8 5.2 16.95 4.85 17.0 5.05 16.55 Q5.35 15.85 5.05 15.15 L4.6 14.15 4.0 13.55 5.35 12.2 M5.15 15.1 L5.2 15.1 5.15 15.05 5.15 15.1" fill="#3399ff" fill-rule="evenodd" stroke="none"/>
    <path d="M4.1 16.65 L3.0 16.45 Q2.2 16.1 1.55 15.35 L1.45 15.25 1.45 15.2 Q1.3 14.95 1.3 14.7 L1.3 14.45 1.4 14.2 1.7 14.25 2.25 14.25 2.3 14.45 2.4 14.9 2.45 14.9 2.55 15.15 2.8 15.25 3.4 15.2 3.65 14.95 3.7 15.0 4.55 16.1 4.65 16.3 4.7 16.45 4.6 16.55 4.25 16.65 4.1 16.65" fill="#cc0000" fill-rule="evenodd" stroke="none"/>
    <path d="M2.25 13.75 L2.5 13.8 2.55 13.8 3.15 13.95 3.25 14.0 3.35 14.05 3.35 14.1 3.5 14.15 3.85 14.4 3.65 14.5 3.7 14.55 3.7 14.65 3.65 14.85 3.65 14.95 3.4 15.2 2.45 14.9 2.4 14.9 2.3 14.45 2.25 14.25 2.25 14.1 2.2 13.95 2.3 14.0 2.25 13.85 2.25 13.75" fill="#ff3300" fill-rule="evenodd" stroke="none"/>
    <path d="M4.85 17.0 Q4.55 16.95 4.3 16.7 L4.2 16.7 4.25 16.65 4.6 16.55 4.7 16.45 4.8 16.0 4.75 15.8 4.7 15.65 4.15 14.7 3.5 14.15 3.35 14.1 3.35 14.05 3.25 14.0 3.15 13.95 2.55 13.8 2.5 13.8 2.25 13.75 2.2 13.75 1.95 13.75 Q1.6 13.8 1.45 14.05 L1.4 14.2 1.3 14.2 1.3 14.45 1.3 14.7 Q1.3 14.95 1.45 15.2 L1.4 15.2 1.1 14.95 Q0.8 14.15 1.05 13.4 L1.2 13.3 1.4 13.25 1.45 13.25 3.5 13.5 3.85 13.65 3.95 13.55 4.0 13.55 4.6 14.15 5.05 15.15 Q5.35 15.85 5.05 16.55 L4.85 17.0 M3.95 13.65 L3.85 13.65 4.1 13.8 3.95 13.65" fill="#0066cc" fill-rule="evenodd" stroke="none"/>
  </g>
</svg>
