<?xml version="1.0" encoding="UTF-8" standalone="no"?>
<svg xmlns:xlink="http://www.w3.org/1999/xlink" height="17.05px" width="17.25px" xmlns="http://www.w3.org/2000/svg">
  <g transform="matrix(1.0, 0.0, 0.0, 1.0, -1.85, -0.85)">
    <path d="M6.1 5.35 L6.05 5.65 5.95 5.85 Q5.35 6.05 5.3 5.5 L5.25 4.75 5.3 1.8 5.5 1.15 5.6 1.05 5.65 1.05 5.85 0.9 7.6 0.95 7.95 0.9 8.5 0.9 Q9.0 0.95 9.25 1.45 L10.0 2.9 10.25 3.35 12.5 3.4 13.35 1.6 13.8 1.0 Q13.85 0.85 14.0 0.9 L14.05 0.9 14.15 0.85 16.8 0.95 16.9 1.0 16.95 1.0 Q17.3 1.4 17.3 2.0 L17.25 2.75 17.2 5.7 17.1 5.9 Q16.45 6.1 16.45 5.45 L16.45 5.35 16.8 5.35 16.8 5.1 16.8 1.25 16.25 1.25 15.6 1.25 14.55 1.25 13.9 1.25 13.05 3.25 12.85 3.7 9.8 3.7 9.6 3.2 9.55 3.2 8.75 1.25 7.7 1.25 7.55 1.25 6.55 1.25 5.8 1.25 5.8 3.2 5.8 5.1 5.8 5.35 6.1 5.35 M12.35 4.85 L12.3 4.8 12.1 4.45 12.5 4.45 12.35 4.85 M10.65 4.45 L10.6 4.6 Q10.75 4.95 10.55 5.3 10.4 5.55 10.1 5.45 L9.95 5.35 10.5 5.35 10.2 4.7 10.1 4.45 10.65 4.45" fill="#000000" fill-rule="evenodd" stroke="none"/>
    <path d="M16.45 5.35 L12.1 5.35 12.25 5.0 16.8 5.1 16.8 5.35 16.45 5.35 M9.95 5.35 L6.1 5.35 5.8 5.35 5.8 5.1 8.1 5.0 9.15 5.0 10.35 5.0 10.2 4.7 10.5 5.35 9.95 5.35 M5.8 3.2 L5.8 1.25 6.55 1.25 6.55 2.1 6.6 2.4 Q6.8 2.9 7.35 2.7 L7.55 2.15 7.55 1.25 7.7 1.25 8.15 3.2 5.8 3.2 M13.05 3.25 L13.9 1.25 14.55 1.25 14.5 1.5 14.55 2.2 Q14.7 2.85 15.35 2.65 L15.4 2.5 15.6 1.25 16.25 1.25 15.9 2.3 15.6 3.25 13.05 3.25" fill="#99ff33" fill-rule="evenodd" stroke="none"/>
    <path d="M12.25 5.0 L12.35 4.85 12.5 4.45 12.1 4.45 10.65 4.45 10.1 4.45 10.2 4.7 10.35 5.0 9.15 5.0 8.1 5.0 5.8 5.1 5.8 3.2 8.15 3.2 7.7 1.25 8.75 1.25 9.55 3.2 9.6 3.2 9.8 3.7 12.85 3.7 13.05 3.25 15.6 3.25 15.9 2.3 16.25 1.25 16.8 1.25 16.8 5.1 12.25 5.0" fill="#009900" fill-rule="evenodd" stroke="none"/>
    <path d="M6.55 1.25 L7.55 1.25 7.55 2.15 7.35 2.7 Q6.8 2.9 6.6 2.4 L6.55 2.1 6.55 1.25 M14.55 1.25 L15.6 1.25 15.4 2.5 15.35 2.65 Q14.7 2.85 14.55 2.2 L14.5 1.5 14.55 1.25 M11.6 7.6 Q11.65 8.25 11.05 8.55 10.55 8.75 10.15 8.55 L9.75 8.05 Q9.5 7.15 10.35 6.75 L10.45 6.65 Q11.5 6.6 11.6 7.6" fill="#ffff00" fill-rule="evenodd" stroke="none"/>
    <path d="M16.0 8.75 L16.0 8.8 16.0 8.75" fill="#ffff66" fill-rule="evenodd" stroke="none"/>
    <path d="M4.0 14.05 L2.6 14.15 2.6 15.4 2.85 15.55 2.95 15.6 3.5 15.9 4.0 16.2 4.0 16.15 4.7 16.65 6.15 17.5 6.35 17.65 14.95 17.65 15.15 17.5 16.55 16.65 17.3 16.15 17.3 16.2 Q17.5 16.0 17.8 15.9 L18.3 15.6 18.4 15.55 18.7 15.4 18.7 4.7 18.15 4.7 5.65 4.7 5.2 4.95 3.6 5.85 3.0 6.2 Q2.75 6.25 2.6 6.4 L2.6 8.75 3.55 8.75 6.75 8.75 6.75 13.7 6.65 13.7 6.65 13.75 6.65 13.9 6.55 14.0 4.0 14.05 M6.35 10.2 L6.35 9.0 6.15 9.0 4.6 9.0 3.55 9.0 3.0 9.0 2.6 9.0 2.5 9.0 2.25 9.0 2.2 9.0 2.2 9.45 2.2 9.8 2.2 9.85 2.2 9.9 2.2 10.2 2.2 10.25 2.2 10.3 2.2 10.65 2.2 10.95 2.2 11.35 2.2 11.4 2.2 11.7 2.2 11.8 2.2 12.2 2.2 12.4 2.2 12.8 2.2 12.9 2.2 13.25 2.2 13.35 2.2 13.7 5.6 13.7 6.35 13.7 6.35 10.2 M1.85 8.75 L2.25 8.75 2.25 6.2 5.5 4.45 19.1 4.45 19.1 15.6 18.85 15.75 18.2 16.05 17.7 16.4 16.2 17.3 15.45 17.8 15.2 17.9 6.1 17.9 5.85 17.8 5.1 17.3 3.6 16.4 3.1 16.05 2.45 15.75 2.3 15.7 2.2 15.65 2.2 13.8 1.85 13.8 1.85 8.75" fill="#000000" fill-rule="evenodd" stroke="none"/>
    <path d="M4.0 14.05 L6.55 14.0 6.65 13.9 6.65 13.75 6.65 13.7 6.75 13.7 6.75 8.75 3.55 8.75 3.55 7.75 3.65 7.75 5.8 7.75 7.95 7.75 10.1 7.75 12.2 7.75 14.4 7.75 16.55 7.75 17.25 7.75 17.3 8.65 17.3 13.7 17.3 15.15 17.05 15.25 14.8 16.75 14.55 16.9 13.1 16.9 12.25 16.9 9.0 16.9 8.15 16.9 7.6 16.9 6.7 16.9 6.45 16.75 4.2 15.25 4.0 15.15 4.0 14.6 4.0 14.4 4.0 14.05 M16.0 8.75 L16.0 8.8 16.0 8.75" fill="#999999" fill-rule="evenodd" stroke="none"/>
    <path d="M18.15 4.7 L18.7 4.7 18.7 15.4 18.4 15.55 18.3 15.6 17.8 15.9 Q17.5 16.0 17.3 16.2 L17.3 16.15 16.55 16.65 15.15 17.5 14.95 17.65 6.35 17.65 6.15 17.5 4.7 16.65 4.0 16.15 4.0 16.2 3.5 15.9 2.95 15.6 2.85 15.55 2.6 15.4 2.6 14.15 4.0 14.05 4.0 14.4 4.0 14.6 4.0 15.15 4.2 15.25 6.45 16.75 6.7 16.9 7.6 16.9 8.15 16.9 9.0 16.9 12.25 16.9 13.1 16.9 14.55 16.9 14.8 16.75 17.05 15.25 17.3 15.15 17.3 13.7 17.3 8.65 17.25 7.75 16.55 7.75 14.4 7.75 12.2 7.75 10.1 7.75 7.95 7.75 5.8 7.75 3.65 7.75 3.55 7.75 3.45 7.75 3.35 7.0 3.8 6.6 Q4.55 6.05 5.5 5.6 L6.0 5.3 6.25 5.3 9.45 5.35 12.65 5.35 15.85 5.35 17.3 5.35 17.45 5.35 17.85 5.0 17.95 4.9 18.15 4.7" fill="#666666" fill-rule="evenodd" stroke="none"/>
    <path d="M3.55 8.75 L2.6 8.75 2.6 6.4 Q2.75 6.25 3.0 6.2 L3.6 5.85 5.2 4.95 5.65 4.7 18.15 4.7 17.95 4.9 17.85 5.0 17.45 5.35 17.3 5.35 15.85 5.35 12.65 5.35 9.45 5.35 6.25 5.3 6.0 5.3 5.5 5.6 Q4.55 6.05 3.8 6.6 L3.35 7.0 3.45 7.75 3.55 7.75 3.55 8.75" fill="#cccccc" fill-rule="evenodd" stroke="none"/>
    <path d="M2.2 9.85 L2.2 9.8 2.2 9.45 2.2 9.0 2.25 9.0 2.5 9.0 2.6 9.0 3.0 9.0 3.55 9.0 4.6 9.0 6.15 9.0 6.35 9.0 6.35 10.2 5.6 9.95 5.6 9.85 2.2 9.85 M2.2 12.8 L2.2 12.4 2.2 12.2 2.65 12.2 2.4 12.8 2.2 12.8 M2.2 11.35 L2.2 10.95 2.2 10.65 3.85 10.65 3.75 10.7 3.2 11.35 2.2 11.35" fill="#33cccc" fill-rule="evenodd" stroke="none"/>
    <path d="M5.6 13.7 L2.2 13.7 2.2 13.35 2.2 13.25 5.6 13.25 5.6 13.7 M2.2 12.2 L2.2 11.8 2.2 11.7 5.6 11.7 5.6 12.2 2.65 12.2 2.2 12.2 M2.2 10.65 L2.2 10.3 2.2 10.25 2.2 10.2 5.6 10.2 5.6 10.65 3.85 10.65 2.2 10.65" fill="#006666" fill-rule="evenodd" stroke="none"/>
    <path d="M2.2 13.25 L2.2 12.9 2.2 12.8 2.4 12.8 5.6 12.8 5.6 13.25 2.2 13.25 M2.2 11.7 L2.2 11.4 2.2 11.35 3.2 11.35 5.6 11.35 5.6 11.7 2.2 11.7 M2.2 10.2 L2.2 9.9 2.2 9.85 5.6 9.85 5.6 9.95 5.6 10.2 2.2 10.2" fill="#99ffff" fill-rule="evenodd" stroke="none"/>
    <path d="M6.35 10.2 L6.35 13.7 5.6 13.7 5.6 13.25 5.6 12.8 2.4 12.8 2.65 12.2 5.6 12.2 5.6 11.7 5.6 11.35 3.2 11.35 3.75 10.7 3.85 10.65 5.6 10.65 5.6 10.2 5.6 9.95 6.35 10.2" fill="#339999" fill-rule="evenodd" stroke="none"/>
    <path d="M10.2 13.35 L10.15 13.35 10.2 13.35" fill="#666666" fill-rule="evenodd" stroke="none"/>
    <path d="M11.1 7.0 L13.2 7.0 13.95 7.2 14.3 7.45 14.4 7.55 14.5 7.6 14.55 7.7 14.75 8.45 14.75 10.4 Q14.75 11.05 14.35 11.4 13.95 11.8 13.3 11.8 L12.7 11.8 12.55 11.8 12.45 11.8 12.4 11.8 12.15 11.8 11.95 11.8 11.65 11.8 10.9 11.8 10.55 11.8 10.1 11.85 10.0 11.85 9.95 11.9 10.25 11.15 Q10.25 10.4 9.4 10.5 L8.95 10.65 Q8.15 10.95 8.25 11.7 8.25 11.95 8.45 12.0 L9.25 12.1 9.55 12.05 9.45 12.35 9.45 13.35 10.15 13.35 10.2 13.35 14.05 13.35 14.15 13.35 14.5 13.45 14.75 13.8 14.8 13.85 14.85 14.15 14.75 14.5 14.7 14.6 14.5 14.8 14.1 14.95 9.25 14.95 8.45 14.7 8.0 14.15 7.9 13.85 7.8 13.6 7.8 13.45 7.8 12.35 7.85 12.2 7.95 11.65 8.1 11.25 8.25 11.05 8.75 10.6 9.35 10.4 9.6 10.3 10.5 10.2 12.7 10.2 13.15 10.2 13.15 8.65 8.4 8.65 8.25 8.65 8.15 8.6 7.95 8.5 7.7 8.2 7.65 8.1 7.6 7.85 7.7 7.5 7.7 7.45 7.8 7.35 7.8 7.3 7.9 7.2 7.95 7.15 8.2 7.05 8.4 7.0 Q8.2 7.3 8.25 7.75 L8.35 8.0 Q9.2 8.7 10.25 8.2 L11.05 7.65 11.15 7.1 11.1 7.0" fill="#99ff33" fill-rule="evenodd" stroke="none"/>
    <path d="M11.1 7.0 L11.15 7.1 11.05 7.65 10.25 8.2 Q9.2 8.7 8.35 8.0 L8.25 7.75 Q8.2 7.3 8.4 7.0 L11.1 7.0 M9.55 12.05 L9.25 12.1 8.45 12.0 Q8.25 11.95 8.25 11.7 8.15 10.95 8.95 10.65 L9.4 10.5 Q10.25 10.4 10.25 11.15 L9.95 11.9 9.85 11.9 9.65 11.95 9.55 12.05" fill="#ffff00" fill-rule="evenodd" stroke="none"/>
    <path d="M9.95 11.9 L10.0 11.85 10.1 11.85 10.55 11.8 10.9 11.8 11.65 11.8 11.95 11.8 12.15 11.8 12.4 11.8 12.45 11.8 12.55 11.8 12.7 11.8 13.3 11.8 Q13.95 11.8 14.35 11.4 14.75 11.05 14.75 10.4 L14.75 8.45 14.55 7.7 14.5 7.6 14.4 7.55 14.3 7.45 13.95 7.2 13.2 7.0 11.1 7.0 8.4 7.0 8.2 7.05 7.95 7.15 7.9 7.2 7.8 7.3 7.8 7.35 7.7 7.45 7.7 7.5 7.6 7.85 7.65 8.1 7.7 8.2 7.95 8.5 8.15 8.6 8.25 8.65 8.4 8.65 13.15 8.65 13.15 10.2 12.7 10.2 10.5 10.2 9.6 10.3 9.35 10.4 8.75 10.6 8.25 11.05 8.1 11.25 7.95 11.65 7.85 12.2 7.8 12.35 7.8 13.45 7.8 13.6 7.9 13.85 8.0 14.15 8.45 14.7 9.25 14.95 14.1 14.95 14.5 14.8 14.7 14.6 14.75 14.5 14.85 14.15 14.8 13.85 14.75 13.8 14.5 13.45 14.15 13.35 14.05 13.35 10.2 13.35 10.15 13.35 9.45 13.35 9.45 12.35 9.55 12.05 9.65 11.95 9.85 11.9 9.95 11.9 M15.1 6.7 L15.35 6.9 15.6 7.85 15.6 8.05 15.75 9.5 15.75 11.0 15.8 11.55 Q16.0 12.9 15.5 14.15 L15.4 14.4 15.35 14.55 14.95 15.25 13.8 15.5 Q12.0 15.45 10.2 15.55 L8.4 15.4 8.15 15.3 Q7.65 15.1 7.4 14.55 L7.05 12.9 7.05 12.7 7.05 12.65 7.15 11.6 7.25 11.3 7.2 8.7 7.0 8.0 7.0 7.95 Q7.0 7.65 7.15 7.45 L7.3 7.15 7.35 7.05 7.4 6.95 7.45 6.85 7.5 6.85 7.6 6.8 7.65 6.8 7.95 6.5 8.4 6.4 10.9 6.25 13.4 6.3 15.1 6.7" fill="#333333" fill-rule="evenodd" stroke="none"/>
  </g>
</svg>
