<?xml version="1.0" encoding="UTF-8" standalone="no"?>
<svg xmlns:xlink="http://www.w3.org/1999/xlink" height="15.95px" width="15.3px" xmlns="http://www.w3.org/2000/svg">
  <g transform="matrix(1.0, 0.0, 0.0, 1.0, -2.7, -1.4)">
    <path d="M3.8 7.55 L10.75 4.0 17.65 8.8 16.1 13.15 5.25 13.2 3.8 7.55" fill="#ff9900" fill-rule="evenodd" stroke="none"/>
    <path d="M3.8 7.55 L10.75 4.0 17.65 8.8 16.1 13.15 5.25 13.2 3.8 7.55 Z" fill="none" stroke="#000000" stroke-linecap="round" stroke-linejoin="round" stroke-width="0.5"/>
    <path d="M16.75 1.4 L16.75 11.6 3.85 10.75 3.85 2.05 16.75 1.4" fill="#000000" fill-rule="evenodd" stroke="none"/>
    <path d="M4.3 6.85 L4.15 2.35 16.35 1.7 16.35 2.35 16.25 2.35 12.55 3.55 8.25 5.15 4.3 6.85 M16.6 9.3 L16.7 12.75 11.65 13.2 13.55 11.65 16.0 9.75 16.6 9.3 M4.5 12.2 L4.4 9.1 7.45 7.7 12.8 5.6 10.45 7.05 Q9.0 7.95 7.65 9.0 L5.8 10.45 4.5 11.55 4.5 12.2" fill="#cccccc" fill-rule="evenodd" stroke="none"/>
    <path d="M16.35 2.35 L16.6 9.3 16.0 9.75 13.55 11.65 11.65 13.2 4.55 13.75 4.5 12.65 4.5 12.2 4.5 11.55 5.8 10.45 7.65 9.0 Q9.0 7.95 10.45 7.05 L12.8 5.6 7.45 7.7 4.4 9.1 4.35 8.0 4.35 7.55 4.3 6.85 8.25 5.15 12.55 3.55 16.25 2.35 16.35 2.35" fill="#b7b7b7" fill-rule="evenodd" stroke="none"/>
    <path d="M12.35 5.7 L12.3 5.35 13.7 5.25 13.75 5.9 12.35 6.0 12.35 5.7 M11.7 5.4 L11.75 5.85 11.75 6.05 9.75 6.2 9.7 5.85 9.65 5.55 11.7 5.4 M12.1 4.65 L12.1 4.9 10.1 5.05 10.05 4.6 10.05 4.4 12.1 4.25 12.1 4.65 M10.2 3.2 L10.2 3.5 10.25 3.85 8.5 4.0 8.5 3.95 8.55 3.8 8.55 3.75 8.5 3.35 10.2 3.2 M10.8 3.25 L10.8 3.15 13.55 2.95 13.6 3.6 10.85 3.8 10.8 3.25 M12.7 4.85 L12.7 4.4 12.65 4.2 13.6 4.15 13.7 4.8 12.7 4.85 M12.85 7.7 L12.85 7.55 14.0 7.45 14.05 8.1 12.9 8.2 12.85 7.7 M13.2 8.75 L14.1 8.65 14.15 9.3 13.25 9.4 13.25 9.35 13.2 8.85 13.2 8.75 M10.3 9.5 L10.3 9.6 7.55 9.8 7.5 9.15 10.25 8.95 10.3 9.5 M10.9 9.25 L10.85 8.9 12.6 8.75 12.6 8.8 12.55 8.95 12.55 9.0 12.6 9.4 10.9 9.55 10.9 9.25 M11.05 8.15 L11.05 8.35 9.0 8.5 9.0 8.1 8.95 7.85 11.0 7.7 11.05 8.15 M11.35 6.55 L11.4 6.9 11.4 7.2 9.4 7.35 9.35 6.9 9.3 6.7 11.35 6.55 M11.6 7.65 L12.25 7.6 12.3 8.1 12.3 8.25 11.65 8.3 11.6 7.9 11.6 7.65 M13.9 6.35 L13.95 7.05 12.0 7.2 12.0 6.65 11.95 6.5 13.9 6.35 M7.05 4.65 L8.2 4.55 8.25 5.05 8.25 5.2 7.1 5.3 7.05 4.65 M6.95 3.45 L7.85 3.35 7.85 3.4 7.9 3.9 7.9 4.0 7.0 4.1 6.95 3.45 M9.05 5.6 L9.1 6.1 9.15 6.25 7.2 6.4 7.15 5.75 9.05 5.6 M8.85 5.15 L8.8 4.65 8.8 4.5 9.45 4.45 9.45 4.85 9.5 5.1 8.85 5.15 M8.75 7.05 L8.8 7.4 7.4 7.5 7.35 6.85 8.75 6.75 8.75 7.05 M8.35 7.9 L8.4 8.35 8.45 8.55 7.45 8.6 7.4 7.95 8.35 7.9" fill="#999999" fill-rule="evenodd" stroke="none"/>
    <path d="M17.6 8.85 L17.55 8.85 17.6 8.55 17.6 8.5 17.45 8.5 17.7 8.4 18.0 8.6 17.45 17.35 2.7 16.4 3.3 7.55 3.5 7.45 3.75 7.5 4.1 7.65 3.75 7.65 3.2 16.05 5.55 16.2 5.6 16.25 17.05 17.0 17.05 16.8 17.6 8.85" fill="#000000" fill-rule="evenodd" stroke="none"/>
    <path d="M10.55 12.15 L10.65 12.05 10.6 11.95 10.35 12.05 11.75 11.4 10.55 12.15 M7.05 9.85 L6.3 9.35 6.2 9.3 4.85 8.4 4.75 8.3 4.7 8.25 7.05 9.85 M4.5 8.1 L4.25 8.05 4.2 8.8 4.35 8.95 4.8 9.3 5.15 9.55 7.35 10.9 8.7 11.8 9.95 12.6 10.2 12.7 10.5 12.95 10.65 12.9 12.5 11.9 15.1 10.5 17.15 9.35 17.15 9.45 17.1 10.15 16.7 13.05 16.4 15.95 16.4 16.1 14.05 16.0 11.2 15.85 8.4 15.65 5.4 15.55 3.7 15.5 3.85 13.8 4.1 10.85 4.15 10.1 4.25 7.95 4.5 8.1" fill="#ff9900" fill-rule="evenodd" stroke="none"/>
    <path d="M10.2 12.7 L10.25 12.5 10.25 12.4 10.45 12.2 10.55 12.15 11.75 11.4 17.6 8.55 17.55 8.85 17.6 8.85 17.55 9.1 17.15 9.35 15.1 10.5 12.5 11.9 10.65 12.9 10.5 12.95 10.2 12.7 M3.2 16.05 L3.75 7.65 4.25 7.95 4.15 10.1 4.1 10.85 3.85 13.8 3.7 15.5 3.6 15.5 3.25 15.85 3.2 16.05" fill="#ffcc00" fill-rule="evenodd" stroke="none"/>
    <path d="M10.55 12.15 L10.45 12.2 10.25 12.4 10.25 12.5 10.2 12.7 9.95 12.6 8.7 11.8 7.35 10.9 5.15 9.55 4.8 9.3 4.35 8.95 4.2 8.8 4.25 8.05 4.5 8.1 4.7 8.25 4.75 8.3 4.85 8.4 6.2 9.3 6.3 9.35 7.05 9.85 7.3 10.0 10.35 12.05 10.6 11.95 10.65 12.05 10.55 12.15 M17.15 9.35 L17.55 9.1 17.6 8.85 17.05 16.8 17.05 17.0 5.6 16.25 5.55 16.2 3.2 16.05 3.25 15.85 3.6 15.5 3.7 15.5 5.4 15.55 8.4 15.65 11.2 15.85 14.05 16.0 16.4 16.1 16.4 15.95 16.7 13.05 17.1 10.15 17.15 9.45 17.15 9.35" fill="#cc9900" fill-rule="evenodd" stroke="none"/>
    <path d="M10.35 12.05 L7.3 10.0 7.05 9.85 4.7 8.25 4.5 8.1 4.25 7.95 3.75 7.65 M17.6 8.55 L11.75 11.4 10.35 12.05" fill="none" stroke="#000000" stroke-linecap="round" stroke-linejoin="round" stroke-width="0.5"/>
  </g>
</svg>
