<?xml version="1.0" encoding="UTF-8" standalone="no"?>
<svg xmlns:xlink="http://www.w3.org/1999/xlink" height="45.85px" width="46.2px" xmlns="http://www.w3.org/2000/svg">
  <g transform="matrix(1.0, 0.0, 0.0, 1.0, 23.05, 22.9)">
    <path d="M18.3 -15.0 Q20.45 -12.75 20.95 -9.9 21.1 -9.1 21.55 -8.35 22.2 -7.25 21.75 -6.05 L21.75 -5.95 21.8 -5.15 21.85 -4.5 21.9 -4.45 21.95 -4.35 22.1 -4.2 22.1 -3.65 Q22.05 -2.9 22.15 -2.2 L22.25 -1.65 Q23.2 0.4 23.15 2.7 L23.05 4.35 Q22.65 7.95 20.9 11.2 L19.95 12.65 18.35 14.45 14.05 18.75 12.35 20.4 Q10.5 22.25 7.7 22.65 3.3 23.15 -0.95 22.8 -1.55 22.75 -1.8 22.25 L-6.7 21.7 Q-11.3 20.5 -14.65 17.4 L-16.75 15.05 Q-18.2 13.25 -19.2 11.15 -20.85 7.4 -22.1 3.6 -22.4 2.75 -22.1 2.15 L-22.4 0.0 Q-23.15 -1.55 -23.05 -3.35 -22.9 -6.8 -21.05 -9.6 L-20.7 -9.95 Q-19.9 -11.7 -18.4 -13.0 L-17.3 -14.15 -16.7 -15.0 -15.2 -17.1 -14.05 -18.15 -13.25 -18.55 Q-10.8 -20.0 -8.25 -21.25 L-7.15 -21.5 -2.35 -22.1 0.7 -22.75 3.45 -22.85 Q6.1 -22.7 8.6 -21.55 12.9 -19.75 16.4 -16.75 L18.3 -15.0 M15.1 -13.75 L12.25 -16.7 Q11.25 -17.7 9.95 -18.3 L6.6 -19.85 Q4.15 -21.2 1.45 -21.0 L-4.35 -20.25 -4.4 -20.15 -4.8 -19.7 -4.95 -19.5 -5.1 -19.4 -5.95 -19.1 -6.1 -19.05 Q-6.85 -19.0 -7.35 -18.3 L-13.25 -14.75 -14.2 -14.25 Q-16.0 -13.25 -17.2 -11.55 -18.45 -9.75 -18.9 -7.6 L-19.15 -6.4 -20.15 -2.5 -20.0 -0.95 -19.75 1.7 -19.05 2.65 Q-17.45 7.25 -15.25 11.65 L-14.6 12.9 -13.95 14.05 Q-12.8 16.35 -10.45 17.55 -7.8 19.0 -4.85 19.5 L-1.25 19.95 Q4.25 20.3 9.55 18.75 L10.5 18.4 11.6 18.05 Q13.15 17.0 14.2 15.5 L14.45 15.15 17.05 12.55 Q17.55 10.25 18.65 8.15 19.7 5.95 20.05 3.55 20.2 2.05 20.8 0.65 L20.95 -0.15 21.1 -1.55 21.15 -2.1 20.95 -3.25 20.9 -4.8 20.8 -5.65 Q19.6 -6.95 18.85 -8.55 L18.55 -9.0 17.0 -11.1 15.1 -13.75" fill="#66ffff" fill-rule="evenodd" stroke="none"/>
  </g>
</svg>
