<?xml version="1.0" encoding="UTF-8" standalone="no"?>
<svg xmlns:xlink="http://www.w3.org/1999/xlink" height="17.85px" width="17.95px" xmlns="http://www.w3.org/2000/svg">
  <g transform="matrix(1.0, 0.0, 0.0, 1.0, -2.25, -1.0)">
    <path d="M16.0 2.55 L16.25 2.65 16.45 3.15 16.2 3.4 13.85 4.2 13.5 4.15 Q13.15 3.85 13.35 3.6 L13.45 3.45 13.5 3.4 13.7 3.3 13.75 3.25 15.85 2.55 15.9 2.55 16.0 2.55 M13.05 5.95 L13.55 6.45 13.45 6.2 16.4 5.2 18.4 4.55 18.4 4.6 18.25 4.65 17.8 4.75 18.25 5.2 18.25 5.25 Q18.8 5.75 18.15 6.15 L17.9 6.35 17.8 6.45 16.1 7.05 15.75 7.2 15.5 7.25 15.3 7.35 15.35 7.65 14.65 7.85 13.5 8.1 13.45 8.8 13.1 9.85 12.75 9.5 12.65 9.4 12.6 9.35 12.55 9.3 12.45 9.05 12.45 9.0 12.65 8.05 12.75 6.6 13.05 6.15 13.15 6.15 13.1 6.1 13.05 5.95 M14.85 10.9 L13.95 12.15 13.9 12.2 13.6 12.45 13.5 12.55 13.1 12.75 12.6 13.2 10.3 13.9 9.55 13.95 9.45 13.95 9.1 13.85 8.95 13.75 8.85 13.65 8.75 13.4 8.9 13.05 9.05 13.05 9.45 13.05 Q10.85 13.05 12.1 12.25 L13.1 11.5 13.9 10.45 13.85 10.4 13.8 10.35 14.1 10.55 14.1 10.6 14.85 10.9 M16.8 4.8 L16.1 5.1 14.5 5.55 Q13.85 5.65 13.85 5.05 L14.25 4.55 16.25 3.85 Q17.0 3.85 16.95 4.55 L16.8 4.8 M9.05 1.55 L9.7 1.85 9.75 1.9 10.2 2.3 10.25 2.7 10.25 3.1 Q10.2 3.75 9.6 4.15 L9.5 4.25 8.9 4.55 Q8.55 4.85 8.75 5.1 L8.5 5.5 8.35 5.65 7.55 6.15 7.45 6.15 6.95 6.25 6.75 6.25 6.2 6.15 6.0 6.05 5.9 5.95 5.7 5.75 5.65 5.65 5.6 5.6 6.1 5.4 9.25 3.8 9.6 3.6 9.7 3.0 9.7 2.75 Q9.55 2.05 9.05 1.6 L9.05 1.55 M7.9 2.1 L8.15 2.0 Q8.45 1.95 8.6 2.3 8.8 2.7 8.5 3.0 L8.3 3.2 7.75 3.5 6.95 3.8 6.7 3.9 Q6.15 4.1 6.0 3.6 L6.0 3.35 6.15 3.25 6.25 3.0 6.85 2.65 7.4 2.35 7.9 2.1" fill="#666666" fill-rule="evenodd" stroke="none"/>
    <path d="M19.2 1.45 Q20.0 1.7 20.15 2.4 L20.2 2.55 20.05 3.05 20.0 3.15 19.55 3.85 19.15 4.25 18.95 4.2 18.85 4.25 18.8 4.4 18.8 4.65 18.8 4.85 18.9 5.75 18.9 5.9 18.85 6.3 17.65 6.85 16.05 7.35 Q15.75 7.45 15.75 7.75 L15.95 8.05 15.7 9.65 14.9 11.5 13.95 12.7 13.75 12.95 13.65 13.05 13.35 13.3 12.45 13.8 10.75 14.2 10.2 14.3 10.0 14.35 9.75 14.35 9.7 14.35 9.4 14.25 Q9.15 14.45 9.15 14.8 L9.1 15.5 8.55 18.35 8.55 18.4 8.1 18.6 8.05 18.7 7.6 18.75 5.15 18.7 4.7 18.6 Q3.8 18.25 3.05 17.65 L2.5 17.05 2.3 16.5 2.25 16.5 2.25 16.2 2.25 16.1 Q2.3 14.9 2.6 13.8 L2.85 13.0 3.05 12.6 3.3 12.25 4.25 10.75 4.25 10.7 4.25 10.65 4.4 10.45 4.5 10.1 Q4.85 9.2 4.7 8.15 L4.5 6.7 4.5 6.35 4.5 6.3 4.75 6.1 5.05 5.7 5.1 5.7 5.05 5.2 4.95 4.6 Q5.15 3.7 5.75 3.05 L5.85 3.0 7.5 1.9 8.65 1.2 9.0 1.2 10.0 1.6 10.5 2.65 10.65 2.9 10.6 3.35 10.3 3.8 Q10.0 4.05 10.0 4.45 L10.1 4.55 10.65 4.65 10.7 4.65 11.7 5.05 11.8 5.1 12.1 5.1 12.25 4.95 12.35 4.5 12.15 3.5 12.05 3.15 Q12.25 2.7 12.85 2.5 L13.05 2.45 13.45 2.25 14.25 1.95 16.65 1.1 17.05 1.0 17.5 1.05 17.6 1.05 18.0 1.1 18.15 1.25 18.2 1.3 19.1 1.35 19.2 1.45 M18.4 4.55 L18.2 3.85 18.2 3.7 17.95 2.4 17.9 2.15 17.8 1.7 17.8 1.6 17.65 1.6 17.15 1.55 17.1 1.55 16.85 1.6 16.05 1.85 13.85 2.6 12.45 3.1 12.4 3.15 12.3 3.3 12.4 3.7 12.5 4.35 12.95 5.8 13.05 5.95 13.1 6.1 13.15 6.15 13.05 6.15 12.75 6.6 Q12.5 5.75 11.55 5.45 10.85 5.15 10.15 5.0 L9.6 5.65 9.5 5.75 9.45 5.85 9.05 6.05 7.45 6.8 7.25 6.9 7.2 6.95 7.15 6.95 6.7 7.0 Q6.15 6.45 5.3 6.35 L5.2 6.35 Q4.7 6.75 4.85 7.3 L5.15 9.95 4.5 10.95 4.3 11.2 3.85 11.9 Q3.3 12.6 3.2 13.5 L2.85 14.7 Q2.6 15.2 3.0 15.55 2.45 16.2 3.05 17.1 L3.45 17.55 Q4.35 18.25 5.3 18.25 L5.45 18.45 6.15 18.45 8.15 18.25 8.85 13.65 8.95 13.75 9.1 13.85 9.45 13.95 9.55 13.95 10.3 13.9 12.6 13.2 13.1 12.75 13.5 12.55 13.6 12.45 13.9 12.2 13.95 12.15 14.85 10.9 15.25 9.65 Q15.5 8.65 15.35 7.7 L15.35 7.65 15.3 7.35 15.5 7.25 15.75 7.2 16.1 7.05 17.8 6.45 17.9 6.35 18.15 6.15 Q18.8 5.75 18.25 5.25 L18.25 5.2 17.8 4.75 18.25 4.65 18.4 4.6 18.4 4.55 M19.75 2.25 Q19.3 1.6 18.25 1.65 L18.2 1.7 18.05 2.15 18.05 2.3 18.05 2.4 18.25 3.35 18.35 3.6 18.5 3.8 18.85 3.7 19.1 3.7 19.2 3.6 19.3 3.5 19.85 2.5 19.9 2.45 19.75 2.25 M7.55 6.15 L8.35 5.65 8.5 5.5 8.75 5.1 Q8.55 4.85 8.9 4.55 L9.5 4.25 9.6 4.15 Q10.2 3.75 10.25 3.1 L10.25 2.7 10.2 2.3 9.75 1.9 9.7 1.85 9.05 1.55 7.9 2.1 7.4 2.35 6.85 2.6 6.6 2.7 6.25 3.0 6.15 3.25 6.0 3.35 5.95 3.4 Q5.55 3.7 5.45 4.2 L5.45 4.25 5.4 4.3 5.4 4.35 5.4 4.5 Q5.3 4.95 5.5 5.4 L5.6 5.6 5.65 5.65 5.7 5.75 5.9 5.95 6.0 6.05 6.2 6.15 6.75 6.25 6.95 6.25 7.45 6.15 7.5 6.15 7.55 6.15 M13.1 9.85 L13.85 10.4 13.9 10.45 13.1 11.5 12.1 12.25 Q10.85 13.05 9.45 13.05 L9.05 13.05 8.9 13.05 9.15 11.45 10.15 11.4 11.55 10.65 11.75 10.15 12.15 9.85 12.45 9.0 12.45 9.05 12.55 9.3 12.6 9.35 12.65 9.4 12.75 9.5 13.1 9.85 M12.6 10.15 Q12.4 10.25 12.25 10.45 11.65 11.3 10.65 11.7 L10.25 11.8 9.75 12.05 Q9.4 12.25 9.75 12.5 L10.5 12.4 11.45 12.05 12.4 11.4 12.95 10.6 Q13.1 10.15 12.6 10.15" fill="#000000" fill-rule="evenodd" stroke="none"/>
    <path d="M16.05 1.85 L16.85 1.6 17.1 1.55 17.15 1.55 17.65 1.6 17.8 1.6 17.8 1.7 17.9 2.15 17.95 2.4 18.2 3.7 18.2 3.85 18.4 4.55 16.4 5.2 13.45 6.2 13.55 6.45 13.05 5.95 12.95 5.8 12.5 4.35 12.4 3.7 12.3 3.3 12.4 3.15 12.45 3.1 12.55 3.4 Q12.85 3.8 13.3 3.7 L13.35 3.6 Q13.15 3.85 13.5 4.15 L13.85 4.2 16.2 3.4 16.45 3.15 16.25 2.65 16.0 2.55 16.2 2.6 16.25 2.45 Q16.35 2.0 16.05 1.85 M15.35 7.65 L15.35 7.7 Q15.5 8.65 15.25 9.65 L14.85 10.9 14.1 10.6 14.1 10.55 13.8 10.35 13.85 10.4 13.1 9.85 13.45 8.8 13.5 8.1 14.65 7.85 15.35 7.65 M16.8 4.8 L16.95 4.55 Q17.0 3.85 16.25 3.85 L14.25 4.55 13.85 5.05 Q13.85 5.65 14.5 5.55 L16.1 5.1 16.8 4.8 M9.05 1.55 L9.05 1.6 Q9.55 2.05 9.7 2.75 L9.7 3.0 9.6 3.6 9.25 3.8 6.1 5.4 5.6 5.6 5.5 5.4 Q5.3 4.95 5.4 4.5 L6.25 4.65 6.9 4.45 8.15 3.4 8.25 3.25 7.75 3.5 8.3 3.2 8.5 3.0 Q8.8 2.7 8.6 2.3 8.45 1.95 8.15 2.0 L7.9 2.1 9.05 1.55 M14.3 8.15 Q13.75 8.4 13.8 9.05 L14.0 9.4 Q14.55 9.85 15.1 9.4 L15.3 8.85 Q15.2 8.05 14.3 8.15 M7.4 2.35 L6.85 2.65 6.25 3.0 6.6 2.7 6.85 2.6 7.4 2.35" fill="#999999" fill-rule="evenodd" stroke="none"/>
    <path d="M6.15 18.45 L5.45 18.45 5.3 18.25 Q4.35 18.25 3.45 17.55 L3.85 17.8 4.0 17.15 4.8 14.65 Q5.75 11.45 7.8 8.65 L7.65 8.15 Q7.0 8.85 6.3 8.35 L6.2 7.85 6.5 7.85 Q7.2 7.6 6.7 7.0 L7.15 6.95 7.2 6.95 7.25 6.9 7.45 6.8 9.05 6.05 9.45 5.85 9.4 5.9 9.2 6.1 9.3 6.2 9.5 5.75 9.6 5.65 9.7 5.7 10.05 6.05 10.7 7.1 10.25 7.7 9.2 8.85 8.5 9.95 7.9 11.25 7.4 12.6 7.05 14.05 6.75 15.55 6.45 16.95 6.15 18.45 M3.0 15.55 Q2.6 15.2 2.85 14.7 L3.2 13.5 Q3.3 12.6 3.85 11.9 L4.3 11.2 4.5 10.95 5.2 11.1 6.25 9.4 Q6.35 10.45 5.95 11.25 L5.65 11.9 Q5.1 13.55 4.0 14.8 L3.55 15.25 3.0 15.55 M10.95 8.2 Q11.75 8.2 11.75 9.0 L11.75 9.25 11.1 10.35 Q10.5 10.9 9.75 10.75 9.45 10.7 9.35 10.45 9.1 9.95 9.45 9.5 L10.4 8.5 10.95 8.2" fill="#ff6600" fill-rule="evenodd" stroke="none"/>
    <path d="M8.85 13.65 L8.15 18.25 6.15 18.45 6.45 16.95 6.75 15.55 7.05 14.05 7.4 12.6 7.9 11.25 8.5 9.95 9.2 8.85 10.25 7.7 10.7 7.1 10.05 6.05 9.7 5.7 9.6 5.65 10.15 5.0 Q10.85 5.15 11.55 5.45 12.5 5.75 12.75 6.6 L12.65 8.05 12.45 9.0 12.15 9.85 11.75 10.15 11.55 10.65 10.15 11.4 9.15 11.45 8.9 13.05 8.75 13.4 8.85 13.65 M9.45 5.85 L9.5 5.75 9.3 6.2 9.2 6.1 9.4 5.9 9.45 5.85 M10.95 8.2 L10.4 8.5 9.45 9.5 Q9.1 9.95 9.35 10.45 9.45 10.7 9.75 10.75 10.5 10.9 11.1 10.35 L11.75 9.25 11.75 9.0 Q11.75 8.2 10.95 8.2" fill="#cc0000" fill-rule="evenodd" stroke="none"/>
    <path d="M18.05 2.4 L18.05 2.3 18.05 2.15 18.2 1.7 18.25 1.65 Q19.3 1.6 19.75 2.25 L19.6 2.6 Q19.2 3.3 18.45 2.9 L18.05 2.6 18.05 2.4" fill="#00ff00" fill-rule="evenodd" stroke="none"/>
    <path d="M16.05 1.85 Q16.35 2.0 16.25 2.45 L16.2 2.6 16.0 2.55 15.9 2.55 15.85 2.55 13.75 3.25 13.7 3.3 13.5 3.4 13.45 3.45 13.35 3.6 13.3 3.7 Q12.85 3.8 12.55 3.4 L12.45 3.1 13.85 2.6 16.05 1.85 M14.3 8.15 Q15.2 8.05 15.3 8.85 L15.1 9.4 Q14.55 9.85 14.0 9.4 L13.8 9.05 Q13.75 8.4 14.3 8.15 M6.0 3.35 L6.0 3.6 Q6.15 4.1 6.7 3.9 L6.95 3.8 7.75 3.5 8.25 3.25 8.15 3.4 6.9 4.45 6.25 4.65 5.4 4.5 5.4 4.35 5.4 4.3 5.45 4.25 5.45 4.2 Q5.55 3.7 5.95 3.4 L6.0 3.35" fill="#cccccc" fill-rule="evenodd" stroke="none"/>
    <path d="M18.05 2.4 L18.05 2.6 18.45 2.9 Q19.2 3.3 19.6 2.6 L19.75 2.25 19.9 2.45 19.85 2.5 19.3 3.5 19.2 3.6 19.1 3.7 18.85 3.7 18.5 3.8 18.35 3.6 18.25 3.35 18.05 2.4" fill="#009900" fill-rule="evenodd" stroke="none"/>
    <path d="M3.45 17.55 L3.05 17.1 Q2.45 16.2 3.0 15.55 L3.55 15.25 4.0 14.8 Q5.1 13.55 5.65 11.9 L5.95 11.25 Q6.35 10.45 6.25 9.4 L5.2 11.1 4.5 10.95 5.15 9.95 4.85 7.3 Q4.7 6.75 5.2 6.35 L5.3 6.35 Q6.15 6.45 6.7 7.0 7.2 7.6 6.5 7.85 L6.2 7.85 6.3 8.35 Q7.0 8.85 7.65 8.15 L7.8 8.65 Q5.75 11.45 4.8 14.65 L4.0 17.15 3.85 17.8 3.45 17.55" fill="#ffcc00" fill-rule="evenodd" stroke="none"/>
  </g>
</svg>
