<?xml version="1.0" encoding="UTF-8" standalone="no"?>
<svg xmlns:xlink="http://www.w3.org/1999/xlink" height="15.05px" width="13.0px" xmlns="http://www.w3.org/2000/svg">
  <g transform="matrix(1.0, 0.0, 0.0, 1.0, 6.6, 6.2)">
    <path d="M-5.25 4.0 L-5.05 4.7 -5.1 4.55 -5.2 4.15 -5.25 4.0" fill="#cccccc" fill-rule="evenodd" stroke="none"/>
    <path d="M3.55 -5.05 L4.45 -4.05 6.3 -2.0 6.3 -1.95 6.4 -0.85 6.4 -0.5 6.4 1.3 6.4 1.7 6.4 1.85 6.4 2.45 6.35 2.75 5.8 4.1 Q5.45 5.05 5.25 6.0 L4.65 6.75 4.35 7.15 3.15 8.4 2.75 8.55 2.0 8.6 0.45 8.85 -1.95 8.6 Q-2.8 8.5 -3.3 7.7 L-3.6 7.35 Q-4.85 6.35 -5.35 5.0 -6.15 4.3 -6.2 3.0 L-6.45 1.7 -6.6 1.0 Q-6.65 0.25 -6.25 -0.15 L-6.2 -0.4 -5.75 -1.75 -5.0 -3.0 -5.0 -3.2 -4.75 -3.6 -3.4 -4.55 -1.95 -5.65 -1.8 -5.8 -1.0 -6.0 -0.35 -6.05 2.2 -6.2 2.35 -6.15 3.35 -5.2 3.45 -5.05 3.55 -5.05 M-3.35 6.55 L-2.25 7.4 -1.3 8.0 -1.25 8.0 -1.1 8.1 -0.75 8.2 0.15 8.4 0.6 8.4 1.95 8.0 2.4 7.9 2.85 7.8 Q3.9 7.4 4.2 6.3 L4.4 5.85 4.8 5.2 5.25 4.25 5.25 4.1 5.35 3.9 5.7 2.85 5.9 2.4 6.1 1.8 5.95 0.95 5.95 0.85 5.8 -0.25 5.75 -0.65 5.4 -1.7 5.4 -1.75 4.1 -3.8 4.0 -3.95 3.75 -4.15 2.75 -5.05 Q2.05 -5.6 1.35 -5.75 L-0.15 -5.85 -0.65 -5.7 -1.1 -5.5 -1.55 -5.35 -2.95 -4.55 -4.1 -3.4 -4.3 -3.2 -4.6 -2.55 -4.85 -2.05 -5.3 -1.05 -5.45 -0.55 -5.95 0.55 -5.65 1.5 -5.4 2.85 -5.3 3.65 -5.25 4.0 -5.2 4.15 -5.1 4.55 -5.05 4.7 -4.6 5.35 -4.5 5.45 -3.75 6.2 -3.35 6.55" fill="#000000" fill-rule="evenodd" stroke="none"/>
    <path d="M5.75 -0.65 L4.15 -2.7 3.3 -3.75 2.9 -4.05 -0.15 -4.7 -0.75 -4.65 -1.35 -4.55 -3.55 -2.3 -4.0 -1.85 -4.65 -0.9 Q-4.1 0.15 -4.1 1.45 L-3.95 2.9 -3.35 4.8 Q-3.0 5.55 -3.2 6.25 L-3.35 6.55 -3.75 6.2 -4.5 5.45 -4.6 5.35 -5.05 4.7 -5.25 4.0 -5.3 3.65 -5.4 2.85 -5.65 1.5 -5.95 0.55 -5.45 -0.55 -5.3 -1.05 -4.85 -2.05 -4.6 -2.55 -4.3 -3.2 -4.1 -3.4 -2.95 -4.55 -1.55 -5.35 -1.1 -5.5 -0.65 -5.7 -0.15 -5.85 1.35 -5.75 Q2.05 -5.6 2.75 -5.05 L3.75 -4.15 4.0 -3.95 4.1 -3.8 5.4 -1.75 5.4 -1.7 5.75 -0.65 M3.9 -0.35 L1.95 -0.4 -0.75 -1.35 -1.6 -0.7 -2.8 -0.35 -2.3 -1.95 -1.7 -2.75 -1.2 -2.9 -0.7 -3.5 2.2 -3.4 2.5 -2.45 4.3 -1.15 3.9 -0.35 M0.6 7.25 L0.55 7.25 Q-0.05 7.1 0.2 6.5 L0.35 6.2 Q0.6 5.7 1.0 5.3 1.65 5.1 2.15 4.7 2.2 4.2 2.55 3.8 L2.9 3.25 4.3 1.65 Q4.75 1.65 5.0 2.0 5.45 2.25 5.05 2.55 L5.05 2.6 4.4 1.9 3.75 3.0 3.35 3.2 2.9 3.8 2.9 4.6 2.0 5.1 1.0 5.95 0.3 6.95 0.6 7.25 M2.65 2.15 Q2.3 2.15 2.05 1.95 L1.75 1.5 2.05 1.05 Q2.3 0.85 2.65 0.85 L3.3 1.05 3.55 1.5 3.3 1.95 2.65 2.15 M0.25 1.35 L0.15 2.1 -0.85 2.8 -2.15 3.45 -2.65 2.8 -2.35 2.4 -2.1 1.65 -2.55 0.6 -2.25 0.2 -1.35 0.0 -1.1 -0.25 0.45 -0.1 1.05 1.15 0.25 1.35 M0.25 4.3 L0.25 4.25 0.2 3.95 Q0.3 3.25 1.0 3.45 L1.1 3.5 1.4 3.7 1.25 3.95 0.55 4.2 0.35 4.4 0.3 4.45 0.25 4.3 M-1.45 5.2 Q-1.95 5.0 -1.6 4.5 -1.2 3.9 -0.7 4.3 L-0.6 4.45 -0.65 4.65 -1.3 4.6 -1.5 5.05 -1.45 5.2" fill="#7e7ea9" fill-rule="evenodd" stroke="none"/>
    <path d="M5.05 2.6 L5.15 2.7 4.75 4.0 4.7 4.45 4.25 5.1 3.5 5.55 3.15 6.7 0.8 7.5 0.6 7.25 0.3 6.95 1.0 5.95 2.0 5.1 2.9 4.6 2.9 3.8 3.35 3.2 3.75 3.0 4.4 1.9 5.05 2.6 M1.1 3.5 Q1.8 3.75 1.5 4.45 L1.3 4.7 1.05 4.85 Q0.35 4.9 0.25 4.3 L0.3 4.45 0.35 4.4 0.55 4.2 1.25 3.95 1.4 3.7 1.1 3.5 M-0.65 4.65 Q-0.4 4.75 -0.35 5.15 -0.25 5.5 -0.6 5.65 L-0.65 5.7 Q-1.35 5.75 -1.45 5.2 L-1.5 5.05 -1.3 4.6 -0.65 4.65" fill="#ffffff" fill-rule="evenodd" stroke="none"/>
    <path d="M-3.35 6.55 L-3.2 6.25 Q-3.0 5.55 -3.35 4.8 L-3.95 2.9 -4.1 1.45 Q-4.1 0.15 -4.65 -0.9 L-4.0 -1.85 -3.55 -2.3 -1.35 -4.55 -0.75 -4.65 -0.15 -4.7 2.9 -4.05 3.3 -3.75 4.15 -2.7 5.75 -0.65 5.8 -0.25 5.95 0.85 5.95 0.95 6.1 1.8 5.9 2.4 5.7 2.85 5.35 3.9 5.25 4.1 5.25 4.25 4.8 5.2 4.4 5.85 4.2 6.3 Q3.9 7.4 2.85 7.8 L2.4 7.9 1.95 8.0 0.6 8.4 0.15 8.4 -0.75 8.2 -1.1 8.1 -1.25 8.0 -1.3 8.0 -2.25 7.4 -3.35 6.55 M5.05 2.6 L5.05 2.55 Q5.45 2.25 5.0 2.0 4.75 1.65 4.3 1.65 L2.9 3.25 2.55 3.8 Q2.2 4.2 2.15 4.7 1.65 5.1 1.0 5.3 0.6 5.7 0.35 6.2 L0.2 6.5 Q-0.05 7.1 0.55 7.25 L0.6 7.25 0.8 7.5 3.15 6.7 3.5 5.55 4.25 5.1 4.7 4.45 4.75 4.0 5.15 2.7 5.05 2.6 M3.9 -0.35 L4.3 -1.15 2.5 -2.45 2.2 -3.4 -0.7 -3.5 -1.2 -2.9 -1.7 -2.75 -2.3 -1.95 -2.8 -0.35 -1.6 -0.7 -0.75 -1.35 1.95 -0.4 3.9 -0.35 M1.1 3.5 L1.0 3.45 Q0.3 3.25 0.2 3.95 L0.25 4.25 0.25 4.3 Q0.35 4.9 1.05 4.85 L1.3 4.7 1.5 4.45 Q1.8 3.75 1.1 3.5 M0.25 1.35 L1.05 1.15 0.45 -0.1 -1.1 -0.25 -1.35 0.0 -2.25 0.2 -2.55 0.6 -2.1 1.65 -2.35 2.4 -2.65 2.8 -2.15 3.45 -0.85 2.8 0.15 2.1 0.25 1.35 M2.65 2.15 L3.3 1.95 3.55 1.5 3.3 1.05 2.65 0.85 Q2.3 0.85 2.05 1.05 L1.75 1.5 2.05 1.95 Q2.3 2.15 2.65 2.15 M-0.65 4.65 L-0.6 4.45 -0.7 4.3 Q-1.2 3.9 -1.6 4.5 -1.95 5.0 -1.45 5.2 -1.35 5.75 -0.65 5.7 L-0.6 5.65 Q-0.25 5.5 -0.35 5.15 -0.4 4.75 -0.65 4.65" fill="#ccffff" fill-rule="evenodd" stroke="none"/>
  </g>
</svg>
