<?xml version="1.0" encoding="UTF-8" standalone="no"?>
<svg xmlns:xlink="http://www.w3.org/1999/xlink" height="18.6px" width="18.8px" xmlns="http://www.w3.org/2000/svg">
  <g transform="matrix(1.0, 0.0, 0.0, 1.0, -1.1, -0.2)">
    <path d="M15.35 14.9 L15.35 14.95 15.35 14.9 M2.9 11.9 L2.85 11.95 2.85 11.9 2.9 11.9" fill="#990000" fill-rule="evenodd" stroke="none"/>
    <path d="M12.0 4.9 L12.0 4.95 12.1 5.5 12.85 6.0 14.9 5.85 Q15.65 5.7 16.2 5.05 17.15 3.95 16.75 2.55 16.5 1.6 15.75 1.15 L15.3 0.85 15.2 0.85 15.05 0.8 14.95 0.75 14.7 0.65 14.65 0.6 14.35 0.65 14.6 1.1 14.75 1.5 Q15.15 2.5 14.45 3.3 13.85 3.95 13.05 4.25 L12.3 4.4 12.05 4.7 12.0 4.9 M15.6 5.8 L14.95 6.05 13.1 6.2 12.35 6.1 12.55 6.35 12.9 7.05 Q14.05 7.15 15.1 7.75 L15.7 8.05 Q17.0 8.7 18.1 9.65 L19.4 11.25 19.5 11.55 19.55 11.6 Q19.9 12.25 19.9 13.05 19.8 14.05 19.35 15.05 L18.25 16.5 18.1 16.55 18.0 16.7 17.35 17.05 17.25 17.15 15.5 18.0 14.5 18.25 14.15 18.3 13.1 18.55 11.95 18.65 11.25 18.75 10.05 18.8 8.55 18.8 6.2 18.25 4.7 17.6 4.45 17.5 4.4 17.45 4.25 17.35 2.55 16.05 1.85 15.1 1.2 13.6 1.15 13.15 1.15 12.95 1.15 12.7 1.15 12.2 Q1.25 11.5 1.7 11.0 L2.3 10.15 2.45 10.0 2.6 9.85 4.1 8.7 Q5.95 7.55 8.05 7.2 8.1 6.8 8.3 6.55 L8.45 6.3 7.95 6.4 5.8 6.2 Q5.0 5.95 4.45 5.25 3.55 4.05 3.9 2.55 L4.15 1.85 Q4.45 1.1 5.15 0.7 5.65 0.3 6.25 0.25 6.7 0.15 6.75 0.5 7.0 0.85 6.75 1.35 L6.55 1.85 Q6.45 2.6 7.1 3.15 L8.7 4.15 8.9 4.2 9.45 4.4 9.85 4.15 10.55 4.0 Q11.2 3.95 11.6 4.35 L12.5 4.05 12.9 3.85 13.7 3.25 Q14.4 2.75 14.4 1.95 L14.3 1.5 14.0 0.8 Q13.85 0.3 14.3 0.2 L14.4 0.25 14.65 0.2 Q15.55 0.25 16.2 0.95 17.3 2.0 17.1 3.55 16.95 5.05 15.6 5.8 M11.2 4.5 L10.75 4.25 10.7 4.25 10.5 4.25 10.25 4.25 10.1 4.35 10.05 4.35 9.75 4.5 9.65 4.6 Q9.25 4.9 9.25 5.35 L9.25 5.7 9.25 5.75 9.35 6.0 9.35 6.1 9.55 6.4 9.5 6.4 9.3 6.5 8.6 7.1 8.35 7.55 8.05 7.6 Q6.05 7.9 4.5 8.75 L4.15 8.95 4.1 9.0 3.3 9.55 Q2.45 10.25 2.05 11.05 L2.0 11.15 1.65 12.0 1.5 12.85 1.5 12.95 1.5 13.2 1.55 13.35 1.6 13.6 1.6 13.65 1.85 14.5 2.45 15.45 3.45 16.45 3.5 16.45 4.1 16.85 4.85 17.3 5.45 17.55 Q6.85 18.15 8.55 18.35 L10.2 18.45 10.3 18.45 10.5 18.45 10.65 18.45 11.85 18.4 13.1 18.25 14.4 17.95 14.95 17.8 15.3 17.65 15.35 17.65 15.65 17.5 15.7 17.5 15.75 17.45 16.05 17.3 16.35 17.15 16.9 16.85 Q18.85 15.65 19.3 14.05 L19.5 12.95 Q19.45 11.75 18.8 10.8 L18.65 10.6 18.6 10.5 18.45 10.3 17.4 9.35 17.15 9.15 16.95 9.05 16.9 9.0 Q16.0 8.45 14.95 8.1 L13.1 7.6 12.6 7.55 12.4 7.15 11.75 6.55 11.5 6.4 11.4 6.4 11.6 6.1 11.65 5.9 11.7 5.7 11.75 5.55 Q11.8 4.85 11.2 4.5 M15.35 14.9 L15.1 14.25 15.05 14.0 14.75 12.9 14.15 11.35 13.65 10.4 13.55 10.25 13.45 10.05 13.55 9.6 13.6 9.55 13.75 9.3 Q14.65 9.25 15.55 9.7 L16.55 10.15 16.6 10.2 16.8 10.35 16.9 10.45 17.7 11.25 18.15 11.95 18.15 12.0 17.95 12.8 17.95 12.75 17.9 12.95 17.85 13.05 17.65 13.35 17.15 13.85 16.9 14.1 15.95 14.7 15.7 14.8 15.6 14.85 15.35 14.95 15.35 14.9 M13.7 9.8 Q14.65 10.95 15.0 12.4 L15.25 13.0 15.25 13.1 15.3 13.15 15.5 14.35 Q16.2 14.5 16.75 13.95 17.5 13.3 17.65 12.45 L16.85 11.25 15.55 10.15 14.15 9.7 13.85 9.7 13.7 9.8 M9.0 5.0 L9.0 4.8 8.7 4.4 7.95 4.25 6.55 3.3 Q5.85 2.5 6.25 1.5 L6.45 1.0 6.65 0.65 6.35 0.6 6.2 0.65 5.9 0.8 5.8 0.85 5.7 0.85 5.25 1.15 Q4.45 1.6 4.25 2.55 3.85 3.95 4.75 5.05 L6.1 5.85 8.15 6.0 Q8.65 5.95 8.85 5.55 L8.9 5.5 9.0 5.0 M4.8 10.35 L4.7 10.5 Q4.0 10.85 3.55 11.55 L3.4 11.7 3.4 11.8 3.4 12.05 Q3.8 13.45 5.2 14.3 L5.45 14.45 5.55 13.95 6.45 11.2 7.05 10.0 6.4 9.85 6.1 9.9 Q5.55 9.95 5.1 10.25 L5.05 10.25 4.8 10.35 M2.95 11.8 L3.0 11.7 3.1 11.5 3.85 10.65 4.1 10.45 4.2 10.35 4.4 10.2 4.4 10.15 4.45 10.1 5.45 9.7 Q6.3 9.25 7.2 9.3 L7.4 9.5 7.45 9.6 7.5 9.65 7.45 10.25 7.45 10.3 7.4 10.35 Q6.7 11.55 6.25 12.9 L5.95 14.0 5.8 14.45 5.75 14.6 5.7 14.75 5.6 14.95 5.4 14.85 5.35 14.85 5.3 14.8 5.25 14.8 4.95 14.65 4.5 14.4 3.9 13.95 3.35 13.35 3.1 12.9 3.0 12.75 2.95 12.55 2.85 11.95 2.9 11.9 2.95 11.8" fill="#333333" fill-rule="evenodd" stroke="none"/>
    <path d="M15.9 1.95 Q16.5 2.15 16.45 2.9 16.35 3.75 15.65 4.15 L15.45 4.15 Q15.15 3.8 15.35 3.35 L15.45 2.6 Q15.4 2.05 15.9 1.95 M12.0 4.9 L12.05 4.7 12.3 4.4 13.05 4.25 Q13.85 3.95 14.45 3.3 15.15 2.5 14.75 1.5 L14.6 1.1 14.35 0.65 14.65 0.6 14.7 0.65 14.95 0.75 15.3 2.05 15.25 2.55 Q15.1 3.55 14.35 4.3 L13.3 5.05 12.15 5.0 12.0 4.9 M9.25 5.7 L9.25 5.35 Q9.25 4.9 9.65 4.6 L9.75 4.5 10.05 4.35 10.1 4.35 10.25 4.25 10.5 4.25 10.7 4.25 10.75 4.25 11.2 4.5 11.25 4.6 Q11.4 4.9 11.15 5.2 10.55 6.1 9.45 5.85 L9.25 5.7 M15.35 14.95 L15.6 14.85 15.7 14.8 15.95 14.7 Q16.25 15.25 16.8 15.1 17.15 14.8 17.0 14.35 L16.9 14.1 17.15 13.85 17.75 13.95 Q18.25 13.8 18.15 13.3 L18.0 12.9 18.0 13.0 17.95 12.8 18.15 12.0 18.25 12.15 18.4 12.55 18.4 12.9 18.25 14.25 18.15 14.45 18.05 14.65 17.75 15.05 16.8 15.95 Q16.6 16.1 16.35 16.2 L16.15 16.25 15.75 16.25 15.65 16.25 15.45 15.9 15.4 15.3 15.35 14.95 M6.2 0.65 L6.35 0.6 6.65 0.65 6.45 1.0 6.25 1.5 Q5.85 2.5 6.55 3.3 L7.95 4.25 8.7 4.4 9.0 4.8 9.0 5.0 Q7.4 5.15 6.45 4.0 5.55 3.0 5.8 1.6 L6.2 0.65 M5.4 3.85 L5.25 4.15 Q4.5 4.35 4.3 3.55 4.1 2.6 4.7 1.9 L4.95 1.85 Q5.5 2.0 5.3 2.65 L5.35 3.3 5.4 3.85 M2.85 11.95 L2.95 12.55 3.0 12.75 3.1 12.9 3.05 12.9 Q2.45 13.35 2.8 14.0 L2.95 14.1 3.9 13.95 4.5 14.4 4.15 14.15 Q3.9 14.4 3.95 14.8 3.95 15.05 4.1 15.2 L5.1 15.15 5.15 15.0 5.3 14.8 5.35 14.85 5.4 14.85 5.6 14.95 5.7 14.75 5.75 14.65 5.75 14.7 5.75 14.8 5.55 15.6 5.5 15.8 5.4 15.9 5.35 15.95 5.25 16.1 5.1 16.25 4.1 15.95 4.0 15.9 3.4 15.5 3.3 15.4 2.65 14.7 2.55 14.55 2.45 14.4 2.4 14.3 2.2 13.5 2.2 13.35 2.2 13.1 2.2 12.95 2.25 12.65 2.3 12.5 2.35 12.4 2.85 11.95 M13.35 15.1 L13.25 15.55 Q12.85 16.25 12.0 16.5 L10.7 16.3 10.25 15.95 Q9.8 15.35 9.9 14.6 10.0 13.65 10.7 13.1 11.1 12.7 11.65 12.7 12.55 12.65 13.0 13.45 13.4 14.15 13.35 15.1 M11.3 13.25 L11.1 13.3 Q10.15 13.7 10.35 14.95 10.5 16.0 11.55 15.95 12.7 15.95 12.85 14.75 13.0 13.4 11.65 13.15 L11.3 13.25" fill="#cccccc" fill-rule="evenodd" stroke="none"/>
    <path d="M11.5 6.4 L11.75 6.55 12.4 7.15 12.6 7.55 12.65 7.65 12.1 7.6 11.9 7.55 11.6 7.55 11.15 7.45 10.5 7.45 9.9 7.45 10.0 7.2 Q10.1 6.5 9.5 6.4 L9.55 6.4 Q10.55 6.65 11.5 6.4 M9.75 12.35 Q9.75 11.3 8.7 11.4 7.8 11.8 8.05 12.7 L8.35 13.1 Q9.1 13.5 9.6 12.85 L9.75 12.35 M9.95 12.2 Q10.0 12.7 9.65 13.1 9.0 13.75 8.2 13.4 L7.85 12.95 Q7.5 11.9 8.45 11.3 L8.9 11.2 Q9.8 11.25 9.95 12.2" fill="#666666" fill-rule="evenodd" stroke="none"/>
    <path d="M15.9 1.95 Q15.4 2.05 15.45 2.6 L15.35 3.35 Q15.15 3.8 15.45 4.15 L15.65 4.15 Q16.35 3.75 16.45 2.9 16.5 2.15 15.9 1.95 M14.95 0.75 L15.05 0.8 15.2 0.85 15.3 0.85 15.75 1.15 Q16.5 1.6 16.75 2.55 17.15 3.95 16.2 5.05 15.65 5.7 14.9 5.85 L12.85 6.0 12.1 5.5 12.0 4.95 12.0 4.9 12.15 5.0 13.3 5.05 14.35 4.3 Q15.1 3.55 15.25 2.55 L15.3 2.05 14.95 0.75 M11.2 4.5 Q11.8 4.85 11.75 5.55 L11.7 5.7 11.65 5.9 11.6 6.1 11.4 6.4 11.5 6.4 Q10.55 6.65 9.55 6.4 L9.35 6.1 9.35 6.0 9.25 5.75 9.25 5.7 9.45 5.85 Q10.55 6.1 11.15 5.2 11.4 4.9 11.25 4.6 L11.2 4.5 M8.35 7.55 L8.6 7.1 9.3 6.5 9.5 6.4 Q10.1 6.5 10.0 7.2 L9.9 7.45 9.85 7.45 9.3 7.55 8.3 7.65 8.35 7.55 M15.95 14.7 L16.9 14.1 17.0 14.35 Q17.15 14.8 16.8 15.1 16.25 15.25 15.95 14.7 M17.15 13.85 L17.65 13.35 17.85 13.05 17.9 12.95 17.95 12.75 17.95 12.8 18.0 13.0 18.0 12.9 18.15 13.3 Q18.25 13.8 17.75 13.95 L17.15 13.85 M6.2 0.65 L5.8 1.6 Q5.55 3.0 6.45 4.0 7.4 5.15 9.0 5.0 L8.9 5.5 8.85 5.55 Q8.65 5.95 8.15 6.0 L6.1 5.85 4.75 5.05 Q3.85 3.95 4.25 2.55 4.45 1.6 5.25 1.15 L5.7 0.85 5.8 0.85 5.9 0.8 6.2 0.65 M5.4 3.85 L5.35 3.3 5.3 2.65 Q5.5 2.0 4.95 1.85 L4.7 1.9 Q4.1 2.6 4.3 3.55 4.5 4.35 5.25 4.15 L5.4 3.85 M3.1 12.9 L3.35 13.35 3.9 13.95 2.95 14.1 2.8 14.0 Q2.45 13.35 3.05 12.9 L3.1 12.9 M4.5 14.4 L4.95 14.65 5.25 14.8 5.3 14.8 5.15 15.0 5.1 15.15 4.1 15.2 Q3.95 15.05 3.95 14.8 3.9 14.4 4.15 14.15 L4.5 14.4" fill="#999999" fill-rule="evenodd" stroke="none"/>
    <path d="M5.7 14.75 L5.75 14.6 5.75 14.7 5.75 14.65 5.7 14.75" fill="#ff6600" fill-rule="evenodd" stroke="none"/>
    <path d="M16.95 9.05 L17.15 9.15 16.95 9.05 M15.75 17.45 L15.7 17.5 15.85 17.3 15.75 17.45 M4.15 8.95 L4.5 8.75 4.5 8.8 Q4.3 8.85 4.15 8.95" fill="#ffcc00" fill-rule="evenodd" stroke="none"/>
    <path d="M9.75 12.35 L9.6 12.85 Q9.1 13.5 8.35 13.1 L8.05 12.7 Q7.8 11.8 8.7 11.4 9.75 11.3 9.75 12.35 M8.85 11.7 Q8.45 11.65 8.3 12.05 L8.3 12.55 Q8.55 13.2 9.3 12.9 L9.5 12.5 Q9.65 11.75 8.85 11.7 M11.1 13.3 L11.3 13.25 11.4 13.25 Q12.25 13.35 12.2 14.1 L12.0 14.65 Q11.55 15.25 10.85 14.9 L10.65 14.55 Q10.45 13.75 11.1 13.3" fill="#33ff00" fill-rule="evenodd" stroke="none"/>
    <path d="M8.85 11.7 Q9.65 11.75 9.5 12.5 L9.3 12.9 Q8.55 13.2 8.3 12.55 L8.3 12.05 Q8.45 11.65 8.85 11.7 M11.3 13.25 L11.65 13.15 Q13.0 13.4 12.85 14.75 12.7 15.95 11.55 15.95 10.5 16.0 10.35 14.95 10.15 13.7 11.1 13.3 10.45 13.75 10.65 14.55 L10.85 14.9 Q11.55 15.25 12.0 14.65 L12.2 14.1 Q12.25 13.35 11.4 13.25 L11.3 13.25" fill="#339900" fill-rule="evenodd" stroke="none"/>
    <path d="M14.95 8.1 Q16.0 8.45 16.9 9.0 L16.95 9.05 17.15 9.15 17.4 9.35 18.45 10.3 18.6 10.5 18.65 10.6 18.8 10.8 Q19.45 11.75 19.5 12.95 L19.3 14.05 19.3 14.0 19.0 13.3 18.75 12.8 Q18.6 12.3 18.25 12.15 L18.15 12.0 18.15 11.95 17.7 11.25 16.9 10.45 16.8 10.35 16.6 10.2 16.55 10.15 15.55 9.7 Q14.65 9.25 13.75 9.3 L13.6 9.55 13.55 9.6 13.45 10.05 13.55 10.25 13.65 10.4 14.15 11.35 14.75 12.9 15.05 14.0 15.1 14.25 15.35 14.9 15.35 14.95 15.4 15.3 15.0 16.2 13.9 17.15 12.95 17.6 11.65 17.9 Q9.45 18.25 7.45 17.4 L6.9 17.15 Q6.0 16.85 5.8 15.95 L5.7 15.55 5.7 15.5 5.8 14.45 5.95 14.0 6.25 12.9 Q6.7 11.55 7.4 10.35 L7.45 10.3 7.45 10.25 7.5 9.65 7.45 9.6 7.4 9.5 7.2 9.3 Q6.3 9.25 5.45 9.7 L4.45 10.1 4.4 10.15 4.4 10.2 4.2 10.35 4.1 10.45 3.85 10.65 3.1 11.5 3.0 11.7 2.95 11.8 Q2.55 11.85 2.25 12.2 L1.8 12.75 1.55 13.35 1.5 13.2 1.5 12.95 1.5 12.85 1.65 12.0 2.0 11.15 2.05 11.05 Q2.45 10.25 3.3 9.55 L4.1 9.0 4.15 8.95 Q4.3 8.85 4.5 8.8 L4.6 8.95 6.2 8.75 6.55 8.65 Q7.4 8.45 8.05 8.9 8.4 9.1 8.3 9.5 L8.1 10.05 8.05 10.3 7.9 10.7 7.65 11.15 Q6.9 12.4 6.7 13.9 6.45 15.45 7.5 16.6 L8.55 17.3 8.75 17.4 9.5 17.65 10.5 17.3 10.65 17.2 11.35 16.8 10.3 16.5 Q9.9 16.3 9.8 15.85 L9.65 14.45 9.7 14.1 Q9.9 13.25 10.65 12.75 L10.7 12.75 11.2 12.55 11.3 12.55 12.25 12.6 12.0 11.9 11.75 10.75 11.75 10.9 11.15 9.9 Q10.75 9.35 11.15 8.85 L11.2 8.8 11.25 8.8 11.45 8.65 11.65 8.55 12.2 8.45 12.55 8.4 14.2 8.55 14.95 8.5 15.0 8.45 15.1 8.4 14.95 8.1 M13.35 15.1 Q13.4 14.15 13.0 13.45 12.55 12.65 11.65 12.7 11.1 12.7 10.7 13.1 10.0 13.65 9.9 14.6 9.8 15.35 10.25 15.95 L10.7 16.3 12.0 16.5 Q12.85 16.25 13.25 15.55 L13.35 15.1" fill="#666699" fill-rule="evenodd" stroke="none"/>
    <path d="M12.6 7.55 L13.1 7.6 14.95 8.1 15.1 8.4 15.0 8.45 14.95 8.5 14.2 8.55 12.55 8.4 12.2 8.45 11.65 8.55 11.45 8.65 11.25 8.8 11.2 8.8 11.15 8.85 Q10.75 9.35 11.15 9.9 L11.75 10.9 11.75 10.75 12.0 11.9 12.25 12.6 11.3 12.55 11.2 12.55 10.7 12.75 10.65 12.75 Q9.9 13.25 9.7 14.1 L9.65 14.45 9.8 15.85 Q9.9 16.3 10.3 16.5 L11.35 16.8 10.65 17.2 10.5 17.3 9.5 17.65 8.75 17.4 8.55 17.3 7.5 16.6 Q6.45 15.45 6.7 13.9 6.9 12.4 7.65 11.15 L7.9 10.7 8.05 10.3 8.1 10.05 8.3 9.5 Q8.4 9.1 8.05 8.9 7.4 8.45 6.55 8.65 L6.2 8.75 4.6 8.95 4.5 8.8 4.5 8.75 Q6.05 7.9 8.05 7.6 L8.35 7.55 8.3 7.65 9.3 7.55 9.85 7.45 9.9 7.45 10.5 7.45 11.15 7.45 11.6 7.55 11.9 7.55 12.1 7.6 12.65 7.65 12.6 7.55 M9.95 12.2 Q9.8 11.25 8.9 11.2 L8.45 11.3 Q7.5 11.9 7.85 12.95 L8.2 13.4 Q9.0 13.75 9.65 13.1 10.0 12.7 9.95 12.2" fill="#6699cc" fill-rule="evenodd" stroke="none"/>
    <path d="M19.3 14.05 Q18.85 15.65 16.9 16.85 L16.35 17.15 16.05 17.3 15.75 17.45 15.85 17.3 15.7 17.5 15.65 17.5 15.35 17.65 15.3 17.65 14.95 17.8 14.4 17.95 13.1 18.25 11.85 18.4 10.65 18.45 10.5 18.45 10.3 18.45 10.2 18.45 8.55 18.35 Q6.85 18.15 5.45 17.55 L4.85 17.3 4.1 16.85 3.5 16.45 3.45 16.45 2.45 15.45 1.85 14.5 1.6 13.65 1.6 13.6 1.55 13.35 1.8 12.75 2.25 12.2 Q2.55 11.85 2.95 11.8 L2.9 11.9 2.85 11.9 2.85 11.95 2.35 12.4 2.3 12.5 2.25 12.65 2.2 12.95 2.2 13.1 2.2 13.35 2.2 13.5 2.4 14.3 2.45 14.4 2.55 14.55 2.65 14.7 3.3 15.4 3.4 15.5 4.0 15.9 4.1 15.95 5.1 16.25 5.25 16.1 5.35 15.95 5.4 15.9 5.5 15.8 5.55 15.6 5.75 14.8 5.75 14.7 5.75 14.6 5.8 14.45 5.7 15.5 5.7 15.55 5.8 15.95 Q6.0 16.85 6.9 17.15 L7.45 17.4 Q9.45 18.25 11.65 17.9 L12.95 17.6 13.9 17.15 15.0 16.2 15.4 15.3 15.45 15.9 15.65 16.25 15.75 16.25 16.15 16.25 16.35 16.2 Q16.6 16.1 16.8 15.95 L17.75 15.05 18.05 14.65 18.15 14.45 18.25 14.25 18.4 12.9 18.4 12.55 18.25 12.15 Q18.6 12.3 18.75 12.8 L19.0 13.3 19.3 14.0 19.3 14.05" fill="#4d4d73" fill-rule="evenodd" stroke="none"/>
  </g>
</svg>
