<?xml version="1.0" encoding="UTF-8" standalone="no"?>
<svg xmlns:xlink="http://www.w3.org/1999/xlink" height="11.45px" width="14.95px" xmlns="http://www.w3.org/2000/svg">
  <g transform="matrix(1.0, 0.0, 0.0, 1.0, 7.6, 6.75)">
    <path d="M3.8 -5.3 Q1.85 -6.0 -0.2 -5.9 L-3.1 -5.85 Q-4.55 -5.85 -5.85 -5.3 L-6.2 -5.15 Q-6.15 -4.9 -6.4 -4.6 L-6.95 -3.6 -7.05 -2.55 -6.6 -1.25 -5.05 1.25 -3.55 3.05 -2.9 3.5 1.25 3.8 Q2.75 3.65 4.1 2.95 L4.8 2.55 5.2 1.8 5.3 1.65 6.0 -0.25 6.2 -0.85 6.65 -2.65 6.65 -2.85 6.65 -3.05 6.35 -3.7 5.05 -4.8 4.15 -5.25 3.8 -5.3 M-7.3 -1.2 L-7.4 -1.5 -7.55 -3.3 -7.5 -4.05 Q-7.1 -4.95 -6.3 -5.5 L-4.8 -6.35 -4.6 -6.45 -4.55 -6.45 -0.4 -6.7 2.8 -6.4 4.95 -5.8 Q6.1 -5.4 6.95 -4.35 L7.15 -4.05 Q7.45 -2.95 7.25 -1.75 L7.1 -1.35 6.95 -0.7 6.3 0.85 6.15 1.1 5.45 2.2 4.9 3.1 4.65 3.35 4.6 3.4 3.9 4.0 3.8 4.0 3.3 4.2 -1.45 4.45 -2.7 4.05 -3.6 3.7 -3.9 3.35 -4.05 3.25 -4.15 3.15 -5.2 2.2 -5.6 1.75 -7.1 -0.75 -7.25 -1.05 -7.3 -1.2" fill="#003300" fill-rule="evenodd" stroke="none"/>
    <path d="M-7.1 -0.75 L-7.3 -1.05 -7.3 -1.2 -7.25 -1.05 -7.1 -0.75" fill="#3399cc" fill-rule="evenodd" stroke="none"/>
    <path d="M3.8 -5.3 L4.15 -5.25 5.05 -4.8 6.35 -3.7 6.65 -3.05 6.65 -2.85 6.65 -2.65 6.2 -0.85 6.0 -0.25 5.3 1.65 5.2 1.8 4.8 2.55 4.1 2.95 Q2.75 3.65 1.25 3.8 L-2.9 3.5 -3.55 3.05 -5.05 1.25 -6.6 -1.25 -7.05 -2.55 -6.95 -3.6 -6.4 -4.6 Q-6.15 -4.9 -6.2 -5.15 L-5.85 -5.3 Q-4.55 -5.85 -3.1 -5.85 L-0.2 -5.9 Q1.85 -6.0 3.8 -5.3" fill="#999999" fill-rule="evenodd" stroke="none"/>
  </g>
</svg>
