<?xml version="1.0" encoding="UTF-8" standalone="no"?>
<svg xmlns:xlink="http://www.w3.org/1999/xlink" height="33.55px" width="14.5px" xmlns="http://www.w3.org/2000/svg">
  <g transform="matrix(1.0, 0.0, 0.0, 1.0, 8.4, 16.75)">
    <path d="M-7.45 -3.0 L-7.75 -3.1 -8.05 -3.4 -8.35 -4.65 -8.35 -5.85 -8.4 -6.1 -8.35 -6.45 -8.0 -9.4 -7.9 -10.15 -7.8 -10.75 -7.75 -11.1 -7.75 -11.3 -7.55 -12.5 -7.15 -14.05 -6.95 -14.35 Q-6.7 -15.4 -5.95 -16.05 -5.1 -16.75 -4.05 -16.75 -3.0 -16.75 -2.4 -15.95 -1.95 -15.3 -1.85 -14.5 L-1.75 -12.35 -1.75 -11.85 -1.95 -10.4 -2.25 -7.45 Q-2.3 -7.0 -2.5 -6.6 L-2.6 -6.3 -2.75 -6.1 -2.8 -6.05 -2.5 -10.05 -2.45 -10.8 -2.35 -12.75 -2.3 -13.55 Q-2.15 -15.8 -4.15 -16.45 -7.0 -15.55 -7.2 -12.05 -7.3 -10.35 -7.7 -8.7 L-7.8 -8.25 -8.05 -7.05 -8.05 -5.2 Q-7.95 -4.05 -7.45 -3.0 M5.35 2.05 L5.4 2.05 Q6.0 2.1 6.05 2.8 L6.05 3.2 6.1 6.15 5.95 8.25 5.9 8.85 5.75 11.5 5.7 11.9 5.2 13.95 4.8 14.9 4.55 15.4 4.5 15.5 3.7 16.3 3.55 16.45 3.5 16.45 3.25 16.6 3.2 16.6 2.95 16.75 2.6 16.8 1.25 16.75 0.95 16.65 0.8 16.5 Q-0.35 15.8 -0.7 14.55 L-0.8 13.45 -0.9 12.0 -0.8 11.25 0.1 8.5 0.25 8.2 0.25 8.15 0.15 6.85 Q0.0 6.0 0.15 5.15 L0.25 4.7 0.3 4.55 Q0.35 3.8 0.75 3.3 L0.7 3.7 0.7 4.0 0.65 5.5 0.55 7.75 0.5 8.15 0.3 8.95 0.0 9.75 -0.2 10.7 Q-0.6 12.6 -0.15 14.25 L0.2 15.15 0.3 15.35 0.5 15.65 Q2.7 16.8 3.8 15.6 L4.55 13.95 4.75 13.15 5.25 10.6 5.45 9.2 Q5.85 5.6 5.4 2.2 L5.35 2.05 M4.0 8.2 Q4.5 7.85 4.6 8.35 L4.55 8.5 3.75 9.35 3.45 9.45 1.45 9.2 1.1 8.95 0.95 8.7 0.9 8.6 1.0 8.6 1.15 8.65 3.15 8.55 3.3 8.5 4.0 8.2" fill="#000000" fill-rule="evenodd" stroke="none"/>
    <path d="M3.7 0.6 L3.7 0.65 3.7 0.6" fill="#6666cc" fill-rule="evenodd" stroke="none"/>
    <path d="M-2.8 -6.05 L-2.85 -5.05 Q-3.15 -2.0 -6.0 -1.85 -6.9 -1.8 -7.25 -2.5 L-7.45 -3.0 Q-7.95 -4.05 -8.05 -5.2 L-8.05 -7.05 -7.8 -8.25 -7.7 -8.7 Q-7.3 -10.35 -7.2 -12.05 -7.0 -15.55 -4.15 -16.45 -2.15 -15.8 -2.3 -13.55 L-2.35 -12.75 -2.45 -10.8 -2.5 -10.05 -2.8 -6.05 M0.75 3.3 L0.7 3.1 Q1.45 1.05 3.7 0.6 L3.7 0.65 Q4.5 0.65 5.1 1.15 L5.3 1.65 5.35 2.05 5.4 2.2 Q5.85 5.6 5.45 9.2 L5.25 10.6 4.75 13.15 4.55 13.95 3.8 15.6 Q2.7 16.8 0.5 15.65 L0.3 15.35 0.2 15.15 -0.15 14.25 Q-0.6 12.6 -0.2 10.7 L0.0 9.75 0.3 8.95 0.5 8.15 0.55 7.75 0.65 5.5 0.7 4.0 0.7 3.7 0.75 3.3 M4.0 8.2 L3.3 8.5 3.15 8.55 1.15 8.65 1.0 8.6 0.9 8.6 0.95 8.7 1.1 8.95 1.45 9.2 3.45 9.45 3.75 9.35 4.55 8.5 4.6 8.35 Q4.5 7.85 4.0 8.2" fill="#999999" fill-rule="evenodd" stroke="none"/>
  </g>
</svg>
