<?xml version="1.0" encoding="UTF-8" standalone="no"?>
<svg xmlns:xlink="http://www.w3.org/1999/xlink" height="21.55px" width="15.55px" xmlns="http://www.w3.org/2000/svg">
  <g transform="matrix(1.0, 0.0, 0.0, 1.0, 9.25, 10.4)">
    <path d="M-2.9 -9.35 Q-2.65 -8.15 -2.85 -6.95 L-3.45 -3.45 Q-3.7 -2.3 -4.35 -1.35 L-4.85 -0.85 Q-6.1 0.15 -7.75 -0.45 -8.4 -0.7 -8.7 -1.35 L-9.1 -2.3 -9.25 -4.1 -9.25 -4.3 -9.05 -5.75 Q-8.5 -7.4 -7.45 -8.8 L-6.55 -9.8 Q-6.25 -9.9 -5.95 -10.1 L-5.75 -10.25 -4.95 -10.4 -4.8 -10.4 -4.65 -10.35 Q-3.55 -10.5 -3.0 -9.6 L-2.9 -9.35 M-3.15 -9.55 Q-3.9 -10.25 -4.95 -10.0 L-5.1 -9.95 Q-5.9 -9.75 -6.5 -9.25 L-7.2 -8.45 -8.2 -6.2 -8.55 -5.3 -8.6 -5.05 -8.8 -4.7 Q-8.8 -2.8 -7.95 -1.1 -7.6 -0.4 -6.7 -0.45 -3.85 -0.6 -3.55 -3.65 L-3.15 -9.55 M5.6 2.6 L5.7 2.8 5.75 2.9 5.85 3.05 5.95 3.45 Q6.4 4.95 6.3 6.6 6.2 7.85 5.6 8.85 L5.55 9.0 4.65 10.1 3.75 10.7 2.3 11.15 Q0.85 11.2 0.35 9.9 L0.15 9.0 Q-0.35 6.9 0.3 4.95 L0.9 4.05 0.75 4.55 Q0.6 5.3 0.6 6.3 L0.55 7.25 0.55 7.55 0.65 7.8 0.75 8.75 0.8 9.35 0.95 9.65 1.45 10.25 3.4 10.3 Q4.6 9.8 5.25 8.7 L5.7 7.1 5.9 5.95 5.65 3.05 5.6 2.8 5.6 2.6 M1.65 5.75 L1.85 5.85 2.55 6.2 3.75 6.35 3.8 6.3 Q3.9 6.2 4.05 6.15 L4.1 6.15 4.1 6.2 4.15 6.2 4.15 6.25 3.8 6.6 Q3.65 6.9 3.3 6.95 L2.45 7.15 1.5 6.45 Q1.2 6.0 1.65 5.75" fill="#000000" fill-rule="evenodd" stroke="none"/>
    <path d="M3.95 1.35 L3.95 1.4 3.95 1.35" fill="#6666cc" fill-rule="evenodd" stroke="none"/>
    <path d="M-3.15 -9.55 L-3.55 -3.65 Q-3.85 -0.6 -6.7 -0.45 -7.6 -0.4 -7.95 -1.1 -8.8 -2.8 -8.8 -4.7 L-8.6 -5.05 -8.55 -5.3 -8.2 -6.2 -7.2 -8.45 -6.5 -9.25 Q-5.9 -9.75 -5.1 -9.95 L-4.95 -10.0 Q-3.9 -10.25 -3.15 -9.55 M5.6 2.6 L5.6 2.8 5.65 3.05 5.9 5.95 5.7 7.1 5.25 8.7 Q4.6 9.8 3.4 10.3 L1.45 10.25 0.95 9.65 0.8 9.35 0.75 8.75 0.65 7.8 0.55 7.55 0.55 7.25 0.6 6.3 Q0.6 5.3 0.75 4.55 L0.9 4.05 Q1.6 1.85 3.95 1.35 L3.95 1.4 Q4.75 1.4 5.35 1.9 L5.55 2.4 5.6 2.6 M1.65 5.75 Q1.2 6.0 1.5 6.45 L2.45 7.15 3.3 6.95 Q3.65 6.9 3.8 6.6 L4.15 6.25 4.15 6.2 4.1 6.2 4.1 6.15 4.05 6.15 Q3.9 6.2 3.8 6.3 L3.75 6.35 2.55 6.2 1.85 5.85 1.65 5.75" fill="#999999" fill-rule="evenodd" stroke="none"/>
  </g>
</svg>
