<?xml version="1.0" encoding="UTF-8" standalone="no"?>
<svg xmlns:xlink="http://www.w3.org/1999/xlink" height="94.1px" width="30.1px" xmlns="http://www.w3.org/2000/svg">
  <g transform="matrix(1.0, 0.0, 0.0, 1.0, 9.6, 7.55)">
    <path d="M5.75 -5.3 L6.4 -4.85 6.55 -4.05 7.65 -2.95 7.35 -2.15 Q7.85 -0.6 8.7 0.65 9.2 1.4 9.1 2.45 11.65 5.95 12.05 10.5 L15.15 15.65 Q16.75 18.2 17.2 20.8 L17.75 21.45 17.7 21.75 17.7 21.9 17.7 21.95 19.1 24.55 19.15 24.75 Q20.0 26.5 19.85 28.55 19.75 29.55 19.95 30.55 L20.45 32.45 Q20.65 33.95 19.55 35.05 L19.15 35.55 18.7 36.5 18.5 36.85 18.3 37.4 18.25 37.85 18.1 39.55 18.05 39.7 17.95 40.2 18.0 40.3 Q16.8 42.0 16.25 44.05 15.75 46.05 13.8 47.5 L14.0 49.1 13.2 49.9 12.4 51.15 10.9 54.55 Q10.15 56.65 8.1 57.8 L8.35 58.3 7.1 60.5 7.7 62.5 7.7 64.4 Q8.7 66.9 8.0 69.35 7.6 70.8 6.3 71.35 L6.1 71.3 Q5.7 74.65 7.1 77.8 L10.25 76.55 10.3 77.2 9.9 79.9 Q9.55 81.95 8.0 82.75 L6.1 82.2 4.65 83.3 1.9 82.6 1.55 82.45 0.5 81.85 -3.8 79.8 Q-4.95 82.05 -3.85 84.45 -3.35 85.45 -3.2 86.55 L-4.0 86.3 Q-7.45 84.4 -9.6 80.65 L-8.1 76.95 Q-7.75 76.05 -7.7 75.15 -7.6 73.8 -7.75 72.45 L-7.0 71.3 -4.75 65.5 -4.95 64.85 -4.75 62.7 -3.95 62.45 -3.1 57.2 -2.3 55.75 -0.25 50.85 -0.35 49.95 Q-0.15 46.5 2.2 44.05 L2.95 43.8 3.0 43.1 Q2.9 41.65 3.85 40.35 L4.65 38.85 5.85 35.5 6.1 35.8 6.25 35.8 6.4 35.65 7.1 35.2 7.95 31.15 7.55 30.05 4.55 25.75 4.45 24.65 2.6 22.7 2.0 22.5 1.9 22.0 2.25 21.4 1.1 18.8 1.45 18.1 0.55 16.6 Q-0.9 14.1 -1.35 11.25 L-1.8 11.3 -2.15 10.9 -3.9 7.35 -4.55 6.1 -5.2 4.85 Q-6.1 1.95 -5.95 -1.3 L-5.4 -2.95 -5.55 -4.2 Q-4.2 -5.75 -2.65 -6.95 L-1.8 -7.5 Q1.45 -7.85 4.45 -6.35 L5.1 -5.5 5.5 -5.55 5.75 -5.3 M6.75 -1.5 L6.5 -2.4 6.2 -3.0 5.8 -3.55 5.15 -4.2 4.7 -4.55 2.45 -5.9 2.2 -6.15 1.6 -6.3 -0.25 -6.75 -0.95 -7.0 -1.35 -6.85 -1.55 -6.3 -1.85 -6.1 -2.1 -6.15 -3.95 -4.7 -4.25 -4.45 -4.35 -4.5 Q-5.75 -2.45 -5.25 -0.4 -4.9 0.9 -5.45 2.1 -3.9 6.25 -1.45 10.0 L-0.9 10.15 -0.3 11.0 0.15 11.2 0.25 12.1 0.5 13.4 1.75 16.9 1.65 17.55 2.3 17.95 2.0 18.55 3.35 20.35 3.2 22.2 3.4 22.15 3.5 22.0 3.85 22.0 4.15 22.3 4.35 23.3 5.35 24.05 5.25 24.95 6.95 27.75 Q7.4 28.55 8.4 29.05 L8.7 29.25 9.65 30.15 9.65 30.45 9.75 31.0 9.85 31.15 9.0 31.7 8.3 35.15 10.75 35.3 12.8 36.0 13.25 35.25 13.5 35.05 14.05 35.1 14.3 34.9 15.1 34.3 15.5 34.1 15.75 34.05 16.5 34.4 15.95 35.4 15.85 35.5 15.9 35.55 Q16.45 35.6 16.95 36.15 L17.05 36.4 Q16.7 36.75 17.2 36.9 L17.35 36.9 17.6 37.2 17.75 37.65 17.95 36.55 18.5 35.45 17.55 34.4 18.25 34.05 18.55 33.7 18.6 33.7 19.1 33.7 19.35 33.55 19.5 33.45 19.6 33.25 19.6 33.1 19.15 32.7 18.9 32.4 18.85 32.35 18.9 32.1 18.9 31.95 18.9 31.9 Q19.5 31.15 18.7 30.65 L18.55 30.4 19.1 30.0 Q19.65 28.8 18.6 28.3 L18.7 27.9 Q19.15 27.4 19.1 26.65 19.0 25.5 18.05 25.1 L18.05 25.05 18.25 24.15 Q18.15 23.35 17.55 23.1 L17.55 23.05 Q17.8 21.95 16.85 21.65 L16.6 21.7 16.2 21.1 16.25 20.7 16.05 20.45 15.85 20.0 15.9 19.2 15.7 18.35 15.6 17.5 15.4 17.1 14.85 16.95 14.75 16.85 Q14.95 16.35 14.55 16.15 L14.5 15.9 Q14.1 14.55 12.95 13.75 13.25 12.8 12.55 11.9 L12.2 11.45 11.45 10.3 Q11.0 9.35 10.2 10.05 L10.25 9.9 Q10.55 9.75 10.4 9.45 L10.4 9.25 10.3 9.35 10.35 9.15 10.35 8.95 10.4 7.9 10.25 7.2 9.75 5.6 9.85 5.55 9.8 5.2 9.55 5.2 8.85 4.0 8.8 3.95 8.55 3.85 9.4 3.8 8.0 3.35 8.5 2.65 8.6 2.2 8.3 1.5 7.6 1.25 7.65 1.05 7.6 0.75 7.35 0.45 7.15 -0.1 Q7.55 -0.3 7.2 -0.75 L6.8 -1.1 6.75 -1.5 M3.8 -3.6 L3.9 -3.3 3.8 -3.25 Q3.65 -3.25 3.6 -3.35 L3.5 -3.35 3.8 -3.6 M3.3 -0.4 L4.1 -0.95 3.8 -0.55 3.8 -0.4 Q3.65 0.35 3.3 -0.4 M4.55 3.35 L4.6 3.45 4.5 3.45 4.55 3.35 M5.7 5.35 L5.85 5.35 6.0 5.55 5.7 5.35 M5.9 7.25 L6.35 7.15 6.3 7.35 Q6.05 8.15 5.9 7.25 M7.2 7.05 L7.5 7.3 6.9 7.7 7.2 7.05 M8.55 7.6 L8.65 7.95 8.6 8.3 8.75 8.55 8.35 7.9 8.55 7.6 M11.9 17.8 L11.95 17.8 12.0 17.85 12.0 18.1 11.75 17.85 11.9 17.8 M12.9 18.6 L13.15 18.6 13.15 18.7 13.0 18.7 12.9 18.6 M13.15 20.35 L13.35 20.7 13.0 20.8 Q12.3 20.8 13.15 20.35 M13.8 20.85 Q14.6 20.45 14.25 21.3 L14.2 21.65 13.8 21.25 13.8 20.85 M17.0 24.45 L17.2 25.0 17.1 25.1 17.45 25.55 Q17.3 25.9 17.4 26.35 L17.05 27.1 16.2 27.15 15.85 26.85 16.4 25.4 16.45 25.05 17.0 24.45 M17.4 27.0 Q17.25 28.0 18.3 28.15 L18.35 28.2 Q17.9 28.25 17.9 28.7 L17.6 28.95 17.9 28.85 17.85 29.2 Q17.6 29.75 18.0 30.1 L17.6 30.05 Q17.1 30.3 17.05 30.85 L16.8 30.65 16.65 30.5 16.65 29.3 17.1 28.95 16.7 28.8 16.65 27.65 Q16.95 27.15 17.4 27.0 M5.5 1.9 L5.5 1.95 5.45 1.9 5.45 1.85 5.5 1.9 M7.9 5.45 L7.75 5.45 7.85 5.3 7.9 5.45 M10.3 7.3 L10.5 8.2 10.65 7.75 Q11.0 6.75 10.3 7.3 M8.85 13.85 L8.8 14.0 8.55 13.95 8.4 13.65 8.85 13.85 M11.15 9.8 L11.1 9.8 11.15 9.85 11.15 9.8 M13.3 17.15 L13.35 17.25 13.3 17.25 13.25 17.2 13.3 17.15 M12.45 30.95 Q12.95 31.15 12.35 31.3 L12.2 31.45 12.45 30.95 M11.65 31.85 L11.6 32.0 11.25 32.0 11.2 31.8 Q11.65 31.1 11.65 31.85 M14.25 23.4 Q14.2 22.35 15.1 23.4 L15.35 23.75 15.5 24.25 15.8 24.45 Q14.9 24.8 15.2 23.95 15.35 23.55 14.85 23.5 L14.8 23.5 14.25 23.4 M15.05 25.85 L15.6 25.75 14.9 26.0 15.05 25.85 M14.85 27.5 L15.3 27.6 15.25 27.8 14.95 27.8 14.8 27.95 14.85 27.5 M13.2 31.35 L13.45 31.2 13.1 32.1 12.95 32.2 13.15 31.65 13.2 31.35 M14.1 31.5 L14.35 32.25 13.65 31.45 14.1 31.5 M15.4 32.4 L15.2 32.15 15.55 32.35 15.4 32.4 M14.05 37.15 Q10.2 35.45 6.1 36.9 L6.0 38.55 6.05 38.55 5.75 38.8 Q5.4 39.15 5.5 39.65 L5.15 39.7 Q3.85 41.0 3.95 42.7 L3.8 42.85 3.0 44.45 2.9 45.0 Q1.15 46.2 0.7 48.7 L0.6 50.05 1.55 50.05 0.75 50.05 0.6 50.8 0.35 50.8 0.3 51.0 0.55 51.05 0.4 51.55 0.35 51.5 -0.15 53.3 -0.65 54.6 -1.0 55.65 -1.05 55.6 Q-2.6 57.6 -2.95 59.95 L-3.2 61.6 -3.05 61.65 -3.2 62.5 -4.05 64.05 Q-1.7 68.5 3.2 69.6 L3.55 69.65 6.7 69.85 Q7.5 68.6 7.25 67.2 L6.7 64.45 6.75 64.55 6.7 64.25 6.5 63.45 7.2 63.4 Q7.1 62.2 6.2 61.15 L6.15 61.1 Q6.1 60.45 6.2 59.8 L6.75 58.65 6.8 58.6 7.85 57.15 9.9 54.4 9.85 54.35 10.55 52.95 11.65 51.85 11.6 50.5 11.6 50.45 12.85 49.4 13.2 48.3 13.6 47.1 13.65 46.75 Q16.15 44.55 16.4 41.25 L16.05 40.55 17.0 39.8 16.85 39.45 Q16.2 38.25 14.75 37.5 L14.05 37.15 M13.5 34.45 Q13.65 33.75 14.15 34.65 L13.55 34.75 13.5 34.45 M14.05 35.1 Q13.4 35.2 13.4 36.0 L13.5 36.25 14.2 36.3 13.9 35.85 14.05 35.1 M15.6 29.25 L15.65 29.35 15.6 29.35 15.6 29.25 M16.25 29.4 L16.2 29.5 16.15 29.45 16.25 29.4 M11.05 49.7 L11.3 50.35 11.4 50.5 11.0 49.8 11.3 50.3 11.05 49.7 M4.15 80.1 Q5.75 79.8 6.85 81.1 L7.45 81.65 8.1 81.65 9.55 77.75 Q8.25 78.8 6.6 78.65 L5.45 74.9 5.45 74.7 5.4 74.0 5.35 73.3 5.3 72.2 5.25 71.65 5.25 71.1 4.4 71.05 4.1 71.0 3.35 70.9 2.9 70.8 1.95 70.5 1.75 70.1 1.15 69.95 1.05 70.0 1.0 70.0 1.0 70.05 Q0.35 70.6 0.55 69.95 L0.55 69.65 -0.55 69.05 -0.95 68.7 -1.05 68.65 -1.05 68.7 -1.2 68.75 -1.8 68.8 Q-1.45 67.95 -2.5 68.1 L-2.8 68.35 -3.25 68.35 Q-3.85 68.0 -3.35 67.55 L-2.9 67.25 -4.0 65.65 -4.1 65.6 -4.15 65.7 -4.65 67.2 -5.75 70.25 -5.6 70.75 -6.7 72.2 Q-6.4 73.8 -6.9 75.4 L-8.6 80.25 -6.4 83.4 -4.55 85.3 -4.95 82.1 Q-5.05 80.85 -4.4 79.65 L-4.4 76.95 -4.1 77.05 -3.7 79.15 -3.6 79.15 -2.35 79.5 -1.55 78.6 -1.5 78.6 -1.1 79.1 -1.1 79.2 -1.8 79.15 Q-2.15 80.35 -0.8 80.2 L0.45 80.5 2.85 82.25 3.85 82.45 5.45 81.65 4.15 80.1 M3.75 21.1 Q4.2 21.3 3.9 21.75 L3.5 21.9 3.55 21.45 3.75 21.1 M-0.2 62.65 L-0.55 62.8 -0.4 62.6 -0.2 62.65 M-2.85 69.15 L-1.85 68.85 -3.3 69.5 -2.85 69.15 M-1.5 69.6 Q-1.5 70.05 -1.95 70.4 L-2.55 70.65 -1.95 70.1 Q-2.15 69.3 -1.5 69.6 M0.45 70.5 L0.45 70.45 0.5 70.5 0.45 70.5" fill="#000000" fill-rule="evenodd" stroke="none"/>
    <path d="M5.8 -3.55 L6.2 -3.0 6.5 -2.4 6.75 -1.5 6.7 -1.3 6.8 -1.1 7.2 -0.75 Q7.55 -0.3 7.15 -0.1 L5.85 0.25 5.75 0.35 6.4 0.55 7.35 0.45 7.6 0.75 7.65 1.05 7.6 1.25 8.3 1.5 8.6 2.2 8.5 2.65 8.0 3.35 9.4 3.8 8.55 3.85 8.8 3.95 8.85 4.0 9.55 5.2 9.8 5.2 9.85 5.55 9.75 5.6 10.25 7.2 10.4 7.9 10.35 8.95 10.35 9.15 10.3 9.35 10.4 9.25 10.4 9.45 Q10.55 9.75 10.25 9.9 L10.2 10.05 Q11.0 9.35 11.45 10.3 L12.2 11.45 12.55 11.9 Q13.25 12.8 12.95 13.75 14.1 14.55 14.5 15.9 L14.55 16.15 Q14.95 16.35 14.75 16.85 L14.75 16.95 14.85 16.95 15.4 17.1 15.6 17.5 15.05 18.15 15.7 18.35 15.9 19.2 14.75 19.6 14.85 20.1 15.05 20.15 15.2 20.3 15.65 20.1 15.8 20.05 15.85 20.0 16.05 20.45 16.25 20.7 16.2 21.1 16.6 21.7 16.85 21.65 Q17.8 21.95 17.55 23.05 L17.55 23.1 Q18.15 23.35 18.25 24.15 L18.05 25.05 17.9 25.1 18.05 25.1 Q19.0 25.5 19.1 26.65 19.15 27.4 18.7 27.9 L18.6 28.3 Q19.65 28.8 19.1 30.0 L18.55 30.4 18.7 30.65 Q19.5 31.15 18.9 31.9 L18.9 31.95 18.7 32.05 18.25 32.0 17.5 31.95 Q17.0 31.7 17.0 31.1 L17.05 30.85 Q17.1 30.3 17.6 30.05 L18.0 30.1 Q17.6 29.75 17.85 29.2 L17.9 28.85 17.6 28.95 17.9 28.7 Q17.9 28.25 18.35 28.2 L18.3 28.15 Q17.25 28.0 17.4 27.0 L17.4 26.45 17.4 26.35 Q17.3 25.9 17.45 25.55 L17.75 25.15 17.4 25.2 17.2 25.05 17.2 25.0 17.0 24.45 16.95 24.4 16.75 24.6 Q15.6 24.85 15.85 23.7 L15.9 23.35 15.85 23.3 15.95 22.85 15.35 22.95 Q14.75 22.55 15.45 22.2 L16.2 22.15 16.1 22.0 14.2 21.65 14.25 21.3 Q14.6 20.45 13.8 20.85 L13.35 20.7 13.15 20.35 13.1 19.8 13.4 19.4 13.15 18.7 13.15 18.6 12.9 18.6 12.0 18.1 12.0 17.85 11.95 17.8 11.9 17.8 11.5 17.25 10.65 17.45 10.25 16.7 9.55 15.85 10.05 14.95 11.2 13.65 Q11.05 12.8 10.45 13.2 L10.7 14.05 Q10.25 14.8 9.55 14.2 L9.65 13.35 9.2 12.65 8.35 12.75 7.8 12.45 7.05 12.65 6.7 11.95 7.15 11.2 7.75 11.25 8.05 10.8 8.95 10.25 9.5 10.25 8.75 9.95 8.0 10.25 7.85 10.55 7.4 9.55 7.05 9.2 7.6 9.3 7.65 9.0 7.4 8.95 6.9 8.9 6.75 8.65 Q6.6 8.0 7.25 7.6 L8.35 7.9 8.75 8.55 8.6 8.3 8.65 7.95 8.55 7.6 8.55 7.55 8.65 7.45 8.75 7.0 7.5 7.3 7.2 7.05 7.1 6.75 Q6.6 6.25 6.35 7.15 L5.9 7.25 5.45 6.2 6.2 5.7 6.65 5.75 6.0 5.55 5.85 5.35 5.7 5.35 5.55 5.35 Q5.5 5.1 5.6 4.9 L4.55 4.1 4.0 4.35 3.8 4.3 4.5 3.45 4.6 3.45 4.55 3.35 4.65 2.25 4.15 1.7 4.5 1.35 4.95 1.4 5.2 0.75 4.95 0.75 Q4.65 0.65 4.4 1.3 3.65 1.4 3.65 0.6 L4.45 0.1 4.45 0.05 Q3.9 -0.6 4.6 -0.85 L4.65 -0.85 Q4.75 -1.45 4.1 -0.95 L3.3 -0.4 2.95 -0.4 2.8 -0.6 2.7 -1.15 4.0 -1.75 3.4 -1.95 3.1 -2.25 1.55 -2.45 3.25 -3.75 3.5 -3.35 3.6 -3.35 Q3.65 -3.25 3.8 -3.25 L3.95 -3.25 3.9 -3.3 3.8 -3.6 3.8 -4.0 Q3.9 -4.75 4.7 -4.55 L5.15 -4.2 5.15 -3.95 Q5.05 -3.5 5.8 -3.55 M5.5 1.9 L5.45 1.85 5.45 1.9 5.5 1.95 Q5.8 2.3 5.9 2.15 6.3 1.55 5.5 1.9 M7.9 5.45 L8.05 5.35 Q8.85 5.45 8.45 5.1 L8.15 5.15 7.85 5.3 7.75 5.45 7.9 5.45 M6.5 3.6 L6.55 3.6 6.55 3.55 6.5 3.6 M5.9 3.6 L5.55 3.4 5.15 3.65 5.3 3.95 Q5.5 3.75 5.9 4.25 6.4 4.9 6.2 4.15 L6.15 3.8 5.9 3.6 M5.8 8.1 Q5.9 7.95 6.1 7.95 L6.45 8.1 6.55 8.4 6.45 8.75 6.1 8.85 5.8 8.75 5.65 8.4 5.8 8.1 M10.3 7.3 Q11.0 6.75 10.65 7.75 L10.5 8.2 10.3 7.3 M9.45 9.2 L9.3 8.85 9.2 9.35 9.55 9.65 9.45 9.2 M9.75 11.4 L9.75 11.45 9.65 11.9 10.4 11.4 9.9 11.0 Q9.7 11.0 9.7 11.1 L9.75 11.4 M9.8 10.25 L9.7 10.3 9.8 10.4 9.8 10.25 M6.15 9.25 L5.35 9.9 Q5.15 9.0 6.2 9.1 L6.2 9.05 6.6 9.25 6.15 9.25 M8.8 14.0 L8.85 13.85 9.25 14.65 10.05 14.95 9.25 15.0 8.8 14.0 M11.15 9.8 L11.15 9.85 11.1 9.8 11.15 9.8 M12.2 13.6 L12.3 13.8 12.35 13.8 12.2 13.6 M13.25 17.2 L13.3 17.25 13.35 17.25 13.3 17.15 13.25 17.05 13.25 17.2 M12.1 18.85 L12.5 19.05 12.65 19.45 12.5 19.9 12.1 20.05 11.7 19.9 11.55 19.45 Q11.55 19.2 11.7 19.05 11.85 18.85 12.1 18.85 M14.3 34.9 Q14.3 34.55 14.65 34.35 L15.5 34.1 15.1 34.3 14.3 34.9 M19.35 33.55 L19.6 33.25 19.5 33.45 19.35 33.55 M14.8 23.5 L14.9 24.0 Q14.8 24.9 14.0 25.05 L13.8 24.85 Q13.45 23.8 14.25 23.4 L14.8 23.5 M13.85 21.7 L13.4 22.85 12.7 22.85 12.35 22.5 12.3 22.05 Q12.3 21.8 12.45 21.6 L12.8 21.4 13.85 21.7 M14.05 35.1 L13.9 35.85 14.2 36.3 13.5 36.25 13.4 36.0 Q13.4 35.2 14.05 35.1 M16.25 29.4 L16.3 29.4 16.25 29.4 M16.85 32.6 Q17.9 32.75 17.35 33.8 L17.2 34.0 Q15.95 34.1 16.45 33.0 L16.85 32.6 M5.4 74.0 L4.4 74.45 2.8 73.15 2.05 72.8 2.6 72.25 2.45 72.0 2.0 72.45 1.1 71.8 1.15 71.6 1.25 71.25 0.9 71.05 0.5 70.5 0.45 70.45 0.45 70.5 0.1 70.75 -1.0 70.45 Q-1.5 70.1 -1.5 69.6 -2.15 69.3 -1.95 70.1 L-2.55 70.65 -2.6 70.65 -2.75 70.65 -3.1 70.7 -3.3 70.65 Q-4.1 70.1 -3.3 69.5 L-1.85 68.85 -1.8 68.8 -1.2 68.75 -0.55 69.05 0.55 69.65 0.55 69.95 Q0.35 70.6 1.0 70.05 L1.0 70.0 1.05 70.0 1.15 69.95 1.75 70.1 1.95 70.5 1.95 70.7 Q2.25 71.3 2.9 70.8 L3.35 70.9 3.7 71.0 4.1 71.0 4.4 71.05 5.25 71.65 5.3 72.2 4.55 72.85 5.35 73.3 5.4 74.0 M2.8 77.4 L3.45 78.35 4.2 78.6 4.35 78.85 Q4.7 79.5 4.15 80.1 L3.4 80.1 3.3 80.2 Q2.25 79.8 1.9 80.7 L0.65 80.45 2.25 79.0 2.65 78.15 2.45 77.5 2.35 77.4 Q2.6 76.65 2.8 77.4 M-1.1 79.1 L-1.5 78.6 -1.55 78.55 -1.25 78.6 -1.1 79.1 M-3.25 68.35 L-2.8 68.35 -2.7 68.6 Q-2.65 68.9 -2.9 69.15 L-3.5 68.8 -3.25 68.35 M2.45 -5.9 L2.55 -5.45 3.8 -4.9 3.5 -4.15 2.4 -4.4 1.95 -3.9 1.7 -3.9 1.45 -3.9 1.5 -3.8 1.35 -3.5 Q1.15 -3.3 0.9 -3.65 L0.9 -3.75 1.4 -4.95 1.1 -5.35 1.6 -6.3 2.2 -6.15 2.45 -5.9 M-2.65 -4.15 L-2.45 -4.05 -2.35 -3.8 -2.45 -3.55 Q-2.55 -3.45 -2.65 -3.45 -2.75 -3.45 -2.85 -3.55 L-2.95 -3.8 -2.85 -4.05 -2.65 -4.15 M0.8 -6.3 L1.0 -5.8 0.8 -5.25 0.25 -5.05 -0.25 -5.25 -0.5 -5.8 -0.25 -6.3 0.25 -6.55 0.8 -6.3 M-0.9 -4.15 L-1.1 -4.1 -1.25 -4.15 -1.35 -4.3 -1.25 -4.45 -1.1 -4.5 -0.9 -4.45 -0.85 -4.3 -0.9 -4.15 M-1.35 -5.7 Q-1.15 -5.7 -1.0 -5.55 L-0.9 -5.2 -1.0 -4.85 Q-1.15 -4.7 -1.35 -4.7 -1.55 -4.7 -1.65 -4.85 L-1.8 -5.2 -1.65 -5.55 -1.35 -5.7 M-3.9 -3.55 L-3.5 -3.55 -3.5 -3.1 -3.9 -3.1 -3.9 -3.55 M4.35 -2.4 L4.5 -2.55 Q4.4 -3.55 4.35 -2.4 M4.5 9.0 L4.7 9.0 4.6 9.2 4.5 9.0 M4.45 9.6 L4.35 9.85 4.0 9.95 3.7 9.85 3.55 9.6 3.7 9.35 Q3.8 9.25 4.0 9.25 L4.35 9.35 4.45 9.6 M5.2 11.5 L5.0 10.9 Q5.0 10.6 5.1 10.75 L5.2 11.5 M1.55 76.55 Q1.55 76.4 1.7 76.3 1.8 76.15 1.95 76.15 L2.25 76.3 2.35 76.55 2.25 76.85 1.95 76.95 1.7 76.85 1.55 76.55" fill="#754d00" fill-rule="evenodd" stroke="none"/>
    <path d="M5.8 -3.55 Q5.05 -3.5 5.15 -3.95 L5.15 -4.2 5.8 -3.55 M4.7 -4.55 Q3.9 -4.75 3.8 -4.0 L3.8 -3.6 3.5 -3.35 3.25 -3.75 1.55 -2.45 3.1 -2.25 3.4 -1.95 4.0 -1.75 2.7 -1.15 2.8 -0.6 2.95 -0.4 3.3 -0.4 Q3.65 0.35 3.8 -0.4 L3.8 -0.55 4.1 -0.95 Q4.75 -1.45 4.65 -0.85 L4.6 -0.85 Q3.9 -0.6 4.45 0.05 L4.45 0.1 3.65 0.6 Q3.65 1.4 4.4 1.3 4.65 0.65 4.95 0.75 L5.2 0.75 4.95 1.4 4.5 1.35 4.15 1.7 4.65 2.25 4.55 3.35 4.5 3.45 3.8 4.3 4.0 4.35 4.55 4.1 5.6 4.9 Q5.5 5.1 5.55 5.35 L5.7 5.35 6.0 5.55 6.65 5.75 6.2 5.7 5.45 6.2 5.9 7.25 Q6.05 8.15 6.3 7.35 L6.35 7.15 Q6.6 6.25 7.1 6.75 L7.2 7.05 6.9 7.7 7.5 7.3 8.75 7.0 8.65 7.45 8.55 7.55 8.55 7.6 8.35 7.9 7.25 7.6 Q6.6 8.0 6.75 8.65 L6.9 8.9 7.4 8.95 7.65 9.0 7.6 9.3 7.05 9.2 7.4 9.55 7.85 10.55 8.0 10.25 8.75 9.95 9.5 10.25 8.95 10.25 8.05 10.8 7.75 11.25 7.15 11.2 6.7 11.95 7.05 12.65 7.8 12.45 8.35 12.75 9.2 12.65 9.65 13.35 9.55 14.2 Q10.25 14.8 10.7 14.05 L10.45 13.2 Q11.05 12.8 11.2 13.65 L10.05 14.95 9.55 15.85 10.25 16.7 10.65 17.45 11.5 17.25 11.9 17.8 11.75 17.85 12.0 18.1 12.9 18.6 13.0 18.7 13.15 18.7 13.4 19.4 13.1 19.8 13.15 20.35 Q12.3 20.8 13.0 20.8 L13.35 20.7 13.8 20.85 13.8 21.25 14.2 21.65 16.1 22.0 16.2 22.15 15.45 22.2 Q14.75 22.55 15.35 22.95 L15.95 22.85 15.85 23.3 15.9 23.35 15.85 23.7 Q15.6 24.85 16.75 24.6 L16.95 24.4 17.0 24.45 16.45 25.05 16.4 25.4 15.85 26.85 16.2 27.15 17.05 27.1 17.4 26.35 17.4 26.45 17.4 27.0 Q16.95 27.15 16.65 27.65 L16.7 28.8 17.1 28.95 16.65 29.3 16.65 30.5 16.8 30.65 17.05 30.85 17.0 31.1 Q17.0 31.7 17.5 31.95 L18.25 32.0 18.7 32.05 18.9 31.95 18.9 32.1 18.85 32.35 18.9 32.4 19.15 32.7 19.6 33.1 19.6 33.25 19.35 33.55 19.1 33.7 18.6 33.7 18.55 33.7 18.25 34.05 17.55 34.4 18.5 35.45 17.95 36.55 17.75 37.65 17.6 37.2 17.35 36.9 17.2 36.9 Q16.7 36.75 17.05 36.4 L16.95 36.15 Q16.45 35.6 15.9 35.55 L15.85 35.5 15.95 35.4 16.5 34.4 15.75 34.05 15.5 34.1 14.65 34.35 Q14.3 34.55 14.3 34.9 L14.05 35.1 13.5 35.05 13.25 35.25 12.8 36.0 10.75 35.3 10.6 34.85 Q10.15 33.2 11.25 32.0 L11.6 32.0 11.65 31.85 11.8 31.8 12.2 31.45 12.35 31.3 Q12.95 31.15 12.45 30.95 L11.45 30.85 10.95 30.5 10.25 30.9 9.95 31.25 9.85 31.15 9.75 31.0 9.65 30.45 9.65 30.15 9.4 29.55 Q9.1 29.25 8.7 29.25 L8.4 29.05 Q8.15 28.5 8.65 28.3 L9.25 28.35 Q10.0 28.15 10.0 28.85 L10.35 28.2 9.3 27.85 9.4 27.1 Q10.05 27.0 9.8 26.2 10.45 25.6 10.75 26.4 L10.8 26.6 10.4 27.25 Q10.75 27.0 10.95 27.0 L10.95 26.85 11.1 26.15 10.8 25.0 10.1 25.75 9.8 24.55 10.55 25.0 10.95 24.25 10.4 23.9 10.55 23.35 9.85 23.35 9.7 23.0 10.6 21.6 10.5 21.1 9.85 20.65 9.45 18.9 8.3 19.1 8.65 18.05 8.8 17.6 8.8 17.3 8.65 17.15 8.45 16.95 8.0 16.9 7.8 17.05 7.7 17.15 7.7 17.2 Q7.35 16.55 7.9 15.85 L7.5 15.5 7.3 14.95 6.45 14.55 5.25 15.7 Q4.7 15.85 5.5 15.3 6.35 14.15 5.05 13.45 L4.6 13.6 4.5 13.45 5.2 11.95 4.65 12.6 4.0 12.2 3.1 11.85 Q2.9 11.25 2.75 11.85 L2.25 11.95 2.25 10.5 Q1.7 9.95 1.85 10.7 L1.85 10.95 1.5 11.5 2.15 12.25 1.8 13.25 Q1.35 13.9 0.5 13.4 L0.25 12.1 0.4 11.85 Q0.65 11.55 0.15 11.2 L0.3 10.35 0.8 9.95 0.65 8.75 1.35 8.05 2.95 8.0 2.15 7.25 1.35 7.15 1.2 6.05 2.4 5.65 2.75 4.9 2.5 5.0 2.05 5.1 1.85 5.1 1.9 4.95 1.9 4.75 2.4 3.85 2.15 3.6 1.85 3.55 1.7 3.65 1.6 3.7 0.7 3.35 0.7 2.1 0.25 1.75 -0.2 1.85 0.0 1.4 -0.05 0.95 -0.6 0.65 -0.25 0.45 -0.15 0.1 -0.2 -0.2 -0.35 -0.3 -0.65 -0.45 -0.85 -0.4 -0.8 -0.7 -1.15 -0.85 -1.6 -1.05 Q-1.45 -1.25 -1.45 -1.55 L-1.65 -2.05 -2.15 -2.3 -2.65 -2.05 -2.85 -1.55 -2.65 -1.0 -2.15 -0.8 -1.75 -0.9 -1.85 -0.8 -2.0 0.05 -1.65 0.2 -1.4 0.45 -1.5 0.55 -2.55 0.2 -2.15 -0.5 -2.9 -0.9 -2.85 -2.25 -3.95 -4.7 -2.1 -6.15 -1.85 -6.1 -1.55 -6.3 -1.35 -6.85 -0.95 -7.0 -0.25 -6.75 1.6 -6.3 1.1 -5.35 1.4 -4.95 0.9 -3.75 0.9 -3.65 Q1.15 -3.3 1.35 -3.5 L1.5 -3.8 1.45 -3.9 1.7 -3.9 1.95 -3.9 2.4 -4.4 3.5 -4.15 3.8 -4.9 2.55 -5.45 2.45 -5.9 4.7 -4.55 M3.9 -3.3 L3.95 -3.25 3.8 -3.25 3.9 -3.3 M17.2 25.0 L17.2 25.05 17.4 25.2 17.75 25.15 17.45 25.55 17.1 25.1 17.2 25.0 M18.05 25.1 L17.9 25.1 18.05 25.05 18.05 25.1 M15.85 20.0 L15.8 20.05 15.65 20.1 15.2 20.3 15.05 20.15 14.85 20.1 14.75 19.6 15.9 19.2 15.85 20.0 M15.7 18.35 L15.05 18.15 15.6 17.5 15.7 18.35 M14.85 16.95 L14.75 16.95 14.75 16.85 14.85 16.95 M7.35 0.45 L6.4 0.55 5.75 0.35 5.85 0.25 7.15 -0.1 7.35 0.45 M6.8 -1.1 L6.7 -1.3 6.75 -1.5 6.8 -1.1 M5.5 1.95 L5.5 1.9 Q6.3 1.55 5.9 2.15 5.8 2.3 5.5 1.95 M7.85 5.3 L8.15 5.15 8.45 5.1 Q8.85 5.45 8.05 5.35 L7.9 5.45 7.85 5.3 M5.9 3.6 L6.15 3.8 6.2 4.15 Q6.4 4.9 5.9 4.25 5.5 3.75 5.3 3.95 L5.15 3.65 5.55 3.4 5.9 3.6 M6.5 3.6 L6.55 3.55 6.55 3.6 6.5 3.6 M5.8 8.1 L5.65 8.4 5.8 8.75 6.1 8.85 6.45 8.75 6.55 8.4 6.45 8.1 6.1 7.95 Q5.9 7.95 5.8 8.1 M9.45 9.2 L9.55 9.65 9.2 9.35 9.3 8.85 9.45 9.2 M9.75 11.4 L9.7 11.1 Q9.7 11.0 9.9 11.0 L10.4 11.4 9.65 11.9 9.75 11.45 9.75 11.4 M9.8 10.25 L9.8 10.4 9.7 10.3 9.8 10.25 M6.15 9.25 L6.6 9.25 6.2 9.05 6.2 9.1 Q5.15 9.0 5.35 9.9 L6.15 9.25 M8.85 13.85 L8.4 13.65 8.55 13.95 8.8 14.0 9.25 15.0 10.05 14.95 9.25 14.65 8.85 13.85 M12.2 13.6 L12.35 13.8 12.3 13.8 12.2 13.6 M13.3 17.15 L13.25 17.2 13.25 17.05 13.3 17.15 M12.1 18.85 Q11.85 18.85 11.7 19.05 11.55 19.2 11.55 19.45 L11.7 19.9 12.1 20.05 12.5 19.9 12.65 19.45 12.5 19.05 12.1 18.85 M6.25 17.3 Q6.6 17.3 6.85 17.55 L7.1 18.15 6.85 18.75 6.25 19.0 5.65 18.75 5.4 18.15 5.65 17.55 Q5.9 17.3 6.25 17.3 M2.8 14.4 L2.7 14.1 2.85 13.75 2.95 13.7 2.85 13.8 2.8 13.95 2.8 14.3 2.8 14.4 M5.7 19.95 L6.15 20.15 6.3 20.65 6.15 21.15 5.7 21.35 Q5.45 21.35 5.3 21.15 L5.1 20.65 5.3 20.15 Q5.45 19.95 5.7 19.95 M8.3 24.75 Q8.45 24.6 8.7 24.6 L9.1 24.75 9.25 25.15 9.1 25.55 8.7 25.7 8.3 25.55 8.15 25.15 Q8.15 24.9 8.3 24.75 M7.9 25.45 L7.75 25.85 7.35 26.0 6.95 25.85 6.8 25.45 Q6.8 25.2 6.95 25.05 7.1 24.9 7.35 24.9 L7.75 25.05 7.9 25.45 M6.75 22.15 L6.85 22.35 6.75 22.55 6.55 22.65 6.35 22.55 6.25 22.35 6.35 22.15 6.55 22.05 6.75 22.15 M14.8 23.5 L14.85 23.5 Q15.35 23.55 15.2 23.95 14.9 24.8 15.8 24.45 L15.5 24.25 15.35 23.75 15.1 23.4 Q14.2 22.35 14.25 23.4 13.45 23.8 13.8 24.85 L14.0 25.05 Q14.8 24.9 14.9 24.0 L14.8 23.5 M13.85 21.7 L12.8 21.4 12.45 21.6 Q12.3 21.8 12.3 22.05 L12.35 22.5 12.7 22.85 13.4 22.85 13.85 21.7 M11.8 25.35 L11.95 25.55 Q12.35 25.35 11.8 25.35 M15.05 25.85 L14.9 26.0 15.6 25.75 15.05 25.85 M14.85 27.5 L14.8 27.95 14.95 27.8 15.25 27.8 15.3 27.6 14.85 27.5 M11.85 27.15 L11.75 27.25 Q11.85 28.0 11.85 27.15 M14.1 31.5 L13.65 31.45 14.35 32.25 14.1 31.5 M13.2 31.35 L13.15 31.65 12.95 32.2 13.1 32.1 13.45 31.2 13.2 31.35 M15.4 32.4 L15.55 32.35 15.2 32.15 15.4 32.4 M8.4 27.15 L8.6 27.65 8.4 28.15 7.95 28.35 Q7.7 28.35 7.5 28.15 L7.3 27.65 7.5 27.15 7.95 26.95 8.4 27.15 M13.5 34.45 L13.55 34.75 14.15 34.65 Q13.65 33.75 13.5 34.45 M16.25 29.4 L16.3 29.4 16.25 29.4 16.15 29.45 16.2 29.5 16.25 29.4 M15.6 29.25 L15.6 29.35 15.65 29.35 15.6 29.25 M16.85 32.6 L16.45 33.0 Q15.95 34.1 17.2 34.0 L17.35 33.8 Q17.9 32.75 16.85 32.6 M5.45 74.9 L6.6 78.65 Q8.25 78.8 9.55 77.75 L8.1 81.65 7.45 81.65 6.85 81.1 Q5.75 79.8 4.15 80.1 4.7 79.5 4.35 78.85 L4.2 78.6 3.45 78.35 2.8 77.4 4.0 76.35 4.15 75.35 2.95 74.45 Q2.2 74.8 1.45 75.1 L2.2 73.45 1.9 72.9 1.15 72.45 0.35 72.75 -0.05 71.6 0.8 72.2 1.1 71.8 2.0 72.45 2.45 72.0 2.6 72.25 2.05 72.8 2.8 73.15 4.4 74.45 5.4 74.0 5.45 74.7 5.4 74.85 5.45 74.9 M4.15 80.1 L5.45 81.65 3.85 82.45 1.9 80.7 Q2.25 79.8 3.3 80.2 L3.4 80.1 4.15 80.1 M0.45 80.5 L-0.8 80.2 -1.1 79.2 -1.1 79.1 -1.25 78.6 -1.05 78.45 Q0.4 78.8 1.05 77.5 0.95 76.55 1.3 76.95 L1.6 77.35 2.45 77.5 2.65 78.15 2.25 79.0 0.65 80.45 0.45 80.5 M-1.55 78.6 L-2.35 79.5 -3.2 79.05 -3.3 79.05 -3.6 79.15 -3.7 79.15 -4.1 77.05 -4.05 76.85 Q-3.85 77.4 -3.2 77.45 L-2.15 76.55 -2.05 75.8 -1.65 76.2 -1.55 78.55 -1.55 78.6 M-4.4 76.95 L-4.4 79.65 Q-5.05 80.85 -4.95 82.1 L-4.55 85.3 -6.4 83.4 -6.3 81.2 Q-6.05 78.75 -4.4 76.95 M-4.65 67.2 L-4.15 65.7 -4.0 65.65 -2.9 67.25 -3.35 67.55 Q-3.85 68.0 -3.25 68.35 L-3.5 68.8 -4.65 67.2 M-2.8 68.35 L-2.5 68.1 Q-1.45 67.95 -1.8 68.8 L-1.85 68.85 -2.85 69.15 -2.9 69.15 Q-2.65 68.9 -2.7 68.6 L-2.8 68.35 M-1.2 68.75 L-1.05 68.7 -0.95 68.7 -0.55 69.05 -1.2 68.75 M1.95 70.5 L2.9 70.8 Q2.25 71.3 1.95 70.7 L1.95 70.5 M3.35 70.9 L4.1 71.0 3.7 71.0 3.35 70.9 M4.4 71.05 L5.25 71.1 5.25 71.65 4.4 71.05 M5.3 72.2 L5.35 73.3 4.55 72.85 5.3 72.2 M0.8 -6.3 L0.25 -6.55 -0.25 -6.3 -0.5 -5.8 -0.25 -5.25 0.25 -5.05 0.8 -5.25 1.0 -5.8 0.8 -6.3 M-2.65 -4.15 L-2.85 -4.05 -2.95 -3.8 -2.85 -3.55 Q-2.75 -3.45 -2.65 -3.45 -2.55 -3.45 -2.45 -3.55 L-2.35 -3.8 -2.45 -4.05 -2.65 -4.15 M-1.35 -5.7 L-1.65 -5.55 -1.8 -5.2 -1.65 -4.85 Q-1.55 -4.7 -1.35 -4.7 -1.15 -4.7 -1.0 -4.85 L-0.9 -5.2 -1.0 -5.55 Q-1.15 -5.7 -1.35 -5.7 M-0.9 -4.15 L-0.85 -4.3 -0.9 -4.45 -1.1 -4.5 -1.25 -4.45 -1.35 -4.3 -1.25 -4.15 -1.1 -4.1 -0.9 -4.15 M-0.35 -1.85 L-0.75 -1.7 -0.9 -1.35 -0.75 -1.0 -0.35 -0.85 Q-0.1 -0.85 0.05 -1.0 L0.2 -1.35 0.05 -1.7 -0.35 -1.85 M0.1 0.7 L0.3 1.15 0.75 1.3 1.2 1.15 1.4 0.7 1.2 0.3 0.75 0.1 0.3 0.3 0.1 0.7 M4.35 -2.4 Q4.4 -3.55 4.5 -2.55 L4.35 -2.4 M1.2 1.55 L1.0 1.9 1.2 2.25 1.6 2.4 2.05 2.25 2.2 1.9 2.05 1.55 1.6 1.4 Q1.35 1.4 1.2 1.55 M0.4 7.9 L0.55 8.3 0.4 8.7 0.0 8.85 -0.4 8.7 -0.55 8.3 -0.4 7.9 0.0 7.75 0.4 7.9 M-1.3 2.95 L-1.7 2.3 -0.95 2.55 -1.15 2.95 -1.3 2.95 M-2.1 6.15 L-1.65 5.95 Q-1.4 5.95 -1.2 6.15 L-1.0 6.65 -1.2 7.15 Q-1.4 7.35 -1.65 7.35 L-2.1 7.15 -2.3 6.65 -2.1 6.15 M-0.25 6.15 L0.05 6.3 0.15 6.55 0.05 6.85 -0.25 6.95 -0.5 6.85 -0.65 6.55 -0.5 6.3 -0.25 6.15 M-1.9 3.6 Q-1.5 3.6 -1.2 3.9 -0.95 4.15 -0.95 4.55 L-1.2 5.25 -1.9 5.5 -2.55 5.25 -2.85 4.55 -2.55 3.9 -1.9 3.6 M4.45 9.6 L4.35 9.35 4.0 9.25 Q3.8 9.25 3.7 9.35 L3.55 9.6 3.7 9.85 4.0 9.95 4.35 9.85 4.45 9.6 M4.5 9.0 L4.6 9.2 4.7 9.0 4.5 9.0 M3.3 9.55 L3.3 9.15 2.85 9.15 2.85 9.55 3.3 9.55 M5.0 10.9 L4.65 10.75 5.2 11.5 5.1 10.75 Q5.0 10.6 5.0 10.9 M4.95 18.0 L5.1 18.4 4.95 18.8 4.55 18.95 4.15 18.8 4.0 18.4 Q4.0 18.15 4.15 18.0 L4.55 17.85 Q4.8 17.85 4.95 18.0 M4.5 15.7 L4.7 16.2 4.5 16.75 Q4.3 16.95 4.0 16.95 L3.5 16.75 3.3 16.2 3.5 15.7 Q3.7 15.45 4.0 15.45 4.3 15.45 4.5 15.7 M0.1 70.75 L0.45 70.5 0.5 70.5 0.9 71.05 1.25 71.25 1.15 71.6 0.1 70.75 M-1.8 72.3 L-2.3 72.0 -2.7 71.35 -1.5 72.25 -1.8 72.3 M-4.45 73.35 L-3.9 73.3 Q-3.25 73.75 -3.3 74.65 -3.45 76.2 -5.0 76.3 L-6.15 75.55 -5.9 74.8 -4.45 73.35 M1.75 78.15 L1.85 78.15 Q1.7 77.6 1.75 78.15" fill="#a67400" fill-rule="evenodd" stroke="none"/>
    <path d="M7.7 17.2 L7.7 17.15 7.8 17.05 8.0 16.9 8.45 16.95 8.65 17.15 8.8 17.3 8.8 17.6 8.65 18.05 8.6 18.05 8.4 18.15 7.9 18.1 7.7 17.95 7.6 17.65 Q7.5 17.35 7.7 17.2 M4.6 13.6 L4.35 14.45 3.85 14.95 3.2 14.9 3.0 14.75 2.8 14.45 2.8 14.4 2.8 14.3 2.8 13.95 2.85 13.8 2.95 13.7 3.1 13.5 3.55 13.15 4.5 13.45 4.6 13.6 M8.25 23.95 L7.65 23.9 7.45 23.75 7.3 23.6 7.3 23.45 7.25 22.95 7.35 22.8 7.75 22.5 8.3 22.55 Q8.85 22.9 8.7 23.5 L8.35 23.9 8.25 23.95 M-0.85 -0.4 L-0.65 -0.45 -0.35 -0.3 -0.2 -0.2 -0.15 0.1 -0.25 0.45 -0.6 0.65 -1.0 0.5 -1.15 0.0 -1.05 -0.3 -0.9 -0.4 -0.85 -0.4 M1.9 4.75 L1.9 4.95 1.85 5.1 1.8 5.3 1.05 5.35 0.9 4.85 1.0 4.55 1.15 4.45 1.4 4.4 1.7 4.5 1.85 4.65 1.9 4.75" fill="#ffcc00" fill-rule="evenodd" stroke="none"/>
    <path d="M7.7 17.2 Q7.5 17.35 7.6 17.65 L7.7 17.95 7.9 18.1 8.4 18.15 8.6 18.05 8.65 18.05 8.3 19.1 9.45 18.9 9.85 20.65 10.5 21.1 10.6 21.6 9.7 23.0 9.85 23.35 10.55 23.35 10.4 23.9 10.95 24.25 10.55 25.0 9.8 24.55 10.1 25.75 10.8 25.0 11.1 26.15 10.95 26.85 10.95 27.0 Q10.75 27.0 10.4 27.25 L10.8 26.6 10.75 26.4 Q10.45 25.6 9.8 26.2 10.05 27.0 9.4 27.1 L9.3 27.85 10.35 28.2 10.0 28.85 Q10.0 28.15 9.25 28.35 L8.65 28.3 Q8.15 28.5 8.4 29.05 7.4 28.55 6.95 27.75 L5.25 24.95 5.35 24.05 4.35 23.3 4.15 22.3 3.85 22.0 3.5 22.0 3.4 22.15 3.2 22.2 3.35 20.35 2.0 18.55 2.3 17.95 1.65 17.55 1.75 16.9 0.5 13.4 Q1.35 13.9 1.8 13.25 L2.15 12.25 1.5 11.5 1.85 10.95 1.85 10.7 Q1.7 9.95 2.25 10.5 L2.25 11.95 2.75 11.85 Q2.9 11.25 3.1 11.85 L4.0 12.2 4.65 12.6 5.2 11.95 4.5 13.45 3.55 13.15 3.1 13.5 2.95 13.7 2.85 13.75 2.7 14.1 2.8 14.4 2.8 14.45 3.0 14.75 3.2 14.9 3.85 14.95 4.35 14.45 4.6 13.6 5.05 13.45 Q6.35 14.15 5.5 15.3 4.7 15.85 5.25 15.7 L6.45 14.55 7.3 14.95 7.5 15.5 7.9 15.85 Q7.35 16.55 7.7 17.2 M8.7 29.25 Q9.1 29.25 9.4 29.55 L9.65 30.15 8.7 29.25 M9.85 31.15 L9.95 31.25 10.25 30.9 10.95 30.5 11.45 30.85 12.45 30.95 12.2 31.45 11.8 31.8 11.65 31.85 Q11.65 31.1 11.2 31.8 L11.25 32.0 Q10.15 33.2 10.6 34.85 L10.75 35.3 8.3 35.15 9.0 31.7 9.85 31.15 M6.25 17.3 Q5.9 17.3 5.65 17.55 L5.4 18.15 5.65 18.75 6.25 19.0 6.85 18.75 7.1 18.15 6.85 17.55 Q6.6 17.3 6.25 17.3 M5.7 19.95 Q5.45 19.95 5.3 20.15 L5.1 20.65 5.3 21.15 Q5.45 21.35 5.7 21.35 L6.15 21.15 6.3 20.65 6.15 20.15 5.7 19.95 M8.25 23.95 L8.35 23.9 8.7 23.5 Q8.85 22.9 8.3 22.55 L7.75 22.5 7.35 22.8 7.25 22.95 7.3 23.45 7.3 23.6 7.45 23.75 7.65 23.9 8.25 23.95 M6.75 22.15 L6.55 22.05 6.35 22.15 6.25 22.35 6.35 22.55 6.55 22.65 6.75 22.55 6.85 22.35 6.75 22.15 M7.9 25.45 L7.75 25.05 7.35 24.9 Q7.1 24.9 6.95 25.05 6.8 25.2 6.8 25.45 L6.95 25.85 7.35 26.0 7.75 25.85 7.9 25.45 M8.3 24.75 Q8.15 24.9 8.15 25.15 L8.3 25.55 8.7 25.7 9.1 25.55 9.25 25.15 9.1 24.75 8.7 24.6 Q8.45 24.6 8.3 24.75 M11.8 25.35 Q12.35 25.35 11.95 25.55 L11.8 25.35 M11.85 27.15 Q11.85 28.0 11.75 27.25 L11.85 27.15 M8.4 27.15 L7.95 26.95 7.5 27.15 7.3 27.65 7.5 28.15 Q7.7 28.35 7.95 28.35 L8.4 28.15 8.6 27.65 8.4 27.15 M5.45 74.9 L5.4 74.85 5.45 74.7 5.45 74.9 M1.1 71.8 L0.8 72.2 -0.05 71.6 0.35 72.75 1.15 72.45 1.9 72.9 2.2 73.45 1.45 75.1 Q2.2 74.8 2.95 74.45 L4.15 75.35 4.0 76.35 2.8 77.4 Q2.6 76.65 2.35 77.4 L2.45 77.5 1.6 77.35 1.3 76.95 Q0.95 76.55 1.05 77.5 0.4 78.8 -1.05 78.45 L-1.25 78.6 -1.55 78.55 -1.65 76.2 -2.05 75.8 -2.15 76.55 -3.2 77.45 Q-3.85 77.4 -4.05 76.85 L-4.1 77.05 -4.4 76.95 Q-6.05 78.75 -6.3 81.2 L-6.4 83.4 -8.6 80.25 -6.9 75.4 Q-6.4 73.8 -6.7 72.2 L-5.6 70.75 -5.75 70.25 -4.65 67.2 -3.5 68.8 -2.9 69.15 -2.85 69.15 -3.3 69.5 Q-4.1 70.1 -3.3 70.65 L-3.1 70.7 -2.75 70.65 -2.6 70.65 -2.55 70.65 -1.95 70.4 Q-1.5 70.05 -1.5 69.6 -1.5 70.1 -1.0 70.45 L0.1 70.75 1.15 71.6 1.1 71.8 M3.85 82.45 L2.85 82.25 0.45 80.5 0.65 80.45 1.9 80.7 3.85 82.45 M-0.8 80.2 Q-2.15 80.35 -1.8 79.15 L-1.1 79.2 -0.8 80.2 M-1.5 78.6 L-1.55 78.6 -1.55 78.55 -1.5 78.6 M-2.35 79.5 L-3.6 79.15 -3.3 79.05 -3.2 79.05 -2.35 79.5 M-4.15 65.7 L-4.1 65.6 -4.0 65.65 -4.15 65.7 M-3.95 -4.7 L-2.85 -2.25 -2.9 -0.9 -2.15 -0.5 -2.55 0.2 -1.5 0.55 -1.4 0.45 -1.65 0.2 -2.0 0.05 -1.85 -0.8 -1.75 -0.9 -2.15 -0.8 -2.65 -1.0 -2.85 -1.55 -2.65 -2.05 -2.15 -2.3 -1.65 -2.05 -1.45 -1.55 Q-1.45 -1.25 -1.6 -1.05 L-1.15 -0.85 -0.8 -0.7 -0.85 -0.4 -0.9 -0.4 -1.05 -0.3 -1.15 0.0 -1.0 0.5 -0.6 0.65 -0.05 0.95 0.0 1.4 -0.2 1.85 0.25 1.75 0.7 2.1 0.7 3.35 1.6 3.7 1.7 3.65 1.85 3.55 2.15 3.6 2.4 3.85 1.9 4.75 1.85 4.65 1.7 4.5 1.4 4.4 1.15 4.45 1.0 4.55 0.9 4.85 1.05 5.35 1.8 5.3 1.85 5.1 2.05 5.1 2.5 5.0 2.75 4.9 2.4 5.65 1.2 6.05 1.35 7.15 2.15 7.25 2.95 8.0 1.35 8.05 0.65 8.75 0.8 9.95 0.3 10.35 0.15 11.2 Q0.65 11.55 0.4 11.85 L0.25 12.1 0.15 11.2 -0.3 11.0 -0.9 10.15 -1.45 10.0 Q-3.9 6.25 -5.45 2.1 -4.9 0.9 -5.25 -0.4 -5.75 -2.45 -4.35 -4.5 L-4.25 -4.45 -3.95 -4.7 M-0.35 -1.85 L0.05 -1.7 0.2 -1.35 0.05 -1.0 Q-0.1 -0.85 -0.35 -0.85 L-0.75 -1.0 -0.9 -1.35 -0.75 -1.7 -0.35 -1.85 M-3.9 -3.55 L-3.9 -3.1 -3.5 -3.1 -3.5 -3.55 -3.9 -3.55 M0.1 0.7 L0.3 0.3 0.75 0.1 1.2 0.3 1.4 0.7 1.2 1.15 0.75 1.3 0.3 1.15 0.1 0.7 M1.2 1.55 Q1.35 1.4 1.6 1.4 L2.05 1.55 2.2 1.9 2.05 2.25 1.6 2.4 1.2 2.25 1.0 1.9 1.2 1.55 M0.4 7.9 L0.0 7.75 -0.4 7.9 -0.55 8.3 -0.4 8.7 0.0 8.85 0.4 8.7 0.55 8.3 0.4 7.9 M-1.3 2.95 L-1.15 2.95 -0.95 2.55 -1.7 2.3 -1.3 2.95 M-1.9 3.6 L-2.55 3.9 -2.85 4.55 -2.55 5.25 -1.9 5.5 -1.2 5.25 -0.95 4.55 Q-0.95 4.15 -1.2 3.9 -1.5 3.6 -1.9 3.6 M-0.25 6.15 L-0.5 6.3 -0.65 6.55 -0.5 6.85 -0.25 6.95 0.05 6.85 0.15 6.55 0.05 6.3 -0.25 6.15 M-2.1 6.15 L-2.3 6.65 -2.1 7.15 -1.65 7.35 Q-1.4 7.35 -1.2 7.15 L-1.0 6.65 -1.2 6.15 Q-1.4 5.95 -1.65 5.95 L-2.1 6.15 M3.3 9.55 L2.85 9.55 2.85 9.15 3.3 9.15 3.3 9.55 M5.0 10.9 L5.2 11.5 4.65 10.75 5.0 10.9 M4.5 15.7 Q4.3 15.45 4.0 15.45 3.7 15.45 3.5 15.7 L3.3 16.2 3.5 16.75 4.0 16.95 Q4.3 16.95 4.5 16.75 L4.7 16.2 4.5 15.7 M4.95 18.0 Q4.8 17.85 4.55 17.85 L4.15 18.0 Q4.0 18.15 4.0 18.4 L4.15 18.8 4.55 18.95 4.95 18.8 5.1 18.4 4.95 18.0 M3.75 21.1 L3.55 21.45 3.5 21.9 3.9 21.75 Q4.2 21.3 3.75 21.1 M-1.8 72.3 L-1.5 72.25 -2.7 71.35 -2.3 72.0 -1.8 72.3 M-4.45 73.35 L-5.9 74.8 -6.15 75.55 -5.0 76.3 Q-3.45 76.2 -3.3 74.65 -3.25 73.75 -3.9 73.3 L-4.45 73.35 M1.55 76.55 L1.7 76.85 1.95 76.95 2.25 76.85 2.35 76.55 2.25 76.3 1.95 76.15 Q1.8 76.15 1.7 76.3 1.55 76.4 1.55 76.55 M1.75 78.15 Q1.7 77.6 1.85 78.15 L1.75 78.15" fill="#cc9900" fill-rule="evenodd" stroke="none"/>
    <path d="M6.05 38.55 L6.0 38.55 6.1 36.9 Q10.2 35.45 14.05 37.15 L12.4 38.5 11.95 39.05 Q9.1 37.95 6.05 38.55 M3.2 69.6 Q-1.7 68.5 -4.05 64.05 L-3.2 62.5 Q-0.2 64.3 3.15 64.6 L3.05 65.2 3.1 69.2 3.15 69.55 3.2 69.6 M-3.05 61.65 L-3.2 61.6 -2.95 59.95 Q-2.6 57.6 -1.05 55.6 L-1.0 55.65 Q1.0 56.65 2.9 57.9 L4.2 58.95 4.0 59.1 Q3.35 60.2 3.25 61.55 L3.0 62.85 2.9 63.3 -0.2 62.65 -0.4 62.6 -3.05 61.65 M-0.15 53.3 L0.35 51.5 0.4 51.55 Q2.75 52.45 4.55 54.1 3.85 54.55 4.1 55.2 2.0 54.25 -0.4 54.2 L-0.15 53.3 M0.55 51.05 L0.3 51.0 0.35 50.8 0.6 50.8 0.95 50.85 3.5 51.2 Q5.65 51.6 7.45 52.6 L6.6 52.2 5.9 53.3 5.4 54.2 5.4 54.25 Q3.5 51.95 0.55 51.05 M1.55 50.05 L0.6 50.05 0.7 48.7 Q1.15 46.2 2.9 45.0 L3.1 44.85 4.7 46.35 6.55 48.5 6.4 48.65 Q5.65 49.55 5.6 50.65 L1.55 50.05 M3.95 42.7 Q3.85 41.0 5.15 39.7 L5.5 39.65 Q8.55 38.95 11.65 39.55 L11.8 39.4 Q11.65 39.95 12.05 40.55 L10.8 42.95 Q10.4 43.6 10.45 44.4 L10.5 44.7 Q7.55 42.8 3.95 42.95 L3.95 42.7 M10.85 45.75 L10.15 46.5 9.8 47.0 9.6 47.25 10.0 47.75 Q8.15 45.1 4.85 43.75 8.3 43.9 10.85 45.75 M7.7 51.5 L8.05 51.7 8.1 51.6 8.15 51.75 7.7 51.5 M9.1 47.45 Q8.2 48.0 7.7 49.0 6.25 46.3 3.85 44.3 L5.1 44.75 Q7.4 45.75 9.1 47.45 M0.45 55.25 L0.25 55.15 0.5 55.2 0.45 55.25 M3.1 55.7 L3.9 55.95 3.3 55.8 3.1 55.7" fill="#a66600" fill-rule="evenodd" stroke="none"/>
    <path d="M6.05 38.55 Q9.1 37.95 11.95 39.05 L12.1 39.1 11.8 39.4 11.65 39.55 Q8.55 38.95 5.5 39.65 5.4 39.15 5.75 38.8 L6.05 38.55 M13.65 46.75 L13.6 47.1 13.2 48.3 13.05 47.85 13.0 47.8 12.9 47.7 Q12.0 46.6 10.95 45.8 L10.85 45.75 Q8.3 43.9 4.85 43.75 8.15 45.1 10.0 47.75 L10.15 47.95 11.05 49.7 11.3 50.3 11.0 49.8 9.1 47.45 Q7.4 45.75 5.1 44.75 L3.85 44.3 Q6.25 46.3 7.7 49.0 L7.7 49.05 8.0 49.65 8.1 49.85 8.1 49.9 8.55 51.5 Q8.85 52.85 9.9 53.6 L10.55 52.95 9.85 54.35 9.75 54.25 9.7 54.2 9.65 54.15 Q8.6 53.25 7.45 52.6 5.65 51.6 3.5 51.2 L0.95 50.85 0.6 50.8 0.75 50.05 1.55 50.05 5.6 50.65 6.2 50.85 6.8 51.1 7.1 51.25 7.2 51.3 7.3 51.35 7.7 51.5 8.15 51.75 8.1 51.6 Q7.5 49.9 6.55 48.5 L4.7 46.35 3.1 44.85 2.9 45.0 3.0 44.45 3.8 42.85 3.95 42.7 3.95 42.95 Q7.55 42.8 10.5 44.7 L11.35 45.25 Q12.4 46.0 13.3 47.05 L13.65 46.75 M7.85 57.15 L6.8 58.6 6.75 58.65 7.1 57.95 6.95 57.85 Q5.75 56.8 4.5 56.25 L3.9 55.95 3.1 55.7 2.15 55.45 0.5 55.2 0.25 55.15 0.45 55.25 Q3.0 56.45 4.8 58.65 L6.0 60.1 6.2 59.8 Q6.1 60.45 6.15 61.1 L4.65 59.45 4.2 58.95 2.9 57.9 Q1.0 56.65 -1.0 55.65 L-0.65 54.6 -0.15 53.3 -0.4 54.2 Q2.0 54.25 4.1 55.2 5.65 55.9 7.0 57.1 5.95 55.4 4.55 54.1 2.75 52.45 0.4 51.55 L0.55 51.05 Q3.5 51.95 5.4 54.25 L6.25 55.4 7.6 57.45 7.85 57.15 M6.5 63.45 L6.7 64.25 6.75 64.55 6.7 64.45 3.15 64.6 Q-0.2 64.3 -3.2 62.5 L-3.05 61.65 -0.4 62.6 -0.55 62.8 -0.2 62.65 2.9 63.3 6.5 63.45" fill="#5e3a00" fill-rule="evenodd" stroke="none"/>
    <path d="M11.95 39.05 L12.4 38.5 14.05 37.15 14.75 37.5 Q16.2 38.25 16.85 39.45 L17.0 39.8 16.05 40.55 16.4 41.25 Q16.15 44.55 13.65 46.75 L13.3 47.05 Q12.4 46.0 11.35 45.25 L10.5 44.7 10.45 44.4 Q10.4 43.6 10.8 42.95 L12.05 40.55 Q11.65 39.95 11.8 39.4 L12.1 39.1 11.95 39.05 M13.2 48.3 L12.85 49.4 11.6 50.45 11.4 50.5 11.3 50.35 11.05 49.7 10.15 47.95 10.0 47.75 9.6 47.25 9.8 47.0 10.15 46.5 10.85 45.75 10.95 45.8 Q12.0 46.6 12.9 47.7 L13.0 47.8 13.05 47.85 13.2 48.3 M11.6 50.5 L11.65 51.85 10.55 52.95 9.9 53.6 Q8.85 52.85 8.55 51.5 L8.1 49.9 8.1 49.85 8.0 49.65 7.7 49.05 7.7 49.0 Q8.2 48.0 9.1 47.45 L11.0 49.8 11.4 50.5 11.6 50.5 M9.85 54.35 L9.9 54.4 7.85 57.15 7.6 57.45 6.25 55.4 5.4 54.25 5.4 54.2 5.9 53.3 6.6 52.2 7.45 52.6 Q8.6 53.25 9.65 54.15 L9.7 54.2 9.75 54.25 9.85 54.35 M6.75 58.65 L6.2 59.8 6.0 60.1 4.8 58.65 Q3.0 56.45 0.45 55.25 L0.5 55.2 2.15 55.45 3.1 55.7 3.3 55.8 3.9 55.95 4.5 56.25 Q5.75 56.8 6.95 57.85 L7.1 57.95 6.75 58.65 M6.15 61.1 L6.2 61.15 Q7.1 62.2 7.2 63.4 L6.5 63.45 2.9 63.3 3.0 62.85 3.25 61.55 Q3.35 60.2 4.0 59.1 L4.2 58.95 4.65 59.45 6.15 61.1 M6.7 64.45 L7.25 67.2 Q7.5 68.6 6.7 69.85 L3.55 69.65 3.2 69.6 3.15 69.55 3.1 69.2 3.05 65.2 3.15 64.6 6.7 64.45 M5.6 50.65 Q5.65 49.55 6.4 48.65 L6.55 48.5 Q7.5 49.9 8.1 51.6 L8.05 51.7 7.7 51.5 7.3 51.35 7.2 51.3 7.1 51.25 6.8 51.1 6.2 50.85 5.6 50.65 M4.1 55.2 Q3.85 54.55 4.55 54.1 5.95 55.4 7.0 57.1 5.65 55.9 4.1 55.2" fill="#754900" fill-rule="evenodd" stroke="none"/>
    <path d="M11.6 50.45 L11.6 50.5 11.4 50.5 11.6 50.45 M-1.05 68.7 L-1.05 68.65 -0.95 68.7 -1.05 68.7" fill="#ffffff" fill-rule="evenodd" stroke="none"/>
  </g>
</svg>
