<?xml version="1.0" encoding="UTF-8" standalone="no"?>
<svg xmlns:xlink="http://www.w3.org/1999/xlink" height="142.3px" width="80.7px" xmlns="http://www.w3.org/2000/svg">
  <g transform="matrix(1.0, 0.0, 0.0, 1.0, 40.35, 71.15)">
    <path d="M-9.0 -39.3 L-8.15 -39.7 -6.85 -39.25 -5.75 -42.4 -6.3 -43.25 -8.15 -44.05 -8.8 -46.25 -9.8 -46.6 -10.3 -47.2 -9.65 -49.35 -10.0 -50.4 -9.95 -52.55 -9.5 -53.75 -7.8 -54.45 -7.9 -56.65 -7.4 -57.3 -7.65 -57.95 -5.95 -61.45 Q-5.4 -62.5 -6.1 -63.65 L-6.0 -64.3 -3.65 -64.5 0.35 -68.5 0.3 -71.15 2.85 -70.0 3.75 -70.05 4.7 -70.25 10.45 -69.15 10.85 -69.0 12.35 -69.75 12.4 -69.7 Q12.4 -69.1 12.65 -68.55 L12.9 -68.2 Q14.0 -67.2 15.3 -66.5 L16.4 -65.35 17.5 -63.7 18.4 -61.1 20.05 -60.35 19.55 -59.85 Q18.2 -55.6 20.5 -51.2 L21.15 -50.7 Q21.0 -49.85 20.3 -49.35 18.3 -47.8 17.3 -45.65 L17.8 -45.25 17.05 -43.5 Q18.8 -40.25 16.25 -37.7 L18.85 -36.55 21.25 -35.15 23.75 -36.25 23.4 -33.7 27.5 -29.0 30.55 -29.0 29.6 -26.0 31.8 -21.95 Q37.4 -20.7 39.7 -15.6 L40.35 -15.2 Q37.3 -3.45 26.75 2.3 23.6 14.0 23.0 26.95 22.85 30.55 23.25 33.9 L23.6 40.4 22.95 40.85 23.2 42.85 23.75 43.35 23.4 46.7 23.1 46.0 22.25 43.55 22.5 42.95 21.6 44.05 21.95 44.5 21.9 45.05 22.35 45.7 21.4 46.45 20.15 45.6 20.2 46.2 19.85 46.7 19.35 46.7 18.95 47.8 18.3 47.8 16.15 46.05 15.75 46.1 15.65 47.05 14.45 47.35 13.85 48.4 13.3 47.45 13.75 46.75 11.8 46.6 12.25 46.65 12.65 47.3 12.25 48.0 11.3 47.7 11.7 48.6 11.75 48.85 11.35 49.15 11.15 49.8 10.1 49.1 9.35 49.4 9.05 48.75 8.2 50.35 7.35 50.35 7.1 49.4 6.1 49.75 6.75 50.6 5.75 51.35 5.15 50.7 4.9 51.1 4.5 51.25 4.55 52.55 3.9 50.3 4.9 50.25 3.15 50.15 3.6 51.5 3.1 51.7 2.45 51.2 2.2 50.05 1.5 51.0 2.15 52.75 Q1.3 52.5 0.65 51.85 L0.0 50.9 -0.45 51.5 -1.35 51.25 -1.1 50.2 -2.2 48.95 -2.55 49.95 -3.95 49.2 -3.65 50.55 -4.7 50.6 -4.4 50.2 -6.15 47.45 -5.8 49.5 -6.85 48.65 -7.05 47.6 -8.25 47.3 -8.6 47.9 -9.75 47.6 -9.0 47.4 -9.0 47.25 -9.6 46.7 -10.4 47.3 -11.5 46.65 -11.1 45.75 -12.5 45.25 -12.95 46.1 -13.25 45.0 -14.65 45.3 -14.95 44.75 Q-16.55 44.6 -17.85 43.35 L-18.3 42.85 Q-16.25 44.2 -12.5 44.3 -7.45 45.0 -2.6 47.55 5.35 51.75 12.6 45.45 14.2 44.1 16.3 43.45 20.0 42.25 21.9 39.15 22.15 25.15 23.25 11.1 L23.75 10.3 Q24.45 8.65 23.4 9.0 L22.85 9.75 20.7 11.45 20.25 11.65 19.25 12.0 Q24.85 7.25 27.3 -0.15 27.8 -1.75 29.6 -2.7 L28.95 -1.9 28.55 -1.0 28.0 0.8 Q33.7 -3.15 37.2 -9.3 L37.55 -9.9 39.75 -14.75 37.6 -17.25 Q35.9 -19.0 33.55 -20.15 L33.5 -19.85 32.1 -20.2 31.35 -19.65 31.35 -20.2 29.5 -25.3 29.1 -24.4 28.65 -24.05 28.5 -25.0 28.6 -25.4 29.0 -28.7 25.45 -27.8 26.8 -28.6 Q25.8 -30.7 23.85 -31.95 23.3 -32.35 22.9 -32.9 L23.05 -35.1 22.25 -35.1 21.0 -34.45 18.25 -36.1 16.05 -36.95 15.7 -36.35 15.7 -36.4 15.2 -35.55 13.45 -31.5 13.35 -31.15 13.15 -30.55 14.3 -28.15 14.4 -27.75 14.55 -27.3 14.6 -27.05 14.7 -26.2 14.0 -26.1 11.6 -27.2 7.55 -26.9 6.5 -26.15 4.3 -26.0 2.55 -24.6 1.75 -24.85 1.95 -28.1 1.95 -28.2 -0.45 -32.35 -0.75 -32.65 -1.6 -33.25 -2.1 -33.8 -2.35 -34.25 -3.1 -38.8 -2.9 -38.8 Q-2.05 -35.45 0.35 -32.65 L1.85 -30.75 2.8 -28.55 2.85 -28.0 2.5 -25.35 4.75 -26.65 4.8 -26.65 6.15 -26.8 7.5 -27.85 8.35 -28.25 8.45 -28.25 9.55 -28.45 10.6 -28.15 11.75 -27.9 14.0 -26.7 14.05 -26.7 12.75 -29.55 12.4 -30.05 12.4 -30.1 12.5 -30.4 12.35 -31.1 12.35 -31.3 12.55 -31.3 12.6 -31.35 12.75 -31.4 12.95 -31.65 Q13.15 -32.25 12.8 -32.55 L12.65 -32.65 12.7 -32.9 12.75 -33.1 12.95 -33.1 13.15 -33.25 Q13.35 -33.55 13.15 -33.8 L13.3 -34.15 13.3 -34.2 13.3 -34.75 13.35 -34.85 13.4 -34.9 13.4 -34.95 Q13.75 -34.85 13.95 -35.2 14.25 -35.75 13.9 -36.0 L13.95 -36.05 14.1 -36.3 14.25 -36.2 14.9 -36.25 15.1 -36.5 Q15.35 -37.25 14.8 -37.5 L14.9 -37.6 15.4 -38.4 16.0 -38.5 16.2 -38.9 16.15 -39.6 Q16.55 -39.45 16.95 -39.8 17.5 -40.3 17.15 -40.9 L16.75 -41.2 16.85 -41.4 Q17.2 -42.2 16.45 -42.35 L16.95 -44.85 16.6 -45.05 16.25 -45.2 16.3 -45.35 16.9 -46.15 17.0 -46.6 17.0 -46.65 17.15 -46.65 17.2 -46.7 17.15 -46.7 16.4 -46.9 14.55 -47.4 13.5 -47.45 13.4 -47.45 11.95 -47.65 12.05 -47.55 11.6 -47.65 11.5 -47.65 11.4 -47.6 11.35 -47.7 11.25 -47.8 10.75 -48.6 10.85 -48.5 11.3 -48.15 16.45 -47.65 17.3 -47.45 17.75 -47.65 18.35 -48.55 18.7 -49.05 20.2 -50.15 20.15 -50.3 19.95 -50.7 20.05 -51.2 20.05 -51.25 20.05 -51.3 19.75 -51.25 19.1 -52.2 19.15 -52.2 19.15 -52.3 19.1 -52.95 18.65 -53.6 18.55 -53.75 18.8 -54.65 18.5 -55.1 18.6 -55.8 18.2 -56.25 18.1 -58.3 18.15 -58.35 19.2 -60.05 19.2 -60.1 19.15 -60.15 17.9 -60.3 17.7 -60.75 17.75 -60.75 17.75 -60.85 17.75 -61.85 17.25 -62.35 17.5 -63.15 16.45 -63.6 16.4 -64.25 15.35 -64.85 15.05 -65.85 13.7 -66.35 13.45 -66.9 12.85 -66.75 11.25 -68.7 11.15 -68.55 10.5 -67.85 9.95 -67.9 Q8.7 -68.7 6.25 -68.55 L5.8 -68.9 3.15 -69.05 1.75 -67.5 0.4 -67.35 -1.3 -64.85 -2.05 -64.65 -2.8 -63.65 -2.55 -62.45 -3.65 -61.65 -4.6 -61.2 -5.1 -61.3 -4.7 -60.55 Q-6.95 -58.1 -6.95 -54.45 L-6.45 -53.65 -8.55 -53.55 -9.3 -51.8 Q-9.65 -50.95 -8.9 -50.0 L-7.95 -49.6 Q-8.7 -49.6 -9.2 -49.1 -9.7 -48.6 -9.65 -47.9 -9.6 -47.2 -9.05 -46.75 -8.5 -46.3 -7.75 -46.35 L-6.95 -47.1 -7.25 -46.4 -7.3 -46.35 -7.35 -46.25 -7.85 -45.4 -7.1 -43.95 -6.55 -43.75 -5.45 -45.0 Q-5.1 -43.7 -5.05 -42.4 -4.95 -38.95 -7.95 -37.7 L-7.85 -36.8 Q-7.3 -33.8 -4.95 -31.8 L-4.95 -31.75 -5.1 -31.75 -5.0 -31.3 -4.4 -30.95 -4.2 -30.85 -3.55 -29.9 -3.6 -29.95 -3.55 -29.85 -3.8 -29.6 -6.75 -32.55 -8.45 -35.35 -8.35 -36.05 -8.75 -36.55 -8.7 -37.1 -9.0 -37.6 -9.0 -39.3 M23.4 46.9 Q23.75 49.65 24.5 52.3 L24.4 52.85 24.0 52.3 23.9 52.15 23.35 51.45 23.3 50.9 22.9 50.35 23.25 49.4 22.75 48.65 22.6 48.25 23.4 46.9 M10.4 63.35 L10.35 63.4 Q9.55 64.1 9.25 62.75 L9.9 62.65 10.15 62.3 10.4 63.35 M2.35 71.15 L0.15 70.55 -0.05 70.15 1.05 69.9 Q1.1 70.3 1.45 70.6 L2.25 70.8 2.95 70.4 3.15 69.65 4.5 70.0 2.35 71.15 M-6.7 62.3 Q-7.15 62.75 -7.25 62.1 L-7.2 61.8 Q-6.95 61.85 -6.8 62.0 L-6.7 62.3 M-20.4 50.4 L-20.85 50.4 -19.5 46.75 -20.15 45.65 -19.85 43.55 Q-19.7 42.85 -19.05 42.65 L-18.7 42.7 -19.15 46.4 -20.4 50.4 M-19.15 42.15 Q-24.55 39.75 -22.1 33.0 -21.45 31.25 -22.65 29.6 -24.55 19.8 -22.45 10.4 -24.85 8.4 -25.65 5.45 -39.9 -0.9 -40.35 -17.2 L-37.65 -18.6 -35.95 -21.45 -34.1 -20.1 -31.55 -20.95 -28.95 -25.9 -30.1 -29.65 -26.05 -29.75 -20.8 -33.75 -21.4 -37.45 Q-18.65 -37.35 -17.0 -35.5 L-10.95 -38.2 -10.7 -38.75 -9.3 -39.3 -9.55 -38.55 -10.35 -38.1 -11.2 -35.15 -11.55 -36.55 -16.35 -34.75 -16.15 -33.9 -20.45 -36.7 -20.0 -31.75 -20.4 -31.4 -20.6 -32.5 -20.9 -32.95 -26.05 -29.2 -29.15 -29.2 -27.95 -26.25 -30.8 -20.0 -31.3 -20.05 -31.75 -19.6 -32.05 -19.8 -34.3 -19.25 -36.05 -20.3 -37.0 -18.55 -37.65 -17.7 -40.2 -16.85 -39.65 -14.05 Q-38.65 -9.6 -36.7 -5.5 L-35.65 -3.5 Q-32.55 1.25 -27.6 3.65 L-26.15 4.2 -27.85 -0.85 -23.25 7.2 -21.55 9.4 Q-20.2 10.35 -18.55 10.6 L-17.8 10.55 -16.75 11.35 -17.7 11.45 -20.55 11.15 -22.0 10.55 -22.3 11.9 -22.45 13.45 Q-20.7 25.2 -21.0 36.35 L-20.95 37.25 Q-21.0 40.4 -19.15 42.15 M-3.5 -63.45 L-4.2 -63.75 -4.9 -63.45 -5.2 -62.7 -4.9 -61.95 Q-4.6 -61.65 -4.2 -61.65 -3.8 -61.65 -3.5 -61.95 -3.2 -62.25 -3.2 -62.7 -3.2 -63.15 -3.5 -63.45 M2.65 -68.95 L0.95 -69.9 1.1 -68.85 1.95 -68.25 2.65 -68.95 M-1.1 -51.0 L-1.05 -50.7 Q-0.5 -48.0 2.0 -46.5 0.7 -46.5 -0.2 -47.8 -1.1 -49.15 -1.1 -51.0 M2.0 -46.5 L5.9 -48.25 3.55 -51.45 2.0 -53.9 0.95 -54.35 2.65 -53.8 2.8 -53.45 3.0 -53.15 Q4.95 -49.5 8.65 -48.6 L9.4 -48.65 Q10.05 -49.1 9.8 -48.25 L9.8 -48.1 9.75 -48.0 9.15 -47.65 8.1 -47.8 7.15 -47.6 6.6 -47.5 2.0 -46.5 M9.8 -35.9 L9.4 -36.1 9.2 -36.45 9.15 -36.55 9.05 -36.75 6.45 -36.15 6.6 -35.3 6.45 -34.9 6.1 -35.5 5.15 -35.45 5.05 -34.35 4.9 -34.45 5.0 -35.2 4.8 -35.65 3.95 -34.65 4.15 -35.5 Q4.2 -35.9 3.75 -36.05 L3.25 -35.9 3.25 -36.2 Q3.7 -36.2 4.05 -36.65 4.35 -37.1 4.35 -37.7 L4.6 -37.7 4.75 -36.85 Q4.85 -36.45 5.1 -36.4 5.35 -36.35 5.55 -36.65 L5.7 -37.6 5.85 -37.6 5.85 -37.5 6.05 -37.05 Q6.2 -36.85 6.5 -36.85 L6.95 -37.0 7.1 -37.45 7.4 -37.9 7.45 -37.95 7.65 -37.15 8.95 -37.55 10.05 -37.05 10.2 -37.2 10.3 -37.4 10.4 -37.5 11.3 -36.65 10.75 -36.4 10.35 -36.65 10.2 -36.6 9.6 -36.9 9.55 -36.9 9.55 -36.85 9.6 -36.85 9.85 -36.25 9.8 -36.0 9.8 -35.9 M8.2 -35.6 L7.9 -35.95 7.95 -36.4 8.2 -35.8 8.2 -35.6 M9.9 -45.6 L9.95 -45.75 10.05 -46.0 10.15 -46.15 10.2 -46.1 10.15 -45.85 10.15 -45.6 10.25 -44.9 10.95 -44.45 11.55 -42.8 11.55 -42.7 11.65 -41.75 11.75 -40.7 11.25 -41.65 10.9 -43.45 10.85 -43.5 10.85 -43.45 10.1 -43.9 9.9 -45.6 M9.55 -41.45 L9.8 -41.6 10.05 -41.45 10.15 -41.1 10.05 -40.75 9.8 -40.6 9.55 -40.75 9.45 -41.1 9.55 -41.45 M6.1 -40.95 L6.6 -41.35 8.9 -42.1 7.5 -41.25 7.35 -40.75 6.25 -40.55 5.5 -40.45 6.1 -40.95 M-4.9 -18.95 L-7.6 -22.45 Q-6.0 -21.7 -4.7 -20.3 L-2.75 -18.05 -2.5 -17.5 -2.05 -17.2 -1.9 -17.0 Q4.6 -3.45 -5.1 5.15 -10.05 9.45 -16.05 7.15 -0.5 8.6 -1.15 -6.9 -1.35 -11.2 -2.5 -15.4 L-4.9 -18.95 M4.35 -17.0 L5.7 -17.6 4.7 -17.1 4.35 -16.95 4.35 -17.0 M23.65 -17.55 L21.35 -21.1 Q30.95 -9.45 20.75 3.65 L18.2 6.5 Q27.0 -4.6 23.9 -17.1 L23.65 -17.55 M4.7 2.05 L13.65 8.15 13.2 8.35 10.8 7.45 Q9.8 7.05 8.95 6.5 L5.5 4.1 4.4 2.85 3.75 -0.1 4.7 2.05 M-21.4 0.3 Q-20.7 2.8 -18.95 4.85 L-17.75 6.25 Q-21.5 3.5 -23.0 -1.0 L-25.9 -5.25 -23.9 -3.55 Q-22.3 -1.95 -21.4 0.3 M13.55 -25.45 Q14.05 -25.15 13.5 -25.4 L13.55 -25.45 M-16.2 -32.5 L-16.3 -31.95 Q-17.65 -30.35 -19.45 -31.1 L-18.7 -31.25 -16.2 -32.5 M9.6 18.55 L9.6 18.5 9.65 18.5 9.7 18.55 9.6 18.55 M-5.6 62.1 L-4.95 62.15 -5.0 62.55 -5.25 62.65 -5.5 62.5 -5.6 62.1 M-2.05 61.3 Q-2.3 61.95 -2.35 61.2 L-2.15 60.95 -2.05 61.3 M-2.8 62.65 L-2.75 62.75 -2.8 63.2 -2.9 63.1 -2.8 62.65 M-1.6 63.0 L-1.55 63.15 -1.75 63.4 -1.6 63.0 M-2.15 63.65 L-1.8 64.2 -2.5 64.6 -2.45 63.5 -2.15 63.65 M-2.6 65.15 Q-2.2 65.0 -2.35 65.55 L-2.5 65.7 -2.6 65.15 M-14.15 53.4 L-14.05 53.15 -13.85 53.0 -13.65 53.15 -13.55 53.4 -13.65 53.7 -13.85 53.8 -14.05 53.7 -14.15 53.4 M-12.0 54.75 Q-12.5 54.9 -12.1 54.4 L-11.9 54.35 -12.0 54.75 M-16.0 53.55 L-15.65 53.65 -15.5 53.9 -15.65 54.15 -16.0 54.25 -16.35 54.15 -16.5 53.9 -16.35 53.65 -16.0 53.55 M15.95 48.85 L15.8 48.25 16.35 48.3 16.15 48.7 15.95 48.85 M20.1 43.45 L20.65 43.8 20.7 42.6 21.25 42.3 21.15 41.75 20.15 42.95 19.7 43.2 20.1 43.45 M20.0 45.5 L19.4 45.05 19.35 45.05 18.7 43.9 18.05 44.6 17.2 44.5 18.7 45.25 18.6 46.1 19.05 45.35 20.0 45.5 M22.0 47.25 L22.35 47.4 22.5 47.75 22.35 48.1 22.0 48.25 21.65 48.1 21.5 47.75 21.65 47.4 Q21.8 47.25 22.0 47.25 M20.4 53.05 L19.45 53.8 19.9 52.85 20.15 52.8 20.4 53.05 M17.85 54.15 L17.7 54.25 17.65 54.1 17.85 54.15 M15.65 55.95 L16.15 56.8 16.0 57.45 14.9 56.3 15.65 55.95 M13.65 55.75 L13.75 56.0 12.85 56.1 13.65 55.75 M14.8 57.05 Q15.55 57.5 14.95 58.55 L14.85 58.75 12.2 59.35 12.6 59.55 13.05 59.35 13.15 60.05 11.9 60.0 11.9 59.35 12.55 58.6 13.25 58.35 14.35 58.0 14.8 57.05 M11.35 60.3 L10.9 61.15 11.7 61.6 11.25 62.05 10.85 61.8 10.2 62.2 10.85 60.9 10.45 61.3 9.6 60.8 8.8 60.25 10.6 59.75 10.85 60.15 11.35 60.3 M18.1 54.9 L18.25 54.65 18.5 54.55 18.8 54.65 18.9 54.9 18.8 55.15 18.5 55.25 18.25 55.15 18.1 54.9 M16.75 55.7 L16.65 55.95 16.45 56.05 16.25 55.95 16.15 55.7 16.25 55.45 16.45 55.35 16.65 55.45 16.75 55.7 M11.2 57.95 L10.9 59.1 9.3 58.8 8.75 58.5 11.2 57.95 M6.65 51.5 Q6.65 51.35 6.8 51.25 6.9 51.1 7.1 51.1 7.3 51.1 7.45 51.25 L7.55 51.5 7.45 51.8 7.1 51.9 6.8 51.8 6.65 51.5 M6.6 52.3 L6.6 52.85 6.05 52.85 6.05 52.3 6.6 52.3 M7.25 56.15 L7.0 56.15 7.0 55.85 7.25 55.85 7.25 56.15 M6.9 61.3 L7.25 61.3 Q7.7 61.35 7.6 61.8 L6.65 61.7 6.9 61.3 M8.0 60.65 L8.1 60.65 8.25 60.85 8.0 60.65 M12.8 58.0 L12.55 58.1 12.7 57.9 12.8 58.0 M4.05 53.3 L3.95 53.6 3.7 53.7 3.45 53.6 3.35 53.3 3.45 53.05 3.7 52.9 Q3.85 52.9 3.95 53.05 L4.05 53.3 M-1.9 50.65 L-1.7 51.45 -2.0 51.85 -2.6 51.15 -2.65 50.25 -1.9 50.65 M-1.35 52.45 L-1.05 52.25 Q-0.85 52.25 -0.7 52.45 L-0.6 52.95 -0.7 53.45 -1.05 53.65 -1.35 53.45 -1.5 52.95 -1.35 52.45 M3.1 61.05 L3.7 60.15 4.1 60.0 3.6 61.0 3.1 61.05 M4.25 68.15 L4.95 68.0 4.65 68.25 4.25 68.15 M-0.35 65.85 Q0.35 65.1 -0.1 65.95 L-0.3 66.0 -0.35 65.85 M8.9 63.05 L7.75 63.35 Q7.25 63.6 7.25 64.0 L6.5 63.85 6.5 63.35 7.0 63.25 7.95 62.4 8.9 63.05" fill="#000000" fill-rule="evenodd" stroke="none"/>
    <path d="M-7.1 -43.95 L-7.85 -45.4 -7.35 -46.25 -7.3 -46.35 -7.25 -46.4 -6.45 -46.55 -5.75 -46.1 -7.25 -44.45 -7.1 -43.95 M-7.75 -46.35 Q-8.5 -46.3 -9.05 -46.75 -9.6 -47.2 -9.65 -47.9 -9.7 -48.6 -9.2 -49.1 -8.7 -49.6 -7.95 -49.6 L-6.8 -49.55 -6.75 -49.15 -7.35 -49.15 Q-8.45 -49.05 -8.95 -48.2 L-8.95 -47.65 Q-8.8 -46.6 -7.75 -46.35 M-8.9 -50.0 Q-9.65 -50.95 -9.3 -51.8 L-8.55 -53.55 -6.45 -53.65 -6.1 -51.85 -6.8 -52.1 Q-8.5 -52.35 -9.2 -50.8 L-8.9 -50.0 M11.15 -68.55 L11.25 -68.7 12.85 -66.75 12.75 -66.6 Q11.45 -65.7 10.1 -67.0 L11.15 -68.55 M17.9 -60.3 L19.15 -60.15 19.2 -60.05 18.15 -58.35 17.85 -58.7 17.1 -60.0 17.9 -60.3 M19.75 -51.25 L20.05 -51.3 20.05 -51.2 19.95 -50.7 20.15 -50.3 20.2 -50.15 18.7 -49.05 18.6 -49.75 19.2 -50.35 19.45 -50.6 19.05 -50.55 16.95 -50.35 17.0 -51.4 19.75 -51.25 M12.75 -29.55 L14.05 -26.7 14.0 -26.7 11.75 -27.9 Q11.75 -28.6 12.05 -29.05 L12.75 -29.55 M4.75 -26.65 L2.5 -25.35 2.85 -28.0 4.2 -27.65 Q4.75 -27.35 4.75 -26.85 L4.75 -26.65 M7.2 -63.8 L6.85 -63.7 Q6.65 -63.7 6.55 -63.8 L6.4 -64.05 6.55 -64.3 6.85 -64.4 7.2 -64.3 7.3 -64.05 7.2 -63.8 M10.4 -62.6 L10.65 -63.05 11.45 -63.3 12.25 -63.15 11.2 -61.2 10.4 -62.6 M0.95 -56.65 L1.65 -58.45 2.1 -58.6 2.35 -57.9 2.9 -59.55 3.75 -59.75 6.35 -57.4 4.75 -56.15 4.65 -56.3 4.6 -56.3 4.2 -56.75 4.25 -56.8 4.95 -58.55 4.2 -58.55 3.45 -57.2 0.95 -56.65 M5.6 -54.8 L5.6 -56.0 6.55 -56.9 7.25 -55.6 5.65 -54.7 5.6 -54.7 5.6 -54.8 M6.4 -54.2 L6.55 -54.55 7.0 -54.75 7.45 -54.55 7.65 -54.1 7.45 -53.65 7.0 -53.45 6.55 -53.65 6.35 -54.1 6.4 -54.2 M7.35 -52.8 L7.45 -53.05 8.9 -52.95 9.0 -52.6 8.15 -52.35 7.9 -52.25 7.45 -52.55 7.3 -52.7 7.35 -52.8 M2.65 -68.95 L1.95 -68.25 1.1 -68.85 0.95 -69.9 2.65 -68.95 M-3.5 -63.45 Q-3.2 -63.15 -3.2 -62.7 -3.2 -62.25 -3.5 -61.95 -3.8 -61.65 -4.2 -61.65 -4.6 -61.65 -4.9 -61.95 L-5.2 -62.7 -4.9 -63.45 -4.2 -63.75 -3.5 -63.45 M3.3 -64.45 L3.6 -63.9 3.3 -63.3 2.6 -63.1 1.9 -63.3 Q1.6 -63.55 1.6 -63.9 1.6 -64.25 1.9 -64.45 L2.6 -64.7 3.3 -64.45 M-5.55 -56.35 L-4.8 -57.25 -3.7 -56.95 -4.35 -55.35 -4.8 -55.1 -5.15 -55.25 -5.55 -56.35 M15.2 -57.5 L15.35 -57.1 15.2 -56.7 Q15.05 -56.55 14.85 -56.55 14.65 -56.55 14.5 -56.7 14.35 -56.85 14.35 -57.1 L14.5 -57.5 14.85 -57.65 15.2 -57.5 M13.2 -50.3 L13.3 -50.3 13.75 -49.85 13.65 -49.9 13.45 -50.1 13.2 -50.3 M15.7 -51.6 L15.75 -51.6 16.15 -51.55 16.35 -51.3 16.35 -50.8 16.35 -50.65 15.4 -49.85 14.9 -49.45 14.2 -50.0 14.35 -50.25 14.95 -51.2 15.4 -51.15 Q16.05 -51.25 15.7 -51.6 M-6.0 -50.85 L-5.05 -51.5 -4.15 -50.8 -4.4 -50.6 -4.7 -50.65 -5.5 -49.25 -6.0 -50.85" fill="#ffcc00" fill-rule="evenodd" stroke="none"/>
    <path d="M-4.2 -30.85 L-4.4 -30.95 -4.95 -31.75 -4.95 -31.8 -4.45 -32.9 -3.15 -32.65 -2.95 -32.15 -3.35 -31.0 -4.2 -30.85 M1.75 -67.5 L3.15 -69.05 5.8 -68.9 6.25 -68.55 Q8.7 -68.7 9.95 -67.9 L9.9 -67.8 Q9.8 -67.05 10.5 -67.85 L11.15 -68.55 10.1 -67.0 Q9.6 -66.35 10.8 -65.85 L12.15 -65.9 11.45 -65.25 10.6 -65.8 10.2 -65.0 Q12.3 -64.3 10.9 -64.1 11.05 -63.35 12.2 -64.1 L11.95 -63.5 11.6 -63.35 11.4 -63.35 11.45 -63.3 10.65 -63.05 10.4 -62.75 Q9.95 -62.55 10.1 -62.1 L10.25 -61.7 11.05 -60.5 12.05 -60.4 12.7 -61.85 12.6 -62.3 13.0 -63.25 13.45 -63.75 13.75 -63.75 13.65 -63.7 13.45 -63.55 13.25 -63.35 13.25 -63.0 13.4 -62.8 13.6 -62.65 13.7 -62.7 13.35 -62.15 13.3 -61.0 14.55 -61.2 15.25 -60.75 13.95 -59.15 14.7 -58.35 14.15 -58.2 13.7 -56.8 14.15 -56.45 13.75 -56.2 13.4 -55.25 14.55 -55.5 14.35 -55.4 14.2 -55.05 Q14.2 -54.85 14.35 -54.7 14.5 -54.55 14.75 -54.55 L15.15 -54.7 15.3 -55.05 15.15 -55.4 14.75 -55.55 16.2 -55.9 15.85 -54.9 15.0 -54.4 15.15 -53.35 14.6 -53.8 14.0 -53.3 14.1 -52.75 13.8 -52.75 13.15 -52.9 13.6 -54.15 11.75 -53.15 10.85 -53.05 10.6 -52.15 10.8 -54.0 10.35 -54.2 9.85 -54.05 9.85 -54.15 9.8 -54.55 9.8 -54.7 8.8 -54.7 8.9 -55.8 7.75 -55.6 8.25 -56.25 7.85 -56.8 7.8 -56.7 6.85 -57.4 5.75 -59.2 3.4 -60.15 2.1 -59.15 1.0 -59.65 1.5 -60.15 1.3 -60.85 Q1.75 -62.25 1.15 -61.25 L0.6 -61.55 1.25 -62.65 2.6 -62.75 3.25 -62.35 4.35 -63.3 3.85 -64.85 2.3 -64.95 2.3 -65.1 2.05 -64.85 1.9 -64.5 1.5 -64.4 0.75 -64.7 1.0 -65.75 1.75 -65.85 1.9 -66.65 0.85 -66.15 0.85 -67.25 1.75 -67.5 M17.75 -60.85 L17.75 -60.75 17.7 -60.75 17.75 -60.85 M19.15 -52.3 L19.15 -52.2 19.1 -52.2 19.15 -52.3 M20.05 -51.3 L20.05 -51.25 20.05 -51.2 20.05 -51.3 M16.45 -47.65 L11.3 -48.15 10.85 -48.5 11.55 -48.65 11.7 -49.05 12.85 -49.0 12.9 -49.1 12.95 -49.1 14.0 -48.95 Q14.25 -48.95 14.4 -49.1 L13.95 -49.2 16.25 -48.8 16.35 -48.6 16.55 -48.3 16.45 -47.65 M16.25 -45.2 L16.6 -45.05 16.55 -44.9 16.35 -44.65 Q15.65 -44.15 14.9 -44.25 L14.55 -44.35 14.0 -44.65 Q13.2 -44.9 12.65 -45.55 L12.2 -46.15 12.2 -46.2 12.3 -46.4 12.3 -46.45 12.3 -46.5 12.35 -46.6 14.0 -45.3 14.8 -44.8 16.2 -45.25 16.25 -45.2 M14.9 -37.6 L14.8 -37.5 14.9 -37.6 M13.95 -36.05 L13.9 -36.0 13.65 -36.15 13.7 -36.15 13.95 -36.05 M12.35 -31.3 L12.35 -31.1 11.8 -31.2 11.7 -31.15 11.5 -30.85 Q11.35 -30.05 12.05 -30.0 11.5 -29.9 11.15 -29.5 10.6 -28.95 10.6 -28.15 L9.55 -28.45 9.3 -29.3 10.1 -30.45 10.0 -30.75 10.05 -30.85 10.15 -30.95 10.85 -30.65 10.4 -31.45 10.7 -32.3 8.6 -31.55 7.2 -31.7 6.75 -31.15 5.95 -31.0 5.35 -31.35 5.2 -30.65 6.25 -30.45 6.8 -29.35 7.35 -29.4 6.7 -28.2 7.5 -27.85 6.15 -26.8 Q6.15 -27.5 5.2 -28.0 4.2 -28.55 2.8 -28.55 L1.85 -30.75 Q1.25 -35.7 3.6 -39.65 L4.3 -40.7 4.25 -41.3 2.35 -39.95 Q1.4 -39.1 0.7 -38.0 L0.75 -38.5 0.4 -40.2 Q0.3 -41.7 1.15 -42.9 L2.5 -42.7 5.05 -44.95 4.7 -45.5 5.3 -45.95 2.2 -44.25 Q-0.2 -44.55 -1.0 -46.65 -1.8 -48.85 -3.15 -50.7 -2.7 -52.1 -1.3 -52.9 L1.05 -54.05 2.0 -53.9 3.55 -51.45 2.35 -51.8 -1.1 -51.05 -1.1 -51.0 Q-1.1 -49.15 -0.2 -47.8 0.7 -46.5 2.0 -46.5 L6.6 -47.5 6.55 -47.3 Q7.8 -46.4 7.15 -47.6 L8.1 -47.8 7.75 -47.5 Q7.3 -46.9 8.0 -46.65 L8.0 -46.55 6.85 -46.15 Q6.5 -47.3 6.4 -46.3 L6.5 -46.0 5.7 -45.5 5.6 -45.45 5.5 -45.3 6.3 -44.3 5.7 -44.2 5.25 -44.45 4.8 -43.45 5.2 -43.4 5.4 -43.6 6.45 -43.5 6.7 -43.9 7.05 -42.9 6.3 -42.95 5.3 -41.4 5.7 -40.95 6.1 -41.1 6.1 -40.95 5.5 -40.45 6.25 -40.55 Q6.5 -40.15 7.15 -40.3 L9.85 -40.35 Q10.85 -40.1 11.35 -40.8 L11.3 -41.25 10.7 -41.75 11.25 -41.65 11.75 -40.7 11.65 -41.75 12.35 -42.2 12.65 -43.35 13.8 -42.6 15.2 -42.9 15.25 -42.8 14.9 -42.35 14.35 -42.7 Q13.75 -42.65 13.75 -42.05 13.75 -41.5 14.2 -41.5 L14.15 -41.45 14.35 -41.3 14.2 -41.25 Q13.8 -41.05 13.85 -40.65 L13.55 -40.65 13.45 -40.6 13.25 -40.3 Q13.1 -39.55 13.7 -39.5 L13.5 -39.25 13.3 -39.45 12.95 -39.45 12.75 -39.25 Q12.4 -38.7 12.95 -38.4 L13.3 -38.4 13.45 -38.6 13.55 -38.7 13.55 -38.65 13.65 -38.6 13.7 -38.55 14.0 -38.45 14.0 -38.4 13.95 -38.4 13.8 -38.4 Q13.35 -38.3 13.4 -37.8 13.45 -37.3 13.9 -37.25 L13.85 -37.1 13.85 -37.0 13.65 -37.2 13.45 -37.2 13.25 -37.8 13.25 -37.85 Q13.1 -38.35 12.6 -38.4 L12.55 -38.4 12.4 -39.45 12.0 -37.65 12.1 -37.75 12.1 -37.45 11.35 -37.9 10.8 -38.5 10.55 -38.45 10.5 -38.3 9.3 -38.65 8.95 -38.6 8.3 -38.55 7.75 -38.55 7.1 -38.5 6.8 -38.7 6.4 -38.4 5.65 -38.3 5.35 -38.45 5.1 -38.2 3.2 -37.9 2.0 -35.05 2.25 -34.95 Q2.0 -34.55 2.25 -34.05 L2.85 -33.4 Q3.8 -32.8 5.0 -32.85 L5.85 -32.7 7.6 -32.8 8.15 -32.9 8.25 -33.05 8.45 -33.15 9.7 -33.75 10.55 -33.6 10.65 -33.4 Q10.95 -33.2 11.35 -33.15 L11.35 -33.05 Q11.45 -32.6 11.75 -32.45 L11.7 -32.2 11.7 -32.1 11.7 -31.95 Q11.85 -31.3 12.35 -31.3 M12.4 -30.1 L12.4 -30.05 12.35 -30.05 12.4 -30.1 M8.45 -28.25 L8.35 -28.25 8.35 -28.35 8.45 -28.25 M4.8 -26.65 L4.75 -26.65 4.75 -26.85 4.8 -26.65 M-2.35 -34.25 L-2.1 -33.8 -2.1 -33.55 -2.0 -33.05 -1.85 -32.85 -1.6 -33.25 -0.75 -32.65 -0.55 -32.4 -0.45 -32.35 1.95 -28.2 1.3 -28.1 -1.55 -28.5 -1.8 -28.6 -3.05 -29.1 -3.4 -29.4 -2.8 -30.05 -2.6 -32.8 -3.5 -33.05 -3.1 -34.45 -2.35 -34.25 M-18.3 42.85 L-17.85 43.35 Q-16.55 44.6 -14.95 44.75 L-14.65 45.3 -13.25 45.0 -12.95 46.1 -12.5 45.25 -11.1 45.75 -11.5 46.65 -10.4 47.3 -9.6 46.7 -9.0 47.25 -9.0 47.4 -9.75 47.6 -8.6 47.9 -8.25 47.3 -7.05 47.6 -6.85 48.65 -5.8 49.5 -6.15 47.45 -4.4 50.2 -4.7 50.6 -3.65 50.55 -3.95 49.2 -2.55 49.95 -2.2 48.95 -1.1 50.2 -1.35 51.25 -0.45 51.5 0.0 50.9 0.65 51.85 Q1.3 52.5 2.15 52.75 L1.5 51.0 2.2 50.05 2.45 51.2 3.1 51.7 3.6 51.5 3.15 50.15 4.9 50.25 3.9 50.3 4.55 52.55 4.5 51.25 4.9 51.1 5.15 50.7 5.75 51.35 6.75 50.6 6.1 49.75 7.1 49.4 7.35 50.35 8.2 50.35 9.05 48.75 9.35 49.4 10.1 49.1 11.15 49.8 12.0 50.45 12.85 50.0 13.4 50.35 13.1 51.15 13.25 51.95 9.85 50.2 8.9 50.1 7.95 51.45 8.45 52.75 12.85 53.55 12.25 54.9 11.8 55.05 12.1 54.6 12.05 54.15 11.0 53.5 9.6 54.5 9.4 54.1 8.75 53.75 7.9 54.7 8.95 55.45 9.65 54.95 10.55 55.65 11.1 55.65 11.25 56.55 11.0 57.1 11.2 57.95 8.75 58.5 8.05 59.3 9.05 59.75 9.3 58.8 10.9 59.1 10.6 59.75 8.8 60.25 9.6 60.8 8.9 61.3 8.25 60.85 8.1 60.65 8.0 60.65 Q7.7 59.45 6.9 60.1 L6.9 61.3 6.65 61.7 7.6 61.8 7.75 62.2 9.25 62.75 Q9.55 64.1 10.35 63.4 L8.25 65.8 9.15 63.5 8.9 63.05 7.95 62.4 7.0 63.25 6.5 63.35 6.5 63.85 7.25 64.0 6.05 64.85 5.1 64.6 5.65 64.0 6.0 61.45 4.45 60.85 3.7 61.85 4.1 63.1 3.75 63.7 4.6 64.85 4.4 65.2 4.1 65.25 2.7 65.55 1.8 66.85 0.9 67.3 0.7 68.45 1.25 69.05 1.05 69.9 -0.05 70.15 -0.95 69.35 -0.35 69.35 0.15 68.8 0.2 68.1 -1.15 67.7 -1.65 68.4 -2.3 67.5 -2.5 65.7 -2.35 65.55 Q-2.2 65.0 -2.6 65.15 L-2.95 64.25 -4.55 64.3 -4.75 63.9 -4.6 63.05 -4.1 62.7 -3.1 62.65 -2.9 63.1 -2.8 63.2 -2.45 63.5 -2.5 64.6 -1.8 64.2 -2.15 63.65 -1.75 63.4 -1.55 63.15 -1.6 63.0 -1.7 62.75 Q-2.1 62.3 -2.75 62.75 L-2.8 62.65 -2.9 61.1 -2.55 60.55 -2.15 60.4 -2.15 60.95 -2.35 61.2 Q-2.3 61.95 -2.05 61.3 L-0.95 61.65 -0.4 60.7 -1.55 60.0 -1.2 59.0 -2.9 58.5 -3.55 60.5 Q-3.75 61.75 -4.95 62.15 L-5.6 62.1 -6.35 61.3 -6.15 58.95 -6.1 58.7 -6.5 58.7 -6.7 58.55 -7.25 57.55 -7.15 56.8 -6.0 55.45 -5.05 55.5 -4.25 56.45 -3.65 54.05 -4.3 53.4 -4.75 54.75 -5.7 54.6 -6.05 54.0 -6.7 54.05 -7.1 53.8 -7.05 52.55 -6.45 52.3 -7.2 51.5 -8.25 52.5 -9.2 52.15 -8.8 50.55 -8.25 50.45 -8.0 49.9 -7.55 49.7 -7.85 49.15 -8.7 48.7 -9.45 48.95 -8.9 49.75 -9.05 50.25 -10.0 50.95 -11.2 49.8 -10.85 48.85 -11.3 48.1 -12.45 48.55 -11.9 49.85 -12.7 50.9 -14.2 50.3 -13.95 48.65 -14.35 48.15 -14.15 46.8 -15.45 47.35 -15.7 48.15 -16.65 48.05 -16.55 47.25 -16.35 47.1 -15.95 47.15 -15.8 46.55 -18.2 47.95 -18.4 46.9 -19.15 46.4 -18.7 42.7 -18.65 42.35 -18.3 42.85 M11.75 48.85 L11.7 48.6 11.85 48.7 11.75 48.85 M22.25 43.55 L23.1 46.0 22.35 45.6 22.45 44.9 21.95 44.4 22.25 43.55 M22.25 53.75 L20.15 55.1 Q14.75 58.65 10.4 63.35 L10.15 62.3 10.2 62.2 10.85 61.8 11.25 62.05 11.7 61.6 10.9 61.15 11.35 60.3 11.9 60.0 13.15 60.05 13.05 59.35 12.6 59.55 12.2 59.35 14.85 58.75 14.95 58.55 Q15.55 57.5 14.8 57.05 L14.5 56.3 Q14.2 56.0 13.75 56.0 L13.65 55.75 14.9 56.3 16.0 57.45 16.15 56.8 15.65 55.95 16.2 55.25 17.3 55.25 17.7 54.25 17.85 54.15 19.45 53.8 20.4 53.05 22.5 52.6 Q23.35 52.1 23.35 51.45 L23.9 52.15 22.25 53.75 M8.1 66.05 L7.45 66.75 6.85 66.95 Q6.85 66.6 7.25 66.35 7.6 66.05 8.1 66.05 M6.7 67.7 Q5.45 70.35 3.05 71.0 L2.35 71.15 4.5 70.0 3.15 69.65 Q3.6 69.65 3.95 69.2 L4.25 68.15 4.65 68.25 4.95 68.0 5.5 68.1 6.75 67.15 6.7 67.7 M8.9 -65.95 L9.05 -65.5 Q9.2 -65.35 9.45 -65.35 L9.85 -65.5 10.0 -65.95 9.85 -66.35 9.45 -66.55 9.05 -66.35 Q8.9 -66.2 8.9 -65.95 M8.8 -67.0 L8.45 -67.15 8.15 -67.0 8.0 -66.7 8.15 -66.35 8.45 -66.25 8.8 -66.35 8.9 -66.7 8.8 -67.0 M9.1 -67.5 Q9.4 -66.95 9.25 -67.45 L9.1 -67.5 M9.65 -64.85 L9.55 -65.1 9.3 -65.25 Q9.15 -65.25 9.05 -65.1 L8.95 -64.85 9.05 -64.55 9.3 -64.45 9.55 -64.55 9.65 -64.85 M9.55 -63.85 L9.25 -63.7 9.1 -63.4 Q9.1 -63.2 9.25 -63.05 9.35 -62.95 9.55 -62.95 L9.9 -63.05 10.0 -63.4 9.9 -63.7 9.55 -63.85 M10.05 -64.05 L10.05 -64.5 9.6 -64.5 9.6 -64.05 10.05 -64.05 M7.75 -62.55 L8.2 -63.2 7.75 -64.55 6.2 -65.1 5.6 -64.35 5.95 -63.6 Q6.55 -62.6 7.75 -62.55 M8.9 -52.95 L9.35 -52.95 8.05 -53.4 8.2 -53.8 9.1 -53.5 9.45 -53.0 9.65 -53.0 9.0 -52.6 8.9 -52.95 M9.95 -51.5 L9.8 -51.95 9.85 -51.95 9.95 -51.5 M9.2 -49.85 L8.75 -49.25 9.2 -48.85 9.4 -48.65 8.65 -48.6 Q4.95 -49.5 3.0 -53.15 L3.3 -53.15 3.45 -53.45 Q3.7 -54.2 2.9 -54.25 L2.65 -54.0 2.65 -54.35 1.95 -54.85 2.45 -55.5 2.95 -55.5 3.5 -54.7 3.8 -54.4 4.8 -53.0 Q5.45 -51.65 6.6 -50.7 7.1 -50.35 7.65 -50.25 L8.3 -50.25 8.75 -50.3 8.8 -50.15 Q8.9 -49.85 9.15 -49.8 L9.2 -49.85 M0.85 -56.05 L0.95 -56.1 1.0 -55.95 0.85 -56.05 M1.2 -55.85 L1.35 -55.8 1.35 -55.75 1.2 -55.85 M-1.4 -59.75 L-1.9 -59.55 Q-2.2 -59.55 -2.4 -59.75 L-2.6 -60.25 -2.4 -60.75 -1.9 -60.95 -1.4 -60.75 -1.2 -60.25 -1.4 -59.75 M-0.7 -59.85 L-0.35 -60.0 0.0 -59.85 0.15 -59.55 0.0 -59.2 -0.35 -59.1 -0.7 -59.2 -0.85 -59.55 -0.7 -59.85 M-2.8 -58.45 L-2.35 -58.65 -1.9 -58.45 -1.7 -58.0 -1.9 -57.55 Q-2.1 -57.35 -2.35 -57.35 L-2.8 -57.55 -3.0 -58.0 -2.8 -58.45 M-1.3 -55.0 Q-1.45 -54.85 -1.65 -54.85 -1.85 -54.85 -2.0 -55.0 L-2.15 -55.35 -2.0 -55.7 -1.65 -55.85 -1.3 -55.7 -1.15 -55.35 Q-1.15 -55.15 -1.3 -55.0 M-3.7 -56.95 Q-2.85 -55.7 -4.05 -54.55 L-4.3 -54.3 -4.85 -54.1 -5.85 -54.5 -5.55 -56.35 -5.15 -55.25 -4.8 -55.1 -4.35 -55.35 -3.7 -56.95 M11.1 -56.9 L12.4 -58.0 11.55 -57.8 Q10.55 -57.95 11.1 -56.9 M11.95 -56.65 L12.15 -56.25 12.35 -56.65 11.95 -56.65 M12.6 -58.0 L12.6 -57.55 13.05 -57.55 13.05 -58.0 12.6 -58.0 M13.25 -59.3 L12.85 -59.1 12.7 -58.7 Q12.7 -58.45 12.85 -58.25 L13.25 -58.1 Q13.5 -58.1 13.65 -58.25 L13.8 -58.7 13.65 -59.1 13.25 -59.3 M11.3 -59.45 L10.95 -59.6 10.6 -59.45 10.45 -59.1 Q10.45 -58.9 10.6 -58.75 10.75 -58.6 10.95 -58.6 L11.3 -58.75 11.45 -59.1 11.3 -59.45 M11.8 -59.65 Q11.8 -59.45 11.95 -59.3 12.1 -59.15 12.3 -59.15 12.5 -59.15 12.65 -59.3 L12.8 -59.65 12.65 -60.0 12.3 -60.15 11.95 -60.0 11.8 -59.65 M14.0 -60.3 L13.85 -60.75 13.4 -60.95 Q13.15 -60.95 13.0 -60.75 L12.8 -60.3 13.0 -59.85 Q13.15 -59.65 13.4 -59.65 L13.85 -59.85 14.0 -60.3 M13.6 -56.9 Q13.05 -56.3 13.7 -56.8 L13.6 -56.9 M10.65 -56.2 L10.55 -56.5 10.25 -56.65 10.0 -56.5 9.85 -56.2 10.0 -55.85 10.25 -55.75 10.55 -55.85 10.65 -56.2 M9.75 -57.6 L9.9 -58.05 9.75 -58.45 9.35 -58.65 8.95 -58.45 8.8 -58.05 Q8.8 -57.8 8.95 -57.6 L9.35 -57.45 Q9.6 -57.45 9.75 -57.6 M12.9 -51.8 L12.3 -52.1 12.2 -52.45 12.65 -52.4 12.9 -51.8 M11.85 -53.75 L11.95 -54.0 11.85 -54.25 11.6 -54.35 11.35 -54.25 11.25 -54.0 11.35 -53.75 Q11.45 -53.65 11.6 -53.65 L11.85 -53.75 M11.4 -55.25 L11.65 -55.15 Q11.8 -55.15 11.9 -55.25 L12.0 -55.55 11.9 -55.8 11.65 -55.95 11.4 -55.8 11.3 -55.55 11.4 -55.25 M12.6 -54.75 L12.45 -54.45 Q12.45 -54.25 12.6 -54.1 L12.9 -54.0 13.25 -54.1 13.35 -54.45 13.25 -54.75 12.9 -54.9 12.6 -54.75 M13.1 -55.45 L13.05 -55.65 12.85 -55.75 12.7 -55.65 12.6 -55.45 12.7 -55.25 12.85 -55.15 Q12.95 -55.15 13.05 -55.25 L13.1 -55.45 M11.65 -52.1 L11.4 -52.2 Q12.75 -52.25 11.65 -52.1 M15.7 -51.6 L15.65 -51.6 15.7 -51.65 15.75 -51.6 15.7 -51.6 M16.15 -51.55 L16.3 -51.45 16.35 -51.3 16.15 -51.55 M16.15 -62.6 L16.1 -62.6 16.15 -62.65 16.15 -62.6 M14.7 -52.6 L14.9 -52.95 Q15.3 -52.5 14.7 -52.6 M16.7 -54.1 L16.85 -53.9 16.7 -53.7 16.35 -53.6 16.0 -53.7 15.85 -53.9 16.0 -54.1 16.35 -54.2 16.7 -54.1 M5.05 -34.25 L5.0 -34.25 5.05 -34.3 5.05 -34.25 M9.75 -49.5 Q10.45 -49.4 9.85 -49.45 L9.75 -49.5 M9.75 -48.0 L9.8 -48.1 9.8 -48.0 9.75 -48.0 M9.95 -45.75 L10.0 -46.1 10.1 -46.1 10.05 -46.0 9.95 -45.75 M10.2 -46.1 L10.35 -46.0 10.15 -45.85 10.2 -46.1 M10.05 -37.05 L10.15 -37.4 10.25 -37.3 10.2 -37.2 10.05 -37.05 M15.65 -39.95 L15.7 -39.85 15.5 -39.9 15.65 -39.95 M-3.75 -39.95 L-4.3 -39.75 Q-4.6 -39.75 -4.8 -39.95 L-5.05 -40.55 -4.8 -41.1 -4.3 -41.35 -3.75 -41.1 -3.55 -40.55 -3.75 -39.95 M-0.8 -37.45 L-3.15 -45.4 Q-0.2 -43.2 -0.6 -39.55 L-0.8 -37.45 M-4.0 -37.5 L-4.1 -37.25 -4.35 -37.15 -4.6 -37.25 -4.7 -37.5 -4.6 -37.75 -4.35 -37.85 -4.1 -37.75 -4.0 -37.5 M3.65 -43.4 L3.45 -42.95 3.65 -42.5 4.1 -42.3 Q4.35 -42.3 4.55 -42.5 L4.75 -42.95 4.55 -43.4 4.1 -43.6 3.65 -43.4 M5.65 -43.1 L5.35 -43.25 5.1 -43.1 4.95 -42.8 5.1 -42.45 5.35 -42.35 5.65 -42.45 5.75 -42.8 5.65 -43.1 M-3.6 -36.1 L-3.85 -36.2 -4.0 -36.55 -3.85 -36.85 -3.6 -37.0 -3.3 -36.85 -3.2 -36.55 -3.3 -36.2 -3.6 -36.1 M-4.05 -35.75 L-3.55 -36.0 -3.05 -35.75 -2.85 -35.25 -3.05 -34.7 Q-3.25 -34.5 -3.55 -34.5 L-4.05 -34.7 -4.25 -35.25 -4.05 -35.75 M-3.85 -33.3 Q-4.1 -33.1 -4.45 -33.1 -4.8 -33.1 -5.0 -33.3 L-5.25 -33.9 -5.0 -34.45 -4.45 -34.7 -3.85 -34.45 -3.65 -33.9 -3.85 -33.3 M-1.75 -29.25 L-1.6 -29.55 -1.9 -29.55 -1.75 -29.25 M13.0 -35.15 L13.2 -35.05 13.15 -35.05 13.0 -35.1 13.0 -35.15 M8.3 -29.15 Q9.3 -30.55 9.05 -29.25 L8.3 -29.15 M-6.0 -50.85 L-5.5 -49.25 -4.25 -48.35 -4.85 -47.85 -6.75 -49.15 -6.8 -49.55 -5.9 -51.45 -6.0 -50.85 M-6.15 -35.85 Q-6.3 -35.7 -6.55 -35.7 -6.8 -35.7 -6.95 -35.85 L-7.1 -36.3 -6.95 -36.7 -6.55 -36.9 -6.15 -36.7 -6.0 -36.3 Q-6.0 -36.05 -6.15 -35.85 M-5.85 -35.5 L-5.7 -35.8 -5.4 -35.95 -5.05 -35.8 -4.95 -35.5 -5.05 -35.15 -5.4 -35.05 -5.7 -35.15 -5.85 -35.5 M-11.9 54.35 L-11.1 53.0 -11.15 53.0 -11.1 52.7 -10.35 52.75 -10.25 53.05 -9.45 53.6 -8.9 54.45 -8.95 55.3 -8.2 55.3 -7.45 56.15 -7.4 56.7 -8.0 57.7 -8.7 57.8 -9.2 57.7 -9.75 57.25 -10.7 56.65 -11.05 56.6 -11.8 56.05 -12.0 54.75 -11.9 54.35 M15.8 48.25 L16.5 47.05 16.85 47.3 16.9 47.85 16.35 48.3 15.8 48.25 M16.15 48.7 L15.7 50.25 15.95 48.85 16.15 48.7 M20.15 42.95 L20.1 43.45 19.7 43.2 20.15 42.95 M18.85 48.8 L19.7 47.45 19.4 49.15 18.45 50.2 18.2 50.0 18.25 49.4 18.4 48.95 18.85 48.8 M22.6 48.25 L22.75 48.65 22.0 48.4 22.6 48.25 M16.7 53.55 L16.75 53.45 Q17.15 53.85 16.7 53.55 M18.1 54.9 L18.25 55.15 18.5 55.25 18.8 55.15 18.9 54.9 18.8 54.65 18.5 54.55 18.25 54.65 18.1 54.9 M16.75 55.7 L16.65 55.45 16.45 55.35 16.25 55.45 16.15 55.7 16.25 55.95 16.45 56.05 16.65 55.95 16.75 55.7 M15.35 51.5 L15.75 50.75 16.75 51.6 15.35 51.5 M6.6 52.3 L6.05 52.3 6.05 52.85 6.6 52.85 6.6 52.3 M6.65 51.5 L6.8 51.8 7.1 51.9 7.45 51.8 7.55 51.5 7.45 51.25 Q7.3 51.1 7.1 51.1 6.9 51.1 6.8 51.25 6.65 51.35 6.65 51.5 M10.65 56.85 L10.45 56.35 9.1 55.85 8.55 56.4 7.8 56.2 7.0 57.75 8.45 58.2 8.9 57.35 9.4 57.65 9.85 57.65 10.65 56.85 M7.25 56.15 L7.25 55.85 7.0 55.85 7.0 56.15 7.25 56.15 M5.95 59.9 L6.35 60.05 6.8 59.9 6.95 59.5 6.8 59.1 6.35 58.95 Q6.1 58.95 5.95 59.1 L5.75 59.5 5.95 59.9 M13.25 58.35 L12.55 58.6 12.55 58.1 12.8 58.0 13.25 58.35 M-1.35 52.45 L-1.5 52.95 -1.35 53.45 -1.05 53.65 -0.7 53.45 -0.6 52.95 -0.7 52.45 Q-0.85 52.25 -1.05 52.25 L-1.35 52.45 M-1.9 50.65 L-2.65 50.25 -2.6 51.15 -2.0 51.85 -1.7 51.45 -1.9 50.65 M4.05 53.3 L3.95 53.05 Q3.85 52.9 3.7 52.9 L3.45 53.05 3.35 53.3 3.45 53.6 3.7 53.7 3.95 53.6 4.05 53.3 M0.5 56.0 L0.0 57.1 -0.55 57.6 1.35 57.6 1.9 56.1 1.65 55.75 0.5 56.0 M-0.5 54.5 Q-0.75 54.25 -1.05 54.25 L-1.55 54.5 -1.8 55.05 -1.55 55.65 -1.05 55.85 -0.5 55.65 -0.3 55.05 -0.5 54.5 M-3.1 56.2 L-3.4 55.9 -4.25 56.65 -4.65 58.0 -3.45 58.65 -3.15 57.5 Q-2.95 56.8 -3.1 56.2 M3.1 61.05 L3.6 61.0 4.1 60.0 3.7 60.15 3.1 61.05 M1.85 64.5 L1.15 63.85 0.6 64.6 0.25 65.75 0.95 66.9 2.1 65.95 2.15 65.5 1.65 65.05 1.85 64.5 M2.0 62.55 L1.8 61.9 Q1.55 61.6 1.2 61.6 0.85 61.6 0.65 61.9 0.4 62.15 0.4 62.55 L0.65 63.25 1.2 63.5 1.8 63.25 2.0 62.55 M3.55 64.3 L3.35 63.9 2.9 63.7 2.45 63.9 2.25 64.3 2.45 64.75 2.9 64.9 3.35 64.75 3.55 64.3 M-0.35 65.85 L-1.55 65.3 -1.95 65.55 -2.05 66.95 -0.7 67.25 -0.3 66.0 -0.1 65.95 Q0.35 65.1 -0.35 65.85" fill="#a67400" fill-rule="evenodd" stroke="none"/>
    <path d="M9.95 -67.9 L10.5 -67.85 Q9.8 -67.05 9.9 -67.8 L9.95 -67.9 M12.85 -66.75 L13.45 -66.9 13.7 -66.35 15.05 -65.85 15.35 -64.85 16.4 -64.25 16.45 -63.6 17.5 -63.15 17.25 -62.35 17.75 -61.85 17.75 -60.85 17.7 -60.75 17.9 -60.3 17.1 -60.0 17.85 -58.7 18.1 -58.3 18.2 -56.25 18.6 -55.8 18.5 -55.1 18.8 -54.65 18.55 -53.75 18.65 -53.6 19.1 -52.95 19.15 -52.3 19.1 -52.2 19.75 -51.25 17.0 -51.4 16.95 -50.35 16.25 -50.2 16.05 -50.15 15.4 -49.85 16.35 -50.65 16.35 -50.8 16.35 -51.3 16.3 -51.45 16.15 -51.55 15.75 -51.6 15.7 -51.65 15.65 -51.6 15.7 -51.6 Q16.05 -51.25 15.4 -51.15 L14.95 -51.2 14.35 -50.25 14.2 -50.3 Q13.65 -50.5 13.65 -49.95 L13.65 -50.1 13.55 -50.1 Q13.5 -50.75 12.8 -50.75 L12.75 -50.75 12.7 -50.7 12.65 -50.7 12.5 -50.2 12.55 -49.95 12.1 -49.8 Q11.6 -49.6 11.75 -49.25 L11.7 -49.05 11.55 -48.65 10.85 -48.5 10.75 -48.6 11.25 -47.8 11.2 -47.85 11.15 -47.95 Q10.45 -49.0 9.2 -48.85 L8.75 -49.25 9.2 -49.85 9.6 -49.85 Q10.1 -49.45 10.6 -49.95 L10.65 -50.2 10.2 -51.15 10.1 -51.35 9.95 -51.5 9.8 -51.6 9.55 -52.0 8.9 -52.1 8.7 -52.2 8.25 -52.2 8.25 -52.25 8.15 -52.35 9.0 -52.6 9.65 -53.0 9.45 -53.0 9.1 -53.5 8.2 -53.8 8.05 -53.4 9.35 -52.95 8.9 -52.95 7.45 -53.05 7.35 -52.8 7.15 -53.0 6.55 -53.5 6.55 -53.65 7.0 -53.45 7.45 -53.65 7.65 -54.1 7.45 -54.55 7.0 -54.75 6.55 -54.55 6.4 -54.2 5.85 -54.4 5.65 -54.7 7.25 -55.6 6.55 -56.9 5.6 -56.0 5.6 -54.8 5.45 -55.2 5.0 -55.65 5.0 -55.95 4.85 -56.2 4.75 -56.15 6.35 -57.4 3.75 -59.75 2.9 -59.55 2.35 -57.9 2.1 -58.6 1.65 -58.45 0.95 -56.65 1.1 -57.0 0.8 -56.9 Q0.2 -56.7 0.45 -56.1 L0.25 -56.15 Q0.35 -58.1 2.1 -59.15 L3.4 -60.15 5.75 -59.2 6.85 -57.4 7.8 -56.7 7.85 -56.8 8.25 -56.25 7.75 -55.6 8.9 -55.8 8.8 -54.7 9.8 -54.7 9.8 -54.55 9.85 -54.15 9.85 -54.05 10.35 -54.2 10.8 -54.0 10.6 -52.15 10.85 -53.05 11.75 -53.15 13.6 -54.15 13.15 -52.9 13.8 -52.75 14.1 -52.75 14.0 -53.3 14.6 -53.8 15.15 -53.35 15.0 -54.4 15.85 -54.9 16.2 -55.9 14.75 -55.55 15.15 -55.4 15.3 -55.05 15.15 -54.7 14.75 -54.55 Q14.5 -54.55 14.35 -54.7 14.2 -54.85 14.2 -55.05 L14.35 -55.4 14.55 -55.5 13.4 -55.25 13.75 -56.2 14.15 -56.45 13.7 -56.8 14.15 -58.2 14.7 -58.35 13.95 -59.15 15.25 -60.75 14.55 -61.2 13.3 -61.0 13.35 -62.15 13.7 -62.7 13.6 -62.65 13.4 -62.8 13.25 -63.0 13.25 -63.35 13.45 -63.55 13.65 -63.7 13.75 -63.75 13.45 -63.75 13.0 -63.25 12.6 -62.3 12.7 -61.85 12.05 -60.4 11.05 -60.5 10.25 -61.7 10.1 -62.1 Q9.95 -62.55 10.4 -62.75 L10.4 -62.6 11.2 -61.2 12.25 -63.15 11.45 -63.3 11.4 -63.35 11.6 -63.35 11.95 -63.5 12.2 -64.1 Q11.05 -63.35 10.9 -64.1 12.3 -64.3 10.2 -65.0 L10.6 -65.8 11.45 -65.25 12.15 -65.9 10.8 -65.85 Q9.6 -66.35 10.1 -67.0 11.45 -65.7 12.75 -66.6 L12.85 -66.75 M18.35 -48.55 L17.75 -47.65 17.3 -47.45 16.45 -47.65 16.55 -48.3 16.35 -48.6 17.2 -48.75 17.25 -48.4 17.45 -48.15 18.0 -48.05 18.35 -48.55 M11.35 -47.7 L11.4 -47.6 11.55 -47.45 11.4 -47.5 11.35 -47.7 M13.3 -34.15 L13.15 -33.8 Q13.35 -33.55 13.15 -33.25 L12.95 -33.1 13.0 -33.1 13.1 -34.1 13.15 -34.15 13.3 -34.15 M12.6 -31.35 L12.55 -31.3 12.55 -31.35 12.6 -31.35 M12.35 -31.1 L12.5 -30.4 12.4 -30.1 12.35 -30.05 12.4 -30.05 12.75 -29.55 12.05 -29.05 Q11.75 -28.6 11.75 -27.9 L10.6 -28.15 Q10.6 -28.95 11.15 -29.5 11.5 -29.9 12.05 -30.0 11.35 -30.05 11.5 -30.85 L11.7 -31.15 11.8 -31.2 12.35 -31.1 M9.55 -28.45 L8.45 -28.25 8.35 -28.35 8.35 -28.25 7.5 -27.85 6.7 -28.2 7.35 -29.4 6.8 -29.35 6.25 -30.45 5.2 -30.65 5.35 -31.35 5.95 -31.0 6.75 -31.15 7.2 -31.7 8.6 -31.55 10.7 -32.3 10.4 -31.45 10.85 -30.65 10.15 -30.95 10.05 -30.85 10.0 -30.75 10.1 -30.45 9.3 -29.3 9.55 -28.45 M6.15 -26.8 L4.8 -26.65 4.75 -26.85 Q4.75 -27.35 4.2 -27.65 L2.85 -28.0 2.8 -28.55 Q4.2 -28.55 5.2 -28.0 6.15 -27.5 6.15 -26.8 M11.15 49.8 L11.35 49.15 11.75 48.85 11.85 48.7 11.7 48.6 11.3 47.7 12.25 48.0 12.65 47.3 12.25 46.65 11.8 46.6 13.75 46.75 13.3 47.45 13.85 48.4 14.45 47.35 15.65 47.05 15.75 46.1 16.15 46.05 18.3 47.8 18.95 47.8 19.35 46.7 19.85 46.7 20.2 46.2 20.15 45.6 21.4 46.45 22.35 45.7 21.9 45.05 21.95 44.5 21.6 44.05 22.5 42.95 22.25 43.55 21.95 44.4 22.45 44.9 22.35 45.6 23.1 46.0 23.4 46.7 23.4 46.9 22.6 48.25 22.0 48.4 22.75 48.65 23.25 49.4 22.9 50.35 23.3 50.9 23.35 51.45 Q23.35 52.1 22.5 52.6 L20.4 53.05 20.15 52.8 19.9 52.85 19.45 53.8 17.85 54.15 17.65 54.1 17.7 54.25 17.3 55.25 16.2 55.25 15.65 55.95 14.9 56.3 13.65 55.75 12.85 56.1 13.75 56.0 Q14.2 56.0 14.5 56.3 L14.8 57.05 14.35 58.0 13.25 58.35 12.8 58.0 12.7 57.9 12.55 58.1 12.55 58.6 11.9 59.35 11.9 60.0 11.35 60.3 10.85 60.15 10.6 59.75 10.9 59.1 11.2 57.95 11.0 57.1 11.25 56.55 11.1 55.65 10.55 55.65 9.65 54.95 8.95 55.45 7.9 54.7 8.75 53.75 9.4 54.1 9.6 54.5 11.0 53.5 12.05 54.15 12.1 54.6 11.8 55.05 12.25 54.9 12.85 53.55 8.45 52.75 7.95 51.45 8.9 50.1 9.85 50.2 13.25 51.95 13.1 51.15 13.4 50.35 12.85 50.0 12.0 50.45 11.15 49.8 M8.25 65.8 L8.1 66.05 Q7.6 66.05 7.25 66.35 6.85 66.6 6.85 66.95 L6.75 67.15 5.5 68.1 4.95 68.0 4.25 68.15 3.95 69.2 Q3.6 69.65 3.15 69.65 L2.95 70.4 2.25 70.8 1.45 70.6 Q1.1 70.3 1.05 69.9 L1.25 69.05 0.7 68.45 0.9 67.3 1.8 66.85 2.7 65.55 4.1 65.25 4.4 65.2 4.6 64.85 3.75 63.7 4.1 63.1 3.7 61.85 4.45 60.85 6.0 61.45 5.65 64.0 5.1 64.6 6.05 64.85 7.25 64.0 Q7.25 63.6 7.75 63.35 L8.9 63.05 9.15 63.5 8.25 65.8 M-0.95 69.35 L-1.45 69.1 -1.65 68.4 -1.15 67.7 0.2 68.1 0.15 68.8 -0.35 69.35 -0.95 69.35 M-8.0 61.05 L-8.35 61.65 -8.75 60.3 -8.15 59.4 -8.75 59.7 -9.7 59.45 -10.2 59.0 -10.7 56.65 -9.75 57.25 -9.6 58.4 -9.2 57.7 -8.7 57.8 -8.45 58.1 -8.0 57.7 -7.4 56.7 -7.45 56.15 -7.15 56.8 -7.25 57.55 -6.95 58.3 -7.2 59.25 -6.7 58.55 -6.5 58.7 -6.1 58.7 -6.15 58.95 -6.35 61.3 Q-7.15 60.95 -8.0 60.55 L-8.0 61.05 M-11.05 58.25 L-12.95 56.5 -13.95 56.4 -14.35 55.65 -15.6 55.1 -15.15 54.4 Q-14.2 54.45 -13.6 55.25 L-13.3 55.75 -12.65 55.35 -11.8 56.05 -11.05 56.6 -10.85 57.8 -11.05 58.25 M9.1 -67.5 L9.25 -67.45 Q9.4 -66.95 9.1 -67.5 M8.8 -67.0 L8.9 -66.7 8.8 -66.35 8.45 -66.25 8.15 -66.35 8.0 -66.7 8.15 -67.0 8.45 -67.15 8.8 -67.0 M8.9 -65.95 Q8.9 -66.2 9.05 -66.35 L9.45 -66.55 9.85 -66.35 10.0 -65.95 9.85 -65.5 9.45 -65.35 Q9.2 -65.35 9.05 -65.5 L8.9 -65.95 M7.2 -63.8 L7.3 -64.05 7.2 -64.3 6.85 -64.4 6.55 -64.3 6.4 -64.05 6.55 -63.8 Q6.65 -63.7 6.85 -63.7 L7.2 -63.8 M7.75 -62.55 Q6.55 -62.6 5.95 -63.6 L5.6 -64.35 6.2 -65.1 7.75 -64.55 8.2 -63.2 7.75 -62.55 M10.05 -64.05 L9.6 -64.05 9.6 -64.5 10.05 -64.5 10.05 -64.05 M9.55 -63.85 L9.9 -63.7 10.0 -63.4 9.9 -63.05 9.55 -62.95 Q9.35 -62.95 9.25 -63.05 9.1 -63.2 9.1 -63.4 L9.25 -63.7 9.55 -63.85 M9.65 -64.85 L9.55 -64.55 9.3 -64.45 9.05 -64.55 8.95 -64.85 9.05 -65.1 Q9.15 -65.25 9.3 -65.25 L9.55 -65.1 9.65 -64.85 M9.95 -51.5 L9.85 -51.95 9.8 -51.95 9.95 -51.5 M1.5 -64.4 L1.9 -64.5 2.05 -64.85 2.3 -64.95 3.85 -64.85 4.35 -63.3 3.25 -62.35 2.6 -62.75 Q2.15 -62.75 1.85 -63.2 1.5 -63.7 1.5 -64.4 M3.3 -64.45 L2.6 -64.7 1.9 -64.45 Q1.6 -64.25 1.6 -63.9 1.6 -63.55 1.9 -63.3 L2.6 -63.1 3.3 -63.3 3.6 -63.9 3.3 -64.45 M4.65 -56.3 L4.6 -56.3 4.65 -56.3 M4.25 -56.8 L4.1 -56.85 3.95 -57.1 3.8 -57.2 3.5 -57.25 3.45 -57.2 4.2 -58.55 4.95 -58.55 4.25 -56.8 M2.65 -53.8 L2.65 -54.0 2.9 -54.25 Q3.7 -54.2 3.45 -53.45 L3.3 -53.15 3.0 -53.15 2.8 -53.45 2.65 -53.8 M14.0 -60.3 L13.85 -59.85 13.4 -59.65 Q13.15 -59.65 13.0 -59.85 L12.8 -60.3 13.0 -60.75 Q13.15 -60.95 13.4 -60.95 L13.85 -60.75 14.0 -60.3 M11.8 -59.65 L11.95 -60.0 12.3 -60.15 12.65 -60.0 12.8 -59.65 12.65 -59.3 Q12.5 -59.15 12.3 -59.15 12.1 -59.15 11.95 -59.3 11.8 -59.45 11.8 -59.65 M11.3 -59.45 L11.45 -59.1 11.3 -58.75 10.95 -58.6 Q10.75 -58.6 10.6 -58.75 10.45 -58.9 10.45 -59.1 L10.6 -59.45 10.95 -59.6 11.3 -59.45 M13.25 -59.3 L13.65 -59.1 13.8 -58.7 13.65 -58.25 Q13.5 -58.1 13.25 -58.1 L12.85 -58.25 Q12.7 -58.45 12.7 -58.7 L12.85 -59.1 13.25 -59.3 M12.6 -58.0 L13.05 -58.0 13.05 -57.55 12.6 -57.55 12.6 -58.0 M11.95 -56.65 L12.35 -56.65 12.15 -56.25 11.95 -56.65 M11.1 -56.9 Q10.55 -57.95 11.55 -57.8 L12.4 -58.0 11.1 -56.9 M15.2 -57.5 L14.85 -57.65 14.5 -57.5 14.35 -57.1 Q14.35 -56.85 14.5 -56.7 14.65 -56.55 14.85 -56.55 15.05 -56.55 15.2 -56.7 L15.35 -57.1 15.2 -57.5 M13.6 -56.9 L13.7 -56.8 Q13.05 -56.3 13.6 -56.9 M9.75 -57.6 Q9.6 -57.45 9.35 -57.45 L8.95 -57.6 Q8.8 -57.8 8.8 -58.05 L8.95 -58.45 9.35 -58.65 9.75 -58.45 9.9 -58.05 9.75 -57.6 M10.65 -56.2 L10.55 -55.85 10.25 -55.75 10.0 -55.85 9.85 -56.2 10.0 -56.5 10.25 -56.65 10.55 -56.5 10.65 -56.2 M6.35 -52.3 L6.35 -52.1 6.0 -52.4 6.25 -52.45 6.3 -52.4 6.35 -52.35 6.35 -52.3 M13.1 -55.45 L13.05 -55.25 Q12.95 -55.15 12.85 -55.15 L12.7 -55.25 12.6 -55.45 12.7 -55.65 12.85 -55.75 13.05 -55.65 13.1 -55.45 M12.6 -54.75 L12.9 -54.9 13.25 -54.75 13.35 -54.45 13.25 -54.1 12.9 -54.0 12.6 -54.1 Q12.45 -54.25 12.45 -54.45 L12.6 -54.75 M11.4 -55.25 L11.3 -55.55 11.4 -55.8 11.65 -55.95 11.9 -55.8 12.0 -55.55 11.9 -55.25 Q11.8 -55.15 11.65 -55.15 L11.4 -55.25 M11.85 -53.75 L11.6 -53.65 Q11.45 -53.65 11.35 -53.75 L11.25 -54.0 11.35 -54.25 11.6 -54.35 11.85 -54.25 11.95 -54.0 11.85 -53.75 M12.9 -51.8 L12.65 -52.4 12.2 -52.45 12.3 -52.1 12.9 -51.8 M11.65 -52.1 Q12.75 -52.25 11.4 -52.2 L11.65 -52.1 M14.7 -52.6 Q15.3 -52.5 14.9 -52.95 L14.7 -52.6 M16.15 -62.6 L16.15 -62.65 16.1 -62.6 16.15 -62.6 M16.7 -54.1 L16.35 -54.2 16.0 -54.1 15.85 -53.9 16.0 -53.7 16.35 -53.6 16.7 -53.7 16.85 -53.9 16.7 -54.1 M19.05 -50.55 L19.45 -50.6 19.2 -50.35 19.05 -50.55 M12.55 -38.4 L12.35 -38.0 12.3 -37.95 12.1 -37.75 12.0 -37.65 12.4 -39.45 12.55 -38.4 M12.1 -37.45 L11.9 -37.2 11.85 -36.9 11.9 -36.75 11.6 -36.8 11.25 -36.4 Q11.1 -36.05 11.25 -35.75 L10.95 -35.7 10.9 -35.95 10.75 -36.4 11.3 -36.65 11.5 -37.4 11.4 -37.45 11.4 -37.65 11.35 -37.9 12.1 -37.45 M11.95 -36.4 L12.0 -35.5 11.8 -35.6 11.9 -35.45 Q11.7 -35.65 11.8 -35.9 L11.95 -36.4 M11.7 -32.2 L11.8 -32.15 11.8 -32.2 12.1 -31.85 11.8 -32.15 11.75 -32.15 11.7 -32.1 11.7 -32.2 M9.75 -49.5 L9.85 -49.45 Q10.45 -49.4 9.75 -49.5 M7.15 -47.6 Q7.8 -46.4 6.55 -47.3 L6.6 -47.5 7.15 -47.6 M10.35 -46.0 L10.35 -45.95 10.35 -45.9 10.15 -45.6 10.15 -45.85 10.35 -46.0 M7.1 -38.5 L7.75 -38.55 7.4 -37.95 7.4 -37.9 7.1 -37.45 7.1 -38.5 M8.3 -38.55 L8.95 -38.6 8.8 -37.9 8.3 -38.55 M9.3 -38.65 L10.5 -38.3 10.45 -38.25 10.45 -38.2 10.4 -38.25 10.4 -37.5 10.3 -37.4 10.25 -37.3 10.15 -37.4 9.3 -38.65 M5.65 -43.1 L5.75 -42.8 5.65 -42.45 5.35 -42.35 5.1 -42.45 4.95 -42.8 5.1 -43.1 5.35 -43.25 5.65 -43.1 M3.65 -43.4 L4.1 -43.6 4.55 -43.4 4.75 -42.95 4.55 -42.5 Q4.35 -42.3 4.1 -42.3 L3.65 -42.5 3.45 -42.95 3.65 -43.4 M5.7 -37.6 L5.65 -38.3 6.4 -38.4 5.85 -37.5 5.85 -37.6 5.7 -37.6 M8.3 -29.15 L9.05 -29.25 Q9.3 -30.55 8.3 -29.15 M-23.95 -18.0 L-24.05 -17.2 -25.8 -20.75 -25.5 -21.7 -21.1 -20.0 -24.8 -20.5 -23.95 -18.0 M-21.0 -19.35 L-21.0 -19.4 -21.0 -19.35 -21.25 -18.55 Q-22.1 -17.4 -22.65 -17.75 L-22.6 -17.8 -21.0 -19.35 M-14.25 19.75 L-14.4 19.75 -13.5 18.75 -14.25 19.75 M-11.45 39.25 L-11.5 39.2 -11.15 37.2 -11.0 38.6 -11.45 39.25 M2.4 41.2 L2.35 41.15 2.35 40.85 2.4 41.2 M9.6 16.8 L15.7 18.0 9.95 17.15 9.6 16.8 M4.35 33.45 L3.55 30.95 4.45 31.75 4.35 33.45 M3.85 42.85 L3.45 42.6 3.25 41.9 3.95 42.15 3.85 42.85 M15.8 48.25 L15.95 48.85 15.7 50.25 16.15 48.7 16.35 48.3 16.9 47.85 16.85 47.3 16.5 47.05 15.8 48.25 M20.15 42.95 L21.15 41.75 21.25 42.3 20.7 42.6 20.65 43.8 20.1 43.45 20.15 42.95 M20.0 45.5 L19.05 45.35 18.6 46.1 18.7 45.25 17.2 44.5 18.05 44.6 18.7 43.9 19.35 45.05 19.4 45.05 20.0 45.5 M18.85 48.8 L18.4 48.95 18.25 49.4 18.2 50.0 18.45 50.2 19.4 49.15 19.7 47.45 18.85 48.8 M22.0 47.25 Q21.8 47.25 21.65 47.4 L21.5 47.75 21.65 48.1 22.0 48.25 22.35 48.1 22.5 47.75 22.35 47.4 22.0 47.25 M10.2 62.2 L10.15 62.3 9.9 62.65 9.25 62.75 7.75 62.2 7.6 61.8 Q7.7 61.35 7.25 61.3 L6.9 61.3 6.9 60.1 Q7.7 59.45 8.0 60.65 L8.25 60.85 8.9 61.3 9.6 60.8 10.45 61.3 10.85 60.9 10.2 62.2 M16.7 53.55 Q17.15 53.85 16.75 53.45 L16.7 53.55 M15.35 51.5 L16.75 51.6 15.75 50.75 15.35 51.5 M10.65 56.85 L9.85 57.65 9.4 57.65 8.9 57.35 8.45 58.2 7.0 57.75 7.8 56.2 8.55 56.4 9.1 55.85 10.45 56.35 10.65 56.85 M5.95 59.9 L5.75 59.5 5.95 59.1 Q6.1 58.95 6.35 58.95 L6.8 59.1 6.95 59.5 6.8 59.9 6.35 60.05 5.95 59.9 M9.3 58.8 L9.05 59.75 8.05 59.3 8.75 58.5 9.3 58.8 M3.55 64.3 L3.35 64.75 2.9 64.9 2.45 64.75 2.25 64.3 2.45 63.9 2.9 63.7 3.35 63.9 3.55 64.3 M2.0 62.55 L1.8 63.25 1.2 63.5 0.65 63.25 0.4 62.55 Q0.4 62.15 0.65 61.9 0.85 61.6 1.2 61.6 1.55 61.6 1.8 61.9 L2.0 62.55 M1.85 64.5 L1.65 65.05 2.15 65.5 2.1 65.95 0.95 66.9 0.25 65.75 0.6 64.6 1.15 63.85 1.85 64.5 M-0.3 66.0 L-0.7 67.25 -2.05 66.95 -1.95 65.55 -1.55 65.3 -0.35 65.85 -0.3 66.0" fill="#754d00" fill-rule="evenodd" stroke="none"/>
    <path d="M-3.8 -29.6 L-3.55 -29.85 -3.55 -29.9 -4.2 -30.85 -3.35 -31.0 -2.95 -32.15 -3.15 -32.65 -4.45 -32.9 -4.95 -31.8 Q-7.3 -33.8 -7.85 -36.8 L-7.95 -37.7 Q-4.95 -38.95 -5.05 -42.4 -5.1 -43.7 -5.45 -45.0 L-6.55 -43.75 -7.1 -43.95 -7.25 -44.45 -5.75 -46.1 -6.45 -46.55 -7.25 -46.4 -6.95 -47.1 -7.75 -46.35 Q-8.8 -46.6 -8.95 -47.65 L-8.95 -48.2 Q-8.45 -49.05 -7.35 -49.15 L-6.75 -49.15 -4.85 -47.85 -4.25 -48.35 -5.5 -49.25 -4.7 -50.65 -4.4 -50.6 -4.15 -50.8 -5.05 -51.5 -6.0 -50.85 -5.9 -51.45 -6.8 -49.55 -7.95 -49.6 -8.9 -50.0 -9.2 -50.8 Q-8.5 -52.35 -6.8 -52.1 L-6.1 -51.85 -6.45 -53.65 -6.95 -54.45 Q-6.95 -58.1 -4.7 -60.55 L-5.1 -61.3 -4.6 -61.2 -3.65 -61.65 -2.55 -62.45 -2.8 -63.65 -2.05 -64.65 -1.3 -64.85 0.4 -67.35 1.75 -67.5 0.85 -67.25 0.85 -66.15 1.9 -66.65 1.75 -65.85 1.0 -65.75 0.75 -64.7 1.5 -64.4 Q1.5 -63.7 1.85 -63.2 2.15 -62.75 2.6 -62.75 L1.25 -62.65 0.6 -61.55 1.15 -61.25 Q1.75 -62.25 1.3 -60.85 L1.5 -60.15 1.0 -59.65 2.1 -59.15 Q0.35 -58.1 0.25 -56.15 L0.45 -56.1 0.85 -56.05 1.0 -55.95 1.2 -55.85 1.35 -55.75 1.65 -55.55 2.7 -55.85 2.45 -55.5 1.95 -54.85 2.65 -54.35 2.65 -54.0 2.65 -53.8 0.95 -54.35 2.0 -53.9 1.05 -54.05 -1.3 -52.9 Q-2.7 -52.1 -3.15 -50.7 -1.8 -48.85 -1.0 -46.65 -0.2 -44.55 2.2 -44.25 L5.3 -45.95 4.7 -45.5 5.05 -44.95 2.5 -42.7 1.15 -42.9 Q0.3 -41.7 0.4 -40.2 L0.75 -38.5 0.7 -38.0 Q1.4 -39.1 2.35 -39.95 L4.25 -41.3 4.3 -40.7 3.6 -39.65 Q1.25 -35.7 1.85 -30.75 L0.35 -32.65 Q-2.05 -35.45 -2.9 -38.8 L-3.1 -38.8 -2.35 -34.25 -3.1 -34.45 -3.5 -33.05 -2.6 -32.8 -2.8 -30.05 -3.4 -29.4 -3.05 -29.1 -3.75 -29.5 -3.85 -29.65 -3.8 -29.6 M-4.4 -30.95 L-5.0 -31.3 -5.1 -31.75 -4.95 -31.75 -4.4 -30.95 M19.15 -60.15 L19.2 -60.1 19.2 -60.05 19.15 -60.15 M18.15 -58.35 L18.1 -58.3 17.85 -58.7 18.15 -58.35 M-2.1 -33.8 L-1.6 -33.25 -1.85 -32.85 -2.0 -33.05 -2.1 -33.55 -2.1 -33.8 M-0.75 -32.65 L-0.45 -32.35 -0.55 -32.4 -0.75 -32.65 M21.0 -34.45 L22.25 -35.1 23.05 -35.1 22.9 -32.9 22.05 -32.9 22.2 -33.35 21.95 -33.3 21.7 -33.15 21.0 -33.7 21.0 -34.45 M25.45 -27.8 L29.0 -28.7 28.6 -25.4 28.2 -25.25 26.15 -26.65 25.8 -26.1 25.45 -27.1 25.45 -27.8 M24.0 52.3 L22.25 53.75 23.9 52.15 24.0 52.3 M7.45 66.75 L6.7 67.7 6.75 67.15 6.85 66.95 7.45 66.75 M-2.3 67.5 L-6.7 62.3 -6.8 62.0 Q-6.95 61.85 -7.2 61.8 L-8.0 61.05 -8.0 60.55 Q-7.15 60.95 -6.35 61.3 L-5.6 62.1 -5.5 62.5 -5.25 62.65 -5.0 62.55 -4.95 62.15 Q-3.75 61.75 -3.55 60.5 L-2.9 58.5 -1.2 59.0 -1.55 60.0 -0.4 60.7 -0.95 61.65 -2.05 61.3 -2.15 60.95 -2.15 60.4 -2.55 60.55 -2.9 61.1 -2.8 62.65 -2.9 63.1 -3.1 62.65 -4.1 62.7 -4.6 63.05 -4.75 63.9 -4.55 64.3 -2.95 64.25 -2.6 65.15 -2.5 65.7 -2.3 67.5 M-8.75 60.3 L-9.7 59.45 -8.75 59.7 -8.15 59.4 -8.75 60.3 M-10.2 59.0 L-11.05 58.25 -10.85 57.8 -11.05 56.6 -10.7 56.65 -10.2 59.0 M-15.6 55.1 Q-18.15 54.05 -19.65 51.7 L-20.4 50.4 -19.15 46.4 -18.4 46.9 -18.2 47.95 -15.8 46.55 -15.95 47.15 -16.35 47.1 -16.55 47.25 -16.65 48.05 -15.7 48.15 -15.45 47.35 -14.15 46.8 -14.35 48.15 -13.95 48.65 -14.2 50.3 -12.7 50.9 -11.9 49.85 -12.45 48.55 -11.3 48.1 -10.85 48.85 -11.2 49.8 -10.0 50.95 -9.05 50.25 -8.9 49.75 -9.45 48.95 -8.7 48.7 -7.85 49.15 -7.55 49.7 -8.0 49.9 -8.25 50.45 -8.8 50.55 -9.2 52.15 -8.25 52.5 -7.2 51.5 -6.45 52.3 -7.05 52.55 -7.1 53.8 -6.7 54.05 -6.05 54.0 -5.7 54.6 -4.75 54.75 -4.3 53.4 -3.65 54.05 -4.25 56.45 -5.05 55.5 -6.0 55.45 -7.15 56.8 -7.45 56.15 -8.2 55.3 -8.95 55.3 -8.9 54.45 -9.45 53.6 -10.25 53.05 -10.35 52.75 -11.1 52.7 -11.15 53.0 -11.1 53.0 -11.9 54.35 -12.1 54.4 Q-12.5 54.9 -12.0 54.75 L-11.8 56.05 -12.65 55.35 -13.3 55.75 -13.6 55.25 Q-14.2 54.45 -15.15 54.4 L-15.6 55.1 M10.4 -62.6 L10.4 -62.75 10.65 -63.05 10.4 -62.6 M2.05 -64.85 L2.3 -65.1 2.3 -64.95 2.05 -64.85 M-1.3 -55.0 Q-1.15 -55.15 -1.15 -55.35 L-1.3 -55.7 -1.65 -55.85 -2.0 -55.7 -2.15 -55.35 -2.0 -55.0 Q-1.85 -54.85 -1.65 -54.85 -1.45 -54.85 -1.3 -55.0 M-2.8 -58.45 L-3.0 -58.0 -2.8 -57.55 -2.35 -57.35 Q-2.1 -57.35 -1.9 -57.55 L-1.7 -58.0 -1.9 -58.45 -2.35 -58.65 -2.8 -58.45 M-0.7 -59.85 L-0.85 -59.55 -0.7 -59.2 -0.35 -59.1 0.0 -59.2 0.15 -59.55 0.0 -59.85 -0.35 -60.0 -0.7 -59.85 M-1.4 -59.75 L-1.2 -60.25 -1.4 -60.75 -1.9 -60.95 -2.4 -60.75 -2.6 -60.25 -2.4 -59.75 Q-2.2 -59.55 -1.9 -59.55 L-1.4 -59.75 M-5.55 -56.35 L-5.85 -54.5 -4.85 -54.1 -4.3 -54.3 -4.05 -54.55 Q-2.85 -55.7 -3.7 -56.95 L-4.8 -57.25 -5.55 -56.35 M12.65 -43.35 L12.5 -43.75 12.15 -43.9 11.55 -45.0 11.55 -45.45 15.25 -43.25 15.2 -42.9 13.8 -42.6 12.65 -43.35 M8.0 -46.55 L8.0 -46.65 8.05 -46.6 8.0 -46.55 M6.85 -46.15 L6.5 -46.0 6.4 -46.3 Q6.5 -47.3 6.85 -46.15 M5.7 -45.5 L5.5 -45.3 5.6 -45.45 5.7 -45.5 M7.05 -42.9 L7.7 -43.15 8.1 -44.85 8.7 -45.6 9.9 -45.6 10.1 -43.9 10.85 -43.45 10.9 -43.45 11.25 -41.65 10.7 -41.75 8.9 -42.1 6.6 -41.35 6.1 -41.1 5.7 -40.95 5.3 -41.4 6.3 -42.95 7.05 -42.9 M-4.0 -37.5 L-4.1 -37.75 -4.35 -37.85 -4.6 -37.75 -4.7 -37.5 -4.6 -37.25 -4.35 -37.15 -4.1 -37.25 -4.0 -37.5 M-0.8 -37.45 L-0.6 -39.55 Q-0.2 -43.2 -3.15 -45.4 L-0.8 -37.45 M-3.75 -39.95 L-3.55 -40.55 -3.75 -41.1 -4.3 -41.35 -4.8 -41.1 -5.05 -40.55 -4.8 -39.95 Q-4.6 -39.75 -4.3 -39.75 L-3.75 -39.95 M-4.05 -35.75 L-4.25 -35.25 -4.05 -34.7 -3.55 -34.5 Q-3.25 -34.5 -3.05 -34.7 L-2.85 -35.25 -3.05 -35.75 -3.55 -36.0 -4.05 -35.75 M-3.6 -36.1 L-3.3 -36.2 -3.2 -36.55 -3.3 -36.85 -3.6 -37.0 -3.85 -36.85 -4.0 -36.55 -3.85 -36.2 -3.6 -36.1 M-3.85 -33.3 L-3.65 -33.9 -3.85 -34.45 -4.45 -34.7 -5.0 -34.45 -5.25 -33.9 -5.0 -33.3 Q-4.8 -33.1 -4.45 -33.1 -4.1 -33.1 -3.85 -33.3 M-31.1 -8.15 L-30.95 -7.9 Q-31.05 -6.45 -32.45 -6.05 L-33.1 -5.9 -34.05 -8.85 -34.1 -8.95 -31.6 -8.9 -31.1 -8.15 M-1.75 -29.25 L-1.9 -29.55 -1.6 -29.55 -1.75 -29.25 M-16.15 -33.9 L-16.2 -32.5 -18.7 -31.25 -20.0 -31.75 -20.45 -36.7 -16.15 -33.9 M-26.05 -29.2 L-27.95 -26.25 -29.15 -29.2 -26.05 -29.2 M-5.85 -35.5 L-5.7 -35.15 -5.4 -35.05 -5.05 -35.15 -4.95 -35.5 -5.05 -35.8 -5.4 -35.95 -5.7 -35.8 -5.85 -35.5 M-6.15 -35.85 Q-6.0 -36.05 -6.0 -36.3 L-6.15 -36.7 -6.55 -36.9 -6.95 -36.7 -7.1 -36.3 -6.95 -35.85 Q-6.8 -35.7 -6.55 -35.7 -6.3 -35.7 -6.15 -35.85 M-21.1 -20.0 L-21.0 -19.35 -22.6 -17.8 -23.95 -18.0 -24.8 -20.5 -21.1 -20.0 M-34.3 -19.25 L-34.55 -18.85 Q-35.65 -18.05 -37.0 -18.55 L-36.05 -20.3 -34.3 -19.25 M-7.25 57.55 L-6.7 58.55 -7.2 59.25 -6.95 58.3 -7.25 57.55 M-2.75 62.75 Q-2.1 62.3 -1.7 62.75 L-1.6 63.0 -1.75 63.4 -2.15 63.65 -2.45 63.5 -2.8 63.2 -2.75 62.75 M-14.15 53.4 L-14.05 53.7 -13.85 53.8 -13.65 53.7 -13.55 53.4 -13.65 53.15 -13.85 53.0 -14.05 53.15 -14.15 53.4 M-9.2 57.7 L-9.6 58.4 -9.75 57.25 -9.2 57.7 M-8.0 57.7 L-8.45 58.1 -8.7 57.8 -8.0 57.7 M-16.0 53.55 L-16.35 53.65 -16.5 53.9 -16.35 54.15 -16.0 54.25 -15.65 54.15 -15.5 53.9 -15.65 53.65 -16.0 53.55 M-0.5 54.5 L-0.3 55.05 -0.5 55.65 -1.05 55.85 -1.55 55.65 -1.8 55.05 -1.55 54.5 -1.05 54.25 Q-0.75 54.25 -0.5 54.5 M0.5 56.0 L1.65 55.75 1.9 56.1 1.35 57.6 -0.55 57.6 0.0 57.1 0.5 56.0 M-3.1 56.2 Q-2.95 56.8 -3.15 57.5 L-3.45 58.65 -4.65 58.0 -4.25 56.65 -3.4 55.9 -3.1 56.2" fill="#cc9900" fill-rule="evenodd" stroke="none"/>
    <path d="M18.7 -49.05 L18.35 -48.55 18.0 -48.05 17.45 -48.15 17.25 -48.4 17.2 -48.75 16.35 -48.6 16.25 -48.8 13.95 -49.2 14.4 -49.1 Q14.25 -48.95 14.0 -48.95 L12.95 -49.1 12.9 -49.1 12.85 -49.0 11.7 -49.05 11.75 -49.25 Q11.6 -49.6 12.1 -49.8 L12.55 -49.95 12.5 -50.2 12.65 -50.7 12.7 -50.7 12.75 -50.75 12.8 -50.75 Q13.5 -50.75 13.55 -50.1 L13.65 -50.1 13.65 -49.95 Q13.65 -50.5 14.2 -50.3 L14.35 -50.25 14.2 -50.0 14.9 -49.45 15.4 -49.85 16.05 -50.15 16.25 -50.2 16.95 -50.35 19.05 -50.55 19.2 -50.35 18.6 -49.75 18.7 -49.05 M11.25 -47.8 L11.35 -47.7 11.4 -47.5 11.55 -47.45 12.35 -46.6 12.3 -46.5 12.3 -46.45 12.3 -46.4 12.2 -46.2 12.2 -46.15 12.65 -45.55 Q13.2 -44.9 14.0 -44.65 L14.55 -44.35 14.9 -44.25 Q15.65 -44.15 16.35 -44.65 L16.55 -44.9 16.6 -45.05 16.95 -44.85 16.45 -42.35 Q17.2 -42.2 16.85 -41.4 L16.75 -41.2 17.15 -40.9 Q17.5 -40.3 16.95 -39.8 16.55 -39.45 16.15 -39.6 L16.2 -38.9 16.0 -38.5 15.4 -38.4 14.9 -37.6 14.8 -37.5 Q15.35 -37.25 15.1 -36.5 L14.9 -36.25 14.25 -36.2 14.1 -36.3 13.95 -36.05 13.7 -36.15 13.65 -36.15 13.9 -36.0 Q14.25 -35.75 13.95 -35.2 13.75 -34.85 13.4 -34.95 L13.4 -34.9 13.35 -34.85 13.3 -34.75 13.3 -34.2 13.3 -34.15 13.15 -34.15 13.1 -34.1 13.0 -33.1 12.95 -33.1 12.75 -33.1 12.7 -32.9 12.65 -32.65 12.8 -32.55 Q13.15 -32.25 12.95 -31.65 L12.75 -31.4 12.6 -31.35 12.55 -31.35 12.55 -31.3 12.35 -31.3 Q11.85 -31.3 11.7 -31.95 L11.7 -32.1 11.75 -32.15 11.8 -32.15 12.1 -31.85 11.8 -32.2 11.8 -32.15 11.7 -32.2 11.75 -32.45 Q11.45 -32.6 11.35 -33.05 L11.35 -33.15 Q10.95 -33.2 10.65 -33.4 L10.55 -33.6 9.7 -33.75 8.45 -33.15 8.25 -33.05 8.15 -32.9 7.6 -32.8 5.85 -32.7 5.0 -32.85 Q3.8 -32.8 2.85 -33.4 L2.25 -34.05 Q2.0 -34.55 2.25 -34.95 L2.0 -35.05 3.2 -37.9 5.1 -38.2 4.6 -37.7 4.35 -37.7 Q3.85 -38.15 3.45 -37.7 L2.95 -37.1 3.25 -36.2 3.25 -35.9 3.05 -35.1 3.3 -34.8 4.15 -35.5 3.95 -34.65 4.0 -34.2 4.75 -33.95 4.8 -34.0 4.9 -34.45 5.05 -34.35 5.05 -34.3 5.0 -34.25 5.05 -34.25 5.5 -34.1 5.6 -33.9 6.6 -33.85 6.55 -34.4 6.4 -34.8 6.45 -34.9 6.6 -35.3 6.75 -35.15 6.85 -34.75 Q7.15 -34.05 7.8 -34.1 L8.0 -34.2 Q8.2 -34.45 8.05 -34.75 L7.95 -35.15 7.85 -35.75 7.9 -35.95 8.2 -35.6 8.4 -35.1 Q8.7 -34.65 9.2 -34.9 L9.45 -35.25 9.4 -35.85 9.4 -36.1 9.8 -35.9 9.8 -35.85 Q9.8 -35.4 10.05 -35.1 L10.15 -34.95 10.4 -35.05 10.95 -35.05 11.0 -35.55 10.95 -35.65 10.95 -35.7 11.25 -35.75 11.3 -35.7 11.4 -35.55 11.5 -35.45 11.9 -35.45 11.8 -35.6 12.0 -35.5 11.95 -36.4 11.95 -36.7 11.9 -36.75 11.85 -36.9 11.9 -37.2 12.1 -37.45 12.1 -37.75 12.3 -37.95 12.35 -38.0 12.55 -38.4 12.6 -38.4 Q13.1 -38.35 13.25 -37.85 L13.25 -37.8 13.45 -37.2 13.65 -37.2 13.85 -37.0 13.85 -37.1 13.9 -37.25 Q13.45 -37.3 13.4 -37.8 13.35 -38.3 13.8 -38.4 L13.95 -38.4 14.0 -38.4 14.0 -38.45 13.7 -38.55 13.65 -38.6 13.55 -38.65 13.55 -38.7 13.45 -38.6 13.3 -38.4 12.95 -38.4 Q12.4 -38.7 12.75 -39.25 L12.95 -39.45 13.3 -39.45 13.5 -39.25 13.7 -39.5 Q13.1 -39.55 13.25 -40.3 L13.45 -40.6 13.55 -40.65 13.85 -40.65 Q13.8 -41.05 14.2 -41.25 L14.35 -41.3 14.15 -41.45 14.2 -41.5 Q13.75 -41.5 13.75 -42.05 13.75 -42.65 14.35 -42.7 L14.9 -42.35 15.25 -42.8 15.2 -42.9 15.25 -43.25 11.55 -45.45 11.55 -45.0 12.15 -43.9 12.5 -43.75 12.65 -43.35 12.35 -42.2 11.65 -41.75 11.55 -42.7 11.55 -42.8 10.95 -44.45 10.25 -44.9 10.15 -45.6 10.35 -45.9 10.35 -45.95 10.35 -46.0 10.2 -46.1 10.15 -46.15 10.1 -46.2 10.1 -46.1 10.0 -46.1 9.95 -45.75 9.9 -45.6 8.7 -45.6 8.1 -44.85 7.7 -43.15 7.05 -42.9 6.7 -43.9 6.45 -43.5 5.4 -43.6 5.2 -43.4 4.8 -43.45 5.25 -44.45 5.7 -44.2 6.3 -44.3 5.5 -45.3 5.7 -45.5 6.5 -46.0 6.85 -46.15 8.0 -46.55 8.05 -46.6 8.0 -46.65 Q7.3 -46.9 7.75 -47.5 L8.1 -47.8 9.15 -47.65 9.75 -48.0 9.8 -48.0 9.8 -48.1 9.8 -48.25 Q10.05 -49.1 9.4 -48.65 L9.2 -48.85 Q10.45 -49.0 11.15 -47.95 L11.2 -47.85 11.25 -47.8 M1.95 -28.1 L1.75 -24.85 2.55 -24.6 4.3 -26.0 6.5 -26.15 7.55 -26.9 11.6 -27.2 14.0 -26.1 14.7 -26.2 14.6 -27.05 14.55 -27.3 14.7 -26.2 14.3 -25.4 13.95 -25.1 Q13.75 -24.2 12.95 -24.05 L10.3 -23.8 9.75 -23.7 Q7.85 -23.0 5.9 -23.1 L5.5 -23.3 Q5.3 -23.5 5.25 -23.8 4.05 -24.2 4.0 -25.05 L3.75 -24.85 3.3 -24.7 Q0.9 -24.2 -1.15 -25.1 -2.8 -25.85 -2.25 -27.55 L-1.55 -28.5 1.3 -28.1 1.7 -28.15 1.95 -28.1 M14.4 -27.75 L14.3 -28.15 13.15 -30.55 13.35 -31.15 13.45 -31.5 15.2 -35.55 15.7 -36.4 15.7 -36.35 16.2 -35.45 Q17.15 -32.95 17.7 -30.35 17.85 -29.55 17.4 -28.9 L17.0 -28.45 16.95 -28.45 20.95 -27.8 19.95 -27.6 22.0 -26.2 17.9 -26.2 21.4 -26.45 16.95 -28.45 17.0 -28.4 Q16.35 -27.9 15.35 -27.85 L14.4 -27.75 M31.35 -19.65 L32.1 -20.2 33.5 -19.85 31.95 -13.5 29.6 -9.4 Q30.4 -11.35 30.7 -13.6 L31.3 -18.05 31.35 -19.35 31.35 -19.65 M0.45 -56.1 Q0.2 -56.7 0.8 -56.9 L1.1 -57.0 0.95 -56.65 3.45 -57.2 3.5 -57.25 3.8 -57.2 3.95 -57.1 4.1 -56.85 4.25 -56.8 4.2 -56.75 4.6 -56.3 4.65 -56.3 4.75 -56.15 4.85 -56.2 5.0 -55.95 5.0 -55.65 5.45 -55.2 5.6 -54.8 5.6 -54.7 5.65 -54.7 5.85 -54.4 6.4 -54.2 6.35 -54.1 6.55 -53.65 6.55 -53.5 7.15 -53.0 7.35 -52.8 7.3 -52.7 7.45 -52.55 7.9 -52.25 8.15 -52.35 8.25 -52.25 8.25 -52.2 8.7 -52.2 8.9 -52.1 9.55 -52.0 9.8 -51.6 9.95 -51.5 10.1 -51.35 10.2 -51.15 10.65 -50.2 10.6 -49.95 Q10.1 -49.45 9.6 -49.85 L9.2 -49.85 9.15 -49.8 Q8.9 -49.85 8.8 -50.15 L8.75 -50.3 8.3 -50.25 7.65 -50.25 Q7.1 -50.35 6.6 -50.7 5.45 -51.65 4.8 -53.0 L3.8 -54.4 3.5 -54.7 2.95 -55.5 2.45 -55.5 2.7 -55.85 1.65 -55.55 1.35 -55.75 1.35 -55.8 1.2 -55.85 1.0 -55.95 0.95 -56.1 0.85 -56.05 0.45 -56.1 M6.35 -52.3 L6.35 -52.35 6.3 -52.4 6.25 -52.45 6.0 -52.4 6.35 -52.1 6.35 -52.3 M13.2 -50.3 L13.45 -50.1 13.65 -49.9 13.75 -49.85 13.3 -50.3 13.2 -50.3 M9.55 -41.45 L9.45 -41.1 9.55 -40.75 9.8 -40.6 10.05 -40.75 10.15 -41.1 10.05 -41.45 9.8 -41.6 9.55 -41.45 M8.9 -42.1 L10.7 -41.75 11.3 -41.25 11.35 -40.8 Q10.85 -40.1 9.85 -40.35 L7.15 -40.3 Q6.5 -40.15 6.25 -40.55 L7.35 -40.75 7.5 -41.25 8.9 -42.1 M6.6 -41.35 L6.1 -40.95 6.1 -41.1 6.6 -41.35 M15.65 -39.95 L15.5 -39.9 15.7 -39.85 15.65 -39.95 M-4.9 -27.75 L-4.35 -27.5 -4.95 -27.45 Q-7.1 -27.45 -8.65 -28.75 -10.2 -30.1 -10.2 -31.95 L-9.6 -32.0 -6.0 -28.05 -4.9 -27.75 M-9.6 -23.5 L-9.5 -23.25 -11.55 -24.2 -9.6 -23.5 M-2.05 -17.25 L-2.1 -17.45 Q-2.2 -17.9 -1.75 -18.15 L-1.35 -18.3 -0.95 -18.15 -1.05 -18.5 -1.05 -19.3 -1.3 -19.55 -1.7 -19.2 Q-2.65 -19.05 -2.6 -19.95 -2.55 -20.45 -2.15 -20.6 L-1.5 -20.4 -1.45 -20.8 Q-1.25 -21.8 -0.3 -21.8 1.25 -21.35 1.0 -20.25 2.15 -19.9 1.85 -18.35 L1.7 -17.95 1.85 -18.1 1.9 -18.1 2.05 -18.2 Q2.9 -18.25 3.05 -17.7 L3.15 -17.8 3.6 -17.9 Q4.45 -17.75 4.35 -17.0 L4.35 -16.95 4.25 -16.75 4.05 -16.45 3.15 -16.5 2.95 -16.8 2.8 -16.65 2.35 -16.5 2.45 -15.95 Q3.45 -15.9 3.35 -14.9 L3.3 -14.8 3.1 -14.35 3.05 -14.35 Q2.0 -14.0 1.8 -14.95 1.1 -14.3 0.6 -14.95 L0.5 -14.75 Q-0.4 -14.4 -0.6 -15.3 -0.7 -15.7 -0.35 -15.95 L0.05 -16.05 0.3 -15.95 0.55 -16.5 Q0.95 -17.05 1.55 -17.05 L1.6 -17.0 1.55 -17.25 1.6 -17.8 1.15 -17.5 Q-0.15 -17.0 -0.7 -17.75 L-0.8 -17.3 -1.0 -16.9 -1.9 -17.0 -2.05 -17.2 -2.05 -17.25 M7.15 -18.1 L6.75 -18.3 6.7 -18.45 6.4 -18.45 Q5.75 -18.9 6.3 -19.5 L6.5 -19.65 6.9 -19.65 Q7.5 -19.3 7.15 -18.75 L6.95 -18.5 7.55 -18.3 7.8 -18.25 8.45 -17.95 7.95 -18.05 7.15 -18.1 M20.55 -9.6 L22.5 -8.85 20.55 -9.25 20.15 -9.8 20.55 -9.6 M19.45 -6.0 L20.25 -5.4 18.95 -5.55 17.2 -6.45 19.45 -6.0 M3.75 -2.55 L3.25 -11.25 3.15 -12.75 3.8 -10.35 Q4.8 -6.8 3.85 -2.95 L3.75 -2.55 M-7.7 -0.35 L-8.25 -0.15 -12.35 0.9 -11.95 1.05 Q-10.55 1.45 -9.9 2.75 L-9.6 3.5 Q-12.6 3.45 -15.3 2.3 L-10.35 2.55 -12.45 1.2 -13.1 1.05 -13.35 0.6 -7.7 -0.35 M10.95 13.6 Q0.0 12.55 -11.25 13.25 L-13.2 12.65 Q0.1 10.35 13.3 12.85 L13.55 13.05 10.95 13.6 M13.0 -35.15 L13.0 -35.1 13.15 -35.05 13.2 -35.05 13.0 -35.15 M13.55 -25.45 L13.5 -25.4 Q14.05 -25.15 13.55 -25.45 M7.35 -20.35 L7.55 -20.75 7.75 -20.75 Q8.45 -20.5 7.85 -20.1 L7.55 -20.05 Q7.35 -20.1 7.35 -20.35 M1.3 -23.55 Q2.9 -23.35 1.95 -22.2 L1.85 -22.05 Q1.15 -21.9 0.7 -22.5 L0.65 -22.6 0.65 -22.9 0.65 -23.0 0.9 -23.25 1.3 -23.55 M5.5 -21.75 Q7.1 -21.15 5.85 -20.05 L5.4 -19.9 5.3 -19.25 5.2 -19.1 4.9 -19.0 4.95 -18.95 5.75 -18.85 5.05 -18.75 5.05 -18.2 4.75 -17.85 Q3.95 -17.5 3.65 -18.25 L3.65 -18.65 2.95 -18.6 3.85 -19.1 3.95 -19.1 4.1 -19.25 4.35 -19.2 4.2 -19.55 Q4.1 -19.95 4.4 -20.2 L4.8 -20.3 4.85 -20.25 Q4.2 -20.9 5.1 -21.55 L5.5 -21.75 M3.4 -19.65 Q1.4 -19.3 1.7 -21.15 1.9 -22.1 2.8 -22.05 4.55 -21.65 3.75 -20.05 L3.4 -19.65 M-0.4 -22.3 L-0.5 -22.05 Q-0.8 -21.65 -1.35 -21.8 -1.75 -22.0 -1.65 -22.45 L-1.35 -22.9 Q-0.45 -23.05 -0.4 -22.3 M-3.25 -22.75 L-2.9 -22.7 Q-2.3 -22.2 -3.0 -21.9 L-3.6 -21.7 -3.75 -21.85 -3.95 -21.65 -4.25 -21.55 -4.7 -21.75 -4.7 -21.9 -4.7 -22.15 -4.65 -22.3 -4.55 -22.45 -4.25 -22.5 -4.25 -22.55 -3.8 -22.3 -3.55 -22.6 -3.25 -22.7 -3.25 -22.75 M-4.15 -22.75 L-4.15 -22.7 -4.25 -22.65 -4.35 -22.6 Q-5.15 -22.65 -4.7 -23.3 L-4.6 -23.4 -4.55 -23.4 -4.1 -23.25 -4.05 -23.2 -4.05 -23.15 -4.1 -23.1 -4.05 -23.0 -4.15 -22.75 M0.7 -13.6 Q0.55 -14.15 0.95 -14.5 L1.05 -14.5 1.2 -14.55 1.2 -14.6 Q2.4 -14.65 2.2 -13.45 L2.1 -13.2 2.2 -12.95 2.05 -12.25 Q3.4 -11.8 2.7 -10.35 L2.25 -9.9 Q0.05 -9.7 0.75 -11.75 L0.9 -12.05 Q0.25 -12.6 0.8 -13.3 L0.7 -13.6 M27.55 -19.7 L26.5 -19.8 26.3 -18.8 Q25.8 -17.55 24.6 -18.15 23.4 -18.8 24.15 -20.0 L24.95 -20.75 25.95 -20.55 26.0 -21.35 Q26.15 -22.0 26.7 -22.2 29.05 -22.25 28.2 -20.25 28.0 -19.75 27.55 -19.7 M27.65 -16.1 Q28.05 -16.05 28.25 -15.65 L28.3 -15.55 28.1 -15.05 27.9 -14.8 Q26.85 -14.75 27.0 -15.75 L27.4 -16.05 27.65 -16.1 M24.45 -23.6 Q26.25 -22.85 24.65 -21.85 L24.05 -21.8 Q23.25 -22.2 23.6 -23.05 L24.0 -23.5 24.15 -23.55 24.45 -23.6 M22.8 -24.4 L20.45 -24.3 19.45 -23.9 Q20.5 -24.55 21.55 -24.55 L22.8 -24.4 M17.15 -0.9 L10.25 2.75 Q13.15 0.95 16.15 -0.75 L17.55 -1.3 17.15 -0.9 M-30.8 -20.0 L-31.0 -19.55 -28.5 -12.1 -26.85 -9.35 -29.15 -11.45 -29.7 -11.3 -29.2 -11.45 -30.45 -13.75 -31.2 -15.15 -34.9 -13.5 -35.45 -13.45 -31.3 -15.75 -31.55 -17.2 -33.65 -16.75 -31.75 -17.5 -31.45 -19.45 -31.75 -19.6 -31.3 -20.05 -30.8 -20.0 M-10.3 -26.2 L-11.35 -26.0 Q-12.65 -26.25 -13.7 -27.4 L-14.15 -28.1 -10.3 -26.2 M-6.9 -25.05 L-8.0 -25.9 -8.0 -26.65 -6.9 -25.05 M-24.0 -8.45 L-24.05 -8.45 -24.05 -8.5 -21.6 -11.0 -21.15 -11.0 -24.0 -8.45 M-23.8 -10.4 L-23.7 -10.75 Q-22.9 -11.15 -23.75 -10.45 L-23.8 -10.4 M-7.2 -3.4 L-6.1 -3.2 -8.1 -3.05 -7.2 -3.4 M-14.4 19.75 L-14.45 20.15 Q-14.45 21.6 -13.6 22.65 -12.75 23.65 -11.55 23.65 -5.85 25.9 -0.5 23.3 L0.25 22.85 0.35 18.9 -0.85 17.75 -3.25 18.75 -0.95 17.45 -1.4 17.25 -6.6 16.9 -4.85 15.6 -3.35 15.55 Q-1.2 15.75 0.25 17.1 L2.2 17.2 0.7 17.45 1.25 19.0 4.1 18.6 9.6 18.5 9.6 18.55 4.05 18.9 1.25 19.35 0.9 24.0 Q-2.4 26.4 -6.35 26.1 L-8.1 25.8 -11.65 24.65 -13.0 23.9 Q-15.1 22.75 -14.8 20.25 L-14.7 19.5 -13.15 18.35 -13.5 18.75 -14.4 19.75 M-13.4 30.55 Q-8.1 35.7 -1.35 33.45 L0.0 33.2 0.15 29.7 0.0 27.05 0.6 27.9 Q1.55 30.45 0.85 33.05 L0.45 34.15 Q-4.95 37.2 -10.25 33.95 L-10.75 33.6 -11.55 33.1 -14.35 30.3 -14.2 27.05 -13.65 26.65 -13.8 27.8 -13.4 30.55 M-12.65 33.85 Q-12.95 33.85 -13.15 34.15 L-13.35 34.9 -11.5 39.2 -11.45 39.25 Q-7.75 42.95 -2.45 42.6 L-0.7 42.2 -0.2 39.8 Q0.1 38.2 -0.75 36.75 L-0.8 36.6 0.25 36.95 Q2.3 40.6 -0.75 43.5 L-1.05 43.75 Q-7.3 45.1 -11.75 39.85 -13.1 38.25 -13.4 36.1 L-13.55 35.1 -13.55 33.95 -12.15 33.55 -12.65 33.85 M16.3 7.9 L15.45 7.8 17.45 7.15 16.3 7.9 M19.15 14.8 L20.05 14.8 Q21.05 15.35 20.6 16.4 L20.05 17.05 19.15 17.05 Q18.05 16.45 18.6 15.35 18.8 14.95 19.15 14.8 M19.95 20.0 Q20.1 20.45 19.85 21.15 19.25 22.9 17.8 21.8 17.1 21.25 17.4 20.4 17.65 19.55 18.4 19.15 19.25 19.15 19.65 19.5 19.55 19.0 20.05 18.5 20.3 18.2 20.65 18.2 22.35 18.75 21.2 20.05 20.8 20.5 20.25 20.2 L19.95 20.0 M9.3 16.5 L9.85 16.4 10.3 16.0 Q17.7 15.6 17.1 20.15 L16.55 18.55 15.7 18.0 9.6 16.8 9.3 16.5 M16.15 21.5 L17.0 20.85 16.45 22.4 Q15.85 23.95 14.3 24.35 10.05 26.7 5.35 25.65 L4.65 25.5 Q3.45 23.8 3.55 21.85 L3.7 20.6 4.7 24.35 5.35 24.9 Q11.4 24.8 16.15 21.5 M15.75 27.25 L15.1 25.35 Q17.1 26.9 16.4 29.8 L16.2 30.9 15.7 31.55 Q12.35 35.65 6.7 35.65 L5.1 35.6 4.35 34.75 3.95 34.3 Q2.0 31.2 3.85 28.15 L4.35 27.45 3.85 28.8 3.55 30.95 4.35 33.45 Q10.35 35.75 14.85 31.15 L15.9 30.05 15.75 27.25 M14.15 36.0 L14.3 35.55 Q15.4 37.95 13.75 40.0 10.05 44.65 4.55 43.7 2.55 43.25 2.4 41.2 L2.35 40.85 2.35 40.7 2.85 38.1 3.6 36.6 3.25 37.85 3.25 41.9 3.45 42.6 3.85 42.85 Q11.75 44.1 14.05 36.75 L14.15 36.0 M19.9 23.5 Q21.45 23.7 20.6 24.9 L20.45 25.05 19.85 25.05 Q19.15 24.55 19.6 23.85 L19.9 23.5 M11.35 3.75 L16.65 -0.45 11.7 4.0 17.35 3.75 11.35 4.45 11.35 3.75 M5.35 16.7 L3.7 17.1 6.9 15.75 3.65 16.35 6.9 15.45 7.35 15.75 5.35 16.7 M18.3 27.35 L18.15 27.5 17.5 27.5 Q16.8 27.05 17.25 26.35 L17.6 26.0 Q19.1 26.15 18.3 27.35 M19.85 29.85 Q21.5 30.6 20.3 31.9 L19.85 32.05 Q18.45 31.55 19.25 30.2 19.45 29.8 19.85 29.85 M17.25 35.8 Q18.95 36.15 17.85 37.5 17.7 37.75 17.35 37.7 15.7 37.4 16.75 36.2 L17.25 35.8" fill="#5e3a00" fill-rule="evenodd" stroke="none"/>
    <path d="M16.4 -46.9 L17.15 -46.7 17.15 -46.65 17.0 -46.65 17.0 -46.6 16.9 -46.15 16.3 -45.35 16.25 -45.2 16.2 -45.25 14.8 -44.8 14.0 -45.3 13.55 -45.6 15.4 -45.55 15.45 -45.6 15.8 -46.2 16.4 -46.9 M2.0 -46.5 Q-0.5 -48.0 -1.05 -50.7 L-1.1 -51.0 -1.1 -51.05 2.35 -51.8 3.55 -51.45 5.9 -48.25 2.0 -46.5 M1.45 -50.85 L0.9 -50.9 0.2 -50.25 Q-0.05 -49.7 0.4 -49.4 L0.5 -49.3 1.1 -49.25 Q1.85 -49.5 1.75 -50.25 L1.45 -50.85 M2.05 -50.65 Q2.35 -49.5 1.35 -48.95 L0.45 -49.0 0.5 -48.95 0.5 -48.6 Q0.6 -48.05 1.05 -47.85 L1.1 -47.75 1.3 -47.75 Q2.45 -47.45 3.35 -48.3 L3.65 -48.8 3.75 -49.15 Q3.9 -49.6 3.65 -50.0 L3.45 -50.35 Q2.9 -51.05 1.9 -51.0 L2.05 -50.65" fill="#681a17" fill-rule="evenodd" stroke="none"/>
    <path d="M11.4 -47.6 L11.5 -47.65 11.6 -47.65 12.05 -47.55 11.95 -47.65 13.4 -47.45 13.5 -47.45 14.55 -47.4 16.4 -46.9 15.8 -46.2 15.45 -45.6 15.4 -45.55 13.55 -45.6 14.0 -45.3 12.35 -46.6 11.55 -47.45 11.4 -47.6 M17.15 -46.7 L17.2 -46.7 17.15 -46.65 17.15 -46.7 M2.05 -50.65 L1.9 -51.0 Q2.9 -51.05 3.45 -50.35 L3.65 -50.0 Q3.9 -49.6 3.75 -49.15 L3.65 -48.8 3.35 -48.3 Q2.45 -47.45 1.3 -47.75 L1.1 -47.75 1.05 -47.85 Q0.6 -48.05 0.5 -48.6 L0.5 -48.95 0.45 -49.0 1.35 -48.95 Q2.35 -49.5 2.05 -50.65" fill="#cc0000" fill-rule="evenodd" stroke="none"/>
    <path d="M1.45 -50.85 L1.75 -50.25 Q1.85 -49.5 1.1 -49.25 L0.5 -49.3 0.4 -49.4 Q-0.05 -49.7 0.2 -50.25 L0.9 -50.9 1.45 -50.85 M11.9 -36.75 L11.95 -36.7 11.95 -36.4 11.8 -35.9 Q11.7 -35.65 11.9 -35.45 L11.5 -35.45 11.4 -35.55 11.3 -35.7 11.25 -35.75 Q11.1 -36.05 11.25 -36.4 L11.6 -36.8 11.9 -36.75 M10.95 -35.7 L10.95 -35.65 11.0 -35.55 10.95 -35.05 10.4 -35.05 10.15 -34.95 10.05 -35.1 Q9.8 -35.4 9.8 -35.85 L9.8 -35.9 9.8 -36.0 9.85 -36.25 9.6 -36.85 9.6 -36.9 10.2 -36.6 10.35 -36.65 10.75 -36.4 10.9 -35.95 10.95 -35.7 M9.4 -36.1 L9.4 -35.85 9.45 -35.25 9.2 -34.9 Q8.7 -34.65 8.4 -35.1 L8.2 -35.6 8.2 -35.8 7.95 -36.4 7.9 -35.95 7.85 -35.75 7.95 -35.15 8.05 -34.75 Q8.2 -34.45 8.0 -34.2 L7.8 -34.1 Q7.15 -34.05 6.85 -34.75 L6.75 -35.15 6.6 -35.3 6.45 -36.15 9.05 -36.75 9.15 -36.55 9.2 -36.45 9.4 -36.1 M6.45 -34.9 L6.4 -34.8 6.55 -34.4 6.6 -33.85 5.6 -33.9 5.5 -34.1 5.05 -34.25 5.05 -34.3 5.05 -34.35 5.15 -35.45 6.1 -35.5 6.45 -34.9 M4.9 -34.45 L4.8 -34.0 4.75 -33.95 4.0 -34.2 3.95 -34.65 4.8 -35.65 5.0 -35.2 4.9 -34.45 M4.15 -35.5 L3.3 -34.8 3.05 -35.1 3.25 -35.9 3.75 -36.05 Q4.2 -35.9 4.15 -35.5 M3.25 -36.2 L2.95 -37.1 3.45 -37.7 Q3.85 -38.15 4.35 -37.7 4.35 -37.1 4.05 -36.65 3.7 -36.2 3.25 -36.2 M4.6 -37.7 L5.1 -38.2 5.35 -38.45 5.65 -38.3 5.7 -37.6 5.55 -36.65 Q5.35 -36.35 5.1 -36.4 4.85 -36.45 4.75 -36.85 L4.6 -37.7 M6.4 -38.4 L6.8 -38.7 7.1 -38.5 7.1 -37.45 6.95 -37.0 6.5 -36.85 Q6.2 -36.85 6.05 -37.05 L5.85 -37.5 6.4 -38.4 M7.75 -38.55 L8.3 -38.55 8.8 -37.9 8.95 -38.6 9.3 -38.65 10.15 -37.4 10.05 -37.05 8.95 -37.55 7.65 -37.15 7.45 -37.95 7.4 -37.95 7.75 -38.55 M10.5 -38.3 L10.55 -38.45 10.8 -38.5 11.35 -37.9 11.4 -37.65 11.4 -37.45 11.5 -37.4 11.3 -36.65 10.4 -37.5 10.4 -38.25 10.45 -38.2 10.45 -38.25 10.5 -38.3" fill="#cccccc" fill-rule="evenodd" stroke="none"/>
    <path d="M22.9 -32.9 Q23.3 -32.35 23.85 -31.95 25.8 -30.7 26.8 -28.6 L25.45 -27.8 25.45 -27.1 20.2 -30.1 22.05 -32.9 22.9 -32.9 M33.5 -19.85 L33.55 -20.15 Q35.9 -19.0 37.6 -17.25 L39.75 -14.75 37.55 -9.9 Q37.8 -11.05 37.55 -12.0 36.7 -15.25 33.5 -15.2 L31.95 -13.5 33.5 -19.85 M-4.95 -27.45 L-5.0 -26.85 -5.9 -27.15 Q-9.95 -27.4 -9.6 -23.5 L-11.55 -24.2 -9.5 -23.25 -8.85 -22.0 Q-7.6 -19.6 -4.9 -18.95 L-2.5 -15.4 -5.75 -1.3 -7.7 -0.35 -13.35 0.6 -13.1 1.05 -13.05 1.25 -20.0 1.95 -21.4 0.3 Q-22.3 -1.95 -23.9 -3.55 L-25.9 -5.25 -23.0 -1.0 -24.55 -1.95 -26.05 -1.7 Q-27.7 -6.6 -31.1 -8.15 L-31.6 -8.9 -34.1 -8.95 -34.1 -8.85 -34.45 -8.9 Q-35.1 -8.9 -35.6 -8.0 -36.8 -5.8 -35.65 -3.5 L-36.7 -5.5 Q-38.65 -9.6 -39.65 -14.05 L-39.05 -14.2 -37.9 -13.4 -35.45 -13.45 -34.9 -13.5 -31.65 -14.1 -31.1 -14.75 -30.45 -13.75 -29.2 -11.45 -29.7 -11.3 -29.15 -11.45 -26.85 -9.35 -28.5 -12.1 -27.0 -12.1 -26.7 -12.35 Q-26.45 -12.65 -26.35 -13.0 -25.1 -16.95 -26.6 -20.85 L-25.5 -21.75 Q-19.45 -26.95 -14.0 -32.4 L-10.2 -31.95 Q-10.2 -30.1 -8.65 -28.75 -7.1 -27.45 -4.95 -27.45 M10.45 -19.9 Q15.15 -22.2 20.5 -22.2 L23.65 -17.55 23.9 -17.1 20.55 -9.6 20.15 -9.8 20.55 -9.25 19.45 -6.0 17.2 -6.45 18.95 -5.55 18.55 -4.85 Q13.5 1.2 4.7 2.05 L3.75 -0.1 3.75 -2.55 3.85 -2.95 Q4.8 -6.8 3.8 -10.35 L4.15 -10.1 Q6.4 -10.1 8.5 -11.4 10.8 -12.75 13.25 -13.4 19.7 -14.75 20.15 -20.15 L18.7 -20.75 Q14.45 -21.8 10.45 -19.85 L10.45 -19.9 M-21.55 9.4 Q-8.85 12.65 -1.1 4.05 L-1.2 5.5 -0.9 7.15 Q4.55 6.7 9.8 8.3 L10.2 8.75 17.9 10.45 17.85 10.85 Q16.45 15.3 10.95 13.6 L13.55 13.05 13.3 12.85 Q0.1 10.35 -13.2 12.65 L-17.7 11.45 -16.75 11.35 -17.8 10.55 -18.55 10.6 Q-20.2 10.35 -21.55 9.4 M-22.45 13.45 Q-18.35 13.85 -14.95 16.7 L-14.65 17.1 Q-14.35 18.3 -15.45 19.05 -16.4 19.75 -17.55 20.1 L-17.45 23.8 -15.1 26.1 -15.65 26.95 -17.15 26.95 -16.55 30.65 -18.3 35.0 -20.85 36.6 -21.0 36.35 Q-20.7 25.2 -22.45 13.45 M-10.3 -26.2 L-14.15 -28.1 -13.7 -27.4 Q-12.65 -26.25 -11.35 -26.0 L-10.3 -26.2 M-21.1 -20.0 L-25.5 -21.7 -25.8 -20.75 -24.05 -17.2 -23.95 -18.0 -22.6 -17.8 -22.65 -17.75 Q-22.1 -17.4 -21.25 -18.55 L-21.0 -19.35 -21.0 -19.4 -21.0 -19.35 -21.1 -20.0 M-24.0 -8.45 L-23.75 -7.6 Q-23.45 -6.95 -22.85 -6.75 L-20.65 -6.15 Q-14.5 -12.15 -9.15 -18.8 -8.45 -19.65 -9.6 -19.8 -20.1 -21.85 -23.7 -10.75 L-23.8 -10.4 -24.05 -8.5 -24.05 -8.45 -24.0 -8.45 M-7.2 -3.4 L-8.1 -3.05 -6.1 -3.2 -7.2 -3.4 M-8.1 25.8 L-6.35 26.1 Q-2.4 26.4 0.9 24.0 L0.6 27.9 0.0 27.05 0.15 29.7 0.0 33.2 -1.35 33.45 Q-8.1 35.7 -13.4 30.55 L-12.35 30.55 -11.25 29.7 Q-9.1 28.15 -8.1 25.8 M-1.4 17.25 L-0.95 17.45 -3.25 18.75 -0.85 17.75 0.35 18.9 0.25 22.85 -0.5 23.3 Q-5.85 25.9 -11.55 23.65 L-10.25 23.2 Q-6.25 22.1 -5.95 18.6 L-4.8 17.95 -1.4 17.25 M-10.75 33.6 L-10.25 33.95 Q-4.95 37.2 0.45 34.15 L0.25 36.95 -0.8 36.6 -0.75 36.75 Q0.1 38.2 -0.2 39.8 L-0.7 42.2 -2.45 42.6 Q-7.75 42.95 -11.45 39.25 L-11.0 38.6 -11.15 37.2 -10.4 34.35 -10.85 33.75 -10.75 33.6 M16.55 18.55 L16.15 21.5 Q11.4 24.8 5.35 24.9 L4.7 24.35 4.8 20.95 Q5.5 21.5 6.35 21.3 L6.7 21.2 9.6 18.55 9.7 18.55 9.65 18.5 10.0 17.8 9.95 17.15 15.7 18.0 16.55 18.55 M14.3 24.35 Q14.3 25.55 14.75 26.4 15.15 27.25 15.75 27.25 L15.9 30.05 14.85 31.15 Q10.35 35.75 4.35 33.45 L4.45 31.75 Q5.9 32.5 7.2 31.4 10.3 29.0 7.4 26.35 L4.65 27.9 4.6 27.75 4.65 25.5 5.35 25.65 Q10.05 26.7 14.3 24.35 M15.8 31.6 Q13.75 33.45 14.15 36.0 L14.05 36.75 Q11.75 44.1 3.85 42.85 L3.95 42.15 Q5.3 42.1 6.45 41.25 10.3 38.45 6.6 36.1 L4.2 37.55 4.3 34.8 4.35 34.75 5.1 35.6 6.7 35.65 Q12.35 35.65 15.7 31.55 L15.8 31.6" fill="#a66600" fill-rule="evenodd" stroke="none"/>
    <path d="M1.95 -28.2 L1.95 -28.1 1.7 -28.15 1.3 -28.1 1.95 -28.2 M14.55 -27.3 L14.4 -27.75 15.35 -27.85 Q16.35 -27.9 17.0 -28.4 L16.95 -28.45 21.4 -26.45 17.9 -26.2 22.0 -26.2 19.95 -27.6 20.95 -27.8 16.95 -28.45 17.0 -28.45 17.4 -28.9 Q17.85 -29.55 17.7 -30.35 17.15 -32.95 16.2 -35.45 L15.7 -36.35 16.05 -36.95 18.25 -36.1 21.0 -34.45 21.0 -33.7 21.7 -33.15 21.95 -33.3 22.2 -33.35 22.05 -32.9 20.2 -30.1 25.45 -27.1 25.8 -26.1 26.15 -26.65 28.2 -25.25 28.5 -25.0 28.65 -24.05 29.1 -24.4 31.35 -20.2 31.35 -19.65 31.35 -19.35 30.95 -18.7 31.3 -18.05 30.7 -13.6 Q30.4 -11.35 29.6 -9.4 L31.95 -13.5 33.5 -15.2 Q36.7 -15.25 37.55 -12.0 37.8 -11.05 37.55 -9.9 L37.2 -9.3 Q33.7 -3.15 28.0 0.8 L28.55 -1.0 28.95 -1.9 29.6 -2.7 Q27.8 -1.75 27.3 -0.15 24.85 7.25 19.25 12.0 L20.25 11.65 20.0 12.1 20.7 11.45 22.85 9.75 23.4 9.0 Q24.45 8.65 23.75 10.3 L23.25 11.1 Q22.15 25.15 21.9 39.15 20.0 42.25 16.3 43.45 14.2 44.1 12.6 45.45 5.35 51.75 -2.6 47.55 -7.45 45.0 -12.5 44.3 -16.25 44.2 -18.3 42.85 L-18.65 42.35 -19.15 42.15 Q-21.0 40.4 -20.95 37.25 L-20.95 36.65 -20.85 36.6 -18.3 35.0 -16.55 30.65 -17.15 26.95 -15.65 26.95 -15.1 26.1 -17.45 23.8 -17.55 20.1 Q-16.4 19.75 -15.45 19.05 -14.35 18.3 -14.65 17.1 L-14.95 16.7 Q-18.35 13.85 -22.45 13.45 L-22.3 11.9 -20.55 11.15 -17.7 11.45 -13.2 12.65 -11.25 13.25 Q0.0 12.55 10.95 13.6 16.45 15.3 17.85 10.85 L17.9 10.45 10.2 8.75 9.8 8.3 Q4.55 6.7 -0.9 7.15 L-1.2 5.5 -1.1 4.05 Q-8.85 12.65 -21.55 9.4 L-23.25 7.2 -27.85 -0.85 -26.15 4.2 -27.6 3.65 Q-32.55 1.25 -35.65 -3.5 -36.8 -5.8 -35.6 -8.0 -35.1 -8.9 -34.45 -8.9 L-34.1 -8.85 -34.05 -8.85 -33.1 -5.9 -32.45 -6.05 Q-31.05 -6.45 -30.95 -7.9 L-31.1 -8.15 Q-27.7 -6.6 -26.05 -1.7 L-24.55 -1.95 -23.0 -1.0 Q-21.5 3.5 -17.75 6.25 L-18.95 4.85 Q-20.7 2.8 -21.4 0.3 L-20.0 1.95 -13.05 1.25 -12.45 1.2 -10.35 2.55 -15.3 2.3 Q-12.6 3.45 -9.6 3.5 L-9.9 2.75 Q-10.55 1.45 -11.95 1.05 L-8.25 -0.15 -7.7 -0.35 -5.75 -1.3 -2.5 -15.4 Q-1.35 -11.2 -1.15 -6.9 -0.5 8.6 -16.05 7.15 -10.05 9.45 -5.1 5.15 4.6 -3.45 -1.9 -17.0 L-1.0 -16.9 -0.8 -17.3 -0.7 -17.75 Q-0.15 -17.0 1.15 -17.5 L1.6 -17.8 1.55 -17.25 1.6 -17.0 1.55 -17.05 Q0.95 -17.05 0.55 -16.5 L0.3 -15.95 0.05 -16.05 -0.35 -15.95 Q-0.7 -15.7 -0.6 -15.3 -0.4 -14.4 0.5 -14.75 L0.6 -14.95 Q1.1 -14.3 1.8 -14.95 2.0 -14.0 3.05 -14.35 L3.1 -14.35 Q2.45 -12.85 3.25 -11.25 L3.75 -2.55 3.75 -0.1 4.4 2.85 4.1 3.5 5.5 4.1 8.95 6.5 Q9.8 7.05 10.8 7.45 L13.2 8.35 13.65 8.15 4.7 2.05 Q13.5 1.2 18.55 -4.85 L18.95 -5.55 20.25 -5.4 19.45 -6.0 20.55 -9.25 22.5 -8.85 20.55 -9.6 23.9 -17.1 Q27.0 -4.6 18.2 6.5 L20.75 3.65 Q30.95 -9.45 21.35 -21.1 L23.65 -17.55 20.5 -22.2 Q15.15 -22.2 10.45 -19.9 L7.55 -18.3 6.95 -18.5 7.15 -18.75 Q7.5 -19.3 6.9 -19.65 L6.5 -19.65 6.3 -19.5 Q5.75 -18.9 6.4 -18.45 L6.7 -18.45 6.75 -18.3 7.15 -18.1 5.7 -17.6 4.35 -17.0 Q4.45 -17.75 3.6 -17.9 L3.15 -17.8 3.05 -17.7 Q2.9 -18.25 2.05 -18.2 L1.9 -18.1 1.85 -18.1 1.7 -17.95 1.85 -18.35 Q2.15 -19.9 1.0 -20.25 1.25 -21.35 -0.3 -21.8 -1.25 -21.8 -1.45 -20.8 L-1.5 -20.4 -2.15 -20.6 Q-2.55 -20.45 -2.6 -19.95 -2.65 -19.05 -1.7 -19.2 L-1.3 -19.55 -1.05 -19.3 -1.05 -18.5 -0.95 -18.15 -1.35 -18.3 -1.75 -18.15 Q-2.2 -17.9 -2.1 -17.45 L-2.05 -17.25 -2.75 -18.05 -4.7 -20.3 Q-6.0 -21.7 -7.6 -22.45 L-4.9 -18.95 Q-7.6 -19.6 -8.85 -22.0 L-9.5 -23.25 -9.6 -23.5 Q-9.95 -27.4 -5.9 -27.15 L-5.0 -26.85 -4.95 -27.45 -4.35 -27.5 -4.9 -27.75 -3.75 -29.5 -3.05 -29.1 -1.8 -28.6 -1.55 -28.5 -2.25 -27.55 Q-2.8 -25.85 -1.15 -25.1 0.9 -24.2 3.3 -24.7 L3.75 -24.85 4.0 -25.05 Q4.05 -24.2 5.25 -23.8 5.3 -23.5 5.5 -23.3 L5.9 -23.1 Q7.85 -23.0 9.75 -23.7 L10.3 -23.8 12.95 -24.05 Q13.75 -24.2 13.95 -25.1 L14.3 -25.4 14.7 -26.2 14.55 -27.3 M7.35 -20.35 Q7.35 -20.1 7.55 -20.05 L7.85 -20.1 Q8.45 -20.5 7.75 -20.75 L7.55 -20.75 7.35 -20.35 M4.15 -16.1 L3.4 -15.05 3.35 -14.9 Q3.45 -15.9 2.45 -15.95 L2.35 -16.5 2.8 -16.65 2.95 -16.8 3.15 -16.5 4.05 -16.45 4.25 -16.75 4.35 -16.95 4.7 -17.1 4.7 -16.55 4.15 -16.1 M-4.15 -22.75 L-4.05 -23.0 -4.1 -23.1 -4.05 -23.15 -4.05 -23.2 -4.1 -23.25 -4.55 -23.4 -4.6 -23.4 -4.7 -23.3 Q-5.15 -22.65 -4.35 -22.6 L-4.25 -22.65 -4.15 -22.7 -4.15 -22.75 M-3.25 -22.75 L-3.25 -22.7 -3.55 -22.6 -3.8 -22.3 -4.25 -22.55 -4.25 -22.5 -4.55 -22.45 -4.65 -22.3 -4.7 -22.15 -4.7 -21.9 -4.7 -21.75 -4.25 -21.55 -3.95 -21.65 -3.75 -21.85 -3.6 -21.7 -3.0 -21.9 Q-2.3 -22.2 -2.9 -22.7 L-3.25 -22.75 M-0.4 -22.3 Q-0.45 -23.05 -1.35 -22.9 L-1.65 -22.45 Q-1.75 -22.0 -1.35 -21.8 -0.8 -21.65 -0.5 -22.05 L-0.4 -22.3 M3.4 -19.65 L3.75 -20.05 Q4.55 -21.65 2.8 -22.05 1.9 -22.1 1.7 -21.15 1.4 -19.3 3.4 -19.65 M5.5 -21.75 L5.1 -21.55 Q4.2 -20.9 4.85 -20.25 L4.8 -20.3 4.4 -20.2 Q4.1 -19.95 4.2 -19.55 L4.35 -19.2 4.1 -19.25 3.95 -19.1 3.85 -19.1 2.95 -18.6 3.65 -18.65 3.65 -18.25 Q3.95 -17.5 4.75 -17.85 L5.05 -18.2 5.05 -18.75 5.75 -18.85 4.95 -18.95 4.9 -19.0 5.2 -19.1 5.3 -19.25 5.4 -19.9 5.85 -20.05 Q7.1 -21.15 5.5 -21.75 M1.3 -23.55 L0.9 -23.25 0.65 -23.0 0.65 -22.9 0.65 -22.6 0.7 -22.5 Q1.15 -21.9 1.85 -22.05 L1.95 -22.2 Q2.9 -23.35 1.3 -23.55 M0.7 -13.6 L0.8 -13.3 Q0.25 -12.6 0.9 -12.05 L0.75 -11.75 Q0.05 -9.7 2.25 -9.9 L2.7 -10.35 Q3.4 -11.8 2.05 -12.25 L2.2 -12.95 2.1 -13.2 2.2 -13.45 Q2.4 -14.65 1.2 -14.6 L1.2 -14.55 1.05 -14.5 0.95 -14.5 Q0.55 -14.15 0.7 -13.6 M27.65 -16.1 L27.4 -16.05 27.0 -15.75 Q26.85 -14.75 27.9 -14.8 L28.1 -15.05 28.3 -15.55 28.25 -15.65 Q28.05 -16.05 27.65 -16.1 M27.55 -19.7 Q28.0 -19.75 28.2 -20.25 29.05 -22.25 26.7 -22.2 26.15 -22.0 26.0 -21.35 L25.95 -20.55 24.95 -20.75 24.15 -20.0 Q23.4 -18.8 24.6 -18.15 25.8 -17.55 26.3 -18.8 L26.5 -19.8 27.55 -19.7 M22.8 -24.4 L21.55 -24.55 Q20.5 -24.55 19.45 -23.9 L20.45 -24.3 22.8 -24.4 M24.45 -23.6 L24.15 -23.55 24.0 -23.5 23.6 -23.05 Q23.25 -22.2 24.05 -21.8 L24.65 -21.85 Q26.25 -22.85 24.45 -23.6 M17.15 -0.9 L17.55 -1.3 16.15 -0.75 Q13.15 0.95 10.25 2.75 L17.15 -0.9 M-6.9 -25.05 L-8.0 -26.65 -8.0 -25.9 -6.9 -25.05 M-13.15 18.35 L-14.7 19.5 -14.8 20.25 Q-15.1 22.75 -13.0 23.9 L-12.8 25.25 -13.55 25.65 Q-15.4 26.85 -15.35 28.7 L-14.35 30.3 -11.55 33.1 -11.7 33.4 -12.15 33.55 -13.55 33.95 -13.55 35.1 Q-15.85 37.6 -13.55 40.25 L-12.05 40.2 -11.75 39.85 Q-7.3 45.1 -1.05 43.75 L-0.75 43.5 Q2.3 40.6 0.25 36.95 L0.45 34.15 0.85 33.05 Q1.55 30.45 0.6 27.9 L0.9 24.0 1.25 19.35 4.05 18.9 4.8 20.95 4.7 24.35 3.7 20.6 3.55 21.85 Q3.45 23.8 4.65 25.5 L4.6 27.75 4.3 28.1 3.85 28.8 4.35 27.45 3.85 28.15 Q2.0 31.2 3.95 34.3 L4.3 34.8 4.2 37.55 3.25 37.85 3.6 36.6 2.85 38.1 1.55 39.85 2.35 41.15 2.4 41.2 Q2.55 43.25 4.55 43.7 10.05 44.65 13.75 40.0 15.4 37.95 14.3 35.55 L14.15 36.0 Q13.75 33.45 15.8 31.6 L16.2 30.9 16.4 29.8 Q17.1 26.9 15.1 25.35 L15.75 27.25 Q15.15 27.25 14.75 26.4 14.3 25.55 14.3 24.35 15.85 23.95 16.45 22.4 L17.0 20.85 16.15 21.5 16.55 18.55 17.1 20.15 Q17.7 15.6 10.3 16.0 L9.85 16.4 9.3 16.5 7.35 15.75 6.9 15.45 3.65 16.35 6.9 15.75 3.7 17.1 5.35 16.7 4.9 17.2 4.85 17.2 4.85 17.25 4.1 18.6 1.25 19.0 0.7 17.45 2.2 17.2 0.25 17.1 Q-1.2 15.75 -3.35 15.55 L-4.85 15.6 -6.6 16.9 -1.4 17.25 -4.8 17.95 -5.95 18.6 -7.6 16.15 -9.15 16.3 Q-11.5 16.7 -13.15 18.35 M16.3 7.9 L17.45 7.15 15.45 7.8 16.3 7.9 M19.95 20.0 L20.25 20.2 Q20.8 20.5 21.2 20.05 22.35 18.75 20.65 18.2 20.3 18.2 20.05 18.5 19.55 19.0 19.65 19.5 19.25 19.15 18.4 19.15 17.65 19.55 17.4 20.4 17.1 21.25 17.8 21.8 19.25 22.9 19.85 21.15 20.1 20.45 19.95 20.0 M19.15 14.8 Q18.8 14.95 18.6 15.35 18.05 16.45 19.15 17.05 L20.05 17.05 20.6 16.4 Q21.05 15.35 20.05 14.8 L19.15 14.8 M11.35 3.75 L11.35 4.45 17.35 3.75 11.7 4.0 16.65 -0.45 11.35 3.75 M19.9 23.5 L19.6 23.85 Q19.15 24.55 19.85 25.05 L20.45 25.05 20.6 24.9 Q21.45 23.7 19.9 23.5 M17.25 35.8 L16.75 36.2 Q15.7 37.4 17.35 37.7 17.7 37.75 17.85 37.5 18.95 36.15 17.25 35.8 M19.85 29.85 Q19.45 29.8 19.25 30.2 18.45 31.55 19.85 32.05 L20.3 31.9 Q21.5 30.6 19.85 29.85 M18.3 27.35 Q19.1 26.15 17.6 26.0 L17.25 26.35 Q16.8 27.05 17.5 27.5 L18.15 27.5 18.3 27.35" fill="#754900" fill-rule="evenodd" stroke="none"/>
    <path d="M-6.75 -32.55 L-3.8 -29.6 -3.85 -29.65 -3.75 -29.5 -4.9 -27.75 -6.0 -28.05 -9.6 -32.0 -6.75 -32.55 M28.6 -25.4 L28.5 -25.0 28.2 -25.25 28.6 -25.4 M29.1 -24.4 L29.5 -25.3 31.35 -20.2 29.1 -24.4 M20.25 11.65 L20.7 11.45 20.0 12.1 20.25 11.65 M-2.75 -18.05 L-2.05 -17.25 -2.05 -17.2 -2.5 -17.5 -2.75 -18.05 M5.7 -17.6 L7.15 -18.1 7.95 -18.05 4.15 -16.1 4.7 -16.55 4.7 -17.1 5.7 -17.6 M7.55 -18.3 L10.45 -19.9 10.45 -19.85 Q9.1 -19.25 7.8 -18.25 L7.55 -18.3 M5.5 4.1 L4.1 3.5 4.4 2.85 5.5 4.1 M-8.25 -0.15 L-11.95 1.05 -12.35 0.9 -8.25 -0.15 M-12.45 1.2 L-13.05 1.25 -13.1 1.05 -12.45 1.2 M-34.05 -8.85 L-34.1 -8.85 -34.1 -8.95 -34.05 -8.85 M-20.55 11.15 L-22.3 11.9 -22.0 10.55 -20.55 11.15 M-20.85 36.6 L-20.95 36.65 -20.95 37.25 -21.0 36.35 -20.85 36.6 M31.35 -19.35 L31.3 -18.05 30.95 -18.7 31.35 -19.35 M-14.45 20.15 L-14.4 19.75 -14.25 19.75 -14.45 20.15 M-13.0 23.9 L-11.65 24.65 -12.8 25.25 -13.0 23.9 M-11.55 33.1 L-10.75 33.6 -10.85 33.75 -11.7 33.4 -11.55 33.1 M-13.35 34.9 L-13.15 34.15 Q-12.95 33.85 -12.65 33.85 L-13.35 34.9 M16.2 30.9 L15.8 31.6 15.7 31.55 16.2 30.9 M4.3 34.8 L3.95 34.3 4.35 34.75 4.3 34.8 M4.3 28.1 L4.6 27.75 4.65 27.9 4.3 28.1 M4.9 17.2 L4.85 17.25 4.85 17.2 4.9 17.2" fill="#996600" fill-rule="evenodd" stroke="none"/>
    <path d="M10.1 -46.1 L10.1 -46.2 10.15 -46.15 10.05 -46.0 10.1 -46.1" fill="#bb8300" fill-rule="evenodd" stroke="none"/>
    <path d="M10.85 -43.45 L10.85 -43.5 10.9 -43.45 10.85 -43.45" fill="#ae8300" fill-rule="evenodd" stroke="none"/>
    <path d="M7.4 -37.9 L7.4 -37.95 7.45 -37.95 7.4 -37.9 M10.2 -37.2 L10.25 -37.3 10.3 -37.4 10.2 -37.2 M9.6 -36.9 L9.6 -36.85 9.55 -36.85 9.55 -36.9 9.6 -36.9" fill="#ffff99" fill-rule="evenodd" stroke="none"/>
    <path d="M-9.0 -39.3 L-9.0 -37.6 -8.7 -37.1 -8.75 -36.55 -8.35 -36.05 -8.45 -35.35 -6.75 -32.55 -9.6 -32.0 -10.2 -31.95 -14.0 -32.4 Q-19.45 -26.95 -25.5 -21.75 L-26.6 -20.85 Q-25.1 -16.95 -26.35 -13.0 -26.45 -12.65 -26.7 -12.35 L-27.0 -12.1 -28.5 -12.1 -31.0 -19.55 -30.8 -20.0 -27.95 -26.25 -26.05 -29.2 -20.9 -32.95 -20.6 -32.5 -20.4 -31.4 -20.0 -31.75 -18.7 -31.25 -19.45 -31.1 Q-17.65 -30.35 -16.3 -31.95 L-16.2 -32.5 -16.15 -33.9 -16.35 -34.75 -11.55 -36.55 -11.2 -35.15 -10.35 -38.1 -9.55 -38.55 -9.3 -39.3 -9.0 -39.3 M3.25 -11.25 Q2.45 -12.85 3.1 -14.35 L3.3 -14.8 3.35 -14.9 3.4 -15.05 4.15 -16.1 7.95 -18.05 8.45 -17.95 7.8 -18.25 Q9.1 -19.25 10.45 -19.85 14.45 -21.8 18.7 -20.75 L20.15 -20.15 Q19.7 -14.75 13.25 -13.4 10.8 -12.75 8.5 -11.4 6.4 -10.1 4.15 -10.1 L3.8 -10.35 3.15 -12.75 3.25 -11.25 M-31.75 -19.6 L-31.45 -19.45 -31.75 -17.5 -33.65 -16.75 -31.55 -17.2 -31.3 -15.75 -35.45 -13.45 -37.9 -13.4 -39.05 -14.2 -39.65 -14.05 -40.2 -16.85 -37.65 -17.7 -37.0 -18.55 Q-35.65 -18.05 -34.55 -18.85 L-34.3 -19.25 -32.05 -19.8 -31.75 -19.6 M-34.9 -13.5 L-31.2 -15.15 -30.45 -13.75 -31.1 -14.75 -31.65 -14.1 -34.9 -13.5 M-23.7 -10.75 Q-20.1 -21.85 -9.6 -19.8 -8.45 -19.65 -9.15 -18.8 -14.5 -12.15 -20.65 -6.15 L-22.85 -6.75 Q-23.45 -6.95 -23.75 -7.6 L-24.0 -8.45 -21.15 -11.0 -21.6 -11.0 -24.05 -8.5 -23.8 -10.4 -23.75 -10.45 Q-22.9 -11.15 -23.7 -10.75 M-14.45 20.15 L-14.25 19.75 -13.5 18.75 -13.15 18.35 Q-11.5 16.7 -9.15 16.3 L-7.6 16.15 -5.95 18.6 Q-6.25 22.1 -10.25 23.2 L-11.55 23.65 Q-12.75 23.65 -13.6 22.65 -14.45 21.6 -14.45 20.15 M-11.65 24.65 L-8.1 25.8 Q-9.1 28.15 -11.25 29.7 L-12.35 30.55 -13.4 30.55 -13.8 27.8 -13.65 26.65 -14.2 27.05 -14.35 30.3 -15.35 28.7 Q-15.4 26.85 -13.55 25.65 L-12.8 25.25 -11.65 24.65 M4.05 18.9 L9.6 18.55 6.7 21.2 6.35 21.3 Q5.5 21.5 4.8 20.95 L4.05 18.9 M9.6 18.5 L4.1 18.6 4.85 17.25 4.9 17.2 5.35 16.7 7.35 15.75 9.3 16.5 9.6 16.8 9.95 17.15 10.0 17.8 9.65 18.5 9.6 18.5 M-11.7 33.4 L-10.85 33.75 -10.4 34.35 -11.15 37.2 -11.5 39.2 -13.35 34.9 -12.65 33.85 -12.15 33.55 -11.7 33.4 M-13.55 35.1 L-13.4 36.1 Q-13.1 38.25 -11.75 39.85 L-12.05 40.2 -13.55 40.25 Q-15.85 37.6 -13.55 35.1 M2.35 41.15 L1.55 39.85 2.85 38.1 2.35 40.7 2.35 40.85 2.35 41.15 M3.25 37.85 L4.2 37.55 6.6 36.1 Q10.3 38.45 6.45 41.25 5.3 42.1 3.95 42.15 L3.25 41.9 3.25 37.85 M3.85 28.8 L4.3 28.1 4.65 27.9 7.4 26.35 Q10.3 29.0 7.2 31.4 5.9 32.5 4.45 31.75 L3.55 30.95 3.85 28.8" fill="#b37800" fill-rule="evenodd" stroke="none"/>
  </g>
</svg>
