<?xml version="1.0" encoding="UTF-8" standalone="no"?>
<svg xmlns:xlink="http://www.w3.org/1999/xlink" height="93.45px" width="21.9px" xmlns="http://www.w3.org/2000/svg">
  <g transform="matrix(1.0, 0.0, 0.0, 1.0, 15.4, 7.7)">
    <path d="M1.25 -6.75 L0.7 -6.8 -0.05 -6.75 -0.55 -6.65 -1.35 -6.3 -2.4 -5.8 Q-5.4 -4.2 -6.0 -0.95 -6.75 2.8 -6.65 6.45 -6.2 8.8 -6.85 10.85 -7.2 12.0 -7.9 13.05 L-9.05 15.0 -9.9 15.35 -10.25 16.45 -9.85 17.0 -10.3 18.55 -10.75 18.4 -10.95 19.15 -11.1 20.0 -10.6 20.8 -10.75 23.1 -11.4 22.55 -11.7 26.55 -10.95 26.3 -10.95 26.65 -11.0 26.7 -10.95 26.95 -10.9 27.0 -11.0 27.0 -11.55 30.1 -11.5 30.05 -11.6 30.65 -11.55 30.9 -11.6 30.95 Q-12.2 32.15 -12.45 33.45 -12.2 34.5 -12.35 35.6 L-12.5 36.55 Q-12.95 38.1 -12.95 39.6 -10.7 37.55 -8.1 36.5 L-7.35 36.25 -5.8 35.6 -5.75 35.6 -4.65 35.15 -4.45 35.0 Q-4.65 33.75 -4.25 32.65 L-3.95 32.0 -3.85 31.8 -3.8 31.7 -1.75 29.05 -1.6 28.9 -1.45 28.1 -1.3 27.4 -1.3 27.3 -1.1 26.55 -1.1 26.5 -1.15 26.55 -1.15 26.45 -1.05 25.9 -1.0 25.55 -0.3 25.7 0.05 23.8 -0.6 23.5 -0.5 22.95 -0.45 22.9 -0.45 22.95 -0.45 22.9 -0.2 21.8 Q0.2 22.15 0.3 21.65 L0.6 19.75 0.65 19.65 0.65 19.4 0.55 19.05 0.5 19.4 0.75 18.1 0.7 18.05 0.75 18.0 1.6 17.65 1.7 16.75 Q1.65 16.15 1.0 16.45 L1.1 16.0 Q1.2 15.35 0.9 14.95 L1.15 15.5 1.25 15.1 1.5 14.05 2.8 11.25 3.05 10.85 Q5.0 7.75 5.55 3.75 6.15 -0.45 4.55 -4.2 3.7 -5.95 2.05 -6.55 L1.9 -6.6 1.8 -6.6 1.75 -6.65 1.65 -6.65 1.6 -6.7 1.25 -6.75 M3.7 -6.35 L5.5 -3.65 Q7.0 0.45 6.25 4.9 5.7 8.15 4.15 10.85 L2.9 12.7 Q2.3 16.4 1.15 19.95 0.0 23.5 -0.45 27.3 -0.95 29.05 -1.95 30.6 -3.0 32.1 -3.55 33.85 L-3.95 35.0 -3.45 35.6 Q-2.35 37.05 -2.2 39.1 -2.05 41.55 -2.6 43.8 -3.7 45.4 -3.85 47.35 -3.35 48.65 -3.65 50.0 L-4.15 52.8 Q-4.55 56.85 -4.05 61.1 -2.45 63.65 0.15 66.1 2.75 68.55 3.3 71.75 3.35 74.05 3.85 76.55 3.3 76.65 3.15 77.15 2.95 77.6 2.35 77.5 L1.2 75.55 0.0 73.75 Q-0.05 76.6 0.7 79.4 L2.0 85.05 Q1.75 85.9 1.05 85.7 L0.4 85.25 -3.55 78.45 Q-4.95 77.85 -5.95 76.55 -7.0 75.25 -8.3 74.45 -10.65 69.55 -10.45 63.8 -14.3 58.75 -14.7 52.2 L-14.15 49.0 Q-13.8 47.3 -15.15 46.1 -15.65 44.55 -15.15 43.05 L-14.0 40.25 Q-13.85 38.6 -13.3 37.0 -13.1 36.3 -13.05 35.6 -13.0 34.65 -13.25 33.75 -13.25 32.25 -12.2 31.15 -11.65 24.45 -11.4 18.4 -10.95 16.25 -9.8 14.15 L-8.0 10.85 -7.55 10.05 Q-7.1 6.65 -7.7 3.3 -8.3 -0.05 -6.45 -2.9 -3.85 -7.2 0.85 -7.7 2.65 -7.65 3.7 -6.35 M-9.45 38.05 L-10.35 38.6 -10.5 38.7 Q-12.1 39.75 -13.5 41.05 L-13.55 41.15 -13.6 41.2 -13.65 41.35 -14.15 42.75 -14.15 42.8 Q-14.6 44.95 -13.55 47.15 -10.0 44.3 -5.5 44.1 L-3.4 44.25 Q-2.05 39.7 -4.6 35.8 -6.65 36.5 -8.45 37.5 L-9.35 38.0 -9.45 38.05 M-11.4 46.45 L-12.95 47.45 Q-13.15 48.4 -12.95 49.0 -11.35 47.6 -9.1 47.1 L-8.95 47.05 -7.55 46.75 -7.0 46.7 -4.9 46.65 Q-4.95 45.7 -4.6 45.0 L-7.05 45.1 -8.85 45.45 -8.95 45.45 -9.45 45.6 Q-10.5 45.9 -11.4 46.45 M-12.2 58.9 L-10.35 62.8 -10.05 62.8 Q-7.6 60.7 -4.75 60.7 -5.7 54.8 -4.45 48.9 L-4.75 47.95 Q-7.1 47.2 -9.4 48.0 L-10.05 48.25 -13.0 49.75 -13.2 49.85 -13.7 50.1 -13.7 50.15 -13.7 50.7 -13.7 50.85 -13.65 51.75 -13.6 52.6 Q-13.3 55.85 -12.2 58.9 M3.1 76.25 L3.2 76.05 3.2 76.0 Q2.25 72.55 1.6 69.0 L-2.0 65.2 Q-3.7 63.7 -4.55 61.9 L-4.9 61.1 -5.15 61.2 Q-7.6 62.3 -9.95 63.8 L-9.9 64.1 -9.9 64.15 -9.8 64.65 Q-9.45 66.5 -9.25 68.4 L-9.05 69.7 Q-9.2 70.45 -8.8 71.05 L-8.75 71.05 -8.25 72.8 Q-7.95 74.4 -6.5 75.2 -5.2 75.95 -4.05 77.1 L-3.95 77.2 -3.95 76.95 -3.55 76.85 -0.5 82.1 0.45 84.1 0.7 84.3 0.95 84.75 1.25 84.8 1.2 84.65 1.15 84.15 1.25 83.85 0.95 83.15 0.4 81.1 0.1 80.05 0.05 79.85 Q0.0 78.95 -0.4 78.2 L-0.55 76.7 -0.7 75.2 -0.9 74.25 -1.05 73.0 Q-1.2 71.4 -0.6 70.15 -0.15 70.85 -0.2 71.75 -0.25 72.7 0.5 73.4 1.55 74.4 2.3 75.9 L2.65 76.75 3.1 76.25" fill="#000000" fill-rule="evenodd" stroke="none"/>
    <path d="M-2.4 -5.8 L-1.35 -6.3 -0.55 -6.65 -0.05 -6.75 0.7 -6.8 1.25 -6.75 1.6 -6.5 Q3.1 -5.7 3.7 -4.05 4.4 -2.1 4.45 0.1 L4.5 0.3 4.15 4.0 3.4 6.9 Q2.75 8.4 1.5 9.55 0.9 10.1 0.7 10.85 L0.55 11.45 0.55 11.5 0.3 11.5 -0.6 11.65 -0.75 11.65 Q-1.7 11.5 -2.15 12.2 L-2.15 12.45 Q-1.55 14.1 -1.35 15.85 L-4.9 16.1 -4.9 15.8 -4.95 15.75 Q-5.2 14.95 -4.95 14.35 L-5.0 14.55 Q-5.15 13.45 -4.95 12.45 L-4.85 12.15 -4.8 10.85 Q-4.6 9.9 -3.8 9.05 L-3.5 8.7 -3.25 9.35 -2.95 9.65 -2.85 9.75 -2.65 9.65 -2.6 9.6 -2.55 9.1 Q-2.55 8.8 -2.7 8.55 L-2.75 7.2 Q-0.65 2.45 -1.1 -3.0 -1.2 -4.7 -2.4 -5.8 M-1.3 27.4 L-1.45 28.1 -1.55 28.6 -1.3 27.4 M-5.8 35.6 L-7.35 36.25 -8.05 36.45 -8.15 35.6 -8.25 34.25 Q-9.7 34.05 -9.55 32.6 -9.4 31.55 -8.6 30.95 L-7.9 30.35 -8.45 30.35 Q-9.25 29.15 -9.15 27.75 L-9.35 26.0 -7.0 25.2 -7.05 25.65 Q-7.1 27.15 -7.7 28.55 -7.55 29.5 -7.85 30.25 L-7.85 30.35 -7.15 29.45 -7.0 29.1 -6.9 28.8 -6.5 28.15 -6.55 28.15 -6.35 27.3 -6.15 26.3 -6.15 26.4 -6.1 25.9 -5.95 24.95 -2.5 25.2 -3.0 26.95 -2.9 27.4 -3.95 30.6 -4.2 30.85 -4.35 30.95 Q-5.95 31.1 -7.25 31.8 L-7.7 32.25 Q-8.3 33.25 -7.15 33.55 L-6.8 34.25 -6.5 34.8 -6.35 35.6 -6.25 35.8 -5.8 35.6 M-2.95 12.9 L-2.95 12.95 -2.9 13.1 -2.9 12.95 -2.9 12.9 -2.8 12.85 -2.95 12.9 M-2.7 13.35 L-2.65 13.4 -2.5 13.55 -2.55 13.45 -2.55 13.4 -2.7 13.35 M-4.85 17.6 L-3.5 17.45 -1.25 17.65 -1.25 19.45 -4.9 19.15 -4.85 17.6 M-6.3 18.35 L-5.95 18.05 -6.3 19.6 -7.35 20.05 -7.0 19.5 -6.3 18.35 M-5.5 23.2 L-5.4 22.75 -5.45 22.4 -5.15 21.35 -5.15 21.15 -1.5 21.5 -1.5 21.55 -1.55 21.55 -1.8 22.8 -1.9 22.75 -2.05 23.25 -5.5 23.2 M-6.65 21.55 L-6.9 23.55 -9.15 24.4 -9.05 23.9 -8.55 22.5 -6.65 21.55 M-7.55 46.75 L-8.95 47.05 -9.1 47.1 Q-11.35 47.6 -12.95 49.0 -13.15 48.4 -12.95 47.45 L-11.4 46.45 Q-10.45 46.0 -9.5 45.7 L-9.5 45.75 -9.45 45.6 -8.95 45.45 -8.85 45.45 -7.05 45.1 -7.55 46.7 -7.55 46.75 M3.1 76.25 L2.65 76.75 2.3 75.9 2.35 75.85 2.85 76.6 3.1 76.25 M-0.9 74.25 L-0.7 75.2 -0.55 76.7 -0.4 78.2 Q0.0 78.95 0.05 79.85 L0.1 80.05 0.4 81.1 0.95 83.15 1.25 83.85 1.15 84.15 0.9 84.35 0.7 84.3 0.45 84.1 -0.5 82.1 -1.85 78.65 -2.1 78.0 -2.25 77.4 -2.3 77.35 Q-3.0 76.7 -2.55 75.9 L-2.55 75.65 -2.55 75.6 -2.85 73.75 -2.9 73.6 -3.15 72.25 -3.15 72.1 -3.5 70.25 -3.5 70.1 -3.6 69.95 Q-3.55 69.45 -3.85 69.0 L-3.9 68.95 -3.9 68.75 -4.0 68.6 Q-4.15 67.5 -4.65 66.4 L-4.75 66.2 -4.75 66.0 -5.6 64.65 -5.7 64.5 -5.75 64.4 -5.75 64.35 -6.15 64.05 -6.25 63.85 Q-7.75 64.7 -9.45 64.85 L-9.8 64.65 -9.9 64.15 Q-8.65 64.1 -7.6 63.45 -6.45 62.75 -5.3 62.9 L-5.15 63.1 -2.3 66.4 -2.3 68.4 Q-2.1 71.1 -1.2 73.65 L-1.2 73.8 -0.9 74.25 M-6.4 68.3 Q-5.9 68.45 -5.9 69.1 L-5.9 70.9 -5.75 71.45 -5.55 72.3 -5.7 72.55 -5.75 72.6 -6.4 72.45 -7.1 71.75 -7.7 71.05 -7.75 70.85 -7.85 70.15 -7.9 69.55 -7.8 69.05 -7.25 68.35 -6.85 68.25 -6.4 68.3" fill="#d7ae7e" fill-rule="evenodd" stroke="none"/>
    <path d="M1.65 -6.65 L1.75 -6.65 1.8 -6.6 1.9 -6.6 2.05 -6.55 Q3.7 -5.95 4.55 -4.2 6.15 -0.45 5.55 3.75 5.0 7.75 3.05 10.85 L2.8 11.25 1.5 14.05 1.25 15.1 1.15 15.5 0.9 14.95 Q1.2 15.35 1.1 16.0 L1.0 16.45 0.25 16.4 -1.35 15.85 Q-1.55 14.1 -2.15 12.45 L-2.15 12.2 Q-1.7 11.5 -0.75 11.65 L-0.6 11.65 0.3 11.5 0.55 11.5 0.55 11.45 0.7 10.85 Q0.9 10.1 1.5 9.55 2.75 8.4 3.4 6.9 L4.15 4.0 4.5 0.3 4.45 0.1 Q4.4 -2.1 3.7 -4.05 3.1 -5.7 1.6 -6.5 L1.65 -6.65 M0.75 18.0 L0.7 18.05 0.75 18.1 0.5 19.4 0.45 19.65 0.65 19.65 0.6 19.75 -1.25 19.45 -1.25 17.65 0.75 18.0 M-0.2 21.8 L-0.45 22.9 -0.45 22.95 -0.45 22.9 -0.5 22.95 -0.6 23.5 -2.05 23.25 -1.9 22.75 -1.8 22.8 -1.55 21.55 -1.5 21.55 -1.5 21.5 -0.2 21.8 M-1.0 25.55 L-1.05 25.9 -1.15 26.45 -1.15 26.55 -1.1 26.5 -1.1 26.55 -1.3 27.3 -1.3 27.4 -1.55 28.6 -1.75 29.05 -3.8 31.7 -3.85 31.8 -3.95 32.0 -4.05 32.15 -4.15 32.15 -4.2 32.35 -4.25 32.65 Q-4.65 33.75 -4.45 35.0 L-4.65 35.15 -5.75 35.6 -5.8 35.6 -6.25 35.8 -6.35 35.6 -6.5 34.8 -6.8 34.25 -7.15 33.55 Q-8.3 33.25 -7.7 32.25 L-7.25 31.8 Q-5.95 31.1 -4.35 30.95 L-4.2 30.85 -3.95 30.6 -2.9 27.4 -3.0 26.95 -2.5 25.2 -1.0 25.55 M-7.05 45.1 L-4.6 45.0 Q-4.95 45.7 -4.9 46.65 L-7.0 46.7 -7.55 46.75 -7.55 46.7 -7.05 45.1 M-9.9 64.15 L-9.9 64.1 -9.95 63.8 Q-7.6 62.3 -5.15 61.2 L-4.9 61.1 -4.55 61.9 Q-3.7 63.7 -2.0 65.2 L1.6 69.0 Q2.25 72.55 3.2 76.0 L3.2 76.05 3.1 76.25 2.85 76.6 2.35 75.85 2.3 75.9 Q1.55 74.4 0.5 73.4 -0.25 72.7 -0.2 71.75 -0.15 70.85 -0.6 70.15 -1.2 71.4 -1.05 73.0 L-0.9 74.25 -1.2 73.8 -1.2 73.65 Q-2.1 71.1 -2.3 68.4 L-2.3 66.4 -5.15 63.1 -5.3 62.9 Q-6.45 62.75 -7.6 63.45 -8.65 64.1 -9.9 64.15" fill="#946129" fill-rule="evenodd" stroke="none"/>
    <path d="M1.25 -6.75 L1.6 -6.7 1.65 -6.65 1.6 -6.5 1.25 -6.75 M-2.75 7.2 L-2.7 8.55 Q-2.55 8.8 -2.55 9.1 L-2.6 9.6 -2.65 9.65 -2.85 9.75 -2.95 9.65 -3.25 9.35 -3.5 8.7 Q-4.15 7.1 -4.25 5.35 L-4.35 4.65 Q-4.45 2.75 -4.05 0.9 L-3.8 -0.15 -3.45 -0.55 Q-2.3 -0.4 -2.6 0.8 L-2.8 1.85 -2.85 4.05 -2.75 7.2 M-2.95 12.9 L-2.8 12.85 -2.9 12.9 -2.9 12.95 -2.9 13.1 -2.95 12.95 -2.95 12.9 M-2.7 13.35 L-2.55 13.4 -2.55 13.45 -2.5 13.55 -2.65 13.4 -2.7 13.35 M1.15 84.15 L1.2 84.65 0.9 84.35 1.15 84.15 M-8.75 71.05 L-8.8 71.05 Q-9.2 70.45 -9.05 69.7 L-8.95 69.25 -8.5 68.5 -8.25 68.45 -8.0 68.5 -7.85 68.6 -7.8 69.05 -7.9 69.55 -7.85 70.15 -7.9 70.65 -7.9 70.9 -8.0 71.05 -8.15 71.25 -8.6 71.25 -8.75 71.05 M-5.75 72.6 L-5.7 72.55 -5.55 72.3 -5.75 71.45 -5.9 70.9 -5.9 69.1 Q-5.9 68.45 -6.4 68.3 -5.15 68.2 -4.9 69.4 L-4.9 69.5 Q-4.25 70.9 -4.2 72.45 -4.2 72.95 -4.6 73.2 -5.35 73.1 -5.75 72.6" fill="#b57b35" fill-rule="evenodd" stroke="none"/>
    <path d="M1.0 16.45 Q1.65 16.15 1.7 16.75 L1.6 17.65 0.75 18.0 -1.25 17.65 -3.5 17.45 -4.85 17.6 -5.95 18.05 -6.3 18.35 -8.6 18.4 -9.85 17.0 -10.25 16.45 -9.9 15.35 -9.05 15.0 -7.2 16.85 -4.9 16.1 -1.35 15.85 0.25 16.4 1.0 16.45 M0.6 19.75 L0.3 21.65 Q0.2 22.15 -0.2 21.8 L-1.5 21.5 -5.15 21.15 -6.65 21.55 -8.55 22.5 -9.3 22.95 -10.6 20.8 -11.1 20.0 -10.95 19.15 -10.75 18.4 -10.3 18.55 -8.6 20.85 -7.35 20.05 -6.3 19.6 -4.9 19.15 -1.25 19.45 0.6 19.75 M-0.6 23.5 L0.05 23.8 -0.3 25.7 -1.0 25.55 -2.5 25.2 -5.95 24.95 -7.0 25.2 -9.35 26.0 -10.95 26.3 -11.7 26.55 -11.4 22.55 -10.75 23.1 -10.0 24.8 -9.15 24.4 -6.9 23.55 -5.5 23.2 -2.05 23.25 -0.6 23.5" fill="#660045" fill-rule="evenodd" stroke="none"/>
    <path d="M0.5 19.4 L0.55 19.05 0.65 19.4 0.65 19.65 0.45 19.65 0.5 19.4" fill="#820000" fill-rule="evenodd" stroke="none"/>
    <path d="M-1.45 28.1 L-1.6 28.9 -1.75 29.05 -1.55 28.6 -1.45 28.1 M-3.95 32.0 L-4.25 32.65 -4.2 32.35 -4.15 32.15 -4.05 32.15 -3.95 32.0 M-7.35 36.25 L-8.1 36.5 Q-10.7 37.55 -12.95 39.6 -12.95 38.1 -12.5 36.55 L-12.35 35.6 Q-12.2 34.5 -12.45 33.45 -12.2 32.15 -11.6 30.95 L-11.55 30.9 -11.6 30.65 -11.5 30.05 -11.55 30.1 -11.0 27.0 -10.9 27.0 -10.95 26.95 -11.0 26.7 -10.95 26.65 -10.95 26.3 -9.35 26.0 -9.15 27.75 Q-9.25 29.15 -8.45 30.35 L-7.9 30.35 -8.6 30.95 Q-9.4 31.55 -9.55 32.6 -9.7 34.05 -8.25 34.25 L-8.15 35.6 -8.05 36.45 -7.35 36.25 M-10.75 23.1 L-10.6 20.8 -9.3 22.95 -8.55 22.5 -9.05 23.9 -9.15 24.4 -10.0 24.8 -10.75 23.1 M-10.3 18.55 L-9.85 17.0 -8.6 18.4 -6.3 18.35 -7.0 19.5 -7.35 20.05 -8.6 20.85 -10.3 18.55 M-9.05 15.0 L-7.9 13.05 Q-7.2 12.0 -6.85 10.85 -6.2 8.8 -6.65 6.45 -6.75 2.8 -6.0 -0.95 -5.4 -4.2 -2.4 -5.8 -1.2 -4.7 -1.1 -3.0 -0.65 2.45 -2.75 7.2 L-2.85 4.05 -2.8 1.85 -2.6 0.8 Q-2.3 -0.4 -3.45 -0.55 L-3.8 -0.15 -4.05 0.9 Q-4.45 2.75 -4.35 4.65 L-4.25 5.35 Q-4.15 7.1 -3.5 8.7 L-3.8 9.05 Q-4.6 9.9 -4.8 10.85 L-4.85 12.15 -4.95 12.45 Q-5.15 13.45 -5.0 14.55 L-4.95 14.35 Q-5.2 14.95 -4.95 15.75 L-4.9 15.8 -4.9 16.1 -7.2 16.85 -9.05 15.0 M-4.85 17.6 L-4.9 19.15 -6.3 19.6 -5.95 18.05 -4.85 17.6 M-5.15 21.15 L-5.15 21.35 -5.45 22.4 -5.4 22.75 -5.5 23.2 -6.9 23.55 -6.65 21.55 -5.15 21.15 M-5.95 24.95 L-6.1 25.9 -6.15 26.4 -6.15 26.3 -6.35 27.3 -6.55 28.15 -6.5 28.15 -6.9 28.8 -7.0 29.1 -7.15 29.45 -7.85 30.35 -7.85 30.25 Q-7.55 29.5 -7.7 28.55 -7.1 27.15 -7.05 25.65 L-7.0 25.2 -5.95 24.95 M-11.4 46.45 Q-10.5 45.9 -9.45 45.6 L-9.5 45.75 -9.5 45.7 Q-10.45 46.0 -11.4 46.45 M1.2 84.65 L1.25 84.8 0.95 84.75 0.7 84.3 0.9 84.35 1.2 84.65 M-0.5 82.1 L-3.55 76.85 -3.95 76.95 -4.05 77.1 Q-5.2 75.95 -6.5 75.2 -7.95 74.4 -8.25 72.8 L-8.75 71.05 -8.6 71.25 -8.15 71.25 -8.0 71.05 -7.9 70.9 -7.9 70.65 -7.85 70.15 -7.75 70.85 -7.7 71.05 -7.1 71.75 -6.4 72.45 -5.75 72.6 Q-5.35 73.1 -4.6 73.2 -4.2 72.95 -4.2 72.45 -4.25 70.9 -4.9 69.5 L-4.9 69.4 Q-5.15 68.2 -6.4 68.3 L-6.85 68.25 -7.25 68.35 -7.8 69.05 -7.85 68.6 -8.0 68.5 -8.25 68.45 -8.5 68.5 -8.95 69.25 -9.05 69.7 -9.25 68.4 Q-9.45 66.5 -9.8 64.65 L-9.45 64.85 Q-7.75 64.7 -6.25 63.85 L-6.15 64.05 -5.75 64.35 -5.75 64.4 -5.7 64.5 -5.6 64.65 -4.75 66.0 -4.75 66.2 -4.65 66.4 Q-4.15 67.5 -4.0 68.6 L-3.9 68.75 -3.9 68.95 -3.85 69.0 Q-3.55 69.45 -3.6 69.95 L-3.5 70.1 -3.5 70.25 -3.15 72.1 -3.15 72.25 -2.9 73.6 -2.85 73.75 -2.55 75.6 -2.55 75.65 -2.55 75.9 Q-3.0 76.7 -2.3 77.35 L-2.25 77.4 -2.1 78.0 -1.85 78.65 -0.5 82.1" fill="#e3c29d" fill-rule="evenodd" stroke="none"/>
    <path d="M-14.15 42.75 L-13.65 41.35 -13.6 41.2 -13.55 41.15 -13.5 41.05 Q-12.1 39.75 -10.5 38.7 L-10.35 38.6 -9.45 38.05 -9.35 38.05 -9.35 38.0 -8.45 37.5 -7.3 38.5 Q-5.85 40.25 -7.25 42.15 L-8.85 43.95 -9.75 44.55 Q-12.2 45.85 -13.75 43.7 -14.05 43.3 -14.0 42.8 L-14.15 42.75 M-9.4 48.05 Q-7.1 48.45 -7.05 51.05 L-7.15 53.15 Q-7.3 54.75 -7.75 56.3 -8.1 57.4 -8.9 58.15 -9.6 58.75 -10.45 59.2 L-12.2 58.9 Q-13.3 55.85 -13.6 52.6 L-13.65 51.75 -13.7 50.85 -13.7 50.7 -13.7 50.15 -13.7 50.1 -13.2 49.85 -13.0 49.75 -10.05 48.25 -9.45 48.05 -9.4 48.05" fill="#cc66ff" fill-rule="evenodd" stroke="none"/>
    <path d="M-14.15 42.8 L-14.15 42.75 -14.0 42.8 -14.15 42.8 M-9.4 48.0 L-9.4 48.05 -9.45 48.05 -10.05 48.25 -9.4 48.0" fill="#99409f" fill-rule="evenodd" stroke="none"/>
    <path d="M-8.45 37.5 Q-6.65 36.5 -4.6 35.8 -2.05 39.7 -3.4 44.25 L-5.5 44.1 Q-10.0 44.3 -13.55 47.15 -14.6 44.95 -14.15 42.8 L-14.0 42.8 Q-14.05 43.3 -13.75 43.7 -12.2 45.85 -9.75 44.55 L-8.85 43.95 -7.25 42.15 Q-5.85 40.25 -7.3 38.5 L-8.45 37.5 M-9.4 48.05 L-9.4 48.0 Q-7.1 47.2 -4.75 47.95 L-4.45 48.9 Q-5.7 54.8 -4.75 60.7 -7.6 60.7 -10.05 62.8 L-10.35 62.8 -12.2 58.9 -10.45 59.2 Q-9.6 58.75 -8.9 58.15 -8.1 57.4 -7.75 56.3 -7.3 54.75 -7.15 53.15 L-7.05 51.05 Q-7.1 48.45 -9.4 48.05" fill="#990066" fill-rule="evenodd" stroke="none"/>
    <path d="M-9.45 38.05 L-9.35 38.0 -9.35 38.05 -9.45 38.05" fill="#cc99ff" fill-rule="evenodd" stroke="none"/>
    <path d="M-3.95 76.95 L-3.95 77.2 -4.05 77.1 -3.95 76.95" fill="#ffffff" fill-rule="evenodd" stroke="none"/>
  </g>
</svg>
