<?xml version="1.0" encoding="UTF-8" standalone="no"?>
<svg xmlns:xlink="http://www.w3.org/1999/xlink" height="119.1px" width="38.2px" xmlns="http://www.w3.org/2000/svg">
  <g transform="matrix(1.0, 0.0, 0.0, 1.0, 27.35, 15.0)">
    <path d="M-9.8 -4.0 L-9.8 -3.95 Q-10.55 -2.85 -10.95 -1.45 L-11.0 -1.3 Q-11.3 -0.35 -11.05 0.25 L-11.1 0.0 -11.0 0.35 -11.0 0.3 -11.1 0.7 -10.95 0.65 -11.1 1.35 -11.55 2.7 -11.95 5.0 -12.65 9.6 Q-12.95 12.1 -12.85 14.6 L-12.3 19.45 -11.95 21.4 -11.9 21.8 Q-11.55 23.0 -11.35 24.2 L-11.15 24.25 -10.2 27.2 Q-9.75 28.95 -9.55 30.75 -9.45 32.3 -9.5 34.0 -4.3 35.35 1.5 35.55 2.75 30.5 3.5 25.15 4.2 19.8 5.4 14.75 7.05 8.65 9.0 2.25 10.95 -4.2 7.6 -10.2 5.3 -12.5 2.1 -13.1 -1.1 -13.75 -4.1 -12.4 L-4.8 -12.05 -6.05 -10.65 Q-7.7 -8.75 -8.8 -6.45 L-9.8 -4.0 M3.55 4.5 L3.45 4.1 3.55 4.2 3.55 4.5 M-12.3 0.85 L-11.2 -3.55 Q-10.8 -4.4 -10.55 -5.35 L-9.5 -8.05 -8.4 -10.0 -6.4 -12.7 -4.6 -13.85 Q-1.5 -15.55 1.95 -14.75 5.4 -14.0 8.1 -12.1 L9.95 -9.6 10.85 -5.85 10.85 0.0 10.7 1.05 10.7 0.85 10.15 2.85 10.1 2.95 10.0 3.4 Q8.1 9.1 6.9 14.85 5.5 20.2 4.8 25.9 4.15 31.6 2.15 36.75 3.0 38.7 2.85 40.9 2.75 43.1 2.8 45.2 3.75 45.8 4.9 45.85 5.1 47.9 4.25 49.55 3.4 51.3 3.05 53.15 L3.65 53.85 Q1.95 57.3 0.8 60.95 L-1.05 62.8 Q-2.0 70.2 -0.35 77.05 0.0 80.35 1.45 83.4 2.85 86.35 3.05 89.95 4.95 92.65 4.55 95.85 L3.25 98.55 Q2.65 100.0 0.95 100.3 -1.1 100.4 -2.65 101.6 -4.25 102.8 -6.15 103.35 -16.7 105.45 -26.35 101.8 -27.95 100.65 -27.0 98.9 -25.15 95.25 -21.3 93.8 -18.6 90.0 -16.35 85.9 -14.15 81.85 -10.25 78.8 -12.1 76.3 -11.2 73.2 -10.4 70.05 -12.2 67.5 -13.05 64.0 -12.75 60.25 -14.2 59.25 -14.15 57.5 L-14.15 54.15 Q-12.9 52.55 -13.8 50.85 -14.75 49.1 -14.8 47.2 -14.55 45.85 -13.3 45.4 -12.75 45.4 -12.45 44.85 -12.85 40.7 -11.4 37.35 -9.95 33.95 -10.9 29.95 L-12.35 24.55 -12.55 23.7 -12.6 23.45 -12.7 23.1 -13.05 20.0 -13.3 17.95 -13.6 12.15 -13.2 5.8 -12.7 3.05 -12.45 1.35 -12.35 1.15 -12.3 0.95 -11.9 0.95 -12.3 0.85 M-10.4 38.8 Q-11.1 42.2 -11.05 45.7 L1.9 45.2 Q1.55 43.2 1.7 41.0 1.9 38.8 1.0 37.05 L-4.95 36.6 -8.8 36.05 -9.6 35.9 -10.2 37.85 -10.4 38.8 M0.95 46.75 L-5.2 46.45 -7.95 46.75 -11.3 47.2 -13.4 47.55 -12.25 51.8 Q-13.05 52.45 -12.6 53.3 L-12.15 53.95 Q-13.0 54.25 -13.65 54.85 -13.6 57.2 -12.75 58.95 L-3.75 60.6 -3.1 60.75 -2.75 60.8 -1.05 61.15 -0.2 60.6 2.1 54.45 2.15 54.45 Q2.75 54.0 2.85 53.2 L2.7 52.45 2.15 51.95 3.05 47.2 0.95 46.75 M-1.7 99.45 L-1.7 99.35 Q-1.2 94.55 2.25 91.05 2.4 87.7 0.95 84.8 -0.45 81.9 -1.15 78.8 L-1.2 78.85 -1.55 78.95 Q-4.4 79.8 -7.45 79.65 L-9.6 79.4 Q-12.65 82.7 -14.65 86.35 -16.75 90.05 -19.15 93.55 -16.45 93.7 -13.75 93.45 L-8.65 93.85 Q-7.2 94.5 -6.0 95.4 -5.8 95.5 -5.65 95.7 -3.7 97.25 -2.25 99.5 L-2.0 99.9 -1.95 100.0 -1.7 99.65 -1.7 99.45 M2.25 98.8 Q3.4 97.15 3.55 95.05 2.9 91.85 1.9 92.7 0.85 93.5 0.05 95.85 -0.75 98.2 -0.55 99.5 L2.25 98.8 M-12.75 6.7 L-12.85 6.85 -12.75 6.75 -12.75 6.7 M-8.6 70.05 L-2.75 69.8 -2.6 68.3 -2.35 62.65 -2.35 62.35 -6.3 61.8 -8.5 61.4 -11.2 60.8 Q-12.2 62.5 -11.55 64.75 -11.15 67.8 -10.0 70.5 L-8.6 70.05 M-5.3 78.45 Q-3.35 78.1 -1.5 76.9 -1.55 75.55 -2.2 74.6 L-2.1 74.55 Q-1.7 74.15 -1.95 73.65 L-2.15 73.55 -2.5 73.5 Q-2.25 73.2 -2.35 72.85 -2.65 72.35 -2.55 71.85 -3.65 70.95 -5.05 70.8 L-6.2 70.8 -6.35 70.8 Q-7.65 70.9 -8.7 71.4 -9.4 71.7 -9.95 72.15 L-10.0 72.4 -10.0 72.5 -10.05 72.65 -10.0 73.7 -9.9 74.15 -10.55 74.2 -10.6 74.3 Q-10.8 75.15 -9.85 75.45 L-9.65 75.7 -9.65 75.55 -9.55 76.65 -9.55 76.7 -9.5 77.1 -9.4 78.1 -9.1 78.15 -5.35 78.45 -5.3 78.45 M-24.95 97.8 L-25.1 97.95 -25.9 99.5 Q-26.4 100.15 -25.7 100.85 -16.5 103.7 -6.45 102.05 L-4.25 101.25 Q-3.1 100.8 -3.55 99.5 -5.85 95.3 -10.35 94.55 L-16.2 94.5 -16.75 94.5 -16.8 94.5 -18.3 94.5 Q-22.25 94.4 -24.95 97.8" fill="#000000" fill-rule="evenodd" stroke="none"/>
    <path d="M3.45 4.1 L2.05 3.0 Q-0.1 1.45 -2.7 0.75 L-3.65 0.45 -4.55 0.3 -6.4 0.1 -7.75 0.1 -7.3 -2.05 Q-6.35 -4.95 -4.3 -7.2 L-5.45 -7.4 -5.65 -7.25 -5.85 -7.25 Q-8.4 -6.2 -9.8 -4.0 L-8.8 -6.45 Q-7.7 -8.75 -6.05 -10.65 L-4.8 -12.05 -4.1 -12.4 Q-1.1 -13.75 2.1 -13.1 5.3 -12.5 7.6 -10.2 10.95 -4.2 9.0 2.25 7.05 8.65 5.4 14.75 4.2 19.8 3.5 25.15 2.75 30.5 1.5 35.55 -4.3 35.35 -9.5 34.0 -9.45 32.3 -9.55 30.75 L-9.1 31.3 Q-7.75 32.15 -6.9 32.0 L-6.95 32.0 -7.35 30.35 Q-7.95 27.8 -6.9 25.4 L-6.7 25.1 -6.35 25.15 -6.3 25.2 -5.05 25.25 -4.6 25.25 -4.5 25.25 -4.15 25.2 -3.35 24.95 Q-2.4 24.7 -1.55 24.05 3.05 15.05 3.55 4.5 L3.55 4.2 3.45 4.1 M-11.0 0.35 L-10.75 0.6 -10.95 0.65 -11.1 0.7 -11.0 0.3 -11.0 0.35 M-10.95 23.0 L-10.9 22.55 Q-10.9 21.95 -11.15 21.5 L-11.15 21.45 -11.2 21.25 -11.2 21.15 -11.85 18.5 -12.15 16.9 -12.45 14.95 -12.35 12.75 -12.2 11.0 -12.15 10.2 -11.9 8.75 -11.2 6.6 Q-10.8 5.45 -9.9 4.7 L-9.65 4.55 Q-6.35 3.1 -2.35 4.45 0.05 5.2 2.25 6.5 L2.0 9.8 Q0.9 17.05 -2.6 23.3 -6.8 24.95 -11.0 23.0 L-10.95 23.0 M-4.95 36.6 L1.0 37.05 Q1.9 38.8 1.7 41.0 1.55 43.2 1.9 45.2 L-11.05 45.7 Q-11.1 42.2 -10.4 38.8 -10.45 39.95 -9.5 40.9 -8.7 41.6 -7.6 41.75 -8.75 39.3 -6.7 37.4 L-6.5 37.25 -6.45 37.25 Q-6.15 37.35 -6.15 37.1 L-4.55 37.2 -4.95 36.6 M-12.25 51.8 L-12.05 52.7 -5.0 52.2 -0.35 52.4 Q-0.35 51.6 0.35 50.95 1.0 50.3 1.3 49.45 1.6 48.6 1.45 47.7 L0.95 46.75 3.05 47.2 2.15 51.95 2.7 52.45 2.85 53.2 Q2.75 54.0 2.15 54.45 L2.1 54.45 -0.2 60.6 -1.05 61.15 -2.75 60.8 -3.1 60.75 -3.75 60.6 Q-1.6 58.9 -0.35 56.35 0.05 54.85 -0.45 53.65 L-8.6 53.55 -10.25 53.5 -10.35 53.5 -10.9 53.55 -11.6 53.7 -11.7 53.75 -11.95 53.9 -12.15 53.95 -12.6 53.3 Q-13.05 52.45 -12.25 51.8 M-5.05 70.8 Q-3.65 70.95 -2.55 71.85 -2.65 72.35 -2.35 72.85 -2.25 73.2 -2.5 73.5 L-2.15 73.55 -1.95 73.65 Q-1.7 74.15 -2.1 74.55 L-2.2 74.6 Q-1.55 75.55 -1.5 76.9 -3.35 78.1 -5.3 78.45 -3.85 77.5 -3.8 75.8 L-3.9 75.05 -4.15 74.75 -7.15 75.3 -9.65 75.55 -9.65 75.7 -9.85 75.45 Q-10.8 75.15 -10.6 74.3 L-10.55 74.2 -9.9 74.15 -9.8 74.35 -9.6 74.35 -7.7 74.4 -6.15 74.3 -5.95 74.25 Q-4.45 73.85 -4.45 72.3 L-4.5 71.75 -5.05 70.8" fill="#333300" fill-rule="evenodd" stroke="none"/>
    <path d="M-9.8 -4.0 Q-8.4 -6.2 -5.85 -7.25 L-5.65 -7.25 -5.45 -7.4 -4.3 -7.2 Q-6.35 -4.95 -7.3 -2.05 L-7.75 0.1 -6.4 0.1 -4.55 0.3 -3.65 0.45 -2.7 0.75 Q-0.1 1.45 2.05 3.0 L3.45 4.1 3.55 4.5 Q3.05 15.05 -1.55 24.05 -2.4 24.7 -3.35 24.95 L-4.15 25.2 -4.5 25.25 -4.6 25.25 -5.05 25.25 -6.3 25.2 -6.35 25.15 -6.7 25.1 -6.9 25.4 Q-7.95 27.8 -7.35 30.35 L-6.95 32.0 -6.9 32.0 Q-7.75 32.15 -9.1 31.3 L-9.55 30.75 Q-9.75 28.95 -10.2 27.2 L-11.15 24.25 -11.35 24.2 Q-11.55 23.0 -11.9 21.8 L-11.95 21.4 -12.3 19.45 -12.85 14.6 Q-12.95 12.1 -12.65 9.6 L-11.95 5.0 -11.55 2.7 -11.1 1.35 -10.95 0.65 -10.75 0.6 -11.0 0.35 -11.1 0.0 -11.05 0.25 Q-11.3 -0.35 -11.0 -1.3 L-10.95 -1.45 Q-10.55 -2.85 -9.8 -3.95 L-9.8 -4.0 M-11.0 23.0 Q-6.8 24.95 -2.6 23.3 0.9 17.05 2.0 9.8 L2.25 6.5 Q0.05 5.2 -2.35 4.45 -6.35 3.1 -9.65 4.55 L-9.9 4.7 Q-10.8 5.45 -11.2 6.6 L-11.9 8.75 -12.15 10.2 -12.2 11.0 -12.35 12.75 -12.45 14.95 -12.15 16.9 -11.85 18.5 -11.2 21.15 -11.2 21.25 -11.15 21.45 -11.15 21.5 Q-10.9 21.95 -10.9 22.55 L-10.95 23.0 -11.05 22.95 -11.0 23.0 M-10.4 38.8 L-10.2 37.85 -10.05 37.55 Q-9.6 36.6 -8.8 36.05 L-4.95 36.6 -4.55 37.2 -6.15 37.1 Q-6.15 37.35 -6.45 37.25 L-6.5 37.25 -6.7 37.4 Q-8.75 39.3 -7.6 41.75 -8.7 41.6 -9.5 40.9 -10.45 39.95 -10.4 38.8 M0.95 46.75 L1.45 47.7 Q1.6 48.6 1.3 49.45 1.0 50.3 0.35 50.95 -0.35 51.6 -0.35 52.4 L-5.0 52.2 -12.05 52.7 -12.25 51.8 -13.4 47.55 -11.3 47.2 Q-12.15 48.4 -11.9 50.3 -11.8 51.35 -10.8 51.65 -8.0 52.4 -8.25 49.25 L-7.9 48.2 Q-7.7 47.25 -7.95 46.75 L-5.2 46.45 0.95 46.75 M-12.15 53.95 L-11.95 53.9 -11.7 53.75 -11.6 53.7 Q-12.95 55.6 -10.65 57.4 L-9.65 57.35 -9.2 56.95 Q-8.8 56.3 -9.0 55.55 L-8.9 55.4 Q-8.25 54.25 -8.6 53.55 L-0.45 53.65 Q0.05 54.85 -0.35 56.35 -1.6 58.9 -3.75 60.6 L-12.75 58.95 Q-13.6 57.2 -13.65 54.85 -13.0 54.25 -12.15 53.95 M-5.05 70.8 L-4.5 71.75 -4.45 72.3 Q-4.45 73.85 -5.95 74.25 L-6.15 74.3 -7.7 74.4 -9.6 74.35 -9.8 74.35 -9.9 74.15 -10.0 73.7 -10.05 72.65 -10.0 72.5 -10.0 72.4 -9.95 72.15 Q-9.4 71.7 -8.7 71.4 -8.85 73.55 -6.55 73.9 L-6.05 73.3 Q-5.65 72.3 -6.35 71.35 L-6.35 70.8 -6.2 70.8 -5.05 70.8 M-7.15 75.3 L-4.15 74.75 -3.9 75.05 -3.8 75.8 Q-3.85 77.5 -5.3 78.45 L-5.35 78.45 -9.1 78.15 -9.4 78.1 -9.5 77.1 -9.3 77.05 Q-8.35 78.55 -6.8 77.4 -5.05 76.15 -7.15 75.3" fill="#666633" fill-rule="evenodd" stroke="none"/>
    <path d="M-12.3 0.95 L-12.3 0.85 -11.9 0.95 -12.3 0.95" fill="#ffffff" fill-rule="evenodd" stroke="none"/>
    <path d="M-1.7 99.45 L-1.7 99.65 -1.9 99.75 -1.7 99.45 M-6.0 95.4 Q-7.2 94.5 -8.65 93.85 L-13.75 93.45 Q-16.45 93.7 -19.15 93.55 -16.75 90.05 -14.65 86.35 -12.65 82.7 -9.6 79.4 L-7.45 79.65 Q-6.4 80.7 -4.55 80.75 -1.25 80.8 0.1 83.5 0.7 84.65 0.9 85.85 1.35 88.6 0.05 90.85 -2.0 94.4 -6.0 95.4 M-12.75 6.7 L-12.75 6.75 -12.85 6.85 -12.75 6.7 M-2.0 81.95 Q-3.35 83.35 -3.25 85.2 L-2.5 87.5 Q-2.1 88.8 -0.55 88.75 0.35 88.55 0.5 87.65 0.75 83.8 -2.0 81.95 M-8.9 86.7 Q-7.25 83.45 -10.25 82.05 -12.45 82.7 -13.5 84.95 L-14.45 86.55 Q-16.2 89.5 -13.9 91.55 L-12.55 91.55 Q-10.3 89.5 -8.9 86.7" fill="#333366" fill-rule="evenodd" stroke="none"/>
    <path d="M-11.0 23.0 L-11.05 22.95 -10.95 23.0 -11.0 23.0 M2.25 98.8 L-0.55 99.5 Q-0.75 98.2 0.05 95.85 0.85 93.5 1.9 92.7 2.9 91.85 3.55 95.05 3.4 97.15 2.25 98.8 M-16.2 94.5 L-10.35 94.55 Q-5.85 95.3 -3.55 99.5 -3.1 100.8 -4.25 101.25 L-6.45 102.05 Q-16.5 103.7 -25.7 100.85 -26.4 100.15 -25.9 99.5 L-25.1 97.95 -24.95 97.8 Q-25.1 98.8 -23.75 99.5 L-19.4 99.65 -12.75 100.0 Q-11.95 99.6 -11.7 98.75 -11.45 97.85 -11.95 97.2 -13.3 95.3 -15.3 94.55 L-16.2 94.5 M-2.2 83.15 L-1.85 82.8 Q0.15 84.7 -0.2 87.75 -0.65 88.05 -1.15 87.95 -2.3 86.9 -2.25 85.7 L-2.2 83.15 M-8.9 86.7 Q-10.3 89.5 -12.55 91.55 L-13.9 91.55 Q-16.2 89.5 -14.45 86.55 L-13.5 84.95 Q-12.45 82.7 -10.25 82.05 -7.25 83.45 -8.9 86.7" fill="#336699" fill-rule="evenodd" stroke="none"/>
    <path d="M-10.2 37.85 L-9.6 35.9 -8.8 36.05 Q-9.6 36.6 -10.05 37.55 L-10.2 37.85" fill="#333333" fill-rule="evenodd" stroke="none"/>
    <path d="M-7.95 46.75 Q-7.7 47.25 -7.9 48.2 L-8.25 49.25 Q-8.0 52.4 -10.8 51.65 -11.8 51.35 -11.9 50.3 -12.15 48.4 -11.3 47.2 L-7.95 46.75 M-11.6 53.7 L-10.9 53.55 -10.35 53.5 -10.25 53.5 -8.6 53.55 Q-8.25 54.25 -8.9 55.4 L-9.0 55.55 Q-8.8 56.3 -9.2 56.95 L-9.65 57.35 -10.65 57.4 Q-12.95 55.6 -11.6 53.7 M-9.65 75.55 L-7.15 75.3 Q-5.05 76.15 -6.8 77.4 -8.35 78.55 -9.3 77.05 L-9.55 76.7 -9.55 76.65 -9.65 75.55 M-8.7 71.4 Q-7.65 70.9 -6.35 70.8 L-6.35 71.35 Q-5.65 72.3 -6.05 73.3 L-6.55 73.9 Q-8.85 73.55 -8.7 71.4" fill="#999999" fill-rule="evenodd" stroke="none"/>
    <path d="M-8.6 70.05 L-8.35 69.4 Q-8.05 68.6 -8.1 67.7 L-8.05 65.0 -7.75 63.05 -7.6 61.65 -8.5 61.4 -6.3 61.8 -6.4 63.8 Q-6.55 67.1 -4.6 69.3 L-3.05 69.3 -2.7 69.1 -2.6 68.3 -2.75 69.8 -8.6 70.05" fill="#e3b18b" fill-rule="evenodd" stroke="none"/>
    <path d="M-2.6 68.3 L-2.7 69.1 -3.05 69.3 -4.6 69.3 Q-6.55 67.1 -6.4 63.8 L-6.3 61.8 -2.35 62.35 -2.35 62.65 -2.6 68.3" fill="#ad7a3f" fill-rule="evenodd" stroke="none"/>
    <path d="M-8.5 61.4 L-7.6 61.65 -7.75 63.05 -8.05 65.0 -8.1 67.7 Q-8.05 68.6 -8.35 69.4 L-8.6 70.05 -10.0 70.5 Q-11.15 67.8 -11.55 64.75 -12.2 62.5 -11.2 60.8 L-8.5 61.4" fill="#edcdb6" fill-rule="evenodd" stroke="none"/>
    <path d="M-1.7 99.65 L-1.95 100.0 -2.0 99.9 -1.9 99.75 -1.7 99.65 M-9.5 77.1 L-9.55 76.7 -9.3 77.05 -9.5 77.1" fill="#666666" fill-rule="evenodd" stroke="none"/>
    <path d="M-7.45 79.65 Q-4.4 79.8 -1.55 78.95 L-1.2 78.85 -1.15 78.8 Q-0.45 81.9 0.95 84.8 2.4 87.7 2.25 91.05 -1.2 94.55 -1.7 99.35 L-1.7 99.45 -1.9 99.75 -2.0 99.9 -2.25 99.5 Q-3.7 97.25 -5.65 95.7 -5.8 95.5 -6.0 95.4 -2.0 94.4 0.05 90.85 1.35 88.6 0.9 85.85 0.7 84.65 0.1 83.5 -1.25 80.8 -4.55 80.75 -6.4 80.7 -7.45 79.65" fill="#000033" fill-rule="evenodd" stroke="none"/>
    <path d="M-16.2 94.5 L-15.3 94.55 Q-13.3 95.3 -11.95 97.2 -11.45 97.85 -11.7 98.75 -11.95 99.6 -12.75 100.0 L-19.4 99.65 -23.75 99.5 Q-25.1 98.8 -24.95 97.8 -22.25 94.4 -18.3 94.5 L-16.8 94.5 -16.75 94.5 -16.2 94.5 M-2.2 83.15 L-2.25 85.7 Q-2.3 86.9 -1.15 87.95 -0.65 88.05 -0.2 87.75 0.15 84.7 -1.85 82.8 L-2.2 83.15 M-2.0 81.95 Q0.75 83.8 0.5 87.65 0.35 88.55 -0.55 88.75 -2.1 88.8 -2.5 87.5 L-3.25 85.2 Q-3.35 83.35 -2.0 81.95" fill="#9999ff" fill-rule="evenodd" stroke="none"/>
  </g>
</svg>
