<?xml version="1.0" encoding="UTF-8" standalone="no"?>
<svg xmlns:xlink="http://www.w3.org/1999/xlink" height="99.25px" width="29.4px" xmlns="http://www.w3.org/2000/svg">
  <g transform="matrix(1.0, 0.0, 0.0, 1.0, 19.7, 13.45)">
    <path d="M1.45 -13.1 L3.7 -13.45 Q5.2 -12.55 6.85 -11.9 L7.15 -11.8 8.15 -10.5 8.7 -8.9 Q9.85 -5.05 9.7 -0.9 L9.45 0.0 Q8.15 6.6 3.05 11.5 L2.45 13.4 2.4 13.4 Q2.15 13.7 2.3 14.05 L2.2 14.85 2.0 16.05 Q1.8 18.45 1.2 20.7 2.8 23.05 1.85 25.9 L-0.15 28.25 Q-1.25 29.4 -0.75 31.0 0.1 33.7 -1.55 36.05 L-1.55 40.75 Q-1.5 43.25 -3.25 44.9 -3.25 48.5 -4.95 51.35 -4.6 52.45 -3.75 53.2 -3.55 55.15 -2.8 57.1 -2.1 59.0 -3.4 60.8 L-2.4 62.7 Q0.0 67.85 -0.5 73.6 L-1.85 84.85 Q-2.7 86.0 -4.15 85.75 L-5.8 82.0 Q-7.45 83.45 -9.3 82.15 -10.35 81.25 -11.75 81.15 L-12.4 79.25 Q-12.65 78.05 -14.1 78.45 -17.4 74.8 -16.6 71.0 -15.8 67.2 -14.45 63.3 -13.1 59.45 -14.75 55.55 -13.85 52.25 -15.25 49.85 -16.65 47.35 -16.85 44.4 -16.2 41.45 -18.1 39.6 -20.05 37.65 -19.65 35.1 -18.2 33.05 -19.1 31.05 -20.0 29.0 -19.5 26.75 -18.15 22.7 -15.1 19.85 -15.8 17.6 -14.55 15.95 L-12.75 14.85 -11.9 14.25 -11.95 14.0 -11.85 13.85 -11.65 13.55 Q-11.6 9.7 -9.15 6.75 -6.25 3.3 -7.0 -1.15 -7.35 -3.2 -6.85 -5.3 L-6.05 -7.35 -5.35 -8.6 Q-2.55 -12.0 1.25 -13.05 L1.45 -13.1 M4.9 -11.55 L2.45 -12.05 Q0.05 -12.25 -1.85 -10.7 L-2.6 -10.05 -2.7 -9.95 -3.05 -9.55 -5.15 -6.95 -4.7 -7.55 -5.25 -6.55 -5.45 -6.15 -6.1 -3.35 -6.1 -0.95 -6.0 0.25 -6.2 -0.65 Q-5.3 2.35 -6.9 4.8 L-10.5 9.6 -10.4 11.25 -10.65 14.85 -10.8 15.95 Q-11.3 18.75 -10.05 21.15 -9.75 23.05 -7.8 23.45 L-6.4 23.7 -4.95 24.0 -4.5 24.0 -1.85 24.15 Q0.4 21.85 0.45 18.4 0.5 16.55 0.8 14.85 L1.2 13.1 Q1.3 12.5 1.55 11.95 5.8 7.65 7.4 1.9 8.95 -3.9 7.6 -10.05 6.35 -11.1 4.9 -11.55 M-15.9 22.2 L-16.1 22.5 Q-16.25 22.3 -16.5 22.25 L-16.8 22.3 -16.95 22.5 Q-17.9 23.6 -18.3 24.95 -18.45 25.6 -18.05 25.95 L-18.15 26.3 Q-19.25 28.95 -17.75 31.7 L-17.65 33.45 -18.85 35.25 -18.85 36.9 Q-18.5 38.05 -17.35 38.45 L-17.05 36.8 -16.75 35.9 -15.25 32.9 -15.0 32.5 -13.4 30.1 -12.05 28.75 Q-10.7 27.8 -8.95 27.8 L-6.05 27.9 -5.3 28.05 -4.55 28.2 -4.4 28.3 Q-3.35 29.4 -3.05 30.95 L-2.1 34.5 -1.85 33.85 Q-1.25 34.05 -1.3 33.35 L-1.5 32.05 Q-1.8 30.3 -1.4 28.65 L0.35 26.35 Q1.6 24.75 0.45 22.5 0.0 23.0 -0.05 23.5 -1.3 25.35 -3.45 25.3 L-4.1 25.25 -4.15 25.25 -6.3 24.95 -6.45 24.9 -6.55 24.75 Q-6.85 24.15 -7.55 24.1 L-8.0 24.0 Q-9.1 23.45 -10.15 23.4 L-10.5 23.6 -10.7 23.4 Q-11.55 22.35 -11.75 20.9 L-11.75 20.75 -11.85 19.8 -12.4 15.95 -12.55 16.0 Q-13.15 16.15 -13.6 16.6 -14.25 16.8 -14.45 17.5 L-14.55 18.05 Q-14.9 19.1 -14.5 20.2 L-14.5 20.25 -15.0 21.05 -15.2 21.6 -15.35 21.5 -15.9 22.2 M-7.35 12.25 L-7.15 11.7 -7.15 11.75 -7.35 12.25 M-4.5 35.65 L-3.7 35.65 -3.45 35.6 -4.0 31.95 -4.0 31.9 -4.25 30.65 Q-4.85 28.45 -6.9 28.65 L-10.7 28.45 Q-13.05 29.8 -13.95 32.4 L-12.95 32.4 -9.35 32.4 -8.4 33.45 -7.3 35.4 Q-6.25 34.95 -5.35 35.4 L-4.5 35.65 M-7.3 36.65 L-7.35 36.55 -7.75 36.15 Q-8.1 35.6 -8.7 35.5 L-8.7 34.9 Q-9.25 32.9 -11.0 33.25 L-14.3 33.6 Q-16.2 36.1 -16.15 39.5 -16.35 43.9 -15.0 47.8 L-14.3 49.5 Q-12.3 49.65 -10.35 48.8 -8.15 46.75 -8.05 43.8 L-6.7 43.7 -6.65 43.65 -4.15 43.8 Q-3.25 42.55 -3.55 41.25 L-4.25 40.9 -3.55 41.25 -3.45 41.15 -3.35 41.0 Q-3.0 40.45 -3.4 39.95 L-3.75 39.95 -3.25 39.95 Q-3.1 38.4 -3.75 37.1 -5.05 36.45 -6.65 36.25 L-7.3 36.65 M-4.7 47.6 L-4.5 46.2 -4.4 45.7 -4.4 45.5 Q-5.3 44.55 -6.8 44.75 -7.45 45.5 -7.55 46.65 L-7.65 47.1 Q-8.0 48.55 -9.15 49.3 L-9.25 49.4 -9.35 49.4 -9.6 49.5 Q-11.3 50.35 -13.1 50.65 L-12.95 54.35 -12.9 54.8 -11.95 54.25 -10.25 53.35 -9.55 53.0 -9.55 52.95 -6.3 51.5 Q-5.15 49.75 -4.7 47.6 M-9.9 59.8 L-8.45 59.65 -5.4 59.85 Q-3.95 60.5 -3.6 58.4 L-3.85 57.55 Q-6.3 57.15 -8.75 57.55 L-10.6 57.95 -11.25 57.85 Q-11.9 57.95 -12.45 58.35 -13.1 58.85 -12.95 59.7 L-12.55 60.25 -11.0 60.4 -10.35 60.1 -9.9 59.8 M-10.15 57.1 L-4.1 56.3 Q-4.4 54.35 -5.55 52.65 -7.75 53.2 -9.75 54.15 L-10.25 54.15 -11.9 54.65 Q-12.75 54.95 -13.35 55.7 -13.9 56.6 -13.4 57.45 L-13.1 57.7 -11.65 57.75 -10.15 57.1 M-4.55 77.65 Q-4.95 79.75 -4.7 81.85 L-3.95 84.75 -2.95 84.75 Q-2.55 80.55 -1.8 76.6 -0.8 72.7 -1.9 69.25 L-3.95 62.35 Q-5.1 60.3 -7.75 60.5 L-11.5 61.05 -12.3 61.3 -12.4 61.35 -15.0 68.65 Q-16.25 72.4 -14.85 76.25 L-14.75 76.4 Q-14.3 77.9 -12.75 77.65 -12.35 76.95 -12.45 76.0 -12.6 75.1 -11.9 74.6 L-11.9 74.7 Q-11.3 76.35 -11.2 78.2 L-11.2 80.0 -8.55 81.35 Q-6.55 81.65 -6.4 79.75 -6.25 78.15 -5.4 77.15 L-5.0 76.75 -4.4 77.25 -4.55 77.65" fill="#000000" fill-rule="evenodd" stroke="none"/>
    <path d="M-1.85 -10.7 Q0.05 -12.25 2.45 -12.05 L4.9 -11.55 4.3 -10.4 Q3.7 -9.4 3.6 -8.4 3.45 -6.05 5.8 -5.05 5.85 -4.6 6.05 -4.25 7.15 -1.95 6.2 0.0 L6.2 -0.15 Q6.15 -4.25 2.0 -4.35 L-0.15 -2.7 Q-1.85 -1.1 -2.75 1.2 L-2.95 1.65 Q-3.95 4.55 -2.2 6.8 L-1.5 7.2 0.4 7.4 -0.1 7.4 -2.2 8.85 Q-4.3 10.4 -2.0 11.85 -0.8 12.9 -1.05 14.6 L-1.3 17.6 -1.25 19.15 -1.5 21.55 -1.7 21.75 -2.95 22.3 -3.75 22.35 -4.25 22.3 Q-4.3 21.15 -5.3 17.55 -6.4 13.5 -4.85 12.6 -3.35 11.7 -3.5 11.15 -3.7 10.65 -4.0 10.3 L-5.05 9.65 -5.85 9.2 -5.3 8.15 -4.95 6.9 Q-4.9 6.4 -5.1 6.0 -5.85 4.65 -6.9 4.8 -5.3 2.35 -6.2 -0.65 L-6.0 0.25 -6.1 -0.95 -6.1 -3.35 -5.45 -6.15 -5.25 -6.55 -4.7 -7.55 -5.15 -6.95 -3.05 -9.55 -3.45 -9.0 -3.9 -8.45 Q-5.4 -6.4 -4.95 -3.95 -4.75 -3.2 -4.1 -3.0 -0.95 -1.9 0.45 -5.0 L1.15 -6.65 Q2.6 -10.3 -0.85 -11.0 L-1.85 -10.7 M-10.65 14.85 L-10.4 11.25 -8.3 11.9 -7.85 11.15 Q-8.7 13.1 -8.85 15.4 -9.55 14.95 -10.35 14.7 L-10.35 14.8 -10.65 14.85 M-9.95 29.55 L-9.95 29.5 -9.85 29.5 -9.95 29.55 M-7.85 29.5 L-7.45 29.5 -7.4 29.55 -6.0 30.7 Q-6.1 31.8 -5.65 32.85 -5.45 33.4 -5.4 34.0 L-5.3 35.4 -4.5 35.65 -5.35 35.4 Q-6.25 34.95 -7.3 35.4 L-8.4 33.45 -8.15 33.3 Q-7.2 33.1 -6.8 32.15 -5.9 29.95 -7.85 29.5 M-4.7 47.6 Q-5.15 49.75 -6.3 51.5 L-9.55 52.95 Q-9.1 52.1 -9.0 50.8 -9.0 49.9 -9.15 49.3 -8.0 48.55 -7.65 47.1 -6.6 48.2 -4.7 47.6 M-11.95 54.25 L-12.9 54.8 -12.95 54.35 -12.45 54.4 -12.25 54.4 -11.95 54.25 M-11.3 62.4 L-6.5 63.2 -6.15 63.5 Q-4.95 64.7 -4.3 66.3 L-4.0 66.9 -3.4 72.4 -2.75 75.8 -2.85 76.55 -2.75 77.1 -2.7 77.5 -2.7 77.7 -3.5 79.25 Q-3.75 78.2 -4.55 77.65 L-4.4 77.25 -5.0 76.75 -5.4 77.15 -7.3 76.8 Q-8.95 76.75 -10.6 77.3 L-11.2 77.65 -11.2 78.2 Q-11.3 76.35 -11.9 74.7 L-11.6 75.55 Q-11.45 74.25 -12.9 73.65 L-13.4 73.8 -13.35 72.85 -12.4 73.05 -11.8 72.9 Q-11.4 72.85 -11.25 72.4 L-11.15 72.1 -10.45 72.05 Q-9.5 71.25 -9.35 70.0 L-9.35 69.9 Q-9.15 66.65 -12.7 66.95 L-12.55 66.95 -11.9 65.1 Q-11.3 63.7 -11.3 62.4 M-8.75 75.5 Q-7.95 77.1 -5.45 76.0 -4.9 75.5 -4.7 74.75 -4.15 72.05 -6.55 71.35 -7.15 71.3 -7.6 71.6 L-7.75 71.7 Q-7.95 71.75 -8.05 71.9 L-8.15 71.95 Q-8.7 72.4 -8.85 72.9 L-8.95 73.1 -9.15 73.45 Q-9.35 74.75 -8.75 75.5" fill="#e3b18b" fill-rule="evenodd" stroke="none"/>
    <path d="M-4.25 22.3 L-3.75 22.35 -2.95 22.3 -1.7 21.75 -1.5 21.55 -1.25 19.15 -1.3 17.6 -1.05 14.6 Q-0.8 12.9 -2.0 11.85 -4.3 10.4 -2.2 8.85 L-0.1 7.4 0.4 7.4 2.0 7.4 2.25 7.4 2.95 7.15 Q6.2 4.3 6.2 0.0 7.15 -1.95 6.05 -4.25 5.85 -4.6 5.8 -5.05 3.45 -6.05 3.6 -8.4 3.7 -9.4 4.3 -10.4 L4.9 -11.55 Q6.35 -11.1 7.6 -10.05 8.95 -3.9 7.4 1.9 5.8 7.65 1.55 11.95 1.3 12.5 1.2 13.1 L0.8 14.85 Q0.5 16.55 0.45 18.4 0.4 21.85 -1.85 24.15 L-4.5 24.0 -4.95 24.0 -6.4 23.7 -7.8 23.45 Q-9.75 23.05 -10.05 21.15 -11.3 18.75 -10.8 15.95 L-10.65 14.85 -10.35 14.8 -10.35 14.7 Q-9.55 14.95 -8.85 15.4 L-8.9 16.2 -7.35 12.25 -7.15 11.75 -7.35 13.4 Q-7.8 16.05 -7.85 18.85 L-7.95 19.65 -7.95 19.75 Q-7.65 20.05 -7.55 20.65 -7.4 21.3 -6.85 21.7 -5.65 22.5 -4.25 22.55 L-4.25 22.5 -4.25 22.3 M-9.95 29.55 Q-10.35 29.6 -10.75 29.8 -12.55 30.6 -12.95 32.4 L-13.95 32.4 Q-13.05 29.8 -10.7 28.45 L-6.9 28.65 Q-4.85 28.45 -4.25 30.65 L-4.0 31.9 -4.0 31.95 -3.45 35.6 -3.7 35.65 -4.5 35.65 -5.3 35.4 -5.4 34.0 Q-5.45 33.4 -5.65 32.85 -6.1 31.8 -6.0 30.7 L-7.4 29.55 -7.45 29.5 -7.85 29.5 -8.75 29.4 -9.85 29.5 -9.95 29.5 -9.95 29.55 M-7.65 47.1 L-7.55 46.65 Q-7.45 45.5 -6.8 44.75 -5.3 44.55 -4.4 45.5 L-4.4 45.7 -4.5 46.2 -4.7 47.6 Q-6.6 48.2 -7.65 47.1 M-4.55 77.65 Q-3.75 78.2 -3.5 79.25 L-2.7 77.7 -2.7 77.5 -2.75 77.1 -2.85 76.55 -2.75 75.8 -3.4 72.4 -4.0 66.9 -4.3 66.3 Q-4.95 64.7 -6.15 63.5 L-6.5 63.2 -11.3 62.4 -11.4 61.45 -11.45 61.15 -11.5 61.05 -7.75 60.5 Q-5.1 60.3 -3.95 62.35 L-1.9 69.25 Q-0.8 72.7 -1.8 76.6 -2.55 80.55 -2.95 84.75 L-3.95 84.75 -4.7 81.85 Q-4.95 79.75 -4.55 77.65 M-13.4 73.8 L-12.9 73.65 Q-11.45 74.25 -11.6 75.55 L-11.9 74.7 -11.9 74.6 Q-12.6 75.1 -12.45 76.0 -12.35 76.95 -12.75 77.65 -14.3 77.9 -14.75 76.4 L-14.05 76.4 Q-13.5 76.15 -13.5 75.65 L-13.4 73.8 M-11.2 78.2 L-11.2 77.65 -10.6 77.3 Q-8.95 76.75 -7.3 76.8 L-5.4 77.15 Q-6.25 78.15 -6.4 79.75 -6.55 81.65 -8.55 81.35 L-11.2 80.0 -11.2 78.2" fill="#ad7a3f" fill-rule="evenodd" stroke="none"/>
    <path d="M-1.85 -10.7 L-0.85 -11.0 Q2.6 -10.3 1.15 -6.65 L0.45 -5.0 Q-0.95 -1.9 -4.1 -3.0 -4.75 -3.2 -4.95 -3.95 -5.4 -6.4 -3.9 -8.45 L-3.45 -9.0 -3.05 -9.55 -2.7 -9.95 -2.6 -10.05 -1.85 -10.7 M-6.9 4.8 Q-5.85 4.65 -5.1 6.0 -4.9 6.4 -4.95 6.9 L-5.3 8.15 -5.85 9.2 -5.05 9.65 -4.0 10.3 Q-3.7 10.65 -3.5 11.15 -3.35 11.7 -4.85 12.6 -6.4 13.5 -5.3 17.55 -4.3 21.15 -4.25 22.3 L-4.25 22.5 -4.25 22.55 Q-5.05 20.4 -6.2 18.5 L-7.3 18.45 -7.85 18.85 Q-7.8 16.05 -7.35 13.4 L-7.15 11.75 -7.15 11.7 -7.35 12.25 -8.9 16.2 -8.85 15.4 Q-8.7 13.1 -7.85 11.15 L-8.3 11.9 -10.4 11.25 -10.5 9.6 -6.9 4.8 M0.4 7.4 L-1.5 7.2 -2.2 6.8 Q-3.95 4.55 -2.95 1.65 L-2.75 1.2 -1.9 2.65 -1.2 2.4 1.05 0.05 Q2.55 -2.0 0.3 -2.75 L-0.15 -2.7 2.0 -4.35 Q6.15 -4.25 6.2 -0.15 L6.2 0.0 Q6.2 4.3 2.95 7.15 L2.25 7.4 2.0 7.4 0.4 7.4 M-12.95 32.4 Q-12.55 30.6 -10.75 29.8 -10.35 29.6 -9.95 29.55 L-9.85 29.5 -8.75 29.4 -7.85 29.5 Q-5.9 29.95 -6.8 32.15 -7.2 33.1 -8.15 33.3 L-8.4 33.45 -9.35 32.4 -12.95 32.4 M-9.55 52.95 L-9.55 53.0 -10.25 53.35 -11.95 54.25 -12.25 54.4 -12.45 54.4 -12.95 54.35 -13.1 50.65 Q-11.3 50.35 -9.6 49.5 L-9.35 49.4 -9.25 49.4 -9.15 49.3 Q-9.0 49.9 -9.0 50.8 -9.1 52.1 -9.55 52.95 M-11.5 61.05 L-11.45 61.15 -11.4 61.45 -11.3 62.4 Q-11.3 63.7 -11.9 65.1 L-12.55 66.95 -12.7 66.95 Q-9.15 66.65 -9.35 69.9 L-9.35 70.0 Q-9.5 71.25 -10.45 72.05 L-11.15 72.1 Q-10.9 70.5 -12.9 70.2 L-13.35 70.25 -13.45 70.35 Q-13.9 70.55 -13.95 71.15 -14.1 72.45 -13.35 72.85 L-13.4 73.8 -13.5 75.65 Q-13.5 76.15 -14.05 76.4 L-14.75 76.4 -14.85 76.25 Q-16.25 72.4 -15.0 68.65 L-12.4 61.35 -12.3 61.3 -11.5 61.05 M-8.85 72.9 Q-8.7 72.4 -8.15 71.95 L-8.05 71.9 Q-7.95 71.75 -7.75 71.7 L-7.6 71.6 Q-7.15 71.3 -6.55 71.35 -4.15 72.05 -4.7 74.75 -4.9 75.5 -5.45 76.0 -7.95 77.1 -8.75 75.5 -8.1 76.25 -6.6 76.35 L-5.9 75.6 Q-5.15 74.2 -6.8 73.6 L-6.85 73.45 Q-7.35 72.45 -8.5 72.65 L-8.85 72.9" fill="#edcdb6" fill-rule="evenodd" stroke="none"/>
    <path d="M-2.75 1.2 Q-1.85 -1.1 -0.15 -2.7 L0.3 -2.75 Q2.55 -2.0 1.05 0.05 L-1.2 2.4 -1.9 2.65 -2.75 1.2 M-14.5 20.25 L-14.5 20.2 Q-14.9 19.1 -14.55 18.05 L-14.45 17.5 Q-14.25 16.8 -13.6 16.6 -13.15 16.15 -12.55 16.0 L-12.4 15.95 -11.85 19.8 -11.75 20.75 -11.8 20.8 -12.4 21.3 -13.05 21.15 -13.7 21.05 -14.5 20.25 M-7.85 18.85 L-7.3 18.45 -6.2 18.5 Q-5.05 20.4 -4.25 22.55 -5.65 22.5 -6.85 21.7 -7.4 21.3 -7.55 20.65 -7.65 20.05 -7.95 19.75 L-7.95 19.65 -7.85 18.85 M-11.15 72.1 L-11.25 72.4 Q-11.4 72.85 -11.8 72.9 L-12.4 73.05 -13.35 72.85 Q-14.1 72.45 -13.95 71.15 -13.9 70.55 -13.45 70.35 L-13.35 70.25 -12.9 70.2 Q-10.9 70.5 -11.15 72.1 M-8.85 72.9 L-8.5 72.65 Q-7.35 72.45 -6.85 73.45 L-6.8 73.6 Q-5.15 74.2 -5.9 75.6 L-6.6 76.35 Q-8.1 76.25 -8.75 75.5 -9.35 74.75 -9.15 73.45 L-8.95 73.1 -8.85 72.9" fill="#ffffff" fill-rule="evenodd" stroke="none"/>
    <path d="M-18.05 25.95 Q-18.45 25.6 -18.3 24.95 -17.9 23.6 -16.95 22.5 L-16.8 22.3 -16.5 22.25 Q-16.25 22.3 -16.1 22.5 L-15.9 22.2 Q-15.2 22.85 -15.05 24.1 -15.0 25.05 -15.35 26.0 L-15.85 26.7 Q-17.2 26.8 -17.9 26.05 -18.0 25.95 -18.05 25.95 M-11.75 20.75 L-11.75 20.9 -11.8 20.8 -11.75 20.75 M-10.7 23.4 L-10.5 23.6 -10.15 23.4 Q-9.1 23.45 -8.0 24.0 L-7.55 24.1 Q-6.85 24.15 -6.55 24.75 L-6.45 24.9 -6.3 24.95 -6.45 25.5 -6.45 25.55 Q-6.5 26.1 -6.95 26.15 -9.45 27.35 -11.1 25.4 -11.45 24.95 -11.25 24.4 L-10.7 23.4" fill="#cccccc" fill-rule="evenodd" stroke="none"/>
    <path d="M-15.9 22.2 L-15.35 21.5 -15.2 21.6 Q-14.2 22.1 -14.15 23.5 -15.0 28.0 -17.75 31.7 -19.25 28.95 -18.15 26.3 L-18.05 25.95 Q-18.0 25.95 -17.9 26.05 -17.2 26.8 -15.85 26.7 L-15.35 26.0 Q-15.0 25.05 -15.05 24.1 -15.2 22.85 -15.9 22.2 M-11.75 20.9 Q-11.55 22.35 -10.7 23.4 L-11.25 24.4 Q-11.45 24.95 -11.1 25.4 -9.45 27.35 -6.95 26.15 -6.5 26.1 -6.45 25.55 L-6.45 25.5 -6.3 24.95 -4.15 25.25 -4.1 25.25 -3.45 25.3 Q-2.85 26.05 -3.25 26.85 L-4.4 28.3 -4.55 28.2 -5.3 28.05 -6.05 27.9 -8.95 27.8 Q-10.7 27.8 -12.05 28.75 L-13.4 30.1 -15.0 32.5 -15.25 32.9 -16.75 35.9 -17.05 36.8 -17.35 38.45 Q-18.5 38.05 -18.85 36.9 L-18.85 35.25 -17.65 33.45 Q-15.0 29.25 -13.3 24.75 L-13.7 21.05 -13.05 21.15 -12.4 21.3 -11.8 20.8 -11.75 20.9" fill="#999999" fill-rule="evenodd" stroke="none"/>
    <path d="M-15.2 21.6 L-15.0 21.05 -14.5 20.25 -13.7 21.05 -13.3 24.75 Q-15.0 29.25 -17.65 33.45 L-17.75 31.7 Q-15.0 28.0 -14.15 23.5 -14.2 22.1 -15.2 21.6 M-3.45 25.3 Q-1.3 25.35 -0.05 23.5 0.0 23.0 0.45 22.5 1.6 24.75 0.35 26.35 L-1.4 28.65 Q-1.8 30.3 -1.5 32.05 L-1.3 33.35 Q-1.25 34.05 -1.85 33.85 L-2.1 34.5 -3.05 30.95 Q-3.35 29.4 -4.4 28.3 L-3.25 26.85 Q-2.85 26.05 -3.45 25.3" fill="#666666" fill-rule="evenodd" stroke="none"/>
    <path d="M-11.0 33.25 Q-9.25 32.9 -8.7 34.9 L-8.7 35.5 Q-8.1 35.6 -7.75 36.15 L-7.35 36.55 -7.3 36.65 -7.4 36.75 -7.55 37.1 -7.55 37.15 -7.45 37.6 Q-7.15 38.65 -7.15 39.5 L-6.9 39.5 -6.4 39.6 -3.75 39.95 -3.4 39.95 Q-3.0 40.45 -3.35 41.0 L-3.45 41.15 -3.55 41.25 -4.25 40.9 -6.55 40.55 -6.95 40.6 -6.95 43.65 -6.65 43.65 -6.7 43.7 -8.05 43.8 Q-8.15 46.75 -10.35 48.8 -12.3 49.65 -14.3 49.5 L-15.0 47.8 -13.1 47.45 -13.1 47.4 -11.9 47.15 -11.25 46.6 Q-10.6 45.9 -10.35 44.95 -10.05 43.9 -10.25 42.75 L-10.3 41.65 -10.35 39.4 -10.9 34.35 -10.9 33.85 -10.9 33.25 -11.0 33.25 M-10.6 57.95 L-8.75 57.55 Q-6.3 57.15 -3.85 57.55 L-3.6 58.4 Q-3.95 60.5 -5.4 59.85 L-8.45 59.65 -9.9 59.8 Q-9.65 59.55 -9.65 59.15 L-9.85 58.6 -10.6 57.95 M-10.15 57.1 L-9.5 56.35 Q-9.0 55.8 -9.1 55.05 -9.15 54.3 -9.75 54.15 -7.75 53.2 -5.55 52.65 -4.4 54.35 -4.1 56.3 L-10.15 57.1" fill="#333366" fill-rule="evenodd" stroke="none"/>
    <path d="M-7.3 36.65 L-6.65 36.25 Q-5.05 36.45 -3.75 37.1 -3.1 38.4 -3.25 39.95 L-3.75 39.95 -6.4 39.6 -6.9 39.5 -7.15 39.5 Q-7.15 38.65 -7.45 37.6 L-7.55 37.15 -7.55 37.1 -7.4 36.75 -7.3 36.65 M-4.25 40.9 L-3.55 41.25 Q-3.25 42.55 -4.15 43.8 L-6.65 43.65 -6.95 43.65 -6.95 40.6 -6.55 40.55 -4.25 40.9 M-15.0 47.8 Q-16.35 43.9 -16.15 39.5 -16.2 36.1 -14.3 33.6 L-11.0 33.25 -10.9 33.25 -10.9 33.85 -10.9 34.35 -10.35 39.4 -10.3 41.65 -10.25 42.75 Q-10.05 43.9 -10.35 44.95 -10.6 45.9 -11.25 46.6 L-11.9 47.15 -13.1 47.4 -13.1 47.45 -15.0 47.8 M-9.9 59.8 L-10.35 60.1 -11.0 60.4 -12.55 60.25 -12.95 59.7 Q-13.1 58.85 -12.45 58.35 -11.9 57.95 -11.25 57.85 L-10.6 57.95 -9.85 58.6 -9.65 59.15 Q-9.65 59.55 -9.9 59.8 M-9.75 54.15 Q-9.15 54.3 -9.1 55.05 -9.0 55.8 -9.5 56.35 L-10.15 57.1 -11.65 57.75 -13.1 57.7 -13.4 57.45 Q-13.9 56.6 -13.35 55.7 -12.75 54.95 -11.9 54.65 L-10.25 54.15 -9.75 54.15" fill="#9999ff" fill-rule="evenodd" stroke="none"/>
  </g>
</svg>
