<?xml version="1.0" encoding="UTF-8" standalone="no"?>
<svg xmlns:xlink="http://www.w3.org/1999/xlink" height="99.0px" width="26.95px" xmlns="http://www.w3.org/2000/svg">
  <g transform="matrix(1.0, 0.0, 0.0, 1.0, 7.45, 12.45)">
    <path d="M-0.5 -11.3 L-0.35 -11.3 0.55 -11.15 0.75 -11.05 1.0 -10.95 2.85 -10.05 3.1 -9.7 3.4 -9.35 1.95 -9.7 1.25 -9.25 Q0.55 -8.85 0.35 -8.1 -0.35 -4.8 1.15 -1.75 2.25 0.55 4.9 -0.3 L5.85 -0.95 6.4 -1.7 7.0 0.65 Q3.75 1.2 1.75 3.9 L4.7 12.45 4.8 12.75 4.85 13.0 6.1 16.85 5.75 17.05 4.15 17.7 3.95 16.55 2.5 12.15 Q0.65 7.95 -1.65 4.15 -3.55 -0.15 -4.2 -4.65 -4.35 -5.65 -4.05 -6.65 L-3.05 -8.9 Q-2.3 -10.05 -1.2 -10.85 L-0.5 -11.3 M14.0 38.55 L14.35 38.6 Q15.35 38.15 16.4 38.6 L16.5 41.45 16.4 41.5 14.05 41.95 Q12.75 42.05 12.05 43.15 13.2 50.3 12.15 57.05 L15.35 58.05 15.65 58.1 15.05 61.8 Q12.6 59.85 9.95 58.9 11.6 57.2 11.25 54.65 L9.5 44.65 9.2 42.05 Q9.2 41.65 9.55 41.35 11.5 39.6 14.0 38.55" fill="#336699" fill-rule="evenodd" stroke="none"/>
    <path d="M3.4 -9.35 L3.1 -9.7 2.85 -10.05 1.0 -10.95 0.75 -11.05 0.55 -11.15 -0.35 -11.3 -0.5 -11.3 -3.2 -11.35 -3.25 -11.35 Q-4.25 -10.85 -5.05 -10.15 L-5.8 -9.25 -6.6 -7.1 -6.65 -6.75 -6.7 -6.65 -6.65 -4.45 -6.65 -2.9 -6.65 -2.7 Q-5.85 2.15 -2.7 5.95 -1.65 9.05 0.1 11.95 1.8 14.85 2.25 18.3 L4.15 17.7 5.75 17.05 6.4 17.0 Q6.8 16.6 7.3 16.55 L6.8 15.05 6.75 15.05 6.7 14.7 6.3 13.5 7.4 16.65 7.9 16.55 8.6 16.35 8.35 15.45 8.6 16.2 9.2 16.15 9.35 15.85 9.5 15.5 9.7 16.05 10.15 15.9 10.9 15.5 Q11.4 15.2 12.0 15.25 L12.25 15.3 Q12.5 15.15 12.8 15.15 L12.95 15.1 10.6 7.4 8.85 2.85 6.75 2.15 7.55 2.45 7.3 1.45 7.15 1.1 7.0 0.5 6.9 0.25 7.0 0.65 6.4 -1.7 5.15 -7.0 5.1 -7.1 4.5 -8.2 4.05 -8.9 3.4 -9.35 M4.85 13.0 L4.8 12.75 4.95 12.95 4.85 13.0 M0.0 -12.4 L0.5 -12.35 Q1.7 -12.0 2.7 -11.4 L5.35 -8.65 5.6 -8.35 5.65 -8.25 5.85 -7.95 5.95 -7.6 6.7 -5.55 6.75 -5.3 6.85 -4.25 Q7.0 -2.4 7.5 -0.6 L7.65 -0.2 Q7.8 0.45 8.4 0.95 L8.55 1.2 9.0 1.5 10.45 3.6 12.15 8.3 12.55 9.55 14.3 15.45 14.15 15.45 13.35 15.7 12.85 16.45 12.8 17.0 Q12.75 17.75 12.95 18.5 L13.2 19.25 13.3 19.45 13.35 19.6 13.3 19.65 13.6 22.35 Q13.65 23.7 15.15 24.0 15.9 26.6 15.95 29.5 15.95 32.4 16.35 35.2 18.5 37.55 18.05 41.2 L19.4 42.0 Q19.8 49.7 18.75 57.4 18.3 58.2 17.25 58.2 16.3 58.15 16.35 59.5 15.7 61.6 15.5 63.8 14.9 64.75 14.9 66.05 14.9 68.7 15.45 71.2 L15.45 71.25 14.95 74.3 Q14.7 76.0 13.3 77.25 L11.4 82.15 Q9.15 84.3 7.2 86.55 L5.85 86.55 Q5.35 86.1 5.2 85.55 4.8 84.1 5.6 83.0 L7.2 80.8 5.35 80.85 Q4.4 81.05 3.65 80.3 2.8 79.5 3.35 78.8 L4.6 77.4 Q5.75 75.95 7.7 75.75 9.6 75.65 9.45 73.4 9.0 71.8 9.05 69.9 9.0 67.95 6.7 67.95 5.4 69.5 5.6 71.65 5.7 73.8 3.2 74.35 1.75 74.2 0.95 73.05 1.15 69.9 1.5 66.75 1.75 63.5 4.95 61.8 L6.3 60.25 Q6.9 59.35 6.05 58.4 6.25 56.4 7.4 54.65 8.4 52.85 7.9 50.8 5.95 46.05 4.85 40.95 6.5 39.65 5.7 37.85 L5.3 36.75 5.5 34.05 5.7 33.15 5.9 32.1 6.15 29.95 Q4.05 30.0 4.05 28.15 L3.8 24.7 Q5.5 23.95 4.85 22.7 L3.8 20.25 Q3.4 19.5 2.9 19.85 L1.8 19.75 -1.7 11.65 Q-2.95 8.5 -4.85 5.65 L-5.5 4.3 -6.6 1.75 -6.65 1.45 -6.95 0.1 -7.05 -0.5 -7.35 -2.1 -7.35 -2.55 -7.45 -2.75 -7.45 -3.5 -7.35 -5.65 -7.2 -6.2 -7.15 -7.2 -6.8 -8.3 -6.75 -8.5 -5.1 -10.95 -4.85 -11.2 -4.45 -11.45 -2.75 -12.35 -2.6 -12.45 0.0 -12.4 M6.15 2.0 L6.1 2.0 6.15 1.9 6.15 2.0 M12.55 22.8 L12.3 21.8 Q12.45 20.5 11.85 19.3 L11.85 18.95 11.7 17.95 11.4 17.5 11.15 17.35 10.5 17.55 8.35 17.95 7.05 18.2 6.4 18.25 6.35 18.3 5.85 18.65 5.75 18.7 5.4 19.0 5.2 19.15 5.3 19.45 5.5 20.0 5.95 21.4 6.0 21.65 6.05 21.95 6.35 24.0 8.65 23.75 9.5 23.65 9.8 23.65 12.4 23.55 12.6 23.55 12.55 22.8 M11.8 24.65 L11.75 24.65 8.3 25.2 8.15 25.2 Q7.6 24.45 6.55 24.6 L5.65 24.75 5.15 25.05 Q4.35 25.45 4.35 26.3 L4.5 26.7 4.55 27.55 4.4 27.9 Q4.35 28.6 4.95 28.85 L5.15 29.0 7.95 29.35 9.1 29.6 9.35 29.65 10.55 29.95 11.15 30.0 14.05 30.2 14.6 30.1 14.0 29.85 14.7 30.15 Q15.6 28.3 15.05 26.2 L14.35 24.8 11.8 24.65 M7.25 37.7 L7.4 38.4 Q10.3 37.05 13.4 35.95 L15.2 35.35 Q15.25 33.2 14.7 31.4 L7.8 30.2 7.7 30.4 7.6 30.85 7.5 32.0 7.1 36.0 Q7.1 36.85 7.25 37.7 M14.0 38.55 Q10.15 38.05 7.3 40.15 L6.35 40.9 Q7.25 45.75 9.3 50.1 9.85 52.35 8.7 54.2 7.5 56.1 6.9 58.1 L9.95 58.9 Q12.6 59.85 15.05 61.8 L15.65 58.1 15.35 58.05 15.9 56.65 15.5 56.65 17.6 57.05 17.95 56.65 Q18.8 50.3 18.5 43.65 L15.9 43.3 16.2 42.85 Q16.6 42.05 16.4 41.5 L16.5 41.45 16.4 38.6 Q15.35 38.15 14.35 38.6 L14.0 38.55 M6.05 84.5 Q6.05 85.35 6.65 86.1 7.85 84.2 9.6 82.65 11.3 81.1 11.6 78.75 14.55 75.7 14.0 71.55 L13.65 67.95 Q13.6 65.65 13.95 63.4 L13.8 63.3 13.65 63.05 13.45 62.8 Q11.4 60.55 8.6 59.95 L7.85 59.85 6.8 61.4 5.5 62.6 Q4.35 63.35 3.45 64.25 L2.7 65.05 2.65 66.5 Q2.5 69.7 1.75 72.7 L2.25 73.4 Q3.35 73.85 4.1 72.8 L4.05 72.4 Q3.85 70.2 4.95 68.4 5.35 67.7 6.0 67.15 8.15 66.45 9.7 68.1 L9.5 69.3 Q9.45 71.0 10.1 72.7 L10.35 73.85 10.3 75.35 10.25 75.75 9.7 77.1 Q9.75 79.05 8.55 80.45 7.25 81.85 6.3 83.35 6.05 83.9 6.05 84.5 M7.55 76.75 L4.9 78.25 Q4.2 79.25 4.9 80.3 L7.7 79.3 7.8 79.05 8.6 76.45 8.6 76.4 Q8.0 76.5 7.55 76.75" fill="#000000" fill-rule="evenodd" stroke="none"/>
    <path d="M5.75 17.05 L6.1 16.85 4.85 13.0 4.95 12.95 4.8 12.75 4.7 12.45 1.75 3.9 Q3.75 1.2 7.0 0.65 L6.9 0.25 7.0 0.5 7.15 1.1 7.3 1.45 7.55 2.45 6.75 2.15 8.85 2.85 10.6 7.4 12.95 15.1 12.8 15.15 Q12.5 15.15 12.25 15.3 L12.0 15.25 Q11.4 15.2 10.9 15.5 L10.15 15.9 9.7 16.05 9.5 15.5 Q7.4 8.95 4.5 2.65 L4.7 2.55 4.55 2.5 4.2 2.55 4.1 2.55 Q3.65 2.9 3.6 3.4 3.1 3.25 2.65 4.45 L3.1 5.45 6.3 13.5 6.7 14.7 6.75 15.05 6.8 15.05 7.3 16.55 Q6.8 16.6 6.4 17.0 L5.75 17.05 M6.4 -1.7 L5.85 -0.95 4.9 -0.3 Q2.25 0.55 1.15 -1.75 -0.35 -4.8 0.35 -8.1 0.55 -8.85 1.25 -9.25 L1.95 -9.7 3.4 -9.35 4.05 -8.9 4.5 -8.2 5.1 -7.1 5.15 -7.0 6.4 -1.7 M6.15 2.0 L6.15 1.9 6.1 2.0 6.15 2.0 M16.4 41.5 Q16.6 42.05 16.2 42.85 L15.9 43.3 18.5 43.65 Q18.8 50.3 17.95 56.65 L17.6 57.05 15.5 56.65 15.9 56.65 15.35 58.05 12.15 57.05 Q13.2 50.3 12.05 43.15 12.75 42.05 14.05 41.95 L16.4 41.5 M13.0 43.3 Q13.55 49.35 13.25 55.7 13.7 56.45 14.6 56.6 14.4 55.65 14.55 54.4 L14.75 52.3 Q14.75 47.7 15.45 43.3 L13.0 43.3" fill="#333366" fill-rule="evenodd" stroke="none"/>
    <path d="M-0.5 -11.3 L-1.2 -10.85 Q-2.3 -10.05 -3.05 -8.9 L-4.05 -6.65 Q-4.35 -5.65 -4.2 -4.65 -3.55 -0.15 -1.65 4.15 0.65 7.95 2.5 12.15 L3.95 16.55 4.15 17.7 2.25 18.3 Q1.8 14.85 0.1 11.95 -1.65 9.05 -2.7 5.95 -5.85 2.15 -6.65 -2.7 L-6.65 -2.9 -6.65 -4.45 -6.7 -6.65 -6.65 -6.75 -6.6 -7.1 -5.8 -9.25 -5.05 -10.15 Q-4.25 -10.85 -3.25 -11.35 L-3.2 -11.35 -0.5 -11.3 M6.3 13.5 L3.1 5.45 2.65 4.45 Q3.1 3.25 3.6 3.4 3.65 2.9 4.1 2.55 L4.2 2.55 4.55 2.5 4.7 2.55 4.5 2.65 Q7.4 8.95 9.5 15.5 L9.35 15.85 9.2 16.15 8.6 16.2 8.35 15.45 8.6 16.35 7.9 16.55 7.4 16.65 6.3 13.5 M9.95 58.9 L6.9 58.1 Q7.5 56.1 8.7 54.2 9.85 52.35 9.3 50.1 7.25 45.75 6.35 40.9 L7.3 40.15 Q10.15 38.05 14.0 38.55 11.5 39.6 9.55 41.35 9.2 41.65 9.2 42.05 L9.5 44.65 11.25 54.65 Q11.6 57.2 9.95 58.9 M13.0 43.3 L15.45 43.3 Q14.75 47.7 14.75 52.3 L14.55 54.4 Q14.4 55.65 14.6 56.6 13.7 56.45 13.25 55.7 13.55 49.35 13.0 43.3" fill="#9999ff" fill-rule="evenodd" stroke="none"/>
    <path d="M5.95 21.4 L5.5 20.0 5.3 19.45 5.2 19.15 5.4 19.0 5.75 18.7 5.85 18.65 6.35 18.3 6.4 18.25 7.05 18.2 8.35 17.95 10.5 17.55 11.15 17.35 11.4 17.5 11.7 17.95 11.85 18.95 11.85 19.3 Q12.45 20.5 12.3 21.8 L12.55 22.8 12.45 23.2 12.4 23.55 9.8 23.65 9.5 23.65 9.2 23.1 Q8.95 22.0 8.35 21.55 L7.9 21.55 7.05 21.35 6.7 21.25 6.65 21.25 6.05 21.35 5.95 21.4 M13.4 35.95 Q12.4 35.25 13.05 34.0 L13.0 33.85 12.85 33.4 12.8 33.2 Q11.65 32.7 11.25 31.7 L11.05 32.35 7.5 32.0 7.6 30.85 7.7 30.4 7.8 30.2 14.7 31.4 Q15.25 33.2 15.2 35.35 L13.4 35.95 M8.6 59.95 Q11.4 60.55 13.45 62.8 L13.65 63.05 13.8 63.3 13.95 63.4 Q13.6 65.65 13.65 67.95 L14.0 71.55 Q14.55 75.7 11.6 78.75 11.3 81.1 9.6 82.65 7.85 84.2 6.65 86.1 6.05 85.35 6.05 84.5 7.3 83.75 8.25 82.6 L9.35 81.4 9.8 80.8 10.45 79.65 10.95 78.1 11.5 77.8 11.8 75.65 12.25 75.05 Q12.9 74.15 12.95 72.95 12.95 71.25 12.3 69.95 L12.4 69.05 Q12.45 67.4 12.75 65.85 L12.95 66.25 12.65 65.8 Q11.1 64.0 9.2 62.7 L9.1 62.65 Q9.9 61.05 8.3 60.4 L8.6 59.95" fill="#ad7a3f" fill-rule="evenodd" stroke="none"/>
    <path d="M5.95 21.4 L6.05 21.35 6.65 21.25 6.7 21.25 Q6.25 21.35 6.0 21.65 L5.95 21.4 M7.9 21.55 L8.35 21.55 Q8.95 22.0 9.2 23.1 L9.5 23.65 8.65 23.75 Q9.05 22.15 7.9 21.55 M12.4 23.55 L12.45 23.2 12.55 22.8 12.6 23.55 12.4 23.55 M11.05 32.35 L11.25 31.7 Q11.65 32.7 12.8 33.2 L12.85 33.4 13.0 33.85 13.05 34.0 Q12.4 35.25 13.4 35.95 10.3 37.05 7.4 38.4 L7.25 37.7 8.2 37.65 8.45 37.5 Q10.25 35.7 10.9 32.95 L11.05 32.35 M6.05 84.5 Q6.05 83.9 6.3 83.35 7.25 81.85 8.55 80.45 9.75 79.05 9.7 77.1 L10.25 75.75 10.3 75.75 10.3 75.8 10.35 75.8 10.65 75.95 11.35 75.95 11.35 75.85 11.8 75.65 11.5 77.8 10.95 78.1 10.45 79.65 9.8 80.8 9.35 81.4 8.25 82.6 Q7.3 83.75 6.05 84.5 M9.5 69.3 L9.7 68.1 Q8.15 66.45 6.0 67.15 5.35 67.7 4.95 68.4 L5.75 65.15 6.65 64.85 Q8.2 64.3 9.0 62.85 L9.1 62.65 9.2 62.7 Q11.1 64.0 12.65 65.8 L12.95 66.25 12.75 65.85 Q12.45 67.4 12.4 69.05 L12.3 69.95 11.4 68.55 10.45 68.55 9.55 69.25 9.5 69.3 M6.8 61.4 L7.85 59.85 8.6 59.95 8.3 60.4 7.95 60.3 7.5 60.45 7.45 60.5 6.8 61.4 M8.6 76.45 L7.8 79.05 7.7 79.3 4.9 80.3 Q4.2 79.25 4.9 78.25 L7.55 76.75 8.55 76.45 8.6 76.45" fill="#e3b18b" fill-rule="evenodd" stroke="none"/>
    <path d="M6.7 21.25 L7.05 21.35 7.9 21.55 Q9.05 22.15 8.65 23.75 L6.35 24.0 6.05 21.95 6.0 21.65 Q6.25 21.35 6.7 21.25 M11.05 32.35 L10.9 32.95 Q10.25 35.7 8.45 37.5 L8.2 37.65 7.25 37.7 Q7.1 36.85 7.1 36.0 L7.5 32.0 11.05 32.35 M10.35 73.85 L10.1 72.7 Q9.45 71.0 9.5 69.3 L9.55 69.25 10.45 68.55 11.4 68.55 12.3 69.95 Q12.95 71.25 12.95 72.95 12.9 74.15 12.25 75.05 L11.8 75.65 11.35 75.85 Q12.75 74.25 11.75 72.2 L11.45 72.0 11.05 71.9 10.75 71.95 10.6 72.0 10.3 72.3 10.2 72.4 10.15 72.9 10.35 73.85 M4.95 68.4 Q3.85 70.2 4.05 72.4 L4.1 72.8 Q3.35 73.85 2.25 73.4 L1.75 72.7 Q2.5 69.7 2.65 66.5 L3.7 66.8 Q3.95 66.6 4.15 66.45 L4.5 66.15 Q4.75 65.75 4.6 65.35 L4.4 64.9 3.75 64.6 3.7 64.55 3.6 64.45 3.45 64.25 Q4.35 63.35 5.5 62.6 L6.8 61.4 7.45 60.5 7.5 60.45 7.95 60.3 8.3 60.4 Q9.9 61.05 9.1 62.65 L9.0 62.85 Q8.2 64.3 6.65 64.85 L5.75 65.15 4.95 68.4 M8.6 76.45 L8.55 76.45 7.55 76.75 Q8.0 76.5 8.6 76.4 L8.6 76.45" fill="#edcdb6" fill-rule="evenodd" stroke="none"/>
    <path d="M8.3 25.2 L11.75 24.65 11.8 24.65 Q12.05 26.15 11.05 27.4 L10.35 27.9 6.8 28.25 6.8 28.2 Q7.85 27.8 8.3 26.7 8.65 25.9 8.3 25.2" fill="#999999" fill-rule="evenodd" stroke="none"/>
    <path d="M11.8 24.65 L14.35 24.8 15.05 26.2 Q15.6 28.3 14.7 30.15 L14.0 29.85 14.6 30.1 14.05 30.2 11.15 30.0 10.55 29.95 9.35 29.65 9.1 29.6 7.95 29.35 5.15 29.0 4.95 28.85 Q4.35 28.6 4.4 27.9 L4.55 27.55 4.5 26.7 4.5 27.05 5.0 27.55 5.95 27.95 6.8 28.25 10.35 27.9 11.05 27.4 Q12.05 26.15 11.8 24.65" fill="#666666" fill-rule="evenodd" stroke="none"/>
    <path d="M4.5 26.7 L4.35 26.3 Q4.35 25.45 5.15 25.05 L5.65 24.75 6.55 24.6 Q7.6 24.45 8.15 25.2 L8.3 25.2 Q8.65 25.9 8.3 26.7 7.85 27.8 6.8 28.2 L5.95 27.95 5.0 27.55 4.5 27.05 4.5 26.7 M10.25 75.75 L10.3 75.35 10.35 73.85 10.15 72.9 10.2 72.4 10.3 72.3 10.6 72.0 10.75 71.95 11.05 71.9 11.45 72.0 11.75 72.2 Q12.75 74.25 11.35 75.85 L11.35 75.95 10.65 75.95 10.35 75.8 10.3 75.8 10.3 75.75 10.25 75.75 M2.65 66.5 L2.7 65.05 3.45 64.25 3.6 64.45 3.7 64.55 3.75 64.6 4.4 64.9 4.6 65.35 Q4.75 65.75 4.5 66.15 L4.15 66.45 Q3.95 66.6 3.7 66.8 L2.65 66.5" fill="#ffffff" fill-rule="evenodd" stroke="none"/>
    <path d="M6.8 28.2 L6.8 28.25 5.95 27.95 6.8 28.2" fill="#cccccc" fill-rule="evenodd" stroke="none"/>
  </g>
</svg>
