<?xml version="1.0" encoding="UTF-8" standalone="no"?>
<svg xmlns:xlink="http://www.w3.org/1999/xlink" height="102.6px" width="67.3px" xmlns="http://www.w3.org/2000/svg">
  <g transform="matrix(1.0, 0.0, 0.0, 1.0, 32.05, 33.15)">
    <path d="M1.3 -29.25 L0.65 -29.25 -1.2 -29.05 -1.75 -28.95 Q-2.2 -28.65 -2.8 -28.5 L-3.3 -28.25 Q-5.05 -27.05 -6.9 -26.5 L-7.8 -28.8 -7.4 -29.0 -7.0 -29.2 -6.65 -29.4 -6.45 -29.5 -1.95 -31.2 0.75 -31.75 Q5.0 -32.55 8.55 -30.2 L9.35 -29.55 13.45 -27.0 13.4 -25.65 11.4 -26.55 11.25 -26.45 Q10.05 -26.95 8.9 -27.8 L8.75 -27.85 7.45 -28.3 3.1 -29.2 1.3 -29.25 M-15.7 27.3 L-15.65 25.2 -15.7 24.4 -15.8 22.95 -15.8 22.7 -15.8 22.1 Q-14.8 21.35 -13.55 21.2 L-13.45 21.5 -13.0 21.9 -12.75 21.95 Q-13.8 22.65 -13.85 24.25 -13.85 26.4 -11.75 27.05 -9.8 27.65 -8.75 29.2 -7.85 30.5 -6.25 29.85 -4.6 29.25 -4.0 27.5 L-3.75 26.9 -3.45 26.9 -3.15 26.45 -2.95 26.0 -3.15 25.55 -3.45 25.05 -3.45 24.35 -2.5 24.5 -2.55 24.6 -2.6 24.9 Q-3.05 26.9 -0.95 26.8 L-0.55 26.4 Q0.4 24.7 -0.7 23.4 L-1.35 23.3 -1.15 22.85 0.8 23.0 0.9 23.15 1.15 23.35 2.0 23.4 Q2.05 23.3 2.1 23.35 3.0 22.9 4.05 23.35 L4.7 23.55 7.25 24.7 13.55 27.1 Q12.95 27.6 13.0 28.65 12.45 28.6 12.1 28.9 11.2 29.6 11.4 30.8 11.65 31.95 12.45 32.35 L2.5 31.35 Q-0.9 29.2 -5.25 29.5 -7.2 30.75 -9.45 29.85 -9.8 27.35 -11.95 27.6 L-15.7 27.3 M14.45 32.6 L13.65 32.5 14.4 32.3 14.45 32.25 14.45 32.6 M14.75 -23.0 Q14.95 -25.35 14.25 -27.8 14.05 -28.2 13.65 -28.1 13.3 -28.0 13.3 -28.4 14.3 -29.55 15.55 -29.4 L18.0 -27.05 Q19.25 -25.95 21.2 -26.3 22.15 -25.35 22.55 -24.15 L19.85 -18.2 Q18.8 -16.0 19.1 -13.45 L20.45 -2.7 19.65 -3.05 Q19.0 -2.85 18.6 -2.45 18.0 -1.85 17.75 -1.05 17.6 -0.55 17.6 0.15 L13.45 -1.05 Q13.95 -2.9 12.65 -4.3 12.2 -4.9 11.5 -5.0 L9.6 -5.35 9.7 -6.6 9.8 -6.8 10.05 -6.9 10.1 -7.0 10.9 -7.6 11.4 -8.1 Q12.05 -7.8 13.3 -8.4 L13.45 -9.15 Q13.5 -9.8 13.15 -10.3 L12.7 -10.5 12.15 -10.7 11.6 -10.6 11.4 -10.55 11.3 -10.45 11.2 -10.6 Q12.05 -11.6 12.05 -12.4 L13.3 -12.4 13.95 -12.85 Q14.7 -13.7 14.05 -14.4 L14.25 -14.45 14.55 -15.2 14.55 -15.65 14.4 -15.85 14.05 -16.1 13.35 -16.2 13.1 -16.0 12.9 -15.8 Q12.6 -15.55 12.7 -15.15 L12.85 -14.75 12.1 -14.35 Q11.55 -14.2 11.3 -13.75 L11.3 -13.5 10.2 -14.0 9.6 -13.9 9.35 -13.85 9.1 -13.6 2.35 -14.35 0.8 -12.1 Q1.2 -10.75 2.45 -10.35 L4.6 -9.55 4.05 -8.4 Q3.85 -7.8 4.15 -7.0 L4.55 -6.3 5.25 -3.65 1.85 -0.2 -0.35 -0.3 -4.4 -0.85 -10.7 0.0 -10.75 -0.55 Q-10.2 -0.5 -9.4 -1.6 L-9.45 -1.8 Q-9.75 -3.2 -11.2 -3.25 L-11.35 -3.2 -11.4 -3.15 -11.7 -3.0 -11.75 -2.05 Q-12.8 -3.1 -13.0 -4.5 -12.6 -3.75 -10.85 -3.75 L-10.15 -4.4 Q-9.1 -6.15 -10.8 -7.25 L-11.65 -7.25 -11.6 -7.3 -11.1 -8.0 Q-10.85 -8.9 -11.7 -9.35 L-12.45 -9.45 -12.35 -10.05 -12.1 -10.65 -11.25 -10.45 Q-10.45 -10.6 -10.0 -10.95 L-9.9 -10.85 -8.4 -11.05 -8.2 -10.95 -7.45 -10.95 -7.2 -11.0 Q-6.85 -11.3 -6.8 -11.7 L-6.8 -12.2 -7.05 -12.45 -7.35 -12.65 -7.6 -12.7 -7.7 -13.5 -8.15 -13.9 -8.45 -14.15 -9.4 -14.25 -10.3 -13.25 -10.6 -13.25 -10.7 -13.35 -10.9 -13.4 -10.5 -14.1 -10.55 -15.35 -10.85 -15.7 -10.3 -15.95 -10.2 -16.65 Q-10.15 -17.35 -10.5 -17.85 L-10.9 -18.05 -11.5 -18.3 -11.95 -18.15 -12.25 -18.1 -12.7 -17.65 -12.85 -17.5 -12.8 -18.75 Q-12.3 -20.55 -10.75 -21.55 L-7.9 -21.75 Q-7.45 -23.1 -8.6 -24.15 -10.3 -25.85 -12.4 -24.75 L-12.5 -25.35 -12.7 -25.65 -13.0 -25.9 -13.65 -25.95 Q-14.35 -26.95 -15.5 -26.7 L-15.8 -26.3 Q-17.2 -25.3 -16.55 -24.25 L-16.9 -24.25 Q-17.1 -24.15 -17.25 -24.15 L-17.5 -23.9 -17.65 -23.7 -17.75 -22.75 -17.65 -22.0 -17.35 -21.85 Q-15.65 -21.5 -15.4 -23.25 L-15.55 -23.65 -14.7 -23.65 -14.2 -23.95 -14.15 -23.8 -14.05 -23.7 -14.8 -23.0 -15.05 -22.95 -15.2 -22.75 -15.25 -22.55 -15.25 -22.5 Q-16.45 -20.75 -15.85 -18.4 L-15.55 -16.9 Q-15.1 -15.3 -13.65 -15.2 L-14.0 -15.2 -14.2 -11.5 Q-15.4 -10.55 -14.7 -9.1 L-14.5 -8.75 -14.45 -8.7 -14.75 -3.85 Q-17.65 -1.9 -18.05 1.1 L-18.1 2.65 Q-18.0 4.4 -17.4 6.05 -16.95 7.35 -16.1 8.55 L-17.4 8.2 -18.25 7.95 Q-19.85 5.4 -20.35 2.3 L-19.65 1.1 Q-15.8 -5.85 -15.4 -14.1 -15.9 -20.6 -21.05 -24.85 -20.85 -26.05 -19.75 -26.8 -17.05 -26.4 -14.9 -27.5 L-10.5 -29.7 -6.2 -22.1 Q-3.85 -18.3 0.55 -16.75 3.5 -15.8 7.0 -15.55 10.4 -15.35 12.7 -18.0 L13.15 -18.65 13.65 -20.1 Q14.2 -17.7 17.6 -18.0 L18.1 -18.8 18.5 -19.9 18.5 -19.85 18.6 -19.45 18.85 -19.2 19.85 -19.35 20.0 -19.55 20.45 -20.45 20.35 -20.65 Q20.3 -21.35 19.65 -21.5 L19.2 -21.35 19.0 -21.25 18.85 -20.95 18.5 -20.45 18.05 -21.85 19.2 -22.25 19.3 -22.55 19.55 -22.35 19.75 -22.1 20.7 -22.05 20.85 -22.1 21.25 -22.75 Q21.55 -23.65 20.8 -24.15 L19.9 -24.2 19.9 -24.15 19.3 -23.8 19.3 -23.75 19.1 -24.15 18.7 -24.3 18.05 -24.6 17.65 -24.45 17.4 -24.35 16.9 -23.95 16.75 -23.8 Q16.7 -23.25 16.8 -22.85 L15.6 -23.25 14.85 -23.15 14.75 -23.15 14.75 -23.0 M24.4 -1.2 L24.65 -0.8 24.65 0.5 24.45 0.35 Q24.75 -0.45 24.35 -0.95 L24.4 -1.2 M15.5 -14.35 L15.3 -14.25 15.1 -13.75 Q15.0 -13.4 15.35 -13.05 L16.45 -13.15 16.6 -13.65 16.5 -14.1 16.35 -14.25 15.85 -14.45 15.5 -14.35 M16.8 -15.75 L16.45 -15.65 16.25 -15.5 16.1 -15.0 Q15.95 -14.65 16.3 -14.3 L17.4 -14.4 17.55 -14.85 17.5 -15.35 17.3 -15.5 16.8 -15.75 M15.3 -12.5 L14.85 -12.45 14.65 -12.2 Q14.25 -11.65 14.2 -11.0 L14.4 -10.75 14.9 -10.8 15.2 -11.1 Q15.65 -11.65 15.65 -12.25 L15.4 -12.5 15.3 -12.5 M12.9 -6.55 L12.55 -7.1 11.8 -7.15 11.8 -7.1 11.6 -7.1 11.45 -7.0 11.1 -6.35 Q11.05 -6.0 11.15 -5.6 L11.35 -5.4 11.6 -5.2 12.55 -5.2 12.9 -5.75 13.15 -6.15 12.9 -6.55 M28.35 -8.05 L26.05 -3.8 25.75 -3.25 25.3 -3.6 25.25 -3.6 25.05 -3.95 Q24.35 -5.15 24.2 -6.75 L23.5 -10.75 23.6 -11.5 23.95 -11.0 24.5 -9.15 24.55 -9.0 Q25.05 -10.95 26.5 -12.45 L26.65 -12.65 27.45 -13.3 28.3 -13.55 Q29.0 -13.3 28.65 -12.5 L28.55 -12.2 27.5 -10.7 Q27.05 -8.9 25.95 -7.25 27.2 -7.2 28.15 -7.95 L28.35 -8.05 M-22.0 -6.15 L-21.85 -6.0 -21.5 -5.9 -21.5 -6.0 -21.2 -8.35 -21.5 -10.75 -21.85 -12.35 -22.2 -13.9 -22.15 -13.95 -22.0 -14.15 -21.75 -14.15 Q-20.65 -13.4 -20.25 -12.1 -18.85 -9.9 -18.95 -7.1 -17.9 -8.15 -17.4 -9.55 L-17.35 -9.65 -17.55 -9.05 -20.0 -0.95 -20.15 -0.45 -20.4 0.15 Q-20.9 -3.15 -22.0 -6.15 M-0.9 -14.0 L-0.9 -13.95 -1.25 -13.85 -1.45 -13.6 -1.45 -13.35 -1.45 -13.15 -1.4 -12.65 -1.1 -12.6 -0.9 -12.65 -0.45 -12.9 -0.35 -13.15 -0.3 -13.6 -0.45 -13.8 -0.9 -14.0 M-4.55 -15.95 L-4.55 -15.9 -4.7 -15.85 -4.9 -15.8 -5.3 -15.2 -5.2 -14.45 -5.05 -14.25 -4.7 -14.0 -3.75 -14.0 -3.4 -14.55 -3.25 -14.95 -3.4 -15.4 -3.75 -15.9 -4.55 -15.95 M-8.65 -16.6 L-9.2 -15.8 -9.5 -15.8 -9.6 -15.75 -9.8 -15.45 -9.85 -15.25 -9.8 -15.0 -9.6 -14.8 -8.9 -14.8 -8.4 -14.4 -7.15 -14.25 -7.25 -14.15 -7.35 -13.9 -7.35 -13.5 -7.3 -13.2 -6.45 -12.8 -6.0 -13.05 Q-5.65 -13.3 -5.6 -13.7 L-5.65 -13.9 Q-5.85 -14.55 -6.45 -14.55 L-6.5 -14.55 -6.75 -14.45 -6.35 -14.85 Q-4.65 -17.0 -7.55 -17.4 L-8.65 -16.6 M-13.05 -5.9 L-13.05 -6.2 -12.85 -7.5 -12.7 -7.3 -12.25 -7.25 -12.85 -6.5 -13.05 -5.9 M-10.2 -9.55 L-10.3 -9.35 -10.3 -9.15 -10.3 -8.6 -10.25 -8.4 -9.8 -8.0 -9.55 -7.65 -8.5 -7.65 -8.35 -7.95 Q-6.75 -9.95 -9.5 -10.3 L-10.2 -9.55 M-3.6 -12.8 L-4.15 -12.5 -4.1 -12.35 -3.9 -12.05 -3.15 -12.4 -3.25 -12.55 -3.45 -12.8 -3.6 -12.8 M-15.7 16.8 Q-17.15 15.25 -17.15 13.45 L-17.15 12.95 -15.65 13.45 -14.9 13.7 Q-11.95 14.65 -9.25 15.95 L-14.9 16.75 -15.7 16.8 M-0.25 28.05 L-0.7 27.55 -1.4 27.5 -1.4 27.55 -1.55 27.6 -1.8 27.65 -2.1 28.25 -2.05 28.95 -1.9 29.2 -1.55 29.4 -0.7 29.4 -0.25 28.9 -0.1 28.45 -0.25 28.05 M-4.6 46.75 L-0.05 46.5 1.05 46.1 Q6.25 44.55 10.65 47.35 12.3 48.35 13.5 49.9 12.95 50.7 12.7 51.65 L12.45 51.95 Q6.05 51.65 -0.4 52.1 -2.35 49.2 -4.6 46.75 M-7.55 39.15 L-7.5 38.25 -8.3 37.4 -7.55 37.65 -7.55 39.15 M-11.3 50.0 L-10.85 49.55 Q-10.6 49.95 -10.8 50.8 L-11.25 51.6 -11.9 52.35 Q-12.3 54.75 -13.4 57.15 -14.25 57.7 -15.0 57.15 L-15.0 56.8 -15.3 57.0 -15.95 57.05 -15.85 56.7 -15.8 56.55 -14.55 52.7 Q-16.85 51.2 -19.75 50.65 L-20.15 51.45 -20.8 50.5 -20.75 50.0 Q-20.4 49.55 -20.0 49.4 -16.75 50.75 -13.3 51.8 L-12.9 51.55 -12.7 51.4 -11.3 50.0 M18.7 12.85 Q17.8 15.45 18.85 18.6 L18.4 18.6 14.75 16.65 Q13.0 15.85 11.25 15.75 15.0 14.5 18.7 12.85 M7.4 16.95 L7.4 17.4 7.5 18.0 5.95 17.35 7.4 16.95 M11.35 19.9 Q14.55 21.05 17.45 22.95 L18.05 23.25 13.2 20.9 11.35 19.9 M19.8 23.9 L20.45 23.85 20.35 24.05 19.8 23.9 M0.8 23.65 L0.55 23.95 0.4 24.2 0.5 24.6 0.55 24.9 1.3 25.3 1.8 25.05 2.2 24.4 2.1 24.2 Q2.0 23.55 1.3 23.5 L1.3 23.55 0.8 23.65" fill="#333366" fill-rule="evenodd" stroke="none"/>
    <path d="M-6.9 -26.5 Q-5.05 -27.05 -3.3 -28.25 L-2.8 -28.5 Q-2.2 -28.65 -1.75 -28.95 L-1.2 -29.05 0.65 -29.25 1.3 -29.25 1.45 -29.15 Q2.3 -28.5 2.0 -27.5 1.45 -25.85 -0.4 -25.7 L-1.15 -25.55 -1.6 -25.85 -3.0 -26.55 -3.3 -26.25 -2.05 -25.4 -3.95 -24.9 -6.0 -24.7 -6.6 -25.9 -6.9 -26.5 M7.45 -28.3 L8.75 -27.85 8.9 -27.8 Q10.05 -26.95 11.25 -26.45 L11.4 -26.55 13.4 -25.65 13.0 -22.55 12.45 -23.0 11.7 -23.45 Q9.1 -24.4 7.45 -26.5 7.1 -27.05 7.25 -27.55 L7.45 -28.3 M10.6 -19.4 Q8.55 -18.1 7.3 -19.9 7.0 -20.25 7.05 -20.7 7.25 -22.4 8.9 -22.55 11.5 -22.55 11.15 -20.15 11.05 -19.65 10.6 -19.4 M-0.2 -18.6 Q-1.6 -19.25 -2.95 -20.15 L-4.4 -22.1 Q-3.95 -23.1 -2.8 -23.6 0.4 -24.05 1.55 -21.35 2.0 -20.1 1.0 -19.1 L-0.2 -18.6" fill="#edcdb6" fill-rule="evenodd" stroke="none"/>
    <path d="M-6.0 -24.7 L-3.95 -24.9 -2.05 -25.4 Q-1.0 -24.85 0.1 -24.8 L-1.15 -25.55 -0.4 -25.7 Q1.45 -25.85 2.0 -27.5 2.3 -28.5 1.45 -29.15 L1.3 -29.25 3.1 -29.2 7.45 -28.3 7.25 -27.55 Q7.1 -27.05 7.45 -26.5 9.1 -24.4 11.7 -23.45 L12.45 -23.0 13.0 -22.55 Q12.65 -20.5 11.9 -18.55 10.5 -16.7 8.55 -16.7 8.35 -19.2 5.75 -20.15 L5.45 -20.05 Q3.9 -18.85 4.4 -17.1 2.0 -17.6 -0.2 -18.6 L1.0 -19.1 Q2.0 -20.1 1.55 -21.35 0.4 -24.05 -2.8 -23.6 -3.95 -23.1 -4.4 -22.1 L-6.0 -24.7 M10.6 -19.4 Q11.05 -19.65 11.15 -20.15 11.5 -22.55 8.9 -22.55 7.25 -22.4 7.05 -20.7 7.0 -20.25 7.3 -19.9 8.55 -18.1 10.6 -19.4" fill="#e3b18b" fill-rule="evenodd" stroke="none"/>
    <path d="M-6.9 -26.5 L-6.6 -25.9 -6.0 -24.7 -4.4 -22.1 -2.95 -20.15 Q-1.6 -19.25 -0.2 -18.6 2.0 -17.6 4.4 -17.1 L6.25 -16.9 6.35 -17.15 7.3 -17.05 7.65 -17.1 7.7 -16.8 8.55 -16.7 Q10.5 -16.7 11.9 -18.55 12.65 -20.5 13.0 -22.55 L13.4 -25.65 13.45 -27.0 9.35 -29.55 8.55 -30.2 Q5.0 -32.55 0.75 -31.75 L-1.95 -31.2 -6.45 -29.5 -6.65 -29.4 -7.0 -29.2 -7.4 -29.0 -7.8 -28.8 -6.9 -26.5 M-2.05 -25.4 L-3.3 -26.25 -3.0 -26.55 -1.6 -25.85 -1.15 -25.55 0.1 -24.8 Q-1.0 -24.85 -2.05 -25.4 M-15.8 22.7 Q-15.85 22.45 -16.05 22.3 -16.35 21.95 -16.8 21.8 L-16.9 21.2 -17.0 20.35 -17.1 19.7 -17.35 18.4 -17.3 18.25 -17.2 17.35 -17.15 16.9 -17.15 16.85 -16.9 16.55 -17.3 14.65 -17.4 14.25 -17.55 13.85 -17.65 13.45 -18.4 11.95 -18.6 11.7 -18.9 11.3 -19.4 10.4 -19.3 8.75 -19.05 8.35 Q-18.75 7.8 -18.95 7.25 L-19.1 6.75 -19.95 5.6 Q-20.95 4.25 -21.15 2.6 L-21.3 2.25 -21.55 2.0 -21.5 1.8 -21.45 1.1 Q-21.4 -1.55 -22.45 -2.85 -23.7 -4.35 -32.05 -18.5 L-32.05 -19.5 Q-27.9 -22.5 -23.15 -24.1 -22.2 -26.1 -20.55 -27.45 -15.6 -27.85 -11.75 -30.6 L-9.0 -30.2 Q-7.65 -29.75 -6.55 -30.7 -2.8 -32.5 1.35 -33.15 L6.6 -32.45 Q8.0 -32.15 9.15 -31.3 9.85 -31.25 10.35 -30.5 L11.3 -29.55 11.4 -29.4 Q12.5 -29.1 13.65 -29.75 L16.4 -29.9 16.75 -29.85 17.1 -29.1 Q18.4 -27.1 20.45 -27.35 22.55 -27.6 24.0 -25.85 L24.2 -25.75 24.4 -25.0 Q24.5 -24.6 25.0 -24.3 L26.25 -23.95 26.9 -23.85 Q30.0 -21.45 32.45 -18.05 L35.25 -16.75 Q30.0 -9.0 25.6 -1.0 26.25 0.85 25.35 2.45 24.4 4.15 24.8 5.8 24.75 7.95 23.25 9.75 21.8 11.55 23.3 13.8 23.15 16.55 22.45 19.1 21.75 21.65 21.4 24.2 L22.35 25.35 21.95 28.3 21.8 29.35 21.05 29.7 Q20.9 29.75 20.9 29.95 20.75 31.3 20.75 32.6 L20.8 32.85 Q21.2 33.65 22.0 33.9 L22.1 34.0 22.4 35.45 22.45 35.65 22.35 36.1 Q22.05 37.15 23.15 37.7 24.15 37.5 24.8 38.2 25.4 38.9 26.1 39.3 27.15 41.55 26.55 43.95 L25.25 48.55 Q24.75 49.95 23.65 51.35 22.55 52.65 23.85 54.3 25.9 58.8 27.1 63.65 25.2 67.2 21.2 67.6 18.8 67.4 18.35 64.85 L17.35 62.35 Q15.4 57.8 12.7 53.45 L-0.25 53.1 -4.05 59.8 Q-4.9 61.25 -6.15 62.05 -7.95 63.15 -10.6 62.9 -15.85 62.1 -20.2 59.0 -19.6 57.05 -20.75 55.8 -21.9 54.55 -21.7 52.95 -20.55 51.6 -21.25 50.4 -21.95 49.2 -21.35 47.6 -21.05 45.65 -19.3 44.45 -17.65 43.25 -17.8 41.1 -16.45 39.6 -16.15 37.7 -17.7 36.85 -17.95 35.05 -18.2 33.2 -17.7 31.75 L-17.0 29.7 -16.45 28.95 -16.2 28.75 -15.9 28.4 -15.75 28.2 -15.65 27.6 -15.7 27.3 -11.95 27.6 Q-9.8 27.35 -9.45 29.85 -7.2 30.75 -5.25 29.5 -0.9 29.2 2.5 31.35 L12.45 32.35 Q11.65 31.95 11.4 30.8 11.2 29.6 12.1 28.9 12.45 28.6 13.0 28.65 L13.25 28.65 13.25 28.6 Q14.45 28.8 14.85 29.55 L15.5 28.8 Q15.8 28.5 16.25 28.3 L17.0 28.1 Q19.45 29.1 18.0 31.4 L17.0 32.15 Q15.35 32.7 14.85 31.5 L14.75 31.65 14.45 32.25 14.4 32.3 13.65 32.5 14.45 32.6 19.6 33.1 20.25 32.65 Q20.8 31.2 20.25 29.7 15.35 25.95 9.8 23.6 L-1.3 19.15 -9.2 20.55 Q-10.7 21.15 -12.55 21.15 L-12.6 21.15 -13.55 21.2 Q-14.8 21.35 -15.8 22.1 L-15.8 22.7 M5.75 68.35 Q4.05 69.85 1.75 69.3 1.45 68.6 1.55 67.85 L1.65 66.95 Q1.9 65.55 1.35 64.4 0.4 63.05 0.25 61.35 1.4 61.75 2.35 63.3 3.15 64.6 2.5 66.4 1.9 68.15 4.6 67.5 6.35 65.45 7.35 63.2 8.3 60.85 9.8 58.75 L10.2 58.75 Q9.05 63.4 6.45 67.5 L5.75 68.35 M22.55 -24.15 Q22.15 -25.35 21.2 -26.3 19.25 -25.95 18.0 -27.05 L15.55 -29.4 Q14.3 -29.55 13.3 -28.4 13.3 -28.0 13.65 -28.1 14.05 -28.2 14.25 -27.8 14.95 -25.35 14.75 -23.0 L13.65 -20.1 13.15 -18.65 12.7 -18.0 Q10.4 -15.35 7.0 -15.55 3.5 -15.8 0.55 -16.75 -3.85 -18.3 -6.2 -22.1 L-10.5 -29.7 -14.9 -27.5 Q-17.05 -26.4 -19.75 -26.8 -20.85 -26.05 -21.05 -24.85 -15.9 -20.6 -15.4 -14.1 -15.8 -5.85 -19.65 1.1 L-20.35 2.3 Q-19.85 5.4 -18.25 7.95 L-17.4 8.2 -16.1 8.55 -12.9 9.5 -11.65 9.95 -9.7 10.65 -9.3 10.8 -9.15 10.9 -0.35 13.8 13.3 9.25 15.5 8.4 18.35 7.4 Q15.75 7.8 16.0 5.2 16.15 4.05 17.35 3.8 L17.85 3.75 Q18.9 4.05 19.3 4.6 19.3 3.75 20.25 2.95 18.5 2.55 19.25 0.55 19.5 0.0 19.95 -0.2 20.85 -0.4 21.5 -0.2 L21.75 -0.75 22.45 -1.55 23.2 -1.7 24.35 -0.95 Q24.75 -0.45 24.45 0.35 L24.0 1.2 23.2 1.85 22.75 1.8 22.25 2.35 21.8 2.6 Q22.85 3.2 22.8 4.2 L24.5 1.35 24.55 1.05 24.65 0.5 24.65 -0.8 24.4 -1.2 Q22.25 -5.1 22.3 -9.6 22.35 -15.35 22.65 -21.05 L22.55 -24.15 M28.35 -8.05 Q30.65 -12.1 33.3 -15.95 L33.3 -16.45 Q30.95 -17.75 29.2 -19.9 27.45 -22.15 25.0 -23.25 L25.0 -20.45 24.75 -18.35 24.45 -16.95 Q23.75 -14.35 23.6 -11.5 L23.5 -10.75 24.2 -6.75 Q24.35 -5.15 25.05 -3.95 L25.25 -3.6 25.3 -3.6 25.6 -3.1 25.75 -3.25 26.05 -3.8 28.35 -8.05 M-29.85 -18.05 L-29.75 -18.0 Q-25.3 -9.45 -22.0 -6.15 -20.9 -3.15 -20.4 0.15 L-20.15 -0.45 -20.0 -0.95 -17.55 -9.05 -17.35 -9.65 -17.4 -9.55 Q-16.9 -11.9 -16.55 -14.35 -17.2 -17.8 -18.95 -20.85 L-21.7 -23.25 Q-26.8 -21.95 -31.05 -19.2 L-29.85 -18.05 M-7.4 5.3 Q-5.7 6.25 -6.7 8.3 L-7.25 8.9 Q-9.0 9.0 -9.25 7.85 L-9.25 7.9 -9.4 8.1 -10.05 8.1 Q-10.0 8.55 -10.25 9.2 L-10.3 9.35 Q-12.7 10.35 -12.55 7.85 L-12.55 7.65 -12.6 7.65 Q-13.95 6.7 -12.75 5.6 L-12.65 5.55 -13.3 4.7 Q-13.75 3.95 -13.45 3.05 -13.0 1.85 -11.85 1.9 L-10.95 2.15 -10.8 2.25 -9.9 2.55 -9.0 2.3 Q-7.0 3.2 -7.45 4.6 L-7.4 5.3 M-10.6 5.15 L-11.3 5.65 Q-10.65 6.15 -10.9 6.75 L-10.75 6.9 -10.75 6.8 -10.65 6.7 -10.4 6.4 Q-10.8 5.9 -10.55 5.15 L-10.6 5.15 M-14.35 5.45 Q-16.05 6.0 -16.6 4.6 -17.15 3.2 -15.75 2.5 -13.35 2.45 -13.65 4.55 -13.8 5.15 -14.35 5.45 M-10.05 11.7 Q-13.7 10.45 -17.4 9.45 L-18.15 9.25 Q-18.8 10.2 -18.15 11.15 L-10.55 13.95 -6.6 15.45 -5.6 16.0 -6.7 16.25 -8.45 16.7 -14.9 17.8 -16.2 18.1 Q-16.6 18.95 -16.45 19.7 L-16.2 20.4 -15.75 20.35 -5.25 18.7 -3.75 18.35 -2.15 18.0 -0.7 18.3 0.15 18.5 1.0 18.8 0.9 18.85 11.8 23.25 13.75 24.3 Q17.35 26.15 20.85 28.15 21.4 26.85 20.7 26.25 L19.45 24.9 17.4 23.85 17.35 23.75 17.2 23.7 17.1 23.7 12.3 21.1 Q9.5 20.05 6.6 18.65 L5.45 18.15 Q4.3 17.7 3.3 17.05 L2.75 16.75 7.85 15.15 10.25 14.65 Q12.6 14.0 14.6 12.8 L14.65 12.8 16.35 12.55 16.65 12.4 17.0 12.1 17.4 11.95 Q20.05 11.0 22.35 9.2 23.85 7.8 23.5 5.9 21.4 6.7 19.45 7.65 L18.05 8.25 15.05 9.65 15.05 9.7 14.0 10.2 13.8 10.3 Q11.15 11.0 8.75 12.1 L8.25 12.3 7.3 12.5 7.25 12.5 7.25 12.45 -1.2 14.85 -3.4 14.25 Q-6.65 12.9 -10.05 11.7 M-15.7 16.8 L-14.9 16.75 -9.25 15.95 Q-11.95 14.65 -14.9 13.7 L-15.65 13.45 -17.15 12.95 -17.15 13.45 Q-17.15 15.25 -15.7 16.8 M-4.4 30.55 L-4.7 30.4 -5.5 30.6 Q-6.0 30.75 -6.45 31.05 L-6.75 31.35 Q-7.85 30.75 -9.25 30.8 L-9.6 30.4 Q-9.85 29.9 -10.6 29.9 L-10.65 29.9 -10.85 30.0 Q-11.7 29.45 -12.85 29.3 L-12.9 29.3 -13.15 29.25 -13.2 29.25 -14.45 29.3 -15.05 29.5 -15.1 29.5 -15.2 29.55 -15.25 29.6 -15.8 30.0 -16.3 31.45 -16.5 31.9 -16.5 31.95 -16.8 32.9 -17.0 34.15 -16.55 35.9 -14.4 37.1 -12.1 37.2 -11.8 36.45 -10.85 36.55 -10.55 36.0 -10.5 36.0 -10.45 36.0 -7.8 36.3 -7.6 36.45 -7.05 36.65 -6.9 36.7 -6.5 36.85 -6.15 36.9 -6.0 36.95 -6.1 37.65 -6.2 39.8 Q-3.2 40.7 -0.2 40.8 L0.3 38.2 0.35 38.25 0.4 38.3 1.25 38.4 1.4 38.35 1.45 38.35 1.55 38.65 3.1 39.75 3.2 39.8 2.35 39.65 8.55 41.7 Q11.9 42.75 15.1 44.35 17.6 45.6 20.3 46.0 L20.35 46.05 20.7 46.65 20.7 47.1 20.95 47.75 20.9 47.65 20.95 47.8 Q21.5 49.45 22.55 50.65 24.25 47.25 24.8 43.1 L25.15 41.9 Q25.1 41.7 25.2 41.5 L25.15 40.9 25.15 41.3 Q25.15 40.55 24.8 39.95 23.7 38.95 22.25 38.8 L22.15 38.75 21.2 38.1 21.1 38.05 21.3 37.3 21.4 37.05 Q22.1 34.95 19.9 34.1 11.25 33.8 3.0 32.35 L2.85 32.45 Q2.65 31.85 1.8 31.9 L1.65 31.95 1.6 31.95 1.65 31.85 Q0.3 31.0 -1.15 30.7 L-1.4 30.65 -1.5 30.6 -2.7 30.5 -2.85 30.5 -2.95 30.5 -3.55 30.5 -3.7 30.5 -4.2 30.5 -4.25 30.5 -4.4 30.55 M-8.3 37.4 L-9.6 37.25 Q-10.7 37.2 -11.1 38.4 -13.15 39.1 -15.05 38.0 -15.45 38.3 -15.4 38.8 -9.25 41.8 -4.6 46.75 -2.35 49.2 -0.4 52.1 6.05 51.65 12.45 51.95 L12.7 51.65 Q12.95 50.7 13.5 49.9 L14.2 49.1 14.25 49.05 14.3 48.95 14.45 48.8 Q15.65 47.55 15.85 46.1 9.15 43.5 2.35 41.1 1.1 40.5 0.25 41.9 L-6.75 40.9 Q-7.85 40.4 -7.65 39.45 L-7.6 39.35 -7.6 39.25 -7.55 39.15 -7.55 37.65 -8.3 37.4 M-11.3 50.0 L-10.5 49.05 -14.6 46.8 Q-16.6 45.55 -19.05 45.45 -20.7 47.05 -20.85 49.05 L-20.0 49.4 Q-20.4 49.55 -20.75 50.0 L-20.8 50.5 -20.15 51.45 -20.65 52.65 Q-20.95 53.75 -20.05 54.7 -18.75 57.05 -16.0 57.1 L-15.85 56.7 -15.95 57.05 -15.3 57.0 -15.0 56.8 -15.0 57.15 Q-14.25 57.7 -13.4 57.15 -12.3 54.75 -11.9 52.35 L-11.25 51.6 -10.8 50.8 Q-10.6 49.95 -10.85 49.55 L-11.3 50.0 M-16.45 45.05 Q-14.1 45.8 -12.25 47.0 -10.2 47.6 -9.2 49.4 -10.85 52.05 -11.75 55.1 -12.1 56.9 -12.9 58.5 L-13.7 58.35 -16.35 58.3 Q-17.65 57.5 -19.05 57.55 -19.35 58.1 -18.95 58.7 -13.75 61.1 -7.8 61.95 -4.1 57.9 -1.5 53.1 L-1.65 52.35 Q-4.75 48.65 -8.2 45.3 -11.7 41.95 -15.8 40.0 L-16.75 41.3 Q-18.8 44.3 -16.45 45.05 M20.45 23.85 L21.65 17.8 Q22.25 14.65 21.35 11.55 L19.7 12.35 18.7 12.8 18.7 12.85 Q15.0 14.5 11.25 15.75 L10.75 15.95 7.4 16.95 5.95 17.35 7.5 18.0 7.5 18.05 9.0 18.7 11.35 19.9 13.2 20.9 18.05 23.25 18.35 23.3 19.0 23.6 19.75 23.9 19.8 23.9 20.35 24.05 20.45 23.85 M20.35 6.35 L19.55 5.45 19.05 6.7 18.6 7.3 20.8 6.4 20.35 6.35 M19.55 47.55 L17.05 46.85 Q14.75 49.5 13.5 52.55 16.1 55.65 17.5 59.2 L20.2 66.4 Q23.25 65.75 25.55 63.6 23.25 55.25 19.55 47.55 M13.25 61.15 Q13.15 62.3 12.05 63.25 L9.8 64.6 Q9.85 63.4 11.05 62.6 L13.25 61.15" fill="#000000" fill-rule="evenodd" stroke="none"/>
    <path d="M16.8 -22.85 Q16.7 -23.25 16.75 -23.8 L16.9 -23.95 17.4 -24.35 17.65 -24.45 18.05 -24.6 18.7 -24.3 19.1 -24.15 19.3 -23.75 19.3 -23.8 19.9 -24.15 19.9 -24.2 20.8 -24.15 Q21.55 -23.65 21.25 -22.75 L20.85 -22.1 20.7 -22.05 19.75 -22.1 19.55 -22.35 19.3 -22.55 19.2 -22.25 18.05 -21.85 Q16.95 -21.75 16.8 -22.85 M18.5 -20.45 L18.85 -20.95 19.0 -21.25 19.2 -21.35 19.65 -21.5 Q20.3 -21.35 20.35 -20.65 L20.45 -20.45 20.0 -19.55 19.85 -19.35 18.85 -19.2 18.6 -19.45 18.5 -19.85 18.5 -19.9 18.45 -20.3 18.5 -20.45 M-14.45 -8.7 L-14.5 -8.75 -14.7 -9.1 Q-15.4 -10.55 -14.2 -11.5 L-14.2 -11.55 -13.7 -11.8 Q-12.9 -11.85 -12.45 -11.3 L-12.35 -12.05 -12.15 -12.25 -12.15 -12.65 -11.8 -13.3 -11.65 -13.35 -11.5 -13.45 -11.5 -13.5 -10.9 -13.4 -10.7 -13.35 -10.6 -13.25 -10.3 -13.25 -9.4 -14.25 -8.45 -14.15 -8.15 -13.9 -7.7 -13.5 -7.6 -12.7 -7.35 -12.65 -7.05 -12.45 -6.8 -12.2 -6.8 -11.7 Q-6.85 -11.3 -7.2 -11.0 L-7.45 -10.95 -8.2 -10.95 -8.4 -11.05 -9.9 -10.85 -10.0 -10.95 Q-10.45 -10.6 -11.25 -10.45 L-12.1 -10.65 -12.35 -10.05 -12.6 -9.35 -12.5 -9.4 -12.5 -9.45 -12.45 -9.45 -11.7 -9.35 Q-10.85 -8.9 -11.1 -8.0 L-11.6 -7.3 -11.65 -7.25 -10.8 -7.25 Q-9.1 -6.15 -10.15 -4.4 L-10.85 -3.75 Q-12.6 -3.75 -13.0 -4.5 L-13.05 -5.9 -12.85 -6.5 -12.25 -7.25 -12.7 -7.3 -12.85 -7.5 -12.9 -7.5 -13.15 -7.8 -13.2 -8.05 -13.2 -8.55 -14.25 -8.55 -14.45 -8.7 M-15.25 -22.5 L-15.25 -22.55 -15.2 -22.75 -15.05 -22.95 -14.8 -23.0 -14.65 -23.05 -14.65 -23.1 -14.25 -22.9 -14.1 -22.75 -14.15 -22.3 -14.25 -22.0 -14.65 -21.85 Q-15.2 -21.95 -15.25 -22.5 M-14.05 -23.7 L-14.15 -23.8 -14.2 -23.95 -14.7 -23.65 -15.55 -23.65 -15.4 -23.25 Q-15.65 -21.5 -17.35 -21.85 L-17.65 -22.0 -17.75 -22.75 -17.65 -23.7 -17.5 -23.9 -17.25 -24.15 Q-17.1 -24.15 -16.9 -24.25 L-16.55 -24.25 Q-17.2 -25.3 -15.8 -26.3 L-15.5 -26.7 Q-14.35 -26.95 -13.65 -25.95 L-13.0 -25.9 -12.7 -25.65 -12.5 -25.35 -12.4 -24.75 -12.5 -24.0 -12.7 -23.8 -13.0 -23.55 -13.9 -23.55 -14.05 -23.7 M-12.85 -17.5 L-12.7 -17.65 -12.25 -18.1 -11.95 -18.15 -11.5 -18.3 -10.9 -18.05 -10.5 -17.85 Q-10.15 -17.35 -10.2 -16.65 L-10.3 -15.95 -10.85 -15.7 Q-12.95 -14.95 -12.85 -17.45 L-12.85 -17.5 M-11.75 -2.05 L-11.7 -3.0 -11.4 -3.15 -11.35 -3.2 -11.2 -3.25 Q-9.75 -3.2 -9.45 -1.8 L-9.4 -1.6 Q-10.2 -0.5 -10.75 -0.55 -11.35 -0.65 -11.7 -1.85 L-11.75 -2.05 M9.1 -13.6 L9.35 -13.85 9.6 -13.9 10.2 -14.0 11.3 -13.5 11.3 -13.75 Q11.55 -14.2 12.1 -14.35 L12.85 -14.75 12.7 -15.15 Q12.6 -15.55 12.9 -15.8 L13.1 -16.0 13.35 -16.2 14.05 -16.1 14.4 -15.85 14.55 -15.65 14.55 -15.2 14.25 -14.45 14.05 -14.4 Q14.7 -13.7 13.95 -12.85 L13.3 -12.4 12.05 -12.4 Q12.05 -11.6 11.2 -10.6 10.85 -10.2 10.25 -10.35 7.4 -10.95 8.95 -13.35 L9.1 -13.6 M11.3 -10.45 L11.4 -10.55 11.6 -10.6 12.15 -10.7 12.7 -10.5 13.15 -10.3 Q13.5 -9.8 13.45 -9.15 L13.3 -8.4 Q12.05 -7.8 11.4 -8.1 10.65 -8.45 10.75 -9.9 L10.9 -10.15 11.3 -10.45 M10.1 -7.0 L10.05 -6.9 9.8 -6.8 Q7.35 -5.6 7.55 -8.35 L7.7 -8.55 8.15 -8.95 8.45 -9.05 8.9 -9.15 9.5 -8.9 9.95 -8.7 Q10.25 -8.2 10.2 -7.55 L10.1 -7.0 M15.5 -14.35 L15.85 -14.45 16.35 -14.25 16.5 -14.1 16.6 -13.65 16.45 -13.15 15.35 -13.05 Q15.0 -13.4 15.1 -13.75 L15.3 -14.25 15.5 -14.35 M16.8 -15.75 L17.3 -15.5 17.5 -15.35 17.55 -14.85 17.4 -14.4 16.3 -14.3 Q15.95 -14.65 16.1 -15.0 L16.25 -15.5 16.45 -15.65 16.8 -15.75 M15.3 -12.5 L15.4 -12.5 15.65 -12.25 Q15.65 -11.65 15.2 -11.1 L14.9 -10.8 14.4 -10.75 14.2 -11.0 Q14.25 -11.65 14.65 -12.2 L14.85 -12.45 15.3 -12.5 M12.9 -6.55 L13.15 -6.15 12.9 -5.75 12.55 -5.2 11.6 -5.2 11.35 -5.4 11.15 -5.6 Q11.05 -6.0 11.1 -6.35 L11.45 -7.0 11.6 -7.1 11.8 -7.1 11.8 -7.15 12.55 -7.1 12.9 -6.55 M-8.65 -16.6 L-7.55 -17.4 Q-4.65 -17.0 -6.35 -14.85 L-6.75 -14.45 -6.5 -14.55 -6.45 -14.55 Q-5.85 -14.55 -5.65 -13.9 L-5.6 -13.7 Q-5.65 -13.3 -6.0 -13.05 L-6.45 -12.8 -7.3 -13.2 -7.35 -13.5 -7.35 -13.9 -7.25 -14.15 -7.15 -14.25 -8.4 -14.4 -8.9 -14.8 -9.6 -14.8 -9.8 -15.0 -9.85 -15.25 -9.8 -15.45 -9.6 -15.75 -9.5 -15.8 -9.2 -15.8 -8.65 -16.6 M-4.55 -15.95 L-3.75 -15.9 -3.4 -15.4 -3.25 -14.95 -3.4 -14.55 -3.75 -14.0 -4.7 -14.0 -5.05 -14.25 -5.2 -14.45 -5.3 -15.2 -4.9 -15.8 -4.7 -15.85 -4.55 -15.9 -4.55 -15.95 M-0.9 -14.0 L-0.45 -13.8 -0.3 -13.6 -0.35 -13.15 -0.45 -12.9 -0.9 -12.65 -1.1 -12.6 -1.4 -12.65 -1.45 -13.15 -1.45 -13.35 -1.45 -13.6 -1.25 -13.85 -0.9 -13.95 -0.9 -14.0 M-13.65 -15.2 L-13.45 -15.4 -13.05 -15.5 -13.05 -15.55 -12.75 -15.35 -12.5 -15.2 -12.55 -14.75 -12.7 -14.45 -13.05 -14.3 Q-13.75 -14.45 -13.7 -14.95 L-13.65 -15.15 -13.65 -15.2 M-3.6 -12.8 L-3.45 -12.8 -3.25 -12.55 -3.15 -12.4 -3.9 -12.05 -4.1 -12.35 -4.15 -12.5 -3.6 -12.8 M-10.2 -9.55 L-9.5 -10.3 Q-6.75 -9.95 -8.35 -7.95 L-8.5 -7.65 -9.55 -7.65 -9.8 -8.0 -10.25 -8.4 -10.3 -8.6 -10.3 -9.15 -10.3 -9.35 -10.2 -9.55 M-0.3 3.7 Q0.3 3.75 0.4 4.35 L0.55 4.55 0.5 4.65 1.05 4.7 1.0 4.65 1.0 4.15 1.2 3.5 Q1.4 3.05 1.85 2.85 L2.75 2.95 4.15 3.05 4.45 3.35 4.6 3.55 4.7 4.0 4.6 4.2 4.3 4.7 4.25 4.7 4.4 4.8 4.45 4.7 4.6 4.55 5.05 4.35 5.05 4.25 5.65 4.35 5.75 3.7 Q5.95 3.2 6.45 3.1 L6.9 3.0 Q7.7 3.1 8.1 3.9 L8.15 4.1 7.85 5.0 7.4 5.45 6.25 5.3 6.05 6.05 5.85 6.4 Q6.45 5.8 7.25 5.65 L7.3 5.7 8.2 4.75 8.7 4.45 9.6 4.5 Q10.35 5.0 10.1 5.85 L10.1 5.9 10.5 5.6 10.7 5.55 11.4 5.6 11.7 5.85 11.85 6.05 Q12.05 7.2 11.0 7.95 L10.45 8.35 10.3 8.4 9.5 8.35 9.2 8.1 9.05 7.85 9.05 7.8 8.9 7.85 7.95 7.85 7.65 7.65 7.4 7.35 6.3 8.15 5.55 7.7 5.5 7.25 5.5 6.85 4.5 6.8 4.3 7.1 Q3.45 8.0 2.8 7.75 L2.7 7.9 2.2 8.5 Q-0.45 9.2 -0.25 6.85 L-0.15 6.75 -0.2 6.65 -0.55 6.2 -0.55 6.0 -0.55 5.65 -1.55 5.8 Q-1.85 6.55 -2.8 6.95 L-3.05 7.1 -3.15 7.15 -4.0 7.1 -4.25 6.8 -4.4 6.6 -4.45 6.35 Q-4.6 6.05 -4.4 5.65 -3.9 4.95 -3.05 4.55 L-2.9 4.5 -2.5 4.5 Q-1.8 3.45 -0.3 3.7 M-5.65 7.4 L-5.45 7.25 -5.1 7.15 Q-4.15 7.35 -4.2 8.25 L-4.2 8.5 -4.3 8.75 -4.65 9.15 Q-5.35 9.4 -5.8 8.8 -6.0 8.35 -5.8 7.9 L-5.65 7.4 M-2.0 7.25 L-1.55 7.15 -0.95 7.65 -0.85 7.8 Q-0.8 8.5 -1.2 9.2 L-1.4 9.45 -2.45 9.5 -2.8 9.3 -2.9 8.8 -2.95 8.35 -2.4 7.65 -2.2 7.4 -2.0 7.25 M-3.75 26.9 L-4.4 26.9 -4.7 26.65 -4.75 26.55 -5.0 26.75 -6.1 26.75 -6.35 26.5 -6.7 26.05 Q-6.7 25.05 -6.25 24.25 L-5.65 23.6 -4.75 23.65 Q-4.25 24.25 -4.2 24.95 L-3.45 25.05 -3.15 25.55 -2.95 26.0 -3.15 26.45 -3.45 26.9 -3.75 26.9 M-3.45 24.35 L-4.35 23.65 Q-4.65 23.35 -4.5 22.9 -3.6 21.85 -2.35 21.55 -1.55 21.65 -1.2 22.4 L-1.1 22.65 -1.15 22.85 -1.35 23.3 -0.7 23.4 Q0.4 24.7 -0.55 26.4 L-0.95 26.8 Q-3.05 26.9 -2.6 24.9 L-2.55 24.6 -2.5 24.5 -3.45 24.35 M-0.25 28.05 L-0.1 28.45 -0.25 28.9 -0.7 29.4 -1.55 29.4 -1.9 29.2 -2.05 28.95 -2.1 28.25 -1.8 27.65 -1.55 27.6 -1.4 27.55 -1.4 27.5 -0.7 27.55 -0.25 28.05 M12.95 5.2 L13.15 5.15 13.5 5.05 13.95 5.25 14.2 5.45 Q14.4 6.25 14.0 7.15 L13.9 7.55 13.75 7.8 13.65 7.95 Q13.6 7.9 13.5 8.0 13.35 8.0 13.25 8.15 L12.5 7.7 Q12.3 6.65 12.7 5.6 L12.95 5.2 M1.9 5.5 L1.9 5.45 2.1 5.45 2.2 5.3 1.7 5.35 1.8 5.55 1.9 5.5 M0.8 23.65 L1.3 23.55 1.3 23.5 Q2.0 23.55 2.1 24.2 L2.2 24.4 1.8 25.05 1.3 25.3 0.55 24.9 0.5 24.6 0.4 24.2 0.55 23.95 0.8 23.65" fill="#006699" fill-rule="evenodd" stroke="none"/>
    <path d="M-13.55 21.2 L-12.6 21.15 -12.55 21.15 Q-10.7 21.15 -9.2 20.55 L-1.3 19.15 9.8 23.6 Q15.35 25.95 20.25 29.7 20.8 31.2 20.25 32.65 L19.6 33.1 14.45 32.6 14.45 32.25 14.75 31.65 14.85 31.5 Q15.35 32.7 17.0 32.15 L18.0 31.4 Q19.45 29.1 17.0 28.1 L16.25 28.3 Q15.8 28.5 15.5 28.8 L14.85 29.55 Q14.45 28.8 13.25 28.6 L13.25 28.65 13.0 28.65 Q12.95 27.6 13.55 27.1 L7.25 24.7 4.7 23.55 4.05 23.35 Q3.0 22.9 2.1 23.35 2.05 23.3 2.0 23.4 L1.15 23.35 0.9 23.15 0.8 23.0 -1.15 22.85 -1.1 22.65 -1.2 22.4 Q-1.55 21.65 -2.35 21.55 -3.6 21.85 -4.5 22.9 -4.65 23.35 -4.35 23.65 L-3.45 24.35 -3.45 25.05 -4.2 24.95 Q-4.25 24.25 -4.75 23.65 L-5.65 23.6 -6.25 24.25 Q-6.7 25.05 -6.7 26.05 L-6.35 26.5 -6.1 26.75 -5.0 26.75 -4.75 26.55 -4.7 26.65 -4.4 26.9 -3.75 26.9 -4.0 27.5 Q-4.6 29.25 -6.25 29.85 -7.85 30.5 -8.75 29.2 -9.8 27.65 -11.75 27.05 -13.85 26.4 -13.85 24.25 -13.8 22.65 -12.75 21.95 L-13.0 21.9 -13.45 21.5 -13.55 21.2 M14.75 -23.0 L14.75 -23.15 14.85 -23.15 15.6 -23.25 16.8 -22.85 Q16.95 -21.75 18.05 -21.85 L18.5 -20.45 18.45 -20.3 18.5 -19.9 18.1 -18.8 17.6 -18.0 Q14.2 -17.7 13.65 -20.1 L14.75 -23.0 M-16.1 8.55 Q-16.95 7.35 -17.4 6.05 -18.0 4.4 -18.1 2.65 L-18.05 1.1 Q-17.65 -1.9 -14.75 -3.85 L-14.45 -8.7 -14.25 -8.55 -13.2 -8.55 -13.2 -8.05 -13.15 -7.8 -12.9 -7.5 -12.85 -7.5 -13.05 -6.2 -13.05 -5.9 -13.0 -4.5 Q-12.8 -3.1 -11.75 -2.05 L-11.7 -1.85 Q-11.35 -0.65 -10.75 -0.55 L-10.7 0.0 -4.4 -0.85 -0.35 -0.3 1.85 -0.2 5.25 -3.65 4.55 -6.3 4.15 -7.0 Q3.85 -7.8 4.05 -8.4 L4.6 -9.55 2.45 -10.35 Q1.2 -10.75 0.8 -12.1 L2.35 -14.35 9.1 -13.6 8.95 -13.35 Q7.4 -10.95 10.25 -10.35 10.85 -10.2 11.2 -10.6 L11.3 -10.45 10.9 -10.15 10.75 -9.9 Q10.65 -8.45 11.4 -8.1 L10.9 -7.6 10.1 -7.0 10.2 -7.55 Q10.25 -8.2 9.95 -8.7 L9.5 -8.9 8.9 -9.15 8.45 -9.05 8.15 -8.95 7.7 -8.55 7.55 -8.35 Q7.35 -5.6 9.8 -6.8 L9.7 -6.6 9.6 -5.35 11.5 -5.0 Q12.2 -4.9 12.65 -4.3 13.95 -2.9 13.45 -1.05 L17.6 0.15 Q17.6 -0.55 17.75 -1.05 18.0 -1.85 18.6 -2.45 19.0 -2.85 19.65 -3.05 L20.45 -2.7 19.1 -13.45 Q18.8 -16.0 19.85 -18.2 L22.55 -24.15 22.65 -21.05 Q22.35 -15.35 22.3 -9.6 22.25 -5.1 24.4 -1.2 L24.35 -0.95 23.2 -1.7 22.45 -1.55 21.75 -0.75 21.5 -0.2 Q20.85 -0.4 19.95 -0.2 19.5 0.0 19.25 0.55 18.5 2.55 20.25 2.95 19.3 3.75 19.3 4.6 18.9 4.05 17.85 3.75 L17.35 3.8 Q16.15 4.05 16.0 5.2 15.75 7.8 18.35 7.4 L15.5 8.4 13.3 9.25 -0.35 13.8 -9.15 10.9 -9.3 10.8 -9.7 10.65 -11.65 9.95 -12.9 9.5 -16.1 8.55 M-14.2 -11.5 L-14.0 -15.2 -13.65 -15.2 Q-15.1 -15.3 -15.55 -16.9 L-15.85 -18.4 Q-16.45 -20.75 -15.25 -22.5 -15.2 -21.95 -14.65 -21.85 L-14.25 -22.0 -14.15 -22.3 -14.1 -22.75 -14.25 -22.9 -14.65 -23.1 -14.65 -23.05 -14.8 -23.0 -14.05 -23.7 -13.9 -23.55 -13.0 -23.55 -12.7 -23.8 -12.5 -24.0 -12.4 -24.75 Q-10.3 -25.85 -8.6 -24.15 -7.45 -23.1 -7.9 -21.75 L-10.75 -21.55 Q-12.3 -20.55 -12.8 -18.75 L-12.85 -17.5 -12.85 -17.45 Q-12.95 -14.95 -10.85 -15.7 L-10.55 -15.35 -10.5 -14.1 -10.9 -13.4 -11.5 -13.5 -11.5 -13.45 -11.65 -13.35 -11.8 -13.3 -12.15 -12.65 -12.15 -12.25 -12.35 -12.05 -12.45 -11.3 Q-12.9 -11.85 -13.7 -11.8 L-14.2 -11.55 -14.2 -11.5 M-12.35 -10.05 L-12.45 -9.45 -12.5 -9.45 -12.5 -9.4 -12.6 -9.35 -12.35 -10.05 M24.65 0.5 L24.55 1.05 24.5 1.35 22.8 4.2 Q22.85 3.2 21.8 2.6 L22.25 2.35 22.75 1.8 23.2 1.85 24.0 1.2 24.45 0.35 24.65 0.5 M-13.65 -15.2 L-13.65 -15.15 -13.7 -14.95 Q-13.75 -14.45 -13.05 -14.3 L-12.7 -14.45 -12.55 -14.75 -12.5 -15.2 -12.75 -15.35 -13.05 -15.55 -13.05 -15.5 -13.45 -15.4 -13.65 -15.2 M-0.3 3.7 Q-1.8 3.45 -2.5 4.5 L-2.9 4.5 -3.05 4.55 Q-3.9 4.95 -4.4 5.65 -4.6 6.05 -4.45 6.35 L-4.4 6.6 -4.25 6.8 -4.0 7.1 -3.15 7.15 -3.05 7.1 -2.8 6.95 Q-1.85 6.55 -1.55 5.8 L-0.55 5.65 -0.55 6.0 -0.55 6.2 -0.2 6.65 -0.15 6.75 -0.25 6.85 Q-0.45 9.2 2.2 8.5 L2.7 7.9 2.8 7.75 Q3.45 8.0 4.3 7.1 L4.5 6.8 5.5 6.85 5.5 7.25 5.55 7.7 6.3 8.15 7.4 7.35 7.65 7.65 7.95 7.85 8.9 7.85 9.05 7.8 9.05 7.85 9.2 8.1 9.5 8.35 10.3 8.4 10.45 8.35 11.0 7.95 Q12.05 7.2 11.85 6.05 L11.7 5.85 11.4 5.6 10.7 5.55 10.5 5.6 10.1 5.9 10.1 5.85 Q10.35 5.0 9.6 4.5 L8.7 4.45 8.2 4.75 7.3 5.7 7.25 5.65 Q6.45 5.8 5.85 6.4 L6.05 6.05 6.25 5.3 7.4 5.45 7.85 5.0 8.15 4.1 8.1 3.9 Q7.7 3.1 6.9 3.0 L6.45 3.1 Q5.95 3.2 5.75 3.7 L5.65 4.35 5.05 4.25 5.05 4.35 4.6 4.55 4.45 4.7 4.4 4.8 4.25 4.7 4.3 4.7 4.6 4.2 4.7 4.0 4.6 3.55 4.45 3.35 4.15 3.05 2.75 2.95 1.85 2.85 Q1.4 3.05 1.2 3.5 L1.0 4.15 1.0 4.65 1.05 4.7 0.5 4.65 0.55 4.55 0.4 4.35 Q0.3 3.75 -0.3 3.7 M-10.6 5.15 L-10.55 5.15 Q-10.8 5.9 -10.4 6.4 L-10.65 6.7 -10.75 6.8 -10.75 6.9 -10.9 6.75 Q-10.65 6.15 -11.3 5.65 L-10.6 5.15 M-7.4 5.3 L-7.45 4.6 Q-7.0 3.2 -9.0 2.3 L-9.9 2.55 -10.8 2.25 -10.95 2.15 -11.85 1.9 Q-13.0 1.85 -13.45 3.05 -13.75 3.95 -13.3 4.7 L-12.65 5.55 -12.75 5.6 Q-13.95 6.7 -12.6 7.65 L-12.55 7.65 -12.55 7.85 Q-12.7 10.35 -10.3 9.35 L-10.25 9.2 Q-10.0 8.55 -10.05 8.1 L-9.4 8.1 -9.25 7.9 -9.25 7.85 Q-9.0 9.0 -7.25 8.9 L-6.7 8.3 Q-5.7 6.25 -7.4 5.3 M-2.0 7.25 L-2.2 7.4 -2.4 7.65 -2.95 8.35 -2.9 8.8 -2.8 9.3 -2.45 9.5 -1.4 9.45 -1.2 9.2 Q-0.8 8.5 -0.85 7.8 L-0.95 7.65 -1.55 7.15 -2.0 7.25 M-5.65 7.4 L-5.8 7.9 Q-6.0 8.35 -5.8 8.8 -5.35 9.4 -4.65 9.15 L-4.3 8.75 -4.2 8.5 -4.2 8.25 Q-4.15 7.35 -5.1 7.15 L-5.45 7.25 -5.65 7.4 M-14.35 5.45 Q-13.8 5.15 -13.65 4.55 -13.35 2.45 -15.75 2.5 -17.15 3.2 -16.6 4.6 -16.05 6.0 -14.35 5.45 M-4.6 46.75 Q-9.25 41.8 -15.4 38.8 -15.45 38.3 -15.05 38.0 -13.15 39.1 -11.1 38.4 -10.7 37.2 -9.6 37.25 L-8.3 37.4 -7.5 38.25 -7.55 39.15 -7.6 39.25 -7.6 39.35 -7.65 39.45 Q-7.85 40.4 -6.75 40.9 L0.25 41.9 Q1.1 40.5 2.35 41.1 9.15 43.5 15.85 46.1 15.65 47.55 14.45 48.8 L14.3 48.95 14.25 49.05 14.2 49.1 13.5 49.9 Q12.3 48.35 10.65 47.35 6.25 44.55 1.05 46.1 L-0.05 46.5 -4.6 46.75 M18.7 12.85 L18.7 12.8 19.7 12.35 21.35 11.55 Q22.25 14.65 21.65 17.8 L20.45 23.85 19.8 23.9 19.75 23.9 19.0 23.6 18.35 23.3 18.05 23.25 17.45 22.95 Q14.55 21.05 11.35 19.9 L9.0 18.7 7.5 18.05 7.5 18.0 7.4 17.4 7.4 16.95 10.75 15.95 11.25 15.75 Q13.0 15.85 14.75 16.65 L18.4 18.6 18.85 18.6 Q17.8 15.45 18.7 12.85 M12.95 5.2 L12.7 5.6 Q12.3 6.65 12.5 7.7 L13.25 8.15 Q13.35 8.0 13.5 8.0 13.6 7.9 13.65 7.95 L13.75 7.8 13.9 7.55 14.0 7.15 Q14.4 6.25 14.2 5.45 L13.95 5.25 13.5 5.05 13.15 5.15 12.95 5.2 M20.35 6.35 L20.8 6.4 18.6 7.3 19.05 6.7 19.55 5.45 20.35 6.35 M1.9 5.5 L1.8 5.55 1.7 5.35 2.2 5.3 2.1 5.45 1.9 5.45 1.9 5.5" fill="#000033" fill-rule="evenodd" stroke="none"/>
    <path d="M4.4 -17.1 Q3.9 -18.85 5.45 -20.05 L5.75 -20.15 Q8.35 -19.2 8.55 -16.7 L7.7 -16.8 7.65 -17.1 7.3 -17.05 6.35 -17.15 6.25 -16.9 4.4 -17.1" fill="#ad7a3f" fill-rule="evenodd" stroke="none"/>
    <path d="M25.0 -20.45 L25.0 -23.25 Q27.45 -22.15 29.2 -19.9 30.95 -17.75 33.3 -16.45 L33.3 -15.95 Q30.65 -12.1 28.35 -8.05 L28.15 -7.95 Q27.2 -7.2 25.95 -7.25 27.05 -8.9 27.5 -10.7 L28.55 -12.2 28.65 -12.5 Q29.0 -13.3 28.3 -13.55 L27.45 -13.3 26.65 -12.65 26.5 -12.45 Q25.05 -10.95 24.55 -9.0 L24.5 -9.15 23.95 -11.0 23.6 -11.5 Q23.75 -14.35 24.45 -16.95 L24.75 -18.35 Q25.4 -16.7 27.8 -17.3 29.6 -17.75 29.0 -19.55 L28.55 -20.05 Q27.05 -20.8 25.35 -20.65 L25.0 -20.45 M25.75 -3.25 L25.6 -3.1 25.3 -3.6 25.75 -3.25 M-23.35 -22.35 Q-24.3 -22.25 -25.05 -21.55 -25.6 -21.0 -25.75 -20.15 -26.25 -18.55 -24.65 -18.15 -23.1 -17.75 -21.55 -18.5 -20.15 -19.2 -20.5 -20.9 -21.0 -22.95 -23.35 -22.35 M-29.75 -18.0 L-29.8 -18.05 Q-27.6 -16.7 -26.7 -17.45 -25.2 -18.8 -26.8 -19.9 L-27.75 -19.9 Q-29.55 -19.8 -29.8 -18.15 L-29.85 -18.05 -31.05 -19.2 Q-26.8 -21.95 -21.7 -23.25 L-18.95 -20.85 Q-17.2 -17.8 -16.55 -14.35 -16.9 -11.9 -17.4 -9.55 -17.9 -8.15 -18.95 -7.1 -18.85 -9.9 -20.25 -12.1 -20.65 -13.4 -21.75 -14.15 L-22.0 -14.15 -22.15 -13.95 -22.2 -13.9 -21.85 -12.35 -21.5 -10.75 -21.2 -8.35 -21.5 -6.0 -21.5 -5.9 -21.85 -6.0 -22.0 -6.15 Q-25.3 -9.45 -29.75 -18.0 M-16.45 45.05 Q-18.8 44.3 -16.75 41.3 L-15.8 40.0 Q-11.7 41.95 -8.2 45.3 -4.75 48.65 -1.65 52.35 L-1.5 53.1 Q-4.1 57.9 -7.8 61.95 -13.75 61.1 -18.95 58.7 -19.35 58.1 -19.05 57.55 -17.65 57.5 -16.35 58.3 L-13.7 58.35 -12.9 58.5 Q-12.1 56.9 -11.75 55.1 -10.85 52.05 -9.2 49.4 -10.2 47.6 -12.25 47.0 -14.1 45.8 -16.45 45.05 M19.55 47.55 Q23.25 55.25 25.55 63.6 23.25 65.75 20.2 66.4 L17.5 59.2 Q16.1 55.65 13.5 52.55 14.75 49.5 17.05 46.85 L19.55 47.55" fill="#336699" fill-rule="evenodd" stroke="none"/>
    <path d="M24.75 -18.35 L25.0 -20.45 25.35 -20.65 Q27.05 -20.8 28.55 -20.05 L29.0 -19.55 Q29.6 -17.75 27.8 -17.3 25.4 -16.7 24.75 -18.35 M-23.35 -22.35 Q-21.0 -22.95 -20.5 -20.9 -20.15 -19.2 -21.55 -18.5 -23.1 -17.75 -24.65 -18.15 -26.25 -18.55 -25.75 -20.15 -25.6 -21.0 -25.05 -21.55 -24.3 -22.25 -23.35 -22.35 M-29.85 -18.05 L-29.8 -18.15 Q-29.55 -19.8 -27.75 -19.9 L-26.8 -19.9 Q-25.2 -18.8 -26.7 -17.45 -27.6 -16.7 -29.8 -18.05 L-29.75 -18.0 -29.85 -18.05 M-20.0 49.4 L-20.85 49.05 Q-20.7 47.05 -19.05 45.45 -16.6 45.55 -14.6 46.8 L-10.5 49.05 -11.3 50.0 -12.7 51.4 -12.9 51.55 -13.3 51.8 Q-16.75 50.75 -20.0 49.4 M-15.85 56.7 L-16.0 57.1 Q-18.75 57.05 -20.05 54.7 -20.95 53.75 -20.65 52.65 L-20.15 51.45 -19.75 50.65 Q-16.85 51.2 -14.55 52.7 L-15.8 56.55 -15.85 56.7" fill="#9999ff" fill-rule="evenodd" stroke="none"/>
    <path d="M-10.55 13.95 L-18.15 11.15 Q-18.8 10.2 -18.15 9.25 L-17.4 9.45 Q-13.7 10.45 -10.05 11.7 L-9.9 12.35 Q-9.9 13.4 -10.55 13.95 M7.25 12.5 L7.3 12.5 8.25 12.3 8.75 12.1 8.4 12.35 Q8.55 13.8 9.65 14.8 L10.25 14.65 7.85 15.15 8.05 15.1 8.15 15.05 8.4 14.55 7.25 12.5 M13.8 10.3 L14.0 10.2 15.05 9.7 Q15.2 11.35 16.35 12.3 L17.0 12.1 16.65 12.4 16.35 12.55 14.65 12.8 14.6 12.8 14.9 12.6 15.2 12.45 14.05 10.25 14.0 10.25 13.9 10.25 13.8 10.3 M-3.75 18.35 L-5.25 18.7 -15.75 20.35 -16.2 20.4 -16.45 19.7 Q-16.6 18.95 -16.2 18.1 L-14.9 17.8 -8.45 16.7 -6.7 16.25 Q-5.25 16.7 -4.15 17.85 L-3.75 18.35" fill="#cc9900" fill-rule="evenodd" stroke="none"/>
    <path d="M-10.05 11.7 Q-6.65 12.9 -3.4 14.25 L-3.0 14.45 -6.6 15.45 -6.65 15.35 -6.6 15.45 -10.55 13.95 Q-9.9 13.4 -9.9 12.35 L-10.05 11.7 M-1.2 14.85 L7.25 12.45 7.25 12.5 8.4 14.55 8.15 15.05 8.05 15.1 7.85 15.15 2.75 16.75 2.4 16.85 -2.15 18.0 -3.75 18.35 -4.15 17.85 Q-5.25 16.7 -6.7 16.25 L-5.6 16.0 -1.2 14.85 M8.75 12.1 Q11.15 11.0 13.8 10.3 L13.9 10.25 14.0 10.25 14.05 10.25 15.2 12.45 14.9 12.6 14.6 12.8 Q12.6 14.0 10.25 14.65 L9.65 14.8 Q8.55 13.8 8.4 12.35 L8.75 12.1 M15.05 9.7 L15.05 9.65 18.05 8.25 19.45 7.65 Q21.4 6.7 23.5 5.9 23.85 7.8 22.35 9.2 20.05 11.0 17.4 11.95 L17.0 12.1 16.35 12.3 Q15.2 11.35 15.05 9.7 M5.45 18.15 L6.6 18.65 Q9.5 20.05 12.3 21.1 L17.1 23.7 17.2 23.7 17.35 23.75 17.4 23.85 19.45 24.9 20.7 26.25 Q21.4 26.85 20.85 28.15 17.35 26.15 13.75 24.3 L11.8 23.25 0.9 18.85 1.0 18.8 Q3.2 17.55 5.45 18.15" fill="#996600" fill-rule="evenodd" stroke="none"/>
    <path d="M-3.4 14.25 L-1.2 14.85 -5.6 16.0 -6.6 15.45 -6.65 15.35 -6.6 15.45 -3.0 14.45 -3.4 14.25 M2.75 16.75 L3.3 17.05 Q4.3 17.7 5.45 18.15 3.2 17.55 1.0 18.8 L0.15 18.5 -0.7 18.3 -2.15 18.0 2.4 16.85 2.75 16.75" fill="#663300" fill-rule="evenodd" stroke="none"/>
    <path d="M-5.5 30.6 L-4.7 30.4 -4.4 30.55 -4.75 31.05 -5.35 33.45 -5.4 33.75 -5.65 35.0 -6.15 36.9 -6.5 36.85 -6.9 36.7 -6.9 36.5 -6.5 34.2 -6.15 32.6 -5.65 31.05 -5.5 30.6 M1.6 31.95 L1.65 31.95 Q2.3 32.0 2.4 32.75 L2.45 33.15 2.3 34.5 2.25 34.7 1.8 37.9 1.55 38.25 1.55 38.35 14.65 40.95 Q14.45 40.5 14.6 40.0 L15.25 36.55 15.25 35.2 Q15.2 34.45 15.6 33.95 L15.9 33.95 Q16.45 34.55 16.35 35.4 L16.35 35.7 16.4 36.7 Q16.45 38.6 16.1 40.5 L15.95 41.1 19.75 41.6 20.6 40.95 Q20.7 39.6 21.1 38.05 L21.2 38.1 22.15 38.75 22.25 38.8 22.2 38.8 Q21.8 39.3 21.85 40.05 L21.55 41.15 21.5 41.5 21.4 42.05 Q21.4 42.55 20.95 42.75 L20.7 42.85 15.6 42.0 15.5 42.1 14.85 41.9 3.75 39.9 3.55 39.85 3.45 39.85 3.2 39.8 3.1 39.75 1.55 38.65 1.45 38.35 1.45 38.3 1.4 38.35 1.25 38.4 0.4 38.3 0.35 38.25 0.35 38.15 0.4 37.75 0.7 34.9 0.9 33.95 1.1 32.85 Q1.1 32.25 1.6 31.95 M-10.55 36.0 L-10.85 36.55 -11.8 36.45 -12.05 35.6 -11.75 34.1 -11.6 33.55 -11.0 30.45 -10.85 30.0 -10.65 29.9 -10.6 29.9 Q-9.85 29.9 -9.6 30.4 L-9.55 30.85 -9.55 31.1 -9.65 32.35 -10.0 34.65 -10.55 36.0" fill="#333333" fill-rule="evenodd" stroke="none"/>
    <path d="M-4.4 30.55 L-4.25 30.5 -4.2 30.5 -3.7 30.5 -3.55 30.5 -2.95 30.5 -2.85 30.5 -2.7 30.5 -1.5 30.6 -1.4 30.65 -1.35 30.65 Q-0.9 31.35 -1.1 32.15 L-1.1 32.25 Q-1.6 31.8 -2.35 31.8 -3.9 32.25 -4.15 33.9 L-4.1 34.05 -5.4 33.75 -5.35 33.45 -4.75 31.05 -4.4 30.55 M-16.5 31.95 L-16.5 31.9 -16.3 31.45 -15.8 30.0 -15.25 29.6 -15.2 29.55 -15.1 29.5 -15.05 29.5 -14.45 29.3 -13.7 29.25 Q-13.1 29.8 -13.45 30.9 L-14.1 31.8 -14.7 32.35 Q-15.9 32.65 -16.5 31.95" fill="#ffffff" fill-rule="evenodd" stroke="none"/>
    <path d="M-1.4 30.65 L-1.15 30.7 -0.35 30.9 Q-0.05 31.3 0.15 31.8 L0.35 33.35 Q0.3 34.85 -0.55 36.1 -1.5 37.55 -2.9 38.6 -4.25 39.5 -5.4 38.35 L-6.1 37.65 -6.0 36.95 -6.15 36.9 -5.65 35.0 -5.4 33.75 -4.1 34.05 Q-3.5 35.3 -2.05 35.2 -0.25 34.9 -0.4 33.1 -0.7 32.55 -1.1 32.25 L-1.1 32.15 Q-0.9 31.35 -1.35 30.65 L-1.4 30.65 M2.85 32.45 L3.0 32.35 Q11.25 33.8 19.9 34.1 22.1 34.95 21.4 37.05 L21.3 37.3 20.3 37.15 19.0 37.0 16.4 36.7 16.35 35.7 16.35 35.4 Q16.45 34.55 15.9 33.95 L15.6 33.95 Q15.2 34.45 15.25 35.2 L15.25 36.55 15.05 36.55 13.35 36.35 11.35 36.0 11.3 35.95 Q10.05 34.7 8.15 34.6 L7.7 34.55 7.55 34.55 7.45 34.55 7.4 34.55 7.3 34.55 7.25 34.55 6.95 34.6 Q6.25 34.75 5.95 35.05 L2.3 34.7 2.25 34.7 2.3 34.5 2.45 33.15 2.7 32.5 2.85 32.45 M-6.9 36.7 L-7.05 36.65 -7.0 36.6 -6.9 36.5 -6.9 36.7 M-17.0 34.15 L-16.8 32.9 -16.5 31.95 Q-15.9 32.65 -14.7 32.35 L-14.1 31.8 -13.45 30.9 Q-13.1 29.8 -13.7 29.25 L-14.45 29.3 -13.2 29.25 -13.15 29.25 -12.9 29.3 -12.85 29.3 Q-12.4 29.85 -12.25 30.9 -12.05 32.3 -12.95 33.4 -14.6 35.3 -16.95 34.2 L-17.0 34.15 M-9.25 30.8 Q-7.85 30.75 -6.75 31.35 L-6.45 31.05 Q-6.0 30.75 -5.5 30.6 L-5.65 31.05 -6.15 32.6 -6.4 32.6 -6.6 32.7 -6.55 32.15 -6.6 32.7 -6.65 32.7 -6.7 32.7 -9.65 32.35 -9.55 31.1 -9.55 30.85 -9.5 30.8 -9.25 30.8" fill="#cccccc" fill-rule="evenodd" stroke="none"/>
    <path d="M-1.15 30.7 Q0.3 31.0 1.65 31.85 L1.6 31.95 Q1.1 32.25 1.1 32.85 L0.9 33.95 0.7 34.9 0.4 37.75 0.3 38.2 -0.2 40.8 Q-3.2 40.7 -6.2 39.8 L-6.1 37.65 -5.4 38.35 Q-4.25 39.5 -2.9 38.6 -1.5 37.55 -0.55 36.1 0.3 34.85 0.35 33.35 L0.15 31.8 Q-0.05 31.3 -0.35 30.9 L-1.15 30.7 M22.25 38.8 Q23.7 38.95 24.8 39.95 25.15 40.55 25.15 41.3 L25.15 41.35 Q23.15 42.0 21.9 40.25 L21.85 40.05 Q21.8 39.3 22.2 38.8 L22.25 38.8 M24.8 43.1 Q24.25 47.25 22.55 50.65 21.5 49.45 20.95 47.8 L20.9 47.65 20.9 47.6 Q22.8 47.9 23.2 46.25 23.6 45.05 23.5 43.65 L22.15 42.65 Q21.3 42.3 21.6 41.35 L21.85 41.6 Q23.05 42.75 24.8 42.75 L24.8 42.8 24.8 43.1 M20.3 46.0 Q17.6 45.6 15.1 44.35 11.9 42.75 8.55 41.7 L2.35 39.65 3.2 39.8 3.45 39.85 3.55 39.85 3.75 39.9 14.85 41.9 15.5 42.1 15.6 42.0 20.7 42.85 20.85 42.85 Q22.45 44.2 22.0 46.1 L21.9 46.1 21.8 46.1 20.3 46.0 M-11.8 36.45 L-12.1 37.2 -14.4 37.1 -16.55 35.9 -17.0 34.15 -16.95 34.2 Q-14.6 35.3 -12.95 33.4 -12.05 32.3 -12.25 30.9 -12.4 29.85 -12.85 29.3 -11.7 29.45 -10.85 30.0 L-11.0 30.45 -11.6 33.55 -11.75 34.1 -12.05 35.6 -11.8 36.45" fill="#666666" fill-rule="evenodd" stroke="none"/>
    <path d="M1.65 31.95 L1.8 31.9 Q2.65 31.85 2.85 32.45 L2.7 32.5 2.45 33.15 2.4 32.75 Q2.3 32.0 1.65 31.95 M21.3 37.3 L21.1 38.05 Q20.7 39.6 20.6 40.95 L19.75 41.6 15.95 41.1 16.1 40.5 Q16.45 38.6 16.4 36.7 L19.0 37.0 20.3 37.15 21.3 37.3 M25.15 41.3 L25.15 40.9 25.2 41.5 Q25.1 41.7 25.15 41.9 L24.8 43.1 24.8 42.8 24.8 42.75 Q23.05 42.75 21.85 41.6 L21.6 41.35 Q21.3 42.3 22.15 42.65 L23.5 43.65 Q23.6 45.05 23.2 46.25 22.8 47.9 20.9 47.6 L20.9 47.65 20.95 47.75 20.7 47.1 20.7 46.65 20.35 46.05 20.3 46.0 21.8 46.1 21.9 46.1 22.0 46.1 Q22.45 44.2 20.85 42.85 L20.7 42.85 20.95 42.75 Q21.4 42.55 21.4 42.05 L21.5 41.5 21.55 41.15 21.85 40.05 21.9 40.25 Q23.15 42.0 25.15 41.35 L25.15 41.3 M1.45 38.35 L1.4 38.35 1.45 38.3 1.45 38.35 M0.35 38.25 L0.3 38.2 0.4 37.75 0.35 38.15 0.35 38.25 M-7.05 36.65 L-7.6 36.45 -7.8 36.3 -10.45 36.0 -10.5 36.0 -10.55 36.0 -10.0 34.65 -9.65 32.35 -6.7 32.7 -6.65 32.7 -6.6 32.7 -6.55 32.15 -6.6 32.7 -6.4 32.6 -6.15 32.6 -6.5 34.2 -6.9 36.5 -7.0 36.6 -7.05 36.65 M-9.6 30.4 L-9.25 30.8 -9.5 30.8 -9.55 30.85 -9.6 30.4 M5.95 35.05 Q5.25 35.65 5.6 36.85 7.1 38.85 10.05 38.65 11.7 38.35 11.9 36.7 L11.35 36.0 13.35 36.35 15.05 36.55 15.25 36.55 14.6 40.0 Q14.45 40.5 14.65 40.95 L1.55 38.35 1.55 38.25 1.8 37.9 2.25 34.7 2.3 34.7 5.95 35.05" fill="#999999" fill-rule="evenodd" stroke="none"/>
    <path d="M-4.1 34.05 L-4.15 33.9 Q-3.9 32.25 -2.35 31.8 -1.6 31.8 -1.1 32.25 -0.7 32.55 -0.4 33.1 -0.25 34.9 -2.05 35.2 -3.5 35.3 -4.1 34.05 M-2.45 32.4 L-2.6 32.45 -2.9 32.6 Q-3.65 33.3 -3.1 34.15 -2.55 35.0 -1.5 34.65 -0.9 34.4 -0.9 33.65 -0.9 32.25 -2.45 32.4 M11.35 36.0 L11.9 36.7 Q11.7 38.35 10.05 38.65 7.1 38.85 5.6 36.85 5.25 35.65 5.95 35.05 6.25 34.75 6.95 34.6 L7.25 34.55 7.3 34.55 7.4 34.55 7.45 34.55 7.55 34.55 7.7 34.55 8.15 34.6 Q10.05 34.7 11.3 35.95 L11.35 36.0 M7.15 35.4 L6.9 35.45 6.85 35.45 6.8 35.5 6.45 35.9 Q6.3 36.1 6.4 36.35 6.6 37.0 7.25 37.3 L7.6 37.55 8.45 37.75 9.05 37.85 10.25 37.95 10.7 37.7 Q11.2 36.85 10.5 36.15 L10.35 36.0 Q10.1 35.75 9.7 35.6 L7.35 35.3 7.15 35.4" fill="#006600" fill-rule="evenodd" stroke="none"/>
    <path d="M-2.45 32.4 Q-0.9 32.25 -0.9 33.65 -0.9 34.4 -1.5 34.65 -2.55 35.0 -3.1 34.15 -3.65 33.3 -2.9 32.6 L-2.6 32.45 -2.45 32.4 M7.15 35.4 L7.35 35.3 9.7 35.6 Q10.1 35.75 10.35 36.0 L10.5 36.15 Q11.2 36.85 10.7 37.7 L10.25 37.95 9.05 37.85 8.45 37.75 7.6 37.55 7.25 37.3 Q6.6 37.0 6.4 36.35 6.3 36.1 6.45 35.9 L6.8 35.5 6.85 35.45 6.9 35.45 7.15 35.4" fill="#00ff00" fill-rule="evenodd" stroke="none"/>
    <path d="M17.35 62.35 L16.25 62.9 Q12.9 64.05 10.25 66.25 8.15 67.95 5.75 68.35 L6.45 67.5 Q9.05 63.4 10.2 58.75 L9.8 58.75 Q8.3 60.85 7.35 63.2 6.35 65.45 4.6 67.5 1.9 68.15 2.5 66.4 3.15 64.6 2.35 63.3 1.4 61.75 0.25 61.35 0.4 63.05 1.35 64.4 1.9 65.55 1.65 66.95 L1.55 67.85 Q0.65 67.45 -0.15 66.65 -3.0 64.0 -6.15 62.05 -4.9 61.25 -4.05 59.8 L-0.25 53.1 12.7 53.45 Q15.4 57.8 17.35 62.35 M13.25 61.15 L11.05 62.6 Q9.85 63.4 9.8 64.6 L12.05 63.25 Q13.15 62.3 13.25 61.15" fill="#333300" fill-rule="evenodd" stroke="none"/>
  </g>
</svg>
