<?xml version="1.0" encoding="UTF-8" standalone="no"?>
<svg xmlns:xlink="http://www.w3.org/1999/xlink" height="55.85px" width="45.6px" xmlns="http://www.w3.org/2000/svg">
  <g transform="matrix(1.0, 0.0, 0.0, 1.0, 23.55, 28.2)">
    <path d="M17.7 -16.35 L17.55 -17.1 16.3 -18.8 Q15.85 -20.2 16.65 -21.3 16.95 -22.3 16.05 -22.95 15.2 -23.6 14.75 -24.4 L12.1 -24.05 Q10.95 -24.55 11.05 -25.8 9.75 -26.65 8.4 -26.2 L7.75 -26.0 5.7 -25.35 6.25 -24.3 7.75 -21.05 Q9.65 -19.1 9.8 -16.4 L9.85 -16.1 9.95 -15.7 10.0 -15.65 10.3 -15.5 10.0 -15.6 10.1 -15.35 10.55 -13.1 10.55 -13.0 10.6 -12.7 10.7 -11.85 10.95 -11.85 11.4 -11.55 11.5 -11.8 Q10.65 -9.45 11.35 -7.25 L11.8 -6.5 Q12.25 -5.55 11.8 -4.5 L10.65 -1.8 Q11.2 -1.1 11.25 -0.3 L11.2 0.75 Q11.4 3.15 10.7 5.35 L9.3 9.75 Q9.8 11.15 9.35 12.6 L8.15 15.35 9.55 17.5 Q11.65 16.65 11.85 18.2 12.1 19.8 13.4 20.65 16.05 21.15 18.15 19.95 18.7 17.95 20.35 16.55 21.95 15.05 21.25 12.7 20.0 12.4 20.1 11.35 L20.15 9.3 19.95 9.15 Q18.3 7.8 18.85 5.85 19.3 3.65 18.15 2.1 17.1 0.3 17.75 -1.3 L17.95 -1.8 Q18.6 -3.1 18.55 -4.5 L18.25 -6.1 Q15.8 -7.65 17.5 -9.1 19.15 -10.5 19.05 -12.5 17.75 -13.65 17.25 -15.15 L17.7 -16.35 M8.55 -27.35 Q10.5 -27.95 11.75 -26.25 11.75 -25.3 12.4 -24.75 L15.2 -25.15 17.15 -22.55 Q17.95 -21.2 17.6 -19.5 L18.85 -17.55 Q19.4 -16.5 18.55 -15.45 17.95 -14.7 18.75 -14.0 19.45 -13.35 19.75 -12.5 20.2 -11.15 19.3 -10.1 L18.0 -8.2 Q17.55 -7.35 19.45 -6.4 L19.3 -3.6 Q19.3 -2.2 18.35 -1.15 L20.0 2.45 Q20.35 4.1 19.8 5.65 19.15 7.25 21.05 8.35 21.25 9.25 20.9 10.3 20.45 11.3 21.8 11.35 22.5 13.95 21.35 16.4 L19.7 18.05 Q18.75 18.9 19.05 20.3 16.2 22.45 12.4 21.5 10.9 20.95 10.8 19.55 10.65 18.0 9.05 18.0 L7.1 15.7 2.1 16.75 Q-0.55 16.9 -2.75 15.3 -3.05 14.7 -3.6 14.7 -4.1 16.5 -2.5 17.8 -1.0 19.15 -2.25 21.0 -1.6 23.45 -3.1 25.5 -5.5 27.95 -9.05 27.6 L-9.6 26.0 Q-9.7 25.1 -10.6 24.65 -12.9 24.8 -14.5 23.4 -15.8 21.4 -17.2 19.75 -19.1 20.05 -20.55 19.1 -21.3 17.4 -21.45 15.45 -21.7 13.45 -23.1 12.0 -23.95 10.1 -23.15 8.25 -22.4 6.35 -21.45 4.6 -22.2 3.15 -21.65 1.75 -21.1 0.25 -20.2 -0.95 L-21.2 -4.0 Q-21.7 -5.6 -20.65 -7.05 -21.45 -8.9 -20.8 -10.9 -22.1 -13.05 -22.4 -15.6 -22.05 -16.75 -21.15 -17.7 -20.3 -18.65 -19.85 -19.7 -18.9 -19.75 -18.6 -20.45 -18.7 -22.9 -17.7 -24.85 L-14.5 -26.55 Q-12.9 -27.4 -10.95 -27.45 -10.1 -26.55 -8.8 -26.1 -5.9 -28.3 -2.05 -28.2 1.8 -28.15 4.95 -26.5 L8.55 -27.35 M9.35 -15.5 L9.25 -15.75 8.95 -16.15 Q9.1 -16.75 8.55 -17.65 7.45 -19.65 6.5 -21.75 5.55 -23.8 3.9 -25.5 L3.35 -26.0 2.25 -26.9 Q-2.95 -28.0 -7.1 -25.6 L-6.4 -24.95 Q-5.7 -23.9 -6.05 -22.5 -5.4 -21.05 -4.0 -20.0 -3.5 -18.75 -4.3 -17.9 -4.75 -17.45 -4.8 -16.85 L-5.5 -16.2 -5.55 -16.15 -5.9 -16.2 Q-5.8 -17.3 -5.05 -18.05 -5.05 -19.1 -5.6 -20.0 -6.85 -20.95 -6.9 -22.35 -6.95 -23.0 -7.15 -23.5 L-7.6 -24.4 -7.95 -24.85 Q-8.95 -24.85 -9.7 -25.3 -10.55 -25.85 -11.45 -26.1 -12.9 -26.35 -14.1 -25.7 L-16.6 -24.55 Q-17.7 -23.75 -17.7 -22.1 L-17.7 -19.1 Q-20.0 -18.35 -21.3 -16.25 -21.55 -14.55 -20.35 -13.3 -19.25 -11.95 -20.15 -10.3 L-19.6 -7.45 Q-20.5 -5.95 -19.7 -4.35 L-19.3 -3.4 Q-19.0 -2.35 -19.1 -1.2 L-19.25 -0.8 -19.5 -0.35 -20.5 1.35 Q-21.3 2.6 -20.55 4.25 -21.6 5.85 -22.3 7.55 -23.0 9.25 -22.6 11.3 L-21.75 12.2 Q-21.05 13.1 -20.9 14.4 L-20.85 14.6 -20.9 14.8 Q-21.05 16.0 -20.55 16.6 L-20.15 17.85 Q-18.65 18.65 -16.85 18.35 -15.9 18.15 -15.7 19.2 L-15.7 19.25 -15.45 20.25 -15.0 21.0 Q-14.05 22.7 -12.3 23.0 -10.55 23.3 -9.1 24.4 L-8.65 25.6 -8.3 27.1 Q-6.1 27.0 -4.35 25.55 -3.2 24.45 -3.6 23.05 -4.0 21.65 -3.0 20.4 -2.5 18.9 -3.45 18.0 L-5.2 15.9 Q-5.55 14.25 -4.35 12.9 L-5.2 10.15 Q-5.6 8.7 -7.05 7.85 L-6.55 7.35 Q-5.95 4.05 -8.2 1.7 -8.5 0.6 -9.1 0.0 -9.5 0.0 -9.4 -0.45 L-9.35 -0.5 -8.75 -1.9 -8.65 -2.85 Q-8.6 -4.0 -9.15 -5.1 L-9.4 -5.5 -9.1 -9.05 Q-8.95 -10.7 -9.75 -12.35 L-8.25 -14.05 -7.75 -13.9 -8.0 -13.3 -8.1 -13.25 -8.5 -12.9 -8.5 -12.85 -8.6 -12.3 -8.45 -11.95 Q-7.9 -11.2 -7.75 -10.3 -8.35 -9.25 -8.2 -7.95 -8.1 -6.6 -8.6 -5.5 -8.05 -4.1 -7.95 -2.5 L-8.05 -0.25 Q-7.7 0.8 -6.9 1.3 L-6.75 1.15 -6.5 1.45 -6.45 1.5 -6.2 1.8 -5.5 2.5 Q-5.7 4.05 -5.3 5.6 L-5.15 6.2 -5.6 7.65 -5.5 7.8 -5.05 8.3 -4.65 8.7 -3.5 10.45 -3.25 11.15 Q-2.8 12.45 -3.2 13.8 L-1.95 15.0 0.9 15.9 1.2 15.85 1.9 15.7 Q4.75 14.85 7.6 14.5 8.85 12.55 8.15 10.55 7.45 8.5 7.65 6.45 8.2 6.65 8.15 7.3 8.05 7.95 8.35 8.4 9.4 7.0 10.0 5.1 10.25 3.45 9.75 1.95 L9.15 -0.1 8.9 -0.95 9.05 -0.85 9.2 -0.35 Q9.35 -0.05 9.65 -0.15 L9.75 -0.05 10.15 0.4 9.95 -0.15 9.9 -0.25 9.9 -0.3 9.95 -0.45 10.0 -2.4 10.0 -2.55 10.7 -3.9 Q10.95 -4.9 10.8 -5.65 L10.75 -5.85 10.55 -6.35 10.45 -6.55 10.25 -7.0 9.9 -7.75 9.75 -8.25 9.65 -8.85 9.75 -9.05 9.85 -9.4 Q9.85 -10.05 9.35 -10.2 L8.85 -9.65 9.35 -10.2 7.4 -10.05 7.1 -10.05 6.6 -9.85 6.0 -9.6 5.9 -9.55 6.25 -9.3 5.6 -9.8 5.55 -9.8 5.5 -9.85 5.65 -9.95 7.45 -10.8 7.6 -10.85 9.1 -11.15 Q9.25 -10.9 9.65 -10.95 L9.75 -10.95 9.9 -10.95 9.9 -11.1 9.95 -11.3 10.0 -12.35 10.0 -12.5 9.7 -14.25 9.6 -14.9 9.45 -15.4 9.4 -15.5 9.4 -15.55 9.35 -15.5 M5.15 -16.4 L7.6 -17.25 7.6 -16.95 7.35 -16.7 6.8 -16.2 5.2 -14.9 3.15 -13.3 Q0.1 -15.0 -3.1 -16.25 -2.7 -16.7 -2.05 -16.55 L-0.8 -16.4 3.35 -15.15 5.15 -16.4 M4.1 -11.15 L4.05 -11.1 3.9 -10.85 3.55 -10.65 3.25 -10.45 2.6 -10.2 2.75 -10.55 3.3 -11.95 Q3.4 -11.3 4.1 -11.15 M-1.4 -4.55 L-0.95 -5.05 0.7 -5.5 1.0 -6.4 1.4 -7.25 1.95 -7.95 1.8 -7.65 Q1.45 -7.05 1.35 -6.25 1.25 -5.3 0.55 -4.85 -0.25 -4.95 -0.8 -4.4 L-0.7 -3.6 Q-0.8 -3.15 -0.2 -2.95 1.3 -3.45 2.65 -2.5 4.05 -1.55 5.2 -3.05 5.95 -3.0 6.55 -3.45 6.65 -4.15 6.1 -4.5 L5.2 -4.5 Q5.35 -5.65 5.1 -6.6 L4.9 -7.25 4.3 -8.3 4.25 -8.4 4.4 -8.3 4.85 -8.05 4.85 -8.1 5.7 -7.15 5.7 -5.5 Q7.0 -5.25 7.5 -4.15 L7.25 -3.4 6.75 -2.8 Q6.25 -2.75 5.75 -2.5 L4.85 -2.2 4.45 -2.05 4.2 -1.9 Q2.85 -1.3 1.6 -2.35 L0.15 -2.4 -0.35 -2.35 Q-1.4 -2.35 -1.35 -3.6 L-1.4 -4.55 M6.85 0.3 Q7.3 0.45 7.65 0.75 L6.95 0.6 6.4 0.5 Q5.0 0.45 3.55 1.1 L-0.65 0.9 -2.5 1.3 Q-1.8 0.6 -0.65 0.45 L3.6 0.6 Q4.25 0.2 4.95 0.1 L5.15 0.1 5.4 0.05 6.85 0.3 M1.5 -23.9 L1.35 -23.6 Q0.85 -23.55 0.7 -24.05 L0.85 -24.45 Q1.35 -24.4 1.5 -23.9 M2.05 -20.45 Q1.1 -20.65 1.15 -21.7 1.2 -22.35 1.85 -22.2 2.5 -22.05 2.6 -21.4 2.75 -20.7 2.05 -20.45 M3.15 -16.7 Q2.25 -16.8 1.8 -17.5 1.45 -18.7 2.45 -19.0 3.4 -18.65 3.85 -17.65 3.7 -16.95 3.15 -16.7 M0.95 -10.05 L0.8 -9.8 0.75 -9.75 0.55 -9.7 0.3 -9.7 0.25 -9.7 0.1 -9.75 -0.35 -9.6 -0.55 -9.45 -0.7 -9.45 -1.0 -9.5 -2.0 -9.65 Q-2.85 -10.35 -4.05 -10.3 L-4.45 -10.3 -4.55 -10.3 -5.5 -10.05 -5.7 -9.8 -5.9 -9.8 -6.0 -9.75 -6.15 -9.75 -6.1 -9.75 -6.05 -9.85 -5.9 -10.05 -5.55 -10.3 -5.6 -10.3 Q-5.05 -10.75 -4.2 -10.9 L-1.7 -10.4 0.85 -10.15 0.95 -10.15 0.95 -10.05 M3.7 -5.2 L2.6 -4.5 Q2.8 -5.1 3.3 -5.4 L3.7 -5.2 M-2.65 -3.6 L-2.5 -3.45 -2.65 -3.6" fill="#000000" fill-rule="evenodd" stroke="none"/>
    <path d="M7.75 -26.0 L8.4 -26.2 Q9.75 -26.65 11.05 -25.8 10.95 -24.55 12.1 -24.05 L14.75 -24.4 Q15.2 -23.6 16.05 -22.95 16.95 -22.3 16.65 -21.3 15.85 -20.2 16.3 -18.8 L17.55 -17.1 17.7 -16.35 16.8 -16.5 16.25 -17.0 15.05 -17.05 Q14.65 -16.85 14.5 -16.55 L14.15 -16.7 13.85 -16.65 13.7 -16.6 13.1 -15.85 13.25 -17.4 13.3 -17.3 Q13.8 -16.55 14.55 -17.15 16.25 -18.7 14.4 -19.6 L14.3 -19.6 14.0 -19.7 12.9 -19.9 12.5 -20.75 Q13.65 -21.95 11.7 -22.3 L11.5 -22.25 Q9.9 -23.95 7.5 -24.2 L8.6 -24.0 8.6 -24.05 Q8.65 -25.45 7.75 -26.0 M18.55 -4.5 Q18.6 -3.1 17.95 -1.8 L17.75 -1.3 16.95 -1.35 16.9 -1.25 16.65 -1.15 16.5 -1.1 Q15.65 -0.45 15.7 0.65 L15.65 1.9 15.05 1.75 Q13.85 1.65 13.4 2.9 13.05 3.8 13.35 4.4 L13.15 4.55 Q13.1 3.4 12.65 2.3 L13.85 -0.35 14.35 -1.7 14.45 -2.0 14.75 -3.0 14.85 -3.55 Q15.25 -3.5 15.5 -3.8 L15.6 -3.85 15.7 -3.85 Q17.65 -3.3 18.55 -4.5 M16.8 -15.3 Q17.9 -14.45 16.45 -13.0 L16.25 -12.9 15.5 -12.85 13.75 -11.85 12.95 -13.5 13.0 -13.85 Q13.4 -13.5 14.4 -13.5 14.15 -14.0 14.55 -14.95 14.8 -15.65 15.55 -15.7 L15.95 -15.75 16.8 -15.3 M-5.8 -15.9 L-5.85 -15.85 -5.9 -15.8 -5.9 -16.2 -5.55 -16.15 -5.8 -15.9 M-7.05 -14.65 L-7.35 -14.35 -7.6 -14.05 -7.75 -13.9 -8.25 -14.05 -8.1 -14.15 -7.7 -14.6 -7.6 -14.65 -7.05 -14.65 M9.6 -14.9 L9.4 -15.35 9.35 -15.5 9.4 -15.55 9.4 -15.5 9.45 -15.4 9.6 -14.9 M18.8 11.3 L18.9 12.25 18.8 12.25 18.85 12.05 18.8 11.3 M-13.95 -11.7 L-14.1 -11.5 -14.2 -11.45 -14.6 -10.85 -15.05 -10.9 Q-15.8 -9.85 -17.35 -10.7 -17.85 -10.95 -17.9 -11.55 L-17.85 -12.3 -18.45 -11.55 Q-19.45 -9.95 -17.7 -9.2 L-16.7 -9.15 Q-16.75 -8.2 -15.8 -7.7 L-15.9 -6.9 -16.05 -6.55 -16.5 -5.65 -16.8 -5.45 Q-17.4 -4.85 -17.4 -4.35 L-18.2 -4.35 Q-18.95 -4.05 -19.3 -3.4 L-19.7 -4.35 Q-20.5 -5.95 -19.6 -7.45 L-20.15 -10.3 Q-19.25 -11.95 -20.35 -13.3 -21.55 -14.55 -21.3 -16.25 -20.0 -18.35 -17.7 -19.1 L-17.7 -22.1 Q-17.7 -23.75 -16.6 -24.55 L-14.1 -25.7 Q-12.9 -26.35 -11.45 -26.1 -10.55 -25.85 -9.7 -25.3 -8.95 -24.85 -7.95 -24.85 L-7.6 -24.4 Q-8.4 -24.85 -9.65 -24.75 -10.45 -24.35 -10.75 -23.4 L-10.85 -22.3 -11.6 -22.4 -12.15 -21.9 Q-12.75 -20.85 -11.95 -20.15 L-12.75 -19.35 Q-11.5 -18.6 -12.7 -16.9 L-12.95 -16.7 -13.15 -16.7 Q-15.55 -16.4 -15.1 -18.65 L-15.05 -18.75 -15.45 -18.75 Q-16.55 -18.25 -16.75 -16.95 L-16.75 -16.65 -18.7 -17.1 Q-19.8 -16.65 -19.9 -15.35 -20.05 -13.05 -17.95 -13.1 L-17.75 -12.65 Q-17.5 -13.5 -16.55 -13.95 -14.95 -14.0 -14.7 -12.95 L-14.7 -11.95 -13.95 -11.7 M-13.45 -9.9 L-13.4 -9.95 -12.5 -9.9 Q-11.3 -9.15 -12.0 -8.0 L-12.55 -7.45 -13.2 -7.5 -13.75 -7.75 -13.85 -7.8 Q-14.4 -8.35 -13.9 -9.45 L-13.45 -9.9 M-12.8 -6.1 Q-12.65 -5.55 -12.8 -4.85 L-13.2 -4.1 -13.65 -3.85 Q-14.4 -3.55 -14.9 -3.55 -15.95 -3.65 -16.3 -5.1 L-16.35 -5.7 Q-16.3 -6.55 -15.45 -7.1 L-15.1 -7.35 -14.9 -7.35 Q-13.15 -7.3 -12.8 -6.1 M-12.95 -1.5 Q-11.35 -0.85 -12.15 1.3 L-12.65 2.1 -12.8 2.2 -13.55 2.35 Q-15.15 2.55 -15.65 0.85 L-15.75 1.05 -15.7 1.85 -16.3 1.95 -16.05 2.5 Q-15.95 3.15 -16.3 3.95 -16.65 5.0 -17.65 5.0 L-18.45 4.85 -18.75 4.7 -18.8 4.65 -18.8 4.7 Q-19.8 4.85 -19.95 5.95 L-19.9 6.95 -20.05 6.9 -20.5 7.0 -20.65 7.0 -21.1 7.55 Q-21.55 8.6 -20.55 9.1 L-19.8 9.05 -19.1 8.5 -18.7 8.8 -18.5 8.8 -18.5 9.75 -18.7 10.05 -18.95 10.7 -19.0 10.95 -18.9 10.9 -18.0 10.7 Q-17.0 10.85 -16.55 11.3 L-16.55 11.25 -16.35 11.2 -16.15 11.5 -16.35 11.6 Q-15.9 12.3 -16.4 13.6 L-16.85 14.4 -17.2 14.65 -18.9 14.45 Q-20.3 13.75 -19.85 12.2 -19.7 11.55 -19.2 11.15 L-20.6 11.2 -20.65 11.3 -20.85 11.4 -21.05 11.45 -21.75 12.2 -22.6 11.3 Q-23.0 9.25 -22.3 7.55 -21.6 5.85 -20.55 4.25 -21.3 2.6 -20.5 1.35 L-19.5 -0.35 -18.4 0.45 -18.3 0.5 Q-18.5 -0.25 -17.85 -0.85 L-17.7 -0.9 -17.5 -1.0 -17.45 -1.0 Q-16.2 -1.2 -15.8 -0.3 -15.7 -1.0 -15.1 -1.45 L-15.05 -1.5 -13.85 -1.8 -12.95 -1.5 M-12.15 3.6 L-12.1 3.55 Q-9.45 3.9 -10.4 6.2 -10.75 7.05 -11.65 6.9 L-11.8 6.9 Q-13.65 6.5 -13.05 4.95 L-12.85 4.4 -12.75 4.2 -12.15 3.6 M-11.45 7.45 Q-10.2 7.45 -9.75 8.3 L-9.6 8.9 -9.25 8.6 Q-9.1 8.45 -8.95 8.4 L-8.75 8.35 -8.45 8.5 Q-7.0 9.2 -8.35 10.4 L-9.25 10.45 -9.65 10.1 -9.75 10.4 -9.9 10.65 -10.1 10.9 Q-10.45 10.1 -11.8 10.15 L-12.6 10.75 -12.75 11.0 -13.0 10.3 Q-13.05 9.05 -12.45 8.05 L-12.3 7.8 Q-12.15 7.55 -11.9 7.45 L-11.45 7.45 M-8.75 -1.9 L-9.0 -2.05 -8.75 -2.05 -8.65 -2.85 -8.75 -1.9 M-19.3 -7.3 Q-19.85 -4.9 -17.25 -5.3 L-16.75 -6.1 Q-16.3 -7.75 -17.45 -8.2 -17.25 -7.65 -18.05 -6.95 -18.5 -6.55 -18.9 -6.95 L-19.3 -7.3 M-11.4 13.45 L-11.1 13.4 Q-10.5 13.3 -10.25 12.85 L-9.55 12.65 -8.45 13.0 -8.35 13.65 -8.35 14.35 -8.35 14.5 -9.3 14.55 -10.0 14.35 -10.4 14.45 -10.6 14.45 -10.9 14.65 Q-10.6 13.85 -11.35 13.55 L-11.4 13.45 M-13.25 17.9 L-13.2 17.2 Q-12.95 16.1 -11.85 16.1 -9.85 16.6 -10.55 18.25 L-10.7 18.55 -11.15 19.05 Q-13.2 19.4 -13.25 17.9 M-15.7 19.25 L-15.6 19.8 -15.5 19.75 -15.45 20.25 -15.7 19.25" fill="#c2b2d7" fill-rule="evenodd" stroke="none"/>
    <path d="M17.7 -16.35 L17.25 -15.15 Q17.75 -13.65 19.05 -12.5 19.15 -10.5 17.5 -9.1 15.8 -7.65 18.25 -6.1 L18.55 -4.5 Q17.65 -3.3 15.7 -3.85 L15.6 -3.85 Q16.65 -5.2 15.4 -5.85 L15.85 -6.65 15.8 -6.75 Q15.6 -7.3 15.05 -7.35 14.2 -7.35 13.7 -6.7 L13.65 -6.55 13.65 -6.25 13.65 -6.1 13.85 -5.85 13.95 -5.65 13.8 -5.45 Q13.0 -3.8 14.85 -3.55 L14.75 -3.0 Q14.35 -2.45 14.35 -1.8 L14.35 -1.7 13.85 -0.35 13.8 -0.35 13.6 -0.15 11.25 -0.3 Q11.2 -1.1 10.65 -1.8 L11.8 -4.5 Q12.25 -5.55 11.8 -6.5 L12.45 -7.25 12.95 -9.2 13.1 -11.15 Q12.1 -11.35 11.5 -11.9 L11.55 -12.05 11.7 -12.65 11.8 -13.05 Q11.85 -14.45 10.65 -15.3 L11.15 -16.35 Q10.65 -17.15 10.6 -18.15 L10.6 -19.95 Q10.3 -20.55 10.4 -21.05 L10.55 -20.75 Q11.25 -19.7 12.3 -20.6 L12.5 -20.75 12.9 -19.9 12.75 -19.95 12.1 -19.6 Q10.85 -17.65 13.25 -17.4 L13.1 -15.85 13.0 -15.65 Q12.5 -14.45 13.0 -13.85 L12.95 -13.5 13.75 -11.85 15.5 -12.85 16.25 -12.9 16.45 -13.0 Q17.9 -14.45 16.8 -15.3 L16.9 -15.65 16.8 -16.5 17.7 -16.35 M17.75 -1.3 Q17.1 0.3 18.15 2.1 19.3 3.65 18.85 5.85 18.3 7.8 19.95 9.15 L19.65 9.4 19.55 9.5 18.8 11.3 18.85 12.05 18.8 12.25 17.2 12.6 17.05 12.7 16.8 13.05 Q16.1 13.7 16.2 14.65 L16.3 15.5 16.15 15.75 15.75 16.15 15.65 16.15 15.5 15.9 15.5 15.75 15.45 14.55 15.1 13.75 Q13.8 11.3 11.7 9.65 L12.65 7.6 Q13.05 8.5 14.75 8.2 L15.15 7.55 Q15.55 6.7 15.4 6.15 14.15 5.95 14.7 4.35 14.9 3.85 15.25 3.55 L15.5 3.5 15.85 3.45 16.8 4.15 Q17.45 2.5 15.65 1.9 L15.7 0.65 Q15.65 -0.45 16.5 -1.1 L16.65 -1.15 16.9 -1.25 16.95 -1.35 17.75 -1.3 M14.55 -9.8 L14.4 -9.8 14.1 -9.5 13.95 -9.4 Q13.9 -7.55 15.6 -8.4 L15.7 -8.85 15.5 -9.65 15.2 -9.75 14.85 -9.85 14.55 -9.8 M17.45 -9.75 Q18.85 -11.15 16.9 -11.65 16.55 -11.65 16.3 -11.35 15.2 -10.05 16.9 -9.6 17.2 -9.5 17.45 -9.75 M13.15 4.55 L13.35 4.4 13.8 5.05 13.6 5.0 Q13.35 5.05 13.15 5.2 L13.15 5.05 13.15 4.55 M16.45 6.1 L16.05 6.15 Q15.85 7.2 16.95 7.95 L17.9 7.95 18.5 7.3 Q19.05 5.2 17.0 5.0 L16.55 6.0 16.45 6.1 M15.0 8.7 Q14.65 8.85 14.4 9.3 14.0 9.75 13.95 10.2 L13.6 10.5 13.55 10.65 13.55 10.8 13.55 11.15 13.6 11.25 13.85 11.55 14.0 11.7 14.7 11.75 14.7 11.7 14.8 11.65 15.6 11.45 Q17.75 10.3 15.9 8.7 L15.0 8.7 M-7.6 -24.4 L-7.15 -23.5 -7.2 -23.5 -7.95 -22.1 -7.8 -21.15 Q-8.7 -20.8 -9.2 -19.95 -9.75 -18.9 -9.25 -17.75 -9.9 -17.3 -10.1 -16.55 L-10.3 -15.85 Q-11.15 -15.4 -11.2 -14.5 L-11.35 -13.5 -11.65 -13.35 -11.75 -13.3 Q-11.35 -15.2 -13.25 -15.6 L-13.05 -16.1 -12.95 -16.7 -12.7 -16.9 Q-11.5 -18.6 -12.75 -19.35 L-11.95 -20.15 -11.65 -19.95 -10.7 -19.95 Q-10.35 -20.1 -10.25 -20.4 -9.55 -21.95 -10.85 -22.3 L-10.75 -23.4 Q-10.45 -24.35 -9.65 -24.75 -8.4 -24.85 -7.6 -24.4 M-14.1 -11.5 L-14.35 -10.8 -14.6 -10.85 -14.2 -11.45 -14.1 -11.5 M-13.2 -4.1 L-12.95 -1.5 -13.85 -1.8 -15.05 -1.5 -15.1 -1.45 Q-15.25 -2.5 -16.8 -2.6 L-17.35 -2.05 -17.45 -1.0 -17.5 -1.0 -17.7 -0.9 -17.85 -0.85 Q-18.5 -0.25 -18.3 0.5 L-18.4 0.45 -19.5 -0.35 -19.25 -0.8 -19.1 -1.2 Q-19.0 -2.35 -19.3 -3.4 -18.95 -4.05 -18.2 -4.35 L-17.4 -4.35 Q-17.4 -3.8 -16.4 -3.35 L-16.2 -3.3 Q-15.35 -3.05 -14.9 -3.55 -14.4 -3.55 -13.65 -3.85 L-13.2 -4.1 M-11.7 7.15 L-11.6 7.35 -11.75 7.3 -11.7 7.15 M-9.75 8.3 L-8.95 8.4 Q-9.1 8.45 -9.25 8.6 L-9.6 8.9 -9.75 8.3 M-8.45 8.5 L-7.9 8.55 Q-7.15 8.65 -6.7 9.3 -6.45 10.25 -6.65 11.2 -7.4 14.55 -6.15 17.75 L-7.35 18.3 -7.7 18.55 -7.95 18.55 -8.3 18.8 -8.4 18.95 -8.4 19.15 -8.85 19.95 Q-10.05 22.45 -7.55 23.35 L-7.9 23.8 Q-8.6 24.6 -8.65 25.6 L-9.1 24.4 Q-10.55 23.3 -12.3 23.0 -14.05 22.7 -15.0 21.0 L-15.45 20.25 -15.5 19.75 Q-15.0 19.35 -14.85 18.8 L-14.6 17.0 Q-14.2 17.85 -13.25 17.9 -13.2 19.4 -11.15 19.05 L-10.7 18.55 -10.55 18.25 -10.35 18.35 -10.15 18.45 Q-11.5 19.3 -10.2 20.3 L-9.3 20.25 Q-8.15 19.15 -9.3 18.55 -8.65 18.45 -8.3 17.7 -7.2 15.4 -9.3 14.55 L-8.35 14.5 -8.35 14.35 -8.35 13.65 -8.45 13.0 -9.55 12.65 -9.35 12.45 Q-8.05 10.95 -9.75 10.4 L-9.65 10.1 -9.25 10.45 -8.35 10.4 Q-7.0 9.2 -8.45 8.5 M-16.5 -5.65 L-16.05 -6.55 -15.9 -6.9 -15.8 -7.7 -15.55 -7.6 -14.75 -7.45 -14.9 -7.35 -15.1 -7.35 -15.45 -7.1 Q-16.3 -6.55 -16.35 -5.7 L-16.5 -5.65 M-17.95 -13.1 L-18.05 -13.45 Q-18.4 -14.75 -17.2 -15.4 L-16.9 -15.65 Q-14.2 -15.7 -14.65 -13.2 L-14.7 -12.95 Q-14.95 -14.0 -16.55 -13.95 -17.5 -13.5 -17.75 -12.65 L-17.95 -13.1 M-11.8 -19.35 L-11.85 -19.2 Q-11.85 -18.7 -11.55 -19.0 L-11.55 -19.1 -11.8 -19.35 M-13.85 -7.8 L-13.75 -7.75 -14.0 -7.7 -13.85 -7.8 M-12.75 11.0 L-12.95 11.75 -12.95 12.35 Q-14.35 12.5 -15.05 11.1 -15.9 9.45 -14.55 8.25 L-14.35 8.2 -14.0 8.05 -14.0 8.0 -12.45 8.05 Q-13.05 9.05 -13.0 10.3 L-12.75 11.0 M-16.05 2.5 L-16.3 1.95 -15.7 1.85 -15.75 1.05 -15.65 0.85 Q-15.15 2.55 -13.55 2.35 -14.65 3.15 -13.45 4.05 L-12.75 4.2 -12.85 4.4 -13.05 4.95 -14.1 4.85 Q-13.75 2.6 -16.05 2.5 M-17.65 5.0 Q-16.6 5.6 -17.25 7.1 L-17.75 7.7 Q-19.6 8.1 -19.9 6.95 L-19.95 5.95 Q-19.8 4.85 -18.8 4.7 L-18.8 4.65 -18.75 4.7 -18.45 4.85 -17.65 5.0 M-10.9 14.65 L-10.9 14.7 -10.9 14.65 M-21.75 12.2 L-21.05 11.45 -20.85 11.4 -20.65 11.3 -20.6 11.2 -19.2 11.15 Q-19.7 11.55 -19.85 12.2 -20.3 13.75 -18.9 14.45 L-17.2 14.65 -17.35 15.9 Q-17.55 16.85 -18.45 17.0 -19.9 17.2 -20.55 16.6 -21.05 16.0 -20.9 14.8 L-20.85 14.6 -20.9 14.4 Q-21.05 13.1 -21.75 12.2" fill="#8e7aa9" fill-rule="evenodd" stroke="none"/>
    <path d="M11.5 -22.25 L11.7 -22.3 Q13.65 -21.95 12.5 -20.75 L12.3 -20.6 Q11.25 -19.7 10.55 -20.75 L10.4 -21.05 Q10.2 -21.7 10.85 -22.05 L11.5 -22.25 M12.9 -19.9 L14.0 -19.7 14.3 -19.6 14.4 -19.6 Q16.25 -18.7 14.55 -17.15 13.8 -16.55 13.3 -17.3 L13.25 -17.4 Q10.85 -17.65 12.1 -19.6 L12.75 -19.95 12.9 -19.9 M13.1 -15.85 L13.7 -16.6 13.85 -16.65 14.15 -16.7 14.5 -16.55 Q14.65 -16.85 15.05 -17.05 L16.25 -17.0 16.8 -16.5 16.9 -15.65 16.8 -15.3 15.95 -15.75 15.55 -15.7 Q14.8 -15.65 14.55 -14.95 14.15 -14.0 14.4 -13.5 13.4 -13.5 13.0 -13.85 12.5 -14.45 13.0 -15.65 L13.1 -15.85 M7.7 -9.3 L8.75 -9.5 9.2 -9.5 9.45 -9.5 Q9.95 -9.05 9.3 -8.65 L9.1 -8.55 6.45 -8.45 6.25 -8.65 Q6.3 -9.1 6.7 -9.2 L7.7 -9.3 M0.2 -8.6 L0.15 -8.55 0.05 -8.5 -0.05 -8.35 -0.1 -8.35 -0.25 -8.25 -0.3 -8.25 -0.95 -8.1 -4.65 -8.25 -5.35 -8.5 -5.4 -8.6 Q-5.3 -9.15 -4.75 -9.2 L-2.2 -9.1 -0.2 -8.9 0.05 -8.7 0.15 -8.65 0.2 -8.6 M17.45 -9.75 Q17.2 -9.5 16.9 -9.6 15.2 -10.05 16.3 -11.35 16.55 -11.65 16.9 -11.65 18.85 -11.15 17.45 -9.75 M14.55 -9.8 L14.85 -9.85 15.2 -9.75 15.5 -9.65 15.7 -8.85 15.6 -8.4 Q13.9 -7.55 13.95 -9.4 L14.1 -9.5 14.4 -9.8 14.55 -9.8 M14.85 -3.55 Q13.0 -3.8 13.8 -5.45 L13.95 -5.65 13.85 -5.85 13.65 -6.1 13.65 -6.25 13.65 -6.55 13.7 -6.7 Q14.2 -7.35 15.05 -7.35 15.6 -7.3 15.8 -6.75 L15.85 -6.65 15.4 -5.85 Q16.65 -5.2 15.6 -3.85 L15.5 -3.8 Q15.25 -3.5 14.85 -3.55 M13.35 4.4 Q13.05 3.8 13.4 2.9 13.85 1.65 15.05 1.75 L15.65 1.9 Q17.45 2.5 16.8 4.15 L15.85 3.45 15.5 3.5 15.25 3.55 Q14.9 3.85 14.7 4.35 14.15 5.95 15.4 6.15 15.55 6.7 15.15 7.55 L14.75 8.2 Q13.05 8.5 12.65 7.6 12.4 7.1 12.55 6.15 12.65 5.5 13.15 5.2 13.35 5.05 13.6 5.0 L13.8 5.05 13.35 4.4 M16.45 6.1 L16.55 6.0 17.0 5.0 Q19.05 5.2 18.5 7.3 L17.9 7.95 16.95 7.95 Q15.85 7.2 16.05 6.15 L16.45 6.1 M15.0 8.7 L15.9 8.7 Q17.75 10.3 15.6 11.45 L14.8 11.65 14.7 11.7 14.7 11.75 14.0 11.7 13.85 11.55 13.6 11.25 13.55 11.15 13.55 10.8 13.55 10.65 13.6 10.5 13.95 10.2 Q14.0 9.75 14.4 9.3 14.65 8.85 15.0 8.7 M17.6 14.55 L16.9 14.6 Q16.7 14.45 16.75 14.15 L16.85 13.85 17.0 13.75 17.2 13.7 17.55 13.8 17.65 13.95 17.7 14.25 17.6 14.55 M-11.75 -13.3 L-11.9 -12.7 Q-12.2 -11.85 -12.9 -11.75 L-13.95 -11.7 -14.7 -11.95 -14.7 -12.95 -14.65 -13.2 Q-14.2 -15.7 -16.9 -15.65 L-17.2 -15.4 Q-18.4 -14.75 -18.05 -13.45 L-17.95 -13.1 Q-20.05 -13.05 -19.9 -15.35 -19.8 -16.65 -18.7 -17.1 L-16.75 -16.65 -16.75 -16.95 Q-16.55 -18.25 -15.45 -18.75 L-15.05 -18.75 -15.1 -18.65 Q-15.55 -16.4 -13.15 -16.7 L-12.95 -16.7 -13.05 -16.1 -13.25 -15.6 Q-11.35 -15.2 -11.75 -13.3 M-14.35 -10.8 Q-13.65 -10.55 -13.45 -9.9 L-13.9 -9.45 Q-14.4 -8.35 -13.85 -7.8 L-14.0 -7.7 -13.75 -7.75 -13.2 -7.5 Q-12.3 -7.0 -12.8 -6.1 -13.15 -7.3 -14.9 -7.35 L-14.75 -7.45 -15.55 -7.6 -15.8 -7.7 Q-16.75 -8.2 -16.7 -9.15 L-17.7 -9.2 Q-19.45 -9.95 -18.45 -11.55 L-17.85 -12.3 -17.9 -11.55 Q-17.85 -10.95 -17.35 -10.7 -15.8 -9.85 -15.05 -10.9 L-14.6 -10.85 -14.35 -10.8 M-12.8 2.2 Q-11.55 2.7 -12.15 3.6 L-12.75 4.2 -13.45 4.05 Q-14.65 3.15 -13.55 2.35 L-12.8 2.2 M-11.8 6.9 L-11.7 7.15 -11.75 7.3 -11.6 7.35 -11.45 7.45 -11.9 7.45 Q-12.15 7.55 -12.3 7.8 L-12.45 8.05 -14.0 8.0 -14.0 8.05 -14.35 8.2 -14.55 8.25 Q-15.9 9.45 -15.05 11.1 -14.35 12.5 -12.95 12.35 L-12.95 11.75 -12.75 11.0 -12.6 10.75 -11.8 10.15 Q-10.45 10.1 -10.1 10.9 L-9.9 10.65 -9.75 10.4 Q-8.05 10.95 -9.35 12.45 L-9.55 12.65 -10.25 12.85 Q-10.5 13.3 -11.1 13.4 L-11.4 13.45 -11.65 13.45 -11.35 13.55 Q-10.6 13.85 -10.9 14.65 L-10.6 14.45 -10.4 14.45 -10.0 14.35 -9.3 14.55 Q-7.2 15.4 -8.3 17.7 -8.65 18.45 -9.3 18.55 -8.15 19.15 -9.3 20.25 L-10.2 20.3 Q-11.5 19.3 -10.15 18.45 L-10.35 18.35 -10.55 18.25 Q-9.85 16.6 -11.85 16.1 -12.95 16.1 -13.2 17.2 L-13.25 17.9 Q-14.2 17.85 -14.6 17.0 L-14.8 16.25 Q-14.9 15.65 -14.65 15.3 -16.4 15.5 -16.85 14.4 L-16.4 13.6 Q-15.9 12.3 -16.35 11.6 L-16.15 11.5 -16.35 11.2 -16.55 11.25 -16.55 11.3 Q-17.0 10.85 -18.0 10.7 L-18.9 10.9 -19.0 10.95 -18.95 10.7 -18.7 10.05 -18.5 9.75 -18.5 8.8 -18.7 8.8 -19.1 8.5 -19.8 9.05 -20.55 9.1 Q-21.55 8.6 -21.1 7.55 L-20.65 7.0 -20.5 7.0 -20.05 6.9 -19.9 6.95 Q-19.6 8.1 -17.75 7.7 L-17.25 7.1 Q-16.6 5.6 -17.65 5.0 -16.65 5.0 -16.3 3.95 -15.95 3.15 -16.05 2.5 -13.75 2.6 -14.1 4.85 L-13.05 4.95 Q-13.65 6.5 -11.8 6.9 M-7.7 18.55 L-7.35 18.6 Q-6.85 18.9 -7.05 19.5 L-7.3 19.9 -7.4 19.9 -8.05 19.9 -8.2 19.75 -8.35 19.6 -8.35 19.4 -8.4 19.15 -8.4 18.95 -8.3 18.8 -7.95 18.55 -7.7 18.55 M-17.4 -4.35 Q-17.4 -4.85 -16.8 -5.45 L-16.5 -5.65 -16.35 -5.7 -16.3 -5.1 Q-15.95 -3.65 -14.9 -3.55 -15.35 -3.05 -16.2 -3.3 L-16.4 -3.35 Q-17.4 -3.8 -17.4 -4.35 M-11.95 -20.15 Q-12.75 -20.85 -12.15 -21.9 L-11.6 -22.4 -10.85 -22.3 Q-9.55 -21.95 -10.25 -20.4 -10.35 -20.1 -10.7 -19.95 L-11.65 -19.95 -11.95 -20.15 M-11.8 -19.35 L-11.55 -19.1 -11.55 -19.0 Q-11.85 -18.7 -11.85 -19.2 L-11.8 -19.35 M-19.3 -7.3 L-18.9 -6.95 Q-18.5 -6.55 -18.05 -6.95 -17.25 -7.65 -17.45 -8.2 -16.3 -7.75 -16.75 -6.1 L-17.25 -5.3 Q-19.85 -4.9 -19.3 -7.3 M-17.45 -1.0 L-17.35 -2.05 -16.8 -2.6 Q-15.25 -2.5 -15.1 -1.45 -15.7 -1.0 -15.8 -0.3 -16.2 -1.2 -17.45 -1.0 M-9.2 8.1 L-9.85 8.1 -10.05 7.85 -10.3 7.6 -10.35 7.45 -10.35 7.15 -10.35 7.0 -10.3 6.9 -9.8 6.4 Q-8.05 6.65 -9.1 7.95 L-9.2 8.1 M-10.9 14.65 L-10.9 14.7 -10.9 14.65 M-12.45 13.8 L-12.0 13.45 -12.25 13.4 -12.5 13.55 -12.95 13.65 -13.35 13.55 -13.55 14.35 -13.65 14.6 -13.15 14.5 -12.6 14.55 -12.45 13.8" fill="#ffffff" fill-rule="evenodd" stroke="none"/>
    <path d="M19.95 9.15 L20.15 9.3 20.1 11.35 Q20.0 12.4 21.25 12.7 21.95 15.05 20.35 16.55 18.7 17.95 18.15 19.95 16.05 21.15 13.4 20.65 12.1 19.8 11.85 18.2 11.65 16.65 9.55 17.5 L8.15 15.35 9.35 12.6 Q9.8 11.15 9.3 9.75 L10.7 5.35 Q11.4 3.15 11.2 0.75 L11.25 -0.3 13.6 -0.15 13.8 -0.35 13.85 -0.35 12.65 2.3 Q13.1 3.4 13.15 4.55 L13.15 5.05 13.15 5.2 Q12.65 5.5 12.55 6.15 12.4 7.1 12.65 7.6 L11.7 9.65 Q13.8 11.3 15.1 13.75 L15.45 14.55 15.5 15.75 15.5 15.9 15.65 16.15 15.75 16.15 16.15 15.75 16.3 15.5 16.2 14.65 Q16.1 13.7 16.8 13.05 L17.05 12.7 17.2 12.6 18.8 12.25 18.9 12.25 18.8 11.3 19.55 9.5 19.65 9.4 19.95 9.15 M11.8 -6.5 L11.35 -7.25 Q10.65 -9.45 11.5 -11.8 L11.4 -11.55 10.95 -11.85 10.7 -11.85 10.6 -12.7 10.55 -13.0 10.55 -13.1 10.1 -15.35 10.0 -15.6 10.3 -15.5 10.0 -15.65 9.95 -15.7 9.85 -16.1 9.8 -16.4 Q9.65 -19.1 7.75 -21.05 L6.25 -24.3 5.7 -25.35 7.75 -26.0 Q8.65 -25.45 8.6 -24.05 L8.6 -24.0 7.5 -24.2 Q9.9 -23.95 11.5 -22.25 L10.85 -22.05 Q10.2 -21.7 10.4 -21.05 10.3 -20.55 10.6 -19.95 L10.6 -18.15 Q10.65 -17.15 11.15 -16.35 L10.65 -15.3 Q11.85 -14.45 11.8 -13.05 L11.7 -12.65 11.55 -12.05 11.5 -11.9 Q12.1 -11.35 13.1 -11.15 L12.95 -9.2 12.45 -7.25 11.8 -6.5 M-5.9 -15.8 L-7.05 -14.65 -7.6 -14.65 -7.7 -14.6 -8.1 -14.15 -8.25 -14.05 -9.75 -12.35 Q-8.95 -10.7 -9.1 -9.05 L-9.4 -5.5 -9.15 -5.1 Q-8.6 -4.0 -8.65 -2.85 L-8.75 -2.05 -9.0 -2.05 -8.75 -1.9 -9.35 -0.5 -9.4 -0.45 Q-9.5 0.0 -9.1 0.0 -8.5 0.6 -8.2 1.7 -5.95 4.05 -6.55 7.35 L-7.05 7.85 Q-5.6 8.7 -5.2 10.15 L-4.35 12.9 Q-5.55 14.25 -5.2 15.9 L-3.45 18.0 Q-2.5 18.9 -3.0 20.4 -4.0 21.65 -3.6 23.05 -3.2 24.45 -4.35 25.55 -6.1 27.0 -8.3 27.1 L-8.65 25.6 Q-8.6 24.6 -7.9 23.8 L-7.55 23.35 Q-10.05 22.45 -8.85 19.95 L-8.4 19.15 -8.35 19.4 -8.35 19.6 -8.2 19.75 -8.05 19.9 -7.4 19.9 -7.3 19.9 -7.05 19.5 Q-6.85 18.9 -7.35 18.6 L-7.7 18.55 -7.35 18.3 -6.15 17.75 Q-7.4 14.55 -6.65 11.2 -6.45 10.25 -6.7 9.3 -7.15 8.65 -7.9 8.55 L-8.45 8.5 -8.75 8.35 -8.95 8.4 -9.75 8.3 Q-10.2 7.45 -11.45 7.45 L-11.6 7.35 -11.7 7.15 -11.8 6.9 -11.65 6.9 Q-10.75 7.05 -10.4 6.2 -9.45 3.9 -12.1 3.55 L-12.15 3.6 Q-11.55 2.7 -12.8 2.2 L-12.65 2.1 -12.15 1.3 Q-11.35 -0.85 -12.95 -1.5 L-13.2 -4.1 -12.8 -4.85 Q-12.65 -5.55 -12.8 -6.1 -12.3 -7.0 -13.2 -7.5 L-12.55 -7.45 -12.0 -8.0 Q-11.3 -9.15 -12.5 -9.9 L-13.4 -9.95 -13.45 -9.9 Q-13.65 -10.55 -14.35 -10.8 L-14.1 -11.5 -13.95 -11.7 -12.9 -11.75 Q-12.2 -11.85 -11.9 -12.7 L-11.75 -13.3 -11.65 -13.35 -11.35 -13.5 -11.2 -14.5 Q-11.15 -15.4 -10.3 -15.85 L-10.1 -16.55 Q-9.9 -17.3 -9.25 -17.75 -9.75 -18.9 -9.2 -19.95 -8.7 -20.8 -7.8 -21.15 L-7.95 -22.1 -7.2 -23.5 -7.15 -23.5 Q-6.95 -23.0 -6.9 -22.35 -6.85 -20.95 -5.6 -20.0 -5.05 -19.1 -5.05 -18.05 -5.8 -17.3 -5.9 -16.2 L-5.9 -15.8 M14.75 -3.0 L14.45 -2.0 14.35 -1.7 14.35 -1.8 Q14.35 -2.45 14.75 -3.0 M17.6 14.55 L17.7 14.25 17.65 13.95 17.55 13.8 17.2 13.7 17.0 13.75 16.85 13.85 16.75 14.15 Q16.7 14.45 16.9 14.6 L17.6 14.55 M-9.2 8.1 L-9.1 7.95 Q-8.05 6.65 -9.8 6.4 L-10.3 6.9 -10.35 7.0 -10.35 7.15 -10.35 7.45 -10.3 7.6 -10.05 7.85 -9.85 8.1 -9.2 8.1 M-16.85 14.4 Q-16.4 15.5 -14.65 15.3 -14.9 15.65 -14.8 16.25 L-14.6 17.0 -14.85 18.8 Q-15.0 19.35 -15.5 19.75 L-15.6 19.8 -15.7 19.25 -15.7 19.2 Q-15.9 18.15 -16.85 18.35 -18.65 18.65 -20.15 17.85 L-20.55 16.6 Q-19.9 17.2 -18.45 17.0 -17.55 16.85 -17.35 15.9 L-17.2 14.65 -16.85 14.4 M-11.35 13.55 L-11.65 13.45 -11.4 13.45 -11.35 13.55 M-12.45 13.8 L-12.6 14.55 -13.15 14.5 -13.65 14.6 -13.55 14.35 -13.35 13.55 -12.95 13.65 -12.5 13.55 -12.25 13.4 -12.0 13.45 -12.45 13.8" fill="#715b8e" fill-rule="evenodd" stroke="none"/>
    <path d="M3.35 -26.0 L3.9 -25.5 Q5.55 -23.8 6.5 -21.75 7.45 -19.65 8.55 -17.65 9.1 -16.75 8.95 -16.15 L9.25 -15.75 9.35 -15.5 9.4 -15.35 9.6 -14.9 9.7 -14.25 10.0 -12.5 10.0 -12.35 9.95 -11.3 9.9 -11.1 9.9 -10.95 9.75 -10.95 9.65 -10.95 Q9.25 -10.9 9.1 -11.15 L7.6 -10.85 7.45 -10.8 5.65 -9.95 5.0 -9.95 4.7 -9.95 Q4.05 -10.05 4.0 -9.4 L4.1 -9.2 Q4.6 -8.6 5.5 -8.45 L5.65 -8.35 6.0 -8.05 Q6.65 -7.0 7.7 -6.75 L7.65 -6.7 Q6.5 -5.6 7.55 -4.5 7.7 -4.35 7.85 -4.35 L9.35 -4.15 10.45 -4.25 10.8 -4.6 10.8 -5.65 Q10.95 -4.9 10.7 -3.9 L10.0 -2.55 10.0 -2.4 9.95 -0.45 9.9 -0.3 9.9 -0.25 9.95 -0.15 9.95 -0.1 9.75 -0.05 9.65 -0.15 Q9.35 -0.05 9.2 -0.35 L9.05 -0.85 8.9 -0.95 9.15 -0.1 9.75 1.95 Q10.25 3.45 10.0 5.1 9.4 7.0 8.35 8.4 8.05 7.95 8.15 7.3 8.2 6.65 7.65 6.45 7.45 8.5 8.15 10.55 8.85 12.55 7.6 14.5 4.75 14.85 1.9 15.7 L1.2 15.85 0.9 15.9 -1.95 15.0 -3.2 13.8 Q-2.8 12.45 -3.25 11.15 -1.9 11.25 -1.2 12.6 L-1.0 12.85 Q-0.35 13.3 0.0 13.9 L5.05 12.9 4.95 11.45 4.3 11.1 Q3.7 10.8 3.4 11.6 L3.3 11.7 Q3.55 10.4 4.6 9.5 4.15 10.4 4.9 10.95 L4.75 9.3 4.7 7.95 Q4.25 7.1 4.2 6.15 L4.05 5.55 3.9 5.15 0.4 5.15 -0.05 4.8 -0.1 3.8 0.2 3.8 0.75 3.9 2.15 3.5 4.7 3.1 5.6 3.15 7.1 2.8 Q7.5 2.25 7.45 1.55 L7.1 1.05 6.95 0.6 7.65 0.75 Q7.3 0.45 6.85 0.3 L6.85 0.25 6.8 0.2 6.55 -0.15 6.4 -0.2 6.5 -0.2 6.5 -0.5 5.4 -0.7 6.3 -0.65 6.3 -1.05 6.3 -1.7 6.0 -1.35 5.5 -0.8 0.9 -1.0 Q-0.15 -1.4 -0.35 -2.35 L0.15 -2.4 1.6 -2.35 Q2.85 -1.3 4.2 -1.9 L4.45 -2.05 4.85 -2.2 5.75 -2.5 Q6.25 -2.75 6.75 -2.8 L7.25 -3.4 7.5 -4.15 Q7.0 -5.25 5.7 -5.5 L5.7 -7.15 4.85 -8.1 4.4 -8.55 4.25 -8.6 4.0 -8.6 3.7 -8.35 3.6 -8.5 Q2.85 -8.3 2.15 -7.8 L2.0 -7.6 1.8 -7.65 1.95 -7.95 1.4 -7.25 1.7 -7.65 1.5 -7.55 1.0 -6.4 0.7 -5.5 -0.95 -5.05 -1.4 -4.55 -1.85 -4.55 Q-2.05 -5.75 -3.5 -5.5 L-4.75 -5.2 -5.6 -5.95 -5.5 -5.75 -5.65 -5.7 Q-6.2 -3.9 -7.6 -2.8 L-7.95 -2.5 Q-8.05 -4.1 -8.6 -5.5 -8.1 -6.6 -8.2 -7.95 -8.35 -9.25 -7.75 -10.3 -7.9 -11.2 -8.45 -11.95 L-8.6 -12.3 -8.5 -12.4 -8.5 -12.85 -8.5 -12.9 -8.1 -13.25 -8.0 -13.3 -7.75 -13.9 -7.6 -14.05 -7.35 -14.35 -7.05 -14.65 -5.9 -15.8 -5.85 -15.85 -5.8 -15.9 -5.4 -15.05 -4.95 -13.85 Q-4.3 -12.6 -4.45 -11.35 L-2.75 -11.3 Q-2.55 -11.15 -2.35 -11.1 L-1.5 -10.8 -1.15 -10.8 -0.35 -10.4 -0.1 -10.4 0.0 -10.4 0.25 -10.45 0.3 -10.5 1.95 -10.6 2.75 -10.55 2.6 -10.2 3.25 -10.45 3.4 -10.4 3.55 -10.65 3.9 -10.85 4.05 -11.1 4.1 -11.15 4.05 -11.2 4.3 -11.4 4.5 -11.55 Q4.4 -11.95 4.75 -12.45 L5.35 -13.1 5.2 -14.8 5.2 -14.9 6.8 -16.2 7.35 -16.7 7.6 -16.95 7.6 -17.25 5.15 -16.4 5.15 -16.75 Q5.15 -17.2 5.45 -17.65 4.9 -20.95 3.8 -24.1 L2.85 -26.4 3.35 -26.0 M9.6 -7.0 L10.1 -7.3 9.9 -7.75 10.25 -7.0 10.45 -6.55 10.55 -6.35 9.6 -7.0 M0.95 -10.05 L0.95 -10.15 0.85 -10.15 -1.7 -10.4 -4.2 -10.9 Q-5.05 -10.75 -5.6 -10.3 L-5.8 -10.25 -5.9 -10.15 -5.9 -10.05 -6.05 -9.85 -6.1 -9.75 -6.25 -9.7 -6.3 -8.55 -6.15 -7.55 Q-5.7 -6.9 -4.85 -6.45 -2.9 -5.6 -0.9 -6.4 -0.7 -6.7 -0.3 -6.8 L0.35 -7.25 0.75 -7.55 2.05 -8.9 2.2 -9.2 Q2.35 -9.55 2.05 -9.75 1.55 -10.15 0.95 -10.05 M-3.55 -2.1 L-3.4 -2.75 -3.3 -2.9 -3.05 -3.2 -2.95 -3.2 -3.35 -2.5 -3.55 -2.1 M-2.65 -3.2 L-2.5 -3.15 -2.45 -3.1 Q-2.25 -2.7 -2.4 -2.2 L-2.45 -2.05 Q-2.5 0.15 -2.95 2.3 -3.1 3.1 -3.55 3.8 L-3.7 4.05 Q-5.0 6.0 -4.6 8.25 L-4.55 8.8 -4.65 8.7 -5.05 8.3 -5.5 7.8 -5.6 7.65 -5.15 6.2 -4.95 4.6 -4.95 4.45 -4.65 2.9 -4.45 2.4 -4.35 2.05 -4.15 1.7 Q-3.8 -1.0 -2.65 -3.2 M-0.15 6.45 L-1.1 9.45 -1.5 9.45 Q-0.65 7.15 -1.3 4.9 L-0.15 6.45" fill="#cc9999" fill-rule="evenodd" stroke="none"/>
    <path d="M3.35 -26.0 L2.85 -26.4 3.8 -24.1 Q4.9 -20.95 5.45 -17.65 5.15 -17.2 5.15 -16.75 L5.15 -16.4 3.35 -15.15 -0.8 -16.4 -2.05 -16.55 Q-2.7 -16.7 -3.1 -16.25 0.1 -15.0 3.15 -13.3 L5.2 -14.9 5.2 -14.8 5.35 -13.1 4.75 -12.45 Q4.4 -11.95 4.5 -11.55 L4.3 -11.4 4.05 -11.2 4.1 -11.15 Q3.4 -11.3 3.3 -11.95 L2.75 -10.55 1.95 -10.6 0.3 -10.5 0.25 -10.45 0.0 -10.4 -0.1 -10.4 -0.35 -10.4 -1.15 -10.8 -1.5 -10.8 -2.35 -11.1 Q-2.55 -11.15 -2.75 -11.3 L-4.45 -11.35 Q-4.3 -12.6 -4.95 -13.85 L-5.4 -15.05 -5.8 -15.9 -5.55 -16.15 -5.5 -16.2 -4.8 -16.85 Q-4.75 -17.45 -4.3 -17.9 -3.5 -18.75 -4.0 -20.0 -5.4 -21.05 -6.05 -22.5 -5.7 -23.9 -6.4 -24.95 L-7.1 -25.6 Q-2.95 -28.0 2.25 -26.9 L3.35 -26.0 M3.55 -10.65 L3.4 -10.4 3.25 -10.45 3.55 -10.65 M-8.5 -12.85 L-8.5 -12.4 -8.6 -12.3 -8.5 -12.85 M-7.95 -2.5 L-7.6 -2.8 Q-6.2 -3.9 -5.65 -5.7 L-5.5 -5.75 -5.6 -5.95 -4.75 -5.2 -3.5 -5.5 Q-2.05 -5.75 -1.85 -4.55 L-1.4 -4.55 -1.35 -3.6 Q-1.4 -2.35 -0.35 -2.35 -0.15 -1.4 0.9 -1.0 L5.5 -0.8 6.0 -1.35 6.3 -1.7 6.3 -1.05 6.3 -0.65 5.4 -0.7 6.5 -0.5 6.5 -0.2 6.4 -0.2 6.55 -0.15 6.8 0.2 6.85 0.25 6.85 0.3 5.4 0.05 5.15 0.1 4.95 0.1 Q4.25 0.2 3.6 0.6 L-0.65 0.45 Q-1.8 0.6 -2.5 1.3 L-0.65 0.9 3.55 1.1 Q5.0 0.45 6.4 0.5 L6.95 0.6 7.1 1.05 7.45 1.55 Q7.5 2.25 7.1 2.8 L5.6 3.15 4.7 3.1 2.15 3.5 0.75 3.9 0.2 3.8 -0.1 3.8 -0.05 4.8 0.4 5.15 3.9 5.15 4.05 5.55 4.2 6.15 Q4.25 7.1 4.7 7.95 L4.75 9.3 4.9 10.95 Q4.15 10.4 4.6 9.5 3.55 10.4 3.3 11.7 L3.4 11.6 Q3.7 10.8 4.3 11.1 L4.95 11.45 5.05 12.9 0.0 13.9 Q-0.35 13.3 -1.0 12.85 L-1.2 12.6 Q-1.9 11.25 -3.25 11.15 L-3.5 10.45 -4.65 8.7 -4.55 8.8 -4.6 8.25 Q-5.0 6.0 -3.7 4.05 L-3.55 3.8 Q-3.1 3.1 -2.95 2.3 -2.5 0.15 -2.45 -2.05 L-2.4 -2.2 Q-2.25 -2.7 -2.45 -3.1 L-2.5 -3.15 -2.65 -3.2 -2.5 -3.45 -2.65 -3.6 -2.95 -3.2 -3.05 -3.2 -3.3 -2.9 -3.4 -2.75 -3.55 -2.1 Q-4.85 0.15 -5.35 2.75 L-5.5 2.5 -6.2 1.8 -6.45 1.5 -6.5 1.45 -6.75 1.15 -6.9 1.3 Q-7.7 0.8 -8.05 -0.25 L-7.95 -2.5 M1.0 -6.4 L1.5 -7.55 1.7 -7.65 1.4 -7.25 1.0 -6.4 M1.8 -7.65 L2.0 -7.6 2.15 -7.8 Q2.85 -8.3 3.6 -8.5 L3.7 -8.35 4.0 -8.6 4.25 -8.6 4.4 -8.55 4.85 -8.1 4.85 -8.05 4.4 -8.3 4.25 -8.4 4.3 -8.3 4.9 -7.25 5.1 -6.6 Q5.35 -5.65 5.2 -4.5 L6.1 -4.5 Q6.65 -4.15 6.55 -3.45 5.95 -3.0 5.2 -3.05 4.05 -1.55 2.65 -2.5 1.3 -3.45 -0.2 -2.95 -0.8 -3.15 -0.7 -3.6 L-0.8 -4.4 Q-0.25 -4.95 0.55 -4.85 1.25 -5.3 1.35 -6.25 1.45 -7.05 1.8 -7.65 M9.75 -0.05 L9.95 -0.1 9.95 -0.15 10.15 0.4 9.75 -0.05 M10.8 -5.65 L10.8 -4.6 10.45 -4.25 9.35 -4.15 7.85 -4.35 Q7.7 -4.35 7.55 -4.5 6.5 -5.6 7.65 -6.7 L7.7 -6.75 8.65 -6.7 9.6 -7.0 10.55 -6.35 10.75 -5.85 10.8 -5.65 M3.15 -16.7 Q3.7 -16.95 3.85 -17.65 3.4 -18.65 2.45 -19.0 1.45 -18.7 1.8 -17.5 2.25 -16.8 3.15 -16.7 M2.05 -20.45 Q2.75 -20.7 2.6 -21.4 2.5 -22.05 1.85 -22.2 1.2 -22.35 1.15 -21.7 1.1 -20.65 2.05 -20.45 M1.5 -23.9 Q1.35 -24.4 0.85 -24.45 L0.7 -24.05 Q0.85 -23.55 1.35 -23.6 L1.5 -23.9 M3.7 -5.2 L3.3 -5.4 Q2.8 -5.1 2.6 -4.5 L3.7 -5.2 M-4.35 2.05 L-4.45 2.4 -4.65 2.9 -4.35 2.05 M-0.15 6.45 L-1.3 4.9 Q-0.65 7.15 -1.5 9.45 L-1.1 9.45 -0.15 6.45" fill="#eed0bb" fill-rule="evenodd" stroke="none"/>
    <path d="M7.7 -6.75 Q6.65 -7.0 6.0 -8.05 L5.65 -8.35 5.5 -8.45 Q4.6 -8.6 4.1 -9.2 L4.0 -9.4 Q4.05 -10.05 4.7 -9.95 L5.0 -9.95 5.65 -9.95 5.5 -9.85 5.55 -9.8 5.6 -9.8 6.25 -9.3 5.9 -9.55 6.0 -9.6 6.6 -9.85 7.1 -10.05 7.4 -10.05 9.35 -10.2 8.85 -9.65 9.35 -10.2 Q9.85 -10.05 9.85 -9.4 L9.75 -9.05 9.65 -8.85 9.75 -8.25 9.9 -7.75 10.1 -7.3 9.6 -7.0 8.65 -6.7 7.7 -6.75 M7.7 -9.3 L6.7 -9.2 Q6.3 -9.1 6.25 -8.65 L6.45 -8.45 9.1 -8.55 9.3 -8.65 Q9.95 -9.05 9.45 -9.5 L9.2 -9.5 8.75 -9.5 7.7 -9.3 M-6.1 -9.75 L-6.15 -9.75 -6.0 -9.75 -5.9 -9.8 -5.7 -9.8 -5.5 -10.05 -4.55 -10.3 -4.45 -10.3 -4.05 -10.3 Q-2.85 -10.35 -2.0 -9.65 L-1.0 -9.5 -0.7 -9.45 -0.55 -9.45 -0.35 -9.6 0.1 -9.75 0.25 -9.7 0.3 -9.7 0.55 -9.7 0.75 -9.75 0.8 -9.8 0.95 -10.05 Q1.55 -10.15 2.05 -9.75 2.35 -9.55 2.2 -9.2 L2.05 -8.9 0.75 -7.55 0.35 -7.25 -0.3 -6.8 Q-0.7 -6.7 -0.9 -6.4 -2.9 -5.6 -4.85 -6.45 -5.7 -6.9 -6.15 -7.55 L-6.3 -8.55 -6.25 -9.7 -6.1 -9.75 M0.2 -8.6 L0.15 -8.65 0.05 -8.7 -0.2 -8.9 -2.2 -9.1 -4.75 -9.2 Q-5.3 -9.15 -5.4 -8.6 L-5.35 -8.5 -4.65 -8.25 -0.95 -8.1 -0.3 -8.25 -0.25 -8.25 -0.1 -8.35 -0.05 -8.35 0.05 -8.5 0.15 -8.55 0.2 -8.6 M-5.5 2.5 L-5.35 2.75 Q-4.85 0.15 -3.55 -2.1 L-3.35 -2.5 -2.95 -3.2 -2.65 -3.6 -2.5 -3.45 -2.65 -3.2 Q-3.8 -1.0 -4.15 1.7 L-4.35 2.05 -4.65 2.9 -4.95 4.45 -4.95 4.6 -5.15 6.2 -5.3 5.6 Q-5.7 4.05 -5.5 2.5" fill="#9c4e4e" fill-rule="evenodd" stroke="none"/>
    <path d="M-5.6 -10.3 L-5.55 -10.3 -5.9 -10.05 -5.9 -10.15 -5.8 -10.25 -5.6 -10.3" fill="#cc3300" fill-rule="evenodd" stroke="none"/>
  </g>
</svg>
