<?xml version="1.0" encoding="UTF-8" standalone="no"?>
<svg xmlns:xlink="http://www.w3.org/1999/xlink" height="60.7px" width="46.5px" xmlns="http://www.w3.org/2000/svg">
  <g transform="matrix(1.0, 0.0, 0.0, 1.0, 23.75, 34.15)">
    <path d="M-2.2 14.6 L-2.3 14.9 -2.35 16.8 -2.15 17.75 -1.75 17.9 -1.25 18.15 -1.0 19.0 -0.65 20.55 Q-0.5 21.35 -0.5 22.15 L-0.7 23.75 Q-0.85 24.95 -1.85 25.75 -2.8 26.55 -3.9 26.55 L-5.2 26.5 -7.0 25.75 -8.2 25.3 -9.35 23.35 -10.7 21.55 -12.3 20.1 -14.15 18.8 -16.95 17.0 -19.6 14.75 -21.1 13.0 -22.15 11.0 -22.45 8.75 -22.0 8.55 -21.45 8.4 -21.25 8.25 -21.15 8.05 -21.25 7.9 -21.35 7.55 -21.65 6.8 -21.65 6.45 -21.2 5.25 -21.05 4.05 -21.3 3.65 -21.3 2.9 -21.0 1.3 -21.75 0.4 Q-22.75 -1.0 -22.5 -2.85 -22.45 -3.6 -22.65 -4.15 L-23.15 -5.7 -23.45 -7.0 -23.05 -8.55 -23.6 -10.5 Q-23.85 -11.6 -23.6 -12.65 L-22.9 -14.15 -21.8 -15.6 -21.9 -16.35 -22.1 -17.8 -22.15 -19.3 -21.75 -20.55 Q-20.9 -21.85 -19.7 -22.8 L-17.8 -24.25 Q-16.95 -24.9 -16.45 -25.8 -15.85 -26.8 -15.55 -27.9 L-15.0 -28.35 -13.5 -29.45 -12.35 -30.05 -10.45 -30.4 -8.6 -31.0 Q-7.7 -31.25 -7.05 -32.0 -6.25 -32.95 -5.1 -33.5 L-3.55 -34.1 -1.8 -34.15 -0.15 -34.05 1.1 -33.15 1.7 -32.65 2.55 -31.7 4.05 -32.5 6.3 -33.75 Q7.55 -34.4 8.8 -33.75 L9.65 -33.5 10.45 -33.25 11.25 -33.0 11.55 -32.2 Q11.7 -31.4 12.0 -30.7 12.55 -29.65 13.7 -29.65 14.7 -29.5 15.55 -28.55 L16.6 -26.7 16.75 -24.7 16.6 -23.25 17.2 -22.95 18.2 -21.75 19.05 -20.0 Q19.35 -19.0 19.9 -18.1 L21.15 -16.35 21.25 -15.4 Q21.4 -14.2 21.85 -12.8 L21.9 -12.0 Q21.75 -11.15 21.25 -10.45 L20.65 -9.65 21.7 -8.0 22.35 -6.15 21.75 -4.3 Q21.5 -2.9 21.9 -1.45 L21.85 -0.6 21.35 0.25 20.65 1.1 20.45 3.4 20.4 4.6 20.2 5.7 20.85 6.55 21.7 7.1 22.45 7.6 22.65 8.15 22.75 9.8 22.65 11.75 22.3 13.65 21.75 15.4 20.25 19.0 19.15 21.6 18.45 23.35 17.7 24.2 16.9 24.8 15.35 25.05 Q14.25 24.95 13.55 24.1 L12.75 22.85 12.35 21.35 12.05 19.8 12.45 19.25 12.55 18.85 12.55 18.45 11.55 17.25 Q10.9 16.4 10.6 15.5 10.35 14.6 10.4 13.65 L10.7 12.05 Q11.1 10.85 10.1 9.85 L9.35 9.2 Q9.55 8.45 9.2 7.8 L8.85 7.4 6.95 8.75 6.8 9.9 6.95 11.45 6.95 11.6 6.8 13.0 6.4 14.3 6.35 13.25 6.1 11.35 6.05 9.5 6.1 9.05 5.7 8.7 5.35 8.7 4.7 8.9 4.45 8.9 3.3 8.9 Q2.45 8.9 1.8 8.4 L0.45 7.3 -0.75 6.05 -1.9 4.75 -1.35 4.9 -0.05 5.85 1.4 7.15 2.4 7.45 3.6 7.65 4.0 7.5 5.75 7.4 7.25 7.5 7.8 7.35 Q9.1 6.9 9.3 5.7 L9.7 3.55 Q9.9 2.55 10.25 1.45 L11.2 -1.2 11.95 -3.2 12.5 -4.45 12.85 -5.85 12.9 -7.2 12.85 -7.95 12.65 -8.55 12.6 -8.9 Q12.95 -9.4 12.75 -10.0 L12.55 -10.3 11.8 -10.0 12.45 -10.4 11.9 -10.6 11.4 -10.55 11.35 -10.55 10.85 -10.45 10.75 -10.2 9.95 -9.9 9.8 -10.3 Q9.6 -11.05 9.2 -10.6 L8.35 -10.55 8.3 -10.4 8.15 -10.95 7.55 -11.2 7.55 -11.3 7.55 -11.45 7.85 -11.7 7.95 -11.7 8.3 -11.8 8.7 -11.5 9.45 -11.65 10.15 -11.7 10.9 -11.6 11.65 -11.4 12.3 -11.25 12.75 -11.35 13.05 -11.5 13.35 -12.2 13.45 -13.9 13.3 -15.15 12.9 -16.2 12.4 -17.35 11.9 -18.35 11.5 -19.45 11.2 -20.55 10.9 -21.75 10.85 -21.8 10.8 -21.85 10.5 -22.0 10.4 -22.05 9.75 -22.85 9.0 -24.0 Q8.35 -24.8 7.3 -24.6 L5.5 -24.65 3.6 -24.65 1.35 -24.45 Q-0.4 -24.1 -2.05 -23.0 L-1.95 -22.25 Q-1.85 -21.3 -2.45 -20.6 L-3.2 -19.65 -4.15 -18.05 -4.7 -16.4 Q-4.85 -15.85 -5.15 -15.5 -5.85 -14.6 -6.05 -13.6 L-5.75 -13.2 -5.4 -12.7 -5.65 -11.15 -6.1 -9.7 Q-6.6 -8.5 -6.1 -7.5 -5.6 -6.5 -6.0 -5.45 -5.1 -5.15 -4.7 -4.3 L-4.15 -2.55 Q-3.65 -0.85 -4.8 0.65 -5.4 1.6 -4.85 2.75 L-4.3 3.85 -4.05 5.2 -4.15 6.2 Q-4.35 7.1 -4.05 7.95 -3.6 9.25 -2.6 9.7 L-2.3 10.95 -1.9 12.9 Q-1.75 13.9 -2.2 14.6 M10.4 -31.15 Q9.95 -32.05 9.1 -32.45 L7.65 -33.0 Q6.45 -33.2 5.7 -32.65 L3.2 -30.45 2.1 -30.5 0.8 -31.7 -0.2 -32.95 -2.15 -32.85 -3.65 -32.4 -5.25 -32.2 -6.65 -30.95 -4.7 -30.75 -4.2 -30.7 -4.95 -30.5 -6.35 -30.35 -7.95 -30.1 -10.55 -29.35 -13.55 -28.35 -14.35 -26.05 -12.6 -26.25 -11.0 -26.8 -10.2 -26.95 -9.45 -26.95 -7.85 -26.3 -10.2 -25.75 -12.45 -24.9 -14.25 -24.7 -15.95 -24.3 -17.05 -23.6 -18.0 -23.0 -18.9 -22.25 -19.85 -21.5 -20.9 -20.1 -21.05 -19.1 -20.65 -17.6 -20.3 -16.75 -20.35 -16.6 -21.35 -14.85 -22.25 -13.2 Q-22.45 -12.5 -22.25 -11.65 L-21.7 -10.4 -21.05 -10.75 -19.9 -11.55 -18.75 -12.25 -17.55 -12.8 -15.9 -13.4 -12.9 -13.45 -11.55 -13.05 Q-11.7 -12.85 -11.85 -12.9 L-12.55 -12.75 -13.25 -12.75 -16.25 -12.4 -18.65 -11.5 -20.9 -10.1 -21.75 -9.4 Q-22.4 -8.7 -22.45 -7.5 L-22.45 -5.95 -21.25 -5.05 Q-21.0 -4.3 -21.05 -3.6 L-21.1 -2.15 Q-21.1 -0.65 -19.7 0.0 L-18.5 0.5 -17.3 0.8 -16.1 0.9 -14.25 0.65 -12.25 0.7 -11.95 0.8 -10.45 1.2 -10.35 1.25 -11.45 1.45 -11.95 1.55 -12.95 1.65 -14.85 1.6 -15.4 1.95 -16.95 2.05 -18.45 1.75 -19.8 1.4 -20.05 2.4 -20.05 3.1 -19.95 3.4 -19.5 3.7 -18.2 4.0 Q-17.1 4.35 -16.15 5.0 L-14.95 5.55 Q-14.45 5.75 -13.85 6.05 L-13.1 6.45 -16.35 6.15 -18.0 5.25 -19.65 5.35 -20.6 5.7 -20.6 6.6 -20.35 7.6 Q-20.15 8.6 -21.2 9.05 L-20.55 10.45 -20.05 11.8 -20.0 12.05 Q-19.8 12.95 -18.95 13.45 L-18.2 14.1 -17.45 14.85 -15.9 16.05 -14.3 17.2 Q-13.45 17.7 -12.7 18.3 L-11.25 19.7 -10.05 21.05 -9.35 22.05 -8.7 23.0 -8.7 23.05 -8.35 23.55 -7.35 24.75 -6.25 24.8 -4.35 25.3 -3.05 25.45 Q-2.1 25.25 -1.95 24.55 -1.65 22.9 -1.75 21.4 L-1.95 20.3 -2.3 19.55 -3.0 18.05 -3.25 16.6 -3.2 14.9 -3.0 13.75 Q-2.8 12.55 -3.4 11.7 L-4.2 10.7 -5.55 8.45 Q-5.05 7.5 -5.1 6.4 L-5.3 4.8 -5.6 3.55 Q-6.05 2.15 -5.9 0.5 -5.1 -0.1 -5.05 -1.05 L-5.25 -2.85 -5.55 -4.05 Q-6.65 -4.7 -6.75 -6.0 L-6.9 -7.6 -6.8 -9.25 -6.5 -11.15 Q-6.2 -12.55 -7.4 -13.6 -6.35 -14.25 -5.9 -15.6 L-5.5 -17.05 -4.8 -18.85 -3.55 -20.4 -3.1 -23.0 -2.6 -23.6 -1.2 -24.45 Q-0.7 -24.8 -0.25 -25.6 L0.05 -26.55 0.1 -27.1 0.15 -27.2 0.75 -28.15 1.35 -28.75 5.05 -28.85 6.65 -27.45 Q6.75 -27.35 6.95 -27.3 L7.3 -27.4 7.8 -27.55 9.15 -26.1 9.75 -24.85 10.7 -23.55 11.95 -22.5 12.4 -20.8 12.85 -19.2 13.55 -17.65 14.15 -16.15 Q14.5 -15.15 14.45 -14.1 L14.15 -12.25 13.75 -10.35 13.7 -9.4 13.85 -7.55 13.7 -5.75 13.3 -3.95 12.65 -2.2 11.9 -0.55 11.2 1.2 10.75 3.0 10.45 4.9 10.4 5.85 9.75 7.25 10.85 8.65 11.3 9.8 11.45 11.35 11.35 12.9 11.2 14.5 12.25 16.3 12.85 18.05 13.05 20.0 12.95 22.0 13.95 22.9 15.05 24.0 16.6 23.95 17.8 22.65 18.65 20.95 19.1 19.25 19.65 17.2 20.15 15.6 20.8 13.95 21.25 12.4 21.45 10.6 Q21.45 9.7 20.95 9.0 L20.65 8.65 20.25 9.95 Q19.95 11.35 19.3 12.4 L18.45 13.95 17.55 15.4 17.1 16.0 16.7 16.6 16.2 17.2 16.95 14.95 17.45 13.85 18.0 12.8 18.3 12.35 19.05 10.75 19.75 9.2 20.0 7.5 19.1 7.15 17.9 8.0 16.65 8.8 Q15.65 9.5 14.6 9.7 L13.8 9.95 14.5 9.35 15.95 8.4 17.95 6.95 19.3 6.05 19.25 4.6 18.85 3.3 17.3 3.15 15.9 2.6 14.35 2.2 13.8 2.2 13.2 2.3 13.95 1.7 15.85 1.75 17.4 2.15 18.85 2.5 Q20.6 0.8 20.3 -1.65 L19.9 -2.7 18.9 -3.3 18.8 -3.3 18.7 -3.3 18.6 -3.3 17.6 -3.7 16.85 -4.6 Q16.95 -4.5 17.05 -4.5 L20.2 -4.25 20.9 -5.5 20.85 -6.8 20.35 -8.15 19.85 -9.45 19.75 -9.5 17.25 -10.5 16.95 -10.6 15.8 -11.0 17.15 -11.45 20.65 -11.0 20.85 -12.1 20.75 -13.0 Q20.25 -14.55 19.4 -15.9 L18.55 -17.35 18.1 -17.75 17.65 -17.95 17.0 -18.05 18.1 -18.8 17.95 -20.15 17.4 -21.4 16.55 -22.35 15.6 -23.4 15.0 -23.35 14.5 -23.1 14.35 -23.0 13.5 -23.1 13.8 -23.5 14.3 -23.8 Q15.2 -24.15 15.55 -24.9 L15.65 -25.8 15.15 -26.85 14.4 -27.8 13.5 -28.5 12.5 -29.2 12.0 -29.4 11.45 -29.55 10.85 -29.2 10.25 -29.25 10.7 -30.35 10.4 -31.15 M3.45 -27.3 L1.75 -27.4 Q1.2 -26.7 1.0 -25.8 L0.95 -25.15 8.75 -25.3 8.35 -26.15 6.25 -25.95 5.6 -26.05 4.85 -26.5 Q4.2 -27.05 3.45 -27.3 M-0.1 -19.45 Q2.5 -19.55 5.1 -18.6 L6.1 -19.0 Q7.65 -19.65 9.4 -19.65 L6.95 -18.1 6.7 -17.95 Q5.55 -17.25 4.3 -17.5 2.1 -18.85 -0.05 -19.45 L-0.15 -19.45 -0.1 -19.45 M7.65 -16.25 L10.2 -17.25 10.65 -17.35 7.15 -14.65 5.7 -13.5 5.05 -13.9 3.75 -14.65 0.6 -16.0 0.4 -16.75 Q3.0 -16.4 5.25 -15.2 L6.05 -15.2 7.65 -16.25 M3.1 -11.8 Q2.4 -11.6 2.8 -11.6 3.35 -11.75 3.35 -11.35 L3.2 -11.0 2.5 -11.1 0.6 -10.55 0.4 -10.25 0.2 -10.05 -0.05 -9.9 Q-0.25 -9.9 -0.3 -10.0 L-0.75 -10.55 -1.25 -10.95 -1.5 -10.7 -2.35 -10.65 -3.2 -10.75 -3.35 -11.0 -3.4 -11.25 -1.7 -11.65 -0.05 -11.95 1.7 -11.8 3.1 -11.8 M6.45 -10.05 L6.3 -11.2 6.6 -11.1 6.95 -10.75 7.05 -10.55 7.05 -10.5 7.1 -10.4 7.1 -10.2 7.1 -9.95 7.1 -9.7 6.9 -6.7 6.75 -6.0 6.7 -6.45 6.7 -6.85 6.7 -7.0 6.65 -7.8 6.65 -7.95 6.45 -10.05 M8.15 -3.4 Q8.05 -2.9 7.5 -2.55 L6.95 -2.25 6.55 -2.25 6.4 -2.25 Q3.6 -2.4 0.95 -3.3 L1.05 -4.1 1.85 -3.3 5.15 -2.8 Q6.8 -2.35 8.2 -3.65 L8.15 -3.4 M6.4 0.5 L7.35 0.15 7.45 0.1 8.0 -0.25 8.15 -0.1 8.0 0.05 7.5 0.45 5.9 1.25 Q4.3 1.0 3.0 0.25 1.7 -0.6 -0.15 -0.1 L-0.15 -0.75 Q2.25 -1.3 4.1 0.0 5.2 0.8 6.4 0.5 M3.65 13.0 L2.6 12.85 4.3 11.0 Q4.65 12.15 3.65 13.0 M-9.8 -18.95 L-9.15 -18.95 -9.05 -18.95 -8.7 -18.65 -8.9 -18.6 -9.5 -18.4 Q-11.2 -17.95 -12.95 -18.4 L-13.0 -18.4 Q-15.2 -19.0 -17.0 -17.65 -16.55 -19.1 -14.85 -19.35 L-9.8 -18.95 M-12.9 -6.85 L-12.9 -6.8 -12.0 -6.55 -11.2 -6.3 -11.35 -6.3 -11.5 -6.3 -12.8 -6.2 -15.05 -5.8 -16.55 -5.85 -17.75 -5.25 Q-16.4 -6.6 -14.4 -6.95 L-13.1 -6.85 -12.9 -6.85 M-10.85 6.45 L-9.65 6.65 -10.85 6.65 -10.85 6.45 M-15.65 11.15 Q-13.95 12.05 -12.0 12.6 -9.25 13.25 -8.25 16.4 L-6.05 17.85 -5.85 17.95 Q-7.0 18.25 -7.8 17.6 L-8.15 17.35 -9.65 16.4 Q-10.25 14.7 -11.35 13.8 L-12.15 13.3 -12.75 13.1 -12.95 13.05 -13.05 13.0 -13.1 13.0 -13.85 12.8 Q-15.8 12.05 -17.0 10.3 L-15.65 11.15" fill="#000000" fill-rule="evenodd" stroke="none"/>
    <path d="M5.7 -32.65 Q6.45 -33.2 7.65 -33.0 L9.1 -32.45 Q9.95 -32.05 10.4 -31.15 9.45 -30.75 8.75 -29.9 8.4 -29.4 8.55 -28.85 L6.45 -30.3 6.35 -30.6 Q6.7 -32.15 5.7 -32.65 M14.3 -23.8 L13.8 -23.5 13.4 -23.7 13.0 -23.65 12.9 -23.65 12.6 -23.3 10.7 -25.35 10.85 -25.25 Q10.95 -25.25 11.15 -25.4 12.15 -26.2 13.3 -26.9 L14.5 -25.35 Q14.1 -24.55 14.3 -23.8 M14.35 -23.0 L14.5 -23.1 15.1 -22.35 15.15 -22.3 15.1 -22.3 14.8 -22.0 Q14.45 -21.3 15.05 -20.9 L15.65 -20.9 15.8 -21.05 15.9 -21.2 15.65 -21.8 Q16.35 -20.75 16.0 -19.45 15.7 -18.1 16.35 -17.5 L16.0 -16.95 Q15.65 -15.15 17.1 -13.65 17.75 -13.0 18.7 -13.35 L19.05 -13.5 19.25 -12.35 Q17.95 -12.55 17.4 -11.8 L17.65 -12.1 16.5 -12.75 15.55 -12.5 Q15.8 -15.7 14.85 -18.85 L13.6 -21.8 Q14.65 -22.5 14.35 -23.0 M13.8 2.2 L14.35 2.2 14.95 2.6 14.3 2.6 14.25 2.65 13.75 2.7 13.5 3.0 13.7 2.35 13.8 2.2 M18.3 12.35 L18.0 12.8 17.45 13.85 16.95 14.95 16.2 17.2 16.7 16.6 Q16.25 17.25 16.25 17.95 L16.35 17.4 16.25 17.4 Q15.05 17.75 14.6 18.7 L14.95 19.45 12.85 15.25 12.7 12.85 13.7 12.85 13.75 12.85 Q13.6 13.25 13.7 13.8 L14.0 14.55 Q14.8 15.7 15.55 14.55 L15.8 13.9 Q16.2 12.25 14.9 11.9 16.0 11.1 17.3 10.8 L17.45 10.7 18.3 12.35 M17.1 16.0 L17.55 15.4 17.5 15.6 17.1 16.0 M-8.7 23.0 L-9.35 22.05 -8.9 22.4 -8.7 23.0 M-20.0 12.05 L-20.05 11.8 -20.55 10.45 -21.2 9.05 Q-20.15 8.6 -20.35 7.6 L-20.6 6.6 -20.6 5.7 -19.65 5.35 -18.0 5.25 -16.35 6.15 -16.65 6.1 -16.7 6.15 -16.95 6.1 Q-17.4 6.3 -17.3 6.7 -17.1 8.2 -16.05 9.1 L-15.15 9.05 -14.8 8.8 -14.5 8.95 -14.15 9.0 -12.35 9.1 Q-12.75 10.5 -12.0 11.2 L-14.35 10.8 -15.0 10.85 -15.6 10.95 -15.65 11.15 -17.0 10.3 Q-15.8 12.05 -13.85 12.8 L-14.55 12.5 -13.9 12.85 Q-13.4 13.4 -12.6 13.3 L-12.15 13.3 -11.35 13.8 -11.7 13.8 -11.75 13.8 -12.65 13.6 -12.7 13.65 -12.75 13.65 -12.85 13.75 -12.9 13.85 -12.95 14.3 -12.95 14.45 -12.9 14.5 Q-13.25 15.0 -13.05 15.55 L-14.65 14.5 -15.6 13.9 Q-17.7 12.65 -20.0 12.05 M-13.85 6.05 Q-14.45 5.75 -14.95 5.55 L-16.15 5.0 Q-17.1 4.35 -18.2 4.0 L-19.5 3.7 -19.95 3.4 -20.05 3.1 -20.05 2.4 -19.8 1.4 -18.45 1.75 -16.95 2.05 -15.4 1.95 -15.6 2.15 -15.6 2.25 -15.6 2.35 -15.6 2.6 -15.05 3.0 -12.8 3.6 -12.5 3.65 Q-12.7 4.5 -12.55 5.35 L-12.95 5.7 -13.6 5.9 -13.85 6.05 M-12.95 1.65 L-11.95 1.55 -11.95 1.6 -11.95 2.0 -12.95 1.65 M-19.7 0.0 Q-21.1 -0.65 -21.1 -2.15 L-21.05 -3.6 Q-21.0 -4.3 -21.25 -5.05 L-22.45 -5.95 -22.45 -7.5 Q-22.4 -8.7 -21.75 -9.4 L-21.8 -9.35 -21.7 -8.8 Q-21.15 -8.1 -20.3 -8.5 L-19.35 -9.05 -18.6 -9.5 Q-17.65 -9.9 -17.15 -10.75 -16.6 -11.05 -15.9 -10.75 -15.65 -10.6 -15.3 -10.75 -14.55 -11.05 -14.8 -11.85 -14.95 -12.3 -15.45 -12.35 L-16.25 -12.4 -13.25 -12.75 -13.65 -11.65 Q-13.85 -10.2 -13.65 -8.85 L-16.5 -8.3 Q-18.9 -7.6 -19.15 -5.4 L-18.7 -5.1 -18.2 -5.0 -18.8 -4.75 Q-19.75 -4.25 -19.4 -3.3 -19.05 -2.15 -17.75 -2.55 L-14.75 -3.45 Q-13.95 -3.75 -14.25 -4.65 L-14.35 -4.95 -13.35 -5.0 -13.45 -4.7 Q-13.7 -3.1 -13.05 -1.85 L-17.5 -1.35 Q-19.0 -1.45 -19.7 -0.15 L-19.75 0.0 -19.7 0.0 M-20.9 -10.1 L-18.65 -11.5 -19.7 -10.8 -20.2 -10.5 Q-20.55 -10.25 -20.85 -10.15 L-20.9 -10.1 M-12.9 -13.45 L-15.9 -13.4 -17.55 -12.8 -18.75 -12.25 -19.9 -11.55 -21.05 -10.75 -21.7 -10.4 -22.25 -11.65 Q-22.45 -12.5 -22.25 -13.2 L-21.35 -14.85 Q-21.4 -13.95 -20.1 -14.1 L-19.8 -14.15 -16.45 -15.0 Q-15.75 -15.3 -15.65 -15.95 -15.4 -17.4 -16.25 -17.75 L-16.65 -17.7 -16.1 -17.8 -15.8 -17.85 -15.4 -17.9 -13.95 -17.5 -13.9 -17.5 -14.3 -16.7 Q-14.45 -16.25 -14.1 -15.85 -13.5 -15.0 -12.55 -14.85 L-13.0 -14.45 -13.1 -14.05 -12.9 -13.45 M-20.3 -16.75 L-20.65 -17.6 -21.05 -19.1 -20.9 -20.1 -19.85 -21.5 -18.9 -22.25 -18.0 -23.0 -17.05 -23.6 -15.95 -24.3 -16.35 -23.85 Q-17.2 -22.45 -15.45 -22.25 L-15.05 -22.35 -12.7 -22.8 -11.15 -23.3 -10.15 -23.95 -10.1 -24.0 -10.35 -23.25 Q-10.65 -22.05 -10.25 -21.45 L-10.45 -21.45 -10.6 -21.4 -10.75 -21.3 -11.15 -20.7 -11.0 -21.0 -14.65 -21.15 -15.75 -20.8 Q-16.05 -20.6 -16.4 -20.5 -17.95 -20.0 -18.1 -18.5 L-18.15 -18.1 -18.05 -17.95 -17.95 -17.85 Q-19.25 -17.6 -20.3 -16.75 M-12.45 -24.9 L-10.2 -25.75 -7.85 -26.3 -9.45 -26.95 -10.2 -26.95 -11.0 -26.8 -12.6 -26.25 -14.35 -26.05 -13.55 -28.35 -10.55 -29.35 -10.85 -29.2 -10.9 -29.15 Q-10.95 -28.75 -10.6 -28.45 L-7.5 -28.3 Q-6.95 -28.5 -6.65 -29.05 -6.15 -29.85 -6.35 -30.35 L-4.95 -30.5 Q-5.25 -29.15 -4.4 -28.15 L-4.35 -28.05 -4.6 -27.7 -6.2 -27.95 -6.25 -27.9 -6.5 -27.75 -6.65 -27.7 -6.8 -27.6 Q-7.45 -27.0 -7.35 -26.4 -8.75 -26.1 -9.55 -25.0 L-9.55 -25.05 -9.65 -25.15 -10.35 -25.4 -12.45 -24.9 M-4.7 -30.75 L-6.65 -30.95 -5.25 -32.2 -3.65 -32.4 -2.15 -32.85 -2.3 -32.55 -2.35 -32.4 Q-3.45 -32.45 -4.25 -31.7 L-4.85 -30.85 -4.7 -30.75 M9.75 -27.55 L9.8 -27.55 9.75 -27.55 M17.05 -10.2 L17.1 -10.15 17.5 -9.7 16.85 -9.65 16.05 -9.15 Q15.4 -8.65 15.35 -8.2 L15.3 -8.55 Q15.15 -9.15 15.15 -9.7 L16.65 -10.0 17.05 -10.2 M19.4 -8.0 L19.6 -7.9 19.85 -6.75 19.9 -5.8 19.8 -5.7 Q18.6 -5.9 17.8 -5.3 17.1 -6.15 15.6 -5.85 L15.5 -5.8 15.4 -7.75 Q15.55 -7.35 16.0 -7.0 16.4 -6.7 17.0 -6.7 18.05 -6.7 18.85 -7.2 19.35 -7.55 19.4 -8.0 M14.6 0.2 L15.35 -2.9 Q15.65 -2.7 16.05 -2.6 15.6 -2.1 16.25 -1.45 L17.15 -1.45 17.3 -1.6 Q17.85 -2.35 17.2 -2.8 L17.5 -2.95 17.2 -3.3 Q17.8 -2.25 19.05 -1.85 L19.1 -1.75 18.85 -1.2 18.05 0.0 15.75 0.0 14.6 0.2 M15.9 3.15 L16.85 3.5 16.75 3.5 16.55 4.9 16.6 5.85 Q15.6 6.45 14.7 7.2 L14.55 7.2 14.45 7.1 Q14.15 6.7 13.75 6.7 L13.5 6.75 13.35 6.8 13.25 6.9 12.7 7.5 Q12.8 5.55 13.3 3.75 L13.35 4.0 Q14.3 5.45 15.85 4.5 L16.05 4.15 15.9 3.15" fill="#c2b2d7" fill-rule="evenodd" stroke="none"/>
    <path d="M6.95 11.45 L6.8 9.9 6.95 9.05 6.95 8.75 8.85 7.4 9.2 7.8 Q9.55 8.45 9.35 9.2 L10.1 9.85 Q11.1 10.85 10.7 12.05 9.75 12.35 8.9 11.65 L8.4 11.05 8.15 11.05 6.95 11.45 M12.5 -29.2 L13.5 -28.5 14.4 -27.8 15.15 -26.85 15.65 -25.8 15.55 -24.9 Q15.2 -24.15 14.3 -23.8 14.1 -24.55 14.5 -25.35 L13.3 -26.9 12.6 -28.25 12.5 -28.45 Q12.35 -28.85 12.5 -29.2 M14.5 -23.1 L15.0 -23.35 15.6 -23.4 16.55 -22.35 17.4 -21.4 17.95 -20.15 18.1 -18.8 17.0 -18.05 17.65 -17.95 18.1 -17.75 18.55 -17.35 19.4 -15.9 Q20.25 -14.55 20.75 -13.0 L20.85 -12.1 20.65 -11.0 17.15 -11.45 17.15 -11.5 17.4 -11.8 Q17.95 -12.55 19.25 -12.35 L19.05 -13.5 18.65 -15.4 17.95 -17.0 17.85 -17.0 Q16.8 -17.05 16.35 -17.5 15.7 -18.1 16.0 -19.45 16.35 -20.75 15.65 -21.8 L15.15 -22.3 15.1 -22.35 14.5 -23.1 M16.95 -10.6 L17.25 -10.5 19.75 -9.5 19.85 -9.45 20.35 -8.15 20.85 -6.8 20.9 -5.5 20.2 -4.25 17.05 -4.5 17.15 -4.8 17.8 -5.3 Q18.6 -5.9 19.8 -5.7 L19.9 -5.8 19.85 -6.75 19.6 -7.9 19.4 -8.0 19.3 -8.4 Q18.85 -9.85 17.5 -9.7 L17.1 -10.15 17.05 -10.2 16.95 -10.6 M17.6 -3.7 L18.6 -3.3 18.7 -3.3 18.8 -3.3 18.9 -3.3 19.9 -2.7 20.3 -1.65 Q20.6 0.8 18.85 2.5 L17.4 2.15 15.85 1.75 13.95 1.7 13.9 1.5 Q13.95 0.5 14.6 0.2 L15.75 0.0 18.05 0.0 18.85 -1.2 19.1 -1.75 19.05 -1.85 Q17.8 -2.25 17.2 -3.3 L17.0 -3.75 Q16.9 -4.0 16.95 -4.2 17.2 -3.9 17.6 -3.7 M14.35 2.2 L15.9 2.6 17.3 3.15 18.85 3.3 19.25 4.6 19.3 6.05 17.95 6.95 15.95 8.4 14.5 9.35 13.8 9.95 14.6 9.7 Q15.65 9.5 16.65 8.8 L17.9 8.0 19.1 7.15 20.0 7.5 19.75 9.2 19.05 10.75 18.3 12.35 17.45 10.7 17.1 9.35 16.7 9.55 16.0 9.9 15.95 9.95 Q14.0 11.35 13.3 9.4 12.9 8.55 13.65 7.95 L14.15 7.55 14.7 7.2 Q15.6 6.45 16.6 5.85 L16.55 4.9 16.75 3.5 16.85 3.5 15.9 3.15 14.95 2.6 14.35 2.2 M16.7 16.6 L17.1 16.0 17.5 15.6 17.55 15.4 18.45 13.95 19.3 12.4 Q19.95 11.35 20.25 9.95 L20.65 8.65 20.95 9.0 Q21.45 9.7 21.45 10.6 L21.25 12.4 20.8 13.95 20.15 15.6 19.65 17.2 19.1 19.25 18.65 20.95 17.8 22.65 16.6 23.95 15.05 24.0 13.95 22.9 13.95 22.85 13.95 22.7 Q14.0 22.0 14.5 21.6 L14.6 21.55 14.6 21.5 15.8 21.15 16.05 21.1 Q16.65 21.05 16.85 20.5 L17.1 19.85 17.05 19.8 17.0 19.75 Q16.5 19.05 16.35 18.4 L16.25 17.95 Q16.25 17.25 16.7 16.6 M9.15 -26.1 L7.8 -27.55 7.3 -27.4 6.95 -27.3 Q6.75 -27.35 6.65 -27.45 L5.05 -28.85 1.35 -28.75 0.75 -28.15 0.15 -27.2 0.1 -27.1 0.05 -26.55 -0.25 -25.6 Q-0.7 -24.8 -1.2 -24.45 L-2.6 -23.6 -3.1 -23.0 -3.55 -20.4 -4.8 -18.85 -5.5 -17.05 -5.9 -15.6 Q-6.35 -14.25 -7.4 -13.6 -6.2 -12.55 -6.5 -11.15 L-6.8 -9.25 -6.9 -7.6 -6.75 -6.0 Q-6.65 -4.7 -5.55 -4.05 L-5.25 -2.85 -5.05 -1.05 Q-5.1 -0.1 -5.9 0.5 -6.05 2.15 -5.6 3.55 L-5.3 4.8 -5.1 6.4 Q-5.05 7.5 -5.55 8.45 L-4.2 10.7 -3.4 11.7 Q-2.8 12.55 -3.0 13.75 L-3.2 14.9 -3.25 16.6 -3.0 18.05 -2.3 19.55 -1.95 20.3 -1.75 21.4 Q-1.65 22.9 -1.95 24.55 -2.1 25.25 -3.05 25.45 L-4.35 25.3 -6.25 24.8 -7.35 24.75 -8.35 23.55 -8.7 23.05 -8.7 23.0 -8.9 22.4 -9.35 22.05 -10.05 21.05 -11.25 19.7 -12.7 18.3 Q-13.45 17.7 -14.3 17.2 L-15.9 16.05 -17.45 14.85 -18.2 14.1 -18.95 13.45 Q-19.8 12.95 -20.0 12.05 -17.7 12.65 -15.6 13.9 L-14.65 14.5 -13.05 15.55 -10.35 17.65 -9.9 17.9 Q-8.0 18.7 -6.8 20.2 L-6.8 20.65 -6.75 19.6 -6.4 18.7 Q-7.5 18.3 -8.15 17.35 L-7.8 17.6 Q-7.0 18.25 -5.85 17.95 L-6.05 17.85 -8.25 16.4 Q-9.25 13.25 -12.0 12.6 -13.95 12.05 -15.65 11.15 L-15.6 10.95 -15.0 10.85 -14.35 10.8 -12.0 11.2 -11.0 11.15 Q-9.45 10.9 -8.3 12.2 L-7.85 12.65 Q-7.7 11.55 -6.9 10.5 L-8.25 9.0 -8.45 8.6 -8.45 8.55 -9.5 8.5 -9.8 8.5 Q-9.75 8.15 -10.05 7.75 -10.75 6.65 -12.2 6.5 L-12.55 6.55 -12.7 6.6 -12.9 6.85 Q-13.25 6.15 -12.95 5.7 L-12.55 5.35 -12.25 5.25 -11.85 5.2 -9.2 5.3 Q-9.15 4.0 -8.5 2.65 -10.2 2.55 -11.45 1.45 L-10.35 1.25 -10.45 1.2 -11.95 0.8 -11.95 0.6 Q-11.75 -0.65 -10.5 -0.9 L-9.75 -0.95 Q-10.05 -2.15 -9.8 -3.3 L-10.35 -5.05 -12.4 -6.2 -11.5 -6.3 -11.35 -6.3 -11.2 -6.3 -12.0 -6.55 -12.9 -6.8 -12.9 -6.85 -12.95 -7.35 Q-12.5 -8.45 -11.3 -8.55 L-10.85 -8.5 -10.95 -9.75 -10.95 -10.7 -11.0 -10.8 -11.25 -11.05 -11.25 -11.4 -11.2 -11.7 -10.55 -11.45 Q-11.1 -11.65 -11.55 -11.95 L-12.55 -12.75 -11.85 -12.9 Q-11.7 -12.85 -11.55 -13.05 L-12.9 -13.45 -13.1 -14.05 -13.0 -14.45 -12.55 -14.85 -11.85 -15.3 Q-10.6 -15.3 -9.55 -14.8 -10.35 -16.75 -9.5 -18.4 L-8.9 -18.6 -8.7 -18.65 -9.05 -18.95 -9.15 -18.95 -9.8 -18.95 -10.55 -19.0 -11.15 -19.95 -11.15 -20.7 -10.75 -21.3 -10.6 -21.4 -10.45 -21.45 -10.25 -21.45 -10.05 -21.5 -10.05 -21.55 -9.9 -21.55 -9.8 -21.55 -9.7 -21.55 -9.6 -21.55 -9.5 -21.55 -8.2 -21.3 -7.4 -21.1 -6.4 -22.65 -5.85 -23.4 -5.6 -23.8 Q-5.25 -24.2 -5.05 -24.75 L-5.15 -25.5 -5.05 -24.8 Q-5.9 -24.8 -6.65 -25.4 L-6.75 -25.45 Q-7.3 -25.95 -7.35 -26.4 -7.45 -27.0 -6.8 -27.6 L-6.65 -27.7 -6.5 -27.75 -6.25 -27.9 -6.2 -27.95 -4.6 -27.7 -4.35 -28.05 Q-3.75 -28.85 -2.55 -29.3 L-1.5 -29.55 -0.75 -29.6 -0.9 -30.3 -1.05 -31.3 Q-1.15 -32.25 -0.4 -32.85 L-0.25 -32.95 -0.2 -32.95 0.8 -31.7 2.1 -30.5 3.2 -30.45 5.7 -32.65 Q6.7 -32.15 6.35 -30.6 L6.45 -30.3 8.55 -28.85 8.7 -28.75 8.8 -28.6 9.55 -27.75 Q9.85 -27.0 9.15 -26.1 M-10.85 6.45 L-10.85 6.65 -9.65 6.65 -10.85 6.45 M-12.15 13.3 L-12.6 13.3 Q-13.4 13.4 -13.9 12.85 L-14.55 12.5 -13.85 12.8 -13.1 13.0 -13.05 13.0 -12.95 13.05 -12.75 13.1 -12.15 13.3" fill="#715b8e" fill-rule="evenodd" stroke="none"/>
    <path d="M3.45 -27.3 Q4.2 -27.05 4.85 -26.5 L5.6 -26.05 6.25 -25.95 8.35 -26.15 8.75 -25.3 0.95 -25.15 1.0 -25.8 Q1.2 -26.7 1.75 -27.4 L3.45 -27.3" fill="#6f006f" fill-rule="evenodd" stroke="none"/>
    <path d="M10.4 -31.15 L10.7 -30.35 10.25 -29.25 10.85 -29.2 11.45 -29.55 12.0 -29.4 Q11.75 -28.65 10.75 -28.0 10.25 -27.6 9.8 -27.55 L9.75 -27.55 Q10.7 -26.7 10.7 -25.35 L12.6 -23.3 12.9 -23.65 13.0 -23.65 13.4 -23.7 13.8 -23.5 13.5 -23.1 14.35 -23.0 Q14.65 -22.5 13.6 -21.8 L14.85 -18.85 Q15.8 -15.7 15.55 -12.5 L16.5 -12.75 17.65 -12.1 17.4 -11.8 17.15 -11.5 17.15 -11.45 15.8 -11.0 16.95 -10.6 17.05 -10.2 16.65 -10.0 15.15 -9.7 Q15.15 -9.15 15.3 -8.55 L15.35 -8.2 15.4 -7.75 15.5 -5.8 15.6 -5.85 Q17.1 -6.15 17.8 -5.3 L17.15 -4.8 17.05 -4.5 Q16.95 -4.5 16.85 -4.6 L17.6 -3.7 Q17.2 -3.9 16.95 -4.2 16.9 -4.0 17.0 -3.75 L17.2 -3.3 17.5 -2.95 17.2 -2.8 16.75 -3.0 16.05 -2.6 Q15.65 -2.7 15.35 -2.9 L14.6 0.2 Q13.95 0.5 13.9 1.5 L13.95 1.7 13.2 2.3 13.8 2.2 13.7 2.35 13.5 3.0 13.3 3.3 13.3 3.75 Q12.8 5.55 12.7 7.5 L13.25 6.9 13.35 6.8 13.5 6.75 13.75 6.7 Q14.15 6.7 14.45 7.1 L14.55 7.2 14.7 7.2 14.15 7.55 13.65 7.95 Q12.9 8.55 13.3 9.4 14.0 11.35 15.95 9.95 L16.0 9.9 16.7 9.55 17.1 9.35 17.45 10.7 17.3 10.8 Q16.0 11.1 14.9 11.9 L14.6 11.85 Q13.95 12.25 13.75 12.85 L13.7 12.85 12.7 12.85 12.85 15.25 14.95 19.45 14.6 18.7 Q15.05 17.75 16.25 17.4 L16.35 17.4 16.25 17.95 16.35 18.4 Q16.5 19.05 17.0 19.75 L17.05 19.8 17.1 19.85 16.85 20.5 Q16.65 21.05 16.05 21.1 L15.8 21.15 14.6 21.5 14.6 21.55 14.5 21.6 Q14.0 22.0 13.95 22.7 L13.95 22.85 13.95 22.9 12.95 22.0 13.05 20.0 12.85 18.05 12.25 16.3 11.2 14.5 11.35 12.9 11.45 11.35 11.3 9.8 10.85 8.65 9.75 7.25 10.4 5.85 10.45 4.9 10.75 3.0 11.2 1.2 11.9 -0.55 12.65 -2.2 13.3 -3.95 13.7 -5.75 13.85 -7.55 13.7 -9.4 13.75 -10.35 14.15 -12.25 14.45 -14.1 Q14.5 -15.15 14.15 -16.15 L13.55 -17.65 12.85 -19.2 12.4 -20.8 11.95 -22.5 10.7 -23.55 9.75 -24.85 9.15 -26.1 Q9.85 -27.0 9.55 -27.75 L8.8 -28.6 8.7 -28.75 8.55 -28.85 Q8.4 -29.4 8.75 -29.9 9.45 -30.75 10.4 -31.15 M-16.35 6.15 L-13.1 6.45 -13.85 6.05 -13.6 5.9 -12.95 5.7 Q-13.25 6.15 -12.9 6.85 -13.9 8.15 -12.2 9.05 -11.25 9.6 -10.35 9.05 L-9.8 8.5 -9.5 8.5 -8.45 8.55 -8.45 8.6 -8.25 9.0 -6.9 10.5 Q-7.7 11.55 -7.85 12.65 L-8.3 12.2 Q-9.45 10.9 -11.0 11.15 L-12.0 11.2 Q-12.75 10.5 -12.35 9.1 L-14.15 9.0 -14.5 8.95 -14.8 8.8 -14.75 8.6 Q-14.4 6.7 -16.35 6.25 L-16.4 6.2 -16.5 6.15 -16.7 6.15 -16.65 6.1 -16.35 6.15 M-11.95 1.55 L-11.45 1.45 Q-10.2 2.55 -8.5 2.65 -9.15 4.0 -9.2 5.3 L-11.85 5.2 -12.25 5.25 -12.55 5.35 Q-12.7 4.5 -12.5 3.65 -11.25 3.8 -11.15 2.65 L-11.25 2.4 Q-11.6 2.15 -11.95 2.0 L-11.95 1.6 -11.95 1.55 M-11.95 0.8 L-12.25 0.7 -14.25 0.65 -16.1 0.9 -17.3 0.8 -18.5 0.5 -19.7 0.0 -19.75 0.0 -19.7 -0.15 Q-19.0 -1.45 -17.5 -1.35 L-13.05 -1.85 Q-13.7 -3.1 -13.45 -4.7 L-13.35 -5.0 -14.35 -4.95 -15.05 -5.8 -12.8 -6.2 -11.5 -6.3 -12.4 -6.2 -10.35 -5.05 -9.8 -3.3 Q-10.05 -2.15 -9.75 -0.95 L-10.5 -0.9 Q-11.75 -0.65 -11.95 0.6 L-11.95 0.8 M-13.25 -12.75 L-12.55 -12.75 -11.55 -11.95 Q-11.1 -11.65 -10.55 -11.45 L-11.2 -11.7 -11.25 -11.4 -11.25 -11.05 -11.0 -10.8 -10.95 -10.7 -10.95 -9.75 -10.85 -8.5 -11.3 -8.55 Q-12.5 -8.45 -12.95 -7.35 L-12.9 -6.85 -13.1 -6.85 -14.4 -6.95 Q-16.4 -6.6 -17.75 -5.25 L-18.2 -5.0 -18.7 -5.1 -19.15 -5.4 Q-18.9 -7.6 -16.5 -8.3 L-13.65 -8.85 Q-13.85 -10.2 -13.65 -11.65 L-13.25 -12.75 M-4.95 -30.5 L-4.2 -30.7 -4.7 -30.75 -4.85 -30.85 -4.25 -31.7 Q-3.45 -32.45 -2.35 -32.4 L-2.3 -32.55 -2.15 -32.85 -0.2 -32.95 -0.25 -32.95 -0.4 -32.85 Q-1.15 -32.25 -1.05 -31.3 L-0.9 -30.3 -0.75 -29.6 -1.5 -29.55 -2.55 -29.3 Q-3.75 -28.85 -4.35 -28.05 L-4.4 -28.15 Q-5.25 -29.15 -4.95 -30.5 M-7.35 -26.4 Q-7.3 -25.95 -6.75 -25.45 L-6.65 -25.4 Q-5.9 -24.8 -5.05 -24.8 L-5.15 -25.5 -5.05 -24.75 Q-5.25 -24.2 -5.6 -23.8 L-5.85 -23.4 -6.4 -22.65 -7.4 -21.1 -8.2 -21.3 -9.5 -21.55 -9.6 -21.55 -9.7 -21.55 -9.8 -21.55 -9.9 -21.55 -10.05 -21.55 -10.05 -21.5 -10.25 -21.45 Q-10.65 -22.05 -10.35 -23.25 L-10.1 -24.0 -9.55 -25.0 Q-8.75 -26.1 -7.35 -26.4 M-11.15 -20.7 L-11.15 -19.95 -10.55 -19.0 -9.8 -18.95 -14.85 -19.35 Q-16.55 -19.1 -17.0 -17.65 L-17.8 -17.7 -17.95 -17.85 -18.05 -17.95 -18.15 -18.1 -18.1 -18.5 Q-17.95 -20.0 -16.4 -20.5 -16.05 -20.6 -15.75 -20.8 L-14.65 -21.15 -11.0 -21.0 -11.15 -20.7 M-9.5 -18.4 Q-10.35 -16.75 -9.55 -14.8 -10.6 -15.3 -11.85 -15.3 L-12.55 -14.85 Q-13.5 -15.0 -14.1 -15.85 -14.45 -16.25 -14.3 -16.7 L-13.9 -17.5 -13.95 -17.5 -15.4 -17.9 -15.8 -17.85 -16.1 -17.8 -16.65 -17.7 -17.0 -17.65 Q-15.2 -19.0 -13.0 -18.4 L-12.95 -18.4 Q-11.2 -17.95 -9.5 -18.4 M-12.7 -18.1 L-13.1 -18.0 -13.6 -17.55 Q-13.85 -15.85 -11.85 -16.35 L-11.65 -16.6 Q-10.8 -18.05 -12.7 -18.1 M-8.15 17.35 Q-7.5 18.3 -6.4 18.7 L-6.75 19.6 -6.8 20.65 -6.8 20.2 Q-8.0 18.7 -9.9 17.9 L-10.35 17.65 -13.05 15.55 Q-13.25 15.0 -12.9 14.5 L-12.85 14.55 -12.7 14.65 -11.8 14.65 -11.55 14.3 -11.55 14.2 -11.55 14.1 -11.75 13.8 -11.7 13.8 -11.35 13.8 Q-10.25 14.7 -9.65 16.4 L-8.15 17.35" fill="#8e7aa9" fill-rule="evenodd" stroke="none"/>
    <path d="M8.3 -10.4 L8.35 -10.55 9.2 -10.6 Q9.6 -11.05 9.8 -10.3 L9.95 -9.9 10.75 -10.2 10.85 -10.45 11.35 -10.55 11.4 -10.55 11.9 -10.6 12.45 -10.4 11.8 -10.0 12.55 -10.3 12.75 -10.0 Q12.95 -9.4 12.6 -8.9 L12.55 -9.05 12.45 -9.05 Q10.85 -8.9 9.15 -9.05 L9.05 -9.2 Q8.55 -9.75 8.3 -10.4 M12.0 -29.4 L12.5 -29.2 Q12.35 -28.85 12.5 -28.45 L12.6 -28.25 13.3 -26.9 Q12.15 -26.2 11.15 -25.4 10.95 -25.25 10.85 -25.25 L10.7 -25.35 Q10.7 -26.7 9.75 -27.55 L9.8 -27.55 Q10.25 -27.6 10.75 -28.0 11.75 -28.65 12.0 -29.4 M-15.4 1.95 L-14.85 1.6 -12.95 1.65 -11.95 2.0 Q-11.6 2.15 -11.25 2.4 L-11.15 2.65 Q-11.25 3.8 -12.5 3.65 L-12.8 3.6 -15.05 3.0 -15.6 2.6 -15.6 2.35 -15.6 2.25 -15.6 2.15 -15.4 1.95 M-21.75 -9.4 L-20.9 -10.1 -20.85 -10.15 Q-20.55 -10.25 -20.2 -10.5 L-19.7 -10.8 -18.65 -11.5 -16.25 -12.4 -15.45 -12.35 Q-14.95 -12.3 -14.8 -11.85 -14.55 -11.05 -15.3 -10.75 -15.65 -10.6 -15.9 -10.75 -16.6 -11.05 -17.15 -10.75 -17.65 -9.9 -18.6 -9.5 L-19.35 -9.05 -20.3 -8.5 Q-21.15 -8.1 -21.7 -8.8 L-21.8 -9.35 -21.75 -9.4 M-21.35 -14.85 L-20.35 -16.6 -20.3 -16.75 Q-19.25 -17.6 -17.95 -17.85 L-17.8 -17.7 -17.0 -17.65 -16.65 -17.7 -16.25 -17.75 Q-15.4 -17.4 -15.65 -15.95 -15.75 -15.3 -16.45 -15.0 L-19.8 -14.15 -20.1 -14.1 Q-21.4 -13.95 -21.35 -14.85 M-15.95 -24.3 L-14.25 -24.7 -12.45 -24.9 -10.35 -25.4 -9.65 -25.15 -9.55 -25.05 -9.55 -25.0 -10.1 -24.0 -10.15 -23.95 -11.15 -23.3 -12.7 -22.8 -15.05 -22.35 -15.45 -22.25 Q-17.2 -22.45 -16.35 -23.85 L-15.95 -24.3 M-10.55 -29.35 L-7.95 -30.1 -6.35 -30.35 Q-6.15 -29.85 -6.65 -29.05 -6.95 -28.5 -7.5 -28.3 L-10.6 -28.45 Q-10.95 -28.75 -10.9 -29.15 L-10.85 -29.2 -10.55 -29.35 M15.15 -22.3 L15.65 -21.8 15.9 -21.2 15.8 -21.05 15.65 -20.9 15.05 -20.9 Q14.45 -21.3 14.8 -22.0 L15.1 -22.3 15.15 -22.3 M16.35 -17.5 Q16.8 -17.05 17.85 -17.0 L17.95 -17.0 18.65 -15.4 19.05 -13.5 18.7 -13.35 Q17.75 -13.0 17.1 -13.65 15.65 -15.15 16.0 -16.95 L16.35 -17.5 M3.2 -11.0 L3.25 -10.8 3.4 -10.55 2.95 -9.35 2.4 -8.95 Q0.6 -8.8 -1.35 -8.95 -2.05 -9.65 -2.35 -10.6 L-2.35 -10.65 -1.5 -10.7 -1.25 -10.95 -0.75 -10.55 -0.3 -10.0 Q-0.25 -9.9 -0.05 -9.9 L0.2 -10.05 0.4 -10.25 0.6 -10.55 2.5 -11.1 3.2 -11.0 M15.35 -8.2 Q15.4 -8.65 16.05 -9.15 L16.85 -9.65 17.5 -9.7 Q18.85 -9.85 19.3 -8.4 L19.4 -8.0 Q19.35 -7.55 18.85 -7.2 18.05 -6.7 17.0 -6.7 16.4 -6.7 16.0 -7.0 15.55 -7.35 15.4 -7.75 L15.35 -8.2 M17.2 -2.8 Q17.85 -2.35 17.3 -1.6 L17.15 -1.45 16.25 -1.45 Q15.6 -2.1 16.05 -2.6 L16.75 -3.0 17.2 -2.8 M15.9 3.15 L16.05 4.15 15.85 4.5 Q14.3 5.45 13.35 4.0 L13.3 3.75 13.3 3.3 13.5 3.0 13.75 2.7 14.25 2.65 14.3 2.6 14.95 2.6 15.9 3.15 M13.75 12.85 Q13.95 12.25 14.6 11.85 L14.9 11.9 Q16.2 12.25 15.8 13.9 L15.55 14.55 Q14.8 15.7 14.0 14.55 L13.7 13.8 Q13.6 13.25 13.75 12.85 M-12.7 -18.1 Q-10.8 -18.05 -11.65 -16.6 L-11.85 -16.35 Q-13.85 -15.85 -13.6 -17.55 L-13.1 -18.0 -12.7 -18.1 M-17.75 -5.25 L-16.55 -5.85 -15.05 -5.8 -14.35 -4.95 -14.25 -4.65 Q-13.95 -3.75 -14.75 -3.45 L-17.75 -2.55 Q-19.05 -2.15 -19.4 -3.3 -19.75 -4.25 -18.8 -4.75 L-18.2 -5.0 -17.75 -5.25 M-9.8 8.5 L-10.35 9.05 Q-11.25 9.6 -12.2 9.05 -13.9 8.15 -12.9 6.85 L-12.7 6.6 -12.55 6.55 -12.2 6.5 Q-10.75 6.65 -10.05 7.75 -9.75 8.15 -9.8 8.5 M-16.7 6.15 L-16.5 6.15 -16.4 6.2 -16.35 6.25 Q-14.4 6.7 -14.75 8.6 L-14.8 8.8 -15.15 9.05 -16.05 9.1 Q-17.1 8.2 -17.3 6.7 -17.4 6.3 -16.95 6.1 L-16.7 6.15 M-11.75 13.8 L-11.55 14.1 -11.55 14.2 -11.55 14.3 -11.8 14.65 -12.7 14.65 -12.85 14.55 -12.9 14.5 -12.95 14.45 -12.95 14.3 -12.9 13.85 -12.85 13.75 -12.75 13.65 -12.7 13.65 -12.65 13.6 -11.75 13.8" fill="#ffffff" fill-rule="evenodd" stroke="none"/>
    <path d="M-2.2 14.6 Q-1.75 13.9 -1.9 12.9 L-2.3 10.95 -2.6 9.7 Q-3.6 9.25 -4.05 7.95 -4.35 7.1 -4.15 6.2 L-4.05 5.2 -4.3 3.85 -4.85 2.75 Q-5.4 1.6 -4.8 0.65 -3.65 -0.85 -4.15 -2.55 L-4.7 -4.3 Q-5.1 -5.15 -6.0 -5.45 -5.6 -6.5 -6.1 -7.5 -6.6 -8.5 -6.1 -9.7 L-5.65 -11.15 -5.4 -12.7 -5.75 -13.2 -6.05 -13.6 Q-5.85 -14.6 -5.15 -15.5 -4.85 -15.85 -4.7 -16.4 L-4.15 -18.05 -3.2 -19.65 -2.45 -20.6 Q-1.85 -21.3 -1.95 -22.25 L-2.05 -23.0 Q-0.4 -24.1 1.35 -24.45 L3.6 -24.65 5.5 -24.65 7.3 -24.6 Q8.35 -24.8 9.0 -24.0 L9.75 -22.85 10.4 -22.05 10.5 -22.0 10.8 -21.85 10.85 -21.8 10.9 -21.75 11.2 -20.55 11.5 -19.45 11.9 -18.35 12.4 -17.35 12.9 -16.2 13.3 -15.15 13.45 -13.9 13.35 -12.2 13.05 -11.5 12.75 -11.35 12.3 -11.25 11.65 -11.4 10.9 -11.6 10.15 -11.7 9.45 -11.65 8.7 -11.5 8.3 -11.8 7.95 -11.7 7.85 -11.7 7.55 -11.45 7.55 -11.3 7.55 -11.2 8.15 -10.95 8.1 -10.95 8.0 -10.7 Q7.4 -9.2 8.35 -7.95 L8.65 -7.75 12.8 -7.95 12.85 -7.95 12.9 -7.2 12.85 -5.85 12.5 -4.45 11.95 -3.2 11.2 -1.2 10.25 1.45 Q9.9 2.55 9.7 3.55 L9.3 5.7 Q9.1 6.9 7.8 7.35 L7.25 7.5 5.75 7.4 4.0 7.5 3.6 7.65 2.4 7.45 1.4 7.15 -0.05 5.85 -1.35 4.9 -1.9 4.75 -0.75 6.05 0.45 7.3 1.8 8.4 Q2.45 8.9 3.3 8.9 L4.45 8.9 4.7 8.9 5.35 8.7 5.7 8.7 6.1 9.05 6.05 9.5 6.1 11.35 6.35 13.25 6.0 14.1 4.9 15.5 -1.2 15.25 -1.7 15.0 -2.2 14.6 M6.1 -19.0 L5.25 -22.2 4.9 -23.55 4.05 -23.6 Q0.95 -23.55 -1.05 -21.15 L-2.15 -19.4 -2.2 -19.2 -1.95 -17.35 -1.9 -16.5 Q-2.0 -15.0 -3.35 -14.1 L-3.3 -13.2 -3.4 -12.65 -3.45 -12.55 -3.65 -11.3 -3.4 -11.25 -3.35 -11.0 -3.5 -10.7 -3.5 -10.0 -2.75 -8.55 -2.05 -7.95 Q-0.6 -7.1 1.15 -7.4 L1.65 -7.5 1.8 -7.5 -0.45 -7.1 -2.7 -6.6 Q-3.6 -6.15 -3.6 -5.45 L-4.35 -4.4 -3.8 -3.8 -3.1 -2.95 Q-2.35 -2.5 -2.05 -1.85 L-2.1 -1.7 -2.25 0.15 -2.2 0.25 -2.05 0.4 -2.05 0.45 -2.2 0.8 -2.95 2.35 Q-2.3 3.75 -0.8 4.35 0.65 4.9 1.95 5.7 L2.6 6.1 5.35 5.95 6.05 4.25 4.3 4.25 Q3.15 4.15 2.6 3.1 2.35 2.5 2.9 2.2 L2.6 1.7 3.45 1.95 4.55 1.75 6.4 1.65 7.15 1.45 7.5 0.45 7.55 0.45 7.5 0.45 8.0 0.05 8.15 -0.1 8.0 -0.25 7.45 0.1 7.35 0.15 6.4 0.5 5.7 0.45 5.4 0.2 Q4.5 -1.0 5.55 -2.1 L6.4 -2.25 6.55 -2.25 6.95 -2.25 7.5 -2.55 Q8.05 -2.9 8.15 -3.4 L8.35 -4.4 8.1 -5.2 Q7.15 -5.5 6.8 -6.25 L6.9 -6.7 7.1 -9.7 7.1 -9.95 7.1 -10.2 7.1 -10.4 7.05 -10.5 7.05 -10.55 6.95 -10.75 6.6 -11.1 6.3 -11.2 6.45 -10.05 5.5 -9.95 5.5 -9.6 Q5.35 -8.9 4.85 -8.4 L3.65 -8.05 Q4.8 -8.95 4.45 -10.35 L4.15 -10.7 3.45 -10.9 3.3 -10.8 3.25 -10.8 3.2 -11.0 3.35 -11.35 Q3.35 -11.75 2.8 -11.6 2.4 -11.6 3.1 -11.8 L3.65 -11.85 4.1 -11.85 6.65 -11.5 7.05 -13.45 7.15 -14.65 10.65 -17.35 10.2 -17.25 7.65 -16.25 6.9 -15.75 6.4 -17.75 6.7 -17.95 6.95 -18.1 9.4 -19.65 Q7.65 -19.65 6.1 -19.0 M6.7 -6.45 Q6.5 -7.0 6.6 -7.8 L6.65 -7.95 6.65 -7.8 6.7 -7.0 6.7 -6.85 6.7 -6.45 M3.35 -4.4 Q2.0 -3.85 1.8 -5.0 1.7 -5.35 2.05 -5.45 L2.95 -5.7 Q4.45 -5.7 3.75 -4.7 L3.35 -4.4 M8.9 -2.5 L8.9 -2.3 Q9.1 -1.2 9.6 -0.4 L9.95 -0.45 10.1 -0.5 Q10.65 -1.9 9.4 -2.75 L9.25 -2.7 8.9 -2.5 M3.65 13.0 Q4.65 12.15 4.3 11.0 L2.6 12.85 3.65 13.0" fill="#cc9999" fill-rule="evenodd" stroke="none"/>
    <path d="M8.15 -10.95 L8.3 -10.4 Q8.55 -9.75 9.05 -9.2 L9.0 -9.15 Q8.85 -8.5 9.55 -8.35 10.2 -8.2 10.8 -8.35 L11.3 -8.45 12.35 -8.5 12.65 -8.55 12.85 -7.95 12.8 -7.95 8.65 -7.75 8.35 -7.95 Q7.4 -9.2 8.0 -10.7 L8.1 -10.95 8.15 -10.95 M6.8 9.9 L6.95 8.75 6.95 9.05 6.8 9.9 M-1.95 -17.35 L-2.2 -19.2 -2.15 -19.4 -1.05 -21.15 Q0.95 -23.55 4.05 -23.6 L4.9 -23.55 5.25 -22.2 6.1 -19.0 5.1 -18.6 Q2.5 -19.55 -0.1 -19.45 -0.85 -19.45 -1.35 -18.8 -1.95 -18.25 -1.95 -17.35 M6.7 -17.95 L6.4 -17.75 6.9 -15.75 7.65 -16.25 6.05 -15.2 5.25 -15.2 Q3.0 -16.4 0.4 -16.75 L-0.05 -19.45 Q2.1 -18.85 4.3 -17.5 5.55 -17.25 6.7 -17.95 M7.15 -14.65 L7.05 -13.45 6.65 -11.5 4.1 -11.85 3.65 -11.85 3.1 -11.8 1.7 -11.8 -0.05 -11.95 -1.7 -11.65 -3.4 -11.25 -3.65 -11.3 -3.45 -12.55 -3.4 -12.65 -3.3 -13.2 -3.35 -14.1 Q-2.0 -15.0 -1.9 -16.5 L-1.65 -13.75 Q-1.35 -12.3 -0.85 -11.95 -0.35 -11.6 0.05 -12.6 0.45 -13.6 0.6 -16.0 L3.75 -14.65 5.05 -13.9 5.7 -13.5 7.15 -14.65 M3.45 -10.9 L4.15 -10.7 4.45 -10.35 Q4.8 -8.95 3.65 -8.05 L4.85 -8.4 Q5.35 -8.9 5.5 -9.6 L5.5 -9.95 6.45 -10.05 6.65 -7.95 6.6 -7.8 Q6.5 -7.0 6.7 -6.45 L6.75 -6.0 6.9 -6.7 6.8 -6.25 Q7.15 -5.5 8.1 -5.2 L8.35 -4.4 8.15 -3.4 8.2 -3.65 Q6.8 -2.35 5.15 -2.8 L1.85 -3.3 1.05 -4.1 0.95 -3.3 Q3.6 -2.4 6.4 -2.25 L5.55 -2.1 Q4.5 -1.0 5.4 0.2 L5.7 0.45 6.4 0.5 Q5.2 0.8 4.1 0.0 2.25 -1.3 -0.15 -0.75 L-0.15 -0.1 Q1.7 -0.6 3.0 0.25 4.3 1.0 5.9 1.25 L7.5 0.45 7.55 0.45 7.5 0.45 7.15 1.45 6.4 1.65 4.55 1.75 3.45 1.95 2.6 1.7 2.9 2.2 Q2.35 2.5 2.6 3.1 3.15 4.15 4.3 4.25 L6.05 4.25 5.35 5.95 2.6 6.1 1.95 5.7 Q0.65 4.9 -0.8 4.35 -2.3 3.75 -2.95 2.35 L-2.2 0.8 -2.05 0.45 -2.05 0.5 -2.0 0.65 -1.4 0.7 -1.35 0.35 -1.4 -1.6 -1.25 -1.75 -1.2 -1.85 -1.2 -1.95 -0.65 -2.75 -0.7 -2.85 -0.7 -2.95 -0.65 -3.0 Q-0.4 -3.15 -0.5 -3.3 L-0.65 -3.3 -0.7 -3.3 -2.0 -2.05 -2.05 -1.85 Q-2.35 -2.5 -3.1 -2.95 L-3.8 -3.8 -4.35 -4.4 -3.6 -5.45 -3.15 -4.6 -0.35 -5.1 0.05 -5.65 0.1 -6.55 -0.45 -7.1 1.8 -7.5 1.65 -7.5 1.15 -7.4 Q-0.6 -7.1 -2.05 -7.95 L-2.75 -8.55 -3.5 -10.0 -3.5 -10.7 -3.35 -11.0 -3.2 -10.75 -3.2 -10.55 -2.9 -10.05 -2.25 -9.2 -2.05 -8.9 -1.25 -8.4 Q0.45 -8.25 2.2 -8.4 2.4 -8.4 2.6 -8.55 L2.75 -8.7 3.2 -9.25 3.65 -10.0 3.8 -10.45 3.6 -10.8 3.45 -10.9 M3.35 -4.4 L3.75 -4.7 Q4.45 -5.7 2.95 -5.7 L2.05 -5.45 Q1.7 -5.35 1.8 -5.0 2.0 -3.85 3.35 -4.4 M4.55 -5.3 L4.35 -4.8 Q4.3 -4.1 4.9 -4.05 L5.25 -3.95 Q5.85 -3.85 6.2 -4.45 L6.2 -4.8 Q6.2 -5.25 5.65 -5.45 L4.55 -5.3 M8.9 -2.5 L9.25 -2.7 9.4 -2.75 Q10.65 -1.9 10.1 -0.5 L9.95 -0.45 9.6 -0.4 Q9.1 -1.2 8.9 -2.3 L8.9 -2.5" fill="#eed0bb" fill-rule="evenodd" stroke="none"/>
    <path d="M-1.95 -17.35 Q-1.95 -18.25 -1.35 -18.8 -0.85 -19.45 -0.1 -19.45 L-0.15 -19.45 -0.05 -19.45 0.4 -16.75 0.6 -16.0 Q0.45 -13.6 0.05 -12.6 -0.35 -11.6 -0.85 -11.95 -1.35 -12.3 -1.65 -13.75 L-1.9 -16.5 -1.95 -17.35 M-3.6 -5.45 Q-3.6 -6.15 -2.7 -6.6 L-0.45 -7.1 0.1 -6.55 0.05 -5.65 -0.35 -5.1 -3.15 -4.6 -3.6 -5.45 M4.55 -5.3 L5.65 -5.45 Q6.2 -5.25 6.2 -4.8 L6.2 -4.45 Q5.85 -3.85 5.25 -3.95 L4.9 -4.05 Q4.3 -4.1 4.35 -4.8 L4.55 -5.3" fill="#f8eee4" fill-rule="evenodd" stroke="none"/>
    <path d="M12.6 -8.9 L12.65 -8.55 12.35 -8.5 11.3 -8.45 10.8 -8.35 Q10.2 -8.2 9.55 -8.35 8.85 -8.5 9.0 -9.15 L9.05 -9.2 9.15 -9.05 Q10.85 -8.9 12.45 -9.05 L12.55 -9.05 12.6 -8.9 M3.25 -10.8 L3.3 -10.8 3.45 -10.9 3.6 -10.8 3.8 -10.45 3.65 -10.0 3.2 -9.25 2.75 -8.7 2.6 -8.55 Q2.4 -8.4 2.2 -8.4 0.45 -8.25 -1.25 -8.4 L-2.05 -8.9 -2.25 -9.2 -2.9 -10.05 -3.2 -10.55 -3.2 -10.75 -2.35 -10.65 -2.35 -10.6 Q-2.05 -9.65 -1.35 -8.95 0.6 -8.8 2.4 -8.95 L2.95 -9.35 3.4 -10.55 3.25 -10.8 M-2.05 0.45 L-2.05 0.4 -2.2 0.25 -2.25 0.15 -2.1 -1.7 -2.05 -1.85 -2.0 -2.05 -0.7 -3.3 -0.65 -3.3 -0.5 -3.3 Q-0.4 -3.15 -0.65 -3.0 L-0.7 -2.95 -0.7 -2.85 -0.65 -2.75 -1.2 -1.95 -1.2 -1.85 -1.25 -1.75 -1.4 -1.6 -1.35 0.35 -1.4 0.7 -2.0 0.65 -2.05 0.5 -2.05 0.45" fill="#9c4e4e" fill-rule="evenodd" stroke="none"/>
    <path d="M12.8 -7.95 L12.85 -7.95 12.8 -7.95" fill="#cc6600" fill-rule="evenodd" stroke="none"/>
  </g>
</svg>
