<?xml version="1.0" encoding="UTF-8" standalone="no"?>
<svg xmlns:xlink="http://www.w3.org/1999/xlink" height="57.25px" width="42.9px" xmlns="http://www.w3.org/2000/svg">
  <g transform="matrix(1.0, 0.0, 0.0, 1.0, 23.9, 31.6)">
    <path d="M3.15 -29.85 L3.1 -29.75 2.6 -29.3 2.05 -28.5 1.95 -28.55 1.85 -28.45 1.3 -28.05 0.55 -26.9 0.15 -27.8 -0.2 -28.2 -0.3 -28.2 -0.35 -28.15 Q-0.6 -27.75 -0.35 -27.25 L-0.05 -26.3 0.05 -25.8 0.05 -25.85 0.0 -25.7 -0.3 -26.35 -0.7 -27.15 -1.3 -27.9 -1.45 -27.85 -1.6 -27.8 -1.65 -27.45 -2.05 -28.0 Q-1.6 -27.65 -1.1 -28.25 L-1.15 -28.3 Q-1.45 -29.1 -2.15 -29.45 L-2.4 -29.4 Q-2.95 -29.25 -2.9 -28.7 L-2.9 -28.65 -3.05 -28.7 -3.1 -28.65 -3.15 -28.65 -3.4 -28.25 -3.85 -28.45 Q-4.4 -28.25 -4.15 -27.75 L-3.9 -27.1 -4.95 -27.45 -5.05 -27.35 -5.15 -27.1 -5.15 -27.15 -6.0 -27.1 Q-6.45 -26.5 -5.75 -26.05 L-4.85 -25.3 Q-4.25 -24.8 -3.5 -24.65 L-2.65 -23.2 -2.05 -23.0 -2.45 -22.6 -2.65 -22.35 -3.5 -23.3 Q-5.55 -25.15 -8.0 -25.8 -8.05 -26.2 -7.7 -26.4 L-7.35 -26.35 -7.4 -26.9 -6.85 -27.45 -6.65 -27.3 -6.5 -27.5 Q-3.3 -31.05 1.9 -30.3 L3.15 -29.85 M2.45 -24.8 L2.65 -24.8 2.15 -24.2 2.45 -24.8 M10.05 -3.4 L10.05 -3.7 Q10.85 -5.85 10.05 -7.65 L10.15 -7.55 10.3 -7.85 10.35 -7.95 10.7 -9.25 10.85 -9.3 10.9 -9.3 10.95 -9.2 11.35 -8.55 11.9 -8.15 12.1 -8.05 12.7 -7.95 12.85 -7.95 13.1 -7.3 13.2 -7.05 12.9 -6.6 12.9 -6.35 Q12.85 -5.7 13.2 -5.25 L12.85 -5.3 Q12.3 -5.0 12.05 -4.3 11.75 -3.3 12.9 -3.2 13.65 -3.15 13.8 -3.9 L13.8 -4.85 14.2 -4.7 14.2 -4.65 14.2 -4.35 14.2 -4.3 14.05 -4.15 Q13.7 -3.9 13.7 -3.45 L13.7 -2.65 13.4 -2.45 12.55 -1.75 12.45 -1.4 12.1 -1.55 Q11.8 -1.55 11.65 -1.25 11.25 -0.65 11.85 -0.15 L12.45 -0.25 12.65 -0.55 12.9 -0.3 14.45 -0.1 14.85 -0.25 Q14.6 0.4 15.4 0.5 L15.65 0.4 15.75 0.55 15.5 1.45 Q15.2 2.15 15.3 2.85 L14.55 2.75 14.2 2.95 14.15 2.75 14.45 2.75 14.95 2.2 Q15.15 1.0 13.95 0.6 L13.7 0.75 Q13.4 0.8 13.2 1.0 L12.8 0.9 11.7 0.75 11.6 0.85 Q11.3 0.95 11.2 1.2 L11.2 1.25 10.55 0.5 10.4 0.4 Q11.35 -0.15 11.55 -1.15 11.7 -2.0 11.25 -2.65 10.8 -3.2 10.2 -3.35 L10.05 -3.4 M0.2 -24.0 L0.15 -23.75 0.05 -24.0 0.1 -24.1 0.15 -24.45 0.2 -24.65 0.2 -24.0 M11.35 -7.25 L11.4 -7.0 11.6 -6.55 11.9 -6.5 12.1 -6.8 Q12.25 -7.25 11.9 -7.5 L11.6 -7.55 11.55 -7.5 11.45 -7.45 11.4 -7.4 11.35 -7.25 M15.15 -0.75 L15.15 -0.7 15.15 -0.75 M14.2 4.85 L13.4 6.5 13.1 6.5 12.85 6.5 Q12.4 6.55 12.5 7.05 L12.9 7.65 12.6 7.35 11.75 7.5 Q11.45 7.75 11.3 8.15 L11.05 8.65 10.7 9.2 10.6 9.4 10.5 9.35 9.75 8.9 9.35 8.55 10.5 8.45 Q11.2 8.3 11.2 7.5 L11.05 6.7 10.85 6.7 Q11.4 6.75 11.55 6.3 L11.6 5.25 Q12.6 5.4 13.45 4.35 L13.8 3.9 13.85 4.15 Q13.9 4.6 14.2 4.85 M10.25 4.2 L10.3 4.4 10.3 4.5 10.4 4.45 Q9.75 4.7 9.8 5.35 L9.85 6.0 9.75 6.0 9.55 6.15 9.6 5.75 Q9.65 4.85 10.25 4.2 M-1.95 -29.6 L-1.8 -29.4 -0.8 -28.35 -0.5 -28.35 -0.4 -28.35 -0.3 -28.5 -0.2 -28.65 -0.2 -28.8 -0.35 -29.15 -0.6 -29.4 -0.65 -29.45 Q-0.9 -30.05 -1.45 -29.95 L-1.95 -29.7 -1.95 -29.6 M-1.0 -23.8 L-1.1 -23.85 -1.05 -23.85 -1.0 -23.8 M-11.5 -8.35 Q-11.25 -7.8 -11.5 -7.15 -10.8 -6.05 -11.1 -4.9 -11.2 -4.45 -11.6 -4.35 L-11.9 -4.25 -11.9 -4.35 -12.15 -4.1 -12.35 -2.45 -12.3 -2.4 -12.25 -2.35 Q-12.05 -2.0 -12.1 -1.35 L-12.15 -1.2 -12.15 -1.15 -12.3 -0.7 -12.25 -0.2 -12.15 0.45 -12.1 0.75 Q-11.95 1.2 -12.3 1.55 L-12.5 1.7 -12.65 1.8 -12.8 1.85 -13.0 2.15 -13.1 2.15 Q-12.8 2.75 -13.55 3.15 L-14.0 3.2 -13.9 3.8 -13.25 3.8 -12.7 4.0 -12.05 4.6 -11.85 4.5 -11.6 4.35 Q-11.9 5.0 -11.5 5.5 -10.9 6.3 -9.85 5.8 L-9.7 5.75 -9.7 5.8 -9.7 5.9 -10.3 6.45 -10.75 7.2 -10.75 7.75 -11.2 8.4 -11.3 8.5 -11.35 8.55 Q-11.7 9.85 -11.05 11.25 L-11.1 11.3 -11.2 11.55 Q-11.75 12.5 -11.3 13.45 -11.85 14.0 -11.65 14.75 L-11.55 15.0 -11.9 15.75 Q-12.3 17.6 -11.95 19.35 -13.35 19.05 -14.3 19.75 L-13.9 19.3 -13.75 18.65 Q-13.7 16.9 -15.5 16.8 L-15.8 16.6 -15.9 16.5 -15.75 16.4 -16.6 15.75 Q-17.0 15.25 -16.65 14.7 -16.35 14.15 -15.8 13.95 -14.25 13.8 -13.8 15.05 L-13.55 14.85 Q-13.2 14.5 -13.2 14.0 -13.2 12.85 -13.95 12.05 L-13.55 11.75 -13.3 11.4 -13.35 11.3 -13.35 11.25 Q-14.0 10.0 -12.85 9.4 L-12.6 9.35 -12.45 9.35 -12.2 9.45 -12.2 9.25 -12.2 8.8 -12.65 8.7 -13.1 8.4 -13.1 8.35 -13.15 8.3 -13.0 8.25 -12.75 8.0 -12.55 7.65 Q-12.35 6.9 -12.7 6.55 L-12.45 6.25 -13.0 6.35 -13.1 6.35 -13.65 6.2 -14.2 6.4 -15.25 5.0 -14.8 4.45 -15.35 4.5 -15.1 2.75 -15.0 2.45 -15.05 2.45 -15.4 2.5 -15.35 2.35 -15.25 2.05 -15.0 2.45 -14.4 0.55 -14.3 0.55 Q-13.3 0.2 -13.25 -0.9 L-13.35 -1.4 -13.45 -1.6 -13.4 -1.7 Q-13.1 -2.45 -13.3 -3.25 L-13.5 -4.1 -13.0 -4.7 -12.95 -5.0 Q-13.0 -5.8 -13.8 -5.75 L-13.9 -5.7 Q-14.2 -6.8 -13.9 -7.8 L-14.15 -7.45 -14.2 -7.4 -14.85 -7.6 Q-16.55 -7.7 -16.85 -6.1 -17.3 -5.8 -17.2 -5.3 L-17.05 -4.5 -17.2 -4.35 -17.1 -3.9 -17.8 -5.55 Q-18.5 -7.0 -17.2 -8.2 L-14.7 -8.1 Q-14.4 -8.95 -14.45 -9.95 L-14.0 -9.15 -13.7 -9.65 -13.5 -9.7 -12.95 -9.65 -12.85 -9.65 -12.5 -9.7 Q-11.55 -9.5 -11.75 -8.85 L-11.5 -8.35 M-11.3 -15.2 L-11.9 -15.35 -12.2 -15.15 -12.5 -14.7 Q-12.65 -13.7 -12.25 -12.9 L-12.75 -12.7 -12.8 -12.7 -13.35 -12.6 -13.7 -12.4 -13.65 -15.9 Q-13.75 -17.6 -12.25 -18.55 -12.4 -16.65 -11.3 -15.2 M-13.75 -11.9 Q-14.45 -11.2 -14.45 -10.45 L-14.45 -10.35 Q-14.65 -11.6 -13.7 -12.4 L-13.75 -11.9 M-17.45 2.95 L-16.9 3.25 -17.35 3.1 -17.55 3.2 -17.45 2.95 M-10.9 -0.85 L-10.65 -0.85 -10.55 -0.75 Q-10.15 -0.35 -10.4 0.15 L-10.45 0.25 -10.7 0.5 -10.75 0.5 -10.9 0.5 -11.4 0.35 -11.5 0.25 Q-11.7 -0.05 -11.5 -0.55 L-11.35 -0.8 -11.3 -0.85 -11.25 -0.9 -10.9 -0.85 M-8.35 8.15 L-8.45 8.3 -8.4 8.15 -8.35 8.15 M-8.0 17.8 L-8.0 17.85 -8.0 17.8 M-18.95 14.65 Q-19.25 14.3 -19.85 14.15 -21.15 14.05 -21.65 12.95 L-22.35 10.75 Q-22.8 8.7 -21.15 7.9 L-19.55 7.7 Q-19.3 6.8 -18.5 6.8 -18.15 6.85 -17.95 7.1 -17.5 7.5 -17.8 8.3 -18.1 9.05 -18.95 8.75 L-19.05 8.75 -19.2 9.6 Q-19.25 8.75 -20.15 8.4 L-20.45 8.45 -21.2 8.7 Q-22.05 9.75 -21.65 11.1 -21.15 12.5 -19.75 12.0 L-19.6 11.8 Q-19.3 12.9 -17.8 12.65 L-18.5 12.7 -18.55 12.85 -18.6 13.8 -18.9 14.5 -18.95 14.65 M-17.7 6.7 L-17.6 6.5 -17.2 6.8 -17.2 6.85 -17.7 6.7 M-9.0 12.15 L-9.0 12.3 -9.05 12.15 -9.0 12.15 M-12.1 2.25 L-11.9 2.1 -11.65 1.85 -11.7 1.95 -11.5 1.8 -11.35 1.7 -11.15 1.8 -11.1 1.85 Q-10.55 1.95 -10.75 2.4 L-10.9 2.55 -11.3 2.9 -11.35 2.95 -11.75 2.95 -12.05 2.6 -12.1 2.25 M-15.3 6.45 L-15.1 6.55 -15.25 6.6 -15.45 6.7 -15.3 6.45 M-15.25 1.25 L-15.3 1.2 -15.25 1.2 -15.25 1.25 M-17.15 12.15 Q-16.95 11.8 -17.05 11.3 L-17.0 11.45 -16.8 11.75 -17.0 11.85 -17.15 12.15 M-17.1 11.0 L-17.35 10.55 -17.1 10.35 -16.5 10.6 -16.75 10.55 Q-17.1 10.7 -17.1 11.0 M-15.5 9.8 L-15.55 9.35 -15.5 9.35 -15.55 9.4 -15.5 9.8 M-19.25 10.55 L-19.3 10.45 -19.3 10.35 -19.2 9.7 -19.05 10.3 -19.25 10.55 M-14.4 12.85 Q-14.6 13.35 -15.05 13.25 -16.15 13.1 -15.85 12.05 -15.65 11.5 -15.05 11.55 -13.95 11.75 -14.4 12.85" fill="#c2b2d7" fill-rule="evenodd" stroke="none"/>
    <path d="M2.05 -28.5 L2.6 -29.3 3.1 -29.75 3.15 -29.85 5.3 -28.25 6.25 -27.5 6.4 -27.55 6.45 -27.45 5.4 -26.95 3.75 -25.8 2.65 -24.8 2.45 -24.8 3.35 -25.85 3.55 -26.3 Q3.6 -27.1 2.9 -26.95 L2.8 -26.9 2.7 -26.9 2.65 -26.8 2.35 -26.55 1.45 -25.45 1.25 -25.05 Q1.3 -25.75 0.9 -26.1 L1.15 -26.7 Q1.5 -27.5 2.1 -28.1 2.4 -28.4 2.05 -28.5 M-2.65 -22.35 L-2.45 -22.6 -2.05 -23.0 -1.6 -23.2 Q-1.35 -23.4 -1.35 -23.75 L-1.1 -23.85 -1.0 -23.8 -0.8 -23.35 -0.6 -22.75 -0.55 -22.8 -0.6 -22.65 Q-0.7 -22.15 -0.35 -21.75 L-0.35 -21.7 Q-0.55 -21.15 0.0 -20.95 L0.15 -20.95 -0.15 -20.3 -0.35 -19.75 -2.65 -22.35 M0.0 -25.7 L0.05 -25.85 0.05 -25.8 0.0 -25.65 0.0 -25.7 M12.0 -16.45 L12.0 -15.95 11.95 -15.25 12.0 -15.85 11.9 -15.95 12.0 -16.45 M15.75 -6.5 Q15.55 -5.85 14.95 -5.15 14.25 -4.35 15.3 -3.85 16.75 -4.0 17.05 -2.7 17.3 -1.25 17.9 -0.2 17.75 1.4 16.55 2.6 17.5 4.4 17.1 6.5 16.1 7.3 16.35 8.5 16.65 9.7 15.45 10.35 14.15 10.5 12.9 9.5 11.7 8.5 11.3 10.55 10.3 11.1 9.55 10.55 L9.35 10.4 9.5 10.35 Q10.05 9.95 10.25 9.35 L10.25 9.25 9.75 8.9 10.5 9.35 10.6 9.4 10.7 9.2 11.05 8.65 11.3 8.15 Q11.45 7.75 11.75 7.5 L12.6 7.35 12.9 7.65 13.3 7.6 13.65 7.45 13.8 7.3 Q14.1 6.55 13.4 6.5 L14.2 4.85 14.35 4.85 15.25 4.95 Q15.85 4.75 15.9 4.15 16.05 3.05 15.3 2.85 15.2 2.15 15.5 1.45 L15.75 0.55 15.65 0.4 Q16.45 -0.35 15.4 -0.75 L15.15 -0.7 15.15 -0.75 Q15.7 -1.7 14.65 -2.25 L14.6 -2.35 Q14.45 -2.75 14.05 -2.7 L13.7 -2.65 13.7 -3.45 Q13.7 -3.9 14.05 -4.15 L14.2 -4.3 14.2 -4.35 14.2 -4.65 14.2 -4.7 13.8 -4.85 13.3 -5.15 Q13.7 -5.0 14.4 -5.15 L14.65 -5.6 Q14.8 -6.1 14.5 -6.4 L15.65 -6.4 15.75 -6.5 M10.05 -7.65 L10.0 -7.7 9.95 -7.9 10.35 -7.95 10.3 -7.85 10.15 -7.55 10.05 -7.65 M10.5 -18.4 L10.55 -18.6 10.6 -18.6 10.5 -18.4 M11.2 1.25 L11.1 1.3 11.05 1.25 Q10.8 0.8 10.3 0.8 L10.45 0.6 10.55 0.5 11.2 1.25 M10.2 2.5 L10.25 2.5 Q10.05 3.1 10.15 3.7 L10.15 3.35 10.05 3.35 10.2 2.5 M13.4 2.75 L13.35 3.65 Q13.0 4.3 12.3 4.4 L12.0 4.45 Q11.5 4.7 11.0 4.25 L10.6 3.5 10.6 3.05 Q10.9 2.05 11.85 1.65 13.05 1.55 13.4 2.75 M8.4 8.65 L8.3 8.8 8.3 9.0 7.95 9.05 7.9 8.95 7.85 8.9 7.85 8.7 8.2 8.65 8.35 8.6 8.4 8.65 M-10.5 -14.1 L-10.75 -14.3 -10.8 -14.3 -11.0 -14.25 -11.0 -14.2 -11.05 -14.1 -11.35 -13.35 -11.35 -13.3 -11.3 -13.2 -11.25 -12.9 -11.5 -12.2 -11.55 -11.85 -11.55 -11.7 -11.5 -11.45 -11.2 -10.6 Q-11.4 -10.6 -11.45 -10.4 -11.8 -9.5 -11.4 -8.6 L-11.5 -8.4 -11.5 -8.35 -11.75 -8.85 Q-11.55 -9.5 -12.5 -9.7 L-12.85 -9.65 -12.95 -9.65 -13.5 -9.7 -13.7 -9.65 -14.0 -9.15 -14.45 -9.95 -14.45 -10.35 -14.45 -10.45 Q-14.45 -11.2 -13.75 -11.9 L-13.75 -11.85 Q-13.6 -10.85 -12.65 -11.55 -11.8 -12.3 -12.75 -12.7 L-12.25 -12.9 Q-12.65 -13.7 -12.5 -14.7 L-12.2 -15.15 -11.9 -15.35 -11.3 -15.2 -11.0 -14.8 -10.5 -14.1 M-11.85 4.5 Q-11.55 4.2 -11.6 3.75 L-11.6 3.6 -11.1 3.35 -10.45 2.65 -10.4 2.6 -10.0 2.65 -9.75 3.05 Q-9.15 4.45 -7.95 5.4 L-8.55 6.55 -8.7 7.25 -8.8 7.95 -9.6 6.85 -9.7 5.9 -9.7 5.8 -9.7 5.75 -9.85 5.8 Q-10.9 6.3 -11.5 5.5 -11.9 5.0 -11.6 4.35 L-11.85 4.5 M-11.05 11.25 Q-10.55 10.5 -9.85 11.1 L-9.75 11.15 -9.7 11.15 -8.8 11.25 -9.0 12.15 -9.05 12.15 -9.0 12.3 -9.0 12.45 Q-8.9 13.75 -9.75 14.65 -9.6 15.5 -8.8 15.8 -8.1 16.1 -8.0 17.15 L-8.0 17.8 -8.0 17.85 Q-8.1 18.5 -8.75 19.05 -9.7 19.7 -9.05 20.9 L-8.15 22.0 Q-7.55 22.5 -8.0 23.3 -8.55 24.45 -9.65 24.65 -10.75 24.7 -11.5 24.05 -11.4 23.45 -10.65 23.45 L-10.3 23.45 -10.15 23.0 Q-10.05 22.65 -9.75 22.45 L-9.35 22.25 -8.95 21.95 -10.55 20.0 -10.9 19.05 Q-11.2 17.55 -10.05 16.5 L-10.35 16.05 -10.5 15.7 -11.55 15.0 -11.65 14.75 Q-11.85 14.0 -11.3 13.45 -11.75 12.5 -11.2 11.55 L-11.1 11.3 -11.05 11.25 M-6.9 4.1 L-6.9 4.05 -6.9 4.1 M-13.9 -5.7 L-13.8 -5.75 Q-13.0 -5.8 -12.95 -5.0 L-13.0 -4.7 -13.5 -4.1 Q-13.85 -3.95 -14.3 -4.1 L-14.6 -4.4 Q-14.8 -5.35 -13.9 -5.7 M-13.45 -1.6 L-13.35 -1.4 -13.25 -0.9 Q-13.3 0.2 -14.3 0.55 L-14.4 0.55 -15.1 0.4 -15.45 -0.05 -15.6 -0.5 -15.65 -0.95 -15.65 -1.05 -15.6 -1.15 -15.55 -1.3 -15.5 -1.4 -15.45 -1.5 -15.1 -1.8 -15.0 -1.85 -14.8 -1.85 -14.55 -1.95 Q-13.85 -2.1 -13.45 -1.6 M-15.35 4.5 L-14.8 4.45 -15.25 5.0 -15.3 5.15 -15.3 5.2 Q-15.75 4.45 -16.75 4.5 -17.35 4.5 -17.55 4.8 L-17.6 4.1 -17.55 3.2 -17.35 3.1 -16.9 3.25 -16.4 3.2 -16.25 3.2 -16.15 3.15 -16.05 3.15 -15.95 3.1 -16.0 3.6 Q-15.85 4.35 -15.35 4.5 M-14.2 6.4 L-13.65 6.2 -13.1 6.35 -13.0 6.35 -12.45 6.25 -12.7 6.55 Q-12.35 6.9 -12.55 7.65 L-12.75 8.0 -13.0 8.25 -13.15 8.3 -13.1 8.35 -13.1 8.4 -12.65 8.7 -12.2 8.8 -12.2 9.25 -12.2 9.45 -12.45 9.35 -12.6 9.35 -12.85 9.4 Q-14.0 10.0 -13.35 11.25 L-13.35 11.3 -13.3 11.4 -13.55 11.75 -13.95 12.05 Q-13.2 12.85 -13.2 14.0 -13.2 14.5 -13.55 14.85 L-13.8 15.05 Q-14.25 13.8 -15.8 13.95 -16.35 14.15 -16.65 14.7 -17.0 15.25 -16.6 15.75 L-15.75 16.4 -15.9 16.5 -15.8 16.6 -15.5 16.8 Q-13.7 16.9 -13.75 18.65 L-13.9 19.3 Q-14.05 18.65 -15.3 18.7 L-15.5 18.75 -15.5 18.8 -15.55 19.05 Q-15.35 17.6 -17.65 17.75 L-17.7 17.75 -18.5 17.05 Q-18.75 16.6 -18.65 16.0 L-18.65 15.95 -18.65 15.85 Q-18.5 15.1 -18.95 14.65 L-18.9 14.5 -18.6 13.8 -18.55 12.85 -18.5 12.7 -17.8 12.65 -17.75 12.65 -17.5 12.55 -17.15 12.15 -17.0 11.85 -16.8 11.75 -17.0 11.45 -17.05 11.3 -17.05 11.15 -17.1 11.0 Q-17.1 10.7 -16.75 10.55 L-16.5 10.6 -16.15 10.55 -16.05 10.55 -15.7 10.3 -15.65 10.25 -15.65 10.2 -15.6 10.1 -15.6 10.05 -15.5 9.8 -15.55 9.4 -15.5 9.35 -14.15 9.25 -13.65 8.4 Q-14.2 8.4 -14.5 7.85 -14.85 7.35 -14.55 6.8 L-14.2 6.4 M-17.2 -0.3 Q-16.45 -0.3 -16.35 0.45 -16.3 0.65 -16.4 0.85 -16.95 1.45 -17.65 1.0 -18.05 0.65 -17.85 0.2 L-17.5 -0.25 -17.2 -0.3 M-11.25 -0.9 L-11.35 -1.1 -11.3 -1.1 -10.9 -1.0 -10.9 -0.85 -11.25 -0.9 M-8.65 8.85 L-8.7 8.6 -8.8 8.6 -8.7 8.55 -8.65 8.85 M-17.2 6.8 L-17.0 6.85 -16.95 6.85 -15.75 6.95 -15.7 6.9 -15.75 7.05 Q-15.45 7.25 -15.35 7.8 -15.2 8.5 -15.75 8.95 L-16.95 9.05 Q-17.85 8.6 -17.6 7.6 L-17.1 6.9 -17.2 6.85 -17.2 6.8 M-14.4 12.85 Q-13.95 11.75 -15.05 11.55 -15.65 11.5 -15.85 12.05 -16.15 13.1 -15.05 13.25 -14.6 13.35 -14.4 12.85 M-16.85 14.5 L-16.9 14.45 Q-17.0 14.05 -17.35 14.05 L-18.05 14.15 -18.15 14.25 -18.35 14.45 -18.4 14.7 -18.35 14.85 -18.2 14.95 -17.9 15.2 -17.2 15.15 -17.05 15.0 -16.85 14.5" fill="#8e7aa9" fill-rule="evenodd" stroke="none"/>
    <path d="M-2.05 -23.0 L-2.65 -23.2 -3.5 -24.65 Q-4.25 -24.8 -4.85 -25.3 L-5.75 -26.05 Q-6.45 -26.5 -6.0 -27.1 L-5.15 -27.15 -5.15 -27.1 -5.05 -27.35 -4.95 -27.45 -3.9 -27.1 -4.15 -27.75 Q-4.4 -28.25 -3.85 -28.45 L-3.4 -28.25 -3.15 -28.65 -3.1 -28.65 -3.05 -28.7 -2.9 -28.65 -2.9 -28.7 Q-2.95 -29.25 -2.4 -29.4 L-2.15 -29.45 Q-1.45 -29.1 -1.15 -28.3 L-1.1 -28.25 Q-1.6 -27.65 -2.05 -28.0 L-1.65 -27.45 -1.6 -27.8 -1.45 -27.85 -1.3 -27.9 -0.7 -27.15 -0.3 -26.35 0.0 -25.7 0.0 -25.65 0.05 -25.8 -0.05 -26.3 -0.35 -27.25 Q-0.6 -27.75 -0.35 -28.15 L-0.3 -28.2 -0.2 -28.2 0.15 -27.8 0.55 -26.9 1.3 -28.05 1.85 -28.45 1.95 -28.55 2.05 -28.5 Q2.4 -28.4 2.1 -28.1 1.5 -27.5 1.15 -26.7 L0.9 -26.1 Q1.3 -25.75 1.25 -25.05 L1.45 -25.45 2.35 -26.55 2.65 -26.8 2.7 -26.9 2.8 -26.9 2.9 -26.95 Q3.6 -27.1 3.55 -26.3 L3.35 -25.85 2.45 -24.8 2.15 -24.2 1.6 -23.2 0.85 -21.3 0.7 -21.05 0.25 -21.0 0.2 -20.95 0.15 -20.95 0.0 -20.95 Q-0.55 -21.15 -0.35 -21.7 L-0.35 -21.75 Q-0.7 -22.15 -0.6 -22.65 L-0.55 -22.8 -0.6 -22.75 -0.8 -23.35 -1.0 -23.8 -1.05 -23.85 -1.1 -23.85 -1.35 -23.75 Q-1.35 -23.4 -1.6 -23.2 L-2.05 -23.0 M4.8 -11.55 L5.2 -11.15 5.0 -10.85 3.95 -10.35 3.85 -10.05 3.5 -9.8 3.25 -9.75 3.0 -9.7 2.8 -9.75 Q2.55 -9.9 2.6 -10.05 L2.85 -10.55 2.95 -10.75 Q3.65 -11.5 4.65 -11.55 L4.8 -11.55 M-6.3 -6.2 L-6.1 -6.0 -6.1 -5.7 -6.2 -5.4 -6.3 -5.05 -6.65 -4.95 Q-7.2 -4.3 -7.9 -4.65 L-8.1 -4.95 Q-8.1 -5.5 -7.45 -5.85 L-7.2 -5.95 -6.8 -6.2 -6.65 -6.25 -6.3 -6.2 M0.2 -24.0 L0.2 -24.65 0.15 -24.45 0.1 -24.1 0.05 -24.0 0.15 -23.75 0.2 -24.0 M13.2 -5.25 L13.2 -5.2 13.3 -5.15 13.8 -4.85 13.8 -3.9 Q13.65 -3.15 12.9 -3.2 11.75 -3.3 12.05 -4.3 12.3 -5.0 12.85 -5.3 L13.2 -5.25 M0.3 -5.4 L0.3 -5.05 0.0 -4.65 -0.5 -4.1 -0.55 -4.05 -1.15 -4.0 -1.15 -4.05 -1.25 -4.1 -1.4 -4.5 Q-1.45 -5.2 -0.75 -5.5 L-0.25 -5.75 0.3 -5.4 M12.45 -10.0 L12.5 -9.95 12.5 -9.65 12.4 -9.45 11.75 -9.45 11.7 -9.4 11.4 -9.45 11.3 -9.5 11.25 -9.7 11.25 -9.9 11.45 -10.15 11.6 -10.25 12.45 -10.0 M11.35 -7.25 L11.4 -7.4 11.45 -7.45 11.55 -7.5 11.6 -7.55 11.9 -7.5 Q12.25 -7.25 12.1 -6.8 L11.9 -6.5 11.6 -6.55 11.4 -7.0 11.35 -7.25 M13.7 -2.65 L14.05 -2.7 Q14.45 -2.75 14.6 -2.35 L14.65 -2.25 Q15.7 -1.7 15.15 -0.75 L15.15 -0.7 15.4 -0.75 Q16.45 -0.35 15.65 0.4 L15.4 0.5 Q14.6 0.4 14.85 -0.25 L14.45 -0.1 12.9 -0.3 12.65 -0.55 12.45 -0.25 11.85 -0.15 Q11.25 -0.65 11.65 -1.25 11.8 -1.55 12.1 -1.55 L12.45 -1.4 12.55 -1.75 13.4 -2.45 13.7 -2.65 M15.3 2.85 Q16.05 3.05 15.9 4.15 15.85 4.75 15.25 4.95 L14.35 4.85 14.2 4.85 Q13.9 4.6 13.85 4.15 L13.8 3.9 13.45 4.35 Q12.6 5.4 11.6 5.25 L11.55 6.3 Q11.4 6.75 10.85 6.7 L11.05 6.7 11.2 7.5 Q11.2 8.3 10.5 8.45 L9.35 8.55 9.2 8.5 8.55 8.25 Q7.85 7.9 8.2 7.2 8.45 6.6 8.95 6.55 L9.3 6.35 9.55 6.15 9.75 6.0 9.85 6.0 9.8 5.35 Q9.75 4.7 10.4 4.45 L10.3 4.5 10.3 4.4 10.25 4.2 10.15 3.7 Q10.05 3.1 10.25 2.5 L10.2 2.5 9.8 2.5 Q9.4 2.45 9.35 2.1 9.15 1.25 9.9 0.85 L10.3 0.8 Q10.8 0.8 11.05 1.25 L11.1 1.3 11.2 1.25 11.2 1.2 Q11.3 0.95 11.6 0.85 L11.7 0.75 12.8 0.9 13.2 1.0 Q13.4 0.8 13.7 0.75 L13.95 0.6 Q15.15 1.0 14.95 2.2 L14.45 2.75 14.15 2.75 14.2 2.95 14.55 2.75 15.3 2.85 M13.4 6.5 Q14.1 6.55 13.8 7.3 L13.65 7.45 13.3 7.6 12.9 7.65 12.5 7.05 Q12.4 6.55 12.85 6.5 L13.1 6.5 13.4 6.5 M13.4 2.75 Q13.05 1.55 11.85 1.65 10.9 2.05 10.6 3.05 L10.6 3.5 11.0 4.25 Q11.5 4.7 12.0 4.45 L12.3 4.4 Q13.0 4.3 13.35 3.65 L13.4 2.75 M9.45 3.15 Q10.6 3.75 9.65 4.5 L9.2 4.55 Q8.25 4.4 8.65 3.45 L8.95 3.15 9.45 3.15 M-1.95 -29.6 L-1.95 -29.7 -1.45 -29.95 Q-0.9 -30.05 -0.65 -29.45 L-0.6 -29.4 -0.35 -29.15 -0.2 -28.8 -0.2 -28.65 -0.3 -28.5 -0.4 -28.35 -0.5 -28.35 -0.8 -28.35 -1.8 -29.4 -1.95 -29.6 M-8.5 -17.3 L-8.6 -18.3 -8.6 -18.45 -8.65 -18.8 Q-8.8 -19.8 -8.4 -20.7 L-8.05 -21.65 -7.9 -21.75 -7.9 -21.8 -7.85 -21.85 -7.75 -21.9 -7.7 -21.95 -7.45 -21.95 Q-6.8 -20.75 -7.25 -19.4 L-7.4 -18.85 -7.35 -17.7 -7.4 -17.05 Q-7.5 -16.7 -7.85 -16.65 L-8.2 -16.7 -8.4 -16.9 -8.5 -17.3 M-6.7 -11.3 L-6.85 -11.35 -7.65 -11.25 Q-7.95 -11.2 -8.1 -11.45 L-8.1 -11.85 -7.7 -12.25 -7.65 -12.3 -7.05 -12.45 -6.2 -12.35 -6.15 -12.35 Q-4.6 -12.3 -3.5 -11.25 L-2.65 -10.45 -2.5 -10.15 -2.6 -10.1 -3.65 -10.55 Q-5.0 -11.45 -6.7 -11.3 M-12.75 -12.7 Q-11.8 -12.3 -12.65 -11.55 -13.6 -10.85 -13.75 -11.85 L-13.75 -11.9 -13.7 -12.4 -13.35 -12.6 -12.8 -12.7 -12.75 -12.7 M-17.1 -3.9 L-17.2 -4.35 -17.05 -4.5 -17.2 -5.3 Q-17.3 -5.8 -16.85 -6.1 -16.55 -7.7 -14.85 -7.6 L-14.2 -7.4 -14.15 -7.45 -13.9 -7.8 Q-14.2 -6.8 -13.9 -5.7 -14.8 -5.35 -14.6 -4.4 L-14.3 -4.1 Q-13.85 -3.95 -13.5 -4.1 L-13.3 -3.25 Q-13.1 -2.45 -13.4 -1.7 L-13.45 -1.6 Q-13.85 -2.1 -14.55 -1.95 L-14.8 -1.85 -15.0 -1.85 -15.1 -1.8 -15.45 -1.5 -15.5 -1.4 -15.55 -1.3 -15.6 -1.15 -15.65 -1.05 -15.65 -0.95 -15.6 -0.5 -15.45 -0.05 -15.1 0.4 -14.4 0.55 -15.0 2.45 -15.25 2.05 -15.35 2.35 -15.4 2.5 -15.05 2.45 -15.0 2.45 -15.1 2.75 -15.35 4.5 Q-15.85 4.35 -16.0 3.6 L-15.95 3.1 -16.05 3.15 -16.15 3.15 -16.25 3.2 -16.4 3.2 -16.9 3.25 -17.45 2.95 Q-17.3 2.45 -16.8 2.05 L-17.1 1.8 -17.7 2.25 -17.7 2.3 Q-17.95 2.55 -18.35 2.05 L-18.35 1.7 -18.6 0.25 -18.6 0.2 -18.65 -0.15 Q-18.7 -0.8 -18.2 -1.35 -17.7 -1.6 -17.35 -1.9 L-16.9 -2.4 -16.85 -2.65 -16.8 -2.7 -17.05 -3.85 -17.1 -3.9 M-15.25 5.0 L-14.2 6.4 -14.55 6.8 Q-14.85 7.35 -14.5 7.85 -14.2 8.4 -13.65 8.4 L-14.15 9.25 -15.5 9.35 -15.55 9.35 -15.5 9.8 -15.6 10.05 -15.6 10.1 -15.65 10.2 -15.65 10.25 -15.7 10.3 -16.05 10.55 -16.15 10.55 -16.5 10.6 -17.1 10.35 -17.35 10.55 -17.1 11.0 -17.05 11.15 -17.05 11.3 Q-16.95 11.8 -17.15 12.15 L-17.5 12.55 -17.75 12.65 -17.8 12.65 Q-19.3 12.9 -19.6 11.8 L-19.75 12.0 Q-21.15 12.5 -21.65 11.1 -22.05 9.75 -21.2 8.7 L-20.45 8.45 -20.15 8.4 Q-19.25 8.75 -19.2 9.6 L-19.05 8.75 -18.95 8.75 Q-18.1 9.05 -17.8 8.3 -17.5 7.5 -17.95 7.1 L-17.75 6.7 -17.7 6.7 -17.2 6.85 -17.1 6.9 -17.6 7.6 Q-17.85 8.6 -16.95 9.05 L-15.75 8.95 Q-15.2 8.5 -15.35 7.8 -15.45 7.25 -15.75 7.05 L-15.7 6.9 -15.75 6.95 -16.95 6.85 -17.0 6.85 -17.2 6.8 -17.6 6.5 -17.6 6.45 -17.55 6.45 -17.55 4.8 Q-17.35 4.5 -16.75 4.5 -15.75 4.45 -15.3 5.2 L-15.3 5.15 -15.25 5.0 M-13.0 8.25 L-13.15 8.3 -13.1 8.35 -13.15 8.3 -13.0 8.25 M-17.2 -0.3 L-17.5 -0.25 -17.85 0.2 Q-18.05 0.65 -17.65 1.0 -16.95 1.45 -16.4 0.85 -16.3 0.65 -16.35 0.45 -16.45 -0.3 -17.2 -0.3 M-4.4 2.5 Q-4.05 2.5 -4.05 2.95 L-3.55 3.55 -3.65 3.7 -3.75 3.9 Q-4.75 3.75 -4.55 2.9 L-4.4 2.5 M-15.25 1.25 L-15.25 1.2 -15.3 1.2 -15.25 1.25 M-15.3 6.45 L-15.45 6.7 -15.25 6.6 -15.1 6.55 -15.3 6.45 M-19.25 10.55 L-19.05 10.3 -19.2 9.7 -19.3 10.35 -19.3 10.45 -19.25 10.55 M-16.85 14.5 L-17.05 15.0 -17.2 15.15 -17.9 15.2 -18.2 14.95 -18.35 14.85 -18.4 14.7 -18.35 14.45 -18.15 14.25 -18.05 14.15 -17.35 14.05 Q-17.0 14.05 -16.9 14.45 L-16.85 14.5" fill="#ffffff" fill-rule="evenodd" stroke="none"/>
    <path d="M3.15 -29.85 L1.9 -30.3 Q-3.3 -31.05 -6.5 -27.5 L-6.55 -27.5 -6.85 -27.45 -7.4 -26.9 -7.35 -26.35 -7.7 -26.4 Q-8.05 -26.2 -8.0 -25.8 -5.55 -25.15 -3.5 -23.3 L-2.65 -22.35 -0.35 -19.75 -0.05 -19.25 Q1.0 -19.45 1.55 -20.45 L2.7 -22.2 Q3.85 -23.8 5.65 -24.9 7.4 -25.95 6.45 -27.45 L6.4 -27.55 6.35 -27.6 6.25 -27.5 5.3 -28.25 3.15 -29.85 M-7.6 10.95 Q-8.0 12.15 -8.0 13.5 -8.55 13.95 -8.3 14.55 -7.05 14.95 -6.7 16.3 -6.5 17.7 -7.35 18.9 -8.2 20.1 -6.5 21.1 -6.45 23.7 -9.05 25.45 -11.8 26.2 -13.25 23.75 -13.65 22.8 -14.8 23.05 -16.0 23.3 -16.45 22.0 L-16.55 19.9 -19.15 18.4 Q-20.65 17.65 -20.15 15.75 -23.6 14.2 -23.9 10.5 -23.4 7.5 -20.7 6.05 -19.7 6.15 -18.95 5.65 -18.55 3.8 -19.3 2.45 -20.15 1.1 -19.75 -0.6 -17.75 -2.4 -18.8 -4.65 -19.45 -6.1 -18.95 -7.8 -18.2 -9.2 -16.85 -9.7 -15.4 -9.45 -15.35 -10.75 -14.65 -12.75 -14.9 -14.9 -15.05 -17.85 -12.5 -19.45 -11.4 -19.8 -11.3 -21.05 -11.25 -22.3 -10.7 -23.3 L-7.85 -27.9 Q-6.4 -30.3 -3.5 -31.05 -0.3 -32.15 2.85 -31.05 5.95 -29.9 7.9 -27.15 7.55 -25.8 8.45 -24.85 L9.6 -22.75 Q9.55 -20.2 11.8 -19.1 14.0 -18.1 13.15 -15.35 12.95 -15.2 13.05 -14.8 14.15 -14.4 14.45 -13.1 12.95 -12.2 14.0 -11.35 15.0 -10.55 14.85 -9.35 16.0 -8.9 16.8 -7.8 L16.5 -5.35 18.25 -3.3 Q19.1 -2.3 19.0 -0.9 18.9 0.6 18.15 1.95 17.4 3.2 18.6 4.65 17.7 7.55 17.55 10.8 15.95 12.1 14.0 11.3 12.1 10.35 10.5 11.7 L7.35 10.3 7.2 10.2 7.1 11.55 6.9 11.05 5.55 6.4 5.5 6.2 5.45 5.8 5.2 6.0 Q4.6 6.35 4.25 6.95 L2.95 7.95 -1.7 7.85 Q-3.85 7.75 -5.3 5.55 L-5.75 5.55 -6.15 7.15 -7.0 9.5 -7.45 10.55 -7.6 10.9 -7.6 10.95 M11.95 -15.25 L12.0 -15.95 12.0 -16.45 Q11.8 -17.85 10.6 -18.6 L10.55 -18.6 10.5 -18.4 Q10.2 -16.8 10.2 -15.15 10.2 -13.3 9.5 -11.75 9.2 -9.7 9.95 -7.9 L10.0 -7.7 10.05 -7.65 Q10.85 -5.85 10.05 -3.7 L10.05 -3.4 Q9.75 -0.95 8.7 1.2 7.5 3.4 6.65 5.7 6.6 7.85 7.95 9.5 L9.35 10.4 9.55 10.55 Q10.3 11.1 11.3 10.55 11.7 8.5 12.9 9.5 14.15 10.5 15.45 10.35 16.65 9.7 16.35 8.5 16.1 7.3 17.1 6.5 17.5 4.4 16.55 2.6 17.75 1.4 17.9 -0.2 17.3 -1.25 17.05 -2.7 16.75 -4.0 15.3 -3.85 14.25 -4.35 14.95 -5.15 15.55 -5.85 15.75 -6.5 L15.75 -6.65 Q14.95 -7.8 13.7 -8.05 13.55 -8.65 13.8 -9.2 12.75 -10.3 13.1 -11.8 13.5 -13.35 11.9 -14.15 L11.9 -14.3 11.95 -15.25 M9.0 -4.4 L9.1 -4.4 9.25 -5.5 9.1 -6.65 8.4 -10.05 8.25 -10.8 Q9.2 -14.3 9.3 -18.1 9.35 -20.9 8.1 -23.05 L7.55 -23.8 7.0 -24.5 6.75 -24.8 6.55 -24.65 6.5 -24.65 5.55 -23.85 4.7 -23.0 Q2.2 -20.55 0.9 -17.35 L0.75 -17.0 0.6 -16.8 Q0.0 -16.7 -0.35 -17.3 -1.05 -19.95 -3.35 -22.0 -4.7 -23.1 -6.05 -23.8 L-8.35 -24.6 Q-10.75 -22.25 -10.85 -18.8 L-10.85 -18.6 -10.85 -18.5 Q-11.1 -16.75 -10.05 -15.6 L-9.6 -14.95 Q-9.05 -14.0 -8.95 -12.8 -9.6 -11.2 -9.35 -9.4 L-9.2 -8.15 -9.15 -7.7 -9.2 -6.25 -9.25 -5.8 Q-7.75 -4.95 -7.75 -3.6 L-7.85 -3.3 -7.9 -0.3 Q-6.6 0.85 -6.2 2.35 -5.9 3.6 -5.0 4.7 L-4.6 5.15 -3.65 6.15 Q-2.45 7.05 -0.95 7.1 L2.2 6.85 2.45 6.8 3.35 6.6 6.75 2.3 Q8.4 0.15 8.25 -2.8 L8.95 -4.1 9.0 -4.4 M3.9 -18.35 L5.2 -19.95 5.35 -20.1 5.8 -20.55 5.95 -20.6 5.8 -20.5 5.45 -19.75 Q4.55 -18.0 4.1 -16.1 L5.8 -16.05 6.05 -16.05 7.5 -16.1 6.45 -15.7 5.85 -15.5 2.3 -14.5 Q2.7 -16.65 3.9 -18.35 M3.85 -10.05 L4.25 -10.2 5.8 -10.55 7.7 -10.25 7.6 -10.0 7.6 -9.9 7.4 -9.5 6.25 -9.6 6.2 -9.6 5.25 -9.65 5.35 -9.55 Q5.75 -9.0 5.15 -8.55 L4.0 -8.6 Q3.65 -8.85 3.75 -9.15 L3.75 -9.3 2.65 -9.05 2.55 -9.05 2.45 -9.2 2.4 -9.2 2.35 -9.2 Q1.9 -9.2 1.6 -9.45 L1.4 -9.65 1.4 -9.75 1.4 -10.55 1.85 -10.05 Q2.3 -9.6 3.0 -9.7 L3.25 -9.75 3.5 -9.8 3.85 -10.05 M-0.55 -9.5 L-0.65 -9.45 -1.0 -9.25 -1.05 -9.25 -1.15 -9.2 -1.2 -9.2 -1.25 -9.2 -1.95 -9.1 -2.25 -8.95 -3.45 -9.45 -3.5 -9.45 -3.55 -9.2 Q-3.75 -9.0 -3.95 -8.95 -4.75 -8.7 -5.2 -9.25 L-5.3 -9.75 -4.85 -10.3 -4.9 -10.3 -5.2 -10.45 -6.1 -10.55 -6.5 -10.45 -6.8 -10.35 -6.55 -10.45 -6.7 -10.45 -7.5 -10.4 -7.5 -10.75 -7.45 -11.05 -7.35 -11.25 -6.7 -11.3 Q-5.0 -11.45 -3.65 -10.55 L-2.6 -10.1 -1.85 -10.0 -0.5 -10.2 -0.2 -10.3 -0.2 -10.1 -0.55 -9.5 M-5.2 -14.95 L-7.15 -15.2 -7.25 -15.5 -5.85 -15.75 -5.3 -15.75 -4.45 -16.05 -5.8 -19.5 -5.8 -19.55 -6.05 -19.95 -6.4 -20.75 -6.0 -20.4 Q-3.4 -18.0 -2.5 -14.6 L-5.2 -14.95 M-1.15 -4.0 Q0.1 -3.2 1.45 -3.6 L1.5 -3.65 2.0 -3.8 2.15 -3.9 2.1 -3.75 1.95 -3.45 1.85 -3.3 0.75 -2.6 0.6 -2.55 -0.2 -2.95 -0.65 -3.1 -1.0 -3.2 Q-1.3 -3.45 -1.2 -3.85 L-1.2 -3.95 -1.15 -4.05 -1.15 -4.0 M3.35 0.05 Q1.85 0.35 0.1 0.1 -1.7 -0.15 -2.95 1.2 -2.65 0.1 -1.6 -0.45 L3.35 -0.25 3.35 0.05 M-6.9 4.05 Q-7.0 2.3 -8.55 0.85 L-9.15 -0.05 -9.15 -1.25 -8.95 -2.65 -8.95 -2.7 -8.95 -3.75 Q-10.9 -5.0 -10.6 -7.15 L-10.4 -11.1 -10.35 -11.3 -10.3 -11.4 -10.15 -13.2 -10.45 -14.1 -10.5 -14.1 -11.0 -14.8 -11.3 -15.2 Q-12.4 -16.65 -12.25 -18.55 -13.75 -17.6 -13.65 -15.9 L-13.7 -12.4 Q-14.65 -11.6 -14.45 -10.35 L-14.45 -9.95 Q-14.4 -8.95 -14.7 -8.1 L-17.2 -8.2 Q-18.5 -7.0 -17.8 -5.55 L-17.1 -3.9 -17.05 -3.85 -16.8 -2.7 -16.85 -2.65 -16.9 -2.4 -17.35 -1.9 Q-17.7 -1.6 -18.2 -1.35 -18.7 -0.8 -18.65 -0.15 L-18.6 0.2 -18.6 0.25 -18.35 1.7 -18.35 2.05 Q-17.95 2.55 -17.7 2.3 L-17.7 2.25 -17.1 1.8 -16.8 2.05 Q-17.3 2.45 -17.45 2.95 L-17.55 3.2 -17.6 4.1 -17.55 4.8 -17.55 6.45 -17.6 6.45 -17.6 6.5 -17.7 6.7 -17.75 6.7 -17.95 7.1 Q-18.15 6.85 -18.5 6.8 -19.3 6.8 -19.55 7.7 L-21.15 7.9 Q-22.8 8.7 -22.35 10.75 L-21.65 12.95 Q-21.15 14.05 -19.85 14.15 -19.25 14.3 -18.95 14.65 -18.5 15.1 -18.65 15.85 L-18.65 15.95 -18.65 16.0 Q-18.75 16.6 -18.5 17.05 L-17.7 17.75 -17.65 17.75 Q-15.35 17.6 -15.55 19.05 L-15.55 19.2 -15.6 19.3 Q-15.8 20.15 -15.6 20.9 L-15.4 21.4 -15.35 21.55 -15.3 21.6 -15.3 21.65 -15.05 22.0 -15.0 22.1 -14.9 22.25 Q-14.05 22.35 -13.5 21.8 -12.5 21.15 -12.2 22.0 L-11.85 23.6 -11.5 24.05 Q-10.75 24.7 -9.65 24.65 -8.55 24.45 -8.0 23.3 -7.55 22.5 -8.15 22.0 L-9.05 20.9 Q-9.7 19.7 -8.75 19.05 -8.1 18.5 -8.0 17.85 L-8.0 17.8 -8.0 17.15 Q-8.1 16.1 -8.8 15.8 -9.6 15.5 -9.75 14.65 -8.9 13.75 -9.0 12.45 L-9.0 12.3 -9.0 12.15 -8.8 11.25 -8.65 10.9 -8.3 10.4 -8.15 10.3 -8.05 9.8 -7.55 8.1 -7.05 5.8 -7.0 5.4 -6.9 4.1 -6.9 4.05 M-4.8 9.85 L-5.0 8.6 -4.75 8.1 -4.45 8.85 -4.4 8.9 Q-3.65 11.05 -2.3 13.05 -4.2 11.9 -4.8 9.85 M-0.1 12.1 Q0.35 12.15 0.8 12.45 L0.05 12.55 -0.1 12.1" fill="#000000" fill-rule="evenodd" stroke="none"/>
    <path d="M6.4 -27.55 L6.25 -27.5 6.35 -27.6 6.4 -27.55" fill="#339999" fill-rule="evenodd" stroke="none"/>
    <path d="M2.65 -24.8 L3.75 -25.8 5.4 -26.95 6.45 -27.45 Q7.4 -25.95 5.65 -24.9 3.85 -23.8 2.7 -22.2 L1.55 -20.45 Q1.0 -19.45 -0.05 -19.25 L-0.35 -19.75 -0.15 -20.3 0.15 -20.95 0.2 -20.95 0.25 -21.0 0.7 -21.05 0.85 -21.3 1.6 -23.2 2.15 -24.2 2.65 -24.8 M12.0 -16.45 L11.9 -15.95 12.0 -15.85 11.95 -15.25 11.9 -14.3 11.9 -14.15 Q13.5 -13.35 13.1 -11.8 12.75 -10.3 13.8 -9.2 13.55 -8.65 13.7 -8.05 14.95 -7.8 15.75 -6.65 L15.75 -6.5 15.65 -6.4 14.5 -6.4 Q14.8 -6.1 14.65 -5.6 L14.4 -5.15 Q13.7 -5.0 13.3 -5.15 L13.2 -5.2 13.2 -5.25 Q12.85 -5.7 12.9 -6.35 L12.9 -6.6 13.2 -7.05 13.1 -7.3 12.85 -7.95 12.7 -7.95 12.1 -8.05 11.9 -8.15 11.35 -8.55 10.95 -9.2 10.9 -9.3 10.85 -9.3 10.7 -9.25 10.35 -7.95 9.95 -7.9 Q9.2 -9.7 9.5 -11.75 10.2 -13.3 10.2 -15.15 10.2 -16.8 10.5 -18.4 L10.6 -18.6 Q11.8 -17.85 12.0 -16.45 M9.35 10.4 L7.95 9.5 Q6.6 7.85 6.65 5.7 7.5 3.4 8.7 1.2 9.75 -0.95 10.05 -3.4 L10.2 -3.35 Q10.8 -3.2 11.25 -2.65 11.7 -2.0 11.55 -1.15 11.35 -0.15 10.4 0.4 L10.55 0.5 10.45 0.6 10.3 0.8 9.9 0.85 Q9.15 1.25 9.35 2.1 9.4 2.45 9.8 2.5 L10.2 2.5 10.05 3.35 10.15 3.35 10.15 3.7 10.25 4.2 Q9.65 4.85 9.6 5.75 L9.55 6.15 9.3 6.35 8.95 6.55 Q8.45 6.6 8.2 7.2 7.85 7.9 8.55 8.25 L9.2 8.5 9.35 8.55 9.75 8.9 10.25 9.25 10.25 9.35 Q10.05 9.95 9.5 10.35 L9.35 10.4 M12.45 -10.0 L11.6 -10.25 11.45 -10.15 11.25 -9.9 11.25 -9.7 11.3 -9.5 11.4 -9.45 11.7 -9.4 11.75 -9.45 12.4 -9.45 12.5 -9.65 12.5 -9.95 12.45 -10.0 M9.45 3.15 L8.95 3.15 8.65 3.45 Q8.25 4.4 9.2 4.55 L9.65 4.5 Q10.6 3.75 9.45 3.15 M8.4 8.65 L8.35 8.6 8.2 8.65 7.85 8.7 7.85 8.9 7.9 8.95 7.95 9.05 8.3 9.0 8.3 8.8 8.4 8.65 M-10.5 -14.1 L-10.45 -14.1 -10.15 -13.2 -10.3 -11.4 -10.35 -11.3 -10.4 -11.1 -10.6 -7.15 Q-10.9 -5.0 -8.95 -3.75 L-8.95 -2.7 -8.95 -2.65 -9.15 -1.25 -9.15 -0.05 -8.55 0.85 Q-7.0 2.3 -6.9 4.05 L-6.9 4.1 -7.0 5.4 -7.05 5.8 -7.55 8.1 -8.05 9.8 -8.15 10.3 -8.3 10.4 -8.65 10.9 -8.8 11.25 -9.7 11.15 -9.75 11.15 -9.85 11.1 Q-10.55 10.5 -11.05 11.25 -11.7 9.85 -11.35 8.55 L-11.3 8.5 -11.2 8.4 -10.75 7.75 -10.75 7.2 -10.3 6.45 -9.7 5.9 -9.6 6.85 -8.8 7.95 -8.7 7.25 -8.55 6.55 -7.95 5.4 Q-9.15 4.45 -9.75 3.05 L-10.0 2.65 -10.4 2.6 -10.45 2.65 -11.1 3.35 -11.6 3.6 -11.6 3.75 Q-11.55 4.2 -11.85 4.5 L-12.05 4.6 -12.7 4.0 -13.25 3.8 -13.9 3.8 -14.0 3.2 -13.55 3.15 Q-12.8 2.75 -13.1 2.15 L-13.0 2.15 -12.8 1.85 -12.65 1.8 -12.5 1.7 -12.3 1.55 Q-11.95 1.2 -12.1 0.75 L-12.15 0.45 -12.25 -0.2 -12.3 -0.7 -12.15 -1.15 -12.15 -1.2 -12.1 -1.35 Q-12.05 -2.0 -12.25 -2.35 L-12.3 -2.4 -12.35 -2.45 -12.15 -4.1 -11.9 -4.35 -11.9 -4.25 -11.6 -4.35 Q-11.2 -4.45 -11.1 -4.9 -10.8 -6.05 -11.5 -7.15 -11.25 -7.8 -11.5 -8.35 L-11.5 -8.4 -11.4 -8.6 Q-11.8 -9.5 -11.45 -10.4 -11.4 -10.6 -11.2 -10.6 L-11.5 -11.45 -11.55 -11.7 -11.55 -11.85 -11.5 -12.2 -11.25 -12.9 -11.3 -13.2 -11.35 -13.3 -11.35 -13.35 -11.05 -14.1 -11.0 -14.2 -11.0 -14.25 -10.8 -14.3 -10.75 -14.3 -10.5 -14.1 M-13.9 19.3 L-14.3 19.75 Q-13.35 19.05 -11.95 19.35 -12.3 17.6 -11.9 15.75 L-11.55 15.0 -10.5 15.7 -10.35 16.05 -10.05 16.5 Q-11.2 17.55 -10.9 19.05 L-10.55 20.0 -8.95 21.95 -9.35 22.25 -9.75 22.45 Q-10.05 22.65 -10.15 23.0 L-10.3 23.45 -10.65 23.45 Q-11.4 23.45 -11.5 24.05 L-11.85 23.6 -12.2 22.0 Q-12.5 21.15 -13.5 21.8 -14.05 22.35 -14.9 22.25 L-15.0 22.1 -15.05 22.0 -15.3 21.65 -15.3 21.6 -15.35 21.55 -15.4 21.4 -15.6 20.9 Q-15.8 20.15 -15.6 19.3 L-15.55 19.2 -15.55 19.05 -15.5 18.8 -15.5 18.75 -15.3 18.7 Q-14.05 18.65 -13.9 19.3 M-11.25 -0.9 L-11.3 -0.85 -11.35 -0.8 -11.5 -0.55 Q-11.7 -0.05 -11.5 0.25 L-11.4 0.35 -10.9 0.5 -10.75 0.5 -10.7 0.5 -10.45 0.25 -10.4 0.15 Q-10.15 -0.35 -10.55 -0.75 L-10.65 -0.85 -10.9 -0.85 -10.9 -1.0 -11.3 -1.1 -11.35 -1.1 -11.25 -0.9 M-8.35 8.15 L-8.4 8.15 -8.45 8.3 -8.35 8.15 M-8.65 8.85 L-8.7 8.55 -8.8 8.6 -8.7 8.6 -8.65 8.85 M-12.1 2.25 L-12.05 2.6 -11.75 2.95 -11.35 2.95 -11.3 2.9 -10.9 2.55 -10.75 2.4 Q-10.55 1.95 -11.1 1.85 L-11.15 1.8 -11.35 1.7 -11.5 1.8 -11.7 1.95 -11.65 1.85 -11.9 2.1 -12.1 2.25" fill="#715b8e" fill-rule="evenodd" stroke="none"/>
    <path d="M7.45 10.7 L7.45 11.6 7.0 12.85 6.85 13.0 6.75 13.15 5.65 14.4 5.35 13.6 5.05 12.4 4.2 10.65 Q-0.35 11.15 -4.4 8.85 L-4.45 8.85 -4.75 8.1 -5.0 8.6 -4.8 9.85 -4.95 10.35 -4.8 10.65 -3.05 13.5 -1.15 16.0 Q-3.0 15.6 -4.5 14.4 L-6.3 12.8 -6.5 12.6 -7.6 10.95 -7.6 10.9 -7.45 10.55 -7.0 9.5 -6.15 7.15 -5.75 5.55 -5.3 5.55 Q-3.85 7.75 -1.7 7.85 L2.95 7.95 4.25 6.95 Q4.6 6.35 5.2 6.0 L5.5 6.2 5.55 6.4 6.9 11.05 7.1 11.55 7.2 10.2 7.3 10.3 7.45 10.7 M7.0 -24.5 L7.55 -23.8 8.1 -23.05 Q9.35 -20.9 9.3 -18.1 9.2 -14.3 8.25 -10.8 L8.4 -10.05 9.1 -6.65 9.25 -5.5 9.1 -4.4 9.0 -4.4 8.9 -4.3 8.95 -4.1 8.25 -2.8 Q8.4 0.15 6.75 2.3 L3.35 6.6 2.45 6.8 2.2 6.85 Q2.4 4.75 4.1 3.4 L4.65 2.65 5.65 -0.25 Q6.0 -1.5 5.8 -2.7 L5.45 -4.8 5.4 -4.8 Q5.25 -5.4 4.5 -5.35 L3.95 -5.2 3.55 -5.0 3.3 -5.1 2.9 -5.2 Q2.05 -5.2 1.4 -5.55 L1.25 -5.75 1.25 -5.9 1.25 -6.0 1.15 -6.95 1.1 -8.1 1.0 -8.3 Q0.7 -8.7 0.1 -8.6 L0.05 -8.55 0.05 -8.6 -0.1 -8.45 -0.25 -8.3 -0.25 -8.65 -0.35 -8.2 -0.3 -8.2 -0.5 -7.95 Q-0.9 -6.35 -2.1 -5.4 -3.15 -4.55 -4.7 -4.9 L-5.1 -5.1 -5.9 -5.8 -6.1 -6.0 -6.3 -6.2 -6.35 -6.3 -6.45 -6.4 -6.05 -6.3 -5.5 -6.15 -4.6 -6.2 -3.15 -6.6 -3.15 -6.65 -2.65 -7.0 -2.45 -7.05 -2.4 -7.1 -2.45 -7.15 -2.65 -7.2 -3.0 -7.4 -1.55 -7.55 -1.25 -7.65 -0.8 -8.05 Q-0.35 -8.55 -0.55 -9.1 L-0.6 -9.25 -0.6 -9.1 -0.6 -9.4 -0.65 -9.45 -0.55 -9.5 -0.35 -9.35 1.15 -9.25 1.2 -9.25 1.2 -9.2 1.3 -9.2 1.35 -9.25 1.4 -9.25 Q1.05 -8.85 1.25 -8.25 1.45 -7.6 2.05 -7.1 L2.15 -7.0 Q2.45 -6.55 3.0 -6.5 L2.85 -6.65 3.25 -6.35 5.15 -5.95 Q5.25 -5.85 5.4 -5.85 6.25 -5.8 7.0 -6.5 L7.3 -7.15 7.3 -7.35 7.7 -8.25 7.65 -8.85 7.85 -9.3 7.85 -9.35 7.9 -9.45 7.95 -9.5 7.95 -9.6 8.05 -9.65 7.65 -10.1 7.6 -10.0 7.7 -10.25 5.8 -10.55 4.25 -10.2 3.85 -10.05 3.95 -10.35 5.0 -10.85 5.2 -11.15 4.8 -11.55 5.6 -12.1 6.0 -12.55 6.0 -12.75 6.1 -15.55 6.45 -15.7 7.5 -16.1 6.05 -16.05 5.45 -19.75 5.8 -20.5 5.95 -20.6 5.8 -20.55 5.35 -20.1 5.2 -19.95 3.9 -18.35 3.75 -18.3 2.65 -17.35 2.4 -17.25 2.35 -17.15 2.1 -16.9 Q1.15 -16.55 0.9 -17.35 2.2 -20.55 4.7 -23.0 L5.55 -23.85 6.5 -24.65 6.55 -24.65 7.0 -24.5 M2.35 -13.5 L2.8 -13.5 2.9 -13.45 2.95 -13.4 3.0 -13.35 2.8 -12.9 2.25 -12.45 2.2 -12.4 2.15 -12.35 2.15 -12.3 -0.25 -12.15 Q-1.15 -12.1 -1.8 -12.6 L-2.7 -13.05 -3.75 -13.2 -3.8 -13.25 -3.85 -13.3 -3.85 -13.35 -3.8 -13.4 -3.8 -13.45 -3.75 -13.5 -3.35 -13.55 -3.25 -13.55 -1.25 -13.25 -1.1 -13.2 2.05 -13.45 2.35 -13.5 M4.35 -6.75 L5.2 -6.9 5.45 -6.9 5.5 -6.9 4.35 -6.75 M1.95 -3.45 L2.15 -3.15 2.0 -2.55 1.3 -1.6 Q0.5 -1.4 -0.25 -1.9 -0.6 -2.05 -0.75 -2.35 L-1.0 -3.1 -1.0 -3.2 -0.65 -3.1 -0.2 -2.95 0.6 -2.55 0.75 -2.6 1.85 -3.3 1.95 -3.45 M2.0 1.35 L2.0 1.4 2.9 1.4 3.05 1.5 Q3.3 2.15 2.7 2.45 L2.35 2.75 -0.95 2.65 -1.05 2.6 -1.15 2.5 -1.4 2.2 Q-1.6 1.55 -0.95 1.45 L-0.05 1.25 1.05 1.35 2.0 1.35 M-7.9 -10.1 L-7.9 -9.8 -8.05 -9.7 -8.05 -9.75 -7.9 -10.1 M-1.75 -4.35 L-1.7 -4.35 Q-1.25 -4.2 -1.6 -3.7 L-2.1 -2.7 -2.3 -2.15 -3.0 -0.8 -3.05 -0.75 -3.2 -0.05 -3.3 0.05 -3.4 0.55 -3.4 0.75 -3.5 0.75 -3.5 0.8 Q-4.1 0.65 -3.9 0.1 L-3.8 -1.3 -3.7 -1.95 -3.3 -2.55 -2.45 -3.45 -1.8 -4.3 -1.75 -4.35 M-4.45 8.85 L-4.4 8.85 -4.4 8.9 -4.45 8.85" fill="#cc9999" fill-rule="evenodd" stroke="none"/>
    <path d="M7.35 10.3 L7.45 10.7 7.3 10.3 7.2 10.2 7.35 10.3 M5.65 14.4 Q4.2 15.6 2.2 16.0 0.4 16.3 -1.15 16.0 L-3.05 13.5 -4.8 10.65 -4.95 10.35 -4.8 9.85 Q-4.2 11.9 -2.3 13.05 -3.65 11.05 -4.4 8.9 L-4.4 8.85 -4.45 8.85 -4.4 8.85 Q-0.35 11.15 4.2 10.65 L5.05 12.4 5.35 13.6 5.65 14.4 M5.2 6.0 L5.45 5.8 5.5 6.2 5.2 6.0 M9.0 -4.4 L8.95 -4.1 8.9 -4.3 9.0 -4.4 M2.2 6.85 L-0.95 7.1 Q-2.45 7.05 -3.65 6.15 L-2.6 6.35 -2.15 5.85 Q-1.85 5.1 -2.5 4.45 L-2.75 3.9 Q-3.05 2.9 -3.85 2.25 L-4.5 2.25 -5.0 2.75 Q-5.3 3.5 -5.1 4.4 L-5.0 4.7 Q-5.9 3.6 -6.2 2.35 -6.6 0.85 -7.9 -0.3 L-7.85 -3.3 -7.75 -3.6 Q-7.0 -3.1 -6.0 -3.9 -5.1 -4.7 -5.45 -5.35 L-5.9 -5.8 -5.1 -5.1 -4.7 -4.9 Q-3.15 -4.55 -2.1 -5.4 -0.9 -6.35 -0.5 -7.95 L-0.3 -8.2 -0.25 -8.15 -0.25 -8.3 -0.1 -8.45 0.05 -8.6 0.05 -8.55 0.1 -8.6 Q0.7 -8.7 1.0 -8.3 L1.1 -8.1 1.15 -6.95 1.25 -6.0 1.25 -5.9 1.25 -5.75 1.4 -5.55 Q2.05 -5.2 2.9 -5.2 L3.3 -5.1 3.55 -5.0 3.25 -4.75 Q2.9 -4.4 3.1 -4.05 3.3 -3.65 3.9 -3.8 L4.15 -4.1 5.3 -4.35 5.4 -4.65 5.4 -4.8 5.45 -4.8 5.8 -2.7 Q6.0 -1.5 5.65 -0.25 L4.65 2.65 4.1 3.4 Q2.4 4.75 2.2 6.85 M-9.2 -8.15 L-9.35 -9.4 Q-9.6 -11.2 -8.95 -12.8 -9.05 -14.0 -9.6 -14.95 L-9.6 -15.05 -9.4 -15.55 -9.35 -15.9 Q-8.8 -16.2 -8.65 -16.7 L-8.5 -17.3 -8.4 -16.9 -8.2 -16.7 -7.85 -16.65 -7.85 -16.55 Q-7.45 -15.15 -7.5 -13.6 L-7.35 -12.9 -8.1 -12.45 Q-8.65 -12.05 -8.5 -11.35 -8.3 -10.35 -7.45 -10.3 L-7.5 -10.4 -6.7 -10.45 -6.55 -10.45 -6.8 -10.35 -6.5 -10.45 -6.1 -10.55 -5.2 -10.45 -4.9 -10.3 -4.85 -10.3 -5.3 -9.75 -5.2 -9.25 Q-4.75 -8.7 -3.95 -8.95 -3.75 -9.0 -3.55 -9.2 L-3.5 -9.45 -3.45 -9.45 -2.25 -8.95 -2.9 -8.4 -4.55 -8.65 -4.85 -8.7 -5.15 -8.75 -5.45 -8.85 -6.55 -9.2 -7.0 -9.35 -7.2 -9.4 -7.45 -10.25 -7.6 -10.25 -7.7 -10.2 -7.75 -10.2 -7.9 -10.1 -8.05 -9.75 -8.05 -9.7 -8.0 -9.0 -7.9 -8.4 -8.7 -8.55 Q-8.8 -8.45 -8.95 -8.45 L-9.05 -8.4 -9.2 -8.15 M-6.05 -23.8 Q-4.7 -23.1 -3.35 -22.0 -1.05 -19.95 -0.35 -17.3 0.0 -16.7 0.6 -16.8 L0.75 -17.0 0.9 -17.35 Q1.15 -16.55 2.1 -16.9 L2.35 -17.15 2.4 -17.25 2.65 -17.35 3.75 -18.3 3.9 -18.35 Q2.7 -16.65 2.3 -14.5 L5.85 -15.5 6.45 -15.7 6.1 -15.55 6.0 -12.75 4.4 -12.55 4.0 -12.25 3.7 -12.1 3.0 -11.5 2.25 -11.35 -2.6 -11.55 -3.0 -11.65 -4.05 -12.1 -5.4 -12.75 -5.6 -13.05 -5.6 -13.2 -5.4 -13.5 -5.25 -14.0 Q-5.15 -14.5 -5.2 -14.95 L-2.5 -14.6 Q-3.4 -18.0 -6.0 -20.4 L-5.6 -20.05 Q-5.4 -21.15 -6.45 -21.55 L-6.35 -21.65 Q-5.6 -22.7 -6.05 -23.8 M6.55 -24.65 L6.75 -24.8 7.0 -24.5 6.55 -24.65 M5.45 -19.75 L6.05 -16.05 5.8 -16.05 4.1 -16.1 Q4.55 -18.0 5.45 -19.75 M7.3 -7.35 L7.3 -7.15 7.0 -6.5 Q6.25 -5.8 5.4 -5.85 5.25 -5.85 5.15 -5.95 L3.25 -6.35 2.85 -6.65 2.8 -6.9 2.8 -6.95 2.85 -6.95 2.95 -6.95 3.0 -6.95 3.2 -6.9 3.7 -6.85 4.3 -6.75 4.35 -6.75 5.5 -6.9 5.6 -6.95 6.0 -7.2 7.3 -7.5 7.3 -7.35 M-3.0 -7.4 L-2.65 -7.2 -2.45 -7.15 -2.4 -7.1 -2.45 -7.05 -2.65 -7.0 -3.15 -6.65 -3.15 -6.6 -4.6 -6.2 -5.5 -6.15 -6.05 -6.3 -6.45 -6.4 -6.35 -6.3 Q-7.05 -6.2 -7.5 -6.6 L-8.15 -7.1 Q-8.65 -7.55 -8.55 -8.15 L-8.35 -8.4 -7.75 -8.25 -7.75 -8.15 -6.9 -7.8 -6.6 -7.65 -5.5 -7.3 -3.65 -7.4 -3.0 -7.4 M2.35 -13.5 L2.05 -13.45 -1.1 -13.2 -1.25 -13.25 -3.25 -13.55 -3.35 -13.55 -3.75 -13.5 -3.8 -13.45 -3.8 -13.4 -3.85 -13.35 -3.85 -13.3 -3.8 -13.25 -3.75 -13.2 -2.7 -13.05 -1.8 -12.6 Q-1.15 -12.1 -0.25 -12.15 L2.15 -12.3 2.15 -12.35 2.2 -12.4 2.25 -12.45 2.8 -12.9 3.0 -13.35 2.95 -13.4 2.9 -13.45 2.8 -13.5 2.35 -13.5 M2.55 -9.05 L2.65 -9.05 3.75 -9.3 3.75 -9.15 Q3.65 -8.85 4.0 -8.6 L5.15 -8.55 Q5.75 -9.0 5.35 -9.55 L5.25 -9.65 6.2 -9.6 6.25 -9.6 7.4 -9.5 Q6.85 -8.65 5.95 -8.15 L3.95 -8.2 Q3.3 -8.25 2.9 -8.6 L2.55 -9.05 M2.0 -9.2 L2.0 -9.25 2.05 -9.25 2.0 -9.2 M-5.3 -15.75 L-5.85 -18.65 -5.8 -19.5 -4.45 -16.05 -5.3 -15.75 M1.5 -3.65 Q1.75 -5.15 0.3 -5.4 L-0.25 -5.75 -0.75 -5.5 Q-1.45 -5.2 -1.4 -4.5 L-1.25 -4.1 -1.2 -3.85 Q-1.3 -3.45 -1.0 -3.2 L-1.0 -3.1 -0.75 -2.35 Q-0.6 -2.05 -0.25 -1.9 0.5 -1.4 1.3 -1.6 L2.0 -2.55 2.15 -3.15 1.95 -3.45 2.1 -3.75 2.15 -3.9 2.0 -3.8 1.5 -3.65 M3.35 0.05 L3.35 -0.25 -1.6 -0.45 Q-2.65 0.1 -2.95 1.2 -1.7 -0.15 0.1 0.1 1.85 0.35 3.35 0.05 M2.0 1.35 L1.05 1.35 -0.05 1.25 -0.95 1.45 Q-1.6 1.55 -1.4 2.2 L-1.15 2.5 -1.05 2.6 -0.95 2.65 2.35 2.75 2.7 2.45 Q3.3 2.15 3.05 1.5 L2.9 1.4 2.0 1.4 2.0 1.35 M-1.75 -4.35 L-1.8 -4.3 -2.45 -3.45 -3.3 -2.55 -3.7 -1.95 -3.8 -1.3 -3.9 0.1 Q-4.1 0.65 -3.5 0.8 L-3.5 0.75 -3.4 0.75 -3.4 0.55 -3.3 0.05 -3.2 -0.05 -3.05 -0.75 -3.0 -0.8 -2.3 -2.15 -2.1 -2.7 -1.6 -3.7 Q-1.25 -4.2 -1.7 -4.35 L-1.75 -4.35 M-0.1 12.1 L0.05 12.55 0.8 12.45 Q0.35 12.15 -0.1 12.1" fill="#eed0bb" fill-rule="evenodd" stroke="none"/>
    <path d="M-3.65 6.15 L-4.6 5.15 -5.0 4.7 -5.1 4.4 Q-5.3 3.5 -5.0 2.75 L-4.5 2.25 -3.85 2.25 Q-3.05 2.9 -2.75 3.9 L-2.5 4.45 Q-1.85 5.1 -2.15 5.85 L-2.6 6.35 -3.65 6.15 M-7.75 -3.6 Q-7.75 -4.95 -9.25 -5.8 L-9.2 -6.25 -9.15 -7.7 -9.2 -8.15 -9.05 -8.4 -8.95 -8.45 Q-8.8 -8.45 -8.7 -8.55 L-7.9 -8.4 -7.75 -8.25 -8.35 -8.4 -8.55 -8.15 Q-8.65 -7.55 -8.15 -7.1 L-7.5 -6.6 Q-7.05 -6.2 -6.35 -6.3 L-6.3 -6.2 -6.65 -6.25 -6.8 -6.2 -7.2 -5.95 -7.45 -5.85 Q-8.1 -5.5 -8.1 -4.95 L-7.9 -4.65 Q-7.2 -4.3 -6.65 -4.95 L-6.3 -5.05 -6.2 -5.4 -6.1 -5.7 -6.1 -6.0 -5.9 -5.8 -5.45 -5.35 Q-5.1 -4.7 -6.0 -3.9 -7.0 -3.1 -7.75 -3.6 M-9.6 -14.95 L-10.05 -15.6 Q-11.1 -16.75 -10.85 -18.5 L-10.85 -18.6 -10.85 -18.8 Q-10.75 -22.25 -8.35 -24.6 L-6.05 -23.8 Q-5.6 -22.7 -6.35 -21.65 L-6.45 -21.55 Q-5.4 -21.15 -5.6 -20.05 L-6.0 -20.4 -6.4 -20.75 -6.05 -19.95 -5.8 -19.55 -5.8 -19.5 -5.85 -18.65 -5.3 -15.75 -5.85 -15.75 -7.25 -15.5 -7.15 -15.2 -5.2 -14.95 Q-5.15 -14.5 -5.25 -14.0 L-5.4 -13.5 -5.6 -13.2 -5.6 -13.05 -5.4 -12.75 -4.05 -12.1 -3.0 -11.65 -2.6 -11.55 2.25 -11.35 3.0 -11.5 3.7 -12.1 4.0 -12.25 4.4 -12.55 6.0 -12.75 6.0 -12.55 5.6 -12.1 4.8 -11.55 4.65 -11.55 Q3.65 -11.5 2.95 -10.75 L2.85 -10.55 2.6 -10.05 Q2.55 -9.9 2.8 -9.75 L3.0 -9.7 Q2.3 -9.6 1.85 -10.05 L1.4 -10.55 1.4 -9.75 1.35 -9.65 1.4 -9.65 1.6 -9.45 Q1.9 -9.2 2.35 -9.2 L2.05 -9.25 2.0 -9.25 1.95 -9.2 1.8 -9.2 1.4 -9.25 1.35 -9.25 1.3 -9.2 1.2 -9.2 1.2 -9.25 1.15 -9.25 -0.35 -9.35 -0.55 -9.5 -0.2 -10.1 -0.2 -10.3 -0.5 -10.2 -1.85 -10.0 -2.6 -10.1 -2.5 -10.15 -2.65 -10.45 -3.5 -11.25 Q-4.6 -12.3 -6.15 -12.35 L-6.2 -12.35 -7.05 -12.45 -7.65 -12.3 -7.7 -12.25 -8.1 -11.85 -8.1 -11.45 Q-7.95 -11.2 -7.65 -11.25 L-6.85 -11.35 -6.7 -11.3 -7.35 -11.25 -7.45 -11.05 -7.5 -10.75 -7.5 -10.4 -7.45 -10.3 Q-8.3 -10.35 -8.5 -11.35 -8.65 -12.05 -8.1 -12.45 L-7.35 -12.9 -7.5 -13.6 Q-7.45 -15.15 -7.85 -16.55 L-7.85 -16.65 Q-7.5 -16.7 -7.4 -17.05 L-7.35 -17.7 -7.4 -18.85 -7.25 -19.4 Q-6.8 -20.75 -7.45 -21.95 L-7.7 -21.95 -7.75 -21.9 -7.85 -21.85 -7.9 -21.8 -7.9 -21.75 -8.05 -21.65 -8.4 -20.7 Q-8.8 -19.8 -8.65 -18.8 L-8.6 -18.45 -8.6 -18.3 -8.5 -17.3 -8.65 -16.7 Q-8.8 -16.2 -9.35 -15.9 L-9.4 -15.55 -9.6 -15.05 -9.6 -14.95 M3.55 -5.0 L3.95 -5.2 4.5 -5.35 Q5.25 -5.4 5.4 -4.8 L5.4 -4.65 5.3 -4.35 4.15 -4.1 3.9 -3.8 Q3.3 -3.65 3.1 -4.05 2.9 -4.4 3.25 -4.75 L3.55 -5.0 M-1.15 -4.0 L-0.55 -4.05 -0.5 -4.1 0.0 -4.65 0.3 -5.05 0.3 -5.4 Q1.75 -5.15 1.5 -3.65 L1.45 -3.6 Q0.1 -3.2 -1.15 -4.0 M-1.25 -4.1 L-1.15 -4.05 -1.2 -3.95 -1.2 -3.85 -1.25 -4.1 M-4.4 2.5 L-4.55 2.9 Q-4.75 3.75 -3.75 3.9 L-3.65 3.7 -3.55 3.55 -4.05 2.95 Q-4.05 2.5 -4.4 2.5" fill="#f4e2d7" fill-rule="evenodd" stroke="none"/>
    <path d="M-6.5 -27.5 L-6.65 -27.3 -6.85 -27.45 -6.55 -27.5 -6.5 -27.5 M7.6 -10.0 L7.65 -10.1 8.05 -9.65 7.95 -9.6 7.95 -9.5 7.9 -9.45 7.85 -9.35 7.8 -9.5 7.85 -9.3 7.65 -8.85 7.4 -8.4 7.3 -8.4 7.15 -8.05 4.75 -7.7 3.6 -7.5 3.3 -7.5 3.0 -7.5 1.85 -8.55 1.85 -8.6 1.85 -8.95 1.9 -9.15 2.0 -9.2 2.05 -9.25 2.35 -9.2 2.4 -9.2 2.45 -9.2 2.55 -9.05 2.9 -8.6 Q3.3 -8.25 3.95 -8.2 L5.95 -8.15 Q6.85 -8.65 7.4 -9.5 L7.6 -9.9 7.6 -10.0 M-0.65 -9.45 L-0.6 -9.4 -0.6 -9.1 -0.7 -8.9 -0.8 -8.75 -1.0 -8.75 -2.0 -8.3 -2.2 -8.1 -3.15 -8.2 -5.8 -8.35 -7.25 -8.65 -7.5 -9.0 -7.9 -9.8 -7.9 -10.1 -7.75 -10.2 -7.7 -10.2 -7.6 -10.25 -7.45 -10.25 -7.2 -9.4 -7.0 -9.35 -6.55 -9.2 -5.45 -8.85 -5.15 -8.75 -4.85 -8.7 -4.55 -8.65 -2.9 -8.4 -2.25 -8.95 -1.95 -9.1 -1.25 -9.2 -1.2 -9.2 -1.15 -9.2 -1.05 -9.25 -1.0 -9.25 -0.65 -9.45" fill="#cc3300" fill-rule="evenodd" stroke="none"/>
    <path d="M7.85 -9.35 L7.85 -9.3 7.8 -9.5 7.85 -9.35 M-0.3 -8.2 L-0.35 -8.2 -0.25 -8.65 -0.25 -8.3 -0.25 -8.15 -0.3 -8.2 M1.4 -9.65 L1.35 -9.65 1.4 -9.75 1.4 -9.65" fill="#f4bcb3" fill-rule="evenodd" stroke="none"/>
    <path d="M7.65 -8.85 L7.7 -8.25 7.3 -7.35 7.3 -7.5 6.0 -7.2 5.6 -6.95 5.5 -6.9 5.45 -6.9 5.2 -6.9 4.35 -6.75 4.3 -6.75 3.7 -6.85 3.2 -6.9 3.0 -6.95 2.95 -6.95 2.85 -6.95 2.8 -6.95 2.8 -6.9 2.85 -6.65 3.0 -6.5 Q2.45 -6.55 2.15 -7.0 L2.05 -7.1 Q1.45 -7.6 1.25 -8.25 1.05 -8.85 1.4 -9.25 L1.8 -9.2 1.95 -9.2 2.0 -9.25 2.0 -9.2 1.9 -9.15 1.85 -8.95 1.85 -8.6 1.85 -8.55 3.0 -7.5 3.3 -7.5 3.6 -7.5 4.75 -7.7 7.15 -8.05 7.3 -8.4 7.4 -8.4 7.65 -8.85 M-0.6 -9.1 L-0.6 -9.25 -0.55 -9.1 Q-0.35 -8.55 -0.8 -8.05 L-1.25 -7.65 -1.55 -7.55 -3.0 -7.4 -3.65 -7.4 -5.5 -7.3 -6.6 -7.65 -6.9 -7.8 -7.75 -8.15 -7.75 -8.25 -7.9 -8.4 -8.0 -9.0 -8.05 -9.7 -7.9 -9.8 -7.5 -9.0 -7.25 -8.65 -5.8 -8.35 -3.15 -8.2 -2.2 -8.1 -2.0 -8.3 -1.0 -8.75 -0.8 -8.75 -0.7 -8.9 -0.6 -9.1 M-5.3 -7.4 L-5.15 -7.7 -5.25 -7.55 -5.3 -7.4" fill="#e39999" fill-rule="evenodd" stroke="none"/>
    <path d="M-5.3 -7.4 L-5.25 -7.55 -5.15 -7.7 -5.3 -7.4" fill="#cc99a9" fill-rule="evenodd" stroke="none"/>
  </g>
</svg>
