<?xml version="1.0" encoding="UTF-8" standalone="no"?>
<svg xmlns:xlink="http://www.w3.org/1999/xlink" height="139.25px" width="107.55px" xmlns="http://www.w3.org/2000/svg">
  <g transform="matrix(1.0, 0.0, 0.0, 1.0, 57.05, 47.1)">
    <path d="M21.2 -35.45 L21.25 -35.3 21.5 -34.4 21.6 -34.05 21.6 -32.6 Q19.65 -35.75 16.7 -35.45 L15.45 -35.15 15.35 -35.4 Q15.35 -36.15 15.85 -36.65 L16.05 -36.65 Q18.95 -36.65 21.2 -35.1 L21.2 -35.45 M22.0 -31.5 Q22.2 -30.35 21.9 -29.2 L21.9 -29.15 21.9 -27.7 21.8 -26.9 21.6 -26.5 21.65 -27.0 Q20.4 -29.0 18.75 -29.95 L17.75 -30.45 14.2 -30.9 13.7 -30.85 13.7 -31.2 Q13.9 -31.9 14.55 -32.15 L14.55 -32.0 17.3 -31.7 Q19.15 -31.25 20.75 -30.05 L21.3 -30.35 21.65 -30.7 22.0 -31.5 M40.45 62.4 L41.1 61.8 Q40.1 60.0 39.45 58.15 L38.65 58.75 38.6 58.8 39.45 58.05 Q40.5 61.15 42.45 64.0 40.75 66.55 38.05 67.8 L32.85 70.25 32.4 70.45 Q29.8 71.65 26.9 72.25 27.95 69.9 29.4 67.8 L29.8 68.4 30.3 69.15 30.8 69.95 31.05 70.25 32.3 70.15 32.4 70.45 32.3 70.15 32.85 69.6 33.0 69.35 33.05 69.3 32.5 67.45 Q33.05 67.05 33.75 66.75 L33.95 67.3 Q34.4 68.8 36.0 67.8 37.4 67.2 36.95 66.0 L36.8 65.7 36.6 65.3 38.0 64.4 38.9 65.8 38.95 65.8 38.95 65.85 39.05 65.85 40.45 65.1 41.15 64.45 41.15 64.4 41.3 64.2 41.15 63.85 40.9 63.2 40.45 62.4 M-48.25 -17.35 L-45.7 -16.95 Q-43.3 -16.1 -41.25 -14.85 -41.75 -12.4 -40.35 -10.55 -39.2 -9.45 -38.1 -8.7 -37.05 -8.05 -37.0 -6.3 -36.75 -5.0 -35.4 -4.4 -34.05 -3.8 -34.7 -2.15 L-34.7 -2.1 -34.75 -0.9 -34.7 -0.6 Q-34.55 0.3 -33.8 1.0 -32.5 2.3 -32.25 4.1 L-33.2 8.0 Q-33.6 10.0 -32.1 11.65 L-33.25 13.05 Q-34.6 13.0 -35.7 12.35 L-36.45 12.2 -37.75 11.8 -40.45 10.85 -40.75 10.7 -41.3 10.45 Q-39.35 10.65 -37.65 9.9 L-36.15 8.65 Q-34.35 6.1 -35.3 3.0 -35.65 1.85 -36.3 0.8 L-37.45 -0.8 Q-39.1 -1.35 -40.55 -2.85 L-40.95 -3.25 -44.9 -8.35 -45.6 -9.7 -47.55 -13.3 Q-48.15 -14.5 -48.1 -15.75 -48.05 -16.7 -48.25 -17.35 M-53.0 -1.45 Q-53.2 -2.0 -52.8 -2.8 -51.9 -6.3 -49.55 -8.85 L-49.3 -8.4 -49.4 -8.2 -52.25 -0.8 -53.0 -1.45 M-49.25 -0.85 Q-48.6 -3.3 -47.3 -5.45 -46.8 -5.35 -46.65 -4.85 L-46.65 -4.7 -46.65 -4.6 -47.7 -2.15 -48.15 -0.9 -48.2 -0.75 -48.9 1.45 -48.95 1.6 -49.3 2.95 -49.85 2.8 -49.95 2.7 Q-49.8 0.85 -49.25 -0.85 M-46.65 5.6 Q-46.7 2.15 -45.15 -1.15 -45.2 -2.0 -44.35 -2.35 -43.7 -2.75 -43.3 -1.75 L-43.3 -1.6 Q-45.0 2.0 -45.8 5.8 L-46.0 5.95 -46.05 5.95 -46.65 5.95 -46.65 5.6 M-22.1 72.65 Q-22.9 73.95 -23.05 75.8 -21.95 76.5 -20.6 76.05 -19.75 75.45 -19.65 73.95 L-19.65 73.9 -19.5 73.45 -18.5 73.75 -18.45 73.75 -18.15 74.05 -18.1 74.15 -18.1 74.65 -18.4 75.7 -18.45 75.85 Q-18.85 76.6 -18.2 77.45 L-16.55 77.5 Q-15.65 77.65 -15.5 76.65 L-14.85 76.9 -10.55 78.55 Q-18.05 79.1 -24.7 77.1 -31.4 75.15 -37.45 71.8 -39.4 70.5 -37.9 69.0 L-36.0 66.1 -35.2 66.9 -35.15 66.95 -34.65 67.15 -35.0 67.6 -35.15 67.8 -35.25 67.9 Q-36.2 68.85 -36.35 70.15 L-34.4 71.35 -33.0 68.95 -32.5 68.05 -30.35 69.05 -30.65 69.85 -31.85 72.15 -32.0 72.3 -29.75 73.15 -28.15 70.15 -26.3 71.0 -27.5 73.9 Q-27.2 74.5 -26.45 74.4 -24.4 75.35 -24.15 73.65 L-24.1 73.5 -24.1 73.45 -24.05 73.1 -23.7 72.1 -22.1 72.65" fill="#333333" fill-rule="evenodd" stroke="none"/>
    <path d="M21.6 -32.6 L21.6 -34.05 21.5 -34.4 21.25 -35.3 21.2 -35.45 21.2 -35.6 19.65 -37.4 Q18.2 -38.55 16.5 -38.9 L15.65 -39.05 15.3 -39.05 14.2 -39.1 14.65 -38.5 15.75 -36.65 15.85 -36.65 Q15.35 -36.15 15.35 -35.4 L15.45 -35.15 15.0 -35.05 Q14.15 -33.6 14.55 -32.15 13.9 -31.9 13.7 -31.2 L13.7 -30.85 13.45 -30.85 Q10.75 -29.25 8.8 -26.6 L8.75 -26.55 8.25 -25.75 Q6.8 -23.5 6.65 -20.75 6.8 -17.75 9.3 -16.0 12.1 -14.3 15.45 -15.15 L15.55 -15.25 15.65 -15.35 18.05 -17.6 Q21.3 -21.3 21.6 -26.5 L21.8 -26.9 21.9 -27.7 21.9 -29.15 21.9 -29.2 Q22.2 -30.35 22.0 -31.5 L21.6 -32.6 M22.5 -28.35 L22.4 -28.45 22.4 -28.3 22.4 -28.25 22.45 -27.45 22.6 -24.95 24.05 -24.7 24.4 -24.45 Q22.9 -24.55 21.85 -23.15 21.85 -22.8 22.0 -22.5 22.25 -22.05 22.95 -21.9 24.0 -21.7 24.1 -20.45 23.35 -20.65 22.8 -21.1 L21.45 -21.3 Q20.7 -19.55 19.45 -17.85 L18.7 -16.85 18.6 -16.75 17.0 -15.25 16.9 -15.15 16.25 -14.75 15.7 -14.45 14.4 -13.85 Q9.85 -13.6 6.95 -16.9 L5.6 -16.7 6.0 -17.25 Q6.3 -17.95 6.0 -18.8 L5.5 -20.8 5.45 -20.95 5.45 -21.15 4.1 -21.5 2.6 -21.85 2.6 -22.1 5.6 -22.1 Q7.45 -25.95 5.35 -29.5 L5.15 -29.8 5.1 -29.85 Q5.7 -29.9 6.2 -29.5 L6.95 -28.45 Q6.95 -27.3 7.75 -26.95 L10.05 -29.45 Q11.15 -30.85 10.4 -32.85 L8.95 -35.0 8.75 -35.35 9.15 -35.4 Q10.2 -35.55 10.85 -34.5 L11.05 -34.0 11.1 -33.9 11.1 -33.8 Q11.45 -32.55 11.25 -31.2 13.5 -30.95 13.55 -32.9 L13.7 -34.0 14.4 -35.45 14.85 -36.0 14.4 -37.4 Q13.7 -38.6 12.3 -39.1 10.55 -39.75 9.8 -41.3 L9.45 -42.25 Q7.35 -44.8 4.6 -43.75 1.9 -42.8 -0.8 -42.65 L-2.75 -42.35 -4.05 -42.25 -4.5 -42.5 -5.1 -42.15 -8.25 -41.95 -10.7 -42.95 Q-13.6 -41.85 -14.45 -39.0 L-14.5 -38.85 -14.9 -37.75 -16.25 -34.85 -16.8 -33.9 -16.8 -33.85 Q-17.1 -33.05 -16.5 -32.95 -15.85 -32.95 -16.0 -32.25 -17.0 -31.45 -18.2 -31.0 L-18.35 -30.95 -19.8 -30.65 -20.55 -30.6 Q-23.15 -30.5 -23.8 -27.4 L-24.3 -24.65 Q-24.7 -23.3 -26.05 -22.8 -24.95 -24.3 -24.9 -26.25 -26.7 -26.5 -28.4 -25.75 L-30.4 -22.6 Q-31.25 -21.0 -33.0 -20.0 L-36.25 -19.75 Q-38.35 -19.05 -39.6 -16.9 -40.65 -15.1 -40.05 -13.0 -39.5 -11.85 -38.25 -11.65 -37.55 -11.6 -37.05 -11.2 L-36.45 -10.3 Q-36.6 -6.8 -33.85 -5.15 L-33.8 -5.15 Q-33.3 -4.4 -33.55 -3.6 L-33.9 -2.25 -33.95 -2.05 -33.75 -1.8 -33.7 -1.8 -32.8 -0.4 -32.45 0.2 -32.0 1.5 -31.95 1.7 Q-31.35 3.75 -31.75 6.0 L-31.8 6.1 -31.8 6.2 -32.05 6.9 Q-32.0 7.95 -31.4 8.8 L-31.15 9.25 -31.1 9.3 Q-30.15 10.3 -31.0 11.65 L-30.95 11.75 -30.95 11.8 -31.25 12.1 Q-31.95 13.45 -33.2 14.2 L-33.75 14.45 -34.3 14.6 -34.35 15.15 -34.3 14.5 -39.05 12.95 Q-39.65 12.5 -40.5 12.55 L-41.75 11.95 -41.7 12.75 -41.7 13.5 Q-41.75 14.8 -42.1 16.1 -42.6 18.05 -41.5 19.8 -40.05 22.1 -39.5 24.75 L-38.9 27.1 Q-38.7 28.0 -37.9 28.5 -37.0 29.15 -36.65 30.05 L-36.6 30.2 -36.3 30.35 Q-35.8 31.15 -35.15 31.45 L-34.35 31.6 -34.3 31.65 -34.65 32.6 -34.75 32.95 -34.85 32.85 -35.4 32.4 -35.3 32.45 -35.85 31.75 -36.4 31.05 -36.4 31.0 -36.45 31.0 -36.65 30.6 -36.8 30.6 -36.8 30.65 -37.05 30.8 -37.25 30.75 -40.45 34.2 Q-42.15 35.8 -42.05 38.4 -42.55 41.0 -41.1 42.9 -40.2 42.55 -40.05 43.15 L-39.75 44.35 -39.95 46.2 -40.0 46.2 -40.15 47.4 -40.55 49.45 -40.75 51.35 Q-40.8 52.85 -40.45 54.45 L-39.4 55.95 -39.15 56.3 -37.5 58.95 -37.3 59.35 Q-35.75 61.75 -33.15 62.6 L-32.85 62.7 -30.6 63.4 -28.55 64.1 -28.0 64.3 -27.95 64.3 -27.25 64.5 -25.4 65.15 -25.1 64.8 -26.45 62.95 -26.95 62.35 -28.35 60.6 -29.7 58.7 -30.4 57.4 -30.9 56.05 -30.35 56.7 -29.85 57.35 -29.85 57.4 -29.45 57.8 -27.8 59.85 -27.0 60.75 -26.85 60.9 -26.8 61.0 -25.9 62.0 -25.9 62.05 -24.95 63.15 -23.95 64.6 -23.9 64.65 -23.65 65.1 -21.9 68.3 -21.8 68.55 -19.5 71.05 -18.7 71.75 -17.15 73.0 -16.2 73.6 Q-12.8 75.75 -8.7 76.55 L-8.55 76.55 -8.3 76.6 -7.6 76.7 -7.5 76.75 -6.85 77.25 -5.95 77.7 -5.9 77.75 -5.3 78.05 -3.75 78.65 -3.5 78.7 Q-1.3 79.3 0.5 80.85 L0.85 80.95 3.7 81.8 5.3 81.95 6.3 82.0 10.2 81.1 11.0 80.95 11.1 80.9 11.8 80.55 13.0 79.85 Q18.7 76.15 24.4 73.25 L24.6 73.05 25.0 72.7 25.0 72.65 Q26.85 70.65 27.3 68.15 27.75 65.15 28.55 62.3 L28.75 61.8 Q30.35 57.3 32.45 52.95 L33.85 50.3 34.15 49.95 29.85 64.5 29.45 66.15 29.4 66.3 30.05 66.3 33.35 63.85 34.2 62.9 35.05 61.8 35.8 60.7 36.05 60.3 38.8 56.25 Q39.65 53.8 39.1 51.05 38.6 48.3 39.8 45.85 41.5 43.05 42.35 39.85 43.25 36.55 42.25 33.15 41.7 31.3 40.4 29.8 L39.9 29.3 39.75 29.1 39.95 28.8 40.25 27.5 40.65 26.8 41.4 23.65 41.4 22.45 41.15 20.15 40.9 19.0 40.75 17.55 40.55 15.85 40.55 15.7 40.45 13.85 40.4 13.65 40.4 13.35 40.35 12.65 40.3 12.2 40.4 12.1 40.4 11.8 40.4 11.75 40.5 11.65 40.55 11.5 40.65 12.15 40.65 12.2 40.5 12.3 40.65 13.6 40.65 13.8 40.65 13.85 40.7 13.9 40.75 13.95 42.0 18.3 42.35 19.45 Q43.05 21.55 42.8 23.85 42.55 26.1 41.6 28.2 L41.5 28.45 41.75 28.7 Q44.2 32.1 44.1 36.6 43.3 40.65 41.25 44.4 39.2 48.15 41.25 52.3 41.4 53.85 40.8 55.15 40.05 56.45 40.55 57.85 41.1 58.0 41.4 57.55 41.75 57.05 42.25 57.25 L44.7 61.7 43.6 63.4 Q42.8 64.2 43.25 65.3 42.75 65.85 42.9 66.35 L42.25 66.95 41.85 67.55 41.45 67.55 40.55 68.2 40.65 68.25 40.8 68.6 41.15 69.35 Q41.5 70.3 41.2 71.4 L41.0 73.0 Q41.0 76.15 40.55 79.1 L40.1 82.55 40.05 82.95 39.15 84.35 38.1 85.65 36.25 87.05 36.2 87.05 34.95 87.7 32.85 87.8 31.85 87.85 Q31.9 87.15 32.25 86.5 33.35 84.25 34.8 82.25 L35.3 81.4 35.55 79.15 35.5 78.95 Q35.15 77.65 34.2 76.65 32.65 74.9 30.3 75.55 L28.8 75.9 26.25 76.2 23.95 77.85 22.15 78.9 16.0 82.5 14.85 82.95 Q6.8 84.95 -0.95 82.55 -4.15 80.95 -7.7 80.75 -13.95 81.4 -20.1 80.5 L-23.45 79.65 -32.0 76.15 Q-33.55 75.8 -34.65 74.85 L-35.55 74.45 Q-34.65 76.75 -34.5 79.4 -34.45 80.4 -33.7 81.0 -32.75 81.8 -33.4 82.7 L-33.9 82.65 -34.35 82.1 Q-34.75 81.5 -35.35 81.15 -35.85 80.4 -35.85 79.35 -35.85 77.85 -36.15 76.45 L-36.5 74.95 Q-36.7 74.3 -36.4 73.8 L-36.7 73.5 -36.7 73.45 Q-36.9 73.05 -37.3 73.0 -37.7 72.05 -38.75 71.45 -40.15 70.65 -39.1 69.15 L-40.45 67.8 -38.9 64.85 Q-38.05 63.3 -36.45 62.8 -43.2 57.35 -41.6 49.0 -40.25 46.0 -42.05 43.9 -43.85 41.85 -43.35 38.9 -43.2 35.85 -41.4 33.6 L-38.7 30.2 Q-39.95 29.4 -40.7 27.9 L-40.9 26.8 -41.05 24.8 Q-42.9 21.85 -43.95 18.5 -44.2 17.5 -44.1 16.5 -43.8 13.85 -42.85 11.5 L-42.8 11.45 Q-46.85 9.4 -50.35 6.0 -55.1 1.45 -57.05 -4.15 -57.15 -13.4 -50.0 -19.0 -47.3 -19.75 -45.3 -18.35 -43.25 -17.0 -41.1 -16.05 -39.7 -19.1 -36.75 -20.7 L-33.0 -21.0 Q-31.5 -22.45 -31.0 -24.35 -30.45 -26.35 -28.2 -27.1 -25.95 -27.05 -24.4 -28.45 -23.45 -30.8 -20.9 -31.4 -18.4 -32.0 -17.45 -34.5 -16.75 -35.85 -16.5 -37.3 L-17.35 -37.8 Q-16.9 -38.3 -16.1 -38.1 L-15.5 -39.55 Q-15.2 -40.35 -16.0 -40.85 -14.45 -40.95 -13.25 -42.3 -12.05 -43.75 -10.25 -43.9 -8.45 -44.25 -7.2 -43.6 L-4.45 -42.75 -1.4 -43.4 Q0.25 -43.6 0.35 -45.2 1.05 -43.8 2.4 -44.35 3.7 -45.0 5.0 -45.1 L6.6 -47.1 6.15 -45.2 8.3 -44.6 Q9.45 -44.4 10.3 -43.3 L10.85 -43.4 Q10.0 -42.05 11.05 -40.85 12.65 -39.5 14.65 -40.15 L18.5 -40.25 Q20.1 -39.0 21.1 -37.4 21.95 -35.85 22.3 -34.0 23.4 -32.7 23.45 -30.5 23.5 -28.4 26.1 -28.1 28.05 -27.5 28.9 -25.75 L30.7 -22.45 Q30.95 -20.1 33.0 -19.0 L37.25 -19.15 Q40.85 -16.65 42.1 -13.05 42.9 -10.75 44.65 -8.85 L42.1 -9.7 Q41.35 -10.95 40.95 -12.35 L40.95 -12.4 40.9 -12.5 40.0 -14.05 39.1 -14.85 38.3 -15.4 Q37.5 -17.2 35.85 -18.2 L35.75 -18.15 35.55 -18.05 34.1 -17.65 32.4 -17.7 31.65 -17.95 31.5 -18.0 Q30.65 -20.8 29.4 -23.3 L28.7 -24.4 Q27.8 -25.6 26.55 -26.1 L26.15 -26.2 26.0 -26.25 25.85 -26.25 24.9 -26.65 23.6 -27.4 23.15 -27.75 22.55 -28.3 22.5 -28.35 M-20.05 -14.55 L-19.9 -14.65 -19.45 -14.65 -19.5 -14.05 -19.5 -13.15 -19.5 -12.9 Q-19.4 -11.05 -18.9 -9.3 L-18.6 -8.4 Q-17.55 -7.6 -16.45 -7.75 -15.65 -7.85 -14.8 -8.55 -14.65 -8.0 -14.65 -7.25 L-14.65 -6.55 Q-14.8 -5.5 -13.55 -5.3 -10.8 -4.95 -8.75 -2.65 -7.55 -1.35 -6.05 -0.85 L-3.95 -0.45 Q-1.5 -1.2 0.65 -2.65 L1.55 -3.3 2.35 -4.0 3.75 -5.15 8.1 -8.85 16.55 -10.85 17.65 -10.85 18.65 -10.65 18.9 -10.55 19.05 -10.45 19.25 -10.35 Q20.1 -9.85 20.95 -10.0 L21.85 -10.4 Q20.7 -8.85 20.3 -6.95 19.9 -5.05 17.85 -4.1 17.0 -3.25 15.75 -3.0 L14.95 -2.75 14.55 -2.4 14.15 -1.8 14.05 -1.75 13.95 -1.75 13.85 -1.7 13.75 -1.7 12.95 -1.2 12.8 -1.75 12.6 -1.85 12.1 -1.9 12.2 -2.0 Q11.55 -2.75 10.4 -2.85 9.2 -3.0 9.95 -4.45 8.9 -6.35 8.65 -4.85 8.35 -3.35 7.5 -2.95 7.8 -5.3 8.9 -7.55 10.3 -6.7 10.9 -5.3 12.45 -6.65 12.6 -9.1 L11.75 -9.1 Q9.55 -9.4 8.4 -8.05 L5.8 -5.4 Q6.0 -3.95 7.05 -2.25 L7.2 -2.2 7.05 -2.2 6.8 -1.95 6.8 -1.55 6.75 -1.6 5.25 -2.05 Q4.45 -2.35 3.8 -2.85 L3.1 -3.4 0.0 -1.3 Q-0.55 -1.3 -0.85 -0.85 L-0.95 -0.7 -0.95 -0.5 Q-2.0 -0.45 -2.55 0.1 L-3.7 0.05 -3.85 0.05 -3.9 0.2 Q-5.05 -0.05 -5.6 1.2 L-5.8 1.2 Q-5.05 0.05 -6.05 -0.15 L-7.7 -0.8 -9.05 0.0 -8.25 -1.4 Q-9.3 -2.9 -10.7 -3.3 -12.2 -3.7 -13.55 -4.45 -15.4 -3.35 -17.15 -4.45 L-17.25 -4.5 -18.55 -5.65 -19.05 -5.95 -21.9 -6.25 Q-24.1 -7.65 -25.55 -9.65 -23.15 -9.4 -22.4 -11.4 L-21.5 -13.25 -20.05 -14.55 M13.6 -26.75 Q15.0 -26.65 16.05 -25.65 L16.15 -25.6 16.2 -25.5 Q18.05 -23.35 17.35 -20.4 16.4 -17.1 13.25 -16.25 10.0 -15.95 8.45 -18.65 7.3 -22.4 9.7 -25.3 L9.75 -25.35 9.8 -25.4 Q11.0 -26.6 12.85 -26.75 L13.6 -26.75 M13.55 -25.75 L13.5 -25.75 12.85 -25.85 12.0 -25.75 11.75 -25.7 11.7 -25.65 Q10.0 -24.85 9.35 -23.25 8.95 -22.35 8.9 -21.25 L8.95 -20.7 Q9.15 -18.7 10.9 -17.5 13.2 -16.8 15.05 -17.95 17.4 -20.45 16.35 -23.75 15.45 -25.5 13.55 -25.75 M29.75 -12.8 Q28.8 -12.7 28.1 -13.1 L27.7 -13.35 27.3 -13.7 27.75 -13.55 27.9 -13.5 29.7 -13.25 30.3 -13.25 30.3 -12.85 30.15 -12.85 29.75 -12.8 M35.3 1.95 Q35.8 3.2 35.75 4.6 L35.6 5.7 35.55 5.9 35.5 6.1 Q35.0 7.25 34.15 8.2 L36.55 8.3 Q37.55 7.15 38.6 6.55 39.05 6.85 38.95 7.35 L38.85 7.65 38.8 7.7 Q38.2 9.0 36.75 9.3 L36.7 9.3 Q35.95 9.45 35.9 9.85 L35.85 9.85 35.95 10.45 36.2 10.85 36.25 10.9 36.3 11.05 37.9 11.2 39.5 11.05 39.2 11.2 37.65 12.1 37.55 12.15 37.3 12.3 36.5 11.85 35.9 11.5 Q35.4 10.95 34.7 10.85 L34.15 10.65 Q33.6 9.75 32.65 9.55 L32.75 9.6 Q32.7 9.0 31.95 8.8 L31.75 8.95 Q31.0 8.25 30.4 8.4 30.4 7.65 29.35 7.65 L29.0 7.8 28.25 7.75 27.25 8.65 Q26.6 8.95 27.1 9.75 L27.6 9.9 Q27.3 10.15 27.25 10.55 L27.4 10.9 Q28.15 11.55 29.2 11.6 L29.25 11.75 29.65 12.1 30.45 12.4 28.7 11.65 27.8 13.7 27.6 14.1 Q27.2 13.5 27.55 12.85 L27.6 12.75 Q27.9 12.15 27.7 11.4 26.2 10.25 26.2 8.7 L26.2 8.35 Q27.25 7.5 27.1 6.2 26.9 4.9 27.25 3.75 27.6 4.45 27.65 5.9 27.7 7.05 28.75 7.0 L29.25 6.9 Q29.95 5.55 30.9 4.8 L30.05 6.9 Q31.55 7.65 33.5 7.7 34.55 6.0 34.9 3.95 L35.05 1.8 35.0 1.25 35.05 1.35 35.3 1.95 M42.95 10.3 L43.0 10.2 44.3 6.35 44.3 6.05 44.35 5.25 44.7 5.25 44.75 5.35 44.75 5.45 44.85 5.8 44.9 5.95 44.9 6.05 44.95 6.25 44.95 6.4 44.95 6.55 44.95 6.7 44.05 9.9 43.35 10.75 42.45 11.5 42.1 11.5 42.65 10.75 42.65 10.7 42.95 10.3 M16.95 -10.25 L16.75 -9.4 Q17.15 -6.3 16.35 -3.9 L18.45 -5.4 Q19.5 -6.15 19.05 -7.75 L18.25 -9.35 Q18.0 -10.2 16.95 -10.25 M14.5 -5.45 L15.05 -4.1 Q16.3 -5.8 16.1 -8.05 16.5 -9.8 15.3 -9.65 L13.25 -9.1 13.75 -7.5 Q14.05 -6.5 14.5 -5.45 M11.75 -3.95 Q11.6 -2.85 13.05 -2.85 14.1 -3.0 14.1 -4.25 L13.05 -6.6 Q12.2 -5.55 11.75 -3.95 M30.3 -15.4 Q30.3 -15.0 29.9 -15.0 L29.45 -15.0 Q29.6 -15.55 30.3 -15.4 M32.65 12.0 L32.65 12.2 32.45 11.95 32.65 12.0 M31.6 11.45 L31.6 11.4 31.4 11.3 31.25 11.25 31.65 11.25 31.6 11.45 M28.3 9.8 L28.55 10.15 28.3 9.8 28.25 9.8 28.3 9.8 M23.0 28.7 L22.05 29.15 Q21.65 29.35 21.45 29.7 L21.3 30.1 Q20.75 30.3 20.2 30.6 L19.75 32.15 19.5 32.1 Q18.8 32.25 18.85 32.95 L18.7 34.95 19.5 34.75 19.45 34.7 19.65 34.75 20.2 35.4 20.2 35.45 19.95 35.5 19.65 35.8 Q20.15 36.65 20.25 37.55 L20.15 39.2 19.65 40.25 19.65 38.45 Q19.35 37.05 18.5 35.9 L18.45 35.9 18.25 35.9 Q17.6 35.85 17.1 36.45 16.55 37.05 15.7 36.95 17.05 35.9 17.3 34.45 L17.35 33.35 17.35 33.15 16.95 32.75 16.9 32.65 14.85 30.8 Q16.05 30.75 17.25 31.7 17.7 32.15 18.1 32.1 L18.65 31.7 18.9 31.4 18.95 31.25 19.15 30.8 19.15 30.45 19.1 29.8 18.95 28.6 18.8 27.9 18.95 28.0 20.05 29.2 Q20.6 30.1 21.45 28.8 L21.5 28.75 22.25 27.5 22.4 27.05 22.55 28.0 22.5 28.0 22.6 28.7 22.8 28.7 23.0 28.7 M20.95 35.75 L21.45 35.85 21.55 35.75 21.85 35.8 22.7 35.45 26.0 35.0 23.95 35.3 Q23.3 35.9 23.7 36.55 24.15 37.15 23.95 37.8 23.4 36.5 22.2 35.95 L22.15 35.9 21.85 35.8 20.95 35.75 M34.6 16.3 L34.5 16.65 34.35 16.1 34.4 16.2 34.6 16.3 M33.45 12.9 L33.4 12.85 33.45 12.85 33.45 12.9 M11.4 5.95 L11.35 5.6 11.4 5.6 11.4 5.95 M-1.75 56.4 L-1.75 56.65 -1.8 56.65 -1.75 56.4 M29.6 28.05 L29.5 28.0 29.55 28.0 29.6 28.05 M23.7 33.65 L23.55 33.65 23.6 33.55 23.7 33.65 M38.6 58.8 Q37.7 59.7 37.3 60.85 36.8 61.2 36.8 61.85 L36.8 62.1 36.7 61.85 36.5 62.1 36.45 62.1 32.7 65.35 32.8 65.45 32.6 65.3 Q32.35 65.5 32.25 65.85 L32.15 65.85 31.3 66.4 Q30.05 66.95 29.8 68.15 L29.8 68.4 29.4 67.8 Q27.95 69.9 26.9 72.25 29.8 71.65 32.4 70.45 L32.85 70.25 38.05 67.8 Q40.75 66.55 42.45 64.0 40.5 61.15 39.45 58.05 L38.6 58.8 M38.95 65.8 L39.05 65.85 38.95 65.85 38.95 65.8 M41.15 64.4 L41.15 63.85 41.3 64.2 41.15 64.4 M41.6 58.45 Q41.2 59.4 42.0 60.25 L43.3 62.0 43.8 61.9 Q43.15 59.7 41.6 58.45 M32.3 70.15 L31.05 70.25 30.8 69.95 32.65 69.85 32.85 69.6 32.3 70.15 M-2.2 91.75 Q-4.9 91.1 -7.25 89.85 -9.7 88.4 -12.3 87.5 L-16.4 86.5 Q-18.45 86.1 -19.85 84.35 L-19.7 84.2 Q-16.3 85.35 -12.6 85.9 -6.8 88.1 -1.2 91.2 L2.85 91.5 Q4.85 91.9 7.05 91.5 10.0 89.85 12.7 87.25 15.3 84.65 18.75 84.35 15.55 86.7 12.5 89.65 L9.65 91.55 Q9.2 91.75 8.9 92.1 L5.5 92.1 Q3.05 92.25 0.55 92.0 L-2.2 91.75 M26.8 84.65 Q24.25 84.7 22.1 85.95 20.0 87.2 17.55 87.1 21.8 84.4 26.8 84.25 L26.8 84.65 M-51.7 -15.6 L-51.9 -15.45 Q-55.8 -10.85 -56.0 -4.6 L-54.05 -0.3 Q-51.75 3.5 -48.0 6.45 -44.55 9.1 -40.75 10.7 L-40.45 10.85 -37.75 11.8 -36.45 12.2 -35.7 12.35 Q-34.6 13.0 -33.25 13.05 L-32.1 11.65 Q-33.6 10.0 -33.2 8.0 L-32.25 4.1 Q-32.5 2.3 -33.8 1.0 -34.55 0.3 -34.7 -0.6 L-34.75 -0.9 -34.7 -2.1 -34.7 -2.15 Q-34.05 -3.8 -35.4 -4.4 -36.75 -5.0 -37.0 -6.3 -37.05 -8.05 -38.1 -8.7 -39.2 -9.45 -40.35 -10.55 -41.75 -12.4 -41.25 -14.85 -43.3 -16.1 -45.7 -16.95 L-48.25 -17.35 -50.1 -17.05 -50.35 -17.0 -50.5 -16.85 -51.15 -16.2 -51.7 -15.6 M-16.85 -23.95 L-14.4 -24.2 -13.8 -24.05 -13.05 -23.8 -12.45 -23.3 Q-10.5 -21.75 -9.4 -19.35 L-9.4 -19.3 -9.5 -18.7 -9.65 -18.3 -10.25 -17.65 -10.45 -17.7 -12.3 -17.8 -12.55 -17.8 -12.5 -17.85 -13.25 -18.05 -13.4 -18.1 Q-14.8 -18.65 -15.9 -19.9 L-16.0 -20.0 -15.9 -19.95 -13.8 -19.15 -11.4 -19.35 Q-13.15 -19.9 -14.15 -21.0 L-13.5 -20.95 -11.45 -20.5 -11.2 -20.45 -11.3 -20.65 -12.1 -21.95 -12.2 -22.05 -12.3 -22.15 -12.55 -22.4 Q-13.45 -23.15 -14.7 -23.45 L-16.05 -23.25 -16.5 -23.0 -16.8 -22.85 Q-17.25 -22.7 -17.55 -23.05 L-17.6 -23.15 -17.75 -23.4 -17.8 -23.45 -17.6 -23.55 -16.85 -23.95 M-21.3 -11.95 Q-22.05 -11.05 -22.4 -10.0 L-22.9 -8.05 -21.55 -7.1 Q-20.5 -6.6 -19.6 -7.4 -19.7 -10.25 -20.45 -12.85 L-21.3 -11.95 M-10.95 -14.65 L-11.0 -14.6 -10.3 -15.2 -10.95 -14.65 M-16.85 -5.6 L-16.55 -4.95 -16.35 -4.85 -15.15 -4.75 -14.85 -4.95 -14.9 -5.15 -15.45 -6.95 Q-15.7 -8.0 -16.75 -6.25 L-16.85 -5.6 M-14.7 -0.4 L-14.65 -0.35 -14.75 -0.4 -14.7 -0.4 M-19.65 30.25 L-19.9 31.2 Q-19.35 31.65 -18.5 31.7 -17.65 31.75 -17.35 32.5 L-19.1 32.3 -19.6 32.25 Q-20.7 32.1 -21.3 33.15 L-21.15 33.95 Q-20.85 35.3 -19.65 36.1 -21.1 36.45 -22.0 35.1 L-22.1 34.95 -22.15 34.9 Q-22.4 34.3 -22.25 33.6 -22.15 32.75 -22.75 32.5 L-22.9 32.55 -23.05 32.65 -23.15 32.7 -24.6 34.0 -24.65 34.05 -24.75 34.3 -24.9 34.55 -24.9 34.6 -25.2 35.6 Q-23.8 37.55 -23.6 40.0 L-23.6 40.65 -23.6 40.75 -23.6 40.9 -24.25 39.75 -24.9 38.25 Q-26.05 37.0 -26.0 35.55 L-25.9 34.75 -24.9 33.15 -26.5 33.25 -27.65 34.05 -27.95 34.25 -28.05 34.3 Q-28.3 33.65 -27.75 33.4 L-27.35 33.15 -27.2 32.85 -27.1 32.5 -27.3 32.4 -27.25 32.4 -25.1 31.85 Q-24.8 32.15 -24.4 31.85 L-24.2 31.55 -24.2 31.7 Q-22.5 32.25 -21.0 31.35 -21.0 29.7 -21.65 28.75 L-22.05 28.25 -22.05 28.1 Q-22.0 27.6 -22.25 27.5 L-22.6 25.6 -22.7 25.35 -22.7 25.15 -22.65 25.2 -22.55 25.15 -22.0 24.5 -21.95 24.45 -21.85 24.2 -21.7 23.85 Q-21.55 23.0 -20.5 23.05 -21.45 23.95 -21.6 24.95 L-21.55 26.05 -20.7 28.95 -20.7 29.0 -20.65 29.2 -20.6 29.15 -20.0 28.6 Q-19.4 28.15 -18.6 28.1 L-17.45 28.15 -17.9 28.9 -18.0 29.0 -18.85 29.55 -19.65 30.25 M-28.7 20.65 L-28.65 20.65 -28.7 20.65 M-29.75 24.8 L-29.25 24.45 -29.95 24.85 -29.75 24.8 M-18.95 73.35 L-19.45 72.9 -19.75 72.55 Q-20.2 71.6 -21.1 71.35 L-21.05 71.35 -22.6 69.0 Q-24.9 66.4 -28.3 66.0 -31.75 65.5 -34.6 63.9 L-36.0 66.1 -37.9 69.0 Q-39.4 70.5 -37.45 71.8 -31.4 75.15 -24.7 77.1 -18.05 79.1 -10.55 78.55 L-14.85 76.9 -15.05 76.5 Q-16.35 75.15 -18.1 74.65 L-18.1 74.15 -18.15 74.05 -18.45 73.75 -18.5 73.75 -18.95 73.35 M-39.2 67.8 L-38.6 67.8 Q-37.45 66.15 -36.95 64.2 -38.95 65.5 -39.2 67.8" fill="#000000" fill-rule="evenodd" stroke="none"/>
    <path d="M21.2 -35.45 L21.2 -35.1 Q18.95 -36.65 16.05 -36.65 L16.65 -36.65 17.4 -37.4 17.75 -38.1 17.65 -38.25 17.25 -38.7 16.5 -38.9 Q18.2 -38.55 19.65 -37.4 L21.2 -35.6 21.2 -35.45 M16.7 -35.45 Q19.65 -35.75 21.6 -32.6 L22.0 -31.5 21.65 -30.7 21.3 -30.35 20.75 -30.05 Q19.15 -31.25 17.3 -31.7 L17.65 -32.55 Q18.0 -34.7 16.7 -35.45 M21.6 -26.5 Q21.3 -21.3 18.05 -17.6 L18.75 -18.4 Q19.3 -19.9 19.3 -21.65 L19.2 -22.25 Q18.3 -24.35 16.75 -25.65 18.85 -27.15 18.75 -29.8 L18.75 -29.95 Q20.4 -29.0 21.65 -27.0 L21.6 -26.5 M15.3 -39.05 L15.2 -39.05 14.65 -38.5 14.2 -39.1 15.3 -39.05 M40.45 62.4 L39.45 60.6 39.3 60.3 37.15 61.35 37.15 61.3 37.3 60.8 37.3 60.85 Q37.7 59.7 38.6 58.8 L38.65 58.75 39.45 58.15 Q40.1 60.0 41.1 61.8 L40.45 62.4 M36.8 62.1 L37.35 63.25 38.0 64.4 36.6 65.3 Q36.05 64.35 35.8 63.4 L35.7 63.05 36.5 62.1 36.7 61.85 36.8 62.1 M33.75 66.75 Q33.05 67.05 32.5 67.45 L32.35 67.2 Q31.9 66.4 32.25 65.85 32.35 65.5 32.6 65.3 L32.8 65.45 32.95 65.55 33.75 66.75 M-51.9 -15.45 L-51.7 -15.6 -51.65 -15.4 -51.9 -15.45 M-40.75 10.7 Q-44.55 9.1 -48.0 6.45 -51.75 3.5 -54.05 -0.3 L-52.7 0.0 -51.55 0.0 -50.1 -0.45 -49.25 -0.85 Q-49.8 0.85 -49.95 2.7 L-49.85 2.8 -50.0 2.9 Q-50.25 3.1 -50.1 3.4 -49.7 4.15 -48.95 3.9 L-48.5 3.35 -48.15 2.55 -48.15 2.45 -47.9 1.35 -47.85 1.2 -47.75 0.9 -47.05 -1.55 -46.75 -2.5 -46.15 -3.9 -46.0 -4.35 -45.95 -4.6 -46.15 -5.05 -46.15 -5.9 -46.25 -6.55 Q-43.7 -3.6 -40.15 -1.55 L-39.9 -1.7 -39.9 -1.8 -40.0 -1.95 -40.95 -3.25 -40.55 -2.85 Q-39.1 -1.35 -37.45 -0.8 L-36.3 0.8 Q-35.65 1.85 -35.3 3.0 -34.35 6.1 -36.15 8.65 L-37.65 9.9 Q-39.35 10.65 -41.3 10.45 L-40.75 10.7 M-43.3 -1.75 Q-43.7 -2.75 -44.35 -2.35 -45.2 -2.0 -45.15 -1.15 -46.7 2.15 -46.65 5.6 L-46.8 5.8 Q-47.25 6.35 -46.65 6.95 L-46.45 7.0 -45.6 6.9 -45.15 6.7 -44.75 6.0 -44.6 5.4 -44.4 4.75 -44.0 3.1 -43.65 1.9 -43.6 1.75 -43.25 0.65 -42.7 -0.75 Q-42.6 -0.95 -42.65 -1.2 -42.7 -1.85 -43.3 -1.75 M-21.1 71.35 L-22.1 72.65 -23.7 72.1 -24.05 73.1 Q-23.75 71.8 -23.05 71.0 -24.35 69.95 -26.0 69.75 L-26.3 71.0 -28.15 70.15 -27.5 68.4 -28.7 68.35 -30.0 68.05 -30.65 69.85 -30.35 69.05 -32.5 68.05 -33.0 68.95 -32.2 67.35 Q-31.95 66.6 -32.5 66.25 -33.2 65.85 -33.7 65.7 L-35.0 67.6 -34.65 67.15 -35.15 66.95 -35.2 66.9 -36.0 66.1 -34.6 63.9 Q-31.75 65.5 -28.3 66.0 -24.9 66.4 -22.6 69.0 L-21.05 71.35 -21.1 71.35 M-19.5 73.45 L-18.95 73.4 -18.95 73.35 -18.5 73.75 -19.5 73.45" fill="#666666" fill-rule="evenodd" stroke="none"/>
    <path d="M22.4 -28.3 L22.5 -28.35 22.55 -28.3 22.4 -28.25 22.4 -28.3 M28.7 -24.4 L29.4 -23.3 Q30.65 -20.8 31.5 -18.0 L31.65 -17.95 31.8 -17.85 32.4 -17.7 34.1 -17.65 35.55 -18.05 35.75 -18.15 35.85 -18.2 Q37.5 -17.2 38.3 -15.4 L39.1 -14.85 40.0 -14.05 40.9 -12.5 40.95 -12.4 40.95 -12.35 Q41.35 -10.95 42.1 -9.7 L44.65 -8.85 46.8 -7.0 Q48.95 -2.8 50.35 1.65 L50.3 2.7 50.45 3.0 50.5 3.1 50.3 3.1 Q50.15 5.0 49.65 6.9 L49.25 8.1 Q48.35 9.75 46.25 10.55 L46.25 10.6 43.3 10.8 44.05 9.9 44.95 6.7 44.95 6.55 44.95 6.4 44.95 6.25 44.9 6.05 44.9 5.95 44.85 5.8 44.75 5.45 44.75 5.35 44.7 5.25 44.35 5.25 44.3 6.05 44.3 6.35 43.0 10.2 42.95 10.3 42.9 10.15 Q42.45 9.45 42.4 8.65 42.35 8.15 41.95 7.95 40.55 7.25 38.95 7.35 39.05 6.85 38.6 6.55 37.55 7.15 36.55 8.3 L34.15 8.2 Q35.0 7.25 35.5 6.1 L35.55 5.9 35.6 5.7 35.75 4.6 Q35.8 3.2 35.3 1.95 L37.65 2.1 37.8 2.2 40.1 3.75 42.65 3.9 Q44.1 2.85 43.95 1.1 43.7 -1.35 41.45 -1.7 41.9 -2.25 42.0 -3.0 L42.05 -3.35 41.85 -3.15 41.1 -3.15 40.5 -3.25 40.5 -3.3 40.15 -3.5 37.6 -3.35 37.25 -3.5 36.8 -4.0 Q36.95 -3.65 37.25 -3.45 L37.1 -2.75 36.5 -1.75 Q34.4 -0.9 33.95 -3.0 33.8 -3.65 34.2 -4.25 L34.25 -4.25 Q33.2 -4.45 32.25 -5.15 30.15 -6.65 31.7 -8.6 L32.7 -9.4 33.8 -9.35 34.5 -8.85 34.55 -8.85 34.6 -8.8 34.7 -8.7 35.5 -8.7 Q36.35 -8.7 37.05 -8.2 L37.3 -8.0 37.75 -7.5 38.1 -7.9 Q38.3 -9.05 37.9 -9.9 L37.8 -10.1 Q37.65 -12.05 36.1 -13.75 L36.0 -13.85 35.3 -14.2 31.75 -14.65 31.7 -14.6 31.35 -14.45 30.55 -14.05 30.35 -13.95 29.7 -13.25 27.9 -13.5 27.9 -13.55 27.75 -13.55 27.3 -13.7 27.7 -13.35 28.1 -13.1 Q28.8 -12.7 29.75 -12.8 L29.45 -12.75 Q29.1 -11.9 29.25 -10.85 L29.25 -10.35 29.2 -10.3 27.8 -9.45 26.75 -8.45 25.65 -8.0 Q25.65 -5.6 24.45 -3.5 L24.8 -2.5 Q26.35 1.95 21.8 3.75 20.85 4.05 20.0 4.5 L19.95 4.25 Q20.05 5.05 19.35 5.3 L18.4 5.2 14.05 5.1 Q13.55 5.8 12.8 5.9 L12.1 5.95 12.4 5.95 12.4 5.65 12.05 3.85 11.95 3.45 14.7 1.15 18.35 -1.6 19.3 -2.25 Q20.9 -3.05 21.2 -4.65 L21.3 -4.95 22.9 -7.1 Q23.45 -8.05 23.55 -9.15 23.85 -11.2 21.8 -11.2 L21.65 -11.15 21.3 -10.8 20.95 -10.0 Q20.1 -9.85 19.25 -10.35 L19.05 -10.45 18.9 -10.55 18.65 -10.65 17.65 -10.85 16.55 -10.85 8.1 -8.85 3.75 -5.15 2.35 -4.0 1.55 -3.3 0.65 -2.65 Q-1.5 -1.2 -3.95 -0.45 L-6.05 -0.85 Q-7.55 -1.35 -8.75 -2.65 -10.8 -4.95 -13.55 -5.3 -14.8 -5.5 -14.65 -6.55 L-14.65 -7.25 Q-13.6 -7.45 -13.15 -6.2 L-9.1 -4.55 -8.3 -4.05 Q-6.5 -2.0 -3.9 -1.45 L-3.05 -1.55 3.65 -6.2 4.85 -7.2 7.3 -9.2 Q8.0 -9.8 8.95 -10.1 L14.7 -11.45 14.55 -11.55 Q14.0 -11.9 13.9 -12.55 L10.4 -12.25 11.35 -12.3 11.3 -12.35 11.1 -12.45 10.0 -12.55 8.25 -12.4 7.5 -12.25 6.5 -11.75 3.65 -9.6 3.05 -8.95 1.5 -7.5 1.2 -7.0 1.15 -7.0 0.75 -6.7 0.55 -6.7 0.3 -6.7 0.2 -6.8 0.2 -6.95 Q0.35 -7.5 0.85 -7.85 L1.25 -8.25 Q1.35 -8.8 1.8 -9.35 L2.3 -9.85 4.1 -12.9 3.5 -13.1 2.65 -13.45 Q2.2 -13.55 1.85 -13.85 L1.1 -14.5 0.55 -15.15 0.4 -15.6 Q0.3 -16.5 0.55 -17.25 L0.85 -17.9 2.55 -20.7 2.6 -20.75 Q0.8 -21.0 0.4 -22.75 0.25 -23.5 0.95 -23.95 L1.4 -24.15 1.45 -24.15 2.4 -24.2 2.7 -24.15 2.65 -24.35 Q3.3 -24.7 3.65 -25.7 L3.8 -26.4 3.9 -26.75 3.9 -27.5 3.6 -29.35 3.4 -30.1 Q3.75 -29.8 4.4 -29.65 L5.35 -29.5 Q7.45 -25.95 5.6 -22.1 L2.6 -22.1 2.6 -21.85 4.1 -21.5 5.45 -21.15 5.45 -20.95 5.5 -20.8 6.0 -18.8 Q6.3 -17.95 6.0 -17.25 L5.6 -16.7 6.95 -16.9 Q9.85 -13.6 14.4 -13.85 L15.7 -14.45 16.25 -14.75 16.3 -14.7 18.9 -14.85 20.0 -15.5 Q22.8 -16.85 22.9 -19.95 L23.05 -19.9 23.1 -19.9 23.2 -19.85 24.75 -18.6 Q25.2 -18.15 25.75 -18.4 26.9 -18.95 26.25 -20.05 25.5 -21.4 24.3 -22.0 24.75 -22.2 25.35 -22.0 26.7 -21.5 27.35 -22.6 L27.6 -23.6 27.85 -23.5 Q28.75 -23.25 29.25 -23.5 L28.7 -24.4 M40.4 13.65 L40.45 13.85 40.3 13.65 40.4 13.65 M34.2 62.9 L33.35 63.85 30.05 66.3 29.4 66.3 29.45 66.15 29.85 64.5 34.15 49.95 33.85 50.3 32.45 52.95 32.5 52.2 Q30.6 51.05 30.65 49.1 L31.05 48.75 Q31.8 47.15 33.4 45.9 34.95 44.5 35.7 43.0 33.2 43.85 31.25 45.85 L31.2 45.9 31.05 46.15 Q29.75 41.25 24.5 39.95 L24.0 39.8 23.2 39.55 Q22.15 38.2 22.15 36.45 L22.2 35.95 Q23.4 36.5 23.95 37.8 24.15 37.15 23.7 36.55 23.3 35.9 23.95 35.3 L26.0 35.0 Q28.65 34.55 31.0 33.3 32.85 32.35 33.75 30.8 34.05 31.6 33.8 32.85 33.35 34.9 32.0 36.45 30.6 37.3 28.7 37.15 30.85 38.75 32.7 40.85 L33.1 41.25 Q36.1 40.05 37.25 42.8 37.8 44.05 37.3 45.4 36.5 47.85 34.85 49.8 L34.75 51.7 34.6 53.8 Q35.3 58.45 34.2 62.9 M28.75 61.8 L28.55 62.3 Q27.75 65.15 27.3 68.15 26.85 70.65 25.0 72.65 L25.0 72.7 24.6 73.05 24.4 73.25 Q18.7 76.15 13.0 79.85 L11.8 80.55 11.5 80.65 10.6 81.0 10.2 81.1 6.3 82.0 5.3 81.95 3.7 81.8 0.85 80.95 0.5 80.85 Q-1.3 79.3 -3.5 78.7 L-3.75 78.65 -5.3 78.05 -5.9 77.75 -5.95 77.7 -6.85 77.25 -7.5 76.75 -7.6 76.7 -8.3 76.6 -8.55 76.55 -8.7 76.55 Q-12.8 75.75 -16.2 73.6 L-17.15 73.0 -18.7 71.75 -19.5 71.05 -21.8 68.55 -21.9 68.3 -23.65 65.1 -23.9 64.65 -23.95 64.6 -24.95 63.15 -25.9 62.05 -25.9 62.0 -26.8 61.0 -26.85 60.9 -27.0 60.75 -27.8 59.85 -28.2 59.25 Q-27.3 59.8 -26.55 60.65 L-26.1 60.7 -26.05 60.75 Q-24.15 64.25 -20.7 64.2 -20.0 65.05 -19.55 66.3 L-17.75 70.2 -16.95 71.0 Q-16.5 71.25 -16.2 71.65 -12.15 73.25 -7.6 73.2 -6.8 73.2 -6.05 73.7 L-5.95 73.75 -5.75 73.9 -5.7 73.95 Q-5.05 74.45 -4.65 75.1 -4.15 75.75 -3.95 76.6 L-3.35 76.7 -3.2 76.75 -2.85 77.25 -1.7 77.3 -1.35 77.45 -0.95 77.6 5.6 78.25 Q9.8 73.95 15.8 73.6 18.25 73.45 20.05 71.8 L20.8 71.1 21.8 70.55 22.4 70.25 Q23.55 69.65 23.9 68.5 L24.05 68.3 25.35 66.5 26.55 63.7 26.65 63.25 Q27.55 62.35 28.75 61.8 M-29.7 58.7 L-28.35 60.6 -26.95 62.35 -26.45 62.95 -25.1 64.8 -25.4 65.15 -27.25 64.5 -27.95 64.3 -28.0 64.3 -28.55 64.1 -30.6 63.4 -32.85 62.7 -33.15 62.6 -33.3 62.55 Q-33.6 61.6 -33.3 60.5 L-33.3 60.45 Q-32.8 58.8 -31.4 58.4 L-29.7 58.7 M-34.65 32.6 L-34.3 31.65 -34.35 31.6 -35.15 31.45 Q-35.4 30.2 -34.8 28.75 L-34.65 28.05 Q-37.35 24.0 -35.4 19.35 L-34.1 16.95 Q-33.95 17.1 -33.95 17.4 L-33.6 20.0 -33.4 20.65 -33.35 20.8 -33.3 20.85 Q-31.0 23.35 -31.0 26.9 -30.95 30.45 -27.4 32.3 L-27.35 33.15 -27.75 33.4 Q-28.3 33.65 -28.05 34.3 L-27.95 34.25 -27.95 34.45 -28.1 35.05 -28.6 35.75 Q-31.8 36.3 -34.1 33.45 L-34.45 32.95 -34.65 32.6 M-4.05 -42.25 L-2.75 -42.35 -2.65 -41.8 Q-2.65 -41.1 -2.95 -40.4 L-3.75 -39.25 -3.8 -39.2 -3.9 -39.2 -4.1 -39.15 -3.4 -38.3 -2.85 -37.4 -2.85 -37.3 -2.75 -37.0 -3.15 -36.9 -3.8 -36.85 -4.0 -36.8 -4.3 -37.4 -5.3 -38.1 -5.35 -38.25 -5.4 -38.65 -5.3 -38.95 -5.45 -38.9 -5.45 -39.15 Q-4.4 -39.85 -4.15 -41.05 L-4.0 -41.3 Q-3.75 -41.95 -4.05 -42.25 M9.8 -41.3 Q10.55 -39.75 12.3 -39.1 13.7 -38.6 14.4 -37.4 L14.85 -36.0 14.4 -35.45 13.7 -34.0 13.55 -32.9 Q13.5 -30.95 11.25 -31.2 11.45 -32.55 11.1 -33.8 L11.1 -33.9 11.05 -34.0 10.85 -34.5 11.65 -34.75 Q12.6 -35.15 12.8 -36.1 L12.8 -37.4 Q12.55 -38.35 11.0 -38.45 L10.8 -38.3 Q10.5 -38.85 9.2 -38.9 L7.45 -38.5 7.2 -38.45 Q6.1 -39.25 5.85 -40.65 L5.85 -41.35 7.8 -41.05 7.9 -41.05 9.55 -41.2 9.8 -41.3 M8.95 -35.0 L10.4 -32.85 Q11.15 -30.85 10.05 -29.45 L7.75 -26.95 Q6.95 -27.3 6.95 -28.45 L6.2 -29.5 Q7.15 -29.65 7.9 -30.25 L8.65 -30.95 Q9.65 -32.35 8.95 -33.8 L8.55 -34.3 8.95 -35.0 M3.75 -34.45 L3.95 -34.4 3.65 -34.35 Q3.1 -34.05 2.7 -33.65 L2.1 -34.05 2.1 -34.0 1.95 -33.85 1.85 -33.85 -2.6 -33.95 -2.8 -34.05 -2.9 -35.0 -3.05 -35.0 -3.1 -34.8 -3.15 -34.4 Q-3.2 -33.45 -4.0 -32.9 -5.25 -32.05 -6.75 -31.8 L-7.0 -31.7 -9.35 -30.85 -9.45 -30.6 Q-9.5 -30.4 -9.7 -30.35 L-10.0 -30.35 -10.05 -30.4 -10.1 -30.45 -10.15 -31.35 -9.9 -31.75 -9.5 -32.05 -9.25 -32.25 -8.7 -32.4 -8.25 -32.65 Q-6.9 -33.05 -5.7 -33.65 -5.0 -33.45 -4.55 -33.95 -3.95 -34.8 -3.85 -35.8 L-3.85 -35.85 -3.5 -35.95 -3.4 -35.95 -3.15 -36.05 -2.05 -36.2 -1.95 -36.1 -2.0 -35.95 Q-2.05 -35.2 -1.6 -34.75 L-1.2 -34.55 0.0 -34.6 2.65 -34.8 3.2 -34.75 3.75 -34.45 M-5.25 -17.0 L-5.15 -16.05 -5.15 -15.7 -5.15 -15.5 -5.2 -15.05 -6.4 -12.2 -6.8 -11.65 -9.3 -10.7 -9.65 -10.55 -12.45 -10.2 -12.85 -10.15 -14.15 -10.3 -14.3 -10.5 Q-15.9 -10.9 -17.45 -11.85 L-17.75 -12.2 -17.9 -12.7 -18.0 -12.95 -17.95 -13.1 -17.45 -13.15 -16.0 -12.85 -15.0 -12.65 -14.45 -12.5 Q-13.55 -12.5 -12.75 -12.85 L-12.5 -12.95 -12.25 -13.05 -10.85 -13.85 -9.45 -15.35 Q-9.2 -15.7 -9.5 -16.0 L-10.05 -15.95 -10.7 -15.2 Q-11.25 -15.05 -11.5 -14.7 L-11.55 -14.65 -12.45 -14.2 -12.8 -14.0 -14.1 -13.7 -14.2 -13.8 -14.25 -13.85 -15.55 -13.85 -15.95 -14.05 -16.45 -14.3 -18.3 -15.25 Q-19.55 -16.05 -20.8 -17.0 L-21.55 -17.65 -21.5 -19.65 -21.6 -20.45 Q-22.35 -23.5 -19.45 -24.6 -17.3 -25.15 -16.1 -24.15 L-16.85 -23.95 -17.6 -23.55 -17.8 -23.45 -17.75 -23.4 -17.6 -23.15 -18.15 -22.2 -18.2 -21.8 -18.35 -20.95 -18.1 -20.3 -17.6 -18.9 -17.55 -18.75 -17.45 -18.6 -17.45 -18.3 -17.15 -17.85 -16.95 -17.6 -15.9 -16.8 -14.6 -16.5 -13.85 -16.55 -11.05 -17.25 -10.25 -17.65 -9.65 -18.3 -9.5 -18.7 -8.6 -17.95 -8.4 -17.8 -8.25 -17.7 -8.15 -17.65 -7.55 -17.25 -5.25 -17.0 M-19.5 -12.9 Q-18.6 -12.45 -18.45 -11.2 L-18.35 -10.75 -17.8 -8.9 -16.45 -7.75 Q-17.55 -7.6 -18.6 -8.4 L-18.9 -9.3 Q-19.4 -11.05 -19.5 -12.9 M22.55 -13.75 L21.55 -14.5 21.3 -14.65 21.3 -14.6 21.3 -14.3 21.15 -14.1 21.35 -14.05 Q21.4 -13.7 21.75 -13.45 L21.9 -13.35 21.95 -13.3 22.05 -13.25 22.1 -13.25 22.2 -13.15 Q22.85 -12.9 23.35 -12.45 L23.75 -12.0 Q25.05 -11.2 24.9 -9.95 L24.5 -7.55 24.8 -7.55 25.6 -9.5 25.75 -11.65 Q25.25 -12.9 24.2 -13.4 L22.85 -13.65 22.55 -13.75 M0.0 -1.3 L-0.1 -1.2 -0.15 -1.2 -0.15 -1.15 -0.25 -0.75 -0.3 -0.45 Q-0.65 1.95 1.1 3.8 L0.15 3.85 Q-1.1 1.8 -0.95 -0.5 L-0.95 -0.7 -0.85 -0.85 Q-0.55 -1.3 0.0 -1.3 M8.7 3.1 L8.65 2.9 8.1 0.7 7.45 -0.3 7.05 -0.7 5.25 -2.05 6.75 -1.6 6.8 -1.55 Q8.8 -0.15 9.25 2.15 L9.3 2.8 9.15 2.9 8.85 3.0 8.7 3.1 M17.7 -11.95 L17.75 -12.0 17.65 -11.9 17.7 -11.9 17.7 -11.95 M27.1 -24.4 L27.15 -24.25 26.9 -24.4 26.0 -24.85 27.1 -24.4 M30.3 -15.4 Q29.6 -15.55 29.45 -15.0 L29.9 -15.0 Q30.3 -15.0 30.3 -15.4 M35.05 1.8 L34.9 3.95 Q34.55 6.0 33.5 7.7 31.55 7.65 30.05 6.9 L30.9 4.8 Q29.95 5.55 29.25 6.9 L28.75 7.0 Q27.7 7.05 27.65 5.9 27.6 4.45 27.25 3.75 26.9 4.9 27.1 6.2 27.25 7.5 26.2 8.35 L26.2 8.7 Q23.3 6.6 25.85 3.75 27.35 2.1 29.35 2.2 L31.35 2.25 Q31.1 1.1 31.65 0.35 L32.25 0.25 32.75 0.1 32.85 0.05 33.45 0.35 33.75 0.55 34.2 1.25 35.05 1.8 M27.6 12.75 L27.55 12.85 Q27.2 13.5 27.6 14.1 L27.8 13.7 28.7 11.65 30.45 12.4 31.25 12.65 31.5 12.7 Q33.05 13.2 33.4 14.95 33.4 15.4 33.65 15.65 L33.45 16.85 33.4 17.45 Q32.6 17.5 31.8 16.85 L29.45 15.6 30.0 15.8 30.0 15.95 Q30.35 17.95 29.3 19.6 29.4 21.15 28.45 22.35 L27.7 23.1 Q25.85 23.55 24.15 24.4 L23.5 24.55 23.3 24.4 23.0 24.1 Q23.1 23.35 23.45 22.75 L23.9 22.5 25.0 21.6 25.1 21.45 Q26.15 20.5 26.45 19.1 27.1 16.45 25.35 15.55 L25.2 14.6 Q25.1 13.55 25.95 12.85 L26.45 12.7 27.15 12.6 27.6 12.75 M35.9 9.85 Q35.95 9.45 36.7 9.3 L36.35 9.4 36.05 9.65 35.9 9.85 M38.1 20.6 L38.1 20.4 38.15 20.3 38.1 20.6 M12.95 25.95 Q14.15 27.65 12.55 29.25 L12.35 29.3 10.3 29.35 10.2 29.3 8.9 28.9 Q4.55 28.45 0.3 29.0 L-2.05 28.65 -2.2 28.6 -6.3 31.15 -8.4 31.0 -8.65 31.1 -8.4 31.0 -8.75 30.2 -8.3 30.0 -8.0 29.85 -6.65 28.25 Q-4.8 25.75 -6.8 23.4 -8.5 21.35 -11.05 20.9 -11.35 19.9 -12.05 19.0 L-14.55 15.8 -13.95 15.9 Q-14.7 15.45 -15.5 15.1 L-15.95 14.9 -15.35 14.9 -14.0 15.15 -13.85 15.25 -12.75 15.85 -12.7 15.9 -12.65 15.9 -12.55 15.9 -12.55 16.0 -10.3 17.85 -10.25 17.9 -10.2 17.95 -8.0 18.4 -6.25 19.0 -2.15 18.85 -2.05 18.8 -1.9 18.85 -1.2 19.1 -1.9 18.85 0.95 19.1 2.2 18.6 Q3.25 17.85 4.5 17.65 L4.65 17.55 5.1 17.15 Q7.55 17.15 9.75 16.4 L10.65 15.7 11.7 14.45 Q14.25 13.3 16.95 12.8 19.75 12.9 19.2 15.45 L18.95 16.2 Q14.85 14.75 12.35 18.15 L12.15 18.4 11.9 18.45 10.6 18.65 10.1 18.7 9.5 18.9 9.25 19.15 9.15 19.25 8.25 19.9 8.15 19.95 7.85 20.0 7.85 20.05 Q5.4 20.9 5.1 23.05 L5.05 23.9 Q5.05 24.5 5.6 24.75 9.2 26.1 12.95 25.95 M8.95 6.35 Q6.8 8.2 4.05 8.3 L-1.3 7.8 -2.15 7.6 -3.0 7.4 -4.85 7.15 -6.3 7.0 Q-8.7 6.45 -10.45 4.65 L-11.3 3.85 -13.05 2.4 -13.65 2.0 -13.9 1.8 Q-15.55 1.5 -16.85 0.8 -17.3 0.2 -18.2 0.25 L-18.45 0.3 Q-19.4 -0.2 -19.0 -1.4 L-19.05 -0.85 Q-18.95 -0.2 -18.4 -0.05 L-15.6 0.6 Q-15.05 0.7 -14.65 0.95 L-11.75 2.85 -11.4 3.05 Q-9.2 3.9 -7.25 5.2 L-6.85 5.35 -5.5 5.7 -3.3 6.3 1.7 6.6 2.55 6.7 4.8 6.65 6.2 6.35 9.0 5.65 Q8.9 6.05 8.95 6.35 M-7.7 11.95 L-5.6 12.2 -4.8 12.4 -4.75 12.4 -4.35 12.5 -6.65 12.7 -7.0 12.7 -8.85 12.6 -9.05 12.75 Q-11.0 13.15 -12.05 12.0 L-12.6 11.85 -12.65 11.8 -12.9 11.6 -13.2 11.4 -15.45 9.05 -15.65 8.75 -16.4 7.75 -16.5 7.6 Q-18.15 5.15 -21.2 5.6 L-22.05 5.4 -19.4 4.8 Q-21.15 4.05 -22.75 2.65 L-23.85 1.8 -25.7 0.7 -26.2 0.4 -26.45 -0.05 Q-23.05 1.15 -19.6 2.5 -19.25 3.05 -18.65 3.2 -16.1 6.05 -14.15 9.15 L-13.15 10.8 -12.65 11.15 Q-11.45 11.75 -10.05 11.9 L-8.85 11.95 -8.2 11.9 -7.7 11.95 M-18.35 -2.3 L-18.45 -2.4 -18.5 -2.45 -17.75 -2.4 -17.5 -2.35 -18.2 -2.4 -18.2 -2.35 -18.35 -2.3 M-2.55 0.1 L-2.9 0.7 Q-3.5 2.35 -2.55 3.8 L-3.65 3.5 -3.8 0.2 -3.9 0.2 -3.85 0.05 -3.7 0.05 -2.55 0.1 M2.2 19.3 L2.4 19.35 2.55 19.15 2.2 19.3 M-9.1 43.2 L-9.05 43.2 -9.3 43.5 -9.4 43.65 -9.6 43.95 -3.8 45.7 -2.95 46.65 Q-2.35 47.25 -1.6 47.45 L-0.45 47.8 0.15 47.65 3.1 47.1 3.6 46.9 4.8 46.2 5.0 45.6 Q5.35 44.95 5.9 44.45 L8.25 43.75 8.95 43.85 9.15 44.0 11.85 43.8 12.8 43.75 13.8 43.45 15.0 43.2 15.15 43.1 Q16.1 42.2 17.2 41.65 L18.3 40.95 Q19.85 40.85 21.15 41.5 L21.45 41.9 18.8 41.6 Q18.35 41.85 17.8 42.2 L17.6 42.05 Q17.25 42.8 16.4 43.2 L15.85 43.5 15.9 43.85 15.85 44.1 Q14.5 44.9 12.95 45.35 L9.55 46.0 9.15 46.05 7.45 46.1 Q6.1 47.35 4.5 48.15 3.5 48.65 2.3 48.7 L-1.25 48.6 -1.6 48.5 -4.3 46.5 -5.4 46.0 Q-6.55 45.75 -7.4 45.2 L-9.75 44.35 -10.0 44.05 Q-10.0 43.25 -9.15 43.2 L-9.1 43.2 M-0.05 59.1 Q0.05 58.65 0.5 58.55 L1.8 58.15 2.7 58.0 4.45 58.0 6.25 57.7 7.35 57.25 Q8.0 56.95 8.75 56.8 L8.9 56.7 9.2 56.5 Q10.85 55.35 12.85 55.9 L15.9 56.0 16.05 55.9 18.65 53.05 19.25 52.4 21.5 50.85 21.6 50.85 22.05 50.6 22.15 50.6 22.5 50.45 Q23.7 50.25 23.7 51.4 L23.65 51.8 22.5 51.7 22.4 51.8 22.1 51.9 21.85 52.05 Q21.2 52.6 20.7 53.3 L20.45 53.75 19.95 54.6 Q19.4 55.75 18.4 56.6 15.1 58.7 12.0 57.0 L9.85 57.95 10.25 58.1 9.9 58.35 9.7 58.55 9.7 58.6 8.95 58.3 5.75 59.0 3.25 59.1 2.45 59.0 -0.05 59.1 M4.95 61.75 L7.95 62.2 9.45 63.15 Q10.75 63.15 11.7 63.75 L11.75 63.75 11.75 63.8 11.6 64.2 11.65 64.2 11.65 64.45 10.9 64.1 11.55 64.4 11.25 65.1 9.5 67.9 9.5 67.55 Q8.35 67.8 7.35 68.25 6.05 68.8 4.8 69.7 L4.8 70.05 Q6.7 69.65 8.5 68.65 L7.5 69.95 6.2 70.8 5.6 71.1 4.75 71.35 4.6 71.35 2.1 71.55 0.1 71.3 -2.45 69.4 Q-4.15 67.45 -3.65 66.05 L-5.1 66.15 -4.2 65.25 Q-2.4 63.6 -0.35 62.7 L-1.3 63.4 Q-3.0 64.95 -2.1 66.9 -1.65 67.95 -0.6 68.3 L4.4 68.55 5.5 68.2 Q6.4 67.4 6.7 66.4 L6.7 65.45 6.8 65.35 7.2 64.85 8.15 63.7 7.05 63.05 Q6.45 62.1 5.55 61.8 L4.95 61.75 M-26.2 -11.25 Q-26.75 -11.5 -26.35 -11.9 -26.1 -11.8 -26.0 -11.35 L-26.2 -11.25 M-27.55 -8.55 L-30.55 -8.55 Q-30.1 -9.1 -29.05 -9.1 L-28.05 -8.85 -27.55 -8.55 M-27.1 -10.1 L-27.45 -9.7 -30.3 -12.75 Q-27.9 -12.35 -27.1 -10.1 M-12.55 -17.8 Q-13.05 -17.5 -13.55 -17.35 L-14.0 -17.25 -15.3 -17.3 -15.8 -18.1 Q-16.05 -19.1 -15.9 -19.9 -14.8 -18.65 -13.4 -18.1 L-13.25 -18.05 -12.5 -17.85 -12.55 -17.8 M-15.9 -19.95 Q-15.7 -21.2 -14.55 -22.1 L-14.5 -22.15 -14.15 -22.3 -14.1 -22.3 -12.3 -22.15 -12.2 -22.05 -12.1 -21.95 -11.3 -20.65 -11.2 -20.45 -11.45 -20.5 -13.5 -20.95 -14.15 -21.0 Q-13.15 -19.9 -11.4 -19.35 L-13.8 -19.15 -15.9 -19.95 M-18.9 -20.85 L-18.7 -20.6 -18.8 -20.75 -18.9 -20.85 M-12.25 -11.7 L-12.2 -11.75 -12.25 -11.7 M-17.8 14.9 L-16.65 16.8 Q-15.3 18.5 -13.05 19.25 -12.2 20.15 -11.7 21.25 L-11.6 21.55 -11.45 22.3 -11.4 22.6 -11.8 22.2 -12.3 21.7 -12.95 20.6 -13.05 20.4 Q-15.55 19.25 -16.8 17.25 -17.5 16.15 -17.8 14.9 M-23.6 40.0 L-23.65 39.4 Q-22.3 39.5 -21.65 40.65 L-21.55 40.9 -21.6 40.6 -21.55 39.1 Q-19.95 40.55 -19.6 43.3 L-19.95 43.8 -20.3 44.45 Q-20.85 45.6 -21.0 46.9 L-21.0 47.05 -21.05 47.85 -21.0 48.5 Q-21.6 49.1 -22.35 49.55 -23.05 50.05 -23.9 50.35 -26.85 51.4 -28.6 49.4 -29.75 50.4 -31.35 50.8 -32.5 51.15 -33.0 50.05 -33.95 47.65 -32.3 45.45 -31.3 44.2 -30.05 43.65 L-30.45 42.55 Q-31.4 39.45 -28.5 38.15 L-27.45 37.85 -26.7 37.8 Q-26.35 37.95 -26.05 38.2 -25.25 39.0 -24.85 40.2 L-24.85 40.35 -24.8 40.55 -24.7 40.3 -24.5 40.0 -24.25 39.75 -23.6 40.9 -23.6 40.75 -23.6 40.65 -23.6 40.0 M-18.85 13.0 Q-19.9 12.75 -20.05 11.65 -19.15 12.1 -18.85 13.0 M-21.8 23.4 L-21.95 23.35 Q-24.9 22.1 -25.85 19.2 L-25.55 18.55 Q-24.7 15.5 -27.25 13.65 L-28.7 12.6 -29.5 11.8 -30.15 11.1 Q-29.85 10.75 -29.3 10.55 -26.2 10.75 -23.6 12.75 L-22.65 13.6 Q-19.8 16.7 -22.55 20.0 -21.45 22.0 -21.8 23.4 M-28.95 15.9 L-28.35 16.45 -28.25 16.55 -28.2 17.15 -28.65 16.35 -28.95 15.9 M-28.95 45.7 L-29.0 45.6 -29.0 45.75 -29.15 45.9 -29.45 46.65 -29.5 47.45 -29.5 47.5 Q-28.9 48.3 -27.85 48.05 -26.9 47.35 -27.05 46.25 -27.35 45.3 -28.3 45.25 L-28.65 45.45 -28.95 45.7" fill="#996600" fill-rule="evenodd" stroke="none"/>
    <path d="M22.4 -28.3 L22.4 -28.45 22.5 -28.35 22.4 -28.3 M31.65 -17.95 L32.4 -17.7 31.8 -17.85 31.65 -17.95 M40.65 13.6 L40.5 12.3 40.65 12.2 40.65 12.15 40.55 11.5 40.65 11.45 40.7 12.1 40.65 12.7 40.65 13.6 M-33.15 62.6 Q-35.75 61.75 -37.3 59.35 L-37.5 58.95 -39.15 56.3 -39.4 55.95 -40.45 54.45 Q-40.8 52.85 -40.75 51.35 L-40.55 49.45 -40.15 47.4 -40.0 46.2 -39.95 46.2 -39.75 44.35 -40.05 43.15 Q-40.2 42.55 -41.1 42.9 -42.55 41.0 -42.05 38.4 -42.15 35.8 -40.45 34.2 L-37.25 30.75 -37.05 30.8 -37.0 30.8 -36.95 31.0 -36.45 31.0 -36.4 31.0 -36.4 31.05 -35.85 31.75 -35.3 32.45 -35.4 32.4 -34.85 32.85 -34.75 32.95 -34.65 32.6 -34.45 32.95 -34.1 33.45 Q-34.1 34.0 -34.4 34.65 L-34.75 35.85 Q-34.9 37.35 -35.5 38.75 L-36.15 40.45 -36.6 41.25 Q-38.4 41.9 -39.35 40.95 L-39.05 41.35 -37.6 44.0 Q-37.1 45.0 -37.2 46.15 L-37.45 48.6 -37.9 50.15 -38.8 52.75 Q-37.5 55.65 -35.35 58.0 L-33.7 59.9 -33.3 60.5 Q-33.6 61.6 -33.3 62.55 L-33.15 62.6 M-32.45 0.2 L-32.8 -0.4 -32.65 -0.25 -32.65 -0.2 -32.45 0.2 M-33.75 -1.8 L-33.95 -2.05 -33.9 -2.25 -33.75 -1.8 M-33.85 -5.15 Q-36.6 -6.8 -36.45 -10.3 L-37.05 -11.2 Q-37.55 -11.6 -38.25 -11.65 -39.5 -11.85 -40.05 -13.0 -40.65 -15.1 -39.6 -16.9 -38.35 -19.05 -36.25 -19.75 L-33.0 -20.0 Q-31.25 -21.0 -30.4 -22.6 L-28.4 -25.75 Q-26.7 -26.5 -24.9 -26.25 -24.95 -24.3 -26.05 -22.8 -24.7 -23.3 -24.3 -24.65 L-23.8 -27.4 Q-23.15 -30.5 -20.55 -30.6 L-19.8 -30.65 -20.3 -30.6 Q-23.3 -29.4 -23.7 -26.15 L-24.25 -21.4 -24.1 -21.25 -23.85 -21.0 -22.95 -21.0 Q-22.85 -21.0 -22.75 -21.1 -21.85 -22.3 -21.2 -23.6 -20.75 -24.6 -20.65 -25.6 L-20.7 -25.65 -20.7 -25.75 Q-20.9 -26.2 -20.55 -26.9 L-19.8 -27.35 -19.5 -27.35 -19.35 -27.5 -16.25 -27.8 Q-15.25 -28.3 -15.65 -29.25 -16.4 -30.95 -18.2 -31.0 -17.0 -31.45 -16.0 -32.25 -15.85 -32.95 -16.5 -32.95 -17.1 -33.05 -16.8 -33.85 L-16.8 -33.9 -16.25 -34.85 -16.65 -34.1 Q-16.6 -32.7 -14.45 -32.5 L-12.35 -34.95 Q-11.35 -36.4 -11.7 -37.4 -12.05 -38.2 -13.3 -38.75 L-13.3 -38.7 Q-14.4 -38.6 -14.9 -37.75 L-14.5 -38.85 -14.45 -39.0 Q-13.6 -41.85 -10.7 -42.95 L-8.25 -41.95 -5.1 -42.15 -5.45 -41.3 -5.85 -41.05 Q-7.05 -40.25 -6.95 -38.9 L-9.25 -39.3 -9.5 -39.15 -10.5 -38.65 -10.4 -37.4 -10.6 -35.15 Q-10.95 -34.7 -10.85 -34.0 L-11.45 -32.5 Q-11.85 -31.4 -12.55 -30.45 L-12.75 -30.15 Q-10.05 -29.65 -8.05 -27.45 L-7.45 -26.15 Q-6.9 -24.7 -6.75 -23.25 L-6.55 -20.9 -6.65 -20.85 -6.8 -20.4 -6.3 -19.8 -6.1 -19.75 -5.2 -19.75 Q-4.15 -20.0 -3.65 -20.9 L-3.6 -20.95 -3.3 -20.8 -3.35 -20.1 -3.35 -19.9 Q-3.45 -19.0 -3.7 -18.05 L-3.85 -17.7 -3.9 -17.55 Q-4.15 -17.35 -4.45 -17.25 L-5.25 -17.0 -7.55 -17.25 -8.15 -17.65 -8.25 -17.7 -8.4 -17.8 -8.6 -17.95 -9.5 -18.7 -9.4 -19.3 -9.4 -19.35 Q-10.5 -21.75 -12.45 -23.3 L-13.05 -23.8 -13.8 -24.05 -14.4 -24.2 -16.85 -23.95 -16.1 -24.15 Q-17.3 -25.15 -19.45 -24.6 -22.35 -23.5 -21.6 -20.45 L-21.5 -19.65 -21.55 -17.65 Q-21.3 -15.7 -20.05 -14.55 L-21.5 -13.25 -24.2 -13.35 Q-26.05 -13.85 -26.85 -15.65 L-27.2 -17.0 Q-28.95 -17.8 -29.15 -19.35 -30.2 -18.2 -31.7 -17.55 L-33.8 -16.5 Q-32.35 -15.95 -33.0 -13.9 -33.4 -12.6 -34.2 -12.35 L-33.4 -11.4 Q-32.15 -9.85 -32.15 -7.85 L-33.3 -6.4 -33.85 -5.15 M-2.75 -42.35 L-0.8 -42.65 Q1.9 -42.8 4.6 -43.75 7.35 -44.8 9.45 -42.25 L9.8 -41.3 9.55 -41.2 7.9 -41.05 7.8 -41.05 5.85 -41.35 3.05 -41.3 3.0 -41.3 Q0.75 -41.1 -1.4 -40.1 -2.65 -39.55 -3.8 -39.2 L-3.75 -39.25 -2.95 -40.4 Q-2.65 -41.1 -2.65 -41.8 L-2.75 -42.35 M10.85 -34.5 Q10.2 -35.55 9.15 -35.4 L8.75 -35.35 8.95 -35.0 8.55 -34.3 8.95 -33.8 Q9.65 -32.35 8.65 -30.95 L7.9 -30.25 Q7.15 -29.65 6.2 -29.5 5.7 -29.9 5.1 -29.85 L5.15 -29.8 5.35 -29.5 4.4 -29.65 Q3.75 -29.8 3.4 -30.1 L3.6 -29.35 3.9 -27.5 3.9 -26.75 3.8 -26.4 3.65 -25.7 Q3.3 -24.7 2.65 -24.35 L2.4 -24.2 1.45 -24.15 1.4 -24.15 0.65 -24.35 Q-0.55 -24.85 -0.5 -26.2 -0.45 -27.35 0.3 -28.2 L1.1 -31.85 1.45 -33.25 2.1 -34.0 2.1 -34.05 2.7 -33.65 Q3.1 -34.05 3.65 -34.35 L3.95 -34.4 3.75 -34.45 4.15 -34.65 4.35 -34.85 4.45 -34.9 4.3 -35.45 3.65 -35.85 5.35 -37.4 6.6 -38.25 7.2 -38.45 7.45 -38.5 9.2 -38.9 Q10.5 -38.85 10.8 -38.3 L11.0 -38.45 Q12.55 -38.35 12.8 -37.4 L12.8 -36.1 Q12.6 -35.15 11.65 -34.75 L10.85 -34.5 M22.55 -13.75 L22.85 -13.65 22.8 -13.65 22.65 -13.65 22.55 -13.75 M27.75 -13.55 L27.9 -13.55 27.9 -13.5 27.75 -13.55 M35.5 -8.7 L34.7 -8.7 34.6 -8.8 34.55 -8.85 34.85 -8.7 35.5 -8.7 M37.25 -3.45 Q36.95 -3.65 36.8 -4.0 L37.25 -3.5 37.25 -3.45 M41.85 -3.15 L42.05 -3.35 42.0 -3.0 41.85 -3.15 M0.0 -1.3 L3.1 -3.4 3.8 -2.85 Q4.45 -2.35 5.25 -2.05 L7.05 -0.7 7.45 -0.3 8.1 0.7 8.65 2.9 8.7 3.1 7.3 3.4 7.1 3.7 6.85 3.85 4.45 4.5 5.8 4.15 1.45 4.15 1.25 3.95 1.1 3.8 Q-0.65 1.95 -0.3 -0.45 L-0.25 -0.75 -0.15 -1.1 -0.15 -1.2 -0.1 -1.2 0.0 -1.3 M23.45 22.75 Q21.95 23.5 20.1 23.45 L20.0 23.7 19.25 24.55 19.2 24.7 Q16.0 25.85 12.95 25.95 9.2 26.1 5.6 24.75 5.05 24.5 5.05 23.9 L5.1 23.05 Q5.4 20.9 7.85 20.05 6.7 21.05 6.75 22.6 6.8 25.2 9.55 24.3 12.35 23.4 14.4 21.25 L14.7 20.9 Q16.15 21.0 17.1 19.45 L17.05 19.2 Q16.9 18.7 16.3 18.65 15.3 18.8 14.6 19.45 13.8 18.15 12.35 18.15 14.85 14.75 18.95 16.2 L19.85 16.6 20.85 17.1 21.85 16.35 Q22.4 15.5 23.2 15.05 24.55 15.1 25.35 15.55 27.1 16.45 26.45 19.1 26.15 20.5 25.1 21.45 L25.0 21.6 23.9 22.5 23.45 22.75 M10.3 29.35 Q13.35 31.15 14.65 33.65 14.5 32.9 15.15 32.25 L15.3 32.25 15.55 32.15 15.55 32.1 16.25 32.15 16.9 32.65 16.95 32.75 17.35 33.15 17.35 33.35 17.3 34.45 17.25 34.75 15.5 34.75 15.05 34.5 14.95 34.35 Q15.6 36.0 15.5 38.05 L14.3 38.05 12.3 38.8 4.95 39.5 Q4.2 39.5 3.8 40.0 2.4 42.1 0.45 43.6 -0.25 44.1 -1.3 43.85 -4.5 42.95 -7.55 43.3 -8.6 43.0 -9.65 43.3 L-9.05 43.2 -9.1 43.2 -9.15 43.2 Q-10.0 43.25 -10.0 44.05 L-9.75 44.35 -7.4 45.2 Q-6.55 45.75 -5.4 46.0 L-4.3 46.5 -1.6 48.5 -1.25 48.6 2.3 48.7 Q3.5 48.65 4.5 48.15 6.1 47.35 7.45 46.1 L9.15 46.05 9.55 46.0 12.95 45.35 Q14.5 44.9 15.85 44.1 L15.9 43.85 15.85 43.5 16.4 43.2 Q17.25 42.8 17.6 42.05 L17.8 42.2 Q18.35 41.85 18.8 41.6 L21.45 41.9 Q22.9 42.6 23.1 44.7 23.2 45.7 22.4 46.35 21.6 47.0 20.6 47.0 L20.45 47.15 20.25 47.35 20.25 47.4 20.25 47.9 20.25 47.95 Q16.85 49.05 14.8 52.0 L10.55 51.9 Q8.6 52.25 7.05 53.2 5.2 53.7 3.6 54.85 1.3 56.55 -1.75 56.4 L-2.05 56.3 Q-1.65 52.95 -5.2 53.4 L-5.55 53.4 -8.95 52.95 -12.15 54.2 Q-13.7 54.65 -13.4 56.0 L-13.15 56.2 -10.2 56.05 Q-10.1 57.05 -9.25 57.6 -7.0 59.1 -4.5 58.55 L-4.65 58.5 -0.05 59.1 2.45 59.0 3.25 59.1 5.75 59.0 8.95 58.3 9.7 58.6 Q12.1 59.65 14.25 61.05 12.6 58.9 10.25 58.1 L9.85 57.95 12.0 57.0 Q15.1 58.7 18.4 56.6 19.4 55.75 19.95 54.6 L20.45 53.75 20.7 53.3 Q21.2 52.6 21.85 52.05 L22.1 51.9 22.4 51.8 22.5 51.7 23.65 51.8 Q26.3 52.35 26.6 55.45 26.7 56.75 26.4 57.95 27.2 60.75 26.65 63.25 L26.55 63.7 25.35 66.5 24.05 68.3 23.9 68.5 22.7 69.75 22.65 69.85 21.85 70.5 21.8 70.55 20.8 71.1 20.05 71.8 Q18.25 73.45 15.8 73.6 9.8 73.95 5.6 78.25 L-0.95 77.6 -1.35 77.45 -3.2 76.75 -3.35 76.7 -3.95 76.6 Q-4.15 75.75 -4.65 75.1 -5.05 74.45 -5.7 73.95 L-5.75 73.9 -5.95 73.75 -6.05 73.7 Q-6.8 73.2 -7.6 73.2 -12.15 73.25 -16.2 71.65 -16.5 71.25 -16.95 71.0 L-17.75 70.2 -19.55 66.3 Q-20.0 65.05 -20.7 64.2 -24.15 64.25 -26.05 60.75 -27.15 58.6 -27.05 56.2 -26.9 52.95 -23.7 51.8 L-23.6 51.6 -22.7 50.5 -22.5 50.45 -22.05 50.25 -22.05 50.2 -20.2 50.5 Q-20.85 49.6 -21.0 48.5 L-21.05 47.85 -21.0 47.05 -21.0 46.9 Q-20.85 45.6 -20.3 44.45 L-19.95 43.8 -19.6 43.3 Q-18.6 42.05 -17.0 41.55 -16.45 41.3 -16.2 41.05 L-14.85 40.95 -14.6 38.85 Q-14.15 37.6 -13.1 36.65 L-12.4 35.95 -12.2 35.85 -11.25 35.5 -11.0 34.15 Q-10.55 32.15 -9.0 31.3 L-8.95 31.25 -8.65 31.1 -8.4 31.0 -6.3 31.15 -2.2 28.6 -2.05 28.65 0.3 29.0 Q4.55 28.45 8.9 28.9 L10.2 29.3 10.3 29.35 M18.1 32.1 L17.2 31.25 17.1 30.9 Q16.2 30.35 16.25 29.3 16.3 28.6 16.85 28.25 L16.95 28.2 17.15 28.1 Q18.25 28.05 18.95 28.6 L19.1 29.8 19.15 30.45 19.15 30.8 18.95 31.25 18.9 31.4 18.65 31.7 18.1 32.1 M18.95 28.0 Q18.9 27.2 19.45 26.7 L19.65 26.65 19.8 26.6 19.85 26.55 Q21.5 26.4 22.25 27.5 L21.5 28.75 21.45 28.8 Q20.6 30.1 20.05 29.2 L18.95 28.0 M22.55 28.0 L22.8 28.7 22.6 28.7 22.5 28.0 22.55 28.0 M11.05 0.7 L11.05 0.45 11.1 0.45 11.1 0.4 11.05 0.7 M-1.3 7.8 L-0.5 8.0 Q0.2 8.65 0.15 10.1 0.15 10.95 -0.55 11.55 L-0.9 11.9 Q-4.25 12.9 -4.4 9.6 -4.5 8.0 -3.0 7.4 L-2.15 7.6 -1.3 7.8 M-6.3 7.0 Q-5.75 8.55 -6.55 10.6 -6.95 11.6 -7.7 11.95 L-8.2 11.9 -8.85 11.95 -10.05 11.9 Q-11.45 11.75 -12.65 11.15 L-12.75 10.85 Q-13.65 8.8 -13.15 6.65 -12.65 4.75 -11.3 3.85 L-10.45 4.65 Q-8.7 6.45 -6.3 7.0 M-19.6 2.5 L-19.75 2.3 -19.95 1.9 Q-20.2 1.05 -19.4 0.65 L-18.45 0.3 -18.2 0.25 Q-17.3 0.2 -16.85 0.8 -16.65 1.05 -16.6 1.45 L-16.75 2.05 Q-16.7 3.15 -17.85 3.2 L-18.65 3.2 Q-19.25 3.05 -19.6 2.5 M-18.45 -2.4 L-19.9 -2.45 -20.7 -2.35 -21.7 -2.1 -23.3 -2.3 -23.05 -2.95 Q-22.8 -3.5 -22.8 -4.2 L-21.25 -3.9 Q-20.85 -5.55 -19.05 -5.95 L-18.55 -5.65 -17.25 -4.5 -17.15 -4.45 Q-15.4 -3.35 -13.55 -4.45 -12.2 -3.7 -10.7 -3.3 -9.3 -2.9 -8.25 -1.4 L-9.05 0.0 -7.7 -0.8 -6.05 -0.15 Q-5.05 0.05 -5.8 1.2 L-5.6 1.2 Q-5.05 -0.05 -3.9 0.2 L-3.8 0.2 -3.65 3.5 -3.65 4.0 -4.35 4.25 Q-5.6 4.5 -6.95 4.25 L-7.05 4.2 -7.05 4.25 -7.55 4.05 -7.7 4.0 -10.7 1.3 -10.7 1.25 -12.7 -0.3 Q-14.95 -2.05 -17.5 -2.35 L-17.75 -2.4 -18.5 -2.45 -18.45 -2.4 M0.15 3.85 L0.2 3.95 Q-1.1 4.5 -2.4 3.95 L-2.55 3.8 Q-3.5 2.35 -2.9 0.7 L-2.55 0.1 Q-2.0 -0.45 -0.95 -0.5 -1.1 1.8 0.15 3.85 M9.25 19.15 L9.5 18.9 10.1 18.7 10.6 18.65 10.2 18.7 Q9.7 18.9 9.25 19.15 M-1.8 56.65 L-2.4 56.6 -2.05 56.6 -1.8 56.65 M18.25 35.9 L18.45 35.9 18.5 35.9 Q19.35 37.05 19.65 38.45 L19.0 38.75 Q17.9 39.15 17.25 38.25 16.6 37.4 17.35 36.55 L17.55 36.3 17.65 36.25 17.8 36.1 17.85 36.0 17.9 35.95 18.25 35.9 M1.5 33.45 Q2.1 33.25 2.35 32.7 3.5 30.55 0.85 30.6 L-1.1 31.15 Q-1.9 31.4 -1.7 32.2 -1.15 34.5 1.5 33.45 M11.75 63.8 L11.75 63.75 11.7 63.75 Q10.75 63.15 9.45 63.15 L7.95 62.2 4.95 61.75 1.65 62.0 0.4 62.35 -0.35 62.7 Q-2.4 63.6 -4.2 65.25 L-5.1 65.15 Q-7.4 64.85 -7.95 66.9 -8.35 68.3 -7.3 69.2 -5.2 71.15 -2.3 69.95 L-1.65 70.6 -0.75 71.15 0.1 71.3 2.1 71.55 4.6 71.35 4.75 71.35 5.6 71.1 6.2 70.8 7.5 69.95 8.5 68.65 9.25 68.25 9.8 68.3 11.95 68.1 12.15 68.0 12.85 66.9 Q13.55 64.85 11.75 63.8 M6.8 65.35 L6.7 65.45 6.65 65.55 6.35 65.4 5.2 65.25 5.1 65.25 5.0 65.25 4.85 65.25 4.8 65.25 3.8 66.1 Q3.2 66.25 3.35 66.95 L4.1 67.0 3.4 67.2 3.2 67.25 Q2.45 67.5 2.0 67.05 L2.5 66.25 Q2.6 65.8 2.95 65.5 L3.5 65.2 3.45 65.05 3.25 63.75 3.15 63.3 Q3.3 62.9 3.7 62.85 L4.1 63.0 4.0 63.05 Q4.05 64.65 5.1 64.5 L6.95 64.8 6.85 65.15 6.8 65.25 6.75 65.35 6.8 65.35 M-14.5 -28.2 Q-15.2 -28.25 -15.45 -27.6 -16.65 -25.05 -13.3 -24.95 -12.6 -24.95 -12.3 -25.45 -10.85 -28.15 -14.5 -28.2 M-36.25 -19.75 Q-38.15 -18.2 -38.85 -15.8 -39.55 -13.55 -37.45 -13.1 -36.75 -12.95 -36.5 -13.6 L-35.1 -15.95 Q-32.9 -18.55 -35.5 -19.85 L-36.25 -19.75 M-12.25 -11.7 L-12.2 -11.75 -12.25 -11.7 M-13.05 2.4 Q-12.7 2.85 -12.9 3.55 L-13.4 4.55 -14.1 5.4 Q-13.9 5.6 -13.8 5.95 -13.6 6.45 -14.0 6.75 -15.3 7.2 -15.85 6.05 L-15.9 5.85 Q-16.75 4.8 -16.1 3.5 L-15.8 2.85 -15.05 2.15 -14.15 1.95 -13.85 1.9 -13.65 2.0 -13.05 2.4 M-21.85 24.2 L-21.6 22.95 -21.1 22.0 -17.75 21.45 -17.4 21.65 -15.8 22.0 Q-14.0 22.75 -12.45 24.0 L-11.25 24.75 Q-10.8 25.2 -10.6 25.9 -10.25 26.95 -10.95 27.75 L-11.35 28.3 -11.55 28.35 -12.6 28.65 -12.6 28.8 Q-12.75 29.4 -13.15 29.8 L-13.5 30.25 -14.2 30.4 -18.95 30.5 -19.65 30.25 -18.85 29.55 -18.0 29.0 -17.9 28.9 -17.45 28.15 -18.6 28.1 Q-19.4 28.15 -20.0 28.6 L-20.6 29.15 -20.65 29.1 -20.7 29.0 -20.7 28.95 -21.55 26.05 -21.6 24.95 Q-21.45 23.95 -20.5 23.05 -21.55 23.0 -21.7 23.85 L-21.85 24.2 M-19.1 32.3 Q-18.65 32.75 -18.85 33.8 L-19.25 34.55 Q-20.7 35.05 -21.15 33.95 L-21.3 33.15 Q-20.7 32.1 -19.6 32.25 L-19.1 32.3 M-22.15 34.9 L-22.75 35.9 Q-24.05 36.5 -24.7 35.3 L-24.9 34.6 -24.9 34.55 -24.75 34.3 -24.65 34.05 -24.6 34.0 -23.15 32.7 -23.05 32.65 -22.9 32.55 -22.75 32.5 Q-22.15 32.75 -22.25 33.6 -22.4 34.3 -22.15 34.9 M-21.65 40.65 L-21.6 40.6 -21.55 40.9 -21.65 40.65 M-17.5 24.7 Q-17.75 25.25 -17.4 25.8 L-17.3 25.95 -17.45 24.7 -17.5 24.7 M-9.7 22.9 L-9.7 22.95 -9.75 22.9 -9.7 22.85 -9.7 22.9 M-30.25 3.45 L-30.15 3.4 Q-30.0 4.65 -30.8 5.55 L-30.9 5.65 Q-30.95 6.1 -31.3 6.35 L-31.4 8.1 -31.4 8.2 -31.55 8.3 -31.55 8.2 -31.4 6.45 -31.4 6.35 -31.15 6.1 Q-30.6 5.15 -30.35 4.1 L-30.25 3.45 M-27.2 32.85 L-27.2 32.8 -27.3 32.4 -27.1 32.5 -27.2 32.85 M-27.65 34.05 L-26.5 33.25 -24.9 33.15 -25.9 34.75 -26.0 35.55 -27.05 35.25 Q-27.55 35.0 -27.65 34.4 L-27.65 34.05 M-24.85 40.2 L-24.7 40.3 -24.8 40.55 -24.85 40.35 -24.85 40.2 M-29.0 45.75 L-29.0 45.6 -28.95 45.7 -29.0 45.75 M-6.55 33.6 L-6.9 34.3 -7.4 34.8 -7.45 35.95 Q-9.05 37.0 -9.1 38.75 -9.15 40.1 -8.15 40.3 L-7.15 40.25 Q-3.7 39.55 -2.7 36.05 -1.8 32.8 -5.1 32.4 L-5.75 32.6 -6.0 32.7 -6.5 33.15 -6.55 33.6 M-13.65 42.75 L-14.15 42.65 Q-15.5 42.6 -16.55 43.6 -17.5 44.55 -17.6 45.8 L-17.55 47.0 -17.5 47.1 -17.4 47.6 -17.3 47.9 Q-16.1 50.85 -12.5 49.65 -10.85 50.7 -8.95 50.55 -7.2 50.45 -6.5 49.2 L-6.5 49.25 Q-5.5 50.25 -4.5 49.4 L-4.4 49.2 -4.35 48.55 -4.5 48.4 Q-5.05 47.95 -5.9 48.0 L-5.9 48.05 -6.3 48.2 Q-6.4 47.7 -6.85 47.5 L-11.55 44.8 -11.7 44.55 Q-12.25 43.05 -13.65 42.75 M-18.9 51.85 L-18.9 51.75 -18.95 51.7 -18.9 51.85 M-15.8 63.25 Q-14.35 60.65 -17.1 59.8 L-17.05 60.4 Q-17.0 59.4 -17.85 58.6 L-17.9 57.95 Q-18.4 55.0 -21.45 54.85 L-21.5 54.75 -21.75 54.25 -21.85 54.1 -21.9 53.95 -22.15 53.6 -22.2 53.55 -22.3 54.3 -22.35 54.55 -22.85 55.75 -23.55 56.75 -24.7 57.7 Q-24.4 58.55 -24.4 59.2 L-23.4 59.55 -22.4 59.75 -22.1 60.9 Q-20.55 63.35 -17.9 62.35 L-17.95 62.4 Q-17.6 63.45 -15.9 63.4 L-15.8 63.25" fill="#99cc99" fill-rule="evenodd" stroke="none"/>
    <path d="M22.55 -28.3 L23.15 -27.75 23.6 -27.4 24.9 -26.65 25.85 -26.25 26.0 -26.25 26.15 -26.2 26.55 -26.1 Q27.8 -25.6 28.7 -24.4 L29.25 -23.5 Q28.75 -23.25 27.85 -23.5 L27.6 -23.6 27.35 -22.6 Q26.7 -21.5 25.35 -22.0 24.75 -22.2 24.3 -22.0 25.5 -21.4 26.25 -20.05 26.9 -18.95 25.75 -18.4 25.2 -18.15 24.75 -18.6 L23.2 -19.85 23.1 -19.9 23.05 -19.9 22.9 -19.95 Q22.8 -16.85 20.0 -15.5 L18.9 -14.85 16.3 -14.7 16.25 -14.75 16.9 -15.15 17.0 -15.25 18.6 -16.75 18.7 -16.85 19.45 -17.85 Q20.7 -19.55 21.45 -21.3 L22.8 -21.1 Q23.35 -20.65 24.1 -20.45 24.0 -21.7 22.95 -21.9 22.25 -22.05 22.0 -22.5 21.85 -22.8 21.85 -23.15 22.9 -24.55 24.4 -24.45 L24.05 -24.7 22.6 -24.95 22.45 -27.45 22.4 -28.25 22.55 -28.3 M40.55 11.5 L40.5 11.65 40.4 11.75 40.4 11.8 40.4 12.1 40.3 12.2 40.35 12.65 40.4 13.35 40.4 13.65 40.3 13.65 40.45 13.85 40.55 15.7 40.55 15.85 40.75 17.55 40.9 19.0 41.15 20.15 41.4 22.45 41.4 23.65 40.65 26.8 40.25 27.5 39.95 28.8 39.75 29.1 39.9 29.3 40.4 29.8 Q41.7 31.3 42.25 33.15 43.25 36.55 42.35 39.85 41.5 43.05 39.8 45.85 38.6 48.3 39.1 51.05 39.65 53.8 38.8 56.25 L36.05 60.3 35.8 60.7 35.05 61.8 34.2 62.9 Q35.3 58.45 34.6 53.8 L34.75 51.7 34.85 49.8 Q36.5 47.85 37.3 45.4 37.8 44.05 37.25 42.8 36.1 40.05 33.1 41.25 L32.7 40.85 Q30.85 38.75 28.7 37.15 30.6 37.3 32.0 36.45 33.35 34.9 33.8 32.85 34.05 31.6 33.75 30.8 L34.15 29.95 34.35 29.45 Q35.0 27.85 36.25 26.45 L36.7 26.05 37.15 24.6 37.4 24.2 37.6 23.85 37.65 23.8 37.65 23.75 38.1 20.6 38.15 20.3 38.15 20.25 38.4 19.45 38.6 18.6 38.6 18.5 38.6 15.75 Q38.4 14.2 37.5 12.9 L37.4 12.75 37.2 12.4 37.3 12.3 37.55 12.15 37.65 12.1 39.2 11.2 39.5 11.05 37.9 11.2 36.3 11.05 36.25 10.9 36.2 10.85 35.95 10.45 35.85 9.85 35.9 9.85 36.05 9.65 36.35 9.4 36.7 9.3 36.75 9.3 Q38.2 9.0 38.8 7.7 L38.85 7.65 38.95 7.35 Q40.55 7.25 41.95 7.95 42.35 8.15 42.4 8.65 42.45 9.45 42.9 10.15 L42.95 10.3 42.65 10.7 42.5 10.65 41.2 10.9 40.55 11.3 40.65 11.45 40.55 11.5 M20.95 -10.0 L21.3 -10.8 21.65 -11.15 21.8 -11.2 Q23.85 -11.2 23.55 -9.15 23.45 -8.05 22.9 -7.1 L21.3 -4.95 21.2 -4.65 Q20.9 -3.05 19.3 -2.25 L18.35 -1.6 14.7 1.15 11.95 3.45 12.05 3.85 12.4 5.65 12.4 5.95 12.1 5.95 12.35 5.95 Q12.35 7.4 11.15 8.35 L10.9 8.45 Q9.7 8.75 9.3 7.65 L9.3 7.45 9.45 7.25 Q9.8 7.6 10.55 7.75 11.25 6.9 11.4 5.95 L11.4 5.6 11.4 5.15 11.3 4.3 Q11.1 3.9 11.05 3.4 L11.05 0.7 11.1 0.4 11.1 0.45 11.3 0.2 11.5 -0.1 11.5 -0.05 11.95 -0.6 12.95 -1.2 13.75 -1.7 13.85 -1.7 13.95 -1.75 14.05 -1.75 14.15 -1.8 14.55 -2.4 14.95 -2.75 15.75 -3.0 Q17.0 -3.25 17.85 -4.1 19.9 -5.05 20.3 -6.95 20.7 -8.85 21.85 -10.4 L20.95 -10.0 M1.1 3.8 L1.25 3.95 1.45 4.15 5.8 4.15 4.45 4.5 6.85 3.85 7.1 3.7 7.3 3.4 8.7 3.1 8.85 3.0 9.15 2.9 9.3 2.8 Q9.35 4.1 9.0 5.55 L9.0 5.65 6.2 6.35 4.8 6.65 2.55 6.7 1.7 6.6 -3.3 6.3 -5.5 5.7 -6.85 5.35 -7.25 5.2 Q-9.2 3.9 -11.4 3.05 L-11.75 2.85 -14.65 0.95 Q-15.05 0.7 -15.6 0.6 L-18.4 -0.05 Q-18.95 -0.2 -19.05 -0.85 L-19.0 -1.4 -18.95 -1.7 -18.8 -1.9 Q-18.65 -2.2 -18.35 -2.3 L-18.2 -2.35 -18.2 -2.4 -17.5 -2.35 Q-14.95 -2.05 -12.7 -0.3 L-10.7 1.25 -10.7 1.3 -7.7 4.0 -7.55 4.05 -7.05 4.25 -7.05 4.2 -6.95 4.25 Q-5.6 4.5 -4.35 4.25 L-3.65 4.0 -3.65 3.5 -2.55 3.8 -2.4 3.95 Q-1.1 4.5 0.2 3.95 L0.15 3.85 1.1 3.8 M27.1 -24.4 L26.0 -24.85 26.9 -24.4 27.15 -24.25 27.1 -24.4 M39.3 25.15 L39.25 25.1 39.25 25.15 39.3 25.15 M22.15 35.9 L22.2 35.95 22.15 36.45 Q22.15 38.2 23.2 39.55 L22.4 39.1 Q21.35 38.5 21.6 37.2 L22.15 35.9 M4.95 61.75 L5.55 61.8 Q6.45 62.1 7.05 63.05 L6.7 62.9 6.65 62.85 Q5.2 62.15 4.1 63.0 L3.7 62.85 Q3.3 62.9 3.15 63.3 L3.25 63.75 3.45 65.05 3.5 65.2 2.95 65.5 Q2.6 65.8 2.5 66.25 L2.0 67.05 Q2.45 67.5 3.2 67.25 L3.4 67.2 4.1 67.0 Q5.7 66.95 6.65 65.65 L6.35 65.4 6.65 65.55 6.7 65.45 6.7 66.4 Q6.4 67.4 5.5 68.2 L4.4 68.55 -0.6 68.3 Q-1.65 67.95 -2.1 66.9 -3.0 64.95 -1.3 63.4 L-0.35 62.7 0.4 62.35 1.65 62.0 4.95 61.75 M7.2 64.85 L6.8 65.35 6.75 65.35 6.8 65.25 6.85 65.15 6.95 64.8 7.2 64.85 M-14.7 -0.4 L-14.75 -0.4 -14.65 -0.35 -14.7 -0.4 M-30.15 11.1 L-29.5 11.8 -28.7 12.6 -27.25 13.65 Q-24.7 15.5 -25.55 18.55 L-25.85 19.2 Q-24.9 22.1 -21.95 23.35 L-21.8 23.4 Q-22.1 24.35 -23.05 25.1 -25.9 24.4 -27.15 21.8 L-27.35 21.4 Q-27.25 19.05 -28.2 17.15 L-28.25 16.55 -28.35 16.45 -28.95 15.9 -29.9 14.2 -30.25 13.35 -30.35 13.15 -30.4 13.05 -30.9 11.95 -30.15 11.1" fill="#714d00" fill-rule="evenodd" stroke="none"/>
    <path d="M23.15 -27.75 L23.6 -27.4 23.15 -27.75 M32.45 52.95 Q30.35 57.3 28.75 61.8 27.55 62.35 26.65 63.25 27.2 60.75 26.4 57.95 26.7 56.75 26.6 55.45 26.3 52.35 23.65 51.8 L23.7 51.4 Q23.7 50.25 22.5 50.45 L22.15 50.6 22.05 50.6 21.6 50.85 21.5 50.85 19.25 52.4 18.65 53.05 16.05 55.9 15.9 56.0 12.85 55.9 Q10.85 55.35 9.2 56.5 L8.9 56.7 8.75 56.8 Q8.0 56.95 7.35 57.25 L6.25 57.7 4.45 58.0 2.7 58.0 1.8 58.15 0.5 58.55 Q0.05 58.65 -0.05 59.1 L-4.65 58.5 -4.5 58.55 Q-7.0 59.1 -9.25 57.6 -10.1 57.05 -10.2 56.05 L-13.15 56.2 -13.4 56.0 Q-13.7 54.65 -12.15 54.2 L-8.95 52.95 -5.55 53.4 -5.2 53.4 Q-1.65 52.95 -2.05 56.3 L-1.75 56.4 Q1.3 56.55 3.6 54.85 5.2 53.7 7.05 53.2 8.6 52.25 10.55 51.9 L14.8 52.0 Q16.85 49.05 20.25 47.95 L20.25 47.9 20.25 47.4 20.25 47.35 20.45 47.15 20.6 47.0 Q21.6 47.0 22.4 46.35 23.2 45.7 23.1 44.7 22.9 42.6 21.45 41.9 L21.15 41.5 Q19.85 40.85 18.3 40.95 L17.2 41.65 Q16.1 42.2 15.15 43.1 L15.0 43.2 13.8 43.45 12.8 43.75 11.85 43.8 9.15 44.0 8.95 43.85 8.25 43.75 5.9 44.45 Q5.35 44.95 5.0 45.6 L4.8 46.2 3.6 46.9 3.1 47.1 0.15 47.65 -0.45 47.8 -1.6 47.45 Q-2.35 47.25 -2.95 46.65 L-3.8 45.7 -9.6 43.95 -9.4 43.65 -9.3 43.5 -9.05 43.2 -9.1 43.2 -9.05 43.2 -9.65 43.3 Q-8.6 43.0 -7.55 43.3 -4.5 42.95 -1.3 43.85 -0.25 44.1 0.45 43.6 2.4 42.1 3.8 40.0 4.2 39.5 4.95 39.5 L12.3 38.8 14.3 38.05 15.5 38.05 Q15.6 36.0 14.95 34.35 L15.05 34.5 15.5 34.75 17.25 34.75 17.3 34.45 Q17.05 35.9 15.7 36.95 16.55 37.05 17.1 36.45 17.6 35.85 18.25 35.9 L17.9 35.95 17.85 36.0 17.8 36.1 17.65 36.25 17.55 36.3 17.35 36.55 Q16.6 37.4 17.25 38.25 17.9 39.15 19.0 38.75 L19.65 38.45 19.65 40.25 20.15 39.2 20.25 37.55 Q20.15 36.65 19.65 35.8 L19.95 35.5 20.2 35.45 20.6 35.6 20.7 35.6 20.95 35.75 21.85 35.8 22.15 35.9 21.6 37.2 Q21.35 38.5 22.4 39.1 L23.2 39.55 24.0 39.8 24.5 39.95 Q29.75 41.25 31.05 46.15 L31.2 45.9 31.25 45.85 Q33.2 43.85 35.7 43.0 34.95 44.5 33.4 45.9 31.8 47.15 31.05 48.75 L30.65 49.1 Q30.6 51.05 32.5 52.2 L32.45 52.95 M11.8 80.55 L11.1 80.9 11.0 80.95 10.2 81.1 10.6 81.0 11.5 80.65 11.8 80.55 M-27.8 59.85 L-29.45 57.8 -29.85 57.4 -29.85 57.35 -30.35 56.7 -30.9 56.05 -30.4 57.4 -29.7 58.7 -31.4 58.4 Q-32.8 58.8 -33.3 60.45 L-33.3 60.5 -33.7 59.9 -35.35 58.0 Q-37.5 55.65 -38.8 52.75 L-37.9 50.15 -37.45 48.6 -37.2 46.15 Q-37.1 45.0 -37.6 44.0 L-39.05 41.35 -39.35 40.95 Q-38.4 41.9 -36.6 41.25 L-36.15 40.45 -35.5 38.75 Q-34.9 37.35 -34.75 35.85 L-34.4 34.65 Q-34.1 34.0 -34.1 33.45 -31.8 36.3 -28.6 35.75 L-28.1 35.05 -27.95 34.45 -27.95 34.25 -27.65 34.05 -27.65 34.4 Q-27.55 35.0 -27.05 35.25 L-26.0 35.55 Q-26.05 37.0 -24.9 38.25 L-24.25 39.75 -24.5 40.0 -24.7 40.3 -24.85 40.2 Q-25.25 39.0 -26.05 38.2 -26.35 37.95 -26.7 37.8 L-27.45 37.85 -28.5 38.15 Q-31.4 39.45 -30.45 42.55 L-30.05 43.65 Q-31.3 44.2 -32.3 45.45 -33.95 47.65 -33.0 50.05 -32.5 51.15 -31.35 50.8 -29.75 50.4 -28.6 49.4 -26.85 51.4 -23.9 50.35 -23.05 50.05 -22.35 49.55 -21.6 49.1 -21.0 48.5 -20.85 49.6 -20.2 50.5 L-22.05 50.2 -22.05 50.25 -22.5 50.45 -22.7 50.5 -23.6 51.6 -23.7 51.8 Q-26.9 52.95 -27.05 56.2 -27.15 58.6 -26.05 60.75 L-26.1 60.7 -26.55 60.65 Q-27.3 59.8 -28.2 59.25 L-27.8 59.85 M-37.05 30.8 L-36.8 30.65 -36.8 30.6 -36.65 30.6 -36.45 31.0 -36.95 31.0 -37.0 30.8 -37.05 30.8 M-35.15 31.45 Q-35.8 31.15 -36.3 30.35 L-36.6 30.2 -36.65 30.05 Q-37.0 29.15 -37.9 28.5 -38.7 28.0 -38.9 27.1 L-39.5 24.75 Q-40.05 22.1 -41.5 19.8 -42.6 18.05 -42.1 16.1 -41.75 14.8 -41.7 13.5 L-41.7 12.75 -41.75 11.95 -40.5 12.55 Q-39.65 12.5 -39.05 12.95 L-34.3 14.5 -34.35 15.15 -34.3 16.7 -34.1 16.95 -35.4 19.35 Q-37.35 24.0 -34.65 28.05 L-34.8 28.75 Q-35.4 30.2 -35.15 31.45 M-30.95 11.8 L-30.95 11.75 -31.0 11.65 Q-30.15 10.3 -31.1 9.3 L-31.15 9.25 -31.4 8.8 Q-32.0 7.95 -32.05 6.9 L-31.8 6.2 -31.8 6.1 -31.75 6.0 Q-31.35 3.75 -31.95 1.7 L-32.0 1.5 -32.45 0.2 -32.65 -0.2 -32.65 -0.25 -32.8 -0.4 -33.7 -1.8 -33.75 -1.8 -33.9 -2.25 -33.55 -3.6 Q-33.3 -4.4 -33.8 -5.15 L-33.85 -5.15 -33.3 -6.4 -32.15 -7.85 Q-32.15 -9.85 -33.4 -11.4 L-34.2 -12.35 Q-33.4 -12.6 -33.0 -13.9 -32.35 -15.95 -33.8 -16.5 L-31.7 -17.55 Q-30.2 -18.2 -29.15 -19.35 -28.95 -17.8 -27.2 -17.0 L-26.85 -15.65 Q-26.05 -13.85 -24.2 -13.35 L-21.5 -13.25 -22.4 -11.4 Q-23.15 -9.4 -25.55 -9.65 -24.1 -7.65 -21.9 -6.25 L-19.05 -5.95 Q-20.85 -5.55 -21.25 -3.9 L-22.8 -4.2 Q-22.8 -3.5 -23.05 -2.95 L-23.3 -2.3 -21.7 -2.1 -20.7 -2.35 -19.9 -2.45 -18.45 -2.4 -18.35 -2.3 Q-18.65 -2.2 -18.8 -1.9 L-18.95 -1.7 -19.0 -1.4 Q-19.4 -0.2 -18.45 0.3 L-19.4 0.65 Q-20.2 1.05 -19.95 1.9 L-19.75 2.3 -19.6 2.5 Q-23.05 1.15 -26.45 -0.05 L-26.2 0.4 -25.7 0.7 -23.85 1.8 -22.75 2.65 Q-21.15 4.05 -19.4 4.8 L-22.05 5.4 -21.2 5.6 Q-18.15 5.15 -16.5 7.6 L-16.4 7.75 -15.65 8.75 -15.45 9.05 -13.2 11.4 -12.9 11.6 -12.65 11.8 -12.6 11.85 -12.05 12.0 Q-11.0 13.15 -9.05 12.75 L-8.85 12.6 -7.0 12.7 -6.65 12.7 -4.35 12.5 -4.75 12.4 -4.8 12.4 -5.6 12.2 -7.7 11.95 Q-6.95 11.6 -6.55 10.6 -5.75 8.55 -6.3 7.0 L-4.85 7.15 -3.0 7.4 Q-4.5 8.0 -4.4 9.6 -4.25 12.9 -0.9 11.9 L-0.55 11.55 Q0.15 10.95 0.15 10.1 0.2 8.65 -0.5 8.0 L-1.3 7.8 4.05 8.3 Q6.8 8.2 8.95 6.35 9.0 6.9 9.45 7.25 L9.3 7.45 9.3 7.65 Q9.7 8.75 10.9 8.45 L11.15 8.35 Q12.35 7.4 12.35 5.95 L12.1 5.95 12.8 5.9 Q13.55 5.8 14.05 5.1 L18.4 5.2 19.35 5.3 Q20.05 5.05 19.95 4.25 L20.0 4.5 Q20.85 4.05 21.8 3.75 26.35 1.95 24.8 -2.5 L24.45 -3.5 Q25.65 -5.6 25.65 -8.0 L26.75 -8.45 27.8 -9.45 29.2 -10.3 29.25 -10.35 29.25 -10.85 Q29.1 -11.9 29.45 -12.75 L29.75 -12.8 30.15 -12.85 30.3 -12.85 30.3 -13.25 29.7 -13.25 30.35 -13.95 30.55 -14.05 31.35 -14.45 31.7 -14.6 31.75 -14.65 35.3 -14.2 36.0 -13.85 36.1 -13.75 Q37.65 -12.05 37.8 -10.1 L37.9 -9.9 Q38.3 -9.05 38.1 -7.9 L37.75 -7.5 37.3 -8.0 37.05 -8.2 Q36.35 -8.7 35.5 -8.7 L34.85 -8.7 34.55 -8.85 34.5 -8.85 33.8 -9.35 32.7 -9.4 31.7 -8.6 Q30.15 -6.65 32.25 -5.15 33.2 -4.45 34.25 -4.25 L34.2 -4.25 Q33.8 -3.65 33.95 -3.0 34.4 -0.9 36.5 -1.75 L37.1 -2.75 37.25 -3.45 37.25 -3.5 37.6 -3.35 40.15 -3.5 40.5 -3.3 40.5 -3.25 41.1 -3.15 41.85 -3.15 42.0 -3.0 Q41.9 -2.25 41.45 -1.7 43.7 -1.35 43.95 1.1 44.1 2.85 42.65 3.9 L40.1 3.75 37.8 2.2 37.65 2.1 35.3 1.95 35.05 1.35 35.0 1.25 35.05 1.8 34.2 1.25 33.75 0.55 33.45 0.35 32.85 0.05 32.75 0.1 32.25 0.25 31.65 0.35 Q31.1 1.1 31.35 2.25 L29.35 2.2 Q27.35 2.1 25.85 3.75 23.3 6.6 26.2 8.7 26.2 10.25 27.7 11.4 27.9 12.15 27.6 12.75 L27.15 12.6 26.45 12.7 25.95 12.85 Q25.1 13.55 25.2 14.6 L25.35 15.55 Q24.55 15.1 23.2 15.05 22.4 15.5 21.85 16.35 L20.85 17.1 19.85 16.6 18.95 16.2 19.2 15.45 Q19.75 12.9 16.95 12.8 14.25 13.3 11.7 14.45 L10.65 15.7 9.75 16.4 Q7.55 17.15 5.1 17.15 L4.65 17.55 4.5 17.65 Q3.25 17.85 2.2 18.6 L0.95 19.1 -1.9 18.85 -1.2 19.1 -1.9 18.85 -2.05 18.8 -2.15 18.85 -6.25 19.0 -8.0 18.4 -10.2 17.95 -10.25 17.9 -10.3 17.85 -12.55 16.0 -12.55 15.9 -12.65 15.9 -12.7 15.9 -12.75 15.85 -13.85 15.25 -14.0 15.15 -15.35 14.9 -15.95 14.9 -15.5 15.1 Q-14.7 15.45 -13.95 15.9 L-14.55 15.8 -12.05 19.0 Q-11.35 19.9 -11.05 20.9 -8.5 21.35 -6.8 23.4 -4.8 25.75 -6.65 28.25 L-8.0 29.85 -8.3 30.0 -8.75 30.2 -8.4 31.0 -8.65 31.1 -8.95 31.25 -9.0 31.3 Q-10.55 32.15 -11.0 34.15 L-11.25 35.5 -12.2 35.85 -12.4 35.95 -13.1 36.65 Q-14.15 37.6 -14.6 38.85 L-14.85 40.95 -16.2 41.05 Q-16.45 41.3 -17.0 41.55 -18.6 42.05 -19.6 43.3 -19.95 40.55 -21.55 39.1 L-21.6 40.6 -21.65 40.65 Q-22.3 39.5 -23.65 39.4 L-23.6 40.0 Q-23.8 37.55 -25.2 35.6 L-24.9 34.6 -24.7 35.3 Q-24.05 36.5 -22.75 35.9 L-22.15 34.9 -22.1 34.95 -22.0 35.1 Q-21.1 36.45 -19.65 36.1 -20.85 35.3 -21.15 33.95 -20.7 35.05 -19.25 34.55 L-18.85 33.8 Q-18.65 32.75 -19.1 32.3 L-17.35 32.5 Q-17.65 31.75 -18.5 31.7 -19.35 31.65 -19.9 31.2 L-19.65 30.25 -18.95 30.5 -14.2 30.4 -13.5 30.25 -13.15 29.8 Q-12.75 29.4 -12.6 28.8 L-12.6 28.65 -11.55 28.35 -11.35 28.3 -10.95 27.75 Q-10.25 26.95 -10.6 25.9 -10.8 25.2 -11.25 24.75 L-12.45 24.0 Q-14.0 22.75 -15.8 22.0 L-17.4 21.65 -17.75 21.45 -21.1 22.0 -21.6 22.95 -21.85 24.2 -21.95 24.45 -22.0 24.5 -22.55 25.15 -22.65 25.2 -22.7 25.15 -23.05 25.1 Q-22.1 24.35 -21.8 23.4 -21.45 22.0 -22.55 20.0 -19.8 16.7 -22.65 13.6 L-23.6 12.75 Q-26.2 10.75 -29.3 10.55 -29.85 10.75 -30.15 11.1 L-30.9 11.95 -30.95 11.8 M-3.8 -39.2 Q-2.65 -39.55 -1.4 -40.1 0.75 -41.1 3.0 -41.3 L3.05 -41.3 5.85 -41.35 5.85 -40.65 Q6.1 -39.25 7.2 -38.45 L6.6 -38.25 5.35 -37.4 3.65 -35.85 3.45 -35.95 3.35 -36.0 -0.1 -36.15 -0.85 -36.1 -1.1 -36.25 Q-1.55 -37.15 -2.7 -37.0 L-2.75 -37.0 -2.85 -37.3 -2.85 -37.4 -3.4 -38.3 -4.1 -39.15 -3.9 -39.2 -3.8 -39.2 M2.1 -34.0 L1.45 -33.25 1.1 -31.85 0.3 -28.2 Q-0.45 -27.35 -0.5 -26.2 -0.55 -24.85 0.65 -24.35 L1.4 -24.15 0.95 -23.95 Q0.25 -23.5 0.4 -22.75 0.8 -21.0 2.6 -20.75 L2.55 -20.7 0.85 -17.9 0.55 -17.25 Q0.3 -16.5 0.4 -15.6 L0.55 -15.15 1.1 -14.5 1.85 -13.85 Q2.2 -13.55 2.65 -13.45 L3.5 -13.1 4.1 -12.9 2.3 -9.85 1.8 -9.35 Q1.35 -8.8 1.25 -8.25 L0.85 -7.85 Q0.35 -7.5 0.2 -6.95 L0.2 -6.8 0.3 -6.7 0.55 -6.7 0.75 -6.7 1.15 -7.0 1.2 -7.0 1.5 -7.5 3.05 -8.95 3.65 -9.6 6.5 -11.75 7.5 -12.25 8.25 -12.4 10.0 -12.55 11.1 -12.45 11.3 -12.35 11.35 -12.3 10.4 -12.25 13.9 -12.55 Q14.0 -11.9 14.55 -11.55 L14.7 -11.45 8.95 -10.1 Q8.0 -9.8 7.3 -9.2 L4.85 -7.2 3.65 -6.2 -3.05 -1.55 -3.9 -1.45 Q-6.5 -2.0 -8.3 -4.05 L-9.1 -4.55 -13.15 -6.2 Q-13.6 -7.45 -14.65 -7.25 -14.65 -8.0 -14.8 -8.55 -15.65 -7.85 -16.45 -7.75 L-17.8 -8.9 -18.35 -10.75 -18.45 -11.2 Q-18.6 -12.45 -19.5 -12.9 L-19.5 -13.15 -19.5 -14.05 -19.45 -14.65 -19.9 -14.65 -20.05 -14.55 Q-21.3 -15.7 -21.55 -17.65 L-20.8 -17.0 Q-19.55 -16.05 -18.3 -15.25 L-16.45 -14.3 -15.95 -14.05 -15.55 -13.85 -14.25 -13.85 -14.2 -13.8 -14.1 -13.7 -12.8 -14.0 -12.45 -14.2 -11.55 -14.65 -11.5 -14.7 Q-11.25 -15.05 -10.7 -15.2 L-10.05 -15.95 -9.5 -16.0 Q-9.2 -15.7 -9.45 -15.35 L-10.85 -13.85 -12.25 -13.05 -12.5 -12.95 -12.75 -12.85 Q-13.55 -12.5 -14.45 -12.5 L-15.0 -12.65 -16.0 -12.85 -17.45 -13.15 -17.95 -13.1 -18.0 -12.95 -17.9 -12.7 -17.75 -12.2 -17.45 -11.85 Q-15.9 -10.9 -14.3 -10.5 L-14.15 -10.3 -12.85 -10.15 -12.45 -10.2 -9.65 -10.55 -9.3 -10.7 -6.8 -11.65 -6.4 -12.2 -5.2 -15.05 -5.15 -15.5 -5.15 -15.7 -5.15 -16.05 -5.25 -17.0 -4.45 -17.25 Q-4.15 -17.35 -3.9 -17.55 L-3.85 -17.7 -3.7 -18.05 Q-3.45 -19.0 -3.35 -19.9 L-3.35 -20.1 -3.3 -20.8 -3.6 -20.95 -3.65 -20.9 Q-4.15 -20.0 -5.2 -19.75 L-6.1 -19.75 -6.3 -19.8 -6.8 -20.4 -6.65 -20.85 -6.55 -20.9 -6.75 -23.25 Q-6.9 -24.7 -7.45 -26.15 L-8.05 -27.45 Q-10.05 -29.65 -12.75 -30.15 L-12.55 -30.45 Q-11.85 -31.4 -11.45 -32.5 L-10.85 -34.0 Q-10.95 -34.7 -10.6 -35.15 L-10.4 -37.4 -10.5 -38.65 -9.5 -39.15 -9.25 -39.3 -6.95 -38.9 -6.95 -38.8 -6.85 -37.65 -6.75 -37.4 -6.6 -37.2 -5.3 -36.15 -5.3 -36.0 Q-5.3 -35.35 -5.6 -34.8 L-6.6 -34.15 -7.0 -33.95 Q-8.95 -33.5 -10.2 -32.05 L-10.25 -31.95 -10.35 -31.8 -10.35 -31.65 -10.4 -31.35 -10.35 -31.3 -10.2 -31.3 -10.15 -31.35 -10.1 -30.45 -10.05 -30.4 -10.0 -30.35 -9.7 -30.35 Q-9.5 -30.4 -9.45 -30.6 L-9.35 -30.85 -7.0 -31.7 -6.75 -31.8 Q-5.25 -32.05 -4.0 -32.9 -3.2 -33.45 -3.15 -34.4 L-3.1 -34.8 -3.05 -35.0 -2.9 -35.0 -2.8 -34.05 -2.6 -33.95 1.85 -33.85 1.95 -33.85 2.1 -34.0 M2.4 -24.2 L2.65 -24.35 2.7 -24.15 2.4 -24.2 M-1.95 -36.1 L-2.05 -36.2 -1.95 -36.2 -1.95 -36.1 M-8.25 -32.65 L-8.7 -32.4 -9.25 -32.25 -9.5 -32.05 -8.6 -32.55 -8.25 -32.65 M22.85 -13.65 L24.2 -13.4 Q25.25 -12.9 25.75 -11.65 L25.6 -9.5 24.8 -7.55 24.5 -7.55 24.9 -9.95 Q25.05 -11.2 23.75 -12.0 L23.35 -12.45 Q22.85 -12.9 22.2 -13.15 L22.1 -13.25 22.05 -13.25 21.95 -13.3 21.9 -13.35 21.75 -13.45 Q21.4 -13.7 21.35 -14.05 L21.15 -14.1 21.3 -14.3 21.3 -14.6 21.3 -14.65 21.55 -14.5 22.55 -13.75 22.65 -13.65 22.8 -13.65 22.85 -13.65 M-0.15 -1.2 L-0.15 -1.1 -0.25 -0.75 -0.15 -1.15 -0.15 -1.2 M17.7 -11.95 L17.7 -11.9 17.65 -11.9 17.75 -12.0 17.7 -11.95 M33.4 17.45 L33.3 17.8 Q33.2 18.15 33.45 18.25 32.45 19.8 31.8 21.55 30.85 24.1 29.25 26.35 26.4 28.65 23.0 28.7 L22.8 28.7 22.55 28.0 22.4 27.05 22.25 27.5 Q21.5 26.4 19.85 26.55 L19.8 26.6 19.65 26.65 19.45 26.7 Q18.9 27.2 18.95 28.0 L18.8 27.9 18.95 28.6 Q18.25 28.05 17.15 28.1 L16.95 28.2 16.85 28.25 Q16.3 28.6 16.25 29.3 16.2 30.35 17.1 30.9 L17.2 31.25 18.1 32.1 Q17.7 32.15 17.25 31.7 16.05 30.75 14.85 30.8 L16.9 32.65 16.25 32.15 15.55 32.1 15.55 32.15 15.3 32.25 15.15 32.25 Q14.5 32.9 14.65 33.65 13.35 31.15 10.3 29.35 L12.35 29.3 12.55 29.25 Q14.15 27.65 12.95 25.95 16.0 25.85 19.2 24.7 L19.25 24.55 20.0 23.7 20.1 23.45 Q21.95 23.5 23.45 22.75 23.1 23.35 23.0 24.1 L23.3 24.4 23.5 24.55 24.15 24.4 Q25.85 23.55 27.7 23.1 L28.45 22.35 Q29.4 21.15 29.3 19.6 30.35 17.95 30.0 15.95 L30.0 15.8 29.45 15.6 31.8 16.85 Q32.6 17.5 33.4 17.45 M34.5 16.65 L34.5 16.8 34.4 16.95 34.45 16.5 34.4 16.2 34.35 16.1 34.5 16.65 M11.5 -0.1 L11.95 -0.6 11.5 -0.05 11.5 -0.1 M2.2 19.3 L2.55 19.15 2.4 19.35 2.2 19.3 M-1.8 56.65 L-1.75 56.65 -1.75 56.4 -1.8 56.65 -2.05 56.6 -2.4 56.6 -1.8 56.65 M10.25 58.1 Q12.6 58.9 14.25 61.05 12.1 59.65 9.7 58.6 L9.7 58.55 9.9 58.35 10.25 58.1 M23.9 68.5 Q23.55 69.65 22.4 70.25 L21.8 70.55 21.85 70.5 22.65 69.85 22.7 69.75 23.9 68.5 M-1.35 77.45 L-1.7 77.3 -2.85 77.25 -3.2 76.75 -1.35 77.45 M7.05 63.05 L8.15 63.7 7.2 64.85 6.95 64.8 5.1 64.5 Q4.05 64.65 4.0 63.05 L4.1 63.0 Q5.2 62.15 6.65 62.85 L6.7 62.9 7.05 63.05 M-4.2 65.25 L-5.1 66.15 -3.65 66.05 Q-4.15 67.45 -2.45 69.4 L0.1 71.3 -0.75 71.15 -1.65 70.6 -2.3 69.95 Q-5.2 71.15 -7.3 69.2 -8.35 68.3 -7.95 66.9 -7.4 64.85 -5.1 65.15 L-4.2 65.25 M8.5 68.65 Q6.7 69.65 4.8 70.05 L4.8 69.7 Q6.05 68.8 7.35 68.25 8.35 67.8 9.5 67.55 L9.5 67.9 11.25 65.1 11.55 64.4 10.9 64.1 11.65 64.45 11.65 64.2 11.6 64.2 11.75 63.8 Q13.55 64.85 12.85 66.9 L12.15 68.0 11.95 68.1 9.8 68.3 9.25 68.25 8.5 68.65 M4.1 67.0 L3.35 66.95 Q3.2 66.25 3.8 66.1 L4.8 65.25 4.85 65.25 5.0 65.25 5.1 65.25 5.2 65.25 6.35 65.4 6.65 65.65 Q5.7 66.95 4.1 67.0 M-5.4 -38.65 L-5.45 -38.9 -5.3 -38.95 -5.4 -38.65 M-26.2 -11.25 L-26.0 -11.35 Q-26.1 -11.8 -26.35 -11.9 -26.75 -11.5 -26.2 -11.25 M-27.1 -10.1 Q-27.9 -12.35 -30.3 -12.75 L-27.45 -9.7 -27.1 -10.1 M-27.55 -8.55 L-28.05 -8.85 -29.05 -9.1 Q-30.1 -9.1 -30.55 -8.55 L-27.55 -8.55 M-10.25 -17.65 L-11.05 -17.25 -13.85 -16.55 -14.6 -16.5 -15.9 -16.8 -16.95 -17.6 -17.15 -17.85 -17.45 -18.3 -17.45 -18.6 -17.55 -18.75 -17.6 -18.9 -18.1 -20.3 -18.35 -20.95 -18.2 -21.8 -18.15 -22.2 -17.6 -23.15 -17.55 -23.05 Q-17.25 -22.7 -16.8 -22.85 L-16.5 -23.0 -16.05 -23.25 -14.7 -23.45 Q-13.45 -23.15 -12.55 -22.4 L-12.3 -22.15 -14.1 -22.3 -14.15 -22.3 -14.5 -22.15 -14.55 -22.1 Q-15.7 -21.2 -15.9 -19.95 L-16.0 -20.0 -15.9 -19.9 Q-16.05 -19.1 -15.8 -18.1 L-15.3 -17.3 -14.0 -17.25 -13.55 -17.35 Q-13.05 -17.5 -12.55 -17.8 L-12.3 -17.8 -10.45 -17.7 -10.25 -17.65 M-18.9 -20.85 L-18.8 -20.75 -18.7 -20.6 -18.9 -20.85 M-10.95 -14.65 L-10.3 -15.2 -11.0 -14.6 -10.95 -14.65 M-11.3 3.85 Q-12.65 4.75 -13.15 6.65 -13.65 8.8 -12.75 10.85 L-12.65 11.15 -13.15 10.8 -14.15 9.15 Q-16.1 6.05 -18.65 3.2 L-17.85 3.2 Q-16.7 3.15 -16.75 2.05 L-16.6 1.45 Q-16.65 1.05 -16.85 0.8 -15.55 1.5 -13.9 1.8 L-13.65 2.0 -13.85 1.9 -14.15 1.95 -15.05 2.15 -15.8 2.85 -16.1 3.5 Q-16.75 4.8 -15.9 5.85 L-15.85 6.05 Q-15.3 7.2 -14.0 6.75 -13.6 6.45 -13.8 5.95 -13.9 5.6 -14.1 5.4 L-13.4 4.55 -12.9 3.55 Q-12.7 2.85 -13.05 2.4 L-11.3 3.85 M-17.8 14.9 Q-17.5 16.15 -16.8 17.25 -15.55 19.25 -13.05 20.4 L-12.95 20.6 -12.3 21.7 -11.8 22.2 -11.4 22.6 -11.45 22.3 -11.6 21.55 -11.7 21.25 Q-12.2 20.15 -13.05 19.25 -15.3 18.5 -16.65 16.8 L-17.8 14.9 M-17.5 24.7 L-17.45 24.7 -17.3 25.95 -17.4 25.8 Q-17.75 25.25 -17.5 24.7 M-9.7 22.9 L-9.7 22.85 -9.75 22.9 -9.7 22.95 -9.7 22.9 M-18.85 13.0 Q-19.15 12.1 -20.05 11.65 -19.9 12.75 -18.85 13.0 M-30.25 3.45 L-30.35 4.1 Q-30.6 5.15 -31.15 6.1 L-31.4 6.35 -31.4 6.45 -31.55 8.2 -31.55 8.3 -31.4 8.2 -31.4 8.1 -31.3 6.35 Q-30.95 6.1 -30.9 5.65 L-30.8 5.55 Q-30.0 4.65 -30.15 3.4 L-30.25 3.45 M-27.4 32.3 L-27.3 32.4 -27.2 32.8 -27.2 32.85 -27.35 33.15 -27.4 32.3 M-20.6 29.15 L-20.65 29.2 -20.7 29.0 -20.65 29.1 -20.6 29.15 M-18.9 51.85 L-18.95 51.7 -18.9 51.75 -18.9 51.85" fill="#999933" fill-rule="evenodd" stroke="none"/>
    <path d="M-5.1 -42.15 L-4.5 -42.5 -4.05 -42.25 Q-3.75 -41.95 -4.0 -41.3 L-4.15 -41.05 Q-4.4 -39.85 -5.45 -39.15 L-5.45 -38.9 -5.4 -38.65 -5.35 -38.25 -5.3 -38.1 -4.3 -37.4 -4.0 -36.8 -3.8 -36.85 -3.15 -36.9 -2.75 -37.0 -2.7 -37.0 Q-1.55 -37.15 -1.1 -36.25 L-0.85 -36.1 -0.1 -36.15 3.35 -36.0 3.45 -35.95 3.65 -35.85 4.3 -35.45 4.45 -34.9 4.35 -34.85 4.15 -34.65 3.75 -34.45 3.2 -34.75 2.65 -34.8 0.0 -34.6 -1.2 -34.55 -1.6 -34.75 Q-2.05 -35.2 -2.0 -35.95 L-1.95 -36.1 -1.95 -36.2 -2.05 -36.2 -3.15 -36.05 -3.4 -35.95 -3.5 -35.95 -3.85 -35.85 -3.85 -35.8 Q-3.95 -34.8 -4.55 -33.95 -5.0 -33.45 -5.7 -33.65 -6.9 -33.05 -8.25 -32.65 L-8.6 -32.55 -9.5 -32.05 -9.9 -31.75 -10.15 -31.35 -10.2 -31.3 -10.35 -31.3 -10.4 -31.35 -10.35 -31.65 -10.35 -31.8 -10.25 -31.95 -10.2 -32.05 Q-8.95 -33.5 -7.0 -33.95 L-6.6 -34.15 -5.6 -34.8 Q-5.3 -35.35 -5.3 -36.0 L-5.3 -36.15 -6.6 -37.2 -6.75 -37.4 -6.85 -37.65 -6.95 -38.8 -6.95 -38.9 Q-7.05 -40.25 -5.85 -41.05 L-5.45 -41.3 -5.1 -42.15 M9.35 -23.25 Q10.0 -24.85 11.7 -25.65 L12.6 -25.3 12.6 -25.25 Q13.65 -24.45 13.55 -23.15 L13.2 -22.25 12.2 -21.45 Q10.95 -21.1 9.95 -21.85 9.3 -22.35 9.35 -23.2 L9.35 -23.25" fill="#ff0000" fill-rule="evenodd" stroke="none"/>
    <path d="M16.05 -36.65 L15.85 -36.65 15.75 -36.65 14.65 -38.5 15.2 -39.05 15.3 -39.05 15.65 -39.05 16.5 -38.9 17.25 -38.7 17.65 -38.25 17.75 -38.1 17.4 -37.4 16.65 -36.65 16.05 -36.65 M15.45 -35.15 L16.7 -35.45 Q18.0 -34.7 17.65 -32.55 L17.3 -31.7 14.55 -32.0 14.55 -32.15 Q14.15 -33.6 15.0 -35.05 L15.45 -35.15 M18.05 -17.6 L15.65 -15.35 15.55 -15.25 15.45 -15.15 Q12.1 -14.3 9.3 -16.0 6.8 -17.75 6.65 -20.75 6.8 -23.5 8.25 -25.75 L9.0 -25.35 9.55 -25.15 9.7 -25.3 Q7.3 -22.4 8.45 -18.65 10.0 -15.95 13.25 -16.25 16.4 -17.1 17.35 -20.4 18.05 -23.35 16.2 -25.5 L16.15 -25.6 16.05 -25.65 Q15.0 -26.65 13.6 -26.75 14.25 -28.05 14.0 -29.45 L13.5 -30.85 13.45 -30.85 13.7 -30.85 14.2 -30.9 17.75 -30.45 18.75 -29.95 18.75 -29.8 Q18.85 -27.15 16.75 -25.65 18.3 -24.35 19.2 -22.25 L19.3 -21.65 Q19.3 -19.9 18.75 -18.4 L18.05 -17.6 M37.3 60.85 L37.3 60.8 37.15 61.3 37.15 61.35 39.3 60.3 39.45 60.6 40.45 62.4 40.9 63.2 41.15 63.85 41.15 64.4 41.15 64.45 40.45 65.1 39.05 65.85 38.95 65.8 38.9 65.8 38.0 64.4 37.35 63.25 36.8 62.1 36.8 61.85 Q36.8 61.2 37.3 60.85 M32.8 65.45 L32.7 65.35 36.45 62.1 36.5 62.1 35.7 63.05 35.8 63.4 Q36.05 64.35 36.6 65.3 L36.8 65.7 36.95 66.0 Q37.4 67.2 36.0 67.8 34.4 68.8 33.95 67.3 L33.75 66.75 32.95 65.55 32.8 65.45 M41.6 58.45 Q43.15 59.7 43.8 61.9 L43.3 62.0 42.0 60.25 Q41.2 59.4 41.6 58.45 M30.8 69.95 L30.3 69.15 29.8 68.4 29.8 68.15 Q30.05 66.95 31.3 66.4 L32.15 65.85 32.25 65.85 Q31.9 66.4 32.35 67.2 L32.5 67.45 33.05 69.3 33.0 69.35 32.85 69.6 32.65 69.85 30.8 69.95 M-51.9 -15.45 L-51.65 -15.4 -51.7 -15.6 -51.15 -16.2 -50.5 -16.85 -50.35 -17.0 -50.1 -17.05 -48.25 -17.35 Q-48.05 -16.7 -48.1 -15.75 -48.15 -14.5 -47.55 -13.3 L-45.6 -9.7 -44.9 -8.35 -40.95 -3.25 -40.0 -1.95 -39.9 -1.8 -39.9 -1.7 -40.15 -1.55 Q-43.7 -3.6 -46.25 -6.55 L-46.15 -5.9 -46.15 -5.05 -45.95 -4.6 Q-46.1 -4.95 -46.55 -4.9 L-46.65 -4.85 Q-46.8 -5.35 -47.3 -5.45 -48.6 -3.3 -49.25 -0.85 L-50.1 -0.45 -51.55 0.0 -50.9 -1.35 -50.15 -3.55 -49.9 -4.35 -48.75 -7.25 -48.65 -7.65 Q-48.65 -8.35 -49.35 -8.25 L-49.4 -8.2 -49.3 -8.4 -49.55 -8.85 Q-51.9 -6.3 -52.8 -2.8 -53.2 -2.0 -53.0 -1.45 -53.6 -1.45 -53.5 -0.9 L-53.35 -0.45 Q-53.1 -0.15 -52.7 0.0 L-54.05 -0.3 -56.0 -4.6 Q-55.8 -10.85 -51.9 -15.45 M-48.15 2.55 L-48.5 3.35 -48.3 2.85 -48.15 2.55 M-46.05 5.95 L-46.0 5.95 -46.05 5.95 M-43.65 1.9 L-44.0 3.1 -44.4 4.75 -44.6 5.4 -44.75 6.0 -45.15 6.7 -44.85 6.35 -44.15 3.5 -43.65 1.9 M-48.2 -0.75 L-48.5 0.3 -48.9 1.45 -48.2 -0.75 M-21.1 71.35 Q-20.2 71.6 -19.75 72.55 L-19.45 72.9 -18.95 73.35 -18.95 73.4 -19.5 73.45 -19.65 73.9 -19.65 73.95 Q-19.75 75.45 -20.6 76.05 -21.95 76.5 -23.05 75.8 -22.9 73.95 -22.1 72.65 L-21.1 71.35 M-18.1 74.65 Q-16.35 75.15 -15.05 76.5 L-14.85 76.9 -15.5 76.65 Q-15.65 77.65 -16.55 77.5 L-18.2 77.45 Q-18.85 76.6 -18.45 75.85 L-18.4 75.7 -18.1 74.65 M-35.0 67.6 L-33.7 65.7 Q-33.2 65.85 -32.5 66.25 -31.95 66.6 -32.2 67.35 L-33.0 68.95 -34.4 71.35 -36.35 70.15 Q-36.2 68.85 -35.25 67.9 L-35.15 67.8 -35.0 67.6 M-30.65 69.85 L-30.0 68.05 -28.7 68.35 -27.5 68.4 -28.15 70.15 -29.75 73.15 -32.0 72.3 -31.85 72.15 -30.65 69.85 M-26.3 71.0 L-26.0 69.75 Q-24.35 69.95 -23.05 71.0 -23.75 71.8 -24.05 73.1 L-24.1 73.45 -24.1 73.5 -24.15 73.65 Q-24.4 75.35 -26.45 74.4 -27.2 74.5 -27.5 73.9 L-26.3 71.0 M-39.2 67.8 Q-38.95 65.5 -36.95 64.2 -37.45 66.15 -38.6 67.8 L-39.2 67.8" fill="#999999" fill-rule="evenodd" stroke="none"/>
    <path d="M8.25 -25.75 L8.75 -26.55 8.8 -26.6 Q10.75 -29.25 13.45 -30.85 L13.5 -30.85 14.0 -29.45 Q14.25 -28.05 13.6 -26.75 L12.85 -26.75 Q11.0 -26.6 9.8 -25.4 L9.75 -25.35 9.7 -25.3 9.55 -25.15 9.0 -25.35 8.25 -25.75 M-53.0 -1.45 L-52.25 -0.8 -49.4 -8.2 -49.35 -8.25 Q-48.65 -8.35 -48.65 -7.65 L-48.75 -7.25 -49.9 -4.35 -50.15 -3.55 -50.9 -1.35 -51.55 0.0 -52.7 0.0 Q-53.1 -0.15 -53.35 -0.45 L-53.5 -0.9 Q-53.6 -1.45 -53.0 -1.45 M-46.65 -4.85 L-46.55 -4.9 Q-46.1 -4.95 -45.95 -4.6 L-46.0 -4.35 -46.15 -3.9 -46.75 -2.5 -47.05 -1.55 -47.75 0.9 -47.85 1.2 -47.9 1.35 -48.15 2.45 -48.15 2.55 -48.3 2.85 -48.5 3.35 -48.95 3.9 Q-49.7 4.15 -50.1 3.4 -50.25 3.1 -50.0 2.9 L-49.85 2.8 -49.3 2.95 -48.95 1.6 -48.9 1.45 -48.5 0.3 -48.2 -0.75 -48.15 -0.9 -47.7 -2.15 -46.65 -4.6 -46.65 -4.7 -46.65 -4.85 M-46.65 5.6 L-46.65 5.95 -46.05 5.95 -46.0 5.95 -45.8 5.8 Q-45.0 2.0 -43.3 -1.6 L-43.3 -1.75 Q-42.7 -1.85 -42.65 -1.2 -42.6 -0.95 -42.7 -0.75 L-43.25 0.65 -43.6 1.75 -43.65 1.9 -44.15 3.5 -44.85 6.35 -45.15 6.7 -45.6 6.9 -46.45 7.0 -46.65 6.95 Q-47.25 6.35 -46.8 5.8 L-46.65 5.6" fill="#cccccc" fill-rule="evenodd" stroke="none"/>
    <path d="M11.7 -25.65 L11.75 -25.7 12.0 -25.75 12.85 -25.85 13.5 -25.75 13.55 -25.75 Q15.9 -24.4 15.45 -21.1 15.3 -20.2 14.65 -19.6 12.0 -18.3 9.8 -19.9 L8.95 -20.7 8.9 -21.25 Q8.95 -22.35 9.35 -23.25 L9.35 -23.2 Q9.3 -22.35 9.95 -21.85 10.95 -21.1 12.2 -21.45 L13.2 -22.25 13.55 -23.15 Q13.65 -24.45 12.6 -25.25 L12.6 -25.3 11.7 -25.65 M36.6 14.05 Q36.3 13.85 36.0 13.8 L36.65 14.0 36.6 14.05 M29.55 28.0 L29.45 27.9 29.65 27.55 29.6 27.65 29.55 28.0 M-32.4 14.3 L-32.35 14.35 -32.45 14.35 -32.4 14.3 M-32.55 18.9 L-32.6 18.9 -32.55 18.9 M-22.3 28.05 L-22.05 28.25 -21.65 28.75 -21.75 28.8 Q-21.9 28.3 -22.35 28.1 L-22.3 28.05 M-29.7 20.85 L-29.7 20.9 -29.75 20.9 -29.7 20.85 M-31.5 20.85 L-31.6 20.6 -31.4 20.75 -31.5 20.85 M-28.7 25.0 L-28.65 25.0 -29.2 25.4 -28.7 25.0" fill="#cc0000" fill-rule="evenodd" stroke="none"/>
    <path d="M13.55 -25.75 Q15.45 -25.5 16.35 -23.75 17.4 -20.45 15.05 -17.95 13.2 -16.8 10.9 -17.5 9.15 -18.7 8.95 -20.7 L9.8 -19.9 Q12.0 -18.3 14.65 -19.6 15.3 -20.2 15.45 -21.1 15.9 -24.4 13.55 -25.75 M-31.55 13.3 L-31.95 13.55 -32.15 13.75 -31.95 13.45 -31.7 13.25 -31.55 13.3 M-32.6 17.35 L-32.6 17.15 -32.55 17.15 -32.6 17.35 M-28.85 18.55 L-28.85 18.5 -28.85 18.55" fill="#990000" fill-rule="evenodd" stroke="none"/>
    <path d="M7.2 -2.2 L7.05 -2.25 Q6.0 -3.95 5.8 -5.4 L8.4 -8.05 Q9.55 -9.4 11.75 -9.1 L12.6 -9.1 Q12.45 -6.65 10.9 -5.3 10.3 -6.7 8.9 -7.55 7.8 -5.3 7.5 -2.95 8.35 -3.35 8.65 -4.85 8.9 -6.35 9.95 -4.45 9.2 -3.0 10.4 -2.85 11.55 -2.75 12.2 -2.0 L12.1 -1.9 11.8 -1.7 11.65 -1.5 Q11.05 -2.85 9.3 -2.9 L8.6 -2.4 Q8.15 -2.05 8.25 -1.4 L7.2 -2.2 M13.75 -7.5 L13.25 -9.1 15.3 -9.65 Q16.5 -9.8 16.1 -8.05 16.3 -5.8 15.05 -4.1 L14.5 -5.45 15.1 -5.6 15.45 -5.8 Q16.0 -6.25 15.8 -6.8 L15.65 -7.4 15.55 -7.6 Q15.2 -8.3 14.55 -8.3 13.95 -8.05 13.75 -7.5 M-22.4 -10.0 L-22.3 -9.7 Q-21.9 -9.2 -21.2 -9.45 L-20.8 -9.9 Q-20.3 -10.65 -20.65 -11.45 -20.85 -11.9 -21.3 -11.95 L-20.45 -12.85 Q-19.7 -10.25 -19.6 -7.4 -20.5 -6.6 -21.55 -7.1 L-22.9 -8.05 -22.4 -10.0" fill="#cccc99" fill-rule="evenodd" stroke="none"/>
    <path d="M6.8 -1.55 L6.8 -1.95 7.05 -2.2 7.2 -2.2 8.25 -1.4 Q8.15 -2.05 8.6 -2.4 L9.3 -2.9 Q11.05 -2.85 11.65 -1.5 L11.8 -1.7 12.1 -1.9 12.6 -1.85 12.8 -1.75 12.95 -1.2 11.95 -0.6 11.5 -0.1 11.3 0.2 11.1 0.45 11.05 0.45 11.05 0.7 11.05 3.4 Q11.1 3.9 11.3 4.3 L11.4 5.15 11.4 5.6 11.35 5.6 11.4 5.95 Q11.25 6.9 10.55 7.75 9.8 7.6 9.45 7.25 9.0 6.9 8.95 6.35 8.9 6.05 9.0 5.65 L9.0 5.55 Q9.35 4.1 9.3 2.8 L9.25 2.15 Q8.8 -0.15 6.8 -1.55 M10.7 4.1 Q10.85 3.35 10.05 3.35 9.55 3.8 9.45 4.55 L9.4 5.2 9.65 6.05 10.45 6.1 10.55 5.85 10.55 4.75 10.7 4.1 M9.55 0.85 Q9.55 1.3 9.95 1.35 L10.25 1.0 Q10.45 -0.05 9.85 -0.95 L9.7 -0.95 9.5 -0.8 9.5 -0.7 9.55 0.85" fill="#00ccff" fill-rule="evenodd" stroke="none"/>
    <path d="M17.35 -8.7 L16.85 -8.3 16.85 -6.25 18.05 -6.35 Q18.65 -6.75 18.65 -7.45 L18.35 -8.3 Q18.1 -8.85 17.35 -8.7 M16.95 -10.25 Q18.0 -10.2 18.25 -9.35 L19.05 -7.75 Q19.5 -6.15 18.45 -5.4 L16.35 -3.9 Q17.15 -6.3 16.75 -9.4 L16.95 -10.25 M11.75 -3.95 Q12.2 -5.55 13.05 -6.6 L14.1 -4.25 Q14.1 -3.0 13.05 -2.85 11.6 -2.85 11.75 -3.95 M-16.35 -4.85 L-16.55 -4.95 -16.85 -5.6 -16.55 -5.0 -16.4 -4.9 -16.35 -4.85 M-14.9 -5.15 L-14.85 -4.95 -15.15 -4.75 -14.9 -5.15" fill="#ffcccc" fill-rule="evenodd" stroke="none"/>
    <path d="M17.35 -8.7 Q18.1 -8.85 18.35 -8.3 L18.65 -7.45 Q18.65 -6.75 18.05 -6.35 L16.85 -6.25 16.85 -8.3 17.35 -8.7 M13.75 -7.5 Q13.95 -8.05 14.55 -8.3 15.2 -8.3 15.55 -7.6 L15.65 -7.4 15.8 -6.8 Q16.0 -6.25 15.45 -5.8 L15.1 -5.6 14.5 -5.45 Q14.05 -6.5 13.75 -7.5 M37.05 14.5 L36.95 14.5 37.0 14.35 37.05 14.5 M36.75 14.1 L36.65 14.25 36.6 14.05 36.65 14.0 36.75 14.1 M9.55 0.85 L9.5 -0.7 9.5 -0.8 9.7 -0.95 9.85 -0.95 Q10.45 -0.05 10.25 1.0 L9.95 1.35 Q9.55 1.3 9.55 0.85 M10.7 4.1 L10.55 4.75 10.55 5.85 10.45 6.1 9.65 6.05 9.4 5.2 9.45 4.55 Q9.55 3.8 10.05 3.35 10.85 3.35 10.7 4.1 M32.4 70.45 L32.3 70.15 32.4 70.45 M-21.3 -11.95 Q-20.85 -11.9 -20.65 -11.45 -20.3 -10.65 -20.8 -9.9 L-21.2 -9.45 Q-21.9 -9.2 -22.3 -9.7 L-22.4 -10.0 Q-22.05 -11.05 -21.3 -11.95 M-16.35 -4.85 L-16.4 -4.9 -16.55 -5.0 -16.85 -5.6 -16.75 -6.25 Q-15.7 -8.0 -15.45 -6.95 L-14.9 -5.15 -15.15 -4.75 -16.35 -4.85" fill="#ffffff" fill-rule="evenodd" stroke="none"/>
    <path d="M27.6 9.9 L27.1 9.75 Q26.6 8.95 27.25 8.65 L28.25 7.75 29.0 7.8 Q29.15 7.8 29.3 7.95 28.8 8.6 28.55 9.4 L28.55 9.45 28.3 9.8 28.25 9.8 27.6 9.9 M30.4 8.4 Q31.0 8.25 31.75 8.95 31.6 9.8 30.95 10.55 L30.75 10.5 29.75 10.05 Q29.4 9.8 29.4 9.45 L29.6 8.95 Q29.95 8.45 30.4 8.4 M32.65 9.55 Q33.6 9.75 34.15 10.65 L34.25 10.85 Q33.55 12.2 32.65 12.0 L32.45 11.95 32.4 11.95 32.0 11.75 31.6 11.45 31.65 11.25 Q31.9 10.3 32.65 9.55 M21.3 30.1 L21.9 29.85 22.45 29.75 22.4 30.0 Q21.9 31.9 22.45 33.9 L22.3 33.95 20.7 34.05 20.35 33.9 Q19.4 33.3 19.7 32.35 L19.75 32.15 20.2 30.6 Q20.75 30.3 21.3 30.1 M18.85 32.95 L19.45 34.7 19.5 34.75 18.7 34.95 18.85 32.95 M37.4 17.1 L37.15 16.95 37.4 17.1 37.5 17.15 37.4 17.95 37.3 19.15 37.15 20.5 36.8 21.6 36.65 21.75 36.2 21.8 35.65 21.55 Q36.55 20.9 36.85 19.8 37.4 17.65 35.05 17.65 L34.25 18.25 34.15 18.6 34.25 18.05 34.35 17.65 34.45 16.9 34.4 16.95 34.5 16.8 34.5 16.65 34.6 16.3 34.75 15.85 34.85 15.55 35.2 14.95 35.9 14.7 36.2 14.7 36.65 14.25 36.75 14.1 36.9 14.45 36.95 14.5 37.05 14.5 37.35 16.1 37.4 17.1 M33.45 12.85 L33.45 12.75 Q34.2 11.8 34.8 12.15 L35.4 12.9 35.25 13.4 Q35.0 14.0 34.25 14.3 L33.9 14.4 Q33.45 13.7 33.45 12.9 L33.45 12.85 M33.3 22.2 L33.7 22.05 Q35.25 21.65 35.95 23.35 L35.95 23.4 Q35.75 25.25 34.55 26.3 L34.35 26.45 Q33.8 25.5 32.7 25.25 L32.65 25.2 32.05 24.95 Q31.65 24.6 31.7 24.0 32.0 22.75 33.1 22.25 L33.3 22.2 M30.5 26.4 L31.25 25.65 31.45 25.65 Q32.6 25.65 33.45 26.5 L33.6 27.45 Q33.65 29.8 31.6 31.65 L30.95 32.15 31.0 31.1 Q30.95 30.1 30.5 29.2 31.5 29.7 32.35 28.55 33.55 26.85 31.65 26.25 L30.5 26.4 M26.35 29.1 Q27.2 28.9 27.9 28.4 L28.6 28.55 Q29.45 28.8 29.9 29.7 30.3 31.35 29.55 32.85 L29.5 32.9 Q26.75 34.0 23.75 33.7 L23.7 33.65 23.6 33.55 23.6 33.5 23.15 32.75 23.05 31.4 23.1 31.15 Q23.3 32.05 24.55 32.1 L25.7 31.9 Q26.6 31.6 26.85 30.7 27.2 29.5 26.55 29.05 L26.35 29.1 M-32.15 13.75 L-31.95 13.55 -31.55 13.3 -31.25 13.15 -30.95 13.6 -30.95 13.65 Q-31.65 14.35 -32.35 14.35 L-32.4 14.3 -32.2 13.8 -32.15 13.75 M-32.6 18.9 L-32.6 17.35 -32.55 17.15 Q-32.35 15.9 -31.3 14.9 -30.5 15.35 -30.05 16.1 L-29.55 17.15 -29.5 17.4 -32.55 18.9 -32.6 18.9 M-24.2 31.55 Q-24.1 29.5 -22.3 28.05 L-22.35 28.1 Q-23.85 29.3 -24.1 30.9 L-22.8 31.05 Q-22.05 30.9 -21.8 30.1 -21.6 29.35 -21.75 28.8 L-21.65 28.75 Q-21.0 29.7 -21.0 31.35 -22.5 32.25 -24.2 31.7 L-24.2 31.55 M-28.85 18.5 L-28.85 18.55 Q-28.6 19.5 -28.65 20.65 L-28.7 20.65 -28.8 20.65 -29.7 20.9 -29.7 20.85 -29.35 20.35 Q-28.6 19.05 -29.4 18.55 L-28.85 18.5 M-30.2 21.1 L-30.8 21.6 -30.9 21.6 -31.5 20.85 -31.4 20.75 Q-30.75 21.2 -30.25 21.1 L-30.2 21.1 M-29.25 24.45 L-29.75 24.8 -30.05 24.9 Q-30.6 24.05 -30.45 23.25 L-30.05 22.15 -29.25 21.7 -28.35 21.8 Q-27.95 22.0 -27.65 22.75 L-27.55 22.95 -29.25 24.45 M-28.7 25.0 L-28.15 24.6 -26.95 24.5 -26.8 24.7 -25.5 25.6 -25.95 26.1 -26.8 26.8 -26.9 26.9 -27.5 27.4 -27.45 27.15 Q-27.2 25.3 -28.65 25.0 L-28.7 25.0 M-28.0 28.4 L-28.45 29.4 Q-29.15 29.15 -29.55 28.7 -28.55 29.0 -28.0 28.4 M-23.0 27.55 L-23.05 27.65 Q-24.85 29.25 -25.5 31.25 L-25.7 31.65 Q-26.85 31.2 -27.5 30.2 L-27.65 30.0 Q-27.25 27.75 -25.4 26.7 L-24.6 26.55 -23.7 26.6 Q-22.9 26.85 -23.0 27.55" fill="#00cc00" fill-rule="evenodd" stroke="none"/>
    <path d="M-34.35 15.15 L-34.3 14.6 -33.75 14.45 -33.2 14.2 Q-31.95 13.45 -31.25 12.1 L-30.95 11.8 -30.9 11.95 -30.4 13.05 -30.35 13.15 -30.25 13.35 -29.9 14.2 -28.95 15.9 -28.65 16.35 -28.2 17.15 Q-27.25 19.05 -27.35 21.4 L-27.15 21.8 Q-25.9 24.4 -23.05 25.1 L-22.7 25.15 -22.7 25.35 -22.6 25.6 -22.25 27.5 Q-22.0 27.6 -22.05 28.1 L-22.05 28.25 -22.3 28.05 Q-24.1 29.5 -24.2 31.55 L-24.4 31.85 Q-24.8 32.15 -25.1 31.85 L-27.25 32.4 -27.3 32.4 -27.4 32.3 Q-30.95 30.45 -31.0 26.9 -31.0 23.35 -33.3 20.85 L-33.35 20.75 -33.4 20.65 -33.6 20.0 -33.95 17.4 Q-33.95 17.1 -34.1 16.95 L-34.3 16.7 -34.35 15.15 M30.45 12.4 L29.65 12.1 29.25 11.75 29.2 11.6 Q28.15 11.55 27.4 10.9 L27.25 10.55 Q27.3 10.15 27.6 9.9 L28.25 9.8 28.3 9.8 28.55 10.15 28.3 9.8 28.55 9.45 28.55 9.4 Q28.8 8.6 29.3 7.95 29.15 7.8 29.0 7.8 L29.35 7.65 Q30.4 7.65 30.4 8.4 29.95 8.45 29.6 8.95 L29.4 9.45 Q29.4 9.8 29.75 10.05 L30.75 10.5 30.95 10.55 Q31.6 9.8 31.75 8.95 L31.95 8.8 Q32.7 9.0 32.75 9.6 L32.65 9.55 Q31.9 10.3 31.65 11.25 L31.25 11.25 31.4 11.3 31.6 11.4 31.6 11.45 32.0 11.75 32.4 11.95 32.45 11.95 32.65 12.2 32.65 12.0 Q33.55 12.2 34.25 10.85 L34.15 10.65 34.7 10.85 Q35.4 10.95 35.9 11.5 L36.5 11.85 37.3 12.3 37.2 12.4 37.4 12.75 37.5 12.9 Q38.4 14.2 38.6 15.75 L38.6 18.5 38.6 18.6 38.4 19.45 38.15 20.25 38.15 20.3 38.1 20.4 38.1 20.6 37.65 23.75 37.65 23.8 37.6 23.85 37.4 24.2 37.15 24.6 36.7 26.05 36.25 26.45 Q35.0 27.85 34.35 29.45 L34.15 29.95 33.75 30.8 Q32.85 32.35 31.0 33.3 28.65 34.55 26.0 35.0 L22.7 35.45 21.85 35.8 21.55 35.75 21.45 35.85 20.95 35.75 20.7 35.6 20.6 35.6 20.2 35.45 20.2 35.4 19.65 34.75 19.45 34.7 18.85 32.95 Q18.8 32.25 19.5 32.1 L19.75 32.15 19.7 32.35 Q19.4 33.3 20.35 33.9 L20.7 34.05 22.3 33.95 22.45 33.9 Q21.9 31.9 22.4 30.0 L22.45 29.75 21.9 29.85 21.3 30.1 21.45 29.7 Q21.65 29.35 22.05 29.15 L23.0 28.7 Q26.4 28.65 29.25 26.35 30.85 24.1 31.8 21.55 32.45 19.8 33.45 18.25 33.2 18.15 33.3 17.8 L33.4 17.45 33.45 16.85 33.65 15.65 Q33.4 15.4 33.4 14.95 33.05 13.2 31.5 12.7 L31.25 12.65 30.45 12.4 M37.5 17.15 L37.4 17.1 37.35 16.1 37.05 14.5 37.0 14.35 36.95 14.5 36.9 14.45 36.75 14.1 36.65 14.0 36.0 13.8 Q36.3 13.85 36.6 14.05 L36.65 14.25 36.2 14.7 35.9 14.7 35.2 14.95 34.85 15.55 34.75 15.85 34.6 16.3 34.4 16.2 34.35 16.1 34.4 16.2 34.45 16.5 34.4 16.95 34.45 16.9 34.35 17.65 34.25 18.05 34.15 18.6 34.15 18.7 34.1 18.8 34.0 19.0 34.0 19.15 33.8 19.55 33.75 19.6 33.7 19.6 33.4 20.5 33.3 20.9 33.2 21.1 33.6 21.1 35.65 21.55 36.2 21.8 36.65 21.75 36.8 21.6 37.15 20.5 37.3 19.15 37.4 17.95 37.5 17.15 M37.0 12.65 L37.05 12.5 37.1 12.5 36.95 12.5 37.0 12.65 M33.45 12.9 Q33.45 13.7 33.9 14.4 L34.25 14.3 Q35.0 14.0 35.25 13.4 L35.4 12.9 34.8 12.15 Q34.2 11.8 33.45 12.75 L33.45 12.85 33.4 12.85 33.45 12.9 M33.3 22.2 L33.1 22.25 Q32.0 22.75 31.7 24.0 31.65 24.6 32.05 24.95 L32.65 25.2 32.7 25.25 Q33.8 25.5 34.35 26.45 L34.55 26.3 Q35.75 25.25 35.95 23.4 L35.95 23.35 Q35.25 21.65 33.7 22.05 L33.3 22.2 M30.5 29.2 Q30.95 30.1 31.0 31.1 L30.95 32.15 31.6 31.65 Q33.65 29.8 33.6 27.45 L33.45 26.5 Q32.6 25.65 31.45 25.65 L31.25 25.65 30.5 26.4 29.65 27.55 29.45 27.9 29.55 28.0 29.5 28.0 29.6 28.05 Q30.15 28.55 30.5 29.2 M23.7 33.65 L23.75 33.7 Q26.75 34.0 29.5 32.9 L29.55 32.85 Q30.3 31.35 29.9 29.7 29.45 28.8 28.6 28.55 L27.9 28.4 Q27.2 28.9 26.35 29.1 L26.1 29.15 25.85 29.2 25.2 29.2 Q24.4 29.2 23.95 29.65 23.4 30.05 23.2 30.85 L23.1 31.15 23.05 31.4 23.15 32.75 23.6 33.5 23.6 33.55 23.55 33.65 23.7 33.65 M-31.55 13.3 L-31.7 13.25 -31.95 13.45 -32.15 13.75 -32.2 13.8 -32.4 14.3 -32.45 14.35 -32.35 14.35 Q-31.65 14.35 -30.95 13.65 L-30.95 13.6 -31.25 13.15 -31.55 13.3 M-32.6 17.35 L-32.6 18.9 -32.55 18.9 -29.5 17.4 -29.55 17.15 -30.05 16.1 Q-30.5 15.35 -31.3 14.9 -32.35 15.9 -32.55 17.15 L-32.6 17.15 -32.6 17.35 M-28.85 18.55 L-28.85 18.5 -29.4 18.55 Q-30.4 18.65 -31.15 19.3 L-31.5 19.65 -31.65 19.8 -31.65 20.05 -31.6 20.6 -31.5 20.85 -30.9 21.6 -30.8 21.6 -30.2 21.1 -29.75 20.9 -29.7 20.9 -28.8 20.65 -28.7 20.65 -28.65 20.65 Q-28.6 19.5 -28.85 18.55 M-29.25 24.45 L-27.55 22.95 -27.65 22.75 Q-27.95 22.0 -28.35 21.8 L-29.25 21.7 -30.05 22.15 -30.45 23.25 Q-30.6 24.05 -30.05 24.9 L-29.75 24.8 -29.95 24.85 -29.25 24.45 M-27.5 27.4 L-26.9 26.9 -26.8 26.8 -25.95 26.1 -25.5 25.6 -26.8 24.7 -26.95 24.5 -28.15 24.6 -28.7 25.0 -29.2 25.4 -29.4 25.6 -29.5 25.8 -29.65 26.0 -29.75 26.25 -29.85 26.35 -29.9 26.45 -30.0 26.8 -30.1 27.15 -30.15 27.7 -29.55 28.7 Q-29.15 29.15 -28.45 29.4 L-28.0 28.4 -27.5 27.4 M-23.0 27.55 Q-22.9 26.85 -23.7 26.6 L-24.6 26.55 -25.4 26.7 Q-27.25 27.75 -27.65 30.0 L-27.5 30.2 Q-26.85 31.2 -25.7 31.65 L-25.5 31.25 Q-24.85 29.25 -23.05 27.65 L-23.0 27.55" fill="#006600" fill-rule="evenodd" stroke="none"/>
    <path d="M37.5 17.15 L37.4 17.1 37.15 16.95 37.4 17.1 37.5 17.15" fill="#660000" fill-rule="evenodd" stroke="none"/>
    <path d="M34.15 18.6 L34.25 18.25 35.05 17.65 Q37.4 17.65 36.85 19.8 36.55 20.9 35.65 21.55 L33.6 21.1 33.2 21.1 33.3 20.9 33.4 20.5 33.7 19.6 33.75 19.6 33.8 19.55 34.0 19.15 34.0 19.0 34.1 18.8 34.15 18.7 34.15 18.6 M30.5 29.2 Q30.15 28.55 29.6 28.05 L29.55 28.0 29.6 27.65 29.65 27.55 30.5 26.4 31.65 26.25 Q33.55 26.85 32.35 28.55 31.5 29.7 30.5 29.2 M23.1 31.15 L23.2 30.85 Q23.4 30.05 23.95 29.65 24.4 29.2 25.2 29.2 L25.85 29.2 26.1 29.15 26.35 29.1 26.55 29.05 Q27.2 29.5 26.85 30.7 26.6 31.6 25.7 31.9 L24.55 32.1 Q23.3 32.05 23.1 31.15 M-29.4 18.55 Q-28.6 19.05 -29.35 20.35 L-29.7 20.85 -29.75 20.9 -30.2 21.1 -30.25 21.1 Q-30.75 21.2 -31.4 20.75 L-31.6 20.6 -31.65 20.05 -31.65 19.8 -31.5 19.65 -31.15 19.3 Q-30.4 18.65 -29.4 18.55 M-28.65 25.0 Q-27.2 25.3 -27.45 27.15 L-27.5 27.4 -28.0 28.4 Q-28.55 29.0 -29.55 28.7 L-30.15 27.7 -30.1 27.15 -30.0 26.8 -29.9 26.45 -29.85 26.35 -29.75 26.25 -29.65 26.0 -29.5 25.8 -29.4 25.6 -29.2 25.4 -28.65 25.0 M-21.75 28.8 Q-21.6 29.35 -21.8 30.1 -22.05 30.9 -22.8 31.05 L-24.1 30.9 Q-23.85 29.3 -22.35 28.1 -21.9 28.3 -21.75 28.8" fill="#66ff99" fill-rule="evenodd" stroke="none"/>
    <path d="M-19.8 -30.65 L-18.35 -30.95 -18.2 -31.0 Q-16.4 -30.95 -15.65 -29.25 -15.25 -28.3 -16.25 -27.8 L-19.35 -27.5 -19.5 -27.35 -19.8 -27.35 -20.55 -26.9 Q-20.9 -26.2 -20.7 -25.75 L-20.7 -25.65 -20.65 -25.6 Q-20.75 -24.6 -21.2 -23.6 -21.85 -22.3 -22.75 -21.1 -22.85 -21.0 -22.95 -21.0 L-23.85 -21.0 -24.1 -21.25 -24.25 -21.4 -23.7 -26.15 Q-23.3 -29.4 -20.3 -30.6 L-19.8 -30.65 M-16.25 -34.85 L-14.9 -37.75 Q-14.4 -38.6 -13.3 -38.7 L-13.3 -38.75 Q-12.05 -38.2 -11.7 -37.4 -11.35 -36.4 -12.35 -34.95 L-14.45 -32.5 Q-16.6 -32.7 -16.65 -34.1 L-16.25 -34.85 M12.35 18.15 Q13.8 18.15 14.6 19.45 15.3 18.8 16.3 18.65 16.9 18.7 17.05 19.2 L17.1 19.45 Q16.15 21.0 14.7 20.9 L14.4 21.25 Q12.35 23.4 9.55 24.3 6.8 25.2 6.75 22.6 6.7 21.05 7.85 20.05 L7.85 20.0 8.15 19.95 8.25 19.9 9.15 19.25 9.25 19.15 Q9.7 18.9 10.2 18.7 L10.6 18.65 11.9 18.45 12.15 18.4 12.35 18.15 M1.5 33.45 Q-1.15 34.5 -1.7 32.2 -1.9 31.4 -1.1 31.15 L0.85 30.6 Q3.5 30.55 2.35 32.7 2.1 33.25 1.5 33.45 M-14.5 -28.2 Q-10.85 -28.15 -12.3 -25.45 -12.6 -24.95 -13.3 -24.95 -16.65 -25.05 -15.45 -27.6 -15.2 -28.25 -14.5 -28.2 M-36.25 -19.75 L-35.5 -19.85 Q-32.9 -18.55 -35.1 -15.95 L-36.5 -13.6 Q-36.75 -12.95 -37.45 -13.1 -39.55 -13.55 -38.85 -15.8 -38.15 -18.2 -36.25 -19.75 M-6.55 33.6 L-6.5 33.15 -6.0 32.7 -5.75 32.6 -5.1 32.4 Q-1.8 32.8 -2.7 36.05 -3.7 39.55 -7.15 40.25 L-8.15 40.3 Q-9.15 40.1 -9.1 38.75 -9.05 37.0 -7.45 35.95 L-7.4 34.8 -6.9 34.3 -6.55 33.6 M-13.65 42.75 Q-12.25 43.05 -11.7 44.55 L-11.55 44.8 -6.85 47.5 Q-6.4 47.7 -6.3 48.2 L-5.9 48.05 -5.9 48.0 Q-5.05 47.95 -4.5 48.4 L-4.35 48.55 -4.4 49.2 -4.5 49.4 Q-5.5 50.25 -6.5 49.25 L-6.5 49.2 Q-7.2 50.45 -8.95 50.55 -10.85 50.7 -12.5 49.65 -16.1 50.85 -17.3 47.9 L-17.4 47.6 -17.5 47.1 -17.55 47.0 -17.6 45.8 Q-17.5 44.55 -16.55 43.6 -15.5 42.6 -14.15 42.65 L-13.65 42.75 M-15.8 63.25 L-15.9 63.4 Q-17.6 63.45 -17.95 62.4 L-17.9 62.35 Q-20.55 63.35 -22.1 60.9 L-22.4 59.75 -23.4 59.55 -24.4 59.2 Q-24.4 58.55 -24.7 57.7 L-23.55 56.75 -22.85 55.75 -22.35 54.55 -22.3 54.3 -22.2 53.55 -22.15 53.6 -21.9 53.95 -21.85 54.1 -21.75 54.25 -21.5 54.75 -21.45 54.85 Q-18.4 55.0 -17.9 57.95 L-17.85 58.6 Q-17.0 59.4 -17.05 60.4 L-17.1 59.8 Q-14.35 60.65 -15.8 63.25" fill="#99ffcc" fill-rule="evenodd" stroke="none"/>
    <path d="M-33.9 82.65 L-33.4 82.7 Q-32.75 81.8 -33.7 81.0 -34.45 80.4 -34.5 79.4 -34.65 76.75 -35.55 74.45 L-34.65 74.85 Q-33.55 75.8 -32.0 76.15 L-23.45 79.65 -20.1 80.5 Q-13.95 81.4 -7.7 80.75 -4.15 80.95 -0.95 82.55 6.8 84.95 14.85 82.95 L16.0 82.5 22.15 78.9 23.95 77.85 26.25 76.2 28.8 75.9 30.3 75.55 Q32.65 74.9 34.2 76.65 35.15 77.65 35.5 78.95 L35.55 79.15 35.3 81.4 34.8 82.25 Q33.35 84.25 32.25 86.5 31.9 87.15 31.85 87.85 L30.65 87.9 30.15 87.7 22.55 88.25 16.85 89.45 Q12.9 90.4 9.3 92.1 L8.9 92.1 Q9.2 91.75 9.65 91.55 L12.5 89.65 Q15.55 86.7 18.75 84.35 15.3 84.65 12.7 87.25 10.0 89.85 7.05 91.5 4.85 91.9 2.85 91.5 L-1.2 91.2 Q-6.8 88.1 -12.6 85.9 -16.3 85.35 -19.7 84.2 L-19.85 84.35 Q-18.45 86.1 -16.4 86.5 L-12.3 87.5 Q-9.7 88.4 -7.25 89.85 -4.9 91.1 -2.2 91.75 L-4.65 91.6 -7.8 90.4 -13.8 88.65 Q-16.8 87.8 -19.9 87.4 L-22.7 87.05 Q-24.45 86.45 -26.25 86.15 L-28.05 85.8 -27.3 85.95 -27.25 85.85 Q-26.35 84.0 -27.1 82.15 L-27.5 80.85 Q-28.1 78.8 -30.05 78.7 L-30.8 78.95 -31.2 79.3 Q-31.75 80.6 -31.3 82.05 -31.15 82.75 -31.15 83.4 L-31.15 83.7 -32.15 83.2 -33.65 82.95 -33.9 82.65 M26.8 84.65 L26.8 84.25 Q21.8 84.4 17.55 87.1 20.0 87.2 22.1 85.95 24.25 84.7 26.8 84.65 M-8.35 81.9 L-8.9 82.0 Q-9.55 82.15 -9.75 82.85 L-9.9 83.55 -9.9 83.75 -9.9 83.8 -9.9 83.9 -9.6 84.4 Q-9.3 84.8 -8.5 84.9 -8.2 85.35 -7.65 85.6 L-6.6 86.1 -4.7 87.2 -3.4 87.9 Q-2.0 88.65 -1.05 87.6 L-1.05 87.35 -3.3 85.0 -4.5 83.85 Q-6.05 82.1 -8.35 81.9" fill="#003333" fill-rule="evenodd" stroke="none"/>
    <path d="M-33.4 20.65 L-33.35 20.75 -33.3 20.85 -33.35 20.8 -33.4 20.65 M-28.95 45.7 L-28.65 45.45 -28.3 45.25 Q-27.35 45.3 -27.05 46.25 -26.9 47.35 -27.85 48.05 -28.9 48.3 -29.5 47.5 L-29.5 47.45 -29.45 46.65 -29.15 45.9 -29.0 45.75 -28.95 45.7" fill="#99cc00" fill-rule="evenodd" stroke="none"/>
    <path d="M-31.15 83.7 L-31.15 83.4 Q-31.15 82.75 -31.3 82.05 -31.75 80.6 -31.2 79.3 L-30.8 78.95 -30.05 78.7 Q-28.1 78.8 -27.5 80.85 L-27.1 82.15 Q-26.35 84.0 -27.25 85.85 L-27.3 85.95 -28.05 85.8 -30.3 85.15 Q-30.45 84.15 -31.15 83.7 M-8.35 81.9 Q-6.05 82.1 -4.5 83.85 L-3.3 85.0 -1.05 87.35 -1.05 87.6 Q-2.0 88.65 -3.4 87.9 L-4.7 87.2 -6.6 86.1 -7.65 85.6 Q-8.2 85.35 -8.5 84.9 -9.3 84.8 -9.6 84.4 L-9.9 83.9 -9.9 83.8 -9.9 83.75 -9.9 83.55 -9.75 82.85 Q-9.55 82.15 -8.9 82.0 L-8.35 81.9" fill="#606060" fill-rule="evenodd" stroke="none"/>
  </g>
</svg>
