<?xml version="1.0" encoding="UTF-8" standalone="no"?>
<svg xmlns:xlink="http://www.w3.org/1999/xlink" height="126.65px" width="30.35px" xmlns="http://www.w3.org/2000/svg">
  <g transform="matrix(1.0, 0.0, 0.0, 1.0, 19.85, 7.45)">
    <path d="M3.2 -5.8 L1.3 -6.2 1.2 -6.15 1.1 -6.15 0.7 -6.0 0.6 -5.95 -0.4 -5.35 -1.05 -4.7 -1.4 -3.95 -0.9 -3.4 -0.65 -3.3 0.05 -3.0 -0.9 -3.35 -1.35 -3.5 -1.95 -3.15 -2.35 -2.6 -2.4 -2.6 -2.5 -2.65 Q-4.7 -0.15 -5.05 3.4 L-5.05 3.65 -5.1 3.95 -5.1 4.3 -5.15 4.65 -5.15 5.05 -5.15 6.3 -5.15 6.55 -5.15 6.7 -5.15 6.85 -5.15 7.25 -5.1 8.0 -5.0 8.95 -2.8 8.35 -1.35 8.45 -1.15 8.4 -0.9 8.2 0.05 8.55 2.2 8.85 2.7 8.85 Q4.0 8.2 4.4 6.75 L4.8 4.4 Q4.95 3.1 4.5 2.15 4.0 1.05 2.7 0.45 L2.2 -0.45 4.5 1.6 6.15 3.6 6.25 4.75 Q6.6 3.7 6.3 2.6 L6.1 1.65 5.95 1.2 5.8 0.4 5.95 1.15 6.0 1.4 6.0 1.5 6.05 1.6 2.7 -1.3 Q3.3 -1.5 3.7 -2.15 4.5 -3.35 4.1 -4.65 L3.9 -5.25 3.85 -5.35 3.8 -5.45 3.35 -5.8 3.2 -5.8 M3.5 -7.25 Q5.85 -5.8 6.5 -3.0 6.8 -0.85 7.4 1.3 7.95 3.4 7.65 5.7 8.05 12.45 6.85 19.1 5.6 25.7 7.65 32.2 7.9 35.35 7.3 38.55 6.7 41.7 6.75 44.95 5.5 48.6 6.0 52.5 7.8 55.9 8.8 60.0 9.8 64.0 7.95 67.95 5.55 70.65 6.55 73.6 7.5 76.55 7.15 79.9 6.95 83.75 6.2 87.75 5.5 91.7 8.25 94.85 8.4 96.05 8.0 97.15 7.6 98.15 8.0 99.15 9.3 101.25 10.15 103.65 10.95 106.1 9.8 108.6 8.15 109.9 6.2 110.65 4.25 111.35 2.65 112.9 -0.15 116.9 -4.5 118.0 -8.8 119.1 -13.4 119.1 -17.1 119.55 -19.65 117.65 -20.35 115.3 -18.7 113.95 L-15.35 112.15 Q-14.95 110.85 -13.65 110.25 -12.35 109.6 -11.45 108.6 -9.8 107.1 -7.75 106.7 L-1.15 101.8 Q2.1 99.2 3.15 95.4 L2.25 82.1 Q0.85 81.4 0.9 79.75 2.0 78.45 1.4 76.9 -0.65 76.6 -0.75 74.9 L-0.9 71.55 Q-1.05 70.65 -0.25 70.2 0.6 69.7 -0.2 68.95 -1.85 68.85 -2.25 67.25 L-2.15 64.7 Q-2.15 63.45 -0.6 63.1 -1.0 62.25 -1.95 62.3 L-2.3 59.85 Q-2.5 58.7 -1.65 58.0 L-1.25 57.55 Q-1.65 55.5 -1.05 53.45 -0.45 51.35 -2.1 49.7 -2.8 47.4 -2.1 45.45 -1.4 43.45 -3.65 41.8 -5.3 38.25 -5.8 34.0 -6.35 29.7 -4.35 26.1 -6.8 23.15 -6.95 19.25 -7.15 15.25 -5.7 11.9 -6.9 8.0 -6.65 3.9 -6.45 -0.25 -3.7 -3.45 -2.35 -5.3 -0.5 -6.55 1.35 -7.85 3.5 -7.25 M-0.55 -1.95 L1.3 -1.05 -0.05 -1.1 -0.15 -1.25 -0.55 -1.95 M0.05 11.4 L-0.1 11.05 0.15 11.15 1.35 11.75 1.45 11.8 2.0 12.85 Q3.3 15.45 3.45 18.7 L3.45 19.0 Q3.6 23.05 2.0 26.4 L1.55 26.25 -2.55 25.95 -2.7 26.0 -3.65 25.9 -3.7 26.1 Q-3.9 26.7 -3.7 27.45 L-3.8 27.5 Q-5.35 30.75 -4.65 34.25 -4.05 37.35 -2.6 40.05 L-1.5 40.75 -0.8 41.35 2.65 41.1 3.3 40.4 Q5.05 36.2 3.75 31.8 L3.4 30.6 3.05 29.25 2.8 28.7 2.5 28.1 2.15 27.85 2.95 28.5 3.35 28.9 4.45 30.25 4.45 30.3 4.55 30.4 4.6 30.45 4.8 30.8 Q5.55 32.1 5.9 33.5 L6.1 34.55 6.25 33.7 5.85 31.5 Q5.3 29.8 5.2 27.95 L5.0 27.25 5.0 27.8 5.0 28.0 Q4.0 27.8 3.15 26.95 4.5 23.5 4.45 19.5 L4.4 18.6 4.3 17.25 3.75 14.35 3.45 13.25 3.2 12.5 3.05 12.1 1.85 10.95 1.65 10.8 1.0 10.35 0.35 10.05 Q-0.65 9.6 -1.75 9.5 L-3.4 9.55 -4.45 10.15 -4.6 10.5 Q-4.8 11.25 -4.05 11.4 L-3.85 11.15 Q-5.5 13.6 -5.75 16.8 -6.0 20.0 -5.35 22.85 -4.25 23.65 -2.5 23.7 L-1.7 23.55 -0.2 22.55 Q2.2 20.45 1.75 16.85 2.2 14.15 0.4 11.85 L0.05 11.4 M2.7 14.35 L2.8 14.8 2.8 14.75 2.7 14.35 M0.8 67.4 L0.9 67.75 0.95 68.05 1.0 68.25 1.0 68.35 1.15 68.7 1.55 69.85 1.55 69.4 1.5 69.0 1.5 68.75 1.75 68.75 2.7 68.6 3.6 68.35 4.15 68.05 4.2 68.0 4.4 67.9 4.4 67.5 4.65 67.4 4.75 67.35 Q5.2 67.0 5.25 66.4 L5.25 66.3 5.05 65.05 5.05 65.0 4.65 64.35 4.55 64.2 4.3 63.9 5.1 62.35 5.4 61.3 Q5.7 59.5 4.9 57.8 L4.1 55.05 4.05 54.85 3.15 53.5 2.9 53.25 2.65 53.25 2.45 53.2 3.65 53.3 4.4 53.4 4.5 53.4 Q5.25 51.2 4.75 48.85 L4.55 47.25 3.55 45.8 3.1 45.3 2.95 45.1 2.75 44.9 2.65 44.85 2.6 44.75 2.3 44.4 2.1 44.2 1.45 43.6 1.4 43.6 1.35 43.5 -1.1 43.55 -1.15 43.5 -1.2 43.4 -1.05 45.0 -1.0 44.9 Q-2.0 47.65 -0.9 50.15 L-0.7 50.25 -0.3 50.35 1.55 50.45 2.1 50.15 Q2.75 49.75 2.8 49.0 L2.7 47.45 2.6 46.6 2.5 45.95 2.0 45.4 2.75 46.3 2.9 46.55 3.45 47.35 3.8 48.15 4.4 49.9 4.55 50.65 4.6 50.95 4.5 51.05 Q3.0 51.95 1.35 51.85 L0.45 51.7 0.65 53.0 0.65 53.05 Q0.1 55.65 0.2 58.25 L0.25 58.25 0.25 58.95 0.25 59.35 -0.35 59.35 -0.95 59.4 -1.35 59.4 -1.4 59.65 Q-1.55 60.7 -1.05 61.35 L-1.0 61.4 -0.9 61.5 -0.65 61.6 -0.25 61.6 -0.15 61.6 0.05 61.6 0.05 61.65 0.05 61.85 0.45 63.1 0.45 64.75 -0.3 64.65 -0.85 64.55 -0.95 64.5 -1.0 64.6 -1.25 65.1 Q-1.7 66.15 -1.0 67.4 L0.8 67.4 M2.7 71.25 L2.25 71.0 1.95 71.05 2.45 70.95 2.7 70.95 3.05 70.95 Q3.75 71.1 4.0 72.2 L3.95 74.05 Q3.95 74.75 3.35 75.05 L2.85 75.25 2.15 75.25 Q2.05 75.9 2.4 76.45 L2.5 76.6 2.5 77.0 2.6 77.35 Q2.8 77.7 3.25 77.8 L3.2 77.8 3.0 77.75 2.95 77.7 3.0 78.05 3.05 78.95 3.05 79.0 3.05 79.2 2.55 79.25 1.85 79.8 1.8 79.85 1.65 80.05 1.8 80.55 1.75 80.55 Q1.9 80.75 2.15 80.75 L2.2 80.75 2.3 80.75 3.0 80.7 3.0 80.8 3.0 80.85 2.95 81.0 2.95 81.8 Q2.95 82.6 3.25 83.1 L3.55 83.4 3.6 82.0 3.9 81.85 4.3 81.45 Q5.15 80.45 4.65 78.8 4.25 78.15 3.7 77.95 L3.9 77.55 Q4.35 76.5 3.45 76.2 L3.3 76.2 3.45 76.15 Q4.65 75.6 5.2 74.15 L5.4 74.2 5.45 73.95 5.45 73.75 5.5 71.85 5.25 72.4 4.75 71.25 4.0 70.15 3.8 69.9 3.65 69.9 2.9 69.9 2.45 69.95 1.75 70.0 1.6 70.0 1.65 70.35 1.75 71.1 1.1 71.3 1.0 71.3 0.5 71.45 0.3 71.5 0.3 72.7 0.3 73.1 0.35 73.5 0.35 73.6 0.35 73.9 0.45 74.65 1.4 74.85 1.45 74.85 1.55 74.85 1.9 74.75 2.7 74.45 3.3 73.85 3.6 72.8 Q3.7 72.1 3.2 71.65 L3.1 71.55 2.7 71.25 M3.55 80.5 L3.6 79.8 3.45 79.3 3.65 79.35 3.7 79.95 3.55 80.5 M5.95 79.6 L6.1 78.4 Q6.05 77.35 5.65 76.45 L5.75 80.1 5.95 79.6 M5.25 91.7 L5.25 91.75 5.4 92.45 5.25 91.7 M5.25 96.8 L4.95 96.8 Q3.95 97.3 3.85 98.45 L3.95 98.8 4.05 98.9 4.05 99.1 Q4.25 100.45 5.65 100.0 L6.05 99.35 6.15 98.75 6.55 98.1 Q6.85 96.65 5.3 96.75 L5.25 96.8 M-16.45 114.05 L-17.55 115.05 -16.7 115.75 -15.85 116.05 Q-14.0 116.65 -12.15 116.1 L-10.75 116.2 -10.3 116.15 Q-7.6 116.05 -5.2 114.85 L-5.05 114.65 Q-4.75 114.3 -4.75 113.9 L-4.75 113.8 -4.55 113.65 Q-2.1 112.0 -0.2 109.75 1.75 107.55 3.2 104.95 4.3 102.85 3.25 100.85 L2.85 100.5 1.9 100.35 1.5 100.85 0.75 101.6 0.65 101.7 Q-2.4 104.65 -5.7 107.2 L-6.15 107.45 -6.85 107.9 -6.9 107.9 -7.15 107.85 -7.5 107.8 -7.95 107.8 -8.05 107.8 -9.65 108.4 -9.9 108.55 -9.75 109.25 -9.7 109.35 -10.0 109.25 -10.4 109.1 -11.2 109.6 -11.35 109.7 -11.55 110.0 Q-12.5 110.1 -13.25 111.0 L-13.3 111.1 -13.3 111.35 -13.25 111.8 -13.6 111.85 -13.7 111.95 -14.35 112.75 -14.65 112.7 -15.0 112.75 -16.0 113.2 -16.45 114.05 M-5.75 108.2 L-5.7 108.25 Q-5.1 108.4 -4.6 108.95 L-4.2 109.5 Q-4.45 110.45 -5.3 110.8 L-7.55 110.0 Q-6.85 109.75 -6.65 109.15 L-6.65 108.3 -6.8 107.9 -5.75 108.2 M-2.6 10.55 L-3.35 10.8 -2.8 10.5 -2.6 10.55 M-9.5 110.4 L-7.25 111.35 Q-6.8 111.55 -6.8 112.1 -8.15 113.6 -9.85 113.0 L-10.25 112.85 -10.7 112.7 -10.65 112.65 Q-10.2 112.3 -10.1 111.75 L-10.05 110.85 -9.85 110.3 -9.5 110.4" fill="#000000" fill-rule="evenodd" stroke="none"/>
    <path d="M-0.65 -3.3 L-0.9 -3.4 -1.4 -3.95 -1.05 -4.7 -0.4 -5.35 0.6 -5.95 0.7 -6.0 1.1 -6.15 1.2 -6.15 1.3 -6.2 3.2 -5.8 2.65 -5.2 1.6 -4.55 1.45 -4.5 0.3 -3.35 0.25 -3.3 -0.65 -3.3 M0.15 2.75 Q0.05 4.35 -0.95 5.65 -0.9 7.45 -2.65 6.9 L-3.25 6.4 Q-4.2 4.15 -3.35 1.8 -2.8 0.25 -1.5 -0.6 L-1.15 -0.75 Q0.6 -0.45 0.3 1.45 L0.15 2.75 M-0.85 15.3 Q-1.05 17.25 -1.65 19.05 L-2.2 20.7 -2.5 21.1 Q-4.65 21.2 -4.6 19.0 -4.55 15.7 -2.95 12.8 -2.55 12.2 -1.95 12.2 -0.15 12.85 -0.75 14.75 L-0.85 15.3 M-0.55 30.8 Q-0.05 32.5 -0.15 34.2 L-0.4 34.8 Q-0.35 35.3 -0.65 35.75 L-1.1 36.25 Q-3.3 35.7 -3.5 33.35 L-3.65 32.4 Q-4.0 29.8 -2.4 27.95 -2.25 27.75 -1.95 27.7 L-1.9 27.7 Q-0.7 27.9 -0.35 29.05 L-0.3 29.5 Q-0.2 30.15 -0.55 30.8 M2.5 59.9 L2.35 59.4 2.65 59.4 3.35 59.45 3.8 59.5 3.9 59.55 4.2 60.5 Q3.6 61.5 2.55 61.65 L2.0 61.65 1.25 61.65 1.65 61.65 1.3 61.75 1.25 61.65 1.0 61.65 1.2 61.5 Q2.4 61.25 2.5 60.05 L2.5 59.9 M1.7 65.1 L1.15 64.7 1.85 64.6 2.35 64.55 2.7 64.55 2.95 64.6 3.05 64.6 Q3.45 64.75 3.75 65.05 L3.95 65.2 4.1 65.4 Q4.25 66.25 3.9 66.8 L3.1 67.35 1.45 67.4 1.1 67.4 1.35 67.0 1.5 66.95 1.9 66.7 1.9 66.65 1.95 66.65 2.0 66.55 2.0 66.5 Q2.35 66.0 2.05 65.55 L1.7 65.1 M0.05 44.5 Q2.0 44.5 1.7 46.45 1.55 47.7 0.65 48.5 L0.15 48.6 Q-1.65 48.2 -1.1 46.1 -0.8 45.05 0.05 44.5 M3.05 79.0 L3.05 78.95 3.1 78.95 3.05 79.0 M3.7 79.25 L3.85 79.9 3.75 80.2 3.6 80.5 3.55 80.5 3.7 79.95 3.65 79.35 3.7 79.25 M4.05 98.9 L3.95 98.8 3.85 98.45 Q3.95 97.3 4.95 96.8 L5.25 96.8 Q5.45 96.8 5.65 96.95 L5.85 97.5 Q5.9 98.2 5.4 98.7 L5.15 98.95 4.05 98.9 M-14.35 112.75 L-13.6 112.95 Q-13.15 113.3 -13.05 114.0 -13.0 114.45 -13.3 114.7 -14.4 115.55 -15.8 115.2 L-16.3 114.75 -16.45 114.05 -16.0 113.2 -15.0 112.75 -14.65 112.7 -14.35 112.75 M0.65 102.65 Q1.05 102.2 1.7 102.25 L1.6 102.5 1.6 102.6 1.35 103.2 Q1.4 103.75 0.95 104.05 0.4 105.05 -0.7 105.7 L-1.85 106.5 Q-2.5 107.05 -3.35 107.05 -4.3 107.05 -3.95 106.2 -3.8 105.7 -3.3 105.45 L-0.2 103.05 Q0.15 102.7 0.65 102.65" fill="#606060" fill-rule="evenodd" stroke="none"/>
    <path d="M3.2 -5.8 L3.35 -5.8 3.8 -5.45 3.85 -5.35 3.9 -5.25 4.1 -4.65 Q4.5 -3.35 3.7 -2.15 3.3 -1.5 2.7 -1.3 L6.05 1.6 6.0 1.5 6.0 1.4 5.95 1.15 5.95 1.2 6.1 1.65 6.3 2.6 Q6.6 3.7 6.25 4.75 L6.15 3.6 4.5 1.6 2.2 -0.45 2.7 0.45 Q4.0 1.05 4.5 2.15 4.95 3.1 4.8 4.4 L4.4 6.75 Q4.0 8.2 2.7 8.85 L2.2 8.85 0.05 8.55 -0.9 8.2 -1.15 8.4 -1.35 8.45 -2.8 8.35 -5.0 8.95 -5.1 8.0 -5.15 7.25 -5.15 6.85 -5.15 6.7 -5.15 6.55 -5.15 6.3 -5.15 5.05 -5.15 4.65 -5.1 4.3 -5.1 3.95 -5.05 3.65 -5.05 3.4 Q-4.7 -0.15 -2.5 -2.65 L-2.4 -2.6 -2.35 -2.6 -1.95 -3.15 -1.35 -3.5 -0.9 -3.35 0.05 -3.0 -0.65 -3.3 0.25 -3.3 0.3 -3.35 1.45 -4.5 1.6 -4.55 2.65 -5.2 3.2 -5.8 M-0.55 -1.95 L-0.15 -1.25 -0.05 -1.1 1.3 -1.05 -0.55 -1.95 M0.15 2.75 L0.3 1.45 Q0.6 -0.45 -1.15 -0.75 L-1.5 -0.6 Q-2.8 0.25 -3.35 1.8 -4.2 4.15 -3.25 6.4 L-2.65 6.9 Q-0.9 7.45 -0.95 5.65 0.05 4.35 0.15 2.75 M0.05 11.4 L0.4 11.85 Q2.2 14.15 1.75 16.85 2.2 20.45 -0.2 22.55 L-1.7 23.55 -2.5 23.7 Q-4.25 23.65 -5.35 22.85 -6.0 20.0 -5.75 16.8 -5.5 13.6 -3.85 11.15 L-4.05 11.4 Q-4.8 11.25 -4.6 10.5 L-4.45 10.15 -3.4 9.55 -1.75 9.5 Q-0.65 9.6 0.35 10.05 L1.0 10.35 1.65 10.8 1.85 10.95 3.05 12.1 3.2 12.5 3.45 13.25 3.75 14.35 4.3 17.25 4.4 18.6 4.45 19.5 Q4.5 23.5 3.15 26.95 4.0 27.8 5.0 28.0 L5.0 27.8 5.0 27.25 5.2 27.95 Q5.3 29.8 5.85 31.5 L6.25 33.7 6.1 34.55 5.9 33.5 Q5.55 32.1 4.8 30.8 L4.6 30.45 4.55 30.4 4.45 30.3 4.45 30.25 3.35 28.9 2.95 28.5 2.15 27.85 2.5 28.1 2.8 28.7 3.05 29.25 3.4 30.6 3.75 31.8 Q5.05 36.2 3.3 40.4 L2.65 41.1 -0.8 41.35 -1.5 40.75 -2.6 40.05 Q-4.05 37.35 -4.65 34.25 -5.35 30.75 -3.8 27.5 L-3.7 27.45 Q-3.9 26.7 -3.7 26.1 L-3.65 25.9 -2.7 26.0 -2.55 25.95 1.55 26.25 2.0 26.4 Q3.6 23.05 3.45 19.0 L3.45 18.7 Q3.3 15.45 2.0 12.85 L1.45 11.8 1.35 11.75 0.15 11.15 -0.1 11.05 0.05 11.4 M2.7 14.35 L2.8 14.75 2.8 14.8 2.7 14.35 M-0.55 30.8 Q-0.2 30.15 -0.3 29.5 L-0.35 29.05 Q-0.7 27.9 -1.9 27.7 L-1.95 27.7 Q-2.25 27.75 -2.4 27.95 -4.0 29.8 -3.65 32.4 L-3.5 33.35 Q-3.3 35.7 -1.1 36.25 L-0.65 35.75 Q-0.35 35.3 -0.4 34.8 L-0.15 34.2 Q-0.05 32.5 -0.55 30.8 M-0.85 15.3 L-0.75 14.75 Q-0.15 12.85 -1.95 12.2 -2.55 12.2 -2.95 12.8 -4.55 15.7 -4.6 19.0 -4.65 21.2 -2.5 21.1 L-2.2 20.7 -1.65 19.05 Q-1.05 17.25 -0.85 15.3 M-1.35 59.4 L-0.95 59.4 -0.35 59.35 0.25 59.35 0.25 58.95 0.25 58.25 0.2 58.25 Q0.1 55.65 0.65 53.05 L0.65 53.0 0.45 51.7 1.35 51.85 Q3.0 51.95 4.5 51.05 L4.6 50.95 4.55 50.65 4.4 49.9 3.8 48.15 3.45 47.35 2.9 46.55 2.75 46.3 2.0 45.4 2.5 45.95 2.6 46.6 2.7 47.45 2.8 49.0 Q2.75 49.75 2.1 50.15 L1.55 50.45 -0.3 50.35 -0.7 50.25 -0.9 50.15 Q-2.0 47.65 -1.0 44.9 L-1.05 45.0 -1.2 43.4 -1.15 43.5 -1.1 43.55 1.35 43.5 1.4 43.6 1.45 43.6 2.1 44.2 2.3 44.4 2.6 44.75 2.65 44.85 2.75 44.9 2.95 45.1 3.1 45.3 3.55 45.8 4.55 47.25 4.75 48.85 Q5.25 51.2 4.5 53.4 L4.4 53.4 3.65 53.3 2.45 53.2 2.65 53.25 2.9 53.25 3.15 53.5 4.05 54.85 4.1 55.05 4.9 57.8 Q5.7 59.5 5.4 61.3 L5.1 62.35 4.3 63.9 4.55 64.2 4.65 64.35 5.05 65.0 5.05 65.05 5.25 66.3 5.25 66.4 Q5.2 67.0 4.75 67.35 L4.65 67.4 4.4 67.5 4.4 67.9 4.2 68.0 4.15 68.05 3.6 68.35 2.7 68.6 1.75 68.75 1.5 68.75 1.5 69.0 1.55 69.4 1.55 69.85 1.15 68.7 1.0 68.35 1.0 68.25 0.95 68.05 0.9 67.75 0.8 67.4 0.85 67.55 0.9 67.55 1.45 67.4 3.1 67.35 3.9 66.8 Q4.25 66.25 4.1 65.4 L3.95 65.2 3.75 65.05 Q3.45 64.75 3.05 64.6 L2.95 64.6 2.7 64.55 2.35 64.55 1.85 64.6 1.15 64.7 1.7 65.1 Q0.5 64.6 -0.8 64.7 L-1.0 64.8 -1.25 65.1 -1.0 64.6 -0.85 64.55 -0.3 64.65 0.45 64.75 0.45 63.1 0.05 61.85 0.05 61.65 0.4 61.7 1.0 61.75 1.3 61.75 1.65 61.65 1.25 61.65 2.0 61.65 2.55 61.65 Q3.6 61.5 4.2 60.5 L3.9 59.55 3.8 59.5 3.35 59.45 2.65 59.4 2.35 59.4 2.5 59.9 2.5 59.75 -1.35 59.4 M0.05 44.5 Q-0.8 45.05 -1.1 46.1 -1.65 48.2 0.15 48.6 L0.65 48.5 Q1.55 47.7 1.7 46.45 2.0 44.5 0.05 44.5 M3.05 78.95 L3.0 78.05 2.95 77.7 3.0 77.75 3.2 77.8 3.25 77.8 Q2.8 77.7 2.6 77.35 L2.5 77.0 2.5 76.6 2.4 76.45 Q2.05 75.9 2.15 75.25 L2.85 75.25 3.35 75.05 Q3.95 74.75 3.95 74.05 L4.0 72.2 Q3.75 71.1 3.05 70.95 L2.7 70.95 2.45 70.95 1.95 71.05 2.25 71.0 2.7 71.25 2.0 71.2 1.1 71.3 1.75 71.1 1.65 70.35 1.6 70.0 1.75 70.0 2.45 69.95 2.9 69.9 3.65 69.9 3.8 69.9 4.0 70.15 4.75 71.25 5.25 72.4 5.5 71.85 5.45 73.75 5.45 73.95 5.4 74.2 5.2 74.15 Q4.65 75.6 3.45 76.15 L3.3 76.2 3.45 76.2 Q4.35 76.5 3.9 77.55 L3.7 77.95 Q4.25 78.15 4.65 78.8 5.15 80.45 4.3 81.45 L3.9 81.85 3.6 82.0 3.55 83.4 3.25 83.1 Q2.95 82.6 2.95 81.8 L2.95 81.0 3.0 80.85 3.0 80.9 3.15 80.8 3.6 80.5 3.75 80.2 3.85 79.9 3.7 79.25 Q3.55 79.0 3.1 78.95 L3.05 78.95 M1.4 74.85 L0.45 74.65 0.35 73.9 1.4 74.85 M0.3 72.7 L0.3 71.5 0.5 71.45 1.0 71.3 0.65 71.4 0.55 71.5 0.3 72.35 0.3 72.7 M2.2 80.75 L2.15 80.75 1.8 80.55 1.65 80.05 1.8 79.85 1.85 79.8 1.9 80.2 2.2 80.75 M5.95 79.6 L5.75 80.1 5.65 76.45 Q6.05 77.35 6.1 78.4 L5.95 79.6 M4.05 98.9 L5.15 98.95 5.4 98.7 Q5.9 98.2 5.85 97.5 L5.65 96.95 Q5.45 96.8 5.25 96.8 L5.3 96.75 Q6.85 96.65 6.55 98.1 L6.15 98.75 6.05 99.35 5.65 100.0 Q4.25 100.45 4.05 99.1 L4.05 98.9 M-13.3 111.35 L-13.3 111.1 -13.25 111.0 Q-12.5 110.1 -11.55 110.0 L-11.35 109.7 -11.2 109.6 -10.4 109.1 -10.0 109.25 -9.7 109.35 -9.75 109.25 -9.9 108.55 -9.65 108.4 -8.05 107.8 -7.95 107.8 -7.5 107.8 -7.15 107.85 -6.9 107.9 -6.85 107.9 -6.15 107.45 -5.7 107.2 Q-2.4 104.65 0.65 101.7 L0.75 101.6 1.5 100.85 1.9 100.35 2.85 100.5 3.25 100.85 Q4.3 102.85 3.2 104.95 1.75 107.55 -0.2 109.75 -2.1 112.0 -4.55 113.65 L-4.75 113.8 -4.75 113.9 Q-4.75 114.3 -5.05 114.65 L-5.2 114.85 Q-7.6 116.05 -10.3 116.15 L-10.75 116.2 -12.15 116.1 Q-14.0 116.65 -15.85 116.05 L-16.7 115.75 -17.55 115.05 -16.45 114.05 -16.3 114.75 -15.8 115.2 Q-14.4 115.55 -13.3 114.7 -13.0 114.45 -13.05 114.0 -13.15 113.3 -13.6 112.95 L-14.35 112.75 -13.7 111.95 -13.6 111.85 -13.25 111.8 -13.1 112.05 -13.1 112.1 -13.3 111.35 M0.65 102.65 Q0.15 102.7 -0.2 103.05 L-3.3 105.45 Q-3.8 105.7 -3.95 106.2 -4.3 107.05 -3.35 107.05 -2.5 107.05 -1.85 106.5 L-0.7 105.7 Q0.4 105.05 0.95 104.05 1.4 103.75 1.35 103.2 L1.6 102.6 1.6 102.5 1.7 102.25 Q1.05 102.2 0.65 102.65 M-2.6 10.55 L-2.8 10.5 -3.35 10.8 -2.6 10.55 M-5.75 108.2 L-6.8 107.9 -6.65 108.3 -6.65 109.15 Q-6.85 109.75 -7.55 110.0 L-5.3 110.8 Q-4.45 110.45 -4.2 109.5 L-4.6 108.95 Q-5.1 108.4 -5.7 108.25 L-5.75 108.2 M-9.5 110.4 L-9.85 110.3 -10.05 110.85 -10.1 111.75 Q-10.2 112.3 -10.65 112.65 L-10.7 112.7 -10.25 112.85 -9.85 113.0 Q-8.15 113.6 -6.8 112.1 -6.8 111.55 -7.25 111.35 L-9.5 110.4" fill="#003333" fill-rule="evenodd" stroke="none"/>
    <path d="M-1.35 59.4 L2.5 59.75 2.5 59.9 2.5 60.05 Q2.4 61.25 1.2 61.5 L1.0 61.65 1.0 61.75 0.4 61.7 0.05 61.65 0.05 61.6 -0.15 61.6 -0.25 61.6 -0.65 61.6 -0.9 61.5 -1.0 61.4 -1.05 61.35 Q-1.55 60.7 -1.4 59.65 L-1.35 59.4 M-1.25 65.1 L-1.0 64.8 -0.8 64.7 Q0.5 64.6 1.7 65.1 L2.05 65.55 Q2.35 66.0 2.0 66.5 L2.0 66.55 1.95 66.65 1.9 66.65 1.9 66.7 1.5 66.95 1.35 67.0 1.1 67.4 1.45 67.4 0.9 67.55 0.85 67.55 0.8 67.4 -1.0 67.4 Q-1.7 66.15 -1.25 65.1 M2.7 71.25 L3.1 71.55 3.2 71.65 Q3.7 72.1 3.6 72.8 L3.3 73.85 2.7 74.45 1.9 74.75 1.55 74.85 1.45 74.85 1.4 74.85 0.35 73.9 0.35 73.6 0.35 73.5 0.3 73.1 0.3 72.7 0.3 72.35 0.55 71.5 0.65 71.4 1.0 71.3 1.1 71.3 2.0 71.2 2.7 71.25 M3.0 80.85 L3.0 80.8 3.0 80.7 2.3 80.75 2.2 80.75 1.9 80.2 1.85 79.8 2.55 79.25 3.05 79.2 3.05 79.0 3.1 78.95 Q3.55 79.0 3.7 79.25 L3.65 79.35 3.45 79.3 3.6 79.8 3.55 80.5 3.6 80.5 3.15 80.8 3.0 80.9 3.0 80.85" fill="#999999" fill-rule="evenodd" stroke="none"/>
    <path d="M1.3 61.75 L1.0 61.75 1.0 61.65 1.25 61.65 1.3 61.75" fill="#666666" fill-rule="evenodd" stroke="none"/>
  </g>
</svg>
