<?xml version="1.0" encoding="UTF-8" standalone="no"?>
<svg xmlns:xlink="http://www.w3.org/1999/xlink" height="133.85px" width="110.8px" xmlns="http://www.w3.org/2000/svg">
  <g transform="matrix(1.0, 0.0, 0.0, 1.0, 55.4, 119.6)">
    <path d="M10.25 -117.95 L10.15 -117.65 9.3 -116.35 Q7.75 -116.1 8.05 -117.55 L8.05 -117.6 Q8.95 -118.25 10.25 -118.2 L10.25 -117.95 M5.8 -117.1 L5.9 -116.85 Q6.0 -115.8 4.8 -115.75 2.35 -115.65 0.25 -114.8 L0.0 -114.65 -0.65 -114.25 -2.1 -113.4 -2.0 -113.35 -2.8 -112.6 Q-3.85 -111.35 -5.2 -110.6 L-5.6 -110.45 -6.05 -111.25 Q-6.75 -111.9 -7.5 -111.8 L-7.6 -112.1 -7.55 -112.2 -4.55 -114.85 -4.35 -114.95 Q-2.1 -116.15 0.4 -116.7 L4.25 -117.0 5.8 -117.1 M10.05 -106.5 L9.9 -106.65 11.45 -107.55 13.75 -107.4 14.6 -105.65 Q15.1 -105.5 15.45 -105.85 15.75 -106.2 16.05 -105.7 L16.1 -105.65 Q15.05 -104.65 13.85 -105.15 13.55 -106.2 12.65 -106.75 11.3 -107.0 10.1 -106.35 L10.05 -106.5 M11.05 -111.55 Q11.35 -112.9 12.75 -113.0 L13.05 -112.95 13.6 -112.95 13.7 -112.9 14.05 -112.45 Q14.2 -111.8 13.65 -111.3 L13.4 -111.1 Q12.4 -110.55 11.35 -111.1 L11.05 -111.5 11.05 -111.55 M-2.3 -89.65 L-3.1 -88.8 -3.45 -88.35 -3.55 -88.2 -3.65 -88.05 -3.75 -87.95 -3.85 -87.75 -3.85 -87.7 -4.25 -86.1 -4.9 -85.25 -5.15 -85.05 -5.7 -85.05 Q-6.5 -86.0 -5.5 -86.85 L-4.05 -88.45 -3.6 -88.9 -2.55 -89.65 -2.3 -89.65 M-11.95 -88.55 L-14.4 -85.6 -14.55 -85.45 Q-14.75 -84.35 -15.5 -83.55 -16.15 -83.7 -16.5 -84.25 L-16.5 -84.85 -16.6 -85.4 -15.75 -85.85 -15.3 -85.95 -12.75 -88.4 -12.7 -88.5 -11.55 -88.9 -11.95 -88.55 M-23.1 -92.15 L-23.15 -92.1 -23.65 -91.9 -24.0 -91.7 -24.3 -91.7 -24.5 -91.95 -24.6 -91.6 -25.35 -91.9 Q-26.0 -92.9 -25.6 -93.95 L-25.35 -93.85 Q-25.25 -94.5 -24.75 -94.8 L-23.85 -95.6 Q-21.9 -98.6 -22.4 -102.3 L-23.05 -102.7 -23.3 -103.0 -23.4 -103.25 -23.45 -103.3 -23.55 -103.85 Q-23.25 -103.95 -23.3 -104.15 -23.45 -104.35 -23.25 -104.55 -22.25 -105.85 -20.5 -105.75 L-20.25 -105.75 Q-18.7 -105.75 -17.35 -106.55 -16.25 -106.95 -15.7 -107.95 L-15.25 -108.85 -14.9 -109.85 -12.25 -109.75 -10.65 -109.65 -10.45 -109.55 -10.4 -109.7 -9.5 -109.85 -7.65 -110.4 -6.35 -110.15 -6.85 -109.9 Q-7.3 -109.65 -7.4 -109.2 L-8.15 -108.7 -8.25 -108.65 -8.9 -108.5 -8.7 -108.3 -8.65 -108.2 -8.4 -107.85 -8.3 -107.75 -8.25 -107.55 -8.25 -107.5 -8.4 -107.3 -8.55 -107.25 -9.8 -107.6 Q-11.75 -108.55 -13.95 -109.0 L-14.15 -108.75 -14.25 -108.8 -14.4 -108.8 -14.55 -108.75 -15.05 -108.75 Q-15.15 -107.95 -15.85 -107.3 L-15.95 -107.2 -15.95 -107.1 -15.95 -107.0 -16.25 -106.55 -16.3 -106.45 Q-17.25 -105.6 -18.25 -105.3 L-18.3 -105.3 -15.25 -104.95 -13.75 -104.6 -9.65 -103.55 -7.2 -102.3 Q-6.35 -101.75 -5.8 -100.85 L-5.75 -100.75 -5.75 -100.65 -5.8 -100.6 -5.85 -100.45 Q-11.5 -103.35 -18.0 -103.65 L-21.65 -104.25 -21.9 -104.05 -22.0 -103.9 -21.85 -103.45 -22.0 -103.25 -21.8 -103.1 -21.65 -102.55 Q-21.0 -100.8 -21.7 -99.0 L-22.15 -97.75 Q-22.6 -96.25 -23.35 -94.9 L-23.25 -95.1 Q-22.3 -95.8 -20.85 -95.75 -18.9 -96.5 -17.05 -97.45 L-16.3 -97.65 -12.1 -98.15 -11.75 -98.1 -11.6 -98.0 -11.55 -97.95 -10.9 -97.95 -10.8 -97.85 -10.8 -97.75 -10.8 -97.65 -10.9 -97.55 -11.55 -97.45 -11.9 -97.25 -11.95 -97.25 -13.5 -97.0 -19.85 -94.9 -21.45 -94.0 -21.85 -94.0 -22.45 -93.35 -22.65 -93.25 -22.8 -93.25 -22.95 -93.2 -23.0 -93.15 -22.9 -92.85 -22.9 -92.8 -23.05 -92.25 -23.1 -92.15 M3.35 -107.0 L3.4 -106.9 3.55 -106.85 3.95 -106.7 4.0 -106.6 4.05 -106.5 4.0 -106.25 3.65 -106.05 3.6 -105.95 3.4 -105.75 3.25 -105.55 3.15 -105.5 0.7 -105.8 0.45 -105.85 Q-1.05 -105.35 -2.55 -105.4 L-2.75 -105.5 -0.8 -106.55 -0.55 -106.65 -0.35 -106.75 -0.05 -106.85 0.05 -106.9 0.2 -106.95 3.35 -107.0 M15.0 -101.5 L14.9 -101.65 14.85 -102.3 14.85 -102.4 15.6 -102.6 16.2 -102.85 16.85 -103.05 16.85 -103.1 17.2 -103.2 17.75 -103.8 20.6 -106.3 20.4 -105.9 20.25 -105.75 Q20.3 -105.2 19.85 -104.85 L19.6 -104.65 Q18.7 -102.95 17.35 -101.65 17.15 -101.45 16.85 -101.4 L15.55 -101.35 15.1 -101.45 15.0 -101.5 M17.5 -96.3 L18.1 -95.3 18.1 -95.2 Q19.0 -94.1 17.65 -93.75 17.3 -93.65 17.05 -93.9 L16.85 -94.1 16.8 -94.45 16.5 -95.35 Q16.55 -95.8 16.95 -96.15 L17.5 -96.3 M21.5 -86.7 Q21.7 -86.25 21.25 -85.9 L21.1 -85.9 Q19.9 -87.25 19.05 -88.9 L18.85 -89.2 18.85 -89.3 18.85 -89.5 18.85 -89.6 18.9 -89.7 18.95 -89.8 19.0 -89.85 19.1 -89.9 19.15 -89.9 Q20.55 -89.5 21.05 -88.0 L21.5 -86.7 M18.55 -76.2 L18.85 -76.15 19.35 -75.9 Q20.05 -75.05 19.0 -74.4 16.6 -73.8 15.05 -75.6 14.45 -76.3 15.05 -77.0 L15.25 -77.15 16.55 -76.6 17.0 -76.45 17.1 -76.4 18.5 -76.2 18.55 -76.2 M8.0 -93.6 L7.8 -93.4 7.65 -93.3 7.6 -93.3 7.1 -93.35 6.85 -93.65 6.8 -93.75 6.5 -93.9 6.6 -94.4 Q7.8 -95.35 9.15 -96.15 L9.45 -96.3 10.6 -96.65 Q10.65 -96.3 10.15 -95.85 L8.0 -93.6 M10.95 -89.0 L10.4 -88.75 8.4 -88.05 Q6.6 -87.6 4.0 -84.9 L3.45 -84.3 3.3 -84.15 3.15 -84.05 Q2.3 -84.05 2.55 -84.8 L2.65 -84.95 2.6 -85.0 Q3.5 -86.75 5.1 -87.85 7.5 -89.4 10.05 -89.8 L10.2 -89.7 10.75 -89.85 Q11.55 -89.75 11.15 -89.15 L10.95 -89.0 M-20.0 -105.15 L-20.05 -105.1 -19.85 -105.15 -20.0 -105.15 M-5.9 -100.4 Q-7.25 -100.2 -8.45 -101.1 L-8.55 -101.15 -8.15 -101.05 -7.75 -100.95 -6.1 -100.45 -5.9 -100.4" fill="#81a20d" fill-rule="evenodd" stroke="none"/>
    <path d="M7.8 -117.35 L7.75 -117.35 Q7.65 -116.65 8.15 -116.15 L9.15 -115.45 Q8.75 -115.15 8.4 -115.35 L7.7 -115.65 Q7.0 -116.65 6.15 -117.0 L6.8 -117.25 7.05 -117.3 7.6 -117.4 7.8 -117.35 M3.65 -107.55 L3.95 -107.6 7.25 -106.85 9.5 -106.2 9.8 -106.1 10.05 -106.5 10.1 -106.35 Q11.3 -107.0 12.65 -106.75 13.55 -106.2 13.85 -105.15 15.05 -104.65 16.1 -105.65 L16.05 -105.7 15.9 -105.9 Q16.7 -106.25 17.35 -106.95 L17.9 -107.45 17.65 -108.15 17.6 -108.45 Q16.6 -110.3 15.25 -111.8 L15.45 -111.3 15.4 -110.7 Q14.9 -109.7 13.85 -109.4 L12.55 -109.7 12.45 -109.9 11.6 -110.25 Q10.85 -110.7 11.05 -111.55 L11.05 -111.5 11.35 -111.1 Q12.4 -110.55 13.4 -111.1 L13.65 -111.3 Q14.2 -111.8 14.05 -112.45 L13.7 -112.9 13.6 -112.95 13.65 -112.95 14.6 -112.6 14.3 -112.75 14.1 -112.95 13.3 -113.45 11.7 -114.1 Q11.0 -114.4 10.9 -115.2 L10.9 -115.6 Q10.4 -116.75 10.25 -117.95 L10.25 -118.2 10.5 -118.2 11.3 -117.6 11.55 -117.1 11.65 -116.85 12.7 -116.65 12.8 -116.85 12.95 -116.5 13.2 -116.4 13.3 -116.35 Q13.6 -116.3 13.75 -116.05 L13.75 -116.15 Q16.6 -115.25 18.5 -112.75 20.1 -110.65 21.1 -108.4 L21.4 -107.65 21.4 -107.6 Q19.9 -107.05 18.75 -106.0 L17.75 -104.95 Q16.5 -103.45 14.8 -102.75 L14.05 -102.5 14.1 -102.45 14.85 -102.4 14.85 -102.3 14.9 -101.65 15.0 -101.5 14.9 -101.5 Q14.55 -101.15 14.65 -100.9 L15.1 -100.55 16.2 -99.75 16.85 -99.75 Q16.7 -99.6 16.85 -99.3 17.1 -98.75 17.6 -98.65 18.0 -98.25 18.6 -98.1 L19.1 -97.95 Q20.15 -97.85 21.05 -98.35 L21.1 -98.4 22.05 -99.45 22.2 -99.55 Q22.65 -99.85 22.2 -100.2 L22.0 -100.2 21.9 -100.15 22.0 -100.25 22.35 -100.65 22.25 -100.5 22.15 -100.6 21.45 -101.15 Q22.2 -101.75 22.2 -102.75 L22.2 -102.9 24.15 -102.7 Q23.4 -103.45 22.35 -103.6 L24.15 -104.3 22.35 -104.2 Q22.8 -104.5 23.45 -104.6 24.6 -104.7 24.5 -105.85 24.3 -107.25 23.1 -107.7 L23.75 -108.0 Q25.25 -107.7 25.85 -106.4 L26.55 -104.5 26.7 -103.8 Q27.5 -105.05 27.25 -106.65 27.5 -106.15 28.3 -106.55 L28.45 -106.85 29.2 -107.45 28.85 -107.8 Q29.6 -107.0 30.75 -106.6 L32.2 -106.95 33.5 -106.75 Q32.75 -105.8 33.2 -104.75 L34.0 -104.15 35.65 -104.1 Q36.45 -103.25 35.9 -102.4 35.3 -101.55 35.05 -100.7 35.1 -97.3 37.15 -94.45 L36.75 -93.65 36.35 -92.85 Q35.6 -93.4 34.85 -93.05 L33.4 -92.5 Q31.1 -90.75 30.55 -87.95 L30.95 -86.4 30.6 -86.3 Q29.9 -86.95 29.15 -87.2 L28.55 -87.35 28.5 -87.55 27.9 -89.75 27.2 -91.05 25.05 -93.75 24.1 -94.7 24.15 -94.9 Q24.3 -96.1 23.75 -97.15 L24.0 -98.0 24.05 -98.3 24.05 -98.7 23.75 -98.2 24.5 -99.35 24.55 -99.45 24.5 -99.5 24.45 -99.55 24.1 -99.4 23.95 -99.35 Q23.0 -98.85 22.35 -97.9 21.95 -97.3 21.35 -97.15 L20.7 -97.1 20.1 -97.25 20.0 -97.25 19.95 -97.3 18.6 -97.6 18.5 -97.6 18.45 -97.6 18.25 -97.6 17.95 -97.65 17.9 -97.65 17.75 -97.75 17.5 -97.9 Q16.5 -99.35 15.05 -99.45 L14.85 -99.25 16.7 -97.15 16.9 -96.9 16.65 -96.65 16.55 -96.6 15.75 -96.05 14.95 -96.0 14.9 -96.05 Q14.6 -96.15 14.35 -96.35 L14.3 -96.35 14.25 -96.4 14.1 -96.5 14.1 -96.55 14.1 -96.6 Q14.55 -97.8 13.9 -98.9 L13.85 -99.05 12.9 -99.8 12.8 -99.8 12.85 -100.25 12.75 -100.15 Q11.2 -99.1 10.45 -97.6 L10.45 -97.55 10.4 -97.5 Q9.4 -96.9 8.35 -96.6 7.25 -96.1 6.5 -95.0 L6.5 -94.8 6.45 -94.8 5.75 -94.65 5.5 -94.45 5.2 -94.7 Q4.65 -95.5 4.9 -96.4 L6.1 -96.75 9.1 -99.25 9.75 -99.4 12.35 -100.9 12.9 -101.5 13.0 -101.9 12.6 -101.8 Q11.55 -101.55 10.65 -101.05 9.6 -100.45 8.3 -100.3 L6.3 -101.25 4.95 -101.95 Q4.9 -102.25 4.5 -102.25 L4.45 -102.25 4.3 -102.3 4.0 -102.5 2.3 -103.55 2.15 -103.65 Q1.5 -104.25 0.45 -103.95 -1.1 -103.7 -2.05 -102.8 L-2.1 -102.75 -2.05 -102.75 -1.45 -102.65 -1.35 -102.65 -1.3 -102.65 -1.1 -102.75 -1.05 -102.8 -1.0 -102.8 -0.05 -103.25 Q1.6 -103.95 2.9 -102.5 1.45 -102.35 0.35 -101.55 L-0.25 -101.0 -0.1 -100.95 1.85 -101.8 1.6 -101.7 1.7 -101.4 2.55 -100.9 1.85 -100.5 1.9 -100.25 2.7 -99.95 2.15 -100.15 Q1.9 -99.85 2.3 -99.5 L2.5 -99.35 3.75 -98.45 Q3.9 -98.3 4.15 -98.25 L5.2 -97.85 5.35 -97.75 5.55 -97.65 5.65 -97.65 4.45 -97.25 Q3.45 -97.1 2.5 -97.65 1.0 -98.55 -0.35 -99.1 L-0.15 -98.85 -0.45 -99.05 Q-1.2 -99.65 -0.9 -100.4 L-0.55 -100.95 -1.15 -101.1 Q-2.05 -100.8 -2.65 -101.3 L-2.85 -101.65 -2.85 -101.95 Q-2.45 -103.15 -1.2 -103.75 0.15 -104.35 1.7 -104.35 4.0 -104.0 6.05 -103.05 L6.05 -103.1 6.55 -104.3 6.6 -104.35 6.6 -104.4 7.1 -104.9 7.95 -104.25 Q8.55 -103.8 9.2 -103.5 10.25 -103.0 11.45 -103.75 L12.1 -104.15 11.7 -104.75 11.4 -104.8 10.1 -104.45 Q9.45 -104.15 8.8 -104.45 L8.55 -104.55 7.65 -105.1 4.45 -107.05 3.8 -107.45 3.65 -107.55 M27.95 -86.6 L28.15 -85.7 27.55 -86.25 28.1 -85.75 28.15 -85.6 28.2 -84.95 28.2 -84.0 28.15 -83.7 28.1 -83.75 28.0 -83.75 Q25.6 -82.7 23.75 -80.65 21.95 -78.6 19.95 -77.05 17.05 -77.2 14.75 -78.15 12.35 -78.8 10.05 -80.35 L5.35 -82.8 4.45 -83.05 2.8 -83.1 2.9 -83.15 3.15 -83.25 3.9 -83.5 5.05 -83.55 5.35 -83.55 Q7.35 -83.2 9.15 -82.1 9.95 -81.6 10.75 -81.3 L14.65 -79.65 Q17.2 -78.55 20.0 -79.0 L20.4 -79.15 23.1 -80.85 25.2 -82.9 25.7 -83.75 Q26.15 -84.55 26.1 -85.55 L25.65 -87.7 Q25.15 -89.1 23.95 -90.05 L22.7 -91.05 Q21.55 -91.9 20.0 -91.7 L16.9 -91.25 15.85 -90.9 12.35 -91.1 10.0 -91.25 9.35 -91.3 7.95 -91.15 7.55 -91.0 Q6.85 -90.75 6.3 -90.25 L6.25 -90.15 5.75 -89.95 4.85 -89.3 3.8 -88.1 2.9 -87.25 2.2 -86.4 2.1 -86.3 1.9 -86.05 Q1.15 -85.15 0.7 -84.1 L0.6 -83.85 Q0.6 -85.15 1.05 -86.3 L1.65 -88.55 3.2 -91.0 2.8 -91.0 2.7 -90.95 0.55 -89.3 -0.3 -87.8 -0.55 -87.5 -1.85 -84.5 -2.05 -83.75 -2.3 -83.4 -2.5 -83.0 -2.85 -82.0 -2.85 -81.9 -4.0 -83.75 -4.0 -83.85 -4.0 -84.0 -4.05 -84.3 Q-3.5 -84.55 -3.1 -85.2 -2.55 -88.45 -0.1 -90.9 L-0.1 -91.0 -0.1 -91.1 1.3 -91.9 Q0.2 -92.45 -0.5 -93.45 L-1.25 -94.75 -1.65 -95.7 -1.7 -96.05 -1.65 -98.1 -1.6 -98.05 -1.2 -97.45 -1.2 -97.2 -1.15 -96.95 -1.1 -96.85 -1.1 -96.8 -0.5 -96.15 0.45 -95.1 1.3 -94.25 1.35 -94.2 2.15 -93.55 Q2.6 -93.25 3.15 -93.05 L3.3 -93.05 4.35 -92.95 Q4.9 -92.9 5.35 -93.2 L6.0 -93.6 6.1 -93.4 6.15 -93.35 6.35 -93.15 6.55 -92.85 6.85 -92.45 6.8 -92.45 7.25 -92.15 Q7.6 -92.5 7.4 -92.9 L7.35 -93.0 7.6 -93.3 7.65 -93.3 7.8 -93.4 8.0 -93.6 8.5 -93.75 9.05 -93.7 9.05 -93.55 9.4 -93.6 9.3 -93.55 10.05 -93.6 11.3 -93.4 11.35 -93.35 11.45 -93.35 13.8 -92.95 Q13.55 -93.5 12.9 -93.75 L12.6 -94.05 13.6 -93.7 14.45 -95.6 14.9 -95.5 15.6 -95.45 16.15 -95.8 16.5 -95.35 16.8 -94.45 16.85 -94.1 17.0 -93.65 18.15 -92.75 18.15 -92.7 18.0 -92.35 18.5 -92.65 19.0 -92.6 18.55 -92.65 18.6 -92.7 21.05 -94.3 20.85 -94.7 21.35 -94.9 22.15 -94.95 22.0 -94.3 21.8 -93.65 22.0 -93.3 Q22.4 -92.8 22.95 -92.55 L23.05 -92.55 23.1 -92.5 23.15 -92.5 Q23.95 -92.25 24.65 -91.6 27.05 -89.6 27.95 -86.6 M3.8 -117.75 L0.95 -117.55 Q1.35 -118.3 2.1 -118.55 L3.85 -117.9 3.8 -117.75 M0.85 -111.75 Q-0.25 -111.4 -1.0 -112.2 L-1.1 -112.7 -0.65 -113.1 Q0.5 -113.15 1.05 -112.3 L1.1 -112.15 0.85 -111.75 M3.95 -114.2 L4.05 -114.25 Q4.95 -114.15 4.85 -113.45 L4.65 -113.15 Q3.75 -113.1 3.7 -113.85 L3.9 -114.2 3.95 -114.2 M6.3 -109.75 Q5.3 -109.9 5.5 -110.8 L5.65 -111.0 5.9 -111.1 Q7.1 -111.05 6.7 -110.0 6.6 -109.7 6.3 -109.75 M7.0 -98.35 L7.1 -98.35 6.85 -98.2 6.7 -98.3 6.95 -98.35 7.0 -98.35 M-0.35 -99.1 L-0.4 -99.15 -0.35 -99.1 M20.35 -101.6 L20.15 -101.65 20.25 -101.8 20.4 -101.6 20.35 -101.6 M16.55 -100.6 L16.35 -100.75 16.3 -100.8 16.55 -100.6 M28.8 -102.85 L31.55 -105.65 31.5 -105.95 Q29.2 -104.9 27.95 -102.7 L28.45 -102.65 28.6 -102.6 28.8 -102.85 M34.0 -101.7 Q32.2 -101.7 30.7 -100.65 29.2 -99.65 27.95 -98.25 L28.6 -98.05 34.0 -101.7 M27.55 -93.85 L30.35 -94.2 Q32.0 -94.45 33.4 -93.4 33.45 -93.15 33.75 -93.05 34.15 -93.2 34.05 -93.7 L33.95 -93.8 33.9 -93.9 32.65 -94.75 32.05 -94.9 29.35 -94.95 Q28.15 -94.9 27.3 -94.0 L27.15 -93.8 27.55 -93.85 M27.05 -82.9 L26.25 -82.0 25.2 -80.95 25.05 -80.8 25.15 -80.95 25.75 -81.65 25.95 -81.95 26.75 -82.7 27.1 -82.9 27.05 -82.9 M5.95 -82.15 L4.55 -82.6 4.5 -82.6 3.9 -82.65 3.8 -82.65 4.45 -82.65 4.55 -82.65 5.4 -82.35 5.6 -82.3 5.95 -82.15 M18.6 -87.4 L18.6 -87.25 18.65 -87.05 18.9 -85.85 19.1 -84.7 19.1 -84.6 19.15 -84.4 19.15 -84.35 19.2 -83.8 19.2 -82.6 18.85 -82.3 18.8 -82.0 18.4 -84.5 Q17.8 -87.3 16.4 -89.65 17.25 -90.4 17.9 -89.35 L18.6 -87.4 M4.3 -94.05 L3.2 -94.3 1.9 -95.1 1.3 -95.55 Q2.5 -94.6 4.05 -94.15 L4.3 -94.05 M-2.2 -80.55 L-2.25 -80.55 -2.2 -80.55 M-21.8 -103.1 L-22.0 -103.25 -21.85 -103.45 -21.7 -103.65 -18.0 -103.65 Q-11.5 -103.35 -5.85 -100.45 L-5.4 -100.2 -5.9 -100.4 -6.1 -100.45 -7.75 -100.95 -8.15 -101.05 -13.0 -102.1 -21.0 -102.75 -21.8 -103.1 M-13.95 -109.0 Q-11.75 -108.55 -9.8 -107.6 -7.55 -106.5 -5.6 -104.65 L-9.0 -106.4 -11.65 -107.4 Q-13.0 -107.85 -14.15 -108.7 L-13.95 -109.0 M-18.35 -101.05 Q-17.65 -100.8 -18.1 -100.25 L-18.65 -99.8 Q-19.45 -99.4 -19.5 -100.25 L-19.35 -100.55 -18.35 -101.05 M-21.45 -94.0 L-19.85 -94.9 -13.5 -97.0 -11.95 -97.25 -11.9 -97.25 -8.65 -97.45 Q-15.55 -95.95 -21.6 -92.9 L-22.9 -92.8 -22.9 -92.85 -23.0 -93.15 -22.95 -93.2 -22.8 -93.25 -22.65 -93.25 -22.45 -93.35 -22.25 -93.5 -21.45 -94.0 M-14.75 -93.25 L-14.7 -93.35 -14.4 -93.25 -14.35 -93.2 -14.35 -92.9 -14.5 -92.75 Q-15.05 -92.45 -15.45 -92.75 L-15.45 -92.8 -15.45 -92.9 -15.45 -92.95 -15.35 -93.05 -15.15 -93.2 -14.75 -93.25 M-12.8 -91.7 L-12.85 -91.8 -12.8 -92.0 Q-12.3 -92.8 -11.4 -92.85 -10.6 -92.7 -11.15 -92.1 -11.9 -91.35 -12.8 -91.7" fill="#495c0a" fill-rule="evenodd" stroke="none"/>
    <path d="M8.05 -117.6 L8.05 -117.55 Q7.75 -116.1 9.3 -116.35 L10.15 -117.65 10.25 -117.95 Q10.4 -116.75 10.9 -115.6 L10.9 -115.2 Q11.0 -114.4 11.7 -114.1 L13.3 -113.45 14.1 -112.95 14.3 -112.75 14.6 -112.6 13.65 -112.95 13.6 -112.95 13.05 -112.95 12.75 -113.0 Q11.35 -112.9 11.05 -111.55 10.85 -110.7 11.6 -110.25 L12.45 -109.9 12.55 -109.7 13.85 -109.4 Q14.9 -109.7 15.4 -110.7 L15.45 -111.3 15.25 -111.8 Q16.6 -110.3 17.6 -108.45 L17.65 -108.15 17.9 -107.45 17.35 -106.95 Q16.7 -106.25 15.9 -105.9 L16.05 -105.7 Q15.75 -106.2 15.45 -105.85 15.1 -105.5 14.6 -105.65 L13.75 -107.4 11.45 -107.55 9.9 -106.65 10.05 -106.5 9.8 -106.1 9.5 -106.2 7.25 -106.85 3.95 -107.6 3.65 -107.55 Q1.25 -108.85 -1.35 -107.0 L-1.65 -107.0 -1.65 -107.15 -1.65 -107.25 -4.0 -109.0 Q-5.0 -109.6 -5.6 -110.45 L-5.2 -110.6 Q-3.85 -111.35 -2.8 -112.6 L-2.0 -113.35 -2.1 -113.4 -0.65 -114.25 0.0 -114.65 0.25 -114.8 Q2.35 -115.65 4.8 -115.75 6.0 -115.8 5.9 -116.85 L5.8 -117.1 6.15 -117.0 Q7.0 -116.65 7.7 -115.65 L8.4 -115.35 Q8.75 -115.15 9.15 -115.45 L8.15 -116.15 Q7.65 -116.65 7.75 -117.35 L7.8 -117.35 8.05 -117.6 M22.35 -107.35 L23.1 -107.7 Q24.3 -107.25 24.5 -105.85 24.6 -104.7 23.45 -104.6 22.8 -104.5 22.35 -104.2 L22.3 -104.2 Q21.35 -104.0 20.55 -103.4 18.95 -102.3 17.75 -100.75 17.15 -100.25 16.55 -100.6 L16.3 -100.8 15.1 -101.45 15.55 -101.35 16.85 -101.4 Q17.15 -101.45 17.35 -101.65 18.7 -102.95 19.6 -104.65 L19.85 -104.85 Q20.3 -105.2 20.25 -105.75 L20.4 -105.9 20.6 -106.3 22.35 -107.35 M27.25 -106.65 L27.1 -107.25 28.5 -108.2 28.85 -107.8 29.2 -107.45 28.45 -106.85 28.3 -106.55 Q27.5 -106.15 27.25 -106.65 M28.15 -85.7 Q28.95 -85.0 29.2 -84.0 L29.25 -83.35 Q29.05 -82.55 28.45 -82.2 L27.3 -81.3 Q25.6 -79.1 24.25 -76.5 22.9 -73.95 19.95 -73.15 14.9 -72.65 10.9 -75.9 L9.3 -77.55 7.85 -78.45 7.75 -78.55 Q6.0 -79.95 3.7 -80.25 L3.2 -80.3 3.2 -80.5 Q1.15 -80.85 -0.75 -80.05 L-1.0 -80.35 -1.85 -81.05 Q-2.5 -81.9 -2.05 -82.7 L-1.2 -84.3 -2.05 -83.75 -1.85 -84.5 -0.55 -87.5 -0.3 -87.8 0.55 -89.3 2.7 -90.95 2.8 -91.0 3.2 -91.0 1.65 -88.55 1.05 -86.3 Q0.6 -85.15 0.6 -83.85 L0.7 -84.1 Q1.15 -85.15 1.9 -86.05 L2.1 -86.3 2.2 -86.4 2.9 -87.25 3.8 -88.1 4.85 -89.3 5.75 -89.95 6.25 -90.15 6.3 -90.25 Q6.85 -90.75 7.55 -91.0 L7.95 -91.15 9.35 -91.3 10.0 -91.25 12.35 -91.1 15.85 -90.9 16.9 -91.25 20.0 -91.7 Q21.55 -91.9 22.7 -91.05 L23.95 -90.05 Q25.15 -89.1 25.65 -87.7 L26.1 -85.55 Q26.15 -84.55 25.7 -83.75 L25.2 -82.9 23.1 -80.85 20.4 -79.15 20.0 -79.0 Q17.2 -78.55 14.65 -79.65 L10.75 -81.3 Q9.95 -81.6 9.15 -82.1 7.35 -83.2 5.35 -83.55 L5.05 -83.55 3.9 -83.5 3.15 -83.25 2.9 -83.15 2.8 -83.1 1.3 -82.7 0.3 -82.25 0.3 -81.85 1.5 -82.1 1.9 -82.2 1.95 -82.2 2.15 -82.25 3.4 -82.55 3.8 -82.65 3.9 -82.65 4.5 -82.6 4.55 -82.6 5.95 -82.15 7.4 -81.35 7.45 -81.3 8.1 -80.8 8.15 -80.7 9.7 -79.8 13.15 -78.0 13.3 -77.95 15.25 -77.15 15.05 -77.0 Q14.45 -76.3 15.05 -75.6 16.6 -73.8 19.0 -74.4 20.05 -75.05 19.35 -75.9 L18.85 -76.15 18.55 -76.2 20.15 -76.4 Q22.45 -76.85 23.65 -79.0 L23.75 -79.1 25.05 -80.8 25.2 -80.95 26.25 -82.0 27.05 -82.9 Q27.6 -83.25 28.3 -83.45 L28.15 -83.7 28.2 -84.0 28.2 -84.95 28.15 -85.6 28.1 -85.75 27.55 -86.25 28.15 -85.7 M-7.25 -83.3 L-7.55 -83.85 -7.45 -84.05 -7.35 -83.55 -7.25 -83.3 M-0.1 -91.1 L0.05 -91.3 -0.4 -91.3 -2.3 -89.65 -2.55 -89.65 -3.6 -88.9 -4.05 -88.45 -5.5 -86.85 Q-6.5 -86.0 -5.7 -85.05 L-5.15 -85.05 -4.9 -85.25 -4.25 -86.1 -4.2 -85.65 Q-4.8 -84.7 -5.8 -84.95 L-6.0 -85.3 Q-5.95 -85.65 -6.2 -85.8 -9.25 -87.7 -12.55 -86.0 -11.75 -88.0 -10.2 -89.85 L-10.3 -89.9 -11.95 -88.55 -11.55 -88.9 -12.7 -88.5 -12.75 -88.4 -15.3 -85.95 -15.75 -85.85 -16.6 -85.4 Q-17.1 -88.4 -19.45 -90.8 L-21.4 -91.95 -23.1 -92.15 -23.05 -92.25 -22.9 -92.8 -21.6 -92.9 Q-15.55 -95.95 -8.65 -97.45 L-11.9 -97.25 -11.55 -97.45 -10.9 -97.55 -10.8 -97.65 -10.8 -97.75 -10.8 -97.85 -10.9 -97.95 -11.55 -97.95 -11.6 -98.0 -11.75 -98.1 -12.1 -98.15 -16.3 -97.65 -17.05 -97.45 Q-18.9 -96.5 -20.85 -95.75 -22.3 -95.8 -23.25 -95.1 L-23.35 -94.9 Q-22.6 -96.25 -22.15 -97.75 L-21.7 -99.0 Q-21.0 -100.8 -21.65 -102.55 L-21.8 -103.1 -21.0 -102.75 -13.0 -102.1 -8.15 -101.05 -8.55 -101.15 -8.45 -101.1 Q-7.25 -100.2 -5.9 -100.4 L-5.4 -100.2 -5.85 -100.45 -5.8 -100.6 -5.75 -100.65 -5.75 -100.75 -5.8 -100.85 Q-6.35 -101.75 -7.2 -102.3 L-9.65 -103.55 -13.75 -104.6 -15.25 -104.95 -18.3 -105.3 -18.25 -105.3 Q-17.25 -105.6 -16.3 -106.45 L-16.25 -106.55 -15.95 -107.0 -15.95 -107.1 -15.95 -107.2 -15.85 -107.3 Q-15.15 -107.95 -15.05 -108.75 L-14.55 -108.75 -14.4 -108.8 -14.25 -108.8 -14.15 -108.75 -13.95 -109.0 -14.15 -108.7 Q-13.0 -107.85 -11.65 -107.4 L-9.0 -106.4 -5.6 -104.65 Q-7.55 -106.5 -9.8 -107.6 L-8.55 -107.25 -8.4 -107.3 -8.25 -107.5 -8.25 -107.55 -8.3 -107.75 -8.4 -107.85 -8.65 -108.2 -8.7 -108.3 -8.9 -108.5 -8.25 -108.65 -8.15 -108.7 -7.4 -109.2 Q-7.3 -109.65 -6.85 -109.9 L-6.35 -110.15 -6.0 -109.75 Q-5.45 -108.7 -4.35 -108.0 L-2.45 -106.75 -2.25 -106.6 -3.9 -105.55 -3.25 -105.15 -2.75 -105.5 -2.55 -105.4 Q-1.05 -105.35 0.45 -105.85 L0.7 -105.8 3.15 -105.5 3.25 -105.55 3.4 -105.75 3.6 -105.95 3.65 -106.05 4.0 -106.25 4.05 -106.5 4.0 -106.6 3.95 -106.7 3.55 -106.85 3.4 -106.9 3.35 -107.0 3.95 -106.75 4.45 -106.6 Q5.65 -106.2 6.7 -105.25 L7.1 -104.9 6.6 -104.4 6.6 -104.35 6.55 -104.3 6.05 -103.1 6.05 -103.05 Q4.0 -104.0 1.7 -104.35 0.15 -104.35 -1.2 -103.75 -2.45 -103.15 -2.85 -101.95 L-2.85 -101.65 -2.65 -101.3 Q-2.05 -100.8 -1.15 -101.1 L-0.55 -100.95 -0.9 -100.4 Q-1.2 -99.65 -0.45 -99.05 L-0.15 -98.85 -0.35 -99.1 Q1.3 -97.3 4.0 -96.3 L4.45 -96.35 4.9 -96.4 Q4.65 -95.5 5.2 -94.7 L5.5 -94.45 5.7 -94.45 6.1 -94.45 Q5.45 -93.85 4.45 -94.0 L4.3 -94.05 4.05 -94.15 Q2.5 -94.6 1.3 -95.55 0.2 -96.4 -0.65 -97.65 L-0.65 -97.7 -1.2 -97.45 -1.6 -98.05 -1.65 -98.1 -1.7 -96.05 -1.65 -95.7 -1.25 -94.75 -0.5 -93.45 Q0.2 -92.45 1.3 -91.9 L-0.1 -91.1 M-24.0 -91.7 L-24.6 -91.6 -24.5 -91.95 -24.3 -91.7 -24.0 -91.7 M-10.65 -109.65 L-10.4 -109.7 -10.45 -109.55 -10.65 -109.65 M3.95 -114.2 L3.9 -114.2 3.7 -113.85 Q3.75 -113.1 4.65 -113.15 L4.85 -113.45 Q4.95 -114.15 4.05 -114.25 L3.95 -114.2 M0.85 -111.75 L1.1 -112.15 1.05 -112.3 Q0.5 -113.15 -0.65 -113.1 L-1.1 -112.7 -1.0 -112.2 Q-0.25 -111.4 0.85 -111.75 M6.3 -109.75 Q6.6 -109.7 6.7 -110.0 7.1 -111.05 5.9 -111.1 L5.65 -111.0 5.5 -110.8 Q5.3 -109.9 6.3 -109.75 M10.45 -97.6 Q11.2 -99.1 12.75 -100.15 L12.85 -100.25 12.8 -99.8 12.9 -99.8 13.85 -99.05 13.9 -98.9 Q14.55 -97.8 14.1 -96.6 L14.1 -96.55 Q13.0 -97.4 11.95 -97.65 L11.6 -97.7 11.55 -97.65 11.5 -97.65 11.3 -97.65 10.45 -97.6 M20.15 -101.65 L20.1 -101.65 20.15 -101.65 M28.45 -102.65 L27.95 -102.7 Q29.2 -104.9 31.5 -105.95 L31.55 -105.65 28.8 -102.85 28.45 -102.65 M34.0 -101.7 L28.6 -98.05 27.95 -98.25 Q29.2 -99.65 30.7 -100.65 32.2 -101.7 34.0 -101.7 M27.3 -94.0 Q28.15 -94.9 29.35 -94.95 L32.05 -94.9 32.65 -94.75 33.9 -93.9 33.95 -93.8 34.05 -93.7 Q34.15 -93.2 33.75 -93.05 33.45 -93.15 33.4 -93.4 32.0 -94.45 30.35 -94.2 L27.55 -93.85 27.35 -93.95 27.3 -94.0 M22.0 -94.3 L22.15 -94.95 21.35 -94.9 20.85 -94.7 20.0 -94.95 Q18.7 -94.1 18.15 -92.75 L17.0 -93.65 16.85 -94.1 17.05 -93.9 Q17.3 -93.65 17.65 -93.75 19.0 -94.1 18.1 -95.2 L18.1 -95.3 17.5 -96.3 18.75 -96.4 22.2 -95.95 22.0 -94.3 M18.6 -92.7 L18.55 -92.65 19.0 -92.6 18.5 -92.65 18.6 -92.7 M23.8 -93.25 L23.85 -93.15 23.65 -93.3 23.8 -93.25 M21.5 -86.7 L21.05 -88.0 Q20.55 -89.5 19.15 -89.9 L19.1 -89.9 19.0 -89.85 18.95 -89.8 18.9 -89.7 18.85 -89.6 18.85 -89.5 18.85 -89.3 18.85 -89.2 19.05 -88.9 Q19.9 -87.25 21.1 -85.9 L21.25 -85.9 Q21.7 -86.25 21.5 -86.7 M16.5 -95.35 L16.15 -95.8 16.95 -96.15 Q16.55 -95.8 16.5 -95.35 M14.9 -95.5 L14.45 -95.6 13.6 -93.7 12.6 -94.05 11.35 -94.8 9.45 -94.6 Q8.95 -94.15 9.05 -93.55 L9.05 -93.7 8.5 -93.75 8.0 -93.6 10.15 -95.85 Q10.65 -96.3 10.6 -96.65 L11.95 -96.5 Q13.4 -95.75 14.9 -95.5 M10.05 -93.6 L9.3 -93.55 9.4 -93.6 10.05 -93.6 M7.6 -93.3 L7.35 -93.0 6.85 -93.65 7.1 -93.35 7.6 -93.3 M11.5 -97.8 L11.4 -97.7 11.6 -97.7 11.5 -97.8 M10.95 -89.0 L11.15 -89.15 Q11.55 -89.75 10.75 -89.85 L10.2 -89.7 10.05 -89.8 Q7.5 -89.4 5.1 -87.85 3.5 -86.75 2.6 -85.0 L2.65 -84.95 2.55 -84.8 Q2.3 -84.05 3.15 -84.05 L3.3 -84.15 3.45 -84.3 4.0 -84.9 Q6.6 -87.6 8.4 -88.05 L10.4 -88.75 10.95 -89.0 M18.6 -87.4 L17.9 -89.35 Q17.25 -90.4 16.4 -89.65 17.8 -87.3 18.4 -84.5 L18.8 -82.0 18.85 -82.3 19.2 -82.6 19.2 -83.8 19.15 -84.35 19.15 -84.4 19.1 -84.6 19.1 -84.7 18.9 -85.85 18.65 -87.05 18.6 -87.25 18.6 -87.4 M6.5 -93.9 Q6.35 -94.1 6.5 -94.35 L6.6 -94.4 6.5 -93.9 M1.65 -84.55 L1.65 -84.6 1.65 -84.65 1.7 -84.9 1.65 -84.9 1.65 -84.55 1.55 -84.25 1.2 -83.85 1.65 -84.55 M-2.1 -80.35 L-2.25 -80.5 -2.2 -80.55 -2.1 -80.35 M-21.85 -103.45 L-22.0 -103.9 -21.9 -104.05 -21.65 -104.25 -18.0 -103.65 -21.7 -103.65 -21.85 -103.45 M-7.6 -112.1 L-7.5 -111.8 -7.8 -111.75 -7.85 -111.75 -7.6 -112.1 M-20.0 -105.15 L-19.85 -105.15 -20.05 -105.1 -20.0 -105.15 M-18.35 -101.05 L-19.35 -100.55 -19.5 -100.25 Q-19.45 -99.4 -18.65 -99.8 L-18.1 -100.25 Q-17.65 -100.8 -18.35 -101.05 M-14.75 -93.25 L-15.15 -93.2 -15.35 -93.05 -15.45 -92.95 -15.45 -92.9 -15.45 -92.8 -15.45 -92.75 Q-15.05 -92.45 -14.5 -92.75 L-14.35 -92.9 -14.35 -93.2 -14.4 -93.25 -14.7 -93.35 -14.75 -93.25 M-12.8 -91.7 Q-11.9 -91.35 -11.15 -92.1 -10.6 -92.7 -11.4 -92.85 -12.3 -92.8 -12.8 -92.0 L-12.85 -91.8 -12.8 -91.7 M-22.45 -93.35 L-21.85 -94.0 -21.45 -94.0 -22.25 -93.5 -22.45 -93.35" fill="#67820b" fill-rule="evenodd" stroke="none"/>
    <path d="M-23.2 3.25 L-23.35 3.2 -24.6 2.7 -24.6 2.65 -24.75 2.6 -25.0 2.5 -25.05 2.45 -26.7 1.4 -28.0 0.65 -29.0 -0.1 -29.35 -0.3 -30.95 -1.4 -33.9 -3.6 -34.55 -4.1 -35.7 -5.15 -36.1 -5.65 -36.75 -6.4 -37.3 -7.05 -38.15 -8.1 -38.25 -8.25 -39.2 -9.5 -39.95 -10.6 -40.4 -11.3 -40.4 -11.6 -40.4 -12.0 -39.9 -12.75 -39.9 -12.8 Q-37.1 -16.65 -34.85 -20.85 -35.8 -21.9 -35.55 -23.4 -35.45 -24.1 -34.85 -24.65 L-33.85 -25.85 Q-35.4 -26.4 -36.45 -27.5 -37.25 -31.4 -38.9 -34.9 -39.15 -36.25 -38.35 -37.15 -37.6 -38.1 -37.25 -39.2 -37.55 -45.15 -34.55 -49.9 -36.3 -54.5 -39.4 -58.5 -42.55 -62.55 -46.7 -65.45 -50.9 -68.35 -55.4 -70.3 -55.15 -71.3 -54.4 -72.0 -51.7 -74.6 -48.1 -75.6 -49.6 -77.3 -51.75 -78.15 -52.25 -78.8 -52.05 -79.55 -47.35 -83.35 -41.15 -83.7 L-39.25 -83.35 Q-37.4 -86.55 -35.0 -89.55 -32.6 -92.55 -29.1 -94.05 -27.9 -94.95 -26.3 -95.25 -24.7 -95.55 -24.55 -97.4 L-23.75 -99.55 Q-23.4 -100.65 -23.7 -101.85 -25.05 -102.9 -24.65 -104.6 -23.75 -105.9 -22.4 -106.55 -19.55 -106.25 -17.3 -107.9 -17.35 -109.9 -15.85 -111.05 L-12.5 -110.75 Q-10.8 -110.6 -9.35 -111.25 -8.2 -114.1 -5.65 -115.5 -3.1 -116.9 -0.35 -117.4 0.65 -118.9 2.05 -119.6 3.55 -119.75 4.8 -118.85 L7.5 -118.9 10.45 -119.45 Q12.0 -119.8 12.85 -118.4 13.0 -118.0 13.5 -117.75 14.0 -117.55 14.0 -116.95 17.1 -116.25 19.2 -113.8 21.2 -111.4 22.45 -108.6 L25.25 -108.4 26.0 -107.9 26.75 -108.4 26.9 -108.6 Q27.25 -109.15 27.85 -109.35 28.95 -109.6 29.4 -108.85 L29.75 -108.4 30.6 -107.6 33.75 -107.75 34.45 -106.95 Q34.85 -106.6 34.7 -106.05 34.15 -105.7 34.15 -105.15 36.05 -105.25 36.95 -103.6 37.4 -102.1 36.4 -100.9 35.4 -99.75 36.2 -98.3 36.75 -96.8 37.75 -95.3 38.75 -93.85 37.45 -92.2 36.8 -91.6 36.0 -91.9 35.6 -92.4 35.25 -92.05 L34.35 -91.8 Q33.25 -91.15 32.55 -90.05 36.2 -87.35 39.35 -83.85 42.95 -84.25 46.15 -83.0 49.3 -81.8 51.1 -78.65 50.1 -77.5 48.55 -76.7 L48.4 -76.5 Q50.45 -75.7 52.4 -74.35 54.3 -73.0 55.4 -70.9 L55.4 -70.2 Q48.6 -67.5 43.0 -62.2 37.45 -56.95 36.2 -49.4 L37.4 -44.7 Q38.05 -42.35 38.15 -39.8 L38.3 -35.95 39.55 -34.4 Q39.95 -32.3 39.15 -30.6 38.3 -28.95 37.1 -27.45 36.2 -25.45 35.8 -23.2 36.05 -22.3 36.85 -21.35 37.65 -20.5 36.8 -19.4 35.25 -18.1 36.4 -16.45 36.9 -15.1 38.15 -13.85 39.4 -12.6 38.05 -11.1 38.3 -9.8 39.05 -8.7 L39.0 -8.6 Q39.45 -8.4 39.05 -7.9 L38.25 -7.05 37.35 -5.95 Q36.7 -4.8 35.55 -4.1 L33.0 -2.7 31.05 -1.45 29.35 0.15 29.1 0.45 26.8 2.3 26.75 2.35 27.0 2.5 27.05 2.5 26.9 2.75 26.7 2.9 26.0 3.45 25.7 3.65 23.5 5.5 21.05 7.3 20.95 7.4 20.25 7.8 20.35 7.85 20.15 8.0 20.1 8.4 19.55 9.1 18.3 9.9 18.05 10.0 17.15 10.45 14.35 11.4 13.6 11.45 13.35 11.55 13.15 11.75 Q12.55 12.25 11.7 12.35 L11.5 12.35 11.15 12.4 10.95 12.4 7.55 13.25 7.2 13.3 5.3 13.75 2.5 14.2 -2.4 13.9 -6.15 12.95 -8.0 12.35 -10.65 11.35 -13.15 10.25 -15.05 9.35 -16.5 8.5 -16.9 8.25 -18.45 7.25 -19.3 6.65 -19.35 6.6 -21.6 4.75 -22.9 3.5 -23.0 3.4 -23.2 3.25 M8.05 -117.6 L7.8 -117.35 7.6 -117.4 7.05 -117.3 6.8 -117.25 6.15 -117.0 5.8 -117.1 4.25 -117.0 0.4 -116.7 Q-2.1 -116.15 -4.35 -114.95 L-4.55 -114.85 -7.55 -112.2 -7.6 -112.1 -7.85 -111.75 -7.95 -111.65 -7.8 -111.75 -7.5 -111.8 Q-6.75 -111.9 -6.05 -111.25 L-5.6 -110.45 Q-5.0 -109.6 -4.0 -109.0 L-1.65 -107.25 -1.65 -107.15 -2.45 -106.75 -4.35 -108.0 Q-5.45 -108.7 -6.0 -109.75 L-6.35 -110.15 -7.65 -110.4 -9.5 -109.85 -10.4 -109.7 -10.65 -109.65 -12.25 -109.75 -14.9 -109.85 -15.25 -108.85 -15.7 -107.95 Q-16.25 -106.95 -17.35 -106.55 -18.7 -105.75 -20.25 -105.75 L-20.5 -105.75 Q-22.25 -105.85 -23.25 -104.55 -23.45 -104.35 -23.3 -104.15 -23.25 -103.95 -23.55 -103.85 L-23.45 -103.3 -23.4 -103.25 -23.3 -103.0 -23.05 -102.7 -22.4 -102.3 Q-21.9 -98.6 -23.85 -95.6 L-24.75 -94.8 Q-25.25 -94.5 -25.35 -93.85 L-25.6 -93.95 Q-26.0 -92.9 -25.35 -91.9 L-24.6 -91.6 -24.0 -91.7 -23.65 -91.9 -23.15 -92.1 -23.1 -92.15 -21.4 -91.95 -19.45 -90.8 Q-17.1 -88.4 -16.6 -85.4 L-16.5 -84.85 -16.5 -84.25 Q-16.15 -83.7 -15.5 -83.55 -14.75 -84.35 -14.55 -85.45 L-14.4 -85.6 -11.95 -88.55 -10.3 -89.9 -10.2 -89.85 Q-11.75 -88.0 -12.55 -86.0 -9.25 -87.7 -6.2 -85.8 -5.95 -85.65 -6.0 -85.3 L-5.8 -84.95 Q-4.8 -84.7 -4.2 -85.65 L-4.25 -86.1 -3.85 -87.7 -3.85 -87.75 -3.75 -87.95 -3.65 -88.05 -3.55 -88.2 -3.45 -88.35 -3.1 -88.8 -2.3 -89.65 -0.4 -91.3 0.05 -91.3 -0.1 -91.1 -0.1 -91.0 -0.1 -90.9 Q-2.55 -88.45 -3.1 -85.2 -3.5 -84.55 -4.05 -84.3 L-4.9 -84.15 -5.05 -84.15 Q-5.8 -84.2 -6.45 -84.55 -7.1 -84.95 -7.45 -84.05 L-7.55 -83.85 -7.25 -83.3 Q-5.95 -81.05 -4.0 -79.1 L-2.25 -77.55 Q0.95 -75.75 4.45 -75.2 7.0 -74.85 9.65 -75.1 L8.6 -76.5 7.2 -77.65 Q6.7 -78.2 7.2 -78.65 L7.85 -78.45 9.3 -77.55 10.9 -75.9 Q14.9 -72.65 19.95 -73.15 22.9 -73.95 24.25 -76.5 25.6 -79.1 27.3 -81.3 L28.45 -82.2 Q29.05 -82.55 29.25 -83.35 L29.2 -84.0 Q28.95 -85.0 28.15 -85.7 L27.95 -86.6 28.05 -86.65 28.25 -87.0 28.3 -87.4 28.55 -87.35 29.15 -87.2 Q29.9 -86.95 30.6 -86.3 L30.95 -86.4 30.55 -87.95 Q31.1 -90.75 33.4 -92.5 L34.85 -93.05 Q35.6 -93.4 36.35 -92.85 L36.75 -93.65 37.15 -94.45 Q35.1 -97.3 35.05 -100.7 35.3 -101.55 35.9 -102.4 36.45 -103.25 35.65 -104.1 L34.0 -104.15 33.2 -104.75 Q32.75 -105.8 33.5 -106.75 L32.2 -106.95 30.75 -106.6 Q29.6 -107.0 28.85 -107.8 L28.5 -108.2 27.1 -107.25 27.25 -106.65 Q27.5 -105.05 26.7 -103.8 L26.55 -104.5 25.85 -106.4 Q25.25 -107.7 23.75 -108.0 L23.1 -107.7 22.35 -107.35 Q22.0 -107.75 21.4 -107.65 L21.1 -108.4 Q20.1 -110.65 18.5 -112.75 16.6 -115.25 13.75 -116.15 L13.75 -116.05 Q13.6 -116.3 13.3 -116.35 L13.2 -116.4 12.95 -116.5 12.8 -116.85 12.7 -116.65 11.65 -116.85 11.55 -117.1 11.3 -117.6 10.5 -118.2 10.25 -118.2 Q8.95 -118.25 8.05 -117.6 M3.8 -117.75 L4.05 -117.85 3.85 -117.9 2.1 -118.55 Q1.35 -118.3 0.95 -117.55 L3.8 -117.75 M-2.05 -102.8 L-2.05 -102.75 -2.1 -102.75 -2.05 -102.8 M10.45 -97.55 L10.45 -97.6 11.3 -97.65 10.7 -97.6 10.45 -97.55 M17.75 -97.75 L17.9 -97.65 17.75 -97.65 17.75 -97.75 M24.1 -99.4 L24.45 -99.55 24.5 -99.5 24.55 -99.45 24.5 -99.35 24.4 -99.5 24.1 -99.4 M-0.35 -99.1 L-0.4 -99.15 -0.35 -99.1 M17.75 -103.8 L17.2 -103.2 16.85 -103.1 17.25 -103.25 17.75 -103.8 M28.8 -102.85 L28.6 -102.6 28.45 -102.65 28.8 -102.85 M35.2 -56.55 L35.25 -56.55 35.3 -56.5 35.3 -56.55 35.5 -56.9 35.45 -57.1 36.45 -60.1 36.6 -60.45 36.75 -60.5 36.95 -61.0 36.95 -61.45 Q38.4 -65.25 40.4 -68.95 43.7 -75.0 49.8 -78.7 48.15 -80.85 45.35 -81.85 42.55 -82.9 39.7 -82.95 L39.25 -82.3 39.45 -82.6 38.7 -83.05 37.2 -84.45 32.25 -88.65 32.05 -88.85 31.75 -88.15 31.65 -87.4 31.65 -87.25 31.95 -86.45 Q32.2 -86.05 31.75 -85.7 L30.65 -85.55 Q30.05 -85.5 29.65 -86.1 L29.3 -86.4 29.1 -86.5 29.05 -86.5 28.95 -86.5 28.6 -86.45 28.9 -86.2 29.5 -85.4 Q30.05 -84.45 30.0 -83.35 L30.0 -83.25 29.95 -83.15 29.95 -83.05 29.8 -82.6 29.6 -82.05 Q27.3 -79.9 25.75 -76.95 24.2 -74.05 21.15 -72.85 18.65 -71.8 16.35 -72.15 14.4 -72.5 12.6 -73.85 L9.35 -73.35 8.2 -73.35 8.15 -73.35 6.85 -73.4 4.45 -73.75 2.45 -74.25 Q-0.45 -75.1 -2.95 -76.8 L-5.4 -78.7 -6.8 -80.05 -7.4 -80.75 -7.4 -80.8 -8.0 -81.55 -8.2 -81.85 -8.4 -82.15 Q-9.55 -83.8 -10.35 -85.7 L-10.35 -85.75 -10.4 -85.75 -10.8 -85.55 Q-11.65 -85.15 -12.5 -84.9 L-12.55 -84.9 -13.35 -84.35 -13.8 -83.15 -15.4 -82.45 Q-16.1 -82.15 -16.8 -82.75 L-16.95 -82.95 -17.1 -81.65 -17.05 -78.05 -16.45 -73.05 -16.3 -72.35 -15.4 -69.5 -15.3 -69.35 -14.9 -68.15 -14.65 -67.6 -14.5 -67.2 -14.1 -66.3 -13.8 -65.6 Q-12.75 -63.25 -11.35 -61.0 L-10.05 -59.0 -7.3 -55.4 Q-6.5 -55.4 -5.75 -55.75 L-5.0 -56.0 -4.2 -55.95 -1.8 -53.4 -1.05 -52.5 -0.1 -51.65 2.8 -48.95 4.45 -47.45 6.95 -45.65 Q8.55 -45.35 8.4 -43.95 L8.4 -43.25 Q8.5 -42.45 9.15 -41.85 L9.4 -41.65 10.75 -40.6 Q14.6 -37.7 19.0 -35.55 24.15 -33.05 29.8 -32.4 L33.5 -32.2 35.2 -32.5 Q36.15 -32.85 36.95 -33.65 L37.45 -35.85 37.2 -40.7 36.9 -42.65 36.45 -44.6 Q35.45 -47.4 34.6 -50.3 33.75 -53.2 32.05 -55.75 30.5 -57.55 29.7 -59.65 L29.3 -61.0 29.25 -61.1 Q28.95 -62.2 28.9 -63.4 28.9 -67.3 30.1 -70.7 L30.3 -70.45 30.05 -65.85 Q29.9 -64.05 30.45 -62.45 L30.85 -61.5 30.9 -61.4 31.0 -61.25 31.0 -61.4 31.15 -61.05 31.3 -60.7 32.4 -58.95 33.3 -57.8 33.65 -57.4 33.7 -57.35 33.85 -57.15 33.9 -57.1 34.5 -56.7 34.9 -56.55 35.0 -56.55 35.05 -56.55 35.15 -56.55 35.2 -56.55 M48.85 -74.85 L48.6 -75.0 Q47.55 -75.55 46.65 -74.25 46.15 -73.4 45.35 -72.7 44.55 -72.0 44.1 -71.05 L45.0 -70.9 45.3 -70.85 45.85 -70.65 Q47.5 -70.25 48.45 -69.2 46.65 -69.6 44.85 -70.15 L43.6 -70.55 Q42.9 -69.65 42.55 -68.85 L43.8 -68.4 44.5 -67.6 43.5 -67.8 43.35 -67.85 42.8 -68.05 42.6 -68.15 42.35 -68.3 42.15 -68.4 Q38.65 -63.85 37.65 -58.4 37.35 -57.75 37.3 -56.9 L37.15 -55.75 Q38.6 -58.9 40.9 -61.5 L44.35 -64.75 Q49.0 -68.45 54.15 -70.75 52.75 -72.65 50.6 -74.0 L48.85 -74.85 M27.55 -93.85 L27.15 -93.8 27.3 -94.0 27.35 -93.95 27.55 -93.85 M18.15 -92.75 Q18.7 -94.1 20.0 -94.95 L20.85 -94.7 21.05 -94.3 18.6 -92.7 18.5 -92.65 18.0 -92.35 18.15 -92.7 18.15 -92.75 M-2.05 -83.75 L-1.2 -84.3 -2.05 -82.7 Q-2.5 -81.9 -1.85 -81.05 L-1.0 -80.35 -0.75 -80.05 Q1.15 -80.85 3.2 -80.5 L3.2 -80.3 3.2 -80.2 Q1.1 -80.25 -0.55 -79.4 -1.35 -79.3 -1.75 -79.9 L-2.1 -80.35 -2.2 -80.55 -2.6 -81.05 Q-3.05 -81.45 -2.85 -81.9 L-2.85 -82.0 -2.5 -83.0 -2.3 -83.4 -2.05 -83.75 M12.6 -94.05 L12.9 -93.75 Q13.55 -93.5 13.8 -92.95 L11.45 -93.35 11.35 -93.35 11.3 -93.4 10.05 -93.6 9.4 -93.6 9.05 -93.55 Q8.95 -94.15 9.45 -94.6 L11.35 -94.8 12.6 -94.05 M1.65 -84.55 L1.2 -83.85 1.55 -84.25 1.65 -84.55 1.65 -84.9 1.7 -84.9 1.65 -84.65 1.65 -84.6 1.65 -84.55 M9.8 -69.85 L10.5 -70.05 12.05 -70.5 14.05 -70.75 14.45 -70.8 14.45 -70.65 13.6 -70.1 Q10.9 -68.55 7.8 -68.2 L6.4 -68.1 4.45 -68.25 4.1 -68.3 4.05 -68.3 Q2.6 -68.55 1.25 -69.15 L1.2 -69.15 1.2 -69.2 0.95 -69.3 0.9 -69.3 -1.45 -70.75 -2.3 -71.15 Q-4.0 -71.9 -5.2 -73.1 L-4.75 -72.9 -4.45 -72.8 -3.5 -72.4 -1.0 -71.25 -0.5 -71.0 0.1 -70.7 0.1 -70.75 0.35 -70.6 Q1.05 -70.25 1.8 -70.0 L3.55 -69.6 4.45 -69.5 6.2 -69.55 8.55 -69.6 9.8 -69.85 M-6.8 -74.6 L-6.5 -74.3 -7.15 -74.45 -7.65 -74.8 -7.7 -74.85 -8.75 -75.7 -10.05 -76.95 -11.3 -78.7 -12.2 -80.6 -12.05 -80.35 -10.9 -79.0 -10.85 -78.95 -10.75 -78.85 -10.4 -78.5 -10.0 -78.15 -9.55 -77.65 -9.15 -77.2 -9.1 -77.1 -9.1 -77.15 -6.85 -74.65 -6.8 -74.6 M24.0 -42.5 L24.0 -42.75 24.1 -42.55 24.0 -42.5 M28.0 -42.45 L28.0 -42.4 27.95 -42.35 28.0 -42.45 M25.65 -32.5 Q23.1 -33.1 20.7 -34.1 16.1 -35.95 12.1 -38.65 L7.95 -41.8 Q7.3 -38.95 5.55 -36.45 L4.45 -35.05 1.5 -32.4 1.35 -32.05 4.45 -29.55 5.6 -28.75 Q8.3 -26.95 11.3 -25.65 L11.55 -25.55 16.85 -23.8 17.0 -23.75 22.65 -22.4 22.8 -22.35 Q28.8 -21.2 34.75 -23.2 35.4 -25.15 35.7 -27.25 L37.95 -30.9 Q38.75 -32.5 38.3 -34.2 L38.3 -34.25 38.1 -34.9 38.15 -34.2 Q37.5 -32.35 35.7 -31.7 L35.15 -31.65 33.75 -31.65 Q29.55 -31.6 25.65 -32.5 M6.35 -44.5 L5.55 -45.15 4.45 -46.25 3.9 -46.65 Q-0.1 -49.45 -3.15 -53.35 L-4.25 -54.9 -4.4 -55.15 -4.55 -55.1 -5.8 -54.75 -6.3 -54.55 -6.4 -54.5 -6.2 -54.3 Q-5.85 -54.0 -5.55 -54.3 L-4.9 -54.0 Q-4.55 -53.9 -4.65 -53.4 L-8.0 -48.6 -10.4 -46.25 Q-11.6 -45.1 -13.4 -44.85 -13.95 -44.8 -14.1 -45.3 -14.35 -45.8 -14.65 -45.75 -15.15 -44.25 -13.9 -43.1 L-13.65 -42.9 -12.2 -41.25 -12.0 -40.9 -11.9 -40.8 Q-11.45 -40.35 -11.8 -39.85 L-12.2 -40.05 Q-13.25 -40.7 -13.95 -41.7 L-14.0 -41.7 -15.15 -40.25 -15.05 -40.15 -15.4 -39.9 -15.45 -40.0 Q-16.2 -39.9 -16.15 -39.2 L-14.65 -37.5 -9.25 -30.6 -8.5 -29.55 Q-7.95 -29.45 -7.6 -29.9 L-7.4 -30.5 Q-7.0 -30.65 -6.65 -30.95 L-6.05 -31.5 Q-4.85 -32.55 -3.45 -33.3 L-3.25 -33.15 -2.95 -32.95 Q-1.95 -33.0 -1.1 -32.4 L-0.5 -33.05 Q2.5 -34.85 4.45 -37.5 L4.7 -37.85 Q6.65 -40.8 7.35 -44.2 L6.35 -44.5 M-3.3 -31.05 L-4.2 -30.5 Q-4.95 -29.1 -6.2 -28.75 L-8.8 -28.0 Q-13.4 -26.15 -18.4 -24.8 -23.5 -23.5 -28.45 -24.15 -21.05 -17.75 -11.1 -15.2 L-1.95 -14.25 4.45 -13.65 7.45 -13.75 Q12.45 -14.55 17.25 -15.85 22.0 -17.2 26.1 -19.85 L22.5 -20.35 Q14.7 -22.15 7.7 -25.6 6.0 -26.4 4.45 -27.45 L3.4 -28.15 -0.6 -31.0 -1.6 -30.95 -1.75 -31.0 -1.95 -31.15 -2.0 -31.15 -2.55 -31.35 -3.3 -31.05 M20.1 -15.3 L19.25 -14.95 19.95 -13.85 19.95 -13.8 20.25 -13.35 20.95 -11.85 Q21.4 -10.7 21.25 -9.55 L21.1 -8.95 21.0 -8.65 Q20.75 -7.8 20.15 -7.45 L20.15 -8.55 Q14.1 -5.1 7.2 -5.35 6.6 -4.35 5.5 -3.95 L4.45 -3.85 Q3.2 -3.7 2.15 -3.0 0.6 -2.1 -1.35 -2.55 -3.05 -2.7 -3.95 -3.75 L-6.05 -5.65 Q-9.1 -5.35 -11.95 -6.4 L-14.25 -7.4 Q-15.4 -8.0 -16.6 -7.1 -18.85 -7.5 -19.95 -9.45 L-24.95 -12.85 -25.05 -11.75 Q-24.95 -11.2 -25.4 -10.75 L-25.7 -11.3 -25.75 -11.4 Q-26.45 -13.2 -25.7 -15.25 -25.25 -17.4 -23.75 -18.9 L-25.1 -19.8 -27.65 -21.4 -27.85 -21.55 -28.5 -21.0 -29.05 -20.4 -30.4 -18.5 -30.55 -18.25 -30.6 -18.05 -31.7 -16.05 -32.15 -15.5 -32.2 -15.45 Q-32.45 -16.0 -32.2 -16.5 L-32.15 -16.55 Q-31.9 -17.1 -31.8 -17.7 L-32.2 -17.95 -34.25 -19.25 -34.45 -19.35 -34.6 -19.05 Q-35.4 -17.4 -36.65 -15.8 L-36.65 -15.7 -36.75 -15.5 Q-37.45 -13.75 -38.75 -12.5 L-39.35 -12.0 -39.05 -11.6 -37.55 -9.1 -37.0 -8.4 -36.7 -8.1 -36.4 -7.75 -36.15 -7.55 -34.0 -5.6 -31.7 -3.8 -31.1 -3.4 -30.9 -3.25 -29.65 -2.3 Q-28.95 -2.05 -28.3 -1.4 L-26.05 0.0 -23.95 1.2 -23.5 1.45 -20.7 2.5 Q-20.5 2.55 -20.35 2.7 L-9.7 5.3 -8.45 5.4 -7.75 5.45 -7.45 5.5 -6.5 5.55 -4.65 5.6 -4.15 5.6 -4.1 5.6 -3.35 5.6 -3.05 5.6 -2.5 5.6 -0.6 5.55 -0.15 5.55 1.2 5.45 2.55 5.35 3.85 5.25 4.45 5.15 6.95 4.85 Q15.2 3.55 22.2 -0.6 L22.95 -1.8 Q24.25 -1.85 25.3 -2.55 L27.2 -3.85 26.8 -4.15 25.9 -4.75 26.3 -4.95 27.3 -4.5 27.45 -4.4 27.8 -4.25 27.9 -4.3 28.15 -4.45 Q29.0 -4.6 29.65 -5.2 L30.05 -5.65 29.7 -5.9 29.05 -6.3 28.4 -6.65 28.3 -6.7 28.35 -7.0 Q29.65 -7.3 30.65 -6.35 L30.8 -6.2 31.2 -6.65 32.9 -8.55 30.8 -10.6 Q30.6 -11.05 30.75 -11.4 L33.95 -8.8 Q34.4 -10.05 35.75 -10.5 37.05 -10.95 37.6 -12.3 35.9 -14.25 34.95 -16.5 L34.75 -16.4 33.15 -15.4 33.0 -15.3 32.25 -14.7 Q31.45 -14.0 30.5 -13.55 L29.55 -13.2 29.65 -12.85 29.35 -12.1 29.05 -12.4 Q28.35 -15.8 25.55 -17.5 L21.55 -15.9 21.5 -15.9 20.1 -15.3 M17.0 -8.2 Q18.45 -8.75 19.8 -9.55 L20.2 -9.75 19.4 -11.85 Q18.75 -13.35 17.45 -13.75 L15.9 -13.3 8.5 -11.75 Q8.55 -10.7 7.7 -10.0 L8.3 -8.9 8.25 -8.1 Q8.05 -7.3 7.2 -6.65 L13.8 -7.25 Q15.45 -7.6 17.0 -8.2 M-7.6 -11.95 L-7.4 -11.25 Q-6.95 -10.4 -7.3 -9.25 -7.15 -8.3 -6.1 -8.15 -5.65 -7.8 -5.75 -7.2 -5.85 -6.65 -5.55 -6.0 L-3.55 -4.85 -1.5 -3.55 Q0.85 -2.75 3.0 -4.45 L4.45 -4.6 5.05 -5.05 Q5.75 -5.9 5.95 -6.95 L6.85 -7.85 Q7.3 -8.8 6.65 -9.65 6.15 -10.3 6.65 -10.75 L6.75 -10.85 Q7.3 -11.35 7.0 -12.1 L5.65 -12.2 Q5.05 -12.2 4.95 -11.85 L3.85 -12.2 Q3.55 -12.1 3.4 -11.85 L3.3 -12.1 Q0.5 -13.1 -2.3 -12.8 -3.25 -12.65 -3.6 -12.1 L-3.4 -12.35 -3.85 -12.45 -4.65 -12.1 -4.55 -12.35 Q-5.6 -13.1 -7.1 -13.0 L-7.6 -11.95 M28.4 -16.0 L28.5 -15.65 Q28.6 -15.0 29.2 -14.3 L34.0 -17.65 Q34.1 -18.45 34.85 -18.95 L35.9 -20.1 35.55 -20.8 34.85 -22.1 Q33.85 -21.45 32.8 -21.35 L30.55 -21.1 Q30.25 -20.85 30.25 -20.45 L29.8 -19.9 28.4 -18.6 Q27.5 -18.0 27.85 -17.05 L27.9 -16.95 27.95 -16.9 28.4 -16.0 M27.35 0.8 L27.65 0.5 29.05 -0.95 30.85 -2.6 31.85 -3.3 32.0 -3.5 32.1 -3.65 Q34.1 -4.4 35.75 -5.7 L36.6 -6.65 37.85 -8.0 38.1 -8.15 37.45 -9.3 Q36.65 -8.35 35.5 -7.9 34.35 -6.7 32.9 -5.8 L30.3 -3.75 Q29.35 -3.05 28.35 -2.7 27.3 -2.3 26.35 -1.6 L24.75 -0.45 20.6 1.8 16.7 3.55 14.5 4.6 14.4 4.65 14.1 4.75 13.8 4.85 12.35 5.35 11.25 5.55 9.35 5.65 9.1 5.65 8.95 5.65 8.75 5.65 6.9 5.8 5.4 6.0 4.45 6.2 4.0 6.35 Q-2.8 7.6 -9.6 6.45 -15.6 5.4 -21.4 3.85 L-21.3 3.95 -20.95 4.25 -20.9 4.25 -19.95 5.05 -17.55 6.65 -14.75 8.2 -14.1 8.6 -13.4 8.9 -13.2 9.0 -11.95 9.6 -10.5 10.15 -10.15 10.3 -8.15 11.05 -7.6 11.25 -6.8 11.5 -3.25 12.5 -1.9 12.75 0.3 13.05 5.0 12.6 5.35 12.5 6.9 12.15 8.35 11.8 8.7 11.7 10.05 11.35 11.85 11.3 12.25 11.3 12.55 11.15 Q11.95 9.8 11.85 8.4 12.6 9.2 13.0 10.25 L13.1 10.55 13.2 10.5 13.25 10.45 13.7 10.3 14.9 10.0 17.6 9.1 17.85 9.05 18.45 8.75 Q18.3 8.5 18.5 8.25 L18.6 8.15 Q18.45 7.75 18.8 7.5 L18.7 7.0 18.65 6.95 18.2 6.0 18.3 5.8 18.35 5.8 18.95 6.3 19.05 6.4 19.5 7.1 19.65 7.0 19.75 6.95 20.55 6.4 21.25 5.9 21.4 5.8 21.6 5.6 Q23.05 4.65 24.3 3.4 L24.95 2.85 25.65 2.35 27.35 0.8 M-1.55 -0.15 Q-1.65 1.35 -2.7 2.45 L-2.75 2.5 -2.25 0.95 -2.05 -0.1 -2.05 -0.15 -1.55 -0.95 -1.55 -0.15 M0.4 1.65 L-0.2 2.45 0.4 -0.1 Q0.95 0.65 0.4 1.65 M-17.7 -72.9 Q-19.85 -79.9 -18.4 -87.25 L-19.05 -88.05 -19.9 -88.4 -21.05 -88.75 Q-22.15 -88.95 -22.9 -89.6 L-22.0 -90.8 -24.95 -90.55 -26.35 -84.4 Q-26.9 -81.25 -26.65 -77.95 L-24.0 -78.4 -21.3 -78.35 -26.65 -77.35 Q-26.75 -76.7 -26.5 -76.15 -26.25 -75.65 -26.45 -75.1 L-24.85 -75.55 -23.3 -75.6 Q-24.65 -74.7 -26.35 -74.5 -26.0 -68.55 -24.45 -63.25 -22.3 -58.35 -19.6 -53.8 -17.7 -50.45 -15.0 -47.55 L-12.9 -45.45 Q-8.6 -48.05 -6.6 -52.45 L-6.0 -53.0 -6.75 -53.65 Q-9.55 -56.1 -11.5 -59.2 -15.4 -65.55 -17.6 -72.6 L-17.7 -72.9 M-19.0 -72.55 L-18.15 -72.85 -17.95 -72.85 Q-18.8 -72.25 -19.7 -71.75 -21.7 -70.65 -23.95 -70.0 -21.6 -71.6 -19.0 -72.55 M-26.85 -86.75 Q-26.45 -88.8 -25.35 -90.65 -26.85 -91.95 -26.5 -93.9 -30.55 -92.35 -33.3 -89.25 -36.1 -86.2 -38.2 -82.9 -36.35 -81.15 -34.95 -79.2 L-33.5 -76.9 -33.3 -76.45 -32.85 -75.6 -32.85 -75.55 -32.55 -74.9 -32.3 -74.25 -32.2 -74.0 -31.3 -70.8 -31.15 -69.85 Q-30.85 -68.05 -30.85 -66.1 L-30.85 -65.6 -30.95 -65.6 -31.25 -66.9 -31.45 -67.7 -31.5 -67.75 -32.45 -71.2 -32.75 -72.2 -33.35 -74.05 -33.4 -74.15 -33.45 -74.2 -33.45 -74.25 Q-34.65 -77.85 -37.35 -80.65 L-38.5 -81.75 Q-39.3 -81.9 -39.9 -82.5 -42.85 -82.7 -45.5 -81.7 L-45.65 -81.65 -50.15 -79.35 -50.5 -79.15 -50.45 -79.15 Q-47.05 -77.05 -44.7 -74.15 L-44.35 -73.7 -44.25 -73.55 -41.55 -70.35 -39.6 -68.2 -36.9 -69.1 -36.75 -69.15 Q-35.5 -69.7 -34.1 -69.85 L-33.9 -69.65 -36.6 -68.35 -37.55 -67.95 -39.1 -67.3 -38.4 -65.9 -38.05 -66.05 -36.45 -66.75 -36.25 -66.4 Q-37.0 -65.65 -38.0 -65.35 -35.75 -60.55 -34.6 -55.3 L-31.85 -57.9 -30.65 -63.4 -30.45 -63.4 Q-30.1 -61.6 -30.35 -59.55 L-30.4 -59.1 Q-30.55 -56.7 -31.95 -54.65 -33.5 -52.5 -33.1 -49.65 -34.05 -48.4 -34.65 -46.95 L-35.05 -45.7 Q-35.4 -43.7 -36.05 -41.65 -36.7 -39.6 -35.75 -37.65 -33.65 -35.05 -30.15 -35.5 L-29.2 -35.3 Q-23.0 -34.3 -17.8 -37.3 L-17.4 -38.05 Q-16.55 -38.3 -16.9 -38.9 -17.3 -39.5 -17.2 -40.0 L-17.05 -40.0 -16.9 -40.9 -15.8 -41.0 Q-15.05 -41.3 -14.45 -42.2 -15.75 -43.35 -15.45 -45.0 -18.8 -49.2 -21.35 -54.0 L-23.3 -58.05 -23.7 -59.05 -25.15 -62.85 -25.25 -63.25 Q-26.4 -66.85 -26.95 -70.65 L-27.3 -73.55 -27.35 -74.35 -27.4 -74.75 -27.4 -75.1 Q-27.65 -78.0 -27.55 -80.9 L-27.45 -82.45 -27.45 -82.75 -27.35 -84.0 -27.15 -84.2 -27.05 -85.75 -26.85 -86.75 M-24.7 -42.6 L-24.75 -42.6 -24.7 -42.6 M-38.55 -60.75 Q-40.35 -65.65 -42.7 -70.25 L-43.3 -70.55 -46.05 -69.2 -46.25 -69.35 Q-45.1 -70.6 -43.5 -71.05 L-44.45 -72.2 -47.2 -70.75 Q-47.85 -70.25 -48.5 -70.55 L-45.1 -72.7 -47.15 -75.1 Q-51.15 -73.6 -54.3 -70.85 -49.65 -69.35 -45.65 -66.35 L-44.45 -65.4 Q-41.25 -62.8 -38.7 -59.45 L-38.2 -59.75 -38.55 -60.75 M-20.2 -58.8 L-20.3 -58.9 -18.3 -59.9 Q-18.95 -58.8 -20.2 -58.8 M-4.55 -51.8 L-4.5 -51.85 -4.9 -51.05 -4.55 -51.8 M-21.0 -61.3 Q-19.3 -62.85 -17.0 -63.65 -18.8 -62.05 -21.0 -61.3 M-15.2 -36.95 L-16.05 -37.9 Q-15.9 -37.5 -16.25 -37.3 L-16.75 -37.7 Q-19.65 -34.65 -23.85 -34.35 -28.1 -34.05 -31.75 -34.35 -35.35 -34.85 -36.9 -37.7 L-37.55 -36.55 Q-38.2 -35.4 -37.4 -34.35 -36.65 -33.35 -36.4 -32.2 L-35.85 -29.95 -35.65 -29.5 -35.3 -27.9 Q-31.35 -24.95 -25.85 -25.25 -21.65 -24.95 -17.4 -26.35 -15.9 -26.85 -14.45 -27.5 -11.95 -28.7 -9.75 -30.45 -12.45 -33.95 -15.2 -36.95 M-36.85 -36.0 L-35.2 -34.8 Q-36.4 -34.9 -36.85 -36.0 M-28.75 -32.65 Q-31.6 -32.8 -33.85 -34.1 -29.7 -32.7 -25.1 -33.2 -21.25 -33.8 -17.7 -35.4 -20.05 -33.45 -23.25 -33.0 L-28.75 -32.65 M-23.15 -12.95 L-20.45 -11.4 -20.25 -12.9 -19.3 -15.3 Q-20.9 -16.35 -22.6 -17.2 L-23.6 -17.7 Q-24.7 -15.9 -24.7 -14.15 L-23.15 -12.95 M-33.95 -24.0 L-34.2 -23.55 Q-34.25 -22.15 -33.45 -20.8 -32.7 -19.45 -31.3 -18.8 L-30.8 -19.6 -29.3 -21.65 -33.2 -25.1 -33.95 -24.0 M-14.95 -14.6 L-14.9 -14.7 -18.25 -15.85 Q-19.6 -14.0 -19.55 -11.55 -19.7 -9.4 -18.0 -8.4 -17.35 -8.4 -16.9 -7.9 L-16.85 -8.3 -16.8 -8.3 -16.2 -8.3 -16.1 -7.9 -15.2 -8.2 Q-15.1 -11.65 -12.95 -14.1 L-14.15 -14.35 -14.6 -13.85 -14.25 -14.3 -14.8 -14.65 -14.95 -14.6 M-8.8 -9.4 L-8.75 -9.75 -8.75 -9.8 -8.65 -10.15 Q-8.25 -11.25 -8.3 -12.3 L-10.6 -12.75 -10.75 -12.8 -12.45 -13.2 -12.7 -13.3 Q-13.8 -11.05 -14.2 -8.6 L-12.0 -7.55 Q-9.45 -6.6 -6.65 -6.6 L-6.55 -7.4 Q-7.55 -7.55 -8.3 -8.1 L-8.8 -9.4 M-20.25 1.9 L-20.65 1.85 Q-20.5 1.35 -20.25 1.7 L-20.25 1.9" fill="#000000" fill-rule="evenodd" stroke="none"/>
    <path d="M4.7 -101.0 Q5.2 -100.8 4.9 -100.3 L4.7 -100.05 4.6 -100.0 Q4.15 -100.0 4.15 -100.45 L4.15 -100.5 4.45 -100.75 4.7 -101.0 M18.1 -99.85 L18.15 -99.9 18.2 -99.8 18.0 -99.8 18.1 -99.85 M18.85 -100.5 L19.15 -100.75 19.4 -101.0 Q19.9 -100.8 19.6 -100.3 L19.4 -100.05 19.3 -100.0 Q18.85 -100.0 18.85 -100.45 L18.85 -100.5 M28.9 -86.2 L28.6 -86.45 28.95 -86.5 28.9 -86.2 M-7.85 -111.75 L-7.8 -111.75 -7.95 -111.65 -7.85 -111.75" fill="#ffffff" fill-rule="evenodd" stroke="none"/>
    <path d="M-1.65 -107.15 L-1.65 -107.0 -1.35 -107.0 Q1.25 -108.85 3.65 -107.55 L3.8 -107.45 4.45 -107.05 7.65 -105.1 8.55 -104.55 8.8 -104.45 Q9.45 -104.15 10.1 -104.45 L11.4 -104.8 11.7 -104.75 12.1 -104.15 11.45 -103.75 Q10.25 -103.0 9.2 -103.5 8.55 -103.8 7.95 -104.25 L7.1 -104.9 6.7 -105.25 Q5.65 -106.2 4.45 -106.6 L3.95 -106.75 3.35 -107.0 0.2 -106.95 0.05 -106.9 -0.05 -106.85 -0.35 -106.75 -0.55 -106.65 -0.8 -106.55 -2.75 -105.5 -3.25 -105.15 -3.9 -105.55 -2.25 -106.6 -2.45 -106.75 -1.65 -107.15 M21.4 -107.65 Q22.0 -107.75 22.35 -107.35 L20.6 -106.3 17.75 -103.8 17.25 -103.25 16.85 -103.1 16.85 -103.05 16.2 -102.85 15.6 -102.6 14.85 -102.4 14.1 -102.45 14.05 -102.5 14.8 -102.75 Q16.5 -103.45 17.75 -104.95 L18.75 -106.0 Q19.9 -107.05 21.4 -107.6 L21.4 -107.65 M28.55 -87.35 L28.3 -87.4 28.25 -87.0 28.05 -86.65 27.95 -86.6 Q27.05 -89.6 24.65 -91.6 23.95 -92.25 23.15 -92.5 L23.1 -92.5 23.05 -92.55 22.95 -92.55 Q22.4 -92.8 22.0 -93.3 L21.8 -93.65 22.0 -94.3 22.2 -95.95 18.75 -96.4 17.5 -96.3 16.95 -96.15 16.15 -95.8 15.6 -95.45 14.9 -95.5 Q13.4 -95.75 11.95 -96.5 L10.6 -96.65 9.45 -96.3 9.15 -96.15 Q7.8 -95.35 6.6 -94.4 L6.5 -94.35 Q6.35 -94.1 6.5 -93.9 L6.8 -93.75 6.85 -93.65 7.35 -93.0 7.4 -92.9 Q7.6 -92.5 7.25 -92.15 L6.8 -92.45 6.85 -92.45 6.55 -92.85 6.35 -93.15 6.15 -93.35 6.1 -93.4 6.0 -93.6 5.35 -93.2 Q4.9 -92.9 4.35 -92.95 L3.3 -93.05 3.15 -93.05 Q2.6 -93.25 2.15 -93.55 L1.35 -94.2 1.3 -94.25 0.45 -95.1 -0.5 -96.15 -1.1 -96.8 -1.1 -96.85 -1.15 -96.95 -1.2 -97.2 -1.2 -97.45 -0.65 -97.7 -0.65 -97.65 Q0.2 -96.4 1.3 -95.55 L1.9 -95.1 3.2 -94.3 4.3 -94.05 4.45 -94.0 Q5.45 -93.85 6.1 -94.45 L5.7 -94.45 5.5 -94.45 5.75 -94.65 6.45 -94.8 6.5 -94.8 6.5 -95.0 Q7.25 -96.1 8.35 -96.6 9.4 -96.9 10.4 -97.5 L10.45 -97.55 10.7 -97.6 11.3 -97.65 11.5 -97.65 11.55 -97.65 11.6 -97.7 11.95 -97.65 Q13.0 -97.4 14.1 -96.55 L14.1 -96.5 14.25 -96.4 14.3 -96.35 14.35 -96.35 Q14.6 -96.15 14.9 -96.05 L14.95 -96.0 15.75 -96.05 16.55 -96.6 16.65 -96.65 16.9 -96.9 16.7 -97.15 14.85 -99.25 15.05 -99.45 Q16.5 -99.35 17.5 -97.9 L17.75 -97.75 17.75 -97.65 17.9 -97.65 17.95 -97.65 18.25 -97.6 18.45 -97.6 18.5 -97.6 18.6 -97.6 19.95 -97.3 20.0 -97.25 20.1 -97.25 20.7 -97.1 21.35 -97.15 Q21.95 -97.3 22.35 -97.9 23.0 -98.85 23.95 -99.35 L24.1 -99.4 24.4 -99.5 24.5 -99.35 23.75 -98.2 24.05 -98.7 24.05 -98.3 24.0 -98.0 23.75 -97.15 Q24.3 -96.1 24.15 -94.9 L24.1 -94.7 25.05 -93.75 27.2 -91.05 27.9 -89.75 28.5 -87.55 28.55 -87.35 M-2.05 -102.8 Q-1.1 -103.7 0.45 -103.95 1.5 -104.25 2.15 -103.65 L2.3 -103.55 4.0 -102.5 4.3 -102.3 4.45 -102.25 4.5 -102.25 Q4.9 -102.25 4.95 -101.95 L6.3 -101.25 8.3 -100.3 Q9.6 -100.45 10.65 -101.05 11.55 -101.55 12.6 -101.8 L13.0 -101.9 12.9 -101.5 12.35 -100.9 9.75 -99.4 9.1 -99.25 6.1 -96.75 4.9 -96.4 4.45 -96.35 4.0 -96.3 Q1.3 -97.3 -0.35 -99.1 1.0 -98.55 2.5 -97.65 3.45 -97.1 4.45 -97.25 L5.65 -97.65 5.55 -97.65 5.35 -97.75 5.2 -97.85 4.15 -98.25 Q3.9 -98.3 3.75 -98.45 L2.5 -99.35 2.3 -99.5 Q1.9 -99.85 2.15 -100.15 L2.7 -99.95 3.15 -99.7 3.7 -99.4 4.15 -99.1 4.25 -99.05 4.35 -98.95 4.45 -98.9 4.55 -98.85 4.65 -98.75 4.8 -98.7 Q5.25 -98.45 5.8 -98.35 L6.7 -98.3 6.85 -98.2 7.1 -98.35 7.0 -98.35 7.2 -98.55 7.75 -99.0 7.9 -99.4 7.9 -99.45 7.85 -99.55 7.75 -99.6 7.65 -99.7 6.85 -100.15 6.6 -100.25 6.55 -100.25 6.45 -100.25 5.8 -100.6 5.6 -100.85 5.05 -101.25 5.0 -101.2 4.65 -101.45 4.0 -101.65 3.45 -101.4 3.2 -101.25 2.55 -100.9 1.7 -101.4 1.6 -101.7 1.85 -101.8 -0.1 -100.95 -0.25 -101.0 0.35 -101.55 Q1.45 -102.35 2.9 -102.5 1.6 -103.95 -0.05 -103.25 L-1.0 -102.8 -1.05 -102.8 -1.1 -102.75 -1.3 -102.65 -1.35 -102.65 -1.45 -102.65 -2.05 -102.75 -2.05 -102.8 M15.0 -101.5 L15.1 -101.45 16.3 -100.8 16.35 -100.75 16.55 -100.6 Q17.15 -100.25 17.75 -100.75 18.95 -102.3 20.55 -103.4 21.35 -104.0 22.3 -104.2 L22.35 -104.2 24.15 -104.3 22.35 -103.6 Q23.4 -103.45 24.15 -102.7 L22.2 -102.9 22.2 -102.75 Q22.2 -101.75 21.45 -101.15 L21.2 -101.3 20.4 -101.6 20.25 -101.8 20.15 -101.65 20.35 -101.6 19.75 -101.25 19.7 -101.2 19.55 -101.2 19.45 -101.05 19.4 -101.0 19.15 -100.75 18.85 -100.5 18.8 -100.45 18.45 -100.15 18.15 -99.9 18.1 -99.85 17.9 -99.75 17.85 -99.7 17.6 -99.4 17.55 -99.15 18.0 -99.0 18.5 -98.7 19.6 -98.6 19.8 -98.7 20.65 -99.15 21.9 -100.15 22.0 -100.2 22.2 -100.2 Q22.65 -99.85 22.2 -99.55 L22.05 -99.45 21.1 -98.4 21.05 -98.35 Q20.15 -97.85 19.1 -97.95 L18.6 -98.1 Q18.0 -98.25 17.6 -98.65 17.1 -98.75 16.85 -99.3 16.7 -99.6 16.85 -99.75 L16.2 -99.75 15.1 -100.55 14.65 -100.9 Q14.55 -101.15 14.9 -101.5 L15.0 -101.5 M20.15 -101.65 L20.1 -101.65 20.15 -101.65 M23.8 -93.25 L23.65 -93.3 23.85 -93.15 23.8 -93.25 M28.15 -83.7 L28.3 -83.45 Q27.6 -83.25 27.05 -82.9 L27.1 -82.9 26.75 -82.7 25.95 -81.95 25.75 -81.65 25.15 -80.95 25.05 -80.8 23.75 -79.1 23.65 -79.0 Q22.45 -76.85 20.15 -76.4 L18.55 -76.2 18.5 -76.2 17.1 -76.4 17.0 -76.45 16.55 -76.6 15.25 -77.15 13.3 -77.95 13.15 -78.0 9.7 -79.8 8.15 -80.7 8.1 -80.8 7.45 -81.3 7.4 -81.35 5.95 -82.15 5.6 -82.3 5.4 -82.35 4.55 -82.65 4.45 -82.65 3.8 -82.65 3.4 -82.55 2.15 -82.25 1.95 -82.2 1.9 -82.2 1.5 -82.1 0.3 -81.85 0.3 -82.25 1.3 -82.7 2.8 -83.1 4.45 -83.05 5.35 -82.8 10.05 -80.35 Q12.35 -78.8 14.75 -78.15 17.05 -77.2 19.95 -77.05 21.95 -78.6 23.75 -80.65 25.6 -82.7 28.0 -83.75 L28.1 -83.75 28.15 -83.7" fill="#253c04" fill-rule="evenodd" stroke="none"/>
    <path d="M45.3 -70.85 L45.0 -70.9 44.1 -71.05 Q44.55 -72.0 45.35 -72.7 46.15 -73.4 46.65 -74.25 47.55 -75.55 48.6 -75.0 L48.85 -74.85 47.2 -73.35 45.3 -70.85 M40.9 -61.5 Q38.6 -58.9 37.15 -55.75 L37.3 -56.9 Q37.35 -57.75 37.65 -58.4 38.65 -63.85 42.15 -68.4 L42.35 -68.3 42.6 -68.15 42.8 -68.05 43.35 -67.85 43.5 -67.8 42.55 -65.9 40.95 -61.75 40.9 -61.5 M43.8 -68.4 L42.55 -68.85 Q42.9 -69.65 43.6 -70.55 L44.85 -70.15 44.6 -69.8 43.8 -68.4 M-19.9 -88.4 L-19.05 -88.05 -18.4 -87.25 Q-19.85 -79.9 -17.7 -72.9 L-17.95 -72.85 -18.15 -72.85 -19.0 -72.55 -19.8 -72.25 Q-20.25 -74.4 -20.3 -76.6 L-20.6 -81.7 -20.45 -85.4 -20.2 -86.9 -19.95 -88.2 -19.9 -88.4 M-44.45 -65.4 Q-43.2 -66.9 -41.55 -67.9 -40.15 -64.95 -39.0 -61.85 L-39.0 -61.8 -38.95 -61.8 -38.55 -60.75 -38.2 -59.75 -38.7 -59.45 Q-41.25 -62.8 -44.45 -65.4" fill="#714226" fill-rule="evenodd" stroke="none"/>
    <path d="M11.2 -70.55 L11.25 -70.5 11.2 -70.5 11.2 -70.55 M25.65 -32.5 Q25.0 -31.8 25.8 -31.35 26.15 -30.75 26.9 -30.45 L28.4 -29.9 30.0 -29.45 29.65 -29.0 28.55 -27.45 29.05 -27.1 28.45 -27.5 Q27.5 -27.3 27.75 -26.25 L26.4 -24.15 25.15 -24.2 23.7 -24.35 22.2 -24.55 Q22.8 -25.1 22.45 -26.05 21.5 -27.05 20.3 -26.55 20.0 -26.3 20.15 -25.95 L20.3 -25.3 20.85 -24.75 Q18.5 -25.2 16.2 -25.95 L14.6 -26.45 Q11.8 -27.15 9.2 -28.3 7.75 -28.95 6.45 -29.8 L7.15 -30.95 7.9 -32.1 11.7 -37.25 Q12.25 -38.0 12.1 -38.65 16.1 -35.95 20.7 -34.1 23.1 -33.1 25.65 -32.5 M20.75 -29.8 Q21.8 -30.2 21.55 -31.55 21.0 -32.75 19.7 -32.75 L18.8 -32.0 Q18.35 -31.65 18.7 -30.9 19.3 -29.75 20.75 -29.8 M13.3 -32.45 Q12.25 -32.1 12.45 -30.9 13.05 -30.0 13.95 -30.0 15.0 -30.35 14.75 -31.65 14.4 -32.8 13.3 -32.45 M6.9 5.8 L6.35 5.85 5.4 6.0 6.9 5.8 M-8.15 11.05 L-8.05 10.2 -8.15 9.5 Q-1.85 11.1 4.75 10.15 L4.75 10.1 4.95 9.95 9.55 8.6 11.7 7.95 11.85 8.4 Q11.95 9.8 12.55 11.15 L12.25 11.3 11.85 11.3 10.05 11.35 8.7 11.7 8.35 11.8 6.9 12.15 5.35 12.5 5.0 12.6 0.3 13.05 -1.9 12.75 -3.25 12.5 -6.8 11.5 -7.6 11.25 -8.15 11.05 M13.0 10.25 L13.2 10.5 13.1 10.55 13.0 10.25 M19.75 6.95 Q19.05 5.35 17.95 4.4 L18.65 5.15 26.35 0.4 27.0 0.9 27.15 0.95 27.35 0.8 25.65 2.35 24.95 2.85 24.3 3.4 Q23.05 4.65 21.6 5.6 L21.4 5.8 21.25 5.9 20.55 6.4 19.75 6.95 M-15.0 -47.55 Q-17.7 -50.45 -19.6 -53.8 -22.3 -58.35 -24.45 -63.25 -26.0 -68.55 -26.35 -74.5 -24.65 -74.7 -23.3 -75.6 L-24.85 -75.55 -26.45 -75.1 Q-26.25 -75.65 -26.5 -76.15 -26.75 -76.7 -26.65 -77.35 L-21.3 -78.35 -24.0 -78.4 -26.65 -77.95 Q-26.9 -81.25 -26.35 -84.4 L-24.95 -90.55 -22.0 -90.8 -22.9 -89.6 Q-22.15 -88.95 -21.05 -88.75 L-19.9 -88.4 -19.95 -88.2 -20.2 -86.9 -20.45 -85.4 -20.6 -81.7 -20.3 -76.6 Q-20.25 -74.4 -19.8 -72.25 L-19.0 -72.55 Q-21.6 -71.6 -23.95 -70.0 -21.7 -70.65 -19.7 -71.75 L-19.55 -71.1 -18.8 -68.2 Q-17.9 -65.1 -16.25 -62.35 -14.4 -59.2 -11.95 -56.45 L-10.1 -54.25 -9.35 -53.35 -10.85 -52.15 -14.7 -47.95 -15.0 -47.55 M-20.2 -58.8 Q-18.95 -58.8 -18.3 -59.9 L-20.3 -58.9 -20.2 -58.8 M-21.0 -61.3 Q-18.8 -62.05 -17.0 -63.65 -19.3 -62.85 -21.0 -61.3 M-35.65 -29.5 L-35.85 -29.95 -36.4 -32.2 Q-36.65 -33.35 -37.4 -34.35 -38.2 -35.4 -37.55 -36.55 L-36.9 -37.7 Q-35.35 -34.85 -31.75 -34.35 -28.1 -34.05 -23.85 -34.35 -19.65 -34.65 -16.75 -37.7 L-16.25 -37.3 Q-15.9 -37.5 -16.05 -37.9 L-15.2 -36.95 -15.35 -36.85 -15.55 -36.5 -16.05 -36.15 -16.2 -36.0 -17.1 -35.9 Q-18.0 -35.6 -17.65 -34.65 L-17.7 -33.75 -16.85 -30.95 -16.4 -29.85 Q-17.9 -29.25 -19.5 -28.9 L-22.4 -28.25 -33.0 -27.9 Q-33.6 -28.6 -34.5 -28.95 L-35.65 -29.5 M-28.75 -32.65 L-23.25 -33.0 Q-20.05 -33.45 -17.7 -35.4 -21.25 -33.8 -25.1 -33.2 -29.7 -32.7 -33.85 -34.1 -31.6 -32.8 -28.75 -32.65 M-36.85 -36.0 Q-36.4 -34.9 -35.2 -34.8 L-36.85 -36.0" fill="#99502e" fill-rule="evenodd" stroke="none"/>
    <path d="M35.2 -56.55 L35.15 -56.55 35.05 -56.55 35.0 -56.55 34.9 -56.55 34.5 -56.7 33.9 -57.1 33.85 -57.15 33.6 -57.6 33.7 -57.35 33.65 -57.4 33.3 -57.8 32.4 -58.95 31.3 -60.7 31.15 -61.05 31.0 -61.4 30.9 -61.4 30.85 -61.5 30.45 -62.45 Q29.9 -64.05 30.05 -65.85 L30.3 -70.45 30.1 -70.7 Q28.9 -67.3 28.9 -63.4 28.95 -62.2 29.25 -61.1 L29.3 -61.0 29.7 -59.65 Q30.5 -57.55 32.05 -55.75 33.75 -53.2 34.6 -50.3 35.45 -47.4 36.45 -44.6 L36.9 -42.65 37.2 -40.7 37.45 -35.85 36.95 -33.65 Q36.15 -32.85 35.2 -32.5 L33.5 -32.2 29.8 -32.4 Q24.15 -33.05 19.0 -35.55 14.6 -37.7 10.75 -40.6 L9.4 -41.65 9.15 -41.85 Q8.5 -42.45 8.4 -43.25 L8.4 -43.95 Q8.55 -45.35 6.95 -45.65 L4.45 -47.45 2.8 -48.95 -0.1 -51.65 -0.75 -52.25 -0.7 -52.45 -1.05 -52.5 -1.8 -53.4 -4.2 -55.95 -5.0 -56.0 -5.75 -55.75 Q-6.5 -55.4 -7.3 -55.4 L-10.05 -59.0 -11.35 -61.0 Q-12.75 -63.25 -13.8 -65.6 L-14.1 -66.3 -14.5 -67.2 -14.65 -67.6 -13.45 -66.95 -12.75 -66.55 -12.7 -66.5 -11.95 -65.4 -11.9 -65.3 Q-10.8 -63.25 -9.25 -61.35 L-7.45 -59.3 -3.6 -58.1 -1.45 -57.4 Q-0.3 -58.9 0.15 -60.85 L0.6 -62.15 Q-0.1 -63.65 -0.05 -65.4 L0.1 -66.8 Q-0.65 -68.3 -2.35 -69.15 -3.65 -69.85 -4.7 -70.7 -6.9 -72.55 -9.3 -73.25 -11.95 -73.95 -13.35 -71.6 L-14.35 -69.75 -14.9 -68.15 -15.3 -69.35 -15.4 -69.5 -16.3 -72.35 -16.45 -73.05 -17.05 -78.05 -17.1 -81.65 -16.8 -82.75 Q-16.1 -82.15 -15.4 -82.45 L-13.8 -83.15 -13.35 -84.35 -12.55 -84.9 -12.5 -84.9 Q-11.65 -85.15 -10.8 -85.55 L-10.4 -85.75 -10.35 -85.7 Q-9.55 -83.8 -8.4 -82.15 L-8.2 -81.85 -8.0 -81.55 -7.4 -80.8 -7.4 -80.75 -6.8 -80.05 -6.9 -80.05 -7.0 -80.0 -7.9 -79.65 -8.05 -79.6 Q-9.0 -79.05 -9.1 -78.1 L-9.1 -77.25 -9.15 -77.2 -9.55 -77.65 -10.0 -78.15 -10.4 -78.5 -10.75 -78.85 -10.85 -78.95 -10.9 -79.0 -12.05 -80.35 -12.2 -80.6 -11.3 -78.7 -10.05 -76.95 -8.75 -75.7 -7.7 -74.85 -7.65 -74.8 -7.15 -74.45 -6.5 -74.3 -6.8 -74.6 -6.45 -74.4 -6.25 -74.3 Q-5.4 -73.9 -4.7 -73.35 L-4.2 -72.95 -3.5 -72.4 -4.45 -72.8 -4.75 -72.9 -5.2 -73.1 Q-4.0 -71.9 -2.3 -71.15 L-1.45 -70.75 0.9 -69.3 0.95 -69.3 1.2 -69.2 1.2 -69.15 1.25 -69.15 Q2.6 -68.55 4.05 -68.3 L4.1 -68.3 4.45 -68.25 6.4 -68.1 7.8 -68.2 Q10.9 -68.55 13.6 -70.1 L14.45 -70.65 14.45 -70.8 14.05 -70.75 12.05 -70.5 10.5 -70.05 9.8 -69.85 9.8 -69.9 10.75 -70.5 11.2 -70.5 11.25 -70.5 11.2 -70.55 11.0 -71.15 Q10.75 -72.1 9.9 -72.75 L9.35 -73.35 12.6 -73.85 Q14.4 -72.5 16.35 -72.15 18.65 -71.8 21.15 -72.85 24.2 -74.05 25.75 -76.95 27.3 -79.9 29.6 -82.05 L29.8 -82.6 29.95 -83.05 29.95 -83.15 30.0 -83.25 30.0 -83.35 Q30.05 -84.45 29.5 -85.4 L29.05 -86.05 29.3 -86.4 29.65 -86.1 Q30.05 -85.5 30.65 -85.55 L31.75 -85.7 Q32.2 -86.05 31.95 -86.45 L31.65 -87.25 31.65 -87.4 31.75 -88.15 31.9 -88.55 31.95 -88.5 32.2 -88.65 32.25 -88.65 37.2 -84.45 38.7 -83.05 39.45 -82.6 39.25 -82.3 38.7 -81.55 38.0 -80.5 37.5 -79.7 34.45 -71.7 34.5 -71.2 Q34.15 -69.8 33.95 -68.3 L33.7 -65.4 Q33.65 -64.35 33.75 -63.35 L33.7 -62.85 Q33.65 -61.65 33.85 -60.55 L33.9 -60.25 34.2 -58.85 34.45 -58.15 35.15 -56.8 35.2 -56.55 M28.0 -42.4 L28.05 -42.4 Q29.2 -42.75 29.95 -43.85 L30.6 -45.8 Q31.05 -46.8 30.6 -47.9 L30.55 -47.9 Q30.9 -51.1 29.95 -54.3 L29.95 -54.7 29.7 -57.5 29.5 -58.75 29.1 -60.75 29.2 -60.95 29.1 -60.8 29.05 -60.85 28.85 -61.15 28.7 -61.35 Q28.3 -61.8 28.05 -62.35 L27.9 -62.65 27.45 -63.6 27.1 -64.3 26.9 -64.6 26.5 -65.25 24.8 -67.1 Q23.3 -68.25 21.3 -67.95 L20.8 -67.85 15.05 -66.6 14.5 -66.25 13.8 -65.45 13.75 -65.4 13.7 -65.4 Q12.25 -64.55 11.35 -63.3 L11.15 -63.25 10.85 -62.5 10.45 -61.75 Q8.4 -60.55 7.75 -58.25 L7.35 -56.5 7.25 -55.85 7.25 -55.75 7.25 -55.45 7.2 -55.2 7.2 -55.1 Q7.15 -52.7 8.25 -50.7 L8.25 -50.65 Q8.85 -48.7 9.8 -46.9 L10.0 -46.5 Q11.95 -44.3 14.55 -42.6 L15.7 -41.45 Q18.8 -41.2 22.0 -42.05 L24.0 -42.5 24.1 -42.55 25.75 -42.9 25.8 -42.9 25.75 -42.85 25.45 -42.5 Q26.35 -42.3 27.15 -43.0 L27.15 -43.05 27.25 -43.15 27.4 -43.2 28.4 -43.35 28.45 -43.35 28.15 -42.85 28.1 -42.7 28.0 -42.5 28.0 -42.45 27.95 -42.35 28.0 -42.4 M2.35 -24.95 L1.45 -25.45 Q-0.55 -26.5 -2.9 -26.5 L-3.0 -26.5 -3.1 -26.5 -3.2 -26.5 -3.5 -26.5 -3.75 -26.45 -4.05 -26.45 -5.4 -26.35 -5.8 -26.25 -9.5 -24.8 -10.55 -24.05 -11.95 -22.75 -12.45 -22.55 -12.7 -22.45 Q-13.65 -22.05 -13.75 -21.0 L-13.7 -19.5 -13.8 -18.65 Q-8.25 -16.5 -2.5 -15.9 L-2.55 -16.1 -2.55 -16.2 -3.25 -17.0 -3.05 -17.0 -3.0 -17.0 -3.1 -17.5 -3.35 -18.0 -3.3 -18.15 -3.35 -18.2 -3.35 -18.3 -3.1 -18.4 -3.05 -18.45 -2.95 -18.45 0.0 -19.5 3.2 -19.75 4.05 -19.75 4.85 -19.6 Q5.3 -19.45 5.55 -19.05 L6.0 -18.75 6.3 -18.3 6.45 -18.25 6.25 -17.95 6.15 -17.85 Q6.35 -17.15 5.9 -16.45 L5.4 -15.85 4.25 -15.75 8.45 -16.2 Q10.75 -16.55 12.65 -18.0 L15.5 -20.25 15.45 -20.4 15.4 -20.6 15.35 -20.75 15.2 -21.05 Q9.55 -23.55 3.5 -24.75 L2.35 -24.95 M-2.0 -31.15 L-1.95 -31.15 -1.75 -31.0 -1.6 -30.95 -0.6 -31.0 3.4 -28.15 4.45 -27.45 Q6.0 -26.4 7.7 -25.6 14.7 -22.15 22.5 -20.35 L26.1 -19.85 Q22.0 -17.2 17.25 -15.85 12.45 -14.55 7.45 -13.75 L4.45 -13.65 -1.95 -14.25 -11.1 -15.2 Q-21.05 -17.75 -28.45 -24.15 -23.5 -23.5 -18.4 -24.8 -13.4 -26.15 -8.8 -28.0 L-6.2 -28.75 Q-4.95 -29.1 -4.2 -30.5 L-3.3 -31.05 -2.0 -31.15 M29.05 -12.4 L29.35 -12.1 29.65 -12.85 30.5 -13.55 Q31.45 -14.0 32.25 -14.7 L33.0 -15.3 33.1 -15.3 33.15 -15.4 34.75 -16.4 34.95 -16.5 Q35.9 -14.25 37.6 -12.3 37.05 -10.95 35.75 -10.5 34.4 -10.05 33.95 -8.8 L30.75 -11.4 Q30.6 -11.05 30.8 -10.6 L32.9 -8.55 31.2 -6.65 30.65 -6.35 Q29.65 -7.3 28.35 -7.0 L28.3 -6.7 28.4 -6.65 29.05 -6.3 29.7 -5.9 30.05 -5.65 29.65 -5.2 27.8 -4.55 27.45 -4.4 27.3 -4.5 26.3 -4.95 25.9 -4.75 26.8 -4.15 21.7 -2.35 20.7 -1.95 Q16.8 -0.15 12.6 0.35 L6.55 0.1 5.05 0.55 Q2.35 2.15 4.85 4.15 4.1 4.55 3.85 5.25 L2.55 5.35 1.2 5.45 -0.15 5.55 0.2 4.95 Q0.35 4.6 0.1 4.35 -1.0 3.3 -0.95 1.75 -0.9 0.5 -1.55 -0.15 L-1.55 -0.95 -2.05 -0.15 -1.9 -0.45 -2.35 -0.7 Q-2.7 -1.1 -3.55 -1.2 L-4.15 -0.55 Q-3.6 -2.8 -6.5 -2.9 L-10.95 -1.95 -11.0 -1.75 -11.3 -1.3 -16.85 1.1 -17.65 1.45 -20.35 2.3 -20.55 2.4 -20.7 2.5 -23.5 1.45 -23.95 1.2 -26.05 0.0 -28.3 -1.4 -27.0 -0.8 -24.5 -1.5 Q-23.4 -1.8 -22.6 -2.6 L-22.15 -3.15 -21.4 -4.6 -22.8 -5.4 Q-24.6 -7.3 -27.1 -8.6 -28.9 -9.55 -29.6 -11.35 L-29.9 -11.95 -25.7 -11.25 -25.7 -11.3 -25.75 -11.4 -25.7 -11.3 -25.4 -10.75 Q-24.95 -11.2 -25.05 -11.75 L-24.95 -12.85 -19.95 -9.45 Q-18.85 -7.5 -16.6 -7.1 -15.4 -8.0 -14.25 -7.4 L-11.95 -6.4 Q-9.1 -5.35 -6.05 -5.65 L-3.95 -3.75 Q-3.05 -2.7 -1.35 -2.55 0.6 -2.1 2.15 -3.0 3.2 -3.7 4.45 -3.85 L5.5 -3.95 Q6.6 -4.35 7.2 -5.35 14.1 -5.1 20.15 -8.55 L20.15 -7.45 Q20.75 -7.8 21.0 -8.65 L21.1 -8.95 21.75 -8.95 21.95 -9.0 22.0 -9.0 Q22.6 -8.9 23.05 -9.3 26.3 -10.4 29.05 -12.4 M-4.1 5.6 L-4.15 5.6 -4.65 5.6 -4.2 5.05 -4.1 5.6 M-7.75 5.45 L-8.45 5.4 -7.35 4.4 -7.25 4.3 -7.05 4.0 -7.45 4.6 -7.75 5.45 M-36.4 -7.75 L-36.7 -8.1 -36.65 -8.1 -36.6 -8.0 -36.4 -7.75 M15.7 -3.95 L15.75 -3.95 15.7 -3.95 M8.5 -1.65 L9.7 -1.85 9.7 -1.7 10.0 -1.9 10.9 -2.1 8.5 -1.65 M0.4 1.65 Q0.95 0.65 0.4 -0.1 L-0.2 2.45 0.4 1.65 M-10.55 -79.6 L-10.45 -79.2 -10.35 -79.0 -10.55 -79.6 M-27.3 -73.55 L-26.95 -70.65 Q-26.4 -66.85 -25.25 -63.25 L-25.15 -62.85 -23.7 -59.05 -23.3 -58.05 -21.35 -54.0 Q-18.8 -49.2 -15.45 -45.0 -15.75 -43.35 -14.45 -42.2 -15.05 -41.3 -15.8 -41.0 L-16.9 -40.9 -17.05 -40.0 -17.2 -40.0 Q-17.3 -39.5 -16.9 -38.9 -16.55 -38.3 -17.4 -38.05 L-17.8 -37.3 Q-23.0 -34.3 -29.2 -35.3 L-29.45 -35.4 Q-31.05 -35.95 -30.9 -37.65 -30.75 -39.65 -29.3 -41.0 -28.1 -42.15 -26.5 -42.5 L-26.05 -42.55 -26.65 -43.75 Q-26.45 -44.35 -26.05 -43.75 L-25.35 -42.95 -24.75 -42.6 -24.7 -42.6 -23.95 -42.5 -21.85 -42.3 Q-22.4 -42.4 -22.75 -43.0 -21.9 -43.1 -21.35 -42.6 L-21.35 -42.3 -20.35 -42.35 -19.85 -42.6 -19.05 -42.75 Q-18.75 -46.65 -20.25 -50.25 L-21.5 -54.15 Q-22.9 -55.45 -23.8 -57.1 L-23.95 -57.3 -25.85 -59.45 -25.9 -59.5 -26.15 -60.35 -26.95 -62.95 -27.0 -63.1 -27.35 -63.1 -27.95 -62.6 -27.9 -62.0 Q-27.9 -63.0 -28.4 -63.9 L-28.75 -61.8 -29.6 -59.05 -30.4 -59.1 -30.35 -59.55 Q-30.1 -61.6 -30.45 -63.4 L-30.65 -63.4 -31.85 -57.9 -34.6 -55.3 Q-35.75 -60.55 -38.0 -65.35 -37.0 -65.65 -36.25 -66.4 L-36.45 -66.75 -38.05 -66.05 -37.7 -67.6 -37.55 -67.95 -36.6 -68.35 -33.9 -69.65 -34.1 -69.85 Q-35.5 -69.7 -36.75 -69.15 L-35.75 -69.9 -34.7 -70.15 Q-32.7 -69.7 -31.5 -67.75 L-31.45 -67.7 -31.25 -66.9 -30.95 -65.6 -30.85 -65.6 -30.85 -66.1 Q-30.85 -68.05 -31.15 -69.85 L-30.55 -73.1 Q-30.35 -73.85 -29.65 -74.05 L-28.95 -74.2 Q-27.95 -74.05 -27.3 -73.55 M-0.3 -71.75 L-0.25 -71.75 -0.3 -71.7 -0.3 -71.75 M-27.85 -42.5 L-27.9 -42.5 -28.75 -42.95 -29.2 -43.2 -29.0 -43.3 -29.8 -44.6 Q-30.45 -46.05 -30.05 -47.45 -29.35 -45.4 -27.65 -43.9 -27.8 -43.5 -27.6 -43.2 -27.4 -42.9 -27.65 -42.55 L-27.85 -42.5 M-24.45 -41.75 L-24.45 -41.85 -24.55 -41.75 -24.45 -41.75 M-32.55 -47.2 Q-32.65 -48.05 -32.35 -48.9 L-32.0 -47.0 Q-31.55 -45.3 -30.35 -43.9 -30.35 -43.1 -30.95 -43.3 -31.8 -44.55 -32.3 -46.0 L-32.35 -46.05 -32.45 -46.5 -32.55 -47.2 M-3.15 -18.4 L-3.1 -18.4 -3.2 -18.35 -3.15 -18.4 M-20.25 1.9 L-20.25 1.7 Q-20.5 1.35 -20.65 1.85 L-20.25 1.9" fill="#5a361f" fill-rule="evenodd" stroke="none"/>
    <path d="M39.25 -82.3 L39.7 -82.95 Q42.55 -82.9 45.35 -81.85 48.15 -80.85 49.8 -78.7 43.7 -75.0 40.4 -68.95 38.4 -65.25 36.95 -61.45 L36.95 -61.0 36.75 -60.5 36.6 -60.45 36.45 -60.1 35.45 -57.1 35.5 -56.9 35.3 -56.55 35.3 -56.5 35.25 -56.55 35.2 -56.55 35.15 -56.8 34.45 -58.15 34.2 -58.85 33.9 -60.25 33.85 -60.55 Q33.65 -61.65 33.7 -62.85 L33.75 -63.35 Q33.65 -64.35 33.7 -65.4 L33.95 -68.3 Q34.15 -69.8 34.5 -71.2 L34.45 -71.7 37.5 -79.7 38.0 -80.5 38.7 -81.55 39.25 -82.3 M-14.65 -67.6 L-14.9 -68.15 -14.35 -69.75 -13.35 -71.6 Q-11.95 -73.95 -9.3 -73.25 -6.9 -72.55 -4.7 -70.7 -3.65 -69.85 -2.35 -69.15 -0.65 -68.3 0.1 -66.8 L-0.05 -65.4 Q-0.1 -63.65 0.6 -62.15 L0.15 -60.85 Q-0.3 -58.9 -1.45 -57.4 L-3.6 -58.1 -7.45 -59.3 -9.25 -61.35 Q-10.8 -63.25 -11.9 -65.3 L-9.4 -62.25 -6.6 -59.35 Q-5.15 -59.9 -4.6 -61.25 -4.0 -62.9 -4.6 -64.55 -5.75 -67.65 -9.0 -68.4 -11.4 -69.0 -13.55 -67.85 L-12.75 -66.55 -13.45 -66.95 -14.65 -67.6 M-17.1 -81.65 L-16.95 -82.95 -16.8 -82.75 -17.1 -81.65 M-10.4 -85.75 L-10.35 -85.75 -10.35 -85.7 -10.4 -85.75 M2.45 -74.25 L4.45 -73.75 6.85 -73.4 8.15 -73.35 8.2 -73.35 9.35 -73.35 9.9 -72.75 Q10.75 -72.1 11.0 -71.15 L11.2 -70.55 11.2 -70.5 10.75 -70.5 9.8 -69.9 9.8 -69.85 8.55 -69.6 6.2 -69.55 4.45 -69.5 3.55 -69.6 1.8 -70.0 Q2.5 -70.9 2.65 -72.05 2.75 -73.2 2.45 -74.25 M31.75 -88.15 L32.05 -88.85 32.25 -88.65 32.2 -88.65 31.95 -88.5 31.9 -88.55 31.75 -88.15 M13.8 -65.45 L14.5 -66.25 15.05 -66.6 20.8 -67.85 21.3 -67.95 Q23.3 -68.25 24.8 -67.1 L26.5 -65.25 26.9 -64.6 27.1 -64.3 27.45 -63.6 27.9 -62.65 28.05 -62.35 Q28.3 -61.8 28.7 -61.35 L28.85 -61.15 29.05 -60.85 29.1 -60.8 29.2 -60.95 29.1 -60.75 29.5 -58.75 29.7 -57.5 29.95 -54.7 29.95 -54.3 Q30.9 -51.1 30.55 -47.9 L30.6 -47.9 Q31.05 -46.8 30.6 -45.8 L29.95 -43.85 Q29.2 -42.75 28.05 -42.4 L28.0 -42.4 28.0 -42.45 28.0 -42.5 28.1 -42.7 28.15 -42.85 28.45 -43.35 28.4 -43.35 27.4 -43.2 27.25 -43.15 27.15 -43.05 27.15 -43.0 Q26.35 -42.3 25.45 -42.5 L25.75 -42.85 25.8 -42.9 25.75 -42.9 24.1 -42.55 24.0 -42.5 22.0 -42.05 Q18.8 -41.2 15.7 -41.45 L14.55 -42.6 Q11.95 -44.3 10.0 -46.5 L9.8 -46.9 Q8.85 -48.7 8.25 -50.65 9.2 -48.95 11.15 -47.5 L11.35 -47.65 12.75 -48.1 Q12.8 -53.5 16.05 -57.7 L20.6 -63.3 Q20.95 -63.7 20.8 -64.2 20.55 -65.0 20.6 -65.8 19.55 -66.4 18.0 -66.45 16.35 -66.9 15.05 -65.9 L13.8 -65.45 M20.6 -65.8 L21.4 -65.2 20.6 -65.8 M24.0 -42.5 L24.1 -42.55 24.0 -42.75 24.0 -42.5 M11.35 -63.3 L10.85 -62.5 11.15 -63.25 11.35 -63.3 M28.3 -44.8 L27.85 -44.05 28.1 -44.45 28.3 -44.65 28.3 -44.8 M2.35 -24.95 L3.5 -24.75 Q9.55 -23.55 15.2 -21.05 L15.35 -20.75 15.4 -20.6 15.45 -20.4 15.5 -20.25 12.65 -18.0 Q10.75 -16.55 8.45 -16.2 L4.25 -15.75 5.4 -15.85 5.9 -16.45 Q6.35 -17.15 6.15 -17.85 L6.25 -17.95 6.45 -18.25 6.3 -18.3 6.0 -18.75 5.55 -19.05 Q5.3 -19.45 4.85 -19.6 L4.05 -19.75 3.2 -19.75 Q3.85 -20.6 4.15 -21.75 4.55 -23.2 3.4 -24.15 L2.35 -24.95 M-3.05 -17.0 L-3.25 -17.0 -2.55 -16.2 -2.55 -16.1 -2.5 -15.9 Q-8.25 -16.5 -13.8 -18.65 L-13.7 -19.5 Q-13.2 -17.7 -10.25 -18.3 L-8.55 -18.1 Q-5.95 -16.8 -3.05 -17.0 M-3.3 -31.05 L-2.55 -31.35 -2.0 -31.15 -3.3 -31.05 M19.95 -13.85 L19.25 -14.95 20.1 -15.3 20.0 -14.8 19.95 -13.85 M21.55 -15.9 L25.55 -17.5 Q28.35 -15.8 29.05 -12.4 26.3 -10.4 23.05 -9.3 L23.1 -9.4 Q23.45 -9.75 23.3 -10.2 22.9 -11.75 22.95 -13.45 23.0 -15.35 21.55 -15.9 M29.65 -12.85 L29.55 -13.2 30.5 -13.55 29.65 -12.85 M33.0 -15.3 L33.15 -15.4 33.1 -15.3 33.0 -15.3 M31.2 -6.65 L30.8 -6.2 30.65 -6.35 31.2 -6.65 M29.65 -5.2 Q29.0 -4.6 28.15 -4.45 L27.9 -4.3 27.8 -4.25 27.45 -4.4 27.8 -4.55 29.65 -5.2 M26.8 -4.15 L27.2 -3.85 25.3 -2.55 Q24.25 -1.85 22.95 -1.8 L22.2 -0.6 Q15.2 3.55 6.95 4.85 L4.45 5.15 3.85 5.25 Q4.1 4.55 4.85 4.15 2.35 2.15 5.05 0.55 L6.55 0.1 12.6 0.35 Q16.8 -0.15 20.7 -1.95 L21.7 -2.35 26.8 -4.15 M-8.45 5.4 L-9.7 5.3 -20.35 2.7 Q-20.5 2.55 -20.7 2.5 L-20.55 2.4 -20.35 2.3 -17.65 1.45 -16.85 1.1 -11.3 -1.3 -11.0 -1.75 -10.95 -1.95 -6.5 -2.9 Q-3.6 -2.8 -4.15 -0.55 L-4.7 0.15 -7.05 4.0 -7.25 4.3 -7.35 4.4 -8.45 5.4 M-28.3 -1.4 Q-28.95 -2.05 -29.65 -2.3 L-30.9 -3.25 -31.1 -3.4 -31.7 -3.8 -34.0 -5.6 -36.15 -7.55 -36.4 -7.75 -36.6 -8.0 -36.65 -8.1 -36.7 -8.1 -37.0 -8.4 -37.55 -9.1 -39.05 -11.6 -39.35 -12.0 -38.75 -12.5 Q-38.3 -12.25 -37.7 -12.5 L-37.0 -12.85 -36.45 -13.15 -36.3 -13.25 -36.15 -13.35 Q-34.6 -14.4 -33.25 -15.95 -32.7 -16.55 -32.4 -17.35 L-32.2 -17.95 -31.8 -17.7 -31.85 -17.7 -32.2 -16.5 Q-32.45 -16.0 -32.2 -15.45 L-32.15 -15.5 -31.6 -14.95 Q-29.65 -13.85 -29.1 -15.85 -27.55 -17.65 -25.7 -19.05 -25.3 -19.35 -25.1 -19.8 L-23.75 -18.9 Q-25.25 -17.4 -25.7 -15.25 -26.45 -13.2 -25.75 -11.4 L-25.7 -11.3 -25.7 -11.25 -29.9 -11.95 -29.6 -11.35 Q-28.9 -9.55 -27.1 -8.6 -24.6 -7.3 -22.8 -5.4 L-21.4 -4.6 -22.15 -3.15 -22.6 -2.6 Q-23.4 -1.8 -24.5 -1.5 L-27.0 -0.8 -28.3 -1.4 M-34.6 -19.05 L-34.45 -19.35 -34.25 -19.25 -34.6 -19.05 M-28.5 -21.0 L-27.85 -21.55 -27.65 -21.4 -28.5 -21.0 M21.1 -8.95 L21.25 -9.55 21.8 -9.05 21.95 -9.0 21.75 -8.95 21.1 -8.95 M8.5 -1.65 L10.9 -2.1 10.0 -1.9 9.7 -1.7 9.7 -1.85 8.5 -1.65 M15.7 -3.95 L15.75 -3.95 15.7 -3.95 M-10.55 -79.6 L-10.35 -79.0 -10.45 -79.2 -10.55 -79.6 M-26.85 -86.75 L-27.05 -85.75 -27.15 -84.2 -27.35 -84.0 -27.45 -82.75 -27.45 -82.45 -27.55 -80.9 Q-27.65 -78.0 -27.4 -75.1 L-27.4 -74.75 -27.35 -74.35 -27.3 -73.55 Q-27.95 -74.05 -28.95 -74.2 L-29.65 -74.05 Q-30.35 -73.85 -30.55 -73.1 L-31.15 -69.85 -31.3 -70.8 -32.2 -74.0 -32.3 -74.25 -32.55 -74.9 -32.85 -75.55 -32.85 -75.6 -33.3 -76.45 -33.5 -76.9 -34.95 -79.2 -34.45 -79.75 -31.45 -82.5 -27.8 -85.95 -26.85 -86.75 M-29.2 -35.3 L-30.15 -35.5 Q-33.65 -35.05 -35.75 -37.65 -36.7 -39.6 -36.05 -41.65 -35.4 -43.7 -35.05 -45.7 L-34.65 -46.95 Q-34.05 -48.4 -33.1 -49.65 -33.5 -52.5 -31.95 -54.65 -30.55 -56.7 -30.4 -59.1 L-29.6 -59.05 -29.95 -58.2 -29.85 -58.1 -29.8 -58.2 -29.65 -58.3 -29.4 -58.6 -29.4 -58.55 -28.65 -59.65 -28.45 -60.1 -27.9 -62.0 -27.95 -62.6 -27.35 -63.1 -27.0 -63.1 -26.95 -62.95 -26.15 -60.35 -25.9 -59.5 -25.85 -59.45 -23.95 -57.3 -23.8 -57.1 Q-22.9 -55.45 -21.5 -54.15 L-20.25 -50.25 Q-18.75 -46.65 -19.05 -42.75 L-19.85 -42.6 -20.35 -42.35 -21.35 -42.3 -21.35 -42.6 Q-21.9 -43.1 -22.75 -43.0 -22.4 -42.4 -21.85 -42.3 L-23.95 -42.5 -24.7 -42.6 -24.75 -42.6 -25.35 -42.95 -26.05 -43.75 Q-26.45 -44.35 -26.65 -43.75 L-26.05 -42.55 -26.5 -42.5 Q-28.1 -42.15 -29.3 -41.0 -30.75 -39.65 -30.9 -37.65 -31.05 -35.95 -29.45 -35.4 L-29.2 -35.3 M-38.05 -66.05 L-38.4 -65.9 -39.1 -67.3 -37.55 -67.95 -37.7 -67.6 -38.05 -66.05 M-36.75 -69.15 L-36.9 -69.1 -39.6 -68.2 -41.55 -70.35 -44.25 -73.55 Q-43.5 -74.6 -41.75 -74.95 -40.05 -75.3 -39.2 -76.85 -38.3 -78.5 -37.65 -80.25 L-37.35 -80.65 Q-34.65 -77.85 -33.45 -74.25 L-33.45 -74.2 -33.4 -74.15 -33.4 -74.1 -33.45 -74.05 -33.35 -74.05 -32.75 -72.2 -32.45 -71.2 -31.5 -67.75 Q-32.7 -69.7 -34.7 -70.15 L-35.75 -69.9 -36.75 -69.15 M-50.45 -79.15 L-50.5 -79.15 -50.15 -79.35 -50.45 -79.2 -50.45 -79.15 M-22.75 -51.15 L-22.9 -51.4 Q-25.1 -51.65 -26.8 -53.7 L-28.75 -56.1 Q-29.75 -55.95 -30.45 -56.4 L-31.05 -54.55 -31.15 -52.8 Q-31.15 -50.6 -29.55 -49.05 -27.85 -47.45 -26.5 -47.85 L-24.25 -48.1 -23.3 -49.4 Q-22.85 -50.15 -22.9 -51.05 L-22.55 -51.4 -22.75 -51.15 M-27.65 -42.55 Q-27.4 -42.9 -27.6 -43.2 -27.8 -43.5 -27.65 -43.9 -29.35 -45.4 -30.05 -47.45 -30.45 -46.05 -29.8 -44.6 L-29.0 -43.3 -29.2 -43.2 -28.75 -42.95 -27.9 -42.5 -27.85 -42.5 -27.7 -42.45 -27.65 -42.55 M-32.45 -46.5 L-32.35 -46.05 -32.3 -46.0 Q-31.8 -44.55 -30.95 -43.3 -30.35 -43.1 -30.35 -43.9 -31.55 -45.3 -32.0 -47.0 L-32.35 -48.9 Q-32.65 -48.05 -32.55 -47.2 L-32.6 -47.2 -32.45 -46.5" fill="#6d4125" fill-rule="evenodd" stroke="none"/>
    <path d="M7.85 -78.45 L7.2 -78.65 Q6.7 -78.2 7.2 -77.65 L8.6 -76.5 9.65 -75.1 Q7.0 -74.85 4.45 -75.2 0.95 -75.75 -2.25 -77.55 L-4.0 -79.1 Q-5.95 -81.05 -7.25 -83.3 L-7.35 -83.55 -7.45 -84.05 Q-7.1 -84.95 -6.45 -84.55 -5.8 -84.2 -5.05 -84.15 L-4.9 -84.15 -4.05 -84.3 -4.0 -84.0 -4.0 -83.85 -4.0 -83.75 -2.85 -81.9 Q-3.05 -81.45 -2.6 -81.05 L-2.2 -80.55 -2.25 -80.5 -2.1 -80.35 -1.75 -79.9 Q-1.35 -79.3 -0.55 -79.4 1.1 -80.25 3.2 -80.2 L3.2 -80.3 3.7 -80.25 Q6.0 -79.95 7.75 -78.55 L7.85 -78.45 M-2.2 -80.55 L-2.25 -80.55 -2.2 -80.55" fill="#3c4a09" fill-rule="evenodd" stroke="none"/>
    <path d="M-6.8 -80.05 L-5.4 -78.7 -2.95 -76.8 Q-0.45 -75.1 2.45 -74.25 2.75 -73.2 2.65 -72.05 2.5 -70.9 1.8 -70.0 1.05 -70.25 0.35 -70.6 L0.1 -70.75 0.1 -70.7 -0.5 -71.0 -1.0 -71.25 -3.5 -72.4 -4.2 -72.95 -4.7 -73.35 Q-5.4 -73.9 -6.25 -74.3 L-6.45 -74.4 -6.8 -74.6 -6.85 -74.65 -9.1 -77.15 -9.1 -77.25 -9.1 -78.1 Q-9.0 -79.05 -8.05 -79.6 L-7.9 -79.65 -7.0 -80.0 -6.9 -80.05 -6.8 -80.05 M13.8 -65.45 L15.05 -65.9 Q16.35 -66.9 18.0 -66.45 19.55 -66.4 20.6 -65.8 20.55 -65.0 20.8 -64.2 20.95 -63.7 20.6 -63.3 L16.05 -57.7 Q12.8 -53.5 12.75 -48.1 L11.35 -47.65 11.15 -47.5 Q9.2 -48.95 8.25 -50.65 L8.25 -50.7 Q7.15 -52.7 7.2 -55.1 L7.2 -55.2 7.25 -55.45 7.25 -55.75 7.25 -55.85 7.35 -56.5 7.75 -58.25 Q8.4 -60.55 10.45 -61.75 L10.85 -62.5 11.35 -63.3 Q12.25 -64.55 13.7 -65.4 L13.75 -65.4 13.8 -65.45 M-13.7 -19.5 L-13.75 -21.0 Q-13.65 -22.05 -12.7 -22.45 L-12.45 -22.55 -11.95 -22.75 -10.55 -24.05 -9.5 -24.8 -5.8 -26.25 -5.4 -26.35 -4.05 -26.45 -3.75 -26.45 -3.5 -26.5 -3.2 -26.5 -3.1 -26.5 -3.0 -26.5 -2.9 -26.5 Q-0.55 -26.5 1.45 -25.45 L2.35 -24.95 3.4 -24.15 Q4.55 -23.2 4.15 -21.75 3.85 -20.6 3.2 -19.75 L0.0 -19.5 -2.95 -18.45 -3.05 -18.45 -3.1 -18.4 -3.35 -18.3 -3.35 -18.2 -3.3 -18.15 -3.35 -18.0 -3.1 -17.5 -3.0 -17.0 -3.05 -17.0 Q-5.95 -16.8 -8.55 -18.1 L-10.25 -18.3 Q-13.2 -17.7 -13.7 -19.5 M20.1 -15.3 L21.5 -15.9 21.55 -15.9 Q23.0 -15.35 22.95 -13.45 22.9 -11.75 23.3 -10.2 23.45 -9.75 23.1 -9.4 L23.05 -9.3 Q22.6 -8.9 22.0 -9.0 L21.95 -9.0 21.8 -9.05 21.25 -9.55 Q21.4 -10.7 20.95 -11.85 L20.25 -13.35 19.95 -13.8 19.95 -13.85 20.0 -14.8 20.1 -15.3 M-0.15 5.55 L-0.6 5.55 -2.5 5.6 -3.05 5.6 -3.35 5.6 -4.1 5.6 -4.2 5.05 -4.65 5.6 -6.5 5.55 -7.45 5.5 -7.75 5.45 -7.45 4.6 -7.05 4.0 -4.7 0.15 -4.15 -0.55 -3.55 -1.2 Q-2.7 -1.1 -2.35 -0.7 L-1.9 -0.45 -2.05 -0.15 -2.05 -0.1 -2.25 0.95 -2.75 2.5 -2.7 2.45 Q-1.65 1.35 -1.55 -0.15 -0.9 0.5 -0.95 1.75 -1.0 3.3 0.1 4.35 0.35 4.6 0.2 4.95 L-0.15 5.55 M-38.75 -12.5 Q-37.45 -13.75 -36.75 -15.5 L-36.65 -15.7 -36.65 -15.8 Q-35.4 -17.4 -34.6 -19.05 L-34.25 -19.25 -32.2 -17.95 -32.4 -17.35 Q-32.7 -16.55 -33.25 -15.95 -34.6 -14.4 -36.15 -13.35 L-36.3 -13.25 -36.45 -13.15 -37.0 -12.85 -37.7 -12.5 Q-38.3 -12.25 -38.75 -12.5 M-32.15 -15.5 L-31.7 -16.05 -30.6 -18.05 -30.55 -18.25 -30.4 -18.5 -29.05 -20.4 -28.5 -21.0 -27.65 -21.4 -25.1 -19.8 Q-25.3 -19.35 -25.7 -19.05 -27.55 -17.65 -29.1 -15.85 -29.65 -13.85 -31.6 -14.95 L-32.15 -15.5 M-34.95 -79.2 Q-36.35 -81.15 -38.2 -82.9 -36.1 -86.2 -33.3 -89.25 -30.55 -92.35 -26.5 -93.9 -26.85 -91.95 -25.35 -90.65 -26.45 -88.8 -26.85 -86.75 L-27.8 -85.95 -31.45 -82.5 -34.45 -79.75 -34.95 -79.2 M-44.25 -73.55 L-44.35 -73.7 -44.7 -74.15 Q-47.05 -77.05 -50.45 -79.15 L-50.45 -79.2 -50.15 -79.35 -45.65 -81.65 -45.5 -81.7 Q-42.85 -82.7 -39.9 -82.5 -39.3 -81.9 -38.5 -81.75 L-37.35 -80.65 -37.65 -80.25 Q-38.3 -78.5 -39.2 -76.85 -40.05 -75.3 -41.75 -74.95 -43.5 -74.6 -44.25 -73.55 M-29.6 -59.05 L-28.75 -61.8 -28.4 -63.9 Q-27.9 -63.0 -27.9 -62.0 L-28.45 -60.1 -28.65 -59.65 -29.4 -58.55 -29.4 -58.6 -29.65 -58.3 -29.8 -58.2 -29.85 -58.1 -29.95 -58.2 -29.6 -59.05 M-22.9 -51.05 Q-22.85 -50.15 -23.3 -49.4 L-24.25 -48.1 -26.5 -47.85 Q-27.85 -47.45 -29.55 -49.05 -31.15 -50.6 -31.15 -52.8 L-31.05 -54.55 -30.45 -56.4 Q-29.75 -55.95 -28.75 -56.1 L-26.8 -53.7 Q-25.1 -51.65 -22.9 -51.4 L-22.75 -51.15 -22.9 -51.05 M-0.3 -71.75 L-0.3 -71.7 -0.25 -71.75 -0.3 -71.75 M-12.75 -66.55 L-13.55 -67.85 Q-11.4 -69.0 -9.0 -68.4 -5.75 -67.65 -4.6 -64.55 -4.0 -62.9 -4.6 -61.25 -5.15 -59.9 -6.6 -59.35 L-9.4 -62.25 -11.9 -65.3 -11.95 -65.4 -12.7 -66.5 -12.75 -66.55 M-3.15 -18.4 L-3.2 -18.35 -3.1 -18.4 -3.15 -18.4" fill="#7e4d2c" fill-rule="evenodd" stroke="none"/>
    <path d="M-9.15 -77.2 L-9.1 -77.25 -9.1 -77.15 -9.1 -77.1 -9.15 -77.2 M29.05 -27.1 L28.55 -27.45 29.65 -29.0 30.0 -29.45 28.4 -29.9 26.9 -30.45 Q26.15 -30.75 25.8 -31.35 25.0 -31.8 25.65 -32.5 29.55 -31.6 33.75 -31.65 L35.15 -31.65 35.7 -31.7 Q37.5 -32.35 38.15 -34.2 L38.1 -34.9 38.3 -34.25 38.3 -34.2 Q38.75 -32.5 37.95 -30.9 L35.7 -27.25 Q35.4 -25.15 34.75 -23.2 28.8 -21.2 22.8 -22.35 L22.65 -22.4 22.7 -22.45 22.8 -22.55 21.45 -22.8 17.0 -23.75 16.85 -23.8 11.55 -25.55 11.3 -25.65 Q8.3 -26.95 5.6 -28.75 L4.45 -29.55 1.35 -32.05 1.5 -32.4 4.45 -35.05 5.55 -36.45 Q7.3 -38.95 7.95 -41.8 L12.1 -38.65 Q12.25 -38.0 11.7 -37.25 L7.9 -32.1 7.15 -30.95 6.45 -29.8 Q7.75 -28.95 9.2 -28.3 11.8 -27.15 14.6 -26.45 L16.2 -25.95 Q18.5 -25.2 20.85 -24.75 L21.4 -24.45 21.8 -24.35 21.9 -24.3 22.2 -24.55 23.7 -24.35 25.15 -24.2 26.4 -24.15 27.75 -26.25 27.75 -26.2 Q27.85 -25.25 28.75 -25.1 29.3 -25.45 29.3 -26.1 L29.3 -26.45 29.3 -26.55 29.05 -27.1 M31.05 -30.6 L30.7 -30.25 30.5 -30.25 30.7 -30.2 31.05 -30.6 M8.75 -33.55 Q9.6 -34.0 9.5 -34.8 9.05 -35.95 7.9 -36.0 6.9 -35.65 7.05 -34.6 7.3 -33.3 8.75 -33.55 M6.9 5.8 L8.75 5.65 8.95 5.65 9.1 5.65 9.35 5.65 11.25 5.55 12.35 5.35 13.8 4.85 14.1 4.75 14.4 4.65 14.5 4.6 16.7 3.55 20.6 1.8 24.75 -0.45 26.35 -1.6 Q27.3 -2.3 28.35 -2.7 29.35 -3.05 30.3 -3.75 L32.9 -5.8 Q34.35 -6.7 35.5 -7.9 36.65 -8.35 37.45 -9.3 L38.1 -8.15 37.85 -8.0 36.6 -6.65 35.75 -5.7 Q34.1 -4.4 32.1 -3.65 L32.0 -3.5 31.85 -3.3 30.85 -2.6 29.05 -0.95 27.65 0.5 27.35 0.8 27.15 0.95 27.0 0.9 26.35 0.4 18.65 5.15 17.95 4.4 Q19.05 5.35 19.75 6.95 L19.65 7.0 19.5 7.1 19.05 6.4 18.95 6.3 18.35 5.8 18.3 5.8 18.2 6.0 18.65 6.95 18.7 7.0 18.8 7.5 Q18.45 7.75 18.6 8.15 L18.5 8.25 Q18.3 8.5 18.45 8.75 L17.85 9.05 17.6 9.1 14.9 10.0 13.7 10.3 13.25 10.45 13.2 10.5 13.0 10.25 Q12.6 9.2 11.85 8.4 L11.7 7.95 9.55 8.6 4.95 9.95 4.75 10.1 4.75 10.15 Q-1.85 11.1 -8.15 9.5 L-8.05 10.2 -8.15 11.05 -10.15 10.3 -10.5 10.15 -11.95 9.6 -13.2 9.0 -13.4 8.9 -14.1 8.6 -14.75 8.2 -17.55 6.65 -19.95 5.05 -20.9 4.25 -20.95 4.25 -21.3 3.95 -21.4 3.85 Q-15.6 5.4 -9.6 6.45 -2.8 7.6 4.0 6.35 L4.45 6.2 5.4 6.0 6.35 5.85 6.9 5.8 M-17.7 -72.9 L-17.6 -72.6 Q-15.4 -65.55 -11.5 -59.2 -9.55 -56.1 -6.75 -53.65 L-6.0 -53.0 -6.6 -52.45 Q-8.6 -48.05 -12.9 -45.45 L-15.0 -47.55 -14.7 -47.95 -10.85 -52.15 -9.35 -53.35 -10.1 -54.25 -11.95 -56.45 Q-14.4 -59.2 -16.25 -62.35 -17.9 -65.1 -18.8 -68.2 L-19.55 -71.1 -19.7 -71.75 Q-18.8 -72.25 -17.95 -72.85 L-17.7 -72.9 M-35.65 -29.5 L-34.5 -28.95 Q-33.6 -28.6 -33.0 -27.9 L-22.4 -28.25 -19.5 -28.9 Q-17.9 -29.25 -16.4 -29.85 L-16.85 -30.95 -17.7 -33.75 -17.65 -34.65 Q-18.0 -35.6 -17.1 -35.9 L-16.2 -36.0 -16.05 -36.15 -15.55 -36.5 -15.35 -36.85 -15.2 -36.95 Q-12.45 -33.95 -9.75 -30.45 -11.95 -28.7 -14.45 -27.5 -15.9 -26.85 -17.4 -26.35 -21.65 -24.95 -25.85 -25.25 -31.35 -24.95 -35.3 -27.9 L-35.65 -29.5" fill="#7d4326" fill-rule="evenodd" stroke="none"/>
    <path d="M33.85 -57.15 L33.7 -57.35 33.6 -57.6 33.85 -57.15 M-0.1 -51.65 L-1.05 -52.5 -0.7 -52.45 -0.75 -52.25 -0.1 -51.65 M29.5 -85.4 L28.9 -86.2 29.1 -86.5 29.3 -86.4 29.05 -86.05 29.5 -85.4 M48.85 -74.85 L50.6 -74.0 Q52.75 -72.65 54.15 -70.75 49.0 -68.45 44.35 -64.75 L40.9 -61.5 40.95 -61.75 42.55 -65.9 43.5 -67.8 44.5 -67.6 43.8 -68.4 44.6 -69.8 44.85 -70.15 Q46.65 -69.6 48.45 -69.2 47.5 -70.25 45.85 -70.65 L45.3 -70.85 47.2 -73.35 48.85 -74.85 M28.3 -44.8 L28.3 -44.65 28.1 -44.45 27.85 -44.05 28.3 -44.8 M22.65 -22.4 L17.0 -23.75 21.45 -22.8 22.8 -22.55 22.7 -22.45 22.65 -22.4 M31.05 -30.6 L30.7 -30.2 30.5 -30.25 30.7 -30.25 31.05 -30.6 M-31.8 -17.7 Q-31.9 -17.1 -32.15 -16.55 L-32.2 -16.5 -31.85 -17.7 -31.8 -17.7 M-33.4 -74.15 L-33.35 -74.05 -33.45 -74.05 -33.4 -74.1 -33.4 -74.15 M-38.55 -60.75 L-38.95 -61.8 -39.0 -61.8 -39.0 -61.85 Q-40.15 -64.95 -41.55 -67.9 -43.2 -66.9 -44.45 -65.4 L-45.65 -66.35 Q-49.65 -69.35 -54.3 -70.85 -51.15 -73.6 -47.15 -75.1 L-45.1 -72.7 -48.5 -70.55 Q-47.85 -70.25 -47.2 -70.75 L-44.45 -72.2 -43.5 -71.05 Q-45.1 -70.6 -46.25 -69.35 L-46.05 -69.2 -43.3 -70.55 -42.7 -70.25 Q-40.35 -65.65 -38.55 -60.75 M-22.9 -51.05 L-22.75 -51.15 -22.55 -51.4 -22.9 -51.05 M-27.85 -42.5 L-27.65 -42.55 -27.7 -42.45 -27.85 -42.5 M-24.45 -41.75 L-24.55 -41.75 -24.45 -41.85 -24.45 -41.75 M-32.45 -46.5 L-32.6 -47.2 -32.55 -47.2 -32.45 -46.5" fill="#89502e" fill-rule="evenodd" stroke="none"/>
    <path d="M-3.15 -53.35 L-3.45 -52.4 Q-4.3 -50.3 -5.55 -48.5 L-5.8 -48.2 Q-6.9 -46.4 -8.45 -45.05 L-9.6 -44.1 Q-10.6 -43.3 -11.8 -42.9 -12.85 -42.6 -13.65 -42.9 L-13.9 -43.1 Q-15.15 -44.25 -14.65 -45.75 -14.35 -45.8 -14.1 -45.3 -13.95 -44.8 -13.4 -44.85 -11.6 -45.1 -10.4 -46.25 L-8.0 -48.6 -4.65 -53.4 Q-4.55 -53.9 -4.9 -54.0 L-5.55 -54.3 Q-5.85 -54.0 -6.2 -54.3 L-6.25 -54.45 -6.2 -54.55 -5.8 -54.75 -4.55 -55.1 -4.35 -54.95 -4.3 -54.9 -4.25 -54.9 -3.15 -53.35 M-12.2 -40.05 L-12.2 -40.0 Q-12.25 -39.55 -12.65 -39.25 L-13.55 -38.4 -13.65 -38.3 -14.9 -39.3 -14.8 -39.15 -13.9 -38.05 -14.65 -37.5 -16.15 -39.2 Q-16.2 -39.9 -15.45 -40.0 L-15.4 -39.9 -15.05 -40.15 -15.15 -40.25 -14.0 -41.7 -13.95 -41.7 Q-13.25 -40.7 -12.2 -40.05 M1.8 -43.95 L1.55 -44.2 Q-0.05 -45.45 -2.25 -45.0 L-3.6 -44.35 Q-5.9 -43.05 -5.45 -40.7 L-4.95 -39.35 Q-5.9 -40.15 -6.15 -41.8 -6.6 -44.8 -3.9 -46.3 L-3.0 -46.8 Q1.1 -46.95 2.0 -43.35 L1.8 -43.95 M-4.55 -51.8 L-4.9 -51.05 -4.5 -51.85 -4.55 -51.8" fill="#999999" fill-rule="evenodd" stroke="none"/>
    <path d="M-6.3 -54.55 L-6.25 -54.45 -6.2 -54.3 -6.4 -54.5 -6.3 -54.55" fill="#53648a" fill-rule="evenodd" stroke="none"/>
    <path d="M20.95 7.4 L20.35 7.85 20.25 7.8 20.95 7.4 M-22.9 3.5 L-23.2 3.25 -23.0 3.4 -22.9 3.5 M6.35 -44.5 L6.1 -43.8 5.0 -41.3 3.1 -38.5 1.0 -36.0 0.6 -35.85 Q-0.95 -34.7 -2.55 -33.65 L-3.2 -34.1 -5.65 -35.7 -8.05 -37.5 -10.15 -39.5 -11.05 -40.65 Q-11.45 -41.2 -12.15 -41.3 L-12.2 -41.25 -13.65 -42.9 Q-12.85 -42.6 -11.8 -42.9 -10.6 -43.3 -9.6 -44.1 L-8.45 -45.05 Q-6.9 -46.4 -5.8 -48.2 L-5.55 -48.5 Q-4.3 -50.3 -3.45 -52.4 L-3.15 -53.35 Q-0.1 -49.45 3.9 -46.65 L4.45 -46.25 5.55 -45.15 6.35 -44.5 M-12.65 -39.25 L-12.4 -38.9 -11.0 -37.15 -9.15 -35.2 -7.3 -33.2 -8.35 -32.0 -9.25 -30.6 -14.65 -37.5 -13.9 -38.05 -14.8 -39.15 -14.9 -39.3 -13.65 -38.3 -13.55 -38.4 -12.65 -39.25 M1.8 -43.95 L2.0 -43.35 Q1.1 -46.95 -3.0 -46.8 L-3.9 -46.3 Q-6.6 -44.8 -6.15 -41.8 -5.9 -40.15 -4.95 -39.35 L-5.45 -40.7 Q-5.9 -43.05 -3.6 -44.35 L-2.25 -45.0 Q-0.05 -45.45 1.55 -44.2 L1.8 -43.95 M-6.25 -54.45 L-6.3 -54.55 -5.8 -54.75 -6.2 -54.55 -6.25 -54.45 M-4.25 -54.9 L-4.3 -54.9 -4.35 -54.95 -4.55 -55.1 -4.4 -55.15 -4.25 -54.9 M-14.0 -41.7 L-13.95 -41.7 -14.0 -41.7" fill="#666666" fill-rule="evenodd" stroke="none"/>
    <path d="M-12.2 -41.25 L-12.15 -41.3 Q-11.45 -41.2 -11.05 -40.65 L-10.15 -39.5 -8.05 -37.5 -5.65 -35.7 -3.2 -34.1 -2.55 -33.65 Q-0.95 -34.7 0.6 -35.85 L1.0 -36.0 3.1 -38.5 5.0 -41.3 6.1 -43.8 6.35 -44.5 7.35 -44.2 Q6.65 -40.8 4.7 -37.85 L4.45 -37.5 Q2.5 -34.85 -0.5 -33.05 L-1.1 -32.4 Q-1.95 -33.0 -2.95 -32.95 L-3.25 -33.15 -3.45 -33.3 Q-4.85 -32.55 -6.05 -31.5 L-6.65 -30.95 Q-7.0 -30.65 -7.4 -30.5 L-7.6 -29.9 Q-7.95 -29.45 -8.5 -29.55 L-9.25 -30.6 -8.35 -32.0 -7.3 -33.2 -9.15 -35.2 -11.0 -37.15 -12.4 -38.9 -12.65 -39.25 Q-12.25 -39.55 -12.2 -40.0 L-12.2 -40.05 -11.8 -39.85 Q-11.45 -40.35 -11.9 -40.8 L-12.0 -40.9 -12.2 -41.25" fill="#575757" fill-rule="evenodd" stroke="none"/>
    <path d="M8.25 -8.1 L8.3 -8.9 7.7 -10.0 Q8.55 -10.7 8.5 -11.75 L15.9 -13.3 17.45 -13.75 Q18.75 -13.35 19.4 -11.85 L20.2 -9.75 19.8 -9.55 Q18.45 -8.75 17.0 -8.2 L16.85 -9.05 13.15 -8.8 12.6 -8.7 10.85 -8.2 10.05 -8.15 Q9.85 -8.15 9.75 -8.3 L8.25 -8.1 M28.4 -16.0 L27.95 -16.9 27.9 -16.95 27.85 -17.05 Q27.5 -18.0 28.4 -18.6 L29.8 -19.9 30.25 -20.45 Q30.25 -20.85 30.55 -21.1 L32.8 -21.35 Q33.85 -21.45 34.85 -22.1 L35.55 -20.8 35.35 -20.65 34.95 -20.3 32.9 -18.75 31.15 -17.55 29.45 -16.35 29.25 -16.25 28.4 -16.0 M-20.25 -12.9 L-20.4 -12.95 -21.5 -13.35 Q-22.2 -13.65 -22.9 -14.1 -22.95 -13.5 -23.15 -12.95 L-24.7 -14.15 Q-24.7 -15.9 -23.6 -17.7 L-22.6 -17.2 Q-20.9 -16.35 -19.3 -15.3 L-20.25 -12.9 M-33.95 -24.0 L-33.2 -25.1 -29.3 -21.65 -30.8 -19.6 -31.65 -20.45 -33.8 -23.75 -33.95 -24.0 M-12.0 -7.55 L-14.2 -8.6 Q-13.8 -11.05 -12.7 -13.3 L-12.45 -13.2 -10.75 -12.8 -10.6 -12.75 -8.3 -12.3 Q-8.25 -11.25 -8.65 -10.15 L-8.75 -9.8 -8.75 -9.75 -8.8 -9.4 -8.55 -8.45 -10.3 -8.8 -11.45 -9.25 -11.6 -9.35 -11.75 -8.95 -11.9 -8.15 -12.0 -7.55" fill="#333333" fill-rule="evenodd" stroke="none"/>
    <path d="M17.0 -8.2 Q15.45 -7.6 13.8 -7.25 L7.2 -6.65 Q8.05 -7.3 8.25 -8.1 L9.75 -8.3 Q9.85 -8.15 10.05 -8.15 L10.85 -8.2 12.6 -8.7 13.15 -8.8 16.85 -9.05 17.0 -8.2 M35.55 -20.8 L35.9 -20.1 34.85 -18.95 Q34.1 -18.45 34.0 -17.65 L29.2 -14.3 Q28.6 -15.0 28.5 -15.65 L28.4 -16.0 29.25 -16.25 29.45 -16.35 31.15 -17.55 32.9 -18.75 34.95 -20.3 35.35 -20.65 35.55 -20.8 M-23.15 -12.95 Q-22.95 -13.5 -22.9 -14.1 -22.2 -13.65 -21.5 -13.35 L-20.4 -12.95 -20.25 -12.9 -20.45 -11.4 -23.15 -12.95 M-30.8 -19.6 L-31.3 -18.8 Q-32.7 -19.45 -33.45 -20.8 -34.25 -22.15 -34.2 -23.55 L-33.95 -24.0 -33.8 -23.75 -31.65 -20.45 -30.8 -19.6 M-8.8 -9.4 L-8.3 -8.1 Q-7.55 -7.55 -6.55 -7.4 L-6.65 -6.6 Q-9.45 -6.6 -12.0 -7.55 L-11.9 -8.15 -11.75 -8.95 -11.6 -9.35 -11.45 -9.25 -10.3 -8.8 -8.55 -8.45 -8.8 -9.4" fill="#4d4d4d" fill-rule="evenodd" stroke="none"/>
    <path d="M-0.3 -12.1 L1.2 -11.9 Q2.3 -11.5 2.9 -10.45 L3.05 -10.15 Q3.35 -9.5 3.8 -9.35 L3.4 -7.65 Q1.55 -5.35 -1.0 -5.9 L-1.2 -5.7 Q0.7 -4.7 2.9 -6.0 3.9 -6.7 4.45 -7.65 5.15 -8.85 5.15 -10.4 L5.1 -10.6 6.65 -10.75 Q6.15 -10.3 6.65 -9.65 7.3 -8.8 6.85 -7.85 L5.95 -6.95 Q5.75 -5.9 5.05 -5.05 L4.45 -4.6 3.0 -4.45 Q0.85 -2.75 -1.5 -3.55 L-3.55 -4.85 -5.55 -6.0 Q-5.85 -6.65 -5.75 -7.2 -5.65 -7.8 -6.1 -8.15 -7.15 -8.3 -7.3 -9.25 -6.95 -10.4 -7.4 -11.25 L-7.6 -11.95 -7.3 -11.9 -6.05 -11.55 Q-5.45 -11.2 -4.85 -11.1 L-4.8 -11.1 -4.85 -10.5 -4.85 -11.05 -4.9 -10.9 -4.9 -10.2 -4.75 -8.35 Q-4.0 -6.9 -2.6 -6.7 L-3.5 -8.0 Q-4.0 -8.65 -3.85 -9.55 L-3.95 -10.1 -3.85 -9.6 -3.65 -9.75 -3.45 -9.5 Q-3.05 -9.15 -2.5 -9.3 L-1.45 -9.85 -0.4 -10.55 Q0.15 -10.9 0.1 -11.55 L-0.2 -12.05 -0.3 -12.1 M-14.95 -14.6 L-15.3 -13.1 -15.3 -13.15 -15.65 -12.45 -16.35 -10.65 -16.7 -8.95 -16.85 -8.3 -16.9 -7.9 Q-17.35 -8.4 -18.0 -8.4 -19.7 -9.4 -19.55 -11.55 -19.6 -14.0 -18.25 -15.85 L-14.9 -14.7 -14.95 -14.6" fill="#996600" fill-rule="evenodd" stroke="none"/>
    <path d="M6.65 -10.75 L5.1 -10.6 5.15 -10.4 Q5.15 -8.85 4.45 -7.65 3.9 -6.7 2.9 -6.0 0.7 -4.7 -1.2 -5.7 L-1.0 -5.9 Q1.55 -5.35 3.4 -7.65 L3.8 -9.35 Q3.35 -9.5 3.05 -10.15 L2.9 -10.45 Q2.3 -11.5 1.2 -11.9 L-0.3 -12.1 -0.85 -12.05 -1.25 -12.0 -1.35 -11.95 -1.95 -11.7 -2.0 -11.7 -2.05 -11.7 -2.35 -11.55 Q-3.25 -10.9 -3.55 -9.85 L-3.65 -9.75 -3.85 -9.6 -3.95 -10.1 -3.85 -9.55 Q-4.0 -8.65 -3.5 -8.0 L-2.6 -6.7 Q-4.0 -6.9 -4.75 -8.35 L-4.9 -10.2 -4.9 -10.9 -4.85 -11.05 -4.85 -10.5 -4.8 -11.1 -4.85 -11.1 Q-5.45 -11.2 -6.05 -11.55 L-7.3 -11.9 -7.6 -11.95 -7.1 -13.0 Q-5.6 -13.1 -4.55 -12.35 L-4.65 -12.1 -3.85 -12.45 -3.4 -12.35 -3.6 -12.1 Q-3.25 -12.65 -2.3 -12.8 0.5 -13.1 3.3 -12.1 L3.4 -11.85 Q3.55 -12.1 3.85 -12.2 L4.95 -11.85 Q5.05 -12.2 5.65 -12.2 L7.0 -12.1 Q7.3 -11.35 6.75 -10.85 L6.65 -10.75 M-16.85 -8.3 L-16.7 -8.95 -16.35 -10.65 -15.65 -12.45 -15.3 -13.15 -15.3 -13.1 -14.95 -14.6 -14.8 -14.65 -14.25 -14.3 -14.6 -13.85 -14.15 -14.35 -12.95 -14.1 Q-15.1 -11.65 -15.2 -8.2 L-16.1 -7.9 -16.2 -8.3 -16.8 -8.3 -16.85 -8.3" fill="#6f4a00" fill-rule="evenodd" stroke="none"/>
    <path d="M-0.3 -12.1 L-0.2 -12.05 0.1 -11.55 Q0.15 -10.9 -0.4 -10.55 L-1.45 -9.85 -2.5 -9.3 Q-3.05 -9.15 -3.45 -9.5 L-3.65 -9.75 -3.55 -9.85 Q-3.25 -10.9 -2.35 -11.55 L-2.05 -11.7 -2.0 -11.7 -1.95 -11.7 -1.35 -11.95 -1.25 -12.0 -0.85 -12.05 -0.3 -12.1" fill="#cc9900" fill-rule="evenodd" stroke="none"/>
    <path d="M3.85 -117.9 L4.05 -117.85 3.8 -117.75 3.85 -117.9 M11.5 -97.8 L11.6 -97.7 11.4 -97.7 11.5 -97.8" fill="#669966" fill-rule="evenodd" stroke="none"/>
    <path d="M2.55 -100.9 L3.2 -101.25 3.15 -100.8 3.1 -100.35 3.15 -99.7 2.7 -99.95 1.9 -100.25 1.85 -100.5 2.55 -100.9 M6.85 -100.15 L7.65 -99.7 7.75 -99.6 7.85 -99.55 7.9 -99.45 7.9 -99.4 7.75 -99.0 7.2 -98.55 7.0 -98.35 6.95 -98.35 6.7 -98.3 5.8 -98.35 6.0 -98.85 6.15 -99.05 6.85 -100.15 M21.9 -100.15 L20.65 -99.15 20.9 -99.6 21.2 -100.25 20.85 -101.45 21.2 -101.3 21.45 -101.15 22.15 -100.6 22.25 -100.5 22.35 -100.65 22.0 -100.25 21.9 -100.15 M18.0 -99.0 L17.55 -99.15 17.6 -99.4 17.85 -99.7 17.9 -99.75 18.3 -99.3 18.4 -98.8 18.0 -99.0" fill="#ff9900" fill-rule="evenodd" stroke="none"/>
    <path d="M3.2 -101.25 L3.45 -101.4 4.0 -101.65 4.65 -101.45 4.2 -101.2 Q3.7 -100.7 4.0 -100.05 4.2 -99.6 4.65 -99.65 L4.8 -98.95 4.85 -98.85 4.9 -98.9 5.25 -99.15 Q5.65 -99.5 5.75 -100.0 L5.8 -100.4 5.8 -100.6 6.45 -100.25 6.55 -100.25 6.6 -100.25 6.85 -100.15 6.15 -99.05 6.0 -98.85 5.8 -98.35 Q5.25 -98.45 4.8 -98.7 L4.65 -98.75 4.55 -98.85 4.45 -98.9 4.35 -98.95 4.25 -99.05 4.15 -99.1 3.7 -99.4 3.15 -99.7 3.1 -100.35 3.15 -100.8 3.2 -101.25 M20.65 -99.15 L19.8 -98.7 19.6 -98.6 18.5 -98.7 18.0 -99.0 18.4 -98.8 18.3 -99.3 17.9 -99.75 18.1 -99.85 18.0 -99.8 18.2 -99.8 18.15 -99.9 18.45 -100.15 18.45 -100.1 Q18.8 -99.55 19.4 -99.55 L19.5 -98.95 19.55 -98.85 19.6 -98.9 19.95 -99.15 Q20.35 -99.5 20.45 -100.0 L20.5 -100.4 20.3 -100.85 19.75 -101.25 20.35 -101.6 20.4 -101.6 21.2 -101.3 20.85 -101.45 21.2 -100.25 20.9 -99.6 20.65 -99.15" fill="#ffcc00" fill-rule="evenodd" stroke="none"/>
    <path d="M4.65 -101.45 L5.0 -101.2 5.05 -101.25 5.6 -100.85 5.8 -100.6 5.8 -100.4 5.75 -100.0 Q5.65 -99.5 5.25 -99.15 L4.9 -98.9 4.85 -98.85 4.8 -98.95 4.65 -99.65 Q4.2 -99.6 4.0 -100.05 3.7 -100.7 4.2 -101.2 L4.65 -101.45 M4.7 -101.0 L4.45 -100.75 4.15 -100.5 4.15 -100.45 Q4.15 -100.0 4.6 -100.0 L4.7 -100.05 4.9 -100.3 Q5.2 -100.8 4.7 -101.0 M18.45 -100.15 L18.8 -100.45 18.85 -100.5 18.85 -100.45 Q18.85 -100.0 19.3 -100.0 L19.4 -100.05 19.6 -100.3 Q19.9 -100.8 19.4 -101.0 L19.45 -101.05 19.55 -101.2 19.7 -101.2 19.75 -101.25 20.3 -100.85 20.5 -100.4 20.45 -100.0 Q20.35 -99.5 19.95 -99.15 L19.6 -98.9 19.55 -98.85 19.5 -98.95 19.4 -99.55 Q18.8 -99.55 18.45 -100.1 L18.45 -100.15" fill="#660033" fill-rule="evenodd" stroke="none"/>
    <path d="M29.05 -86.5 L29.1 -86.5 28.9 -86.2 29.05 -86.5" fill="#6666cc" fill-rule="evenodd" stroke="none"/>
    <path d="M29.05 -86.5 L28.9 -86.2 29.05 -86.5" fill="#996633" fill-rule="evenodd" stroke="none"/>
    <path d="M28.95 -86.5 L29.05 -86.5 28.9 -86.2 28.95 -86.5" fill="#999900" fill-rule="evenodd" stroke="none"/>
    <path d="M20.6 -65.8 L21.4 -65.2 20.6 -65.8" fill="#8e5631" fill-rule="evenodd" stroke="none"/>
    <path d="M31.0 -61.4 L31.0 -61.25 30.9 -61.4 31.0 -61.4" fill="#663333" fill-rule="evenodd" stroke="none"/>
    <path d="M20.85 -24.75 L20.3 -25.3 20.15 -25.95 Q20.0 -26.3 20.3 -26.55 21.5 -27.05 22.45 -26.05 22.8 -25.1 22.2 -24.55 L21.9 -24.3 21.8 -24.35 21.4 -24.45 20.85 -24.75 M27.75 -26.25 Q27.5 -27.3 28.45 -27.5 L29.05 -27.1 29.3 -26.55 29.3 -26.45 29.3 -26.1 Q29.3 -25.45 28.75 -25.1 27.85 -25.25 27.75 -26.2 L27.75 -26.25 M20.75 -29.8 Q19.3 -29.75 18.7 -30.9 18.35 -31.65 18.8 -32.0 L19.7 -32.75 Q21.0 -32.75 21.55 -31.55 21.8 -30.2 20.75 -29.8 M8.75 -33.55 Q7.3 -33.3 7.05 -34.6 6.9 -35.65 7.9 -36.0 9.05 -35.95 9.5 -34.8 9.6 -34.0 8.75 -33.55 M13.3 -32.45 Q14.4 -32.8 14.75 -31.65 15.0 -30.35 13.95 -30.0 13.05 -30.0 12.45 -30.9 12.25 -32.1 13.3 -32.45" fill="#59301c" fill-rule="evenodd" stroke="none"/>
  </g>
</svg>
