<?xml version="1.0" encoding="UTF-8" standalone="no"?>
<svg xmlns:xlink="http://www.w3.org/1999/xlink" height="102.85px" width="26.25px" xmlns="http://www.w3.org/2000/svg">
  <g transform="matrix(1.0, 0.0, 0.0, 1.0, 17.35, 6.9)">
    <path d="M2.2 27.05 Q1.25 30.9 -0.15 34.6 -0.95 33.95 -1.85 33.95 -3.1 32.7 -5.35 33.1 L-7.4 33.75 Q-8.0 34.05 -7.95 34.7 -7.85 35.85 -6.5 35.45 L-5.65 35.3 -2.65 35.25 -1.45 36.25 Q-0.3 37.1 -0.45 38.6 L-0.7 39.1 -1.0 38.55 Q-1.3 38.1 -1.85 38.0 L-1.9 38.0 -1.9 37.65 Q-2.3 36.85 -3.15 36.9 L-4.8 36.85 Q-6.45 37.05 -7.35 38.25 L-8.0 38.9 Q-8.5 40.05 -7.3 40.65 L-4.65 40.8 Q-3.65 40.5 -2.75 40.8 L-1.45 40.65 -1.15 40.45 Q-1.3 41.6 -0.65 42.9 L-0.95 50.0 Q-3.35 48.5 -6.1 47.35 -8.9 46.1 -11.8 47.65 L-13.3 48.4 -12.55 47.05 -11.4 44.7 Q-9.95 41.7 -12.25 39.4 L-12.4 38.5 -12.25 37.7 -10.8 32.7 -10.6 32.4 Q-10.05 30.25 -10.7 28.1 L-10.85 27.35 -10.95 26.45 -9.9 26.6 -8.8 26.65 -2.2 27.25 0.55 27.8 Q1.9 28.05 2.2 27.05 M-13.3 61.0 L-13.2 60.95 Q-12.75 60.7 -12.6 60.15 L-12.4 59.6 Q-8.1 58.05 -3.65 57.95 L-3.6 57.95 Q-2.5 58.5 -1.55 59.45 -1.2 61.85 -1.55 64.2 -2.5 64.2 -3.35 64.9 -2.7 65.45 -2.0 65.35 -1.35 65.3 -1.15 66.3 0.3 69.15 -2.1 69.55 -4.5 69.95 -5.95 71.15 -8.15 72.65 -10.9 72.1 -11.85 70.75 -13.2 69.95 L-8.8 68.8 Q-6.55 68.2 -5.25 66.3 -5.05 63.5 -6.95 61.75 L-10.25 61.25 -13.3 61.0" fill="#003333" fill-rule="evenodd" stroke="none"/>
    <path d="M-11.7 24.1 L-9.6 24.65 Q-8.25 24.85 -7.25 25.7 L2.2 27.05 Q1.9 28.05 0.55 27.8 L-2.2 27.25 -8.8 26.65 -9.9 26.6 -10.95 26.45 -11.45 25.05 -11.5 24.85 -11.7 24.1" fill="#606060" fill-rule="evenodd" stroke="none"/>
    <path d="M0.8 -1.65 Q1.65 -1.65 1.55 -0.85 1.25 -0.55 0.9 -0.7 0.3 -1.15 0.8 -1.65 M-3.8 -4.7 L-5.0 -3.45 -5.5 -2.8 -6.5 -0.95 -7.05 1.1 -7.1 1.95 -7.05 2.95 -7.05 3.8 -7.05 3.85 -7.05 3.95 -6.85 6.45 Q-6.55 8.15 -7.05 9.75 L-7.1 9.8 -7.3 10.0 Q-7.6 10.4 -7.15 10.7 -6.5 11.0 -6.45 11.7 -6.75 11.95 -6.95 11.7 -7.25 11.35 -7.55 11.45 L-9.1 14.2 Q-8.0 14.0 -7.35 14.95 L-9.6 15.35 Q-10.7 17.25 -10.05 19.15 L-9.65 20.9 -9.65 22.2 -9.7 22.8 -9.75 22.9 -8.7 23.5 -8.5 23.6 -8.5 23.55 -8.5 23.5 Q-7.9 24.25 -6.5 23.85 L-6.5 24.0 -6.45 24.0 -4.9 24.0 -4.75 24.0 -2.55 24.45 -2.5 24.45 1.05 25.3 1.7 23.4 1.8 23.0 2.15 19.85 2.15 19.3 2.15 19.2 Q2.0 16.3 3.7 14.0 L3.75 13.95 3.75 13.7 3.95 13.2 4.1 13.45 Q3.95 12.85 3.1 12.6 L1.6 12.0 1.6 11.85 1.95 11.4 1.95 11.35 2.15 11.4 4.1 12.2 4.5 12.4 6.25 10.1 Q7.9 7.85 8.4 5.15 L8.85 2.85 8.85 5.75 8.8 6.1 8.65 7.2 8.35 8.3 7.0 11.25 5.95 12.75 5.75 13.1 5.0 14.65 4.55 15.55 Q4.2 16.2 4.15 16.9 L4.0 17.1 Q3.85 21.7 2.05 25.75 L3.1 26.45 3.4 26.75 2.3 30.5 2.15 31.3 0.5 35.35 Q1.05 36.5 0.85 37.9 -0.15 38.65 -0.05 39.9 0.65 40.8 0.7 42.05 L0.2 50.7 Q-0.7 51.65 -1.65 50.9 -2.15 51.8 -2.3 52.8 -1.85 53.1 -1.7 53.5 -2.65 53.85 -2.65 55.0 -2.7 56.2 -3.25 57.05 -2.35 58.35 -0.85 59.05 L-0.25 61.7 Q0.1 63.1 -1.05 64.1 0.3 65.9 0.5 68.4 0.3 69.4 -0.5 69.95 -0.65 71.0 -0.4 71.95 L-0.05 72.85 -0.05 72.95 0.75 74.1 0.95 74.4 1.05 74.5 Q2.15 75.7 2.65 77.15 L2.6 77.1 2.85 77.9 2.95 78.7 2.95 78.8 Q4.1 81.2 3.35 83.65 L3.3 83.8 Q2.65 85.8 2.75 88.0 L2.8 88.8 2.45 89.2 2.05 89.8 1.85 90.1 1.55 90.4 0.55 90.55 Q0.0 91.8 -0.05 93.3 -0.1 94.8 -1.6 95.55 L-3.05 95.85 Q-3.8 96.2 -4.3 95.45 -4.05 94.35 -5.0 93.35 -6.95 93.95 -8.6 92.9 L-8.8 92.65 -9.05 91.95 -9.5 91.45 -8.4 91.75 -8.4 91.6 -8.1 88.95 -7.95 91.0 Q-7.95 91.85 -7.35 92.25 L-6.55 92.5 -6.05 92.65 -5.5 92.7 -5.45 92.7 -5.45 92.45 -5.45 92.0 -5.55 91.4 -5.6 91.2 -5.65 90.9 -5.8 90.15 -5.6 89.05 -5.4 89.6 -5.3 89.85 -5.2 90.05 -5.15 90.15 -5.05 90.55 -4.9 90.95 -4.5 92.25 -4.35 92.7 -4.0 94.15 -4.0 94.3 -3.95 94.5 -3.6 94.55 -1.4 94.15 -0.8 90.85 -0.05 85.5 0.3 85.95 0.4 86.0 0.6 89.5 1.7 89.8 2.3 88.9 Q3.2 82.85 1.4 77.65 L-0.7 74.6 Q-1.7 73.05 -1.8 71.3 L-1.8 71.15 -1.95 71.15 Q-2.9 71.25 -3.75 72.1 -4.65 73.0 -5.75 73.4 L-9.65 73.65 -11.15 73.2 -12.3 72.65 -12.35 72.6 -12.4 72.8 Q-13.65 79.3 -14.55 85.9 L-14.6 86.3 -14.55 86.35 -14.35 86.45 -13.9 86.75 -12.2 88.3 Q-11.7 88.2 -11.7 87.55 L-11.65 87.65 -11.55 87.8 -11.55 87.85 -11.2 88.55 -10.8 89.2 Q-10.35 89.85 -10.45 90.6 L-10.5 90.55 -10.5 90.5 -10.9 90.05 Q-11.25 89.7 -11.7 89.55 L-12.8 88.8 -14.2 87.7 -15.1 86.3 -15.15 84.85 -14.65 79.85 -14.55 79.4 -14.25 77.75 Q-13.9 75.3 -13.95 72.85 -14.55 71.45 -14.4 69.85 -16.75 70.4 -16.75 68.35 -16.75 66.35 -17.25 64.8 -17.65 62.9 -16.1 61.8 -14.6 60.75 -15.05 58.9 L-15.35 58.15 -12.95 57.4 Q-12.85 55.25 -13.4 53.1 L-13.9 52.95 Q-13.75 52.35 -13.2 52.0 -12.15 50.0 -13.9 50.1 -15.7 50.2 -15.1 48.5 -12.6 44.85 -13.75 40.7 -14.9 36.5 -12.75 32.75 -12.5 30.25 -12.95 27.9 -13.35 25.55 -12.75 23.05 -12.35 22.55 -11.8 22.9 -11.3 23.15 -10.85 22.7 -12.4 19.8 -11.55 16.65 L-12.15 16.2 Q-10.55 15.3 -10.0 13.35 -10.15 12.65 -10.9 12.55 -11.7 12.35 -11.15 11.7 L-9.85 12.45 Q-9.0 9.8 -9.1 6.8 -9.25 4.25 -8.75 2.0 L-8.0 0.05 -7.95 0.0 -7.85 -0.65 -6.45 -3.55 -6.4 -3.65 -6.2 -3.9 -6.15 -4.0 -5.45 -4.75 -4.65 -5.4 -4.2 -5.7 -4.0 -5.8 -1.5 -6.7 -1.05 -6.8 -2.95 -5.55 -3.4 -5.15 -3.85 -4.7 -3.8 -4.7 M-2.35 -2.4 Q-3.1 -1.95 -3.35 -2.65 L-2.85 -3.45 Q-2.3 -3.1 -2.35 -2.4 M-2.15 9.75 Q-2.0 10.45 -2.65 10.85 L-2.3 8.65 -2.15 9.75 M-11.7 24.1 L-12.15 23.9 Q-11.6 26.25 -11.35 28.95 -11.15 31.65 -12.3 33.8 -13.35 36.4 -12.75 39.05 -12.15 41.75 -13.05 44.3 L-12.4 43.85 Q-12.55 45.2 -13.4 46.5 -14.25 47.75 -14.55 49.0 L-13.3 48.4 -11.8 47.65 Q-8.9 46.1 -6.1 47.35 -3.35 48.5 -0.95 50.0 L-0.65 42.9 Q-1.3 41.6 -1.15 40.45 L-1.45 40.65 -2.75 40.8 Q-3.65 40.5 -4.65 40.8 L-7.3 40.65 Q-8.5 40.05 -8.0 38.9 L-7.35 38.25 Q-6.45 37.05 -4.8 36.85 L-3.15 36.9 Q-2.3 36.85 -1.9 37.65 L-1.9 38.0 -1.85 38.0 Q-1.3 38.1 -1.0 38.55 L-0.7 39.1 -0.45 38.6 Q-0.3 37.1 -1.45 36.25 L-2.65 35.25 -3.45 34.4 Q-2.6 33.95 -1.85 33.95 -0.95 33.95 -0.15 34.6 1.25 30.9 2.2 27.05 L-7.25 25.7 Q-8.25 24.85 -9.6 24.65 L-11.7 24.1 M-3.5 38.65 L-4.6 38.6 -5.5 38.6 -5.65 38.65 -5.75 38.8 -5.85 38.9 -5.85 39.1 -5.85 39.2 -5.85 39.3 -5.8 39.45 -5.7 39.55 -5.6 39.65 -4.6 39.65 -3.45 39.6 Q-3.1 39.3 -3.3 38.9 L-3.35 38.8 -3.5 38.65 M-4.55 53.95 L-4.4 54.1 -3.7 54.5 Q-3.15 53.55 -3.65 53.25 L-4.65 52.35 -3.05 52.4 -2.2 50.3 -2.4 50.15 Q-6.25 48.1 -10.1 49.15 -11.15 49.4 -12.2 49.9 -12.3 50.95 -12.0 51.9 L-11.8 52.4 Q-12.1 53.55 -11.7 54.8 L-11.7 54.9 Q-11.4 56.1 -12.15 57.1 L-9.35 56.65 -9.3 56.1 -9.25 56.1 -9.15 54.9 -9.0 53.75 -8.85 53.75 -8.65 55.45 Q-8.3 56.35 -7.25 56.3 L-4.95 56.4 -3.8 56.7 Q-3.4 55.65 -4.05 55.3 L-4.9 54.5 -5.0 54.35 -5.05 54.25 -4.9 54.05 -4.55 54.0 -4.55 53.95 M-13.3 61.0 L-10.25 61.25 -6.95 61.75 Q-5.05 63.5 -5.25 66.3 -6.55 68.2 -8.8 68.8 L-13.2 69.95 Q-11.85 70.75 -10.9 72.1 -8.15 72.65 -5.95 71.15 -4.5 69.95 -2.1 69.55 0.3 69.15 -1.15 66.3 -1.35 65.3 -2.0 65.35 -2.7 65.45 -3.35 64.9 -2.5 64.2 -1.55 64.2 -1.2 61.85 -1.55 59.45 -2.5 58.5 -3.6 57.95 -5.55 57.0 -7.9 57.4 L-14.75 58.9 -14.75 59.05 Q-14.5 59.7 -14.5 60.4 -14.55 61.15 -13.45 61.0 L-13.3 61.0 M-11.2 62.25 L-11.25 62.2 -12.05 62.05 -14.05 61.95 -14.3 62.0 Q-16.65 62.5 -16.1 64.85 -15.7 66.75 -15.8 68.3 L-15.85 69.0 Q-11.35 68.45 -6.85 66.85 -7.25 64.5 -8.1 62.35 L-9.15 62.45 -11.2 62.25" fill="#000000" fill-rule="evenodd" stroke="none"/>
    <path d="M1.7 23.4 Q1.05 21.55 1.6 19.5 L1.7 18.35 1.1 13.65 Q0.95 12.75 1.35 12.2 L1.1 10.0 0.7 8.6 0.95 8.7 Q-0.55 8.2 -1.9 7.4 L-2.75 6.8 -2.8 6.8 Q-2.9 5.6 -3.4 4.4 L-3.85 3.5 -2.15 4.2 -3.2 3.75 -3.25 3.35 -2.95 1.6 -2.05 -1.55 -1.65 -1.95 Q-0.65 -2.4 -0.2 -1.55 0.25 -0.8 -0.1 0.0 L-0.2 0.5 0.0 0.9 0.0 1.0 0.05 1.9 0.95 3.1 Q1.35 3.95 2.1 4.55 L3.2 5.35 3.3 5.0 3.25 4.9 3.4 3.75 3.5 3.35 3.25 1.5 Q3.15 -0.3 3.4 -2.0 L3.45 -3.0 Q2.55 -4.2 1.15 -4.75 -1.4 -5.75 -3.8 -4.7 L-3.85 -4.7 -3.4 -5.15 -2.95 -5.55 -1.05 -6.8 -0.6 -6.85 3.05 -6.45 5.2 -5.05 Q7.35 -2.95 8.2 -0.1 L8.85 2.8 8.85 2.85 8.4 5.15 Q7.9 7.85 6.25 10.1 L4.5 12.4 4.1 12.2 2.15 11.4 1.95 11.35 1.95 11.4 1.6 11.85 1.6 12.0 3.1 12.6 Q3.95 12.85 4.1 13.45 L3.95 13.2 3.75 13.7 3.75 13.95 3.7 14.0 Q2.0 16.3 2.15 19.2 L2.15 19.3 2.15 19.85 1.8 23.0 1.7 23.4 M-7.95 21.2 L-7.9 20.85 -7.9 20.75 -7.9 20.55 -7.8 19.95 -7.25 19.4 -7.2 19.35 -7.15 19.3 -7.15 19.35 -7.05 19.3 -6.95 19.25 -6.5 23.85 Q-7.9 24.25 -8.5 23.5 L-8.15 22.5 -7.95 21.2 M-10.1 49.15 Q-6.25 48.1 -2.4 50.15 L-2.2 50.3 -3.05 52.4 -4.65 52.35 -3.65 53.25 Q-3.15 53.55 -3.7 54.5 L-4.4 54.1 -4.55 53.95 -4.6 53.85 -4.65 53.65 Q-4.8 53.3 -5.05 53.1 -5.2 51.85 -6.3 51.05 -6.85 50.65 -7.5 50.4 -8.1 50.15 -8.65 50.05 -9.8 49.9 -10.1 49.15 M-9.5 91.45 L-10.0 91.1 -10.45 90.6 Q-10.35 89.85 -10.8 89.2 L-11.2 88.55 -10.95 88.95 -10.8 88.5 -10.8 88.3 -10.8 88.0 -10.8 87.5 -10.6 87.3 Q-10.1 87.7 -9.35 87.65 L-9.2 87.65 -8.8 87.6 -7.95 88.25 -7.95 88.4 -7.95 88.45 -7.9 88.55 -7.9 88.6 -7.85 88.65 -7.65 88.95 Q-6.85 90.05 -5.8 90.15 L-5.65 90.9 -5.6 91.2 -5.55 91.4 -5.45 92.0 -5.45 92.45 -5.85 92.6 -5.9 92.6 -6.05 92.65 -6.55 92.5 -7.35 92.25 Q-7.95 91.85 -7.95 91.0 L-8.1 88.95 -8.4 91.6 -8.4 91.75 -9.5 91.45 M-9.65 73.65 L-5.75 73.4 Q-4.65 73.0 -3.75 72.1 -2.9 71.25 -1.95 71.15 L-1.8 71.15 -1.8 71.3 Q-1.7 73.05 -0.7 74.6 L1.4 77.65 Q3.2 82.85 2.3 88.9 L1.7 89.8 0.6 89.5 0.4 86.0 0.3 85.95 Q0.5 85.15 0.95 84.45 L1.0 83.0 1.0 81.8 Q-1.05 79.45 -2.25 76.65 L-3.3 73.85 Q-6.1 75.2 -9.1 75.2 L-9.15 75.0 -9.55 73.95 -9.6 73.9 -9.6 73.8 -9.65 73.65 M-0.8 90.85 L-1.4 94.15 -3.6 94.55 -3.95 94.5 -4.0 94.3 -4.0 94.15 -4.35 92.7 -4.5 92.25 -4.3 91.75 -4.75 91.15 -4.75 91.2 -4.75 91.25 -4.75 91.4 -4.9 90.95 -5.05 90.55 -5.15 90.15 -5.05 90.15 -3.95 89.7 -3.45 89.35 -2.95 88.6 -2.85 88.1 Q-0.95 88.55 -1.2 90.85 L-1.15 90.7 -0.8 90.85 M-9.05 83.3 Q-8.65 82.9 -8.05 82.65 L-8.25 83.55 Q-8.65 84.75 -9.85 85.5 L-10.25 85.7 -10.25 85.6 -10.15 85.05 Q-9.9 84.0 -9.05 83.3 M-6.4 85.7 Q-6.65 84.5 -6.4 83.45 -6.2 82.4 -5.45 81.45 L-5.5 82.85 Q-5.65 84.3 -6.1 85.6 L-6.3 86.2 -6.4 85.7 M-11.5 83.6 Q-11.7 82.6 -10.85 81.7 -10.65 82.7 -11.5 83.6 M6.5 2.85 L6.4 2.7 6.4 2.75 6.5 2.85" fill="#996600" fill-rule="evenodd" stroke="none"/>
    <path d="M0.8 -1.65 Q0.3 -1.15 0.9 -0.7 1.25 -0.55 1.55 -0.85 1.65 -1.65 0.8 -1.65 M-3.8 -4.7 Q-1.4 -5.75 1.15 -4.75 2.55 -4.2 3.45 -3.0 L3.4 -2.0 Q3.15 -0.3 3.25 1.5 L3.5 3.35 3.4 3.75 3.25 4.9 3.3 5.0 3.2 5.35 2.1 4.55 Q1.35 3.95 0.95 3.1 L0.05 1.9 0.0 1.0 0.0 0.9 -0.2 0.5 -0.1 0.0 Q0.25 -0.8 -0.2 -1.55 -0.65 -2.4 -1.65 -1.95 L-2.05 -1.55 -2.95 1.6 -3.25 3.35 -3.2 3.75 -2.15 4.2 -3.85 3.5 -3.4 4.4 Q-2.9 5.6 -2.8 6.8 L-2.75 6.8 -1.9 7.4 Q-0.55 8.2 0.95 8.7 L0.7 8.6 1.1 10.0 1.35 12.2 Q0.95 12.75 1.1 13.65 L1.7 18.35 1.6 19.5 Q1.05 21.55 1.7 23.4 L1.05 25.3 -2.5 24.45 -2.1 23.85 Q-0.3 20.65 -1.0 17.0 -1.55 14.1 -4.5 13.95 L-5.65 14.85 -5.3 14.5 Q-4.95 12.85 -5.2 11.25 L-5.2 11.1 -5.2 10.9 -5.0 10.9 -5.6 9.4 -6.55 5.95 -6.95 4.1 -7.0 3.95 -6.85 3.95 -6.9 3.9 -6.95 3.85 -7.05 3.8 -7.05 2.95 -7.1 1.95 -7.05 1.1 -7.0 1.15 Q-6.35 1.9 -5.35 1.65 L-4.8 1.0 Q-4.05 0.0 -3.95 -1.25 -3.8 -2.8 -5.4 -2.85 L-5.5 -2.8 -5.0 -3.45 -3.8 -4.7 M-2.35 -2.4 Q-2.3 -3.1 -2.85 -3.45 L-3.35 -2.65 Q-3.1 -1.95 -2.35 -2.4 M-9.65 20.9 L-7.95 21.2 -8.15 22.5 -8.5 23.5 -8.5 23.55 -8.7 23.5 -9.75 22.9 -9.7 22.8 -9.65 22.2 -9.65 20.9 M-2.15 9.75 L-2.3 8.65 -2.65 10.85 Q-2.0 10.45 -2.15 9.75 M-4.9 54.5 L-4.05 55.3 Q-3.4 55.65 -3.8 56.7 L-4.95 56.4 -4.55 55.5 -4.5 55.0 -4.9 54.5 M-9.3 56.1 L-9.35 56.65 -12.15 57.1 Q-11.4 56.1 -11.7 54.9 -11.0 56.65 -9.3 56.1 M-12.0 51.9 Q-12.3 50.95 -12.2 49.9 -11.15 49.4 -10.1 49.15 -9.8 49.9 -8.65 50.05 -8.1 50.15 -7.5 50.4 -6.85 50.65 -6.3 51.05 -5.2 51.85 -5.05 53.1 -5.8 52.4 -7.4 52.5 -8.3 52.95 -8.7 53.8 -9.1 52.05 -10.7 51.05 -11.1 51.1 -11.5 51.3 L-12.0 51.9 M3.3 83.8 L2.95 86.65 2.75 88.0 Q2.65 85.8 3.3 83.8 M0.3 85.95 L-0.05 85.5 -0.8 90.85 -1.15 90.7 -1.2 90.85 Q-0.95 88.55 -2.85 88.1 L-2.95 88.6 -2.85 87.75 Q-2.95 85.15 -5.85 85.35 -5.8 85.6 -6.1 85.6 -5.65 84.3 -5.5 82.85 L-5.4 82.1 -4.7 80.35 Q-4.25 78.5 -5.8 77.75 L-5.8 77.8 -6.3 77.85 Q-7.15 79.1 -7.3 80.7 -7.5 82.3 -6.7 83.45 L-6.4 83.45 Q-6.65 84.5 -6.4 85.7 L-6.6 85.75 -6.8 85.8 -7.8 87.3 Q-8.05 87.8 -7.95 88.25 L-8.8 87.6 Q-7.55 87.3 -7.4 85.8 -7.15 84.15 -8.25 83.55 L-8.05 82.65 Q-8.65 82.9 -9.05 83.3 L-9.8 83.25 -10.6 83.4 -10.8 83.5 -10.9 83.6 -10.5 80.15 -9.8 78.35 Q-8.75 76.6 -9.15 75.0 L-9.1 75.2 Q-6.1 75.2 -3.3 73.85 L-2.25 76.65 Q-1.05 79.45 1.0 81.8 L1.0 83.0 0.95 84.45 Q0.5 85.15 0.3 85.95 M-4.5 92.25 L-4.9 90.95 -4.75 91.4 -4.75 91.25 -4.75 91.2 -4.75 91.15 -4.3 91.75 -4.5 92.25 M-5.45 92.45 L-5.45 92.7 -5.5 92.7 -5.85 92.6 -5.45 92.45 M-10.8 88.0 L-10.85 87.1 -10.6 87.3 -10.8 87.5 -10.8 88.0" fill="#999933" fill-rule="evenodd" stroke="none"/>
    <path d="M-5.5 -2.8 L-5.4 -2.85 Q-3.8 -2.8 -3.95 -1.25 -4.05 0.0 -4.8 1.0 L-5.35 1.65 Q-6.35 1.9 -7.0 1.15 L-7.05 1.1 -6.5 -0.95 -5.5 -2.8 M-6.85 3.95 L-7.0 3.95 -6.95 4.1 -6.55 5.95 -5.6 9.4 -5.0 10.9 -5.2 10.9 -5.2 11.1 -5.2 11.25 Q-4.95 12.85 -5.3 14.5 L-5.65 14.85 -4.5 13.95 Q-1.55 14.1 -1.0 17.0 -0.3 20.65 -2.1 23.85 L-2.5 24.45 -2.55 24.45 -4.75 24.0 -4.9 24.0 -5.25 21.3 -5.25 18.45 -4.9 16.95 Q-5.45 16.5 -6.4 16.5 L-6.6 17.0 -7.05 19.3 -7.15 19.35 -7.15 19.3 -7.2 19.35 -7.25 19.4 -7.8 19.95 -7.9 20.45 -7.9 19.8 -7.9 20.75 -7.9 20.85 -7.95 21.2 -9.65 20.9 -10.05 19.15 Q-10.7 17.25 -9.6 15.35 L-7.35 14.95 Q-8.0 14.0 -9.1 14.2 L-7.55 11.45 Q-7.25 11.35 -6.95 11.7 -6.75 11.95 -6.45 11.7 -6.5 11.0 -7.15 10.7 -7.6 10.4 -7.3 10.0 L-7.1 9.8 -7.05 9.75 Q-6.55 8.15 -6.85 6.45 L-7.05 3.95 -6.85 3.95 M-6.5 24.0 L-6.45 24.0 -6.5 24.0 M-8.5 23.55 L-8.5 23.6 -8.7 23.5 -8.5 23.55 M-4.55 53.95 L-4.55 54.0 -4.9 54.05 -5.05 54.25 -5.0 54.35 -4.9 54.5 -4.5 55.0 -4.55 55.5 -4.95 56.4 -7.25 56.3 Q-8.3 56.35 -8.65 55.45 L-8.85 53.75 -9.0 53.75 -9.15 54.9 -9.25 56.1 -9.3 56.1 Q-11.0 56.65 -11.7 54.9 L-11.7 54.8 Q-12.1 53.55 -11.8 52.4 L-12.0 51.9 -11.5 51.3 Q-11.1 51.1 -10.7 51.05 -9.1 52.05 -8.7 53.8 -8.3 52.95 -7.4 52.5 -5.8 52.4 -5.05 53.1 -4.8 53.3 -4.65 53.65 L-4.6 53.85 -4.55 53.95 M-15.15 84.85 L-15.2 83.3 -14.25 77.75 -14.55 79.4 -14.65 79.85 -15.15 84.85 M-11.15 73.2 L-9.65 73.65 -9.6 73.8 -9.6 73.9 -9.55 73.95 -9.15 75.0 Q-8.75 76.6 -9.8 78.35 L-10.5 80.15 -10.9 83.6 -10.8 83.5 -10.6 83.4 -9.8 83.25 -9.05 83.3 Q-9.9 84.0 -10.15 85.05 L-10.7 85.2 Q-11.4 85.6 -11.55 86.35 -11.75 87.85 -10.8 88.3 L-10.8 88.5 -10.95 88.95 -11.2 88.55 -11.55 87.85 -11.55 87.8 -11.65 87.65 -11.7 87.55 Q-11.7 88.2 -12.2 88.3 L-13.9 86.75 -13.5 87.05 Q-13.15 83.05 -12.15 79.15 L-11.35 76.2 -11.05 75.2 Q-10.7 73.95 -11.15 73.2 M-5.15 90.15 L-5.2 90.05 -5.1 89.8 Q-4.75 88.95 -5.45 88.3 L-5.45 87.5 Q-5.65 87.0 -6.1 86.75 L-7.0 86.7 Q-7.75 87.2 -7.9 88.15 L-7.95 88.4 -7.95 88.25 Q-8.05 87.8 -7.8 87.3 L-6.8 85.8 -6.6 85.75 -6.4 85.7 -6.3 86.2 -6.1 85.6 Q-5.8 85.6 -5.85 85.35 -2.95 85.15 -2.85 87.75 L-2.95 88.6 -3.45 89.35 -3.95 89.7 -5.05 90.15 -5.15 90.15 M-8.25 83.55 Q-7.15 84.15 -7.4 85.8 -7.55 87.3 -8.8 87.6 -8.1 85.95 -9.45 85.25 L-9.85 85.5 Q-8.65 84.75 -8.25 83.55 M-6.4 83.45 L-6.7 83.45 Q-7.5 82.3 -7.3 80.7 -7.15 79.1 -6.3 77.85 L-5.8 77.8 -5.8 77.75 Q-4.25 78.5 -4.7 80.35 L-5.4 82.1 -5.5 82.85 -5.45 81.45 Q-6.2 82.4 -6.4 83.45 M-11.5 83.6 Q-10.65 82.7 -10.85 81.7 -11.7 82.6 -11.5 83.6" fill="#99cc99" fill-rule="evenodd" stroke="none"/>
    <path d="M-7.05 3.8 L-6.95 3.85 -6.9 3.9 -6.85 3.95 -7.05 3.95 -7.05 3.85 -7.05 3.8 M-7.9 20.75 L-7.9 19.8 -7.9 20.45 -7.8 19.95 -7.9 20.55 -7.9 20.75 M-7.05 19.3 L-6.6 17.0 -6.4 16.5 Q-5.45 16.5 -4.9 16.95 L-5.25 18.45 -5.25 21.3 -4.9 24.0 -6.45 24.0 -6.5 24.0 -6.5 23.85 -6.95 19.25 -7.05 19.3 M-13.9 86.75 L-14.35 86.45 -14.55 86.35 -14.6 86.3 -14.55 85.9 Q-13.65 79.3 -12.4 72.8 L-12.35 72.6 -12.3 72.65 -11.15 73.2 Q-10.7 73.95 -11.05 75.2 L-11.35 76.2 -12.15 79.15 Q-13.15 83.05 -13.5 87.05 L-13.9 86.75 M-5.2 90.05 L-5.3 89.85 -5.4 89.6 -5.6 89.05 -5.8 90.15 Q-6.85 90.05 -7.65 88.95 L-7.85 88.65 -7.9 88.6 -7.9 88.55 -7.95 88.45 -7.95 88.4 -7.9 88.15 Q-7.75 87.2 -7.0 86.7 L-6.1 86.75 Q-5.65 87.0 -5.45 87.5 L-5.45 88.3 Q-4.75 88.95 -5.1 89.8 L-5.2 90.05 M-9.85 85.5 L-9.45 85.25 Q-8.1 85.95 -8.8 87.6 L-9.2 87.65 -9.35 87.65 Q-10.1 87.7 -10.6 87.3 L-10.85 87.1 -10.8 88.0 -10.8 88.3 Q-11.75 87.85 -11.55 86.35 -11.4 85.6 -10.7 85.2 L-10.15 85.05 -10.25 85.6 -10.25 85.7 -9.85 85.5" fill="#99ffcc" fill-rule="evenodd" stroke="none"/>
    <path d="M-13.3 48.4 L-14.55 49.0 Q-14.25 47.75 -13.4 46.5 -12.55 45.2 -12.4 43.85 L-13.05 44.3 Q-12.15 41.75 -12.75 39.05 -13.35 36.4 -12.3 33.8 -11.15 31.65 -11.35 28.95 -11.6 26.25 -12.15 23.9 L-11.7 24.1 -11.5 24.85 -11.45 25.05 -10.95 26.45 -10.85 27.35 -10.7 28.1 Q-10.05 30.25 -10.6 32.4 L-10.8 32.7 -12.25 37.7 -12.4 38.5 -12.25 39.4 Q-9.95 41.7 -11.4 44.7 L-12.55 47.05 -13.3 48.4 M-1.85 33.95 Q-2.6 33.95 -3.45 34.4 L-2.65 35.25 -5.65 35.3 -6.5 35.45 Q-7.85 35.85 -7.95 34.7 -8.0 34.05 -7.4 33.75 L-5.35 33.1 Q-3.1 32.7 -1.85 33.95 M-3.6 57.95 L-3.65 57.95 Q-8.1 58.05 -12.4 59.6 L-12.6 60.15 Q-12.75 60.7 -13.2 60.95 L-13.3 61.0 -13.45 61.0 Q-14.55 61.15 -14.5 60.4 -14.5 59.7 -14.75 59.05 L-14.75 58.9 -7.9 57.4 Q-5.55 57.0 -3.6 57.95 M-12.05 62.05 L-11.25 62.2 -11.2 62.25 -11.3 62.3 -11.4 62.2 -12.05 62.05 M-9.15 62.45 L-8.1 62.35 Q-7.25 64.5 -6.85 66.85 -11.35 68.45 -15.85 69.0 L-15.8 68.3 -15.5 68.25 -15.25 68.15 -10.0 67.0 Q-9.2 66.8 -8.85 66.1 L-9.2 66.45 -8.7 65.95 -8.75 65.9 -8.6 65.3 -8.55 64.55 -9.0 62.7 -9.15 62.45" fill="#666666" fill-rule="evenodd" stroke="none"/>
    <path d="M-3.5 38.65 L-3.35 38.8 -3.3 38.9 Q-3.1 39.3 -3.45 39.6 L-4.6 39.65 -5.6 39.65 -5.7 39.55 -5.8 39.45 -5.85 39.3 -5.85 39.2 -5.85 39.1 -5.85 38.9 -5.75 38.8 -5.65 38.65 -5.5 38.6 -4.6 38.6 -3.5 38.65 M-13.7 63.05 Q-12.3 62.95 -11.8 64.1 -11.9 64.85 -12.65 65.0 -13.9 65.1 -14.4 64.0 -14.45 63.2 -13.7 63.05 M-9.2 66.45 L-11.1 67.1 -11.45 67.1 Q-12.35 67.0 -13.15 67.45 -14.0 67.9 -14.5 67.2 -14.25 66.1 -13.05 66.1 L-10.75 65.65 Q-9.65 65.15 -8.75 65.9 L-8.7 65.95 -9.2 66.45 M-9.8 64.55 L-10.55 63.85 Q-10.2 63.1 -9.3 63.6 -9.2 64.15 -9.8 64.55" fill="#333333" fill-rule="evenodd" stroke="none"/>
    <path d="M-11.2 62.25 L-9.15 62.45 -9.0 62.7 -8.55 64.55 -8.6 65.3 -8.75 65.9 Q-9.65 65.15 -10.75 65.65 L-13.05 66.1 Q-14.25 66.1 -14.5 67.2 -14.0 67.9 -13.15 67.45 -12.35 67.0 -11.45 67.1 L-11.1 67.1 -9.2 66.45 -8.85 66.1 Q-9.2 66.8 -10.0 67.0 L-15.25 68.15 -15.5 68.25 -15.8 68.3 Q-15.7 66.75 -16.1 64.85 -16.65 62.5 -14.3 62.0 L-14.05 61.95 -12.05 62.05 -11.4 62.2 -11.3 62.3 -11.2 62.25 M-13.7 63.05 Q-14.45 63.2 -14.4 64.0 -13.9 65.1 -12.65 65.0 -11.9 64.85 -11.8 64.1 -12.3 62.95 -13.7 63.05 M-9.8 64.55 Q-9.2 64.15 -9.3 63.6 -10.2 63.1 -10.55 63.85 L-9.8 64.55" fill="#999999" fill-rule="evenodd" stroke="none"/>
  </g>
</svg>
