<?xml version="1.0" encoding="UTF-8" standalone="no"?>
<svg xmlns:xlink="http://www.w3.org/1999/xlink" height="108.45px" width="29.25px" xmlns="http://www.w3.org/2000/svg">
  <g transform="matrix(1.0, 0.0, 0.0, 1.0, 6.25, 6.85)">
    <path d="M-1.6 -6.35 L-1.25 -6.45 -1.2 -6.5 -1.05 -6.55 0.2 -6.8 0.3 -6.85 0.5 -6.8 1.0 -6.75 1.05 -6.7 1.05 -6.75 Q3.2 -6.55 5.05 -5.65 L5.05 -5.5 Q5.2 -4.85 5.8 -4.4 L7.25 -2.9 9.75 1.2 Q10.4 2.35 10.4 3.6 L10.45 4.1 10.65 5.05 9.85 5.5 10.45 5.25 10.75 7.75 10.7 7.75 10.7 8.0 10.7 8.25 10.6 9.05 10.15 10.55 10.0 11.0 9.85 11.7 Q7.95 12.9 5.8 12.35 L5.5 12.05 5.65 11.95 5.8 11.8 5.85 11.75 Q6.45 11.25 6.45 10.45 L6.3 9.45 6.3 9.4 6.85 8.6 8.15 4.9 8.2 4.45 Q7.7 0.45 5.05 -2.65 3.9 -4.05 1.95 -4.25 -0.15 -4.5 -1.45 -5.9 L-1.6 -6.3 -1.6 -6.35 M11.5 27.5 Q12.65 32.35 12.9 37.35 13.95 37.8 14.25 39.0 L13.95 42.45 12.05 42.55 Q11.2 41.65 11.45 40.3 L11.6 39.4 10.05 37.6 9.75 36.85 9.55 37.25 Q9.0 37.05 9.05 36.55 9.05 36.1 8.7 35.75 L8.85 35.45 9.55 35.8 9.05 33.7 8.5 34.8 Q8.15 31.95 8.5 28.9 L8.15 27.45 7.45 24.9 Q7.0 23.55 7.0 22.15 L7.1 20.8 7.1 20.9 7.15 21.05 7.3 21.5 Q7.95 23.65 9.3 25.65 L9.3 25.7 9.35 25.75 9.4 25.85 Q10.1 26.95 10.2 28.25 L10.2 29.1 10.9 27.95 11.05 27.45 11.5 27.5 M-1.0 14.8 Q-1.55 13.7 -2.35 12.7 L-2.35 12.65 Q-2.5 11.4 -3.3 10.45 L-3.35 10.2 -3.45 10.05 -3.1 10.25 -2.75 10.4 -2.7 10.4 Q-2.15 10.55 -1.55 10.8 -1.0 11.05 -0.5 11.4 0.1 11.8 0.7 12.35 L1.3 13.0 1.4 13.15 1.2 13.1 0.9 13.75 Q0.1 14.8 -1.0 14.8 M1.55 2.15 Q3.7 2.2 4.4 4.2 4.9 5.8 4.85 7.35 L4.8 7.3 4.7 7.25 Q4.55 8.05 3.85 8.6 3.45 8.95 2.9 9.0 L1.95 9.0 1.9 9.0 -0.2 8.95 Q-1.1 8.75 -1.2 7.95 L-0.8 7.65 Q-1.2 7.85 -1.4 8.15 -1.45 7.5 -0.75 7.0 0.25 6.2 0.4 5.05 L0.55 3.45 Q0.6 2.5 1.55 2.15 M7.4 35.2 L7.9 36.3 Q7.8 37.6 6.7 38.2 L6.1 36.55 Q5.7 35.7 6.35 34.8 7.15 34.55 7.4 35.2 M5.25 76.3 L5.35 76.0 5.3 75.85 5.3 75.6 Q5.2 75.05 5.65 74.85 6.1 74.8 6.45 75.1 L6.45 75.15 8.85 75.9 12.6 76.1 13.3 75.95 14.45 75.85 14.65 76.05 14.7 76.1 14.75 76.1 Q14.8 79.35 15.65 82.45 16.55 85.55 15.35 88.9 15.0 92.25 12.35 94.6 12.35 93.55 12.8 92.6 13.25 91.65 12.4 90.8 10.85 92.45 10.75 95.0 10.65 97.5 8.1 98.75 L7.55 99.4 7.55 99.3 Q8.85 97.9 9.45 96.2 L9.5 95.85 9.55 95.8 10.35 94.1 10.85 91.35 10.95 90.4 10.95 90.25 10.95 89.6 12.35 90.05 13.2 89.8 Q14.0 89.5 14.1 88.55 L14.1 88.35 14.0 87.35 14.05 87.25 Q13.55 86.5 13.6 85.6 13.7 84.5 14.55 83.65 14.7 82.6 14.5 81.6 L14.0 79.65 13.95 79.2 9.5 78.65 7.35 78.25 Q7.45 77.25 7.0 76.75 L6.95 76.7 Q6.65 76.45 6.3 76.35 L6.25 76.35 6.2 76.3 6.15 76.3 6.1 76.3 6.0 76.25 5.9 76.25 5.75 76.2 5.25 76.3" fill="#996600" fill-rule="evenodd" stroke="none"/>
    <path d="M6.85 -4.5 L7.0 -4.25 7.15 -3.85 Q8.05 -1.75 9.95 -0.35 L10.3 0.05 11.5 2.55 11.75 3.25 11.95 3.65 11.95 3.7 11.8 4.4 11.45 4.6 12.0 4.3 12.15 4.25 12.15 4.3 11.8 4.5 Q12.45 6.25 11.95 8.0 L11.1 11.5 Q12.1 12.4 12.35 13.55 L12.95 13.6 Q12.45 14.45 13.5 16.0 L14.9 15.95 Q14.65 16.4 13.95 16.35 14.25 19.2 12.9 22.0 L13.7 22.45 13.65 22.8 Q12.3 22.6 12.05 23.95 12.0 27.45 14.05 29.5 13.3 30.8 13.45 32.75 13.65 34.6 13.25 36.4 14.6 36.15 15.1 37.45 15.95 39.1 14.95 41.2 13.9 43.2 16.75 43.7 17.55 44.5 17.4 45.4 17.2 46.3 17.7 47.15 19.6 46.4 21.3 45.15 20.9 48.55 17.95 50.55 L18.0 51.8 Q20.2 51.7 21.9 49.95 22.1 50.9 20.85 52.05 L17.85 54.85 Q18.15 57.05 18.8 59.3 L23.0 56.75 Q22.0 59.55 18.8 62.1 18.75 64.5 17.35 66.45 L20.9 69.65 20.85 70.25 16.85 70.6 Q16.75 71.95 17.0 73.3 17.25 74.65 15.9 75.45 18.05 79.8 17.5 84.55 16.9 89.25 15.0 93.6 13.25 94.6 11.9 96.3 10.55 97.95 8.75 99.0 7.95 100.6 6.55 101.6 5.2 101.45 5.05 100.25 L4.5 98.05 Q4.7 97.05 5.6 96.9 6.5 96.7 6.65 95.65 5.8 95.8 5.85 94.9 5.9 94.0 6.1 93.35 6.75 92.5 7.55 92.95 8.05 90.55 7.75 87.9 7.15 87.3 6.35 87.05 5.75 88.95 5.95 91.45 6.1 93.95 3.45 94.25 L2.8 93.65 2.2 90.45 2.15 88.95 Q1.05 86.95 1.1 84.45 1.1 81.9 2.1 79.95 3.85 77.55 3.9 74.15 L2.5 73.15 Q1.6 72.7 2.1 71.7 3.65 70.25 2.75 68.25 -0.3 59.7 3.0 51.15 2.45 47.65 3.3 44.2 L4.2 43.8 4.4 40.0 Q4.5 37.95 2.95 36.45 -0.35 32.45 -0.45 27.1 -0.55 21.8 -2.55 17.2 L-2.6 17.25 -3.0 15.3 Q-3.7 12.5 -4.8 9.8 L-5.35 8.3 -5.55 7.6 -5.4 8.1 -5.3 8.3 -5.2 8.4 -4.95 8.75 -4.95 8.8 -4.05 9.65 -3.85 9.8 -3.45 10.05 -3.35 10.2 -3.3 10.45 Q-2.5 11.4 -2.35 12.65 L-2.35 12.7 Q-1.55 13.7 -1.0 14.8 L-0.65 15.45 -0.1 16.95 0.25 18.65 0.35 19.7 0.35 19.9 0.35 20.45 0.45 23.8 0.65 27.6 Q0.9 31.45 4.0 34.5 L4.35 34.95 4.45 35.15 4.5 35.25 4.55 35.35 5.05 36.8 5.15 37.2 5.25 38.8 5.15 40.0 4.95 42.5 4.85 43.5 5.6 43.35 5.75 43.3 7.1 43.15 9.95 42.75 12.05 42.55 13.95 42.45 14.25 39.0 Q13.95 37.8 12.9 37.35 12.65 32.35 11.5 27.5 L11.3 26.7 11.25 26.55 Q10.45 25.8 10.75 25.05 L11.05 24.25 11.1 23.95 11.25 23.5 Q10.9 22.3 11.65 21.65 L11.75 21.6 Q12.55 20.85 12.35 19.6 L11.2 19.8 10.0 19.5 Q10.35 19.2 10.8 19.0 L12.25 18.45 11.45 16.4 9.8 17.0 Q9.5 16.65 9.65 16.3 10.2 15.7 10.9 15.55 9.55 13.7 9.85 11.7 L10.0 11.0 10.15 10.55 10.6 9.05 10.7 8.25 10.7 8.0 10.75 7.75 10.45 5.25 9.85 5.5 10.65 5.05 10.45 4.1 10.4 3.6 Q10.4 2.35 9.75 1.2 L7.25 -2.9 5.8 -4.4 Q5.2 -4.85 5.05 -5.5 L5.05 -5.65 Q5.4 -5.45 5.8 -5.2 L6.8 -4.5 6.85 -4.5 M17.8 48.45 L17.7 49.05 17.85 49.4 17.7 49.75 17.95 49.4 18.2 49.4 Q19.4 48.65 20.15 47.5 L20.25 47.35 Q20.45 46.9 19.85 46.8 L18.05 47.8 17.9 47.95 17.8 48.45 M17.2 52.1 L16.8 49.35 Q17.15 48.2 16.6 46.95 16.0 45.7 16.25 44.45 L15.1 43.8 12.9 43.55 9.35 44.15 4.1 45.55 Q4.05 48.0 4.45 50.1 3.1 54.6 2.6 59.5 2.7 62.75 3.45 65.75 4.2 68.7 2.9 71.75 5.75 74.0 9.2 75.0 L9.85 75.2 11.85 75.4 Q14.0 75.3 15.6 73.7 L15.55 73.15 15.55 73.0 15.55 72.85 15.75 71.1 15.8 70.9 15.9 70.55 15.9 70.5 15.95 70.25 15.35 69.3 15.4 68.5 15.4 67.7 15.6 67.45 15.9 67.15 15.95 67.1 16.45 66.6 16.8 66.05 Q17.25 65.1 17.15 63.95 18.1 61.9 17.85 59.8 L17.15 55.85 17.25 55.15 Q17.2 54.55 17.3 54.0 L18.3 52.75 17.35 53.05 17.2 52.1 M13.95 59.15 L13.9 59.25 14.65 59.25 13.85 59.25 13.95 59.15 M4.65 77.6 L3.85 78.9 Q2.9 80.1 2.4 81.45 1.6 83.5 1.85 85.95 3.25 87.55 3.1 89.6 L3.55 90.95 3.4 91.85 Q2.9 92.95 4.0 93.65 4.95 92.65 4.7 91.35 4.5 90.0 4.65 88.9 L5.3 87.6 Q5.75 86.9 5.1 86.6 L5.4 86.3 5.6 86.1 5.75 86.05 6.85 85.9 6.9 85.9 Q7.25 86.05 7.35 86.55 7.65 87.65 8.4 87.8 L8.55 88.0 Q9.35 89.4 9.05 91.2 L8.4 94.6 7.05 96.2 5.3 97.5 Q5.2 99.25 6.2 100.45 L6.45 100.7 7.55 99.4 8.1 98.75 Q10.65 97.5 10.75 95.0 10.85 92.45 12.4 90.8 13.25 91.65 12.8 92.6 12.35 93.55 12.35 94.6 15.0 92.25 15.35 88.9 16.55 85.55 15.65 82.45 14.8 79.35 14.75 76.1 L14.7 76.1 14.65 76.05 14.45 75.85 13.3 75.95 12.6 76.1 8.85 75.9 6.45 75.15 6.45 75.1 Q6.1 74.8 5.65 74.85 5.2 75.05 5.3 75.6 L5.3 75.85 5.35 76.0 5.25 76.3 4.65 77.6 M17.85 69.95 Q18.7 70.3 19.2 69.55 19.55 69.0 19.05 68.65 17.85 67.8 16.45 67.6 16.2 67.7 16.1 67.95 15.95 68.3 15.95 68.7 15.95 69.7 17.1 69.75 L17.85 69.95 M12.95 88.5 L12.15 88.75 12.05 88.6 12.7 87.95 Q12.85 87.8 13.0 87.8 L13.45 88.15 12.95 88.5" fill="#000000" fill-rule="evenodd" stroke="none"/>
    <path d="M5.8 -5.2 L6.75 -4.6 6.85 -4.5 6.8 -4.5 5.8 -5.2" fill="#999999" fill-rule="evenodd" stroke="none"/>
    <path d="M1.0 -6.75 L1.05 -6.75 1.05 -6.7 1.0 -6.75" fill="#666666" fill-rule="evenodd" stroke="none"/>
    <path d="M11.95 3.7 L12.15 4.25 12.0 4.3 11.45 4.6 11.8 4.4 11.95 3.7 M-5.55 7.6 L-5.7 7.1 -5.75 6.95 -5.75 6.9 -5.8 6.6 -6.2 4.15 -6.2 4.0 -6.25 2.15 Q-6.2 0.25 -5.8 -1.55 L-5.3 -3.05 -4.6 -4.25 Q-3.75 -5.45 -2.35 -6.05 L-1.6 -6.35 -1.6 -6.3 -1.45 -5.9 Q-0.15 -4.5 1.95 -4.25 3.9 -4.05 5.05 -2.65 7.7 0.45 8.2 4.45 L8.15 4.9 6.85 8.6 6.3 9.4 6.3 9.45 6.45 10.45 Q6.45 11.25 5.85 11.75 L5.8 11.8 5.65 11.95 5.5 12.05 5.8 12.35 Q7.95 12.9 9.85 11.7 9.55 13.7 10.9 15.55 10.2 15.7 9.65 16.3 9.5 16.65 9.8 17.0 L11.45 16.4 12.25 18.45 10.8 19.0 Q10.35 19.2 10.0 19.5 L11.2 19.8 12.35 19.6 Q12.55 20.85 11.75 21.6 L11.65 21.65 Q10.9 22.3 11.25 23.5 L11.1 23.95 11.05 24.25 10.95 23.95 Q10.7 22.05 9.55 20.55 L8.9 19.85 Q7.45 20.15 7.3 21.5 L7.15 21.05 7.1 20.9 7.1 20.8 7.0 22.15 Q7.0 23.55 7.45 24.9 L8.15 27.45 8.5 28.9 Q8.15 31.95 8.5 34.8 L9.05 33.7 9.55 35.8 8.85 35.45 8.7 35.75 Q9.05 36.1 9.05 36.55 9.0 37.05 9.55 37.25 L9.75 36.85 10.05 37.6 11.6 39.4 11.45 40.3 Q11.2 41.65 12.05 42.55 L9.95 42.75 Q10.65 42.1 10.55 41.05 10.25 38.2 7.3 38.3 L6.2 38.9 5.3 39.8 5.15 40.0 5.25 38.8 5.15 37.2 5.3 36.75 5.4 36.55 5.65 35.65 Q7.05 30.9 6.15 25.75 L5.75 23.05 5.15 21.7 4.35 20.25 0.35 20.45 0.35 19.9 0.35 19.7 0.25 18.65 -0.1 16.95 -0.65 15.45 -1.0 14.8 Q0.1 14.8 0.9 13.75 L1.2 13.1 1.4 13.15 1.3 13.0 0.7 12.35 Q0.1 11.8 -0.5 11.4 -1.0 11.05 -1.55 10.8 -2.15 10.55 -2.7 10.4 L-2.75 10.4 -3.1 10.25 -3.45 10.05 -3.85 9.8 -4.05 9.65 -4.95 8.8 -4.95 8.75 -5.2 8.4 -5.3 8.3 -5.4 8.1 -5.55 7.6 M10.75 7.75 L10.7 8.0 10.7 7.75 10.75 7.75 M11.3 26.7 L11.5 27.5 11.05 27.45 11.15 26.9 11.3 26.7 M5.6 43.35 L4.85 43.5 4.95 42.5 5.6 43.35 M1.55 2.15 Q0.6 2.5 0.55 3.45 L0.4 5.05 Q0.25 6.2 -0.75 7.0 -1.45 7.5 -1.4 8.15 -1.2 7.85 -0.8 7.65 L-1.2 7.95 Q-1.1 8.75 -0.2 8.95 L1.9 9.0 1.95 9.0 2.9 9.0 Q3.45 8.95 3.85 8.6 4.55 8.05 4.7 7.25 L4.8 7.3 4.85 7.35 Q4.9 5.8 4.4 4.2 3.7 2.2 1.55 2.15 M-3.05 -2.45 L-4.2 -1.3 Q-5.25 0.65 -5.25 2.85 L-5.25 3.1 Q-5.15 4.35 -4.2 4.75 L-4.1 4.9 -3.8 5.1 Q-2.5 5.55 -1.95 4.2 -1.1 1.95 -1.45 -0.55 L-1.55 -1.3 Q-1.6 -2.65 -3.05 -2.45 M7.4 35.2 Q7.15 34.55 6.35 34.8 5.7 35.7 6.1 36.55 L6.7 38.2 Q7.8 37.6 7.9 36.3 L7.4 35.2 M7.55 99.4 L6.45 100.7 6.2 100.45 6.65 100.3 7.55 99.3 7.55 99.4 M8.55 88.0 L8.4 87.8 Q7.65 87.65 7.35 86.55 7.25 86.05 6.9 85.9 L6.85 85.9 5.75 86.05 5.6 86.1 5.4 86.3 Q4.75 85.5 4.8 84.2 4.85 83.25 5.15 82.35 5.5 81.35 6.4 80.95 L6.35 81.1 7.25 78.65 7.35 78.25 9.5 78.65 13.95 79.2 14.0 79.65 14.5 81.6 Q14.7 82.6 14.55 83.65 13.7 84.5 13.6 85.6 13.55 86.5 14.05 87.25 L14.0 87.35 14.1 88.35 14.1 88.55 Q14.0 89.5 13.2 89.8 L12.35 90.05 Q12.85 89.45 12.95 88.6 L12.95 88.5 13.45 88.15 13.0 87.8 12.6 86.75 11.9 86.25 11.95 86.1 11.6 86.1 11.5 86.15 Q10.9 86.5 10.5 87.15 L10.3 86.6 10.25 86.55 Q9.85 86.9 9.75 87.5 L8.55 88.0 M11.4 79.35 L10.9 79.3 10.7 79.45 10.4 80.0 Q10.2 81.0 10.85 81.95 L12.25 84.3 12.85 84.35 12.85 84.3 13.05 84.05 Q13.65 81.35 11.4 79.35" fill="#999933" fill-rule="evenodd" stroke="none"/>
    <path d="M11.05 24.25 L10.75 25.05 Q10.45 25.8 11.25 26.55 L11.3 26.7 11.15 26.9 11.05 27.45 10.9 27.95 10.2 29.1 10.2 28.25 Q10.1 26.95 9.4 25.85 L9.35 25.75 9.3 25.7 9.3 25.65 Q7.95 23.65 7.3 21.5 7.45 20.15 8.9 19.85 L9.55 20.55 Q10.7 22.05 10.95 23.95 L11.05 24.25 M9.95 42.75 L7.1 43.15 7.15 42.5 7.6 42.0 7.95 41.5 Q8.7 39.05 6.2 38.9 L7.3 38.3 Q10.25 38.2 10.55 41.05 10.65 42.1 9.95 42.75 M5.15 37.2 L5.05 36.8 5.3 36.75 5.15 37.2 M0.45 23.8 L0.35 20.45 4.35 20.25 5.15 21.7 5.75 23.05 6.15 25.75 Q7.05 30.9 5.65 35.65 L5.9 34.75 Q5.1 29.7 3.55 24.7 L3.55 24.55 Q4.0 22.5 2.0 22.2 1.45 22.15 1.1 22.6 0.7 23.15 0.45 23.8 M-3.05 -2.45 Q-1.6 -2.65 -1.55 -1.3 L-1.45 -0.55 Q-1.1 1.95 -1.95 4.2 -2.5 5.55 -3.8 5.1 L-4.1 4.9 -4.2 4.75 Q-5.15 4.35 -5.25 3.1 L-5.25 2.85 Q-5.25 0.65 -4.2 -1.3 L-3.05 -2.45 M4.65 77.6 L5.25 76.3 5.75 76.2 5.9 76.25 6.0 76.25 6.1 76.3 6.15 76.3 6.2 76.3 6.25 76.35 6.3 76.35 Q6.65 76.45 6.95 76.7 L7.0 76.75 Q7.45 77.25 7.35 78.25 L7.25 78.65 6.35 81.1 6.4 80.95 Q5.5 81.35 5.15 82.35 4.85 83.25 4.8 84.2 4.75 85.5 5.4 86.3 L5.1 86.6 Q5.75 86.9 5.3 87.6 L4.65 88.9 Q4.5 90.0 4.7 91.35 4.95 92.65 4.0 93.65 2.9 92.95 3.4 91.85 L3.55 90.95 3.1 89.6 Q3.25 87.55 1.85 85.95 1.6 83.5 2.4 81.45 L2.6 81.75 2.35 82.7 Q1.95 84.2 1.9 85.75 L2.05 85.85 2.65 85.95 3.2 85.25 4.3 82.0 Q5.45 81.3 6.1 80.15 7.2 78.1 5.0 77.55 L4.65 77.6 M6.2 100.45 Q5.2 99.25 5.3 97.5 L7.05 96.2 8.4 94.6 9.05 91.2 Q9.35 89.4 8.55 88.0 L9.75 87.5 Q9.85 86.9 10.25 86.55 L10.3 86.6 Q10.15 86.9 10.25 87.4 10.65 88.7 12.1 88.2 L12.55 87.6 12.6 86.75 13.0 87.8 Q12.85 87.8 12.7 87.95 L12.05 88.6 12.15 88.75 12.95 88.5 12.95 88.6 Q12.85 89.45 12.35 90.05 L10.95 89.6 10.95 90.25 10.95 90.4 10.85 91.35 10.35 94.1 9.55 95.8 9.5 95.85 9.45 96.2 Q8.85 97.9 7.55 99.3 L6.65 100.3 6.2 100.45 M11.4 79.35 Q13.65 81.35 13.05 84.05 L12.85 84.3 12.85 84.35 12.25 84.3 10.85 81.95 Q10.2 81.0 10.4 80.0 L10.7 79.45 10.9 79.3 11.4 79.35" fill="#99cc99" fill-rule="evenodd" stroke="none"/>
    <path d="M20.25 47.35 L20.15 47.5 Q19.4 48.65 18.2 49.4 L17.95 49.4 17.7 49.75 17.85 49.4 17.7 49.05 17.8 48.45 Q18.0 48.85 18.75 48.7 L20.0 47.55 20.25 47.35 M14.05 53.65 L13.7 53.8 Q13.4 54.0 13.5 54.35 13.8 55.35 14.9 54.9 16.1 54.4 17.3 54.0 16.1 55.3 14.5 56.25 13.4 55.95 13.1 54.85 13.05 53.9 13.95 53.65 L14.05 53.65 M8.75 66.3 L10.35 66.35 10.9 65.9 Q11.4 66.0 11.9 66.25 10.5 67.35 8.75 67.35 8.55 66.8 8.75 66.3 M9.3 51.45 L8.6 52.35 Q7.8 52.2 7.55 51.5 L8.15 51.1 Q8.0 51.7 8.85 51.8 L8.9 51.7 9.3 51.45 M7.35 59.35 Q7.75 59.65 7.8 60.2 7.2 61.3 6.05 60.8 L5.65 59.85 6.95 59.75 7.35 59.35 M17.85 69.95 L17.1 69.75 Q15.95 69.7 15.95 68.7 15.95 68.3 16.1 67.95 16.2 67.7 16.45 67.6 17.85 67.8 19.05 68.65 19.55 69.0 19.2 69.55 18.7 70.3 17.85 69.95 M16.65 67.9 Q16.0 68.25 16.35 68.85 L18.7 68.95 Q17.8 68.05 16.65 67.9" fill="#a8a8a8" fill-rule="evenodd" stroke="none"/>
    <path d="M15.1 43.8 L16.25 44.45 Q16.0 45.7 16.6 46.95 17.15 48.2 16.8 49.35 L17.2 52.1 17.1 52.15 Q16.15 52.8 15.2 52.75 14.65 50.65 13.65 48.75 L13.35 47.75 Q13.2 45.95 14.35 44.45 L14.65 43.95 14.8 43.7 15.1 43.8 M17.15 55.85 L17.85 59.8 Q18.1 61.9 17.15 63.95 17.25 65.1 16.8 66.05 L15.55 65.95 15.0 66.45 14.9 66.55 14.85 66.65 14.75 66.7 14.55 66.95 14.45 67.1 14.1 67.7 13.75 68.65 13.75 69.45 Q14.15 70.9 15.75 70.85 L15.8 70.9 15.75 71.1 15.55 72.85 15.55 73.0 15.55 73.15 15.6 73.7 Q14.0 75.3 11.85 75.4 11.9 74.65 12.7 74.05 13.5 73.4 13.6 72.4 12.4 70.05 13.65 67.85 15.05 65.45 15.4 62.7 L15.65 58.65 16.25 57.8 16.25 57.75 Q16.2 56.5 17.15 55.7 L17.15 55.85" fill="#9b4600" fill-rule="evenodd" stroke="none"/>
    <path d="M17.8 48.45 L17.9 47.95 18.05 47.8 19.85 46.8 Q20.45 46.9 20.25 47.35 L20.0 47.55 18.75 48.7 Q18.0 48.85 17.8 48.45 M17.35 53.05 L18.3 52.75 17.3 54.0 Q16.1 54.4 14.9 54.9 13.8 55.35 13.5 54.35 13.4 54.0 13.7 53.8 L14.05 53.65 17.35 53.05 M10.9 65.9 L10.35 66.35 8.75 66.3 8.9 66.0 9.1 65.75 9.15 65.7 9.35 65.7 9.4 65.7 10.55 65.85 10.9 65.9 M8.15 51.1 L9.7 50.0 Q9.7 50.75 9.3 51.45 L8.9 51.7 8.85 51.8 Q8.0 51.7 8.15 51.1 M5.65 59.85 L5.7 59.5 Q6.25 58.85 7.0 59.15 L7.35 59.35 6.95 59.75 5.65 59.85 M16.65 67.9 Q17.8 68.05 18.7 68.95 L16.35 68.85 Q16.0 68.25 16.65 67.9" fill="#ffffff" fill-rule="evenodd" stroke="none"/>
    <path d="M15.4 68.5 L15.35 69.3 15.95 70.25 15.9 70.5 15.9 70.55 15.8 70.9 15.75 70.85 Q14.15 70.9 13.75 69.45 L13.75 68.65 14.1 67.7 13.85 68.4 13.9 68.55 Q14.2 69.0 14.75 68.85 L15.4 68.5 M11.85 75.4 L9.85 75.2 9.2 75.0 9.05 74.3 Q8.9 73.0 7.95 71.9 6.7 70.45 6.9 68.85 L7.1 69.25 7.15 69.3 7.2 69.35 7.35 69.5 Q8.25 70.35 9.45 70.2 L10.75 70.15 Q11.7 69.55 11.85 68.45 L12.1 67.15 13.85 66.0 13.55 65.75 11.75 65.6 Q11.95 64.9 11.4 64.25 L11.15 64.0 Q10.3 63.45 9.3 63.55 L9.85 62.7 9.65 58.55 Q9.7 56.1 10.05 53.75 L9.85 53.65 Q10.35 53.2 10.4 52.4 L10.35 51.25 10.15 51.7 10.35 51.15 11.1 48.35 Q10.45 48.25 10.1 49.0 L9.5 49.35 Q9.0 48.95 8.2 49.0 L8.05 49.0 Q8.3 48.35 8.95 47.85 L9.25 47.75 9.25 47.7 9.1 46.0 Q8.95 44.9 9.35 44.15 L12.9 43.55 15.1 43.8 14.8 43.7 14.65 43.95 14.35 44.45 Q13.2 45.95 13.35 47.75 L13.65 48.75 Q14.65 50.65 15.2 52.75 L14.1 52.45 Q13.5 51.75 12.75 52.05 L12.7 52.1 12.3 52.1 Q11.55 52.55 11.15 53.35 10.35 54.85 10.8 56.5 L11.5 57.9 11.95 58.4 12.0 58.4 12.2 58.55 12.85 58.95 12.95 59.0 13.0 59.0 13.3 59.1 14.15 59.0 13.95 59.15 13.85 59.25 14.65 59.25 15.65 58.65 15.4 62.7 Q15.05 65.45 13.65 67.85 12.4 70.05 13.6 72.4 13.5 73.4 12.7 74.05 11.9 74.65 11.85 75.4 M13.25 53.0 L13.3 53.05 13.25 53.0 M9.9 68.05 L11.0 67.65 11.0 67.7 9.9 68.05" fill="#c16100" fill-rule="evenodd" stroke="none"/>
    <path d="M17.2 52.1 L17.35 53.05 14.05 53.65 13.95 53.65 Q13.05 53.9 13.1 54.85 13.4 55.95 14.5 56.25 16.1 55.3 17.3 54.0 17.2 54.55 17.25 55.15 L17.15 55.85 17.15 55.7 Q16.2 56.5 16.25 57.75 L16.25 57.8 15.65 58.65 14.65 59.25 13.9 59.25 13.95 59.15 14.15 59.0 14.6 58.6 15.35 57.1 13.75 57.15 12.55 56.35 12.45 56.2 12.45 56.05 Q12.6 54.6 13.1 53.2 L13.2 53.0 13.25 53.0 13.2 52.95 Q13.25 52.4 12.6 52.2 L12.5 52.4 12.7 52.1 12.75 52.05 Q13.5 51.75 14.1 52.45 L15.2 52.75 Q16.15 52.8 17.1 52.15 L17.2 52.1 M8.05 49.0 L8.2 49.0 Q9.0 48.95 9.5 49.35 L10.1 49.0 Q10.45 48.25 11.1 48.35 L10.35 51.15 10.15 51.7 10.35 51.25 10.4 52.4 Q10.35 53.2 9.85 53.65 L9.7 53.55 9.65 53.6 9.65 53.65 9.55 53.75 Q9.9 52.85 9.9 51.95 L10.05 51.75 9.2 52.65 9.15 52.65 8.85 52.85 8.4 53.0 7.45 52.65 6.8 51.7 Q6.95 50.65 7.8 50.2 L8.1 50.05 8.75 49.75 7.8 49.55 7.5 49.55 6.45 49.75 6.35 49.7 6.35 49.55 7.05 49.2 7.95 49.2 8.05 49.0 M9.3 63.55 Q10.3 63.45 11.15 64.0 L11.4 64.25 Q11.95 64.9 11.75 65.6 L13.55 65.75 13.85 66.0 12.1 67.15 11.85 68.45 Q11.7 69.55 10.75 70.15 L9.45 70.2 9.75 70.15 9.85 70.1 Q11.2 69.35 11.4 67.9 L11.3 67.55 11.0 67.7 11.0 67.65 9.9 68.05 8.55 68.3 8.4 68.35 Q7.5 67.3 8.0 66.1 8.9 64.25 10.4 65.1 L10.8 65.3 11.0 65.0 10.95 64.5 Q10.3 63.65 9.3 63.55 M13.25 53.0 L13.3 53.05 13.25 53.0 M10.9 65.9 L10.55 65.85 9.4 65.7 9.35 65.7 9.15 65.7 9.1 65.75 8.9 66.0 8.75 66.3 Q8.55 66.8 8.75 67.35 10.5 67.35 11.9 66.25 11.4 66.0 10.9 65.9 M8.15 51.1 L7.55 51.5 Q7.8 52.2 8.6 52.35 L9.3 51.45 Q9.7 50.75 9.7 50.0 L8.15 51.1 M7.25 58.5 Q7.9 58.8 8.5 59.45 8.4 61.05 7.15 61.65 L7.05 61.65 6.45 61.7 6.25 61.65 5.8 61.5 5.1 60.75 Q4.75 59.8 5.0 59.05 5.6 58.35 6.5 58.3 L7.25 58.5 M7.35 59.35 L7.0 59.15 Q6.25 58.85 5.7 59.5 L5.65 59.85 6.05 60.8 Q7.2 61.3 7.8 60.2 7.75 59.65 7.35 59.35" fill="#793600" fill-rule="evenodd" stroke="none"/>
    <path d="M16.8 66.05 L16.45 66.6 15.95 67.1 15.9 67.15 15.6 67.45 15.4 67.7 15.4 68.5 14.75 68.85 Q14.2 69.0 13.9 68.55 L13.85 68.4 14.1 67.7 14.45 67.1 14.55 66.95 14.75 66.7 14.85 66.65 14.9 66.55 15.0 66.45 15.55 65.95 16.8 66.05 M9.2 75.0 Q5.75 74.0 2.9 71.75 4.2 68.7 3.45 65.75 2.7 62.75 2.6 59.5 3.1 54.6 4.45 50.1 4.05 48.0 4.1 45.55 L9.35 44.15 Q8.95 44.9 9.1 46.0 L9.25 47.7 9.25 47.75 8.95 47.85 Q8.3 48.35 8.05 49.0 L7.95 49.2 7.05 49.2 6.35 49.55 Q5.45 50.1 5.4 51.25 5.3 52.9 6.5 53.8 L6.65 53.4 7.45 52.65 8.4 53.0 8.85 52.85 9.15 52.65 9.2 52.65 10.05 51.75 9.9 51.95 Q9.9 52.85 9.55 53.75 L9.65 53.65 9.65 53.6 9.7 53.55 9.85 53.65 10.05 53.75 Q9.7 56.1 9.65 58.55 L9.85 62.7 9.3 63.55 9.15 63.75 8.5 63.75 Q7.95 63.85 7.45 64.2 L7.15 64.35 Q6.55 64.7 6.25 65.35 5.7 66.6 6.2 67.9 L6.4 68.25 6.9 68.85 Q6.7 70.45 7.95 71.9 8.9 73.0 9.05 74.3 L9.2 75.0 M9.45 70.2 Q8.25 70.35 7.35 69.5 L7.2 69.35 7.15 69.3 7.2 69.2 7.4 68.85 8.55 68.3 9.9 68.05 11.0 67.7 11.3 67.55 11.4 67.9 Q11.2 69.35 9.85 70.1 L9.75 70.15 9.45 70.2 M11.5 57.9 L11.15 57.35 12.3 56.65 12.5 56.4 12.55 56.35 13.75 57.15 15.35 57.1 14.6 58.6 14.15 59.0 13.3 59.1 13.0 59.0 12.95 59.0 12.85 58.95 12.2 58.55 12.0 58.4 11.95 58.4 11.5 57.9 M7.25 58.5 L8.15 57.75 Q7.1 57.1 5.9 56.95 5.4 57.05 5.0 57.4 L4.45 58.05 3.95 59.35 Q3.55 60.6 4.35 61.65 L4.65 61.95 5.8 62.65 5.8 61.5 6.25 61.65 6.45 61.7 7.05 61.65 7.15 61.65 Q8.4 61.05 8.5 59.45 7.9 58.8 7.25 58.5" fill="#cc7a00" fill-rule="evenodd" stroke="none"/>
    <path d="M6.35 49.55 L6.35 49.7 6.45 49.75 7.5 49.55 7.8 49.55 8.75 49.75 8.1 50.05 7.8 50.2 Q6.95 50.65 6.8 51.7 L7.45 52.65 6.65 53.4 6.5 53.8 Q5.3 52.9 5.4 51.25 5.45 50.1 6.35 49.55 M7.15 69.3 L7.1 69.25 6.9 68.85 6.4 68.25 6.2 67.9 Q5.7 66.6 6.25 65.35 6.55 64.7 7.15 64.35 L7.45 64.2 Q7.95 63.85 8.5 63.75 L9.15 63.75 9.3 63.55 Q10.3 63.65 10.95 64.5 L11.0 65.0 10.8 65.3 10.4 65.1 Q8.9 64.25 8.0 66.1 7.5 67.3 8.4 68.35 L8.55 68.3 7.4 68.85 7.2 69.2 7.15 69.3 M11.5 57.9 L10.8 56.5 Q10.35 54.85 11.15 53.35 11.55 52.55 12.3 52.1 L12.7 52.1 12.5 52.4 12.6 52.2 Q13.25 52.4 13.2 52.95 L13.25 53.0 13.2 53.0 13.1 53.2 Q12.6 54.6 12.45 56.05 L12.45 56.2 12.55 56.35 12.5 56.4 12.3 56.65 11.15 57.35 11.5 57.9 M5.8 61.5 L5.8 62.65 4.65 61.95 4.35 61.65 Q3.55 60.6 3.95 59.35 L4.45 58.05 5.0 57.4 Q5.4 57.05 5.9 56.95 7.1 57.1 8.15 57.75 L7.25 58.5 6.5 58.3 Q5.6 58.35 5.0 59.05 4.75 59.8 5.1 60.75 L5.8 61.5" fill="#e8ae00" fill-rule="evenodd" stroke="none"/>
    <path d="M7.1 43.15 L5.75 43.3 5.6 43.35 4.95 42.5 5.15 40.0 5.3 39.8 6.2 38.9 Q8.7 39.05 7.95 41.5 L7.6 42.0 7.15 42.5 7.1 43.15 M5.05 36.8 L4.55 35.35 4.5 35.25 4.45 35.15 4.35 34.95 4.0 34.5 Q0.9 31.45 0.65 27.6 L0.45 23.8 Q0.7 23.15 1.1 22.6 1.45 22.15 2.0 22.2 4.0 22.5 3.55 24.55 L3.55 24.7 Q5.1 29.7 5.9 34.75 L5.65 35.65 5.4 36.55 5.3 36.75 5.05 36.8 M2.4 81.45 Q2.9 80.1 3.85 78.9 L4.65 77.6 5.0 77.55 Q7.2 78.1 6.1 80.15 5.45 81.3 4.3 82.0 L3.2 85.25 2.65 85.95 2.05 85.85 1.9 85.75 Q1.95 84.2 2.35 82.7 L2.6 81.75 2.4 81.45 M12.6 86.75 L12.55 87.6 12.1 88.2 Q10.65 88.7 10.25 87.4 10.15 86.9 10.3 86.6 L10.5 87.15 Q10.9 86.5 11.5 86.15 L11.6 86.1 11.95 86.1 11.9 86.25 12.6 86.75" fill="#99ffcc" fill-rule="evenodd" stroke="none"/>
  </g>
</svg>
