<?xml version="1.0" encoding="UTF-8" standalone="no"?>
<svg xmlns:xlink="http://www.w3.org/1999/xlink" height="193.85px" width="76.65px" xmlns="http://www.w3.org/2000/svg">
  <g transform="matrix(1.0, 0.0, 0.0, 1.0, 38.85, 39.25)">
    <path d="M-28.2 65.45 L-28.35 65.65 Q-28.25 64.95 -28.45 63.75 -28.7 62.5 -28.05 61.6 -28.5 59.95 -27.45 58.65 L-25.35 56.0 Q-26.65 55.75 -27.8 56.45 -27.0 55.3 -25.55 55.45 L-25.05 55.7 -24.9 55.55 Q-25.35 54.35 -26.55 53.55 -27.8 52.75 -26.7 51.4 L-24.9 48.35 Q-26.6 46.6 -26.1 44.3 -25.65 43.05 -24.8 42.0 -24.0 40.95 -24.45 39.5 -29.6 36.0 -31.35 30.45 -31.95 30.15 -31.8 29.6 -31.75 29.05 -32.0 28.65 L-34.6 26.3 Q-35.9 25.05 -35.85 23.25 -36.65 22.0 -36.55 20.45 -36.5 18.9 -38.0 18.1 -39.7 12.25 -38.0 6.4 -37.35 6.05 -37.75 5.6 L-38.1 4.6 Q-38.3 2.9 -37.05 1.9 -35.8 0.9 -36.6 -0.8 -37.4 -2.85 -35.95 -4.55 -34.6 -6.25 -34.05 -8.2 -34.85 -13.8 -33.15 -18.7 -33.8 -18.75 -34.05 -19.15 -32.45 -19.4 -31.8 -20.95 -31.15 -22.6 -29.85 -23.35 -29.15 -23.7 -29.55 -24.15 -29.95 -24.55 -29.85 -24.85 L-28.45 -24.8 -27.3 -26.05 Q-27.25 -26.5 -27.5 -26.8 -27.8 -27.1 -27.6 -27.4 L-25.55 -27.45 Q-24.5 -28.3 -23.4 -28.6 -22.85 -32.0 -20.4 -34.4 L-20.25 -34.5 -16.1 -36.15 Q-13.95 -37.0 -11.8 -35.8 -9.95 -37.35 -7.7 -38.05 L-5.25 -38.55 2.15 -39.15 Q4.65 -39.45 6.65 -38.55 8.65 -37.7 11.05 -37.65 11.9 -36.95 12.85 -37.65 13.75 -38.45 14.8 -37.5 L18.8 -35.85 Q20.8 -34.95 21.85 -32.8 L22.35 -30.75 Q24.85 -30.55 26.55 -28.6 L27.4 -29.5 27.7 -29.25 Q27.05 -28.75 27.1 -28.0 27.6 -27.1 28.3 -27.15 L29.65 -27.4 28.8 -26.5 Q29.6 -25.25 30.7 -25.15 30.6 -24.25 31.45 -23.4 L32.65 -21.55 Q35.25 -14.4 34.5 -6.4 35.8 -3.65 35.6 -0.45 35.45 2.65 37.35 5.2 37.75 7.35 36.95 9.2 36.15 11.05 37.8 12.85 37.9 14.8 36.6 16.2 35.3 17.6 36.0 19.5 35.0 23.75 32.15 27.25 L26.55 34.2 Q26.25 35.75 25.15 36.9 25.2 40.9 27.3 44.15 27.2 47.3 24.85 49.45 27.5 52.0 27.7 55.9 L23.85 58.7 Q25.4 60.7 24.75 63.3 L24.7 63.6 Q24.1 65.6 25.05 67.0 L25.15 67.15 26.2 68.15 26.1 69.4 24.55 67.85 23.0 65.75 22.6 65.15 Q23.05 64.9 23.5 65.35 23.9 64.0 23.35 62.9 21.55 62.2 21.6 63.7 21.6 65.2 21.25 66.2 L20.75 66.15 20.7 66.0 20.95 65.8 20.5 61.6 Q19.3 62.35 18.25 63.55 18.9 65.95 19.2 68.55 L19.3 69.85 18.25 66.1 Q16.3 66.05 16.9 67.9 L17.3 71.35 Q16.4 68.7 15.8 65.9 15.05 65.95 14.3 66.85 15.45 68.65 15.8 70.75 L14.2 68.35 Q13.4 68.9 13.75 69.85 L13.0 69.65 13.4 71.4 13.55 72.5 13.7 73.55 13.75 73.75 13.25 73.3 12.9 72.8 12.6 72.3 12.3 71.6 12.2 71.35 Q11.5 69.55 9.7 70.9 L9.8 71.1 9.85 71.2 10.4 73.3 10.45 73.45 10.35 73.3 9.8 72.55 8.5 69.85 Q7.8 69.7 7.4 70.15 8.1 71.45 8.15 73.0 7.55 73.05 7.4 72.45 7.25 71.75 6.8 71.35 L2.2 72.05 2.15 72.05 0.8 72.0 0.65 72.0 -0.4 71.9 -0.7 72.3 -0.95 71.8 -2.3 71.5 -2.35 71.5 -3.0 75.9 -3.0 75.95 -3.0 76.0 -3.1 76.3 -3.1 76.35 -3.25 77.35 -3.45 76.1 Q-3.7 74.4 -3.55 72.45 -3.65 71.95 -3.35 71.45 L-3.25 71.3 Q-2.8 70.7 -3.75 70.6 -4.35 70.55 -4.5 71.15 L-4.5 71.3 Q-4.85 73.2 -5.35 74.95 -5.6 73.25 -5.05 71.25 L-4.9 70.75 Q-5.0 70.15 -5.65 70.15 L-5.7 70.2 Q-6.15 70.6 -6.3 71.15 L-6.35 71.65 -6.55 73.45 -7.25 76.85 -7.3 77.05 -7.35 76.85 Q-8.15 73.8 -7.3 70.55 L-7.2 70.1 -7.15 70.0 Q-7.6 69.55 -8.25 69.55 L-8.5 69.85 -8.55 70.35 -8.55 70.45 -9.45 75.85 -9.75 72.75 -9.8 70.75 -9.75 69.65 -10.75 69.25 -11.0 70.65 -11.6 73.7 -11.8 74.95 -12.25 74.5 -12.25 72.6 -12.3 71.65 -12.3 71.45 -12.3 70.95 -12.25 70.45 Q-12.15 69.45 -11.5 68.65 L-12.45 67.9 -13.6 69.4 Q-13.7 68.65 -13.3 67.95 -12.85 67.2 -13.95 67.0 -14.75 66.95 -15.0 67.9 L-15.15 68.15 -15.95 69.6 -16.4 70.4 -16.55 70.7 -17.4 72.45 -17.7 71.9 -17.65 71.6 -17.05 70.1 -16.3 69.0 Q-15.15 67.55 -16.95 66.55 -17.65 67.45 -17.8 68.8 -18.35 67.7 -17.95 66.45 L-17.85 66.15 -17.75 65.9 -17.05 64.15 Q-17.45 63.55 -18.0 63.55 L-18.45 64.3 Q-18.8 64.0 -18.75 63.75 L-18.6 63.35 Q-18.25 62.75 -19.0 62.45 L-19.65 63.1 -19.2 63.5 -19.0 63.65 -19.1 63.85 Q-19.55 64.95 -19.6 66.2 L-19.65 66.6 Q-19.75 67.7 -20.25 68.65 L-20.7 68.35 -20.6 66.9 -20.55 66.7 -20.1 63.55 -20.05 63.3 -19.95 62.8 Q-20.35 62.25 -21.0 62.15 L-21.4 63.3 Q-21.55 63.9 -22.1 63.6 L-22.2 63.55 -22.3 64.3 -22.5 65.4 -22.9 66.85 -22.9 66.8 -23.1 67.45 -23.3 67.9 -23.85 69.1 -23.8 68.2 -23.25 65.25 -22.6 61.75 -22.35 60.95 -22.0 60.1 Q-22.7 59.15 -23.7 58.9 -24.15 61.25 -25.7 63.05 L-26.5 64.15 -27.1 65.35 -27.4 66.25 -27.5 66.75 -27.6 67.3 -27.45 71.65 Q-26.8 71.3 -26.45 70.75 -26.05 70.15 -25.2 70.3 L-27.95 72.8 -29.7 74.05 -29.85 73.95 Q-28.75 73.1 -28.9 71.65 -29.1 70.15 -28.8 68.9 L-29.1 68.65 -28.25 66.95 Q-27.9 65.95 -27.9 64.9 L-28.2 65.45 M25.1 69.45 L25.45 70.0 25.45 76.95 24.85 72.6 24.7 71.05 24.1 70.6 Q23.95 73.15 24.25 75.55 L24.45 78.5 24.4 80.5 24.35 80.55 Q23.75 81.1 23.8 81.6 L23.85 81.8 24.3 82.35 24.35 82.4 Q25.5 83.2 25.35 84.45 L24.35 83.7 23.7 83.15 21.45 80.4 21.25 80.05 Q21.6 80.0 21.85 80.3 22.0 80.65 22.45 80.5 L23.05 77.2 23.95 70.3 23.5 69.75 22.85 69.05 22.65 68.85 21.85 67.9 Q22.95 67.35 23.9 68.2 L24.55 68.8 25.1 69.45 M25.35 93.75 Q25.65 95.5 25.3 97.5 L25.25 97.75 Q23.65 103.1 22.3 108.35 L22.35 108.4 23.05 108.8 21.75 110.3 21.35 110.6 21.55 110.95 Q22.9 113.25 22.45 116.05 20.75 118.05 18.7 119.65 19.0 120.65 18.75 122.05 18.55 123.35 20.05 123.4 22.15 125.25 21.35 128.1 20.55 129.3 21.05 130.9 22.3 131.9 22.9 133.2 23.45 134.55 24.4 135.6 25.0 137.05 24.4 138.4 25.3 138.95 25.05 140.1 24.7 141.15 25.55 141.6 28.45 141.8 30.05 144.05 L33.25 148.4 Q33.6 150.2 32.65 151.5 L31.1 151.95 Q23.4 154.0 15.35 153.45 L12.4 152.2 11.95 151.95 Q10.8 151.2 10.7 149.7 L6.35 147.9 5.45 147.1 Q4.9 146.7 5.25 146.15 4.1 145.6 2.75 145.55 1.45 145.4 0.5 144.45 1.2 143.5 1.5 142.2 1.7 140.9 2.75 139.95 1.9 137.45 3.95 135.4 3.25 134.15 4.1 132.85 4.55 131.2 3.65 129.6 3.55 126.1 5.15 123.4 6.15 122.9 6.95 122.05 L7.3 119.8 Q4.6 119.7 3.2 117.55 3.8 114.9 3.35 112.1 L3.8 112.0 4.5 111.9 4.45 112.75 4.45 112.9 4.35 115.8 Q4.35 117.65 5.75 118.75 L11.55 118.9 15.85 118.65 17.5 119.05 Q18.4 119.2 19.0 118.55 L20.2 117.7 Q22.0 116.4 21.35 114.35 L20.55 112.15 20.3 111.7 Q18.5 111.45 17.0 112.6 L17.0 112.55 18.25 111.55 Q19.55 110.4 21.25 110.15 L21.3 109.9 21.85 107.4 22.2 105.85 22.15 105.85 24.25 97.4 Q23.7 96.15 24.15 94.85 24.55 93.55 23.65 92.45 22.45 90.6 22.55 88.8 24.85 90.95 25.35 93.75 M2.6 110.7 Q2.0 110.45 1.55 109.85 L-0.1 108.15 -1.9 111.0 Q-2.95 112.45 -2.45 114.2 -2.1 116.05 -3.75 116.75 -5.45 117.45 -3.85 119.25 -1.75 120.55 -1.9 122.9 L-1.9 127.4 Q-3.0 128.8 -2.0 130.2 -1.0 131.55 -2.05 133.1 -1.0 134.35 -1.3 136.15 -1.6 137.95 -0.2 139.0 0.65 141.75 -0.7 144.4 -1.4 145.35 -2.3 145.75 -3.25 146.2 -3.25 147.4 -3.8 148.8 -5.05 149.65 -6.25 149.75 -7.05 150.9 L-8.0 151.95 -9.0 152.65 Q-14.65 155.9 -20.85 153.7 L-26.3 152.95 Q-27.95 152.85 -29.2 151.95 -30.1 151.3 -30.8 150.25 -31.4 147.7 -29.55 145.9 -27.45 144.65 -26.85 142.4 -26.25 140.15 -24.0 139.0 -23.4 138.3 -23.25 137.25 -23.1 136.2 -22.0 135.8 -21.55 134.55 -21.6 133.3 -19.35 131.8 -19.2 129.35 -19.05 127.6 -20.25 126.3 -21.5 125.05 -20.85 123.35 -20.45 122.2 -19.25 121.35 -18.1 120.5 -18.75 119.25 -19.7 118.55 -20.8 118.0 -21.9 117.4 -22.2 116.15 L-22.0 113.05 Q-22.05 111.55 -23.25 110.45 -22.9 109.75 -23.25 109.25 L-23.5 109.05 Q-23.95 109.75 -23.85 110.45 L-23.85 110.5 -23.85 110.7 -23.85 110.9 -23.85 110.95 -24.15 111.75 -24.2 110.1 -24.2 108.65 -24.15 108.1 -23.7 108.15 -23.7 108.3 Q-21.55 109.7 -20.25 112.05 L-19.55 112.65 -19.85 113.35 -19.85 114.65 -19.8 114.7 -19.95 114.75 -20.25 114.9 -20.4 115.0 -20.4 115.05 Q-21.0 115.55 -20.7 116.75 -19.45 118.15 -17.55 118.4 L-13.75 118.8 -11.3 118.5 -10.5 118.6 -10.35 118.55 -10.55 118.45 -8.7 118.3 -8.35 118.05 Q-7.85 117.3 -7.1 117.6 -6.35 117.9 -5.65 117.3 -4.7 116.75 -4.0 115.8 -3.9 115.0 -4.1 114.3 L-4.15 114.15 -3.95 113.65 -3.55 112.65 -3.25 111.85 -3.4 112.0 Q-2.25 110.6 -1.9 108.95 -1.65 107.6 -0.35 107.2 L0.25 107.05 0.55 107.0 1.05 107.7 1.35 108.15 3.35 110.85 3.3 110.85 3.15 110.85 2.6 110.7 M-25.3 105.7 L-25.55 107.75 Q-25.55 103.25 -27.1 98.9 -28.3 95.55 -27.1 92.35 L-27.1 92.4 -26.7 91.35 -26.15 90.35 -26.0 90.1 Q-26.05 84.75 -26.75 79.4 L-26.9 79.75 -28.25 81.2 Q-27.9 79.45 -27.2 77.85 L-27.2 77.8 Q-26.2 75.4 -24.5 73.25 -25.35 76.2 -26.55 78.95 L-25.8 79.3 -25.15 82.15 -25.0 83.1 -24.95 83.1 -24.65 84.65 -24.35 86.35 -24.3 86.65 -24.05 86.2 -23.75 85.15 -23.8 86.25 Q-24.15 89.3 -25.85 91.85 L-26.1 92.2 Q-26.95 96.8 -25.05 100.75 L-24.25 99.65 -23.85 99.15 -24.0 100.0 -24.05 100.25 -24.4 101.4 -24.4 101.5 Q-24.85 102.65 -24.6 103.95 L-25.3 105.7 M-27.6 75.7 L-28.0 77.35 -28.35 77.8 -27.6 75.55 -27.25 74.45 -27.6 75.7 M16.6 -35.7 L14.7 -36.4 12.7 -36.45 Q13.75 -35.05 13.6 -33.25 14.75 -30.95 14.6 -28.2 L14.2 -22.9 Q17.6 -23.55 21.0 -22.45 21.9 -25.0 21.7 -27.95 21.45 -30.9 19.9 -33.1 19.1 -35.35 16.6 -35.7 M10.3 -34.35 Q7.6 -32.15 4.2 -30.55 0.8 -28.95 -3.1 -30.45 -4.4 -30.8 -5.5 -31.55 -1.45 -30.05 2.6 -31.25 6.6 -32.5 10.1 -34.55 L10.3 -34.35 M12.55 -32.7 Q11.55 -34.6 11.15 -36.75 8.95 -36.9 7.1 -37.6 5.15 -38.3 2.9 -38.1 L-2.55 -37.5 Q-5.45 -37.45 -7.75 -36.25 -5.0 -34.15 -1.65 -33.15 L-2.05 -32.7 Q-5.95 -33.2 -8.7 -36.15 -10.55 -35.6 -11.1 -33.75 -9.5 -31.6 -7.2 -30.0 -3.45 -28.0 0.95 -27.45 7.1 -29.35 12.55 -32.7 M-0.75 -36.3 L1.9 -36.05 4.5 -36.15 Q2.25 -34.7 -0.75 -35.55 -1.35 -36.1 -0.75 -36.3 M2.15 -25.95 L0.95 -25.75 0.75 -24.7 Q0.7 -24.0 0.95 -23.25 L2.5 -24.5 2.65 -24.65 2.7 -24.65 3.4 -24.95 4.15 -24.9 4.4 -24.8 4.5 -24.75 4.55 -24.7 4.65 -24.6 4.7 -24.6 Q6.1 -23.55 6.8 -22.0 7.4 -19.7 5.25 -18.4 L2.9 -18.3 0.5 -18.4 0.95 -14.8 1.5 -14.8 Q2.4 -16.4 4.1 -15.85 5.3 -15.2 5.5 -13.95 L5.75 -11.45 Q5.1 -10.25 3.7 -10.25 L0.95 -10.45 1.25 -5.95 Q5.35 -6.6 8.6 -9.4 L9.4 -12.5 Q9.6 -14.1 10.7 -15.4 10.35 -16.6 11.0 -17.6 11.65 -18.65 11.45 -19.75 L11.95 -20.3 Q13.2 -21.9 13.45 -23.9 L13.45 -24.05 13.5 -24.4 13.55 -29.7 Q9.9 -29.8 7.1 -27.95 4.85 -26.5 2.3 -25.95 L2.15 -25.95 M-1.8 -23.2 L-0.45 -23.4 -0.45 -24.25 Q-0.5 -25.25 -0.9 -26.3 -5.15 -26.8 -8.7 -28.95 -10.55 -30.05 -12.2 -31.55 L-12.8 -31.35 -13.05 -25.75 -13.45 -24.35 Q-13.75 -23.65 -12.8 -23.25 -12.35 -22.1 -12.95 -21.15 -11.95 -20.25 -12.1 -19.2 L-12.6 -17.05 Q-10.65 -15.05 -10.45 -12.2 -10.3 -9.35 -8.55 -7.15 L-8.15 -6.95 -7.8 -6.8 -5.8 -5.95 -4.85 -5.6 -4.95 -5.6 -5.8 -4.7 -5.9 -4.75 -6.05 -4.8 -6.25 -4.85 -6.85 -5.1 Q-7.75 -5.45 -8.55 -5.9 L-9.15 -6.2 -9.6 -6.5 -10.15 -6.9 -10.2 -6.9 -10.95 -7.45 Q-11.75 -6.25 -13.0 -5.65 -17.4 -4.7 -20.7 -7.9 -21.45 -6.25 -22.5 -4.7 L-22.55 -4.65 -22.55 -4.6 -22.95 -3.7 -22.95 -2.8 -22.9 -2.8 -22.7 -2.3 Q-22.05 -1.2 -21.9 0.05 -20.75 1.85 -20.9 4.5 -20.95 5.55 -20.5 6.2 -19.85 7.05 -18.15 7.15 L-11.3 6.25 -6.4 5.9 -5.6 5.8 Q-4.75 6.95 -3.25 5.95 L-3.2 5.95 -3.2 7.05 0.55 7.35 Q3.25 6.1 6.25 6.45 L10.65 6.55 12.1 6.4 22.5 6.1 Q22.3 1.9 22.9 -2.15 22.8 -4.2 21.35 -5.3 L20.85 -5.75 Q19.85 -6.8 19.8 -8.45 17.95 -7.2 15.85 -6.7 13.75 -6.65 12.1 -8.3 L11.35 -9.7 10.7 -9.2 5.35 -5.6 Q2.25 -3.85 -1.55 -4.55 -2.45 -5.05 -2.8 -4.4 L-2.85 -4.25 Q-3.05 -5.4 -4.2 -5.55 -3.9 -5.7 -3.9 -6.0 L-1.95 -5.7 0.15 -5.65 -0.45 -10.5 -4.65 -9.85 Q-7.2 -11.15 -6.45 -13.95 -5.4 -16.35 -3.65 -15.1 -1.95 -13.9 -0.05 -14.8 -0.05 -16.8 -0.45 -18.55 L-1.55 -18.25 -3.45 -18.2 -5.4 -18.25 Q-6.85 -19.4 -6.9 -21.15 -6.85 -22.4 -6.05 -23.25 L-5.35 -23.85 -5.1 -24.0 Q-3.5 -24.8 -2.4 -23.25 L-1.8 -23.2 M-1.9 -20.0 L2.95 -20.1 Q3.6 -20.65 3.35 -21.5 L2.6 -22.35 -3.85 -21.9 -3.85 -20.3 -2.45 -20.4 -1.9 -20.0 M3.25 -23.1 L4.0 -21.9 Q4.6 -20.0 3.05 -19.0 L5.05 -19.2 Q6.55 -20.05 6.05 -21.75 5.7 -23.05 4.5 -23.75 3.35 -24.45 2.3 -23.25 L3.25 -23.1 M12.75 -19.45 L12.55 -19.4 12.55 -19.2 Q12.15 -18.65 12.45 -17.95 L12.6 -17.7 12.9 -17.75 12.2 -17.65 Q11.6 -17.35 11.8 -16.85 L11.95 -16.1 Q11.6 -15.8 11.7 -15.2 L11.6 -15.2 Q10.7 -14.7 10.8 -13.95 L11.05 -12.35 15.95 -12.8 Q17.45 -12.85 18.6 -12.05 L20.2 -10.45 20.3 -10.45 Q21.2 -10.8 20.95 -11.75 L20.85 -12.1 20.85 -12.15 20.65 -12.95 21.0 -13.5 21.1 -14.3 21.35 -14.75 Q21.75 -15.95 21.2 -17.2 21.85 -17.65 21.75 -18.25 L21.7 -18.05 Q21.9 -19.15 21.6 -20.4 L20.7 -21.15 Q19.4 -21.95 17.6 -22.0 15.1 -22.05 13.45 -20.75 L13.6 -20.75 13.1 -20.0 12.75 -19.45 M23.15 -28.55 L22.6 -28.95 22.65 -28.05 23.05 -26.05 23.1 -25.75 21.85 -21.85 22.5 -21.55 Q23.6 -19.45 22.35 -17.45 22.9 -16.6 22.8 -15.4 21.85 -13.9 22.0 -11.75 L22.05 -7.45 22.15 -7.35 22.5 -7.05 Q23.65 -5.8 24.3 -4.15 L27.45 -5.3 30.0 -5.2 Q27.15 -4.5 24.6 -3.2 24.65 -1.6 24.2 0.0 23.65 1.65 24.1 3.25 26.5 2.3 29.15 2.65 28.45 3.2 27.45 3.05 L25.1 3.7 Q23.75 3.85 23.85 5.35 22.95 6.85 23.3 8.4 L23.45 8.95 24.45 12.6 26.55 11.35 Q32.3 11.6 35.9 16.15 L36.0 16.05 Q37.05 14.25 36.1 12.8 L34.1 10.0 Q34.55 9.4 35.0 9.9 L35.9 10.45 Q36.8 8.0 36.35 5.5 34.65 2.8 34.65 -0.1 34.65 -3.05 33.75 -6.05 34.45 -8.65 33.85 -11.35 33.15 -14.15 33.0 -16.7 L32.55 -18.15 Q32.3 -18.95 31.4 -18.55 L32.25 -19.5 Q30.75 -22.45 28.05 -24.7 L27.5 -25.2 23.35 -28.4 23.15 -28.55 M25.75 -24.0 Q26.05 -24.75 26.85 -24.9 26.65 -24.15 25.9 -23.8 L25.75 -24.0 M28.75 -10.9 L28.9 -10.8 29.0 -10.7 29.0 -10.45 28.7 -10.3 28.65 -10.25 28.65 -10.9 28.75 -10.9 M28.8 -22.95 Q28.4 -22.15 27.6 -22.0 28.05 -22.9 28.8 -22.95 M-23.5 -20.7 Q-22.95 -22.05 -23.1 -23.6 L-23.55 -27.4 Q-26.95 -25.7 -29.1 -22.7 L-29.0 -22.25 -29.4 -21.8 Q-30.7 -21.4 -31.35 -20.05 L-32.45 -17.45 Q-33.2 -14.95 -32.4 -12.4 -31.6 -9.85 -32.85 -7.4 -33.8 -5.75 -35.3 -4.25 -36.85 -2.8 -35.75 -0.9 L-29.5 -2.15 -29.1 -2.2 Q-26.2 -2.5 -23.95 -0.55 L-23.7 -0.35 -23.7 -0.9 Q-24.65 -2.95 -23.5 -4.6 -22.4 -6.3 -21.6 -7.95 -21.25 -9.5 -21.9 -10.85 -22.6 -12.2 -22.2 -13.85 -23.35 -14.7 -23.4 -15.9 -23.15 -18.05 -23.85 -20.0 L-23.5 -20.7 M-27.45 -20.4 Q-28.0 -20.35 -28.35 -20.85 L-28.2 -21.3 Q-27.65 -21.0 -27.45 -20.4 M-26.1 -22.85 L-26.1 -23.3 Q-25.45 -23.4 -25.5 -22.85 L-26.1 -22.85 M-12.45 -35.15 Q-13.9 -36.1 -15.3 -35.6 L-18.15 -34.7 Q-21.8 -33.4 -21.75 -29.9 -21.7 -26.5 -21.9 -23.3 -18.5 -24.85 -14.35 -24.8 L-14.35 -30.5 Q-13.75 -33.0 -12.45 -35.15 M-15.8 -23.35 L-18.25 -23.45 Q-19.15 -22.9 -20.25 -22.75 -21.35 -22.55 -22.2 -21.8 -22.95 -20.7 -22.3 -19.55 L-21.65 -19.95 -22.05 -19.7 -22.2 -17.3 -22.2 -16.3 -22.05 -16.35 Q-21.8 -15.4 -20.85 -15.75 L-21.45 -15.2 Q-18.35 -16.45 -14.85 -16.55 L-13.75 -16.6 -13.4 -17.35 -13.35 -17.4 Q-13.05 -18.4 -13.15 -19.6 L-13.45 -19.9 -13.45 -20.0 Q-13.5 -20.7 -13.8 -21.2 -13.35 -21.45 -13.45 -22.25 -14.2 -23.75 -15.55 -23.4 L-15.8 -23.35 M-4.75 -13.4 Q-4.8 -14.5 -3.7 -14.5 -4.6 -14.75 -5.3 -14.25 L-5.7 -12.45 Q-5.8 -11.55 -4.7 -10.9 -3.75 -10.6 -3.05 -11.25 -4.0 -11.05 -4.55 -11.5 L-4.75 -13.4 M-3.95 -22.6 Q-3.45 -22.65 -3.35 -23.2 -4.7 -23.7 -5.75 -22.1 -6.3 -20.35 -5.0 -19.1 -3.85 -18.65 -3.35 -19.1 -4.6 -18.95 -4.5 -20.1 L-4.7 -22.1 Q-4.45 -22.6 -3.95 -22.6 M-4.15 -13.15 Q-4.25 -12.5 -3.95 -12.05 L2.95 -12.05 2.95 -13.7 0.7 -13.9 -4.15 -13.15 M-18.25 -15.2 Q-21.45 -15.05 -20.6 -12.85 -19.7 -10.65 -20.1 -8.75 -18.55 -7.15 -16.65 -6.95 L-12.75 -6.65 -12.25 -6.9 Q-11.35 -9.1 -11.85 -11.65 -12.35 -14.15 -13.75 -15.95 L-18.25 -15.2 M-26.0 -11.1 Q-25.7 -11.95 -24.8 -11.4 -25.1 -10.95 -26.0 -11.1 M-27.1 -8.3 L-27.75 -9.7 Q-27.1 -9.3 -26.65 -8.45 -26.8 -8.25 -27.1 -8.3 M-21.7 6.15 L-22.5 3.2 Q-25.4 0.3 -29.8 0.75 -33.7 1.4 -36.9 3.0 -37.3 4.5 -36.75 5.6 -33.85 3.55 -30.2 3.85 L-23.35 4.85 Q-22.45 5.25 -22.0 6.2 -23.35 5.45 -24.85 5.25 -22.7 6.8 -22.15 9.35 -21.3 8.0 -21.65 6.3 L-21.7 6.15 M-36.15 17.05 Q-36.25 17.95 -35.8 18.7 L-35.1 19.5 -35.85 21.0 -34.15 24.15 Q-33.2 25.65 -31.65 26.35 L-31.55 27.1 Q-31.4 27.85 -30.7 28.05 L-30.5 28.15 -30.4 27.65 -30.5 28.3 -30.5 28.55 -30.6 29.85 Q-28.95 34.05 -25.45 37.4 L-25.75 37.1 -25.55 37.5 Q-24.85 38.6 -23.85 38.3 L-23.5 39.95 Q-22.65 41.0 -21.25 41.2 -20.9 41.0 -20.35 40.95 -19.85 40.9 -20.05 40.25 -21.95 35.1 -20.0 30.45 L-17.75 25.25 -16.0 21.45 Q-16.7 20.3 -18.0 20.25 L-18.15 20.45 Q-18.5 20.1 -19.15 20.0 L-19.7 20.75 -18.85 19.55 Q-19.55 19.0 -20.5 18.7 -21.2 17.6 -22.2 17.65 L-22.4 16.85 Q-22.15 16.5 -22.3 15.75 L-22.9 14.85 -23.0 14.75 -23.0 14.1 Q-23.2 13.05 -23.65 12.35 -22.75 11.75 -23.2 10.65 -23.65 9.5 -23.7 8.45 L-24.25 8.15 Q-25.0 5.65 -27.25 5.3 L-31.75 4.7 -31.9 4.75 -32.15 4.8 -32.75 4.95 Q-34.5 5.4 -35.8 6.5 L-36.2 6.85 -36.35 7.0 -37.5 8.45 Q-38.65 13.25 -36.6 17.5 L-36.15 17.05 M-22.95 1.7 Q-24.65 -1.05 -27.45 -1.05 L-33.05 -0.4 -34.55 -0.45 Q-35.5 -0.6 -36.05 0.2 -36.15 0.75 -35.85 1.3 L-29.1 0.05 Q-25.95 -0.45 -23.15 1.95 L-22.95 2.15 -22.95 1.7 M15.3 16.85 L15.55 16.6 15.65 16.45 15.7 16.4 15.75 16.35 Q15.75 18.2 16.8 19.5 L17.45 19.05 Q19.55 18.6 20.15 16.9 20.75 15.2 22.1 13.95 L21.3 13.2 Q21.65 11.8 21.6 10.25 21.55 8.7 22.1 7.5 L16.05 7.8 Q9.9 8.15 3.6 7.6 3.1 8.4 2.2 8.25 L0.6 8.35 -2.05 8.05 Q-3.45 8.0 -4.35 7.15 L-12.5 7.6 Q-14.3 8.35 -16.5 8.55 -18.75 8.7 -20.45 7.6 -21.5 9.3 -20.75 10.9 L-19.4 14.1 Q-20.65 15.25 -20.45 17.1 -19.05 17.25 -18.45 18.55 -17.95 19.85 -16.25 19.5 L-15.45 18.0 -15.2 17.55 Q-14.35 17.65 -14.15 18.65 -15.15 22.35 -17.05 25.75 -19.05 29.15 -19.6 33.05 -19.15 35.35 -19.1 37.65 L-19.1 37.7 -19.1 38.0 Q-18.3 40.4 -19.35 42.15 L-19.95 43.1 -21.65 45.7 -22.25 45.35 -22.1 44.95 Q-21.45 43.55 -22.6 42.95 -22.35 42.25 -23.0 42.05 -23.65 41.85 -24.1 41.45 -24.15 42.7 -24.85 43.7 -26.25 45.8 -24.5 46.8 -22.75 47.75 -21.5 49.15 L-18.15 52.15 -16.8 53.45 Q-13.2 57.1 -8.75 59.15 L-7.8 58.9 -7.65 59.2 -7.5 59.45 Q-6.6 60.65 -5.0 60.9 L-1.35 61.4 4.35 61.9 Q9.25 59.75 13.35 55.7 L13.25 55.15 13.55 54.85 13.85 54.95 14.55 55.15 Q19.35 50.85 24.65 48.05 L24.4 43.65 24.35 42.95 23.9 43.7 23.8 43.6 23.2 42.8 Q21.0 39.65 20.5 35.75 19.95 31.2 17.75 27.35 16.85 25.3 15.35 23.55 13.8 21.75 14.25 19.2 14.55 17.95 15.15 17.1 L15.3 16.85 M-7.2 22.1 L-7.3 22.15 -7.3 22.05 -7.2 22.1 M-11.3 25.95 L-11.25 25.9 -11.65 26.55 -11.3 25.95 M-22.95 49.65 L-24.6 48.65 -26.3 52.4 Q-22.65 54.7 -19.65 58.1 -17.05 61.85 -13.65 64.85 L-13.7 64.85 -13.25 65.2 -12.85 65.55 Q-9.0 68.75 -4.0 69.5 L1.6 69.65 6.95 68.9 Q9.95 67.85 12.75 66.1 L13.1 65.9 19.95 60.35 20.15 60.2 Q23.4 57.45 26.95 55.45 26.3 53.9 25.95 52.25 25.6 50.55 24.25 49.65 22.25 50.45 20.65 52.15 L17.3 55.45 15.6 56.1 Q14.75 56.25 14.05 57.05 11.7 60.45 8.05 61.65 4.4 62.8 0.5 62.75 L-3.7 62.5 Q-5.95 62.4 -7.5 60.95 -12.7 59.5 -16.35 55.35 -17.9 53.6 -19.6 52.1 -21.2 50.75 -22.95 49.65 M-24.95 64.8 L-24.15 61.9 -24.0 61.6 -23.55 60.8 -23.6 61.15 -23.75 62.0 -24.4 64.3 -25.15 67.05 -25.55 68.15 -25.55 66.85 -24.95 64.8 M-26.55 63.8 Q-25.9 62.35 -25.6 60.95 L-25.9 58.55 Q-27.25 59.85 -27.85 61.4 -26.9 62.5 -27.15 63.9 L-27.2 64.25 -26.75 64.25 -26.55 63.8 M-7.8 96.5 L-7.8 97.0 -7.8 98.15 -7.85 97.5 -7.8 96.5 M-8.75 96.45 L-8.55 94.55 -8.6 94.8 -8.75 96.45 M-10.85 93.3 Q-10.6 91.9 -9.95 90.65 L-9.85 90.4 -10.15 91.15 -10.85 93.3 M19.35 -9.45 L19.35 -9.75 Q16.15 -12.6 12.05 -11.4 12.5 -9.55 13.9 -8.4 15.3 -7.6 16.7 -8.15 L19.35 -9.45 M26.05 -8.5 Q26.4 -9.05 26.95 -8.7 26.5 -8.15 26.05 -8.5 M18.0 -4.85 L18.6 -5.25 18.35 -4.85 Q17.55 -3.95 16.35 -3.75 L18.05 -4.85 18.0 -4.85 M15.05 -4.8 L14.2 -4.75 14.0 -4.75 13.5 -4.8 13.3 -4.85 12.8 -5.0 12.65 -5.15 11.8 -5.95 11.95 -6.4 12.9 -5.7 Q14.1 -5.05 15.45 -5.2 L16.45 -5.45 Q15.8 -4.95 15.05 -4.8 M4.0 -11.05 Q5.1 -11.2 4.95 -12.05 4.8 -12.9 4.9 -13.75 4.3 -15.7 2.5 -14.8 3.25 -14.8 3.85 -14.25 4.3 -12.6 3.4 -11.25 L4.0 -11.05 M27.45 13.1 L27.05 13.25 Q25.0 14.25 22.95 14.85 21.8 17.85 19.15 19.45 19.15 20.35 18.0 20.35 16.85 20.3 16.15 20.95 L17.0 22.3 Q20.45 28.1 21.55 34.95 L21.55 35.1 21.85 37.8 Q23.95 36.4 25.15 34.35 L25.45 34.25 25.85 33.95 Q27.35 33.05 27.3 31.65 L28.8 30.0 28.85 29.75 28.85 29.35 29.8 29.2 Q30.55 28.25 30.75 27.1 L30.3 27.55 33.15 24.3 33.2 23.0 33.2 23.55 33.55 22.0 33.95 21.1 33.8 20.55 34.1 21.6 Q35.2 20.65 35.15 19.15 L35.1 19.05 35.05 18.9 34.35 17.5 Q33.1 15.35 31.2 13.6 29.7 12.65 28.25 12.9 L28.35 12.85 27.9 12.8 27.45 13.1 M26.1 46.85 Q26.5 45.8 25.75 45.15 L25.9 47.0 26.1 46.85 M1.5 82.0 L2.2 83.9 2.95 85.75 Q2.8 86.35 2.95 86.8 L3.45 86.05 3.7 85.6 Q4.0 86.7 3.75 87.95 3.5 89.25 3.6 90.55 L2.95 93.7 2.6 94.95 1.9 97.0 Q0.95 96.7 1.15 96.05 1.35 95.35 1.15 94.6 L0.8 95.9 0.25 97.2 0.25 97.05 0.25 96.8 0.3 96.2 0.35 95.65 0.75 93.3 0.9 92.75 1.2 91.7 2.45 86.95 2.6 86.35 2.65 86.15 Q1.85 83.25 0.7 80.45 L0.45 80.9 -0.35 83.2 Q-0.65 84.75 -1.85 85.9 -0.35 88.85 0.35 92.2 L0.35 92.35 0.4 92.5 -0.35 92.7 -0.45 92.45 -0.55 92.25 -0.75 91.85 -0.8 91.65 -1.6 89.65 -1.8 88.95 -1.85 88.95 -2.95 84.65 -2.45 84.65 Q-2.5 85.05 -2.2 85.3 -1.4 84.2 -1.5 82.7 -1.6 81.2 -0.5 80.45 L0.05 78.2 0.4 78.2 0.5 78.75 0.5 78.8 0.65 79.3 0.7 79.5 1.5 82.0 M16.9 74.0 L17.05 74.25 17.05 74.2 17.1 74.4 17.1 74.35 16.9 74.0 M24.3 82.35 L24.3 82.4 24.3 82.35 M15.55 111.85 L15.5 111.85 15.55 111.8 15.55 111.85 M15.85 125.45 Q12.4 126.5 8.9 124.55 L7.5 123.75 Q6.9 123.35 6.05 124.0 4.3 126.3 5.0 129.1 5.65 131.95 5.05 134.5 5.5 134.6 5.6 135.25 8.9 136.1 10.3 139.15 12.3 140.3 14.0 139.1 15.5 138.0 17.3 137.85 L17.8 137.85 Q18.75 137.15 19.9 137.2 L20.65 137.25 20.8 137.3 Q22.45 137.75 23.65 137.3 22.7 134.95 21.25 132.8 L20.4 131.6 20.2 131.3 Q19.75 129.65 20.65 128.2 20.8 126.85 19.95 125.9 L18.25 124.3 18.1 124.4 15.85 125.45 M13.3 124.65 L13.3 124.7 14.55 124.6 15.9 124.3 16.05 124.3 Q17.75 124.2 17.7 122.75 L17.55 120.05 16.15 119.9 13.4 120.2 11.3 120.4 8.5 120.65 8.5 123.05 8.65 123.1 8.95 123.35 10.0 123.95 11.2 124.4 13.3 124.65 M23.25 139.85 L22.9 138.8 Q22.65 138.25 21.9 138.55 18.95 138.3 16.3 139.3 13.65 140.35 10.8 140.3 L7.15 144.65 Q6.8 145.05 6.85 145.65 6.9 146.15 6.4 146.5 7.9 148.2 10.15 148.1 12.35 143.75 16.95 142.1 L17.25 142.55 19.4 141.95 21.85 141.45 Q23.3 141.35 23.25 139.85 M18.85 152.8 L19.05 152.8 24.95 152.35 26.9 151.95 32.1 150.25 Q32.2 148.05 30.9 146.55 L30.6 146.15 28.55 143.3 Q27.6 142.35 26.3 142.4 L23.8 141.8 18.6 142.95 Q15.95 143.5 14.05 145.3 L12.4 148.3 Q11.5 149.8 12.25 151.35 L13.45 151.95 15.65 152.65 18.85 152.8 M8.75 140.6 Q9.25 140.05 9.9 139.7 9.5 139.25 9.0 139.1 8.45 137.7 7.25 137.1 L4.95 135.75 Q3.8 137.2 3.6 138.95 6.15 138.55 7.5 140.9 8.2 141.15 8.75 140.6 M5.6 141.4 L3.7 139.9 Q2.6 141.95 2.05 144.1 L4.7 144.95 Q6.25 145.3 6.7 143.35 6.85 141.95 5.6 141.4 M-1.15 143.95 Q-0.15 141.15 -1.6 138.55 -2.3 140.8 -4.6 141.25 -3.35 143.3 -2.45 145.35 -1.6 144.9 -1.15 143.95 M-16.2 113.85 L-16.25 113.7 -16.2 113.85 M-10.2 120.2 L-12.3 120.65 -15.15 120.4 -16.95 119.8 -17.05 119.8 -17.05 120.05 Q-17.45 121.2 -16.3 121.85 L-15.3 122.55 -12.2 124.0 -9.0 124.1 -7.7 123.55 -6.0 122.05 Q-5.2 121.15 -5.65 119.9 L-5.65 118.75 Q-6.1 117.95 -6.65 118.4 -7.25 118.85 -7.9 118.85 -8.8 119.65 -9.9 120.1 L-10.2 120.2 M-6.6 123.65 Q-7.9 124.5 -9.45 125.0 -12.25 125.85 -14.3 124.45 L-18.45 121.65 Q-19.6 122.7 -19.8 124.25 -17.4 126.55 -17.85 130.25 -18.5 131.9 -20.3 132.95 -20.6 134.2 -20.3 135.5 -15.05 135.05 -9.75 136.25 L-8.45 135.25 -6.45 134.45 Q-6.1 134.65 -6.15 135.0 -4.75 135.15 -4.3 134.25 L-4.2 134.05 -4.15 133.95 Q-3.8 132.7 -3.1 131.75 -5.25 130.65 -4.1 129.5 -3.0 128.35 -3.0 126.95 L-3.1 123.7 Q-3.0 122.0 -4.0 120.9 -5.1 122.55 -6.6 123.65 M-12.85 136.75 Q-17.3 136.7 -21.5 136.9 L-22.45 137.6 Q-23.0 137.95 -22.7 138.7 L-16.9 139.1 Q-14.0 139.2 -11.6 140.5 L-8.45 144.15 Q-6.85 146.05 -6.65 148.5 -4.25 147.4 -3.9 144.7 -4.45 142.65 -5.9 140.95 -8.45 136.8 -12.85 136.75 M-4.9 140.8 L-3.75 139.7 Q-2.05 137.15 -3.1 134.45 -4.2 135.6 -5.75 135.7 -7.3 135.8 -8.25 137.15 L-4.9 140.8 M-9.8 144.55 Q-10.75 142.65 -12.6 141.35 -15.25 140.45 -18.0 140.25 L-23.55 139.4 Q-25.5 141.55 -26.55 144.25 -29.75 146.3 -29.9 150.05 -28.7 151.35 -27.2 151.95 -25.8 152.55 -24.15 152.5 -20.85 152.45 -17.75 153.7 L-17.35 153.7 -16.95 153.75 -13.15 153.2 -12.6 153.0 -12.45 152.95 -12.2 152.85 -10.7 151.95 Q-9.25 150.9 -7.95 149.3 L-9.6 144.95 -9.8 144.55" fill="#000000" fill-rule="evenodd" stroke="none"/>
    <path d="M16.6 -35.7 Q19.1 -35.35 19.9 -33.1 21.45 -30.9 21.7 -27.95 21.9 -25.0 21.0 -22.45 17.6 -23.55 14.2 -22.9 L14.6 -28.2 Q14.75 -30.95 13.6 -33.25 13.75 -35.05 12.7 -36.45 L14.7 -36.4 16.6 -35.7 M10.7 -9.2 L11.35 -9.7 12.1 -8.3 Q13.75 -6.65 15.85 -6.7 17.95 -7.2 19.8 -8.45 19.85 -6.8 20.85 -5.75 L19.75 -5.1 18.35 -4.85 18.6 -5.25 18.0 -4.85 15.9 -5.1 15.05 -4.8 Q15.8 -4.95 16.45 -5.45 L15.45 -5.2 15.2 -5.3 14.4 -5.65 12.9 -5.7 11.95 -6.4 11.8 -5.95 12.65 -5.15 12.55 -4.95 Q12.4 -4.35 12.75 -3.85 15.25 -0.7 19.6 -1.35 L20.25 -0.85 20.35 -0.75 Q20.05 0.75 20.15 2.25 L20.1 2.75 18.85 4.9 Q14.6 5.25 10.65 6.55 L6.25 6.45 Q3.25 6.1 0.55 7.35 L-3.2 7.05 -3.2 5.95 Q-3.3 3.8 -3.9 1.75 -4.65 -0.85 -3.4 -3.15 L-3.25 -3.5 Q1.55 -2.4 6.2 -4.15 7.35 -5.25 8.9 -5.7 9.85 -6.0 10.4 -6.8 11.4 -8.35 10.7 -9.2 M-6.4 5.9 L-11.3 6.25 -18.15 7.15 Q-19.85 7.05 -20.5 6.2 -19.85 2.4 -19.95 -1.55 L-19.95 -2.45 -20.15 -3.65 -19.6 -4.6 -17.7 -4.4 Q-14.55 -3.8 -11.45 -5.6 -11.05 -5.85 -10.75 -6.15 L-10.7 -6.1 -10.35 -5.6 -10.25 -5.5 Q-8.8 -4.45 -7.0 -4.15 L-6.3 -4.05 -6.05 -4.05 -5.75 -4.3 Q-6.6 -3.75 -6.6 -2.3 L-7.25 -1.5 -7.65 0.7 -7.3 3.85 Q-7.05 5.0 -6.4 5.9 M-9.15 -6.2 L-8.55 -5.9 -8.75 -5.95 -9.15 -6.2 M-1.9 -20.0 L-2.45 -20.4 -3.85 -20.3 -3.85 -21.9 2.6 -22.35 3.35 -21.5 Q3.6 -20.65 2.95 -20.1 L-1.9 -20.0 M12.75 -19.45 L13.1 -20.0 13.6 -20.75 13.6 -20.8 15.4 -21.0 Q17.95 -21.05 20.05 -19.45 L20.2 -20.25 20.7 -21.15 21.6 -20.4 Q21.9 -19.15 21.7 -18.05 L21.75 -18.25 Q21.85 -17.65 21.2 -17.2 21.75 -15.95 21.35 -14.75 L21.15 -14.55 20.95 -14.3 20.6 -14.6 21.05 -14.2 21.1 -14.3 21.0 -13.5 20.65 -12.95 20.85 -12.15 20.85 -12.1 20.3 -10.45 20.2 -10.45 18.6 -12.05 18.6 -12.2 Q18.65 -13.4 19.7 -13.6 L20.6 -13.4 20.65 -12.95 20.6 -13.55 Q18.85 -15.1 16.45 -15.15 L11.7 -15.2 Q11.6 -15.8 11.95 -16.1 L11.9 -15.85 Q14.3 -16.05 16.8 -15.9 L19.35 -15.3 19.4 -15.95 Q19.75 -17.15 20.8 -17.6 19.05 -18.45 16.8 -18.25 L16.45 -18.2 13.0 -17.8 12.9 -17.75 12.6 -17.7 12.45 -17.95 Q12.15 -18.65 12.55 -19.2 L12.55 -18.35 Q14.65 -19.2 17.15 -19.25 L19.55 -18.95 19.6 -19.15 12.75 -19.45 M20.05 -19.4 L19.75 -19.1 19.7 -18.95 20.2 -18.8 20.05 -19.4 M-12.45 -35.15 Q-13.75 -33.0 -14.35 -30.5 L-14.35 -24.8 Q-18.5 -24.85 -21.9 -23.3 -21.7 -26.5 -21.75 -29.9 -21.8 -33.4 -18.15 -34.7 L-15.3 -35.6 Q-13.9 -36.1 -12.45 -35.15 M-15.8 -23.35 L-15.55 -23.4 Q-14.2 -23.75 -13.45 -22.25 -13.35 -21.45 -13.8 -21.2 -13.5 -20.7 -13.45 -20.0 L-13.45 -19.9 -13.15 -19.6 Q-13.05 -18.4 -13.35 -17.4 L-13.4 -17.35 -13.75 -16.6 -14.85 -16.55 -15.1 -17.0 -15.2 -17.65 Q-16.8 -17.15 -18.45 -16.8 -19.8 -16.55 -20.85 -15.75 -21.8 -15.4 -22.05 -16.35 -19.0 -18.15 -15.25 -18.2 L-15.35 -20.4 -14.6 -20.35 Q-18.35 -20.75 -21.55 -18.95 L-22.2 -17.3 -22.05 -19.7 -21.65 -19.95 Q-18.55 -21.55 -15.05 -21.15 L-14.85 -21.15 Q-15.45 -21.45 -15.75 -22.25 -15.95 -22.8 -15.8 -23.35 M-4.15 -13.15 L0.7 -13.9 2.95 -13.7 2.95 -12.05 -3.95 -12.05 Q-4.25 -12.5 -4.15 -13.15 M-15.0 -12.95 L-16.25 -13.2 Q-17.85 -12.95 -18.1 -11.35 -17.4 -9.75 -15.4 -9.85 -14.45 -10.85 -14.35 -12.1 -14.3 -12.95 -15.0 -12.95 M-18.25 -15.2 L-13.75 -15.95 Q-12.35 -14.15 -11.85 -11.65 -11.35 -9.1 -12.25 -6.9 L-12.75 -6.65 -16.65 -6.95 Q-18.55 -7.15 -20.1 -8.75 -19.7 -10.65 -20.6 -12.85 -21.45 -15.05 -18.25 -15.2 M-15.45 -12.3 Q-14.45 -12.35 -14.95 -11.0 L-15.4 -10.15 Q-16.6 -10.6 -17.05 -11.65 -16.45 -12.25 -15.45 -12.3 M-19.6 0.4 Q-19.1 2.4 -18.9 4.1 -17.2 5.8 -15.05 4.9 -12.95 4.0 -10.75 4.0 -9.4 3.0 -9.7 1.2 L-10.3 -2.05 -11.25 -3.4 Q-14.9 -4.05 -18.25 -2.65 -20.05 -1.65 -19.6 0.4 M-21.65 6.3 Q-21.3 8.0 -22.15 9.35 -22.7 6.8 -24.85 5.25 -23.35 5.45 -22.0 6.2 -22.45 5.25 -23.35 4.85 L-30.2 3.85 Q-33.85 3.55 -36.75 5.6 -37.3 4.5 -36.9 3.0 -33.7 1.4 -29.8 0.75 -25.4 0.3 -22.5 3.2 L-21.7 6.15 -22.0 6.2 -21.65 6.3 M-23.15 1.95 Q-25.95 -0.45 -29.1 0.05 L-35.85 1.3 Q-36.15 0.75 -36.05 0.2 -35.5 -0.6 -34.55 -0.45 L-33.05 -0.4 -27.45 -1.05 Q-24.65 -1.05 -22.95 1.7 L-23.15 1.95 M15.3 16.85 L15.15 17.1 Q14.55 17.95 14.25 19.2 13.8 21.75 15.35 23.55 16.85 25.3 17.75 27.35 19.95 31.2 20.5 35.75 21.0 39.65 23.2 42.8 L22.4 44.6 21.55 46.5 Q21.15 47.55 20.25 48.15 L16.9 50.2 Q14.8 51.5 13.4 53.65 L13.25 54.25 Q11.3 55.0 9.9 56.45 8.3 58.1 6.25 58.95 L4.85 59.55 Q2.25 60.6 -0.8 60.15 L-7.5 59.45 -7.65 59.2 Q-6.95 56.15 -10.45 55.45 L-11.9 55.0 -18.15 52.15 -21.5 49.15 Q-22.75 47.75 -24.5 46.8 -26.25 45.8 -24.85 43.7 -24.15 42.7 -24.1 41.45 -23.65 41.85 -23.0 42.05 -22.35 42.25 -22.6 42.95 -21.45 43.55 -22.1 44.95 L-22.25 45.35 -21.65 45.7 -19.95 43.1 Q-18.95 44.6 -16.95 45.65 L-15.15 45.6 Q-14.2 45.6 -13.6 44.95 -14.2 46.9 -15.15 48.65 -12.1 45.05 -11.8 40.2 -12.7 36.55 -13.0 32.9 -13.25 29.55 -11.65 26.55 L-11.25 25.9 -11.3 25.95 -12.55 28.05 -12.25 27.45 -11.65 25.2 -11.75 25.0 -12.0 24.8 -12.55 24.75 -12.55 24.8 -12.8 24.9 -13.05 25.25 Q-15.7 29.15 -15.2 33.85 L-15.05 34.05 -14.2 35.0 -14.25 34.35 -14.05 35.8 -13.15 40.4 Q-13.95 39.7 -15.65 39.35 L-15.85 39.15 Q-17.2 37.6 -19.1 37.65 -19.15 35.35 -19.6 33.05 -19.05 29.15 -17.05 25.75 -15.15 22.35 -14.15 18.65 -14.35 17.65 -15.2 17.55 L-15.45 18.0 -15.65 17.05 -15.15 16.1 -15.55 14.95 Q-15.65 14.0 -16.25 13.3 -16.5 13.05 -16.4 12.65 -16.05 11.15 -14.7 10.2 -13.25 9.15 -11.6 8.6 -9.8 8.3 -8.8 9.3 -8.55 9.1 -8.3 9.05 -6.65 9.1 -5.95 10.4 L-5.95 10.5 -6.0 10.6 -6.0 10.65 -5.95 11.05 Q-5.65 11.95 -5.8 12.55 -3.35 13.8 -0.45 13.65 2.45 13.45 5.3 13.55 5.8 11.95 4.9 10.4 L5.0 10.4 Q6.75 10.25 8.5 10.4 L8.6 10.15 Q9.25 8.95 10.5 8.85 13.95 8.55 14.7 11.65 L14.85 12.8 14.95 12.85 15.05 12.95 15.0 15.1 15.1 17.15 15.3 16.85 M-10.65 11.8 Q-9.75 10.25 -11.6 10.1 -12.6 10.25 -13.15 11.15 -14.1 12.55 -13.0 13.65 L-12.2 13.65 -10.9 12.15 -10.65 11.8 M-7.2 22.1 Q-5.6 20.35 -5.35 17.85 -6.15 16.4 -6.25 17.85 -6.4 19.3 -6.7 20.2 -7.3 21.1 -7.3 22.05 L-7.3 22.15 -7.2 22.1 M-9.45 16.0 L-9.65 16.0 -9.75 16.05 -10.8 17.9 -13.0 20.3 -13.55 21.15 Q-14.25 22.25 -13.05 22.8 L-12.2 22.7 Q-10.8 21.6 -10.0 20.1 L-9.9 19.85 Q-10.0 18.3 -9.5 16.9 L-9.5 16.8 -9.55 16.55 -9.45 16.45 -9.35 16.1 -9.45 16.0 M-3.05 18.35 Q-3.05 18.7 -3.4 18.9 -3.6 20.1 -2.45 20.6 -0.95 19.75 0.7 20.3 2.35 20.85 3.7 19.85 3.85 18.5 3.05 17.4 L1.3 17.4 Q0.15 16.65 -1.0 17.1 -2.2 17.55 -3.2 18.15 L-3.05 18.35 M-6.5 29.9 L-6.55 30.05 -6.6 30.45 -7.65 32.1 Q-8.95 36.95 -6.15 40.9 L-5.8 40.9 Q-6.5 38.45 -6.7 35.8 -6.95 32.8 -6.5 29.9 M-8.5 39.75 L-8.25 39.45 Q-8.7 36.5 -8.45 33.25 -8.2 30.0 -7.5 27.4 -9.2 30.2 -9.2 33.45 -9.2 36.7 -8.5 39.75 M-7.3 42.5 Q-7.35 41.95 -7.9 41.85 -8.25 41.85 -8.35 42.2 L-8.85 43.25 Q-9.95 45.4 -10.1 47.85 -10.15 49.2 -8.75 48.95 -8.35 48.9 -8.25 48.5 L-7.55 46.4 Q-6.65 44.45 -7.25 42.6 L-7.3 42.5 M-6.25 48.9 L-6.4 48.95 -6.7 50.0 -7.15 51.75 Q-8.0 54.0 -7.15 55.85 L-7.1 56.4 -6.95 57.05 -6.8 56.55 -5.5 51.55 -5.1 49.5 -5.95 48.85 -6.25 48.9 M19.35 -9.45 L16.7 -8.15 Q15.3 -7.6 13.9 -8.4 12.5 -9.55 12.05 -11.4 16.15 -12.6 19.35 -9.75 L19.35 -9.45 M6.6 -2.0 Q5.55 -2.95 4.2 -2.75 L1.6 -2.3 Q1.65 1.15 2.35 4.8 5.0 4.8 7.2 3.85 7.9 0.75 6.6 -2.0 M11.2 0.0 Q10.8 1.75 11.2 3.5 12.15 4.4 13.55 3.9 L16.15 3.0 16.15 0.0 15.6 -0.55 Q13.2 -1.0 11.2 0.0 M10.85 11.15 L10.85 11.3 10.85 11.4 Q11.95 12.4 13.15 11.8 L13.2 11.35 13.15 10.95 12.95 10.85 12.0 10.4 11.25 10.45 11.0 10.7 10.85 10.9 10.85 11.15 M9.75 14.05 L9.35 14.1 9.1 14.45 8.95 15.6 8.8 15.85 Q8.5 17.15 8.75 18.5 L8.85 19.1 9.05 20.25 9.25 20.75 9.3 20.75 9.6 21.25 9.25 20.7 9.5 21.55 Q10.0 22.95 11.35 23.1 L11.95 22.95 Q13.0 21.65 11.9 20.2 L11.7 19.65 Q11.3 17.55 10.55 15.6 L10.55 15.5 Q10.8 14.35 9.75 14.05 M2.2 17.85 Q2.15 18.7 2.8 19.6 L1.4 19.85 -0.05 19.6 -2.2 19.9 Q-2.8 17.65 -0.5 17.5 0.8 18.15 2.2 17.85 M7.55 22.35 Q7.2 22.3 7.1 22.65 6.55 23.95 6.9 25.3 7.05 25.15 7.3 25.15 L6.8 25.35 7.4 26.9 Q7.9 28.6 8.7 30.2 L8.9 30.65 Q9.45 32.35 9.25 34.2 L9.7 33.85 9.55 34.0 9.5 34.4 Q9.4 35.55 10.4 35.75 10.7 35.85 10.8 35.6 L11.45 34.0 11.7 32.4 11.7 31.6 Q11.5 29.4 10.55 27.35 L9.65 25.85 9.2 25.3 8.95 24.65 Q8.85 23.05 7.55 22.35 M4.0 28.75 Q3.0 26.3 1.3 24.15 L1.0 24.1 0.9 24.3 Q3.25 30.05 4.7 36.1 L4.85 36.3 5.4 36.05 5.4 35.5 5.35 34.15 5.55 34.7 5.6 35.5 Q5.85 38.0 5.6 40.7 5.1 43.05 5.2 45.6 L5.3 46.2 5.3 46.25 5.35 48.2 Q5.75 49.7 6.4 50.65 7.2 52.0 8.75 51.65 L8.95 51.35 9.1 50.6 Q7.8 46.35 8.45 41.8 L8.6 41.3 Q9.25 39.1 8.85 36.85 8.0 32.6 5.85 28.65 5.2 27.45 4.2 26.8 L4.0 26.85 3.7 26.4 3.9 27.85 3.75 27.0 Q3.65 27.05 3.7 27.25 L4.0 28.75 M20.15 41.7 L20.3 40.5 20.1 39.75 19.65 39.1 Q18.45 38.35 16.9 38.65 14.6 39.05 13.2 40.95 12.1 42.35 12.6 43.95 13.0 45.35 14.35 45.55 L15.2 45.65 Q16.7 45.9 17.95 44.8 19.4 43.55 20.15 41.7 M6.55 35.05 L6.65 35.85 6.5 36.75 6.55 36.35 6.55 35.05 M15.85 125.45 L18.1 124.4 18.25 124.3 19.95 125.9 Q20.8 126.85 20.65 128.2 19.75 129.65 20.2 131.3 L20.4 131.6 21.25 132.8 Q22.7 134.95 23.65 137.3 22.45 137.75 20.8 137.3 L20.65 137.25 19.9 137.2 Q18.75 137.15 17.8 137.85 L17.3 137.85 Q16.6 135.95 15.1 134.6 L12.35 135.2 12.2 135.2 Q10.35 135.95 8.6 134.6 8.35 134.4 8.45 134.1 8.85 132.85 10.3 133.15 L12.15 133.2 12.25 132.05 12.4 131.75 8.95 129.7 Q9.55 129.05 10.0 129.6 10.45 130.1 11.1 130.15 L12.65 130.7 14.3 130.9 14.35 130.9 15.65 129.75 Q16.25 129.15 17.35 128.85 L17.5 128.7 17.65 128.55 17.8 128.35 Q17.25 126.65 15.85 125.45 M23.25 139.85 Q23.3 141.35 21.85 141.45 L19.4 141.95 17.25 142.55 16.95 142.1 Q12.35 143.75 10.15 148.1 7.9 148.2 6.4 146.5 6.9 146.15 6.85 145.65 6.8 145.05 7.15 144.65 L10.8 140.3 Q13.65 140.35 16.3 139.3 18.95 138.3 21.9 138.55 22.65 138.25 22.9 138.8 L23.25 139.85 M8.75 140.6 Q8.2 141.15 7.5 140.9 6.15 138.55 3.6 138.95 3.8 137.2 4.95 135.75 L7.25 137.1 Q8.45 137.7 9.0 139.1 9.5 139.25 9.9 139.7 9.25 140.05 8.75 140.6 M-8.45 135.25 L-9.2 134.25 Q-10.0 132.7 -9.5 131.15 -12.75 131.4 -15.55 129.3 L-15.55 128.95 Q-13.75 130.15 -11.45 130.1 -9.15 130.05 -7.25 129.1 L-6.4 129.3 -6.7 129.2 -6.6 129.1 Q-7.85 127.35 -6.15 125.75 L-5.35 124.65 -6.6 123.65 Q-5.1 122.55 -4.0 120.9 -3.0 122.0 -3.1 123.7 L-3.0 126.95 Q-3.0 128.35 -4.1 129.5 -5.25 130.65 -3.1 131.75 -3.8 132.7 -4.15 133.95 L-4.2 134.05 -4.3 134.25 Q-4.75 135.15 -6.15 135.0 -6.1 134.65 -6.45 134.45 L-8.45 135.25 M-6.8 130.45 L-6.55 130.15 -7.05 130.6 -6.8 130.45 M-10.5 133.0 Q-13.35 134.0 -15.45 132.25 L-10.5 132.7 -10.5 133.0 M-4.9 140.8 L-8.25 137.15 Q-7.3 135.8 -5.75 135.7 -4.2 135.6 -3.1 134.45 -2.05 137.15 -3.75 139.7 L-4.9 140.8 M-12.85 136.75 Q-8.45 136.8 -5.9 140.95 -4.45 142.65 -3.9 144.7 -4.25 147.4 -6.65 148.5 -6.85 146.05 -8.45 144.15 L-11.6 140.5 Q-14.0 139.2 -16.9 139.1 L-22.7 138.7 Q-23.0 137.95 -22.45 137.6 L-21.5 136.9 Q-17.3 136.7 -12.85 136.75" fill="#663300" fill-rule="evenodd" stroke="none"/>
    <path d="M10.3 -34.35 L10.1 -34.55 Q6.6 -32.5 2.6 -31.25 -1.45 -30.05 -5.5 -31.55 -4.4 -30.8 -3.1 -30.45 0.8 -28.95 4.2 -30.55 7.6 -32.15 10.3 -34.35 M12.55 -32.7 Q7.1 -29.35 0.95 -27.45 -3.45 -28.0 -7.2 -30.0 -9.5 -31.6 -11.1 -33.75 -10.55 -35.6 -8.7 -36.15 -5.95 -33.2 -2.05 -32.7 L-1.65 -33.15 Q-5.0 -34.15 -7.75 -36.25 -5.45 -37.45 -2.55 -37.5 L2.9 -38.1 Q5.15 -38.3 7.1 -37.6 8.95 -36.9 11.15 -36.75 11.55 -34.6 12.55 -32.7 M-0.75 -36.3 Q-1.35 -36.1 -0.75 -35.55 2.25 -34.7 4.5 -36.15 L1.9 -36.05 -0.75 -36.3 M2.3 -25.95 L2.15 -25.85 2.15 -25.95 2.3 -25.95 M7.65 -24.15 L8.0 -24.5 7.7 -24.05 7.65 -24.15 M9.25 -22.15 L9.55 -22.65 9.35 -22.05 9.25 -22.15 M-23.5 -20.7 L-23.85 -20.0 -24.05 -20.1 -23.5 -20.7" fill="#772600" fill-rule="evenodd" stroke="none"/>
    <path d="M2.15 -25.95 L2.15 -25.85 2.3 -25.95 Q4.85 -26.5 7.1 -27.95 9.9 -29.8 13.55 -29.7 L13.5 -24.4 13.45 -24.05 13.45 -23.9 Q13.2 -21.9 11.95 -20.3 10.55 -20.85 9.35 -22.05 L9.55 -22.65 9.25 -22.15 8.3 -23.35 7.7 -24.05 8.0 -24.5 7.65 -24.15 7.15 -24.55 4.7 -24.6 4.65 -24.6 4.55 -24.7 4.5 -24.75 4.4 -24.8 4.15 -24.9 3.4 -24.95 2.7 -24.65 2.65 -24.65 2.5 -24.5 0.95 -23.25 Q0.7 -24.0 0.75 -24.7 L0.95 -25.75 2.15 -25.95 M-1.8 -23.2 L-2.4 -23.25 Q-3.5 -24.8 -5.1 -24.0 L-5.35 -23.85 -6.05 -23.25 -6.55 -22.55 -10.2 -22.75 -10.7 -19.45 Q-10.9 -17.8 -10.2 -16.3 L-5.15 -5.7 -5.8 -5.95 -7.8 -6.8 -8.15 -6.95 -8.55 -7.15 Q-10.3 -9.35 -10.45 -12.2 -10.65 -15.05 -12.6 -17.05 L-12.1 -19.2 Q-11.95 -20.25 -12.95 -21.15 -12.35 -22.1 -12.8 -23.25 -13.75 -23.65 -13.45 -24.35 L-13.05 -25.75 -12.8 -31.35 -12.2 -31.55 Q-10.55 -30.05 -8.7 -28.95 -5.15 -26.8 -0.9 -26.3 -0.5 -25.25 -0.45 -24.25 L-0.45 -23.55 -0.65 -23.5 -1.8 -23.2 M22.65 -28.05 L23.15 -28.55 23.35 -28.4 27.5 -25.2 28.05 -24.7 Q30.75 -22.45 32.25 -19.5 L31.4 -18.55 Q32.3 -18.95 32.55 -18.15 L33.0 -16.7 Q33.15 -14.15 33.85 -11.35 34.45 -8.65 33.75 -6.05 34.65 -3.05 34.65 -0.1 34.65 2.8 36.35 5.5 36.8 8.0 35.9 10.45 L35.0 9.9 Q34.55 9.4 34.1 10.0 L36.1 12.8 Q37.05 14.25 36.0 16.05 L35.9 16.15 Q32.3 11.6 26.55 11.35 L24.45 12.6 23.45 8.95 23.3 8.4 Q23.95 7.95 24.85 7.7 L32.2 7.5 32.6 6.7 33.3 4.65 Q29.5 2.25 30.65 -2.6 31.2 -4.8 31.15 -6.85 28.7 -7.95 28.7 -10.3 L29.0 -10.45 29.0 -10.7 28.9 -10.8 28.75 -10.9 29.2 -12.65 Q30.55 -16.15 28.95 -19.4 L28.85 -19.5 27.0 -20.0 Q23.6 -16.2 24.85 -11.25 25.05 -10.5 24.65 -9.8 L22.8 -6.7 22.5 -7.05 22.15 -7.35 22.05 -7.45 22.0 -11.75 Q21.85 -13.9 22.8 -15.4 22.9 -16.6 22.35 -17.45 23.6 -19.45 22.5 -21.55 L21.85 -21.85 23.1 -25.75 23.05 -26.05 22.65 -28.05 M25.75 -24.0 L25.9 -23.8 Q26.65 -24.15 26.85 -24.9 26.05 -24.75 25.75 -24.0 M28.8 -22.95 Q28.05 -22.9 27.6 -22.0 28.4 -22.15 28.8 -22.95 M-23.85 -20.0 Q-23.15 -18.05 -23.4 -15.9 -23.35 -14.7 -22.2 -13.85 -22.6 -12.2 -21.9 -10.85 -21.25 -9.5 -21.6 -7.95 -22.4 -6.3 -23.5 -4.6 -24.65 -2.95 -23.7 -0.9 L-23.95 -0.55 Q-26.2 -2.5 -29.1 -2.2 -29.1 -5.75 -25.9 -7.85 L-24.95 -8.75 -26.05 -11.05 Q-27.75 -15.8 -24.05 -20.1 L-23.85 -20.0 M-26.0 -11.1 Q-25.1 -10.95 -24.8 -11.4 -25.7 -11.95 -26.0 -11.1" fill="#660033" fill-rule="evenodd" stroke="none"/>
    <path d="M-0.45 -24.25 L-0.45 -23.4 -1.8 -23.2 -0.65 -23.5 -0.45 -23.55 -0.45 -24.25 M22.65 -28.05 L22.6 -28.95 23.15 -28.55 22.65 -28.05 M17.3 137.85 Q15.5 138.0 14.0 139.1 12.3 140.3 10.3 139.15 8.9 136.1 5.6 135.25 5.5 134.6 5.05 134.5 5.65 131.95 5.0 129.1 4.3 126.3 6.05 124.0 6.9 123.35 7.5 123.75 L8.9 124.55 Q12.4 126.5 15.85 125.45 17.25 126.65 17.8 128.35 L17.65 128.55 17.5 128.7 17.35 128.85 Q16.25 129.15 15.65 129.75 L14.35 130.9 14.3 130.9 12.65 130.7 11.1 130.15 Q10.45 130.1 10.0 129.6 9.55 129.05 8.95 129.7 L12.4 131.75 12.25 132.05 12.15 133.2 10.3 133.15 Q8.85 132.85 8.45 134.1 8.35 134.4 8.6 134.6 10.35 135.95 12.2 135.2 L12.35 135.2 15.1 134.6 Q16.6 135.95 17.3 137.85 M-6.6 123.65 L-5.35 124.65 -6.15 125.75 Q-7.85 127.35 -6.6 129.1 L-6.7 129.2 -6.4 129.3 -7.25 129.1 Q-9.15 130.05 -11.45 130.1 -13.75 130.15 -15.55 128.95 L-15.55 129.3 Q-12.75 131.4 -9.5 131.15 -10.0 132.7 -9.2 134.25 L-8.45 135.25 -9.75 136.25 Q-15.05 135.05 -20.3 135.5 -20.6 134.2 -20.3 132.95 -18.5 131.9 -17.85 130.25 -17.4 126.55 -19.8 124.25 -19.6 122.7 -18.45 121.65 L-14.3 124.45 Q-12.25 125.85 -9.45 125.0 -7.9 124.5 -6.6 123.65 M-6.8 130.45 L-7.05 130.6 -6.55 130.15 -6.8 130.45 M-10.5 133.0 L-10.5 132.7 -15.45 132.25 Q-13.35 134.0 -10.5 133.0" fill="#993300" fill-rule="evenodd" stroke="none"/>
    <path d="M4.7 -24.6 L7.15 -24.55 7.65 -24.15 7.7 -24.05 8.3 -23.35 9.25 -22.15 9.35 -22.05 Q10.55 -20.85 11.95 -20.3 L11.45 -19.75 Q11.65 -18.65 11.0 -17.6 10.35 -16.6 10.7 -15.4 9.6 -14.1 9.4 -12.5 L8.6 -9.4 Q5.35 -6.6 1.25 -5.95 L0.95 -10.45 3.7 -10.25 Q5.1 -10.25 5.75 -11.45 L5.5 -13.95 Q5.3 -15.2 4.1 -15.85 2.4 -16.4 1.5 -14.8 L0.95 -14.8 0.5 -18.4 2.9 -18.3 5.25 -18.4 Q7.4 -19.7 6.8 -22.0 6.1 -23.55 4.7 -24.6 M-6.05 -23.25 Q-6.85 -22.4 -6.9 -21.15 -6.85 -19.4 -5.4 -18.25 L-3.45 -18.2 -1.55 -18.25 -0.45 -18.55 Q-0.05 -16.8 -0.05 -14.8 -1.95 -13.9 -3.65 -15.1 -5.4 -16.35 -6.45 -13.95 -7.2 -11.15 -4.65 -9.85 L-0.45 -10.5 0.15 -5.65 -1.95 -5.7 -3.9 -6.0 Q-3.9 -5.7 -4.2 -5.55 L-4.55 -5.5 -4.85 -5.6 -5.8 -5.95 -5.15 -5.7 -10.2 -16.3 Q-10.9 -17.8 -10.7 -19.45 L-10.2 -22.75 -6.55 -22.55 -6.05 -23.25 M23.3 8.4 Q22.95 6.85 23.85 5.35 23.75 3.85 25.1 3.7 L27.45 3.05 Q28.45 3.2 29.15 2.65 26.5 2.3 24.1 3.25 23.65 1.65 24.2 0.0 24.65 -1.6 24.6 -3.2 27.15 -4.5 30.0 -5.2 L27.45 -5.3 24.3 -4.15 Q23.65 -5.8 22.5 -7.05 L22.8 -6.7 24.65 -9.8 Q25.05 -10.5 24.85 -11.25 23.6 -16.2 27.0 -20.0 L28.85 -19.5 28.95 -19.4 Q30.55 -16.15 29.2 -12.65 L28.75 -10.9 28.65 -10.9 28.65 -10.25 28.7 -10.3 Q28.7 -7.95 31.15 -6.85 31.2 -4.8 30.65 -2.6 29.5 2.25 33.3 4.65 L32.6 6.7 32.2 7.5 24.85 7.7 Q23.95 7.95 23.3 8.4 M-29.1 -2.2 L-29.5 -2.15 -35.75 -0.9 Q-36.85 -2.8 -35.3 -4.25 -33.8 -5.75 -32.85 -7.4 -31.6 -9.85 -32.4 -12.4 -33.2 -14.95 -32.45 -17.45 L-31.35 -20.05 Q-30.7 -21.4 -29.4 -21.8 L-29.0 -22.25 -29.1 -22.7 Q-26.95 -25.7 -23.55 -27.4 L-23.1 -23.6 Q-22.95 -22.05 -23.5 -20.7 L-24.05 -20.1 Q-27.75 -15.8 -26.05 -11.05 L-24.95 -8.75 -25.9 -7.85 Q-29.1 -5.75 -29.1 -2.2 M-26.1 -22.85 L-25.5 -22.85 Q-25.45 -23.4 -26.1 -23.3 L-26.1 -22.85 M-27.45 -20.4 Q-27.65 -21.0 -28.2 -21.3 L-28.35 -20.85 Q-28.0 -20.35 -27.45 -20.4 M-27.1 -8.3 Q-26.8 -8.25 -26.65 -8.45 -27.1 -9.3 -27.75 -9.7 L-27.1 -8.3 M26.05 -8.5 Q26.5 -8.15 26.95 -8.7 26.4 -9.05 26.05 -8.5" fill="#990033" fill-rule="evenodd" stroke="none"/>
    <path d="M-24.6 108.6 L-24.65 108.3 -24.5 108.6 -24.6 108.6 M3.25 -23.1 L2.3 -23.25 Q3.35 -24.45 4.5 -23.75 5.7 -23.05 6.05 -21.75 6.55 -20.05 5.05 -19.2 L3.05 -19.0 Q4.6 -20.0 4.0 -21.9 L3.25 -23.1 M-3.95 -22.6 Q-4.45 -22.6 -4.7 -22.1 L-4.5 -20.1 Q-4.6 -18.95 -3.35 -19.1 -3.85 -18.65 -5.0 -19.1 -6.3 -20.35 -5.75 -22.1 -4.7 -23.7 -3.35 -23.2 -3.45 -22.65 -3.95 -22.6 M-4.75 -13.4 L-4.55 -11.5 Q-4.0 -11.05 -3.05 -11.25 -3.75 -10.6 -4.7 -10.9 -5.8 -11.55 -5.7 -12.45 L-5.3 -14.25 Q-4.6 -14.75 -3.7 -14.5 -4.8 -14.5 -4.75 -13.4 M-28.9 26.45 L-28.75 26.25 -28.7 26.2 -27.1 27.9 Q-26.55 29.15 -27.15 30.4 L-27.45 30.8 Q-29.3 30.55 -30.05 28.75 L-29.65 27.95 -29.05 26.65 -28.9 26.45 M-33.35 18.5 L-32.95 19.7 -31.0 22.45 -32.4 24.8 Q-34.5 22.9 -34.6 20.0 -34.6 18.9 -33.6 18.5 L-33.35 18.5 M-36.05 8.55 L-35.95 8.5 -35.75 8.45 -35.2 11.9 -35.1 12.25 -34.75 13.45 -36.0 15.2 Q-37.35 12.85 -37.4 10.25 L-36.05 8.55 M-21.85 32.95 L-22.2 32.8 -22.35 32.7 -22.45 32.15 -22.5 31.85 -22.4 31.65 -22.25 31.5 -21.85 31.4 -21.45 31.65 -21.85 32.95 M-20.6 66.9 L-20.7 68.35 -20.25 68.65 Q-19.75 67.7 -19.65 66.6 L-19.45 66.55 Q-19.3 67.65 -18.7 68.6 -18.05 69.6 -17.05 70.1 L-17.65 71.6 -17.7 71.9 -17.4 72.45 -16.55 70.7 -16.4 70.4 -16.1 70.45 -12.55 71.55 -12.45 71.6 -12.45 71.75 -12.45 72.15 -12.45 73.75 -12.2 76.15 Q-11.85 78.65 -9.55 77.6 -9.8 78.9 -9.5 80.4 -10.05 82.6 -11.0 84.75 L-11.2 85.9 -10.8 88.5 -10.75 88.4 Q-12.05 92.45 -12.6 96.75 -11.15 92.65 -10.8 88.55 L-9.95 90.65 Q-10.6 91.9 -10.85 93.3 L-11.0 94.25 Q-11.25 96.5 -11.8 98.55 -11.15 98.5 -11.05 97.95 -11.0 97.35 -10.6 97.05 L-10.6 97.95 -10.7 101.0 Q-9.65 97.6 -9.0 94.1 L-8.7 92.5 -8.2 93.05 -8.5 94.2 -8.55 94.55 -8.75 96.45 -8.75 96.75 -8.8 101.95 Q-7.95 100.15 -7.8 98.15 L-7.8 97.0 -7.8 96.5 -7.65 93.6 -5.85 95.0 Q-5.3 95.35 -5.05 95.85 -3.95 97.65 -4.8 99.8 L-4.95 100.25 -6.2 103.35 -9.4 110.8 -9.85 110.85 -11.45 111.2 -11.5 110.85 -12.05 110.75 Q-12.1 110.25 -12.5 109.7 L-13.45 107.6 -13.75 105.45 Q-14.65 102.65 -15.15 99.85 L-15.4 98.45 -15.25 99.9 -14.05 107.25 Q-13.55 109.55 -12.6 111.65 -13.55 112.2 -14.0 113.5 L-14.05 113.5 -13.9 113.9 -14.6 112.0 -14.0 112.25 Q-15.0 109.85 -15.55 107.3 L-16.7 99.95 -16.8 99.1 Q-17.2 101.85 -16.85 104.7 L-16.1 110.3 -16.9 110.25 -16.45 111.4 -15.65 112.9 -15.55 113.05 -15.2 113.55 -14.85 114.0 -15.15 113.6 -15.25 113.6 -16.25 113.65 -16.75 112.35 -18.8 112.9 -18.35 112.7 Q-18.55 111.1 -20.0 109.55 -20.3 109.3 -20.2 108.95 L-20.1 108.45 Q-19.4 108.95 -18.7 108.7 -19.25 105.8 -19.3 102.85 L-19.2 98.55 -20.1 104.1 -20.3 106.2 -21.0 105.0 -21.9 104.9 -22.05 104.95 -22.1 105.0 -22.05 104.05 -21.6 99.55 Q-22.45 102.2 -22.45 105.05 L-22.4 105.15 -22.45 105.15 -22.8 104.65 -23.2 103.9 -23.15 103.65 Q-22.95 102.1 -23.5 100.8 L-22.75 97.8 -22.3 96.4 -21.05 97.45 -20.9 97.7 Q-20.3 98.55 -19.45 98.05 L-19.15 97.85 -19.05 97.25 -19.0 96.7 -18.95 96.4 -18.6 95.85 -18.4 95.0 -18.4 94.7 Q-17.5 93.55 -17.7 92.15 -18.25 88.95 -20.25 87.5 L-20.2 85.55 -20.15 84.35 -20.75 87.15 Q-21.2 86.85 -21.75 86.7 L-21.3 83.05 Q-21.2 81.85 -21.7 80.75 L-22.8 77.7 -23.4 75.15 -20.4 69.55 -20.15 69.15 -21.2 69.05 -21.15 68.9 -20.8 67.95 Q-22.4 70.4 -23.65 73.05 L-23.7 71.55 -23.35 70.8 Q-22.75 69.4 -22.8 68.05 L-22.5 67.7 Q-21.5 67.15 -20.6 66.9 M-22.8 77.7 L-22.8 77.65 -22.8 77.7 M-17.3 78.8 L-17.4 77.9 Q-18.05 79.85 -18.35 81.9 L-18.7 84.75 -17.2 79.65 -17.25 79.6 -17.3 78.8 M-18.6 72.35 L-18.8 72.25 -18.75 71.65 Q-18.8 71.25 -19.0 71.0 -20.4 73.8 -21.2 76.85 -21.65 78.7 -21.75 80.55 L-19.75 74.7 -18.6 72.35 M-8.9 77.25 L-8.85 77.2 -9.5 80.4 -9.25 77.45 -9.2 77.4 -8.9 77.25 M4.0 -11.05 L3.4 -11.25 Q4.3 -12.6 3.85 -14.25 3.25 -14.8 2.5 -14.8 4.3 -15.7 4.9 -13.75 4.8 -12.9 4.95 -12.05 5.1 -11.2 4.0 -11.05 M17.15 22.45 L17.65 21.9 19.05 21.5 20.65 21.55 20.4 21.35 Q20.1 21.05 20.3 20.7 21.05 19.25 22.9 18.95 L23.6 18.9 23.95 19.1 24.0 19.1 Q24.7 19.5 24.75 20.0 24.7 20.55 23.85 21.2 L22.7 21.85 22.65 21.85 22.05 21.4 21.35 21.05 21.25 21.05 21.2 21.0 21.15 21.0 21.05 20.95 20.95 20.95 20.85 20.9 20.8 20.9 20.65 20.85 20.55 20.85 20.35 20.95 21.05 21.8 21.0 21.75 Q21.5 22.45 20.85 23.0 L18.15 23.25 18.1 23.25 17.6 22.8 17.3 22.55 17.15 22.45 M23.95 18.1 Q24.0 17.15 24.7 16.4 24.95 16.15 25.15 16.05 L25.8 16.1 26.0 16.3 26.25 16.8 25.6 18.35 25.6 18.4 23.95 18.1 M2.95 85.75 L3.45 86.05 2.95 86.8 Q2.8 86.35 2.95 85.75 M0.8 95.9 L1.15 94.6 Q1.35 95.35 1.15 96.05 L0.8 95.9 M5.9 110.25 Q4.95 107.5 3.2 105.0 2.35 102.75 2.7 100.6 L2.95 99.5 Q3.25 98.45 3.85 97.4 L5.1 94.6 6.0 91.05 Q6.3 88.75 6.05 86.35 L5.55 83.8 Q5.2 82.5 4.55 81.55 L6.85 77.75 7.5 76.95 Q11.0 74.7 15.15 74.25 15.3 75.6 16.0 77.0 15.9 75.15 15.35 73.65 L15.55 74.2 16.55 74.1 16.6 74.3 Q18.2 78.75 20.8 82.95 20.05 85.0 19.75 87.25 19.25 90.8 19.2 94.4 19.1 100.5 18.35 106.45 L16.95 106.75 16.05 107.0 Q15.1 107.75 14.7 108.9 14.2 110.5 14.9 112.05 L13.9 112.25 13.5 112.2 13.3 112.7 13.9 111.0 13.25 112.15 11.1 111.9 10.55 107.65 10.35 105.4 10.2 105.25 9.7 111.15 9.7 111.7 9.25 111.65 9.2 111.95 9.05 110.8 8.3 111.6 8.1 111.55 7.05 111.5 6.8 109.2 Q6.6 105.6 7.1 102.05 L6.65 102.1 5.2 106.3 5.1 106.75 Q5.35 108.5 5.9 110.25 M16.7 72.85 L16.35 71.5 16.45 71.5 16.6 72.35 16.7 72.85 M11.35 77.4 L10.8 77.35 10.25 77.85 10.2 77.95 9.2 80.5 9.45 82.5 9.8 81.4 11.35 77.4 M13.65 95.0 Q13.1 92.2 12.9 89.35 12.7 86.7 12.9 84.05 L12.85 84.0 12.9 83.75 13.05 82.15 13.1 82.05 13.05 81.85 Q12.4 84.55 12.3 87.4 12.2 89.5 12.4 91.65 L11.45 90.3 11.35 89.5 10.9 89.5 10.85 90.55 10.9 89.75 Q10.3 89.25 9.6 88.95 L9.55 88.9 Q9.05 85.65 9.05 82.4 L8.8 82.4 8.5 85.25 8.25 84.3 7.4 88.25 7.15 89.7 7.15 89.65 6.75 90.65 Q6.0 92.7 6.45 95.1 7.45 100.65 12.55 102.15 14.7 102.75 15.75 101.0 17.1 98.8 16.2 97.25 L16.2 97.3 Q16.65 96.0 16.05 95.15 L15.65 96.5 Q14.95 95.8 13.75 95.25 L13.65 95.0 M10.15 85.45 L10.8 88.0 Q10.9 84.3 11.75 80.65 L12.15 79.2 11.7 80.3 Q10.7 82.8 10.15 85.45 M8.45 86.65 L8.55 88.7 8.15 88.8 8.45 86.65 M14.4 89.75 L14.45 86.7 14.35 86.1 14.4 89.75 M5.05 101.95 L5.3 101.4 5.1 101.75 5.05 101.95 M8.9 102.95 L8.6 102.65 8.55 102.9 Q8.0 106.2 8.3 109.55 8.5 106.3 9.05 103.15 L8.9 102.95 M12.7 109.8 L12.4 108.35 12.65 110.95 12.7 109.8 M18.85 148.0 Q18.5 149.05 17.4 148.7 L16.75 148.55 Q15.2 148.2 14.55 146.8 14.35 146.4 14.65 146.15 15.0 145.8 15.45 145.8 L15.75 145.75 15.85 145.75 16.3 145.8 Q17.9 146.15 18.8 147.4 L18.85 148.0 M-9.0 92.15 Q-9.45 92.2 -9.7 92.75 -9.8 91.75 -9.45 90.8 L-9.6 91.25 -9.0 92.15 M-22.9 95.8 L-23.4 98.4 -23.65 100.5 -24.0 100.0 -23.85 99.15 -24.25 99.65 -24.9 99.0 -24.65 98.0 Q-23.85 96.65 -23.4 95.25 L-22.9 95.8 M-16.1 89.65 L-15.95 89.2 -15.95 88.2 -16.1 89.65 M-6.0 95.65 L-6.2 95.65 Q-7.2 99.5 -6.4 103.3 -5.45 101.6 -5.65 99.6 L-5.9 96.75 -5.95 95.85 -5.95 95.65 -6.0 95.65 M-24.65 84.65 L-24.95 83.1 -24.5 83.65 -24.65 84.65 M-23.1 141.1 L-22.8 140.85 -22.6 140.8 Q-21.7 141.15 -22.1 142.1 L-23.4 144.65 -24.3 146.3 -24.9 146.85 -26.7 147.55 Q-27.5 148.25 -27.75 147.3 -27.85 147.0 -27.6 146.75 -27.5 145.5 -26.35 145.0 L-26.0 144.7 -24.95 142.75 -24.4 141.85 Q-23.95 141.15 -23.1 141.1" fill="#999966" fill-rule="evenodd" stroke="none"/>
    <path d="M-2.85 -4.25 L-2.8 -4.4 Q-2.45 -5.05 -1.55 -4.55 2.25 -3.85 5.35 -5.6 L10.7 -9.2 Q11.4 -8.35 10.4 -6.8 9.85 -6.0 8.9 -5.7 7.35 -5.25 6.2 -4.15 1.55 -2.4 -3.25 -3.5 L-2.85 -4.25 M-10.2 -6.9 L-10.15 -6.9 -9.6 -6.5 -9.15 -6.2 -8.75 -5.95 -8.55 -5.9 Q-7.75 -5.45 -6.85 -5.1 L-6.25 -4.85 -6.05 -4.8 -5.9 -4.75 -5.8 -4.7 -5.25 -4.55 -5.35 -4.5 -5.75 -4.3 -6.05 -4.05 -6.3 -4.05 -7.0 -4.15 Q-8.8 -4.45 -10.25 -5.5 L-10.35 -5.6 -10.7 -6.1 -10.75 -6.15 -10.2 -6.9 M12.55 -19.2 L12.55 -19.4 12.75 -19.45 19.6 -19.15 19.55 -18.95 17.15 -19.25 Q14.65 -19.2 12.55 -18.35 L12.55 -19.2 M13.6 -20.75 L13.45 -20.75 Q15.1 -22.05 17.6 -22.0 19.4 -21.95 20.7 -21.15 L20.2 -20.25 20.05 -19.45 Q17.95 -21.05 15.4 -21.0 L13.6 -20.8 13.6 -20.75 M21.35 -14.75 L21.1 -14.3 21.05 -14.2 20.6 -14.6 20.95 -14.3 21.15 -14.55 21.35 -14.75 M20.85 -12.1 L20.95 -11.75 Q21.2 -10.8 20.3 -10.45 L20.85 -12.1 M18.6 -12.05 Q17.45 -12.85 15.95 -12.8 L11.05 -12.35 10.8 -13.95 Q10.7 -14.7 11.6 -15.2 L11.7 -15.2 16.45 -15.15 Q18.85 -15.1 20.6 -13.55 L20.65 -12.95 20.6 -13.4 19.7 -13.6 Q18.65 -13.4 18.6 -12.2 L18.6 -12.05 M11.95 -16.1 L11.8 -16.85 Q11.6 -17.35 12.2 -17.65 L12.9 -17.75 13.0 -17.8 16.45 -18.2 16.8 -18.25 Q19.05 -18.45 20.8 -17.6 19.75 -17.15 19.4 -15.95 L19.35 -15.3 16.8 -15.9 Q14.3 -16.05 11.9 -15.85 L11.95 -16.1 M20.05 -19.4 L20.2 -18.8 19.7 -18.95 19.75 -19.1 20.05 -19.4 M-21.65 -19.95 L-22.3 -19.55 Q-22.95 -20.7 -22.2 -21.8 -21.35 -22.55 -20.25 -22.75 -19.15 -22.9 -18.25 -23.45 L-15.8 -23.35 Q-15.95 -22.8 -15.75 -22.25 -15.45 -21.45 -14.85 -21.15 L-15.05 -21.15 Q-18.55 -21.55 -21.65 -19.95 M-14.85 -16.55 Q-18.35 -16.45 -21.45 -15.2 L-20.85 -15.75 Q-19.8 -16.55 -18.45 -16.8 -16.8 -17.15 -15.2 -17.65 L-15.1 -17.0 -14.85 -16.55 M-22.05 -16.35 L-22.2 -16.3 -22.2 -17.3 -21.55 -18.95 Q-18.35 -20.75 -14.6 -20.35 L-15.35 -20.4 -15.25 -18.2 Q-19.0 -18.15 -22.05 -16.35 M-6.0 10.65 L-6.0 10.6 -5.95 10.5 -6.0 10.65 M-10.65 11.8 L-10.9 12.15 -12.2 13.65 -13.0 13.65 Q-14.1 12.55 -13.15 11.15 -12.6 10.25 -11.6 10.1 -9.75 10.25 -10.65 11.8 M-12.55 28.05 L-13.3 29.85 -13.45 30.15 -13.55 30.4 -13.8 31.0 -13.95 31.45 -14.15 32.4 -14.25 34.35 -14.2 35.0 -15.05 34.05 -15.2 33.85 Q-15.7 29.15 -13.05 25.25 L-12.8 24.9 -12.55 24.8 -12.55 24.75 -12.0 24.8 -11.75 25.0 -11.65 25.2 -12.25 27.45 -12.55 28.05 M-3.05 18.35 L-3.2 18.15 Q-2.2 17.55 -1.0 17.1 0.15 16.65 1.3 17.4 L3.05 17.4 Q3.85 18.5 3.7 19.85 2.35 20.85 0.7 20.3 -0.95 19.75 -2.45 20.6 -3.6 20.1 -3.4 18.9 -3.05 18.7 -3.05 18.35 M-6.5 29.9 Q-6.95 32.8 -6.7 35.8 -6.5 38.45 -5.8 40.9 L-6.15 40.9 Q-8.95 36.95 -7.65 32.1 L-6.6 30.45 -6.55 30.05 -6.5 29.9 M-6.25 48.9 L-5.95 48.85 -5.1 49.5 -5.5 51.55 -6.8 56.55 -6.95 57.05 -7.1 56.4 -7.15 55.85 Q-8.0 54.0 -7.15 51.75 L-6.7 50.0 -6.4 48.95 -6.25 48.9 M10.85 11.15 L10.85 10.9 11.0 10.7 11.25 10.45 12.0 10.4 12.95 10.85 13.15 10.95 13.2 11.35 13.15 11.8 Q11.95 12.4 10.85 11.4 L10.85 11.3 10.85 11.15 M2.2 17.85 Q0.8 18.15 -0.5 17.5 -2.8 17.65 -2.2 19.9 L-0.05 19.6 1.4 19.85 2.8 19.6 Q2.15 18.7 2.2 17.85 M5.35 34.15 L5.4 35.5 5.4 36.05 4.85 36.3 4.7 36.1 Q3.25 30.05 0.9 24.3 L1.0 24.1 1.3 24.15 Q3.0 26.3 4.0 28.75 L4.1 29.2 4.95 32.9 5.35 34.1 5.35 34.15" fill="#996600" fill-rule="evenodd" stroke="none"/>
    <path d="M-4.2 -5.55 Q-3.05 -5.4 -2.85 -4.25 L-3.25 -3.5 -3.4 -3.15 Q-4.65 -0.85 -3.9 1.75 -3.3 3.8 -3.2 5.95 L-3.25 5.95 Q-4.75 6.95 -5.6 5.8 L-6.4 5.9 Q-7.05 5.0 -7.3 3.85 L-7.65 0.7 -7.25 -1.5 -6.6 -2.3 Q-6.6 -3.75 -5.75 -4.3 L-5.35 -4.5 -5.25 -4.55 -5.8 -4.7 -4.95 -5.6 -4.85 -5.6 -4.55 -5.5 -4.2 -5.55 M20.85 -5.75 L21.35 -5.3 Q22.8 -4.2 22.9 -2.15 22.3 1.9 22.5 6.1 L12.1 6.4 10.65 6.55 Q14.6 5.25 18.85 4.9 L20.1 2.75 20.15 2.25 Q20.05 0.75 20.35 -0.75 L20.25 -0.85 19.6 -1.35 Q15.25 -0.7 12.75 -3.85 12.4 -4.35 12.55 -4.95 L12.65 -5.15 12.8 -5.0 13.3 -4.85 13.5 -4.8 14.0 -4.75 14.2 -4.75 15.05 -4.8 15.9 -5.1 18.0 -4.85 18.05 -4.85 16.35 -3.75 Q17.55 -3.95 18.35 -4.85 L19.75 -5.1 20.85 -5.75 M-20.5 6.2 Q-20.95 5.55 -20.9 4.5 -20.75 1.85 -21.9 0.05 -22.05 -1.2 -22.7 -2.3 L-22.9 -2.8 -22.95 -2.8 -22.95 -3.7 -22.55 -4.6 -22.55 -4.65 -22.5 -4.7 Q-21.45 -6.25 -20.7 -7.9 -17.4 -4.7 -13.0 -5.65 -11.75 -6.25 -10.95 -7.45 L-10.2 -6.9 -10.75 -6.15 Q-11.05 -5.85 -11.45 -5.6 -14.55 -3.8 -17.7 -4.4 L-19.6 -4.6 -20.15 -3.65 -19.95 -2.45 -19.95 -1.55 Q-19.85 2.4 -20.5 6.2 M-18.55 2.2 L-18.9 -1.25 Q-17.15 -1.85 -15.35 -2.6 -13.6 -3.4 -11.5 -2.65 L-10.75 -1.15 Q-10.4 0.85 -10.6 2.8 L-16.0 4.3 Q-17.35 4.7 -17.85 3.9 L-18.55 2.2 M-15.45 18.0 L-16.25 19.5 Q-17.95 19.85 -18.45 18.55 -19.05 17.25 -20.45 17.1 -20.65 15.25 -19.4 14.1 L-20.75 10.9 Q-21.5 9.3 -20.45 7.6 -18.75 8.7 -16.5 8.55 -14.3 8.35 -12.5 7.6 L-4.35 7.15 Q-3.45 8.0 -2.05 8.05 L0.6 8.35 2.2 8.25 Q3.1 8.4 3.6 7.6 9.9 8.15 16.05 7.8 L22.1 7.5 Q21.55 8.7 21.6 10.25 21.65 11.8 21.3 13.2 L22.1 13.95 Q20.75 15.2 20.15 16.9 19.55 18.6 17.45 19.05 L16.8 19.5 Q15.75 18.2 15.75 16.35 L15.7 16.4 15.65 16.45 15.55 16.6 15.3 16.85 15.1 17.15 15.0 15.1 15.05 12.95 14.95 12.85 14.85 12.8 14.7 11.65 Q13.95 8.55 10.5 8.85 9.25 8.95 8.6 10.15 L8.5 10.4 Q6.75 10.25 5.0 10.4 L4.9 10.4 4.7 10.1 1.65 9.55 Q-0.25 9.35 -2.15 9.55 L-2.2 9.55 -3.25 9.65 -3.45 9.65 Q-3.9 9.7 -4.3 10.0 -4.85 10.35 -5.05 9.8 -5.85 10.0 -5.95 10.5 L-5.95 10.4 Q-6.65 9.1 -8.3 9.05 -8.55 9.1 -8.8 9.3 -9.8 8.3 -11.6 8.6 -13.25 9.15 -14.7 10.2 -16.05 11.15 -16.4 12.65 -16.5 13.05 -16.25 13.3 -15.65 14.0 -15.55 14.95 L-15.15 16.1 -15.65 17.05 -15.45 18.0 M23.2 42.8 L23.8 43.6 23.9 43.7 24.4 43.65 24.65 48.05 Q19.35 50.85 14.55 55.15 L13.85 54.95 13.55 54.85 13.25 55.15 13.35 55.7 Q9.25 59.75 4.35 61.9 L-1.35 61.4 -5.0 60.9 Q-6.6 60.65 -7.5 59.45 L-0.8 60.15 Q2.25 60.6 4.85 59.55 L6.25 58.95 Q8.3 58.1 9.9 56.45 11.3 55.0 13.25 54.25 L13.4 53.65 Q14.8 51.5 16.9 50.2 L20.25 48.15 Q21.15 47.55 21.55 46.5 L22.4 44.6 23.2 42.8 M-7.65 59.2 L-7.8 58.9 -8.75 59.15 Q-13.2 57.1 -16.8 53.45 L-18.15 52.15 -11.9 55.0 -10.45 55.45 Q-6.95 56.15 -7.65 59.2 M-19.95 43.1 L-19.35 42.15 Q-18.3 40.4 -19.1 38.0 L-19.1 37.7 -19.1 37.65 Q-17.2 37.6 -15.85 39.15 L-15.65 39.35 Q-13.95 39.7 -13.15 40.4 L-14.05 35.8 -14.25 34.35 -14.15 32.4 -13.95 31.45 -13.8 31.0 -13.55 30.4 -13.45 30.15 -13.3 29.85 -12.55 28.05 -11.3 25.95 -11.65 26.55 Q-13.25 29.55 -13.0 32.9 -12.7 36.55 -11.8 40.2 -12.1 45.05 -15.15 48.65 -14.2 46.9 -13.6 44.95 -14.2 45.6 -15.15 45.6 L-16.95 45.65 Q-18.95 44.6 -19.95 43.1 M-9.45 16.0 L-9.35 16.1 -9.45 16.45 -9.55 16.55 -9.5 16.8 -9.5 16.9 Q-10.0 18.3 -9.9 19.85 L-10.0 20.1 Q-10.8 21.6 -12.2 22.7 L-13.05 22.8 Q-14.25 22.25 -13.55 21.15 L-13.0 20.3 -10.8 17.9 -9.75 16.05 -9.65 16.0 -9.45 16.0 M-7.3 22.05 Q-7.3 21.1 -6.7 20.2 -6.4 19.3 -6.25 17.85 -6.15 16.4 -5.35 17.85 -5.6 20.35 -7.2 22.1 L-7.3 22.05 M-4.95 10.6 L-0.1 10.75 Q2.3 10.55 4.5 11.25 L4.5 12.75 -4.95 12.3 Q-5.45 11.55 -4.95 10.6 M-7.3 42.5 L-7.25 42.6 Q-6.65 44.45 -7.55 46.4 L-8.25 48.5 Q-8.35 48.9 -8.75 48.95 -10.15 49.2 -10.1 47.85 -9.95 45.4 -8.85 43.25 L-8.35 42.2 Q-8.25 41.85 -7.9 41.85 -7.35 41.95 -7.3 42.5 M-8.5 39.75 Q-9.2 36.7 -9.2 33.45 -9.2 30.2 -7.5 27.4 -8.2 30.0 -8.45 33.25 -8.7 36.5 -8.25 39.45 L-8.5 39.75 M6.25 -1.05 Q6.9 1.05 6.6 3.3 L2.85 3.9 Q2.3 0.95 2.5 -1.6 4.65 -2.55 6.25 -1.05 M12.9 -5.7 L14.4 -5.65 15.2 -5.3 15.45 -5.2 Q14.1 -5.05 12.9 -5.7 M11.8 0.65 Q12.7 0.0 14.25 0.0 15.8 0.0 15.55 1.75 15.45 2.85 14.3 2.95 13.1 3.0 12.25 3.35 11.5 2.25 11.8 0.65 M9.75 14.05 Q10.8 14.35 10.55 15.5 L10.55 15.6 Q11.3 17.55 11.7 19.65 L11.9 20.2 Q13.0 21.65 11.95 22.95 L11.35 23.1 Q10.0 22.95 9.5 21.55 L9.25 20.7 9.6 21.25 9.3 20.75 9.25 20.75 9.05 20.25 8.85 19.1 8.75 18.5 Q8.5 17.15 8.8 15.85 L8.95 15.6 9.1 14.45 9.35 14.1 9.75 14.05 M7.55 22.35 Q8.85 23.05 8.95 24.65 L9.2 25.3 9.65 25.85 10.55 27.35 Q11.5 29.4 11.7 31.6 L11.7 32.4 11.45 34.0 10.8 35.6 Q10.7 35.85 10.4 35.75 9.4 35.55 9.5 34.4 L9.55 34.0 9.7 33.85 9.25 34.2 Q9.45 32.35 8.9 30.65 L8.7 30.2 Q7.9 28.6 7.4 26.9 L6.8 25.35 7.3 25.15 Q7.05 25.15 6.9 25.3 6.55 23.95 7.1 22.65 7.2 22.3 7.55 22.35 M4.0 28.75 L3.7 27.25 Q3.65 27.05 3.75 27.0 L3.9 27.85 3.7 26.4 4.0 26.85 4.2 26.8 Q5.2 27.45 5.85 28.65 8.0 32.6 8.85 36.85 9.25 39.1 8.6 41.3 L8.45 41.8 Q7.8 46.35 9.1 50.6 L8.95 51.35 8.75 51.65 Q7.2 52.0 6.4 50.65 5.75 49.7 5.35 48.2 L5.3 46.25 5.3 46.2 5.2 45.6 Q5.1 43.05 5.6 40.7 5.85 38.0 5.6 35.5 L5.55 34.7 5.35 34.15 5.35 34.1 4.95 32.9 4.1 29.2 4.0 28.75 M20.15 41.7 Q19.4 43.55 17.95 44.8 16.7 45.9 15.2 45.65 L14.35 45.55 Q13.0 45.35 12.6 43.95 12.1 42.35 13.2 40.95 14.6 39.05 16.9 38.65 18.45 38.35 19.65 39.1 L20.1 39.75 20.3 40.5 20.15 41.7 M26.1 46.85 L25.9 47.0 25.75 45.15 Q26.5 45.8 26.1 46.85 M6.55 35.05 L6.55 36.35 6.5 36.75 6.65 35.85 6.55 35.05" fill="#402000" fill-rule="evenodd" stroke="none"/>
    <path d="M-15.0 -12.95 Q-14.3 -12.95 -14.35 -12.1 -14.45 -10.85 -15.4 -9.85 -17.4 -9.75 -18.1 -11.35 -17.85 -12.95 -16.25 -13.2 L-15.0 -12.95 M-15.45 -12.3 Q-16.45 -12.25 -17.05 -11.65 -16.6 -10.6 -15.4 -10.15 L-14.95 -11.0 Q-14.45 -12.35 -15.45 -12.3 M-19.6 0.4 Q-20.05 -1.65 -18.25 -2.65 -14.9 -4.05 -11.25 -3.4 L-10.3 -2.05 -9.7 1.2 Q-9.4 3.0 -10.75 4.0 -12.95 4.0 -15.05 4.9 -17.2 5.8 -18.9 4.1 -19.1 2.4 -19.6 0.4 M-18.55 2.2 L-17.85 3.9 Q-17.35 4.7 -16.0 4.3 L-10.6 2.8 Q-10.4 0.85 -10.75 -1.15 L-11.5 -2.65 Q-13.6 -3.4 -15.35 -2.6 -17.15 -1.85 -18.9 -1.25 L-18.55 2.2 M-5.95 10.5 Q-5.85 10.0 -5.05 9.8 -4.85 10.35 -4.3 10.0 -3.9 9.7 -3.45 9.65 L-3.25 9.65 -2.2 9.55 -2.15 9.55 Q-0.25 9.35 1.65 9.55 L4.7 10.1 4.9 10.4 Q5.8 11.95 5.3 13.55 2.45 13.45 -0.45 13.65 -3.35 13.8 -5.8 12.55 -5.65 11.95 -5.95 11.05 L-6.0 10.65 -5.95 10.5 M-4.95 10.6 Q-5.45 11.55 -4.95 12.3 L4.5 12.75 4.5 11.25 Q2.3 10.55 -0.1 10.75 L-4.95 10.6 M6.6 -2.0 Q7.9 0.75 7.2 3.85 5.0 4.8 2.35 4.8 1.65 1.15 1.6 -2.3 L4.2 -2.75 Q5.55 -2.95 6.6 -2.0 M6.25 -1.05 Q4.65 -2.55 2.5 -1.6 2.3 0.95 2.85 3.9 L6.6 3.3 Q6.9 1.05 6.25 -1.05 M11.8 0.65 Q11.5 2.25 12.25 3.35 13.1 3.0 14.3 2.95 15.45 2.85 15.55 1.75 15.8 0.0 14.25 0.0 12.7 0.0 11.8 0.65 M11.2 0.0 Q13.2 -1.0 15.6 -0.55 L16.15 0.0 16.15 3.0 13.55 3.9 Q12.15 4.4 11.2 3.5 10.8 1.75 11.2 0.0" fill="#996666" fill-rule="evenodd" stroke="none"/>
    <path d="M-36.15 17.05 L-35.35 15.95 -35.25 15.8 -34.5 15.1 -33.65 14.4 -30.95 12.5 Q-29.2 11.4 -27.05 11.3 L-27.05 11.25 -26.6 9.45 Q-26.05 8.3 -27.25 7.4 L-28.2 6.6 -29.8 6.45 -30.05 6.35 -30.7 5.7 -33.35 5.15 -32.75 4.95 -32.15 4.8 -31.9 4.75 -31.75 4.7 -27.25 5.3 Q-25.0 5.65 -24.25 8.15 L-23.7 8.45 Q-23.65 9.5 -23.2 10.65 -22.75 11.75 -23.65 12.35 -23.2 13.05 -23.0 14.1 L-23.0 14.75 Q-23.75 13.95 -24.75 13.7 L-28.0 12.85 Q-30.8 13.75 -32.75 16.05 -34.15 17.7 -35.1 19.5 L-35.8 18.7 Q-36.25 17.95 -36.15 17.05 M-29.4 15.9 Q-28.35 14.95 -27.2 14.95 L-30.95 17.35 -29.4 15.9 M-31.65 26.35 L-31.6 26.35 -31.5 26.4 -31.25 25.5 Q-30.65 23.75 -29.65 22.25 -28.0 19.6 -25.2 17.55 L-24.85 17.35 -25.1 16.1 Q-25.1 14.65 -23.7 14.45 -23.25 14.6 -22.9 14.85 L-22.3 15.75 Q-22.15 16.5 -22.4 16.85 L-22.2 17.65 Q-21.2 17.6 -20.5 18.7 -19.55 19.0 -18.85 19.55 L-19.7 20.75 -19.15 20.0 Q-18.5 20.1 -18.15 20.45 L-18.0 20.25 Q-16.7 20.3 -16.0 21.45 L-17.75 25.25 -20.0 30.45 Q-21.95 35.1 -20.05 40.25 -19.85 40.9 -20.35 40.95 -20.9 41.0 -21.25 41.2 -22.65 41.0 -23.5 39.95 L-23.85 38.3 Q-24.85 38.6 -25.55 37.5 L-25.75 37.1 -25.45 37.4 -25.35 37.5 Q-25.65 32.45 -23.75 28.0 -22.35 24.75 -20.4 21.75 L-20.85 21.6 -21.2 21.4 Q-24.3 21.3 -24.25 18.55 L-24.2 18.1 -23.5 17.9 -24.75 18.25 Q-26.65 19.75 -27.95 21.5 L-29.0 23.25 -29.1 23.45 -30.35 27.2 -30.4 27.5 -30.4 27.65 -30.5 28.15 -30.7 28.05 Q-31.4 27.85 -31.55 27.1 L-31.65 26.35 M-21.45 31.65 Q-20.45 28.6 -18.85 25.8 L-19.25 25.8 -19.9 25.35 Q-20.4 24.4 -20.15 23.45 -22.6 27.6 -23.7 32.3 L-24.0 34.0 Q-23.15 33.8 -22.15 34.0 L-21.85 32.95 -21.45 31.65 M-13.65 64.85 L-12.65 65.25 -9.45 66.45 -4.3 67.9 -1.6 68.45 0.5 68.45 6.4 67.4 12.25 66.2 12.75 66.1 Q9.95 67.85 6.95 68.9 L1.6 69.65 -4.0 69.5 Q-9.0 68.75 -12.85 65.55 L-13.25 65.2 -13.7 64.85 -13.65 64.85 M20.15 60.2 L19.55 59.05 Q18.25 59.0 16.7 59.7 11.1 62.3 5.15 63.65 0.0 64.8 -5.1 63.5 L-6.85 62.8 -8.9 61.7 Q-13.25 61.25 -17.0 58.85 -18.9 57.6 -20.1 55.7 L-22.1 52.2 -22.95 49.7 -22.95 49.65 Q-21.2 50.75 -19.6 52.1 -17.9 53.6 -16.35 55.35 -12.7 59.5 -7.5 60.95 -5.95 62.4 -3.7 62.5 L0.5 62.75 Q4.4 62.8 8.05 61.65 11.7 60.45 14.05 57.05 14.75 56.25 15.6 56.1 L17.3 55.45 20.65 52.15 Q22.25 50.45 24.25 49.65 25.6 50.55 25.95 52.25 26.3 53.9 26.95 55.45 23.4 57.45 20.15 60.2 M27.45 13.1 L27.9 12.8 28.35 12.85 28.25 12.9 28.2 12.9 27.8 12.95 27.4 13.1 27.45 13.1 M34.35 17.5 L35.05 18.9 35.1 19.05 35.15 19.15 Q35.2 20.65 34.1 21.6 L33.8 20.55 33.95 21.1 33.55 22.0 33.2 23.55 33.2 23.0 33.15 24.3 30.3 27.55 30.75 27.1 Q30.55 28.25 29.8 29.2 L28.85 29.35 28.85 29.75 28.8 30.0 27.3 31.65 Q27.35 33.05 25.85 33.95 L25.45 34.25 25.15 34.35 Q23.95 36.4 21.85 37.8 L21.55 35.1 21.55 34.95 Q20.45 28.1 17.0 22.3 L17.15 22.45 17.3 22.55 17.6 22.8 18.1 23.25 18.15 23.25 20.85 25.8 Q22.9 27.85 23.95 30.5 L24.4 31.9 24.5 31.85 Q24.15 31.45 24.2 30.8 24.2 29.75 24.8 29.0 23.75 25.05 21.05 21.8 L20.35 20.95 20.55 20.85 20.65 20.85 20.8 20.9 20.85 20.9 20.95 20.95 21.05 20.95 21.15 21.0 21.2 21.0 21.25 21.05 21.35 21.05 22.05 21.4 22.65 21.85 22.7 21.85 23.45 22.65 Q24.6 24.2 25.2 25.8 L25.85 27.95 26.3 27.25 Q26.85 26.35 27.7 25.95 L27.9 25.95 Q26.65 25.1 27.45 23.6 L27.4 23.5 24.75 20.0 Q24.7 19.5 24.0 19.1 L23.95 19.1 23.1 18.1 23.95 18.1 25.6 18.4 Q26.45 18.65 27.3 19.15 L29.45 20.8 Q30.55 21.75 30.75 22.9 28.6 20.05 25.5 19.05 27.2 20.8 28.4 22.85 29.85 22.4 31.0 23.15 L31.25 23.25 32.1 23.45 32.35 23.3 32.75 23.05 32.8 22.9 33.2 22.4 32.85 20.7 31.75 18.45 Q29.9 15.7 27.3 13.9 27.8 13.6 28.3 13.55 L29.4 13.75 Q31.9 16.0 33.15 18.7 L33.15 18.45 Q33.25 17.75 33.9 17.55 L34.1 17.25 34.2 17.25 34.35 17.5 M27.3 31.65 L26.9 31.85 27.0 31.95 27.3 31.65 M18.85 152.8 L18.85 151.9 19.7 151.85 22.35 151.75 23.25 151.65 26.05 151.3 26.25 151.25 Q26.75 151.1 26.7 150.6 L26.65 150.5 25.35 150.6 24.3 150.5 19.6 150.75 19.45 150.4 19.35 150.05 Q20.95 145.95 25.95 146.3 L30.6 146.15 30.9 146.55 Q32.2 148.05 32.1 150.25 L26.9 151.95 24.95 152.35 19.05 152.8 18.85 152.8 M-1.15 143.95 Q-1.6 144.9 -2.45 145.35 -3.35 143.3 -4.6 141.25 -2.3 140.8 -1.6 138.55 -0.15 141.15 -1.15 143.95 M-9.8 144.55 L-9.6 144.95 -7.95 149.3 Q-9.25 150.9 -10.7 151.95 L-12.2 152.85 -12.45 152.95 -12.6 153.0 -13.15 153.2 -16.95 153.75 -17.35 153.7 -17.4 152.9 -18.3 152.55 -19.6 152.2 -19.75 152.05 -23.95 151.6 -24.85 151.45 -25.7 151.2 -26.6 151.0 -26.9 150.95 -27.25 150.5 -27.15 150.1 -27.1 149.95 -26.9 149.8 -26.75 149.65 -24.05 150.05 -21.15 150.15 -18.2 150.55 -16.85 150.9 Q-16.25 149.6 -15.0 148.65 L-13.2 147.1 Q-11.6 145.45 -9.8 144.55" fill="#333333" fill-rule="evenodd" stroke="none"/>
    <path d="M24.55 67.85 L25.15 68.5 25.1 69.45 24.55 68.8 23.9 68.2 Q22.95 67.35 21.85 67.9 L22.65 68.85 22.85 69.05 23.5 69.75 23.95 70.3 23.05 77.2 23.0 77.05 Q22.9 75.8 21.75 75.1 L20.2 73.95 20.3 70.85 20.0 71.35 20.0 71.4 19.95 71.55 19.85 71.8 19.8 72.1 19.75 72.2 19.75 72.25 19.75 72.35 19.75 72.4 19.75 72.5 19.75 72.85 19.9 73.65 Q18.65 72.45 18.05 71.0 L18.3 70.65 Q17.5 71.8 15.95 71.4 L15.8 71.25 15.8 71.2 15.45 71.15 13.55 72.5 13.4 71.4 13.0 69.65 13.75 69.85 Q13.4 68.9 14.2 68.35 L15.8 70.75 Q15.45 68.65 14.3 66.85 15.05 65.95 15.8 65.9 16.4 68.7 17.3 71.35 L16.9 67.9 Q16.3 66.05 18.25 66.1 L19.3 69.85 19.2 68.55 Q18.9 65.95 18.25 63.55 19.3 62.35 20.5 61.6 L20.95 65.8 20.6 65.9 19.9 63.2 19.75 63.65 Q19.05 65.8 20.5 67.15 20.4 66.9 20.6 66.4 L20.65 66.35 20.75 66.15 21.25 66.2 Q21.6 65.2 21.6 63.7 21.55 62.2 23.35 62.9 23.9 64.0 23.5 65.35 23.05 64.9 22.6 65.15 L23.0 65.75 24.55 67.85 M-32.75 4.95 L-33.35 5.15 -30.7 5.7 -30.05 6.35 -29.8 6.45 -28.2 6.6 -27.25 7.4 Q-26.05 8.3 -26.6 9.45 L-27.05 11.25 -27.05 11.3 Q-29.2 11.4 -30.95 12.5 L-33.65 14.4 -34.5 15.1 -35.25 15.8 -35.35 15.95 -36.15 17.05 -36.6 17.5 Q-38.65 13.25 -37.5 8.45 L-36.35 7.0 -36.2 6.85 -35.8 6.5 Q-34.5 5.4 -32.75 4.95 M-35.1 19.5 Q-34.15 17.7 -32.75 16.05 -30.8 13.75 -28.0 12.85 L-24.75 13.7 Q-23.75 13.95 -23.0 14.75 L-22.9 14.85 Q-23.25 14.6 -23.7 14.45 -25.1 14.65 -25.1 16.1 L-24.85 17.35 -25.2 17.55 Q-28.0 19.6 -29.65 22.25 -30.65 23.75 -31.25 25.5 L-31.5 26.4 -31.6 26.35 -31.65 26.35 Q-33.2 25.65 -34.15 24.15 L-35.85 21.0 -35.1 19.5 M-29.4 15.9 L-30.95 17.35 -27.2 14.95 Q-28.35 14.95 -29.4 15.9 M-25.45 37.4 Q-28.95 34.05 -30.6 29.85 L-30.5 28.55 -30.5 28.3 -30.4 27.65 -30.4 27.5 -30.35 27.2 -29.1 23.45 -29.0 23.25 -27.95 21.5 Q-26.65 19.75 -24.75 18.25 L-23.5 17.9 -24.2 18.1 -24.25 18.55 Q-24.3 21.3 -21.2 21.4 L-20.85 21.6 -20.4 21.75 Q-22.35 24.75 -23.75 28.0 -25.65 32.45 -25.35 37.5 L-25.45 37.4 M-36.05 8.55 L-37.4 10.25 Q-37.35 12.85 -36.0 15.2 L-34.75 13.45 -35.1 12.25 -35.2 11.9 -35.75 8.45 -35.95 8.5 -36.05 8.55 M-33.35 18.5 L-33.6 18.5 Q-34.6 18.9 -34.6 20.0 -34.5 22.9 -32.4 24.8 L-31.0 22.45 -32.95 19.7 -33.35 18.5 M-28.9 26.45 L-29.05 26.65 -29.65 27.95 -30.05 28.75 Q-29.3 30.55 -27.45 30.8 L-27.15 30.4 Q-26.55 29.15 -27.1 27.9 L-28.7 26.2 -28.75 26.25 -28.9 26.45 M-21.85 32.95 L-22.15 34.0 Q-23.15 33.8 -24.0 34.0 L-23.7 32.3 Q-22.6 27.6 -20.15 23.45 -20.4 24.4 -19.9 25.35 L-19.25 25.8 -18.85 25.8 Q-20.45 28.6 -21.45 31.65 L-21.85 31.4 -22.25 31.5 -22.4 31.65 -22.5 31.85 -22.45 32.15 -22.35 32.7 -22.2 32.8 -21.85 32.95 M-13.65 64.85 Q-17.05 61.85 -19.65 58.1 -22.65 54.7 -26.3 52.4 L-24.6 48.65 -22.95 49.65 -22.95 49.7 -22.1 52.2 -20.1 55.7 Q-18.9 57.6 -17.0 58.85 -13.25 61.25 -8.9 61.7 L-6.85 62.8 -5.1 63.5 Q0.0 64.8 5.15 63.65 11.1 62.3 16.7 59.7 18.25 59.0 19.55 59.05 L20.15 60.2 19.95 60.35 13.1 65.9 12.75 66.1 12.25 66.2 6.4 67.4 0.5 68.45 -1.6 68.45 -4.3 67.9 -9.45 66.45 -12.65 65.25 -13.65 64.85 M-24.4 64.3 L-23.75 62.0 -23.6 61.15 -23.55 60.8 -24.0 61.6 -24.15 61.9 -24.95 64.8 Q-25.7 64.8 -26.3 64.3 L-26.5 64.15 -25.7 63.05 Q-24.15 61.25 -23.7 58.9 -22.7 59.15 -22.0 60.1 L-22.35 60.95 -22.6 61.75 -23.25 65.25 -23.6 64.5 -24.5 64.8 -24.4 64.3 M-27.15 63.9 Q-26.9 62.5 -27.85 61.4 -27.25 59.85 -25.9 58.55 L-25.6 60.95 Q-25.9 62.35 -26.55 63.8 L-26.75 63.85 -27.15 63.9 M-22.5 65.4 L-22.3 64.3 -22.2 63.55 -22.1 63.6 Q-21.55 63.9 -21.4 63.3 L-21.0 62.15 Q-20.35 62.25 -19.95 62.8 L-20.05 63.3 -20.1 63.55 -20.55 66.7 -21.1 66.25 -22.6 65.8 -22.5 65.4 M-19.65 66.6 L-19.6 66.2 Q-19.55 64.95 -19.1 63.85 L-19.0 63.65 -19.2 63.5 -19.65 63.1 -19.0 62.45 Q-18.25 62.75 -18.6 63.35 L-18.75 63.75 Q-18.8 64.0 -18.45 64.3 L-18.0 63.55 Q-17.45 63.55 -17.05 64.15 L-17.75 65.9 -17.85 66.15 -17.95 66.45 Q-18.35 67.7 -17.8 68.8 -17.65 67.45 -16.95 66.55 -15.15 67.55 -16.3 69.0 L-17.05 70.1 Q-18.05 69.6 -18.7 68.6 -19.3 67.65 -19.45 66.55 L-19.65 66.6 M-15.95 69.6 L-15.15 68.15 -15.0 67.9 Q-14.75 66.95 -13.95 67.0 -12.85 67.2 -13.3 67.95 -13.7 68.65 -13.6 69.4 L-12.45 67.9 -11.5 68.65 Q-12.15 69.45 -12.25 70.45 L-12.3 70.95 -12.3 71.45 -12.3 71.65 -12.25 72.6 -12.3 72.55 -12.45 72.15 -12.45 71.75 -12.45 71.6 -12.55 71.55 -12.55 71.05 -12.4 70.45 -15.95 69.6 M-11.6 73.7 L-11.0 70.65 -10.75 69.25 -9.75 69.65 -9.8 70.75 -9.75 72.75 -9.45 75.85 -8.55 70.45 -8.55 70.35 -8.5 69.85 -8.25 69.55 Q-7.6 69.55 -7.15 70.0 L-7.2 70.1 -7.3 70.55 Q-8.15 73.8 -7.35 76.85 L-7.3 77.05 -7.25 76.85 -6.55 73.45 -6.35 71.65 -6.3 71.15 Q-6.15 70.6 -5.7 70.2 L-5.65 70.15 Q-5.0 70.15 -4.9 70.75 L-5.05 71.25 Q-5.6 73.25 -5.35 74.95 -4.85 73.2 -4.5 71.3 L-4.5 71.15 Q-4.35 70.55 -3.75 70.6 -2.8 70.7 -3.25 71.3 L-3.35 71.45 Q-3.65 71.95 -3.55 72.45 -3.7 74.4 -3.45 76.1 L-3.25 77.35 -3.1 76.35 -2.9 76.35 -2.9 75.9 -3.0 75.95 -3.0 75.9 -2.35 71.5 -2.3 71.5 -0.95 71.8 -0.7 72.3 -0.4 71.9 0.65 72.0 0.8 72.0 2.15 72.05 2.2 72.05 6.8 71.35 Q7.25 71.75 7.4 72.45 7.55 73.05 8.15 73.0 8.1 71.45 7.4 70.15 7.8 69.7 8.5 69.85 L9.8 72.55 10.35 73.3 7.5 72.95 7.35 72.9 7.3 74.85 Q7.1 75.9 6.25 76.55 4.05 77.3 2.1 77.15 L2.15 76.25 Q2.15 77.6 1.45 78.8 L1.5 82.0 0.7 79.5 0.65 79.3 0.5 78.8 0.5 78.75 0.4 78.2 0.05 78.2 -0.5 80.45 Q-1.6 81.2 -1.5 82.7 -1.4 84.2 -2.2 85.3 -2.5 85.05 -2.45 84.65 L-2.95 84.65 -1.85 88.95 -1.8 88.95 -1.6 89.65 -0.8 91.65 -0.75 91.85 -0.55 92.25 -0.45 92.45 -0.35 92.7 0.4 92.5 0.35 92.35 0.35 92.2 0.85 92.75 0.9 92.75 0.75 93.3 0.35 95.65 0.3 96.2 0.25 96.8 0.25 97.05 0.25 97.2 0.8 95.9 1.15 96.05 Q0.95 96.7 1.9 97.0 L2.6 94.95 2.95 93.7 3.1 93.15 Q4.05 95.1 2.75 97.05 3.35 100.7 0.95 103.85 0.6 104.35 0.5 105.05 L0.25 107.05 -0.35 107.2 Q-1.65 107.6 -1.9 108.95 -2.25 110.6 -3.4 112.0 L-3.4 112.05 -3.75 111.95 Q-3.85 111.35 -3.3 110.75 -2.75 110.1 -3.0 109.5 L-5.35 113.35 -6.55 115.5 -6.4 115.7 -4.95 113.75 -4.6 113.25 Q-4.3 113.65 -4.15 114.15 L-4.1 114.3 Q-3.9 115.0 -4.0 115.8 -4.7 116.75 -5.65 117.3 -6.35 117.9 -7.1 117.6 -7.85 117.3 -8.35 118.05 L-8.7 118.3 -9.55 117.45 -9.6 117.4 -9.5 116.95 -9.2 114.3 -9.2 114.0 Q-9.2 112.9 -9.45 112.0 L-9.05 111.65 -8.4 111.05 Q-7.25 111.3 -6.25 111.9 -6.8 110.8 -6.85 109.5 -7.05 106.3 -6.2 103.45 L-6.2 103.35 -4.95 100.25 -3.5 97.85 -3.8 96.5 -3.9 95.1 Q-6.15 92.5 -7.4 89.25 -8.25 87.1 -6.85 85.15 L-7.1 81.55 Q-7.1 80.4 -6.75 79.35 L-8.85 77.25 -8.85 77.2 -8.9 77.25 -9.2 76.9 -9.15 76.3 -9.25 76.5 -9.35 76.75 -11.6 73.7 M10.4 73.3 L9.85 71.2 9.8 71.1 9.7 70.9 Q11.5 69.55 12.2 71.35 L12.3 71.6 12.6 72.3 12.9 72.8 10.4 73.3 M17.0 22.3 L16.15 20.95 Q16.85 20.3 18.0 20.35 19.15 20.35 19.15 19.45 21.8 17.85 22.95 14.85 25.0 14.25 27.05 13.25 L27.45 13.1 27.4 13.1 27.8 12.95 28.2 12.9 28.25 12.9 Q29.7 12.65 31.2 13.6 33.1 15.35 34.35 17.5 L34.2 17.25 34.1 17.25 33.9 17.55 Q33.25 17.75 33.15 18.45 L33.15 18.7 Q31.9 16.0 29.4 13.75 L28.3 13.55 Q27.8 13.6 27.3 13.9 29.9 15.7 31.75 18.45 L32.85 20.7 33.2 22.4 32.8 22.9 32.75 23.05 32.35 23.3 32.1 23.45 31.25 23.25 31.0 23.15 Q29.85 22.4 28.4 22.85 27.2 20.8 25.5 19.05 28.6 20.05 30.75 22.9 30.55 21.75 29.45 20.8 L27.3 19.15 Q26.45 18.65 25.6 18.4 L25.6 18.35 26.25 16.8 26.0 16.3 25.8 16.1 25.15 16.05 Q24.95 16.15 24.7 16.4 24.0 17.15 23.95 18.1 L23.1 18.1 23.95 19.1 23.6 18.9 22.9 18.95 Q21.05 19.25 20.3 20.7 20.1 21.05 20.4 21.35 L20.65 21.55 19.05 21.5 17.65 21.9 17.15 22.45 17.0 22.3 M22.7 21.85 L23.85 21.2 Q24.7 20.55 24.75 20.0 L27.4 23.5 27.45 23.6 Q26.65 25.1 27.9 25.95 L27.7 25.95 Q26.85 26.35 26.3 27.25 L25.85 27.95 25.2 25.8 Q24.6 24.2 23.45 22.65 L22.7 21.85 M21.05 21.8 Q23.75 25.05 24.8 29.0 24.2 29.75 24.2 30.8 24.15 31.45 24.5 31.85 L24.4 31.9 23.95 30.5 Q22.9 27.85 20.85 25.8 L18.15 23.25 20.85 23.0 Q21.5 22.45 21.0 21.75 L21.05 21.8 M27.3 31.65 L27.0 31.95 26.9 31.85 27.3 31.65 M22.15 105.85 L22.2 105.85 21.85 107.4 21.3 109.9 21.25 110.15 Q19.55 110.4 18.25 111.55 L17.0 112.55 16.4 113.0 Q15.35 111.0 16.85 108.85 L17.5 107.9 22.15 105.85 M17.0 112.6 Q18.5 111.45 20.3 111.7 L20.55 112.15 21.35 114.35 Q22.0 116.4 20.2 117.7 L19.0 118.55 Q18.4 119.2 17.5 119.05 L15.85 118.65 15.75 118.35 Q15.05 115.85 17.05 114.0 L16.4 113.1 17.0 112.6 M8.85 115.7 L8.7 117.75 Q8.4 119.0 7.15 118.75 4.05 118.05 4.75 114.65 5.1 112.95 6.7 112.9 7.65 113.4 8.2 114.1 L8.15 114.35 Q8.1 115.4 8.85 115.7 M18.85 148.0 L18.8 147.4 Q17.9 146.15 16.3 145.8 L15.85 145.75 15.75 145.75 15.45 145.8 Q15.0 145.8 14.65 146.15 14.35 146.4 14.55 146.8 15.2 148.2 16.75 148.55 L17.4 148.7 Q18.5 149.05 18.85 148.0 M30.6 146.15 L25.95 146.3 Q20.95 145.95 19.35 150.05 L19.45 150.4 19.6 150.75 24.3 150.5 25.35 150.6 26.65 150.5 26.7 150.6 Q26.75 151.1 26.25 151.25 L26.05 151.3 23.25 151.65 22.35 151.75 19.7 151.85 18.85 151.9 18.85 152.8 15.65 152.65 13.45 151.95 12.25 151.35 Q11.5 149.8 12.4 148.3 L14.05 145.3 Q15.95 143.5 18.6 142.95 L23.8 141.8 26.3 142.4 Q27.6 142.35 28.55 143.3 L30.6 146.15 M5.6 141.4 Q6.85 141.95 6.7 143.35 6.25 145.3 4.7 144.95 L2.05 144.1 Q2.6 141.95 3.7 139.9 L5.6 141.4 M-3.4 88.0 Q-3.75 89.05 -3.2 90.25 -2.25 93.6 -0.2 96.15 L-3.4 88.0 M-10.0 112.7 L-10.05 113.7 -9.95 115.8 -9.8 117.05 -9.85 117.05 Q-11.45 114.7 -10.0 112.7 M-6.25 111.9 Q-7.6 113.1 -7.15 115.0 L-6.25 111.95 -6.2 111.8 -6.25 111.9 M-17.35 153.7 L-17.75 153.7 Q-20.85 152.45 -24.15 152.5 -25.8 152.55 -27.2 151.95 -28.7 151.35 -29.9 150.05 -29.75 146.3 -26.55 144.25 -25.5 141.55 -23.55 139.4 L-18.0 140.25 Q-15.25 140.45 -12.6 141.35 -10.75 142.65 -9.8 144.55 -11.6 145.45 -13.2 147.1 L-15.0 148.65 Q-16.25 149.6 -16.85 150.9 L-18.2 150.55 -21.15 150.15 -24.05 150.05 -26.75 149.65 -26.9 149.8 -27.1 149.95 -27.15 150.1 -27.25 150.5 -26.9 150.95 -26.6 151.0 -25.7 151.2 -24.85 151.45 -23.95 151.6 -19.75 152.05 -19.6 152.2 -18.3 152.55 -17.4 152.9 -17.35 153.7 M-23.1 141.1 Q-23.95 141.15 -24.4 141.85 L-24.95 142.75 -26.0 144.7 -26.35 145.0 Q-27.5 145.5 -27.6 146.75 -27.85 147.0 -27.75 147.3 -27.5 148.25 -26.7 147.55 L-24.9 146.85 -24.3 146.3 -23.4 144.65 -22.1 142.1 Q-21.7 141.15 -22.6 140.8 L-22.8 140.85 -23.1 141.1" fill="#666633" fill-rule="evenodd" stroke="none"/>
    <path d="M-23.7 -0.9 L-23.7 -0.35 -23.95 -0.55 -23.7 -0.9 M-21.7 6.15 L-21.65 6.3 -22.0 6.2 -21.7 6.15 M-22.95 1.7 L-22.95 2.15 -23.15 1.95 -22.95 1.7 M23.9 43.7 L24.35 42.95 24.4 43.65 23.9 43.7 M-17.05 120.05 L-17.05 119.8 -16.95 119.8 -17.05 120.05" fill="#ffffff" fill-rule="evenodd" stroke="none"/>
    <path d="M24.75 63.3 L25.0 64.35 25.15 66.95 25.05 67.0 Q24.1 65.6 24.7 63.6 L24.75 63.3 M24.85 72.6 L24.9 73.15 24.55 77.2 24.45 78.5 24.25 75.55 Q23.95 73.15 24.1 70.6 L24.7 71.05 24.85 72.6 M24.35 80.55 L24.3 81.7 24.3 82.35 23.85 81.8 23.8 81.6 Q23.75 81.1 24.35 80.55 M23.7 83.15 L24.3 83.7 24.35 83.7 24.45 85.6 Q23.0 83.9 21.1 82.95 L20.95 83.55 24.55 86.7 24.75 88.45 24.05 87.85 21.45 85.75 21.1 86.1 24.95 89.9 25.0 90.3 25.35 93.75 Q24.85 90.95 22.55 88.8 22.45 90.6 23.65 92.45 24.55 93.55 24.15 94.85 23.7 96.15 24.25 97.4 L22.15 105.85 17.5 107.9 16.85 108.85 Q15.35 111.0 16.4 113.0 L15.95 113.35 15.6 113.0 15.5 112.85 15.55 111.85 15.55 111.8 15.5 111.85 15.3 112.25 15.3 112.3 Q14.05 114.5 13.3 116.5 14.15 116.05 14.5 115.1 15.2 114.2 16.05 113.45 L16.4 113.1 17.05 114.0 Q15.05 115.85 15.75 118.35 L15.85 118.65 11.55 118.9 5.75 118.75 Q4.35 117.65 4.35 115.8 L4.45 112.9 4.5 112.6 4.55 112.3 7.1 112.75 Q7.75 112.75 8.05 113.2 L8.2 114.1 Q7.65 113.4 6.7 112.9 5.1 112.95 4.75 114.65 4.05 118.05 7.15 118.75 8.4 119.0 8.7 117.75 L8.85 115.7 9.05 115.75 9.35 115.1 9.95 115.45 10.05 115.15 10.6 112.9 11.0 113.2 11.35 113.3 11.1 111.9 13.25 112.15 11.5 115.4 11.95 114.85 13.3 112.7 13.5 112.2 13.9 112.25 14.9 112.05 Q14.2 110.5 14.7 108.9 15.1 107.75 16.05 107.0 L16.95 106.75 18.35 106.45 Q19.1 100.5 19.2 94.4 19.25 90.8 19.75 87.25 20.05 85.0 20.8 82.95 18.2 78.75 16.6 74.3 L16.55 74.1 15.55 74.2 15.35 73.65 15.15 73.1 15.1 73.0 15.05 72.9 15.15 74.25 Q11.0 74.7 7.5 76.95 L6.85 77.75 4.55 81.55 Q5.2 82.5 5.55 83.8 L6.05 86.35 Q6.3 88.75 6.0 91.05 L5.1 94.6 3.85 97.4 Q3.25 98.45 2.95 99.5 L2.7 100.6 Q2.35 102.75 3.2 105.0 4.95 107.5 5.9 110.25 L5.95 110.35 Q6.3 111.4 7.1 111.8 L7.05 111.5 8.1 111.55 8.3 111.6 Q8.1 111.9 8.05 112.3 L7.6 112.2 5.45 111.85 4.5 111.9 3.8 112.0 3.0 111.2 3.35 110.85 1.35 108.15 1.05 107.7 0.55 107.0 0.25 107.05 0.5 105.05 Q0.6 104.35 0.95 103.85 3.35 100.7 2.75 97.05 4.05 95.1 3.1 93.15 L2.95 93.7 3.6 90.55 Q3.5 89.25 3.75 87.95 4.0 86.7 3.7 85.6 L3.45 86.05 2.95 85.75 2.2 83.9 1.5 82.0 1.45 78.8 Q2.15 77.6 2.15 76.25 L2.1 77.15 Q4.05 77.3 6.25 76.55 7.1 75.9 7.3 74.85 L7.35 72.9 7.5 72.95 10.35 73.3 10.45 73.45 10.4 73.3 12.9 72.8 13.25 73.3 13.75 73.75 13.7 73.55 13.55 72.5 15.45 71.15 15.8 71.2 15.8 71.25 15.95 71.4 Q17.5 71.8 18.3 70.65 L18.05 71.0 Q18.65 72.45 19.9 73.65 L20.2 74.3 20.2 73.95 21.75 75.1 Q22.9 75.8 23.0 77.05 L23.05 77.2 22.45 80.5 Q22.0 80.65 21.85 80.3 21.6 80.0 21.25 80.05 L21.45 80.4 23.7 83.15 M-24.65 108.3 L-25.3 105.7 -24.6 103.95 Q-24.85 102.65 -24.4 101.5 L-24.4 101.4 -24.05 100.25 -24.0 100.0 -23.65 100.5 -23.95 103.45 -23.5 100.8 Q-22.95 102.1 -23.15 103.65 L-23.2 103.9 -22.8 104.65 -22.45 105.15 -22.4 105.15 -22.15 105.55 -22.1 105.0 -22.05 104.95 -21.9 104.9 -21.0 105.0 -20.3 106.2 -20.5 108.05 -20.1 108.45 -20.2 108.95 Q-20.3 109.3 -20.0 109.55 -18.55 111.1 -18.35 112.7 L-18.8 112.9 -19.25 113.1 -19.3 113.1 -19.4 112.95 -19.55 112.65 -20.25 112.05 Q-21.55 109.7 -23.7 108.3 L-23.7 108.15 -23.25 102.9 Q-24.0 105.45 -24.15 108.1 L-24.2 108.65 -24.5 108.6 -24.65 108.3 M-27.25 77.75 L-27.6 75.7 -27.25 74.45 -27.6 75.55 -27.95 72.8 -25.2 70.3 Q-26.05 70.15 -26.45 70.75 -26.8 71.3 -27.45 71.65 L-27.6 67.3 -27.5 66.75 -27.4 66.25 -27.1 65.35 -26.5 64.15 -26.3 64.3 Q-25.7 64.8 -24.95 64.8 L-25.55 66.85 -25.55 68.15 -25.15 67.05 -24.4 64.3 -24.5 64.8 -23.6 64.5 -23.25 65.25 -23.8 68.2 -23.85 69.1 -24.0 69.55 -22.8 68.05 Q-22.75 69.4 -23.35 70.8 L-23.7 71.55 -23.65 73.05 -23.8 73.4 -24.95 76.35 -25.05 76.95 -25.2 78.05 -25.15 79.1 -24.05 76.5 -23.4 75.15 -22.8 77.7 -21.7 80.75 Q-21.2 81.85 -21.3 83.05 L-21.75 86.7 Q-21.2 86.85 -20.75 87.15 L-20.8 87.5 -20.25 88.55 -20.25 87.5 Q-18.25 88.95 -17.7 92.15 -17.5 93.55 -18.4 94.7 L-18.4 95.0 -18.6 95.85 -18.95 96.4 -19.0 96.7 -19.05 97.25 -19.15 97.85 -19.45 98.05 Q-20.3 98.55 -20.9 97.7 L-21.05 97.45 -22.3 96.4 -21.1 93.2 -20.4 91.8 -20.45 91.8 -21.2 92.65 -21.55 92.3 -21.6 92.3 -21.9 92.8 -22.05 92.9 -22.15 92.9 -22.9 95.8 -23.4 95.25 Q-23.85 96.65 -24.65 98.0 L-24.9 99.0 -24.25 99.65 -25.05 100.75 Q-26.95 96.8 -26.1 92.2 L-25.85 91.85 Q-24.15 89.3 -23.8 86.25 L-23.75 85.15 -24.05 86.2 -24.3 86.65 -24.35 86.35 -24.65 84.65 -24.5 83.65 -24.95 83.1 -25.0 83.1 -25.15 82.15 -25.8 79.3 -26.55 78.95 Q-25.35 76.2 -24.5 73.25 -26.2 75.4 -27.2 77.8 L-27.25 77.75 M-26.55 63.8 L-26.75 64.25 -27.2 64.25 -27.15 63.9 -26.75 63.85 -26.55 63.8 M-22.5 65.4 L-22.6 65.8 -21.1 66.25 -20.55 66.7 -20.6 66.9 Q-21.5 67.15 -22.5 67.7 L-21.35 66.3 -22.1 66.1 -22.2 66.3 -23.3 67.9 -23.1 67.45 -22.9 66.8 -22.9 66.85 -22.5 65.4 M-16.4 70.4 L-15.95 69.6 -12.4 70.45 -12.55 71.05 -12.55 71.55 -16.1 70.45 -16.4 70.4 M-12.25 72.6 L-12.25 74.5 -11.8 74.95 -11.6 73.7 -9.35 76.75 -9.25 76.5 -9.35 76.75 -9.55 77.6 Q-11.85 78.65 -12.2 76.15 L-12.45 73.75 -12.45 72.15 -12.3 72.55 -12.25 72.6 M-16.25 113.65 L-15.25 113.6 -15.15 113.6 -14.85 114.0 -13.75 114.85 -13.55 114.95 -13.9 113.9 -14.05 113.5 -14.0 113.5 Q-13.55 112.2 -12.6 111.65 L-12.5 111.8 -12.25 111.5 Q-12.5 113.15 -12.05 114.7 L-10.95 118.4 -11.3 118.5 -13.75 118.8 -17.55 118.4 Q-19.45 118.15 -20.7 116.75 -21.0 115.55 -20.4 115.05 L-20.2 115.15 -20.25 114.9 -19.95 114.75 -19.8 114.7 -19.4 114.65 -19.35 114.65 -19.2 114.6 -17.25 114.25 -16.2 113.9 -16.2 113.85 -16.25 113.7 -16.25 113.65 M-11.45 111.2 L-9.85 110.85 -9.4 110.8 -6.2 103.35 -6.2 103.45 Q-7.05 106.3 -6.85 109.5 -6.8 110.8 -6.25 111.9 -7.25 111.3 -8.4 111.05 L-9.05 111.65 -9.45 112.0 -9.85 110.85 -10.0 112.7 Q-11.45 114.7 -9.85 117.05 L-9.7 117.75 -9.5 116.95 -9.6 117.4 -9.55 117.45 -8.7 118.3 -10.55 118.45 -10.6 118.45 -10.95 118.25 Q-10.9 114.7 -11.45 111.2 M-4.95 100.25 L-4.8 99.8 Q-3.95 97.65 -5.05 95.85 -5.3 95.35 -5.85 95.0 L-7.65 93.6 -7.45 91.75 -7.7 91.75 -8.2 93.05 -8.7 92.5 -8.7 92.3 -8.65 92.1 -8.7 92.1 -9.0 92.15 -9.6 91.25 -9.45 90.8 -9.3 90.3 -9.2 90.15 -9.7 90.15 -9.85 90.4 -9.95 90.65 -10.8 88.55 -10.75 88.4 -10.8 88.5 -11.2 85.9 -11.0 84.75 Q-10.05 82.6 -9.5 80.4 L-8.85 77.2 -8.85 77.25 -6.75 79.35 Q-7.1 80.4 -7.1 81.55 L-6.85 85.15 Q-8.25 87.1 -7.4 89.25 -6.15 92.5 -3.9 95.1 L-3.8 96.5 -3.5 97.85 -4.95 100.25 M-22.8 77.7 L-24.1 80.45 -24.15 80.9 Q-24.25 82.15 -23.4 82.65 L-23.0 78.55 -22.8 77.7 M-9.2 76.9 L-8.9 77.25 -9.2 77.4 -9.25 77.45 -9.2 76.9 M9.2 111.95 L9.25 111.65 9.7 111.7 9.7 112.5 9.15 112.35 9.15 112.25 9.2 111.95 M16.35 71.5 Q16.0 72.4 16.45 73.2 L16.8 73.85 16.85 73.9 16.9 74.0 17.1 74.35 17.1 74.4 17.05 74.2 16.85 73.35 16.7 72.85 16.6 72.35 16.45 71.5 16.35 71.5 M24.55 68.8 L25.1 69.45 24.55 68.8 M12.4 91.65 L12.75 94.55 12.6 94.2 12.25 94.45 12.5 95.1 12.55 95.25 13.0 96.9 12.95 97.35 12.6 97.8 12.2 97.7 12.15 98.0 12.2 98.0 12.8 98.25 12.8 98.15 13.2 97.75 13.5 97.8 13.6 98.1 13.6 97.85 13.8 97.95 14.1 97.25 14.15 97.2 14.0 96.7 13.65 95.0 13.75 95.25 Q14.95 95.8 15.65 96.5 L15.6 97.6 Q15.95 97.65 16.2 97.3 L16.2 97.25 Q17.1 98.8 15.75 101.0 14.7 102.75 12.55 102.15 7.45 100.65 6.45 95.1 6.0 92.7 6.75 90.65 6.5 91.6 6.8 92.7 L6.8 92.8 Q7.1 94.2 8.3 94.3 L8.3 93.85 8.05 93.15 7.55 91.65 7.85 91.8 7.95 92.35 8.0 90.4 8.15 88.8 8.55 88.7 Q8.65 90.5 9.05 92.35 8.7 93.35 8.8 94.25 8.8 95.1 9.2 95.95 9.15 95.45 9.35 95.05 L10.1 97.75 10.4 97.65 10.35 95.6 10.4 95.6 10.55 96.05 10.8 96.6 10.95 96.4 11.4 96.55 11.35 96.2 11.35 95.4 11.45 95.95 11.65 96.6 11.7 96.85 11.8 97.2 11.85 97.35 12.1 97.35 12.1 96.9 11.85 94.55 11.85 94.5 11.55 91.4 11.45 90.3 12.4 91.65 M9.55 88.9 L9.6 88.95 Q10.3 89.25 10.9 89.75 L10.85 90.55 10.85 89.95 10.75 89.95 10.2 89.95 9.6 88.95 9.55 89.1 9.55 88.9 M-25.0 98.0 L-24.9 98.3 -24.7 96.9 -24.4 95.35 Q-25.35 96.5 -25.0 98.0" fill="#7b7b53" fill-rule="evenodd" stroke="none"/>
    <path d="M25.15 66.95 L25.15 67.15 25.05 67.0 25.15 66.95 M25.25 97.75 Q24.85 101.15 23.7 104.45 L22.35 108.4 22.3 108.35 Q23.65 103.1 25.25 97.75 M21.75 110.3 L21.55 110.95 21.35 110.6 21.75 110.3 M3.0 111.2 L2.6 110.7 3.15 110.85 3.3 110.85 3.35 110.85 3.0 111.2 M-24.2 110.1 L-24.6 108.6 -24.5 108.6 -24.2 108.65 -24.2 110.1 M-27.2 77.85 L-27.25 77.75 -27.2 77.8 -27.2 77.85 M-28.25 66.95 L-28.2 65.65 -28.2 65.45 -27.9 64.9 Q-27.9 65.95 -28.25 66.95 M20.95 65.8 L20.7 66.0 20.65 66.1 20.6 65.9 20.95 65.8 M24.3 82.35 L24.3 82.4 24.3 82.35 M4.55 112.3 L4.5 112.6 4.5 112.3 4.55 112.3" fill="#cccc00" fill-rule="evenodd" stroke="none"/>
    <path d="M-23.3 67.9 L-22.2 66.3 -22.1 66.1 -21.35 66.3 -22.5 67.7 -22.8 68.05 -24.0 69.55 -23.85 69.1 -23.3 67.9 M-23.65 73.05 Q-22.4 70.4 -20.8 67.95 L-21.15 68.9 -21.2 69.05 -20.15 69.15 -20.4 69.55 -23.4 75.15 -24.05 76.5 -25.15 79.1 -25.2 78.05 -25.05 76.95 -24.95 76.35 -23.8 73.4 -23.65 73.05 M-22.8 77.7 L-22.8 77.65 -22.8 77.7 -23.0 78.55 -23.4 82.65 Q-24.25 82.15 -24.15 80.9 L-24.1 80.45 -22.8 77.7 M-20.75 87.15 L-20.15 84.35 -20.2 85.55 -20.25 87.5 -20.25 88.55 -20.8 87.5 -20.75 87.15 M-22.3 96.4 L-22.75 97.8 -23.5 100.8 -23.95 103.45 -23.65 100.5 -23.4 98.4 -22.9 95.8 -22.15 92.9 -22.05 92.9 -21.9 92.8 -21.6 92.3 -21.55 92.3 -21.2 92.65 -20.45 91.8 -20.4 91.8 -21.1 93.2 -22.3 96.4 M-22.4 105.15 L-22.45 105.05 Q-22.45 102.2 -21.6 99.55 L-22.05 104.05 -22.1 105.0 -22.15 105.55 -22.4 105.15 M-20.3 106.2 L-20.1 104.1 -19.2 98.55 -19.3 102.85 Q-19.25 105.8 -18.7 108.7 -19.4 108.95 -20.1 108.45 L-20.5 108.05 -20.3 106.2 M-16.1 110.3 L-16.85 104.7 Q-17.2 101.85 -16.8 99.1 L-16.7 99.95 -15.55 107.3 Q-15.0 109.85 -14.0 112.25 L-14.6 112.0 -15.4 111.4 -16.05 110.7 -16.1 110.3 M-12.6 111.65 Q-13.55 109.55 -14.05 107.25 L-15.25 99.9 -15.4 98.45 -15.15 99.85 Q-14.65 102.65 -13.75 105.45 L-13.45 107.6 -12.5 109.7 Q-12.1 110.25 -12.05 110.75 L-12.25 111.5 -12.5 111.8 -12.6 111.65 M-18.6 72.35 L-19.75 74.7 -21.75 80.55 Q-21.65 78.7 -21.2 76.85 -20.4 73.8 -19.0 71.0 -18.8 71.25 -18.75 71.65 L-18.8 72.25 -18.6 72.35 M-17.3 78.8 L-17.25 79.6 -17.2 79.65 -18.7 84.75 -18.35 81.9 Q-18.05 79.85 -17.4 77.9 L-17.3 78.8 M5.9 110.25 Q5.35 108.5 5.1 106.75 L5.2 106.3 6.65 102.1 7.1 102.05 Q6.6 105.6 6.8 109.2 L7.05 111.5 7.1 111.8 Q6.3 111.4 5.95 110.35 L5.9 110.25 M9.7 111.7 L9.7 111.15 10.2 105.25 10.35 105.4 10.55 107.65 11.1 111.9 11.35 113.3 11.0 113.2 10.6 112.9 10.4 112.5 9.7 112.8 9.7 112.5 9.7 111.7 M11.35 77.4 L9.8 81.4 9.45 82.5 9.2 80.5 10.2 77.95 10.25 77.85 10.8 77.35 11.35 77.4 M12.4 91.65 Q12.2 89.5 12.3 87.4 12.4 84.55 13.05 81.85 L13.1 82.05 13.05 82.15 12.9 83.75 12.85 84.0 12.9 84.05 Q12.7 86.7 12.9 89.35 13.1 92.2 13.65 95.0 L14.0 96.7 14.15 97.2 14.1 97.25 13.8 97.95 13.6 97.85 13.5 97.8 13.2 97.75 12.8 98.15 12.8 98.25 12.2 98.0 12.15 98.0 12.2 97.7 12.6 97.8 12.95 97.35 13.0 96.9 12.8 94.75 12.75 94.55 12.4 91.65 M7.15 89.7 L7.4 88.25 8.25 84.3 8.5 85.25 8.6 85.65 8.65 85.75 8.45 86.65 8.15 88.8 8.0 90.4 7.95 92.35 7.85 91.8 7.55 91.65 6.95 91.1 7.15 89.75 7.15 89.7 M10.15 85.45 Q10.7 82.8 11.7 80.3 L12.15 79.2 11.75 80.65 Q10.9 84.3 10.8 88.0 L10.15 85.45 M10.35 95.6 L9.65 95.45 9.55 94.8 Q9.3 91.95 9.55 89.1 L9.6 88.95 10.2 89.95 10.75 89.95 10.85 89.95 10.85 90.55 11.3 95.2 11.35 95.4 11.35 96.2 11.4 96.55 10.95 96.4 10.8 96.6 10.55 96.05 10.4 95.6 10.35 95.6 M14.4 89.75 L14.35 86.1 14.45 86.7 14.4 89.75 M5.05 101.95 L5.1 101.75 5.3 101.4 5.05 101.95 M8.9 102.95 L9.05 103.15 Q8.5 106.3 8.3 109.55 8.0 106.2 8.55 102.9 L8.6 102.65 8.9 102.95 M12.7 109.8 L12.65 110.95 12.4 108.35 12.7 109.8 M-16.1 89.65 L-15.95 88.2 -15.95 89.2 -16.1 89.65 M-25.0 98.0 Q-25.35 96.5 -24.4 95.35 L-24.7 96.9 -24.9 98.3 -25.0 98.0" fill="#b3b38c" fill-rule="evenodd" stroke="none"/>
    <path d="M24.45 85.6 L24.6 85.8 27.6 89.75 24.55 86.7 20.95 83.55 21.1 82.95 Q23.0 83.9 24.45 85.6 M24.75 88.45 Q25.55 89.3 25.8 90.6 L25.2 90.1 24.95 89.9 21.1 86.1 21.45 85.75 24.05 87.85 24.75 88.45 M-3.1 76.35 L-3.1 76.3 -3.0 76.0 -3.0 75.95 -2.9 75.9 -2.9 76.35 -3.1 76.35 M20.7 66.0 L20.75 66.15 20.65 66.35 20.6 66.4 Q20.4 66.9 20.5 67.15 19.05 65.8 19.75 63.65 L19.9 63.2 20.6 65.9 20.65 66.1 20.7 66.0 M-18.8 112.9 L-16.75 112.35 -16.25 113.65 -16.25 113.7 -16.2 113.85 -16.2 113.9 -17.25 114.25 -19.2 114.6 -19.35 114.65 -19.4 114.65 -19.8 114.7 -19.85 114.65 -19.85 113.35 -19.55 112.65 -19.4 112.95 -19.3 113.1 -19.25 113.1 -18.8 112.9 M-14.85 114.0 L-15.2 113.55 -15.55 113.05 -15.65 112.9 -16.45 111.4 -16.9 110.25 -16.1 110.3 -16.05 110.7 -15.4 111.4 -14.6 112.0 -13.9 113.9 -13.55 114.95 -13.75 114.85 -14.85 114.0 M-12.05 110.75 L-11.5 110.85 -11.45 111.2 Q-10.9 114.7 -10.95 118.25 L-10.6 118.45 -10.55 118.45 -10.35 118.55 -10.5 118.6 -11.3 118.5 -10.95 118.4 -12.05 114.7 Q-12.5 113.15 -12.25 111.5 L-12.05 110.75 M-7.65 93.6 L-7.8 96.5 -7.85 97.5 -7.8 98.15 Q-7.95 100.15 -8.8 101.95 L-8.75 96.75 -8.75 96.45 -8.6 94.8 -8.55 94.55 -8.5 94.2 -8.2 93.05 -7.7 91.75 -7.45 91.75 -7.65 93.6 M-8.7 92.5 L-9.0 94.1 Q-9.65 97.6 -10.7 101.0 L-10.6 97.95 -10.6 97.05 Q-11.0 97.35 -11.05 97.95 -11.15 98.5 -11.8 98.55 -11.25 96.5 -11.0 94.25 L-10.85 93.3 -10.15 91.15 -9.85 90.4 -9.7 90.15 -9.2 90.15 -9.3 90.3 -9.45 90.8 Q-9.8 91.75 -9.7 92.75 -9.45 92.2 -9.0 92.15 L-8.7 92.1 -8.65 92.1 -8.7 92.3 -8.7 92.5 M-10.8 88.55 Q-11.15 92.65 -12.6 96.75 -12.05 92.45 -10.75 88.4 L-10.8 88.55 M-9.5 80.4 Q-9.8 78.9 -9.55 77.6 L-9.35 76.75 -9.25 76.5 -9.15 76.3 -9.2 76.9 -9.25 77.45 -9.5 80.4 M8.3 111.6 L9.05 110.8 9.2 111.95 9.15 112.25 9.15 112.35 9.7 112.5 9.7 112.8 10.4 112.5 10.6 112.9 10.05 115.15 9.95 115.45 9.35 115.1 9.05 115.75 8.85 115.7 Q8.1 115.4 8.15 114.35 L8.2 114.1 8.05 113.2 Q7.75 112.75 7.1 112.75 L4.55 112.3 4.5 112.3 4.5 112.6 4.45 112.9 4.45 112.75 4.5 111.9 5.45 111.85 7.6 112.2 8.05 112.3 Q8.1 111.9 8.3 111.6 M13.25 112.15 L13.9 111.0 13.3 112.7 11.95 114.85 11.5 115.4 13.25 112.15 M15.35 73.65 Q15.9 75.15 16.0 77.0 15.3 75.6 15.15 74.25 L15.05 72.9 15.1 73.0 15.15 73.1 15.35 73.65 M16.9 74.0 L16.85 73.9 16.8 73.85 16.45 73.2 Q16.0 72.4 16.35 71.5 L16.7 72.85 16.85 73.35 17.05 74.2 17.05 74.25 16.9 74.0 M19.9 73.65 L19.75 72.85 19.75 72.5 19.75 72.4 19.75 72.35 19.75 72.25 19.75 72.2 19.8 72.1 19.85 71.8 19.95 71.55 20.0 71.4 20.0 71.35 20.3 70.85 20.2 73.95 20.2 74.3 19.9 73.65 M17.0 112.55 L17.0 112.6 16.4 113.1 16.05 113.45 Q15.2 114.2 14.5 115.1 14.15 116.05 13.3 116.5 14.05 114.5 15.3 112.3 L15.3 112.25 15.5 111.85 15.55 111.85 15.5 112.85 15.6 113.0 15.95 113.35 16.4 113.0 17.0 112.55 M12.75 94.55 L12.8 94.75 13.0 96.9 12.55 95.25 12.5 95.1 12.25 94.45 12.6 94.2 12.75 94.55 M13.5 97.8 L13.6 97.85 13.6 98.1 13.5 97.8 M15.65 96.5 L16.05 95.15 Q16.65 96.0 16.2 97.3 15.95 97.65 15.6 97.6 L15.65 96.5 M6.75 90.65 L7.15 89.65 7.15 89.7 7.15 89.75 6.95 91.1 7.55 91.65 8.05 93.15 8.3 93.85 8.3 94.3 Q7.1 94.2 6.8 92.8 L6.8 92.7 Q6.5 91.6 6.75 90.65 M8.5 85.25 L8.8 82.4 9.05 82.4 Q9.05 85.65 9.55 88.9 L9.55 89.1 Q9.3 91.95 9.55 94.8 L9.65 95.45 10.35 95.6 10.4 97.65 10.1 97.75 9.35 95.05 Q9.15 95.45 9.2 95.95 8.8 95.1 8.8 94.25 8.7 93.35 9.05 92.35 8.65 90.5 8.55 88.7 L8.45 86.65 8.65 85.75 8.6 85.65 8.5 85.25 M10.85 90.55 L10.9 89.5 11.35 89.5 11.45 90.3 11.55 91.4 11.85 94.5 11.85 94.55 12.1 96.9 12.1 97.35 11.85 97.35 11.8 97.2 11.7 96.85 11.65 96.6 11.45 95.95 11.35 95.4 11.3 95.2 10.85 90.55 M-3.4 88.0 L-0.2 96.15 Q-2.25 93.6 -3.2 90.25 -3.75 89.05 -3.4 88.0 M-6.2 95.65 L-6.0 95.65 -5.95 95.65 -5.95 95.85 -5.9 96.75 -5.65 99.6 Q-5.45 101.6 -6.4 103.3 -7.2 99.5 -6.2 95.65 M-24.15 108.1 Q-24.0 105.45 -23.25 102.9 L-23.7 108.15 -24.15 108.1 M-4.15 114.15 Q-4.3 113.65 -4.6 113.25 L-4.95 113.75 -6.4 115.7 -6.55 115.5 -5.35 113.35 -3.0 109.5 Q-2.75 110.1 -3.3 110.75 -3.85 111.35 -3.75 111.95 L-3.75 112.05 -3.4 112.05 -3.4 112.0 -3.25 111.85 -3.55 112.65 -3.95 113.65 -4.15 114.15 M-9.45 112.0 Q-9.2 112.9 -9.2 114.0 L-9.2 114.3 -9.5 116.95 -9.7 117.75 -9.85 117.05 -9.8 117.05 -9.95 115.8 -10.05 113.7 -10.0 112.7 -9.85 110.85 -9.45 112.0 M-6.25 111.9 L-6.2 111.8 -6.25 111.95 -7.15 115.0 Q-7.6 113.1 -6.25 111.9" fill="#43432e" fill-rule="evenodd" stroke="none"/>
    <path d="M13.4 120.2 L16.15 119.9 17.55 120.05 17.7 122.75 Q17.75 124.2 16.05 124.3 L15.9 124.3 14.55 124.6 13.3 124.7 13.3 124.65 Q13.0 123.2 13.15 121.65 L13.4 120.2 M-10.2 120.2 L-9.9 120.1 Q-8.8 119.65 -7.9 118.85 -7.25 118.85 -6.65 118.4 -6.1 117.95 -5.65 118.75 L-5.65 119.9 Q-5.2 121.15 -6.0 122.05 L-7.7 123.55 -9.0 124.1 -10.2 120.2" fill="#6666ff" fill-rule="evenodd" stroke="none"/>
    <path d="M11.2 124.4 L10.0 123.95 8.95 123.35 8.65 123.1 8.5 123.05 8.5 120.65 11.3 120.4 11.95 120.35 12.05 121.15 12.0 122.45 Q11.75 123.75 11.2 124.4 M-15.3 122.55 L-16.3 121.85 Q-17.45 121.2 -17.05 120.05 L-16.95 119.8 -15.15 120.4 Q-14.55 121.25 -15.3 122.55" fill="#99ccff" fill-rule="evenodd" stroke="none"/>
    <path d="M13.3 124.65 L11.2 124.4 Q11.75 123.75 12.0 122.45 L12.05 121.15 11.95 120.35 11.3 120.4 13.4 120.2 13.15 121.65 Q13.0 123.2 13.3 124.65 M-15.15 120.4 L-12.3 120.65 -10.2 120.2 -9.0 124.1 -12.2 124.0 -15.3 122.55 Q-14.55 121.25 -15.15 120.4" fill="#9999ff" fill-rule="evenodd" stroke="none"/>
    <path d="M-3.75 111.95 L-3.4 112.05 -3.75 112.05 -3.75 111.95" fill="#999999" fill-rule="evenodd" stroke="none"/>
  </g>
</svg>
