<?xml version="1.0" encoding="UTF-8" standalone="no"?>
<svg xmlns:xlink="http://www.w3.org/1999/xlink" height="81.35px" width="50.4px" xmlns="http://www.w3.org/2000/svg">
  <g transform="matrix(1.0, 0.0, 0.0, 1.0, 23.85, 40.05)">
    <path d="M0.45 -38.65 L0.55 -38.8 1.2 -38.2 1.35 -37.45 Q1.95 -35.55 -0.05 -35.4 -1.3 -35.3 -1.95 -36.4 -2.75 -37.85 -2.35 -39.2 L-1.55 -38.8 -1.5 -38.8 0.45 -37.35 0.45 -38.65 M-10.1 -36.3 L-9.45 -36.15 -7.55 -35.85 Q-6.55 -37.45 -5.1 -38.5 -4.25 -38.35 -3.65 -37.65 -2.9 -36.75 -3.75 -35.9 -4.7 -35.05 -6.1 -35.2 -7.9 -33.95 -10.2 -34.4 L-8.8 -34.4 Q-9.75 -35.25 -10.75 -34.95 -10.7 -35.75 -10.1 -36.3 M-2.7 38.55 L-3.05 38.9 -2.9 38.3 Q-2.25 35.3 -2.05 32.0 L-2.05 31.6 -2.05 28.7 -0.95 27.75 -1.0 30.75 -1.05 32.0 -1.7 36.95 -2.7 38.55 M-23.45 0.3 L-23.45 0.0 -23.45 -0.15 -23.45 -0.25 -22.8 -0.65 -22.45 -3.2 -22.3 -4.1 -21.45 -8.45 -20.65 -8.95 Q-19.35 -7.9 -20.0 -5.95 L-21.35 -2.3 -22.7 0.0 -22.8 0.35 -23.15 0.8 -23.4 0.8 -23.45 0.3 M-14.35 -28.15 Q-13.0 -27.1 -14.3 -25.5 L-16.55 -22.95 -18.9 -21.2 -18.1 -22.9 -14.9 -27.5 -14.35 -28.15 M-16.15 15.0 L-15.6 14.9 -15.55 14.85 Q-12.65 16.15 -11.75 19.1 L-11.75 19.55 -11.75 19.7 -11.95 19.7 Q-13.35 19.75 -14.5 18.75 L-14.65 18.1 Q-15.15 16.45 -16.15 15.0 M-5.6 22.25 L-6.25 21.1 Q-6.45 20.75 -6.25 20.35 L-5.5 19.65 Q-3.35 20.0 -2.15 22.1 -0.25 25.4 -2.05 28.55 L-2.7 29.5 Q-2.35 28.1 -2.5 26.75 -2.95 26.7 -3.25 27.0 -3.5 28.75 -4.0 30.4 L-4.6 30.6 -4.75 30.8 -4.85 30.9 -5.0 30.95 -5.7 30.9 -5.85 30.75 -5.9 30.7 -5.8 30.5 Q-5.5 28.7 -4.75 27.05 L-4.6 26.65 -4.5 26.45 -4.25 24.25 -4.3 23.55 -5.6 22.25" fill="#ff9933" fill-rule="evenodd" stroke="none"/>
    <path d="M0.55 -38.8 L0.45 -38.65 0.55 -38.8 M-11.95 -13.75 L-12.55 -12.8 Q-11.45 -11.6 -10.6 -12.25 L-11.35 -11.3 -11.6 -11.6 -11.75 -11.7 -11.9 -11.75 -12.35 -11.9 -13.0 -12.1 -13.0 -12.15 -12.45 -13.25 -11.95 -13.75 M1.35 -9.5 L3.1 -9.15 Q3.15 -5.7 0.65 -3.35 -1.85 -1.05 -4.7 0.2 -5.45 -0.15 -5.6 -0.9 L-5.6 -0.95 -5.3 -1.05 -4.9 -1.1 -5.05 -1.05 -4.85 -0.6 Q-2.25 -1.6 -0.1 -3.75 2.05 -5.9 2.25 -8.75 L1.5 -8.65 1.4 -9.15 1.35 -9.5 M-11.8 -4.9 L-12.35 -5.05 -12.4 -5.05 -13.2 -4.7 -13.6 -4.2 Q-14.15 -4.8 -14.3 -5.7 -14.4 -6.4 -14.15 -6.8 L-13.55 -5.25 -12.1 -6.0 -12.05 -5.75 -11.8 -4.9 M8.0 -11.0 Q8.4 -9.35 8.15 -7.65 7.4 -9.15 7.65 -11.0 L8.0 -11.0 M6.0 -7.65 L6.15 -10.8 Q6.95 -9.45 6.45 -7.65 L6.0 -7.65 M9.55 -7.5 Q9.0 -9.3 9.1 -11.1 10.2 -9.9 9.85 -7.65 9.7 -7.5 9.55 -7.5" fill="#cc9900" fill-rule="evenodd" stroke="none"/>
    <path d="M0.55 -38.8 L0.45 -38.65 Q-0.35 -39.3 -1.2 -39.6 -0.25 -39.4 0.55 -38.8 M3.45 -37.75 L3.4 -37.9 3.45 -37.9 3.45 -37.75 M4.05 28.4 L4.05 29.2 3.95 28.4 4.05 28.4 M-21.15 9.9 L-21.25 9.75 -21.1 9.7 -21.15 9.9 M-12.15 -31.75 L-11.45 -32.55 -11.4 -32.45 -12.15 -31.75 M4.0 23.35 L4.3 23.9 4.0 23.35" fill="#cc0000" fill-rule="evenodd" stroke="none"/>
    <path d="M-2.35 -39.2 Q-2.75 -37.85 -1.95 -36.4 -1.3 -35.3 -0.05 -35.4 1.95 -35.55 1.35 -37.45 L1.2 -38.2 1.5 -37.9 1.6 -37.8 1.8 -37.75 2.05 -37.85 2.6 -37.85 Q2.3 -37.15 1.8 -36.9 L2.9 -34.95 2.45 -31.65 -3.6 -31.4 Q-5.8 -31.35 -7.5 -30.1 -8.35 -29.35 -8.55 -28.45 L-8.0 -28.15 Q-9.15 -28.85 -10.45 -29.05 L-10.35 -28.95 Q-10.05 -28.3 -9.55 -27.75 L-9.0 -27.15 -9.0 -27.2 -8.45 -26.75 -8.25 -26.25 -7.5 -25.65 Q-7.6 -25.35 -7.85 -25.1 -9.6 -25.55 -11.15 -26.15 L-12.8 -26.8 -12.65 -26.65 -11.4 -25.4 -11.5 -25.35 -12.0 -25.4 -13.7 -25.05 Q-16.25 -23.7 -14.05 -21.55 L-14.3 -19.1 Q-14.35 -17.25 -13.95 -15.4 -16.25 -13.0 -17.9 -10.1 L-18.8 -8.2 Q-20.1 -4.75 -19.2 -0.95 L-18.75 0.55 -18.9 0.95 Q-20.8 5.95 -19.5 10.8 -20.4 10.1 -20.65 8.95 -21.05 7.2 -21.7 5.7 L-21.1 9.7 -21.25 9.75 -21.45 9.15 -21.8 7.3 -22.05 5.65 -22.05 5.6 -22.1 5.55 -21.95 4.95 -20.6 1.0 -20.45 0.7 -20.7 0.95 -21.25 1.6 -21.65 2.2 -22.5 4.1 -22.9 2.9 -23.05 2.5 -22.15 0.75 -21.85 0.05 Q-21.55 -0.3 -21.85 -0.6 L-21.95 -0.45 -22.35 0.15 -23.25 1.75 -23.45 0.3 -23.4 0.8 -23.15 0.8 -22.8 0.35 -22.7 0.0 -21.35 -2.3 -20.0 -5.95 Q-19.35 -7.9 -20.65 -8.95 -18.8 -10.25 -18.05 -12.3 L-17.5 -14.0 -16.9 -17.35 Q-15.95 -18.85 -17.2 -19.3 -18.5 -19.75 -19.05 -20.8 L-18.9 -21.2 -16.55 -22.95 -14.3 -25.5 Q-13.0 -27.1 -14.35 -28.15 L-13.35 -29.25 -12.65 -30.1 -9.6 -33.7 -9.7 -33.9 -11.4 -32.45 -11.45 -32.55 -10.55 -33.75 -10.7 -34.3 -10.2 -34.4 Q-7.9 -33.95 -6.1 -35.2 -4.7 -35.05 -3.75 -35.9 -2.9 -36.75 -3.65 -37.65 -4.25 -38.35 -5.1 -38.5 L-3.75 -39.3 -2.35 -39.2 M-5.3 35.2 L-5.6 34.75 Q-4.65 34.0 -4.25 32.85 L-4.2 32.75 -3.95 32.0 -2.95 29.9 -2.85 30.0 -2.8 29.95 -2.7 29.5 -2.05 28.55 Q-0.25 25.4 -2.15 22.1 -3.35 20.0 -5.5 19.65 L-6.25 20.35 Q-6.45 20.75 -6.25 21.1 L-5.6 22.25 Q-8.3 20.0 -11.75 19.7 L-11.75 19.55 -11.75 19.1 Q-12.65 16.15 -15.55 14.85 L-15.6 14.9 -16.15 15.0 -16.15 14.95 -17.15 13.45 -16.9 13.85 -16.4 13.4 -16.2 12.95 Q-16.75 10.35 -16.55 7.85 L-15.6 10.6 Q-14.95 12.1 -13.75 12.9 -14.15 13.65 -13.9 14.75 -13.6 15.8 -12.55 16.15 L-9.05 16.05 Q-4.4 17.6 -0.75 20.7 L-0.6 23.55 Q-0.15 26.75 0.8 29.9 -0.2 30.1 -0.95 30.7 L-1.0 30.75 -0.95 27.75 -2.05 28.7 -2.05 31.6 -2.25 31.8 Q-3.95 33.3 -5.3 35.2 M-5.75 34.5 Q-6.45 33.6 -6.45 32.55 L-6.45 31.65 -6.1 31.1 -5.9 30.7 -5.85 30.75 -5.7 30.9 -5.0 30.95 -4.85 30.9 -4.75 30.8 -4.6 30.6 -4.0 30.4 -4.55 32.0 -4.7 32.4 -4.9 32.9 -5.2 33.45 -5.3 33.7 -5.75 34.5 M-13.3 5.45 L-12.55 6.15 -11.25 7.25 Q-10.8 8.8 -10.9 10.4 L-11.35 10.6 -11.9 10.95 -11.6 10.75 -11.8 10.35 Q-13.15 7.9 -13.5 5.4 L-13.3 5.45" fill="#ff6600" fill-rule="evenodd" stroke="none"/>
    <path d="M0.45 -38.65 L0.45 -37.35 -1.5 -38.8 -1.55 -38.8 -2.35 -39.2 -3.75 -39.3 -5.1 -38.5 Q-6.55 -37.45 -7.55 -35.85 L-9.45 -36.15 -10.1 -36.3 -11.3 -36.15 Q-7.75 -39.0 -3.15 -40.05 L-1.2 -39.6 Q-0.35 -39.3 0.45 -38.65 M2.6 -37.85 L2.65 -38.0 Q2.9 -38.9 3.45 -37.75 L3.45 -34.0 2.9 -34.95 1.8 -36.9 Q2.3 -37.15 2.6 -37.85 M5.2 -37.0 L5.25 -38.95 Q6.45 -39.15 6.7 -38.15 L7.35 -36.35 7.3 -35.3 Q7.05 -33.1 5.4 -31.4 5.75 -33.2 5.4 -35.1 L5.2 -37.0 M8.05 -32.65 L9.1 -34.9 Q9.3 -33.2 8.25 -31.8 7.2 -30.35 8.25 -28.6 L5.95 -26.5 8.1 -24.55 Q9.3 -23.5 9.75 -22.1 11.0 -21.9 11.5 -20.35 L12.4 -17.45 Q12.45 -15.8 13.2 -14.4 L13.4 -14.0 14.05 -11.35 Q15.0 -12.35 16.2 -12.85 16.6 -9.9 16.2 -6.55 15.8 -3.25 13.75 -0.95 15.8 0.75 18.25 2.4 18.6 3.55 18.6 5.0 18.6 6.4 19.95 7.2 L23.25 7.35 25.6 9.85 Q26.75 11.35 26.5 13.2 25.5 17.1 22.55 19.7 19.6 22.25 16.75 25.35 10.8 27.8 4.05 28.4 L3.95 28.4 4.05 29.2 4.25 32.0 4.25 35.0 Q4.1 38.45 2.65 41.3 L2.9 40.55 2.95 40.45 Q3.9 37.1 3.7 33.1 L3.65 32.0 Q3.3 28.15 2.05 25.05 L2.35 24.5 Q3.2 25.15 3.3 26.65 L3.3 26.75 3.6 27.4 3.85 27.5 4.95 27.25 4.95 27.2 5.05 27.2 4.6 26.2 2.35 22.3 2.9 22.2 3.05 22.05 3.1 22.05 3.2 22.2 4.0 23.35 4.3 23.9 4.9 25.3 5.2 26.45 5.3 26.8 5.35 27.0 5.55 27.0 6.8 26.8 8.0 26.6 13.6 25.35 Q16.05 24.9 17.75 23.0 L18.1 22.9 18.25 22.85 19.55 21.1 20.05 20.5 20.9 19.45 23.65 16.2 24.25 15.3 25.5 13.45 Q26.2 12.6 25.65 11.55 L25.35 11.2 24.15 9.45 Q23.5 8.3 22.3 7.95 L22.3 8.0 21.15 8.15 19.6 7.6 19.3 8.1 18.2 7.75 17.95 7.55 17.55 7.1 17.3 5.5 Q16.95 4.2 17.0 2.85 L12.3 -0.3 Q11.65 0.1 11.45 1.05 9.75 0.8 9.95 2.2 L10.25 4.75 10.25 4.8 10.3 4.8 13.05 4.35 13.95 3.7 Q14.35 3.1 14.9 3.7 L14.4 4.15 Q11.95 6.4 9.1 7.8 L7.25 8.55 Q6.35 10.1 5.1 11.25 L4.75 11.35 4.15 11.45 4.15 11.5 3.65 11.55 3.6 11.55 3.0 11.65 1.95 11.75 Q-1.8 12.65 -3.5 9.9 L-3.7 9.5 -6.75 4.65 -7.55 4.65 Q-7.8 3.25 -8.8 2.75 L-8.75 3.0 Q-8.95 2.55 -8.5 2.2 -11.65 0.95 -13.9 -2.0 -15.75 -4.75 -15.15 -8.05 L-15.1 -8.2 -15.1 -8.35 -14.35 -10.85 -13.75 -12.2 -13.8 -12.2 -13.05 -13.45 -12.8 -13.85 -12.7 -14.0 -11.5 -15.3 Q-10.85 -16.0 -11.2 -17.05 -10.6 -18.4 -10.15 -19.9 -9.7 -21.45 -8.2 -22.1 L-8.25 -22.25 -8.3 -22.35 -9.6 -23.9 -10.4 -24.6 -11.4 -25.4 -12.65 -26.65 -12.8 -26.8 -11.15 -26.15 Q-9.6 -25.55 -7.85 -25.1 -7.6 -25.35 -7.5 -25.65 L-7.45 -26.15 -7.45 -26.2 -7.5 -26.2 -7.65 -26.3 -8.45 -26.75 -9.0 -27.2 -9.55 -27.75 Q-10.05 -28.3 -10.35 -28.95 L-10.45 -29.05 Q-9.15 -28.85 -8.0 -28.15 L-7.45 -27.85 -7.25 -27.7 -6.95 -27.5 -6.8 -27.35 Q-2.85 -31.35 2.8 -30.25 4.45 -29.95 5.75 -28.9 L5.8 -28.85 5.8 -28.9 6.1 -29.2 5.95 -29.4 6.05 -29.5 6.1 -29.6 6.4 -29.95 7.75 -32.05 8.05 -32.65 M1.35 40.6 L1.3 40.9 1.2 40.0 0.55 35.5 Q1.6 37.8 1.35 40.6 M-6.45 31.65 L-6.8 32.0 -7.55 32.6 -7.25 32.0 Q-6.3 30.25 -6.05 28.25 -6.9 27.5 -7.75 27.95 -14.2 25.95 -19.35 21.3 -19.9 19.2 -21.25 17.45 -22.65 15.65 -22.6 13.5 L-21.15 9.9 -21.1 9.7 -21.7 5.7 Q-21.05 7.2 -20.65 8.95 -20.4 10.1 -19.5 10.8 L-18.45 11.4 -18.4 11.4 -18.3 11.6 -18.2 11.75 -17.65 12.7 -17.55 12.8 -17.15 13.45 -16.15 14.95 -16.15 15.0 Q-15.15 16.45 -14.65 18.1 L-14.5 18.75 Q-13.35 19.75 -11.95 19.7 L-11.75 19.7 Q-8.3 20.0 -5.6 22.25 L-4.3 23.55 -4.25 24.25 -4.5 26.45 -4.6 26.65 -4.75 27.05 Q-5.5 28.7 -5.8 30.5 L-5.9 30.7 -6.1 31.1 -6.45 31.65 M-23.45 -0.25 L-23.7 -0.05 -22.95 -8.45 Q-20.2 -9.75 -19.25 -12.2 L-18.75 -14.0 Q-18.4 -15.7 -18.45 -17.5 -19.15 -18.6 -20.1 -19.3 -21.1 -20.0 -20.35 -21.55 -17.0 -27.2 -12.15 -31.75 L-11.4 -32.45 -9.7 -33.9 -9.6 -33.7 -12.65 -30.1 -13.35 -29.25 -14.35 -28.15 -14.9 -27.5 -18.1 -22.9 -18.9 -21.2 -19.05 -20.8 Q-18.5 -19.75 -17.2 -19.3 -15.95 -18.85 -16.9 -17.35 L-17.5 -14.0 -18.05 -12.3 Q-18.8 -10.25 -20.65 -8.95 L-21.45 -8.45 -22.3 -4.1 -22.45 -3.2 -22.8 -0.65 -23.45 -0.25 M-10.7 -34.3 L-11.85 -33.85 Q-13.3 -33.0 -14.85 -32.9 -14.5 -33.8 -13.45 -34.1 -12.3 -34.35 -11.1 -34.85 L-10.75 -34.95 Q-9.75 -35.25 -8.8 -34.4 L-10.2 -34.4 -10.7 -34.3 M0.25 -26.55 L-0.7 -26.5 -1.0 -26.5 Q-3.05 -26.55 -4.55 -25.15 L-4.9 -24.8 -6.4 -23.15 -7.15 -22.1 Q-5.85 -21.3 -4.45 -20.6 -1.45 -19.85 2.3 -19.7 6.1 -19.55 8.95 -21.55 L8.65 -22.4 Q6.75 -24.8 4.25 -25.8 2.4 -26.55 0.25 -26.55 M4.25 -27.1 Q5.05 -26.7 5.2 -27.7 4.65 -28.9 3.4 -29.2 L-1.4 -29.35 Q-3.9 -29.3 -5.65 -27.25 -6.4 -26.1 -5.5 -25.4 -3.65 -27.2 -0.9 -27.45 L4.25 -27.1 M11.55 -4.85 L13.0 -4.65 Q13.2 -9.35 12.3 -14.0 L12.25 -14.3 11.2 -14.0 10.9 -13.9 Q6.9 -12.85 2.7 -12.45 L0.7 -14.0 -3.95 -16.55 Q-6.55 -16.85 -8.85 -16.05 -10.6 -15.45 -11.75 -14.0 L-11.95 -13.75 -12.45 -13.25 -13.0 -12.15 -14.05 -8.65 Q-14.3 -7.7 -14.15 -6.8 -14.4 -6.4 -14.3 -5.7 -14.15 -4.8 -13.6 -4.2 L-13.2 -4.7 Q-13.9 -4.2 -13.55 -3.15 -10.6 1.55 -5.0 1.05 L-2.2 0.0 -2.85 0.25 -1.0 -0.35 0.05 -1.05 0.1 -1.1 Q2.65 -2.35 3.75 -5.25 L3.55 -5.4 3.9 -5.7 5.5 -5.55 11.55 -4.85 M8.7 -14.85 L11.4 -15.5 Q11.15 -18.45 9.75 -20.75 8.65 -20.15 7.55 -19.65 L7.4 -19.6 2.75 -19.15 0.4 -18.8 1.5 -18.8 -4.55 -19.3 -5.35 -19.5 -6.85 -19.95 -7.5 -20.15 -8.2 -20.45 Q-10.1 -18.9 -10.05 -16.8 L-8.3 -17.3 -8.3 -17.25 -6.1 -17.85 -5.95 -17.9 -5.4 -17.9 -5.05 -17.85 -4.15 -17.5 Q-3.6 -17.15 -3.1 -17.25 L-3.0 -17.15 Q-2.9 -17.0 -2.75 -17.0 L-1.85 -16.85 -2.15 -16.8 Q0.15 -15.7 2.2 -14.0 L2.55 -13.65 3.35 -13.8 4.45 -14.0 7.9 -14.65 8.7 -14.85 M4.4 10.1 L5.7 9.0 8.8 0.95 8.9 0.75 4.6 -0.75 2.7 -1.65 2.35 -1.3 -0.4 0.7 Q-3.1 2.15 -6.35 2.45 L-6.0 3.2 -4.1 7.35 -3.6 8.35 -2.7 10.1 -1.95 10.5 2.2 10.65 4.4 10.1 M5.05 -1.75 L7.2 -1.05 10.9 -0.3 11.35 -2.55 4.7 -4.4 3.5 -2.45 5.05 -1.75 M12.4 -3.65 L12.2 -1.8 13.6 -1.8 14.2 -3.55 Q15.35 -7.35 15.4 -11.35 14.5 -11.0 14.05 -10.1 L13.9 -3.65 12.4 -3.65 M3.6 2.1 L6.3 2.7 5.35 2.55 Q3.05 2.25 1.2 3.6 -1.0 5.25 -3.7 5.1 -4.65 4.15 -4.6 3.75 L-3.9 4.5 -3.8 4.6 -3.8 4.65 -3.75 4.7 -2.85 4.65 Q-2.45 4.3 -2.7 3.8 L-2.7 3.75 -2.95 3.05 -2.95 2.85 Q-2.45 2.95 -2.2 3.65 L-2.2 3.7 -2.1 3.9 -1.9 4.05 -1.75 4.1 -1.7 4.1 -1.15 3.9 Q-0.35 3.75 -0.35 3.35 L0.25 3.2 0.4 3.05 0.8 2.85 3.6 2.1 M4.2 4.05 L4.4 4.0 4.25 4.2 4.2 4.05 M7.85 7.3 Q9.1 7.3 8.95 6.15 L8.7 4.3 7.55 7.2 7.5 7.3 7.85 7.3 M-7.5 5.05 L-6.95 6.45 -7.4 5.35 -7.5 5.05 M-3.15 -3.05 L-3.2 -3.05 -2.9 -3.25 -3.15 -3.05 M-9.65 -3.65 L-9.7 -3.6 -9.65 -3.7 -9.3 -4.2 -9.65 -3.65 M-21.7 14.0 L-21.9 14.6 -18.15 21.35 Q-15.65 24.0 -12.7 25.0 L-6.6 26.95 Q-5.95 25.9 -5.65 24.55 L-5.8 24.4 -6.7 23.35 Q-8.65 21.65 -11.35 21.65 -15.45 20.95 -16.5 17.05 -17.15 15.85 -18.2 15.05 L-19.05 13.85 -19.2 12.8 -21.0 11.45 -21.7 14.0 M-20.6 1.0 L-20.7 0.95 -20.45 0.7 -20.6 1.0 M-2.8 29.95 L-2.85 30.0 -2.95 29.9 -2.8 29.95" fill="#000000" fill-rule="evenodd" stroke="none"/>
    <path d="M3.45 -37.9 L3.7 -37.9 3.95 -37.8 4.65 -37.15 5.2 -37.0 5.4 -35.1 Q5.75 -33.2 5.4 -31.4 7.05 -33.1 7.3 -35.3 L7.9 -33.75 8.05 -32.65 7.75 -32.05 6.4 -29.95 6.1 -29.6 6.05 -29.5 5.95 -29.4 6.1 -29.2 5.8 -28.9 5.75 -28.9 Q4.45 -29.95 2.8 -30.25 -2.85 -31.35 -6.8 -27.35 L-6.95 -27.5 -7.25 -27.7 -7.45 -27.85 -8.0 -28.15 -8.55 -28.45 Q-8.35 -29.35 -7.5 -30.1 -5.8 -31.35 -3.6 -31.4 L2.45 -31.65 2.9 -34.95 3.45 -34.0 3.45 -37.75 3.45 -37.9 M2.95 40.45 L2.85 40.5 1.35 40.6 Q1.6 37.8 0.55 35.5 L1.2 40.0 1.25 40.6 Q-1.05 40.4 -2.7 38.55 L-1.7 36.95 -1.05 32.0 -1.0 30.75 -0.95 30.7 Q-0.2 30.1 0.8 29.9 -0.15 26.75 -0.6 23.55 L-0.75 20.7 Q-4.4 17.6 -9.05 16.05 L-12.55 16.15 Q-13.6 15.8 -13.9 14.75 -14.15 13.65 -13.75 12.9 -14.95 12.1 -15.6 10.6 L-16.55 7.85 Q-16.75 10.35 -16.2 12.95 L-16.4 13.4 -16.9 13.85 -17.15 13.45 -17.55 12.8 -17.65 12.7 -18.2 11.75 -18.3 11.6 -18.4 11.4 -18.4 11.35 -18.45 11.4 -19.5 10.8 Q-20.8 5.95 -18.9 0.95 L-18.75 0.55 -19.2 -0.95 Q-20.1 -4.75 -18.8 -8.2 L-17.9 -10.1 Q-16.25 -13.0 -13.95 -15.4 -14.35 -17.25 -14.3 -19.1 L-14.05 -21.55 Q-16.25 -23.7 -13.7 -25.05 L-12.0 -25.4 -11.5 -25.35 -11.4 -25.4 -10.4 -24.6 -9.6 -23.9 -10.1 -24.35 -10.95 -24.4 Q-11.0 -24.3 -11.15 -24.3 L-12.4 -24.1 Q-13.0 -23.6 -12.95 -22.85 L-12.55 -22.0 -13.35 -20.75 Q-14.05 -18.5 -12.25 -17.35 L-13.05 -13.45 -13.8 -12.2 -14.1 -12.0 -14.25 -11.8 -15.35 -8.85 -15.7 -7.65 Q-16.6 -4.95 -15.85 -2.25 L-15.85 -2.15 Q-15.7 -1.55 -15.2 -1.2 -15.0 0.45 -14.2 1.9 -13.3 3.45 -11.7 3.15 L-11.6 2.95 -11.3 2.55 Q-10.15 3.3 -9.35 4.3 L-8.5 10.45 -7.6 13.2 Q-7.1 14.55 -5.6 15.15 -2.3 16.4 0.3 18.4 L1.45 19.4 2.2 20.1 2.35 20.3 3.4 22.05 3.45 22.1 3.2 22.2 3.1 22.05 3.05 22.05 2.35 22.25 2.35 22.3 4.6 26.2 5.0 27.15 4.95 27.2 4.95 27.25 3.85 27.5 3.6 27.4 3.3 26.75 3.3 26.65 Q3.2 25.15 2.35 24.5 L2.05 25.05 Q3.3 28.15 3.65 32.0 L3.7 33.1 Q3.9 37.1 2.95 40.45 M-2.9 38.3 L-5.3 35.2 Q-3.95 33.3 -2.25 31.8 L-2.05 32.0 Q-2.25 35.3 -2.9 38.3 M-5.6 34.75 L-6.1 35.05 -5.75 34.5 -5.3 33.7 -5.2 33.45 -4.9 32.9 -4.7 32.4 -4.55 32.0 -4.0 30.4 Q-3.5 28.75 -3.25 27.0 -2.95 26.7 -2.5 26.75 -2.35 28.1 -2.7 29.5 L-2.8 29.95 -2.95 29.9 -3.95 32.0 -4.2 32.75 -4.25 32.85 Q-4.65 34.0 -5.6 34.75 M-21.95 4.95 L-22.1 5.65 -22.4 8.0 Q-22.7 8.25 -22.55 8.65 -23.05 7.35 -22.85 5.7 L-22.5 4.1 -21.65 2.2 -21.25 1.6 -20.7 0.95 -20.6 1.0 -21.95 4.95 M-23.05 2.5 L-23.85 3.6 -23.25 1.75 -22.35 0.15 -21.95 -0.45 -21.85 -0.6 Q-21.55 -0.3 -21.85 0.05 L-22.15 0.75 -23.05 2.5 M-13.3 5.45 L-13.5 5.4 Q-13.15 7.9 -11.8 10.35 L-11.6 10.75 -11.9 10.95 -11.35 10.6 -10.9 10.4 Q-10.8 8.8 -11.25 7.25 L-12.55 6.15 -13.3 5.45" fill="#cc3300" fill-rule="evenodd" stroke="none"/>
    <path d="M-4.9 -24.8 L-4.55 -25.15 Q-3.05 -26.55 -1.0 -26.5 L-0.7 -26.5 0.25 -26.55 0.85 -26.5 1.3 -25.75 Q1.9 -24.5 1.35 -23.3 0.65 -21.8 -0.9 -21.35 L-1.3 -21.25 -2.0 -21.5 -3.25 -21.35 Q-4.3 -21.85 -4.75 -23.4 L-4.9 -24.8 M-3.6 8.35 L-4.1 7.35 -6.0 3.2 -1.4 1.45 -0.85 2.1 -0.75 2.4 -1.5 2.3 Q-1.85 2.4 -2.05 2.65 L-2.35 3.25 -2.2 3.65 Q-2.45 2.95 -2.95 2.85 L-2.95 3.05 -3.6 2.85 Q-4.25 3.05 -4.25 3.75 L-4.15 4.2 -3.9 4.5 -4.6 3.75 Q-4.65 4.15 -3.7 5.1 -1.0 5.25 1.2 3.6 3.05 2.25 5.35 2.55 L4.5 2.5 Q5.1 2.65 5.75 2.95 L5.65 3.15 5.35 3.8 5.25 4.2 4.25 4.2 4.4 4.0 4.2 4.05 3.7 4.2 0.9 4.55 -0.95 5.1 -1.9 5.5 -1.15 6.3 Q-1.05 6.5 -0.75 6.55 0.15 6.8 0.85 7.45 L0.05 7.8 Q1.65 7.0 3.55 6.85 L4.25 6.9 4.35 7.0 4.1 8.05 Q4.1 8.9 3.3 9.35 0.4 9.9 -2.35 9.4 L-2.3 9.3 -2.15 9.2 -3.5 8.45 -3.6 8.35" fill="#99ccff" fill-rule="evenodd" stroke="none"/>
    <path d="M-4.9 -24.8 L-4.75 -23.4 Q-4.3 -21.85 -3.25 -21.35 -5.55 -21.35 -6.4 -23.15 L-4.9 -24.8 M-1.3 -21.25 L-0.9 -21.35 Q0.65 -21.8 1.35 -23.3 1.9 -24.5 1.3 -25.75 L0.85 -26.5 0.25 -26.55 Q2.4 -26.55 4.25 -25.8 4.95 -24.0 3.05 -22.35 L1.5 -21.45 -1.3 -21.25 M4.4 10.1 L2.2 10.65 -1.95 10.5 -2.7 10.1 -3.6 8.35 -3.5 8.45 -2.15 9.2 -2.3 9.3 -2.35 9.4 Q0.4 9.9 3.3 9.35 4.1 8.9 4.1 8.05 L4.35 7.0 4.25 6.9 3.55 6.85 Q1.65 7.0 0.05 7.8 L0.85 7.45 Q0.15 6.8 -0.75 6.55 -1.05 6.5 -1.15 6.3 L-1.9 5.5 -0.95 5.1 0.9 4.55 3.7 4.2 Q1.5 4.8 -0.6 5.7 L0.15 6.25 Q2.55 5.8 4.25 4.2 L5.25 4.2 5.35 3.8 5.65 3.15 5.75 2.95 Q5.1 2.65 4.5 2.5 L5.35 2.55 6.3 2.7 3.6 2.1 Q1.75 1.85 -0.1 2.1 L-0.85 1.65 -0.85 1.75 -0.8 2.1 -0.85 2.1 -1.4 1.45 -6.0 3.2 -6.35 2.45 Q-3.1 2.15 -0.4 0.7 L-1.4 1.2 -1.25 1.15 3.0 0.65 Q5.55 0.6 7.3 2.0 L7.0 2.9 6.55 4.05 6.4 4.45 5.7 4.6 5.55 4.65 Q5.1 5.05 5.05 5.65 L5.2 6.4 5.3 6.6 4.45 9.9 4.4 10.1" fill="#9999ff" fill-rule="evenodd" stroke="none"/>
    <path d="M4.25 -27.1 L-0.9 -27.45 Q-3.65 -27.2 -5.5 -25.4 -6.4 -26.1 -5.65 -27.25 -3.9 -29.3 -1.4 -29.35 L3.4 -29.2 Q4.65 -28.9 5.2 -27.7 5.05 -26.7 4.25 -27.1 M11.55 -4.85 L11.65 -5.75 Q11.95 -7.5 11.75 -9.25 11.45 -11.5 10.5 -13.55 L10.4 -13.75 10.9 -13.9 11.2 -14.0 12.25 -14.3 12.3 -14.0 Q13.2 -9.35 13.0 -4.65 L11.55 -4.85 M-5.6 -0.9 L-5.7 -0.9 -5.6 -0.95 -5.6 -0.9 M-2.2 0.0 L-0.3 -0.9 -0.2 -0.95 -0.1 -1.0 0.05 -1.05 -1.0 -0.35 -2.85 0.25 -2.2 0.0 M3.9 -5.7 L4.1 -7.8 Q4.1 -10.15 3.0 -12.15 L2.8 -12.45 4.6 -12.65 4.65 -12.55 4.65 -12.5 Q5.4 -12.25 5.4 -11.35 L5.4 -11.05 5.65 -9.5 5.7 -7.9 5.5 -5.55 3.9 -5.7 M8.7 -14.85 L7.9 -14.65 4.45 -14.0 3.35 -13.8 2.55 -13.65 2.2 -14.0 Q0.15 -15.7 -2.15 -16.8 L-1.85 -16.85 0.85 -17.4 5.3 -18.7 5.55 -18.8 7.4 -19.6 7.55 -19.65 7.95 -18.1 8.7 -14.85 M-3.1 -17.25 Q-3.6 -17.15 -4.15 -17.5 L-5.05 -17.85 -5.4 -17.9 -5.95 -17.9 -6.1 -17.85 -8.3 -17.25 -8.3 -17.3 -10.05 -16.8 Q-10.1 -18.9 -8.2 -20.45 L-7.5 -20.15 -6.85 -19.95 -5.35 -19.5 -4.55 -19.3 1.5 -18.8 2.65 -18.9 3.05 -18.95 Q0.4 -17.95 -2.5 -17.55 L-3.1 -17.25 M0.4 -5.1 Q-0.6 -3.75 -1.9 -2.7 L-1.85 -2.75 -1.3 -3.45 -0.55 -4.3 0.25 -5.05 0.4 -5.1 M5.05 -1.75 Q4.8 -2.35 5.25 -3.15 L5.95 -4.05 8.2 -3.4 8.15 -3.25 7.85 -2.4 7.2 -1.05 5.05 -1.75 M-4.9 -1.1 L-4.8 -1.15 -4.9 -1.1" fill="#663300" fill-rule="evenodd" stroke="none"/>
    <path d="M10.9 -13.9 L10.4 -13.75 10.5 -13.55 Q11.45 -11.5 11.75 -9.25 11.95 -7.5 11.65 -5.75 L11.55 -4.85 5.5 -5.55 5.7 -7.9 5.65 -9.5 5.4 -11.05 5.4 -11.35 Q5.4 -12.25 4.65 -12.5 L4.65 -12.55 4.6 -12.65 2.8 -12.45 3.0 -12.15 Q4.1 -10.15 4.1 -7.8 L3.9 -5.7 3.55 -5.4 3.75 -5.25 Q2.65 -2.35 0.1 -1.1 L0.05 -1.05 -0.1 -1.0 -0.2 -0.95 -0.3 -0.9 -2.2 0.0 -5.0 1.05 Q-10.6 1.55 -13.55 -3.15 -13.9 -4.2 -13.2 -4.7 L-12.4 -5.05 -12.35 -5.05 -11.8 -4.9 -11.2 -4.15 -10.3 -2.7 Q-8.3 -1.1 -5.7 -0.9 L-5.6 -0.9 Q-5.45 -0.15 -4.7 0.2 -1.85 -1.05 0.65 -3.35 3.15 -5.7 3.1 -9.15 L1.35 -9.5 1.2 -9.45 Q1.05 -11.9 -0.95 -13.65 L-1.4 -14.0 Q-4.25 -15.8 -7.7 -14.85 -8.55 -14.65 -9.2 -14.0 L-10.1 -12.85 -10.6 -12.25 Q-11.45 -11.6 -12.55 -12.8 L-11.95 -13.75 -11.75 -14.0 Q-10.6 -15.45 -8.85 -16.05 -6.55 -16.85 -3.95 -16.55 L0.7 -14.0 2.7 -12.45 Q6.9 -12.85 10.9 -13.9 M1.5 -8.65 L2.25 -8.75 Q2.05 -5.9 -0.1 -3.75 -2.25 -1.6 -4.85 -0.6 L-5.05 -1.05 -4.9 -1.1 Q-3.25 -1.7 -1.85 -2.75 L-1.9 -2.7 Q-0.6 -3.75 0.4 -5.1 L1.15 -6.3 Q1.45 -6.95 1.25 -7.9 1.15 -8.45 1.5 -8.65 M6.0 -7.65 L6.45 -7.65 Q6.95 -9.45 6.15 -10.8 L6.0 -7.65 M8.0 -11.0 L7.65 -11.0 Q7.4 -9.15 8.15 -7.65 8.4 -9.35 8.0 -11.0 M9.55 -7.5 Q9.7 -7.5 9.85 -7.65 10.2 -9.9 9.1 -11.1 9.0 -9.3 9.55 -7.5 M-0.05 17.25 L-0.15 17.5 -0.2 17.45 -0.05 17.25 M2.4 20.25 L2.35 20.3 2.2 20.1 2.4 20.25 M-13.0 -12.15 L-13.0 -12.1 -12.35 -11.9 -11.9 -11.75 -11.75 -11.7 -11.6 -11.6 Q-11.15 -11.4 -11.5 -10.65 -12.65 -8.4 -12.05 -6.0 L-12.1 -6.0 -13.55 -5.25 -14.15 -6.8 Q-14.3 -7.7 -14.05 -8.65 L-13.0 -12.15" fill="#996600" fill-rule="evenodd" stroke="none"/>
    <path d="M12.3 -14.0 L12.25 -14.3 12.3 -14.0 M7.85 7.3 L7.5 7.3 7.55 7.2 7.85 7.3" fill="#ffffff" fill-rule="evenodd" stroke="none"/>
    <path d="M-10.6 -12.25 L-10.1 -12.85 -9.2 -14.0 Q-8.55 -14.65 -7.7 -14.85 -4.25 -15.8 -1.4 -14.0 L-0.95 -13.65 Q1.05 -11.9 1.2 -9.45 L1.35 -9.5 1.4 -9.15 1.5 -8.65 Q1.15 -8.45 1.25 -7.9 1.45 -6.95 1.15 -6.3 L0.4 -5.1 0.25 -5.05 -0.55 -4.3 -1.3 -3.45 -1.85 -2.75 Q-3.25 -1.7 -4.9 -1.1 L-5.3 -1.05 -5.6 -0.95 -5.7 -0.9 Q-8.3 -1.1 -10.3 -2.7 L-11.2 -4.15 -11.8 -4.9 -12.05 -5.75 -12.1 -6.0 -12.05 -6.0 Q-12.65 -8.4 -11.5 -10.65 -11.15 -11.4 -11.6 -11.6 L-11.35 -11.3 -10.6 -12.25 M7.55 -19.65 Q8.65 -20.15 9.75 -20.75 11.15 -18.45 11.4 -15.5 L8.7 -14.85 7.95 -18.1 7.55 -19.65 M-1.85 -16.85 L-2.75 -17.0 Q-2.9 -17.0 -3.0 -17.15 L-3.1 -17.25 -2.5 -17.55 Q0.4 -17.95 3.05 -18.95 L2.65 -18.9 1.5 -18.8 0.4 -18.8 2.75 -19.15 7.4 -19.6 5.55 -18.8 5.3 -18.7 0.85 -17.4 -1.85 -16.85 M7.2 -1.05 L7.85 -2.4 8.15 -3.25 8.2 -3.4 5.95 -4.05 5.25 -3.15 Q4.8 -2.35 5.05 -1.75 L3.5 -2.45 4.7 -4.4 11.35 -2.55 10.9 -0.3 7.2 -1.05 M-1.4 -4.35 L-1.15 -4.7 Q1.25 -7.6 -0.05 -11.15 -1.35 -13.25 -3.1 -14.0 -5.05 -14.85 -7.6 -14.0 L-7.65 -14.0 Q-11.25 -11.7 -11.55 -7.55 -11.4 -5.15 -9.7 -3.6 L-9.65 -3.65 -9.45 -3.3 -9.05 -3.0 -9.0 -3.0 Q-8.1 -2.2 -6.85 -2.1 L-6.8 -2.2 Q-6.45 -1.75 -5.75 -1.95 L-5.55 -2.0 -5.6 -2.3 -5.5 -1.95 Q-4.3 -2.25 -3.2 -3.05 L-3.15 -3.05 -2.8 -3.1 -1.4 -4.35 M-4.9 -1.1 L-4.8 -1.15 -4.9 -1.1" fill="#402000" fill-rule="evenodd" stroke="none"/>
    <path d="M-3.25 -21.35 L-2.0 -21.5 -1.3 -21.25 1.5 -21.45 3.05 -22.35 Q4.95 -24.0 4.25 -25.8 6.75 -24.8 8.65 -22.4 L8.95 -21.55 Q6.1 -19.55 2.3 -19.7 -1.45 -19.85 -4.45 -20.6 -5.85 -21.3 -7.15 -22.1 L-6.4 -23.15 Q-5.55 -21.35 -3.25 -21.35 M-0.4 0.7 L2.35 -1.3 2.7 -1.65 4.6 -0.75 8.9 0.75 8.8 0.95 5.7 9.0 4.4 10.1 4.45 9.9 5.3 6.6 5.2 6.4 5.05 5.65 Q5.1 5.05 5.55 4.65 L5.7 4.6 6.4 4.45 6.55 4.05 7.0 2.9 7.3 2.0 Q5.55 0.6 3.0 0.65 L-1.25 1.15 -1.4 1.2 -0.4 0.7 M12.4 -3.65 L13.9 -3.65 14.05 -10.1 Q14.5 -11.0 15.4 -11.35 15.35 -7.35 14.2 -3.55 L13.6 -1.8 12.2 -1.8 12.4 -3.65 M4.25 4.2 Q2.55 5.8 0.15 6.25 L-0.6 5.7 Q1.5 4.8 3.7 4.2 L4.2 4.05 4.25 4.2 M7.55 7.2 L8.7 4.3 8.95 6.15 Q9.1 7.3 7.85 7.3 L7.55 7.2" fill="#6666ff" fill-rule="evenodd" stroke="none"/>
    <path d="M15.4 5.5 L15.1 3.95 14.4 4.15 14.9 3.7 Q14.35 3.1 13.95 3.7 L13.05 4.35 10.3 4.8 10.25 4.75 9.95 2.2 Q9.75 0.8 11.45 1.05 11.65 0.1 12.3 -0.3 L17.0 2.85 Q16.95 4.2 17.3 5.5 L17.55 7.1 17.95 7.55 18.2 7.75 19.3 8.1 19.6 7.6 21.15 8.15 22.3 8.0 22.3 7.95 Q23.5 8.3 24.15 9.45 L25.35 11.2 25.65 11.55 Q26.2 12.6 25.5 13.45 L24.25 15.3 23.65 16.2 20.9 19.45 20.05 20.5 19.55 21.1 18.25 22.85 18.1 22.9 17.75 23.0 Q16.05 24.9 13.6 25.35 L8.0 26.6 6.8 26.8 5.55 27.0 5.3 26.8 5.2 26.45 4.9 25.3 7.35 24.85 11.9 23.75 17.45 22.05 17.9 21.9 Q17.55 19.3 15.75 17.4 L14.95 17.7 10.6 17.8 8.05 17.2 7.2 17.0 6.3 16.85 5.6 16.7 5.35 16.65 -0.05 17.25 -0.1 17.25 -1.6 16.05 -1.7 15.95 -1.05 16.05 2.4 15.95 Q5.65 16.4 8.35 15.1 L13.55 12.2 16.45 9.15 16.45 9.05 Q15.85 7.75 15.55 6.3 L15.4 5.5 M9.1 7.8 L9.05 8.5 8.9 9.2 8.8 9.3 8.75 9.4 8.65 9.5 8.5 9.7 8.35 9.9 8.3 10.0 8.2 10.1 8.15 10.2 8.1 10.3 8.05 10.35 7.85 10.65 7.6 10.95 6.4 12.0 Q5.0 12.55 3.95 13.45 3.7 13.65 3.6 13.95 L1.55 13.95 -2.2 13.95 -2.35 13.9 Q-3.8 13.0 -4.5 11.4 L-4.65 11.05 -4.4 10.55 -4.85 11.55 -5.55 12.45 -7.3 9.9 Q-8.2 8.25 -8.55 6.35 L-8.55 6.15 -8.6 5.95 -8.6 5.8 -8.65 5.55 -8.65 5.35 -8.6 5.2 -8.5 5.05 Q-7.65 7.45 -6.3 9.75 -6.4 8.05 -6.95 6.45 L-7.5 5.05 -7.65 4.65 -7.55 4.65 -6.75 4.65 -3.7 9.5 -3.5 9.9 Q-1.8 12.65 1.95 11.75 L3.0 11.65 3.6 11.55 3.65 11.55 4.1 11.55 4.15 11.5 4.15 11.45 4.75 11.35 5.1 11.25 Q6.35 10.1 7.25 8.55 L9.1 7.8 M15.6 12.1 L15.05 12.4 Q12.15 14.15 9.5 16.0 11.5 17.1 13.7 16.95 16.3 15.25 18.25 13.0 L17.75 13.5 Q17.0 13.4 16.25 12.85 L15.7 12.3 15.6 12.1 M18.0 16.5 Q16.95 16.1 16.3 17.1 17.7 18.65 18.2 20.6 L19.5 18.8 19.55 18.75 Q19.05 17.5 18.0 16.5 M23.55 12.45 L21.9 9.55 20.8 12.7 Q22.2 13.2 23.25 14.15 L23.85 13.2 23.65 12.7 23.55 12.45 M22.8 14.95 Q21.75 13.85 20.05 13.45 L17.95 15.7 Q19.45 16.85 20.1 18.5 20.6 17.6 21.25 16.75 L22.8 14.95 M-9.35 -4.4 L-9.55 -4.7 -9.7 -4.85 -10.8 -6.05 Q-11.15 -7.85 -10.45 -9.5 L-8.05 -12.0 Q-6.65 -13.2 -4.75 -13.1 -2.7 -12.95 -1.35 -11.15 L-1.0 -10.35 -1.45 -10.1 -2.0 -9.8 -2.65 -10.5 Q-3.7 -11.35 -5.35 -11.1 L-5.45 -11.1 -5.5 -11.1 -5.6 -11.1 -6.5 -10.8 Q-8.1 -10.1 -8.8 -8.5 L-8.9 -8.25 Q-9.3 -6.5 -8.35 -5.05 L-9.0 -4.5 -9.35 -4.4 M-6.7 23.35 L-5.8 24.4 -5.65 24.55 Q-5.95 25.9 -6.6 26.95 L-12.7 25.0 Q-15.65 24.0 -18.15 21.35 L-21.9 14.6 -21.7 14.0 -20.55 16.05 -20.3 16.4 -18.65 18.8 -15.8 22.35 -15.4 22.6 -9.55 24.0 -8.25 24.25 -8.0 24.3 -8.0 24.2 -7.9 23.7 -7.75 23.5 -7.8 22.6 -6.7 23.35" fill="#333333" fill-rule="evenodd" stroke="none"/>
    <path d="M14.4 4.15 L15.1 3.95 15.4 5.5 14.7 6.45 11.35 9.05 8.5 10.45 7.85 10.65 8.05 10.35 8.1 10.3 8.15 10.2 8.2 10.1 8.3 10.0 8.35 9.9 8.5 9.7 8.65 9.5 8.75 9.4 8.8 9.3 8.9 9.2 9.05 8.5 9.1 7.8 Q11.95 6.4 14.4 4.15 M-0.05 17.25 L5.35 16.65 5.6 16.7 6.3 16.85 7.2 17.0 8.05 17.2 10.6 17.8 14.95 17.7 15.0 18.05 14.85 18.65 Q14.4 19.25 13.55 19.15 L13.0 19.4 6.15 18.95 5.7 18.9 1.45 18.85 1.05 18.45 0.8 18.25 0.6 18.05 0.2 17.65 -0.05 17.55 -0.15 17.5 -0.05 17.25 M-21.7 14.0 L-21.0 11.45 -19.2 12.8 -19.05 13.85 -19.4 14.6 -20.15 15.9 -20.55 16.05 -21.7 14.0" fill="#999966" fill-rule="evenodd" stroke="none"/>
    <path d="M7.85 10.65 L8.5 10.45 11.35 9.05 14.7 6.45 15.4 5.5 15.55 6.3 Q15.85 7.75 16.45 9.05 L16.45 9.15 13.55 12.2 8.35 15.1 Q5.65 16.4 2.4 15.95 L-1.05 16.05 -1.7 15.95 Q-3.0 15.6 -3.6 14.25 L-5.55 12.45 -4.85 11.55 -4.4 10.55 -4.65 11.05 -4.5 11.4 Q-3.8 13.0 -2.35 13.9 L-2.2 13.95 1.55 13.95 3.6 13.95 Q3.7 13.65 3.95 13.45 5.0 12.55 6.4 12.0 L7.6 10.95 7.85 10.65 M14.95 17.7 L15.75 17.4 Q17.55 19.3 17.9 21.9 L17.45 22.05 11.9 23.75 7.35 24.85 4.9 25.3 4.3 23.9 4.0 23.35 3.45 22.1 3.4 22.05 2.35 20.3 2.4 20.25 3.1 21.0 2.9 20.7 1.45 18.85 5.7 18.9 6.15 18.95 13.0 19.4 13.55 19.15 Q14.4 19.25 14.85 18.65 L15.0 18.05 14.95 17.7 M10.25 4.75 L10.3 4.8 10.25 4.8 10.25 4.75 M15.6 12.1 L15.7 12.3 16.25 12.85 Q17.0 13.4 17.75 13.5 L18.25 13.0 Q16.3 15.25 13.7 16.95 11.5 17.1 9.5 16.0 12.15 14.15 15.05 12.4 L15.6 12.1 M4.15 11.5 L4.1 11.55 3.65 11.55 4.15 11.5 M-8.5 5.05 L-8.6 5.2 -8.65 5.35 -8.75 4.35 -8.5 5.05 M18.0 16.5 Q19.05 17.5 19.55 18.75 L19.5 18.8 18.2 20.6 Q17.7 18.65 16.3 17.1 16.95 16.1 18.0 16.5 M23.55 12.45 L23.65 12.7 23.85 13.2 23.25 14.15 Q22.2 13.2 20.8 12.7 L21.9 9.55 23.55 12.45 M22.8 14.95 L21.25 16.75 Q20.6 17.6 20.1 18.5 19.45 16.85 17.95 15.7 L20.05 13.45 Q21.75 13.85 22.8 14.95 M-19.05 13.85 L-18.2 15.05 Q-17.15 15.85 -16.5 17.05 -15.45 20.95 -11.35 21.65 -8.65 21.65 -6.7 23.35 L-7.8 22.6 -7.75 23.5 -7.9 23.7 -8.0 24.2 -8.0 24.3 -8.25 24.25 -9.55 24.0 -15.4 22.6 -15.8 22.35 -18.65 18.8 -20.3 16.4 -20.55 16.05 -20.15 15.9 -19.4 14.6 -19.05 13.85" fill="#666633" fill-rule="evenodd" stroke="none"/>
    <path d="M-1.7 15.95 L-1.6 16.05 -0.1 17.25 -0.05 17.25 -0.2 17.45 -0.15 17.5 -0.05 17.55 0.8 18.25 1.05 18.45 1.45 18.85 2.9 20.7 3.1 21.0 2.4 20.25 2.2 20.1 1.45 19.4 0.3 18.4 Q-2.3 16.4 -5.6 15.15 -7.1 14.55 -7.6 13.2 L-8.5 10.45 -9.35 4.3 Q-10.15 3.3 -11.3 2.55 L-11.6 2.95 -11.7 3.15 Q-13.3 3.45 -14.2 1.9 -15.0 0.45 -15.2 -1.2 -15.7 -1.55 -15.85 -2.15 L-15.85 -2.25 Q-16.6 -4.95 -15.7 -7.65 L-15.35 -8.85 -14.25 -11.8 -14.1 -12.0 -13.8 -12.2 -13.75 -12.2 -14.35 -10.85 -15.1 -8.35 -15.1 -8.2 -15.15 -8.05 Q-15.75 -4.75 -13.9 -2.0 -11.65 0.95 -8.5 2.2 -8.95 2.55 -8.75 3.0 L-8.8 2.75 Q-7.8 3.25 -7.55 4.65 L-7.65 4.65 -7.5 5.05 -7.4 5.35 -6.95 6.45 Q-6.4 8.05 -6.3 9.75 -7.65 7.45 -8.5 5.05 L-8.75 4.35 -8.65 5.35 -8.65 5.55 -8.6 5.8 -8.6 5.95 -8.55 6.15 -8.55 6.35 Q-8.2 8.25 -7.3 9.9 L-5.55 12.45 -3.6 14.25 Q-3.0 15.6 -1.7 15.95 M-2.2 3.65 L-2.35 3.25 -2.05 2.65 Q-1.85 2.4 -1.5 2.3 L-0.75 2.4 -0.85 2.1 -0.8 2.1 -0.85 1.75 -0.85 1.65 -0.1 2.1 Q1.75 1.85 3.6 2.1 L0.8 2.85 0.4 3.05 0.25 3.2 -0.35 3.35 -0.5 3.0 -1.1 2.85 -1.6 3.0 Q-2.15 3.35 -2.1 3.9 L-2.2 3.7 -2.2 3.65 M-3.9 4.5 L-4.15 4.2 -4.25 3.75 Q-4.25 3.05 -3.6 2.85 L-2.95 3.05 -2.7 3.75 -2.8 3.55 -3.35 3.45 Q-3.9 3.75 -3.85 4.35 L-3.8 4.65 -3.8 4.6 -3.9 4.5 M-13.05 -13.45 L-12.25 -17.35 Q-14.05 -18.5 -13.35 -20.75 L-12.55 -22.0 -12.95 -22.85 Q-13.0 -23.6 -12.4 -24.1 L-11.15 -24.3 Q-11.0 -24.3 -10.95 -24.4 L-10.1 -24.35 -9.6 -23.9 -8.3 -22.35 -8.25 -22.25 -8.2 -22.1 Q-9.7 -21.45 -10.15 -19.9 -10.6 -18.4 -11.2 -17.05 -10.85 -16.0 -11.5 -15.3 L-12.7 -14.0 -12.8 -13.85 -13.05 -13.45 M3.05 22.05 L2.9 22.2 2.35 22.3 2.35 22.25 3.05 22.05" fill="#993300" fill-rule="evenodd" stroke="none"/>
    <path d="M-2.1 3.9 Q-2.15 3.35 -1.6 3.0 L-1.1 2.85 -0.5 3.0 -0.35 3.35 Q-0.35 3.75 -1.15 3.9 L-1.7 4.1 -1.75 4.1 -1.9 4.05 -2.1 3.9 M-3.8 4.65 L-3.85 4.35 Q-3.9 3.75 -3.35 3.45 L-2.8 3.55 -2.7 3.75 -2.7 3.8 Q-2.45 4.3 -2.85 4.65 L-3.75 4.7 -3.8 4.65" fill="#cccc99" fill-rule="evenodd" stroke="none"/>
    <path d="M3.45 22.1 L4.0 23.35 3.2 22.2 3.45 22.1 M-8.45 -26.75 L-7.65 -26.3 -7.5 -26.2 -7.45 -26.2 -7.45 -26.15 -7.5 -25.65 -8.25 -26.25 -8.45 -26.75 M-2.05 31.6 L-2.05 32.0 -2.25 31.8 -2.05 31.6" fill="#cc6600" fill-rule="evenodd" stroke="none"/>
    <path d="M-9.7 -3.6 Q-11.4 -5.15 -11.55 -7.55 -11.25 -11.7 -7.65 -14.0 L-7.6 -14.0 Q-5.05 -14.85 -3.1 -14.0 -1.35 -13.25 -0.05 -11.15 1.25 -7.6 -1.15 -4.7 L-1.4 -4.35 -2.1 -4.25 Q-2.9 -4.95 -2.15 -5.6 L-1.8 -5.9 Q-1.35 -6.45 -1.15 -7.05 -0.55 -8.75 -1.0 -10.35 L-1.35 -11.15 Q-2.7 -12.95 -4.75 -13.1 -6.65 -13.2 -8.05 -12.0 L-10.45 -9.5 Q-11.15 -7.85 -10.8 -6.05 L-9.7 -4.85 -9.55 -4.7 -9.35 -4.4 -9.3 -4.2 -9.65 -3.7 -9.7 -3.6 M-3.2 -3.05 Q-4.3 -2.25 -5.5 -1.95 L-5.6 -2.3 -5.65 -3.3 Q-4.85 -3.5 -4.05 -4.05 -3.25 -4.65 -2.65 -3.45 L-2.9 -3.25 -3.2 -3.05 M-6.8 -2.2 L-6.85 -2.1 Q-8.1 -2.2 -9.0 -3.0 L-9.1 -3.05 Q-9.2 -3.6 -8.65 -3.95 L-8.15 -3.75 -7.1 -3.5 -6.9 -3.45 -6.9 -3.4 -6.8 -3.4 Q-6.4 -3.15 -6.8 -2.2" fill="#999999" fill-rule="evenodd" stroke="none"/>
    <path d="M-1.4 -4.35 L-2.8 -3.1 -3.15 -3.05 -2.9 -3.25 -2.65 -3.45 Q-3.25 -4.65 -4.05 -4.05 -4.85 -3.5 -5.65 -3.3 L-5.6 -2.3 -5.55 -2.0 -5.75 -1.95 Q-6.45 -1.75 -6.8 -2.2 -6.4 -3.15 -6.8 -3.4 L-6.9 -3.4 -6.9 -3.45 -7.1 -3.5 -8.15 -3.75 -8.65 -3.95 Q-9.2 -3.6 -9.1 -3.05 L-9.0 -3.0 -9.05 -3.0 -9.45 -3.3 -9.65 -3.65 -9.3 -4.2 -9.35 -4.4 -9.0 -4.5 -8.35 -5.05 -8.3 -4.95 -4.5 -4.75 -3.25 -5.7 Q-1.85 -7.1 -1.7 -9.25 -2.1 -10.05 -2.65 -10.5 L-2.0 -9.8 -1.45 -10.1 -1.0 -10.35 Q-0.55 -8.75 -1.15 -7.05 -1.35 -6.45 -1.8 -5.9 L-2.15 -5.6 Q-2.9 -4.95 -2.1 -4.25 L-1.4 -4.35" fill="#666666" fill-rule="evenodd" stroke="none"/>
    <path d="M-6.5 -10.8 L-5.6 -11.1 -5.5 -11.1 -5.45 -11.1 -5.35 -11.1 Q-3.7 -11.35 -2.65 -10.5 -2.1 -10.05 -1.7 -9.25 -1.85 -7.1 -3.25 -5.7 L-4.5 -4.75 -8.3 -4.95 -8.35 -5.05 Q-9.3 -6.5 -8.9 -8.25 L-8.8 -8.5 Q-9.1 -7.5 -8.45 -6.6 L-7.75 -6.1 -5.0 -6.3 -4.3 -6.75 -4.25 -6.8 Q-3.85 -7.15 -3.75 -7.7 -3.65 -8.55 -3.9 -9.4 L-4.5 -10.25 Q-5.3 -11.0 -6.5 -10.8" fill="#cc6666" fill-rule="evenodd" stroke="none"/>
    <path d="M-6.5 -10.8 Q-5.3 -11.0 -4.5 -10.25 L-3.9 -9.4 Q-3.65 -8.55 -3.75 -7.7 -3.85 -7.15 -4.25 -6.8 L-4.05 -7.2 -3.95 -7.9 Q-4.1 -9.8 -6.2 -9.6 -7.1 -9.3 -7.25 -8.4 L-7.25 -7.45 Q-6.9 -5.8 -5.0 -6.3 L-7.75 -6.1 -8.45 -6.6 Q-9.1 -7.5 -8.8 -8.5 -8.1 -10.1 -6.5 -10.8" fill="#ff99cc" fill-rule="evenodd" stroke="none"/>
    <path d="M-4.25 -6.8 L-4.3 -6.75 -5.0 -6.3 Q-6.9 -5.8 -7.25 -7.45 L-7.25 -8.4 Q-7.1 -9.3 -6.2 -9.6 -4.1 -9.8 -3.95 -7.9 L-4.05 -7.2 -4.25 -6.8" fill="#ffff99" fill-rule="evenodd" stroke="none"/>
    <path d="M-2.1 3.9 L-1.9 4.05 -2.1 3.9" fill="#cc6699" fill-rule="evenodd" stroke="none"/>
  </g>
</svg>
