<?xml version="1.0" encoding="UTF-8" standalone="no"?>
<svg xmlns:xlink="http://www.w3.org/1999/xlink" height="101.25px" width="34.3px" xmlns="http://www.w3.org/2000/svg">
  <g transform="matrix(1.0, 0.0, 0.0, 1.0, 5.15, 6.65)">
    <path d="M11.3 26.55 L10.6 26.75 Q10.8 26.05 11.35 25.35 14.95 20.8 13.95 15.7 14.05 14.05 13.55 12.4 L12.3 8.85 Q11.05 5.4 8.9 2.35 L7.7 0.55 Q5.6 -2.5 2.35 -4.3 L-0.6 -5.85 -0.8 -5.95 -0.65 -6.0 -0.6 -6.0 -0.5 -6.05 -0.45 -6.05 3.15 -5.45 4.4 -4.8 8.6 -1.9 Q13.2 1.9 15.75 6.6 18.3 11.2 19.75 16.45 L19.75 17.65 Q16.7 17.75 15.35 20.45 L12.75 25.45 11.95 26.15 11.3 26.55 M22.95 23.1 L22.3 22.75 Q21.7 22.3 21.8 21.8 L21.8 20.7 Q20.95 20.3 20.45 21.05 20.2 22.5 21.2 23.3 22.1 23.8 22.95 23.1 M15.1 23.2 L15.1 23.15 15.3 22.75 15.6 22.0 Q16.45 19.85 18.75 18.5 20.75 18.45 22.15 19.9 L24.65 22.75 Q28.1 28.7 28.2 35.7 L28.2 37.3 28.15 37.65 28.05 39.0 26.05 46.7 25.55 47.75 25.05 48.65 Q20.75 46.05 15.3 45.55 L7.3 46.0 6.8 46.1 Q7.7 45.5 9.4 45.4 13.95 45.15 16.6 41.75 17.25 40.85 17.5 39.7 19.2 31.65 15.6 24.55 L15.1 23.2 M17.55 47.05 L19.1 47.35 24.2 49.35 Q25.95 50.7 26.6 52.85 27.25 54.95 26.8 57.15 L25.25 60.3 Q22.95 55.7 18.05 54.65 L17.1 54.55 18.3 53.15 Q19.3 49.9 17.55 47.05 M0.8 66.45 L0.8 66.4 0.85 66.45 0.8 66.45 M12.25 57.0 L12.15 57.0 12.25 56.95 12.25 57.0" fill="#5e6777" fill-rule="evenodd" stroke="none"/>
    <path d="M-0.8 -5.95 L-0.6 -5.85 2.35 -4.3 Q5.6 -2.5 7.7 0.55 L8.9 2.35 Q11.05 5.4 12.3 8.85 L13.55 12.4 Q14.05 14.05 13.95 15.7 14.95 20.8 11.35 25.35 10.8 26.05 10.6 26.75 L11.3 26.55 8.6 26.7 Q4.85 25.5 3.3 21.8 2.3 17.75 2.15 13.35 2.0 8.85 -0.55 5.05 L-3.5 1.3 Q-4.9 -0.6 -4.2 -3.15 L-4.15 -3.25 -3.5 -4.15 -0.9 -5.9 -0.8 -5.95 M26.05 46.7 L25.1 48.65 25.05 48.65 25.55 47.75 26.05 46.7 M7.3 46.0 L4.9 46.7 2.65 47.95 Q-0.3 40.9 0.55 32.95 1.35 28.3 3.55 24.55 L5.45 26.95 Q6.3 28.25 7.8 28.7 11.55 29.25 13.7 26.4 L15.1 23.2 15.6 24.55 Q19.2 31.65 17.5 39.7 17.25 40.85 16.6 41.75 13.95 45.15 9.4 45.4 7.7 45.5 6.8 46.1 L7.3 46.0 M6.5 49.45 Q5.95 49.4 5.6 49.9 3.6 52.65 5.8 54.95 L6.8 54.95 Q7.45 54.6 7.6 53.8 L7.9 52.1 Q8.25 50.05 6.5 49.45 M6.3 29.25 Q6.1 29.25 5.95 29.4 2.45 32.75 2.95 37.8 L3.2 39.9 Q3.6 42.85 6.35 42.5 7.25 41.8 7.05 40.65 6.3 36.35 7.45 32.05 8.0 30.0 6.3 29.25 M3.35 5.2 L3.15 5.3 3.0 5.45 2.85 5.6 3.25 8.15 Q4.55 13.9 5.2 19.7 5.3 20.6 6.1 21.0 7.7 21.7 8.05 20.1 8.95 15.95 7.85 11.75 L7.4 10.25 Q6.45 7.15 3.85 5.25 L3.35 5.2 M3.15 53.85 Q2.85 53.25 2.15 53.45 0.8 54.25 0.95 55.85 1.35 56.6 2.0 56.65 1.85 55.75 2.6 55.25 3.3 54.7 3.15 53.85 M17.1 54.55 L12.4 54.95 Q9.5 55.55 7.2 57.35 6.0 58.2 4.45 58.85 L1.2 58.95 Q-0.2 57.1 0.0 55.05 0.15 52.95 1.2 51.15 L1.5 50.9 Q1.35 50.45 1.75 50.15 5.3 47.2 10.0 46.8 L17.55 47.05 Q19.3 49.9 18.3 53.15 L17.1 54.55 M14.85 80.75 L14.8 80.75 15.35 80.5 14.85 80.75" fill="#8b94a3" fill-rule="evenodd" stroke="none"/>
    <path d="M11.3 26.55 L11.95 26.15 12.75 25.45 15.35 20.45 Q16.7 17.75 19.75 17.65 L19.75 16.45 Q18.3 11.2 15.75 6.6 13.2 1.9 8.6 -1.9 L4.4 -4.8 3.15 -5.45 -0.45 -6.05 -0.5 -6.05 -0.6 -6.0 -0.65 -6.0 -0.8 -5.95 -0.9 -5.9 -3.5 -4.15 -4.15 -3.25 -4.2 -3.15 Q-4.9 -0.6 -3.5 1.3 L-0.55 5.05 Q2.0 8.85 2.15 13.35 2.3 17.75 3.3 21.8 4.85 25.5 8.6 26.7 L11.3 26.55 M20.85 17.75 Q23.95 19.4 25.65 22.35 27.35 25.2 28.3 28.4 30.75 39.15 26.15 48.65 L25.65 49.2 Q27.6 50.95 27.85 53.55 28.1 56.15 27.3 58.45 L25.55 60.95 Q26.6 64.75 26.8 68.9 27.05 73.05 25.75 76.85 23.95 78.5 24.2 80.75 24.4 82.95 23.65 84.95 L21.75 89.55 Q20.8 91.85 18.35 93.05 L16.15 93.2 Q15.1 93.45 14.4 92.35 13.75 90.35 14.4 88.3 L14.2 88.05 12.15 92.2 Q10.95 94.35 8.4 94.55 5.65 94.95 3.8 93.05 2.7 90.5 3.8 87.75 4.45 84.45 4.4 81.2 L3.05 79.65 Q2.3 81.75 0.35 82.8 -0.6 83.2 -1.35 82.8 L-3.0 81.95 Q-3.3 81.35 -3.8 81.1 -4.75 78.15 -4.5 74.85 -4.2 71.55 -2.75 68.95 -4.05 67.35 -3.65 65.65 L-2.55 62.25 Q-1.5 60.5 -0.05 58.95 -1.45 57.25 -1.15 55.05 -0.85 52.9 -0.05 51.15 0.8 49.75 2.0 48.65 -0.7 42.7 -0.65 35.95 -0.55 29.2 3.05 23.7 1.25 19.35 1.25 14.4 1.2 9.45 -1.4 5.35 -5.3 2.35 -5.15 -2.1 -4.8 -4.85 -2.35 -6.15 2.1 -7.55 5.7 -4.95 9.3 -2.4 12.4 0.6 19.05 8.1 20.85 17.75 M22.95 23.1 Q22.1 23.8 21.2 23.3 20.2 22.5 20.45 21.05 20.95 20.3 21.8 20.7 L21.8 21.8 Q21.7 22.3 22.3 22.75 L22.95 23.1 M26.05 46.7 L28.05 39.0 28.15 37.65 28.2 37.3 28.2 35.7 Q28.1 28.7 24.65 22.75 L22.15 19.9 Q20.75 18.45 18.75 18.5 16.45 19.85 15.6 22.0 L15.3 22.75 15.1 23.15 15.1 23.2 13.7 26.4 Q11.55 29.25 7.8 28.7 6.3 28.25 5.45 26.95 L3.55 24.55 Q1.35 28.3 0.55 32.95 -0.3 40.9 2.65 47.95 L4.9 46.7 7.3 46.0 15.3 45.55 Q20.75 46.05 25.05 48.65 L25.1 48.65 26.05 46.7 M3.15 53.85 Q3.3 54.7 2.6 55.25 1.85 55.75 2.0 56.65 1.35 56.6 0.95 55.85 0.8 54.25 2.15 53.45 2.85 53.25 3.15 53.85 M17.55 47.05 L10.0 46.8 Q5.3 47.2 1.75 50.15 1.35 50.45 1.5 50.9 L1.2 51.15 Q0.15 52.95 0.0 55.05 -0.2 57.1 1.2 58.95 L4.45 58.85 Q6.0 58.2 7.2 57.35 9.5 55.55 12.4 54.95 L17.1 54.55 18.05 54.65 Q22.95 55.7 25.25 60.3 L26.8 57.15 Q27.25 54.95 26.6 52.85 25.95 50.7 24.2 49.35 L19.1 47.35 17.55 47.05 M3.15 70.95 L3.35 71.05 3.55 71.75 Q3.0 73.9 3.2 76.2 3.35 78.5 4.4 80.2 6.5 81.9 9.3 82.0 12.0 82.15 14.25 81.15 L14.85 80.75 15.35 80.5 17.0 80.3 17.15 80.3 20.1 80.2 Q23.45 79.45 24.9 76.45 26.0 71.9 25.7 67.1 25.4 62.25 22.4 58.25 21.3 56.45 19.15 56.0 15.55 55.05 12.65 56.75 L12.4 56.9 12.25 56.95 12.15 57.0 6.8 59.8 0.55 59.6 Q-2.95 62.9 -2.7 67.5 -1.5 68.45 0.1 68.9 L0.45 68.95 3.15 70.95 M-1.3 81.85 L-0.4 82.1 Q1.25 81.7 1.9 80.05 2.0 79.5 2.45 79.15 2.85 78.8 2.5 78.15 1.0 78.25 -0.4 77.65 L-1.1 77.25 -1.6 76.65 -1.75 76.2 -1.8 75.55 Q-1.8 73.95 -3.6 73.6 -4.2 77.25 -3.0 80.55 L-2.9 80.65 -2.85 80.7 -2.8 80.75 -2.75 80.85 -2.55 81.05 -2.5 81.1 -1.65 81.7 -1.3 81.85 M-1.0 76.8 L-1.0 76.85 Q0.5 77.8 2.3 77.6 1.95 75.25 2.45 72.8 L0.5 71.6 0.0 71.3 -2.4 69.6 -3.3 72.2 Q-3.55 73.3 -2.65 73.7 L-1.15 74.5 Q-1.45 75.7 -1.0 76.8 M9.15 83.9 L8.8 83.85 Q6.7 83.55 5.3 82.65 L4.95 85.6 Q5.85 86.75 7.25 86.65 7.65 87.25 7.45 88.0 L7.05 89.4 7.8 89.55 12.65 89.15 Q14.0 86.05 14.45 82.8 L12.6 83.2 Q11.0 84.05 9.15 83.9 M7.4 90.2 Q6.7 90.05 6.45 89.35 7.5 87.95 6.45 87.5 5.4 87.05 4.75 86.2 4.65 88.15 4.15 90.05 3.65 91.95 5.35 93.4 L9.5 93.5 Q11.45 92.3 12.3 90.1 L9.5 90.4 7.75 90.25 7.45 90.2 7.4 90.2 M19.45 82.0 L16.9 82.4 15.45 82.5 15.3 84.2 Q15.05 85.0 15.45 85.8 16.05 86.45 16.75 86.35 L18.15 86.55 17.75 88.6 Q18.4 89.05 19.25 88.95 L20.75 88.85 Q23.35 85.1 23.35 80.3 L20.25 81.7 19.45 82.0 M17.4 89.2 L17.15 89.1 17.55 87.15 Q16.35 87.1 15.45 86.5 L15.1 89.5 Q14.75 91.05 15.8 92.35 L16.95 92.55 19.0 92.0 Q20.05 90.95 20.7 89.4 L17.9 89.3 17.85 89.3 17.4 89.2" fill="#000000" fill-rule="evenodd" stroke="none"/>
    <path d="M3.9 64.1 Q5.8 65.0 4.8 67.35 L3.15 70.95 0.45 68.95 0.1 68.9 Q0.25 67.6 0.8 66.45 L0.85 66.45 Q2.25 68.15 3.15 66.05 L3.65 64.9 3.9 64.1 M14.8 80.75 Q15.45 79.0 16.4 77.4 L17.35 75.2 Q17.25 76.05 18.05 76.4 21.45 77.8 22.0 73.95 22.4 71.2 20.0 70.5 18.75 70.55 18.25 71.6 L18.75 68.55 Q18.3 63.8 15.4 59.95 14.1 58.25 12.25 57.0 L12.4 56.9 12.65 56.75 Q15.55 55.05 19.15 56.0 21.3 56.45 22.4 58.25 25.4 62.25 25.7 67.1 26.0 71.9 24.9 76.45 23.45 79.45 20.1 80.2 L17.15 80.3 17.0 80.3 15.35 80.5 14.8 80.75" fill="#5e6781" fill-rule="evenodd" stroke="none"/>
    <path d="M0.8 66.4 L0.8 66.45 Q0.25 67.6 0.1 68.9 -1.5 68.45 -2.7 67.5 -2.95 62.9 0.55 59.6 L6.8 59.8 12.15 57.0 12.25 57.0 Q14.1 58.25 15.4 59.95 18.3 63.8 18.75 68.55 L18.25 71.6 Q18.75 70.55 20.0 70.5 22.4 71.2 22.0 73.95 21.45 77.8 18.05 76.4 17.25 76.05 17.35 75.2 L16.4 77.4 Q15.45 79.0 14.8 80.75 L14.85 80.75 14.25 81.15 Q12.0 82.15 9.3 82.0 6.5 81.9 4.4 80.2 3.35 78.5 3.2 76.2 3.0 73.9 3.55 71.75 L3.35 71.05 3.15 70.95 4.8 67.35 Q5.8 65.0 3.9 64.1 4.15 62.7 2.7 62.05 L2.15 62.15 Q0.9 63.0 0.45 64.4 0.1 65.55 0.8 66.4 M10.45 70.05 Q8.9 70.7 8.75 72.45 8.45 74.95 8.95 77.4 9.15 78.35 10.15 78.5 11.1 78.65 11.75 78.15 14.0 76.65 14.0 73.8 14.0 70.2 10.45 70.05" fill="#878eb0" fill-rule="evenodd" stroke="none"/>
    <path d="M12.25 57.0 L12.25 56.95 12.4 56.9 12.25 57.0" fill="#4a5c93" fill-rule="evenodd" stroke="none"/>
    <path d="M-1.1 77.25 L-0.4 77.65 Q1.0 78.25 2.5 78.15 2.85 78.8 2.45 79.15 2.0 79.5 1.9 80.05 1.25 81.7 -0.4 82.1 L-1.3 81.85 Q-1.5 79.55 -1.1 77.25 M0.5 71.6 L2.45 72.8 Q1.95 75.25 2.3 77.6 0.5 77.8 -1.0 76.85 L-1.0 76.8 Q-0.7 74.8 0.1 72.85 L0.5 71.6 M7.8 89.55 L8.95 86.1 Q9.3 84.85 9.15 83.9 11.0 84.05 12.6 83.2 L14.45 82.8 Q14.0 86.05 12.65 89.15 L7.8 89.55 M7.45 90.2 L7.75 90.25 9.5 90.4 12.3 90.1 Q11.45 92.3 9.5 93.5 L5.35 93.4 Q6.9 92.25 7.3 90.4 L7.45 90.2 M18.2 86.55 L18.75 85.05 19.2 83.1 19.45 82.0 20.25 81.7 23.35 80.3 Q23.35 85.1 20.75 88.85 L19.25 88.95 Q18.4 89.05 17.75 88.6 L18.15 86.55 18.15 86.6 18.2 86.55 M17.9 89.3 L20.7 89.4 Q20.05 90.95 19.0 92.0 L16.95 92.55 17.7 90.05 17.9 89.3" fill="#8b94ab" fill-rule="evenodd" stroke="none"/>
    <path d="M0.8 66.4 Q0.1 65.55 0.45 64.4 0.9 63.0 2.15 62.15 L2.7 62.05 Q4.15 62.7 3.9 64.1 L3.65 64.9 3.15 66.05 Q2.25 68.15 0.85 66.45 L0.8 66.4 M10.45 70.05 Q14.0 70.2 14.0 73.8 14.0 76.65 11.75 78.15 11.1 78.65 10.15 78.5 9.15 78.35 8.95 77.4 8.45 74.95 8.75 72.45 8.9 70.7 10.45 70.05 M-1.3 81.85 L-1.65 81.7 -2.5 81.1 -2.55 81.05 -2.75 80.85 -2.8 80.75 -2.85 80.7 -2.9 80.65 -3.0 80.55 Q-4.2 77.25 -3.6 73.6 -1.8 73.95 -1.8 75.55 L-1.75 76.2 -1.6 76.65 -1.1 77.25 Q-1.5 79.55 -1.3 81.85 M0.5 71.6 L0.1 72.85 Q-0.7 74.8 -1.0 76.8 -1.45 75.7 -1.15 74.5 L-2.65 73.7 Q-3.55 73.3 -3.3 72.2 L-2.4 69.6 0.0 71.3 0.5 71.6 M9.15 83.9 Q9.3 84.85 8.95 86.1 L7.8 89.55 7.05 89.4 7.45 88.0 Q7.65 87.25 7.25 86.65 5.85 86.75 4.95 85.6 L5.3 82.65 Q6.7 83.55 8.8 83.85 L9.15 83.9 M5.35 93.4 Q3.65 91.95 4.15 90.05 4.65 88.15 4.75 86.2 5.4 87.05 6.45 87.5 7.5 87.95 6.45 89.35 6.7 90.05 7.4 90.2 L7.3 90.4 Q6.9 92.25 5.35 93.4 M18.2 86.55 L18.15 86.55 16.75 86.35 Q16.05 86.45 15.45 85.8 15.05 85.0 15.3 84.2 L15.45 82.5 16.9 82.4 19.45 82.0 19.2 83.1 18.75 85.05 18.2 86.55 M16.95 92.55 L15.8 92.35 Q14.75 91.05 15.1 89.5 L15.45 86.5 Q16.35 87.1 17.55 87.15 L17.15 89.1 17.4 89.2 17.85 89.3 17.9 89.3 17.7 90.05 16.95 92.55" fill="#b3b9ce" fill-rule="evenodd" stroke="none"/>
    <path d="M18.15 86.55 L18.2 86.55 18.15 86.6 18.15 86.55" fill="#c2c7cd" fill-rule="evenodd" stroke="none"/>
    <path d="M17.4 89.2 L17.85 89.3 17.9 89.3 17.85 89.3 17.4 89.2" fill="#7a8bbc" fill-rule="evenodd" stroke="none"/>
    <path d="M3.35 5.2 L3.85 5.25 Q6.45 7.15 7.4 10.25 L7.85 11.75 Q8.95 15.95 8.05 20.1 7.7 21.7 6.1 21.0 5.3 20.6 5.2 19.7 4.55 13.9 3.25 8.15 L2.85 5.6 3.0 5.45 3.15 5.3 3.35 5.2 M6.3 29.25 Q8.0 30.0 7.45 32.05 6.3 36.35 7.05 40.65 7.25 41.8 6.35 42.5 3.6 42.85 3.2 39.9 L2.95 37.8 Q2.45 32.75 5.95 29.4 6.1 29.25 6.3 29.25 M6.5 49.45 Q8.25 50.05 7.9 52.1 L7.6 53.8 Q7.45 54.6 6.8 54.95 L5.8 54.95 Q3.6 52.65 5.6 49.9 5.95 49.4 6.5 49.45" fill="#b3b9c1" fill-rule="evenodd" stroke="none"/>
    <path d="M7.4 90.2 L7.45 90.2 7.3 90.4 7.4 90.2" fill="#a0accf" fill-rule="evenodd" stroke="none"/>
  </g>
</svg>
