<?xml version="1.0" encoding="UTF-8" standalone="no"?>
<svg xmlns:xlink="http://www.w3.org/1999/xlink" height="150.45px" width="52.35px" xmlns="http://www.w3.org/2000/svg">
  <g transform="matrix(1.0, 0.0, 0.0, 1.0, 9.4, 11.6)">
    <path d="M0.55 -0.25 L0.4 -0.4 Q-6.1 4.25 -6.45 8.15 -4.95 7.0 -2.95 4.05 -0.9 0.95 0.55 -0.25 M2.25 -10.75 L5.7 -10.1 6.65 -9.0 7.05 -9.65 7.2 -9.6 Q8.6 -9.1 9.7 -8.05 L10.95 -6.75 11.85 -6.2 Q13.7 -4.05 14.95 -1.45 L15.0 -1.35 15.1 -1.15 14.5 -0.4 11.6 -0.45 11.7 -0.3 Q10.1 0.4 8.7 1.7 5.15 5.05 4.8 9.8 L4.85 10.55 4.75 10.5 5.1 13.7 5.85 22.6 Q6.1 24.9 7.85 25.3 L11.95 24.65 13.4 24.35 13.9 24.25 16.05 24.35 18.5 23.3 18.6 23.25 18.65 23.2 Q19.0 22.45 18.85 21.65 L19.8 23.1 19.8 23.45 20.15 24.05 20.3 24.7 20.4 27.9 20.4 28.4 Q20.7 32.1 20.35 35.75 L19.5 43.1 Q18.95 46.7 18.95 50.45 L19.05 51.8 19.3 52.5 19.15 52.85 19.2 53.15 Q19.3 54.1 18.65 54.7 L18.5 54.75 Q18.25 55.8 18.3 56.9 17.75 57.5 17.7 58.35 L17.7 58.85 Q16.35 60.2 16.6 62.05 16.9 64.15 19.0 64.2 L19.85 66.45 Q20.7 69.5 21.8 72.45 L21.65 72.65 21.2 72.2 Q19.9 73.15 17.9 75.9 16.15 78.3 14.55 79.2 L12.4 79.5 Q14.15 78.7 13.75 75.9 13.6 75.05 12.9 74.65 L7.25 71.65 7.2 71.4 Q6.85 68.1 3.25 68.45 2.05 68.95 1.4 70.15 0.75 71.3 1.0 72.5 1.55 75.0 3.0 76.65 L3.55 76.95 2.95 76.65 1.75 76.6 Q1.8 77.05 2.55 77.9 3.15 78.65 3.2 79.2 L-1.6 79.05 Q-4.15 78.3 -5.5 76.3 -5.25 73.7 -3.65 70.1 L-1.15 64.15 -0.5 61.85 0.15 59.4 Q0.55 56.5 -1.5 54.95 -0.6 54.5 0.0 53.45 L0.95 51.55 Q0.8 51.0 0.25 50.75 L-0.7 50.3 Q-1.1 49.2 -0.1 47.55 0.9 46.0 0.4 44.85 0.1 40.65 -0.95 35.4 L-3.15 26.2 -4.35 18.6 Q-5.1 14.7 -6.05 11.95 -6.15 10.0 -6.6 8.05 -6.95 6.7 -7.4 5.5 -6.8 4.1 -6.85 2.55 -6.85 1.3 -7.35 -0.75 L-7.3 -1.2 Q-6.95 -3.45 -8.5 -4.65 L-8.45 -4.8 Q-8.1 -5.7 -8.25 -6.35 L-8.35 -6.15 Q-7.6 -8.55 -5.4 -9.95 L-5.0 -10.05 -3.55 -10.3 -1.05 -10.85 2.25 -10.75 M6.4 79.0 L6.15 78.95 6.05 78.9 6.4 79.0 M-8.5 7.35 L-8.5 7.4 -8.45 7.55 -8.4 7.9 -8.6 7.2 -8.5 7.35 M8.25 3.85 Q9.45 2.25 11.7 1.7 L13.95 1.95 14.55 2.4 14.75 2.75 17.0 4.55 Q18.45 5.9 18.75 7.65 L18.75 8.3 16.25 7.55 13.75 7.5 12.5 6.5 11.7 7.25 13.45 8.4 Q14.2 9.3 15.75 9.6 L18.25 10.15 19.8 16.9 19.8 18.65 18.7 19.35 Q17.8 19.85 18.25 20.75 L17.0 21.75 15.5 22.4 14.3 21.85 Q13.6 21.45 13.15 21.5 L11.15 22.7 11.5 19.75 10.95 10.15 10.95 10.1 Q11.2 8.0 10.45 5.95 9.85 4.15 8.25 3.85 M7.25 11.8 L7.1 11.5 6.8 10.35 7.25 11.6 7.25 11.8 M0.4 12.6 L0.0 12.65 -0.15 12.75 -0.25 12.9 -0.4 13.15 -0.4 13.6 -0.4 13.85 -0.7 14.35 Q-1.25 16.55 -1.0 18.9 -0.4 23.5 -0.25 28.2 0.0 35.3 3.35 41.35 L3.45 42.55 Q3.5 45.05 5.85 45.3 6.4 45.35 6.7 44.95 9.85 39.85 7.0 34.4 6.35 31.7 6.35 28.9 6.35 22.15 3.5 16.25 L3.45 15.75 Q3.05 13.8 1.2 13.2 L1.05 13.0 0.9 12.75 0.4 12.6 M8.05 47.7 Q7.2 48.05 6.5 48.7 4.75 50.25 5.05 52.45 5.5 55.65 7.3 58.2 9.3 60.95 12.5 60.65 13.55 60.55 13.8 59.55 14.7 56.2 13.85 52.6 12.75 47.85 8.05 47.7 M10.3 55.75 Q9.05 53.4 8.75 51.55 10.1 52.6 11.05 55.1 L12.65 59.3 12.5 59.65 10.3 55.75 M11.95 85.6 L12.6 85.65 14.55 85.85 Q16.9 86.0 17.85 84.55 16.95 83.95 15.75 83.8 L18.4 83.3 18.65 83.35 19.05 83.8 18.6 83.3 19.25 83.35 Q19.15 83.55 19.2 83.8 L19.6 84.6 19.7 85.0 19.7 85.55 19.5 85.9 Q19.3 86.6 19.9 87.15 L19.95 87.4 20.0 87.6 19.9 87.9 19.85 88.25 19.75 88.3 Q18.4 89.3 19.7 90.35 L19.75 90.9 Q20.0 91.6 19.75 92.3 18.85 92.9 19.4 93.8 L19.65 94.3 20.05 95.0 Q20.4 95.75 19.8 96.2 L19.3 96.75 Q18.7 97.9 19.9 98.25 L20.2 99.0 Q20.55 100.25 19.8 101.2 L19.5 101.55 Q18.75 102.5 19.85 103.35 L19.9 103.8 19.8 103.7 19.75 103.6 19.7 103.6 19.6 103.55 19.5 103.55 Q19.35 103.95 19.8 104.85 L19.8 104.9 19.75 105.05 Q19.6 105.9 19.6 106.75 L19.4 106.85 18.5 107.05 17.85 107.1 17.95 107.1 18.0 107.1 Q17.9 106.7 18.4 106.4 18.9 106.1 18.75 105.65 L16.5 105.55 14.05 105.55 11.95 106.0 11.6 106.1 11.05 106.35 10.65 106.7 10.6 106.7 10.5 106.8 10.3 107.1 10.4 107.3 10.75 108.0 Q10.95 108.5 11.4 108.65 L11.4 108.7 9.85 108.8 10.05 109.3 8.6 109.4 Q7.85 109.1 7.85 108.35 L8.15 107.2 Q8.3 106.8 8.7 106.75 L8.45 106.85 Q8.2 106.55 8.1 106.05 L8.05 105.4 7.7 105.25 7.2 104.6 Q7.05 102.8 7.95 102.6 L7.75 101.4 Q7.3 101.4 7.05 101.05 L6.6 100.1 Q6.8 97.95 7.8 98.35 L7.15 98.4 Q7.1 97.7 7.35 96.95 L7.45 96.65 7.2 96.65 Q6.45 95.15 7.2 94.2 7.2 93.8 7.55 93.7 L7.55 92.6 7.6 92.2 Q7.1 92.0 7.05 91.65 6.55 90.75 7.15 89.8 L7.55 89.3 Q7.5 88.5 7.75 87.75 7.1 87.6 7.7 86.4 L8.1 86.2 Q8.25 85.95 8.5 86.05 8.85 84.85 10.05 84.4 L10.1 84.4 10.15 84.4 10.05 84.4 10.05 84.45 10.35 85.05 10.85 85.65 11.95 85.6 M7.0 82.3 L7.35 83.0 7.45 83.15 Q6.35 84.2 5.4 83.9 1.75 84.25 -1.35 82.65 L-1.15 81.3 Q3.3 82.35 6.8 81.3 L7.0 82.3 M12.6 117.25 Q15.85 119.75 18.4 122.95 L19.35 124.35 19.85 125.0 19.15 125.05 13.45 128.1 Q11.85 127.3 9.85 125.85 L6.45 123.25 Q2.2 120.15 -1.15 119.85 L-4.3 119.4 -4.9 115.05 Q-5.05 112.6 -3.95 111.0 -3.65 110.55 -2.75 110.15 L-1.3 109.5 Q0.35 108.6 -0.7 107.1 -1.5 106.4 -1.05 104.6 L-0.15 103.45 0.9 102.45 Q1.95 101.15 0.7 99.95 0.5 92.4 -0.25 86.55 L-0.25 84.65 3.3 85.1 6.7 84.85 6.25 86.6 Q5.9 87.7 6.6 88.4 5.45 89.85 5.65 91.85 6.4 92.3 6.45 92.85 L6.1 93.95 5.45 95.05 Q5.25 95.7 5.65 96.3 6.5 97.1 5.85 98.55 5.1 100.1 5.65 101.0 6.4 101.5 6.45 102.25 L6.2 103.7 Q5.9 104.6 6.0 105.1 6.1 105.85 7.05 106.3 L6.85 107.85 Q6.7 108.8 6.95 109.45 7.7 110.8 9.55 110.5 L10.85 109.95 12.2 109.9 Q13.95 109.0 18.6 108.35 L19.9 108.1 Q20.8 107.95 21.2 107.55 21.85 107.65 22.95 109.1 L27.8 113.9 32.55 118.75 34.85 122.95 Q34.15 123.2 33.65 122.25 L32.85 120.65 27.65 115.15 22.85 110.75 22.8 110.75 21.7 110.85 21.5 110.7 20.35 110.3 Q19.15 110.15 17.85 110.3 L16.75 110.5 15.85 110.7 Q13.8 111.3 11.9 112.2 L11.0 112.7 10.95 112.75 Q9.95 113.5 9.7 114.55 9.6 114.95 9.9 115.15 L9.95 115.2 10.15 115.05 9.7 115.35 12.6 117.25 M11.25 90.2 L9.7 90.3 9.25 91.85 Q9.65 92.45 10.3 92.8 L11.15 93.1 13.2 93.15 15.55 92.85 16.7 92.8 17.85 92.95 Q18.3 92.6 18.3 91.8 L18.25 90.4 17.85 89.85 13.7 90.05 11.25 90.2 M11.8 86.95 L9.7 86.9 Q9.4 87.4 9.7 87.95 9.9 88.5 10.5 88.75 L11.4 88.75 16.85 88.75 Q18.05 87.95 17.85 87.2 17.6 86.75 17.15 86.9 L16.4 87.2 13.0 86.9 11.8 86.95 M10.9 94.45 L10.5 94.55 10.05 94.55 9.65 94.9 Q9.3 95.35 9.45 95.85 9.45 96.3 10.0 96.3 L10.15 96.35 10.65 96.65 11.25 96.55 14.2 96.45 17.85 96.65 18.25 95.95 18.4 94.75 18.0 94.0 17.0 94.0 10.9 94.45 M10.75 97.9 L10.3 98.15 Q9.2 98.85 8.95 100.2 9.4 101.1 10.35 101.25 L11.1 101.25 11.45 101.2 13.0 100.7 14.55 100.55 15.55 100.4 16.7 100.45 Q18.05 100.45 18.1 99.2 18.25 98.65 17.9 98.4 L17.2 97.9 Q17.1 97.75 17.3 97.6 L14.9 97.5 Q13.3 97.35 12.3 97.5 L10.75 97.9 M11.95 104.8 L13.9 104.65 17.85 104.15 18.05 103.25 18.1 102.3 17.85 101.65 Q14.25 101.3 11.05 102.5 L10.5 102.75 9.7 103.1 9.65 103.2 9.55 103.65 9.55 104.25 9.65 104.6 9.9 104.95 10.0 105.05 10.05 105.1 10.7 104.95 11.95 104.8 M7.7 100.0 L7.7 100.25 7.75 100.05 7.7 100.0 M-0.4 3.15 Q-0.85 2.95 -1.05 3.35 L-1.5 3.95 -3.8 6.5 Q-5.05 8.05 -5.25 9.4 L-4.7 9.4 -2.55 6.3 Q-1.0 4.3 -0.4 3.15" fill="#333333" fill-rule="evenodd" stroke="none"/>
    <path d="M2.25 -10.75 L3.15 -11.6 Q5.65 -11.55 7.9 -10.5 L10.75 -9.05 Q12.55 -8.1 13.85 -6.6 17.2 -2.6 18.15 2.6 18.4 4.2 19.45 5.55 L19.6 5.7 19.6 6.0 19.65 6.25 19.35 5.55 20.6 8.95 19.65 10.15 20.2 11.3 20.2 11.45 20.3 11.7 Q20.25 12.15 20.35 12.6 L21.1 15.9 22.0 20.4 22.35 25.85 22.4 25.9 22.45 26.95 22.55 28.95 22.5 29.65 22.5 30.1 22.3 36.4 21.6 43.75 21.25 44.35 21.25 44.75 21.15 45.15 21.15 45.2 Q20.95 47.7 22.0 49.2 L21.4 53.15 21.0 57.15 Q20.75 61.75 23.25 64.45 L24.95 71.75 Q25.35 76.05 23.25 78.75 L23.55 79.4 Q22.65 79.6 22.95 80.9 23.25 82.5 22.75 83.1 L21.85 84.4 21.9 89.7 Q22.0 92.65 21.75 94.75 L22.05 98.35 Q22.3 100.3 21.75 101.75 L22.5 103.9 22.95 106.2 Q25.9 108.75 29.3 112.9 L35.1 119.85 Q35.75 120.6 36.8 123.25 37.65 125.45 39.0 126.2 39.0 127.55 40.55 127.9 42.3 128.3 42.65 129.2 43.1 131.05 42.85 131.65 42.2 132.15 42.2 133.7 41.15 133.25 41.05 134.4 40.9 135.8 40.3 136.0 37.8 137.2 33.85 137.9 L26.95 138.85 24.3 138.55 21.6 138.45 Q18.35 138.15 16.7 136.75 12.7 135.9 6.95 132.0 6.55 131.6 5.65 131.1 L4.2 130.25 Q2.6 129.2 3.2 127.45 L1.55 127.65 Q0.25 128.2 -0.25 128.2 -4.15 128.35 -6.0 126.2 -7.2 123.25 -5.7 119.55 L-6.1 118.7 Q-6.3 118.2 -6.0 117.85 L-6.25 113.75 Q-6.1 111.35 -4.6 110.1 -2.9 109.65 -2.65 108.15 L-2.6 105.2 Q-1.4 103.85 -1.2 101.15 L-1.15 96.85 -1.5 90.85 Q-1.85 87.0 -1.35 84.85 -2.35 84.2 -2.4 82.9 L-2.1 80.65 -4.7 78.95 Q-6.2 77.9 -6.8 76.75 -6.65 74.75 -5.25 71.65 -3.8 68.2 -3.5 66.65 -2.2 63.1 -1.6 59.5 L-2.8 57.8 -3.5 55.9 Q-2.95 53.75 -1.5 52.65 -1.45 52.1 -2.1 51.6 -2.9 51.1 -2.95 50.65 L-1.55 45.25 Q-1.05 42.05 -1.5 39.55 L-4.5 26.1 Q-6.05 18.95 -7.45 14.1 -7.6 12.6 -8.0 11.15 L-8.1 10.75 -8.35 9.8 Q-8.25 9.35 -8.3 8.7 L-8.4 8.05 -8.3 7.85 -8.4 7.8 -8.45 7.55 -8.5 7.4 -8.5 7.35 -8.9 5.95 -9.0 4.8 -9.15 3.85 -9.35 1.85 Q-9.65 -2.25 -8.35 -6.15 L-8.25 -6.35 Q-8.1 -5.7 -8.45 -4.8 L-8.5 -4.65 Q-6.95 -3.45 -7.3 -1.2 L-7.35 -0.75 Q-6.85 1.3 -6.85 2.55 -6.8 4.1 -7.4 5.5 -6.95 6.7 -6.6 8.05 -6.15 10.0 -6.05 11.95 -5.1 14.7 -4.35 18.6 L-3.15 26.2 -0.95 35.4 Q0.1 40.65 0.4 44.85 0.9 46.0 -0.1 47.55 -1.1 49.2 -0.7 50.3 L0.25 50.75 Q0.8 51.0 0.95 51.55 L0.0 53.45 Q-0.6 54.5 -1.5 54.95 0.55 56.5 0.15 59.4 L-0.5 61.85 -1.15 64.15 -3.65 70.1 Q-5.25 73.7 -5.5 76.3 -4.15 78.3 -1.6 79.05 L3.2 79.2 Q3.15 78.65 2.55 77.9 1.8 77.05 1.75 76.6 L2.95 76.65 3.55 76.95 3.95 77.25 4.0 77.3 5.6 78.5 6.0 78.85 6.05 78.9 6.15 78.95 6.4 79.0 12.4 79.5 14.55 79.2 Q16.15 78.3 17.9 75.9 19.9 73.15 21.2 72.2 L21.65 72.65 21.8 72.45 Q20.7 69.5 19.85 66.45 L19.0 64.2 Q16.9 64.15 16.6 62.05 16.35 60.2 17.7 58.85 L17.7 58.35 Q17.75 57.5 18.3 56.9 18.25 55.8 18.5 54.75 L18.65 54.7 Q19.3 54.1 19.2 53.15 L19.15 52.85 19.3 52.5 19.05 51.8 18.95 50.45 Q18.95 46.7 19.5 43.1 L20.35 35.75 Q20.7 32.1 20.4 28.4 L20.4 27.9 20.3 24.7 20.15 24.05 19.8 23.45 19.8 23.1 18.85 21.65 Q19.0 22.45 18.65 23.2 L18.6 23.25 18.5 23.3 16.05 24.35 13.9 24.25 13.4 24.35 11.95 24.65 7.85 25.3 Q6.1 24.9 5.85 22.6 L5.1 13.7 4.75 10.5 4.85 10.55 4.8 9.8 Q5.15 5.05 8.7 1.7 10.1 0.4 11.7 -0.3 L11.6 -0.45 14.5 -0.4 15.1 -1.15 15.0 -1.35 14.95 -1.45 Q13.7 -4.05 11.85 -6.2 L10.95 -6.75 9.7 -8.05 Q8.6 -9.1 7.2 -9.6 L7.05 -9.65 6.65 -9.0 5.7 -10.1 2.25 -10.75 M25.9 12.6 L25.9 12.65 25.85 12.65 25.9 12.6 M11.15 22.7 L13.15 21.5 Q13.6 21.45 14.3 21.85 L15.5 22.4 17.0 21.75 18.25 20.75 Q17.8 19.85 18.7 19.35 L19.8 18.65 19.8 16.9 18.25 10.15 15.75 9.6 Q14.2 9.3 13.45 8.4 L11.7 7.25 12.5 6.5 13.75 7.5 16.25 7.55 18.75 8.3 18.75 7.65 Q18.45 5.9 17.0 4.55 L14.75 2.75 14.55 2.4 13.95 1.95 11.7 1.7 Q9.45 2.25 8.25 3.85 7.45 4.8 7.05 6.2 6.45 8.15 6.75 10.1 L6.8 10.25 6.8 10.35 7.1 11.5 7.25 11.8 7.3 14.15 7.2 18.85 Q7.2 21.5 7.55 23.4 L10.5 22.9 11.15 22.7 M15.75 83.8 L14.0 83.75 11.85 84.1 10.75 84.2 10.1 84.4 10.05 84.4 Q8.85 84.85 8.5 86.05 8.25 85.95 8.1 86.2 L7.7 86.4 Q7.1 87.6 7.75 87.75 7.5 88.5 7.55 89.3 L7.15 89.8 Q6.55 90.75 7.05 91.65 7.1 92.0 7.6 92.2 L7.55 92.6 7.55 93.7 Q7.2 93.8 7.2 94.2 6.45 95.15 7.2 96.65 L7.45 96.65 7.35 96.95 Q7.1 97.7 7.15 98.4 L7.8 98.35 Q6.8 97.95 6.6 100.1 L7.05 101.05 Q7.3 101.4 7.75 101.4 L7.95 102.6 Q7.05 102.8 7.2 104.6 L7.7 105.25 8.05 105.4 8.1 106.05 Q8.2 106.55 8.45 106.85 L8.7 106.75 Q8.3 106.8 8.15 107.2 L7.85 108.35 Q7.85 109.1 8.6 109.4 L10.05 109.3 9.85 108.8 11.4 108.7 11.45 108.7 11.5 108.7 12.05 108.55 13.0 108.4 14.25 107.75 12.9 108.1 17.95 107.1 17.85 107.1 18.5 107.05 19.4 106.85 19.6 106.75 Q19.6 105.9 19.75 105.05 L19.8 104.9 19.9 105.05 19.9 105.1 20.2 106.05 20.15 106.8 Q20.85 106.65 20.5 105.95 L20.3 105.55 20.15 104.8 20.15 104.7 20.15 104.6 20.0 103.9 19.8 103.7 19.9 103.8 19.85 103.35 Q18.75 102.5 19.5 101.55 L19.8 101.2 Q20.55 100.25 20.2 99.0 L19.9 98.25 Q18.7 97.9 19.3 96.75 L19.8 96.2 Q20.4 95.75 20.05 95.0 L19.65 94.3 19.4 93.8 Q18.85 92.9 19.75 92.3 20.0 91.6 19.75 90.9 L19.7 90.35 Q18.4 89.3 19.75 88.3 L19.85 88.25 19.9 87.9 20.0 87.6 19.95 87.4 19.9 87.15 Q19.3 86.6 19.5 85.9 L19.7 85.55 19.7 85.0 19.6 84.6 19.2 83.8 Q19.15 83.55 19.25 83.35 L18.6 83.3 19.05 83.8 18.65 83.35 18.4 83.3 15.75 83.8 M17.65 83.0 L17.6 83.15 17.85 83.1 17.65 83.0 M21.7 110.85 L22.8 110.75 22.85 110.75 27.65 115.15 32.85 120.65 33.65 122.25 Q34.15 123.2 34.85 122.95 L32.55 118.75 27.8 113.9 22.95 109.1 Q21.85 107.65 21.2 107.55 20.8 107.95 19.9 108.1 L18.6 108.35 Q13.95 109.0 12.2 109.9 L10.85 109.95 9.55 110.5 Q7.7 110.8 6.95 109.45 6.7 108.8 6.85 107.85 L7.05 106.3 Q6.1 105.85 6.0 105.1 5.9 104.6 6.2 103.7 L6.45 102.25 Q6.4 101.5 5.65 101.0 5.1 100.1 5.85 98.55 6.5 97.1 5.65 96.3 5.25 95.7 5.45 95.05 L6.1 93.95 6.45 92.85 Q6.4 92.3 5.65 91.85 5.45 89.85 6.6 88.4 5.9 87.7 6.25 86.6 L6.7 84.85 3.3 85.1 -0.25 84.65 -0.25 86.55 Q0.5 92.4 0.7 99.95 1.95 101.15 0.9 102.45 L-0.15 103.45 -1.05 104.6 Q-1.5 106.4 -0.7 107.1 0.35 108.6 -1.3 109.5 L-2.75 110.15 Q-3.65 110.55 -3.95 111.0 -5.05 112.6 -4.9 115.05 L-4.3 119.4 -1.15 119.85 Q2.2 120.15 6.45 123.25 L9.85 125.85 Q11.85 127.3 13.45 128.1 L19.15 125.05 19.85 125.0 19.35 124.35 18.4 122.95 Q15.85 119.75 12.6 117.25 L15.9 119.45 16.15 119.6 16.55 119.9 Q18.85 121.65 20.35 123.65 L21.2 124.85 22.2 124.3 Q23.25 123.85 24.7 123.7 L28.05 123.45 28.1 123.45 28.75 123.55 29.95 123.4 29.95 123.45 31.5 123.4 33.05 123.55 Q32.2 121.55 29.85 119.25 L26.1 115.2 Q25.65 114.4 24.25 113.15 22.85 111.9 22.5 111.1 L22.45 111.1 21.0 110.9 21.5 110.85 21.7 110.85 M7.0 82.3 L6.8 81.3 Q3.3 82.35 -1.15 81.3 L-1.35 82.65 Q1.75 84.25 5.4 83.9 6.35 84.2 7.45 83.15 L7.35 83.0 7.0 82.3 M21.4 80.2 L21.2 80.3 21.4 80.2 M41.75 129.35 Q41.4 128.8 40.85 128.85 L41.3 130.55 41.65 132.1 42.05 131.3 42.2 130.3 41.75 129.35 M20.25 115.95 L20.2 116.2 20.15 116.3 20.25 115.95 M7.7 100.0 L7.75 100.05 7.7 100.25 7.7 100.0 M15.75 112.05 L16.45 111.7 16.9 111.5 16.95 111.5 17.3 111.4 17.45 111.35 16.1 111.9 15.0 112.45 Q15.35 112.2 15.75 112.05 M18.0 136.3 L18.85 137.0 Q28.85 137.9 39.75 134.75 L39.1 134.0 Q39.6 133.1 39.3 131.8 L38.75 129.5 37.4 126.55 Q34.65 124.35 29.15 125.0 26.0 125.05 22.35 126.55 L16.1 129.5 15.65 129.55 Q12.45 129.85 8.8 126.95 L5.6 124.25 Q3.65 122.6 2.25 121.85 L-5.05 120.75 Q-5.6 122.35 -5.25 125.3 -1.7 127.25 3.3 125.75 L4.55 127.35 Q5.25 128.25 5.05 129.0 10.15 133.65 15.5 135.1 L17.2 135.95 18.0 136.3" fill="#000000" fill-rule="evenodd" stroke="none"/>
    <path d="M0.55 -0.25 Q-0.9 0.95 -2.95 4.05 -4.95 7.0 -6.45 8.15 -6.1 4.25 0.4 -0.4 L0.55 -0.25 M12.4 79.5 L6.4 79.0 6.05 78.9 6.0 78.85 5.6 78.5 4.0 77.3 3.95 77.25 3.55 76.95 3.0 76.65 Q1.55 75.0 1.0 72.5 0.75 71.3 1.4 70.15 2.05 68.95 3.25 68.45 6.85 68.1 7.2 71.4 L7.25 71.65 12.9 74.65 Q13.6 75.05 13.75 75.9 14.15 78.7 12.4 79.5 M-8.45 7.55 L-8.4 7.8 -8.3 7.85 -8.4 8.05 -8.4 7.9 -8.45 7.55 M11.15 22.7 L10.5 22.9 7.55 23.4 Q7.2 21.5 7.2 18.85 L7.3 14.15 7.25 11.8 7.25 11.6 6.8 10.35 6.8 10.25 6.75 10.1 Q6.45 8.15 7.05 6.2 7.45 4.8 8.25 3.85 9.85 4.15 10.45 5.95 11.2 8.0 10.95 10.1 L10.95 10.15 11.5 19.75 11.15 22.7 M0.4 12.6 L0.9 12.75 1.05 13.0 1.2 13.2 Q3.05 13.8 3.45 15.75 L3.5 16.25 Q6.35 22.15 6.35 28.9 6.35 31.7 7.0 34.4 9.85 39.85 6.7 44.95 6.4 45.35 5.85 45.3 3.5 45.05 3.45 42.55 L3.35 41.35 Q0.0 35.3 -0.25 28.2 -0.4 23.5 -1.0 18.9 -1.25 16.55 -0.7 14.35 L-0.4 13.85 -0.4 13.6 -0.4 13.15 -0.25 12.9 -0.15 12.75 0.0 12.65 0.4 12.6 M8.05 47.7 Q12.75 47.85 13.85 52.6 14.7 56.2 13.8 59.55 13.55 60.55 12.5 60.65 9.3 60.95 7.3 58.2 5.5 55.65 5.05 52.45 4.75 50.25 6.5 48.7 7.2 48.05 8.05 47.7 M10.3 55.75 L12.5 59.65 12.65 59.3 11.05 55.1 Q10.1 52.6 8.75 51.55 9.05 53.4 10.3 55.75 M22.45 111.1 L22.5 111.1 Q22.85 111.9 24.25 113.15 25.65 114.4 26.1 115.2 L29.85 119.25 Q32.2 121.55 33.05 123.55 L31.5 123.4 29.95 123.45 29.95 123.4 Q25.75 118.25 23.75 116.55 22.3 117.65 21.4 117.2 20.8 116.75 21.5 115.35 L22.2 114.9 Q22.6 114.7 22.5 114.2 L20.8 112.65 19.3 111.2 22.45 111.1 M28.1 123.45 L28.05 123.45 24.7 123.7 Q23.25 123.85 22.2 124.3 L19.0 120.75 16.7 118.5 12.55 114.3 12.1 113.85 13.3 113.1 Q14.45 112.45 15.75 112.05 15.35 112.2 15.0 112.45 L16.1 111.9 17.6 111.5 18.3 111.35 19.8 112.75 Q20.95 113.7 21.4 114.4 20.65 114.85 20.35 115.7 L20.3 115.75 20.3 115.85 20.25 115.9 20.25 115.95 20.15 116.3 20.3 117.3 Q20.6 118.0 21.4 118.2 L22.95 118.1 23.85 117.85 Q26.6 120.3 28.5 123.45 L28.1 123.45 M-0.4 3.15 Q-1.0 4.3 -2.55 6.3 L-4.7 9.4 -5.25 9.4 Q-5.05 8.05 -3.8 6.5 L-1.5 3.95 -1.05 3.35 Q-0.85 2.95 -0.4 3.15" fill="#424220" fill-rule="evenodd" stroke="none"/>
    <path d="M22.4 25.9 L22.35 25.85 22.0 20.4 22.25 23.25 22.4 25.9 M11.4 84.15 L11.85 84.1 14.0 83.75 15.75 83.8 Q16.95 83.95 17.85 84.55 16.9 86.0 14.55 85.85 L12.6 85.65 11.95 85.6 12.1 85.2 Q12.2 84.8 11.95 84.55 L11.4 84.15 M17.95 107.1 L12.9 108.1 12.9 107.7 Q12.9 106.25 11.6 106.1 L11.95 106.0 14.05 105.55 16.5 105.55 18.75 105.65 Q18.9 106.1 18.4 106.4 17.9 106.7 18.0 107.1 L17.95 107.1 M11.25 90.2 L13.7 90.05 17.85 89.85 18.25 90.4 18.3 91.8 Q18.3 92.6 17.85 92.95 L16.7 92.8 15.55 92.85 13.2 93.15 11.15 93.1 11.3 92.2 11.4 91.6 Q11.65 90.65 11.25 90.2 M11.8 86.95 L13.0 86.9 16.4 87.2 17.15 86.9 Q17.6 86.75 17.85 87.2 18.05 87.95 16.85 88.75 L11.4 88.75 11.75 87.95 11.8 86.95 M10.9 94.45 L17.0 94.0 18.0 94.0 18.4 94.75 18.25 95.95 17.85 96.65 14.2 96.45 11.25 96.55 11.3 95.9 Q11.4 94.9 10.9 94.45 M10.75 97.9 L12.3 97.5 Q13.3 97.35 14.9 97.5 L17.3 97.6 Q17.1 97.75 17.2 97.9 L17.9 98.4 Q18.25 98.65 18.1 99.2 18.05 100.45 16.7 100.45 L15.55 100.4 14.55 100.55 13.0 100.7 11.45 101.2 11.1 101.25 11.1 101.15 11.15 99.15 Q11.15 98.3 10.75 97.9 M41.75 129.35 L42.2 130.3 42.05 131.3 41.65 132.1 41.3 130.55 40.85 128.85 Q41.4 128.8 41.75 129.35 M11.05 102.5 Q14.25 101.3 17.85 101.65 L18.1 102.3 18.05 103.25 17.85 104.15 13.9 104.65 11.95 104.8 11.95 104.1 Q11.9 102.9 11.05 102.5 M9.65 104.6 L9.55 104.25 9.65 104.35 9.65 104.6 M10.4 107.3 L10.3 107.1 10.5 106.8 10.45 107.0 10.4 107.3 M18.0 136.3 L17.2 135.95 15.5 135.1 Q10.15 133.65 5.05 129.0 5.25 128.25 4.55 127.35 L3.3 125.75 Q-1.7 127.25 -5.25 125.3 -5.6 122.35 -5.05 120.75 L2.25 121.85 Q3.65 122.6 5.6 124.25 L8.8 126.95 Q12.45 129.85 15.65 129.55 L15.8 129.8 17.1 131.4 17.1 131.45 17.15 131.95 Q17.5 132.65 18.2 132.45 19.2 132.2 19.35 131.2 L19.15 130.45 Q20.2 130.85 20.6 132.1 20.85 133.45 19.2 134.2 L17.5 133.65 18.0 136.3 M32.85 131.0 L32.95 131.05 33.05 131.15 Q34.1 131.75 35.05 130.85 L35.4 130.45 Q35.95 129.85 35.95 129.05 L35.85 128.45 35.2 128.05 Q35.8 128.3 36.35 128.85 37.05 129.5 37.25 130.3 37.95 132.2 36.2 133.4 L34.65 133.2 33.3 132.45 Q32.85 132.0 32.85 131.0 M25.05 131.65 L25.4 131.95 27.5 132.1 28.05 131.85 Q29.65 131.2 29.95 129.6 L29.9 129.35 29.35 128.55 30.3 129.2 Q31.65 130.95 31.0 133.55 30.1 135.3 27.45 134.65 25.4 133.75 25.1 132.45 L25.05 131.65" fill="#666666" fill-rule="evenodd" stroke="none"/>
    <path d="M18.6 23.25 L18.65 23.2 18.6 23.25 M21.5 110.85 L21.0 110.9 22.45 111.1 19.3 111.2 20.8 112.65 22.5 114.2 Q22.6 114.7 22.2 114.9 L21.5 115.35 Q20.8 116.75 21.4 117.2 22.3 117.65 23.75 116.55 25.75 118.25 29.95 123.4 L28.75 123.55 28.1 123.45 28.5 123.45 Q26.6 120.3 23.85 117.85 L22.95 118.1 21.4 118.2 Q20.6 118.0 20.3 117.3 L20.15 116.3 20.2 116.2 20.25 115.95 20.25 115.9 20.3 115.85 20.3 115.75 20.35 115.7 Q20.65 114.85 21.4 114.4 20.95 113.7 19.8 112.75 L18.3 111.35 17.6 111.5 16.1 111.9 17.45 111.35 17.3 111.4 16.95 111.5 16.9 111.5 16.45 111.7 15.75 112.05 Q14.45 112.45 13.3 113.1 L12.1 113.85 12.55 114.3 16.7 118.5 19.0 120.75 22.2 124.3 21.2 124.85 20.35 123.65 Q18.85 121.65 16.55 119.9 L16.15 119.6 15.9 119.45 12.6 117.25 9.7 115.35 10.15 115.05 9.95 115.2 9.9 115.15 Q9.6 114.95 9.7 114.55 9.95 113.5 10.95 112.75 L11.0 112.7 11.9 112.2 Q13.8 111.3 15.85 110.7 L16.75 110.5 17.85 110.3 Q19.15 110.15 20.35 110.3 L21.5 110.7 21.5 110.85" fill="#666633" fill-rule="evenodd" stroke="none"/>
    <path d="M17.65 83.0 L17.85 83.1 17.6 83.15 17.65 83.0 M21.4 80.2 L21.2 80.3 21.4 80.2" fill="#ffffff" fill-rule="evenodd" stroke="none"/>
    <path d="M11.4 84.15 L11.95 84.55 Q12.2 84.8 12.1 85.2 L11.95 85.6 10.85 85.65 10.35 85.05 10.05 84.45 10.15 84.4 11.4 84.15 M11.15 93.1 L10.3 92.8 Q9.65 92.45 9.25 91.85 L9.7 90.3 11.25 90.2 Q11.65 90.65 11.4 91.6 L11.3 92.2 11.15 93.1 M11.4 88.75 L10.5 88.75 Q9.9 88.5 9.7 87.95 9.4 87.4 9.7 86.9 L11.8 86.95 11.75 87.95 11.4 88.75 M11.25 96.55 L10.65 96.65 10.15 96.35 10.0 96.3 Q9.45 96.3 9.45 95.85 9.3 95.35 9.65 94.9 L10.05 94.55 10.5 94.55 10.9 94.45 Q11.4 94.9 11.3 95.9 L11.25 96.55 M11.1 101.25 L10.35 101.25 Q9.4 101.1 8.95 100.2 9.2 98.85 10.3 98.15 L10.75 97.9 Q11.15 98.3 11.15 99.15 L11.1 101.15 11.1 101.25 M11.95 104.8 L10.7 104.95 10.05 105.1 10.0 105.05 9.9 104.95 9.65 104.6 9.65 104.35 9.55 104.25 9.55 103.65 9.65 103.2 9.7 103.1 10.5 102.75 11.05 102.5 Q11.9 102.9 11.95 104.1 L11.95 104.8 M11.6 106.1 Q12.9 106.25 12.9 107.7 L12.9 108.1 12.85 108.1 11.5 108.6 11.4 108.65 Q10.95 108.5 10.75 108.0 L10.4 107.3 10.45 107.0 10.5 106.8 10.6 106.7 10.65 106.7 11.05 106.35 11.6 106.1 M17.1 131.4 L17.15 131.45 Q17.55 130.75 18.4 130.3 L19.15 130.45 19.35 131.2 Q19.2 132.2 18.2 132.45 17.5 132.65 17.15 131.95 L17.1 131.45 17.1 131.4 M35.2 128.05 L35.85 128.45 35.95 129.05 Q35.95 129.85 35.4 130.45 L35.05 130.85 Q34.1 131.75 33.05 131.15 L32.95 131.05 32.85 131.0 32.85 130.95 33.05 129.35 33.9 128.45 Q34.4 127.9 34.85 127.95 L34.95 128.0 35.0 128.0 35.2 128.05 M29.35 128.55 L29.9 129.35 29.95 129.6 Q29.65 131.2 28.05 131.85 L27.5 132.1 25.4 131.95 25.05 131.65 25.05 131.6 Q25.1 130.15 26.2 128.75 27.05 128.1 28.3 128.25 L29.35 128.55" fill="#999999" fill-rule="evenodd" stroke="none"/>
    <path d="M11.85 84.1 L11.4 84.15 10.15 84.4 10.1 84.4 10.75 84.2 11.85 84.1 M20.15 104.7 L20.15 104.8 20.3 105.55 20.25 105.3 20.2 105.2 20.15 104.7 M19.9 105.05 L19.8 104.9 19.8 104.85 19.9 105.05 M12.9 108.1 L14.25 107.75 13.0 108.4 12.05 108.55 11.5 108.7 11.45 108.7 11.4 108.7 11.4 108.65 11.5 108.6 12.85 108.1 12.9 108.1" fill="#400040" fill-rule="evenodd" stroke="none"/>
    <path d="M10.05 84.45 L10.05 84.4 10.15 84.4 10.05 84.45" fill="#663399" fill-rule="evenodd" stroke="none"/>
    <path d="M19.8 103.7 L20.0 103.9 20.15 104.6 20.15 104.7 20.2 105.2 20.25 105.3 20.3 105.55 20.5 105.95 Q20.85 106.65 20.15 106.8 L20.2 106.05 19.9 105.1 19.9 105.05 19.8 104.85 Q19.35 103.95 19.5 103.55 L19.6 103.55 19.7 103.6 19.75 103.6 19.8 103.7 M21.7 110.85 L21.5 110.85 21.5 110.7 21.7 110.85" fill="#54035a" fill-rule="evenodd" stroke="none"/>
    <path d="M15.65 129.55 L16.1 129.5 22.35 126.55 Q26.0 125.05 29.15 125.0 34.65 124.35 37.4 126.55 L38.75 129.5 39.3 131.8 Q39.6 133.1 39.1 134.0 L39.75 134.75 Q28.85 137.9 18.85 137.0 L18.0 136.3 17.5 133.65 19.2 134.2 Q20.85 133.45 20.6 132.1 20.2 130.85 19.15 130.45 L18.4 130.3 Q17.55 130.75 17.15 131.45 L17.1 131.4 15.8 129.8 15.65 129.55 M32.85 131.0 Q32.85 132.0 33.3 132.45 L34.65 133.2 36.2 133.4 Q37.95 132.2 37.25 130.3 37.05 129.5 36.35 128.85 35.8 128.3 35.2 128.05 L35.0 128.0 34.95 128.0 34.85 127.95 Q34.4 127.9 33.9 128.45 L33.05 129.35 32.85 130.95 32.85 131.0 M25.05 131.65 L25.1 132.45 Q25.4 133.75 27.45 134.65 30.1 135.3 31.0 133.55 31.65 130.95 30.3 129.2 L29.35 128.55 28.3 128.25 Q27.05 128.1 26.2 128.75 25.1 130.15 25.05 131.6 L25.05 131.65" fill="#4e4e4e" fill-rule="evenodd" stroke="none"/>
  </g>
</svg>
