<?xml version="1.0" encoding="UTF-8" standalone="no"?>
<svg xmlns:xlink="http://www.w3.org/1999/xlink" height="108.4px" width="41.05px" xmlns="http://www.w3.org/2000/svg">
  <g transform="matrix(1.0, 0.0, 0.0, 1.0, 24.05, 7.75)">
    <path d="M5.8 -5.2 L5.65 -5.3 5.3 -5.5 3.2 -6.1 -0.75 -6.2 -3.5 -5.35 -5.85 -4.25 -6.05 -3.45 Q-6.4 -2.6 -7.25 -2.1 L-7.7 -1.7 -7.8 -1.65 -8.2 -1.55 -8.05 -0.1 -8.15 0.9 -8.55 1.7 -10.0 1.8 -10.6 1.85 -11.05 2.3 Q-11.2 2.8 -10.95 3.1 -11.2 3.45 -11.1 4.0 L-11.1 4.25 Q-11.25 4.85 -10.85 5.35 L-10.6 5.15 -11.85 6.2 -11.75 6.4 -11.7 6.5 -11.65 6.65 -11.6 6.8 -11.6 6.9 -11.55 7.0 -11.55 7.05 -11.55 7.1 -11.55 8.0 Q-11.75 8.95 -12.7 9.4 L-13.45 9.65 -13.1 10.45 -13.35 10.95 -13.25 11.6 -13.05 12.2 -13.45 12.6 Q-14.55 13.55 -14.55 14.15 -13.9 14.95 -14.65 16.15 L-15.9 18.05 Q-15.0 19.2 -15.0 20.1 -15.15 22.0 -16.2 22.25 -17.5 22.85 -16.9 23.85 L-16.4 24.75 Q-16.2 25.35 -16.4 25.85 -16.8 27.25 -19.2 29.1 L-17.2 31.0 Q-17.2 31.95 -18.0 33.15 L-19.2 35.2 -18.25 36.3 Q-17.65 37.0 -17.65 37.65 L-15.1 36.4 -9.95 36.0 -9.45 36.05 -8.2 36.3 -6.85 36.7 -6.75 36.75 -4.75 37.6 -3.6 38.3 -2.65 39.05 -2.1 39.55 Q-2.15 38.85 -1.4 38.55 L-0.2 38.0 Q-0.15 37.5 -0.6 36.55 L-1.1 35.0 Q-1.05 34.3 -0.2 34.05 0.8 33.7 1.05 33.4 L0.65 31.9 0.45 30.3 Q1.85 29.4 2.9 29.25 L2.45 28.5 Q2.2 27.95 2.25 27.5 2.4 26.85 3.1 26.6 L4.35 26.15 Q3.8 25.3 3.8 24.35 L3.8 24.0 Q4.2 23.0 4.8 22.55 5.55 21.9 6.65 22.1 L6.35 21.35 6.35 21.25 Q6.8 20.9 6.7 20.2 L6.05 18.0 6.3 18.65 7.3 17.75 7.55 16.4 7.8 15.85 Q8.1 14.95 8.9 14.4 8.35 13.15 8.7 11.9 L9.05 11.25 Q9.2 11.0 9.5 10.95 L10.4 10.75 Q9.65 9.85 9.65 8.65 9.6 7.45 10.55 6.65 10.8 6.4 11.15 6.3 L11.6 6.15 11.85 3.85 11.85 3.9 11.65 4.2 11.55 3.75 11.5 3.65 Q11.0 1.5 10.15 -0.55 9.45 -2.15 8.35 -3.45 7.35 -4.6 6.0 -5.25 L5.9 -5.3 6.4 -5.75 5.8 -5.2 M-10.6 0.9 L-9.6 0.8 -9.35 0.55 -9.2 0.25 -9.2 -0.2 -9.45 -1.0 -9.75 -1.45 -9.7 -1.55 -9.5 -2.6 -7.95 -2.7 Q-7.1 -3.05 -7.15 -3.9 L-7.15 -4.9 Q-4.85 -6.75 -2.0 -7.55 L-1.9 -7.6 -0.7 -7.55 -1.45 -7.25 -0.55 -7.55 -0.95 -7.3 -0.65 -7.5 -0.4 -7.65 0.95 -7.7 Q3.9 -7.75 6.1 -6.55 L7.25 -6.1 7.35 -6.05 Q10.15 -4.75 11.25 -1.9 L12.1 0.95 12.35 2.95 12.35 3.0 12.4 6.6 12.0 7.1 11.95 7.1 11.9 7.1 11.75 7.15 11.05 7.3 10.9 7.4 Q10.05 8.7 11.45 9.7 L11.65 10.45 11.5 11.55 11.1 11.7 10.0 11.55 10.0 11.6 9.85 11.65 9.75 11.7 Q9.35 12.0 9.35 12.55 9.4 13.1 9.8 13.4 L9.95 13.85 10.25 14.3 10.35 14.45 10.15 15.5 9.85 15.7 9.85 15.75 9.15 15.6 9.1 15.65 8.95 15.7 8.9 15.75 Q8.4 16.1 8.5 16.7 L8.9 18.35 8.85 18.65 Q8.4 19.1 8.3 19.6 L7.7 19.5 7.7 19.55 7.55 19.6 7.45 19.65 7.35 19.75 Q7.05 20.05 7.1 20.4 L7.55 21.6 7.65 22.85 7.55 23.45 6.6 23.9 5.4 24.1 Q4.7 24.5 5.05 25.35 L5.55 26.75 Q5.15 27.85 3.7 28.3 L3.95 29.2 4.0 30.15 Q3.85 30.85 3.1 31.25 L1.8 31.85 2.6 33.65 Q2.6 34.4 1.75 34.95 L0.45 35.95 0.9 36.85 1.2 37.8 Q0.9 39.45 -0.65 40.3 L1.2 42.65 Q2.8 50.15 -2.45 56.3 -1.85 56.65 -1.95 57.4 L-2.1 58.65 Q-3.0 59.35 -2.45 60.1 -1.65 61.2 -1.6 61.6 -2.0 62.75 -1.25 64.2 L-0.05 66.55 2.75 66.55 2.75 66.35 3.45 66.45 4.4 66.7 Q4.65 67.05 5.25 67.3 7.0 67.95 7.25 68.6 L7.35 68.25 8.6 69.1 8.5 69.55 10.9 71.75 Q12.3 73.05 13.65 73.45 14.95 74.0 15.35 75.05 15.6 75.8 15.5 77.3 15.3 78.95 15.4 79.6 15.55 80.65 16.4 81.35 L16.9 83.5 17.0 83.7 16.75 83.65 16.0 86.65 15.25 87.9 Q14.8 88.65 14.1 88.65 14.0 87.55 12.65 86.9 11.1 86.1 10.8 85.4 L10.8 85.25 10.5 83.2 Q9.85 81.15 8.05 80.3 L7.9 80.55 Q7.5 80.05 6.5 80.15 6.05 80.3 5.9 80.7 5.45 80.35 4.6 80.45 5.1 82.85 5.7 84.1 L5.9 84.8 Q6.3 85.85 7.4 85.85 L7.45 86.2 8.1 85.7 8.8 85.75 Q10.2 88.65 9.25 92.0 L12.25 91.65 Q13.85 91.35 14.9 90.55 L15.15 89.55 Q15.2 88.9 15.85 89.0 L15.95 89.15 16.15 89.45 Q16.6 90.2 16.55 91.0 L15.95 92.9 15.05 94.85 Q14.7 96.0 15.05 97.1 14.85 98.5 13.25 98.4 11.2 98.3 10.7 98.75 9.75 99.25 8.95 98.2 7.95 96.95 7.25 97.1 L7.25 97.6 Q6.45 97.15 5.3 97.25 4.6 97.5 4.25 98.35 L4.1 98.8 3.8 99.1 Q2.6 100.05 2.25 100.65 L-0.85 100.35 Q-2.7 99.95 -3.65 99.0 -3.55 98.0 -4.4 97.45 L-5.95 96.75 Q-6.85 96.5 -8.75 94.95 -10.45 93.6 -11.75 93.55 -12.0 92.45 -13.35 92.0 -15.05 91.45 -15.45 90.9 L-15.9 90.9 Q-16.5 90.15 -16.65 89.05 L-16.75 87.1 Q-16.85 84.45 -18.2 83.55 L-17.9 82.5 Q-17.6 81.85 -18.1 81.5 -17.65 80.15 -17.7 78.3 L-18.0 75.0 Q-18.35 70.9 -16.85 68.9 -18.05 67.6 -17.7 65.3 L-16.85 61.6 Q-18.2 61.6 -18.55 60.35 L-18.4 58.3 Q-21.45 55.4 -22.6 53.55 -24.4 50.55 -24.0 47.3 -22.85 41.7 -18.85 38.1 L-19.4 37.15 -20.1 36.3 Q-20.9 35.25 -20.3 34.2 L-18.55 32.05 Q-20.55 30.55 -20.85 29.1 L-19.3 27.75 Q-18.35 26.85 -17.45 26.65 -17.25 25.95 -18.05 24.8 -18.9 23.7 -18.4 22.9 L-17.15 21.75 -15.9 20.75 Q-16.0 20.45 -16.75 19.5 -17.3 18.75 -17.0 18.05 L-16.5 16.95 -15.6 15.9 Q-14.8 14.6 -16.1 13.7 -16.25 12.7 -15.4 12.2 L-13.85 11.4 -14.35 9.8 Q-14.55 8.85 -13.85 8.25 L-13.2 8.25 Q-12.8 8.3 -12.65 7.95 L-13.3 6.65 Q-13.65 5.9 -13.1 5.3 L-11.55 4.2 Q-12.6 3.15 -12.0 1.75 L-10.75 1.0 -10.6 0.9 M8.2 30.8 L8.25 30.65 8.2 30.85 8.2 30.8 M10.1 73.15 L10.25 72.95 6.65 69.85 Q5.7 69.2 3.4 69.2 1.05 69.2 0.1 68.6 -0.75 68.2 -1.25 67.05 L-2.2 65.2 Q-4.0 66.65 -5.9 67.6 -9.2 69.2 -12.75 69.25 L-13.0 69.25 -14.05 69.2 Q-14.3 69.4 -15.25 69.6 -16.0 69.7 -15.9 70.3 L-15.6 70.4 -15.95 71.2 -16.15 72.75 -16.2 73.1 -16.2 73.15 -16.05 74.6 Q-16.35 78.35 -17.3 83.4 L-16.65 83.4 Q-15.9 84.2 -15.6 85.75 L-15.5 86.6 -15.5 86.75 -15.5 86.95 Q-15.85 87.65 -15.6 88.5 L-15.05 89.6 -15.05 89.7 -14.85 90.1 -14.45 90.1 -13.25 90.35 -13.15 90.4 Q-12.1 90.95 -11.4 92.4 L-9.1 92.55 -9.15 92.45 -9.05 92.45 -7.95 92.4 -7.1 91.85 Q-6.45 92.05 -5.95 93.0 -5.4 94.1 -4.2 93.65 L-2.8 93.15 -2.7 93.05 -2.3 92.85 -2.65 92.2 -2.6 92.2 -2.1 92.7 -1.7 92.2 -1.65 92.15 -1.35 92.05 Q-0.7 91.85 -0.5 91.25 L-0.35 90.75 Q0.7 90.8 2.0 90.05 L2.6 89.75 Q4.45 88.7 5.25 88.65 L5.2 86.9 Q5.05 85.85 4.35 85.4 2.55 80.9 4.45 79.0 L5.55 78.9 6.65 79.2 7.15 77.85 Q7.75 78.4 8.95 78.4 L9.15 78.7 10.25 79.75 Q11.8 81.0 11.45 82.35 L11.6 84.3 Q11.55 85.5 12.35 85.4 13.6 85.5 14.25 87.65 L14.25 87.75 Q14.85 87.4 14.95 86.4 15.1 85.3 15.35 85.0 15.6 83.6 14.6 81.0 13.6 78.45 14.1 76.85 13.75 76.0 12.55 75.4 L12.45 75.35 12.0 74.5 11.3 73.8 Q10.7 73.4 10.1 73.15 M13.6 93.85 Q13.9 92.9 14.45 92.2 10.0 93.9 7.25 92.85 6.75 92.7 5.85 91.75 5.0 90.9 4.45 90.9 L2.6 91.55 Q1.5 91.95 1.2 92.55 L1.65 93.9 1.75 95.2 2.0 96.0 Q2.45 96.7 3.6 96.75 3.65 96.35 4.25 96.15 L5.25 95.85 Q6.7 95.55 8.15 96.15 9.45 96.7 10.35 98.0 10.8 97.55 11.7 97.45 L13.15 97.25 13.45 94.6 13.6 93.85 M8.05 91.45 Q8.4 90.3 7.7 87.75 7.45 88.35 6.4 88.8 5.5 89.2 5.4 89.9 L6.65 90.85 Q7.4 91.45 8.05 91.45 M-2.65 98.65 L-2.65 98.75 -0.65 99.05 Q0.5 99.2 1.2 99.75 1.9 100.05 2.35 99.25 L3.25 97.9 0.85 96.5 0.6 96.35 -0.05 96.0 Q-0.55 95.5 -0.2 94.8 L0.1 93.55 Q-0.7 93.65 -2.15 94.3 L-4.4 95.1 Q-2.65 96.75 -2.65 98.65 M-14.65 38.45 Q-17.3 38.25 -19.1 40.55 -20.05 41.65 -21.5 44.95 -23.15 49.5 -20.45 54.6 -20.05 54.65 -19.45 55.15 L-18.45 56.0 Q-17.25 56.8 -16.65 55.2 -13.95 53.55 -9.9 53.7 -6.0 53.85 -3.2 55.55 -0.5 52.35 -0.65 47.3 -1.35 46.4 -1.85 43.9 -2.35 41.6 -3.3 40.65 -8.75 37.45 -14.65 38.45 M-3.65 56.95 L-3.65 56.75 -3.75 56.95 Q-7.35 54.6 -12.65 56.65 -14.1 57.15 -15.6 58.0 L-16.6 58.6 -16.65 58.65 -16.95 59.2 Q-17.25 59.95 -17.0 60.65 L-15.95 60.45 -15.2 60.3 -14.25 60.2 -11.35 59.9 -10.35 59.85 -3.65 59.3 -3.65 56.95 M-13.95 67.35 L-11.25 67.35 Q-8.2 67.05 -5.65 65.65 L-3.75 64.6 Q-2.7 63.8 -2.85 62.85 L-3.75 61.1 -9.5 61.95 -11.65 62.3 -15.1 62.85 -15.65 64.45 -15.7 64.65 -15.7 66.55 -15.45 67.2 -15.2 67.2 -15.15 67.25 -14.25 67.3 -13.95 67.35 M-14.25 70.25 L-13.9 70.25 -10.65 69.9 -9.6 69.8 -8.2 69.65 -7.65 69.65 -7.0 69.85 -6.85 70.05 -6.45 70.75 -6.3 71.15 -5.8 72.9 -5.55 74.1 -5.4 75.3 Q-5.0 75.8 -5.6 76.1 L-5.65 76.2 -9.7 76.7 -10.85 76.7 Q-12.5 76.65 -13.9 75.85 L-14.05 75.65 -14.05 75.7 Q-14.35 75.85 -14.6 75.45 L-14.75 75.1 -15.1 72.65 -15.0 71.2 -14.7 70.4 -14.25 70.25 M-7.5 70.0 L-7.65 69.65 Q-11.45 71.1 -14.45 70.7 L-14.5 73.45 -14.45 74.15 -14.2 74.5 -14.35 74.55 -14.25 75.0 -14.15 75.3 -14.0 75.35 -13.55 75.45 -11.5 75.7 -8.55 75.55 -6.35 75.15 -5.95 74.65 Q-6.0 73.5 -6.6 72.1 L-7.5 70.0 M-9.2 93.75 Q-7.75 95.1 -5.45 96.15 L-4.75 96.45 Q-4.8 96.15 -5.25 95.8 -5.65 95.5 -5.65 95.1 -7.3 94.5 -7.55 93.75 L-8.35 93.6 -9.2 93.75" fill="#000000" fill-rule="evenodd" stroke="none"/>
    <path d="M2.35 -1.0 L2.25 -1.05 Q0.2 -2.25 -2.1 -2.55 L-3.85 -2.3 -5.0 -1.6 Q-4.95 -0.75 -3.85 -0.75 L-1.95 -0.3 1.0 1.15 -0.8 4.0 Q-3.2 2.45 -6.1 2.45 -6.55 2.4 -7.0 2.7 L-7.45 3.2 -7.45 3.3 -7.45 3.5 -7.4 3.6 Q-7.15 3.95 -6.7 4.15 L-5.85 4.35 Q-4.55 4.6 -3.4 5.2 -2.65 5.6 -2.0 6.1 L-2.2 7.1 -2.2 7.25 -2.25 7.3 -2.2 7.3 -2.2 7.4 -2.3 7.3 -3.2 8.7 -3.4 9.2 -3.45 9.15 -5.0 8.3 Q-6.45 7.5 -8.1 7.55 L-8.6 7.65 -9.45 7.9 Q-10.4 8.6 -9.45 9.25 L-7.15 9.5 -6.05 10.0 -4.2 11.15 -5.1 13.5 -5.7 13.2 Q-7.9 12.2 -10.3 12.25 -11.15 12.35 -11.85 12.95 -12.2 13.25 -12.0 13.65 -11.7 14.35 -10.8 14.15 L-8.85 14.25 Q-7.15 14.8 -5.55 15.6 L-5.85 15.5 -6.6 17.9 Q-8.7 17.25 -10.85 17.0 L-11.6 17.05 Q-12.7 17.1 -13.5 17.75 L-13.55 18.15 Q-13.05 18.8 -12.1 18.75 L-10.7 18.85 -7.2 19.9 -7.3 20.15 -8.15 23.55 Q-9.95 22.75 -12.1 22.9 L-13.3 23.1 Q-14.5 23.25 -14.9 24.35 L-14.85 24.65 Q-14.1 25.4 -12.9 25.15 L-9.25 25.4 -8.65 25.65 -9.3 29.25 -12.4 28.9 -15.85 29.3 -16.25 30.05 Q-16.25 31.35 -14.9 31.15 L-12.15 31.05 -9.6 31.15 -9.7 31.9 -9.8 32.8 -12.1 32.65 -12.1 32.7 -13.95 32.85 -14.4 32.95 -15.55 33.3 Q-16.35 33.5 -16.7 34.15 L-16.75 34.95 Q-16.2 36.05 -14.9 35.45 -13.35 34.7 -11.6 34.7 L-10.25 34.9 -9.2 35.15 -9.9 35.0 -9.85 36.0 -9.45 36.05 -9.95 36.0 -15.1 36.4 -17.65 37.65 Q-17.65 37.0 -18.25 36.3 L-19.2 35.2 -18.0 33.15 Q-17.2 31.95 -17.2 31.0 L-19.2 29.1 Q-16.8 27.25 -16.4 25.85 -16.2 25.35 -16.4 24.75 L-16.9 23.85 Q-17.5 22.85 -16.2 22.25 -15.15 22.0 -15.0 20.1 -15.0 19.2 -15.9 18.05 L-14.65 16.15 Q-13.9 14.95 -14.55 14.15 -14.55 13.55 -13.45 12.6 L-13.05 12.2 -13.25 11.6 -13.35 10.95 -13.1 10.45 -13.45 9.65 -12.7 9.4 Q-11.75 8.95 -11.55 8.0 L-11.55 7.1 -11.55 7.05 -11.55 7.0 -11.6 6.9 -11.6 6.8 -11.65 6.65 -11.7 6.5 -11.75 6.4 -11.85 6.2 -10.6 5.15 -10.85 5.35 Q-11.25 4.85 -11.1 4.25 L-11.1 4.0 Q-11.2 3.45 -10.95 3.1 -11.2 2.8 -11.05 2.3 L-10.6 1.85 -10.0 1.8 -8.55 1.7 -8.15 0.9 -8.05 -0.1 -8.2 -1.55 -7.8 -1.65 -7.7 -1.7 -7.25 -2.1 Q-6.4 -2.6 -6.05 -3.45 L-5.85 -4.25 -3.5 -5.35 -0.75 -6.2 3.2 -6.1 5.3 -5.5 5.65 -5.3 5.8 -5.2 4.85 -4.25 4.75 -4.3 Q3.1 -5.75 0.85 -6.1 -0.5 -6.05 -0.45 -4.8 -0.45 -4.4 -0.05 -4.25 L0.6 -4.0 Q2.2 -3.15 3.85 -3.1 L2.35 -1.0 M4.4 66.7 L5.55 66.85 6.05 66.9 6.25 66.95 7.35 68.25 7.25 68.6 Q7.0 67.95 5.25 67.3 4.65 67.05 4.4 66.7 M-10.75 1.0 L-10.8 0.85 -10.6 0.9 -10.75 1.0 M11.85 3.9 L11.85 3.85 11.6 6.15 11.15 6.3 Q10.8 6.4 10.55 6.65 9.6 7.45 9.65 8.65 9.65 9.85 10.4 10.75 L9.5 10.95 Q9.2 11.0 9.05 11.25 L8.7 11.9 Q8.35 13.15 8.9 14.4 8.1 14.95 7.8 15.85 L7.55 16.4 7.3 17.75 6.3 18.65 6.05 18.0 6.7 20.2 Q6.8 20.9 6.35 21.25 L6.35 21.35 6.65 22.1 Q5.55 21.9 4.8 22.55 4.2 23.0 3.8 24.0 L3.8 24.35 Q3.8 25.3 4.35 26.15 L3.1 26.6 Q2.4 26.85 2.25 27.5 2.2 27.95 2.45 28.5 L2.9 29.25 Q1.85 29.4 0.45 30.3 L0.65 31.9 1.05 33.4 Q0.8 33.7 -0.2 34.05 -1.05 34.3 -1.1 35.0 L-0.6 36.55 Q-0.15 37.5 -0.2 38.0 L-1.4 38.55 Q-2.15 38.85 -2.1 39.55 L-2.65 39.05 -3.6 38.3 Q-3.45 37.7 -2.65 37.05 L-1.75 36.0 Q-2.95 33.3 -0.95 31.0 L-0.1 30.15 Q-0.5 28.9 -0.35 27.5 L0.05 26.55 Q1.05 25.1 2.5 24.0 2.45 21.25 4.4 19.25 L4.65 18.8 Q4.95 17.7 5.75 17.15 L5.5 16.65 5.95 16.5 6.1 16.3 Q6.9 15.55 7.0 14.55 7.15 12.6 7.95 10.75 L8.75 9.25 9.55 7.75 11.85 3.9 M-5.9 67.6 Q-4.0 66.65 -2.2 65.2 L-1.25 67.05 Q-0.75 68.2 0.1 68.6 1.05 69.2 3.4 69.2 5.7 69.2 6.65 69.85 L10.25 72.95 10.1 73.15 8.2 75.95 7.15 77.85 6.65 79.2 5.55 78.9 4.45 79.0 Q2.55 80.9 4.35 85.4 5.05 85.85 5.2 86.9 L5.25 88.65 Q4.45 88.7 2.6 89.75 L2.0 90.05 Q0.7 90.8 -0.35 90.75 L-1.05 90.6 -1.3 90.55 Q-2.15 90.9 -2.55 90.2 L-3.2 88.85 Q-2.45 88.2 -2.85 87.6 -1.3 88.4 0.15 87.1 1.55 85.85 0.65 84.2 -0.25 82.55 -2.2 82.85 L-2.45 82.6 -1.65 82.3 Q-4.1 75.4 -5.65 68.2 -5.7 67.85 -5.9 67.6 M-1.65 92.15 L-1.7 92.2 -2.1 92.7 -2.6 92.2 -2.75 92.05 -2.65 92.2 -2.3 92.85 -2.7 93.05 -2.8 93.15 -4.2 93.65 Q-5.4 94.1 -5.95 93.0 -6.45 92.05 -7.1 91.85 L-7.65 91.75 Q-8.4 91.1 -8.8 89.9 L-9.05 89.0 -9.1 88.3 Q-8.2 89.45 -6.55 89.1 -5.55 88.2 -6.1 87.0 -6.55 86.1 -7.15 85.55 L-7.05 85.35 -6.8 85.9 -6.35 86.2 -5.8 86.3 -6.05 86.5 -6.1 86.55 -5.8 86.95 -5.7 87.1 -4.6 88.1 Q-3.55 88.95 -3.75 90.1 L-3.05 91.55 Q-2.5 92.4 -1.6 92.1 L-1.65 92.15 M-9.15 92.45 L-9.1 92.55 -11.4 92.4 Q-12.1 90.95 -13.15 90.4 L-13.25 90.35 -13.0 90.3 -12.45 89.95 Q-11.25 88.55 -12.5 87.65 L-11.85 86.55 -11.3 87.75 -11.55 87.85 Q-11.65 88.4 -10.85 88.7 L-9.65 89.1 -9.55 89.1 -9.65 89.1 -9.65 89.15 -9.6 90.9 -9.15 92.45 M-14.45 90.1 L-14.85 90.1 -15.05 89.7 -15.05 89.6 -14.45 90.1 M-14.35 21.35 L-14.3 21.4 -14.25 21.3 -14.35 21.35 M-4.4 86.4 L-3.95 86.3 -3.95 86.35 -3.7 86.9 -4.0 86.7 -4.4 86.4" fill="#4e4e4e" fill-rule="evenodd" stroke="none"/>
    <path d="M1.0 1.15 L-1.95 -0.3 -3.85 -0.75 Q-4.95 -0.75 -5.0 -1.6 L-3.85 -2.3 -2.1 -2.55 Q0.2 -2.25 2.25 -1.05 L2.35 -1.0 3.15 -0.55 Q4.55 0.25 4.65 1.75 L4.5 2.15 4.3 2.3 3.9 2.35 3.0 1.85 1.0 1.15 M3.85 -3.1 Q2.2 -3.15 0.6 -4.0 L-0.05 -4.25 Q-0.45 -4.4 -0.45 -4.8 -0.5 -6.05 0.85 -6.1 3.1 -5.75 4.75 -4.3 L4.85 -4.25 Q5.45 -3.65 4.6 -3.25 L4.0 -3.1 3.85 -3.1 M-9.2 35.15 L-10.25 34.9 -11.6 34.7 Q-13.35 34.7 -14.9 35.45 -16.2 36.05 -16.75 34.95 L-16.7 34.15 Q-16.35 33.5 -15.55 33.3 L-14.4 32.95 -13.95 32.85 -12.1 32.7 -12.1 32.65 -9.8 32.8 Q-8.55 33.0 -7.4 33.6 -7.05 33.75 -6.85 34.05 L-6.7 34.35 -6.65 34.4 -6.55 34.5 -6.5 34.6 -6.45 34.65 -6.45 34.75 -6.45 34.8 -6.45 34.9 -6.5 34.95 -6.6 35.1 -6.7 35.15 -6.85 35.2 -7.05 35.15 -7.15 35.15 -9.2 35.15 M-9.6 31.15 L-12.15 31.05 -14.9 31.15 Q-16.25 31.35 -16.25 30.05 L-15.85 29.3 -12.4 28.9 -9.3 29.25 -8.55 29.55 -7.8 29.95 Q-7.25 30.25 -7.55 30.75 -7.85 31.2 -8.4 31.2 L-9.6 31.15 M-8.65 25.65 L-9.25 25.4 -12.9 25.15 Q-14.1 25.4 -14.85 24.65 L-14.9 24.35 Q-14.5 23.25 -13.3 23.1 L-12.1 22.9 Q-9.95 22.75 -8.15 23.55 L-6.5 24.5 -5.65 25.05 Q-5.15 25.35 -4.95 25.8 -4.8 26.2 -5.05 26.45 L-5.3 26.65 -8.1 25.8 -8.3 25.75 -8.65 25.65 M-7.2 19.9 L-10.7 18.85 -12.1 18.75 Q-13.05 18.8 -13.55 18.15 L-13.5 17.75 Q-12.7 17.1 -11.6 17.05 L-10.85 17.0 Q-8.7 17.25 -6.6 17.9 L-5.2 18.4 Q-3.65 19.0 -2.4 20.15 -2.2 20.3 -2.25 20.6 -2.4 21.9 -3.75 21.3 L-5.1 20.7 -5.25 20.65 -6.5 20.15 -7.2 19.9 M-5.55 15.6 Q-7.15 14.8 -8.85 14.25 L-10.8 14.15 Q-11.7 14.35 -12.0 13.65 -12.2 13.25 -11.85 12.95 -11.15 12.35 -10.3 12.25 -7.9 12.2 -5.7 13.2 L-5.1 13.5 -2.55 14.85 Q-1.3 15.6 -0.8 16.8 L-0.8 17.2 -1.1 17.65 Q-2.2 17.9 -3.15 17.1 -3.65 16.6 -4.3 16.25 L-4.4 16.2 Q-5.0 15.85 -5.55 15.6 M-4.2 11.15 L-6.05 10.0 -7.15 9.5 -9.45 9.25 Q-10.4 8.6 -9.45 7.9 L-8.6 7.65 -8.1 7.55 Q-6.45 7.5 -5.0 8.3 L-3.45 9.15 -3.4 9.2 Q-2.5 9.65 -1.85 10.45 L-1.65 10.8 Q-1.3 11.05 -1.25 11.45 -1.1 12.0 -1.65 12.3 L-2.1 12.3 -2.1 12.25 -2.55 11.95 -2.6 11.9 -4.2 11.15 M-2.0 6.1 Q-2.65 5.6 -3.4 5.2 -4.55 4.6 -5.85 4.35 L-6.7 4.15 Q-7.15 3.95 -7.4 3.6 L-7.45 3.5 -7.45 3.3 -7.45 3.2 -7.0 2.7 Q-6.55 2.4 -6.1 2.45 -3.2 2.45 -0.8 4.0 L-0.35 4.3 1.15 5.65 2.25 7.55 Q2.45 8.05 2.05 8.45 1.15 9.35 0.3 8.35 -0.7 7.05 -2.0 6.1 M-15.5 86.95 L-15.5 86.75 -15.5 86.6 -15.6 85.75 Q-15.9 84.2 -16.65 83.4 L-17.3 83.4 Q-16.35 78.35 -16.05 74.6 L-16.05 74.5 -16.05 74.45 -16.0 74.15 -16.15 73.5 -16.2 73.15 -16.2 73.1 -16.15 72.75 -15.95 71.2 -15.6 70.4 -15.9 70.3 Q-16.0 69.7 -15.25 69.6 -14.3 69.4 -14.05 69.2 L-13.0 69.25 -12.75 69.25 Q-9.2 69.2 -5.9 67.6 -5.7 67.85 -5.65 68.2 -4.1 75.4 -1.65 82.3 L-2.45 82.6 -2.2 82.85 -2.4 82.9 -2.4 82.95 Q-2.8 83.0 -3.1 83.2 L-3.25 83.25 Q-4.4 84.5 -3.95 86.3 L-4.4 86.4 -4.75 86.0 -5.5 86.2 -5.8 86.3 -6.35 86.2 -6.8 85.9 -7.05 85.35 -7.15 85.55 -8.45 84.8 Q-10.5 85.3 -9.7 87.3 L-10.25 87.35 -11.3 87.75 -11.85 86.55 -12.5 87.65 -13.0 87.35 -13.0 87.25 Q-13.2 86.1 -14.2 86.0 L-14.25 86.0 -14.25 86.05 -14.95 86.2 -15.5 86.95 M-14.25 70.25 L-14.7 70.4 -15.0 71.2 -15.1 72.65 -14.75 75.1 -14.6 75.45 Q-14.35 75.85 -14.05 75.7 L-14.05 75.65 -13.9 75.85 Q-12.5 76.65 -10.85 76.7 L-9.7 76.7 -5.65 76.2 -5.6 76.1 Q-5.0 75.8 -5.4 75.3 L-5.55 74.1 -5.8 72.9 -6.3 71.15 -6.45 70.75 -6.85 70.05 -7.0 69.85 -7.65 69.65 -8.2 69.65 -9.6 69.8 -10.65 69.9 -13.9 70.25 -14.25 70.25 M-15.9 74.55 L-15.9 74.5 -15.9 74.55" fill="#666666" fill-rule="evenodd" stroke="none"/>
    <path d="M2.35 -1.0 L3.85 -3.1 4.0 -3.1 4.6 -3.25 Q5.45 -3.65 4.85 -4.25 L5.8 -5.2 6.4 -5.75 5.9 -5.3 6.0 -5.25 Q7.35 -4.6 8.35 -3.45 9.45 -2.15 10.15 -0.55 11.0 1.5 11.5 3.65 L11.55 3.75 11.65 4.2 11.85 3.9 9.55 7.75 8.75 9.25 7.95 10.75 Q7.15 12.6 7.0 14.55 6.9 15.55 6.1 16.3 L5.95 16.5 5.5 16.65 5.75 17.15 Q4.95 17.7 4.65 18.8 L4.4 19.25 Q2.45 21.25 2.5 24.0 1.05 25.1 0.05 26.55 L-0.35 27.5 Q-0.5 28.9 -0.1 30.15 L-0.95 31.0 Q-2.95 33.3 -1.75 36.0 L-2.65 37.05 Q-3.45 37.7 -3.6 38.3 L-4.75 37.6 -6.75 36.75 -6.85 36.7 -8.2 36.3 -9.45 36.05 -9.85 36.0 -9.9 35.0 -9.2 35.15 -7.15 35.15 -7.05 35.15 -6.85 35.2 -6.7 35.15 -6.6 35.1 -6.5 34.95 -6.45 34.9 -6.45 34.8 -6.45 34.75 -6.45 34.65 -6.5 34.6 -6.55 34.5 -6.65 34.4 -6.7 34.35 -6.85 34.05 Q-7.05 33.75 -7.4 33.6 -8.55 33.0 -9.8 32.8 L-9.7 31.9 -9.6 31.15 -8.4 31.2 Q-7.85 31.2 -7.55 30.75 -7.25 30.25 -7.8 29.95 L-8.55 29.55 -9.3 29.25 -8.65 25.65 -8.3 25.75 -8.1 25.8 -5.3 26.65 -5.05 26.45 Q-4.8 26.2 -4.95 25.8 -5.15 25.35 -5.65 25.05 L-6.5 24.5 -8.15 23.55 -7.3 20.15 -7.2 19.9 -6.5 20.15 -5.25 20.65 -5.1 20.7 -3.75 21.3 Q-2.4 21.9 -2.25 20.6 -2.2 20.3 -2.4 20.15 -3.65 19.0 -5.2 18.4 L-6.6 17.9 -5.85 15.5 -5.55 15.6 Q-5.0 15.85 -4.4 16.2 L-4.3 16.25 Q-3.65 16.6 -3.15 17.1 -2.2 17.9 -1.1 17.65 L-0.8 17.2 -0.8 16.8 Q-1.3 15.6 -2.55 14.85 L-5.1 13.5 -4.2 11.15 -2.6 11.9 -2.55 11.95 -2.1 12.25 -2.1 12.3 -1.65 12.3 Q-1.1 12.0 -1.25 11.45 -1.3 11.05 -1.65 10.8 L-1.85 10.45 Q-2.5 9.65 -3.4 9.2 L-3.2 8.7 -2.3 7.3 -2.2 7.4 -2.2 7.3 -2.1 7.3 -2.2 7.25 -2.2 7.1 -2.0 6.1 Q-0.7 7.05 0.3 8.35 1.15 9.35 2.05 8.45 2.45 8.05 2.25 7.55 L1.15 5.65 -0.35 4.3 -0.8 4.0 1.0 1.15 3.0 1.85 3.9 2.35 4.3 2.3 4.5 2.15 4.65 1.75 Q4.55 0.25 3.15 -0.55 L2.35 -1.0 M3.3 20.3 L3.2 20.2 3.2 20.25 3.25 20.3 3.35 20.4 3.3 20.3 M10.1 73.15 Q10.7 73.4 11.3 73.8 L12.0 74.5 12.45 75.35 10.7 74.2 9.95 75.5 8.8 77.45 8.95 78.4 Q7.75 78.4 7.15 77.85 L8.2 75.95 10.1 73.15 M-0.35 90.75 L-0.5 91.25 Q-0.7 91.85 -1.35 92.05 L-1.65 92.15 -1.6 92.1 Q-2.5 92.4 -3.05 91.55 L-3.75 90.1 Q-3.55 88.95 -4.6 88.1 L-5.7 87.1 -5.8 86.95 -6.1 86.55 -6.05 86.5 -5.8 86.3 -5.5 86.2 -4.75 86.0 -4.4 86.4 -4.0 86.7 -3.7 86.9 -3.25 87.35 -2.85 87.6 Q-2.45 88.2 -3.2 88.85 L-2.55 90.2 Q-2.15 90.9 -1.3 90.55 L-1.05 90.6 -0.35 90.75 M-2.6 92.2 L-2.65 92.2 -2.75 92.05 -2.6 92.2 M-7.1 91.85 L-7.95 92.4 -9.05 92.45 -9.15 92.45 -9.6 90.9 -9.65 89.15 -9.65 89.1 -9.55 89.1 -9.65 89.1 -10.85 88.7 Q-11.65 88.4 -11.55 87.85 L-11.3 87.75 -10.25 87.35 -9.7 87.3 -9.1 88.3 -9.05 89.0 -8.8 89.9 Q-8.4 91.1 -7.65 91.75 L-7.1 91.85 M-16.05 74.6 L-16.2 73.15 -16.15 73.5 -16.0 74.15 -16.05 74.45 -16.05 74.5 -16.05 74.6 M-13.35 74.9 L-13.3 74.95 -13.3 75.0 -13.35 74.9 M-15.9 74.55 L-15.9 74.5 -15.9 74.55" fill="#333333" fill-rule="evenodd" stroke="none"/>
    <path d="M3.3 20.3 L3.35 20.4 3.25 20.3 3.2 20.25 3.2 20.2 3.3 20.3 M-13.25 90.35 L-14.45 90.1 -15.05 89.6 -15.6 88.5 Q-15.85 87.65 -15.5 86.95 L-14.95 86.2 -14.25 86.05 -14.2 86.0 Q-13.2 86.1 -13.0 87.25 L-13.0 87.35 -12.5 87.65 Q-11.25 88.55 -12.45 89.95 L-13.0 90.3 -13.25 90.35 M-2.2 82.85 Q-0.25 82.55 0.65 84.2 1.55 85.85 0.15 87.1 -1.3 88.4 -2.85 87.6 L-3.25 87.35 -3.7 86.9 -3.95 86.35 -3.95 86.3 Q-4.4 84.5 -3.25 83.25 L-3.1 83.2 Q-2.8 83.0 -2.4 82.95 L-2.4 82.9 -2.2 82.85 M-14.35 21.35 L-14.25 21.3 -14.3 21.4 -14.35 21.35 M-9.7 87.3 Q-10.5 85.3 -8.45 84.8 L-7.15 85.55 Q-6.55 86.1 -6.1 87.0 -5.55 88.2 -6.55 89.1 -8.2 89.45 -9.1 88.3 L-9.7 87.3" fill="#999999" fill-rule="evenodd" stroke="none"/>
    <path d="M12.45 75.35 L12.55 75.4 Q13.75 76.0 14.1 76.85 13.6 78.45 14.6 81.0 15.6 83.6 15.35 85.0 15.1 85.3 14.95 86.4 14.85 87.4 14.25 87.75 L14.25 87.65 14.0 85.6 13.6 82.15 13.25 80.5 11.9 76.85 11.75 76.75 9.95 75.5 10.7 74.2 12.45 75.35 M13.6 93.85 L13.45 94.6 13.15 97.25 11.7 97.45 Q10.8 97.55 10.35 98.0 9.45 96.7 8.15 96.15 6.7 95.55 5.25 95.85 L4.25 96.15 Q3.65 96.35 3.6 96.75 2.45 96.7 2.0 96.0 2.2 95.45 2.65 95.05 4.45 93.6 6.65 94.5 L7.9 94.8 11.75 95.2 11.85 95.15 13.6 93.85 M-2.65 98.65 L-2.65 98.2 -2.35 97.85 Q-1.7 97.35 -0.9 97.2 L-0.65 97.05 0.3 96.2 0.6 96.35 0.85 96.5 3.25 97.9 2.35 99.25 Q1.9 100.05 1.2 99.75 0.5 99.2 -0.65 99.05 L-2.65 98.75 -2.65 98.65 M-13.55 75.45 L-14.0 75.35 -14.15 75.3 -14.25 75.0 -14.35 74.55 -14.2 74.5 -14.45 74.15 -14.5 73.45 -14.45 70.7 Q-11.45 71.1 -7.65 69.65 L-7.5 70.0 -7.7 70.15 -8.85 71.45 Q-9.8 71.95 -11.1 72.05 L-13.85 71.85 -13.45 73.4 -13.3 74.95 -13.35 74.9 Q-13.65 75.05 -13.55 75.45" fill="#666633" fill-rule="evenodd" stroke="none"/>
    <path d="M14.25 87.65 Q13.6 85.5 12.35 85.4 11.55 85.5 11.6 84.3 L11.45 82.35 Q11.8 81.0 10.25 79.75 L9.15 78.7 8.95 78.4 8.8 77.45 9.95 75.5 11.75 76.75 11.9 76.85 13.25 80.5 13.6 82.15 14.0 85.6 14.25 87.65 M8.05 91.45 Q7.4 91.45 6.65 90.85 L5.4 89.9 Q5.5 89.2 6.4 88.8 7.45 88.35 7.7 87.75 8.4 90.3 8.05 91.45 M2.0 96.0 L1.75 95.2 1.65 93.9 1.2 92.55 Q1.5 91.95 2.6 91.55 L4.45 90.9 Q5.0 90.9 5.85 91.75 6.75 92.7 7.25 92.85 10.0 93.9 14.45 92.2 13.9 92.9 13.6 93.85 L11.85 95.15 11.75 95.2 7.9 94.8 6.65 94.5 Q4.45 93.6 2.65 95.05 2.2 95.45 2.0 96.0 M0.6 96.35 L0.3 96.2 -0.65 97.05 -0.9 97.2 Q-1.7 97.35 -2.35 97.85 L-2.65 98.2 -2.65 98.65 Q-2.65 96.75 -4.4 95.1 L-2.15 94.3 Q-0.7 93.65 0.1 93.55 L-0.2 94.8 Q-0.55 95.5 -0.05 96.0 L0.6 96.35 M-13.55 75.45 Q-13.65 75.05 -13.35 74.9 L-13.3 75.0 -13.3 74.95 -13.45 73.4 -13.85 71.85 -11.1 72.05 Q-9.8 71.95 -8.85 71.45 L-7.7 70.15 -7.5 70.0 -6.6 72.1 Q-6.0 73.5 -5.95 74.65 L-6.35 75.15 -8.55 75.55 -11.5 75.7 -13.55 75.45 M-9.2 93.75 L-8.35 93.6 -7.55 93.75 Q-7.3 94.5 -5.65 95.1 -5.65 95.5 -5.25 95.8 -4.8 96.15 -4.75 96.45 L-5.45 96.15 Q-7.75 95.1 -9.2 93.75" fill="#999966" fill-rule="evenodd" stroke="none"/>
    <path d="M5.9 80.7 L5.8 80.9 Q5.5 81.8 5.9 82.65 L5.7 83.7 5.7 84.1 Q5.1 82.85 4.6 80.45 5.45 80.35 5.9 80.7 M-3.75 56.95 L-3.65 56.75 -3.65 56.95 -3.75 56.95" fill="#ffffff" fill-rule="evenodd" stroke="none"/>
    <path d="M-2.2 7.3 L-2.25 7.3 -2.2 7.25 -2.1 7.3 -2.2 7.3" fill="#414141" fill-rule="evenodd" stroke="none"/>
    <path d="M-18.35 41.3 L-16.75 40.1 Q-15.9 39.6 -14.9 39.45 L-13.55 39.25 Q-8.3 38.65 -7.3 43.4 -6.55 46.95 -9.15 49.6 L-10.9 51.5 Q-16.6 54.3 -19.65 49.4 L-20.2 48.0 Q-20.55 46.2 -20.2 44.7 L-20.2 44.9 Q-19.55 48.95 -15.3 47.65 -13.95 46.4 -13.4 44.55 -12.25 40.4 -16.8 40.45 L-18.35 41.3 M-11.35 59.9 L-14.25 60.2 Q-13.1 58.7 -15.55 58.0 L-15.6 58.0 Q-14.1 57.15 -12.65 56.65 -11.55 57.75 -11.35 59.9 M-15.95 60.45 L-17.0 60.65 Q-17.25 59.95 -16.95 59.2 L-16.65 58.65 -16.6 58.6 -16.85 59.0 -16.95 59.2 Q-17.25 59.95 -16.5 60.55 L-15.95 60.45 M-13.95 67.35 L-13.4 66.7 Q-12.5 65.25 -13.75 64.3 L-13.8 64.15 -13.95 64.0 -14.35 63.8 -14.7 63.9 -14.95 64.0 -14.95 64.05 -15.25 64.0 -15.65 64.45 -15.1 62.85 -11.65 62.3 Q-10.55 63.25 -11.0 65.35 L-11.25 67.35 -13.95 67.35 M-15.7 66.55 L-15.5 67.1 -15.2 67.2 -15.45 67.2 -15.7 66.55" fill="#54035a" fill-rule="evenodd" stroke="none"/>
    <path d="M-20.2 44.7 Q-20.55 46.2 -20.2 48.0 L-19.65 49.4 Q-16.6 54.3 -10.9 51.5 L-9.15 49.6 Q-6.55 46.95 -7.3 43.4 -8.3 38.65 -13.55 39.25 L-14.9 39.45 Q-15.9 39.6 -16.75 40.1 L-18.35 41.3 -18.35 41.35 Q-19.85 42.75 -20.2 44.7 M-14.65 38.45 Q-8.75 37.45 -3.3 40.65 -2.35 41.6 -1.85 43.9 -1.35 46.4 -0.65 47.3 -0.5 52.35 -3.2 55.55 -6.0 53.85 -9.9 53.7 -13.95 53.55 -16.65 55.2 -17.25 56.8 -18.45 56.0 L-19.45 55.15 Q-20.05 54.65 -20.45 54.6 -23.15 49.5 -21.5 44.95 -20.05 41.65 -19.1 40.55 -17.3 38.25 -14.65 38.45 M-3.75 56.95 L-3.65 56.95 -3.65 59.3 -10.35 59.85 -11.35 59.9 Q-11.55 57.75 -12.65 56.65 -7.35 54.6 -3.75 56.95 M-11.25 67.35 L-11.0 65.35 Q-10.55 63.25 -11.65 62.3 L-9.5 61.95 -3.75 61.1 -2.85 62.85 Q-2.7 63.8 -3.75 64.6 L-5.65 65.65 Q-8.2 67.05 -11.25 67.35" fill="#400040" fill-rule="evenodd" stroke="none"/>
    <path d="M-18.35 41.3 L-16.8 40.45 Q-12.25 40.4 -13.4 44.55 -13.95 46.4 -15.3 47.65 -19.55 48.95 -20.2 44.9 L-20.2 44.7 Q-19.85 42.75 -18.35 41.35 L-18.35 41.3 M-14.25 60.2 L-15.2 60.3 -15.95 60.45 -16.5 60.55 Q-17.25 59.95 -16.95 59.2 L-16.85 59.0 -16.6 58.6 -15.6 58.0 -15.55 58.0 Q-13.1 58.7 -14.25 60.2 M-15.65 64.45 L-15.25 64.0 -14.95 64.05 -14.95 64.0 -14.7 63.9 -14.35 63.8 -13.95 64.0 -13.8 64.15 -13.75 64.3 Q-12.5 65.25 -13.4 66.7 L-13.95 67.35 -14.25 67.3 -15.15 67.25 -15.2 67.2 -15.5 67.1 -15.7 66.55 -15.7 64.65 -15.65 64.45" fill="#663399" fill-rule="evenodd" stroke="none"/>
    <path d="M-14.25 86.05 L-14.25 86.0 -14.2 86.0 -14.25 86.05" fill="#cccccc" fill-rule="evenodd" stroke="none"/>
  </g>
</svg>
