<?xml version="1.0" encoding="UTF-8" standalone="no"?>
<svg xmlns:xlink="http://www.w3.org/1999/xlink" height="105.95px" width="35.5px" xmlns="http://www.w3.org/2000/svg">
  <g transform="matrix(1.0, 0.0, 0.0, 1.0, 9.25, 9.2)">
    <path d="M14.35 -0.45 L15.6 0.3 Q16.2 1.7 15.2 2.75 L16.75 3.85 Q17.25 4.45 16.9 5.2 L16.3 6.5 Q16.4 6.85 16.8 6.8 L17.5 6.8 Q18.15 7.4 17.95 8.35 L17.5 9.95 19.05 10.75 Q19.85 11.25 19.7 12.25 18.4 13.15 19.25 14.45 L20.1 15.5 20.6 16.6 Q20.9 17.3 20.35 18.05 19.6 19.0 19.55 19.3 L20.8 20.3 22.05 21.45 Q22.5 22.25 21.7 23.35 20.85 24.5 21.1 25.2 21.95 25.4 22.9 26.3 L24.5 27.65 Q24.15 29.1 22.2 30.6 L23.9 32.75 Q24.5 33.8 23.75 34.85 L23.0 35.7 22.5 36.65 23.55 37.7 23.5 37.7 23.65 38.45 23.55 39.15 23.35 39.65 Q24.3 40.4 24.95 41.5 26.15 43.35 26.1 45.85 26.55 48.4 25.45 51.2 L22.95 55.85 Q20.75 56.05 20.9 58.3 L21.1 60.3 Q21.15 61.4 20.75 62.05 20.6 63.5 19.65 65.15 L17.75 67.95 Q17.6 68.4 18.25 68.75 19.0 69.05 19.1 69.5 18.75 71.35 19.05 74.0 L19.5 78.5 Q19.1 84.3 16.75 89.0 17.35 90.55 16.15 91.95 L15.1 93.05 14.2 94.25 Q13.3 94.6 11.45 93.9 L8.75 94.05 Q8.05 94.1 7.25 94.75 L5.95 95.95 Q4.3 97.35 2.85 96.3 L0.45 96.05 -0.1 95.6 -2.35 93.75 -4.6 91.0 Q-5.05 90.3 -5.7 90.0 L-6.0 88.7 -6.8 87.85 -6.55 87.4 -8.85 82.5 Q-9.45 81.2 -9.2 79.9 L-9.15 79.8 -9.2 79.8 -7.7 78.25 -7.3 77.8 -7.05 77.85 -5.55 77.2 Q-4.65 76.8 -4.3 76.2 -4.75 75.3 -3.85 74.8 L-2.5 73.95 -0.6 73.35 -0.55 73.4 0.2 73.05 0.65 72.85 1.05 72.65 1.1 72.6 2.7 71.65 Q4.35 70.3 3.3 68.1 L5.85 66.4 5.5 65.75 Q5.8 63.3 5.25 60.55 L3.95 55.85 Q2.5 54.8 1.6 53.15 0.6 51.4 0.4 49.6 -0.2 42.0 3.4 38.95 L4.0 38.65 Q2.65 37.85 2.4 36.35 2.4 35.9 2.7 35.4 L3.15 34.5 1.85 33.5 Q1.0 32.95 1.05 32.2 L1.85 30.4 0.55 29.8 Q-0.25 29.4 -0.35 28.7 L-0.3 27.75 -0.05 26.85 Q-1.55 26.4 -1.95 25.3 L-1.4 23.9 Q-1.1 23.05 -1.75 22.65 L-2.95 22.45 -3.95 22.0 -4.0 21.4 -3.9 20.15 -3.5 18.95 Q-3.45 18.6 -3.75 18.3 L-3.85 18.2 -3.95 18.15 -4.1 18.1 -4.1 18.05 -4.7 18.15 Q-4.8 17.65 -5.25 17.2 L-5.3 16.9 -4.9 15.25 Q-4.8 14.65 -5.3 14.3 L-5.35 14.25 -5.5 14.2 -5.55 14.15 -6.2 14.3 -6.25 14.25 -6.5 14.05 -6.75 13.0 -6.65 12.85 -6.35 12.4 -6.15 11.95 Q-5.8 11.65 -5.75 11.1 -5.75 10.55 -6.15 10.25 L-6.25 10.2 -6.4 10.15 -6.4 10.1 -7.45 10.25 -7.9 10.1 -8.05 9.0 -7.85 8.25 Q-6.45 7.25 -7.3 5.95 L-7.45 5.85 -8.1 5.7 -8.25 5.65 -8.35 5.65 -8.4 5.65 -8.75 5.15 -8.75 1.55 -8.75 1.5 -8.5 -0.5 -7.65 -3.35 Q-6.55 -6.2 -3.75 -7.5 L-3.65 -7.55 -2.5 -8.0 Q-0.3 -9.2 2.7 -9.15 L4.0 -9.1 4.25 -8.95 4.55 -8.75 4.2 -9.0 5.1 -8.7 4.35 -9.0 5.5 -9.05 5.6 -9.0 Q8.45 -8.2 10.8 -6.35 L10.75 -5.35 Q10.7 -4.5 11.55 -4.15 L13.1 -4.05 13.3 -3.0 13.35 -2.9 13.05 -2.45 12.8 -1.65 12.85 -1.2 12.95 -0.9 13.2 -0.65 14.25 -0.55 14.35 -0.45 M-2.15 -6.65 L-2.8 -7.2 -2.3 -6.75 -2.4 -6.7 Q-3.75 -6.05 -4.75 -4.9 -5.85 -3.6 -6.55 -2.0 -7.4 0.05 -7.9 2.2 L-7.9 2.3 -8.0 2.75 -8.2 2.45 -8.25 2.4 -8.0 4.7 -7.55 4.85 Q-7.2 4.95 -6.95 5.2 -6.0 6.0 -6.05 7.2 -6.05 8.4 -6.8 9.3 L-5.9 9.5 Q-5.6 9.55 -5.45 9.8 L-5.1 10.45 Q-4.75 11.7 -5.3 12.95 -4.5 13.5 -4.2 14.4 L-3.95 14.95 Q-3.7 15.6 -3.7 16.3 L-2.7 17.2 -2.45 16.55 -3.1 18.75 Q-3.2 19.45 -2.75 19.8 L-2.7 19.9 -3.05 20.65 Q-1.95 20.45 -1.2 21.1 -0.6 21.55 -0.2 22.55 L-0.2 22.9 Q-0.2 23.85 -0.7 24.7 L0.5 25.15 Q1.2 25.4 1.35 26.05 L1.15 27.05 0.7 27.8 Q1.75 27.95 3.15 28.85 L3.0 30.45 2.6 31.95 Q2.8 32.25 3.8 32.6 4.65 32.85 4.75 33.55 L4.2 35.1 Q3.75 36.05 3.8 36.55 L5.0 37.1 Q5.65 37.35 5.7 37.95 L5.7 38.1 5.95 37.9 6.1 37.75 6.05 37.8 6.5 37.8 6.8 37.75 7.2 37.65 7.25 37.6 7.5 37.55 13.3 37.0 13.35 37.0 15.65 37.15 15.95 37.15 16.65 37.25 16.75 37.3 17.7 37.45 19.35 37.8 19.9 37.9 20.85 38.2 21.0 37.9 21.0 37.7 21.15 37.7 21.05 37.65 21.0 37.6 21.25 36.2 Q21.25 35.55 21.85 34.85 L22.85 33.75 21.65 31.7 Q20.8 30.5 20.8 29.55 L22.85 27.65 Q20.4 25.8 20.05 24.4 19.8 23.9 20.05 23.3 L20.5 22.4 Q21.1 21.4 19.85 20.8 18.75 20.55 18.6 18.65 18.6 17.75 19.55 16.6 L18.25 14.7 Q17.5 13.5 18.15 12.7 18.15 12.1 17.1 11.15 L16.65 10.75 16.85 10.15 16.95 9.5 16.7 9.0 17.05 8.2 16.35 7.95 Q15.35 7.5 15.15 6.55 15.1 6.15 15.2 5.65 L15.2 5.6 15.2 5.55 15.2 5.45 15.25 5.35 15.3 5.2 15.3 5.05 15.35 4.95 15.5 4.75 14.25 3.7 14.5 3.9 Q14.85 3.4 14.7 2.8 L14.7 2.55 Q14.8 2.0 14.55 1.65 14.8 1.35 14.65 0.85 L14.2 0.4 13.6 0.35 12.15 0.25 11.8 -0.55 11.75 -0.55 11.65 -1.55 11.8 -3.0 11.4 -3.1 11.3 -3.15 10.85 -3.55 Q10.0 -4.05 9.65 -4.9 L9.45 -5.7 Q8.35 -6.35 7.1 -6.8 L4.35 -7.65 0.4 -7.55 -1.7 -6.95 -2.05 -6.75 -2.15 -6.65 M18.15 42.25 L13.9 41.9 13.0 42.0 12.35 42.5 Q12.1 42.85 12.1 43.5 L12.1 49.6 12.2 50.05 12.55 50.4 12.95 50.5 13.35 50.45 13.7 50.2 13.85 49.8 13.85 47.15 18.25 47.55 18.25 50.2 18.4 50.6 18.75 50.95 19.15 51.05 19.7 50.85 20.0 50.25 20.0 44.1 19.7 43.1 19.05 42.5 18.15 42.25 M14.65 40.55 L15.95 40.55 18.8 40.95 Q20.45 41.25 21.75 42.2 L22.2 43.7 22.65 46.5 22.65 49.05 Q22.45 50.9 21.5 52.65 L20.9 52.45 19.0 52.1 16.2 51.8 10.3 51.55 10.2 51.2 9.95 50.35 9.55 47.85 Q9.4 46.5 9.5 45.15 9.7 42.8 10.35 40.65 L12.4 40.55 14.65 40.55 M6.7 39.2 Q5.05 39.65 3.65 40.4 1.25 44.35 2.1 48.65 L3.15 52.15 Q3.95 54.1 5.5 54.75 L9.35 53.6 13.3 53.2 15.5 53.55 17.75 53.8 Q20.35 54.15 21.55 55.65 23.85 53.75 24.4 50.1 24.8 47.0 23.85 43.55 22.4 40.75 20.65 39.5 16.25 38.35 12.0 38.45 L9.5 38.65 9.35 38.65 9.2 38.7 9.0 38.7 8.85 38.75 8.75 38.75 8.55 38.8 8.4 38.8 8.3 38.85 8.15 38.85 7.85 38.9 6.7 39.2 M13.85 43.7 L18.25 44.1 18.25 45.75 13.85 45.35 13.85 43.7 M12.15 55.55 L6.3 56.3 Q6.9 58.15 7.05 61.1 L7.05 65.95 8.65 66.1 8.8 66.15 11.6 66.7 12.95 66.85 17.3 67.3 18.45 65.15 18.6 64.1 Q18.55 63.45 18.85 63.1 L19.1 56.7 Q16.35 55.45 12.75 55.5 L12.15 55.55 M-4.6 29.4 L-4.65 29.2 -4.6 29.35 -4.6 29.4 M-5.55 83.45 L-5.3 83.75 -4.7 84.65 -4.5 84.2 -4.15 83.85 -3.3 82.65 -2.6 81.5 Q-1.95 80.4 -2.45 79.15 -2.7 78.5 -3.7 77.1 -3.5 78.25 -4.35 79.2 L-4.45 79.35 -6.0 80.85 Q-6.95 81.75 -6.05 82.85 L-5.55 83.45 M-3.1 84.2 L-3.95 85.2 Q-3.95 85.8 -4.55 86.55 L-5.5 87.75 -4.65 88.45 -3.8 89.1 -3.35 88.35 -2.65 87.6 Q-1.95 86.7 -3.15 86.2 L-2.85 86.05 -1.8 86.1 -0.55 86.6 Q-0.4 85.8 -0.4 84.45 L-0.25 82.25 Q-1.35 81.75 -2.3 82.95 L-2.3 83.0 -2.35 83.0 -2.35 83.05 -3.1 84.2 M10.25 71.8 L11.55 71.05 11.75 71.0 11.9 70.95 14.85 71.1 16.65 71.45 16.8 71.55 17.55 71.95 17.85 71.05 Q18.1 70.15 17.5 69.65 L15.45 69.6 13.45 69.85 Q11.85 68.8 10.4 68.35 L6.6 67.95 Q5.7 67.85 5.8 68.65 L5.95 69.3 5.95 69.95 Q4.8 72.15 2.15 73.6 L-2.7 75.55 Q-0.95 77.1 -0.8 80.75 L-0.55 80.85 Q0.2 82.15 1.75 81.5 1.0 81.8 1.2 82.9 1.45 84.2 1.2 84.65 L0.7 87.25 Q0.3 88.3 -1.5 87.75 -2.5 88.9 -2.7 91.0 -1.65 91.5 -0.9 92.7 L-0.85 92.8 -0.8 92.85 -0.65 93.1 -0.55 93.35 -0.35 93.7 -0.2 94.05 0.2 94.85 Q4.05 95.75 5.5 93.95 4.65 94.2 3.95 93.6 L4.05 92.85 Q5.05 94.5 7.1 93.5 L7.4 93.25 7.55 93.2 Q8.65 93.55 9.55 92.5 L10.15 91.85 10.55 91.55 10.4 91.7 Q10.0 92.15 10.3 92.75 11.05 94.25 12.6 93.25 L12.65 93.3 Q14.0 93.3 15.3 91.75 L15.3 89.0 Q17.3 86.0 17.85 81.9 18.15 78.9 17.7 75.95 L17.65 76.1 17.6 76.5 17.2 77.05 17.05 77.1 13.35 76.95 10.95 76.3 9.8 76.15 9.55 75.95 9.25 74.75 9.25 74.4 9.7 73.3 9.75 73.3 Q9.65 74.15 10.0 75.4 L10.5 75.4 11.65 75.6 11.85 75.7 13.7 76.3 13.8 76.3 16.25 76.2 16.55 76.15 16.6 76.0 16.75 75.85 17.0 75.55 17.0 74.3 17.2 74.3 17.1 74.0 17.05 73.5 17.15 73.55 17.15 73.5 Q17.0 73.0 17.2 72.55 L15.8 72.4 Q14.8 72.15 14.2 71.65 L11.95 71.7 Q10.95 71.7 10.1 72.25 L10.25 71.8 M17.6 72.55 L17.5 72.4 17.5 72.6 17.6 72.55" fill="#000000" fill-rule="evenodd" stroke="none"/>
    <path d="M-8.2 2.45 L-8.0 2.75 -7.9 2.3 -7.9 2.2 Q-7.4 0.05 -6.55 -2.0 -5.85 -3.6 -4.75 -4.9 -3.75 -6.05 -2.4 -6.7 L-2.3 -6.75 -2.8 -7.2 -2.15 -6.65 -1.2 -5.7 Q-1.85 -5.1 -1.0 -4.7 L-0.4 -4.55 -0.2 -4.55 1.3 -2.45 0.45 -2.0 Q-0.95 -1.2 -1.05 0.3 L-0.9 0.7 -0.7 0.85 -0.3 0.9 Q0.3 0.9 0.6 0.4 L2.6 -0.3 4.4 2.55 3.95 2.85 2.45 4.2 1.35 6.1 Q1.15 6.6 1.55 7.0 L3.3 6.9 Q4.3 5.6 5.6 4.65 L5.8 5.65 5.8 5.8 5.7 5.85 5.8 5.85 5.8 5.95 5.9 5.85 6.8 7.25 7.0 7.75 Q6.1 8.2 5.45 9.0 L5.25 9.35 Q4.9 9.6 4.85 10.0 4.7 10.55 5.25 10.85 L5.7 10.85 5.7 10.8 6.15 10.5 6.2 10.45 7.85 9.7 8.75 12.05 Q7.4 12.65 6.15 13.4 4.9 14.15 4.4 15.35 L4.4 15.75 4.7 16.2 Q5.8 16.45 6.75 15.65 7.25 15.15 7.9 14.8 L8.05 14.75 Q8.6 14.4 9.2 14.15 L9.45 14.05 10.25 16.45 8.8 16.95 Q7.25 17.55 6.0 18.7 5.8 18.85 5.85 19.15 6.0 20.45 7.35 19.85 L8.7 19.25 8.85 19.2 10.1 18.7 10.85 18.45 10.9 18.7 11.8 22.1 Q10.9 22.45 10.1 23.05 L9.25 23.6 Q8.75 23.9 8.55 24.35 8.4 24.75 8.65 25.0 L8.9 25.2 11.7 24.35 11.9 24.3 12.25 24.2 12.95 27.8 12.15 28.1 11.4 28.5 Q10.85 28.8 11.15 29.3 11.45 29.75 12.0 29.75 L13.2 29.7 13.3 30.45 13.4 31.35 Q12.15 31.55 11.0 32.15 10.65 32.3 10.45 32.6 L10.3 32.9 10.25 32.95 10.15 33.05 10.1 33.15 10.05 33.2 10.05 33.3 10.05 33.35 10.05 33.45 10.1 33.5 10.2 33.65 10.3 33.7 10.45 33.75 10.65 33.7 10.75 33.7 12.8 33.7 13.5 33.55 13.5 34.55 13.65 35.15 13.3 37.0 7.5 37.55 7.15 36.85 7.1 36.5 6.25 35.6 5.35 34.55 Q6.55 31.85 4.55 29.55 L3.7 28.7 Q4.1 27.45 3.95 26.05 L3.55 25.1 Q2.55 23.65 1.1 22.55 1.15 19.8 -0.8 17.8 L-1.05 17.35 Q-1.35 16.25 -2.1 15.7 L-1.9 15.2 -2.35 15.05 -2.5 14.85 Q-3.3 14.1 -3.4 13.1 -3.55 11.15 -4.35 9.3 L-5.15 7.8 -5.95 6.3 -8.2 2.45 M0.4 18.75 L0.35 18.85 0.3 18.95 0.35 18.85 0.45 18.8 0.4 18.75 M17.6 72.55 L17.5 72.6 17.5 72.4 17.6 72.55 M4.1 81.15 Q4.2 84.65 1.95 85.85 L1.75 85.85 2.55 83.1 3.2 80.2 Q3.5 80.2 3.8 80.5 L4.1 81.15" fill="#333333" fill-rule="evenodd" stroke="none"/>
    <path d="M14.35 -0.45 L14.25 -0.55 14.4 -0.6 14.35 -0.45 M-8.2 2.45 L-5.95 6.3 -5.15 7.8 -4.35 9.3 Q-3.55 11.15 -3.4 13.1 -3.3 14.1 -2.5 14.85 L-2.35 15.05 -1.9 15.2 -2.1 15.7 Q-1.35 16.25 -1.05 17.35 L-0.8 17.8 Q1.15 19.8 1.1 22.55 2.55 23.65 3.55 25.1 L3.95 26.05 Q4.1 27.45 3.7 28.7 L4.55 29.55 Q6.55 31.85 5.35 34.55 L6.25 35.6 7.1 36.5 7.15 36.85 7.5 37.55 7.25 37.6 7.2 37.65 6.8 37.75 6.5 37.8 6.05 37.8 6.1 37.75 5.95 37.9 5.7 38.1 5.7 37.95 Q5.65 37.35 5.0 37.1 L3.8 36.55 Q3.75 36.05 4.2 35.1 L4.75 33.55 Q4.65 32.85 3.8 32.6 2.8 32.25 2.6 31.95 L3.0 30.45 3.15 28.85 Q1.75 27.95 0.7 27.8 L1.15 27.05 1.35 26.05 Q1.2 25.4 0.5 25.15 L-0.7 24.7 Q-0.2 23.85 -0.2 22.9 L-0.2 22.55 Q-0.6 21.55 -1.2 21.1 -1.95 20.45 -3.05 20.65 L-2.7 19.9 -2.75 19.8 Q-3.2 19.45 -3.1 18.75 L-2.45 16.55 -2.7 17.2 -3.7 16.3 Q-3.7 15.6 -3.95 14.95 L-4.2 14.4 Q-4.5 13.5 -5.3 12.95 -4.75 11.7 -5.1 10.45 L-5.45 9.8 Q-5.6 9.55 -5.9 9.5 L-6.8 9.3 Q-6.05 8.4 -6.05 7.2 -6.0 6.0 -6.95 5.2 -7.2 4.95 -7.55 4.85 L-8.0 4.7 -8.25 2.4 -8.2 2.45 M13.3 37.0 L13.65 35.15 13.5 34.55 13.5 33.55 12.8 33.7 13.85 33.45 15.2 33.25 Q16.95 33.25 18.5 34.0 19.8 34.6 20.35 33.5 L20.3 32.7 Q19.95 32.05 19.15 31.85 L18.0 31.5 17.55 31.4 15.7 31.25 15.7 31.2 13.4 31.35 13.3 30.45 13.2 29.7 15.75 29.6 18.5 29.7 Q19.85 29.9 19.85 28.6 19.8 28.15 19.45 27.85 L16.0 27.45 12.95 27.8 12.25 24.2 12.85 23.95 16.5 23.7 Q17.7 23.95 18.45 23.2 L18.5 22.9 Q18.1 21.8 16.9 21.65 L15.7 21.45 Q13.55 21.3 11.8 22.1 L10.9 18.7 10.85 18.45 Q12.55 17.8 14.3 17.4 L15.7 17.3 Q16.65 17.35 17.15 16.7 L17.1 16.3 Q16.3 15.65 15.2 15.6 L14.45 15.55 10.25 16.45 9.45 14.05 9.2 14.15 Q10.75 13.35 12.45 12.8 L14.4 12.7 Q15.3 12.9 15.6 12.2 15.8 11.8 15.45 11.5 14.75 10.9 13.9 10.8 11.5 10.75 9.3 11.75 L8.75 12.05 7.85 9.7 9.65 8.55 Q10.15 8.2 10.75 8.05 L13.05 7.8 Q14.0 7.15 13.05 6.45 L12.2 6.2 11.7 6.1 Q10.05 6.05 8.6 6.85 L7.05 7.7 7.0 7.75 6.8 7.25 5.9 5.85 5.8 5.95 5.8 5.85 5.9 5.85 5.85 5.8 5.8 5.8 5.8 5.65 5.6 4.65 Q6.25 4.15 7.0 3.75 8.15 3.15 9.45 2.9 L10.3 2.7 11.0 2.15 11.05 2.05 11.05 1.85 11.05 1.75 10.6 1.25 Q10.15 0.95 9.7 1.0 6.8 1.0 4.4 2.55 L2.6 -0.3 5.55 -1.75 7.45 -2.2 Q8.55 -2.2 8.6 -3.05 L7.45 -3.75 5.7 -4.0 Q3.4 -3.7 1.35 -2.5 L1.3 -2.45 -0.2 -4.55 Q1.4 -4.6 3.0 -5.45 L3.65 -5.7 Q4.05 -5.85 4.05 -6.25 4.1 -7.5 2.75 -7.55 0.5 -7.2 -1.15 -5.75 L-1.2 -5.7 -2.15 -6.65 -2.05 -6.75 -1.7 -6.95 0.4 -7.55 4.35 -7.65 7.1 -6.8 Q8.35 -6.35 9.45 -5.7 L9.65 -4.9 Q10.0 -4.05 10.85 -3.55 L11.3 -3.15 11.4 -3.1 11.8 -3.0 11.65 -1.55 11.75 -0.55 11.8 -0.55 12.15 0.25 13.6 0.35 14.2 0.4 14.65 0.85 Q14.8 1.35 14.55 1.65 14.8 2.0 14.7 2.55 L14.7 2.8 Q14.85 3.4 14.5 3.9 L14.25 3.7 15.5 4.75 15.35 4.95 15.3 5.05 15.3 5.2 15.25 5.35 15.2 5.45 15.2 5.55 15.2 5.6 15.2 5.65 Q15.1 6.15 15.15 6.55 15.35 7.5 16.35 7.95 L17.05 8.2 16.7 9.0 16.95 9.5 16.85 10.15 16.65 10.75 17.1 11.15 Q18.15 12.1 18.15 12.7 17.5 13.5 18.25 14.7 L19.55 16.6 Q18.6 17.75 18.6 18.65 18.75 20.55 19.85 20.8 21.1 21.4 20.5 22.4 L20.05 23.3 Q19.8 23.9 20.05 24.4 20.4 25.8 22.85 27.65 L20.8 29.55 Q20.8 30.5 21.65 31.7 L22.85 33.75 21.85 34.85 Q21.25 35.55 21.25 36.2 L21.0 37.6 21.05 37.65 21.0 37.7 21.0 37.9 20.85 38.2 19.9 37.9 19.35 37.8 17.7 37.45 16.75 37.3 16.65 37.25 15.95 37.15 15.65 37.15 13.35 37.0 13.3 37.0 M17.9 19.95 L17.95 19.9 17.85 19.85 17.9 19.95 M10.4 68.35 Q11.85 68.8 13.45 69.85 L15.45 69.6 17.5 69.65 Q18.1 70.15 17.85 71.05 L17.55 71.95 16.8 71.55 16.65 71.45 14.85 71.1 11.9 70.95 11.75 71.0 11.55 71.05 10.25 71.8 10.55 69.5 10.4 68.35 M16.6 76.0 L16.55 76.15 16.25 76.2 16.6 76.0 M9.75 73.3 L9.7 73.3 9.25 74.4 9.25 74.75 9.55 75.95 9.8 76.15 10.95 76.3 13.35 76.95 17.05 77.1 17.2 77.05 17.6 76.5 17.65 76.1 17.7 75.95 Q18.15 78.9 17.85 81.9 17.3 86.0 15.3 89.0 L15.3 91.75 Q14.0 93.3 12.65 93.3 L12.6 93.25 12.7 93.2 Q13.65 92.55 13.9 91.5 14.1 90.5 13.85 89.9 L13.65 88.7 Q13.1 87.45 11.65 87.7 10.8 88.1 10.2 88.8 9.0 90.1 9.85 91.6 L10.15 91.85 9.55 92.5 Q8.65 93.55 7.55 93.2 L7.4 93.25 Q8.3 92.25 8.55 90.95 8.75 89.9 8.35 89.3 8.3 88.75 7.85 88.3 L7.55 87.9 Q6.7 86.8 5.25 86.8 L4.35 87.05 4.6 86.3 Q7.05 79.65 9.75 73.1 L9.75 73.3 M4.05 92.85 L3.95 93.6 Q4.65 94.2 5.5 93.95 4.05 95.75 0.2 94.85 L-0.2 94.05 0.25 93.85 2.55 90.65 Q2.75 91.4 3.25 92.05 L3.95 92.6 4.05 92.85" fill="#4e4e4e" fill-rule="evenodd" stroke="none"/>
    <path d="M12.8 33.7 L10.75 33.7 10.65 33.7 10.45 33.75 10.3 33.7 10.2 33.65 10.1 33.5 10.05 33.45 10.05 33.35 10.05 33.3 10.05 33.2 10.1 33.15 10.15 33.05 10.25 32.95 10.3 32.9 10.45 32.6 Q10.65 32.3 11.0 32.15 12.15 31.55 13.4 31.35 L15.7 31.2 15.7 31.25 17.55 31.4 18.0 31.5 19.15 31.85 Q19.95 32.05 20.3 32.7 L20.35 33.5 Q19.8 34.6 18.5 34.0 16.95 33.25 15.2 33.25 L13.85 33.45 12.8 33.7 M13.2 29.7 L12.0 29.75 Q11.45 29.75 11.15 29.3 10.85 28.8 11.4 28.5 L12.15 28.1 12.95 27.8 16.0 27.45 19.45 27.85 Q19.8 28.15 19.85 28.6 19.85 29.9 18.5 29.7 L15.75 29.6 13.2 29.7 M12.25 24.2 L11.9 24.3 11.7 24.35 8.9 25.2 8.65 25.0 Q8.4 24.75 8.55 24.35 8.75 23.9 9.25 23.6 L10.1 23.05 Q10.9 22.45 11.8 22.1 13.55 21.3 15.7 21.45 L16.9 21.65 Q18.1 21.8 18.5 22.9 L18.45 23.2 Q17.7 23.95 16.5 23.7 L12.85 23.95 12.25 24.2 M10.85 18.45 L10.1 18.7 8.85 19.2 8.7 19.25 7.35 19.85 Q6.0 20.45 5.85 19.15 5.8 18.85 6.0 18.7 7.25 17.55 8.8 16.95 L10.25 16.45 14.45 15.55 15.2 15.6 Q16.3 15.65 17.1 16.3 L17.15 16.7 Q16.65 17.35 15.7 17.3 L14.3 17.4 Q12.55 17.8 10.85 18.45 M9.2 14.15 Q8.6 14.4 8.05 14.75 L7.9 14.8 Q7.25 15.15 6.75 15.65 5.8 16.45 4.7 16.2 L4.4 15.75 4.4 15.35 Q4.9 14.15 6.15 13.4 7.4 12.65 8.75 12.05 L9.3 11.75 Q11.5 10.75 13.9 10.8 14.75 10.9 15.45 11.5 15.8 11.8 15.6 12.2 15.3 12.9 14.4 12.7 L12.45 12.8 Q10.75 13.35 9.2 14.15 M7.85 9.7 L6.2 10.45 6.15 10.5 5.7 10.8 5.7 10.85 5.25 10.85 Q4.7 10.55 4.85 10.0 4.9 9.6 5.25 9.35 L5.45 9.0 Q6.1 8.2 7.0 7.75 L7.05 7.7 8.6 6.85 Q10.05 6.05 11.7 6.1 L12.2 6.2 13.05 6.45 Q14.0 7.15 13.05 7.8 L10.75 8.05 Q10.15 8.2 9.65 8.55 L7.85 9.7 M5.6 4.65 Q4.3 5.6 3.3 6.9 L1.55 7.0 Q1.15 6.6 1.35 6.1 L2.45 4.2 3.95 2.85 4.4 2.55 Q6.8 1.0 9.7 1.0 10.15 0.95 10.6 1.25 L11.05 1.75 11.05 1.85 11.05 2.05 11.0 2.15 10.3 2.7 9.45 2.9 Q8.15 3.15 7.0 3.75 6.25 4.15 5.6 4.65 M2.6 -0.3 L0.6 0.4 Q0.3 0.9 -0.3 0.9 L-0.7 0.85 -0.9 0.7 -1.05 0.3 Q-0.95 -1.2 0.45 -2.0 L1.3 -2.45 1.35 -2.5 Q3.4 -3.7 5.7 -4.0 L7.45 -3.75 8.6 -3.05 Q8.55 -2.2 7.45 -2.2 L5.55 -1.75 2.6 -0.3 M-0.2 -4.55 L-0.4 -4.55 -1.0 -4.7 Q-1.85 -5.1 -1.2 -5.7 L-1.15 -5.75 Q0.5 -7.2 2.75 -7.55 4.1 -7.5 4.05 -6.25 4.05 -5.85 3.65 -5.7 L3.0 -5.45 Q1.4 -4.6 -0.2 -4.55 M10.25 71.8 L10.1 72.25 10.0 72.3 Q9.8 72.65 9.75 73.1 7.05 79.65 4.6 86.3 L4.35 87.05 5.25 86.8 Q6.7 86.8 7.55 87.9 L7.85 88.3 Q8.3 88.75 8.35 89.3 7.85 88.7 6.7 88.6 4.55 89.25 3.8 91.5 3.65 92.05 3.9 92.55 L3.95 92.6 3.25 92.05 Q2.75 91.4 2.55 90.65 L0.25 93.85 -0.2 94.05 -0.35 93.7 -0.55 93.35 -0.65 93.1 -0.8 92.85 -0.85 92.8 -0.9 92.7 Q-1.65 91.5 -2.7 91.0 -2.5 88.9 -1.5 87.75 0.3 88.3 0.7 87.25 L1.2 84.65 Q1.45 84.2 1.2 82.9 1.0 81.8 1.75 81.5 0.2 82.15 -0.55 80.85 L-0.8 80.75 Q-0.95 77.1 -2.7 75.55 L2.15 73.6 Q4.8 72.15 5.95 69.95 L5.95 69.3 5.8 68.65 Q5.7 67.85 6.6 67.95 L10.4 68.35 10.55 69.5 10.25 71.8 M10.55 91.55 L10.15 91.85 9.85 91.6 Q9.0 90.1 10.2 88.8 10.8 88.1 11.65 87.7 13.1 87.45 13.65 88.7 L13.85 89.9 Q13.5 89.25 12.65 88.95 L12.25 89.05 Q11.25 89.5 11.25 90.7 L10.55 91.55 M4.1 81.15 L3.8 80.5 Q3.5 80.2 3.2 80.2 L2.55 83.1 1.75 85.85 1.95 85.85 Q4.2 84.65 4.1 81.15" fill="#666666" fill-rule="evenodd" stroke="none"/>
    <path d="M5.8 5.85 L5.7 5.85 5.8 5.8 5.85 5.8 5.9 5.85 5.8 5.85" fill="#414141" fill-rule="evenodd" stroke="none"/>
    <path d="M17.9 19.95 L17.85 19.85 17.95 19.9 17.9 19.95 M0.4 18.75 L0.45 18.8 0.35 18.85 0.3 18.95 0.35 18.85 0.4 18.75 M12.6 93.25 Q11.05 94.25 10.3 92.75 10.0 92.15 10.4 91.7 L10.55 91.55 11.25 90.7 Q11.25 89.5 12.25 89.05 L12.65 88.95 Q13.5 89.25 13.85 89.9 14.1 90.5 13.9 91.5 13.65 92.55 12.7 93.2 L12.6 93.25 M7.4 93.25 L7.1 93.5 Q5.05 94.5 4.05 92.85 L3.95 92.6 3.9 92.55 Q3.65 92.05 3.8 91.5 4.55 89.25 6.7 88.6 7.85 88.7 8.35 89.3 8.75 89.9 8.55 90.95 8.3 92.25 7.4 93.25" fill="#999999" fill-rule="evenodd" stroke="none"/>
    <path d="M21.05 37.65 L21.15 37.7 21.0 37.7 21.05 37.65 M10.2 51.2 L10.3 51.55 16.2 51.8 19.0 52.1 20.9 52.45 21.5 52.65 Q22.45 50.9 22.65 49.05 L22.65 46.5 22.2 43.7 21.75 42.2 Q20.45 41.25 18.8 40.95 L15.95 40.55 14.65 40.55 Q12.7 38.85 9.5 38.65 L12.0 38.45 Q16.25 38.35 20.65 39.5 22.4 40.75 23.85 43.55 24.8 47.0 24.4 50.1 23.85 53.75 21.55 55.65 20.35 54.15 17.75 53.8 L15.5 53.55 13.3 53.2 9.35 53.6 5.5 54.75 Q3.95 54.1 3.15 52.15 L2.1 48.65 Q1.25 44.35 3.65 40.4 5.05 39.65 6.7 39.2 L5.6 39.55 Q3.45 40.85 3.15 43.75 L3.15 43.8 3.1 44.2 3.1 44.45 3.1 44.55 3.2 45.65 3.3 46.05 Q4.9 51.35 10.2 51.2 M12.15 55.55 L12.75 55.5 Q16.35 55.45 19.1 56.7 L18.85 63.1 Q18.55 63.45 18.6 64.1 L18.45 65.15 17.3 67.3 12.95 66.85 11.6 66.7 12.1 66.75 Q13.05 63.4 12.6 59.7 L12.15 55.55" fill="#400040" fill-rule="evenodd" stroke="none"/>
    <path d="M18.15 42.25 L19.05 42.5 19.7 43.1 20.0 44.1 20.0 50.25 19.7 50.85 19.15 51.05 18.75 50.95 18.4 50.6 18.25 50.2 18.25 47.55 13.85 47.15 13.85 49.8 13.7 50.2 13.35 50.45 12.95 50.5 12.55 50.4 12.2 50.05 12.1 49.6 12.1 43.5 Q12.1 42.85 12.35 42.5 L13.0 42.0 13.9 41.9 18.15 42.25 M13.85 43.7 L13.85 45.35 18.25 45.75 18.25 44.1 13.85 43.7" fill="#9999ff" fill-rule="evenodd" stroke="none"/>
    <path d="M14.65 40.55 L12.4 40.55 10.35 40.65 Q9.7 42.8 9.5 45.15 9.4 46.5 9.55 47.85 L9.95 50.35 10.2 51.2 Q4.9 51.35 3.3 46.05 L3.2 45.65 3.1 44.55 3.1 44.45 3.1 44.2 3.15 43.8 3.15 43.75 Q3.45 40.85 5.6 39.55 L6.7 39.2 7.85 38.9 8.15 38.85 8.3 38.85 8.4 38.8 8.55 38.8 8.75 38.75 8.85 38.75 9.0 38.7 9.2 38.7 9.35 38.65 9.5 38.65 Q12.7 38.85 14.65 40.55 M11.6 66.7 L8.8 66.15 8.65 66.1 7.05 65.95 7.05 61.1 Q6.9 58.15 6.3 56.3 L12.15 55.55 12.6 59.7 Q13.05 63.4 12.1 66.75 L11.6 66.7 M11.7 60.5 Q12.7 57.15 10.0 55.9 9.6 55.95 9.35 56.2 7.6 58.05 7.8 60.9 7.85 61.55 8.3 62.05 10.1 64.0 11.25 61.7 L11.7 60.5" fill="#54035a" fill-rule="evenodd" stroke="none"/>
    <path d="M11.7 60.5 L11.25 61.7 Q10.1 64.0 8.3 62.05 7.85 61.55 7.8 60.9 7.6 58.05 9.35 56.2 9.6 55.95 10.0 55.9 12.7 57.15 11.7 60.5" fill="#663399" fill-rule="evenodd" stroke="none"/>
    <path d="M-4.45 79.35 L-4.35 79.2 Q-3.5 78.25 -3.7 77.1 -2.7 78.5 -2.45 79.15 -1.95 80.4 -2.6 81.5 L-3.3 82.65 -4.15 83.85 -4.5 84.2 -4.7 84.65 -5.3 83.75 -5.55 83.45 -3.95 80.8 -4.45 79.35 M-2.85 86.05 L-3.1 85.35 -3.15 84.25 -3.1 84.2 -2.35 83.05 -2.35 83.0 -2.3 83.0 -2.3 82.95 Q-1.35 81.75 -0.25 82.25 L-0.4 84.45 Q-0.4 85.8 -0.55 86.6 L-1.8 86.1 -2.85 86.05 M10.1 72.25 Q10.95 71.7 11.95 71.7 L14.2 71.65 Q14.8 72.15 15.8 72.4 L17.2 72.55 Q17.0 73.0 17.15 73.5 L17.15 73.55 17.05 73.5 15.8 73.35 13.1 73.3 Q11.75 72.7 11.05 73.8 L10.9 73.85 10.75 74.05 10.75 74.2 10.7 74.4 10.5 74.7 10.4 75.1 10.4 75.2 10.45 75.3 10.5 75.4 10.0 75.4 Q9.65 74.15 9.75 73.3 L9.75 73.1 Q9.8 72.65 10.0 72.3 L10.1 72.25" fill="#666633" fill-rule="evenodd" stroke="none"/>
    <path d="M-5.55 83.45 L-6.05 82.85 Q-6.95 81.75 -6.0 80.85 L-4.45 79.35 -3.95 80.8 -5.55 83.45 M-3.1 84.2 L-3.15 84.25 -3.1 85.35 -2.85 86.05 -3.15 86.2 Q-1.95 86.7 -2.65 87.6 L-3.35 88.35 -3.8 89.1 -4.65 88.45 -5.5 87.75 -4.55 86.55 Q-3.95 85.8 -3.95 85.2 L-3.1 84.2 M-2.3 82.95 L-2.3 83.0 -2.3 82.95 M17.05 73.5 L17.1 74.0 17.2 74.3 17.0 74.3 17.0 75.55 16.75 75.85 16.6 76.0 16.25 76.2 13.8 76.3 13.7 76.3 11.85 75.7 11.65 75.6 10.5 75.4 10.45 75.3 10.4 75.2 10.4 75.1 10.5 74.7 10.7 74.4 10.75 74.2 10.75 74.05 10.9 73.85 11.05 73.8 Q11.75 72.7 13.1 73.3 L15.8 73.35 17.05 73.5 M15.6 74.5 L15.55 75.0 15.6 75.0 15.6 74.5" fill="#999966" fill-rule="evenodd" stroke="none"/>
    <path d="M15.6 74.5 L15.6 75.0 15.55 75.0 15.6 74.5" fill="#ffffff" fill-rule="evenodd" stroke="none"/>
  </g>
</svg>
