<?xml version="1.0" encoding="UTF-8" standalone="no"?>
<svg xmlns:xlink="http://www.w3.org/1999/xlink" height="105.95px" width="35.5px" xmlns="http://www.w3.org/2000/svg">
  <g transform="matrix(1.0, 0.0, 0.0, 1.0, 15.35, 6.05)">
    <path d="M8.25 2.7 L9.5 3.45 Q10.1 4.85 9.1 5.9 L10.65 7.0 Q11.15 7.6 10.8 8.35 L10.2 9.65 Q10.3 10.0 10.7 9.95 L11.4 9.95 Q12.05 10.55 11.85 11.5 L11.4 13.1 12.95 13.9 Q13.75 14.4 13.6 15.4 12.3 16.3 13.15 17.6 L14.0 18.65 14.5 19.75 Q14.8 20.45 14.25 21.2 13.5 22.15 13.45 22.45 L14.7 23.45 15.95 24.6 Q16.4 25.4 15.6 26.5 14.75 27.65 15.0 28.35 15.85 28.55 16.8 29.45 L18.4 30.8 Q18.05 32.25 16.1 33.75 L17.8 35.9 Q18.4 36.95 17.65 38.0 L16.9 38.85 16.4 39.8 17.45 40.85 17.4 40.85 17.55 41.6 17.45 42.3 17.25 42.8 Q18.2 43.55 18.85 44.65 20.05 46.5 20.0 49.0 20.45 51.55 19.35 54.35 L16.85 59.0 Q14.65 59.2 14.8 61.45 L15.0 63.45 Q15.05 64.55 14.65 65.2 14.5 66.65 13.55 68.3 L11.65 71.1 Q11.5 71.55 12.15 71.9 12.9 72.2 13.0 72.65 12.65 74.5 12.95 77.15 L13.4 81.65 Q13.0 87.45 10.65 92.15 11.25 93.7 10.05 95.1 L9.0 96.2 8.1 97.4 Q7.2 97.75 5.35 97.05 L2.65 97.2 Q1.95 97.25 1.15 97.9 L-0.15 99.1 Q-1.8 100.5 -3.25 99.45 L-5.65 99.2 -6.2 98.75 -8.45 96.9 -10.7 94.15 Q-11.15 93.45 -11.8 93.15 L-12.1 91.85 -12.9 91.0 -12.65 90.55 -14.95 85.65 -15.15 85.15 Q-15.5 84.1 -15.3 83.05 L-15.25 82.95 -15.3 82.95 -15.15 82.8 -13.8 81.4 -13.4 80.95 -13.15 81.0 -11.65 80.35 Q-10.75 79.95 -10.4 79.35 -10.85 78.45 -9.95 77.95 L-8.6 77.1 -6.7 76.5 -6.65 76.55 -5.9 76.2 -5.45 76.0 -5.05 75.8 -5.0 75.75 -3.4 74.8 Q-1.75 73.45 -2.8 71.25 L-0.25 69.55 -0.6 68.9 Q-0.3 66.45 -0.85 63.7 L-2.15 59.0 Q-3.6 57.95 -4.5 56.3 -5.5 54.55 -5.7 52.75 -6.3 45.15 -2.7 42.1 L-2.1 41.8 Q-3.45 41.0 -3.7 39.5 L-3.4 38.55 -2.95 37.65 -4.25 36.65 Q-5.1 36.1 -5.05 35.35 L-4.25 33.55 -5.55 32.95 Q-6.35 32.55 -6.45 31.85 L-6.4 30.9 -6.15 30.0 Q-7.65 29.55 -8.05 28.45 L-7.5 27.05 Q-7.2 26.2 -7.85 25.8 L-9.05 25.6 -10.05 25.15 -10.1 24.55 -10.0 23.3 -9.6 22.1 Q-9.55 21.75 -9.85 21.45 L-9.95 21.35 -10.05 21.3 -10.2 21.25 -10.2 21.2 -10.8 21.3 Q-10.9 20.8 -11.35 20.35 L-11.4 20.05 -11.0 18.4 Q-10.9 17.8 -11.4 17.45 L-11.45 17.4 -11.6 17.35 -11.65 17.3 -12.3 17.45 -12.35 17.4 -12.6 17.2 -12.85 16.15 -12.75 16.0 -12.45 15.55 -12.25 15.1 Q-11.9 14.8 -11.85 14.25 -11.85 13.7 -12.25 13.4 L-12.35 13.35 -12.5 13.3 -12.5 13.25 -13.55 13.4 -14.0 13.25 -14.15 12.15 -13.95 11.4 Q-12.55 10.4 -13.4 9.1 -13.5 9.0 -13.55 9.0 L-14.2 8.85 -14.35 8.8 -14.45 8.8 -14.5 8.8 -14.85 8.3 -14.85 4.7 -14.85 4.65 -14.6 2.65 -13.75 -0.2 Q-12.65 -3.05 -9.85 -4.35 L-9.75 -4.4 -8.6 -4.85 Q-6.4 -6.05 -3.4 -6.0 L-2.1 -5.95 -1.85 -5.8 -1.55 -5.6 -1.9 -5.85 -1.0 -5.55 -1.75 -5.85 -0.6 -5.9 -0.5 -5.85 Q2.35 -5.05 4.7 -3.2 L4.65 -2.2 Q4.6 -1.35 5.45 -1.0 L7.0 -0.9 7.2 0.15 7.25 0.25 6.95 0.7 6.7 1.5 6.75 1.95 6.85 2.25 7.1 2.5 8.15 2.6 8.25 2.7 M14.95 40.8 L14.9 40.75 15.15 39.35 Q15.15 38.7 15.75 38.0 L16.75 36.9 15.55 34.85 Q14.7 33.65 14.7 32.7 L16.75 30.8 Q14.3 28.95 13.95 27.55 13.7 27.05 13.95 26.45 L14.4 25.55 Q15.0 24.55 13.75 23.95 12.65 23.7 12.5 21.8 12.5 20.9 13.45 19.75 L12.15 17.85 Q11.4 16.65 12.05 15.85 12.05 15.25 11.0 14.3 L10.55 13.9 10.75 13.3 10.85 12.65 10.6 12.15 10.95 11.35 10.25 11.1 Q9.25 10.65 9.05 9.7 L9.1 8.8 9.1 8.75 9.1 8.7 9.1 8.6 9.15 8.5 9.2 8.35 9.2 8.2 9.25 8.1 9.4 7.9 8.15 6.85 8.4 7.05 Q8.75 6.55 8.6 5.95 L8.6 5.7 Q8.7 5.15 8.45 4.8 8.7 4.5 8.55 4.0 L8.1 3.55 7.5 3.5 6.05 3.4 Q5.8 3.05 5.7 2.6 L5.65 2.6 5.55 1.6 5.7 0.15 5.3 0.05 5.2 0.0 4.75 -0.4 Q3.9 -0.9 3.55 -1.75 L3.35 -2.55 Q2.25 -3.2 1.0 -3.65 L-1.75 -4.5 -5.7 -4.4 -7.8 -3.8 -8.15 -3.6 -8.25 -3.5 -8.9 -4.05 -8.4 -3.6 -8.5 -3.55 Q-9.85 -2.9 -10.85 -1.75 -11.95 -0.45 -12.65 1.15 -13.5 3.2 -14.0 5.35 L-14.0 5.45 -14.1 5.9 -14.3 5.6 -14.35 5.55 -14.1 7.85 -13.65 8.0 Q-13.3 8.1 -13.05 8.35 -12.1 9.15 -12.15 10.35 -12.15 11.55 -12.9 12.45 L-12.0 12.65 Q-11.7 12.7 -11.55 12.95 L-11.2 13.6 Q-10.85 14.85 -11.4 16.1 -10.6 16.65 -10.3 17.55 L-10.05 18.1 -9.8 19.45 -8.8 20.35 -8.55 19.7 -9.2 21.9 Q-9.3 22.6 -8.85 22.95 L-8.8 23.05 -9.15 23.8 Q-8.05 23.6 -7.3 24.25 -6.7 24.7 -6.3 25.7 L-6.3 26.05 Q-6.3 27.0 -6.8 27.85 L-5.6 28.3 Q-4.9 28.55 -4.75 29.2 -4.7 29.65 -4.95 30.2 L-5.4 30.95 Q-4.35 31.1 -2.95 32.0 L-3.1 33.6 -3.5 35.1 -2.3 35.75 Q-1.45 36.0 -1.35 36.7 L-1.9 38.25 -2.3 39.7 -1.1 40.25 Q-0.45 40.5 -0.4 41.1 L-0.4 41.25 -0.15 41.05 0.0 40.9 -0.05 40.95 0.4 40.95 0.7 40.9 1.1 40.8 1.15 40.75 1.4 40.7 7.2 40.15 7.25 40.15 9.55 40.3 9.85 40.3 10.55 40.4 10.65 40.45 11.6 40.6 13.25 40.95 13.8 41.05 14.75 41.35 14.9 41.05 14.9 40.85 15.05 40.85 14.95 40.8 M3.4 41.8 L3.25 41.8 3.1 41.85 2.9 41.85 2.75 41.9 2.65 41.9 2.45 41.95 2.3 41.95 2.2 42.0 2.05 42.0 1.75 42.05 0.6 42.35 Q-1.05 42.8 -2.45 43.55 -4.85 47.5 -4.0 51.8 L-2.95 55.3 Q-2.15 57.25 -0.6 57.9 L3.25 56.75 7.2 56.35 9.4 56.7 11.65 56.95 Q14.25 57.3 15.45 58.8 17.75 56.9 18.3 53.25 18.7 50.15 17.75 46.7 16.3 43.9 14.55 42.65 10.15 41.5 5.9 41.6 L3.4 41.8 M4.1 54.35 L3.85 53.5 3.45 51.0 3.4 48.3 Q3.6 45.95 4.25 43.8 L6.3 43.7 8.55 43.7 9.85 43.7 12.7 44.1 Q14.35 44.4 15.65 45.35 L16.1 46.85 16.55 49.65 16.55 52.2 Q16.35 54.05 15.4 55.8 L14.8 55.6 12.9 55.25 10.1 54.95 4.2 54.7 4.1 54.35 M5.5 69.85 L6.85 70.0 11.2 70.45 12.35 68.3 12.5 67.25 Q12.45 66.6 12.75 66.25 L13.0 59.85 Q10.25 58.6 6.65 58.65 L6.05 58.7 0.2 59.45 Q0.8 61.3 0.95 64.25 L0.95 69.1 2.55 69.25 2.7 69.3 5.5 69.85 M4.15 74.95 L5.45 74.2 5.65 74.15 5.8 74.1 8.75 74.25 10.55 74.6 10.7 74.7 11.45 75.1 11.75 74.2 Q12.0 73.3 11.4 72.8 L9.35 72.75 7.35 73.0 Q5.75 71.95 4.3 71.5 L0.5 71.1 Q-0.4 71.0 -0.3 71.8 L-0.15 72.45 -0.15 73.1 Q-1.3 75.3 -3.95 76.75 -5.1 77.35 -8.8 78.7 -7.05 80.25 -6.9 83.9 L-6.65 84.0 Q-5.9 85.3 -4.35 84.65 -5.1 84.95 -4.9 86.05 -4.65 87.35 -4.9 87.8 L-5.4 90.4 Q-5.8 91.45 -7.6 90.9 -8.6 92.05 -8.8 94.15 -7.75 94.65 -7.0 95.85 L-6.95 95.95 -6.9 96.0 -6.75 96.25 -6.65 96.5 -6.45 96.85 -6.3 97.2 -5.9 98.0 Q-2.05 98.9 -0.6 97.1 -1.45 97.35 -2.15 96.75 L-2.05 96.0 Q-1.05 97.65 1.0 96.65 L1.3 96.4 1.45 96.35 Q2.55 96.7 3.45 95.65 L4.05 95.0 4.45 94.7 4.3 94.85 Q3.9 95.3 4.2 95.9 4.95 97.4 6.5 96.4 L6.55 96.45 Q7.9 96.45 9.2 94.9 L9.2 92.15 Q11.2 89.15 11.75 85.05 12.05 82.05 11.6 79.1 L11.55 79.25 11.5 79.65 11.1 80.2 10.95 80.25 7.25 80.1 4.85 79.45 3.7 79.3 3.45 79.1 3.15 77.9 3.15 77.55 3.3 77.15 3.6 76.45 3.65 76.45 Q3.55 77.3 3.9 78.55 L4.4 78.55 5.55 78.75 5.75 78.85 7.6 79.45 7.7 79.45 10.15 79.35 10.45 79.3 10.5 79.15 10.65 79.0 10.9 78.7 10.9 77.45 11.1 77.45 11.0 77.15 10.95 76.65 11.05 76.7 11.05 76.65 Q10.9 76.15 11.1 75.7 L9.7 75.55 8.1 74.8 5.85 74.85 Q4.85 74.85 4.0 75.4 L4.15 74.95 M11.5 75.7 L11.4 75.55 11.4 75.75 11.5 75.7 M-10.75 32.35 L-10.7 32.5 -10.7 32.55 -10.75 32.35 M-8.4 86.1 L-8.4 86.15 -8.45 86.15 -8.45 86.2 -9.2 87.35 -10.05 88.35 Q-10.05 88.95 -10.65 89.7 L-11.6 90.9 -10.75 91.6 -9.9 92.25 -9.45 91.5 -8.75 90.75 Q-8.05 89.85 -9.25 89.35 L-8.95 89.2 -7.9 89.25 -6.65 89.75 Q-6.5 88.95 -6.5 87.6 L-6.35 85.4 Q-7.45 84.9 -8.4 86.1 M-11.65 86.6 L-11.4 86.9 Q-10.95 87.4 -10.8 87.8 L-10.6 87.35 -10.25 87.0 -9.4 85.8 -8.7 84.65 Q-8.05 83.55 -8.55 82.3 L-9.8 80.25 Q-9.6 81.4 -10.45 82.35 L-10.55 82.5 -12.1 84.0 Q-13.05 84.9 -12.15 86.0 L-11.65 86.6" fill="#000000" fill-rule="evenodd" stroke="none"/>
    <path d="M8.25 2.7 L8.15 2.6 8.3 2.55 8.25 2.7 M-8.25 -3.5 L-8.15 -3.6 -7.8 -3.8 -5.7 -4.4 -1.75 -4.5 1.0 -3.65 Q2.25 -3.2 3.35 -2.55 L3.55 -1.75 Q3.9 -0.9 4.75 -0.4 L5.2 0.0 5.3 0.05 5.7 0.15 5.55 1.6 5.65 2.6 5.7 2.6 Q5.8 3.05 6.05 3.4 L7.5 3.5 8.1 3.55 8.55 4.0 Q8.7 4.5 8.45 4.8 8.7 5.15 8.6 5.7 L8.6 5.95 Q8.75 6.55 8.4 7.05 L8.15 6.85 9.4 7.9 9.25 8.1 9.2 8.2 9.2 8.35 9.15 8.5 9.1 8.6 9.1 8.7 9.1 8.75 9.1 8.8 9.05 9.7 Q9.25 10.65 10.25 11.1 L10.95 11.35 10.6 12.15 10.85 12.65 10.75 13.3 10.55 13.9 11.0 14.3 Q12.05 15.25 12.05 15.85 11.4 16.65 12.15 17.85 L13.45 19.75 Q12.5 20.9 12.5 21.8 12.65 23.7 13.75 23.95 15.0 24.55 14.4 25.55 L13.95 26.45 Q13.7 27.05 13.95 27.55 14.3 28.95 16.75 30.8 L14.7 32.7 Q14.7 33.65 15.55 34.85 L16.75 36.9 15.75 38.0 Q15.15 38.7 15.15 39.35 L14.9 40.75 14.95 40.8 14.9 40.85 14.9 41.05 14.75 41.35 13.8 41.05 13.25 40.95 11.6 40.6 10.65 40.45 10.55 40.4 9.85 40.3 9.55 40.3 7.25 40.15 7.2 40.15 7.55 38.3 7.4 37.7 7.4 36.7 6.7 36.85 7.75 36.6 9.1 36.4 Q10.85 36.4 12.4 37.15 13.7 37.75 14.25 36.65 L14.2 35.85 Q13.85 35.2 13.05 35.0 L11.9 34.65 11.45 34.55 9.6 34.4 9.6 34.35 7.3 34.5 7.2 33.6 7.1 32.85 9.65 32.75 12.4 32.85 Q13.75 33.05 13.75 31.75 L13.35 31.0 9.9 30.6 6.85 30.95 6.15 27.35 6.75 27.1 10.4 26.85 Q11.6 27.1 12.35 26.35 L12.4 26.05 Q12.0 24.95 10.8 24.8 L9.6 24.6 Q7.45 24.45 5.7 25.25 L4.8 21.85 4.75 21.6 Q6.45 20.95 8.2 20.55 L9.6 20.45 Q10.55 20.5 11.05 19.85 L11.0 19.45 Q10.2 18.8 9.1 18.75 L8.35 18.7 Q6.2 18.95 4.15 19.6 L3.35 17.2 3.1 17.3 Q4.65 16.5 6.35 15.95 L8.3 15.85 Q9.2 16.05 9.5 15.35 9.7 14.95 9.35 14.65 8.65 14.05 7.8 13.95 5.4 13.9 3.2 14.9 L2.65 15.2 1.75 12.85 3.55 11.7 4.65 11.2 6.95 10.95 Q7.9 10.3 6.95 9.6 L6.1 9.35 5.6 9.25 Q3.95 9.2 2.5 10.0 L0.95 10.85 0.9 10.9 0.7 10.4 -0.2 9.0 -0.3 9.1 -0.3 9.0 -0.2 9.0 -0.25 8.95 -0.3 8.95 -0.3 8.8 -0.5 7.8 0.9 6.9 Q2.05 6.3 3.35 6.05 L4.2 5.85 4.9 5.3 4.95 5.2 4.95 5.0 4.95 4.9 4.5 4.4 Q4.05 4.1 3.6 4.15 0.7 4.15 -1.7 5.7 L-3.5 2.85 -0.55 1.4 Q0.3 0.95 1.35 0.95 2.45 0.95 2.5 0.1 2.05 -0.5 1.35 -0.6 L-0.4 -0.85 Q-2.7 -0.55 -4.75 0.65 L-4.8 0.7 -6.3 -1.4 Q-4.7 -1.45 -3.1 -2.3 L-2.45 -2.55 Q-2.05 -2.7 -2.05 -3.1 -2.0 -4.35 -3.35 -4.4 -5.6 -4.05 -7.25 -2.6 L-7.3 -2.55 -8.25 -3.5 M11.8 23.1 L11.85 23.05 11.75 23.0 11.8 23.1 M-14.3 5.6 L-12.05 9.45 -11.25 10.95 -10.45 12.45 Q-9.65 14.3 -9.5 16.25 -9.4 17.25 -8.6 18.0 L-8.45 18.2 -8.0 18.35 -8.2 18.85 Q-7.45 19.4 -7.15 20.5 L-6.9 20.95 Q-4.95 22.95 -5.0 25.7 -3.55 26.8 -2.55 28.25 L-2.15 29.2 Q-2.0 30.6 -2.4 31.85 L-1.55 32.7 Q0.45 35.0 -0.75 37.7 L0.15 38.75 1.0 39.65 1.05 40.0 1.4 40.7 1.15 40.75 1.1 40.8 0.7 40.9 0.4 40.95 -0.05 40.95 0.0 40.9 -0.15 41.05 -0.4 41.25 -0.4 41.1 Q-0.45 40.5 -1.1 40.25 L-2.3 39.7 -1.9 38.25 -1.35 36.7 Q-1.45 36.0 -2.3 35.75 L-3.5 35.1 -3.1 33.6 -2.95 32.0 Q-4.35 31.1 -5.4 30.95 L-4.95 30.2 Q-4.7 29.65 -4.75 29.2 -4.9 28.55 -5.6 28.3 L-6.8 27.85 Q-6.3 27.0 -6.3 26.05 L-6.3 25.7 Q-6.7 24.7 -7.3 24.25 -8.05 23.6 -9.15 23.8 L-8.8 23.05 -8.85 22.95 Q-9.3 22.6 -9.2 21.9 L-8.55 19.7 -8.8 20.35 -9.8 19.45 -10.05 18.1 -10.3 17.55 Q-10.6 16.65 -11.4 16.1 -10.85 14.85 -11.2 13.6 L-11.55 12.95 Q-11.7 12.7 -12.0 12.65 L-12.9 12.45 Q-12.15 11.55 -12.15 10.35 -12.1 9.15 -13.05 8.35 -13.3 8.1 -13.65 8.0 L-14.1 7.85 -14.35 5.55 -14.3 5.6 M4.15 74.95 L4.45 72.65 4.3 71.5 Q5.75 71.95 7.35 73.0 L9.35 72.75 11.4 72.8 Q12.0 73.3 11.75 74.2 L11.45 75.1 10.7 74.7 10.55 74.6 8.75 74.25 5.8 74.1 5.65 74.15 5.45 74.2 4.15 74.95 M-6.3 97.2 L-5.85 97.0 -3.55 93.8 -2.85 95.2 -2.15 95.75 -2.05 96.0 -2.15 96.75 Q-1.45 97.35 -0.6 97.1 -2.05 98.9 -5.9 98.0 L-6.3 97.2 M2.25 92.45 Q2.2 91.9 1.75 91.45 L1.45 91.05 Q0.6 89.95 -0.85 89.95 L-1.75 90.2 -1.5 89.45 Q0.7 83.45 3.15 77.55 L3.15 77.9 3.45 79.1 3.7 79.3 4.85 79.45 7.25 80.1 10.95 80.25 11.1 80.2 11.5 79.65 11.55 79.25 11.6 79.1 Q12.05 82.05 11.75 85.05 11.2 89.15 9.2 92.15 L9.2 94.9 Q7.9 96.45 6.55 96.45 L6.5 96.4 6.6 96.35 Q7.55 95.7 7.8 94.65 8.0 93.65 7.75 93.05 L7.55 91.85 Q7.0 90.6 5.55 90.85 4.7 91.25 4.1 91.95 2.9 93.25 3.75 94.75 L4.05 95.0 3.45 95.65 Q2.55 96.7 1.45 96.35 L1.3 96.4 Q2.2 95.4 2.45 94.1 2.65 93.05 2.25 92.45 M3.6 76.45 L3.65 76.25 3.65 76.45 3.6 76.45 M10.5 79.15 L10.45 79.3 10.15 79.35 10.5 79.15" fill="#4e4e4e" fill-rule="evenodd" stroke="none"/>
    <path d="M-8.25 -3.5 L-7.3 -2.55 Q-7.95 -1.95 -7.1 -1.55 L-6.5 -1.4 -6.3 -1.4 -4.8 0.7 -5.65 1.15 Q-7.05 1.95 -7.15 3.45 L-7.0 3.85 -6.8 4.0 -6.4 4.05 -5.5 3.55 -3.5 2.85 -1.7 5.7 -2.15 6.0 Q-3.0 6.55 -3.65 7.35 L-4.75 9.25 Q-4.95 9.75 -4.55 10.15 -3.65 11.05 -2.8 10.05 -1.8 8.75 -0.5 7.8 L-0.3 8.8 -0.3 8.95 -0.4 9.0 -0.3 9.0 -0.3 9.1 -0.2 9.0 0.7 10.4 0.9 10.9 Q0.0 11.35 -0.65 12.15 L-0.85 12.5 -1.25 13.15 Q-1.4 13.7 -0.85 14.0 L-0.4 14.0 -0.4 13.95 0.05 13.65 0.1 13.6 1.75 12.85 2.65 15.2 Q1.3 15.8 0.05 16.55 -1.2 17.3 -1.7 18.5 L-1.7 18.9 -1.4 19.35 Q-0.3 19.6 0.65 18.8 L1.8 17.95 1.95 17.9 3.1 17.3 3.35 17.2 4.15 19.6 2.7 20.1 Q1.15 20.7 -0.1 21.85 L-0.25 22.3 Q-0.1 23.6 1.25 23.0 L2.6 22.4 2.75 22.35 4.0 21.85 4.75 21.6 4.8 21.85 5.7 25.25 Q4.8 25.6 4.0 26.2 L3.15 26.75 2.45 27.5 Q2.3 27.9 2.55 28.15 L2.8 28.35 5.6 27.5 5.8 27.45 6.15 27.35 6.85 30.95 6.05 31.25 5.3 31.65 Q4.75 31.95 5.05 32.45 5.35 32.9 5.9 32.9 L7.1 32.85 7.2 33.6 7.3 34.5 Q6.05 34.7 4.9 35.3 L4.35 35.75 4.2 36.05 4.15 36.1 4.05 36.2 4.0 36.3 3.95 36.35 3.95 36.45 3.95 36.5 3.95 36.6 4.0 36.65 4.1 36.8 4.2 36.85 4.35 36.9 4.55 36.85 4.65 36.85 6.7 36.85 7.4 36.7 7.4 37.7 7.55 38.3 7.2 40.15 1.4 40.7 1.05 40.0 1.0 39.65 0.15 38.75 -0.75 37.7 Q0.45 35.0 -1.55 32.7 L-2.4 31.85 Q-2.0 30.6 -2.15 29.2 L-2.55 28.25 Q-3.55 26.8 -5.0 25.7 -4.95 22.95 -6.9 20.95 L-7.15 20.5 Q-7.45 19.4 -8.2 18.85 L-8.0 18.35 -8.45 18.2 -8.6 18.0 Q-9.4 17.25 -9.5 16.25 -9.65 14.3 -10.45 12.45 L-11.25 10.95 -12.05 9.45 -14.3 5.6 -14.1 5.9 -14.0 5.45 -14.0 5.35 Q-13.5 3.2 -12.65 1.15 -11.95 -0.45 -10.85 -1.75 -9.85 -2.9 -8.5 -3.55 L-8.4 -3.6 -8.9 -4.05 -8.25 -3.5 M11.5 75.7 L11.4 75.75 11.4 75.55 11.5 75.7 M-5.7 21.9 L-5.75 22.0 -5.8 22.1 -5.75 22.0 -5.65 21.95 -5.7 21.9 M-2.9 83.35 Q-2.6 83.35 -2.3 83.65 -2.0 83.95 -2.0 84.3 -1.9 87.8 -4.15 89.0 L-4.35 89.0 -3.55 86.25 -2.9 83.35" fill="#333333" fill-rule="evenodd" stroke="none"/>
    <path d="M-7.3 -2.55 L-7.25 -2.6 Q-5.6 -4.05 -3.35 -4.4 -2.0 -4.35 -2.05 -3.1 -2.05 -2.7 -2.45 -2.55 L-3.1 -2.3 Q-4.7 -1.45 -6.3 -1.4 L-6.5 -1.4 -7.1 -1.55 Q-7.95 -1.95 -7.3 -2.55 M-4.8 0.7 L-4.75 0.65 Q-2.7 -0.55 -0.4 -0.85 L1.35 -0.6 Q2.05 -0.5 2.5 0.1 2.45 0.95 1.35 0.95 0.3 0.95 -0.55 1.4 L-3.5 2.85 -5.5 3.55 -6.4 4.05 -6.8 4.0 -7.0 3.85 -7.15 3.45 Q-7.05 1.95 -5.65 1.15 L-4.8 0.7 M-1.7 5.7 Q0.7 4.15 3.6 4.15 4.05 4.1 4.5 4.4 L4.95 4.9 4.95 5.0 4.95 5.2 4.9 5.3 4.2 5.85 3.35 6.05 Q2.05 6.3 0.9 6.9 L-0.5 7.8 Q-1.8 8.75 -2.8 10.05 -3.65 11.05 -4.55 10.15 -4.95 9.75 -4.75 9.25 L-3.65 7.35 Q-3.0 6.55 -2.15 6.0 L-1.7 5.7 M0.9 10.9 L0.95 10.85 2.5 10.0 Q3.95 9.2 5.6 9.25 L6.1 9.35 6.95 9.6 Q7.9 10.3 6.95 10.95 L4.65 11.2 3.55 11.7 1.75 12.85 0.1 13.6 0.05 13.65 -0.4 13.95 -0.4 14.0 -0.85 14.0 Q-1.4 13.7 -1.25 13.15 L-0.85 12.5 -0.65 12.15 Q0.0 11.35 0.9 10.9 M2.65 15.2 L3.2 14.9 Q5.4 13.9 7.8 13.95 8.65 14.05 9.35 14.65 9.7 14.95 9.5 15.35 9.2 16.05 8.3 15.85 L6.35 15.95 Q4.65 16.5 3.1 17.3 L1.95 17.9 1.8 17.95 0.65 18.8 Q-0.3 19.6 -1.4 19.35 L-1.7 18.9 -1.7 18.5 Q-1.2 17.3 0.05 16.55 1.3 15.8 2.65 15.2 M4.15 19.6 Q6.2 18.95 8.35 18.7 L9.1 18.75 Q10.2 18.8 11.0 19.45 L11.05 19.85 Q10.55 20.5 9.6 20.45 L8.2 20.55 Q6.45 20.95 4.75 21.6 L4.0 21.85 2.75 22.35 2.6 22.4 1.25 23.0 Q-0.1 23.6 -0.25 22.3 L-0.1 21.85 Q1.15 20.7 2.7 20.1 L4.15 19.6 M5.7 25.25 Q7.45 24.45 9.6 24.6 L10.8 24.8 Q12.0 24.95 12.4 26.05 L12.35 26.35 Q11.6 27.1 10.4 26.85 L6.75 27.1 6.15 27.35 5.8 27.45 5.6 27.5 2.8 28.35 2.55 28.15 Q2.3 27.9 2.45 27.5 L3.15 26.75 4.0 26.2 Q4.8 25.6 5.7 25.25 M6.85 30.95 L9.9 30.6 13.35 31.0 13.75 31.75 Q13.75 33.05 12.4 32.85 L9.65 32.75 7.1 32.85 5.9 32.9 Q5.35 32.9 5.05 32.45 4.75 31.95 5.3 31.65 L6.05 31.25 6.85 30.95 M7.3 34.5 L9.6 34.35 9.6 34.4 11.45 34.55 11.9 34.65 13.05 35.0 Q13.85 35.2 14.2 35.85 L14.25 36.65 Q13.7 37.75 12.4 37.15 10.85 36.4 9.1 36.4 L7.75 36.6 6.7 36.85 4.65 36.85 4.55 36.85 4.35 36.9 4.2 36.85 4.1 36.8 4.0 36.65 3.95 36.6 3.95 36.5 3.95 36.45 3.95 36.35 4.0 36.3 4.05 36.2 4.15 36.1 4.2 36.05 4.35 35.75 4.9 35.3 Q6.05 34.7 7.3 34.5 M4.3 71.5 L4.45 72.65 4.15 74.95 4.0 75.4 3.9 75.45 Q3.7 75.8 3.65 76.25 L3.6 76.45 3.3 77.15 3.15 77.55 Q0.7 83.45 -1.5 89.45 L-1.75 90.2 -0.85 89.95 Q0.6 89.95 1.45 91.05 L1.75 91.45 Q2.2 91.9 2.25 92.45 1.75 91.85 0.6 91.75 -1.55 92.4 -2.3 94.65 -2.45 95.2 -2.2 95.7 L-2.15 95.75 -2.85 95.2 -3.55 93.8 -5.85 97.0 -6.3 97.2 -6.45 96.85 -6.65 96.5 -6.75 96.25 -6.9 96.0 -6.95 95.95 -7.0 95.85 Q-7.75 94.65 -8.8 94.15 -8.6 92.05 -7.6 90.9 -5.8 91.45 -5.4 90.4 L-4.9 87.8 Q-4.65 87.35 -4.9 86.05 -5.1 84.95 -4.35 84.65 -5.9 85.3 -6.65 84.0 L-6.9 83.9 Q-7.05 80.25 -8.8 78.7 -5.1 77.35 -3.95 76.75 -1.3 75.3 -0.15 73.1 L-0.15 72.45 -0.3 71.8 Q-0.4 71.0 0.5 71.1 L4.3 71.5 M4.45 94.7 L4.05 95.0 3.75 94.75 Q2.9 93.25 4.1 91.95 4.7 91.25 5.55 90.85 7.0 90.6 7.55 91.85 L7.75 93.05 Q7.4 92.4 6.55 92.1 L6.15 92.2 Q5.15 92.65 5.15 93.85 L4.45 94.7 M-2.9 83.35 L-3.55 86.25 -4.35 89.0 -4.15 89.0 Q-1.9 87.8 -2.0 84.3 -2.0 83.95 -2.3 83.65 -2.6 83.35 -2.9 83.35" fill="#666666" fill-rule="evenodd" stroke="none"/>
    <path d="M11.8 23.1 L11.75 23.0 11.85 23.05 11.8 23.1 M-2.15 95.75 L-2.2 95.7 Q-2.45 95.2 -2.3 94.65 -1.55 92.4 0.6 91.75 1.75 91.85 2.25 92.45 2.65 93.05 2.45 94.1 2.2 95.4 1.3 96.4 L1.0 96.65 Q-1.05 97.65 -2.05 96.0 L-2.15 95.75 M6.5 96.4 Q4.95 97.4 4.2 95.9 3.9 95.3 4.3 94.85 L4.45 94.7 5.15 93.85 Q5.15 92.65 6.15 92.2 L6.55 92.1 Q7.4 92.4 7.75 93.05 8.0 93.65 7.8 94.65 7.55 95.7 6.6 96.35 L6.5 96.4 M-5.7 21.9 L-5.65 21.95 -5.75 22.0 -5.8 22.1 -5.75 22.0 -5.7 21.9" fill="#999999" fill-rule="evenodd" stroke="none"/>
    <path d="M0.6 42.35 L1.75 42.05 2.05 42.0 2.2 42.0 2.3 41.95 2.45 41.95 2.65 41.9 2.75 41.9 2.9 41.85 3.1 41.85 3.25 41.8 3.4 41.8 Q6.6 42.0 8.55 43.7 L6.3 43.7 4.25 43.8 Q3.6 45.95 3.4 48.3 L3.45 51.0 3.85 53.5 4.1 54.35 Q-1.2 54.5 -2.8 49.2 L-2.9 48.8 -3.0 47.7 -3.0 47.6 -3.0 47.35 -2.95 46.95 -2.95 46.9 Q-2.65 44.0 -0.5 42.7 L0.6 42.35 M3.9 59.05 Q3.5 59.1 3.25 59.35 1.5 61.2 1.7 64.05 1.75 64.7 2.2 65.2 4.0 67.15 5.15 64.85 L5.6 63.65 Q6.6 60.3 3.9 59.05 M5.5 69.85 L2.7 69.3 2.55 69.25 0.95 69.1 0.95 64.25 Q0.8 61.3 0.2 59.45 L6.05 58.7 6.5 62.85 Q6.95 66.55 6.0 69.9 L5.5 69.85" fill="#54035a" fill-rule="evenodd" stroke="none"/>
    <path d="M14.9 40.85 L14.95 40.8 15.05 40.85 14.9 40.85 M0.6 42.35 L-0.5 42.7 Q-2.65 44.0 -2.95 46.9 L-2.95 46.95 -3.0 47.35 -3.0 47.6 -3.0 47.7 -2.9 48.8 -2.8 49.2 Q-1.2 54.5 4.1 54.35 L4.2 54.7 10.1 54.95 12.9 55.25 14.8 55.6 15.4 55.8 Q16.35 54.05 16.55 52.2 L16.55 49.65 16.1 46.85 15.65 45.35 Q14.35 44.4 12.7 44.1 L9.85 43.7 8.55 43.7 Q6.6 42.0 3.4 41.8 L5.9 41.6 Q10.15 41.5 14.55 42.65 16.3 43.9 17.75 46.7 18.7 50.15 18.3 53.25 17.75 56.9 15.45 58.8 14.25 57.3 11.65 56.95 L9.4 56.7 7.2 56.35 3.25 56.75 -0.6 57.9 Q-2.15 57.25 -2.95 55.3 L-4.0 51.8 Q-4.85 47.5 -2.45 43.55 -1.05 42.8 0.6 42.35 M6.05 58.7 L6.65 58.65 Q10.25 58.6 13.0 59.85 L12.75 66.25 Q12.45 66.6 12.5 67.25 L12.35 68.3 11.2 70.45 6.85 70.0 5.5 69.85 6.0 69.9 Q6.95 66.55 6.5 62.85 L6.05 58.7" fill="#400040" fill-rule="evenodd" stroke="none"/>
    <path d="M3.9 59.05 Q6.6 60.3 5.6 63.65 L5.15 64.85 Q4.0 67.15 2.2 65.2 1.75 64.7 1.7 64.05 1.5 61.2 3.25 59.35 3.5 59.1 3.9 59.05" fill="#663399" fill-rule="evenodd" stroke="none"/>
    <path d="M10.95 76.65 L11.0 77.15 11.1 77.45 10.9 77.45 10.9 78.7 10.65 79.0 10.5 79.15 10.15 79.35 7.7 79.45 7.6 79.45 5.75 78.85 5.55 78.75 4.4 78.55 4.35 78.45 4.3 78.35 4.3 78.25 4.4 77.85 4.6 77.55 4.65 77.35 4.65 77.2 4.8 77.0 4.95 76.95 Q5.65 75.85 7.0 76.45 L9.7 76.5 10.95 76.65 M9.5 78.15 L9.5 77.65 9.45 78.15 9.5 78.15 M-8.4 86.1 L-8.4 86.15 -8.4 86.1 M-9.2 87.35 L-9.25 87.4 -9.2 88.5 -8.95 89.2 -9.25 89.35 Q-8.05 89.85 -8.75 90.75 L-9.45 91.5 -9.9 92.25 -10.75 91.6 -11.6 90.9 -10.65 89.7 Q-10.05 88.95 -10.05 88.35 L-9.2 87.35 M-11.65 86.6 L-12.15 86.0 Q-13.05 84.9 -12.1 84.0 L-10.55 82.5 -10.05 83.95 -11.65 86.6" fill="#999966" fill-rule="evenodd" stroke="none"/>
    <path d="M3.65 76.25 Q3.7 75.8 3.9 75.45 L4.0 75.4 Q4.85 74.85 5.85 74.85 L8.1 74.8 9.7 75.55 11.1 75.7 Q10.9 76.15 11.05 76.65 L11.05 76.7 10.95 76.65 9.7 76.5 7.0 76.45 Q5.65 75.85 4.95 76.95 L4.8 77.0 4.65 77.2 4.65 77.35 4.6 77.55 4.4 77.85 4.3 78.25 4.3 78.35 4.35 78.45 4.4 78.55 3.9 78.55 Q3.55 77.3 3.65 76.45 L3.65 76.25 M-8.4 86.15 L-8.4 86.1 Q-7.45 84.9 -6.35 85.4 L-6.5 87.6 Q-6.5 88.95 -6.65 89.75 L-7.9 89.25 -8.95 89.2 -9.2 88.5 -9.25 87.4 -9.2 87.35 -8.45 86.2 -8.45 86.15 -8.4 86.15 M-10.55 82.5 L-10.45 82.35 Q-9.6 81.4 -9.8 80.25 L-8.55 82.3 Q-8.05 83.55 -8.7 84.65 L-9.4 85.8 -10.25 87.0 -10.6 87.35 -10.8 87.8 Q-10.95 87.4 -11.4 86.9 L-11.65 86.6 -10.05 83.95 -10.55 82.5" fill="#666633" fill-rule="evenodd" stroke="none"/>
    <path d="M9.5 78.15 L9.45 78.15 9.5 77.65 9.5 78.15" fill="#ffffff" fill-rule="evenodd" stroke="none"/>
    <path d="M-0.3 8.95 L-0.25 8.95 -0.2 9.0 -0.3 9.0 -0.4 9.0 -0.3 8.95" fill="#414141" fill-rule="evenodd" stroke="none"/>
  </g>
</svg>
