<?xml version="1.0" encoding="UTF-8" standalone="no"?>
<svg xmlns:xlink="http://www.w3.org/1999/xlink" height="141.1px" width="57.1px" xmlns="http://www.w3.org/2000/svg">
  <g transform="matrix(1.0, 0.0, 0.0, 1.0, 14.75, 9.55)">
    <path d="M15.35 -5.2 L15.95 -4.65 16.95 -3.25 16.15 -4.15 15.95 -4.4 15.35 -5.15 15.35 -5.2 M11.9 46.0 L12.1 45.9 15.9 47.75 16.45 47.6 17.1 47.7 17.45 47.75 19.3 48.05 20.25 47.95 Q21.05 50.35 18.1 52.0 L16.45 52.25 Q14.05 51.95 12.7 49.8 11.4 47.75 11.9 46.0 M15.1 114.35 L11.9 115.9 10.95 117.55 10.5 118.95 6.7 115.5 7.4 114.55 Q8.1 112.85 9.25 111.45 10.85 113.1 13.25 114.1 L14.35 114.7 15.1 114.35" fill="#5a361f" fill-rule="evenodd" stroke="none"/>
    <path d="M15.35 -5.2 L15.35 -5.15 15.95 -4.4 16.15 -4.15 16.95 -3.25 19.75 0.5 20.4 1.55 21.8 3.4 Q23.5 6.1 24.7 9.1 L27.75 14.5 28.1 15.15 31.2 23.2 Q33.25 28.6 33.95 34.05 L34.15 35.95 34.2 36.55 34.6 40.95 34.7 45.35 34.95 45.55 34.05 46.8 32.95 46.7 33.15 47.75 Q33.35 49.9 33.8 51.45 36.55 52.35 37.7 54.5 38.35 57.6 37.9 60.85 37.55 63.6 36.45 66.2 35.75 67.8 34.4 69.25 L36.7 71.85 Q35.85 76.45 33.2 80.35 L32.6 80.15 31.0 80.95 30.3 81.5 30.0 82.1 30.2 82.85 28.65 85.9 Q29.95 87.15 29.75 89.0 29.3 92.5 27.2 95.5 L25.7 96.0 25.45 96.7 25.95 97.3 Q26.85 98.65 25.85 99.9 L25.4 100.1 27.1 103.3 31.55 112.7 34.0 113.7 Q36.9 114.9 38.9 117.15 40.5 118.85 40.45 121.25 L40.85 122.0 41.6 123.4 Q43.15 125.55 41.5 127.3 L41.3 127.85 Q35.8 130.8 29.55 131.25 21.05 132.35 13.05 129.6 L11.15 128.9 Q8.35 127.4 6.45 125.1 6.05 124.55 5.9 123.75 5.45 121.05 3.7 118.85 L1.75 119.4 1.6 119.85 0.8 120.05 0.45 119.5 Q-1.7 118.75 -3.65 117.55 L-4.15 117.0 Q-5.2 114.45 -3.7 111.55 L0.8 102.05 Q0.6 101.35 -0.1 101.3 L0.0 100.25 0.45 97.75 Q0.55 93.2 3.5 89.75 L2.7 88.8 1.95 88.8 Q1.75 88.35 1.85 88.0 L3.8 80.35 6.0 79.0 6.9 75.65 5.5 74.3 Q3.7 72.65 3.65 70.4 L3.25 69.9 6.6 62.0 8.15 61.7 9.4 58.6 Q9.75 57.85 10.55 57.75 L6.25 48.25 Q4.5 49.2 2.85 50.3 L-4.35 55.1 -4.95 55.0 -10.8 29.6 -10.85 29.4 -11.25 27.9 -12.3 24.3 -12.45 23.85 -12.6 23.1 -12.8 21.7 Q-13.05 20.0 -13.55 18.35 L-13.7 17.45 -13.25 18.4 -12.4 20.6 -9.9 28.05 Q-5.95 40.7 -4.25 53.65 L-1.6 51.2 -1.2 50.85 9.25 45.45 Q7.0 43.35 5.35 40.65 L4.7 39.65 Q2.85 36.65 1.75 33.35 L1.45 32.7 0.95 31.05 0.7 31.05 0.6 30.95 0.2 30.15 0.0 29.4 -0.05 29.35 0.2 29.5 -0.25 29.15 -1.4 26.6 -2.65 23.9 -3.2 22.7 -4.85 20.2 -5.95 18.35 -7.5 15.6 -7.95 14.45 -8.5 14.75 -8.0 14.45 Q-7.95 13.35 -8.15 12.25 L-8.3 11.55 -8.5 10.45 -8.85 10.55 -8.85 10.45 -8.85 10.4 -8.5 10.35 -8.45 10.35 -8.6 7.65 Q-8.45 5.15 -7.75 2.7 -7.1 0.2 -5.65 -2.05 L-4.15 -4.0 -4.4 -3.65 -4.7 -3.05 -4.9 -2.5 -6.65 1.55 Q-7.35 3.7 -7.4 5.9 L-7.5 7.05 Q-7.7 9.3 -7.05 11.45 L-6.75 12.6 -6.75 12.65 -6.75 12.7 -6.75 13.15 -6.75 13.25 -6.55 13.45 -5.95 14.75 -5.6 15.4 -5.65 15.45 -5.1 16.3 -2.95 19.75 Q-1.3 22.25 0.1 24.9 L2.5 30.15 3.2 31.3 3.4 31.5 3.5 31.75 3.3 31.8 3.85 33.4 4.4 34.9 4.55 35.2 5.3 36.9 5.8 37.8 5.95 38.15 6.05 38.3 8.0 41.35 8.8 42.35 8.75 42.35 10.8 44.65 10.7 44.75 10.75 44.75 10.85 44.85 Q12.05 45.7 13.5 46.3 14.55 46.75 15.05 46.05 L15.15 46.1 15.55 46.4 19.6 46.35 21.05 46.05 23.4 45.55 27.65 44.75 Q30.45 44.15 33.3 44.7 L33.2 43.9 33.15 40.45 Q33.05 34.05 31.25 27.85 L29.1 20.6 29.05 20.5 28.35 18.95 27.45 17.1 26.1 13.95 Q25.4 12.1 24.4 10.4 L22.4 6.8 21.35 4.95 18.7 1.05 15.6 -2.9 14.9 -3.55 Q11.95 -6.05 8.3 -7.2 L7.8 -7.35 7.05 -7.6 5.45 -8.05 4.15 -8.2 5.35 -8.25 6.35 -8.2 7.2 -8.4 11.35 -7.45 Q12.8 -6.95 14.1 -6.05 L14.35 -5.9 14.65 -5.75 14.8 -5.65 15.35 -5.2 M-13.8 16.8 L-14.3 13.5 -13.95 13.45 -13.7 16.2 -13.5 16.9 -13.8 16.8 M-0.2 28.2 L-0.3 27.95 -0.4 28.1 -0.2 28.2 M-5.65 29.2 L-5.7 29.15 -5.7 29.0 -5.65 29.2 M20.25 47.95 L19.3 48.05 17.45 47.75 17.1 47.7 16.45 47.6 15.9 47.75 12.1 45.9 11.9 46.0 6.9 47.95 8.15 50.15 10.55 54.75 Q11.25 56.2 11.6 57.8 L11.55 58.15 11.95 58.2 Q13.55 58.0 15.35 57.2 L16.95 56.1 19.4 54.1 21.15 52.5 Q22.85 51.0 24.95 51.0 L29.25 50.9 29.25 50.8 Q27.6 49.0 28.55 46.7 L28.6 46.6 26.35 47.0 22.15 47.75 20.25 47.95 M26.6 52.3 L26.4 52.35 25.2 52.55 24.55 52.7 24.4 52.8 23.85 53.05 22.95 53.5 22.55 53.75 21.05 54.9 20.15 55.65 17.4 57.75 Q14.65 59.35 11.55 58.55 L11.2 59.15 10.75 59.35 10.65 59.35 10.2 60.5 9.7 61.6 9.3 62.4 8.5 63.25 7.2 63.35 Q6.45 66.85 4.55 69.8 L4.95 70.9 Q6.8 74.55 10.65 76.7 13.8 78.55 17.6 79.15 L22.25 79.9 22.5 79.95 26.2 80.2 31.0 79.4 32.25 79.4 35.6 72.3 35.15 72.1 34.25 71.35 34.05 70.9 34.05 70.85 Q34.0 69.95 33.7 70.2 L32.7 70.3 Q32.55 69.65 33.05 68.8 L34.8 65.35 Q35.7 63.45 36.1 61.4 L36.95 57.1 Q37.25 55.65 36.65 54.35 L35.65 54.2 Q33.6 52.75 31.05 52.4 L26.6 52.3 M17.7 95.55 Q19.95 95.85 22.35 95.6 L24.25 95.1 26.0 94.35 28.3 88.05 27.75 87.2 27.45 86.3 Q27.0 85.15 27.7 83.95 L29.15 81.65 Q25.4 81.95 21.85 81.5 L17.1 80.4 12.4 79.1 Q9.85 78.3 7.9 76.5 L6.65 80.35 6.55 80.4 4.85 80.75 3.3 87.95 5.3 90.15 Q7.3 91.9 9.75 93.0 L13.75 94.65 Q15.7 95.3 17.7 95.55 M7.7 81.65 L7.7 81.55 Q7.75 81.5 7.8 81.6 L7.7 81.65 M15.95 109.6 Q17.15 111.15 17.8 113.1 L22.1 112.15 27.8 111.8 29.55 111.9 24.85 101.3 24.25 100.2 23.7 100.2 23.25 100.6 22.65 100.65 11.7 100.35 11.2 100.35 11.05 100.35 3.7 101.6 3.2 101.75 1.8 102.25 1.35 103.85 1.35 103.95 1.0 104.95 -0.2 107.8 -1.35 110.25 Q-2.5 113.0 -3.0 116.15 L0.65 118.55 1.0 118.1 1.4 117.75 2.65 117.4 2.95 117.4 3.1 117.35 3.6 117.35 4.15 117.35 4.55 117.75 4.65 118.2 4.65 118.3 4.35 118.3 5.05 119.1 5.95 120.7 Q6.9 123.45 9.0 125.55 L9.95 126.45 11.75 127.5 15.7 128.8 15.95 128.85 Q20.75 129.85 25.65 129.9 L32.6 129.2 36.8 128.05 40.95 126.4 40.8 125.5 40.45 124.5 40.3 124.15 40.25 124.0 Q40.15 123.55 40.5 123.4 L39.8 122.75 39.7 122.05 39.65 121.95 39.25 121.15 38.45 119.15 37.9 118.15 37.7 118.0 Q37.0 117.45 36.6 116.7 L35.9 116.3 35.15 115.9 Q33.65 115.05 32.1 114.35 30.75 113.7 29.3 113.4 L27.65 113.1 27.5 113.1 27.35 113.1 Q25.4 112.9 23.5 113.05 L22.25 113.2 18.1 114.15 17.85 114.7 17.2 114.5 16.9 114.65 16.8 114.65 15.6 115.1 15.55 115.1 15.5 115.15 14.5 115.55 14.35 115.65 14.3 115.7 14.2 115.75 13.95 115.9 Q13.05 116.5 12.5 117.45 L12.15 118.05 11.7 118.85 11.05 119.65 11.1 120.35 10.7 120.2 7.55 117.4 3.9 114.4 4.35 112.85 Q4.95 111.2 6.1 109.75 L6.35 109.45 6.8 108.95 Q8.2 107.5 10.0 106.7 L10.9 106.35 11.0 106.3 11.15 106.25 11.2 106.3 Q13.4 106.95 14.95 108.5 L15.45 109.05 15.95 109.6 M25.0 98.8 L24.85 97.0 20.5 97.45 14.95 96.7 Q12.05 95.95 9.55 94.65 6.45 93.1 4.1 90.5 3.25 92.6 2.8 94.85 L1.5 100.6 2.65 100.2 Q3.25 99.9 4.0 99.75 7.6 98.65 11.25 98.7 L18.9 98.95 25.0 98.8 M15.1 114.35 L16.5 113.6 Q15.05 110.45 12.65 108.2 L11.5 109.05 11.3 109.25 Q10.85 109.6 10.5 110.0 9.8 110.65 9.25 111.45 8.1 112.85 7.4 114.55 L6.7 115.5 10.5 118.95 10.95 117.55 11.9 115.9 15.1 114.35 M16.35 126.1 L13.7 124.95 13.55 124.7 13.55 124.65 17.75 125.55 19.8 125.8 24.55 126.1 25.0 126.1 26.7 126.1 27.1 126.05 27.5 126.0 28.05 125.95 27.95 125.95 32.8 125.05 36.8 124.25 37.55 124.35 37.6 124.8 37.4 125.25 Q34.5 126.75 31.4 127.25 L24.95 127.5 18.8 126.65 18.65 126.65 16.35 126.1 M24.0 117.75 L23.9 117.7 23.55 118.6 23.9 119.45 Q24.25 120.0 24.95 120.35 L25.7 121.0 26.35 122.45 26.4 122.6 26.6 122.9 Q25.95 122.95 25.65 122.25 L25.25 121.65 23.9 120.6 Q22.9 120.0 22.7 118.9 L22.7 118.35 Q22.8 117.7 23.2 117.2 L23.25 117.2 23.35 117.15 Q24.0 117.15 24.0 117.75 M32.95 116.45 L32.85 116.55 Q33.05 118.5 32.7 120.35 L32.7 120.5 32.7 120.55 32.7 120.65 32.7 120.9 32.8 121.25 32.65 121.35 32.25 121.35 Q31.9 121.1 32.05 120.65 L32.2 120.1 Q32.4 118.65 32.0 117.2 L31.85 116.7 Q31.75 116.25 32.05 115.95 L32.1 115.95 32.2 115.9 Q32.8 115.9 32.95 116.45 M26.65 115.65 L26.65 115.8 26.7 115.9 26.7 115.95 26.75 116.0 26.75 116.05 27.4 116.95 Q28.45 118.1 28.55 119.35 L28.75 120.95 28.6 120.65 28.55 120.4 28.05 119.35 27.9 119.0 Q27.15 117.6 26.0 116.5 L25.9 116.3 Q25.7 115.6 26.25 115.2 26.75 115.2 26.8 115.5 L26.65 115.65" fill="#000000" fill-rule="evenodd" stroke="none"/>
    <path d="M7.05 -7.6 L7.8 -7.35 8.3 -7.2 Q11.95 -6.05 14.9 -3.55 L15.6 -2.9 18.7 1.05 21.35 4.95 22.4 6.8 24.4 10.4 Q25.4 12.1 26.1 13.95 L27.45 17.1 28.35 18.95 29.05 20.5 29.1 20.6 31.25 27.85 Q33.05 34.05 33.15 40.45 L33.2 43.9 33.3 44.7 Q30.45 44.15 27.65 44.75 L23.4 45.55 21.05 46.05 19.6 46.35 15.55 46.4 15.15 46.1 15.2 46.15 15.15 46.0 14.6 45.2 14.05 44.55 13.9 44.4 20.0 43.4 19.45 43.5 Q16.35 42.9 14.3 40.35 12.6 38.3 12.25 35.8 L12.0 34.4 12.2 33.8 12.5 33.75 12.6 33.9 12.6 33.95 Q14.35 35.9 16.45 37.6 L18.45 38.85 Q21.4 40.2 24.55 39.6 25.1 39.5 25.55 39.05 L26.35 38.2 Q27.05 34.9 26.3 31.35 24.75 24.25 22.25 17.25 19.7 10.3 15.4 4.2 L14.2 2.5 12.2 -0.25 10.05 -0.8 7.9 -0.7 Q5.5 0.35 4.0 2.7 2.65 4.85 2.45 7.5 L2.5 7.65 2.65 8.75 Q3.0 10.05 2.75 11.25 L2.95 11.6 3.9 13.3 Q4.5 14.3 4.65 15.4 3.45 16.05 2.8 14.55 L2.1 13.4 Q0.05 10.9 -1.05 7.95 L-1.35 6.75 Q-1.75 1.95 1.65 -1.55 L3.2 -3.05 Q5.0 -4.65 7.3 -5.2 L8.1 -5.25 6.15 -7.45 7.05 -7.6 M4.8 26.6 L6.35 29.85 7.15 31.85 4.8 26.6 M26.6 52.3 L31.05 52.4 Q33.6 52.75 35.65 54.2 L36.65 54.35 Q37.25 55.65 36.95 57.1 L36.1 61.4 Q35.7 63.45 34.8 65.35 L33.05 68.8 Q32.55 69.65 32.7 70.3 L33.7 70.2 Q34.0 69.95 34.05 70.85 L34.05 70.9 34.25 71.35 35.15 72.1 35.6 72.3 32.25 79.4 31.0 79.4 26.2 80.2 22.5 79.95 22.25 79.9 Q23.45 76.25 24.95 72.8 L25.3 72.1 28.0 72.15 28.95 71.85 29.2 71.6 29.3 71.45 28.45 70.9 Q22.6 70.6 17.1 69.15 14.7 68.35 12.65 66.9 11.15 65.9 9.8 64.45 L10.35 66.3 Q9.2 65.1 8.55 63.4 L8.5 63.25 9.3 62.4 9.7 61.6 10.2 60.5 10.65 59.35 10.75 59.35 10.8 59.35 Q12.2 60.0 12.1 61.6 14.75 64.5 18.5 65.3 L21.0 65.4 Q22.9 62.8 23.45 59.6 L23.55 59.05 23.65 58.4 Q26.8 59.05 27.5 55.5 27.9 53.4 27.15 52.25 L26.6 52.3 M6.55 80.4 L6.65 80.35 7.9 76.5 Q9.85 78.3 12.4 79.1 L17.1 80.4 21.85 81.5 Q25.4 81.95 29.15 81.65 L27.7 83.95 Q27.0 85.15 27.45 86.3 L27.75 87.2 28.3 88.05 26.0 94.35 24.25 95.1 22.35 95.6 Q19.95 95.85 17.7 95.55 17.95 93.65 18.75 91.9 L20.0 89.1 20.95 89.25 Q23.75 89.55 26.35 89.35 L26.75 88.7 26.65 88.45 Q26.35 87.85 25.55 87.75 L24.15 87.55 17.6 86.5 15.35 86.0 Q12.15 84.9 9.7 82.85 8.8 82.15 7.8 81.6 7.75 81.5 7.7 81.55 L7.7 81.65 Q7.65 82.2 7.95 82.8 L7.9 82.75 Q6.8 81.75 6.15 80.5 L6.55 80.4 M25.0 98.8 L18.9 98.95 11.25 98.7 Q7.6 98.65 4.0 99.75 3.25 99.9 2.65 100.2 L1.5 100.6 2.8 94.85 Q3.25 92.6 4.1 90.5 6.45 93.1 9.55 94.65 12.05 95.95 14.95 96.7 L20.5 97.45 24.85 97.0 25.0 98.8 M1.35 103.85 L1.8 102.25 3.2 101.75 3.7 101.6 11.05 100.35 11.2 100.35 11.7 100.35 22.65 100.65 23.25 100.6 23.7 100.2 24.25 100.2 24.85 101.3 29.55 111.9 27.8 111.8 22.1 112.15 17.8 113.1 Q17.15 111.15 15.95 109.6 16.9 110.6 18.25 110.15 L18.6 109.35 Q18.7 107.95 18.05 106.6 17.1 104.55 15.65 102.8 14.3 101.15 12.2 101.05 L12.15 101.1 11.95 101.2 11.8 101.25 Q10.15 103.1 12.2 104.65 L13.45 106.05 15.45 109.05 14.95 108.5 Q13.4 106.95 11.2 106.3 L11.15 106.25 11.0 106.3 10.9 106.35 10.0 106.7 Q8.2 107.5 6.8 108.95 L6.35 109.45 6.1 109.75 Q5.55 108.2 4.45 106.9 L3.55 105.95 1.4 103.9 1.35 103.85 M15.6 115.1 L16.8 114.65 16.9 114.65 17.2 114.5 17.85 114.7 18.1 114.15 22.25 113.2 23.5 113.05 Q25.4 112.9 27.35 113.1 L27.5 113.1 27.65 113.1 29.3 113.4 Q30.75 113.7 32.1 114.35 33.65 115.05 35.15 115.9 L35.9 116.3 36.6 116.7 Q37.0 117.45 37.7 118.0 L37.9 118.15 38.45 119.15 39.25 121.15 39.65 121.95 39.7 122.05 39.8 122.75 40.5 123.4 Q40.15 123.55 40.25 124.0 L40.3 124.15 40.45 124.5 40.8 125.5 40.95 126.4 36.8 128.05 32.6 129.2 25.65 129.9 Q20.75 129.85 15.95 128.85 15.25 127.45 16.35 126.1 L18.65 126.65 18.8 126.65 24.95 127.5 31.4 127.25 Q34.5 126.75 37.4 125.25 L37.6 124.8 37.55 124.35 36.8 124.25 32.8 125.05 27.95 125.95 28.05 125.95 27.5 126.0 27.1 126.05 26.7 126.1 25.0 126.1 24.15 126.1 24.55 126.1 19.8 125.8 17.75 125.55 17.1 125.4 19.45 125.6 19.4 124.4 Q19.3 123.5 18.85 122.75 L18.85 122.7 19.1 122.5 19.25 122.1 19.3 121.95 Q20.45 120.4 19.7 118.45 18.65 115.55 15.6 115.1 M24.0 117.75 Q24.0 117.15 23.35 117.15 L23.25 117.2 23.2 117.2 Q22.8 117.7 22.7 118.35 L22.7 118.9 Q22.9 120.0 23.9 120.6 L25.25 121.65 25.65 122.25 Q25.95 122.95 26.6 122.9 L26.4 122.6 Q26.65 123.2 27.45 123.25 L28.0 122.35 Q28.05 120.65 27.0 119.45 25.8 118.15 24.0 117.75 M24.3 125.45 L24.0 126.1 24.05 126.0 24.3 125.45 M32.8 121.25 L33.0 121.75 33.55 121.75 Q34.7 120.6 34.75 118.85 34.8 117.4 33.95 116.3 L33.1 116.2 32.95 116.45 Q32.8 115.9 32.2 115.9 L32.1 115.95 32.05 115.95 Q31.75 116.25 31.85 116.7 L32.0 117.2 Q32.4 118.65 32.2 120.1 L32.05 120.65 Q31.9 121.1 32.25 121.35 L32.65 121.35 32.8 121.25 M28.75 120.95 L28.75 121.3 28.85 121.8 30.0 122.15 Q30.8 119.7 29.45 117.5 28.7 116.35 27.5 115.5 L26.95 115.45 26.65 115.65 26.8 115.5 Q26.75 115.2 26.25 115.2 25.7 115.6 25.9 116.3 L26.0 116.5 Q27.15 117.6 27.9 119.0 L28.05 119.35 28.55 120.4 28.6 120.65 28.75 120.95" fill="#333333" fill-rule="evenodd" stroke="none"/>
    <path d="M-13.7 17.45 L-13.8 16.8 -13.5 16.9 -13.7 16.2 -13.95 13.45 -14.3 13.5 -14.4 12.3 -14.65 9.05 Q-15.0 5.5 -13.95 2.2 -13.1 -0.65 -11.3 -3.05 -9.5 -5.4 -6.95 -6.9 -5.3 -7.85 -3.45 -8.45 L0.2 -9.45 1.05 -9.55 8.2 -8.7 9.25 -8.4 11.35 -7.45 7.2 -8.4 6.35 -8.2 5.35 -8.25 4.15 -8.2 3.7 -8.15 1.7 -7.75 Q-0.3 -7.1 -2.15 -6.1 L-2.2 -6.05 -2.7 -5.6 -4.15 -4.0 -5.65 -2.05 Q-7.1 0.2 -7.75 2.7 -8.45 5.15 -8.6 7.65 L-8.45 10.35 -8.5 10.35 -8.85 10.4 -8.85 10.45 -8.85 10.55 -8.5 10.45 -8.3 11.55 -8.15 12.25 Q-7.95 13.35 -8.0 14.45 L-8.5 14.75 -7.95 14.45 -7.5 15.6 -5.95 18.35 -4.85 20.2 -3.2 22.7 -2.65 23.9 -1.4 26.6 -0.25 29.15 0.2 29.5 -0.05 29.35 0.0 29.4 0.2 30.15 0.6 30.95 0.7 31.05 0.95 31.05 1.45 32.7 1.75 33.35 Q2.85 36.65 4.7 39.65 L5.35 40.65 Q7.0 43.35 9.25 45.45 L-1.2 50.85 -1.6 51.2 -1.85 50.0 -2.7 44.45 -3.05 43.95 Q-4.15 42.0 -4.45 39.7 L-8.5 28.7 Q-10.1 24.45 -12.4 20.6 L-12.05 20.45 -12.4 20.6 -13.25 18.4 -13.7 17.45 M-5.65 29.2 L-5.7 29.0 -5.7 29.15 -5.65 29.2" fill="#2f2e1c" fill-rule="evenodd" stroke="none"/>
    <path d="M7.05 -7.6 L6.15 -7.45 5.5 -7.25 Q1.1 -5.75 -1.9 -2.2 -3.75 0.05 -4.25 2.9 -4.65 5.25 -4.45 7.65 L-3.75 12.6 -3.3 13.15 Q-0.4 17.3 2.2 21.75 L4.7 26.4 4.8 26.6 7.15 31.85 8.75 35.85 Q10.6 40.6 13.9 44.4 L14.05 44.55 14.6 45.2 15.15 46.0 15.05 46.05 Q14.55 46.75 13.5 46.3 12.05 45.7 10.85 44.85 L10.8 44.65 10.75 44.75 10.7 44.75 10.8 44.65 8.75 42.35 8.8 42.35 8.0 41.35 6.05 38.3 5.95 38.15 5.8 37.8 5.3 36.9 4.55 35.2 4.4 34.9 3.85 33.4 3.3 31.8 3.5 31.75 3.4 31.5 3.2 31.3 2.5 30.15 0.1 24.9 Q-1.3 22.25 -2.95 19.75 L-5.1 16.3 -5.65 15.45 -5.6 15.4 -5.95 14.75 -6.55 13.45 -6.75 13.25 -6.75 13.15 -6.75 12.7 -6.75 12.65 -6.75 12.6 -7.05 11.45 Q-7.7 9.3 -7.5 7.05 L-7.4 5.9 Q-7.35 3.7 -6.65 1.55 L-4.9 -2.5 -4.7 -3.05 -4.4 -3.65 -4.15 -4.0 -2.7 -5.6 -2.2 -6.05 -2.15 -6.1 Q-0.3 -7.1 1.7 -7.75 L3.7 -8.15 4.15 -8.2 5.45 -8.05 7.05 -7.6 M-0.2 28.2 L-0.4 28.1 -0.3 27.95 -0.2 28.2 M21.05 54.9 L22.55 53.75 22.95 53.5 23.85 53.05 24.4 52.8 24.55 52.7 25.2 52.55 26.4 52.35 26.6 52.3 27.15 52.25 Q27.9 53.4 27.5 55.5 26.8 59.05 23.65 58.4 L23.55 59.05 22.7 58.8 Q21.45 58.4 21.0 57.1 L20.55 55.3 21.05 54.9 M25.3 72.1 L21.35 71.75 Q18.25 71.25 15.25 69.9 12.65 68.7 10.5 66.8 L10.35 66.3 9.8 64.45 Q11.15 65.9 12.65 66.9 14.7 68.35 17.1 69.15 22.6 70.6 28.45 70.9 L29.3 71.45 29.2 71.6 28.95 71.85 28.0 72.15 25.3 72.1 M7.95 82.8 Q7.65 82.2 7.7 81.65 L7.8 81.6 Q8.8 82.15 9.7 82.85 12.15 84.9 15.35 86.0 L17.6 86.5 24.15 87.55 25.55 87.75 Q26.35 87.85 26.65 88.45 L26.75 88.7 26.35 89.35 Q23.75 89.55 20.95 89.25 L20.0 89.1 Q15.3 88.15 11.1 85.9 9.4 84.9 8.2 83.2 L7.95 82.8 M12.5 117.45 Q13.05 116.5 13.95 115.9 L14.2 115.75 14.3 115.7 14.35 115.65 14.5 115.55 15.5 115.15 15.55 115.1 15.6 115.1 Q18.65 115.55 19.7 118.45 20.45 120.4 19.3 121.95 L19.25 122.1 19.1 122.5 18.85 122.7 17.7 120.9 Q16.0 120.7 14.45 119.45 L13.1 118.35 12.5 117.45 M-1.35 110.25 L-0.2 107.8 1.0 104.95 1.35 103.95 1.4 103.9 3.55 105.95 3.45 106.2 Q2.4 108.3 0.8 109.9 -0.4 111.3 -1.35 110.25" fill="#666666" fill-rule="evenodd" stroke="none"/>
    <path d="M6.15 -7.45 L8.1 -5.25 7.3 -5.2 Q5.0 -4.65 3.2 -3.05 L1.65 -1.55 Q-1.75 1.95 -1.35 6.75 L-1.05 7.95 Q0.05 10.9 2.1 13.4 L2.8 14.55 Q3.45 16.05 4.65 15.4 4.5 14.3 3.9 13.3 L2.95 11.6 2.75 11.25 Q3.0 10.05 2.65 8.75 L2.5 7.65 2.45 7.5 Q2.65 4.85 4.0 2.7 5.5 0.35 7.9 -0.7 L10.05 -0.8 12.2 -0.25 14.2 2.5 15.4 4.2 Q19.7 10.3 22.25 17.25 24.75 24.25 26.3 31.35 27.05 34.9 26.35 38.2 L25.55 39.05 Q25.1 39.5 24.55 39.6 21.4 40.2 18.45 38.85 L16.45 37.6 Q14.35 35.9 12.6 33.95 L12.6 33.9 12.5 33.75 12.2 33.8 12.0 34.4 12.25 35.8 Q12.6 38.3 14.3 40.35 16.35 42.9 19.45 43.5 L20.0 43.4 13.9 44.4 Q10.6 40.6 8.75 35.85 L7.15 31.85 6.35 29.85 4.8 26.6 4.7 26.4 2.2 21.75 Q-0.4 17.3 -3.3 13.15 L-3.75 12.6 -4.45 7.65 Q-4.65 5.25 -4.25 2.9 -3.75 0.05 -1.9 -2.2 1.1 -5.75 5.5 -7.25 L6.15 -7.45 M15.15 46.0 L15.2 46.15 15.15 46.1 15.05 46.05 15.15 46.0 M10.85 44.85 L10.75 44.75 10.8 44.65 10.85 44.85 M8.75 42.35 L8.8 42.35 8.75 42.35 M22.25 79.9 L17.6 79.15 Q13.8 78.55 10.65 76.7 6.8 74.55 4.95 70.9 L4.55 69.8 Q6.45 66.85 7.2 63.35 L8.5 63.25 8.55 63.4 Q9.2 65.1 10.35 66.3 L10.5 66.8 Q12.65 68.7 15.25 69.9 18.25 71.25 21.35 71.75 L25.3 72.1 24.95 72.8 Q23.45 76.25 22.25 79.9 M10.75 59.35 L11.2 59.15 11.55 58.55 Q14.65 59.35 17.4 57.75 L20.15 55.65 21.05 54.9 20.55 55.3 21.0 57.1 Q21.45 58.4 22.7 58.8 L23.55 59.05 23.45 59.6 Q22.9 62.8 21.0 65.4 L18.5 65.3 Q14.75 64.5 12.1 61.6 12.2 60.0 10.8 59.35 L10.75 59.35 M17.7 95.55 Q15.7 95.3 13.75 94.65 L9.75 93.0 Q7.3 91.9 5.3 90.15 L3.3 87.95 4.85 80.75 6.55 80.4 6.15 80.5 Q6.8 81.75 7.9 82.75 L7.95 82.8 8.2 83.2 Q9.4 84.9 11.1 85.9 15.3 88.15 20.0 89.1 L18.75 91.9 Q17.95 93.65 17.7 95.55 M15.95 109.6 L15.45 109.05 13.45 106.05 12.2 104.65 Q10.15 103.1 11.8 101.25 L11.95 101.2 12.15 101.1 12.2 101.05 Q14.3 101.15 15.65 102.8 17.1 104.55 18.05 106.6 18.7 107.95 18.6 109.35 L18.25 110.15 Q16.9 110.6 15.95 109.6 M6.1 109.75 Q4.95 111.2 4.35 112.85 L3.9 114.4 7.55 117.4 10.7 120.2 11.1 120.35 11.05 119.65 11.7 118.85 12.15 118.05 12.5 117.45 13.1 118.35 14.45 119.45 Q16.0 120.7 17.7 120.9 L18.85 122.7 18.85 122.75 Q19.3 123.5 19.4 124.4 L19.45 125.6 17.1 125.4 17.75 125.55 13.55 124.65 13.55 124.7 13.7 124.95 16.35 126.1 Q15.25 127.45 15.95 128.85 L15.7 128.8 11.75 127.5 9.95 126.45 9.0 125.55 Q6.9 123.45 5.95 120.7 L5.05 119.1 4.35 118.3 4.65 118.3 4.65 118.2 4.55 117.75 4.15 117.35 3.6 117.35 3.1 117.35 2.95 117.4 2.65 117.4 1.4 117.75 1.0 118.1 0.65 118.55 -3.0 116.15 Q-2.5 113.0 -1.35 110.25 -0.4 111.3 0.8 109.9 2.4 108.3 3.45 106.2 L3.55 105.95 4.45 106.9 Q5.55 108.2 6.1 109.75 M1.35 103.95 L1.35 103.85 1.4 103.9 1.35 103.95 M25.0 126.1 L24.55 126.1 24.15 126.1 25.0 126.1 M26.4 122.6 L26.35 122.45 25.7 121.0 24.95 120.35 Q24.25 120.0 23.9 119.45 L23.55 118.6 23.9 117.7 24.0 117.75 Q25.8 118.15 27.0 119.45 28.05 120.65 28.0 122.35 L27.45 123.25 Q26.65 123.2 26.4 122.6 M24.3 125.45 L24.05 126.0 24.0 126.1 24.3 125.45 M32.95 116.45 L33.1 116.2 33.95 116.3 Q34.8 117.4 34.75 118.85 34.7 120.6 33.55 121.75 L33.0 121.75 32.8 121.25 32.7 120.9 32.7 120.65 32.7 120.55 32.7 120.5 32.7 120.35 Q33.05 118.5 32.85 116.55 L32.95 116.45 M28.75 120.95 L28.55 119.35 Q28.45 118.1 27.4 116.95 L26.75 116.05 26.75 116.0 26.7 115.95 26.7 115.9 26.65 115.8 26.65 115.65 26.95 115.45 27.5 115.5 Q28.7 116.35 29.45 117.5 30.8 119.7 30.0 122.15 L28.85 121.8 28.75 121.3 28.75 120.95" fill="#404040" fill-rule="evenodd" stroke="none"/>
    <path d="M-1.6 51.2 L-4.25 53.65 Q-5.95 40.7 -9.9 28.05 L-12.4 20.6 -12.05 20.45 -12.4 20.6 Q-10.1 24.45 -8.5 28.7 L-4.45 39.7 Q-4.15 42.0 -3.05 43.95 L-2.7 44.45 -1.85 50.0 -1.6 51.2" fill="#43432e" fill-rule="evenodd" stroke="none"/>
    <path d="M-11.25 27.9 L-11.5 27.15 -12.15 25.0 -12.2 24.8 -12.45 23.85 -12.3 24.3 -11.25 27.9 M11.9 46.0 Q11.4 47.75 12.7 49.8 14.05 51.95 16.45 52.25 L18.1 52.0 Q21.05 50.35 20.25 47.95 L22.15 47.75 26.35 47.0 28.6 46.6 28.55 46.7 Q27.6 49.0 29.25 50.8 L29.25 50.9 24.95 51.0 Q22.85 51.0 21.15 52.5 L19.4 54.1 16.95 56.1 15.35 57.2 Q13.55 58.0 11.95 58.2 L11.55 58.15 11.6 57.8 Q11.25 56.2 10.55 54.75 L8.15 50.15 6.9 47.95 11.9 46.0 M9.25 111.45 Q9.8 110.65 10.5 110.0 10.85 109.6 11.3 109.25 L11.5 109.05 12.65 108.2 Q15.05 110.45 16.5 113.6 L15.1 114.35 14.35 114.7 13.25 114.1 Q10.85 113.1 9.25 111.45" fill="#330000" fill-rule="evenodd" stroke="none"/>
  </g>
</svg>
