<?xml version="1.0" encoding="UTF-8" standalone="no"?>
<svg xmlns:xlink="http://www.w3.org/1999/xlink" height="103.95px" width="46.85px" xmlns="http://www.w3.org/2000/svg">
  <g transform="matrix(1.0, 0.0, 0.0, 1.0, 14.4, 10.95)">
    <path d="M-9.9 2.5 L-8.8 3.3 -7.75 4.0 Q-6.4 5.3 -4.45 4.8 L-4.1 4.6 Q-2.55 2.7 -4.4 0.8 L-4.6 0.15 -4.85 -1.85 Q-4.65 -4.3 -4.05 -6.7 L-3.05 -7.8 -2.4 -8.8 0.55 -9.7 4.5 -9.45 4.3 -9.35 4.7 -8.85 5.15 -8.35 Q5.95 -6.8 6.3 -5.05 L6.4 -4.1 Q6.5 -3.1 6.2 -2.1 5.5 0.15 3.5 1.2 L1.4 1.95 0.9 4.55 0.9 6.0 0.95 7.25 Q1.5 11.15 3.35 14.85 L4.9 17.5 5.05 17.75 Q4.6 18.65 4.65 19.9 4.7 25.95 10.55 27.85 13.25 28.7 15.25 27.2 15.95 26.65 16.1 25.8 16.45 23.8 15.95 21.85 L15.8 21.35 Q19.1 21.0 22.05 22.35 22.45 23.1 23.3 23.15 L25.45 23.4 26.15 23.5 26.8 25.6 24.8 26.1 Q22.3 26.3 19.95 27.05 17.5 27.75 15.15 29.05 L12.85 30.6 Q12.4 30.9 12.05 31.3 L10.45 31.7 10.45 31.6 Q10.7 31.15 10.35 30.45 8.6 27.2 5.7 24.9 L5.25 24.55 Q3.45 23.15 1.3 23.05 L0.85 22.65 0.2 22.1 -2.95 18.95 -4.65 16.6 -4.1 16.05 -3.15 14.9 -2.9 14.3 Q-2.3 11.8 -3.75 9.55 L-3.8 9.45 -4.8 8.4 -5.65 10.15 -5.95 11.15 -6.05 11.5 -6.45 13.2 -7.3 11.6 -7.3 11.55 -7.35 11.55 -7.5 11.35 -7.55 11.2 Q-7.5 10.9 -7.75 10.55 L-7.8 9.75 Q-8.45 9.35 -8.75 8.5 -9.6 6.1 -9.85 3.6 L-9.9 2.5 M20.35 42.75 L22.2 44.3 Q24.2 46.2 23.8 48.85 L22.6 50.6 22.25 51.2 22.2 51.2 22.05 51.4 22.0 51.3 21.6 51.45 22.0 51.3 20.85 49.35 20.5 48.8 Q19.55 47.25 18.25 46.05 L18.2 46.05 18.3 45.85 20.35 42.75 M14.55 53.1 L15.5 54.1 17.25 57.0 17.05 57.15 15.4 59.95 Q14.2 58.1 12.35 56.85 L12.2 56.75 11.55 56.3 Q12.65 54.4 14.05 52.8 L14.5 53.15 14.55 53.1" fill="#330000" fill-rule="evenodd" stroke="none"/>
    <path d="M-2.4 -8.8 L-3.05 -7.8 -4.05 -6.7 Q-4.65 -4.3 -4.85 -1.85 L-4.6 0.15 -4.4 0.8 Q-2.55 2.7 -4.1 4.6 L-4.45 4.8 Q-6.4 5.3 -7.75 4.0 L-8.8 3.3 -9.9 2.5 -8.35 -3.35 -8.3 -3.45 -8.2 -3.6 -8.0 -3.95 -7.2 -5.05 -7.05 -5.2 -6.9 -5.4 -6.85 -5.45 -5.9 -6.45 -5.25 -7.05 -2.4 -8.8 M-6.45 13.2 L-6.05 11.5 -5.95 11.15 -5.65 10.15 -4.8 8.4 -3.8 9.45 -3.75 9.55 Q-2.3 11.8 -2.9 14.3 L-3.15 14.9 -4.1 16.05 -4.65 16.6 -5.4 15.3 -6.45 13.2 M15.95 21.85 Q16.45 23.8 16.1 25.8 15.95 26.65 15.25 27.2 13.25 28.7 10.55 27.85 4.7 25.95 4.65 19.9 4.6 18.65 5.05 17.75 L6.95 20.2 7.15 20.4 Q8.25 21.55 9.6 22.3 L9.6 22.4 10.3 22.45 10.4 22.55 10.55 22.65 10.7 22.8 11.5 22.7 15.95 21.85 M11.55 56.3 Q9.05 54.65 6.1 53.45 4.1 52.65 2.15 52.55 L5.3 46.5 6.25 44.55 7.45 41.4 7.3 40.7 Q10.15 39.4 13.4 39.95 L15.05 40.25 Q18.0 41.05 20.35 42.75 L18.3 45.85 18.2 46.05 18.05 46.45 17.1 45.85 Q16.0 45.1 14.9 44.65 13.25 43.9 11.55 43.75 10.75 44.0 10.35 44.55 8.7 46.7 7.95 49.1 L7.85 49.5 7.75 49.85 7.7 49.95 9.5 50.7 9.55 50.7 9.6 50.7 9.8 50.75 11.3 51.35 13.2 52.2 14.1 52.8 14.05 52.8 Q12.65 54.4 11.55 56.3" fill="#5a361f" fill-rule="evenodd" stroke="none"/>
    <path d="M1.3 23.05 Q3.45 23.15 5.25 24.55 L5.7 24.9 Q8.6 27.2 10.35 30.45 10.7 31.15 10.45 31.6 10.1 31.6 9.95 31.4 L7.7 29.2 Q5.6 26.6 2.8 24.75 L1.3 23.05 M10.45 31.7 L12.05 31.3 Q12.4 30.9 12.85 30.6 L15.15 29.05 Q17.5 27.75 19.95 27.05 22.3 26.3 24.8 26.1 L26.8 25.6 26.15 23.5 25.45 23.4 23.3 23.15 Q22.45 23.1 22.05 22.35 19.1 21.0 15.8 21.35 L15.95 21.85 11.5 22.7 10.7 22.8 10.55 22.65 10.4 22.55 10.3 22.45 9.6 22.4 9.6 22.3 Q8.25 21.55 7.15 20.4 L6.95 20.2 5.05 17.75 4.9 17.5 3.35 14.85 Q1.5 11.15 0.95 7.25 L0.9 6.0 0.9 4.55 1.4 1.95 3.5 1.2 Q5.5 0.15 6.2 -2.1 6.5 -3.1 6.4 -4.1 L6.3 -5.05 Q5.95 -6.8 5.15 -8.35 L4.7 -8.85 4.3 -9.35 4.5 -9.45 5.95 -10.2 6.0 -10.15 6.4 -10.4 7.3 -10.85 7.45 -10.95 9.5 -10.65 Q11.7 -10.1 13.1 -8.7 19.0 -2.8 22.6 4.9 25.7 11.8 27.75 19.15 L27.45 19.75 27.8 20.6 27.2 21.45 Q28.35 23.65 28.2 26.0 L31.85 26.55 Q32.6 27.95 32.45 29.7 32.05 35.3 28.95 40.1 29.5 42.2 28.7 44.45 27.55 47.35 25.0 49.25 L24.8 49.35 24.45 49.2 Q23.65 51.15 22.1 52.55 L21.7 54.3 Q20.95 57.25 18.2 58.35 L18.3 58.4 17.65 58.75 17.5 58.9 17.35 58.7 15.7 60.85 15.0 62.9 12.7 69.15 11.05 73.2 10.4 74.6 10.25 74.9 9.95 75.4 8.4 76.95 7.05 78.7 Q4.7 81.6 1.5 83.1 L-1.6 82.55 -2.65 82.35 -4.0 81.75 -4.1 81.45 -4.15 81.4 -3.9 81.5 -4.65 81.1 -5.2 80.2 -5.25 79.9 -5.3 79.3 -5.2 75.65 Q-5.2 75.15 -5.35 74.9 L-5.35 72.8 -5.8 73.2 -6.55 74.55 -6.5 74.6 -6.55 74.6 -6.75 74.95 -6.85 75.45 Q-7.55 76.85 -7.65 78.45 L-7.7 81.1 -8.1 81.6 -8.45 81.8 -8.8 82.0 -9.55 82.15 Q-10.0 81.95 -10.35 82.15 L-11.8 81.8 -12.45 81.1 Q-13.45 79.0 -13.8 76.4 L-14.2 73.1 -14.4 72.7 -13.15 69.1 -13.2 69.05 -12.15 66.4 -12.05 66.4 -12.05 66.35 -12.0 66.2 -11.9 65.9 -11.85 66.1 -11.2 64.6 -10.45 63.05 Q-9.35 60.9 -7.5 59.65 -4.75 57.8 -2.35 55.6 L-1.25 54.55 0.65 52.7 2.05 51.55 4.25 46.5 4.4 45.95 4.6 45.0 4.8 44.7 5.0 44.1 5.15 43.5 5.3 43.65 5.85 41.55 5.55 41.2 Q4.75 40.1 5.1 38.7 5.7 35.65 7.75 33.4 8.9 32.2 10.45 31.7 M12.0 -8.05 Q10.45 -9.4 8.55 -9.95 7.9 -9.65 7.4 -9.2 L6.7 -8.75 6.85 -8.35 6.9 -8.3 Q7.45 -6.9 7.5 -5.3 L7.5 -4.95 7.35 -3.45 7.35 -3.15 Q7.3 -0.9 5.95 0.9 L5.4 1.6 Q4.05 3.15 2.0 3.4 1.65 6.5 2.6 9.75 L4.15 14.35 4.9 16.0 5.4 16.95 5.45 16.95 Q6.7 19.1 8.55 20.9 L9.75 21.9 12.1 20.25 Q12.95 19.6 14.0 19.25 15.35 18.65 16.85 18.45 20.55 17.9 22.45 20.9 23.65 21.1 24.75 20.9 25.85 20.65 26.55 20.0 L26.15 18.7 23.8 11.35 21.7 6.35 19.1 1.35 16.15 -3.3 Q14.55 -5.6 12.55 -7.55 L12.0 -8.05 M22.4 33.35 L23.7 34.1 Q25.3 35.1 26.6 36.45 L28.35 38.55 Q29.75 36.3 30.5 33.85 31.45 30.85 31.45 27.6 L28.95 27.4 26.25 27.3 25.95 27.3 Q19.1 27.6 13.25 31.1 L19.15 32.05 Q20.8 32.55 22.4 33.35 M6.3 38.1 L6.25 38.1 6.2 38.9 6.2 39.4 6.4 40.7 6.4 40.8 6.5 40.65 Q8.25 39.1 10.65 39.0 L12.85 39.1 Q16.2 39.5 19.15 41.05 21.15 42.1 22.7 43.75 L24.05 45.5 Q24.7 46.5 24.85 47.85 26.55 46.45 27.5 44.5 28.2 43.0 27.95 41.35 L27.9 41.1 Q27.4 38.9 26.05 37.3 25.0 36.0 23.45 35.1 21.35 33.95 19.1 33.15 L18.85 33.05 15.15 32.0 9.3 33.05 9.15 33.5 Q7.5 34.9 6.7 36.75 L6.3 38.1 M20.35 42.75 Q18.0 41.05 15.05 40.25 L13.4 39.95 Q10.15 39.4 7.3 40.7 L7.45 41.4 6.25 44.55 5.3 46.5 2.15 52.55 Q4.1 52.65 6.1 53.45 9.05 54.65 11.55 56.3 L12.2 56.75 12.35 56.85 Q14.2 58.1 15.4 59.95 L17.05 57.15 17.35 57.2 17.3 57.15 17.25 57.0 15.5 54.1 14.55 53.1 13.45 52.3 13.2 52.2 11.3 51.35 9.8 50.75 9.6 50.7 9.55 50.7 9.5 50.7 7.7 49.95 7.75 49.85 7.85 49.5 7.95 49.1 Q8.7 46.7 10.35 44.55 10.75 44.0 11.55 43.75 13.25 43.9 14.9 44.65 16.0 45.1 17.1 45.85 L18.05 46.45 18.2 46.05 18.25 46.05 Q19.55 47.25 20.5 48.8 L20.85 49.35 22.0 51.3 21.6 51.45 22.0 51.3 22.05 51.4 22.2 51.2 22.25 51.2 22.6 50.6 23.8 48.85 Q24.2 46.2 22.2 44.3 L20.35 42.75 M17.55 47.15 Q16.55 46.4 15.45 45.85 L12.65 44.55 Q11.55 44.15 11.15 44.85 10.0 46.25 9.25 47.85 L8.65 49.25 8.5 49.65 8.45 49.75 8.65 49.75 9.3 49.85 10.1 50.0 Q11.55 50.3 12.9 50.95 15.35 52.25 17.05 54.6 17.95 55.85 18.15 56.9 L18.15 57.0 18.15 57.3 18.4 57.1 19.0 56.6 19.6 56.05 Q20.75 54.9 21.1 53.35 L21.15 52.2 21.0 51.45 Q20.55 49.75 19.2 48.45 L17.55 47.15 M-0.65 81.75 L0.75 82.6 Q0.9 82.45 1.1 82.4 2.9 81.35 4.5 79.75 L7.25 77.1 8.55 75.85 9.3 74.9 10.45 72.6 11.85 68.65 14.6 60.65 13.75 59.45 12.65 58.35 Q9.15 55.65 5.35 54.05 L4.9 53.9 Q3.35 53.35 1.8 53.35 L1.25 54.0 Q-2.15 57.2 -5.9 59.85 L-8.55 61.85 Q-9.4 62.6 -9.8 63.65 L-11.3 67.4 -12.25 69.75 -12.4 70.15 -13.45 72.75 -11.75 80.7 -10.15 81.4 -9.0 81.1 -9.05 77.95 Q-9.0 76.65 -8.35 75.55 -7.35 73.65 -5.7 72.25 L-5.3 71.9 -4.7 72.45 -4.7 72.5 -4.65 73.3 -4.25 76.9 Q-4.0 78.6 -4.7 80.25 L-3.05 80.7 -1.8 81.1 Q-1.3 78.2 0.05 75.5 L0.3 75.25 0.6 76.0 -1.15 81.45 -0.85 81.65 -0.65 81.75 M-7.7 76.45 L-7.8 76.75 -7.6 76.6 -7.7 76.45" fill="#000000" fill-rule="evenodd" stroke="none"/>
    <path d="M6.9 -8.3 L6.85 -8.35 6.7 -8.75 7.4 -9.2 Q7.9 -9.65 8.55 -9.95 10.45 -9.4 12.0 -8.05 10.6 -6.7 12.5 -5.25 L13.95 -4.05 Q17.45 -0.75 19.35 3.65 20.75 6.85 20.65 10.4 20.55 13.15 18.95 15.55 L16.5 16.55 Q13.65 17.35 11.05 18.65 9.4 19.45 8.55 20.9 6.7 19.1 5.45 16.95 L6.45 17.05 Q6.2 16.75 6.1 16.15 5.95 15.15 6.7 14.7 8.95 14.4 8.6 16.55 L8.5 16.8 9.75 16.4 9.25 16.1 Q8.55 15.55 8.8 14.65 9.0 14.05 9.5 13.8 L9.65 13.8 9.4 13.2 Q9.15 12.35 9.8 11.75 L10.0 11.5 10.45 11.45 10.6 11.0 Q10.9 10.4 11.45 10.1 13.1 9.8 13.15 11.15 L13.2 11.15 13.4 11.1 13.1 10.3 Q13.05 9.9 13.15 9.6 11.8 10.1 11.6 8.8 11.4 8.0 12.05 7.6 13.8 7.4 13.65 8.9 L13.7 8.85 14.0 8.8 14.35 8.45 14.4 8.45 14.3 7.85 14.4 7.2 14.05 7.1 13.75 7.0 13.35 6.85 Q12.5 6.7 12.9 5.65 L13.2 5.2 13.4 5.2 13.75 5.0 Q14.95 5.15 14.9 5.9 L15.2 6.5 15.8 6.5 Q15.85 3.25 14.75 0.1 12.55 -6.25 6.95 -8.3 L6.9 -8.3 M-5.35 74.9 Q-5.65 74.6 -6.25 74.7 L-6.45 74.85 -6.75 75.2 -6.85 75.45 -6.75 74.95 -6.55 74.6 -6.5 74.6 -6.55 74.55 -5.8 73.2 -5.35 72.8 -5.35 74.9 M11.6 6.55 Q11.3 7.3 10.55 7.1 9.1 6.65 9.85 5.35 10.1 4.95 10.55 4.9 12.15 5.05 11.6 6.55 M13.5 2.5 L13.85 2.4 Q15.55 2.7 14.55 4.2 12.85 4.65 13.1 3.05 L13.4 2.55 13.5 2.5 M22.4 33.35 L24.9 32.4 Q27.5 31.3 26.8 28.65 L26.25 27.3 28.95 27.4 31.45 27.6 Q31.45 30.85 30.5 33.85 29.5 34.8 28.2 35.6 L26.6 36.45 Q25.3 35.1 23.7 34.1 L22.4 33.35 M14.65 11.5 L14.85 11.85 15.05 11.35 14.65 11.5 M13.75 13.55 L13.6 13.65 13.55 13.65 13.6 13.8 13.8 13.55 13.75 13.55 M8.6 8.2 Q10.95 7.7 10.6 9.95 10.5 10.5 10.0 10.7 8.1 11.3 7.95 9.5 7.85 8.6 8.6 8.2 M8.4 11.1 Q9.4 11.55 9.1 12.6 L9.05 13.05 8.8 13.4 8.2 13.5 8.0 13.4 Q6.95 13.4 7.0 12.0 7.0 11.5 7.45 11.3 L7.8 11.2 8.4 11.1 M11.85 12.9 L11.75 12.9 11.75 13.0 11.85 12.9 M6.3 38.1 Q6.6 37.8 7.0 37.65 9.85 36.35 13.05 36.65 L15.8 36.8 Q17.0 34.7 18.45 32.95 L18.85 33.05 19.1 33.15 Q21.35 33.95 23.45 35.1 25.0 36.0 26.05 37.3 L25.35 38.75 23.9 41.2 23.8 41.3 23.8 41.25 Q21.25 39.55 18.3 38.85 L14.7 38.25 7.35 38.7 6.2 38.9 6.25 38.1 6.3 38.1 M14.05 52.8 L14.1 52.8 14.5 53.15 14.05 52.8 M17.55 47.15 L19.2 48.45 Q20.55 49.75 21.0 51.45 L21.15 52.2 21.1 53.35 Q20.75 54.9 19.6 56.05 L19.0 56.6 18.4 57.1 18.35 57.05 18.15 56.9 Q17.95 55.85 17.05 54.6 15.35 52.25 12.9 50.95 11.55 50.3 10.1 50.0 L9.3 49.85 8.65 49.75 8.5 49.65 8.65 49.25 9.25 47.85 9.95 47.85 Q11.7 48.1 13.35 48.7 L14.8 49.55 14.95 49.55 17.55 47.15 M4.9 53.9 L5.35 54.05 Q9.15 55.65 12.65 58.35 L13.75 59.45 14.6 60.65 11.85 68.65 10.45 72.6 9.3 74.9 8.55 75.85 7.25 77.1 4.5 79.75 Q2.9 81.35 1.1 82.4 0.9 82.45 0.75 82.6 L-0.65 81.75 -0.45 81.5 0.6 80.4 4.9 76.15 2.9 75.75 3.25 75.5 Q3.95 74.9 3.85 74.05 3.65 71.85 1.4 72.15 1.0 72.35 0.85 72.8 0.2 74.2 1.1 75.3 L-0.05 78.75 -0.75 81.45 -0.85 81.65 -1.15 81.45 0.6 76.0 0.3 75.25 0.05 75.5 Q-1.3 78.2 -1.8 81.1 L-3.05 80.7 -3.05 80.35 Q-2.6 77.65 -1.65 75.05 L-1.25 73.8 -1.2 73.7 -2.45 73.75 Q-1.9 73.45 -1.5 72.8 -0.85 71.8 -1.3 70.75 -2.1 68.95 -4.2 69.55 L-5.4 70.25 Q-6.05 70.9 -5.8 71.85 L-5.7 72.25 Q-7.35 73.65 -8.35 75.55 -9.0 76.65 -9.05 77.95 L-9.0 81.1 -10.15 81.4 -10.2 81.15 -10.25 79.5 Q-10.2 77.65 -10.7 76.0 L-10.85 75.4 Q-11.1 74.0 -9.95 73.0 L-9.65 72.65 Q-8.6 70.75 -7.1 69.3 L-8.1 69.2 -8.95 68.65 Q-9.7 67.75 -9.6 66.75 L-9.1 66.95 Q-7.45 67.65 -6.05 66.25 -5.4 65.6 -5.3 64.9 L-3.8 63.3 -3.5 63.0 -3.05 62.45 -2.7 62.15 -2.7 62.1 -0.25 59.65 0.85 58.55 0.15 59.4 -2.25 62.0 -3.1 62.95 -3.2 63.1 -3.3 63.2 -3.4 63.25 -3.85 63.7 -4.6 64.25 -4.65 64.45 -4.85 65.8 Q-3.8 67.2 -2.3 66.75 -1.95 67.4 -1.15 67.65 L-0.4 67.95 -0.75 68.6 Q-0.2 70.9 2.05 70.5 L2.65 70.1 Q3.2 70.8 4.15 70.9 L4.0 71.75 4.7 72.05 4.75 72.05 5.25 72.25 5.55 72.25 7.15 72.2 Q8.25 71.2 8.1 69.5 10.0 67.0 10.9 64.0 11.15 63.05 11.0 62.1 L10.8 61.35 10.35 60.85 9.35 60.05 7.15 58.3 Q5.45 57.05 3.2 56.6 L2.3 57.35 1.55 57.8 4.9 53.9 M-1.2 62.35 L-1.35 62.35 -1.3 62.25 -1.2 62.35" fill="#404040" fill-rule="evenodd" stroke="none"/>
    <path d="M5.45 16.95 L5.4 16.95 4.9 16.0 4.15 14.35 2.6 9.75 Q1.65 6.5 2.0 3.4 4.05 3.15 5.4 1.6 L5.95 0.9 Q7.3 -0.9 7.35 -3.15 L7.35 -3.45 7.5 -4.95 7.5 -5.3 Q7.45 -6.9 6.9 -8.3 L6.95 -8.3 Q12.55 -6.25 14.75 0.1 15.85 3.25 15.8 6.5 L15.2 6.5 14.9 5.9 Q14.95 5.15 13.75 5.0 L13.4 5.2 13.2 5.2 12.9 5.65 Q12.5 6.7 13.35 6.85 L13.75 7.0 14.05 7.1 14.4 7.2 14.3 7.85 14.4 8.45 14.35 8.45 14.0 8.8 13.7 8.85 13.65 8.9 Q13.8 7.4 12.05 7.6 11.4 8.0 11.6 8.8 11.8 10.1 13.15 9.6 13.05 9.9 13.1 10.3 L13.4 11.1 13.2 11.15 13.15 11.15 Q13.1 9.8 11.45 10.1 10.9 10.4 10.6 11.0 L10.45 11.45 10.0 11.5 9.8 11.75 Q9.15 12.35 9.4 13.2 L9.65 13.8 9.5 13.8 Q9.0 14.05 8.8 14.65 8.55 15.55 9.25 16.1 L9.75 16.4 8.5 16.8 8.6 16.55 Q8.95 14.4 6.7 14.7 5.95 15.15 6.1 16.15 6.2 16.75 6.45 17.05 L5.45 16.95 M-12.15 66.4 L-11.9 65.75 -11.9 65.9 -12.0 66.2 -12.05 66.35 -12.05 66.4 -12.15 66.4 M13.5 2.5 L13.4 2.55 13.1 3.05 Q12.85 4.65 14.55 4.2 15.55 2.7 13.85 2.4 L13.5 2.5 M11.6 6.55 Q12.15 5.05 10.55 4.9 10.1 4.95 9.85 5.35 9.1 6.65 10.55 7.1 11.3 7.3 11.6 6.55 M26.25 27.3 L26.8 28.65 Q27.5 31.3 24.9 32.4 L22.4 33.35 Q20.8 32.55 19.15 32.05 L13.25 31.1 Q19.1 27.6 25.95 27.3 L26.25 27.3 M11.85 12.9 L11.75 13.0 11.75 12.9 11.85 12.9 M8.4 11.1 L7.8 11.2 7.45 11.3 Q7.0 11.5 7.0 12.0 6.95 13.4 8.0 13.4 L8.2 13.5 8.8 13.4 9.05 13.05 9.1 12.6 Q9.4 11.55 8.4 11.1 M8.6 8.2 Q7.85 8.6 7.95 9.5 8.1 11.3 10.0 10.7 10.5 10.5 10.6 9.95 10.95 7.7 8.6 8.2 M13.75 13.55 L13.8 13.55 13.6 13.8 13.55 13.65 13.6 13.65 13.75 13.55 M14.65 11.5 L15.05 11.35 14.85 11.85 14.65 11.5 M18.85 33.05 L18.45 32.95 Q17.0 34.7 15.8 36.8 L13.05 36.65 Q9.85 36.35 7.0 37.65 6.6 37.8 6.3 38.1 L6.7 36.75 Q7.5 34.9 9.15 33.5 L9.3 33.05 15.15 32.0 18.85 33.05 M9.25 47.85 Q10.0 46.25 11.15 44.85 11.55 44.15 12.65 44.55 L15.45 45.85 Q16.55 46.4 17.55 47.15 L14.95 49.55 14.8 49.55 13.35 48.7 Q11.7 48.1 9.95 47.85 L9.25 47.85 M18.4 57.1 L18.15 57.3 18.15 57.0 18.15 56.9 18.35 57.05 18.4 57.1 M8.65 49.75 L8.45 49.75 8.5 49.65 8.65 49.75 M-0.65 81.75 L-0.85 81.65 -0.75 81.45 -0.05 78.75 1.1 75.3 Q0.2 74.2 0.85 72.8 1.0 72.35 1.4 72.15 3.65 71.85 3.85 74.05 3.95 74.9 3.25 75.5 L2.9 75.75 4.9 76.15 0.6 80.4 -0.45 81.5 -0.65 81.75 M-3.05 80.7 L-4.7 80.25 Q-4.0 78.6 -4.25 76.9 L-4.65 73.3 -4.7 72.5 -4.7 72.45 -5.3 71.9 -5.7 72.25 -5.8 71.85 Q-6.05 70.9 -5.4 70.25 L-4.2 69.55 Q-2.1 68.95 -1.3 70.75 -0.85 71.8 -1.5 72.8 -1.9 73.45 -2.45 73.75 L-1.2 73.7 -1.25 73.8 -1.65 75.05 Q-2.6 77.65 -3.05 80.35 L-3.05 80.7 M-10.15 81.4 L-11.75 80.7 -13.45 72.75 -12.4 70.15 -12.25 69.75 -11.3 67.4 -9.8 63.65 Q-9.4 62.6 -8.55 61.85 L-5.9 59.85 Q-2.15 57.2 1.25 54.0 L1.8 53.35 Q3.35 53.35 4.9 53.9 L1.55 57.8 2.3 57.35 3.2 56.6 Q5.45 57.05 7.15 58.3 L9.35 60.05 8.75 61.9 8.7 61.95 8.65 62.0 6.3 65.35 6.1 65.5 2.55 64.65 2.35 64.6 1.85 64.5 Q-0.05 63.9 -1.2 62.35 L-1.3 62.25 -1.35 62.35 Q-1.75 61.95 -2.25 62.0 L0.15 59.4 0.85 58.55 -0.25 59.65 -2.7 62.1 -2.7 62.15 -3.1 62.35 -3.5 63.0 -3.8 63.3 -5.3 64.9 Q-5.4 65.6 -6.05 66.25 -7.45 67.65 -9.1 66.95 L-9.6 66.75 Q-9.7 67.75 -8.95 68.65 L-8.1 69.2 -7.1 69.3 Q-8.6 70.75 -9.65 72.65 L-9.95 73.0 Q-11.1 74.0 -10.85 75.4 L-10.7 76.0 Q-10.2 77.65 -10.25 79.5 L-10.2 81.15 -10.15 81.4 M-4.65 64.45 L-4.6 64.25 -3.85 63.7 -4.35 64.1 -4.65 64.45 M-13.75 63.85 L-13.75 63.9 -13.75 63.85" fill="#666666" fill-rule="evenodd" stroke="none"/>
    <path d="M-7.35 11.55 L-7.3 11.55 -7.3 11.6 -7.35 11.55 M12.0 -8.05 L12.55 -7.55 Q14.55 -5.6 16.15 -3.3 L19.1 1.35 21.7 6.35 23.8 11.35 26.15 18.7 26.55 20.0 Q25.85 20.65 24.75 20.9 23.65 21.1 22.45 20.9 20.55 17.9 16.85 18.45 15.35 18.65 14.0 19.25 12.95 19.6 12.1 20.25 L9.75 21.9 8.55 20.9 Q9.4 19.45 11.05 18.65 13.65 17.35 16.5 16.55 L18.95 15.55 Q20.55 13.15 20.65 10.4 20.75 6.85 19.35 3.65 17.45 -0.75 13.95 -4.05 L12.5 -5.25 Q10.6 -6.7 12.0 -8.05 M26.6 36.45 L28.2 35.6 Q29.5 34.8 30.5 33.85 29.75 36.3 28.35 38.55 L26.6 36.45 M6.2 38.9 L7.35 38.7 14.7 38.25 18.3 38.85 Q21.25 39.55 23.8 41.25 L23.8 41.3 23.9 41.2 25.35 38.75 26.05 37.3 Q27.4 38.9 27.9 41.1 L27.95 41.35 Q28.2 43.0 27.5 44.5 26.55 46.45 24.85 47.85 24.7 46.5 24.05 45.5 L22.7 43.75 Q21.15 42.1 19.15 41.05 16.2 39.5 12.85 39.1 L10.65 39.0 Q8.25 39.1 6.5 40.65 L6.4 40.7 6.2 39.4 6.2 38.9 M13.2 52.2 L13.45 52.3 14.55 53.1 14.5 53.15 14.1 52.8 13.2 52.2 M17.25 57.0 L17.3 57.15 17.35 57.2 17.05 57.15 17.25 57.0 M9.35 60.05 L10.35 60.85 10.8 61.35 11.0 62.1 Q11.15 63.05 10.9 64.0 10.0 67.0 8.1 69.5 8.25 71.2 7.15 72.2 L5.55 72.25 5.25 72.25 4.75 72.05 4.7 72.05 4.0 71.75 4.15 70.9 Q3.2 70.8 2.65 70.1 L2.05 70.5 Q-0.2 70.9 -0.75 68.6 L-0.4 67.95 -1.15 67.65 Q-1.95 67.4 -2.3 66.75 -3.8 67.2 -4.85 65.8 L-4.65 64.45 -4.35 64.1 -3.85 63.7 -3.4 63.25 -3.3 63.2 -3.2 63.1 -3.1 62.95 -2.25 62.0 Q-1.75 61.95 -1.35 62.35 L-1.2 62.35 Q-0.05 63.9 1.85 64.5 L2.35 64.6 2.55 64.65 6.1 65.5 6.3 65.35 8.65 62.0 8.7 61.95 8.75 61.9 9.35 60.05 M-2.7 62.15 L-3.05 62.45 -3.5 63.0 -3.1 62.35 -2.7 62.15 M-2.8 64.05 L-3.9 64.9 -3.9 65.7 -2.7 66.0 -1.55 65.4 -2.8 64.05 M0.25 68.9 L1.1 69.5 1.85 69.5 2.7 68.55 2.65 68.3 Q1.8 67.7 0.95 67.3 L0.25 68.9 M7.45 69.9 L5.25 69.55 4.8 71.2 6.85 71.35 7.45 69.9" fill="#333333" fill-rule="evenodd" stroke="none"/>
    <path d="M-2.8 64.05 L-1.55 65.4 -2.7 66.0 -3.9 65.7 -3.9 64.9 -2.8 64.05 M0.25 68.9 L0.95 67.3 Q1.8 67.7 2.65 68.3 L2.7 68.55 1.85 69.5 1.1 69.5 0.25 68.9 M7.45 69.9 L6.85 71.35 4.8 71.2 5.25 69.55 7.45 69.9" fill="#999999" fill-rule="evenodd" stroke="none"/>
    <path d="M-4.0 81.75 L-4.15 81.65 -4.5 81.45 -4.65 81.1 -3.9 81.5 -4.15 81.4 -4.1 81.45 -4.0 81.75 M-7.7 76.45 L-7.6 76.6 -7.8 76.75 -7.7 76.45" fill="#2f2e1c" fill-rule="evenodd" stroke="none"/>
  </g>
</svg>
