<?xml version="1.0" encoding="UTF-8" standalone="no"?>
<svg xmlns:xlink="http://www.w3.org/1999/xlink" height="99.55px" width="46.45px" xmlns="http://www.w3.org/2000/svg">
  <g transform="matrix(1.0, 0.0, 0.0, 1.0, 25.2, 8.75)">
    <path d="M-8.25 -4.1 L-8.35 -3.85 -11.7 0.0 -14.45 5.3 -16.75 10.7 Q-18.75 16.15 -19.7 21.85 L-20.3 25.8 -20.4 26.8 Q-19.05 28.6 -17.05 27.6 L-16.15 27.15 -14.25 26.6 -12.4 26.25 -8.0 25.65 -4.75 25.6 -2.5 26.0 -1.25 26.8 3.25 20.85 3.05 20.6 0.35 8.6 -0.4 6.1 -0.7 5.3 -1.7 5.25 -2.5 5.1 Q-3.7 4.85 -4.75 4.25 L-4.95 4.1 -5.4 3.7 -5.6 3.5 -5.85 3.15 Q-6.65 1.9 -6.9 0.5 L-7.05 0.25 -7.2 -0.45 -7.3 -0.7 Q-7.55 -2.0 -7.35 -3.35 L-7.35 -3.6 -8.2 -4.3 -8.25 -4.1 M-7.55 67.1 Q-7.65 66.75 -7.9 66.5 L-8.25 66.05 -8.75 65.55 -9.55 62.8 Q-11.05 62.55 -12.2 61.55 -13.15 60.85 -13.6 59.75 -14.5 57.45 -14.55 56.25 -16.1 55.5 -16.75 53.75 -18.05 53.35 -19.25 52.35 -22.25 49.8 -22.15 45.75 L-21.0 43.35 -21.8 42.5 -23.1 40.45 Q-25.15 36.2 -25.2 31.6 L-20.45 30.6 -19.9 28.95 -20.65 27.8 -20.95 27.1 Q-22.0 21.1 -20.25 15.15 -18.5 9.25 -16.05 3.7 -13.75 -1.6 -9.6 -5.3 L-8.75 -5.35 -8.6 -5.25 -7.8 -4.9 -7.2 -4.6 -6.2 -4.1 -6.25 -3.95 -6.15 -3.85 -6.35 -3.4 -6.4 -2.7 -6.25 -2.0 -6.2 -1.85 -6.1 -0.3 -5.85 0.95 -5.1 2.5 -4.85 2.85 Q-4.15 3.7 -2.95 3.95 L-1.35 4.2 -1.15 4.25 -1.15 4.15 -0.55 4.25 0.0 4.3 0.55 4.3 1.15 4.3 1.7 5.25 3.65 9.0 3.9 9.75 4.9 16.1 4.85 17.05 4.5 18.15 4.7 20.1 4.75 20.8 2.35 24.8 1.0 26.4 0.75 26.7 Q-1.4 29.6 -4.4 28.7 L-7.6 28.45 Q-9.0 28.6 -9.3 27.8 L-9.05 27.4 -9.15 27.4 -9.85 27.45 -11.2 27.65 -11.35 27.65 -17.2 28.75 -19.1 29.2 -19.45 30.9 -11.6 31.45 -11.55 31.45 -10.35 31.6 Q-7.5 31.95 -4.8 32.9 L-4.55 33.0 -3.8 33.25 -2.8 33.6 -0.1 34.35 -0.05 33.4 -0.9 32.2 -1.15 31.8 -0.75 31.25 1.15 29.0 1.85 28.05 Q3.05 26.3 4.4 24.7 5.85 23.0 7.9 22.35 L6.65 24.15 6.35 24.45 Q5.75 24.95 5.8 25.6 4.05 27.15 2.55 29.2 L1.6 30.4 1.45 31.1 0.25 32.1 0.75 32.6 0.7 34.35 2.45 35.4 Q4.7 36.9 5.2 39.65 L5.3 39.5 5.1 42.05 4.9 43.5 4.8 43.7 4.1 44.95 4.25 45.85 4.3 46.05 4.45 46.8 Q4.9 49.0 5.85 51.05 L7.15 53.55 7.45 54.05 8.55 56.0 8.75 56.4 9.75 58.3 10.05 58.9 10.3 59.5 10.15 59.75 10.1 59.75 10.1 59.8 11.9 62.45 16.1 67.9 16.5 68.4 17.45 69.6 17.55 69.75 18.25 70.9 18.55 71.6 Q19.45 74.25 19.8 77.15 L19.9 76.95 20.3 80.05 20.4 80.4 20.35 80.4 20.7 81.95 20.35 82.2 21.15 83.85 21.05 84.75 21.05 85.25 20.8 85.55 17.2 86.9 14.75 87.45 14.6 87.5 12.3 86.6 11.3 90.2 9.1 90.8 4.4 89.1 4.35 88.3 4.2 86.8 4.05 86.1 3.4 83.95 Q2.3 85.9 0.7 87.5 L0.35 87.8 0.15 88.0 -1.75 87.35 Q-2.55 87.15 -3.1 86.6 -3.95 85.75 -4.25 84.65 L-4.4 83.2 -4.25 79.8 -4.2 79.05 -3.95 76.35 -6.05 72.35 -6.15 72.1 -6.3 71.3 -6.35 71.1 Q-6.3 70.7 -6.5 70.25 L-6.7 69.8 -7.05 68.85 -7.35 67.95 -7.5 67.0 -7.55 67.1 M-19.3 50.6 L-16.55 52.3 -15.7 50.3 -15.6 50.2 -14.85 49.05 Q-12.7 46.15 -9.95 44.45 -6.4 42.35 -2.35 41.85 0.85 41.55 3.55 43.0 L3.6 42.9 3.8 42.35 4.05 41.05 4.0 39.9 Q3.85 38.9 3.35 37.9 1.4 36.05 -1.1 35.55 L-4.45 35.6 -7.1 35.65 -9.15 36.05 Q-11.75 36.7 -14.05 38.0 -17.2 39.8 -19.55 42.95 -20.65 44.4 -21.2 46.45 L-21.3 47.3 -21.35 47.6 -20.4 49.3 -19.3 50.6 M-10.05 35.3 L-5.4 34.05 -8.9 32.95 -10.1 32.5 Q-12.5 31.75 -15.15 31.8 L-16.7 31.85 -21.45 32.05 -24.2 32.15 -24.65 32.15 -24.45 32.8 -23.45 35.55 -23.1 36.4 -23.05 36.45 Q-21.85 39.2 -20.15 41.75 L-17.0 38.75 Q-15.7 37.7 -14.2 36.9 -12.65 36.1 -11.0 35.55 L-10.05 35.3 M-4.05 47.25 L-3.9 47.25 Q-1.75 47.1 -0.7 49.05 L-0.45 49.5 0.15 50.75 Q0.75 51.85 0.95 53.05 1.15 53.9 0.75 54.6 L0.2 55.25 0.1 55.05 0.05 55.2 0.0 55.3 Q-2.45 55.9 -4.65 57.1 L-5.0 57.3 -6.1 58.05 -6.25 58.15 -6.35 58.25 Q-8.15 59.65 -8.9 61.8 L-9.0 62.05 -7.55 65.3 -6.95 65.65 Q-5.85 64.2 -4.4 63.25 L-1.25 61.35 Q0.9 60.25 3.15 59.65 5.75 58.9 8.5 58.75 6.55 56.0 5.05 53.0 L4.3 51.05 2.55 44.1 Q0.0 42.65 -3.0 43.45 L-5.2 44.1 -8.45 45.5 Q-10.0 46.35 -11.35 47.55 -12.75 48.75 -13.85 50.25 -14.95 51.7 -15.85 53.3 L-14.35 55.65 -14.05 54.8 -10.95 50.2 -9.4 49.05 -8.05 48.25 Q-6.15 47.35 -4.05 47.25 M-3.4 48.95 L-3.8 48.85 -4.85 49.05 -5.5 49.1 -6.0 49.15 Q-9.45 49.55 -11.7 52.1 L-13.7 56.25 -13.75 56.6 -13.8 57.25 Q-13.4 58.5 -12.65 59.4 L-12.45 59.65 -12.45 59.7 Q-11.4 60.8 -9.75 61.4 L-9.75 61.35 Q-9.3 59.2 -7.55 57.6 L-4.85 55.45 Q-2.65 53.85 -0.15 54.25 L0.25 52.9 -0.65 50.9 -1.25 49.65 -1.85 48.85 -3.4 48.95 M1.3 51.1 L1.45 51.7 1.35 51.25 1.3 51.25 1.35 51.25 1.3 51.1 M-2.35 85.5 L-2.35 85.55 -2.05 86.4 -2.0 86.55 -1.55 86.8 -0.6 86.65 0.1 87.05 2.55 83.05 2.6 82.3 2.7 82.3 Q3.4 82.25 3.95 82.75 5.0 83.8 5.25 85.3 5.5 86.6 5.4 88.0 L5.3 88.5 5.7 89.0 6.9 88.95 10.55 88.8 11.3 81.65 11.65 81.2 11.95 81.15 12.35 81.4 12.85 82.35 14.6 84.2 12.8 83.6 12.5 85.7 15.5 86.2 15.9 85.85 16.35 86.0 17.75 85.3 20.45 83.9 Q19.05 81.55 18.55 79.05 18.25 77.7 18.25 76.35 L18.2 75.4 18.2 75.3 Q17.9 72.8 16.45 70.8 14.6 68.1 12.25 65.75 L9.65 60.8 3.2 61.0 Q-0.6 61.9 -3.55 64.3 L-4.1 64.75 -6.45 66.65 Q-6.1 69.9 -4.9 72.9 -4.3 74.5 -2.95 75.55 L-2.95 81.4 Q-2.95 83.6 -2.35 85.5" fill="#000000" fill-rule="evenodd" stroke="none"/>
    <path d="M-19.7 21.85 Q-18.75 16.15 -16.75 10.7 L-14.45 5.3 -11.7 0.0 -8.35 -3.85 -8.25 -4.1 -7.35 -3.35 Q-7.55 -2.0 -7.3 -0.7 L-7.2 -0.45 -7.05 0.25 -6.9 0.5 Q-6.65 1.9 -5.85 3.15 L-5.6 3.5 -5.4 3.7 -4.95 4.1 -4.75 4.25 Q-4.6 6.95 -4.9 9.65 L-5.0 10.55 -6.05 10.45 -6.1 10.5 Q-6.55 10.65 -6.7 11.2 L-6.7 12.25 -6.85 12.3 -7.25 12.15 -7.8 12.3 Q-8.25 11.45 -9.65 11.4 L-10.4 11.95 -10.45 12.0 -11.15 11.45 -11.4 11.5 -12.2 12.0 Q-12.8 13.15 -11.4 13.05 L-11.05 13.0 -11.0 13.7 -10.7 14.35 -11.4 14.3 -11.4 14.35 -11.65 14.45 -11.8 14.5 Q-12.45 15.05 -12.45 15.85 L-12.55 16.05 -12.6 16.45 -12.95 16.75 -13.9 16.55 Q-14.5 16.8 -14.65 17.5 -14.85 19.1 -13.15 18.9 L-13.0 18.9 Q-12.8 19.35 -12.3 19.55 L-12.3 19.6 -12.35 19.6 Q-12.8 19.3 -13.7 19.3 -14.6 19.65 -14.55 20.7 L-14.5 20.9 -15.4 20.75 -16.0 21.4 Q-16.2 21.0 -16.9 20.75 -17.65 20.8 -18.05 21.5 -18.35 22.05 -18.15 22.5 L-19.7 21.85 M-7.55 67.1 L-7.5 67.0 -7.35 67.95 -7.45 67.6 -7.55 67.1 M9.35 8.7 L9.7 9.25 10.0 9.75 10.4 10.55 10.85 11.55 10.1 10.1 9.7 9.25 9.45 8.9 9.35 8.7 M-9.05 15.05 L-9.35 15.4 -9.45 15.1 -9.05 15.05 M-7.55 14.3 L-7.3 14.8 -7.7 14.7 -8.1 14.65 -7.8 14.2 -7.55 14.3 M-5.95 8.65 L-6.55 8.6 Q-7.6 8.85 -7.55 9.65 L-8.1 9.4 -8.45 9.45 -8.6 9.45 -8.95 10.1 Q-9.2 11.75 -7.5 11.55 L-7.15 11.2 -7.0 10.55 -6.75 10.5 Q-4.85 10.0 -5.95 8.65 M-6.4 39.5 L-6.15 40.05 -6.8 40.1 Q-12.85 42.0 -17.15 46.9 -18.6 48.55 -19.3 50.6 L-20.4 49.3 -21.35 47.6 -21.3 47.3 -21.2 46.45 Q-20.65 44.4 -19.55 42.95 -17.2 39.8 -14.05 38.0 -11.75 36.7 -9.15 36.05 L-8.5 36.85 Q-7.2 38.0 -6.4 39.5 M-23.05 36.45 L-23.1 36.4 -23.45 35.55 -24.45 32.8 -24.2 32.15 -21.45 32.05 -16.7 31.85 Q-15.85 33.1 -15.85 35.15 -15.85 36.6 -17.15 37.35 -20.4 39.15 -22.85 36.65 L-23.05 36.45 M-12.65 59.4 Q-13.4 58.5 -13.8 57.25 L-13.75 56.6 -13.7 56.25 -11.7 52.1 Q-9.45 49.55 -6.0 49.15 -6.4 50.5 -4.6 52.1 -6.9 53.15 -9.0 54.6 -10.5 55.65 -11.5 57.1 L-12.65 59.4 M-16.2 22.7 L-16.05 22.5 -15.95 22.7 -16.2 22.7 M-16.25 20.15 L-15.7 19.7 Q-14.9 18.25 -16.8 18.35 L-16.9 18.4 Q-17.25 18.7 -17.4 19.15 -17.75 20.55 -16.25 20.15 M-12.95 13.9 L-13.15 13.95 -13.45 14.2 Q-13.6 15.15 -12.6 14.9 L-12.45 14.7 -12.4 14.4 -12.4 14.3 Q-12.55 13.95 -12.95 13.9 M-9.85 9.5 L-10.0 9.4 -10.3 9.35 Q-10.95 9.45 -11.45 10.0 L-11.5 10.3 -11.45 10.65 Q-10.6 11.2 -9.75 10.35 L-9.7 10.05 -9.85 9.5 M2.15 76.35 L2.4 77.25 Q2.45 77.75 2.1 78.2 1.3 79.15 0.1 78.75 L-0.05 79.0 -0.3 79.8 -0.4 80.1 -1.95 84.35 -2.35 85.5 Q-2.95 83.6 -2.95 81.4 L-2.95 75.55 Q-4.3 74.5 -4.9 72.9 -6.1 69.9 -6.45 66.65 L-4.1 64.75 Q-4.15 66.4 -3.45 68.0 -2.1 71.0 -0.35 73.9 L0.55 75.55 Q1.2 75.55 1.65 75.85 L1.65 76.0 2.0 76.2 2.1 76.25 2.15 76.35 M2.7 82.3 L3.1 82.3 3.3 82.2 Q4.35 81.4 4.85 80.1 L5.1 79.3 5.75 79.4 Q6.15 78.5 7.35 78.4 9.15 78.2 9.4 79.75 L9.25 80.45 Q8.15 82.1 6.35 81.5 L6.25 80.75 6.9 88.8 6.9 88.95 5.7 89.0 5.3 88.5 5.4 88.0 Q5.5 86.6 5.25 85.3 5.0 83.8 3.95 82.75 3.4 82.25 2.7 82.3 M11.3 81.65 L11.35 81.6 11.5 79.9 11.5 79.2 13.95 78.4 14.0 78.55 15.6 82.4 Q16.4 84.5 17.75 85.3 L16.35 86.0 15.9 85.85 15.5 86.2 12.5 85.7 12.8 83.6 14.6 84.2 12.85 82.35 12.35 81.4 11.95 81.15 11.65 81.2 11.3 81.65 M18.2 75.4 L18.1 75.35 17.9 75.55 18.2 75.3 18.2 75.4 M2.6 72.5 L1.3 66.5 6.15 65.05 6.25 65.2 7.35 66.75 10.3 70.9 6.55 72.1 2.85 72.7 2.8 72.65 2.6 72.65 2.6 72.5 M15.4 75.75 Q16.9 75.75 16.85 77.15 16.8 78.1 15.95 78.6 14.45 79.45 13.8 77.95 L13.75 77.5 Q13.85 76.8 14.2 76.4 L14.7 76.3 15.05 75.85 15.4 75.75" fill="#666666" fill-rule="evenodd" stroke="none"/>
    <path d="M-11.6 31.45 L-19.45 30.9 -19.1 29.2 -17.2 28.75 -11.35 27.65 -11.2 27.65 -9.85 27.45 -9.4 27.45 -9.15 27.4 -9.05 27.4 -9.3 27.8 -9.75 28.3 -10.2 28.85 Q-10.7 30.4 -11.6 31.45 M-5.85 0.95 L-6.1 -0.3 -6.2 -1.85 -6.25 -2.0 -6.4 -2.7 -6.35 -3.4 -6.15 -3.85 -6.25 -3.95 -6.15 -4.1 -6.2 -4.1 -7.2 -4.6 Q-6.7 -5.75 -5.65 -6.6 -3.95 -8.0 -1.9 -8.5 L-1.45 -8.5 -0.75 -8.75 0.65 -8.75 -2.75 -5.85 Q-5.1 -3.25 -5.35 0.2 L-5.7 0.9 -5.85 0.95 M4.1 -0.95 Q4.45 -1.6 5.05 -1.85 7.2 -1.95 8.4 0.0 L9.1 1.25 Q10.4 3.9 9.05 6.45 9.05 7.55 8.0 7.8 5.95 8.35 4.85 6.6 3.45 4.3 3.45 1.6 3.5 0.25 4.1 -0.95 M8.0 8.9 L8.0 8.85 8.05 8.95 8.0 8.9 M0.2 55.25 L2.65 59.0 3.15 59.65 Q0.9 60.25 -1.25 61.35 L-4.4 63.25 Q-5.85 64.2 -6.95 65.65 L-7.55 65.3 -9.0 62.05 -8.9 61.8 Q-8.15 59.65 -6.35 58.25 L-6.25 58.15 -6.1 58.05 -5.0 57.3 -4.65 57.1 Q-2.45 55.9 0.0 55.3 L0.05 55.2 0.2 55.25 M-5.2 44.1 L-4.05 47.25 Q-6.15 47.35 -8.05 48.25 L-9.4 49.05 -10.95 50.2 -14.05 54.8 -14.35 55.65 -15.85 53.3 Q-14.95 51.7 -13.85 50.25 -12.75 48.75 -11.35 47.55 -10.0 46.35 -8.45 45.5 L-5.2 44.1" fill="#5a361f" fill-rule="evenodd" stroke="none"/>
    <path d="M7.9 22.35 Q5.85 23.0 4.4 24.7 3.05 26.3 1.85 28.05 L1.15 29.0 -0.75 31.25 -1.15 31.8 -0.9 32.2 -0.65 32.55 -0.9 32.85 -1.85 33.85 -2.8 33.6 -3.8 33.25 -4.55 33.0 -4.8 32.9 Q-7.5 31.95 -10.35 31.6 L-11.55 31.45 -11.6 31.45 Q-10.7 30.4 -10.2 28.85 L-9.75 28.3 -9.3 27.8 Q-9.0 28.6 -7.6 28.45 L-4.4 28.7 Q-1.4 29.6 0.75 26.7 L1.0 26.4 2.35 24.8 4.75 20.8 4.7 20.1 4.5 18.15 4.85 17.05 4.9 16.1 3.9 9.75 3.65 9.0 1.7 5.25 1.15 4.3 0.55 4.3 0.0 4.3 -0.55 4.25 -1.15 4.15 -1.15 4.25 -1.35 4.2 -2.95 3.95 Q-4.15 3.7 -4.85 2.85 L-5.1 2.5 -5.85 0.95 -5.7 0.9 -5.35 0.2 Q-5.1 -3.25 -2.75 -5.85 L0.65 -8.75 Q4.4 -8.55 7.7 -6.65 10.0 -5.3 11.7 -3.3 13.25 -1.45 13.65 0.85 14.1 3.5 13.95 6.25 L13.65 7.9 12.45 11.3 11.65 13.75 11.8 14.65 11.6 15.1 11.0 16.65 10.95 16.85 9.45 19.8 7.9 22.35 M-9.85 27.45 L-9.15 27.4 -9.4 27.45 -9.85 27.45 M4.1 -0.95 Q3.5 0.25 3.45 1.6 3.45 4.3 4.85 6.6 5.95 8.35 8.0 7.8 9.05 7.55 9.05 6.45 10.4 3.9 9.1 1.25 L8.4 0.0 Q7.2 -1.95 5.05 -1.85 4.45 -1.6 4.1 -0.95 M9.35 8.7 L9.45 8.9 9.7 9.25 10.1 10.1 10.85 11.55 10.4 10.55 10.0 9.75 9.7 9.25 9.35 8.7 M8.0 8.9 L8.05 8.95 8.0 8.85 8.0 8.9 M0.2 55.25 L0.75 54.6 Q1.15 53.9 0.95 53.05 0.75 51.85 0.15 50.75 L-0.45 49.5 -0.7 49.05 Q-1.75 47.1 -3.9 47.25 L-4.05 47.25 -5.2 44.1 -3.0 43.45 Q0.0 42.65 2.55 44.1 L4.3 51.05 5.05 53.0 Q6.55 56.0 8.5 58.75 5.75 58.9 3.15 59.65 L2.65 59.0 0.2 55.25 M1.3 51.1 L1.35 51.25 1.3 51.25 1.35 51.25 1.45 51.7 1.3 51.1" fill="#330000" fill-rule="evenodd" stroke="none"/>
    <path d="M-6.25 -3.95 L-6.2 -4.1 -6.15 -4.1 -6.25 -3.95 M-0.4 6.1 L0.35 8.6 3.05 20.6 3.25 20.85 -1.25 26.8 -2.5 26.0 -4.75 25.6 -8.0 25.65 -12.4 26.25 -14.25 26.6 -16.15 27.15 -17.05 27.6 Q-19.05 28.6 -20.4 26.8 L-20.3 25.8 -19.75 25.5 Q-15.1 23.5 -9.7 23.95 -5.35 24.25 -2.1 21.75 -1.2 21.1 -0.75 20.05 1.15 15.5 0.5 10.6 L-0.35 6.55 -0.55 5.75 -0.4 6.1 M-4.45 35.6 L-1.1 35.55 Q1.4 36.05 3.35 37.9 3.85 38.9 4.0 39.9 L4.05 41.05 3.8 42.35 3.6 42.9 3.55 43.0 Q0.85 41.55 -2.35 41.85 -6.4 42.35 -9.95 44.45 -12.7 46.15 -14.85 49.05 L-15.6 50.2 -15.7 50.3 -16.55 52.3 -19.3 50.6 Q-18.6 48.55 -17.15 46.9 -12.85 42.0 -6.8 40.1 L-6.15 40.05 -6.4 39.5 -5.4 39.15 -1.25 38.55 -4.45 35.6 M-10.1 32.5 L-8.9 32.95 -5.4 34.05 -10.05 35.3 Q-10.75 34.75 -10.65 33.65 -10.6 32.95 -10.1 32.5 M-4.85 49.05 L-3.8 48.85 -3.4 48.95 -4.85 49.05 M6.15 65.05 L6.3 64.9 6.4 64.85 6.55 64.8 6.55 64.75 Q8.9 65.05 10.8 66.6 12.05 67.65 12.8 69.05 L13.6 70.45 Q14.5 71.8 14.65 73.35 14.7 74.15 14.1 74.75 13.2 75.8 11.85 76.25 L10.65 76.6 8.65 77.05 8.45 77.15 5.1 77.05 4.95 77.0 5.05 76.95 4.45 77.3 3.95 77.3 3.05 77.0 2.65 76.6 Q2.35 76.55 2.15 76.35 L2.1 76.25 2.0 76.2 1.85 75.9 Q1.65 75.4 1.8 74.9 1.5 74.6 1.55 74.15 L1.65 73.75 1.7 73.1 Q1.8 72.7 2.15 72.6 L2.6 72.5 2.6 72.65 2.8 72.65 2.85 72.7 6.55 72.1 10.3 70.9 7.35 66.75 6.25 65.2 6.15 65.05 M13.05 73.25 L12.05 73.95 12.55 75.05 14.0 74.75 13.35 72.35 13.05 73.25 M2.65 73.8 L2.5 75.55 4.25 75.9 4.75 74.3 2.65 73.45 2.65 73.8 M7.6 74.65 L7.85 76.15 9.2 75.8 9.1 74.75 7.6 74.65" fill="#333333" fill-rule="evenodd" stroke="none"/>
    <path d="M-19.7 21.85 L-18.15 22.5 Q-18.35 22.05 -18.05 21.5 -17.65 20.8 -16.9 20.75 -16.2 21.0 -16.0 21.4 L-15.4 20.75 -14.5 20.9 -14.55 20.7 Q-14.6 19.65 -13.7 19.3 -12.8 19.3 -12.35 19.6 L-12.3 19.6 -12.3 19.55 Q-12.8 19.35 -13.0 18.9 L-13.15 18.9 Q-14.85 19.1 -14.65 17.5 -14.5 16.8 -13.9 16.55 L-12.95 16.75 -12.6 16.45 -12.55 16.05 -12.45 15.85 Q-12.45 15.05 -11.8 14.5 L-11.65 14.45 -11.4 14.35 -11.4 14.3 -10.7 14.35 -11.0 13.7 -11.05 13.0 -11.4 13.05 Q-12.8 13.15 -12.2 12.0 L-11.4 11.5 -11.15 11.45 -10.45 12.0 -10.4 11.95 -9.65 11.4 Q-8.25 11.45 -7.8 12.3 L-7.25 12.15 -6.85 12.3 -6.7 12.25 -6.7 11.2 Q-6.55 10.65 -6.1 10.5 L-6.05 10.45 -5.0 10.55 -4.9 9.65 Q-4.6 6.95 -4.75 4.25 -3.7 4.85 -2.5 5.1 L-1.7 5.25 -0.7 5.3 -0.4 6.1 -0.55 5.75 -0.35 6.55 0.5 10.6 Q1.15 15.5 -0.75 20.05 -1.2 21.1 -2.1 21.75 -5.35 24.25 -9.7 23.95 -15.1 23.5 -19.75 25.5 L-20.3 25.8 -19.7 21.85 M-7.35 -3.35 L-8.25 -4.1 -8.2 -4.3 -7.35 -3.6 -7.35 -3.35 M-5.95 8.65 Q-4.85 10.0 -6.75 10.5 L-7.0 10.55 -7.15 11.2 -7.5 11.55 Q-9.2 11.75 -8.95 10.1 L-8.6 9.45 -8.45 9.45 -8.1 9.4 -7.55 9.65 Q-7.6 8.85 -6.55 8.6 L-5.95 8.65 M-7.55 14.3 L-7.8 14.2 -8.1 14.65 -7.7 14.7 -7.3 14.8 -7.55 14.3 M-9.05 15.05 L-9.45 15.1 -9.35 15.4 -9.05 15.05 M-4.45 35.6 L-1.25 38.55 -5.4 39.15 -6.4 39.5 Q-7.2 38.0 -8.5 36.85 L-9.15 36.05 -7.1 35.65 -4.45 35.6 M-10.1 32.5 Q-10.6 32.95 -10.65 33.65 -10.75 34.75 -10.05 35.3 L-11.0 35.55 Q-12.65 36.1 -14.2 36.9 -15.7 37.7 -17.0 38.75 L-20.15 41.75 Q-21.85 39.2 -23.05 36.45 L-22.85 36.65 Q-20.4 39.15 -17.15 37.35 -15.85 36.6 -15.85 35.15 -15.85 33.1 -16.7 31.85 L-15.15 31.8 Q-12.5 31.75 -10.1 32.5 M-24.45 32.8 L-24.65 32.15 -24.2 32.15 -24.45 32.8 M-4.85 49.05 L-3.4 48.95 -1.85 48.85 -1.25 49.65 -0.65 50.9 0.25 52.9 -0.15 54.25 Q-2.65 53.85 -4.85 55.45 L-7.55 57.6 Q-9.3 59.2 -9.75 61.35 L-9.75 61.4 Q-11.4 60.8 -12.45 59.7 L-12.45 59.65 -12.65 59.4 -11.5 57.1 Q-10.5 55.65 -9.0 54.6 -6.9 53.15 -4.6 52.1 -6.4 50.5 -6.0 49.15 L-5.5 49.1 -4.85 49.05 M0.05 55.2 L0.1 55.05 0.2 55.25 0.05 55.2 M-9.85 9.5 L-9.7 10.05 -9.75 10.35 Q-10.6 11.2 -11.45 10.65 L-11.5 10.3 -11.45 10.0 Q-10.95 9.45 -10.3 9.35 L-10.0 9.4 -9.85 9.5 M-12.95 13.9 Q-12.55 13.95 -12.4 14.3 L-12.4 14.4 -12.45 14.7 -12.6 14.9 Q-13.6 15.15 -13.45 14.2 L-13.15 13.95 -12.95 13.9 M-16.25 20.15 Q-17.75 20.55 -17.4 19.15 -17.25 18.7 -16.9 18.4 L-16.8 18.35 Q-14.9 18.25 -15.7 19.7 L-16.25 20.15 M-16.2 22.7 L-15.95 22.7 -16.05 22.5 -16.2 22.7 M2.15 76.35 Q2.35 76.55 2.65 76.6 L3.05 77.0 3.95 77.3 4.45 77.3 5.05 76.95 4.95 77.0 5.1 77.05 8.45 77.15 8.65 77.05 10.65 76.6 11.85 76.25 Q13.2 75.8 14.1 74.75 14.7 74.15 14.65 73.35 14.5 71.8 13.6 70.45 L12.8 69.05 Q12.05 67.65 10.8 66.6 8.9 65.05 6.55 64.75 L6.55 64.8 6.4 64.85 6.3 64.9 6.15 65.05 1.3 66.5 2.6 72.5 2.15 72.6 Q1.8 72.7 1.7 73.1 L1.65 73.75 1.55 74.15 Q1.5 74.6 1.8 74.9 1.65 75.4 1.85 75.9 L2.0 76.2 1.65 76.0 1.65 75.85 Q1.2 75.55 0.55 75.55 L-0.35 73.9 Q-2.1 71.0 -3.45 68.0 -4.15 66.4 -4.1 64.75 L-3.55 64.3 Q-0.6 61.9 3.2 61.0 L9.65 60.8 12.25 65.75 Q14.6 68.1 16.45 70.8 17.9 72.8 18.2 75.3 L17.9 75.55 18.1 75.35 18.2 75.4 18.25 76.35 Q18.25 77.7 18.55 79.05 19.05 81.55 20.45 83.9 L17.75 85.3 Q16.4 84.5 15.6 82.4 L14.0 78.55 13.95 78.4 11.5 79.2 11.5 79.9 11.35 81.6 11.3 81.65 10.55 88.8 6.9 88.95 6.9 88.8 6.25 80.75 6.35 81.5 Q8.15 82.1 9.25 80.45 L9.4 79.75 Q9.15 78.2 7.35 78.4 6.15 78.5 5.75 79.4 L5.1 79.3 4.85 80.1 Q4.35 81.4 3.3 82.2 L3.1 82.3 2.7 82.3 2.6 82.3 2.55 83.05 0.1 87.05 -0.6 86.65 -1.55 86.8 -2.0 86.55 -2.05 86.4 -2.35 85.55 -2.35 85.5 -1.95 84.35 -0.4 80.1 -0.3 79.8 -0.05 79.0 0.1 78.75 Q1.3 79.15 2.1 78.2 2.45 77.75 2.4 77.25 L2.15 76.35 M15.4 75.75 L15.05 75.85 14.7 76.3 14.2 76.4 Q13.85 76.8 13.75 77.5 L13.8 77.95 Q14.45 79.45 15.95 78.6 16.8 78.1 16.85 77.15 16.9 75.75 15.4 75.75" fill="#404040" fill-rule="evenodd" stroke="none"/>
    <path d="M-0.9 32.2 L-0.05 33.4 -0.1 34.35 -2.8 33.6 -1.85 33.85 -0.9 32.85 -0.65 32.55 -0.9 32.2" fill="#43432e" fill-rule="evenodd" stroke="none"/>
    <path d="M13.05 73.25 L13.35 72.35 14.0 74.75 12.55 75.05 12.05 73.95 13.05 73.25 M2.65 73.8 L2.65 73.45 4.75 74.3 4.25 75.9 2.5 75.55 2.65 73.8 M7.6 74.65 L9.1 74.75 9.2 75.8 7.85 76.15 7.6 74.65" fill="#999999" fill-rule="evenodd" stroke="none"/>
    <path d="M17.2 86.9 L20.8 85.55 21.05 85.25 21.0 85.5 20.3 86.85 Q20.1 86.45 19.45 86.5 L19.2 86.55 18.35 86.7 17.2 86.9 M21.15 83.85 L20.35 82.2 20.7 81.95 20.35 80.4 20.4 80.4 Q20.65 81.85 21.25 83.2 L21.25 83.25 21.15 83.85" fill="#2f2e1c" fill-rule="evenodd" stroke="none"/>
  </g>
</svg>
