<?xml version="1.0" encoding="UTF-8" standalone="no"?>
<svg xmlns:xlink="http://www.w3.org/1999/xlink" height="132.2px" width="96.1px" xmlns="http://www.w3.org/2000/svg">
  <g transform="matrix(1.0, 0.0, 0.0, 1.0, 53.05, 66.1)">
    <path d="M-44.85 -13.3 L-44.65 -14.0 -44.6 -14.8 -44.4 -15.85 -44.1 -17.55 Q-42.4 -24.9 -37.0 -30.4 -30.55 -36.9 -21.65 -39.0 L-21.15 -43.75 Q-25.15 -45.8 -29.65 -46.4 L-35.3 -47.25 Q-39.1 -47.85 -38.5 -46.1 L-38.8 -45.35 Q-39.3 -44.05 -40.5 -43.35 -43.9 -41.15 -46.95 -43.75 -48.35 -44.95 -48.75 -46.6 -49.65 -46.45 -50.4 -47.05 L-50.65 -47.3 Q-52.05 -47.9 -52.8 -49.4 L-52.95 -49.9 Q-53.4 -52.0 -51.65 -53.65 -47.0 -58.2 -40.85 -56.45 L-40.15 -55.5 -39.9 -54.25 Q-36.65 -56.05 -33.05 -57.05 -23.85 -59.6 -14.2 -59.4 L-15.45 -62.0 Q-14.95 -63.2 -14.2 -63.7 -11.25 -65.35 -7.85 -66.0 -3.55 -66.5 0.3 -64.9 L0.3 -64.65 Q0.6 -62.45 0.2 -60.4 L15.95 -60.95 21.75 -59.75 Q25.1 -58.9 27.1 -59.15 L27.65 -61.5 Q27.95 -63.7 30.3 -64.15 33.6 -64.85 37.05 -63.75 38.6 -63.3 39.7 -61.9 40.8 -60.55 41.35 -58.85 L40.9 -57.2 Q40.6 -55.85 39.6 -55.25 L39.55 -55.2 39.1 -54.85 37.8 -54.4 37.65 -54.4 Q37.7 -52.75 37.0 -51.6 36.4 -50.7 35.45 -50.4 33.85 -49.75 32.05 -50.35 30.5 -50.95 29.45 -52.35 25.05 -52.25 20.9 -51.2 18.65 -50.6 16.45 -49.8 12.75 -48.4 10.45 -45.95 L12.0 -43.05 12.25 -43.15 16.3 -42.95 Q25.3 -40.8 32.5 -34.75 38.4 -29.65 41.85 -22.75 L42.05 -22.35 42.2 -22.1 42.3 -22.15 42.75 -20.75 42.8 -20.65 42.7 -20.6 42.85 -20.15 Q43.2 -18.5 42.95 -16.75 L42.6 -15.3 42.55 -15.0 Q42.15 -12.75 40.55 -11.2 L39.9 -10.6 Q39.0 -9.8 37.9 -9.45 L37.1 -9.55 36.9 -9.45 36.75 -9.35 36.7 -9.3 36.3 -9.3 Q35.85 -7.65 35.8 -5.9 L35.35 -3.35 35.05 -1.35 Q34.65 -3.75 34.7 -6.15 L31.6 -4.85 29.95 -4.2 29.65 -4.15 28.85 -5.3 27.75 -3.7 27.3 -2.75 27.15 -2.45 26.25 -0.25 25.2 1.95 24.6 2.95 24.1 3.7 23.05 5.0 22.95 5.0 20.15 4.8 Q18.3 4.5 16.65 3.7 15.55 3.2 14.5 2.45 L14.5 2.35 14.5 2.1 14.7 1.35 15.05 0.15 15.1 -0.15 15.85 -3.45 16.05 -4.6 16.05 -4.7 16.15 -6.65 16.15 -6.95 16.15 -7.2 16.0 -8.95 15.95 -9.25 Q15.2 -9.05 14.6 -8.65 L14.25 -9.65 Q13.3 -13.2 10.2 -15.1 10.0 -15.1 9.8 -15.25 L9.7 -13.25 10.4 -12.05 10.8 -10.35 10.6 -8.4 10.4 -7.2 Q10.35 -6.6 9.8 -6.2 L10.1 -4.85 Q10.35 -0.95 7.1 1.3 L4.5 2.75 4.65 1.65 4.25 1.45 3.75 -1.0 3.45 0.35 3.0 1.3 Q2.65 2.0 1.8 1.95 0.8 2.15 -0.1 1.95 L-1.15 0.2 -1.85 3.45 -2.95 3.95 Q-4.65 3.75 -6.05 2.6 L-6.85 1.8 Q-9.25 -0.95 -8.15 -4.45 L-9.2 -5.35 Q-10.85 -7.0 -11.75 -9.15 L-12.2 -10.5 -14.15 -7.7 -15.5 -5.15 -16.15 -5.05 -16.15 -5.2 -16.15 -5.0 -16.1 -4.65 -16.05 -4.6 -16.05 -4.55 -15.95 -4.0 -15.8 -3.1 -14.8 0.85 -14.1 3.0 -13.95 3.45 -13.9 3.65 -13.8 3.95 -13.6 4.5 -13.5 4.75 -13.75 5.95 -14.05 6.15 -15.65 6.9 -16.55 7.2 -19.7 8.15 -21.1 8.0 -21.9 7.85 -22.7 7.7 -22.75 7.7 -22.95 7.65 -24.0 7.25 -24.25 7.05 Q-25.5 6.15 -26.2 4.85 L-26.95 3.45 -27.05 3.3 -27.7 2.1 -27.75 2.0 -28.0 1.55 -29.0 -0.15 -29.3 -0.65 -29.35 -0.65 -29.4 -0.7 -29.45 -0.8 -30.8 -2.4 Q-32.05 -3.7 -33.65 -4.2 L-33.45 -2.9 Q-32.4 2.15 -32.6 7.4 -32.65 8.05 -32.95 8.5 L-32.75 10.4 -33.1 9.9 -34.0 8.65 -35.9 3.5 -35.95 3.35 -35.95 3.25 -36.55 1.1 -36.7 0.6 -36.75 0.4 -36.75 0.25 -36.95 -0.9 -37.0 -1.6 Q-37.0 -3.15 -37.9 -3.75 L-38.15 -4.35 -39.15 -4.4 -39.95 -4.55 Q-41.15 -4.8 -42.2 -5.4 L-42.4 -5.55 -42.85 -5.95 -43.05 -6.15 -43.3 -6.5 Q-44.1 -7.75 -44.35 -9.15 L-44.5 -9.4 -44.65 -10.1 -44.75 -10.35 Q-45.0 -11.65 -44.8 -13.0 L-44.8 -13.25 -44.85 -13.3 M27.8 -57.55 L20.6 -59.05 13.6 -59.95 9.5 -60.05 5.45 -59.7 4.95 -59.65 4.9 -59.65 1.55 -59.25 0.55 -59.4 -1.25 -59.2 -0.7 -63.95 -2.85 -64.5 -3.5 -64.6 -3.65 -64.6 -3.8 -64.55 -7.0 -64.55 -10.45 -63.75 -11.15 -63.6 -10.9 -63.65 -11.15 -63.65 -11.45 -63.65 -12.0 -63.4 -12.25 -63.2 -14.25 -62.1 -14.7 -61.75 Q-13.1 -60.25 -12.3 -58.3 L-12.85 -58.2 -13.6 -58.05 -13.45 -58.05 -18.3 -57.8 -24.8 -57.5 Q-29.05 -56.9 -33.3 -55.55 L-37.4 -54.0 -39.05 -53.2 -40.9 -52.3 -40.95 -52.85 -41.15 -53.9 -41.2 -55.5 Q-44.2 -56.2 -47.1 -55.05 L-47.25 -54.95 -48.7 -54.25 -51.45 -51.9 -51.65 -51.35 -52.05 -50.2 -52.0 -50.15 -50.9 -48.6 -50.65 -48.4 -50.45 -48.15 -49.9 -48.1 -49.95 -48.2 -49.65 -47.5 -48.95 -47.15 -48.9 -47.15 Q-48.8 -46.95 -48.5 -46.9 L-47.8 -46.5 -47.8 -45.85 -46.45 -44.5 -46.35 -46.2 -46.1 -46.45 Q-45.05 -47.7 -43.55 -48.35 L-43.5 -48.35 -41.3 -48.4 -40.7 -48.5 -40.6 -48.5 -39.8 -47.95 -39.35 -47.8 -39.2 -47.75 -39.25 -47.45 -39.2 -47.35 -38.15 -47.7 Q-33.75 -48.6 -29.2 -47.55 -25.45 -46.95 -21.75 -45.55 L-21.05 -45.15 -19.8 -44.15 -19.75 -44.1 -19.6 -44.4 -19.65 -44.25 -20.35 -42.0 -20.35 -41.85 -20.45 -41.3 -20.5 -40.7 Q-20.65 -39.3 -20.45 -37.85 L-20.2 -36.45 -19.8 -34.9 -19.15 -33.65 -18.9 -33.35 -18.95 -33.8 Q-19.15 -34.65 -18.7 -35.4 L-18.45 -36.0 -18.35 -36.2 -18.25 -36.55 -17.55 -36.8 Q-14.15 -38.0 -10.3 -37.55 L-9.7 -37.0 -6.35 -37.75 -6.75 -37.65 -5.9 -37.6 -5.2 -37.85 -5.2 -37.75 -3.95 -37.95 -3.75 -36.9 -3.85 -36.9 -3.8 -36.75 -3.45 -35.25 -3.3 -35.25 -3.35 -34.65 -3.2 -34.45 Q-4.2 -34.3 -4.8 -33.65 L-4.3 -32.2 -3.25 -29.0 -2.35 -29.3 -2.8 -29.15 -2.75 -28.9 -1.95 -26.9 -2.1 -26.45 -1.85 -26.45 -2.4 -26.4 -3.1 -26.4 -3.05 -26.1 -2.85 -24.6 -2.8 -24.35 -2.6 -22.75 -1.4 -22.4 Q-0.9 -20.75 -0.65 -18.95 L0.35 -13.9 Q0.65 -12.6 1.25 -12.2 L6.5 -12.05 Q8.5 -11.5 9.7 -9.9 L10.1 -9.3 Q10.65 -10.9 9.75 -12.15 L9.25 -12.75 9.2 -13.3 9.1 -13.55 9.3 -13.45 9.3 -13.6 9.2 -15.1 9.2 -15.2 9.25 -16.1 9.45 -16.35 9.8 -16.9 10.1 -16.35 10.5 -17.65 10.6 -17.9 10.8 -18.75 10.85 -19.25 10.55 -19.7 10.85 -19.25 10.25 -25.8 9.75 -26.25 Q8.65 -28.05 6.8 -28.55 L6.85 -28.9 7.0 -29.25 7.0 -29.4 8.5 -29.95 Q9.65 -30.3 10.5 -31.2 L11.25 -32.4 Q11.9 -34.05 11.95 -35.8 L11.8 -39.25 11.8 -39.55 Q11.3 -43.2 9.0 -45.65 L9.0 -45.7 9.45 -46.25 9.6 -46.4 9.85 -46.8 9.9 -46.9 10.3 -47.2 10.3 -47.25 Q13.9 -50.5 18.6 -51.9 L22.9 -53.0 25.1 -53.3 27.3 -53.45 29.0 -53.65 28.95 -53.8 29.1 -53.9 30.0 -54.85 29.85 -54.75 31.05 -55.5 32.7 -55.65 33.25 -55.55 Q35.15 -55.2 36.65 -53.9 L36.75 -55.05 36.6 -55.2 36.65 -55.2 37.9 -55.8 Q38.6 -55.9 39.2 -56.25 L39.55 -56.5 39.55 -56.35 40.35 -59.7 39.8 -60.2 38.75 -61.35 Q36.85 -62.8 34.65 -63.25 L33.55 -63.45 Q31.15 -63.7 29.3 -62.55 L28.05 -61.65 28.2 -60.95 Q28.3 -59.75 28.0 -58.6 L28.05 -58.55 Q27.75 -58.15 27.85 -57.6 L27.85 -57.55 27.8 -57.55 M3.45 -51.7 L3.45 -51.45 3.3 -51.35 3.45 -51.7 M31.2 -54.6 L30.3 -54.6 29.7 -53.7 30.15 -53.25 30.2 -53.1 30.45 -52.7 Q32.8 -50.65 35.5 -51.8 L35.95 -52.3 35.5 -53.4 34.9 -53.8 33.45 -54.7 31.2 -54.6 M18.25 -41.0 L15.7 -41.9 14.35 -42.0 13.0 -42.1 12.8 -42.1 12.4 -42.15 12.3 -42.15 13.2 -38.25 Q13.6 -36.55 13.4 -34.9 13.25 -33.5 12.7 -32.25 L12.65 -32.25 12.4 -31.75 12.2 -31.45 12.15 -31.4 12.2 -31.4 11.45 -30.5 Q10.2 -29.3 8.55 -28.75 L9.75 -27.95 Q10.8 -27.2 10.85 -26.0 L10.9 -25.45 Q10.95 -24.9 11.15 -24.4 L11.35 -23.4 11.5 -22.0 11.6 -17.9 12.8 -17.6 Q12.9 -17.55 13.05 -17.45 L14.1 -16.3 14.15 -16.25 14.6 -15.5 15.4 -14.3 15.8 -13.65 Q16.75 -12.1 17.15 -10.25 17.7 -7.65 17.45 -4.8 L17.0 -1.75 16.95 -1.35 16.4 0.9 16.1 2.05 16.95 2.35 19.45 3.05 22.85 3.7 23.5 2.45 23.55 2.35 23.65 2.25 25.9 -2.6 26.9 -4.6 28.2 -7.0 Q29.0 -8.1 30.1 -8.9 31.1 -9.7 32.25 -10.3 33.7 -10.85 35.4 -10.8 L35.8 -10.8 Q37.0 -10.85 38.1 -11.25 40.25 -12.0 41.25 -14.15 41.7 -15.05 41.75 -16.1 41.85 -18.35 41.1 -20.45 L40.75 -21.05 40.15 -22.05 40.0 -22.35 39.85 -22.7 38.85 -24.65 37.4 -27.1 36.95 -27.8 36.75 -28.05 36.65 -28.2 36.6 -28.25 34.65 -30.65 34.55 -30.8 32.25 -33.2 28.5 -36.05 22.55 -39.35 18.25 -41.0 M-0.55 -35.4 Q-0.8 -37.05 -0.15 -38.55 L0.0 -38.7 Q0.8 -39.65 1.75 -40.2 3.45 -41.25 5.55 -41.05 L7.65 -40.55 Q8.9 -40.05 9.55 -39.1 L10.0 -38.25 8.95 -39.2 8.7 -39.25 9.3 -37.75 9.55 -36.65 Q9.95 -34.1 8.15 -32.3 L7.85 -33.0 8.15 -32.3 7.85 -31.95 7.3 -31.3 8.4 -31.4 8.3 -31.35 Q7.0 -30.5 5.65 -30.05 L4.95 -30.05 Q2.4 -30.1 0.75 -32.0 L0.55 -33.0 0.5 -33.3 0.1 -34.55 0.05 -34.85 0.0 -35.35 -0.05 -35.35 -0.55 -35.4 M3.45 -36.65 L3.3 -36.25 Q2.85 -36.6 2.85 -37.05 2.85 -37.55 3.4 -37.9 L4.65 -38.25 Q5.4 -38.25 5.95 -37.9 6.4 -37.55 6.45 -37.1 L6.45 -37.05 6.25 -36.45 6.2 -36.5 Q5.9 -37.5 4.7 -37.35 L4.55 -37.3 4.5 -37.3 Q4.0 -37.2 3.7 -36.9 L3.45 -36.65 M1.9 -39.4 L1.0 -38.1 1.1 -37.35 Q1.45 -35.3 3.3 -34.8 L4.0 -34.2 3.35 -31.2 4.25 -31.05 6.35 -31.25 7.25 -31.55 Q6.4 -33.0 6.3 -34.4 L6.4 -34.65 6.5 -34.65 7.1 -35.2 7.7 -36.0 Q8.95 -38.0 7.5 -39.5 L7.35 -39.65 Q4.65 -40.75 1.9 -39.4 M5.25 -7.55 L5.4 -7.6 5.6 -7.6 5.8 -7.65 5.9 -7.65 6.4 -7.65 7.8 -7.55 8.0 -7.5 Q8.75 -7.6 9.0 -6.9 L8.7 -9.45 8.6 -9.55 8.5 -9.7 8.45 -9.75 8.3 -9.9 Q7.1 -11.25 5.25 -11.35 L5.0 -11.35 0.35 -11.1 0.2 -11.3 -0.35 -13.15 -1.25 -18.05 -1.5 -19.45 -1.8 -21.65 -2.6 -21.55 -3.55 -22.15 -3.8 -25.05 -3.95 -26.5 -3.95 -26.55 -3.2 -26.95 -3.1 -27.25 -3.05 -27.6 -3.35 -28.0 -3.6 -28.0 -3.65 -28.0 -3.75 -28.1 -3.85 -28.2 -4.35 -28.9 -4.9 -30.8 -5.3 -31.95 -5.5 -32.95 -5.5 -33.25 -5.5 -33.7 -5.45 -34.0 -4.25 -35.0 -4.5 -35.7 -4.8 -36.4 -4.95 -36.75 -5.85 -36.95 -6.65 -36.6 -8.15 -36.5 -8.6 -36.5 -8.3 -36.2 -8.2 -36.05 -7.9 -35.55 -7.85 -35.4 -7.9 -35.25 -7.9 -35.2 -9.65 -36.15 -14.4 -36.3 -16.05 -36.2 -17.7 -36.0 -17.8 -36.0 -17.8 -35.95 -17.9 -33.4 -18.0 -30.9 -16.25 -28.85 Q-14.7 -27.2 -12.45 -27.45 L-10.9 -27.25 -10.8 -27.15 -11.7 -26.8 -12.2 -26.45 -13.25 -26.35 -14.65 -26.2 -14.7 -25.9 -14.45 -25.45 -14.35 -25.3 -14.3 -25.25 -14.45 -23.7 -14.55 -22.8 -14.55 -21.7 -14.15 -20.6 -12.0 -17.45 -11.55 -21.0 -11.5 -21.6 -11.45 -21.4 Q-11.0 -19.95 -11.0 -18.3 -10.95 -15.5 -11.3 -12.8 L-11.25 -10.95 Q-10.9 -8.8 -9.65 -7.2 L-7.95 -4.85 -7.55 -4.9 -7.5 -4.75 -7.45 -4.3 -7.45 -2.85 -7.45 -2.75 Q-7.5 -1.85 -7.1 -1.1 L-7.0 -0.95 -6.65 -0.25 -4.95 1.65 -4.85 1.75 -2.45 3.05 -2.45 0.15 -2.2 -1.75 -2.15 -2.3 -2.15 -2.4 -2.2 -2.55 Q-2.35 -3.65 -2.85 -4.45 L-4.5 -5.35 -5.6 -5.1 -6.9 -4.8 -7.35 -4.7 -7.45 -4.75 -6.45 -5.65 -6.1 -5.85 -4.5 -6.1 -3.5 -5.9 -2.8 -5.6 Q-2.05 -5.25 -1.65 -4.6 -1.35 -4.15 -1.2 -3.55 L-1.15 -3.4 Q0.35 -4.2 1.9 -3.95 L1.5 -4.4 1.5 -4.45 1.55 -5.1 1.95 -5.85 Q2.9 -6.9 4.15 -7.3 L5.25 -7.55 M5.25 -0.6 L5.3 0.65 5.25 1.7 Q8.0 0.3 8.7 -2.75 L8.85 -3.95 8.45 -6.35 7.05 -6.6 6.85 -6.6 6.1 -6.45 5.85 -6.4 4.8 -6.1 Q3.35 -5.75 2.4 -4.75 4.85 -3.3 5.25 -0.6 M3.4 -1.9 L3.25 -2.15 2.65 -2.8 1.6 -2.6 -0.05 -2.2 -0.7 -1.8 -0.95 -0.6 0.5 1.3 2.4 0.85 Q2.35 -0.65 3.25 -1.85 L3.7 -1.25 3.4 -1.9 M32.5 10.0 L32.2 11.1 32.15 11.1 31.7 11.9 Q30.7 13.35 30.35 14.65 31.7 16.6 31.15 18.9 30.65 20.75 28.9 21.2 L27.85 23.85 Q29.55 25.5 30.55 27.7 L31.55 27.35 33.7 31.0 33.75 30.9 34.35 32.3 34.25 32.5 33.3 33.85 32.85 34.5 32.05 35.1 32.2 35.0 32.25 35.05 31.65 35.6 31.4 36.05 31.4 36.85 31.45 36.95 32.1 39.6 31.05 40.75 Q30.1 41.3 29.2 41.95 25.45 44.7 22.5 48.25 L22.3 48.55 21.0 49.75 21.2 49.3 Q20.95 49.7 20.85 50.15 19.7 51.5 18.7 53.0 17.9 54.1 17.35 55.3 L17.25 55.55 Q16.65 56.3 16.2 57.2 L16.0 57.45 Q14.6 59.45 13.5 61.5 L12.95 62.5 12.25 63.85 11.9 64.7 11.6 64.85 10.65 65.2 7.8 66.1 3.6 66.05 -2.35 65.55 -5.35 65.1 -5.95 64.95 -8.15 64.1 -8.4 63.8 -8.5 63.6 Q-9.65 60.85 -10.95 58.2 L-12.45 55.65 -12.9 54.95 -16.55 50.85 Q-18.55 48.55 -21.05 46.8 L-22.35 45.9 -26.75 42.45 -26.8 42.45 -27.35 41.85 -27.45 41.45 Q-27.75 40.0 -28.55 39.15 L-28.6 37.7 -28.6 37.4 -27.3 35.1 -26.75 33.75 -26.6 32.75 -26.3 32.55 -26.2 32.7 Q-26.4 32.05 -26.75 31.5 L-26.95 31.2 Q-27.05 30.7 -27.3 30.45 L-27.8 29.9 Q-27.55 29.1 -28.15 28.85 L-28.2 28.75 -28.4 28.35 -28.0 27.65 -27.95 27.8 -26.5 25.15 -25.95 24.05 -25.65 23.0 Q-26.95 22.5 -27.75 21.2 L-28.3 19.65 Q-28.6 18.1 -27.75 16.65 L-29.15 15.3 -29.45 14.9 -30.25 13.9 -30.8 13.25 Q-30.05 12.8 -29.2 12.6 L-28.8 12.2 -28.65 12.2 -28.3 12.15 Q-26.65 12.9 -26.05 14.65 -23.85 12.5 -21.3 10.85 -17.8 8.55 -13.75 7.25 -9.75 6.1 -5.7 6.1 -2.95 6.3 -1.0 7.8 L-0.2 8.5 Q0.75 9.55 0.9 11.15 L1.05 13.65 1.0 18.9 0.85 20.75 0.85 20.8 Q1.45 25.4 1.2 30.1 L0.95 32.4 Q0.7 34.0 -0.25 35.15 L-2.35 34.7 -2.35 34.65 -2.4 34.7 6.45 35.0 6.0 35.1 Q3.95 31.0 3.55 26.35 3.35 23.6 3.6 20.9 L3.65 20.35 Q3.6 19.6 3.7 18.95 L3.8 18.9 3.7 18.15 Q3.25 14.2 3.75 10.3 L3.9 10.5 4.0 9.9 4.2 9.05 Q4.45 8.25 5.05 7.55 L5.35 7.25 5.35 7.15 Q7.15 5.6 9.55 5.35 L12.65 5.4 12.85 5.55 13.85 5.65 16.9 6.3 16.85 6.1 Q18.95 6.65 21.0 7.55 24.7 9.3 27.75 12.05 L29.25 13.45 29.9 12.15 Q30.65 10.7 31.85 9.95 L31.85 9.9 32.5 10.0 M29.85 19.1 L29.95 18.95 30.2 18.6 30.35 18.3 30.45 17.95 30.3 17.55 Q29.65 16.05 28.6 14.85 26.75 12.9 24.5 11.3 22.5 9.95 20.15 8.95 L20.0 8.85 18.25 8.15 17.95 8.05 16.3 7.7 16.25 7.8 16.2 7.75 14.5 7.3 10.75 6.55 Q8.7 7.0 6.75 7.75 6.05 8.1 5.55 8.85 L5.25 9.4 5.25 9.3 4.65 10.55 4.6 10.6 4.5 11.15 4.55 11.2 Q4.15 12.45 4.25 13.8 L4.3 14.1 Q4.4 15.85 4.65 17.6 5.4 23.25 7.45 28.8 L7.7 29.5 9.05 33.15 9.9 35.35 Q10.4 36.6 11.6 37.1 L12.65 36.6 13.0 36.55 13.35 36.3 14.0 35.9 14.85 34.95 15.35 33.7 14.7 32.6 Q13.65 30.9 13.1 29.1 12.7 27.9 13.35 27.0 L14.0 26.5 15.5 26.6 16.05 26.85 16.85 27.25 Q19.45 28.65 21.65 30.55 L22.75 29.9 23.2 29.6 23.4 29.4 24.5 28.4 23.6 26.45 20.95 22.15 20.6 21.2 20.6 20.3 Q20.8 19.25 21.6 18.25 L23.45 18.0 23.85 18.1 Q26.35 18.8 28.55 20.1 L29.3 19.55 29.85 19.1 M22.1 21.9 Q23.1 23.5 24.5 24.9 L24.95 25.15 25.15 25.55 27.9 20.95 Q25.75 19.4 23.15 19.15 L22.5 19.35 Q21.2 20.45 22.1 21.9 M15.5 27.25 L14.15 27.8 Q14.15 30.9 16.4 33.25 18.5 32.3 19.9 30.65 L15.5 27.25 M17.3 34.95 L17.0 35.3 15.35 36.95 15.35 37.0 Q13.55 38.25 11.15 38.35 L10.2 37.7 8.5 35.6 8.2 36.1 Q5.0 37.4 1.55 36.95 L-1.5 36.15 -2.9 35.7 -3.25 36.4 Q-4.1 38.3 -5.9 39.15 L-8.9 38.3 -10.15 37.6 -11.3 36.55 -11.9 36.05 -12.8 35.35 -15.45 33.45 -16.85 32.5 -17.6 32.45 -18.2 32.45 Q-20.6 32.15 -22.05 29.85 L-22.05 29.55 -22.05 28.55 -24.9 24.7 -25.15 25.25 Q-26.25 27.05 -27.65 28.65 L-27.1 29.9 Q-26.1 32.25 -24.45 34.15 L-24.4 34.2 -20.85 38.1 -19.4 39.6 -18.65 40.4 -17.95 41.1 -15.95 43.3 -15.25 44.05 -13.45 46.1 -13.1 46.25 -12.95 46.3 -10.8 47.0 -9.15 47.45 -4.5 47.85 -4.8 46.8 -5.6 44.25 Q-6.35 42.2 -5.55 40.55 L-5.5 40.55 Q-3.4 39.2 -0.3 38.85 4.25 38.4 8.5 39.75 L10.65 40.85 11.25 41.45 9.35 48.4 11.55 47.9 11.6 47.95 Q11.7 47.8 11.85 47.75 L12.25 47.65 13.75 47.15 16.2 46.1 17.95 45.45 18.7 45.0 Q21.7 43.6 24.4 41.75 L25.65 40.85 27.8 39.3 29.35 38.4 32.25 33.7 32.5 33.15 33.0 31.65 31.45 29.2 30.95 29.6 Q31.05 28.6 30.05 28.35 L29.55 28.75 30.25 28.15 29.5 27.95 27.5 25.0 27.35 24.8 27.15 25.1 26.45 26.1 25.7 27.1 25.75 28.4 25.35 28.95 Q23.85 31.4 21.05 31.25 18.95 32.9 17.3 34.95 M7.55 33.45 L7.75 33.95 7.9 34.65 8.0 34.6 7.55 33.45 M4.35 39.9 L0.55 39.8 -2.65 40.45 -2.75 40.45 -3.95 40.8 Q-4.95 40.6 -5.2 41.5 L-2.4 50.35 -1.95 50.55 -0.6 51.1 Q3.6 51.8 7.4 50.55 L10.15 41.8 7.65 40.65 4.35 39.9 M-26.25 41.0 L-22.95 43.5 -21.75 44.3 -18.85 46.85 -16.15 49.55 -13.2 52.95 -10.4 57.0 -7.8 61.45 -7.1 62.4 -5.95 63.5 -5.35 63.6 -3.95 63.95 -2.7 64.25 1.6 64.5 3.95 64.35 Q7.15 64.25 10.15 63.15 L13.45 58.55 16.65 53.55 Q18.15 51.05 20.25 48.95 L24.4 44.75 Q26.45 42.6 28.8 40.8 L30.35 39.25 30.2 38.35 30.15 37.65 28.7 39.55 27.25 40.95 25.35 42.6 20.25 45.45 19.6 45.8 19.4 46.1 19.15 46.3 Q16.95 47.0 15.0 48.15 13.3 48.8 11.45 49.1 L11.4 49.05 10.15 49.35 Q9.5 50.05 9.65 50.7 L9.3 51.25 6.8 52.2 4.35 52.4 4.65 52.75 3.25 52.55 3.3 52.45 3.25 52.45 2.3 52.45 0.85 52.45 0.9 52.35 0.2 52.3 Q-1.65 52.15 -3.1 51.2 L-3.55 50.8 -3.9 50.3 -4.05 50.0 -4.05 49.9 Q-4.4 48.8 -5.65 49.0 L-5.9 49.15 -7.2 48.7 -10.65 48.0 -12.95 47.2 -15.35 45.9 -15.7 45.7 -15.95 45.55 -16.15 45.35 -17.55 43.95 -19.75 41.6 -19.9 41.45 Q-21.1 38.85 -23.15 36.95 L-23.4 36.75 -24.95 34.75 -25.1 34.4 -25.7 33.4 -25.5 33.7 -25.65 34.3 -25.95 35.2 -26.55 36.8 -26.7 37.2 -26.8 37.6 -26.85 40.4 -26.25 41.0 M-9.85 -53.85 L-9.9 -53.95 -9.9 -54.0 -9.85 -53.85 M-49.65 -49.2 L-49.4 -49.7 -49.35 -49.8 -49.3 -49.9 -49.25 -49.95 -49.2 -49.95 -49.65 -49.2 M-41.35 -47.55 L-41.5 -47.65 Q-44.1 -47.7 -45.35 -45.85 L-45.7 -45.25 -45.55 -43.9 -41.8 -44.05 Q-40.3 -44.8 -39.8 -46.55 L-39.85 -46.6 -40.7 -47.75 -41.35 -47.55 M-27.6 -35.35 L-27.7 -35.3 -28.55 -34.9 Q-35.0 -31.45 -39.05 -25.35 -40.6 -23.0 -41.65 -20.5 L-42.15 -19.2 -42.2 -19.0 -42.7 -17.45 -42.75 -17.3 -42.8 -17.15 -43.25 -15.5 -43.7 -13.6 -43.6 -13.5 -43.8 -13.05 -43.85 -12.35 -43.7 -11.65 -43.65 -11.5 -43.55 -9.95 Q-43.4 -8.45 -42.55 -7.15 L-42.3 -6.8 Q-41.6 -5.95 -40.4 -5.7 L-38.8 -5.45 -38.6 -5.4 -38.6 -5.5 -38.0 -5.4 -37.45 -5.35 -36.9 -5.35 -36.1 -5.35 -35.8 -5.35 -35.0 -5.35 -34.25 -5.3 -33.85 -5.2 -33.3 -5.1 -32.9 -4.95 Q-29.7 -3.6 -28.0 -0.75 L-27.35 0.45 -25.2 4.25 -25.15 4.3 -24.1 5.7 -24.0 5.85 -22.95 6.7 -22.7 6.85 -22.4 6.95 -20.35 7.15 -17.2 6.4 -15.6 5.75 -15.25 5.55 -14.6 5.2 -14.45 5.1 -15.2 3.4 -16.7 -0.85 Q-17.65 -4.0 -17.3 -7.25 -16.95 -10.15 -15.4 -12.6 L-15.3 -12.8 Q-14.15 -14.45 -12.5 -15.45 L-12.5 -15.6 Q-12.8 -17.0 -13.6 -18.05 L-14.1 -18.65 Q-15.6 -20.4 -15.65 -22.75 L-17.9 -23.45 -18.2 -23.5 -18.7 -23.65 -20.7 -24.3 -21.35 -25.9 -22.5 -28.95 Q-23.4 -31.3 -23.6 -33.75 L-23.65 -34.05 -23.55 -34.35 -23.15 -34.9 -23.05 -35.0 -21.3 -36.85 -21.6 -37.7 -23.35 -37.15 -23.4 -37.15 -26.45 -35.9 -27.6 -35.35 M-14.5 -33.15 L-15.25 -32.95 -15.15 -32.75 -14.3 -31.4 -9.9 -30.3 -10.05 -30.8 -10.25 -31.2 Q-10.85 -32.45 -12.0 -32.95 L-13.15 -33.2 -13.35 -33.25 -14.5 -33.15 M-9.05 -29.25 L-9.75 -29.45 -11.0 -29.25 Q-12.95 -29.1 -14.3 -30.25 -15.6 -31.3 -15.95 -33.1 L-16.7 -33.0 -16.95 -33.25 -15.3 -34.0 Q-13.05 -34.7 -10.95 -33.65 L-10.25 -32.9 -10.1 -32.75 -9.35 -31.4 -8.95 -30.6 -8.55 -29.25 -8.55 -29.1 -9.05 -29.25 M-21.75 -30.3 L-19.85 -24.95 -15.55 -23.8 -16.1 -26.0 -15.75 -27.35 -18.3 -30.85 Q-18.75 -31.5 -18.85 -32.2 L-18.9 -32.7 -20.8 -35.65 -22.8 -33.2 -21.75 -30.3 M-1.6 9.0 Q-2.05 8.6 -2.6 8.35 L-5.1 7.55 -9.75 7.85 -11.15 8.2 -11.7 8.35 Q-14.65 9.35 -17.45 10.6 L-21.55 12.65 -23.05 13.65 -26.75 17.85 -26.8 17.95 -26.85 18.05 -27.15 18.55 -27.5 19.6 -27.4 19.95 -26.95 20.55 -25.45 21.65 -23.85 20.95 -21.25 19.8 Q-19.75 19.1 -18.05 19.55 -17.25 20.25 -16.95 21.2 L-16.85 21.55 Q-16.65 22.5 -17.2 23.4 L-19.8 27.8 -20.7 29.8 -20.55 29.9 -20.35 30.05 -17.55 31.8 -16.85 31.25 -14.15 29.4 Q-12.7 28.45 -11.1 27.65 L-9.55 27.45 -9.05 27.65 -8.8 27.9 Q-8.1 28.8 -8.45 30.0 -9.15 32.45 -10.65 34.7 L-10.35 35.5 -9.95 36.1 -9.7 36.4 -9.55 36.55 -9.1 36.9 -8.95 37.0 -8.65 37.15 -8.45 37.25 -8.35 37.3 -6.4 37.9 Q-5.2 37.45 -4.75 36.1 L-4.65 35.9 -3.0 31.15 Q-2.1 28.6 -1.5 26.05 -0.7 22.7 -0.05 19.35 0.75 15.4 -0.2 11.45 -0.55 9.9 -1.6 9.0 M-18.6 24.0 L-18.1 23.35 Q-17.75 22.55 -18.0 21.8 L-19.1 20.95 -20.35 20.7 Q-22.65 21.25 -24.7 22.5 -23.5 25.1 -21.5 26.95 L-21.3 26.55 -18.6 24.0 M-9.85 30.85 Q-9.3 29.85 -9.65 28.75 L-10.55 28.3 -11.1 28.25 -15.65 31.85 Q-13.95 33.45 -11.8 34.25 L-9.85 30.85 M-10.05 51.4 L-10.15 51.45 -10.1 51.4 -10.05 51.4 M-13.2 49.95 L-13.2 49.9 -13.15 49.9 -13.2 49.95" fill="#000000" fill-rule="evenodd" stroke="none"/>
    <path d="M4.95 -59.65 L5.45 -59.7 9.5 -60.05 13.6 -59.95 20.6 -59.05 27.8 -57.55 Q27.3 -56.8 27.25 -56.0 L27.05 -56.05 26.3 -56.25 19.55 -57.55 7.65 -58.1 7.6 -58.1 4.95 -59.65 M29.3 -62.55 Q31.15 -63.7 33.55 -63.45 34.0 -62.85 33.9 -61.8 L33.5 -60.65 30.35 -60.15 30.3 -60.05 30.5 -60.05 30.4 -60.0 30.85 -59.8 30.3 -60.05 29.65 -60.65 Q28.95 -61.5 29.3 -62.55 M33.25 -55.55 L32.7 -55.65 31.05 -55.5 Q30.75 -55.8 30.6 -56.3 L30.5 -56.85 31.3 -57.5 32.7 -57.6 33.0 -57.55 33.95 -57.4 34.0 -57.4 33.95 -56.7 Q33.8 -55.95 33.25 -55.55 M-2.8 -24.35 L-2.85 -24.6 -3.05 -26.1 -2.6 -26.35 -2.4 -26.4 -1.85 -26.45 -1.35 -26.45 Q-0.45 -26.1 -0.95 -24.95 L-1.5 -24.35 Q-2.3 -23.9 -2.8 -24.35 M-4.3 -32.2 L-4.8 -33.65 Q-4.2 -34.3 -3.2 -34.45 L-3.1 -34.45 Q-1.85 -34.05 -2.5 -32.75 L-3.1 -32.2 Q-3.9 -31.95 -4.3 -32.2 M-20.45 -37.85 Q-20.65 -39.3 -20.5 -40.7 L-20.45 -41.3 -20.35 -41.85 -20.35 -42.0 -19.65 -44.25 -19.6 -44.4 -19.1 -45.6 -18.0 -47.45 -17.65 -48.0 -17.35 -48.2 Q-14.85 -48.4 -14.1 -46.0 L-13.95 -44.55 Q-14.05 -42.65 -14.8 -40.95 L-14.9 -40.65 -14.95 -40.4 -16.05 -40.45 Q-17.7 -40.35 -19.1 -39.4 L-20.45 -37.85 M-43.5 -48.35 L-43.55 -48.35 Q-45.05 -47.7 -46.1 -46.45 L-46.75 -47.05 -47.3 -48.35 Q-46.55 -49.45 -45.0 -49.8 L-44.35 -49.9 Q-43.6 -49.5 -43.5 -48.35 M-51.65 -51.35 L-51.45 -51.9 -48.7 -54.25 -47.25 -54.95 -46.85 -54.1 Q-46.65 -53.4 -46.85 -52.8 L-47.45 -52.6 -47.55 -52.55 -47.6 -52.5 -49.5 -51.15 -50.0 -50.5 -50.6 -50.55 Q-51.45 -50.65 -51.65 -51.35 M-39.05 -53.2 L-37.4 -54.0 -33.3 -55.55 Q-29.05 -56.9 -24.8 -57.5 L-18.3 -57.8 -18.15 -56.55 -21.85 -56.2 Q-26.35 -55.65 -30.65 -54.5 L-37.85 -52.05 -39.05 -53.2 M-12.0 -63.4 L-11.45 -63.65 -11.15 -63.65 -11.15 -63.6 -11.5 -63.45 -9.5 -60.5 Q-7.2 -61.45 -4.6 -61.05 L-3.55 -64.55 -3.5 -64.6 -2.85 -64.5 -4.1 -60.45 -9.8 -59.8 -11.85 -63.3 -11.9 -63.35 -12.0 -63.4 M3.25 -47.2 Q4.65 -46.7 4.25 -45.25 4.0 -44.3 3.05 -43.75 2.05 -43.2 0.9 -43.35 -0.7 -43.6 -0.55 -45.15 L-0.35 -45.9 -0.3 -45.95 -0.2 -46.0 Q1.4 -47.0 3.25 -47.2 M2.95 -29.35 L3.05 -29.0 3.55 -26.85 4.2 -23.05 2.7 -21.7 1.85 -27.6 1.7 -28.4 1.85 -28.7 2.95 -29.35 M-11.95 -51.55 Q-10.45 -51.45 -10.75 -49.95 -10.85 -49.4 -11.35 -49.0 L-14.1 -48.9 -14.2 -49.2 Q-14.2 -50.45 -13.05 -51.15 L-11.95 -51.55 M-9.15 -56.95 Q-8.05 -57.6 -6.85 -57.75 -6.1 -57.45 -6.15 -56.35 -6.2 -55.5 -6.9 -55.1 -8.3 -54.3 -8.95 -55.6 -9.35 -56.4 -9.15 -56.95 M-5.0 -49.25 Q-4.55 -48.85 -4.55 -48.05 -4.55 -47.25 -5.15 -46.8 -5.35 -46.65 -5.6 -46.6 -6.45 -46.45 -7.1 -46.9 L-7.15 -47.1 -7.5 -48.75 -5.0 -49.25 M-5.75 -39.95 L-5.6 -40.3 -5.35 -40.6 -4.75 -40.8 -4.15 -41.0 Q-2.9 -40.65 -3.55 -39.4 -3.85 -38.65 -4.7 -38.75 L-5.5 -38.95 Q-6.05 -39.25 -5.75 -39.95 M-18.85 -32.2 L-19.6 -31.65 -21.75 -30.3 -22.8 -33.2 -20.8 -35.65 -18.9 -32.7 -18.85 -32.2" fill="#999999" fill-rule="evenodd" stroke="none"/>
    <path d="M-44.85 -13.3 L-44.8 -13.25 -44.8 -13.0 -44.95 -13.15 -44.85 -13.3 M42.85 -20.15 L42.7 -20.6 42.8 -20.65 43.05 -20.05 42.85 -20.15 M7.6 -58.1 L7.65 -58.1 Q10.15 -56.5 11.75 -53.8 L12.75 -51.75 15.95 -52.7 20.2 -53.55 27.15 -54.45 26.55 -54.4 26.6 -54.85 27.05 -56.05 27.25 -56.0 28.95 -55.5 28.9 -54.35 28.9 -54.3 28.95 -53.8 29.0 -53.65 27.3 -53.45 25.1 -53.3 22.9 -53.0 18.6 -51.9 Q13.9 -50.5 10.3 -47.25 L10.3 -47.2 10.2 -47.4 8.95 -49.25 8.85 -49.5 8.25 -50.15 8.0 -50.4 8.0 -50.45 7.35 -51.1 6.95 -51.75 Q5.9 -53.2 4.55 -54.25 L4.2 -54.45 2.8 -55.3 2.7 -55.3 0.35 -56.3 0.05 -56.4 -0.05 -56.4 -0.35 -56.45 -0.2 -57.4 2.6 -57.85 7.6 -58.1 M11.8 -39.55 L11.8 -39.25 11.95 -35.8 Q11.9 -34.05 11.25 -32.4 L10.5 -31.2 Q9.65 -30.3 8.5 -29.95 L7.0 -29.4 6.45 -29.45 6.95 -29.4 6.95 -29.35 7.0 -29.25 6.85 -28.9 6.85 -28.8 6.8 -28.8 6.75 -28.7 Q5.65 -29.45 4.25 -29.55 L3.5 -29.5 2.95 -29.35 1.85 -28.7 1.7 -28.4 1.85 -27.6 0.95 -27.55 0.8 -27.7 -2.05 -27.45 -2.15 -27.9 -2.35 -28.35 -0.25 -28.3 0.65 -28.85 Q1.25 -30.5 0.7 -32.05 L0.75 -32.0 Q2.4 -30.1 4.95 -30.05 L5.65 -30.05 Q7.0 -30.5 8.3 -31.35 L8.4 -31.4 9.65 -32.65 Q10.35 -33.7 10.5 -34.95 10.7 -36.7 10.0 -38.25 L9.55 -39.1 Q8.9 -40.05 7.65 -40.55 L5.55 -41.05 Q3.45 -41.25 1.75 -40.2 0.8 -39.65 0.0 -38.7 L-0.15 -38.55 Q-0.8 -37.05 -0.55 -35.4 L-0.5 -35.15 -3.3 -35.25 -3.45 -35.25 -3.8 -36.75 -3.75 -36.9 Q-2.65 -37.0 -1.75 -37.4 -1.35 -37.55 -0.95 -37.8 L-0.95 -37.75 -0.7 -37.9 -0.7 -37.95 -0.65 -38.35 -0.65 -38.4 -0.65 -38.6 -0.7 -40.2 -0.75 -40.7 -0.8 -40.85 Q-0.15 -41.65 0.7 -42.1 L1.2 -42.35 3.8 -42.85 4.55 -42.9 6.65 -42.7 6.7 -42.65 6.85 -42.7 Q9.4 -42.3 11.15 -40.35 L11.8 -39.55 M10.5 -17.65 L10.1 -16.35 9.8 -16.9 Q7.7 -20.5 3.4 -21.05 L4.6 -22.75 5.3 -22.7 Q8.1 -22.05 9.65 -19.65 L10.6 -18.1 10.5 -17.65 M9.3 -13.6 L9.3 -13.45 9.1 -13.55 9.2 -13.3 9.25 -13.1 9.15 -12.85 7.75 -13.45 Q6.55 -14.0 5.5 -14.15 L3.25 -14.2 2.55 -14.25 2.0 -14.2 1.9 -14.2 1.5 -14.5 -0.2 -21.85 0.4 -22.2 1.05 -22.45 1.25 -22.5 1.5 -22.45 1.5 -22.5 1.45 -23.05 1.5 -22.85 1.5 -22.8 1.55 -22.05 1.7 -21.2 1.9 -20.85 1.95 -20.5 2.05 -19.95 2.85 -15.6 2.85 -15.5 3.9 -15.5 5.25 -15.35 5.25 -15.4 5.15 -16.0 Q4.6 -18.1 4.45 -20.15 L6.0 -19.7 6.0 -19.6 6.8 -15.25 6.85 -15.0 8.15 -14.5 9.3 -13.6 M-21.05 -45.15 L-21.75 -45.55 Q-25.45 -46.95 -29.2 -47.55 -33.75 -48.6 -38.15 -47.7 L-39.2 -47.35 -39.25 -47.45 -39.2 -47.75 -39.2 -47.8 -39.3 -48.25 -39.5 -48.6 -40.8 -50.7 -39.05 -51.55 -38.0 -52.0 -37.95 -51.85 -37.6 -51.25 Q-36.8 -50.35 -36.7 -49.35 L-34.55 -49.65 -33.8 -49.7 -25.15 -49.25 -22.5 -48.8 Q-21.4 -49.8 -20.45 -50.95 L-18.95 -53.05 Q-18.4 -54.0 -18.3 -55.1 L-18.15 -56.55 -17.0 -56.6 -16.9 -56.6 -13.25 -56.85 -12.85 -56.85 -11.95 -55.05 -14.95 -53.25 Q-16.9 -51.95 -18.25 -50.0 L-19.7 -47.55 -20.8 -45.05 -21.05 -45.15 M-48.95 -47.15 L-49.65 -47.5 -49.95 -48.2 -49.95 -48.3 -49.75 -48.9 -49.65 -49.2 -49.2 -49.95 -49.0 -50.15 -46.5 -51.65 -44.0 -52.65 -43.15 -53.25 -43.75 -53.5 -43.7 -53.5 -41.65 -53.25 -42.2 -52.7 -43.9 -51.2 -45.35 -50.85 Q-47.65 -50.05 -48.45 -47.8 L-48.9 -47.2 -48.95 -47.15 M7.35 -49.2 L7.55 -48.85 Q8.0 -48.1 8.65 -47.85 L9.25 -46.95 6.8 -48.2 6.85 -48.2 6.7 -48.25 7.35 -49.2 M-2.15 -50.4 L-2.25 -50.5 -2.8 -50.55 -2.9 -50.55 -3.75 -50.6 -4.2 -50.55 -6.3 -50.1 Q-6.8 -50.3 -6.95 -51.1 L-6.95 -51.6 -5.45 -51.8 -4.1 -51.95 -3.1 -52.05 -2.95 -52.1 -2.4 -52.9 -2.35 -55.9 -1.7 -55.85 -1.0 -55.7 -0.1 -55.45 0.25 -55.3 0.3 -54.75 Q0.45 -52.4 -1.2 -50.75 -1.55 -50.4 -1.95 -50.2 L-2.15 -50.4 M-5.95 -43.55 L-4.65 -43.5 Q-3.2 -43.5 -1.9 -44.15 L-1.8 -43.25 -1.7 -42.5 Q-2.9 -42.55 -4.1 -42.05 L-5.45 -41.55 -5.95 -42.65 -5.95 -43.55 M30.5 -60.05 L35.15 -59.8 Q37.1 -59.15 38.0 -57.65 L38.4 -57.4 Q38.65 -56.35 38.15 -55.9 L37.45 -55.65 Q36.9 -57.25 35.15 -57.95 32.65 -59.1 30.2 -57.65 L28.75 -58.25 Q28.7 -58.85 29.3 -59.5 29.7 -59.95 30.3 -60.05 L30.85 -59.8 30.4 -60.0 30.5 -60.05 M22.9 -32.15 Q24.6 -31.6 23.45 -30.25 L22.9 -30.05 Q21.35 -30.25 22.05 -31.65 22.3 -32.2 22.9 -32.15 M18.25 -41.0 L16.75 -40.0 Q15.2 -38.85 15.1 -36.95 14.9 -33.45 15.95 -30.8 L16.7 -31.4 17.45 -31.55 Q19.2 -31.05 18.25 -29.55 L17.6 -28.75 Q18.85 -28.25 18.3 -27.15 L19.5 -26.05 19.55 -26.3 19.8 -26.7 Q19.45 -26.85 19.1 -27.15 18.75 -27.45 18.85 -27.9 19.25 -29.95 21.55 -30.0 22.45 -29.75 22.75 -29.25 L23.8 -29.0 23.85 -29.25 Q24.05 -29.8 24.65 -29.95 L25.45 -30.1 Q27.15 -29.55 26.0 -28.2 L25.8 -27.95 26.1 -28.0 27.1 -27.85 Q26.95 -28.2 27.2 -28.6 L27.55 -28.95 27.95 -28.85 27.8 -29.2 Q27.6 -29.8 28.15 -30.15 L29.5 -30.75 Q31.15 -29.95 29.6 -28.8 29.0 -28.3 28.6 -28.35 28.65 -28.05 28.3 -27.55 L28.1 -27.4 27.65 -27.4 Q27.85 -26.95 27.5 -26.15 L26.95 -25.35 26.4 -25.2 25.95 -25.15 26.0 -24.95 26.0 -25.0 26.15 -25.05 26.4 -25.2 27.95 -24.9 28.1 -25.85 28.35 -26.25 28.7 -26.35 29.2 -26.45 29.45 -26.4 Q29.35 -26.7 29.4 -27.1 29.55 -28.1 30.4 -28.45 L30.95 -28.35 30.9 -29.0 Q30.95 -29.55 31.4 -29.9 L31.8 -30.0 32.25 -30.1 Q34.45 -29.7 33.35 -27.85 L33.1 -27.4 33.05 -27.35 33.35 -27.15 33.6 -27.65 Q33.95 -28.1 34.45 -28.05 L35.2 -27.65 35.2 -27.75 35.9 -28.45 36.75 -28.05 36.95 -27.8 Q37.1 -27.3 36.75 -26.55 L36.6 -26.25 36.65 -26.05 37.4 -27.1 38.85 -24.65 39.85 -22.7 38.6 -20.25 37.65 -18.4 Q35.8 -14.65 32.1 -12.9 L29.2 -11.15 Q26.85 -9.4 25.35 -6.75 L23.05 -2.4 21.6 1.05 20.85 0.6 18.75 -0.45 19.2 -2.75 Q19.8 -6.35 19.1 -10.0 L18.35 -12.75 Q17.6 -14.75 15.8 -15.8 L15.5 -15.75 15.25 -15.3 Q15.25 -14.8 15.6 -14.5 L15.8 -13.65 15.4 -14.3 14.6 -15.5 14.15 -16.25 14.1 -16.3 13.05 -17.45 13.25 -18.2 13.5 -19.85 13.85 -24.95 Q14.4 -30.1 13.95 -35.25 L13.75 -37.95 Q13.5 -40.2 12.4 -42.15 L12.8 -42.1 13.0 -42.1 14.35 -42.0 15.7 -41.9 18.25 -41.0 M24.9 -26.1 L24.8 -26.8 Q24.75 -27.4 25.25 -27.8 L24.2 -27.85 24.1 -27.35 24.05 -27.15 24.1 -26.25 24.9 -26.1 M30.7 -25.35 L30.6 -24.65 30.85 -24.9 31.75 -25.1 32.4 -24.9 32.45 -25.1 32.25 -25.1 31.7 -25.55 30.7 -25.35 M22.5 -24.3 L22.5 -24.5 21.85 -24.6 22.5 -24.3 M20.15 8.95 Q22.5 9.95 24.5 11.3 26.75 12.9 28.6 14.85 29.65 16.05 30.3 17.55 L30.45 17.95 30.35 18.3 30.2 18.6 29.95 18.95 29.85 19.1 Q29.6 18.25 28.8 17.65 27.15 16.4 24.95 16.0 24.15 15.95 23.7 16.45 L22.7 16.2 Q21.4 16.4 20.55 17.7 19.3 19.75 20.6 21.2 L20.95 22.15 23.6 26.45 24.5 28.4 23.4 29.4 23.2 29.6 22.9 29.4 21.2 27.85 Q19.65 25.95 17.5 25.05 L17.15 25.1 Q16.45 25.15 16.05 25.6 15.75 24.6 14.1 24.65 L13.1 25.35 Q12.55 25.85 12.3 26.55 11.2 30.05 13.55 32.9 L13.6 32.95 11.9 34.4 Q10.7 31.9 9.9 29.2 8.5 24.7 7.95 20.05 L7.85 20.7 7.95 19.85 8.0 19.5 9.05 19.8 Q8.45 18.85 9.3 17.65 L10.0 16.95 Q9.3 15.6 11.1 14.3 11.75 13.8 12.5 13.8 L13.25 14.1 13.8 13.45 13.9 13.35 14.5 12.95 15.85 13.15 16.2 13.3 16.45 13.9 Q16.6 14.4 16.3 14.9 L15.75 15.25 15.35 15.45 14.9 15.6 14.05 15.6 13.45 16.7 12.65 17.65 12.85 18.55 12.85 18.35 Q13.05 17.0 14.4 17.0 L14.45 17.0 14.55 16.6 Q14.85 15.85 15.4 15.5 15.9 15.1 16.7 15.05 L17.2 15.3 17.35 14.85 Q17.55 14.4 17.95 14.25 L17.95 13.85 18.45 13.05 18.7 12.95 19.5 13.0 19.7 13.2 20.0 13.8 19.95 14.15 19.6 14.75 19.8 15.0 20.2 14.3 Q21.5 11.75 20.2 9.0 L20.15 8.95 M13.25 11.35 L13.6 11.5 Q14.05 12.7 13.65 13.3 13.25 13.85 11.95 13.7 11.45 13.65 11.4 13.1 11.25 11.5 12.75 11.2 L13.25 11.35 M9.9 13.25 L10.1 13.5 10.45 14.05 10.35 14.4 9.95 15.0 9.8 15.1 9.0 15.05 8.75 14.85 8.5 14.5 8.5 14.3 8.55 13.7 8.7 13.5 8.85 13.3 9.1 13.25 9.15 13.2 9.9 13.25 M8.8 17.65 L7.85 17.65 Q6.75 16.95 7.45 15.8 L7.95 15.25 Q10.35 15.55 9.05 17.4 L8.8 17.65 M12.2 20.0 L12.95 19.85 Q12.75 19.4 12.8 18.7 L12.2 20.0 M16.05 26.85 L16.05 26.75 16.1 26.45 16.85 27.25 16.05 26.85 M17.3 34.95 L18.05 36.75 18.3 37.15 Q16.55 38.3 15.3 39.8 L15.3 39.65 15.35 37.0 15.35 36.95 17.0 35.3 17.3 34.95 M18.3 37.15 L20.3 35.6 Q20.45 35.5 20.55 35.45 L18.75 36.8 18.3 37.15 M27.5 25.0 L27.15 25.1 27.35 24.8 27.5 25.0 M4.35 39.9 L7.65 40.65 10.15 41.8 7.4 50.55 Q3.6 51.8 -0.6 51.1 L-1.95 50.55 -2.4 50.35 -5.2 41.5 Q-4.95 40.6 -3.95 40.8 L-2.75 40.45 Q-4.0 42.2 -2.85 44.15 -1.15 46.95 2.25 46.05 5.9 45.1 5.7 41.55 5.7 40.8 5.05 40.35 L4.35 39.9 M13.75 47.15 Q14.05 45.35 14.7 43.7 15.2 42.35 16.1 41.3 17.55 39.6 19.25 38.2 L20.3 37.4 Q22.45 38.45 23.75 40.5 L24.4 41.75 Q21.7 43.6 18.7 45.0 L17.95 45.45 16.2 46.1 13.75 47.15 M-10.8 47.0 L-12.95 46.3 -13.1 46.25 -13.45 46.1 -15.25 44.05 -15.3 43.4 Q-15.8 40.85 -14.7 38.55 L-12.8 35.35 -11.9 36.05 -11.3 36.55 Q-13.35 39.65 -12.6 43.4 L-12.35 44.2 -10.8 47.0 M-20.85 38.1 L-24.4 34.2 -24.2 33.6 Q-23.35 31.45 -22.05 29.55 L-22.05 29.85 Q-20.6 32.15 -18.2 32.45 -19.95 34.8 -20.8 37.8 L-20.85 38.1 M-27.6 -35.35 L-26.45 -35.9 -23.4 -37.15 -23.35 -37.15 -21.6 -37.7 -21.3 -36.85 -23.05 -35.0 -23.15 -34.9 -23.55 -34.35 -23.65 -34.05 -23.6 -33.75 Q-23.4 -31.3 -22.5 -28.95 L-21.35 -25.9 -20.7 -24.3 -18.7 -23.65 -18.35 -21.5 Q-18.05 -17.4 -18.75 -13.3 -19.6 -8.3 -18.7 -3.35 -18.2 -0.6 -17.25 2.0 L-17.65 2.4 Q-19.6 4.45 -22.1 5.45 L-22.15 5.3 Q-22.95 2.7 -24.25 0.35 -25.2 -1.55 -26.75 -3.0 -29.5 -5.6 -33.05 -6.7 L-33.95 -6.25 Q-35.3 -9.05 -37.85 -11.1 -40.5 -13.25 -43.6 -13.9 L-43.7 -13.6 -43.25 -15.5 -42.8 -17.15 -42.75 -17.3 -42.7 -17.45 -42.2 -19.0 Q-41.1 -16.5 -39.5 -15.25 L-38.95 -15.9 -38.85 -15.95 -38.45 -16.0 Q-37.4 -15.6 -37.35 -14.9 -37.3 -15.6 -36.7 -16.05 L-36.55 -16.1 -36.3 -16.2 -36.3 -16.25 -35.25 -16.15 Q-35.8 -16.4 -36.0 -17.35 -36.1 -18.0 -35.85 -18.45 L-36.1 -18.3 Q-38.1 -18.5 -37.0 -20.25 L-36.45 -20.75 -35.75 -20.7 Q-34.75 -19.9 -35.45 -18.9 L-35.05 -19.15 -34.8 -19.15 Q-34.95 -20.1 -34.15 -20.75 L-34.0 -20.8 -33.75 -20.95 -32.65 -20.8 -32.65 -20.95 Q-32.75 -22.0 -31.75 -22.45 L-30.8 -22.25 Q-30.35 -22.95 -29.5 -23.1 -30.15 -23.75 -29.85 -24.7 -29.55 -25.85 -28.45 -25.85 -27.15 -25.5 -27.1 -24.6 L-27.0 -24.7 -26.95 -24.75 -25.4 -24.4 -25.15 -25.2 -25.75 -25.35 Q-26.95 -26.05 -26.0 -27.05 L-25.35 -27.35 -24.65 -27.05 -24.55 -29.1 Q-24.7 -33.6 -27.6 -35.35 M-33.3 -5.1 L-33.85 -5.2 -33.45 -5.15 -33.5 -5.25 -33.8 -5.5 -33.3 -5.1 M-32.35 -24.85 L-32.0 -24.9 Q-30.3 -24.3 -31.55 -22.9 L-32.85 -22.95 Q-33.4 -23.6 -32.95 -24.35 L-32.45 -24.85 -32.35 -24.85 M-28.05 -19.4 L-28.0 -19.2 -27.85 -19.4 -28.05 -19.4 M-31.6 -19.7 L-31.65 -18.85 -31.6 -18.9 -31.45 -18.95 -31.25 -19.75 -31.6 -19.7 M-36.9 -18.35 Q-35.7 -17.65 -36.45 -16.45 L-36.9 -16.05 -37.65 -16.05 Q-38.85 -16.8 -38.1 -17.95 L-37.65 -18.35 -36.9 -18.35 M-40.15 -16.75 Q-41.1 -17.35 -40.35 -18.3 -40.1 -18.65 -39.65 -18.6 -38.0 -18.0 -39.2 -16.85 -39.65 -16.45 -40.15 -16.75 M-37.55 -14.3 L-37.35 -14.25 -37.4 -14.4 -37.4 -14.7 -37.55 -14.3 M-32.3 -17.7 L-33.1 -17.55 -33.1 -17.2 -32.25 -17.1 -32.3 -17.7 M-30.9 -15.6 L-31.0 -15.65 -31.0 -15.5 -30.9 -15.6 M-34.95 -16.1 L-34.35 -15.7 -34.25 -16.15 -34.95 -16.1 M-34.15 -14.25 L-34.1 -14.25 -34.15 -14.3 -34.15 -14.25 M-18.5 27.95 L-16.4 25.05 -15.8 23.9 Q-15.15 22.65 -14.85 21.3 -15.1 20.5 -14.5 19.5 -14.15 18.85 -13.55 18.65 -13.95 18.05 -13.45 16.95 L-13.2 16.6 -14.15 16.55 Q-15.7 15.45 -14.15 14.35 L-13.6 14.1 Q-13.05 14.3 -12.75 14.55 -12.45 14.15 -11.7 14.0 L-11.25 13.9 -11.15 13.95 Q-11.25 13.3 -10.7 12.35 -10.35 11.7 -9.7 11.4 L-8.6 11.45 -8.3 11.75 Q-8.6 10.95 -9.1 10.5 -7.85 9.8 -6.3 9.45 L-5.25 9.3 -1.6 9.0 Q-0.55 9.9 -0.2 11.45 0.75 15.4 -0.05 19.35 -0.7 22.7 -1.5 26.05 -2.1 28.6 -3.0 31.15 L-4.65 35.9 Q-5.45 35.2 -6.7 35.1 L-6.75 34.95 Q-7.25 34.2 -8.2 34.15 L-8.35 34.2 Q-6.75 31.9 -6.65 29.15 -6.6 27.45 -8.05 26.95 L-8.45 27.0 -8.55 27.0 -8.85 27.3 -8.9 27.1 Q-9.1 25.05 -11.45 25.4 -12.7 25.65 -13.85 26.3 -15.1 27.0 -15.7 28.1 -16.5 27.95 -17.55 28.45 L-17.65 28.35 -18.5 27.95 M-20.55 29.9 L-20.3 29.7 -20.35 30.05 -20.55 29.9 M-13.0 16.45 L-12.8 16.3 -12.7 16.3 -12.75 16.2 -13.0 16.45 M-14.95 17.15 Q-14.95 17.55 -15.25 17.9 L-15.6 18.25 Q-17.25 18.35 -16.95 16.8 L-16.4 16.3 -16.0 16.25 Q-15.3 16.35 -15.05 16.95 L-14.95 17.15 M-10.85 17.35 L-10.35 17.2 Q-10.9 16.85 -10.85 16.25 L-11.15 16.4 -11.4 16.55 Q-11.0 16.9 -10.85 17.35 M-8.0 15.2 L-7.95 13.8 -8.5 14.5 -8.6 14.65 -8.0 15.2 M-8.3 16.55 L-9.05 17.2 -9.35 17.4 -8.75 17.7 -8.35 16.65 -8.3 16.55 M-9.95 36.1 L-9.7 35.85 -9.7 36.4 -9.95 36.1" fill="#404040" fill-rule="evenodd" stroke="none"/>
    <path d="M27.85 -57.55 L27.85 -57.6 Q27.75 -58.15 28.05 -58.55 L28.75 -58.25 30.2 -57.65 Q32.65 -59.1 35.15 -57.95 36.9 -57.25 37.45 -55.65 L38.15 -55.9 Q38.65 -56.35 38.4 -57.4 L38.0 -57.65 Q37.1 -59.15 35.15 -59.8 L30.5 -60.05 30.3 -60.05 30.35 -60.15 33.5 -60.65 35.45 -60.4 Q38.15 -59.9 39.2 -57.5 L39.55 -56.5 39.2 -56.25 Q38.6 -55.9 37.9 -55.8 L36.65 -55.2 36.6 -55.2 Q35.65 -56.95 33.95 -57.4 L33.0 -57.55 32.7 -57.6 31.3 -57.5 30.5 -56.85 29.75 -56.25 29.8 -54.7 29.85 -54.75 30.0 -54.85 29.1 -53.9 28.95 -53.8 28.9 -54.3 28.9 -54.35 28.95 -55.5 28.95 -55.75 28.95 -55.9 29.05 -56.1 29.15 -56.35 29.2 -56.4 29.3 -56.45 29.35 -56.55 29.65 -57.1 28.05 -57.5 27.85 -57.55 M10.3 -47.2 L9.9 -46.9 9.85 -46.8 9.6 -46.4 9.45 -46.25 9.0 -45.7 9.0 -45.65 8.85 -45.8 8.8 -45.85 Q7.95 -46.55 6.9 -46.9 L3.8 -47.25 3.25 -47.2 Q1.4 -47.0 -0.2 -46.0 L-0.3 -45.95 -0.35 -45.9 -1.3 -45.25 -1.3 -42.4 -1.15 -42.1 -0.7 -40.2 -0.65 -38.6 -0.65 -38.4 -0.65 -38.35 -0.7 -37.95 -0.7 -37.9 -0.95 -37.75 -0.95 -37.8 Q-1.35 -37.55 -1.75 -37.4 -2.65 -37.0 -3.75 -36.9 L-3.95 -37.95 -1.65 -38.3 -1.9 -41.55 -4.15 -41.0 -4.75 -40.8 -5.9 -40.4 -5.8 -40.1 -5.75 -39.95 Q-6.05 -39.25 -5.5 -38.95 L-5.2 -37.85 -5.9 -37.6 -6.75 -37.65 -6.35 -37.75 -6.25 -37.8 -6.7 -40.85 -5.75 -41.4 -5.45 -41.55 -4.1 -42.05 Q-2.9 -42.55 -1.7 -42.5 L-1.8 -43.25 -1.9 -44.15 Q-3.2 -43.5 -4.65 -43.5 L-5.95 -43.55 -7.75 -44.5 -7.8 -44.75 -7.95 -46.3 -8.05 -47.3 -8.1 -47.7 -8.1 -48.35 -7.9 -49.35 -7.55 -49.55 -7.35 -49.65 -7.15 -49.75 -6.3 -50.1 -4.2 -50.55 -3.75 -50.6 -2.9 -50.55 -2.8 -50.55 -2.25 -50.5 -2.15 -50.4 Q-0.9 -49.15 -0.65 -47.15 L1.5 -48.0 1.55 -48.1 2.4 -48.2 2.3 -48.15 5.4 -48.35 6.25 -48.2 6.8 -48.2 9.25 -46.95 8.65 -47.85 Q8.0 -48.1 7.55 -48.85 L7.35 -49.2 7.55 -49.5 7.65 -49.65 6.3 -51.15 5.0 -52.3 4.3 -53.0 4.0 -53.3 3.45 -53.45 1.9 -54.5 0.25 -55.3 -0.1 -55.45 -1.0 -55.7 -1.7 -55.85 -2.35 -55.9 -2.4 -52.9 -2.95 -52.1 -3.1 -52.05 -4.1 -51.95 -5.45 -51.8 -6.95 -51.6 -7.1 -51.6 -7.15 -51.6 -7.2 -51.6 -8.1 -51.7 Q-8.55 -51.85 -8.7 -52.05 L-8.65 -52.2 -8.6 -52.4 -8.8 -52.45 -9.05 -52.5 -9.25 -52.65 -9.7 -53.55 -9.85 -53.85 -9.9 -54.0 -9.9 -53.95 -10.2 -54.5 Q-13.9 -52.6 -16.7 -49.35 L-17.65 -48.0 -18.0 -47.45 -19.1 -45.6 -19.6 -44.4 -19.75 -44.1 -19.8 -44.15 -21.05 -45.15 -20.8 -45.05 -19.7 -47.55 -18.25 -50.0 Q-16.9 -51.95 -14.95 -53.25 L-11.95 -55.05 -12.85 -56.85 -13.45 -58.05 -13.6 -58.05 -12.85 -58.2 -12.3 -58.3 -10.95 -55.85 -10.8 -55.6 -10.35 -55.4 -10.25 -55.25 -10.05 -56.4 -10.05 -56.55 -9.65 -57.85 -7.9 -58.6 Q-5.35 -59.4 -2.95 -58.65 L-2.95 -58.4 -2.9 -58.4 -2.6 -57.75 -2.5 -57.1 -2.5 -57.05 Q-2.5 -56.5 -1.8 -56.75 L-1.6 -56.75 -1.25 -59.2 0.55 -59.4 1.55 -59.25 0.0 -59.05 -0.2 -57.4 -0.35 -56.45 -0.05 -56.4 0.05 -56.4 0.35 -56.3 2.7 -55.3 2.8 -55.3 4.2 -54.45 4.55 -54.25 Q5.9 -53.2 6.95 -51.75 L7.35 -51.1 8.0 -50.45 8.0 -50.4 8.25 -50.15 8.85 -49.5 8.95 -49.25 10.2 -47.4 10.3 -47.2 M7.0 -29.4 L7.0 -29.25 6.95 -29.35 6.95 -29.4 6.45 -29.45 7.0 -29.4 M6.85 -28.9 L6.8 -28.55 6.65 -28.6 6.75 -28.7 6.8 -28.8 6.85 -28.8 6.85 -28.9 M10.55 -19.7 L10.85 -19.25 10.8 -18.75 10.6 -17.9 10.5 -17.65 10.6 -18.1 9.65 -19.65 Q8.1 -22.05 5.3 -22.7 L4.6 -22.75 3.4 -21.05 Q7.7 -20.5 9.8 -16.9 L9.45 -16.35 9.25 -16.1 9.0 -16.95 8.15 -18.15 Q7.35 -19.0 6.35 -19.55 5.4 -20.05 4.35 -20.2 L4.3 -20.25 4.15 -20.3 3.2 -20.5 3.1 -20.5 2.8 -20.55 2.1 -20.65 2.0 -20.6 1.9 -20.85 1.7 -21.2 1.55 -22.05 1.5 -22.8 1.5 -22.85 1.45 -23.05 1.3 -24.55 1.25 -24.95 1.15 -25.75 1.15 -25.85 1.1 -26.05 1.05 -26.5 0.5 -26.55 -1.35 -26.45 -1.85 -26.45 -2.1 -26.45 -1.95 -26.9 -2.75 -28.9 -2.8 -29.15 -2.35 -29.3 -1.9 -29.4 -1.6 -29.45 -1.25 -29.55 -0.8 -29.6 -0.65 -29.65 -0.2 -29.95 -0.75 -34.45 -1.3 -34.55 -2.7 -34.5 -3.1 -34.45 -3.2 -34.45 -3.35 -34.65 -3.3 -35.25 -0.5 -35.15 -0.55 -35.4 -0.05 -35.35 0.0 -35.35 0.05 -34.85 0.1 -34.55 0.5 -33.3 0.55 -33.0 0.75 -32.0 0.7 -32.05 Q1.25 -30.5 0.65 -28.85 L-0.25 -28.3 -2.35 -28.35 -2.15 -27.9 -2.05 -27.45 0.8 -27.7 0.95 -27.55 1.85 -27.6 2.7 -21.7 4.2 -23.05 4.35 -23.2 4.5 -23.2 5.1 -23.1 5.7 -23.0 7.5 -22.45 8.15 -22.05 Q9.55 -21.15 10.55 -19.7 M9.2 -13.3 L9.25 -12.75 9.2 -12.85 9.15 -12.85 9.25 -13.1 9.2 -13.3 M-39.2 -47.75 L-39.35 -47.8 -39.8 -47.95 -40.6 -48.5 -40.7 -48.5 -40.4 -48.55 -41.25 -49.95 -42.75 -50.2 -44.35 -49.9 -45.0 -49.8 Q-46.55 -49.45 -47.3 -48.35 L-47.85 -46.9 -47.8 -46.5 -48.5 -46.9 Q-48.8 -46.95 -48.9 -47.15 L-48.7 -47.05 -48.45 -47.8 Q-47.65 -50.05 -45.35 -50.85 L-43.9 -51.2 -42.2 -52.7 -41.55 -53.35 -41.15 -53.9 -40.95 -52.85 -40.9 -52.3 -42.6 -51.4 -40.95 -50.95 -40.9 -50.9 -40.8 -50.7 -39.5 -48.6 -39.3 -48.25 -39.2 -47.8 -39.2 -47.75 M-49.95 -48.2 L-49.9 -48.1 -50.45 -48.15 -50.65 -48.4 -50.65 -48.55 -50.45 -49.55 -49.5 -51.15 -47.6 -52.5 -47.55 -52.55 -47.45 -52.6 -46.85 -52.8 -44.8 -53.5 -43.75 -53.5 -43.15 -53.25 -44.0 -52.65 -46.5 -51.65 -49.0 -50.15 -49.2 -49.95 -49.25 -49.95 -49.3 -49.9 -49.35 -49.8 -49.4 -49.7 -49.65 -49.2 -49.75 -48.9 -49.95 -48.3 -49.95 -48.2 M-12.25 -63.2 L-12.0 -63.4 -11.9 -63.35 -12.25 -63.2 M-11.15 -63.65 L-10.9 -63.65 -11.15 -63.6 -11.15 -63.65 M-3.8 -64.55 L-3.65 -64.6 -3.5 -64.6 -3.55 -64.55 -3.8 -64.55 M12.4 -42.15 Q13.5 -40.2 13.75 -37.95 L13.95 -35.25 Q14.4 -30.1 13.85 -24.95 L13.5 -19.85 13.25 -18.2 13.05 -17.45 Q12.9 -17.55 12.8 -17.6 L11.6 -17.9 11.5 -22.0 11.35 -23.4 11.15 -24.4 Q10.95 -24.9 10.9 -25.45 L10.85 -26.0 Q10.8 -27.2 9.75 -27.95 L8.55 -28.75 Q10.2 -29.3 11.45 -30.5 L12.2 -31.4 12.15 -31.4 12.2 -31.45 12.4 -31.75 12.65 -32.25 12.7 -32.25 Q13.25 -33.5 13.4 -34.9 13.6 -36.55 13.2 -38.25 L12.3 -42.15 12.4 -42.15 M18.75 -0.45 L20.85 0.6 21.6 1.05 23.05 -2.4 25.35 -6.75 Q26.85 -9.4 29.2 -11.15 L32.1 -12.9 Q35.8 -14.65 37.65 -18.4 L38.6 -20.25 39.85 -22.7 40.0 -22.35 40.15 -22.05 40.75 -21.05 41.1 -20.45 Q41.85 -18.35 41.75 -16.1 41.7 -15.05 41.25 -14.15 40.25 -12.0 38.1 -11.25 37.0 -10.85 35.8 -10.8 L35.4 -10.8 Q33.7 -10.85 32.25 -10.3 31.1 -9.7 30.1 -8.9 29.0 -8.1 28.2 -7.0 L26.9 -4.6 25.9 -2.6 23.65 2.25 23.55 2.35 23.5 2.45 22.85 3.7 19.45 3.05 16.95 2.35 16.1 2.05 16.4 0.9 16.2 1.7 16.3 1.8 Q17.0 2.45 17.7 1.8 L18.45 0.65 18.5 0.5 18.75 -0.45 M8.4 -31.4 L7.3 -31.3 7.85 -31.95 8.15 -32.3 7.85 -33.0 8.15 -32.3 Q9.95 -34.1 9.55 -36.65 L9.3 -37.75 8.7 -39.25 8.95 -39.2 10.0 -38.25 Q10.7 -36.7 10.5 -34.95 10.35 -33.7 9.65 -32.65 L8.4 -31.4 M11.9 34.4 L13.6 32.95 13.55 32.9 Q11.2 30.05 12.3 26.55 12.55 25.85 13.1 25.35 L14.1 24.65 Q15.75 24.6 16.05 25.6 L16.0 25.65 15.9 26.05 16.0 26.35 16.1 26.45 16.05 26.75 16.05 26.85 15.5 26.6 14.0 26.5 13.35 27.0 Q12.7 27.9 13.1 29.1 13.65 30.9 14.7 32.6 L15.35 33.7 14.85 34.95 14.0 35.9 13.35 36.3 13.0 36.55 11.9 34.4 M20.6 21.2 Q19.3 19.75 20.55 17.7 21.4 16.4 22.7 16.2 L23.7 16.45 23.45 16.8 23.4 16.9 Q23.2 17.3 23.4 17.6 L23.85 18.1 23.45 18.0 21.6 18.25 Q20.8 19.25 20.6 20.3 L20.6 21.2 M22.1 21.9 Q21.2 20.45 22.5 19.35 L23.15 19.15 Q25.75 19.4 27.9 20.95 L25.15 25.55 24.95 25.15 24.5 24.9 Q23.1 23.5 22.1 21.9 M15.5 27.25 L19.9 30.65 Q18.5 32.3 16.4 33.25 14.15 30.9 14.15 27.8 L15.5 27.25 M18.3 37.15 L18.05 36.75 17.3 34.95 Q18.95 32.9 21.05 31.25 23.85 31.4 25.35 28.95 L25.75 28.4 25.7 27.1 26.45 26.1 27.15 25.1 27.5 25.0 29.5 27.95 30.25 28.15 29.55 28.75 22.55 34.05 22.3 34.25 20.55 35.45 Q20.45 35.5 20.3 35.6 L18.3 37.15 M15.35 37.0 L15.3 39.65 15.3 39.8 15.4 40.05 Q13.3 42.55 12.55 45.7 L12.5 45.9 12.25 47.35 12.25 47.6 12.25 47.65 11.85 47.75 Q11.7 47.8 11.6 47.95 L11.55 47.9 9.35 48.4 11.25 41.45 10.65 40.85 8.5 39.75 Q4.25 38.4 -0.3 38.85 -3.4 39.2 -5.5 40.55 L-5.55 40.55 Q-6.35 42.2 -5.6 44.25 L-4.8 46.8 -4.5 47.85 -9.15 47.45 -10.8 47.0 -12.35 44.2 -12.6 43.4 Q-13.35 39.65 -11.3 36.55 L-10.15 37.6 -8.9 38.3 -5.9 39.15 Q-4.1 38.3 -3.25 36.4 L-2.9 35.7 -1.5 36.15 1.55 36.95 Q5.0 37.4 8.2 36.1 L8.5 35.6 10.2 37.7 11.15 38.35 Q13.55 38.25 15.35 37.0 M20.3 37.4 L22.75 35.55 30.95 29.6 31.45 29.2 33.0 31.65 32.5 33.15 32.25 33.7 29.35 38.4 27.8 39.3 25.65 40.85 24.4 41.75 23.75 40.5 Q22.45 38.45 20.3 37.4 M-15.25 44.05 L-15.95 43.3 -17.95 41.1 -18.65 40.4 -19.4 39.6 -20.85 38.1 -20.8 37.8 Q-19.95 34.8 -18.2 32.45 L-17.6 32.45 -16.85 32.5 -15.45 33.45 -12.8 35.35 -14.7 38.55 Q-15.8 40.85 -15.3 43.4 L-15.25 44.05 M-24.4 34.2 L-24.45 34.15 Q-26.1 32.25 -27.1 29.9 L-27.65 28.65 Q-26.25 27.05 -25.15 25.25 L-24.9 24.7 -22.05 28.55 -22.05 29.55 Q-23.35 31.45 -24.2 33.6 L-24.4 34.2 M-9.15 -56.95 L-9.35 -56.85 -9.35 -56.8 -9.4 -56.7 -8.25 -52.7 -3.4 -53.5 Q-3.3 -55.05 -3.65 -56.6 L-3.95 -57.7 -5.4 -57.85 -6.85 -57.75 Q-8.05 -57.6 -9.15 -56.95 M-18.7 -23.65 L-18.2 -23.5 -17.9 -23.45 -15.65 -22.75 Q-15.6 -20.4 -14.1 -18.65 L-13.6 -18.05 Q-12.8 -17.0 -12.5 -15.6 L-12.5 -15.45 Q-14.15 -14.45 -15.3 -12.8 L-15.4 -12.6 Q-16.95 -10.15 -17.3 -7.25 -17.65 -4.0 -16.7 -0.85 L-15.2 3.4 -14.45 5.1 -14.6 5.2 -15.25 5.55 -15.6 5.75 -17.2 6.4 -20.35 7.15 -22.4 6.95 -22.7 6.85 -22.95 6.7 -22.65 6.55 Q-22.05 6.2 -22.1 5.6 L-22.1 5.45 Q-19.6 4.45 -17.65 2.4 L-17.25 2.0 Q-18.2 -0.6 -18.7 -3.35 -19.6 -8.3 -18.75 -13.3 -18.05 -17.4 -18.35 -21.5 L-18.7 -23.65 M-33.85 -5.2 L-34.25 -5.3 -35.0 -5.35 -35.8 -5.35 -36.1 -5.35 -36.9 -5.35 -37.45 -5.35 -38.0 -5.4 -38.6 -5.5 -38.6 -5.4 -38.8 -5.45 -40.4 -5.7 Q-41.6 -5.95 -42.3 -6.8 L-42.55 -7.15 Q-43.4 -8.45 -43.55 -9.95 L-43.65 -11.5 -43.7 -11.65 -43.85 -12.35 -43.8 -13.05 -43.6 -13.5 -43.7 -13.6 -43.6 -13.9 Q-40.5 -13.25 -37.85 -11.1 -35.3 -9.05 -33.95 -6.25 L-34.05 -6.2 -34.05 -5.8 -33.8 -5.5 -33.5 -5.25 -33.45 -5.15 -33.85 -5.2 M-7.15 -47.1 L-6.7 -44.95 -2.1 -44.8 -2.0 -44.85 Q-2.1 -45.45 -1.65 -46.15 L-2.6 -49.5 -4.75 -49.3 -5.0 -49.25 -7.5 -48.75 -7.15 -47.1 M-37.95 -3.75 L-38.0 -3.9 -37.95 -3.75 M-20.3 29.7 L-19.15 28.65 -18.55 27.95 -18.5 27.95 -17.65 28.35 -17.55 28.45 Q-16.5 27.95 -15.7 28.1 -15.1 27.0 -13.85 26.3 -12.7 25.65 -11.45 25.4 -9.1 25.05 -8.9 27.1 L-8.85 27.3 -9.05 27.65 -9.55 27.45 -11.1 27.65 Q-12.7 28.45 -14.15 29.4 L-16.85 31.25 -17.55 31.8 -20.35 30.05 -20.3 29.7 M-8.35 34.2 L-8.2 34.15 Q-7.25 34.2 -6.75 34.95 L-6.7 35.1 Q-5.45 35.2 -4.65 35.9 L-4.75 36.1 Q-5.2 37.45 -6.4 37.9 L-8.35 37.3 -8.45 37.25 -8.65 37.15 -8.95 37.0 -9.1 36.9 -9.55 36.55 -9.7 36.4 -9.7 35.85 -9.15 35.2 -8.35 34.2 M-18.6 24.0 L-21.3 26.55 -21.5 26.95 Q-23.5 25.1 -24.7 22.5 -22.65 21.25 -20.35 20.7 L-19.1 20.95 -18.0 21.8 Q-17.75 22.55 -18.1 23.35 L-18.6 24.0 M-9.85 30.85 L-11.8 34.25 Q-13.95 33.45 -15.65 31.85 L-11.1 28.25 -10.55 28.3 -9.65 28.75 Q-9.3 29.85 -9.85 30.85" fill="#333333" fill-rule="evenodd" stroke="none"/>
    <path d="M35.8 -5.9 Q35.85 -7.65 36.3 -9.3 L36.7 -9.3 36.5 -8.95 35.8 -5.9 M4.95 -59.65 L7.6 -58.1 2.6 -57.85 -0.2 -57.4 0.0 -59.05 1.55 -59.25 4.9 -59.65 4.95 -59.65 M7.65 -58.1 L19.55 -57.55 26.3 -56.25 27.05 -56.05 26.6 -54.85 26.55 -54.4 27.15 -54.45 20.2 -53.55 15.95 -52.7 12.75 -51.75 11.75 -53.8 Q10.15 -56.5 7.65 -58.1 M27.25 -56.0 Q27.3 -56.8 27.8 -57.55 L27.85 -57.55 28.05 -57.5 29.65 -57.1 29.35 -56.55 29.3 -56.45 29.2 -56.4 29.15 -56.35 29.05 -56.1 28.95 -55.9 28.95 -55.75 28.95 -55.5 27.25 -56.0 M28.05 -58.55 L28.0 -58.6 Q28.3 -59.75 28.2 -60.95 L28.05 -61.65 29.3 -62.55 Q28.95 -61.5 29.65 -60.65 L30.3 -60.05 Q29.7 -59.95 29.3 -59.5 28.7 -58.85 28.75 -58.25 L28.05 -58.55 M33.55 -63.45 L34.65 -63.25 Q36.85 -62.8 38.75 -61.35 L39.8 -60.2 40.35 -59.7 39.55 -56.35 39.55 -56.5 39.2 -57.5 Q38.15 -59.9 35.45 -60.4 L33.5 -60.65 33.9 -61.8 Q34.0 -62.85 33.55 -63.45 M36.6 -55.2 L36.75 -55.05 36.65 -53.9 Q35.15 -55.2 33.25 -55.55 33.8 -55.95 33.95 -56.7 L34.0 -57.4 33.95 -57.4 Q35.65 -56.95 36.6 -55.2 M31.05 -55.5 L29.85 -54.75 29.8 -54.7 29.75 -56.25 30.5 -56.85 30.6 -56.3 Q30.75 -55.8 31.05 -55.5 M9.0 -45.65 Q11.3 -43.2 11.8 -39.55 L11.15 -40.35 Q9.4 -42.3 6.85 -42.7 L6.7 -42.65 6.65 -42.7 4.55 -42.9 3.8 -42.85 1.2 -42.35 0.7 -42.1 Q-0.15 -41.65 -0.8 -40.85 L-0.75 -40.7 -0.7 -40.2 -1.15 -42.1 -1.3 -42.4 -1.3 -45.25 -0.35 -45.9 -0.55 -45.15 Q-0.7 -43.6 0.9 -43.35 2.05 -43.2 3.05 -43.75 4.0 -44.3 4.25 -45.25 4.65 -46.7 3.25 -47.2 L3.8 -47.25 6.9 -46.9 Q7.95 -46.55 8.8 -45.85 L8.85 -45.8 9.0 -45.65 M6.8 -28.55 Q8.65 -28.05 9.75 -26.25 L10.25 -25.8 10.85 -19.25 10.55 -19.7 Q9.55 -21.15 8.15 -22.05 L7.5 -22.45 5.7 -23.0 5.1 -23.1 4.5 -23.2 4.35 -23.2 4.2 -23.05 3.55 -26.85 3.05 -29.0 2.95 -29.35 3.5 -29.5 4.25 -29.55 Q5.65 -29.45 6.75 -28.7 L6.65 -28.6 6.8 -28.55 M9.25 -16.1 L9.2 -15.2 9.2 -15.1 9.3 -13.6 8.15 -14.5 6.85 -15.0 6.8 -15.25 6.0 -19.6 6.0 -19.7 4.45 -20.15 Q4.6 -18.1 5.15 -16.0 L5.25 -15.4 5.25 -15.35 3.9 -15.5 2.85 -15.5 2.85 -15.6 2.05 -19.95 1.95 -20.5 1.9 -20.85 2.0 -20.6 2.1 -20.65 2.8 -20.55 3.1 -20.5 3.2 -20.5 4.15 -20.3 4.3 -20.25 4.35 -20.2 Q5.4 -20.05 6.35 -19.55 7.35 -19.0 8.15 -18.15 L9.0 -16.95 9.25 -16.1 M9.25 -12.75 L9.75 -12.15 Q10.65 -10.9 10.1 -9.3 L9.7 -9.9 Q8.5 -11.5 6.5 -12.05 L1.25 -12.2 Q0.65 -12.6 0.35 -13.9 L-0.65 -18.95 Q-0.9 -20.75 -1.4 -22.4 L-2.6 -22.75 -2.8 -24.35 Q-2.3 -23.9 -1.5 -24.35 L-0.95 -24.95 Q-0.45 -26.1 -1.35 -26.45 L0.5 -26.55 1.05 -26.5 1.1 -26.05 1.15 -25.85 1.15 -25.75 1.25 -24.95 1.3 -24.55 1.45 -23.05 1.5 -22.5 1.25 -22.5 1.05 -22.45 0.4 -22.2 -0.2 -21.85 1.5 -14.5 1.9 -14.2 2.0 -14.2 2.55 -14.25 3.25 -14.2 5.5 -14.15 Q6.55 -14.0 7.75 -13.45 L9.15 -12.85 9.2 -12.85 9.25 -12.75 M-3.05 -26.1 L-3.1 -26.4 -2.4 -26.4 -2.6 -26.35 -3.05 -26.1 M-2.35 -29.3 L-3.25 -29.0 -4.3 -32.2 Q-3.9 -31.95 -3.1 -32.2 L-2.5 -32.75 Q-1.85 -34.05 -3.1 -34.45 L-2.7 -34.5 -1.3 -34.55 -0.75 -34.45 -0.2 -29.95 -0.65 -29.65 -0.8 -29.6 -1.25 -29.55 -1.6 -29.45 -1.9 -29.4 -2.35 -29.3 M-3.8 -36.75 L-3.85 -36.9 -3.75 -36.9 -3.8 -36.75 M-3.95 -37.95 L-5.2 -37.75 -5.2 -37.85 -5.5 -38.95 -4.7 -38.75 Q-3.85 -38.65 -3.55 -39.4 -2.9 -40.65 -4.15 -41.0 L-1.9 -41.55 -1.65 -38.3 -3.95 -37.95 M-6.35 -37.75 L-9.7 -37.0 -10.3 -37.55 Q-14.15 -38.0 -17.55 -36.8 L-18.25 -36.55 -18.35 -36.2 -18.45 -36.0 -18.7 -35.4 Q-19.15 -34.65 -18.95 -33.8 L-18.9 -33.35 -19.15 -33.65 -19.8 -34.9 -20.2 -36.45 -20.45 -37.85 -19.1 -39.4 Q-17.7 -40.35 -16.05 -40.45 L-14.95 -40.4 -14.9 -40.65 -14.8 -40.95 Q-14.05 -42.65 -13.95 -44.55 L-14.1 -46.0 Q-14.85 -48.4 -17.35 -48.2 L-17.65 -48.0 -16.7 -49.35 Q-13.9 -52.6 -10.2 -54.5 L-9.9 -53.95 -9.85 -53.85 -9.7 -53.55 -9.25 -52.65 -9.05 -52.5 -8.8 -52.45 -8.6 -52.4 -8.65 -52.2 -8.7 -52.05 Q-8.55 -51.85 -8.1 -51.7 L-7.2 -51.6 -7.15 -51.6 -7.1 -51.6 -6.95 -51.6 -6.95 -51.1 Q-6.8 -50.3 -6.3 -50.1 L-7.15 -49.75 -7.35 -49.65 -7.55 -49.55 -7.9 -49.35 -8.1 -48.35 -8.1 -47.7 -8.05 -47.3 -7.95 -46.3 -7.8 -44.75 -7.75 -44.5 -5.95 -43.55 -5.95 -42.65 -5.45 -41.55 -5.75 -41.4 -6.7 -40.85 -6.25 -37.8 -6.35 -37.75 M-40.7 -48.5 L-41.3 -48.4 -43.5 -48.35 Q-43.6 -49.5 -44.35 -49.9 L-42.75 -50.2 -41.25 -49.95 -40.4 -48.55 -40.7 -48.5 M-46.1 -46.45 L-46.35 -46.2 -46.45 -44.5 -47.8 -45.85 -47.8 -46.5 -47.85 -46.9 -47.3 -48.35 -46.75 -47.05 -46.1 -46.45 M-48.9 -47.15 L-48.95 -47.15 -48.9 -47.2 -48.45 -47.8 -48.7 -47.05 -48.9 -47.15 M-50.9 -48.6 L-52.0 -50.15 -52.05 -50.2 -51.65 -51.35 Q-51.45 -50.65 -50.6 -50.55 L-50.0 -50.5 -49.5 -51.15 -50.45 -49.55 -50.65 -48.55 -50.9 -48.6 M-47.25 -54.95 L-47.1 -55.05 Q-44.2 -56.2 -41.2 -55.5 L-41.15 -53.9 -41.55 -53.35 -42.2 -52.7 -41.65 -53.25 -43.7 -53.5 -43.75 -53.5 -44.8 -53.5 -46.85 -52.8 Q-46.65 -53.4 -46.85 -54.1 L-47.25 -54.95 M-40.9 -52.3 L-39.05 -53.2 -37.85 -52.05 -30.65 -54.5 Q-26.35 -55.65 -21.85 -56.2 L-18.15 -56.55 -18.3 -55.1 Q-18.4 -54.0 -18.95 -53.05 L-20.45 -50.95 Q-21.4 -49.8 -22.5 -48.8 L-25.15 -49.25 -33.8 -49.7 -34.55 -49.65 -36.7 -49.35 Q-36.8 -50.35 -37.6 -51.25 L-37.95 -51.85 -38.0 -52.0 -39.05 -51.55 -40.8 -50.7 -40.9 -50.9 -40.95 -50.95 -42.6 -51.4 -40.9 -52.3 M-18.3 -57.8 L-13.45 -58.05 -12.85 -56.85 -13.25 -56.85 -16.9 -56.6 -17.0 -56.6 -18.15 -56.55 -18.3 -57.8 M-12.3 -58.3 Q-13.1 -60.25 -14.7 -61.75 L-14.25 -62.1 -12.25 -63.2 -11.9 -63.35 -11.85 -63.3 -9.8 -59.8 -4.1 -60.45 -2.85 -64.5 -0.7 -63.95 -1.25 -59.2 -1.6 -56.75 -1.8 -56.75 Q-2.5 -56.5 -2.5 -57.05 L-2.5 -57.1 -2.6 -57.75 -2.9 -58.4 -2.95 -58.65 Q-5.35 -59.4 -7.9 -58.6 L-9.65 -57.85 -10.05 -56.55 -10.05 -56.4 -10.25 -55.25 -10.35 -55.4 -10.8 -55.6 -10.95 -55.85 -12.3 -58.3 M-11.15 -63.6 L-10.45 -63.75 -7.0 -64.55 -3.8 -64.55 -3.55 -64.55 -4.6 -61.05 Q-7.2 -61.45 -9.5 -60.5 L-11.5 -63.45 -11.15 -63.6 M0.25 -55.3 L1.9 -54.5 3.45 -53.45 4.0 -53.3 4.3 -53.0 5.0 -52.3 6.3 -51.15 7.65 -49.65 7.55 -49.5 7.35 -49.2 6.7 -48.25 6.85 -48.2 6.8 -48.2 6.25 -48.2 5.4 -48.35 2.3 -48.15 2.4 -48.2 1.55 -48.1 1.5 -48.0 -0.65 -47.15 Q-0.9 -49.15 -2.15 -50.4 L-1.95 -50.2 Q-1.55 -50.4 -1.2 -50.75 0.45 -52.4 0.3 -54.75 L0.25 -55.3 M3.45 -51.7 L3.3 -51.35 3.45 -51.45 3.45 -51.7 M22.9 -32.15 Q22.3 -32.2 22.05 -31.65 21.35 -30.25 22.9 -30.05 L23.45 -30.25 Q24.6 -31.6 22.9 -32.15 M36.75 -28.05 L35.9 -28.45 35.2 -27.75 35.2 -27.65 34.45 -28.05 Q33.95 -28.1 33.6 -27.65 L33.35 -27.15 33.05 -27.35 33.1 -27.4 33.35 -27.85 Q34.45 -29.7 32.25 -30.1 L31.8 -30.0 31.4 -29.9 Q30.95 -29.55 30.9 -29.0 L30.95 -28.35 30.4 -28.45 Q29.55 -28.1 29.4 -27.1 29.35 -26.7 29.45 -26.4 L29.2 -26.45 28.7 -26.35 28.35 -26.25 28.1 -25.85 27.95 -24.9 26.4 -25.2 26.15 -25.05 26.0 -25.0 26.0 -24.95 25.95 -25.15 26.4 -25.2 26.95 -25.35 27.5 -26.15 Q27.85 -26.95 27.65 -27.4 L28.1 -27.4 28.3 -27.55 Q28.65 -28.05 28.6 -28.35 29.0 -28.3 29.6 -28.8 31.15 -29.95 29.5 -30.75 L28.15 -30.15 Q27.6 -29.8 27.8 -29.2 L27.95 -28.85 27.55 -28.95 27.2 -28.6 Q26.95 -28.2 27.1 -27.85 L26.1 -28.0 25.8 -27.95 26.0 -28.2 Q27.15 -29.55 25.45 -30.1 L24.65 -29.95 Q24.05 -29.8 23.85 -29.25 L23.8 -29.0 22.75 -29.25 Q22.45 -29.75 21.55 -30.0 19.25 -29.95 18.85 -27.9 18.75 -27.45 19.1 -27.15 19.45 -26.85 19.8 -26.7 L19.55 -26.3 19.5 -26.05 18.3 -27.15 Q18.85 -28.25 17.6 -28.75 L18.25 -29.55 Q19.2 -31.05 17.45 -31.55 L16.7 -31.4 15.95 -30.8 Q14.9 -33.45 15.1 -36.95 15.2 -38.85 16.75 -40.0 L18.25 -41.0 22.55 -39.35 28.5 -36.05 32.25 -33.2 34.55 -30.8 34.65 -30.65 36.6 -28.25 36.65 -28.2 36.75 -28.05 M15.8 -13.65 L15.6 -14.5 Q15.25 -14.8 15.25 -15.3 L15.5 -15.75 15.8 -15.8 Q17.6 -14.75 18.35 -12.75 L19.1 -10.0 Q19.8 -6.35 19.2 -2.75 L18.75 -0.45 18.5 0.5 18.45 0.65 17.7 1.8 Q17.0 2.45 16.3 1.8 L16.2 1.7 16.4 0.9 16.95 -1.35 17.0 -1.75 17.45 -4.8 Q17.7 -7.65 17.15 -10.25 16.75 -12.1 15.8 -13.65 M37.4 -27.1 L36.65 -26.05 36.6 -26.25 36.75 -26.55 Q37.1 -27.3 36.95 -27.8 L37.4 -27.1 M30.7 -25.35 L31.7 -25.55 32.25 -25.1 32.45 -25.1 32.4 -24.9 31.75 -25.1 30.85 -24.9 30.6 -24.65 30.7 -25.35 M24.9 -26.1 L24.1 -26.25 24.05 -27.15 24.1 -27.35 24.2 -27.85 25.25 -27.8 Q24.75 -27.4 24.8 -26.8 L24.9 -26.1 M22.5 -24.3 L21.85 -24.6 22.5 -24.5 22.5 -24.3 M20.15 8.95 L20.2 9.0 Q21.5 11.75 20.2 14.3 L19.8 15.0 19.6 14.75 19.95 14.15 20.0 13.8 19.7 13.2 19.5 13.0 18.7 12.95 18.45 13.05 17.95 13.85 17.95 14.25 Q17.55 14.4 17.35 14.85 L17.2 15.3 16.7 15.05 Q15.9 15.1 15.4 15.5 14.85 15.85 14.55 16.6 L14.45 17.0 14.4 17.0 Q13.05 17.0 12.85 18.35 L12.85 18.55 12.65 17.65 13.45 16.7 14.05 15.6 14.9 15.6 15.35 15.45 15.75 15.25 16.3 14.9 Q16.6 14.4 16.45 13.9 L16.2 13.3 15.85 13.15 14.5 12.95 13.9 13.35 13.8 13.45 13.25 14.1 12.5 13.8 Q11.75 13.8 11.1 14.3 9.3 15.6 10.0 16.95 L9.3 17.65 Q8.45 18.85 9.05 19.8 L8.0 19.5 7.95 19.85 7.85 20.7 7.95 20.05 Q8.5 24.7 9.9 29.2 10.7 31.9 11.9 34.4 L13.0 36.55 12.65 36.6 11.6 37.1 Q10.4 36.6 9.9 35.35 L9.05 33.15 7.7 29.5 7.45 28.8 Q5.4 23.25 4.65 17.6 4.4 15.85 4.3 14.1 L4.25 13.8 Q4.15 12.45 4.55 11.2 L4.5 11.15 4.6 10.6 4.65 10.55 5.25 9.3 5.25 9.4 5.55 8.85 Q6.05 8.1 6.75 7.75 8.7 7.0 10.75 6.55 L14.5 7.3 16.2 7.75 16.25 7.8 16.3 7.7 17.95 8.05 18.25 8.15 20.0 8.85 20.15 8.95 M16.05 25.6 Q16.45 25.15 17.15 25.1 L17.5 25.05 Q19.65 25.95 21.2 27.85 L22.9 29.4 23.2 29.6 22.75 29.9 21.65 30.55 Q19.45 28.65 16.85 27.25 L16.1 26.45 16.0 26.35 15.9 26.05 16.0 25.65 16.05 25.6 M23.7 16.45 Q24.15 15.95 24.95 16.0 27.15 16.4 28.8 17.65 29.6 18.25 29.85 19.1 L29.3 19.55 28.55 20.1 Q26.35 18.8 23.85 18.1 L23.4 17.6 Q23.2 17.3 23.4 16.9 L23.45 16.8 23.7 16.45 M13.25 11.35 L12.75 11.2 Q11.25 11.5 11.4 13.1 11.45 13.65 11.95 13.7 13.25 13.85 13.65 13.3 14.05 12.7 13.6 11.5 L13.25 11.35 M8.8 17.65 L9.05 17.4 Q10.35 15.55 7.95 15.25 L7.45 15.8 Q6.75 16.95 7.85 17.65 L8.8 17.65 M9.9 13.25 L9.15 13.2 9.1 13.25 8.85 13.3 8.7 13.5 8.55 13.7 8.5 14.3 8.5 14.5 8.75 14.85 9.0 15.05 9.8 15.1 9.95 15.0 10.35 14.4 10.45 14.05 10.1 13.5 9.9 13.25 M12.2 20.0 L12.8 18.7 Q12.75 19.4 12.95 19.85 L12.2 20.0 M15.3 39.8 Q16.55 38.3 18.3 37.15 L18.75 36.8 20.55 35.45 22.3 34.25 22.55 34.05 29.55 28.75 30.05 28.35 Q31.05 28.6 30.95 29.6 L22.75 35.55 20.3 37.4 19.25 38.2 Q17.55 39.6 16.1 41.3 15.2 42.35 14.7 43.7 14.05 45.35 13.75 47.15 L12.25 47.65 12.25 47.6 12.25 47.35 12.5 45.9 12.55 45.7 Q13.3 42.55 15.4 40.05 L15.3 39.8 M-2.75 40.45 L-2.65 40.45 0.55 39.8 4.35 39.9 5.05 40.35 Q5.7 40.8 5.7 41.55 5.9 45.1 2.25 46.05 -1.15 46.95 -2.85 44.15 -4.0 42.2 -2.75 40.45 M-11.95 -51.55 L-13.05 -51.15 Q-14.2 -50.45 -14.2 -49.2 L-14.1 -48.9 -11.35 -49.0 Q-10.85 -49.4 -10.75 -49.95 -10.45 -51.45 -11.95 -51.55 M-6.85 -57.75 L-5.4 -57.85 -3.95 -57.7 -3.65 -56.6 Q-3.3 -55.05 -3.4 -53.5 L-8.25 -52.7 -9.4 -56.7 -9.35 -56.8 -9.35 -56.85 -9.15 -56.95 Q-9.35 -56.4 -8.95 -55.6 -8.3 -54.3 -6.9 -55.1 -6.2 -55.5 -6.15 -56.35 -6.1 -57.45 -6.85 -57.75 M-42.2 -19.0 L-42.15 -19.2 -41.65 -20.5 Q-40.6 -23.0 -39.05 -25.35 -35.0 -31.45 -28.55 -34.9 L-27.7 -35.3 -27.6 -35.35 Q-24.7 -33.6 -24.55 -29.1 L-24.65 -27.05 -25.35 -27.35 -26.0 -27.05 Q-26.95 -26.05 -25.75 -25.35 L-25.15 -25.2 -25.4 -24.4 -26.95 -24.75 -27.0 -24.7 -27.1 -24.6 Q-27.15 -25.5 -28.45 -25.85 -29.55 -25.85 -29.85 -24.7 -30.15 -23.75 -29.5 -23.1 -30.35 -22.95 -30.8 -22.25 L-31.75 -22.45 Q-32.75 -22.0 -32.65 -20.95 L-32.65 -20.8 -33.75 -20.95 -34.0 -20.8 -34.15 -20.75 Q-34.95 -20.1 -34.8 -19.15 L-35.05 -19.15 -35.45 -18.9 Q-34.75 -19.9 -35.75 -20.7 L-36.45 -20.75 -37.0 -20.25 Q-38.1 -18.5 -36.1 -18.3 L-35.85 -18.45 Q-36.1 -18.0 -36.0 -17.35 -35.8 -16.4 -35.25 -16.15 L-36.3 -16.25 -36.3 -16.2 -36.55 -16.1 -36.7 -16.05 Q-37.3 -15.6 -37.35 -14.9 -37.4 -15.6 -38.45 -16.0 L-38.85 -15.95 -38.95 -15.9 -39.5 -15.25 Q-41.1 -16.5 -42.2 -19.0 M-22.95 6.7 L-24.0 5.85 -24.1 5.7 -25.15 4.3 -25.2 4.25 -27.35 0.45 -28.0 -0.75 Q-29.7 -3.6 -32.9 -4.95 L-33.3 -5.1 -33.8 -5.5 -34.05 -5.8 -34.05 -6.2 -33.95 -6.25 -33.05 -6.7 Q-29.5 -5.6 -26.75 -3.0 -25.2 -1.55 -24.25 0.35 -22.95 2.7 -22.15 5.3 L-22.1 5.45 -22.1 5.6 Q-22.05 6.2 -22.65 6.55 L-22.95 6.7 M-7.15 -47.1 L-7.1 -46.9 Q-6.45 -46.45 -5.6 -46.6 -5.35 -46.65 -5.15 -46.8 -4.55 -47.25 -4.55 -48.05 -4.55 -48.85 -5.0 -49.25 L-4.75 -49.3 -2.6 -49.5 -1.65 -46.15 Q-2.1 -45.45 -2.0 -44.85 L-2.1 -44.8 -6.7 -44.95 -7.15 -47.1 M-4.75 -40.8 L-5.35 -40.6 -5.6 -40.3 -5.75 -39.95 -5.8 -40.1 -5.9 -40.4 -4.75 -40.8 M-21.75 -30.3 L-19.6 -31.65 -18.85 -32.2 Q-18.75 -31.5 -18.3 -30.85 L-15.75 -27.35 -16.1 -26.0 -15.55 -23.8 -19.85 -24.95 -21.75 -30.3 M-34.15 -14.25 L-34.15 -14.3 -34.1 -14.25 -34.15 -14.25 M-34.95 -16.1 L-34.25 -16.15 -34.35 -15.7 -34.95 -16.1 M-30.9 -15.6 L-31.0 -15.5 -31.0 -15.65 -30.9 -15.6 M-32.3 -17.7 L-32.25 -17.1 -33.1 -17.2 -33.1 -17.55 -32.3 -17.7 M-37.55 -14.3 L-37.4 -14.7 -37.4 -14.4 -37.35 -14.25 -37.55 -14.3 M-40.15 -16.75 Q-39.65 -16.45 -39.2 -16.85 -38.0 -18.0 -39.65 -18.6 -40.1 -18.65 -40.35 -18.3 -41.1 -17.35 -40.15 -16.75 M-36.9 -18.35 L-37.65 -18.35 -38.1 -17.95 Q-38.85 -16.8 -37.65 -16.05 L-36.9 -16.05 -36.45 -16.45 Q-35.7 -17.65 -36.9 -18.35 M-31.6 -19.7 L-31.25 -19.75 -31.45 -18.95 -31.6 -18.9 -31.65 -18.85 -31.6 -19.7 M-28.05 -19.4 L-27.85 -19.4 -28.0 -19.2 -28.05 -19.4 M-32.35 -24.85 L-32.45 -24.85 -32.95 -24.35 Q-33.4 -23.6 -32.85 -22.95 L-31.55 -22.9 Q-30.3 -24.3 -32.0 -24.9 L-32.35 -24.85 M-1.6 9.0 L-5.25 9.3 -6.3 9.45 Q-7.85 9.8 -9.1 10.5 -8.6 10.95 -8.3 11.75 L-8.6 11.45 -9.7 11.4 Q-10.35 11.7 -10.7 12.35 -11.25 13.3 -11.15 13.95 L-11.25 13.9 -11.7 14.0 Q-12.45 14.15 -12.75 14.55 -13.05 14.3 -13.6 14.1 L-14.15 14.35 Q-15.7 15.45 -14.15 16.55 L-13.2 16.6 -13.45 16.95 Q-13.95 18.05 -13.55 18.65 -14.15 18.85 -14.5 19.5 -15.1 20.5 -14.85 21.3 -15.15 22.65 -15.8 23.9 L-16.4 25.05 -18.5 27.95 -18.55 27.95 -19.15 28.65 -20.3 29.7 -20.55 29.9 -20.7 29.8 -19.8 27.8 -17.2 23.4 Q-16.65 22.5 -16.85 21.55 L-16.95 21.2 Q-17.25 20.25 -18.05 19.55 -19.75 19.1 -21.25 19.8 L-23.85 20.95 -25.45 21.65 -26.95 20.55 -27.4 19.95 -27.5 19.6 -27.15 18.55 -26.85 18.05 -26.8 17.95 -26.75 17.85 -23.05 13.65 -21.55 12.65 -17.45 10.6 Q-14.65 9.35 -11.7 8.35 L-11.15 8.2 -9.75 7.85 -5.1 7.55 -2.6 8.35 Q-2.05 8.6 -1.6 9.0 M-8.85 27.3 L-8.55 27.0 -8.45 27.0 -8.05 26.95 Q-6.6 27.45 -6.65 29.15 -6.75 31.9 -8.35 34.2 L-9.15 35.2 -9.7 35.85 -9.95 36.1 -10.35 35.5 -10.65 34.7 Q-9.15 32.45 -8.45 30.0 -8.1 28.8 -8.8 27.9 L-9.05 27.65 -8.85 27.3 M-10.85 17.35 Q-11.0 16.9 -11.4 16.55 L-11.15 16.4 -10.85 16.25 Q-10.9 16.85 -10.35 17.2 L-10.85 17.35 M-14.95 17.15 L-15.05 16.95 Q-15.3 16.35 -16.0 16.25 L-16.4 16.3 -16.95 16.8 Q-17.25 18.35 -15.6 18.25 L-15.25 17.9 Q-14.95 17.55 -14.95 17.15 M-13.0 16.45 L-12.75 16.2 -12.7 16.3 -12.8 16.3 -13.0 16.45 M-8.0 15.2 L-8.6 14.65 -8.5 14.5 -7.95 13.8 -8.0 15.2 M-8.3 16.55 L-8.35 16.65 -8.75 17.7 -9.35 17.4 -9.05 17.2 -8.3 16.55" fill="#666666" fill-rule="evenodd" stroke="none"/>
    <path d="M34.9 -53.8 L35.5 -53.4 35.95 -52.3 35.5 -51.8 Q32.8 -50.65 30.45 -52.7 L30.2 -53.1 30.15 -53.25 29.7 -53.7 30.3 -54.6 31.2 -54.6 30.65 -54.6 30.65 -54.1 30.75 -53.8 Q31.05 -52.9 32.05 -52.7 L32.15 -52.65 33.65 -52.55 34.6 -53.15 34.9 -53.8 M-41.35 -47.55 L-40.7 -47.75 -39.85 -46.6 -39.8 -46.55 Q-40.3 -44.8 -41.8 -44.05 L-45.55 -43.9 -45.7 -45.25 -45.35 -45.85 -45.1 -45.5 Q-44.0 -44.4 -42.4 -44.85 L-42.0 -45.0 Q-41.3 -45.4 -41.1 -46.2 -40.9 -47.0 -41.35 -47.55" fill="#822b00" fill-rule="evenodd" stroke="none"/>
    <path d="M31.2 -54.6 L33.45 -54.7 34.9 -53.8 34.6 -53.15 33.65 -52.55 32.15 -52.65 32.05 -52.7 Q31.05 -52.9 30.75 -53.8 L30.65 -54.1 30.65 -54.6 31.2 -54.6 M-45.35 -45.85 Q-44.1 -47.7 -41.5 -47.65 L-41.35 -47.55 Q-40.9 -47.0 -41.1 -46.2 -41.3 -45.4 -42.0 -45.0 L-42.4 -44.85 Q-44.0 -44.4 -45.1 -45.5 L-45.35 -45.85" fill="#cc3300" fill-rule="evenodd" stroke="none"/>
    <path d="M1.9 -39.4 Q4.65 -40.75 7.35 -39.65 L7.5 -39.5 Q8.95 -38.0 7.7 -36.0 L7.1 -35.2 6.5 -34.65 6.4 -34.65 6.3 -34.4 Q6.4 -33.0 7.25 -31.55 L6.35 -31.25 4.25 -31.05 3.35 -31.2 4.0 -34.2 3.3 -34.8 Q1.45 -35.3 1.1 -37.35 L1.0 -38.1 1.9 -39.4 M6.45 -37.1 Q6.4 -37.55 5.95 -37.9 5.4 -38.25 4.65 -38.25 L3.4 -37.9 Q2.85 -37.55 2.85 -37.05 2.85 -36.6 3.3 -36.25 L3.45 -36.65 3.3 -36.3 3.55 -35.95 Q4.35 -35.3 5.5 -35.65 6.45 -35.9 6.5 -36.9 L6.5 -37.05 6.45 -37.1 M5.25 -7.55 L4.15 -7.3 Q2.9 -6.9 1.95 -5.85 L1.55 -5.1 1.75 -5.55 0.65 -5.65 -0.95 -5.15 -1.65 -4.6 Q-2.05 -5.25 -2.8 -5.6 L-3.5 -5.9 -4.5 -6.1 -6.1 -5.85 -6.45 -5.65 -6.55 -5.75 -7.4 -6.95 -8.45 -8.7 -8.75 -9.4 Q-8.85 -10.1 -8.15 -10.3 L-7.8 -10.55 -7.4 -10.9 -7.35 -10.6 -7.0 -10.4 -6.6 -10.2 -5.75 -10.4 -5.5 -11.1 Q-5.5 -11.95 -5.8 -12.6 L-5.35 -13.05 -4.75 -13.3 -4.3 -13.4 -4.15 -13.4 -3.75 -12.0 -3.7 -11.05 -3.55 -10.55 Q-3.35 -10.5 -3.25 -10.65 L-3.15 -10.7 Q-2.9 -10.95 -2.75 -11.3 -1.9 -13.55 -3.45 -15.7 -4.15 -16.6 -5.2 -16.95 L-6.9 -17.4 -6.6 -17.35 -7.3 -17.65 -7.0 -18.05 -5.95 -18.75 -4.9 -18.95 -2.65 -18.55 -2.5 -18.0 -2.75 -19.05 -3.1 -20.4 Q-5.6 -22.3 -5.3 -25.05 L-7.05 -25.25 -7.4 -24.95 -7.4 -24.9 -7.45 -24.85 -7.9 -24.4 Q-8.1 -22.9 -9.7 -22.3 L-10.8 -21.75 -11.45 -21.4 -11.5 -21.6 -11.55 -21.0 -11.6 -20.65 Q-13.25 -20.75 -14.55 -21.7 L-14.55 -22.8 -14.45 -23.7 -14.35 -23.65 Q-11.9 -21.75 -9.05 -23.25 -8.2 -23.7 -7.85 -24.6 -7.2 -26.2 -8.85 -26.5 L-9.25 -26.35 -10.55 -25.65 -10.8 -25.55 Q-11.0 -26.8 -10.2 -27.6 -9.75 -28.15 -8.9 -28.5 L-8.65 -28.7 -8.6 -28.8 -8.55 -28.85 -8.55 -28.9 -8.6 -28.9 -8.65 -28.95 -9.05 -29.25 -8.55 -29.1 -8.55 -29.25 -8.95 -30.6 -9.35 -31.4 -10.1 -32.75 -10.25 -32.9 -10.65 -33.35 -10.65 -33.5 -10.2 -34.1 Q-8.9 -34.85 -7.4 -34.85 L-7.1 -34.6 -6.1 -34.0 -5.8 -32.6 -5.5 -32.95 -5.3 -31.95 -4.9 -30.8 Q-5.7 -29.9 -6.9 -29.9 L-6.8 -29.05 -6.75 -28.35 -5.85 -27.65 Q-5.75 -27.5 -5.55 -27.5 -4.55 -27.5 -3.75 -28.1 L-3.65 -28.0 -3.6 -28.0 -3.35 -28.0 -3.05 -27.6 -3.1 -27.25 -3.2 -26.95 -3.95 -26.55 -3.95 -26.5 -3.8 -25.05 -3.55 -22.15 -2.6 -21.55 -1.8 -21.65 -1.5 -19.45 -1.25 -18.05 -0.35 -13.15 0.2 -11.3 0.35 -11.1 5.0 -11.35 5.25 -11.35 5.25 -10.25 5.25 -7.55 M-14.35 -25.3 L-14.45 -25.45 -13.8 -25.6 -13.65 -25.55 -14.35 -25.3 M-7.9 -35.2 L-7.9 -35.25 -7.7 -35.05 -7.85 -35.2 -7.9 -35.2 M-2.7 -8.7 Q-2.85 -7.8 -1.95 -7.5 L-1.6 -7.4 -1.25 -7.2 -1.6 -7.05 Q-0.65 -7.55 0.55 -6.85 L0.8 -6.85 1.25 -7.35 Q2.25 -8.4 3.5 -9.05 L3.0 -9.15 2.6 -9.2 Q2.65 -9.9 1.85 -10.35 L1.45 -10.55 Q0.7 -10.9 -0.15 -10.85 L-0.5 -10.8 Q-2.2 -10.6 -2.65 -9.0 L-2.7 -8.7 M-13.35 -25.5 L-11.85 -25.25 -13.1 -25.45 -13.35 -25.5" fill="#6b6942" fill-rule="evenodd" stroke="none"/>
    <path d="M3.45 -36.65 L3.7 -36.9 Q4.0 -37.2 4.5 -37.3 L4.55 -37.3 4.7 -37.35 Q5.9 -37.5 6.2 -36.5 L6.25 -36.45 6.45 -37.05 6.5 -37.05 6.5 -36.9 Q6.45 -35.9 5.5 -35.65 4.35 -35.3 3.55 -35.95 L3.3 -36.3 3.45 -36.65 M-14.45 -25.45 L-14.7 -25.9 -14.65 -26.2 -13.25 -26.35 -12.2 -26.45 -11.7 -26.8 -10.8 -27.15 -10.9 -27.25 -10.2 -27.6 Q-11.0 -26.8 -10.8 -25.55 L-11.7 -25.25 -11.85 -25.25 -13.35 -25.5 -13.65 -25.55 -13.8 -25.6 -14.45 -25.45 M-17.9 -33.4 L-17.8 -35.95 -17.7 -36.0 -16.05 -36.2 -14.4 -36.3 -14.45 -35.65 Q-14.65 -35.05 -15.1 -34.65 -16.0 -33.9 -17.05 -33.55 L-17.9 -33.4 M-0.15 -10.85 L0.2 -9.65 0.0 -9.15 Q-1.0 -7.85 -2.6 -8.65 L-2.7 -8.7 -2.65 -9.0 Q-2.2 -10.6 -0.5 -10.8 L-0.15 -10.85 M-7.45 -24.85 L-7.4 -24.9 -7.4 -24.95 -7.05 -25.25 -5.3 -25.05 Q-5.6 -22.3 -3.1 -20.4 L-2.75 -19.05 -2.5 -18.0 -2.65 -18.55 -4.9 -18.95 -5.95 -18.75 -6.5 -19.6 -7.5 -22.45 Q-7.85 -23.7 -7.45 -24.85 M-6.85 -17.25 L-6.25 -16.75 Q-6.0 -16.4 -6.0 -15.7 -6.0 -15.15 -6.4 -14.8 -6.8 -14.5 -7.15 -14.35 L-7.25 -14.4 -7.9 -14.75 -8.05 -14.2 -9.05 -14.55 Q-9.5 -14.85 -9.5 -15.4 -9.45 -16.85 -7.95 -17.2 L-7.2 -17.35 -6.85 -17.25" fill="#999900" fill-rule="evenodd" stroke="none"/>
    <path d="M6.45 -37.05 L6.45 -37.1 6.5 -37.05 6.45 -37.05 M-6.45 -5.65 L-7.45 -4.75 -7.35 -4.7 -6.9 -4.8 -7.05 -4.7 -7.25 -4.5 -7.45 -4.3 -7.5 -4.75 -7.55 -4.9 -7.95 -4.85 -9.65 -7.2 Q-10.9 -8.8 -11.25 -10.95 L-11.3 -12.8 Q-10.95 -15.5 -11.0 -18.3 -11.0 -19.95 -11.45 -21.4 L-10.8 -21.75 -9.7 -22.3 Q-8.1 -22.9 -7.9 -24.4 L-7.45 -24.85 Q-7.85 -23.7 -7.5 -22.45 L-6.5 -19.6 -5.95 -18.75 -7.0 -18.05 -7.3 -17.65 -6.6 -17.35 -6.9 -17.4 -7.2 -17.5 -6.85 -17.25 -7.2 -17.35 -7.95 -17.2 Q-9.45 -16.85 -9.5 -15.4 -9.5 -14.85 -9.05 -14.55 L-8.05 -14.2 Q-8.1 -13.65 -7.65 -13.0 L-7.2 -12.25 -7.4 -11.7 -7.4 -10.9 -7.8 -10.55 -8.15 -10.3 Q-8.85 -10.1 -8.75 -9.4 L-8.45 -8.7 -7.4 -6.95 -6.55 -5.75 -6.45 -5.65 M-5.6 -5.1 L-4.5 -5.35 -2.85 -4.45 Q-2.35 -3.65 -2.2 -2.55 L-2.15 -2.4 -2.15 -2.3 -2.2 -1.75 -2.45 0.15 -2.45 3.05 -4.85 1.75 -4.85 1.15 -4.65 -3.25 -4.65 -3.35 -4.55 -4.3 -5.1 -4.7 -5.6 -5.1 M-6.65 -0.25 L-7.0 -0.95 -6.9 -0.95 -6.95 -0.8 -6.65 -0.25 M-7.45 -2.75 L-7.45 -2.85 -7.4 -2.85 -7.45 -2.75 M-11.55 -21.0 L-12.0 -17.45 -14.15 -20.6 -14.55 -21.7 Q-13.25 -20.75 -11.6 -20.65 L-11.55 -21.0 M-10.9 -27.25 L-12.45 -27.45 Q-14.7 -27.2 -16.25 -28.85 L-18.0 -30.9 -17.9 -33.4 -17.05 -33.55 Q-16.0 -33.9 -15.1 -34.65 -14.65 -35.05 -14.45 -35.65 L-14.4 -36.3 -9.65 -36.15 -7.9 -35.2 -7.85 -35.2 -7.7 -35.05 -7.3 -34.85 -7.4 -34.85 Q-8.9 -34.85 -10.2 -34.1 L-10.65 -33.5 -10.65 -33.35 -10.25 -32.9 -10.95 -33.65 Q-13.05 -34.7 -15.3 -34.0 L-16.95 -33.25 -16.7 -33.0 -15.95 -33.1 Q-15.6 -31.3 -14.3 -30.25 -12.95 -29.1 -11.0 -29.25 L-9.75 -29.45 -9.05 -29.25 -8.65 -28.95 -8.6 -28.9 -8.55 -28.9 -8.55 -28.85 -8.6 -28.8 -8.65 -28.7 -8.9 -28.5 Q-9.75 -28.15 -10.2 -27.6 L-10.9 -27.25 M-17.8 -35.95 L-17.8 -36.0 -17.7 -36.0 -17.8 -35.95 M5.85 -6.4 L6.1 -6.45 6.85 -6.6 7.05 -6.6 8.45 -6.35 8.85 -3.95 8.7 -2.75 Q8.0 0.3 5.25 1.7 L5.3 0.65 5.25 -0.6 6.7 -3.05 Q7.1 -3.75 6.6 -4.45 5.8 -5.6 5.85 -6.4 M-0.15 -10.85 Q0.7 -10.9 1.45 -10.55 L1.85 -10.35 Q2.65 -9.9 2.6 -9.2 L3.0 -9.15 3.5 -9.05 Q2.25 -8.4 1.25 -7.35 L0.8 -6.85 0.55 -6.85 Q-0.65 -7.55 -1.6 -7.05 L-1.25 -7.2 -1.6 -7.4 -1.95 -7.5 Q-2.85 -7.8 -2.7 -8.7 L-2.6 -8.65 Q-1.0 -7.85 0.0 -9.15 L0.2 -9.65 -0.15 -10.85 M-4.15 -13.4 L-4.3 -13.4 -4.75 -13.3 -5.35 -13.05 -5.8 -12.6 Q-6.2 -13.65 -7.15 -14.35 -6.8 -14.5 -6.4 -14.8 -6.0 -15.15 -6.0 -15.7 -6.0 -16.4 -6.25 -16.75 L-5.15 -15.95 -4.75 -14.65 -4.2 -13.45 -4.15 -13.4" fill="#87875a" fill-rule="evenodd" stroke="none"/>
    <path d="M-32.75 10.4 L-32.95 8.5 Q-32.65 8.05 -32.6 7.4 -32.4 2.15 -33.45 -2.9 L-33.65 -4.2 Q-32.05 -3.7 -30.8 -2.4 L-29.45 -0.8 Q-29.9 0.1 -29.75 1.3 L-29.35 4.35 Q-29.25 5.15 -28.65 5.7 -26.2 8.1 -22.75 7.7 L-22.7 7.7 -21.9 7.85 -21.1 8.0 -19.7 8.15 -16.55 7.2 -15.65 6.9 -14.05 6.15 -13.75 5.95 -13.5 4.75 -13.6 4.5 -13.8 3.95 Q-12.45 2.6 -12.4 0.45 -12.4 -0.3 -12.55 -1.05 -13.25 -4.2 -16.1 -4.75 L-16.1 -4.65 -16.15 -5.0 -16.15 -5.2 -16.15 -5.05 -15.5 -5.15 -14.15 -7.7 -12.2 -10.5 -11.75 -9.15 Q-10.85 -7.0 -9.2 -5.35 L-8.15 -4.45 Q-9.25 -0.95 -6.85 1.8 L-6.05 2.6 Q-4.65 3.75 -2.95 3.95 L-1.85 3.45 -1.15 0.2 -0.1 1.95 Q0.8 2.15 1.8 1.95 2.65 2.0 3.0 1.3 L3.45 0.35 3.75 -1.0 4.25 1.45 4.65 1.65 4.5 2.75 7.1 1.3 Q10.35 -0.95 10.1 -4.85 L9.8 -6.2 Q10.35 -6.6 10.4 -7.2 L10.6 -8.4 10.8 -10.35 10.4 -12.05 9.7 -13.25 9.8 -15.25 Q10.0 -15.1 10.2 -15.1 13.3 -13.2 14.25 -9.65 L14.6 -8.65 Q13.0 -7.75 12.05 -5.95 11.4 -4.75 11.3 -3.3 11.2 -1.9 12.1 -0.7 13.1 0.6 14.6 1.3 L14.7 1.35 14.5 2.1 14.5 2.15 14.5 2.35 14.5 2.45 Q15.55 3.2 16.65 3.7 18.3 4.5 20.15 4.8 L22.95 5.0 23.05 5.0 24.1 3.7 25.1 3.45 25.25 3.4 Q26.9 3.55 28.4 2.35 L29.5 1.35 29.85 0.8 Q30.85 -1.6 29.7 -4.05 L29.65 -4.15 29.95 -4.2 31.6 -4.85 34.7 -6.15 Q34.65 -3.75 35.05 -1.35 L34.35 2.5 32.5 10.0 31.85 9.9 31.85 9.95 Q30.65 10.7 29.9 12.15 L29.25 13.45 27.75 12.05 Q24.7 9.3 21.0 7.55 18.95 6.65 16.85 6.1 L16.9 6.3 13.85 5.65 12.85 5.55 12.65 5.4 9.55 5.35 Q7.15 5.6 5.35 7.15 L5.35 7.25 5.05 7.55 Q4.45 8.25 4.2 9.05 2.7 8.15 0.3 8.15 L-0.2 8.5 -1.0 7.8 Q-2.95 6.3 -5.7 6.1 -9.75 6.1 -13.75 7.25 -17.8 8.55 -21.3 10.85 -23.85 12.5 -26.05 14.65 -26.65 12.9 -28.3 12.15 L-28.65 12.2 -28.8 12.2 -29.2 12.6 Q-30.05 12.8 -30.8 13.25 L-30.95 13.1 -31.45 12.2 -32.75 10.4 M3.7 18.95 Q3.6 19.6 3.65 20.35 L3.6 20.9 Q3.35 23.6 3.55 26.35 3.95 31.0 6.0 35.1 L6.45 35.0 -2.4 34.7 -2.35 34.65 -2.35 34.7 -0.25 35.15 Q0.7 34.0 0.95 32.4 L1.2 30.1 Q1.45 25.4 0.85 20.8 L0.85 20.75 1.0 18.9 3.7 18.95 M-26.75 31.5 Q-26.4 32.05 -26.2 32.7 L-26.3 32.55 -26.7 32.05 -26.9 31.6 -26.75 31.5 M7.55 33.45 L8.0 34.6 7.9 34.65 7.75 33.95 7.55 33.45 M3.25 52.55 L4.65 52.75 4.35 52.4 6.8 52.2 9.3 51.25 9.65 50.7 Q9.5 50.05 10.15 49.35 L11.4 49.05 11.45 49.1 Q13.3 48.8 15.0 48.15 16.95 47.0 19.15 46.3 L19.4 46.1 19.6 45.8 20.25 45.45 25.35 42.6 27.25 40.95 28.7 39.55 30.15 37.65 30.2 38.35 30.35 39.25 28.8 40.8 Q26.45 42.6 24.4 44.75 L20.25 48.95 Q18.15 51.05 16.65 53.55 L13.45 58.55 10.15 63.15 Q7.15 64.25 3.95 64.35 L1.6 64.5 -2.7 64.25 -3.95 63.95 -5.35 63.6 -5.95 63.5 -7.1 62.4 -7.8 61.45 -10.4 57.0 -13.2 52.95 -16.15 49.55 -18.85 46.85 -21.75 44.3 -22.95 43.5 -26.25 41.0 -24.25 39.4 Q-23.6 38.8 -23.35 38.0 L-23.15 36.95 Q-21.1 38.85 -19.9 41.45 L-19.75 41.6 -17.55 43.95 -16.15 45.35 -15.95 45.55 -15.7 45.7 -15.35 45.9 -12.95 47.2 -10.65 48.0 -7.2 48.7 -5.9 49.15 -5.65 49.0 Q-4.4 48.8 -4.05 49.9 L-4.05 50.0 -3.9 50.3 -3.55 50.8 -3.1 51.2 Q-1.65 52.15 0.2 52.3 L0.9 52.35 0.85 52.45 2.3 52.45 3.25 52.45 3.25 52.55 M-25.95 35.2 L-25.65 34.3 -25.5 33.7 -25.7 33.4 -25.1 34.4 -24.95 34.75 -25.75 34.65 -25.95 35.2 M6.5 58.3 L6.85 58.15 6.5 58.3 M-4.05 52.0 Q-4.55 52.05 -4.9 52.35 -8.1 55.1 -6.05 59.1 -5.5 60.2 -4.45 60.75 -3.4 61.3 -2.6 61.4 -4.45 56.8 -4.05 52.0 M-10.05 51.4 L-10.1 51.4 -10.15 51.45 -10.05 51.4 M-13.2 49.95 L-13.15 49.9 -13.2 49.9 -13.2 49.95" fill="#330000" fill-rule="evenodd" stroke="none"/>
    <path d="M5.25 -11.35 Q7.1 -11.25 8.3 -9.9 L8.45 -9.75 8.5 -9.7 8.6 -9.55 8.7 -9.45 9.0 -6.9 Q8.75 -7.6 8.0 -7.5 L7.8 -7.55 6.4 -7.65 5.9 -7.65 5.8 -7.65 5.6 -7.6 5.4 -7.6 5.25 -7.55 5.25 -10.25 5.25 -11.35 M1.55 -5.1 L1.5 -4.45 1.5 -4.4 1.9 -3.95 Q0.35 -4.2 -1.15 -3.4 L-1.2 -3.55 Q-1.35 -4.15 -1.65 -4.6 L-0.95 -5.15 0.65 -5.65 1.75 -5.55 1.55 -5.1 M-14.45 -23.7 L-14.3 -25.25 -14.35 -25.3 -13.65 -25.55 -13.35 -25.5 -13.1 -25.45 -11.85 -25.25 -11.7 -25.25 -10.8 -25.55 -10.55 -25.65 -9.25 -26.35 -8.85 -26.5 Q-7.2 -26.2 -7.85 -24.6 -8.2 -23.7 -9.05 -23.25 -11.9 -21.75 -14.35 -23.65 L-14.45 -23.7 M-7.9 -35.55 L-8.2 -36.05 -8.2 -36.2 -8.15 -36.5 -6.65 -36.6 -5.85 -36.95 -4.95 -36.75 -4.8 -36.4 -4.5 -35.7 -4.25 -35.0 -5.45 -34.0 -5.5 -33.7 -5.5 -33.25 -5.5 -32.95 -5.8 -32.6 -6.1 -34.0 -7.1 -34.6 -7.9 -35.55 M-4.9 -30.8 L-4.35 -28.9 -3.85 -28.2 -3.75 -28.1 Q-4.55 -27.5 -5.55 -27.5 -5.75 -27.5 -5.85 -27.65 L-6.75 -28.35 -6.8 -29.05 -6.9 -29.9 Q-5.7 -29.9 -4.9 -30.8 M6.5 58.3 L6.85 58.15 6.5 58.3 M-14.5 -33.15 Q-14.7 -32.75 -14.35 -32.2 -13.55 -31.05 -12.3 -31.7 -11.65 -32.3 -12.0 -32.95 -10.85 -32.45 -10.25 -31.2 L-10.05 -30.8 -9.9 -30.3 -14.3 -31.4 -15.15 -32.75 -15.25 -32.95 -14.5 -33.15 M-6.9 -17.4 L-5.2 -16.95 Q-4.15 -16.6 -3.45 -15.7 -1.9 -13.55 -2.75 -11.3 -2.9 -10.95 -3.15 -10.7 L-3.25 -10.65 Q-3.35 -10.5 -3.55 -10.55 L-3.7 -11.05 -3.75 -12.0 -4.15 -13.4 -4.2 -13.45 -4.75 -14.65 -5.15 -15.95 -6.25 -16.75 -6.85 -17.25 -7.2 -17.5 -6.9 -17.4 M-5.8 -12.6 Q-5.5 -11.95 -5.5 -11.1 L-5.75 -10.4 -6.6 -10.2 -7.0 -10.4 -7.35 -10.6 -7.4 -10.9 -7.4 -11.7 -7.2 -12.25 -7.65 -13.0 Q-8.1 -13.65 -8.05 -14.2 L-7.9 -14.75 -7.25 -14.4 -7.15 -14.35 Q-6.2 -13.65 -5.8 -12.6" fill="#43432e" fill-rule="evenodd" stroke="none"/>
    <path d="M3.4 -1.9 L3.25 -1.85 Q2.35 -0.65 2.4 0.85 L0.5 1.3 -0.95 -0.6 -0.7 -1.8 -0.05 -2.2 1.6 -2.6 2.65 -2.8 3.25 -2.15 3.4 -1.9" fill="#993300" fill-rule="evenodd" stroke="none"/>
    <path d="M3.25 -1.85 L3.4 -1.9 3.7 -1.25 3.25 -1.85" fill="#717100" fill-rule="evenodd" stroke="none"/>
    <path d="M-6.9 -4.8 L-5.6 -5.1 -5.1 -4.7 -4.55 -4.3 -4.65 -3.35 -4.65 -3.25 -4.85 1.15 -4.85 1.75 -4.95 1.65 -6.65 -0.25 -6.95 -0.8 -6.9 -0.95 -7.0 -0.95 -7.1 -1.1 Q-7.5 -1.85 -7.45 -2.75 L-7.4 -2.85 -7.45 -2.85 -7.45 -4.3 -7.25 -4.5 -7.05 -4.7 -6.9 -4.8 M5.25 -0.6 Q4.85 -3.3 2.4 -4.75 3.35 -5.75 4.8 -6.1 L5.85 -6.4 Q5.8 -5.6 6.6 -4.45 7.1 -3.75 6.7 -3.05 L5.25 -0.6" fill="#d1db8a" fill-rule="evenodd" stroke="none"/>
    <path d="M-29.45 -0.8 L-29.4 -0.7 -29.35 -0.65 -29.3 -0.65 -29.0 -0.15 -28.0 1.55 -27.75 2.0 -27.7 2.1 -27.05 3.3 -26.95 3.45 -26.2 4.85 Q-25.5 6.15 -24.25 7.05 L-24.0 7.25 -22.95 7.65 -22.75 7.7 Q-26.2 8.1 -28.65 5.7 -29.25 5.15 -29.35 4.35 L-29.75 1.3 Q-29.9 0.1 -29.45 -0.8 M-13.8 3.95 L-13.9 3.65 -13.95 3.45 -14.1 3.0 -14.8 0.85 -15.8 -3.1 -15.95 -4.0 -16.05 -4.55 -16.05 -4.6 -16.1 -4.65 -16.1 -4.75 Q-13.25 -4.2 -12.55 -1.05 -12.4 -0.3 -12.4 0.45 -12.45 2.6 -13.8 3.95 M14.6 -8.65 Q15.2 -9.05 15.95 -9.25 L16.0 -8.95 16.15 -7.2 16.15 -6.95 16.15 -6.65 16.05 -4.7 16.05 -4.6 15.85 -3.45 15.1 -0.15 15.05 0.15 14.7 1.35 14.6 1.3 Q13.1 0.6 12.1 -0.7 11.2 -1.9 11.3 -3.3 11.4 -4.75 12.05 -5.95 13.0 -7.75 14.6 -8.65 M14.5 2.1 L14.5 2.35 14.5 2.15 14.5 2.1 M24.1 3.7 L24.6 2.95 25.2 1.95 26.25 -0.25 27.15 -2.45 27.3 -2.75 27.75 -3.7 28.85 -5.3 29.65 -4.15 29.7 -4.05 Q30.85 -1.6 29.85 0.8 L29.5 1.35 28.4 2.35 Q26.9 3.55 25.25 3.4 L25.1 3.45 24.1 3.7 M4.2 9.05 L4.0 9.9 3.9 10.5 3.75 10.3 Q3.25 14.2 3.7 18.15 L3.8 18.9 3.7 18.95 1.0 18.9 1.05 13.65 0.9 11.15 Q0.75 9.55 -0.2 8.5 L0.3 8.15 Q2.7 8.15 4.2 9.05 M32.85 34.5 L33.3 33.85 34.25 32.5 33.55 33.6 33.5 33.65 33.15 34.25 33.1 34.35 32.85 34.5 M-23.15 36.95 L-23.35 38.0 Q-23.6 38.8 -24.25 39.4 L-26.25 41.0 -26.85 40.4 -26.8 37.6 -26.7 37.2 -26.55 36.8 -25.95 35.2 -25.75 34.65 -24.95 34.75 -23.4 36.75 -23.15 36.95 M-4.05 52.0 Q-4.45 56.8 -2.6 61.4 -3.4 61.3 -4.45 60.75 -5.5 60.2 -6.05 59.1 -8.1 55.1 -4.9 52.35 -4.55 52.05 -4.05 52.0" fill="#5a361f" fill-rule="evenodd" stroke="none"/>
    <path d="M-12.0 -32.95 Q-11.65 -32.3 -12.3 -31.7 -13.55 -31.05 -14.35 -32.2 -14.7 -32.75 -14.5 -33.15 L-13.35 -33.25 -13.15 -33.2 -12.0 -32.95" fill="#ffffff" fill-rule="evenodd" stroke="none"/>
    <path d="M-7.9 -35.25 L-7.85 -35.4 -7.9 -35.55 -7.1 -34.6 -7.4 -34.85 -7.3 -34.85 -7.7 -35.05 -7.9 -35.25 M-8.2 -36.05 L-8.3 -36.2 -8.6 -36.5 -8.15 -36.5 -8.2 -36.2 -8.2 -36.05" fill="#5a5838" fill-rule="evenodd" stroke="none"/>
    <path d="M-8.4 63.8 L-8.15 64.1 -8.35 63.95 -8.4 63.8 M10.65 65.2 L11.6 64.85 11.9 64.7 11.9 64.75 10.65 65.2 M3.25 52.55 L3.25 52.45 3.3 52.45 3.25 52.55" fill="#2f2e1c" fill-rule="evenodd" stroke="none"/>
  </g>
</svg>
