<?xml version="1.0" encoding="UTF-8" standalone="no"?>
<svg xmlns:xlink="http://www.w3.org/1999/xlink" height="133.05px" width="50.95px" xmlns="http://www.w3.org/2000/svg">
  <g transform="matrix(1.0, 0.0, 0.0, 1.0, 20.05, 12.5)">
    <path d="M-5.2 70.2 Q-5.85 67.3 -5.4 64.5 L-4.45 59.7 Q-5.25 58.9 -5.45 57.85 L-5.45 57.5 Q-5.5 56.4 -4.75 55.55 L-5.1 55.2 -4.9 53.65 -5.65 53.5 Q-6.05 53.45 -5.8 53.0 L-4.55 50.9 Q-5.2 49.7 -5.2 48.3 -5.25 46.8 -4.45 45.5 L-4.3 45.25 -4.9 44.05 Q-6.05 42.9 -6.55 41.35 L-7.0 39.75 -7.55 39.45 Q-8.45 38.8 -8.9 37.7 L-9.0 37.45 Q-9.45 36.25 -9.35 34.95 L-9.15 33.25 Q-9.05 32.65 -8.6 32.35 L-8.55 32.25 Q-8.5 30.1 -9.5 28.4 L-9.75 27.4 -9.7 26.25 Q-9.45 25.1 -10.65 24.4 -11.15 23.15 -10.45 21.9 L-11.5 21.95 Q-12.05 21.95 -12.15 21.4 -12.1 19.35 -10.95 17.85 L-12.1 17.75 Q-12.45 16.2 -11.55 14.8 -10.65 13.35 -12.3 12.5 -13.0 11.45 -12.3 10.5 L-11.2 8.5 Q-11.4 7.2 -11.1 6.1 L-10.7 3.95 Q-11.9 3.5 -11.7 2.4 L-10.5 1.4 -10.55 -1.3 -9.9 -3.4 Q-9.25 -4.85 -8.1 -6.0 L-7.9 -6.1 Q-7.6 -7.15 -6.8 -8.0 L-4.8 -10.35 -0.5 -12.15 Q1.75 -13.2 3.75 -11.3 L4.6 -10.9 Q5.05 -9.5 6.3 -9.1 7.5 -8.7 8.25 -7.4 8.85 -6.9 8.7 -6.2 L8.5 -4.9 Q11.05 -2.6 11.5 0.8 11.0 1.1 10.45 0.8 L10.95 3.2 Q11.05 4.5 11.6 5.6 11.9 7.65 11.1 9.35 12.2 10.3 12.05 11.55 11.8 12.75 12.6 13.85 L12.7 15.45 Q12.75 16.25 12.15 16.85 L11.8 17.0 9.7 27.4 9.7 27.6 Q10.25 29.4 9.4 30.9 L9.35 31.0 9.45 31.15 9.45 31.2 Q10.45 32.3 10.5 33.75 L10.55 34.85 10.3 36.25 9.1 38.95 8.1 40.45 7.6 41.05 6.9 45.35 Q6.35 48.1 6.75 50.9 L6.8 52.55 8.45 58.55 9.25 61.05 9.45 61.25 Q10.55 62.2 11.15 63.5 L12.15 66.3 Q12.6 67.7 12.6 69.2 L12.4 71.0 12.0 72.4 11.9 72.7 Q11.55 73.65 12.0 74.55 L12.8 76.35 Q12.2 77.1 11.3 77.25 L11.6 78.9 Q11.75 79.8 11.1 80.35 L11.9 83.0 12.4 85.05 12.7 85.7 Q12.7 86.25 13.05 86.75 L13.25 86.1 14.25 89.65 Q14.95 91.45 15.25 93.4 L16.05 97.25 17.85 101.5 Q18.5 103.65 20.55 105.2 L22.55 107.4 24.6 109.65 Q26.2 109.45 27.3 110.4 L27.4 110.5 Q28.45 111.5 30.2 111.3 L30.35 111.3 30.8 111.75 Q31.05 111.95 30.75 112.2 L30.2 112.1 27.45 112.2 27.3 112.2 25.1 112.55 Q23.85 112.85 23.05 111.6 L21.3 111.7 19.65 112.55 Q19.75 113.05 19.4 113.35 L16.9 111.65 Q15.65 110.7 14.05 111.0 L13.65 110.9 13.65 110.85 14.05 109.95 14.35 109.75 14.45 110.05 Q15.8 109.9 16.75 110.45 L16.95 110.6 17.2 110.75 19.2 111.75 20.9 110.5 Q22.4 109.95 23.75 110.75 24.4 111.1 25.05 111.25 L25.1 111.25 26.55 111.2 25.8 110.8 Q25.35 110.5 25.1 111.1 L24.15 110.5 Q23.1 109.75 22.3 108.75 L20.1 106.2 20.05 106.15 19.8 105.85 19.7 105.9 19.65 105.9 19.55 105.95 19.45 106.0 19.35 106.05 19.3 106.05 18.95 106.4 18.85 106.6 18.8 106.8 18.15 108.1 Q18.0 107.1 18.4 106.3 L19.0 105.5 19.2 105.25 18.15 104.2 18.0 104.0 Q18.0 103.4 17.5 103.15 L17.05 102.7 Q16.2 101.3 15.95 99.75 15.55 97.3 14.75 94.9 14.8 94.25 14.45 93.7 L14.2 93.4 14.2 92.85 14.45 93.05 14.05 91.55 13.95 91.3 13.4 90.1 13.25 90.2 Q14.15 88.5 12.55 87.9 L11.85 86.25 10.8 86.15 11.0 85.85 11.05 85.85 11.0 85.7 11.05 85.15 Q11.05 84.15 10.35 83.7 L10.5 83.45 Q11.3 82.3 10.6 81.75 L10.4 80.8 10.25 81.55 9.75 81.35 9.45 81.4 9.75 81.3 10.05 80.9 Q10.7 79.45 9.45 79.05 L9.65 79.0 10.15 78.5 10.9 79.05 Q11.0 78.3 10.65 77.65 10.85 77.0 10.3 76.5 L10.6 76.35 11.15 76.25 11.65 75.75 11.1 74.5 11.05 74.45 10.95 74.3 10.9 74.25 Q10.55 73.75 10.75 73.35 L11.15 73.0 11.2 72.95 11.8 71.45 12.05 69.85 12.15 68.15 12.1 67.1 11.8 66.1 11.3 65.1 10.45 63.6 9.65 62.5 9.4 62.25 8.95 61.8 8.75 61.65 8.25 60.5 8.2 60.35 8.15 60.0 Q7.5 57.25 6.45 54.7 L6.05 53.45 6.05 53.4 Q6.2 52.5 5.7 52.1 L5.65 51.7 5.4 48.75 4.6 47.8 4.65 47.75 4.85 47.35 4.9 46.9 5.4 47.3 Q6.5 46.2 5.95 45.6 L4.7 44.55 4.95 44.3 5.15 44.1 5.55 44.25 6.1 41.05 6.9 40.4 7.6 39.65 8.25 38.7 8.95 37.55 9.3 36.75 9.95 35.1 10.0 34.8 9.85 33.15 9.8 32.6 9.55 32.55 8.8 32.95 8.9 32.8 8.9 32.75 8.4 31.2 8.0 30.55 Q7.2 29.5 7.7 28.2 L7.75 28.2 7.9 28.3 Q8.3 28.6 8.25 29.25 8.15 30.05 8.9 30.4 9.35 29.65 9.1 28.8 L8.95 28.1 8.95 27.4 8.95 27.3 8.4 27.0 8.2 26.45 Q8.0 26.25 8.2 26.0 L8.25 25.95 8.7 26.45 8.85 26.5 8.95 26.55 9.0 26.4 Q9.3 25.3 8.9 24.15 9.3 23.9 9.3 23.4 9.3 22.9 9.7 22.65 L9.5 22.3 9.75 21.8 9.8 21.5 9.9 20.85 10.15 21.25 10.7 17.6 10.55 17.5 10.7 16.95 10.7 16.1 11.8 15.95 Q11.95 14.15 11.2 12.65 L9.75 12.35 9.6 11.35 9.75 11.35 11.4 11.45 Q10.95 10.3 10.2 9.55 L10.2 9.2 10.45 9.2 10.75 8.9 Q10.95 8.35 10.45 8.1 L10.35 8.1 10.45 7.6 10.55 6.85 Q10.65 5.5 10.35 4.25 L10.15 3.45 10.45 2.75 10.3 2.4 10.05 2.0 9.7 2.0 9.15 0.25 Q9.45 -0.35 9.85 -0.1 L10.55 0.1 10.6 0.1 10.6 0.05 Q10.6 -0.65 10.1 -1.05 9.55 -1.45 9.25 -2.15 L9.05 -2.55 Q9.0 -3.4 8.05 -3.75 8.65 -4.85 7.25 -5.35 L7.45 -5.65 7.6 -5.85 7.1 -7.2 Q6.35 -8.3 4.8 -8.45 L2.2 -11.35 1.15 -11.55 0.55 -11.5 0.45 -11.5 0.35 -11.45 0.1 -11.4 -1.8 -10.65 Q-3.1 -10.2 -3.65 -9.1 L-5.15 -8.0 -5.65 -7.4 -6.05 -6.85 -6.5 -6.2 -6.9 -5.1 -7.05 -4.55 -7.1 -4.4 -7.1 -4.15 -7.45 -4.4 -8.65 -4.5 Q-10.0 -3.5 -10.0 -1.7 L-9.95 -0.1 -9.95 0.65 -10.0 0.8 -9.95 0.9 -9.25 2.1 -8.95 2.8 -9.25 2.5 -9.7 1.95 -10.15 2.65 Q-9.8 2.35 -9.65 2.65 L-9.45 2.9 -9.3 2.9 -9.1 2.9 -9.05 2.9 -9.15 3.15 -9.35 3.8 -9.5 4.1 -9.55 4.0 -9.55 4.05 Q-10.1 5.05 -10.15 6.25 -9.9 7.75 -10.4 8.9 L-11.2 11.3 -11.2 11.35 -10.95 11.35 -10.35 11.25 Q-10.7 12.3 -9.95 12.95 L-10.1 13.45 Q-10.85 13.85 -11.15 14.85 -11.4 15.5 -11.2 16.05 L-11.3 16.75 -11.3 16.8 -10.95 16.8 -10.7 16.75 Q-11.1 17.7 -10.45 18.5 -11.15 19.65 -11.2 20.95 L-10.05 20.6 Q-9.55 19.9 -9.45 19.15 L-9.3 19.9 -8.85 20.75 -9.7 22.05 -9.8 22.4 -9.9 22.75 -9.9 22.8 -9.95 22.9 Q-10.1 23.2 -9.85 23.35 L-9.85 23.4 -9.6 23.5 -9.5 23.5 -9.0 23.1 -8.85 23.2 Q-9.7 24.0 -9.45 25.15 -9.3 25.75 -8.75 25.7 L-8.8 25.75 Q-9.0 26.7 -8.8 27.4 L-8.5 28.05 -7.45 26.35 -7.1 26.4 Q-7.0 26.4 -6.95 26.5 L-7.0 26.75 Q-7.3 27.15 -7.05 27.4 L-6.95 27.5 -6.65 27.2 -6.4 26.7 -6.85 28.4 -7.25 30.0 -7.8 31.65 -8.3 33.25 -8.65 34.75 -8.55 36.1 -8.1 37.3 -7.35 38.5 Q-6.4 38.1 -5.95 37.3 L-5.9 37.2 -6.1 37.95 -6.15 38.15 -6.25 38.75 -6.25 39.15 -6.2 39.65 -5.65 41.0 -4.8 42.6 Q-5.4 39.85 -4.9 37.0 -4.9 36.35 -4.4 36.0 -4.75 38.3 -4.15 40.3 -3.7 41.8 -3.65 43.55 L-3.65 44.45 -3.65 44.7 -3.4 44.5 -3.0 44.15 -3.75 45.15 -4.15 46.3 -4.35 47.1 -4.4 48.85 -4.1 50.45 -4.2 50.55 -3.9 51.25 -4.15 51.55 -4.6 52.25 Q-3.4 52.25 -3.95 53.05 -4.5 53.9 -4.3 54.7 L-3.35 55.85 -3.3 55.95 -3.0 56.6 -4.1 56.15 -4.55 56.15 -4.75 57.6 -4.2 58.8 -4.35 59.3 -3.3 60.15 -3.4 60.35 Q-4.9 64.45 -4.45 69.0 L-4.5 69.05 -5.2 70.2 M11.7 118.15 Q11.85 119.35 11.2 120.3 L11.0 120.55 10.55 120.3 Q9.1 119.55 8.1 118.3 5.4 117.95 4.2 115.8 2.05 115.0 0.25 113.25 L-0.3 111.9 Q-0.95 112.1 -1.15 113.0 -1.35 113.9 -2.45 113.55 L-3.75 113.7 -5.1 113.75 Q-6.95 114.6 -8.5 115.95 L-8.85 115.3 Q-8.95 114.85 -9.4 114.7 L-11.0 114.15 Q-11.8 113.75 -12.55 114.45 -13.2 115.4 -14.1 115.2 L-15.85 114.9 -16.75 114.7 -16.75 114.65 -19.85 114.85 -20.05 114.5 Q-18.9 113.5 -17.3 113.65 -15.95 112.65 -14.25 112.1 L-13.4 112.0 -12.75 111.3 -9.8 107.8 Q-8.2 106.2 -6.95 104.3 -4.6 99.2 -3.15 93.85 L-3.15 86.7 Q-3.65 86.1 -3.3 85.45 L-3.15 85.05 -2.95 84.25 -3.85 83.25 Q-4.15 82.15 -3.45 81.3 -2.75 80.45 -3.45 79.75 -3.95 80.85 -5.1 81.2 -5.5 80.75 -5.15 80.25 -5.35 78.45 -4.8 77.15 -6.65 76.8 -6.15 75.2 -6.15 74.55 -5.65 73.95 -5.15 73.35 -6.15 73.1 -6.35 72.35 -5.95 71.65 L-5.6 71.1 Q-5.95 72.35 -4.6 73.0 L-3.9 73.25 -4.2 73.55 -4.25 73.55 -4.6 73.9 -4.85 73.9 -4.9 73.95 Q-5.3 74.8 -5.3 75.6 L-5.3 75.65 -5.2 75.6 -4.9 75.5 Q-4.85 76.65 -4.2 77.1 L-4.25 77.55 -4.15 79.6 -2.95 78.45 Q-2.8 78.7 -2.4 78.75 -2.35 79.8 -1.85 79.1 L-1.6 78.75 -1.0 78.8 -0.95 78.8 -0.65 78.9 -0.6 79.15 -0.1 78.95 0.0 78.95 0.3 78.75 0.85 78.45 Q1.35 78.75 1.05 79.25 0.7 80.15 -0.3 80.15 -1.9 81.5 -2.55 83.6 -2.05 84.4 -1.4 83.75 -0.8 83.1 -0.3 83.55 L-0.3 83.6 -0.4 84.2 -0.85 85.05 -0.9 85.15 -2.25 86.25 -2.35 92.6 Q-1.6 92.05 -1.45 91.3 -1.6 90.75 -1.25 90.4 -0.5 90.55 -0.65 91.25 L-0.9 92.45 Q-3.2 94.65 -2.85 98.1 L-1.7 98.45 -1.65 98.5 -1.6 98.5 -1.15 98.75 Q-0.95 98.95 -0.9 99.35 L-1.05 99.35 -2.15 99.25 -2.25 99.25 -2.25 99.3 Q-3.6 99.4 -4.15 100.3 L-4.45 100.95 -4.55 101.25 -5.55 103.8 -5.2 103.8 -5.25 103.85 Q-5.55 104.25 -5.45 104.55 L-5.0 104.55 Q-6.1 104.45 -6.55 105.65 L-6.75 106.1 Q-7.25 107.2 -8.0 107.85 L-8.05 107.85 -8.15 107.85 -8.4 108.3 -8.35 108.7 -8.85 108.5 -11.25 111.3 -13.45 113.45 -14.0 113.85 -14.35 113.35 Q-15.1 113.45 -15.65 113.85 L-14.0 113.9 -13.95 113.9 -13.3 113.6 -13.25 113.55 -13.15 113.55 -13.1 113.5 -11.6 112.95 -10.95 112.85 Q-9.4 113.2 -8.25 114.4 L-5.95 113.2 Q-4.9 112.55 -3.4 112.55 L-3.35 111.8 -3.35 112.15 -2.8 112.1 -2.55 111.85 -2.5 111.65 -1.45 111.1 Q-0.95 110.1 -0.2 109.4 L-0.2 109.45 Q0.6 109.45 0.7 108.7 L1.3 108.4 2.2 108.1 2.15 108.2 1.65 109.2 1.55 109.4 0.5 110.95 Q0.5 112.15 1.35 112.85 L3.1 114.2 3.15 113.85 Q3.4 114.15 4.05 114.05 L4.2 114.05 Q4.1 113.7 4.25 113.3 4.0 114.15 4.7 114.8 L4.55 115.45 4.8 115.45 5.15 115.65 Q5.8 116.35 6.75 116.6 L8.15 116.7 Q8.9 116.6 9.3 117.2 8.7 117.6 9.15 118.05 L9.75 118.65 9.9 118.45 10.05 118.6 10.55 119.15 10.7 117.9 11.05 118.05 11.0 118.3 Q10.75 119.0 11.0 119.55 L11.2 118.15 11.25 118.1 11.7 118.15 M-1.15 98.1 L-1.2 98.15 -1.2 98.1 -1.15 98.1 M7.05 99.95 L6.95 99.9 7.0 99.9 7.05 99.95 M11.1 105.55 L11.25 105.8 11.15 105.7 11.1 105.55 M5.15 105.85 L5.2 106.0 5.05 106.05 5.15 105.85 M9.0 84.1 L9.25 84.2 9.05 84.55 9.05 84.3 9.0 84.1 M13.25 85.8 L13.25 86.1 13.15 85.7 13.25 85.8 M12.45 108.15 L12.4 108.05 12.15 107.8 12.45 108.05 12.45 108.15 M17.55 103.6 L17.4 104.15 17.45 103.9 17.55 103.6 M7.85 117.8 L7.3 117.8 7.85 118.0 7.85 117.8 M-2.25 54.5 L-2.25 54.45 -2.25 54.5" fill="#000000" fill-rule="evenodd" stroke="none"/>
    <path d="M-4.45 69.0 Q-4.9 64.45 -3.4 60.35 L-3.45 60.55 -2.95 60.8 -2.25 61.4 -2.15 61.5 -0.35 63.8 -0.15 64.1 0.9 65.75 1.6 67.85 2.15 69.7 2.35 70.95 2.7 73.55 2.85 75.85 2.85 75.95 2.85 76.3 2.55 77.05 2.35 78.75 2.25 78.9 2.1 79.35 1.15 82.2 0.3 85.0 0.25 85.3 Q-0.1 86.1 -0.05 87.0 L-0.1 87.15 -0.2 89.0 -0.05 90.4 0.0 91.0 -0.05 93.75 -0.15 94.05 -1.0 96.95 -1.05 97.1 -1.3 98.0 -1.3 98.05 -1.45 98.15 -1.7 98.45 -2.85 98.1 Q-3.2 94.65 -0.9 92.45 L-0.65 91.25 Q-0.5 90.55 -1.25 90.4 -1.6 90.75 -1.45 91.3 -1.6 92.05 -2.35 92.6 L-2.25 86.25 -0.9 85.15 -0.85 85.05 -0.4 84.2 -0.3 83.6 -0.3 83.55 Q-0.8 83.1 -1.4 83.75 -2.05 84.4 -2.55 83.6 -1.9 81.5 -0.3 80.15 0.7 80.15 1.05 79.25 1.35 78.75 0.85 78.45 L0.3 78.75 0.65 78.35 Q1.35 77.25 1.15 76.45 2.1 75.25 0.25 74.55 L-0.15 74.7 -0.25 74.75 -0.7 74.45 -0.7 74.4 Q-0.6 74.05 -0.65 73.7 L-0.55 73.6 Q-0.25 73.0 -0.45 72.6 L-0.1 73.05 0.0 73.25 -0.25 73.95 Q0.75 74.1 1.5 72.5 L1.4 72.3 Q1.15 71.7 0.5 71.65 L0.4 71.7 Q-0.15 72.25 -0.65 72.35 L-1.1 72.0 -1.3 72.1 -1.4 72.2 -1.6 72.4 -1.6 72.2 -1.95 72.25 -2.15 72.75 -2.35 72.7 -2.0 71.9 -1.95 71.95 -1.75 71.85 -2.0 71.6 Q-2.35 71.1 -2.0 70.6 L-1.25 70.65 -0.6 70.1 -0.35 69.8 Q0.65 70.0 0.9 70.4 1.45 68.85 0.0 68.25 L0.05 67.9 Q0.05 67.45 -0.35 67.4 L-0.7 67.55 -0.75 67.55 -0.65 67.0 Q0.2 65.75 -1.5 65.3 -1.65 66.05 -2.45 66.5 L-2.65 66.65 -3.4 66.65 -3.6 66.45 -3.7 66.3 -3.75 67.15 Q-3.5 68.35 -2.8 68.55 L-2.8 68.65 -3.25 68.4 -3.9 68.5 -4.45 69.0 M-3.35 55.85 L-4.3 54.7 Q-4.5 53.9 -3.95 53.05 -3.4 52.25 -4.6 52.25 L-4.15 51.55 -3.9 51.25 -4.2 50.55 -4.1 50.45 Q-4.0 51.35 -3.3 52.0 L-2.5 52.8 Q-1.8 53.5 -0.8 53.4 L-0.8 53.6 -0.5 53.9 -0.25 53.9 0.0 54.75 Q-0.25 54.8 -0.45 55.0 -1.5 55.3 -2.25 54.5 -2.0 55.25 -1.25 55.35 L0.05 55.3 0.2 55.5 0.35 58.1 0.35 58.45 0.35 58.55 -0.25 58.35 -0.9 58.1 -1.75 57.5 -2.3 56.65 Q-2.7 56.05 -3.35 55.85 M-3.65 43.55 Q-3.7 41.8 -4.15 40.3 -4.75 38.3 -4.4 36.0 -4.9 36.35 -4.9 37.0 -5.4 39.85 -4.8 42.6 L-5.65 41.0 -6.2 39.65 -6.25 39.15 -6.25 39.4 -6.15 39.35 Q-5.7 39.0 -5.65 38.35 L-5.3 36.65 -5.25 36.4 -5.1 34.0 -4.9 32.9 -4.9 32.65 -4.85 32.55 -4.85 32.2 -4.65 31.7 -4.4 30.7 -4.0 29.6 -3.35 27.7 -2.85 26.35 Q-2.25 25.0 -1.25 23.9 L-0.95 23.55 -0.2 22.75 0.0 22.6 0.05 22.7 -0.15 22.85 Q-0.7 23.35 -0.3 24.0 -0.1 24.4 0.3 24.2 L0.35 24.2 0.4 24.45 0.5 24.4 0.45 24.2 0.45 24.15 1.2 23.7 1.6 23.45 1.9 23.1 2.45 23.55 1.8 23.45 1.8 23.5 Q1.6 23.5 1.45 23.65 L1.35 23.65 1.15 24.05 Q1.0 24.75 1.5 25.0 L1.2 25.0 1.05 25.4 0.9 25.6 Q3.15 26.4 1.85 28.25 3.3 29.05 2.15 30.85 2.65 31.1 2.2 31.7 L2.15 31.8 1.3 31.75 1.25 31.65 1.1 34.9 Q1.65 35.15 1.4 35.85 L1.3 36.25 1.55 36.9 Q1.85 37.05 1.7 37.5 L1.7 37.6 1.8 38.05 1.95 38.7 Q2.4 38.85 2.4 39.35 L2.5 39.35 2.75 39.95 2.4 40.5 2.2 40.55 2.2 40.6 1.0 41.15 0.45 41.4 -0.9 41.95 Q-0.8 40.5 -1.25 39.05 L-1.85 37.25 -1.9 37.3 -2.0 37.45 -2.45 37.55 -1.15 42.05 -2.05 42.45 Q-2.95 42.85 -3.65 43.55 M-7.1 26.4 L-7.45 26.35 -8.5 28.05 -8.8 27.4 Q-9.0 26.7 -8.8 25.75 L-8.75 25.7 -8.5 25.65 Q-6.95 25.3 -6.95 24.1 L-6.75 24.25 Q-6.2 24.65 -5.75 24.25 L-5.6 24.1 -6.5 25.3 -6.85 25.8 -7.1 26.4 M-9.0 23.1 L-9.5 23.5 -9.6 23.5 -9.85 23.4 -9.85 23.35 -9.9 22.8 -9.9 22.75 -9.8 22.4 -9.7 22.05 -8.85 20.75 -8.7 20.95 Q-9.15 21.4 -9.25 22.1 -9.35 22.7 -9.0 23.1 M-11.2 16.05 Q-11.4 15.5 -11.15 14.85 -10.85 13.85 -10.1 13.45 L-9.95 12.95 -9.55 13.2 -9.2 13.15 -8.95 13.25 Q-9.5 13.95 -9.4 15.05 L-9.1 15.65 Q-8.25 16.45 -7.8 15.45 L-7.5 14.9 Q-7.55 15.55 -8.0 16.4 -7.4 16.8 -7.3 17.3 L-7.2 17.25 -7.0 17.35 -6.6 16.95 -6.5 17.0 Q-7.15 17.45 -7.45 18.2 -8.15 19.75 -6.5 19.9 L-5.3 18.75 -5.1 18.6 -5.75 19.65 -5.85 19.85 -6.15 20.0 -6.35 20.15 -6.85 20.05 -7.05 20.2 -7.35 20.4 Q-9.05 20.2 -8.9 19.15 L-9.45 18.75 Q-10.05 18.0 -9.85 17.35 L-10.7 16.75 -11.2 16.05 M-10.35 11.25 L-10.95 11.35 -11.2 11.3 -10.4 8.9 Q-9.9 7.75 -10.15 6.25 -10.1 5.05 -9.55 4.05 L-9.5 4.1 -9.35 3.8 -9.15 3.15 -8.85 3.35 -7.85 3.9 -7.5 4.05 -5.9 4.95 -5.75 5.05 -4.8 5.45 -4.5 5.7 -4.2 5.9 -3.6 6.3 -2.9 7.15 -2.55 7.95 -2.7 9.3 -2.8 10.15 -2.9 10.1 -4.55 10.0 -5.25 9.85 -5.5 9.7 -5.65 9.4 -5.65 9.5 -5.7 9.25 Q-5.85 8.6 -6.5 8.6 L-6.6 8.7 -6.3 9.25 -6.65 8.95 -6.7 9.0 -6.75 9.3 Q-6.55 10.35 -5.95 11.05 L-6.5 10.5 -6.85 9.45 -6.65 10.2 -6.05 11.35 -5.95 11.5 Q-6.5 11.5 -6.85 11.9 -6.25 10.1 -8.65 9.85 L-8.7 9.85 Q-9.3 9.85 -9.7 10.2 L-10.35 11.15 -10.35 11.25 M-9.95 0.9 L-10.0 0.8 -9.95 0.9 M-5.15 -8.0 L-3.65 -9.1 Q-3.1 -10.2 -1.8 -10.65 L0.1 -11.4 0.35 -11.45 0.45 -11.5 0.55 -11.5 1.15 -11.55 1.75 -11.45 1.55 -10.4 Q2.3 -9.55 0.75 -8.45 L-0.05 -8.0 Q0.95 -7.5 0.2 -6.25 L-0.05 -6.0 -0.95 -5.95 Q-1.0 -6.85 -2.0 -7.2 L-2.45 -7.1 -2.45 -7.2 -2.45 -7.55 -2.5 -7.1 -2.5 -7.05 Q-3.0 -6.8 -3.3 -6.15 L-3.8 -4.85 Q-4.0 -4.15 -3.55 -3.6 -2.6 -2.45 -1.8 -3.85 L-1.2 -5.0 Q-1.0 -5.4 -0.95 -5.75 0.2 -4.95 -0.6 -3.65 L-0.85 -3.25 -0.75 -3.3 Q0.45 -3.2 0.95 -2.7 L1.15 -2.8 1.2 -2.85 1.85 -2.8 2.0 -2.7 2.2 -2.2 2.35 -1.95 2.3 -1.65 1.95 -1.15 1.8 -1.15 1.05 -1.15 1.05 -1.05 0.3 -1.5 -0.1 -1.3 Q-0.9 -0.55 -0.8 0.45 L-1.55 0.45 Q-2.85 -0.45 -2.65 -1.45 -3.35 -0.85 -4.5 -1.6 L-4.6 -1.65 -4.25 -1.35 -3.95 -1.2 -4.0 -1.15 Q-4.5 0.1 -3.25 0.65 L-2.85 0.8 -2.7 0.95 -2.25 1.3 -2.3 3.1 -3.0 2.6 -4.4 1.15 -4.55 1.0 -5.5 -0.4 -5.75 -1.3 -5.8 -1.5 -6.15 -2.95 -6.1 -4.05 -5.95 -5.15 Q-5.75 -6.65 -5.15 -8.0 M10.0 34.8 L9.95 35.1 9.3 36.75 10.0 34.8 M11.2 72.95 L11.15 73.0 11.15 72.9 11.2 72.95 M-1.85 -8.2 L-1.9 -8.2 -2.4 -7.7 -2.0 -8.1 -1.85 -8.2 M-1.55 12.55 L-1.55 12.8 -1.4 14.15 -2.05 14.65 -2.45 15.2 Q-3.3 15.9 -3.05 17.3 L-3.0 17.5 -3.05 18.0 Q-3.05 18.8 -2.3 18.85 L-1.45 19.2 -0.9 19.15 -0.65 19.1 -0.6 19.3 -1.7 19.85 -2.85 20.6 -3.55 21.3 -3.95 21.75 -5.0 23.1 Q-4.95 22.35 -6.2 21.9 L-6.15 21.85 -5.65 21.15 -5.5 20.75 -5.15 20.05 -5.15 19.95 -5.05 19.5 -4.8 19.35 Q-2.5 18.05 -4.3 16.95 L-4.25 16.95 -3.9 16.7 -3.55 16.35 Q-3.3 15.9 -3.4 15.45 L-3.55 15.05 -3.8 14.85 -4.1 14.7 -4.15 15.2 -4.55 15.7 -4.65 15.75 -5.4 15.7 -5.6 15.55 -5.75 15.35 -5.8 15.15 -5.85 14.6 -5.7 14.4 -5.3 14.05 -4.6 14.1 -4.2 14.5 Q-3.45 13.25 -3.95 12.45 L-3.5 12.6 -2.05 12.65 -1.85 12.55 -1.55 12.55 M5.2 0.9 L4.85 0.7 4.75 0.75 4.85 0.6 4.85 0.55 4.9 0.55 5.15 0.65 5.25 0.75 5.2 0.9 M1.35 -6.7 L1.25 -6.8 1.2 -7.0 1.2 -7.35 1.2 -7.55 1.25 -7.7 1.85 -8.3 Q3.95 -7.95 2.9 -6.5 2.7 -7.4 1.75 -7.5 L1.5 -7.2 1.35 -6.7 M-5.05 -2.75 L-5.05 -2.95 -5.1 -2.95 -5.05 -2.75 M-1.65 -2.85 L-1.35 -3.05 -1.75 -3.1 -1.9 -2.6 -1.65 -2.85 M-3.75 12.05 L-2.85 12.0 -3.0 12.05 -3.3 12.05 -3.5 12.05 -3.55 12.05 -3.75 12.05 M3.35 3.05 Q6.0 3.65 4.0 5.7 2.55 7.05 1.65 5.35 1.25 4.6 1.95 4.1 L3.35 3.05 M-6.4 6.95 Q-6.15 6.75 -6.3 6.45 -6.75 5.45 -8.05 5.65 L-8.05 5.7 -8.15 5.7 -8.25 5.75 -8.35 5.95 -8.5 6.6 -8.95 6.55 -9.4 7.0 Q-10.35 8.7 -9.05 9.25 L-8.75 9.35 -7.95 9.45 -7.4 8.85 Q-6.85 8.0 -7.2 7.35 -6.75 7.35 -6.4 6.95 M-8.75 13.0 L-8.75 12.9 -8.65 12.75 -8.45 12.55 -8.25 12.4 -8.1 12.35 -7.7 12.3 -6.2 12.45 -5.9 12.6 -5.7 12.95 Q-5.45 13.55 -5.75 14.1 -6.7 14.65 -7.4 14.65 -6.8 13.45 -7.65 12.6 L-8.3 12.6 -8.75 13.0 M0.65 8.6 L0.8 10.55 0.7 10.8 0.75 11.35 0.85 11.5 0.85 11.6 0.15 11.9 0.05 12.0 0.45 8.6 0.65 8.6 M1.1 41.85 Q0.95 41.9 0.75 42.05 L-0.65 42.7 -0.85 42.8 -0.65 42.7 -0.55 42.65 -0.45 42.6 -0.25 42.5 Q0.45 42.15 1.1 41.85 M7.4 -1.05 L7.35 -0.8 6.65 -0.9 6.65 -0.95 7.0 -1.2 7.4 -1.05 M5.1 74.75 L5.75 74.05 Q6.3 73.75 7.0 73.8 L7.0 73.75 7.05 73.45 7.6 72.95 7.75 72.95 8.0 72.9 Q8.65 72.95 8.9 73.55 L9.0 73.75 8.7 74.5 8.6 74.6 Q9.3 75.4 8.95 76.75 L8.75 77.3 8.65 77.55 8.6 77.6 8.55 77.7 8.0 78.45 7.3 78.65 6.9 78.75 Q5.6 78.9 5.0 78.0 4.75 77.65 4.65 77.1 L4.55 76.3 Q4.5 75.5 5.0 74.9 L5.05 74.75 5.1 74.75 M-1.15 98.75 L-0.9 99.2 -0.65 98.9 Q0.35 97.7 0.75 96.2 L1.1 94.85 1.2 94.55 1.25 92.8 1.4 90.15 1.65 87.55 1.7 87.4 2.25 85.9 2.35 85.7 2.5 85.1 2.9 83.95 Q3.4 83.7 3.9 83.95 L4.05 84.05 5.1 85.0 5.1 85.1 4.85 88.4 3.85 88.7 3.05 89.4 Q2.1 90.9 4.0 91.05 L4.0 91.0 Q4.7 90.6 5.5 90.5 L7.0 93.25 7.05 93.4 5.75 93.35 Q4.35 93.6 3.05 94.5 L2.95 94.55 Q0.95 96.0 2.35 97.65 L3.2 97.65 3.6 97.35 7.9 97.65 Q8.35 97.65 8.65 97.95 L9.1 98.35 12.0 102.15 12.25 103.85 12.25 104.1 12.0 104.2 11.7 104.25 11.1 103.3 10.6 102.6 10.4 102.4 Q9.1 100.95 7.55 100.15 L7.1 99.95 7.05 99.95 7.0 99.9 6.95 99.9 5.6 99.8 Q4.9 99.7 4.35 100.3 L4.45 100.6 3.75 100.8 1.4 103.4 1.35 103.45 0.6 102.0 0.55 101.95 Q-0.55 100.85 -2.1 100.7 -3.45 100.9 -4.2 101.95 L-2.65 101.75 -1.0 101.7 -0.7 101.8 -0.3 102.05 -0.25 102.05 -0.15 102.15 0.3 102.5 0.4 102.65 Q0.0 103.7 -0.7 104.75 L-1.5 105.95 Q-2.15 105.15 -3.1 104.5 L-3.2 104.45 Q-4.25 103.9 -5.2 103.8 L-5.55 103.8 -4.55 101.25 -4.15 100.3 Q-3.6 99.4 -2.25 99.3 L-2.3 99.35 -2.4 99.45 -2.45 99.5 -2.45 99.55 -2.4 99.65 -2.4 99.7 -2.35 99.75 -2.05 99.7 -1.25 99.5 -1.05 99.35 -0.9 99.35 Q-0.95 98.95 -1.15 98.75 M9.1 102.6 L9.45 103.0 9.6 103.15 9.75 103.3 9.9 103.45 10.4 104.05 Q9.4 103.7 8.75 102.55 L8.4 102.05 9.1 102.6 M5.9 105.05 L5.15 105.85 5.05 106.05 5.2 106.0 5.55 105.9 6.05 105.75 6.05 106.2 6.55 108.05 6.6 108.25 6.55 109.9 Q5.75 109.9 5.15 110.25 L5.1 110.3 5.0 110.35 4.95 110.4 4.85 110.45 4.8 110.5 4.7 110.6 Q4.05 111.35 3.7 112.15 2.9 111.75 2.5 110.85 L2.25 110.45 1.55 109.4 1.65 109.2 2.15 108.2 2.2 108.1 1.3 108.4 1.35 107.65 1.6 105.8 1.8 105.95 1.8 105.75 1.8 105.65 1.8 105.6 1.7 104.65 Q2.0 103.6 3.25 103.5 L3.3 103.5 Q4.0 103.3 4.45 103.7 L4.5 103.75 Q5.55 104.05 5.9 105.05 M8.2 113.95 L6.85 113.95 6.1 114.25 5.95 113.85 Q5.8 113.3 5.25 113.0 L4.55 112.55 Q5.05 111.45 6.2 110.95 L6.25 110.9 6.5 110.85 Q7.65 112.25 8.2 113.95 M8.45 76.95 L8.6 76.8 Q9.0 75.0 7.2 74.35 L7.0 74.45 Q6.05 75.0 6.9 75.75 7.2 77.1 8.45 76.95 M0.35 51.8 L-0.65 52.0 -0.7 51.95 -1.15 51.8 -1.4 51.6 -2.0 51.05 -2.5 49.95 -2.6 49.55 -2.75 49.0 -2.75 47.4 -2.7 47.3 -2.25 46.1 Q-1.5 44.85 -0.3 44.1 L0.25 44.25 Q2.6 44.95 2.9 47.9 L2.0 46.35 1.2 45.8 Q0.95 45.8 0.8 46.05 L0.75 46.15 0.8 46.2 Q-0.1 46.45 -0.2 47.5 L-0.15 49.25 0.25 50.1 0.0 50.2 0.45 50.25 0.55 50.15 Q0.9 49.95 0.75 49.6 L0.65 49.1 0.65 48.95 Q0.75 48.35 1.1 47.85 L0.8 47.5 0.9 47.45 1.1 47.55 Q1.65 48.2 1.65 49.05 1.6 50.1 1.15 50.8 L0.35 51.8 M-2.25 54.5 L-2.25 54.45 -2.25 54.5 M-1.65 62.85 L-2.3 62.75 Q-4.0 63.5 -3.75 65.2 L-3.7 65.45 -3.05 64.75 -2.75 64.45 -2.65 64.4 -2.5 64.35 -1.9 64.4 -1.7 64.6 -1.6 64.7 Q-1.05 63.9 -1.65 62.85 M-2.35 68.3 L-2.65 68.9 -2.75 69.45 -2.9 69.35 -3.05 69.2 -2.75 68.7 -2.7 68.6 -2.55 68.45 -2.4 68.35 -2.35 68.3 M-3.9 73.25 L-3.7 73.3 Q-3.55 73.1 -3.3 73.05 L-3.3 73.0 -2.65 73.05 Q-2.25 73.35 -2.15 73.75 L-2.15 73.95 -2.2 74.2 -2.55 74.7 -2.7 74.7 -3.45 74.7 -3.65 74.5 -3.8 74.3 -3.85 74.15 -3.9 73.55 -3.75 73.4 -3.7 73.35 -4.2 73.55 -3.9 73.25 M-4.6 73.9 Q-4.95 74.35 -4.95 74.9 L-4.9 75.5 -5.2 75.6 -5.3 75.6 Q-5.3 74.8 -4.9 73.95 L-4.85 73.9 -4.6 73.9 M-4.2 77.1 L-3.2 77.45 Q-3.05 78.55 -1.6 78.75 L-1.85 79.1 Q-2.35 79.8 -2.4 78.75 -2.8 78.7 -2.95 78.45 L-4.15 79.6 -4.25 77.55 -4.2 77.1 M-0.65 78.9 L-0.1 78.95 -0.6 79.15 -0.65 78.9 M-3.2 75.05 L-2.75 74.95 Q-2.25 74.95 -2.1 75.45 L-2.05 75.6 -2.05 75.7 -2.0 75.7 -1.5 75.6 Q1.15 76.7 -1.2 78.25 L-2.1 78.3 Q-3.35 77.75 -2.85 76.45 L-2.75 76.3 -3.4 76.0 -3.4 75.8 -3.45 75.45 -3.35 75.25 -3.2 75.05 M-3.75 106.55 Q-4.7 105.85 -6.05 105.95 -6.4 106.0 -6.5 106.2 L-6.5 106.7 Q-5.05 106.5 -4.0 107.1 L-4.4 107.75 -4.65 107.6 -5.15 107.7 -4.95 107.9 -4.75 108.15 -5.95 109.1 -7.15 109.9 Q-7.2 109.25 -7.6 108.55 L-8.15 108.0 -8.0 107.85 Q-7.25 107.2 -6.75 106.1 L-6.55 105.65 Q-6.1 104.45 -5.0 104.55 L-4.45 104.7 -4.3 104.75 -3.2 105.35 -3.45 105.85 -3.75 106.55 M-14.0 113.85 L-13.45 113.45 -11.25 111.3 -8.85 108.5 -8.35 108.7 -7.85 109.35 -7.7 109.75 -7.55 110.2 -7.9 110.55 Q-8.5 111.15 -9.2 111.6 L-11.2 112.9 -11.6 112.95 -13.1 113.5 -13.15 113.55 -13.25 113.55 -13.3 113.6 -13.95 113.9 -14.0 113.85" fill="#58852c" fill-rule="evenodd" stroke="none"/>
    <path d="M-3.4 60.35 L-3.3 60.15 -3.25 59.95 Q-2.65 60.15 -2.1 60.55 L-1.3 61.35 -0.55 62.25 0.05 63.15 0.6 64.05 1.5 65.85 2.25 67.45 2.8 69.0 3.2 70.55 3.3 71.1 3.3 71.15 3.4 71.55 3.4 71.8 3.5 73.05 3.45 74.7 3.4 75.9 3.25 77.1 3.1 78.15 2.65 80.0 2.1 81.4 1.45 83.05 1.0 84.05 0.65 85.05 0.3 87.0 0.35 88.95 0.4 90.9 -0.05 93.75 -0.2 95.0 -0.05 95.25 -0.7 96.7 -1.2 98.1 -1.2 98.15 -1.15 98.1 Q-0.25 97.25 0.3 96.05 L0.6 95.2 0.95 93.5 1.05 91.85 1.05 89.1 1.15 86.25 3.5 80.15 3.6 81.05 3.9 82.0 Q4.35 83.35 5.1 84.15 L7.3 86.3 7.4 87.05 7.35 88.2 Q6.9 90.15 7.85 91.95 8.35 92.85 9.6 93.05 L9.95 92.85 10.4 92.7 10.7 91.75 10.6 91.75 Q10.05 91.95 9.6 92.3 L9.2 92.2 9.1 92.2 9.05 92.15 8.8 92.05 8.35 90.6 8.35 89.1 8.45 87.9 8.35 86.75 7.85 85.95 7.35 85.45 6.4 84.45 5.5 83.15 4.85 81.7 4.55 79.95 4.45 78.05 4.45 77.8 4.65 77.1 Q4.75 77.65 5.0 78.0 L5.1 79.5 5.1 79.8 5.4 80.8 Q5.8 82.25 6.6 83.5 L6.9 83.9 7.15 84.25 8.25 85.6 8.65 86.3 Q9.0 87.35 8.8 88.5 L8.7 90.1 8.7 90.25 8.85 90.8 Q9.15 91.15 9.65 91.2 L9.85 91.2 10.25 91.15 10.45 91.05 11.15 90.8 10.9 90.25 10.7 89.75 9.95 87.7 9.25 86.0 9.0 85.55 8.85 85.25 Q8.6 84.7 8.8 84.1 L8.85 84.0 8.3 83.5 Q7.95 83.05 8.15 82.5 8.5 81.6 9.35 81.4 7.8 81.7 7.6 80.25 L7.6 79.75 Q6.8 79.5 6.9 78.75 L7.3 78.65 Q7.6 79.45 9.15 79.15 L9.55 78.5 Q9.95 77.15 8.95 76.75 9.3 75.4 8.6 74.6 L8.7 74.5 9.0 73.75 8.9 73.55 Q8.65 72.95 8.0 72.9 L7.75 72.95 7.7 72.9 7.15 73.05 6.85 72.8 Q6.3 72.3 6.65 71.55 7.05 70.75 7.8 70.55 7.6 68.1 6.8 65.7 L6.5 64.3 5.35 63.65 3.35 63.55 3.35 63.15 3.35 63.7 3.65 64.05 3.75 64.2 4.4 65.4 4.6 65.85 4.5 66.1 4.8 66.8 4.85 67.15 5.1 67.85 5.1 68.15 5.25 69.65 5.25 72.4 5.1 73.9 5.1 74.75 5.05 74.75 5.0 74.9 5.05 73.75 5.1 72.8 5.1 71.8 4.95 69.8 4.7 68.55 4.35 67.3 3.9 66.05 3.35 64.8 2.65 63.55 1.75 62.25 3.3 62.3 3.3 62.4 3.5 62.35 3.75 62.35 4.45 62.55 5.75 63.15 7.25 64.15 8.65 65.3 9.75 66.6 10.6 68.1 10.95 69.6 11.05 70.9 11.1 72.0 11.15 72.9 10.75 73.35 Q10.55 73.75 10.9 74.25 L10.95 74.3 11.05 74.45 11.1 74.5 10.75 76.0 10.6 76.35 10.3 76.5 Q10.85 77.0 10.65 77.65 11.0 78.3 10.9 79.05 L10.15 78.5 9.65 79.0 9.45 79.05 Q10.7 79.45 10.05 80.9 L9.75 81.3 9.45 81.4 9.75 81.35 10.25 81.55 10.6 81.75 Q11.3 82.3 10.5 83.45 L10.35 83.7 Q11.05 84.15 11.05 85.15 L11.0 85.7 11.05 85.85 11.0 85.85 10.8 86.15 11.85 86.25 12.55 87.9 Q14.15 88.5 13.25 90.2 L13.4 90.1 13.95 91.3 14.05 91.55 14.45 93.05 14.2 92.85 14.2 93.4 14.45 93.7 Q14.8 94.25 14.75 94.9 15.55 97.3 15.95 99.75 16.2 101.3 17.05 102.7 L17.5 103.15 Q18.0 103.4 18.0 104.0 L18.15 104.2 19.2 105.25 19.0 105.5 18.4 106.3 18.3 106.5 17.3 105.85 16.7 104.9 16.55 104.1 15.05 104.5 Q15.35 105.05 16.1 105.05 L16.1 105.25 15.8 105.45 15.9 105.75 15.4 105.85 Q14.55 106.75 14.35 107.8 16.45 107.75 17.7 109.5 L17.8 109.65 17.8 109.75 17.75 109.9 17.2 110.75 16.95 110.6 16.75 110.45 Q15.8 109.9 14.45 110.05 L14.35 109.75 14.05 109.95 13.65 110.85 13.65 110.9 12.7 110.95 Q11.9 112.9 11.4 115.0 L11.1 115.45 11.7 118.05 11.7 118.15 11.25 118.1 Q11.4 117.45 11.1 116.85 L11.05 118.05 10.7 117.9 10.55 119.15 10.05 118.6 Q9.2 117.2 9.0 115.55 L9.05 115.0 9.25 114.55 Q8.4 114.15 7.35 114.3 5.9 114.45 5.1 115.55 L5.2 115.65 5.15 115.65 4.8 115.45 4.95 115.45 Q5.35 114.65 6.1 114.25 L6.85 113.95 8.2 113.95 9.0 114.1 9.05 113.2 9.15 112.6 Q9.55 110.75 10.95 109.35 L11.5 108.9 11.35 108.3 Q11.2 107.45 10.6 107.05 L9.6 106.05 Q8.6 105.45 7.3 105.55 L5.55 105.9 5.2 106.0 5.15 105.85 5.9 105.05 Q6.25 104.8 6.8 104.7 9.4 103.95 11.25 106.15 L11.2 105.9 11.15 105.7 11.25 105.8 11.1 105.55 11.1 105.5 10.45 104.2 10.45 104.15 10.4 104.05 9.9 103.45 9.75 103.3 9.6 103.15 9.45 103.0 9.1 102.6 7.45 101.35 Q6.25 100.55 4.85 101.0 L4.45 100.6 4.35 100.3 Q4.9 99.7 5.6 99.8 L6.95 99.9 7.05 99.95 7.1 99.95 7.55 100.15 Q9.1 100.95 10.4 102.4 L10.6 102.6 11.1 103.3 Q12.0 104.55 12.35 106.05 L12.25 104.1 12.25 103.85 12.0 102.15 12.05 102.15 11.9 101.5 11.85 101.1 Q11.9 100.75 12.2 100.65 L12.5 100.6 Q13.3 101.85 13.25 103.5 L13.35 105.55 13.55 106.4 13.55 106.45 13.6 106.55 13.65 106.45 14.1 106.85 Q14.3 105.9 15.15 105.35 L14.65 104.9 Q14.8 104.15 15.25 103.65 L14.2 102.0 13.65 100.8 13.05 100.55 12.9 100.4 13.25 100.3 Q14.25 99.6 13.9 98.45 14.25 97.5 13.1 97.05 L12.3 96.15 12.2 96.05 12.1 95.95 12.35 95.3 12.45 94.75 Q14.2 93.75 12.5 92.45 L11.7 92.45 11.45 92.65 11.7 92.0 11.65 91.9 11.7 91.55 11.5 92.05 11.3 92.25 10.1 93.05 8.55 93.25 7.85 92.75 Q6.85 92.1 6.9 90.95 L6.9 89.7 6.95 89.15 7.15 87.7 6.95 87.0 5.75 85.75 5.1 85.1 5.1 85.0 4.05 84.05 3.9 83.95 Q3.4 83.7 2.9 83.95 L2.5 85.1 2.35 85.7 2.25 85.9 1.7 87.4 1.65 87.55 1.4 90.15 1.25 92.8 1.2 94.55 1.1 94.85 0.75 96.2 Q0.35 97.7 -0.65 98.9 L-0.9 99.2 -1.15 98.75 -1.6 98.5 -1.65 98.5 -1.7 98.45 -1.45 98.15 -1.3 98.05 -1.3 98.0 -1.05 97.1 -1.0 96.95 -0.15 94.05 -0.05 93.75 0.0 91.0 -0.05 90.4 -0.2 89.0 -0.1 87.15 -0.05 87.0 Q-0.1 86.1 0.25 85.3 L0.3 85.0 1.15 82.2 2.1 79.35 2.25 78.9 2.35 78.75 2.55 77.05 2.85 76.3 2.85 75.95 2.85 75.85 2.7 73.55 2.35 70.95 2.15 69.7 1.6 67.85 0.9 65.75 -0.15 64.1 -0.35 63.8 -2.15 61.5 -2.25 61.4 -2.95 60.8 -3.45 60.55 -3.4 60.35 M-3.0 56.6 L-3.3 55.95 -3.35 55.85 Q-2.7 56.05 -2.3 56.65 L-1.75 57.5 -0.9 58.1 -0.25 58.35 0.35 58.55 0.35 58.45 1.55 58.5 Q1.15 56.85 0.2 55.5 L0.05 55.3 -1.25 55.35 Q-2.0 55.25 -2.25 54.5 -1.5 55.3 -0.45 55.0 -0.25 54.8 0.0 54.75 L0.65 54.65 0.75 54.85 Q1.55 56.6 1.85 58.65 L2.6 58.75 3.1 58.8 3.8 58.9 Q3.3 57.35 3.1 55.65 L2.05 55.65 2.95 55.2 2.7 54.4 Q1.95 54.3 1.45 54.9 L1.15 54.9 1.05 54.7 2.4 54.15 Q2.0 53.4 2.15 52.75 L1.8 53.25 -0.3 53.75 -0.25 53.9 -0.5 53.9 -0.8 53.6 -0.8 53.4 -0.3 53.35 1.05 52.9 Q1.85 52.55 2.15 51.7 2.7 50.85 2.6 50.05 L2.3 48.75 1.75 47.45 0.8 46.2 0.75 46.15 0.8 46.05 Q0.95 45.8 1.2 45.8 L2.0 46.35 2.9 47.9 2.95 48.2 2.95 48.55 Q2.95 50.5 2.35 52.2 L2.3 52.2 Q2.9 52.6 3.1 53.65 L3.8 53.45 3.95 53.4 4.45 53.2 4.15 52.15 4.15 52.0 Q3.7 50.0 4.2 47.85 L4.6 47.8 5.4 48.75 5.65 51.7 5.7 52.1 Q6.2 52.5 6.05 53.4 L6.05 53.45 6.45 54.7 Q7.5 57.25 8.15 60.0 L8.2 60.35 8.25 60.5 8.75 61.65 8.85 61.9 9.05 62.35 8.25 61.9 7.25 61.4 6.9 61.2 5.7 60.6 4.4 60.05 3.1 59.65 1.65 59.2 1.0 59.05 -0.6 58.6 Q-1.35 58.45 -1.9 58.05 -2.7 57.5 -3.0 56.6 M-3.0 44.15 L-3.4 44.5 -3.65 44.7 -3.65 44.45 -3.65 43.55 Q-2.95 42.85 -2.05 42.45 L-1.15 42.05 -2.45 37.55 -2.0 37.45 -1.9 37.3 -1.85 37.25 -1.25 39.05 Q-0.8 40.5 -0.9 41.95 L0.45 41.4 1.0 41.15 2.2 40.6 2.2 40.55 2.4 40.5 2.75 39.95 3.6 39.15 4.35 37.95 3.9 37.45 3.3 37.15 2.4 36.45 Q1.8 35.7 1.65 34.8 1.5 34.15 1.75 33.5 1.95 32.65 2.55 31.95 2.85 31.6 3.25 31.6 L3.4 31.65 2.7 32.45 2.0 33.95 1.95 34.5 2.05 35.05 2.25 35.55 3.2 36.0 4.1 36.35 5.15 36.45 6.25 36.5 5.1 38.3 4.6 39.0 3.45 40.2 2.25 41.15 1.15 41.8 1.1 41.85 Q0.45 42.15 -0.25 42.5 L-0.45 42.6 -0.55 42.65 -0.65 42.7 -0.85 42.8 -0.95 42.85 -2.8 44.0 -2.95 44.15 -3.0 44.15 M-6.25 39.15 L-6.25 38.75 -6.15 38.15 -6.1 37.95 -5.9 37.2 -5.8 36.8 -5.8 36.65 -5.7 34.7 -5.65 33.2 -5.45 31.7 -5.15 30.3 -4.65 28.85 -4.05 27.4 -3.25 25.9 -3.0 25.45 -2.9 25.25 -2.85 25.2 -2.65 24.8 -1.75 23.65 -0.95 22.8 0.55 21.55 Q1.1 21.1 1.75 20.75 2.2 20.4 2.7 20.2 L3.75 19.9 5.95 20.2 6.1 20.6 6.35 22.05 6.3 23.45 5.55 24.85 5.45 24.7 5.45 24.65 5.95 23.55 6.0 22.25 Q5.95 21.4 5.35 20.85 L3.25 20.95 2.4 21.35 1.8 21.6 Q1.65 21.65 1.55 21.75 L1.55 21.9 1.25 21.85 1.0 22.0 Q0.65 22.15 0.4 22.45 L0.3 22.5 0.2 22.5 0.05 22.7 0.0 22.6 -0.2 22.75 -0.95 23.55 -1.25 23.9 Q-2.25 25.0 -2.85 26.35 L-3.35 27.7 -4.0 29.6 -4.4 30.7 -4.65 31.7 -4.85 32.2 -4.85 32.55 -4.9 32.65 -4.9 32.9 -5.1 34.0 -5.25 36.4 -5.3 36.65 -5.65 38.35 Q-5.7 39.0 -6.15 39.35 L-6.25 39.4 -6.25 39.15 M-6.4 26.7 L-6.65 27.2 -6.95 27.5 -7.05 27.4 Q-7.3 27.15 -7.0 26.75 L-6.95 26.5 Q-7.0 26.4 -7.1 26.4 L-6.85 25.8 -6.5 25.3 -5.6 24.1 Q-5.05 23.55 -5.0 23.1 L-3.95 21.75 -3.55 21.3 -2.85 20.6 -1.7 19.85 -0.6 19.3 -0.55 19.6 -0.35 19.4 Q0.2 19.0 0.8 18.8 0.95 18.75 1.05 18.65 L1.85 18.1 3.0 17.2 4.05 16.3 4.65 15.5 4.95 15.0 5.6 13.5 5.95 11.8 5.85 10.3 5.5 10.0 5.4 10.0 5.35 10.05 4.45 10.6 4.25 10.85 3.95 11.25 3.85 11.35 3.75 11.35 3.5 11.6 Q3.0 11.55 3.1 11.05 L3.2 10.8 3.2 10.7 Q3.3 10.05 3.7 9.5 L4.3 8.85 5.05 8.5 5.4 8.4 6.85 8.6 7.0 8.65 7.3 8.9 7.0 8.4 6.8 8.2 6.5 7.85 6.35 7.4 6.2 7.1 Q6.2 6.85 6.35 6.7 L6.45 6.6 6.55 6.6 6.55 6.55 Q7.05 6.55 7.45 6.95 L7.6 7.05 8.25 7.4 8.3 7.3 Q9.1 6.35 8.55 5.6 L9.1 4.7 Q9.2 4.0 8.6 3.7 L8.1 3.7 8.05 3.65 7.85 3.45 7.8 3.25 7.8 3.1 7.3 3.1 6.7 2.45 6.6 2.4 7.4 1.95 7.6 1.5 7.4 1.1 7.3 0.95 6.3 0.9 5.7 1.35 5.6 1.5 Q5.5 1.65 5.55 1.85 L5.55 1.9 5.4 1.7 5.2 0.9 5.25 0.75 5.25 0.55 Q5.45 -0.35 6.25 -0.75 L6.1 -0.8 Q5.5 -0.8 5.3 -1.75 L5.1 -1.8 Q4.75 -1.85 4.6 -2.15 L4.6 -2.25 4.9 -3.25 5.0 -3.5 5.1 -3.5 5.15 -4.35 Q5.25 -4.8 5.7 -5.0 L6.4 -5.25 6.45 -5.4 6.6 -5.65 6.7 -5.7 6.8 -5.75 7.45 -5.65 7.25 -5.35 Q8.65 -4.85 8.05 -3.75 9.0 -3.4 9.05 -2.55 L9.25 -2.15 Q9.55 -1.45 10.1 -1.05 10.6 -0.65 10.6 0.05 L10.55 0.05 10.55 0.1 9.85 -0.1 Q9.45 -0.35 9.15 0.25 L9.7 2.0 10.05 2.0 10.3 2.4 10.45 2.75 10.15 3.45 10.35 4.25 Q10.65 5.5 10.55 6.85 L10.45 7.6 10.35 8.1 10.45 8.1 Q10.95 8.35 10.75 8.9 L10.45 9.2 10.2 9.2 10.2 9.55 Q10.95 10.3 11.4 11.45 L9.75 11.35 9.6 11.35 9.75 12.35 11.2 12.65 Q11.95 14.15 11.8 15.95 L10.7 16.1 10.7 16.95 10.55 17.5 10.7 17.6 10.15 21.25 9.9 20.85 9.8 21.5 9.75 21.8 9.5 22.3 9.7 22.65 Q9.3 22.9 9.3 23.4 9.3 23.9 8.9 24.15 9.3 25.3 9.0 26.4 L8.95 26.55 8.85 26.5 8.7 26.45 8.25 25.95 8.2 26.0 Q8.0 26.25 8.2 26.45 L8.4 27.0 8.95 27.3 8.95 27.4 8.95 28.1 9.1 28.8 Q9.35 29.65 8.9 30.4 8.15 30.05 8.25 29.25 8.3 28.6 7.9 28.3 L7.75 28.2 7.7 28.2 Q7.2 29.5 8.0 30.55 L8.4 31.2 8.9 32.75 8.9 32.8 8.8 32.95 7.55 34.4 7.45 34.5 6.45 35.3 5.2 35.75 3.95 35.5 2.65 35.05 2.65 34.3 3.15 33.0 4.05 31.9 4.1 31.9 4.1 31.85 4.85 31.7 Q5.25 31.6 5.3 31.85 L5.15 31.85 4.6 31.95 Q3.95 32.2 3.95 32.8 L3.85 33.05 3.8 33.05 3.55 33.2 3.45 33.3 3.25 33.95 3.25 34.2 3.2 34.35 3.25 34.5 3.35 34.6 3.55 34.85 3.4 34.6 3.9 34.95 3.75 34.95 4.2 35.05 4.85 35.1 Q5.35 35.05 5.6 34.8 L6.65 34.3 6.8 34.15 Q6.35 33.65 6.25 33.1 L6.25 32.3 6.35 31.95 6.15 31.95 6.05 31.8 6.05 31.75 5.4 31.3 Q4.9 30.35 5.8 29.2 L6.2 28.85 6.3 28.85 6.35 28.85 6.05 28.3 6.1 27.3 6.2 27.1 6.35 26.85 6.55 26.65 6.75 26.55 7.25 26.6 7.4 26.6 7.4 26.5 7.35 26.4 7.2 25.4 7.45 25.0 7.0 25.55 Q6.3 26.15 5.45 26.35 4.55 26.7 3.6 26.35 L3.55 26.35 4.15 26.15 5.65 25.5 6.5 24.85 7.05 23.9 7.55 22.05 7.55 20.9 6.95 19.4 6.3 18.65 4.85 17.85 4.85 17.8 4.85 17.45 5.3 16.9 6.15 15.8 6.85 14.5 7.25 13.0 7.35 11.05 7.25 9.95 7.05 9.7 6.6 9.2 6.05 8.85 4.7 8.8 4.05 9.4 3.55 10.15 5.4 9.45 6.2 9.8 6.45 10.15 6.5 11.7 6.4 12.8 6.1 13.9 5.65 14.8 5.1 15.75 4.4 16.6 3.55 17.4 2.55 18.15 2.45 18.05 0.9 18.85 -0.55 19.75 -1.7 20.75 -3.0 21.9 -4.05 23.0 -4.9 24.15 -5.65 25.4 -6.4 26.7 M-9.15 3.15 L-9.05 2.9 -9.1 2.9 -9.3 2.9 -9.45 2.9 -9.25 2.5 -8.95 2.8 -7.6 3.8 -6.05 4.55 -4.65 5.2 -3.1 6.0 -2.5 6.6 -2.5 6.75 -2.4 6.75 -1.6 8.45 Q-1.35 9.1 -1.75 9.85 -2.3 10.8 -3.25 10.8 L-2.95 10.75 -3.35 10.8 -3.8 10.85 -4.25 10.9 -5.3 10.35 -6.25 9.4 -6.3 9.25 -6.6 8.7 -6.5 8.6 Q-5.85 8.6 -5.7 9.25 L-5.65 9.5 -5.55 9.65 -5.5 9.7 -5.25 9.85 -4.55 10.0 -2.9 10.1 -2.8 10.15 -2.7 9.3 -2.55 7.95 -2.9 7.15 -3.6 6.3 -4.2 5.9 -4.5 5.7 -4.8 5.45 -5.1 5.25 -5.65 4.95 -6.9 4.35 -7.5 4.05 -7.85 3.9 -8.85 3.35 -9.15 3.15 M-7.1 -4.15 L-7.1 -4.4 -7.05 -4.55 -6.9 -5.1 -6.5 -6.2 -6.05 -6.85 -5.65 -7.4 -5.15 -8.0 Q-5.75 -6.65 -5.95 -5.15 L-6.1 -4.05 -6.15 -2.95 -5.8 -1.5 -5.75 -1.3 -5.5 -0.4 -4.55 1.0 -4.4 1.15 -3.0 2.6 -2.3 3.1 -2.15 3.25 -1.45 4.0 -0.8 4.9 Q-0.25 5.75 0.0 6.75 L0.3 7.9 0.35 8.9 0.3 9.6 0.05 10.65 Q-0.2 11.35 -0.8 11.8 L-1.0 11.95 -1.45 12.15 -1.6 12.25 -1.6 12.3 -1.55 12.55 -1.85 12.55 -2.05 12.65 -3.5 12.6 -3.95 12.45 Q-4.45 11.8 -5.95 11.5 L-6.05 11.35 -6.65 10.2 -6.85 9.45 -6.5 10.5 -5.95 11.05 -5.4 11.45 -3.8 12.05 -3.75 12.05 -3.55 12.05 -3.5 12.05 -3.3 12.05 -3.0 12.05 -2.85 12.0 -2.25 11.85 -1.45 10.95 -1.1 10.5 -0.75 8.85 Q-0.7 7.9 -0.95 7.05 L-1.55 5.75 -2.3 4.7 -3.35 3.7 -4.65 2.65 -5.7 1.8 -6.75 0.5 Q-7.1 -0.05 -7.25 -0.85 L-7.3 -2.65 -7.1 -4.15 M6.1 41.05 L5.55 44.25 5.15 44.1 Q5.8 43.3 4.9 42.95 4.85 42.45 3.9 42.3 L3.55 42.65 Q3.4 42.9 3.4 43.1 L2.85 43.3 1.45 43.8 0.25 44.25 -0.3 44.1 Q-1.5 44.85 -2.25 46.1 L-2.7 47.3 -2.75 47.4 -2.75 49.0 -2.6 49.55 -2.5 49.95 -2.0 51.05 -1.4 51.6 -1.15 51.8 -0.7 51.95 -0.65 52.0 0.35 51.8 0.3 51.8 0.7 51.55 1.0 51.45 1.05 51.4 1.1 51.4 -0.35 52.1 Q-1.25 52.55 -1.9 51.9 L-2.75 50.85 -3.3 49.55 -3.45 48.4 -3.4 47.2 -3.05 46.35 -1.6 44.55 -0.3 43.6 1.25 42.9 2.25 42.5 Q2.7 42.25 3.45 41.95 L3.75 41.9 3.85 41.75 4.45 41.5 Q5.0 41.2 5.65 41.15 L6.1 41.05 M4.7 44.55 L5.95 45.6 Q6.5 46.2 5.4 47.3 L4.9 46.9 4.4 46.4 4.55 46.2 Q5.1 45.3 4.25 44.75 L4.4 44.75 4.7 44.55 M18.85 106.6 L18.95 106.4 19.3 106.05 19.35 106.05 19.45 106.0 19.55 105.95 19.65 105.9 19.7 105.9 19.8 105.85 20.05 106.15 Q19.45 106.6 18.85 106.6 M20.1 106.2 L22.3 108.75 Q23.1 109.75 24.15 110.5 20.7 110.45 19.8 107.3 19.7 106.95 19.85 106.55 L20.1 106.2 M-1.85 -8.2 L-2.0 -8.1 -2.4 -7.7 -1.9 -8.2 -1.85 -8.2 M-2.45 -7.1 L-2.5 -7.05 -2.5 -7.1 -2.45 -7.55 -2.45 -7.2 -2.45 -7.1 M2.15 31.8 L2.2 31.7 2.2 31.8 2.15 31.8 M4.95 33.75 L5.25 33.5 5.55 33.2 5.5 33.3 4.95 33.75 M7.4 -1.05 L7.0 -1.2 6.65 -0.95 6.65 -0.9 7.35 -0.8 7.4 -1.05 M7.15 3.8 L7.1 3.85 7.05 3.8 7.15 3.8 M3.65 55.4 L3.95 58.95 5.9 59.35 5.8 58.85 5.7 58.2 5.6 57.7 5.45 56.85 5.4 56.55 5.15 55.2 5.15 55.05 5.05 54.55 5.0 54.4 4.9 54.2 4.5 53.3 4.15 53.5 3.9 53.65 3.8 53.7 3.1 54.15 3.35 54.95 3.65 55.25 4.15 55.2 4.35 55.0 4.55 55.1 Q4.4 55.45 3.95 55.4 L3.65 55.4 M7.1 71.15 Q6.8 71.3 6.9 71.6 7.3 73.2 8.95 72.2 L9.0 72.05 Q9.2 70.8 7.8 70.75 L7.1 71.15 M9.0 84.1 L9.05 84.3 9.05 84.55 9.25 84.2 9.0 84.1 M12.45 108.15 L12.55 108.4 12.75 108.9 Q13.0 108.65 13.3 108.7 L13.55 108.85 13.6 108.65 13.6 107.9 13.4 107.15 12.7 107.1 12.4 106.7 12.35 106.85 Q12.25 107.5 12.45 108.05 L12.15 107.8 12.4 108.05 12.45 108.15 M6.55 109.9 L7.0 109.95 Q8.25 110.2 8.8 111.1 L7.5 110.9 Q6.9 110.7 6.25 110.9 L6.2 110.95 Q5.05 111.45 4.55 112.55 L4.45 112.85 4.35 113.05 4.25 113.3 Q4.1 113.7 4.2 114.05 L4.05 114.05 Q3.4 114.15 3.15 113.85 3.3 112.95 3.7 112.15 4.05 111.35 4.7 110.6 L4.8 110.5 4.85 110.45 4.95 110.4 5.0 110.35 5.1 110.3 5.15 110.25 Q5.75 109.9 6.55 109.9 M17.55 103.6 L17.45 103.9 17.4 104.15 17.55 103.6 M17.5 103.5 L17.55 103.45 17.5 103.5 M0.8 47.5 L1.1 47.85 Q0.75 48.35 0.65 48.95 L0.65 49.1 0.6 49.4 0.65 49.95 0.55 50.15 0.45 50.25 0.0 50.2 0.25 50.1 0.25 50.0 0.15 49.8 -0.05 49.5 -0.15 49.15 0.45 47.2 0.8 47.5 M1.65 59.2 L1.7 59.0 1.65 59.2 M-0.7 67.55 L-0.35 67.4 Q0.05 67.45 0.05 67.9 L0.0 68.25 -0.05 68.25 -0.6 67.55 -0.7 67.55 M-2.15 72.75 L-1.95 72.25 -1.6 72.2 -1.6 72.4 -1.9 72.85 -2.15 72.75 M-2.8 68.55 L-2.7 68.6 -2.75 68.7 -2.8 68.65 -2.8 68.55 M-2.25 99.3 L-2.25 99.25 -2.15 99.25 -1.05 99.35 -1.25 99.5 -2.05 99.7 -2.35 99.75 -2.4 99.7 -2.4 99.65 -2.45 99.55 -2.45 99.5 -2.4 99.45 -2.3 99.35 -2.25 99.3 M-5.2 103.8 Q-4.25 103.9 -3.2 104.45 L-3.1 104.5 Q-2.15 105.15 -1.5 105.95 -0.3 107.4 -0.1 109.35 L0.7 108.7 Q0.6 109.45 -0.2 109.45 L-0.2 109.4 -0.1 109.35 -0.65 109.0 Q-1.35 106.6 -3.2 105.35 L-4.3 104.75 -4.45 104.7 -5.0 104.55 -5.45 104.55 Q-5.55 104.25 -5.25 103.85 L-5.2 103.8 M0.3 102.5 L-0.15 102.15 -0.25 102.05 -0.3 102.05 -0.7 101.8 -1.0 101.7 -2.65 101.75 -4.2 101.95 Q-3.45 100.9 -2.1 100.7 -0.55 100.85 0.55 101.95 L0.6 102.0 1.35 103.45 1.7 104.65 1.8 105.6 1.8 105.65 1.8 105.75 1.8 105.95 1.6 105.8 1.5 105.75 0.8 103.35 0.3 102.5 M-4.0 107.1 Q-5.05 106.5 -6.5 106.7 L-6.5 106.2 Q-6.4 106.0 -6.05 105.95 -4.7 105.85 -3.75 106.55 L-3.45 106.85 -3.05 107.9 -4.0 107.1 M-8.0 107.85 L-8.15 108.0 -7.6 108.55 Q-7.2 109.25 -7.15 109.9 -7.15 110.3 -7.3 110.7 L-7.7 109.75 -7.85 109.35 -8.35 108.7 -8.4 108.3 -8.15 107.85 -8.05 107.85 -8.0 107.85 M-4.95 107.9 L-5.15 107.7 -4.65 107.6 -4.4 107.75 Q-2.6 109.2 -2.65 111.65 L-2.5 111.65 -2.55 111.85 -2.8 112.1 -3.35 112.15 -3.35 111.8 -3.3 110.95 Q-3.35 109.85 -3.95 109.1 L-4.95 107.9" fill="#2b5500" fill-rule="evenodd" stroke="none"/>
    <path d="M-5.2 70.2 L-4.5 69.05 -4.45 69.0 -3.9 68.5 -3.25 68.4 -2.8 68.65 -2.75 68.7 -3.05 69.2 -2.9 69.35 -2.75 69.45 Q-2.85 70.35 -2.0 70.6 -2.35 71.1 -2.0 71.6 L-1.75 71.85 -1.95 71.95 -2.0 71.9 -2.35 72.7 -2.15 72.75 -1.9 72.85 -2.15 73.75 Q-2.25 73.35 -2.65 73.05 L-3.3 73.0 -3.3 73.05 Q-3.55 73.1 -3.7 73.3 L-3.9 73.25 -4.6 73.0 Q-5.95 72.35 -5.6 71.1 L-5.45 70.65 -5.2 70.2 M-8.75 25.7 Q-9.3 25.75 -9.45 25.15 -9.7 24.0 -8.85 23.2 L-9.0 23.1 Q-9.35 22.7 -9.25 22.1 -9.15 21.4 -8.7 20.95 L-8.85 20.75 -9.3 19.9 -9.45 19.15 -9.8 19.15 -10.45 18.5 Q-11.1 17.7 -10.7 16.75 L-10.95 16.8 -11.3 16.75 -11.2 16.05 -10.7 16.75 -9.85 17.35 Q-10.05 18.0 -9.45 18.75 L-8.9 19.15 Q-9.05 20.2 -7.35 20.4 L-7.05 20.2 -6.85 20.05 -6.35 20.15 -6.15 20.0 -5.85 19.85 -5.75 19.65 -5.1 18.6 Q-4.05 17.45 -5.4 16.75 L-6.15 16.75 -6.5 17.0 -6.6 16.95 -7.0 17.35 -7.2 17.25 -7.3 17.3 Q-7.4 16.8 -8.0 16.4 -7.55 15.55 -7.5 14.9 L-7.45 14.75 -7.4 14.65 Q-6.7 14.65 -5.75 14.1 -5.45 13.55 -5.7 12.95 L-5.9 12.6 -6.2 12.45 -7.7 12.3 -8.1 12.35 -8.25 12.4 -8.45 12.55 -8.65 12.75 -8.75 12.9 -8.75 13.0 -8.95 13.25 -9.2 13.15 -9.55 13.2 -9.95 12.95 Q-10.7 12.3 -10.35 11.25 L-10.35 11.15 -9.7 10.2 Q-9.3 9.85 -8.7 9.85 L-8.65 9.85 Q-6.25 10.1 -6.85 11.9 -6.5 11.5 -5.95 11.5 -4.45 11.8 -3.95 12.45 -3.45 13.25 -4.2 14.5 L-4.6 14.1 -5.3 14.05 -5.7 14.4 -5.85 14.6 -5.8 15.15 -5.75 15.35 -5.6 15.55 -5.4 15.7 -4.65 15.75 -4.55 15.7 -4.15 15.2 -4.1 14.7 -3.8 14.85 -3.55 15.05 -3.4 15.45 Q-3.3 15.9 -3.55 16.35 L-3.9 16.7 -4.25 16.95 -4.3 16.95 Q-2.5 18.05 -4.8 19.35 L-5.05 19.5 -5.15 19.95 -5.15 20.05 -5.5 20.75 -5.65 21.15 -6.15 21.85 -6.2 21.9 Q-4.95 22.35 -5.0 23.1 -5.05 23.55 -5.6 24.1 L-5.75 24.25 Q-6.2 24.65 -6.75 24.25 L-6.95 24.1 Q-6.95 25.3 -8.5 25.65 L-8.75 25.7 M-9.85 23.35 Q-10.1 23.2 -9.95 22.9 L-9.9 22.8 -9.85 23.35 M-9.45 2.9 L-9.65 2.65 Q-9.8 2.35 -10.15 2.65 L-9.7 1.95 -9.25 2.5 -9.45 2.9 M1.15 -11.55 L2.2 -11.35 4.8 -8.45 Q6.35 -8.3 7.1 -7.2 L7.6 -5.85 7.45 -5.65 6.8 -5.75 6.7 -5.7 6.6 -5.65 6.45 -5.4 6.4 -5.25 5.7 -5.0 Q5.25 -4.8 5.15 -4.35 L5.1 -3.5 5.0 -3.5 4.9 -3.25 4.6 -2.25 4.6 -2.15 Q4.75 -1.85 5.1 -1.8 L5.3 -1.75 Q5.5 -0.8 6.1 -0.8 L6.25 -0.75 Q5.45 -0.35 5.25 0.55 L5.25 0.75 5.15 0.65 4.9 0.55 4.85 0.55 4.85 0.6 4.75 0.75 4.85 0.7 5.2 0.9 5.4 1.7 5.55 1.9 5.55 1.85 Q5.5 1.65 5.6 1.5 L5.7 1.35 6.3 0.9 7.3 0.95 7.4 1.1 7.6 1.5 7.4 1.95 6.6 2.4 6.7 2.45 7.3 3.1 7.8 3.1 7.8 3.25 7.85 3.45 8.05 3.65 8.1 3.7 8.6 3.7 Q9.2 4.0 9.1 4.7 L8.55 5.6 Q9.1 6.35 8.3 7.3 L8.25 7.4 7.6 7.05 7.45 6.95 Q7.05 6.55 6.55 6.55 L6.55 6.6 6.45 6.6 6.35 6.7 Q6.2 6.85 6.2 7.1 L6.35 7.4 6.5 7.85 6.8 8.2 7.0 8.4 7.3 8.9 7.0 8.65 6.85 8.6 5.4 8.4 5.05 8.5 4.3 8.85 3.7 9.5 Q3.3 10.05 3.2 10.7 L3.2 10.8 3.1 11.05 Q3.0 11.55 3.5 11.6 L3.75 11.35 3.85 11.35 3.95 11.25 4.25 10.85 4.45 10.6 5.35 10.05 5.4 10.0 5.5 10.0 5.85 10.3 5.95 11.8 5.6 13.5 4.95 15.0 4.65 15.5 4.05 16.3 3.0 17.2 1.85 18.1 1.05 18.65 Q0.95 18.75 0.8 18.8 0.2 19.0 -0.35 19.4 L-0.55 19.6 -0.6 19.3 -0.65 19.1 -0.9 19.15 -1.45 19.2 -2.3 18.85 Q-3.05 18.8 -3.05 18.0 L-3.0 17.5 -3.05 17.3 Q-3.3 15.9 -2.45 15.2 L-2.05 14.65 -1.4 14.15 -1.55 12.8 -1.55 12.55 -1.6 12.3 -1.6 12.25 -1.45 12.15 -1.0 11.95 -0.8 11.8 Q-0.2 11.35 0.05 10.65 L0.3 9.6 0.35 8.9 0.3 7.9 0.0 6.75 Q-0.25 5.75 -0.8 4.9 L-1.45 4.0 -2.15 3.25 -2.3 3.1 -2.25 1.3 -2.7 0.95 -2.85 0.8 -3.25 0.65 Q-4.5 0.1 -4.0 -1.15 L-3.95 -1.2 -4.25 -1.35 -4.6 -1.65 -4.5 -1.6 Q-3.35 -0.85 -2.65 -1.45 -2.85 -0.45 -1.55 0.45 L-0.8 0.45 -0.55 1.35 0.1 2.0 Q1.85 2.6 1.6 0.9 L1.55 0.3 Q1.5 -0.6 1.05 -1.05 L1.05 -1.15 1.8 -1.15 1.95 -1.15 2.3 -1.65 2.35 -1.95 2.2 -2.2 2.0 -2.7 1.85 -2.8 1.2 -2.85 1.15 -2.8 0.95 -2.7 Q0.45 -3.2 -0.75 -3.3 L-0.85 -3.25 -0.6 -3.65 Q0.2 -4.95 -0.95 -5.75 L-0.95 -5.95 -0.05 -6.0 0.2 -6.25 Q0.95 -7.5 -0.05 -8.0 L0.75 -8.45 Q2.3 -9.55 1.55 -10.4 L1.75 -11.45 1.15 -11.55 M10.6 0.05 L10.6 0.1 10.55 0.1 10.55 0.05 10.6 0.05 M5.15 44.1 L4.95 44.3 4.7 44.55 4.4 44.75 4.25 44.75 Q5.1 45.3 4.55 46.2 L4.4 46.4 4.9 46.9 4.85 47.35 4.65 47.75 4.6 47.8 4.2 47.85 Q3.7 50.0 4.15 52.0 L4.15 52.15 4.45 53.2 3.95 53.4 3.8 53.45 3.1 53.65 Q2.9 52.6 2.3 52.2 L2.35 52.2 Q2.95 50.5 2.95 48.55 L2.95 48.2 2.9 47.9 Q2.6 44.95 0.25 44.25 L1.45 43.8 2.85 43.3 3.4 43.1 Q3.4 42.9 3.55 42.65 L3.9 42.3 Q4.85 42.45 4.9 42.95 5.8 43.3 5.15 44.1 M11.1 74.5 L11.65 75.75 11.15 76.25 10.6 76.35 10.75 76.0 11.1 74.5 M10.25 81.55 L10.4 80.8 10.6 81.75 10.25 81.55 M18.4 106.3 Q18.0 107.1 18.15 108.1 L18.8 106.8 18.85 106.6 Q19.45 106.6 20.05 106.15 L20.1 106.2 19.85 106.55 Q19.7 106.95 19.8 107.3 20.7 110.45 24.15 110.5 L25.1 111.1 Q25.35 110.5 25.8 110.8 L26.55 111.2 25.1 111.25 25.05 111.25 Q24.4 111.1 23.75 110.75 22.4 109.95 20.9 110.5 L19.2 111.75 17.2 110.75 17.75 109.9 17.8 109.75 17.8 109.65 17.7 109.5 Q16.45 107.75 14.35 107.8 14.55 106.75 15.4 105.85 L15.9 105.75 15.8 105.45 16.1 105.25 16.1 105.05 Q15.35 105.05 15.05 104.5 L16.55 104.1 16.7 104.9 17.3 105.85 18.3 106.5 18.4 106.3 M1.35 -6.7 Q1.15 -5.9 1.85 -5.3 L2.4 -5.3 Q2.85 -5.5 2.9 -6.0 L2.9 -6.5 Q3.95 -7.95 1.85 -8.3 L1.25 -7.7 1.2 -7.55 1.2 -7.35 1.2 -7.0 1.25 -6.8 1.35 -6.7 M-5.05 -2.75 L-5.1 -2.95 -5.05 -2.95 -5.05 -2.75 M-1.65 -2.85 L-1.9 -2.6 -1.75 -3.1 -1.35 -3.05 -1.65 -2.85 M3.35 3.05 L1.95 4.1 Q1.25 4.6 1.65 5.35 2.55 7.05 4.0 5.7 6.0 3.65 3.35 3.05 M-3.35 10.8 L-2.95 10.75 -3.25 10.8 -3.35 10.8 M-2.4 6.75 L-2.5 6.75 -2.5 6.6 -2.4 6.75 M-6.4 6.95 Q-6.75 7.35 -7.2 7.35 -6.85 8.0 -7.4 8.85 L-7.95 9.45 -8.75 9.35 -9.05 9.25 Q-10.35 8.7 -9.4 7.0 L-8.95 6.55 -8.5 6.6 -8.35 5.95 -8.25 5.75 -8.15 5.7 -8.05 5.7 -8.05 5.65 Q-6.75 5.45 -6.3 6.45 -6.15 6.75 -6.4 6.95 M4.85 17.45 L4.85 17.8 4.85 17.85 4.75 17.8 4.85 17.45 M3.55 26.35 L3.6 26.35 Q4.55 26.7 5.45 26.35 6.3 26.15 7.0 25.55 L7.45 25.0 7.2 25.4 7.35 26.4 7.4 26.5 7.4 26.6 7.25 26.6 6.75 26.55 6.55 26.65 6.35 26.85 6.2 27.1 6.1 27.3 6.05 28.3 6.35 28.85 6.3 28.85 6.2 28.85 5.8 29.2 Q4.9 30.35 5.4 31.3 L5.1 31.15 4.5 31.1 3.4 31.65 3.25 31.6 Q2.85 31.6 2.55 31.95 1.95 32.65 1.75 33.5 1.5 34.15 1.65 34.8 1.8 35.7 2.4 36.45 L3.3 37.15 3.9 37.45 4.35 37.95 3.6 39.15 2.75 39.95 2.5 39.35 2.4 39.35 Q2.4 38.85 1.95 38.7 L1.8 38.05 1.7 37.6 1.7 37.5 Q1.85 37.05 1.55 36.9 L1.3 36.25 1.4 35.85 Q1.65 35.15 1.1 34.9 L1.25 31.65 1.3 31.75 2.15 31.8 2.2 31.8 2.2 31.7 Q2.65 31.1 2.15 30.85 3.3 29.05 1.85 28.25 3.15 26.4 0.9 25.6 L1.05 25.4 1.2 25.0 1.5 25.0 Q1.0 24.75 1.15 24.05 L1.35 23.65 1.45 23.65 Q1.6 23.5 1.8 23.5 L1.8 23.45 2.45 23.55 1.9 23.1 1.6 23.45 1.2 23.7 0.45 24.15 0.45 24.2 0.5 24.4 0.4 24.45 0.35 24.2 0.3 24.2 Q-0.1 24.4 -0.3 24.0 -0.7 23.35 -0.15 22.85 L0.05 22.7 0.2 22.5 0.3 22.5 0.4 22.45 Q0.65 22.15 1.0 22.0 L1.25 21.85 1.55 21.9 1.55 21.75 Q1.65 21.65 1.8 21.6 L2.4 21.35 3.25 20.95 5.35 20.85 Q5.95 21.4 6.0 22.25 L5.95 23.55 5.45 24.65 5.45 24.7 5.55 24.85 Q5.45 24.95 5.3 25.0 L4.35 25.55 3.45 26.1 3.3 26.1 3.25 26.1 3.15 26.1 2.7 25.7 3.15 26.15 3.55 26.35 3.35 26.6 3.55 26.35 M6.05 31.8 L6.15 31.95 6.35 31.95 6.25 32.3 6.05 31.8 M6.25 33.1 Q6.35 33.65 6.8 34.15 L6.65 34.3 5.6 34.8 Q5.35 35.05 4.85 35.1 L4.2 35.05 3.75 34.95 3.9 34.95 3.4 34.6 3.55 34.85 3.35 34.6 3.25 34.5 3.2 34.35 3.25 34.2 3.25 33.95 3.45 33.3 3.55 33.2 3.8 33.05 3.85 33.05 3.95 32.8 Q3.95 32.2 4.6 31.95 L5.15 31.85 5.3 31.85 5.7 32.45 5.6 33.1 5.55 33.2 5.25 33.5 4.95 33.75 3.75 34.65 3.7 34.7 3.75 34.7 Q4.8 34.8 5.65 34.1 L6.15 33.5 6.25 33.1 M0.65 8.6 L0.45 8.6 0.05 12.0 0.15 11.9 0.85 11.6 0.85 11.5 0.75 11.35 0.7 10.8 0.8 10.55 0.65 8.6 M7.15 3.8 L7.05 3.8 7.1 3.85 7.15 3.8 M3.95 55.4 Q4.4 55.45 4.55 55.1 L4.35 55.0 4.15 55.2 3.65 55.25 3.35 54.95 3.1 54.15 3.8 53.7 3.9 53.65 4.15 53.5 4.5 53.3 4.9 54.2 5.0 54.4 5.05 54.55 5.15 55.05 5.15 55.2 5.4 56.55 5.45 56.85 5.6 57.7 5.7 58.2 5.8 58.85 5.9 59.35 3.95 58.95 3.65 55.4 3.95 55.4 M9.05 62.35 L8.3 62.0 7.25 61.4 8.25 61.9 9.05 62.35 M5.1 74.75 L5.1 73.9 5.25 72.4 5.25 69.65 5.1 68.15 5.1 67.85 4.85 67.15 4.8 66.8 4.5 66.1 4.6 65.85 4.4 65.4 3.75 64.2 3.65 64.05 3.35 63.7 3.35 63.15 3.35 63.55 5.35 63.65 6.5 64.3 6.8 65.7 Q7.6 68.1 7.8 70.55 7.05 70.75 6.65 71.55 6.3 72.3 6.85 72.8 L7.15 73.05 7.7 72.9 7.75 72.95 7.6 72.95 7.05 73.45 7.0 73.75 7.0 73.8 Q6.3 73.75 5.75 74.05 L5.1 74.75 M8.95 76.75 Q9.95 77.15 9.55 78.5 L9.15 79.15 Q7.6 79.45 7.3 78.65 L8.0 78.45 8.55 77.7 8.6 77.6 8.65 77.55 8.75 77.3 8.95 76.75 M6.9 78.75 Q6.8 79.5 7.6 79.75 L7.6 80.25 Q7.8 81.7 9.35 81.4 8.5 81.6 8.15 82.5 7.95 83.05 8.3 83.5 L8.85 84.0 8.8 84.1 Q8.6 84.7 8.85 85.25 L9.0 85.55 9.25 86.0 9.95 87.7 10.7 89.75 10.9 90.25 11.15 90.8 10.45 91.05 10.25 91.15 9.85 91.2 9.65 91.2 Q9.15 91.15 8.85 90.8 L8.7 90.25 8.7 90.1 8.8 88.5 Q9.0 87.35 8.65 86.3 L8.25 85.6 7.15 84.25 6.9 83.9 6.6 83.5 Q5.8 82.25 5.4 80.8 L5.1 79.8 5.1 79.5 5.0 78.0 Q5.6 78.9 6.9 78.75 M9.1 92.2 L9.2 92.2 9.6 92.3 9.1 92.2 M-0.05 95.25 L-0.2 95.0 -0.05 93.75 0.4 90.9 0.4 92.0 0.35 93.05 0.2 94.1 -0.05 95.25 M5.1 85.1 L5.75 85.75 6.95 87.0 7.15 87.7 6.95 89.15 6.9 89.7 6.9 90.95 Q6.85 92.1 7.85 92.75 L8.55 93.25 10.1 93.05 11.3 92.25 11.5 92.05 11.7 91.55 11.65 91.9 11.7 92.0 11.45 92.65 11.7 92.45 12.5 92.45 Q14.2 93.75 12.45 94.75 L12.35 95.3 12.1 95.95 12.2 96.05 12.3 96.15 13.1 97.05 Q14.25 97.5 13.9 98.45 14.25 99.6 13.25 100.3 L12.9 100.4 13.05 100.55 13.65 100.8 14.2 102.0 15.25 103.65 Q14.8 104.15 14.65 104.9 L15.15 105.35 Q14.3 105.9 14.1 106.85 L13.65 106.45 13.55 106.45 13.55 106.4 13.35 105.55 13.25 103.5 Q13.3 101.85 12.5 100.6 L12.2 100.65 Q11.9 100.75 11.85 101.1 L11.9 101.5 12.05 102.15 12.0 102.15 9.1 98.35 8.65 97.95 Q8.35 97.65 7.9 97.65 L3.6 97.35 3.2 97.65 2.35 97.65 Q0.95 96.0 2.95 94.55 L3.05 94.5 Q4.35 93.6 5.75 93.35 L7.05 93.4 7.0 93.25 5.5 90.5 Q4.7 90.6 4.0 91.0 L4.0 91.05 Q2.1 90.9 3.05 89.4 L3.85 88.7 4.85 88.4 5.1 85.1 M12.25 104.1 L12.35 106.05 Q12.0 104.55 11.1 103.3 L11.7 104.25 12.0 104.2 12.25 104.1 M4.45 100.6 L4.85 101.0 Q6.25 100.55 7.45 101.35 L9.1 102.6 8.4 102.05 8.75 102.55 Q9.4 103.7 10.4 104.05 L10.45 104.15 10.45 104.2 11.1 105.5 11.1 105.55 11.15 105.7 11.2 105.9 11.25 106.15 Q9.4 103.95 6.8 104.7 6.25 104.8 5.9 105.05 5.55 104.05 4.5 103.75 L4.45 103.7 Q4.0 103.3 3.3 103.5 L3.25 103.5 Q2.0 103.6 1.7 104.65 L1.35 103.45 1.4 103.4 3.75 100.8 4.45 100.6 M5.55 105.9 L7.3 105.55 Q8.6 105.45 9.6 106.05 L10.6 107.05 Q11.2 107.45 11.35 108.3 L11.5 108.9 10.95 109.35 Q9.55 110.75 9.15 112.6 L9.05 113.2 9.0 114.1 8.2 113.95 Q7.65 112.25 6.5 110.85 L6.25 110.9 Q6.9 110.7 7.5 110.9 L8.8 111.1 Q8.25 110.2 7.0 109.95 L6.55 109.9 6.6 108.25 6.55 108.05 6.05 106.2 6.05 105.75 5.55 105.9 M6.1 114.25 Q5.35 114.65 4.95 115.45 L4.8 115.45 4.55 115.45 4.7 114.8 Q4.0 114.15 4.25 113.3 L4.35 113.05 4.45 112.85 4.55 112.55 5.25 113.0 Q5.8 113.3 5.95 113.85 L6.1 114.25 M5.15 115.65 L5.2 115.65 5.1 115.55 Q5.9 114.45 7.35 114.3 8.4 114.15 9.25 114.55 L9.05 115.0 9.0 115.55 Q9.2 117.2 10.05 118.6 L9.9 118.45 9.75 118.65 9.15 118.05 Q8.7 117.6 9.3 117.2 8.9 116.6 8.15 116.7 L6.75 116.6 Q5.8 116.35 5.15 115.65 M3.3 62.3 L3.75 62.35 3.5 62.35 3.3 62.4 3.3 62.3 M7.1 71.15 L7.8 70.75 Q9.2 70.8 9.0 72.05 L8.95 72.2 Q7.3 73.2 6.9 71.6 6.8 71.3 7.1 71.15 M12.45 108.05 Q12.25 107.5 12.35 106.85 L12.4 106.7 12.7 107.1 13.4 107.15 13.6 107.9 13.6 108.65 13.55 108.85 13.3 108.7 Q13.0 108.65 12.75 108.9 L12.55 108.4 12.45 108.15 12.45 108.05 M3.7 112.15 Q3.3 112.95 3.15 113.85 L3.1 114.2 1.35 112.85 Q0.5 112.15 0.5 110.95 L1.55 109.4 2.25 110.45 2.5 110.85 Q2.9 111.75 3.7 112.15 M-0.25 53.9 L-0.3 53.75 1.8 53.25 2.15 52.75 Q2.0 53.4 2.4 54.15 L1.05 54.7 1.15 54.9 1.45 54.9 Q1.95 54.3 2.7 54.4 L2.95 55.2 2.05 55.65 3.1 55.65 Q3.3 57.35 3.8 58.9 L3.1 58.8 2.6 58.75 1.85 58.65 Q1.55 56.6 0.75 54.85 L0.65 54.65 0.0 54.75 -0.25 53.9 M0.2 55.5 Q1.15 56.85 1.55 58.5 L0.35 58.45 0.35 58.1 0.2 55.5 M-1.65 62.85 Q-1.05 63.9 -1.6 64.7 L-1.7 64.6 -1.9 64.4 -2.5 64.35 -2.65 64.4 -2.75 64.45 -3.05 64.75 -3.7 65.45 -3.75 65.2 Q-4.0 63.5 -2.3 62.75 L-1.65 62.85 M-0.05 68.25 L0.0 68.25 Q1.45 68.85 0.9 70.4 0.65 70.0 -0.35 69.8 0.3 69.0 -0.05 68.25 M-0.65 72.35 Q-0.15 72.25 0.4 71.7 L0.5 71.65 Q1.15 71.7 1.4 72.3 L1.5 72.5 Q0.75 74.1 -0.25 73.95 L0.0 73.25 -0.1 73.05 -0.45 72.6 -0.65 72.35 M-0.7 74.45 L-0.25 74.75 -0.15 74.7 0.25 74.55 Q2.1 75.25 1.15 76.45 1.35 77.25 0.65 78.35 L0.3 78.75 0.0 78.95 -0.1 78.95 -0.65 78.9 -0.95 78.8 -1.0 78.8 -1.6 78.75 Q-3.05 78.55 -3.2 77.45 L-4.2 77.1 Q-4.85 76.65 -4.9 75.5 L-4.95 74.9 Q-4.95 74.35 -4.6 73.9 L-4.25 73.55 -4.2 73.55 -3.7 73.35 -3.75 73.4 -3.9 73.55 -3.85 74.15 -3.8 74.3 -3.65 74.5 -3.45 74.7 -2.7 74.7 -2.55 74.7 -2.2 74.2 -2.15 73.95 -1.9 74.8 -1.9 74.9 -1.85 75.0 -1.8 75.1 -1.65 75.25 -1.15 75.2 -1.05 75.1 -0.95 75.0 -0.9 74.85 -0.9 74.75 -0.7 74.45 M-0.75 67.55 L-1.3 67.55 Q-1.95 67.8 -2.35 68.3 L-2.4 68.35 -2.55 68.45 -2.7 68.6 -2.8 68.55 Q-3.5 68.35 -3.75 67.15 L-3.7 66.3 -3.6 66.45 -3.4 66.65 -2.65 66.65 -2.45 66.5 Q-1.65 66.05 -1.5 65.3 0.2 65.75 -0.65 67.0 L-0.75 67.55 M-3.2 75.05 L-3.35 75.25 -3.45 75.45 -3.4 75.8 -3.4 76.0 -2.75 76.3 -2.85 76.45 Q-3.35 77.75 -2.1 78.3 L-1.2 78.25 Q1.15 76.7 -1.5 75.6 L-2.0 75.7 -2.05 75.7 -2.05 75.6 -2.1 75.45 Q-2.25 74.95 -2.75 74.95 L-3.2 75.05 M-4.15 100.3 L-4.55 101.25 -4.45 100.95 -4.15 100.3 M-1.5 105.95 L-0.7 104.75 Q0.0 103.7 0.4 102.65 L0.3 102.5 0.8 103.35 1.5 105.75 1.6 105.8 1.35 107.65 1.3 108.4 0.7 108.7 -0.1 109.35 Q-0.3 107.4 -1.5 105.95 M-3.75 106.55 L-3.45 105.85 -3.2 105.35 Q-1.35 106.6 -0.65 109.0 L-0.1 109.35 -0.2 109.4 Q-0.95 110.1 -1.45 111.1 L-2.5 111.65 -2.65 111.65 Q-2.6 109.2 -4.4 107.75 L-4.0 107.1 -3.05 107.9 -3.45 106.85 -3.75 106.55 M-7.15 109.9 L-5.95 109.1 -4.75 108.15 -4.95 107.9 -3.95 109.1 Q-3.35 109.85 -3.3 110.95 L-3.35 111.8 -3.4 112.55 Q-4.9 112.55 -5.95 113.2 L-8.25 114.4 Q-9.4 113.2 -10.95 112.85 L-11.6 112.95 -11.2 112.9 -9.2 111.6 Q-8.5 111.15 -7.9 110.55 L-7.55 110.2 -7.7 109.75 -7.3 110.7 Q-7.15 110.3 -7.15 109.9 M-14.0 113.85 L-14.0 113.9 -15.65 113.85 Q-15.1 113.45 -14.35 113.35 L-14.0 113.85" fill="#4f7500" fill-rule="evenodd" stroke="none"/>
    <path d="M-0.95 -5.95 L-0.95 -5.75 Q-1.0 -5.4 -1.2 -5.0 L-1.8 -3.85 Q-2.6 -2.45 -3.55 -3.6 -4.0 -4.15 -3.8 -4.85 L-3.3 -6.15 Q-3.0 -6.8 -2.5 -7.05 L-2.45 -7.1 -2.0 -7.2 Q-1.0 -6.85 -0.95 -5.95 M1.05 -1.05 Q1.5 -0.6 1.55 0.3 L1.6 0.9 Q1.85 2.6 0.1 2.0 L-0.55 1.35 -0.8 0.45 Q-0.9 -0.55 -0.1 -1.3 L0.3 -1.5 1.05 -1.05 M2.9 -6.5 L2.9 -6.0 Q2.85 -5.5 2.4 -5.3 L1.85 -5.3 Q1.15 -5.9 1.35 -6.7 L1.5 -7.2 1.75 -7.5 Q2.7 -7.4 2.9 -6.5 M-7.4 14.65 L-7.45 14.75 -7.5 14.9 -7.8 15.45 Q-8.25 16.45 -9.1 15.65 L-9.4 15.05 Q-9.5 13.95 -8.95 13.25 L-8.75 13.0 -8.3 12.6 -7.65 12.6 Q-6.8 13.45 -7.4 14.65 M-6.5 17.0 L-6.15 16.75 -5.4 16.75 Q-4.05 17.45 -5.1 18.6 L-5.3 18.75 -6.5 19.9 Q-8.15 19.75 -7.45 18.2 -7.15 17.45 -6.5 17.0 M8.45 76.95 Q7.2 77.1 6.9 75.75 6.05 75.0 7.0 74.45 L7.2 74.35 Q9.0 75.0 8.6 76.8 L8.45 76.95 M-0.7 67.55 L-0.6 67.55 -0.05 68.25 Q0.3 69.0 -0.35 69.8 L-0.6 70.1 -1.25 70.65 -2.0 70.6 Q-2.85 70.35 -2.75 69.45 L-2.65 68.9 -2.35 68.3 Q-1.95 67.8 -1.3 67.55 L-0.75 67.55 -0.7 67.55 M-1.6 72.4 L-1.4 72.2 -1.3 72.1 -1.1 72.0 -0.65 72.35 -0.45 72.6 Q-0.25 73.0 -0.55 73.6 L-0.65 73.7 Q-0.6 74.05 -0.7 74.4 L-0.7 74.45 -0.9 74.75 -0.9 74.85 -0.95 75.0 -1.05 75.1 -1.15 75.2 -1.65 75.25 -1.8 75.1 -1.85 75.0 -1.9 74.9 -1.9 74.8 -2.15 73.95 -2.15 73.75 -1.9 72.85 -1.6 72.4" fill="#6ba235" fill-rule="evenodd" stroke="none"/>
    <path d="M-3.3 60.15 L-4.35 59.3 -4.2 58.8 -4.75 57.6 Q-4.2 57.6 -3.7 58.2 L-2.45 59.4 -1.3 60.6 -0.25 61.9 0.55 63.2 1.3 64.6 1.8 66.05 2.25 67.45 1.5 65.85 0.6 64.05 0.05 63.15 -0.55 62.25 -1.3 61.35 -2.1 60.55 Q-2.65 60.15 -3.25 59.95 L-3.3 60.15 M-5.95 37.3 Q-6.4 38.1 -7.35 38.5 L-8.1 37.3 -8.2 36.6 -7.7 36.5 -7.1 34.75 -6.8 33.75 -6.6 32.7 -6.35 31.7 -6.05 30.75 -5.75 29.75 -5.1 27.95 -4.5 26.7 -3.85 25.4 -3.05 24.05 -1.85 22.55 -0.45 21.25 1.0 20.35 1.95 19.9 3.0 19.7 4.9 19.55 Q6.1 19.55 6.1 20.6 L5.95 20.2 3.75 19.9 2.7 20.2 Q2.2 20.4 1.75 20.75 1.1 21.1 0.55 21.55 L-0.95 22.8 -1.75 23.65 -2.65 24.8 -2.85 25.2 -2.9 25.25 -3.0 25.45 -3.25 25.9 -4.05 27.4 -4.65 28.85 -5.15 30.3 -5.45 31.7 -5.65 33.2 -5.7 34.7 -5.8 36.65 -5.8 36.8 -5.95 37.3 M-9.45 19.15 Q-9.55 19.9 -10.05 20.6 L-11.2 20.95 Q-11.15 19.65 -10.45 18.5 L-9.8 19.15 -9.45 19.15 M-9.55 4.05 L-9.55 4.0 -9.5 4.1 -9.55 4.05 M-7.45 -4.4 L-7.1 -4.15 -7.3 -2.65 -7.25 -0.85 Q-7.1 -0.05 -6.75 0.5 L-5.7 1.8 -4.65 2.65 -3.35 3.7 -2.3 4.7 -1.55 5.75 -0.95 7.05 Q-0.7 7.9 -0.75 8.85 L-1.1 10.5 -1.45 10.95 -2.25 11.85 -2.85 12.0 -3.75 12.05 -3.8 12.05 -2.8 11.4 -1.9 10.55 -1.45 9.3 Q-1.35 8.5 -1.55 7.75 -1.85 6.8 -2.4 6.0 L-3.1 5.15 -4.3 4.1 -5.2 3.4 -6.15 2.75 -6.85 2.05 -7.45 1.2 -8.1 -0.3 -8.25 -1.4 -8.1 -2.55 -7.45 -4.4 M8.8 32.95 L9.55 32.55 9.8 32.6 9.85 33.15 10.0 34.8 9.3 36.75 8.95 37.55 8.25 38.7 7.6 39.65 6.9 40.4 6.1 41.05 5.65 41.15 Q5.0 41.2 4.45 41.5 L3.85 41.75 3.75 41.9 3.45 41.95 Q2.7 42.25 2.25 42.5 L1.25 42.9 -0.3 43.6 -1.6 44.55 -3.05 46.35 -3.4 47.2 -3.45 48.4 -3.3 49.55 -3.5 48.95 Q-3.95 47.25 -3.15 45.5 L-2.45 44.55 -0.7 43.15 0.7 42.5 1.85 41.9 2.95 41.3 4.6 40.45 Q5.7 39.9 6.5 39.1 6.65 38.95 6.85 38.9 L7.0 38.1 7.05 36.8 6.45 35.3 7.45 34.5 7.55 34.4 8.8 32.95 M8.95 61.8 L9.4 62.25 9.65 62.5 10.45 63.6 11.3 65.1 11.8 66.1 12.1 67.1 12.15 68.15 12.05 69.85 11.8 71.45 11.2 72.95 11.15 72.9 11.1 72.0 11.05 70.9 10.95 69.6 10.6 68.1 9.75 66.6 8.65 65.3 7.25 64.15 5.75 63.15 4.45 62.55 3.75 62.35 3.3 62.3 1.75 62.25 2.65 63.55 3.35 64.8 3.9 66.05 4.35 67.3 4.7 68.55 4.95 69.8 5.1 71.8 5.1 72.8 5.05 73.75 5.0 74.9 Q4.5 75.5 4.55 76.3 L4.65 77.1 4.45 77.8 4.45 78.05 4.55 79.95 4.85 81.7 5.5 83.15 6.4 84.45 7.35 85.45 7.85 85.95 8.35 86.75 7.75 86.15 7.2 85.55 6.55 84.85 5.9 84.15 5.3 83.45 5.25 83.35 4.75 82.35 4.45 81.25 4.05 78.95 3.95 76.45 3.85 73.15 3.8 71.0 Q3.75 69.5 3.35 68.05 L2.95 66.45 2.65 65.6 2.65 65.5 2.35 64.9 1.7 63.75 Q1.0 62.75 1.0 61.85 L1.05 61.8 1.5 61.4 2.3 61.25 3.45 61.25 5.5 61.9 7.45 62.9 7.35 62.35 6.9 61.2 7.25 61.4 8.3 62.0 9.05 62.35 8.85 61.9 8.95 61.8 M7.25 9.95 L7.35 11.05 7.25 13.0 6.85 14.5 6.15 15.8 5.3 16.9 4.85 17.45 4.75 17.8 4.85 17.85 6.3 18.65 6.95 19.4 7.55 20.9 7.55 22.05 7.05 23.9 6.5 24.85 5.65 25.5 4.15 26.15 3.55 26.35 3.15 26.15 3.3 26.1 3.45 26.1 5.15 25.35 6.1 24.5 6.7 23.25 7.0 21.55 Q7.05 20.75 6.5 19.95 L5.95 19.2 Q5.4 18.3 4.35 18.6 4.0 18.0 4.5 17.4 L5.3 16.2 5.95 14.9 6.55 13.5 Q6.9 12.7 6.9 11.75 L6.9 10.35 Q6.85 9.6 7.25 9.95 M13.65 106.45 L13.6 106.55 13.55 106.45 13.65 106.45 M17.5 103.5 L17.55 103.45 17.5 103.5 M7.85 117.8 L7.85 118.0 7.3 117.8 7.85 117.8 M0.8 46.2 L1.75 47.45 2.3 48.75 2.6 50.05 Q2.7 50.85 2.15 51.7 L2.1 50.65 1.9 49.1 Q1.75 48.15 1.1 47.55 L0.9 47.45 0.8 47.5 0.45 47.2 -0.15 49.15 -0.05 49.5 0.15 49.8 0.25 50.0 0.25 50.1 -0.15 49.25 -0.2 47.5 Q-0.1 46.45 0.8 46.2 M-14.0 113.85 L-13.95 113.9 -14.0 113.9 -14.0 113.85" fill="#669933" fill-rule="evenodd" stroke="none"/>
    <path d="M-4.75 57.6 L-4.55 56.15 -4.1 56.15 -3.0 56.6 Q-2.7 57.5 -1.9 58.05 -1.35 58.45 -0.6 58.6 L1.0 59.05 1.65 59.2 3.1 59.65 4.4 60.05 5.7 60.6 6.9 61.2 7.35 62.35 7.45 62.9 5.5 61.9 3.45 61.25 2.3 61.25 1.5 61.4 1.05 61.8 1.0 61.85 Q1.0 62.75 1.7 63.75 L2.35 64.9 2.65 65.5 2.65 65.6 2.95 66.45 3.35 68.05 Q3.75 69.5 3.8 71.0 L3.85 73.15 3.95 76.45 4.05 78.95 4.45 81.25 4.75 82.35 5.25 83.35 5.3 83.45 5.9 84.15 6.55 84.85 7.2 85.55 7.75 86.15 8.35 86.75 8.45 87.9 8.35 89.1 8.35 90.6 8.8 92.05 9.05 92.15 9.1 92.2 9.6 92.3 Q10.05 91.95 10.6 91.75 L10.7 91.75 10.4 92.7 9.95 92.85 9.6 93.05 Q8.35 92.85 7.85 91.95 6.9 90.15 7.35 88.2 L7.4 87.05 7.3 86.3 5.1 84.15 Q4.35 83.35 3.9 82.0 L3.6 81.05 3.5 80.15 1.15 86.25 1.05 89.1 1.05 91.85 0.95 93.5 0.6 95.2 0.3 96.05 Q-0.25 97.25 -1.15 98.1 L-1.2 98.1 -0.7 96.7 -0.05 95.25 0.2 94.1 0.35 93.05 0.4 92.0 0.4 90.9 0.35 88.95 0.3 87.0 0.65 85.05 1.0 84.05 1.45 83.05 2.1 81.4 2.65 80.0 3.1 78.15 3.25 77.1 3.4 75.9 3.45 74.7 3.5 73.05 3.55 73.0 3.4 71.55 3.3 71.15 3.3 71.1 3.25 70.55 3.2 70.55 2.8 69.0 2.25 67.45 1.8 66.05 1.3 64.6 0.55 63.2 -0.25 61.9 -1.3 60.6 -2.45 59.4 -3.7 58.2 Q-4.2 57.6 -4.75 57.6 M-4.1 50.45 L-4.4 48.85 -4.35 47.1 -4.15 46.3 -3.75 45.15 -3.0 44.15 -2.95 44.15 -2.8 44.0 -0.95 42.85 -0.85 42.8 -0.65 42.7 0.75 42.05 Q0.95 41.9 1.1 41.85 L1.15 41.8 2.25 41.15 3.45 40.2 4.6 39.0 5.1 38.3 6.25 36.5 5.15 36.45 4.1 36.35 3.2 36.0 2.25 35.55 2.05 35.05 1.95 34.5 2.0 33.95 2.7 32.45 3.4 31.65 4.5 31.1 5.1 31.15 5.7 32.45 5.3 31.85 Q5.25 31.6 4.85 31.7 L4.1 31.85 4.05 31.9 3.15 33.0 2.65 34.3 2.65 35.05 3.95 35.5 5.2 35.75 6.45 35.3 7.05 36.8 7.0 38.1 6.85 38.9 Q6.65 38.95 6.5 39.1 5.7 39.9 4.6 40.45 L2.95 41.3 1.85 41.9 0.7 42.5 -0.7 43.15 -2.45 44.55 -3.15 45.5 Q-3.95 47.25 -3.5 48.95 L-3.3 49.55 -2.75 50.85 -1.9 51.9 Q-1.25 52.55 -0.35 52.1 L1.1 51.4 1.05 51.4 1.0 51.45 0.7 51.55 0.3 51.8 0.35 51.8 1.15 50.8 Q1.6 50.1 1.65 49.05 1.65 48.2 1.1 47.55 1.75 48.15 1.9 49.1 L2.1 50.65 2.15 51.7 Q1.85 52.55 1.05 52.9 L-0.3 53.35 -0.8 53.4 Q-1.8 53.5 -2.5 52.8 L-3.3 52.0 Q-4.0 51.35 -4.1 50.45 M-5.9 37.2 L-5.95 37.3 -5.8 36.8 -5.9 37.2 M-8.1 37.3 L-8.55 36.1 -8.65 34.75 -8.3 33.25 -7.8 31.65 -7.25 30.0 -6.85 28.4 -6.4 26.7 -5.65 25.4 -4.9 24.15 -4.05 23.0 -3.0 21.9 -1.7 20.75 -0.55 19.75 0.9 18.85 2.45 18.05 2.5 18.15 2.55 18.15 3.55 17.4 4.4 16.6 5.1 15.75 5.65 14.8 6.1 13.9 6.4 12.8 6.5 11.7 6.45 10.15 6.2 9.8 5.4 9.45 3.55 10.15 4.05 9.4 4.7 8.8 6.05 8.85 6.6 9.2 7.05 9.7 7.25 9.95 Q6.85 9.6 6.9 10.35 L6.9 11.75 Q6.9 12.7 6.55 13.5 L5.95 14.9 5.3 16.2 4.5 17.4 Q4.0 18.0 4.35 18.6 5.4 18.3 5.95 19.2 L6.5 19.95 Q7.05 20.75 7.0 21.55 L6.7 23.25 6.1 24.5 5.15 25.35 3.45 26.1 4.35 25.55 5.3 25.0 Q5.45 24.95 5.55 24.85 L6.3 23.45 6.35 22.05 6.1 20.6 Q6.1 19.55 4.9 19.55 L3.0 19.7 1.95 19.9 1.0 20.35 -0.45 21.25 -1.85 22.55 -3.05 24.05 -3.85 25.4 -4.5 26.7 -5.1 27.95 -5.75 29.75 -6.05 30.75 -6.35 31.7 -6.6 32.7 -6.8 33.75 -7.1 34.75 -7.7 36.5 -8.2 36.6 -8.1 37.3 M-8.95 2.8 L-9.25 2.1 -9.95 0.9 -10.0 0.8 -9.95 0.65 -9.95 -0.1 -10.0 -1.7 Q-10.0 -3.5 -8.65 -4.5 L-7.45 -4.4 -8.1 -2.55 -8.25 -1.4 -8.1 -0.3 -7.45 1.2 -6.85 2.05 -6.15 2.75 -5.2 3.4 -4.3 4.1 -3.1 5.15 -2.4 6.0 Q-1.85 6.8 -1.55 7.75 -1.35 8.5 -1.45 9.3 L-1.9 10.55 -2.8 11.4 -3.8 12.05 -5.4 11.45 -5.95 11.05 Q-6.55 10.35 -6.75 9.3 L-6.7 9.0 -6.65 8.95 -6.3 9.25 -6.25 9.4 -5.3 10.35 -4.25 10.9 -3.8 10.85 -3.35 10.8 -3.25 10.8 Q-2.3 10.8 -1.75 9.85 -1.35 9.1 -1.6 8.45 L-2.4 6.75 -2.5 6.6 -3.1 6.0 -4.65 5.2 -6.05 4.55 -7.6 3.8 -8.95 2.8 M-7.5 4.05 L-6.9 4.35 -5.65 4.95 -5.1 5.25 -4.8 5.45 -5.75 5.05 -5.9 4.95 -7.5 4.05 M-5.5 9.7 L-5.55 9.65 -5.65 9.5 -5.65 9.4 -5.5 9.7 M3.3 26.1 L3.15 26.15 2.7 25.7 3.15 26.1 3.25 26.1 3.3 26.1 M3.75 34.65 L3.75 34.7 3.7 34.7 3.75 34.65 M0.65 49.1 L0.75 49.6 Q0.9 49.95 0.55 50.15 L0.65 49.95 0.6 49.4 0.65 49.1" fill="#66cc33" fill-rule="evenodd" stroke="none"/>
    <path d="M-10.95 16.8 L-11.3 16.8 -11.3 16.75 -10.95 16.8 M-10.95 11.35 L-11.2 11.35 -11.2 11.3 -10.95 11.35 M25.1 111.25 L25.05 111.25 25.1 111.25 M3.55 26.35 L3.35 26.6 3.55 26.35 M2.55 18.15 L2.5 18.15 2.45 18.05 2.55 18.15 M3.95 55.4 L3.65 55.4 3.95 55.4 M1.65 59.2 L1.7 59.0 1.65 59.2" fill="#ffffff" fill-rule="evenodd" stroke="none"/>
    <path d="M8.75 61.65 L8.95 61.8 8.85 61.9 8.75 61.65 M11.15 73.0 L10.75 73.35 11.15 72.9 11.15 73.0 M4.1 31.85 L4.1 31.9 4.05 31.9 4.1 31.85 M3.2 70.55 L3.25 70.55 3.3 71.1 3.2 70.55 M3.4 71.55 L3.55 73.0 3.5 73.05 3.4 71.8 3.4 71.55" fill="#717100" fill-rule="evenodd" stroke="none"/>
    <path d="M5.4 31.3 L6.05 31.75 6.05 31.8 6.25 32.3 6.25 33.1 6.15 33.5 5.65 34.1 Q4.8 34.8 3.75 34.7 L3.75 34.65 4.95 33.75 5.5 33.3 5.55 33.2 5.6 33.1 5.7 32.45 5.1 31.15 5.4 31.3" fill="#4a7500" fill-rule="evenodd" stroke="none"/>
    <path d="M11.05 118.05 L11.1 116.85 Q11.4 117.45 11.25 118.1 L11.2 118.15 11.0 119.55 Q10.75 119.0 11.0 118.3 L11.05 118.05 M3.3 71.1 L3.3 71.15 3.3 71.1 M-4.9 75.5 L-5.2 75.6 -5.3 75.65 -5.3 75.6 -5.2 75.6 -4.9 75.5" fill="#669900" fill-rule="evenodd" stroke="none"/>
  </g>
</svg>
