<?xml version="1.0" encoding="UTF-8" standalone="no"?>
<svg xmlns:xlink="http://www.w3.org/1999/xlink" height="109.75px" width="45.45px" xmlns="http://www.w3.org/2000/svg">
  <g transform="matrix(1.0, 0.0, 0.0, 1.0, 11.8, 19.4)">
    <path d="M20.1 31.5 L20.5 31.65 22.65 32.75 23.9 33.45 Q24.7 31.35 23.8 29.45 L22.65 26.7 22.25 25.65 21.6 18.7 Q21.25 16.95 20.15 15.55 19.05 14.1 19.2 12.25 19.7 10.6 19.35 8.85 L18.2 5.65 Q16.5 1.5 15.35 -2.9 14.25 -9.05 9.6 -13.75 7.25 -15.9 4.55 -17.3 2.0 -18.6 -1.05 -18.65 L-1.35 -18.65 Q-4.2 -18.25 -6.7 -16.55 L-6.75 -16.5 -7.6 -15.9 -8.3 -15.2 Q-9.5 -13.85 -10.0 -12.05 L-10.1 -11.75 -10.1 -11.7 -10.7 -9.55 -10.75 -9.2 -11.35 -5.55 -11.5 -3.05 Q-11.6 -0.2 -11.0 2.35 -10.6 4.15 -9.8 5.85 -5.9 10.3 -2.95 15.25 L-1.4 18.3 Q-0.75 19.8 -0.25 21.35 L0.8 25.55 0.85 26.05 Q1.4 28.55 0.75 30.85 L-0.45 35.4 Q-1.05 37.65 -0.25 39.95 L-0.35 39.8 -0.4 40.0 -0.25 40.0 1.45 38.05 6.1 33.3 6.2 33.2 8.45 31.8 9.15 31.45 9.9 31.15 Q12.45 30.2 15.3 30.35 L18.2 30.7 20.1 31.5 M17.05 -0.55 Q18.3 4.05 20.4 8.3 20.95 10.75 20.3 13.35 20.7 14.7 21.5 15.85 22.3 16.95 22.5 18.4 L22.7 21.3 Q22.6 22.65 22.9 24.2 24.15 26.65 25.05 29.55 25.9 32.4 24.45 35.15 25.45 37.2 24.65 39.4 25.8 41.85 25.8 44.9 25.25 47.8 23.25 50.0 24.2 51.8 23.75 53.8 23.25 55.75 22.15 57.3 L23.6 58.95 Q24.35 59.9 24.45 61.15 L24.25 64.3 Q26.9 66.05 26.95 69.35 26.7 70.1 26.75 71.0 29.2 72.1 30.75 74.2 32.25 76.3 33.25 78.6 33.75 80.2 33.6 82.0 33.4 83.75 32.25 84.95 L29.35 86.7 Q27.85 87.5 26.15 87.0 24.8 89.25 22.25 89.85 L17.2 90.3 12.95 90.05 Q10.6 89.6 9.0 87.9 4.05 87.95 0.6 84.7 L-0.1 84.05 Q-3.15 83.6 -5.9 82.1 -8.7 80.6 -9.55 77.4 -10.35 75.0 -9.45 72.95 L-7.9 68.85 -5.1 65.15 Q-6.3 61.3 -4.8 58.05 -3.35 54.8 -2.5 51.45 -2.0 48.6 -2.25 45.95 -2.55 43.3 -0.95 41.05 -2.7 38.4 -1.55 35.65 -0.45 32.85 0.0 30.1 0.0 25.75 -1.35 21.8 -2.7 17.8 -4.8 14.2 L-9.5 8.0 Q-11.25 5.8 -11.8 3.2 L-11.8 -11.15 Q-10.85 -14.15 -8.45 -16.5 -5.55 -18.7 -1.6 -19.25 2.35 -19.85 5.7 -18.0 8.3 -16.55 10.45 -14.3 12.55 -12.05 14.05 -9.5 15.8 -5.15 17.05 -0.55 M13.55 31.3 L12.1 31.45 Q9.75 31.9 7.8 33.5 L2.9 37.8 Q1.15 39.45 -0.2 41.45 L-1.0 42.8 -1.3 49.05 Q-1.35 52.3 -2.65 55.05 -3.9 57.25 -4.35 59.8 -4.85 62.35 -3.95 64.75 L-4.6 65.7 -4.65 65.7 -7.0 69.0 -8.45 72.75 Q-9.15 74.35 -8.8 76.1 L-8.6 76.7 Q-8.15 79.95 -5.45 81.25 -3.05 82.35 -0.75 83.05 L-0.85 81.95 -0.75 81.0 -0.45 79.8 Q0.0 78.4 1.2 77.55 1.7 77.1 2.2 76.8 L2.75 76.5 3.7 76.1 Q6.0 75.2 8.55 74.95 10.05 74.8 11.55 74.95 L11.6 74.95 12.8 75.0 14.6 75.15 17.6 75.45 18.3 75.5 20.0 75.85 20.6 76.0 21.7 76.4 21.5 77.15 Q21.7 76.2 22.15 75.4 L22.85 74.05 Q23.6 72.35 24.85 71.15 L25.8 70.25 25.85 70.2 Q26.0 67.6 24.5 65.95 L24.25 65.25 23.55 64.6 24.05 65.05 Q22.8 66.2 21.15 66.9 19.05 67.8 16.85 68.2 L15.1 68.55 14.15 68.7 13.0 68.75 9.5 68.5 9.35 68.35 8.45 68.3 8.4 68.3 7.75 68.1 5.8 67.35 5.6 67.25 4.8 67.15 4.15 66.8 3.65 66.45 Q2.7 65.6 2.15 64.5 1.5 63.6 1.4 62.55 L1.45 62.6 1.35 62.45 Q1.4 61.25 2.2 60.2 4.55 58.4 7.6 58.6 L12.1 59.0 13.15 58.85 15.3 59.05 17.1 58.95 19.95 58.0 21.35 57.15 21.1 57.05 20.8 57.25 21.6 56.55 Q23.35 54.3 22.7 51.55 L22.6 51.6 22.7 51.2 22.7 50.85 22.55 50.95 Q21.0 51.9 19.15 52.05 L14.3 51.45 12.95 50.95 11.65 50.0 9.7 47.95 9.15 46.95 8.5 45.6 8.15 44.25 8.0 43.5 8.0 42.8 8.0 42.7 8.05 42.4 8.1 41.85 8.1 41.7 8.1 41.65 8.1 41.6 8.2 41.0 8.25 40.85 8.55 40.0 8.75 40.05 8.85 39.9 8.65 39.8 8.75 39.6 9.0 39.15 9.65 38.15 9.7 38.15 Q10.5 37.5 11.35 37.0 13.1 35.9 15.15 36.05 L17.6 36.15 Q19.1 36.2 20.55 36.8 L20.9 36.9 Q22.15 37.35 23.25 38.1 L23.75 38.45 24.1 38.75 Q24.4 36.45 23.2 34.8 L22.45 33.9 Q20.55 32.6 18.4 31.95 L15.1 31.35 13.7 31.3 13.55 31.3 M0.7 49.9 L0.7 49.85 0.55 49.4 0.3 45.95 0.5 45.2 0.75 44.65 0.4 45.3 0.4 45.15 Q0.8 44.3 1.5 43.75 L1.35 43.9 1.55 43.7 Q1.75 43.5 2.0 43.4 2.5 43.05 3.15 42.85 L3.75 42.9 3.9 42.9 4.4 43.35 4.5 43.45 Q5.85 44.15 6.6 45.55 L7.05 46.7 7.05 46.75 6.9 46.45 6.85 46.4 6.4 45.7 5.85 45.2 5.35 44.9 5.3 44.85 5.25 44.85 5.05 44.75 4.4 44.55 4.4 44.5 4.35 44.45 4.3 44.45 4.2 44.5 3.15 44.45 Q2.0 44.65 1.4 45.6 L1.3 45.75 1.1 46.45 1.1 46.5 Q0.85 47.6 1.15 48.7 L1.55 49.8 2.0 50.8 2.4 51.45 Q2.9 52.15 3.65 52.35 L3.75 52.35 4.1 52.4 Q5.1 52.4 5.9 52.75 L5.95 52.7 Q6.35 52.4 6.8 52.3 L7.75 51.7 7.85 51.5 8.2 50.4 8.1 49.25 8.4 49.75 Q8.8 50.9 8.4 51.9 L7.95 52.6 Q7.3 53.25 6.35 53.5 L3.25 53.2 2.85 53.0 2.4 52.6 2.4 52.55 2.35 52.55 2.25 52.45 2.2 52.35 1.6 51.6 1.15 50.85 1.1 50.8 1.05 50.55 1.05 50.45 0.95 50.25 0.8 50.05 0.7 49.9 M-0.15 83.2 L-0.15 83.15 -0.2 83.2 -0.15 83.2 M17.85 36.7 L14.95 36.8 14.8 36.85 13.2 37.3 Q11.75 37.9 10.6 39.1 L10.5 39.2 10.35 39.35 9.85 40.0 Q9.3 40.85 9.1 41.9 L9.1 41.95 9.1 42.0 9.1 42.4 9.55 44.5 9.6 44.65 9.7 44.95 9.75 45.15 10.35 46.4 10.8 47.1 10.85 47.25 11.15 47.65 11.2 47.7 Q11.7 48.8 12.5 49.55 L14.45 50.7 14.5 50.7 14.9 50.85 18.8 51.6 Q20.5 51.5 21.85 50.25 L22.35 49.8 24.15 47.65 24.2 47.55 Q24.75 46.3 24.9 45.05 L24.95 44.2 24.95 43.55 24.5 41.55 24.3 41.15 23.95 40.55 23.6 40.05 Q22.15 38.05 19.75 37.2 L17.9 36.7 17.85 36.7 M23.5 61.35 L23.25 60.05 Q22.65 58.35 21.7 58.7 L21.6 58.75 21.3 58.95 20.4 59.5 20.0 59.7 19.3 59.95 19.1 60.0 18.8 60.05 18.7 60.05 17.8 60.3 17.5 60.35 17.45 60.35 16.05 60.5 15.3 60.5 13.05 60.25 12.8 60.2 12.75 60.2 9.9 59.7 6.7 59.4 Q5.55 59.45 4.45 60.05 3.35 60.65 2.9 61.85 2.7 62.45 2.8 63.0 L3.05 63.85 Q4.1 66.25 6.45 66.75 L7.25 66.9 11.0 67.75 17.95 67.25 Q21.1 67.1 22.9 64.45 L23.3 63.8 23.35 63.65 23.45 62.95 23.5 61.35 M30.9 76.0 L29.7 74.5 Q28.25 72.95 26.4 72.1 L26.25 72.15 26.1 72.2 Q24.75 72.65 24.0 73.7 L23.65 74.2 Q22.7 75.8 22.15 77.4 L22.05 77.65 22.15 77.95 22.1 77.95 Q21.9 78.0 21.85 78.3 L21.85 78.6 21.85 78.75 21.9 78.9 21.4 78.35 Q20.65 77.75 19.8 77.4 L19.65 77.3 19.5 77.25 19.3 77.2 19.15 77.15 19.0 77.1 13.0 76.7 7.8 76.3 6.8 76.35 Q3.65 76.65 1.5 79.0 0.55 80.45 0.55 82.15 L0.65 83.25 0.65 83.35 0.75 83.35 1.55 84.4 2.45 85.1 3.5 85.6 3.55 85.6 3.65 85.65 7.2 86.45 Q7.2 85.55 6.6 85.0 L5.55 83.8 5.7 83.6 5.8 83.65 6.15 83.75 7.1 84.35 Q8.35 85.15 9.25 86.45 10.5 88.45 12.6 89.25 L14.6 89.25 15.15 89.25 19.4 89.3 Q22.85 89.25 25.2 86.8 L25.3 86.75 Q25.7 86.5 26.25 86.2 L26.35 86.15 28.2 85.95 31.25 84.5 Q32.85 83.65 32.9 81.75 32.65 78.6 30.9 76.0" fill="#000000" fill-rule="evenodd" stroke="none"/>
    <path d="M-8.3 -15.2 L-7.6 -15.9 -6.75 -16.5 -6.7 -16.55 Q-4.2 -18.25 -1.35 -18.65 L-1.05 -18.65 Q2.0 -18.6 4.55 -17.3 7.25 -15.9 9.6 -13.75 14.25 -9.05 15.35 -2.9 16.5 1.5 18.2 5.65 L19.35 8.85 Q19.7 10.6 19.2 12.25 19.05 14.1 20.15 15.55 21.25 16.95 21.6 18.7 L22.25 25.65 22.65 26.7 23.8 29.45 Q24.7 31.35 23.9 33.45 L22.65 32.75 20.5 31.65 20.1 31.5 Q20.1 30.65 20.4 29.75 L18.9 27.0 18.0 27.05 Q16.05 27.05 14.55 28.0 L14.45 28.05 Q12.5 29.35 10.7 28.55 L10.35 28.35 10.8 27.4 11.05 26.8 11.25 26.3 11.45 25.9 Q11.95 24.75 12.6 23.75 L12.75 23.5 15.4 20.3 15.45 20.0 15.35 19.5 15.15 19.4 14.95 19.35 14.9 19.35 14.6 19.35 14.15 19.15 Q13.2 19.25 12.6 19.95 L12.55 20.0 12.05 19.8 11.35 20.0 Q9.45 20.75 9.4 22.7 L9.4 23.2 8.9 24.4 8.8 24.65 8.5 25.3 8.2 25.95 7.45 27.2 6.6 28.25 6.25 28.65 6.15 28.8 Q5.85 28.8 5.65 28.95 L5.55 29.0 5.45 29.05 5.35 29.1 5.05 29.15 4.4 29.15 4.05 29.1 4.1 29.05 4.35 28.15 4.35 28.05 4.35 27.95 Q4.55 24.85 5.9 22.2 6.85 20.3 8.2 18.5 L11.4 15.75 Q11.8 14.4 11.6 13.15 L11.45 12.2 Q11.2 10.55 11.2 8.9 L11.2 5.35 Q11.2 2.1 10.65 -1.0 L10.4 -2.9 Q10.25 -4.45 9.7 -5.85 9.1 -7.2 8.05 -8.2 6.4 -9.7 4.4 -10.25 L0.2 -11.3 Q-2.65 -11.75 -5.3 -10.55 L-7.5 -9.5 -8.1 -9.1 -9.05 -8.4 Q-10.45 -7.15 -11.35 -5.55 L-10.75 -9.2 -10.65 -9.35 -10.7 -9.55 -10.1 -11.7 -10.05 -11.75 -10.0 -12.05 Q-9.5 -13.85 -8.3 -15.2 M24.5 41.55 L24.95 43.55 24.95 44.2 24.9 45.05 Q24.75 46.3 24.2 47.55 L24.15 47.65 22.35 49.8 21.85 50.25 Q20.5 51.5 18.8 51.6 L14.9 50.85 14.9 50.75 Q13.9 49.9 13.15 48.6 L15.0 49.0 20.6 48.55 21.05 48.4 Q23.65 45.0 24.05 40.9 L24.4 41.4 24.5 41.55 M2.0 50.8 L3.45 50.75 5.15 50.55 Q6.5 49.25 7.35 47.7 L7.4 47.65 8.0 49.0 8.1 49.25 8.2 50.4 7.85 51.5 7.75 51.7 6.8 52.3 Q6.35 52.4 5.95 52.7 L5.9 52.75 Q5.1 52.4 4.1 52.4 L3.75 52.35 3.7 52.25 3.65 52.35 Q2.9 52.15 2.4 51.45 L2.0 50.8 M23.5 61.35 L23.45 62.95 23.35 63.65 23.3 63.8 22.9 64.45 Q21.1 67.1 17.95 67.25 L11.0 67.75 7.25 66.9 6.7 66.3 Q6.2 65.5 6.05 64.8 L6.45 64.85 7.35 65.25 7.4 65.25 7.5 65.15 7.65 65.05 12.05 65.2 12.35 65.25 Q15.55 65.5 18.6 64.5 21.7 63.45 23.4 60.85 L23.5 61.35 M30.9 76.0 Q32.65 78.6 32.9 81.75 32.85 83.65 31.25 84.5 L28.2 85.95 26.35 86.15 26.25 86.2 Q25.7 86.5 25.3 86.75 L25.2 86.8 Q22.85 89.25 19.4 89.3 L15.15 89.25 14.6 89.25 12.6 89.25 Q10.5 88.45 9.25 86.45 8.35 85.15 7.1 84.35 L6.15 83.75 5.8 83.65 5.7 83.6 5.55 83.8 6.6 85.0 Q7.2 85.55 7.2 86.45 L3.65 85.65 3.55 85.6 3.5 85.6 2.45 85.1 1.55 84.4 0.75 83.35 0.65 83.25 0.55 82.15 Q0.55 80.45 1.5 79.0 3.65 76.65 6.8 76.35 L7.8 76.3 6.55 77.0 Q3.65 78.3 4.05 81.6 L4.1 82.1 5.05 82.0 8.75 82.8 9.5 83.75 10.9 85.05 Q12.45 85.95 14.2 86.2 L14.15 85.95 14.25 85.8 Q16.1 87.1 18.45 86.25 20.45 85.55 21.8 84.1 22.4 83.45 22.15 82.7 21.7 80.95 19.65 81.4 L19.1 81.55 19.05 81.5 22.6 81.3 23.5 81.45 23.4 81.3 23.1 80.7 23.0 80.5 22.65 79.95 21.9 78.9 21.85 78.75 21.85 78.6 21.85 78.3 Q21.9 78.0 22.1 77.95 L22.15 77.95 22.3 78.05 22.9 78.6 24.65 81.25 Q24.8 81.95 25.75 82.35 26.55 82.7 27.1 82.15 L28.9 80.3 29.5 79.0 Q30.05 77.1 28.15 76.95 L28.2 76.8 Q28.85 76.3 29.7 76.15 L30.9 76.0" fill="#52527c" fill-rule="evenodd" stroke="none"/>
    <path d="M-10.75 -9.2 L-10.7 -9.55 -10.65 -9.35 -10.75 -9.2 M-10.1 -11.7 L-10.1 -11.75 -10.05 -11.75 -10.1 -11.7 M25.1 74.55 L25.05 74.5 25.65 74.7 25.1 74.55" fill="#c5eeff" fill-rule="evenodd" stroke="none"/>
    <path d="M1.45 38.05 L-0.25 40.0 -0.25 39.95 Q-1.05 37.65 -0.45 35.4 L0.75 30.85 Q1.4 28.55 0.85 26.05 L0.8 25.55 -0.25 21.35 -0.7 19.65 -1.4 18.3 -2.95 15.25 Q-5.9 10.3 -9.8 5.85 -10.6 4.15 -11.0 2.35 -11.6 -0.2 -11.5 -3.05 L-11.35 -5.55 Q-10.45 -7.15 -9.05 -8.4 L-8.1 -9.1 -7.5 -9.5 Q-7.25 -8.95 -7.7 -8.0 L-8.55 -5.65 -8.6 -5.45 -8.7 -4.95 Q-9.7 -2.55 -9.0 0.05 L-9.0 0.15 Q-9.0 1.5 -8.4 2.8 L-8.15 3.7 Q-7.25 6.45 -5.6 8.95 L-3.0 12.0 -2.95 12.05 -1.05 13.6 -0.05 14.6 -0.05 14.7 0.05 14.9 0.1 15.15 0.25 15.45 0.5 15.85 1.8 17.55 2.0 18.0 2.55 19.65 2.85 20.85 3.1 21.1 3.5 21.1 Q4.4 20.5 4.75 19.4 L4.85 19.2 4.95 19.0 Q5.2 18.4 4.85 18.2 L4.9 18.1 6.85 15.8 Q8.25 14.4 10.0 13.75 10.6 12.8 11.45 12.2 L11.6 13.15 Q11.8 14.4 11.4 15.75 L8.2 18.5 Q6.85 20.3 5.9 22.2 4.55 24.85 4.35 27.95 L4.35 28.05 4.35 28.15 Q3.95 28.65 3.25 28.85 L2.8 29.55 2.6 29.8 2.5 29.8 1.7 32.0 Q1.55 32.2 1.55 32.4 L1.5 32.65 1.0 33.7 Q0.8 34.6 0.9 35.45 0.95 36.4 1.3 37.3 L1.45 38.0 1.45 38.05 M7.45 27.2 L8.2 25.95 8.5 25.3 8.8 24.65 8.9 24.4 9.4 23.2 Q9.55 24.3 10.9 24.15 L11.25 23.9 11.3 23.85 11.25 24.05 10.7 25.35 11.45 25.9 11.25 26.3 11.05 26.8 10.8 27.4 10.35 28.35 10.7 28.55 Q8.2 29.05 7.45 27.2 M10.35 39.35 L10.5 39.2 10.6 39.1 Q11.75 37.9 13.2 37.3 L14.8 36.85 14.95 36.8 17.85 36.7 Q16.05 37.5 14.8 39.15 L14.2 40.05 Q13.5 40.35 13.15 41.2 L12.85 41.55 Q11.85 42.8 12.45 44.45 L12.5 44.55 12.45 44.65 Q11.95 46.7 13.05 48.5 L13.15 48.6 Q13.9 49.9 14.9 50.75 L14.5 50.6 Q13.35 50.25 12.55 49.5 11.7 48.75 11.2 47.6 10.25 46.35 9.7 44.95 L9.6 44.65 9.55 44.5 9.1 42.4 9.1 42.0 9.1 41.95 9.1 41.9 Q9.3 40.85 9.85 40.0 L9.9 40.0 10.35 39.35 M1.4 45.6 L1.7 45.3 Q2.1 44.95 2.6 44.85 4.85 44.8 4.45 46.9 4.3 47.55 3.75 47.85 2.4 48.55 1.55 47.5 1.1 46.95 1.1 46.5 L1.1 46.45 1.3 45.75 1.4 45.6 M7.25 66.9 L6.45 66.75 Q4.1 66.25 3.05 63.85 L2.8 63.0 Q2.7 62.45 2.9 61.85 3.35 60.65 4.45 60.05 5.55 59.45 6.7 59.4 L9.9 59.7 8.4 61.15 7.9 61.1 Q6.75 61.5 6.25 62.7 5.75 63.95 6.2 64.6 L6.05 64.75 6.05 64.8 Q6.2 65.5 6.7 66.3 L7.25 66.9 M24.65 81.25 L24.95 81.75 25.1 80.65 25.25 79.85 25.75 79.2 26.55 78.0 27.05 77.6 27.55 77.3 28.0 76.95 28.1 76.95 28.15 76.95 Q30.05 77.1 29.5 79.0 L28.9 80.3 27.1 82.15 Q26.55 82.7 25.75 82.35 24.8 81.95 24.65 81.25 M14.15 85.95 L14.2 86.2 Q12.45 85.95 10.9 85.05 L9.5 83.75 8.75 82.8 Q8.15 81.7 8.1 80.45 8.05 79.55 8.95 79.2 L9.05 79.15 9.7 79.25 10.0 79.7 10.25 80.1 10.75 80.75 Q10.95 81.9 12.05 82.15 L12.3 82.55 14.65 83.4 Q16.05 83.8 16.5 82.6 L16.55 82.35 16.85 82.2 Q17.4 81.9 18.15 81.75 L19.1 81.55 19.65 81.4 Q21.7 80.95 22.15 82.7 22.4 83.45 21.8 84.1 20.45 85.55 18.45 86.25 16.1 87.1 14.25 85.8 L14.15 85.75 14.15 85.95" fill="#c274a3" fill-rule="evenodd" stroke="none"/>
    <path d="M12.55 20.0 L12.6 19.95 12.55 20.0 M-8.55 -5.45 L-8.55 -5.35 -8.6 -5.25 -8.7 -4.95 -8.6 -5.45 -8.55 -5.45 M-8.4 2.8 L-8.0 3.65 Q-7.5 6.0 -5.75 7.65 -4.75 9.95 -2.85 11.85 L-3.0 12.0 -5.6 8.95 Q-7.25 6.45 -8.15 3.7 L-8.4 2.8 M1.6 32.45 Q1.05 33.9 1.15 35.45 L0.9 35.45 Q0.8 34.6 1.0 33.7 L1.5 32.65 1.55 32.4 1.6 32.45 M3.75 52.35 L3.65 52.35 3.7 52.25 3.75 52.35 M8.4 61.15 L8.45 61.2 8.4 61.15" fill="#98b5c5" fill-rule="evenodd" stroke="none"/>
    <path d="M-10.1 -11.75 L-10.0 -12.05 -10.05 -11.75 -10.1 -11.75 M12.6 44.65 L12.45 44.65 12.5 44.55 12.6 44.65 M28.0 76.95 L28.1 76.9 28.1 76.95 28.0 76.95 M19.1 78.6 L18.5 78.5 18.65 78.5 19.1 78.6 M16.6 82.1 L18.15 81.75 Q17.4 81.9 16.85 82.2 L16.55 82.35 16.6 82.1" fill="#50788d" fill-rule="evenodd" stroke="none"/>
    <path d="M20.1 31.5 L18.2 30.7 15.3 30.35 Q12.45 30.2 9.9 31.15 L9.15 31.45 8.45 31.8 6.2 33.2 6.1 33.3 1.45 38.05 1.45 38.0 1.3 37.3 Q0.95 36.4 0.9 35.45 L1.15 35.45 1.3 35.65 1.4 35.75 1.9 35.7 2.2 35.35 3.05 32.9 3.15 32.8 Q3.95 31.95 2.85 31.55 L2.6 31.6 Q2.05 31.7 1.75 32.1 L1.7 32.0 2.5 29.8 2.6 29.8 2.8 29.55 3.25 28.85 Q3.95 28.65 4.35 28.15 L4.1 29.05 4.05 29.1 4.4 29.15 5.05 29.15 5.35 29.1 5.45 29.05 5.55 29.0 5.65 28.95 Q5.85 28.8 6.15 28.8 L6.25 28.65 6.6 28.25 7.45 27.2 Q8.2 29.05 10.7 28.55 12.5 29.35 14.45 28.05 L14.55 28.0 Q16.05 27.05 18.0 27.05 L18.9 27.0 20.4 29.75 Q20.1 30.65 20.1 31.5 M-7.5 -9.5 L-5.3 -10.55 Q-2.65 -11.75 0.2 -11.3 L4.4 -10.25 Q6.4 -9.7 8.05 -8.2 9.1 -7.2 9.7 -5.85 10.25 -4.45 10.4 -2.9 L10.65 -1.0 Q11.2 2.1 11.2 5.35 L11.2 8.9 Q11.2 10.55 11.45 12.2 10.6 12.8 10.0 13.75 8.25 14.4 6.85 15.8 L4.9 18.1 4.85 18.2 4.6 18.1 4.5 17.9 3.1 16.6 Q2.05 15.1 0.25 14.3 L0.1 14.3 0.0 14.4 -0.05 14.5 -0.05 14.6 -1.05 13.6 -2.95 12.05 -2.85 11.85 -2.65 11.85 -2.55 11.75 -2.5 11.65 -3.25 10.5 -3.55 10.05 Q-4.85 7.7 -5.6 5.2 -6.9 1.8 -7.05 -1.9 L-7.05 -2.4 Q-7.1 -4.3 -7.45 -6.05 L-7.55 -6.1 -7.75 -6.2 -7.75 -6.15 -7.95 -6.15 Q-8.2 -5.85 -8.5 -5.65 L-8.55 -5.65 -7.7 -8.0 Q-7.25 -8.95 -7.5 -9.5 M12.6 19.95 Q13.2 19.25 14.15 19.15 L14.6 19.35 14.9 19.35 14.95 19.35 15.15 19.4 15.35 19.5 15.45 20.0 15.4 20.3 12.75 23.5 12.6 23.75 Q11.95 24.75 11.45 25.9 L10.7 25.35 11.25 24.05 11.3 23.85 12.05 22.8 12.75 21.75 Q13.55 20.5 12.55 20.0 L12.6 19.95 M17.85 36.7 L17.9 36.7 19.75 37.2 Q22.15 38.05 23.6 40.05 L23.6 40.25 23.85 40.55 23.8 40.6 24.05 40.9 Q23.65 45.0 21.05 48.4 L20.6 48.55 15.0 49.0 13.15 48.6 13.05 48.5 Q11.95 46.7 12.45 44.65 L12.6 44.65 12.75 44.85 13.5 44.85 13.65 44.6 Q14.1 43.85 14.05 42.95 L14.25 42.75 14.5 42.3 15.35 40.35 15.3 40.2 14.85 39.9 Q14.5 39.9 14.2 40.05 L14.8 39.15 Q16.05 37.5 17.85 36.7 M1.4 45.6 Q2.0 44.65 3.15 44.45 L4.2 44.5 4.4 44.5 4.4 44.55 5.05 44.75 5.25 44.85 5.3 44.85 5.35 44.9 5.85 45.2 6.4 45.7 6.85 46.4 6.9 46.45 7.05 46.75 7.3 47.3 7.25 47.3 7.4 47.65 7.35 47.7 Q6.5 49.25 5.15 50.55 L3.45 50.75 2.0 50.8 1.55 49.8 1.15 48.7 Q0.85 47.6 1.1 46.5 1.1 46.95 1.55 47.5 2.4 48.55 3.75 47.85 4.3 47.55 4.45 46.9 4.85 44.8 2.6 44.85 2.1 44.95 1.7 45.3 L1.4 45.6 M17.45 60.35 L17.5 60.35 17.8 60.3 18.7 60.05 18.8 60.05 19.1 60.0 19.3 59.95 20.0 59.7 20.4 59.5 21.3 58.95 21.6 58.75 21.7 58.7 Q22.65 58.35 23.25 60.05 L23.5 61.35 23.4 60.85 Q21.7 63.45 18.6 64.5 15.55 65.5 12.35 65.25 L12.05 65.2 7.65 65.05 7.5 65.15 Q8.0 64.75 7.9 64.1 L8.05 63.7 8.3 63.45 Q9.2 62.45 8.75 61.35 L8.45 61.2 8.4 61.15 9.9 59.7 12.75 60.2 12.8 60.2 13.05 60.25 15.3 60.5 16.55 60.45 17.45 60.35 M22.15 77.95 L22.05 77.65 22.15 77.4 Q22.7 75.8 23.65 74.2 L24.0 73.7 Q24.75 72.65 26.1 72.2 L26.25 72.15 26.4 72.1 Q28.25 72.95 29.7 74.5 L30.9 76.0 29.7 76.15 Q28.85 76.3 28.2 76.8 L28.1 76.9 28.0 76.95 27.55 77.3 27.05 77.6 26.55 78.0 25.75 79.2 25.25 79.85 25.1 80.65 24.95 81.75 24.65 81.25 22.9 78.6 22.3 78.05 22.15 77.95 M7.8 76.3 L13.0 76.7 19.0 77.1 19.15 77.15 19.3 77.2 19.5 77.25 19.65 77.3 19.8 77.4 Q20.65 77.75 21.4 78.35 L21.9 78.9 22.65 79.95 23.0 80.5 23.1 80.7 23.4 81.3 23.5 81.45 22.6 81.3 19.05 81.5 18.65 81.6 18.15 81.75 16.6 82.1 Q16.55 81.75 16.15 81.55 14.25 80.45 12.1 79.9 L11.95 79.65 11.25 79.0 11.15 78.85 Q10.65 78.4 10.0 78.45 L9.9 78.5 Q9.55 78.6 9.65 78.95 L9.7 79.25 9.05 79.15 8.95 79.2 Q8.05 79.55 8.1 80.45 8.15 81.7 8.75 82.8 L5.05 82.0 4.1 82.1 4.05 81.6 Q3.65 78.3 6.55 77.0 L7.8 76.3 M19.1 78.6 L18.65 78.5 18.5 78.5 19.1 78.6 M25.1 74.55 L25.65 74.7 25.05 74.5 25.1 74.55" fill="#8282bf" fill-rule="evenodd" stroke="none"/>
    <path d="M-8.5 -5.65 Q-8.2 -5.85 -7.95 -6.15 L-7.75 -6.15 -7.75 -6.2 -7.55 -6.1 -7.45 -6.05 Q-7.1 -4.3 -7.05 -2.4 L-7.05 -1.9 Q-6.9 1.8 -5.6 5.2 -4.85 7.7 -3.55 10.05 L-3.25 10.5 -2.5 11.65 -2.55 11.75 -2.65 11.85 -2.85 11.85 Q-4.75 9.95 -5.75 7.65 -7.5 6.0 -8.0 3.65 L-8.4 2.8 Q-9.0 1.5 -9.0 0.15 L-9.0 0.05 Q-9.7 -2.55 -8.7 -4.95 L-8.6 -5.25 -8.55 -5.35 -8.55 -5.45 -8.5 -5.65 M-0.05 14.6 L-0.05 14.5 0.0 14.4 0.1 14.3 0.25 14.3 Q2.05 15.1 3.1 16.6 L4.5 17.9 4.6 18.1 4.85 18.2 Q5.2 18.4 4.95 19.0 L4.85 19.2 4.75 19.4 Q4.4 20.5 3.5 21.1 L3.1 21.1 2.85 20.85 2.55 19.65 2.0 18.0 1.8 17.55 0.5 15.85 0.25 15.45 0.1 15.15 0.05 14.9 -0.05 14.7 -0.05 14.6 M9.4 23.2 L9.4 22.7 Q9.45 20.75 11.35 20.0 L12.05 19.8 12.55 20.0 Q13.55 20.5 12.75 21.75 L12.05 22.8 11.3 23.85 11.25 23.9 10.9 24.15 Q9.55 24.3 9.4 23.2 M1.75 32.1 Q2.05 31.7 2.6 31.6 L2.85 31.55 Q3.95 31.95 3.15 32.8 L3.05 32.9 2.2 35.35 1.9 35.7 1.4 35.75 1.3 35.65 1.15 35.45 Q1.05 33.9 1.6 32.45 L1.75 32.1 M14.2 40.05 Q14.5 39.9 14.85 39.9 L15.3 40.2 15.35 40.35 14.5 42.3 14.25 42.75 14.05 42.95 Q14.1 43.85 13.65 44.6 L13.5 44.85 12.75 44.85 12.6 44.65 12.5 44.55 12.45 44.45 Q11.85 42.8 12.85 41.55 L13.15 41.2 Q13.5 40.35 14.2 40.05 M7.5 65.15 L7.4 65.25 7.35 65.25 6.45 64.85 6.2 64.6 Q5.75 63.95 6.25 62.7 6.75 61.5 7.9 61.1 L8.4 61.15 8.45 61.2 8.75 61.35 Q9.2 62.45 8.3 63.45 L8.05 63.7 7.9 64.1 Q8.0 64.75 7.5 65.15 M9.7 79.25 L9.65 78.95 Q9.55 78.6 9.9 78.5 L10.0 78.45 Q10.65 78.4 11.15 78.85 L11.25 79.0 11.95 79.65 12.1 79.9 Q14.25 80.45 16.15 81.55 16.55 81.75 16.6 82.1 L16.55 82.35 16.5 82.6 Q16.05 83.8 14.65 83.4 L12.3 82.55 12.05 82.15 Q10.95 81.9 10.75 80.75 L10.25 80.1 10.0 79.7 9.7 79.25" fill="#ffffff" fill-rule="evenodd" stroke="none"/>
    <path d="M-8.55 -5.65 L-8.5 -5.65 -8.55 -5.45 -8.6 -5.45 -8.55 -5.65 M-2.85 11.85 L-2.95 12.05 -3.0 12.0 -2.85 11.85 M1.75 32.1 L1.6 32.45 1.55 32.4 Q1.55 32.2 1.7 32.0 L1.75 32.1 M8.0 49.0 L8.1 49.25 8.0 49.0" fill="#9999cc" fill-rule="evenodd" stroke="none"/>
    <path d="M13.55 31.3 L13.7 31.3 13.55 31.55 13.55 31.3" fill="#bcfb00" fill-rule="evenodd" stroke="none"/>
    <path d="M-8.8 76.1 Q-9.15 74.35 -8.45 72.75 L-7.0 69.0 -4.65 65.7 -4.6 65.7 -3.95 64.75 Q-4.85 62.35 -4.35 59.8 -3.9 57.25 -2.65 55.05 -1.35 52.3 -1.3 49.05 L-1.0 42.8 -0.2 41.45 Q1.15 39.45 2.9 37.8 L7.8 33.5 Q9.75 31.9 12.1 31.45 L13.55 31.3 13.55 31.55 Q12.75 32.6 11.35 33.1 10.25 33.5 9.35 34.15 7.45 35.9 6.2 38.15 L5.3 39.75 Q6.5 41.65 6.25 43.6 L6.2 43.75 5.9 43.6 Q4.95 43.05 3.9 42.9 L3.75 42.9 3.15 42.85 Q2.5 43.05 2.0 43.4 1.75 43.5 1.55 43.7 L1.5 43.75 Q0.8 44.3 0.4 45.15 L0.4 45.3 0.3 45.85 0.3 45.95 0.55 49.4 0.7 49.85 0.7 49.9 0.35 52.75 0.3 53.25 0.3 53.35 Q0.1 54.9 -0.55 56.35 -1.45 59.15 -0.9 62.1 L-0.75 62.8 -0.15 65.0 Q0.2 65.45 0.15 65.85 0.8 66.65 0.1 67.6 L-0.4 68.1 -0.45 68.1 Q-2.7 70.05 -4.3 72.6 -4.9 73.5 -5.1 74.55 L-5.6 77.35 -5.85 77.65 -6.3 77.8 -6.55 77.7 -6.55 77.65 -6.6 77.65 Q-7.8 77.05 -8.75 76.1 L-8.8 76.1" fill="#99ff99" fill-rule="evenodd" stroke="none"/>
    <path d="M13.7 31.3 L15.1 31.35 18.4 31.95 18.55 32.55 Q18.85 33.05 18.75 33.65 L18.4 34.1 18.3 34.15 16.8 34.45 Q14.8 34.6 13.05 35.45 11.55 36.15 10.4 37.35 L9.7 38.15 9.65 38.15 9.0 39.15 8.75 39.6 8.65 39.8 8.55 40.0 8.25 40.85 8.2 41.0 8.1 41.35 8.1 41.6 8.1 41.65 8.1 41.7 8.1 41.85 8.05 42.4 8.0 42.7 7.95 42.8 8.0 42.8 8.0 43.5 8.15 44.25 8.5 45.6 9.15 46.95 9.7 47.95 11.65 50.0 12.95 50.95 14.3 51.45 14.7 52.05 15.1 52.9 15.85 54.3 Q16.45 56.65 14.6 58.35 L14.35 58.5 13.15 58.85 12.1 59.0 7.6 58.6 Q4.55 58.4 2.2 60.2 1.4 61.25 1.35 62.45 1.3 63.1 1.55 63.85 2.2 64.95 3.15 66.05 L4.8 67.15 5.6 67.25 5.8 67.35 7.75 68.1 8.4 68.3 8.45 68.3 9.5 68.5 13.0 68.75 14.15 68.7 16.1 68.6 17.4 69.55 18.85 70.9 19.85 72.3 19.75 72.2 19.75 72.25 Q20.45 73.4 20.25 74.85 L20.0 75.85 18.3 75.5 17.6 75.45 14.6 75.15 12.8 75.0 11.6 74.95 11.55 74.95 Q10.05 74.8 8.55 74.95 6.0 75.2 3.7 76.1 L2.75 76.5 2.2 76.8 Q1.7 77.1 1.2 77.55 0.0 78.4 -0.45 79.8 L-0.45 79.85 -0.75 79.65 -4.05 78.45 -4.85 78.35 -6.3 77.8 -5.85 77.65 -5.6 77.35 -5.1 74.55 Q-4.9 73.5 -4.3 72.6 -2.7 70.05 -0.45 68.1 L-0.4 68.1 0.1 67.6 Q0.8 66.65 0.15 65.85 0.2 65.45 -0.15 65.0 L-0.75 62.8 -0.9 62.1 Q-1.45 59.15 -0.55 56.35 0.1 54.9 0.3 53.35 L0.3 53.25 0.35 52.75 0.7 49.9 0.8 50.05 1.1 50.8 1.15 50.85 1.6 51.6 2.2 52.35 2.25 52.45 2.35 52.55 2.4 52.55 Q2.8 53.85 4.1 54.8 5.3 55.65 6.85 55.25 8.85 54.7 9.45 52.45 L9.45 52.4 9.45 52.35 9.45 51.9 9.45 51.55 8.9 48.8 8.9 48.65 8.05 46.85 7.1 45.0 Q6.65 44.7 6.55 44.15 L6.45 44.05 5.9 43.6 6.2 43.75 6.3 43.6 6.25 43.6 Q6.5 41.65 5.3 39.75 L6.2 38.15 Q7.45 35.9 9.35 34.15 10.25 33.5 11.35 33.1 12.75 32.6 13.55 31.55 L13.7 31.3 M9.5 52.25 L9.7 51.7 9.55 51.8 9.45 52.35 9.5 52.25 M17.5 73.45 L17.6 73.5 17.6 73.45 17.5 73.45" fill="#66b299" fill-rule="evenodd" stroke="none"/>
    <path d="M18.4 31.95 Q20.55 32.6 22.45 33.9 L23.2 34.8 Q24.4 36.45 24.1 38.75 L23.75 38.45 23.25 38.1 Q22.15 37.35 20.9 36.9 L20.55 36.8 Q19.1 36.2 17.6 36.15 L15.15 36.05 Q13.1 35.9 11.35 37.0 10.5 37.5 9.7 38.15 L10.4 37.35 Q11.55 36.15 13.05 35.45 14.8 34.6 16.8 34.45 L18.3 34.15 18.4 34.1 18.75 33.65 Q18.85 33.05 18.55 32.55 L18.4 31.95 M8.2 41.0 L8.1 41.6 8.1 41.35 8.2 41.0 M8.0 42.7 L8.0 42.8 7.95 42.8 8.0 42.7 M14.3 51.45 L19.15 52.05 Q21.0 51.9 22.55 50.95 L22.7 50.85 22.7 51.2 22.6 51.6 22.7 51.55 Q23.35 54.3 21.6 56.55 L20.8 57.25 21.1 57.05 21.35 57.15 19.95 58.0 17.1 58.95 15.3 59.05 13.15 58.85 14.35 58.5 14.6 58.35 Q16.45 56.65 15.85 54.3 L15.1 52.9 14.7 52.05 14.3 51.45 M1.35 62.45 L1.45 62.6 1.4 62.55 Q1.5 63.6 2.15 64.5 2.7 65.6 3.65 66.45 L4.15 66.8 4.8 67.15 3.15 66.05 Q2.2 64.95 1.55 63.85 1.3 63.1 1.35 62.45 M8.45 68.3 L9.35 68.35 9.5 68.5 8.45 68.3 M14.15 68.7 L15.1 68.55 16.85 68.2 Q19.05 67.8 21.15 66.9 22.8 66.2 24.05 65.05 L23.55 64.6 24.25 65.25 24.5 65.95 Q26.0 67.6 25.85 70.2 L25.8 70.25 24.85 71.15 Q23.6 72.35 22.85 74.05 L22.15 75.4 Q21.7 76.2 21.5 77.15 L21.7 76.4 20.6 76.0 20.0 75.85 20.25 74.85 Q20.45 73.4 19.75 72.25 L19.75 72.2 19.85 72.3 18.85 70.9 17.4 69.55 16.1 68.6 14.15 68.7 M-0.45 79.8 L-0.75 81.0 -0.85 81.95 -0.75 83.05 Q-3.05 82.35 -5.45 81.25 -8.15 79.95 -8.6 76.7 L-8.8 76.1 -8.75 76.1 Q-7.8 77.05 -6.6 77.65 L-6.55 77.7 -6.3 77.8 -4.85 78.35 -4.05 78.45 -0.75 79.65 -0.45 79.85 -0.45 79.8 M0.3 45.95 L0.3 45.85 0.4 45.3 0.75 44.65 0.5 45.2 0.3 45.95 M1.5 43.75 L1.55 43.7 1.35 43.9 1.5 43.75 M3.9 42.9 Q4.95 43.05 5.9 43.6 L6.45 44.05 6.55 44.15 Q6.65 44.7 7.1 45.0 L8.05 46.85 8.9 48.65 8.9 48.8 9.45 51.55 9.45 51.9 9.45 52.35 9.45 52.4 9.45 52.45 Q8.85 54.7 6.85 55.25 5.3 55.65 4.1 54.8 2.8 53.85 2.4 52.55 L2.4 52.6 2.85 53.0 3.25 53.2 6.35 53.5 Q7.3 53.25 7.95 52.6 L8.4 51.9 Q8.8 50.9 8.4 49.75 L8.1 49.25 8.0 49.0 7.4 47.65 7.25 47.3 7.3 47.3 7.05 46.75 7.05 46.7 6.6 45.55 Q5.85 44.15 4.5 43.45 L4.4 43.35 3.9 42.9 M11.15 47.65 L10.85 47.25 10.8 47.1 11.15 47.65 M4.4 44.5 L4.2 44.5 4.3 44.45 4.35 44.45 4.4 44.5 M1.1 50.8 L0.8 50.05 0.95 50.25 1.05 50.45 1.05 50.55 1.1 50.8 M15.3 60.5 L16.05 60.5 17.45 60.35 16.55 60.45 15.3 60.5 M17.5 73.45 L17.6 73.45 17.6 73.5 17.5 73.45" fill="#007f8a" fill-rule="evenodd" stroke="none"/>
    <path d="M-0.25 21.35 Q-0.75 19.8 -1.4 18.3 L-0.7 19.65 -0.25 21.35 M24.3 41.15 L24.5 41.55 24.4 41.4 24.05 40.9 23.8 40.6 23.85 40.55 24.3 41.15 M9.85 40.0 L10.35 39.35 9.9 40.0 9.85 40.0" fill="#9da9c4" fill-rule="evenodd" stroke="none"/>
    <path d="M8.65 39.8 L8.85 39.9 8.75 40.05 8.55 40.0 8.65 39.8 M-8.8 76.1 L-8.75 76.1 -8.8 76.1 M-0.15 83.2 L-0.2 83.2 -0.15 83.15 -0.15 83.2 M6.25 43.6 L6.3 43.6 6.2 43.75 6.25 43.6 M9.55 51.8 L9.7 51.7 9.5 52.25 9.55 51.8" fill="#3a3aaf" fill-rule="evenodd" stroke="none"/>
    <path d="M-6.6 77.65 L-6.55 77.65 -6.55 77.7 -6.6 77.65 M6.2 43.75 L6.25 43.6 6.2 43.75" fill="#8383d6" fill-rule="evenodd" stroke="none"/>
    <path d="M23.6 40.05 L23.95 40.55 24.3 41.15 23.85 40.55 23.6 40.25 23.6 40.05 M14.9 50.85 L14.5 50.7 14.45 50.7 12.5 49.55 Q11.7 48.8 11.2 47.7 L11.15 47.65 10.8 47.1 10.35 46.4 9.75 45.15 9.7 44.95 Q10.25 46.35 11.2 47.6 11.7 48.75 12.55 49.5 13.35 50.25 14.5 50.6 L14.9 50.75 14.9 50.85 M18.15 81.75 L18.65 81.6 19.05 81.5 19.1 81.55 18.15 81.75" fill="#666699" fill-rule="evenodd" stroke="none"/>
    <path d="M-0.25 40.0 L-0.4 40.0 -0.35 39.8 -0.25 39.95 -0.25 40.0 M2.4 52.55 L2.35 52.55 2.4 52.55 M0.75 83.35 L0.65 83.35 0.65 83.25 0.75 83.35" fill="#414163" fill-rule="evenodd" stroke="none"/>
    <path d="M9.55 51.8 L9.5 52.25 9.45 52.35 9.55 51.8" fill="#c77ea9" fill-rule="evenodd" stroke="none"/>
    <path d="M6.45 64.85 L6.05 64.8 6.05 64.75 6.2 64.6 6.45 64.85" fill="#8787c2" fill-rule="evenodd" stroke="none"/>
    <path d="M28.1 76.9 L28.2 76.8 28.15 76.95 28.1 76.95 28.1 76.9 M14.15 85.95 L14.15 85.75 14.25 85.8 14.15 85.95" fill="#6666cc" fill-rule="evenodd" stroke="none"/>
  </g>
</svg>
