<?xml version="1.0" encoding="UTF-8" standalone="no"?>
<svg xmlns:xlink="http://www.w3.org/1999/xlink" height="145.7px" width="50.4px" xmlns="http://www.w3.org/2000/svg">
  <g transform="matrix(1.0, 0.0, 0.0, 1.0, 38.75, 8.2)">
    <path d="M-15.75 4.7 L-15.9 4.7 -15.95 4.75 -15.95 4.5 -15.9 4.4 -15.85 4.2 -15.4 3.1 -14.8 1.95 -14.15 0.8 -13.4 -0.4 -12.95 -1.0 -12.0 -2.15 -10.95 -3.35 -10.1 -4.25 Q-9.75 -3.9 -9.85 -3.05 L-10.15 -2.05 Q-11.4 0.65 -11.7 3.65 L-11.8 3.65 -12.0 3.7 -12.7 3.85 -13.4 4.0 -14.75 4.35 -15.75 4.7 M-21.2 16.75 L-21.15 16.0 -20.9 14.7 -20.45 13.3 -19.75 11.5 -19.45 10.6 -19.2 9.65 -19.05 9.35 -18.3 8.75 -18.05 8.6 -17.25 8.4 -16.05 8.2 -16.0 8.2 -14.85 8.0 -14.5 8.0 -14.1 8.05 -13.45 8.1 -12.75 8.15 -12.1 8.25 -11.4 8.35 -10.7 8.45 -10.05 8.6 -9.4 8.75 -8.75 8.95 -8.1 9.15 -7.45 9.35 -6.8 9.55 -6.15 9.85 -5.55 10.1 -4.9 10.4 -4.3 10.65 -4.15 10.65 -3.9 10.75 -3.9 10.8 -13.2 10.15 -13.9 10.15 -16.35 10.55 -16.4 10.7 -16.65 11.6 Q-16.85 13.95 -17.3 16.2 L-21.2 16.75 M-22.2 41.65 L-23.1 41.9 -24.1 36.85 -23.85 36.8 -23.6 36.75 -22.95 36.65 -21.8 36.4 -21.7 36.4 -21.45 36.35 -21.0 36.3 -20.6 36.25 -19.45 36.1 -18.25 36.0 -17.05 35.9 -16.05 35.9 Q-19.2 36.85 -22.15 38.3 L-21.55 41.1 -21.5 41.45 -21.6 41.45 -22.2 41.65 M-23.55 32.7 L-23.7 32.75 -24.25 32.65 -24.45 32.6 -24.6 32.1 -24.65 31.45 -24.6 30.35 -24.4 29.3 -24.0 28.25 -23.45 27.25 -23.15 26.75 -22.9 26.25 -22.6 25.8 -22.2 25.85 -21.45 25.85 -21.55 26.2 -21.85 26.6 Q-23.0 29.5 -22.35 32.5 L-23.05 32.6 -23.55 32.7 M-21.8 23.25 L-22.05 23.3 -22.65 23.4 -22.7 23.4 -23.45 23.45 -23.15 22.8 -22.8 21.85 -22.5 20.85 -22.4 20.3 -22.35 19.75 -22.2 19.25 -22.0 18.8 -21.8 18.45 -21.5 18.15 -21.3 18.0 -21.25 18.0 -21.2 17.95 -21.15 17.95 -21.1 17.9 -20.05 17.75 -18.5 17.7 -16.7 17.7 -14.0 17.85 -12.3 18.0 -10.6 18.4 -8.95 18.85 -8.65 18.95 -11.45 19.2 -18.25 19.6 -19.25 20.9 -20.95 23.05 -21.0 23.15 -21.8 23.25" fill="#b3b38c" fill-rule="evenodd" stroke="none"/>
    <path d="M-11.7 3.65 Q-11.4 0.65 -10.15 -2.05 L-9.85 -3.05 Q-9.75 -3.9 -10.1 -4.25 L-9.8 -4.55 -9.4 -4.4 -9.1 -4.25 -7.7 -3.65 -6.3 -3.05 -4.9 -2.4 -3.55 -1.75 -2.25 -1.0 -0.9 -0.2 0.35 0.6 1.25 1.3 -7.1 2.45 -8.45 2.65 Q-9.6 2.8 -10.4 3.4 L-10.55 3.45 -11.05 3.5 -11.05 3.55 -11.3 3.55 -11.7 3.65 M-15.9 4.4 L-15.95 4.5 -15.95 4.75 -16.05 4.8 -15.9 4.4 M-17.3 16.2 Q-16.85 13.95 -16.65 11.6 L-16.4 10.7 -16.35 10.55 -13.9 10.15 -13.2 10.15 -3.9 10.8 -3.75 10.85 -3.2 11.2 -2.95 11.3 -3.8 13.05 -4.55 15.0 -5.7 18.55 -5.75 18.75 -6.2 18.35 -6.1 18.0 -5.7 17.0 -5.6 16.8 -5.45 16.35 -13.3 15.75 -17.3 16.2 M0.6 -0.95 L-1.05 -2.2 -2.85 -3.3 -5.4 -4.35 -7.5 -4.95 -8.1 -5.05 -7.4 -5.5 -6.0 -6.2 -3.75 -6.8 -2.15 -6.55 0.05 -5.6 1.95 -4.3 3.15 -3.35 4.6 -1.95 4.3 -2.25 2.2 -1.6 Q1.4 -1.4 0.75 -1.05 L0.6 -0.95 M5.2 -2.5 L5.75 -1.8 6.0 -1.45 5.85 -1.25 5.65 -1.65 4.95 -2.8 5.2 -2.5 M8.9 1.4 L8.95 1.55 8.75 1.6 8.9 1.4 M-10.2 45.8 L-10.45 45.75 -12.05 45.9 -13.7 46.2 -15.4 46.5 -17.05 46.45 -17.9 46.2 -19.15 45.85 -19.45 45.75 -20.2 45.6 -20.9 45.4 -21.5 44.95 -22.05 44.35 -22.2 44.05 -22.25 43.75 -22.2 43.35 -22.0 43.1 -21.8 43.0 -21.6 43.0 -20.0 42.65 -19.95 42.7 -19.65 44.5 -19.05 44.7 -19.3 42.65 -19.25 42.65 -18.5 42.55 Q-15.7 43.15 -12.95 44.1 -11.35 44.65 -10.2 45.8 M-24.45 32.6 L-24.55 32.6 -24.6 32.1 -24.45 32.6 M1.5 -6.8 L0.5 -7.45 1.15 -7.4 1.4 -7.35 1.5 -6.8 M-13.55 6.25 L-13.55 6.3 -13.65 6.3 -13.55 6.25 M-9.1 7.25 L-3.25 7.0 -0.1 7.2 -1.7 10.45 -2.55 9.95 -5.0 8.7 -6.7 8.05 -9.1 7.25 M3.05 1.45 L3.0 1.35 3.05 1.45 M-0.5 12.9 Q0.0 12.95 0.2 13.35 L0.1 13.25 0.05 13.25 0.0 13.2 -2.6 18.05 -3.15 18.9 -3.7 18.9 -0.5 12.9 M1.0 14.1 Q1.75 14.15 1.9 14.85 L1.75 14.75 1.7 14.7 -0.35 17.5 -0.85 18.15 -1.75 19.05 0.9 14.25 1.0 14.1 M-6.3 19.95 L-7.7 24.3 -7.9 24.25 Q-12.45 23.1 -17.1 23.05 L-18.55 23.2 -19.05 23.1 -20.6 23.1 -21.0 23.15 -20.95 23.05 -19.25 20.9 -18.25 19.6 -11.45 19.2 -8.65 18.95 -7.35 19.45 Q-6.85 19.65 -6.3 19.95 M-10.5 26.0 L-10.7 25.85 -11.6 25.15 -12.25 24.4 -12.25 24.35 -12.2 24.35 -10.55 25.3 -8.45 26.75 Q-7.4 27.45 -6.45 28.25 L-4.45 29.9 -4.25 30.1 Q-3.55 31.05 -3.2 32.25 L-3.6 31.8 -5.4 30.1 -6.45 29.15 -7.75 28.15 -7.9 28.0 Q-9.2 26.95 -10.5 26.0 M-21.45 25.85 L-20.15 26.0 -19.55 26.15 -19.9 30.8 -19.55 30.75 -19.45 30.0 -19.2 28.65 -19.1 28.1 -18.9 27.55 -18.8 26.95 -18.7 26.35 Q-17.3 26.65 -16.0 27.2 L-15.8 27.05 -15.25 27.4 -14.6 27.75 Q-14.05 27.9 -13.6 28.25 -12.55 28.75 -11.55 29.4 L-11.15 29.7 -10.4 29.9 -10.1 29.95 -10.35 29.9 -9.65 30.4 -8.85 31.05 -9.15 30.9 -9.5 30.85 -10.85 30.85 -11.6 30.85 -12.35 30.85 -13.75 30.95 -13.9 30.95 -15.15 31.05 -15.1 30.9 -15.05 30.8 -14.85 30.1 -14.9 30.0 -14.95 29.8 -15.05 28.8 -15.05 28.7 -15.05 28.65 -15.05 28.35 -15.05 28.3 -15.1 28.3 -15.2 28.7 -15.55 29.95 -15.9 30.8 -15.95 30.95 -16.1 31.1 -16.15 31.15 -16.45 31.4 -16.9 31.5 -17.25 31.6 -17.7 31.7 -18.55 31.6 -18.95 31.75 -19.35 31.9 -20.15 31.8 -20.6 32.0 -20.8 32.1 -20.85 32.1 -21.55 32.3 -22.2 32.5 -22.35 32.5 Q-23.0 29.5 -21.85 26.6 L-21.55 26.2 -21.45 25.85 M-22.95 34.55 L-22.95 34.65 -23.3 34.65 -22.95 34.55 M-17.3 34.35 Q-13.7 33.5 -10.0 33.4 L-10.1 34.2 -10.15 35.65 -10.65 35.5 -12.65 34.95 -14.7 34.55 -16.8 34.35 -17.3 34.35 M-10.2 36.3 L-10.5 38.5 -10.4 38.75 -10.25 39.0 -10.25 39.05 Q-9.95 39.6 -9.8 40.3 L-9.65 41.05 -10.55 40.95 -10.65 39.1 -10.95 40.3 -11.15 40.95 -12.35 40.95 -14.15 41.0 -15.95 40.95 -16.2 40.9 -18.0 40.9 -19.75 41.1 -21.45 41.45 -21.5 41.45 -21.55 41.1 -22.15 38.3 Q-19.2 36.85 -16.05 35.9 L-15.85 35.9 -14.65 35.9 -14.65 36.0 -14.9 38.1 -15.0 39.2 -15.0 40.25 -13.9 36.45 -13.85 36.2 -13.7 35.95 -13.65 35.9 -13.6 35.9 -12.75 36.15 -10.85 36.1 -10.75 36.3 -10.2 36.3 M-12.25 28.55 L-12.15 28.8 -12.3 28.6 -12.25 28.55 M-9.65 30.8 L-9.65 30.85 -9.55 30.85 -9.65 30.8 M-12.9 37.35 L-12.95 37.35 -12.95 37.4 -12.9 37.35" fill="#999966" fill-rule="evenodd" stroke="none"/>
    <path d="M-15.95 4.75 L-15.9 4.7 -15.75 4.7 -17.1 6.85 -17.75 7.95 -18.05 8.6 -18.3 8.75 -19.05 9.35 -19.2 9.65 -19.45 10.6 -19.75 11.5 -20.45 13.3 -20.9 14.7 -21.15 16.0 -21.2 16.75 -21.2 16.85 -21.15 16.8 -21.3 18.0 -21.5 18.15 -21.8 18.45 -22.0 18.8 -22.2 19.25 -22.35 19.75 -22.4 20.3 -22.5 20.85 -22.8 21.85 -23.15 22.8 -23.45 23.45 -23.55 23.6 -23.6 23.65 -22.9 23.45 -22.7 23.4 -22.65 23.4 -22.05 23.3 -21.8 23.25 -21.95 24.1 -21.9 24.7 -22.6 25.75 -22.6 25.8 -22.9 26.25 -23.15 26.75 -23.45 27.25 -24.0 28.25 -24.4 29.3 -24.6 30.35 -24.65 31.45 -24.6 32.1 -24.55 32.6 -24.45 32.6 -24.25 32.65 -23.7 32.75 -23.55 32.7 -23.7 33.55 -23.9 35.9 -23.85 36.8 -24.1 36.85 -23.1 41.9 -22.2 41.65 Q-22.5 42.1 -22.35 42.9 L-22.2 43.35 -22.25 43.75 -22.2 44.05 -22.05 44.35 -21.5 44.95 -20.9 45.4 -20.2 45.6 -19.45 45.75 -19.15 45.85 -17.9 46.2 -17.05 46.45 -15.4 46.5 -13.7 46.2 -12.05 45.9 -10.45 45.75 -10.2 45.8 -10.15 45.8 -10.0 45.8 -9.9 45.8 -9.0 45.9 -7.6 46.25 -6.4 46.8 Q-5.8 47.1 -5.2 47.5 L-4.2 48.35 -3.3 49.4 -2.45 50.6 -0.95 48.0 -1.15 47.8 Q-0.55 47.55 -0.35 46.6 L-0.35 45.3 -0.2 44.2 -0.05 42.9 0.0 41.05 0.1 39.2 Q0.2 38.3 0.45 37.45 L1.05 35.75 1.75 34.35 2.35 33.2 3.05 32.05 3.75 30.85 4.5 29.7 5.25 28.55 5.65 27.95 5.15 27.5 5.7 27.0 6.9 25.3 7.25 24.2 7.55 24.35 8.25 22.15 8.2 22.1 Q8.65 21.65 8.45 20.65 L8.4 20.4 8.6 20.7 8.95 21.45 9.6 18.35 9.9 15.3 10.0 13.05 10.05 10.75 9.95 8.5 9.7 6.2 9.4 4.0 9.15 2.55 8.95 1.55 8.9 1.4 8.8 1.05 8.45 -0.45 8.25 -1.15 7.95 -1.9 7.45 -3.15 7.35 -3.3 7.2 -3.6 7.7 -0.95 7.65 -0.7 Q8.05 -0.1 7.6 0.45 L7.4 0.6 6.6 0.3 6.45 0.0 6.45 -0.05 5.9 -1.1 5.85 -1.25 6.0 -1.45 5.75 -1.8 5.2 -2.5 5.1 -2.95 4.8 -5.0 Q4.75 -5.65 5.1 -5.9 L4.85 -6.1 4.35 -6.4 3.9 -6.65 3.4 -6.85 2.85 -7.05 2.3 -7.2 2.15 -7.3 -0.15 -7.55 -3.2 -6.95 -3.75 -6.8 -6.0 -6.2 -7.4 -5.5 -8.1 -5.05 -7.5 -4.95 -9.35 -4.6 -9.55 -4.45 -9.4 -4.4 -9.8 -4.55 -10.1 -4.25 -10.95 -3.35 -12.0 -2.15 -12.95 -1.0 -13.4 -0.4 -14.15 0.8 -14.8 1.95 -15.4 3.1 -15.85 4.2 -15.9 4.4 -16.05 4.8 -15.95 4.75 M-16.8 2.9 L-16.25 1.9 -15.7 0.85 -15.05 -0.15 -14.35 -1.15 -13.65 -2.1 -12.9 -2.95 -12.05 -3.8 -11.15 -4.5 -10.25 -5.25 -9.3 -5.9 -8.25 -6.45 -7.2 -6.95 -6.5 -7.1 -5.1 -7.4 -3.65 -7.65 -2.25 -7.85 -0.15 -8.05 2.0 -8.15 3.45 -8.2 Q4.55 -8.3 5.45 -7.6 L6.55 -6.75 7.55 -5.75 8.35 -4.5 8.8 -3.2 9.25 -1.95 9.85 -0.8 10.35 0.3 10.75 1.55 10.95 2.8 11.1 4.05 11.2 5.3 11.25 6.5 11.25 7.7 11.25 8.9 11.15 10.1 11.65 11.1 10.5 21.45 7.55 26.5 Q7.35 26.35 7.2 26.3 L6.85 26.3 6.55 26.7 6.55 26.9 6.7 27.1 6.95 27.55 6.95 27.95 6.2 29.15 5.45 30.3 4.7 31.45 4.05 32.6 3.25 34.15 2.6 35.65 2.0 37.25 1.7 38.85 Q1.6 39.7 1.65 40.55 L1.6 42.15 1.35 43.6 1.0 44.9 0.6 46.25 0.25 47.6 0.0 49.1 -0.2 50.6 -0.65 51.15 -1.2 52.3 -1.45 53.5 -1.3 54.75 -1.0 55.85 -0.85 56.8 -0.9 57.4 -1.2 58.25 -1.8 59.1 -2.4 59.6 -4.0 61.0 -3.2 61.55 -1.9 62.6 Q-1.35 63.15 -0.95 63.85 L-0.25 65.25 0.2 66.85 0.6 68.45 1.2 70.95 1.4 72.55 Q1.25 74.0 1.4 75.6 L1.55 76.55 2.25 78.45 2.75 79.45 3.4 80.35 4.05 81.35 4.65 82.35 4.7 82.4 5.15 83.3 5.6 84.4 5.9 85.45 6.15 86.5 6.3 87.65 6.5 88.7 6.95 89.6 7.65 90.2 8.45 90.6 9.45 90.85 9.25 91.75 8.6 93.35 8.15 94.15 7.85 94.95 Q7.75 95.3 7.8 95.7 L8.1 96.5 8.75 97.4 8.75 105.85 8.45 105.85 8.3 107.2 8.35 108.35 8.8 109.45 9.45 110.45 9.95 110.45 9.9 111.25 9.7 111.8 9.3 112.3 8.7 112.75 8.15 113.15 7.85 113.6 7.85 114.15 8.1 114.7 8.95 115.65 9.65 116.45 8.85 116.75 8.25 117.25 Q8.0 117.55 7.9 118.0 L7.75 119.1 8.25 120.05 8.65 121.35 8.75 122.7 7.8 123.55 6.85 124.1 6.05 123.4 5.45 124.3 4.7 125.0 3.8 125.45 2.75 125.8 2.0 125.1 1.55 125.85 1.0 126.5 0.35 126.85 -0.35 127.15 -1.65 127.9 -2.85 128.9 -3.45 129.5 -3.8 129.65 -4.45 129.55 -4.85 129.4 -5.4 129.75 -6.0 130.45 -5.85 130.8 -5.7 131.35 -5.75 131.8 -6.0 132.2 -6.7 132.6 -8.1 133.35 -8.9 132.9 -9.6 132.35 -10.4 133.55 -11.3 134.55 -12.3 135.3 -13.45 135.95 -14.15 135.55 -14.65 134.95 -15.95 135.95 -17.25 136.75 -18.6 137.25 -20.05 137.5 -21.55 137.5 -23.0 137.5 -24.5 137.35 -25.95 137.05 -27.75 136.7 -29.55 136.1 -31.3 135.45 -33.15 134.75 -34.75 133.85 -36.25 132.8 -37.55 131.6 -38.75 130.15 -38.3 129.65 -38.05 129.2 -38.0 128.75 -38.3 127.2 -38.45 126.1 -38.2 124.3 -37.75 122.6 -37.0 121.0 -36.1 119.45 -35.15 117.9 -34.35 116.3 -33.8 114.6 -33.45 112.85 -34.35 111.7 -34.9 110.5 -35.1 109.2 -34.95 107.75 -34.7 107.3 Q-34.6 107.0 -34.65 106.7 L-35.0 106.1 -35.6 105.25 -36.05 104.35 -36.3 102.95 -36.25 101.5 -36.2 100.1 Q-36.2 99.45 -36.35 98.8 L-35.35 97.85 -34.4 96.9 -33.6 95.85 -32.9 94.75 -32.35 93.65 -31.9 92.5 -31.55 91.25 -31.3 89.95 -32.65 90.05 -33.95 90.0 -35.15 89.6 -36.35 89.15 -35.15 88.75 -34.2 88.2 -33.4 87.4 -32.7 86.35 -32.9 85.8 -33.3 84.75 -33.8 83.1 -33.95 82.4 -34.15 81.5 -34.3 80.4 -34.45 78.75 -34.45 77.7 -34.4 76.15 -34.25 75.05 -34.1 74.0 -33.75 72.4 -33.5 71.3 -33.1 70.25 -32.85 69.15 -32.75 68.3 -32.55 67.45 -32.05 66.65 -31.35 65.85 -30.5 65.05 -29.65 64.35 -28.1 62.95 -31.0 62.65 -29.55 61.8 -28.0 61.0 -26.5 60.05 -25.0 59.0 -25.95 57.5 -26.65 55.9 Q-27.05 54.55 -26.95 53.25 -26.85 51.4 -26.35 49.55 L-25.55 46.95 -24.85 45.45 -24.2 44.6 -23.9 44.15 -23.75 43.4 -24.0 42.35 -24.25 41.8 -24.9 40.65 -25.2 39.5 -25.25 38.35 -25.1 37.15 -24.85 36.05 -24.8 35.0 -24.95 34.05 -25.4 33.1 -26.0 32.3 -25.65 30.1 -25.2 27.25 -24.8 25.15 -24.5 23.7 -24.15 22.35 -23.8 20.9 -23.45 19.55 -23.0 18.15 -22.6 16.85 -22.15 15.45 -21.7 14.1 -21.2 12.75 -20.7 11.45 -20.2 10.1 -19.95 9.2 -19.65 8.45 -19.1 7.8 -18.45 7.2 -18.1 6.1 -17.7 5.05 -17.3 4.0 -16.8 2.9 M-14.1 8.05 L-14.5 8.0 -14.1 8.0 -14.1 8.05 M2.75 -5.7 L2.9 -5.55 2.85 -5.6 2.75 -5.7 M2.7 15.5 L2.95 15.7 2.9 15.7 2.7 15.5 M0.9 14.25 L1.0 14.1 0.9 14.25 M-5.9 32.35 L-5.8 32.4 -5.9 32.4 -5.9 32.35 M-17.25 31.6 L-16.9 31.5 -16.9 31.55 -17.25 31.6 M-6.95 44.05 L-6.65 44.15 Q-5.3 44.4 -4.35 45.4 L-4.1 45.55 -5.05 45.0 -6.1 44.4 -6.95 44.05 M-23.65 45.65 L-23.8 45.55 -23.9 45.85 -25.5 50.9 -25.3 50.7 -25.55 51.55 -25.65 52.85 -25.65 54.2 -25.5 55.1 -25.35 55.55 -25.3 55.7 -25.2 56.0 -24.95 56.7 -24.9 56.75 -24.35 57.75 -23.6 58.8 -23.15 59.2 -22.85 59.5 -22.55 59.75 -22.15 60.05 -22.05 60.15 -20.45 61.2 -19.3 61.65 -18.2 62.05 -17.1 62.2 -15.95 62.3 -14.85 62.35 -13.75 62.35 -12.65 62.35 -11.55 62.25 -10.45 62.1 -10.2 62.1 -8.85 61.8 -6.8 61.15 -5.0 60.05 -4.15 59.4 -2.95 58.25 Q-2.35 57.6 -2.35 56.8 L-2.35 55.9 -2.55 55.1 -2.95 54.25 -3.7 52.6 -4.45 50.95 Q-4.65 50.45 -5.0 50.05 L-6.55 48.65 -7.25 48.25 Q-8.05 47.8 -8.9 47.6 L-10.0 47.35 -10.55 47.3 -11.15 47.3 -11.75 47.25 -11.65 47.35 -12.65 47.7 -13.2 48.0 -13.25 48.05 -13.35 48.05 -13.8 48.1 -13.9 48.1 -14.55 48.1 -15.3 48.05 -16.8 47.95 -18.7 47.6 -19.0 47.5 -19.1 47.5 -20.75 46.95 -22.35 46.25 -22.45 46.2 -23.65 45.65 M-25.2 60.35 L-25.3 60.25 -27.7 61.45 -26.45 61.35 -25.95 61.25 -25.8 61.4 -25.5 61.75 -25.65 61.85 -25.85 62.05 -27.5 63.55 -29.2 65.5 -29.95 66.5 -30.9 68.1 -31.7 69.8 -32.15 70.95 -32.45 72.15 Q-32.9 74.0 -33.0 75.95 L-33.05 77.95 -32.95 79.35 -32.9 80.0 -31.3 76.85 -29.25 73.95 Q-30.5 75.55 -31.0 77.45 L-31.35 79.4 -31.45 81.45 -31.4 82.4 -31.35 83.0 -31.6 84.65 -31.9 85.7 -32.05 86.15 -32.8 87.6 -33.75 88.95 -32.7 89.0 -31.75 88.7 -30.9 88.3 -30.1 87.7 -28.0 85.55 -27.4 84.85 -27.35 85.1 -27.3 85.65 -27.35 86.45 -27.65 87.15 -28.15 87.8 -29.8 89.75 -30.3 90.35 -30.7 92.25 -30.75 92.4 -30.8 92.75 -30.95 93.15 -30.9 93.15 -31.3 94.1 -32.2 95.85 -33.3 97.45 Q-34.2 98.65 -34.6 100.0 -35.0 101.4 -34.8 102.8 L-34.45 104.8 -33.75 103.8 -33.5 103.4 -32.65 101.95 -31.95 100.55 -31.3 99.1 -30.8 101.5 -31.05 102.0 -31.35 102.6 -31.6 103.8 -31.75 104.5 -31.9 105.1 -32.2 105.6 -32.4 105.9 -33.15 106.8 Q-33.75 107.8 -33.75 109.0 L-33.7 109.2 -33.7 109.25 -33.7 109.45 -33.7 109.65 -33.65 109.7 -33.5 110.4 -33.15 111.15 -32.7 111.85 -31.95 110.65 -31.05 109.55 -30.05 108.6 -28.9 107.75 -28.6 108.05 -29.8 109.35 -30.7 110.8 -30.8 111.0 -31.3 112.35 -31.75 114.05 -30.95 113.45 -30.8 113.3 -29.75 112.75 Q-29.25 112.45 -28.65 112.3 L-27.4 112.05 -29.3 110.85 -28.15 110.7 -27.1 110.7 -26.2 110.95 -25.4 111.25 -24.4 112.1 Q-23.8 112.85 -23.5 113.8 L-23.0 115.25 -22.6 116.1 -22.15 116.9 -21.6 117.55 -20.35 118.65 -18.9 119.55 -18.25 119.8 -18.75 119.3 Q-19.15 118.95 -19.05 118.45 L-18.95 118.1 -17.3 120.0 -17.05 120.3 -17.1 120.3 -17.25 120.45 -17.3 120.5 -18.45 120.9 Q-19.4 120.95 -20.1 120.45 L-21.2 119.65 -22.1 118.65 -22.95 117.55 -23.05 117.4 -23.3 116.9 -23.35 116.95 Q-22.95 116.05 -23.6 115.7 L-23.6 115.65 -23.8 115.2 -23.8 114.95 -23.95 115.05 -23.95 114.95 Q-24.0 114.2 -24.45 113.9 L-24.5 113.75 -24.6 113.7 -24.7 113.6 -24.75 113.55 Q-25.4 113.15 -26.1 113.15 L-26.35 113.1 -26.6 113.15 -28.0 113.5 -30.7 115.0 -31.15 115.3 -31.45 115.55 -32.15 116.1 -32.8 116.75 -33.35 117.45 -33.9 118.1 -34.35 118.8 -34.75 119.55 -35.5 121.0 -36.0 122.55 -36.3 123.7 -36.35 124.15 -36.5 125.5 -36.5 125.7 -36.5 125.8 -36.55 127.25 -36.6 127.5 -36.65 127.65 -36.8 129.25 -36.75 129.35 -37.05 129.25 Q-37.6 129.55 -37.75 130.15 L-35.6 131.8 -35.05 132.2 -34.5 132.6 -33.95 132.9 -33.35 133.25 -32.75 133.55 -32.2 133.85 -31.6 134.15 -31.05 134.4 -30.45 134.65 -29.85 134.85 -29.25 135.1 -28.65 135.25 -28.0 135.45 -27.4 135.6 -26.75 135.75 -25.5 136.05 -24.2 136.2 -22.85 136.3 -20.75 136.35 -19.45 136.3 -18.05 136.15 -15.45 134.0 -15.1 133.7 -14.8 133.4 -14.65 133.25 -13.9 133.3 -13.95 133.35 -13.7 133.65 -13.5 133.95 -13.35 134.25 -13.25 134.55 -12.25 134.25 -11.7 133.65 -10.75 132.3 -10.25 131.4 Q-9.95 131.4 -9.6 131.1 -9.2 130.7 -8.75 130.95 L-8.65 131.05 -8.4 131.3 -7.65 131.85 Q-7.3 130.5 -6.45 129.4 L-6.0 128.5 Q-5.5 128.5 -5.3 127.9 L-5.25 128.05 -3.75 128.2 -3.2 127.75 -3.2 127.7 -2.8 127.6 -1.1 126.35 -0.95 126.15 -0.9 126.35 -0.55 125.9 0.65 124.7 1.1 124.3 1.15 124.3 2.0 123.9 2.55 123.65 2.6 123.6 3.45 124.6 3.8 124.45 4.85 122.5 Q5.45 122.65 6.0 122.1 L6.75 122.55 6.95 122.7 Q7.4 122.7 7.5 122.2 L7.45 121.3 7.25 120.8 7.25 120.85 7.3 120.0 7.25 119.7 6.9 118.8 Q7.0 118.15 6.7 117.6 L6.5 117.3 6.0 116.85 5.65 116.65 5.75 116.5 5.8 116.4 Q6.1 116.05 6.6 116.0 L7.05 115.95 Q6.9 115.15 6.2 114.8 5.5 114.4 4.65 114.55 L2.9 114.35 1.85 113.65 1.1 112.75 Q0.8 112.35 1.0 111.85 L1.2 111.35 Q2.35 112.25 3.75 112.75 L5.05 113.05 6.35 113.25 Q5.25 113.05 4.45 112.35 L3.15 110.95 3.0 110.75 Q2.6 110.2 2.6 109.6 L2.7 109.05 2.7 109.0 2.75 108.95 2.8 109.0 4.35 110.4 4.75 110.7 4.8 110.75 Q5.35 111.2 6.05 111.5 L8.3 111.8 8.75 111.65 Q7.75 110.95 7.15 109.9 L7.1 109.75 Q6.5 108.7 6.65 107.45 L6.85 105.6 Q6.2 104.0 4.95 102.65 L4.2 101.8 Q3.5 101.05 3.2 100.05 L2.95 98.6 3.25 98.6 Q3.85 100.0 4.8 101.2 L7.05 103.4 Q7.45 102.9 7.4 102.3 L7.0 101.3 6.4 100.4 6.05 99.6 7.55 99.8 Q7.9 98.7 7.6 97.7 7.3 96.8 6.35 96.55 5.45 96.25 4.65 95.7 L3.55 94.7 Q2.85 93.9 2.3 92.9 L1.7 91.55 3.5 92.85 5.4 93.65 6.4 93.7 7.4 93.25 7.8 92.7 8.25 91.85 7.0 91.7 6.9 91.65 Q6.25 91.25 5.95 90.6 L5.45 89.6 Q4.95 88.85 4.8 87.9 L4.5 86.6 3.9 84.8 2.9 82.5 2.85 82.4 2.8 82.3 2.7 82.1 0.9 79.25 0.15 78.2 -0.65 77.2 -1.2 76.6 -1.55 76.2 -2.45 75.25 -4.0 73.85 -5.0 73.05 Q-5.1 72.95 -5.15 72.95 L-5.65 72.5 -6.2 72.1 -5.45 72.05 -4.5 72.2 -2.95 73.1 -0.2 75.5 -0.15 71.5 -0.7 67.75 -1.1 66.75 -1.25 66.5 -1.8 65.8 -1.9 65.75 Q-2.5 65.1 -2.45 64.3 L-2.4 63.85 -3.2 63.0 -4.1 62.6 -5.0 62.65 -5.4 62.9 -5.5 62.95 -3.8 66.35 -3.5 67.5 Q-3.45 68.7 -4.0 69.85 L-4.3 70.35 -4.55 70.35 -4.8 70.15 Q-4.35 69.1 -4.6 68.0 L-4.9 66.9 Q-5.25 65.95 -5.85 65.25 -6.15 64.95 -6.5 64.85 L-7.4 64.85 Q-6.5 65.95 -6.55 67.45 L-6.8 68.75 -6.9 69.15 -6.9 69.2 -6.9 69.1 -7.15 67.7 Q-7.45 66.2 -8.35 65.05 L-8.55 64.8 -9.3 63.85 -10.25 64.1 -10.55 64.35 -10.6 64.4 -10.75 64.7 -10.8 64.9 -10.85 65.65 -10.85 65.7 -10.85 65.75 -10.8 66.55 -10.8 66.6 -10.8 66.75 -10.85 67.7 -10.9 67.8 -11.2 68.65 -11.3 68.55 -11.65 67.05 -11.85 66.0 Q-12.2 65.05 -13.05 64.65 L-13.95 64.35 -13.85 65.55 Q-13.8 66.65 -14.0 67.75 L-14.5 69.3 -14.7 69.7 -15.6 71.0 -16.2 71.6 -16.85 72.1 -17.05 71.85 -16.55 71.2 -16.25 70.8 -15.55 69.4 -15.45 69.15 Q-15.25 68.5 -15.2 67.85 L-15.2 67.25 -14.8 66.65 Q-13.25 64.3 -15.9 63.8 L-16.35 64.0 -17.3 63.95 Q-17.55 63.9 -17.65 64.1 L-17.85 64.6 -17.95 65.25 -17.95 65.4 -18.6 66.0 -18.5 65.65 Q-18.3 64.95 -18.9 64.55 L-19.6 64.25 -20.3 64.0 -20.85 63.35 -20.9 63.25 -20.9 63.2 -20.9 63.15 -20.9 63.05 -20.95 62.9 -20.9 62.25 Q-21.3 61.85 -21.85 61.8 L-22.05 61.8 -22.25 61.8 -22.35 61.8 -23.3 62.25 -22.8 62.3 Q-22.6 62.3 -22.35 62.45 -23.55 63.1 -24.6 63.95 L-24.95 64.2 -26.65 65.65 -28.2 67.25 -28.5 67.6 -29.7 69.3 -30.1 69.85 Q-30.15 68.6 -29.6 67.55 -29.0 66.4 -28.05 65.55 L-25.95 63.85 -25.45 63.5 -24.6 62.95 -24.5 62.9 -24.3 62.75 -23.8 62.45 -25.2 60.35 M-12.9 37.35 L-12.95 37.4 -12.95 37.35 -12.9 37.35 M6.8 0.75 L7.05 1.5 6.95 1.35 6.65 0.8 6.8 0.75 M-6.05 84.5 L-6.1 84.3 -6.05 84.5 -6.0 84.5 -6.0 84.6 -6.05 84.5 M-11.15 88.55 L-11.05 88.25 -11.0 88.55 -11.15 88.55 M-15.25 97.0 L-15.5 96.95 -15.5 97.0 -15.8 94.85 -15.85 94.25 -15.65 95.05 -15.25 97.0 M-22.15 108.5 Q-21.2 109.7 -20.9 111.1 L-20.9 111.75 -20.9 114.2 Q-20.95 111.4 -22.5 109.7 L-24.5 108.2 -23.45 107.65 Q-22.85 107.65 -22.3 108.35 L-22.15 108.5 M-11.65 80.8 L-11.8 80.7 -11.65 80.75 -11.65 80.8 M-23.85 65.3 Q-25.0 65.9 -26.0 66.75 -25.15 65.65 -24.1 65.1 -23.0 64.4 -21.7 64.35 L-23.85 65.3 M-26.0 84.7 L-26.0 84.65 -26.0 84.7 M-26.9 106.85 L-26.95 106.85 -27.3 106.85 -26.7 106.1 Q-25.65 104.5 -25.0 102.4 -24.75 104.7 -26.85 106.75 L-26.9 106.85 M-16.4 102.6 L-16.35 102.9 -16.45 102.65 -16.4 102.6 M-8.05 98.2 L-7.95 97.45 -7.95 98.2 -7.6 100.3 -7.65 100.35 -8.05 99.3 -8.05 99.25 -8.05 99.1 -8.05 98.9 -8.05 98.85 -8.05 98.75 -8.05 98.3 -8.05 98.2 M-1.9 118.55 Q-0.05 118.45 1.7 117.5 L2.25 117.15 1.75 116.85 1.6 116.7 1.35 116.5 1.05 116.15 1.05 116.1 0.9 115.85 0.6 115.3 0.5 114.95 3.5 116.45 3.65 116.5 3.75 116.55 3.95 116.65 1.9 118.0 -0.45 119.15 -1.9 119.55 Q-3.8 119.9 -5.5 119.1 L-5.8 118.9 -7.15 117.85 -7.35 117.7 -8.0 116.9 -8.45 116.25 -9.15 114.95 -11.8 113.65 Q-13.1 112.85 -14.85 113.25 L-14.8 113.25 -14.0 112.85 -13.45 112.7 -11.55 113.0 -11.5 113.05 -10.75 113.55 -10.25 114.0 -9.95 114.3 -10.0 114.3 -9.85 114.4 -9.85 114.45 -9.75 114.4 -9.75 114.35 Q-9.55 114.0 -9.8 113.55 -10.1 112.95 -9.15 113.25 L-9.1 113.35 -9.0 113.5 -8.45 114.5 -7.95 115.2 -6.4 116.9 -4.3 118.4 -1.9 118.55 M-1.55 120.5 L-1.6 120.55 -1.6 120.5 -1.55 120.5 M-16.1 112.05 L-14.7 111.85 -14.65 111.85 -14.7 111.85 -15.85 112.65 -16.5 113.4 -16.6 113.6 -16.65 113.65 -16.85 114.05 -16.9 114.15 -16.9 114.3 -16.95 114.45 Q-17.3 116.45 -16.65 118.1 L-16.5 118.45 -15.75 119.7 -15.65 119.8 -15.75 119.7 -16.9 118.55 -17.25 118.1 Q-17.85 117.15 -18.05 115.95 L-18.05 115.85 -18.05 115.65 -18.05 115.6 -18.05 115.5 -18.05 115.4 -17.65 113.8 -17.55 113.6 -17.25 113.05 -17.2 113.0 -16.35 112.15 -16.1 112.05 M1.4 122.75 L1.25 122.75 1.3 122.75 1.4 122.75 M-2.8 124.2 L-2.75 124.2 -2.75 124.25 -2.8 124.2" fill="#000000" fill-rule="evenodd" stroke="none"/>
    <path d="M-15.75 4.7 L-14.75 4.35 -13.4 4.0 -12.7 3.85 -12.0 3.7 -11.8 3.65 -11.7 3.65 -11.3 3.55 -11.05 3.55 -11.05 3.5 -10.55 3.45 -10.4 3.4 -10.1 3.35 -9.9 3.35 -9.6 3.3 -8.45 3.15 -6.95 3.0 -5.45 2.9 -4.8 2.85 -4.75 2.85 -3.95 2.85 -2.5 2.9 -1.15 3.05 0.2 3.3 1.5 3.7 2.75 4.15 3.0 4.25 3.1 4.3 3.95 4.7 5.15 5.35 5.65 5.7 4.55 4.55 3.4 3.35 2.25 2.15 1.65 1.6 1.45 1.45 1.25 1.3 0.35 0.6 -0.9 -0.2 -2.25 -1.0 -3.55 -1.75 -4.9 -2.4 -6.3 -3.05 -7.7 -3.65 -9.1 -4.25 -9.4 -4.4 -9.55 -4.45 -9.35 -4.6 -7.5 -4.95 -5.4 -4.35 -2.85 -3.3 -1.05 -2.2 0.6 -0.95 0.6 -0.9 2.25 0.6 3.05 1.45 3.1 1.45 3.1 1.5 3.75 2.2 5.15 3.85 6.1 4.95 6.25 5.15 6.95 6.05 7.8 7.2 8.2 7.75 8.6 8.35 8.95 8.9 8.75 9.2 5.9 6.0 6.0 6.0 5.65 5.7 5.9 6.0 5.7 6.0 5.55 5.95 5.5 5.95 4.8 5.8 4.45 5.65 3.8 5.3 Q3.15 4.9 2.35 4.95 L1.15 4.75 0.7 4.7 -1.0 4.55 -2.6 4.55 -4.25 4.55 -5.3 4.6 -6.85 4.8 -8.45 4.95 -9.5 5.15 -10.55 5.4 -11.6 5.65 -13.1 6.15 -13.55 6.25 -13.65 6.3 -13.55 6.3 -10.1 6.95 -9.1 7.25 -6.7 8.05 -5.0 8.7 -2.55 9.95 -1.7 10.45 -1.3 10.65 -0.25 11.35 1.9 12.85 2.0 12.95 4.0 14.65 5.15 15.9 6.25 17.2 7.25 18.55 8.15 20.0 8.4 20.4 8.45 20.65 Q8.65 21.65 8.2 22.1 L7.6 21.1 6.9 20.1 6.55 19.6 6.15 19.1 5.75 18.65 5.35 18.15 4.95 17.7 4.5 17.25 4.1 16.8 3.65 16.35 3.2 15.95 2.9 15.7 2.95 15.7 2.7 15.5 2.45 15.35 2.25 15.15 1.9 14.85 Q1.75 14.15 1.0 14.1 L1.05 14.05 0.2 13.35 Q0.0 12.95 -0.5 12.9 L-0.45 12.8 -2.95 11.3 -3.2 11.2 -3.75 10.85 -3.8 10.8 -3.9 10.75 -4.15 10.65 -4.3 10.65 -4.9 10.4 -5.55 10.1 -6.15 9.85 -6.8 9.55 -7.45 9.35 -8.1 9.15 -8.75 8.95 -9.4 8.75 -10.05 8.6 -10.7 8.45 -11.4 8.35 -12.1 8.25 -12.75 8.15 -13.45 8.1 -14.1 8.05 -14.1 8.0 -14.5 8.0 -14.85 8.0 -16.0 8.2 -16.05 8.2 -17.25 8.4 -18.05 8.6 -17.75 7.95 -17.1 6.85 -15.75 4.7 M4.6 -1.95 L3.15 -3.35 1.95 -4.3 0.05 -5.6 -2.15 -6.55 -3.75 -6.8 -3.2 -6.95 -0.15 -7.55 2.15 -7.3 2.3 -7.2 1.7 -7.3 1.4 -7.35 1.15 -7.4 0.5 -7.45 1.5 -6.8 2.45 -6.0 2.75 -5.7 2.85 -5.6 2.9 -5.55 3.3 -5.05 4.75 -3.1 4.8 -3.0 4.9 -2.85 4.95 -2.8 5.65 -1.65 5.85 -1.25 5.9 -1.1 6.45 -0.05 6.45 0.0 6.6 0.3 6.7 0.6 6.8 0.75 6.65 0.8 5.75 -0.55 5.3 -1.1 5.25 -1.2 4.9 -1.6 4.6 -1.95 M7.25 24.2 L6.9 25.3 5.7 27.0 5.15 27.5 4.45 26.95 4.35 26.85 3.0 25.75 1.65 24.7 0.2 23.7 -0.05 23.5 -1.2 22.75 -2.7 21.85 -4.2 21.0 -5.8 20.2 -6.3 19.95 Q-6.85 19.65 -7.35 19.45 L-8.65 18.95 -8.95 18.85 -10.6 18.4 -12.3 18.0 -14.0 17.85 -16.7 17.7 -18.5 17.7 -20.05 17.75 -21.1 17.9 -21.15 17.95 -21.2 17.95 -21.25 18.0 -21.3 18.0 -21.15 16.8 -19.15 16.65 -17.15 16.55 -16.15 16.55 -15.2 16.6 -14.25 16.6 -13.3 16.7 -12.35 16.8 -11.45 16.95 -10.55 17.15 -9.65 17.3 -8.8 17.55 -7.9 17.75 -7.05 18.05 -6.2 18.35 -5.75 18.75 -5.75 18.8 -4.0 19.4 -3.55 19.8 -2.65 20.25 -2.15 20.4 -2.05 20.4 -1.65 20.4 -1.6 20.4 -1.55 20.4 -1.0 20.65 -0.35 20.85 0.25 21.05 0.8 21.25 1.4 21.45 2.0 21.7 2.55 21.9 3.1 22.15 3.7 22.4 4.25 22.65 4.85 22.95 5.35 23.2 Q5.9 23.45 6.45 23.8 L7.25 24.2 M-0.35 45.3 L-0.35 46.6 Q-0.55 47.55 -1.15 47.8 L-1.6 47.45 -2.9 46.35 -3.45 46.0 -3.95 45.65 -4.1 45.55 -4.35 45.4 Q-5.3 44.4 -6.65 44.15 L-6.95 44.05 -7.2 43.9 -8.3 43.45 -9.45 43.1 -10.45 42.85 -10.6 42.8 -11.8 42.55 -13.0 42.4 -14.2 42.3 -15.45 42.3 -16.7 42.35 -18.0 42.5 -18.5 42.55 -19.25 42.65 -19.55 42.55 -19.8 42.6 -19.95 42.65 -19.95 42.7 -20.0 42.65 -21.6 43.0 -21.8 43.0 -22.0 43.1 -22.2 43.35 -22.35 42.9 Q-22.5 42.1 -22.2 41.65 L-21.6 41.45 -21.5 41.45 -21.45 41.45 -19.75 41.1 -18.0 40.9 -16.2 40.9 -15.95 40.95 -14.15 41.0 -12.35 40.95 -11.15 40.95 -10.55 40.95 -9.65 41.05 -9.6 41.2 -8.4 41.65 -7.2 42.1 -6.0 42.6 -4.85 43.1 -4.75 43.15 -3.7 43.65 -2.55 44.25 -1.45 44.85 -0.35 45.5 -0.35 45.3 M-23.85 36.8 L-23.9 35.9 -23.7 33.55 -23.55 32.7 -23.05 32.6 -22.35 32.5 -22.2 32.5 -21.55 32.3 -20.85 32.1 -20.8 32.1 -20.6 32.0 -20.15 31.8 -19.35 31.9 -18.95 31.75 -18.55 31.6 -17.7 31.7 -17.25 31.6 -16.9 31.55 -16.9 31.5 -16.45 31.4 -16.15 31.15 -16.1 31.1 -15.15 31.05 -13.9 30.95 -13.75 30.95 -12.35 30.85 -11.6 30.85 -10.85 30.85 -9.5 30.85 -9.15 30.9 -8.85 31.05 -8.7 31.1 -8.5 31.2 -8.25 31.25 -8.2 31.3 -7.35 31.6 Q-6.6 31.9 -5.9 32.35 L-5.9 32.4 -7.1 32.2 -8.7 32.0 -9.7 31.95 -10.25 31.95 -11.85 31.95 -13.4 32.0 -14.95 32.2 -16.55 32.45 -18.05 32.8 -19.5 33.25 -21.05 33.75 -22.5 34.35 -22.95 34.55 -23.3 34.65 -22.95 34.65 -22.15 34.55 -21.05 34.45 -20.0 34.35 -18.35 34.35 -17.3 34.35 -16.8 34.35 -14.7 34.55 -12.65 34.95 -10.65 35.5 -10.15 35.65 -8.65 36.1 -6.7 36.85 -8.05 36.8 -9.5 36.5 -10.1 36.35 -10.2 36.3 -10.75 36.3 -10.85 36.1 -12.75 36.15 -13.6 35.9 -13.65 35.9 -13.7 35.95 -14.4 35.95 -14.65 36.0 -14.65 35.9 -15.85 35.9 -16.05 35.9 -17.05 35.9 -18.25 36.0 -19.45 36.1 -20.6 36.25 -21.0 36.3 -21.45 36.35 -21.7 36.4 -21.8 36.4 -22.95 36.65 -23.6 36.75 -23.85 36.8 M-21.9 24.7 L-21.95 24.1 -21.8 23.25 -21.0 23.15 -20.6 23.1 -19.05 23.1 -18.55 23.2 -18.35 23.2 -17.55 23.35 -16.35 23.65 -15.25 24.0 -14.15 24.4 -13.05 24.8 -11.95 25.25 -10.95 25.75 -10.5 26.0 Q-9.2 26.95 -7.9 28.0 L-7.75 28.15 -6.45 29.15 -5.4 30.1 -3.6 31.8 -3.2 32.25 -2.15 33.4 -1.55 34.2 -1.0 35.05 -1.85 34.3 -2.1 34.05 -2.7 33.5 -3.75 32.65 -3.8 32.6 -4.05 32.4 -5.2 31.55 -6.3 30.7 -7.5 29.85 -8.7 29.05 -9.9 28.3 -11.1 27.6 -12.35 26.95 -13.65 26.25 -14.5 26.0 -14.45 25.7 -17.45 24.95 -18.45 24.8 -18.45 24.85 -19.45 24.8 -19.5 24.8 -21.7 24.3 -21.9 24.7" fill="#43432e" fill-rule="evenodd" stroke="none"/>
    <path d="M-21.2 16.75 L-17.3 16.2 -13.3 15.75 -5.45 16.35 -5.6 16.8 -5.7 17.0 -6.1 18.0 -6.2 18.35 -7.05 18.05 -7.9 17.75 -8.8 17.55 -9.65 17.3 -10.55 17.15 -11.45 16.95 -12.35 16.8 -13.3 16.7 -14.25 16.6 -15.2 16.6 -16.15 16.55 -17.15 16.55 -19.15 16.65 -21.15 16.8 -21.2 16.85 -21.2 16.75 M0.6 -0.95 L0.75 -1.05 Q1.4 -1.4 2.2 -1.6 L4.3 -2.25 4.6 -1.95 4.9 -1.6 5.25 -1.2 5.3 -1.1 5.75 -0.55 6.65 0.8 6.95 1.35 7.05 1.5 6.8 0.75 6.7 0.6 6.6 0.3 7.4 0.6 7.6 0.45 Q8.05 -0.1 7.65 -0.7 L7.7 -0.95 7.2 -3.6 7.35 -3.3 7.45 -3.15 7.95 -1.9 8.25 -1.15 8.45 -0.45 8.8 1.05 8.9 1.4 8.75 1.6 8.95 1.55 9.15 2.55 9.4 4.0 9.7 6.2 9.95 8.5 10.05 10.75 10.0 13.05 9.9 15.3 9.6 18.35 8.95 21.45 8.6 20.7 8.4 20.4 8.15 20.0 7.25 18.55 6.25 17.2 5.15 15.9 4.0 14.65 2.0 12.95 1.9 12.85 -0.25 11.35 -1.3 10.65 -1.7 10.45 -0.1 7.2 -3.25 7.0 -9.1 7.25 -10.1 6.95 -13.55 6.3 -13.55 6.25 -13.1 6.15 -11.6 5.65 -10.55 5.4 -9.5 5.15 -8.45 4.95 -6.85 4.8 -5.3 4.6 -4.25 4.55 -2.6 4.55 -1.0 4.55 0.7 4.7 1.15 4.75 2.35 4.95 Q3.15 4.9 3.8 5.3 L4.45 5.65 4.8 5.8 5.5 5.95 5.55 5.95 5.7 6.0 5.9 6.0 8.75 9.2 8.95 8.9 8.6 8.35 8.2 7.75 7.8 7.2 6.95 6.05 6.25 5.15 6.1 4.95 5.15 3.85 3.75 2.2 3.1 1.5 3.1 1.45 3.05 1.45 2.25 0.6 0.6 -0.9 0.6 -0.95 M1.25 1.3 L1.45 1.45 1.65 1.6 2.25 2.15 3.4 3.35 4.55 4.55 5.65 5.7 5.15 5.35 3.95 4.7 3.1 4.3 3.0 4.25 2.75 4.15 1.5 3.7 0.2 3.3 -1.15 3.05 -2.5 2.9 -3.95 2.85 -4.75 2.85 -4.8 2.85 -5.45 2.9 -6.95 3.0 -8.45 3.15 -9.6 3.3 -9.9 3.35 -10.1 3.35 -10.4 3.4 Q-9.6 2.8 -8.45 2.65 L-7.1 2.45 1.25 1.3 M2.3 -7.2 L2.85 -7.05 3.4 -6.85 3.9 -6.65 4.35 -6.4 4.85 -6.1 5.1 -5.9 Q4.75 -5.65 4.8 -5.0 L5.1 -2.95 5.2 -2.5 4.95 -2.8 4.9 -2.85 4.8 -3.0 4.75 -3.1 3.3 -5.05 2.9 -5.55 2.75 -5.7 2.45 -6.0 1.5 -6.8 1.4 -7.35 1.7 -7.3 2.3 -7.2 M8.2 22.1 L8.25 22.15 7.55 24.35 7.25 24.2 6.45 23.8 Q5.9 23.45 5.35 23.2 L4.85 22.95 4.25 22.65 3.7 22.4 3.1 22.15 2.55 21.9 2.0 21.7 1.4 21.45 0.8 21.25 0.25 21.05 -0.35 20.85 -1.0 20.65 -1.55 20.4 -1.6 20.4 -1.65 20.4 -2.05 20.4 -2.15 20.4 -2.65 20.25 -3.55 19.8 -4.0 19.4 -5.75 18.8 -5.75 18.75 -5.7 18.55 -4.55 15.0 -3.8 13.05 -2.95 11.3 -0.45 12.8 -0.5 12.9 -3.7 18.9 -3.15 18.9 -2.6 18.05 0.0 13.2 0.05 13.25 0.1 13.25 0.2 13.35 1.05 14.05 1.0 14.1 0.9 14.25 -1.75 19.05 -0.85 18.15 -0.35 17.5 1.7 14.7 1.75 14.75 1.9 14.85 2.25 15.15 2.45 15.35 2.7 15.5 2.9 15.7 3.2 15.95 3.65 16.35 4.1 16.8 4.5 17.25 4.95 17.7 5.35 18.15 5.75 18.65 6.15 19.1 6.55 19.6 6.9 20.1 7.6 21.1 8.2 22.1 M5.15 27.5 L5.65 27.95 5.25 28.55 4.5 29.7 3.75 30.85 3.05 32.05 2.35 33.2 1.75 34.35 1.05 35.75 0.45 37.45 Q0.2 38.3 0.1 39.2 L0.0 41.05 -0.05 42.9 -0.2 44.2 -0.35 45.3 -0.35 45.5 -1.45 44.85 -2.55 44.25 -3.7 43.65 -4.75 43.15 -4.85 43.1 -6.0 42.6 -7.2 42.1 -8.4 41.65 -9.6 41.2 -9.65 41.05 -9.8 40.3 Q-9.95 39.6 -10.25 39.05 L-10.25 39.0 -10.4 38.75 -10.5 38.5 -10.2 36.3 -10.1 36.35 -9.5 36.5 -8.05 36.8 -6.7 36.85 -8.65 36.1 -10.15 35.65 -10.1 34.2 -10.0 33.4 Q-13.7 33.5 -17.3 34.35 L-18.35 34.35 -20.0 34.35 -21.05 34.45 -22.15 34.55 -22.95 34.65 -22.95 34.55 -22.5 34.35 -21.05 33.75 -19.5 33.25 -18.05 32.8 -16.55 32.45 -14.95 32.2 -13.4 32.0 -11.85 31.95 -10.25 31.95 -9.7 31.95 -8.7 32.0 -7.1 32.2 -5.9 32.4 -5.8 32.4 -5.9 32.35 Q-6.6 31.9 -7.35 31.6 L-8.2 31.3 -8.25 31.25 -8.5 31.2 -8.7 31.1 -8.85 31.05 -9.65 30.4 -10.35 29.9 -10.1 29.95 -10.4 29.9 -11.15 29.7 -11.55 29.4 Q-12.55 28.75 -13.6 28.25 -14.05 27.9 -14.6 27.75 L-15.25 27.4 -15.8 27.05 -16.0 27.2 Q-17.3 26.65 -18.7 26.35 L-18.8 26.95 -18.9 27.55 -19.1 28.1 -19.2 28.65 -19.45 30.0 -19.55 30.75 -19.9 30.8 -19.55 26.15 -20.15 26.0 -21.45 25.85 -22.2 25.85 -22.6 25.8 -22.6 25.75 -21.9 24.7 -21.7 24.3 -19.5 24.8 -19.45 24.8 -18.45 24.85 -18.45 24.8 -17.45 24.95 -14.45 25.7 -14.5 26.0 -13.65 26.25 -12.35 26.95 -11.1 27.6 -9.9 28.3 -8.7 29.05 -7.5 29.85 -6.3 30.7 -5.2 31.55 -4.05 32.4 -4.1 32.45 -4.0 32.5 -3.9 32.55 -3.85 32.6 -3.8 32.6 -3.75 32.65 -2.7 33.5 -2.1 34.05 -1.85 34.3 -1.0 35.05 -1.55 34.2 -2.15 33.4 -3.2 32.25 Q-3.55 31.05 -4.25 30.1 L-4.45 29.9 -6.45 28.25 Q-7.4 27.45 -8.45 26.75 L-10.55 25.3 -12.2 24.35 -12.25 24.35 -12.25 24.4 -11.6 25.15 -10.7 25.85 -10.5 26.0 -10.95 25.75 -11.95 25.25 -13.05 24.8 -14.15 24.4 -15.25 24.0 -16.35 23.65 -17.55 23.35 -18.35 23.2 -18.55 23.2 -17.1 23.05 Q-12.45 23.1 -7.9 24.25 L-7.7 24.3 -6.3 19.95 -5.8 20.2 -4.2 21.0 -2.7 21.85 -1.2 22.75 -0.05 23.5 0.2 23.7 1.65 24.7 3.0 25.75 4.35 26.85 4.45 26.95 5.15 27.5 M-1.15 47.8 L-0.95 48.0 -2.45 50.6 -3.3 49.4 -4.2 48.35 -5.2 47.5 Q-5.8 47.1 -6.4 46.8 L-7.6 46.25 -9.0 45.9 -9.9 45.8 -10.0 45.8 -10.15 45.8 -10.2 45.8 Q-11.35 44.65 -12.95 44.1 -15.7 43.15 -18.5 42.55 L-18.0 42.5 -16.7 42.35 -15.45 42.3 -14.2 42.3 -13.0 42.4 -11.8 42.55 -10.6 42.8 -10.45 42.85 -9.45 43.1 -8.3 43.45 -7.2 43.9 -6.95 44.05 -6.1 44.4 -5.05 45.0 -4.1 45.55 -3.95 45.65 -3.45 46.0 -2.9 46.35 -1.6 47.45 -1.15 47.8 M-22.7 23.4 L-22.9 23.45 -23.6 23.65 -23.55 23.6 -23.45 23.45 -22.7 23.4 M3.05 1.45 L3.0 1.35 3.05 1.45 M-16.1 31.1 L-15.95 30.95 -15.9 30.8 -15.55 29.95 -15.2 28.7 -15.1 28.3 -15.05 28.3 -15.05 28.35 -15.05 28.65 -15.05 28.7 -15.05 28.8 -14.95 29.8 -14.9 30.0 -14.85 30.1 -15.05 30.8 -15.1 30.9 -15.15 31.05 -16.1 31.1 M-12.25 28.55 L-12.3 28.6 -12.15 28.8 -12.25 28.55 M-9.65 30.8 L-9.55 30.85 -9.65 30.85 -9.65 30.8 M-14.65 36.0 L-14.4 35.95 -13.7 35.95 -13.85 36.2 -13.9 36.45 -15.0 40.25 -15.0 39.2 -14.9 38.1 -14.65 36.0 M-11.15 40.95 L-10.95 40.3 -10.65 39.1 -10.55 40.95 -11.15 40.95 M-19.95 42.7 L-19.95 42.65 -19.8 42.6 -19.55 42.55 -19.25 42.65 -19.3 42.65 -19.05 44.7 -19.65 44.5 -19.95 42.7" fill="#7b7b53" fill-rule="evenodd" stroke="none"/>
    <path d="M-3.9 10.8 L-3.9 10.75 -3.8 10.8 -3.75 10.85 -3.9 10.8" fill="#a4a475" fill-rule="evenodd" stroke="none"/>
    <path d="M-3.8 32.6 L-3.85 32.6 -3.9 32.55 -4.0 32.5 -4.1 32.45 -4.05 32.4 -3.8 32.6" fill="#336666" fill-rule="evenodd" stroke="none"/>
    <path d="M-23.9 45.85 L-23.8 45.55 -23.65 45.65 -23.9 45.85 M5.8 116.4 L5.75 116.5 5.75 116.4 5.8 116.4 M3.5 116.45 L3.8 116.45 3.75 116.55 3.65 116.5 3.5 116.45" fill="#6c7fb0" fill-rule="evenodd" stroke="none"/>
    <path d="M5.65 5.7 L6.0 6.0 5.9 6.0 5.65 5.7 M-23.9 45.85 L-23.65 45.65 -22.45 46.2 -22.35 46.25 -22.55 46.65 Q-23.8 48.1 -24.45 49.85 L-24.85 50.25 -25.05 50.45 -25.3 50.7 -25.5 50.9 -23.9 45.85 M-19.1 47.5 L-19.0 47.5 -18.7 47.6 -16.8 47.95 -15.3 48.05 -14.55 48.1 -13.9 48.1 -13.8 48.1 -13.35 48.05 -13.8 48.35 -13.8 48.3 -16.5 48.3 -17.0 48.3 -18.15 48.5 -18.15 48.55 Q-19.95 49.0 -21.4 50.3 L-22.85 52.0 Q-23.35 52.65 -23.65 53.45 L-23.7 53.45 -23.8 53.85 Q-24.1 54.85 -23.95 55.95 L-23.95 56.4 -24.15 56.2 -24.5 55.8 Q-24.95 55.1 -25.0 54.3 L-25.15 53.5 -24.95 52.7 -24.9 52.55 -24.6 51.85 -24.6 51.8 -24.55 51.75 Q-24.15 50.8 -23.4 50.0 L-22.55 49.25 -22.15 48.9 -21.7 48.6 -20.65 48.0 -20.1 47.9 -20.2 47.75 -19.1 47.5 M-21.5 52.35 L-21.4 52.0 -21.1 51.75 -20.95 51.65 -20.9 51.6 -20.7 51.35 -20.0 50.8 -19.65 50.6 -19.6 50.55 -19.5 50.5 -19.45 50.45 -19.45 50.4 -19.4 50.4 -19.35 50.4 -19.35 50.35 -19.3 50.35 -19.25 50.3 -19.2 50.3 -19.15 50.25 -19.1 50.25 -19.05 50.2 -18.95 50.2 -18.75 50.05 Q-17.65 49.35 -16.55 49.7 L-16.6 49.7 -16.55 49.8 -16.65 50.15 -17.3 50.5 -17.45 50.6 -18.55 51.3 -19.5 52.1 -20.45 53.0 -21.3 53.65 -21.4 53.75 -21.85 53.95 -22.1 53.75 -22.1 53.7 -22.15 53.8 -22.15 53.75 -22.05 53.55 -22.05 53.5 -22.0 53.25 Q-22.1 53.0 -21.85 52.85 L-21.7 52.65 -21.65 52.6 -21.4 52.2 -21.5 52.35 M-36.3 123.7 L-36.0 122.55 -35.5 121.0 -34.75 119.55 -34.35 118.8 -33.9 118.1 -33.35 117.45 -32.8 116.75 -32.15 116.1 -31.45 115.55 -31.15 115.3 Q-29.95 114.8 -28.8 114.85 L-29.15 115.15 Q-32.1 117.15 -33.7 120.35 L-35.0 123.15 Q-35.4 124.15 -36.3 123.7 M-24.25 119.4 L-23.1 118.65 Q-21.75 118.65 -22.2 119.85 L-22.55 120.4 -23.55 121.65 Q-24.0 122.35 -24.75 122.5 -25.1 122.55 -25.2 122.25 -25.45 121.55 -25.3 120.95 L-24.3 119.5 -24.25 119.4 M-26.8 124.55 L-26.4 124.15 -25.9 123.95 Q-24.9 124.4 -25.65 125.4 L-26.1 126.3 Q-25.85 127.4 -27.0 127.1 L-27.2 126.85 -27.1 125.6 -27.05 125.45 -26.8 124.55 M-23.35 122.25 L-23.3 122.2 -23.3 122.3 -23.35 122.25" fill="#ffffff" fill-rule="evenodd" stroke="none"/>
    <path d="M-22.35 46.25 L-20.75 46.95 -19.1 47.5 -20.2 47.75 -20.8 47.7 Q-21.45 47.8 -22.0 48.05 L-22.7 48.4 -23.15 48.7 -23.9 49.3 -24.1 49.55 -24.2 49.65 -24.45 49.85 Q-23.8 48.1 -22.55 46.65 L-22.35 46.25 M-13.35 48.05 L-13.25 48.05 -12.8 48.0 -12.25 48.0 -11.05 49.7 -10.9 49.1 -10.95 48.65 Q-10.2 48.8 -10.15 49.6 L-10.4 50.25 Q-11.75 52.0 -12.0 54.2 -12.1 55.05 -12.75 55.7 L-13.75 56.5 Q-15.2 57.45 -16.8 57.9 L-18.35 58.15 -21.2 58.2 Q-22.15 58.1 -22.9 57.55 L-23.4 56.85 -23.95 56.4 -23.95 55.95 Q-24.1 54.85 -23.8 53.85 L-23.7 53.45 -23.65 53.45 Q-23.35 52.65 -22.85 52.0 L-21.4 50.3 Q-19.95 49.0 -18.15 48.55 L-18.15 48.5 -17.0 48.3 -16.5 48.3 -13.8 48.3 -13.8 48.35 -13.35 48.05 M-22.1 53.7 L-22.1 53.75 -21.85 53.95 -21.4 53.75 -21.3 53.65 -20.45 53.0 -19.5 52.1 -18.55 51.3 -17.45 50.6 -17.3 50.5 -16.65 50.15 -16.55 49.8 -16.6 49.7 -16.55 49.7 Q-17.65 49.35 -18.75 50.05 L-18.95 50.2 -19.05 50.2 -19.1 50.25 -19.15 50.25 -19.2 50.3 -19.25 50.3 -19.3 50.35 -19.35 50.35 -19.35 50.4 -19.4 50.4 -19.45 50.4 -19.45 50.45 -19.5 50.5 -19.6 50.55 -19.65 50.6 -20.0 50.8 -20.7 51.35 -20.9 51.6 -20.95 51.65 -21.1 51.75 -21.4 52.0 -21.5 52.35 -21.65 52.6 -21.7 52.65 -21.85 52.85 Q-22.1 53.0 -22.0 53.25 L-22.05 53.5 -22.05 53.55 -22.15 53.75 -22.15 53.8 -22.2 54.05 -22.4 55.0 Q-22.05 56.1 -20.75 56.0 L-20.7 56.05 Q-19.8 56.75 -18.55 56.6 L-18.05 56.6 Q-16.3 56.4 -15.15 55.15 -13.8 53.7 -13.85 51.75 L-13.85 51.05 Q-14.0 50.15 -14.85 49.85 L-15.15 49.95 -15.6 50.75 -16.45 52.7 -16.55 52.8 Q-17.8 54.3 -19.65 55.2 L-20.15 55.3 -20.7 55.6 -20.8 55.7 -21.4 55.9 Q-22.45 55.1 -22.2 54.05 L-22.1 53.7 M-16.55 52.8 L-16.85 53.3 -17.2 53.55 -16.55 52.8 M-36.75 129.35 L-36.8 129.25 -36.65 127.65 -36.6 127.5 -36.55 127.55 -34.1 127.0 -33.05 124.1 -33.3 124.3 -33.6 124.5 Q-35.0 125.05 -36.5 125.25 L-36.5 125.5 -36.35 124.15 -36.3 123.7 Q-35.4 124.15 -35.0 123.15 L-33.7 120.35 Q-32.1 117.15 -29.15 115.15 L-28.8 114.85 Q-27.45 114.85 -26.2 115.55 L-26.05 115.5 -25.6 115.2 -25.25 114.95 -25.5 114.6 -26.05 114.0 Q-26.6 113.55 -26.35 113.1 L-26.1 113.15 Q-25.4 113.15 -24.75 113.55 L-24.7 113.6 -24.6 113.7 -24.5 113.75 -24.45 113.9 Q-24.0 114.2 -23.95 114.95 L-23.95 115.05 -27.0 117.3 -27.7 118.0 -28.35 118.65 -29.0 119.35 -29.55 120.1 -30.15 120.85 -30.65 121.6 -31.1 122.4 -31.55 123.25 -31.95 124.1 -32.3 125.0 -32.65 125.9 -32.95 126.8 -33.25 127.35 -33.65 127.9 -34.1 128.45 -34.8 129.15 -35.35 129.45 -35.95 129.6 -36.75 129.35 M-23.6 115.7 Q-22.95 116.05 -23.35 116.95 L-23.7 117.25 -25.75 119.45 -26.25 120.1 -26.35 120.3 -27.25 121.75 -27.55 122.45 -28.05 123.65 -28.45 124.9 -28.75 126.2 -29.05 128.25 -29.1 128.95 -26.5 131.35 -25.35 132.15 Q-24.5 132.75 -23.4 132.6 L-22.0 132.6 -20.7 132.45 -20.3 132.35 -20.25 132.35 -20.35 132.45 -20.35 132.5 -20.75 133.15 -20.9 133.7 -21.45 133.75 -22.0 133.75 -22.6 133.75 -23.15 133.75 -23.75 133.75 -24.35 133.7 -25.15 133.55 -25.45 133.5 -25.85 133.35 -26.45 133.1 -27.9 132.4 -28.75 131.8 -30.3 130.15 -30.25 128.0 -30.15 126.95 -30.0 125.95 -29.8 124.9 -29.5 123.95 -29.2 123.0 -28.8 122.1 -28.35 121.2 -27.85 120.35 -27.25 119.5 -26.65 118.7 -25.95 117.9 -25.2 117.15 -24.8 116.8 -24.4 116.45 -24.0 116.05 -23.6 115.7 M-23.05 117.4 L-22.95 117.55 -22.1 118.65 -21.2 119.65 -20.1 120.45 Q-19.4 120.95 -18.45 120.9 L-17.3 120.5 Q-17.0 121.0 -16.15 120.95 L-16.0 120.7 -15.75 119.7 Q-15.3 118.35 -14.5 117.2 L-14.05 116.75 -13.4 116.9 -13.25 117.05 Q-12.15 117.9 -11.8 119.25 -11.7 119.85 -11.9 120.4 -12.6 122.05 -13.65 123.5 -15.1 125.6 -16.95 127.4 -18.3 128.6 -19.9 129.45 -21.35 130.15 -22.95 130.4 L-25.8 130.05 -26.4 129.8 Q-27.25 128.4 -27.2 126.85 L-27.0 127.1 Q-25.85 127.4 -26.1 126.3 L-25.65 125.4 Q-24.9 124.4 -25.9 123.95 L-26.4 124.15 -26.8 124.55 -26.35 123.2 -25.3 120.95 Q-25.45 121.55 -25.2 122.25 -25.1 122.55 -24.75 122.5 -24.0 122.35 -23.55 121.65 L-22.55 120.4 -22.2 119.85 Q-21.75 118.65 -23.1 118.65 L-24.25 119.4 -23.9 118.95 -23.1 117.55 -23.05 117.4 M-7.1 51.0 L-7.45 51.6 -8.05 52.85 -8.4 54.05 -8.6 55.3 -8.65 56.45 -8.5 57.5 -8.35 58.0 -8.8 57.5 -9.45 55.3 Q-9.75 52.6 -7.5 51.15 -7.3 51.0 -7.1 51.0 M-15.75 119.7 L-15.65 119.8 -15.75 119.7 M-23.35 122.25 L-23.3 122.3 -23.3 122.2 -23.35 122.25 M-18.9 131.05 L-19.0 130.9 -18.9 130.95 -18.85 130.95 -18.9 131.05" fill="#b7b7b7" fill-rule="evenodd" stroke="none"/>
    <path d="M-13.25 48.05 L-13.2 48.0 -12.65 47.7 -11.65 47.35 -11.75 47.25 -11.15 47.3 -10.55 47.3 -10.0 47.35 -8.9 47.6 Q-8.05 47.8 -7.25 48.25 L-7.85 48.75 Q-8.55 48.8 -9.15 49.65 -10.55 51.75 -11.0 54.45 -11.4 57.05 -13.65 58.75 -15.45 60.3 -17.4 60.7 L-19.45 60.4 -23.15 59.2 -23.6 58.8 -24.35 57.75 -24.9 56.75 -24.95 56.7 -25.2 56.0 -25.3 55.7 -25.35 55.55 -25.5 55.1 -25.65 54.2 -25.65 52.85 -25.55 51.55 -25.3 50.7 -25.05 50.45 -24.85 50.25 -24.45 49.85 -24.2 49.65 -24.1 49.55 -23.9 49.3 -23.15 48.7 -22.7 48.4 -22.0 48.05 Q-21.45 47.8 -20.8 47.7 L-20.2 47.75 -20.1 47.9 -20.65 48.0 -21.7 48.6 -22.15 48.9 -22.55 49.25 -23.4 50.0 Q-24.15 50.8 -24.55 51.75 L-24.6 51.8 -24.6 51.85 -24.9 52.55 -24.95 52.7 -25.15 53.5 -25.0 54.3 Q-24.95 55.1 -24.5 55.8 L-24.15 56.2 -23.95 56.4 -23.4 56.85 -22.9 57.55 Q-22.15 58.1 -21.2 58.2 L-18.35 58.15 -16.8 57.9 Q-15.2 57.45 -13.75 56.5 L-12.75 55.7 Q-12.1 55.05 -12.0 54.2 -11.75 52.0 -10.4 50.25 L-10.15 49.6 Q-10.2 48.8 -10.95 48.65 L-10.9 49.1 -11.05 49.7 -12.25 48.0 -12.8 48.0 -13.25 48.05 M-22.1 53.7 L-22.2 54.05 Q-22.45 55.1 -21.4 55.9 L-20.8 55.7 -20.7 55.6 -20.15 55.3 -19.65 55.2 Q-17.8 54.3 -16.55 52.8 L-16.45 52.7 -15.6 50.75 -15.15 49.95 -14.85 49.85 Q-14.0 50.15 -13.85 51.05 L-13.85 51.75 Q-13.8 53.7 -15.15 55.15 -16.3 56.4 -18.05 56.6 L-18.55 56.6 Q-19.8 56.75 -20.7 56.05 L-20.75 56.0 Q-22.05 56.1 -22.4 55.0 L-22.2 54.05 -22.15 53.8 -22.1 53.7 M-21.65 52.6 L-21.5 52.35 -21.4 52.2 -21.65 52.6 M-16.55 52.8 L-17.2 53.55 -16.85 53.3 -16.55 52.8 M6.9 118.8 L7.25 119.7 7.3 120.0 7.25 120.85 7.25 120.8 6.65 120.9 6.05 121.1 5.9 121.2 5.85 121.2 5.65 121.3 5.85 122.0 6.0 122.1 Q5.45 122.65 4.85 122.5 L5.15 122.0 4.35 121.8 4.0 121.75 2.45 122.2 2.4 122.35 2.5 123.25 2.6 123.55 2.6 123.6 2.55 123.65 2.0 123.9 1.15 124.3 1.55 123.6 1.7 122.7 1.5 122.7 1.4 122.75 1.3 122.75 1.25 122.75 1.0 122.8 -1.6 123.4 -0.95 126.15 -1.1 126.35 -2.8 127.6 -3.2 127.7 -3.1 127.55 -2.7 126.8 -2.65 126.65 -2.4 125.35 -2.45 125.2 -2.65 124.45 -2.75 124.25 -2.75 124.2 -2.8 124.2 -2.85 124.1 -3.25 124.5 -4.85 125.85 Q-5.6 126.45 -5.4 127.4 L-5.3 127.9 Q-5.5 128.5 -6.0 128.5 L-5.9 128.15 -5.9 128.1 Q-5.85 127.35 -6.05 126.65 L-6.05 126.5 Q-7.15 127.1 -7.9 128.05 L-8.55 129.0 -8.85 129.95 -8.85 130.7 -8.8 130.75 -8.75 130.95 Q-9.2 130.7 -9.6 131.1 -9.95 131.4 -10.25 131.4 L-10.1 131.05 -10.05 130.95 -9.5 129.5 -9.35 128.95 -9.4 128.95 -9.35 128.75 -9.3 128.7 -10.1 129.15 -11.45 130.05 -12.25 130.75 -12.6 131.2 -13.55 132.55 -13.9 133.3 -14.65 133.25 -14.7 133.25 -14.6 133.15 -14.55 133.1 -14.35 132.75 -14.2 132.45 -14.05 132.1 -14.0 131.7 -13.95 131.65 -13.95 131.35 Q-14.9 131.95 -16.0 132.4 L-16.5 132.65 -16.8 132.75 -17.0 132.8 -17.0 132.85 -17.05 132.85 -17.55 133.0 -18.1 133.15 -18.65 133.3 -19.2 133.45 -19.75 133.55 -20.3 133.65 -20.65 133.65 -20.85 133.7 -20.75 136.15 -20.75 136.35 -22.85 136.3 -24.2 136.2 -25.5 136.05 -26.75 135.75 -27.4 135.6 -28.0 135.45 -28.65 135.25 -29.25 135.1 -29.85 134.85 -30.45 134.65 -31.05 134.4 -31.6 134.15 -32.2 133.85 -32.75 133.55 -33.35 133.25 -33.95 132.9 -34.5 132.6 -35.05 132.2 -35.6 131.8 -37.75 130.15 Q-37.6 129.55 -37.05 129.25 L-36.75 129.35 -35.95 129.6 -35.35 129.45 -34.8 129.15 -34.1 128.45 -33.65 127.9 -33.25 127.35 -32.95 126.8 -32.65 125.9 -32.3 125.0 -31.95 124.1 -31.55 123.25 -31.1 122.4 -30.65 121.6 -30.15 120.85 -29.55 120.1 -29.0 119.35 -28.35 118.65 -27.7 118.0 -27.0 117.3 -23.95 115.05 -23.8 114.95 -23.8 115.2 -23.6 115.65 -23.6 115.7 -24.0 116.05 -24.4 116.45 -24.8 116.8 -25.2 117.15 -25.95 117.9 -26.65 118.7 -27.25 119.5 -27.85 120.35 -28.35 121.2 -28.8 122.1 -29.2 123.0 -29.5 123.95 -29.8 124.9 -30.0 125.95 -30.15 126.95 -30.25 128.0 -30.3 130.15 -28.75 131.8 -27.9 132.4 -26.45 133.1 -25.85 133.35 -25.45 133.5 -25.15 133.55 -24.35 133.7 -23.75 133.75 -23.15 133.75 -22.6 133.75 -22.0 133.75 -21.45 133.75 -20.9 133.7 -20.75 133.15 -20.35 132.5 -19.85 132.3 -19.75 132.25 -19.55 132.2 -19.4 132.2 -18.0 131.8 -17.35 131.6 -15.75 130.9 -13.9 130.0 -12.05 129.15 -10.25 128.2 -8.8 127.3 -7.7 126.55 -6.55 125.85 -5.35 125.1 -4.2 124.35 -3.2 123.5 -2.4 122.45 -1.8 121.2 -1.75 121.05 -1.6 120.6 -1.6 120.55 -1.55 120.5 -1.45 120.65 -1.15 121.0 -1.2 120.95 -1.15 121.05 -1.0 121.2 -0.2 122.2 6.85 119.1 6.85 119.0 6.9 118.8 M-36.55 127.25 L-36.5 125.8 -36.5 125.7 -36.5 125.5 -36.5 125.25 Q-35.0 125.05 -33.6 124.5 L-33.3 124.3 -33.05 124.1 -34.1 127.0 -36.55 127.55 -36.55 127.25 M-31.15 115.3 L-30.7 115.0 -28.0 113.5 -26.6 113.15 -26.35 113.1 Q-26.6 113.55 -26.05 114.0 L-25.5 114.6 -25.25 114.95 -25.6 115.2 -26.05 115.5 -26.2 115.55 Q-27.45 114.85 -28.8 114.85 -29.95 114.8 -31.15 115.3 M-23.35 116.95 L-23.3 116.9 -23.05 117.4 -23.1 117.55 -23.9 118.95 -24.25 119.4 -24.3 119.5 -25.3 120.95 -26.35 123.2 -26.8 124.55 -27.05 125.45 -27.1 125.6 -27.2 126.85 Q-27.25 128.4 -26.4 129.8 L-25.8 130.05 -22.95 130.4 Q-21.35 130.15 -19.9 129.45 -18.3 128.6 -16.95 127.4 -15.1 125.6 -13.65 123.5 -12.6 122.05 -11.9 120.4 -11.7 119.85 -11.8 119.25 -12.15 117.9 -13.25 117.05 L-13.4 116.9 -14.05 116.75 -14.5 117.2 Q-15.3 118.35 -15.75 119.7 L-16.0 120.7 -16.15 120.95 Q-17.0 121.0 -17.3 120.5 L-17.25 120.45 -17.1 120.3 -17.05 120.3 -17.3 120.0 -16.5 119.9 -17.1 118.6 -16.9 118.55 -15.75 119.7 -16.5 118.45 -16.65 118.1 -16.55 118.05 -16.45 117.85 Q-16.1 117.35 -16.05 116.8 L-16.05 116.75 -16.0 116.6 -15.9 116.6 -15.85 116.45 -15.6 115.55 Q-14.5 114.0 -12.45 114.35 -11.55 114.5 -10.7 115.0 L-8.45 116.25 -8.0 116.9 -7.35 117.7 Q-5.95 119.75 -5.9 122.25 L-6.0 122.55 Q-7.05 124.55 -8.75 126.15 L-9.3 126.6 Q-12.0 127.95 -14.85 129.05 L-18.2 130.15 -18.25 130.2 -18.3 130.2 -18.3 130.25 -18.45 130.6 -19.35 131.6 -20.15 132.35 -20.25 132.35 -20.3 132.35 -20.7 132.45 -22.0 132.6 -23.4 132.6 Q-24.5 132.75 -25.35 132.15 L-26.5 131.35 -29.1 128.95 -29.05 128.25 -28.75 126.2 -28.45 124.9 -28.05 123.65 -27.55 122.45 -27.25 121.75 -26.35 120.3 -26.25 120.1 -25.75 119.45 -23.7 117.25 -23.35 116.95 M-10.85 56.35 Q-10.65 57.85 -10.0 58.9 -11.35 60.6 -13.4 60.75 L-16.65 60.75 Q-13.15 59.9 -10.85 56.35 M-5.5 52.8 Q-3.75 54.9 -4.5 57.6 -5.5 59.1 -6.9 60.0 -6.3 58.7 -5.2 57.4 L-5.5 52.8 M-14.25 115.8 L-14.2 115.7 -14.25 115.8 M-18.9 131.05 L-18.85 130.95 -18.9 130.95 -19.0 130.9 -18.9 131.05" fill="#787878" fill-rule="evenodd" stroke="none"/>
    <path d="M-25.8 61.4 L-25.95 61.25 -26.45 61.35 -27.7 61.45 -25.3 60.25 -25.2 60.35 -25.8 61.4 M-21.85 61.8 Q-21.3 61.85 -20.9 62.25 L-21.65 62.0 -21.85 61.8 M-10.85 65.7 L-10.85 65.65 -10.8 64.9 -10.75 64.7 -10.6 65.25 -10.85 65.7 M-5.4 62.9 L-5.0 62.65 -4.1 62.6 -3.2 63.0 -5.05 62.85 -5.4 62.9 M-1.25 66.5 L-1.1 66.75 -1.15 66.9 -1.25 66.5 M-30.8 113.3 L-30.95 113.45 -30.9 113.35 -30.8 113.3 M-33.7 109.2 L-33.75 109.0 -33.65 109.05 -33.7 109.2 M-1.95 72.0 L-1.95 71.5 -1.9 71.5 Q-1.85 71.75 -1.95 72.0 M-13.25 71.15 L-13.15 71.0 -13.15 71.25 -13.25 71.15 M-12.2 76.6 L-12.2 76.75 -12.25 76.75 -12.2 76.6 M-7.25 83.8 L-7.15 83.85 -7.2 83.85 -7.25 83.8 M-14.6 99.25 L-14.65 99.5 -14.7 99.3 -14.6 99.25 M-5.05 90.2 L-5.05 88.45 -4.05 90.75 -4.0 90.9 -4.1 91.0 -4.45 91.15 -4.75 91.05 -5.05 90.2 M-3.75 90.25 L-3.8 90.45 -3.85 90.35 -3.75 90.25 M-25.6 83.05 L-25.5 83.1 -25.4 85.65 Q-25.55 85.1 -26.0 84.7 L-26.0 84.65 -25.7 83.75 -25.6 83.05 M-25.5 87.5 L-25.55 87.6 -25.5 87.5 M-8.2 98.15 L-8.05 98.2 -8.05 98.3 -8.05 98.75 -8.05 98.85 -8.05 98.9 -8.2 98.15 M-6.1 103.85 L-6.4 103.35 -6.0 103.8 -6.1 103.85 M-18.1 110.45 L-18.25 110.6 -18.25 110.55 -18.1 110.45" fill="#1060a0" fill-rule="evenodd" stroke="none"/>
    <path d="M-7.25 48.25 L-6.55 48.65 -5.0 50.05 Q-4.65 50.45 -4.45 50.95 L-3.7 52.6 -2.95 54.25 -2.55 55.1 -2.35 55.9 -2.35 56.8 Q-2.35 57.6 -2.95 58.25 L-4.15 59.4 -5.0 60.05 -6.8 61.15 -8.85 61.8 -10.2 62.1 -10.45 62.1 -11.55 62.25 -12.65 62.35 -13.75 62.35 -14.85 62.35 -15.95 62.3 -17.1 62.2 -18.2 62.05 -19.3 61.65 -20.45 61.2 -22.05 60.15 -22.15 60.05 -22.55 59.75 -22.85 59.5 -23.15 59.2 -19.45 60.4 -17.4 60.7 Q-15.45 60.3 -13.65 58.75 -11.4 57.05 -11.0 54.45 -10.55 51.75 -9.15 49.65 -8.55 48.8 -7.85 48.75 L-7.25 48.25 M-7.1 51.0 Q-7.3 51.0 -7.5 51.15 -9.75 52.6 -9.45 55.3 L-8.8 57.5 -8.35 58.0 -8.5 57.5 -8.65 56.45 -8.6 55.3 -8.4 54.05 -8.05 52.85 -7.45 51.6 -7.1 51.0 M-10.85 56.35 Q-13.15 59.9 -16.65 60.75 L-13.4 60.75 Q-11.35 60.6 -10.0 58.9 -10.65 57.85 -10.85 56.35 M-5.5 52.8 L-5.2 57.4 Q-6.3 58.7 -6.9 60.0 -5.5 59.1 -4.5 57.6 -3.75 54.9 -5.5 52.8" fill="#606060" fill-rule="evenodd" stroke="none"/>
    <path d="M-18.6 66.0 L-17.95 65.4 -18.4 66.2 -18.75 66.55 -18.6 66.0 M-16.35 64.0 L-15.9 63.8 Q-13.25 64.3 -14.8 66.65 L-15.2 67.25 -15.2 67.85 Q-15.25 68.5 -15.45 69.15 L-15.55 69.4 -16.25 70.8 -16.55 71.2 -16.75 70.95 -16.65 70.75 -16.55 70.55 -16.5 70.5 -16.5 70.45 -15.9 69.05 -16.9 68.8 -16.6 68.1 -15.35 65.95 -15.55 65.35 -16.05 64.15 -16.35 64.0 M-16.2 71.6 L-15.6 71.0 -14.7 69.7 -14.5 69.3 -14.0 67.75 Q-13.8 66.65 -13.85 65.55 L-13.95 64.35 -13.05 64.65 Q-12.2 65.05 -11.85 66.0 L-11.65 67.05 -11.3 68.55 Q-11.9 70.2 -13.15 71.25 L-13.15 71.0 -13.25 71.15 -13.6 71.6 -14.25 71.95 -15.9 71.85 -16.2 71.6 M-10.9 67.8 L-10.85 67.7 -10.8 66.75 -10.8 66.6 -10.8 66.55 -10.85 65.75 -10.85 65.7 -10.6 65.25 -10.75 64.7 -10.6 64.4 -10.15 64.3 -9.6 64.5 -9.2 64.65 Q-8.35 66.25 -9.2 67.75 L-9.7 68.25 -9.85 68.2 -10.9 67.8 M-8.55 64.8 L-8.35 65.05 Q-7.45 66.2 -7.15 67.7 L-6.9 69.1 -7.95 67.45 Q-8.5 66.7 -8.65 65.75 L-8.7 64.65 -8.55 64.8 M-6.9 69.15 L-6.8 68.75 -6.55 67.45 Q-6.5 65.95 -7.4 64.85 L-6.5 64.85 Q-6.15 64.95 -5.85 65.25 -5.25 65.95 -4.9 66.9 L-4.6 68.0 Q-4.35 69.1 -4.8 70.15 L-4.55 70.35 -4.3 70.35 -4.0 69.85 Q-3.45 68.7 -3.5 67.5 L-3.8 66.35 -5.5 62.95 -5.4 62.9 -5.05 62.85 -3.2 63.0 -2.4 63.85 -2.45 64.3 Q-2.5 65.1 -1.9 65.75 L-1.8 65.8 -1.25 66.5 -1.15 66.9 -1.1 66.75 -0.7 67.75 -0.15 71.5 -0.2 75.5 -2.95 73.1 -4.5 72.2 -5.45 72.05 Q-6.1 70.55 -6.9 69.15 M-5.15 72.95 Q-5.1 72.95 -5.0 73.05 L-5.05 73.1 -5.15 72.95 M2.7 82.1 L2.8 82.3 2.85 82.4 2.9 82.5 3.9 84.8 4.5 86.6 4.8 87.9 Q4.95 88.85 5.45 89.6 L5.95 90.6 Q6.25 91.25 6.9 91.65 L7.0 91.7 8.25 91.85 7.8 92.7 7.4 93.25 6.4 93.7 5.4 93.65 3.5 92.85 1.7 91.55 2.3 92.9 Q2.85 93.9 3.55 94.7 L4.65 95.7 Q5.45 96.25 6.35 96.55 7.3 96.8 7.6 97.7 7.9 98.7 7.55 99.8 L6.05 99.6 6.4 100.4 7.0 101.3 7.4 102.3 Q7.45 102.9 7.05 103.4 L4.8 101.2 Q3.85 100.0 3.25 98.6 L2.95 98.6 3.2 100.05 Q3.5 101.05 4.2 101.8 L4.95 102.65 Q6.2 104.0 6.85 105.6 L6.65 107.45 Q6.5 108.7 7.1 109.75 L7.15 109.9 Q7.75 110.95 8.75 111.65 L8.3 111.8 6.05 111.5 Q5.35 111.2 4.8 110.75 L4.8 110.7 4.75 110.7 4.35 110.4 2.8 109.0 2.75 108.95 2.7 109.0 2.7 109.05 2.6 109.6 Q2.6 110.2 3.0 110.75 L3.15 110.95 4.45 112.35 Q5.25 113.05 6.35 113.25 L5.05 113.05 3.75 112.75 Q2.35 112.25 1.2 111.35 L1.0 111.85 Q0.8 112.35 1.1 112.75 L1.85 113.65 2.9 114.35 4.65 114.55 Q5.5 114.4 6.2 114.8 6.9 115.15 7.05 115.95 L6.6 116.0 Q6.1 116.05 5.8 116.4 L5.75 116.4 3.8 116.45 3.5 116.45 0.5 114.95 0.6 115.3 0.9 115.85 1.05 116.1 1.05 116.15 1.35 116.5 1.6 116.7 1.75 116.85 1.7 117.5 Q-0.05 118.45 -1.9 118.55 L-2.0 118.15 -2.25 118.0 -2.7 117.7 Q-3.05 117.0 -3.85 116.75 L-5.5 115.6 Q-6.75 114.05 -7.4 112.2 -7.75 110.35 -7.35 108.3 L-7.75 108.05 -7.65 107.8 -7.6 107.65 -7.55 107.55 Q-7.55 107.3 -7.7 107.15 L-8.0 106.8 -8.55 106.75 -8.65 106.8 -9.0 107.15 -10.25 108.9 -9.7 106.85 Q-11.5 109.1 -10.9 112.05 L-10.7 112.05 -10.55 112.85 -10.55 113.0 -10.5 113.1 -10.5 113.15 -10.75 113.55 -11.5 113.05 -11.55 113.0 -13.45 112.7 -14.0 112.85 -14.5 112.75 -14.7 112.75 -15.5 112.6 -15.85 112.65 -14.7 111.85 -14.65 111.85 -14.7 111.85 -16.1 112.05 -16.4 111.9 -16.35 112.15 -17.2 113.0 -17.25 113.05 -17.55 113.6 -17.65 113.8 -18.05 115.4 -18.05 115.5 -18.05 115.6 -18.05 115.65 -18.05 115.85 -18.05 115.95 Q-17.85 117.15 -17.25 118.1 L-16.9 118.55 -17.1 118.6 -16.5 119.9 -17.3 120.0 -18.95 118.1 -19.05 118.45 Q-19.15 118.95 -18.75 119.3 L-18.25 119.8 -18.9 119.55 -18.8 119.3 -19.6 118.5 -20.05 115.85 Q-20.15 113.65 -20.9 111.75 L-20.9 111.1 Q-21.2 109.7 -22.15 108.5 L-21.55 107.85 -20.8 107.75 -20.8 107.7 Q-20.05 107.7 -19.55 108.25 L-19.4 108.45 -17.75 109.4 -17.0 108.5 Q-16.55 108.15 -16.05 108.15 L-14.3 108.25 -14.1 106.0 -14.15 104.9 Q-15.55 103.85 -16.4 102.6 L-16.45 102.15 -16.5 97.85 Q-16.75 96.05 -16.6 94.3 L-16.55 93.55 -16.6 91.85 -16.55 91.45 -16.4 90.7 -16.3 90.0 -16.2 89.6 -16.05 88.75 -16.9 91.0 -16.7 89.5 -16.1 87.5 -16.05 87.35 Q-14.85 88.9 -16.1 91.05 L-16.2 91.45 -16.3 91.85 Q-15.35 92.05 -15.05 92.65 L-15.0 93.55 -15.2 94.15 -15.3 94.3 -15.25 94.3 -15.35 94.45 -15.4 94.55 -15.65 95.05 -15.85 94.25 -15.8 94.85 -15.5 97.0 -15.5 96.95 -15.25 97.0 -14.7 99.3 -14.65 99.5 -14.6 99.25 -14.35 98.0 -14.0 98.85 -13.8 99.55 -12.55 100.25 -12.45 97.4 Q-13.25 95.2 -13.1 92.95 L-11.7 91.3 Q-10.95 90.0 -11.0 88.55 L-11.05 88.25 -11.15 88.55 -11.25 88.9 -11.55 89.6 -12.75 91.85 -12.75 91.7 -12.8 91.1 -12.8 91.05 -12.1 88.95 Q-11.9 88.4 -11.35 88.15 L-11.1 88.1 -10.6 88.0 -10.85 87.25 -11.05 86.7 -13.5 82.4 Q-14.3 81.15 -15.35 80.2 L-15.5 79.9 -16.0 79.0 -16.05 78.9 -16.15 78.85 -16.3 78.75 -16.55 78.1 -16.6 77.5 -16.6 77.15 Q-16.4 76.5 -15.75 76.2 L-15.3 75.95 -12.5 76.65 -12.3 76.8 Q-9.9 78.2 -8.5 80.65 L-9.15 80.4 -9.15 80.45 Q-9.4 80.4 -9.45 80.65 L-9.55 80.9 -8.25 82.2 -8.2 82.3 -8.2 82.35 -8.15 82.4 -7.35 83.6 -7.25 83.8 -7.2 83.85 Q-6.9 84.9 -6.75 86.0 L-6.8 85.9 -7.8 84.1 -8.4 83.2 -9.1 82.4 -9.3 82.2 Q-10.3 81.3 -11.65 80.75 L-11.8 80.7 -11.65 80.8 -10.35 82.2 -10.15 82.4 -9.3 83.5 -9.0 83.9 -9.0 83.95 -7.75 85.8 -7.3 86.65 -6.8 87.7 Q-5.55 90.45 -5.05 93.55 L-5.05 90.2 -4.75 91.05 -4.45 91.15 -4.1 91.0 -4.0 90.9 Q-3.6 92.2 -3.35 93.55 -3.35 91.75 -3.8 90.45 L-3.75 90.25 -3.7 90.05 Q-3.45 87.8 -4.15 85.6 L-4.35 85.05 Q-4.9 83.55 -5.85 82.5 L-5.9 82.4 -6.8 81.6 -6.95 81.5 -6.9 81.65 -6.75 82.0 -6.6 82.4 -6.1 84.2 -6.1 84.3 Q-6.4 83.4 -6.85 82.55 L-6.9 82.4 -7.55 81.25 -7.65 81.15 -7.9 80.75 Q-9.3 78.9 -9.3 76.8 L-8.85 76.0 -8.15 75.5 Q-5.15 75.9 -3.2 78.55 -2.3 79.8 -1.8 81.1 L-1.7 80.8 Q-1.25 80.0 -0.35 80.05 1.3 80.85 2.7 82.1 M-1.95 72.0 Q-1.85 71.75 -1.9 71.5 L-1.95 71.5 -1.95 72.0 M-9.85 68.25 Q-8.55 69.35 -7.9 71.05 L-9.3 69.75 -9.7 69.3 -9.85 69.0 -9.85 68.25 M-5.85 87.55 L-6.5 86.4 -6.6 86.25 -6.15 86.6 -5.85 87.55 M-1.35 82.7 L-1.35 82.65 -1.4 82.4 -1.3 83.4 Q-1.2 85.8 0.45 87.65 L1.6 88.95 1.4 88.15 Q-0.4 85.6 -1.35 82.7 M-4.8 75.5 L-0.2 79.5 Q-2.45 78.4 -4.8 75.5 M-26.0 73.5 Q-29.45 77.25 -30.6 82.4 L-31.0 84.65 -31.1 83.0 -31.0 82.4 -30.7 81.35 Q-30.1 79.8 -30.1 78.3 -28.55 75.7 -26.0 73.5 M-28.05 79.4 L-27.9 79.15 -26.3 77.75 -26.2 77.7 -26.15 77.65 -25.5 77.4 -28.35 80.25 -28.6 80.5 -28.05 79.4 M-23.75 82.55 L-23.8 83.6 -24.05 82.4 -24.15 81.65 -24.2 81.25 Q-24.45 77.3 -21.7 74.0 -23.4 77.65 -23.75 82.4 L-23.75 82.55 M-25.5 83.1 Q-24.8 84.75 -24.5 87.0 -24.9 90.45 -27.4 93.0 -25.95 90.6 -25.55 87.6 L-25.5 87.5 -25.5 87.4 -25.4 86.5 -25.4 85.95 -25.4 85.65 -25.5 83.1 M-23.3 85.85 Q-22.35 88.95 -24.5 92.05 L-23.3 85.85 M-30.1 104.6 Q-27.85 102.0 -28.6 98.4 L-29.1 97.4 Q-28.05 97.25 -27.4 98.4 -26.95 101.65 -29.3 103.9 L-30.1 104.6 M-3.5 101.35 L-3.65 101.05 -4.4 99.55 -4.55 99.25 -4.6 98.35 Q-6.35 95.0 -8.45 92.05 L-8.55 92.4 -9.0 94.15 Q-8.4 94.85 -8.2 95.65 L-8.3 96.7 -8.25 97.5 -8.25 97.75 -8.2 98.15 -8.05 98.9 -8.05 99.1 -8.05 99.25 -8.05 99.3 -7.65 100.35 -7.6 100.3 -6.45 102.1 -6.4 102.15 -4.45 104.15 -3.05 105.4 -2.8 105.6 -3.95 105.5 Q-4.95 105.15 -5.7 104.1 L-6.0 103.8 -6.4 103.35 -6.1 103.85 -4.0 106.45 -2.5 107.6 -3.1 108.45 -3.3 109.3 Q-3.9 112.8 -1.6 115.25 -3.15 112.55 -2.95 110.0 -2.85 108.8 -2.4 107.7 L-1.75 108.0 0.8 108.45 0.95 108.3 1.2 108.15 1.3 108.0 1.35 107.85 Q1.65 106.95 0.8 106.5 L0.6 106.25 -0.95 104.75 -1.4 103.95 -1.95 102.7 -1.85 102.95 -1.95 102.9 -3.05 102.1 -3.1 102.0 -3.5 101.35 M-0.05 109.2 L-0.1 109.25 Q-1.75 111.7 -0.25 114.2 -0.5 112.65 -0.1 110.6 L0.25 109.4 Q0.45 108.85 0.8 108.45 L-0.05 109.2 M-2.3 100.65 L-2.2 100.75 Q-1.4 101.3 -0.4 101.7 L-2.25 99.65 -5.0 95.5 Q-4.7 98.85 -2.3 100.65 M-7.65 103.9 L-9.4 100.95 Q-11.65 96.2 -10.6 90.85 -12.05 96.7 -9.5 101.3 L-7.65 103.9 M-18.1 110.45 L-18.25 110.55 -18.25 110.6 -18.1 110.45" fill="#0b3d66" fill-rule="evenodd" stroke="none"/>
    <path d="M-25.8 61.4 L-25.2 60.35 -23.8 62.45 -24.3 62.75 -24.5 62.9 -24.6 62.95 -25.45 63.5 Q-25.85 62.85 -25.85 62.05 L-25.65 61.85 -25.5 61.75 -25.8 61.4 M-16.55 71.2 L-17.05 71.85 -16.85 72.1 -16.2 71.6 -15.9 71.85 -14.25 71.95 -13.6 71.6 -15.5 73.3 Q-16.7 74.15 -18.1 74.1 L-18.25 73.9 -18.4 73.8 Q-18.1 72.3 -16.9 71.1 L-16.75 70.95 -16.55 71.2 M-10.6 64.4 L-10.55 64.35 -10.25 64.1 -10.15 64.3 -10.6 64.4 M4.8 110.75 L4.75 110.7 4.8 110.7 4.8 110.75 M-30.95 113.45 L-31.75 114.05 -31.3 112.35 -30.8 111.0 -30.75 111.0 Q-31.15 111.55 -30.95 112.3 L-30.9 113.35 -30.95 113.45 M-32.2 105.6 L-31.9 105.1 -31.75 104.5 -31.6 103.8 -31.35 102.6 -31.05 102.0 -30.95 102.05 -30.95 102.2 -31.2 102.65 Q-31.0 104.1 -31.6 105.3 L-31.9 105.7 -32.2 105.6 M-30.9 93.15 L-30.95 93.15 -30.8 92.75 -30.75 92.4 -30.7 92.25 -30.3 90.35 -29.8 89.75 -28.15 87.8 -27.65 87.15 -27.35 86.45 -27.3 85.65 -27.35 85.1 -27.4 84.85 -28.0 85.55 -30.1 87.7 -30.9 88.3 -31.75 88.7 -32.7 89.0 -33.75 88.95 -32.8 87.6 -32.05 86.15 -31.9 85.7 -30.8 84.85 Q-30.3 83.55 -29.5 82.4 L-28.85 81.55 -28.5 81.05 -28.35 80.25 -25.5 77.4 -26.15 77.65 -26.2 77.7 -26.3 77.75 -27.9 79.15 -28.05 79.4 -27.95 79.1 Q-26.8 76.0 -23.75 74.1 L-23.2 73.9 Q-22.7 74.0 -22.3 74.2 L-21.35 73.2 -21.2 73.15 -20.8 73.1 Q-18.95 73.8 -19.85 75.75 -20.95 78.05 -20.95 80.6 L-20.85 81.65 -20.85 82.4 Q-20.95 83.05 -21.45 83.55 -23.0 83.55 -23.75 82.55 L-23.75 82.4 Q-23.4 77.65 -21.7 74.0 -24.45 77.3 -24.2 81.25 L-24.15 81.65 -24.25 81.3 -24.25 81.25 -24.45 79.75 Q-25.15 81.0 -25.45 82.4 L-25.6 83.05 -25.7 83.75 -26.0 84.65 -26.0 84.7 Q-25.55 85.1 -25.4 85.65 L-25.4 85.95 -25.4 86.5 -25.5 87.4 -25.5 87.5 -25.55 87.6 Q-26.85 90.75 -29.55 92.8 L-30.9 93.15 M-12.25 76.75 L-12.3 76.8 -12.5 76.65 -12.25 76.75 M-6.75 86.0 Q-6.9 84.9 -7.2 83.85 -6.55 85.0 -6.2 86.3 L-6.15 86.6 -6.6 86.25 -6.5 86.4 -6.75 86.0 M-5.05 88.45 L-5.25 88.75 -5.35 88.6 -5.05 88.45 M-6.8 81.6 L-6.9 81.65 -6.95 81.5 -6.8 81.6 M-26.85 106.85 L-26.9 106.9 -26.9 106.95 -26.95 106.85 -26.9 106.85 -26.85 106.85 M-17.7 96.85 L-17.35 99.65 -16.55 102.4 -16.5 102.55 -16.55 102.4 -17.35 99.65 -17.7 96.85 M-3.05 102.1 L-1.95 102.9 -1.85 102.95 -1.95 102.7 -1.4 103.95 -0.95 104.75 -3.05 102.1 M1.7 117.5 L1.75 116.85 2.25 117.15 1.7 117.5 M-9.75 114.35 L-9.75 114.4 -9.85 114.45 -9.85 114.4 -10.0 114.3 -9.95 114.3 -9.75 114.35 M-10.25 114.0 L-10.75 113.55 -10.5 113.15 -10.25 114.0 M-16.1 112.05 L-16.35 112.15 -16.4 111.9 -16.1 112.05" fill="#0e5085" fill-rule="evenodd" stroke="none"/>
    <path d="M5.75 116.5 L5.65 116.65 6.0 116.85 6.5 117.3 6.7 117.6 Q7.0 118.15 6.9 118.8 L6.85 119.0 6.85 119.1 -0.2 122.2 -1.0 121.2 -1.15 121.05 -1.2 120.95 -1.15 121.0 -1.45 120.65 -1.55 120.5 -1.6 120.5 -1.6 120.55 -1.6 120.6 -1.75 121.05 -1.8 121.2 -2.4 122.45 -3.2 123.5 -4.2 124.35 -5.35 125.1 -6.55 125.85 -7.7 126.55 -8.8 127.3 -10.25 128.2 -12.05 129.15 -13.9 130.0 -15.75 130.9 -17.35 131.6 -18.0 131.8 -19.4 132.2 -19.55 132.2 -19.75 132.25 -19.85 132.3 -20.35 132.5 -20.35 132.45 -20.25 132.35 -20.15 132.35 -19.35 131.6 -18.45 130.6 -18.3 130.25 -18.3 130.2 -18.25 130.2 -18.2 130.15 -14.85 129.05 Q-12.0 127.95 -9.3 126.6 L-8.75 126.15 Q-7.05 124.55 -6.0 122.55 L-5.9 122.25 Q-5.95 119.75 -7.35 117.7 L-7.15 117.85 -5.8 118.9 -5.5 119.1 Q-3.8 119.9 -1.9 119.55 L-0.45 119.15 1.9 118.0 3.95 116.65 3.75 116.55 3.8 116.45 5.75 116.4 5.75 116.5 M7.25 120.8 L7.45 121.3 7.5 122.2 Q7.4 122.7 6.95 122.7 L6.75 122.55 6.0 122.1 5.85 122.0 5.65 121.3 5.85 121.2 5.9 121.2 6.05 121.1 6.65 120.9 7.25 120.8 M4.85 122.5 L3.8 124.45 3.45 124.6 2.6 123.6 2.6 123.55 2.5 123.25 2.4 122.35 2.45 122.2 4.0 121.75 4.35 121.8 5.15 122.0 4.85 122.5 M1.15 124.3 L1.1 124.3 0.65 124.7 -0.55 125.9 -0.9 126.35 -0.95 126.15 -1.6 123.4 1.0 122.8 1.25 122.75 1.4 122.75 1.5 122.7 1.7 122.7 1.55 123.6 1.15 124.3 M-3.2 127.7 L-3.2 127.75 -3.75 128.2 -5.25 128.05 -5.3 127.9 -5.4 127.4 Q-5.6 126.45 -4.85 125.85 L-3.25 124.5 -2.85 124.1 -2.8 124.2 -2.75 124.25 -2.65 124.45 -2.45 125.2 -2.4 125.35 -2.65 126.65 -2.7 126.8 -3.1 127.55 -3.2 127.7 M-6.0 128.5 L-6.45 129.4 Q-7.3 130.5 -7.65 131.85 L-8.4 131.3 -8.65 131.05 -8.75 130.95 -8.8 130.75 -8.85 130.7 -8.85 129.95 -8.55 129.0 -7.9 128.05 Q-7.15 127.1 -6.05 126.5 L-6.05 126.65 Q-5.85 127.35 -5.9 128.1 L-5.9 128.15 -6.0 128.5 M-10.25 131.4 L-10.75 132.3 -11.7 133.65 -12.25 134.25 -13.25 134.55 -13.35 134.25 -13.5 133.95 -13.7 133.65 -13.95 133.35 -13.9 133.3 -13.55 132.55 -12.6 131.2 -12.25 130.75 -11.45 130.05 -10.1 129.15 -9.3 128.7 -9.35 128.75 -9.4 128.95 -9.35 128.95 -9.5 129.5 -10.05 130.95 -10.1 131.05 -10.25 131.4 M-14.65 133.25 L-14.8 133.4 -15.1 133.7 -15.45 134.0 -18.05 136.15 -19.45 136.3 -20.75 136.35 -20.75 136.15 -20.85 133.7 -20.65 133.65 -20.3 133.65 -19.75 133.55 -19.2 133.45 -18.65 133.3 -18.1 133.15 -17.55 133.0 -17.05 132.85 -17.0 132.85 -17.0 132.8 -16.8 132.75 -16.5 132.65 -16.0 132.4 Q-14.9 131.95 -13.95 131.35 L-13.95 131.65 -14.0 131.7 -14.05 132.1 -14.2 132.45 -14.35 132.75 -14.55 133.1 -14.6 133.15 -14.7 133.25 -14.65 133.25 M-36.6 127.5 L-36.55 127.25 -36.55 127.55 -36.6 127.5 M-14.0 112.85 L-14.8 113.25 -14.85 113.25 Q-13.1 112.85 -11.8 113.65 L-9.15 114.95 -8.45 116.25 -10.7 115.0 Q-11.55 114.5 -12.45 114.35 -14.5 114.0 -15.6 115.55 L-15.85 116.45 -15.9 116.6 -16.0 116.6 -16.05 116.75 -16.05 116.8 Q-16.1 117.35 -16.45 117.85 L-16.55 118.05 -16.65 118.1 Q-17.3 116.45 -16.95 114.45 L-16.85 114.35 -16.9 114.3 -16.9 114.15 -16.85 114.05 -16.65 113.65 -16.6 113.6 -16.5 113.4 -15.85 112.65 -15.5 112.6 -14.7 112.75 -14.5 112.75 -14.0 112.85" fill="#515151" fill-rule="evenodd" stroke="none"/>
    <path d="M-28.2 67.25 L-26.65 65.65 -24.95 64.2 -24.6 63.95 Q-23.55 63.1 -22.35 62.45 -22.6 62.3 -22.8 62.3 L-23.3 62.25 -22.35 61.8 -22.25 61.8 -22.05 61.8 -21.85 61.8 -21.65 62.0 -20.9 62.25 -20.95 62.9 -20.9 63.05 -20.9 63.15 -20.9 63.2 -20.9 63.25 -20.85 63.35 -20.3 64.0 -19.6 64.25 -18.9 64.55 Q-18.3 64.95 -18.5 65.65 L-18.6 66.0 -18.75 66.55 -18.4 66.2 -17.95 65.4 -17.95 65.25 -17.85 64.6 -17.65 64.1 Q-17.55 63.9 -17.3 63.95 L-16.35 64.0 -16.05 64.15 -15.55 65.35 -15.35 65.95 -16.6 68.1 -16.9 68.8 -18.05 68.45 -18.2 68.4 -19.1 69.0 Q-20.65 70.1 -21.55 71.85 -22.0 72.7 -22.9 72.2 -24.05 71.6 -23.9 70.3 -23.65 67.9 -22.3 66.4 L-23.45 65.6 Q-25.75 66.55 -27.15 68.45 L-27.8 68.45 -28.0 68.25 -28.25 68.0 -28.2 67.25 M-11.3 68.55 L-11.2 68.65 -10.9 67.8 -9.85 68.2 -9.7 68.25 -9.2 67.75 Q-8.35 66.25 -9.2 64.65 L-9.6 64.5 -10.15 64.3 -10.25 64.1 -9.3 63.85 -8.55 64.8 -8.7 64.65 -8.65 65.75 Q-8.5 66.7 -7.95 67.45 L-6.9 69.1 -6.9 69.2 -6.9 69.15 Q-6.1 70.55 -5.45 72.05 L-6.2 72.1 -5.65 72.5 -5.15 72.95 -5.05 73.1 -5.0 73.05 -4.0 73.85 -2.45 75.25 -1.55 76.2 -1.2 76.6 -0.65 77.2 0.15 78.2 0.9 79.25 2.7 82.1 Q1.3 80.85 -0.35 80.05 -1.25 80.0 -1.7 80.8 L-1.8 81.1 Q-2.3 79.8 -3.2 78.55 -5.15 75.9 -8.15 75.5 L-8.85 76.0 -9.3 76.8 Q-9.3 78.9 -7.9 80.75 L-7.65 81.15 -7.55 81.25 -6.9 82.4 -6.85 82.55 Q-6.4 83.4 -6.1 84.3 L-6.05 84.5 -7.15 83.85 -7.25 83.8 -7.35 83.6 -8.15 82.4 -8.2 82.35 -8.2 82.3 -8.25 82.2 -9.55 80.9 -9.45 80.65 Q-9.4 80.4 -9.15 80.45 L-9.15 80.4 -8.5 80.65 Q-9.9 78.2 -12.3 76.8 L-12.25 76.75 -12.2 76.75 -12.2 76.6 Q-12.45 74.45 -12.95 72.3 L-13.15 71.25 Q-11.9 70.2 -11.3 68.55 M-30.8 111.0 L-30.7 110.8 -29.8 109.35 -28.6 108.05 -28.9 107.75 -30.05 108.6 -31.05 109.55 -31.95 110.65 -32.7 111.85 -33.15 111.15 -33.5 110.4 -33.65 109.7 -33.7 109.65 -33.7 109.45 -33.7 109.25 -33.7 109.2 -33.65 109.05 -33.1 108.25 Q-33.25 107.6 -32.7 106.95 L-31.25 105.75 Q-26.85 103.2 -25.65 98.35 -25.3 96.95 -25.45 95.55 -25.65 93.5 -24.35 92.25 L-24.15 92.1 Q-21.8 92.05 -21.85 94.5 L-21.9 97.95 Q-22.0 100.8 -23.55 103.05 L-26.85 106.85 -26.9 106.85 -26.85 106.75 Q-24.75 104.7 -25.0 102.4 -25.65 104.5 -26.7 106.1 L-27.3 106.85 -26.95 106.85 -26.9 106.95 Q-27.25 107.65 -28.1 108.25 -29.7 109.4 -30.75 111.0 L-30.8 111.0 M-31.05 102.0 L-30.8 101.5 -31.3 99.1 -31.95 100.55 -32.65 101.95 -33.5 103.4 -33.75 103.8 -33.8 103.1 Q-33.55 99.1 -29.85 97.45 L-29.4 97.5 -29.25 97.7 -29.1 97.8 Q-28.9 100.05 -30.65 101.75 L-30.95 102.05 -31.05 102.0 M-9.85 68.25 L-9.85 69.0 -9.7 69.3 -9.3 69.75 -7.9 71.05 Q-8.55 69.35 -9.85 68.25 M-15.35 80.2 Q-14.3 81.15 -13.5 82.4 L-11.05 86.7 -10.85 87.25 -10.6 88.0 -11.1 88.1 -11.35 88.15 Q-11.9 88.4 -12.1 88.95 L-12.8 91.05 -12.95 90.2 -13.65 87.05 Q-13.85 90.45 -13.5 92.95 L-13.45 93.25 -13.1 92.95 Q-13.25 95.2 -12.45 97.4 L-12.55 100.25 -13.8 99.55 -14.0 98.85 -14.35 98.0 -14.2 97.1 -14.35 84.65 Q-14.35 83.5 -14.6 82.4 -14.85 81.25 -15.35 80.2 M-16.05 87.35 L-16.1 87.5 -16.7 89.5 -16.9 91.0 -16.05 88.75 -16.2 89.6 -16.3 90.0 -16.4 90.7 -16.55 91.45 -16.6 91.85 -16.55 93.55 -16.6 94.3 Q-16.75 96.05 -16.5 97.85 L-16.45 102.15 -16.4 102.6 Q-15.55 103.85 -14.15 104.9 L-14.1 106.0 -14.3 108.25 -16.05 108.15 Q-16.55 108.15 -17.0 108.5 L-17.75 109.4 -19.4 108.45 -19.55 108.25 Q-20.05 107.7 -20.8 107.7 L-20.8 107.75 -21.55 107.85 -22.15 108.5 -22.3 108.35 Q-22.85 107.65 -23.45 107.65 -23.85 106.75 -22.95 106.15 L-22.9 106.15 -22.15 105.2 Q-21.9 104.95 -21.6 104.95 -20.7 104.95 -19.9 105.3 -20.9 101.95 -20.35 98.7 L-20.25 99.2 -20.45 97.75 Q-21.35 92.1 -17.95 87.6 L-17.2 87.05 -16.3 87.05 -16.05 87.35 M-11.65 80.75 Q-10.3 81.3 -9.3 82.2 L-9.1 82.4 -8.4 83.2 -7.8 84.1 -6.8 85.9 -6.75 86.0 -6.5 86.4 -5.85 87.55 -5.35 88.6 -5.25 88.75 -5.05 88.45 -5.05 90.2 -5.05 93.55 Q-5.55 90.45 -6.8 87.7 L-7.3 86.65 -7.75 85.8 -9.0 83.95 -9.0 83.9 -9.3 83.5 -10.15 82.4 -10.35 82.2 -11.65 80.8 -11.65 80.75 M-3.8 90.45 Q-3.35 91.75 -3.35 93.55 -3.6 92.2 -4.0 90.9 L-4.05 90.75 -5.05 88.45 Q-4.3 89.2 -3.85 90.35 L-3.8 90.45 M-4.8 75.5 Q-2.45 78.4 -0.2 79.5 L-4.8 75.5 M-23.85 65.3 L-21.7 64.35 Q-23.0 64.4 -24.1 65.1 -25.15 65.65 -26.0 66.75 -25.0 65.9 -23.85 65.3 M-17.7 96.85 L-17.35 99.65 -16.55 102.4 -16.5 102.55 -16.55 102.4 -17.35 99.65 -17.7 96.85 M-16.4 102.6 L-16.45 102.65 -16.35 102.9 -16.4 102.6 M-8.2 98.15 L-8.25 97.75 -8.25 97.5 -8.3 96.7 -8.2 95.65 Q-8.4 94.85 -9.0 94.15 L-8.55 92.4 -8.45 92.05 Q-6.35 95.0 -4.6 98.35 L-4.55 99.25 -4.4 99.55 -3.65 101.05 -3.5 101.35 -4.1 101.15 -4.9 100.35 -5.8 99.2 Q-6.4 98.45 -7.4 98.35 L-7.95 98.2 -7.95 97.45 -8.05 98.2 -8.2 98.15 M-10.25 108.9 L-9.0 107.15 -8.65 106.8 -8.55 106.75 -8.0 106.8 -7.7 107.15 Q-7.55 107.3 -7.55 107.55 L-7.6 107.65 -7.65 107.8 -7.75 108.05 -7.35 108.3 Q-7.75 110.35 -7.4 112.2 L-7.85 110.85 -9.65 110.7 -10.4 110.85 -10.25 108.9" fill="#0e508f" fill-rule="evenodd" stroke="none"/>
    <path d="M-25.45 63.5 L-25.95 63.85 -28.05 65.55 Q-29.0 66.4 -29.6 67.55 -30.15 68.6 -30.1 69.85 L-29.7 69.3 -28.5 67.6 -28.2 67.25 -28.25 68.0 -28.0 68.25 -27.8 68.45 -27.15 68.45 Q-25.75 66.55 -23.45 65.6 L-22.3 66.4 Q-23.65 67.9 -23.9 70.3 -24.05 71.6 -22.9 72.2 -22.0 72.7 -21.55 71.85 -20.65 70.1 -19.1 69.0 L-18.2 68.4 -18.05 68.45 -16.9 68.8 -15.9 69.05 -16.5 70.45 -16.5 70.5 -16.55 70.55 -16.65 70.75 -16.75 70.95 -16.9 71.1 Q-18.1 72.3 -18.4 73.8 L-18.25 73.9 -18.1 74.1 Q-16.7 74.15 -15.5 73.3 L-13.6 71.6 -13.25 71.15 -13.15 71.25 -12.95 72.3 Q-12.45 74.45 -12.2 76.6 L-12.25 76.75 -12.5 76.65 -15.3 75.95 -15.75 76.2 Q-16.4 76.5 -16.6 77.15 L-16.6 77.5 -16.55 78.1 -16.3 78.75 -16.15 78.85 -16.05 78.9 -16.0 79.0 -15.5 79.9 -15.35 80.2 Q-14.85 81.25 -14.6 82.4 -14.35 83.5 -14.35 84.65 L-14.2 97.1 -14.35 98.0 -14.6 99.25 -14.7 99.3 -15.25 97.0 -15.65 95.05 -15.4 94.55 -15.35 94.45 -15.25 94.3 -15.3 94.3 -15.2 94.15 -15.0 93.55 -15.05 92.65 Q-15.35 92.05 -16.3 91.85 L-16.2 91.45 -16.1 91.05 Q-14.85 88.9 -16.05 87.35 L-16.3 87.05 -17.2 87.05 -17.95 87.6 Q-21.35 92.1 -20.45 97.75 L-20.25 99.2 -20.35 98.7 Q-20.9 101.95 -19.9 105.3 -20.7 104.95 -21.6 104.95 -21.9 104.95 -22.15 105.2 L-22.9 106.15 -22.95 106.15 Q-23.85 106.75 -23.45 107.65 L-24.5 108.2 -22.5 109.7 Q-20.95 111.4 -20.9 114.2 L-20.9 111.75 Q-20.15 113.65 -20.05 115.85 L-19.6 118.5 -18.8 119.3 -18.9 119.55 -20.35 118.65 -21.6 117.55 -22.15 116.9 -22.6 116.1 -23.0 115.25 -23.5 113.8 Q-23.8 112.85 -24.4 112.1 L-25.4 111.25 -26.2 110.95 -27.1 110.7 -28.15 110.7 -29.3 110.85 -27.4 112.05 -28.65 112.3 Q-29.25 112.45 -29.75 112.75 L-30.8 113.3 -30.9 113.35 -30.95 112.3 Q-31.15 111.55 -30.75 111.0 -29.7 109.4 -28.1 108.25 -27.25 107.65 -26.9 106.95 L-26.9 106.9 -26.85 106.85 -23.55 103.05 Q-22.0 100.8 -21.9 97.95 L-21.85 94.5 Q-21.8 92.05 -24.15 92.1 L-24.35 92.25 Q-25.65 93.5 -25.45 95.55 -25.3 96.95 -25.65 98.35 -26.85 103.2 -31.25 105.75 L-32.7 106.95 Q-33.25 107.6 -33.1 108.25 L-33.65 109.05 -33.75 109.0 Q-33.75 107.8 -33.15 106.8 L-32.4 105.9 -32.2 105.6 -31.9 105.7 -31.6 105.3 Q-31.0 104.1 -31.2 102.65 L-30.95 102.2 -30.95 102.05 -30.65 101.75 Q-28.9 100.05 -29.1 97.8 L-29.25 97.7 -29.4 97.5 -29.85 97.45 Q-33.55 99.1 -33.8 103.1 L-33.75 103.8 -34.45 104.8 -34.8 102.8 Q-35.0 101.4 -34.6 100.0 -34.2 98.65 -33.3 97.45 L-32.2 95.85 -31.3 94.1 -30.9 93.15 -29.55 92.8 Q-26.85 90.75 -25.55 87.6 -25.95 90.6 -27.4 93.0 -24.9 90.45 -24.5 87.0 -24.8 84.75 -25.5 83.1 L-25.6 83.05 -25.45 82.4 Q-25.15 81.0 -24.45 79.75 L-24.25 81.25 -24.25 81.3 -24.15 81.65 -24.05 82.4 -23.8 83.6 -23.75 82.55 Q-23.0 83.55 -21.45 83.55 -20.95 83.05 -20.85 82.4 L-20.85 81.65 -20.95 80.6 Q-20.95 78.05 -19.85 75.75 -18.95 73.8 -20.8 73.1 L-21.2 73.15 -21.35 73.2 -22.3 74.2 Q-22.7 74.0 -23.2 73.9 L-23.75 74.1 Q-26.8 76.0 -27.95 79.1 L-28.05 79.4 -28.6 80.5 -28.35 80.25 -28.5 81.05 -28.85 81.55 -29.5 82.4 Q-30.3 83.55 -30.8 84.85 L-31.9 85.7 -31.6 84.65 -31.35 83.0 -31.4 82.4 -31.45 81.45 -31.35 79.4 -31.0 77.45 Q-30.5 75.55 -29.25 73.95 L-31.3 76.85 -32.9 80.0 -32.95 79.35 -33.05 77.95 -33.0 75.95 Q-32.9 74.0 -32.45 72.15 L-32.15 70.95 -31.7 69.8 -30.9 68.1 -29.95 66.5 -29.2 65.5 -27.5 63.55 -25.85 62.05 Q-25.85 62.85 -25.45 63.5 M-7.15 83.85 L-6.05 84.5 -6.0 84.6 -6.0 84.5 -6.05 84.5 -6.1 84.3 -6.1 84.2 -6.6 82.4 -6.75 82.0 -6.9 81.65 -6.8 81.6 -5.9 82.4 -5.85 82.5 Q-4.9 83.55 -4.35 85.05 L-4.15 85.6 Q-3.45 87.8 -3.7 90.05 L-3.75 90.25 -3.85 90.35 Q-4.3 89.2 -5.05 88.45 L-5.35 88.6 -5.85 87.55 -6.15 86.6 -6.2 86.3 Q-6.55 85.0 -7.2 83.85 L-7.15 83.85 M-12.8 91.05 L-12.8 91.1 -12.75 91.7 -12.75 91.85 -11.55 89.6 -11.25 88.9 -11.15 88.55 -11.0 88.55 Q-10.95 90.0 -11.7 91.3 L-13.1 92.95 -13.45 93.25 -13.5 92.95 Q-13.85 90.45 -13.65 87.05 L-12.95 90.2 -12.8 91.05 M-1.35 82.7 Q-0.4 85.6 1.4 88.15 L1.6 88.95 0.45 87.65 Q-1.2 85.8 -1.3 83.4 L-1.4 82.4 -1.35 82.65 -1.35 82.7 M-26.0 73.5 Q-28.55 75.7 -30.1 78.3 -30.1 79.8 -30.7 81.35 L-31.0 82.4 -31.1 83.0 -31.0 84.65 -30.6 82.4 Q-29.45 77.25 -26.0 73.5 M-23.3 85.85 L-24.5 92.05 Q-22.35 88.95 -23.3 85.85 M-30.1 104.6 L-29.3 103.9 Q-26.95 101.65 -27.4 98.4 -28.05 97.25 -29.1 97.4 L-28.6 98.4 Q-27.85 102.0 -30.1 104.6 M-7.95 98.2 L-7.4 98.35 Q-6.4 98.45 -5.8 99.2 L-4.9 100.35 -4.1 101.15 -3.5 101.35 -3.1 102.0 -3.05 102.1 -0.95 104.75 0.6 106.25 0.8 106.5 Q1.65 106.95 1.35 107.85 L1.3 108.0 1.2 108.15 0.95 108.3 0.8 108.45 -1.75 108.0 -2.4 107.7 Q-2.85 108.8 -2.95 110.0 -3.15 112.55 -1.6 115.25 -3.9 112.8 -3.3 109.3 L-3.1 108.45 -2.5 107.6 -4.0 106.45 -6.1 103.85 -6.0 103.8 -5.7 104.1 Q-4.95 105.15 -3.95 105.5 L-2.8 105.6 -3.05 105.4 -4.45 104.15 -6.4 102.15 -6.45 102.1 -7.6 100.3 -7.95 98.2 M-7.4 112.2 Q-6.75 114.05 -5.5 115.6 L-3.85 116.75 Q-3.05 117.0 -2.7 117.7 L-2.25 118.0 -2.0 118.15 -1.9 118.55 -4.3 118.4 -6.4 116.9 -7.95 115.2 -8.45 114.5 -9.0 113.5 -9.1 113.35 -9.15 113.25 Q-10.1 112.95 -9.8 113.55 -9.55 114.0 -9.75 114.35 L-9.95 114.3 -10.25 114.0 -10.5 113.15 -10.5 113.1 -10.55 113.0 -10.55 112.85 -10.7 112.05 -10.9 112.05 Q-11.5 109.1 -9.7 106.85 L-10.25 108.9 -10.4 110.85 -9.65 110.7 -7.85 110.85 -7.4 112.2 M-7.65 103.9 L-9.5 101.3 Q-12.05 96.7 -10.6 90.85 -11.65 96.2 -9.4 100.95 L-7.65 103.9 M-2.3 100.65 Q-4.7 98.85 -5.0 95.5 L-2.25 99.65 -0.4 101.7 Q-1.4 101.3 -2.2 100.75 L-2.3 100.65 M-0.05 109.2 L0.8 108.45 Q0.45 108.85 0.25 109.4 L-0.1 110.6 Q-0.5 112.65 -0.25 114.2 -1.75 111.7 -0.1 109.25 L-0.05 109.2" fill="#126ab1" fill-rule="evenodd" stroke="none"/>
    <path d="M-14.25 115.8 L-14.2 115.7 -14.25 115.8 M-16.9 114.3 L-16.85 114.35 -16.95 114.45 -16.9 114.3" fill="#3399cc" fill-rule="evenodd" stroke="none"/>
  </g>
</svg>
