<?xml version="1.0" encoding="UTF-8" standalone="no"?>
<svg xmlns:xlink="http://www.w3.org/1999/xlink" height="127.1px" width="41.45px" xmlns="http://www.w3.org/2000/svg">
  <g transform="matrix(1.0, 0.0, 0.0, 1.0, 8.0, 15.4)">
    <path d="M-2.6 -13.05 L-3.1 -12.65 -3.35 -12.35 -3.45 -12.25 -3.95 -11.55 -4.2 -11.1 Q-6.55 -7.45 -7.1 -2.95 -7.8 2.35 -6.85 7.65 -6.4 16.5 -3.0 24.25 0.4 32.0 5.1 39.2 L14.95 49.7 16.45 51.5 18.45 54.15 Q22.1 59.2 24.5 64.85 25.7 67.1 26.2 69.9 26.65 72.7 26.5 75.4 26.25 78.1 25.55 80.55 L25.05 81.8 Q24.2 83.4 22.5 84.55 20.3 85.35 18.45 84.3 L17.25 83.4 Q15.85 81.6 15.25 79.3 14.65 76.95 15.6 74.65 16.5 73.25 18.15 73.3 L17.45 72.45 Q16.35 72.3 15.4 73.0 13.45 75.1 13.6 78.05 13.65 81.05 14.85 83.65 L16.85 86.3 18.45 87.05 21.1 87.2 22.5 87.05 23.4 87.05 24.3 87.1 25.1 87.25 25.5 87.35 Q25.8 87.25 26.05 87.6 26.3 87.9 26.6 87.45 L27.75 89.2 28.5 91.1 Q29.05 93.15 29.2 95.15 29.4 98.15 28.15 100.9 26.9 103.65 24.8 105.85 23.4 106.85 21.7 107.45 L18.45 107.35 18.35 107.3 Q16.9 106.3 16.35 104.7 16.4 107.9 18.35 110.3 L18.45 110.35 22.7 110.45 26.45 107.75 Q30.1 104.6 30.3 99.8 L30.35 96.5 30.35 95.45 30.3 93.45 30.25 93.15 30.15 91.0 30.1 90.55 30.0 88.9 Q29.9 88.2 30.3 87.65 L30.45 87.45 30.5 87.45 30.7 88.05 30.75 88.8 30.95 88.2 31.05 87.8 Q33.0 81.05 32.35 74.15 L32.2 72.65 Q31.05 64.4 27.8 57.1 25.35 51.85 21.9 47.05 20.2 43.8 17.95 40.75 L15.4 35.9 Q7.85 17.6 6.7 -2.9 6.1 -7.4 4.45 -11.45 3.35 -13.2 1.55 -14.05 -0.8 -14.45 -2.5 -13.15 L-2.6 -13.05 M6.25 -9.8 Q7.1 -6.5 7.55 -3.05 7.8 5.8 9.7 14.35 11.55 22.9 14.25 31.0 17.3 38.6 22.15 45.4 29.7 56.35 32.7 69.2 33.8 74.85 33.3 80.6 32.75 86.3 31.0 91.5 31.4 95.65 31.15 100.1 30.85 104.5 27.75 107.7 25.95 109.65 23.8 110.85 21.6 112.05 18.85 111.55 L18.45 111.35 Q17.3 110.65 16.75 109.4 16.1 107.9 15.8 106.4 15.4 103.6 16.3 101.15 L16.55 101.15 17.2 104.3 Q17.55 105.45 18.45 106.2 L19.2 106.7 Q22.0 107.35 24.1 105.3 29.15 100.1 27.75 92.7 L27.25 90.25 Q26.95 88.9 25.85 88.2 L20.5 88.15 18.45 87.75 Q17.0 87.25 15.8 86.15 13.6 83.45 13.05 79.9 12.45 76.35 14.15 73.25 15.3 71.4 17.5 71.3 L18.45 72.55 19.4 74.2 18.45 74.25 17.85 74.15 Q17.0 74.0 16.35 74.55 15.4 76.35 15.85 78.2 16.25 80.05 17.1 81.85 L18.45 83.2 Q20.05 84.4 22.25 84.35 25.15 81.2 25.45 77.3 25.75 73.4 25.0 69.3 24.1 67.15 23.6 64.95 23.05 62.75 21.8 60.85 L18.45 55.75 15.15 51.5 Q11.75 47.35 7.8 43.65 0.5 34.65 -4.25 24.05 -8.2 11.7 -8.0 -2.2 -7.65 -9.85 -2.0 -14.8 0.0 -15.75 2.3 -15.2 5.4 -13.15 6.25 -9.8" fill="#000000" fill-rule="evenodd" stroke="none"/>
    <path d="M25.05 81.8 L25.55 80.55 Q26.25 78.1 26.5 75.4 26.65 72.7 26.2 69.9 25.7 67.1 24.5 64.85 22.1 59.2 18.45 54.15 L16.45 51.5 14.95 49.7 5.1 39.2 Q0.4 32.0 -3.0 24.25 -6.4 16.5 -6.85 7.65 -7.8 2.35 -7.1 -2.95 -6.55 -7.45 -4.2 -11.1 L-3.95 -11.55 -3.45 -12.25 -3.35 -12.35 -3.1 -12.65 -2.6 -13.05 -2.45 -13.05 -2.35 -13.05 Q-0.55 -13.1 0.6 -11.55 L0.55 -11.55 Q-2.85 -8.7 -3.65 -4.3 -4.75 1.4 -4.15 7.3 L-2.15 16.35 -1.3 19.45 -1.15 20.0 Q-0.45 27.1 3.15 33.25 4.1 34.85 5.35 34.8 L5.4 34.6 5.5 34.4 Q6.9 36.35 8.1 38.45 11.35 43.1 14.95 47.55 L17.75 50.7 Q22.55 55.75 24.8 62.4 L26.45 67.7 Q28.05 73.35 26.6 79.15 26.15 80.75 25.05 81.8" fill="#c274a3" fill-rule="evenodd" stroke="none"/>
    <path d="M-2.6 -13.05 L-2.5 -13.15 -2.45 -13.05 -2.6 -13.05 M30.35 95.45 L30.35 96.5 30.2 95.45 30.35 95.45" fill="#50788d" fill-rule="evenodd" stroke="none"/>
    <path d="M-2.5 -13.15 Q-0.8 -14.45 1.55 -14.05 3.35 -13.2 4.45 -11.45 6.1 -7.4 6.7 -2.9 7.85 17.6 15.4 35.9 L17.95 40.75 Q20.2 43.8 21.9 47.05 25.35 51.85 27.8 57.1 31.05 64.4 32.2 72.65 L32.35 74.15 Q33.0 81.05 31.05 87.8 L30.95 88.2 30.7 88.05 30.5 87.45 30.45 87.45 30.3 87.65 Q29.9 88.2 30.0 88.9 L30.1 90.55 30.15 91.0 30.25 93.15 30.3 93.45 30.35 95.45 30.2 95.45 29.4 91.05 Q28.7 87.95 27.5 85.05 27.2 84.35 27.2 83.55 27.15 82.35 27.6 81.3 L27.95 80.4 28.55 78.55 29.2 73.05 29.2 72.95 29.15 72.45 29.25 72.15 29.25 70.65 29.25 70.55 29.25 70.5 29.25 68.65 Q28.95 65.25 27.8 62.15 L26.55 57.35 Q25.4 53.75 23.15 50.7 L18.4 44.9 13.6 39.15 11.55 36.1 9.6 32.05 Q8.2 28.55 7.25 25.0 6.25 21.35 5.95 17.65 L5.8 15.75 5.15 8.35 4.5 0.85 3.6 -4.65 Q2.8 -8.35 0.65 -11.45 L0.6 -11.55 Q-0.55 -13.1 -2.35 -13.05 L-2.45 -13.05 -2.5 -13.15" fill="#52527c" fill-rule="evenodd" stroke="none"/>
    <path d="M-1.15 20.0 L-1.3 19.45 -1.2 19.45 -1.15 20.0 M0.55 -11.55 L0.6 -11.55 0.65 -11.45 0.55 -11.55" fill="#98b5c5" fill-rule="evenodd" stroke="none"/>
    <path d="M30.35 96.5 L30.3 99.8 Q30.1 104.6 26.45 107.75 L22.7 110.45 18.45 110.35 18.35 110.3 Q16.4 107.9 16.35 104.7 16.9 106.3 18.35 107.3 L18.45 107.35 21.7 107.45 Q23.4 106.85 24.8 105.85 26.9 103.65 28.15 100.9 29.4 98.15 29.2 95.15 29.05 93.15 28.5 91.1 L27.75 89.2 26.6 87.45 Q26.3 87.9 26.05 87.6 25.8 87.25 25.5 87.35 L25.1 87.25 24.3 87.1 23.4 87.05 22.5 87.05 21.1 87.2 18.45 87.05 16.85 86.3 14.85 83.65 Q13.65 81.05 13.6 78.05 13.45 75.1 15.4 73.0 16.35 72.3 17.45 72.45 L18.15 73.3 Q16.5 73.25 15.6 74.65 14.65 76.95 15.25 79.3 15.85 81.6 17.25 83.4 L18.45 84.3 Q20.3 85.35 22.5 84.55 24.2 83.4 25.05 81.8 26.15 80.75 26.6 79.15 28.05 73.35 26.45 67.7 L24.8 62.4 Q22.55 55.75 17.75 50.7 L14.95 47.55 Q11.35 43.1 8.1 38.45 6.9 36.35 5.5 34.4 L5.6 34.2 Q5.65 32.75 5.05 31.45 1.7 24.85 -0.75 17.75 L-1.05 17.7 -1.15 17.95 -1.1 18.65 -1.2 19.45 -1.3 19.45 -2.15 16.35 -4.15 7.3 Q-4.75 1.4 -3.65 -4.3 -2.85 -8.7 0.55 -11.55 L0.65 -11.45 Q2.8 -8.35 3.6 -4.65 L4.5 0.85 5.15 8.35 5.8 15.75 5.95 17.65 Q6.25 21.35 7.25 25.0 8.2 28.55 9.6 32.05 L11.55 36.1 13.6 39.15 18.4 44.9 23.15 50.7 Q25.4 53.75 26.55 57.35 L27.8 62.15 Q28.95 65.25 29.25 68.65 L29.25 70.5 29.25 70.55 29.25 70.65 29.25 72.15 29.15 72.45 29.2 72.95 29.2 73.05 28.55 78.55 27.95 80.4 27.6 81.3 Q27.15 82.35 27.2 83.55 27.2 84.35 27.5 85.05 28.7 87.95 29.4 91.05 L30.2 95.45 30.35 96.5" fill="#8282bf" fill-rule="evenodd" stroke="none"/>
    <path d="M5.5 34.4 L5.4 34.6 5.35 34.8 Q4.1 34.85 3.15 33.25 -0.45 27.1 -1.15 20.0 L-1.2 19.45 -1.1 18.65 -1.15 17.95 -1.05 17.7 -0.75 17.75 Q1.7 24.85 5.05 31.45 5.65 32.75 5.6 34.2 L5.5 34.4" fill="#ffffff" fill-rule="evenodd" stroke="none"/>
    <path d="M30.95 88.2 L30.75 88.8 30.7 88.05 30.95 88.2" fill="#c5eeff" fill-rule="evenodd" stroke="none"/>
  </g>
</svg>
