<?xml version="1.0" encoding="UTF-8" standalone="no"?>
<svg xmlns:xlink="http://www.w3.org/1999/xlink" height="125.9px" width="35.8px" xmlns="http://www.w3.org/2000/svg">
  <g transform="matrix(1.0, 0.0, 0.0, 1.0, 12.0, 15.25)">
    <path d="M2.1 -14.85 Q4.6 -14.1 6.85 -12.8 L8.35 -11.05 Q9.65 -9.6 10.35 -7.9 L11.6 -4.45 Q13.3 2.25 14.35 9.7 15.35 17.15 15.85 24.3 L16.0 30.7 Q16.05 33.75 15.35 36.9 15.3 43.5 16.75 49.7 18.2 55.85 19.15 62.15 L19.1 67.3 Q19.0 69.8 17.25 71.9 L15.2 75.95 Q14.05 77.9 11.9 79.2 L12.1 79.65 11.3 86.45 Q10.9 89.85 12.0 93.0 L12.6 94.3 Q12.95 94.8 12.25 95.5 12.95 97.6 14.65 99.3 L18.05 102.6 Q20.75 103.85 23.3 105.4 L23.75 107.45 Q24.05 108.5 23.1 109.15 L18.45 109.95 18.25 109.55 Q17.95 110.2 17.45 110.15 L16.45 110.05 12.45 110.55 Q10.6 110.95 8.55 109.95 L4.8 107.4 0.9 105.0 Q-1.95 105.45 -3.95 103.5 -4.5 101.2 -3.65 98.85 L-4.6 98.35 Q-2.6 93.95 -2.15 88.9 -1.65 83.85 -2.45 78.95 -5.3 77.35 -6.8 74.55 -8.25 71.75 -8.2 68.65 -6.7 61.65 -4.55 54.8 -2.5 47.95 -3.25 40.35 -5.25 25.4 -9.9 11.65 -10.9 7.4 -11.55 3.0 -12.2 -1.4 -11.9 -5.95 -11.85 -8.55 -10.55 -10.7 -9.25 -12.85 -7.0 -14.0 L-3.25 -15.0 2.1 -14.85 M1.15 76.6 Q2.15 76.85 2.9 77.65 L4.7 79.45 Q6.45 80.25 7.8 78.95 9.15 77.55 10.45 76.7 L10.75 77.0 8.95 79.25 Q10.5 79.25 11.75 78.3 L13.9 76.2 Q15.05 73.7 16.55 71.4 18.0 69.05 18.45 66.3 17.35 57.9 15.5 49.55 13.15 42.5 13.95 35.0 14.75 27.5 14.4 20.3 13.45 14.95 13.1 9.4 12.7 3.8 11.55 -1.45 L11.5 -1.65 Q10.8 -4.55 9.45 -7.15 L6.9 -11.1 Q4.5 -13.55 1.25 -13.85 L-4.85 -13.4 -5.1 -13.3 Q-7.15 -12.8 -8.65 -11.15 -10.2 -9.55 -10.7 -7.55 -11.15 -0.3 -9.75 6.6 L-8.35 12.65 -8.15 13.55 -7.2 16.65 -6.5 18.4 -2.55 33.95 Q-0.2 40.5 -1.5 47.2 -2.8 53.9 -4.9 60.05 -6.25 63.7 -6.8 67.7 -7.35 71.65 -4.8 75.0 L-4.7 75.15 -4.6 75.25 Q-3.8 76.45 -2.6 77.2 L-1.75 77.6 0.55 78.6 2.0 79.2 2.55 78.85 0.9 77.1 0.5 76.7 0.75 76.5 1.15 76.6 M9.85 23.0 L9.85 23.05 9.85 23.0 M2.0 75.4 L2.2 75.45 2.15 75.5 2.0 75.4 M10.2 90.65 L10.25 90.65 Q9.9 86.95 10.55 83.3 L10.5 83.3 10.55 83.05 10.6 82.75 10.85 80.7 9.2 80.85 8.95 80.65 8.3 80.3 8.25 80.3 8.2 80.25 8.1 80.2 7.95 80.15 7.9 80.15 7.6 80.4 7.65 80.25 4.3 80.95 Q3.05 79.75 1.3 80.15 -0.4 80.5 -1.75 79.55 -1.1 80.65 -1.05 82.0 L-0.95 82.05 -1.05 82.3 -1.0 82.65 -1.05 82.6 Q-0.75 87.2 -1.3 91.65 L-1.6 92.25 -1.5 92.55 -1.45 92.6 -1.05 92.45 -1.55 92.65 -2.55 96.1 -3.2 97.85 -3.25 97.95 -2.95 97.95 Q-2.0 97.1 -0.8 96.6 L0.4 96.1 3.0 95.4 4.1 95.1 5.7 94.95 7.3 94.8 7.3 94.75 8.5 94.8 8.6 94.75 8.35 94.7 11.25 95.15 Q11.45 94.1 10.85 93.25 10.25 92.4 10.25 91.35 L10.2 91.35 10.35 90.75 10.2 90.65 M-0.2 82.95 L-0.2 83.0 -0.4 82.95 -0.2 82.95 M2.35 75.05 L2.3 75.2 2.35 75.05 M7.5 80.7 L7.55 80.5 7.55 80.7 7.5 80.7 M18.8 104.2 Q17.2 103.25 15.8 101.85 13.4 99.45 11.9 97.05 L4.4 96.3 Q1.65 96.3 -0.55 97.5 L-0.6 97.55 -0.75 97.6 -1.85 98.35 -2.05 98.5 -2.75 99.1 -2.9 99.55 Q-3.5 101.2 -3.35 103.1 -2.6 103.8 -1.45 103.9 L-0.85 103.8 Q0.75 103.65 2.1 104.45 L5.3 106.4 Q6.85 107.9 8.65 108.8 L8.7 108.85 Q10.0 109.5 11.65 109.35 L12.6 109.2 12.7 109.25 13.6 109.4 14.95 109.15 17.35 109.1 17.7 108.7 18.4 108.7 18.6 108.3 18.7 108.7 23.1 108.15 23.1 107.05 Q23.05 106.15 22.35 105.9 L21.1 105.25 21.0 105.2 18.8 104.2 M15.0 105.8 L15.1 105.9 15.0 105.85 15.0 105.8" fill="#000000" fill-rule="evenodd" stroke="none"/>
    <path d="M-4.85 -13.4 L1.25 -13.85 Q4.5 -13.55 6.9 -11.1 L9.45 -7.15 Q10.8 -4.55 11.5 -1.65 L11.55 -1.45 Q12.7 3.8 13.1 9.4 13.45 14.95 14.4 20.3 14.75 27.5 13.95 35.0 13.15 42.5 15.5 49.55 17.35 57.9 18.45 66.3 18.0 69.05 16.55 71.4 15.05 73.7 13.9 76.2 L11.75 78.3 Q10.5 79.25 8.95 79.25 L10.75 77.0 10.45 76.7 Q9.15 77.55 7.8 78.95 6.45 80.25 4.7 79.45 L2.9 77.65 Q2.15 76.85 1.15 76.6 L2.0 75.4 Q0.6 74.7 -0.2 73.35 L-1.75 70.55 Q-1.95 67.45 -1.35 64.6 L-1.3 65.25 -1.25 65.3 Q-0.95 65.5 -0.95 65.95 L-0.8 68.1 -0.35 69.05 -0.3 69.2 Q0.85 70.9 2.6 72.05 L3.25 72.5 3.85 72.8 5.5 73.45 Q7.15 71.0 7.6 68.2 L7.8 67.55 Q7.2 66.45 7.1 65.15 7.05 65.0 7.15 64.85 L7.1 64.7 7.1 64.65 7.2 64.5 7.2 64.35 7.3 64.35 7.3 64.4 7.3 64.5 Q7.95 64.85 8.1 65.7 L8.1 65.8 Q9.2 66.95 9.45 68.5 9.6 69.8 9.1 71.05 L9.0 71.4 8.95 71.5 Q10.45 70.1 11.3 68.15 13.2 63.85 13.2 59.35 L13.2 58.25 13.0 57.5 11.75 53.8 11.1 52.2 Q10.6 50.85 11.8 50.15 L12.85 50.45 Q12.05 42.25 9.6 34.4 9.0 32.5 8.7 30.45 8.5 28.9 8.6 27.45 L8.55 27.45 8.05 27.7 Q7.55 27.9 7.15 28.2 L5.85 29.2 4.55 30.45 4.35 30.6 3.4 31.75 3.55 31.5 3.35 31.8 1.9 33.7 1.85 33.75 1.7 33.9 -0.55 36.1 -0.75 35.9 4.15 28.3 4.2 28.15 4.25 28.05 Q6.05 25.1 9.05 23.45 L9.55 23.15 9.85 23.0 11.25 21.0 Q10.7 15.35 8.75 9.65 L8.6 9.15 Q7.65 7.15 7.1 4.95 4.65 -4.75 -2.95 -11.55 L-3.6 -12.15 -4.85 -13.4 M0.9 77.1 L2.55 78.85 2.0 79.2 0.55 78.6 0.6 78.3 0.9 77.1 M9.85 23.0 L9.85 23.05 9.85 23.0 M2.0 75.4 L2.15 75.5 2.2 75.45 2.0 75.4 M9.6 23.5 L9.65 23.45 9.7 23.35 9.1 23.8 9.6 23.5 M6.55 47.4 Q6.9 48.75 6.75 50.25 L6.8 50.1 Q7.05 50.9 6.4 51.55 6.2 51.75 5.95 51.55 L5.3 50.85 3.95 48.15 Q3.45 46.9 3.45 45.55 3.5 44.3 4.3 43.55 L4.45 42.6 5.9 38.6 6.0 39.0 Q6.25 39.95 5.9 41.0 5.5 42.2 5.45 43.5 L5.6 44.1 6.4 46.75 6.55 47.4 M2.3 75.2 L2.7 74.9 2.35 75.15 2.35 75.1 2.35 75.05 2.3 75.2" fill="#928727" fill-rule="evenodd" stroke="none"/>
    <path d="M-2.6 77.2 Q-3.8 76.45 -4.6 75.25 L-4.7 75.15 -4.8 75.0 Q-7.35 71.65 -6.8 67.7 -6.25 63.7 -4.9 60.05 -2.8 53.9 -1.5 47.2 -0.2 40.5 -2.55 33.95 L-6.5 18.4 -7.2 16.65 -6.8 17.55 -6.6 17.95 -7.4 13.6 -8.15 13.55 -8.35 12.65 -9.75 6.6 Q-11.15 -0.3 -10.7 -7.55 -10.2 -9.55 -8.65 -11.15 -7.15 -12.8 -5.1 -13.3 L-4.85 -13.4 -3.6 -12.15 -2.95 -11.55 -2.95 -11.0 -3.3 -10.0 Q-4.4 -8.3 -6.2 -7.1 -8.75 -5.35 -8.1 -2.4 L-7.6 0.5 -7.45 1.4 Q-6.5 6.0 -6.45 10.65 L-6.5 10.6 -6.4 11.15 Q-4.4 17.05 -2.7 23.15 L-2.4 24.4 Q0.05 26.3 3.15 26.7 5.6 24.7 8.35 23.4 L9.05 23.45 Q6.05 25.1 4.25 28.05 L4.2 28.15 4.15 28.3 -0.75 35.9 -0.55 36.1 1.7 33.9 Q2.75 35.1 2.05 36.45 L1.6 37.0 Q1.4 43.1 -0.2 49.05 -1.35 53.4 -3.0 57.55 L-3.1 57.75 Q-2.5 62.3 -3.85 66.85 -5.2 71.3 -3.35 75.4 -2.35 76.25 -2.6 77.2 M3.85 72.8 L3.25 72.5 2.6 72.05 Q0.85 70.9 -0.3 69.2 L-0.35 69.05 -0.8 68.1 -0.95 65.95 Q-0.95 65.5 -1.25 65.3 L-1.25 65.15 -1.2 63.95 -0.85 63.4 -0.6 63.05 -0.4 63.0 -0.4 62.95 0.15 63.0 0.35 63.2 0.5 63.35 0.6 64.25 0.6 64.75 Q1.4 68.25 3.5 71.15 L4.0 72.25 3.9 72.6 3.85 72.8 M6.55 47.4 L6.4 46.75 5.6 44.1 5.45 43.5 Q5.5 42.2 5.9 41.0 6.25 39.95 6.0 39.0 6.1 38.85 6.3 38.8 L6.65 38.75 7.25 38.8 7.4 38.95 7.65 39.3 Q7.5 43.25 7.85 47.2 L7.75 47.7 7.35 48.15 6.7 48.05 6.55 47.4" fill="#ddd380" fill-rule="evenodd" stroke="none"/>
    <path d="M1.15 76.6 L0.75 76.5 0.5 76.7 0.9 77.1 0.6 78.3 0.55 78.6 -1.75 77.6 -2.6 77.2 Q-2.35 76.25 -3.35 75.4 -5.2 71.3 -3.85 66.85 -2.5 62.3 -3.1 57.75 L-3.0 57.55 Q-1.35 53.4 -0.2 49.05 1.4 43.1 1.6 37.0 L2.05 36.45 Q2.75 35.1 1.7 33.9 L1.85 33.75 1.9 33.7 3.35 31.8 3.55 31.5 3.4 31.75 4.35 30.6 4.55 30.45 5.85 29.2 7.15 28.2 Q7.55 27.9 8.05 27.7 L8.55 27.45 8.6 27.45 Q8.5 28.9 8.7 30.45 9.0 32.5 9.6 34.4 12.05 42.25 12.85 50.45 L11.8 50.15 Q10.6 50.85 11.1 52.2 L11.75 53.8 13.0 57.5 13.2 58.25 13.2 59.35 Q13.2 63.85 11.3 68.15 10.45 70.1 8.95 71.5 L9.0 71.4 9.1 71.05 Q9.6 69.8 9.45 68.5 9.2 66.95 8.1 65.8 L8.1 65.7 Q7.95 64.85 7.3 64.5 L7.3 64.4 7.3 64.35 7.2 64.35 7.2 64.5 7.1 64.65 7.1 64.7 7.15 64.85 Q7.05 65.0 7.1 65.15 7.2 66.45 7.8 67.55 L7.6 68.2 Q7.15 71.0 5.5 73.45 L3.85 72.8 3.9 72.6 4.0 72.25 3.5 71.15 Q1.4 68.25 0.6 64.75 L0.6 64.25 0.5 63.35 0.35 63.2 0.15 63.0 -0.4 62.95 -0.4 63.0 -0.6 63.05 -0.85 63.4 -1.2 63.95 -1.25 65.15 -1.25 65.3 -1.3 65.25 -1.35 64.6 Q-1.95 67.45 -1.75 70.55 L-0.2 73.35 Q0.6 74.7 2.0 75.4 L1.15 76.6 M-7.2 16.65 L-8.15 13.55 -7.4 13.6 -6.6 17.95 -6.8 17.55 -7.2 16.65 M-2.95 -11.55 Q4.65 -4.75 7.1 4.95 7.65 7.15 8.6 9.15 L8.75 9.65 Q10.7 15.35 11.25 21.0 L9.85 23.0 9.55 23.15 9.05 23.45 8.35 23.4 Q5.6 24.7 3.15 26.7 0.05 26.3 -2.4 24.4 L-2.7 23.15 Q-4.4 17.05 -6.4 11.15 L-6.5 10.6 -6.45 10.65 Q-6.5 6.0 -7.45 1.4 L-7.6 0.5 -8.1 -2.4 Q-8.75 -5.35 -6.2 -7.1 -4.4 -8.3 -3.3 -10.0 L-2.95 -11.0 -2.95 -11.55 M9.6 23.5 L9.1 23.8 9.7 23.35 9.65 23.45 9.6 23.5 M6.0 39.0 L5.9 38.6 4.45 42.6 4.3 43.55 Q3.5 44.3 3.45 45.55 3.45 46.9 3.95 48.15 L5.3 50.85 5.95 51.55 Q6.2 51.75 6.4 51.55 7.05 50.9 6.8 50.1 L6.75 50.25 Q6.9 48.75 6.55 47.4 L6.7 48.05 7.35 48.15 7.75 47.7 7.85 47.2 Q7.5 43.25 7.65 39.3 L7.4 38.95 7.25 38.8 6.65 38.75 6.3 38.8 Q6.1 38.85 6.0 39.0 M2.3 75.2 L2.35 75.05 2.35 75.1 2.35 75.15 2.7 74.9 2.3 75.2" fill="#cec24c" fill-rule="evenodd" stroke="none"/>
    <path d="M10.5 83.3 L10.55 83.3 Q9.9 86.95 10.25 90.65 L10.2 90.65 8.85 90.5 8.7 90.5 8.55 90.45 8.45 90.4 Q8.0 90.2 7.9 89.65 L7.9 84.3 8.4 84.1 10.5 83.3 M10.2 91.35 L10.25 91.35 Q10.25 92.4 10.85 93.25 11.45 94.1 11.25 95.15 L8.35 94.7 8.6 94.75 8.5 94.8 7.3 94.75 7.3 94.8 5.7 94.95 4.1 95.1 3.0 95.4 3.1 94.25 3.1 94.15 3.35 94.1 5.45 93.8 7.6 93.55 7.85 93.65 8.05 93.65 8.05 93.9 8.2 93.9 8.3 93.8 Q8.6 92.35 8.3 90.8 L10.2 91.35 M-0.8 96.6 Q-2.0 97.1 -2.95 97.95 L-3.2 97.85 -2.55 96.1 -0.65 95.35 -0.75 95.9 -0.8 96.4 -0.8 96.5 -0.8 96.6 M-1.05 82.3 L-0.95 82.05 -1.05 82.0 Q-1.1 80.65 -1.75 79.55 -0.4 80.5 1.3 80.15 3.05 79.75 4.3 80.95 L7.65 80.25 7.6 80.4 7.9 80.15 8.1 80.2 8.2 80.25 8.25 80.3 8.3 80.3 8.95 80.65 9.2 80.85 10.85 80.7 10.6 82.75 7.9 83.6 8.0 83.15 7.95 83.1 7.8 82.65 7.55 80.7 7.55 80.5 7.5 80.7 Q7.2 82.05 7.05 83.7 L5.8 83.8 Q3.95 84.05 2.3 83.3 L1.45 82.95 2.05 83.2 1.0 83.1 0.35 83.05 0.0 83.0 -1.05 82.3" fill="#9d9d4f" fill-rule="evenodd" stroke="none"/>
    <path d="M10.2 90.65 L10.35 90.75 10.2 91.35 8.3 90.8 Q8.6 92.35 8.3 93.8 L8.2 93.9 8.05 93.9 8.05 93.65 7.75 92.35 7.65 91.95 7.3 91.2 7.15 90.8 3.2 91.0 2.65 91.15 Q1.25 91.55 -0.15 92.1 L-0.45 92.25 -0.3 92.05 -0.1 91.9 Q0.55 91.35 1.25 91.0 L2.75 90.4 3.15 90.25 Q5.0 89.6 7.05 90.2 L7.05 84.5 5.9 84.6 Q2.6 84.4 -0.2 83.0 L-0.2 82.95 0.35 83.05 1.0 83.1 2.05 83.2 1.45 82.95 2.3 83.3 Q3.95 84.05 5.8 83.8 L7.05 83.7 Q7.2 82.05 7.5 80.7 L7.55 80.7 7.8 82.65 7.95 83.1 8.0 83.15 7.9 83.6 10.6 82.75 10.55 83.05 10.5 83.3 8.4 84.1 7.9 84.3 7.9 89.65 Q8.0 90.2 8.45 90.4 L8.55 90.45 8.7 90.5 8.85 90.5 10.2 90.65" fill="#626231" fill-rule="evenodd" stroke="none"/>
    <path d="M3.0 95.4 L0.4 96.1 -0.8 96.6 -0.8 96.5 -0.8 96.4 -0.75 95.9 -0.65 95.35 -2.55 96.1 -1.55 92.65 -1.05 92.45 -1.45 92.6 -1.5 92.55 -1.6 92.25 -1.3 91.65 Q-0.75 87.2 -1.05 82.6 L-1.0 82.65 -1.05 82.3 0.0 83.0 0.35 83.05 -0.2 82.95 -0.4 82.95 -0.2 83.0 Q2.6 84.4 5.9 84.6 L7.05 84.5 7.05 90.2 Q5.0 89.6 3.15 90.25 L3.15 90.15 2.55 85.8 Q2.35 84.8 1.45 84.8 0.9 84.65 0.6 85.1 L0.5 85.3 0.45 87.45 0.35 88.15 -0.1 91.9 -0.3 92.05 -0.45 92.25 -0.15 92.1 -0.2 92.5 -0.55 94.75 -0.65 95.4 0.25 95.05 3.1 94.25 3.0 95.4 M3.2 91.0 L7.15 90.8 7.3 91.2 7.65 91.95 7.75 92.35 8.05 93.65 7.85 93.65 7.6 93.55 5.45 93.8 3.35 94.1 3.1 94.15 3.2 91.85 3.2 91.0" fill="#b0b064" fill-rule="evenodd" stroke="none"/>
    <path d="M3.15 90.25 L2.75 90.4 1.25 91.0 Q0.55 91.35 -0.1 91.9 L0.35 88.15 0.45 87.45 0.5 85.3 0.6 85.1 Q0.9 84.65 1.45 84.8 2.35 84.8 2.55 85.8 L3.15 90.15 3.15 90.25 M-0.15 92.1 Q1.25 91.55 2.65 91.15 L3.2 91.0 3.2 91.85 3.1 94.15 3.1 94.25 0.25 95.05 -0.65 95.4 -0.55 94.75 -0.2 92.5 -0.15 92.1" fill="#d0d0a4" fill-rule="evenodd" stroke="none"/>
    <path d="M7.9 80.15 L7.95 80.15 8.1 80.2 7.9 80.15" fill="#cccc99" fill-rule="evenodd" stroke="none"/>
    <path d="M-2.9 99.55 L-2.75 99.1 -2.05 98.5 -1.85 98.35 -0.75 97.6 -0.6 97.55 -0.55 97.5 Q1.65 96.3 4.4 96.3 L11.9 97.05 Q13.4 99.45 15.8 101.85 17.2 103.25 18.8 104.2 L18.35 104.2 15.15 105.0 15.1 105.05 Q14.75 104.65 14.0 104.6 13.35 104.85 13.3 105.65 L13.3 105.7 13.05 105.65 12.85 105.45 Q12.05 104.9 11.15 104.75 8.05 104.25 5.75 102.0 L4.9 100.65 Q3.8 98.5 1.9 97.85 L0.75 98.9 Q-0.95 99.9 -2.9 99.55 M21.1 105.25 L22.35 105.9 Q23.05 106.15 23.1 107.05 L23.1 108.15 18.7 108.7 18.6 108.3 18.55 107.0 18.4 106.3 20.75 106.1 21.1 105.65 21.1 105.25 M17.7 108.7 L17.35 109.1 14.95 109.15 13.6 109.4 12.7 109.25 12.6 109.2 11.65 109.35 Q10.0 109.5 8.7 108.85 L8.65 108.8 Q6.85 107.9 5.3 106.4 L2.1 104.45 Q0.75 103.65 -0.85 103.8 -0.65 103.15 0.45 103.1 L1.8 103.05 Q3.7 103.1 4.6 104.85 5.3 106.25 6.7 107.0 L8.25 108.1 Q9.5 108.75 10.95 108.55 L11.0 108.55 11.35 109.0 11.4 109.0 12.15 109.05 Q12.85 108.7 12.8 108.15 13.8 107.95 14.8 108.15 L14.8 107.35 14.65 106.9 14.75 106.85 Q15.25 106.75 15.35 106.25 L15.4 106.05 15.2 105.95 16.8 106.55 Q17.8 106.85 17.85 107.95 L17.85 108.05 17.7 108.7 M9.25 100.15 L9.2 99.8 Q8.8 98.7 7.8 98.1 L7.45 98.05 7.45 98.1 7.3 98.2 7.2 98.3 Q7.1 98.8 7.3 99.35 L7.55 99.8 8.25 100.8 Q9.55 102.2 11.25 103.15 11.85 103.15 12.35 103.55 L12.45 103.5 12.5 103.5 12.65 103.5 13.0 103.55 13.0 103.5 12.6 103.3 12.35 103.0 12.2 102.75 12.05 102.7 11.9 102.6 11.9 102.5 11.85 102.4 9.25 100.15 M13.15 100.4 L13.05 100.45 12.9 100.65 12.9 100.75 13.6 101.35 13.65 101.45 Q14.2 102.0 14.7 101.55 L14.7 101.5 Q14.1 100.75 13.15 100.4" fill="#cb7a58" fill-rule="evenodd" stroke="none"/>
    <path d="M-2.95 97.95 L-3.25 97.95 -3.2 97.85 -2.95 97.95" fill="#ffffff" fill-rule="evenodd" stroke="none"/>
    <path d="M18.8 104.2 L21.0 105.2 21.1 105.25 21.1 105.65 20.75 106.1 18.4 106.3 18.55 107.0 18.6 108.3 18.4 108.7 17.7 108.7 17.85 108.05 17.85 107.95 Q17.8 106.85 16.8 106.55 L15.2 105.95 15.4 106.05 15.35 106.25 Q15.25 106.75 14.75 106.85 L14.65 106.9 14.8 107.35 14.8 108.15 Q13.8 107.95 12.8 108.15 12.85 108.7 12.15 109.05 L11.4 109.0 11.35 109.0 11.0 108.55 10.95 108.55 Q9.5 108.75 8.25 108.1 L6.7 107.0 Q5.3 106.25 4.6 104.85 3.7 103.1 1.8 103.05 L0.45 103.1 Q-0.65 103.15 -0.85 103.8 L-1.45 103.9 Q-2.6 103.8 -3.35 103.1 -3.5 101.2 -2.9 99.55 -0.95 99.9 0.75 98.9 L1.9 97.85 Q3.8 98.5 4.9 100.65 L5.75 102.0 Q8.05 104.25 11.15 104.75 12.05 104.9 12.85 105.45 L13.05 105.65 13.3 105.7 13.3 105.65 Q13.35 104.85 14.0 104.6 14.75 104.65 15.1 105.05 L15.15 105.0 18.35 104.2 18.8 104.2 M9.25 100.15 L11.85 102.4 11.9 102.5 11.9 102.6 12.05 102.7 12.2 102.75 12.35 103.0 12.6 103.3 13.0 103.5 13.0 103.55 12.65 103.5 12.5 103.5 12.45 103.5 12.35 103.55 Q11.85 103.15 11.25 103.15 9.55 102.2 8.25 100.8 L7.55 99.8 7.3 99.35 Q7.1 98.8 7.2 98.3 L7.3 98.2 7.45 98.1 7.45 98.05 7.8 98.1 Q8.8 98.7 9.2 99.8 L9.25 100.15 M13.15 100.4 Q14.1 100.75 14.7 101.5 L14.7 101.55 Q14.2 102.0 13.65 101.45 L13.6 101.35 12.9 100.75 12.9 100.65 13.05 100.45 13.15 100.4 M15.0 105.8 L15.0 105.85 15.1 105.9 15.0 105.8" fill="#e6c0ae" fill-rule="evenodd" stroke="none"/>
    <path d="M21.0 105.2 L21.1 105.25 21.0 105.2" fill="#e0b39e" fill-rule="evenodd" stroke="none"/>
  </g>
</svg>
