<?xml version="1.0" encoding="UTF-8" standalone="no"?>
<svg xmlns:xlink="http://www.w3.org/1999/xlink" height="71.85px" width="34.25px" xmlns="http://www.w3.org/2000/svg">
  <g transform="matrix(1.0, 0.0, 0.0, 1.0, 24.85, -37.0)">
    <path d="M-24.85 83.0 L-24.85 83.0 Q-23.45 84.6 -22.05 86.2 L-20.3 84.85 -20.2 84.85 -17.0 85.75 Q-16.9 91.85 -16.85 97.95 L-13.05 102.75 -8.2 108.85 -4.2 98.9 -3.05 99.5 3.35 102.8 6.95 88.65 7.35 87.15 8.7 87.45 9.4 82.4 8.5 78.5 5.6 66.2 3.95 66.15 -1.85 61.95 -4.15 56.0 -3.8 53.1 -3.5 50.9 -2.9 46.0 -7.0 37.0 -11.0 42.5 -11.15 47.2 -11.25 50.35 -12.85 51.0 -13.75 51.35 -14.55 51.85 -15.9 52.8 Q-18.25 54.65 -17.55 57.6 L-17.05 59.05 -16.25 60.6 -15.15 65.7 -16.75 68.6 Q-20.8 75.8 -24.85 83.0" fill="#ffffff" fill-rule="evenodd" stroke="none">
      <animate attributeName="fill" dur="2s" repeatCount="indefinite" values="#ffffff;#ffffff"/>
      <animate attributeName="fill-opacity" dur="2s" repeatCount="indefinite" values="1.0;1.0"/>
      <animate attributeName="d" dur="2s" repeatCount="indefinite" values="M-24.85 83.0 L-24.85 83.0 Q-23.45 84.6 -22.05 86.2 L-20.3 84.85 -20.2 84.85 -17.0 85.75 Q-16.9 91.85 -16.85 97.95 L-13.05 102.75 -8.2 108.85 -4.2 98.9 -3.05 99.5 3.35 102.8 6.95 88.65 7.35 87.15 8.7 87.45 9.4 82.4 8.5 78.5 5.6 66.2 3.95 66.15 -1.85 61.95 -4.15 56.0 -3.8 53.1 -3.5 50.9 -2.9 46.0 -7.0 37.0 -11.0 42.5 -11.15 47.2 -11.25 50.35 -12.85 51.0 -13.75 51.35 -14.55 51.85 -15.9 52.8 Q-18.25 54.65 -17.55 57.6 L-17.05 59.05 -16.25 60.6 -15.15 65.7 -16.75 68.6 Q-20.8 75.8 -24.85 83.0;M-12.0 101.15 L-11.9 101.45 Q-11.6 102.4 -10.85 103.15 L-10.05 103.8 -10.05 103.8 -8.55 104.7 Q-5.65 106.1 -2.95 104.75 L-0.75 103.1 1.8 100.3 5.3 96.5 5.7 96.1 3.65 93.3 -0.55 87.7 -1.25 87.3 -1.75 86.9 -3.8 85.6 -5.4 84.55 -7.3 78.9 -7.5 78.1 -8.6 74.8 -9.5 71.9 -10.0 70.5 -11.0 70.75 -11.1 72.95 -11.3 77.75 -11.4 81.05 -11.5 83.35 -11.2 84.75 -11.1 85.45 -11.0 85.85 -10.9 86.25 -10.7 86.95 Q-10.4 88.2 -10.15 89.45 L-9.95 90.15 -9.75 90.95 -9.15 93.4 -8.75 95.0 Q-13.15 96.35 -12.0 101.15"/>
    </path>
    <path d="M-24.85 83.0 Q-20.8 75.8 -16.75 68.6 L-15.15 65.7 -16.25 60.6 -17.05 59.05 -17.55 57.6 Q-18.25 54.65 -15.9 52.8 L-14.55 51.85 -13.75 51.35 -12.85 51.0 -11.25 50.35 -11.15 47.2 -11.0 42.5 -7.0 37.0 -2.9 46.0 -3.5 50.9 -3.8 53.1 -4.15 56.0 -1.85 61.95 3.95 66.15 5.6 66.2 8.5 78.5 9.4 82.4 8.7 87.45 7.35 87.15 6.95 88.65 3.35 102.8 -3.05 99.5 -4.2 98.9 -8.2 108.85 -13.05 102.75 -16.85 97.95 Q-16.9 91.85 -17.0 85.75 L-20.2 84.85 -20.3 84.85 -22.05 86.2 Q-23.45 84.6 -24.85 83.0 L-24.85 83.0" fill="none" stroke="#000000" stroke-linecap="round" stroke-linejoin="round" stroke-opacity="0.0" stroke-width="1.0">
      <animate attributeName="stroke" dur="2s" repeatCount="indefinite" values="#000000;#000001"/>
      <animate attributeName="stroke-width" dur="2s" repeatCount="indefinite" values="0.0;0.0"/>
      <animate attributeName="fill-opacity" dur="2s" repeatCount="indefinite" values="0.0;0.0"/>
      <animate attributeName="d" dur="2s" repeatCount="indefinite" values="M-24.85 83.0 Q-20.8 75.8 -16.75 68.6 L-15.15 65.7 -16.25 60.6 -17.05 59.05 -17.55 57.6 Q-18.25 54.65 -15.9 52.8 L-14.55 51.85 -13.75 51.35 -12.85 51.0 -11.25 50.35 -11.15 47.2 -11.0 42.5 -7.0 37.0 -2.9 46.0 -3.5 50.9 -3.8 53.1 -4.15 56.0 -1.85 61.95 3.95 66.15 5.6 66.2 8.5 78.5 9.4 82.4 8.7 87.45 7.35 87.15 6.95 88.65 3.35 102.8 -3.05 99.5 -4.2 98.9 -8.2 108.85 -13.05 102.75 -16.85 97.95 Q-16.9 91.85 -17.0 85.75 L-20.2 84.85 -20.3 84.85 -22.05 86.2 Q-23.45 84.6 -24.85 83.0 L-24.85 83.0;M-12.0 101.15 Q-13.15 96.35 -8.75 95.0 L-9.15 93.4 -9.75 90.95 -9.95 90.15 -10.15 89.45 Q-10.4 88.2 -10.7 86.95 L-10.9 86.25 -11.0 85.85 -11.1 85.45 -11.2 84.75 -11.5 83.35 -11.4 81.05 -11.3 77.75 -11.1 72.95 -11.0 70.75 -10.0 70.5 -9.5 71.9 -8.6 74.8 -7.5 78.1 -7.3 78.9 -5.4 84.55 -3.8 85.6 -1.75 86.9 -1.25 87.3 -0.55 87.7 3.65 93.3 5.7 96.1 5.3 96.5 1.8 100.3 -0.75 103.1 -2.95 104.75 Q-5.65 106.1 -8.55 104.7 L-10.05 103.8 -10.05 103.8 -10.85 103.15 Q-11.6 102.4 -11.9 101.45 L-12.0 101.15"/>
    </path>
  </g>
</svg>
