<?xml version="1.0" encoding="UTF-8" standalone="no"?>
<svg xmlns:xlink="http://www.w3.org/1999/xlink" height="22.95px" width="23.1px" xmlns="http://www.w3.org/2000/svg">
  <g transform="matrix(1.0, 0.0, 0.0, 1.0, 11.5, 11.45)">
    <path d="M9.15 -7.5 Q10.25 -6.4 10.5 -4.95 L10.8 -4.15 Q11.1 -3.6 10.9 -3.0 L10.9 -2.95 10.9 -2.55 10.95 -2.25 10.95 -2.2 11.0 -2.15 11.05 -2.1 11.05 -1.8 Q11.0 -1.45 11.1 -1.1 L11.15 -0.8 Q11.6 0.2 11.6 1.35 L11.55 2.2 Q11.35 4.0 10.45 5.6 L10.0 6.35 9.2 7.25 7.05 9.4 6.2 10.2 Q5.25 11.15 3.85 11.35 L-0.45 11.4 -0.9 11.15 -3.35 10.85 Q-5.65 10.25 -7.3 8.7 L-8.35 7.55 -9.6 5.6 -11.05 1.8 -11.05 1.1 -11.2 0.0 Q-11.55 -0.8 -11.5 -1.65 -11.45 -3.4 -10.5 -4.8 L-10.35 -4.95 -9.2 -6.5 -8.65 -7.05 -8.35 -7.5 -7.6 -8.55 -7.0 -9.05 -6.6 -9.25 -4.1 -10.6 -3.55 -10.75 -1.15 -11.05 0.35 -11.35 1.75 -11.4 Q3.05 -11.35 4.3 -10.75 6.45 -9.85 8.2 -8.35 L9.15 -7.5 M6.15 -8.35 L5.0 -9.15 3.3 -9.9 Q2.1 -10.6 0.75 -10.5 L-2.15 -10.1 -2.2 -10.05 -2.4 -9.85 -2.45 -9.75 -2.55 -9.7 -2.95 -9.55 -3.05 -9.5 -3.65 -9.15 -6.6 -7.35 -7.1 -7.1 Q-8.0 -6.6 -8.6 -5.75 L-9.45 -3.8 -9.55 -3.2 -10.05 -1.25 -10.0 -0.45 -9.85 0.85 -9.5 1.35 -7.6 5.85 -7.3 6.45 -6.95 7.05 Q-6.4 8.2 -5.2 8.8 -3.9 9.5 -2.4 9.75 L-0.6 10.0 4.8 9.4 5.25 9.2 5.8 9.05 7.1 7.75 7.25 7.6 8.55 6.3 Q8.75 5.15 9.35 4.1 L10.05 1.8 Q10.1 1.0 10.4 0.35 L10.5 -0.05 10.55 -0.75 10.6 -1.05 10.5 -1.6 10.45 -2.4 10.4 -2.8 9.45 -4.25 9.3 -4.5 8.5 -5.55 7.55 -6.85 6.15 -8.35" fill="#66ffff" fill-rule="evenodd" stroke="none"/>
  </g>
</svg>
