<?xml version="1.0" encoding="UTF-8" standalone="no"?>
<svg xmlns:xlink="http://www.w3.org/1999/xlink" height="270.6px" width="126.8px" xmlns="http://www.w3.org/2000/svg">
  <g transform="matrix(1.0, 0.0, 0.0, 1.0, 59.5, 28.55)">
    <path d="M-42.4 210.9 L-42.6 211.4 -42.6 210.95 -42.4 210.9 M25.55 -10.25 L26.3 -6.15 26.45 -3.05 30.95 4.2 Q32.05 6.0 33.75 7.4 L40.75 13.2 Q42.8 14.85 44.05 17.1 L44.5 18.5 45.5 19.35 45.35 20.6 Q49.2 26.4 51.9 32.8 53.25 36.0 55.4 38.85 60.3 45.45 63.7 52.8 64.9 55.4 62.7 57.25 L62.3 57.8 58.75 58.65 59.45 65.75 63.1 71.15 Q61.2 77.35 63.65 84.0 L67.3 93.55 67.15 95.95 66.8 96.7 Q64.05 101.05 62.2 105.9 61.65 107.3 60.65 108.3 L58.8 110.2 Q56.85 118.85 54.2 127.3 52.85 131.65 51.85 136.1 51.0 139.85 51.35 143.7 51.85 150.3 51.4 156.85 L51.05 163.3 Q51.0 165.55 50.05 167.6 L47.75 173.3 Q48.35 174.25 48.5 175.5 L49.1 181.55 50.0 187.5 Q50.65 191.0 53.35 193.75 57.05 197.5 55.2 202.2 L51.75 210.65 54.6 217.45 Q57.1 222.9 56.3 228.05 L53.1 227.5 52.55 227.45 Q52.3 228.95 50.2 229.8 44.8 232.05 38.75 233.95 33.85 235.45 31.3 239.6 27.15 240.6 24.75 236.6 L24.55 236.3 22.45 236.3 19.85 237.4 Q19.8 239.1 18.7 240.85 L18.05 241.4 Q8.85 242.9 -0.15 241.05 -0.75 240.9 -1.25 240.35 -2.45 238.85 -4.0 237.8 L-6.9 237.4 -7.9 237.0 Q-11.0 234.8 -15.2 235.0 L-16.6 234.95 -17.35 234.9 -19.25 235.35 -21.75 235.95 Q-28.1 232.6 -35.0 229.85 -36.3 229.35 -37.2 228.5 -39.6 226.4 -38.95 223.2 L-38.45 220.85 -39.45 216.75 -39.6 214.4 Q-42.5 211.3 -43.9 207.5 -45.05 204.45 -42.9 202.25 L-42.65 202.15 Q-42.0 201.7 -40.9 201.75 L-40.45 200.9 Q-42.3 200.75 -43.8 200.95 -41.85 196.75 -40.25 192.4 -38.8 188.25 -39.7 183.95 -40.4 181.05 -42.55 180.0 -41.05 173.75 -38.9 167.5 -34.35 154.3 -36.55 140.55 -37.75 133.15 -45.25 130.45 -49.65 128.8 -50.65 125.25 -52.65 118.5 -54.0 111.75 -56.45 112.1 -57.4 109.5 -58.25 107.1 -58.15 104.5 -60.2 101.15 -59.15 97.05 L-58.5 94.4 Q-56.75 87.25 -55.45 80.05 -53.85 71.55 -52.95 63.0 L-52.35 60.1 Q-53.55 58.4 -55.1 56.9 L-54.15 51.4 -53.5 50.6 Q-52.05 48.85 -50.9 46.9 L-48.0 42.55 Q-49.95 40.9 -49.95 38.05 -49.95 36.3 -49.45 34.6 -48.75 32.3 -46.65 31.15 -49.35 29.5 -48.7 26.45 -48.45 25.4 -47.55 24.7 -38.95 21.15 -33.85 13.55 L-33.75 12.9 -33.55 12.5 -32.6 11.6 -31.45 10.5 -26.45 6.4 Q-21.45 4.3 -15.4 2.85 -16.9 -3.25 -17.1 -9.35 -17.4 -18.45 -9.05 -22.95 20.5 -38.7 25.55 -10.25" fill="#6699ff" fill-rule="evenodd" stroke="none"/>
  </g>
</svg>
