<?xml version="1.0" encoding="UTF-8" standalone="no"?>
<svg xmlns:xlink="http://www.w3.org/1999/xlink" height="265.65px" width="90.8px" xmlns="http://www.w3.org/2000/svg">
  <g transform="matrix(1.0, 0.0, 0.0, 1.0, 45.5, 35.8)">
    <path d="M8.85 -34.85 Q9.65 -34.25 9.65 -33.3 9.6 -27.9 9.9 -22.2 L10.15 -12.6 Q10.15 -1.95 8.2 8.25 L8.2 8.3 11.15 12.9 14.4 17.7 Q18.5 18.35 21.85 21.5 L24.45 23.25 Q32.8 27.45 38.1 34.7 39.5 36.65 39.65 39.1 39.95 44.2 40.6 49.3 40.85 51.2 39.9 52.9 41.45 57.4 44.15 61.4 47.0 65.75 42.85 68.4 42.65 71.35 42.75 74.3 L43.15 80.85 Q44.05 82.05 43.95 83.45 43.8 85.55 42.4 87.1 L42.15 87.2 42.75 87.75 Q43.1 88.95 42.5 90.0 L42.1 90.7 Q42.3 96.7 40.55 102.15 L40.2 102.8 40.2 103.8 40.1 104.15 39.15 105.1 Q39.55 110.15 36.7 114.65 36.15 115.55 36.3 116.6 38.1 119.35 37.15 122.9 L35.75 127.75 Q35.45 128.65 34.75 129.35 L33.45 129.35 32.8 128.7 Q33.0 124.75 33.9 120.85 L34.3 119.85 Q31.15 115.6 34.4 110.65 35.45 109.1 36.05 107.4 36.7 106.5 37.45 105.75 L37.7 105.45 Q37.1 100.9 38.25 96.2 L38.85 92.65 39.35 89.4 40.2 88.4 40.4 87.4 40.6 87.0 Q37.55 82.6 37.6 77.05 L37.8 66.85 Q33.35 61.9 30.4 55.9 29.85 54.8 28.7 54.2 25.85 52.8 23.55 50.9 L23.8 52.3 Q25.0 58.4 22.95 64.45 20.8 70.95 17.35 76.65 L15.5 79.75 Q17.3 83.5 17.6 87.95 18.0 94.25 19.2 100.5 L21.4 112.8 23.6 125.25 24.05 126.95 Q26.8 136.0 28.95 145.1 29.55 147.6 28.2 149.8 L27.3 151.75 Q28.4 160.05 27.05 168.55 L24.9 181.05 Q23.2 190.3 22.6 199.7 L22.35 204.0 Q21.85 213.45 23.15 222.7 L23.05 223.0 22.8 223.3 22.4 223.65 21.2 223.65 20.8 223.3 20.2 222.7 Q20.05 218.5 18.05 214.65 16.2 211.05 16.3 206.95 L16.65 196.1 16.65 194.25 16.75 193.25 16.75 192.4 16.75 191.95 16.6 189.0 Q15.4 178.9 17.95 168.95 L19.05 163.75 Q19.35 160.95 18.9 158.1 16.05 157.9 14.9 155.05 14.3 153.5 14.3 151.75 9.45 149.4 7.6 143.45 L6.6 140.7 4.2 134.55 Q-0.3 135.25 -1.35 130.3 L-2.7 123.5 Q-3.45 128.8 -4.8 134.0 L-5.25 134.7 -6.1 135.4 -8.2 142.3 Q-8.7 144.15 -10.15 145.45 -11.9 146.35 -14.2 145.9 L-14.75 145.85 Q-13.7 152.3 -15.55 158.45 L-15.7 159.65 Q-15.15 167.2 -16.1 174.75 -16.7 179.3 -16.0 183.95 L-14.35 196.35 Q-14.0 199.25 -12.85 202.05 -12.45 203.1 -12.3 204.2 -11.65 209.05 -9.6 213.55 -7.1 219.2 -7.7 225.5 -8.25 231.3 -13.65 229.35 -16.05 228.5 -15.9 225.85 -15.35 217.6 -20.25 211.2 -22.3 208.5 -22.6 205.2 L-24.8 180.6 Q-25.6 172.1 -24.4 163.5 -24.05 161.35 -24.9 159.2 -26.2 155.85 -25.85 152.1 L-25.8 149.8 Q-27.05 144.6 -25.8 138.9 -25.35 137.0 -25.25 135.05 L-24.1 115.05 Q-23.55 105.75 -22.35 96.55 L-21.45 90.45 Q-20.75 85.9 -19.35 81.65 L-19.8 78.95 Q-20.55 74.15 -22.7 69.85 -23.85 67.5 -24.5 64.95 -25.75 59.95 -25.7 54.55 L-24.25 51.95 -24.8 50.6 -25.05 50.65 -26.75 52.9 -27.0 53.2 Q-27.9 59.15 -30.05 64.8 L-30.5 65.9 Q-33.45 73.0 -35.85 80.2 -36.85 83.3 -36.8 86.65 L-36.9 87.65 Q-38.6 97.45 -36.65 107.25 -35.85 111.25 -38.25 114.0 -38.85 114.6 -39.75 114.35 -43.35 113.35 -42.4 109.15 L-42.4 109.1 Q-44.15 109.3 -45.0 107.85 -44.35 104.5 -45.05 101.25 -46.25 96.05 -44.2 91.0 -43.3 88.85 -42.9 86.5 -42.35 83.65 -42.2 80.65 -42.15 79.2 -41.75 77.7 -40.75 73.5 -40.35 69.15 L-40.5 68.2 Q-43.9 57.75 -38.85 47.7 -37.15 44.35 -37.65 40.6 -37.85 39.1 -37.05 37.75 -34.1 32.75 -29.4 28.95 -26.35 26.45 -23.95 23.55 -22.0 21.15 -20.45 18.45 L-18.15 17.85 Q-16.8 11.35 -16.7 4.75 -16.7 2.7 -16.85 0.7 L-17.2 -0.3 Q-18.7 -6.15 -18.1 -11.9 -17.9 -14.2 -17.35 -16.4 L-16.0 -20.7 -15.5 -21.9 -17.45 -22.7 -17.55 -23.05 -16.5 -23.05 Q-15.75 -23.05 -15.5 -23.8 L-14.4 -27.4 Q-13.95 -29.15 -14.2 -30.5 L-11.55 -31.7 Q-4.3 -34.1 3.2 -35.8 L8.85 -34.85" fill="#99ccff" fill-rule="evenodd" stroke="none"/>
  </g>
</svg>
