<?xml version="1.0" encoding="UTF-8" standalone="no"?>
<svg xmlns:xlink="http://www.w3.org/1999/xlink" height="20.65px" width="20.65px" xmlns="http://www.w3.org/2000/svg">
  <g transform="matrix(1.0, 0.0, 0.0, 1.0, 10.65, 10.45)">
    <path d="M6.2 -6.9 L6.25 -6.85 6.2 -6.9" fill="#009900" fill-rule="evenodd" stroke="none"/>
    <path d="M-7.4 6.15 Q-4.75 7.3 -1.65 7.45 L-0.5 7.4 -0.3 7.4 0.95 7.2 1.25 7.1 2.15 6.55 3.0 6.05 Q9.1 1.4 6.6 -5.9 L6.25 -6.85 Q9.05 -4.05 9.1 -0.15 9.05 3.7 6.25 6.45 3.5 9.25 -0.35 9.3 -4.25 9.25 -7.05 6.45 L-7.4 6.15" fill="#696969" fill-rule="evenodd" stroke="none"/>
    <path d="M6.25 -6.85 L6.2 -6.9 Q3.45 -9.6 -0.35 -9.6 -4.25 -9.65 -7.05 -6.85 -9.85 -4.05 -9.8 -0.15 L-9.8 0.2 Q-9.75 2.75 -8.4 4.8 L-7.4 6.15 -7.05 6.45 Q-4.25 9.25 -0.35 9.3 3.5 9.25 6.25 6.45 9.05 3.7 9.1 -0.15 9.05 -4.05 6.25 -6.85 M10.0 -0.1 Q10.0 4.15 6.95 7.15 3.95 10.2 -0.3 10.2 -4.6 10.2 -7.65 7.15 -10.65 4.15 -10.65 -0.1 -10.65 -4.4 -7.65 -7.45 -4.6 -10.45 -0.3 -10.45 3.95 -10.45 6.95 -7.45 10.0 -4.4 10.0 -0.1" fill="#000000" fill-rule="evenodd" stroke="none"/>
    <path d="M6.2 -6.9 L6.25 -6.85 6.6 -5.9 Q9.1 1.4 3.0 6.05 L2.15 6.55 1.25 7.1 0.95 7.2 -0.3 7.4 -0.5 7.4 -1.65 7.45 Q-4.75 7.3 -7.4 6.15 L-8.4 4.8 Q-9.75 2.75 -9.8 0.2 L-9.8 -0.15 Q-9.85 -4.05 -7.05 -6.85 -4.25 -9.65 -0.35 -9.6 3.45 -9.6 6.2 -6.9 M0.8 -2.1 L0.8 -2.15 Q0.95 -3.4 0.6 -4.55 L0.3 -5.25 -0.3 -6.45 -0.4 -6.6 -0.05 -6.4 Q-1.55 -7.45 -3.5 -6.95 -4.75 -6.7 -5.7 -5.8 -8.1 -3.6 -7.45 -0.65 -7.25 0.3 -6.45 0.9 L-5.15 1.55 -3.05 1.6 -2.75 1.45 -2.15 1.0 -1.3 0.35 -0.8 0.0 0.75 -2.05 0.8 -2.1" fill="#959595" fill-rule="evenodd" stroke="none"/>
    <path d="M0.8 -2.1 L0.75 -2.05 -0.8 0.0 -1.3 0.35 -2.15 1.0 -2.75 1.45 -3.05 1.6 -5.15 1.55 -6.45 0.9 Q-7.25 0.3 -7.45 -0.65 -8.1 -3.6 -5.7 -5.8 -4.75 -6.7 -3.5 -6.95 -1.55 -7.45 -0.05 -6.4 L-0.4 -6.6 -0.3 -6.45 0.3 -5.25 0.6 -4.55 Q0.95 -3.4 0.8 -2.15 L0.8 -2.1" fill="#a7a7a7" fill-rule="evenodd" stroke="none"/>
    <path d="M6.5 -0.05 Q6.5 2.85 4.45 4.85 2.45 6.9 -0.45 6.9 -2.4 6.9 -4.0 5.95 L-5.4 4.85 -6.15 3.95 Q-7.4 2.2 -7.4 -0.05 -7.4 -2.95 -5.4 -5.0 L-4.0 -6.05 Q-2.4 -7.0 -0.45 -7.0 2.45 -7.0 4.45 -5.0 L4.9 -4.5 Q6.5 -2.6 6.5 -0.05" fill="none" stroke="#000000" stroke-linecap="round" stroke-linejoin="round" stroke-width="1.5"/>
    <path d="M-0.5 -3.4 L-0.5 -2.9 M-0.5 -0.1 L-0.5 3.8" fill="none" stroke="#000000" stroke-linecap="round" stroke-linejoin="round" stroke-width="2.25"/>
  </g>
</svg>
