<?xml version="1.0" encoding="UTF-8" standalone="no"?>
<svg xmlns:xlink="http://www.w3.org/1999/xlink" height="20.65px" width="20.65px" xmlns="http://www.w3.org/2000/svg">
  <g transform="matrix(1.0, 0.0, 0.0, 1.0, 10.65, 10.5)">
    <path d="M-7.4 6.1 L-7.05 6.4 Q-5.65 7.8 -4.0 8.5 -2.3 9.2 -0.35 9.25 3.5 9.2 6.25 6.4 9.05 3.65 9.1 -0.2 9.05 -4.1 6.25 -6.9 L6.2 -6.95 Q3.45 -9.65 -0.35 -9.65 -2.3 -9.7 -4.0 -8.95 -5.65 -8.3 -7.05 -6.9 -9.85 -4.1 -9.8 -0.2 L-9.8 0.15 Q-9.75 2.7 -8.4 4.75 L-7.4 6.1 M10.0 -0.15 Q10.0 4.1 6.95 7.1 3.95 10.15 -0.3 10.15 -2.3 10.15 -4.0 9.5 -6.0 8.75 -7.65 7.1 -10.65 4.1 -10.65 -0.15 -10.65 -4.45 -7.65 -7.5 -6.0 -9.1 -4.0 -9.85 -2.3 -10.5 -0.3 -10.5 3.95 -10.5 6.95 -7.5 10.0 -4.45 10.0 -0.15" fill="#000000" fill-rule="evenodd" stroke="none"/>
    <path d="M-7.4 6.1 L-8.4 4.75 Q-9.75 2.7 -9.8 0.15 L-9.8 -0.2 Q-9.85 -4.1 -7.05 -6.9 -5.65 -8.3 -4.0 -8.95 -2.3 -9.7 -0.35 -9.65 3.45 -9.65 6.2 -6.95 L6.25 -6.9 6.6 -5.95 Q9.1 1.35 3.0 6.0 L2.15 6.5 1.25 7.05 0.95 7.15 -0.3 7.35 -0.5 7.35 -1.65 7.4 -4.0 7.15 Q-5.8 6.8 -7.4 6.1 M0.3 -5.3 L-0.3 -6.5 -0.4 -6.65 -0.05 -6.45 Q-1.55 -7.5 -3.5 -7.0 L-4.0 -6.85 Q-4.95 -6.55 -5.7 -5.85 -8.1 -3.65 -7.45 -0.7 -7.25 0.25 -6.45 0.85 L-5.15 1.5 -4.0 1.7 -3.05 1.55 -2.75 1.4 -2.15 0.95 -1.3 0.3 -0.8 -0.05 -0.6 -0.3 0.75 -2.1 0.8 -2.15 0.8 -2.2 Q0.95 -3.45 0.6 -4.6 L0.3 -5.3" fill="#66ff00" fill-rule="evenodd" stroke="none"/>
    <path d="M0.3 -5.3 L0.6 -4.6 Q0.95 -3.45 0.8 -2.2 L0.8 -2.15 0.75 -2.1 -0.6 -0.3 -0.8 -0.05 -1.3 0.3 -2.15 0.95 -2.75 1.4 -3.05 1.55 -4.0 1.7 -5.15 1.5 -6.45 0.85 Q-7.25 0.25 -7.45 -0.7 -8.1 -3.65 -5.7 -5.85 -4.95 -6.55 -4.0 -6.85 L-3.5 -7.0 Q-1.55 -7.5 -0.05 -6.45 L-0.4 -6.65 -0.3 -6.5 0.3 -5.3" fill="#99ff00" fill-rule="evenodd" stroke="none"/>
    <path d="M6.2 -6.95 L6.25 -6.9 Q9.05 -4.1 9.1 -0.2 9.05 3.65 6.25 6.4 3.5 9.2 -0.35 9.25 -2.3 9.2 -4.0 8.5 -5.65 7.8 -7.05 6.4 L-7.4 6.1 Q-5.8 6.8 -4.0 7.15 L-1.65 7.4 -0.5 7.35 -0.3 7.35 0.95 7.15 1.25 7.05 2.15 6.5 3.0 6.0 Q9.1 1.35 6.6 -5.95 L6.25 -6.9 6.2 -6.95" fill="#33b400" fill-rule="evenodd" stroke="none"/>
    <path d="M4.9 -4.5 Q6.5 -2.6 6.5 -0.05 6.5 2.85 4.45 4.85 2.45 6.9 -0.45 6.9 -2.4 6.9 -4.0 5.95 L-5.4 4.85 -6.15 3.95 Q-7.4 2.2 -7.4 -0.05 -7.4 -2.95 -5.4 -5.0 L-4.0 -6.05 Q-2.4 -7.0 -0.45 -7.0 2.45 -7.0 4.45 -5.0 L4.9 -4.5" fill="none" stroke="#ccff00" stroke-linecap="round" stroke-linejoin="round" stroke-width="1.5"/>
    <path d="M-0.5 -3.4 L-0.5 -2.9 M-0.5 -0.1 L-0.5 3.8" fill="none" stroke="#ccff00" stroke-linecap="round" stroke-linejoin="round" stroke-width="2.25"/>
  </g>
</svg>
