<?xml version="1.0" encoding="UTF-8" standalone="no"?>
<svg xmlns:xlink="http://www.w3.org/1999/xlink" height="15.65px" width="16.75px" xmlns="http://www.w3.org/2000/svg">
  <g transform="matrix(1.0, 0.0, 0.0, 1.0, -2.15, -1.8)">
    <path d="M15.85 4.2 L15.75 4.05 15.4 3.65 Q15.85 3.3 16.45 3.3 17.35 3.3 18.0 4.0 L18.35 4.6 18.6 5.7 18.6 12.05 18.4 13.1 18.0 13.7 17.1 14.35 17.05 12.05 16.95 11.5 16.65 8.55 16.25 6.4 16.15 5.5 16.15 5.25 16.3 5.45 Q16.65 5.9 17.15 5.85 17.7 5.8 17.75 5.2 L17.5 4.35 Q17.05 3.65 16.25 3.6 L16.05 3.7 15.85 4.2 M10.3 2.85 L10.9 2.85 10.9 3.75 10.9 3.9 10.85 5.25 10.85 5.65 10.9 8.6 11.15 8.9 11.55 8.95 11.8 8.55 11.9 7.7 11.9 7.6 11.85 5.35 11.85 4.65 11.9 4.0 11.9 3.95 11.9 3.75 11.9 3.15 11.9 2.85 12.65 2.85 12.65 3.8 12.65 3.9 12.65 4.0 12.65 4.35 12.65 5.4 12.65 5.7 12.7 8.65 Q12.7 9.25 13.3 9.1 L13.6 8.75 13.7 7.45 13.65 5.6 13.65 4.5 13.65 3.95 13.65 3.9 13.7 3.0 13.8 3.0 13.95 3.1 14.1 3.15 14.1 3.5 14.1 3.95 14.1 4.6 14.05 7.55 14.1 8.05 13.65 9.4 12.8 9.35 12.5 9.15 12.4 9.0 11.3 9.3 10.85 9.15 10.75 9.05 10.65 8.9 10.6 8.75 10.4 8.05 10.3 5.1 10.3 4.15 10.3 3.6 10.3 2.85 M12.15 11.0 L12.3 11.15 Q13.0 11.85 13.0 12.8 13.0 13.75 12.3 14.45 11.6 15.15 10.65 15.15 9.95 15.15 9.4 14.8 L9.35 14.75 9.3 14.7 9.25 14.65 9.2 14.65 9.15 14.55 10.0 14.8 Q10.9 15.0 11.65 14.4 L12.35 13.6 12.45 13.25 12.5 12.9 12.6 12.6 12.5 12.25 12.4 12.0 12.35 11.6 12.15 11.25 12.0 11.0 11.95 10.85 12.15 11.0 M12.15 10.15 Q12.95 10.2 13.55 10.7 14.45 11.5 14.55 12.7 L14.6 13.3 Q14.5 14.35 13.85 15.2 13.4 15.75 12.8 16.1 L12.6 16.25 Q11.2 16.9 9.75 16.25 L8.85 15.65 Q8.25 15.15 8.1 14.5 L8.5 14.95 Q9.4 15.85 10.65 15.85 11.9 15.85 12.8 14.95 13.7 14.05 13.7 12.8 13.7 11.55 12.8 10.65 L12.15 10.15 M5.7 3.6 Q5.3 3.95 5.15 4.6 L4.9 6.05 4.55 8.95 4.15 11.85 4.2 14.4 4.15 14.35 3.1 13.7 Q2.6 13.1 2.55 12.25 L2.55 12.05 2.55 5.7 2.6 5.1 Q2.7 4.45 3.1 4.0 3.75 3.3 4.65 3.3 L5.7 3.6 M4.1 3.85 L3.9 3.95 Q3.15 4.35 3.15 5.1 L3.2 5.3 Q3.55 6.05 4.35 5.75 L5.0 4.65 4.95 4.3 Q4.75 3.75 4.1 3.85" fill="#333333" fill-rule="evenodd" stroke="none"/>
    <path d="M16.15 5.25 L16.0 5.05 15.95 4.95 15.85 4.25 15.85 4.2 16.05 3.7 16.25 3.6 Q17.05 3.65 17.5 4.35 L17.75 5.2 Q17.7 5.8 17.15 5.85 16.65 5.9 16.3 5.45 L16.15 5.25 M14.1 3.15 L14.85 3.8 15.0 3.95 Q15.6 4.75 15.7 5.75 L15.75 5.75 16.45 12.1 16.7 13.4 16.55 14.45 15.7 15.9 14.35 16.85 13.45 17.05 7.5 17.05 7.1 16.95 5.45 15.9 Q4.8 15.25 4.6 14.45 L4.45 13.4 4.5 13.0 4.5 12.65 4.55 12.45 5.3 5.75 5.35 5.3 Q5.5 4.5 6.05 3.9 L6.15 3.8 6.35 3.6 7.35 3.0 8.1 2.85 9.3 2.85 10.3 2.85 10.3 3.6 Q10.05 2.8 9.05 2.9 L8.5 3.05 Q8.2 3.2 8.05 3.45 L7.9 3.7 7.85 3.8 7.75 3.8 7.6 3.8 6.6 4.7 Q5.7 5.75 5.6 7.3 5.6 7.95 5.95 8.5 6.75 9.6 8.15 9.1 L9.7 7.25 Q10.1 6.55 10.0 5.8 L9.8 5.0 9.75 4.95 10.3 4.15 10.3 5.1 10.4 8.05 10.6 8.75 10.65 8.9 10.75 9.05 10.85 9.15 11.3 9.3 12.4 9.0 12.5 9.15 12.8 9.35 13.65 9.4 14.1 8.05 14.05 7.55 14.1 4.6 14.1 3.95 14.1 3.5 14.1 3.15 M9.2 14.65 L9.0 14.45 Q8.3 13.75 8.3 12.8 8.3 11.85 9.0 11.15 9.7 10.45 10.65 10.45 L11.95 10.85 12.0 11.0 12.15 11.25 12.35 11.6 12.4 12.0 12.5 12.25 12.6 12.6 12.5 12.9 12.45 13.25 12.35 13.6 11.65 14.4 Q10.9 15.0 10.0 14.8 L9.15 14.55 9.2 14.65 M12.15 10.15 L10.65 9.75 Q9.4 9.75 8.5 10.65 7.6 11.55 7.6 12.8 7.6 13.75 8.1 14.5 8.25 15.15 8.85 15.65 L9.75 16.25 Q11.2 16.9 12.6 16.25 L12.8 16.1 Q13.4 15.75 13.85 15.2 14.5 14.35 14.6 13.3 L14.55 12.7 Q14.45 11.5 13.55 10.7 12.95 10.2 12.15 10.15 M4.1 3.85 Q4.75 3.75 4.95 4.3 L5.0 4.65 4.35 5.75 Q3.55 6.05 3.2 5.3 L3.15 5.1 Q3.15 4.35 3.9 3.95 L4.1 3.85 M9.3 13.9 L10.05 14.05 Q11.15 13.8 11.65 12.85 L11.75 12.25 Q11.35 11.1 10.05 11.2 8.9 11.55 8.75 12.7 8.7 13.45 9.3 13.9" fill="#666666" fill-rule="evenodd" stroke="none"/>
    <path d="M10.9 2.85 L10.9 2.7 11.0 2.55 11.2 2.4 Q11.8 2.4 11.9 2.85 L11.9 3.15 11.9 3.75 11.9 3.95 Q11.7 3.6 11.2 3.6 L10.9 3.9 10.9 3.75 10.9 2.85 M12.65 2.85 L12.65 2.75 Q12.65 2.4 13.0 2.25 13.75 2.25 13.7 3.0 L13.65 3.9 13.65 3.95 Q13.45 3.5 12.95 3.6 L12.85 3.65 12.8 3.65 12.75 3.75 12.65 4.0 12.65 3.9 12.65 3.8 12.65 2.85 M9.8 5.0 L10.0 5.8 Q10.1 6.55 9.7 7.25 L8.15 9.1 Q6.75 9.6 5.95 8.5 5.6 7.95 5.6 7.3 5.7 5.75 6.6 4.7 L7.6 3.8 7.75 3.8 7.7 4.0 7.7 4.65 8.4 5.15 9.75 5.0 9.8 5.0 M13.65 5.6 L13.7 7.45 13.6 8.75 13.3 9.1 Q12.7 9.25 12.7 8.65 L12.65 5.7 12.65 5.4 Q12.9 6.0 13.55 5.75 L13.65 5.6 M11.85 5.35 L11.9 7.6 11.9 7.7 11.8 8.55 11.55 8.95 11.15 8.9 10.9 8.6 10.85 5.65 10.85 5.25 10.9 5.4 11.1 5.6 11.55 5.6 11.85 5.35 M12.3 11.15 L12.35 11.15 12.15 11.0 11.95 10.85 10.65 10.45 Q9.7 10.45 9.0 11.15 8.3 11.85 8.3 12.8 8.3 13.75 9.0 14.45 L9.2 14.65 9.25 14.65 9.3 14.7 9.35 14.75 9.4 14.8 Q9.95 15.15 10.65 15.15 11.6 15.15 12.3 14.45 13.0 13.75 13.0 12.8 13.0 11.85 12.3 11.15 M8.1 14.5 Q7.6 13.75 7.6 12.8 7.6 11.55 8.5 10.65 9.4 9.75 10.65 9.75 L12.15 10.15 12.8 10.65 Q13.7 11.55 13.7 12.8 13.7 14.05 12.8 14.95 11.9 15.85 10.65 15.85 9.4 15.85 8.5 14.95 L8.1 14.5 M9.35 11.6 Q9.1 11.85 9.1 12.3 L9.35 12.7 Q10.05 13.05 10.55 12.45 L10.7 12.1 Q10.65 11.3 9.75 11.4 9.55 11.45 9.4 11.55 L9.35 11.6 M9.3 13.9 Q8.7 13.45 8.75 12.7 8.9 11.55 10.05 11.2 11.35 11.1 11.75 12.25 L11.65 12.85 Q11.15 13.8 10.05 14.05 L9.3 13.9" fill="#999999" fill-rule="evenodd" stroke="none"/>
    <path d="M9.45 3.2 L9.55 3.25 9.7 3.35 9.9 3.95 9.9 4.1 9.25 4.75 9.2 4.75 Q8.45 4.95 8.05 4.45 L8.0 4.35 7.95 4.3 7.9 4.1 7.95 3.8 8.0 3.7 8.1 3.6 8.1 3.55 Q8.05 4.3 9.0 4.15 L9.35 3.85 9.45 3.2" fill="#ffcc00" fill-rule="evenodd" stroke="none"/>
    <path d="M15.85 4.2 L15.85 4.25 15.95 4.95 16.0 5.05 16.15 5.25 16.15 5.5 16.25 6.4 16.65 8.55 16.95 11.5 17.05 12.05 17.1 14.35 18.0 13.7 18.4 13.1 18.6 12.05 18.6 5.7 18.35 4.6 18.0 4.0 Q17.35 3.3 16.45 3.3 15.85 3.3 15.4 3.65 L15.75 4.05 15.85 4.2 M16.4 3.1 Q18.0 3.05 18.65 4.6 L18.85 5.4 18.9 5.9 18.9 7.4 18.9 10.4 18.85 12.45 18.85 12.7 18.8 12.8 18.75 13.05 18.3 13.75 17.6 14.3 17.3 14.4 17.0 14.45 16.15 15.85 15.7 16.3 15.15 16.75 14.8 16.95 14.75 17.05 14.35 17.25 14.3 17.25 14.25 17.25 14.15 17.35 14.1 17.35 Q10.9 17.55 7.7 17.35 L7.5 17.35 6.8 17.2 6.15 16.9 4.9 15.95 Q4.4 15.45 4.25 14.8 L3.95 14.75 3.65 14.65 Q2.35 14.0 2.2 12.6 L2.2 9.7 2.2 9.55 2.25 8.4 2.2 7.55 2.3 5.65 2.3 5.25 2.75 3.95 Q3.2 3.2 4.1 3.15 5.2 3.0 6.0 3.6 L6.0 3.55 Q6.1 2.65 6.9 2.1 L7.5 1.8 Q8.8 1.75 9.6 2.6 L10.45 2.7 10.55 2.7 Q10.85 2.3 11.3 2.3 11.85 2.3 12.1 2.65 L12.2 2.65 12.6 2.3 Q12.85 2.15 13.05 2.15 13.8 2.2 14.0 2.85 14.6 3.05 15.05 3.55 L15.1 3.6 15.8 3.15 16.4 3.1 M6.35 3.6 L6.15 3.8 6.05 3.9 Q5.5 4.5 5.35 5.3 L5.3 5.75 4.55 12.45 4.5 12.65 4.5 13.0 4.45 13.4 4.6 14.45 Q4.8 15.25 5.45 15.9 L7.1 16.95 7.5 17.05 13.45 17.05 14.35 16.85 15.7 15.9 16.55 14.45 16.7 13.4 16.45 12.1 15.75 5.75 15.7 5.75 Q15.6 4.75 15.0 3.95 L14.85 3.8 14.1 3.15 13.95 3.1 13.8 3.0 13.7 3.0 Q13.75 2.25 13.0 2.25 12.65 2.4 12.65 2.75 L12.65 2.85 11.9 2.85 Q11.8 2.4 11.2 2.4 L11.0 2.55 10.9 2.7 10.9 2.85 10.3 2.85 9.3 2.85 Q8.85 2.3 8.15 2.3 L7.7 2.25 7.5 2.3 7.4 2.35 6.95 2.55 6.9 2.6 6.8 2.65 Q6.35 3.05 6.35 3.6 M10.3 4.15 L9.75 4.95 9.8 5.0 9.75 5.0 8.4 5.15 7.7 4.65 7.7 4.0 7.75 3.8 7.85 3.8 7.9 3.7 8.05 3.45 Q8.2 3.2 8.5 3.05 L9.05 2.9 Q10.05 2.8 10.3 3.6 L10.3 4.15 M5.7 3.6 L4.65 3.3 Q3.75 3.3 3.1 4.0 2.7 4.45 2.6 5.1 L2.55 5.7 2.55 12.05 2.55 12.25 Q2.6 13.1 3.1 13.7 L4.15 14.35 4.2 14.4 4.15 11.85 4.55 8.95 4.9 6.05 5.15 4.6 Q5.3 3.95 5.7 3.6 M8.1 3.55 L8.1 3.6 8.0 3.7 7.95 3.8 7.9 4.1 7.95 4.3 8.0 4.35 8.05 4.45 Q8.45 4.95 9.2 4.75 L9.25 4.75 9.9 4.1 9.9 3.95 9.7 3.35 9.55 3.25 9.45 3.2 9.0 3.15 8.95 3.15 8.85 3.15 8.75 3.15 8.65 3.2 8.3 3.35 8.25 3.4 8.2 3.4 8.1 3.55" fill="#000000" fill-rule="evenodd" stroke="none"/>
    <path d="M8.1 3.55 L8.2 3.4 8.25 3.4 8.3 3.35 8.65 3.2 8.75 3.15 8.85 3.15 8.95 3.15 9.0 3.15 9.45 3.2 9.35 3.85 9.0 4.15 Q8.05 4.3 8.1 3.55" fill="#ffff00" fill-rule="evenodd" stroke="none"/>
    <path d="M7.5 2.3 L7.7 2.25 8.15 2.3 Q8.85 2.3 9.3 2.85 L8.1 2.85 7.35 3.0 7.55 2.9 7.5 2.3" fill="#990000" fill-rule="evenodd" stroke="none"/>
    <path d="M6.35 3.6 Q6.35 3.05 6.8 2.65 L6.9 2.6 6.95 2.55 7.4 2.35 7.5 2.3 7.55 2.9 7.35 3.0 6.35 3.6" fill="#ff0000" fill-rule="evenodd" stroke="none"/>
    <path d="M13.65 3.95 L13.65 4.5 13.65 5.6 13.55 5.75 Q12.9 6.0 12.65 5.4 L12.65 4.35 12.65 4.0 12.75 3.75 12.8 3.65 12.85 3.65 12.95 3.6 Q13.45 3.5 13.65 3.95 M11.9 3.95 L11.9 4.0 11.85 4.65 11.85 5.35 11.55 5.6 11.1 5.6 10.9 5.4 10.85 5.25 10.9 3.9 11.2 3.6 Q11.7 3.6 11.9 3.95 M9.35 11.6 L9.4 11.55 Q9.55 11.45 9.75 11.4 10.65 11.3 10.7 12.1 L10.55 12.45 Q10.05 13.05 9.35 12.7 L9.1 12.3 Q9.1 11.85 9.35 11.6" fill="#cccccc" fill-rule="evenodd" stroke="none"/>
  </g>
</svg>
