<?xml version="1.0" encoding="UTF-8" standalone="no"?>
<svg xmlns:xlink="http://www.w3.org/1999/xlink" height="18.15px" width="7.1px" xmlns="http://www.w3.org/2000/svg">
  <g transform="matrix(1.0, 0.0, 0.0, 1.0, -6.85, -0.4)">
    <path d="M11.8 3.45 L11.75 3.45 11.05 4.45 10.55 4.35 10.35 4.55 10.25 5.35 Q10.25 6.1 10.95 5.9 L11.0 5.9 11.15 5.85 11.65 5.55 11.7 5.6 12.4 5.5 12.9 5.35 13.7 4.9 Q13.7 5.55 12.75 6.0 11.8 6.5 10.45 6.5 L8.15 6.0 Q7.2 5.55 7.2 4.9 7.2 4.25 8.15 3.75 L10.45 3.3 11.8 3.45" fill="#999999" fill-rule="evenodd" stroke="none"/>
    <path d="M13.7 4.9 L12.9 5.35 12.4 5.5 11.7 5.6 11.65 5.55 11.15 5.85 11.0 5.9 10.95 5.9 Q10.25 6.1 10.25 5.35 L10.35 4.55 10.55 4.35 11.05 4.45 11.75 3.45 11.8 3.45 12.75 3.75 Q13.7 4.25 13.7 4.9" fill="#666666" fill-rule="evenodd" stroke="none"/>
    <path d="M11.8 3.45 L10.45 3.3 8.15 3.75 Q7.2 4.25 7.2 4.9 7.2 5.55 8.15 6.0 L10.45 6.5 Q11.8 6.5 12.75 6.0 13.7 5.55 13.7 4.9 13.7 4.25 12.75 3.75 L11.8 3.45 Z" fill="none" stroke="#000000" stroke-linecap="round" stroke-linejoin="round" stroke-width="0.5"/>
    <path d="M13.7 7.25 L13.8 7.2 13.7 7.35 13.7 7.25 13.7 7.35 13.4 7.85 12.45 9.35 12.45 9.4 11.3 11.25 12.5 8.3 10.6 8.5 8.15 9.0 7.2 7.45 7.1 7.3 7.1 7.25 7.1 7.2 7.3 6.8 8.45 8.6 12.5 7.55 13.6 7.25 13.7 7.25 M13.7 12.8 L13.7 13.3 11.4 11.35 12.5 12.0 13.0 12.35 13.25 12.5 13.7 12.8 M13.7 13.7 L13.7 14.0 12.65 14.15 9.9 14.45 11.1 16.45 7.8 15.75 9.75 15.6 9.35 14.1 13.7 13.7" fill="#33ff99" fill-rule="evenodd" stroke="none"/>
    <path d="M13.7 13.3 L13.7 13.7 9.35 14.1 9.75 15.6 7.8 15.75 7.15 15.95 7.1 15.65 7.1 11.1 Q8.5 11.0 9.5 10.35 10.6 9.6 10.6 8.5 L12.5 8.3 11.3 11.25 11.4 11.35 13.7 13.3" fill="#33cc99" fill-rule="evenodd" stroke="none"/>
    <path d="M12.45 5.45 L10.05 5.75 9.8 5.7 9.75 5.7 9.0 5.6 8.1 5.4 7.45 5.05 7.1 4.95 7.1 4.8 Q10.65 6.45 13.7 4.8 L13.7 4.9 13.0 5.2 12.65 5.35 12.45 5.45 M7.25 5.85 L7.1 5.9 7.1 5.75 7.25 5.85 M7.1 6.1 Q7.95 6.75 9.0 6.85 L11.7 6.8 12.45 6.7 12.5 7.5 12.5 7.55 8.45 8.6 7.3 6.8 7.1 7.2 7.1 6.1 M13.65 6.35 L13.7 6.3 13.7 6.6 13.65 6.35 M13.7 6.9 L13.7 7.25 13.6 7.25 13.7 6.9 M13.7 7.35 L13.7 12.8 13.25 12.5 13.5 12.65 13.5 10.95 13.5 10.9 Q13.4 9.55 13.45 8.2 L13.4 7.9 13.4 7.85 13.7 7.35 M12.55 17.85 Q9.95 18.95 7.1 17.25 L7.1 17.2 8.0 17.65 8.3 17.8 8.35 17.85 8.9 18.0 9.5 18.1 10.05 18.15 12.35 17.9 12.55 17.85 M7.1 16.1 L7.1 15.95 7.15 15.95 7.8 15.75 11.1 16.45 9.9 14.45 12.65 14.15 12.65 16.5 12.65 16.55 13.15 16.4 11.7 16.75 8.4 16.55 7.65 16.2 7.45 16.1 7.1 16.1 M12.45 9.4 L12.45 10.85 12.5 12.0 11.4 11.35 11.3 11.25 12.45 9.4" fill="#00cccc" fill-rule="evenodd" stroke="none"/>
    <path d="M10.05 5.75 L10.35 6.05 10.35 6.55 9.5 6.45 8.05 6.15 7.95 5.9 Q7.85 5.6 8.1 5.4 L9.0 5.6 9.75 5.7 9.8 5.7 10.05 5.75 M13.7 4.95 L13.7 4.9 13.7 4.95 M13.7 16.95 L13.7 17.25 13.65 17.3 13.7 16.95 M8.2 16.85 L10.25 17.3 10.35 17.55 Q10.45 17.9 10.2 18.1 L10.05 18.15 9.5 18.1 8.9 18.0 8.35 17.85 8.3 17.8 8.05 17.2 Q8.05 17.0 8.2 16.85" fill="#cccccc" fill-rule="evenodd" stroke="none"/>
    <path d="M10.35 6.55 L12.25 6.3 12.45 6.25 12.4 6.15 Q12.25 5.75 12.45 5.45 L12.65 5.35 13.0 5.2 13.7 4.9 13.7 4.95 13.7 6.3 13.65 6.35 13.25 6.5 12.45 6.7 11.7 6.8 9.0 6.85 Q7.95 6.75 7.1 6.1 L7.1 5.9 7.25 5.85 7.85 6.1 8.05 6.15 9.5 6.45 10.35 6.55 M13.7 16.25 L13.7 16.95 13.65 17.3 13.55 17.35 13.4 17.45 12.8 17.75 12.6 17.3 12.6 17.0 10.25 17.3 8.2 16.85 7.4 16.5 7.1 16.3 7.1 16.1 7.45 16.1 7.65 16.2 8.4 16.55 11.7 16.75 13.15 16.4 13.3 16.35 13.7 16.25" fill="#666666" fill-rule="evenodd" stroke="none"/>
    <path d="M12.45 6.7 L13.25 6.5 13.65 6.35 13.7 6.6 13.7 6.9 13.6 7.25 12.5 7.55 12.5 7.5 12.45 6.7 M13.7 14.0 L13.7 16.25 13.3 16.35 13.15 16.4 12.65 16.55 12.65 16.5 12.65 14.15 13.7 14.0 M13.4 7.85 L13.4 7.9 13.45 8.2 Q13.4 9.55 13.5 10.9 L13.5 10.95 13.5 12.65 13.25 12.5 13.0 12.35 12.5 12.0 12.45 10.85 12.45 9.4 12.45 9.35 13.4 7.85" fill="#339999" fill-rule="evenodd" stroke="none"/>
    <path d="M12.45 5.45 Q12.25 5.75 12.4 6.15 L12.45 6.25 12.25 6.3 10.35 6.55 10.35 6.05 10.05 5.75 12.45 5.45 M8.05 6.15 L7.85 6.1 7.25 5.85 7.1 5.75 7.1 4.95 7.45 5.05 8.1 5.4 Q7.85 5.6 7.95 5.9 L8.05 6.15 M12.8 17.75 L12.55 17.85 12.35 17.9 10.05 18.15 10.2 18.1 Q10.45 17.9 10.35 17.55 L10.25 17.3 12.6 17.0 12.6 17.3 12.8 17.75 M7.1 17.2 L7.1 16.3 7.4 16.5 8.2 16.85 Q8.05 17.0 8.05 17.2 L8.3 17.8 8.0 17.65 7.1 17.2" fill="#999999" fill-rule="evenodd" stroke="none"/>
    <path d="M7.1 11.1 L7.1 7.5 7.2 7.45 8.15 9.0 10.6 8.5 Q10.6 9.6 9.5 10.35 8.5 11.0 7.1 11.1" fill="#99cc99" fill-rule="evenodd" stroke="none"/>
    <path d="M7.1 5.9 L7.1 6.1 7.1 7.2 M13.7 6.3 L13.7 4.95 13.7 4.9 13.7 4.8 Q10.65 6.45 7.1 4.8 L7.1 4.95 7.1 5.75 7.1 5.9 M13.7 6.3 L13.7 6.6 13.7 6.9 13.7 7.25 13.7 7.35 13.7 12.8 13.7 13.3 13.7 13.7 13.7 14.0 13.7 16.25 13.7 16.95 13.7 17.25 13.65 17.3 13.55 17.35 13.4 17.45 12.8 17.75 12.55 17.85 Q9.95 18.95 7.1 17.25 L7.1 17.2 7.1 16.3 7.1 16.1 7.1 15.95 7.1 15.65 7.1 11.1 7.1 7.5 7.1 7.3" fill="none" stroke="#000000" stroke-linecap="round" stroke-linejoin="round" stroke-width="0.5"/>
    <path d="M9.15 3.1 L9.2 3.3 Q9.6 4.15 10.45 3.75 L10.5 3.7 Q11.05 3.3 10.9 2.65 10.8 1.85 10.05 1.65 L9.55 1.75 9.15 2.35 9.35 1.15 Q10.35 0.2 11.3 1.15 11.8 2.55 11.3 4.3 10.25 5.1 9.35 4.3 L9.15 3.1 M9.65 2.0 Q10.45 1.95 10.55 2.75 10.6 3.35 10.0 3.5 9.15 3.55 9.15 2.75 9.15 2.25 9.6 2.1 L9.65 2.0 M9.55 2.25 L9.5 2.3 Q9.15 2.5 9.25 2.9 9.45 3.45 10.05 3.25 L10.2 2.95 Q10.3 2.25 9.55 2.25" fill="#cccccc" fill-rule="evenodd" stroke="none"/>
    <path d="M9.15 2.35 L9.55 1.75 10.05 1.65 Q10.8 1.85 10.9 2.65 11.05 3.3 10.5 3.7 L10.45 3.75 Q9.6 4.15 9.2 3.3 L9.15 3.1 9.15 3.05 9.15 2.35 M9.65 2.0 L9.6 2.1 Q9.15 2.25 9.15 2.75 9.15 3.55 10.0 3.5 10.6 3.35 10.55 2.75 10.45 1.95 9.65 2.0" fill="#999999" fill-rule="evenodd" stroke="none"/>
    <path d="M9.55 2.25 Q10.3 2.25 10.2 2.95 L10.05 3.25 Q9.45 3.45 9.25 2.9 9.15 2.5 9.5 2.3 L9.55 2.25" fill="#333333" fill-rule="evenodd" stroke="none"/>
    <path d="M9.15 3.1 L9.35 4.3 M11.3 4.3 Q11.8 2.55 11.3 1.15 10.35 0.2 9.35 1.15 L9.15 2.35 9.15 3.05 9.15 3.1" fill="none" stroke="#000000" stroke-linecap="round" stroke-linejoin="round" stroke-width="0.5"/>
    <path d="M9.35 4.3 Q10.25 5.1 11.3 4.3" fill="none" stroke="#666666" stroke-linecap="round" stroke-linejoin="round" stroke-width="0.5"/>
  </g>
</svg>
