<?xml version="1.0" encoding="UTF-8" standalone="no"?>
<svg xmlns:xlink="http://www.w3.org/1999/xlink" height="46.75px" width="48.0px" xmlns="http://www.w3.org/2000/svg">
  <g transform="matrix(1.0, 0.0, 0.0, 1.0, 23.95, 23.35)">
    <path d="M24.0 -1.3 L23.8 1.1 Q23.45 5.45 20.85 8.85 L18.05 11.95 Q15.55 14.7 13.75 18.0 L12.55 19.4 Q8.05 22.2 3.25 23.15 L-0.65 23.25 Q-2.35 23.05 -3.7 22.0 -5.2 20.9 -7.25 20.6 -8.5 20.4 -9.55 19.5 L-10.75 17.85 -11.2 17.55 -11.3 17.4 -10.75 17.4 -10.8 17.25 Q-17.5 17.65 -21.0 12.15 -23.1 8.85 -23.5 4.85 L-23.9 1.5 Q-24.1 0.2 -23.6 -0.7 -24.15 -3.85 -23.65 -7.05 -22.65 -14.8 -15.7 -19.05 -11.3 -21.8 -5.9 -22.5 L-0.5 -23.35 Q5.25 -22.65 10.95 -20.9 L12.7 -20.0 Q16.95 -17.05 20.3 -12.85 22.9 -9.65 23.0 -5.6 24.2 -4.05 24.0 -1.3 M15.1 -10.05 Q11.25 -14.75 7.1 -18.8 2.35 -21.3 -3.0 -20.35 L-5.95 -18.75 -8.65 -17.1 Q-10.65 -14.6 -13.75 -13.15 L-14.85 -12.55 Q-19.35 -9.5 -20.25 -4.25 -20.25 -3.95 -20.4 -3.75 L-20.5 -2.8 -20.6 -1.0 -20.8 -0.05 Q-18.5 3.0 -16.85 6.5 L-15.35 9.6 Q-13.6 10.9 -12.8 13.05 L-12.7 13.2 Q-10.75 13.95 -10.3 15.9 L-10.25 16.15 -8.2 17.7 -7.45 17.9 -6.05 18.1 0.55 17.45 Q3.6 17.05 6.4 15.45 L7.7 14.65 Q11.25 12.35 15.05 10.5 L16.0 9.55 Q17.7 6.45 18.5 3.15 L18.45 -2.4 17.55 -5.3 Q16.8 -7.9 15.1 -10.05" fill="#00cccc" fill-rule="evenodd" stroke="none"/>
  </g>
</svg>
