<?xml version="1.0" encoding="UTF-8" standalone="no"?>
<svg xmlns:xlink="http://www.w3.org/1999/xlink" height="141.05px" width="52.65px" xmlns="http://www.w3.org/2000/svg">
  <g transform="matrix(1.0, 0.0, 0.0, 1.0, 34.35, 32.0)">
    <path d="M-22.05 15.95 Q-23.3 14.8 -23.55 13.4 L-23.1 14.6 -22.05 15.85 -22.05 15.95 M-13.75 -13.5 L-13.7 -14.15 -13.2 -14.6 -13.45 -14.35 -13.75 -13.5 M-5.75 -21.65 L-4.2 -23.1 -2.85 -23.35 Q1.75 -24.3 5.8 -26.8 L6.35 -23.5 Q6.55 -21.8 7.25 -20.2 9.25 -15.85 13.3 -12.95 13.65 -12.0 13.45 -11.15 L13.3 -10.3 Q13.0 -7.1 11.55 -4.25 10.8 -2.75 10.8 -1.05 10.95 6.3 7.6 12.7 7.2 13.4 7.1 14.05 5.9 20.65 6.2 27.5 6.5 33.4 7.8 39.15 9.75 47.95 9.2 56.8 9.15 57.8 8.5 58.55 3.7 63.75 4.4 70.8 L5.2 77.7 Q3.3 78.85 2.7 80.95 1.5 85.4 1.4 90.15 1.3 96.9 2.2 103.45 0.9 102.8 -0.5 102.5 L-4.75 101.25 Q-7.0 100.3 -8.65 98.35 -16.35 89.1 -22.8 78.95 L-23.6 77.4 Q-25.4 73.1 -28.9 71.0 -26.9 68.05 -26.9 64.5 -26.9 59.05 -25.9 53.9 L-25.4 53.15 -25.1 52.05 Q-21.6 47.05 -20.8 41.0 L-20.5 37.8 Q-20.3 30.4 -18.75 23.2 -18.2 20.7 -17.25 18.35 -15.55 14.2 -18.75 11.35 -16.9 10.15 -15.8 8.3 -15.4 7.65 -14.8 7.35 -11.8 5.9 -11.8 2.9 L-11.8 1.55 Q-12.15 -4.05 -9.9 -9.45 -7.35 -15.6 -5.75 -21.65" fill="#99ccff" fill-rule="evenodd" stroke="none"/>
    <path d="M-4.2 -23.1 L5.15 -32.0 6.8 -31.8 18.3 -12.9 14.65 2.1 10.3 11.75 10.65 24.5 10.05 35.35 10.8 41.75 10.9 54.35 7.4 62.5 6.8 67.75 7.15 72.1 Q13.8 76.25 8.6 81.6 L7.4 82.5 4.65 83.95 6.15 97.85 Q8.9 106.1 0.1 108.65 -3.65 109.7 -7.5 108.05 -10.35 106.65 -11.6 103.5 L-21.2 91.5 -22.6 83.75 -27.7 78.6 Q-35.95 78.2 -33.95 71.2 L-33.75 70.55 -33.65 70.35 -33.6 70.25 -33.5 70.05 -33.25 69.5 -30.45 66.85 -30.35 66.8 -30.25 66.7 -30.15 66.65 -30.05 66.6 -29.65 66.45 -29.45 66.35 -30.1 58.6 -21.6 31.5 -20.2 17.25 -22.05 15.95 -22.05 15.85 -23.1 14.6 -23.55 13.4 -23.65 12.15 Q-23.5 10.7 -22.6 9.1 L-22.5 8.95 -22.45 8.8 -22.4 8.7 Q-21.35 7.05 -19.55 5.9 -17.45 4.55 -15.75 2.35 L-13.75 -13.5 -13.45 -14.35 -13.2 -14.6 -5.75 -21.65 Q-7.35 -15.6 -9.9 -9.45 -12.15 -4.05 -11.8 1.55 L-11.8 2.9 Q-11.8 5.9 -14.8 7.35 -15.4 7.65 -15.8 8.3 -16.9 10.15 -18.75 11.35 -15.55 14.2 -17.25 18.35 -18.2 20.7 -18.75 23.2 -20.3 30.4 -20.5 37.8 L-20.8 41.0 Q-21.6 47.05 -25.1 52.05 L-25.4 53.15 -25.9 53.9 Q-26.9 59.05 -26.9 64.5 -26.9 68.05 -28.9 71.0 -25.4 73.1 -23.6 77.4 L-22.8 78.95 Q-16.35 89.1 -8.65 98.35 -7.0 100.3 -4.75 101.25 L-0.5 102.5 Q0.9 102.8 2.2 103.45 1.3 96.9 1.4 90.15 1.5 85.4 2.7 80.95 3.3 78.85 5.2 77.7 L4.4 70.8 Q3.7 63.75 8.5 58.55 9.15 57.8 9.2 56.8 9.75 47.95 7.8 39.15 6.5 33.4 6.2 27.5 5.9 20.65 7.1 14.05 7.2 13.4 7.6 12.7 10.95 6.3 10.8 -1.05 10.8 -2.75 11.55 -4.25 13.0 -7.1 13.3 -10.3 L13.45 -11.15 Q13.65 -12.0 13.3 -12.95 9.25 -15.85 7.25 -20.2 6.55 -21.8 6.35 -23.5 L5.8 -26.8 Q1.75 -24.3 -2.85 -23.35 L-4.2 -23.1" fill="#6699ff" fill-rule="evenodd" stroke="none"/>
  </g>
</svg>
