<?xml version="1.0" encoding="UTF-8" standalone="no"?>
<svg xmlns:xlink="http://www.w3.org/1999/xlink" height="13.45px" width="17.45px" xmlns="http://www.w3.org/2000/svg">
  <g transform="matrix(1.0, 0.0, 0.0, 1.0, -2.35, -2.45)">
    <path d="M4.6 3.55 L19.8 3.55 19.8 13.0 19.65 13.2 19.0 13.75 17.85 14.85 17.4 15.2 16.95 15.7 16.8 15.9 2.35 15.9 2.35 5.9 4.6 3.55" fill="#000000" fill-rule="evenodd" stroke="none"/>
    <path d="M18.5 4.5 L18.5 6.1 18.5 8.45 18.5 10.85 18.5 12.55 18.25 12.75 16.35 14.4 16.2 14.55 7.8 14.55 6.65 14.5 6.65 14.0 6.65 12.4 6.65 10.8 6.65 9.25 6.65 7.7 6.65 6.1 6.65 4.55 6.65 4.45 8.4 4.5 8.5 4.45 Q8.85 4.1 8.55 3.75 L14.95 3.75 Q14.7 4.0 14.95 4.4 L15.05 4.4 18.5 4.45 18.5 4.5" fill="#ff9900" fill-rule="evenodd" stroke="none"/>
    <path d="M6.65 14.5 L6.65 15.35 6.65 15.4 6.65 15.55 2.65 15.55 2.65 15.2 2.9 15.05 3.05 14.95 3.5 14.65 3.5 14.55 6.65 14.5 M5.5 8.3 L5.5 9.5 4.65 9.45 4.3 9.5 4.35 8.25 5.5 8.3 M4.25 12.35 L4.25 11.3 5.1 11.35 5.45 11.35 5.4 12.05 5.45 12.35 4.65 12.4 4.25 12.4 4.25 12.35" fill="#cc0000" fill-rule="evenodd" stroke="none"/>
    <path d="M6.65 4.45 L6.65 4.55 6.65 6.1 6.65 7.7 6.65 9.25 6.65 10.8 6.65 12.4 6.65 14.0 6.65 14.5 3.5 14.55 3.5 13.5 3.5 11.15 3.5 8.8 3.4 6.45 3.4 6.3 3.8 5.9 5.15 4.65 5.6 4.35 6.65 4.4 6.65 4.45 M3.8 9.75 L3.8 9.9 5.9 9.9 5.9 7.8 5.7 7.8 3.8 7.8 3.8 9.75 M5.8 10.9 L3.8 10.9 3.8 12.85 3.8 13.0 5.9 13.0 5.9 10.9 5.8 10.9" fill="#ff6633" fill-rule="evenodd" stroke="none"/>
    <path d="M6.65 14.5 L7.8 14.55 16.2 14.55 16.35 14.4 18.25 12.75 18.5 12.55 18.5 10.85 18.5 8.45 18.5 6.1 18.5 4.5 19.35 3.9 19.35 3.75 19.45 3.75 19.45 12.8 19.25 12.95 18.15 14.0 17.55 14.55 17.15 14.9 16.8 15.3 16.75 15.35 16.55 15.55 6.65 15.55 6.65 15.4 6.65 15.35 6.65 14.5" fill="#c25525" fill-rule="evenodd" stroke="none"/>
    <path d="M18.5 4.5 L18.5 4.45 15.05 4.4 14.95 4.4 Q14.7 4.0 14.95 3.75 L19.35 3.75 19.35 3.9 18.5 4.5 M8.55 3.75 Q8.85 4.1 8.5 4.45 L8.4 4.5 6.65 4.45 6.65 4.4 6.65 3.75 8.55 3.75" fill="#ffff66" fill-rule="evenodd" stroke="none"/>
    <path d="M6.65 3.75 L6.65 4.4 5.6 4.35 5.15 4.65 3.8 5.9 3.4 6.3 3.4 6.45 3.5 8.8 3.5 11.15 3.5 13.5 3.5 14.55 3.5 14.65 3.05 14.95 2.9 15.05 2.65 15.2 2.65 6.0 3.0 5.7 4.15 4.5 4.6 4.05 4.85 3.75 6.65 3.75 M5.5 8.3 L4.35 8.25 4.3 9.5 4.15 9.6 3.8 9.75 3.8 7.8 5.7 7.8 5.65 7.85 5.55 8.0 5.55 8.3 5.5 8.3 M5.45 11.35 L5.1 11.35 4.25 11.3 4.25 12.35 3.95 12.6 3.8 12.85 3.8 10.9 5.8 10.9 5.6 11.1 5.5 11.35 5.45 11.35" fill="#ffcc00" fill-rule="evenodd" stroke="none"/>
    <path d="M4.3 9.5 L4.65 9.45 5.5 9.5 5.5 8.3 5.55 8.3 5.55 8.0 5.65 7.85 5.7 7.8 5.9 7.8 5.9 9.9 3.8 9.9 3.8 9.75 4.15 9.6 4.3 9.5 M4.25 12.35 L4.25 12.4 4.65 12.4 5.45 12.35 5.4 12.05 5.45 11.35 5.5 11.35 5.6 11.1 5.8 10.9 5.9 10.9 5.9 13.0 3.8 13.0 3.8 12.85 3.95 12.6 4.25 12.35" fill="#660000" fill-rule="evenodd" stroke="none"/>
    <path d="M17.05 8.25 L17.1 8.25 17.1 8.75 17.1 10.45 17.1 11.6 16.8 11.85 15.2 13.3 15.15 13.3 8.4 13.35 8.4 11.2 8.4 8.85 8.4 8.35 17.05 8.25" fill="#ff9900" fill-rule="evenodd" stroke="none"/>
    <path d="M17.05 8.25 L8.4 8.35 8.4 8.85 8.4 11.2 8.4 13.35 8.4 13.4 7.95 13.6 7.95 7.8 17.55 7.8 17.25 8.05 17.05 8.25" fill="#ffff66" fill-rule="evenodd" stroke="none"/>
    <path d="M8.4 13.35 L15.15 13.3 15.2 13.3 16.8 11.85 17.1 11.6 17.1 10.45 17.1 8.75 17.1 8.25 17.05 8.25 17.25 8.05 17.55 7.8 17.7 7.8 17.7 11.65 Q17.6 11.65 17.55 11.75 L17.1 12.2 16.65 12.6 15.9 13.3 15.45 13.8 7.95 13.8 7.95 13.6 8.4 13.4 8.4 13.35" fill="#c25525" fill-rule="evenodd" stroke="none"/>
    <path d="M14.35 2.65 L15.25 2.65 15.25 3.3 15.25 4.45 15.25 5.6 15.25 6.5 8.2 6.5 8.2 6.4 8.2 5.25 8.2 4.05 8.2 2.9 8.2 2.65 8.8 2.65 9.25 2.65 9.3 2.65 9.3 5.95 9.75 5.95 10.35 5.95 10.35 2.65 10.75 2.65 11.25 2.65 11.25 5.95 11.75 5.95 12.35 5.95 12.35 2.65 12.65 2.65 13.15 2.65 13.15 5.95 13.75 5.95 14.35 5.95 14.35 2.65" fill="#00cc33" fill-rule="evenodd" stroke="none"/>
    <path d="M9.3 2.65 L9.25 2.65 8.8 2.65 8.2 2.65 8.2 2.9 8.2 4.05 8.2 5.25 8.2 6.4 8.2 6.5 15.25 6.5 15.25 5.6 15.25 4.45 15.25 3.3 15.25 2.65 14.35 2.65 13.85 2.65 13.75 2.65 13.25 2.65 13.15 2.65 12.65 2.65 12.35 2.65 11.85 2.65 11.75 2.65 11.35 2.65 11.25 2.65 10.75 2.65 10.35 2.65 9.9 2.65 9.85 2.65 9.75 2.65 9.4 2.65 9.3 2.65 M15.55 6.8 L7.9 6.8 7.9 2.45 15.55 2.45 15.55 6.8" fill="#000000" fill-rule="evenodd" stroke="none"/>
    <path d="M13.75 5.95 L13.15 5.95 13.15 2.65 13.25 2.65 13.75 2.65 13.75 5.95 M11.75 5.95 L11.25 5.95 11.25 2.65 11.35 2.65 11.75 2.65 11.75 5.95 M9.75 5.95 L9.3 5.95 9.3 2.65 9.4 2.65 9.75 2.65 9.75 5.95" fill="#ffff66" fill-rule="evenodd" stroke="none"/>
    <path d="M14.35 2.65 L14.35 5.95 13.75 5.95 13.75 2.65 13.85 2.65 14.35 2.65 M12.35 2.65 L12.35 5.95 11.75 5.95 11.75 2.65 11.85 2.65 12.35 2.65 M10.35 2.65 L10.35 5.95 9.75 5.95 9.75 2.65 9.85 2.65 9.9 2.65 10.35 2.65" fill="#336600" fill-rule="evenodd" stroke="none"/>
  </g>
</svg>
