<?xml version="1.0" encoding="UTF-8" standalone="no"?>
<svg xmlns:xlink="http://www.w3.org/1999/xlink" height="18.2px" width="18.2px" xmlns="http://www.w3.org/2000/svg">
  <g transform="matrix(1.0, 0.0, 0.0, 1.0, 9.1, 9.1)">
    <path d="M6.4 -6.45 Q9.1 -3.75 9.1 0.0 9.1 3.75 6.4 6.4 3.75 9.1 0.0 9.1 -3.75 9.1 -6.45 6.4 -9.1 3.75 -9.1 0.0 -9.1 -3.75 -6.45 -6.45 -3.75 -9.1 0.0 -9.1 3.75 -9.1 6.4 -6.45" fill="#000000" fill-rule="evenodd" stroke="none"/>
    <path d="M5.75 -6.0 L5.8 -5.95 5.75 -6.0" fill="#666600" fill-rule="evenodd" stroke="none"/>
    <path d="M5.8 -5.95 Q8.25 -3.5 8.3 -0.05 8.25 3.4 5.8 5.8 3.4 8.25 -0.05 8.3 -3.5 8.25 -5.95 5.8 L-6.2 5.5 Q-3.9 6.55 -1.2 6.65 1.15 6.7 2.9 5.4 8.3 1.35 6.1 -5.1 L5.8 -5.95" fill="#7c7c7c" fill-rule="evenodd" stroke="none"/>
    <path d="M0.95 -1.7 L-0.55 0.25 Q-2.7 2.7 -5.4 0.9 -6.1 0.4 -6.3 -0.45 -6.85 -3.05 -4.75 -5.0 -3.9 -5.8 -2.8 -6.05 -1.05 -6.45 0.3 -5.5 2.5 -3.95 0.95 -1.7" fill="#a7a7a7" fill-rule="evenodd" stroke="none"/>
    <path d="M-6.2 5.5 L-6.25 5.5 -7.1 4.35 Q-8.3 2.55 -8.35 0.3 L-8.35 -0.05 Q-8.35 -3.5 -5.95 -5.95 -3.5 -8.35 -0.05 -8.35 3.35 -8.35 5.75 -6.0 L5.8 -5.95 6.1 -5.1 Q8.3 1.35 2.9 5.4 1.15 6.7 -1.2 6.65 -3.9 6.55 -6.2 5.5 M0.95 -1.7 Q2.5 -3.95 0.3 -5.5 -1.05 -6.45 -2.8 -6.05 -3.9 -5.8 -4.75 -5.0 -6.85 -3.05 -6.3 -0.45 -6.1 0.4 -5.4 0.9 -2.7 2.7 -0.55 0.25 L0.95 -1.7" fill="#959595" fill-rule="evenodd" stroke="none"/>
    <path d="M-1.15 -4.8 L1.1 -4.6 1.7 -4.2 Q2.5 -3.5 2.4 -2.55 2.25 -1.35 1.25 -0.8 L1.25 -0.75 -1.25 -0.6 1.8 -0.15 2.75 0.5 Q3.7 1.35 3.55 2.6 3.35 4.2 1.95 5.0 L1.7 5.05 -1.4 5.2 M-1.05 2.3 L-1.85 2.3" fill="none" stroke="#003300" stroke-linecap="round" stroke-linejoin="round" stroke-width="1.75"/>
    <path d="M1.7 -4.2 Q1.4 -4.8 0.6 -5.2 L-1.65 -5.4 M1.7 -4.2 L1.9 -3.15 Q1.75 -1.95 0.75 -1.35 L-1.75 -1.2 1.25 -0.8 1.3 -0.75 2.75 0.5 Q3.15 1.15 3.05 2.0 2.85 3.6 1.45 4.4 L1.2 4.45 -1.9 4.6 M-1.55 1.7 L-2.35 1.7" fill="none" stroke="#ffffff" stroke-linecap="round" stroke-linejoin="round" stroke-width="1.75"/>
  </g>
</svg>
