<?xml version="1.0" encoding="UTF-8" standalone="no"?>
<svg xmlns:xlink="http://www.w3.org/1999/xlink" height="17.9px" width="19.2px" xmlns="http://www.w3.org/2000/svg">
  <g transform="matrix(1.0, 0.0, 0.0, 1.0, -0.5, -0.5)">
    <path d="M18.1 8.5 L17.95 7.7 16.55 2.45 14.65 2.45 14.35 2.35 13.9 2.25 13.4 2.15 11.05 1.55 11.0 1.55 8.4 1.55 1.35 3.85 2.15 6.4 2.75 8.75 3.45 11.7 3.55 12.35 4.4 17.65 4.75 17.65 13.55 16.75 13.85 16.7 16.15 16.3 17.15 16.05 17.55 15.95 18.75 15.7 18.7 14.15 18.6 12.2 18.55 11.2 18.45 10.55 18.1 8.5 M17.1 1.75 L19.7 11.55 19.7 16.1 Q12.5 18.6 3.45 18.4 3.2 10.55 0.5 3.65 L7.5 1.05 8.6 0.5 17.1 1.75" fill="#000000" fill-rule="evenodd" stroke="none"/>
    <path d="M3.6 7.45 L3.55 7.5 3.55 7.45 3.6 7.45" fill="#cccc99" fill-rule="evenodd" stroke="none"/>
    <path d="M17.95 7.7 L17.25 6.2 17.0 5.7 16.85 5.5 15.4 3.5 14.85 2.85 14.35 2.35 14.65 2.45 16.55 2.45 17.95 7.7 M11.0 1.55 L10.9 1.55 9.75 1.95 9.75 1.9 8.95 2.2 7.6 2.6 4.75 3.65 3.85 4.0 2.35 4.55 Q2.75 4.95 2.6 5.55 2.55 5.7 2.65 5.85 2.9 6.5 2.55 6.9 L2.35 7.05 2.15 6.4 1.35 3.85 8.4 1.55 11.0 1.55 M3.55 12.35 Q4.25 12.45 4.5 13.2 L4.85 14.0 Q5.2 14.65 4.85 15.25 L5.0 16.4 5.1 17.0 5.9 16.9 6.15 16.85 6.9 16.7 7.55 16.6 7.65 16.6 9.25 16.5 9.45 16.5 10.8 16.55 12.7 16.65 13.85 16.7 13.55 16.75 4.75 17.65 4.4 17.65 3.55 12.35" fill="#999900" fill-rule="evenodd" stroke="none"/>
    <path d="M15.55 5.2 L15.85 5.55 17.5 7.55 18.1 8.5 18.45 10.55 18.4 10.5 18.2 10.65 Q17.75 11.2 17.7 11.9 L16.6 10.85 16.45 10.65 16.25 10.45 16.2 10.4 15.95 10.15 16.0 10.1 16.2 9.6 16.0 7.4 15.55 5.2 M13.4 2.15 L14.1 5.4 14.35 6.5 13.35 5.9 12.6 5.4 12.25 5.15 12.05 5.15 11.9 5.3 11.05 2.2 10.9 1.55 11.0 1.55 11.05 1.55 13.4 2.15 M9.4 2.15 L10.65 6.2 10.85 6.55 10.8 6.55 10.75 6.65 10.6 6.85 9.15 8.35 8.95 7.0 8.0 2.75 7.7 2.85 8.35 2.55 9.15 2.25 9.4 2.15 M13.3 12.75 L15.3 13.05 15.55 13.1 15.6 13.45 15.9 14.65 16.15 16.3 13.85 16.7 13.2 13.3 13.1 12.75 13.3 12.75 M11.65 12.6 L11.75 12.6 11.95 13.9 12.45 16.65 12.7 16.65 10.8 16.55 9.75 12.5 9.95 12.5 11.65 12.6 M6.45 3.4 L6.95 5.65 7.65 8.65 7.4 8.65 5.6 8.2 5.55 8.05 4.3 4.2 6.45 3.4 M4.2 10.4 L4.3 10.4 4.7 10.5 5.55 13.8 6.15 16.85 5.9 16.9 5.8 16.35 5.55 15.45 5.4 14.5 5.4 14.35 4.85 12.95 Q4.3 12.1 3.45 11.7 L2.75 8.75 3.6 10.2 3.65 10.3 4.2 10.4 M2.55 6.9 L2.7 6.8 2.95 6.45 3.05 6.05 3.25 6.8 3.45 7.4 2.75 7.3 2.4 7.25 2.35 7.05 2.55 6.9 M6.6 12.2 L7.6 12.45 8.3 12.45 8.65 14.2 9.25 16.5 7.65 16.6 7.45 15.6 7.5 15.35 6.75 12.35 6.6 12.2 M17.0 13.4 L17.2 13.45 18.2 13.85 18.7 14.15 18.75 15.7 17.55 15.95 17.25 14.45 17.0 13.4" fill="#aba94e" fill-rule="evenodd" stroke="none"/>
    <path d="M14.35 6.5 L14.95 7.0 15.1 8.45 Q14.65 8.75 14.75 9.35 L14.85 10.15 Q15.0 11.6 15.3 13.05 L13.3 12.75 13.0 10.45 12.05 6.1 11.75 5.4 11.9 5.3 12.05 5.15 12.25 5.15 12.6 5.4 13.35 5.9 14.35 6.5 M10.6 6.85 L10.8 7.5 11.25 9.6 11.65 12.6 9.95 12.5 8.95 8.5 8.95 8.45 8.35 8.6 9.05 8.4 9.15 8.35 10.6 6.85 M16.45 10.65 L16.6 10.85 17.7 11.9 18.1 12.1 18.5 12.2 18.6 12.2 18.7 14.15 18.2 13.85 17.2 13.45 17.0 13.4 16.85 13.35 16.8 13.1 16.6 10.85 16.45 10.65 M5.6 8.2 L7.4 8.65 7.6 9.5 8.2 11.9 8.35 12.45 8.3 12.45 7.6 12.45 6.6 12.2 6.55 12.2 6.3 11.55 Q5.55 9.85 5.3 8.05 L5.6 8.2 M3.55 7.45 L3.55 7.5 3.6 7.75 4.2 10.4 3.65 10.3 3.6 10.2 2.75 8.75 2.15 6.4 2.35 7.05 2.4 7.25 2.75 7.3 3.45 7.4 3.55 7.45" fill="#cccc66" fill-rule="evenodd" stroke="none"/>
    <path d="M15.55 5.2 L15.05 4.55 14.9 4.3 14.8 4.15 14.6 3.8 Q14.25 3.2 14.8 2.85 L14.85 2.85 15.4 3.5 16.85 5.5 17.0 5.7 17.25 6.2 17.95 7.7 18.1 8.5 17.5 7.55 15.85 5.55 15.55 5.2 M9.75 1.95 L9.4 2.15 9.15 2.25 8.35 2.55 7.7 2.85 6.45 3.4 4.3 4.2 4.3 4.15 4.1 4.25 4.05 4.25 Q3.65 4.35 3.35 4.6 L3.05 6.05 2.95 6.45 2.7 6.8 2.55 6.9 Q2.9 6.5 2.65 5.85 2.55 5.7 2.6 5.55 2.75 4.95 2.35 4.55 L3.85 4.0 4.75 3.65 7.6 2.6 8.95 2.2 9.75 1.9 9.75 1.95 M17.7 11.9 Q17.75 11.2 18.2 10.65 L18.4 10.5 18.45 10.55 18.55 11.2 18.6 12.2 18.5 12.2 18.1 12.1 17.7 11.9 M3.55 12.35 L3.45 11.7 Q4.3 12.1 4.85 12.95 L5.4 14.35 5.4 14.5 5.55 15.45 5.8 16.35 5.9 16.9 5.1 17.0 5.0 16.4 4.85 15.25 Q5.2 14.65 4.85 14.0 L4.5 13.2 Q4.25 12.45 3.55 12.35" fill="#cccc33" fill-rule="evenodd" stroke="none"/>
    <path d="M14.85 2.85 L14.8 2.85 Q14.25 3.2 14.6 3.8 L14.8 4.15 14.9 4.3 15.05 4.55 15.55 5.2 16.0 7.4 16.2 9.6 16.0 10.1 15.95 10.15 Q15.3 9.35 15.1 8.45 L14.95 7.0 14.35 6.5 14.1 5.4 13.4 2.15 13.9 2.25 14.35 2.35 14.85 2.85 M10.9 1.55 L11.05 2.2 11.9 5.3 11.75 5.4 10.85 6.55 10.65 6.2 9.4 2.15 9.75 1.95 10.9 1.55 M11.75 12.6 L13.1 12.75 13.2 13.3 13.85 16.7 12.7 16.65 12.45 16.65 11.95 13.9 11.75 12.6 M7.7 2.85 L8.0 2.75 8.95 7.0 9.15 8.35 9.05 8.4 8.35 8.6 7.75 8.65 7.65 8.65 6.95 5.65 6.45 3.4 7.7 2.85 M4.3 4.2 L5.55 8.05 5.6 8.2 5.3 8.05 4.75 7.8 4.4 7.65 3.6 7.45 3.55 7.45 3.45 7.4 3.25 6.8 3.05 6.05 3.35 4.6 Q3.65 4.35 4.05 4.25 L4.1 4.25 4.3 4.15 4.3 4.2 M4.7 10.5 L5.9 11.15 6.3 11.55 6.55 12.2 6.6 12.2 6.75 12.35 7.5 15.35 7.45 15.6 7.65 16.6 7.55 16.6 6.9 16.7 6.15 16.85 5.55 13.8 4.7 10.5 M8.3 12.45 L8.35 12.45 8.5 12.45 9.1 12.45 9.75 12.5 10.8 16.55 9.45 16.5 9.25 16.5 8.65 14.2 8.3 12.45 M16.85 13.35 L17.0 13.4 17.25 14.45 17.55 15.95 17.15 16.05 16.15 16.3 15.9 14.65 15.6 13.45 15.55 13.1 16.05 13.2 16.85 13.4 16.85 13.35" fill="#cc9966" fill-rule="evenodd" stroke="none"/>
    <path d="M15.1 8.45 Q15.3 9.35 15.95 10.15 L16.2 10.4 16.25 10.45 16.45 10.65 16.6 10.85 16.8 13.1 16.85 13.35 16.85 13.4 16.05 13.2 15.55 13.1 15.3 13.05 Q15.0 11.6 14.85 10.15 L14.75 9.35 Q14.65 8.75 15.1 8.45 M10.85 6.55 L11.75 5.4 12.05 6.1 13.0 10.45 13.3 12.75 13.1 12.75 11.75 12.6 11.65 12.6 11.25 9.6 10.8 7.5 10.6 6.85 10.75 6.65 10.8 6.55 10.85 6.55 M7.4 8.65 L7.65 8.65 7.75 8.65 8.35 8.6 8.95 8.45 8.95 8.5 9.95 12.5 9.75 12.5 9.1 12.45 8.5 12.45 8.35 12.45 8.2 11.9 7.6 9.5 7.4 8.65 M3.55 7.5 L3.6 7.45 4.4 7.65 4.75 7.8 5.3 8.05 Q5.55 9.85 6.3 11.55 L5.9 11.15 4.7 10.5 4.3 10.4 4.2 10.4 3.6 7.75 3.55 7.5" fill="#ffcc99" fill-rule="evenodd" stroke="none"/>
    <path d="M13.15 11.15 L14.9 12.35 16.15 10.85 M14.9 12.35 L16.75 13.5 M13.75 13.75 L14.9 12.35" fill="none" stroke="#9c3000" stroke-linecap="round" stroke-linejoin="round" stroke-width="0.5"/>
    <path d="M6.8 5.95 Q6.8 6.45 6.4 6.8 6.05 7.2 5.55 7.2 5.05 7.2 4.65 6.8 4.3 6.45 4.3 5.95 4.3 5.45 4.65 5.05 5.05 4.7 5.55 4.7 6.05 4.7 6.4 5.05 6.8 5.45 6.8 5.95 Z" fill="none" stroke="#333333" stroke-linecap="round" stroke-linejoin="round" stroke-width="0.5"/>
    <path d="M14.35 9.45 L13.7 7.5 Q13.25 6.5 12.15 6.3 L10.25 5.75 8.95 5.65 8.25 6.0" fill="none" stroke="#666600" stroke-linecap="round" stroke-linejoin="round" stroke-width="0.25"/>
  </g>
</svg>
