<?xml version="1.0" encoding="UTF-8" standalone="no"?>
<svg xmlns:xlink="http://www.w3.org/1999/xlink" height="18.0px" width="20.0px" xmlns="http://www.w3.org/2000/svg">
  <g transform="matrix(1.0, 0.0, 0.0, 1.0, -0.45, -0.45)">
    <path d="M11.5 8.25 L11.8 8.9 11.8 9.15 11.7 9.7 11.4 10.15 11.1 10.4 10.4 10.55 9.7 10.4 9.4 10.15 9.15 9.75 9.1 9.6 9.0 9.15 9.05 8.8 Q9.1 8.45 9.4 8.15 9.7 7.85 10.1 7.8 L10.4 7.75 10.95 7.85 11.4 8.15 11.5 8.25 M19.4 8.85 L19.4 8.3 19.3 8.3 Q18.9 5.75 16.8 3.85 L16.6 3.65 15.9 3.15 Q13.9 1.75 11.45 1.6 L11.65 1.1 10.4 1.1 10.35 1.25 10.25 1.55 10.05 1.55 10.45 0.45 Q14.6 0.45 17.5 3.05 20.45 5.7 20.45 9.45 20.45 13.2 17.5 15.8 14.6 18.45 10.45 18.45 6.3 18.45 3.35 15.8 0.45 13.2 0.45 9.45 0.45 5.7 3.35 3.05 6.0 0.7 9.65 0.5 L9.25 1.7 7.25 2.05 6.4 2.35 6.35 2.4 6.1 2.5 4.15 3.85 Q1.85 5.9 1.55 8.75 L1.55 8.7 1.55 9.5 Q1.55 12.55 3.75 14.7 L4.15 15.1 5.45 16.05 5.7 16.25 5.75 16.25 Q7.55 17.25 9.8 17.4 L10.4 17.45 10.15 17.9 10.8 17.9 12.3 17.9 12.45 17.4 12.45 17.25 Q14.9 16.75 16.8 15.1 19.15 13.0 19.4 10.15 L19.6 10.25 20.1 10.45 20.1 9.05 19.6 8.9 19.4 8.85" fill="#000000" fill-rule="evenodd" stroke="none"/>
    <path d="M15.35 3.05 L16.25 4.8 16.75 6.35 16.95 7.25 17.0 7.7 Q14.0 7.15 11.5 8.25 L11.4 8.15 10.95 7.85 Q10.0 5.45 10.95 2.75 L12.05 2.65 15.35 3.05 M17.15 8.4 L18.65 8.65 18.8 8.7 19.3 8.8 19.4 8.85 19.6 8.9 19.65 9.8 19.6 10.25 19.4 10.15 17.1 9.4 16.9 10.4 16.05 12.35 15.45 13.3 15.05 13.8 14.15 14.8 12.65 15.7 Q12.7 13.3 11.6 10.55 L11.15 10.55 11.1 10.4 11.4 10.15 11.7 9.7 17.1 9.4 17.05 8.85 17.15 8.4 M9.85 2.95 L9.65 4.3 9.75 2.95 9.85 2.95 M10.1 7.7 L10.1 7.8 Q9.7 7.85 9.4 8.15 9.1 8.45 9.05 8.8 6.05 9.95 3.35 9.35 L3.35 9.15 3.75 7.8 3.9 8.15 4.65 8.35 Q6.0 8.2 7.0 7.2 8.85 5.45 7.15 4.0 L7.35 3.9 Q7.85 3.45 8.5 3.25 L8.95 3.15 Q8.6 5.55 9.65 7.7 L10.1 7.7 M10.4 10.55 L10.4 10.6 Q11.0 12.6 10.9 15.05 L10.8 16.1 6.4 15.8 5.2 15.4 4.85 15.25 4.6 14.9 4.45 14.65 4.0 13.55 3.45 11.7 3.4 11.15 Q6.25 11.45 9.7 10.4 L10.4 10.55 M12.45 17.4 L12.3 17.4 10.95 17.6 11.45 16.1 12.65 15.85 12.45 17.25 12.45 17.4 M5.75 10.3 L9.1 9.6 9.15 9.75 5.75 10.3" fill="#339900" fill-rule="evenodd" stroke="none"/>
    <path d="M16.6 3.65 L16.05 3.35 15.8 3.25 15.5 3.1 15.35 3.05 12.05 2.65 10.95 2.75 11.45 1.6 Q13.9 1.75 15.9 3.15 L16.6 3.65 M10.25 1.55 L9.85 2.95 9.75 2.95 10.05 1.55 10.25 1.55 M9.25 1.7 L8.95 3.15 8.5 3.25 Q7.85 3.45 7.35 3.9 L7.15 4.0 6.75 3.65 5.75 3.6 4.75 4.45 Q3.05 5.9 3.75 7.8 L3.35 9.15 3.35 9.35 1.55 8.75 Q1.85 5.9 4.15 3.85 L6.1 2.5 6.35 2.4 6.4 2.35 7.25 2.05 9.25 1.7 M4.85 15.25 L5.45 16.05 4.15 15.1 3.75 14.7 Q1.55 12.55 1.55 9.5 L1.6 9.55 1.65 10.8 3.4 11.15 3.45 11.7 4.0 13.55 4.45 14.65 4.6 14.9 4.85 15.25" fill="#00cc00" fill-rule="evenodd" stroke="none"/>
    <path d="M11.5 8.25 Q14.0 7.15 17.0 7.7 L16.95 7.25 16.75 6.35 16.25 4.8 15.35 3.05 15.5 3.1 15.8 3.25 16.05 3.35 16.6 3.65 16.8 3.85 Q18.9 5.75 19.3 8.3 L19.4 8.3 19.4 8.85 19.3 8.8 18.8 8.7 18.65 8.65 17.15 8.4 15.15 8.3 14.8 8.3 13.25 8.5 12.75 8.6 Q12.25 8.7 11.8 8.9 L11.5 8.25 M11.45 1.6 L10.3 1.4 10.35 1.25 10.4 1.1 11.65 1.1 11.45 1.6 M9.65 4.3 Q9.5 6.1 10.1 7.7 L9.65 7.7 Q8.6 5.55 8.95 3.15 L9.25 1.7 9.65 0.5 9.65 0.45 10.45 0.45 10.05 1.55 9.75 2.95 9.65 4.3 M11.1 10.4 L11.15 10.55 10.8 10.55 10.8 10.6 11.55 13.25 11.6 15.2 11.45 16.1 10.95 17.6 12.3 17.4 12.45 17.4 12.3 17.9 10.8 17.9 10.15 17.9 10.4 17.45 9.8 17.4 Q7.55 17.25 5.75 16.25 L5.7 16.25 5.45 16.05 4.85 15.25 5.2 15.4 6.4 15.8 10.8 16.1 10.9 15.05 Q11.0 12.6 10.4 10.6 L10.4 10.55 11.1 10.4 M12.65 15.7 L14.15 14.8 15.05 13.8 15.45 13.3 16.05 12.35 16.9 10.4 17.1 9.4 19.4 10.15 Q19.15 13.0 16.8 15.1 14.9 16.75 12.45 17.25 L12.65 15.85 12.65 15.7 M19.6 10.25 L19.65 9.8 19.6 8.9 20.1 9.05 20.1 10.45 19.6 10.25 M3.35 9.35 Q6.05 9.95 9.05 8.8 L9.0 9.15 9.1 9.6 5.75 10.3 Q3.55 10.3 1.6 9.45 L1.6 9.55 1.55 9.5 1.55 8.7 1.55 8.75 3.35 9.35" fill="#333300" fill-rule="evenodd" stroke="none"/>
    <path d="M11.8 8.9 Q12.25 8.7 12.75 8.6 L13.25 8.5 14.8 8.3 15.15 8.3 17.15 8.4 17.05 8.85 17.1 9.4 11.7 9.7 11.8 9.15 11.8 8.9 M10.95 2.75 Q10.0 5.45 10.95 7.85 L10.4 7.75 10.1 7.8 10.1 7.7 Q9.5 6.1 9.65 4.3 L9.85 2.95 10.25 1.55 10.35 1.25 10.3 1.4 11.45 1.6 10.95 2.75 M11.15 10.55 L11.6 10.55 Q12.7 13.3 12.65 15.7 L12.65 15.85 11.45 16.1 11.6 15.2 11.55 13.25 10.8 10.6 10.8 10.55 11.15 10.55 M3.75 7.8 Q3.05 5.9 4.75 4.45 L5.75 3.6 6.75 3.65 7.15 4.0 Q8.85 5.45 7.0 7.2 6.0 8.2 4.65 8.35 L3.9 8.15 3.75 7.8 M1.6 9.55 L1.6 9.45 Q3.55 10.3 5.75 10.3 L9.15 9.75 9.4 10.15 9.7 10.4 Q6.25 11.45 3.4 11.15 L1.65 10.8 1.6 9.55" fill="#33ff33" fill-rule="evenodd" stroke="none"/>
  </g>
</svg>
