<?xml version="1.0" encoding="UTF-8" standalone="no"?>
<svg xmlns:xlink="http://www.w3.org/1999/xlink" height="27.15px" width="22.0px" xmlns="http://www.w3.org/2000/svg">
  <g transform="matrix(1.0, 0.0, 0.0, 1.0, 17.9, -78.2)">
    <path d="M1.75 95.15 Q2.3 96.9 1.8 98.65 L1.25 100.2 Q2.0 104.85 -3.05 104.45 L-3.8 104.25 Q-9.75 106.85 -14.85 103.35 L-15.6 102.25 Q-15.95 100.6 -15.65 98.95 -19.7 94.95 -16.45 90.3 -15.3 88.6 -13.6 87.45 -13.2 87.15 -12.7 87.0 -12.5 85.85 -11.95 85.2 -13.9 84.0 -13.2 81.65 L-12.35 79.95 Q-11.15 78.35 -9.35 78.2 -6.45 79.05 -7.0 81.15 -6.15 80.7 -4.95 80.6 L-4.95 80.55 Q-2.9 80.35 -2.1 82.3 L-2.05 82.5 Q0.85 85.45 3.15 88.95 5.3 92.25 2.5 94.7 L1.75 95.15" fill="#6699ff" fill-rule="evenodd" stroke="none"/>
  </g>
</svg>
