<?xml version="1.0" encoding="UTF-8" standalone="no"?>
<svg xmlns:xlink="http://www.w3.org/1999/xlink" height="15.1px" width="16.95px" xmlns="http://www.w3.org/2000/svg">
  <g transform="matrix(1.0, 0.0, 0.0, 1.0, -2.15, -2.0)">
    <path d="M17.2 7.3 L17.25 7.15 17.5 6.45 17.55 5.05 17.2 4.45 17.0 4.15 16.35 3.7 15.3 3.5 15.25 3.5 Q13.9 3.5 12.8 4.4 L11.45 5.45 12.05 5.0 11.6 5.2 9.05 7.65 8.9 7.9 9.15 7.75 8.7 8.05 Q7.95 8.35 7.3 8.9 L6.75 9.3 7.15 9.35 6.7 9.3 6.65 9.3 5.15 10.5 Q4.0 11.4 3.75 12.7 L3.7 12.75 3.65 13.25 3.7 13.25 3.75 13.9 3.8 14.05 3.8 14.1 3.9 14.4 3.95 14.55 Q4.75 15.4 6.0 15.5 L6.05 15.5 6.4 15.5 Q6.55 16.0 7.0 15.65 L7.95 15.05 8.25 14.85 8.55 14.65 11.45 12.35 12.6 11.4 16.15 8.55 16.35 8.4 17.2 7.3 M17.6 3.8 Q18.5 4.9 18.35 6.3 18.25 7.25 17.75 7.95 L17.3 8.45 17.05 8.6 8.25 15.65 8.05 15.8 Q7.0 16.5 5.7 16.35 4.3 16.2 3.45 15.1 L3.35 15.0 Q2.65 14.0 2.85 12.75 3.05 11.4 4.2 10.5 L13.0 3.5 Q14.1 2.6 15.45 2.7 L17.0 3.2 17.55 3.7 17.6 3.8 M8.75 11.4 L8.65 11.5 8.55 11.5 8.75 11.4 M7.75 11.8 L7.7 11.85 7.6 11.85 7.75 11.8 M7.2 14.55 L7.1 14.65 7.05 14.55 7.2 14.55" fill="#cccccc" fill-rule="evenodd" stroke="none"/>
    <path d="M6.4 15.5 L6.05 15.5 6.0 15.5 Q4.75 15.4 3.95 14.55 L3.9 14.4 3.8 14.1 3.8 14.05 3.75 13.9 3.7 13.25 4.4 12.95 7.6 11.85 7.7 11.85 7.75 11.8 8.2 11.7 8.5 11.55 8.55 11.5 8.65 11.5 8.75 11.4 10.85 10.05 11.55 9.55 11.6 9.55 11.55 9.55 11.3 9.5 9.0 9.4 8.45 9.4 8.3 9.4 8.15 9.4 8.0 9.4 7.9 9.4 7.15 9.35 6.75 9.3 7.3 8.9 Q7.95 8.35 8.7 8.05 L9.15 7.75 9.85 7.3 Q10.25 7.25 10.45 7.5 10.2 7.75 10.2 8.1 L10.2 8.2 10.35 8.5 10.4 8.55 10.5 8.6 10.7 8.7 11.15 8.8 11.05 8.8 11.4 8.8 Q12.1 8.75 12.5 8.1 L12.45 7.6 12.3 7.4 15.65 7.4 15.8 7.4 16.5 7.55 16.45 7.6 16.4 7.65 Q16.15 7.5 15.95 7.65 L14.65 8.7 13.25 9.75 12.35 10.4 10.85 11.6 7.95 13.9 7.65 14.15 7.55 14.25 7.2 14.55 7.05 14.55 7.1 14.65 6.45 15.2 6.4 15.45 6.4 15.5" fill="#ff0000" fill-rule="evenodd" stroke="none"/>
    <path d="M9.15 7.75 L8.9 7.9 9.05 7.65 11.6 5.2 12.05 5.0 11.45 5.45 12.8 4.4 Q13.9 3.5 15.25 3.5 L15.3 3.5 16.35 3.7 17.0 4.15 17.2 4.45 17.55 5.05 17.5 6.45 17.25 7.15 17.2 7.3 17.3 7.05 17.1 7.15 16.45 7.6 16.5 7.55 15.8 7.4 15.65 7.4 12.3 7.4 Q12.0 7.0 11.4 7.0 11.0 7.0 10.75 7.3 L10.45 7.5 Q10.25 7.25 9.85 7.3 L9.15 7.75 M3.7 13.25 L3.65 13.25 3.7 13.25 M16.5 4.85 L15.95 4.05 15.15 3.85 Q14.25 3.85 13.65 4.4 12.85 4.8 12.6 5.55 L12.45 6.1 12.5 6.2 Q12.75 6.7 13.3 6.9 L13.6 6.95 15.95 5.2 16.5 4.85 16.55 4.95 16.5 4.85 M11.55 9.55 L11.6 9.55 11.55 9.55" fill="#a7a7a7" fill-rule="evenodd" stroke="none"/>
    <path d="M10.45 7.5 L10.75 7.3 Q11.0 7.0 11.4 7.0 12.0 7.0 12.3 7.4 L12.45 7.6 12.5 8.1 Q12.1 8.75 11.4 8.8 L11.05 8.8 11.15 8.8 10.7 8.7 10.5 8.6 10.4 8.55 10.35 8.5 10.2 8.2 10.2 8.1 Q10.2 7.75 10.45 7.5 M16.5 4.85 L16.55 4.95 16.5 4.85 15.95 5.2 13.6 6.95 13.3 6.9 Q12.75 6.7 12.5 6.2 L12.45 6.1 12.6 5.55 Q12.85 4.8 13.65 4.4 14.25 3.85 15.15 3.85 L15.95 4.05 16.5 4.85" fill="#ffffff" fill-rule="evenodd" stroke="none"/>
    <path d="M3.65 13.25 L3.7 12.75 3.75 12.7 Q4.0 11.4 5.15 10.5 L6.65 9.3 6.7 9.3 7.15 9.35 7.9 9.4 8.0 9.4 8.15 9.4 8.3 9.4 8.45 9.4 9.0 9.4 11.3 9.5 11.55 9.55 10.85 10.05 8.75 11.4 8.55 11.5 8.5 11.55 8.2 11.7 7.75 11.8 7.6 11.85 4.4 12.95 3.7 13.25 3.65 13.25" fill="#cc0000" fill-rule="evenodd" stroke="none"/>
    <path d="M17.2 7.3 L16.35 8.4 16.15 8.55 12.6 11.4 11.45 12.35 8.55 14.65 8.25 14.85 7.95 15.05 7.0 15.65 Q6.55 16.0 6.4 15.5 L6.4 15.45 6.45 15.2 7.1 14.65 7.2 14.55 7.55 14.25 7.65 14.15 7.95 13.9 10.85 11.6 12.35 10.4 13.25 9.75 14.65 8.7 15.95 7.65 Q16.15 7.5 16.4 7.65 L16.45 7.6 17.1 7.15 17.3 7.05 17.2 7.3" fill="#990000" fill-rule="evenodd" stroke="none"/>
    <path d="M15.65 2.0 Q16.7 2.15 17.5 2.75 L17.8 3.0 18.6 4.0 Q19.2 5.05 19.05 6.25 18.9 7.55 18.1 8.45 L17.85 8.7 17.65 8.85 8.4 16.25 8.15 16.45 Q6.95 17.2 5.5 17.05 3.95 16.9 3.0 15.65 2.0 14.4 2.15 12.8 2.35 11.2 3.6 10.25 L12.85 2.85 Q14.05 1.85 15.65 2.0 M17.6 3.8 L17.55 3.7 17.0 3.2 15.45 2.7 Q14.1 2.6 13.0 3.5 L4.2 10.5 Q3.05 11.4 2.85 12.75 2.65 14.0 3.35 15.0 L3.45 15.1 Q4.3 16.2 5.7 16.35 7.0 16.5 8.05 15.8 L8.25 15.65 17.05 8.6 17.3 8.45 17.75 7.95 Q18.25 7.25 18.35 6.3 18.5 4.9 17.6 3.8" fill="#333333" fill-rule="evenodd" stroke="none"/>
  </g>
</svg>
