<?xml version="1.0" encoding="UTF-8" standalone="no"?>
<svg xmlns:xlink="http://www.w3.org/1999/xlink" height="12.5px" width="21.75px" xmlns="http://www.w3.org/2000/svg">
  <g transform="matrix(1.0, 0.0, 0.0, 1.0, 11.05, 8.75)">
    <path d="M2.25 2.0 L2.25 2.05 2.25 2.0" fill="#999900" fill-rule="evenodd" stroke="none"/>
    <path d="M2.25 2.0 L2.05 1.5 2.25 1.05 3.5 0.6 1.8 0.85 2.75 -0.2 3.05 -0.5 3.2 -0.7 4.7 -1.8 Q5.55 -2.35 6.7 -2.65 L6.65 -2.15 6.55 -1.75 6.35 -1.45 5.95 -1.1 5.8 -0.45 5.15 0.1 5.2 0.15 5.45 0.4 5.55 0.7 5.45 0.85 3.7 1.7 5.35 2.45 5.25 2.55 3.95 2.6 3.85 2.55 2.25 2.05 2.25 2.0 M0.65 -0.45 L0.75 -0.6 1.85 -2.25 2.8 -3.2 3.45 -3.0 3.4 -2.9 2.9 -1.95 2.1 -1.0 0.75 -0.05 0.65 -0.45 M-1.65 1.5 L-2.2 2.35 -4.4 2.15 Q-5.5 1.65 -5.25 0.9 L-4.55 0.65 -4.0 0.8 -1.65 1.5 M-5.95 -1.9 L-5.6 -2.3 -4.95 -2.0 -4.4 -1.75 -4.35 -1.7 -4.3 -1.7 -4.2 -1.65 -2.5 -0.85 -2.55 -1.15 -2.4 -1.45 -2.85 -2.45 Q-3.4 -3.4 -2.7 -4.25 L-2.4 -4.4 -2.0 -4.15 -1.3 -2.4 -1.25 -1.9 -0.85 0.5 -1.0 0.55 -4.05 -0.4 -5.95 -1.9" fill="#0099cc" fill-rule="evenodd" stroke="none"/>
    <path d="M5.15 -3.6 L5.4 -3.8 7.25 -4.9 8.25 -6.4 Q8.8 -7.1 8.35 -7.5 L8.0 -7.7 6.85 -6.45 5.65 -5.15 Q5.05 -4.5 5.0 -3.65 L4.7 -3.9 4.8 -4.15 5.55 -5.4 5.75 -5.8 5.85 -5.9 7.7 -7.85 7.8 -7.9 8.15 -8.05 8.65 -7.35 8.85 -7.05 8.2 -6.2 Q7.95 -5.25 7.0 -4.6 L6.15 -3.95 Q5.6 -3.45 5.15 -3.6 M0.3 -7.75 L0.3 -5.8 Q0.35 -5.05 -0.2 -4.65 -0.45 -4.45 -0.7 -4.65 -1.25 -5.1 -1.2 -5.9 L-1.2 -7.5 -1.2 -7.9 -0.55 -8.7 -0.35 -8.7 0.3 -7.9 0.3 -7.75 M10.0 -0.55 Q9.2 -0.35 8.5 0.1 7.75 0.55 7.55 1.35 L8.75 1.05 9.2 0.8 Q10.65 0.25 10.1 -0.45 L10.0 -0.55 M8.6 1.45 L7.05 1.5 7.0 1.5 6.95 1.45 7.7 0.35 Q8.9 -0.35 10.2 -0.7 11.0 -0.5 10.55 0.2 L10.0 0.7 8.6 1.45 M-10.35 -7.7 Q-10.45 -7.0 -9.85 -6.35 L-8.7 -5.2 -8.35 -4.8 -6.0 -3.3 -5.95 -3.35 -7.6 -6.25 -8.75 -7.2 -9.7 -7.8 -10.15 -7.95 -10.35 -7.7 M-10.55 -7.75 L-10.4 -7.95 -10.1 -8.25 -9.6 -8.15 -9.15 -7.95 -8.55 -7.3 -7.95 -6.65 -6.8 -5.55 -6.65 -5.2 -5.75 -3.5 Q-6.2 -2.95 -6.9 -3.5 L-8.1 -4.4 -10.05 -6.0 -10.4 -6.5 -10.55 -7.75 M-0.85 -7.9 L-1.0 -7.65 -0.9 -5.95 -0.6 -4.8 -0.45 -4.75 Q0.0 -5.2 0.05 -5.95 0.2 -7.5 -0.45 -8.6 L-0.6 -8.3 -0.85 -7.9 M-10.7 -0.15 L-9.4 -0.1 -8.85 0.0 -7.05 1.35 -6.9 1.5 -6.1 2.1 -5.55 2.75 -5.0 3.35 -4.95 3.4 -4.95 3.75 -6.4 3.3 -6.8 3.2 -9.75 1.6 Q-10.65 1.25 -11.05 0.45 L-11.05 0.3 -10.95 0.15 -10.7 -0.15 M-6.85 2.85 L-5.8 3.35 -5.7 3.4 -5.6 3.3 -5.65 3.2 -6.05 2.55 -6.15 2.4 -7.5 1.25 Q-8.3 0.75 -9.15 0.4 L-10.25 0.2 -10.4 0.35 -10.4 0.55 -10.4 0.6 -10.4 0.7 -10.1 1.1 -8.45 2.1 -6.95 2.8 -6.85 2.85" fill="#000000" fill-rule="evenodd" stroke="none"/>
    <path d="M5.0 -3.65 Q5.05 -4.5 5.65 -5.15 L6.85 -6.45 8.0 -7.7 8.35 -7.5 Q8.8 -7.1 8.25 -6.4 L7.25 -4.9 5.4 -3.8 5.15 -3.6 5.0 -3.5 5.0 -3.65 M10.0 -0.55 L10.1 -0.45 Q10.65 0.25 9.2 0.8 L8.75 1.05 7.55 1.35 Q7.75 0.55 8.5 0.1 9.2 -0.35 10.0 -0.55 M-10.35 -7.7 L-10.15 -7.95 -9.7 -7.8 -8.75 -7.2 -7.6 -6.25 -5.95 -3.35 -6.0 -3.3 -8.35 -4.8 -8.7 -5.2 -9.85 -6.35 Q-10.45 -7.0 -10.35 -7.7 M-0.85 -7.9 L-0.6 -8.3 -0.45 -8.6 Q0.2 -7.5 0.05 -5.95 0.0 -5.2 -0.45 -4.75 L-0.6 -4.8 -0.9 -5.95 -1.0 -7.65 -0.85 -7.9 M-6.85 2.85 L-6.95 2.8 -8.45 2.1 -10.1 1.1 -10.4 0.7 -10.4 0.6 -10.4 0.55 -10.4 0.35 -10.25 0.2 -9.15 0.4 Q-8.3 0.75 -7.5 1.25 L-6.15 2.4 -6.05 2.55 -5.65 3.2 -5.6 3.3 -5.7 3.4 -5.8 3.35 -6.85 2.85" fill="#66ffff" fill-rule="evenodd" stroke="none"/>
  </g>
</svg>
