<?xml version="1.0" encoding="UTF-8" standalone="no"?>
<svg xmlns:xlink="http://www.w3.org/1999/xlink" height="36.55px" width="33.95px" xmlns="http://www.w3.org/2000/svg">
  <g transform="matrix(1.0, 0.0, 0.0, 1.0, 17.0, 18.25)">
    <path d="M14.05 -14.05 L14.3 -13.9 15.5 -12.7 16.1 -11.1 16.2 -9.35 16.0 -8.45 15.3 -7.3 15.15 -7.15 15.3 -6.95 15.6 -6.3 15.65 -6.2 16.25 -4.5 16.7 -2.65 16.95 -0.65 16.95 0.3 16.9 1.35 16.75 3.2 16.3 5.05 15.8 6.3 15.3 7.35 15.2 7.55 15.25 7.55 14.3 8.6 14.0 8.95 13.4 9.75 12.0 11.1 11.45 11.55 Q10.9 11.95 10.7 12.6 L10.4 12.65 10.25 12.65 9.75 13.15 8.45 14.15 7.1 14.75 5.45 15.25 5.4 14.75 5.4 14.05 5.15 13.25 5.5 13.15 6.85 12.55 7.2 12.3 8.1 11.8 8.15 11.8 Q8.4 11.6 8.7 11.5 L8.75 11.45 9.1 11.2 11.15 9.4 11.35 9.1 12.3 7.9 13.45 6.2 13.65 5.95 13.6 5.95 13.7 5.75 14.2 4.7 14.7 3.45 15.15 1.6 15.3 -0.25 15.35 -1.3 15.35 -2.25 15.1 -4.25 14.65 -6.1 14.05 -7.8 14.0 -7.9 13.7 -8.55 13.55 -8.75 13.7 -8.9 14.4 -10.05 14.6 -10.95 14.5 -12.7 14.05 -14.05 M-4.6 14.35 L-5.65 13.95 -5.9 13.9 -7.3 14.55 -8.8 14.8 -9.0 14.85 -10.5 14.5 -10.55 14.5 -10.8 14.45 -12.05 13.55 -12.75 12.65 -12.4 12.85 -12.15 12.9 -12.1 12.9 -10.6 13.25 -10.4 13.2 -8.9 12.95 -7.5 12.3 -7.25 12.35 Q-6.45 12.6 -5.6 13.0 L-4.4 13.45 -4.6 14.05 -4.6 14.35 M-7.9 -11.55 Q-4.15 -13.8 0.1 -11.3 6.1 -7.7 6.55 -0.7 L6.6 0.5 6.55 0.75 6.15 2.4 6.1 3.05 Q4.9 5.85 2.8 7.65 L3.05 7.65 3.2 7.7 Q2.55 7.9 1.95 8.4 L1.4 8.75 -0.25 9.6 -0.25 9.5 -1.95 10.1 -2.3 10.2 -2.5 10.25 -2.85 10.3 -3.8 10.55 -3.8 10.45 -3.95 10.5 -6.45 10.3 -6.7 9.95 -6.95 10.05 -8.0 9.25 -8.5 8.9 -9.8 7.9 -10.95 6.75 -11.75 5.95 -12.0 5.45 -12.45 3.95 -12.45 3.8 -12.75 1.3 -12.8 0.75 -12.85 -0.4 -12.9 -0.5 -12.8 -2.35 -12.45 -4.85 -12.3 -5.05 -12.0 -5.75 -11.7 -6.55 -11.25 -7.3 Q-11.75 -7.7 -11.35 -7.6 L-11.3 -8.45 -8.15 -11.35 -7.9 -11.55 M1.5 14.0 L1.5 14.95 1.45 14.75 1.5 14.0 M1.1 15.25 L1.1 15.1 1.1 14.9 1.1 14.5 1.1 14.35 1.1 14.2 1.1 14.05 1.15 14.05 1.15 14.55 1.1 15.1 1.1 15.25 M-2.95 15.0 L-2.95 14.9 -2.95 14.5 -2.95 14.35 -2.9 13.85 -2.9 14.55 -2.95 15.0 M-2.55 14.95 L-2.6 14.75 -2.55 13.9 -2.55 14.95" fill="#a7a7a7" fill-rule="evenodd" stroke="none"/>
    <path d="M-14.4 10.95 L-15.4 10.2 -16.35 8.85 -16.7 7.1 -16.55 5.5 -16.35 5.1 -16.25 4.8 -16.2 4.75 -15.95 4.4 -15.7 4.1 -15.55 3.95 -15.5 3.9 -15.9 3.1 -15.95 2.9 -16.05 2.55 -16.15 2.2 -16.3 1.75 -16.55 0.55 -16.9 -1.0 -16.9 -1.05 -17.0 -2.85 -16.8 -4.8 -16.4 -6.55 -15.8 -8.2 -15.55 -8.95 -15.45 -9.65 -15.5 -10.05 -15.5 -10.2 -15.6 -10.25 -15.65 -10.3 -15.7 -10.4 -16.1 -11.1 -16.2 -11.4 -16.3 -11.6 -16.35 -11.75 -16.6 -12.65 -16.6 -13.4 -16.65 -13.5 -16.5 -14.7 -16.3 -15.1 -15.75 -16.1 -15.35 -16.55 -15.2 -16.7 -15.05 -16.8 Q-14.6 -17.25 -13.95 -17.55 L-12.25 -17.85 -11.95 -17.85 -10.45 -17.6 -10.0 -17.4 Q-9.35 -17.1 -8.8 -16.5 L-7.5 -17.05 -5.85 -17.6 -4.2 -18.05 -2.45 -18.2 -0.65 -18.25 1.15 -18.0 2.85 -17.6 5.2 -16.8 6.45 -17.5 6.6 -17.6 7.75 -18.0 9.35 -17.9 10.95 -17.25 12.15 -16.05 12.35 -15.7 11.1 -16.15 9.5 -16.25 8.35 -15.85 8.2 -15.75 6.95 -15.05 4.6 -15.85 2.9 -16.25 1.1 -16.5 -0.7 -16.45 -2.45 -16.3 -4.1 -15.85 -5.75 -15.3 -7.05 -14.75 -8.25 -15.65 -8.7 -15.85 -10.2 -16.1 -10.5 -16.1 -12.2 -15.8 -13.3 -15.05 -13.45 -14.95 -13.6 -14.8 -14.0 -14.35 -14.55 -13.35 -14.75 -12.95 -14.9 -11.75 -14.85 -11.65 -14.85 -10.9 -14.6 -10.0 -14.55 -9.85 -14.45 -9.65 -14.35 -9.35 -13.95 -8.65 -13.9 -8.55 -13.85 -8.5 -13.75 -8.45 -13.75 -8.3 -13.7 -7.9 -13.8 -7.2 -14.05 -6.45 -14.65 -4.8 -15.05 -3.05 -15.25 -1.1 -15.15 0.7 -15.15 0.75 -14.8 2.3 -14.55 3.5 -14.4 3.95 -14.3 4.3 -14.2 4.65 -14.15 4.85 -13.75 5.65 -13.8 5.7 -13.95 5.85 -14.2 6.15 -14.45 6.5 -14.5 6.55 -14.6 6.85 -14.8 7.25 -14.95 8.85 -14.6 10.6 -14.4 10.95 M11.0 -7.65 L10.6 -8.5 11.4 -9.35 Q12.85 -10.5 12.75 -12.2 L12.5 -12.55 11.3 -13.5 11.55 -14.75 Q12.45 -14.35 13.15 -13.5 13.75 -12.8 13.75 -11.95 13.8 -11.05 13.45 -10.05 L13.3 -9.75 Q13.0 -9.45 13.0 -9.05 L12.4 -8.7 12.35 -8.5 12.3 -8.15 12.3 -7.9 12.7 -6.9 Q12.8 -6.2 13.25 -5.25 14.5 -2.7 14.2 0.3 L13.65 3.3 12.6 5.85 12.6 5.9 12.45 6.15 12.3 6.35 11.95 6.8 11.85 6.95 9.9 9.1 9.15 9.6 7.15 11.15 5.8 11.65 4.3 12.15 4.25 12.15 4.0 10.9 5.85 10.2 5.9 10.1 6.15 10.0 7.15 9.65 8.9 7.85 10.75 6.0 10.7 5.9 11.1 5.5 11.25 5.15 11.95 3.95 12.5 2.8 12.9 1.3 12.9 0.7 13.0 0.25 13.05 -1.7 12.9 -2.35 11.9 -5.6 11.0 -7.65 M7.2 -12.15 L7.1 -12.15 6.8 -12.3 6.6 -12.3 6.3 -12.45 5.85 -12.75 5.7 -12.9 5.55 -13.0 3.6 -13.55 1.8 -14.05 -1.65 -13.9 -3.75 -13.45 Q-5.7 -13.0 -7.25 -12.2 L-7.6 -12.0 -8.0 -12.3 -9.35 -13.5 Q-10.1 -14.1 -11.0 -14.05 L-10.85 -14.8 -9.85 -14.7 -9.35 -14.6 -8.3 -14.25 -7.6 -13.8 -7.5 -13.8 -7.45 -13.8 -6.15 -14.0 -4.95 -14.4 -3.05 -15.0 -1.8 -15.25 -0.5 -15.25 0.65 -15.2 1.9 -15.05 3.85 -14.8 5.95 -14.1 7.45 -13.9 7.2 -12.15 M-6.45 10.3 L-6.25 10.55 -4.45 11.1 -3.9 11.25 -3.8 11.3 -2.8 11.45 -2.7 11.1 -2.95 12.65 -4.7 12.05 Q-5.85 11.55 -6.7 11.55 L-8.75 11.85 -9.9 12.0 -10.3 12.0 -10.75 12.0 -10.85 12.0 -12.25 11.5 -12.2 11.25 -11.85 10.15 -10.8 10.95 -9.5 10.8 -7.6 10.3 -7.55 10.25 -6.95 10.05 -6.7 9.95 -6.45 10.3 M0.15 11.5 L1.25 11.45 1.35 11.1 1.1 12.75 0.2 12.8 0.2 12.3 0.15 11.5 M2.85 11.25 L2.9 11.25 3.05 11.95 2.85 11.25 M1.5 11.6 L1.55 11.6 1.5 11.95 1.5 11.75 1.5 11.6 M9.1 11.0 L9.05 11.0 9.1 10.95 9.15 10.9 9.15 10.95 9.1 11.0 M-2.55 11.95 L-2.55 11.75 -2.5 11.55 -2.55 11.95 M-1.0 11.75 L-1.0 11.95 -1.0 11.75" fill="#696969" fill-rule="evenodd" stroke="none"/>
    <path d="M-14.4 10.95 L-14.6 10.6 -14.95 8.85 -14.8 7.25 -14.6 6.85 -14.5 6.55 -14.45 6.5 -14.2 6.15 -13.95 5.85 -13.8 5.7 -13.75 5.65 -14.15 4.85 -14.2 4.65 -14.3 4.3 -14.4 3.95 -14.55 3.5 -14.8 2.3 -15.15 0.75 -15.15 0.7 -15.25 -1.1 -15.05 -3.05 -14.65 -4.8 -14.05 -6.45 -13.8 -7.2 -13.7 -7.9 -13.75 -8.3 -13.75 -8.45 -13.85 -8.5 -13.9 -8.55 -13.95 -8.65 -14.35 -9.35 -14.45 -9.65 -14.55 -9.85 -14.6 -10.0 -14.85 -10.9 -14.85 -11.65 -14.9 -11.75 -14.75 -12.95 -14.55 -13.35 -14.0 -14.35 -13.6 -14.8 -13.45 -14.95 -13.3 -15.05 -12.2 -15.8 -10.5 -16.1 -10.2 -16.1 -8.7 -15.85 -8.25 -15.65 -7.05 -14.75 -5.75 -15.3 -4.1 -15.85 -2.45 -16.3 -0.7 -16.45 1.1 -16.5 2.9 -16.25 4.6 -15.85 6.95 -15.05 8.2 -15.75 8.35 -15.85 9.5 -16.25 11.1 -16.15 12.35 -15.7 12.7 -15.5 13.9 -14.3 14.05 -14.05 14.5 -12.7 14.6 -10.95 14.4 -10.05 13.7 -8.9 13.55 -8.75 13.7 -8.55 14.0 -7.9 14.05 -7.8 14.65 -6.1 15.1 -4.25 15.35 -2.25 15.35 -1.3 15.3 -0.25 15.15 1.6 14.7 3.45 14.2 4.7 13.7 5.75 13.6 5.95 13.65 5.95 13.45 6.2 12.3 7.9 11.35 9.1 11.15 9.4 9.1 11.2 8.75 11.45 8.7 11.5 Q8.4 11.6 8.15 11.8 L8.1 11.8 7.2 12.3 6.85 12.55 5.5 13.15 5.15 13.25 5.4 14.05 5.4 14.75 5.45 15.25 5.1 16.55 Q4.5 17.9 3.3 18.1 L1.95 18.25 -2.4 18.05 -3.2 17.7 Q-4.7 16.6 -4.6 14.75 L-4.6 14.65 -4.6 14.35 -4.6 14.05 -4.4 13.45 -5.6 13.0 Q-6.45 12.6 -7.25 12.35 L-7.5 12.3 -8.9 12.95 -10.4 13.2 -10.6 13.25 -12.1 12.9 -12.15 12.9 -12.4 12.85 -12.75 12.65 -13.65 11.95 -14.4 10.95 M4.25 12.15 L4.3 12.15 5.8 11.65 7.15 11.15 9.15 9.6 9.9 9.1 11.85 6.95 11.95 6.8 12.3 6.35 12.45 6.15 12.6 5.9 12.6 5.85 13.65 3.3 14.2 0.3 Q14.5 -2.7 13.25 -5.25 12.8 -6.2 12.7 -6.9 L12.3 -7.9 12.3 -8.15 12.35 -8.5 12.4 -8.7 13.0 -9.05 Q13.0 -9.45 13.3 -9.75 L13.45 -10.05 Q13.8 -11.05 13.75 -11.95 13.75 -12.8 13.15 -13.5 12.45 -14.35 11.55 -14.75 L11.0 -14.85 Q10.0 -14.9 9.15 -14.45 L7.45 -13.9 5.95 -14.1 3.85 -14.8 1.9 -15.05 0.65 -15.2 -0.5 -15.25 -1.8 -15.25 -3.05 -15.0 -4.95 -14.4 -6.15 -14.0 -7.45 -13.8 -7.5 -13.8 -7.6 -13.8 -8.3 -14.25 -9.35 -14.6 -9.85 -14.7 -10.85 -14.8 Q-12.3 -14.5 -13.1 -13.3 L-13.75 -12.05 -13.75 -10.8 -13.55 -10.2 -13.45 -9.95 -13.05 -9.25 -12.8 -8.85 -12.65 -8.65 -12.55 -8.5 -12.35 -8.2 -12.3 -8.15 -12.2 -8.1 -12.25 -7.95 -12.3 -7.85 -12.4 -7.7 -12.4 -7.4 -12.4 -7.35 -12.4 -6.95 -12.5 -6.75 -13.25 -4.85 -13.75 -3.5 -13.85 -2.75 -14.0 -1.4 Q-14.15 0.75 -13.55 2.8 L-13.15 4.4 -12.95 4.95 -12.9 5.3 -12.75 5.85 -12.7 6.05 -13.0 6.85 -13.35 8.55 Q-13.35 9.45 -12.95 10.3 L-12.25 11.5 -10.85 12.0 -10.75 12.0 -10.3 12.0 -9.9 12.0 -8.75 11.85 -6.7 11.55 Q-5.85 11.55 -4.7 12.05 L-2.95 12.65 -2.95 13.05 -2.95 13.25 -2.95 13.5 -2.9 13.8 -2.9 13.85 -2.95 14.35 -2.95 14.5 -2.95 14.9 -2.95 15.0 -2.95 15.1 -2.95 15.25 -2.95 15.65 -2.95 15.8 -2.95 15.85 -2.9 16.2 -2.85 16.3 -2.4 16.9 -1.5 17.4 -0.7 17.2 -0.55 17.1 -0.45 17.0 Q-0.05 16.7 -0.05 16.2 L-0.05 16.15 -0.05 16.1 0.0 15.6 0.1 14.2 0.1 14.1 0.15 13.45 0.2 12.8 1.1 12.75 1.1 13.25 1.15 14.05 1.1 14.05 1.1 14.2 1.1 14.35 1.1 14.5 1.1 14.9 1.1 15.1 1.1 15.25 1.1 15.65 1.1 15.7 1.1 15.85 1.15 16.2 1.2 16.3 1.65 16.9 2.55 17.4 3.35 17.2 3.5 17.1 3.6 17.0 Q4.0 16.7 4.0 16.2 L4.0 16.15 4.0 16.1 4.05 15.6 4.05 15.5 4.15 14.2 4.15 13.65 4.15 13.6 4.2 13.6 4.2 13.5 4.25 12.85 4.25 12.3 4.25 12.15 M12.45 6.15 L12.55 6.25 12.55 6.05 12.45 6.15 M1.5 13.4 L1.5 14.0 1.5 13.4 M9.15 10.95 L9.15 10.9 9.1 10.95 9.05 11.0 9.1 11.0 9.15 10.95 M-2.55 13.9 L-2.55 13.4 -2.55 13.9" fill="#000000" fill-rule="evenodd" stroke="none"/>
    <path d="M11.55 -14.75 L11.3 -13.5 10.35 -13.6 10.2 -13.6 9.05 -13.35 7.2 -12.15 7.45 -13.9 9.15 -14.45 Q10.0 -14.9 11.0 -14.85 L11.55 -14.75 M9.1 11.0 L9.15 10.95 9.1 11.0 M-12.25 11.5 L-12.95 10.3 Q-13.35 9.45 -13.35 8.55 L-13.0 6.85 -12.7 6.05 -12.75 5.85 -12.9 5.3 -12.95 4.95 -13.15 4.4 -13.55 2.8 Q-14.15 0.75 -14.0 -1.4 L-13.85 -2.75 -13.75 -3.5 -13.25 -4.85 -12.5 -6.75 -12.4 -6.95 -12.4 -7.35 -12.4 -7.4 -12.4 -7.7 -12.3 -7.85 -12.25 -7.95 -12.2 -8.1 -12.3 -8.15 -12.35 -8.2 -12.55 -8.5 -12.65 -8.65 -12.8 -8.85 -13.05 -9.25 -13.45 -9.95 -13.55 -10.2 -13.75 -10.8 -13.75 -12.05 -13.1 -13.3 Q-12.3 -14.5 -10.85 -14.8 L-11.0 -14.05 Q-12.4 -13.55 -13.0 -12.55 -13.25 -11.5 -12.8 -10.85 L-12.65 -10.6 -12.0 -9.65 -11.45 -8.7 -11.3 -8.45 -11.35 -7.6 Q-11.75 -7.7 -11.25 -7.3 L-11.7 -6.55 -12.0 -5.75 -12.3 -5.05 -12.45 -4.85 -12.8 -2.35 -12.9 -0.5 -12.85 -0.4 -12.8 0.75 -12.75 1.3 -12.45 3.8 -12.45 3.95 -12.0 5.45 -11.75 5.95 -11.65 6.1 -11.85 6.75 -12.25 8.0 Q-12.5 8.7 -12.4 9.55 L-11.85 10.15 -12.2 11.25 -12.25 11.5" fill="#c8c8c8" fill-rule="evenodd" stroke="none"/>
    <path d="M11.0 -7.65 L11.9 -5.6 12.9 -2.35 13.05 -1.7 13.0 0.25 12.9 0.7 12.9 1.3 12.5 2.8 11.95 3.95 11.25 5.15 11.1 5.5 10.7 5.9 10.75 6.0 8.9 7.85 7.15 9.65 6.15 10.0 5.9 10.1 5.85 10.2 4.0 10.9 3.8 10.65 Q3.4 10.25 2.7 10.15 L2.65 10.15 2.55 10.15 2.5 10.15 2.15 10.15 1.8 10.4 1.75 10.4 Q1.5 10.55 1.4 10.85 L1.35 11.1 1.25 11.45 0.15 11.5 -0.15 10.75 Q-0.5 10.35 -1.0 10.25 L-1.25 10.2 -1.3 10.2 -1.45 10.15 -1.6 10.15 -1.9 10.15 -2.15 10.3 -2.3 10.4 -2.65 10.85 -2.65 10.9 -2.7 11.1 -2.8 11.45 -3.8 11.3 -3.9 11.25 -4.45 11.1 -6.25 10.55 -6.45 10.3 -3.95 10.5 -3.8 10.45 -3.8 10.55 -2.85 10.3 -2.5 10.25 -2.3 10.2 -1.95 10.1 -0.25 9.5 -0.25 9.6 1.4 8.75 1.95 8.4 Q2.55 7.9 3.2 7.7 L3.05 7.65 2.8 7.65 Q4.9 5.85 6.1 3.05 L6.15 2.4 6.55 0.75 6.6 0.5 6.55 -0.7 Q6.1 -7.7 0.1 -11.3 -4.15 -13.8 -7.9 -11.55 L-7.25 -12.2 Q-5.7 -13.0 -3.75 -13.45 L-1.65 -13.9 1.8 -14.05 3.6 -13.55 5.55 -13.0 5.7 -12.9 5.85 -12.75 6.3 -12.45 7.75 -10.9 9.25 -9.4 10.9 -7.75 11.0 -7.65 M10.35 -13.6 L10.3 -13.45 10.2 -13.6 10.35 -13.6 M12.45 6.15 L12.55 6.05 12.55 6.25 12.45 6.15 M2.85 11.25 Q2.55 10.9 2.0 10.95 1.65 11.15 1.55 11.6 L1.5 11.6 Q1.6 11.1 2.0 10.9 2.65 10.85 2.9 11.25 L2.85 11.25 M-2.5 11.55 Q-2.45 11.1 -2.05 10.9 -1.05 10.85 -1.0 11.75 -1.15 10.85 -2.05 10.95 L-2.5 11.55" fill="#959595" fill-rule="evenodd" stroke="none"/>
    <path d="M11.3 -13.5 L12.5 -12.55 12.75 -12.2 Q12.85 -10.5 11.4 -9.35 L10.6 -8.5 11.0 -7.65 10.9 -7.75 9.25 -9.4 7.75 -10.9 6.3 -12.45 6.6 -12.3 6.8 -12.3 7.1 -12.15 7.2 -12.15 9.05 -13.35 10.2 -13.6 10.3 -13.45 10.35 -13.6 11.3 -13.5 M-11.0 -14.05 Q-10.1 -14.1 -9.35 -13.5 L-8.0 -12.3 -7.6 -12.0 -7.25 -12.2 -7.9 -11.55 -8.15 -11.35 -11.3 -8.45 -11.45 -8.7 -12.0 -9.65 -12.65 -10.6 -12.8 -10.85 Q-13.25 -11.5 -13.0 -12.55 -12.4 -13.55 -11.0 -14.05 M-11.75 5.95 L-10.95 6.75 -9.8 7.9 -8.5 8.9 -8.0 9.25 -6.95 10.05 -7.55 10.25 -7.6 10.3 -9.5 10.8 -10.8 10.95 -11.85 10.15 -12.4 9.55 Q-12.5 8.7 -12.25 8.0 L-11.85 6.75 -11.65 6.1 -11.75 5.95" fill="#7c7c7c" fill-rule="evenodd" stroke="none"/>
    <path d="M4.0 10.9 L4.25 12.15 4.25 12.3 4.25 12.85 4.2 13.5 4.2 13.6 4.15 13.6 4.15 13.65 4.15 14.2 4.05 15.5 4.05 15.6 4.0 16.1 4.0 16.15 4.0 16.2 Q4.0 16.7 3.6 17.0 L3.5 17.1 3.35 17.2 2.55 17.4 1.65 16.9 1.2 16.3 1.15 16.2 1.1 15.85 1.1 15.7 1.1 15.65 1.1 15.25 1.1 15.1 1.15 14.55 1.15 14.05 1.1 13.25 1.1 12.75 1.35 11.1 1.4 10.85 Q1.5 10.55 1.75 10.4 L1.8 10.4 2.15 10.15 2.5 10.15 2.55 10.15 2.65 10.15 2.7 10.15 Q3.4 10.25 3.8 10.65 L4.0 10.9 M-2.7 11.1 L-2.65 10.9 -2.65 10.85 -2.3 10.4 -2.15 10.3 -1.9 10.15 -1.6 10.15 -1.45 10.15 -1.3 10.2 -1.25 10.2 -1.0 10.25 Q-0.5 10.35 -0.15 10.75 L0.15 11.5 0.2 12.3 0.2 12.8 0.15 13.45 0.1 14.1 0.1 14.2 0.0 15.6 -0.05 16.1 -0.05 16.15 -0.05 16.2 Q-0.05 16.7 -0.45 17.0 L-0.55 17.1 -0.7 17.2 -1.5 17.4 -2.4 16.9 -2.85 16.3 -2.9 16.2 -2.95 15.85 -2.95 15.8 -2.95 15.65 -2.95 15.25 -2.95 15.1 -2.95 15.0 -2.9 14.55 -2.9 13.85 -2.9 13.8 -2.95 13.5 -2.95 13.25 -2.95 13.05 -2.95 12.65 -2.7 11.1 M2.9 11.25 Q2.65 10.85 2.0 10.9 1.6 11.1 1.5 11.6 L1.5 11.75 1.5 11.95 1.5 13.4 1.5 14.0 1.45 14.75 1.5 14.95 1.45 15.7 1.45 15.9 1.45 15.95 1.7 16.65 Q2.2 17.25 2.7 16.8 L2.85 16.65 2.9 16.45 3.0 15.6 3.0 14.2 3.0 13.8 3.0 13.6 3.0 13.45 3.05 12.55 3.05 12.3 3.05 11.95 2.9 11.25 M-2.5 11.55 L-2.55 11.75 -2.55 11.95 -2.55 13.4 -2.55 13.9 -2.6 14.75 -2.55 14.95 -2.55 15.1 -2.6 15.9 -2.6 15.95 -2.35 16.65 Q-1.85 17.25 -1.35 16.8 L-1.2 16.65 -1.15 16.45 -1.05 15.45 -1.05 14.2 -1.05 14.05 -1.05 13.6 -1.05 13.45 -1.0 12.95 -1.0 12.3 -1.0 11.95 -1.0 11.75 Q-1.05 10.85 -2.05 10.9 -2.45 11.1 -2.5 11.55" fill="#0066ff" fill-rule="evenodd" stroke="none"/>
    <path d="M1.55 11.6 Q1.65 11.15 2.0 10.95 2.55 10.9 2.85 11.25 L3.05 11.95 3.05 12.3 3.05 12.55 3.0 13.45 3.0 13.6 3.0 13.8 3.0 14.2 3.0 15.6 2.9 16.45 2.85 16.65 2.7 16.8 Q2.2 17.25 1.7 16.65 L1.45 15.95 1.45 15.9 1.45 15.7 1.5 14.95 1.5 14.0 1.5 13.4 1.5 11.95 1.55 11.6 M-1.0 11.95 L-1.0 12.3 -1.0 12.95 -1.05 13.45 -1.05 13.6 -1.05 14.05 -1.05 14.2 -1.05 15.45 -1.15 16.45 -1.2 16.65 -1.35 16.8 Q-1.85 17.25 -2.35 16.65 L-2.6 15.95 -2.6 15.9 -2.55 15.1 -2.55 14.95 -2.55 13.9 -2.55 13.4 -2.55 11.95 -2.5 11.55 -2.05 10.95 Q-1.15 10.85 -1.0 11.75 L-1.0 11.95" fill="#66ccff" fill-rule="evenodd" stroke="none"/>
  </g>
</svg>
