<?xml version="1.0" encoding="UTF-8" standalone="no"?>
<svg xmlns:xlink="http://www.w3.org/1999/xlink" height="154.35px" width="52.45px" xmlns="http://www.w3.org/2000/svg">
  <g transform="matrix(1.0, 0.0, 0.0, 1.0, 34.15, 40.75)">
    <path d="M-33.5 80.5 Q-33.1 81.35 -32.35 81.8 -31.05 82.65 -29.6 82.95 L-27.7 83.1 -25.8 85.05 -22.6 88.25 -22.5 88.85 -21.3 95.3 -21.2 96.0 -18.7 99.1 -17.3 100.8 -11.6 108.0 -11.4 108.4 -11.2 108.8 -10.8 109.5 -9.2 111.35 -7.45 112.45 -6.1 113.05 -5.7 113.15 -3.5 113.55 Q-2.15 113.45 -0.8 113.4 0.45 113.0 1.7 112.65 3.35 111.95 4.8 110.75 L5.1 110.45 5.45 110.1 5.65 109.85 6.0 109.2 Q7.05 107.0 6.75 104.75 L6.35 102.95 6.15 102.35 Q6.05 101.6 5.95 100.85 5.75 98.8 5.55 96.75 5.5 96.3 5.45 95.85 L5.35 95.35 4.65 88.45 5.35 88.05 5.95 87.75 6.05 87.65 6.75 87.35 Q7.05 87.15 7.4 87.0 9.9 85.6 10.5 83.25 L10.7 81.1 Q10.55 79.1 8.7 77.7 L8.3 77.4 Q7.7 77.0 7.15 76.6 7.05 75.7 7.0 74.85 6.9 73.55 6.8 72.25 6.9 71.2 7.0 70.15 L7.1 69.55 7.3 68.2 7.4 67.0 10.1 60.55 Q10.4 59.9 10.7 59.25 L10.9 58.85 Q10.85 56.0 10.8 53.15 L10.8 52.35 Q10.8 50.4 10.8 48.45 L10.8 47.95 Q10.8 47.1 10.8 46.25 L10.5 44.45 10.3 42.65 10.2 42.25 10.2 42.05 10.2 41.75 10.2 41.65 10.15 41.25 10.15 41.15 10.15 41.05 10.15 40.95 10.15 40.85 10.15 40.75 10.15 40.75 10.15 40.65 10.05 39.85 10.15 38.05 10.15 37.25 10.15 36.8 10.25 35.5 Q10.3 34.8 10.35 34.1 10.45 32.1 10.55 30.1 L10.65 29.0 10.55 28.0 10.55 27.4 10.55 26.3 10.55 26.1 10.55 25.5 Q10.55 25.25 10.55 25.0 L10.45 23.2 Q10.45 22.45 10.45 21.7 L10.4 20.2 10.3 16.25 11.8 13.05 12.9 10.45 Q13.1 10.05 13.25 9.65 L14.65 6.6 15.15 4.6 16.3 -0.1 Q17.3 -4.25 18.3 -8.4 L16.6 -11.2 15.8 -12.5 Q13.8 -15.8 11.8 -19.1 10.65 -21.0 9.5 -22.9 8.15 -25.1 6.8 -27.3 L6.8 -27.3 Q5.95 -27.4 5.15 -27.5 3.95 -26.35 2.75 -25.2 L1.55 -24.1 -3.35 -19.45 -7.1 -15.95 -10.5 -12.75 Q-11.45 -11.85 -12.4 -10.95 L-13.7 -9.65 -13.95 -7.6 -13.75 -5.75 -13.75 -5.35 -13.65 -4.1 -13.65 -3.6 Q-13.65 -2.75 -13.65 -1.95 -13.8 0.35 -14.8 2.3 L-15.3 3.25 -15.4 4.15 -15.75 6.75 -15.75 6.85 -16.15 7.4 -16.6 7.9 -17.05 8.4 Q-17.9 9.15 -18.75 9.9 L-19.5 10.45 -20.9 11.55 Q-22.7 13.3 -23.35 15.85 L-23.35 15.95 Q-24.0 18.65 -21.85 20.55 L-21.45 20.9 -20.2 21.75 -20.6 25.45 Q-20.95 29.1 -21.3 32.75 -21.45 34.4 -21.6 36.0 -22.1 37.75 -22.6 39.5 -22.9 40.45 -23.2 41.4 L-23.4 41.9 Q-24.25 44.6 -25.1 47.3 -25.65 48.95 -26.2 50.6 -26.35 51.0 -26.5 51.4 -27.35 54.1 -28.2 56.8 L-29.9 62.3 -30.1 63.1 -29.85 66.0 -29.45 70.55 -29.45 70.85 -29.85 71.05 -30.25 71.25 -31.0 71.7 -32.75 73.4 -33.2 74.1 Q-34.05 75.6 -34.15 77.15 -34.25 78.8 -33.5 80.5" fill="#6699ff" fill-rule="evenodd" stroke="none">
      <animate attributeName="fill" dur="2s" repeatCount="indefinite" values="#6699ff;#6699ff"/>
      <animate attributeName="fill-opacity" dur="2s" repeatCount="indefinite" values="1.0;1.0"/>
      <animate attributeName="d" dur="2s" repeatCount="indefinite" values="M-33.5 80.5 Q-33.1 81.35 -32.35 81.8 -31.05 82.65 -29.6 82.95 L-27.7 83.1 -25.8 85.05 -22.6 88.25 -22.5 88.85 -21.3 95.3 -21.2 96.0 -18.7 99.1 -17.3 100.8 -11.6 108.0 -11.4 108.4 -11.2 108.8 -10.8 109.5 -9.2 111.35 -7.45 112.45 -6.1 113.05 -5.7 113.15 -3.5 113.55 Q-2.15 113.45 -0.8 113.4 0.45 113.0 1.7 112.65 3.35 111.95 4.8 110.75 L5.1 110.45 5.45 110.1 5.65 109.85 6.0 109.2 Q7.05 107.0 6.75 104.75 L6.35 102.95 6.15 102.35 Q6.05 101.6 5.95 100.85 5.75 98.8 5.55 96.75 5.5 96.3 5.45 95.85 L5.35 95.35 4.65 88.45 5.35 88.05 5.95 87.75 6.05 87.65 6.75 87.35 Q7.05 87.15 7.4 87.0 9.9 85.6 10.5 83.25 L10.7 81.1 Q10.55 79.1 8.7 77.7 L8.3 77.4 Q7.7 77.0 7.15 76.6 7.05 75.7 7.0 74.85 6.9 73.55 6.8 72.25 6.9 71.2 7.0 70.15 L7.1 69.55 7.3 68.2 7.4 67.0 10.1 60.55 Q10.4 59.9 10.7 59.25 L10.9 58.85 Q10.85 56.0 10.8 53.15 L10.8 52.35 Q10.8 50.4 10.8 48.45 L10.8 47.95 Q10.8 47.1 10.8 46.25 L10.5 44.45 10.3 42.65 10.2 42.25 10.2 42.05 10.2 41.75 10.2 41.65 10.15 41.25 10.15 41.15 10.15 41.05 10.15 40.95 10.15 40.85 10.15 40.75 10.15 40.75 10.15 40.65 10.05 39.85 10.15 38.05 10.15 37.25 10.15 36.8 10.25 35.5 Q10.3 34.8 10.35 34.1 10.45 32.1 10.55 30.1 L10.65 29.0 10.55 28.0 10.55 27.4 10.55 26.3 10.55 26.1 10.55 25.5 Q10.55 25.25 10.55 25.0 L10.45 23.2 Q10.45 22.45 10.45 21.7 L10.4 20.2 10.3 16.25 11.8 13.05 12.9 10.45 Q13.1 10.05 13.25 9.65 L14.65 6.6 15.15 4.6 16.3 -0.1 Q17.3 -4.25 18.3 -8.4 L16.6 -11.2 15.8 -12.5 Q13.8 -15.8 11.8 -19.1 10.65 -21.0 9.5 -22.9 8.15 -25.1 6.8 -27.3 L6.8 -27.3 Q5.95 -27.4 5.15 -27.5 3.95 -26.35 2.75 -25.2 L1.55 -24.1 -3.35 -19.45 -7.1 -15.95 -10.5 -12.75 Q-11.45 -11.85 -12.4 -10.95 L-13.7 -9.65 -13.95 -7.6 -13.75 -5.75 -13.75 -5.35 -13.65 -4.1 -13.65 -3.6 Q-13.65 -2.75 -13.65 -1.95 -13.8 0.35 -14.8 2.3 L-15.3 3.25 -15.4 4.15 -15.75 6.75 -15.75 6.85 -16.15 7.4 -16.6 7.9 -17.05 8.4 Q-17.9 9.15 -18.75 9.9 L-19.5 10.45 -20.9 11.55 Q-22.7 13.3 -23.35 15.85 L-23.35 15.95 Q-24.0 18.65 -21.85 20.55 L-21.45 20.9 -20.2 21.75 -20.6 25.45 Q-20.95 29.1 -21.3 32.75 -21.45 34.4 -21.6 36.0 -22.1 37.75 -22.6 39.5 -22.9 40.45 -23.2 41.4 L-23.4 41.9 Q-24.25 44.6 -25.1 47.3 -25.65 48.95 -26.2 50.6 -26.35 51.0 -26.5 51.4 -27.35 54.1 -28.2 56.8 L-29.9 62.3 -30.1 63.1 -29.85 66.0 -29.45 70.55 -29.45 70.85 -29.85 71.05 -30.25 71.25 -31.0 71.7 -32.75 73.4 -33.2 74.1 Q-34.05 75.6 -34.15 77.15 -34.25 78.8 -33.5 80.5;M-31.4 55.1 Q-31.2 56.75 -31.0 58.4 -30.6 61.45 -30.25 64.5 L-27.95 67.7 -24.75 72.25 -21.9 81.0 -21.5 82.1 -23.75 95.25 -22.55 96.25 -16.65 101.65 -19.95 104.75 -1.35 104.05 -0.55 104.05 0.25 104.05 1.65 104.05 6.4 103.85 4.15 100.2 2.55 97.5 3.4 96.75 6.75 93.75 Q8.95 91.6 9.85 89.1 10.85 86.4 10.3 83.3 9.65 79.5 7.0 76.6 L6.9 75.75 6.75 74.75 6.8 74.15 6.9 72.55 Q7.2 67.8 7.5 63.1 L7.0 59.35 8.1 58.6 Q9.25 57.55 9.75 55.95 11.1 51.45 6.75 48.9 6.0 48.45 5.1 48.35 L4.45 47.55 8.7 34.05 9.2 32.55 9.6 31.25 9.6 31.05 9.8 29.45 Q9.9 28.65 10.0 27.85 10.55 22.95 11.1 18.1 L11.15 13.7 Q11.2 9.35 11.25 5.05 L11.25 3.85 Q12.9 3.6 14.15 2.8 15.6 1.9 16.45 0.2 17.9 -2.8 16.85 -4.85 16.0 -6.45 13.7 -7.5 L12.5 -7.9 14.1 -10.15 14.0 -12.55 13.5 -26.75 Q14.3 -28.15 14.45 -29.6 L14.5 -30.45 Q14.65 -36.85 7.1 -37.9 L5.5 -38.15 Q2.35 -40.55 -1.7 -40.75 L-2.75 -40.7 Q-4.5 -40.6 -6.0 -39.95 L-8.7 -38.2 -11.7 -35.9 -12.15 -35.55 -12.4 -35.35 -12.8 -35.05 -12.9 -34.95 -13.35 -34.55 -13.5 -34.4 -13.65 -34.25 -13.75 -34.15 -13.85 -34.05 -14.0 -33.9 -14.05 -33.85 -14.15 -33.75 -14.95 -32.35 -16.85 -29.1 -17.25 -27.65 -18.25 -26.95 -20.0 -25.3 Q-20.85 -24.2 -21.0 -22.95 -21.5 -17.9 -17.35 -16.4 L-16.7 -18.6 -16.0 -20.7 -15.5 -21.9 -17.45 -22.7 -17.55 -23.05 -16.5 -23.05 Q-15.75 -23.05 -15.5 -23.8 L-14.4 -27.4 Q-13.95 -29.15 -14.2 -30.5 L-11.55 -31.7 -3.85 -34.05 3.2 -35.8 8.85 -34.85 Q9.65 -34.25 9.65 -33.3 L9.75 -26.45 9.9 -22.2 10.15 -12.6 Q10.15 -3.7 8.75 4.9 L7.6 10.95 7.05 14.05 Q6.0 21.9 4.05 29.5 2.85 34.0 2.8 38.75 2.75 44.3 4.55 49.3 L4.45 49.6 Q4.0 51.2 3.7 52.85 3.2 56.15 3.55 59.5 L3.95 62.95 5.55 76.8 6.7 87.35 1.1 95.35 Q-0.5 97.6 -0.2 100.3 L-3.95 100.2 -8.15 100.35 -12.05 100.65 -12.65 100.55 -15.4 100.2 -16.2 100.0 Q-16.95 98.55 -17.05 96.9 -17.35 92.5 -18.05 88.3 L-18.4 86.2 -18.8 84.3 -19.8 78.95 -19.8 78.75 -20.1 77.1 -20.45 75.7 -20.85 74.3 Q-21.6 72.0 -22.7 69.85 L-23.45 68.2 -24.5 64.95 Q-25.75 60.05 -25.7 54.75 L-25.7 54.55 Q-22.9 50.1 -22.35 44.9 L-22.25 44.0 -22.05 41.15 -21.15 33.55 Q-20.05 26.0 -18.35 18.6 -17.6 15.4 -17.2 12.15 -16.75 8.45 -16.7 4.75 -16.7 2.7 -16.85 0.7 L-17.2 -0.3 Q-18.7 -6.15 -18.1 -11.9 -20.5 -9.5 -21.9 -6.15 -22.3 -5.2 -22.05 -4.35 -20.6 1.0 -18.4 6.6 L-22.65 17.5 -22.95 19.1 -24.25 25.0 -22.4 34.0 -22.6 34.6 -23.1 35.7 -23.55 36.8 -24.15 38.3 -26.05 43.0 -26.65 44.5 Q-26.25 47.7 -25.9 50.85 -28.65 53.0 -31.4 55.1"/>
    </path>
    <path d="M-32.2 76.0 L-29.95 78.05 -29.8 78.15 Q-29.8 78.15 -29.8 78.15 -26.5 79.95 -24.3 83.3 -23.55 84.35 -22.8 85.4 L-21.05 87.6 Q-19.95 88.85 -20.35 90.6 L-20.55 91.7 Q-15.15 96.05 -11.8 102.0 L-9.8 105.4 Q-8.25 107.8 -5.75 109.45 L-3.45 110.85 Q-1.9 111.75 0.0 111.35 3.35 110.55 3.7 107.1 2.85 102.05 3.25 96.9 3.5 93.8 3.25 90.6 L2.95 87.8 Q2.75 86.2 3.75 85.0 L4.25 84.5 Q4.8 84.1 5.35 83.7 5.45 83.6 5.5 83.5 6.5 82.9 7.65 82.55 6.05 78.8 5.45 74.7 L5.15 72.35 Q4.95 70.2 5.3 68.05 6.0 64.3 8.05 60.95 L8.65 59.4 Q9.7 53.15 8.5 46.9 L8.05 43.4 Q7.5 36.05 6.95 28.75 L6.85 26.0 Q6.8 22.3 7.5 18.7 L8.35 15.4 9.05 13.15 Q10.1 10.0 11.4 6.95 L11.65 6.45 12.75 5.2 Q14.15 2.8 14.25 0.0 14.2 -0.35 14.15 -0.7 L14.15 -0.9 Q13.35 -4.2 13.6 -7.6 L13.55 -8.45 13.05 -10.1 Q12.65 -10.8 12.75 -11.7 12.25 -12.15 12.05 -12.8 L11.95 -13.15 Q10.05 -15.5 8.6 -18.3 L7.8 -19.8 Q4.4 -19.65 3.2 -23.05 3.1 -23.25 2.85 -23.05 L-2.4 -18.2 Q-5.15 -15.6 -7.9 -13.0 -8.95 -12.0 -10.25 -11.4 -10.05 -8.2 -9.85 -5.05 L-9.7 -2.65 Q-9.5 0.3 -10.75 2.85 L-12.2 5.75 Q-14.65 10.45 -17.65 21.2 L-17.8 24.25 Q-18.05 26.35 -18.25 28.4 -18.8 32.0 -19.35 35.55 L-19.85 37.95 Q-20.45 40.2 -21.05 42.45 -22.1 45.8 -24.25 50.25 -25.55 52.9 -26.35 55.65 -27.3 59.05 -27.3 64.35 -25.6 71.8 -32.2 76.0" fill="#6699ff" fill-rule="evenodd" stroke="none">
      <animate attributeName="fill" dur="2s" repeatCount="indefinite" values="#6699ff;#99ccff"/>
      <animate attributeName="fill-opacity" dur="2s" repeatCount="indefinite" values="1.0;1.0"/>
      <animate attributeName="d" dur="2s" repeatCount="indefinite" values="M-32.2 76.0 L-29.95 78.05 -29.8 78.15 Q-29.8 78.15 -29.8 78.15 -26.5 79.95 -24.3 83.3 -23.55 84.35 -22.8 85.4 L-21.05 87.6 Q-19.95 88.85 -20.35 90.6 L-20.55 91.7 Q-15.15 96.05 -11.8 102.0 L-9.8 105.4 Q-8.25 107.8 -5.75 109.45 L-3.45 110.85 Q-1.9 111.75 0.0 111.35 3.35 110.55 3.7 107.1 2.85 102.05 3.25 96.9 3.5 93.8 3.25 90.6 L2.95 87.8 Q2.75 86.2 3.75 85.0 L4.25 84.5 Q4.8 84.1 5.35 83.7 5.45 83.6 5.5 83.5 6.5 82.9 7.65 82.55 6.05 78.8 5.45 74.7 L5.15 72.35 Q4.95 70.2 5.3 68.05 6.0 64.3 8.05 60.95 L8.65 59.4 Q9.7 53.15 8.5 46.9 L8.05 43.4 Q7.5 36.05 6.95 28.75 L6.85 26.0 Q6.8 22.3 7.5 18.7 L8.35 15.4 9.05 13.15 Q10.1 10.0 11.4 6.95 L11.65 6.45 12.75 5.2 Q14.15 2.8 14.25 0.0 14.2 -0.35 14.15 -0.7 L14.15 -0.9 Q13.35 -4.2 13.6 -7.6 L13.55 -8.45 13.05 -10.1 Q12.65 -10.8 12.75 -11.7 12.25 -12.15 12.05 -12.8 L11.95 -13.15 Q10.05 -15.5 8.6 -18.3 L7.8 -19.8 Q4.4 -19.65 3.2 -23.05 3.1 -23.25 2.85 -23.05 L-2.4 -18.2 Q-5.15 -15.6 -7.9 -13.0 -8.95 -12.0 -10.25 -11.4 -10.05 -8.2 -9.85 -5.05 L-9.7 -2.65 Q-9.5 0.3 -10.75 2.85 L-12.2 5.75 Q-14.65 10.45 -17.65 21.2 L-17.8 24.25 Q-18.05 26.35 -18.25 28.4 -18.8 32.0 -19.35 35.55 L-19.85 37.95 Q-20.45 40.2 -21.05 42.45 -22.1 45.8 -24.25 50.25 -25.55 52.9 -26.35 55.65 -27.3 59.05 -27.3 64.35 -25.6 71.8 -32.2 76.0;M-25.7 54.55 L-25.45 59.85 -24.5 64.95 Q-23.85 67.5 -22.7 69.85 -21.65 72.0 -20.95 74.25 -20.2 76.55 -19.8 78.95 L-18.8 84.3 Q-17.45 90.5 -17.05 96.9 L-16.8 98.45 Q-16.6 99.1 -16.4 99.7 L-16.2 100.0 Q-14.1 100.35 -12.05 100.65 L-0.2 100.3 Q-0.35 98.95 -0.05 97.7 0.3 96.45 1.1 95.35 3.9 91.35 6.7 87.35 6.3 83.7 5.9 80.05 L5.55 76.8 Q4.75 69.85 3.95 62.95 L3.55 59.5 Q3.25 56.9 3.5 54.35 3.75 51.8 4.55 49.3 3.65 46.8 3.1 34.05 3.45 31.75 3.1 34.05 L3.35 32.45 Q3.65 30.95 3.1 34.05 3.4 32.2 3.85 30.35 L4.05 29.5 Q6.0 21.9 7.05 14.05 L7.6 10.95 Q8.65 6.15 9.3 1.2 L9.5 -0.7 Q10.15 -6.6 10.15 -12.6 L10.05 -18.2 9.9 -22.2 Q9.6 -27.9 9.65 -33.3 L9.45 -34.2 8.85 -34.85 Q6.0 -35.35 3.2 -35.8 -4.3 -34.1 -11.55 -31.7 L-14.2 -30.5 Q-14.15 -29.8 -14.15 -29.1 L-14.4 -27.4 -15.5 -23.8 Q-15.7 -23.5 -15.9 -23.25 -16.2 -23.15 -16.5 -23.05 L-17.55 -23.05 Q-17.5 -22.85 -17.45 -22.7 L-16.45 -22.35 Q-15.95 -22.1 -15.5 -21.9 -15.75 -21.3 -16.0 -20.7 L-17.35 -16.4 Q-17.9 -14.2 -18.1 -11.9 -18.4 -9.05 -18.2 -6.15 -17.95 -3.25 -17.2 -0.3 L-16.85 0.7 Q-16.75 2.0 -16.7 3.25 L-16.7 4.75 Q-16.75 8.25 -23.35 49.45 L-24.3 51.85 Q-24.9 53.25 -23.35 49.45 -24.2 52.1 -23.35 49.45 L-24.05 51.35 Q-24.75 53.0 -23.35 49.45 -24.2 52.1 -23.75 50.55 -24.5 52.6 -23.35 49.45 -24.2 52.1 -23.55 50.15 -24.4 52.4 -25.7 54.55"/>
    </path>
    <path d="M-32.2 76.0 L-29.95 78.05 -29.8 78.15 Q-29.8 78.15 -29.8 78.15 -26.5 79.95 -24.3 83.3 -23.55 84.35 -22.8 85.4 L-21.05 87.6 Q-19.95 88.85 -20.35 90.6 L-20.55 91.7 Q-15.15 96.05 -11.8 102.0 L-9.8 105.4 Q-8.25 107.8 -5.75 109.45 L-3.45 110.85 Q-1.9 111.75 0.0 111.35 3.35 110.55 3.7 107.1 2.85 102.05 3.25 96.9 3.5 93.8 3.25 90.6 L2.95 87.8 Q2.75 86.2 3.75 85.0 L4.25 84.5 Q4.8 84.1 5.35 83.7 5.45 83.6 5.5 83.5 6.5 82.9 7.65 82.55 6.05 78.8 5.45 74.7 L5.15 72.35 Q4.95 70.2 5.3 68.05 6.0 64.3 8.05 60.95 L8.65 59.4 Q9.7 53.15 8.5 46.9 L8.05 43.4 Q7.5 36.05 6.95 28.75 L6.85 26.0 Q6.8 22.3 7.5 18.7 L8.35 15.4 9.05 13.15 Q10.1 10.0 11.4 6.95 L11.65 6.45 12.75 5.2 Q14.15 2.8 14.25 0.0 14.2 -0.35 14.15 -0.7 L14.15 -0.9 Q13.35 -4.2 13.6 -7.6 L13.55 -8.45 13.05 -10.1 Q12.65 -10.8 12.75 -11.7 12.25 -12.15 12.05 -12.8 L11.95 -13.15 Q10.05 -15.5 8.6 -18.3 L7.8 -19.8 Q4.4 -19.65 3.2 -23.05 3.1 -23.25 2.85 -23.05 L-2.4 -18.2 Q-5.15 -15.6 -7.9 -13.0 -8.95 -12.0 -10.25 -11.4 -10.05 -8.2 -9.85 -5.05 L-9.7 -2.65 Q-9.5 0.3 -10.75 2.85 L-12.2 5.75 Q-14.65 10.45 -17.65 21.2 L-17.8 24.25 Q-18.05 26.35 -18.25 28.4 -18.8 32.0 -19.35 35.55 L-19.85 37.95 Q-20.45 40.2 -21.05 42.45 -22.1 45.8 -24.25 50.25 -25.55 52.9 -26.35 55.65 -27.3 59.05 -27.3 64.35 -25.6 71.8 -32.2 76.0" fill="#99ccff" fill-rule="evenodd" stroke="none">
      <animate attributeName="fill" dur="2s" repeatCount="indefinite" values="#99ccff;#99ccff"/>
      <animate attributeName="fill-opacity" dur="2s" repeatCount="indefinite" values="1.0;1.0"/>
      <animate attributeName="d" dur="2s" repeatCount="indefinite" values="M-32.2 76.0 L-29.95 78.05 -29.8 78.15 Q-29.8 78.15 -29.8 78.15 -26.5 79.95 -24.3 83.3 -23.55 84.35 -22.8 85.4 L-21.05 87.6 Q-19.95 88.85 -20.35 90.6 L-20.55 91.7 Q-15.15 96.05 -11.8 102.0 L-9.8 105.4 Q-8.25 107.8 -5.75 109.45 L-3.45 110.85 Q-1.9 111.75 0.0 111.35 3.35 110.55 3.7 107.1 2.85 102.05 3.25 96.9 3.5 93.8 3.25 90.6 L2.95 87.8 Q2.75 86.2 3.75 85.0 L4.25 84.5 Q4.8 84.1 5.35 83.7 5.45 83.6 5.5 83.5 6.5 82.9 7.65 82.55 6.05 78.8 5.45 74.7 L5.15 72.35 Q4.95 70.2 5.3 68.05 6.0 64.3 8.05 60.95 L8.65 59.4 Q9.7 53.15 8.5 46.9 L8.05 43.4 Q7.5 36.05 6.95 28.75 L6.85 26.0 Q6.8 22.3 7.5 18.7 L8.35 15.4 9.05 13.15 Q10.1 10.0 11.4 6.95 L11.65 6.45 12.75 5.2 Q14.15 2.8 14.25 0.0 14.2 -0.35 14.15 -0.7 L14.15 -0.9 Q13.35 -4.2 13.6 -7.6 L13.55 -8.45 13.05 -10.1 Q12.65 -10.8 12.75 -11.7 12.25 -12.15 12.05 -12.8 L11.95 -13.15 Q10.05 -15.5 8.6 -18.3 L7.8 -19.8 Q4.4 -19.65 3.2 -23.05 3.1 -23.25 2.85 -23.05 L-2.4 -18.2 Q-5.15 -15.6 -7.9 -13.0 -8.95 -12.0 -10.25 -11.4 -10.05 -8.2 -9.85 -5.05 L-9.7 -2.65 Q-9.5 0.3 -10.75 2.85 L-12.2 5.75 Q-14.65 10.45 -17.65 21.2 L-17.8 24.25 Q-18.05 26.35 -18.25 28.4 -18.8 32.0 -19.35 35.55 L-19.85 37.95 Q-20.45 40.2 -21.05 42.45 -22.1 45.8 -24.25 50.25 -25.55 52.9 -26.35 55.65 -27.3 59.05 -27.3 64.35 -25.6 71.8 -32.2 76.0;M-25.7 54.55 L-25.45 59.85 -24.5 64.95 Q-23.85 67.5 -22.7 69.85 -21.65 72.0 -20.95 74.25 -20.2 76.55 -19.8 78.95 L-18.8 84.3 Q-17.45 90.5 -17.05 96.9 L-16.8 98.45 Q-16.6 99.1 -16.4 99.7 L-16.2 100.0 Q-14.1 100.35 -12.05 100.65 L-0.2 100.3 Q-0.35 98.95 -0.05 97.7 0.3 96.45 1.1 95.35 3.9 91.35 6.7 87.35 6.3 83.7 5.9 80.05 L5.55 76.8 Q4.75 69.85 3.95 62.95 L3.55 59.5 Q3.25 56.9 3.5 54.35 3.75 51.8 4.55 49.3 3.65 46.8 3.1 34.05 3.45 31.75 3.1 34.05 L3.35 32.45 Q3.65 30.95 3.1 34.05 3.4 32.2 3.85 30.35 L4.05 29.5 Q6.0 21.9 7.05 14.05 L7.6 10.95 Q8.65 6.15 9.3 1.2 L9.5 -0.7 Q10.15 -6.6 10.15 -12.6 L10.05 -18.2 9.9 -22.2 Q9.6 -27.9 9.65 -33.3 L9.45 -34.2 8.85 -34.85 Q6.0 -35.35 3.2 -35.8 -4.3 -34.1 -11.55 -31.7 L-14.2 -30.5 Q-14.15 -29.8 -14.15 -29.1 L-14.4 -27.4 -15.5 -23.8 Q-15.7 -23.5 -15.9 -23.25 -16.2 -23.15 -16.5 -23.05 L-17.55 -23.05 Q-17.5 -22.85 -17.45 -22.7 L-16.45 -22.35 Q-15.95 -22.1 -15.5 -21.9 -15.75 -21.3 -16.0 -20.7 L-17.35 -16.4 Q-17.9 -14.2 -18.1 -11.9 -18.4 -9.05 -18.2 -6.15 -17.95 -3.25 -17.2 -0.3 L-16.85 0.7 Q-16.75 2.0 -16.7 3.25 L-16.7 4.75 Q-16.75 8.25 -23.35 49.45 L-24.3 51.85 Q-24.9 53.25 -23.35 49.45 -24.2 52.1 -23.35 49.45 L-24.05 51.35 Q-24.75 53.0 -23.35 49.45 -24.2 52.1 -23.75 50.55 -24.5 52.6 -23.35 49.45 -24.2 52.1 -23.55 50.15 -24.4 52.4 -25.7 54.55"/>
    </path>
    <path d="M-33.5 80.5 Q-34.25 78.8 -34.15 77.15 -34.05 75.6 -33.2 74.1 L-32.75 73.4 -31.0 71.7 -30.25 71.25 -29.85 71.05 -29.45 70.85 -29.45 70.55 -29.85 66.0 -30.1 63.1 -29.9 62.3 -28.2 56.8 Q-27.35 54.1 -26.5 51.4 -26.35 51.0 -26.2 50.6 -25.65 48.95 -25.1 47.3 -24.25 44.6 -23.4 41.9 L-23.2 41.4 Q-22.9 40.45 -22.6 39.5 -22.1 37.75 -21.6 36.0 -21.45 34.4 -21.3 32.75 -20.95 29.1 -20.6 25.45 L-20.2 21.75 -21.45 20.9 -21.85 20.55 Q-24.0 18.65 -23.35 15.95 L-23.35 15.85 Q-22.7 13.3 -20.9 11.55 L-19.5 10.45 -18.75 9.9 Q-17.9 9.15 -17.05 8.4 L-16.6 7.9 -16.15 7.4 -15.75 6.85 -15.75 6.75 -15.4 4.15 -15.3 3.25 -14.8 2.3 Q-13.8 0.35 -13.65 -1.95 -13.65 -2.75 -13.65 -3.6 L-13.65 -4.1 -13.75 -5.35 -13.75 -5.75 -13.95 -7.6 -13.7 -9.65 -12.4 -10.95 Q-11.45 -11.85 -10.5 -12.75 L-7.1 -15.95 -3.35 -19.45 1.55 -24.1 2.75 -25.2 Q3.95 -26.35 5.15 -27.5 5.95 -27.4 6.8 -27.3 L6.8 -27.3 Q8.15 -25.1 9.5 -22.9 10.65 -21.0 11.8 -19.1 13.8 -15.8 15.8 -12.5 L16.6 -11.2 18.3 -8.4 Q17.3 -4.25 16.3 -0.1 L15.15 4.6 14.65 6.6 13.25 9.65 Q13.1 10.05 12.9 10.45 L11.8 13.05 10.3 16.25 10.4 20.2 10.45 21.7 Q10.45 22.45 10.45 23.2 L10.55 25.0 Q10.55 25.25 10.55 25.5 L10.55 26.1 10.55 26.3 10.55 27.4 10.55 28.0 10.65 29.0 10.55 30.1 Q10.45 32.1 10.35 34.1 10.3 34.8 10.25 35.5 L10.15 36.8 10.15 37.25 10.15 38.05 10.05 39.85 10.15 40.65 10.15 40.75 10.15 40.75 10.15 40.85 10.15 40.95 10.15 41.05 10.15 41.15 10.15 41.25 10.2 41.65 10.2 41.75 10.2 42.05 10.2 42.25 10.3 42.65 10.5 44.45 10.8 46.25 Q10.8 47.1 10.8 47.95 L10.8 48.45 Q10.8 50.4 10.8 52.35 L10.8 53.15 Q10.85 56.0 10.9 58.85 L10.7 59.25 Q10.4 59.9 10.1 60.55 L7.4 67.0 7.3 68.2 7.1 69.55 7.0 70.15 Q6.9 71.2 6.8 72.25 6.9 73.55 7.0 74.85 7.05 75.7 7.15 76.6 7.7 77.0 8.3 77.4 L8.7 77.7 Q10.55 79.1 10.7 81.1 L10.5 83.25 Q9.9 85.6 7.4 87.0 7.05 87.15 6.75 87.35 L6.05 87.65 5.95 87.75 5.35 88.05 4.65 88.45 5.35 95.35 5.45 95.85 Q5.5 96.3 5.55 96.75 5.75 98.8 5.95 100.85 6.05 101.6 6.15 102.35 L6.35 102.95 6.75 104.75 Q7.05 107.0 6.0 109.2 L5.65 109.85 5.45 110.1 5.1 110.45 4.8 110.75 Q3.35 111.95 1.7 112.65 0.45 113.0 -0.8 113.4 -2.15 113.45 -3.5 113.55 L-5.7 113.15 -6.1 113.05 -7.45 112.45 -9.2 111.35 -10.8 109.5 -11.2 108.8 -11.4 108.4 -11.6 108.0 -17.3 100.8 -18.7 99.1 -21.2 96.0 -21.3 95.3 -22.5 88.85 -22.6 88.25 -25.8 85.05 -27.7 83.1 -29.6 82.95 Q-31.05 82.65 -32.35 81.8 -33.1 81.35 -33.5 80.5 M-32.2 76.0 Q-25.6 71.8 -27.3 64.35 -27.3 59.05 -26.35 55.65 -25.55 52.9 -24.25 50.25 -22.1 45.8 -21.05 42.45 -20.45 40.2 -19.85 37.95 L-19.35 35.55 Q-18.8 32.0 -18.25 28.4 -18.05 26.35 -17.8 24.25 L-17.65 21.2 Q-14.65 10.45 -12.2 5.75 L-10.75 2.85 Q-9.5 0.3 -9.7 -2.65 L-9.85 -5.05 Q-10.05 -8.2 -10.25 -11.4 -8.95 -12.0 -7.9 -13.0 -5.15 -15.6 -2.4 -18.2 L2.85 -23.05 Q3.1 -23.25 3.2 -23.05 4.4 -19.65 7.8 -19.8 L8.6 -18.3 Q10.05 -15.5 11.95 -13.15 L12.05 -12.8 Q12.25 -12.15 12.75 -11.7 12.65 -10.8 13.05 -10.1 L13.55 -8.45 13.6 -7.6 Q13.35 -4.2 14.15 -0.9 L14.15 -0.7 Q14.2 -0.35 14.25 0.0 14.15 2.8 12.75 5.2 L11.65 6.45 11.4 6.95 Q10.1 10.0 9.05 13.15 L8.35 15.4 7.5 18.7 Q6.8 22.3 6.85 26.0 L6.95 28.75 Q7.5 36.05 8.05 43.4 L8.5 46.9 Q9.7 53.15 8.65 59.4 L8.05 60.95 Q6.0 64.3 5.3 68.05 4.95 70.2 5.15 72.35 L5.45 74.7 Q6.05 78.8 7.65 82.55 6.5 82.9 5.5 83.5 5.45 83.6 5.35 83.7 4.8 84.1 4.25 84.5 L3.75 85.0 Q2.75 86.2 2.95 87.8 L3.25 90.6 Q3.5 93.8 3.25 96.9 2.85 102.05 3.7 107.1 3.35 110.55 0.0 111.35 -1.9 111.75 -3.45 110.85 L-5.75 109.45 Q-8.25 107.8 -9.8 105.4 L-11.8 102.0 Q-15.15 96.05 -20.55 91.7 L-20.35 90.6 Q-19.95 88.85 -21.05 87.6 L-22.8 85.4 Q-23.55 84.35 -24.3 83.3 -26.5 79.95 -29.8 78.15 -29.8 78.15 -29.8 78.15 L-29.95 78.05 -32.2 76.0 Q-25.6 71.8 -27.3 64.35 -27.3 59.05 -26.35 55.65 -25.55 52.9 -24.25 50.25 -22.1 45.8 -21.05 42.45 -20.45 40.2 -19.85 37.95 L-19.35 35.55 Q-18.8 32.0 -18.25 28.4 -18.05 26.35 -17.8 24.25 L-17.65 21.2 Q-14.65 10.45 -12.2 5.75 L-10.75 2.85 Q-9.5 0.3 -9.7 -2.65 L-9.85 -5.05 Q-10.05 -8.2 -10.25 -11.4 -8.95 -12.0 -7.9 -13.0 -5.15 -15.6 -2.4 -18.2 L2.85 -23.05 Q3.1 -23.25 3.2 -23.05 4.4 -19.65 7.8 -19.8 L8.6 -18.3 Q10.05 -15.5 11.95 -13.15 L12.05 -12.8 Q12.25 -12.15 12.75 -11.7 12.65 -10.8 13.05 -10.1 L13.55 -8.45 13.6 -7.6 Q13.35 -4.2 14.15 -0.9 L14.15 -0.7 Q14.2 -0.35 14.25 0.0 14.15 2.8 12.75 5.2 L11.65 6.45 11.4 6.95 Q10.1 10.0 9.05 13.15 L8.35 15.4 7.5 18.7 Q6.8 22.3 6.85 26.0 L6.95 28.75 Q7.5 36.05 8.05 43.4 L8.5 46.9 Q9.7 53.15 8.65 59.4 L8.05 60.95 Q6.0 64.3 5.3 68.05 4.95 70.2 5.15 72.35 L5.45 74.7 Q6.05 78.8 7.65 82.55 6.5 82.9 5.5 83.5 5.45 83.6 5.35 83.7 4.8 84.1 4.25 84.5 L3.75 85.0 Q2.75 86.2 2.95 87.8 L3.25 90.6 Q3.5 93.8 3.25 96.9 2.85 102.05 3.7 107.1 3.35 110.55 0.0 111.35 -1.9 111.75 -3.45 110.85 L-5.75 109.45 Q-8.25 107.8 -9.8 105.4 L-11.8 102.0 Q-15.15 96.05 -20.55 91.7 L-20.35 90.6 Q-19.95 88.85 -21.05 87.6 L-22.8 85.4 Q-23.55 84.35 -24.3 83.3 -26.5 79.95 -29.8 78.15 -29.8 78.15 -29.8 78.15 L-29.95 78.05 -32.2 76.0" fill="none" stroke="#000000" stroke-linecap="round" stroke-linejoin="round" stroke-opacity="0.0" stroke-width="1.0">
      <animate attributeName="stroke" dur="2s" repeatCount="indefinite" values="#000000;#000001"/>
      <animate attributeName="stroke-width" dur="2s" repeatCount="indefinite" values="0.0;0.0"/>
      <animate attributeName="fill-opacity" dur="2s" repeatCount="indefinite" values="0.0;0.0"/>
      <animate attributeName="d" dur="2s" repeatCount="indefinite" values="M-33.5 80.5 Q-34.25 78.8 -34.15 77.15 -34.05 75.6 -33.2 74.1 L-32.75 73.4 -31.0 71.7 -30.25 71.25 -29.85 71.05 -29.45 70.85 -29.45 70.55 -29.85 66.0 -30.1 63.1 -29.9 62.3 -28.2 56.8 Q-27.35 54.1 -26.5 51.4 -26.35 51.0 -26.2 50.6 -25.65 48.95 -25.1 47.3 -24.25 44.6 -23.4 41.9 L-23.2 41.4 Q-22.9 40.45 -22.6 39.5 -22.1 37.75 -21.6 36.0 -21.45 34.4 -21.3 32.75 -20.95 29.1 -20.6 25.45 L-20.2 21.75 -21.45 20.9 -21.85 20.55 Q-24.0 18.65 -23.35 15.95 L-23.35 15.85 Q-22.7 13.3 -20.9 11.55 L-19.5 10.45 -18.75 9.9 Q-17.9 9.15 -17.05 8.4 L-16.6 7.9 -16.15 7.4 -15.75 6.85 -15.75 6.75 -15.4 4.15 -15.3 3.25 -14.8 2.3 Q-13.8 0.35 -13.65 -1.95 -13.65 -2.75 -13.65 -3.6 L-13.65 -4.1 -13.75 -5.35 -13.75 -5.75 -13.95 -7.6 -13.7 -9.65 -12.4 -10.95 Q-11.45 -11.85 -10.5 -12.75 L-7.1 -15.95 -3.35 -19.45 1.55 -24.1 2.75 -25.2 Q3.95 -26.35 5.15 -27.5 5.95 -27.4 6.8 -27.3 L6.8 -27.3 Q8.15 -25.1 9.5 -22.9 10.65 -21.0 11.8 -19.1 13.8 -15.8 15.8 -12.5 L16.6 -11.2 18.3 -8.4 Q17.3 -4.25 16.3 -0.1 L15.15 4.6 14.65 6.6 13.25 9.65 Q13.1 10.05 12.9 10.45 L11.8 13.05 10.3 16.25 10.4 20.2 10.45 21.7 Q10.45 22.45 10.45 23.2 L10.55 25.0 Q10.55 25.25 10.55 25.5 L10.55 26.1 10.55 26.3 10.55 27.4 10.55 28.0 10.65 29.0 10.55 30.1 Q10.45 32.1 10.35 34.1 10.3 34.8 10.25 35.5 L10.15 36.8 10.15 37.25 10.15 38.05 10.05 39.85 10.15 40.65 10.15 40.75 10.15 40.75 10.15 40.85 10.15 40.95 10.15 41.05 10.15 41.15 10.15 41.25 10.2 41.65 10.2 41.75 10.2 42.05 10.2 42.25 10.3 42.65 10.5 44.45 10.8 46.25 Q10.8 47.1 10.8 47.95 L10.8 48.45 Q10.8 50.4 10.8 52.35 L10.8 53.15 Q10.85 56.0 10.9 58.85 L10.7 59.25 Q10.4 59.9 10.1 60.55 L7.4 67.0 7.3 68.2 7.1 69.55 7.0 70.15 Q6.9 71.2 6.8 72.25 6.9 73.55 7.0 74.85 7.05 75.7 7.15 76.6 7.7 77.0 8.3 77.4 L8.7 77.7 Q10.55 79.1 10.7 81.1 L10.5 83.25 Q9.9 85.6 7.4 87.0 7.05 87.15 6.75 87.35 L6.05 87.65 5.95 87.75 5.35 88.05 4.65 88.45 5.35 95.35 5.45 95.85 Q5.5 96.3 5.55 96.75 5.75 98.8 5.95 100.85 6.05 101.6 6.15 102.35 L6.35 102.95 6.75 104.75 Q7.05 107.0 6.0 109.2 L5.65 109.85 5.45 110.1 5.1 110.45 4.8 110.75 Q3.35 111.95 1.7 112.65 0.45 113.0 -0.8 113.4 -2.15 113.45 -3.5 113.55 L-5.7 113.15 -6.1 113.05 -7.45 112.45 -9.2 111.35 -10.8 109.5 -11.2 108.8 -11.4 108.4 -11.6 108.0 -17.3 100.8 -18.7 99.1 -21.2 96.0 -21.3 95.3 -22.5 88.85 -22.6 88.25 -25.8 85.05 -27.7 83.1 -29.6 82.95 Q-31.05 82.65 -32.35 81.8 -33.1 81.35 -33.5 80.5 M-32.2 76.0 Q-25.6 71.8 -27.3 64.35 -27.3 59.05 -26.35 55.65 -25.55 52.9 -24.25 50.25 -22.1 45.8 -21.05 42.45 -20.45 40.2 -19.85 37.95 L-19.35 35.55 Q-18.8 32.0 -18.25 28.4 -18.05 26.35 -17.8 24.25 L-17.65 21.2 Q-14.65 10.45 -12.2 5.75 L-10.75 2.85 Q-9.5 0.3 -9.7 -2.65 L-9.85 -5.05 Q-10.05 -8.2 -10.25 -11.4 -8.95 -12.0 -7.9 -13.0 -5.15 -15.6 -2.4 -18.2 L2.85 -23.05 Q3.1 -23.25 3.2 -23.05 4.4 -19.65 7.8 -19.8 L8.6 -18.3 Q10.05 -15.5 11.95 -13.15 L12.05 -12.8 Q12.25 -12.15 12.75 -11.7 12.65 -10.8 13.05 -10.1 L13.55 -8.45 13.6 -7.6 Q13.35 -4.2 14.15 -0.9 L14.15 -0.7 Q14.2 -0.35 14.25 0.0 14.15 2.8 12.75 5.2 L11.65 6.45 11.4 6.95 Q10.1 10.0 9.05 13.15 L8.35 15.4 7.5 18.7 Q6.8 22.3 6.85 26.0 L6.95 28.75 Q7.5 36.05 8.05 43.4 L8.5 46.9 Q9.7 53.15 8.65 59.4 L8.05 60.95 Q6.0 64.3 5.3 68.05 4.95 70.2 5.15 72.35 L5.45 74.7 Q6.05 78.8 7.65 82.55 6.5 82.9 5.5 83.5 5.45 83.6 5.35 83.7 4.8 84.1 4.25 84.5 L3.75 85.0 Q2.75 86.2 2.95 87.8 L3.25 90.6 Q3.5 93.8 3.25 96.9 2.85 102.05 3.7 107.1 3.35 110.55 0.0 111.35 -1.9 111.75 -3.45 110.85 L-5.75 109.45 Q-8.25 107.8 -9.8 105.4 L-11.8 102.0 Q-15.15 96.05 -20.55 91.7 L-20.35 90.6 Q-19.95 88.85 -21.05 87.6 L-22.8 85.4 Q-23.55 84.35 -24.3 83.3 -26.5 79.95 -29.8 78.15 -29.8 78.15 -29.8 78.15 L-29.95 78.05 -32.2 76.0 Q-25.6 71.8 -27.3 64.35 -27.3 59.05 -26.35 55.65 -25.55 52.9 -24.25 50.25 -22.1 45.8 -21.05 42.45 -20.45 40.2 -19.85 37.95 L-19.35 35.55 Q-18.8 32.0 -18.25 28.4 -18.05 26.35 -17.8 24.25 L-17.65 21.2 Q-14.65 10.45 -12.2 5.75 L-10.75 2.85 Q-9.5 0.3 -9.7 -2.65 L-9.85 -5.05 Q-10.05 -8.2 -10.25 -11.4 -8.95 -12.0 -7.9 -13.0 -5.15 -15.6 -2.4 -18.2 L2.85 -23.05 Q3.1 -23.25 3.2 -23.05 4.4 -19.65 7.8 -19.8 L8.6 -18.3 Q10.05 -15.5 11.95 -13.15 L12.05 -12.8 Q12.25 -12.15 12.75 -11.7 12.65 -10.8 13.05 -10.1 L13.55 -8.45 13.6 -7.6 Q13.35 -4.2 14.15 -0.9 L14.15 -0.7 Q14.2 -0.35 14.25 0.0 14.15 2.8 12.75 5.2 L11.65 6.45 11.4 6.95 Q10.1 10.0 9.05 13.15 L8.35 15.4 7.5 18.7 Q6.8 22.3 6.85 26.0 L6.95 28.75 Q7.5 36.05 8.05 43.4 L8.5 46.9 Q9.7 53.15 8.65 59.4 L8.05 60.95 Q6.0 64.3 5.3 68.05 4.95 70.2 5.15 72.35 L5.45 74.7 Q6.05 78.8 7.65 82.55 6.5 82.9 5.5 83.5 5.45 83.6 5.35 83.7 4.8 84.1 4.25 84.5 L3.75 85.0 Q2.75 86.2 2.95 87.8 L3.25 90.6 Q3.5 93.8 3.25 96.9 2.85 102.05 3.7 107.1 3.35 110.55 0.0 111.35 -1.9 111.75 -3.45 110.85 L-5.75 109.45 Q-8.25 107.8 -9.8 105.4 L-11.8 102.0 Q-15.15 96.05 -20.55 91.7 L-20.35 90.6 Q-19.95 88.85 -21.05 87.6 L-22.8 85.4 Q-23.55 84.35 -24.3 83.3 -26.5 79.95 -29.8 78.15 -29.8 78.15 -29.8 78.15 L-29.95 78.05 -32.2 76.0;M-31.4 55.1 Q-28.65 53.0 -25.9 50.85 -26.25 47.7 -26.65 44.5 L-26.05 43.0 -24.15 38.3 -23.55 36.8 -23.1 35.7 -22.6 34.6 -22.4 34.0 -24.25 25.0 -22.95 19.1 -22.65 17.5 -18.4 6.6 Q-20.6 1.0 -22.05 -4.35 -22.3 -5.2 -21.9 -6.15 -20.5 -9.5 -18.1 -11.9 -18.7 -6.15 -17.2 -0.3 L-16.85 0.7 Q-16.7 2.7 -16.7 4.75 -16.75 8.45 -17.2 12.15 -17.6 15.4 -18.35 18.6 -20.05 26.0 -21.15 33.55 L-22.05 41.15 -22.25 44.0 -22.35 44.9 Q-22.9 50.1 -25.7 54.55 L-25.7 54.75 Q-25.75 60.05 -24.5 64.95 L-23.45 68.2 -22.7 69.85 Q-21.6 72.0 -20.85 74.3 L-20.45 75.7 -20.1 77.1 -19.8 78.75 -19.8 78.95 -18.8 84.3 -18.4 86.2 -18.05 88.3 Q-17.35 92.5 -17.05 96.9 -16.95 98.55 -16.2 100.0 L-15.4 100.2 -12.65 100.55 -12.05 100.65 -8.15 100.35 -3.95 100.2 -0.2 100.3 Q-0.5 97.6 1.1 95.35 L6.7 87.35 5.55 76.8 3.95 62.95 3.55 59.5 Q3.2 56.15 3.7 52.85 4.0 51.2 4.45 49.6 L4.55 49.3 Q2.75 44.3 2.8 38.75 2.85 34.0 4.05 29.5 6.0 21.9 7.05 14.05 L7.6 10.95 8.75 4.9 Q10.15 -3.7 10.15 -12.6 L9.9 -22.2 9.75 -26.45 9.65 -33.3 Q9.65 -34.25 8.85 -34.85 L3.2 -35.8 -3.85 -34.05 -11.55 -31.7 -14.2 -30.5 Q-13.95 -29.15 -14.4 -27.4 L-15.5 -23.8 Q-15.75 -23.05 -16.5 -23.05 L-17.55 -23.05 -17.45 -22.7 -15.5 -21.9 -16.0 -20.7 -16.7 -18.6 -17.35 -16.4 Q-21.5 -17.9 -21.0 -22.95 -20.85 -24.2 -20.0 -25.3 L-18.25 -26.95 -17.25 -27.65 -16.85 -29.1 -14.95 -32.35 -14.15 -33.75 -14.05 -33.85 -14.0 -33.9 -13.85 -34.05 -13.75 -34.15 -13.65 -34.25 -13.5 -34.4 -13.35 -34.55 -12.9 -34.95 -12.8 -35.05 -12.4 -35.35 -12.15 -35.55 -11.7 -35.9 -8.7 -38.2 -6.0 -39.95 Q-4.5 -40.6 -2.75 -40.7 L-1.7 -40.75 Q2.35 -40.55 5.5 -38.15 L7.1 -37.9 Q14.65 -36.85 14.5 -30.45 L14.45 -29.6 Q14.3 -28.15 13.5 -26.75 L14.0 -12.55 14.1 -10.15 12.5 -7.9 13.7 -7.5 Q16.0 -6.45 16.85 -4.85 17.9 -2.8 16.45 0.2 15.6 1.9 14.15 2.8 12.9 3.6 11.25 3.85 L11.25 5.05 Q11.2 9.35 11.15 13.7 L11.1 18.1 Q10.55 22.95 10.0 27.85 9.9 28.65 9.8 29.45 L9.6 31.05 9.6 31.25 9.2 32.55 8.7 34.05 4.45 47.55 5.1 48.35 Q6.0 48.45 6.75 48.9 11.1 51.45 9.75 55.95 9.25 57.55 8.1 58.6 L7.0 59.35 7.5 63.1 Q7.2 67.8 6.9 72.55 L6.8 74.15 6.75 74.75 6.9 75.75 7.0 76.6 Q9.65 79.5 10.3 83.3 10.85 86.4 9.85 89.1 8.95 91.6 6.75 93.75 L3.4 96.75 2.55 97.5 4.15 100.2 6.4 103.85 1.65 104.05 0.25 104.05 -0.55 104.05 -1.35 104.05 -19.95 104.75 -16.65 101.65 -22.55 96.25 -23.75 95.25 -21.5 82.1 -21.9 81.0 -24.75 72.25 -27.95 67.7 -30.25 64.5 Q-30.6 61.45 -31.0 58.4 -31.2 56.75 -31.4 55.1 M-25.7 54.55 Q-24.4 52.4 -23.55 50.15 -24.2 52.1 -23.35 49.45 -24.5 52.6 -23.75 50.55 -24.2 52.1 -23.35 49.45 -24.75 53.0 -24.05 51.35 L-23.35 49.45 Q-24.2 52.1 -23.35 49.45 -24.9 53.25 -24.3 51.85 L-23.35 49.45 Q-16.75 8.25 -16.7 4.75 L-16.7 3.25 Q-16.75 2.0 -16.85 0.7 L-17.2 -0.3 Q-17.95 -3.25 -18.2 -6.15 -18.4 -9.05 -18.1 -11.9 -17.9 -14.2 -17.35 -16.4 L-16.0 -20.7 Q-15.75 -21.3 -15.5 -21.9 -15.95 -22.1 -16.45 -22.35 L-17.45 -22.7 Q-17.5 -22.85 -17.55 -23.05 L-16.5 -23.05 Q-16.2 -23.15 -15.9 -23.25 -15.7 -23.5 -15.5 -23.8 L-14.4 -27.4 -14.15 -29.1 Q-14.15 -29.8 -14.2 -30.5 L-11.55 -31.7 Q-4.3 -34.1 3.2 -35.8 6.0 -35.35 8.85 -34.85 L9.45 -34.2 9.65 -33.3 Q9.6 -27.9 9.9 -22.2 L10.05 -18.2 10.15 -12.6 Q10.15 -6.6 9.5 -0.7 L9.3 1.2 Q8.65 6.15 7.6 10.95 L7.05 14.05 Q6.0 21.9 4.05 29.5 L3.85 30.35 Q3.4 32.2 3.1 34.05 3.65 30.95 3.35 32.45 L3.1 34.05 Q3.45 31.75 3.1 34.05 3.65 46.8 4.55 49.3 3.75 51.8 3.5 54.35 3.25 56.9 3.55 59.5 L3.95 62.95 Q4.75 69.85 5.55 76.8 L5.9 80.05 Q6.3 83.7 6.7 87.35 3.9 91.35 1.1 95.35 0.3 96.45 -0.05 97.7 -0.35 98.95 -0.2 100.3 L-12.05 100.65 Q-14.1 100.35 -16.2 100.0 L-16.4 99.7 Q-16.6 99.1 -16.8 98.45 L-17.05 96.9 Q-17.45 90.5 -18.8 84.3 L-19.8 78.95 Q-20.2 76.55 -20.95 74.25 -21.65 72.0 -22.7 69.85 -23.85 67.5 -24.5 64.95 L-25.45 59.85 -25.7 54.55 Q-24.4 52.4 -23.55 50.15 -24.2 52.1 -23.35 49.45 -24.5 52.6 -23.75 50.55 -24.2 52.1 -23.35 49.45 -24.75 53.0 -24.05 51.35 L-23.35 49.45 Q-24.2 52.1 -23.35 49.45 -24.9 53.25 -24.3 51.85 L-23.35 49.45 Q-16.75 8.25 -16.7 4.75 L-16.7 3.25 Q-16.75 2.0 -16.85 0.7 L-17.2 -0.3 Q-17.95 -3.25 -18.2 -6.15 -18.4 -9.05 -18.1 -11.9 -17.9 -14.2 -17.35 -16.4 L-16.0 -20.7 Q-15.75 -21.3 -15.5 -21.9 -15.95 -22.1 -16.45 -22.35 L-17.45 -22.7 Q-17.5 -22.85 -17.55 -23.05 L-16.5 -23.05 Q-16.2 -23.15 -15.9 -23.25 -15.7 -23.5 -15.5 -23.8 L-14.4 -27.4 -14.15 -29.1 Q-14.15 -29.8 -14.2 -30.5 L-11.55 -31.7 Q-4.3 -34.1 3.2 -35.8 6.0 -35.35 8.85 -34.85 L9.45 -34.2 9.65 -33.3 Q9.6 -27.9 9.9 -22.2 L10.05 -18.2 10.15 -12.6 Q10.15 -6.6 9.5 -0.7 L9.3 1.2 Q8.65 6.15 7.6 10.95 L7.05 14.05 Q6.0 21.9 4.05 29.5 L3.85 30.35 Q3.4 32.2 3.1 34.05 3.65 30.95 3.35 32.45 L3.1 34.05 Q3.45 31.75 3.1 34.05 3.65 46.8 4.55 49.3 3.75 51.8 3.5 54.35 3.25 56.9 3.55 59.5 L3.95 62.95 Q4.75 69.85 5.55 76.8 L5.9 80.05 Q6.3 83.7 6.7 87.35 3.9 91.35 1.1 95.35 0.3 96.45 -0.05 97.7 -0.35 98.95 -0.2 100.3 L-12.05 100.65 Q-14.1 100.35 -16.2 100.0 L-16.4 99.7 Q-16.6 99.1 -16.8 98.45 L-17.05 96.9 Q-17.45 90.5 -18.8 84.3 L-19.8 78.95 Q-20.2 76.55 -20.95 74.25 -21.65 72.0 -22.7 69.85 -23.85 67.5 -24.5 64.95 L-25.45 59.85 -25.7 54.55"/>
    </path>
  </g>
</svg>
