<?xml version="1.0" encoding="UTF-8" standalone="no"?>
<svg xmlns:xlink="http://www.w3.org/1999/xlink" height="87.75px" width="48.1px" xmlns="http://www.w3.org/2000/svg">
  <g transform="matrix(1.0, 0.0, 0.0, 1.0, 20.7, 38.5)">
    <path d="M-19.9 -20.9 L-19.9 -20.9 -19.9 -20.55 -19.6 -19.7 Q-18.4 -20.95 -16.15 -21.5 -11.85 -21.55 -10.5 -19.45 -9.75 -18.2 -10.0 -16.25 L-10.1 -15.65 Q-9.05 -16.55 -8.0 -17.4 L-7.15 -18.0 Q-3.25 -18.15 -1.75 -16.3 L-1.15 -16.5 -0.65 -16.6 Q1.7 -16.85 3.25 -16.05 4.75 -15.3 5.5 -13.55 L5.95 -12.0 6.0 -11.75 6.55 -11.6 Q6.9 -12.65 7.4 -13.55 L7.7 -14.05 Q7.5 -12.65 7.7 -11.35 L9.25 -10.9 13.4 -9.45 13.45 -10.9 13.35 -12.75 13.6 -13.2 13.8 -13.6 Q13.55 -11.5 14.25 -9.1 L14.65 -8.9 16.4 -8.1 16.55 -8.65 16.6 -8.8 16.65 -8.7 16.6 -8.05 17.65 -7.5 17.8 -7.4 Q18.4 -9.6 20.1 -11.4 L20.6 -11.55 21.35 -11.95 21.35 -12.0 Q24.45 -12.15 26.15 -10.95 L26.35 -11.05 26.05 -11.15 24.5 -11.95 Q23.65 -12.75 23.15 -14.15 L22.85 -15.2 Q22.15 -18.35 24.6 -20.4 L25.1 -20.55 25.85 -20.95 25.85 -21.0 27.4 -20.95 26.6 -22.45 26.2 -23.15 Q25.4 -24.2 24.65 -25.2 23.3 -26.45 22.0 -27.65 20.8 -28.75 19.6 -29.85 L18.6 -30.85 17.9 -31.45 17.0 -32.25 Q16.5 -32.7 16.0 -33.15 L15.05 -34.05 Q14.8 -36.15 13.4 -37.35 L12.7 -37.8 11.3 -38.35 Q8.5 -39.0 6.7 -36.7 L5.3 -35.8 4.3 -35.2 3.6 -34.7 3.3 -34.5 Q1.35 -33.2 -0.6 -31.9 L-1.6 -31.2 Q-3.1 -30.2 -4.55 -29.25 L-5.9 -29.0 Q-6.9 -30.4 -8.4 -29.5 L-9.5 -28.8 Q-11.2 -27.65 -12.9 -26.55 L-15.45 -24.65 Q-17.05 -23.35 -18.6 -22.05 L-19.9 -20.9" fill="#ffffff" fill-rule="evenodd" stroke="none">
      <animate attributeName="fill" dur="2s" repeatCount="indefinite" values="#ffffff;#ffffff"/>
      <animate attributeName="fill-opacity" dur="2s" repeatCount="indefinite" values="1.0;0.5019608"/>
      <animate attributeName="d" dur="2s" repeatCount="indefinite" values="M-19.9 -20.9 L-19.9 -20.9 -19.9 -20.55 -19.6 -19.7 Q-18.4 -20.95 -16.15 -21.5 -11.85 -21.55 -10.5 -19.45 -9.75 -18.2 -10.0 -16.25 L-10.1 -15.65 Q-9.05 -16.55 -8.0 -17.4 L-7.15 -18.0 Q-3.25 -18.15 -1.75 -16.3 L-1.15 -16.5 -0.65 -16.6 Q1.7 -16.85 3.25 -16.05 4.75 -15.3 5.5 -13.55 L5.95 -12.0 6.0 -11.75 6.55 -11.6 Q6.9 -12.65 7.4 -13.55 L7.7 -14.05 Q7.5 -12.65 7.7 -11.35 L9.25 -10.9 13.4 -9.45 13.45 -10.9 13.35 -12.75 13.6 -13.2 13.8 -13.6 Q13.55 -11.5 14.25 -9.1 L14.65 -8.9 16.4 -8.1 16.55 -8.65 16.6 -8.8 16.65 -8.7 16.6 -8.05 17.65 -7.5 17.8 -7.4 Q18.4 -9.6 20.1 -11.4 L20.6 -11.55 21.35 -11.95 21.35 -12.0 Q24.45 -12.15 26.15 -10.95 L26.35 -11.05 26.05 -11.15 24.5 -11.95 Q23.65 -12.75 23.15 -14.15 L22.85 -15.2 Q22.15 -18.35 24.6 -20.4 L25.1 -20.55 25.85 -20.95 25.85 -21.0 27.4 -20.95 26.6 -22.45 26.2 -23.15 Q25.4 -24.2 24.65 -25.2 23.3 -26.45 22.0 -27.65 20.8 -28.75 19.6 -29.85 L18.6 -30.85 17.9 -31.45 17.0 -32.25 Q16.5 -32.7 16.0 -33.15 L15.05 -34.05 Q14.8 -36.15 13.4 -37.35 L12.7 -37.8 11.3 -38.35 Q8.5 -39.0 6.7 -36.7 L5.3 -35.8 4.3 -35.2 3.6 -34.7 3.3 -34.5 Q1.35 -33.2 -0.6 -31.9 L-1.6 -31.2 Q-3.1 -30.2 -4.55 -29.25 L-5.9 -29.0 Q-6.9 -30.4 -8.4 -29.5 L-9.5 -28.8 Q-11.2 -27.65 -12.9 -26.55 L-15.45 -24.65 Q-17.05 -23.35 -18.6 -22.05 L-19.9 -20.9;M-20.7 33.0 L-20.6 33.6 -20.5 33.9 -20.3 34.7 Q-19.85 36.5 -19.4 38.3 -18.65 41.3 -17.95 44.25 -17.8 46.1 -17.05 47.6 L-16.7 48.2 Q-15.8 49.35 -14.2 49.25 L-13.2 49.05 Q-10.2 48.25 -11.0 44.55 L-11.2 43.75 -11.4 43.15 Q-9.5 43.3 -7.65 43.4 -6.9 41.85 -6.15 40.3 L-4.55 41.1 -4.25 41.2 -3.75 41.4 Q-2.85 41.85 -1.95 42.3 L-1.25 42.65 Q-0.05 43.2 1.1 43.75 L2.5 44.35 1.55 40.0 1.25 38.5 1.65 36.7 1.7 36.1 1.7 35.8 Q1.85 33.2 -0.35 32.25 L-0.8 32.1 0.15 30.5 0.45 29.9 0.55 29.7 0.55 29.6 0.75 29.0 1.1 27.9 1.2 27.7 Q1.75 25.45 1.4 23.15 L1.3 22.55 1.1 21.8 1.1 21.7 Q0.55 19.6 -0.75 17.45 L-0.95 17.15 -1.15 16.75 0.1 15.5 Q1.05 14.4 1.1 13.0 L1.1 12.1 Q1.05 9.2 -0.15 6.45 L-0.45 5.85 -0.8 5.15 -0.8 5.15 -1.55 3.95 -2.65 2.5 -2.55 1.75 Q-2.4 0.45 -1.85 -0.7 -0.95 -2.6 -0.9 -4.35 -0.9 -6.05 -1.75 -7.65 L-3.15 -7.75 -3.9 -7.15 -4.75 -6.0 Q-4.75 -5.25 -5.0 -4.6 L-5.35 -3.3 Q-5.8 -1.55 -5.65 0.35 L-6.45 0.75 -7.75 1.8 Q-9.8 3.9 -8.85 6.65 L-8.15 8.1 -7.8 9.35 -8.15 10.1 -8.15 10.4 Q-10.45 11.55 -11.0 14.1 L-12.2 14.8 Q-13.75 15.9 -14.45 17.35 L-14.85 18.7 Q-15.05 20.05 -14.65 21.6 L-14.25 22.75 Q-15.65 24.25 -16.55 26.1 L-18.1 29.35 Q-19.0 31.3 -19.0 33.35 L-20.7 33.0"/>
    </path>
    <path d="M-19.9 -20.9 L-18.6 -22.05 Q-17.05 -23.35 -15.45 -24.65 L-12.9 -26.55 Q-11.2 -27.65 -9.5 -28.8 L-8.4 -29.5 Q-6.9 -30.4 -5.9 -29.0 L-4.55 -29.25 Q-3.1 -30.2 -1.6 -31.2 L-0.6 -31.9 Q1.35 -33.2 3.3 -34.5 L3.6 -34.7 4.3 -35.2 5.3 -35.8 6.7 -36.7 Q8.5 -39.0 11.3 -38.35 L12.7 -37.8 13.4 -37.35 Q14.8 -36.15 15.05 -34.05 L16.0 -33.15 Q16.5 -32.7 17.0 -32.25 L17.9 -31.45 18.6 -30.85 19.6 -29.85 Q20.8 -28.75 22.0 -27.65 23.3 -26.45 24.65 -25.2 25.4 -24.2 26.2 -23.15 L26.6 -22.45 27.4 -20.95 25.85 -21.0 25.85 -20.95 25.1 -20.55 24.6 -20.4 Q22.15 -18.35 22.85 -15.2 L23.15 -14.15 Q23.65 -12.75 24.5 -11.95 L26.05 -11.15 26.35 -11.05 26.15 -10.95 Q24.45 -12.15 21.35 -12.0 L21.35 -11.95 20.6 -11.55 20.1 -11.4 Q18.4 -9.6 17.8 -7.4 L17.65 -7.5 16.6 -8.05 16.65 -8.7 16.6 -8.8 16.55 -8.65 16.4 -8.1 14.65 -8.9 14.25 -9.1 Q13.55 -11.5 13.8 -13.6 L13.6 -13.2 13.35 -12.75 13.45 -10.9 13.4 -9.45 9.25 -10.9 7.7 -11.35 Q7.5 -12.65 7.7 -14.05 L7.4 -13.55 Q6.9 -12.65 6.55 -11.6 L6.0 -11.75 5.95 -12.0 5.5 -13.55 Q4.75 -15.3 3.25 -16.05 1.7 -16.85 -0.65 -16.6 L-1.15 -16.5 -1.75 -16.3 Q-3.25 -18.15 -7.15 -18.0 L-8.0 -17.4 Q-9.05 -16.55 -10.1 -15.65 L-10.0 -16.25 Q-9.75 -18.2 -10.5 -19.45 -11.85 -21.55 -16.15 -21.5 -18.4 -20.95 -19.6 -19.7 L-19.9 -20.55 -19.9 -20.9 -19.9 -20.9" fill="none" stroke="#000000" stroke-linecap="round" stroke-linejoin="round" stroke-opacity="0.0" stroke-width="1.0">
      <animate attributeName="stroke" dur="2s" repeatCount="indefinite" values="#000000;#000001"/>
      <animate attributeName="stroke-width" dur="2s" repeatCount="indefinite" values="0.0;0.0"/>
      <animate attributeName="fill-opacity" dur="2s" repeatCount="indefinite" values="0.0;0.0"/>
      <animate attributeName="d" dur="2s" repeatCount="indefinite" values="M-19.9 -20.9 L-18.6 -22.05 Q-17.05 -23.35 -15.45 -24.65 L-12.9 -26.55 Q-11.2 -27.65 -9.5 -28.8 L-8.4 -29.5 Q-6.9 -30.4 -5.9 -29.0 L-4.55 -29.25 Q-3.1 -30.2 -1.6 -31.2 L-0.6 -31.9 Q1.35 -33.2 3.3 -34.5 L3.6 -34.7 4.3 -35.2 5.3 -35.8 6.7 -36.7 Q8.5 -39.0 11.3 -38.35 L12.7 -37.8 13.4 -37.35 Q14.8 -36.15 15.05 -34.05 L16.0 -33.15 Q16.5 -32.7 17.0 -32.25 L17.9 -31.45 18.6 -30.85 19.6 -29.85 Q20.8 -28.75 22.0 -27.65 23.3 -26.45 24.65 -25.2 25.4 -24.2 26.2 -23.15 L26.6 -22.45 27.4 -20.95 25.85 -21.0 25.85 -20.95 25.1 -20.55 24.6 -20.4 Q22.15 -18.35 22.85 -15.2 L23.15 -14.15 Q23.65 -12.75 24.5 -11.95 L26.05 -11.15 26.35 -11.05 26.15 -10.95 Q24.45 -12.15 21.35 -12.0 L21.35 -11.95 20.6 -11.55 20.1 -11.4 Q18.4 -9.6 17.8 -7.4 L17.65 -7.5 16.6 -8.05 16.65 -8.7 16.6 -8.8 16.55 -8.65 16.4 -8.1 14.65 -8.9 14.25 -9.1 Q13.55 -11.5 13.8 -13.6 L13.6 -13.2 13.35 -12.75 13.45 -10.9 13.4 -9.45 9.25 -10.9 7.7 -11.35 Q7.5 -12.65 7.7 -14.05 L7.4 -13.55 Q6.9 -12.65 6.55 -11.6 L6.0 -11.75 5.95 -12.0 5.5 -13.55 Q4.75 -15.3 3.25 -16.05 1.7 -16.85 -0.65 -16.6 L-1.15 -16.5 -1.75 -16.3 Q-3.25 -18.15 -7.15 -18.0 L-8.0 -17.4 Q-9.05 -16.55 -10.1 -15.65 L-10.0 -16.25 Q-9.75 -18.2 -10.5 -19.45 -11.85 -21.55 -16.15 -21.5 -18.4 -20.95 -19.6 -19.7 L-19.9 -20.55 -19.9 -20.9 -19.9 -20.9;M-20.7 33.0 L-19.0 33.35 Q-19.0 31.3 -18.1 29.35 L-16.55 26.1 Q-15.65 24.25 -14.25 22.75 L-14.65 21.6 Q-15.05 20.05 -14.85 18.7 L-14.45 17.35 Q-13.75 15.9 -12.2 14.8 L-11.0 14.1 Q-10.45 11.55 -8.15 10.4 L-8.15 10.1 -7.8 9.35 -8.15 8.1 -8.85 6.65 Q-9.8 3.9 -7.75 1.8 L-6.45 0.75 -5.65 0.35 Q-5.8 -1.55 -5.35 -3.3 L-5.0 -4.6 Q-4.75 -5.25 -4.75 -6.0 L-3.9 -7.15 -3.15 -7.75 -1.75 -7.65 Q-0.9 -6.05 -0.9 -4.35 -0.95 -2.6 -1.85 -0.7 -2.4 0.45 -2.55 1.75 L-2.65 2.5 -1.55 3.95 -0.8 5.15 -0.8 5.15 -0.45 5.85 -0.15 6.45 Q1.05 9.2 1.1 12.1 L1.1 13.0 Q1.05 14.4 0.1 15.5 L-1.15 16.75 -0.95 17.15 -0.75 17.45 Q0.55 19.6 1.1 21.7 L1.1 21.8 1.3 22.55 1.4 23.15 Q1.75 25.45 1.2 27.7 L1.1 27.9 0.75 29.0 0.55 29.6 0.55 29.7 0.45 29.9 0.15 30.5 -0.8 32.1 -0.35 32.25 Q1.85 33.2 1.7 35.8 L1.7 36.1 1.65 36.7 1.25 38.5 1.55 40.0 2.5 44.35 1.1 43.75 Q-0.05 43.2 -1.25 42.65 L-1.95 42.3 Q-2.85 41.85 -3.75 41.4 L-4.25 41.2 -4.55 41.1 -6.15 40.3 Q-6.9 41.85 -7.65 43.4 -9.5 43.3 -11.4 43.15 L-11.2 43.75 -11.0 44.55 Q-10.2 48.25 -13.2 49.05 L-14.2 49.25 Q-15.8 49.35 -16.7 48.2 L-17.05 47.6 Q-17.8 46.1 -17.95 44.25 -18.65 41.3 -19.4 38.3 -19.85 36.5 -20.3 34.7 L-20.5 33.9 -20.6 33.6 -20.7 33.0"/>
    </path>
  </g>
</svg>
