<?xml version="1.0" encoding="UTF-8" standalone="no"?>
<svg xmlns:xlink="http://www.w3.org/1999/xlink" height="17.5px" width="10.45px" xmlns="http://www.w3.org/2000/svg">
  <g transform="matrix(1.0, 0.0, 0.0, 1.0, -5.0, -1.2)">
    <path d="M15.45 3.85 L14.3 4.95 14.05 5.15 Q13.75 5.4 13.7 5.75 13.5 5.9 13.55 6.15 L13.65 6.25 14.5 6.35 15.45 6.4 15.45 8.95 15.15 9.2 14.85 9.55 13.55 10.95 13.55 11.15 Q13.45 11.25 13.5 11.45 L13.65 11.6 14.1 11.65 14.75 11.6 15.45 11.4 15.45 18.7 5.0 18.7 5.0 1.2 15.45 1.2 15.45 3.85 M8.35 9.25 L8.05 8.85 Q7.6 8.25 6.9 8.2 L6.85 8.2 6.8 8.25 6.75 8.25 Q6.6 8.4 6.6 8.6 L6.7 9.65 6.8 10.0 Q6.9 10.55 7.55 10.35 L7.6 10.25 7.7 10.1 7.75 10.1 7.9 10.1 8.35 10.1 Q8.75 9.65 8.35 9.25" fill="#000000" fill-rule="evenodd" stroke="none"/>
    <path d="M8.35 9.25 Q8.75 9.65 8.35 10.1 L7.9 10.1 7.75 10.1 7.7 10.1 7.6 10.25 7.55 10.35 Q6.9 10.55 6.8 10.0 L6.7 9.65 6.6 8.6 Q6.6 8.4 6.75 8.25 L6.8 8.25 6.85 8.2 6.9 8.2 Q7.6 8.25 8.05 8.85 L8.35 9.25" fill="#666666" fill-rule="evenodd" stroke="none"/>
  </g>
</svg>
