<?xml version="1.0" encoding="UTF-8" standalone="no"?>
<svg xmlns:xlink="http://www.w3.org/1999/xlink" height="16.6px" width="9.85px" xmlns="http://www.w3.org/2000/svg">
  <g transform="matrix(1.0, 0.0, 0.0, 1.0, -5.3, -1.6)">
    <path d="M14.45 1.6 L15.15 1.6 15.15 3.25 14.45 4.2 14.45 1.75 14.45 1.6 M15.15 7.75 L15.15 8.6 15.05 8.7 14.45 9.3 14.45 9.15 14.45 7.85 14.6 7.85 15.1 7.75 15.15 7.75 M15.15 13.0 L15.15 18.2 5.3 18.2 5.3 17.55 14.55 17.6 14.55 17.35 14.55 16.95 14.5 14.0 14.65 13.0 14.95 13.0 15.05 13.0 15.15 13.0" fill="#333333" fill-rule="evenodd" stroke="none"/>
    <path d="M13.1 6.55 L13.15 6.65 13.25 6.75 13.4 6.85 14.5 6.9 15.0 6.95 14.6 7.85 14.45 7.85 Q13.8 7.85 13.3 7.45 12.85 7.1 13.05 6.6 L13.1 6.55 M13.05 11.9 L13.1 11.9 15.05 12.1 14.9 12.35 14.7 13.0 14.95 13.0 14.65 13.0 13.3 12.75 Q12.6 12.55 12.85 11.85 L12.9 11.75 13.05 11.9 M9.9 11.7 L10.1 11.4 10.15 11.3 Q10.9 11.4 11.25 12.1 12.0 13.45 11.5 14.95 11.05 16.2 9.8 16.6 L9.1 16.75 8.7 16.75 8.65 16.8 7.85 16.5 7.65 16.4 7.15 16.1 6.9 15.9 Q6.7 15.55 6.95 15.3 L7.2 15.15 Q7.55 15.55 8.25 15.75 10.4 16.5 10.9 14.45 11.4 12.3 9.9 11.7" fill="#999999" fill-rule="evenodd" stroke="none"/>
    <path d="M7.2 15.15 Q6.5 14.45 6.8 13.25 7.1 11.9 8.25 11.45 L9.9 11.7 Q11.4 12.3 10.9 14.45 10.4 16.5 8.25 15.75 7.55 15.55 7.2 15.15 M9.6 12.05 L8.55 11.95 Q7.25 12.35 7.2 13.75 L7.3 14.3 Q7.65 15.25 8.65 15.35 L9.4 15.3 Q10.2 15.1 10.45 14.35 10.95 12.95 9.75 12.1 L9.6 12.05" fill="#000000" fill-rule="evenodd" stroke="none"/>
    <path d="M14.45 4.2 L14.25 4.45 13.45 5.45 13.1 6.25 13.05 6.3 13.1 6.55 13.05 6.6 Q12.85 7.1 13.3 7.45 13.8 7.85 14.45 7.85 L14.45 9.15 14.45 9.3 14.25 9.5 13.5 10.45 13.15 10.75 Q12.8 11.15 12.9 11.7 L13.05 11.9 12.9 11.75 12.85 11.85 Q12.6 12.55 13.3 12.75 L14.65 13.0 14.5 14.0 14.55 16.95 14.55 17.35 14.55 17.6 5.3 17.55 5.3 1.6 14.45 1.6 14.45 1.75 14.45 4.2 M14.5 6.9 L15.15 6.9 15.15 7.75 15.1 7.75 14.6 7.85 15.0 6.95 14.5 6.9 M15.05 12.1 L15.15 12.1 15.15 13.0 15.05 13.0 14.95 13.0 14.7 13.0 14.9 12.35 15.05 12.1 M7.2 15.15 L6.95 15.3 Q6.7 15.55 6.9 15.9 L7.15 16.1 7.65 16.4 7.85 16.5 8.65 16.8 8.7 16.75 9.1 16.75 9.8 16.6 Q11.05 16.2 11.5 14.95 12.0 13.45 11.25 12.1 10.9 11.4 10.15 11.3 L10.1 11.4 9.9 11.7 8.25 11.45 Q7.1 11.9 6.8 13.25 6.5 14.45 7.2 15.15 M6.95 9.6 L6.8 8.6 6.9 9.6 7.05 9.75 7.15 9.75 6.95 9.6 M7.95 9.75 L7.75 9.65 7.55 9.75 7.9 9.75 7.95 9.75" fill="#666666" fill-rule="evenodd" stroke="none"/>
    <path d="M9.2 13.9 Q8.5 14.5 7.9 13.9 7.6 13.65 7.7 13.25 7.8 12.55 8.45 12.2 9.15 12.15 9.45 12.8 9.8 13.45 9.2 13.9" fill="#ffff00" fill-rule="evenodd" stroke="none"/>
    <path d="M9.6 12.05 L9.75 12.1 Q10.95 12.95 10.45 14.35 10.2 15.1 9.4 15.3 L8.65 15.35 Q7.65 15.25 7.3 14.3 L7.2 13.75 Q7.25 12.35 8.55 11.95 L9.6 12.05 M9.2 13.9 Q9.8 13.45 9.45 12.8 9.15 12.15 8.45 12.2 7.8 12.55 7.7 13.25 7.6 13.65 7.9 13.9 8.5 14.5 9.2 13.9" fill="#33cc00" fill-rule="evenodd" stroke="none"/>
    <path d="M7.15 6.55 L7.1 6.55 6.55 6.45 6.2 6.1 6.05 5.6 6.05 3.55 Q6.05 3.3 6.2 3.15 L6.65 2.95 10.75 2.95 11.1 3.05 11.3 3.3 11.35 3.55 7.85 3.55 Q7.6 3.55 7.4 3.75 L7.35 3.85 7.25 3.9 Q7.1 4.05 7.1 4.3 L7.1 6.35 7.15 6.55 M7.1 8.9 L6.6 8.9 6.3 8.8 6.1 8.6 6.0 8.3 6.1 8.05 6.3 7.8 6.6 7.7 10.0 7.7 10.0 7.5 10.0 7.3 10.5 7.3 Q10.8 7.3 10.9 7.45 L11.05 7.8 11.05 8.0 11.05 8.25 11.05 8.3 7.8 8.3 7.5 8.4 7.35 8.55 7.15 8.8 7.1 8.9 M10.6 5.95 L10.45 5.95 9.95 5.95 9.4 5.95 8.8 5.95 8.45 5.95 8.45 5.35 8.75 5.35 9.25 5.35 9.4 5.35 10.3 5.55 10.85 5.95 10.6 5.95" fill="#000000" fill-rule="evenodd" stroke="none"/>
    <path d="M7.15 6.55 L7.1 6.35 7.1 4.3 Q7.1 4.05 7.25 3.9 L7.35 3.85 Q7.5 3.7 7.7 3.7 L11.8 3.7 12.15 3.8 12.35 4.05 12.4 4.3 12.35 4.6 12.15 4.85 11.8 4.9 8.3 4.9 8.3 6.1 8.65 6.1 9.25 6.1 9.8 6.1 10.3 6.1 10.45 6.1 10.7 6.1 11.35 6.3 Q11.75 6.5 12.0 6.85 L12.25 7.8 12.25 8.55 11.95 9.35 11.15 9.65 7.65 9.65 7.35 9.55 7.15 9.35 7.05 9.05 7.1 8.9 7.15 8.8 7.35 8.55 7.65 8.45 11.05 8.45 11.05 8.3 11.05 8.25 11.05 8.0 11.05 7.8 10.9 7.45 Q10.8 7.3 10.5 7.3 L10.0 7.3 8.15 7.3 7.6 7.2 7.25 6.85 7.2 6.7 7.15 6.55" fill="#999999" fill-rule="evenodd" stroke="none"/>
    <path d="M11.85 4.0 L11.8 4.3 11.6 4.55 11.25 4.6 7.75 4.6 7.75 5.8 8.1 5.8 8.7 5.8 9.25 5.8 9.75 5.8 9.9 5.8 10.8 6.0 Q11.2 6.2 11.45 6.55 L11.7 7.5 11.7 8.25 11.4 9.05 Q11.1 9.35 10.6 9.35 L7.1 9.35 6.8 9.25 6.6 9.05 6.5 8.75 6.6 8.5 6.8 8.25 7.1 8.15 10.5 8.15 10.5 7.95 10.5 7.65 10.5 7.5 10.35 7.15 9.95 7.0 7.6 7.0 7.05 6.9 6.7 6.55 6.55 6.05 6.55 4.0 6.7 3.6 7.15 3.4 11.25 3.4 11.6 3.5 11.8 3.75 11.85 4.0" fill="#99ff00" fill-rule="evenodd" stroke="none"/>
  </g>
</svg>
