<?xml version="1.0" encoding="UTF-8" standalone="no"?>
<svg xmlns:xlink="http://www.w3.org/1999/xlink" height="52.3px" width="52.3px" xmlns="http://www.w3.org/2000/svg">
  <g transform="matrix(1.0, 0.0, 0.0, 1.0, 25.5, 25.9)">
    <path d="M-1.4 -22.45 L-1.0 -22.5 -0.95 -22.5 0.6 -22.55 1.7 -22.5 1.5 -22.4 -0.5 -22.5 -0.75 -22.45 -1.35 -22.4 -1.4 -22.45 M12.7 -20.0 L11.15 -21.05 10.8 -21.25 9.2 -21.9 9.0 -21.55 9.8 -23.65 Q12.0 -22.85 14.0 -21.55 L13.95 -21.55 13.6 -21.2 12.7 -20.0 M14.15 -18.1 L14.45 -17.85 14.4 -17.85 14.15 -18.1 M15.4 -17.8 L16.85 -19.45 18.6 -17.85 19.6 -16.8 19.0 -16.55 18.0 -15.95 17.9 -16.05 17.7 -16.25 16.25 -17.35 15.4 -17.8 M25.15 -6.85 Q25.75 -4.65 25.95 -2.25 L23.95 -2.45 23.95 -3.0 23.9 -3.75 23.7 -4.8 23.65 -5.1 23.2 -6.05 23.15 -6.1 23.15 -6.2 25.15 -6.85 M26.05 0.7 Q26.0 3.15 25.55 5.5 L25.2 5.45 Q25.1 5.1 24.8 4.9 L23.8 4.35 23.8 4.25 23.95 3.65 24.2 0.7 24.2 0.65 26.05 0.7 M24.7 8.65 Q23.75 11.3 22.25 13.7 L21.0 12.55 20.9 12.4 20.85 12.35 20.95 12.15 21.55 10.9 23.05 8.4 23.1 8.35 22.9 8.3 24.7 8.65 M20.25 16.4 L18.6 18.15 17.35 19.35 17.25 19.2 16.65 17.9 16.45 17.35 18.05 15.7 18.7 15.1 20.25 16.4 M14.5 21.55 L10.25 23.8 10.05 23.2 9.9 22.15 9.9 22.1 10.3 22.1 12.75 20.8 13.55 20.35 14.1 21.1 14.5 21.55 M-0.45 25.6 L-4.55 25.15 -3.9 23.5 -2.15 23.8 -0.45 23.9 -0.45 25.6 M-21.55 12.8 L-22.9 10.15 -22.5 10.0 -21.05 9.25 -20.1 11.55 -20.05 11.75 -20.0 11.8 -19.95 11.75 -20.3 12.1 -21.05 12.3 -21.2 12.4 -21.55 12.8 M-23.8 7.65 Q-24.5 5.25 -24.7 2.7 L-22.4 2.65 -22.7 2.7 -22.75 3.05 -22.6 4.35 -22.55 4.85 -22.25 5.9 -22.0 5.8 -22.45 6.0 Q-23.3 6.4 -23.85 7.05 L-23.9 7.15 -23.8 7.65 M-24.8 -0.9 Q-24.75 -3.05 -24.35 -5.0 -23.5 -4.25 -22.45 -3.95 L-22.55 -3.4 -22.75 -2.05 -22.85 -0.85 -24.55 -1.0 -24.6 -0.95 -24.8 -0.9 M-16.9 -18.3 L-15.05 -19.95 -14.8 -19.3 Q-14.5 -18.65 -14.0 -18.3 L-14.95 -17.7 -15.55 -17.15 -15.35 -16.9 -15.95 -17.55 -16.9 -18.3 M2.3 -21.35 L2.45 -21.7 2.35 -21.35 2.45 -21.35 2.3 -21.35 M-6.7 -21.35 L-5.5 -21.75 -5.15 -21.85 -5.1 -21.9 -5.1 -21.8 -6.1 -21.55 -6.25 -21.5 -6.7 -21.35 M-7.25 -21.15 L-8.75 -20.5 -8.8 -20.55 -8.8 -20.6 -7.25 -21.15 M-10.25 -19.85 L-10.2 -19.85 -10.2 -19.8 -10.9 -19.45 -12.1 -18.7 -12.65 -18.35 -10.4 -19.8 -10.25 -19.85 M-17.45 -13.65 L-17.5 -13.65 -17.45 -13.65 M-12.9 18.5 L-13.25 18.2 -12.95 18.4 -12.9 18.5 M-13.35 18.15 L-13.95 17.65 -13.8 17.55 -13.65 17.85 -13.35 18.15 M-17.45 14.05 L-17.5 14.0 -17.65 13.8 -18.95 11.9 -17.5 13.9 -17.4 14.0 -17.45 14.05 M-6.0 22.0 L-6.7 21.8 -6.9 21.7 -6.0 22.0" fill="#77e3ff" fill-rule="evenodd" stroke="none"/>
    <path d="M2.15 -23.25 L3.1 -23.3 5.65 -23.0 5.45 -22.3 5.4 -22.05 5.45 -22.05 8.8 -21.1 8.85 -21.2 9.0 -21.55 9.2 -21.9 10.8 -21.25 11.15 -21.05 12.7 -20.0 12.45 -19.6 12.4 -19.5 12.35 -19.35 12.4 -19.3 12.5 -19.25 14.05 -18.15 14.15 -18.1 14.4 -17.85 14.45 -17.85 14.95 -17.45 15.1 -17.55 15.4 -17.8 16.25 -17.35 17.7 -16.25 17.9 -16.05 18.0 -15.95 17.25 -15.25 18.65 -13.65 19.0 -13.2 19.1 -13.1 19.25 -12.85 19.55 -12.45 19.6 -12.35 20.2 -12.9 20.4 -12.65 21.15 -11.4 21.9 -10.05 22.25 -9.35 21.4 -9.1 22.5 -6.0 22.6 -6.05 23.15 -6.2 23.15 -6.1 23.2 -6.05 23.65 -5.1 23.7 -4.8 23.9 -3.75 23.95 -3.0 23.95 -2.45 23.6 -2.45 23.35 -2.45 23.2 -2.45 23.15 -2.45 23.25 -1.75 23.25 -1.3 23.3 -0.9 23.3 -0.45 23.3 -0.25 23.3 -0.05 23.3 0.2 23.3 0.65 23.35 0.65 24.2 0.65 24.2 0.7 23.95 3.65 23.8 4.25 23.8 4.35 23.1 4.15 23.0 4.1 22.35 7.0 22.05 7.95 22.2 8.05 22.9 8.3 23.1 8.35 23.05 8.4 21.55 10.9 20.95 12.15 20.85 12.35 20.3 11.65 20.15 11.9 19.95 12.15 19.35 13.05 18.7 13.95 18.65 14.0 18.25 14.55 18.7 15.1 18.05 15.7 16.45 17.35 16.3 17.05 16.25 17.0 16.1 16.8 15.55 17.25 15.5 17.3 13.85 18.7 13.05 19.25 13.2 19.7 13.55 20.35 12.75 20.8 10.3 22.1 9.9 22.1 9.8 21.4 9.7 21.1 9.45 21.2 9.4 21.2 6.55 22.15 Q6.55 22.7 6.7 23.25 L6.55 23.3 5.65 23.55 3.2 23.8 3.25 22.75 3.1 22.8 1.0 22.9 0.6 22.9 -0.3 22.9 -0.45 22.9 -0.45 23.1 -0.45 23.9 -2.15 23.8 -3.9 23.5 -3.85 23.25 -3.85 23.2 -3.75 22.6 -3.75 22.55 -4.15 22.45 -6.0 22.0 -6.9 21.7 -6.7 21.8 -7.1 22.7 -8.15 22.4 Q-8.45 22.2 -8.7 22.1 L-11.5 20.7 -11.75 20.55 -11.6 20.35 -11.15 19.7 -11.35 19.6 -11.7 19.35 -12.35 18.9 -12.85 18.55 -12.9 18.5 -12.95 18.4 -13.25 18.2 -13.35 18.15 -13.65 17.85 -13.8 17.55 -13.95 17.65 -14.0 17.7 -14.35 18.0 -14.65 18.25 -15.0 17.95 Q-15.3 17.6 -15.65 17.35 L-17.55 15.1 -17.75 14.8 -17.8 14.55 -17.85 14.5 -17.6 14.3 -17.55 14.2 -17.45 14.05 -17.4 14.0 -17.5 13.9 -18.95 11.9 -19.25 11.4 -19.95 11.75 -20.0 11.8 -20.05 11.75 -20.1 11.55 -21.05 9.25 -20.55 8.95 -20.45 8.9 -21.3 6.45 -21.5 5.7 -21.55 5.6 -21.7 5.65 -22.0 5.8 -22.25 5.9 -22.55 4.85 -22.6 4.35 -22.75 3.05 -22.7 2.7 -22.4 2.65 -22.2 2.65 -22.0 2.6 -22.15 0.4 -22.15 0.2 -22.1 -0.7 -22.1 -0.75 -22.15 -0.75 -22.35 -0.75 -22.85 -0.8 -22.85 -0.85 -22.75 -2.05 -22.55 -3.4 -22.45 -3.95 -21.95 -3.85 -21.8 -3.85 -21.7 -4.25 -21.15 -6.55 -21.0 -7.1 -21.45 -7.3 -21.6 -7.35 -21.65 -7.4 -21.6 -7.5 Q-21.35 -8.5 -20.7 -9.4 L-20.55 -9.55 -20.35 -9.55 -19.95 -9.65 -18.7 -11.95 -18.5 -12.2 -19.3 -12.75 -18.1 -14.05 Q-17.8 -13.85 -17.4 -13.75 L-17.15 -14.0 -15.1 -16.25 -15.05 -16.3 -15.0 -16.35 -15.05 -16.45 -15.35 -16.9 -15.55 -17.15 -14.95 -17.7 -14.0 -18.3 -13.4 -18.0 -13.25 -17.95 -13.15 -17.95 -12.65 -18.35 -12.1 -18.7 -10.9 -19.45 -10.2 -19.8 -10.2 -19.85 -10.25 -19.85 -10.9 -20.6 -9.0 -21.35 -8.85 -20.8 -8.8 -20.6 -8.8 -20.55 -8.75 -20.5 -7.25 -21.15 -6.7 -21.35 -6.25 -21.5 -6.1 -21.55 -5.1 -21.8 -5.1 -21.9 -5.15 -21.85 -5.35 -22.8 -3.75 -23.0 -1.65 -23.15 -1.55 -22.85 -1.5 -22.5 -1.4 -22.45 -1.35 -22.4 -0.75 -22.45 -0.5 -22.5 1.5 -22.4 1.7 -22.5 2.0 -22.5 2.15 -23.25 M6.35 -24.7 L2.4 -25.25 0.6 -25.3 -1.15 -25.25 -6.1 -24.45 -8.85 -23.55 -9.35 -23.35 -12.25 -21.85 -15.05 -19.95 -16.9 -18.3 -17.2 -18.0 -17.3 -17.9 -17.4 -17.85 -19.4 -15.6 -21.0 -13.4 -21.7 -12.2 -22.35 -10.95 -22.5 -10.7 -23.55 -8.05 -24.35 -5.0 Q-24.75 -3.05 -24.8 -0.9 L-24.85 0.15 -24.75 2.45 -24.7 2.7 Q-24.5 5.25 -23.8 7.65 L-23.65 8.1 -22.9 10.15 -21.55 12.8 -19.5 15.8 -17.4 18.15 -15.15 20.2 -13.5 21.4 -13.0 21.7 -12.6 22.0 Q-10.2 23.45 -7.55 24.35 L-4.55 25.15 -0.45 25.6 0.6 25.6 3.1 25.5 7.15 24.85 10.25 23.8 14.5 21.55 17.35 19.35 18.6 18.15 20.25 16.4 22.25 13.7 Q23.75 11.3 24.7 8.65 L25.55 5.5 Q26.0 3.15 26.05 0.7 L26.05 0.15 25.95 -2.25 Q25.75 -4.65 25.15 -6.85 L24.5 -8.9 24.1 -9.9 Q23.15 -12.05 21.8 -14.05 L19.6 -16.8 18.6 -17.85 16.85 -19.45 14.0 -21.55 Q12.0 -22.85 9.8 -23.65 L6.35 -24.7 M2.3 -21.35 L0.9 -21.4 0.65 -21.4 Q-8.35 -21.4 -14.65 -15.05 L-14.9 -14.75 -17.05 -12.25 Q-21.0 -6.85 -21.0 0.25 -21.0 9.2 -14.65 15.55 -9.75 20.5 -3.25 21.6 L0.65 21.9 Q8.25 21.9 14.0 17.3 L15.95 15.55 Q22.25 9.2 22.3 0.25 22.25 -8.7 15.95 -15.05 L14.8 -16.15 Q10.15 -20.2 4.2 -21.1 L2.5 -21.3 2.45 -21.35 2.35 -21.35 2.45 -21.7 2.3 -21.35 M19.1 -18.25 Q26.8 -10.55 26.8 0.25 26.8 11.1 19.1 18.75 11.45 26.4 0.65 26.4 -10.2 26.4 -17.85 18.75 -25.5 11.1 -25.5 0.25 -25.5 -10.55 -17.85 -18.25 -10.2 -25.9 0.65 -25.9 11.45 -25.9 19.1 -18.25 M-17.45 -13.65 L-17.5 -13.65 -17.45 -13.65" fill="#0099cc" fill-rule="evenodd" stroke="none"/>
    <path d="M2.15 -23.25 L2.35 -24.85 2.4 -25.25 6.35 -24.7 5.65 -23.0 3.1 -23.3 2.15 -23.25 M-1.15 -25.25 L-1.7 -25.2 Q-1.85 -24.0 -1.55 -22.85 L-1.65 -23.15 -3.75 -23.0 -5.35 -22.8 -5.75 -23.8 -6.1 -24.45 -1.15 -25.25 M21.8 -14.05 Q23.15 -12.05 24.1 -9.9 L24.5 -8.9 24.05 -9.9 23.1 -9.6 22.25 -9.35 21.9 -10.05 21.15 -11.4 20.4 -12.65 20.2 -12.9 21.5 -13.85 21.8 -14.05 M7.15 24.85 L3.1 25.5 3.2 23.8 5.65 23.55 6.55 23.3 6.7 23.25 6.9 24.15 7.15 24.85 M-7.55 24.35 Q-10.2 23.45 -12.6 22.0 L-12.15 21.25 -11.75 20.55 -11.5 20.7 -8.7 22.1 Q-8.45 22.2 -8.15 22.4 L-7.1 22.7 -7.3 23.1 Q-7.6 23.7 -7.55 24.35 M-15.15 20.2 L-17.4 18.15 -19.5 15.8 -17.85 14.5 -17.8 14.55 -17.75 14.8 -17.55 15.1 -15.65 17.35 Q-15.3 17.6 -15.0 17.95 L-14.65 18.25 Q-15.5 18.85 -15.65 19.75 L-15.15 20.2 M-23.55 -8.05 L-22.5 -10.7 -22.1 -10.5 -21.65 -10.0 Q-21.2 -9.6 -20.55 -9.55 L-20.7 -9.4 Q-21.35 -8.5 -21.6 -7.5 L-21.65 -7.4 -23.55 -8.05 M-21.0 -13.4 L-19.4 -15.6 -19.25 -15.3 Q-18.8 -14.45 -18.1 -14.05 L-19.3 -12.75 -21.0 -13.4 M-17.2 -18.0 L-16.9 -18.3 -17.2 -18.0 M-12.25 -21.85 L-9.35 -23.35 -8.85 -20.8 -9.0 -21.35 -10.9 -20.6 -11.35 -20.95 -11.85 -21.4 -12.25 -21.85 M23.25 -1.75 L23.15 -2.45 23.2 -2.45 23.25 -1.75" fill="#93eaff" fill-rule="evenodd" stroke="none"/>
    <path d="M2.4 -25.25 L2.35 -24.85 2.15 -23.25 2.0 -22.5 1.7 -22.5 0.6 -22.55 -0.95 -22.5 -1.0 -22.5 -1.4 -22.45 -1.5 -22.5 -1.55 -22.85 Q-1.85 -24.0 -1.7 -25.2 L-1.15 -25.25 0.6 -25.3 2.4 -25.25 M5.65 -23.0 L6.35 -24.7 9.8 -23.65 9.0 -21.55 8.85 -21.2 8.8 -21.1 5.45 -22.05 5.4 -22.05 5.45 -22.3 5.65 -23.0 M14.15 -18.1 L14.05 -18.15 12.5 -19.25 12.4 -19.3 12.35 -19.35 12.4 -19.5 12.45 -19.6 12.7 -20.0 13.6 -21.2 13.95 -21.55 14.0 -21.55 16.85 -19.45 15.4 -17.8 15.1 -17.55 14.95 -17.45 14.45 -17.85 14.15 -18.1 M18.0 -15.95 L19.0 -16.55 19.6 -16.8 21.8 -14.05 21.5 -13.85 20.2 -12.9 19.6 -12.35 19.55 -12.45 19.25 -12.85 19.1 -13.1 19.0 -13.2 18.65 -13.65 17.25 -15.25 18.0 -15.95 M24.5 -8.9 L25.15 -6.85 23.15 -6.2 22.6 -6.05 22.5 -6.0 21.4 -9.1 22.25 -9.35 23.1 -9.6 24.05 -9.9 24.5 -8.9 M25.95 -2.25 L26.05 0.15 26.05 0.7 24.2 0.65 23.35 0.65 23.3 0.65 23.3 0.2 23.3 -0.05 23.3 -0.25 23.3 -0.45 23.3 -0.9 23.25 -1.3 23.25 -1.75 23.2 -2.45 23.35 -2.45 23.6 -2.45 23.95 -2.45 25.95 -2.25 M25.55 5.5 L24.7 8.65 22.9 8.3 22.2 8.05 22.05 7.95 22.35 7.0 23.0 4.1 23.1 4.15 23.8 4.35 24.8 4.9 Q25.1 5.1 25.2 5.45 L25.55 5.5 M22.25 13.7 L20.25 16.4 18.7 15.1 18.25 14.55 18.65 14.0 18.7 13.95 19.35 13.05 19.95 12.15 20.15 11.9 20.3 11.65 20.85 12.35 20.9 12.4 21.0 12.55 22.25 13.7 M17.35 19.35 L14.5 21.55 14.1 21.1 13.55 20.35 13.2 19.7 13.05 19.25 13.85 18.7 15.5 17.3 15.55 17.25 16.1 16.8 16.25 17.0 16.3 17.05 16.45 17.35 16.65 17.9 17.25 19.2 17.35 19.35 M10.25 23.8 L7.15 24.85 6.9 24.15 6.7 23.25 Q6.55 22.7 6.55 22.15 L9.4 21.2 9.45 21.2 9.7 21.1 9.8 21.4 9.9 22.1 9.9 22.15 10.05 23.2 10.25 23.8 M3.1 25.5 L0.6 25.6 -0.45 25.6 -0.45 23.9 -0.45 23.1 -0.45 22.9 -0.3 22.9 0.6 22.9 1.0 22.9 3.1 22.8 3.25 22.75 3.2 23.8 3.1 25.5 M-4.55 25.15 L-7.55 24.35 Q-7.6 23.7 -7.3 23.1 L-7.1 22.7 -6.7 21.8 -6.0 22.0 -4.15 22.45 -3.75 22.55 -3.75 22.6 -3.85 23.2 -3.85 23.25 -3.9 23.5 -4.55 25.15 M-12.6 22.0 L-13.0 21.7 -13.5 21.4 -15.15 20.2 -15.65 19.75 Q-15.5 18.85 -14.65 18.25 L-14.35 18.0 -14.0 17.7 -13.95 17.65 -13.35 18.15 -13.25 18.2 -12.9 18.5 -12.85 18.55 -12.35 18.9 -11.7 19.35 -11.35 19.6 -11.15 19.7 -11.6 20.35 -11.75 20.55 -12.15 21.25 -12.6 22.0 M-19.5 15.8 L-21.55 12.8 -21.2 12.4 -21.05 12.3 -20.3 12.1 -19.95 11.75 -19.25 11.4 -18.95 11.9 -17.65 13.8 -17.5 14.0 -17.45 14.05 -17.55 14.2 -17.6 14.3 -17.85 14.5 -19.5 15.8 M-22.9 10.15 L-23.65 8.1 -23.8 7.65 -23.9 7.15 -23.85 7.05 Q-23.3 6.4 -22.45 6.0 L-22.0 5.8 -21.7 5.65 -21.55 5.6 -21.5 5.7 -21.3 6.45 -20.45 8.9 -20.55 8.95 -21.05 9.25 -22.5 10.0 -22.9 10.15 M-24.7 2.7 L-24.75 2.45 -24.85 0.15 -24.8 -0.9 -24.6 -0.95 -24.55 -1.0 -22.85 -0.85 -22.85 -0.8 -22.35 -0.75 -22.15 -0.75 -22.1 -0.75 -22.1 -0.7 -22.15 0.2 -22.15 0.4 -22.0 2.6 -22.2 2.65 -22.4 2.65 -24.7 2.7 M-24.35 -5.0 L-23.55 -8.05 -21.65 -7.4 -21.6 -7.35 -21.45 -7.3 -21.0 -7.1 -21.15 -6.55 -21.7 -4.25 -21.8 -3.85 -21.95 -3.85 -22.45 -3.95 Q-23.5 -4.25 -24.35 -5.0 M-22.5 -10.7 L-22.35 -10.95 -21.7 -12.2 -21.0 -13.4 -19.3 -12.75 -18.5 -12.2 -18.7 -11.95 -19.95 -9.65 -20.35 -9.55 -20.55 -9.55 Q-21.2 -9.6 -21.65 -10.0 L-22.1 -10.5 -22.5 -10.7 M-19.4 -15.6 L-17.4 -17.85 -17.3 -17.9 -17.2 -18.0 -16.9 -18.3 -15.95 -17.55 -15.35 -16.9 -15.05 -16.45 -15.0 -16.35 -15.05 -16.3 -15.1 -16.25 -17.15 -14.0 -17.4 -13.75 Q-17.8 -13.85 -18.1 -14.05 -18.8 -14.45 -19.25 -15.3 L-19.4 -15.6 M-15.05 -19.95 L-12.25 -21.85 -11.85 -21.4 -11.35 -20.95 -10.9 -20.6 -10.25 -19.85 -10.4 -19.8 -12.65 -18.35 -13.15 -17.95 -13.25 -17.95 -13.4 -18.0 -14.0 -18.3 Q-14.5 -18.65 -14.8 -19.3 L-15.05 -19.95 M-9.35 -23.35 L-8.85 -23.55 -6.1 -24.45 -5.75 -23.8 -5.35 -22.8 -5.15 -21.85 -5.5 -21.75 -6.7 -21.35 -7.25 -21.15 -8.8 -20.6 -8.85 -20.8 -9.35 -23.35" fill="#b0efff" fill-rule="evenodd" stroke="none"/>
  </g>
</svg>
