<?xml version="1.0" encoding="UTF-8" standalone="no"?>
<svg xmlns:xlink="http://www.w3.org/1999/xlink" height="7.35px" width="9.8px" xmlns="http://www.w3.org/2000/svg">
  <g transform="matrix(1.0, 0.0, 0.0, 1.0, 4.9, 6.25)">
    <path d="M1.5 -4.95 Q1.8 -4.45 2.6 -4.55 3.25 -4.7 3.4 -5.25 L3.4 -5.4 2.95 -5.75 Q3.5 -5.55 3.75 -4.8 L3.8 -4.7 3.85 -4.5 3.75 -4.0 3.7 -3.85 3.3 -3.55 3.2 -3.5 3.0 -3.45 2.55 -3.45 2.1 -3.55 Q1.65 -3.8 1.55 -4.25 L1.45 -4.7 1.5 -4.95 M-3.75 -3.55 L-3.9 -3.75 -3.9 -3.8 -4.0 -4.3 -2.85 -4.4 Q-2.35 -4.75 -2.3 -5.35 -2.3 -5.7 -2.45 -5.85 L-2.6 -5.85 -2.15 -5.8 -1.8 -5.55 -1.7 -5.45 -1.55 -5.1 -1.55 -4.9 -1.55 -4.35 -1.6 -4.1 -1.8 -3.8 -2.25 -3.4 -2.45 -3.3 -3.1 -3.25 -3.35 -3.3 -3.45 -3.35 -3.7 -3.5 -3.75 -3.55" fill="#ffcc00" fill-rule="evenodd" stroke="none"/>
    <path d="M-4.3 -1.0 L-4.3 -1.05 -4.35 -1.2 -4.25 -2.3 -4.0 -2.9 -4.0 -3.05 -3.95 -3.1 -3.95 -3.15 -3.95 -3.2 -3.9 -3.1 -3.65 -2.85 -3.6 -2.8 Q-3.35 -2.6 -3.0 -2.55 L-2.75 -2.5 Q-1.95 -2.4 -1.5 -2.85 L-1.65 -2.3 -1.6 -1.75 Q-1.3 -1.0 -0.55 -1.35 L-0.4 -1.55 -0.05 -2.3 0.15 -2.6 Q0.5 -3.5 -0.4 -3.7 -0.9 -3.6 -1.2 -3.3 L-1.1 -3.65 -0.95 -4.3 -0.9 -4.7 -0.95 -5.15 1.25 -5.15 1.1 -4.4 1.1 -4.2 1.15 -3.95 Q1.35 -2.9 2.45 -2.65 L3.5 -2.75 3.55 -2.8 3.65 -2.45 3.7 -1.4 3.5 -1.3 2.6 -1.1 1.55 -0.75 0.2 -0.6 -3.75 -1.0 -3.9 -1.0 -4.3 -1.0" fill="#e85700" fill-rule="evenodd" stroke="none"/>
    <path d="M1.55 -5.15 L1.55 -5.1 1.5 -4.95 1.45 -4.7 1.55 -4.25 Q1.65 -3.8 2.1 -3.55 L2.55 -3.45 3.0 -3.45 3.2 -3.5 3.3 -3.55 3.7 -3.85 3.75 -4.0 3.85 -3.8 3.9 -3.65 3.95 -3.55 4.0 -3.5 4.25 -2.8 4.25 -2.65 4.4 -2.05 4.45 -1.85 4.45 -1.7 4.45 -1.45 4.5 -0.75 4.5 -0.7 4.45 -0.4 4.35 -0.2 4.2 -0.05 3.75 0.2 2.95 0.55 2.25 0.8 1.2 0.95 0.85 1.0 0.3 0.95 -0.45 0.95 -1.85 0.9 -2.15 0.8 -3.85 -0.3 -4.05 -0.55 -4.3 -1.0 -3.9 -1.0 -3.75 -1.0 0.2 -0.6 1.55 -0.75 2.6 -1.1 3.5 -1.3 3.7 -1.4 3.65 -2.45 3.55 -2.8 3.5 -2.75 2.45 -2.65 Q1.35 -2.9 1.15 -3.95 L1.1 -4.2 1.1 -4.4 1.25 -5.15 1.4 -5.15 1.55 -5.15 M-3.95 -3.2 L-3.9 -3.25 -3.9 -3.3 -3.75 -3.55 -3.7 -3.5 -3.45 -3.35 -3.35 -3.3 -3.1 -3.25 -2.45 -3.3 -2.25 -3.4 -1.8 -3.8 -1.6 -4.1 -1.55 -4.35 -1.55 -4.9 -1.55 -5.1 -1.3 -5.1 -1.25 -5.1 -0.95 -5.15 -0.9 -4.7 -0.95 -4.3 -1.1 -3.65 -1.2 -3.3 -1.5 -2.85 Q-1.95 -2.4 -2.75 -2.5 L-3.0 -2.55 Q-3.35 -2.6 -3.6 -2.8 L-3.65 -2.85 -3.9 -3.1 -3.95 -3.2" fill="#b6440e" fill-rule="evenodd" stroke="none"/>
    <path d="M2.8 -6.25 Q3.8 -6.2 4.2 -5.25 L4.3 -4.3 4.35 -4.05 4.75 -2.6 4.9 -1.55 4.9 -1.45 Q4.9 -0.6 4.35 0.2 L3.45 0.85 2.4 1.05 1.55 1.05 1.4 1.05 -0.1 1.05 -3.25 0.85 -3.85 0.6 -4.55 -0.15 -4.8 -0.8 Q-5.15 -2.15 -4.35 -3.3 L-4.2 -3.45 -4.35 -3.7 Q-4.75 -4.7 -4.2 -5.6 L-3.75 -6.0 -2.8 -6.25 Q-1.85 -6.3 -1.45 -5.6 L0.5 -5.65 1.55 -5.6 1.6 -5.65 1.6 -5.7 Q1.95 -6.2 2.5 -6.25 L2.8 -6.25 M2.95 -5.75 L2.9 -5.75 2.4 -5.85 2.2 -5.85 1.8 -5.55 1.55 -5.15 1.4 -5.15 1.25 -5.15 -0.95 -5.15 -1.25 -5.1 -1.3 -5.1 -1.55 -5.1 -1.7 -5.45 -1.8 -5.55 -2.15 -5.8 -2.6 -5.85 -2.85 -5.8 -2.9 -5.8 -3.65 -5.45 -3.85 -4.75 -4.0 -4.4 -4.0 -4.3 -3.9 -3.8 -3.9 -3.75 -3.75 -3.55 -3.9 -3.3 -3.9 -3.25 -3.95 -3.2 -3.95 -3.15 -3.95 -3.1 -4.0 -3.05 -4.0 -2.9 -4.25 -2.3 -4.35 -1.2 -4.3 -1.05 -4.3 -1.0 -4.05 -0.55 -3.85 -0.3 -2.15 0.8 -1.85 0.9 -0.45 0.95 0.3 0.95 0.85 1.0 1.2 0.95 2.25 0.8 2.95 0.55 3.75 0.2 4.2 -0.05 4.35 -0.2 4.45 -0.4 4.5 -0.7 4.5 -0.75 4.45 -1.45 4.45 -1.7 4.45 -1.85 4.4 -2.05 4.25 -2.65 4.25 -2.8 4.0 -3.5 3.95 -3.55 3.9 -3.65 3.85 -3.8 3.75 -4.0 3.85 -4.5 3.8 -4.7 3.75 -4.8 Q3.5 -5.55 2.95 -5.75" fill="#000000" fill-rule="evenodd" stroke="none"/>
    <path d="M2.95 -5.75 L3.4 -5.4 3.4 -5.25 Q3.25 -4.7 2.6 -4.55 1.8 -4.45 1.5 -4.95 L1.55 -5.1 1.55 -5.15 1.8 -5.55 2.2 -5.85 2.4 -5.85 2.9 -5.75 2.95 -5.75 M-4.0 -4.3 L-4.0 -4.4 -3.85 -4.75 -3.65 -5.45 -2.9 -5.8 -2.85 -5.8 -2.6 -5.85 -2.45 -5.85 Q-2.3 -5.7 -2.3 -5.35 -2.35 -4.75 -2.85 -4.4 L-4.0 -4.3" fill="#ffffff" fill-rule="evenodd" stroke="none"/>
    <path d="M-1.2 -3.3 Q-0.9 -3.6 -0.4 -3.7 0.5 -3.5 0.15 -2.6 L-0.05 -2.3 -0.4 -1.55 -0.55 -1.35 Q-1.3 -1.0 -1.6 -1.75 L-1.65 -2.3 -1.5 -2.85 -1.2 -3.3" fill="#ff8d48" fill-rule="evenodd" stroke="none"/>
  </g>
</svg>
