<?xml version="1.0" encoding="UTF-8" standalone="no"?>
<svg xmlns:xlink="http://www.w3.org/1999/xlink" height="11.15px" width="19.2px" xmlns="http://www.w3.org/2000/svg">
  <g transform="matrix(1.0, 0.0, 0.0, 1.0, 9.15, 6.5)">
    <path d="M2.8 -6.45 L3.0 -6.5 3.85 -6.05 4.45 -6.25 6.15 -6.35 6.95 -6.05 7.0 -5.95 7.1 -5.85 8.2 -6.4 Q8.8 -6.2 8.65 -5.45 L8.55 -4.85 8.5 -4.6 8.85 -4.2 9.4 -1.6 9.4 -0.15 9.3 0.5 9.95 1.6 10.05 1.95 Q10.15 2.35 9.85 2.65 L8.85 2.5 8.6 2.45 8.25 2.25 7.8 2.45 5.6 2.9 4.45 2.8 4.3 2.75 3.9 3.1 3.2 3.5 Q2.75 3.65 2.55 3.3 2.35 3.2 2.4 2.85 L2.45 2.45 2.55 1.7 1.95 1.1 Q1.45 0.05 1.4 -1.2 L1.4 -2.15 1.45 -2.5 1.95 -3.9 2.55 -4.9 2.6 -5.1 2.55 -5.45 2.55 -5.5 Q2.45 -6.05 2.75 -6.45 L2.8 -6.45 M5.8 -5.8 L5.4 -5.85 5.25 -5.8 4.95 -5.85 4.8 -5.8 4.35 -5.6 4.05 -5.45 4.0 -5.45 3.95 -5.45 3.5 -5.85 Q2.85 -6.1 2.85 -5.5 L2.9 -5.35 3.15 -4.85 2.3 -3.95 2.1 -3.5 2.0 -3.3 Q1.65 -2.55 1.75 -1.55 L2.0 0.25 2.8 1.2 2.95 1.35 3.0 1.4 2.7 1.85 2.9 3.0 3.65 2.4 3.85 2.05 4.5 2.3 4.6 2.35 4.7 2.35 5.65 2.5 7.2 2.1 8.15 1.75 8.3 1.7 8.6 1.9 Q9.05 2.3 9.7 2.15 L9.7 2.05 9.7 1.95 9.6 1.65 9.45 1.35 9.3 1.05 9.2 0.95 8.8 0.75 8.9 0.25 8.95 -0.45 8.9 -1.85 8.6 -3.15 8.3 -3.9 8.15 -4.25 8.0 -4.45 8.2 -4.95 8.25 -5.3 8.15 -5.8 8.05 -5.95 7.9 -5.85 7.65 -5.7 7.55 -5.55 7.2 -5.25 6.95 -5.4 6.75 -5.55 6.7 -5.6 5.85 -5.8 5.8 -5.8 M4.3 -4.85 L4.4 -4.85 4.55 -4.7 4.65 -4.45 Q4.75 -4.0 4.2 -3.7 3.8 -3.5 3.55 -3.85 L3.4 -4.15 3.4 -4.25 3.4 -4.3 3.4 -4.35 3.5 -4.3 3.55 -4.25 Q4.0 -4.1 4.25 -4.65 L4.3 -4.75 4.3 -4.85 M3.5 -1.3 Q3.95 -1.15 4.0 -0.65 L3.95 -0.4 Q3.6 0.1 3.0 -0.1 2.65 -0.25 2.65 -0.65 L2.65 -0.8 Q2.85 -0.5 3.35 -0.65 L3.5 -0.95 3.5 -1.3 M7.9 -4.25 L7.95 -4.1 7.95 -4.05 7.75 -3.5 7.4 -3.35 Q6.95 -3.3 6.6 -3.75 L6.6 -4.05 6.65 -4.1 6.75 -4.1 6.7 -4.2 6.7 -4.25 6.75 -4.25 6.75 -4.3 6.85 -4.35 7.05 -4.2 7.1 -4.15 7.9 -4.25 M8.3 -2.35 Q8.6 -2.2 8.5 -1.65 L8.3 -1.2 Q8.15 -1.05 7.85 -1.05 7.15 -1.05 7.15 -1.6 L7.7 -1.6 7.75 -1.65 7.85 -1.9 7.75 -2.4 7.85 -2.45 8.3 -2.35 M6.6 0.6 L6.4 1.05 6.15 1.3 Q5.4 1.7 4.9 1.1 L4.85 0.7 4.85 0.6 4.9 0.5 Q5.05 0.85 5.6 0.7 L5.75 0.4 5.7 -0.1 Q6.2 -0.2 6.5 0.25 L6.6 0.6 M5.2 -2.25 L5.55 -2.3 5.55 -2.35 5.7 -2.8 Q6.3 -2.75 6.05 -2.15 L5.85 -1.95 Q5.3 -1.8 5.2 -2.25 M-3.8 -6.4 Q-2.75 -6.55 -1.85 -6.0 L-1.75 -5.85 -1.6 -5.55 -1.6 -5.5 -1.55 -5.45 -1.5 -4.0 -1.55 -3.9 -1.65 -3.9 -1.15 -2.4 -1.0 -1.25 -1.05 -0.2 -1.1 0.45 -2.45 1.75 -3.15 2.15 -3.25 2.25 -3.85 2.55 -4.3 2.85 -5.1 2.95 -6.1 3.0 -7.1 2.5 -7.55 2.35 -8.3 1.6 -8.7 0.9 -8.75 0.85 -8.75 0.75 -8.9 0.4 -8.95 0.3 -8.95 0.25 -8.95 0.2 -8.95 0.15 -8.95 0.05 -9.05 -0.3 -9.15 -1.4 -9.1 -1.75 -9.05 -2.0 -9.05 -2.1 -9.05 -2.35 -9.05 -2.4 -9.0 -2.7 -8.95 -3.1 -8.85 -3.4 -8.65 -3.9 -8.6 -4.2 -8.2 -4.8 -7.1 -5.75 -6.15 -6.2 -5.15 -6.05 -5.05 -6.15 -4.45 -6.4 -4.25 -6.35 -4.1 -6.4 -3.8 -6.4 M-5.45 -5.7 L-5.6 -5.7 -5.7 -5.75 -6.8 -5.3 -7.65 -4.6 -7.95 -4.1 -8.0 -4.0 -8.1 -3.7 -8.1 -3.65 -8.2 -3.45 -8.2 -3.4 -8.3 -3.25 -8.4 -2.5 -8.5 -2.1 -8.55 -0.85 -8.55 -0.7 -8.45 0.3 -8.35 0.65 -8.1 1.2 -7.35 2.1 -7.3 2.1 -7.05 2.3 -6.5 2.5 -4.45 2.3 -5.0 2.0 Q-5.95 1.45 -5.9 0.65 L-5.65 0.5 -5.25 0.3 -4.65 0.15 -3.65 -0.45 Q-3.05 -0.95 -3.1 -1.7 L-3.35 -3.35 -3.95 -4.75 -4.1 -4.95 Q-4.65 -5.6 -5.45 -5.7 M-5.1 1.4 L-4.8 1.55 -3.4 2.0 -2.0 1.05 Q-1.45 0.45 -1.4 -0.35 L-1.4 -1.6 -1.45 -2.5 -1.55 -2.85 -1.9 -4.1 Q-1.9 -4.9 -2.05 -5.6 L-2.2 -5.7 -2.4 -5.8 -2.45 -5.8 -3.1 -5.95 -3.9 -6.0 -4.15 -6.0 -4.15 -5.95 -4.3 -5.85 -4.5 -5.8 -4.0 -5.4 -3.85 -5.25 -3.45 -4.8 -3.4 -4.75 -3.2 -4.4 -3.0 -4.0 -2.85 -3.8 -2.7 -3.3 -2.65 -1.95 Q-2.55 -1.15 -3.0 -0.6 L-3.95 0.3 -5.4 0.55 -5.5 0.7 Q-5.9 0.75 -5.6 1.05 L-5.1 1.4" fill="#000000" fill-rule="evenodd" stroke="none"/>
    <path d="M7.2 -5.25 L7.55 -5.55 7.65 -5.7 7.9 -5.85 8.05 -5.95 8.15 -5.8 8.25 -5.3 8.2 -4.95 8.0 -4.45 7.95 -4.35 7.9 -4.25 7.1 -4.15 7.05 -4.2 6.85 -4.35 6.75 -4.3 6.75 -4.25 6.7 -4.25 7.2 -5.25 M8.8 0.75 L9.2 0.95 9.3 1.05 9.45 1.35 9.6 1.65 9.7 1.95 9.7 2.05 9.7 2.15 Q9.05 2.3 8.6 1.9 L8.3 1.7 8.25 1.6 8.05 1.3 Q7.95 1.05 8.1 0.85 L8.4 0.7 8.8 0.75 M3.85 2.05 L3.65 2.4 2.9 3.0 2.7 1.85 3.0 1.4 3.1 1.3 Q3.25 1.1 3.55 1.15 3.9 1.25 4.0 1.45 L4.0 1.7 3.95 1.85 3.85 2.05 M3.15 -4.85 L2.9 -5.35 2.85 -5.5 Q2.85 -6.1 3.5 -5.85 L3.95 -5.45 4.3 -4.85 4.3 -4.75 4.25 -4.65 Q4.0 -4.1 3.55 -4.25 L3.5 -4.3 3.4 -4.35 3.4 -4.4 3.15 -4.85 M2.65 -0.8 L2.6 -1.0 Q2.5 -1.35 2.75 -1.55 L2.8 -1.55 2.9 -1.6 Q3.4 -1.65 3.5 -1.3 L3.5 -0.95 3.35 -0.65 Q2.85 -0.5 2.65 -0.8 M6.7 -4.2 L6.75 -4.1 6.65 -4.1 6.7 -4.2 M7.15 -1.6 Q6.95 -1.7 6.95 -2.1 L7.1 -2.5 7.15 -2.5 7.25 -2.55 7.75 -2.4 7.85 -1.9 7.75 -1.65 7.7 -1.6 7.15 -1.6 M5.7 -2.8 L5.55 -2.35 5.55 -2.3 5.2 -2.25 Q4.95 -2.3 4.95 -2.75 L5.05 -3.0 5.3 -3.05 5.7 -2.8 M4.9 0.5 L4.85 0.35 Q4.75 0.0 5.0 -0.2 L5.05 -0.2 5.15 -0.25 5.7 -0.1 5.75 0.4 5.6 0.7 Q5.05 0.85 4.9 0.5 M-6.25 -0.65 L-6.15 -0.75 Q-5.65 -0.7 -5.95 -0.35 L-6.2 -0.3 Q-6.4 -0.4 -6.25 -0.65" fill="#dddddd" fill-rule="evenodd" stroke="none"/>
    <path d="M3.95 -5.45 L4.0 -5.45 4.05 -5.45 4.35 -5.6 4.8 -5.8 4.95 -5.85 5.25 -5.8 5.4 -5.85 5.8 -5.8 5.85 -5.8 6.7 -5.6 6.75 -5.55 6.95 -5.4 7.2 -5.25 6.7 -4.25 6.7 -4.2 6.65 -4.1 6.6 -4.05 6.6 -3.75 Q6.95 -3.3 7.4 -3.35 L7.75 -3.5 7.95 -4.05 7.95 -4.1 7.9 -4.25 7.95 -4.35 7.95 -4.25 8.0 -4.1 8.0 -3.6 8.1 -3.25 8.15 -2.95 8.25 -2.6 8.3 -2.35 7.85 -2.45 7.75 -2.4 7.25 -2.55 7.15 -2.5 7.1 -2.5 6.95 -2.1 Q6.95 -1.7 7.15 -1.6 7.15 -1.05 7.85 -1.05 8.15 -1.05 8.3 -1.2 L8.25 -0.85 8.0 -0.15 8.0 -0.1 7.95 -0.1 7.9 -0.05 Q7.45 0.45 6.8 0.55 L6.6 0.6 6.5 0.25 Q6.2 -0.2 5.7 -0.1 L5.15 -0.25 5.05 -0.2 5.0 -0.2 Q4.75 0.0 4.85 0.35 L4.9 0.5 4.85 0.6 4.85 0.7 4.2 0.7 3.85 0.65 3.45 0.6 2.7 0.45 2.3 0.25 2.0 0.25 1.75 -1.55 Q1.65 -2.55 2.0 -3.3 L2.1 -3.5 2.3 -3.95 3.15 -4.85 3.4 -4.4 3.4 -4.35 3.4 -4.3 3.4 -4.25 3.4 -4.15 3.55 -3.85 Q3.8 -3.5 4.2 -3.7 4.75 -4.0 4.65 -4.45 L4.55 -4.7 4.4 -4.85 4.3 -4.85 3.95 -5.45 M3.5 -1.3 Q3.4 -1.65 2.9 -1.6 L2.8 -1.55 2.75 -1.55 Q2.5 -1.35 2.6 -1.0 L2.65 -0.8 2.65 -0.65 Q2.65 -0.25 3.0 -0.1 3.6 0.1 3.95 -0.4 L4.0 -0.65 Q3.95 -1.15 3.5 -1.3 M5.7 -2.8 L5.3 -3.05 5.05 -3.0 4.95 -2.75 Q4.95 -2.3 5.2 -2.25 5.3 -1.8 5.85 -1.95 L6.05 -2.15 Q6.3 -2.75 5.7 -2.8" fill="#aaaab7" fill-rule="evenodd" stroke="none"/>
    <path d="M8.0 -4.45 L8.15 -4.25 8.3 -3.9 8.6 -3.15 8.9 -1.85 8.95 -0.45 8.9 0.25 8.8 0.75 8.4 0.7 8.1 0.85 Q7.95 1.05 8.05 1.3 L8.25 1.6 8.3 1.7 8.15 1.75 7.2 2.1 5.65 2.5 4.7 2.35 4.6 2.35 4.5 2.3 3.85 2.05 3.95 1.85 4.0 1.7 4.0 1.45 Q3.9 1.25 3.55 1.15 3.25 1.1 3.1 1.3 L3.0 1.4 2.95 1.35 2.8 1.2 2.0 0.25 2.3 0.25 2.7 0.45 3.45 0.6 3.85 0.65 4.2 0.7 4.85 0.7 4.9 1.1 Q5.4 1.7 6.15 1.3 L6.4 1.05 6.6 0.6 6.8 0.55 Q7.45 0.45 7.9 -0.05 L7.95 -0.1 8.0 -0.1 8.0 -0.15 8.25 -0.85 8.3 -1.2 8.5 -1.65 Q8.6 -2.2 8.3 -2.35 L8.25 -2.6 8.15 -2.95 8.1 -3.25 8.0 -3.6 8.0 -4.1 7.95 -4.25 7.95 -4.35 8.0 -4.45" fill="#5f5f70" fill-rule="evenodd" stroke="none"/>
    <path d="M5.8 -5.8 L5.85 -5.8 5.8 -5.8" fill="#9b4600" fill-rule="evenodd" stroke="none"/>
    <path d="M-5.6 -5.7 L-5.45 -5.65 -5.45 -5.7 Q-4.65 -5.6 -4.1 -4.95 L-3.95 -4.75 Q-4.6 -5.25 -4.25 -4.45 L-4.0 -3.3 -3.85 -2.1 Q-3.75 -1.1 -4.3 -0.35 L-4.65 0.15 -5.25 0.3 -5.55 0.3 -5.85 0.5 -8.45 0.3 -8.55 -0.7 -8.55 -0.85 -8.5 -2.1 -8.4 -2.5 -8.3 -3.25 -8.2 -3.4 -8.2 -3.45 -8.1 -3.65 -8.1 -3.7 -8.0 -4.0 -7.95 -4.1 -7.65 -4.6 -6.8 -5.3 -5.7 -5.75 -5.6 -5.7 M-6.25 -0.65 Q-6.4 -0.4 -6.2 -0.3 L-5.95 -0.35 Q-5.65 -0.7 -6.15 -0.75 L-6.25 -0.65" fill="#e6c0ae" fill-rule="evenodd" stroke="none"/>
    <path d="M-5.45 -5.7 L-5.45 -5.65 -5.6 -5.7 -5.45 -5.7 M-8.45 0.3 L-5.85 0.5 -5.9 0.65 Q-5.95 1.45 -5.0 2.0 L-4.45 2.3 -6.5 2.5 -7.05 2.3 -7.3 2.1 -7.35 2.1 -8.1 1.2 -8.35 0.65 -8.45 0.3 M-4.65 0.15 L-4.3 -0.35 Q-3.75 -1.1 -3.85 -2.1 L-4.0 -3.3 -4.25 -4.45 Q-4.6 -5.25 -3.95 -4.75 L-3.35 -3.35 -3.1 -1.7 Q-3.05 -0.95 -3.65 -0.45 L-4.65 0.15" fill="#cb7a58" fill-rule="evenodd" stroke="none"/>
    <path d="M-2.45 -5.8 L-2.4 -5.8 -2.2 -5.7 -2.05 -5.6 Q-1.9 -4.9 -1.9 -4.1 L-1.55 -2.85 -1.45 -2.5 -1.4 -1.6 -1.4 -0.35 Q-1.45 0.45 -2.0 1.05 L-3.4 2.0 -4.8 1.55 -5.1 1.4 -5.5 1.1 -3.6 1.0 -2.95 0.8 -2.55 0.7 -2.35 0.65 Q-2.1 -0.55 -2.0 -1.8 L-1.95 -2.95 -2.1 -3.65 -2.25 -3.75 -2.75 -3.9 -3.0 -4.0 -3.2 -4.4 -3.4 -4.75 -3.45 -4.8 -3.85 -5.25 -4.0 -5.4 -3.8 -5.45 -2.6 -5.25 -2.45 -5.8" fill="#b36200" fill-rule="evenodd" stroke="none"/>
    <path d="M-5.85 0.5 L-5.55 0.3 -5.25 0.3 -5.65 0.5 -5.9 0.65 -5.85 0.5 M-2.45 -5.8 L-2.6 -5.25 -3.8 -5.45 -4.0 -5.4 -4.5 -5.8 -4.3 -5.85 -4.15 -5.95 -4.15 -6.0 -3.9 -6.0 -3.1 -5.95 -2.45 -5.8 M-3.0 -4.0 L-2.75 -3.9 -2.25 -3.75 -2.1 -3.65 -1.95 -2.95 -2.0 -1.8 Q-2.1 -0.55 -2.35 0.65 L-2.55 0.7 -2.95 0.8 -3.6 1.0 -5.5 1.1 -5.1 1.4 -5.6 1.05 Q-5.9 0.75 -5.5 0.7 L-5.4 0.55 -3.95 0.3 -3.0 -0.6 Q-2.55 -1.15 -2.65 -1.95 L-2.7 -3.3 -2.85 -3.8 -3.0 -4.0" fill="#ff9900" fill-rule="evenodd" stroke="none"/>
    <path d="M-7.35 -0.05 Q-6.9 -0.9 -6.25 -1.2 L-6.1 -1.2 -5.9 -1.0 -5.85 -0.9 -5.85 -0.85 -5.8 -0.8 -5.6 1.0 -5.6 1.7 -5.8 3.7 -5.8 3.8 -5.9 4.1 -5.9 4.45 -5.95 4.5 -6.0 4.55 -6.05 4.55 -6.15 4.55 -6.5 4.3 -6.65 3.9 -6.75 3.7 -6.75 3.4 -6.7 3.35 -6.75 3.25 -6.8 3.0 -7.8 4.4 -7.85 4.4 -7.85 4.6 Q-8.5 4.8 -8.55 3.7 -8.65 2.3 -8.2 1.2 L-7.65 0.2 -7.4 -0.1 -7.35 -0.05 M-6.05 -0.65 L-6.05 -0.7 -6.1 -0.7 Q-6.7 -0.6 -7.2 0.1 L-7.35 0.2 -7.95 1.7 -8.25 2.8 -8.15 3.9 -8.15 4.05 -8.1 4.05 -8.05 4.1 -8.05 4.15 -8.0 4.15 -7.9 4.25 -7.9 4.15 -7.85 4.05 -7.85 3.9 -7.85 3.75 -7.15 2.8 -6.85 2.45 -6.55 3.15 -6.55 3.2 -6.4 3.35 -6.35 3.5 -6.35 3.6 -6.15 4.0 -6.15 3.8 -6.05 3.75 -6.1 3.65 -6.05 3.45 -6.1 3.35 -6.05 3.3 -6.05 3.25 -6.1 3.15 -6.0 2.4 -5.95 2.3 -5.9 2.2 -5.9 2.15 -6.3 1.2 Q-6.45 0.25 -6.05 -0.65" fill="#000000" fill-rule="evenodd" stroke="none"/>
    <path d="M-6.1 -0.7 L-6.05 -0.65 Q-6.45 0.25 -6.3 1.2 L-5.9 2.15 -5.9 2.2 -5.95 2.3 -6.0 2.4 -6.1 3.15 -6.05 3.25 -6.1 3.35 -6.05 3.45 -6.1 3.65 -6.05 3.75 -6.15 3.8 -6.15 4.0 -6.35 3.6 -6.35 3.5 -6.4 3.35 -6.55 3.2 -6.55 3.15 -6.85 2.45 -7.15 2.8 -7.85 3.75 -7.85 3.9 -7.85 4.05 -7.9 4.15 -7.95 4.15 -8.0 4.15 -8.05 4.15 -8.05 4.1 -8.1 4.05 -8.15 4.05 -8.15 3.9 -8.25 2.8 -7.95 1.7 -7.35 0.2 -7.2 0.1 Q-6.7 -0.6 -6.1 -0.7" fill="#33ff00" fill-rule="evenodd" stroke="none"/>
  </g>
</svg>
