<?xml version="1.0" encoding="UTF-8" standalone="no"?>
<svg xmlns:xlink="http://www.w3.org/1999/xlink" height="13.45px" width="16.25px" xmlns="http://www.w3.org/2000/svg">
  <g transform="matrix(1.0, 0.0, 0.0, 1.0, 8.25, 6.1)">
    <path d="M2.7 -4.7 L2.9 -4.75 2.95 -4.75 5.5 -4.3 7.35 -3.55 7.45 -3.5 Q7.65 -3.35 8.0 -3.25 L7.95 -3.05 7.55 -2.45 7.4 -2.25 7.35 -2.15 5.95 0.4 5.75 0.7 4.85 1.45 5.1 1.8 5.55 3.25 5.7 4.05 5.8 4.45 6.1 6.0 6.15 6.1 6.2 7.35 5.2 7.25 2.85 7.1 2.4 7.05 0.6 6.45 0.3 6.25 0.15 6.1 0.05 6.2 0.0 6.2 -0.1 6.25 -0.45 6.35 Q-1.05 6.8 -1.8 6.95 L-4.05 7.3 -4.35 7.35 -4.6 7.3 -5.95 7.3 -6.05 7.35 -6.2 7.3 -6.3 6.3 -6.3 6.0 -6.35 5.45 Q-6.5 4.15 -6.15 2.9 L-5.55 1.6 -5.2 1.15 -5.95 0.75 -7.0 -0.3 -7.9 -1.8 -8.05 -2.05 -8.25 -3.0 -8.15 -3.05 -7.55 -3.3 -7.1 -3.75 Q-5.8 -4.6 -4.2 -4.65 L-2.85 -4.55 -2.45 -5.1 -2.4 -5.15 Q-1.85 -5.7 -1.0 -5.9 L-0.95 -5.95 -0.9 -5.95 -0.9 -6.0 -0.65 -6.05 -0.5 -6.1 0.15 -6.0 1.65 -5.65 2.7 -4.7 M7.0 -2.55 L7.0 -2.6 7.05 -2.65 7.1 -2.9 7.0 -3.05 6.95 -3.15 6.8 -3.35 6.0 -3.65 5.7 -3.75 5.35 -3.85 2.95 -4.05 3.0 -4.0 3.0 -3.95 3.05 -3.95 3.1 -3.9 Q3.75 -2.75 3.9 -1.4 4.0 -0.55 3.55 0.25 L3.6 0.05 3.6 -0.55 3.6 -0.9 3.6 -1.1 3.55 -1.25 3.55 -1.45 3.45 -1.85 3.3 -2.35 3.0 -3.0 2.75 -3.45 2.7 -3.6 2.65 -3.75 2.55 -3.9 2.45 -4.1 2.3 -4.35 2.25 -4.45 2.2 -4.5 1.5 -5.35 1.4 -5.45 1.25 -5.55 1.15 -5.6 1.0 -5.6 0.45 -5.7 -0.35 -5.65 -0.7 -5.6 -0.8 -5.6 -1.3 -5.45 -1.5 -5.35 -1.75 -5.1 -2.3 -4.45 -2.4 -4.3 -2.5 -4.15 -2.65 -3.95 -2.65 -3.9 -2.65 -3.85 -2.7 -3.8 -2.85 -3.55 -3.05 -3.05 -3.15 -2.75 -3.35 -2.0 -3.4 -1.8 -3.55 -1.0 -3.55 -0.6 -3.55 -0.55 -3.55 -0.4 -3.55 0.0 -3.55 0.2 -3.55 0.3 -3.55 0.45 -3.45 1.15 -3.4 1.25 -3.4 1.3 -3.35 1.4 -3.35 1.5 -3.3 1.6 -2.9 2.4 -3.3 1.8 -3.75 0.85 -3.85 0.35 -4.0 -1.1 Q-3.9 -2.3 -3.4 -3.4 L-3.35 -3.55 -3.15 -4.0 -5.1 -4.05 -6.7 -3.5 -6.9 -3.35 -7.3 -3.15 -7.35 -3.1 -7.45 -3.0 -7.55 -3.0 -7.65 -2.85 -7.65 -2.45 Q-7.7 -1.95 -7.35 -1.5 L-6.15 -0.15 -4.8 0.8 -4.7 0.85 -4.45 1.05 -4.5 1.1 -4.7 1.35 -4.95 1.65 Q-5.5 2.35 -5.65 3.2 L-5.8 3.85 Q-6.05 4.85 -5.85 5.8 L-5.7 6.15 -5.65 6.2 -5.6 6.4 -5.5 6.5 -5.2 6.65 -2.3 6.45 -0.85 5.8 -0.45 5.55 -0.05 5.3 -0.05 5.35 0.0 5.4 0.4 5.75 0.8 5.85 1.2 6.15 1.8 6.35 1.9 6.4 5.1 6.7 5.35 6.6 5.45 6.55 5.7 6.35 5.7 6.2 5.7 6.1 5.25 4.4 5.0 3.35 4.3 2.2 4.1 1.8 3.9 1.5 3.95 1.5 4.45 1.15 4.5 1.1 Q5.6 0.4 6.2 -0.7 L6.7 -1.6 6.75 -1.7 6.85 -1.9 6.85 -2.0 7.0 -2.4 7.0 -2.45 7.0 -2.55 M3.45 -1.85 L3.55 -1.85 3.45 -1.85" fill="#000000" fill-rule="evenodd" stroke="none"/>
    <path d="M-3.5 -1.0 L-3.5 -0.75 -3.55 -0.8 -3.55 -0.75 -3.55 -0.6 -3.55 -1.0 -3.5 -1.0 M-2.45 -0.05 L-2.35 -0.05 -2.5 0.05 -2.45 0.0 -2.45 -0.05 M-0.5 0.15 L-0.25 0.3 -0.25 0.4 -0.5 0.2 -0.5 0.15 M0.95 0.0 L1.0 0.0 1.0 0.05 0.95 0.0 M-2.15 -0.35 L-2.2 -0.3 -2.2 -0.4 -2.15 -0.35 M-0.15 1.1 L-0.2 1.1 -0.2 1.05 -0.15 1.1" fill="#91b70f" fill-rule="evenodd" stroke="none"/>
    <path d="M-4.7 0.85 L-4.8 0.8 -4.75 0.85 -4.7 0.85 M-3.85 0.35 L-3.75 0.85 -3.9 0.35 -3.85 0.35 M-4.25 0.45 L-4.55 0.7 -4.3 0.45 -4.35 0.45 -4.25 0.45" fill="#9900cc" fill-rule="evenodd" stroke="none"/>
    <path d="M3.55 0.25 L3.55 0.4 3.55 0.45 3.5 0.5 3.5 0.7 3.45 0.85 3.45 1.0 3.3 1.35 3.3 1.45 3.15 1.75 3.1 1.85 3.1 1.9 2.7 2.7 2.35 3.15 1.4 3.95 1.05 4.15 0.8 4.25 0.65 4.3 0.3 4.45 0.05 4.4 -0.05 4.4 -0.1 4.4 -0.55 4.3 -0.65 4.25 -0.7 4.25 -0.75 4.2 -0.9 4.15 -1.35 3.9 -1.45 3.9 Q-1.8 3.6 -2.1 3.35 L-2.55 2.85 -2.9 2.4 -3.3 1.6 -3.35 1.5 -3.35 1.4 -3.4 1.3 -3.4 1.25 -3.45 1.15 -3.55 0.45 -3.55 0.3 -3.55 0.2 -3.55 0.0 -3.55 -0.4 -3.55 -0.55 -3.55 -0.6 -3.55 -0.75 -3.55 -0.8 -3.5 -0.75 Q-3.55 -0.2 -2.95 -0.25 L-2.7 -0.05 -2.45 -0.05 -2.45 0.0 -2.5 0.05 -2.35 -0.05 -2.4 0.15 -2.4 0.2 -2.35 0.45 -2.65 0.25 -2.9 0.2 -3.05 0.35 -3.05 0.4 Q-3.3 0.75 -2.9 1.0 L-2.85 1.0 -2.85 1.2 -2.8 1.4 -2.45 1.65 -2.35 1.7 Q-2.05 1.8 -1.9 1.45 L-1.85 1.4 -1.55 1.35 -0.95 1.5 -0.55 1.1 Q-0.3 0.35 -0.9 0.2 L-0.8 0.1 -0.55 0.1 -0.5 0.15 -0.5 0.2 -0.25 0.4 -0.25 0.3 0.1 0.3 0.1 0.25 0.3 -0.1 0.9 0.0 0.95 0.0 1.0 0.05 1.0 0.0 1.4 -0.4 1.45 -0.5 1.55 -0.55 Q1.4 -1.05 1.95 -1.2 L2.0 -1.25 2.15 -1.2 1.8 -0.85 Q1.65 -0.45 1.9 -0.2 1.45 -0.05 1.3 0.35 1.0 0.4 0.85 0.75 0.65 1.3 1.15 1.55 1.7 1.85 1.95 1.35 L2.05 1.2 2.55 0.65 2.6 0.05 2.9 -0.2 2.95 -0.15 Q3.3 0.0 3.45 -0.3 L3.6 -0.55 3.6 0.05 3.55 0.25 M3.55 -1.45 L3.55 -1.25 3.6 -1.1 3.6 -0.9 3.45 -1.05 3.55 -1.45 M0.55 -1.2 L0.5 -1.2 0.2 -0.9 0.15 -0.5 -0.15 -0.65 -0.3 -0.6 -0.35 -0.6 -0.3 -1.1 0.05 -1.35 0.25 -1.4 0.55 -1.2 M-1.95 -1.3 L-1.9 -1.1 -2.1 -0.95 -2.2 -0.55 -2.4 -0.7 -2.4 -0.85 -1.95 -1.3 M-2.5 -1.1 L-2.55 -1.15 -2.45 -1.15 -2.5 -1.1 M-2.95 -1.7 L-2.9 -1.35 -3.2 -1.4 -3.4 -1.25 -3.35 -1.4 -3.15 -1.7 -3.1 -1.7 -2.95 -1.7 M-0.2 1.1 L-0.4 1.1 -0.75 1.5 Q-1.0 2.1 -0.4 2.35 0.15 2.55 0.35 2.0 0.6 1.15 -0.15 1.1 L-0.2 1.05 -0.2 1.1 M-2.35 0.55 L-2.3 0.6 -2.35 0.6 -2.35 0.55" fill="#2b5500" fill-rule="evenodd" stroke="none"/>
    <path d="M3.6 -3.5 L3.3 -3.55 3.1 -3.9 3.05 -3.95 3.0 -3.95 3.0 -4.0 2.95 -4.05 5.35 -3.85 5.7 -3.75 6.0 -3.65 6.8 -3.35 6.95 -3.15 7.0 -3.05 7.1 -2.9 7.05 -2.65 7.0 -2.6 7.0 -2.55 Q6.2 -3.15 5.3 -3.4 L4.25 -3.5 4.2 -3.45 3.6 -3.5 M6.85 -1.9 L6.75 -1.7 6.7 -1.6 6.2 -0.7 Q5.6 0.4 4.5 1.1 L4.45 1.15 3.95 1.5 3.9 1.5 4.1 1.8 4.3 2.2 5.0 3.35 5.25 4.4 5.7 6.1 5.7 6.2 5.7 6.35 5.45 6.55 5.35 6.6 5.1 6.7 1.9 6.4 1.8 6.35 1.2 6.15 0.8 5.85 0.4 5.75 0.0 5.4 -0.05 5.35 -0.05 5.3 -0.45 5.55 -0.85 5.8 -2.3 6.45 -5.2 6.65 -5.5 6.5 -5.6 6.4 -5.65 6.2 -5.7 6.15 -5.85 5.8 Q-6.05 4.85 -5.8 3.85 L-5.65 3.2 Q-5.5 2.35 -4.95 1.65 L-4.7 1.35 -4.5 1.1 -4.45 1.05 -4.7 0.85 -4.75 0.85 -4.8 0.8 -6.15 -0.15 -7.35 -1.5 Q-7.7 -1.95 -7.65 -2.45 L-7.65 -2.85 -7.55 -3.0 -7.45 -3.0 -7.35 -3.1 -7.3 -3.15 -6.9 -3.35 -6.7 -3.5 -5.1 -4.05 -3.15 -4.0 -3.35 -3.55 -3.4 -3.4 -4.3 -3.35 -4.5 -3.3 -5.1 -3.3 -5.75 -3.1 -6.95 -2.55 -7.15 -2.4 -6.6 -1.3 -6.1 -0.65 -5.0 0.25 -4.85 0.35 -4.7 0.5 -4.7 0.8 -4.55 0.7 -4.25 0.45 -4.05 0.3 -3.95 0.25 -3.9 0.25 -3.9 0.35 -3.75 0.85 -4.1 1.35 -4.5 2.05 -4.6 2.25 -5.25 4.15 -5.25 6.35 -5.2 6.65 -5.2 6.5 -4.65 6.45 -2.3 5.95 -1.65 5.65 -0.35 4.75 -0.35 4.7 -0.25 4.7 -0.15 4.6 0.05 4.65 Q0.65 5.5 1.65 5.65 L2.5 5.8 5.05 6.1 5.25 6.1 5.1 5.2 4.95 4.2 4.5 3.45 4.4 3.15 4.2 2.9 4.15 2.7 3.75 2.15 3.55 1.8 3.5 1.7 3.2 1.65 3.3 1.45 3.3 1.35 3.45 1.0 3.55 0.9 Q5.5 -0.15 6.8 -1.9 L6.85 -1.9" fill="#cc99ff" fill-rule="evenodd" stroke="none"/>
    <path d="M3.1 -3.9 L3.3 -3.55 3.6 -3.5 3.95 -3.45 4.65 -2.3 Q5.15 -0.65 3.85 0.35 L3.55 0.45 3.55 0.4 3.55 0.25 Q4.0 -0.55 3.9 -1.4 3.75 -2.75 3.1 -3.9 M-3.4 -3.4 Q-3.9 -2.3 -4.0 -1.1 L-3.85 0.35 -3.9 0.35 -3.9 0.25 -3.95 0.25 -4.05 0.3 -4.25 0.45 -4.35 0.45 -4.3 0.45 -4.55 0.7 -4.7 0.8 -4.7 0.5 -4.7 0.45 -4.65 0.4 -4.6 0.4 -4.85 0.2 -4.95 0.1 -5.15 -0.25 Q-5.45 -1.35 -4.9 -2.3 L-4.4 -2.9 Q-4.15 -3.15 -4.3 -3.35 L-3.4 -3.4 M-3.75 0.85 L-3.3 1.8 -2.9 2.4 -2.55 2.85 -2.1 3.35 Q-1.8 3.6 -1.45 3.9 L-1.35 3.9 -0.9 4.15 -0.75 4.2 -0.7 4.25 -0.65 4.25 -0.55 4.3 -0.1 4.4 -0.05 4.4 0.05 4.4 Q-1.2 5.35 -2.75 4.65 -4.25 3.95 -4.6 2.25 L-4.5 2.05 -4.1 1.35 -3.75 0.85 M3.75 2.15 L3.75 2.45 Q3.75 3.8 2.65 4.7 1.35 5.4 0.65 4.3 L0.8 4.25 1.05 4.15 1.4 3.95 2.35 3.15 2.7 2.7 3.1 1.9 3.1 1.85 3.15 1.75 3.3 1.45 3.2 1.65 3.5 1.7 3.55 1.8 3.75 2.15" fill="#660099" fill-rule="evenodd" stroke="none"/>
    <path d="M3.6 -3.5 L4.2 -3.45 4.25 -3.5 5.3 -3.4 Q6.2 -3.15 7.0 -2.55 L7.0 -2.45 7.0 -2.4 6.85 -2.0 6.85 -1.9 6.8 -1.9 Q5.5 -0.15 3.55 0.9 L3.45 1.0 3.45 0.85 3.5 0.7 3.5 0.5 3.55 0.45 3.85 0.35 Q5.15 -0.65 4.65 -2.3 L3.95 -3.45 3.6 -3.5 M3.75 2.15 L4.15 2.7 4.2 2.9 4.4 3.15 4.5 3.45 4.95 4.2 5.1 5.2 5.25 6.1 5.05 6.1 2.5 5.8 1.65 5.65 Q0.65 5.5 0.05 4.65 L-0.15 4.6 -0.25 4.7 -0.35 4.7 -0.35 4.75 -1.65 5.65 -2.3 5.95 -4.65 6.45 -5.2 6.5 -5.2 6.65 -5.25 6.35 -5.25 4.15 -4.6 2.25 Q-4.25 3.95 -2.75 4.65 -1.2 5.35 0.05 4.4 L0.3 4.45 0.65 4.3 Q1.35 5.4 2.65 4.7 3.75 3.8 3.75 2.45 L3.75 2.15 M-4.7 0.5 L-4.85 0.35 -5.0 0.25 -6.1 -0.65 -6.6 -1.3 -7.15 -2.4 -6.95 -2.55 -5.75 -3.1 -5.1 -3.3 -4.5 -3.3 -4.3 -3.35 Q-4.15 -3.15 -4.4 -2.9 L-4.9 -2.3 Q-5.45 -1.35 -5.15 -0.25 L-4.95 0.1 -4.85 0.2 -4.6 0.4 -4.65 0.4 -4.7 0.45 -4.7 0.5" fill="#ab2eea" fill-rule="evenodd" stroke="none"/>
    <path d="M-3.55 -1.0 L-3.4 -1.8 -3.35 -2.0 -3.15 -2.75 -3.05 -3.05 -2.85 -3.55 -2.7 -3.8 -2.65 -3.85 -2.65 -3.9 -2.65 -3.95 -2.5 -4.15 -2.4 -4.3 -2.3 -4.45 -1.75 -5.1 -1.5 -5.35 -1.3 -5.45 -0.8 -5.6 -0.7 -5.6 -0.35 -5.65 0.45 -5.7 1.0 -5.6 1.15 -5.6 1.25 -5.55 1.4 -5.45 1.5 -5.35 2.2 -4.5 2.25 -4.45 2.3 -4.35 2.45 -4.1 2.55 -3.9 2.65 -3.75 2.7 -3.6 2.75 -3.45 3.0 -3.0 3.3 -2.35 3.45 -1.85 3.55 -1.45 3.45 -1.05 Q3.3 -1.15 3.1 -1.2 L2.85 -1.1 2.8 -1.1 Q3.3 -1.75 2.45 -1.85 L2.3 -1.7 2.25 -1.25 2.2 -1.25 2.15 -1.2 2.0 -1.25 1.95 -1.2 Q1.4 -1.05 1.55 -0.55 L1.45 -0.5 Q1.5 -1.2 0.7 -1.25 L0.55 -1.2 0.25 -1.4 0.05 -1.35 -0.3 -1.1 -0.75 -1.25 Q-0.55 -2.05 -1.55 -2.05 L-1.65 -2.0 -1.6 -2.1 Q-1.45 -2.55 -1.7 -2.7 L-1.9 -3.05 -1.9 -3.2 -1.9 -3.15 Q-1.75 -2.7 -1.3 -2.9 L-1.1 -3.15 Q-0.95 -3.8 -1.65 -3.75 L-1.7 -3.7 -1.95 -3.3 Q-2.05 -3.65 -2.55 -3.6 L-2.65 -3.55 -2.7 -3.55 -2.85 -3.0 -2.55 -2.6 -2.45 -2.4 -2.45 -2.15 -2.45 -2.1 -2.55 -2.15 -2.75 -1.95 -2.95 -1.7 -3.1 -1.7 -3.15 -1.7 -3.35 -1.4 -3.4 -1.25 -3.5 -1.0 -3.55 -1.0 M0.75 -4.0 L1.0 -4.3 Q1.15 -5.0 0.4 -5.0 0.0 -4.8 0.1 -4.35 0.2 -3.8 0.75 -4.0 M1.75 -2.35 Q1.45 -1.85 2.05 -1.75 L2.45 -1.85 2.45 -1.9 Q2.95 -2.5 2.1 -2.6 L1.75 -2.35 M1.2 -3.85 L1.0 -3.85 0.9 -3.75 0.85 -3.7 0.85 -3.55 0.85 -3.5 0.95 -3.4 1.0 -3.35 1.2 -3.35 1.25 -3.4 1.35 -3.55 1.35 -3.65 1.3 -3.75 1.2 -3.85 M0.25 -3.25 L0.1 -3.15 0.1 -2.95 0.15 -2.85 0.2 -2.8 Q0.85 -2.6 0.7 -3.25 L0.65 -3.25 0.4 -3.35 0.25 -3.25 M0.8 -2.55 L0.5 -2.15 Q0.3 -1.3 1.2 -1.4 L1.45 -1.6 Q1.8 -2.5 0.8 -2.55 M-1.7 -1.9 L-1.9 -1.65 -1.95 -1.3 -2.4 -0.85 -2.4 -0.7 -2.45 -0.75 -2.5 -1.1 -2.45 -1.15 -2.4 -1.2 Q-1.9 -1.5 -2.05 -1.85 L-1.8 -1.9 -1.7 -1.9 M-1.75 -4.75 L-1.8 -4.75 -2.0 -4.3 Q-2.0 -4.0 -1.7 -3.9 -1.25 -3.75 -1.15 -4.15 -1.0 -4.8 -1.7 -4.8 L-1.75 -4.75 M-0.65 -4.8 L-0.7 -4.75 Q-1.05 -4.55 -0.9 -4.2 -0.75 -3.75 -0.3 -3.95 L-0.1 -4.2 Q0.05 -4.85 -0.65 -4.8 M-1.05 -5.4 Q-1.25 -5.05 -0.85 -4.85 -0.65 -4.8 -0.55 -4.95 -0.15 -5.4 -0.75 -5.55 L-1.05 -5.4 M-0.8 -3.65 L-0.9 -3.15 -0.85 -3.1 -0.65 -2.9 -0.35 -2.9 -0.15 -3.05 -0.1 -3.15 Q0.05 -3.55 -0.35 -3.8 L-0.65 -3.8 -0.8 -3.65 M-0.75 -2.65 L-0.85 -2.55 -0.95 -2.2 Q-1.0 -1.95 -0.65 -1.8 L-0.25 -1.9 Q0.3 -2.5 -0.5 -2.75 L-0.75 -2.65" fill="#6fa637" fill-rule="evenodd" stroke="none"/>
    <path d="M3.6 -0.9 L3.6 -0.55 3.45 -0.3 Q3.3 0.0 2.95 -0.15 L2.9 -0.2 2.6 0.05 2.55 0.65 2.05 1.2 1.95 1.35 Q1.7 1.85 1.15 1.55 0.65 1.3 0.85 0.75 1.0 0.4 1.3 0.35 1.45 -0.05 1.9 -0.2 1.65 -0.45 1.8 -0.85 L2.15 -1.2 2.2 -1.25 2.25 -1.25 2.3 -1.7 2.45 -1.85 Q3.3 -1.75 2.8 -1.1 L2.85 -1.1 3.1 -1.2 Q3.3 -1.15 3.45 -1.05 L3.6 -0.9 M0.25 -3.25 L0.4 -3.35 0.65 -3.25 0.7 -3.25 Q0.85 -2.6 0.2 -2.8 L0.15 -2.85 0.1 -2.95 0.1 -3.15 0.25 -3.25 M1.2 -3.85 L1.3 -3.75 1.35 -3.65 1.35 -3.55 1.25 -3.4 1.2 -3.35 1.0 -3.35 0.95 -3.4 0.85 -3.5 0.85 -3.55 0.85 -3.7 0.9 -3.75 1.0 -3.85 1.2 -3.85 M1.75 -2.35 L2.1 -2.6 Q2.95 -2.5 2.45 -1.9 L2.45 -1.85 2.05 -1.75 Q1.45 -1.85 1.75 -2.35 M0.8 -2.55 Q1.8 -2.5 1.45 -1.6 L1.2 -1.4 Q0.3 -1.3 0.5 -2.15 L0.8 -2.55 M-0.3 -1.1 L-0.35 -0.6 -0.3 -0.6 -0.15 -0.65 0.15 -0.5 0.2 -0.9 0.5 -1.2 0.55 -1.2 0.7 -1.25 Q1.5 -1.2 1.45 -0.5 L1.4 -0.4 1.0 0.0 0.95 0.0 0.9 0.0 0.3 -0.1 0.1 0.25 0.1 0.3 -0.25 0.3 -0.5 0.15 -0.55 0.1 -0.8 0.1 -0.9 0.2 Q-0.3 0.35 -0.55 1.1 L-0.95 1.5 -1.55 1.35 -1.85 1.4 -1.9 1.45 Q-2.05 1.8 -2.35 1.7 L-2.45 1.65 -2.8 1.4 -2.85 1.2 -2.85 1.0 -2.9 1.0 Q-3.3 0.75 -3.05 0.4 L-3.05 0.35 -2.9 0.2 -2.65 0.25 -2.35 0.45 -2.4 0.2 -2.4 0.15 -2.35 -0.05 -2.45 -0.05 -2.7 -0.05 -2.95 -0.25 Q-3.55 -0.2 -3.5 -0.75 L-3.5 -1.0 -3.4 -1.25 -3.2 -1.4 -2.9 -1.35 -2.95 -1.7 -2.75 -1.95 -2.55 -2.15 -2.45 -2.1 Q-2.35 -1.85 -2.05 -1.85 -1.9 -1.5 -2.4 -1.2 L-2.45 -1.15 -2.55 -1.15 -2.5 -1.1 -2.45 -0.75 -2.4 -0.7 -2.2 -0.55 -2.1 -0.95 -1.9 -1.1 -1.95 -1.3 -1.9 -1.65 -1.7 -1.9 -1.65 -2.0 -1.55 -2.05 Q-0.55 -2.05 -0.75 -1.25 L-0.3 -1.1 M-1.9 -3.05 L-1.7 -2.7 -2.0 -2.8 -1.95 -2.95 -1.9 -3.05 M-0.8 -3.65 L-0.65 -3.8 -0.35 -3.8 Q0.05 -3.55 -0.1 -3.15 L-0.15 -3.05 -0.35 -2.9 -0.65 -2.9 -0.85 -3.1 -0.9 -3.15 -0.8 -3.65 M-0.75 -2.65 L-0.5 -2.75 Q0.3 -2.5 -0.25 -1.9 L-0.65 -1.8 Q-1.0 -1.95 -0.95 -2.2 L-0.85 -2.55 -0.75 -2.65 M-2.55 -2.6 L-2.4 -2.6 -2.45 -2.4 -2.55 -2.6 M-2.15 -0.35 L-2.2 -0.4 -2.2 -0.3 -2.15 -0.35 M-0.15 1.1 Q0.6 1.15 0.35 2.0 0.15 2.55 -0.4 2.35 -1.0 2.1 -0.75 1.5 L-0.4 1.1 -0.2 1.1 -0.15 1.1 M-2.35 0.55 L-2.35 0.6 -2.3 0.6 -2.35 0.55" fill="#58852c" fill-rule="evenodd" stroke="none"/>
    <path d="M0.75 -4.0 Q0.2 -3.8 0.1 -4.35 0.0 -4.8 0.4 -5.0 1.15 -5.0 1.0 -4.3 L0.75 -4.0 M-1.65 -2.0 L-1.7 -1.9 -1.8 -1.9 -2.05 -1.85 Q-2.35 -1.85 -2.45 -2.1 L-2.45 -2.15 -2.45 -2.4 -2.4 -2.6 -2.55 -2.6 -2.85 -3.0 -2.7 -3.55 -2.65 -3.55 -2.55 -3.6 Q-2.05 -3.65 -1.95 -3.3 L-1.7 -3.7 -1.65 -3.75 Q-0.95 -3.8 -1.1 -3.15 L-1.3 -2.9 Q-1.75 -2.7 -1.9 -3.15 L-1.9 -3.2 -1.9 -3.05 -1.95 -2.95 -2.0 -2.8 -1.7 -2.7 Q-1.45 -2.55 -1.6 -2.1 L-1.65 -2.0 M-1.05 -5.4 L-0.75 -5.55 Q-0.15 -5.4 -0.55 -4.95 -0.65 -4.8 -0.85 -4.85 -1.25 -5.05 -1.05 -5.4 M-0.65 -4.8 Q0.05 -4.85 -0.1 -4.2 L-0.3 -3.95 Q-0.75 -3.75 -0.9 -4.2 -1.05 -4.55 -0.7 -4.75 L-0.65 -4.8 M-1.75 -4.75 L-1.7 -4.8 Q-1.0 -4.8 -1.15 -4.15 -1.25 -3.75 -1.7 -3.9 -2.0 -4.0 -2.0 -4.3 L-1.8 -4.75 -1.75 -4.75" fill="#8ac550" fill-rule="evenodd" stroke="none"/>
  </g>
</svg>
