<?xml version="1.0" encoding="UTF-8" standalone="no"?>
<svg xmlns:xlink="http://www.w3.org/1999/xlink" height="10.7px" width="10.0px" xmlns="http://www.w3.org/2000/svg">
  <g transform="matrix(1.0, 0.0, 0.0, 1.0, 5.2, 7.3)">
    <path d="M1.6 -6.45 L1.5 -6.4 1.2 -6.3 1.35 -6.25 2.45 -5.65 3.4 -4.9 3.45 -4.75 3.15 -5.7 Q2.6 -6.55 1.6 -6.45 M1.9 -6.65 Q3.15 -6.55 3.65 -5.35 L3.75 -5.05 3.65 -4.45 3.8 -3.15 4.6 -2.3 Q5.15 -0.85 4.35 0.55 L3.85 0.85 3.55 1.65 Q2.8 2.6 1.5 3.05 L-1.1 3.25 Q-2.6 2.75 -3.4 1.6 L-3.5 1.35 -3.55 1.15 -3.55 1.0 -4.05 0.7 -4.65 -0.5 -4.6 -1.55 -4.75 -2.1 -4.85 -2.25 Q-5.2 -2.95 -5.2 -3.75 L-5.15 -5.15 -4.9 -6.1 Q-4.55 -7.0 -3.75 -7.3 L-3.35 -6.95 -3.35 -6.45 Q-3.95 -5.05 -3.55 -3.55 L-3.55 -3.65 -3.4 -3.9 Q-3.6 -4.65 -3.3 -5.3 L-2.75 -6.05 -2.4 -6.25 -2.1 -6.45 -1.6 -6.65 Q-0.9 -6.7 -0.4 -6.35 L-0.25 -6.4 0.9 -6.35 1.0 -6.3 1.9 -6.65 M3.6 -3.25 L3.35 -4.15 3.3 -4.15 3.25 -4.3 2.75 -4.9 2.35 -5.25 2.05 -5.45 0.65 -5.95 0.6 -5.95 0.5 -5.95 0.05 -6.0 0.0 -5.95 -0.1 -5.95 -0.5 -5.85 -0.55 -5.85 -0.7 -5.85 -1.9 -5.25 -1.95 -5.2 -2.05 -5.15 -2.25 -4.9 -2.65 -4.35 -2.75 -4.1 -3.0 -3.4 -3.05 -3.25 -3.2 -2.6 -3.2 -2.5 -3.2 -2.4 -3.25 -2.25 -3.25 -1.5 -3.25 -1.05 -3.25 -0.5 -3.2 -0.15 -3.2 0.15 -3.15 0.55 -3.1 0.75 -3.05 1.0 -3.0 1.2 -2.95 1.3 -2.9 1.55 Q-2.5 2.3 -1.75 2.55 L-1.0 2.8 -0.25 2.85 Q1.0 2.9 2.1 2.4 L2.3 2.3 Q3.05 1.6 3.4 0.7 L3.6 -0.2 3.65 -0.3 3.65 -1.9 3.55 -2.6 3.6 -3.25 M4.5 -1.25 L4.25 -2.15 3.85 -2.6 3.95 -0.95 3.95 -0.15 3.95 0.35 3.9 0.55 4.0 0.5 4.15 0.15 4.5 -1.25 M-4.1 -4.95 L-4.05 -5.35 -3.9 -5.95 -3.8 -6.1 -3.6 -6.9 -3.7 -6.95 -4.2 -6.45 -4.45 -5.9 -4.55 -5.6 -4.7 -5.05 -4.8 -4.6 -4.8 -3.55 -4.7 -2.95 -4.45 -2.35 -4.4 -2.2 -4.35 -2.35 -4.0 -2.9 -3.95 -2.95 -4.0 -3.05 -4.1 -4.95 M-0.85 -6.2 L-1.75 -6.4 Q-2.3 -6.3 -2.65 -5.9 L-2.95 -5.55 Q-3.2 -5.0 -3.05 -4.6 L-2.8 -4.85 Q-2.05 -5.75 -0.85 -6.2 M-3.7 -1.1 L-3.7 -1.15 -3.7 -1.3 -3.7 -1.5 -3.7 -1.55 -3.7 -1.65 -3.7 -2.2 -3.7 -2.3 -3.65 -2.35 -3.65 -2.5 -3.75 -2.5 -3.85 -2.5 -4.1 -2.3 -4.2 -2.1 -4.25 -2.0 -4.3 -1.9 -4.4 -1.45 -4.4 -1.3 -4.4 -1.15 -4.4 -0.8 -4.25 -0.3 -3.6 0.65 -3.65 -0.3 -3.65 -0.35 -3.65 -0.45 -3.65 -0.65 -3.7 -1.1" fill="#000000" fill-rule="evenodd" stroke="none"/>
    <path d="M-4.8 -4.6 L-4.7 -5.05 -4.55 -5.6 -4.45 -5.9 -4.2 -6.45 -3.7 -6.95 -3.6 -6.9 -3.8 -6.1 -3.9 -5.95 -4.05 -5.35 -4.1 -4.95 -4.15 -4.75 -4.2 -4.75 -4.7 -4.6 -4.8 -4.6" fill="#ffffff" fill-rule="evenodd" stroke="none"/>
    <path d="M3.95 -0.95 L3.85 -2.6 4.25 -2.15 4.5 -1.25 4.35 -1.05 Q4.3 -0.9 4.1 -0.95 L3.95 -0.95 M-1.4 -4.8 L-1.3 -4.9 -0.55 -5.4 Q1.3 -5.55 1.65 -3.8 2.05 -2.0 0.95 -0.5 -0.2 0.95 -1.85 0.1 -2.4 -0.2 -2.55 -0.8 -2.8 -1.95 -2.55 -2.9 L-2.4 -2.2 -2.0 -1.9 -1.5 -1.9 Q-0.85 -2.15 -0.5 -2.75 L-0.3 -3.2 -0.2 -4.1 Q-0.2 -4.85 -0.95 -4.9 L-1.4 -4.8 M-4.4 -0.8 L-4.4 -1.15 -4.4 -1.3 -4.4 -1.45 -4.3 -1.9 -4.25 -2.0 -4.2 -2.1 -4.1 -2.3 -3.85 -2.5 -3.75 -2.5 -3.65 -2.5 -3.65 -2.35 -3.7 -2.3 -3.7 -2.2 -3.7 -1.65 -3.7 -1.55 -3.7 -1.5 -3.7 -1.3 -3.7 -1.15 -3.7 -1.1 -3.95 -0.85 -4.4 -0.8" fill="#9900cc" fill-rule="evenodd" stroke="none"/>
    <path d="M1.6 -6.45 Q2.6 -6.55 3.15 -5.7 L3.45 -4.75 3.4 -4.9 2.45 -5.65 1.35 -6.25 1.2 -6.3 1.5 -6.4 1.6 -6.45 M-0.85 -6.2 Q-2.05 -5.75 -2.8 -4.85 L-3.05 -4.6 Q-3.2 -5.0 -2.95 -5.55 L-2.65 -5.9 Q-2.3 -6.3 -1.75 -6.4 L-0.85 -6.2" fill="#99ffff" fill-rule="evenodd" stroke="none"/>
    <path d="M-4.1 -4.95 L-4.0 -3.05 -3.95 -2.95 -4.0 -2.9 -4.35 -2.35 -4.4 -2.2 -4.45 -2.35 -4.7 -2.95 -4.8 -3.55 -4.8 -4.6 -4.7 -4.6 -4.2 -4.75 -4.15 -4.75 -4.1 -4.95" fill="#cccccc" fill-rule="evenodd" stroke="none"/>
    <path d="M3.6 -3.25 L3.55 -2.6 3.65 -1.9 3.65 -0.3 3.6 -0.2 3.4 0.7 Q3.05 1.6 2.3 2.3 L2.1 2.4 Q1.0 2.9 -0.25 2.85 L-1.0 2.8 -1.75 2.55 Q-2.5 2.3 -2.9 1.55 L-2.95 1.3 -3.0 1.2 -3.05 1.0 -3.1 0.75 -3.15 0.55 -3.2 0.15 -3.2 -0.15 -3.25 -0.5 -3.25 -1.05 -3.25 -1.5 -3.25 -2.25 -3.2 -2.4 -3.2 -2.5 -3.2 -2.6 -3.05 -3.25 -3.0 -3.4 -2.75 -4.1 -2.65 -4.35 -2.25 -4.9 -2.05 -5.15 -1.95 -5.2 -1.9 -5.25 -0.7 -5.85 -0.55 -5.85 -0.5 -5.85 -0.1 -5.95 0.0 -5.95 0.05 -6.0 0.5 -5.95 0.6 -5.95 0.65 -5.95 2.05 -5.45 2.35 -5.25 2.75 -4.9 3.25 -4.3 3.3 -4.15 3.35 -4.15 3.6 -3.25 M4.5 -1.25 L4.15 0.15 4.0 0.5 3.9 0.55 3.95 0.35 3.95 -0.15 3.95 -0.95 4.1 -0.95 Q4.3 -0.9 4.35 -1.05 L4.5 -1.25 M-2.55 -2.9 Q-2.8 -1.95 -2.55 -0.8 -2.4 -0.2 -1.85 0.1 -0.2 0.95 0.95 -0.5 2.05 -2.0 1.65 -3.8 1.3 -5.55 -0.55 -5.4 L-1.3 -4.9 -1.4 -4.8 Q-2.3 -3.95 -2.55 -2.9 M-4.4 -0.8 L-3.95 -0.85 -3.7 -1.1 -3.65 -0.65 -3.65 -0.45 -3.65 -0.35 -3.65 -0.3 -3.6 0.65 -4.25 -0.3 -4.4 -0.8" fill="#7c00a6" fill-rule="evenodd" stroke="none"/>
    <path d="M-2.55 -2.9 Q-2.3 -3.95 -1.4 -4.8 L-0.95 -4.9 Q-0.2 -4.85 -0.2 -4.1 L-0.3 -3.2 -0.5 -2.75 Q-0.85 -2.15 -1.5 -1.9 L-2.0 -1.9 -2.4 -2.2 -2.55 -2.9" fill="#b997ff" fill-rule="evenodd" stroke="none"/>
  </g>
</svg>
