<?xml version="1.0" encoding="UTF-8" standalone="no"?>
<svg xmlns:xlink="http://www.w3.org/1999/xlink" height="13.05px" width="11.6px" xmlns="http://www.w3.org/2000/svg">
  <g transform="matrix(1.0, 0.0, 0.0, 1.0, 5.6, 6.2)">
    <path d="M4.7 -4.7 L4.65 -4.75 3.75 -4.8 3.5 -4.75 3.15 -4.65 1.7 -4.55 1.0 -4.7 1.1 -4.55 1.45 -3.4 1.75 -1.75 1.85 -0.8 1.85 -0.65 1.75 0.1 1.75 0.4 1.7 0.35 1.75 0.55 1.75 1.75 1.95 2.25 1.95 2.6 2.05 3.45 2.1 4.8 2.0 5.35 1.95 5.45 1.9 5.55 1.55 5.85 1.45 5.95 Q0.7 6.55 -0.1 6.2 L-0.2 6.15 -0.45 6.05 -0.7 5.9 -0.8 5.75 -0.85 5.7 -0.9 5.65 -0.95 5.6 -1.15 5.55 -1.85 5.25 -2.2 5.1 -2.55 4.95 -2.75 4.8 -2.85 4.9 -3.0 4.9 -3.15 4.9 -3.25 4.9 -3.6 4.95 -3.65 4.95 -2.9 5.85 -2.7 6.0 -2.55 6.05 -2.15 6.25 -2.05 6.3 -1.25 6.4 -1.15 6.4 -0.2 6.55 0.05 6.55 Q1.3 6.7 2.2 6.0 L3.1 5.55 3.55 5.25 3.75 5.1 4.1 5.15 4.6 4.25 4.3 4.25 3.8 4.35 3.4 4.5 3.3 4.55 3.1 4.65 3.05 4.7 3.0 4.7 2.95 4.7 2.9 4.75 2.65 4.85 2.65 4.95 2.4 5.1 2.35 5.15 2.5 4.65 2.95 4.4 3.55 4.05 3.6 4.05 3.85 3.95 4.65 3.8 4.7 3.8 4.75 3.85 5.6 3.75 5.7 3.5 5.7 3.45 Q5.45 2.55 4.75 1.9 L4.65 1.85 4.65 1.8 4.65 1.7 4.6 1.7 Q4.85 0.35 4.05 -0.9 L4.0 -1.0 3.9 -1.4 3.5 -2.2 3.6 -2.4 4.35 -3.75 4.7 -4.35 4.75 -4.4 4.7 -4.7 M4.65 -5.5 L4.95 -5.3 5.1 -4.65 4.6 -3.05 4.15 -1.65 4.6 -0.75 4.95 1.15 5.25 1.65 5.9 2.95 6.0 3.8 5.85 4.2 4.8 4.3 Q4.9 5.4 3.9 5.85 L3.15 6.2 2.7 6.35 2.3 6.5 -0.35 6.75 -0.6 6.75 Q-1.5 6.85 -2.25 6.35 L-2.3 6.35 Q-3.2 6.35 -3.75 5.6 L-4.0 5.0 -4.3 5.05 -4.35 5.0 -4.45 5.05 -4.7 5.15 -4.7 5.2 -4.95 5.15 -5.1 5.1 -5.35 4.85 -4.95 3.5 -4.35 2.65 -4.65 2.0 Q-5.05 1.1 -4.85 0.05 L-4.85 -0.25 -5.55 -1.45 -5.6 -1.85 -4.65 -1.9 -4.1 -1.8 -3.55 -2.45 -4.0 -4.05 -4.3 -5.05 Q-4.55 -5.5 -4.35 -5.9 L-4.15 -6.15 -4.1 -6.2 -2.15 -5.45 -1.3 -5.1 -0.85 -5.35 -0.05 -5.3 1.45 -5.1 2.25 -4.85 2.85 -5.15 4.65 -5.5 M-0.25 -4.15 L-0.1 -3.55 -0.05 -3.5 -0.1 -3.5 -0.2 -3.45 -0.25 -3.45 Q-0.5 -3.25 -0.4 -2.9 L-0.35 -2.75 -0.35 -2.4 -0.1 -2.0 0.85 -1.9 Q1.2 -2.25 1.15 -2.7 1.1 -3.4 0.4 -3.4 L0.3 -3.45 Q0.8 -3.5 0.85 -4.05 0.9 -4.55 0.6 -4.7 0.5 -5.1 -0.1 -5.05 L-0.2 -5.0 -0.25 -5.0 -0.4 -4.75 -0.4 -4.45 -0.25 -4.15 M-0.55 -0.85 L-0.65 -0.5 Q-0.7 -0.1 -0.25 0.05 0.4 0.3 0.9 -0.15 1.4 -0.55 1.05 -1.1 0.8 -1.5 0.35 -1.5 L-0.05 -1.65 Q-0.5 -1.65 -0.55 -1.2 L-0.55 -0.85 M-0.5 0.95 Q-0.85 1.5 -0.4 2.0 L-0.15 2.15 Q0.85 2.35 1.4 1.45 L1.45 1.15 Q1.35 0.3 0.55 0.25 L0.25 0.15 Q-0.25 0.1 -0.45 0.55 L-0.5 0.95 M0.7 2.65 L0.6 2.65 -0.2 2.5 -0.25 2.6 -0.45 2.9 -0.65 3.2 Q-0.8 3.85 -0.2 4.1 0.75 4.5 1.55 3.75 L1.7 3.3 Q1.6 2.45 0.7 2.65 M-0.15 4.65 L-0.2 4.65 -0.5 5.15 -0.35 5.75 -0.3 5.8 -0.15 5.9 0.15 5.95 1.35 5.8 1.65 5.65 1.8 5.45 1.85 5.0 Q1.75 4.4 1.1 4.55 L1.05 4.55 0.35 4.5 0.3 4.5 0.0 4.6 -0.15 4.6 -0.15 4.65 M-0.75 -3.7 L-0.6 -4.45 -0.6 -4.6 -0.55 -4.75 -0.4 -4.75 -0.85 -4.7 -1.55 -4.7 -3.45 -5.3 Q-3.95 -5.25 -3.8 -4.75 L-3.7 -4.45 -3.05 -2.8 -3.1 -2.6 -4.0 -1.25 -4.2 -1.35 -4.65 -1.6 -4.85 -1.55 -4.9 -1.55 -4.95 -1.4 Q-5.1 -0.8 -4.5 -0.3 L-4.55 0.05 -4.55 0.95 -4.5 1.35 -4.15 2.5 -4.05 2.7 -4.8 4.0 -4.85 4.4 Q-4.7 4.9 -4.1 4.65 L-3.9 4.6 -3.85 4.6 -3.65 4.5 -3.2 4.35 -2.9 4.3 -2.7 4.25 -2.1 4.25 -2.55 4.25 -2.3 4.5 -2.05 4.65 -1.15 4.9 -1.25 4.45 -1.2 3.75 -0.95 2.6 -1.1 2.55 -1.05 1.85 -1.05 1.05 -1.05 0.85 -1.1 -0.2 -1.1 -0.25 -1.0 -0.2 -1.0 -0.9 -0.95 -1.65 -0.75 -3.7" fill="#000000" fill-rule="evenodd" stroke="none"/>
    <path d="M1.45 -3.4 L1.1 -4.55 1.0 -4.7 1.7 -4.55 3.15 -4.65 3.5 -4.75 3.75 -4.8 4.65 -4.75 4.7 -4.7 4.15 -4.5 Q2.95 -4.15 2.9 -3.0 L2.4 -2.45 2.6 -2.65 2.4 -2.7 2.3 -2.95 1.75 -3.5 1.45 -3.4 M4.05 -0.9 Q4.85 0.35 4.6 1.7 L4.65 1.7 4.65 1.8 4.65 1.85 4.75 1.9 Q5.45 2.55 5.7 3.45 L5.5 3.25 Q4.8 2.65 3.9 2.55 L3.9 2.5 4.0 2.15 Q4.1 1.4 3.35 1.45 L2.95 1.85 2.8 2.2 Q2.6 2.7 2.55 3.3 L2.5 3.35 2.4 3.4 2.05 3.45 1.95 2.6 1.95 2.25 1.75 1.75 1.75 0.55 1.75 0.4 1.75 0.1 1.85 -0.65 1.85 -0.8 1.9 -1.15 2.0 -1.35 2.6 -1.35 2.65 -1.3 2.7 -1.35 2.7 -1.4 2.75 -1.4 2.85 -1.45 3.95 -1.05 4.05 -0.9 M-4.2 -1.35 L-4.0 -1.25 -3.1 -2.6 -3.05 -2.8 -3.7 -4.45 -3.8 -4.75 Q-3.95 -5.25 -3.45 -5.3 L-1.55 -4.7 -0.85 -4.7 -0.4 -4.75 -0.55 -4.75 -0.6 -4.6 -0.6 -4.45 -0.75 -3.7 -1.05 -3.45 -1.5 -3.2 Q-1.75 -2.9 -2.1 -2.95 L-2.3 -3.0 Q-2.9 -3.05 -2.8 -2.4 L-2.5 -1.95 -2.65 -1.35 -2.55 -1.05 Q-2.3 -0.85 -2.0 -0.8 L-1.9 -0.95 -2.05 -0.7 -1.85 -0.7 Q-1.2 -0.85 -1.1 -0.25 L-1.1 -0.2 -1.05 0.85 -1.05 1.05 -1.05 1.85 -1.2 1.75 Q-2.2 1.3 -3.25 1.4 L-3.3 1.45 -3.35 1.45 -3.4 1.5 -3.65 2.05 -3.6 2.15 Q-3.1 2.6 -2.9 3.25 L-3.5 3.45 -4.2 3.85 -4.85 4.4 -4.8 4.0 -4.05 2.7 -4.15 2.5 -4.5 1.35 -4.55 0.95 -4.55 0.05 -4.5 -0.3 -4.5 -0.35 -4.35 -0.6 -4.25 -0.95 -4.2 -1.35" fill="#993366" fill-rule="evenodd" stroke="none"/>
    <path d="M3.3 4.55 L3.4 4.5 3.35 4.6 3.45 4.95 3.65 5.05 3.85 5.05 4.25 4.35 4.3 4.25 4.6 4.25 4.1 5.15 3.75 5.1 3.55 5.25 3.1 5.55 2.2 6.0 Q1.3 6.7 0.05 6.55 L-0.2 6.55 -1.15 6.4 -1.25 6.4 -2.05 6.3 -2.15 6.25 -2.55 6.05 -2.7 6.0 -2.9 5.85 -3.65 4.95 -3.6 4.95 -3.25 4.9 -3.15 4.9 -3.0 4.9 -3.15 4.9 -3.2 4.9 -3.15 5.4 -2.85 5.6 -2.25 5.45 -2.2 5.2 -2.2 5.1 -1.85 5.25 -1.9 5.5 Q-1.85 6.25 -1.15 6.1 L-1.0 5.9 -0.95 5.75 -0.95 5.6 -0.9 5.65 -0.85 5.7 -0.8 5.75 -0.7 5.9 -0.45 6.05 -0.2 6.15 -0.1 6.2 Q0.7 6.55 1.45 5.95 L1.55 5.85 1.9 5.55 1.95 5.45 2.2 5.3 2.25 5.25 2.25 5.3 2.3 5.35 2.5 5.5 2.8 5.45 3.1 5.1 3.25 4.7 3.3 4.55 M1.75 0.55 L1.7 0.35 1.75 0.4 1.75 0.55 M-0.25 -4.15 L0.4 -4.1 0.55 -4.4 0.6 -4.7 Q0.9 -4.55 0.85 -4.05 0.8 -3.5 0.3 -3.45 L-0.05 -3.5 -0.1 -3.55 -0.25 -4.15 M0.4 -3.4 Q1.1 -3.4 1.15 -2.7 1.2 -2.25 0.85 -1.9 L-0.1 -2.0 -0.35 -2.4 -0.35 -2.75 Q-0.2 -2.4 0.35 -2.55 L0.5 -2.85 0.4 -3.4 M-0.55 -0.85 L-0.1 -0.5 Q0.4 -0.45 0.5 -0.95 L0.35 -1.5 Q0.8 -1.5 1.05 -1.1 1.4 -0.55 0.9 -0.15 0.4 0.3 -0.25 0.05 -0.7 -0.1 -0.65 -0.5 L-0.55 -0.85 M0.55 0.25 Q1.35 0.3 1.45 1.15 L1.4 1.45 Q0.85 2.35 -0.15 2.15 L-0.4 2.0 Q-0.85 1.5 -0.5 0.95 L-0.45 1.05 Q-0.15 1.6 0.5 1.3 L0.7 0.95 Q0.8 0.45 0.55 0.25 M0.7 2.65 Q1.6 2.45 1.7 3.3 L1.55 3.75 Q0.75 4.5 -0.2 4.1 -0.8 3.85 -0.65 3.2 L-0.45 2.9 -0.3 3.3 Q0.1 3.75 0.75 3.55 L0.9 3.55 Q1.2 3.25 1.1 2.85 L0.95 2.7 0.7 2.65 M0.0 4.6 L0.3 4.5 0.35 4.5 1.05 4.55 1.1 4.55 Q1.75 4.4 1.85 5.0 L1.8 5.45 1.65 5.65 1.35 5.8 0.15 5.95 -0.15 5.9 -0.3 5.8 -0.35 5.75 -0.5 5.15 -0.2 4.65 -0.15 4.65 Q-0.4 5.0 -0.15 5.2 L0.05 5.35 0.2 5.45 Q0.65 5.65 0.95 5.15 1.25 4.6 0.6 4.55 L0.0 4.6" fill="#993300" fill-rule="evenodd" stroke="none"/>
    <path d="M2.35 5.15 L2.4 5.1 2.65 4.95 2.65 4.85 2.9 4.75 2.95 4.7 3.0 4.7 3.05 4.7 3.1 4.65 3.3 4.55 3.25 4.7 3.1 5.1 2.8 5.45 2.5 5.5 2.3 5.35 2.25 5.3 2.25 5.25 2.3 5.2 2.35 5.15 M3.4 4.5 L3.8 4.35 4.3 4.25 4.25 4.35 3.85 5.05 3.65 5.05 3.45 4.95 3.35 4.6 3.4 4.5 M-3.0 4.9 L-2.85 4.9 -2.75 4.8 -2.55 4.95 -2.2 5.1 -2.2 5.2 -2.25 5.45 -2.85 5.6 -3.15 5.4 -3.2 4.9 -3.15 4.9 -3.0 4.9 M-1.85 5.25 L-1.15 5.55 -0.95 5.6 -0.95 5.75 -1.0 5.9 -1.15 6.1 Q-1.85 6.25 -1.9 5.5 L-1.85 5.25 M0.6 -4.7 L0.55 -4.4 0.4 -4.1 -0.25 -4.15 -0.4 -4.45 -0.4 -4.75 -0.25 -5.0 -0.2 -5.0 -0.1 -5.05 Q0.5 -5.1 0.6 -4.7 M-0.05 -3.5 L0.3 -3.45 0.4 -3.4 0.5 -2.85 0.35 -2.55 Q-0.2 -2.4 -0.35 -2.75 L-0.4 -2.9 Q-0.5 -3.25 -0.25 -3.45 L-0.2 -3.45 -0.1 -3.5 -0.05 -3.5 M0.35 -1.5 L0.5 -0.95 Q0.4 -0.45 -0.1 -0.5 L-0.55 -0.85 -0.55 -1.2 Q-0.5 -1.65 -0.05 -1.65 L0.35 -1.5 M-0.5 0.95 L-0.45 0.55 Q-0.25 0.1 0.25 0.15 L0.55 0.25 Q0.8 0.45 0.7 0.95 L0.5 1.3 Q-0.15 1.6 -0.45 1.05 L-0.5 0.95 M-0.45 2.9 L-0.25 2.6 -0.2 2.5 0.6 2.65 0.7 2.65 0.95 2.7 1.1 2.85 Q1.2 3.25 0.9 3.55 L0.75 3.55 Q0.1 3.75 -0.3 3.3 L-0.45 2.9 M0.0 4.6 L0.6 4.55 Q1.25 4.6 0.95 5.15 0.65 5.65 0.2 5.45 L0.05 5.35 -0.15 5.2 Q-0.4 5.0 -0.15 4.65 L-0.15 4.6 0.0 4.6" fill="#ff3300" fill-rule="evenodd" stroke="none"/>
    <path d="M4.7 -4.7 L4.75 -4.4 4.7 -4.35 4.35 -3.75 3.6 -2.4 3.5 -2.2 3.9 -1.4 4.0 -1.0 4.05 -0.9 3.95 -1.05 2.85 -1.45 2.75 -1.4 2.7 -1.4 2.7 -1.35 2.65 -1.3 2.6 -1.35 2.0 -1.35 1.9 -1.15 1.85 -0.8 1.75 -1.75 1.45 -3.4 1.75 -3.5 2.3 -2.95 2.4 -2.7 2.6 -2.65 2.4 -2.45 2.9 -3.0 Q2.95 -4.15 4.15 -4.5 L4.7 -4.7 M5.7 3.45 L5.7 3.5 5.6 3.75 4.75 3.85 4.7 3.8 4.65 3.8 3.85 3.95 3.6 4.05 3.55 4.05 2.95 4.4 2.5 4.65 2.35 5.15 2.3 5.2 2.25 5.25 2.2 5.3 1.95 5.45 2.0 5.35 2.1 4.8 2.05 3.45 2.4 3.4 2.5 3.35 2.55 3.3 Q2.6 2.7 2.8 2.2 L2.95 1.85 3.35 1.45 Q4.1 1.4 4.0 2.15 L3.9 2.5 3.9 2.55 Q4.8 2.65 5.5 3.25 L5.7 3.45 M-0.75 -3.7 L-0.95 -1.65 -1.0 -0.9 -1.0 -0.2 -1.1 -0.25 Q-1.2 -0.85 -1.85 -0.7 L-2.05 -0.7 -1.9 -0.95 -2.0 -0.8 Q-2.3 -0.85 -2.55 -1.05 L-2.65 -1.35 -2.5 -1.95 -2.8 -2.4 Q-2.9 -3.05 -2.3 -3.0 L-2.1 -2.95 Q-1.75 -2.9 -1.5 -3.2 L-1.05 -3.45 -0.75 -3.7 M-1.05 1.85 L-1.1 2.55 -0.95 2.6 -1.2 3.75 -1.25 4.45 -1.15 4.9 -2.05 4.65 -2.3 4.5 -2.55 4.25 -2.1 4.25 -2.7 4.25 -2.9 4.3 -3.2 4.35 -3.65 4.5 -3.85 4.6 -3.9 4.6 -4.1 4.65 Q-4.7 4.9 -4.85 4.4 L-4.2 3.85 -3.5 3.45 -2.9 3.25 Q-3.1 2.6 -3.6 2.15 L-3.65 2.05 -3.4 1.5 -3.35 1.45 -3.3 1.45 -3.25 1.4 Q-2.2 1.3 -1.2 1.75 L-1.05 1.85 M-4.5 -0.3 Q-5.1 -0.8 -4.95 -1.4 L-4.9 -1.55 -4.85 -1.55 -4.65 -1.6 -4.2 -1.35 -4.25 -0.95 -4.35 -0.6 -4.5 -0.35 -4.5 -0.3" fill="#660000" fill-rule="evenodd" stroke="none"/>
  </g>
</svg>
