<?xml version="1.0" encoding="UTF-8" standalone="no"?>
<svg xmlns:xlink="http://www.w3.org/1999/xlink" height="13.45px" width="11.6px" xmlns="http://www.w3.org/2000/svg">
  <g transform="matrix(1.0, 0.0, 0.0, 1.0, 5.8, 6.5)">
    <path d="M4.45 1.4 L4.45 1.5 4.45 1.55 4.55 1.6 Q5.25 2.25 5.5 3.15 L5.3 2.95 5.2 2.9 4.7 2.55 4.4 2.4 4.1 2.2 Q3.75 2.0 3.9 1.65 L4.05 1.4 4.1 1.4 4.15 1.35 4.45 1.4 M-0.2 6.3 L-0.25 6.3 -0.65 5.85 -1.0 5.35 -1.05 5.2 -1.15 4.9 -1.15 4.85 -1.05 4.8 -0.45 4.75 0.2 4.9 0.25 4.9 0.35 4.95 0.6 5.05 0.5 5.25 0.2 5.9 0.1 6.25 -0.2 6.3 M-5.05 3.85 L-5.0 3.7 -4.25 2.4 -4.35 2.2 -4.4 2.1 -4.25 2.0 Q-3.55 1.95 -3.7 2.55 L-4.0 3.05 -4.4 3.55 -4.4 3.6 -4.65 3.75 -4.8 3.85 -5.05 3.85 M-4.75 -0.65 Q-5.3 -1.15 -5.15 -1.7 L-5.1 -1.85 -5.05 -1.85 -4.85 -1.9 -4.4 -1.65 -4.45 -1.25 -4.55 -0.9 -4.7 -0.65 -4.75 -0.65 M-3.25 -3.05 L-3.25 -3.1 -3.35 -3.4 -3.45 -3.65 -3.9 -4.75 -4.0 -5.05 -4.0 -5.35 -3.9 -5.4 -3.9 -5.5 -3.65 -5.6 -1.9 -5.05 -1.75 -5.0 -1.05 -5.0 -0.95 -5.0 -0.45 -5.35 Q0.45 -5.45 1.05 -4.95 L1.5 -4.85 2.15 -4.75 2.95 -4.95 3.3 -5.05 3.55 -5.1 4.45 -5.05 4.5 -5.0 3.95 -4.8 3.4 -4.55 3.0 -4.15 2.95 -4.15 Q2.7 -3.8 2.7 -3.3 L2.7 -3.25 2.3 -3.55 1.5 -4.0 -0.05 -4.2 -0.55 -4.0 Q-0.85 -3.7 -0.65 -3.35 L-0.5 -3.1 -1.15 -2.85 -1.35 -3.2 -1.3 -3.25 -1.2 -3.65 Q-1.4 -4.45 -2.3 -4.35 -3.0 -4.3 -3.15 -3.6 L-3.15 -3.1 -3.25 -3.05 M2.4 -0.2 L2.3 -0.2 2.25 -0.2 1.95 0.0 1.9 0.05 1.45 0.15 Q1.1 0.4 1.1 0.8 L0.75 0.7 Q0.7 -0.05 1.35 -0.55 L2.0 -1.1 Q2.65 -1.1 2.5 -0.5 L2.4 -0.2 M0.0 3.0 L-0.05 2.9 -0.35 2.1 -0.45 1.75 -0.3 1.7 0.15 1.65 -0.6 1.75 -0.8 1.8 -1.2 1.95 -1.2 1.9 Q-1.25 1.1 -0.4 0.9 L-0.25 0.85 0.5 1.0 0.15 0.9 Q0.0 1.15 0.1 1.45 L0.45 1.85 0.25 2.0 Q-0.1 2.4 0.0 2.95 L0.0 3.0 M-2.5 1.15 L-2.95 1.1 -3.2 1.1 -3.45 1.1 -3.5 1.15 -3.55 1.15 -3.6 1.2 -3.75 1.4 -3.9 1.0 Q-4.05 0.4 -3.65 -0.05 -3.15 -0.6 -2.4 -0.75 -1.45 -0.85 -1.0 -0.1 L-0.9 0.05 -1.6 -0.05 Q-2.4 0.1 -2.55 0.9 L-2.5 1.15" fill="#cc66ff" fill-rule="evenodd" stroke="none"/>
    <path d="M4.5 -5.0 L4.55 -4.7 4.5 -4.65 4.15 -4.05 3.4 -2.7 3.3 -2.5 3.7 -1.7 3.8 -1.3 3.8 -1.25 3.75 -1.35 2.65 -1.75 2.55 -1.7 2.5 -1.7 2.5 -1.65 2.45 -1.6 2.4 -1.65 1.8 -1.65 1.7 -1.5 1.4 -3.7 1.4 -3.75 1.55 -3.8 2.1 -3.25 2.2 -3.0 2.4 -2.95 2.7 -3.25 2.7 -3.3 Q2.7 -3.8 2.95 -4.15 L3.0 -4.15 3.4 -4.55 3.95 -4.8 4.5 -5.0 M5.5 3.15 L5.5 3.2 5.4 3.45 4.55 3.55 4.5 3.5 4.45 3.5 3.65 3.65 3.4 3.75 3.35 3.75 2.75 4.1 2.65 4.2 2.3 4.35 2.2 4.7 1.8 5.0 1.9 4.5 1.9 4.4 1.65 4.65 1.65 4.7 1.6 5.15 1.45 5.35 1.4 5.35 1.4 5.4 1.4 5.45 1.35 6.15 1.05 6.6 0.1 6.5 0.2 5.9 0.5 5.25 0.6 5.05 0.35 4.95 0.25 4.9 0.2 4.9 -0.45 4.75 -1.2 4.85 -1.2 4.75 -1.7 4.5 -2.25 4.35 -2.5 4.2 -2.75 3.95 -2.45 3.95 -2.9 3.95 -3.1 4.0 -3.4 4.05 -3.85 4.2 -4.05 4.3 -4.1 4.3 -4.3 4.35 Q-4.9 4.6 -5.05 4.1 L-4.8 3.85 -4.65 3.75 -4.4 3.6 -4.4 3.55 -3.7 3.15 -3.1 2.95 Q-3.3 2.3 -3.8 1.85 L-3.85 1.75 -3.75 1.4 -3.6 1.2 -3.55 1.15 -3.5 1.15 -3.45 1.1 -3.2 1.1 -2.95 1.1 -2.5 1.15 -1.9 1.25 -1.85 1.3 -1.7 1.35 -1.45 1.45 -1.55 2.05 -1.2 1.95 -0.8 1.8 -0.6 1.75 0.15 1.65 -0.3 1.7 -0.45 1.75 -0.35 2.1 -0.05 2.9 0.0 3.0 0.15 3.1 Q0.95 3.25 1.1 2.65 L1.1 2.15 1.05 1.65 1.0 1.5 1.15 1.2 1.2 1.15 1.15 0.8 1.1 0.8 Q1.1 0.4 1.45 0.15 L1.9 0.05 1.95 0.0 2.25 -0.2 2.3 -0.2 2.4 -0.2 Q3.25 -0.1 3.2 0.9 L3.2 1.15 Q3.9 1.1 3.8 1.85 L3.7 2.2 3.7 2.25 4.7 2.55 5.2 2.9 5.3 2.95 5.5 3.15 M-1.15 -2.85 Q-1.15 -2.4 -1.3 -2.1 L-1.5 -1.85 Q-1.8 -1.5 -1.75 -1.0 L-2.05 -1.0 -2.25 -1.0 -2.1 -1.25 -2.2 -1.1 -2.75 -1.35 -2.85 -1.65 -2.85 -1.8 -2.75 -2.15 -2.7 -2.2 -2.7 -2.25 -3.0 -2.7 -3.0 -2.75 -2.95 -3.05 -2.95 -3.1 -2.5 -3.3 -2.3 -3.25 Q-1.95 -3.2 -1.7 -3.5 L-1.45 -3.65 -1.45 -3.5 -1.35 -3.2 -1.15 -2.85 M-1.4 3.35 L-1.35 3.3 -1.4 3.25 -1.4 3.35" fill="#333366" fill-rule="evenodd" stroke="none"/>
    <path d="M3.8 -1.3 L3.7 -1.7 3.3 -2.5 3.4 -2.7 4.15 -4.05 4.5 -4.65 4.55 -4.7 4.5 -5.0 4.45 -5.05 3.55 -5.1 3.3 -5.05 2.95 -4.95 2.15 -4.75 1.5 -4.85 1.05 -4.95 Q0.45 -5.45 -0.45 -5.35 L-0.95 -5.0 -1.05 -5.0 -1.75 -5.0 -1.9 -5.05 -3.65 -5.6 -3.9 -5.5 -4.0 -5.35 -4.0 -5.05 -3.9 -4.75 -3.45 -3.65 -3.35 -3.4 -3.25 -3.1 -3.25 -3.05 -3.3 -2.9 -3.3 -2.85 -4.2 -1.55 -4.4 -1.65 -4.85 -1.9 -5.05 -1.85 -5.1 -1.85 -5.15 -1.7 Q-5.3 -1.15 -4.75 -0.65 L-4.7 -0.6 -4.75 -0.25 -4.75 0.1 -4.75 0.65 -4.7 1.05 -4.4 2.1 -4.35 2.2 -4.25 2.4 -5.0 3.7 -5.05 3.85 -5.05 4.1 Q-4.9 4.6 -4.3 4.35 L-4.1 4.3 -4.05 4.3 -3.85 4.2 -3.4 4.05 -3.1 4.0 -2.9 3.95 -2.45 3.95 -2.75 3.95 -2.5 4.2 -2.25 4.35 -1.7 4.5 -1.2 4.75 -1.2 4.85 -1.05 5.2 -1.0 5.35 -0.65 5.85 -0.25 6.3 -0.2 6.3 0.0 6.45 0.1 6.5 1.05 6.6 1.35 6.15 1.4 5.45 1.4 5.4 1.45 5.35 1.6 5.15 1.65 4.7 1.65 4.65 1.9 4.4 1.9 4.5 1.8 5.0 2.2 4.7 2.3 4.35 2.65 4.2 2.75 4.1 3.35 3.75 3.4 3.75 3.65 3.65 4.45 3.5 4.5 3.5 4.55 3.55 5.4 3.45 5.5 3.2 5.5 3.15 Q5.25 2.25 4.55 1.6 L4.45 1.55 4.45 1.5 4.45 1.4 4.4 1.4 Q4.65 0.05 3.85 -1.2 L3.8 -1.3 M-3.0 4.55 L-3.35 4.55 -3.4 4.6 -4.0 4.65 -4.2 4.75 -4.2 4.7 -4.5 4.75 -4.55 4.7 -4.65 4.75 -4.9 4.85 -4.9 4.9 -5.15 4.85 -5.3 4.8 -5.55 4.55 -5.15 3.2 -4.55 2.35 -4.85 1.7 Q-5.25 0.8 -5.05 -0.25 L-5.05 -0.55 -5.75 -1.75 -5.8 -2.15 -4.85 -2.2 -4.3 -2.1 -3.75 -2.75 -4.2 -4.35 -4.5 -5.35 Q-4.75 -5.8 -4.55 -6.2 L-4.35 -6.45 -4.3 -6.5 -2.35 -5.75 -1.5 -5.4 -1.05 -5.65 -0.25 -5.6 1.25 -5.4 2.05 -5.15 2.65 -5.45 4.45 -5.8 4.75 -5.6 4.9 -4.95 4.4 -3.35 3.95 -1.95 4.4 -1.05 4.75 0.85 5.05 1.35 5.7 2.65 5.8 3.5 5.65 3.9 4.6 4.0 3.7 3.95 2.8 4.4 2.7 4.4 2.45 4.55 1.05 6.8 0.85 6.95 Q-0.25 7.0 -1.05 6.2 L-2.25 4.9 -2.4 4.7 -2.8 4.6 -2.95 4.5 -3.0 4.55 M-1.4 3.35 L-1.4 3.25 -1.35 3.3 -1.4 3.35" fill="#000000" fill-rule="evenodd" stroke="none"/>
    <path d="M3.85 -1.2 Q4.65 0.05 4.4 1.4 L4.45 1.4 4.15 1.35 4.1 1.4 4.05 1.4 3.9 1.65 Q3.75 2.0 4.1 2.2 L4.4 2.4 4.7 2.55 3.7 2.25 3.7 2.2 3.8 1.85 Q3.9 1.1 3.2 1.15 L3.2 0.9 Q3.25 -0.1 2.4 -0.2 L2.5 -0.5 Q2.65 -1.1 2.0 -1.1 L1.35 -0.55 Q0.7 -0.05 0.75 0.7 L1.1 0.8 1.15 0.8 1.2 1.15 1.15 1.2 1.0 1.5 1.05 1.65 1.1 2.15 1.1 2.65 Q0.95 3.25 0.15 3.1 L0.0 3.0 0.0 2.95 Q-0.1 2.4 0.25 2.0 L0.45 1.85 0.1 1.45 Q0.0 1.15 0.15 0.9 L0.5 1.0 -0.25 0.85 -0.4 0.9 Q-1.25 1.1 -1.2 1.9 L-1.2 1.95 -1.55 2.05 -1.45 1.45 -1.7 1.35 -1.85 1.3 -1.9 1.25 -2.5 1.15 -2.55 0.9 Q-2.4 0.1 -1.6 -0.05 L-0.9 0.05 -1.0 -0.1 Q-1.45 -0.85 -2.4 -0.75 -3.15 -0.6 -3.65 -0.05 -4.05 0.4 -3.9 1.0 L-3.75 1.4 -3.85 1.75 -3.8 1.85 Q-3.3 2.3 -3.1 2.95 L-3.7 3.15 -4.4 3.55 -4.0 3.05 -3.7 2.55 Q-3.55 1.95 -4.25 2.0 L-4.4 2.1 -4.7 1.05 -4.75 0.65 -4.75 0.1 -4.75 -0.25 -4.7 -0.6 -4.7 -0.65 -4.55 -0.9 -4.45 -1.25 -4.4 -1.65 -4.2 -1.55 -3.3 -2.85 -3.3 -2.9 -3.25 -3.05 -3.15 -3.1 -3.15 -3.6 Q-3.0 -4.3 -2.3 -4.35 -1.4 -4.45 -1.2 -3.65 L-1.3 -3.25 -1.35 -3.2 -1.45 -3.5 -1.45 -3.65 -1.7 -3.5 Q-1.95 -3.2 -2.3 -3.25 L-2.5 -3.3 -2.95 -3.1 -2.95 -3.05 -3.0 -2.75 -3.0 -2.7 -2.7 -2.25 -2.7 -2.2 -2.75 -2.15 -2.85 -1.8 -2.85 -1.65 -2.75 -1.35 -2.2 -1.1 -2.1 -1.25 -2.25 -1.0 -2.05 -1.0 -1.75 -1.0 Q-1.8 -1.5 -1.5 -1.85 L-1.3 -2.1 Q-1.15 -2.4 -1.15 -2.85 L-0.5 -3.1 -0.65 -3.35 Q-0.85 -3.7 -0.55 -4.0 L-0.05 -4.2 1.5 -4.0 2.3 -3.55 2.7 -3.25 2.4 -2.95 2.2 -3.0 2.1 -3.25 1.55 -3.8 1.4 -3.75 1.4 -3.7 1.7 -1.5 1.8 -1.65 2.4 -1.65 2.45 -1.6 2.5 -1.65 2.5 -1.7 2.55 -1.7 2.65 -1.75 3.75 -1.35 3.8 -1.25 3.85 -1.2 M0.1 6.5 L0.0 6.45 -0.2 6.3 0.1 6.25 0.2 5.9 0.1 6.5 M-1.05 5.2 L-1.2 4.85 -0.45 4.75 -1.05 4.8 -1.15 4.85 -1.15 4.9 -1.05 5.2 M-5.05 4.1 L-5.05 3.85 -4.8 3.85 -5.05 4.1 M-4.0 -5.35 L-3.9 -5.5 -3.9 -5.4 -4.0 -5.35" fill="#0033cc" fill-rule="evenodd" stroke="none"/>
    <path d="M3.8 -1.3 L3.85 -1.2 3.8 -1.25 3.8 -1.3 M-4.7 -0.6 L-4.75 -0.65 -4.7 -0.65 -4.7 -0.6" fill="#660000" fill-rule="evenodd" stroke="none"/>
    <path d="M-3.0 4.55 L-2.95 4.5 -2.8 4.6 -3.0 4.55" fill="#ff3300" fill-rule="evenodd" stroke="none"/>
    <path d="M3.7 2.2 L3.7 2.25 3.7 2.2" fill="#993366" fill-rule="evenodd" stroke="none"/>
    <path d="M1.65 4.65 L1.65 4.7 1.65 4.65 M1.45 5.35 L1.4 5.4 1.4 5.35 1.45 5.35" fill="#993300" fill-rule="evenodd" stroke="none"/>
  </g>
</svg>
