<?xml version="1.0" encoding="UTF-8" standalone="no"?>
<svg xmlns:xlink="http://www.w3.org/1999/xlink" height="11.05px" width="9.2px" xmlns="http://www.w3.org/2000/svg">
  <g transform="matrix(1.0, 0.0, 0.0, 1.0, 4.3, 4.05)">
    <path d="M1.8 -3.75 L2.6 -3.25 2.75 -3.15 3.05 -2.8 3.8 -1.8 3.9 -0.9 3.9 -0.85 3.95 -0.4 4.7 0.55 Q5.25 2.2 4.45 3.8 L4.0 4.1 3.7 5.0 Q2.95 6.05 1.7 6.6 L-0.85 6.8 Q-2.3 6.25 -3.05 4.95 L-3.15 4.7 -3.2 4.45 -3.2 4.3 -3.65 3.95 -4.25 2.6 -4.2 1.4 -4.2 1.35 -4.1 1.1 Q-3.85 0.15 -3.25 -0.5 -3.0 -0.8 -3.05 -1.2 L-2.65 -1.95 -2.4 -2.4 -1.5 -3.3 -1.4 -3.35 -1.3 -3.45 -0.55 -3.85 -0.2 -4.0 -0.15 -4.0 0.0 -4.05 1.1 -4.0 1.2 -3.95 1.25 -4.0 1.3 -4.0 1.4 -3.95 1.8 -3.75 M0.85 -3.55 L0.8 -3.55 0.7 -3.55 0.3 -3.6 0.25 -3.55 0.15 -3.55 -0.25 -3.45 -0.3 -3.45 -0.4 -3.45 Q-1.1 -3.3 -1.6 -2.8 L-1.65 -2.75 -1.75 -2.65 -1.9 -2.4 -2.3 -1.75 -2.45 -1.45 -2.65 -0.7 -2.7 -0.5 -2.85 0.25 -2.85 0.35 -2.85 0.45 -2.9 0.6 -2.9 1.45 -2.9 1.95 -2.9 2.55 -2.85 3.0 -2.85 3.35 -2.8 3.8 -2.75 4.0 -2.7 4.3 -2.65 4.5 -2.6 4.6 -2.55 4.9 Q-2.2 5.75 -1.45 6.05 L-0.7 6.3 0.0 6.35 Q1.2 6.4 2.3 5.85 L2.5 5.75 Q3.2 4.95 3.5 3.95 L3.75 2.95 3.75 2.8 3.8 1.0 3.7 0.25 3.7 0.2 3.7 -0.55 3.5 -1.5 3.45 -1.55 3.4 -1.7 2.9 -2.35 2.55 -2.75 2.2 -3.0 0.85 -3.55 M4.6 1.7 L4.35 0.75 4.0 0.2 4.05 2.05 4.05 3.0 4.1 3.55 4.05 3.75 4.15 3.7 4.3 3.35 4.6 2.0 4.6 1.7 M-3.35 1.9 L-3.35 1.85 -3.35 1.65 -3.35 1.45 -3.35 1.4 -3.35 1.3 -3.35 0.7 -3.35 0.55 -3.3 0.5 -3.3 0.35 -3.4 0.35 -3.45 0.35 -3.7 0.55 -3.8 0.75 -3.85 0.9 -3.9 1.0 -4.0 1.5 -4.0 1.7 -4.0 1.85 -4.0 2.25 -3.85 2.8 -3.25 3.85 -3.3 2.8 -3.3 2.75 -3.3 2.6 -3.3 2.45 -3.35 1.9" fill="#000000" fill-rule="evenodd" stroke="none"/>
    <path d="M2.75 -3.15 L2.6 -3.25 1.8 -3.75 2.5 -3.35 2.75 -3.15" fill="#99ffff" fill-rule="evenodd" stroke="none"/>
    <path d="M0.85 -3.55 L2.2 -3.0 2.55 -2.75 2.9 -2.35 3.4 -1.7 3.45 -1.55 3.5 -1.5 3.7 -0.55 3.7 0.2 3.7 0.25 3.8 1.0 3.75 2.8 3.75 2.95 3.5 3.95 Q3.2 4.95 2.5 5.75 L2.3 5.85 Q1.2 6.4 0.0 6.35 L-0.7 6.3 -1.45 6.05 Q-2.2 5.75 -2.55 4.9 L-2.6 4.6 -2.65 4.5 -2.7 4.3 -2.75 4.0 -2.8 3.8 -2.85 3.35 -2.85 3.0 -2.9 2.55 -2.9 1.95 -2.9 1.45 -2.9 0.6 -2.85 0.45 -2.85 0.35 -2.85 0.25 -2.7 -0.5 -2.65 -0.7 -2.45 -1.45 -2.3 -1.75 -1.9 -2.4 -1.75 -2.65 -1.65 -2.75 -1.6 -2.8 Q-1.1 -3.3 -0.4 -3.45 L-0.3 -3.45 -0.25 -3.45 0.15 -3.55 0.25 -3.55 0.3 -3.6 0.7 -3.55 0.8 -3.55 0.85 -3.55 M-2.2 -0.15 Q-2.45 0.95 -2.2 2.25 -2.1 2.9 -1.55 3.25 0.05 4.2 1.2 2.6 2.25 0.9 1.85 -1.1 L1.8 -1.3 1.8 -1.35 1.5 -2.1 Q0.95 -3.05 -0.3 -2.9 L-1.0 -2.35 -1.1 -2.3 -1.1 -2.25 Q-1.95 -1.3 -2.2 -0.15 M4.05 2.05 L4.0 0.2 4.35 0.75 4.6 1.7 4.45 2.0 Q4.4 2.15 4.25 2.1 L4.05 2.05 M-4.0 2.25 L-4.0 1.85 -4.0 1.7 -4.0 1.5 -3.9 1.0 -3.85 0.9 -3.8 0.75 -3.7 0.55 -3.45 0.35 -3.4 0.35 -3.3 0.35 -3.3 0.5 -3.35 0.55 -3.35 0.7 -3.35 1.3 -3.35 1.4 -3.35 1.45 -3.35 1.65 -3.35 1.85 -3.35 1.9 -3.55 2.2 -4.0 2.25" fill="#e3b18b" fill-rule="evenodd" stroke="none"/>
    <path d="M-1.0 -2.35 L-0.3 -2.9 Q0.95 -3.05 1.5 -2.1 L1.8 -1.35 1.8 -1.3 1.85 -1.1 Q2.25 0.9 1.2 2.6 0.05 4.2 -1.55 3.25 -2.1 2.9 -2.2 2.25 -2.45 0.95 -2.2 -0.15 L-2.05 0.7 -1.7 1.0 -1.55 1.05 -1.35 0.35 -0.55 -0.9 0.05 -1.7 Q-0.05 -2.35 -0.65 -2.35 L-1.0 -2.3 -1.0 -2.35" fill="#edcdb6" fill-rule="evenodd" stroke="none"/>
    <path d="M4.6 2.0 L4.3 3.35 4.15 3.7 4.05 3.75 4.1 3.55 4.05 3.0 4.05 2.05 4.25 2.1 Q4.4 2.15 4.45 2.0 L4.6 2.0 M-4.0 2.25 L-3.55 2.2 -3.35 1.9 -3.3 2.45 -3.3 2.6 -3.3 2.75 -3.3 2.8 -3.25 3.85 -3.85 2.8 -4.0 2.25" fill="#ad7a3f" fill-rule="evenodd" stroke="none"/>
    <path d="M4.6 1.7 L4.6 2.0 4.45 2.0 4.6 1.7" fill="#7c00a6" fill-rule="evenodd" stroke="none"/>
    <path d="M-1.1 -2.3 L-1.0 -2.35 -1.0 -2.3 -1.1 -2.3" fill="#9900cc" fill-rule="evenodd" stroke="none"/>
    <path d="M-2.2 -0.15 Q-1.95 -1.3 -1.1 -2.25 L-1.1 -2.3 -1.0 -2.3 -0.65 -2.35 Q-0.05 -2.35 0.05 -1.7 L-0.55 -0.9 -1.35 0.35 -1.55 1.05 -1.7 1.0 -2.05 0.7 -2.2 -0.15" fill="#ffffff" fill-rule="evenodd" stroke="none"/>
  </g>
</svg>
