<?xml version="1.0" encoding="UTF-8" standalone="no"?>
<svg xmlns:xlink="http://www.w3.org/1999/xlink" height="12.25px" width="10.5px" xmlns="http://www.w3.org/2000/svg">
  <g transform="matrix(1.0, 0.0, 0.0, 1.0, 5.25, 6.7)">
    <path d="M1.7 -6.7 Q3.25 -6.55 4.2 -5.3 L4.55 -4.35 4.55 -4.3 4.6 -4.15 Q4.9 -2.85 4.55 -1.6 L4.6 -1.5 4.95 -0.8 5.2 0.2 5.25 0.5 Q5.35 1.5 4.85 2.35 L4.5 2.8 3.45 3.6 3.3 3.65 Q2.6 4.65 1.4 5.15 L-1.15 5.35 Q-2.55 4.8 -3.35 3.55 -3.35 3.1 -3.7 3.0 L-3.7 2.95 -3.8 2.95 -3.85 2.95 -4.0 2.95 -4.55 2.75 -4.85 2.3 -5.0 2.0 Q-5.5 1.15 -5.0 0.25 L-4.9 0.0 -4.8 -0.15 -4.8 -0.6 -4.65 -1.0 -4.45 -1.5 -4.4 -1.55 -4.2 -1.65 Q-4.65 -2.5 -4.7 -3.5 -4.75 -4.2 -4.35 -4.7 L-4.3 -4.85 -4.25 -4.9 Q-3.7 -5.6 -2.8 -5.85 L-0.9 -6.15 0.0 -6.15 Q0.3 -6.5 0.95 -6.65 L1.7 -6.7 M3.25 -5.6 L3.3 -5.6 2.6 -6.05 1.3 -6.35 1.1 -6.35 Q0.75 -6.3 0.5 -6.05 L0.35 -5.8 0.25 -5.7 0.25 -5.65 0.15 -5.5 0.65 -5.45 0.8 -5.45 0.9 -5.4 0.95 -5.45 1.0 -5.45 1.1 -5.4 1.45 -5.25 1.5 -5.2 2.3 -4.7 2.45 -4.6 2.75 -4.25 3.4 -3.4 3.5 -3.25 Q3.45 -2.8 3.55 -2.4 L3.65 -2.35 3.9 -2.2 4.45 -1.75 4.45 -3.1 4.35 -3.75 4.15 -4.4 3.6 -5.25 3.25 -5.6 M3.45 -0.85 L3.4 -1.1 3.4 -1.2 3.4 -1.25 3.4 -1.35 3.4 -1.9 3.4 -2.0 3.4 -2.15 3.4 -2.2 3.35 -2.35 3.35 -2.45 3.2 -2.95 3.15 -3.0 3.1 -3.15 2.95 -3.4 2.6 -3.8 2.55 -3.9 2.5 -3.9 2.25 -4.2 1.9 -4.45 1.2 -4.85 1.1 -4.85 0.9 -4.9 0.85 -4.95 0.75 -4.95 0.55 -5.0 0.5 -5.0 0.4 -5.0 0.35 -5.0 0.3 -5.0 0.0 -5.05 -0.05 -5.0 -0.15 -5.0 -0.4 -4.95 -0.55 -4.9 -0.6 -4.9 -0.7 -4.9 -1.1 -4.75 -1.2 -4.7 -1.45 -4.6 -1.8 -4.35 -1.9 -4.25 -1.95 -4.2 -2.05 -4.1 -2.2 -3.85 -2.55 -3.35 -2.6 -3.2 -2.75 -2.9 -2.95 -2.15 -3.0 -1.95 -3.1 -1.4 -3.15 -1.25 -3.15 -1.2 -3.15 -1.1 -3.15 -1.0 -3.2 -0.85 -3.2 -0.65 -3.2 -0.55 -3.2 -0.5 -3.2 -0.2 -3.2 0.0 -3.2 0.5 -3.2 1.1 -3.15 1.55 -3.15 1.6 -3.15 1.9 -3.15 2.0 -3.1 2.35 -3.05 2.55 -3.05 2.65 -3.0 2.75 -3.0 2.85 -2.95 3.05 -2.9 3.15 -2.85 3.45 -2.45 4.1 -2.0 4.45 -1.9 4.5 -1.75 4.6 -1.0 4.85 -0.3 4.9 1.3 4.7 1.45 4.65 1.6 4.6 2.0 4.4 2.2 4.3 2.5 3.9 2.85 3.4 2.85 3.35 2.95 3.2 3.05 2.9 3.15 2.75 3.2 2.5 3.25 2.4 3.25 2.3 3.4 1.85 3.45 1.5 3.45 1.4 3.45 1.35 3.5 0.2 3.5 -0.35 3.5 -0.5 3.45 -0.8 3.45 -0.85 M4.9 -0.1 L4.5 -1.25 4.45 -1.3 4.4 -1.4 Q4.1 -1.9 3.6 -2.05 L3.65 -1.85 3.65 -1.8 3.65 -1.4 3.65 -1.1 3.65 -1.05 3.65 -0.95 3.65 -0.8 3.65 -0.75 3.7 -0.4 3.7 -0.35 3.7 -0.2 3.7 0.0 3.7 0.05 3.75 0.4 3.75 0.55 3.75 0.6 3.75 0.85 3.75 1.2 3.75 1.3 3.75 1.5 3.7 2.05 3.65 2.35 3.65 2.45 3.65 2.5 3.6 2.6 3.6 2.95 3.5 3.25 4.35 2.45 4.6 2.0 4.9 1.4 4.95 0.8 4.9 -0.05 4.9 -0.1 M-4.35 -3.75 Q-4.4 -2.8 -3.95 -1.9 L-3.8 -1.65 -3.65 -1.6 -3.55 -1.55 -3.55 -1.95 -3.5 -2.0 -3.45 -2.05 -3.35 -2.65 -2.95 -3.4 -2.7 -3.85 -1.8 -4.75 -1.7 -4.8 -1.6 -4.9 -1.45 -4.95 -1.35 -5.05 -0.85 -5.3 -0.5 -5.45 -0.45 -5.45 -0.35 -5.5 -0.3 -5.65 -0.2 -5.85 -1.05 -5.9 -2.3 -5.65 -2.5 -5.6 Q-3.5 -5.35 -4.1 -4.65 L-4.2 -4.45 -4.35 -3.8 -4.35 -3.75 M-3.65 -0.65 L-3.75 -0.7 -3.8 -0.7 -3.8 -0.8 -3.9 -1.15 -4.0 -1.35 -4.05 -1.3 -4.35 -1.0 -4.4 -0.8 -4.55 -0.2 -4.55 -0.1 -4.6 0.25 -4.9 1.2 -4.75 1.75 -4.65 2.0 -4.55 2.25 -4.4 2.45 -3.8 2.6 -3.95 2.65 -3.75 2.35 -3.55 2.2 -3.55 2.05 -3.55 1.85 -3.6 1.65 -3.6 1.6 -3.6 1.35 -3.6 1.3 -3.6 1.15 -3.6 1.0 -3.65 0.45 -3.65 0.4 -3.65 0.2 -3.65 0.1 -3.65 0.0 -3.65 -0.05 -3.65 -0.15 -3.65 -0.25 -3.65 -0.35 -3.65 -0.45 -3.65 -0.5 -3.65 -0.6 -3.65 -0.65 -3.65 -0.95 -3.65 -1.15 -3.65 -0.95 -3.65 -0.9 -3.65 -0.7 -3.65 -0.65 M-3.6 -1.4 L-3.6 -1.55 -3.65 -1.35 -3.6 -1.4" fill="#000000" fill-rule="evenodd" stroke="none"/>
    <path d="M-3.65 -0.65 L-3.65 -0.7 -3.65 -0.9 -3.65 -0.95 -3.65 -1.15 -3.65 -0.95 -3.65 -0.65 -3.65 -0.6 -3.65 -0.5 -3.65 -0.45 -3.65 -0.35 -3.65 -0.25 -3.65 -0.15 -3.65 -0.05 -3.65 0.0 -3.65 -0.05 -3.65 -0.35 -3.65 -0.65 M-3.6 -1.4 L-3.65 -1.35 -3.6 -1.55 -3.6 -1.4 M-3.65 0.05 L-3.65 0.0 -3.65 0.05" fill="#e3b18b" fill-rule="evenodd" stroke="none"/>
    <path d="M2.45 -4.6 L2.3 -4.7 1.5 -5.2 2.2 -4.8 2.45 -4.6" fill="#99ffff" fill-rule="evenodd" stroke="none"/>
    <path d="M2.35 -2.65 L2.55 -2.4 2.65 -2.2 2.7 -2.05 2.75 -1.6 2.5 -0.7 2.15 -0.15 2.0 -0.1 1.65 -0.2 1.4 -0.5 1.25 -0.7 1.4 -0.85 1.55 -1.0 Q1.85 -1.45 1.8 -2.0 L1.8 -2.15 Q1.6 -2.75 2.0 -2.95 L2.05 -2.9 2.35 -2.65 M1.0 -1.05 L0.75 -1.2 0.8 -1.25 0.9 -1.35 1.0 -1.05 M0.7 1.75 L1.2 1.65 1.15 2.35 1.1 2.55 1.1 2.6 1.15 2.65 1.25 2.7 1.4 2.85 1.65 3.0 1.6 4.5 1.6 4.6 1.45 4.65 1.3 4.7 1.3 4.65 1.2 4.4 1.2 4.1 1.3 3.55 1.4 3.35 Q1.15 3.1 0.9 2.95 L0.4 3.6 -0.4 3.65 Q-0.5 2.6 0.3 1.9 L0.4 1.85 0.45 1.8 0.7 1.75 M-1.1 -4.75 L-0.7 -4.9 -0.6 -4.9 -0.55 -4.9 -0.4 -4.95 -0.15 -5.0 -0.05 -5.0 0.0 -5.05 0.3 -5.0 0.35 -5.0 0.4 -5.0 0.5 -5.0 0.55 -5.0 0.75 -4.95 0.85 -4.95 0.9 -4.9 0.9 -4.85 1.0 -4.8 1.5 -4.15 1.8 -3.3 1.85 -3.0 1.45 -3.1 1.4 -3.1 0.95 -2.55 0.85 -1.75 0.8 -1.75 0.65 -1.75 0.2 -1.6 0.15 -1.6 0.05 -1.5 0.0 -1.5 0.0 -1.45 -0.05 -1.8 -0.1 -1.95 0.0 -2.15 -0.15 -3.05 -0.15 -3.3 Q0.0 -3.95 -0.7 -3.95 L-0.75 -4.0 -0.8 -4.15 -0.9 -4.6 -1.1 -4.75 M-3.15 -1.25 L-3.1 -1.4 -3.0 -1.95 -2.95 -2.15 -2.75 -2.9 -2.6 -3.2 -2.55 -3.35 -2.2 -3.85 -2.05 -4.1 -1.95 -4.2 -1.9 -4.25 -1.8 -4.35 -1.45 -4.6 -1.45 -4.55 -1.45 -4.45 -1.25 -3.8 -1.3 -3.75 -1.3 -3.8 -1.4 -3.75 -1.4 -3.7 Q-2.25 -2.75 -2.5 -1.6 L-2.5 -1.4 -2.5 -1.2 -3.1 -1.35 -3.15 -1.25 M-0.9 3.25 L-0.95 3.25 -1.15 3.25 -1.05 3.25 -1.0 3.25 -1.0 3.2 -0.95 3.15 -1.05 3.0 -0.9 3.25 M-4.75 1.75 L-4.9 1.2 -4.6 0.25 -4.55 -0.1 -4.4 0.1 -4.3 0.2 -4.15 0.2 -4.3 0.55 -4.35 0.7 Q-4.8 1.25 -4.55 1.8 L-4.65 1.55 -4.75 1.75 M-3.95 0.2 L-3.9 0.2 -3.8 0.15 -3.65 0.0 -3.65 0.05 -3.65 0.2 -3.8 0.2 -3.8 0.4 -3.95 0.2 M-3.6 1.3 L-3.65 1.15 -3.75 0.95 -3.8 0.85 -3.8 0.65 -3.65 0.65 -3.6 1.3" fill="#99cc99" fill-rule="evenodd" stroke="none"/>
    <path d="M-3.65 0.0 L-3.65 0.1 -3.65 0.2 -3.65 0.05 -3.65 0.0 M-3.65 0.45 L-3.6 1.0 -3.6 1.15 -3.6 1.3 -3.65 0.65 -3.65 0.45" fill="#ad7a3f" fill-rule="evenodd" stroke="none"/>
    <path d="M-1.3 -3.75 L-1.4 -3.75 -1.3 -3.8 -1.3 -3.75" fill="#9900cc" fill-rule="evenodd" stroke="none"/>
    <path d="M2.35 -2.65 L2.65 -2.8 2.9 -3.25 2.95 -3.4 3.1 -3.15 3.15 -3.0 3.2 -2.95 3.35 -2.45 3.35 -2.35 3.4 -2.2 3.4 -2.15 3.4 -2.0 3.4 -1.9 3.4 -1.35 3.4 -1.25 3.4 -1.2 3.4 -1.1 3.45 -0.85 3.4 -0.85 3.35 -0.8 3.35 -0.75 3.15 -0.55 2.7 0.5 2.65 0.8 2.45 0.85 1.7 1.0 1.5 1.05 1.35 1.25 1.25 1.4 1.15 1.5 1.2 1.65 0.7 1.75 0.7 1.2 0.85 1.0 Q0.45 0.6 -0.2 0.7 L-0.3 0.8 -0.5 0.95 -0.55 1.0 -0.55 0.9 -0.5 0.9 -0.5 0.7 -0.7 0.0 -0.7 -0.2 -0.7 -0.3 -0.2 -0.9 -0.15 -1.0 0.1 -1.0 0.35 -1.05 0.8 -1.25 0.75 -1.2 1.0 -1.05 1.1 -0.7 1.15 -0.6 1.25 -0.7 1.4 -0.5 1.65 -0.2 2.0 -0.1 2.15 -0.15 2.5 -0.7 2.75 -1.6 2.7 -2.05 2.65 -2.2 2.55 -2.4 2.35 -2.65 M2.5 -3.9 L2.45 -3.6 2.05 -3.0 2.05 -2.9 2.0 -2.95 1.85 -3.0 1.8 -3.3 1.5 -4.15 1.0 -4.8 0.9 -4.85 0.9 -4.9 0.85 -4.95 0.9 -4.9 1.1 -4.85 1.2 -4.85 1.9 -4.45 2.25 -4.2 2.5 -3.9 M-1.1 -4.75 L-0.9 -4.6 -0.8 -4.15 -0.75 -4.0 -0.7 -3.95 Q0.0 -3.95 -0.15 -3.3 L-0.15 -3.05 0.0 -2.15 -0.1 -1.95 -0.05 -1.8 0.0 -1.45 0.0 -1.5 0.05 -1.5 0.15 -1.6 0.2 -1.6 0.1 -1.45 Q-0.45 -1.45 -0.3 -2.05 L-0.35 -3.15 -0.45 -3.35 -0.35 -3.45 -0.95 -3.8 -1.05 -3.8 -1.15 -4.05 -1.25 -4.5 -1.25 -4.65 -1.2 -4.7 -1.1 -4.75 M-3.15 1.9 L-3.15 1.6 -3.15 1.55 -3.2 1.1 -3.2 0.5 -3.2 0.0 -3.2 -0.2 -3.2 -0.5 -3.2 -0.55 -3.2 -0.65 -3.2 -0.85 -3.15 -1.0 -3.15 -1.1 -3.15 -1.2 -3.15 -1.25 -3.1 -1.35 -2.5 -1.2 -2.35 -0.75 -2.15 -0.5 -2.0 -0.45 -1.85 -0.4 -1.85 -0.45 -1.8 -0.5 -1.65 -0.6 -1.65 -0.7 -1.65 -0.75 -1.3 -1.8 -1.05 -2.1 -0.65 -2.85 -0.5 -2.55 -0.6 -2.35 -0.75 -1.55 -1.15 -1.1 -1.25 -0.8 Q-1.35 -0.45 -1.0 -0.2 L-1.0 -0.15 -1.05 -0.05 -1.05 0.05 -1.1 0.3 -0.95 0.75 -0.65 1.1 -0.55 1.0 Q-1.0 1.35 -1.1 1.85 L-1.5 2.15 -1.65 2.25 -2.1 2.4 -2.85 2.15 -3.0 2.05 -3.05 2.0 -3.05 1.95 -3.1 1.9 -3.15 1.9 M0.3 1.9 L0.35 1.85 0.45 1.8 0.4 1.85 0.3 1.9 M-3.6 1.6 L-3.6 1.65 -3.55 1.85 -3.55 2.05 -3.55 2.2 -3.75 2.35 -3.95 2.65 -3.8 2.6 -4.4 2.45 -4.55 2.25 -4.65 2.0 -4.75 1.75 -4.65 1.55 -4.55 1.8 -4.45 2.0 -4.25 2.0 -4.15 1.9 -4.05 1.6 -4.0 1.55 -3.8 1.4 -3.8 1.85 -3.6 1.6 M-4.1 0.15 L-4.1 -0.3 -4.05 0.15 -4.1 0.15" fill="#999933" fill-rule="evenodd" stroke="none"/>
    <path d="M1.25 -0.7 L1.15 -0.6 1.1 -0.7 1.0 -1.05 0.9 -1.35 0.9 -1.4 0.85 -1.75 0.95 -2.55 1.4 -3.1 1.45 -3.1 1.85 -3.0 2.0 -2.95 Q1.6 -2.75 1.8 -2.15 L1.8 -2.0 Q1.85 -1.45 1.55 -1.0 L1.4 -0.85 1.25 -0.7 M-0.55 1.0 L-0.5 0.95 -0.3 0.8 -0.2 0.7 Q0.45 0.6 0.85 1.0 L0.7 1.2 0.7 1.75 0.45 1.8 0.35 1.85 0.3 1.9 Q-0.5 2.6 -0.4 3.65 L-0.9 3.3 -0.9 3.25 -1.05 3.0 -1.1 2.85 -1.1 2.8 -1.1 2.75 -1.15 2.25 -1.15 2.1 -1.1 1.85 Q-1.0 1.35 -0.55 1.0 M-1.4 -3.75 L-1.3 -3.75 -1.25 -3.8 -1.15 -3.8 -1.0 -3.6 -0.6 -2.95 -0.5 -3.15 -0.6 -2.95 -0.65 -2.85 -1.05 -2.1 -1.3 -1.8 -1.65 -0.75 -1.65 -0.7 -1.65 -0.6 -1.8 -0.5 -1.85 -0.45 -1.85 -0.4 -2.0 -0.45 -2.15 -0.5 -2.35 -0.75 -2.5 -1.2 -2.5 -1.4 -2.5 -1.6 Q-2.25 -2.75 -1.4 -3.7 L-1.4 -3.75 M-4.55 -0.1 L-4.55 -0.2 -4.4 -0.8 -4.35 -1.0 -4.05 -1.3 -4.0 -1.35 -3.9 -1.15 -3.8 -0.8 -3.8 -0.7 -3.75 -0.7 -3.65 -0.65 -3.65 -0.35 -3.65 -0.05 -3.65 0.0 -3.8 0.15 -3.9 0.2 -3.95 0.2 -4.1 0.15 -4.15 0.2 -4.3 0.2 -4.4 0.1 -4.55 -0.1 M-4.1 0.15 L-4.05 0.15 -4.1 -0.3 -4.1 0.15" fill="#99ffcc" fill-rule="evenodd" stroke="none"/>
    <path d="M2.95 -3.4 L2.9 -3.25 2.65 -2.8 2.35 -2.65 2.05 -2.9 2.05 -3.0 2.45 -3.6 2.5 -3.9 2.55 -3.9 2.6 -3.8 2.95 -3.4 M0.8 -1.25 L0.35 -1.05 0.1 -1.0 -0.15 -1.0 -0.2 -0.9 -0.7 -0.3 -0.7 -0.2 -0.7 0.0 -0.5 0.7 -0.5 0.9 -0.55 0.9 -0.55 1.0 -0.65 1.1 -0.95 0.75 -1.1 0.3 -1.05 0.05 -1.05 -0.05 -1.0 -0.15 -1.0 -0.2 Q-1.35 -0.45 -1.25 -0.8 L-1.15 -1.1 -0.75 -1.55 -0.6 -2.35 -0.5 -2.55 -0.65 -2.85 -0.6 -2.95 -0.5 -3.15 -0.6 -2.95 -1.0 -3.6 -1.15 -3.8 -1.25 -3.8 -1.45 -4.45 -1.45 -4.55 -1.45 -4.6 -1.2 -4.7 -1.25 -4.65 -1.25 -4.5 -1.15 -4.05 -1.05 -3.8 -0.95 -3.8 -0.35 -3.45 -0.45 -3.35 -0.35 -3.15 -0.3 -2.05 Q-0.45 -1.45 0.1 -1.45 L0.2 -1.6 0.65 -1.75 0.8 -1.75 0.85 -1.75 0.9 -1.4 0.9 -1.35 0.8 -1.25 M2.5 3.9 L2.2 4.3 2.0 4.4 1.6 4.6 1.6 4.5 1.65 3.0 1.4 2.85 1.25 2.7 1.15 2.65 1.1 2.6 1.1 2.55 1.15 2.35 1.55 2.4 1.95 2.55 2.05 2.65 2.35 2.95 2.4 3.05 2.5 3.3 2.5 3.9" fill="#ff0000" fill-rule="evenodd" stroke="none"/>
    <path d="M1.2 1.65 L1.15 1.5 1.25 1.4 1.35 1.25 1.5 1.05 1.7 1.0 2.45 0.85 2.65 0.8 2.7 0.5 3.15 -0.55 3.35 -0.75 3.35 -0.8 3.4 -0.85 3.45 -0.85 3.45 -0.8 3.5 -0.5 3.5 -0.35 3.5 0.2 3.45 1.35 3.45 1.4 3.45 1.5 3.4 1.85 3.25 2.3 3.25 2.4 3.2 2.5 3.15 2.75 3.05 2.9 2.95 3.2 2.85 3.35 2.85 3.4 2.5 3.9 2.5 3.3 2.4 3.05 2.35 2.95 2.05 2.65 1.95 2.55 1.55 2.4 1.15 2.35 1.2 1.65 M1.3 4.7 L-0.3 4.9 -1.0 4.85 -1.75 4.6 -1.9 4.5 -2.0 4.45 -2.45 4.1 -2.85 3.45 -2.9 3.15 -2.95 3.05 -3.0 2.85 -3.0 2.75 -3.05 2.65 -3.05 2.55 -3.1 2.35 -3.15 2.0 -3.15 1.9 -3.1 1.9 -3.05 1.95 -3.05 2.0 -3.0 2.05 -2.85 2.15 -2.1 2.4 -1.65 2.25 -1.5 2.15 -1.1 1.85 -1.15 2.1 -1.15 2.25 -1.1 2.75 -1.1 2.8 -1.1 2.85 -1.05 3.0 -0.95 3.15 -1.0 3.2 -1.0 3.25 -1.05 3.25 -1.15 3.25 -0.95 3.25 -0.9 3.25 -0.9 3.3 -0.4 3.65 0.4 3.6 0.9 2.95 Q1.15 3.1 1.4 3.35 L1.3 3.55 1.2 4.1 1.2 4.4 1.3 4.65 1.3 4.7 M-3.6 1.3 L-3.6 1.35 -3.6 1.6 -3.8 1.85 -3.8 1.4 -4.0 1.55 -4.05 1.6 -4.15 1.9 -4.25 2.0 -4.45 2.0 -4.55 1.8 Q-4.8 1.25 -4.35 0.7 L-4.3 0.55 -4.15 0.2 -4.1 0.15 -3.95 0.2 -3.8 0.4 -3.8 0.65 -3.8 0.85 -3.75 0.95 -3.65 1.15 -3.6 1.3" fill="#996600" fill-rule="evenodd" stroke="none"/>
    <path d="M3.75 0.55 L3.75 0.4 3.7 0.05 3.7 0.0 3.7 -0.2 3.7 -0.35 3.7 -0.4 3.65 -0.75 3.65 -0.8 3.65 -0.95 3.65 -1.05 3.65 -1.1 3.65 -1.4 3.65 -1.8 3.65 -1.85 3.6 -2.05 Q4.1 -1.9 4.4 -1.4 L4.45 -1.3 4.5 -1.25 4.9 -0.1 4.85 -0.2 4.45 0.4 4.4 0.45 4.35 0.5 4.15 0.55 3.9 0.55 3.75 0.55 M-0.3 -5.65 L-2.35 -5.1 -2.9 -4.75 -4.35 -3.75 -4.35 -3.8 -4.2 -4.45 -4.1 -4.65 Q-3.5 -5.35 -2.5 -5.6 L-2.3 -5.65 -1.05 -5.9 -0.2 -5.85 -0.3 -5.65" fill="#999999" fill-rule="evenodd" stroke="none"/>
    <path d="M4.9 -0.1 L4.9 -0.05 4.95 0.8 4.9 1.4 4.6 2.0 4.35 2.45 3.5 3.25 3.6 2.95 3.6 2.6 3.65 2.5 3.65 2.45 3.65 2.35 3.7 2.05 3.75 1.5 3.75 1.3 3.75 1.2 3.75 0.85 3.75 0.6 3.75 0.55 3.9 0.55 4.15 0.55 4.35 0.5 4.4 0.45 4.45 0.4 4.85 -0.2 4.9 -0.1 M-0.3 -5.65 L-0.35 -5.5 -0.45 -5.45 -0.5 -5.45 -0.85 -5.3 -1.35 -5.05 -1.45 -4.95 -1.6 -4.9 -1.7 -4.8 -1.8 -4.75 -2.7 -3.85 -2.95 -3.4 -3.35 -2.65 -3.45 -2.05 -3.5 -2.0 -3.55 -1.95 -3.55 -1.55 -3.65 -1.6 -3.8 -1.65 -3.95 -1.9 Q-4.4 -2.8 -4.35 -3.75 L-2.9 -4.75 -2.35 -5.1 -0.3 -5.65" fill="#666666" fill-rule="evenodd" stroke="none"/>
    <path d="M3.25 -5.6 L3.6 -5.25 4.15 -4.4 3.9 -3.95 3.7 -3.8 3.7 -3.75 3.25 -3.8 3.1 -3.85 3.4 -3.4 2.75 -4.25 2.45 -4.6 2.2 -4.8 1.5 -5.2 1.45 -5.25 1.1 -5.4 1.0 -5.45 0.95 -5.45 0.9 -5.4 0.8 -5.45 0.65 -5.45 0.15 -5.5 0.25 -5.65 0.9 -5.65 1.3 -5.65 1.35 -5.65 3.25 -5.6" fill="#009900" fill-rule="evenodd" stroke="none"/>
    <path d="M0.25 -5.65 L0.25 -5.7 0.35 -5.8 0.5 -6.05 Q0.75 -6.3 1.1 -6.35 L1.3 -6.35 2.6 -6.05 3.3 -5.6 3.25 -5.6 1.35 -5.65 1.3 -5.65 0.9 -5.65 0.25 -5.65" fill="#00ff00" fill-rule="evenodd" stroke="none"/>
    <path d="M4.15 -4.4 L4.35 -3.75 4.45 -3.1 4.45 -1.75 3.9 -2.2 3.65 -2.35 3.55 -2.4 Q3.45 -2.8 3.5 -3.25 L3.4 -3.4 3.1 -3.85 3.25 -3.8 3.7 -3.75 3.7 -3.8 3.9 -3.95 4.15 -4.4" fill="#336600" fill-rule="evenodd" stroke="none"/>
  </g>
</svg>
