<?xml version="1.0" encoding="UTF-8" standalone="no"?>
<svg xmlns:xlink="http://www.w3.org/1999/xlink" height="15.65px" width="11.85px" xmlns="http://www.w3.org/2000/svg">
  <g transform="matrix(1.0, 0.0, 0.0, 1.0, 6.75, 6.3)">
    <path d="M-3.0 -2.65 L-2.1 -3.7 -2.05 -3.75 -1.95 -3.85 -1.85 -3.9 -1.75 -4.0 -1.6 -4.05 -1.15 -4.3 -0.8 -4.5 0.7 -4.5 1.45 -4.05 1.8 -3.8 1.95 -3.7 2.05 -3.6 2.1 -3.6 3.0 -2.35 3.1 -2.15 3.2 -1.3 3.2 -1.35 3.4 -1.45 4.25 -0.85 4.2 -3.1 4.15 -3.25 4.15 -3.35 4.1 -3.75 3.4 -4.75 3.45 -4.75 Q2.6 -5.65 1.35 -5.8 L0.95 -5.75 0.75 -5.8 -0.95 -5.85 Q-2.25 -5.8 -3.25 -5.0 -4.35 -4.2 -4.5 -2.75 L-4.55 -1.8 -4.45 -1.05 -4.3 -1.15 -4.25 -1.15 -4.25 -1.2 -3.5 -1.45 -3.35 -1.4 -3.3 -1.55 -3.3 -1.85 -3.3 -2.05 -3.15 -2.35 -3.15 -2.4 -3.0 -2.65 M0.8 -3.85 L0.6 -3.95 0.5 -3.95 0.15 -4.0 -0.6 -4.0 -0.95 -3.9 -1.7 -3.6 -1.75 -3.55 -2.55 -2.85 -3.05 -1.6 -3.15 -1.0 -3.2 -0.6 -3.25 -0.4 -3.35 0.4 -3.4 2.4 -3.45 2.9 -3.45 3.2 -3.45 3.55 -3.4 4.0 -3.4 4.05 -3.4 4.6 -3.35 4.9 -3.35 5.2 -3.35 5.3 -3.3 5.75 -3.2 6.2 -2.8 7.55 Q-2.15 8.7 -1.25 8.95 L0.25 9.05 1.6 8.3 Q2.3 7.75 2.55 6.95 L2.9 5.4 3.0 5.05 3.1 4.55 3.1 4.35 3.15 3.95 3.2 3.3 3.2 3.1 3.2 3.05 3.2 2.35 3.2 2.1 3.2 2.0 3.2 0.9 2.95 -1.0 2.9 -1.15 2.8 -1.65 2.8 -1.6 2.2 -2.85 2.15 -2.9 1.75 -3.35 0.8 -3.85 M3.45 -0.85 Q3.05 -1.0 3.2 -0.25 L3.4 1.8 3.4 2.15 3.4 2.8 3.4 3.75 3.2 4.35 Q3.0 4.95 3.25 4.95 L4.15 4.2 Q4.65 3.6 4.75 2.8 L4.75 1.45 Q4.7 0.6 4.35 0.0 L3.65 -0.85 Q3.0 -1.4 3.45 -0.85 M4.6 -0.3 L4.8 0.15 Q5.35 1.6 4.95 3.15 4.5 4.55 3.3 5.25 L3.2 5.65 3.2 5.7 2.6 7.55 2.5 7.7 Q2.3 8.35 1.7 8.8 L0.95 9.15 Q-0.25 9.55 -1.35 9.15 L-2.15 8.7 -2.4 8.5 Q-3.3 7.55 -3.55 6.25 L-3.75 5.45 -3.75 5.4 -3.8 5.35 -4.65 4.2 -4.7 4.15 -5.0 3.4 Q-5.45 3.8 -5.4 4.4 L-5.4 5.05 -5.4 5.1 -5.4 5.3 -5.35 5.55 -5.4 5.65 Q-5.4 6.6 -5.55 7.4 L-5.75 7.4 -5.85 7.25 -6.45 4.75 -6.5 4.25 -6.7 3.6 -6.7 3.45 -6.75 2.1 Q-6.85 1.1 -5.8 1.1 L-5.4 1.05 -5.3 1.1 -5.1 0.4 -5.05 0.25 -4.75 -0.5 -4.55 -0.8 -4.7 -1.05 -4.85 -2.65 Q-4.65 -3.95 -3.75 -4.9 L-2.05 -6.0 -0.8 -6.25 2.05 -5.95 3.5 -5.15 Q4.75 -4.2 4.9 -2.5 4.9 -1.4 4.5 -0.45 L4.6 -0.3 M4.2 -0.6 L4.3 -0.65 4.25 -0.75 4.2 -0.6 M-3.7 -0.95 L-4.15 -0.9 -4.25 -0.85 -4.3 -0.85 -4.3 -0.8 -4.45 -0.55 -4.95 0.4 -5.1 1.15 -5.1 1.75 -4.95 3.3 -4.8 3.65 Q-4.5 4.45 -3.8 4.85 L-3.55 5.0 -3.55 4.4 -3.65 3.75 -3.65 3.65 -3.7 3.35 -3.8 1.8 -3.7 -0.95 M-6.5 3.1 L-6.4 3.65 -5.8 6.35 -5.75 6.5 -5.6 6.35 -5.6 6.2 -5.55 4.25 -5.65 3.5 -5.3 3.4 -5.2 3.35 -5.1 3.2 -5.2 2.9 -5.2 2.75 -5.35 1.6 -5.35 1.4 -5.6 1.35 -6.2 1.65 -6.25 1.65 -6.45 1.85 -6.55 1.95 -6.5 2.45 -6.5 3.05 -6.5 3.1" fill="#000000" fill-rule="evenodd" stroke="none"/>
    <path d="M2.9 -4.65 Q0.45 -5.65 -3.05 -4.65 L-3.7 -3.8 -3.95 -3.4 -4.15 -2.7 -4.25 -2.0 -4.25 -1.2 -4.25 -1.15 -4.3 -1.15 -4.45 -1.05 -4.55 -1.8 -4.5 -2.75 Q-4.35 -4.2 -3.25 -5.0 -2.25 -5.8 -0.95 -5.85 L0.75 -5.8 0.95 -5.75 1.35 -5.8 Q2.6 -5.65 3.45 -4.75 L3.4 -4.75 2.9 -4.65 M-3.2 -2.35 L-3.15 -2.4 -3.15 -2.35 -3.3 -2.05 -3.3 -2.15 -3.2 -2.35" fill="#00ff00" fill-rule="evenodd" stroke="none"/>
    <path d="M-3.95 -3.4 L-3.7 -3.8 -3.05 -4.65 Q0.45 -5.65 2.9 -4.65 L3.4 -4.75 4.1 -3.75 3.35 -2.7 Q2.5 -2.9 3.0 -2.45 L3.0 -2.35 2.1 -3.6 2.05 -3.6 1.95 -3.7 1.8 -3.8 1.45 -4.05 0.7 -4.5 -0.8 -4.5 -1.15 -4.3 -1.6 -4.05 -1.75 -4.0 -1.85 -3.9 -1.95 -3.85 -2.05 -3.75 -2.1 -3.7 -3.0 -2.65 -3.15 -2.4 -3.2 -2.35 -3.15 -2.45 -3.0 -2.65 -3.65 -2.85 -3.95 -3.4" fill="#009900" fill-rule="evenodd" stroke="none"/>
    <path d="M-3.95 -3.4 L-3.65 -2.85 -3.0 -2.65 -3.15 -2.45 -3.2 -2.35 -3.3 -2.15 -3.3 -2.05 -3.3 -1.85 -3.3 -1.55 -3.35 -1.4 -3.5 -1.45 -4.25 -1.2 -4.25 -2.0 -4.15 -2.7 -3.95 -3.4 M3.0 -2.35 L3.0 -2.45 Q2.5 -2.9 3.35 -2.7 L4.1 -3.75 4.15 -3.35 4.15 -3.25 4.2 -3.1 4.25 -0.85 3.4 -1.45 3.2 -1.35 3.2 -1.3 3.1 -2.15 3.0 -2.35" fill="#336600" fill-rule="evenodd" stroke="none"/>
    <path d="M-3.2 -0.6 L-3.15 -0.95 -3.15 -0.65 Q-3.25 0.8 -2.95 2.25 -2.7 3.25 -1.85 3.85 -0.6 4.7 0.9 4.15 L1.0 4.05 Q1.8 3.7 2.2 2.85 L2.85 0.3 2.9 -0.7 2.8 -1.6 2.8 -1.65 2.9 -1.15 2.95 -1.0 3.2 0.9 3.2 2.0 3.2 2.1 3.2 2.35 3.2 3.05 3.2 3.1 3.0 3.5 Q2.3 4.9 0.8 5.3 -0.7 5.7 -1.95 4.9 -3.0 4.25 -3.45 3.2 L-3.45 2.9 -3.4 2.4 -3.35 0.4 -3.25 -0.4 -3.2 -0.6 M1.75 -2.1 L2.15 -0.85 2.05 1.1 Q1.9 2.25 0.8 3.55 L-0.2 3.8 Q-1.0 3.7 -1.7 3.05 -2.4 2.35 -2.5 0.4 -2.6 -1.65 -0.9 -2.9 L0.55 -2.85 1.75 -2.1 M3.45 -0.85 L3.45 -0.75 Q4.45 0.2 4.45 1.05 L4.1 1.55 Q3.85 1.9 3.4 1.8 L3.2 -0.25 Q3.05 -1.0 3.45 -0.85 M-3.8 1.8 L-4.35 1.7 -4.45 1.6 -4.9 1.05 Q-4.85 0.4 -4.25 -0.35 L-4.1 -0.55 -3.85 -0.8 -3.7 -0.95 -3.8 1.8 M-1.2 -1.85 Q-2.1 -1.2 -2.1 -0.1 -2.1 0.45 -1.6 0.65 L-0.7 0.5 -0.3 0.0 Q0.05 -0.55 0.0 -1.15 -0.05 -2.0 -0.85 -2.0 L-1.2 -1.85 M-6.2 1.65 L-5.6 1.35 -5.35 1.4 -5.35 1.6 -5.2 2.75 -5.2 2.9 -5.1 3.2 -5.2 3.35 -5.3 3.4 -5.65 3.5 -5.55 4.25 -5.6 6.2 -5.6 6.35 -5.75 6.5 -5.8 6.35 -6.4 3.65 -6.5 3.1 -6.45 3.2 Q-5.95 3.4 -5.55 2.8 L-5.45 2.5 Q-5.45 1.75 -6.2 1.65" fill="#999999" fill-rule="evenodd" stroke="none"/>
    <path d="M0.5 -3.95 L0.6 -3.9 0.8 -3.85 1.75 -3.35 2.15 -2.9 2.2 -2.85 2.8 -1.6 2.9 -0.7 2.85 0.3 2.2 2.85 Q1.8 3.7 1.0 4.05 L0.9 4.15 Q-0.6 4.7 -1.85 3.85 -2.7 3.25 -2.95 2.25 -3.25 0.8 -3.15 -0.65 L-3.15 -0.95 -3.2 -0.6 -3.15 -1.0 -3.05 -1.6 -2.55 -2.85 -1.75 -3.55 -1.7 -3.6 -0.95 -3.9 -0.6 -4.0 0.15 -4.0 0.5 -3.95 M1.75 -2.1 L0.55 -2.85 -0.9 -2.9 Q-2.6 -1.65 -2.5 0.4 -2.4 2.35 -1.7 3.05 -1.0 3.7 -0.2 3.8 L0.8 3.55 Q1.9 2.25 2.05 1.1 L2.15 -0.85 1.75 -2.1 M3.2 3.1 L3.2 3.3 3.15 3.95 3.1 4.35 3.1 4.55 3.0 5.05 2.9 5.4 2.55 6.95 Q2.3 7.75 1.6 8.3 L0.25 9.05 -1.25 8.95 Q-2.15 8.7 -2.8 7.55 L-3.2 6.2 -3.3 5.75 -3.35 5.3 -3.35 5.2 -3.35 4.9 -3.4 4.6 -3.4 4.05 -3.4 4.0 -3.45 3.55 -3.45 3.2 Q-3.0 4.25 -1.95 4.9 -0.7 5.7 0.8 5.3 2.3 4.9 3.0 3.5 L3.2 3.1 M3.4 1.8 Q3.85 1.9 4.1 1.55 L4.45 1.05 Q4.45 0.2 3.45 -0.75 L3.45 -0.85 Q3.0 -1.4 3.65 -0.85 L4.35 0.0 Q4.7 0.6 4.75 1.45 L4.75 2.8 Q4.65 3.6 4.15 4.2 L3.25 4.95 Q3.0 4.95 3.2 4.35 L3.4 3.75 3.4 2.8 3.4 2.15 3.4 1.8 M4.2 -0.6 L4.25 -0.75 4.3 -0.65 4.2 -0.6 M-3.8 1.8 L-3.7 3.35 -3.65 3.65 -3.65 3.75 -3.55 4.4 -3.55 5.0 -3.8 4.85 Q-4.5 4.45 -4.8 3.65 L-4.95 3.3 -5.1 1.75 -5.1 1.15 -4.95 0.4 -4.45 -0.55 -4.3 -0.8 -4.3 -0.85 -4.25 -0.85 -4.15 -0.9 -3.7 -0.95 -3.85 -0.8 -4.1 -0.55 -4.25 -0.35 Q-4.85 0.4 -4.9 1.05 L-4.45 1.6 -4.35 1.7 -3.8 1.8" fill="#666666" fill-rule="evenodd" stroke="none"/>
    <path d="M-1.2 -1.85 L-0.85 -2.0 Q-0.05 -2.0 0.0 -1.15 0.05 -0.55 -0.3 0.0 L-0.7 0.5 -1.6 0.65 Q-2.1 0.45 -2.1 -0.1 -2.1 -1.2 -1.2 -1.85 M-6.5 3.1 L-6.5 3.05 -6.5 2.45 -6.55 1.95 -6.45 1.85 -6.25 1.65 -6.2 1.65 Q-5.45 1.75 -5.45 2.5 L-5.55 2.8 Q-5.95 3.4 -6.45 3.2 L-6.5 3.1" fill="#cccccc" fill-rule="evenodd" stroke="none"/>
  </g>
</svg>
