<?xml version="1.0" encoding="UTF-8" standalone="no"?>
<svg xmlns:xlink="http://www.w3.org/1999/xlink" height="15.15px" width="12.75px" xmlns="http://www.w3.org/2000/svg">
  <g transform="matrix(1.0, 0.0, 0.0, 1.0, 5.1, 7.15)">
    <path d="M0.3 -1.25 L0.8 -0.95 0.8 -0.9 0.65 -0.95 0.55 -0.95 0.5 -0.9 0.45 -0.85 0.4 -0.8 0.4 -0.7 0.45 -0.65 0.65 -0.55 0.6 -0.35 0.75 0.2 0.45 0.6 0.2 0.55 0.1 0.65 0.1 0.85 0.2 0.95 0.7 1.6 0.85 1.7 0.85 1.75 0.9 1.65 0.9 1.6 0.85 1.4 1.05 1.45 1.25 1.5 1.5 1.7 1.8 2.1 2.0 2.25 1.95 2.3 2.05 2.75 2.25 3.0 2.25 3.05 2.05 2.9 2.0 2.85 1.6 2.55 1.45 2.6 Q1.0 2.9 1.25 3.4 1.65 4.1 2.5 4.35 L3.3 4.5 4.05 4.55 Q4.1 4.45 4.25 4.4 L3.7 5.05 3.55 5.2 3.45 5.25 2.85 5.3 Q2.65 5.3 2.6 5.5 2.5 6.1 3.2 6.1 L4.1 6.05 3.7 6.2 3.6 6.3 3.05 6.7 Q2.25 6.95 1.6 6.25 L1.35 6.05 1.65 5.85 1.7 5.75 Q1.6 5.3 1.1 5.2 L1.0 5.2 0.95 5.2 Q0.6 5.55 1.0 5.85 L1.1 5.95 Q0.85 5.9 0.55 6.15 L0.1 6.0 Q0.3 5.8 0.1 5.4 L0.0 4.1 Q-0.05 3.5 -0.5 3.1 L-0.5 2.8 Q-0.45 2.5 -0.65 2.25 L-0.65 2.2 Q-0.7 1.7 -1.25 1.75 L-1.4 1.85 -1.25 1.5 -1.15 1.3 -1.25 1.1 -0.85 0.7 -1.15 0.45 -1.75 0.65 -1.85 0.75 -2.15 0.65 -1.9 0.2 -1.4 -0.2 -1.1 -0.3 -1.15 -0.05 Q-1.15 0.45 -0.6 0.3 L-0.45 0.2 -0.25 0.0 Q0.05 -0.5 -0.5 -0.65 L-0.4 -0.75 -0.35 -1.05 -0.3 -1.05 -0.25 -1.05 -0.2 -1.05 Q0.05 -1.1 0.3 -1.25 M-0.75 5.7 L-1.0 5.35 -1.2 4.6 -1.25 4.05 -1.15 4.15 Q-0.75 4.45 -0.85 5.0 L-0.75 5.7 M-1.55 3.45 L-1.8 3.2 -1.85 3.05 -1.75 2.8 -1.6 3.3 -1.55 3.45 M1.25 0.65 L0.85 0.75 0.75 0.95 0.95 0.6 1.0 0.55 1.15 0.55 1.25 0.6 1.25 0.65 M2.3 5.4 L2.35 5.4 2.3 5.35 2.3 5.4 M4.25 3.55 L4.15 3.6 4.7 3.4 4.25 3.55 M3.0 6.25 L2.95 6.2 2.95 6.3 3.0 6.25" fill="#ff6600" fill-rule="evenodd" stroke="none"/>
    <path d="M3.95 -5.7 L4.0 -5.6 4.05 -5.5 2.15 -6.15 -0.1 -6.3 Q0.05 -6.55 0.5 -6.65 L1.3 -6.8 1.5 -6.9 Q2.75 -6.9 3.7 -6.0 L3.95 -5.7" fill="#cccccc" fill-rule="evenodd" stroke="none"/>
    <path d="M-3.65 2.3 L-4.7 2.8 -4.85 2.8 Q-5.25 2.65 -5.05 2.35 L-5.1 2.05 -4.8 -0.1 Q-4.6 -1.1 -3.75 -1.55 L-3.55 -1.55 -3.5 -2.1 -3.4 -2.65 -3.0 -3.4 -2.75 -3.85 -1.85 -4.75 -1.75 -4.8 -1.65 -4.9 -0.9 -5.3 -0.8 -5.35 -0.85 -5.5 Q-0.85 -6.15 -0.35 -6.3 L-0.3 -6.3 0.25 -6.8 1.3 -7.1 1.4 -7.1 1.7 -7.15 Q2.8 -7.25 3.5 -6.35 L3.95 -5.7 3.7 -6.0 Q2.75 -6.9 1.5 -6.9 L1.3 -6.8 0.5 -6.65 Q0.05 -6.55 -0.1 -6.3 L2.15 -6.15 4.05 -5.5 4.25 -5.4 4.5 -5.05 4.3 -4.0 4.1 -3.45 4.4 -3.15 4.55 -3.4 4.7 -3.4 5.3 -2.6 5.45 -2.15 5.6 -2.35 5.65 -2.4 5.8 -2.4 Q6.45 -2.15 6.35 -1.3 L6.3 -0.85 Q6.8 -0.7 6.75 0.0 L6.85 0.9 6.95 1.7 7.05 1.95 7.05 1.9 7.2 1.9 Q7.85 2.25 7.55 2.95 L7.2 3.7 7.6 3.95 7.25 4.5 6.7 5.4 6.35 5.95 5.05 6.65 5.05 6.7 5.05 6.65 5.4 6.85 Q4.25 7.35 3.2 8.0 2.65 8.05 2.7 7.55 L2.55 7.55 2.65 7.95 0.95 7.7 0.9 7.5 0.95 7.3 0.9 7.35 0.75 7.4 0.65 7.45 Q-0.1 7.9 -0.75 7.2 -1.2 6.7 -0.75 6.3 L-0.8 6.25 Q-1.15 5.95 -1.1 5.4 L-1.2 5.35 Q-2.65 4.8 -3.4 3.5 L-3.5 3.25 -3.55 3.0 -3.55 2.85 -3.65 2.8 -3.65 2.35 -3.6 2.4 -3.6 2.25 -3.65 1.7 -3.65 2.3 M3.65 -5.5 L2.65 -5.8 2.5 -5.85 0.95 -6.0 -0.25 -5.95 -0.5 -5.95 -0.5 -5.45 1.0 -5.45 1.45 -5.2 1.5 -5.15 1.65 -5.1 1.8 -5.0 2.25 -4.7 2.4 -4.6 3.4 -3.35 3.5 -2.65 3.5 -2.55 3.55 -2.75 4.35 -5.25 4.15 -5.35 4.1 -5.35 3.65 -5.5 M-0.25 -5.0 L-0.6 -4.9 -0.65 -4.9 -0.75 -4.9 -0.85 -4.85 -1.7 -4.45 -1.95 -4.25 -2.0 -4.2 -2.1 -4.1 -2.1 -4.05 -2.25 -3.85 -2.65 -3.2 -2.7 -3.1 -2.8 -2.9 -2.8 -2.8 -2.85 -2.75 -2.95 -2.4 -3.0 -2.15 -3.05 -1.95 -3.1 -1.8 -3.15 -1.45 -3.15 -1.55 -3.15 -1.2 Q-3.35 0.3 -2.55 1.6 L-2.55 1.65 -2.35 2.05 -2.3 2.1 -2.05 2.35 -1.55 1.5 -1.5 1.4 -1.3 1.15 -1.5 1.3 -1.8 1.35 -1.95 1.35 -2.05 1.25 -2.05 1.15 -2.05 1.1 -2.0 0.95 -2.2 0.95 -2.25 0.85 -2.2 0.45 -2.25 0.45 -2.05 -0.1 -2.35 -1.25 Q-2.35 -2.25 -1.95 -3.15 L-1.55 -3.75 Q-0.95 -4.3 -0.15 -4.4 L1.2 -4.15 1.8 -3.8 Q2.3 -3.4 2.4 -2.65 2.55 -1.65 2.3 -0.8 L1.95 0.0 2.3 0.4 2.25 0.5 2.25 0.55 2.4 0.6 3.0 0.8 3.4 -0.6 3.4 -0.7 3.35 -1.2 3.35 -1.25 3.35 -1.55 3.35 -1.7 3.35 -1.85 3.35 -1.95 3.35 -2.0 3.25 -2.7 3.15 -2.95 3.1 -3.0 3.05 -3.1 3.05 -3.15 2.55 -3.8 2.55 -3.85 2.2 -4.2 1.85 -4.45 1.45 -4.7 1.3 -4.75 0.8 -4.95 0.5 -5.0 0.45 -5.0 0.35 -5.0 -0.05 -5.05 -0.1 -5.0 -0.2 -5.0 -0.25 -5.0 M-1.35 -3.75 L-1.35 -3.8 -1.45 -3.75 -1.35 -3.75 M1.45 -3.6 L1.4 -3.6 1.35 -3.65 1.3 -3.7 0.4 -4.0 -0.25 -3.95 -0.6 -3.85 Q-1.6 -3.3 -1.8 -2.2 L-1.85 -1.0 -1.75 -0.75 -1.7 -0.45 -1.5 -0.55 -0.9 -0.95 -0.7 -1.05 -0.55 -1.1 -0.35 -1.05 -0.4 -0.75 -0.5 -0.65 -0.55 -0.65 -0.65 -0.55 -0.75 -0.5 -1.1 -0.35 -1.1 -0.3 -1.4 -0.2 -1.9 0.2 -2.15 0.65 -1.85 0.75 -1.75 0.65 -1.15 0.45 -0.85 0.7 -1.25 1.1 -1.15 1.3 -1.25 1.5 -1.4 1.85 -1.75 2.8 -1.85 3.05 -1.8 3.2 -1.55 3.45 -1.25 4.05 -1.2 4.6 -1.0 5.35 -0.75 5.7 -0.5 6.2 -0.15 6.9 0.8 7.05 Q1.3 6.95 1.7 7.3 L2.55 7.55 2.9 7.4 3.2 7.25 3.7 6.85 3.9 6.85 3.85 6.9 3.9 6.9 4.1 7.15 4.6 7.0 4.45 6.9 4.35 6.9 4.2 6.85 4.05 6.8 5.05 6.45 5.4 5.9 6.3 5.1 6.75 4.6 Q6.8 4.3 7.0 4.05 L6.75 3.4 6.7 2.85 6.7 2.75 6.85 2.35 6.85 2.25 6.85 1.55 6.7 1.3 6.2 0.25 6.15 0.15 6.15 0.1 Q5.8 -0.65 5.9 -1.45 L5.6 -1.85 5.25 -2.2 5.2 -2.2 5.1 -2.25 5.1 -2.3 4.6 -2.6 4.4 -2.7 4.35 -2.75 Q4.25 -2.75 4.25 -2.8 L4.25 -2.75 4.2 -2.15 4.1 -1.75 3.95 -1.5 4.0 -1.45 4.25 -1.2 4.65 -0.55 4.8 0.35 4.9 0.7 5.1 2.35 4.95 2.9 4.6 2.9 4.4 2.6 4.3 2.5 4.25 2.45 3.85 1.8 3.7 1.75 Q3.4 1.7 3.15 1.5 L2.45 1.0 2.1 0.85 1.35 0.75 1.3 0.7 1.25 0.65 1.25 0.6 1.3 0.65 1.3 0.35 1.4 0.25 1.55 0.25 1.45 0.15 1.4 0.0 1.4 -0.1 0.65 -0.55 0.45 -0.65 0.4 -0.7 0.4 -0.8 0.45 -0.85 0.5 -0.9 0.55 -0.95 0.65 -0.95 0.8 -0.9 0.85 -0.9 1.1 -0.85 1.7 -0.5 1.7 -0.45 2.0 -1.2 2.15 -2.3 2.1 -2.8 2.05 -3.0 2.05 -3.05 1.75 -3.4 1.45 -3.6 M-4.0 1.75 L-3.65 1.45 -3.65 1.15 -3.65 0.55 -3.65 -0.45 -3.6 -1.3 -4.4 -0.65 -4.5 -0.1 -4.95 2.55 -4.0 1.75 M0.9 1.6 L0.9 1.65 0.85 1.75 0.85 1.7 0.9 1.6 M3.7 -1.25 L3.65 -1.25 3.65 -1.2 3.65 -1.25 3.65 -0.75 3.65 -0.65 3.65 -0.55 3.65 -0.45 3.7 -0.15 3.7 -0.05 3.7 0.6 3.7 0.95 3.7 1.25 3.7 1.5 3.85 1.6 4.95 2.55 4.5 -0.25 4.4 -0.65 3.7 -1.25 M3.25 0.75 L3.2 0.95 3.4 1.2 3.45 1.1 3.45 0.25 3.25 0.75 M1.9 0.55 L1.65 0.4 1.8 0.55 1.85 0.55 2.0 0.6 1.9 0.55 M-2.25 3.0 L-2.3 2.9 -3.2 1.45 -3.2 1.55 -3.2 1.9 -3.2 1.95 -3.15 2.35 -3.1 2.55 -3.05 2.85 -3.0 3.05 -2.95 3.15 -2.9 3.45 Q-2.55 4.3 -1.8 4.6 L-1.85 3.65 -1.8 3.55 -2.25 3.0" fill="#000000" fill-rule="evenodd" stroke="none"/>
    <path d="M1.5 -5.15 L1.55 -5.2 3.15 -4.8 3.2 -4.75 3.65 -5.5 4.1 -5.35 4.15 -5.35 4.35 -5.25 3.55 -2.75 3.5 -2.55 3.5 -2.65 3.4 -3.35 2.4 -4.6 2.25 -4.7 1.8 -5.0 1.65 -5.1 1.5 -5.15 M-0.25 -5.0 L-0.2 -5.0 -0.1 -5.0 -0.05 -5.05 0.35 -5.0 0.45 -5.0 0.5 -5.0 0.8 -4.95 Q0.7 -4.4 1.3 -4.5 L1.45 -4.7 1.85 -4.45 2.2 -4.2 2.55 -3.85 2.5 -3.85 2.45 -3.8 2.4 -3.75 2.35 -3.6 2.4 -3.5 2.45 -3.45 2.6 -3.45 2.65 -3.45 2.6 -3.7 2.7 -3.25 2.9 -2.45 2.95 -2.0 2.9 -0.8 2.4 0.6 2.25 0.55 2.25 0.5 2.3 0.4 1.95 0.0 2.3 -0.8 Q2.55 -1.65 2.4 -2.65 2.3 -3.4 1.8 -3.8 L1.2 -4.15 -0.15 -4.4 Q-0.95 -4.3 -1.55 -3.75 L-1.95 -3.15 Q-2.35 -2.25 -2.35 -1.25 L-2.05 -0.1 -2.25 0.45 -2.2 0.45 -2.25 0.85 -2.2 0.95 -2.05 1.1 -2.05 1.15 -2.55 1.6 Q-3.35 0.3 -3.15 -1.2 L-3.15 -1.55 -3.15 -1.45 -3.1 -1.8 -3.05 -1.95 -3.0 -2.15 -2.95 -2.4 -3.0 -2.2 Q-2.6 -1.9 -2.4 -2.4 -2.15 -2.95 -2.7 -3.1 L-2.65 -3.2 -2.25 -3.85 -2.1 -4.05 -1.95 -3.9 -1.75 -3.9 -1.6 -4.0 Q-1.45 -4.35 -1.7 -4.45 L-0.85 -4.85 -0.65 -4.55 -0.45 -4.55 -0.3 -4.7 Q-0.2 -4.85 -0.25 -5.0 M-1.8 1.35 L-1.5 1.3 -1.5 1.35 -1.5 1.4 -1.55 1.5 -1.65 1.45 -1.8 1.35 M1.85 0.55 L1.9 0.55 2.0 0.6 1.85 0.55" fill="#996600" fill-rule="evenodd" stroke="none"/>
    <path d="M1.5 -5.15 L1.45 -5.2 1.0 -5.45 -0.5 -5.45 -0.5 -5.95 -0.25 -5.95 0.95 -6.0 2.5 -5.85 2.65 -5.8 3.65 -5.5 3.2 -4.75 3.15 -4.8 1.55 -5.2 1.5 -5.15 M-0.85 -4.85 L-0.75 -4.9 -0.65 -4.9 -0.6 -4.9 -0.25 -5.0 Q-0.2 -4.85 -0.3 -4.7 L-0.45 -4.55 -0.65 -4.55 -0.85 -4.85 M0.8 -4.95 L1.3 -4.75 1.45 -4.7 1.3 -4.5 Q0.7 -4.4 0.8 -4.95 M2.55 -3.85 L2.55 -3.8 2.6 -3.7 2.65 -3.45 2.6 -3.45 2.45 -3.45 2.4 -3.5 2.35 -3.6 2.4 -3.75 2.45 -3.8 2.5 -3.85 2.55 -3.85 M-2.95 -2.4 L-2.85 -2.75 -2.8 -2.8 -2.8 -2.9 -2.7 -3.1 Q-2.15 -2.95 -2.4 -2.4 -2.6 -1.9 -3.0 -2.2 L-2.95 -2.4 M-2.1 -4.05 L-2.1 -4.1 -2.0 -4.2 -1.95 -4.25 -1.7 -4.45 Q-1.45 -4.35 -1.6 -4.0 L-1.75 -3.9 -1.95 -3.9 -2.1 -4.05" fill="#cc9900" fill-rule="evenodd" stroke="none"/>
    <path d="M2.55 -3.8 L3.05 -3.15 3.05 -3.1 3.1 -3.0 3.15 -2.95 3.25 -2.7 3.35 -2.0 3.35 -1.95 3.35 -1.85 3.35 -1.7 3.35 -1.55 3.35 -1.25 3.35 -1.2 3.4 -0.7 3.4 -0.6 3.0 0.8 2.4 0.6 2.9 -0.8 2.95 -2.0 2.9 -2.45 2.7 -3.25 2.6 -3.7 2.55 -3.8 M-2.05 1.15 L-2.05 1.25 -1.95 1.35 -1.8 1.35 -1.65 1.45 -1.55 1.5 -2.05 2.35 -2.3 2.1 -2.35 2.05 -2.55 1.65 -2.55 1.6 -2.05 1.15" fill="#663333" fill-rule="evenodd" stroke="none"/>
    <path d="M-1.75 -0.75 L-1.5 -0.55 -1.7 -0.45 -1.75 -0.75 M1.1 -0.85 L1.7 -1.8 Q2.0 -2.45 1.8 -3.1 L1.65 -3.45 1.45 -3.6 1.75 -3.4 2.05 -3.05 2.05 -3.0 2.1 -2.8 2.15 -2.3 2.0 -1.2 1.7 -0.45 1.7 -0.5 1.1 -0.85 M3.65 -1.2 L3.7 -1.25 4.4 -0.65 4.5 -0.25 4.15 0.6 3.85 1.6 3.7 1.5 3.7 1.25 3.7 0.95 3.7 0.6 3.7 -0.05 3.7 -0.15 3.65 -0.45 3.65 -0.55 3.65 -0.65 3.65 -0.75 3.65 -1.2 M3.25 0.75 L3.45 0.25 3.45 1.1 3.4 1.2 3.2 0.95 3.25 0.75 M-2.25 3.0 L-1.8 3.55 -1.85 3.65 -1.8 4.6 Q-2.55 4.3 -2.9 3.45 L-2.95 3.15 -3.0 3.05 -3.05 2.85 -3.1 2.55 -3.15 2.35 -3.2 1.95 -3.2 1.9 -3.2 1.55 -3.2 1.45 -2.3 2.9 -2.25 3.0" fill="#6666ff" fill-rule="evenodd" stroke="none"/>
    <path d="M-1.75 -0.75 L-1.85 -1.0 -1.8 -2.2 Q-1.6 -3.3 -0.6 -3.85 L-0.25 -3.95 0.4 -4.0 1.3 -3.7 1.35 -3.65 1.4 -3.6 1.45 -3.6 1.65 -3.45 1.8 -3.1 Q2.0 -2.45 1.7 -1.8 L1.1 -0.85 0.85 -0.9 0.8 -0.95 0.3 -1.25 0.85 -1.85 Q1.1 -2.35 1.0 -2.85 0.75 -3.65 -0.15 -3.55 -1.0 -3.35 -1.3 -2.5 -1.55 -1.8 -1.15 -1.25 L-1.0 -1.1 -0.7 -1.05 -0.9 -0.95 -1.5 -0.55 -1.75 -0.75 M-4.5 -0.1 L-4.4 -0.65 -3.6 -1.3 -3.65 -0.45 -3.65 0.55 -3.65 1.15 -3.65 1.45 -4.0 1.75 -4.05 1.45 -4.2 0.55 -4.5 -0.1 M4.5 -0.25 L4.95 2.55 3.85 1.6 4.15 0.6 4.5 -0.25" fill="#9999ff" fill-rule="evenodd" stroke="none"/>
    <path d="M-0.7 -1.05 L-1.0 -1.1 -1.15 -1.25 Q-1.55 -1.8 -1.3 -2.5 -1.0 -3.35 -0.15 -3.55 0.75 -3.65 1.0 -2.85 1.1 -2.35 0.85 -1.85 L0.3 -1.25 Q0.05 -1.1 -0.2 -1.05 L-0.25 -1.05 -0.3 -1.05 -0.35 -1.05 -0.55 -1.1 -0.7 -1.05 M-4.5 -0.1 L-4.2 0.55 -4.05 1.45 -4.0 1.75 -4.95 2.55 -4.5 -0.1" fill="#99ccff" fill-rule="evenodd" stroke="none"/>
    <path d="M-2.2 0.95 L-2.0 0.95 -2.05 1.1 -2.2 0.95 M-1.5 1.3 L-1.3 1.15 -1.5 1.4 -1.5 1.35 -1.5 1.3 M0.8 -0.95 L0.85 -0.9 0.8 -0.9 0.8 -0.95 M0.1 6.0 L0.55 6.15 Q0.85 5.9 1.1 5.95 L1.35 6.05 1.6 6.25 Q2.25 6.95 3.05 6.7 L3.6 6.3 3.7 6.2 4.1 6.05 3.2 6.1 Q2.5 6.1 2.6 5.5 2.65 5.3 2.85 5.3 L3.45 5.25 3.55 5.2 3.7 5.05 4.25 4.4 Q4.1 4.45 4.05 4.55 L3.3 4.5 2.5 4.35 Q1.65 4.1 1.25 3.4 1.0 2.9 1.45 2.6 L1.6 2.55 2.0 2.85 2.05 2.9 2.25 3.05 2.25 3.0 2.05 2.75 1.95 2.3 2.0 2.25 1.8 2.1 1.5 1.7 1.25 1.5 1.05 1.45 0.85 1.4 0.9 1.6 0.85 1.7 0.7 1.6 0.2 0.95 0.1 0.85 0.1 0.65 0.2 0.55 0.45 0.6 0.75 0.2 0.6 -0.35 0.65 -0.55 1.4 -0.1 1.4 0.0 1.45 0.15 1.55 0.25 1.4 0.25 1.3 0.35 1.3 0.65 1.25 0.6 1.15 0.55 1.0 0.55 0.95 0.6 0.75 0.95 0.85 0.75 1.25 0.65 1.3 0.7 1.35 0.75 2.1 0.85 2.45 1.0 3.15 1.5 Q3.4 1.7 3.7 1.75 L3.85 1.8 4.25 2.45 4.3 2.5 4.25 2.65 4.35 2.9 Q4.9 3.3 5.5 3.1 L5.5 3.15 5.45 3.35 5.45 3.4 4.75 3.7 Q4.3 3.9 4.2 4.3 L4.2 4.4 4.25 4.4 4.2 4.4 4.3 4.5 Q4.8 4.9 5.45 4.7 L5.5 4.95 5.5 5.1 Q4.65 5.45 5.15 6.2 L5.15 6.25 5.4 5.9 5.05 6.45 4.05 6.8 4.2 6.85 3.95 6.8 3.85 6.9 3.9 6.85 3.7 6.85 3.2 7.25 2.9 7.4 2.55 7.55 1.7 7.3 Q1.3 6.95 0.8 7.05 L-0.15 6.9 -0.5 6.2 -0.4 6.1 -0.35 6.05 0.1 6.0 M4.25 -2.75 L4.25 -2.8 Q4.25 -2.75 4.35 -2.75 L4.25 -2.75 M6.15 0.1 L6.15 0.15 6.2 0.25 6.05 0.15 6.15 0.1 M6.7 2.85 L6.75 3.4 6.7 3.4 6.6 3.25 6.55 3.2 6.7 3.1 6.7 3.05 6.7 2.85 M1.9 0.55 L1.85 0.55 1.8 0.55 1.65 0.4 1.9 0.55 M4.25 3.55 L4.7 3.4 4.15 3.6 4.25 3.55" fill="#cc0000" fill-rule="evenodd" stroke="none"/>
    <path d="M3.7 -1.25 L3.65 -1.2 3.65 -1.25 3.7 -1.25" fill="#edcdb6" fill-rule="evenodd" stroke="none"/>
    <path d="M3.65 -0.75 L3.65 -1.25 3.65 -1.2 3.65 -0.75" fill="#e3b18b" fill-rule="evenodd" stroke="none"/>
    <path d="M-1.35 -3.75 L-1.45 -3.75 -1.35 -3.8 -1.35 -3.75" fill="#9900cc" fill-rule="evenodd" stroke="none"/>
    <path d="M-3.65 2.35 L-3.65 2.3 -3.65 1.7 -3.6 2.25 -3.6 2.4 -3.65 2.35" fill="#ad7a3f" fill-rule="evenodd" stroke="none"/>
    <path d="M4.25 -2.75 L4.35 -2.75 4.4 -2.7 4.6 -2.6 5.1 -2.3 5.1 -2.25 5.2 -2.2 5.25 -2.2 5.6 -1.85 5.9 -1.45 Q5.8 -0.65 6.15 0.1 L6.05 0.15 6.2 0.25 6.7 1.3 6.85 1.55 6.85 2.25 6.85 2.35 6.7 2.75 6.7 2.85 6.7 3.05 6.7 3.1 6.55 3.2 6.6 3.25 6.7 3.4 6.75 3.4 7.0 4.05 Q6.8 4.3 6.75 4.6 L6.3 5.1 5.4 5.9 5.15 6.25 5.15 6.2 Q4.65 5.45 5.5 5.1 L5.5 4.95 5.45 4.7 Q4.8 4.9 4.3 4.5 L4.2 4.4 4.25 4.4 4.2 4.4 4.2 4.3 Q4.3 3.9 4.75 3.7 L5.45 3.4 5.45 3.35 5.5 3.15 5.5 3.1 Q4.9 3.3 4.35 2.9 L4.25 2.65 4.3 2.5 4.4 2.6 4.6 2.9 4.95 2.9 5.1 2.35 4.9 0.7 4.8 0.35 4.65 -0.55 4.25 -1.2 4.0 -1.45 3.95 -1.5 4.1 -1.75 4.2 -2.15 4.25 -2.75" fill="#993300" fill-rule="evenodd" stroke="none"/>
    <path d="M-0.5 -0.65 Q0.05 -0.5 -0.25 0.0 L-0.45 0.2 -0.6 0.3 Q-1.15 0.45 -1.15 -0.05 L-1.1 -0.3 -1.1 -0.35 -0.75 -0.5 -0.65 -0.55 -0.55 -0.65 -0.5 -0.65 M-1.4 1.85 L-1.25 1.75 Q-0.7 1.7 -0.65 2.2 L-0.65 2.25 Q-0.45 2.5 -0.5 2.8 L-0.5 3.1 Q-0.05 3.5 0.0 4.1 L0.1 5.4 Q0.3 5.8 0.1 6.0 L-0.35 6.05 -0.4 6.1 -0.5 6.2 -0.75 5.7 -0.85 5.0 Q-0.75 4.45 -1.15 4.15 L-1.25 4.05 -1.55 3.45 -1.6 3.3 -1.75 2.8 -1.4 1.85 M1.1 5.95 L1.0 5.85 Q0.6 5.55 0.95 5.2 L1.0 5.2 1.1 5.2 Q1.6 5.3 1.7 5.75 L1.65 5.85 1.35 6.05 1.1 5.95" fill="#ff9933" fill-rule="evenodd" stroke="none"/>
  </g>
</svg>
