<?xml version="1.0" encoding="UTF-8" standalone="no"?>
<svg xmlns:xlink="http://www.w3.org/1999/xlink" height="7.9px" width="18.4px" xmlns="http://www.w3.org/2000/svg">
  <g transform="matrix(1.0, 0.0, 0.0, 1.0, 9.2, 3.95)">
    <path d="M6.7 2.6 L6.8 2.4 7.0 2.1 7.8 0.85 8.45 -0.45 8.55 -0.7 8.65 -1.45 8.5 -2.5 8.1 -3.2 8.0 -3.3 7.8 -3.35 7.75 -3.4 7.65 -3.45 7.0 -3.55 Q6.2 -3.4 5.85 -2.65 L5.05 -0.7 4.8 -0.15 Q4.4 1.05 3.6 2.05 L3.25 2.4 3.1 2.55 2.75 2.9 3.2 2.0 3.6 1.1 3.65 0.9 3.8 0.55 4.05 0.0 4.95 -2.0 5.3 -2.65 5.5 -3.0 Q6.05 -3.9 7.0 -3.95 L7.35 -3.9 7.4 -3.9 8.0 -3.55 8.2 -3.5 Q9.2 -2.8 9.2 -1.55 L9.2 -1.5 9.2 -1.25 9.2 -1.2 9.2 -1.05 9.2 -0.85 9.15 -0.7 9.15 -0.65 9.0 -0.05 8.55 0.55 Q7.65 1.7 6.95 3.0 L6.95 3.25 6.7 3.4 6.6 3.3 6.6 3.25 6.55 3.1 6.7 2.6 M-6.7 3.15 L-6.55 3.65 -6.6 3.8 -6.6 3.85 -6.7 3.95 -6.9 3.8 -6.95 3.55 Q-7.65 2.25 -8.55 1.1 L-9.0 0.5 -9.15 -0.1 -9.15 -0.15 -9.15 -0.3 -9.2 -0.5 -9.2 -0.65 -9.2 -0.7 -9.2 -0.95 -9.2 -1.0 Q-9.2 -2.25 -8.2 -2.95 L-8.0 -3.0 -7.35 -3.35 -7.0 -3.4 Q-6.05 -3.35 -5.5 -2.45 L-5.3 -2.1 -4.95 -1.45 -4.05 0.55 -3.8 1.1 -3.65 1.45 -3.55 1.65 -3.15 2.55 -2.75 3.45 -3.1 3.1 -3.25 2.95 -3.55 2.6 Q-4.4 1.6 -4.8 0.4 L-5.0 -0.15 -5.85 -2.1 Q-6.2 -2.85 -7.0 -3.0 L-7.65 -2.9 -7.75 -2.85 -7.8 -2.8 -8.0 -2.75 -8.05 -2.65 -8.5 -1.95 -8.65 -0.9 -8.5 -0.15 -8.45 0.1 -7.8 1.4 -7.0 2.65 -6.8 2.95 -6.7 3.15" fill="#000000" fill-rule="evenodd" stroke="none"/>
    <path d="M3.6 2.05 Q4.4 1.05 4.8 -0.15 L5.05 -0.7 5.85 -2.65 Q6.2 -3.4 7.0 -3.55 L7.65 -3.45 7.75 -3.4 7.8 -3.35 8.0 -3.3 8.1 -3.2 8.5 -2.5 8.65 -1.45 8.55 -0.7 8.45 -0.45 7.8 0.85 7.0 2.1 6.8 2.4 6.7 2.6 6.4 2.6 6.3 2.4 Q6.2 2.2 6.25 2.0 6.0 2.5 5.55 2.25 L4.75 2.2 4.45 2.2 3.65 2.1 3.6 2.05 M-3.55 2.6 L-3.65 2.65 -4.45 2.75 -4.75 2.75 -5.55 2.8 Q-6.0 3.05 -6.25 2.55 -6.2 2.75 -6.3 2.95 L-6.4 3.15 -6.7 3.15 -6.8 2.95 -7.0 2.65 -7.8 1.4 -8.45 0.1 -8.5 -0.15 -8.65 -0.9 -8.5 -1.95 -8.05 -2.65 -8.0 -2.75 -7.8 -2.8 -7.75 -2.85 -7.65 -2.9 -7.0 -3.0 Q-6.2 -2.85 -5.85 -2.1 L-5.0 -0.15 -4.8 0.4 Q-4.4 1.6 -3.55 2.6" fill="#999999" fill-rule="evenodd" stroke="none"/>
  </g>
</svg>
