<?xml version="1.0" encoding="UTF-8" standalone="no"?>
<svg xmlns:xlink="http://www.w3.org/1999/xlink" height="15.05px" width="18.05px" xmlns="http://www.w3.org/2000/svg">
  <g transform="matrix(1.0, 0.0, 0.0, 1.0, 9.85, 8.2)">
    <path d="M0.5 -7.6 L-1.85 -7.35 -4.8 -6.55 -4.85 -6.55 -5.7 -5.95 -6.3 -5.5 Q-6.5 -4.95 -6.3 -4.35 L-6.0 -4.6 -5.2 -5.25 -4.95 -5.35 -4.85 -5.45 -3.8 -6.05 -1.75 -6.65 -1.7 -6.65 0.05 -6.8 0.25 -6.8 0.25 -6.95 Q0.95 -6.75 0.8 -5.85 L0.75 -5.05 0.75 -4.45 Q0.8 -2.55 1.4 -0.7 L1.5 -0.45 1.6 -0.15 Q2.35 1.95 3.8 3.65 L5.15 5.6 5.2 5.55 5.3 5.55 5.7 5.55 6.15 5.2 6.35 4.9 6.35 4.85 6.4 4.7 6.45 4.6 5.55 2.6 4.6 0.85 4.3 0.35 Q3.3 -1.55 2.8 -3.6 L2.45 -5.0 2.3 -5.75 Q2.25 -6.2 2.65 -6.4 L2.8 -6.35 2.8 -6.45 4.05 -5.95 4.2 -5.85 4.65 -5.55 5.1 -5.35 5.15 -5.3 5.25 -5.2 5.4 -5.1 6.75 -3.6 6.85 -3.45 7.15 -3.25 7.5 -2.8 7.6 -2.7 7.6 -2.65 7.85 -2.1 8.05 -1.45 8.1 -0.65 8.15 -0.6 8.2 -0.05 8.1 0.05 7.9 1.7 7.15 3.4 6.9 3.75 Q7.2 4.2 7.05 4.85 6.75 6.3 5.3 6.25 L5.25 6.25 5.15 6.25 5.05 6.2 4.8 6.1 4.6 5.95 4.5 5.8 3.7 6.2 3.6 6.25 Q2.25 6.85 0.85 6.8 L-1.7 6.75 Q-2.9 6.55 -3.95 6.0 L-4.8 5.7 -5.15 5.25 -6.4 4.2 -6.55 4.15 -6.6 4.05 -6.75 3.85 -6.85 3.7 -8.2 3.35 -9.05 2.75 -9.7 1.3 -9.8 0.8 -9.65 -0.85 -9.55 -1.05 Q-9.0 -2.15 -7.95 -2.65 L-7.7 -2.5 -7.8 -2.3 -7.6 -2.7 -7.2 -3.2 -7.15 -3.3 -7.15 -3.35 -7.1 -3.35 -7.05 -3.45 -7.0 -3.5 -6.75 -3.9 -6.7 -4.0 -6.5 -4.2 -6.65 -4.35 Q-7.1 -5.4 -6.2 -6.15 L-5.8 -6.45 -3.8 -7.5 Q-2.1 -8.15 -0.25 -8.2 2.0 -8.15 4.05 -7.2 L5.2 -6.6 Q6.6 -5.8 6.8 -4.25 L6.7 -4.05 6.6 -3.95 6.45 -4.1 6.5 -4.25 6.6 -4.7 6.5 -5.1 6.4 -5.2 6.35 -5.25 5.6 -5.9 Q4.45 -6.85 2.95 -7.25 L2.8 -7.3 1.4 -7.6 1.35 -7.6 1.25 -7.6 0.5 -7.6 M3.15 3.45 L2.8 3.0 Q1.65 0.95 0.8 -1.25 L0.3 -2.95 Q-0.1 -4.65 0.2 -6.3 L0.05 -6.3 0.1 -6.55 0.0 -6.55 -0.2 -6.55 -0.4 -6.55 -1.3 -6.5 -1.8 -6.4 -2.05 -6.35 -2.2 -6.35 -2.7 -6.2 -4.65 -5.3 -4.9 -5.15 -5.3 -4.85 -5.7 -4.5 -5.9 -4.35 -5.95 -4.3 -6.2 -4.05 -6.3 -3.9 -6.4 -3.8 -6.45 -3.75 -6.75 -3.4 -6.8 -3.3 -6.9 -3.2 -7.35 -2.3 -7.6 -1.55 -7.7 -1.25 -7.7 -1.05 -7.8 -0.4 -7.8 -0.05 -7.8 0.2 -7.8 0.3 -7.8 0.55 -7.7 1.05 -7.6 1.5 -7.55 1.7 -7.5 1.85 Q-6.95 3.3 -5.55 4.5 -3.25 6.45 0.0 6.45 L0.2 6.45 1.3 6.35 Q2.95 6.15 4.35 5.35 L4.65 5.15 4.35 5.35 4.25 5.25 Q3.5 4.45 3.15 3.45 M7.35 -2.3 L7.3 -2.5 7.15 -2.75 6.6 -3.55 6.15 -4.05 6.0 -4.25 5.5 -4.65 4.75 -5.25 4.5 -5.4 4.4 -5.45 4.15 -5.6 3.65 -5.85 3.25 -6.0 3.2 -6.0 2.8 -6.15 2.75 -5.95 2.65 -5.95 2.6 -6.0 2.55 -6.0 2.35 -6.05 2.55 -6.0 2.55 -5.95 Q3.2 -3.8 4.0 -1.75 L5.45 1.6 5.45 1.65 5.5 1.6 Q6.0 2.0 6.3 2.7 L6.6 3.4 Q7.65 2.05 7.8 0.45 L7.85 -0.05 7.8 -0.6 7.35 -2.3 M-8.0 -1.55 L-7.95 -1.9 -7.85 -2.15 -8.15 -2.15 -8.35 -2.05 -8.8 -1.55 Q-9.5 -0.7 -9.4 0.4 -9.3 1.55 -8.55 2.4 -8.1 2.9 -7.45 2.95 L-7.55 2.85 -7.55 2.75 -7.6 2.7 -7.95 1.7 -7.9 1.7 -8.05 1.3 -8.2 0.25 -8.2 -0.1 -8.15 -0.55 -8.05 -1.5 -8.0 -1.55" fill="#000000" fill-rule="evenodd" stroke="none"/>
    <path d="M4.3 -5.0 L4.45 -4.95 4.4 -4.9 4.3 -5.0 M-4.55 1.45 L-4.55 1.35 -4.5 1.45 -4.55 1.45" fill="#a0accf" fill-rule="evenodd" stroke="none"/>
    <path d="M-7.7 -1.05 L-7.7 -1.25 -7.45 -1.0 -7.7 -1.05" fill="#7a8bbc" fill-rule="evenodd" stroke="none"/>
    <path d="M5.4 -5.1 L5.55 -5.0 6.3 -4.3 6.35 -4.25 6.45 -4.1 6.6 -3.95 6.85 -3.7 7.6 -2.7 7.5 -2.8 7.15 -3.25 6.85 -3.45 6.75 -3.6 5.4 -5.1 M-7.05 -3.45 L-7.1 -3.35 -7.15 -3.35 -7.15 -3.4 -7.05 -3.45" fill="#23252e" fill-rule="evenodd" stroke="none"/>
    <path d="M-7.1 -3.35 L-7.15 -3.35 -7.1 -3.35" fill="#8b94a3" fill-rule="evenodd" stroke="none"/>
    <path d="M-8.0 -1.55 L-8.05 -1.5 -8.15 -0.55 -8.05 -1.55 -8.0 -1.55 M-8.05 1.3 L-7.9 1.7 -7.95 1.7 -8.05 1.3" fill="#46579f" fill-rule="evenodd" stroke="none"/>
    <path d="M3.8 3.65 L4.15 3.8 4.4 3.8 Q5.25 3.4 5.55 2.6 L6.45 4.6 6.4 4.7 6.35 4.85 6.35 4.9 6.15 5.2 5.7 5.55 5.3 5.55 5.2 5.55 5.15 5.6 3.8 3.65" fill="#4e4e4e" fill-rule="evenodd" stroke="none"/>
    <path d="M0.25 -6.95 L0.5 -7.6 1.25 -7.6 1.35 -7.6 1.4 -7.6 2.8 -7.3 2.95 -7.25 Q4.45 -6.85 5.6 -5.9 L6.35 -5.25 6.4 -5.2 6.5 -5.1 6.6 -4.7 6.5 -4.25 6.45 -4.1 6.35 -4.25 6.3 -4.3 5.55 -5.0 5.4 -5.1 5.25 -5.2 5.15 -5.3 5.1 -5.35 4.65 -5.55 4.2 -5.85 4.05 -5.95 2.8 -6.45 2.8 -6.35 2.65 -6.4 Q2.25 -6.2 2.3 -5.75 L2.45 -5.0 2.8 -3.6 Q3.3 -1.55 4.3 0.35 L4.6 0.85 5.55 2.6 Q5.25 3.4 4.4 3.8 L4.15 3.8 3.8 3.65 Q2.35 1.95 1.6 -0.15 L1.5 -0.45 Q2.95 -0.1 2.95 -1.8 L2.9 -2.85 Q2.7 -4.65 0.95 -4.65 L0.8 -4.5 0.75 -4.45 0.75 -5.05 0.8 -5.85 Q0.95 -6.75 0.25 -6.95 M-4.8 -6.55 L-5.0 -6.35 -5.15 -6.3 -5.2 -6.3 Q-5.6 -5.85 -5.15 -5.45 L-4.95 -5.35 -5.2 -5.25 -6.0 -4.6 -6.3 -4.35 Q-6.5 -4.95 -6.3 -5.5 L-5.7 -5.95 -4.85 -6.55 -4.8 -6.55 M4.8 6.1 L5.05 6.2 5.15 6.25 5.25 6.25 4.8 6.1 M-7.95 1.7 L-7.6 2.7 -7.55 2.75 -7.55 2.85 -7.45 2.95 Q-8.1 2.9 -8.55 2.4 -9.3 1.55 -9.4 0.4 -9.5 -0.7 -8.8 -1.55 L-8.35 -2.05 -8.15 -2.15 -7.85 -2.15 -7.95 -1.9 -8.0 -1.55 -8.05 -1.55 -8.15 -0.55 -8.2 -0.1 -8.2 0.25 -8.05 1.3 -7.95 1.7" fill="#666666" fill-rule="evenodd" stroke="none"/>
    <path d="M0.5 -7.6 L0.25 -6.95 0.25 -6.8 0.05 -6.8 -1.7 -6.65 -1.75 -6.65 -3.8 -6.05 -4.85 -5.45 -4.95 -5.35 -5.15 -5.45 Q-5.6 -5.85 -5.2 -6.3 L-5.15 -6.3 -5.0 -6.35 -4.8 -6.55 -1.85 -7.35 0.5 -7.6 M0.75 -4.45 L0.8 -4.5 0.95 -4.65 Q2.7 -4.65 2.9 -2.85 L2.95 -1.8 Q2.95 -0.1 1.5 -0.45 L1.4 -0.7 Q0.8 -2.55 0.75 -4.45" fill="#999999" fill-rule="evenodd" stroke="none"/>
    <path d="M3.15 3.45 Q3.5 4.45 4.25 5.25 L4.35 5.35 4.65 5.15 4.35 5.35 Q2.95 6.15 1.3 6.35 L0.2 6.45 0.0 6.45 Q-3.25 6.45 -5.55 4.5 -6.95 3.3 -7.5 1.85 L-7.55 1.7 -7.6 1.5 -7.7 1.05 -7.8 0.55 -7.8 0.3 -7.8 0.2 -7.8 -0.05 -7.8 -0.4 -7.75 -0.65 -7.65 -0.4 Q-6.95 0.9 -5.75 1.85 L-5.5 2.05 -5.45 2.0 Q-4.4 3.1 -2.85 3.55 -0.1 4.3 2.7 3.6 L3.05 3.55 3.1 3.5 3.15 3.45 M7.35 -2.3 L7.8 -0.6 7.85 -0.05 7.8 0.45 Q7.65 2.05 6.6 3.4 L6.3 2.7 Q6.0 2.0 5.5 1.6 L5.45 1.65 5.45 1.6 4.0 -1.75 Q3.2 -3.8 2.55 -5.95 L2.55 -6.0 2.35 -6.05 2.55 -6.0 2.6 -6.0 2.65 -5.95 2.75 -5.95 2.8 -6.15 3.2 -6.0 3.25 -6.0 3.65 -5.85 3.7 -5.8 3.65 -5.4 Q3.6 -4.65 3.85 -3.95 L4.5 -2.6 Q5.15 -1.55 6.1 -0.8 L6.4 -0.55 6.3 -0.2 6.55 -1.4 Q7.15 -1.55 7.35 -2.3" fill="#400040" fill-rule="evenodd" stroke="none"/>
    <path d="M-7.7 -1.25 L-7.6 -1.55 -7.35 -2.3 -6.9 -3.2 -6.8 -3.3 -6.75 -3.4 -6.45 -3.75 -6.4 -3.8 -6.3 -3.9 -6.2 -4.05 -5.95 -4.3 -5.9 -4.35 -5.7 -4.5 -5.3 -4.85 -4.9 -5.15 -4.65 -5.3 -2.7 -6.2 -2.2 -6.35 -2.05 -6.35 -1.8 -6.4 -1.3 -6.5 -0.4 -6.55 -0.2 -6.55 0.0 -6.55 0.1 -6.55 0.05 -6.3 0.2 -6.3 Q-0.1 -4.65 0.3 -2.95 L0.8 -1.25 Q1.65 0.95 2.8 3.0 L3.15 3.45 3.1 3.5 3.05 3.55 2.7 3.6 Q-0.1 4.3 -2.85 3.55 -4.4 3.1 -5.45 2.0 L-5.5 2.05 -5.75 1.85 Q-6.95 0.9 -7.65 -0.4 L-7.75 -0.65 -7.8 -0.4 -7.7 -1.05 -7.45 -1.0 -7.7 -1.25 M3.65 -5.85 L4.15 -5.6 4.4 -5.45 4.5 -5.4 4.75 -5.25 5.5 -4.65 6.0 -4.25 6.15 -4.05 6.6 -3.55 7.15 -2.75 7.3 -2.5 7.35 -2.3 Q7.15 -1.55 6.55 -1.4 L6.3 -0.2 6.4 -0.55 6.1 -0.8 Q5.15 -1.55 4.5 -2.6 L3.85 -3.95 Q3.6 -4.65 3.65 -5.4 L3.7 -5.8 3.65 -5.85 M4.3 -5.0 L4.4 -4.9 4.45 -4.95 4.3 -5.0 M-5.9 -1.45 Q-5.8 -0.95 -5.3 -0.7 -3.45 0.15 -2.05 -1.5 L-1.35 -2.5 Q-0.85 -3.45 -1.6 -4.15 -2.45 -4.95 -3.7 -4.65 -4.45 -4.45 -5.1 -3.85 L-5.7 -2.8 Q-6.05 -2.2 -5.9 -1.45 M-4.55 1.45 L-4.5 1.45 -4.55 1.35 -4.55 1.45" fill="#73047b" fill-rule="evenodd" stroke="none"/>
    <path d="M-5.9 -1.45 Q-6.05 -2.2 -5.7 -2.8 L-5.1 -3.85 Q-4.45 -4.45 -3.7 -4.65 -2.45 -4.95 -1.6 -4.15 -0.85 -3.45 -1.35 -2.5 L-2.05 -1.5 Q-3.45 0.15 -5.3 -0.7 -5.8 -0.95 -5.9 -1.45" fill="#9c05a9" fill-rule="evenodd" stroke="none"/>
  </g>
</svg>
