<?xml version="1.0" encoding="UTF-8" standalone="no"?>
<svg xmlns:xlink="http://www.w3.org/1999/xlink" height="17.45px" width="13.55px" xmlns="http://www.w3.org/2000/svg">
  <g transform="matrix(1.0, 0.0, 0.0, 1.0, 7.15, 9.6)">
    <path d="M1.95 -8.05 L1.65 -8.6 1.2 -9.05 -0.55 -9.25 Q-1.6 -9.0 -2.35 -7.95 L-2.7 -7.4 -2.8 -7.1 -3.25 -6.25 -3.65 -5.4 -4.85 -2.7 -5.05 -2.1 -5.35 -1.05 -5.35 -0.95 -5.4 -0.65 -5.4 -0.45 -5.35 1.45 -5.4 0.9 -5.05 1.5 Q-4.75 2.45 -3.95 3.15 L-0.95 3.15 0.25 3.1 3.45 3.1 Q4.45 2.25 4.9 1.1 L4.85 0.7 4.85 0.65 4.65 -0.85 4.55 -1.3 4.45 -2.15 4.2 -3.5 4.15 -3.75 3.85 -4.55 2.9 -6.4 2.0 -8.0 1.95 -8.05 M3.75 -7.3 L4.1 -7.0 5.0 -6.0 Q5.8 -5.15 6.15 -3.9 L6.3 -3.7 6.35 -2.15 5.75 -0.6 5.8 0.55 5.65 1.4 5.65 1.55 Q6.2 1.7 6.3 2.35 L6.15 2.95 5.8 3.3 5.95 3.9 5.4 4.85 5.25 4.9 5.4 5.15 5.45 5.5 Q5.45 6.05 4.95 6.4 L4.1 6.4 4.0 6.5 2.5 7.55 -0.75 7.8 -2.65 7.3 Q-3.7 7.0 -4.1 6.35 L-4.3 6.05 -5.55 6.15 -5.9 5.7 -5.8 4.8 -6.35 4.0 Q-6.5 3.5 -6.25 3.15 L-6.35 3.1 -6.65 2.8 Q-7.1 1.85 -6.2 1.25 L-6.05 1.25 -6.15 0.85 -6.15 0.2 -6.05 -0.45 -6.1 -0.5 Q-7.15 -1.5 -7.15 -2.9 L-7.1 -3.3 Q-6.85 -4.45 -6.2 -5.5 L-5.25 -6.65 Q-4.25 -7.5 -3.0 -7.8 L-2.9 -7.85 -2.45 -8.35 -1.25 -9.6 1.75 -9.5 2.6 -8.1 3.3 -7.7 3.75 -7.3 M-3.3 -7.25 L-3.45 -7.25 Q-4.0 -7.05 -4.45 -6.55 L-5.15 -5.75 -5.6 -5.15 -6.35 -3.8 Q-6.8 -2.65 -6.1 -1.6 L-5.9 -1.15 -5.7 -1.9 -5.45 -2.85 -4.45 -5.35 -3.3 -7.25 M4.75 4.9 L4.7 4.85 4.35 4.85 4.3 4.85 4.25 4.9 4.2 4.9 Q3.9 5.15 3.95 5.55 L4.35 6.0 4.85 5.95 5.0 5.6 Q5.1 5.0 4.75 4.9 M5.25 4.5 L5.5 4.15 5.4 3.5 5.25 3.4 4.8 3.35 4.75 3.4 Q4.3 3.6 4.4 4.15 4.5 4.55 4.9 4.55 L5.25 4.5 M5.6 1.95 L5.2 1.85 5.1 1.95 5.05 1.95 Q4.7 2.2 4.85 2.6 L5.2 3.05 5.35 3.05 5.75 2.95 5.9 2.65 Q6.0 2.05 5.6 1.95 M3.4 -7.05 L3.05 -7.35 3.05 -7.3 4.25 -4.75 4.9 -3.15 5.05 -2.7 5.5 -1.45 5.95 -2.65 5.9 -3.1 5.6 -3.85 Q4.95 -5.35 3.9 -6.6 L3.4 -7.05 M-5.4 2.4 Q-5.4 1.8 -6.0 1.75 L-6.2 1.7 Q-6.7 2.0 -6.55 2.5 L-6.05 2.95 -5.65 2.95 -5.6 2.9 -5.4 2.55 -5.4 2.4 M-4.95 4.1 L-4.95 4.05 Q-4.75 3.3 -5.55 3.3 L-5.6 3.3 -5.7 3.35 -5.75 3.4 -6.0 4.0 -5.6 4.45 -5.15 4.4 -5.1 4.4 -4.95 4.1 M-4.65 5.85 L-4.55 5.7 -4.45 5.5 Q-4.35 4.95 -4.65 4.75 L-5.0 4.6 -5.2 4.6 -5.25 4.7 -5.35 4.7 -5.5 4.95 -5.6 5.4 Q-5.45 6.1 -4.65 5.85" fill="#000000" fill-rule="evenodd" stroke="none"/>
    <path d="M3.4 -7.05 L3.9 -6.6 Q4.95 -5.35 5.6 -3.85 L5.9 -3.1 5.95 -2.65 5.5 -1.45 5.05 -2.7 4.9 -3.15 4.25 -4.75 3.05 -7.3 3.05 -7.35 3.4 -7.05 M5.6 1.95 Q6.0 2.05 5.9 2.65 L5.75 2.95 5.35 3.05 5.2 3.05 4.85 2.6 Q4.7 2.2 5.05 1.95 L5.1 1.95 5.2 1.85 5.6 1.95 M5.25 4.5 L4.9 4.55 Q4.5 4.55 4.4 4.15 4.3 3.6 4.75 3.4 L4.8 3.35 5.25 3.4 5.4 3.5 5.5 4.15 5.25 4.5 M4.75 4.9 Q5.1 5.0 5.0 5.6 L4.85 5.95 4.35 6.0 3.95 5.55 Q3.9 5.15 4.2 4.9 L4.25 4.9 4.3 4.85 4.35 4.85 4.7 4.85 4.75 4.9 M-3.3 -7.25 L-4.45 -5.35 -5.45 -2.85 -5.7 -1.9 -5.9 -1.15 -6.1 -1.6 Q-6.8 -2.65 -6.35 -3.8 L-5.6 -5.15 -5.15 -5.75 -4.45 -6.55 Q-4.0 -7.05 -3.45 -7.25 L-3.3 -7.25 M-0.7 -8.05 L-0.5 -7.9 -0.85 -7.2 Q-2.25 -4.15 -2.4 -0.75 L-2.2 0.95 -2.2 1.95 -2.4 2.25 Q-3.4 2.5 -3.8 1.55 -4.25 0.6 -4.1 -0.45 -3.95 -3.3 -2.6 -5.9 L-2.05 -6.75 -1.85 -7.0 -1.45 -7.5 -1.4 -7.55 Q-1.15 -8.0 -0.7 -8.05 M-4.65 5.85 Q-5.45 6.1 -5.6 5.4 L-5.5 4.95 -5.35 4.7 -5.25 4.7 -5.2 4.6 -5.0 4.6 -4.65 4.75 Q-4.35 4.95 -4.45 5.5 L-4.55 5.7 -4.65 5.85 M-4.95 4.1 L-5.1 4.4 -5.15 4.4 -5.6 4.45 -6.0 4.0 -5.75 3.4 -5.7 3.35 -5.6 3.3 -5.55 3.3 Q-4.75 3.3 -4.95 4.05 L-4.95 4.1 M-5.4 2.4 L-5.4 2.55 -5.6 2.9 -5.65 2.95 -6.05 2.95 -6.55 2.5 Q-6.7 2.0 -6.2 1.7 L-6.0 1.75 Q-5.4 1.8 -5.4 2.4" fill="#666666" fill-rule="evenodd" stroke="none"/>
    <path d="M1.95 -8.05 L2.0 -8.0 2.9 -6.4 3.85 -4.55 4.15 -3.75 4.2 -3.5 4.45 -2.15 4.55 -1.3 4.65 -0.85 4.85 0.65 4.85 0.7 4.9 1.1 Q4.45 2.25 3.45 3.1 L0.25 3.1 -0.95 3.15 -3.95 3.15 Q-4.75 2.45 -5.05 1.5 L-5.4 0.9 -5.35 1.45 -5.4 -0.45 -5.4 -0.65 -5.35 -0.95 -5.35 -1.05 -5.05 -2.1 -4.85 -2.7 -3.65 -5.4 -3.25 -6.25 -2.8 -7.1 -2.7 -7.4 -2.35 -7.95 Q-1.6 -9.0 -0.55 -9.25 L1.2 -9.05 1.65 -8.6 1.95 -8.05 M-0.7 -8.05 Q-1.15 -8.0 -1.4 -7.55 L-1.45 -7.5 -1.85 -7.0 -2.05 -6.75 -2.6 -5.9 Q-3.95 -3.3 -4.1 -0.45 -4.25 0.6 -3.8 1.55 -3.4 2.5 -2.4 2.25 L-2.2 1.95 -2.2 0.95 -2.4 -0.75 Q-2.25 -4.15 -0.85 -7.2 L-0.5 -7.9 -0.7 -8.05" fill="#333333" fill-rule="evenodd" stroke="none"/>
  </g>
</svg>
