<?xml version="1.0" encoding="UTF-8" standalone="no"?>
<svg xmlns:xlink="http://www.w3.org/1999/xlink" height="21.75px" width="15.25px" xmlns="http://www.w3.org/2000/svg">
  <g transform="matrix(1.0, 0.0, 0.0, 1.0, 7.4, 11.85)">
    <path d="M1.6 -8.7 L1.6 -8.75 1.55 -8.8 1.55 -8.85 0.95 -10.25 0.45 -11.25 0.3 -11.3 -0.3 -11.35 -0.35 -11.35 -0.4 -11.3 -0.7 -10.75 -1.15 -10.1 -1.55 -9.3 -1.65 -8.95 -1.8 -8.6 -1.8 -8.3 -2.1 -7.4 -2.15 -7.3 -2.55 -6.9 -2.6 -6.95 -4.05 -7.6 -4.1 -7.65 -3.55 -5.35 -3.45 -5.1 -3.65 -4.5 -4.75 -1.6 -4.85 -1.5 -5.05 -1.4 -6.85 0.0 -6.95 1.55 -6.1 1.6 -4.8 1.65 -4.8 1.7 -4.6 2.45 -4.95 2.85 -4.95 2.9 -5.95 4.1 -6.35 4.95 -6.45 6.25 -5.75 6.5 -5.35 6.35 -5.35 6.3 -3.95 5.6 -3.9 5.55 -3.05 5.4 -3.0 5.45 -2.75 5.8 -2.5 6.25 -2.35 6.45 -1.15 6.55 -0.55 7.95 -0.5 8.0 0.05 9.35 0.4 9.15 0.5 8.85 0.5 8.45 0.5 8.35 0.7 7.75 1.0 6.5 2.15 6.45 3.2 5.65 4.1 6.1 5.2 6.65 6.4 6.5 Q6.35 4.4 4.8 3.1 L4.65 3.0 4.35 2.65 4.3 2.6 4.5 2.1 4.65 1.6 4.7 1.6 5.7 2.0 5.75 2.0 6.0 1.9 6.2 1.85 7.25 1.8 Q7.45 1.15 6.9 0.55 L5.95 -0.5 4.5 -1.35 4.0 -2.95 3.6 -4.2 3.55 -4.25 3.25 -5.15 3.95 -6.5 3.75 -7.75 3.65 -7.75 3.1 -7.7 2.4 -7.0 2.35 -7.1 1.95 -7.9 1.6 -8.7 M1.85 -8.95 L2.35 -7.6 3.1 -8.0 3.7 -8.2 4.2 -7.9 4.25 -7.8 Q4.65 -7.6 4.5 -7.1 L4.4 -6.85 3.8 -4.7 3.85 -4.55 4.2 -3.85 Q4.8 -2.95 5.0 -1.9 L5.1 -1.65 6.2 -0.85 Q7.3 -0.25 7.6 0.95 L7.75 1.35 Q8.0 1.95 7.5 2.4 L6.9 2.5 6.4 2.6 4.9 2.4 5.15 2.7 5.4 3.05 6.1 4.35 6.3 5.0 6.7 6.05 6.75 6.75 6.45 7.05 5.95 7.15 5.95 7.2 5.9 7.25 5.3 7.25 4.85 7.05 4.45 6.75 3.7 6.35 2.7 6.7 1.75 6.8 1.05 8.95 0.75 9.6 0.4 9.9 -0.2 9.85 -0.35 9.75 Q-1.15 9.2 -1.4 8.2 L-1.7 7.25 -1.75 7.05 -1.9 7.0 -2.1 6.85 Q-2.95 6.65 -3.15 5.85 L-4.7 6.3 -5.3 6.55 -6.05 6.75 Q-6.5 6.9 -6.7 6.5 L-6.75 6.4 -6.85 6.15 -6.8 4.75 Q-6.75 4.05 -6.35 3.5 L-5.15 2.05 -6.5 1.95 Q-7.15 2.0 -7.3 1.55 L-7.4 1.25 -7.3 -0.1 -7.15 -0.3 -5.75 -1.5 -5.25 -1.8 -4.85 -2.9 -4.35 -4.05 Q-3.8 -5.0 -4.1 -6.05 L-4.35 -6.85 -4.6 -7.75 -4.45 -8.0 -4.3 -8.1 -3.85 -8.0 -3.05 -7.75 -2.6 -7.5 -1.6 -9.95 -1.3 -10.75 Q-1.0 -11.5 -0.35 -11.85 0.45 -11.9 0.8 -11.1 L1.75 -9.1 1.85 -8.95" fill="#000000" fill-rule="evenodd" stroke="none"/>
    <path d="M0.7 -8.85 L1.6 -8.7 1.95 -7.9 2.35 -7.1 2.4 -6.35 Q2.35 -6.0 2.45 -5.6 L2.45 -5.25 2.3 -4.6 2.25 -4.3 3.15 -3.65 3.85 -2.95 3.7 -2.85 3.85 -2.95 4.0 -2.95 4.5 -1.35 4.55 -1.15 4.9 0.95 4.7 1.6 4.65 1.6 4.5 2.1 4.1 3.1 3.8 4.05 3.2 5.65 2.15 6.45 1.0 6.5 1.1 5.85 1.2 5.25 1.2 5.2 1.3 4.5 1.3 3.5 1.25 2.65 1.0 0.5 0.6 -1.4 Q0.4 -2.25 0.05 -2.4 -0.5 -1.95 -0.7 -0.95 L-1.0 0.95 -1.25 3.05 -1.3 4.6 -1.3 5.3 -1.2 6.2 -1.15 6.55 -2.35 6.45 -2.5 6.25 -2.5 6.2 -2.55 5.9 -2.75 5.8 -3.0 5.45 -3.05 5.4 -4.6 2.45 -4.8 1.7 -4.8 1.65 -4.85 1.25 -4.9 1.1 -4.95 0.55 -5.0 -0.45 -4.8 -0.85 -4.7 -1.35 -4.6 -1.6 -4.55 -1.65 -4.5 -1.8 -4.35 -2.05 -3.2 -3.35 -2.55 -3.9 -2.5 -3.9 -2.1 -4.0 -1.5 -4.0 -1.05 -3.85 -1.05 -4.0 -0.7 -3.6 -0.45 -3.45 -0.15 -3.35 0.05 -3.35 0.1 -3.35 0.35 -3.35 1.15 -4.0 Q1.6 -4.65 1.6 -5.6 L1.6 -5.85 1.4 -6.8 1.15 -7.2 0.2 -7.85 0.05 -7.85 -0.2 -7.8 -0.4 -7.75 -0.85 -7.4 -0.95 -7.4 -1.95 -7.35 -2.15 -7.3 -2.1 -7.4 -1.8 -8.3 -1.0 -8.55 0.25 -8.9 0.3 -8.95 0.7 -8.85 M1.5 -3.6 L1.4 -3.55 1.2 -3.5 1.3 -3.1 1.3 -3.05 1.35 -2.95 1.45 -2.45 1.65 -1.5 1.65 -1.45 1.7 -1.25 2.1 0.6 2.25 1.4 2.35 1.8 2.6 1.65 2.95 1.35 3.3 1.05 3.45 0.85 3.85 0.2 Q4.2 -0.7 3.85 -1.55 L3.75 -1.8 3.65 -2.05 2.95 -3.0 2.55 -3.4 2.4 -3.55 2.3 -3.6 2.05 -3.8 2.0 -3.8 1.6 -3.65 1.5 -3.6 M-2.15 -3.65 L-2.25 -3.7 -2.3 -3.6 -2.8 -3.05 -2.85 -2.95 -2.85 -2.9 -4.2 -1.3 -4.2 -1.15 -4.2 -0.85 Q-4.15 0.1 -3.7 0.8 L-3.6 0.95 -3.55 1.05 -3.25 1.4 -3.2 1.5 -3.1 1.6 -3.05 1.7 -2.5 1.95 -2.35 1.5 -2.3 1.5 -2.2 1.15 -2.15 1.15 -2.0 0.95 -1.95 0.85 -1.9 0.7 -1.8 0.35 -1.85 0.2 -1.2 -1.75 -1.35 -3.25 -1.6 -3.35 -1.65 -3.45 -1.8 -3.55 -2.05 -3.65 -2.1 -3.65 -2.15 -3.65" fill="#660000" fill-rule="evenodd" stroke="none"/>
    <path d="M0.05 -11.0 L0.45 -10.05 0.7 -8.85 0.3 -8.95 0.25 -8.9 -1.0 -8.55 -0.7 -9.9 0.05 -11.0 M2.4 -7.0 L3.1 -7.7 3.65 -7.75 3.75 -7.75 3.95 -6.5 3.25 -5.15 2.4 -7.0 M4.5 -1.35 L5.95 -0.5 6.9 0.55 Q7.45 1.15 7.25 1.8 L6.2 1.85 6.0 1.9 5.75 2.0 5.7 2.0 5.85 1.7 5.95 1.0 5.55 -0.35 4.7 -1.2 4.55 -1.15 4.5 -1.35 M4.3 2.6 L4.35 2.65 4.3 2.65 3.8 4.05 4.1 3.1 4.3 2.6 M4.8 3.1 Q6.35 4.4 6.4 6.5 L5.2 6.65 4.1 6.1 Q4.9 4.8 4.8 3.35 L4.8 3.1 M0.7 7.75 L0.5 8.35 0.5 8.45 0.45 8.5 0.3 8.35 0.3 8.3 Q0.35 7.8 -0.1 7.7 -0.3 7.65 -0.4 7.85 L-0.5 8.05 -0.3 8.5 -0.5 8.0 -0.55 7.95 Q-0.55 7.55 -0.2 7.3 0.45 7.15 0.65 7.7 L0.7 7.75 M-3.95 5.6 L-5.35 6.3 Q-5.5 5.3 -5.2 4.35 L-4.9 3.8 -4.35 5.15 -3.95 5.6 M-4.85 -1.5 L-4.75 -1.6 -3.65 -4.5 -3.25 -5.6 -3.45 -5.1 -3.55 -5.35 -3.4 -5.5 Q-2.95 -6.15 -2.65 -6.9 L-2.6 -6.95 -2.55 -6.9 -2.15 -7.3 -1.95 -7.35 -0.95 -7.4 -1.25 -7.4 -1.35 -7.25 -1.7 -5.55 -2.05 -5.7 -2.2 -5.7 -2.25 -5.65 -2.7 -4.7 -2.95 -4.15 -3.2 -3.35 -4.35 -2.05 -4.5 -1.8 -4.55 -1.65 -4.6 -1.6 -4.7 -1.35 -4.85 -1.5 M-0.2 -7.8 L0.05 -7.85 0.2 -7.85 0.65 -7.15 0.95 -5.35 Q1.0 -4.2 0.35 -3.35 L0.1 -3.35 0.05 -3.35 -0.15 -3.35 -0.45 -3.45 -0.7 -3.6 Q-0.95 -4.7 -0.7 -5.8 L-0.25 -7.3 -0.15 -7.5 -0.2 -7.5 -0.25 -7.5 -0.2 -7.8 M2.05 -2.4 L2.15 -2.75 Q2.15 -3.45 1.5 -3.5 L1.55 -3.55 1.6 -3.65 2.0 -3.8 2.05 -3.8 2.3 -3.6 2.4 -3.55 2.55 -3.4 Q2.7 -2.85 2.15 -2.45 L2.05 -2.4 M2.7 -0.45 L2.7 -1.4 2.1 -2.1 2.0 -2.1 2.9 -2.35 3.6 -2.1 3.65 -2.05 3.75 -1.8 3.85 -1.55 3.95 -1.3 3.85 -1.15 3.7 -0.85 3.5 -0.65 2.7 -0.45 M-0.45 -0.6 L0.05 -0.7 0.3 -1.1 0.15 -1.7 Q0.65 -1.65 0.55 -1.1 0.4 -0.35 -0.3 -0.5 L-0.45 -0.6 M2.95 1.35 L2.95 1.2 Q2.85 0.5 2.3 0.45 2.2 0.45 2.15 0.55 L2.3 0.4 3.25 0.2 3.8 0.25 3.45 0.85 3.3 1.05 2.95 1.35 M-0.7 2.5 L0.1 1.9 Q1.0 2.05 1.05 2.9 1.05 3.5 0.45 3.75 L-0.15 3.85 0.0 3.2 Q0.1 2.45 -0.65 2.45 L-0.7 2.5 M-0.7 0.2 L-0.3 -0.2 Q0.6 -0.35 0.8 0.4 L0.85 0.7 Q0.9 1.55 -0.1 1.65 L-0.45 1.6 -0.25 1.35 -0.1 0.9 Q0.0 0.2 -0.7 0.2 M-0.8 5.0 L-0.7 4.85 -0.25 4.5 -0.15 4.5 Q0.55 4.35 0.9 4.95 L1.0 5.55 0.95 5.85 Q0.7 6.6 -0.15 6.45 L-0.1 6.45 -0.05 6.35 Q0.1 5.85 -0.15 5.4 L-0.1 5.2 -0.35 4.9 -0.55 4.9 -0.8 5.0 M-2.8 -3.05 L-2.8 -3.0 Q-2.65 -2.4 -2.0 -2.6 L-1.75 -2.9 -1.65 -3.25 -1.65 -3.45 -1.6 -3.35 -1.5 -3.2 Q-1.15 -2.35 -2.05 -2.1 -2.45 -1.95 -2.7 -2.3 L-2.85 -2.9 -2.85 -2.95 -2.8 -3.05 M-3.4 -0.05 L-3.35 -0.1 -3.0 -0.25 Q-2.35 -0.35 -2.1 0.2 L-1.9 0.7 -1.95 0.85 -2.0 0.95 -2.15 1.15 -2.2 1.15 -2.3 1.5 -2.35 1.5 -2.65 1.6 -3.1 1.6 -3.2 1.5 -3.25 1.4 -3.55 1.05 -3.35 1.0 -2.95 0.7 -2.85 0.5 Q-2.9 0.0 -3.4 -0.05 M-3.45 -0.8 L-3.35 -0.85 Q-2.9 -1.15 -2.9 -1.65 L-3.05 -2.15 -3.2 -2.2 Q-2.6 -2.2 -2.2 -1.6 -1.65 -1.4 -1.75 -0.85 L-1.9 -0.55 Q-2.75 -0.35 -3.45 -0.8" fill="#cc0000" fill-rule="evenodd" stroke="none"/>
    <path d="M0.05 -11.0 L0.3 -11.3 0.45 -11.25 0.95 -10.25 1.55 -8.85 1.55 -8.8 1.6 -8.75 1.6 -8.7 0.7 -8.85 0.45 -10.05 0.05 -11.0 M2.35 -7.1 L2.4 -7.0 3.25 -5.15 3.55 -4.25 3.6 -4.2 4.0 -2.95 3.85 -2.95 3.7 -2.85 3.85 -2.95 3.15 -3.65 2.25 -4.3 2.3 -4.6 2.45 -5.25 2.45 -5.6 Q2.35 -6.0 2.4 -6.35 L2.35 -7.1 M5.7 2.0 L4.7 1.6 4.9 0.95 4.55 -1.15 4.7 -1.2 5.55 -0.35 5.95 1.0 5.85 1.7 5.7 2.0 M4.5 2.1 L4.3 2.6 4.1 3.1 4.5 2.1 M4.35 2.65 L4.65 3.0 4.8 3.1 4.8 3.35 Q4.9 4.8 4.1 6.1 L3.2 5.65 3.8 4.05 4.3 2.65 4.35 2.65 M1.0 6.5 L0.7 7.75 0.65 7.7 Q0.45 7.15 -0.2 7.3 -0.55 7.55 -0.55 7.95 L-1.15 6.55 -1.2 6.2 -1.3 5.3 -1.3 4.6 -1.25 3.05 -1.0 0.95 -0.7 -0.95 Q-0.5 -1.95 0.05 -2.4 0.4 -2.25 0.6 -1.4 L1.0 0.5 1.25 2.65 1.3 3.5 1.3 4.5 1.2 5.2 1.2 5.25 1.1 5.85 1.0 6.5 M0.5 8.45 L0.5 8.85 0.4 9.15 0.05 9.35 -0.5 8.0 -0.3 8.5 Q0.15 8.75 0.45 8.5 L0.5 8.45 M-2.5 6.25 L-2.75 5.8 -2.55 5.9 -2.5 6.2 -2.5 6.25 M-3.05 5.4 L-3.9 5.55 -3.95 5.6 -4.35 5.15 -4.9 3.8 -4.95 2.9 -4.95 2.85 -4.6 2.45 -3.05 5.4 M-4.8 1.65 L-6.1 1.6 -6.2 1.15 Q-5.9 -0.25 -5.05 -1.4 L-4.85 -1.5 -4.7 -1.35 -4.8 -0.85 -5.0 -0.45 -4.95 0.55 -4.9 1.1 -4.85 1.25 -4.8 1.65 M-3.65 -4.5 L-3.45 -5.1 -3.25 -5.6 -3.65 -4.5 M0.35 -3.35 Q1.0 -4.2 0.95 -5.35 L0.65 -7.15 0.2 -7.85 1.15 -7.2 1.4 -6.8 1.6 -5.85 1.6 -5.6 Q1.6 -4.65 1.15 -4.0 L0.35 -3.35 M1.55 -3.55 L1.5 -3.6 1.6 -3.65 1.55 -3.55 M1.45 -2.45 L1.5 -2.15 1.55 -2.25 1.6 -2.35 2.05 -2.4 2.15 -2.45 Q2.7 -2.85 2.55 -3.4 L2.95 -3.0 3.65 -2.05 3.6 -2.1 2.9 -2.35 2.0 -2.1 1.75 -1.8 1.65 -1.5 1.45 -2.45 M2.7 -0.45 L3.5 -0.65 3.7 -0.85 3.85 -1.15 3.95 -1.3 3.85 -1.55 Q4.2 -0.7 3.85 0.2 L3.45 0.85 3.8 0.25 3.25 0.2 2.3 0.4 2.15 0.55 2.1 0.6 1.7 -1.25 1.8 -1.1 1.8 -1.0 1.9 -0.85 Q2.25 -0.5 2.7 -0.45 M0.15 -1.7 L0.0 -1.7 -0.2 -1.65 Q-0.7 -1.3 -0.55 -0.75 L-0.45 -0.6 -0.3 -0.5 Q0.4 -0.35 0.55 -1.1 0.65 -1.65 0.15 -1.7 M2.25 1.4 L2.6 1.65 2.35 1.8 2.25 1.4 M-0.15 3.85 L0.45 3.75 Q1.05 3.5 1.05 2.9 1.0 2.05 0.1 1.9 L-0.7 2.5 -0.75 2.55 Q-0.95 2.9 -0.75 3.3 L-0.55 3.6 -0.15 3.85 M-0.45 1.6 L-0.1 1.65 Q0.9 1.55 0.85 0.7 L0.8 0.4 Q0.6 -0.35 -0.3 -0.2 L-0.7 0.2 -0.85 0.65 -0.9 0.75 Q-1.0 1.3 -0.55 1.55 L-0.5 1.6 -0.45 1.6 M-0.15 6.45 Q0.7 6.6 0.95 5.85 L1.0 5.55 0.9 4.95 Q0.55 4.35 -0.15 4.5 L-0.25 4.5 -0.7 4.85 -0.8 5.0 Q-1.2 5.6 -0.65 6.2 L-0.15 6.45 M-1.7 -5.55 Q-1.45 -5.35 -1.5 -4.9 L-1.5 -4.0 -2.1 -4.0 -2.5 -3.9 -2.55 -3.9 -3.2 -3.35 -2.95 -4.15 -2.7 -4.7 -2.25 -5.65 -2.2 -5.7 -2.05 -5.7 -1.7 -5.55 M-2.15 -3.65 L-2.3 -3.6 -2.25 -3.7 -2.15 -3.65 M-2.85 -2.9 L-2.7 -2.3 Q-2.45 -1.95 -2.05 -2.1 -1.15 -2.35 -1.5 -3.2 L-1.6 -3.35 -1.35 -3.25 -1.2 -1.75 -1.85 0.2 -1.8 0.35 -1.9 0.7 -2.1 0.2 Q-2.35 -0.35 -3.0 -0.25 L-3.35 -0.1 -3.4 -0.05 -3.6 0.2 -3.6 0.95 -3.7 0.8 Q-4.15 0.1 -4.2 -0.85 L-4.2 -1.15 -4.2 -1.3 -2.85 -2.9 M-3.2 -2.2 L-3.25 -2.2 Q-3.8 -1.95 -3.9 -1.35 L-3.85 -1.15 -3.45 -0.8 Q-2.75 -0.35 -1.9 -0.55 L-1.75 -0.85 Q-1.65 -1.4 -2.2 -1.6 -2.6 -2.2 -3.2 -2.2 M-2.35 1.5 L-2.5 1.95 -3.05 1.7 -3.1 1.6 -2.65 1.6 -2.35 1.5" fill="#990000" fill-rule="evenodd" stroke="none"/>
    <path d="M0.3 -11.3 L0.05 -11.0 -0.7 -9.9 -1.0 -8.55 -1.8 -8.3 -1.8 -8.6 -1.65 -8.95 -1.55 -9.3 -1.15 -10.1 -0.7 -10.75 -0.4 -11.3 -0.35 -11.35 -0.3 -11.35 0.3 -11.3 M-5.35 6.3 L-5.35 6.35 -5.75 6.5 -6.45 6.25 -6.35 4.95 -5.95 4.1 -4.95 2.9 -4.9 3.8 -5.2 4.35 Q-5.5 5.3 -5.35 6.3 M-6.1 1.6 L-6.95 1.55 -6.85 0.0 -5.05 -1.4 Q-5.9 -0.25 -6.2 1.15 L-6.1 1.6 M-3.55 -5.35 L-4.1 -7.65 -4.05 -7.6 -2.6 -6.95 -2.65 -6.9 Q-2.95 -6.15 -3.4 -5.5 L-3.55 -5.35 M-0.2 -7.8 L-0.25 -7.5 -0.2 -7.5 -0.15 -7.5 -0.25 -7.3 -0.7 -5.8 Q-0.95 -4.7 -0.7 -3.6 L-1.05 -4.0 -1.05 -3.85 -1.5 -4.0 -1.5 -4.9 Q-1.45 -5.35 -1.7 -5.55 L-1.35 -7.25 -1.25 -7.4 -0.95 -7.4 -0.85 -7.4 -0.4 -7.75 -0.2 -7.8 M1.55 -3.55 L1.5 -3.5 Q2.15 -3.45 2.15 -2.75 L2.05 -2.4 1.6 -2.35 1.55 -2.25 1.5 -2.15 1.45 -2.45 1.35 -2.95 1.3 -3.05 1.3 -3.1 1.2 -3.5 1.4 -3.55 1.5 -3.6 1.55 -3.55 M2.0 -2.1 L2.1 -2.1 2.7 -1.4 2.7 -0.45 Q2.25 -0.5 1.9 -0.85 L1.8 -1.0 1.8 -1.1 1.7 -1.25 1.65 -1.45 1.65 -1.5 1.75 -1.8 2.0 -2.1 M-0.45 -0.6 L-0.55 -0.75 Q-0.7 -1.3 -0.2 -1.65 L0.0 -1.7 0.15 -1.7 0.3 -1.1 0.05 -0.7 -0.45 -0.6 M2.15 0.55 Q2.2 0.45 2.3 0.45 2.85 0.5 2.95 1.2 L2.95 1.35 2.6 1.65 2.25 1.4 2.1 0.6 2.15 0.55 M-0.15 3.85 L-0.55 3.6 -0.75 3.3 Q-0.95 2.9 -0.75 2.55 L-0.7 2.5 -0.65 2.45 Q0.1 2.45 0.0 3.2 L-0.15 3.85 M-0.45 1.6 L-0.5 1.6 -0.55 1.55 Q-1.0 1.3 -0.9 0.75 L-0.85 0.65 -0.7 0.2 Q0.0 0.2 -0.1 0.9 L-0.25 1.35 -0.45 1.6 M-0.15 6.45 L-0.65 6.2 Q-1.2 5.6 -0.8 5.0 L-0.55 4.9 -0.35 4.9 -0.1 5.2 -0.15 5.4 Q0.1 5.85 -0.05 6.35 L-0.1 6.45 -0.15 6.45 M-0.3 8.5 L-0.5 8.05 -0.4 7.85 Q-0.3 7.65 -0.1 7.7 0.35 7.8 0.3 8.3 L0.3 8.35 0.45 8.5 Q0.15 8.75 -0.3 8.5 M-2.3 -3.6 L-2.15 -3.65 -2.1 -3.65 -2.05 -3.65 -1.8 -3.55 -1.65 -3.45 -1.65 -3.25 -1.75 -2.9 -2.0 -2.6 Q-2.65 -2.4 -2.8 -3.0 L-2.8 -3.05 -2.3 -3.6 M-3.6 0.95 L-3.6 0.2 -3.4 -0.05 Q-2.9 0.0 -2.85 0.5 L-2.95 0.7 -3.35 1.0 -3.55 1.05 -3.6 0.95 M-3.2 -2.2 L-3.05 -2.15 -2.9 -1.65 Q-2.9 -1.15 -3.35 -0.85 L-3.45 -0.8 -3.85 -1.15 -3.9 -1.35 Q-3.8 -1.95 -3.25 -2.2 L-3.2 -2.2" fill="#ff6633" fill-rule="evenodd" stroke="none"/>
  </g>
</svg>
