<?xml version="1.0" encoding="UTF-8" standalone="no"?>
<svg xmlns:xlink="http://www.w3.org/1999/xlink" height="20.85px" width="15.55px" xmlns="http://www.w3.org/2000/svg">
  <g transform="matrix(1.0, 0.0, 0.0, 1.0, 6.55, 10.4)">
    <path d="M6.95 -8.45 L6.25 -9.25 4.85 -9.95 4.7 -10.0 Q3.65 -10.25 2.95 -9.55 L3.35 -3.65 Q3.6 -0.6 6.5 -0.45 7.35 -0.4 7.7 -1.1 8.55 -2.8 8.55 -4.7 L8.35 -5.05 8.3 -5.3 7.95 -6.2 6.95 -8.45 M5.7 -10.1 Q6.0 -9.9 6.35 -9.8 L7.2 -8.8 Q8.25 -7.4 8.8 -5.75 L9.0 -4.3 9.0 -4.1 8.9 -2.3 8.45 -1.35 Q8.15 -0.7 7.5 -0.45 5.85 0.15 4.6 -0.85 L4.1 -1.35 Q3.45 -2.3 3.2 -3.45 L2.6 -6.95 Q2.4 -8.15 2.65 -9.35 L2.75 -9.6 Q3.3 -10.5 4.4 -10.35 L4.55 -10.4 4.75 -10.4 5.5 -10.25 5.7 -10.1 M-5.8 1.9 L-5.85 2.1 -5.85 2.35 -6.1 5.25 -5.95 6.4 -5.5 8.0 Q-4.85 9.1 -3.65 9.6 L-1.65 9.55 -1.2 8.95 -1.05 8.65 -1.0 8.05 -0.85 7.1 -0.8 6.85 -0.8 6.55 -0.8 5.6 -1.0 3.85 -1.15 3.35 Q-0.75 3.65 -0.55 4.25 0.1 6.2 -0.35 8.3 L-0.6 9.2 Q-1.1 10.5 -2.55 10.45 L-4.0 10.0 -4.85 9.4 -5.75 8.3 -5.85 8.15 Q-6.45 7.15 -6.55 5.9 -6.65 4.25 -6.2 2.75 L-6.1 2.35 -6.0 2.2 -5.95 2.1 -5.8 1.9 M-4.05 5.6 L-4.0 5.65 -2.8 5.5 -2.1 5.15 -1.9 5.05 Q-1.45 5.3 -1.75 5.75 -2.1 6.25 -2.7 6.45 L-3.55 6.25 -4.05 5.9 -4.4 5.55 -4.4 5.5 -4.35 5.5 -4.35 5.45 -4.3 5.45 -4.05 5.6" fill="#000000" fill-rule="evenodd" stroke="none"/>
    <path d="M-4.15 0.65 L-4.2 0.7 -4.2 0.65 -4.15 0.65" fill="#6666cc" fill-rule="evenodd" stroke="none"/>
    <path d="M6.95 -8.45 L7.95 -6.2 8.3 -5.3 8.35 -5.05 8.55 -4.7 Q8.55 -2.8 7.7 -1.1 7.35 -0.4 6.5 -0.45 3.6 -0.6 3.35 -3.65 L2.95 -9.55 Q3.65 -10.25 4.7 -10.0 L4.85 -9.95 6.25 -9.25 6.95 -8.45 M-4.2 0.7 L-4.15 0.65 Q-1.85 1.15 -1.15 3.35 L-1.0 3.85 -0.8 5.6 -0.8 6.55 -0.8 6.85 -0.85 7.1 -1.0 8.05 -1.05 8.65 -1.2 8.95 -1.65 9.55 -3.65 9.6 Q-4.85 9.1 -5.5 8.0 L-5.95 6.4 -6.1 5.25 -5.85 2.35 -5.85 2.1 -5.8 1.9 -5.8 1.7 -5.6 1.2 Q-5.0 0.7 -4.2 0.7 M-4.05 5.6 L-4.3 5.45 -4.35 5.45 -4.35 5.5 -4.4 5.5 -4.4 5.55 -4.05 5.9 -3.55 6.25 -2.7 6.45 Q-2.1 6.25 -1.75 5.75 -1.45 5.3 -1.9 5.05 L-2.1 5.15 -2.8 5.5 -4.0 5.65 -4.05 5.6" fill="#999999" fill-rule="evenodd" stroke="none"/>
  </g>
</svg>
