<?xml version="1.0" encoding="UTF-8" standalone="no"?>
<svg xmlns:xlink="http://www.w3.org/1999/xlink" height="15.9px" width="30.65px" xmlns="http://www.w3.org/2000/svg">
  <g transform="matrix(1.0, 0.0, 0.0, 1.0, 15.35, 7.95)">
    <path d="M11.4 -1.1 L11.45 -1.15 11.8 -1.25 11.95 -1.3 Q13.35 -1.3 14.2 -0.15 15.55 1.75 15.25 4.1 L15.05 5.3 Q14.65 6.65 13.6 7.6 L10.8 7.7 10.25 7.2 Q9.85 6.35 10.0 5.4 L10.2 4.4 10.4 4.05 10.4 5.3 10.45 6.75 10.8 7.35 12.8 7.4 14.2 6.05 14.7 5.45 14.9 4.0 14.95 3.75 14.65 2.0 Q14.3 0.9 13.55 0.05 13.1 -0.5 12.45 -0.8 L12.25 -0.95 11.4 -1.1 M-9.65 0.6 L-9.55 1.05 -9.7 1.3 -9.75 1.3 Q-11.05 -0.15 -11.3 -2.1 -11.7 -3.3 -11.3 -4.4 L-11.0 -3.95 -12.25 -6.0 -12.25 -6.05 -12.35 -6.25 -12.15 -7.0 -12.1 -7.2 -12.05 -7.45 -12.05 -7.55 -12.6 -7.5 -12.8 -7.4 -13.05 -7.2 -13.4 -6.6 -14.6 -4.1 -14.6 -4.0 Q-14.95 -1.95 -14.8 0.0 L-14.75 0.6 -14.7 0.7 Q-14.5 1.6 -13.85 2.15 -14.5 2.15 -14.7 1.5 L-14.9 0.95 Q-15.3 -0.3 -15.35 -1.7 -15.45 -3.85 -14.5 -5.75 L-13.35 -7.35 -12.95 -7.7 -12.9 -7.75 -12.55 -7.85 -12.5 -7.9 -12.2 -7.9 -12.2 -7.95 -12.05 -7.9 -12.0 -7.9 -11.9 -7.8 -11.85 -7.75 -11.85 -7.7 -11.75 -7.6 -11.75 -6.25 -11.65 -5.75 -11.6 -5.95 -11.6 -5.8 -11.4 -5.25 -11.35 -5.25 -11.25 -5.4 -11.1 -5.55 -10.9 -6.0 -10.7 -6.15 -10.5 -6.15 Q-9.95 -5.65 -10.3 -4.95 L-10.4 -4.45 -10.8 -3.5 -10.9 -3.15 Q-11.05 -2.35 -10.7 -1.65 L-10.45 -1.15 -10.4 -0.95 -10.2 -0.5 -10.1 -0.35 -10.0 -0.15 -9.75 0.25 -9.65 0.6" fill="#000000" fill-rule="evenodd" stroke="none"/>
    <path d="M10.4 4.05 L10.4 3.15 10.45 2.7 Q10.4 1.7 11.0 0.95 L10.8 0.6 11.2 -0.45 11.4 -1.1 12.25 -0.95 12.45 -0.8 Q13.1 -0.5 13.55 0.05 14.3 0.9 14.65 2.0 L14.95 3.75 14.9 4.0 14.7 5.45 14.2 6.05 12.8 7.4 10.8 7.35 10.45 6.75 10.4 5.3 10.4 4.05 M-13.85 2.15 Q-14.5 1.6 -14.7 0.7 L-14.75 0.6 -14.8 0.0 Q-14.95 -1.95 -14.6 -4.0 L-14.6 -4.1 -13.4 -6.6 -13.05 -7.2 -12.8 -7.4 -12.6 -7.5 -12.05 -7.55 -12.05 -7.45 -12.1 -7.2 -12.15 -7.0 -12.35 -6.25 -12.25 -6.05 -12.25 -6.0 -11.0 -3.95 -11.3 -4.4 Q-11.7 -3.3 -11.3 -2.1 -11.05 -0.15 -9.75 1.3 L-9.7 1.3 -9.55 1.05 -9.65 0.6 Q-9.5 1.05 -9.5 1.6 L-9.5 1.65 -9.5 2.0 Q-10.35 2.7 -12.0 3.0 -13.15 2.75 -13.85 2.15" fill="#999999" fill-rule="evenodd" stroke="none"/>
  </g>
</svg>
