<?xml version="1.0" encoding="UTF-8" standalone="no"?>
<svg xmlns:xlink="http://www.w3.org/1999/xlink" height="12.5px" width="26.15px" xmlns="http://www.w3.org/2000/svg">
  <g transform="matrix(1.0, 0.0, 0.0, 1.0, 13.0, 7.55)">
    <path d="M7.1 -6.55 L8.3 -6.55 8.2 -6.6 8.15 -6.6 7.1 -6.55 M8.2 -7.5 L10.1 -7.25 10.35 -7.15 Q11.65 -6.4 12.5 -5.15 13.25 -4.1 13.15 -2.7 L13.1 -2.3 13.1 -2.15 12.85 -0.95 12.8 -0.8 11.65 0.7 Q10.25 1.9 8.35 1.95 L5.5 1.95 5.5 -2.55 0.7 -2.55 0.7 -6.55 0.05 -6.55 0.05 -2.55 -2.75 -2.55 -2.75 -6.55 -3.25 -6.55 -3.25 -2.55 -6.45 -2.55 -6.45 1.95 -8.2 1.95 Q-10.15 1.9 -11.5 0.7 -12.95 -0.5 -12.95 -2.2 L-13.0 -2.4 -12.9 -3.6 -12.85 -3.8 -12.1 -5.65 Q-11.5 -6.45 -10.55 -6.9 L-10.5 -6.95 -9.85 -7.2 -8.9 -7.4 -8.55 -7.4 -8.4 -7.4 -6.1 -7.55 -0.4 -7.55 8.1 -7.5 8.2 -7.5" fill="#000000" fill-rule="evenodd" stroke="none"/>
    <path d="M9.1 -5.9 L9.95 -5.45 Q10.4 -5.15 10.45 -4.6 L10.45 -3.9 9.85 -2.7 9.55 -2.45 6.7 -2.4 Q6.2 -2.7 6.05 -3.25 L6.0 -3.7 Q5.85 -4.6 6.25 -5.15 L6.85 -5.7 7.15 -5.9 7.6 -6.05 9.1 -5.9 M-7.5 -4.65 L-7.5 -4.6 -7.5 -4.35 -7.7 -3.7 Q-8.0 -2.4 -9.3 -1.9 -10.1 -1.65 -10.85 -1.9 -11.7 -2.2 -11.75 -3.1 -11.85 -4.55 -10.6 -5.4 L-9.4 -6.0 -8.35 -5.75 -8.0 -5.5 -8.0 -5.45 -7.85 -5.3 -7.75 -5.1 -7.7 -5.05 -7.65 -4.95 -7.5 -4.65" fill="#666666" fill-rule="evenodd" stroke="none"/>
    <path d="M7.85 -7.15 L8.0 -7.15 Q9.9 -7.1 11.3 -5.9 12.75 -4.7 12.75 -2.9 12.75 -1.15 11.3 0.1 9.9 1.3 8.0 1.35 L5.15 1.35 5.15 -3.15 -6.15 -3.15 -6.15 1.35 -7.9 1.35 Q-9.85 1.3 -11.2 0.1 -12.65 -1.15 -12.65 -2.9 -12.65 -4.7 -11.2 -5.9 -9.9 -7.05 -8.05 -7.15 L-9.05 -6.0 -8.35 -5.75 -9.4 -6.0 -10.6 -5.4 Q-11.85 -4.55 -11.75 -3.1 -11.7 -2.2 -10.85 -1.9 -10.1 -1.65 -9.3 -1.9 -8.0 -2.4 -7.7 -3.7 L-7.5 -4.35 -7.5 -4.6 -7.5 -4.65 -7.5 -4.7 -7.05 -5.25 Q-6.45 -5.1 -5.9 -5.5 L-5.85 -5.5 -3.0 -5.95 -2.95 -5.95 1.65 -6.3 1.7 -6.4 1.8 -6.55 2.45 -6.45 2.6 -6.45 4.15 -6.2 4.55 -6.05 6.25 -5.15 Q5.85 -4.6 6.0 -3.7 L6.05 -3.25 Q6.2 -2.7 6.7 -2.4 L9.55 -2.45 9.85 -2.7 10.45 -3.9 10.45 -4.6 Q10.4 -5.15 9.95 -5.45 L9.1 -5.9 8.65 -6.6 7.85 -7.15" fill="#333333" fill-rule="evenodd" stroke="none"/>
    <path d="M7.85 -7.15 L8.65 -6.6 9.1 -5.9 7.6 -6.05 7.15 -5.9 6.85 -5.7 6.25 -5.15 4.55 -6.05 4.15 -6.2 2.6 -6.45 2.45 -6.45 1.8 -6.55 1.7 -6.4 1.65 -6.3 -2.95 -5.95 -3.0 -5.95 -5.85 -5.5 -5.9 -5.5 Q-6.45 -5.1 -7.05 -5.25 L-7.5 -4.7 -7.5 -4.65 -7.65 -4.95 -7.7 -5.05 -7.75 -5.1 -7.85 -5.3 -8.0 -5.45 -8.0 -5.5 -8.35 -5.75 -9.05 -6.0 -8.05 -7.15 -7.9 -7.15 7.85 -7.15" fill="#000000" fill-rule="evenodd" stroke="none"/>
    <path d="M3.2 -6.3 Q5.6 -6.25 7.3 -4.8 9.05 -3.3 9.05 -1.1 9.05 1.1 7.3 2.6 5.8 3.85 3.8 4.1 L3.4 4.75 1.85 4.65 1.55 4.25 1.55 4.15 1.5 4.15 1.4 4.4 0.8 4.75 Q-0.2 5.0 -0.55 4.15 L-3.4 4.15 Q-5.8 4.05 -7.45 2.6 -9.25 1.1 -9.25 -1.1 -9.25 -3.3 -7.45 -4.8 -5.8 -6.25 -3.4 -6.3 L3.2 -6.3" fill="#000000" fill-rule="evenodd" stroke="none"/>
    <path d="M2.5 3.55 L2.6 2.6 2.6 2.25 2.45 0.05 2.35 -0.7 Q2.15 -2.15 2.3 -3.6 L2.3 -6.55 2.2 -6.9 2.75 -6.9 3.45 -6.85 3.1 -6.9 Q3.0 -6.1 3.05 -5.3 L3.05 -2.35 3.05 0.65 3.05 3.5 3.4 3.5 2.75 3.55 2.5 3.55 M0.85 -6.9 L0.8 -6.6 0.85 -5.65 0.95 -3.5 1.0 -2.75 1.0 -0.2 0.95 -0.05 Q0.5 1.25 0.65 2.65 L0.8 3.1 1.05 3.55 0.25 3.55 0.25 2.15 0.25 -0.85 0.25 -3.8 0.25 -6.75 0.25 -6.9 0.85 -6.9 M-0.8 -6.9 L-0.85 -6.9 -0.8 -6.9 M-7.65 1.35 L-7.75 0.55 -7.7 -1.2 Q-7.55 -1.95 -7.0 -2.3 L-6.6 -1.65 -6.15 -1.1 -4.65 -1.15 Q-3.85 -1.5 -3.5 -2.2 L-3.3 -2.65 -0.75 -2.7 -0.75 3.55 -2.9 3.55 -4.05 3.5 -5.1 3.15 -6.0 2.6 -6.95 2.0 -7.65 1.35 M4.05 3.4 L4.05 -2.65 5.55 -2.2 6.1 -2.05 6.85 -1.15 7.3 -0.3 7.35 -0.15 7.1 0.95 6.9 1.5 6.35 2.4 4.65 3.15 4.05 3.4 M-0.75 -5.65 L-0.75 -5.3 -0.75 -5.65 M-4.35 -0.9 Q-4.8 -0.15 -4.4 0.65 -3.9 1.55 -2.9 1.5 -1.9 1.3 -1.5 0.65 -0.9 -0.25 -1.6 -1.15 -2.0 -1.7 -2.75 -1.85 -3.85 -1.8 -4.35 -0.9" fill="#999999" fill-rule="evenodd" stroke="none"/>
    <path d="M2.2 -6.9 L2.3 -6.55 2.3 -3.6 Q2.15 -2.15 2.35 -0.7 L2.45 0.05 2.6 2.25 2.6 2.6 2.5 3.55 1.05 3.55 0.8 3.1 0.65 2.65 Q0.5 1.25 0.95 -0.05 L1.0 -0.2 1.0 -2.75 0.95 -3.5 0.85 -5.65 0.8 -6.6 0.85 -6.9 2.2 -6.9 M3.4 3.5 L3.05 3.5 3.05 0.65 3.05 -2.35 3.05 -5.3 Q3.0 -6.1 3.1 -6.9 L3.45 -6.85 3.85 -6.8 3.95 -6.8 4.05 -6.75 Q5.3 -6.5 6.3 -5.8 L6.35 -5.8 6.75 -5.45 6.85 -5.4 6.9 -5.3 7.4 -4.8 Q8.6 -3.5 8.6 -1.7 L8.45 -0.45 Q8.1 0.95 6.85 2.0 L6.35 2.4 6.9 1.5 7.1 0.95 7.35 -0.15 7.3 -0.3 6.85 -1.15 6.1 -2.05 5.55 -2.2 4.05 -2.65 4.05 3.4 3.85 3.4 3.7 3.45 3.4 3.5 M0.25 -6.9 L0.25 -6.75 0.25 -3.8 0.25 -0.85 0.25 2.15 0.25 3.55 -0.75 3.55 -0.75 -2.7 -3.3 -2.65 -3.3 -2.75 -3.3 -2.85 -3.3 -3.25 -3.6 -4.05 Q-4.0 -4.65 -4.65 -4.75 L-5.25 -4.8 -5.3 -4.8 -5.4 -4.75 -5.45 -4.75 -5.95 -4.65 -6.4 -4.45 -7.05 -3.3 -7.1 -3.0 -7.05 -2.45 -7.05 -2.4 -7.0 -2.3 Q-7.55 -1.95 -7.7 -1.2 L-7.75 0.55 -7.65 1.35 Q-8.55 0.25 -8.7 -1.15 L-8.75 -1.7 Q-8.75 -3.45 -7.6 -4.75 L-6.95 -5.4 -6.8 -5.5 -6.55 -5.75 -6.5 -5.75 Q-5.0 -6.85 -2.9 -6.9 L-0.85 -6.9 -0.8 -6.9 0.25 -6.9 M-0.75 -5.65 L-0.75 -5.3 -0.75 -5.65" fill="#666666" fill-rule="evenodd" stroke="none"/>
    <path d="M-7.0 -2.3 L-7.05 -2.4 -7.05 -2.45 -7.1 -3.0 -7.05 -3.3 -6.4 -4.45 -5.95 -4.65 -5.45 -4.75 -5.4 -4.75 -5.3 -4.8 -5.25 -4.8 -4.65 -4.75 Q-4.0 -4.65 -3.6 -4.05 L-3.3 -3.25 -3.3 -2.85 -3.3 -2.75 -3.3 -2.65 -3.5 -2.2 Q-3.85 -1.5 -4.65 -1.15 L-6.15 -1.1 -6.6 -1.65 -7.0 -2.3 M-6.35 -2.6 L-6.15 -2.1 Q-5.65 -1.45 -4.9 -1.8 -4.4 -2.05 -4.25 -2.5 -4.1 -2.8 -4.2 -3.15 -4.5 -4.1 -5.5 -4.05 -6.6 -3.7 -6.35 -2.6 M-4.35 -0.9 Q-3.85 -1.8 -2.75 -1.85 -2.0 -1.7 -1.6 -1.15 -0.9 -0.25 -1.5 0.65 -1.9 1.3 -2.9 1.5 -3.9 1.55 -4.4 0.65 -4.8 -0.15 -4.35 -0.9" fill="#333333" fill-rule="evenodd" stroke="none"/>
    <path d="M-6.35 -2.6 Q-6.6 -3.7 -5.5 -4.05 -4.5 -4.1 -4.2 -3.15 -4.1 -2.8 -4.25 -2.5 -4.4 -2.05 -4.9 -1.8 -5.65 -1.45 -6.15 -2.1 L-6.35 -2.6" fill="#cc3300" fill-rule="evenodd" stroke="none"/>
    <path d="M-1.65 -0.1 Q-1.7 0.4 -2.05 0.75 -2.4 1.1 -2.9 1.15 L-3.8 0.75 -4.15 -0.1 Q-4.2 -0.65 -3.8 -1.0 L-2.9 -1.35 Q-2.4 -1.4 -2.05 -1.0 -1.7 -0.65 -1.65 -0.1" fill="#ffcc00" fill-rule="evenodd" stroke="none"/>
    <path d="M-6.85 -2.85 Q-6.9 -3.5 -6.45 -3.95 -6.0 -4.4 -5.35 -4.4 -4.75 -4.4 -4.3 -3.95 -3.85 -3.5 -3.8 -2.85 -3.85 -2.25 -4.3 -1.85 -4.75 -1.35 -5.35 -1.35 -6.0 -1.35 -6.45 -1.85 -6.9 -2.25 -6.85 -2.85" fill="#ff3300" fill-rule="evenodd" stroke="none"/>
    <path d="M0.5 3.85 L0.5 -6.75 M2.75 3.85 L2.75 -6.75" fill="none" stroke="#cccccc" stroke-linecap="round" stroke-linejoin="round" stroke-width="1.0"/>
  </g>
</svg>
