<?xml version="1.0" encoding="UTF-8" standalone="no"?>
<svg xmlns:xlink="http://www.w3.org/1999/xlink" height="23.35px" width="28.9px" xmlns="http://www.w3.org/2000/svg">
  <g transform="matrix(1.0, 0.0, 0.0, 1.0, 14.45, 11.75)">
    <path d="M11.0 11.45 Q10.2 11.1 9.8 10.35 L9.35 9.25 9.15 8.8 9.1 8.55 Q8.9 7.75 8.85 6.95 L8.6 4.0 8.6 3.4 Q8.55 1.9 8.8 0.5 L8.8 0.3 8.8 0.1 8.6 -1.1 8.35 -4.1 8.35 -6.15 8.35 -6.4 8.3 -6.65 8.4 -6.85 8.3 -8.15 8.1 -8.55 Q7.55 -8.75 7.15 -9.05 L6.5 -9.8 6.5 -10.25 6.55 -10.3 6.6 -10.3 6.7 -10.5 6.8 -10.55 8.7 -10.55 8.8 -10.6 9.6 -10.85 10.0 -11.0 10.05 -11.0 10.35 -11.15 11.1 -11.5 11.15 -11.55 11.3 -11.65 11.8 -11.75 13.4 -11.6 13.6 -11.55 14.15 -11.2 14.4 -10.95 14.45 -10.9 14.4 -10.5 14.25 -10.45 13.65 -10.05 13.55 -10.0 13.2 -9.75 13.0 -9.65 12.95 -9.6 12.65 -9.4 12.25 -9.1 Q11.75 -8.95 11.65 -8.4 11.55 -7.8 11.7 -7.25 L11.75 -7.2 12.1 -4.75 12.45 -1.75 12.65 -0.2 12.85 1.15 13.25 4.1 13.65 7.05 13.85 8.9 13.85 9.0 13.8 9.3 13.7 10.0 13.6 10.5 12.65 11.5 12.1 11.6 11.15 11.5 11.35 11.45 12.25 11.15 12.3 10.95 12.35 10.7 12.4 10.7 12.6 10.8 12.65 10.8 12.9 10.85 13.35 10.6 13.4 10.05 13.35 8.9 13.2 7.15 12.65 3.05 12.65 2.85 12.3 -0.05 11.35 -6.5 11.3 -7.0 11.3 -8.1 11.3 -8.15 11.3 -8.5 11.35 -8.85 Q11.45 -9.35 11.9 -9.6 13.0 -10.25 14.15 -10.75 L14.15 -10.8 14.1 -10.95 14.05 -11.0 13.8 -11.05 13.05 -11.3 11.95 -11.3 Q11.2 -11.3 10.5 -10.8 L9.3 -10.1 9.05 -10.05 6.85 -10.15 6.85 -10.1 6.8 -10.05 Q7.45 -9.2 8.4 -8.65 L8.6 -8.6 8.65 -8.45 8.7 -8.2 8.75 -7.75 8.8 -7.7 8.75 -7.6 8.75 -6.5 8.75 -6.45 8.9 -4.3 9.1 -1.95 Q9.1 -1.25 9.4 -0.75 L9.55 -0.45 9.6 -0.4 9.6 -0.35 9.5 -0.15 9.35 0.45 9.35 0.5 9.2 1.2 Q8.9 3.3 9.3 5.5 L9.6 7.35 9.8 8.25 9.85 8.6 10.3 10.8 10.45 10.9 10.85 11.3 11.0 11.45 M-10.95 11.45 L-10.8 11.3 -10.4 10.9 -10.3 10.8 -9.8 8.6 -9.75 8.25 -9.6 7.35 -9.25 5.5 Q-8.9 3.3 -9.2 1.2 L-9.3 0.5 -9.35 0.45 -9.5 -0.15 -9.55 -0.35 -9.6 -0.4 -9.5 -0.45 -9.35 -0.75 -9.05 -1.95 -8.9 -4.3 -8.7 -6.45 -8.75 -6.5 -8.75 -7.6 -8.75 -7.7 -8.75 -7.75 -8.65 -8.2 -8.65 -8.45 -8.55 -8.6 -8.4 -8.65 Q-7.45 -9.2 -6.8 -10.05 L-6.85 -10.1 -6.85 -10.15 -9.05 -10.05 -9.3 -10.1 -10.5 -10.8 Q-11.2 -11.3 -11.95 -11.3 L-13.05 -11.3 -13.8 -11.05 -14.05 -11.0 -14.1 -10.95 -14.15 -10.8 -14.15 -10.75 Q-13.0 -10.25 -11.9 -9.6 -11.45 -9.35 -11.35 -8.85 L-11.3 -8.5 -11.3 -8.15 -11.25 -8.15 -11.25 -8.1 -11.25 -7.0 -11.35 -6.5 -12.25 -0.05 -12.6 2.85 -12.65 3.05 -13.15 7.15 -13.35 8.9 -13.4 10.05 -13.3 10.6 -12.9 10.85 -12.65 10.8 -12.55 10.8 -12.35 10.7 -12.25 10.95 -12.25 11.15 -11.35 11.45 -11.1 11.5 -12.05 11.6 -12.65 11.5 -13.55 10.5 -13.7 10.0 -13.8 9.3 -13.85 9.0 -13.85 8.9 -13.65 7.05 -13.2 4.1 -12.8 1.15 -12.65 -0.2 -12.45 -1.75 -12.05 -4.75 -11.7 -7.2 -11.7 -7.25 Q-11.55 -7.8 -11.65 -8.4 -11.75 -8.95 -12.2 -9.1 L-12.65 -9.4 -12.95 -9.6 -13.0 -9.65 -13.2 -9.75 -13.55 -10.0 -13.65 -10.05 -14.25 -10.45 -14.35 -10.5 -14.4 -10.5 -14.45 -10.9 -14.4 -10.95 -14.15 -11.2 -13.6 -11.55 -13.4 -11.6 -11.75 -11.75 -11.25 -11.65 -11.15 -11.55 -11.1 -11.5 -10.35 -11.15 -10.0 -11.0 -9.6 -10.85 -8.8 -10.6 -8.7 -10.55 -6.8 -10.55 -6.7 -10.5 -6.55 -10.3 -6.45 -10.25 -6.5 -9.8 -7.1 -9.05 Q-7.55 -8.75 -8.05 -8.55 L-8.3 -8.15 -8.35 -6.85 -8.3 -6.65 -8.3 -6.4 -8.35 -6.15 -8.3 -4.1 -8.6 -1.1 -8.8 0.1 -8.8 0.3 -8.75 0.5 -8.55 3.4 -8.6 4.0 -8.8 6.95 -9.05 8.55 -9.1 8.8 -9.35 9.25 -9.75 10.35 Q-10.2 11.1 -10.95 11.45" fill="#000000" fill-rule="evenodd" stroke="none"/>
    <path d="M12.65 -9.4 L12.95 -9.6 13.0 -9.65 13.2 -9.75 13.55 -10.0 13.65 -10.05 14.25 -10.45 14.4 -10.5 14.3 -10.45 12.65 -9.4 M10.35 -11.15 L10.05 -11.0 10.15 -11.1 10.35 -11.15 M-10.0 -11.0 L-10.35 -11.15 -10.1 -11.1 -10.0 -11.0 M-14.35 -10.5 L-14.25 -10.45 -13.65 -10.05 -13.55 -10.0 -13.2 -9.75 -13.0 -9.65 -12.95 -9.6 -12.65 -9.4 -14.3 -10.45 -14.35 -10.5" fill="#3399cc" fill-rule="evenodd" stroke="none"/>
    <path d="M11.0 11.45 L10.85 11.3 10.45 10.9 10.3 10.8 9.85 8.6 9.8 8.25 9.6 7.35 9.3 5.5 Q8.9 3.3 9.2 1.2 L9.35 0.5 9.35 0.45 9.5 -0.15 9.6 -0.35 9.6 -0.4 9.55 -0.45 9.4 -0.75 Q9.1 -1.25 9.1 -1.95 L8.9 -4.3 8.75 -6.45 8.75 -6.5 8.75 -7.6 8.8 -7.7 8.75 -7.75 8.7 -8.2 8.65 -8.45 8.6 -8.6 8.4 -8.65 Q7.45 -9.2 6.8 -10.05 L6.85 -10.1 6.85 -10.15 9.05 -10.05 9.3 -10.1 10.5 -10.8 Q11.2 -11.3 11.95 -11.3 L13.05 -11.3 13.8 -11.05 14.05 -11.0 14.1 -10.95 14.15 -10.8 14.15 -10.75 Q13.0 -10.25 11.9 -9.6 11.45 -9.35 11.35 -8.85 L11.3 -8.5 11.3 -8.15 11.3 -8.1 11.3 -7.0 11.35 -6.5 12.3 -0.05 12.65 2.85 12.65 3.05 13.2 7.15 13.35 8.9 13.4 10.05 13.35 10.6 12.9 10.85 12.65 10.8 12.6 10.8 12.4 10.7 12.35 10.65 12.35 10.7 12.3 10.95 12.25 11.15 11.35 11.45 11.15 11.5 11.0 11.45 M-12.35 10.7 L-12.55 10.8 -12.65 10.8 -12.9 10.85 -13.3 10.6 -13.4 10.05 -13.35 8.9 -13.15 7.15 -12.65 3.05 -12.6 2.85 -12.25 -0.05 -11.35 -6.5 -11.25 -7.0 -11.25 -8.1 -11.25 -8.15 -11.3 -8.15 -11.3 -8.5 -11.35 -8.85 Q-11.45 -9.35 -11.9 -9.6 -13.0 -10.25 -14.15 -10.75 L-14.15 -10.8 -14.1 -10.95 -14.05 -11.0 -13.8 -11.05 -13.05 -11.3 -11.95 -11.3 Q-11.2 -11.3 -10.5 -10.8 L-9.3 -10.1 -9.05 -10.05 -6.85 -10.15 -6.85 -10.1 -6.8 -10.05 Q-7.45 -9.2 -8.4 -8.65 L-8.55 -8.6 -8.65 -8.45 -8.65 -8.2 -8.75 -7.75 -8.75 -7.7 -8.75 -7.6 -8.75 -6.5 -8.7 -6.45 -8.9 -4.3 -9.05 -1.95 -9.35 -0.75 -9.5 -0.45 -9.6 -0.4 -9.55 -0.35 -9.5 -0.15 -9.35 0.45 -9.3 0.5 -9.2 1.2 Q-8.9 3.3 -9.25 5.5 L-9.6 7.35 -9.75 8.25 -9.8 8.6 -10.3 10.8 -10.4 10.9 -10.8 11.3 -10.95 11.45 -11.1 11.5 -11.35 11.45 -12.25 11.15 -12.25 10.95 -12.35 10.7 -12.35 10.65 -12.35 10.7" fill="#999999" fill-rule="evenodd" stroke="none"/>
  </g>
</svg>
