<?xml version="1.0" encoding="UTF-8" standalone="no"?>
<svg xmlns:xlink="http://www.w3.org/1999/xlink" height="24.9px" width="27.2px" xmlns="http://www.w3.org/2000/svg">
  <g transform="matrix(1.0, 0.0, 0.0, 1.0, 13.85, 19.05)">
    <path d="M10.25 -18.0 L10.35 -17.95 10.35 -18.0 10.45 -18.0 10.65 -17.9 10.7 -17.75 10.75 -17.75 10.7 -17.7 10.9 -17.05 11.0 -16.6 11.25 -14.5 11.25 -14.25 11.25 -14.0 11.2 -13.4 11.2 -13.2 11.6 -10.5 11.95 -7.5 12.15 -5.95 12.35 -4.6 12.75 -1.65 13.15 1.3 13.35 3.15 13.35 3.25 13.3 3.55 13.2 4.25 13.1 4.75 12.15 5.75 11.6 5.85 10.65 5.75 10.85 5.7 11.75 5.4 11.8 5.2 11.85 4.95 11.9 4.95 12.1 5.05 12.15 5.05 12.4 5.1 12.85 4.85 12.9 4.3 12.85 3.15 12.7 1.4 Q12.35 -0.6 12.15 -2.7 L12.15 -2.9 11.8 -5.8 10.85 -12.25 10.8 -12.75 10.8 -13.85 10.8 -14.0 10.85 -14.95 10.65 -15.7 10.45 -16.65 10.4 -17.65 9.7 -17.8 9.5 -17.8 9.45 -17.8 9.05 -18.1 8.75 -18.3 8.7 -18.35 8.7 -18.4 8.55 -18.45 8.5 -18.5 7.5 -18.55 7.4 -18.5 7.35 -18.45 7.2 -18.45 7.15 -18.35 7.05 -18.3 7.05 -18.25 7.0 -18.2 Q6.9 -18.1 7.05 -17.95 L7.1 -17.9 7.1 -15.75 7.15 -15.75 7.9 -14.8 8.0 -14.8 8.0 -14.4 Q8.0 -13.8 8.15 -13.25 L8.3 -12.8 8.25 -12.25 8.25 -12.2 8.25 -11.9 8.25 -11.5 8.4 -10.05 8.6 -7.7 Q8.6 -7.0 8.9 -6.5 L9.05 -6.2 9.1 -6.15 9.1 -6.1 9.0 -5.9 8.85 -5.3 8.85 -5.25 8.7 -4.55 Q8.4 -2.45 8.8 -0.25 L9.1 1.6 9.3 2.5 9.35 2.85 9.8 5.05 9.95 5.15 10.35 5.55 10.5 5.7 Q9.7 5.35 9.3 4.6 9.0 4.05 8.85 3.5 L8.65 3.05 8.6 2.8 8.35 1.2 8.1 -1.75 8.1 -2.35 Q8.05 -3.85 8.3 -5.25 L8.3 -5.45 8.3 -5.65 8.1 -6.85 7.85 -9.85 7.85 -11.65 7.7 -12.85 7.55 -14.1 7.55 -14.15 7.55 -14.3 7.35 -14.45 6.8 -15.1 6.7 -15.65 6.75 -15.7 Q6.45 -16.75 6.45 -17.85 6.45 -18.35 6.85 -18.6 L6.9 -18.6 7.05 -18.7 7.05 -18.85 7.1 -18.9 7.2 -18.95 7.95 -19.05 8.05 -19.0 8.9 -18.8 9.05 -18.75 9.15 -18.7 9.15 -18.6 9.2 -18.55 9.2 -18.5 9.25 -18.45 10.25 -18.0 M-10.75 -18.0 L-9.75 -18.45 -9.7 -18.5 -9.7 -18.55 -9.65 -18.6 -9.6 -18.7 -9.55 -18.75 -9.4 -18.8 -8.55 -19.0 -8.45 -19.05 -7.7 -18.95 -7.6 -18.9 -7.55 -18.85 -7.55 -18.7 -7.4 -18.6 -7.35 -18.6 Q-6.95 -18.35 -6.95 -17.85 -6.95 -16.75 -7.25 -15.7 L-7.2 -15.65 -7.3 -15.1 -7.85 -14.45 -8.05 -14.3 -8.05 -14.15 -8.05 -14.1 -8.2 -12.85 -8.3 -11.65 -8.3 -9.85 -8.6 -6.85 -8.8 -5.65 -8.8 -5.45 -8.75 -5.25 -8.55 -2.35 -8.6 -1.75 -8.8 1.2 -9.05 2.8 -9.1 3.05 -9.35 3.5 -9.75 4.6 Q-10.2 5.35 -10.95 5.7 L-10.8 5.55 -10.4 5.15 -10.3 5.05 -9.8 2.85 -9.75 2.5 -9.6 1.6 -9.25 -0.25 Q-8.9 -2.45 -9.2 -4.55 L-9.3 -5.25 -9.35 -5.3 -9.5 -5.9 -9.55 -6.1 -9.6 -6.15 -9.5 -6.2 -9.35 -6.5 -9.05 -7.7 -8.9 -10.05 -8.75 -11.5 -8.7 -11.9 -8.7 -12.2 -8.75 -12.25 -8.75 -12.8 -8.6 -13.25 -8.45 -14.4 -8.45 -14.8 -8.4 -14.8 -7.65 -15.75 -7.6 -15.75 -7.55 -17.9 -7.55 -17.95 Q-7.4 -18.1 -7.5 -18.2 L-7.55 -18.25 -7.55 -18.3 -7.65 -18.35 -7.7 -18.45 -7.85 -18.45 -7.9 -18.5 -8.0 -18.55 -9.0 -18.5 -9.05 -18.45 -9.2 -18.4 -9.2 -18.35 -9.25 -18.3 -9.55 -18.1 -9.9 -17.8 -10.0 -17.8 -10.2 -17.8 -10.85 -17.65 -10.95 -16.65 -11.15 -15.7 -11.3 -14.95 -11.3 -14.0 -11.25 -13.85 -11.25 -12.75 -11.35 -12.25 -12.25 -5.8 -12.6 -2.9 -12.65 -2.7 -13.15 1.4 -13.35 3.15 -13.4 4.3 -13.3 4.85 -12.9 5.1 -12.65 5.05 -12.55 5.05 -12.35 4.95 -12.25 5.2 -12.25 5.4 -11.35 5.7 -11.1 5.75 -12.05 5.85 -12.65 5.75 -13.55 4.75 -13.7 4.25 -13.8 3.55 -13.85 3.25 -13.85 3.15 -13.65 1.3 -13.2 -1.65 -12.8 -4.6 -12.65 -5.95 -12.45 -7.5 -12.05 -10.5 -11.65 -13.2 -11.65 -13.4 -11.75 -14.0 -11.75 -14.25 -11.7 -14.5 -11.5 -16.6 -11.4 -17.05 -11.2 -17.7 -11.25 -17.75 -11.15 -17.75 -11.15 -17.9 -10.9 -18.0 -10.85 -18.0 -10.85 -17.95 -10.75 -18.0" fill="#000000" fill-rule="evenodd" stroke="none"/>
    <path d="M10.35 -18.0 L10.35 -17.95 10.25 -18.0 10.35 -18.0 M-10.75 -18.0 L-10.85 -17.95 -10.85 -18.0 -10.75 -18.0" fill="#3399cc" fill-rule="evenodd" stroke="none"/>
    <path d="M10.5 5.7 L10.35 5.55 9.95 5.15 9.8 5.05 9.35 2.85 9.3 2.5 9.1 1.6 8.8 -0.25 Q8.4 -2.45 8.7 -4.55 L8.85 -5.25 8.85 -5.3 9.0 -5.9 9.1 -6.1 9.1 -6.15 9.05 -6.2 8.9 -6.5 Q8.6 -7.0 8.6 -7.7 L8.4 -10.05 8.25 -11.5 8.25 -11.9 8.25 -12.2 8.25 -12.25 8.3 -12.8 8.15 -13.25 Q8.0 -13.8 8.0 -14.4 L8.0 -14.8 7.9 -14.8 7.15 -15.75 7.1 -15.75 7.1 -17.9 7.05 -17.95 Q6.9 -18.1 7.0 -18.2 L7.05 -18.25 7.35 -18.45 7.4 -18.5 7.5 -18.55 8.5 -18.5 8.55 -18.45 8.7 -18.4 8.7 -18.35 8.75 -18.3 9.05 -18.1 9.45 -17.8 9.5 -17.8 9.7 -17.8 10.4 -17.65 10.45 -16.65 10.65 -15.7 10.85 -14.95 10.8 -14.0 10.8 -13.85 10.8 -12.75 10.85 -12.25 11.8 -5.8 12.15 -2.9 12.15 -2.7 Q12.35 -0.6 12.7 1.4 L12.85 3.15 12.9 4.3 12.85 4.85 12.4 5.1 12.15 5.05 12.1 5.05 11.9 4.95 11.85 4.9 11.85 4.95 11.8 5.2 11.75 5.4 10.85 5.7 10.65 5.75 10.5 5.7 M-11.1 5.75 L-11.35 5.7 -12.25 5.4 -12.25 5.2 -12.35 4.95 -12.55 5.05 -12.65 5.05 -12.9 5.1 -13.3 4.85 -13.4 4.3 -13.35 3.15 -13.15 1.4 -12.65 -2.7 -12.6 -2.9 -12.25 -5.8 -11.35 -12.25 -11.25 -12.75 -11.25 -13.85 -11.3 -14.0 -11.3 -14.95 -11.15 -15.7 -10.95 -16.65 -10.85 -17.65 -10.2 -17.8 -10.0 -17.8 -9.9 -17.8 -9.55 -18.1 -9.25 -18.3 -9.2 -18.35 -9.2 -18.4 -9.05 -18.45 -9.0 -18.5 -8.0 -18.55 -7.9 -18.5 -7.85 -18.45 -7.55 -18.25 -7.5 -18.2 Q-7.4 -18.1 -7.55 -17.95 L-7.55 -17.9 -7.6 -15.75 -7.65 -15.75 -8.4 -14.8 -8.45 -14.8 -8.45 -14.4 -8.6 -13.25 -8.75 -12.8 -8.75 -12.25 -8.7 -12.2 -8.7 -11.9 -8.75 -11.5 -8.9 -10.05 -9.05 -7.7 -9.35 -6.5 -9.5 -6.2 -9.6 -6.15 -9.55 -6.1 -9.5 -5.9 -9.35 -5.3 -9.3 -5.25 -9.2 -4.55 Q-8.9 -2.45 -9.25 -0.25 L-9.6 1.6 -9.75 2.5 -9.8 2.85 -10.3 5.05 -10.4 5.15 -10.8 5.55 -10.95 5.7 -11.1 5.75 M-12.35 4.95 L-12.35 4.9 -12.35 4.95" fill="#999999" fill-rule="evenodd" stroke="none"/>
  </g>
</svg>
