<?xml version="1.0" encoding="UTF-8" standalone="no"?>
<svg xmlns:xlink="http://www.w3.org/1999/xlink" height="9.8px" width="31.25px" xmlns="http://www.w3.org/2000/svg">
  <g transform="matrix(1.0, 0.0, 0.0, 1.0, 15.75, 7.95)">
    <path d="M15.45 -1.85 L15.45 -1.8 15.05 -0.85 15.4 -2.1 15.45 -1.85 M-15.65 -1.85 L-15.65 -2.1 -15.3 -0.85 -15.65 -1.8 -15.65 -1.85" fill="#4581e0" fill-rule="evenodd" stroke="none"/>
    <path d="M15.05 -0.85 L15.0 -0.7 14.6 0.0 13.25 1.45 11.5 1.6 11.4 1.5 Q10.95 0.85 11.0 0.0 L11.05 -0.15 11.2 -0.8 11.5 -1.55 Q12.25 -2.85 12.4 -4.35 12.6 -5.75 12.35 -7.15 L12.35 -7.6 12.45 -7.7 12.45 -7.75 12.5 -7.8 12.65 -7.9 12.8 -7.95 12.85 -7.9 13.1 -7.9 13.15 -7.85 13.5 -7.75 13.55 -7.7 13.95 -7.35 14.95 -6.1 15.25 -5.1 Q15.6 -3.65 15.45 -2.15 L15.45 -1.85 15.4 -2.1 15.05 -0.85 M12.7 -7.55 L12.65 -7.45 12.7 -7.2 12.75 -7.0 12.95 -6.25 12.9 -6.2 12.9 -5.25 12.25 -2.4 11.8 -1.0 Q11.5 0.05 11.9 1.05 L12.3 1.2 12.75 1.15 Q14.05 0.3 14.7 -1.1 L14.7 -1.2 14.9 -1.6 14.9 -1.65 14.95 -1.65 14.95 -1.7 14.95 -1.75 14.95 -1.95 14.95 -2.0 14.9 -2.0 14.9 -2.05 15.0 -2.2 15.05 -2.55 Q15.15 -3.75 14.85 -4.85 L14.0 -6.6 13.65 -7.2 13.45 -7.4 13.2 -7.5 12.7 -7.55 M-15.65 -1.85 L-15.7 -2.15 Q-15.85 -3.65 -15.5 -5.1 L-15.15 -6.1 -14.2 -7.35 -13.8 -7.7 -13.75 -7.75 -13.4 -7.85 -13.35 -7.9 -13.05 -7.9 -13.05 -7.95 -12.9 -7.9 -12.85 -7.9 -12.75 -7.8 -12.7 -7.75 -12.7 -7.7 -12.6 -7.6 -12.6 -7.15 -12.65 -4.35 Q-12.5 -2.85 -11.75 -1.55 L-11.45 -0.8 -11.25 -0.15 -11.25 0.0 Q-11.2 0.85 -11.65 1.5 L-11.75 1.6 -13.5 1.45 -14.85 0.0 -15.25 -0.7 -15.3 -0.85 -15.65 -2.1 -15.65 -1.85 M-13.15 -6.2 L-13.2 -6.25 -13.0 -7.0 -12.95 -7.2 -12.9 -7.45 -12.9 -7.55 -13.45 -7.5 -13.65 -7.4 -13.9 -7.2 -14.25 -6.6 -15.1 -4.85 Q-15.4 -3.75 -15.3 -2.55 L-15.25 -2.2 -15.15 -2.05 -15.15 -2.0 -15.2 -2.0 -15.2 -1.95 -15.2 -1.75 -15.2 -1.7 -15.15 -1.65 -15.15 -1.6 -14.95 -1.2 -14.95 -1.1 Q-14.3 0.3 -13.0 1.15 L-12.55 1.2 -12.15 1.05 Q-11.75 0.05 -12.05 -1.0 L-12.5 -2.4 -13.15 -5.25 -13.15 -6.2" fill="#000000" fill-rule="evenodd" stroke="none"/>
    <path d="M12.7 -7.55 L13.2 -7.5 13.45 -7.4 13.65 -7.2 14.0 -6.6 14.85 -4.85 Q15.15 -3.75 15.05 -2.55 L15.0 -2.2 14.9 -2.05 14.9 -2.0 14.95 -2.0 14.95 -1.95 14.95 -1.75 14.95 -1.7 14.95 -1.65 14.9 -1.65 14.9 -1.6 14.7 -1.2 14.7 -1.1 Q14.05 0.3 12.75 1.15 L12.3 1.2 11.9 1.05 Q11.5 0.05 11.8 -1.0 L12.25 -2.4 12.9 -5.25 12.9 -6.2 12.95 -6.25 12.75 -7.0 12.7 -7.2 12.65 -7.45 12.7 -7.55 M-13.15 -6.2 L-13.15 -5.25 -12.5 -2.4 -12.05 -1.0 Q-11.75 0.05 -12.15 1.05 L-12.55 1.2 -13.0 1.15 Q-14.3 0.3 -14.95 -1.1 L-14.95 -1.2 -15.15 -1.6 -15.15 -1.65 -15.2 -1.7 -15.2 -1.75 -15.2 -1.95 -15.2 -2.0 -15.15 -2.0 -15.15 -2.05 -15.25 -2.2 -15.3 -2.55 Q-15.4 -3.75 -15.1 -4.85 L-14.25 -6.6 -13.9 -7.2 -13.65 -7.4 -13.45 -7.5 -12.9 -7.55 -12.9 -7.45 -12.95 -7.2 -13.0 -7.0 -13.2 -6.25 -13.15 -6.2" fill="#999999" fill-rule="evenodd" stroke="none"/>
  </g>
</svg>
