<?xml version="1.0" encoding="UTF-8" standalone="no"?>
<svg xmlns:xlink="http://www.w3.org/1999/xlink" height="11.95px" width="31.25px" xmlns="http://www.w3.org/2000/svg">
  <g transform="matrix(1.0, 0.0, 0.0, 1.0, 15.4, 6.0)">
    <path d="M-6.25 -4.5 L-6.15 -4.55 -5.3 -4.85 -4.75 -5.05 -4.15 -5.2 -3.75 -5.3 -2.75 -5.55 -1.65 -5.7 0.05 -5.85 1.65 -5.9 2.6 -5.8 3.65 -5.75 3.7 -5.75 3.95 -5.7 5.0 -5.5 5.3 -5.4 5.35 -5.4 Q5.35 -5.4 5.45 -5.35 L5.75 -5.3 6.65 -5.2 6.7 -5.15 7.05 -5.1 7.75 -4.85 7.8 -4.85 8.45 -4.8 9.1 -4.75 9.55 -4.7 9.6 -4.7 10.1 -4.65 10.6 -4.6 11.0 -4.55 11.05 -4.6 11.7 -4.45 Q12.6 -4.15 13.3 -3.5 L13.7 -3.1 13.8 -3.0 14.3 -2.4 14.35 -2.35 14.35 -2.3 14.4 -2.25 14.4 -2.2 14.65 -1.7 14.75 -1.15 14.75 -1.05 14.8 -0.95 14.8 -0.85 14.85 -0.85 14.85 -0.8 14.85 0.5 14.85 0.65 14.8 0.75 Q14.7 2.05 13.75 2.95 13.2 3.6 12.45 4.0 L12.3 4.05 10.6 4.15 8.35 4.75 8.25 4.75 7.65 4.95 7.45 5.0 6.15 5.35 6.0 5.35 5.85 5.4 5.6 5.45 5.55 5.5 4.8 5.65 4.3 5.75 4.1 5.8 3.7 5.85 -4.65 5.55 -4.75 5.55 -5.0 5.5 -6.3 5.2 -6.9 5.05 -7.85 4.7 -8.9 4.6 -9.25 4.55 -10.85 4.4 -11.0 4.45 -11.8 4.25 Q-13.0 3.85 -13.75 2.95 -14.7 2.05 -14.8 0.75 L-14.85 0.65 -14.85 0.5 -14.85 -0.8 -14.85 -0.85 -14.8 -0.85 -14.8 -0.95 -14.75 -0.95 -14.75 -1.05 -14.75 -1.15 -14.65 -1.7 -14.4 -2.2 -14.4 -2.25 -14.35 -2.3 -14.35 -2.35 -14.3 -2.4 -13.8 -3.0 -13.7 -3.1 -13.3 -3.5 Q-12.6 -4.15 -11.7 -4.45 L-11.65 -4.45 -10.15 -4.4 -9.9 -4.3 -9.8 -4.3 -9.05 -4.3 -7.85 -4.3 -7.8 -4.35 -7.45 -4.35 -6.7 -4.4 -6.25 -4.5 M13.1 -3.2 L12.45 -3.6 12.4 -3.6 12.4 -3.65 11.95 -3.85 11.8 -3.9 11.35 -4.05 11.25 -4.05 10.9 -4.05 10.85 -4.0 10.3 -4.05 10.2 -4.0 10.15 -4.0 10.05 -4.05 9.25 -4.1 9.2 -4.1 8.45 -4.2 8.3 -4.25 7.25 -4.35 7.05 -4.45 6.95 -4.5 6.6 -4.55 6.5 -4.6 6.4 -4.6 6.1 -4.65 5.85 -4.7 5.3 -4.8 3.3 -5.05 3.2 -5.05 3.1 -5.05 0.55 -5.2 -0.25 -5.15 -0.45 -5.1 -0.95 -5.05 -1.35 -5.05 -1.45 -5.0 -1.85 -4.95 -2.65 -4.8 -2.7 -4.8 -2.95 -4.85 -3.1 -4.8 -3.3 -4.65 -3.4 -4.65 -3.45 -4.65 -3.7 -4.55 -4.45 -4.4 -4.75 -4.3 -5.4 -4.2 -5.55 -4.2 -5.6 -4.15 -5.65 -4.15 -5.95 -4.05 -6.15 -4.0 -6.2 -4.0 -6.45 -3.9 -6.5 -3.9 -6.7 -3.9 -6.9 -3.85 -7.0 -3.85 -7.65 -3.75 -8.0 -3.75 -8.15 -3.75 -8.35 -3.7 -8.5 -3.7 -8.65 -3.7 -9.45 -3.75 -9.5 -3.75 -11.15 -4.1 -11.5 -4.0 -11.8 -3.9 Q-12.65 -3.6 -13.35 -3.0 L-14.35 -1.65 -14.45 -1.4 -14.5 -1.35 -14.5 -1.2 -14.55 -1.15 -14.55 -1.1 -14.55 -0.95 -14.55 -0.9 -14.6 -0.9 -14.6 -0.85 -14.65 -0.8 -14.65 -0.75 -14.65 -0.65 -14.65 -0.45 -14.65 -0.4 -14.65 0.2 -14.6 0.25 -14.55 0.4 -14.55 0.5 -14.3 1.3 -14.1 1.8 Q-13.3 3.15 -11.8 3.65 L-11.05 3.8 -10.8 3.85 -10.75 3.8 -10.5 3.8 -10.3 3.85 -10.15 3.8 -9.9 3.8 Q-8.9 3.7 -8.05 4.1 L-7.6 4.35 -7.5 4.4 -7.45 4.4 -7.4 4.45 -7.2 4.5 -6.5 4.6 -6.45 4.6 -5.15 4.8 -4.85 4.85 -4.6 4.9 -4.5 4.9 -4.5 4.95 -3.85 5.1 -3.6 5.15 -3.5 5.15 -3.0 5.2 -2.5 5.25 -0.7 5.35 -0.1 5.35 0.0 5.3 0.2 5.3 0.9 5.35 2.05 5.3 2.1 5.05 2.05 5.3 2.45 5.3 2.9 5.25 3.05 5.25 4.05 5.2 4.7 5.2 4.95 5.1 6.2 4.8 7.1 4.6 7.3 4.55 7.8 4.45 7.85 4.4 8.0 4.3 8.15 4.25 10.65 3.7 11.25 3.65 11.3 3.65 11.8 3.65 Q13.3 3.15 14.1 1.8 L14.55 0.5 14.6 0.25 14.65 0.2 14.65 -0.4 14.65 -0.45 14.65 -0.65 14.65 -0.75 14.65 -0.8 14.6 -0.85 14.6 -0.9 14.55 -0.95 14.55 -1.1 14.55 -1.15 14.5 -1.2 14.5 -1.35 14.45 -1.4 14.35 -1.65 13.35 -3.0 13.1 -3.2 M7.45 -1.8 L7.45 -1.75 7.4 -1.75 7.45 -1.8 M9.55 2.65 L9.5 2.7 9.3 2.7 9.55 2.65 M-6.1 3.0 L-6.1 2.95 -6.1 3.0" fill="#23252e" fill-rule="evenodd" stroke="none"/>
    <path d="M13.1 -3.2 L13.3 -3.05 13.35 -2.85 13.45 -2.4 13.5 -2.3 13.45 -2.3 Q13.65 -1.3 13.3 -0.25 L12.7 1.0 12.0 1.75 10.6 2.05 8.4 1.95 8.2 1.9 8.0 1.85 5.0 1.4 4.55 1.35 4.65 1.05 Q5.3 -0.35 4.85 -1.8 L4.65 -2.55 4.1 -4.0 3.6 -4.7 3.3 -5.05 5.3 -4.8 5.85 -4.7 6.1 -4.65 6.4 -4.6 6.5 -4.6 6.6 -4.55 6.95 -4.5 7.05 -4.45 7.25 -4.35 8.3 -4.25 8.45 -4.2 9.2 -4.1 9.25 -4.1 10.05 -4.05 10.15 -4.0 10.2 -4.0 10.3 -4.05 10.85 -4.0 10.9 -4.05 11.25 -4.05 11.35 -4.05 11.8 -3.9 11.95 -3.85 12.4 -3.65 12.4 -3.6 12.45 -3.6 13.1 -3.2 M-3.7 -4.55 L-4.05 -4.45 -4.1 -4.45 Q-4.8 -3.65 -5.0 -2.6 -5.25 -1.4 -5.1 -0.1 L-4.8 0.75 -4.4 1.35 -4.75 1.35 -5.25 1.45 -5.9 1.6 -7.35 1.9 -6.9 1.65 -7.55 1.95 -9.5 2.45 -9.85 2.5 -10.65 2.65 Q-12.5 3.0 -13.9 1.8 L-14.3 1.3 -14.55 0.5 -14.55 0.4 -14.6 0.25 -14.65 0.2 -14.65 -0.4 -14.65 -0.45 -14.65 -0.65 -14.65 -0.75 -14.65 -0.8 -14.6 -0.85 -14.6 -0.9 -14.55 -0.9 -14.55 -0.95 -14.55 -1.1 -14.55 -1.15 -14.5 -1.2 -14.5 -1.35 -14.45 -1.4 -14.35 -1.65 -13.35 -3.0 Q-12.65 -3.6 -11.8 -3.9 L-11.5 -4.0 -11.15 -4.1 -9.5 -3.75 -9.45 -3.75 -8.65 -3.7 -8.5 -3.7 -8.35 -3.7 -8.15 -3.75 -8.0 -3.75 -7.65 -3.75 -7.0 -3.85 -6.9 -3.85 -6.7 -3.9 -6.5 -3.9 -6.45 -3.9 -6.2 -4.0 -6.15 -4.0 -5.95 -4.05 -5.65 -4.15 -5.6 -4.15 -5.55 -4.2 -5.4 -4.2 -4.75 -4.3 -4.45 -4.4 -3.7 -4.55 M7.45 -1.8 L7.4 -1.75 7.45 -1.75 7.45 -1.8 M10.05 -3.05 Q9.1 -2.4 8.6 -1.35 L8.45 -0.6 Q8.5 -0.15 8.8 0.15 L8.9 0.1 9.1 -0.1 Q9.6 -1.15 10.5 -1.8 11.35 -2.45 12.4 -2.3 L12.45 -2.35 12.6 -2.45 12.4 -2.9 Q11.7 -3.55 10.7 -3.4 L10.05 -3.05 M12.1 -3.3 L12.35 -3.15 12.35 -3.2 12.1 -3.3 M-13.6 -1.15 L-13.6 -1.2 -13.6 -1.15 -13.75 -0.4 -13.4 0.35 -13.3 0.3 -13.1 0.1 Q-12.6 -0.95 -11.7 -1.6 -10.85 -2.25 -9.8 -2.1 L-9.75 -2.15 -9.6 -2.25 -9.8 -2.7 Q-10.5 -3.35 -11.5 -3.2 L-12.15 -2.85 Q-13.1 -2.2 -13.6 -1.15 M-5.8 -2.8 L-5.85 -2.8 -5.9 -2.75 -5.8 -2.8 M-6.85 0.35 L-6.85 0.4 -6.85 0.35" fill="#7e4d2c" fill-rule="evenodd" stroke="none"/>
    <path d="M3.3 -5.05 L3.6 -4.7 4.1 -4.0 4.65 -2.55 4.85 -1.8 Q5.3 -0.35 4.65 1.05 L4.55 1.35 5.0 1.4 8.0 1.85 8.2 1.9 8.4 1.95 10.6 2.05 12.0 1.75 12.7 1.0 13.3 -0.25 Q13.65 -1.3 13.45 -2.3 L13.5 -2.3 13.45 -2.4 13.35 -2.85 13.3 -3.05 13.1 -3.2 13.35 -3.0 14.35 -1.65 14.45 -1.4 14.5 -1.35 14.5 -1.2 14.55 -1.15 14.55 -1.1 14.55 -0.95 14.6 -0.9 14.6 -0.85 14.65 -0.8 14.65 -0.75 14.65 -0.65 14.65 -0.45 14.65 -0.4 14.65 0.2 14.6 0.25 14.55 0.5 14.1 1.8 Q13.3 3.15 11.8 3.65 L11.3 3.65 11.25 3.65 10.65 3.7 8.15 4.25 8.0 4.3 7.85 4.4 7.8 4.45 7.3 4.55 7.1 4.6 6.2 4.8 4.95 5.1 4.7 5.2 4.05 5.2 3.05 5.25 2.9 5.25 2.85 5.2 2.8 5.25 2.45 5.3 2.05 5.3 2.1 5.05 2.05 5.3 0.9 5.35 0.2 5.3 0.0 5.3 -0.1 5.35 -0.7 5.35 -2.5 5.25 -3.0 5.2 -3.5 5.15 -3.6 5.15 -3.85 5.1 -4.5 4.95 -4.5 4.9 -4.6 4.9 -4.85 4.85 -5.15 4.8 -6.45 4.6 -6.5 4.6 -7.2 4.5 -7.4 4.45 -7.45 4.4 -7.5 4.4 -7.6 4.35 -8.05 4.1 Q-8.9 3.7 -9.9 3.8 L-10.15 3.8 -10.3 3.85 -10.5 3.8 -10.75 3.8 -10.8 3.85 -11.05 3.8 -11.8 3.65 Q-13.3 3.15 -14.1 1.8 L-14.3 1.3 -13.9 1.8 Q-12.5 3.0 -10.65 2.65 L-9.85 2.5 -9.5 2.45 -7.55 1.95 -6.9 1.65 -7.35 1.9 -5.9 1.6 -5.25 1.45 -4.75 1.35 -4.4 1.35 -4.8 0.75 -5.1 -0.1 Q-5.25 -1.4 -5.0 -2.6 -4.8 -3.65 -4.1 -4.45 L-4.05 -4.45 -3.7 -4.55 -3.45 -4.65 -3.4 -4.65 -3.3 -4.65 -3.1 -4.8 -2.95 -4.85 -2.7 -4.8 -2.65 -4.8 -1.85 -4.95 -1.45 -5.0 -1.35 -5.05 -0.95 -5.05 -0.45 -5.1 -0.25 -5.15 0.55 -5.2 3.1 -5.05 3.2 -5.05 3.3 -5.05 M9.55 2.65 L9.3 2.7 9.5 2.7 9.55 2.65 M2.4 0.3 L2.4 0.35 2.4 0.3 M-3.4 -4.25 L-3.4 -4.2 -3.4 -4.25 M-0.55 2.0 L-0.35 1.7 -0.65 2.05 -0.6 2.05 -0.55 2.0 M-4.25 0.85 L-4.2 0.95 -4.15 0.9 -4.25 0.85 M-6.1 3.0 L-6.1 2.95 -6.1 3.0" fill="#5a361f" fill-rule="evenodd" stroke="none"/>
    <path d="M5.35 -5.4 L5.75 -5.3 5.45 -5.35 Q5.35 -5.4 5.35 -5.4" fill="#8b94a3" fill-rule="evenodd" stroke="none"/>
    <path d="M10.05 -3.05 L10.7 -3.4 Q11.7 -3.55 12.4 -2.9 L12.6 -2.45 12.45 -2.35 12.4 -2.3 Q11.35 -2.45 10.5 -1.8 9.6 -1.15 9.1 -0.1 L8.9 0.1 8.8 0.15 Q8.5 -0.15 8.45 -0.6 L8.6 -1.35 Q9.1 -2.4 10.05 -3.05 M-13.6 -1.15 Q-13.1 -2.2 -12.15 -2.85 L-11.5 -3.2 Q-10.5 -3.35 -9.8 -2.7 L-9.6 -2.25 -9.75 -2.15 -9.8 -2.1 Q-10.85 -2.25 -11.7 -1.6 -12.6 -0.95 -13.1 0.1 L-13.3 0.3 -13.4 0.35 -13.75 -0.4 -13.6 -1.15" fill="#c17c4f" fill-rule="evenodd" stroke="none"/>
    <path d="M12.1 -3.3 L12.35 -3.2 12.35 -3.15 12.1 -3.3" fill="#878eb0" fill-rule="evenodd" stroke="none"/>
    <path d="M-13.6 -1.15 L-13.6 -1.2 -13.6 -1.15" fill="#a4a4ff" fill-rule="evenodd" stroke="none"/>
    <path d="M-6.7 -4.4 L-6.75 -4.5 -7.05 -4.85 -6.5 -4.7 -6.35 -4.6 -6.25 -4.5 -6.7 -4.4" fill="#9dc5ff" fill-rule="evenodd" stroke="none"/>
    <path d="M2.45 5.3 L2.8 5.25 2.85 5.2 2.9 5.25 2.45 5.3 M-9.5 -3.75 L-9.45 -3.75 -9.5 -3.75 M-4.25 0.85 L-4.15 0.9 -4.2 0.95 -4.25 0.85" fill="#595988" fill-rule="evenodd" stroke="none"/>
    <path d="M-5.8 -2.8 L-5.9 -2.75 -5.85 -2.8 -5.8 -2.8" fill="#c77ea9" fill-rule="evenodd" stroke="none"/>
    <path d="M-3.4 -4.25 L-3.4 -4.2 -3.4 -4.25 M-0.55 2.0 L-0.6 2.05 -0.65 2.05 -0.35 1.7 -0.55 2.0" fill="#754900" fill-rule="evenodd" stroke="none"/>
    <path d="M-6.85 0.35 L-6.85 0.4 -6.85 0.35" fill="#a66600" fill-rule="evenodd" stroke="none"/>
    <path d="M2.4 0.3 L2.4 0.35 2.4 0.3" fill="#999999" fill-rule="evenodd" stroke="none"/>
    <path d="M4.85 -0.3 Q4.7 -1.6 5.05 -2.8 5.2 -3.5 5.65 -4.05 L5.85 -4.3 Q6.5 -5.1 7.5 -5.05 L7.65 -5.1 8.65 -5.2 9.05 -5.3 10.6 -5.25 Q12.7 -5.2 14.2 -3.75 L14.5 -3.5 14.45 -2.75 13.9 -3.15 13.3 -3.3 12.9 -3.05 Q12.3 -2.65 12.55 -2.0 L12.6 -1.95 Q12.55 -1.35 13.1 -1.1 L13.9 -1.0 13.3 -0.1 13.05 0.2 Q12.85 -0.05 12.4 -0.05 L12.15 0.0 11.8 0.0 Q11.2 0.25 11.25 0.85 L11.35 1.2 11.35 1.55 9.45 2.1 9.4 1.65 Q9.15 0.9 8.35 0.95 L7.65 0.75 7.45 0.85 7.4 0.85 Q7.1 1.25 7.1 1.75 L6.95 1.7 Q5.6 1.3 4.95 0.3 L4.85 -0.3 M7.05 -2.95 L7.1 -2.75 Q7.45 -2.15 8.15 -2.35 L8.6 -2.6 Q9.25 -3.35 8.6 -4.1 L8.5 -4.15 8.2 -4.15 Q7.95 -4.6 7.3 -4.55 6.7 -4.35 6.6 -3.75 6.55 -3.4 6.8 -3.15 L7.05 -2.95 M9.3 -0.95 L9.35 -0.6 Q9.6 0.0 10.2 -0.15 11.0 -0.3 10.85 -1.05 L10.45 -1.75 Q10.25 -2.35 9.55 -2.25 L9.5 -2.25 Q9.05 -2.0 9.05 -1.5 9.05 -1.15 9.3 -0.95 M-14.8 1.0 L-14.85 0.3 -14.6 0.45 -13.1 0.65 Q-12.45 0.45 -11.95 0.05 -10.85 -0.95 -10.6 -2.35 L-10.65 -3.0 Q-10.85 -3.65 -11.3 -3.95 L-11.15 -3.95 Q-10.6 -3.6 -10.5 -2.7 -10.35 -1.5 -10.65 -0.3 L-10.75 0.1 Q-10.95 1.2 -11.7 1.95 L-14.0 1.8 -14.8 1.0" fill="#996600" fill-rule="evenodd" stroke="none"/>
    <path d="M4.85 -0.3 Q4.55 -1.05 4.65 -1.9 4.7 -3.15 5.3 -4.25 5.2 -4.6 5.65 -4.8 L5.7 -4.8 6.0 -5.1 6.75 -5.4 7.75 -5.7 9.25 -5.95 12.15 -5.6 12.6 -5.35 12.9 -5.15 13.65 -4.6 13.7 -4.6 Q14.8 -3.85 15.45 -2.7 L15.6 -2.25 15.75 -1.25 15.8 -0.85 Q15.95 0.65 15.35 2.05 L14.1 3.95 13.85 4.1 13.35 4.55 Q11.55 5.55 9.35 5.35 L8.75 5.25 8.1 5.0 Q7.7 4.8 7.45 4.5 L7.2 4.35 6.15 3.3 6.1 3.15 6.2 3.3 6.55 3.7 6.6 3.75 7.2 4.15 7.65 4.35 7.75 4.45 8.0 4.6 9.3 4.85 9.9 4.85 12.3 4.4 13.5 3.6 14.8 1.85 Q15.3 0.9 15.45 -0.25 15.55 -1.05 15.3 -1.7 15.35 -2.55 14.7 -3.25 L14.65 -3.3 14.5 -3.5 14.2 -3.75 Q12.7 -5.2 10.6 -5.25 L9.05 -5.3 8.65 -5.2 7.65 -5.1 7.5 -5.05 Q6.5 -5.1 5.85 -4.3 L5.65 -4.05 Q5.2 -3.5 5.05 -2.8 4.7 -1.6 4.85 -0.3 M8.2 -4.15 L8.5 -4.15 8.6 -4.1 Q9.25 -3.35 8.6 -2.6 L8.15 -2.35 Q7.45 -2.15 7.1 -2.75 L7.05 -2.95 7.95 -3.0 8.2 -3.25 8.35 -3.7 8.2 -4.15 M9.3 -0.95 L9.55 -0.75 10.25 -0.8 Q10.55 -1.1 10.5 -1.45 L10.45 -1.75 10.85 -1.05 Q11.0 -0.3 10.2 -0.15 9.6 0.0 9.35 -0.6 L9.3 -0.95 M13.9 -3.15 L14.45 -2.75 14.7 -2.05 Q14.75 -1.45 14.25 -1.15 L13.9 -1.0 13.1 -1.1 Q12.55 -1.35 12.6 -1.95 L12.8 -1.75 Q13.4 -1.5 13.9 -1.95 L14.15 -2.4 13.9 -3.15 M13.05 0.2 L13.2 0.7 13.15 1.05 Q13.55 1.75 12.85 2.05 L11.7 2.0 11.35 1.55 11.35 1.2 Q11.8 1.8 12.45 1.4 L12.8 0.85 Q12.8 0.1 12.15 0.0 L12.4 -0.05 Q12.85 -0.05 13.05 0.2 M9.45 2.1 Q9.45 2.55 9.05 2.9 L8.9 3.05 Q8.0 3.45 7.45 2.7 L7.4 2.6 Q8.05 3.0 8.4 2.4 L8.6 1.6 8.35 0.95 Q9.15 0.9 9.4 1.65 L9.45 2.1 M-11.55 4.0 Q-11.7 4.25 -12.1 4.15 L-12.65 4.0 -12.75 3.9 -12.9 3.85 -14.05 3.25 -14.9 2.2 Q-15.6 0.9 -15.35 -0.6 L-15.25 -1.1 -14.45 -2.85 -13.65 -3.6 -13.6 -3.65 Q-12.95 -4.25 -12.1 -4.3 L-11.7 -4.3 -11.3 -4.5 -10.9 -4.55 Q-10.0 -4.75 -9.55 -4.05 -9.3 -3.75 -9.35 -3.35 L-9.35 -3.2 -9.75 -3.6 -10.0 -3.7 -11.15 -3.95 -11.3 -3.95 -11.9 -3.9 -11.95 -3.9 -12.85 -3.7 -13.45 -3.25 -13.5 -3.25 -13.65 -3.15 -13.7 -3.1 -13.9 -2.9 -14.15 -2.65 -14.55 -1.8 -14.85 0.3 -14.8 1.0 -14.4 2.35 -13.45 3.3 -12.15 3.85 -11.75 3.95 -11.65 4.0 -11.55 4.0 M-9.35 -3.15 L-9.4 -2.3 -9.7 -0.8 Q-9.75 0.7 -9.25 2.1 L-8.55 3.45 -9.0 4.3 -9.7 4.2 Q-10.1 4.2 -10.1 3.95 L-9.85 3.85 -9.6 3.7 -9.55 3.65 -9.45 3.7 -9.05 3.35 -9.0 3.3 -9.05 3.25 -9.4 2.65 Q-10.15 1.35 -10.25 -0.1 L-10.15 -1.6 -9.95 -2.3 -9.75 -2.55 -9.45 -3.0 -9.35 -3.15" fill="#000000" fill-rule="evenodd" stroke="none"/>
    <path d="M14.5 -3.5 L14.65 -3.3 14.7 -3.25 Q15.35 -2.55 15.3 -1.7 15.55 -1.05 15.45 -0.25 15.3 0.9 14.8 1.85 L13.5 3.6 12.3 4.4 9.9 4.85 9.3 4.85 8.0 4.6 7.75 4.45 7.65 4.35 7.2 4.15 6.6 3.75 6.55 3.7 6.2 3.3 6.1 3.15 Q5.15 1.85 4.95 0.3 5.6 1.3 6.95 1.7 L7.1 1.75 7.15 2.3 7.4 2.6 7.45 2.7 Q8.0 3.45 8.9 3.05 L9.05 2.9 Q9.45 2.55 9.45 2.1 L11.35 1.55 11.7 2.0 12.85 2.05 Q13.55 1.75 13.15 1.05 L13.2 0.7 13.05 0.2 13.3 -0.1 13.9 -1.0 14.25 -1.15 Q14.75 -1.45 14.7 -2.05 L14.45 -2.75 14.5 -3.5 M-9.35 -3.2 L-9.3 -3.2 -9.35 -3.15 -9.45 -3.0 -9.75 -2.55 -9.95 -2.3 -10.15 -1.6 -10.25 -0.1 Q-10.15 1.35 -9.4 2.65 L-9.05 3.25 -9.0 3.3 -9.05 3.35 -9.45 3.7 -9.55 3.65 -9.6 3.7 -9.85 3.85 -10.1 3.95 -11.55 4.0 -11.65 4.0 -11.75 3.95 -12.15 3.85 -13.45 3.3 -14.4 2.35 -14.8 1.0 -14.0 1.8 -11.7 1.95 Q-10.95 1.2 -10.75 0.1 L-10.65 -0.3 Q-10.35 -1.5 -10.5 -2.7 -10.6 -3.6 -11.15 -3.95 L-10.0 -3.7 -9.75 -3.6 -9.35 -3.2" fill="#6f4a00" fill-rule="evenodd" stroke="none"/>
    <path d="M-14.85 0.3 L-14.55 -1.8 -14.15 -2.65 -13.9 -2.9 -13.7 -3.1 -13.65 -3.15 -13.5 -3.25 -13.45 -3.25 -12.85 -3.7 -11.95 -3.9 -11.9 -3.9 -11.3 -3.95 Q-10.85 -3.65 -10.65 -3.0 L-10.6 -2.35 Q-10.85 -0.95 -11.95 0.05 -12.45 0.45 -13.1 0.65 L-14.6 0.45 -14.85 0.3" fill="#cc9900" fill-rule="evenodd" stroke="none"/>
    <path d="M8.2 -4.15 L8.35 -3.7 8.2 -3.25 7.95 -3.0 7.05 -2.95 6.8 -3.15 Q6.55 -3.4 6.6 -3.75 6.7 -4.35 7.3 -4.55 7.95 -4.6 8.2 -4.15 M10.45 -1.75 L10.5 -1.45 Q10.55 -1.1 10.25 -0.8 L9.55 -0.75 9.3 -0.95 Q9.05 -1.15 9.05 -1.5 9.05 -2.0 9.5 -2.25 L9.55 -2.25 Q10.25 -2.35 10.45 -1.75 M12.6 -1.95 L12.55 -2.0 Q12.3 -2.65 12.9 -3.05 L13.3 -3.3 13.9 -3.15 14.15 -2.4 13.9 -1.95 Q13.4 -1.5 12.8 -1.75 L12.6 -1.95 M7.4 2.6 L7.15 2.3 7.1 1.75 Q7.1 1.25 7.4 0.85 L7.45 0.85 7.65 0.75 8.35 0.95 8.6 1.6 8.4 2.4 Q8.05 3.0 7.4 2.6 M11.35 1.2 L11.25 0.85 Q11.2 0.25 11.8 0.0 L12.15 0.0 Q12.8 0.1 12.8 0.85 L12.45 1.4 Q11.8 1.8 11.35 1.2" fill="#ffcc00" fill-rule="evenodd" stroke="none"/>
  </g>
</svg>
