<?xml version="1.0" encoding="UTF-8" standalone="no"?>
<svg xmlns:xlink="http://www.w3.org/1999/xlink" height="11.85px" width="29.75px" xmlns="http://www.w3.org/2000/svg">
  <g transform="matrix(1.0, 0.0, 0.0, 1.0, 14.85, 5.9)">
    <path d="M3.15 -5.05 L3.25 -5.05 5.9 -4.7 6.55 -4.6 Q7.75 -4.4 8.5 -3.45 L9.1 -2.85 9.2 -2.35 9.25 -2.3 9.25 -2.15 9.3 -2.1 9.3 -2.0 9.35 -1.95 9.35 -1.8 9.35 -1.75 9.4 -1.7 9.4 -1.65 9.4 -1.55 9.4 -1.3 9.35 -1.45 9.45 -1.1 9.6 -0.25 9.6 0.05 9.6 0.2 9.6 0.3 7.3 0.3 6.6 0.3 6.5 0.55 6.55 0.5 5.0 0.5 5.0 0.0 Q4.9 -1.45 4.4 -2.8 L4.35 -3.1 4.0 -3.95 3.15 -5.05 M6.1 -3.85 L5.7 -4.2 5.45 -4.1 Q5.2 -3.75 5.4 -3.55 L5.35 -3.4 5.45 -3.05 Q5.7 -2.5 6.3 -2.75 L6.5 -3.1 Q6.65 -3.75 6.1 -3.85 M7.5 -1.8 Q7.2 -1.45 7.55 -1.0 L7.7 -0.9 8.4 -0.85 8.6 -0.9 8.85 -1.4 Q8.9 -2.05 8.35 -2.15 L7.8 -2.35 7.7 -2.3 7.65 -2.3 Q7.4 -2.1 7.5 -1.8 M-9.3 -1.55 L-9.25 -1.5 -9.2 -1.55 -9.2 -1.75 -9.15 -1.75 -9.15 -1.9 -9.1 -1.95 -9.1 -2.05 -9.05 -2.1 -9.05 -2.15 -9.0 -2.2 -9.0 -2.25 -8.95 -2.3 -8.95 -2.35 -8.9 -2.4 -8.9 -2.45 -8.85 -2.5 -8.85 -2.55 -8.2 -3.25 -7.25 -3.9 -6.9 -4.0 -6.55 -4.05 -6.55 -4.1 -6.15 -4.15 -6.0 -4.15 -5.8 -4.15 -5.8 -4.2 -5.55 -4.2 -3.4 -4.65 -2.8 -4.75 -2.85 -4.7 -2.95 -4.7 -3.1 -4.55 -3.95 -3.15 -4.3 -2.35 Q-4.85 -1.0 -4.65 0.45 L-4.9 0.45 -6.05 0.5 -6.1 0.4 -6.8 0.35 Q-6.95 -0.1 -7.55 0.0 L-7.85 -0.05 -7.95 0.0 -8.15 0.35 -9.3 0.4 -9.5 0.4 -9.5 0.15 -9.5 0.05 -9.25 -1.45 -9.3 -1.3 -9.3 -1.55 M-6.7 -2.2 L-6.7 -2.0 Q-6.55 -1.35 -5.85 -1.6 L-5.7 -1.9 Q-5.6 -2.35 -6.05 -2.45 -6.1 -2.8 -6.5 -2.8 L-6.6 -2.75 -6.7 -2.55 -6.7 -2.2 M-6.1 0.4 L-6.3 -0.15 -6.1 0.4" fill="#b37800" fill-rule="evenodd" stroke="none"/>
    <path d="M8.95 -3.8 L9.3 -3.75 9.15 -3.7 Q9.2 -3.35 9.45 -3.4 9.3 -3.35 9.2 -3.5 L9.2 -3.45 8.95 -3.8 M9.25 3.7 L9.1 3.85 8.95 3.85 9.05 3.75 9.1 3.65 9.25 3.7 M-9.15 3.75 L-9.25 3.75 -9.4 3.85 -9.35 3.8 -9.2 3.7 -9.15 3.75 M-8.85 -3.75 L-8.6 -3.75 -8.6 -3.65 -8.55 -3.75 -8.5 -3.75 -8.6 -3.55 -8.85 -3.75 M3.15 -5.05 L4.0 -3.95 4.35 -3.1 4.4 -2.8 Q4.9 -1.45 5.0 0.0 L5.0 0.5 4.85 1.4 Q4.4 2.7 3.55 3.65 L5.05 3.4 8.85 2.65 9.15 2.6 8.7 3.4 8.5 3.75 8.15 4.15 8.1 4.2 7.9 4.4 7.35 4.55 6.25 4.8 4.75 5.2 4.1 5.2 3.1 5.25 1.15 5.35 -0.65 5.35 -2.45 5.25 -3.45 5.15 -4.55 4.9 -6.4 4.6 -7.65 4.4 -7.75 4.35 -8.15 4.1 -8.45 3.85 -8.8 3.3 -8.85 3.25 -8.9 3.15 -9.0 2.9 -9.05 2.65 -6.1 3.15 -6.05 3.4 Q-5.8 4.1 -5.1 3.8 L-4.8 3.45 -4.75 3.3 -3.35 3.5 -4.15 2.25 -4.65 0.5 -4.65 0.45 Q-4.85 -1.0 -4.3 -2.35 L-3.95 -3.15 -3.1 -4.55 -2.95 -4.7 -2.85 -4.7 -2.8 -4.75 -2.7 -4.8 -1.8 -4.95 -1.4 -5.0 -1.3 -5.05 0.6 -5.2 3.15 -5.05 M9.6 0.2 L9.6 0.05 9.6 -0.25 10.65 0.0 11.55 -0.15 Q11.45 0.0 11.5 0.2 L11.4 0.55 11.5 0.9 12.85 1.0 13.05 0.5 Q12.95 -0.3 12.15 -0.3 L12.1 -0.25 11.85 -0.3 12.2 -0.6 Q13.25 -1.6 12.8 -2.95 L12.45 -3.6 13.4 -3.0 14.4 -1.65 14.5 -1.4 14.55 -1.35 14.55 -1.2 14.6 -1.15 14.6 -1.1 14.6 -0.95 14.65 -0.9 14.65 -0.85 14.7 -0.8 14.7 -0.75 14.7 -0.65 14.7 -0.45 14.7 -0.4 14.7 0.2 14.65 0.25 14.6 0.5 14.15 1.8 Q13.35 3.15 11.85 3.65 L9.3 3.35 9.75 1.75 9.8 0.7 9.6 0.2 M-14.5 -0.9 L-14.4 -0.2 -14.05 0.4 Q-13.55 0.8 -12.9 0.6 -13.0 1.05 -12.6 1.35 -12.05 1.7 -11.65 1.25 L-11.5 0.9 Q-11.5 0.3 -11.9 0.15 -12.0 -0.05 -12.25 -0.05 -12.0 -0.05 -11.9 0.15 L-11.05 -0.5 Q-10.2 -1.3 -10.4 -2.4 L-10.45 -2.75 Q-10.7 -3.7 -11.45 -4.0 L-10.7 -4.15 -10.55 -4.1 -9.65 -3.55 -9.5 -3.45 -8.9 -3.1 -9.1 -2.35 -9.15 -2.3 -9.15 -2.15 -9.2 -2.1 -9.2 -2.0 -9.25 -1.95 -9.25 -1.8 -9.25 -1.75 -9.3 -1.7 -9.3 -1.65 -9.3 -1.55 -9.3 -1.3 -9.25 -1.45 -9.5 0.05 -9.5 0.15 -9.65 0.8 -9.55 2.55 -9.4 3.1 -9.5 3.1 Q-9.9 3.5 -10.45 3.75 L-10.7 3.8 -10.75 3.85 -11.0 3.8 -11.75 3.65 Q-13.25 3.15 -14.05 1.8 L-14.5 0.5 -14.55 0.25 -14.6 0.2 -14.6 -0.4 -14.6 -0.45 -14.6 -0.65 -14.6 -0.75 -14.6 -0.8 -14.55 -0.85 -14.55 -0.9 -14.5 -0.9" fill="#754900" fill-rule="evenodd" stroke="none"/>
    <path d="M-6.9 -4.7 L-5.55 -5.0 -4.95 -5.0 -4.8 -5.05 -4.1 -5.2 -3.7 -5.3 -2.7 -5.55 -1.6 -5.7 0.1 -5.85 1.7 -5.9 2.65 -5.8 3.7 -5.75 3.75 -5.75 4.0 -5.7 5.05 -5.5 5.35 -5.4 5.4 -5.4 5.5 -5.35 5.8 -5.3 6.7 -5.2 6.75 -5.15 Q7.6 -5.05 8.25 -4.55 L8.45 -4.4 8.9 -3.85 8.95 -3.75 8.95 -3.8 9.2 -3.45 9.25 -3.2 9.3 -2.95 Q9.8 -1.85 9.55 -0.6 L9.55 -0.5 9.45 -1.1 9.35 -1.45 9.4 -1.3 9.4 -1.55 9.4 -1.65 9.4 -1.7 9.35 -1.75 9.35 -1.8 9.35 -1.95 9.3 -2.0 9.3 -2.1 9.25 -2.15 9.25 -2.3 9.2 -2.35 9.1 -2.85 8.5 -3.45 Q7.75 -4.4 6.55 -4.6 L5.9 -4.7 3.25 -5.05 3.15 -5.05 0.6 -5.2 -1.3 -5.05 -1.4 -5.0 -1.8 -4.95 -2.7 -4.8 -2.8 -4.75 -3.4 -4.65 -5.55 -4.2 -5.8 -4.2 -6.0 -4.15 -6.15 -4.15 -6.55 -4.1 -6.9 -4.0 -7.25 -3.9 -8.2 -3.25 -8.85 -2.55 -8.85 -2.5 -8.9 -2.5 -8.9 -2.45 -8.9 -2.4 -8.95 -2.35 -8.95 -2.3 -9.0 -2.25 -9.0 -2.2 -9.05 -2.15 -9.05 -2.1 -9.1 -2.05 -9.1 -1.95 -9.15 -1.9 -9.15 -1.75 -9.2 -1.75 -9.2 -1.55 -9.25 -1.5 -9.3 -1.55 -9.3 -1.65 -9.3 -1.7 -9.25 -1.75 -9.25 -1.8 -9.25 -1.95 -9.2 -2.0 -9.2 -2.1 -9.15 -2.15 -9.15 -2.3 -9.1 -2.35 -8.9 -3.1 -9.5 -3.45 -9.65 -3.55 -10.55 -4.1 -10.7 -4.15 -11.45 -4.0 -11.75 -3.9 -13.3 -3.0 -14.3 -1.65 -14.4 -1.4 -14.45 -1.35 -14.45 -1.2 -14.5 -1.15 -14.5 -1.1 -14.5 -0.95 -14.5 -0.9 -14.55 -0.9 -14.55 -0.85 -14.6 -0.8 -14.6 -0.75 -14.6 -0.65 -14.6 -0.45 -14.6 -0.4 -14.6 0.2 -14.55 0.25 -14.5 0.5 -14.05 1.8 Q-13.25 3.15 -11.75 3.65 L-11.0 3.8 -10.75 3.85 -10.7 3.8 -10.45 3.75 Q-9.9 3.5 -9.5 3.1 L-9.4 3.1 -9.55 2.55 -9.65 0.8 -9.5 0.15 -9.5 0.4 -9.3 1.9 -9.0 2.9 -8.9 3.15 -8.85 3.25 -8.8 3.3 -8.45 3.85 -8.15 4.1 -8.15 4.2 -8.0 4.35 -7.75 4.35 -7.65 4.4 -6.4 4.6 -4.55 4.9 -3.45 5.15 -2.45 5.25 -0.65 5.35 1.15 5.35 3.1 5.25 4.1 5.2 4.75 5.2 6.25 4.8 7.35 4.55 7.9 4.4 8.1 4.2 8.15 4.15 8.5 3.75 8.7 3.4 9.15 2.6 9.35 2.25 9.4 1.9 9.6 0.3 9.6 0.2 9.8 0.7 9.75 1.75 9.3 3.35 11.85 3.65 Q13.35 3.15 14.15 1.8 L14.6 0.5 14.65 0.25 14.7 0.2 14.7 -0.4 14.7 -0.45 14.7 -0.65 14.7 -0.75 14.7 -0.8 14.65 -0.85 14.65 -0.9 14.6 -0.95 14.6 -1.1 14.6 -1.15 14.55 -1.2 14.55 -1.35 14.5 -1.4 14.4 -1.65 13.4 -3.0 12.45 -3.6 12.45 -3.65 12.0 -3.85 11.85 -3.9 11.05 -4.1 10.6 -3.85 9.65 -3.45 9.55 -3.4 9.45 -3.4 Q9.2 -3.35 9.15 -3.7 L9.3 -3.75 10.35 -4.2 11.1 -4.6 11.75 -4.45 13.35 -3.5 13.75 -3.1 13.85 -3.0 14.35 -2.4 14.4 -2.35 14.4 -2.3 14.45 -2.25 14.45 -2.2 14.7 -1.7 14.8 -1.15 14.8 -1.05 14.85 -0.95 14.85 -0.85 14.9 -0.85 14.9 -0.8 14.9 0.5 14.9 0.65 14.85 0.75 Q14.75 2.05 13.8 2.95 L12.5 4.0 12.35 4.05 9.75 3.95 9.25 3.7 9.1 3.65 9.05 3.75 8.95 3.85 9.1 3.85 8.45 4.6 8.2 4.75 8.15 4.75 6.2 5.35 6.05 5.35 5.65 5.45 5.6 5.5 4.35 5.75 4.15 5.8 3.75 5.85 -4.7 5.55 Q-6.45 5.25 -7.95 4.6 L-8.0 4.55 -8.05 4.5 -8.7 4.05 -8.95 3.7 -9.15 3.75 -9.2 3.7 -9.35 3.8 -9.4 3.85 -9.45 3.9 Q-10.0 4.3 -10.6 4.3 L-10.95 4.45 -11.75 4.25 -13.7 2.95 Q-14.65 2.05 -14.75 0.75 L-14.8 0.65 -14.8 0.5 -14.8 -0.8 -14.8 -0.85 -14.75 -0.85 -14.75 -0.95 -14.7 -0.95 -14.7 -1.05 -14.7 -1.15 -14.6 -1.7 -14.35 -2.2 -14.35 -2.25 -14.3 -2.3 -14.3 -2.35 -14.25 -2.4 -13.75 -3.0 -13.65 -3.1 -13.25 -3.5 Q-12.55 -4.15 -11.65 -4.45 L-11.25 -4.55 -11.15 -4.5 -11.1 -4.6 Q-9.8 -4.45 -8.85 -3.75 L-8.6 -3.55 -8.5 -3.75 -8.45 -3.75 -8.35 -3.75 -7.75 -4.35 -7.55 -4.45 -7.1 -4.65 -6.9 -4.7 M-8.6 -3.75 L-8.55 -3.75 -8.6 -3.65 -8.6 -3.75 M6.1 -3.85 Q6.65 -3.75 6.5 -3.1 L6.3 -2.75 Q5.7 -2.5 5.45 -3.05 L5.35 -3.4 5.4 -3.55 5.6 -3.45 Q5.85 -3.3 6.0 -3.6 L6.1 -3.85 M7.5 -1.8 L7.5 -1.75 Q7.6 -1.2 8.25 -1.4 L8.4 -1.7 8.35 -2.15 Q8.9 -2.05 8.85 -1.4 L8.6 -0.9 8.4 -0.85 7.7 -0.9 7.55 -1.0 Q7.2 -1.45 7.5 -1.8 M11.5 0.2 L11.5 0.3 Q11.6 0.85 12.25 0.65 L12.4 0.35 Q12.5 -0.2 12.1 -0.25 L12.15 -0.3 Q12.95 -0.3 13.05 0.5 L12.85 1.0 11.5 0.9 11.4 0.55 11.5 0.2 M-12.9 0.6 L-12.9 0.5 -12.85 0.65 Q-12.6 1.1 -12.15 0.85 L-11.9 0.55 -11.9 0.15 Q-11.5 0.3 -11.5 0.9 L-11.65 1.25 Q-12.05 1.7 -12.6 1.35 -13.0 1.05 -12.9 0.6 M-4.75 3.3 L-4.8 3.45 -5.1 3.8 Q-5.8 4.1 -6.05 3.4 L-6.1 3.15 -6.05 2.95 -6.05 3.0 Q-5.9 3.45 -5.45 3.25 L-5.25 3.0 Q-5.15 2.65 -5.35 2.5 -4.85 2.55 -4.75 3.15 L-4.75 3.3 M-11.4 -3.3 Q-10.9 -3.2 -10.95 -2.6 L-11.15 -2.2 Q-11.7 -1.9 -12.0 -2.4 L-12.05 -2.85 Q-11.95 -2.5 -11.45 -2.65 L-11.35 -2.75 Q-11.2 -3.1 -11.4 -3.3 M-6.7 -2.2 Q-6.6 -2.0 -6.2 -2.05 L-6.05 -2.25 -6.05 -2.45 Q-5.6 -2.35 -5.7 -1.9 L-5.85 -1.6 Q-6.55 -1.35 -6.7 -2.0 L-6.7 -2.2 M-6.8 0.35 L-6.8 0.4 Q-6.7 0.85 -7.1 1.1 L-7.7 1.05 -7.8 0.9 -7.5 0.85 -7.3 0.65 Q-7.15 0.1 -7.55 0.0 -6.95 -0.1 -6.8 0.35 M6.85 1.2 Q7.6 1.2 7.6 1.9 L7.4 2.4 Q6.7 2.6 6.55 2.0 L6.9 1.95 7.1 1.75 Q7.15 1.3 6.85 1.2" fill="#23252e" fill-rule="evenodd" stroke="none"/>
    <path d="M5.0 0.5 L6.55 0.5 6.5 0.55 6.6 0.3 7.3 0.3 9.6 0.3 9.4 1.9 9.35 2.25 9.15 2.6 8.85 2.65 5.05 3.4 3.55 3.65 Q4.4 2.7 4.85 1.4 L5.0 0.5 M9.6 -0.25 L9.45 -1.1 9.55 -0.5 9.55 -0.6 Q9.8 -1.85 9.3 -2.95 L9.25 -3.2 9.2 -3.45 9.2 -3.5 Q9.3 -3.35 9.45 -3.4 L9.55 -3.4 9.65 -3.45 10.6 -3.85 11.05 -4.1 11.85 -3.9 12.0 -3.85 12.45 -3.65 12.45 -3.6 12.8 -2.95 Q13.25 -1.6 12.2 -0.6 L11.85 -0.3 11.8 -0.3 11.7 -0.25 11.65 -0.25 11.55 -0.15 10.65 0.0 9.6 -0.25 M12.4 -3.15 L12.4 -3.2 12.15 -3.3 12.4 -3.15 M-14.5 -0.9 L-14.5 -0.95 -14.5 -1.1 -14.5 -1.15 -14.45 -1.2 -14.45 -1.35 -14.4 -1.4 -14.3 -1.65 -13.3 -3.0 -11.75 -3.9 -11.45 -4.0 Q-10.7 -3.7 -10.45 -2.75 L-10.4 -2.4 Q-10.2 -1.3 -11.05 -0.5 L-11.9 0.15 Q-12.0 -0.05 -12.25 -0.05 L-12.55 -0.1 -12.85 0.2 -12.9 0.5 -12.9 0.6 Q-13.55 0.8 -14.05 0.4 L-14.4 -0.2 -14.5 -0.9 M-4.65 0.45 L-4.65 0.5 -4.15 2.25 -3.35 3.5 -4.75 3.3 -4.75 3.15 Q-4.85 2.55 -5.35 2.5 L-5.8 2.4 -5.85 2.45 Q-6.2 2.65 -6.05 2.95 L-6.1 3.15 -9.05 2.65 -9.0 2.9 -9.3 1.9 -9.5 0.4 -9.3 0.4 -8.15 0.35 -8.15 0.6 -7.8 0.9 -7.7 1.05 -7.1 1.1 Q-6.7 0.85 -6.8 0.4 L-6.8 0.35 -6.1 0.4 -6.05 0.5 -4.9 0.45 -4.65 0.45 M-11.4 -3.3 L-11.7 -3.4 -11.95 -3.35 -12.1 -3.1 -12.05 -2.85 -12.0 -2.4 Q-11.7 -1.9 -11.15 -2.2 L-10.95 -2.6 Q-10.9 -3.2 -11.4 -3.3 M6.85 1.2 L6.55 1.15 6.55 1.2 Q6.25 1.3 6.3 1.7 L6.55 2.0 Q6.7 2.6 7.4 2.4 L7.6 1.9 Q7.6 1.2 6.85 1.2" fill="#a66600" fill-rule="evenodd" stroke="none"/>
    <path d="M5.4 -5.4 L5.8 -5.3 5.5 -5.35 5.4 -5.4 M-7.1 -4.65 L-7.05 -4.7 -6.9 -4.7 -7.1 -4.65 M-6.9 -4.0 L-6.55 -4.1 -6.55 -4.05 -6.9 -4.0 M-6.1 0.4 L-6.3 -0.15 -6.1 0.4" fill="#8b94a3" fill-rule="evenodd" stroke="none"/>
    <path d="M-6.0 -4.15 L-5.8 -4.2 -5.8 -4.15 -6.0 -4.15" fill="#b3b9c1" fill-rule="evenodd" stroke="none"/>
    <path d="M5.4 -3.55 Q5.2 -3.75 5.45 -4.1 L5.7 -4.2 6.1 -3.85 6.0 -3.6 Q5.85 -3.3 5.6 -3.45 L5.4 -3.55 M8.35 -2.15 L8.4 -1.7 8.25 -1.4 Q7.6 -1.2 7.5 -1.75 L7.5 -1.8 Q7.4 -2.1 7.65 -2.3 L7.7 -2.3 7.8 -2.35 8.35 -2.15 M11.55 -0.15 L11.65 -0.25 11.7 -0.25 11.8 -0.3 11.85 -0.3 12.1 -0.25 Q12.5 -0.2 12.4 0.35 L12.25 0.65 Q11.6 0.85 11.5 0.3 L11.5 0.2 Q11.45 0.0 11.55 -0.15 M-12.9 0.5 L-12.85 0.2 -12.55 -0.1 -12.25 -0.05 Q-12.0 -0.05 -11.9 0.15 L-11.9 0.55 -12.15 0.85 Q-12.6 1.1 -12.85 0.65 L-12.9 0.5 M-12.05 -2.85 L-12.1 -3.1 -11.95 -3.35 -11.7 -3.4 -11.4 -3.3 Q-11.2 -3.1 -11.35 -2.75 L-11.45 -2.65 Q-11.95 -2.5 -12.05 -2.85 M-6.05 -2.45 L-6.05 -2.25 -6.2 -2.05 Q-6.6 -2.0 -6.7 -2.2 L-6.7 -2.55 -6.6 -2.75 -6.5 -2.8 Q-6.1 -2.8 -6.05 -2.45 M-7.8 0.9 L-8.15 0.6 -8.15 0.35 -7.95 0.0 -7.85 -0.05 -7.55 0.0 Q-7.15 0.1 -7.3 0.65 L-7.5 0.85 -7.8 0.9 M-5.35 2.5 Q-5.15 2.65 -5.25 3.0 L-5.45 3.25 Q-5.9 3.45 -6.05 3.0 L-6.05 2.95 Q-6.2 2.65 -5.85 2.45 L-5.8 2.4 -5.35 2.5 M6.55 2.0 L6.3 1.7 Q6.25 1.3 6.55 1.2 L6.55 1.15 6.85 1.2 Q7.15 1.3 7.1 1.75 L6.9 1.95 6.55 2.0" fill="#ffcc00" fill-rule="evenodd" stroke="none"/>
    <path d="M12.4 -3.15 L12.15 -3.3 12.4 -3.2 12.4 -3.15" fill="#878eb0" fill-rule="evenodd" stroke="none"/>
    <path d="M-8.9 -2.45 L-8.9 -2.5 -8.85 -2.5 -8.9 -2.45 M-8.15 4.1 L-7.75 4.35 -8.0 4.35 -8.15 4.2 -8.15 4.1" fill="#5e6781" fill-rule="evenodd" stroke="none"/>
  </g>
</svg>
