<?xml version="1.0" encoding="UTF-8" standalone="no"?>
<svg xmlns:xlink="http://www.w3.org/1999/xlink" height="24.2px" width="29.75px" xmlns="http://www.w3.org/2000/svg">
  <g transform="matrix(1.0, 0.0, 0.0, 1.0, 14.85, 12.15)">
    <path d="M6.5 -4.85 L6.4 -4.75 6.4 -4.65 Q6.7 -4.2 7.2 -4.55 L7.3 -4.6 Q8.5 -5.05 9.05 -6.2 9.25 -6.6 9.05 -6.85 L8.9 -7.3 8.6 -8.05 8.4 -8.85 Q8.3 -9.6 8.45 -10.35 L8.7 -10.7 Q9.1 -11.3 9.85 -11.4 L10.4 -11.5 Q12.05 -11.35 12.65 -9.85 L12.7 -9.65 12.55 -8.85 12.5 -8.9 12.45 -8.9 12.4 -8.95 12.4 -9.05 12.3 -9.15 12.3 -9.3 12.3 -9.35 Q12.0 -10.2 11.2 -10.5 L9.65 -10.4 9.45 -10.2 Q9.25 -9.95 9.35 -9.6 L9.55 -8.7 9.9 -7.95 10.0 -7.7 Q10.6 -6.55 9.95 -5.5 L9.8 -5.3 9.65 -5.15 9.5 -5.0 9.05 -4.65 8.8 -4.45 Q8.05 -4.05 7.2 -3.9 6.2 -3.8 5.45 -4.3 5.3 -4.4 5.3 -4.55 L5.25 -4.65 Q5.4 -5.2 5.95 -5.1 L6.0 -5.1 6.25 -4.9 6.5 -4.85 M5.55 4.0 Q7.3 4.4 8.7 5.8 9.6 6.75 9.8 7.95 L9.75 9.35 9.75 9.95 9.95 10.3 10.0 10.4 10.05 10.45 10.15 10.75 10.3 10.95 10.6 11.25 10.85 11.55 Q10.2 11.25 9.7 10.75 L9.65 10.7 9.2 10.2 Q8.85 9.7 8.9 9.05 L8.95 8.35 Q8.45 6.65 6.85 5.8 5.75 5.25 4.55 5.05 L4.4 5.0 3.45 4.8 3.1 4.65 Q2.9 4.45 3.0 4.1 L3.1 3.95 3.2 3.9 3.25 3.9 3.4 3.85 5.55 4.0 M-8.0 -3.85 L-8.75 -4.15 -9.4 -4.65 -9.6 -4.9 -9.7 -5.0 -10.1 -5.75 -10.25 -6.4 Q-10.35 -7.65 -10.05 -8.8 L-10.05 -8.95 Q-10.55 -10.4 -11.9 -11.2 L-11.95 -11.25 -12.1 -11.3 -12.15 -11.35 Q-12.35 -11.3 -12.45 -11.5 L-12.65 -11.6 -12.7 -11.6 -12.7 -11.65 -12.75 -11.65 -12.85 -11.65 -12.95 -11.65 -12.8 -11.7 -12.65 -11.8 -12.4 -11.8 -12.35 -11.8 -11.85 -11.7 Q-10.65 -11.45 -9.8 -10.5 L-9.25 -9.8 Q-8.75 -9.1 -8.95 -8.2 L-9.15 -7.0 -9.15 -6.8 -9.15 -6.75 -9.15 -6.5 -8.95 -6.0 -7.45 -4.4 -6.95 -3.8 -6.85 -3.7 -6.9 -3.7 -8.0 -3.85 M-6.1 -4.05 L-6.4 -3.8 -6.7 -4.5 -7.0 -4.85 -6.45 -4.7 -6.3 -4.6 -6.1 -4.05 M-6.45 4.1 L-6.2 3.65 -6.05 3.7 -5.65 4.0 Q-5.3 4.35 -5.1 4.9 -4.7 6.25 -5.35 7.5 L-5.6 7.9 -5.9 8.25 -7.05 9.1 -7.45 9.45 -7.6 9.65 -7.9 10.1 -7.9 10.2 -7.9 10.3 -7.5 10.85 -7.45 10.95 -7.25 11.05 -7.15 11.05 -7.15 11.0 -7.05 11.05 -7.05 11.1 -7.05 11.2 -7.0 11.25 -7.2 11.25 -7.5 11.25 -7.95 11.15 -8.0 11.15 Q-9.0 10.7 -8.75 9.65 L-8.45 8.95 Q-7.8 7.9 -6.7 7.2 -6.1 6.85 -6.15 6.2 -6.15 5.3 -6.5 4.5 L-6.5 4.2 -6.45 4.1" fill="#9dc5ff" fill-rule="evenodd" stroke="none"/>
    <path d="M8.8 -4.45 L9.05 -4.65 9.5 -5.0 9.65 -5.15 9.8 -5.3 9.95 -5.5 Q10.6 -6.55 10.0 -7.7 L9.9 -7.95 9.55 -8.7 9.35 -9.6 Q9.25 -9.95 9.45 -10.2 L9.65 -10.4 11.2 -10.5 Q12.0 -10.2 12.3 -9.35 L12.3 -9.3 12.3 -9.15 12.4 -9.05 12.4 -8.95 12.45 -8.9 12.5 -8.9 12.55 -8.85 12.7 -9.65 12.65 -9.85 Q12.05 -11.35 10.4 -11.5 L9.85 -11.4 Q9.1 -11.3 8.7 -10.7 L8.45 -10.35 Q8.3 -9.6 8.4 -8.85 L8.6 -8.05 8.9 -7.3 9.05 -6.85 Q9.25 -6.6 9.05 -6.2 8.5 -5.05 7.3 -4.6 L7.2 -4.55 Q6.7 -4.2 6.4 -4.65 L6.4 -4.75 6.5 -4.85 Q6.75 -4.85 7.0 -5.05 L7.6 -5.5 8.35 -6.1 8.5 -6.45 8.5 -6.95 8.25 -7.55 Q7.65 -8.55 7.95 -9.65 8.2 -10.8 9.2 -11.35 10.15 -11.95 11.3 -11.7 12.5 -11.4 12.95 -10.25 13.35 -9.4 12.8 -8.7 L12.6 -8.45 12.5 -8.4 Q12.2 -8.6 12.2 -8.9 L12.15 -9.05 12.1 -9.1 12.1 -9.2 11.9 -9.45 Q11.3 -10.15 10.4 -9.95 L9.85 -9.65 Q9.85 -9.0 10.25 -8.4 10.85 -7.5 10.95 -6.5 L10.7 -5.55 10.05 -4.5 Q9.7 -4.5 9.65 -4.75 L9.15 -4.3 8.9 -4.25 8.8 -4.45 M3.1 4.65 L3.45 4.8 4.4 5.0 4.55 5.05 Q5.75 5.25 6.85 5.8 8.45 6.65 8.95 8.35 L8.9 9.05 Q8.85 9.7 9.2 10.2 L9.65 10.7 9.7 10.75 Q10.2 11.25 10.85 11.55 L10.6 11.25 10.3 10.95 10.15 10.75 10.05 10.45 10.0 10.4 9.95 10.3 9.75 9.95 9.75 9.35 9.8 7.95 Q9.6 6.75 8.7 5.8 7.3 4.4 5.55 4.0 7.05 3.9 8.35 4.7 L9.5 5.85 10.1 7.25 10.35 8.5 10.45 9.9 Q10.5 10.8 11.1 11.45 L11.3 11.75 11.3 12.0 11.0 12.05 10.85 12.05 10.8 12.05 10.45 11.85 9.95 11.45 9.8 11.35 Q9.0 10.75 8.7 9.8 L8.65 9.45 8.2 8.1 7.9 7.3 7.65 7.05 7.1 6.55 6.8 6.4 5.8 5.85 4.9 5.65 2.95 5.2 Q2.35 5.3 2.6 4.85 L2.75 4.7 3.1 4.65 M-6.85 -3.7 L-6.95 -3.8 -7.45 -4.4 -8.95 -6.0 -9.15 -6.5 -9.15 -6.75 -9.15 -6.8 -9.15 -7.0 -8.95 -8.2 Q-8.75 -9.1 -9.25 -9.8 L-9.8 -10.5 Q-10.65 -11.45 -11.85 -11.7 L-12.35 -11.8 -12.4 -11.8 -12.65 -11.8 -12.8 -11.7 -12.95 -11.65 -12.85 -11.65 -12.75 -11.65 -12.7 -11.65 -12.7 -11.6 -12.65 -11.6 -12.45 -11.5 Q-12.35 -11.3 -12.15 -11.35 L-12.1 -11.3 -11.95 -11.25 -11.9 -11.2 Q-10.55 -10.4 -10.05 -8.95 L-10.05 -8.8 Q-10.35 -7.65 -10.25 -6.4 L-10.1 -5.75 -9.7 -5.0 -9.6 -4.9 -9.4 -4.65 -8.75 -4.15 -8.0 -3.85 -8.15 -3.7 -8.5 -3.75 -8.6 -3.75 Q-9.2 -3.75 -9.65 -4.2 L-10.05 -4.7 -10.45 -5.25 Q-10.8 -6.3 -10.55 -7.4 -10.55 -8.35 -10.85 -9.2 L-11.55 -10.4 -11.6 -10.45 -13.2 -11.75 -13.2 -11.85 -13.05 -12.05 -12.9 -12.15 -12.85 -12.15 Q-11.4 -12.05 -10.15 -11.25 -9.2 -10.55 -8.75 -9.5 L-8.45 -8.55 Q-8.7 -7.3 -8.2 -6.15 L-8.1 -5.95 -8.05 -5.9 -7.8 -5.6 -7.0 -4.85 -6.7 -4.5 -6.4 -3.8 -6.1 -4.05 -6.1 -3.9 Q-6.1 -3.55 -6.5 -3.55 L-6.7 -3.6 -6.85 -3.7 M-5.65 4.0 L-4.95 4.5 Q-4.6 5.2 -4.6 5.95 L-4.85 7.25 Q-5.2 8.3 -6.15 8.9 L-6.95 9.7 Q-7.05 10.25 -6.75 10.75 L-6.35 11.25 Q-6.05 11.55 -6.4 11.8 L-6.8 11.75 -7.5 11.55 Q-8.6 11.4 -9.05 10.25 -9.25 9.65 -9.05 9.0 -8.5 7.6 -7.2 6.9 L-6.75 6.35 Q-6.45 5.4 -7.1 4.7 L-7.15 4.55 -6.95 4.1 -6.9 4.1 -6.85 4.05 -6.8 4.05 -6.45 4.1 -6.5 4.2 -6.5 4.5 Q-6.15 5.3 -6.15 6.2 -6.1 6.85 -6.7 7.2 -7.8 7.9 -8.45 8.95 L-8.75 9.65 Q-9.0 10.7 -8.0 11.15 L-7.95 11.15 -7.5 11.25 -7.2 11.25 -7.0 11.25 -7.05 11.2 -7.05 11.1 -7.05 11.05 -7.15 11.0 -7.15 11.05 -7.25 11.05 -7.45 10.95 -7.5 10.85 -7.9 10.3 -7.9 10.2 -7.9 10.1 -7.6 9.65 -7.45 9.45 -7.05 9.1 -5.9 8.25 -5.6 7.9 -5.35 7.5 Q-4.7 6.25 -5.1 4.9 -5.3 4.35 -5.65 4.0" fill="#0066ff" fill-rule="evenodd" stroke="none"/>
    <path d="M7.1 -4.45 L6.65 -4.55 6.55 -4.6 6.15 -4.65 5.9 -4.7 3.25 -5.05 3.15 -5.05 0.6 -5.2 -0.2 -5.15 -0.4 -5.1 -0.9 -5.05 -1.3 -5.05 -1.4 -5.0 -1.8 -4.95 -2.6 -4.8 -2.65 -4.8 -2.9 -4.85 -3.05 -4.8 -3.25 -4.65 -3.4 -4.65 -4.4 -4.4 -4.7 -4.3 -5.35 -4.2 -5.5 -4.2 -5.55 -4.15 -5.6 -4.15 -5.9 -4.05 -6.45 -3.9 -6.85 -3.85 -7.95 -3.75 -8.1 -3.75 -8.3 -3.7 -8.6 -3.7 -9.4 -3.75 -9.45 -3.75 -11.1 -4.1 -11.45 -4.0 -11.75 -3.9 -13.3 -3.0 -14.3 -1.65 -14.4 -1.4 -14.45 -1.35 -14.45 -1.2 -14.5 -1.15 -14.5 -1.1 -14.5 -0.95 -14.5 -0.9 -14.55 -0.9 -14.55 -0.85 -14.6 -0.8 -14.6 -0.75 -14.6 -0.65 -14.6 -0.45 -14.6 -0.4 -14.6 0.2 -14.55 0.25 -14.5 0.4 -14.5 0.5 -14.25 1.3 -14.05 1.8 Q-13.25 3.15 -11.75 3.65 L-11.0 3.8 -10.75 3.85 -10.7 3.8 -10.45 3.8 -10.25 3.85 -10.1 3.8 -9.85 3.8 Q-8.85 3.7 -8.0 4.1 L-7.55 4.35 -7.45 4.4 -7.4 4.4 -7.35 4.45 -6.4 4.6 -4.55 4.9 -4.45 4.9 -4.45 4.95 -3.8 5.1 -3.55 5.15 -3.45 5.15 -2.95 5.2 -2.45 5.25 -0.65 5.35 -0.05 5.35 0.05 5.3 0.25 5.3 0.95 5.35 2.1 5.3 2.15 5.05 2.1 5.3 2.5 5.3 2.95 5.25 3.1 5.25 4.1 5.2 4.75 5.2 6.25 4.8 7.35 4.55 7.9 4.4 8.05 4.3 8.2 4.25 10.7 3.7 11.3 3.65 11.35 3.65 11.85 3.65 Q13.35 3.15 14.15 1.8 L14.6 0.5 14.65 0.25 14.7 0.2 14.7 -0.4 14.7 -0.45 14.7 -0.65 14.7 -0.75 14.7 -0.8 14.65 -0.85 14.65 -0.9 14.6 -0.95 14.6 -1.1 14.6 -1.15 14.55 -1.2 14.55 -1.35 14.5 -1.4 14.4 -1.65 13.4 -3.0 13.15 -3.2 12.5 -3.6 12.45 -3.6 12.45 -3.65 12.0 -3.85 11.85 -3.9 11.4 -4.05 11.3 -4.05 10.95 -4.05 10.9 -4.0 10.35 -4.05 10.25 -4.0 10.2 -4.0 10.1 -4.05 9.3 -4.1 9.25 -4.1 8.5 -4.2 8.35 -4.25 7.3 -4.35 7.1 -4.45 M5.8 -5.3 L6.7 -5.2 6.75 -5.15 7.8 -4.85 8.5 -4.8 10.65 -4.6 11.05 -4.55 11.1 -4.6 11.75 -4.45 13.35 -3.5 13.75 -3.1 13.85 -3.0 14.35 -2.4 14.4 -2.35 14.4 -2.3 14.45 -2.25 14.45 -2.2 14.7 -1.7 14.8 -1.15 14.8 -1.05 14.85 -0.95 14.85 -0.85 14.9 -0.85 14.9 -0.8 14.9 0.5 14.9 0.65 14.85 0.75 Q14.75 2.05 13.8 2.95 L12.5 4.0 12.35 4.05 10.65 4.15 8.3 4.75 7.5 5.0 6.2 5.35 6.05 5.35 5.65 5.45 5.6 5.5 4.35 5.75 4.15 5.8 3.75 5.85 -4.7 5.55 -7.8 4.7 -8.85 4.6 -9.2 4.55 -10.8 4.4 -10.95 4.45 -11.75 4.25 -13.7 2.95 Q-14.65 2.05 -14.75 0.75 L-14.8 0.65 -14.8 0.5 -14.8 -0.8 -14.8 -0.85 -14.75 -0.85 -14.75 -0.95 -14.7 -0.95 -14.7 -1.05 -14.7 -1.15 -14.6 -1.7 -14.35 -2.2 -14.35 -2.25 -14.3 -2.3 -14.3 -2.35 -14.25 -2.4 -13.75 -3.0 -13.65 -3.1 -13.25 -3.5 Q-12.55 -4.15 -11.65 -4.45 L-11.6 -4.45 -10.1 -4.4 -9.85 -4.3 -9.0 -4.3 -7.8 -4.3 -7.75 -4.35 -6.1 -4.55 -5.25 -4.85 -4.7 -5.05 -4.1 -5.2 -3.7 -5.3 -2.7 -5.55 -1.6 -5.7 0.1 -5.85 1.7 -5.9 2.65 -5.8 3.7 -5.75 3.75 -5.75 4.0 -5.7 5.05 -5.5 5.35 -5.4 5.4 -5.4 5.5 -5.35 5.8 -5.3 M7.5 -1.75 L7.45 -1.75 7.5 -1.8 7.5 -1.75 M-6.05 2.95 L-6.05 3.0 -6.05 2.95 M9.6 2.65 L9.55 2.7 9.35 2.7 9.6 2.65" fill="#23252e" fill-rule="evenodd" stroke="none"/>
    <path d="M5.4 -5.4 L5.8 -5.3 5.5 -5.35 5.4 -5.4" fill="#8b94a3" fill-rule="evenodd" stroke="none"/>
    <path d="M2.45 0.35 L2.45 0.3 2.45 0.35" fill="#999999" fill-rule="evenodd" stroke="none"/>
    <path d="M12.4 -3.15 L12.15 -3.3 12.4 -3.2 12.4 -3.15" fill="#878eb0" fill-rule="evenodd" stroke="none"/>
    <path d="M-3.35 -4.25 L-3.35 -4.2 -3.35 -4.25 M-0.55 2.05 L-0.6 2.05 -0.3 1.7 -0.5 2.0 -0.55 2.05 M-11.9 0.15 Q-12.0 -0.05 -12.25 -0.05 -12.0 -0.05 -11.9 0.15" fill="#754900" fill-rule="evenodd" stroke="none"/>
    <path d="M-6.8 0.35 L-6.8 0.4 -6.8 0.35" fill="#a66600" fill-rule="evenodd" stroke="none"/>
    <path d="M-6.85 -3.85 L-6.45 -3.9 -5.9 -4.05 -5.6 -4.15 -5.55 -4.15 -5.5 -4.2 -5.35 -4.2 -4.7 -4.3 -4.4 -4.4 -3.4 -4.65 -3.25 -4.65 -3.05 -4.8 -2.9 -4.85 -2.65 -4.8 -2.6 -4.8 -1.8 -4.95 -1.4 -5.0 -1.3 -5.05 -0.9 -5.05 -0.4 -5.1 -0.2 -5.15 0.6 -5.2 3.15 -5.05 3.25 -5.05 5.9 -4.7 6.15 -4.65 6.55 -4.6 6.65 -4.55 7.1 -4.45 7.1 -2.55 7.0 -2.55 6.6 -2.55 6.45 -2.6 5.6 -2.75 5.35 -2.8 4.6 -3.15 2.8 -3.9 Q0.7 -4.5 -1.5 -3.95 L-4.1 -3.25 -5.6 -2.85 -5.75 -2.8 -5.8 -2.8 -5.95 -2.75 -6.0 -2.7 -6.4 -2.6 -6.85 -2.45 -6.9 -2.65 -6.85 -3.85 M13.15 -3.2 L13.4 -3.0 14.4 -1.65 14.5 -1.4 14.55 -1.35 14.55 -1.2 14.6 -1.15 14.6 -1.1 14.6 -0.95 14.65 -0.9 14.65 -0.85 14.7 -0.8 14.7 -0.75 14.7 -0.65 14.7 -0.45 14.7 -0.4 14.7 0.2 14.65 0.25 14.6 0.5 14.15 1.8 Q13.35 3.15 11.85 3.65 L11.35 3.65 11.3 3.65 10.7 3.7 8.2 4.25 8.05 4.3 7.9 4.4 7.35 4.55 6.25 4.8 4.75 5.2 5.6 3.5 5.85 2.8 6.05 2.25 6.05 2.15 6.15 1.85 6.15 1.75 6.15 1.65 6.35 1.2 6.4 1.05 6.75 0.1 7.75 0.35 8.05 0.5 8.65 1.15 8.85 1.4 9.8 1.95 12.05 1.75 12.75 1.0 13.35 -0.25 Q13.7 -1.3 13.5 -2.3 L13.55 -2.3 13.5 -2.4 13.4 -2.85 13.35 -3.05 13.15 -3.2 M2.95 5.25 L2.5 5.3 2.85 5.25 2.9 5.2 2.95 5.25 M-4.45 4.9 L-4.55 4.9 -6.4 4.6 -7.35 4.45 -7.4 4.4 -7.45 4.4 -7.55 4.35 -8.0 4.1 Q-8.85 3.7 -9.85 3.8 L-10.1 3.8 -10.25 3.85 -10.45 3.8 -10.7 3.8 -10.75 3.85 -11.0 3.8 -11.75 3.65 Q-13.25 3.15 -14.05 1.8 L-14.25 1.3 -13.85 1.8 Q-12.45 3.0 -10.6 2.65 L-9.4 2.35 -9.5 2.4 -8.75 1.35 -8.45 1.05 Q-7.7 0.45 -6.8 0.35 L-6.55 0.35 -6.15 1.95 -5.3 3.6 -5.1 4.0 -4.45 4.9 M-9.45 -3.75 L-9.4 -3.75 -9.45 -3.75 M-3.35 -4.25 L-3.35 -4.2 -3.35 -4.25 M-4.15 0.95 L-4.2 0.85 -4.1 0.9 -4.15 0.95 M-6.05 2.95 L-6.05 3.0 -6.05 2.95 M-6.8 0.35 L-6.8 0.4 -6.8 0.35 M9.6 2.65 L9.35 2.7 9.55 2.7 9.6 2.65" fill="#595988" fill-rule="evenodd" stroke="none"/>
    <path d="M-13.55 -1.15 L-13.55 -1.2 -13.55 -1.15" fill="#a4a4ff" fill-rule="evenodd" stroke="none"/>
    <path d="M12.2 -3.15 L12.4 -2.55 12.4 -2.15 12.35 -2.0 11.8 -1.9 11.35 -1.65 Q10.95 -1.2 10.4 -1.4 L10.25 -1.55 Q10.1 -1.95 10.25 -2.4 L10.75 -3.15 11.0 -3.35 11.05 -3.4 11.15 -3.45 12.1 -3.3 12.2 -3.15 M-13.55 -1.2 L-13.45 -1.75 -13.4 -1.9 -13.15 -2.3 -12.35 -2.9 -11.35 -3.2 Q-10.65 -3.3 -10.5 -2.7 L-10.45 -2.45 -10.5 -1.85 -10.65 -1.75 -10.7 -1.7 -11.0 -1.65 -11.35 -1.65 Q-11.85 -1.55 -12.3 -1.15 L-12.45 -1.05 -12.55 -0.9 -12.85 -0.65 -13.35 -0.85 -13.55 -1.15 -13.55 -1.2" fill="#ffffff" fill-rule="evenodd" stroke="none"/>
    <path d="M7.1 -4.45 L7.3 -4.35 8.35 -4.25 8.5 -4.2 9.25 -4.1 9.3 -4.1 10.1 -4.05 10.2 -4.0 10.25 -4.0 10.35 -4.05 10.9 -4.0 10.95 -4.05 11.3 -4.05 11.4 -4.05 11.85 -3.9 12.0 -3.85 12.45 -3.65 12.45 -3.6 12.5 -3.6 13.15 -3.2 13.35 -3.05 13.4 -2.85 13.5 -2.4 13.55 -2.3 13.5 -2.3 12.35 -2.9 12.2 -3.15 12.1 -3.3 11.15 -3.45 11.05 -3.4 11.0 -3.35 10.75 -3.15 9.7 -3.05 8.8 -2.8 7.1 -2.55 7.1 -4.45 M-14.5 0.4 L-14.55 0.25 -14.6 0.2 -14.6 -0.4 -14.6 -0.45 -14.6 -0.65 -14.6 -0.75 -14.6 -0.8 -14.55 -0.85 -14.55 -0.9 -14.5 -0.9 -14.5 -0.95 -14.5 -1.1 -14.5 -1.15 -14.45 -1.2 -14.45 -1.35 -14.4 -1.4 -14.3 -1.65 -13.3 -3.0 -11.75 -3.9 -11.45 -4.0 -11.1 -4.1 -9.45 -3.75 -9.4 -3.75 -8.6 -3.7 -8.3 -3.7 -8.1 -3.75 -7.95 -3.75 -6.85 -3.85 -6.9 -2.65 -6.85 -2.45 -6.4 -2.6 -6.9 -2.45 -7.5 -2.3 Q-8.4 -2.05 -9.2 -2.3 L-10.5 -2.7 Q-10.65 -3.3 -11.35 -3.2 L-12.35 -2.9 -13.15 -2.3 -13.4 -1.9 -13.45 -1.75 -13.55 -1.2 -13.55 -1.15 -14.0 -0.85 Q-14.5 -0.35 -14.4 0.4 L-14.5 0.4 M-5.95 -2.75 L-5.8 -2.8 -5.75 -2.8 -5.95 -2.75 M12.4 -3.15 L12.4 -3.2 12.15 -3.3 12.4 -3.15" fill="#c77ea9" fill-rule="evenodd" stroke="none"/>
    <path d="M-14.25 1.3 L-14.5 0.5 -14.5 0.4 -14.4 0.4 Q-14.5 -0.35 -14.0 -0.85 L-13.55 -1.15 -13.35 -0.85 -12.85 -0.65 -12.55 -0.9 -12.45 -1.05 -12.3 -1.15 Q-11.85 -1.55 -11.35 -1.65 L-11.0 -1.65 -10.7 -1.7 -10.65 -1.75 -10.5 -1.85 -10.45 -2.45 -10.5 -2.7 -9.2 -2.3 Q-8.4 -2.05 -7.5 -2.3 L-6.9 -2.45 -6.9 -2.0 -6.75 -1.2 -6.75 -0.75 -6.55 0.35 -6.8 0.35 Q-7.7 0.45 -8.45 1.05 L-8.75 1.35 -9.5 2.4 -9.4 2.35 -10.6 2.65 Q-12.45 3.0 -13.85 1.8 L-14.25 1.3 M7.0 -2.55 L7.1 -2.55 8.8 -2.8 9.7 -3.05 10.75 -3.15 10.25 -2.4 Q10.1 -1.95 10.25 -1.55 L10.4 -1.4 Q10.95 -1.2 11.35 -1.65 L11.8 -1.9 12.35 -2.0 12.4 -2.15 12.4 -2.55 12.2 -3.15 12.35 -2.9 13.5 -2.3 Q13.7 -1.3 13.35 -0.25 L12.75 1.0 12.05 1.75 9.8 1.95 8.85 1.4 8.65 1.15 8.05 0.5 7.75 0.35 6.75 0.1 6.95 -1.25 7.0 -1.6 7.0 -2.05 7.0 -2.55 M7.5 -1.75 L7.5 -1.8 7.45 -1.75 7.5 -1.75 M-11.9 0.15 Q-12.0 -0.05 -12.25 -0.05 -12.0 -0.05 -11.9 0.15" fill="#8787c2" fill-rule="evenodd" stroke="none"/>
    <path d="M4.75 5.2 L4.1 5.2 3.1 5.25 2.95 5.25 2.9 5.2 2.85 5.25 2.5 5.3 2.1 5.3 2.15 5.05 2.1 5.3 0.95 5.35 0.25 5.3 0.05 5.3 -0.05 5.35 -0.65 5.35 -2.45 5.25 -2.95 5.2 -3.45 5.15 -3.55 5.15 -3.8 5.1 -4.45 4.95 -4.45 4.9 -5.1 4.0 -5.3 3.6 -6.15 1.95 -6.55 0.35 -6.75 -0.75 -6.75 -1.2 -6.9 -2.0 -6.9 -2.45 -6.4 -2.6 -6.0 -2.7 -5.95 -2.75 -5.75 -2.8 -5.6 -2.85 -4.1 -3.25 -1.5 -3.95 Q0.7 -4.5 2.8 -3.9 L4.6 -3.15 5.35 -2.8 5.6 -2.75 6.45 -2.6 6.6 -2.55 7.0 -2.55 7.0 -2.05 7.0 -1.6 6.95 -1.25 6.75 0.1 6.4 1.05 6.35 1.2 6.15 1.65 6.15 1.75 6.15 1.85 6.05 2.15 6.05 2.25 5.85 2.8 5.6 3.5 4.75 5.2 M-0.55 2.05 L-0.5 2.0 -0.3 1.7 -0.6 2.05 -0.55 2.05 M-4.15 0.95 L-4.1 0.9 -4.2 0.85 -4.15 0.95 M2.45 0.35 L2.45 0.3 2.45 0.35" fill="#55437e" fill-rule="evenodd" stroke="none"/>
  </g>
</svg>
