<?xml version="1.0" encoding="UTF-8" standalone="no"?>
<svg xmlns:xlink="http://www.w3.org/1999/xlink" height="11.85px" width="29.75px" xmlns="http://www.w3.org/2000/svg">
  <g transform="matrix(1.0, 0.0, 0.0, 1.0, 14.85, 5.9)">
    <path d="M5.8 -5.3 L6.7 -5.2 6.75 -5.15 7.8 -4.85 8.5 -4.8 10.65 -4.6 11.05 -4.55 11.1 -4.6 11.75 -4.45 13.35 -3.5 13.75 -3.1 13.85 -3.0 14.35 -2.4 14.4 -2.35 14.4 -2.3 14.45 -2.25 14.45 -2.2 14.7 -1.7 14.8 -1.15 14.8 -1.05 14.85 -0.95 14.85 -0.85 14.9 -0.85 14.9 -0.8 14.9 0.5 14.9 0.65 14.85 0.75 Q14.75 2.05 13.8 2.95 L12.5 4.0 12.35 4.05 10.65 4.15 8.3 4.75 7.5 5.0 6.2 5.35 6.05 5.35 5.65 5.45 5.6 5.5 4.35 5.75 4.15 5.8 3.75 5.85 -4.7 5.55 -7.8 4.7 -8.85 4.6 -9.2 4.55 -10.8 4.4 -10.95 4.45 -11.75 4.25 -13.7 2.95 Q-14.65 2.05 -14.75 0.75 L-14.8 0.65 -14.8 0.5 -14.8 -0.8 -14.8 -0.85 -14.75 -0.85 -14.75 -0.95 -14.7 -0.95 -14.7 -1.05 -14.7 -1.15 -14.6 -1.7 -14.35 -2.2 -14.35 -2.25 -14.3 -2.3 -14.3 -2.35 -14.25 -2.4 -13.75 -3.0 -13.65 -3.1 -13.25 -3.5 Q-12.55 -4.15 -11.65 -4.45 L-11.6 -4.45 -10.1 -4.4 -9.85 -4.3 -9.0 -4.3 -7.8 -4.3 -7.75 -4.35 -6.1 -4.55 -5.25 -4.85 -4.7 -5.05 -4.1 -5.2 -3.7 -5.3 -2.7 -5.55 -1.6 -5.7 0.1 -5.85 1.7 -5.9 2.65 -5.8 3.7 -5.75 3.75 -5.75 4.0 -5.7 5.05 -5.5 5.35 -5.4 5.4 -5.4 5.5 -5.35 5.8 -5.3 M5.9 -4.7 L3.25 -5.05 3.15 -5.05 0.6 -5.2 -0.2 -5.15 0.35 -4.7 Q1.35 -3.65 1.85 -2.25 L2.1 -1.5 2.35 -0.45 2.4 -0.1 2.4 0.1 2.4 0.2 2.45 0.3 2.45 0.35 2.5 0.6 2.6 1.2 2.65 1.35 2.55 3.5 2.55 3.65 2.55 3.7 2.25 4.8 2.1 5.3 3.1 5.25 4.1 5.2 4.75 5.2 6.25 4.8 7.35 4.55 7.9 4.4 8.05 4.3 8.2 4.25 10.7 3.7 11.3 3.65 11.35 3.65 11.85 3.65 Q13.35 3.15 14.15 1.8 L14.6 0.5 14.65 0.25 14.7 0.2 14.7 -0.4 14.7 -0.45 14.7 -0.65 14.7 -0.75 14.7 -0.8 14.65 -0.85 14.65 -0.9 14.6 -0.95 14.6 -1.1 14.6 -1.15 14.55 -1.2 14.55 -1.35 14.5 -1.4 14.4 -1.65 13.4 -3.0 12.45 -3.6 12.45 -3.65 12.0 -3.85 11.85 -3.9 11.4 -4.05 11.3 -4.05 10.95 -4.05 10.9 -4.0 10.35 -4.05 10.25 -4.0 10.2 -4.0 10.1 -4.05 8.5 -4.2 8.35 -4.25 7.3 -4.35 6.55 -4.6 5.9 -4.7 M1.7 0.5 L1.35 -2.3 1.35 -2.4 1.3 -2.45 0.7 -3.9 -0.4 -5.1 -0.9 -5.05 -1.3 -5.05 -1.4 -5.0 -1.8 -4.95 -2.6 -4.8 -2.65 -4.8 -2.9 -4.85 -3.05 -4.8 -3.25 -4.65 -3.4 -4.65 -4.4 -4.4 -4.7 -4.3 -5.35 -4.2 -5.5 -4.2 -5.55 -4.15 -5.6 -4.15 -6.45 -3.9 -7.95 -3.75 -8.1 -3.75 -8.3 -3.7 -8.6 -3.7 -9.45 -3.75 -11.1 -4.1 -11.45 -4.0 -11.75 -3.9 -13.3 -3.0 -14.3 -1.65 -14.4 -1.4 -14.45 -1.35 -14.45 -1.2 -14.5 -1.15 -14.5 -1.1 -14.5 -0.95 -14.5 -0.9 -14.55 -0.9 -14.55 -0.85 -14.6 -0.8 -14.6 -0.75 -14.6 -0.65 -14.6 -0.45 -14.6 -0.4 -14.6 0.2 -14.55 0.25 -14.5 0.5 -14.25 1.3 -14.05 1.8 Q-13.25 3.15 -11.75 3.65 L-11.0 3.8 -10.75 3.85 -10.7 3.8 -10.45 3.8 -10.25 3.85 -10.1 3.8 -9.85 3.8 Q-8.85 3.7 -8.0 4.1 L-7.55 4.35 -7.45 4.4 -7.4 4.4 -7.35 4.45 -6.4 4.6 -4.55 4.9 -3.45 5.15 -2.45 5.25 -0.65 5.35 -0.05 5.35 1.05 4.05 1.35 3.45 1.35 3.4 1.6 2.45 1.65 2.05 1.7 0.5 M7.5 -1.75 L7.45 -1.75 7.5 -1.8 7.5 -1.75 M9.6 2.65 L9.55 2.7 9.35 2.7 9.6 2.65 M-6.05 3.0 L-6.05 2.95 -6.05 3.0" fill="#23252e" fill-rule="evenodd" stroke="none"/>
    <path d="M-3.35 -4.2 L-3.35 -4.25 -3.35 -4.2 M-0.55 2.05 L-0.6 2.05 -0.3 1.7 -0.5 2.0 -0.55 2.05 M-11.9 0.15 Q-12.0 -0.05 -12.25 -0.05 -12.0 -0.05 -11.9 0.15" fill="#754900" fill-rule="evenodd" stroke="none"/>
    <path d="M-6.8 0.4 L-6.8 0.35 -6.8 0.4" fill="#a66600" fill-rule="evenodd" stroke="none"/>
    <path d="M5.4 -5.4 L5.8 -5.3 5.5 -5.35 5.4 -5.4" fill="#8b94a3" fill-rule="evenodd" stroke="none"/>
    <path d="M12.4 -3.15 L12.15 -3.3 12.4 -3.2 12.4 -3.15" fill="#878eb0" fill-rule="evenodd" stroke="none"/>
    <path d="M-14.25 1.3 L-14.5 0.5 -14.55 0.25 -14.6 0.2 -14.6 -0.4 -14.6 -0.45 -14.6 -0.65 -14.6 -0.75 -14.6 -0.8 -14.55 -0.85 -14.55 -0.9 -14.5 -0.9 -14.5 -0.95 -14.5 -1.1 -14.5 -1.15 -14.45 -1.2 -14.45 -1.35 -14.4 -1.4 -14.3 -1.65 -13.3 -3.0 -11.75 -3.9 -11.45 -4.0 -11.1 -4.1 -9.45 -3.75 -8.6 -3.7 -8.3 -3.7 -8.1 -3.75 Q-8.05 -3.5 -8.15 -3.3 L-8.25 -2.25 -8.15 -1.3 -8.45 0.6 Q-8.75 1.65 -9.5 2.4 L-9.4 2.35 -10.6 2.65 Q-12.45 3.0 -13.85 1.8 L-14.25 1.3 M-13.15 -2.3 L-13.4 -1.9 -13.6 -0.8 -13.3 -0.2 -12.45 -0.05 Q-11.6 -0.3 -11.0 -1.0 -10.45 -1.6 -10.45 -2.45 -10.5 -3.3 -11.35 -3.2 L-12.35 -2.9 -13.15 -2.3 M-11.9 0.15 Q-12.0 -0.05 -12.25 -0.05 -12.0 -0.05 -11.9 0.15" fill="#cec24c" fill-rule="evenodd" stroke="none"/>
    <path d="M2.45 0.3 L2.45 0.35 2.45 0.3 M2.65 1.35 Q2.85 1.65 3.35 1.8 L5.65 1.95 5.95 1.9 Q7.15 1.9 8.1 1.1 L8.5 0.6 8.85 0.2 9.6 -0.95 Q10.2 -2.3 10.2 -3.8 L10.2 -4.0 10.25 -4.0 10.35 -4.05 10.9 -4.0 10.95 -4.05 11.3 -4.05 11.4 -4.05 11.85 -3.9 12.0 -3.85 12.45 -3.65 12.45 -3.6 12.8 -2.95 12.9 -1.75 12.9 -1.65 Q13.0 -0.4 12.25 0.6 L10.95 1.9 9.9 2.5 9.6 2.65 9.35 2.7 8.75 2.8 8.55 2.75 7.3 3.0 5.6 3.35 5.05 3.4 4.7 3.45 4.4 3.6 3.8 3.6 3.4 3.65 2.85 3.65 2.55 3.65 2.55 3.5 2.65 1.35 M12.4 -3.15 L12.4 -3.2 12.15 -3.3 12.4 -3.15 M11.55 -0.9 Q12.5 -1.4 12.4 -2.55 12.35 -3.65 11.15 -3.45 10.5 -3.15 10.25 -2.4 9.95 -1.45 10.75 -0.9 11.1 -0.7 11.55 -0.9" fill="#999999" fill-rule="evenodd" stroke="none"/>
    <path d="M1.7 0.5 L1.65 2.05 1.6 2.45 1.35 3.4 1.35 3.45 1.05 4.05 -0.05 5.35 -0.65 5.35 -2.45 5.25 -3.45 5.15 -4.55 4.9 -6.4 4.6 -7.35 4.45 -7.4 4.4 -7.45 4.4 -7.55 4.35 -8.0 4.1 Q-8.85 3.7 -9.85 3.8 L-10.1 3.8 -10.25 3.85 -10.45 3.8 -10.7 3.8 -10.75 3.85 -11.0 3.8 -11.75 3.65 Q-13.25 3.15 -14.05 1.8 L-14.25 1.3 -13.85 1.8 Q-12.45 3.0 -10.6 2.65 L-9.4 2.35 -9.5 2.4 Q-8.75 1.65 -8.45 0.6 L-8.15 -1.3 -8.1 -1.05 -8.05 -0.8 -7.55 0.4 -7.45 0.65 -7.4 0.7 -7.3 0.85 -7.0 1.15 -6.6 1.45 -6.15 1.7 -5.7 1.95 -3.95 2.1 Q-2.6 2.2 -1.45 1.5 L-0.9 1.15 -0.8 1.1 -0.05 0.25 -0.05 0.35 0.0 0.45 Q0.7 0.1 1.55 0.45 L1.7 0.5 M-0.55 2.05 L-0.5 2.0 -0.3 1.7 -0.6 2.05 -0.55 2.05 M-6.05 3.0 L-6.05 2.95 -6.05 3.0" fill="#928727" fill-rule="evenodd" stroke="none"/>
    <path d="M9.6 2.65 L9.9 2.5 10.95 1.9 12.25 0.6 Q13.0 -0.4 12.9 -1.65 L12.9 -1.75 12.8 -2.95 12.45 -3.6 13.4 -3.0 14.4 -1.65 14.5 -1.4 14.55 -1.35 14.55 -1.2 14.6 -1.15 14.6 -1.1 14.6 -0.95 14.65 -0.9 14.65 -0.85 14.7 -0.8 14.7 -0.75 14.7 -0.65 14.7 -0.45 14.7 -0.4 14.7 0.2 14.65 0.25 14.6 0.5 14.15 1.8 Q13.35 3.15 11.85 3.65 L11.35 3.65 11.3 3.65 10.7 3.7 8.2 4.25 8.05 4.3 7.9 4.4 7.35 4.55 6.25 4.8 4.75 5.2 4.1 5.2 3.1 5.25 2.1 5.3 2.25 4.8 2.55 3.7 2.55 3.65 2.85 3.65 3.4 3.65 3.8 3.6 4.4 3.6 4.7 3.45 5.05 3.4 5.6 3.35 7.3 3.0 8.55 2.75 8.75 2.8 9.35 2.7 9.55 2.7 9.6 2.65" fill="#333333" fill-rule="evenodd" stroke="none"/>
    <path d="M2.45 0.3 L2.4 0.2 2.4 0.1 2.4 -0.1 2.35 -0.45 2.1 -1.5 1.85 -2.25 Q1.35 -3.65 0.35 -4.7 L-0.2 -5.15 0.6 -5.2 3.15 -5.05 3.25 -5.05 5.9 -4.7 6.55 -4.6 7.3 -4.35 8.35 -4.25 8.5 -4.2 10.1 -4.05 10.2 -4.0 10.2 -3.8 Q10.2 -2.3 9.6 -0.95 L8.85 0.2 8.5 0.6 8.1 1.1 Q7.15 1.9 5.95 1.9 L5.65 1.95 3.35 1.8 Q2.85 1.65 2.65 1.35 L2.6 1.2 2.5 0.6 2.45 0.35 2.45 0.3 M7.5 -1.75 L7.5 -1.8 7.45 -1.75 7.5 -1.75" fill="#5f5f70" fill-rule="evenodd" stroke="none"/>
    <path d="M-8.1 -3.75 L-7.95 -3.75 -6.45 -3.9 -5.6 -4.15 -5.55 -4.15 -5.5 -4.2 -5.35 -4.2 -4.7 -4.3 -4.4 -4.4 -3.4 -4.65 -3.25 -4.65 -3.05 -4.8 -2.9 -4.85 -2.65 -4.8 -2.6 -4.8 -1.8 -4.95 -1.4 -5.0 -1.3 -5.05 -0.9 -5.05 -0.4 -5.1 0.7 -3.9 1.3 -2.45 1.35 -2.4 1.35 -2.3 1.7 0.5 1.55 0.45 Q0.7 0.1 0.0 0.45 L-0.05 0.35 -0.05 0.25 -0.8 1.1 -0.9 1.15 -1.45 1.5 Q-2.6 2.2 -3.95 2.1 L-5.7 1.95 -6.15 1.7 -6.6 1.45 -7.0 1.15 -7.3 0.85 -7.4 0.7 -7.45 0.65 -7.55 0.4 -8.05 -0.8 -8.1 -1.05 -8.15 -1.3 -8.25 -2.25 -8.15 -3.3 Q-8.05 -3.5 -8.1 -3.75 M-3.35 -4.2 L-3.35 -4.25 -3.35 -4.2 M-6.8 0.4 L-6.8 0.35 -6.8 0.4" fill="#565016" fill-rule="evenodd" stroke="none"/>
    <path d="M11.55 -0.9 Q11.1 -0.7 10.75 -0.9 9.95 -1.45 10.25 -2.4 10.5 -3.15 11.15 -3.45 12.35 -3.65 12.4 -2.55 12.5 -1.4 11.55 -0.9" fill="#cccccc" fill-rule="evenodd" stroke="none"/>
    <path d="M-13.15 -2.3 L-12.35 -2.9 -11.35 -3.2 Q-10.5 -3.3 -10.45 -2.45 -10.45 -1.6 -11.0 -1.0 -11.6 -0.3 -12.45 -0.05 L-13.3 -0.2 -13.6 -0.8 -13.4 -1.9 -13.15 -2.3" fill="#e4dd9e" fill-rule="evenodd" stroke="none"/>
  </g>
</svg>
