<?xml version="1.0" encoding="UTF-8" standalone="no"?>
<svg xmlns:xlink="http://www.w3.org/1999/xlink" height="13.6px" width="29.75px" xmlns="http://www.w3.org/2000/svg">
  <g transform="matrix(1.0, 0.0, 0.0, 1.0, 14.9, 6.5)">
    <path d="M1.0 -6.5 L1.25 -6.45 1.4 -6.4 2.55 -6.35 3.15 -6.4 3.95 -6.4 5.45 -6.15 5.95 -6.0 6.4 -5.65 7.95 -4.6 8.1 -4.5 8.3 -4.4 8.8 -4.45 9.1 -4.4 9.55 -4.35 9.6 -4.35 10.1 -4.3 10.6 -4.3 11.0 -4.25 11.05 -4.3 11.7 -4.15 Q12.6 -3.9 13.3 -3.25 L13.7 -2.9 13.8 -2.8 14.3 -2.25 14.35 -2.2 14.35 -2.15 14.4 -2.1 14.4 -2.05 14.65 -1.55 14.75 -1.05 14.75 -0.95 14.8 -0.85 14.8 -0.8 14.85 -0.8 14.85 -0.75 14.85 0.5 14.85 0.6 14.8 0.7 Q14.7 1.9 13.75 2.75 L12.45 3.7 12.3 3.75 12.3 3.8 10.6 3.9 8.65 4.35 8.45 4.8 8.45 4.9 7.95 5.05 Q7.15 5.3 6.4 5.7 L5.4 6.35 Q2.1 7.25 -1.3 7.05 L-2.65 6.85 -3.1 6.75 -3.75 6.55 -6.1 5.4 -7.35 4.55 -7.85 4.35 -8.9 4.3 -9.25 4.25 -10.85 4.1 -11.0 4.15 -11.8 4.0 Q-13.0 3.6 -13.75 2.75 -14.7 1.9 -14.8 0.7 L-14.85 0.6 -14.85 0.5 -14.85 -0.75 -14.85 -0.8 -14.8 -0.8 -14.8 -0.85 -14.75 -0.85 -14.75 -0.95 -14.75 -1.05 -14.65 -1.55 -14.4 -2.05 -14.4 -2.1 -14.35 -2.15 -14.35 -2.2 -14.3 -2.25 -13.8 -2.8 -13.7 -2.9 -13.3 -3.25 Q-12.6 -3.9 -11.7 -4.15 L-11.65 -4.15 -10.15 -4.1 -9.9 -4.0 -9.8 -4.0 -9.05 -4.0 -7.85 -4.0 -7.8 -4.05 -7.65 -4.05 -7.45 -4.25 Q-6.35 -5.15 -5.0 -5.6 L-2.75 -6.2 0.95 -6.5 1.0 -6.5 M5.85 2.4 L6.0 2.35 5.2 0.95 Q4.85 0.3 4.85 -0.45 L5.1 -1.45 5.2 -1.6 5.1 -2.05 5.05 -2.2 4.3 -4.4 4.25 -4.6 4.0 -4.65 3.95 -4.65 3.2 -4.7 3.1 -4.7 2.45 -4.7 0.55 -4.85 -0.25 -4.8 -0.45 -4.75 -0.95 -4.7 -1.35 -4.7 -1.45 -4.65 -1.85 -4.65 -2.0 -4.6 -2.65 -4.45 -2.7 -4.45 -2.95 -4.5 -3.1 -4.45 -3.2 -4.45 -3.3 -4.35 -3.45 -4.3 -4.45 -4.1 -4.75 -4.0 -4.85 -4.0 -5.4 -3.95 -5.55 -3.9 -5.6 -3.85 -5.65 -3.85 -5.95 -3.8 -6.15 -3.75 -6.2 -3.75 -6.45 -3.65 -6.5 -3.65 -6.6 -3.65 -6.9 -3.6 -7.0 -3.6 -7.35 -3.55 -7.8 -3.35 -8.3 -3.4 -9.25 -3.4 -9.15 -3.5 -9.45 -3.5 -9.5 -3.5 -11.15 -3.8 -11.5 -3.7 -11.8 -3.6 Q-12.65 -3.35 -13.35 -2.8 L-14.35 -1.55 -14.45 -1.3 -14.5 -1.25 -14.5 -1.1 -14.55 -1.05 -14.55 -1.0 -14.55 -0.85 -14.6 -0.85 -14.6 -0.8 -14.65 -0.75 -14.65 -0.7 -14.65 -0.6 -14.65 -0.4 -14.65 0.2 -14.6 0.25 -14.55 0.4 -14.55 0.5 -14.3 1.2 -14.1 1.7 Q-13.3 2.95 -11.8 3.4 L-11.05 3.55 -10.8 3.6 -10.75 3.55 -10.5 3.55 -10.3 3.6 -10.15 3.55 -9.9 3.55 -9.5 3.55 -9.15 3.5 -9.0 3.5 -8.9 3.55 -9.2 3.55 -8.05 3.8 -7.6 4.05 -7.55 4.05 -7.5 4.1 -7.45 4.1 -7.4 4.15 -7.2 4.2 -7.05 4.2 -6.5 4.3 -6.45 4.3 -6.05 4.35 -5.75 4.4 -5.15 4.5 -4.85 4.55 -4.6 4.6 -4.5 4.6 -3.85 4.75 -3.6 4.8 -3.5 4.8 -3.0 4.85 -2.5 4.9 -0.7 5.0 -0.1 5.0 0.0 4.95 0.2 4.95 0.9 5.0 2.05 4.95 2.1 4.7 2.05 4.95 2.45 4.95 2.8 4.9 2.9 4.9 3.05 4.9 4.05 4.85 4.65 4.85 4.7 4.85 4.95 4.75 5.05 4.75 5.4 4.0 5.55 3.7 5.85 2.4 M-0.3 -5.4 L0.05 -5.45 1.65 -5.5 2.6 -5.4 3.65 -5.35 3.7 -5.35 3.95 -5.3 4.15 -5.3 4.35 -5.5 4.45 -5.55 4.85 -5.75 5.7 -5.7 5.6 -5.75 4.15 -5.95 4.05 -6.0 4.0 -6.05 1.45 -6.15 -0.15 -6.1 -0.9 -6.05 -3.9 -5.6 -4.8 -5.35 -5.0 -5.25 -5.9 -4.75 -6.1 -4.6 -6.4 -4.3 -6.65 -4.1 -6.25 -4.2 -6.15 -4.25 -5.3 -4.5 -4.95 -4.65 -4.75 -4.7 -4.15 -4.85 -3.75 -4.95 -2.75 -5.15 -1.65 -5.3 -1.45 -5.35 -0.3 -5.4 M7.4 -4.05 L6.75 -4.8 5.75 -4.95 5.35 -5.0 4.5 -4.95 4.4 -4.4 4.45 -4.35 5.65 -2.25 5.55 -1.7 Q5.35 -0.9 5.45 -0.1 L5.45 0.0 5.55 0.75 Q5.7 1.5 6.4 2.0 L6.55 2.1 6.5 2.1 6.6 2.15 Q6.1 2.2 5.85 3.1 L5.55 4.55 5.55 4.65 Q5.2 4.7 5.15 4.85 L5.15 5.15 5.8 5.05 5.8 5.0 7.65 4.6 8.15 4.1 Q9.0 3.05 9.2 1.35 L9.2 1.3 Q10.1 -0.1 9.1 -1.7 L9.0 -1.85 8.15 -2.6 8.1 -2.75 7.5 -3.9 7.4 -4.05 M9.5 -3.8 L9.55 -3.8 8.6 -3.95 8.55 -3.95 7.95 -3.9 8.05 -3.85 8.1 -3.85 8.1 -3.8 8.1 -3.75 8.35 -3.2 8.4 -2.95 8.5 -2.8 Q9.25 -2.7 9.65 -1.95 L10.05 -0.7 10.05 0.8 10.05 0.95 9.0 3.65 9.0 3.75 9.95 3.5 10.1 3.25 9.9 3.55 10.65 3.45 11.25 3.4 11.3 3.4 11.8 3.4 Q13.3 2.95 14.1 1.7 L14.55 0.5 14.6 0.25 14.65 0.2 14.65 -0.4 14.65 -0.55 14.65 -0.6 14.65 -0.7 14.65 -0.75 14.6 -0.8 14.6 -0.85 14.55 -0.85 14.55 -1.0 14.55 -1.05 14.5 -1.1 14.5 -1.25 14.45 -1.3 14.35 -1.55 13.35 -2.8 13.3 -2.85 13.1 -2.95 12.45 -3.35 12.4 -3.35 12.4 -3.4 11.95 -3.6 11.8 -3.6 11.35 -3.75 11.25 -3.75 10.9 -3.75 10.85 -3.75 10.3 -3.75 10.2 -3.7 10.15 -3.75 10.05 -3.75 9.5 -3.8 M4.7 5.3 L4.3 5.35 4.1 5.4 3.7 5.45 0.95 5.55 -1.85 5.45 -4.65 5.2 -4.75 5.2 -4.85 5.15 -5.0 5.15 -6.3 4.85 -6.75 4.75 -6.55 4.9 -5.6 5.5 -5.0 5.7 -4.4 5.85 -3.45 6.05 -2.2 6.35 1.25 6.5 1.8 6.45 5.5 5.75 4.9 5.45 4.85 5.4 4.7 5.3 M-6.1 2.8 L-6.1 2.75 -6.1 2.8" fill="#23252e" fill-rule="evenodd" stroke="none"/>
    <path d="M0.15 -1.1 L0.15 -1.05 0.15 -1.1 M10.75 -2.85 L10.7 -2.85 10.75 -2.85 M10.25 1.9 L10.3 2.0 10.25 1.95 10.25 1.9 M-4.3 -1.4 L-4.25 -1.35 -4.3 -1.35 -4.3 -1.4 M-4.05 1.0 L-4.1 1.05 -4.1 0.95 -4.05 1.0" fill="#6fa637" fill-rule="evenodd" stroke="none"/>
    <path d="M-0.35 -3.6 L-0.35 -3.65 -0.3 -3.65 -0.35 -3.6" fill="#2b5500" fill-rule="evenodd" stroke="none"/>
    <path d="M12.35 -2.95 L12.1 -3.05 12.35 -2.95" fill="#878eb0" fill-rule="evenodd" stroke="none"/>
    <path d="M2.9 4.9 L2.8 4.9 2.85 4.85 2.9 4.9 M-9.5 -3.5 L-9.45 -3.5 -9.5 -3.5" fill="#595988" fill-rule="evenodd" stroke="none"/>
    <path d="M2.45 -4.7 L3.1 -4.7 3.2 -4.7 3.95 -4.65 4.0 -4.65 4.25 -4.6 4.3 -4.4 5.05 -2.2 5.1 -2.05 5.2 -1.6 5.1 -1.45 4.85 -0.45 Q4.85 0.3 5.2 0.95 L6.0 2.35 5.85 2.4 3.75 2.9 Q0.85 3.5 -2.05 2.95 L-7.3 1.9 -8.1 1.65 Q-9.1 1.3 -10.1 1.1 L-10.25 0.4 -10.25 -0.7 -10.15 -1.0 -10.05 -1.45 -10.0 -1.5 -9.95 -1.6 -9.95 -1.7 -9.6 -2.2 -8.95 -2.8 -8.7 -2.9 -8.6 -3.0 -8.25 -3.15 -7.8 -3.35 -7.35 -3.55 -7.0 -3.6 -6.9 -3.6 -6.6 -3.65 -6.5 -3.65 -6.45 -3.65 -6.2 -3.75 -6.15 -3.75 -5.95 -3.8 -5.65 -3.85 -5.6 -3.85 -5.55 -3.9 -5.4 -3.95 -4.85 -4.0 -4.75 -4.0 -4.45 -4.1 -3.45 -4.3 -3.3 -4.35 -3.2 -4.45 -3.1 -4.45 -2.95 -4.5 -2.7 -4.45 -2.65 -4.45 -2.0 -4.6 -2.1 -4.55 -2.15 -4.5 -2.9 -3.45 Q-4.05 -0.95 -2.45 1.3 -1.95 2.0 -1.2 2.25 L2.15 2.5 Q3.15 2.3 3.45 1.3 4.35 0.0 4.15 -1.65 3.95 -3.1 3.2 -4.4 L3.15 -4.5 3.05 -4.6 2.9 -4.7 2.45 -4.7 M-14.5 -1.1 L-14.5 -1.25 -14.45 -1.3 -14.35 -1.55 -13.35 -2.8 Q-12.65 -3.35 -11.8 -3.6 L-11.5 -3.7 -11.15 -3.8 -9.5 -3.5 -9.45 -3.5 -9.15 -3.5 -9.25 -3.4 -9.3 -3.4 -9.6 -3.15 -9.8 -3.0 -9.85 -2.95 -10.4 -2.05 -10.65 -1.25 -10.65 -1.2 -10.7 -1.0 -10.7 -0.9 -10.8 -0.45 -10.75 -0.1 -11.6 0.2 -12.0 0.3 Q-13.3 0.2 -14.25 -0.8 L-14.35 -0.95 -14.5 -1.1 M1.1 -4.55 Q2.65 -4.1 2.85 -2.15 3.05 0.0 0.95 0.7 -0.3 1.15 -1.15 0.3 -2.75 -1.25 -1.8 -3.25 -1.35 -4.1 -0.45 -4.45 L-0.15 -4.55 0.2 -4.7 1.1 -4.55 M0.15 -1.1 L0.15 -1.05 0.15 -1.1 M9.5 -3.8 L10.05 -3.75 10.15 -3.75 10.2 -3.7 10.3 -3.75 10.85 -3.75 10.9 -3.75 11.25 -3.75 11.35 -3.75 11.8 -3.6 11.95 -3.6 12.4 -3.4 12.4 -3.35 12.45 -3.35 13.1 -2.95 13.3 -2.85 13.35 -2.8 14.35 -1.55 14.45 -1.3 14.5 -1.25 14.5 -1.1 14.55 -1.05 14.55 -1.0 14.55 -0.85 14.6 -0.85 14.6 -0.8 14.65 -0.75 14.65 -0.7 14.65 -0.6 14.65 -0.55 Q13.8 0.25 12.5 0.4 L11.55 0.35 10.85 0.3 10.8 0.9 10.8 -0.1 10.65 -1.65 10.65 -1.85 10.6 -2.0 10.5 -2.15 10.5 -2.2 10.5 -2.3 10.5 -2.35 Q10.3 -3.2 9.55 -3.75 L9.5 -3.8 M10.05 0.95 L10.05 0.8 10.05 -0.7 9.65 -1.95 Q9.25 -2.7 8.5 -2.8 L8.4 -2.95 8.35 -3.2 8.1 -3.75 8.1 -3.8 8.6 -3.5 8.9 -3.35 9.7 -2.5 9.75 -2.4 9.95 -1.7 9.95 -1.6 10.15 0.1 10.15 0.95 10.05 0.95 M12.35 -2.95 L12.1 -3.05 12.35 -2.95 M10.75 -2.85 L10.7 -2.85 10.75 -2.85 M-0.35 -3.6 L-0.3 -3.65 -0.35 -3.65 -0.35 -3.6 M-4.3 -1.4 L-4.3 -1.35 -4.25 -1.35 -4.3 -1.4 M-4.05 1.0 L-4.1 0.95 -4.1 1.05 -4.05 1.0" fill="#cc9900" fill-rule="evenodd" stroke="none"/>
    <path d="M2.45 -4.7 L2.9 -4.7 3.05 -4.6 3.15 -4.5 3.2 -4.4 Q3.95 -3.1 4.15 -1.65 4.35 0.0 3.45 1.3 3.15 2.3 2.15 2.5 L-1.2 2.25 Q-1.95 2.0 -2.45 1.3 -4.05 -0.95 -2.9 -3.45 L-2.15 -4.5 -2.1 -4.55 -2.0 -4.6 -1.85 -4.65 -1.45 -4.65 -1.35 -4.7 -0.95 -4.7 -0.45 -4.75 -0.25 -4.8 0.55 -4.85 2.45 -4.7 M-7.8 -3.35 L-8.25 -3.15 -8.6 -3.0 -8.7 -2.9 -8.95 -2.8 -9.6 -2.2 -9.95 -1.7 -9.95 -1.6 -10.0 -1.5 -10.05 -1.45 -10.15 -1.0 -10.25 -0.7 -10.25 0.4 -10.1 1.1 Q-9.1 1.3 -8.1 1.65 L-7.3 1.9 -2.05 2.95 Q0.85 3.5 3.75 2.9 L5.85 2.4 5.55 3.7 5.4 4.0 5.05 4.75 4.95 4.75 4.7 4.85 4.65 4.85 4.05 4.85 3.05 4.9 2.9 4.9 2.85 4.85 2.8 4.9 2.45 4.95 2.05 4.95 2.1 4.7 2.05 4.95 0.9 5.0 0.2 4.95 0.0 4.95 -0.1 5.0 -0.7 5.0 -2.5 4.9 -3.0 4.85 -3.5 4.8 -3.6 4.8 -3.85 4.75 -4.5 4.6 -4.6 4.6 -4.85 4.55 -5.15 4.5 -5.75 4.4 -6.05 4.35 -6.45 4.3 -6.5 4.3 -7.05 4.2 -7.2 4.2 -7.4 4.15 -7.45 4.1 -7.5 4.1 -7.55 4.05 -7.6 4.05 -8.05 3.8 -9.2 3.55 -8.9 3.55 -9.0 3.5 -9.15 3.5 -9.5 3.55 -9.9 3.55 -10.15 3.55 -10.3 3.6 -10.5 3.55 -10.75 3.55 -10.8 3.6 -11.05 3.55 -11.8 3.4 Q-13.3 2.95 -14.1 1.7 L-14.3 1.2 -14.55 0.5 -14.55 0.4 -14.6 0.25 -14.65 0.2 -14.65 -0.4 -14.65 -0.6 -14.65 -0.7 -14.65 -0.75 -14.6 -0.8 -14.6 -0.85 -14.55 -0.85 -14.55 -1.0 -14.55 -1.05 -14.5 -1.1 -14.35 -0.95 -14.25 -0.8 Q-13.3 0.2 -12.0 0.3 L-11.6 0.2 -10.75 -0.1 -10.8 -0.45 -10.7 -0.9 -10.7 -1.0 -10.65 -1.2 -10.65 -1.25 -10.4 -2.05 -9.85 -2.95 -9.8 -3.0 -9.6 -3.15 -9.3 -3.4 -9.25 -3.4 -8.3 -3.4 -7.8 -3.35 M1.1 -4.55 L0.2 -4.7 -0.15 -4.55 -0.45 -4.45 Q-1.35 -4.1 -1.8 -3.25 -2.75 -1.25 -1.15 0.3 -0.3 1.15 0.95 0.7 3.05 0.0 2.85 -2.15 2.65 -4.1 1.1 -4.55 M8.1 -3.8 L8.1 -3.85 8.05 -3.85 7.95 -3.9 8.55 -3.95 8.6 -3.95 9.55 -3.8 9.5 -3.8 9.55 -3.75 Q10.3 -3.2 10.5 -2.35 L10.5 -2.3 10.5 -2.2 10.5 -2.15 10.6 -2.0 10.65 -1.85 10.65 -1.65 10.8 -0.1 10.8 0.9 10.85 0.3 11.55 0.35 12.5 0.4 Q13.8 0.25 14.65 -0.55 L14.65 -0.4 14.65 0.2 14.6 0.25 14.55 0.5 14.1 1.7 Q13.3 2.95 11.8 3.4 L11.3 3.4 11.25 3.4 10.65 3.45 9.9 3.55 10.1 3.25 9.95 3.5 9.0 3.75 9.0 3.65 10.05 0.95 10.15 0.95 10.15 0.1 9.95 -1.6 9.95 -1.7 9.75 -2.4 9.7 -2.5 8.9 -3.35 8.6 -3.5 8.1 -3.8 M10.25 1.9 L10.25 1.95 10.3 2.0 10.25 1.9 M-6.1 2.8 L-6.1 2.75 -6.1 2.8" fill="#996600" fill-rule="evenodd" stroke="none"/>
    <path d="M-0.15 -6.1 L1.45 -6.15 4.0 -6.05 4.05 -6.0 4.15 -5.95 5.6 -5.75 5.7 -5.7 4.85 -5.75 4.45 -5.55 4.35 -5.5 4.15 -5.3 3.95 -5.3 3.7 -5.35 3.65 -5.35 2.6 -5.4 1.65 -5.5 0.05 -5.45 -0.3 -5.4 -0.1 -5.85 -0.15 -6.05 -0.15 -6.1 M-4.95 -4.65 L-5.3 -4.5 -6.15 -4.25 -6.25 -4.2 -6.65 -4.1 -6.4 -4.3 -6.1 -4.6 -5.9 -4.75 -5.0 -5.25 -5.15 -5.15 Q-5.25 -4.85 -4.95 -4.65 M6.4 2.0 L6.7 1.95 6.75 1.95 6.35 1.25 Q6.15 0.1 6.45 -1.0 6.7 -1.85 7.5 -2.05 L8.3 -1.95 8.5 -1.85 8.8 -1.5 8.95 -1.6 9.0 -1.6 9.1 -1.7 Q10.1 -0.1 9.2 1.3 L9.2 1.35 8.65 1.9 7.85 2.45 7.4 2.45 7.2 2.4 6.8 2.25 6.8 2.35 6.55 3.4 6.35 4.0 5.8 5.0 5.8 5.05 5.15 5.15 5.15 4.85 Q5.2 4.7 5.55 4.65 L5.55 4.55 5.85 3.1 Q6.1 2.2 6.6 2.15 L6.5 2.1 6.55 2.1 6.4 2.0 M8.1 -2.75 L6.9 -2.85 6.7 -2.8 6.2 -2.6 6.1 -2.8 5.75 -3.55 5.45 -4.2 5.95 -4.15 6.4 -4.1 7.35 -4.05 7.4 -4.05 7.5 -3.9 8.1 -2.75 M4.7 5.3 L4.85 5.4 4.9 5.45 5.5 5.75 1.8 6.45 1.25 6.5 -2.2 6.35 -3.45 6.05 -4.4 5.85 -5.0 5.7 -5.6 5.5 -6.55 4.9 -6.75 4.75 -6.3 4.85 -5.0 5.15 -4.85 5.15 -4.75 5.2 -4.65 5.2 -1.85 5.45 0.95 5.55 3.7 5.45 4.1 5.4 4.3 5.35 4.7 5.3" fill="#a45b5b" fill-rule="evenodd" stroke="none"/>
    <path d="M-0.15 -6.1 L-0.15 -6.05 -0.1 -5.85 -0.3 -5.4 -1.45 -5.35 -1.65 -5.3 -2.75 -5.15 -3.75 -4.95 -4.15 -4.85 -4.75 -4.7 -4.95 -4.65 Q-5.25 -4.85 -5.15 -5.15 L-5.0 -5.25 -4.8 -5.35 -3.9 -5.6 -0.9 -6.05 -0.15 -6.1 M6.4 2.0 Q5.7 1.5 5.55 0.75 L5.45 0.0 5.45 -0.1 Q5.35 -0.9 5.55 -1.7 L5.65 -2.25 4.45 -4.35 4.4 -4.4 4.5 -4.95 5.35 -5.0 5.75 -4.95 6.75 -4.8 7.4 -4.05 7.35 -4.05 6.4 -4.1 5.95 -4.15 5.45 -4.2 5.75 -3.55 6.1 -2.8 6.2 -2.6 6.7 -2.8 6.9 -2.85 8.1 -2.75 8.15 -2.6 9.0 -1.85 9.1 -1.7 9.0 -1.6 8.95 -1.6 8.8 -1.5 8.5 -1.85 8.3 -1.95 7.5 -2.05 Q6.7 -1.85 6.45 -1.0 6.15 0.1 6.35 1.25 L6.75 1.95 6.7 1.95 6.4 2.0" fill="#b79999" fill-rule="evenodd" stroke="none"/>
    <path d="M5.8 5.0 L6.35 4.0 6.55 3.4 6.8 2.35 6.8 2.25 7.2 2.4 7.4 2.45 7.85 2.45 8.65 1.9 9.2 1.35 Q9.0 3.05 8.15 4.1 L7.65 4.6 5.8 5.0" fill="#6d4125" fill-rule="evenodd" stroke="none"/>
  </g>
</svg>
