<?xml version="1.0" encoding="UTF-8" standalone="no"?>
<svg xmlns:xlink="http://www.w3.org/1999/xlink" height="13.85px" width="31.7px" xmlns="http://www.w3.org/2000/svg">
  <g transform="matrix(1.0, 0.0, 0.0, 1.0, 15.3, 6.35)">
    <path d="M5.9 -4.7 L3.25 -5.05 3.15 -5.05 0.6 -5.2 -1.3 -5.05 -1.4 -5.0 -1.8 -4.95 -2.7 -4.8 -2.8 -4.75 -2.95 -4.75 -3.4 -4.65 -5.55 -4.2 -5.8 -4.2 -6.0 -4.15 -6.15 -4.15 -6.55 -4.1 -6.9 -4.0 -7.25 -3.9 -8.2 -3.25 -8.5 -2.9 -8.6 -2.8 -8.65 -2.9 Q-8.8 -3.55 -9.25 -3.75 L-9.5 -3.8 -9.95 -3.85 -10.05 -3.85 -10.1 -3.85 -10.2 -3.9 -10.35 -3.9 -10.6 -3.95 -10.65 -3.95 -10.8 -3.95 -11.1 -4.05 -11.2 -4.05 -11.45 -4.0 -11.6 -3.95 -11.75 -3.9 -12.7 -3.4 -12.75 -3.4 -12.8 -3.35 -13.3 -3.0 -13.45 -2.85 -13.45 -2.8 -13.75 -2.45 -13.85 -2.35 -14.1 -2.0 -14.15 -1.85 -14.2 -1.8 -14.3 -1.65 -14.4 -1.4 -14.45 -1.35 -14.45 -1.2 -14.5 -1.15 -14.5 -1.1 -14.5 -0.95 -14.5 -0.9 -14.55 -0.9 -14.55 -0.85 -14.6 -0.8 -14.6 -0.75 -14.6 -0.65 -14.6 -0.45 -14.6 -0.4 -14.6 0.2 -14.55 0.25 -14.5 0.5 -14.4 0.75 -14.25 1.2 -14.05 1.8 -14.0 1.9 -13.75 2.25 -13.25 2.75 -13.15 2.85 Q-12.7 3.3 -12.05 3.55 L-12.0 3.55 -11.75 3.65 -11.45 3.75 -11.3 3.75 -11.2 3.8 -11.0 3.8 -10.75 3.85 -10.7 3.8 -10.45 3.75 -10.35 3.7 -10.3 3.7 -9.5 3.1 -9.4 3.1 -9.45 3.05 -9.55 2.55 -9.3 2.6 -9.05 2.8 -9.0 2.9 -8.9 3.15 -8.85 3.25 -8.8 3.3 -8.45 3.85 -8.15 4.1 -8.15 4.2 -8.0 4.35 -7.75 4.35 -7.65 4.4 -6.75 4.55 -6.4 4.6 -5.6 4.75 -5.4 4.8 -5.2 4.8 -4.55 4.9 -4.4 4.95 -4.1 5.0 -3.65 5.1 -3.45 5.15 -3.25 5.2 -2.85 5.2 -2.45 5.25 -1.5 5.3 -1.3 5.35 -0.7 5.35 -0.65 5.35 -0.1 5.35 0.8 5.35 0.9 5.35 1.15 5.35 1.4 5.35 3.1 5.25 4.05 5.2 4.1 5.2 4.45 5.2 4.75 5.2 5.15 5.1 5.55 5.0 6.2 4.85 6.25 4.8 6.7 4.75 7.35 4.55 7.75 4.45 7.9 4.4 8.1 4.2 8.15 4.15 8.5 3.75 8.7 3.4 8.85 3.2 8.95 3.0 9.25 2.9 9.5 2.85 9.45 3.0 9.3 3.35 10.0 3.5 10.1 3.55 10.15 3.55 10.8 3.65 10.85 3.65 11.05 3.65 11.3 3.65 11.65 3.65 11.85 3.65 12.2 3.55 12.8 3.2 13.0 3.1 13.4 2.8 13.6 2.55 13.85 2.25 13.9 2.2 14.15 1.8 14.25 1.55 14.35 1.3 14.4 1.2 14.5 0.85 14.55 0.65 14.6 0.5 14.65 0.25 14.7 0.2 14.7 -0.25 14.7 -0.4 14.7 -0.45 14.7 -0.65 14.7 -0.75 14.7 -0.8 14.65 -0.85 14.65 -0.9 14.6 -0.95 14.6 -1.1 14.6 -1.15 14.55 -1.2 14.55 -1.35 14.5 -1.4 14.4 -1.65 14.05 -2.2 13.45 -2.95 13.4 -3.0 13.05 -3.25 12.75 -3.45 12.7 -3.45 12.45 -3.6 12.45 -3.65 12.0 -3.85 11.85 -3.9 11.8 -3.9 11.65 -3.95 11.5 -4.0 11.3 -4.05 11.25 -4.0 11.05 -4.0 10.7 -4.0 10.55 -4.0 10.35 -3.95 10.05 -3.9 9.7 -3.8 9.65 -3.75 9.55 -3.75 9.25 -3.55 9.2 -3.55 9.15 -3.65 9.05 -3.7 9.15 -3.5 8.85 -3.1 8.5 -3.45 7.7 -4.15 6.55 -4.6 5.9 -4.7 M5.8 -5.3 L6.7 -5.2 6.75 -5.15 Q7.55 -5.05 8.2 -4.6 L9.4 -4.35 9.5 -4.35 Q9.95 -5.15 11.0 -5.45 L11.55 -5.6 Q12.15 -5.65 12.4 -5.2 L12.35 -5.05 11.9 -4.4 12.8 -3.95 12.9 -4.1 Q13.3 -4.5 13.85 -4.55 L14.2 -4.6 Q14.9 -4.7 15.0 -4.05 L14.95 -3.9 14.9 -3.8 14.55 -3.2 14.2 -2.6 14.35 -2.4 14.4 -2.35 14.4 -2.3 14.45 -2.25 14.45 -2.2 14.7 -1.7 14.8 -1.15 14.8 -1.05 14.85 -1.05 Q15.3 -1.05 15.65 -0.7 L16.0 -0.4 16.2 -0.1 16.25 -0.05 16.4 0.2 16.25 0.75 16.2 0.85 16.0 1.0 14.8 1.2 14.65 1.75 14.85 3.0 15.0 3.95 14.8 4.6 14.65 4.6 14.55 4.5 14.5 4.55 14.05 4.1 Q13.65 3.75 13.1 3.65 L13.05 3.65 13.0 3.65 12.9 3.8 12.5 4.0 12.35 4.05 12.05 4.15 Q11.45 5.4 10.05 5.7 L10.0 5.75 9.95 5.8 9.75 5.8 Q9.35 5.4 9.6 4.85 L9.9 4.05 8.8 4.2 8.45 4.6 8.2 4.75 8.15 4.75 6.9 5.2 5.4 6.9 4.65 7.45 4.3 7.4 3.95 7.35 3.85 7.15 3.9 7.0 3.9 6.95 3.95 5.85 3.75 5.85 1.15 5.95 0.35 6.85 Q-0.15 7.4 -0.85 7.5 L-1.1 7.5 Q-1.5 7.45 -1.45 6.95 L-1.5 6.7 -1.55 5.9 -2.85 5.8 -2.9 6.05 -3.0 6.65 Q-3.05 7.05 -3.35 7.25 L-4.2 6.9 -4.6 6.45 -4.7 6.35 -5.1 5.85 -5.2 5.75 -5.4 5.4 -7.45 4.8 -7.55 4.75 -7.95 4.6 -8.0 4.55 -8.05 4.5 -8.5 4.3 -9.75 4.1 -10.1 4.25 -9.95 5.0 -9.9 5.25 -10.15 5.7 Q-11.5 5.75 -12.05 4.45 L-12.15 4.1 -13.5 3.2 -14.5 4.2 -14.7 4.2 -14.9 3.9 -14.9 3.8 Q-15.35 3.05 -15.1 2.2 L-14.7 1.2 -14.75 0.75 -14.8 0.65 -14.8 0.5 -14.8 -0.8 -14.8 -0.85 -14.75 -0.85 -14.75 -0.95 -14.7 -0.95 -14.7 -1.05 -14.7 -1.15 -14.6 -1.7 -14.4 -2.05 -15.3 -3.4 -15.25 -3.6 -15.3 -3.8 Q-15.25 -4.2 -14.85 -4.2 -13.9 -4.1 -13.1 -3.65 L-11.7 -4.4 -11.65 -5.65 -11.4 -6.3 -11.35 -6.35 -11.15 -6.3 -11.1 -6.25 -10.4 -5.75 -9.5 -4.35 -7.4 -4.4 -6.75 -4.55 -6.1 -4.7 -2.7 -5.5 -2.65 -5.55 -1.6 -5.7 0.1 -5.85 1.7 -5.9 2.65 -5.8 3.7 -5.75 3.75 -5.75 4.0 -5.7 5.05 -5.5 5.35 -5.4 5.4 -5.4 5.5 -5.35 5.8 -5.3 M7.5 -1.8 L7.5 -1.75 7.45 -1.75 7.5 -1.8 M13.7 -3.45 L13.45 -3.4 13.6 -3.25 13.7 -3.45 M14.0 2.75 L13.9 2.85 13.95 2.9 14.05 3.0 14.0 2.75 M5.1 5.75 L5.25 5.55 5.15 5.6 5.1 5.75 M9.05 3.75 L8.95 3.85 9.1 3.85 9.25 3.7 9.1 3.65 9.05 3.75 M-0.45 6.05 L-0.4 5.95 -0.45 5.95 -0.45 6.05 M-9.4 3.85 L-9.25 3.75 -9.15 3.75 -9.2 3.7 -9.35 3.8 -9.4 3.85" fill="#23252e" fill-rule="evenodd" stroke="none"/>
    <path d="M-2.8 -4.75 L-2.85 -4.7 -2.95 -4.7 -2.95 -4.75 -2.8 -4.75" fill="#b37800" fill-rule="evenodd" stroke="none"/>
    <path d="M9.2 -3.55 L9.15 -3.5 9.05 -3.7 9.15 -3.65 9.2 -3.55 M9.05 3.75 L9.1 3.65 9.25 3.7 9.1 3.85 8.95 3.85 9.05 3.75 M-9.4 3.85 L-9.35 3.8 -9.2 3.7 -9.15 3.75 -9.25 3.75 -9.4 3.85" fill="#754900" fill-rule="evenodd" stroke="none"/>
    <path d="M-6.8 0.4 L-6.8 0.35 -6.8 0.4" fill="#a66600" fill-rule="evenodd" stroke="none"/>
    <path d="M-6.0 -4.15 L-5.8 -4.2 -5.8 -4.15 -6.0 -4.15" fill="#b3b9c1" fill-rule="evenodd" stroke="none"/>
    <path d="M5.4 -5.4 L5.8 -5.3 5.5 -5.35 5.4 -5.4 M-6.55 -4.1 L-6.55 -4.05 -6.9 -4.0 -6.55 -4.1 M-6.1 0.4 L-6.3 -0.15 -6.1 0.4" fill="#8b94a3" fill-rule="evenodd" stroke="none"/>
    <path d="M12.15 -3.3 L12.4 -3.2 12.4 -3.15 12.15 -3.3" fill="#878eb0" fill-rule="evenodd" stroke="none"/>
    <path d="M-7.75 4.35 L-8.0 4.35 -8.15 4.2 -8.15 4.1 -7.75 4.35" fill="#5e6781" fill-rule="evenodd" stroke="none"/>
    <path d="M-9.5 -3.8 L-9.3 -3.75 -9.3 -3.65 -9.65 -2.85 -9.9 -2.6 Q-10.4 -2.15 -11.0 -2.6 L-11.05 -2.65 -11.25 -2.9 -11.35 -3.5 -11.2 -4.05 -11.1 -4.05 -10.8 -3.95 -10.65 -3.95 -10.6 -3.95 -10.45 -3.9 -10.5 -3.45 -10.3 -3.75 -10.35 -3.9 -10.2 -3.9 -10.1 -3.85 -10.05 -3.85 -9.95 -3.85 -9.5 -3.8 M-12.7 -3.4 Q-12.3 -3.35 -12.05 -2.95 L-11.95 -2.75 -11.75 -2.3 Q-11.7 -1.7 -12.1 -1.2 -12.8 -0.65 -13.45 -1.05 L-13.5 -1.1 -13.9 -1.6 -13.85 -2.35 -13.75 -2.45 -13.45 -2.8 -13.45 -2.85 -13.3 -3.0 -12.8 -3.35 -12.75 -3.4 -12.7 -3.4 M-14.5 -0.9 L-14.4 -0.2 -14.05 0.4 -14.0 0.45 -13.7 0.6 -13.45 0.9 Q-13.1 1.25 -12.55 1.4 L-12.5 1.4 -11.35 1.8 -10.85 1.75 -9.65 1.05 -7.5 0.35 Q-6.65 0.45 -6.2 1.15 L-5.85 1.55 Q-4.0 2.8 -1.95 3.45 L-1.65 3.6 1.85 3.7 1.9 3.65 2.65 3.5 Q4.6 3.05 5.85 1.45 L6.85 -0.25 Q7.1 -0.9 7.8 -0.95 9.5 -0.2 9.4 1.6 L10.1 1.7 11.1 1.7 11.25 1.6 Q12.5 0.95 12.95 -0.4 L12.8 -0.4 Q12.55 -0.45 12.3 -0.65 L12.0 -0.95 Q11.55 -1.5 12.05 -2.1 12.4 -2.5 12.9 -2.65 L12.8 -2.95 12.45 -3.6 12.7 -3.45 12.75 -3.45 13.05 -3.25 13.4 -3.0 13.45 -2.95 14.05 -2.2 14.4 -1.65 14.5 -1.4 14.55 -1.35 14.55 -1.2 14.6 -1.15 14.6 -1.1 14.6 -0.95 14.65 -0.9 14.65 -0.85 14.7 -0.8 14.7 -0.75 14.7 -0.65 14.7 -0.45 14.7 -0.4 14.7 -0.25 14.7 0.2 14.65 0.25 14.6 0.5 14.55 0.65 14.5 0.85 14.4 1.2 14.35 1.3 14.25 1.55 14.15 1.8 13.9 2.2 13.85 2.25 13.6 2.55 13.4 2.8 13.0 3.1 12.8 3.2 12.2 3.55 11.85 3.65 11.65 3.65 11.3 3.65 11.05 3.65 10.85 3.65 10.8 3.65 10.15 3.55 10.1 3.55 10.0 3.5 9.3 3.35 9.45 3.0 9.5 2.85 9.25 2.9 8.95 3.0 8.85 3.2 8.7 3.4 8.5 3.75 8.15 4.15 8.1 4.2 7.9 4.4 7.75 4.45 7.35 4.55 6.7 4.75 6.25 4.8 6.2 4.85 5.55 5.0 5.15 5.1 4.75 5.2 4.45 5.2 4.1 5.2 4.05 5.2 3.1 5.25 1.4 5.35 1.15 5.35 0.9 5.35 0.8 5.35 -0.1 5.35 -0.65 5.35 -0.7 5.35 -1.3 5.35 -1.5 5.3 -2.45 5.25 -2.85 5.2 -3.25 5.2 -3.45 5.15 -3.65 5.1 -4.1 5.0 -4.4 4.95 -4.55 4.9 -5.2 4.8 -5.4 4.8 -5.6 4.75 -6.4 4.6 -6.75 4.55 -7.65 4.4 -7.75 4.35 -8.15 4.1 -8.45 3.85 -8.8 3.3 -8.85 3.25 -8.9 3.15 -9.0 2.9 -9.0 2.8 -9.05 2.8 -9.3 2.6 -9.55 2.55 -9.45 3.05 -9.4 3.1 -9.5 3.1 -10.3 3.7 -10.35 3.7 -10.45 3.75 -10.7 3.8 -10.75 3.85 -11.0 3.8 -11.2 3.8 -11.3 3.75 -11.45 3.75 -11.75 3.65 -12.0 3.55 -12.05 3.55 Q-12.7 3.3 -13.15 2.85 L-13.25 2.75 -13.75 2.25 -14.0 1.9 -14.05 1.8 -14.25 1.2 -14.4 0.75 -14.5 0.5 -14.55 0.25 -14.6 0.2 -14.6 -0.4 -14.6 -0.45 -14.6 -0.65 -14.6 -0.75 -14.6 -0.8 -14.55 -0.85 -14.55 -0.9 -14.5 -0.9 M11.8 -3.9 L11.8 -3.75 11.4 -2.4 11.25 -2.2 Q10.35 -1.9 9.75 -2.6 9.35 -2.95 9.45 -3.45 L9.55 -3.75 9.65 -3.75 9.7 -3.8 10.05 -3.9 10.2 -3.45 10.25 -3.3 10.6 -3.15 10.8 -4.0 11.05 -4.0 11.25 -4.0 11.3 -4.05 11.5 -4.0 11.65 -3.95 11.8 -3.9 M12.6 -1.45 L12.6 -1.35 13.05 -0.85 13.05 -1.8 12.7 -1.6 12.6 -1.5 12.6 -1.45 M-12.8 -2.15 L-12.85 -2.05 -12.85 -2.0 Q-12.75 -2.0 -12.8 -2.15 M-11.4 -1.05 Q-10.25 -1.0 -10.3 0.1 -10.3 0.5 -10.7 0.75 L-10.85 0.85 Q-11.8 1.2 -12.15 0.35 L-12.2 -0.25 Q-12.1 -0.95 -11.4 -1.05" fill="#9b4600" fill-rule="evenodd" stroke="none"/>
    <path d="M3.15 -5.05 L3.25 -5.05 5.9 -4.7 6.55 -4.6 7.7 -4.15 8.5 -3.45 8.85 -3.1 8.8 -3.05 8.7 -2.75 7.5 -2.8 6.4 -2.7 5.75 -2.7 5.15 -2.55 4.95 -2.5 4.55 -2.45 4.4 -2.8 4.35 -3.1 4.0 -3.95 3.15 -5.05 M-2.95 -4.7 L-3.1 -4.55 -3.95 -3.15 -4.2 -2.5 -7.4 -2.45 -8.2 -2.45 -8.45 -2.5 -8.6 -2.45 -8.6 -2.8 -8.5 -2.9 -8.2 -3.25 -7.25 -3.9 -6.9 -4.0 -6.55 -4.05 -6.55 -4.1 -6.15 -4.15 -6.0 -4.15 -5.8 -4.15 -5.8 -4.2 -5.55 -4.2 -3.4 -4.65 -2.95 -4.75 -2.95 -4.7 M-5.25 -0.6 L-4.9 -1.1 -4.05 -1.1 -3.3 -0.25 -2.3 0.35 -0.75 1.2 Q-0.25 1.35 0.15 1.75 L-0.15 2.2 -0.45 2.3 Q-2.1 2.65 -3.55 1.85 L-4.2 1.45 Q-4.9 0.95 -5.2 0.15 L-5.25 0.1 -5.3 -0.3 -5.25 -0.6" fill="#e8ae00" fill-rule="evenodd" stroke="none"/>
    <path d="M-9.0 2.9 L-9.05 2.8 -9.0 2.8 -9.0 2.9" fill="#cc7a00" fill-rule="evenodd" stroke="none"/>
    <path d="M3.15 -5.05 L4.0 -3.95 4.35 -3.1 4.4 -2.8 4.55 -2.45 4.95 -2.5 5.15 -2.55 5.75 -2.7 6.4 -2.7 7.5 -2.8 8.7 -2.75 8.8 -3.05 8.85 -3.1 9.15 -3.5 9.2 -3.55 9.25 -3.55 9.55 -3.75 9.45 -3.45 Q9.35 -2.95 9.75 -2.6 10.35 -1.9 11.25 -2.2 L11.4 -2.4 11.8 -3.75 11.8 -3.9 11.85 -3.9 12.0 -3.85 12.45 -3.65 12.45 -3.6 12.8 -2.95 12.9 -2.65 Q12.4 -2.5 12.05 -2.1 11.55 -1.5 12.0 -0.95 L12.3 -0.65 Q12.55 -0.45 12.8 -0.4 L12.95 -0.4 Q12.5 0.95 11.25 1.6 L11.1 1.7 10.1 1.7 9.4 1.6 Q9.5 -0.2 7.8 -0.95 7.1 -0.9 6.85 -0.25 L5.85 1.45 Q4.6 3.05 2.65 3.5 L1.9 3.65 1.85 3.7 -1.65 3.6 -1.95 3.45 Q-4.0 2.8 -5.85 1.55 L-6.2 1.15 Q-6.65 0.45 -7.5 0.35 L-9.65 1.05 -10.85 1.75 -11.35 1.8 -12.5 1.4 -12.55 1.4 Q-13.1 1.25 -13.45 0.9 L-13.7 0.6 -14.0 0.45 -14.05 0.4 -14.4 -0.2 -14.5 -0.9 -14.5 -0.95 -14.5 -1.1 -14.5 -1.15 -14.45 -1.2 -14.45 -1.35 -14.4 -1.4 -14.3 -1.65 -14.2 -1.8 -14.15 -1.85 -14.1 -2.0 -13.85 -2.35 -13.9 -1.6 -13.5 -1.1 -13.45 -1.05 Q-12.8 -0.65 -12.1 -1.2 -11.7 -1.7 -11.75 -2.3 L-11.95 -2.75 -12.05 -2.95 Q-12.3 -3.35 -12.7 -3.4 L-11.75 -3.9 -11.6 -3.95 -11.45 -4.0 -11.2 -4.05 -11.35 -3.5 -11.25 -2.9 -11.05 -2.65 -11.0 -2.6 Q-10.4 -2.15 -9.9 -2.6 L-9.65 -2.85 -9.3 -3.65 -9.3 -3.75 -9.5 -3.8 -9.25 -3.75 Q-8.8 -3.55 -8.65 -2.9 L-8.6 -2.8 -8.6 -2.45 -8.45 -2.5 -8.2 -2.45 -7.4 -2.45 -4.2 -2.5 -3.95 -3.15 -3.1 -4.55 -2.95 -4.7 -2.85 -4.7 -2.8 -4.75 -2.7 -4.8 -1.8 -4.95 -1.4 -5.0 -1.3 -5.05 0.6 -5.2 3.15 -5.05 M11.05 -4.0 L10.8 -4.0 10.6 -3.15 10.25 -3.3 10.2 -3.45 10.05 -3.9 10.35 -3.95 10.55 -4.0 10.7 -4.0 11.05 -4.0 M7.5 -1.8 L7.45 -1.75 7.5 -1.75 7.5 -1.8 M12.15 -3.3 L12.4 -3.15 12.4 -3.2 12.15 -3.3 M12.6 -1.45 L12.6 -1.5 12.7 -1.6 13.05 -1.8 13.05 -0.85 12.6 -1.35 12.6 -1.45 M-10.6 -3.95 L-10.35 -3.9 -10.3 -3.75 -10.5 -3.45 -10.45 -3.9 -10.6 -3.95 M-11.4 -1.05 Q-12.1 -0.95 -12.2 -0.25 L-12.15 0.35 Q-11.8 1.2 -10.85 0.85 L-10.7 0.75 Q-10.3 0.5 -10.3 0.1 -10.25 -1.0 -11.4 -1.05 M-12.8 -2.15 Q-12.75 -2.0 -12.85 -2.0 L-12.85 -2.05 -12.8 -2.15 M-5.25 -0.6 L-5.3 -0.3 -5.25 0.1 -5.2 0.15 Q-4.9 0.95 -4.2 1.45 L-3.55 1.85 Q-2.1 2.65 -0.45 2.3 L-0.15 2.2 0.15 1.75 Q-0.25 1.35 -0.75 1.2 L-2.3 0.35 -3.3 -0.25 -4.05 -1.1 -4.9 -1.1 -5.25 -0.6 M-6.1 0.4 L-6.3 -0.15 -6.1 0.4 M-6.8 0.4 L-6.8 0.35 -6.8 0.4" fill="#c16100" fill-rule="evenodd" stroke="none"/>
    <path d="M12.0 -5.15 L11.15 -3.7 10.8 -2.65 Q10.4 -2.6 10.25 -2.85 L10.0 -3.0 Q9.7 -3.25 9.8 -3.65 L10.0 -4.0 9.85 -3.7 9.9 -3.6 10.5 -3.65 11.95 -5.1 12.0 -5.15 M13.25 -3.65 L13.5 -3.5 13.7 -3.5 14.65 -3.9 Q14.25 -3.5 14.0 -2.9 L13.5 -2.85 13.45 -2.95 Q13.0 -3.3 13.25 -3.65 M12.05 -1.85 Q12.15 -1.5 12.55 -1.6 L13.5 -1.9 13.65 -1.5 Q13.75 -1.15 13.4 -0.95 L13.3 -0.9 12.05 -1.2 Q11.9 -1.55 12.05 -1.85 M14.35 -0.25 L14.4 -0.1 14.5 0.0 15.95 -0.1 16.1 0.35 16.1 0.55 14.45 0.5 14.4 0.5 14.15 0.55 Q14.05 0.2 14.2 0.1 L14.35 -0.25 M14.25 3.75 L14.05 3.55 13.75 3.25 12.9 2.7 12.65 2.45 12.7 1.75 12.8 1.65 Q12.8 1.35 13.1 1.2 L13.15 1.2 Q12.95 1.3 13.05 1.55 L13.9 3.1 14.1 3.5 14.25 3.75 M13.9 1.55 L14.0 1.55 14.1 1.65 Q14.55 2.1 14.65 2.7 L14.7 2.9 14.35 2.3 14.0 1.7 13.9 1.55 M10.7 2.55 Q11.3 2.75 11.25 3.4 11.2 4.3 10.65 4.9 L10.15 4.95 10.45 2.85 10.45 2.65 10.55 2.55 10.7 2.55 M7.25 3.7 L7.6 3.4 7.7 2.9 7.75 2.35 Q7.8 1.8 7.4 1.7 L7.2 1.95 7.1 2.4 7.05 1.5 7.05 1.4 7.4 1.0 7.45 0.95 7.55 0.9 Q8.2 0.9 8.3 1.6 L8.2 2.85 8.15 3.25 Q7.9 3.9 7.3 3.9 L7.25 3.7 M4.65 4.15 L4.55 3.5 4.6 3.4 4.7 3.3 4.9 3.15 5.6 3.25 5.75 3.4 Q6.05 4.05 6.0 4.75 5.95 5.9 5.05 6.55 L5.2 5.2 5.2 4.9 Q5.35 4.25 4.85 4.05 L4.65 4.15 M-11.0 -3.8 L-10.45 -3.65 Q-10.15 -4.0 -10.3 -4.55 L-10.45 -5.0 -10.45 -5.1 -9.95 -4.4 Q-9.75 -4.0 -9.85 -3.55 -9.9 -3.15 -10.2 -3.05 L-10.35 -2.8 -10.95 -2.9 -11.1 -3.15 -11.0 -3.8 M-14.2 -3.6 L-14.2 -3.65 Q-12.85 -3.55 -12.35 -2.35 L-12.3 -2.0 -12.7 -1.35 -12.8 -1.25 Q-13.35 -1.0 -13.6 -1.45 L-13.8 -2.1 -13.5 -2.1 Q-13.1 -2.55 -13.5 -3.05 L-14.2 -3.6 M-11.95 -0.5 L-11.9 -0.1 -11.75 0.05 Q-11.05 0.2 -11.0 -0.5 L-11.0 -0.8 Q-10.6 -0.65 -10.65 -0.1 L-11.0 0.4 Q-11.65 0.6 -12.0 0.15 L-12.1 -0.15 -11.95 -0.5 M-4.95 5.0 L-4.6 4.1 -4.5 4.05 -4.25 3.95 -3.9 3.95 Q-3.3 4.1 -3.55 4.65 -3.65 5.55 -3.35 6.45 L-3.45 6.6 -4.0 6.6 -4.0 6.5 -4.15 5.6 -4.15 5.3 Q-4.0 4.65 -4.55 4.55 L-4.95 4.85 -4.95 5.0 M-1.1 5.75 L-1.15 4.9 -1.15 4.8 -1.0 4.55 -0.3 4.45 Q0.4 4.45 0.35 5.15 0.25 6.15 -0.45 6.7 L-0.55 5.1 -0.6 5.05 -0.7 5.05 -0.8 5.05 -0.9 5.1 -0.9 5.25 -1.0 5.4 -1.1 5.75 M-7.5 2.65 L-7.45 1.9 -7.4 1.8 -7.35 1.7 -7.3 1.7 -7.2 1.65 Q-6.7 1.65 -6.45 2.1 L-6.5 2.15 -6.55 3.15 -6.4 3.8 -6.95 3.7 -6.95 3.65 -6.85 3.2 Q-6.7 2.65 -7.2 2.45 -7.45 2.5 -7.5 2.65 M-11.8 3.95 L-11.9 3.45 Q-11.95 2.75 -11.3 2.5 -10.85 2.45 -10.7 2.7 -10.85 3.95 -10.35 5.05 L-10.4 5.05 -10.8 5.1 -11.0 4.25 -11.05 4.0 Q-10.95 3.5 -11.35 3.3 -11.75 3.4 -11.8 3.9 L-11.8 3.95 M-14.3 1.4 L-14.0 0.95 -13.7 0.85 -13.2 1.0 Q-12.65 0.95 -12.6 1.45 L-12.75 1.95 Q-13.4 2.15 -13.75 2.7 L-14.5 3.65 -14.55 3.6 -14.55 3.55 -14.5 3.45 -14.4 3.1 -13.8 2.15 -13.65 1.95 Q-13.45 1.35 -14.1 1.35 L-14.3 1.4" fill="#cccccc" fill-rule="evenodd" stroke="none"/>
    <path d="M12.0 -5.15 L11.95 -5.1 10.5 -3.65 9.9 -3.6 9.85 -3.7 10.0 -4.0 10.15 -4.2 10.3 -4.55 11.2 -5.05 11.85 -5.25 12.0 -5.15 M14.65 -3.9 L13.7 -3.5 13.5 -3.5 13.25 -3.65 13.5 -3.9 14.1 -4.25 14.65 -3.9 M13.5 -1.9 L12.55 -1.6 Q12.15 -1.5 12.05 -1.85 L12.5 -2.3 Q13.2 -2.35 13.5 -1.9 M15.95 -0.1 L14.5 0.0 14.4 -0.1 14.35 -0.25 14.55 -0.4 15.05 -0.4 15.15 -0.5 15.7 -0.35 15.95 -0.1 M13.15 1.2 L13.75 1.45 13.8 1.5 13.9 1.55 14.0 1.7 14.35 2.3 14.7 2.9 14.4 3.7 14.25 3.75 14.1 3.5 13.9 3.1 13.05 1.55 Q12.95 1.3 13.15 1.2 M7.1 2.4 L7.2 1.95 7.4 1.7 Q7.8 1.8 7.75 2.35 L7.7 2.9 7.6 3.4 7.25 3.7 7.25 3.65 7.1 2.4 M4.65 4.15 L4.85 4.05 Q5.35 4.25 5.2 4.9 L5.2 5.2 5.05 6.55 4.95 6.6 4.55 6.65 4.7 4.8 4.65 4.15 M-10.45 -5.1 L-10.45 -5.0 -10.3 -4.55 Q-10.15 -4.0 -10.45 -3.65 L-11.0 -3.8 -11.15 -4.75 -11.25 -5.4 -11.25 -5.45 -11.15 -5.5 -10.45 -5.1 M-13.8 -2.1 L-14.4 -3.0 -14.6 -3.2 -14.7 -3.4 -14.6 -3.5 -14.35 -3.55 -14.3 -3.6 -14.2 -3.6 -13.5 -3.05 Q-13.1 -2.55 -13.5 -2.1 L-13.8 -2.1 M-11.0 -0.8 L-11.0 -0.5 Q-11.05 0.2 -11.75 0.05 L-11.9 -0.1 -11.95 -0.5 -11.95 -0.55 -11.6 -0.8 -11.35 -0.9 -11.3 -0.9 -11.0 -0.8 M-4.0 6.6 L-4.55 6.05 -4.85 5.55 -4.95 5.0 -4.95 4.85 -4.55 4.55 Q-4.0 4.65 -4.15 5.3 L-4.15 5.6 -4.0 6.5 -4.0 6.6 M-0.45 6.7 L-0.5 6.75 -0.8 6.75 -0.9 6.7 -1.0 6.35 -1.1 5.75 -1.0 5.4 -0.9 5.25 -0.9 5.1 -0.8 5.05 -0.7 5.05 -0.6 5.05 -0.55 5.1 -0.45 6.7 M-7.5 2.65 Q-7.45 2.5 -7.2 2.45 -6.7 2.65 -6.85 3.2 L-6.95 3.65 -6.95 3.7 -7.35 3.3 -7.4 3.2 -7.4 3.15 -7.45 2.95 -7.5 2.65 M-10.8 5.1 L-11.4 4.7 -11.45 4.65 -11.45 4.6 -11.5 4.55 -11.8 3.95 -11.8 3.9 Q-11.75 3.4 -11.35 3.3 -10.95 3.5 -11.05 4.0 L-11.0 4.25 -10.8 5.1 M-14.55 3.55 L-14.6 3.35 -14.6 3.25 Q-14.8 2.6 -14.55 2.1 L-14.3 1.4 -14.1 1.35 Q-13.45 1.35 -13.65 1.95 L-13.8 2.15 -14.4 3.1 -14.5 3.45 -14.55 3.55" fill="#ffffff" fill-rule="evenodd" stroke="none"/>
  </g>
</svg>
