<?xml version="1.0" encoding="UTF-8" standalone="no"?>
<svg xmlns:xlink="http://www.w3.org/1999/xlink" height="9.85px" width="29.75px" xmlns="http://www.w3.org/2000/svg">
  <g transform="matrix(1.0, 0.0, 0.0, 1.0, 14.95, 4.35)">
    <path d="M5.7 -3.85 L6.6 -3.75 6.65 -3.7 7.0 -3.65 7.7 -3.5 7.75 -3.5 8.4 -3.4 9.05 -3.4 9.5 -3.35 9.55 -3.35 10.05 -3.3 10.55 -3.25 10.95 -3.25 11.0 -3.25 11.65 -3.15 13.25 -2.35 13.65 -2.0 13.75 -1.9 14.25 -1.4 14.3 -1.4 14.3 -1.35 14.35 -1.3 14.35 -1.25 14.6 -0.85 14.7 -0.4 14.7 -0.3 14.75 -0.2 14.75 -0.15 14.8 -0.15 14.8 -0.1 14.8 1.0 14.8 1.1 14.75 1.2 Q14.65 2.25 13.7 3.0 L12.4 3.9 12.25 3.9 12.25 3.95 10.55 4.0 8.3 4.5 8.2 4.5 7.6 4.65 7.4 4.7 6.1 5.0 5.95 5.0 5.8 5.05 5.55 5.1 5.5 5.1 4.75 5.25 4.25 5.35 4.05 5.4 3.65 5.45 -4.7 5.2 -4.8 5.2 -5.05 5.15 -6.35 4.9 -6.95 4.75 -7.9 4.45 -8.95 4.4 -9.3 4.35 -10.9 4.2 -11.05 4.25 -11.85 4.1 -13.8 3.0 Q-14.75 2.25 -14.85 1.2 L-14.9 1.1 -14.9 1.0 -14.9 -0.1 -14.9 -0.15 -14.85 -0.15 -14.85 -0.2 -14.8 -0.2 -14.8 -0.3 -14.8 -0.4 -14.7 -0.85 -14.45 -1.25 -14.45 -1.3 -14.4 -1.35 -14.4 -1.4 -14.35 -1.4 -13.85 -1.9 -13.75 -2.0 -13.35 -2.35 -11.75 -3.15 -11.7 -3.15 -10.2 -3.1 -9.95 -3.0 -9.85 -3.0 -9.1 -3.0 -7.9 -3.0 -7.85 -3.05 -7.5 -3.05 -6.75 -3.1 -6.3 -3.2 -6.2 -3.2 -5.35 -3.45 -4.8 -3.65 -4.2 -3.75 -3.8 -3.85 -2.8 -4.05 -1.7 -4.15 0.0 -4.3 1.6 -4.35 2.55 -4.25 3.6 -4.2 3.65 -4.2 3.9 -4.15 4.95 -4.0 5.25 -3.9 5.3 -3.9 5.4 -3.9 5.7 -3.85 M2.85 -3.55 L0.35 -3.7 0.35 -3.75 -1.2 -3.6 -1.6 -3.55 -2.4 -3.45 -3.3 -3.3 -3.5 -3.3 -5.05 -3.0 -6.2 -2.75 -6.75 -2.6 -7.5 -2.55 -7.7 -2.55 -8.55 -2.55 -8.05 -0.85 -8.05 -0.7 -7.95 -0.3 -8.0 1.25 -8.25 2.7 -8.5 3.45 -8.65 3.8 -8.1 3.95 -7.65 4.2 -7.55 4.25 -7.45 4.25 -7.25 4.3 -7.15 4.3 -7.1 4.3 -7.15 4.25 -6.25 4.5 -5.6 4.5 -5.2 4.55 -4.9 4.6 -4.65 4.65 -4.55 4.65 -3.9 4.8 -3.65 4.85 -3.55 4.85 -3.35 4.85 -3.05 4.9 -2.55 4.95 -0.75 5.0 -0.15 5.0 -0.05 4.95 0.15 5.0 0.85 5.0 1.45 5.0 1.2 5.0 2.5 4.9 2.55 4.9 2.7 4.95 2.75 4.95 2.85 4.95 3.0 4.95 4.0 4.9 4.65 4.85 4.75 4.85 4.9 4.8 6.15 4.55 7.05 4.4 7.25 4.35 7.75 4.25 7.8 4.25 7.95 4.1 8.1 4.1 8.8 3.95 10.2 3.7 10.4 3.45 Q11.35 2.25 11.35 0.75 L11.3 0.2 10.9 -1.2 10.6 -1.9 10.1 -2.75 7.35 -3.15 5.8 -3.35 2.85 -3.55 M7.35 -0.9 L7.4 -0.95 7.4 -0.9 7.35 -0.9 M13.05 -2.1 L12.4 -2.4 12.35 -2.45 11.9 -2.65 11.75 -2.65 11.55 -2.75 11.3 -2.8 11.2 -2.8 10.85 -2.8 10.8 -2.75 10.75 -2.8 10.65 -2.8 10.3 -2.8 10.4 -2.7 10.85 -2.2 11.35 -1.4 11.75 0.05 11.8 0.65 11.75 1.35 11.75 1.5 11.2 3.0 10.75 3.45 10.6 3.65 11.2 3.6 11.25 3.6 11.75 3.6 Q13.25 3.2 14.05 2.05 L14.5 1.0 14.55 0.8 14.6 0.75 14.6 0.5 14.6 0.2 14.6 0.05 14.6 -0.05 14.6 -0.1 14.55 -0.15 14.55 -0.2 14.5 -0.2 14.5 -0.35 14.5 -0.4 14.45 -0.45 14.45 -0.55 14.4 -0.6 14.3 -0.8 13.4 -1.85 13.3 -1.9 13.25 -1.95 13.05 -2.1 M9.45 2.8 L9.25 2.8 9.5 2.75 9.45 2.8 M-14.6 -0.35 L-14.6 -0.2 -14.65 -0.2 -14.65 -0.15 -14.7 -0.1 -14.7 -0.05 -14.7 0.0 -14.7 0.05 -14.7 0.2 -14.7 0.75 -14.65 0.8 -14.6 0.9 -14.6 1.0 -14.45 1.3 -14.35 1.55 -14.35 1.65 -14.2 1.95 -14.15 2.05 Q-13.35 3.2 -11.85 3.6 L-11.1 3.75 -10.85 3.75 -10.8 3.75 -10.55 3.7 -10.35 3.75 -10.2 3.75 -9.95 3.75 -9.85 3.75 -9.1 3.75 -8.85 2.9 -8.6 1.55 -8.5 0.95 -8.5 -0.9 -8.8 -2.35 -8.85 -2.55 -9.5 -2.55 -9.55 -2.55 -10.3 -2.65 -11.2 -2.85 -11.5 -2.8 -11.55 -2.75 -11.85 -2.65 -13.4 -1.9 -14.4 -0.8 -14.5 -0.6 -14.55 -0.55 -14.55 -0.45 -14.6 -0.4 -14.6 -0.35 M-0.45 2.3 L-0.5 2.3 -0.5 2.15 -0.45 2.3 M-6.15 3.05 L-6.15 3.0 -6.15 3.05 M-7.5 3.6 L-7.5 3.65 -7.5 3.6 M-12.85 2.25 L-12.85 2.2 -12.85 2.25" fill="#23252e" fill-rule="evenodd" stroke="none"/>
    <path d="M-7.15 4.25 L-7.1 4.3 -7.15 4.3 -7.15 4.25" fill="#660000" fill-rule="evenodd" stroke="none"/>
    <path d="M-13.55 0.35 L-12.95 0.65 -13.55 0.4 -13.55 0.35" fill="#cc0000" fill-rule="evenodd" stroke="none"/>
    <path d="M5.3 -3.9 L5.7 -3.85 5.4 -3.9 5.3 -3.9" fill="#8b94a3" fill-rule="evenodd" stroke="none"/>
    <path d="M13.25 -1.95 L13.3 -1.9 13.4 -1.85 13.3 -1.8 13.25 -1.9 13.25 -1.95 M-4.55 4.65 L-4.65 4.65 -4.6 4.6 -4.55 4.65 M2.85 4.95 L2.75 4.95 2.8 4.9 2.85 4.95 M4.65 4.85 L4.7 4.8 4.75 4.85 4.65 4.85 M-9.55 -2.55 L-9.5 -2.55 -9.55 -2.55 M-4.25 1.35 L-4.3 1.3 -4.2 1.3 -4.25 1.35" fill="#595988" fill-rule="evenodd" stroke="none"/>
    <path d="M12.3 -2.1 L12.3 -2.05 12.05 -2.15 12.3 -2.1" fill="#878eb0" fill-rule="evenodd" stroke="none"/>
    <path d="M12.2 -1.95 L12.25 -1.85 12.25 -1.9 12.2 -1.95" fill="#8787c2" fill-rule="evenodd" stroke="none"/>
    <path d="M-13.65 -0.45 L-13.65 -0.4 -13.65 -0.45" fill="#a4a4ff" fill-rule="evenodd" stroke="none"/>
    <path d="M0.35 -3.7 L0.35 -3.75 0.35 -3.7 M-7.6 -0.35 L-7.65 -0.35 -7.6 -0.55 -7.6 -0.35" fill="#cc9900" fill-rule="evenodd" stroke="none"/>
    <path d="M-0.7 2.3 L-0.6 2.2 -0.65 2.3 -0.7 2.3" fill="#754900" fill-rule="evenodd" stroke="none"/>
    <path d="M-0.9 0.2 L-0.85 0.05 -0.85 0.2 -0.9 0.2 M-0.5 2.15 L-0.55 2.15 -0.5 2.1 -0.5 2.15 -0.45 2.3 -0.5 2.15" fill="#996600" fill-rule="evenodd" stroke="none"/>
    <path d="M-6.9 0.85 L-6.9 0.9 -6.9 0.85" fill="#a66600" fill-rule="evenodd" stroke="none"/>
    <path d="M2.35 0.8 L2.35 0.85 2.35 0.8" fill="#999999" fill-rule="evenodd" stroke="none"/>
    <path d="M-7.95 -0.3 L-7.9 0.15 Q-6.95 0.45 -6.0 0.15 L-4.7 -0.1 -4.6 -0.15 -2.75 0.1 -2.6 0.2 -0.8 0.75 Q0.5 1.0 1.8 0.75 L2.85 0.45 2.9 0.4 3.7 0.1 3.7 0.05 3.85 -0.15 3.9 -0.2 3.9 -0.35 6.15 -0.6 10.15 -0.9 10.15 -0.95 10.9 -1.2 11.3 0.2 11.35 0.75 Q11.35 2.25 10.4 3.45 L10.2 3.7 8.8 3.95 8.1 4.1 7.95 4.1 7.8 4.25 7.75 4.25 7.25 4.35 7.05 4.4 6.15 4.55 4.9 4.8 4.75 4.85 4.7 4.8 4.65 4.85 4.0 4.9 3.0 4.95 2.85 4.95 2.8 4.9 2.75 4.95 2.7 4.95 2.55 4.9 2.5 4.9 1.2 5.0 1.45 5.0 0.85 5.0 0.15 5.0 -0.05 4.95 -0.15 5.0 -0.75 5.0 -2.55 4.95 -3.05 4.9 -3.35 4.85 -3.55 4.85 -3.65 4.85 -3.9 4.8 -4.55 4.65 -4.6 4.6 -4.65 4.65 -4.9 4.6 -5.2 4.55 -5.6 4.5 -6.25 4.5 -7.15 4.25 -7.15 4.3 -7.25 4.3 -7.45 4.25 -7.55 4.25 -7.65 4.2 -8.1 3.95 -8.65 3.8 -8.5 3.45 -8.25 2.7 -8.0 1.25 -7.95 -0.3 M11.55 -2.75 L11.75 -2.65 11.9 -2.65 12.35 -2.45 12.4 -2.4 13.05 -2.1 12.85 -2.1 12.8 -2.1 12.65 -2.05 12.2 -1.95 12.1 -1.9 11.9 -1.8 11.35 -1.4 10.85 -2.2 11.55 -2.75 M14.5 -0.4 L14.5 -0.35 14.5 -0.2 14.55 -0.2 14.55 -0.15 14.6 -0.1 14.6 -0.05 14.6 0.05 14.6 0.2 14.6 0.5 14.1 0.9 Q13.1 1.8 11.8 1.35 L11.75 1.35 11.8 0.65 11.9 0.65 Q13.6 0.95 14.5 -0.4 M12.3 -2.1 L12.05 -2.15 12.3 -2.05 12.3 -2.1 M9.45 2.8 L9.5 2.75 9.25 2.8 9.45 2.8 M2.35 0.8 L2.35 0.85 2.35 0.8 M-14.45 1.3 L-14.6 1.0 -14.6 0.9 -14.65 0.8 -14.7 0.75 -14.7 0.2 -14.7 0.05 -14.7 0.0 -14.7 -0.05 -14.7 -0.1 -14.65 -0.15 -14.65 -0.2 -14.6 -0.2 -14.6 -0.35 -14.0 0.95 Q-13.3 1.65 -12.3 1.45 -11.45 1.3 -10.75 0.75 -9.55 -0.1 -10.05 -1.5 -10.4 -2.55 -11.25 -2.8 L-11.5 -2.8 -11.2 -2.85 -10.3 -2.65 Q-9.85 -2.2 -9.75 -1.55 -9.55 0.0 -10.6 1.2 L-11.0 1.65 Q-12.35 2.4 -13.95 2.05 L-14.2 1.95 -14.35 1.65 -14.35 1.55 -14.45 1.3 M-0.5 2.15 L-0.5 2.3 -0.45 2.3 -0.5 2.15 -0.5 2.1 -0.55 2.15 -0.5 2.15 M-0.7 2.3 L-0.65 2.3 -0.6 2.2 -0.7 2.3 M-4.25 1.35 L-4.2 1.3 -4.3 1.3 -4.25 1.35 M-6.15 3.05 L-6.15 3.0 -6.15 3.05 M-6.9 0.85 L-6.9 0.9 -6.9 0.85 M-7.5 3.6 L-7.5 3.65 -7.5 3.6" fill="#333366" fill-rule="evenodd" stroke="none"/>
    <path d="M2.85 -3.55 L2.65 -3.35 Q2.4 -2.8 2.85 -2.4 3.15 -2.15 3.5 -2.05 L6.4 -1.95 Q6.9 -2.05 7.15 -2.5 L7.3 -2.9 7.35 -3.15 10.1 -2.75 10.6 -1.9 10.9 -1.2 10.15 -0.95 10.15 -0.9 6.15 -0.6 3.9 -0.35 3.9 -0.2 3.85 -0.15 3.7 0.05 3.7 0.1 2.9 0.4 2.85 0.45 1.8 0.75 Q0.5 1.0 -0.8 0.75 L-2.6 0.2 -2.75 0.1 -4.6 -0.15 -4.7 -0.1 -6.0 0.15 Q-6.95 0.45 -7.9 0.15 L-7.95 -0.3 -8.05 -0.7 -8.05 -0.85 -8.55 -2.55 -7.7 -2.55 -7.5 -2.55 -6.75 -2.6 -6.75 -2.55 -6.65 -2.2 -5.7 -1.4 -4.35 -1.5 -2.6 -1.95 -2.45 -2.0 -1.3 -2.95 -1.2 -3.25 -1.2 -3.6 0.35 -3.75 0.35 -3.7 2.85 -3.55 M7.35 -0.9 L7.4 -0.9 7.4 -0.95 7.35 -0.9 M14.6 0.5 L14.6 0.75 14.55 0.8 14.5 1.0 14.05 2.05 Q13.25 3.2 11.75 3.6 L11.25 3.6 11.2 3.6 10.6 3.65 10.75 3.45 11.2 3.0 11.75 1.5 11.75 1.35 11.8 1.35 Q13.1 1.8 14.1 0.9 L14.6 0.5 M10.85 -2.2 L10.4 -2.7 10.3 -2.8 10.65 -2.8 10.75 -2.8 10.8 -2.75 10.85 -2.8 11.2 -2.8 11.3 -2.8 11.55 -2.75 10.85 -2.2 M-10.3 -2.65 L-9.55 -2.55 -9.5 -2.55 -8.85 -2.55 -8.8 -2.35 -8.5 -0.9 -8.5 0.95 -8.6 1.55 -8.85 2.9 -9.1 3.75 -9.85 3.75 -9.95 3.75 -10.2 3.75 -10.35 3.75 -10.55 3.7 -10.8 3.75 -10.85 3.75 -11.1 3.75 -11.85 3.6 Q-13.35 3.2 -14.15 2.05 L-14.2 1.95 -13.95 2.05 Q-12.35 2.4 -11.0 1.65 L-10.6 1.2 Q-9.55 0.0 -9.75 -1.55 -9.85 -2.2 -10.3 -2.65 M-7.6 -0.35 L-7.6 -0.55 -7.65 -0.35 -7.6 -0.35 M-0.9 0.2 L-0.85 0.2 -0.85 0.05 -0.9 0.2 M-12.85 2.25 L-12.85 2.2 -12.85 2.25" fill="#336699" fill-rule="evenodd" stroke="none"/>
    <path d="M7.35 -3.15 L7.3 -2.9 7.15 -2.5 Q6.9 -2.05 6.4 -1.95 L3.5 -2.05 Q3.15 -2.15 2.85 -2.4 2.4 -2.8 2.65 -3.35 L2.85 -3.55 5.8 -3.35 7.35 -3.15 M-1.2 -3.6 L-1.2 -3.25 -1.3 -2.95 -2.45 -2.0 -2.6 -1.95 -4.35 -1.5 -5.7 -1.4 -6.65 -2.2 -6.75 -2.55 -6.75 -2.6 -6.2 -2.75 -5.05 -3.0 -3.5 -3.3 -3.3 -3.3 -2.4 -3.45 -1.6 -3.55 -1.2 -3.6 M13.05 -2.1 L13.25 -1.95 13.25 -1.9 13.3 -1.8 13.4 -1.85 14.3 -0.8 14.4 -0.6 14.45 -0.55 14.45 -0.45 14.5 -0.4 Q13.6 0.95 11.9 0.65 L11.8 0.65 11.75 0.05 11.35 -1.4 11.9 -1.8 12.1 -1.9 12.2 -1.95 12.65 -2.05 12.8 -2.1 12.85 -2.1 13.05 -2.1 M12.2 -1.95 L12.25 -1.9 12.25 -1.85 12.2 -1.95 M-14.6 -0.35 L-14.6 -0.4 -14.55 -0.45 -14.55 -0.55 -14.5 -0.6 -14.4 -0.8 -13.4 -1.9 -11.85 -2.65 -11.55 -2.75 -11.5 -2.8 -11.25 -2.8 Q-10.4 -2.55 -10.05 -1.5 -9.55 -0.1 -10.75 0.75 -11.45 1.3 -12.3 1.45 -13.3 1.65 -14.0 0.95 L-14.6 -0.35 M-13.65 -0.45 L-13.65 -0.4 -13.65 -0.45 M-13.55 0.35 L-13.55 0.4 -12.95 0.65 -13.55 0.35" fill="#9999ff" fill-rule="evenodd" stroke="none"/>
  </g>
</svg>
