<?xml version="1.0" encoding="UTF-8" standalone="no"?>
<svg xmlns:xlink="http://www.w3.org/1999/xlink" height="11.0px" width="29.75px" xmlns="http://www.w3.org/2000/svg">
  <g transform="matrix(1.0, 0.0, 0.0, 1.0, 14.95, 5.5)">
    <path d="M5.7 -4.95 L6.6 -4.85 6.65 -4.8 7.0 -4.75 7.7 -4.55 7.75 -4.55 8.4 -4.45 9.05 -4.45 9.5 -4.4 9.55 -4.4 10.05 -4.3 10.55 -4.3 10.95 -4.25 11.0 -4.3 11.65 -4.15 13.25 -3.25 13.65 -2.9 13.75 -2.8 14.25 -2.25 14.3 -2.2 14.3 -2.15 14.35 -2.1 14.35 -2.05 14.6 -1.6 14.7 -1.1 14.7 -1.0 14.75 -0.9 14.75 -0.8 14.8 -0.8 14.8 -0.75 14.8 0.45 14.8 0.6 14.75 0.65 Q14.65 1.85 13.7 2.7 13.15 3.3 12.4 3.7 L12.25 3.7 12.25 3.75 10.55 3.85 8.3 4.35 8.2 4.4 7.6 4.55 7.4 4.6 6.1 4.9 5.95 4.95 5.8 4.95 5.55 5.05 5.5 5.05 4.75 5.25 4.25 5.35 4.05 5.35 3.65 5.4 -4.7 5.15 -4.8 5.15 -5.05 5.1 -6.35 4.8 -6.95 4.65 -7.9 4.35 -8.95 4.25 -9.3 4.2 -10.9 4.05 -11.05 4.1 -11.85 3.95 -13.8 2.7 Q-14.75 1.85 -14.85 0.65 L-14.9 0.6 -14.9 0.45 -14.9 -0.75 -14.9 -0.8 -14.85 -0.8 -14.85 -0.9 -14.8 -0.9 -14.8 -1.0 -14.8 -1.1 -14.7 -1.6 -14.45 -2.05 -14.45 -2.1 -14.4 -2.15 -14.4 -2.2 -14.35 -2.25 -13.85 -2.8 -13.75 -2.9 -13.35 -3.25 Q-12.65 -3.9 -11.75 -4.15 L-11.7 -4.15 -10.2 -4.1 -9.95 -4.0 -9.85 -4.0 -9.1 -4.0 -7.9 -4.0 -7.85 -4.05 -7.5 -4.05 -6.75 -4.15 -6.3 -4.2 -6.2 -4.25 -5.35 -4.5 -4.8 -4.7 -4.2 -4.85 -3.8 -4.95 -2.8 -5.15 -1.7 -5.3 0.0 -5.45 1.6 -5.5 2.55 -5.4 3.6 -5.35 3.65 -5.35 3.9 -5.3 4.95 -5.15 5.25 -5.0 5.3 -5.0 5.4 -5.0 5.7 -4.95 M2.85 -4.6 L0.35 -4.8 0.35 -4.85 -1.2 -4.7 -1.6 -4.65 -2.4 -4.5 -3.3 -4.35 -3.5 -4.3 -5.05 -4.0 -6.2 -3.7 -6.75 -3.55 -7.5 -3.5 -7.7 -3.5 -8.55 -3.5 -8.05 -1.6 -8.05 -1.45 -7.95 -0.95 Q-7.85 -0.1 -8.0 0.75 L-8.25 2.4 -8.5 3.2 -8.65 3.6 -8.1 3.75 -7.65 4.05 -7.55 4.1 -7.45 4.1 -7.25 4.15 -7.15 4.15 -7.1 4.15 -7.15 4.1 -6.25 4.4 -5.6 4.4 -5.2 4.45 -4.9 4.5 -4.65 4.55 -4.55 4.55 -3.9 4.7 -3.65 4.75 -3.55 4.8 -3.35 4.8 -3.05 4.8 -2.55 4.85 -0.75 4.95 -0.15 4.95 -0.05 4.9 0.15 4.9 0.85 4.95 1.45 4.95 1.2 4.95 2.5 4.8 2.55 4.8 2.7 4.85 2.75 4.85 2.85 4.85 3.0 4.85 4.0 4.8 4.65 4.8 4.75 4.8 4.9 4.7 6.15 4.45 7.05 4.25 7.25 4.2 7.75 4.1 7.8 4.1 7.95 3.95 8.1 3.95 8.8 3.75 10.2 3.45 10.4 3.2 Q11.35 1.85 11.35 0.2 L11.3 -0.4 10.9 -2.0 10.6 -2.75 10.1 -3.7 7.35 -4.15 5.8 -4.4 2.85 -4.6 M11.55 -3.7 L11.3 -3.75 11.2 -3.75 10.85 -3.75 10.8 -3.75 10.75 -3.75 10.65 -3.8 10.3 -3.75 10.4 -3.65 10.85 -3.1 11.35 -2.25 11.75 -0.6 11.8 0.05 11.75 0.85 11.75 1.05 11.2 2.7 10.75 3.2 10.6 3.4 11.2 3.35 11.25 3.4 11.75 3.4 Q13.25 2.9 14.05 1.65 L14.5 0.45 14.55 0.25 14.6 0.15 14.6 -0.1 14.6 -0.4 14.6 -0.45 14.6 -0.6 14.6 -0.7 14.6 -0.75 14.55 -0.8 14.55 -0.85 14.5 -0.9 14.5 -1.05 14.5 -1.1 14.45 -1.15 14.45 -1.3 14.4 -1.3 14.3 -1.55 13.4 -2.75 13.3 -2.8 13.25 -2.85 13.05 -3.0 Q12.75 -3.2 12.4 -3.35 L12.35 -3.35 12.35 -3.4 11.9 -3.6 11.75 -3.6 11.55 -3.7 M7.4 -1.7 L7.4 -1.65 7.35 -1.65 7.4 -1.7 M9.25 2.5 L9.5 2.45 9.45 2.45 9.25 2.5 M-11.5 -3.75 L-11.55 -3.75 -11.85 -3.6 Q-12.7 -3.35 -13.4 -2.8 L-14.4 -1.55 -14.5 -1.3 -14.55 -1.3 -14.55 -1.15 -14.6 -1.1 -14.6 -1.05 -14.6 -0.9 -14.6 -0.85 -14.65 -0.85 -14.65 -0.8 -14.7 -0.75 -14.7 -0.7 -14.7 -0.65 -14.7 -0.6 -14.7 -0.45 -14.7 -0.4 -14.7 0.15 -14.65 0.25 -14.6 0.35 -14.6 0.45 -14.45 0.8 -14.35 1.05 -14.35 1.2 -14.2 1.55 -14.15 1.65 Q-13.35 2.9 -11.85 3.4 L-11.1 3.5 -10.85 3.55 -10.8 3.5 -10.55 3.5 -10.35 3.55 -10.2 3.5 -9.95 3.5 -9.85 3.5 -9.1 3.5 -8.85 2.6 -8.6 1.1 -8.5 0.4 -8.5 -1.65 -8.8 -3.25 -8.85 -3.5 -9.5 -3.5 -9.55 -3.5 -10.3 -3.6 -11.2 -3.8 -11.5 -3.75 M-0.45 1.9 L-0.5 1.9 -0.5 1.75 -0.45 1.9 M-6.15 2.75 L-6.15 2.7 -6.15 2.75 M-12.85 1.85 L-12.85 1.8 -12.85 1.85" fill="#23252e" fill-rule="evenodd" stroke="none"/>
    <path d="M2.85 -4.6 L2.65 -4.4 Q2.4 -3.8 2.85 -3.3 3.15 -3.05 3.5 -2.95 L6.4 -2.8 7.15 -3.45 7.3 -3.9 7.35 -4.15 10.1 -3.7 10.6 -2.75 10.9 -2.0 10.15 -1.7 10.15 -1.65 6.15 -1.3 3.9 -1.05 3.9 -0.85 3.85 -0.8 3.7 -0.6 3.7 -0.55 2.9 -0.2 2.85 -0.15 1.8 0.2 Q0.5 0.5 -0.8 0.2 -1.75 0.05 -2.6 -0.4 L-2.75 -0.55 -4.6 -0.8 -4.7 -0.75 -6.0 -0.45 -7.9 -0.5 -7.95 -0.95 -8.05 -1.45 -8.05 -1.6 -8.55 -3.5 -7.7 -3.5 -7.5 -3.5 -6.75 -3.55 -6.75 -3.5 -6.65 -3.1 -5.7 -2.2 -4.35 -2.3 Q-3.4 -2.3 -2.6 -2.8 L-2.45 -2.85 Q-1.8 -3.25 -1.3 -3.95 L-1.2 -4.25 -1.2 -4.7 0.35 -4.85 0.35 -4.8 2.85 -4.6 M7.4 -1.7 L7.35 -1.65 7.4 -1.65 7.4 -1.7 M10.85 -3.1 L10.4 -3.65 10.3 -3.75 10.65 -3.8 10.75 -3.75 10.8 -3.75 10.85 -3.75 11.2 -3.75 11.3 -3.75 11.55 -3.7 10.85 -3.1 M14.6 -0.1 L14.6 0.15 14.55 0.25 14.5 0.45 14.05 1.65 Q13.25 2.9 11.75 3.4 L11.25 3.4 11.2 3.35 10.6 3.4 10.75 3.2 11.2 2.7 11.75 1.05 11.75 0.85 11.8 0.85 Q13.1 1.35 14.1 0.35 L14.6 -0.1 M-14.2 1.55 L-13.95 1.65 Q-12.35 2.05 -11.0 1.2 L-10.6 0.7 Q-9.55 -0.65 -9.75 -2.35 -9.85 -3.1 -10.3 -3.6 L-9.55 -3.5 -9.5 -3.5 -8.85 -3.5 -8.8 -3.25 -8.5 -1.65 -8.5 0.4 -8.6 1.1 -8.85 2.6 -9.1 3.5 -9.85 3.5 -9.95 3.5 -10.2 3.5 -10.35 3.55 -10.55 3.5 -10.8 3.5 -10.85 3.55 -11.1 3.5 -11.85 3.4 Q-13.35 2.9 -14.15 1.65 L-14.2 1.55 M-7.65 -1.05 L-7.6 -1.05 -7.6 -1.25 -7.65 -1.05 M-0.9 -0.45 L-0.85 -0.45 -0.85 -0.6 -0.9 -0.45 M-12.85 1.85 L-12.85 1.8 -12.85 1.85" fill="#336699" fill-rule="evenodd" stroke="none"/>
    <path d="M7.35 -4.15 L7.3 -3.9 7.15 -3.45 6.4 -2.8 3.5 -2.95 Q3.15 -3.05 2.85 -3.3 2.4 -3.8 2.65 -4.4 L2.85 -4.6 5.8 -4.4 7.35 -4.15 M-1.2 -4.7 L-1.2 -4.25 -1.3 -3.95 Q-1.8 -3.25 -2.45 -2.85 L-2.6 -2.8 Q-3.4 -2.3 -4.35 -2.3 L-5.7 -2.2 -6.65 -3.1 -6.75 -3.5 -6.75 -3.55 -6.2 -3.7 -5.05 -4.0 -3.5 -4.3 -3.3 -4.35 -2.4 -4.5 -1.6 -4.65 -1.2 -4.7 M13.05 -3.0 L13.25 -2.85 13.25 -2.8 13.3 -2.65 13.4 -2.75 14.3 -1.55 14.4 -1.3 14.45 -1.3 14.45 -1.15 14.5 -1.1 Q13.6 0.4 11.9 0.1 L11.8 0.05 11.75 -0.6 11.35 -2.25 11.9 -2.65 12.1 -2.75 12.2 -2.8 12.65 -2.95 12.8 -3.0 12.85 -3.0 13.05 -3.0 M12.2 -2.8 L12.25 -2.75 12.2 -2.8 M-11.5 -3.75 L-11.25 -3.8 Q-10.4 -3.5 -10.05 -2.3 -9.55 -0.75 -10.75 0.2 -11.45 0.8 -12.3 1.0 -13.3 1.2 -14.0 0.4 -14.5 -0.25 -14.6 -1.05 L-14.6 -1.1 -14.55 -1.15 -14.55 -1.3 -14.5 -1.3 -14.4 -1.55 -13.4 -2.8 Q-12.7 -3.35 -11.85 -3.6 L-11.55 -3.75 -11.5 -3.75 M-13.65 -1.15 L-13.65 -1.1 -13.65 -1.15 M-13.55 -0.25 L-13.55 -0.2 Q-13.3 0.0 -12.95 0.1 L-13.55 -0.25" fill="#9999ff" fill-rule="evenodd" stroke="none"/>
    <path d="M0.35 -4.8 L0.35 -4.85 0.35 -4.8 M-7.65 -1.05 L-7.6 -1.25 -7.6 -1.05 -7.65 -1.05" fill="#cc9900" fill-rule="evenodd" stroke="none"/>
    <path d="M-7.95 -0.95 L-7.9 -0.5 -6.0 -0.45 -4.7 -0.75 -4.6 -0.8 -2.75 -0.55 -2.6 -0.4 Q-1.75 0.05 -0.8 0.2 0.5 0.5 1.8 0.2 L2.85 -0.15 2.9 -0.2 3.7 -0.55 3.7 -0.6 3.85 -0.8 3.9 -0.85 3.9 -1.05 6.15 -1.3 10.15 -1.65 10.15 -1.7 10.9 -2.0 11.3 -0.4 11.35 0.2 Q11.35 1.85 10.4 3.2 L10.2 3.45 8.8 3.75 8.1 3.95 7.95 3.95 7.8 4.1 7.75 4.1 7.25 4.2 7.05 4.25 6.15 4.45 4.9 4.7 4.75 4.8 4.7 4.7 4.65 4.8 4.0 4.8 3.0 4.85 2.85 4.85 2.8 4.8 2.75 4.85 2.7 4.85 2.55 4.8 2.5 4.8 1.2 4.95 1.45 4.95 0.85 4.95 0.15 4.9 -0.05 4.9 -0.15 4.95 -0.75 4.95 -2.55 4.85 -3.05 4.8 -3.35 4.8 -3.55 4.8 -3.65 4.75 -3.9 4.7 -4.55 4.55 -4.6 4.5 -4.65 4.55 -4.9 4.5 -5.2 4.45 -5.6 4.4 -6.25 4.4 -7.15 4.1 -7.15 4.15 -7.25 4.15 -7.45 4.1 -7.55 4.1 -7.65 4.05 -8.1 3.75 -8.65 3.6 -8.5 3.2 -8.25 2.4 -8.0 0.75 Q-7.85 -0.1 -7.95 -0.95 M11.55 -3.7 L11.75 -3.6 11.9 -3.6 12.35 -3.4 12.35 -3.35 12.4 -3.35 Q12.75 -3.2 13.05 -3.0 L12.85 -3.0 12.8 -3.0 12.65 -2.95 12.2 -2.8 12.1 -2.75 11.9 -2.65 11.35 -2.25 10.85 -3.1 11.55 -3.7 M14.5 -1.1 L14.5 -1.05 14.5 -0.9 14.55 -0.85 14.55 -0.8 14.6 -0.75 14.6 -0.7 14.6 -0.6 14.6 -0.45 14.6 -0.4 14.6 -0.1 14.1 0.35 Q13.1 1.35 11.8 0.85 L11.75 0.85 11.8 0.05 11.9 0.1 Q13.6 0.4 14.5 -1.1 M12.05 -3.05 L12.3 -2.95 12.3 -3.0 12.05 -3.05 M9.25 2.5 L9.45 2.45 9.5 2.45 9.25 2.5 M2.35 0.3 L2.35 0.25 2.35 0.3 M-14.6 -1.05 Q-14.5 -0.25 -14.0 0.4 -13.3 1.2 -12.3 1.0 -11.45 0.8 -10.75 0.2 -9.55 -0.75 -10.05 -2.3 -10.4 -3.5 -11.25 -3.8 L-11.5 -3.75 -11.2 -3.8 -10.3 -3.6 Q-9.85 -3.1 -9.75 -2.35 -9.55 -0.65 -10.6 0.7 L-11.0 1.2 Q-12.35 2.05 -13.95 1.65 L-14.2 1.55 -14.35 1.2 -14.35 1.05 -14.45 0.8 -14.6 0.45 -14.6 0.35 -14.65 0.25 -14.7 0.15 -14.7 -0.4 -14.7 -0.45 -14.7 -0.6 -14.7 -0.65 -14.7 -0.7 -14.7 -0.75 -14.65 -0.8 -14.65 -0.85 -14.6 -0.85 -14.6 -0.9 -14.6 -1.05 M-0.45 1.9 L-0.5 1.75 -0.5 1.7 -0.55 1.75 -0.5 1.75 -0.5 1.9 -0.45 1.9 M-0.7 1.9 L-0.65 1.9 -0.6 1.8 -0.7 1.9 M-4.2 0.8 L-4.3 0.8 -4.25 0.85 -4.2 0.8 M-6.15 2.75 L-6.15 2.7 -6.15 2.75 M-6.9 0.3 L-6.9 0.35 -6.9 0.3" fill="#333366" fill-rule="evenodd" stroke="none"/>
    <path d="M5.3 -5.0 L5.7 -4.95 5.4 -5.0 5.3 -5.0" fill="#8b94a3" fill-rule="evenodd" stroke="none"/>
    <path d="M12.2 -2.8 L12.25 -2.75 12.2 -2.8" fill="#8787c2" fill-rule="evenodd" stroke="none"/>
    <path d="M12.05 -3.05 L12.3 -3.0 12.3 -2.95 12.05 -3.05" fill="#878eb0" fill-rule="evenodd" stroke="none"/>
    <path d="M13.25 -2.85 L13.3 -2.8 13.4 -2.75 13.3 -2.65 13.25 -2.8 13.25 -2.85 M-4.55 4.55 L-4.65 4.55 -4.6 4.5 -4.55 4.55 M2.85 4.85 L2.75 4.85 2.8 4.8 2.85 4.85 M4.65 4.8 L4.7 4.7 4.75 4.8 4.65 4.8 M-9.5 -3.5 L-9.55 -3.5 -9.5 -3.5 M-4.2 0.8 L-4.25 0.85 -4.3 0.8 -4.2 0.8" fill="#595988" fill-rule="evenodd" stroke="none"/>
    <path d="M-13.55 -0.25 L-12.95 0.1 Q-13.3 0.0 -13.55 -0.2 L-13.55 -0.25" fill="#cc0000" fill-rule="evenodd" stroke="none"/>
    <path d="M-13.65 -1.15 L-13.65 -1.1 -13.65 -1.15" fill="#a4a4ff" fill-rule="evenodd" stroke="none"/>
    <path d="M-0.9 -0.45 L-0.85 -0.6 -0.85 -0.45 -0.9 -0.45 M-0.5 1.75 L-0.55 1.75 -0.5 1.7 -0.5 1.75 -0.45 1.9 -0.5 1.75" fill="#996600" fill-rule="evenodd" stroke="none"/>
    <path d="M-0.7 1.9 L-0.6 1.8 -0.65 1.9 -0.7 1.9" fill="#754900" fill-rule="evenodd" stroke="none"/>
    <path d="M-6.9 0.3 L-6.9 0.35 -6.9 0.3" fill="#a66600" fill-rule="evenodd" stroke="none"/>
    <path d="M-7.15 4.1 L-7.1 4.15 -7.15 4.15 -7.15 4.1" fill="#660000" fill-rule="evenodd" stroke="none"/>
    <path d="M2.35 0.3 L2.35 0.25 2.35 0.3" fill="#999999" fill-rule="evenodd" stroke="none"/>
  </g>
</svg>
