<?xml version="1.0" encoding="UTF-8" standalone="no"?>
<svg xmlns:xlink="http://www.w3.org/1999/xlink" height="10.65px" width="29.2px" xmlns="http://www.w3.org/2000/svg">
  <g transform="matrix(1.0, 0.0, 0.0, 1.0, 14.4, 4.6)">
    <path d="M5.7 -4.1 L6.6 -4.0 6.65 -3.9 7.0 -3.85 7.7 -3.65 Q7.55 -4.15 8.1 -4.3 L8.7 -4.4 9.0 -4.4 Q10.55 -4.5 11.85 -3.8 L11.95 -3.7 13.7 -2.05 13.75 -2.0 14.25 -1.45 14.3 -1.45 14.3 -1.35 14.35 -1.3 14.6 -0.85 14.7 -0.35 14.7 -0.3 14.75 -0.15 14.75 -0.1 14.8 -0.1 14.8 0.0 14.8 1.15 14.8 1.25 14.75 1.35 Q14.65 2.35 13.95 3.1 L12.6 4.95 12.5 5.0 12.4 5.1 10.0 5.95 8.6 5.9 8.55 5.9 8.55 5.85 Q7.9 5.5 7.9 5.05 L7.6 5.1 7.4 5.15 6.1 5.45 5.95 5.45 5.8 5.5 5.55 5.6 5.5 5.6 4.75 5.75 4.25 5.85 4.05 5.85 3.65 5.9 1.4 6.0 0.1 6.0 -4.9 5.65 -4.95 5.65 -5.25 5.6 -5.8 5.5 -6.25 5.7 -8.75 5.55 -9.6 4.75 -10.8 4.7 -13.05 3.8 -13.25 3.65 -13.45 3.45 -13.85 2.95 Q-14.75 1.15 -14.15 -0.75 L-14.0 -1.05 Q-13.35 -2.2 -12.1 -2.6 L-11.2 -2.9 -11.15 -2.9 Q-10.95 -3.6 -10.2 -3.75 -9.1 -3.9 -8.5 -3.15 L-8.15 -3.15 -8.15 -3.2 -7.75 -3.2 -7.0 -3.3 -6.55 -3.35 -6.4 -3.4 -5.55 -3.65 -4.95 -3.85 -4.35 -4.0 -3.9 -4.05 -2.9 -4.3 -1.75 -4.4 0.0 -4.55 0.15 -4.55 1.45 -4.6 1.6 -4.6 2.55 -4.5 3.6 -4.45 3.65 -4.45 3.9 -4.4 4.95 -4.25 5.25 -4.15 5.3 -4.15 5.4 -4.1 5.7 -4.1 M4.1 -3.65 L3.65 -3.7 0.35 -3.9 0.35 -4.0 0.15 -3.95 -1.25 -3.8 -1.65 -3.75 -2.45 -3.65 -3.4 -3.5 -3.6 -3.45 -3.8 -3.45 -4.05 -3.4 -5.25 -3.15 -5.4 -3.1 -5.9 -3.0 -6.4 -2.9 -7.0 -2.75 -7.75 -2.65 -7.95 -2.65 -8.2 -2.65 -8.55 -2.65 -8.55 -2.7 -8.9 -2.75 -8.7 -2.7 -9.0 -2.7 -9.0 -2.8 -9.05 -3.15 Q-9.2 -3.65 -9.95 -3.6 L-10.05 -3.55 -10.1 -3.55 -10.55 -3.0 -10.8 -2.65 -11.0 -2.65 -11.2 -2.6 -11.25 -2.6 -11.4 -2.6 Q-12.85 -2.2 -13.65 -0.95 -14.15 -0.15 -14.15 0.7 L-13.8 1.85 -13.6 2.2 -13.4 2.5 -12.85 3.15 -11.4 3.95 -11.05 4.1 -10.95 4.05 -10.7 4.15 -10.55 4.1 -10.3 4.1 -10.2 4.1 -9.8 4.05 -9.7 4.05 -9.4 4.1 -9.35 3.95 -9.3 4.05 -8.75 4.6 -8.35 4.9 Q-7.65 5.3 -6.8 5.3 L-6.6 5.25 -6.45 5.05 -6.4 4.95 -5.8 4.95 -5.4 5.0 -5.35 5.0 -5.05 5.05 -4.8 5.05 -4.75 5.05 -4.75 5.1 -4.7 5.1 -4.05 5.2 -3.8 5.3 -3.65 5.3 -3.45 5.3 -3.15 5.35 -2.65 5.4 -0.75 5.45 -0.15 5.45 -0.05 5.4 0.1 5.45 0.15 5.45 0.85 5.45 1.4 5.45 1.2 5.45 1.4 5.45 2.5 5.35 2.55 5.35 2.7 5.4 2.75 5.4 2.85 5.4 3.0 5.4 4.0 5.35 4.65 5.3 4.75 5.3 4.9 5.25 6.15 5.0 7.05 4.8 7.25 4.75 7.75 4.65 7.8 4.65 7.95 4.5 8.0 4.5 8.2 4.2 8.4 3.8 8.9 0.8 8.9 0.6 Q9.05 -0.9 8.5 -2.25 L8.0 -2.9 7.75 -3.15 Q7.6 -3.15 7.5 -3.3 L5.8 -3.55 5.5 -3.55 4.1 -3.65 M13.95 -0.75 L13.9 -0.85 13.55 -1.55 13.4 -1.85 12.4 -2.85 Q11.45 -3.75 10.1 -3.75 L9.6 -3.8 8.2 -3.7 7.85 -3.55 7.95 -3.55 8.0 -3.55 Q8.8 -3.25 9.05 -2.45 L9.45 -1.3 9.6 -0.2 9.6 0.55 9.3 2.75 8.95 3.85 8.5 4.65 8.2 4.95 8.2 5.0 8.25 5.05 8.7 5.3 9.4 5.4 10.65 5.3 Q11.9 5.15 12.75 4.2 L13.6 3.05 14.05 2.25 14.25 1.35 14.15 -0.35 14.15 -0.45 13.95 -0.75 M10.75 0.7 L10.75 -0.45 10.7 -0.6 10.65 -0.7 10.65 -0.75 10.6 -0.8 10.5 -1.15 10.45 -1.2 10.45 -1.25 10.45 -1.35 10.45 -1.4 10.45 -1.45 10.45 -1.85 10.8 -1.1 10.8 -1.05 10.9 -0.65 10.95 -0.55 11.0 -0.35 11.0 -0.25 11.2 0.75 11.1 2.45 11.0 3.45 11.8 2.85 11.9 2.8 12.2 2.85 Q12.5 2.9 12.5 3.3 L12.45 3.45 Q12.3 4.15 11.65 4.4 L11.25 4.5 10.65 4.45 10.3 4.25 10.1 3.85 Q10.0 3.4 10.2 2.9 L10.7 1.2 10.75 0.7 M14.5 -0.3 L14.5 -0.35 14.5 -0.3 M-14.15 -0.4 L-14.15 -0.35 -14.1 -0.35 -14.15 -0.4 M-8.35 1.1 L-8.2 1.0 -8.25 1.45 -8.45 2.4 -8.7 2.0 -8.85 1.65 -8.85 1.55 -8.35 1.1 M-0.55 2.4 L-0.5 2.55 -0.55 2.4 M-6.4 3.35 L-6.4 3.3 -6.35 3.35 -6.4 3.35" fill="#23252e" fill-rule="evenodd" stroke="none"/>
    <path d="M0.35 -3.9 L0.35 -4.0 0.35 -3.9" fill="#cc9900" fill-rule="evenodd" stroke="none"/>
    <path d="M14.5 -0.3 L14.5 -0.35 14.5 -0.3" fill="#333366" fill-rule="evenodd" stroke="none"/>
    <path d="M5.3 -4.15 L5.7 -4.1 5.4 -4.1 5.3 -4.15" fill="#8b94a3" fill-rule="evenodd" stroke="none"/>
    <path d="M4.75 5.3 L4.65 5.3 4.7 5.2 4.75 5.3 M2.85 5.4 L2.75 5.4 2.8 5.35 2.85 5.4 M-4.75 5.05 L-4.8 5.05 -4.75 5.05 M-4.45 1.45 L-4.35 1.45 -4.4 1.5 -4.45 1.45" fill="#595988" fill-rule="evenodd" stroke="none"/>
    <path d="M2.35 0.95 L2.35 1.0 2.35 0.95" fill="#999999" fill-rule="evenodd" stroke="none"/>
    <path d="M-13.7 0.7 L-14.0 0.5 -14.0 0.45 -13.7 0.7" fill="#cc0000" fill-rule="evenodd" stroke="none"/>
    <path d="M-14.15 -0.4 L-14.1 -0.35 -14.15 -0.35 -14.15 -0.4" fill="#a4a4ff" fill-rule="evenodd" stroke="none"/>
    <path d="M-0.9 0.3 L-0.9 0.15 -0.9 0.3 M-0.5 2.55 L-0.55 2.4 -0.55 2.35 -0.5 2.4 -0.5 2.55" fill="#996600" fill-rule="evenodd" stroke="none"/>
    <path d="M-0.65 2.45 L-0.65 2.55 -0.7 2.55 -0.65 2.45" fill="#754900" fill-rule="evenodd" stroke="none"/>
    <path d="M-4.7 5.1 L-4.75 5.1 -4.75 5.05 -4.7 5.1" fill="#990000" fill-rule="evenodd" stroke="none"/>
    <path d="M-7.15 1.0 L-7.15 1.05 -7.15 1.0" fill="#a66600" fill-rule="evenodd" stroke="none"/>
    <path d="M4.5 -0.45 L4.6 -1.2 Q4.65 -2.25 4.05 -3.15 L3.65 -3.7 4.1 -3.65 4.55 -3.05 Q5.4 -2.15 5.7 -1.0 L5.7 -0.6 4.5 -0.45 M-3.8 -3.45 L-4.0 -3.0 Q-4.5 -1.6 -4.3 -0.15 L-4.3 -0.1 -4.75 -0.1 -4.85 0.0 -5.5 0.1 -4.95 0.0 -5.1 -0.4 Q-5.5 -1.45 -4.95 -2.45 L-4.65 -2.85 -4.05 -3.4 -3.8 -3.45 M9.6 0.55 L9.6 -0.2 9.45 -1.3 9.05 -2.45 Q8.8 -3.25 8.0 -3.55 L7.95 -3.55 7.85 -3.55 8.2 -3.7 9.6 -3.8 10.1 -3.75 Q11.45 -3.75 12.4 -2.85 L13.4 -1.85 13.55 -1.55 13.9 -0.85 13.95 -0.75 12.9 0.05 13.2 -0.1 13.15 0.3 13.05 1.5 Q13.0 2.4 12.55 3.15 L12.5 3.3 Q12.5 2.9 12.2 2.85 L12.2 2.8 12.55 1.45 12.65 0.4 12.55 0.35 12.55 0.05 12.6 -0.95 12.5 -1.3 Q12.2 -2.55 10.95 -2.6 L10.55 -2.4 10.45 -1.85 10.45 -1.45 10.45 -1.25 10.45 -1.2 10.55 -0.75 10.75 -0.45 10.75 0.7 9.6 0.55 M5.8 -3.55 L7.5 -3.3 Q7.6 -3.15 7.75 -3.15 L8.0 -2.9 8.5 -2.25 Q9.05 -0.9 8.9 0.6 L8.9 0.35 8.05 -0.2 7.4 -0.45 6.7 -0.5 Q6.75 -1.8 6.0 -2.95 L5.5 -3.55 5.8 -3.55 M-6.4 4.95 L-6.45 5.05 -6.6 5.25 -6.8 5.3 Q-7.65 5.3 -8.35 4.9 L-8.75 4.6 -9.3 4.05 -9.35 3.95 -9.55 3.75 -10.1 2.9 -8.5 2.4 -8.45 2.4 -8.15 2.8 -7.1 3.7 Q-6.1 4.0 -6.4 4.95 M-14.15 0.7 Q-14.15 -0.15 -13.65 -0.95 -12.85 -2.2 -11.4 -2.6 L-11.25 -2.6 -11.4 -2.3 -11.8 -0.25 Q-12.6 0.35 -13.6 0.65 L-13.7 0.7 -14.15 0.7 M-8.55 -2.7 L-8.55 -2.65 -8.2 -2.65 -7.95 -2.65 -7.75 -2.65 -7.0 -2.75 -6.4 -2.9 -5.9 -3.0 -6.25 -2.1 Q-6.55 -0.95 -6.2 0.25 L-7.4 0.4 -7.9 0.75 -8.2 1.0 -8.35 1.1 -8.4 1.0 Q-8.9 0.25 -8.9 -0.6 -8.95 -1.65 -8.6 -2.65 L-8.55 -2.7 M-2.7 -0.3 L-2.75 -0.25 -2.75 -0.3 -2.7 -0.3 M-11.5 1.8 L-11.15 1.6 -11.55 1.8 -11.5 1.8 M-13.7 0.7 L-14.0 0.45 -14.0 0.5 -13.7 0.7" fill="#667166" fill-rule="evenodd" stroke="none"/>
    <path d="M4.5 -0.45 L5.7 -0.6 6.1 -0.55 6.15 -0.55 6.45 -0.55 6.7 -0.5 7.4 -0.45 8.05 -0.2 8.9 0.35 8.9 0.6 8.9 0.8 8.4 3.8 8.2 4.2 8.0 4.5 7.95 4.5 7.8 4.65 7.75 4.65 7.25 4.75 7.05 4.8 6.15 5.0 4.9 5.25 4.75 5.3 4.7 5.2 4.65 5.3 4.0 5.35 3.0 5.4 2.85 5.4 2.8 5.35 2.75 5.4 2.7 5.4 2.55 5.35 2.5 5.35 1.4 5.45 1.2 5.45 1.4 5.45 0.85 5.45 0.15 5.45 0.1 5.45 -0.05 5.4 -0.15 5.45 -0.75 5.45 -2.65 5.4 -3.15 5.35 -3.45 5.3 -3.65 5.3 -3.8 5.3 -4.05 5.2 -4.7 5.1 -4.75 5.05 -4.8 5.05 -5.05 5.05 -5.35 5.0 -5.4 5.0 -5.8 4.95 -6.4 4.95 Q-6.1 4.0 -7.1 3.7 L-8.15 2.8 -8.45 2.4 -8.25 1.45 -8.2 1.0 -7.9 0.75 -7.4 0.4 -6.2 0.25 -6.05 0.25 -5.5 0.1 -4.85 0.0 -4.75 -0.1 -4.3 -0.1 -2.85 0.2 -2.7 0.3 -2.0 0.6 -0.8 0.9 0.1 1.05 0.3 1.05 1.25 1.0 1.4 1.0 1.8 0.9 2.85 0.55 2.9 0.5 3.7 0.2 3.7 0.15 3.85 -0.1 3.9 -0.15 3.9 -0.3 4.5 -0.45 M12.55 0.35 L12.65 0.4 12.55 1.45 12.2 2.8 12.2 2.85 11.9 2.8 11.8 2.85 11.0 3.45 11.1 2.45 11.2 0.75 11.45 0.4 11.85 0.15 12.55 0.35 M-9.35 3.95 L-9.4 4.1 -9.7 4.05 -9.8 4.05 -10.2 4.1 -10.3 4.1 -10.55 4.1 -10.7 4.15 -10.95 4.05 -11.05 4.1 -11.4 3.95 -12.85 3.15 -13.4 2.5 -13.6 2.2 -12.7 2.15 -11.55 1.8 -11.15 1.6 -11.5 1.8 -11.8 0.4 -11.8 -0.25 -11.4 -2.3 -11.25 -2.6 -11.2 -2.6 -11.0 -2.65 -10.8 -2.65 -10.9 -2.35 -11.05 -1.9 -11.1 -1.6 -11.1 -1.45 -11.15 -0.8 -11.15 -0.5 -11.15 -0.25 -11.05 0.35 -11.0 0.55 -10.85 1.15 -10.55 2.0 -10.3 2.55 -10.1 2.9 -9.55 3.75 -9.35 3.95 M-9.0 -2.7 L-8.7 -2.7 -8.9 -2.75 -8.55 -2.7 -8.6 -2.65 Q-8.95 -1.65 -8.9 -0.6 -8.9 0.25 -8.4 1.0 L-8.35 1.1 -8.85 1.55 -8.85 1.65 -9.0 1.4 -9.3 0.7 -9.5 -0.25 -9.5 -1.1 -9.45 -1.3 -9.35 -1.6 -9.25 -1.9 -9.25 -2.0 -9.2 -2.0 -9.15 -2.15 -9.15 -2.2 -9.05 -2.55 -9.0 -2.7 M11.25 4.5 L11.1 4.6 10.65 4.6 10.3 4.25 10.65 4.45 11.25 4.5 M2.35 0.95 L2.35 1.0 2.35 0.95 M-0.65 2.45 L-0.7 2.55 -0.65 2.55 -0.65 2.45 M-0.55 2.4 L-0.5 2.55 -0.5 2.4 -0.55 2.35 -0.55 2.4 M-4.45 1.45 L-4.4 1.5 -4.35 1.45 -4.45 1.45 M-7.15 1.0 L-7.15 1.05 -7.15 1.0 M-6.4 3.35 L-6.35 3.35 -6.4 3.3 -6.4 3.35" fill="#333933" fill-rule="evenodd" stroke="none"/>
    <path d="M3.65 -3.7 L4.05 -3.15 Q4.65 -2.25 4.6 -1.2 L4.5 -0.45 3.9 -0.3 3.9 -0.15 3.85 -0.1 3.7 0.15 3.7 0.2 2.9 0.5 2.85 0.55 1.8 0.9 1.4 1.0 1.25 1.0 0.3 1.05 0.1 1.05 -0.8 0.9 -2.0 0.6 -2.7 0.3 -2.85 0.2 -4.3 -0.1 -4.3 -0.15 Q-4.5 -1.6 -4.0 -3.0 L-3.8 -3.45 -3.6 -3.45 -3.4 -3.5 -2.45 -3.65 -1.65 -3.75 -1.25 -3.8 0.15 -3.95 0.35 -4.0 0.35 -3.9 3.65 -3.7 M5.7 -0.6 L5.7 -1.0 Q5.4 -2.15 4.55 -3.05 L4.1 -3.65 5.5 -3.55 6.0 -2.95 Q6.75 -1.8 6.7 -0.5 L6.45 -0.55 6.15 -0.55 6.1 -0.55 5.7 -0.6 M9.6 0.55 L10.75 0.7 10.7 1.2 10.2 2.9 Q10.0 3.4 10.1 3.85 L10.3 4.25 10.65 4.6 11.1 4.6 11.25 4.5 11.65 4.4 Q12.3 4.15 12.45 3.45 L12.5 3.3 12.55 3.15 Q13.0 2.4 13.05 1.5 L13.15 0.3 13.2 -0.1 12.9 0.05 13.95 -0.75 14.15 -0.45 14.15 -0.35 14.25 1.35 14.05 2.25 13.6 3.05 12.75 4.2 Q11.9 5.15 10.65 5.3 L9.4 5.4 8.7 5.3 8.25 5.05 8.2 5.0 8.2 4.95 8.5 4.65 8.95 3.85 9.3 2.75 9.6 0.55 M10.75 -0.45 L10.55 -0.75 10.45 -1.2 10.5 -1.15 10.6 -0.8 10.65 -0.75 10.65 -0.7 10.7 -0.6 10.75 -0.45 M10.45 -1.25 L10.45 -1.45 10.45 -1.4 10.45 -1.35 10.45 -1.25 M10.45 -1.85 L10.55 -2.4 10.95 -2.6 Q12.2 -2.55 12.5 -1.3 L12.6 -0.95 12.55 0.05 12.55 0.35 11.85 0.15 11.45 0.4 11.2 0.75 11.0 -0.25 11.0 -0.35 10.95 -0.55 10.9 -0.65 10.8 -1.05 10.8 -1.1 10.45 -1.85 M-13.6 2.2 L-13.8 1.85 -14.15 0.7 -13.7 0.7 -13.6 0.65 Q-12.6 0.35 -11.8 -0.25 L-11.8 0.4 -11.5 1.8 -11.55 1.8 -12.7 2.15 -13.6 2.2 M-5.9 -3.0 L-5.4 -3.1 -5.25 -3.15 -4.05 -3.4 -4.65 -2.85 -4.95 -2.45 Q-5.5 -1.45 -5.1 -0.4 L-4.95 0.0 -5.5 0.1 -6.05 0.25 -6.2 0.25 Q-6.55 -0.95 -6.25 -2.1 L-5.9 -3.0 M-2.7 -0.3 L-2.75 -0.3 -2.75 -0.25 -2.7 -0.3 M-0.9 0.3 L-0.9 0.15 -0.9 0.3" fill="#464f46" fill-rule="evenodd" stroke="none"/>
    <path d="M-10.8 -2.65 L-10.55 -3.0 -10.1 -3.55 -10.05 -3.55 -9.95 -3.6 Q-9.2 -3.65 -9.05 -3.15 L-9.0 -2.8 -9.0 -2.7 -9.05 -2.55 -9.15 -2.2 -9.15 -2.15 -9.2 -2.0 -9.25 -2.0 -9.25 -1.9 -9.35 -1.6 -9.45 -1.3 -9.5 -1.1 -9.5 -0.25 -9.3 0.7 -9.0 1.4 -8.85 1.65 -8.7 2.0 -8.45 2.4 -8.5 2.4 -10.1 2.9 -10.3 2.55 -10.55 2.0 -10.85 1.15 -11.0 0.55 -11.05 0.35 -11.15 -0.25 -11.15 -0.5 -11.15 -0.8 -11.1 -1.45 -11.1 -1.6 -11.05 -1.9 -10.9 -2.35 -10.8 -2.65" fill="#a5c1a4" fill-rule="evenodd" stroke="none"/>
  </g>
</svg>
