<?xml version="1.0" encoding="UTF-8" standalone="no"?>
<svg xmlns:xlink="http://www.w3.org/1999/xlink" height="14.15px" width="32.2px" xmlns="http://www.w3.org/2000/svg">
  <g transform="matrix(1.0, 0.0, 0.0, 1.0, 14.8, 6.55)">
    <path d="M-1.65 5.3 L-2.1 5.25 -1.65 5.25 -1.65 5.3 M13.7 1.75 L13.75 1.75 13.7 1.75 M-6.8 2.65 L-6.8 2.6 -6.75 2.65 -6.8 2.65 M-13.45 2.25 L-13.25 2.45 -12.95 2.7 -13.85 1.75 -13.95 1.6 -14.0 1.5 -13.8 1.8 -13.45 2.25" fill="#23252e" fill-rule="evenodd" stroke="none"/>
    <path d="M14.45 -0.8 L14.3 -1.15 14.35 -1.15 14.35 -1.1 14.45 -0.8" fill="#993333" fill-rule="evenodd" stroke="none"/>
    <path d="M-0.05 -4.7 L-0.05 -4.6 -0.05 -4.7 M0.05 -4.7 L0.1 -4.7 0.1 -4.6 0.05 -4.7" fill="#cc9900" fill-rule="evenodd" stroke="none"/>
    <path d="M-1.3 -0.4 L-1.3 -0.55 -1.3 -0.4 M1.35 -0.4 L1.3 -0.4 1.3 -0.55 1.35 -0.4 M0.95 1.65 L1.0 1.7 0.95 1.7 0.9 1.85 0.95 1.7 0.95 1.65 M-0.95 1.65 L-0.9 1.7 -0.9 1.85 -0.95 1.7 -0.95 1.65" fill="#996600" fill-rule="evenodd" stroke="none"/>
    <path d="M-9.1 -3.4 L-9.3 -3.45 -9.1 -3.45 -9.1 -3.4 M9.2 -3.45 L9.15 -3.4 9.15 -3.45 9.2 -3.45" fill="#333933" fill-rule="evenodd" stroke="none"/>
    <path d="M-14.5 -1.05 L-14.55 -1.05 -14.55 -1.1 -14.5 -1.05 M14.55 -1.05 L14.55 -1.1 14.55 -1.05" fill="#a4a4ff" fill-rule="evenodd" stroke="none"/>
    <path d="M-2.45 -4.1 L-2.5 -4.1 -2.15 -4.3 -2.45 -4.1" fill="#660000" fill-rule="evenodd" stroke="none"/>
    <path d="M7.6 0.3 L7.55 0.35 7.55 0.3 7.6 0.3 M-7.55 0.3 L-7.55 0.35 -7.55 0.3" fill="#a66600" fill-rule="evenodd" stroke="none"/>
    <path d="M5.15 4.35 L5.15 4.4 5.1 4.4 5.15 4.35 M-5.15 4.35 L-5.1 4.4 -5.15 4.4 -5.15 4.35" fill="#990000" fill-rule="evenodd" stroke="none"/>
    <path d="M5.15 4.35 L5.2 4.35 5.25 4.35 5.15 4.35 M-4.85 0.75 L-4.75 0.75 -4.8 0.8 -4.85 0.75 M-5.15 4.35 L-5.2 4.35 -5.15 4.35" fill="#595988" fill-rule="evenodd" stroke="none"/>
    <path d="M1.1 1.85 L1.05 1.75 1.15 1.85 1.1 1.85 M-1.1 1.85 L-1.05 1.75 -1.05 1.85 -1.1 1.85" fill="#754900" fill-rule="evenodd" stroke="none"/>
    <path d="M-11.75 -3.3 L-11.8 -3.3 -11.65 -3.3 -11.75 -3.3 M-2.95 -4.25 L-2.95 -4.35 -2.85 -4.35 -2.8 -4.35 -2.85 -4.3 -2.95 -4.25" fill="#666666" fill-rule="evenodd" stroke="none"/>
    <path d="M-14.4 -0.25 L-14.4 -0.2 -14.1 0.0 -14.4 -0.2 -14.4 -0.25" fill="#cc0000" fill-rule="evenodd" stroke="none"/>
    <path d="M-11.8 -3.3 L-11.95 -3.25 -12.5 -3.0 Q-13.45 -2.55 -14.05 -1.65 L-14.15 -1.4 -14.3 -1.4 Q-14.65 -0.9 -14.5 -0.4 L-14.5 -0.35 -14.55 -0.2 -14.55 -0.1 -14.55 0.0 -14.4 0.7 -14.45 0.2 -14.4 -0.1 -14.2 0.2 Q-13.8 0.65 -13.3 0.55 L-13.25 0.8 -13.1 1.35 -12.5 2.8 -12.4 3.0 -12.35 3.05 -11.8 3.25 -11.65 3.3 -11.5 3.35 -11.6 2.95 -11.85 2.35 -11.95 2.2 -12.25 0.65 -11.8 1.05 -11.4 1.25 -10.4 1.3 -10.3 1.25 -9.85 0.8 -9.75 1.5 -9.75 1.7 -9.75 1.8 -10.2 2.05 -9.7 1.8 -9.15 3.0 -8.95 3.4 -8.85 3.45 -8.8 3.45 -8.1 3.6 -8.1 3.65 -8.0 3.65 Q-8.05 3.1 -8.45 2.65 L-8.5 2.5 -8.3 2.65 -8.45 2.5 -8.85 1.2 -8.7 1.3 -7.8 1.8 -7.35 1.9 -6.3 1.7 -5.65 0.9 -5.45 1.75 -4.9 2.95 -4.2 3.95 -3.8 4.35 -3.75 4.4 -1.85 4.6 -1.65 4.65 -1.85 4.4 -2.4 3.8 -2.7 3.35 -3.1 3.05 -1.25 3.8 Q0.1 4.05 1.45 3.8 L2.1 3.6 2.55 3.2 2.6 3.2 2.7 3.2 3.2 3.7 3.35 4.2 3.25 4.3 3.6 3.95 4.4 3.05 4.6 2.3 4.85 1.75 6.5 1.6 7.3 0.9 7.35 0.85 7.35 0.95 7.65 2.7 7.7 3.0 7.95 3.5 8.15 3.45 8.2 3.45 9.3 3.3 9.25 3.25 8.85 2.35 8.8 2.25 8.75 1.95 8.75 1.9 8.75 1.8 8.75 1.75 8.55 1.15 8.85 1.2 9.15 1.15 9.55 1.05 Q10.45 0.65 10.8 -0.3 11.1 0.05 11.6 0.25 L11.65 0.25 Q12.35 0.45 13.1 0.25 L13.35 0.15 13.85 -0.15 14.25 -0.75 14.45 -0.8 14.35 -1.1 14.3 -1.35 14.3 -1.4 14.25 -1.5 13.9 -1.85 13.6 -2.2 13.05 -2.7 12.4 -3.1 12.3 -3.1 12.05 -3.1 11.05 -3.1 9.7 -3.15 9.55 -3.15 9.4 -3.05 9.4 -3.15 9.2 -3.15 9.1 -3.15 8.35 -3.25 8.1 -3.3 8.05 -3.3 7.9 -3.3 7.7 -3.35 Q7.15 -3.4 6.7 -3.6 L6.3 -3.7 5.8 -3.8 5.65 -3.85 3.5 -4.2 2.75 -4.45 2.85 -4.35 3.15 -3.9 3.6 -2.3 3.85 -0.55 3.35 0.7 3.0 1.4 Q2.65 1.8 2.75 2.2 L2.1 2.6 0.7 3.1 -0.6 2.95 -0.65 2.9 -0.7 2.9 -1.2 2.95 -1.5 2.9 -1.85 2.55 -2.65 2.1 Q-3.5 1.4 -3.75 0.35 -4.15 -1.0 -4.0 -2.4 L-3.95 -2.9 -3.75 -3.65 -3.45 -4.25 -3.5 -4.25 -3.75 -4.2 -4.9 -3.95 -5.25 -3.9 -5.65 -3.85 -5.8 -3.8 -6.3 -3.7 -6.8 -3.6 -7.4 -3.45 -8.15 -3.35 -8.35 -3.35 -8.6 -3.35 -8.95 -3.35 -8.95 -3.4 -9.0 -3.4 -9.1 -3.35 -9.65 -3.25 -11.75 -3.3 -11.65 -3.3 -11.8 -3.3 M-2.1 5.25 L-2.9 5.2 -3.1 5.2 -5.3 4.95 -5.35 4.95 -5.65 4.9 -6.2 4.8 -6.2 4.85 -7.0 4.55 -7.45 4.4 -8.3 4.2 -8.85 4.1 -8.95 4.05 -10.35 3.95 -10.35 4.0 -10.4 4.0 -11.45 3.85 -13.45 3.1 -13.65 2.95 -13.85 2.75 -14.25 2.25 Q-15.15 0.45 -14.55 -1.45 L-14.4 -1.75 Q-13.75 -2.9 -12.5 -3.3 L-11.6 -3.6 -11.55 -3.6 -11.05 -3.6 -9.45 -3.65 -9.4 -3.65 -8.4 -3.9 -8.15 -3.9 -7.4 -4.0 -6.95 -4.05 -6.8 -4.1 -5.95 -4.35 -5.35 -4.55 -4.75 -4.7 -4.5 -4.75 -4.3 -4.75 -3.85 -4.9 -3.6 -4.95 -3.55 -4.95 -3.3 -5.0 -2.15 -5.1 -0.4 -5.25 -0.25 -5.25 0.0 -5.25 0.3 -5.25 0.4 -5.25 1.6 -5.15 1.85 -5.1 2.15 -5.1 3.3 -5.0 3.85 -4.9 4.35 -4.75 4.75 -4.7 5.4 -4.55 5.95 -4.35 6.85 -4.1 6.95 -4.05 7.05 -4.05 7.4 -4.0 8.1 -3.9 9.2 -5.15 9.5 -5.5 9.9 -5.75 10.1 -5.85 Q10.85 -6.4 11.85 -6.55 L12.7 -6.3 12.85 -6.15 12.85 -6.1 12.8 -6.0 12.55 -5.75 12.0 -5.5 11.9 -5.45 Q10.85 -4.9 10.1 -4.0 L9.9 -3.65 9.9 -3.6 11.05 -3.6 11.4 -3.6 11.5 -3.75 13.45 -5.3 15.1 -5.75 16.05 -5.65 16.2 -5.55 16.25 -5.35 16.05 -5.05 15.6 -4.7 15.55 -4.65 15.25 -4.55 15.15 -4.4 Q14.05 -3.85 13.25 -2.95 L14.0 -2.35 15.15 -2.6 Q16.2 -2.65 17.0 -2.0 L17.15 -1.85 17.4 -1.0 17.35 -1.0 16.4 -0.85 14.8 -0.5 Q14.9 0.7 14.4 1.95 15.75 2.55 16.9 3.35 L17.35 3.8 17.4 3.9 17.05 4.15 16.35 4.25 15.35 4.1 13.1 3.5 12.8 3.35 Q12.3 3.5 11.9 3.7 L10.75 3.9 11.55 5.05 13.75 7.05 13.95 7.4 14.0 7.45 14.0 7.5 13.1 7.45 12.95 7.4 12.25 7.2 Q10.65 6.45 9.35 5.15 L8.7 4.45 8.5 4.15 8.45 4.15 7.45 4.4 7.0 4.55 6.25 4.85 6.2 4.8 5.65 4.9 5.4 4.95 5.3 4.95 1.2 5.3 0.5 5.3 0.3 5.3 0.0 5.3 -0.3 5.3 -1.65 5.3 -1.65 5.25 -2.1 5.25 M-14.5 -1.05 L-14.55 -1.1 -14.55 -1.05 -14.5 -1.05 M-9.1 -3.4 L-9.1 -3.45 -9.3 -3.45 -9.1 -3.4 M-2.45 -4.1 L-2.15 -4.3 -2.5 -4.1 -2.45 -4.1 M-0.05 -4.7 L-0.05 -4.6 -0.05 -4.7 M-2.95 -4.25 L-2.85 -4.3 -2.8 -4.35 -2.85 -4.35 -2.95 -4.35 -2.95 -4.25 M-2.65 -3.6 L-2.55 -3.75 -2.6 -3.75 -2.65 -3.6 M-1.3 -0.4 L-1.3 -0.55 -1.3 -0.4 M0.05 -4.7 L0.1 -4.6 0.1 -4.7 0.05 -4.7 M1.35 -0.4 L1.3 -0.55 1.3 -0.4 1.35 -0.4 M9.2 -3.45 L9.15 -3.45 9.15 -3.4 9.2 -3.45 M14.55 -1.05 L14.55 -1.1 14.55 -1.05 M13.85 2.8 L14.05 2.85 14.15 2.9 13.85 2.75 13.85 2.8 M13.7 1.75 L13.75 1.75 13.7 1.75 M5.15 4.35 L5.25 4.35 5.2 4.35 5.15 4.35 5.1 4.4 5.15 4.4 5.15 4.35 M0.95 1.65 L0.95 1.7 0.9 1.85 0.95 1.7 1.0 1.7 0.95 1.65 M1.1 1.85 L1.15 1.85 1.05 1.75 1.1 1.85 M1.1 4.35 L0.5 4.55 1.05 4.5 1.1 4.35 M-1.1 1.85 L-1.05 1.85 -1.05 1.75 -1.1 1.85 M-0.95 1.65 L-0.95 1.7 -0.9 1.85 -0.9 1.7 -0.95 1.65 M-6.8 2.65 L-6.75 2.65 -6.8 2.6 -6.8 2.65 M-5.15 4.35 L-5.15 4.4 -5.1 4.4 -5.15 4.35 -5.2 4.35 -5.15 4.35 M-13.45 2.25 L-13.8 1.8 -14.0 1.5 -13.95 1.6 -13.85 1.75 -12.95 2.7 -13.25 2.45 -13.45 2.25" fill="#000000" fill-rule="evenodd" stroke="none"/>
    <path d="M-11.8 -3.3 L-11.75 -3.3 -9.65 -3.25 -9.1 -3.35 -9.0 -3.4 -8.95 -3.4 -8.95 -3.35 -8.6 -3.35 -8.35 -3.35 -8.15 -3.35 -7.4 -3.45 -6.8 -3.6 -6.3 -3.7 -5.8 -3.8 -5.65 -3.85 -5.25 -3.9 -4.9 -3.95 -3.75 -4.2 -3.5 -4.25 -3.45 -4.25 -3.75 -3.65 -3.95 -2.9 -4.0 -2.4 Q-4.15 -1.0 -3.75 0.35 -3.5 1.4 -2.65 2.1 L-1.85 2.55 -1.5 2.9 -1.2 2.95 -0.7 2.9 -0.65 2.9 -0.6 2.95 0.7 3.1 2.1 2.6 2.75 2.2 Q2.65 1.8 3.0 1.4 L3.35 0.7 3.85 -0.55 3.6 -2.3 3.15 -3.9 2.85 -4.35 2.75 -4.45 3.5 -4.2 5.65 -3.85 5.8 -3.8 6.3 -3.7 6.7 -3.6 Q7.15 -3.4 7.7 -3.35 L7.9 -3.3 8.05 -3.3 8.1 -3.3 8.35 -3.25 9.1 -3.15 9.2 -3.15 9.4 -3.15 9.4 -3.05 9.55 -3.15 9.7 -3.15 11.05 -3.1 12.05 -3.1 12.3 -3.1 12.4 -3.1 13.05 -2.7 13.6 -2.2 13.9 -1.85 14.25 -1.5 14.3 -1.4 14.3 -1.35 14.35 -1.1 14.35 -1.15 14.3 -1.15 14.45 -0.8 14.25 -0.75 13.85 -0.15 13.35 0.15 13.1 0.25 Q12.35 0.45 11.65 0.25 L11.6 0.25 Q11.1 0.05 10.8 -0.3 10.45 0.65 9.55 1.05 L9.15 1.15 8.85 1.2 8.55 1.15 8.75 1.75 8.75 1.8 8.75 1.9 8.75 1.95 8.8 2.25 8.85 2.35 9.25 3.25 9.3 3.3 8.2 3.45 8.15 3.45 7.95 3.5 7.7 3.0 7.65 2.7 7.35 0.95 7.35 0.85 7.3 0.9 6.5 1.6 4.85 1.75 4.6 2.3 4.4 3.05 3.6 3.95 3.25 4.3 3.35 4.2 3.2 3.7 2.7 3.2 2.6 3.2 2.55 3.2 2.1 3.6 1.45 3.8 Q0.1 4.05 -1.25 3.8 L-3.1 3.05 -2.7 3.35 -2.4 3.8 -1.85 4.4 -1.65 4.65 -1.85 4.6 -3.75 4.4 -3.8 4.35 -4.2 3.95 -4.9 2.95 -5.45 1.75 -5.65 0.9 -6.3 1.7 -7.35 1.9 -7.8 1.8 -8.7 1.3 -8.85 1.2 -8.45 2.5 -8.3 2.65 -8.5 2.5 -8.45 2.65 Q-8.05 3.1 -8.0 3.65 L-8.1 3.65 -8.1 3.6 -8.8 3.45 -8.85 3.45 -8.95 3.4 -9.15 3.0 -9.7 1.8 -10.2 2.05 -9.75 1.8 -9.75 1.7 -9.75 1.5 -9.85 0.8 -10.3 1.25 -10.4 1.3 -11.4 1.25 -11.8 1.05 -12.25 0.65 -11.95 2.2 -11.85 2.35 -11.6 2.95 -11.5 3.35 -11.65 3.3 -11.8 3.25 -12.35 3.05 -12.4 3.0 -12.5 2.8 -13.1 1.35 -13.25 0.8 -13.3 0.55 Q-13.8 0.65 -14.2 0.2 L-14.4 -0.1 -14.45 0.2 -14.4 0.7 -14.55 0.0 -14.55 -0.1 -14.55 -0.2 -14.5 -0.35 -14.5 -0.4 Q-14.65 -0.9 -14.3 -1.4 L-14.15 -1.4 -14.05 -1.65 Q-13.45 -2.55 -12.5 -3.0 L-11.95 -3.25 -11.8 -3.3 M-14.4 -0.25 L-14.4 -0.2 -14.1 0.0 -14.4 -0.2 -14.4 -0.25 M-12.1 -2.4 Q-12.4 -2.15 -12.3 -1.75 L-12.3 -1.65 Q-11.9 -0.4 -10.7 -0.8 -9.5 -1.2 -10.0 -2.3 L-10.25 -2.55 -11.45 -2.7 -12.1 -2.4 M-8.75 -1.55 L-8.6 -1.0 Q-7.7 -0.15 -6.45 -0.6 -5.65 -0.9 -5.7 -1.7 -5.75 -3.15 -7.35 -3.0 -7.8 -3.0 -8.1 -2.6 L-8.35 -2.1 -8.75 -1.55 M-2.65 -3.6 L-2.6 -3.75 -2.55 -3.75 -2.65 -3.6 M7.1 -2.55 Q6.75 -3.3 5.85 -3.0 L5.15 -2.2 Q5.0 -1.85 5.2 -1.55 5.85 -0.5 6.8 -1.3 7.5 -1.85 7.1 -2.55 M7.6 0.3 L7.55 0.3 7.55 0.35 7.6 0.3 M1.1 4.35 L1.05 4.5 0.5 4.55 1.1 4.35 M-4.85 0.75 L-4.8 0.8 -4.75 0.75 -4.85 0.75 M-7.55 0.3 L-7.55 0.35 -7.55 0.3" fill="#003333" fill-rule="evenodd" stroke="none"/>
    <path d="M-12.1 -2.4 L-11.45 -2.7 -10.25 -2.55 -10.0 -2.3 Q-9.5 -1.2 -10.7 -0.8 -11.9 -0.4 -12.3 -1.65 L-12.3 -1.75 Q-12.4 -2.15 -12.1 -2.4 M-8.75 -1.55 L-8.35 -2.1 -8.1 -2.6 Q-7.8 -3.0 -7.35 -3.0 -5.75 -3.15 -5.7 -1.7 -5.65 -0.9 -6.45 -0.6 -7.7 -0.15 -8.6 -1.0 L-8.75 -1.55 M7.1 -2.55 Q7.5 -1.85 6.8 -1.3 5.85 -0.5 5.2 -1.55 5.0 -1.85 5.15 -2.2 L5.85 -3.0 Q6.75 -3.3 7.1 -2.55" fill="#606060" fill-rule="evenodd" stroke="none"/>
    <path d="M9.6 -5.25 L9.45 -5.1 Q9.25 -4.85 9.5 -4.55 9.7 -4.3 10.0 -4.35 9.5 -3.85 9.3 -3.15 L9.2 -3.0 9.2 -3.05 Q9.35 -3.65 8.8 -3.8 L8.65 -3.8 8.45 -3.65 Q8.8 -4.65 9.6 -5.25 M11.1 -5.25 L11.1 -5.3 Q11.1 -5.85 10.6 -5.85 L12.55 -6.05 12.0 -5.75 11.1 -5.25 M13.8 -5.15 L14.2 -5.4 14.75 -5.6 15.95 -5.4 15.85 -5.35 14.9 -4.6 14.65 -4.45 14.7 -4.55 Q14.85 -5.3 14.1 -5.3 L14.0 -5.25 13.95 -5.25 13.95 -5.2 13.9 -5.15 13.8 -5.15 M13.55 -3.7 L12.7 -3.05 12.15 -2.45 Q12.25 -2.95 11.7 -3.05 L11.7 -3.0 11.55 -3.0 12.15 -3.9 12.75 -4.5 12.75 -4.1 13.05 -3.8 13.55 -3.7 M12.6 -0.8 L12.55 -0.85 Q13.25 -1.85 14.35 -2.1 13.9 -1.7 14.25 -1.2 14.35 -1.05 14.5 -1.05 L14.7 -1.0 13.65 -0.5 Q13.2 -0.25 12.95 -0.35 L13.5 -0.4 13.5 -0.6 Q13.55 -1.1 13.1 -1.25 L12.9 -1.2 12.6 -0.8 M15.3 -2.15 L15.65 -2.1 Q16.55 -2.05 16.8 -1.4 L16.75 -1.2 15.65 -1.15 15.7 -1.25 15.75 -1.45 15.3 -2.15 M15.0 3.7 L15.15 3.6 15.2 3.5 15.3 3.0 15.75 3.15 16.2 3.4 Q17.1 3.9 16.1 3.85 L15.15 3.7 15.0 3.7 M13.95 2.35 Q13.7 2.3 13.55 2.5 13.2 2.95 13.55 3.3 L14.25 3.55 13.25 3.2 Q11.65 2.45 10.95 0.95 L11.6 0.8 11.9 0.65 12.75 1.6 13.95 2.35 M11.8 6.65 L11.95 6.6 12.15 6.15 11.9 5.9 12.65 6.55 13.6 7.25 12.55 6.95 11.8 6.65 M11.4 5.4 L11.3 5.3 11.1 5.3 Q10.65 5.4 10.55 5.75 9.2 4.55 8.5 2.8 8.2 2.05 8.45 1.1 L8.35 1.85 8.4 1.95 8.55 2.15 8.95 2.1 9.45 1.65 9.5 1.85 Q10.0 3.85 11.4 5.4" fill="#99cc99" fill-rule="evenodd" stroke="none"/>
    <path d="M9.6 -5.25 L9.85 -5.45 9.95 -5.5 10.0 -5.55 10.3 -5.7 10.6 -5.85 Q11.1 -5.85 11.1 -5.3 L11.1 -5.25 10.8 -5.1 10.0 -4.35 Q9.7 -4.3 9.5 -4.55 9.25 -4.85 9.45 -5.1 L9.6 -5.25 M13.8 -5.15 L13.9 -5.15 13.95 -5.2 13.95 -5.25 14.0 -5.25 14.1 -5.3 Q14.85 -5.3 14.7 -4.55 L14.65 -4.45 14.15 -4.1 14.0 -4.0 13.55 -3.7 13.05 -3.8 12.75 -4.1 12.75 -4.5 12.8 -4.5 13.8 -5.15 M14.7 -1.0 L14.5 -1.05 Q14.35 -1.05 14.25 -1.2 13.9 -1.7 14.35 -2.1 L15.3 -2.15 15.75 -1.45 15.7 -1.25 15.65 -1.15 15.55 -1.15 14.7 -1.0 M15.3 3.0 L15.2 3.5 15.15 3.6 15.0 3.7 14.95 3.7 14.25 3.55 13.55 3.3 Q13.2 2.95 13.55 2.5 13.7 2.3 13.95 2.35 L15.3 3.0 M11.9 5.9 L12.15 6.15 11.95 6.6 11.8 6.65 11.45 6.45 10.55 5.75 Q10.65 5.4 11.1 5.3 L11.3 5.3 11.4 5.4 11.9 5.9" fill="#ccff00" fill-rule="evenodd" stroke="none"/>
    <path d="M8.45 -3.65 L8.65 -3.8 8.8 -3.8 Q9.35 -3.65 9.2 -3.05 L9.2 -3.0 8.5 -2.15 8.35 -2.15 8.2 -2.55 Q8.25 -3.15 8.45 -3.65 M12.15 -2.45 L11.45 -1.7 11.15 -1.6 11.05 -1.9 11.2 -2.3 11.5 -3.0 11.55 -3.0 11.7 -3.0 11.7 -3.05 Q12.25 -2.95 12.15 -2.45 M12.6 -0.8 L12.9 -1.2 13.1 -1.25 Q13.55 -1.1 13.5 -0.6 L13.5 -0.4 12.95 -0.35 Q12.7 -0.45 12.6 -0.8 M11.9 0.65 L11.6 0.8 10.95 0.95 10.75 0.4 11.1 -0.3 11.7 0.2 11.9 0.65 M8.45 1.1 L8.45 1.05 8.5 0.9 8.55 0.9 8.65 0.85 9.0 0.9 9.3 1.35 9.45 1.65 8.95 2.1 8.55 2.15 8.4 1.95 8.35 1.85 8.45 1.1" fill="#009900" fill-rule="evenodd" stroke="none"/>
  </g>
</svg>
