<?xml version="1.0" encoding="UTF-8" standalone="no"?>
<svg xmlns:xlink="http://www.w3.org/1999/xlink" height="22.25px" width="34.65px" xmlns="http://www.w3.org/2000/svg">
  <g transform="matrix(1.0, 0.0, 0.0, 1.0, 18.55, 13.25)">
    <path d="M14.55 3.1 L14.6 3.1 14.55 3.1" fill="#23252e" fill-rule="evenodd" stroke="none"/>
    <path d="M15.25 -0.05 L15.4 0.4 15.2 -0.05 15.25 -0.05" fill="#993333" fill-rule="evenodd" stroke="none"/>
    <path d="M-0.45 -3.9 L-0.45 -3.85 -0.45 -3.9 M-0.35 -3.9 L-0.3 -3.9 -0.3 -3.85 -0.35 -3.9" fill="#cc9900" fill-rule="evenodd" stroke="none"/>
    <path d="M1.05 0.75 L1.05 0.6 1.05 0.75 M0.6 3.05 L0.65 3.0 0.7 3.05 0.65 3.05 0.6 3.2 0.6 3.05 M-1.8 0.6 L-1.8 0.75 -1.85 0.75 -1.8 0.6 M-1.45 3.05 L-1.4 3.0 -1.4 3.05 -1.35 3.2 -1.4 3.05 -1.45 3.05" fill="#996600" fill-rule="evenodd" stroke="none"/>
    <path d="M9.55 -2.55 L9.75 -2.6 9.55 -2.55 M-10.35 -2.55 L-10.55 -2.6 -10.35 -2.55" fill="#333933" fill-rule="evenodd" stroke="none"/>
    <path d="M-5.45 -3.55 L-4.95 -4.1 -4.8 -4.2 -4.75 -4.15 -4.95 -4.1 -5.15 -3.85 -5.45 -3.55 M3.45 -0.75 L3.5 0.5 3.5 0.55 Q3.4 0.85 3.45 1.1 L3.2 2.8 3.1 3.05 3.05 3.2 2.95 3.3 2.9 3.3 2.55 3.9 2.5 4.0 2.35 4.15 2.25 4.45 1.65 5.4 1.65 5.45 1.5 5.65 1.4 5.9 1.35 6.25 1.4 6.35 0.9 6.4 0.2 6.4 0.1 6.35 -0.05 6.35 -0.1 6.35 -0.4 6.35 -0.65 6.35 -0.7 6.35 -0.9 6.35 -1.0 6.4 -1.2 6.4 -1.65 6.4 -2.25 6.35 -2.3 6.35 -2.7 6.35 -2.8 6.25 -2.85 6.3 -3.3 6.35 Q-3.15 6.25 -3.25 6.05 L-3.35 5.85 Q-3.55 5.5 -3.85 5.3 L-4.85 4.5 -5.2 4.15 Q-5.85 3.5 -5.95 2.7 L-6.25 0.1 -6.1 -2.25 -6.05 -2.3 -5.75 -2.7 -5.75 -2.75 -4.8 -3.7 -4.75 -3.75 -4.75 -3.85 -4.7 -3.85 -4.6 -3.95 -4.5 -3.95 -4.65 -3.5 -4.7 -3.35 -4.8 -3.2 Q-4.8 -2.6 -5.3 -2.15 L-5.4 -2.15 -5.55 -0.8 -2.7 -1.3 Q-2.25 -1.75 -2.25 -2.35 L-2.2 -3.55 -2.2 -3.75 -1.15 -3.75 -1.05 -2.95 -1.0 -2.7 Q-1.0 -2.15 -0.6 -1.7 L-0.2 -1.15 -0.05 -1.1 3.45 -0.75 M5.4 -3.05 L5.5 -3.1 5.6 -3.15 6.0 -2.95 6.1 -2.9 6.65 -2.25 7.0 -1.1 7.25 -1.2 7.65 -1.65 7.85 -2.55 8.55 -2.45 8.65 -2.45 9.4 -2.35 9.95 -2.35 9.6 -1.8 9.35 -1.55 9.35 -1.45 9.2 -1.3 9.15 -1.25 Q8.7 -0.85 8.15 -0.85 L8.15 -0.8 8.0 -0.7 7.95 -0.65 7.9 -0.6 7.45 -0.35 7.05 -0.25 7.1 1.0 7.1 1.4 7.85 1.65 8.55 1.9 9.45 1.75 11.2 1.8 12.85 2.15 14.35 1.65 Q15.45 1.2 15.2 -0.05 L15.4 0.4 15.5 1.0 15.5 1.2 15.1 2.45 14.9 2.8 14.7 3.2 14.5 3.4 14.1 3.9 13.4 4.4 12.5 4.75 12.15 4.9 12.0 4.85 11.8 4.95 11.6 4.9 10.85 4.8 10.6 4.8 10.3 4.85 10.3 4.75 10.25 4.85 9.35 5.0 7.8 5.35 6.5 5.85 6.4 5.8 5.95 5.9 5.9 5.9 5.6 5.95 5.3 5.95 5.25 5.95 5.2 6.0 4.8 6.05 4.7 6.1 4.7 6.15 Q4.05 6.25 3.55 6.55 L3.5 6.5 3.55 6.45 4.05 6.0 4.75 5.15 5.45 4.25 5.9 2.95 6.35 1.45 Q6.55 0.8 6.2 0.35 L6.2 0.2 6.25 -0.2 Q6.35 -1.1 6.1 -1.8 L5.75 -2.55 5.65 -2.6 5.4 -3.0 5.4 -3.05 M13.0 -2.25 L13.25 -2.1 13.65 -1.9 14.75 -0.9 14.25 0.3 Q13.95 0.7 13.45 0.9 12.05 1.3 11.15 0.35 10.6 -0.2 10.85 -0.9 L11.35 -1.3 11.45 -1.35 Q12.1 -1.9 13.0 -2.0 L13.0 -2.25 M14.55 3.1 L14.6 3.1 14.55 3.1 M1.05 0.75 L1.05 0.6 1.05 0.75 M0.6 3.05 L0.6 3.2 0.65 3.05 0.7 3.05 0.65 3.0 0.6 3.05 M0.85 3.2 L0.75 3.1 0.8 3.2 0.85 3.2 M-15.9 -0.3 L-15.9 -0.05 -15.75 1.2 -15.65 1.45 -15.65 1.5 -15.6 1.55 -15.25 2.05 -15.25 2.0 -14.95 1.5 Q-15.2 0.9 -14.7 0.55 L-14.35 0.5 Q-13.4 0.55 -13.2 1.6 L-13.2 1.65 Q-11.9 1.7 -11.2 2.65 L-9.7 2.4 -9.5 1.9 -9.25 1.5 -8.65 0.55 -8.4 3.5 -8.35 3.65 -6.55 5.45 -6.05 5.9 -6.05 5.95 -6.1 5.95 -6.35 5.95 -6.45 5.95 -6.7 5.9 -7.15 5.8 -7.1 5.8 -7.5 5.75 -8.55 5.4 -11.0 4.8 -11.0 4.85 -11.05 4.75 -11.1 4.85 -11.25 4.85 -11.35 4.85 -11.4 4.85 -11.5 4.85 -12.0 4.9 -12.05 4.9 -12.35 4.9 -12.55 4.95 -12.8 4.85 -12.9 4.9 -13.25 4.75 -13.4 4.75 -14.4 4.25 -14.85 3.9 -15.45 3.2 -15.6 3.0 -15.7 2.8 -15.9 2.45 -16.25 1.2 -16.25 1.1 -16.25 1.0 -16.15 0.35 -16.0 -0.05 -15.9 -0.3 M-8.7 0.2 L-8.8 0.2 -9.7 -0.25 -10.05 -0.4 Q-10.85 -1.1 -10.65 -2.0 L-10.6 -2.1 -10.55 -2.45 -10.35 -2.45 -10.25 -2.5 -10.2 -2.3 Q-10.05 -1.55 -9.35 -1.0 -9.2 -0.75 -8.85 -0.7 L-8.7 -0.65 -8.7 0.2 M-12.2 -2.3 L-11.7 -1.7 Q-11.1 -0.1 -12.5 0.7 L-12.8 0.85 -12.85 0.9 Q-14.25 0.65 -14.2 -0.7 L-13.9 -1.0 Q-13.55 -1.2 -13.15 -1.0 L-13.15 -1.1 -13.1 -1.15 -13.1 -1.25 -13.15 -2.0 -13.0 -2.35 -12.3 -2.3 -12.2 -2.3 M-1.8 0.6 L-1.85 0.75 -1.8 0.75 -1.8 0.6 M-1.45 3.05 L-1.4 3.05 -1.35 3.2 -1.4 3.05 -1.4 3.0 -1.45 3.05 M-5.1 6.05 L-5.05 6.2 -5.15 6.2 -5.15 6.1 -5.1 6.05 M-1.6 3.2 L-1.55 3.2 -1.55 3.1 -1.6 3.2 M-16.15 0.95 L-15.8 1.2 -16.15 0.95" fill="#660000" fill-rule="evenodd" stroke="none"/>
    <path d="M15.5 0.05 L15.45 0.05 15.5 0.0 15.5 0.05 M-16.25 0.05 L-16.25 0.0 -16.25 0.05" fill="#a4a4ff" fill-rule="evenodd" stroke="none"/>
    <path d="M7.85 1.55 L7.9 1.55 7.85 1.55" fill="#a66600" fill-rule="evenodd" stroke="none"/>
    <path d="M-1.15 -3.75 L-0.7 -3.75 0.75 -3.8 2.5 -3.6 2.85 -3.2 3.4 -2.05 3.45 -0.75 -0.05 -1.1 -0.2 -1.15 -0.6 -1.7 Q-1.0 -2.15 -1.0 -2.7 L-1.05 -2.95 -1.15 -3.75 M-4.7 -3.35 L-4.55 -3.4 -3.6 -3.55 -3.6 -3.45 -3.55 -3.55 -3.3 -3.65 -2.25 -3.75 -2.2 -3.75 -2.2 -3.55 -2.25 -2.35 Q-2.25 -1.75 -2.7 -1.3 L-5.55 -0.8 -5.4 -2.15 -5.3 -2.15 Q-4.8 -2.6 -4.8 -3.2 L-4.7 -3.35 M6.0 -2.95 L6.1 -2.95 6.5 -2.85 7.05 -2.7 7.7 -2.55 7.85 -2.55 7.65 -1.65 7.25 -1.2 7.0 -1.1 6.65 -2.25 6.1 -2.9 6.0 -2.95 M9.95 -2.35 L10.55 -2.3 11.1 -2.25 12.45 -2.4 12.35 -2.4 12.5 -2.4 13.0 -2.25 13.0 -2.0 Q12.1 -1.9 11.45 -1.35 L11.35 -1.3 10.85 -0.9 Q10.6 -0.2 11.15 0.35 12.05 1.3 13.45 0.9 13.95 0.7 14.25 0.3 L14.75 -0.9 14.85 -0.75 14.95 -0.6 15.25 -0.05 15.2 -0.05 Q15.45 1.2 14.35 1.65 L12.85 2.15 11.2 1.8 9.45 1.75 8.55 1.9 7.85 1.65 7.1 1.4 7.1 1.0 7.05 -0.25 7.45 -0.35 7.9 -0.6 7.95 -0.65 8.0 -0.7 8.15 -0.8 8.15 -0.85 Q8.7 -0.85 9.15 -1.25 L9.2 -1.3 9.35 -1.45 9.35 -1.55 9.6 -1.8 9.95 -2.35 M5.25 5.95 L5.25 6.0 5.2 6.0 5.25 5.95 M5.4 -3.0 L5.35 -3.05 5.4 -3.05 5.4 -3.0 M7.85 1.55 L7.9 1.55 7.85 1.55 M-8.65 0.55 L-9.25 1.5 -9.5 1.9 -9.7 2.4 -11.2 2.65 Q-11.9 1.7 -13.2 1.65 L-13.2 1.6 Q-13.4 0.55 -14.35 0.5 L-14.7 0.55 Q-15.2 0.9 -14.95 1.5 L-15.25 2.0 -15.25 2.05 -15.6 1.55 -15.65 1.5 -15.65 1.45 -15.75 1.2 -15.9 -0.05 -15.9 -0.3 -15.7 -0.6 -15.2 -1.25 -14.6 -1.75 Q-14.35 -1.3 -13.75 -1.15 L-13.7 -1.2 Q-13.2 -1.7 -13.55 -2.3 L-13.25 -2.4 -13.2 -2.4 -13.0 -2.35 -13.15 -2.0 -13.1 -1.25 -13.1 -1.15 -13.15 -1.1 -13.15 -1.0 Q-13.55 -1.2 -13.9 -1.0 L-14.2 -0.7 Q-14.25 0.65 -12.85 0.9 L-12.8 0.85 -12.5 0.7 Q-11.1 -0.1 -11.7 -1.7 L-12.2 -2.3 -10.55 -2.45 -10.6 -2.1 -10.65 -2.0 Q-10.85 -1.1 -10.05 -0.4 L-9.7 -0.25 -8.8 0.2 -8.7 0.2 -8.7 0.35 -8.65 0.55 M-10.25 -2.5 L-10.2 -2.5 -10.15 -2.45 -9.8 -2.45 -9.55 -2.45 -9.3 -2.45 -8.45 -2.55 -8.05 -2.65 -8.2 -2.45 Q-8.7 -1.85 -8.7 -1.1 L-8.7 -0.65 -8.85 -0.7 Q-9.2 -0.75 -9.35 -1.0 -10.05 -1.55 -10.2 -2.3 L-10.25 -2.5 M-6.0 5.95 L-5.95 6.0 -6.0 6.0 -6.0 5.95" fill="#990000" fill-rule="evenodd" stroke="none"/>
    <path d="M5.3 5.95 L5.25 5.95 5.3 5.95 M-6.1 5.95 L-6.05 5.95 -6.0 5.95 -6.1 5.95" fill="#595988" fill-rule="evenodd" stroke="none"/>
    <path d="M0.85 3.2 L0.8 3.2 0.75 3.1 0.85 3.2 M-1.6 3.2 L-1.55 3.1 -1.55 3.2 -1.6 3.2" fill="#754900" fill-rule="evenodd" stroke="none"/>
    <path d="M-3.6 -3.55 L-3.55 -3.55 -3.6 -3.45 -3.6 -3.55 M-13.2 -2.4 L-13.25 -2.4 -13.15 -2.4 -13.2 -2.4" fill="#666666" fill-rule="evenodd" stroke="none"/>
    <path d="M-16.15 0.95 L-15.8 1.2 -16.15 0.95" fill="#cc0000" fill-rule="evenodd" stroke="none"/>
    <path d="M8.05 -13.15 L8.15 -13.2 8.2 -13.2 8.25 -13.25 Q9.75 -13.2 10.65 -12.05 L10.85 -11.7 Q11.8 -10.3 11.45 -8.6 11.15 -7.6 10.35 -6.7 L8.45 -6.65 8.0 -6.75 6.75 -6.9 5.35 -7.3 4.1 -7.7 3.2 -6.2 2.65 -6.2 2.6 -6.05 2.65 -6.05 3.05 -6.0 Q3.5 -6.0 3.7 -5.6 L4.35 -4.85 5.55 -3.75 6.1 -3.55 7.05 -3.25 7.2 -3.25 7.7 -3.15 8.55 -3.05 8.8 -3.05 9.85 -2.75 9.95 -2.75 11.65 -2.75 11.7 -2.75 12.4 -3.1 Q13.45 -3.55 14.4 -4.2 15.45 -4.2 15.3 -3.15 L14.95 -1.3 15.35 -0.7 15.5 -0.35 Q16.15 1.7 15.2 3.65 L14.95 3.95 Q15.7 4.9 16.05 6.1 16.25 6.8 15.6 7.05 L15.0 7.1 Q13.5 6.9 12.1 6.3 L11.65 6.1 10.1 5.55 9.4 5.65 7.75 6.0 7.25 6.2 6.4 6.5 6.4 6.45 5.8 6.55 5.5 6.6 5.4 6.6 5.3 6.6 5.3 7.0 5.2 7.2 5.0 7.6 4.65 8.35 -2.8 8.8 -5.35 8.6 -6.05 8.35 -6.3 8.1 -6.45 7.75 -6.85 6.5 -7.15 6.45 -7.2 6.5 Q-7.6 6.3 -8.05 6.2 L-8.5 6.0 -10.15 5.65 -11.7 5.5 -11.7 5.6 -11.75 5.6 -11.8 5.55 Q-12.6 6.35 -13.75 6.6 -14.45 6.8 -14.45 6.05 L-14.5 5.2 -14.5 4.8 -15.05 4.55 -15.3 4.45 -15.5 4.2 -15.95 3.65 -16.3 2.8 -16.5 2.7 -18.3 1.05 -18.45 0.65 Q-18.75 -0.2 -17.85 -0.4 L-16.35 -0.15 -16.3 -0.35 -16.15 -0.7 -15.3 -1.7 -15.35 -2.05 -15.25 -3.55 Q-15.1 -4.0 -14.65 -3.95 -13.85 -3.95 -13.25 -3.15 L-13.05 -2.95 -12.8 -2.75 -12.45 -2.75 -10.7 -2.75 -10.65 -2.75 -9.55 -3.05 -9.3 -3.05 -8.45 -3.15 -7.95 -3.25 -7.85 -3.25 -7.55 -3.35 -6.5 -4.55 -5.45 -5.7 -5.4 -5.75 -5.4 -5.8 -5.15 -5.9 -5.7 -5.9 -5.2 -6.05 -5.6 -6.7 -5.8 -7.05 -10.05 -6.3 Q-10.9 -6.15 -11.25 -6.8 L-12.0 -7.05 -12.8 -7.65 -12.85 -7.8 Q-13.4 -8.6 -13.25 -9.6 -13.05 -11.1 -11.8 -12.1 L-10.75 -12.8 -10.15 -12.9 -10.0 -12.85 -9.9 -12.85 Q-9.4 -12.65 -9.65 -12.1 L-9.7 -10.7 Q-9.55 -9.9 -9.0 -9.25 L-8.8 -9.2 -6.15 -9.3 -5.5 -9.45 -4.2 -9.3 -3.45 -8.65 -2.8 -7.05 -2.55 -6.35 -2.4 -6.35 -2.4 -5.9 -2.35 -5.9 -2.35 -6.35 -0.5 -6.45 -0.2 -6.55 -0.1 -6.55 0.6 -6.55 0.65 -6.7 1.0 -7.2 2.15 -9.15 Q2.35 -9.55 2.85 -9.55 L4.75 -9.45 5.8 -9.3 7.65 -9.3 Q8.25 -9.9 8.2 -10.7 L8.2 -11.0 7.85 -12.65 Q7.8 -13.0 8.05 -13.15 M9.5 -12.55 L8.2 -12.8 8.55 -12.15 8.5 -10.75 8.5 -10.25 8.45 -10.1 7.85 -9.3 7.6 -9.0 7.4 -8.9 4.95 -9.0 4.0 -9.05 2.75 -9.1 1.15 -6.5 2.6 -6.25 3.7 -7.95 4.2 -7.85 5.25 -7.7 8.85 -7.05 8.9 -7.05 9.3 -7.5 10.6 -7.75 Q11.2 -8.25 11.3 -9.05 11.35 -10.65 10.2 -12.0 L9.5 -12.55 M3.15 -5.25 L2.7 -5.4 2.45 -5.6 2.1 -5.75 1.9 -5.85 1.2 -5.9 0.8 -5.9 0.75 -5.9 0.6 -5.9 -0.4 -5.85 -1.7 -5.75 -2.4 -5.75 -3.05 -5.75 -3.4 -5.7 -3.5 -5.7 -3.7 -5.7 -4.25 -5.6 -4.35 -5.6 -4.45 -5.6 -4.6 -5.55 -4.75 -5.5 -4.85 -5.4 -5.15 -5.05 -5.25 -4.95 -5.7 -4.5 -5.9 -4.5 -6.25 -4.2 -6.35 -4.1 -6.4 -4.1 -6.7 -4.05 -6.95 -3.7 -6.95 -3.45 -7.05 -3.35 -7.2 -3.2 -7.35 -2.7 -7.45 -2.55 -7.7 -2.15 -7.8 -2.0 Q-8.2 -1.8 -8.2 -1.3 L-8.15 -1.15 -8.2 -1.0 -8.2 -0.85 -8.2 -0.7 -8.2 -0.65 -8.1 1.2 -8.1 1.3 -8.05 1.7 -8.25 2.5 -7.9 3.25 -7.75 3.6 -7.65 3.8 -6.3 5.05 -5.55 5.6 -5.45 5.7 -5.4 5.75 -5.2 5.9 -5.1 6.05 -5.15 6.1 -5.15 6.2 -5.05 6.2 -4.3 6.7 -3.9 6.65 -3.7 6.65 -3.6 6.55 -3.55 6.4 -3.6 6.4 -4.05 6.0 -4.2 5.85 -4.6 5.5 -4.95 5.15 -5.0 5.15 -5.3 4.85 -5.45 4.75 -5.65 4.6 -6.4 3.3 -6.45 2.9 -6.5 2.6 -6.55 1.6 -6.55 0.9 -6.55 -0.3 -6.55 -0.4 -6.55 -1.15 -6.55 -1.8 -6.4 -2.45 -5.95 -3.0 -5.65 -3.4 -5.55 -3.5 -5.45 -3.55 -5.15 -3.85 -4.95 -4.1 -4.75 -4.15 -4.7 -4.15 -4.45 -4.2 -4.45 -4.25 -4.3 -4.2 -4.0 -4.25 -2.75 -4.35 -0.8 -4.5 -0.7 -4.5 -0.4 -4.55 -0.1 -4.5 0.05 -4.5 1.95 -4.35 2.0 -4.35 2.3 -4.1 2.3 -4.05 2.35 -4.05 2.45 -3.9 2.5 -3.9 2.6 -3.85 2.8 -3.85 3.5 -3.2 3.85 -2.75 4.0 -2.6 4.15 -2.25 4.2 -2.15 4.2 -1.35 4.2 -1.2 4.2 -0.1 4.2 0.4 4.15 1.05 4.15 1.1 3.9 2.3 3.8 2.75 3.6 3.25 3.3 3.6 3.2 3.7 2.85 4.25 2.4 4.85 2.3 5.1 2.2 5.2 2.05 5.55 1.95 5.75 1.85 5.9 1.75 6.05 1.7 6.25 1.85 6.5 2.0 6.5 2.6 6.5 2.65 6.5 2.75 6.35 2.85 6.3 3.05 6.05 3.15 5.95 4.0 5.1 4.25 4.75 4.35 4.6 4.45 4.5 4.9 3.7 4.95 3.6 5.25 2.15 5.35 1.8 5.6 1.3 5.6 0.85 5.6 0.8 5.6 0.65 5.75 -1.35 5.75 -1.8 5.45 -2.2 5.35 -2.35 5.35 -2.4 5.3 -2.5 Q5.1 -2.65 5.05 -2.95 L5.0 -3.0 4.9 -3.5 4.9 -3.55 4.75 -3.75 4.6 -3.95 4.45 -4.15 4.3 -4.35 3.15 -5.25 M3.45 -0.75 L3.4 -2.05 2.85 -3.2 2.5 -3.6 0.75 -3.8 -0.7 -3.75 -1.15 -3.75 -2.2 -3.75 -2.25 -3.75 -3.3 -3.65 -3.55 -3.55 -3.6 -3.55 -4.55 -3.4 -4.7 -3.35 -4.65 -3.5 -4.5 -3.95 -4.6 -3.95 -4.7 -3.85 -4.75 -3.85 -4.75 -3.75 -4.8 -3.7 -5.75 -2.75 -5.75 -2.7 -6.05 -2.3 -6.1 -2.25 -6.25 0.1 -5.95 2.7 Q-5.85 3.5 -5.2 4.15 L-4.85 4.5 -3.85 5.3 Q-3.55 5.5 -3.35 5.85 L-3.25 6.05 Q-3.15 6.25 -3.3 6.35 L-2.85 6.3 -2.8 6.25 -2.7 6.35 -2.3 6.35 -2.25 6.35 -1.65 6.4 -1.2 6.4 -1.0 6.4 -0.9 6.35 -0.7 6.35 -0.65 6.35 -0.4 6.35 -0.1 6.35 -0.05 6.35 0.1 6.35 0.2 6.4 0.9 6.4 1.4 6.35 1.35 6.25 1.4 5.9 1.5 5.65 1.65 5.45 1.65 5.4 2.25 4.45 2.35 4.15 2.5 4.0 2.55 3.9 2.9 3.3 2.95 3.3 3.05 3.2 3.1 3.05 3.15 3.0 3.2 2.8 3.45 1.1 Q3.4 0.85 3.5 0.55 L3.5 0.5 3.45 -0.75 M6.0 -2.95 L5.6 -3.15 5.5 -3.1 5.4 -3.05 5.35 -3.05 5.4 -3.0 5.65 -2.6 5.75 -2.55 6.1 -1.8 Q6.35 -1.1 6.25 -0.2 L6.2 0.2 6.2 0.35 Q6.55 0.8 6.35 1.45 L5.9 2.95 5.45 4.25 4.75 5.15 4.05 6.0 3.55 6.45 3.5 6.5 3.55 6.55 Q4.05 6.25 4.7 6.15 L4.7 6.1 4.8 6.05 5.2 6.0 5.25 6.0 5.25 5.95 5.3 5.95 5.6 5.95 5.9 5.9 5.95 5.9 6.4 5.8 6.5 5.85 7.8 5.35 9.35 5.0 10.25 4.85 10.3 4.75 10.3 4.85 10.6 4.8 10.85 4.8 11.6 4.9 11.8 4.95 12.0 4.85 12.15 4.9 12.5 4.75 13.4 4.4 14.1 3.9 14.5 3.4 14.7 3.2 14.9 2.8 15.1 2.45 15.5 1.2 15.5 1.0 15.4 0.4 15.25 -0.05 14.95 -0.6 14.85 -0.75 14.75 -0.9 13.65 -1.9 13.25 -2.1 13.0 -2.25 12.5 -2.4 12.35 -2.4 12.45 -2.4 11.1 -2.25 10.55 -2.3 9.95 -2.35 9.4 -2.35 8.65 -2.45 8.55 -2.45 7.85 -2.55 7.7 -2.55 7.05 -2.7 6.5 -2.85 6.1 -2.95 6.0 -2.95 M9.55 -2.55 L9.75 -2.6 9.55 -2.55 M15.5 0.05 L15.5 0.0 15.45 0.05 15.5 0.05 M14.35 5.5 L13.7 4.8 12.75 5.2 14.35 5.5 M4.1 6.95 L3.7 7.05 3.65 7.05 3.5 7.05 3.45 7.05 3.4 7.0 3.25 7.0 3.2 6.95 3.2 6.9 3.05 6.95 3.0 7.0 2.95 7.1 2.95 7.15 2.9 7.15 2.9 7.2 2.85 7.25 Q2.1 7.45 1.85 6.95 L1.8 6.9 -0.05 7.0 -0.4 7.0 -0.7 7.0 -3.65 6.85 -3.85 7.05 -3.85 7.1 -5.15 6.7 -5.85 6.65 -6.15 6.6 -6.0 6.95 -5.9 7.15 -5.5 7.85 Q-5.15 8.2 -4.65 8.2 L3.45 8.2 4.3 7.45 4.75 6.8 4.5 6.8 4.1 6.95 M2.55 6.9 L2.65 6.9 2.65 6.85 2.55 6.9 M-8.95 -8.6 Q-11.1 -10.5 -9.7 -12.55 L-9.9 -12.55 -10.25 -12.5 Q-11.0 -12.4 -11.45 -11.95 L-11.65 -11.8 -11.7 -11.7 -11.95 -11.4 -12.0 -11.3 -12.7 -9.8 -12.7 -9.65 -12.8 -9.2 -12.8 -8.75 Q-12.75 -8.1 -12.25 -7.65 L-12.05 -7.45 -11.6 -7.4 -11.4 -7.35 -10.8 -7.25 -10.75 -7.15 -10.7 -7.1 -10.4 -6.75 -8.55 -7.1 -5.25 -7.7 -5.15 -7.5 -4.65 -6.75 -4.15 -6.0 -2.75 -6.25 -4.3 -8.85 -4.55 -8.85 -8.05 -8.65 -8.95 -8.6 M-15.9 -0.3 L-16.0 -0.05 -16.15 0.35 -16.25 1.0 -16.25 1.1 -16.25 1.2 -15.9 2.45 -15.7 2.8 -15.6 3.0 -15.45 3.2 -14.85 3.9 -14.4 4.25 -13.4 4.75 -13.25 4.75 -12.9 4.9 -12.8 4.85 -12.55 4.95 -12.35 4.9 -12.05 4.9 -12.0 4.9 -11.5 4.85 -11.4 4.85 -11.35 4.85 -11.25 4.85 -11.1 4.85 -11.05 4.75 -11.0 4.85 -11.0 4.8 -8.55 5.4 -7.5 5.75 -7.1 5.8 -7.15 5.8 -6.7 5.9 -6.45 5.95 -6.35 5.95 -6.1 5.95 -6.0 5.95 -6.0 6.0 -5.95 6.0 -6.0 5.95 -6.05 5.95 -6.05 5.9 -6.55 5.45 -8.35 3.65 -8.4 3.5 -8.65 0.55 -8.7 0.35 -8.7 0.2 -8.7 -0.65 -8.7 -1.1 Q-8.7 -1.85 -8.2 -2.45 L-8.05 -2.65 -8.45 -2.55 -9.3 -2.45 -9.55 -2.45 -9.8 -2.45 -10.15 -2.45 -10.2 -2.5 -10.25 -2.5 -10.35 -2.45 -10.55 -2.45 -12.2 -2.3 -12.3 -2.3 -13.0 -2.35 -13.2 -2.4 -13.15 -2.4 -13.25 -2.4 -13.55 -2.3 -14.5 -1.8 -14.6 -1.75 -15.2 -1.25 -15.7 -0.6 -15.9 -0.3 M-10.35 -2.55 L-10.55 -2.6 -10.35 -2.55 M-0.45 -3.9 L-0.45 -3.85 -0.45 -3.9 M-0.35 -3.9 L-0.3 -3.85 -0.3 -3.9 -0.35 -3.9 M-16.25 0.05 L-16.25 0.0 -16.25 0.05" fill="#000000" fill-rule="evenodd" stroke="none"/>
    <path d="M8.2 -12.8 L9.5 -12.55 9.75 -12.1 Q10.3 -11.4 10.35 -10.6 L9.95 -9.05 9.55 -8.55 8.5 -8.65 8.05 -9.0 7.85 -9.3 8.45 -10.1 8.45 -10.05 8.6 -9.6 Q8.8 -8.95 9.65 -9.2 10.3 -10.05 10.05 -11.05 9.85 -11.85 8.95 -11.85 L8.7 -11.65 8.55 -11.35 8.5 -10.75 8.55 -12.15 8.2 -12.8 M8.85 -7.05 L5.25 -7.7 5.2 -8.1 5.1 -8.45 4.95 -9.0 7.4 -8.9 7.6 -9.0 8.05 -8.15 8.85 -7.05 M3.15 -5.25 L3.05 -5.15 2.65 -4.85 1.35 -5.0 1.3 -5.0 1.3 -4.95 1.25 -4.9 1.1 -4.9 -2.4 -4.95 -3.0 -4.9 -3.3 -4.9 -3.4 -4.9 -3.7 -4.9 -3.75 -4.9 -4.3 -4.85 -4.85 -4.8 -5.15 -4.95 -5.25 -4.95 -5.15 -5.05 -4.85 -5.4 -4.75 -5.5 -4.6 -5.55 -4.45 -5.6 -4.35 -5.6 -4.25 -5.6 -3.7 -5.7 -3.5 -5.7 -3.4 -5.7 -3.05 -5.75 -2.4 -5.75 -1.7 -5.75 -0.4 -5.85 0.6 -5.9 0.75 -5.9 0.8 -5.9 1.2 -5.9 1.9 -5.85 2.1 -5.75 2.45 -5.6 2.7 -5.4 3.15 -5.25 M-6.25 -4.2 L-6.3 -4.05 -6.35 -4.1 -6.25 -4.2 M-6.0 -3.5 L-5.65 -3.4 -5.95 -3.0 -6.0 -3.1 -6.15 -3.25 -6.05 -3.35 -6.0 -3.5 M3.5 -3.2 L3.8 -3.35 4.1 -3.2 3.85 -2.75 3.5 -3.2 M4.3 -4.2 L4.3 -4.35 4.45 -4.15 4.6 -3.95 4.3 -4.2 M4.75 -3.75 L4.9 -3.55 4.9 -3.5 4.8 -3.5 4.75 -3.45 4.75 -3.75 M5.35 -2.4 L5.35 -2.35 5.45 -2.2 5.25 -2.35 5.35 -2.4 M5.6 0.8 L5.6 0.85 5.55 0.8 5.6 0.8 M4.95 3.6 L4.9 3.7 4.45 4.5 4.35 4.6 4.3 4.55 4.3 4.5 Q4.6 4.55 4.6 4.15 L4.8 3.95 4.85 3.65 4.8 3.6 4.95 3.6 M2.75 6.35 L2.65 6.5 2.6 6.5 2.0 6.5 1.85 6.5 1.7 6.25 1.75 6.05 1.85 5.9 1.95 5.75 2.05 5.55 2.05 5.65 2.35 6.05 2.4 6.15 2.75 6.35 M3.3 3.6 L3.6 3.25 3.8 2.75 4.25 3.2 4.4 3.35 4.55 3.45 4.45 3.45 4.4 3.45 4.3 3.55 4.3 3.6 3.9 4.1 3.3 3.6 M4.15 1.1 L4.15 1.05 4.2 0.4 4.8 0.75 4.8 0.95 4.7 1.15 4.7 1.2 4.15 1.1 M4.2 -1.2 L4.2 -1.35 4.2 -2.15 4.15 -2.25 4.35 -2.15 4.8 -2.15 Q4.6 -1.85 4.75 -1.5 L4.7 -1.5 4.2 -1.2 M3.2 2.8 L3.15 3.0 3.1 3.05 3.2 2.8 M2.55 6.9 L2.65 6.85 2.65 6.9 2.55 6.9 M-8.05 -8.65 L-4.55 -8.85 -4.55 -8.65 -4.55 -8.5 Q-4.65 -7.95 -5.15 -7.5 L-5.25 -7.7 -8.55 -7.1 Q-7.9 -7.7 -8.05 -8.6 L-8.05 -8.65 M-11.6 -7.4 L-12.05 -7.45 -12.25 -7.65 -12.2 -7.65 -12.0 -7.45 -11.6 -7.4 M-12.8 -9.2 L-12.7 -9.65 -12.65 -9.45 -12.25 -9.15 -11.8 -9.25 Q-11.05 -9.75 -11.0 -10.7 L-10.75 -11.0 Q-10.35 -11.65 -11.1 -11.8 L-11.1 -11.7 -11.5 -11.65 -11.95 -11.4 -11.7 -11.7 -11.65 -11.8 -11.45 -11.95 Q-11.2 -12.2 -10.8 -12.3 L-10.5 -11.85 -10.6 -11.25 Q-10.55 -10.6 -10.75 -9.85 L-11.25 -8.15 -11.35 -7.95 Q-12.35 -7.8 -12.6 -8.65 L-12.6 -8.85 -12.8 -9.2 M-7.05 -3.35 L-6.95 -3.45 -6.95 -3.35 -7.05 -3.35 M-7.8 -2.0 L-7.7 -2.15 -7.6 -2.0 -7.75 -2.0 -7.8 -2.0 M-7.85 -0.8 L-8.1 -0.75 -8.2 -0.7 -8.2 -0.85 -8.2 -1.0 -8.15 -1.15 -7.85 -0.8 M-7.2 1.8 L-6.55 1.6 -6.5 2.6 -6.45 2.9 -6.4 3.3 -6.45 2.95 -7.05 2.8 -7.1 2.5 -7.1 2.35 -7.2 1.8 M-6.55 -0.4 L-7.55 -0.8 -7.45 -0.8 -7.2 -1.2 -7.35 -1.85 -6.95 -1.75 -6.55 -1.8 -6.55 -1.15 -6.55 -0.4 M-5.0 5.15 L-5.15 5.15 -5.45 5.65 -5.45 5.7 -5.55 5.6 -6.3 5.05 -6.0 5.0 -5.95 4.9 -5.9 4.85 -5.85 4.75 -5.8 4.7 -5.7 4.65 -5.65 4.6 -5.45 4.75 -5.3 4.85 -5.0 5.15" fill="#999966" fill-rule="evenodd" stroke="none"/>
    <path d="M8.2 -12.8 L8.55 -12.15 8.2 -12.8 M7.85 -9.3 L8.05 -9.0 8.5 -8.65 9.55 -8.55 9.95 -9.05 10.35 -10.6 Q10.3 -11.4 9.75 -12.1 L9.5 -12.55 10.2 -12.0 Q11.35 -10.65 11.3 -9.05 11.2 -8.25 10.6 -7.75 L9.3 -7.5 8.9 -7.05 8.85 -7.05 8.05 -8.15 7.6 -9.0 7.85 -9.3 M4.2 -7.85 L3.7 -7.95 2.6 -6.25 1.15 -6.5 2.75 -9.1 4.0 -9.05 4.2 -8.45 4.2 -7.85 M-5.25 -4.95 L-5.15 -4.95 -4.85 -4.8 -4.3 -4.85 -3.75 -4.9 -3.7 -4.9 -3.4 -4.9 -3.3 -4.9 -3.0 -4.9 -2.4 -4.95 1.1 -4.9 1.25 -4.9 1.3 -4.95 1.3 -5.0 1.35 -5.0 2.65 -4.85 3.05 -5.15 3.15 -5.25 4.3 -4.35 4.3 -4.2 3.85 -4.4 3.55 -4.25 Q3.4 -4.05 3.5 -3.85 L3.8 -3.35 3.5 -3.2 2.8 -3.85 2.6 -3.85 2.5 -3.9 2.45 -3.9 2.35 -4.05 2.3 -4.05 2.3 -4.1 2.0 -4.35 1.95 -4.35 0.05 -4.5 -0.1 -4.5 -0.4 -4.55 -0.7 -4.5 -0.8 -4.5 -2.75 -4.35 -4.0 -4.25 -4.3 -4.2 -4.45 -4.25 -4.45 -4.2 -4.7 -4.15 -4.75 -4.15 -4.8 -4.2 -4.95 -4.1 -5.45 -3.55 -5.55 -3.5 -5.65 -3.4 -6.0 -3.5 Q-5.85 -3.9 -6.3 -4.05 L-6.25 -4.2 -5.9 -4.5 -5.7 -4.5 -5.25 -4.95 M4.9 -3.5 L5.0 -3.0 5.05 -2.95 Q5.1 -2.65 5.3 -2.5 L5.35 -2.4 5.25 -2.35 5.2 -2.4 5.05 -2.35 4.9 -2.3 4.8 -2.15 4.35 -2.15 4.15 -2.25 4.0 -2.6 3.85 -2.75 4.1 -3.2 4.6 -3.2 4.75 -3.45 4.8 -3.5 4.9 -3.5 M5.75 -1.35 L5.6 0.65 5.6 0.8 5.55 0.8 5.2 0.5 5.05 0.5 Q4.8 0.55 4.8 0.75 L4.2 0.4 4.2 -0.1 4.2 -1.2 4.7 -1.5 4.75 -1.5 4.95 -1.25 Q5.15 -1.0 5.45 -1.1 L5.75 -1.35 M5.35 1.8 L5.25 2.15 4.95 3.6 4.8 3.6 4.8 3.55 4.65 3.45 4.55 3.45 4.4 3.35 4.25 3.2 3.8 2.75 3.9 2.3 4.15 1.1 4.7 1.2 Q4.65 1.85 5.35 1.8 M4.35 4.6 L4.25 4.75 4.0 5.1 3.15 5.95 3.05 6.05 2.85 6.3 2.75 6.35 2.4 6.15 2.35 6.05 2.05 5.65 2.05 5.55 2.2 5.2 2.3 5.1 2.4 4.85 2.85 4.25 3.2 3.7 3.3 3.6 3.9 4.1 3.9 4.2 4.1 4.45 4.3 4.5 4.3 4.55 4.35 4.6 M4.1 6.95 L4.5 6.8 4.75 6.8 4.3 7.45 3.45 8.2 -4.65 8.2 Q-5.15 8.2 -5.5 7.85 L-5.9 7.15 -6.0 6.95 -6.15 6.6 -5.85 6.65 -5.15 6.7 -3.85 7.1 -3.85 7.05 -3.65 6.85 -0.7 7.0 -0.4 7.0 -0.05 7.0 1.8 6.9 1.85 6.95 Q2.1 7.45 2.85 7.25 L2.9 7.2 2.9 7.15 2.95 7.15 2.95 7.1 3.0 7.0 3.05 6.95 3.2 6.9 3.2 6.95 3.25 7.0 3.4 7.0 3.45 7.05 3.5 7.05 3.65 7.05 3.7 7.05 4.1 6.95 M-11.45 -11.95 Q-11.0 -12.4 -10.25 -12.5 L-9.9 -12.55 -9.7 -12.55 Q-11.1 -10.5 -8.95 -8.6 L-8.8 -8.6 -8.8 -8.45 Q-8.95 -7.5 -9.9 -7.05 L-10.2 -6.95 -10.7 -7.1 -10.75 -7.15 -10.8 -7.25 -11.4 -7.35 -11.6 -7.4 -12.0 -7.45 -12.2 -7.65 -12.25 -7.65 Q-12.75 -8.1 -12.8 -8.75 L-12.8 -9.2 -12.6 -8.85 -12.6 -8.65 Q-12.35 -7.8 -11.35 -7.95 L-11.25 -8.15 -10.75 -9.85 Q-10.55 -10.6 -10.6 -11.25 L-10.5 -11.85 -10.8 -12.3 Q-11.2 -12.2 -11.45 -11.95 M-4.55 -8.85 L-4.3 -8.85 -2.75 -6.25 -4.15 -6.0 -4.65 -6.75 -5.15 -7.5 Q-4.65 -7.95 -4.55 -8.5 L-4.55 -8.65 -4.55 -8.85 M-6.95 -3.35 Q-6.9 -2.95 -6.35 -3.05 L-6.15 -3.25 -6.0 -3.1 -5.95 -3.0 -6.4 -2.45 -6.55 -1.8 -6.95 -1.75 -7.35 -1.85 -7.55 -2.0 -7.6 -2.0 -7.7 -2.15 -7.45 -2.55 -7.35 -2.7 -7.2 -3.2 -7.05 -3.35 -6.95 -3.35 M-8.2 -0.7 L-8.1 -0.75 -7.85 -0.8 -7.55 -0.8 -6.55 -0.4 -6.55 -0.3 -6.55 0.9 -6.55 1.6 -7.2 1.8 -7.7 1.5 -7.95 1.6 -8.05 1.7 -8.1 1.3 -8.1 1.2 -8.2 -0.65 -8.2 -0.7 M-5.0 5.15 L-4.95 5.15 -4.6 5.5 -4.2 5.85 -4.05 6.0 -3.6 6.4 -3.55 6.4 -3.6 6.55 -3.7 6.65 -3.9 6.65 -4.3 6.7 -5.05 6.2 -5.1 6.05 -5.2 5.9 -5.4 5.75 -5.45 5.7 -5.45 5.65 -5.15 5.15 -5.0 5.15 M-7.05 2.8 L-6.45 2.95 -6.4 3.3 -5.65 4.6 -5.7 4.65 -5.8 4.7 -5.85 4.75 -5.9 4.85 -5.95 4.9 -6.0 5.0 -6.3 5.05 -7.65 3.8 -7.75 3.6 -7.9 3.25 -7.3 3.3 -7.05 2.8" fill="#996633" fill-rule="evenodd" stroke="none"/>
    <path d="M8.5 -10.75 L8.55 -11.35 8.7 -11.65 8.95 -11.85 Q9.85 -11.85 10.05 -11.05 10.3 -10.05 9.65 -9.2 8.8 -8.95 8.6 -9.6 L8.45 -10.05 8.45 -10.1 8.5 -10.25 8.5 -10.75 M5.25 -7.7 L4.2 -7.85 4.2 -8.45 4.0 -9.05 4.95 -9.0 5.1 -8.45 5.2 -8.1 5.25 -7.7 M-6.3 -4.05 Q-5.85 -3.9 -6.0 -3.5 L-6.05 -3.35 -6.15 -3.25 -6.35 -3.05 Q-6.9 -2.95 -6.95 -3.35 L-6.95 -3.45 -6.95 -3.7 -6.7 -4.05 -6.4 -4.1 -6.35 -4.1 -6.3 -4.05 M3.8 -3.35 L3.5 -3.85 Q3.4 -4.05 3.55 -4.25 L3.85 -4.4 4.3 -4.2 4.6 -3.95 4.75 -3.75 4.75 -3.45 4.6 -3.2 4.1 -3.2 3.8 -3.35 M5.45 -2.2 L5.75 -1.8 5.75 -1.35 5.45 -1.1 Q5.15 -1.0 4.95 -1.25 L4.75 -1.5 Q4.6 -1.85 4.8 -2.15 L4.9 -2.3 5.05 -2.35 5.2 -2.4 5.25 -2.35 5.45 -2.2 M5.6 0.85 L5.6 1.3 5.35 1.8 Q4.65 1.85 4.7 1.2 L4.7 1.15 4.8 0.95 4.8 0.75 Q4.8 0.55 5.05 0.5 L5.2 0.5 5.55 0.8 5.6 0.85 M4.8 3.6 L4.85 3.65 4.8 3.95 4.6 4.15 Q4.6 4.55 4.3 4.5 L4.1 4.45 3.9 4.2 3.9 4.1 4.3 3.6 4.3 3.55 4.4 3.45 4.45 3.45 4.55 3.45 4.65 3.45 4.8 3.55 4.8 3.6 M-8.95 -8.6 L-8.05 -8.65 -8.05 -8.6 Q-7.9 -7.7 -8.55 -7.1 L-10.4 -6.75 -10.7 -7.1 -10.2 -6.95 -9.9 -7.05 Q-8.95 -7.5 -8.8 -8.45 L-8.8 -8.6 -8.95 -8.6 M-12.7 -9.65 L-12.7 -9.8 -12.0 -11.3 -11.95 -11.4 -11.5 -11.65 -11.1 -11.7 -11.1 -11.8 Q-10.35 -11.65 -10.75 -11.0 L-11.0 -10.7 Q-11.05 -9.75 -11.8 -9.25 L-12.25 -9.15 -12.65 -9.45 -12.7 -9.65 M-7.8 -2.0 L-7.75 -2.0 -7.6 -2.0 -7.55 -2.0 -7.35 -1.85 -7.2 -1.2 -7.45 -0.8 -7.55 -0.8 -7.85 -0.8 -8.15 -1.15 -8.2 -1.3 Q-8.2 -1.8 -7.8 -2.0 M-8.05 1.7 L-7.95 1.6 -7.7 1.5 -7.2 1.8 -7.1 2.35 -7.1 2.5 -7.05 2.8 -7.3 3.3 -7.9 3.25 -8.25 2.5 -8.05 1.7" fill="#99cc99" fill-rule="evenodd" stroke="none"/>
    <path d="M-13.55 -2.3 Q-13.2 -1.7 -13.7 -1.2 L-13.75 -1.15 Q-14.35 -1.3 -14.6 -1.75 L-14.5 -1.8 -13.55 -2.3" fill="#ff6633" fill-rule="evenodd" stroke="none"/>
    <path d="M11.4 -1.8 L11.55 -1.4 12.05 -1.3 12.85 -1.95 Q13.6 -2.8 14.6 -3.2 L14.65 -3.2 14.7 -3.15 14.65 -2.65 13.85 -0.75 13.0 0.35 12.7 0.2 11.5 -0.7 10.9 -1.4 11.4 -1.8 M14.75 4.3 Q13.95 3.8 13.0 3.65 12.8 3.65 12.7 3.85 12.35 4.2 12.8 4.55 L13.7 5.1 15.15 6.2 15.3 6.4 15.0 6.35 11.85 5.5 11.6 5.4 Q11.25 5.2 10.9 5.1 L10.6 4.8 10.45 4.2 Q10.35 3.2 10.9 2.45 L12.85 2.8 13.45 3.0 14.25 3.7 14.75 4.3 M-14.2 -0.4 L-14.05 -0.4 -13.8 -0.6 Q-13.65 -1.25 -13.8 -1.95 L-14.0 -3.2 -13.2 -2.65 Q-11.6 -1.55 -12.05 0.0 L-13.0 0.2 Q-13.8 0.2 -14.2 -0.4 M-13.95 3.5 L-13.65 2.9 -13.05 2.35 -12.6 2.3 -11.45 3.05 -11.7 3.95 -12.3 5.05 Q-12.85 5.8 -13.65 5.95 L-13.2 4.4 -13.1 4.05 Q-12.9 3.4 -13.65 3.4 L-13.95 3.5 M-17.15 0.15 Q-15.4 0.1 -14.0 0.95 L-14.0 1.1 -14.1 2.15 -14.45 2.4 -15.1 2.4 -15.8 2.2 -16.45 1.7 -16.4 1.7 -16.15 1.2 -16.25 0.9 -17.15 0.15" fill="#cc0000" fill-rule="evenodd" stroke="none"/>
    <path d="M11.4 -1.8 L11.55 -1.95 12.05 -2.3 14.35 -3.6 14.65 -3.2 14.6 -3.2 Q13.6 -2.8 12.85 -1.95 L12.05 -1.3 11.55 -1.4 11.4 -1.8 M14.75 4.3 L14.8 4.3 15.05 4.55 15.2 5.35 15.5 5.85 15.55 6.3 15.4 6.4 15.3 6.4 15.15 6.2 13.7 5.1 12.8 4.55 Q12.35 4.2 12.7 3.85 12.8 3.65 13.0 3.65 13.95 3.8 14.75 4.3 M-14.2 -0.4 L-14.45 -0.95 -14.7 -2.4 -14.4 -3.5 -14.0 -3.2 -13.8 -1.95 Q-13.65 -1.25 -13.8 -0.6 L-14.05 -0.4 -14.2 -0.4 M-13.95 3.5 L-13.65 3.4 Q-12.9 3.4 -13.1 4.05 L-13.2 4.4 -13.65 5.95 -14.0 6.0 -14.1 6.0 -14.1 4.05 -14.1 3.85 -13.95 3.5 M-17.15 0.15 L-16.25 0.9 -16.15 1.2 -16.4 1.7 -16.45 1.7 Q-16.95 1.4 -17.5 1.2 L-18.05 0.65 -18.1 0.65 -18.05 0.6 -17.75 0.2 -17.65 0.2 -17.15 0.15" fill="#ff6633" fill-rule="evenodd" stroke="none"/>
  </g>
</svg>
