<?xml version="1.0" encoding="UTF-8" standalone="no"?>
<svg xmlns:xlink="http://www.w3.org/1999/xlink" height="12.65px" width="30.6px" xmlns="http://www.w3.org/2000/svg">
  <g transform="matrix(1.0, 0.0, 0.0, 1.0, 15.4, 5.6)">
    <path d="M5.0 3.6 L5.75 1.25 5.85 0.9 5.95 0.7 Q6.35 -0.8 6.3 -2.25 L6.25 -2.65 6.15 -2.95 5.85 -4.0 4.7 -4.25 4.4 -4.3 4.25 -4.35 4.0 -4.4 3.05 -4.55 3.35 -4.05 3.75 -2.25 Q4.2 -0.6 3.85 1.25 L3.45 2.35 2.25 3.25 0.85 3.85 Q-0.1 4.0 -0.55 3.6 L-1.1 3.65 -1.4 3.6 -2.4 2.6 -3.2 1.45 -3.65 0.0 -3.55 -1.5 -3.15 -3.35 -3.0 -3.75 Q-2.8 -4.2 -2.9 -4.45 L-2.8 -4.5 -2.75 -4.55 -2.35 -4.65 -2.8 -4.55 -2.9 -4.55 -3.35 -4.45 -2.95 -4.55 Q-3.15 -4.75 -3.55 -4.75 L-3.85 -4.6 -4.3 -4.3 -4.45 -4.25 -4.7 -4.2 -5.65 -4.0 -5.7 -4.0 -5.75 -3.45 -5.75 -3.4 -6.05 -2.9 -6.4 -2.1 -6.45 -0.4 -6.4 0.05 Q-6.25 0.45 -6.25 0.95 L-6.25 1.2 -6.1 2.2 -6.05 2.5 -6.0 2.65 -5.6 3.95 -5.45 4.4 -5.4 4.55 -5.1 5.25 -4.85 5.35 -4.4 5.4 -4.15 5.5 -4.05 5.5 -3.85 5.5 -3.55 5.55 -3.25 5.6 -2.55 5.75 -1.8 5.65 -2.0 5.65 -1.7 5.65 -1.6 5.65 -1.1 5.7 -0.6 5.7 -0.45 5.7 -0.35 5.65 -0.2 5.65 -0.15 5.65 0.1 5.65 0.4 5.65 0.45 5.65 0.6 5.65 0.7 5.7 1.3 5.7 3.25 5.6 3.75 5.55 4.05 5.5 4.1 5.5 4.2 5.4 4.2 5.35 4.35 5.05 4.65 4.5 5.0 3.6 M4.55 -5.0 L4.95 -4.95 5.6 -4.75 6.2 -4.55 6.45 -4.45 6.95 -4.75 7.2 -4.8 Q8.15 -5.05 8.7 -4.25 L9.05 -4.05 9.15 -3.85 9.7 -3.75 9.75 -3.75 11.4 -3.75 11.9 -3.75 11.9 -3.7 11.95 -3.7 12.3 -3.6 Q12.35 -4.05 12.7 -4.35 L12.8 -4.45 12.9 -4.35 12.95 -4.3 12.85 -3.4 12.9 -3.4 Q14.15 -2.9 14.85 -1.65 L15.0 -1.3 Q15.55 0.85 14.7 2.85 L14.25 3.4 14.05 3.65 13.85 3.8 12.25 4.5 11.1 4.75 10.7 4.8 9.25 4.9 8.45 5.05 8.1 5.75 6.9 6.75 4.7 6.95 4.3 6.75 3.95 6.3 3.9 6.25 3.85 6.2 3.85 6.1 0.45 6.3 0.1 6.3 -0.2 6.3 -5.05 5.95 -5.7 6.5 -5.8 6.55 -7.05 6.5 -7.5 6.35 -8.45 5.6 -8.85 4.95 -9.0 4.9 -10.45 4.8 -10.45 4.85 -10.5 4.85 -11.6 4.7 -13.4 3.9 -13.05 4.05 -13.35 4.45 -13.4 4.5 -13.7 4.4 -13.45 3.85 -13.6 3.8 -13.8 3.65 -14.0 3.4 -14.45 2.85 Q-15.15 1.25 -14.9 -0.45 L-15.05 -0.4 Q-15.5 -0.4 -15.4 -0.75 L-15.3 -0.9 -14.85 -0.7 -14.75 -1.3 -14.6 -1.65 -14.2 -2.25 -14.35 -2.65 -14.4 -2.75 -14.35 -2.8 -14.3 -2.85 -14.25 -2.9 -14.1 -2.85 -13.9 -2.55 -12.65 -3.4 -11.7 -3.7 -11.65 -3.7 -11.65 -3.75 -11.15 -3.75 -9.5 -3.75 -9.45 -3.75 -9.0 -3.85 -8.45 -4.5 Q-8.05 -5.0 -7.35 -4.9 -6.6 -4.95 -6.2 -4.45 L-5.95 -4.55 -5.35 -4.75 -4.7 -4.95 -4.3 -5.0 -3.25 -5.25 -2.05 -5.4 -0.3 -5.55 -0.15 -5.55 0.1 -5.6 0.4 -5.55 0.55 -5.55 2.3 -5.4 3.5 -5.25 4.55 -5.0 M0.05 -4.95 L0.05 -4.85 0.05 -4.95 M0.2 -4.95 L0.15 -4.95 0.2 -4.85 0.2 -4.95 M8.75 2.35 L8.8 2.2 8.85 1.6 Q8.8 1.3 8.9 1.1 L8.9 -0.55 8.9 -1.6 8.9 -1.95 8.9 -2.0 8.8 -2.65 8.75 -3.0 8.75 -3.25 8.45 -4.05 Q8.1 -4.45 7.5 -4.5 L7.3 -4.45 7.2 -4.35 7.1 -4.25 7.0 -4.05 6.95 -4.0 6.95 -3.6 7.0 -3.4 7.0 -3.35 7.05 -3.2 6.9 -1.85 6.85 -1.5 Q6.7 0.15 6.15 1.7 5.7 2.75 5.35 3.95 L5.2 4.3 4.8 5.4 4.9 5.35 4.8 5.6 Q4.7 5.8 4.75 6.0 L4.75 6.1 4.9 6.25 6.85 6.1 6.85 6.05 7.05 5.9 7.15 5.9 7.25 5.8 7.85 5.25 8.05 5.0 8.3 4.3 8.4 3.9 8.45 3.7 8.6 3.1 8.75 2.35 M1.45 -0.3 L1.45 -0.15 1.45 -0.3 M9.45 -3.55 L9.45 -3.5 9.6 -3.55 9.45 -3.55 M14.75 -0.95 L14.6 -1.2 Q14.2 -0.85 13.95 -1.3 13.8 -1.4 13.95 -1.5 L14.15 -1.65 14.35 -1.65 Q13.55 -2.95 12.15 -3.35 L12.05 -3.4 12.1 -3.35 10.3 -3.25 9.5 -3.3 Q9.95 -2.7 9.9 -1.75 L9.8 -0.1 9.65 1.25 9.5 1.65 9.45 1.75 9.45 2.15 9.4 2.5 9.3 2.8 8.7 4.35 10.05 4.1 10.1 4.0 10.1 4.1 10.35 4.05 11.3 4.15 11.5 4.2 11.7 4.1 11.85 4.15 12.15 4.0 Q13.0 3.8 13.65 3.1 L14.2 2.35 14.45 2.0 14.6 1.65 14.95 0.3 14.95 0.15 14.9 -0.45 14.75 -0.95 M13.45 1.95 Q13.3 1.75 13.5 1.4 L13.55 1.4 13.6 1.35 13.65 1.35 13.85 1.6 13.7 1.75 13.45 1.95 M11.9 -0.85 L11.85 -1.0 12.2 -1.2 12.4 -1.05 Q12.25 -0.5 11.9 -0.85 M14.95 -0.85 L14.95 -0.9 14.95 -0.85 M12.75 -0.2 Q13.2 -0.05 12.8 0.25 L12.65 0.3 12.5 0.05 12.65 -0.2 12.75 -0.2 M11.25 1.2 L11.15 1.3 Q10.7 1.25 11.0 0.8 11.0 0.65 11.15 0.7 L11.35 0.85 11.25 1.2 M1.05 2.25 L1.05 2.4 1.1 2.25 1.1 2.2 1.05 2.25 M1.25 2.4 L1.2 2.3 1.2 2.4 1.25 2.4 M-11.85 -3.35 L-11.8 -3.4 -11.9 -3.35 Q-13.4 -2.95 -14.2 -1.5 L-14.35 -1.2 -14.6 -0.55 -14.7 0.15 -14.7 0.2 -14.7 0.3 -14.6 1.0 -14.45 1.5 -14.35 1.65 -14.2 2.0 -13.95 2.35 -13.4 3.1 -11.9 4.0 -11.6 4.15 -11.45 4.1 -11.25 4.2 -11.05 4.15 -10.8 4.15 -10.7 4.15 -10.3 4.1 -10.2 4.1 -10.1 4.1 -10.05 4.1 -9.9 4.1 -9.85 4.0 -9.75 4.1 -9.8 4.05 -9.75 4.05 -8.95 4.2 -9.1 3.8 -9.1 3.7 -9.6 2.7 -9.75 1.9 -9.9 1.7 Q-10.15 0.2 -10.0 -1.2 L-9.5 -2.9 -9.5 -2.95 -9.3 -3.4 -11.85 -3.35 M-14.7 -0.9 L-14.7 -0.85 -14.7 -0.9 M-13.0 -1.1 L-12.9 -1.2 Q-12.4 -1.15 -12.6 -0.75 L-12.65 -0.7 Q-12.85 -0.65 -13.0 -0.9 L-13.0 -1.0 -13.0 -1.1 M-11.5 -2.2 Q-11.05 -2.05 -11.4 -1.5 -11.5 -1.35 -11.65 -1.5 -11.95 -1.65 -11.8 -1.95 L-11.5 -2.2 M-12.2 -0.1 Q-11.75 0.05 -12.1 0.4 L-12.3 0.4 Q-12.7 0.1 -12.3 -0.1 L-12.2 -0.1 M-10.85 -0.45 L-10.75 -0.45 -10.65 -0.3 -10.65 -0.25 -10.65 -0.15 -10.75 -0.1 -10.9 -0.1 -10.95 -0.15 -10.95 -0.3 -10.9 -0.45 -10.85 -0.45 M-6.6 -4.1 L-6.7 -4.3 -7.35 -4.5 Q-7.9 -4.45 -8.25 -4.05 L-8.35 -3.9 -8.55 -3.45 -8.55 -3.1 -8.6 -3.1 -8.7 -2.9 -8.9 -2.55 -9.25 -1.15 -9.35 -0.95 -9.5 0.95 -9.5 1.2 -9.4 1.65 -9.3 2.35 -9.25 2.65 -9.0 3.35 -8.9 3.65 -8.9 3.85 -8.85 4.0 -8.8 4.05 -8.65 4.3 -8.55 4.6 -8.35 4.95 -8.25 5.05 Q-7.65 5.8 -6.6 6.05 L-6.45 6.1 -5.85 5.95 -5.7 5.85 Q-5.5 5.65 -5.6 5.35 L-5.7 5.2 -5.6 5.2 -5.8 4.75 -5.85 4.7 -5.85 4.6 -6.15 3.85 -6.4 2.95 -6.5 2.65 -6.6 1.8 -6.8 0.75 -6.8 0.4 -6.9 -0.9 -6.9 -1.0 -6.85 -2.55 -6.85 -2.9 -6.85 -3.15 -6.85 -3.25 -6.8 -3.25 -6.6 -3.7 -6.6 -4.1 M-5.1 -0.3 L-5.1 -0.4 -4.95 -0.3 Q-4.75 -0.1 -5.05 0.05 L-5.2 0.15 -5.35 0.15 -5.35 0.05 -5.4 0.05 -5.4 0.0 -5.4 -0.1 -5.1 -0.3 M-2.45 -4.25 L-2.4 -4.25 -2.05 -4.5 -2.45 -4.25 M-1.2 -0.15 L-1.2 -0.3 -1.25 -0.15 -1.2 -0.15 M-0.8 2.4 L-0.8 2.25 -0.85 2.2 -0.85 2.25 -0.8 2.4 M-0.95 2.3 L-1.05 2.4 -1.0 2.4 -0.95 2.3 M-8.9 2.25 L-8.95 2.25 -8.9 2.25 M-6.8 3.25 L-6.8 3.35 -6.8 3.25 M-13.9 2.3 L-13.85 2.3 -13.9 2.3" fill="#23252e" fill-rule="evenodd" stroke="none"/>
    <path d="M-2.9 -4.45 Q-2.8 -4.2 -3.0 -3.75 L-3.15 -3.35 -3.55 -1.5 -3.65 0.0 -3.2 1.45 -2.4 2.6 -1.4 3.6 -1.1 3.65 -0.55 3.6 Q-0.1 4.0 0.85 3.85 L2.25 3.25 3.45 2.35 3.85 1.25 Q4.2 -0.6 3.75 -2.25 L3.35 -4.05 3.05 -4.55 4.0 -4.4 4.25 -4.35 4.4 -4.3 4.7 -4.25 5.85 -4.0 6.15 -2.95 6.25 -2.65 6.3 -2.25 Q6.35 -0.8 5.95 0.7 L5.85 0.9 5.75 1.25 5.0 3.6 4.65 4.35 3.35 4.55 1.9 4.5 0.5 4.5 -0.95 4.3 -2.1 3.7 -3.8 2.8 -3.85 2.8 -3.75 3.0 -3.75 3.1 -6.0 2.65 -6.05 2.5 -6.1 2.2 -6.25 1.2 -6.25 0.95 Q-6.25 0.45 -6.4 0.05 L-6.45 -0.4 -6.4 -2.1 -6.05 -2.9 -5.75 -3.4 -5.75 -3.45 -5.7 -4.0 -5.65 -4.0 -4.7 -4.2 -4.45 -4.25 -4.3 -4.3 -3.85 -4.6 -3.55 -4.75 Q-3.15 -4.75 -2.95 -4.55 L-3.35 -4.45 -2.9 -4.55 -2.9 -4.45 M8.75 2.35 L8.6 3.1 8.25 3.2 8.1 3.25 8.55 3.1 8.75 2.35 M9.3 2.8 L9.4 2.5 9.45 2.15 9.45 1.75 9.5 1.65 9.65 1.25 9.8 -0.1 9.9 -1.75 Q9.95 -2.7 9.5 -3.3 L10.3 -3.25 12.1 -3.35 12.05 -3.4 12.15 -3.35 Q13.55 -2.95 14.35 -1.65 L14.15 -1.65 13.95 -1.5 Q13.8 -1.4 13.95 -1.3 14.2 -0.85 14.6 -1.2 L14.75 -0.95 14.7 -0.95 14.9 -0.45 14.95 0.15 13.9 1.6 13.85 1.6 13.65 1.35 13.6 1.35 13.55 1.4 13.5 1.4 Q13.3 1.75 13.45 1.95 12.95 2.25 12.4 2.35 L11.45 2.55 9.45 2.75 9.3 2.8 M11.9 -0.85 Q12.25 -0.5 12.4 -1.05 L12.2 -1.2 11.85 -1.0 11.9 -0.85 M12.75 -0.2 L12.65 -0.2 12.5 0.05 12.65 0.3 12.8 0.25 Q13.2 -0.05 12.75 -0.2 M11.25 1.2 L11.35 0.85 11.15 0.7 Q11.0 0.65 11.0 0.8 10.7 1.25 11.15 1.3 L11.25 1.2 M-11.9 -3.35 L-11.85 -3.35 -9.3 -3.4 -9.5 -3.35 -9.55 -2.95 -9.5 -2.95 -9.5 -2.9 -10.0 -1.2 Q-10.15 0.2 -9.9 1.7 L-9.75 1.9 -9.6 2.7 -10.65 2.8 -12.65 2.65 Q-13.8 2.3 -14.4 1.15 L-14.6 0.75 -14.7 0.5 -14.6 1.0 -14.7 0.3 -14.7 0.2 -14.7 0.15 -14.6 -0.55 -14.35 -1.2 -14.2 -1.5 Q-13.4 -2.95 -11.9 -3.35 M-10.85 -0.45 L-10.9 -0.45 -10.95 -0.3 -10.95 -0.15 -10.9 -0.1 -10.75 -0.1 -10.65 -0.15 -10.65 -0.25 -10.65 -0.3 -10.75 -0.45 -10.85 -0.45 M-12.2 -0.1 L-12.3 -0.1 Q-12.7 0.1 -12.3 0.4 L-12.1 0.4 Q-11.75 0.05 -12.2 -0.1 M-11.5 -2.2 L-11.8 -1.95 Q-11.95 -1.65 -11.65 -1.5 -11.5 -1.35 -11.4 -1.5 -11.05 -2.05 -11.5 -2.2 M-13.0 -1.1 L-13.0 -1.0 -13.0 -0.9 Q-12.85 -0.65 -12.65 -0.7 L-12.6 -0.75 Q-12.4 -1.15 -12.9 -1.2 L-13.0 -1.1 M-9.5 0.95 L-9.3 1.7 -9.3 1.75 -9.2 2.05 -9.3 2.35 -9.4 1.65 -9.5 1.2 -9.5 0.95 M-5.1 -0.3 L-5.4 -0.1 -5.4 0.0 -5.4 0.05 -5.35 0.05 -5.35 0.15 -5.2 0.15 -5.05 0.05 Q-4.75 -0.1 -4.95 -0.3 L-5.1 -0.4 -5.1 -0.3 M-4.85 1.2 L-4.8 1.25 -4.75 1.2 -4.85 1.2 M-14.6 0.05 L-14.6 0.1 -14.25 0.3 Q-14.45 0.2 -14.6 0.05" fill="#990033" fill-rule="evenodd" stroke="none"/>
    <path d="M0.05 -4.95 L0.05 -4.85 0.05 -4.95 M0.2 -4.95 L0.2 -4.85 0.15 -4.95 0.2 -4.95" fill="#cc9900" fill-rule="evenodd" stroke="none"/>
    <path d="M4.65 4.35 L5.0 3.6 4.65 4.5 4.35 5.05 4.2 5.35 4.55 4.45 4.65 4.35 M1.45 -0.3 L1.45 -0.15 1.45 -0.3 M7.0 -4.05 L7.1 -4.25 7.2 -4.35 7.3 -4.45 7.5 -4.5 Q8.1 -4.45 8.45 -4.05 L8.75 -3.25 8.75 -3.0 8.8 -2.65 8.9 -2.0 8.9 -1.95 8.9 -1.6 8.9 -0.55 8.9 1.1 Q8.8 1.3 8.85 1.6 L8.8 2.2 8.75 2.35 8.55 3.1 8.1 3.25 8.25 3.2 8.6 3.1 8.45 3.7 Q8.3 3.7 8.2 3.8 7.7 4.5 6.85 4.6 L6.75 4.55 5.85 4.55 6.55 2.75 7.05 0.4 7.25 -1.2 Q7.45 -2.8 7.1 -4.25 L7.0 -4.05 M7.85 0.7 L7.8 0.7 7.85 0.7 M1.05 2.25 L1.1 2.2 1.1 2.25 1.05 2.4 1.05 2.25 M-9.3 -3.4 L-9.5 -2.95 -9.55 -2.95 -9.5 -3.35 -9.3 -3.4 M-6.6 -4.1 L-6.95 -3.45 Q-7.6 -1.9 -7.65 -0.2 L-7.6 0.4 Q-7.45 1.25 -7.45 2.05 L-7.3 3.2 -9.05 3.15 -9.05 3.2 -9.1 2.9 -9.15 2.6 -9.25 2.65 -9.3 2.35 -9.2 2.05 -9.3 1.75 -9.3 1.7 -9.5 0.95 -9.35 -0.95 -9.25 -1.15 -8.9 -2.55 -8.7 -2.9 -8.6 -3.1 -8.55 -3.1 -8.55 -3.45 -8.35 -3.9 -8.25 -4.05 Q-7.9 -4.45 -7.35 -4.5 L-6.7 -4.3 -6.6 -4.1 M-5.85 4.7 L-5.95 4.6 -5.85 4.6 -5.85 4.7 M-1.2 -0.15 L-1.25 -0.15 -1.2 -0.3 -1.2 -0.15 M-0.8 2.4 L-0.85 2.25 -0.85 2.2 -0.8 2.25 -0.8 2.4 M-8.9 2.25 L-8.95 2.25 -8.9 2.25" fill="#996600" fill-rule="evenodd" stroke="none"/>
    <path d="M9.45 -3.55 L9.6 -3.55 9.45 -3.5 9.45 -3.55" fill="#333933" fill-rule="evenodd" stroke="none"/>
    <path d="M8.45 3.7 L8.4 3.9 8.3 4.3 8.05 5.0 7.85 5.25 7.25 5.8 7.15 5.9 7.05 5.9 6.85 6.05 6.85 6.1 4.9 6.25 4.75 6.1 4.75 6.0 Q4.7 5.8 4.8 5.6 L4.9 5.35 4.8 5.4 5.2 4.3 5.35 3.95 Q5.7 2.75 6.15 1.7 6.7 0.15 6.85 -1.5 L6.9 -1.85 7.05 -3.2 7.0 -3.35 7.0 -3.4 6.95 -3.6 6.95 -4.0 7.0 -4.05 7.1 -4.25 Q7.45 -2.8 7.25 -1.2 L7.05 0.4 6.55 2.75 5.85 4.55 6.75 4.55 6.85 4.6 Q7.7 4.5 8.2 3.8 8.3 3.7 8.45 3.7 M-9.05 3.2 L-9.05 3.15 -7.3 3.2 -7.45 2.05 Q-7.45 1.25 -7.6 0.4 L-7.65 -0.2 Q-7.6 -1.9 -6.95 -3.45 L-6.6 -4.1 -6.6 -3.7 -6.8 -3.25 -6.85 -3.25 -6.85 -3.15 -6.85 -2.9 -6.85 -2.55 -6.9 -1.0 -6.9 -0.9 -6.8 0.4 -6.8 0.75 -6.6 1.8 -6.5 2.65 -6.4 2.95 -6.15 3.85 -5.85 4.6 -5.95 4.6 -5.85 4.7 -5.8 4.75 -5.6 5.2 -5.7 5.2 -5.6 5.35 Q-5.5 5.65 -5.7 5.85 L-5.85 5.95 -6.45 6.1 -6.6 6.05 Q-7.65 5.8 -8.25 5.05 L-8.35 4.95 -8.55 4.6 -8.65 4.3 -8.8 4.05 -8.8 4.0 -8.9 3.65 -9.0 3.35 -9.0 3.25 -9.05 3.2 M-6.8 3.25 L-6.8 3.35 -6.8 3.25" fill="#663300" fill-rule="evenodd" stroke="none"/>
    <path d="M14.95 -0.85 L14.95 -0.9 14.95 -0.85 M-14.7 -0.9 L-14.7 -0.85 -14.7 -0.9" fill="#a4a4ff" fill-rule="evenodd" stroke="none"/>
    <path d="M14.9 -0.45 L14.7 -0.95 14.75 -0.95 14.9 -0.45" fill="#993333" fill-rule="evenodd" stroke="none"/>
    <path d="M-6.0 2.65 L-3.75 3.1 -3.75 3.0 -3.85 2.8 -3.8 2.8 -2.1 3.7 -0.95 4.3 0.5 4.5 1.9 4.5 3.35 4.55 4.65 4.35 4.55 4.45 4.2 5.35 4.2 5.4 4.1 5.5 4.05 5.5 3.75 5.55 3.25 5.6 1.3 5.7 0.7 5.7 0.6 5.65 0.45 5.65 0.4 5.65 0.1 5.65 -0.15 5.65 -0.2 5.65 -0.35 5.65 -0.45 5.7 -0.6 5.7 -1.1 5.7 -1.6 5.65 -1.7 5.65 -2.0 5.65 -1.8 5.65 -2.55 5.75 -3.25 5.6 -3.55 5.55 -3.85 5.5 -4.05 5.5 -4.15 5.5 -4.4 5.4 -4.85 5.35 -5.1 5.25 -5.4 4.55 -5.45 4.4 -5.6 3.95 -6.0 2.65 M9.3 2.8 L9.45 2.75 11.45 2.55 12.4 2.35 Q12.95 2.25 13.45 1.95 L13.7 1.75 13.85 1.6 13.9 1.6 14.95 0.15 14.95 0.3 14.6 1.65 14.45 2.0 14.2 2.35 13.65 3.1 Q13.0 3.8 12.15 4.0 L11.85 4.15 11.7 4.1 11.5 4.2 11.3 4.15 10.35 4.05 10.1 4.1 10.1 4.0 10.05 4.1 8.7 4.35 9.3 2.8 M-9.6 2.7 L-9.1 3.7 -9.1 3.8 -8.95 4.2 -9.75 4.05 -9.8 4.05 -9.75 4.1 -9.85 4.0 -9.9 4.1 -10.05 4.1 -10.1 4.1 -10.2 4.1 -10.3 4.1 -10.7 4.15 -10.8 4.15 -11.05 4.15 -11.25 4.2 -11.45 4.1 -11.6 4.15 -11.9 4.0 -13.4 3.1 -13.95 2.35 -14.2 2.0 -14.35 1.65 -14.45 1.5 -14.6 1.0 -14.7 0.5 -14.6 0.75 -14.4 1.15 Q-13.8 2.3 -12.65 2.65 L-10.65 2.8 -9.6 2.7 M-9.25 2.65 L-9.15 2.6 -9.1 2.9 -9.05 3.2 -9.0 3.25 -9.0 3.35 -9.25 2.65 M-8.9 3.65 L-8.8 4.0 -8.8 4.05 -8.85 4.0 -8.9 3.85 -8.9 3.65 M-13.9 2.3 L-13.85 2.3 -13.9 2.3" fill="#660033" fill-rule="evenodd" stroke="none"/>
    <path d="M7.85 0.7 L7.8 0.7 7.85 0.7" fill="#a66600" fill-rule="evenodd" stroke="none"/>
    <path d="M1.25 2.4 L1.2 2.4 1.2 2.3 1.25 2.4 M-0.95 2.3 L-1.0 2.4 -1.05 2.4 -0.95 2.3" fill="#754900" fill-rule="evenodd" stroke="none"/>
    <path d="M-2.9 -4.45 L-2.9 -4.55 -2.8 -4.55 -2.35 -4.65 -2.75 -4.55 -2.8 -4.5 -2.9 -4.45 M-11.9 -3.35 L-11.8 -3.4 -11.85 -3.35 -11.9 -3.35" fill="#666666" fill-rule="evenodd" stroke="none"/>
    <path d="M-2.45 -4.25 L-2.05 -4.5 -2.4 -4.25 -2.45 -4.25" fill="#660000" fill-rule="evenodd" stroke="none"/>
    <path d="M-4.85 1.2 L-4.75 1.2 -4.8 1.25 -4.85 1.2" fill="#595988" fill-rule="evenodd" stroke="none"/>
    <path d="M-14.6 0.05 Q-14.45 0.2 -14.25 0.3 L-14.6 0.1 -14.6 0.05" fill="#cc0000" fill-rule="evenodd" stroke="none"/>
  </g>
</svg>
