<?xml version="1.0" encoding="UTF-8" standalone="no"?>
<svg xmlns:xlink="http://www.w3.org/1999/xlink" height="12.1px" width="29.65px" xmlns="http://www.w3.org/2000/svg">
  <g transform="matrix(1.0, 0.0, 0.0, 1.0, 16.1, 6.1)">
    <path d="M-3.4 5.95 L-4.2 5.9 -4.4 5.85 -6.6 5.6 -6.65 5.6 -6.95 5.55 -7.5 5.45 -8.3 5.15 -8.75 5.0 -9.6 4.75 -10.15 4.6 -10.25 4.6 -11.65 4.45 -11.65 4.55 -11.7 4.55 -12.75 4.35 -14.75 3.45 -14.95 3.3 -15.15 3.05 -15.55 2.5 Q-16.45 0.45 -15.85 -1.7 L-15.7 -2.1 Q-15.05 -3.35 -13.8 -3.85 L-12.9 -4.2 -12.85 -4.2 -12.35 -4.2 -10.75 -4.25 -10.7 -4.25 -9.7 -4.55 -9.45 -4.55 -8.7 -4.65 -8.25 -4.75 -8.1 -4.75 -7.25 -5.05 -6.65 -5.3 -6.05 -5.45 -5.8 -5.5 -5.6 -5.55 -5.15 -5.7 -4.9 -5.75 -4.85 -5.75 -4.6 -5.8 -3.45 -5.9 -1.7 -6.1 -1.55 -6.1 -1.3 -6.1 -1.0 -6.1 -0.9 -6.1 0.3 -5.95 0.55 -5.95 0.85 -5.9 2.0 -5.8 2.55 -5.7 3.05 -5.55 3.45 -5.45 4.1 -5.3 4.65 -5.05 5.55 -4.75 5.65 -4.75 5.75 -4.7 6.1 -4.65 6.5 -4.55 6.7 -4.5 7.2 -4.4 7.15 -4.3 7.3 -4.35 7.8 -4.25 8.2 -4.2 9.25 -4.1 10.4 -3.85 11.4 -3.55 11.75 -3.45 12.3 -3.1 12.85 -2.4 12.9 -2.3 13.4 -1.25 13.55 -0.7 13.5 -0.65 Q13.6 0.75 13.1 2.15 L13.15 2.2 12.8 2.7 12.1 3.4 11.85 3.55 11.5 3.8 11.5 3.75 10.6 4.2 10.15 4.3 9.45 4.25 9.3 4.3 8.95 4.3 8.8 4.3 7.8 4.45 6.95 4.75 6.15 5.0 5.7 5.15 4.95 5.45 4.9 5.45 4.35 5.55 4.1 5.6 4.0 5.6 -0.1 6.0 -0.8 6.0 -1.0 6.0 -1.3 6.0 -1.6 6.0 -2.95 6.0 -2.95 5.95 -3.4 5.95 M-15.7 -0.35 L-15.7 -0.3 -15.4 -0.1 -15.7 -0.3 -15.7 -0.35 M-15.85 -1.3 L-15.8 -1.3 -15.85 -1.3 M-10.4 -4.0 L-10.6 -4.05 -10.4 -4.0 M-15.05 0.9 L-14.9 1.55 Q-14.45 2.75 -13.3 3.05 L-12.95 3.3 -12.2 3.4 Q-11.65 3.15 -11.8 2.45 L-12.0 1.55 -12.15 0.85 -12.2 0.05 -12.15 -0.6 -12.1 -2.3 Q-12.05 -3.1 -12.7 -3.25 L-13.0 -3.2 -13.05 -3.2 -13.25 -3.15 -13.35 -3.05 -13.7 -2.95 -14.35 -2.45 -14.8 -1.85 -14.9 -1.5 -14.95 -1.45 -15.0 -1.3 -15.0 -1.2 -15.05 -1.1 -15.15 0.45 -15.05 0.9 M-13.1 -3.85 L-13.05 -3.85 -12.95 -3.85 -13.1 -3.85 M-8.3 -3.25 L-8.4 -3.5 -8.55 -3.6 -10.05 -3.75 -11.3 -3.05 -11.5 -2.75 -11.65 -2.45 -11.65 -2.4 -11.7 -1.95 -11.75 -0.75 -11.6 0.7 -11.0 2.5 -10.95 2.75 Q-10.65 4.05 -9.45 4.15 L-8.9 4.25 -8.55 4.4 -7.45 4.45 -7.4 4.3 -7.25 3.9 Q-7.25 3.0 -7.7 2.25 L-7.95 1.7 -8.3 0.1 -8.35 -0.3 Q-8.5 -1.25 -8.25 -2.25 L-8.3 -3.25 M-5.35 -4.8 L-5.85 -4.7 -6.2 -4.6 -6.25 -4.6 -6.5 -4.55 -6.6 -4.35 -6.65 -4.2 -7.05 -3.35 -7.3 -2.35 -7.35 -2.05 -7.35 -1.9 -7.4 -1.65 -7.45 -0.6 -7.45 -0.55 -7.3 0.85 -7.2 1.45 -7.15 1.65 Q-6.9 3.1 -5.7 3.55 L-5.45 3.65 -4.6 3.9 -0.35 4.2 0.3 4.1 0.4 4.1 0.45 4.1 0.65 4.05 0.7 4.05 2.6 3.65 Q4.1 3.3 4.35 1.65 4.7 -0.35 4.2 -2.25 L3.75 -3.6 3.65 -3.85 3.6 -3.9 3.35 -4.5 3.3 -4.6 3.15 -4.6 2.8 -4.7 2.2 -4.9 2.15 -4.9 2.05 -4.95 1.5 -5.15 1.45 -5.15 1.55 -5.05 1.75 -4.8 1.7 -4.8 1.6 -5.0 1.55 -5.0 1.4 -5.05 0.35 -5.2 -1.9 -5.2 -4.1 -5.05 -4.15 -5.05 -4.25 -5.05 -4.25 -5.0 -4.45 -5.0 -4.8 -4.95 -4.75 -4.95 -4.8 -4.95 -5.05 -4.9 -5.35 -4.8 M-1.2 -5.45 L-1.25 -5.45 -1.2 -5.35 -1.2 -5.45 M-1.35 -5.45 L-1.35 -5.35 -1.35 -5.45 M5.0 -3.5 L4.9 -2.8 5.05 -1.8 5.05 -1.3 5.05 -0.7 5.0 0.55 4.85 1.1 4.6 2.4 Q4.45 2.9 4.45 3.5 L4.65 4.0 Q5.25 4.55 6.05 4.2 L6.15 4.05 Q6.9 4.1 7.4 3.55 8.15 2.75 8.4 1.5 L8.6 -0.1 Q8.7 -1.1 8.35 -1.95 L7.35 -3.35 6.5 -3.75 5.8 -3.95 5.65 -3.9 5.25 -3.75 5.0 -3.5 M10.9 -3.0 L9.9 -3.1 9.6 -3.05 Q9.25 -2.9 9.15 -2.4 L9.15 -2.15 9.1 -1.9 9.1 -1.85 9.05 -1.45 9.05 -1.35 9.0 -1.0 9.0 -0.65 9.2 0.05 9.1 0.25 8.9 1.3 8.85 1.7 Q8.6 2.35 9.0 3.0 L9.2 3.15 10.6 3.05 10.65 3.05 Q10.85 2.85 11.15 2.8 L11.2 2.8 11.4 2.5 11.45 2.45 11.65 2.25 12.25 1.25 12.45 0.7 12.5 0.4 12.55 -0.3 12.55 -0.6 12.45 -1.45 11.95 -2.2 11.05 -2.95 10.9 -3.0 M10.45 -3.55 L10.4 -3.55 10.4 -3.5 10.45 -3.55 M12.4 1.9 L12.4 1.95 12.45 1.9 12.4 1.9 M1.45 2.4 L1.45 2.45 1.45 2.35 1.45 2.4 M3.85 4.95 L3.8 4.95 3.85 4.95 3.95 4.95 3.9 4.9 3.85 4.95 M-7.2 1.45 L-7.35 1.65 -7.2 1.45 M-6.45 4.95 L-6.4 4.95 -6.45 4.95 -6.45 4.9 -6.5 4.95 -6.45 4.95 M-15.1 2.0 L-15.15 1.95 -14.25 3.05 -14.55 2.75 -14.75 2.5 -15.1 2.0 M-15.0 1.9 L-15.0 1.95 -15.0 1.9" fill="#000000" fill-rule="evenodd" stroke="none"/>
    <path d="M-15.85 -1.3 L-15.8 -1.3 -15.85 -1.3" fill="#a4a4ff" fill-rule="evenodd" stroke="none"/>
    <path d="M-15.05 0.9 L-14.8 0.9 -14.65 0.75 Q-14.45 0.0 -14.4 -0.85 -14.35 -1.6 -13.9 -2.2 L-13.1 -3.2 -13.05 -3.2 -13.0 -3.2 -12.7 -3.25 Q-12.05 -3.1 -12.1 -2.3 L-12.15 -0.6 -12.2 0.05 -12.15 0.85 -12.0 1.55 -11.8 2.45 Q-11.65 3.15 -12.2 3.4 L-12.95 3.3 -13.3 3.05 Q-14.45 2.75 -14.9 1.55 L-15.05 0.9 M-11.6 0.7 L-11.25 0.7 -11.05 0.35 -11.0 -2.1 -10.95 -2.15 Q-9.95 -2.8 -8.8 -3.1 L-8.75 -3.15 -8.35 -3.2 -8.3 -3.25 -8.25 -2.25 Q-8.5 -1.25 -8.35 -0.3 L-8.3 0.1 -7.95 1.7 -7.7 2.25 Q-7.25 3.0 -7.25 3.9 L-7.4 4.3 -7.45 4.45 -8.55 4.4 -8.9 4.25 -9.45 4.15 Q-10.65 4.05 -10.95 2.75 L-11.0 2.5 -11.6 0.7 M-4.8 -4.95 L-4.85 -4.8 -5.2 -4.8 -5.3 -4.75 -5.35 -4.8 -5.05 -4.9 -4.8 -4.95 -4.75 -4.95 -4.8 -4.95 M1.5 -5.15 L1.55 -5.05 1.45 -5.15 1.5 -5.15 M-3.85 -4.4 L-3.95 -4.2 -3.9 -4.35 -3.85 -4.4 M5.0 -3.5 L5.0 -3.35 5.0 -2.25 5.05 -1.8 4.9 -2.8 5.0 -3.5 M-10.0 -0.4 L-10.2 -0.25 Q-10.8 0.25 -10.4 0.9 -10.0 1.55 -9.3 1.2 L-9.0 0.7 Q-8.85 -0.55 -10.0 -0.4 M5.05 -0.7 L5.25 -0.6 5.4 -0.6 Q5.9 -1.05 5.8 -1.85 5.7 -2.65 5.85 -3.35 L7.3 -3.25 7.35 -3.35 8.35 -1.95 Q8.7 -1.1 8.6 -0.1 L8.4 1.5 Q8.15 2.75 7.4 3.55 6.9 4.1 6.15 4.05 L6.05 4.2 Q5.25 4.55 4.65 4.0 L4.45 3.5 Q4.45 2.9 4.6 2.4 L4.85 1.1 5.0 0.55 5.05 -0.7 M10.9 -3.0 L11.05 -2.95 11.95 -2.2 12.45 -1.45 12.55 -0.6 12.55 -0.3 12.05 -0.4 11.65 0.1 Q11.5 0.75 12.05 0.95 L12.35 1.05 12.45 0.7 12.25 1.25 11.65 2.25 Q11.6 1.5 10.75 1.5 10.2 1.8 10.35 2.6 L10.6 3.05 9.2 3.15 9.0 3.0 Q8.6 2.35 8.85 1.7 L8.9 1.3 9.1 0.25 9.2 0.05 9.0 -0.65 9.0 -1.0 Q9.1 -0.8 9.45 -0.8 L9.55 -0.85 9.6 -1.15 9.7 -1.85 10.05 -2.35 10.3 -2.45 10.9 -3.0 M9.15 -2.4 Q9.25 -2.9 9.6 -3.05 L9.2 -2.5 9.15 -2.4 M11.65 -0.45 L12.2 -0.5 12.2 -0.55 11.65 -0.45 M7.65 1.9 L7.8 1.55 Q7.6 0.25 6.3 0.45 5.45 0.5 5.25 1.35 L5.35 1.9 Q6.1 2.85 7.0 2.35 L7.65 1.9 M6.25 0.3 L6.3 0.3 6.25 0.3 M-9.55 1.7 L-10.0 1.9 Q-10.55 2.45 -10.3 3.15 L-10.0 3.45 -8.8 3.4 -8.55 3.1 Q-8.35 1.75 -9.55 1.7 M-8.1 3.0 L-8.05 3.0 -8.1 2.9 -8.1 3.0 M-10.15 1.85 L-10.15 1.9 -10.15 1.85" fill="#003333" fill-rule="evenodd" stroke="none"/>
    <path d="M-15.7 -0.35 L-15.7 -0.3 -15.4 -0.1 -15.7 -0.3 -15.7 -0.35" fill="#cc0000" fill-rule="evenodd" stroke="none"/>
    <path d="M-10.4 -4.0 L-10.6 -4.05 -10.4 -4.0" fill="#333933" fill-rule="evenodd" stroke="none"/>
    <path d="M-13.05 -3.2 L-13.1 -3.2 -13.9 -2.2 Q-14.35 -1.6 -14.4 -0.85 -14.45 0.0 -14.65 0.75 L-14.8 0.9 -15.05 0.9 -15.15 0.45 -15.05 -1.1 -15.0 -1.2 -15.0 -1.3 -14.95 -1.45 -14.9 -1.5 -14.8 -1.85 -14.35 -2.45 -13.7 -2.95 -13.35 -3.05 -13.25 -3.15 -13.05 -3.2 M-13.1 -3.85 L-12.95 -3.85 -13.05 -3.85 -13.1 -3.85 M-8.3 -3.25 L-8.35 -3.2 -8.75 -3.15 -8.8 -3.1 Q-9.95 -2.8 -10.95 -2.15 L-11.0 -2.1 -11.05 0.35 -11.25 0.7 -11.6 0.7 -11.75 -0.75 -11.7 -1.95 -11.65 -2.4 -11.65 -2.45 -11.5 -2.75 -11.3 -3.05 -10.05 -3.75 -8.55 -3.6 -8.4 -3.5 -8.3 -3.25 M-4.1 -5.05 L-4.15 -5.0 -4.25 -4.95 -4.25 -5.0 -4.25 -5.05 -4.15 -5.05 -4.1 -5.05 M-10.0 -0.4 Q-8.85 -0.55 -9.0 0.7 L-9.3 1.2 Q-10.0 1.55 -10.4 0.9 -10.8 0.25 -10.2 -0.25 L-10.0 -0.4 M5.05 -1.8 L5.0 -2.25 5.0 -3.35 5.0 -3.5 5.25 -3.75 5.65 -3.9 5.8 -3.95 6.5 -3.75 7.35 -3.35 7.3 -3.25 5.85 -3.35 Q5.7 -2.65 5.8 -1.85 5.9 -1.05 5.4 -0.6 L5.25 -0.6 5.05 -0.7 5.05 -1.3 5.05 -1.8 M9.6 -3.05 L9.9 -3.1 10.9 -3.0 10.3 -2.45 10.05 -2.35 9.7 -1.85 9.6 -1.15 9.55 -0.85 9.45 -0.8 Q9.1 -0.8 9.0 -1.0 L9.05 -1.35 9.05 -1.45 9.1 -1.85 9.1 -1.9 9.15 -2.15 9.15 -2.4 9.2 -2.5 9.6 -3.05 M12.55 -0.3 L12.5 0.4 12.45 0.7 12.35 1.05 12.05 0.95 Q11.5 0.75 11.65 0.1 L12.05 -0.4 12.55 -0.3 M11.65 2.25 L11.45 2.45 11.4 2.5 11.2 2.8 11.15 2.8 Q10.85 2.85 10.65 3.05 L10.6 3.05 10.35 2.6 Q10.2 1.8 10.75 1.5 11.6 1.5 11.65 2.25 M7.65 1.9 L7.0 2.35 Q6.1 2.85 5.35 1.9 L5.25 1.35 Q5.45 0.5 6.3 0.45 7.6 0.25 7.8 1.55 L7.65 1.9 M-9.55 1.7 Q-8.35 1.75 -8.55 3.1 L-8.8 3.4 -10.0 3.45 -10.3 3.15 Q-10.55 2.45 -10.0 1.9 L-9.55 1.7" fill="#666666" fill-rule="evenodd" stroke="none"/>
    <path d="M6.25 0.3 L6.3 0.3 6.25 0.3" fill="#a66600" fill-rule="evenodd" stroke="none"/>
    <path d="M-1.2 -5.45 L-1.2 -5.35 -1.25 -5.45 -1.2 -5.45 M-1.35 -5.45 L-1.35 -5.35 -1.35 -5.45" fill="#cc9900" fill-rule="evenodd" stroke="none"/>
    <path d="M-3.75 -4.75 L-3.8 -4.75 -3.45 -5.0 -3.75 -4.75" fill="#660000" fill-rule="evenodd" stroke="none"/>
    <path d="M-5.35 -4.8 L-5.3 -4.75 -5.2 -4.8 -4.85 -4.8 -4.8 -4.95 -4.45 -5.0 -4.45 -4.65 -4.6 -4.1 -4.85 -3.8 -4.95 -3.75 -5.25 -3.5 -5.3 -3.5 -5.35 -3.4 -5.4 -3.35 -5.55 -3.2 -5.65 -3.1 -5.9 -2.95 -6.8 -1.9 -6.95 -0.7 -6.9 0.0 -6.75 0.7 Q-6.1 1.25 -5.7 2.05 L-5.6 2.25 -4.65 3.2 -3.7 3.4 -3.45 3.55 -3.4 3.65 -2.7 3.6 -2.7 3.5 -2.55 3.2 -2.5 3.1 -2.35 2.05 -2.35 1.9 -2.35 1.95 -2.4 1.9 -2.45 1.6 -1.1 1.6 -0.45 3.7 0.95 3.5 1.1 3.45 1.25 3.25 3.2 1.8 3.35 1.05 3.75 0.05 4.15 -0.6 4.0 -1.2 3.2 -2.3 1.95 -3.15 1.7 -3.25 1.15 -3.55 1.1 -3.6 0.9 -3.9 Q0.45 -4.45 0.35 -5.15 L0.35 -5.2 1.4 -5.05 1.55 -5.0 1.7 -4.8 1.75 -4.8 1.55 -5.05 1.5 -5.15 2.05 -4.95 2.15 -4.9 2.2 -4.9 2.8 -4.7 3.15 -4.6 3.3 -4.6 3.35 -4.5 3.6 -3.9 3.65 -3.85 3.75 -3.6 4.2 -2.25 Q4.7 -0.35 4.35 1.65 4.1 3.3 2.6 3.65 L0.7 4.05 0.7 4.0 0.65 4.05 0.45 4.1 0.4 4.1 0.3 4.05 0.3 4.1 -0.35 4.2 -4.6 3.9 -5.45 3.65 -5.7 3.55 Q-6.9 3.1 -7.15 1.65 L-7.2 1.45 -7.3 0.85 -7.45 -0.55 -7.45 -0.6 -7.4 -1.65 -7.35 -1.9 -7.35 -2.05 -7.3 -2.35 -7.05 -3.35 -6.65 -4.2 -6.6 -4.35 -6.5 -4.55 -6.25 -4.6 -6.2 -4.6 -5.85 -4.7 -5.35 -4.8 M1.7 -4.8 L1.8 -4.65 1.8 -4.7 1.7 -4.8 M-2.6 -0.55 L-2.6 -0.7 -2.6 -0.55 M0.05 -0.55 L0.0 -0.55 0.0 -0.7 0.05 -0.55 M-0.35 1.85 L-0.3 1.85 -0.35 1.85 -0.4 2.05 -0.35 1.9 -0.35 1.85" fill="#996600" fill-rule="evenodd" stroke="none"/>
    <path d="M7.2 -4.4 L7.3 -4.35 7.15 -4.3 7.2 -4.4 M0.3 4.1 L0.3 4.05 0.4 4.1 0.3 4.1 M0.65 4.05 L0.7 4.0 0.7 4.05 0.65 4.05 M0.35 -5.2 L0.35 -5.15 Q0.45 -4.45 0.9 -3.9 L1.1 -3.6 -0.7 -3.85 -5.3 -3.45 -5.3 -3.5 -5.25 -3.5 -4.95 -3.75 -4.85 -3.8 -4.6 -4.1 -4.45 -4.65 -4.45 -5.0 -4.25 -5.0 -4.25 -4.95 -4.15 -5.0 -4.1 -5.05 -1.9 -5.2 0.35 -5.2 M-5.65 -2.6 L-4.75 -2.85 Q-3.65 -2.95 -3.45 -1.85 L-3.5 -1.55 Q-3.95 -0.75 -4.8 -0.35 L-4.9 -0.3 -6.1 -0.45 -6.45 -1.05 Q-6.6 -2.15 -5.65 -2.6 M-3.75 -4.75 L-3.45 -5.0 -3.8 -4.75 -3.75 -4.75 M-3.85 -4.4 L-3.9 -4.35 -3.95 -4.2 -3.85 -4.4 M2.1 -0.1 Q0.7 0.05 0.05 -1.4 L0.0 -1.8 Q0.15 -2.7 0.95 -2.8 2.0 -2.75 2.65 -1.8 3.2 -0.95 2.5 -0.3 L2.1 -0.1 M11.65 -0.45 L12.2 -0.55 12.2 -0.5 11.65 -0.45 M-7.2 1.45 L-7.35 1.65 -7.2 1.45" fill="#99cc99" fill-rule="evenodd" stroke="none"/>
    <path d="M10.45 -3.55 L10.4 -3.5 10.4 -3.55 10.45 -3.55" fill="#009900" fill-rule="evenodd" stroke="none"/>
    <path d="M-2.95 6.0 L-3.4 5.95 -2.95 5.95 -2.95 6.0 M12.4 1.9 L12.45 1.9 12.4 1.95 12.4 1.9 M-8.1 3.0 L-8.1 2.9 -8.05 3.0 -8.1 3.0 M-10.15 1.85 L-10.15 1.9 -10.15 1.85 M-15.0 1.9 L-15.0 1.95 -15.0 1.9 M-15.1 2.0 L-14.75 2.5 -14.55 2.75 -14.25 3.05 -15.15 1.95 -15.1 2.0" fill="#23252e" fill-rule="evenodd" stroke="none"/>
    <path d="M3.85 4.95 L3.9 4.9 3.95 4.95 3.85 4.95 M-6.05 0.8 L-6.1 0.85 -6.15 0.8 -6.05 0.8 M-6.45 4.95 L-6.5 4.95 -6.45 4.9 -6.45 4.95" fill="#595988" fill-rule="evenodd" stroke="none"/>
    <path d="M3.85 4.95 L3.8 4.95 3.85 4.95 M-6.45 4.95 L-6.4 4.95 -6.45 4.95" fill="#990000" fill-rule="evenodd" stroke="none"/>
    <path d="M-2.35 1.95 L-2.35 1.9 -2.35 2.05 -2.4 2.05 -2.35 1.95 M-0.15 2.05 L-0.2 2.05 -0.25 1.9 -0.15 2.05" fill="#754900" fill-rule="evenodd" stroke="none"/>
    <path d="M1.7 -4.8 L1.55 -5.0 1.6 -5.0 1.7 -4.8 M1.1 -3.6 L1.15 -3.55 1.7 -3.25 1.95 -3.15 3.2 -2.3 4.0 -1.2 4.15 -0.6 3.75 0.05 3.35 1.05 3.2 1.8 1.25 3.25 1.1 3.45 0.95 3.5 -0.45 3.7 -1.1 1.6 -2.45 1.6 -2.4 1.9 -2.35 1.95 -2.4 2.05 -2.35 2.05 -2.5 3.1 -2.55 3.2 -2.7 3.5 -2.7 3.6 -3.4 3.65 -3.45 3.55 -3.7 3.4 -4.65 3.2 -5.6 2.25 -5.7 2.05 Q-6.1 1.25 -6.75 0.7 L-6.9 0.0 -6.95 -0.7 -6.8 -1.9 -5.9 -2.95 -5.65 -3.1 -5.55 -3.2 -5.4 -3.35 -5.35 -3.4 -5.3 -3.5 -5.3 -3.45 -0.7 -3.85 1.1 -3.6 M-5.65 -2.6 Q-6.6 -2.15 -6.45 -1.05 L-6.1 -0.45 -4.9 -0.3 -4.8 -0.35 Q-3.95 -0.75 -3.5 -1.55 L-3.45 -1.85 Q-3.65 -2.95 -4.75 -2.85 L-5.65 -2.6 M-2.6 -0.55 L-2.6 -0.7 -2.6 -0.55 M0.05 -0.55 L0.0 -0.7 0.0 -0.55 0.05 -0.55 M2.1 -0.1 L2.5 -0.3 Q3.2 -0.95 2.65 -1.8 2.0 -2.75 0.95 -2.8 0.15 -2.7 0.0 -1.8 L0.05 -1.4 Q0.7 0.05 2.1 -0.1 M1.45 2.4 L1.45 2.35 1.45 2.45 1.45 2.4 M-0.35 1.85 L-0.35 1.9 -0.4 2.05 -0.35 1.85 -0.3 1.85 -0.35 1.85 M-0.15 2.05 L-0.25 1.9 -0.2 2.05 -0.15 2.05 M-6.05 0.8 L-6.15 0.8 -6.1 0.85 -6.05 0.8" fill="#999933" fill-rule="evenodd" stroke="none"/>
  </g>
</svg>
