<?xml version="1.0" encoding="UTF-8" standalone="no"?>
<svg xmlns:xlink="http://www.w3.org/1999/xlink" height="14.35px" width="17.45px" xmlns="http://www.w3.org/2000/svg">
  <g transform="matrix(1.0, 0.0, 0.0, 1.0, 8.7, 7.15)">
    <path d="M4.8 -3.05 Q5.15 -3.25 5.2 -3.6 L5.2 -3.8 4.8 -4.6 3.7 -5.4 2.4 -5.6 Q1.25 -5.45 1.5 -4.45 0.85 -4.95 1.4 -5.55 L1.65 -5.8 3.4 -6.05 4.7 -5.55 Q5.6 -4.95 5.65 -4.05 5.7 -3.4 5.35 -3.05 4.9 -2.7 4.8 -3.05 M-5.5 -3.05 L-5.85 -2.9 Q-6.25 -2.95 -6.3 -3.45 -6.4 -4.45 -5.8 -5.05 L-4.8 -5.7 Q-3.05 -6.6 -1.85 -5.3 L-1.85 -5.0 Q-1.85 -4.75 -2.15 -4.45 -1.9 -4.8 -2.25 -5.15 -2.85 -5.85 -3.7 -5.65 L-5.05 -5.15 Q-6.0 -4.55 -5.75 -3.6 L-5.5 -3.05" fill="#003300" fill-rule="evenodd" stroke="none"/>
    <path d="M1.5 -4.45 Q1.25 -5.45 2.4 -5.6 L3.7 -5.4 4.8 -4.6 5.2 -3.8 5.2 -3.6 Q5.15 -3.25 4.8 -3.05 4.1 -2.85 3.65 -3.05 2.85 -3.2 2.25 -3.65 L1.5 -4.45 M-5.5 -3.05 L-5.75 -3.6 Q-6.0 -4.55 -5.05 -5.15 L-3.7 -5.65 Q-2.85 -5.85 -2.25 -5.15 -1.9 -4.8 -2.15 -4.45 L-3.1 -3.2 -5.5 -3.05" fill="#ffcc00" fill-rule="evenodd" stroke="none"/>
    <path d="M1.95 -4.9 L2.0 -4.85 Q3.55 -4.45 4.75 -3.35 L5.0 -3.5 6.6 -3.75 Q5.9 -3.4 5.55 -2.55 5.25 -1.7 5.3 -1.0 L4.05 -0.3 3.8 -1.1 3.8 -1.85 3.8 -2.05 3.75 -1.9 3.45 -0.5 3.2 -0.45 3.15 -0.45 1.9 0.0 0.7 0.2 0.7 0.25 -1.35 0.05 -1.35 0.0 -3.35 -0.5 -3.55 -1.65 -3.6 -1.9 -3.4 -1.9 Q-2.35 -1.75 -1.75 -2.55 L-1.55 -3.0 -1.9 -3.3 -2.3 -4.0 -2.25 -3.95 Q-2.0 -4.55 -2.2 -5.25 L-2.15 -5.5 -2.2 -5.5 -1.5 -6.4 0.3 -6.55 Q1.25 -6.1 1.6 -5.3 L1.6 -5.15 0.8 -4.7 -0.1 -4.3 -0.15 -3.8 -0.25 -3.25 -0.35 -2.9 -0.35 -3.05 -0.5 -3.05 -0.15 -2.4 0.35 -2.35 0.75 -2.4 1.55 -2.9 1.7 -3.45 1.95 -4.9 M8.4 -2.3 L8.45 -2.1 8.5 -1.25 7.8 -0.3 6.3 -0.45 5.9 -0.6 Q5.15 -1.25 6.1 -1.7 L6.25 -1.7 6.3 -1.55 6.65 -1.05 7.6 -1.1 7.8 -1.3 Q8.05 -1.6 7.9 -1.9 L7.65 -2.35 8.0 -2.2 8.0 -2.1 8.4 -2.3 M-7.7 -0.05 L-7.9 -0.35 Q-8.4 -0.85 -8.35 -1.45 L-8.2 -1.65 -7.8 -1.8 -7.7 -1.5 -7.45 -0.9 -6.45 -0.85 -6.25 -1.1 Q-5.85 -1.45 -5.9 -1.7 L-5.75 -1.8 -5.65 -1.8 -5.6 -3.05 -6.05 -3.65 -5.3 -3.35 -4.25 -4.1 -2.5 -4.95 -2.5 -4.45 -2.5 -4.4 -2.5 -4.35 Q-3.5 -4.4 -4.45 -3.5 L-4.5 -3.05 -4.4 -2.7 -3.8 -2.05 Q-3.55 -1.4 -3.65 -0.65 L-3.75 -0.2 -5.3 -1.15 -5.4 -1.25 -5.3 -1.1 -6.05 -0.1 -7.65 -0.05 -7.7 -0.05 M0.65 -5.45 L0.7 -5.6 0.25 -5.95 -1.2 -5.9 -1.15 -5.55 Q-0.8 -4.85 -0.75 -5.2 -0.35 -4.6 0.4 -5.1 L0.65 -5.45 M-1.8 2.6 L-1.35 1.9 -0.7 1.35 0.7 1.45 Q1.25 1.65 1.5 2.2 L1.75 3.65 Q1.85 4.85 0.85 5.65 L-1.2 5.3 -1.75 3.95 -1.8 2.6 M1.25 3.5 L1.35 3.25 Q0.55 2.15 -0.85 2.3 L-1.45 3.05 Q-1.8 3.6 -1.25 3.55 L-1.15 4.2 -0.95 4.5 -0.9 4.5 Q-0.95 5.05 -0.3 5.15 L1.05 4.75 1.15 4.4 1.2 3.75 1.25 3.5 M-6.15 -2.1 L-5.9 -2.0 -5.95 -1.9 -6.15 -2.1" fill="#3399cc" fill-rule="evenodd" stroke="none"/>
    <path d="M5.0 -4.0 L5.4 -4.0 Q6.8 -4.45 8.0 -3.45 9.0 -2.65 8.7 -1.45 L8.35 -0.65 7.55 0.45 7.2 0.65 7.1 1.65 Q6.8 3.6 5.3 4.9 4.25 5.75 3.15 6.1 2.55 6.2 2.0 6.5 L1.35 6.7 Q0.65 7.2 -0.15 7.2 -0.8 7.2 -1.5 6.7 -2.35 6.15 -3.2 5.7 L-4.95 4.75 -5.9 3.95 -7.0 2.0 -7.35 0.9 -7.95 0.3 Q-8.95 -0.75 -8.65 -2.1 -8.45 -2.95 -7.65 -3.5 L-6.75 -3.8 -5.95 -3.95 -4.95 -4.1 -4.1 -4.75 -2.75 -5.35 -2.55 -5.7 Q-1.85 -7.05 -0.55 -7.15 0.5 -7.2 1.4 -6.3 L2.2 -5.65 2.45 -5.35 2.8 -5.15 4.1 -4.5 5.0 -4.0 M6.6 -3.75 L5.0 -3.5 4.75 -3.35 Q3.55 -4.45 2.0 -4.85 L1.95 -4.9 1.6 -5.3 Q1.25 -6.1 0.3 -6.55 L-1.5 -6.4 -2.2 -5.5 -2.25 -5.25 -2.45 -5.0 -2.5 -4.95 -4.25 -4.1 -5.3 -3.35 -6.05 -3.65 Q-7.1 -3.75 -7.8 -3.05 -8.3 -2.45 -8.35 -1.45 -8.4 -0.85 -7.9 -0.35 L-7.7 -0.05 -7.65 0.0 -7.1 0.5 -6.95 1.1 -6.85 1.25 -6.75 2.0 -6.7 2.1 Q-6.35 3.1 -5.65 3.7 L-4.85 4.4 -3.2 5.3 -1.4 6.0 0.0 6.55 1.55 6.15 1.6 6.15 2.95 5.7 4.45 4.85 5.7 3.75 6.35 2.6 6.8 1.15 6.8 1.0 6.95 0.6 7.1 0.05 7.8 -0.3 8.5 -1.25 8.45 -2.1 8.4 -2.3 Q8.15 -3.15 7.35 -3.45 L6.6 -3.75" fill="#003300" fill-rule="evenodd" stroke="none"/>
    <path d="M1.95 -4.9 L1.7 -3.45 1.55 -2.9 0.75 -2.4 0.35 -2.35 -0.15 -2.4 -0.5 -3.05 -0.35 -3.05 -0.35 -2.9 0.85 -2.95 1.4 -4.35 1.6 -5.15 1.6 -5.3 1.95 -4.9 M-2.2 -5.25 Q-2.0 -4.55 -2.25 -3.95 L-2.3 -4.0 -2.5 -4.35 -2.5 -4.4 -2.45 -4.4 -2.45 -4.45 -2.5 -4.45 -2.5 -4.95 -2.45 -5.0 -2.25 -5.25 -2.2 -5.25 M-3.6 -1.9 L-3.55 -1.65 -3.35 -0.5 Q-3.25 0.8 -4.4 1.75 L-5.4 1.9 Q-6.25 1.9 -6.85 1.25 L-6.95 1.1 -7.1 0.5 -4.4 0.65 -3.75 -0.2 -3.65 -0.65 Q-3.55 -1.4 -3.8 -2.05 L-3.85 -2.2 -3.8 -2.25 -3.6 -1.9 M3.45 -0.5 L3.75 -1.9 3.8 -1.85 3.8 -1.1 4.05 -0.3 Q4.8 0.45 5.6 0.55 L6.0 0.5 7.1 0.05 6.95 0.6 6.8 1.0 6.2 1.25 4.65 1.55 4.25 1.0 3.45 -0.5 M1.55 6.15 L0.0 6.55 -1.4 6.0 -1.8 5.4 -2.1 4.1 -1.8 2.6 -1.75 3.95 -1.2 5.3 0.85 5.65 Q1.85 4.85 1.75 3.65 L1.5 2.2 1.85 2.95 2.15 4.35 Q2.25 5.45 1.55 6.1 L1.55 6.15 M-0.75 -5.2 Q-0.8 -4.85 -1.15 -5.55 L-1.2 -5.9 0.25 -5.95 0.7 -5.6 0.65 -5.45 0.5 -5.75 Q-0.25 -6.05 -0.6 -5.5 L-0.75 -5.2 M6.25 -1.7 L6.35 -2.55 6.4 -2.95 6.5 -3.0 Q7.15 -3.35 7.75 -2.75 L8.0 -2.2 7.65 -2.35 Q7.25 -2.35 6.95 -1.95 6.65 -1.6 6.65 -1.05 L6.3 -1.55 6.25 -1.7 M-1.25 3.55 L-0.55 2.7 0.35 2.95 1.25 3.5 1.2 3.75 -0.4 3.85 -0.9 4.4 -0.95 4.5 -1.15 4.2 -1.25 3.55 M-7.8 -1.8 L-7.65 -2.15 Q-7.25 -2.8 -6.6 -2.8 L-6.45 -2.8 Q-5.75 -2.6 -5.9 -2.0 L-6.15 -2.1 -6.9 -1.85 -7.35 -1.45 -7.45 -0.9 -7.7 -1.5 -7.8 -1.8" fill="#1e5a77" fill-rule="evenodd" stroke="none"/>
    <path d="M-2.3 -4.0 L-1.9 -3.3 -1.55 -3.0 -1.75 -2.55 Q-2.35 -1.75 -3.4 -1.9 L-3.6 -1.9 -3.8 -2.25 -3.9 -2.3 -3.85 -2.2 -3.8 -2.05 -4.4 -2.7 -4.5 -3.05 -4.45 -3.5 Q-3.5 -4.4 -2.5 -4.35 L-2.3 -4.0 M0.65 -5.45 L0.4 -5.1 Q-0.35 -4.6 -0.75 -5.2 L-0.6 -5.5 Q-0.25 -6.05 0.5 -5.75 L0.65 -5.45 M6.65 -1.05 Q6.65 -1.6 6.95 -1.95 7.25 -2.35 7.65 -2.35 L7.9 -1.9 Q8.05 -1.6 7.8 -1.3 L7.6 -1.1 6.65 -1.05 M-0.9 4.4 L-0.4 3.85 1.2 3.75 1.15 4.4 1.05 4.75 -0.3 5.15 Q-0.95 5.05 -0.9 4.5 L-0.9 4.4 M-7.45 -0.9 L-7.35 -1.45 -6.9 -1.85 -6.15 -2.1 -5.95 -1.9 -5.9 -1.7 Q-5.85 -1.45 -6.25 -1.1 L-6.45 -0.85 -7.45 -0.9" fill="#66b4d9" fill-rule="evenodd" stroke="none"/>
    <path d="M-0.35 -2.9 L-0.25 -3.25 -0.15 -3.8 -0.1 -4.3 0.8 -4.7 1.6 -5.15 1.4 -4.35 0.85 -2.95 -0.35 -2.9 M-3.35 -0.5 L-1.35 0.0 -1.4 0.0 -1.35 0.05 0.7 0.25 1.1 0.55 0.7 0.2 1.9 0.0 3.15 -0.45 3.15 -0.35 3.2 -0.45 3.45 -0.5 4.25 1.0 4.65 1.55 6.2 1.25 6.8 1.0 6.8 1.15 6.35 2.6 5.7 3.75 4.45 4.85 2.95 5.7 1.6 6.15 1.55 6.1 Q2.25 5.45 2.15 4.35 L1.85 2.95 1.5 2.2 Q1.25 1.65 0.7 1.45 L-0.7 1.35 -1.35 1.9 -1.8 2.6 -2.1 4.1 -1.8 5.4 -1.4 6.0 -3.2 5.3 -4.85 4.4 -5.65 3.7 Q-6.35 3.1 -6.7 2.1 L-6.75 2.0 -6.85 1.25 Q-6.25 1.9 -5.4 1.9 L-4.4 1.75 Q-3.25 0.8 -3.35 -0.5 M4.05 -0.3 L5.3 -1.0 Q5.25 -1.7 5.55 -2.55 5.9 -3.4 6.6 -3.75 L7.35 -3.45 Q8.15 -3.15 8.4 -2.3 L8.0 -2.1 8.0 -2.2 7.75 -2.75 Q7.15 -3.35 6.5 -3.0 L6.4 -2.95 6.35 -2.55 6.25 -1.7 6.1 -1.7 Q5.15 -1.25 5.9 -0.6 L6.3 -0.45 7.8 -0.3 7.1 0.05 6.0 0.5 5.6 0.55 Q4.8 0.45 4.05 -0.3 M-7.1 0.5 L-7.65 0.0 -7.65 -0.05 -6.05 -0.1 -5.3 -1.1 -5.3 -1.15 -3.75 -0.2 -4.4 0.65 -7.1 0.5 M-8.35 -1.45 Q-8.3 -2.45 -7.8 -3.05 -7.1 -3.75 -6.05 -3.65 L-5.6 -3.05 -5.65 -1.8 -5.75 -1.8 -5.9 -1.7 -5.95 -1.9 -5.9 -2.0 Q-5.75 -2.6 -6.45 -2.8 L-6.6 -2.8 Q-7.25 -2.8 -7.65 -2.15 L-7.8 -1.8 -8.2 -1.65 -8.35 -1.45 M1.25 3.5 L0.35 2.95 -0.55 2.7 -1.25 3.55 Q-1.8 3.6 -1.45 3.05 L-0.85 2.3 Q0.55 2.15 1.35 3.25 L1.25 3.5" fill="#257094" fill-rule="evenodd" stroke="none"/>
    <path d="M-2.15 -5.5 L-2.2 -5.25 -2.25 -5.25 -2.2 -5.5 -2.15 -5.5 M3.75 -1.9 L3.8 -2.05 3.8 -1.85 3.75 -1.9 M-2.5 -4.4 L-2.5 -4.45 -2.45 -4.45 -2.45 -4.4 -2.5 -4.4 M-3.85 -2.2 L-3.9 -2.3 -3.8 -2.25 -3.85 -2.2" fill="#292981" fill-rule="evenodd" stroke="none"/>
    <path d="M-2.2 -5.5 L-2.15 -5.5 -2.2 -5.5 M-1.35 0.0 L-1.35 0.05 -1.4 0.0 -1.35 0.0 M0.7 0.25 L0.7 0.2 1.1 0.55 0.7 0.25 M3.15 -0.45 L3.2 -0.45 3.15 -0.35 3.15 -0.45 M-0.95 4.5 L-0.9 4.4 -0.9 4.5 -0.95 4.5" fill="#4581e0" fill-rule="evenodd" stroke="none"/>
    <path d="M1.6 6.15 L1.55 6.15 1.55 6.1 1.6 6.15" fill="#2365d1" fill-rule="evenodd" stroke="none"/>
    <path d="M-7.65 0.0 L-7.7 -0.05 -7.65 -0.05 -7.65 0.0 M-5.3 -1.15 L-5.3 -1.1 -5.4 -1.25 -5.3 -1.15" fill="#6666cc" fill-rule="evenodd" stroke="none"/>
  </g>
</svg>
