<?xml version="1.0" encoding="UTF-8" standalone="no"?>
<svg xmlns:xlink="http://www.w3.org/1999/xlink" height="19.75px" width="15.9px" xmlns="http://www.w3.org/2000/svg">
  <g transform="matrix(1.0, 0.0, 0.0, 1.0, 8.3, 8.4)">
    <path d="M4.4 -3.7 L4.4 -3.75 4.45 -3.8 4.4 -3.7" fill="#53648a" fill-rule="evenodd" stroke="none"/>
    <path d="M0.5 -6.9 L0.4 -6.4 0.45 -6.2 0.1 -6.25 -0.1 -6.25 -2.2 -5.8 -2.2 -5.9 Q-2.25 -6.4 -2.55 -6.55 L-2.65 -6.55 -1.95 -6.85 -1.35 -6.95 0.5 -6.9 M3.2 -5.1 L3.5 -5.4 3.6 -5.7 3.85 -5.5 4.4 -5.0 4.5 -4.9 4.75 -4.5 5.2 -4.0 5.25 -3.95 5.4 -3.7 5.25 -3.85 5.15 -3.9 4.6 -3.8 4.5 -3.8 4.45 -3.85 4.2 -4.15 3.75 -4.6 3.3 -5.0 3.2 -5.1 M-5.1 -4.75 L-5.1 -4.7 -4.8 -4.2 -4.5 -4.05 -4.6 -3.9 -4.85 -3.55 -5.0 -3.35 -4.9 -3.7 -4.85 -3.75 -5.65 -3.9 -5.6 -4.0 -5.1 -4.75" fill="#ffcc00" fill-rule="evenodd" stroke="none"/>
    <path d="M4.65 -2.45 L4.8 -2.6 Q6.2 -2.6 5.8 -1.35 5.6 -0.65 4.8 -0.95 L4.45 -1.15 4.55 -1.65 4.6 -2.15 4.65 -2.45 M5.6 0.2 Q6.0 0.55 5.85 1.3 5.7 2.1 4.95 2.15 3.65 2.3 3.75 1.05 L3.95 0.65 4.05 0.4 4.1 0.35 4.6 0.2 4.95 0.15 5.05 0.15 5.6 0.2 M-6.35 -4.15 L-6.3 -4.1 -6.4 -4.0 -6.35 -4.15 M-6.65 -3.0 L-6.35 -3.1 Q-5.3 -2.75 -6.0 -1.85 L-7.15 -1.9 -7.2 -2.05 -7.2 -2.1 -6.75 -2.85 -6.65 -3.0 M-6.85 -0.25 L-6.8 -0.3 Q-5.4 -0.25 -5.5 1.25 -5.5 1.7 -5.85 2.05 L-7.1 2.0 -7.45 1.25 -7.35 0.95 -6.85 -0.25" fill="#6c7fb0" fill-rule="evenodd" stroke="none"/>
    <path d="M-1.75 -4.25 L-0.95 -4.65 Q1.15 -4.75 2.35 -3.15 2.85 -2.5 2.9 -1.7 L2.95 -1.1 Q3.75 -1.65 4.05 -2.55 L4.15 -2.75 3.65 -1.0 3.35 -0.35 Q2.85 0.7 2.75 1.8 L2.7 1.75 2.5 1.4 2.35 1.1 1.85 -0.2 1.65 -0.55 2.05 -1.8 2.0 -2.3 Q1.2 -4.25 -0.9 -4.2 L-1.7 -3.8 Q-2.85 -2.55 -2.4 -0.9 L-2.25 -0.4 -2.45 -0.25 Q-3.0 0.25 -3.2 0.95 L-3.3 1.65 Q-3.4 1.1 -3.65 0.6 L-4.3 -1.15 -4.4 -1.6 -4.35 -1.55 -3.35 -0.85 Q-3.55 -1.95 -3.05 -2.85 L-2.5 -3.6 -2.15 -3.95 -1.75 -4.25 M3.45 4.6 L3.6 4.35 3.85 4.55 4.2 4.7 5.0 4.85 4.85 5.05 4.2 5.95 2.5 7.4 2.5 7.25 Q2.55 5.8 3.45 4.6 M-3.15 2.55 L-2.95 2.95 -3.0 3.15 -3.3 4.45 -3.3 5.05 Q-3.3 5.65 -2.95 6.15 -2.8 6.35 -2.8 6.7 L-2.7 7.4 -4.4 5.95 -5.2 4.85 -5.1 4.8 Q-4.2 4.15 -3.6 3.2 L-3.3 2.35 -3.15 2.55" fill="#7b7b7b" fill-rule="evenodd" stroke="none"/>
    <path d="M-2.1 7.45 L-2.15 7.25 -2.25 6.9 -2.4 5.5 -2.8 5.2 Q-3.05 4.85 -2.8 4.3 L-2.5 3.5 -2.5 2.65 -2.85 2.2 Q-3.05 1.75 -2.75 1.15 L-1.65 -0.6 -1.55 -0.65 -1.3 -0.7 -1.15 -1.05 -0.9 -1.65 -0.9 -1.7 -0.85 -1.75 -0.55 -2.05 Q-0.4 -0.3 0.15 1.4 L0.65 2.85 Q1.15 4.6 0.9 6.35 0.5 6.5 0.15 6.85 -0.2 7.2 -0.2 7.7 L-0.3 7.7 -0.4 7.7 -0.5 7.65 -0.6 7.55 -0.7 7.45 -0.45 7.2 -0.3 6.4 Q-0.4 5.7 -0.95 5.55 -1.75 5.85 -1.55 6.75 L-1.3 7.2 -2.1 7.4 -2.1 7.45 M-1.35 0.75 L-1.5 0.75 -2.25 1.65 Q-2.6 2.45 -1.8 2.6 L-1.7 2.5 Q-1.35 1.95 -1.35 1.35 L-1.3 1.15 -1.25 0.9 -1.3 0.8 -1.35 0.75 M-1.2 5.05 L-0.6 3.2 Q-0.35 2.35 -1.2 2.25 -2.2 3.15 -2.2 4.55 -2.2 5.3 -1.4 5.2 L-1.2 5.05" fill="#126ab1" fill-rule="evenodd" stroke="none"/>
    <path d="M0.45 -6.2 Q1.85 -6.1 3.05 -5.25 L3.2 -5.1 3.3 -5.0 3.75 -4.6 4.2 -4.15 4.45 -3.85 4.5 -3.8 4.6 -3.8 5.15 -3.9 5.25 -3.85 5.4 -3.7 5.25 -3.95 5.2 -4.0 4.75 -4.5 4.5 -4.9 4.4 -5.0 3.85 -5.5 3.6 -5.7 3.4 -5.85 3.05 -6.1 1.95 -6.65 1.6 -6.75 0.5 -6.9 -1.35 -6.95 -1.95 -6.85 -2.65 -6.55 -3.5 -6.05 -3.85 -5.8 -4.25 -5.55 -4.45 -5.35 -4.75 -5.1 -4.95 -4.9 -5.1 -4.75 -5.6 -4.0 -5.65 -3.9 -4.85 -3.75 -4.9 -3.7 -5.0 -3.35 -4.85 -3.55 -4.6 -3.9 -4.5 -4.05 -4.4 -4.15 -4.3 -4.25 -3.8 -4.75 -3.45 -5.05 -2.2 -5.8 -0.1 -6.25 0.1 -6.25 0.45 -6.2 M3.2 -8.35 L3.3 -8.4 4.3 -7.8 5.1 -6.95 Q5.9 -5.7 6.25 -4.25 L6.45 -3.35 6.6 -3.15 6.6 -2.95 7.15 -1.7 Q7.8 -0.35 7.55 1.1 L7.35 2.0 Q6.95 3.55 5.75 4.55 5.4 5.5 4.7 6.25 L3.7 7.25 3.45 7.35 3.15 7.55 2.3 7.95 1.65 9.4 1.45 9.7 1.25 9.8 1.05 10.05 0.95 10.05 0.5 10.85 0.3 11.05 0.1 11.3 -0.3 11.3 -0.9 10.8 -1.1 10.65 Q-2.0 9.6 -2.3 8.2 L-2.35 8.1 -4.05 6.85 -5.6 5.25 -6.35 4.7 -7.15 3.95 Q-7.95 2.9 -8.2 1.6 L-8.3 0.6 Q-8.3 -0.45 -7.9 -1.4 L-7.35 -2.45 -7.15 -2.8 -6.75 -4.55 Q-6.2 -5.85 -5.3 -6.95 L-4.6 -8.0 -4.05 -8.3 Q-3.8 -8.25 -3.7 -8.05 -3.5 -7.95 -3.55 -7.55 L-3.55 -6.6 Q-2.5 -7.25 -1.15 -7.25 L1.65 -7.05 3.05 -6.45 3.0 -7.05 2.95 -7.7 3.05 -8.2 3.2 -8.35 M3.7 -7.95 L3.65 -7.95 3.4 -7.9 3.35 -7.9 3.35 -7.7 3.4 -6.5 4.1 -5.95 4.5 -5.55 5.85 -4.25 5.55 -5.1 Q4.95 -6.85 3.7 -7.95 M4.4 -3.7 L4.45 -3.8 4.4 -3.75 4.4 -3.7 M4.15 -2.75 L3.5 -4.1 Q2.9 -4.9 2.0 -5.4 L1.65 -5.55 Q0.1 -6.05 -1.5 -5.55 L-2.1 -5.25 -2.4 -5.1 -3.6 -4.15 -3.65 -4.1 -4.0 -3.65 -4.0 -3.6 -4.1 -3.5 -4.55 -2.4 -4.5 -2.1 -4.45 -1.65 -4.4 -1.6 -4.3 -1.15 -3.65 0.6 Q-3.4 1.1 -3.3 1.65 L-3.2 0.95 Q-3.0 0.25 -2.45 -0.25 L-2.25 -0.4 -2.05 -0.6 -1.3 -1.3 -0.95 -1.65 -0.9 -1.65 -1.15 -1.05 -1.3 -0.7 -1.55 -0.65 -1.65 -0.6 -2.75 1.15 Q-3.05 1.75 -2.85 2.2 L-2.5 2.65 -2.5 3.5 -2.8 4.3 Q-3.05 4.85 -2.8 5.2 L-2.4 5.5 -2.25 6.9 -2.15 7.25 -2.1 7.45 -2.05 7.5 -2.05 7.6 -2.0 7.7 -1.85 8.3 -1.8 8.4 Q-1.6 9.5 -1.0 10.4 L-0.85 10.6 -0.6 10.8 -0.4 10.85 -0.25 10.9 -0.05 10.8 0.15 10.7 Q0.5 10.35 0.45 9.85 L0.4 9.5 0.5 9.4 0.55 9.35 0.75 9.4 1.15 9.4 1.25 9.4 1.6 9.05 1.85 8.1 1.85 8.05 1.9 7.7 2.0 7.1 2.05 6.9 2.1 6.3 2.1 5.8 2.7 5.45 2.85 5.15 Q3.0 4.2 2.6 3.35 L2.3 2.5 2.0 1.4 1.25 -0.5 Q0.9 -1.1 0.25 -1.1 L0.25 -1.2 0.25 -1.25 Q1.05 -1.2 1.6 -0.6 L1.65 -0.55 1.85 -0.2 2.35 1.1 2.5 1.4 2.7 1.75 2.75 1.8 Q2.85 0.7 3.35 -0.35 L3.65 -1.0 4.15 -2.75 M5.8 -3.25 L5.05 -2.95 4.85 -2.75 4.65 -2.55 4.65 -2.45 4.6 -2.15 4.55 -1.65 4.2 -0.6 3.65 0.25 3.55 0.5 3.25 1.4 Q2.7 2.85 3.85 3.85 L4.25 4.15 4.4 4.25 4.65 4.4 5.2 4.45 5.45 4.4 5.9 4.1 6.0 4.0 Q6.9 3.0 7.1 1.65 L7.15 1.45 7.15 1.25 7.2 0.55 7.2 0.3 Q7.2 -0.95 6.7 -2.1 L6.65 -2.25 6.3 -2.8 6.15 -3.05 6.0 -3.2 5.95 -3.25 5.8 -3.25 M3.45 4.6 Q2.55 5.8 2.5 7.25 L2.5 7.4 4.2 5.95 4.85 5.05 5.0 4.85 4.2 4.7 3.85 4.55 3.6 4.35 3.45 4.6 M-6.3 -4.1 L-6.1 -4.3 -5.65 -4.8 Q-4.95 -5.6 -4.05 -6.1 L-3.9 -6.15 -3.85 -5.9 -3.9 -6.4 -3.85 -7.3 -3.85 -7.6 -3.85 -7.9 -4.2 -7.95 -4.5 -7.65 Q-5.55 -6.65 -6.05 -5.1 L-6.25 -4.4 -6.35 -4.15 -6.4 -4.0 -6.3 -4.1 M-4.9 -1.25 L-5.1 -2.15 -5.1 -2.85 -5.1 -2.5 Q-5.3 -2.6 -5.3 -2.85 L-5.35 -2.95 -5.45 -3.3 -6.25 -3.4 -6.6 -3.05 -6.65 -3.0 -6.75 -2.85 -7.2 -2.1 -7.2 -2.05 -7.65 -0.2 -7.7 0.55 -7.65 1.25 -7.6 1.55 Q-7.4 2.95 -6.45 4.0 -6.0 4.5 -5.4 4.45 L-5.0 4.35 -4.7 4.15 -4.3 3.85 Q-3.2 2.85 -3.7 1.4 L-4.1 0.25 -4.55 -0.35 -4.9 -1.25 M-3.15 2.55 L-3.3 2.35 -3.6 3.2 Q-4.2 4.15 -5.1 4.8 L-5.2 4.85 -4.4 5.95 -2.7 7.4 -2.8 6.7 Q-2.8 6.35 -2.95 6.15 -3.3 5.65 -3.3 5.05 L-3.3 4.45 -3.0 3.15 -2.95 2.95 -3.15 2.55" fill="#000000" fill-rule="evenodd" stroke="none"/>
    <path d="M-2.1 -5.25 L-1.5 -5.55 Q0.1 -6.05 1.65 -5.55 L2.0 -5.4 Q2.9 -4.9 3.5 -4.1 L4.15 -2.75 4.05 -2.55 Q3.75 -1.65 2.95 -1.1 L2.9 -1.7 Q2.85 -2.5 2.35 -3.15 1.15 -4.75 -0.95 -4.65 L-1.75 -4.25 -1.75 -4.35 Q-1.6 -5.1 -2.1 -5.25 M1.65 -0.55 L1.6 -0.6 Q1.05 -1.2 0.25 -1.25 0.25 -2.1 -0.55 -2.05 -0.25 -2.55 -0.35 -3.2 -0.55 -3.95 -1.35 -3.75 L-2.0 -3.1 Q-2.5 -2.15 -1.65 -1.65 L-0.85 -1.75 -0.9 -1.7 -0.9 -1.65 -0.95 -1.65 -1.3 -1.3 -2.05 -0.6 -2.25 -0.4 -2.4 -0.9 Q-2.85 -2.55 -1.7 -3.8 L-0.9 -4.2 Q1.2 -4.25 2.0 -2.3 L2.05 -1.8 1.65 -0.55 M-4.4 -1.6 L-4.45 -1.65 -4.5 -2.1 -4.55 -2.4 -4.1 -3.5 -3.85 -3.1 Q-3.5 -2.75 -3.05 -2.85 -3.55 -1.95 -3.35 -0.85 L-4.35 -1.55 -4.4 -1.6" fill="#b7b7b7" fill-rule="evenodd" stroke="none"/>
    <path d="M-2.1 -5.25 Q-1.6 -5.1 -1.75 -4.35 L-1.75 -4.25 -2.15 -3.95 -2.5 -3.6 -3.05 -2.85 Q-3.5 -2.75 -3.85 -3.1 L-4.1 -3.5 -4.0 -3.6 -4.0 -3.65 -3.65 -4.1 -3.6 -4.15 -2.4 -5.1 -2.1 -5.25 M-0.55 -2.05 L-0.85 -1.75 -1.65 -1.65 Q-2.5 -2.15 -2.0 -3.1 L-1.35 -3.75 Q-0.55 -3.95 -0.35 -3.2 -0.25 -2.55 -0.55 -2.05" fill="#ffffff" fill-rule="evenodd" stroke="none"/>
    <path d="M4.2 -0.6 L6.25 -0.55 6.45 -0.4 7.2 0.3 7.2 0.55 7.15 1.25 7.15 1.45 7.1 1.65 Q6.75 0.35 5.6 0.2 L5.05 0.15 4.95 0.15 4.6 0.2 4.05 0.35 3.55 0.5 3.65 0.25 4.2 -0.6 M6.0 -3.2 L5.8 -3.25 5.95 -3.25 6.0 -3.2 M-7.65 -0.2 L-7.45 -0.35 -7.25 -0.6 -7.25 -0.65 -6.8 -1.05 -6.4 -1.45 -6.35 -1.5 -5.55 -1.55 -5.4 -1.5 -4.95 -1.25 -4.9 -1.25 -4.55 -0.35 -4.9 -0.45 -5.3 -0.8 Q-6.35 -0.85 -6.85 -0.25 L-7.35 0.95 -7.45 1.25 -7.6 1.55 -7.65 1.25 -7.7 0.55 -7.65 -0.2" fill="#313a53" fill-rule="evenodd" stroke="none"/>
    <path d="M4.65 -2.45 L4.65 -2.55 4.85 -2.75 5.05 -2.95 5.8 -3.25 6.0 -3.2 6.15 -3.05 6.3 -2.8 6.65 -2.25 6.7 -2.1 Q7.2 -0.95 7.2 0.3 L6.45 -0.4 6.25 -0.55 4.2 -0.6 4.55 -1.65 4.45 -1.15 4.8 -0.95 Q5.6 -0.65 5.8 -1.35 6.2 -2.6 4.8 -2.6 L4.65 -2.45 M5.6 0.2 Q6.75 0.35 7.1 1.65 6.9 3.0 6.0 4.0 L5.9 4.1 5.45 4.4 5.2 4.45 4.65 4.4 4.4 4.25 4.25 4.15 3.85 3.85 Q2.7 2.85 3.25 1.4 L3.55 0.5 4.05 0.35 4.6 0.2 4.1 0.35 4.05 0.4 3.95 0.65 3.75 1.05 Q3.65 2.3 4.95 2.15 5.7 2.1 5.85 1.3 6.0 0.55 5.6 0.2 M-6.65 -3.0 L-6.6 -3.05 -6.25 -3.4 -5.45 -3.3 -5.35 -2.95 -5.3 -2.85 Q-5.3 -2.6 -5.1 -2.5 L-5.1 -2.85 -5.1 -2.15 -4.9 -1.25 -4.95 -1.25 -5.4 -1.5 -5.55 -1.55 -6.35 -1.5 -6.4 -1.45 -6.8 -1.05 -7.25 -0.65 -7.25 -0.6 -7.45 -0.35 -7.65 -0.2 -7.2 -2.05 -7.15 -1.9 -6.0 -1.85 Q-5.3 -2.75 -6.35 -3.1 L-6.65 -3.0 M-4.55 -0.35 L-4.1 0.25 -3.7 1.4 Q-3.2 2.85 -4.3 3.85 L-4.7 4.15 -5.0 4.35 -5.4 4.45 Q-6.0 4.5 -6.45 4.0 -7.4 2.95 -7.6 1.55 L-7.45 1.25 -7.1 2.0 -5.85 2.05 Q-5.5 1.7 -5.5 1.25 -5.4 -0.25 -6.8 -0.3 L-6.85 -0.25 Q-6.35 -0.85 -5.3 -0.8 L-4.9 -0.45 -4.55 -0.35" fill="#465784" fill-rule="evenodd" stroke="none"/>
    <path d="M3.7 -7.95 Q4.95 -6.85 5.55 -5.1 L5.85 -4.25 4.5 -5.55 4.1 -5.95 3.4 -6.5 3.35 -7.7 3.35 -7.9 3.4 -7.9 3.65 -7.95 3.7 -7.95 M-6.35 -4.15 L-6.25 -4.4 -6.05 -5.1 Q-5.55 -6.65 -4.5 -7.65 L-4.2 -7.95 -3.85 -7.9 -3.85 -7.6 -3.85 -7.3 -3.9 -6.4 -3.85 -5.9 -3.9 -6.15 -4.05 -6.1 Q-4.95 -5.6 -5.65 -4.8 L-6.1 -4.3 -6.3 -4.1 -6.35 -4.15" fill="#99a5de" fill-rule="evenodd" stroke="none"/>
    <path d="M0.25 -1.25 L0.25 -1.2 0.25 -1.1 Q0.9 -1.1 1.25 -0.5 L2.0 1.4 2.3 2.5 2.6 3.35 Q3.0 4.2 2.85 5.15 L2.7 5.45 2.1 5.8 2.1 6.3 2.05 6.9 2.0 7.1 1.9 7.7 1.85 8.05 1.85 8.1 1.6 9.05 1.25 9.4 1.15 9.4 0.75 9.4 0.55 9.35 0.5 9.4 0.4 9.5 0.45 9.85 Q0.5 10.35 0.15 10.7 L-0.05 10.8 -0.25 10.9 -0.4 10.85 -0.6 10.8 -0.85 10.6 -1.0 10.4 Q-1.6 9.5 -1.8 8.4 L-1.85 8.3 -2.0 7.7 -2.05 7.6 -2.05 7.5 -2.1 7.45 -2.1 7.4 -1.3 7.2 -1.2 7.2 Q-0.9 7.25 -0.7 7.45 L-0.6 7.55 -0.85 7.45 -1.15 7.85 -1.25 8.4 Q-1.2 9.2 -0.4 9.15 L-0.2 8.9 -0.25 8.45 -0.25 8.4 Q-0.2 7.95 -0.4 7.7 L-0.3 7.7 -0.2 7.7 Q-0.2 7.2 0.15 6.85 0.5 6.5 0.9 6.35 1.15 4.6 0.65 2.85 L0.15 1.4 Q-0.4 -0.3 -0.55 -2.05 0.25 -2.1 0.25 -1.25" fill="#0e508f" fill-rule="evenodd" stroke="none"/>
    <path d="M0.45 -6.2 L0.4 -6.4 0.5 -6.9 1.6 -6.75 1.95 -6.65 3.05 -6.1 3.4 -5.85 3.6 -5.7 3.5 -5.4 3.2 -5.1 3.05 -5.25 Q1.85 -6.1 0.45 -6.2 M-2.65 -6.55 L-2.55 -6.55 Q-2.25 -6.4 -2.2 -5.9 L-2.2 -5.8 -3.45 -5.05 -3.8 -4.75 -4.3 -4.25 -4.4 -4.15 -4.5 -4.05 -4.8 -4.2 -5.1 -4.7 -5.1 -4.75 -4.95 -4.9 -4.75 -5.1 -4.45 -5.35 -4.25 -5.55 -3.85 -5.8 -3.5 -6.05 -2.65 -6.55" fill="#ffff00" fill-rule="evenodd" stroke="none"/>
    <path d="M-1.35 0.75 L-1.3 0.8 -1.25 0.9 -1.3 1.15 -1.35 1.35 Q-1.35 1.95 -1.7 2.5 L-1.8 2.6 Q-2.6 2.45 -2.25 1.65 L-1.5 0.75 -1.35 0.75 M-1.2 5.05 L-1.4 5.2 Q-2.2 5.3 -2.2 4.55 -2.2 3.15 -1.2 2.25 -0.35 2.35 -0.6 3.2 L-1.2 5.05 M-0.7 7.45 Q-0.9 7.25 -1.2 7.2 L-1.3 7.2 -1.55 6.75 Q-1.75 5.85 -0.95 5.55 -0.4 5.7 -0.3 6.4 L-0.45 7.2 -0.7 7.45 M-0.6 7.55 L-0.5 7.65 -0.4 7.7 Q-0.2 7.95 -0.25 8.4 L-0.25 8.45 -0.2 8.9 -0.4 9.15 Q-1.2 9.2 -1.25 8.4 L-1.15 7.85 -0.85 7.45 -0.6 7.55" fill="#3399cc" fill-rule="evenodd" stroke="none"/>
  </g>
</svg>
