<?xml version="1.0" encoding="UTF-8" standalone="no"?>
<svg xmlns:xlink="http://www.w3.org/1999/xlink" height="11.1px" width="9.6px" xmlns="http://www.w3.org/2000/svg">
  <g transform="matrix(1.0, 0.0, 0.0, 1.0, 5.0, 5.6)">
    <path d="M0.75 -5.5 L1.85 -5.05 2.9 -3.3 3.55 -1.9 3.65 -1.55 3.8 -1.45 4.15 -1.1 4.6 -0.5 4.6 -0.05 4.55 0.95 4.45 1.2 4.1 2.55 3.9 2.55 3.85 2.55 3.8 2.6 3.75 2.6 3.6 2.85 3.25 4.05 Q2.2 5.15 0.8 5.5 -0.45 5.55 -1.75 4.9 L-3.3 3.95 -3.9 3.05 -4.0 2.95 -4.25 2.75 -4.5 2.55 -4.85 2.25 -5.0 1.0 Q-5.15 -0.3 -4.35 -1.25 L-4.05 -1.75 -2.85 -4.15 -2.65 -4.55 -2.15 -5.0 -1.85 -5.3 -1.7 -5.35 -0.35 -5.6 0.75 -5.5 M-3.9 2.2 L-3.6 2.85 Q-2.35 4.95 -0.05 4.75 L1.55 4.4 Q3.3 4.0 3.6 2.05 L3.7 1.9 Q4.35 1.1 4.0 -0.1 L3.7 -0.55 3.6 -0.65 3.3 -1.4 3.3 -1.5 Q2.75 -3.35 1.75 -4.5 L0.8 -4.9 -1.9 -4.8 Q-2.85 -4.1 -3.15 -3.05 L-3.8 -0.4 -3.9 0.55 -3.95 0.6 Q-4.25 -0.1 -4.0 -1.0 L-4.6 -0.05 -4.45 0.9 -3.9 2.2" fill="#000000" fill-rule="evenodd" stroke="none"/>
    <path d="M1.35 -2.3 L1.35 -1.95 1.2 -1.75 Q0.55 -1.65 0.7 -2.2 L0.7 -2.25 0.8 -2.45 0.9 -2.5 1.35 -2.3 M2.75 0.3 Q2.45 0.05 2.75 -0.3 L3.0 -0.4 Q3.35 -0.35 3.4 -0.1 L3.3 0.2 Q3.15 0.5 2.9 0.35 L2.75 0.3 M0.45 0.65 Q0.55 0.9 0.1 1.05 L-0.1 1.0 -0.15 0.9 Q-0.25 0.55 0.1 0.4 L0.3 0.45 0.45 0.65 M1.6 2.55 Q1.3 2.3 1.6 2.1 L1.7 2.1 1.95 2.35 1.8 2.55 1.6 2.55 M0.0 3.45 L0.0 3.5 0.0 3.45 M-0.5 3.1 L-0.55 3.1 Q-0.95 3.05 -0.85 2.7 -0.8 2.45 -0.55 2.5 -0.25 2.6 -0.25 2.8 L-0.4 3.05 -0.5 3.1 M-0.5 -4.45 Q-0.3 -4.3 -0.35 -3.95 L-0.55 -3.75 Q-0.85 -3.6 -1.0 -3.75 L-1.15 -4.0 Q-1.2 -4.4 -0.9 -4.5 L-0.9 -4.55 -0.5 -4.45 M-2.65 -2.3 L-2.7 -2.7 -2.6 -2.9 -2.5 -2.95 Q-2.15 -2.95 -2.05 -2.75 L-2.05 -2.4 -2.2 -2.2 -2.65 -2.3 M-3.0 0.9 Q-3.25 0.75 -3.1 0.4 L-2.85 0.25 -2.5 0.5 -2.6 0.85 -2.7 0.95 -3.0 0.9" fill="#ffcc00" fill-rule="evenodd" stroke="none"/>
    <path d="M0.7 -2.2 Q0.55 -1.65 1.2 -1.75 L1.35 -1.95 1.35 -2.3 1.6 -1.9 1.45 -1.35 0.65 -1.3 Q0.4 -1.55 0.5 -1.9 L0.7 -2.2 M3.4 -0.1 Q3.75 -0.05 3.7 0.4 L3.6 0.6 2.95 0.7 Q2.7 0.55 2.75 0.3 L2.9 0.35 Q3.15 0.5 3.3 0.2 L3.4 -0.1 M-0.15 0.9 L-0.1 1.0 0.1 1.05 Q0.55 0.9 0.45 0.65 0.85 0.75 0.75 1.3 L0.5 1.6 Q-0.05 1.8 -0.15 1.25 L-0.15 0.9 M1.95 2.35 Q2.4 2.55 2.05 2.95 L2.05 3.0 1.95 3.0 1.85 3.1 Q1.3 3.05 1.55 2.6 L1.6 2.55 1.8 2.55 1.95 2.35 M0.0 3.5 Q-0.6 3.55 -0.5 3.1 L-0.4 3.05 -0.25 2.8 -0.2 2.8 Q0.4 3.0 0.0 3.45 L0.0 3.5 M-1.0 -3.75 Q-0.85 -3.6 -0.55 -3.75 L-0.35 -3.95 Q-0.3 -4.3 -0.5 -4.45 0.05 -4.4 -0.1 -3.8 L-0.1 -3.75 -0.15 -3.55 -0.35 -3.35 Q-0.85 -3.15 -1.0 -3.6 L-1.0 -3.75 M-2.05 -2.75 Q-1.6 -2.7 -1.7 -2.15 L-1.9 -1.7 Q-2.55 -1.5 -2.65 -2.05 L-2.65 -2.3 -2.2 -2.2 -2.05 -2.4 -2.05 -2.75 M-2.5 0.5 Q-1.9 0.55 -1.9 1.2 L-2.05 1.7 -2.7 1.85 Q-3.15 1.65 -3.1 1.15 L-3.0 0.9 -2.7 0.95 -2.6 0.85 -2.5 0.5" fill="#5e3a00" fill-rule="evenodd" stroke="none"/>
    <path d="M0.8 -4.9 L1.75 -4.5 Q2.75 -3.35 3.3 -1.5 L3.3 -1.4 3.6 -0.65 3.7 -0.55 4.0 -0.1 Q4.35 1.1 3.7 1.9 L3.6 2.05 Q3.3 4.0 1.55 4.4 L-0.05 4.75 Q-2.35 4.95 -3.6 2.85 L-3.9 2.2 -3.15 2.3 Q-2.3 2.15 -1.25 2.3 L0.25 2.3 1.65 1.95 2.25 1.75 2.3 1.4 2.15 -0.45 1.9 -1.8 1.3 -3.6 0.8 -4.9 M3.4 -0.1 Q3.35 -0.35 3.0 -0.4 L2.75 -0.3 Q2.45 0.05 2.75 0.3 2.7 0.55 2.95 0.7 L3.6 0.6 3.7 0.4 Q3.75 -0.05 3.4 -0.1 M1.95 2.35 L1.7 2.1 1.6 2.1 Q1.3 2.3 1.6 2.55 L1.55 2.6 Q1.3 3.05 1.85 3.1 L1.95 3.0 2.05 3.0 2.05 2.95 Q2.4 2.55 1.95 2.35 M0.0 3.5 L0.0 3.45 Q0.4 3.0 -0.2 2.8 L-0.25 2.8 Q-0.25 2.6 -0.55 2.5 -0.8 2.45 -0.85 2.7 -0.95 3.05 -0.55 3.1 L-0.5 3.1 Q-0.6 3.55 0.0 3.5" fill="#8c5b00" fill-rule="evenodd" stroke="none"/>
    <path d="M0.8 -4.9 L1.3 -3.6 1.9 -1.8 2.15 -0.45 2.3 1.4 2.25 1.75 1.65 1.95 0.25 2.3 -1.25 2.3 Q-2.3 2.15 -3.15 2.3 L-3.9 2.2 -4.45 0.9 -4.6 -0.05 -4.0 -1.0 Q-4.25 -0.1 -3.95 0.6 L-3.9 0.55 -3.8 -0.4 -3.15 -3.05 Q-2.85 -4.1 -1.9 -4.8 L0.8 -4.9 M0.7 -2.2 L0.5 -1.9 Q0.4 -1.55 0.65 -1.3 L1.45 -1.35 1.6 -1.9 1.35 -2.3 0.9 -2.5 0.8 -2.45 0.7 -2.25 0.7 -2.2 M-0.15 0.9 L-0.15 1.25 Q-0.05 1.8 0.5 1.6 L0.75 1.3 Q0.85 0.75 0.45 0.65 L0.3 0.45 0.1 0.4 Q-0.25 0.55 -0.15 0.9 M-1.0 -3.75 L-1.0 -3.6 Q-0.85 -3.15 -0.35 -3.35 L-0.15 -3.55 -0.1 -3.75 -0.1 -3.8 Q0.05 -4.4 -0.5 -4.45 L-0.9 -4.55 -0.9 -4.5 Q-1.2 -4.4 -1.15 -4.0 L-1.0 -3.75 M-2.05 -2.75 Q-2.15 -2.95 -2.5 -2.95 L-2.6 -2.9 -2.7 -2.7 -2.65 -2.3 -2.65 -2.05 Q-2.55 -1.5 -1.9 -1.7 L-1.7 -2.15 Q-1.6 -2.7 -2.05 -2.75 M-3.0 0.9 L-3.1 1.15 Q-3.15 1.65 -2.7 1.85 L-2.05 1.7 -1.9 1.2 Q-1.9 0.55 -2.5 0.5 L-2.85 0.25 -3.1 0.4 Q-3.25 0.75 -3.0 0.9" fill="#cc8a00" fill-rule="evenodd" stroke="none"/>
  </g>
</svg>
