<?xml version="1.0" encoding="UTF-8" standalone="no"?>
<svg xmlns:xlink="http://www.w3.org/1999/xlink" height="24.1px" width="8.8px" xmlns="http://www.w3.org/2000/svg">
  <g transform="matrix(1.0, 0.0, 0.0, 1.0, 4.7, 10.6)">
    <path d="M1.05 -8.65 Q1.15 -7.55 1.55 -6.5 L2.4 -3.75 2.6 -3.25 3.35 -1.1 3.6 -0.2 3.6 0.1 3.7 1.75 4.1 2.35 Q4.1 3.7 3.7 4.95 L3.4 6.15 3.25 6.55 2.25 8.55 2.2 8.7 Q1.6 9.95 1.35 11.35 L1.0 11.9 Q0.55 12.3 0.35 12.8 L0.3 13.0 -0.2 13.5 Q-0.6 13.3 -0.6 12.8 -1.25 12.35 -1.5 11.6 L-2.05 9.9 -2.6 9.35 -3.8 6.7 -4.0 5.45 -4.5 4.55 -4.7 4.2 -4.35 2.6 -4.3 2.2 -3.55 -0.95 -3.4 -1.45 -3.4 -1.75 Q-3.5 -2.35 -3.0 -2.7 L-2.2 -5.1 -1.8 -6.15 Q-1.55 -7.2 -1.45 -8.3 -1.35 -9.5 -0.8 -10.55 L-0.65 -10.55 -0.3 -10.4 -0.3 -10.55 0.05 -10.5 0.15 -10.25 Q0.6 -10.35 0.8 -9.75 L1.05 -8.65 M3.6 2.5 L3.25 2.1 3.05 1.75 Q2.55 0.8 2.95 0.1 L2.95 -0.25 2.85 -0.65 2.3 -2.6 Q1.35 -4.95 0.8 -7.45 L0.25 -9.85 -0.05 -9.95 -0.15 -9.95 -0.25 -9.95 -0.4 -9.95 -0.45 -9.95 -0.65 -9.1 -0.8 -8.55 -1.45 -6.5 -1.5 -5.75 -1.55 -5.4 -1.9 -5.05 -1.9 -4.9 -2.05 -4.5 -2.25 -3.75 -2.45 -3.1 -2.55 -2.75 -3.0 -1.2 -3.8 2.45 -3.9 2.85 -3.9 2.95 -4.05 3.4 -4.15 3.75 -4.3 4.3 -4.3 4.35 -4.25 4.45 -4.1 4.85 -3.9 5.3 -1.9 9.4 -1.7 9.85 -1.65 9.85 -1.6 10.1 -0.65 12.35 -0.55 12.55 -0.45 12.7 -0.15 12.75 -0.15 12.7 -0.05 12.7 0.35 12.05 0.55 11.55 0.65 11.55 0.65 11.5 0.75 11.5 0.8 11.4 0.85 11.35 0.9 11.1 1.95 7.55 2.25 7.05 2.4 7.0 3.25 4.65 3.3 4.6 3.4 4.3 3.6 3.65 3.8 3.2 3.8 3.15 3.75 2.6 3.6 2.5 M1.0 9.75 L1.0 9.8 0.95 9.8 1.0 9.75" fill="#000000" fill-rule="evenodd" stroke="none"/>
    <path d="M3.8 3.15 L3.6 2.5 3.75 2.6 3.8 3.15" fill="#7e7ea9" fill-rule="evenodd" stroke="none"/>
    <path d="M-0.8 -8.55 L-0.6 -8.65 -0.2 -7.85 -0.75 -6.45 -1.55 -5.25 -1.9 -4.9 -1.9 -5.05 -1.55 -5.4 -1.5 -5.75 -1.45 -6.5 -0.8 -8.55 M-2.25 -3.75 L-2.25 -3.4 -2.55 -2.75 -2.45 -3.1 -2.25 -3.75 M-0.05 8.6 L0.35 7.95 Q0.95 7.9 1.0 8.45 L1.0 8.55 Q1.0 9.5 0.4 10.0 -0.4 10.0 -0.25 9.25 L-0.05 8.6 M1.1 -4.55 Q0.8 -4.4 0.65 -4.55 0.4 -4.7 0.35 -5.35 L0.35 -5.7 0.55 -6.05 0.6 -6.1 Q1.2 -6.2 1.25 -5.2 L1.1 -4.55 M2.1 3.75 L2.45 3.95 2.65 4.55 2.3 5.05 2.2 5.1 2.05 5.2 2.05 5.25 1.9 5.25 1.7 5.2 1.55 4.85 1.55 4.8 Q1.2 4.2 1.8 3.85 L2.1 3.75 M0.3 6.9 L0.2 7.1 -0.4 7.6 Q-1.2 7.6 -1.1 6.8 -1.0 5.95 -0.25 5.8 L0.1 5.9 Q0.45 6.35 0.3 6.9 M0.25 11.1 L-0.05 11.3 -0.25 11.3 Q-0.75 10.9 -0.2 10.5 L0.25 10.55 Q0.45 10.85 0.25 11.1 M-0.8 -4.9 Q-0.25 -5.0 -0.15 -4.05 L-0.1 -3.65 Q-0.2 -2.65 -0.75 -2.9 -1.1 -3.1 -1.15 -3.5 L-1.2 -3.8 -1.15 -4.35 -1.05 -4.65 -1.0 -4.7 -0.95 -4.75 -0.8 -4.9" fill="#ffffff" fill-rule="evenodd" stroke="none"/>
    <path d="M-0.8 -8.55 L-0.65 -9.1 -0.45 -9.95 -0.4 -9.95 -0.25 -9.95 -0.15 -9.95 -0.05 -9.95 0.25 -9.85 0.8 -7.45 Q1.35 -4.95 2.3 -2.6 L2.85 -0.65 2.95 -0.25 2.95 0.1 Q2.55 0.8 3.05 1.75 L3.25 2.1 3.6 2.5 3.8 3.15 3.8 3.2 3.6 3.65 3.4 4.3 3.3 4.6 3.25 4.65 2.9 5.2 2.65 5.6 2.2 6.4 1.75 7.2 1.15 8.4 1.0 8.45 Q0.95 7.9 0.35 7.95 L-0.05 8.6 -0.25 8.55 -1.65 8.1 -1.75 8.05 -2.25 7.7 -2.6 7.25 -2.75 6.95 -3.25 5.8 -3.5 5.25 -3.65 4.9 -3.85 4.45 -4.15 3.75 -4.05 3.4 -3.9 2.95 -3.9 2.85 -3.8 2.45 -3.0 -1.2 -2.55 -2.75 -2.25 -3.4 -2.25 -3.75 -2.05 -4.5 -1.9 -4.9 -1.55 -5.25 -0.75 -6.45 -0.2 -7.85 -0.6 -8.65 -0.8 -8.55 M1.1 -4.55 L1.25 -5.2 Q1.2 -6.2 0.6 -6.1 L0.55 -6.05 0.35 -5.7 0.35 -5.35 Q0.4 -4.7 0.65 -4.55 0.8 -4.4 1.1 -4.55 M2.1 3.75 L2.3 2.45 1.35 2.95 0.65 3.85 -1.5 2.55 -3.05 2.45 -3.35 3.55 -3.4 3.6 -1.95 5.45 -1.7 6.75 -1.1 6.8 Q-1.2 7.6 -0.4 7.6 L0.2 7.1 0.3 6.9 0.65 6.9 1.05 6.05 1.45 5.85 1.7 5.2 1.9 5.25 2.05 5.25 2.05 5.2 2.2 5.1 2.3 5.05 2.65 4.55 2.45 3.95 2.1 3.75 M1.75 -0.35 L1.95 -1.45 2.2 -2.0 1.8 -2.9 0.75 -2.0 -0.05 -1.0 -0.15 0.05 -0.8 0.35 -0.3 2.1 0.95 2.3 1.15 1.95 1.85 1.7 2.1 1.1 1.75 -0.35 M-0.8 -4.9 L-0.95 -4.75 -1.0 -4.7 -1.05 -4.65 -1.15 -4.35 -1.2 -3.8 -1.15 -3.5 Q-1.1 -3.1 -0.75 -2.9 -0.2 -2.65 -0.1 -3.65 L-0.15 -4.05 Q-0.25 -5.0 -0.8 -4.9 M-2.55 -0.8 L-2.7 -0.55 -2.8 -0.15 -2.65 0.35 -2.55 0.5 -2.3 0.7 -2.1 0.75 -2.05 0.75 -1.55 0.5 -1.35 -0.15 -1.55 -0.8 -1.65 -0.9 -1.9 -1.05 -2.05 -1.1 -2.2 -1.05 -2.55 -0.8" fill="#66ffff" fill-rule="evenodd" stroke="none"/>
    <path d="M-4.15 3.75 L-3.85 4.45 -3.65 4.9 -3.5 5.25 -3.25 5.8 -2.75 6.95 -2.6 7.25 -2.25 7.7 -1.75 8.05 -1.65 8.1 -0.25 8.55 -0.05 8.6 -0.25 9.25 Q-0.4 10.0 0.4 10.0 1.0 9.5 1.0 8.55 L1.0 8.45 1.15 8.4 1.75 7.2 2.2 6.4 2.65 5.6 2.9 5.2 3.25 4.65 2.4 7.0 2.25 7.05 1.95 7.55 0.9 11.1 0.85 11.35 0.8 11.4 0.75 11.5 0.65 11.5 0.65 11.55 0.55 11.55 0.35 12.05 -0.05 12.7 -0.15 12.7 -0.15 12.75 -0.45 12.7 -0.55 12.55 -0.65 12.35 -1.6 10.1 -1.65 9.85 -1.7 9.85 -1.9 9.4 -3.9 5.3 -4.1 4.85 -4.25 4.45 -4.3 4.35 -4.3 4.3 -4.15 3.75 M1.75 -0.35 L2.1 1.1 1.85 1.7 1.15 1.95 0.95 2.3 -0.3 2.1 -0.8 0.35 -0.15 0.05 -0.05 -1.0 0.75 -2.0 1.8 -2.9 2.2 -2.0 1.95 -1.45 1.75 -0.35 M-1.1 6.8 L-1.7 6.75 -1.95 5.45 -3.4 3.6 -3.35 3.55 -3.05 2.45 -1.5 2.55 0.65 3.85 1.35 2.95 2.3 2.45 2.1 3.75 1.8 3.85 Q1.2 4.2 1.55 4.8 L1.55 4.85 1.7 5.2 1.45 5.85 1.05 6.05 0.65 6.9 0.3 6.9 Q0.45 6.35 0.1 5.9 L-0.25 5.8 Q-1.0 5.95 -1.1 6.8 M1.0 9.75 L0.95 9.8 1.0 9.8 1.0 9.75 M0.25 11.1 Q0.45 10.85 0.25 10.55 L-0.2 10.5 Q-0.75 10.9 -0.25 11.3 L-0.05 11.3 0.25 11.1 M-2.55 -0.8 L-2.2 -1.05 -2.05 -1.1 -1.9 -1.05 -1.65 -0.9 -1.55 -0.8 -1.35 -0.15 -1.55 0.5 -2.05 0.75 -2.1 0.75 -2.3 0.7 -2.55 0.5 -2.65 0.35 -2.8 -0.15 -2.7 -0.55 -2.55 -0.8" fill="#0099cc" fill-rule="evenodd" stroke="none"/>
  </g>
</svg>
