<?xml version="1.0" encoding="UTF-8" standalone="no"?>
<svg xmlns:xlink="http://www.w3.org/1999/xlink" height="13.65px" width="16.4px" xmlns="http://www.w3.org/2000/svg">
  <g transform="matrix(1.0, 0.0, 0.0, 1.0, 8.05, 6.2)">
    <path d="M1.45 -3.05 L1.85 -4.1 2.15 -4.5 2.2 -4.55 2.3 -4.6 2.75 -4.55 2.75 -4.4 Q3.1 -4.0 3.1 -3.45 L3.15 -3.0 3.1 -2.65 3.05 -2.25 Q2.65 -0.85 1.8 0.4 L1.7 0.65 1.15 1.7 0.8 2.35 0.25 2.95 0.0 2.75 0.1 2.5 -0.05 1.95 0.05 1.65 0.2 1.2 0.3 1.05 0.9 -1.35 1.45 -3.05 M4.5 -1.05 L4.6 -1.25 5.9 -3.1 6.7 -3.95 7.05 -3.9 7.15 -3.95 Q8.1 -4.0 8.3 -3.2 L8.35 -2.85 Q8.4 -1.95 7.7 -1.35 L7.6 -1.25 7.2 -0.6 5.2 1.6 5.15 1.6 3.45 2.95 3.0 3.3 2.45 3.85 1.85 4.05 1.4 4.3 1.95 2.85 2.15 2.6 2.55 2.05 2.95 1.2 4.5 -1.05 M7.45 2.35 L7.5 2.35 7.6 2.4 7.55 2.5 7.45 2.8 7.4 3.0 7.1 3.45 6.75 3.7 6.55 3.85 6.3 4.15 4.45 5.4 4.1 5.55 4.0 5.6 3.85 5.6 4.75 5.15 6.6 3.6 7.3 2.6 6.5 3.15 5.0 4.35 3.95 5.35 4.85 4.3 5.05 4.15 7.0 2.6 Q7.15 2.35 7.45 2.35 M-6.95 3.65 L-7.95 2.9 -8.05 2.75 -8.0 2.2 -8.0 2.1 -7.55 1.5 -5.35 2.3 -5.1 2.45 -3.7 3.2 -3.1 3.65 -2.9 3.9 -2.3 4.25 -2.25 4.3 -2.15 4.4 -2.0 4.55 -1.9 4.7 -2.0 4.6 -2.4 4.35 -2.85 4.1 -3.0 4.0 -4.65 3.0 -5.9 2.5 -7.3 1.95 -7.65 2.2 -7.5 2.85 -6.15 3.6 -6.0 3.65 -4.75 4.15 -4.5 4.25 -3.45 4.55 -2.85 4.7 -2.05 4.9 -1.9 4.9 -1.9 4.95 -1.95 4.95 -2.05 5.0 -2.1 5.05 -2.7 5.05 -3.3 4.9 -3.35 4.9 -5.0 4.55 -6.85 3.7 -6.95 3.65 M-6.45 -3.35 L-6.5 -3.4 -7.45 -4.55 -7.8 -5.3 -7.7 -5.8 -7.35 -6.2 -6.95 -5.9 -6.75 -5.8 -5.15 -4.85 -5.1 -4.8 -4.35 -4.2 -4.05 -3.8 -2.65 -1.6 -2.15 -0.75 -2.0 -0.5 -1.95 -0.4 -0.95 1.7 -0.95 1.75 -1.0 1.8 -1.0 1.85 Q-1.65 1.8 -2.05 1.15 L-2.15 0.95 -2.95 0.25 -4.5 -1.4 -6.45 -3.35 M2.3 -4.25 L2.3 -4.2 1.85 -3.4 1.85 -3.35 1.25 -1.85 0.75 -0.3 0.55 0.5 Q0.25 0.85 0.4 1.2 L0.1 2.4 0.65 1.85 0.75 1.75 0.75 1.7 1.8 0.2 2.05 -0.2 2.5 -1.2 2.6 -1.55 2.7 -2.35 2.7 -2.5 2.65 -2.9 2.55 -3.65 2.55 -3.7 2.4 -4.35 2.4 -4.4 2.3 -4.25 M4.45 -0.55 L3.4 0.95 2.75 2.1 2.6 2.4 2.5 2.5 2.25 3.0 2.05 3.35 2.0 3.4 1.85 3.7 1.65 4.05 2.0 3.8 2.25 3.6 3.35 2.75 4.0 2.3 5.5 1.05 5.75 0.75 6.7 -0.25 7.5 -1.45 8.05 -2.5 8.15 -2.7 7.75 -3.4 7.35 -3.8 7.3 -3.7 7.15 -3.55 6.05 -2.45 5.1 -1.35 4.9 -1.15 4.45 -0.55 M3.85 5.45 L3.85 5.4 3.95 5.35 3.85 5.45 M-1.75 1.15 L-2.05 0.2 -2.55 -0.75 -2.55 -0.8 -2.8 -1.2 -3.55 -2.45 -4.05 -3.2 -4.75 -3.95 -5.45 -4.6 -7.0 -5.7 -7.25 -5.85 -7.4 -5.15 -6.9 -4.55 -6.05 -3.55 -6.0 -3.45 -5.6 -3.0 -5.1 -2.45 -4.1 -1.45 -3.6 -1.0 -3.1 -0.45 -2.65 0.05 -2.65 0.1 -1.75 1.15" fill="#000000" fill-rule="evenodd" stroke="none"/>
    <path d="M7.55 2.5 L7.7 2.65 7.4 3.0 7.45 2.8 7.55 2.5 M-2.0 -0.5 L-1.95 -0.45 -1.95 -0.4 -2.0 -0.5 M5.2 1.6 L5.15 1.6 5.2 1.6" fill="#7e7ea9" fill-rule="evenodd" stroke="none"/>
    <path d="M4.45 -0.55 L4.9 -1.15 5.1 -1.35 6.05 -2.45 7.15 -3.55 7.3 -3.7 7.35 -3.8 7.75 -3.4 8.15 -2.7 8.05 -2.5 7.5 -1.45 6.7 -0.25 5.75 0.75 5.5 1.05 4.0 2.3 3.35 2.75 2.25 3.6 2.0 3.8 1.65 4.05 1.85 3.7 2.0 3.4 2.05 3.35 2.25 3.0 2.5 2.5 2.6 2.4 2.75 2.1 3.4 0.95 4.45 -0.55 M2.3 -4.25 L2.4 -4.4 2.4 -4.35 2.55 -3.7 2.55 -3.65 2.65 -2.9 2.7 -2.5 2.7 -2.35 2.6 -1.55 2.5 -1.2 2.05 -0.2 1.8 0.2 0.75 1.7 0.75 1.75 0.65 1.85 0.1 2.4 0.4 1.2 Q0.25 0.85 0.55 0.5 L0.75 -0.3 1.25 -1.85 1.85 -3.35 1.85 -3.4 2.3 -4.2 2.3 -4.25 M3.95 5.35 L5.0 4.35 6.5 3.15 7.3 2.6 6.6 3.6 4.75 5.15 3.85 5.6 3.65 5.65 3.85 5.45 3.95 5.35 M-1.75 1.15 L-2.65 0.1 -2.65 0.05 -3.1 -0.45 -3.6 -1.0 -4.1 -1.45 -5.1 -2.45 -5.6 -3.0 -6.0 -3.45 -6.05 -3.55 -6.9 -4.55 -7.4 -5.15 -7.25 -5.85 -7.0 -5.7 -5.45 -4.6 -4.75 -3.95 -4.05 -3.2 -3.55 -2.45 -2.8 -1.2 -2.55 -0.8 -2.55 -0.75 -2.05 0.2 -1.75 1.15 M-2.15 4.4 L-2.05 4.3 -2.0 4.55 -2.15 4.4 M-2.4 4.35 L-2.0 4.65 -2.0 4.75 -2.05 4.9 -2.85 4.7 -3.45 4.55 -4.5 4.25 -4.75 4.15 -6.0 3.65 -6.15 3.6 -7.5 2.85 -7.65 2.2 -7.3 1.95 -5.9 2.5 -4.65 3.0 -3.0 4.0 -2.85 4.1 -2.4 4.35 M-2.7 5.05 L-3.35 4.9 -3.3 4.9 -2.7 5.05" fill="#66ffff" fill-rule="evenodd" stroke="none"/>
    <path d="M1.15 1.7 L1.45 1.35 2.2 0.25 2.8 -0.45 4.5 -1.05 2.95 1.2 2.55 2.05 2.15 2.6 1.95 2.85 1.4 4.3 1.85 4.05 2.45 3.85 3.0 3.3 3.45 2.95 5.15 1.6 5.2 1.6 4.85 2.85 5.65 3.15 Q5.9 2.9 6.25 2.75 6.8 2.45 7.4 2.3 L7.45 2.35 Q7.15 2.35 7.0 2.6 L5.05 4.15 4.85 4.3 3.95 5.35 3.85 5.4 3.85 5.45 3.65 5.65 3.85 5.6 4.0 5.6 4.1 5.55 4.45 5.4 6.3 4.15 5.75 4.65 Q7.1 4.6 8.2 5.35 L7.8 5.85 3.65 6.2 3.4 7.15 3.15 7.4 2.95 7.45 3.1 7.4 3.1 7.35 Q3.2 6.6 2.5 6.65 L2.5 6.6 Q2.7 6.0 2.1 5.9 1.8 5.9 1.6 6.2 L1.45 6.45 1.45 6.5 1.3 6.45 1.25 6.05 1.25 6.0 Q1.3 5.5 0.95 5.4 0.75 5.05 0.3 5.0 L0.2 5.0 0.3 5.0 0.55 4.85 0.9 4.35 Q1.0 3.75 0.35 3.75 L-0.2 4.2 -0.75 4.0 Q-0.7 3.7 -1.1 3.55 -1.4 3.55 -1.55 3.9 L-1.45 4.35 Q-1.7 4.6 -1.6 5.0 L-1.4 5.2 -1.2 5.3 -1.2 5.55 -1.65 5.45 Q-2.05 5.45 -2.15 5.85 L-2.15 6.0 -2.25 6.0 -2.3 6.0 -2.35 6.05 -2.4 6.05 -2.55 6.3 -2.55 6.7 -3.1 6.7 -3.25 6.3 -3.15 6.1 -3.1 6.1 -2.75 6.05 Q-2.4 5.6 -2.9 5.4 L-3.25 5.75 -3.25 5.9 -3.75 6.0 Q-4.85 6.15 -5.95 5.5 L-6.0 5.05 -6.6 4.55 -7.2 4.05 -7.05 3.65 -6.95 3.65 -6.85 3.7 -5.0 4.55 -3.35 4.9 -2.7 5.05 -2.1 5.05 -2.05 5.0 -1.95 4.95 -1.9 4.95 -1.9 4.9 -2.05 4.9 -2.0 4.75 -2.0 4.65 -2.4 4.35 -2.0 4.6 -1.9 4.7 -2.0 4.55 -2.05 4.3 -2.15 4.4 -2.25 4.3 -2.3 4.25 -2.9 3.9 -3.1 3.65 -3.7 3.2 -5.1 2.45 -5.35 2.3 -3.45 2.45 Q-4.75 1.2 -5.25 -0.5 L-3.55 0.3 -6.65 -3.3 -6.45 -3.35 -4.5 -1.4 -2.95 0.25 -2.15 0.95 -2.05 1.15 Q-1.65 1.8 -1.0 1.85 L-1.0 1.8 -0.95 1.75 -0.95 1.7 -1.95 -0.4 -1.95 -0.45 Q-2.35 -1.85 -2.15 -3.1 -0.2 -1.95 -0.6 0.2 -0.15 -1.85 1.45 -3.05 L0.9 -1.35 0.3 1.05 0.2 1.2 0.05 1.65 -0.05 1.95 0.1 2.5 0.0 2.75 0.25 2.95 0.8 2.35 1.15 1.7 M2.9 5.55 Q3.35 5.45 3.3 5.05 3.3 4.35 2.65 4.35 2.15 4.5 2.2 5.05 2.2 5.7 2.9 5.55 M1.85 5.55 Q2.15 5.0 1.6 4.85 1.25 4.9 1.15 5.2 1.05 5.5 1.3 5.65 L1.85 5.55 M1.1 2.65 Q0.9 2.6 0.8 2.8 0.6 3.15 1.0 3.35 L1.3 3.25 Q1.7 2.8 1.1 2.65 M-1.6 2.1 L-1.8 2.45 Q-1.85 2.85 -1.35 2.8 L-1.25 2.65 Q-0.95 2.25 -1.45 2.1 L-1.6 2.1 M-2.2 3.3 Q-2.6 3.5 -2.45 3.85 -2.35 4.1 -2.1 3.95 -1.55 3.7 -1.95 3.3 L-2.15 3.25 -2.2 3.3 M-0.8 3.2 Q-1.05 3.5 -0.7 3.75 L-0.35 3.7 Q0.05 3.25 -0.55 3.05 L-0.8 3.2 M-1.55 6.6 L-1.65 6.6 -1.7 6.55 -1.45 6.55 -1.45 6.6 -1.3 6.6 -1.55 6.6" fill="#0099cc" fill-rule="evenodd" stroke="none"/>
    <path d="M2.95 7.45 L2.85 7.4 2.8 7.4 2.5 7.3 2.3 7.25 1.85 7.15 1.4 7.0 0.95 6.85 -0.7 6.95 -0.95 6.9 -1.05 6.85 -1.1 7.05 -1.2 7.15 -1.35 7.2 -1.55 7.25 -1.6 7.25 -1.7 7.2 -1.75 7.2 -1.75 7.15 -1.95 6.85 -1.95 6.8 -1.95 6.65 -2.0 6.65 -2.55 6.7 -2.55 6.3 -2.4 6.05 -2.35 6.05 -2.3 6.0 -2.25 6.0 -2.15 6.0 -2.15 5.85 Q-2.05 5.45 -1.65 5.45 L-1.2 5.55 -1.2 5.3 -1.4 5.2 -1.6 5.0 Q-1.7 4.6 -1.45 4.35 L-1.55 3.9 Q-1.4 3.55 -1.1 3.55 -0.7 3.7 -0.75 4.0 L-0.2 4.2 0.35 3.75 Q1.0 3.75 0.9 4.35 L0.55 4.85 0.3 5.0 0.2 5.0 0.3 5.0 Q0.75 5.05 0.95 5.4 1.3 5.5 1.25 6.0 L1.25 6.05 1.3 6.45 1.45 6.5 1.45 6.45 1.6 6.2 Q1.8 5.9 2.1 5.9 2.7 6.0 2.5 6.6 L2.5 6.65 Q3.2 6.6 3.1 7.35 L3.1 7.4 2.95 7.45 M-3.15 6.1 L-3.05 5.85 -3.25 5.9 -3.25 5.75 -2.9 5.4 Q-2.4 5.6 -2.75 6.05 L-3.1 6.1 -3.15 6.1 M1.1 2.65 Q1.7 2.8 1.3 3.25 L1.0 3.35 Q0.6 3.15 0.8 2.8 0.9 2.6 1.1 2.65 M1.85 5.55 L1.3 5.65 Q1.05 5.5 1.15 5.2 1.25 4.9 1.6 4.85 2.15 5.0 1.85 5.55 M2.9 5.55 Q2.2 5.7 2.2 5.05 2.15 4.5 2.65 4.35 3.3 4.35 3.3 5.05 3.35 5.45 2.9 5.55 M-1.6 2.1 L-1.45 2.1 Q-0.95 2.25 -1.25 2.65 L-1.35 2.8 Q-1.85 2.85 -1.8 2.45 L-1.6 2.1 M-0.8 3.2 L-0.55 3.05 Q0.05 3.25 -0.35 3.7 L-0.7 3.75 Q-1.05 3.5 -0.8 3.2 M-2.2 3.3 L-2.15 3.25 -1.95 3.3 Q-1.55 3.7 -2.1 3.95 -2.35 4.1 -2.45 3.85 -2.6 3.5 -2.2 3.3 M-1.55 6.6 L-1.3 6.6 -1.45 6.6 -1.45 6.55 -1.7 6.55 -1.65 6.6 -1.55 6.6" fill="#ffffff" fill-rule="evenodd" stroke="none"/>
  </g>
</svg>
