<?xml version="1.0" encoding="UTF-8" standalone="no"?>
<svg xmlns:xlink="http://www.w3.org/1999/xlink" height="14.95px" width="14.0px" xmlns="http://www.w3.org/2000/svg">
  <g transform="matrix(1.0, 0.0, 0.0, 1.0, 7.8, 0.25)">
    <path d="M2.85 -0.25 L2.9 -0.2 3.0 -0.1 4.4 1.7 5.1 2.65 Q5.6 5.3 5.6 8.1 L5.6 8.55 5.5 8.55 5.4 9.9 5.35 10.75 5.25 11.55 Q5.1 12.65 4.65 13.25 3.7 14.6 1.4 13.7 L1.15 13.4 1.05 13.25 0.6 12.4 0.15 10.55 0.15 9.2 0.3 9.15 0.5 8.45 0.6 7.6 0.6 7.25 0.45 5.0 Q0.3 4.25 0.3 3.5 L0.25 3.2 0.25 2.75 0.2 2.6 Q0.7 0.45 2.85 -0.25 M4.5 9.05 L4.5 8.85 Q4.35 8.35 3.9 8.8 L3.25 9.15 3.1 9.25 1.15 9.6 0.95 9.55 0.85 9.55 0.95 9.65 1.1 9.85 1.5 10.1 Q2.5 10.5 3.5 10.1 L3.8 9.95 4.5 9.05 M-4.5 -0.2 L-4.45 -0.25 Q-2.35 0.45 -1.8 2.6 L-1.85 2.75 -1.9 3.2 -1.9 3.5 -2.05 5.0 -2.2 7.25 -2.2 7.6 -2.1 8.45 -1.95 9.15 -1.75 9.2 -1.75 10.55 -2.25 12.4 -2.65 13.25 -2.8 13.4 -3.0 13.7 Q-5.35 14.6 -6.3 13.25 -6.75 12.65 -6.85 11.55 L-6.95 10.75 -7.05 9.9 -7.15 8.55 -7.25 8.55 -7.25 8.1 Q-7.25 5.3 -6.7 2.65 L-6.05 1.7 -4.6 -0.1 -4.55 -0.2 -4.5 -0.2 M-6.1 9.05 L-5.4 9.95 -5.15 10.1 Q-4.15 10.5 -3.1 10.1 L-2.75 9.85 -2.55 9.65 -2.5 9.55 -2.55 9.55 -2.75 9.6 -4.75 9.25 -4.85 9.15 -5.55 8.8 -6.15 8.85 -6.1 9.05" fill="#999999" fill-rule="evenodd" stroke="none"/>
    <path d="M2.9 -0.2 L2.85 -0.25 2.9 -0.2 M-4.5 -0.2 L-4.5 -0.25 -4.45 -0.25 -4.5 -0.2" fill="#6666cc" fill-rule="evenodd" stroke="none"/>
    <path d="M0.25 2.75 L0.25 3.2 0.3 3.5 Q0.3 4.25 0.45 5.0 L0.6 7.25 0.6 7.6 0.5 8.45 0.3 9.15 0.15 9.2 0.15 10.55 0.6 12.4 1.05 13.25 1.15 13.4 1.4 13.7 Q3.7 14.6 4.65 13.25 5.1 12.65 5.25 11.55 L5.35 10.75 5.4 9.9 5.5 8.55 5.6 8.55 5.6 8.1 Q5.6 5.3 5.1 2.65 L5.15 2.8 5.9 5.0 6.0 7.1 6.05 7.7 6.1 8.5 6.15 8.5 6.15 9.0 6.15 9.1 6.2 9.85 6.1 9.85 5.9 11.5 5.6 12.45 5.4 13.0 5.4 13.1 4.7 14.0 4.55 14.15 4.5 14.15 4.25 14.35 4.2 14.35 4.0 14.5 3.65 14.6 2.3 14.7 2.0 14.65 1.8 14.55 Q0.6 13.95 0.1 12.75 L-0.15 11.65 -0.4 10.25 -0.4 9.65 -0.2 9.25 -0.1 9.2 0.25 8.0 0.35 7.7 0.35 7.65 0.05 6.4 -0.1 4.7 -0.05 4.2 -0.05 4.1 Q-0.1 3.35 0.25 2.75 M4.5 9.05 L3.8 9.95 3.5 10.1 Q2.5 10.5 1.5 10.1 L1.1 9.85 0.95 9.65 0.85 9.55 0.95 9.55 1.15 9.6 3.1 9.25 3.25 9.15 3.9 8.8 Q4.35 8.35 4.5 8.85 L4.5 9.05 M-1.85 2.75 Q-1.55 3.35 -1.6 4.1 L-1.55 4.2 -1.5 4.7 -1.7 6.4 -1.95 7.65 -1.95 7.7 -1.85 8.0 -1.55 9.2 -1.4 9.25 -1.25 9.65 -1.25 10.25 Q-1.25 11.0 -1.5 11.65 L-1.75 12.75 Q-2.25 13.95 -3.45 14.55 L-3.6 14.65 -3.9 14.7 -5.25 14.6 -5.6 14.5 -5.85 14.35 -5.9 14.35 -6.1 14.15 -6.15 14.15 -6.3 14.0 -7.0 13.1 -7.05 13.0 -7.2 12.45 -7.5 11.5 -7.7 9.85 -7.8 9.85 -7.8 9.1 -7.75 9.0 -7.75 8.5 -7.65 7.7 -7.65 7.1 -7.55 5.0 -6.8 2.8 -6.7 2.65 Q-7.25 5.3 -7.25 8.1 L-7.25 8.55 -7.15 8.55 -7.05 9.9 -6.95 10.75 -6.85 11.55 Q-6.75 12.65 -6.3 13.25 -5.35 14.6 -3.0 13.7 L-2.8 13.4 -2.65 13.25 -2.25 12.4 -1.75 10.55 -1.75 9.2 -1.95 9.15 -2.1 8.45 -2.2 7.6 -2.2 7.25 -2.05 5.0 -1.9 3.5 -1.9 3.2 -1.85 2.75 M-6.1 9.05 L-6.15 8.85 -5.55 8.8 -4.85 9.15 -4.75 9.25 -2.75 9.6 -2.55 9.55 -2.5 9.55 -2.55 9.65 -2.75 9.85 -3.1 10.1 Q-4.15 10.5 -5.15 10.1 L-5.4 9.95 -6.1 9.05" fill="#000000" fill-rule="evenodd" stroke="none"/>
  </g>
</svg>
