<?xml version="1.0" encoding="UTF-8" standalone="no"?>
<svg xmlns:xlink="http://www.w3.org/1999/xlink" height="23.8px" width="23.5px" xmlns="http://www.w3.org/2000/svg">
  <g transform="matrix(1.0, 0.0, 0.0, 1.0, 11.75, 11.9)">
    <path d="M-10.65 -5.05 L-10.35 -7.15 Q-10.0 -9.35 -9.05 -11.3 L-7.55 -11.9 -7.1 -11.65 -6.6 -11.0 -5.15 -7.7 -5.0 -7.9 -4.5 -8.3 Q-3.55 -8.75 -2.4 -8.8 L-0.3 -8.45 -0.1 -8.35 Q1.0 -7.7 1.7 -6.65 L2.0 -7.2 3.65 -9.3 6.1 -8.75 8.9 -7.6 Q10.4 -7.05 11.2 -6.4 12.0 -5.7 11.6 -4.85 10.75 -3.15 11.05 -1.2 L11.0 -1.2 11.0 -1.15 10.85 -0.5 10.6 -0.25 10.05 -0.35 Q9.6 -0.6 9.65 -1.1 L9.6 -1.55 9.65 -1.65 9.6 -1.65 9.65 -2.8 9.3 -5.1 8.9 -5.35 Q7.4 -6.5 5.5 -6.75 L5.05 -6.75 2.55 -4.3 2.6 -3.7 Q2.65 -2.2 2.3 -0.8 L2.1 -0.4 2.1 -0.35 2.05 -0.2 2.0 -0.15 1.9 0.0 1.85 0.1 1.75 0.35 1.35 1.05 1.1 1.3 1.05 1.35 0.95 1.4 0.9 1.45 0.85 1.5 0.55 5.3 1.15 6.9 Q1.65 7.95 2.5 8.75 L3.1 9.25 3.8 9.75 4.7 9.55 Q5.5 9.3 6.3 8.85 L7.45 8.3 Q8.45 8.05 8.35 8.65 L7.9 9.2 7.35 9.8 Q6.6 10.7 5.35 11.2 L3.25 11.9 2.25 11.65 -0.75 8.85 -1.25 8.5 -1.85 8.15 Q-3.0 7.35 -2.45 5.9 L-1.05 2.35 Q-3.05 2.85 -4.9 2.0 L-5.05 1.95 -9.25 6.05 -7.3 8.2 -6.9 8.35 -5.95 7.3 -4.4 7.45 -5.75 9.15 Q-6.4 10.0 -7.45 10.2 -10.6 8.65 -11.7 7.2 -11.9 6.0 -11.5 4.8 L-10.1 3.65 -6.25 0.9 -6.6 0.35 -7.15 -1.0 -7.4 -2.2 -7.3 -3.5 -7.2 -4.3 -7.15 -4.4 -7.15 -4.55 Q-6.9 -5.65 -6.25 -6.5 -7.0 -7.45 -8.05 -8.1 L-9.15 -5.45 -9.15 -5.3 -8.2 -0.6 Q-8.0 -0.35 -8.1 0.1 L-8.25 0.5 -8.35 0.55 -8.5 0.6 Q-9.2 0.55 -9.3 0.05 L-9.35 0.05 -9.4 -0.05 -9.6 -0.5 -10.55 -3.75 -10.65 -4.95 -10.65 -4.9 -10.35 -4.4 -8.85 -0.95 -9.3 -3.3 -9.4 -3.65 -9.6 -4.7 -9.65 -4.95 -9.7 -5.15 -7.8 -9.4 -6.95 -8.35 -6.85 -8.2 -5.9 -7.0 -5.55 -7.35 -5.3 -7.55 Q-5.75 -9.0 -6.6 -10.25 L-7.0 -10.8 -7.6 -11.5 -8.8 -10.9 -9.1 -9.9 -10.45 -5.35 -10.65 -5.05 M1.65 -5.85 L1.5 -6.25 1.4 -6.4 0.7 -7.35 Q-0.15 -8.25 -1.35 -8.35 L-1.9 -8.4 -2.2 -8.4 -2.5 -8.35 -2.75 -8.35 Q-3.8 -8.15 -4.65 -7.55 L-4.95 -7.3 -5.15 -7.1 -5.15 -7.05 -5.55 -6.55 -5.6 -6.55 -5.95 -6.05 -6.35 -5.45 -6.65 -4.7 -6.8 -3.9 -6.85 -3.5 -7.0 -2.05 -6.95 -1.75 -6.95 -1.7 -6.9 -1.45 -6.85 -1.35 -6.85 -1.2 -6.65 -0.45 -5.95 0.7 -5.35 1.25 -5.1 1.4 -5.0 1.45 -4.85 1.6 -4.8 1.65 Q-4.0 2.05 -3.1 2.1 L-1.3 2.0 -0.9 1.9 -0.25 1.6 -0.15 1.65 0.4 1.45 0.45 1.4 0.65 1.2 0.75 1.1 0.85 0.95 1.4 0.1 1.5 -0.1 1.75 -0.8 Q2.3 -1.65 2.2 -2.7 L2.15 -3.4 2.15 -3.6 2.15 -3.9 2.15 -4.0 1.85 -5.35 1.65 -5.85 M-0.85 -7.15 L-0.6 -7.05 0.1 -6.4 0.2 -6.2 0.7 -5.05 0.85 -4.15 0.85 -4.0 0.9 -3.95 1.0 -3.85 1.15 -3.7 1.15 -3.65 Q1.7 -2.9 1.35 -1.75 L0.95 -0.85 0.75 -0.5 0.7 -0.5 0.45 -0.25 0.35 -0.1 -0.05 0.6 -0.4 0.95 -0.6 1.15 -0.7 1.2 Q-1.35 1.65 -2.25 1.75 -3.4 2.0 -4.4 1.25 L-4.45 1.2 -4.5 1.15 -5.15 0.4 -5.45 -0.2 -5.5 -0.45 -5.55 -0.65 -5.6 -0.8 -5.65 -0.85 -5.8 -1.0 -5.9 -1.15 -6.3 -2.05 -6.15 -3.15 -6.1 -3.35 -6.05 -3.5 -6.0 -3.55 -5.9 -3.7 -5.75 -3.95 -5.65 -4.1 -5.2 -4.9 -5.1 -5.05 -5.0 -5.2 -4.4 -5.95 -4.15 -6.3 -3.45 -6.85 -3.2 -7.05 -2.8 -7.25 -0.85 -7.15 M5.1 -8.3 L4.6 -8.5 4.45 -8.55 3.9 -8.65 3.3 -8.0 3.1 -7.7 2.8 -7.35 2.05 -5.95 2.55 -4.5 3.95 -6.3 4.0 -6.35 4.75 -7.05 5.2 -7.25 9.8 -5.7 9.8 -5.65 9.9 -5.05 9.9 -4.9 9.9 -4.85 9.95 -4.4 10.3 -1.55 10.4 -1.5 10.8 -5.45 10.8 -5.5 10.85 -5.95 10.85 -6.25 10.8 -6.25 10.6 -6.35 5.1 -8.3 M0.2 -5.75 L-0.95 -6.7 -2.0 -7.0 -2.9 -6.85 -3.6 -6.45 -4.2 -5.7 -4.25 -5.55 -4.55 -5.0 -4.85 -4.15 -5.05 -3.15 -5.1 -2.65 -5.1 -2.35 -5.1 -0.75 -4.9 0.1 -4.7 0.45 -3.8 1.1 -3.75 1.15 -1.65 1.2 Q-0.5 0.8 0.0 -0.2 L0.05 -0.4 0.6 -2.8 0.55 -4.35 0.4 -5.1 0.2 -5.75 M1.15 -2.15 L1.05 -3.25 0.95 -2.95 0.95 -2.9 0.7 -1.95 0.5 -0.5 1.15 -1.9 1.15 -2.15 M-5.45 -2.85 L-5.3 -4.1 -5.4 -4.1 -5.55 -4.0 -5.8 -3.7 -5.95 -3.35 -6.05 -3.0 -6.05 -2.6 -5.55 -1.2 -5.45 -2.85 M-1.9 5.9 L-1.95 6.0 -2.1 6.35 -2.05 6.45 -1.8 7.5 -1.1 8.05 3.55 11.55 3.65 11.65 8.2 8.5 4.25 10.1 4.0 10.2 Q3.4 10.3 2.9 9.9 L2.65 9.65 1.4 8.0 0.55 6.45 0.5 6.3 0.25 5.55 0.15 5.1 0.05 3.9 0.1 3.25 0.5 1.65 0.2 1.85 -0.35 2.1 -1.2 4.15 -1.9 5.9 M-7.3 3.75 L-5.15 1.85 -5.95 1.25 -6.35 1.25 -8.2 2.75 -11.05 5.05 -11.4 5.3 -11.3 6.7 -11.3 6.95 -7.25 9.65 -7.05 9.8 -5.55 7.5 -7.15 8.6 -7.3 8.5 -9.9 6.3 -9.25 5.6 -8.1 4.45 -7.3 3.75" fill="#000000" fill-rule="evenodd" stroke="none"/>
    <path d="M-6.6 -10.25 Q-5.75 -9.0 -5.3 -7.55 L-5.55 -7.35 -5.9 -7.0 -6.85 -8.2 -6.95 -8.35 -7.2 -8.65 Q-6.5 -9.05 -6.55 -9.95 L-6.6 -10.1 -6.6 -10.25 M-9.6 -4.7 L-9.4 -3.65 -9.3 -3.3 -8.85 -0.95 -10.35 -4.4 -9.9 -4.4 -9.7 -4.75 -9.65 -4.8 -9.6 -4.7 M-1.35 -8.35 Q-0.15 -8.25 0.7 -7.35 L1.4 -6.4 1.5 -6.25 1.65 -5.85 1.6 -5.4 1.55 -4.95 1.2 -3.85 1.15 -3.7 1.0 -3.85 0.9 -3.95 0.85 -4.0 0.85 -4.15 0.7 -5.05 0.2 -6.2 0.1 -6.4 -0.6 -7.05 -0.85 -7.15 Q-0.75 -7.7 -1.1 -8.1 L-1.35 -8.35 M-6.85 -1.2 L-6.85 -1.35 -6.9 -1.45 -6.95 -1.7 -6.95 -1.75 -7.0 -2.05 -6.85 -3.5 -6.8 -3.9 -6.4 -3.65 -6.05 -3.5 -6.1 -3.35 -6.15 -3.15 -6.3 -2.05 -5.9 -1.15 -5.8 -1.0 -5.65 -0.85 -5.55 -0.65 -5.5 -0.45 -5.45 -0.2 -6.2 -0.5 -6.75 -0.95 -6.85 -1.2 M10.6 -6.35 L10.8 -6.25 10.85 -6.25 10.85 -5.95 10.55 -6.25 10.6 -6.35 M10.8 -5.45 L10.4 -1.5 10.3 -1.55 9.95 -4.4 9.95 -4.5 9.9 -4.85 9.9 -4.9 9.9 -5.05 9.8 -5.65 10.05 -5.65 Q10.15 -5.25 10.7 -5.35 L10.8 -5.45 M4.0 -6.35 L3.95 -6.3 2.55 -4.5 2.05 -5.95 2.8 -7.35 Q2.8 -6.35 3.3 -6.35 L4.0 -6.35 M-1.2 4.15 L-0.35 2.1 0.2 1.85 0.5 1.65 0.1 3.25 0.05 3.9 0.15 5.1 0.25 5.55 Q0.05 5.4 0.0 5.05 L-0.3 4.45 Q-0.65 4.05 -1.2 4.15 M2.9 9.9 Q3.4 10.3 4.0 10.2 L4.25 10.1 8.2 8.5 3.65 11.65 3.55 11.55 3.5 10.9 3.3 10.6 Q2.85 10.25 2.9 9.9 M-8.2 2.75 L-6.35 1.25 -5.95 1.25 -5.15 1.85 -7.3 3.75 Q-7.3 3.4 -7.45 3.1 L-7.75 2.85 -8.2 2.75 M-7.3 8.5 L-7.15 8.6 -5.55 7.5 -7.05 9.8 -7.25 9.65 -7.05 9.1 -7.05 8.95 -7.1 8.65 -7.3 8.5" fill="#999999" fill-rule="evenodd" stroke="none"/>
    <path d="M-10.65 -5.05 L-10.45 -5.35 -10.35 -5.45 -10.15 -5.45 Q-9.8 -5.4 -9.7 -5.15 L-9.65 -4.95 -9.65 -4.8 -9.7 -4.75 -9.9 -4.4 -10.35 -4.4 -10.65 -4.9 -10.65 -4.95 -10.65 -5.0 -10.65 -5.05 M-9.1 -9.9 L-8.8 -10.9 -7.6 -11.5 -7.0 -10.8 -7.35 -10.35 -7.4 -10.3 -7.45 -10.3 -7.65 -10.25 Q-8.35 -9.7 -9.1 -9.9 M3.1 -7.7 L3.3 -8.0 3.9 -8.65 4.45 -8.55 4.6 -8.5 5.1 -8.3 Q5.3 -7.95 4.85 -7.55 4.6 -7.3 4.15 -7.35 L3.5 -7.4 3.1 -7.7 M10.85 -5.95 L10.8 -5.5 10.8 -5.45 10.7 -5.35 Q10.15 -5.25 10.05 -5.65 L10.0 -5.95 Q10.05 -6.35 10.4 -6.35 L10.55 -6.25 10.85 -5.95 M-3.1 -6.1 L-2.4 -5.9 -2.25 -5.5 -4.0 -3.35 -4.25 -3.7 -4.3 -4.4 -3.15 -6.1 -3.1 -6.1 M-1.95 6.0 L-1.9 5.9 -1.85 5.8 -1.3 5.5 Q-0.35 5.4 -0.2 6.25 L-0.25 6.95 -0.5 7.6 -1.1 8.05 -1.8 7.5 -2.05 6.45 -1.95 6.0 M-11.3 6.7 L-11.4 5.3 -11.05 5.05 -10.6 4.7 Q-10.0 4.75 -10.05 5.4 -10.05 6.0 -10.45 6.45 -10.85 6.85 -11.3 6.7" fill="#ffffff" fill-rule="evenodd" stroke="none"/>
    <path d="M-10.45 -5.35 L-9.1 -9.9 Q-8.35 -9.7 -7.65 -10.25 L-7.45 -10.3 -7.4 -10.3 -7.35 -10.35 -7.0 -10.8 -6.6 -10.25 -6.6 -10.1 -6.55 -9.95 Q-6.5 -9.05 -7.2 -8.65 L-6.95 -8.35 -7.8 -9.4 -9.7 -5.15 Q-9.8 -5.4 -10.15 -5.45 L-10.35 -5.45 -10.45 -5.35 M-9.65 -4.95 L-9.6 -4.7 -9.65 -4.8 -9.65 -4.95 M-6.8 -3.9 L-6.65 -4.7 -6.35 -5.45 -5.95 -6.05 -5.6 -6.55 -5.55 -6.55 -5.15 -7.05 -5.15 -7.1 -4.95 -7.3 -4.65 -7.55 Q-3.8 -8.15 -2.75 -8.35 L-2.5 -8.35 -2.2 -8.4 -1.9 -8.4 -1.35 -8.35 -1.1 -8.1 Q-0.75 -7.7 -0.85 -7.15 L-2.8 -7.25 -3.2 -7.05 -3.45 -6.85 -4.15 -6.3 -4.4 -5.95 -5.0 -5.2 -5.1 -5.05 -5.2 -4.9 -5.65 -4.1 -5.75 -3.95 -5.9 -3.7 -6.0 -3.55 -6.05 -3.5 -6.4 -3.65 -6.8 -3.9 M5.1 -8.3 L10.6 -6.35 10.55 -6.25 10.4 -6.35 Q10.05 -6.35 10.0 -5.95 L10.05 -5.65 9.8 -5.65 9.8 -5.7 5.2 -7.25 4.75 -7.05 4.0 -6.35 3.3 -6.35 Q2.8 -6.35 2.8 -7.35 L3.1 -7.7 3.5 -7.4 4.15 -7.35 Q4.6 -7.3 4.85 -7.55 5.3 -7.95 5.1 -8.3 M9.95 -4.4 L9.9 -4.85 9.95 -4.5 9.95 -4.4 M-1.9 5.9 L-1.2 4.15 Q-0.65 4.05 -0.3 4.45 L0.0 5.05 Q0.05 5.4 0.25 5.55 L0.5 6.3 0.55 6.45 1.4 8.0 2.65 9.65 2.9 9.9 Q2.85 10.25 3.3 10.6 L3.5 10.9 3.55 11.55 -1.1 8.05 -0.5 7.6 -0.25 6.95 -0.2 6.25 Q-0.35 5.4 -1.3 5.5 L-1.85 5.8 -1.9 5.9 M-2.05 6.45 L-2.1 6.35 -1.95 6.0 -2.05 6.45 M-8.2 2.75 L-7.75 2.85 -7.45 3.1 Q-7.3 3.4 -7.3 3.75 L-8.1 4.45 -9.25 5.6 -9.9 6.3 -7.3 8.5 -7.1 8.65 -7.05 8.95 -7.05 9.1 -7.25 9.65 -11.3 6.95 -11.3 6.7 Q-10.85 6.85 -10.45 6.45 -10.05 6.0 -10.05 5.4 -10.0 4.75 -10.6 4.7 L-11.05 5.05 -8.2 2.75" fill="#cccccc" fill-rule="evenodd" stroke="none"/>
    <path d="M1.65 -5.85 L1.85 -5.35 2.15 -4.0 2.15 -3.9 2.15 -3.6 2.15 -3.4 2.2 -2.7 Q2.3 -1.65 1.75 -0.8 L1.5 -0.1 1.4 0.1 0.85 0.95 0.75 1.1 0.65 1.2 0.45 1.4 0.4 1.45 -0.15 1.65 -0.25 1.6 -0.9 1.9 -1.3 2.0 -3.1 2.1 Q-4.0 2.05 -4.8 1.65 L-4.85 1.6 -5.0 1.45 -5.1 1.4 -5.35 1.25 -5.95 0.7 -6.65 -0.45 -6.85 -1.2 -6.75 -0.95 -6.2 -0.5 -5.45 -0.2 -5.15 0.4 -4.5 1.15 -4.45 1.2 -4.4 1.25 Q-3.4 2.0 -2.25 1.75 -1.35 1.65 -0.7 1.2 L-0.6 1.15 -0.4 0.95 -0.05 0.6 0.35 -0.1 0.45 -0.25 0.7 -0.5 0.75 -0.5 0.95 -0.85 1.35 -1.75 Q1.7 -2.9 1.15 -3.65 L1.15 -3.7 1.2 -3.85 1.55 -4.95 1.6 -5.4 1.65 -5.85" fill="#666666" fill-rule="evenodd" stroke="none"/>
    <path d="M0.2 -5.75 L0.4 -5.1 0.55 -4.35 0.6 -2.8 0.05 -0.4 0.0 -0.2 Q-0.5 0.8 -1.65 1.2 L-3.75 1.15 -3.8 1.1 -4.7 0.45 -4.9 0.1 -5.1 -0.75 -5.1 -2.35 -5.1 -2.65 -5.05 -3.15 -4.85 -4.15 -4.55 -5.0 -4.25 -5.55 -4.2 -5.7 -3.6 -6.45 -2.9 -6.85 -2.0 -7.0 -0.95 -6.7 0.2 -5.75 M0.7 -1.95 L0.95 -2.9 0.95 -2.95 1.05 -3.25 1.15 -2.15 1.05 -1.95 0.95 -2.0 0.9 -1.95 0.7 -1.95 M-6.05 -2.6 L-6.05 -3.0 -5.95 -3.35 -5.8 -3.7 -5.55 -4.0 -5.4 -4.1 -5.3 -4.1 -5.45 -2.85 -5.95 -2.65 -6.0 -2.65 -6.05 -2.6 M-4.3 -4.4 Q-4.85 -3.25 -4.15 -2.05 L-3.4 -1.15 -3.15 -1.05 Q-2.7 -1.05 -2.35 -1.3 -1.05 -2.25 -0.8 -3.95 -0.7 -4.8 -1.05 -5.7 -1.4 -6.5 -2.45 -6.5 L-3.1 -6.15 -3.15 -6.1 -4.3 -4.4" fill="#e3b18b" fill-rule="evenodd" stroke="none"/>
    <path d="M0.7 -1.95 L0.9 -1.95 0.95 -2.0 1.05 -1.95 1.15 -1.9 0.5 -0.5 0.7 -1.95 M-5.45 -2.85 L-5.55 -1.2 -6.05 -2.6 -6.0 -2.65 -5.95 -2.65 -5.45 -2.85" fill="#ad7a3f" fill-rule="evenodd" stroke="none"/>
    <path d="M1.05 -1.95 L1.15 -2.15 1.15 -1.9 1.05 -1.95" fill="#7c00a6" fill-rule="evenodd" stroke="none"/>
    <path d="M-4.3 -4.4 L-4.25 -3.7 -4.0 -3.35 -2.25 -5.5 -2.4 -5.9 -3.1 -6.1 -3.1 -6.15 -2.45 -6.5 Q-1.4 -6.5 -1.05 -5.7 -0.7 -4.8 -0.8 -3.95 -1.05 -2.25 -2.35 -1.3 -2.7 -1.05 -3.15 -1.05 L-3.4 -1.15 -4.15 -2.05 Q-4.85 -3.25 -4.3 -4.4" fill="#edcdb6" fill-rule="evenodd" stroke="none"/>
    <path d="M-3.1 -6.15 L-3.1 -6.1 -3.15 -6.1 -3.1 -6.15" fill="#9900cc" fill-rule="evenodd" stroke="none"/>
  </g>
</svg>
