<?xml version="1.0" encoding="UTF-8" standalone="no"?>
<svg xmlns:xlink="http://www.w3.org/1999/xlink" height="15.9px" width="30.65px" xmlns="http://www.w3.org/2000/svg">
  <g transform="matrix(1.0, 0.0, 0.0, 1.0, 15.35, 7.95)">
    <path d="M9.6 0.6 L9.75 0.25 9.95 -0.15 10.05 -0.35 10.15 -0.5 10.35 -0.95 10.45 -1.15 10.65 -1.65 Q11.0 -2.35 10.85 -3.15 L10.75 -3.5 10.4 -4.45 10.25 -4.95 Q9.9 -5.65 10.45 -6.15 L10.65 -6.15 10.85 -6.0 11.05 -5.55 11.2 -5.4 11.3 -5.25 11.35 -5.25 11.55 -5.8 11.6 -5.95 11.6 -5.75 11.7 -6.25 11.7 -7.6 11.8 -7.7 11.8 -7.75 11.85 -7.8 12.0 -7.9 12.15 -7.95 12.2 -7.9 12.45 -7.9 12.5 -7.85 12.85 -7.75 12.9 -7.7 13.3 -7.35 14.45 -5.75 Q15.4 -3.85 15.3 -1.7 15.25 -0.3 14.85 0.95 L14.65 1.5 Q14.45 2.15 13.8 2.15 14.45 1.6 14.7 0.7 L14.7 0.6 14.8 0.0 14.55 -4.0 14.55 -4.1 13.35 -6.6 13.0 -7.2 12.8 -7.4 12.55 -7.5 12.05 -7.55 12.0 -7.45 12.05 -7.2 12.1 -7.0 12.3 -6.25 12.2 -6.05 12.2 -6.0 10.95 -3.95 11.25 -4.4 Q11.65 -3.3 11.25 -2.1 11.0 -0.15 9.7 1.3 L9.65 1.3 9.5 1.05 9.6 0.6 M-11.45 -1.1 L-12.3 -0.95 -12.5 -0.8 -13.6 0.05 Q-14.35 0.9 -14.7 2.0 L-15.0 3.75 -14.95 4.0 -14.75 5.45 -14.25 6.05 -12.85 7.4 -10.85 7.35 -10.45 6.75 -10.45 5.3 -10.45 4.05 Q-10.3 4.15 -10.25 4.4 L-10.05 5.4 Q-9.9 6.35 -10.3 7.2 L-10.85 7.7 -13.65 7.6 Q-14.7 6.65 -15.1 5.3 L-15.3 4.1 Q-15.6 1.75 -14.25 -0.15 -13.4 -1.3 -12.0 -1.3 L-11.85 -1.25 -11.45 -1.15 -11.45 -1.1" fill="#000000" fill-rule="evenodd" stroke="none"/>
    <path d="M13.8 2.15 Q13.1 2.75 12.0 3.0 10.3 2.7 9.5 2.0 L9.45 1.65 9.45 1.6 Q9.45 1.05 9.6 0.6 L9.5 1.05 9.65 1.3 9.7 1.3 Q11.0 -0.15 11.25 -2.1 11.65 -3.3 11.25 -4.4 L10.95 -3.95 12.2 -6.0 12.2 -6.05 12.3 -6.25 12.1 -7.0 12.05 -7.2 12.0 -7.45 12.05 -7.55 12.55 -7.5 12.8 -7.4 13.0 -7.2 13.35 -6.6 14.55 -4.1 14.55 -4.0 14.8 0.0 14.7 0.6 14.7 0.7 Q14.45 1.6 13.8 2.15 M-10.45 4.05 L-10.45 5.3 -10.45 6.75 -10.85 7.35 -12.85 7.4 -14.25 6.05 -14.75 5.45 -14.95 4.0 -15.0 3.75 -14.7 2.0 Q-14.35 0.9 -13.6 0.05 L-12.5 -0.8 -12.3 -0.95 -11.45 -1.1 -11.25 -0.45 -10.85 0.6 -11.05 0.95 Q-10.45 1.7 -10.5 2.7 L-10.45 3.15 -10.45 4.05" fill="#999999" fill-rule="evenodd" stroke="none"/>
  </g>
</svg>
