<?xml version="1.0" encoding="UTF-8" standalone="no"?>
<svg xmlns:xlink="http://www.w3.org/1999/xlink" height="11.3px" width="30.1px" xmlns="http://www.w3.org/2000/svg">
  <g transform="matrix(1.0, 0.0, 0.0, 1.0, 15.05, 5.65)">
    <path d="M4.75 -4.7 L4.55 -4.95 Q3.7 -5.4 3.85 -4.75 L2.4 -4.85 2.1 -5.35 2.05 -5.45 1.9 -4.85 -0.3 -4.8 Q-0.45 -5.55 -0.7 -5.05 L-0.75 -4.8 -3.25 -4.65 -3.5 -4.75 -3.5 -4.6 -8.25 -4.1 -8.6 -4.05 -9.45 -4.0 -10.35 -4.05 -10.35 -4.2 -10.95 -4.0 -12.6 -3.45 -13.45 -3.0 -13.6 -3.0 -13.7 -2.8 -14.45 -1.35 -14.7 0.2 -14.1 1.85 -13.45 2.8 -11.85 3.85 -11.05 4.05 -10.75 4.1 -8.6 3.9 -7.85 4.15 -7.9 4.1 -5.55 4.6 -4.95 4.55 -4.95 4.5 -5.0 4.4 -5.15 4.25 -6.05 2.7 -6.5 0.95 -4.6 1.2 -4.6 2.6 -4.7 3.55 -4.15 3.45 -4.0 2.5 Q-3.95 1.9 -4.05 1.35 L-2.35 1.85 -1.45 2.1 -1.4 2.7 -1.3 3.0 -0.95 4.0 -1.05 2.1 1.0 1.95 0.7 5.2 0.6 5.3 0.5 5.35 0.65 5.35 0.65 5.4 0.7 5.35 0.8 5.35 0.8 5.25 1.3 4.2 Q1.65 3.2 1.4 2.45 L1.65 1.85 2.45 1.75 5.6 1.1 6.5 1.2 6.5 1.25 Q6.85 2.3 6.25 3.25 L5.4 4.5 4.95 5.15 5.55 5.05 6.4 4.85 7.4 4.5 8.5 4.4 8.9 4.45 12.1 3.9 12.1 3.95 12.3 3.75 13.1 3.15 14.15 1.9 Q14.7 1.1 14.65 0.05 L14.65 0.0 14.55 -0.65 13.8 -2.0 12.85 -3.05 Q12.15 -3.7 11.05 -3.8 L9.6 -4.0 8.0 -4.25 7.6 -4.35 4.75 -4.7 M2.5 -5.5 L2.55 -5.5 3.65 -5.45 5.4 -5.2 8.25 -4.85 8.55 -4.8 9.55 -4.45 11.3 -4.2 12.65 -3.65 13.85 -2.8 14.6 -1.6 15.0 -0.1 15.05 0.8 14.7 1.8 Q14.15 3.45 12.6 4.2 L11.6 4.65 11.5 4.65 9.7 4.65 8.55 4.9 7.05 5.15 6.05 5.3 5.05 5.45 4.0 5.5 3.0 5.55 1.9 5.55 0.15 5.65 -1.65 5.65 -3.55 5.45 -4.65 5.2 -5.65 4.9 -6.5 4.9 -7.3 4.7 -9.15 4.6 -9.45 4.6 -11.85 4.4 -13.4 3.5 -13.95 2.9 -14.55 2.0 -14.95 0.9 -15.05 -0.2 -15.05 -0.8 -15.0 -1.1 -13.9 -3.05 -13.75 -3.2 -13.35 -3.55 -12.45 -4.05 -11.2 -4.5 -10.05 -4.55 -8.2 -4.65 -7.15 -4.4 -6.0 -4.55 -4.9 -4.75 -3.8 -5.0 -2.8 -5.25 -1.7 -5.4 -0.7 -5.55 0.6 -5.6 2.5 -5.5 M4.05 1.9 L3.7 2.5 Q3.2 3.3 2.85 4.15 L2.95 4.3 Q3.25 4.3 3.6 3.7 4.1 2.9 4.05 1.9 M4.35 5.1 L5.1 4.25 Q5.65 3.5 5.45 2.45 L5.1 3.35 4.35 5.1" fill="#000000" fill-rule="evenodd" stroke="none"/>
    <path d="M3.85 -4.75 Q3.7 -5.4 4.55 -4.95 L4.75 -4.7 Q4.85 -3.7 4.25 -2.95 L3.65 -2.45 2.95 -2.4 Q3.0 -3.1 3.55 -3.6 3.95 -4.0 3.85 -4.75 M7.6 -4.35 L8.0 -4.25 7.65 -3.3 Q7.15 -2.45 6.3 -2.1 L5.95 -1.9 5.2 -2.1 5.6 -2.45 6.75 -3.45 7.6 -4.35 M12.3 3.75 L12.1 3.95 12.1 3.9 11.55 2.55 11.1 1.6 10.75 1.1 11.8 1.4 Q12.3 1.95 12.35 2.65 L12.3 3.75 M-7.9 4.1 L-7.85 4.15 -8.6 3.9 Q-9.45 3.4 -9.55 2.4 L-9.55 1.95 Q-8.4 2.75 -7.9 4.1 M-10.75 4.1 L-11.05 4.05 -12.55 3.05 -12.6 2.45 -12.35 2.05 -11.8 2.55 Q-11.0 3.05 -10.75 4.1 M-13.7 -2.8 L-13.6 -3.0 -13.45 -3.0 -13.55 -2.5 -13.7 -2.8 M-10.95 -4.0 L-10.35 -4.2 -10.35 -4.05 -10.4 -3.05 -10.1 -1.25 Q-10.95 -1.3 -11.2 -2.05 L-11.2 -2.85 -10.95 -4.0 M-8.6 -4.05 L-8.25 -4.1 -8.15 -3.75 -8.3 -3.4 -8.4 -3.3 -9.3 -2.25 -9.35 -2.6 -9.25 -3.25 -8.6 -4.05 M-3.5 -4.6 L-3.5 -4.75 -3.25 -4.65 -2.8 -3.45 -2.8 -3.2 -3.15 -3.7 -3.5 -4.6 M-0.75 -4.8 L-0.7 -5.05 Q-0.45 -5.55 -0.3 -4.8 -0.3 -4.0 -0.45 -3.2 L-0.65 -2.5 -1.4 -2.45 -1.05 -3.45 -0.75 -4.8 M1.9 -4.85 L2.05 -5.45 2.1 -5.35 2.4 -4.85 2.45 -4.35 1.25 -2.95 1.9 -4.85 M12.45 -1.5 L13.1 -0.35 13.1 -0.15 12.9 -0.15 12.6 -0.5 11.45 -1.35 Q11.5 -1.95 12.1 -1.65 L12.45 -1.5 M12.55 0.5 L13.35 1.3 13.45 2.1 13.1 1.95 12.7 1.5 12.5 0.8 12.5 0.45 12.55 0.5 M7.75 1.45 L7.25 -0.1 7.25 -0.2 Q8.25 0.1 8.25 1.55 L8.05 3.5 7.95 3.9 7.1 4.55 Q7.7 3.6 7.75 2.35 L7.75 1.45 M9.6 1.7 L9.75 0.45 9.85 0.35 10.3 1.7 10.2 2.7 9.95 3.65 9.2 3.8 9.25 3.4 9.55 2.2 9.6 1.7 M8.75 -1.75 L9.85 -1.65 10.6 -0.8 9.65 -1.1 8.75 -1.75 M-12.95 -2.0 L-13.45 -1.45 -14.1 -1.0 -13.55 -1.55 -12.95 -2.0 M-13.05 0.05 L-11.9 -0.85 -11.7 -0.9 -11.8 -0.3 -12.8 0.8 -13.1 0.95 -13.05 0.05 M-11.2 1.4 Q-11.1 0.0 -9.95 0.15 L-10.0 0.25 -10.55 1.4 Q-10.8 2.45 -11.1 1.8 L-11.2 1.4" fill="#0099cc" fill-rule="evenodd" stroke="none"/>
    <path d="M3.85 -4.75 Q3.95 -4.0 3.55 -3.6 3.0 -3.1 2.95 -2.4 L3.65 -2.45 4.25 -2.95 Q4.85 -3.7 4.75 -4.7 L7.6 -4.35 6.75 -3.45 4.95 -3.65 5.6 -2.45 5.2 -2.1 5.95 -1.9 Q6.45 -0.75 6.55 0.3 L6.6 1.25 7.75 1.45 7.75 2.35 Q7.7 3.6 7.1 4.55 L7.95 3.9 8.05 3.5 8.25 1.55 9.6 1.7 9.55 2.2 9.25 3.4 9.2 3.8 9.95 3.65 10.2 2.7 10.3 1.7 11.1 1.6 11.55 2.55 12.1 3.9 8.9 4.45 8.5 4.4 7.4 4.5 6.4 4.85 5.55 5.05 4.95 5.15 5.4 4.5 6.25 3.25 Q6.85 2.3 6.5 1.25 L6.5 1.2 5.6 1.1 2.45 1.75 1.65 1.85 1.4 2.45 Q1.65 3.2 1.3 4.2 L0.8 5.25 0.7 5.35 0.65 5.35 0.65 5.3 0.7 5.2 1.0 1.95 -1.05 2.1 -0.95 4.0 -1.3 3.0 -1.4 2.7 -1.45 2.1 -2.35 1.85 -4.05 1.35 Q-3.95 1.9 -4.0 2.5 L-4.15 3.45 -4.7 3.55 -4.6 2.6 -4.6 1.2 -6.5 0.95 -6.05 2.7 -5.15 4.25 -5.0 4.4 -4.95 4.5 -5.55 4.6 -7.9 4.1 Q-8.4 2.75 -9.55 1.95 L-9.55 2.4 Q-9.45 3.4 -8.6 3.9 L-10.75 4.1 Q-11.0 3.05 -11.8 2.55 L-12.35 2.05 -12.6 2.45 -12.55 3.05 -11.05 4.05 -11.85 3.85 -13.45 2.8 -14.1 1.85 -14.7 0.2 -14.45 -1.35 -13.7 -2.8 -13.55 -2.5 -13.45 -3.0 -12.6 -3.45 -10.95 -4.0 -11.2 -2.85 -12.3 -2.4 -12.7 -1.75 Q-13.25 -0.95 -13.05 0.05 L-13.1 0.95 -12.8 0.8 -12.4 1.15 -12.15 1.35 -11.2 1.4 -11.1 1.8 Q-10.8 2.45 -10.55 1.4 L-7.35 1.15 -7.0 -0.05 -6.35 -1.6 -6.0 -2.3 -5.55 -3.05 -5.1 -3.8 -8.3 -3.4 -8.15 -3.75 -8.25 -4.1 -3.5 -4.6 -3.15 -3.7 -2.8 -3.2 -2.8 -3.45 -3.25 -4.65 -0.75 -4.8 -1.05 -3.45 -1.4 -2.45 -0.65 -2.5 -0.45 -3.2 Q-0.3 -4.0 -0.3 -4.8 L1.9 -4.85 1.25 -2.95 2.45 -4.35 2.4 -4.85 3.85 -4.75 M8.0 -4.25 L9.6 -4.0 11.05 -3.8 Q12.15 -3.7 12.85 -3.05 L13.8 -2.0 14.55 -0.65 14.55 -0.2 14.65 0.0 14.65 0.05 Q14.7 1.1 14.15 1.9 L13.1 3.15 12.3 3.75 12.35 2.65 Q12.3 1.95 11.8 1.4 L12.3 1.25 12.5 0.8 12.7 1.5 13.1 1.95 13.45 2.1 13.35 1.3 12.55 0.5 12.55 0.45 12.6 -0.5 12.9 -0.15 13.1 -0.15 13.1 -0.35 12.45 -1.5 11.65 -2.15 10.35 -2.75 8.7 -3.15 7.65 -3.3 8.0 -4.25 M-10.35 -4.05 L-9.45 -4.0 -8.6 -4.05 -9.25 -3.25 -10.4 -3.05 -10.35 -4.05 M-12.95 -2.0 L-13.55 -1.55 -14.1 -1.0 -13.45 -1.45 -12.95 -2.0" fill="#0c4596" fill-rule="evenodd" stroke="none"/>
    <path d="M7.65 -3.3 L8.7 -3.15 10.35 -2.75 11.65 -2.15 12.45 -1.5 12.1 -1.65 Q11.5 -1.95 11.45 -1.35 L12.6 -0.5 12.55 0.45 12.5 0.45 12.5 0.8 12.3 1.25 11.8 1.4 10.75 1.1 11.1 1.6 10.3 1.7 9.85 0.35 9.75 0.45 9.6 1.7 8.25 1.55 Q8.25 0.1 7.25 -0.2 L7.25 -0.1 7.75 1.45 6.6 1.25 6.55 0.3 Q6.45 -0.75 5.95 -1.9 L6.3 -2.1 Q7.15 -2.45 7.65 -3.3 M8.75 -1.75 L9.65 -1.1 10.6 -0.8 9.85 -1.65 8.75 -1.75 M-13.05 0.05 Q-13.25 -0.95 -12.7 -1.75 L-12.3 -2.4 -11.2 -2.85 -11.2 -2.05 Q-10.95 -1.3 -10.1 -1.25 L-10.4 -3.05 -9.25 -3.25 -9.35 -2.6 -9.3 -2.25 -8.4 -3.3 -8.3 -3.4 -5.1 -3.8 -5.55 -3.05 -6.0 -2.3 -6.35 -1.6 -7.0 -0.05 -7.35 1.15 -10.55 1.4 -10.0 0.25 -9.95 0.15 Q-11.1 0.0 -11.2 1.4 L-12.15 1.35 -12.4 1.15 -12.8 0.8 -11.8 -0.3 -11.7 -0.9 -11.9 -0.85 -13.05 0.05" fill="#0f59d0" fill-rule="evenodd" stroke="none"/>
    <path d="M6.75 -3.45 L5.6 -2.45 4.95 -3.65 6.75 -3.45" fill="#126ab1" fill-rule="evenodd" stroke="none"/>
    <path d="M14.55 -0.65 L14.65 0.0 14.55 -0.2 14.55 -0.65 M0.7 5.35 L0.65 5.4 0.65 5.35 0.5 5.35 0.6 5.3 0.65 5.3 0.65 5.35 0.7 5.35 M12.55 0.45 L12.55 0.5 12.5 0.45 12.55 0.45" fill="#4a1bb2" fill-rule="evenodd" stroke="none"/>
    <path d="M4.05 1.9 Q4.1 2.9 3.6 3.7 3.25 4.3 2.95 4.3 L2.85 4.15 Q3.2 3.3 3.7 2.5 L4.05 1.9 M4.35 5.1 L5.1 3.35 5.45 2.45 Q5.65 3.5 5.1 4.25 L4.35 5.1" fill="#0b3d66" fill-rule="evenodd" stroke="none"/>
    <path d="M0.8 5.25 L0.8 5.35 0.7 5.35 0.8 5.25 M0.6 5.3 L0.7 5.2 0.65 5.3 0.6 5.3 M-4.95 4.5 L-4.95 4.55 -5.55 4.6 -4.95 4.5" fill="#39158e" fill-rule="evenodd" stroke="none"/>
  </g>
</svg>
