<?xml version="1.0" encoding="UTF-8" standalone="no"?>
<svg xmlns:xlink="http://www.w3.org/1999/xlink" height="11.65px" width="31.0px" xmlns="http://www.w3.org/2000/svg">
  <g transform="matrix(1.0, 0.0, 0.0, 1.0, 15.35, -0.85)">
    <path d="M-10.1 2.05 L-10.05 2.0 -9.85 2.4 Q-9.6 3.2 -9.5 4.0 L-10.35 5.35 -10.75 6.3 -10.9 7.4 -10.75 7.9 -10.65 8.2 -10.2 8.75 -9.9 9.1 -9.45 9.65 -9.45 9.8 -9.75 10.05 -10.7 9.85 -10.8 9.8 -10.7 10.1 -10.35 10.75 -10.0 11.3 -9.85 11.85 -9.95 12.2 Q-10.5 12.6 -11.35 12.5 L-12.25 12.2 -12.55 12.0 -13.8 10.55 -14.75 8.15 -14.85 7.7 Q-15.4 6.3 -15.35 4.8 L-15.25 4.1 Q-15.05 2.65 -14.35 1.3 L-14.2 1.1 -13.35 0.85 Q-13.2 1.05 -13.35 1.35 L-13.4 1.5 -13.9 2.0 -14.4 2.55 -14.55 2.9 -14.6 2.9 -14.7 3.8 -14.8 4.55 Q-15.0 6.95 -14.05 9.05 L-13.45 10.15 -12.05 12.0 -10.3 12.05 Q-10.5 11.45 -10.85 11.0 -11.3 10.4 -11.35 9.7 -11.4 9.3 -11.15 9.15 L-10.35 9.45 -10.05 9.5 -9.75 9.55 -9.7 9.55 -10.2 9.0 -9.9 9.35 -10.9 8.45 -11.35 7.1 Q-11.4 6.15 -11.05 5.3 L-10.0 3.6 -10.05 3.45 -10.15 3.15 -10.25 3.0 -10.15 2.85 Q-9.95 2.4 -10.1 2.05" fill="#000000" fill-rule="evenodd" stroke="none"/>
    <path d="M-10.1 2.05 Q-9.95 2.4 -10.15 2.85 L-10.25 3.0 -10.15 3.15 -10.05 3.45 -10.0 3.6 -11.05 5.3 Q-11.4 6.15 -11.35 7.1 L-10.9 8.45 -9.9 9.35 -10.2 9.0 -9.7 9.55 -9.75 9.55 -10.05 9.5 -10.35 9.45 -11.15 9.15 Q-11.4 9.3 -11.35 9.7 -11.3 10.4 -10.85 11.0 -10.5 11.45 -10.3 12.05 L-12.05 12.0 -13.45 10.15 -14.05 9.05 Q-15.0 6.95 -14.8 4.55 L-14.7 3.8 -14.6 2.9 -14.55 2.9 -14.4 2.55 -13.9 2.0 -13.4 1.5 -12.9 1.05 -12.75 1.0 -11.15 1.35 -11.0 1.4 Q-10.55 1.5 -10.25 1.8 L-10.1 2.05" fill="#999999" fill-rule="evenodd" stroke="none"/>
    <path d="M-14.6 2.9 L-14.55 2.9 -14.6 2.9" fill="#6666cc" fill-rule="evenodd" stroke="none"/>
    <path d="M13.7 1.5 L13.65 1.35 Q13.5 1.05 13.65 0.85 14.1 0.9 14.5 1.1 L14.65 1.3 Q15.35 2.65 15.55 4.1 L15.65 4.8 Q15.7 6.3 15.15 7.7 L15.05 8.15 14.1 10.55 12.85 12.0 12.55 12.2 11.65 12.5 Q10.8 12.6 10.25 12.2 L10.2 11.85 10.3 11.3 10.65 10.75 11.0 10.1 11.1 9.8 11.0 9.85 Q10.55 10.15 10.05 10.05 L9.8 9.8 9.75 9.65 10.2 9.1 10.5 8.75 11.0 8.2 11.1 7.9 11.2 7.4 11.1 6.3 10.65 5.35 9.85 4.0 10.15 2.4 10.4 2.0 10.4 2.05 Q10.25 2.4 10.45 2.85 L10.5 2.85 10.55 3.0 10.5 3.15 10.35 3.45 10.3 3.6 11.35 5.3 Q11.7 6.15 11.65 7.1 L11.2 8.45 10.25 9.35 10.5 9.0 10.05 9.55 10.35 9.5 10.7 9.45 11.45 9.15 11.65 9.7 Q11.6 10.4 11.15 11.0 L10.65 12.05 12.35 12.0 13.75 10.15 14.35 9.05 Q15.3 6.95 15.1 4.55 L15.05 3.8 14.9 2.9 14.7 2.55 14.2 2.0 13.7 1.5" fill="#000000" fill-rule="evenodd" stroke="none"/>
    <path d="M10.4 2.05 L10.55 1.8 Q10.85 1.5 11.3 1.4 L11.45 1.35 13.1 1.0 13.2 1.05 13.7 1.5 14.2 2.0 14.7 2.55 14.9 2.9 15.05 3.8 15.1 4.55 Q15.3 6.95 14.35 9.05 L13.75 10.15 12.35 12.0 10.65 12.05 11.15 11.0 Q11.6 10.4 11.65 9.7 L11.45 9.15 10.7 9.45 10.35 9.5 10.05 9.55 10.5 9.0 10.25 9.35 11.2 8.45 11.65 7.1 Q11.7 6.15 11.35 5.3 L10.3 3.6 10.35 3.45 10.5 3.15 10.55 3.0 10.5 2.85 10.45 2.85 Q10.25 2.4 10.4 2.05" fill="#999999" fill-rule="evenodd" stroke="none"/>
  </g>
</svg>
