<?xml version="1.0" encoding="UTF-8" standalone="no"?>
<svg xmlns:xlink="http://www.w3.org/1999/xlink" height="11.85px" width="29.6px" xmlns="http://www.w3.org/2000/svg">
  <g transform="matrix(1.0, 0.0, 0.0, 1.0, 14.8, 5.75)">
    <path d="M4.75 -5.1 L5.4 -4.95 5.95 -4.7 6.85 -4.45 6.95 -4.4 7.4 -4.35 8.2 -4.2 8.4 -4.2 9.4 -3.95 9.45 -3.95 11.05 -3.9 11.55 -3.9 11.6 -3.9 12.55 -3.55 Q13.75 -3.1 14.45 -1.85 L14.6 -1.45 Q15.15 0.65 14.3 2.65 L13.85 3.2 13.65 3.5 13.45 3.6 11.9 4.3 10.75 4.55 10.35 4.65 10.35 4.6 8.95 4.7 7.45 5.1 7.0 5.25 6.25 5.6 6.2 5.55 5.65 5.65 5.4 5.7 5.3 5.7 0.3 6.1 0.0 6.1 -0.3 6.1 -5.3 5.7 -5.35 5.7 -5.65 5.65 -6.2 5.55 -6.2 5.6 -7.0 5.25 -7.45 5.1 -8.95 4.7 -10.35 4.6 -10.35 4.65 -10.4 4.65 -11.45 4.5 -13.45 3.6 -13.65 3.5 -13.85 3.2 -14.25 2.65 Q-15.15 0.65 -14.55 -1.45 L-14.4 -1.85 Q-13.75 -3.1 -12.5 -3.55 L-11.6 -3.9 -11.55 -3.9 -11.05 -3.9 -9.45 -3.95 -9.4 -3.95 -8.4 -4.2 -8.15 -4.2 -7.4 -4.35 -6.95 -4.4 -6.8 -4.45 -5.95 -4.7 -5.35 -4.95 -4.75 -5.1 -4.3 -5.2 -3.3 -5.45 -2.15 -5.55 -0.4 -5.75 -0.25 -5.75 0.0 -5.75 0.3 -5.75 0.4 -5.75 2.15 -5.55 3.3 -5.45 4.35 -5.2 4.75 -5.1 M14.35 -1.15 L14.05 -1.7 Q13.25 -3.1 11.8 -3.55 L11.7 -3.55 11.75 -3.55 10.0 -3.45 8.95 -3.5 8.3 -3.65 8.2 -3.65 7.4 -3.7 6.85 -3.9 6.3 -4.0 5.8 -4.15 5.65 -4.15 4.5 -4.45 4.2 -4.5 4.05 -4.55 3.85 -4.6 3.8 -4.6 2.9 -4.7 2.85 -4.7 2.95 -4.6 0.7 -4.85 -1.55 -4.75 -2.4 -4.7 -2.85 -4.6 -2.9 -4.6 -2.95 -4.6 -2.85 -4.7 -3.05 -4.7 -3.8 -4.6 -4.0 -4.55 -4.2 -4.5 -4.45 -4.45 -4.75 -4.4 -5.65 -4.15 -5.8 -4.15 -6.3 -4.0 -6.8 -3.9 -7.4 -3.7 -8.15 -3.65 -8.35 -3.65 -8.6 -3.65 -8.95 -3.65 -9.1 -3.65 -11.75 -3.55 -11.65 -3.55 -11.8 -3.55 Q-13.25 -3.1 -14.05 -1.7 L-14.2 -1.4 -14.45 -0.75 -14.55 -0.05 -14.55 0.0 -14.55 0.15 -14.2 1.45 -14.0 1.8 -13.8 2.2 -13.25 2.9 -11.8 3.8 -11.45 3.95 -11.35 3.95 -11.1 4.0 -10.95 3.95 -10.7 3.95 -10.6 3.95 -10.2 3.95 -10.1 3.95 -10.0 3.95 -9.95 3.95 -9.8 3.9 -9.75 3.8 -9.7 3.95 -9.7 3.85 Q-8.55 3.95 -7.5 4.5 L-6.5 4.8 -6.15 4.9 -6.2 4.9 -5.8 4.95 -5.75 4.95 -5.45 5.0 -5.2 5.05 -5.15 5.05 -5.15 5.1 -5.1 5.1 -4.45 5.2 -4.2 5.3 -4.05 5.35 -3.85 5.35 -3.55 5.35 -3.3 5.4 -3.55 5.0 -2.65 5.35 -2.35 5.3 -2.3 5.3 -2.1 5.45 -1.75 5.45 -1.7 5.45 -1.15 5.5 -0.7 5.5 -0.55 5.5 -0.45 5.45 -0.3 5.45 -0.25 5.45 0.0 5.45 0.25 5.45 0.3 5.45 0.45 5.45 0.55 5.5 1.2 5.5 2.3 5.45 3.05 5.4 3.6 5.35 3.9 5.35 4.1 5.35 4.2 5.3 4.45 5.2 5.1 5.1 5.15 5.1 5.15 5.05 5.25 5.05 5.5 5.0 5.8 4.95 6.2 4.9 6.25 4.9 6.35 4.95 7.5 4.45 Q8.6 4.05 9.75 3.9 L9.8 3.8 9.8 3.9 10.05 3.85 11.0 3.95 11.15 4.0 11.35 3.95 11.5 3.95 11.8 3.8 13.25 2.9 13.8 2.2 14.05 1.8 14.2 1.45 14.55 0.15 14.55 -0.05 14.5 -0.65 14.35 -1.15 M-4.8 1.95 L-4.8 1.9 -4.8 1.8 -4.85 1.55 -4.85 1.45 -4.9 1.0 -4.9 -0.4 -4.8 -1.2 -4.55 -1.95 -4.55 -2.15 Q-4.45 -3.1 -3.95 -3.9 L-3.8 -3.9 -3.55 -3.95 -2.65 -4.15 1.4 -4.15 4.0 -4.05 4.1 -3.9 4.1 -3.85 4.15 -3.7 4.35 -3.2 4.95 -0.85 4.85 -0.55 4.95 -0.8 5.05 0.0 4.95 1.05 Q4.75 2.7 3.95 4.15 L3.75 4.6 3.35 4.6 3.5 4.35 3.7 4.05 3.95 3.3 4.15 2.6 4.45 0.8 4.45 -0.2 4.45 -0.3 4.4 -1.35 4.3 -2.05 4.2 -2.3 4.15 -2.35 4.05 -2.55 3.8 -3.1 3.75 -3.25 2.55 -3.25 2.45 -3.25 2.0 -3.25 1.85 -3.2 1.45 -3.5 1.15 -3.6 Q0.2 -4.1 -1.0 -4.0 L-1.55 -3.8 -1.8 -3.7 -2.1 -3.4 -2.15 -3.4 -2.35 -3.4 -3.7 -3.2 -3.8 -3.2 -3.85 -3.15 -4.0 -2.65 -4.3 -1.1 -4.35 0.0 -4.4 0.05 -4.4 0.1 -4.3 1.35 -4.05 2.75 -3.95 3.1 -3.6 3.85 -3.25 4.4 -3.6 4.35 -3.7 4.25 -4.65 2.45 -4.8 1.95 M0.05 -5.1 L0.1 -5.05 0.1 -5.1 0.05 -5.1 M0.2 -2.3 L0.6 -1.55 Q0.7 -0.9 0.15 -0.55 L-0.8 -0.6 -0.85 -0.65 -1.1 -1.4 Q-1.1 -2.0 -0.7 -2.4 L-0.65 -2.4 -0.55 -2.45 0.2 -2.3 M9.3 -3.75 L9.15 -3.7 9.3 -3.75 M13.7 2.1 L13.75 2.1 13.7 2.15 13.7 2.1 M-14.5 -1.05 L-14.55 -1.05 -14.5 -1.05 M-9.3 -3.75 L-9.1 -3.7 -9.3 -3.75 M-0.05 -5.1 L-0.05 -5.05 -0.05 -5.1 M-2.85 -4.7 L-2.8 -4.7 -2.4 -4.8 -2.85 -4.7 M-4.8 1.05 L-4.75 1.0 -4.85 1.0 -4.8 1.05 M-6.75 3.15 L-6.8 3.15 -6.8 3.1 -6.75 3.15 M-13.7 2.1 L-13.7 2.15 -13.7 2.1" fill="#23252e" fill-rule="evenodd" stroke="none"/>
    <path d="M14.3 -1.15 L14.35 -1.15 14.5 -0.65 14.3 -1.15" fill="#993333" fill-rule="evenodd" stroke="none"/>
    <path d="M0.05 -5.1 L0.1 -5.1 0.1 -5.05 0.05 -5.1 M-0.05 -5.1 L-0.05 -5.05 -0.05 -5.1" fill="#cc9900" fill-rule="evenodd" stroke="none"/>
    <path d="M1.35 -0.3 L1.3 -0.3 1.3 -0.5 1.35 -0.3 M0.95 2.05 L0.95 2.0 1.0 2.05 0.95 2.05 0.9 2.2 0.95 2.05 M-1.3 -0.3 L-1.3 -0.5 -1.3 -0.3 M-0.95 2.0 L-0.9 2.05 -0.9 2.2 -0.95 2.05 -0.95 2.0" fill="#996600" fill-rule="evenodd" stroke="none"/>
    <path d="M9.3 -3.75 L9.15 -3.7 9.3 -3.75 M-9.3 -3.75 L-9.1 -3.7 -9.3 -3.75" fill="#333933" fill-rule="evenodd" stroke="none"/>
    <path d="M-2.5 -4.45 L-2.15 -4.7 -2.45 -4.45 -2.5 -4.45" fill="#660000" fill-rule="evenodd" stroke="none"/>
    <path d="M-14.5 -1.05 L-14.55 -1.05 -14.5 -1.05" fill="#a4a4ff" fill-rule="evenodd" stroke="none"/>
    <path d="M7.55 0.5 L7.6 0.5 7.55 0.55 7.55 0.5 M-7.55 0.5 L-7.55 0.55 -7.55 0.5" fill="#a66600" fill-rule="evenodd" stroke="none"/>
    <path d="M5.15 5.05 L5.15 5.1 5.1 5.1 5.15 5.05 M-5.1 5.1 L-5.15 5.1 -5.15 5.05 -5.1 5.1 M-0.85 -0.65 L-1.05 -0.35 -1.05 -0.25 Q-1.0 0.1 -1.2 0.3 L-1.35 0.15 -1.4 0.1 Q-1.9 -0.5 -1.85 -1.25 -1.85 -1.95 -1.5 -2.5 L-0.75 -3.2 Q0.1 -3.35 0.65 -2.85 L0.55 -2.7 0.2 -2.3 -0.55 -2.45 -0.65 -2.4 -0.7 -2.4 Q-1.1 -2.0 -1.1 -1.4 L-0.85 -0.65 M-1.3 -0.3 L-1.3 -0.5 -1.3 -0.3" fill="#990000" fill-rule="evenodd" stroke="none"/>
    <path d="M5.25 5.05 L5.15 5.05 5.2 5.0 5.25 5.05 M-5.15 5.05 L-5.2 5.05 -5.15 5.0 -5.15 5.05 M-4.8 1.05 L-4.85 1.0 -4.75 1.0 -4.8 1.05" fill="#595988" fill-rule="evenodd" stroke="none"/>
    <path d="M1.15 2.2 L1.1 2.2 1.05 2.1 1.15 2.2 M-1.05 2.1 L-1.05 2.2 -1.1 2.2 -1.05 2.1" fill="#754900" fill-rule="evenodd" stroke="none"/>
    <path d="M2.55 -3.25 L2.5 -3.2 2.45 -3.25 2.55 -3.25 M-4.0 -2.65 L-3.65 -2.4 -3.6 -2.4 -3.15 -2.15 Q-3.5 -1.35 -3.45 -0.3 L-3.4 0.3 -3.35 0.45 -3.35 0.55 -3.15 1.0 Q-3.55 1.5 -4.3 1.35 L-4.4 0.1 -4.4 0.05 -4.35 0.0 -4.3 -1.1 -4.0 -2.65 M0.25 4.65 L-0.1 4.5 -1.1 3.65 -1.2 3.2 -1.25 2.85 -1.45 2.75 -0.8 2.95 0.3 3.0 Q0.05 3.95 0.9 4.6 L0.95 4.65 1.85 4.65 0.25 4.65 M1.95 2.25 L3.05 0.85 3.2 0.3 3.25 0.35 Q3.7 0.8 4.3 0.8 L4.45 0.8 4.15 2.6 3.95 3.3 4.05 2.95 3.5 2.5 3.35 2.4 2.4 1.85 1.95 2.25 M3.35 -1.55 L3.3 -1.75 3.15 -2.15 3.25 -2.3 3.95 -2.75 4.05 -2.55 4.15 -2.35 4.2 -2.3 4.3 -2.05 4.4 -1.35 3.35 -1.35 3.35 -1.55 M1.75 -2.2 L1.3 -2.9 1.75 -2.95 1.85 -3.05 1.7 -3.15 2.45 -2.2 Q2.9 -0.9 2.35 0.25 1.9 1.15 1.0 1.65 -0.15 2.3 -1.1 1.95 L-1.1 1.7 -1.1 1.5 -1.0 1.2 0.9 1.1 Q1.9 0.2 1.95 -1.15 L1.75 -2.2 M-2.85 -4.7 L-2.4 -4.8 -2.8 -4.7 -2.85 -4.7 M-2.9 -1.2 L-2.95 -1.05 -2.95 -1.2 -2.9 -1.2" fill="#666666" fill-rule="evenodd" stroke="none"/>
    <path d="M-14.4 -0.1 L-14.1 0.15 -14.4 -0.1" fill="#cc0000" fill-rule="evenodd" stroke="none"/>
    <path d="M-14.2 -1.4 L-14.05 -1.7 Q-13.25 -3.1 -11.8 -3.55 L-11.65 -3.55 -11.75 -3.55 -9.1 -3.65 -8.95 -3.65 -8.6 -3.65 -8.35 -3.65 -8.15 -3.65 -7.4 -3.7 -6.8 -3.9 -6.3 -4.0 -5.8 -4.15 -5.65 -4.15 -4.75 -4.4 -4.45 -4.45 -4.2 -4.5 -4.0 -4.55 -3.8 -4.6 -3.05 -4.7 -2.85 -4.7 -2.95 -4.6 -2.9 -4.6 -2.85 -4.6 -2.4 -4.7 -1.55 -4.75 0.7 -4.85 2.95 -4.6 2.85 -4.7 2.9 -4.7 3.8 -4.6 3.85 -4.6 4.05 -4.55 4.2 -4.5 4.5 -4.45 5.65 -4.15 5.8 -4.15 6.3 -4.0 6.85 -3.9 7.4 -3.7 8.2 -3.65 8.3 -3.65 8.95 -3.5 10.0 -3.45 11.75 -3.55 11.7 -3.55 11.8 -3.55 Q13.25 -3.1 14.05 -1.7 L14.35 -1.15 14.3 -1.15 Q14.55 0.15 13.5 0.6 L12.15 1.1 10.6 0.8 9.0 0.7 8.2 0.9 6.7 0.25 Q6.75 -0.85 6.0 -1.5 L5.8 -1.7 Q5.25 -1.6 5.05 -1.15 L4.95 -0.85 4.35 -3.2 4.15 -3.7 4.1 -3.85 4.1 -3.9 3.95 -4.3 4.0 -4.05 1.4 -4.15 -2.65 -4.15 -3.55 -3.95 -3.8 -3.9 -3.95 -3.9 Q-4.45 -3.1 -4.55 -2.15 L-4.55 -1.95 -4.8 -1.2 -4.9 -0.4 -4.9 1.0 -4.85 1.45 -4.85 1.55 -4.8 1.8 -4.8 1.9 -4.8 1.95 -5.25 2.35 -5.35 2.35 -5.6 2.15 -5.65 2.05 -5.65 1.45 Q-5.5 0.5 -5.75 -0.4 L-5.65 -1.0 Q-5.75 -1.7 -6.3 -1.45 -7.6 -0.95 -8.1 0.45 L-8.35 0.9 -8.55 1.4 -10.9 1.85 -11.65 1.9 Q-13.25 1.85 -14.0 0.4 L-14.2 -1.4 M10.05 -2.65 Q9.3 -2.5 9.15 -1.65 9.05 -1.15 9.5 -0.9 10.55 -0.4 11.7 -0.5 12.45 -0.6 12.7 -1.3 L12.7 -1.85 Q12.1 -2.9 10.85 -2.75 L10.05 -2.65 M7.55 0.5 L7.55 0.55 7.6 0.5 7.55 0.5 M-13.25 -0.9 Q-13.3 -0.4 -12.9 -0.25 -11.2 0.55 -9.85 -0.8 L-9.3 -1.4 Q-9.0 -1.85 -9.05 -2.35 -9.15 -3.4 -10.1 -3.15 L-11.3 -2.8 -11.95 -2.7 Q-13.15 -2.35 -13.25 -0.9 M-2.5 -4.45 L-2.45 -4.45 -2.15 -4.7 -2.5 -4.45" fill="#006699" fill-rule="evenodd" stroke="none"/>
    <path d="M-14.2 -1.4 L-14.0 0.4 Q-13.25 1.85 -11.65 1.9 L-10.9 1.85 -8.55 1.4 -8.35 0.9 -8.1 0.45 Q-7.6 -0.95 -6.3 -1.45 -5.75 -1.7 -5.65 -1.0 L-5.75 -0.4 Q-5.5 0.5 -5.65 1.45 L-5.65 2.05 -5.6 2.15 -5.35 2.35 -5.25 2.35 -4.8 1.95 -4.65 2.45 -3.7 4.25 -3.6 4.35 -3.25 4.4 -2.8 4.45 -1.2 4.55 -1.15 4.55 -0.3 4.6 0.15 4.65 0.25 4.65 1.85 4.65 3.35 4.6 3.75 4.6 3.95 4.15 Q4.75 2.7 4.95 1.05 L5.05 0.0 4.95 -0.8 4.85 -0.55 4.95 -0.85 5.05 -1.15 Q5.25 -1.6 5.8 -1.7 L6.0 -1.5 Q6.75 -0.85 6.7 0.25 L8.2 0.9 9.0 0.7 10.6 0.8 12.15 1.1 13.5 0.6 Q14.55 0.15 14.3 -1.15 L14.5 -0.65 14.55 -0.05 14.55 0.15 14.2 1.45 14.05 1.8 13.8 2.2 13.25 2.9 11.8 3.8 11.5 3.95 11.35 3.95 11.15 4.0 11.0 3.95 10.05 3.85 9.8 3.9 9.8 3.8 9.75 3.9 Q8.6 4.05 7.5 4.45 L6.35 4.95 6.25 4.9 6.2 4.9 5.8 4.95 5.5 5.0 5.25 5.05 5.2 5.0 5.15 5.05 5.1 5.1 4.45 5.2 4.2 5.3 4.1 5.35 3.9 5.35 3.6 5.35 3.05 5.4 2.3 5.45 1.2 5.5 0.55 5.5 0.45 5.45 0.3 5.45 0.25 5.45 0.0 5.45 -0.25 5.45 -0.3 5.45 -0.45 5.45 -0.55 5.5 -0.7 5.5 -1.15 5.5 -1.7 5.45 -1.75 5.45 -2.1 5.45 -2.3 5.3 -2.35 5.3 -2.65 5.35 -3.55 5.0 -3.3 5.4 -3.55 5.35 -3.85 5.35 -4.05 5.35 -4.2 5.3 -4.45 5.2 -5.1 5.1 -5.15 5.05 -5.15 5.0 -5.2 5.05 -5.45 5.0 -5.75 4.95 -5.8 4.95 -6.2 4.9 -6.15 4.9 -6.5 4.8 -7.5 4.5 Q-8.55 3.95 -9.7 3.85 L-9.7 3.95 -9.75 3.8 -9.8 3.9 -9.95 3.95 -10.0 3.95 -10.1 3.95 -10.2 3.95 -10.6 3.95 -10.7 3.95 -10.95 3.95 -11.1 4.0 -11.35 3.95 -11.45 3.95 -11.8 3.8 -13.25 2.9 -13.8 2.2 -14.0 1.8 -14.2 1.45 -14.55 0.15 -14.55 0.0 -14.55 -0.05 -14.45 -0.75 -14.2 -1.4 M13.7 2.1 L13.7 2.15 13.75 2.1 13.7 2.1 M-14.4 -0.1 L-14.1 0.15 -14.4 -0.1 M-7.55 0.5 L-7.55 0.55 -7.55 0.5 M-6.75 3.15 L-6.8 3.1 -6.8 3.15 -6.75 3.15 M-13.7 2.1 L-13.7 2.15 -13.7 2.1" fill="#003366" fill-rule="evenodd" stroke="none"/>
    <path d="M10.05 -2.65 L10.85 -2.75 Q12.1 -2.9 12.7 -1.85 L12.7 -1.3 Q12.45 -0.6 11.7 -0.5 10.55 -0.4 9.5 -0.9 9.05 -1.15 9.15 -1.65 9.3 -2.5 10.05 -2.65 M-13.25 -0.9 Q-13.15 -2.35 -11.95 -2.7 L-11.3 -2.8 -10.1 -3.15 Q-9.15 -3.4 -9.05 -2.35 -9.0 -1.85 -9.3 -1.4 L-9.85 -0.8 Q-11.2 0.55 -12.9 -0.25 -13.3 -0.4 -13.25 -0.9" fill="#006fdd" fill-rule="evenodd" stroke="none"/>
    <path d="M4.0 -4.05 L3.95 -4.3 4.1 -3.9 4.0 -4.05 M0.3 3.0 L0.3 2.95 0.9 2.8 1.0 2.75 1.2 2.7 1.95 2.25 2.4 1.85 3.35 2.4 3.5 2.5 4.05 2.95 3.95 3.3 3.7 4.05 3.5 4.35 3.35 4.6 1.85 4.65 0.95 4.65 0.9 4.6 Q0.05 3.95 0.3 3.0 M3.2 0.3 L3.3 -0.1 3.35 -0.25 3.35 -1.25 3.35 -1.55 3.35 -1.35 4.4 -1.35 4.45 -0.3 4.45 -0.2 4.45 0.8 4.3 0.8 Q3.7 0.8 3.25 0.35 L3.2 0.3" fill="#999999" fill-rule="evenodd" stroke="none"/>
    <path d="M2.55 -3.25 L3.75 -3.25 3.8 -3.1 4.05 -2.55 3.95 -2.75 3.25 -2.3 3.15 -2.15 3.3 -1.75 3.35 -1.55 3.35 -1.25 3.35 -0.25 3.3 -0.1 3.2 0.3 3.05 0.85 1.95 2.25 1.2 2.7 1.0 2.75 0.9 2.8 0.3 2.95 0.3 3.0 -0.8 2.95 -1.45 2.75 -1.25 2.85 -1.2 3.2 -1.1 3.65 -0.1 4.5 0.25 4.65 0.15 4.65 -0.3 4.6 -1.15 4.55 -1.2 4.55 -2.8 4.45 -3.25 4.4 -3.6 3.85 -3.95 3.1 -4.05 2.75 -4.3 1.35 Q-3.55 1.5 -3.15 1.0 L-3.35 0.55 -3.35 0.45 -3.4 0.3 -3.45 -0.3 Q-3.5 -1.35 -3.15 -2.15 L-3.6 -2.4 -3.65 -2.4 -4.0 -2.65 -3.85 -3.15 -3.8 -3.2 -3.7 -3.2 -2.35 -3.4 -2.15 -3.4 -2.1 -3.4 -1.8 -3.7 -1.55 -3.8 -1.0 -4.0 Q0.2 -4.1 1.15 -3.6 L1.45 -3.5 1.85 -3.2 2.0 -3.25 2.45 -3.25 2.5 -3.2 2.55 -3.25 M1.75 -2.2 L1.95 -1.15 Q1.9 0.2 0.9 1.1 L-1.0 1.2 -1.1 1.5 -1.1 1.7 -1.1 1.95 Q-0.15 2.3 1.0 1.65 1.9 1.15 2.35 0.25 2.9 -0.9 2.45 -2.2 L1.7 -3.15 1.85 -3.05 1.75 -2.95 1.3 -2.9 1.75 -2.2 M-1.2 0.3 L-1.05 0.35 0.75 0.2 Q1.3 -0.3 1.35 -1.05 L1.3 -1.75 1.0 -2.45 0.65 -2.85 Q0.1 -3.35 -0.75 -3.2 L-1.5 -2.5 Q-1.85 -1.95 -1.85 -1.25 -1.9 -0.5 -1.4 0.1 L-1.35 0.15 -1.2 0.3 M1.35 -0.3 L1.3 -0.5 1.3 -0.3 1.35 -0.3 M0.95 2.05 L0.9 2.2 0.95 2.05 1.0 2.05 0.95 2.0 0.95 2.05 M1.15 2.2 L1.05 2.1 1.1 2.2 1.15 2.2 M-2.9 -1.2 L-2.95 -1.2 -2.95 -1.05 -2.9 -1.2 M-1.05 2.1 L-1.1 2.2 -1.05 2.2 -1.05 2.1 M-0.95 2.0 L-0.95 2.05 -0.9 2.2 -0.9 2.05 -0.95 2.0" fill="#333333" fill-rule="evenodd" stroke="none"/>
    <path d="M-0.85 -0.65 L-0.8 -0.6 0.15 -0.55 Q0.7 -0.9 0.6 -1.55 L0.2 -2.3 0.55 -2.7 0.65 -2.85 1.0 -2.45 1.3 -1.75 1.35 -1.05 Q1.3 -0.3 0.75 0.2 L-1.05 0.35 -1.2 0.3 Q-1.0 0.1 -1.05 -0.25 L-1.05 -0.35 -0.85 -0.65" fill="#ff0000" fill-rule="evenodd" stroke="none"/>
  </g>
</svg>
