<?xml version="1.0" encoding="UTF-8" standalone="no"?>
<svg xmlns:xlink="http://www.w3.org/1999/xlink" height="16.7px" width="6.1px" xmlns="http://www.w3.org/2000/svg">
  <g transform="matrix(1.0, 0.0, 0.0, 1.0, 3.55, 8.05)">
    <path d="M0.25 -8.0 Q1.25 -7.8 1.9 -7.0 2.55 -6.2 2.55 -4.7 L2.55 6.95 2.25 7.9 1.35 8.45 0.25 8.65 -1.3 8.2 Q-2.05 7.75 -2.05 6.95 L-2.05 -3.35 -3.25 -4.25 Q-3.65 -4.95 -3.5 -5.6 L-2.85 -6.9 Q-2.35 -7.55 -1.55 -7.85 L0.25 -8.0" fill="#000000" fill-rule="evenodd" stroke="none"/>
    <path d="M0.2 -7.6 Q0.9 -7.4 1.35 -6.65 1.8 -5.9 1.8 -4.45 L1.8 6.6 1.55 7.5 0.95 8.05 0.2 8.25 Q-0.4 8.25 -0.9 7.8 -1.4 7.4 -1.4 6.6 L-1.4 -3.7 Q-2.05 -3.75 -2.45 -4.15 -2.85 -4.6 -2.9 -5.2 L-2.55 -6.45 -1.3 -7.45 0.2 -7.6" fill="#cccccc" fill-rule="evenodd" stroke="none"/>
  </g>
</svg>
