<?xml version="1.0" encoding="UTF-8" standalone="no"?>
<svg xmlns:xlink="http://www.w3.org/1999/xlink" height="16.8px" width="15.85px" xmlns="http://www.w3.org/2000/svg">
  <g transform="matrix(1.0, 0.0, 0.0, 1.0, 8.0, 8.1)">
    <path d="M5.9 -7.75 L7.2 -6.7 Q7.65 -6.05 7.65 -5.1 L7.65 -0.6 Q7.6 0.75 6.8 1.55 5.9 2.35 4.5 2.35 L4.15 2.35 3.0 2.35 2.9 2.35 0.9 2.35 -0.7 2.35 -0.8 2.35 -1.65 2.35 Q-2.35 2.4 -2.75 2.7 -3.2 2.95 -3.2 3.55 L-3.2 4.65 6.1 4.65 7.05 4.9 7.65 5.55 7.85 6.35 7.8 6.65 7.85 7.0 7.65 7.75 7.05 8.4 6.1 8.7 -4.4 8.7 Q-5.45 8.7 -6.1 8.2 -6.8 7.75 -7.15 7.0 L-7.5 5.55 -7.5 2.8 Q-7.45 1.4 -6.9 0.55 -6.35 -0.35 -5.45 -0.85 -4.6 -1.35 -3.6 -1.55 L-1.7 -1.65 3.5 -1.65 3.5 -4.05 -6.25 -4.05 -7.2 -4.3 -7.8 -4.95 -7.95 -5.7 -7.95 -6.05 -7.95 -6.4 -7.8 -7.15 -7.2 -7.8 -6.25 -8.1 4.25 -8.1 5.9 -7.75" fill="#000000" fill-rule="evenodd" stroke="none"/>
    <path d="M3.85 -1.25 L3.85 -4.45 -5.6 -4.45 Q-6.15 -4.45 -6.5 -4.7 L-7.05 -5.3 -7.2 -6.05 -7.05 -6.75 -6.5 -7.4 -5.6 -7.65 3.95 -7.65 5.5 -7.3 6.65 -6.35 Q7.1 -5.7 7.1 -4.8 L7.1 -0.9 Q7.05 0.35 6.3 1.15 5.5 1.9 4.2 1.9 L2.75 1.9 0.9 1.9 -0.65 1.9 -1.3 1.9 -2.2 2.0 -3.15 2.25 Q-3.55 2.5 -3.55 3.0 L-3.55 5.0 5.65 5.0 Q6.2 5.0 6.55 5.25 L7.1 5.85 7.25 6.6 7.1 7.3 6.55 7.95 5.65 8.2 -3.95 8.2 -5.5 7.75 -6.45 6.6 -6.75 5.25 -6.75 3.0 Q-6.75 1.7 -6.25 0.85 -5.7 0.0 -4.9 -0.45 L-3.2 -1.1 -1.45 -1.25 3.85 -1.25" fill="#cccccc" fill-rule="evenodd" stroke="none"/>
  </g>
</svg>
