<?xml version="1.0" encoding="UTF-8" standalone="no"?>
<svg xmlns:xlink="http://www.w3.org/1999/xlink" height="16.9px" width="15.7px" xmlns="http://www.w3.org/2000/svg">
  <g transform="matrix(1.0, 0.0, 0.0, 1.0, 7.9, 8.25)">
    <path d="M7.65 -0.1 L7.65 0.1 7.7 0.35 7.8 1.0 7.8 5.6 7.35 7.25 6.2 8.3 4.6 8.65 -6.05 8.65 -7.05 8.4 -7.65 7.75 -7.8 6.9 -7.8 6.6 -7.8 6.3 -7.7 5.5 -7.25 4.8 -6.3 4.55 -5.0 4.55 -3.9 4.55 -2.4 4.55 0.05 4.55 0.15 4.55 0.75 4.55 0.9 4.55 3.5 4.55 3.55 3.5 3.55 3.35 3.55 3.25 3.55 3.2 3.55 3.05 3.55 2.95 3.55 2.8 3.55 2.65 3.55 2.55 3.55 2.3 -6.1 2.3 -7.05 2.05 -7.65 1.4 -7.85 0.55 -7.85 0.4 -7.85 0.25 -7.85 0.05 -7.85 -0.15 -7.65 -0.95 -7.05 -1.65 -6.1 -1.9 3.5 -1.9 3.5 -4.2 -6.1 -4.1 Q-6.7 -4.1 -7.1 -4.4 L-7.7 -5.05 -7.9 -5.9 -7.85 -6.15 -7.9 -6.5 -7.7 -7.3 -7.1 -7.95 -6.1 -8.25 4.6 -8.25 6.15 -7.85 7.3 -6.8 Q7.75 -6.1 7.75 -5.2 L7.75 -0.75 7.65 -0.1" fill="#000000" fill-rule="evenodd" stroke="none"/>
    <path d="M7.2 -0.9 L7.1 -0.3 6.95 0.2 7.15 0.7 7.2 1.3 7.2 5.35 Q7.2 6.25 6.8 6.85 L5.75 7.8 4.3 8.15 -5.5 8.15 -6.4 7.9 -6.95 7.3 -7.1 6.55 -7.0 5.8 -6.6 5.2 -5.75 4.95 -4.55 4.95 -3.55 4.95 -2.15 4.95 0.15 4.95 3.95 4.95 4.0 4.0 4.0 2.8 4.0 1.85 -5.55 1.85 -6.4 1.6 -6.95 1.0 -7.15 0.25 -6.95 -0.45 -6.4 -1.1 -5.55 -1.35 3.95 -1.35 3.95 -4.55 -5.55 -4.5 -6.45 -4.75 -7.0 -5.35 -7.15 -6.1 -7.0 -6.8 -6.45 -7.45 -5.55 -7.7 4.35 -7.7 5.75 -7.35 6.8 -6.35 Q7.2 -5.75 7.2 -4.95 L7.2 -0.9" fill="#cccccc" fill-rule="evenodd" stroke="none"/>
  </g>
</svg>
