<?xml version="1.0" encoding="UTF-8" standalone="no"?>
<svg xmlns:xlink="http://www.w3.org/1999/xlink" height="120.6px" width="119.1px" xmlns="http://www.w3.org/2000/svg">
  <g transform="matrix(1.0, 0.0, 0.0, 1.0, 60.15, -99.95)">
    <path d="M57.6 110.5 L58.95 113.55 53.7 116.85 42.25 120.3 Q43.25 124.75 38.55 126.2 37.0 126.6 35.25 125.8 33.05 124.8 32.0 123.3 26.25 124.75 23.05 119.85 21.45 117.5 23.45 115.4 25.45 113.35 28.4 114.25 30.2 114.8 31.45 114.0 L32.3 113.95 34.05 108.35 44.45 109.55 49.6 112.15 57.6 110.5 M47.75 207.2 Q51.85 212.35 45.8 215.85 44.6 216.55 43.05 216.15 40.95 215.55 39.9 214.35 L33.7 217.6 27.2 209.4 25.4 203.9 20.05 200.4 21.35 199.5 26.35 199.05 27.95 198.8 36.35 203.35 Q38.8 199.45 43.15 201.8 44.55 202.6 45.2 204.4 45.75 205.75 45.8 207.0 L47.75 207.2 M-14.3 117.0 Q-14.9 119.25 -16.85 120.3 -22.45 118.8 -28.2 120.15 L-31.75 120.45 Q-36.45 120.25 -39.05 115.95 L-39.45 115.55 -46.35 117.15 -55.75 116.8 Q-56.55 112.25 -59.9 108.35 L-60.15 108.05 -58.65 107.55 -53.65 106.6 -52.35 106.45 -52.3 106.85 Q-51.95 108.35 -50.6 108.9 -43.4 112.0 -37.1 106.2 -35.25 104.45 -34.7 102.0 L-34.45 100.6 -33.6 99.95 -26.6 106.4 Q-24.65 108.45 -24.3 110.6 -19.95 110.85 -15.85 113.3 -13.7 114.55 -14.3 117.0 M-8.4 200.3 L-3.3 208.3 Q-0.35 213.65 -5.05 217.5 -6.5 218.7 -8.1 218.7 -11.7 218.6 -12.75 216.2 -14.5 217.5 -17.1 217.45 -19.3 217.45 -21.15 218.45 -24.75 220.45 -28.6 220.55 -30.95 218.25 -33.95 217.05 -34.65 215.5 -35.75 214.15 L-38.7 214.25 Q-40.4 212.4 -42.8 210.85 L-44.65 209.3 -46.45 207.6 -44.35 207.25 -35.6 206.35 Q-31.1 206.7 -27.0 208.15 L-26.85 208.25 -22.45 208.0 -18.15 204.15 -8.4 200.3" fill="#ffffff" fill-rule="evenodd" stroke="none"/>
  </g>
</svg>
