<?xml version="1.0" encoding="UTF-8" standalone="no"?>
<svg xmlns:xlink="http://www.w3.org/1999/xlink" height="242.9px" width="75.25px" xmlns="http://www.w3.org/2000/svg">
  <g transform="matrix(1.0, 0.0, 0.0, 1.0, 37.2, 26.8)">
    <path d="M-13.75 -13.5 L-13.7 -14.15 -13.2 -14.6 -13.45 -14.35 -13.75 -13.5 M-27.8 78.6 L-28.15 80.4 Q-30.0 92.4 -27.0 104.3 L-26.05 107.6 Q-24.25 113.75 -30.45 113.4 -31.65 113.35 -32.3 112.15 -38.65 100.45 -36.75 87.6 -36.3 84.55 -36.5 81.4 -37.2 69.35 -32.95 58.2 -29.45 48.9 -26.3 39.45 -25.1 35.7 -24.45 31.9 -25.75 28.15 -26.25 24.3 -26.65 21.75 -24.25 20.7 -22.15 19.8 -20.5 20.35 -19.35 20.7 -18.4 21.85 L-17.25 18.35 Q-15.55 14.2 -18.75 11.35 -16.9 10.15 -15.8 8.3 -15.4 7.65 -14.8 7.35 -11.8 5.9 -11.8 2.9 L-11.8 1.55 Q-12.15 -4.05 -9.9 -9.45 -7.35 -15.6 -5.75 -21.65 L-4.2 -23.1 -2.85 -23.35 Q1.75 -24.3 5.8 -26.8 L6.35 -23.5 Q6.55 -21.8 7.25 -20.2 9.25 -15.85 13.3 -12.95 13.65 -12.0 13.45 -11.15 L13.3 -10.3 Q13.0 -7.1 11.55 -4.25 11.0 -3.2 10.9 -2.0 14.1 -1.35 14.75 1.7 15.0 2.75 14.9 4.15 14.55 9.9 16.2 15.3 23.1 26.1 31.5 35.7 39.25 44.5 37.85 55.65 37.5 58.15 35.95 60.2 38.7 67.65 36.9 75.35 36.35 77.7 36.5 80.2 36.85 84.35 36.05 88.4 37.1 91.35 36.85 94.65 36.7 96.7 35.3 98.25 34.1 105.8 33.05 113.35 32.8 115.3 31.6 116.9 30.05 122.1 30.25 127.75 30.35 129.8 29.75 131.65 L29.45 131.95 28.85 132.2 Q25.8 129.45 26.9 124.7 L27.05 121.85 Q26.15 113.6 28.1 105.7 29.3 100.75 29.9 95.65 30.7 89.15 29.7 82.9 29.4 80.95 29.45 78.9 29.45 76.9 29.95 74.95 28.95 73.05 28.4 70.95 27.95 69.25 28.0 67.4 25.25 68.75 22.75 70.7 L21.4 71.7 20.6 86.75 19.9 94.3 18.1 108.1 18.15 110.05 Q20.85 112.85 21.65 116.65 22.0 118.15 21.2 119.55 26.65 129.4 31.05 139.8 32.4 143.0 32.55 146.45 32.7 148.85 30.8 150.35 33.85 155.15 34.1 160.55 34.15 161.85 33.2 162.8 L32.7 163.35 32.25 163.5 32.2 163.55 31.6 163.8 Q29.8 171.9 29.3 180.2 28.95 185.95 30.25 191.4 L30.5 193.3 30.4 203.75 Q30.3 206.45 30.55 209.05 30.9 212.1 28.85 214.15 24.3 214.6 23.85 209.95 L21.65 187.25 Q20.6 176.8 18.6 166.55 L17.75 162.75 Q16.4 157.3 13.35 152.4 L11.05 149.05 Q7.6 150.1 5.55 147.2 L4.4 146.0 2.8 146.1 -0.45 147.6 Q1.85 157.6 2.75 167.9 3.25 173.35 2.6 178.75 2.4 180.25 1.2 181.3 -3.2 182.35 -5.05 179.85 L-5.3 180.15 -6.05 180.45 Q-6.05 181.95 -7.0 183.25 -4.85 193.35 -3.2 203.55 -2.5 207.7 -2.8 211.75 -2.85 212.5 -3.5 213.05 -2.95 217.0 -6.2 215.8 -7.2 215.45 -7.45 214.45 -10.25 203.2 -13.95 192.0 L-15.35 187.95 Q-18.9 177.4 -18.55 166.3 -18.5 164.7 -19.65 163.35 -26.65 161.55 -25.6 154.05 -24.05 143.0 -20.1 132.35 -18.1 127.05 -17.25 121.6 -20.45 118.25 -19.8 113.75 -19.55 112.1 -18.15 111.1 -17.85 102.65 -18.95 94.3 L-19.5 90.85 -20.35 86.6 Q-20.85 84.25 -20.6 82.3 L-22.8 78.95 -23.6 77.4 Q-24.65 74.9 -26.25 73.15 L-26.75 74.65 -27.8 78.6 M-23.55 13.4 L-23.1 14.6 -22.05 15.85 -22.05 15.95 Q-23.3 14.8 -23.55 13.4" fill="#99ccff" fill-rule="evenodd" stroke="none"/>
    <path d="M-27.8 78.6 L-26.75 74.65 -26.25 73.15 Q-24.65 74.9 -23.6 77.4 L-22.8 78.95 -20.6 82.3 Q-20.85 84.25 -20.35 86.6 L-19.5 90.85 -18.95 94.3 -21.2 91.5 -22.6 83.75 -27.7 78.6 -27.8 78.6" fill="#6699ff" fill-rule="evenodd" stroke="none"/>
  </g>
</svg>
