<?xml version="1.0" encoding="UTF-8" standalone="no"?>
<svg xmlns:xlink="http://www.w3.org/1999/xlink" height="4.85px" width="162.15px" xmlns="http://www.w3.org/2000/svg">
  <g transform="matrix(1.0, 0.0, 0.0, 1.0, 81.05, 2.4)">
    <path d="M81.1 2.45 L-81.05 2.45 -81.05 -2.4 81.1 -2.4 81.1 2.45" fill="#00ff99" fill-rule="evenodd" stroke="none"/>
    <path d="M-79.35 2.45 L-79.2 2.3 -79.05 2.15 -75.85 2.3 -75.25 2.45 -79.35 2.45" fill="#00ff99" fill-rule="evenodd" stroke="none"/>
    <path d="M-36.35 -2.4 L-34.95 -0.35 Q-34.0 0.95 -32.6 1.4 -29.35 2.45 -25.85 2.15 L-22.4 1.85 -6.2 0.65 11.5 -0.25 Q14.9 -0.4 18.15 -1.35 22.45 -2.6 26.6 -1.5 33.8 0.45 41.25 -0.85 L53.7 -2.15 58.1 -2.4 81.1 -2.4 81.1 2.45 -56.75 2.45 -53.25 1.5 Q-46.65 -0.65 -40.0 -2.4 L-36.35 -2.4" fill="#0099cc" fill-rule="evenodd" stroke="none"/>
    <path d="M58.1 -2.4 L53.7 -2.15 41.25 -0.85 Q33.8 0.45 26.6 -1.5 22.45 -2.6 18.15 -1.35 14.9 -0.4 11.5 -0.25 L-6.2 0.65 -22.4 1.85 -25.85 2.15 Q-29.35 2.45 -32.6 1.4 -34.0 0.95 -34.95 -0.35 L-36.35 -2.4 58.1 -2.4 M-40.0 -2.4 Q-46.65 -0.65 -53.25 1.5 L-56.75 2.45 -75.25 2.45 -75.85 2.3 -79.05 2.15 -79.2 2.3 -79.35 2.45 -81.05 2.45 -81.05 -2.4 -40.0 -2.4" fill="#00ccff" fill-rule="evenodd" stroke="none"/>
  </g>
</svg>
