<?xml version="1.0" encoding="UTF-8" standalone="no"?>
<svg xmlns:xlink="http://www.w3.org/1999/xlink" height="7.0px" width="32.3px" xmlns="http://www.w3.org/2000/svg">
  <g transform="matrix(1.0, 0.0, 0.0, 1.0, -8.75, -21.4)">
    <path d="M10.05 23.9 L10.3 23.8 Q11.45 23.2 13.8 22.75 L15.5 22.5 15.35 22.7 Q14.95 23.5 15.55 24.1 16.75 25.3 18.35 24.4 19.1 23.95 18.9 23.1 18.8 22.45 18.4 22.15 L20.5 22.0 24.9 21.9 35.95 22.75 Q38.0 23.15 39.15 23.65 L39.75 23.9 36.5 24.6 34.1 24.85 28.25 25.3 22.5 25.5 16.75 25.3 10.85 24.55 10.05 23.9" fill="#999999" fill-rule="evenodd" stroke="none"/>
    <path d="M15.5 22.5 L16.0 22.4 18.4 22.15 Q18.8 22.45 18.9 23.1 19.1 23.95 18.35 24.4 16.75 25.3 15.55 24.1 14.95 23.5 15.35 22.7 L15.5 22.5" fill="#cccccc" fill-rule="evenodd" stroke="none"/>
    <path d="M39.75 23.9 Q40.5 24.35 40.55 24.85 L40.55 24.9 Q40.55 26.15 35.95 27.0 L24.9 27.9 24.3 27.9 20.85 27.8 13.8 27.0 Q10.9 26.45 9.85 25.75 L9.35 25.25 9.25 24.9 Q9.25 24.35 10.05 23.9 L10.85 24.55 16.75 25.3 22.5 25.5 28.25 25.3 34.1 24.85 36.5 24.6 39.75 23.9 39.15 23.65 39.2 23.65 39.75 23.9" fill="#666666" fill-rule="evenodd" stroke="none"/>
    <path d="M39.75 23.9 Q40.5 24.35 40.55 24.85 L40.55 24.9 Q40.55 26.15 35.95 27.0 L24.9 27.9 24.3 27.9 20.85 27.8 13.8 27.0 Q10.9 26.45 9.85 25.75 L9.35 25.25 9.25 24.9 Q9.25 24.35 10.05 23.9 M39.75 23.9 L39.15 23.65" fill="none" stroke="#000000" stroke-linecap="round" stroke-linejoin="round" stroke-width="1.0"/>
    <path d="M10.3 23.8 Q11.45 23.2 13.8 22.75 L15.5 22.5 16.0 22.4 18.4 22.15 20.5 22.0 24.9 21.9 35.95 22.75 Q38.0 23.15 39.15 23.65" fill="none" stroke="#666666" stroke-linecap="round" stroke-linejoin="round" stroke-width="1.0"/>
  </g>
</svg>
