<?xml version="1.0" encoding="UTF-8" standalone="no"?>
<svg xmlns:xlink="http://www.w3.org/1999/xlink" height="17.35px" width="17.55px" xmlns="http://www.w3.org/2000/svg">
  <g transform="matrix(1.0, 0.0, 0.0, 1.0, -1.3, -0.95)">
    <path d="M17.6 2.15 L17.65 2.1 18.25 2.1 18.2 2.0 Q18.1 1.55 18.4 1.35 L17.6 1.25 13.0 1.25 11.85 1.25 4.5 1.25 4.1 1.3 4.25 1.3 Q4.4 1.5 4.15 1.9 L3.95 2.1 4.05 2.1 11.85 2.15 13.0 2.15 13.3 2.15 13.35 2.2 13.75 2.3 13.8 2.3 13.85 2.2 13.95 2.15 17.6 2.15 M3.85 0.95 L18.8 0.95 18.8 14.65 18.65 14.85 17.95 15.45 16.65 16.65 16.15 17.1 15.65 17.65 15.5 17.85 1.3 17.85 1.3 3.6 3.85 0.95" fill="#000000" fill-rule="evenodd" stroke="none"/>
    <path d="M17.6 2.15 L13.95 2.15 13.85 2.2 13.8 2.3 13.75 2.3 13.35 2.2 13.3 2.15 13.0 2.15 11.85 2.15 4.05 2.1 3.95 2.1 4.15 1.9 Q4.4 1.5 4.25 1.3 L4.1 1.3 4.5 1.25 11.85 1.25 13.0 1.25 17.6 1.25 18.4 1.35 Q18.1 1.55 18.2 2.0 L18.25 2.1 17.65 2.1 17.6 2.15" fill="#cccccc" fill-rule="evenodd" stroke="none"/>
    <path d="M5.15 6.1 L5.15 6.2 5.15 6.1" fill="#ffcc00" fill-rule="evenodd" stroke="none"/>
    <path d="M2.75 16.15 L2.75 16.25 2.25 16.6 2.1 16.65 1.85 16.85 1.85 3.75 2.2 3.4 3.45 2.15 3.95 1.65 4.2 1.3 13.4 1.3 Q13.1 1.55 13.4 2.0 L6.15 2.0 5.65 2.0 4.95 2.0 4.55 2.3 Q3.75 2.9 3.1 3.6 L2.65 4.05 2.65 4.2 2.65 4.9 2.65 5.05 2.65 5.1 2.65 5.25 2.75 8.55 2.75 10.75 2.75 10.8 2.75 12.4 2.75 14.95 2.75 16.15" fill="#cccccc" fill-rule="evenodd" stroke="none"/>
    <path d="M17.25 2.1 L17.25 3.85 17.25 4.9 17.25 5.05 17.25 5.1 17.25 5.25 17.25 7.75 17.25 10.75 17.25 10.8 17.25 12.1 17.25 13.95 17.0 14.15 14.95 15.95 14.75 16.15 12.3 16.15 10.4 16.15 7.4 16.15 6.15 16.1 2.75 16.15 2.75 14.95 2.75 12.4 2.75 10.8 2.75 10.75 2.75 8.55 2.65 5.25 2.65 5.1 2.65 5.05 2.65 4.9 2.65 4.2 2.65 4.05 3.1 3.6 Q3.75 2.9 4.55 2.3 L4.95 2.0 5.65 2.0 6.15 2.0 13.4 2.0 13.5 2.0 17.25 2.05 17.25 2.1 M5.15 6.1 L5.15 6.2 5.15 6.1" fill="#666666" fill-rule="evenodd" stroke="none"/>
    <path d="M17.25 2.1 L18.2 1.4 18.2 1.3 18.3 1.3 18.3 14.25 18.1 14.4 16.85 15.55 16.25 16.15 15.8 16.55 15.4 16.95 15.35 17.0 15.15 17.25 1.85 17.25 1.85 16.85 2.1 16.65 2.25 16.6 2.75 16.25 2.75 16.15 6.15 16.1 7.4 16.15 10.4 16.15 12.3 16.15 14.75 16.15 14.95 15.95 17.0 14.15 17.25 13.95 17.25 12.1 17.25 10.8 17.25 10.75 17.25 7.75 17.25 5.25 17.25 5.1 17.25 5.05 17.25 4.9 17.25 3.85 17.25 2.1" fill="#333333" fill-rule="evenodd" stroke="none"/>
    <path d="M12.85 9.8 L12.75 6.35 7.45 6.35 7.45 11.65 11.7 11.65 11.7 15.3 3.85 15.3 3.85 3.0 16.25 3.0 16.35 8.9 16.4 13.15 18.85 16.2 16.55 18.3 12.95 14.7 12.85 9.8" fill="#000000" fill-rule="evenodd" stroke="none"/>
    <path d="M15.2 4.1 L15.2 4.15 15.2 7.1 15.2 10.05 15.15 13.05 Q15.1 13.6 15.75 13.5 L15.5 13.55 Q15.7 14.1 16.25 14.4 L16.6 14.8 17.5 15.9 16.65 16.75 16.8 16.9 16.45 16.55 14.3 14.55 13.8 14.15 13.75 12.2 13.7 9.25 13.7 6.3 13.6 5.9 13.6 5.85 13.65 5.95 13.65 5.55 13.45 5.4 6.85 5.35 Q6.45 5.55 6.6 5.95 L6.5 8.5 6.45 11.45 6.5 12.2 Q6.55 12.75 7.1 12.55 L7.1 12.5 7.15 12.5 7.9 12.7 10.6 12.7 10.6 14.15 8.95 14.1 7.85 14.1 4.9 14.1 4.9 14.05 4.9 13.85 4.9 10.85 4.9 7.9 4.9 4.95 4.9 4.1 5.9 4.15 15.2 4.1" fill="#ff3399" fill-rule="evenodd" stroke="none"/>
    <path d="M15.2 4.1 L5.9 4.15 4.9 4.1 4.9 4.95 4.9 7.9 4.9 10.85 4.9 13.85 4.9 14.05 Q4.55 14.15 4.3 14.35 L4.3 3.35 15.8 3.35 15.8 4.1 15.2 4.1 M10.6 12.7 L7.9 12.7 7.15 12.5 7.1 12.5 7.55 12.0 11.0 12.0 10.85 12.25 10.7 12.6 10.7 12.7 10.6 12.7 M13.6 5.9 L13.7 6.3 13.7 9.25 13.75 12.2 13.8 14.15 14.3 14.55 16.45 16.55 16.8 16.9 16.7 16.8 16.65 16.8 16.25 17.45 13.55 14.75 13.25 14.75 13.25 10.55 13.2 10.55 13.2 6.25 13.6 5.9" fill="#ff9999" fill-rule="evenodd" stroke="none"/>
    <path d="M16.8 16.9 L16.65 16.75 17.5 15.9 16.6 14.8 16.25 14.4 Q15.7 14.1 15.5 13.55 L15.75 13.5 Q15.1 13.6 15.15 13.05 L15.2 10.05 15.2 7.1 15.2 4.15 15.2 4.1 15.8 4.1 15.8 13.35 18.0 15.6 18.05 15.55 18.25 15.8 16.45 17.65 16.25 17.45 16.65 16.8 16.7 16.8 16.8 16.9 M4.9 14.05 L4.9 14.1 7.85 14.1 8.95 14.1 10.6 14.15 10.6 12.7 10.7 12.7 10.7 12.6 10.85 12.25 11.0 12.0 11.25 12.0 11.25 14.75 4.3 14.75 4.3 14.35 Q4.55 14.15 4.9 14.05 M7.15 12.5 L7.1 12.5 7.1 12.55 Q6.55 12.75 6.5 12.2 L6.45 11.45 6.5 8.5 6.6 5.95 Q6.45 5.55 6.85 5.35 L13.45 5.4 13.65 5.55 13.65 5.95 13.6 5.85 13.6 5.9 13.2 6.25 13.2 5.8 7.0 5.8 7.0 12.0 7.55 12.0 7.1 12.5 7.15 12.5" fill="#cc3366" fill-rule="evenodd" stroke="none"/>
  </g>
</svg>
