<?xml version="1.0" encoding="UTF-8" standalone="no"?>
<svg xmlns:xlink="http://www.w3.org/1999/xlink" height="14.45px" width="9.5px" xmlns="http://www.w3.org/2000/svg">
  <g transform="matrix(1.0, 0.0, 0.0, 1.0, 4.6, 5.85)">
    <path d="M-2.65 -2.45 L-2.65 -2.4 -2.7 -2.4 -2.65 -2.45" fill="#1e5a77" fill-rule="evenodd" stroke="none"/>
    <path d="M-4.2 -0.45 L-3.6 0.45 -2.75 1.15 -1.5 1.9 -0.15 2.45 1.35 2.25 Q2.25 2.1 2.9 1.45 3.55 0.75 3.6 -0.15 L3.7 -1.05 3.7 -1.55 3.7 -1.7 3.65 -2.1 3.5 -2.85 3.5 -2.9 3.55 -2.9 3.65 -2.95 3.7 -2.9 3.75 -2.9 4.25 -2.2 4.3 -2.05 4.55 -1.25 4.5 -1.1 Q4.65 0.2 4.25 1.55 L3.55 3.2 2.75 4.6 2.05 5.9 1.75 6.6 1.7 7.1 1.8 8.0 1.85 8.4 0.75 7.85 0.7 7.8 0.5 7.55 0.35 7.45 0.25 7.3 0.25 7.45 0.3 7.5 0.05 7.3 0.0 7.25 -0.05 7.25 Q-0.35 6.9 -0.6 7.25 L-1.2 7.7 -1.85 7.75 Q-1.35 5.35 -2.9 3.35 L-3.6 2.2 -4.05 0.75 -4.2 0.0 -4.2 -0.45" fill="#98780c" fill-rule="evenodd" stroke="none"/>
    <path d="M-0.35 -5.1 L1.25 -5.15 1.3 -5.2 2.5 -4.3 3.05 -3.75 3.65 -2.95 3.55 -2.9 3.5 -2.9 3.5 -2.85 3.65 -2.1 3.7 -1.7 3.7 -1.55 3.7 -1.05 3.6 -0.15 Q3.55 0.75 2.9 1.45 2.25 2.1 1.35 2.25 L-0.15 2.45 -1.5 1.9 -2.75 1.15 -3.6 0.45 -4.2 -0.45 -4.15 -1.75 -3.55 -1.6 -3.15 -1.2 -0.6 -3.15 -0.15 -3.35 0.05 -3.9 0.3 -4.45 Q0.25 -5.15 -0.35 -5.1" fill="#c7af52" fill-rule="evenodd" stroke="none"/>
    <path d="M-0.35 -5.1 Q0.25 -5.15 0.3 -4.45 L0.05 -3.9 -0.15 -3.35 -0.6 -3.15 -3.15 -1.2 -3.55 -1.6 -4.15 -1.75 -4.05 -2.75 -1.15 -5.35 -1.15 -5.3 -1.1 -5.2 -1.05 -5.2 -0.65 -5.1 -0.35 -5.1 M-2.85 -4.55 L-2.6 -4.8 -1.75 -5.35 -1.5 -5.4 Q-1.35 -5.3 -1.95 -5.05 L-2.85 -4.55 M-2.65 -2.45 L-2.7 -2.4 -2.65 -2.4 -2.65 -2.45" fill="#ffff99" fill-rule="evenodd" stroke="none"/>
    <path d="M3.65 -2.95 L3.05 -3.75 2.5 -4.3 1.3 -5.2 1.25 -5.15 -0.35 -5.1 -0.65 -5.1 -1.05 -5.2 -1.1 -5.2 -1.15 -5.3 -1.15 -5.35 -4.05 -2.75 -4.15 -1.75 -4.2 -0.45 -4.2 0.0 -4.05 0.75 -3.6 2.2 -2.9 3.35 Q-1.35 5.35 -1.85 7.75 L-1.2 7.7 -0.6 7.25 Q-0.35 6.9 -0.05 7.25 L0.05 7.3 0.3 7.5 0.25 7.45 0.25 7.3 0.35 7.45 0.5 7.55 0.7 7.8 0.75 7.85 1.85 8.4 1.8 8.0 1.7 7.1 1.75 6.6 2.05 5.9 2.75 4.6 3.55 3.2 4.25 1.55 Q4.65 0.2 4.5 -1.1 L4.55 -1.25 4.3 -2.05 4.25 -2.2 3.75 -2.9 3.7 -2.9 3.65 -2.95 M-1.5 -5.4 L-0.65 -5.8 -0.6 -5.8 -0.05 -5.8 1.45 -5.8 3.35 -4.05 4.6 -2.3 4.65 -2.15 4.85 -1.0 Q5.05 0.45 4.7 1.9 L4.25 3.0 3.9 3.55 3.5 4.3 2.85 5.45 2.6 5.8 2.4 6.45 2.4 6.55 2.3 6.65 Q2.0 7.55 2.25 8.5 L2.3 8.6 0.9 8.35 0.45 8.2 -0.2 7.65 -2.15 8.2 -2.6 7.85 Q-2.3 7.45 -2.3 7.1 -2.25 6.2 -2.35 5.35 -2.4 4.95 -2.8 4.5 L-3.15 4.05 -3.55 3.05 -4.05 2.1 -4.45 1.0 -4.6 -0.25 -4.55 -1.7 Q-4.6 -2.65 -4.05 -3.2 L-2.85 -4.55 -1.95 -5.05 Q-1.35 -5.3 -1.5 -5.4" fill="#000000" fill-rule="evenodd" stroke="none"/>
  </g>
</svg>
