<?xml version="1.0" encoding="UTF-8" standalone="no"?>
<svg xmlns:xlink="http://www.w3.org/1999/xlink" height="17.95px" width="14.95px" xmlns="http://www.w3.org/2000/svg">
  <g transform="matrix(1.0, 0.0, 0.0, 1.0, 7.95, 8.5)">
    <path d="M0.05 -7.7 L0.3 -7.5 0.8 -7.4 0.95 -7.3 1.8 -7.15 1.9 -7.05 2.0 -6.95 2.1 -6.85 2.35 -6.25 2.75 -5.5 3.1 -5.45 3.35 -5.4 3.4 -5.4 3.95 -5.3 Q3.6 -6.7 2.75 -7.85 L2.5 -8.0 0.95 -8.15 0.65 -8.2 0.55 -8.25 0.5 -8.25 0.15 -8.1 0.05 -7.9 0.0 -7.9 0.05 -7.7 M1.5 -6.05 L1.35 -6.15 1.25 -6.2 1.1 -6.2 0.55 -6.3 -0.25 -6.25 -0.6 -6.2 -0.7 -6.2 -1.2 -6.05 -1.4 -5.95 -1.65 -5.7 -2.2 -5.05 -2.3 -4.9 -2.4 -4.75 -2.55 -4.55 -2.55 -4.5 -2.55 -4.45 -2.6 -4.4 -2.65 -4.35 -2.75 -4.15 -2.85 -3.85 -2.9 -3.75 -2.95 -3.65 -3.0 -3.4 -3.15 -3.4 -3.15 -3.35 -3.25 -3.35 -3.3 -3.3 -3.45 -3.2 -3.5 -3.15 -3.5 -3.3 -3.55 -3.3 -3.55 -3.4 -3.5 -3.55 -3.45 -3.6 -3.3 -4.0 -3.25 -4.15 -3.1 -4.45 -3.05 -4.6 -3.2 -4.55 -4.15 -3.95 -4.55 -3.4 -4.6 -3.25 Q-4.8 -2.55 -4.6 -1.9 L-4.55 -1.8 -4.3 -1.9 -4.2 -2.05 -4.15 -2.05 -4.15 -2.1 -3.95 -2.05 -3.8 -1.9 -3.35 -1.4 -2.8 -0.95 -2.75 -0.95 -2.65 -0.85 -2.3 -0.7 -1.95 -0.55 1.8 -0.3 1.85 -0.3 2.05 -0.4 Q2.7 -0.6 3.2 -1.1 L3.45 -1.4 3.75 -1.75 4.05 -2.05 4.2 -2.2 4.35 -2.2 4.35 -2.25 4.75 -1.9 4.9 -1.8 5.15 -1.5 5.8 -0.75 Q6.3 -1.75 5.85 -2.85 L5.5 -3.55 5.2 -4.0 5.15 -4.05 4.8 -4.55 4.5 -4.8 3.45 -5.2 3.4 -5.2 3.05 -5.2 2.9 -5.15 2.9 -5.1 3.0 -4.9 3.1 -4.65 3.1 -4.7 3.25 -4.65 3.45 -4.1 3.35 -3.75 3.25 -3.6 3.2 -3.5 3.15 -3.4 2.85 -3.05 2.8 -3.0 2.6 -2.8 2.15 -2.55 1.95 -2.55 1.8 -2.6 Q1.45 -2.8 1.35 -3.15 L0.9 -3.75 0.8 -3.75 0.7 -3.85 0.7 -3.9 Q0.4 -4.05 0.25 -4.25 L-0.1 -4.25 -0.3 -4.2 -0.35 -4.2 -0.75 -3.55 -1.15 -3.0 -1.2 -2.95 -1.2 -2.9 -1.5 -2.65 -2.1 -2.45 -2.35 -2.45 -2.5 -2.45 -2.45 -2.7 -2.3 -2.65 -2.05 -2.55 -1.6 -3.3 -1.5 -3.45 -1.45 -3.5 -1.0 -4.1 -0.9 -4.2 -0.6 -4.5 -0.2 -4.85 0.0 -4.85 0.05 -4.85 0.25 -4.8 0.25 -4.75 0.35 -4.75 0.75 -4.55 0.8 -4.5 0.85 -4.45 1.0 -4.3 1.2 -4.1 1.3 -3.95 1.9 -3.0 2.05 -2.65 2.5 -3.0 2.6 -3.1 2.8 -3.35 2.95 -3.5 3.05 -3.7 2.85 -4.05 2.8 -4.2 2.75 -4.35 2.65 -4.5 2.55 -4.7 2.5 -4.75 2.45 -4.8 2.4 -4.95 2.35 -5.05 2.3 -5.1 2.15 -5.35 1.6 -5.95 1.5 -6.05 M3.1 -4.65 L3.05 -4.65 3.1 -4.55 3.15 -4.55 3.1 -4.65 M1.4 -6.9 Q0.6 -7.15 -0.1 -7.55 L-0.2 -7.7 -0.15 -7.95 -0.15 -8.15 0.25 -8.5 Q1.75 -8.5 3.05 -7.85 L3.35 -7.55 4.05 -6.2 4.45 -5.15 4.6 -5.1 4.7 -5.05 6.05 -3.2 6.25 -2.45 6.1 -0.3 6.55 0.6 Q7.0 1.6 7.0 2.75 L7.0 5.7 6.9 5.95 6.8 6.1 6.3 5.9 5.9 5.75 4.55 5.25 4.45 6.35 3.6 8.85 3.45 9.4 Q2.85 9.6 2.4 9.05 L2.15 8.8 -0.25 7.35 -1.1 6.45 -1.3 6.55 -3.25 7.35 -4.1 7.55 Q-4.6 7.7 -4.5 7.35 -4.8 7.1 -4.75 6.65 L-4.8 6.45 -5.15 3.8 -6.3 3.85 -7.45 4.05 -7.65 4.05 -7.8 3.8 -7.95 3.35 -7.65 1.75 Q-7.25 0.45 -6.4 -0.5 -5.75 -1.25 -4.9 -1.65 L-5.0 -2.05 -5.0 -2.55 Q-5.0 -3.75 -4.05 -4.45 L-3.5 -4.6 -3.35 -4.7 -3.3 -4.75 -3.0 -4.7 -2.95 -4.9 -2.8 -5.15 -2.75 -5.15 -2.35 -5.7 -2.3 -5.75 Q-1.75 -6.3 -0.9 -6.5 L-0.85 -6.55 -0.8 -6.55 -0.8 -6.6 -0.55 -6.65 -0.4 -6.7 0.25 -6.6 1.75 -6.25 1.95 -6.15 1.5 -6.8 1.4 -6.9 M2.75 -0.45 L2.5 -0.3 2.3 -0.2 1.25 0.05 1.0 0.1 -0.4 0.25 -1.55 0.1 -2.75 -0.4 -3.45 -1.05 -3.45 -1.0 -3.45 -0.6 -3.45 -0.4 -3.45 -0.3 -3.45 -0.15 -3.35 0.55 -3.3 0.65 -3.3 0.7 -3.25 0.8 -3.25 0.9 -3.2 1.0 -2.8 1.8 -2.45 2.25 -2.0 2.75 -1.35 3.3 -1.25 3.3 -0.8 3.55 -0.65 3.6 -0.6 3.65 -0.55 3.65 -0.45 3.7 -0.2 3.75 0.0 3.8 0.05 3.8 0.15 3.8 0.4 3.85 0.75 3.7 0.9 3.65 1.15 3.55 1.5 3.35 2.35 2.65 2.45 2.55 2.8 2.1 3.05 1.65 3.2 1.3 3.2 1.25 3.25 1.15 3.4 0.85 3.4 0.75 3.55 0.4 3.55 0.25 3.6 0.1 3.6 -0.1 3.65 -0.15 3.65 -0.2 3.65 -0.35 3.7 -0.55 3.7 -1.1 3.65 -1.05 3.15 -0.7 3.1 -0.7 2.75 -0.45 M4.35 -1.8 L4.3 -1.85 4.25 -1.9 4.1 -1.6 4.05 -1.45 4.0 -1.2 4.1 -1.15 4.2 -0.8 3.85 0.05 3.75 0.15 3.65 0.4 3.5 0.6 3.2 1.7 3.15 1.75 2.95 2.05 2.9 2.15 2.6 2.65 2.5 2.8 2.1 3.2 1.7 3.6 1.55 3.65 0.75 4.15 0.45 4.15 -0.3 3.85 -0.65 3.75 -1.25 3.5 -2.3 2.7 -2.75 2.15 -2.8 2.1 -2.9 2.0 -3.2 1.6 -3.35 1.45 -3.45 1.35 -3.7 1.1 -3.95 0.65 Q-3.9 -0.05 -4.0 -0.75 L-4.1 -1.25 Q-4.2 -1.6 -3.9 -1.7 L-3.9 -1.75 -4.0 -1.7 -4.05 -1.7 -4.35 -1.55 -4.6 -1.45 -4.65 -1.4 -6.05 -0.35 -6.4 0.05 -7.05 1.3 -7.05 1.35 -7.15 1.6 -7.35 2.1 -7.55 3.15 -7.55 3.35 -7.45 3.55 -7.35 3.5 -7.1 3.45 -6.4 3.35 -6.35 3.35 -6.25 3.35 -6.2 3.35 -6.05 3.2 -6.05 3.25 -5.95 3.35 -5.9 3.35 -5.25 3.45 -5.2 3.45 -4.85 3.35 -4.85 3.5 -4.85 3.6 -4.85 3.75 -4.8 5.0 -4.55 6.3 -4.35 6.95 -4.4 7.0 -4.4 7.2 -4.1 7.45 -4.25 7.2 -4.1 7.45 -4.0 7.45 -3.95 7.45 -3.85 7.35 -3.8 7.35 -3.4 7.15 -2.85 6.85 -1.35 5.75 -1.1 5.45 -1.05 5.65 -0.9 6.0 -0.8 6.2 Q-0.2 7.3 0.9 7.9 1.65 8.5 2.6 8.65 L2.8 8.8 3.05 8.95 3.05 8.9 3.25 8.35 3.25 8.3 3.6 7.45 3.9 6.8 4.0 6.3 4.15 5.2 4.15 4.95 4.15 4.7 4.15 4.6 4.15 4.45 4.55 4.85 4.65 4.9 4.7 4.95 Q5.2 5.3 5.85 5.4 L6.1 5.55 6.25 5.5 6.5 5.4 6.55 5.0 6.6 4.95 6.6 4.65 6.55 4.25 6.4 2.25 6.3 1.6 6.25 1.3 5.9 0.1 5.8 -0.1 5.55 -0.4 5.55 -0.45 5.45 -0.6 5.25 -0.8 5.1 -0.95 4.6 -1.5 4.35 -1.8" fill="#000000" fill-rule="evenodd" stroke="none"/>
    <path d="M-2.75 -4.15 L-2.65 -4.35 -2.6 -4.4 -2.55 -4.45 -2.55 -4.5 -2.55 -4.55 -2.4 -4.75 -2.3 -4.9 -2.2 -5.05 -1.65 -5.7 -1.4 -5.95 -1.2 -6.05 -0.7 -6.2 -0.6 -6.2 -0.25 -6.25 0.55 -6.3 1.1 -6.2 1.25 -6.2 1.35 -6.15 1.5 -6.05 1.4 -5.85 1.45 -5.7 Q1.85 -5.25 1.75 -4.65 L1.75 -4.9 1.35 -5.15 1.25 -5.15 1.15 -5.1 Q1.15 -5.6 0.5 -5.6 L0.4 -5.5 0.15 -5.6 -0.2 -5.35 -0.55 -5.4 -0.6 -5.35 -0.8 -5.1 -0.95 -5.1 -1.0 -5.05 -1.05 -4.8 Q-0.9 -5.4 -1.6 -5.4 L-1.65 -5.35 -1.7 -5.35 -1.9 -4.9 -1.9 -4.85 -2.2 -4.65 -2.35 -4.25 -2.3 -4.2 -2.35 -4.2 -2.45 -4.2 -2.5 -4.15 -2.7 -4.2 -2.75 -4.15 M0.8 -4.5 L0.75 -4.55 0.85 -4.6 0.9 -4.6 0.9 -4.55 0.8 -4.5 M-1.5 -3.45 L-1.6 -3.3 -1.8 -3.65 -1.8 -3.8 -1.8 -3.75 -1.5 -3.45 M-0.65 -6.15 L-0.95 -6.0 Q-1.15 -5.65 -0.75 -5.45 L-0.45 -5.55 Q-0.05 -6.0 -0.65 -6.15" fill="#6fa637" fill-rule="evenodd" stroke="none"/>
    <path d="M3.1 -4.65 L3.15 -4.55 3.1 -4.55 3.05 -4.65 3.1 -4.65 M5.4 2.2 Q5.65 2.8 5.25 3.2 4.8 3.1 4.65 2.6 L4.5 1.95 Q4.4 1.45 4.85 1.45 5.3 1.55 5.35 2.05 L5.4 2.2 M0.55 4.75 L0.65 4.75 1.4 5.5 1.65 5.95 Q1.95 6.45 1.35 6.4 1.15 6.4 1.0 6.25 0.5 5.7 0.4 4.95 0.4 4.8 0.55 4.75 M-5.6 1.0 L-5.85 1.4 -6.4 2.0 -6.55 2.0 -6.7 1.6 Q-6.6 0.85 -6.0 0.4 -5.4 0.4 -5.6 1.0" fill="#cc99ff" fill-rule="evenodd" stroke="none"/>
    <path d="M4.1 -1.6 L4.2 -1.75 4.25 -1.8 4.35 -1.8 4.6 -1.5 5.1 -0.95 5.25 -0.8 5.45 -0.6 5.55 -0.45 5.55 -0.4 5.8 -0.1 5.9 0.1 6.25 1.3 6.3 1.6 6.4 2.25 5.75 1.05 Q5.35 0.6 4.8 0.55 L4.7 0.6 4.5 0.75 4.5 0.8 4.2 1.95 4.5 3.15 4.5 3.5 4.55 3.2 4.75 3.55 4.95 3.9 Q5.65 4.65 6.6 4.95 L6.55 5.0 6.5 5.4 6.25 5.5 6.1 5.55 5.85 5.4 Q5.2 5.3 4.7 4.95 L4.65 4.9 4.55 4.85 4.15 4.45 4.15 4.6 4.15 4.7 4.15 4.95 4.15 5.2 4.0 6.3 3.9 6.8 3.6 7.45 3.25 8.3 3.25 8.35 3.05 8.9 3.05 8.95 2.8 8.8 2.6 8.65 Q1.65 8.5 0.9 7.9 -0.2 7.3 -0.8 6.2 L-0.9 6.0 -1.05 5.65 -1.1 5.45 -1.35 5.75 -2.85 6.85 -3.4 7.15 -3.8 7.35 -3.85 7.35 -3.95 7.45 -4.0 7.45 -4.1 7.45 -4.25 7.2 -4.1 7.45 -4.4 7.2 -4.4 7.0 -4.35 6.95 -4.55 6.3 -4.8 5.0 -4.85 3.75 -4.85 3.6 -4.85 3.5 -4.85 3.35 -5.2 3.45 -5.25 3.45 -5.9 3.35 -5.95 3.35 -6.05 3.25 -6.05 3.2 -6.2 3.35 -6.25 3.35 -6.35 3.35 -6.4 3.35 -7.1 3.45 -7.35 3.5 -7.45 3.55 -7.55 3.35 -7.55 3.15 -7.35 3.15 Q-6.15 3.15 -5.2 2.4 L-4.95 2.25 -4.8 2.05 -4.3 0.8 Q-4.2 0.45 -4.35 0.15 L-4.95 -0.7 -6.05 -0.35 -4.65 -1.4 -4.6 -1.45 -4.35 -1.55 -4.05 -1.7 -4.0 -1.7 -3.9 -1.75 -3.9 -1.7 Q-4.2 -1.6 -4.1 -1.25 L-4.0 -0.75 Q-3.9 -0.05 -3.95 0.65 L-3.7 1.1 -3.45 1.35 -3.35 1.45 -3.2 1.6 -2.9 2.0 -2.8 2.1 -2.75 2.15 -2.3 2.7 -1.25 3.5 -0.65 3.75 -0.3 3.85 0.45 4.15 0.75 4.15 1.55 3.65 1.7 3.6 2.1 3.2 2.5 2.8 2.6 2.65 2.9 2.15 2.95 2.05 3.15 1.75 3.2 1.7 3.5 0.6 3.65 0.4 3.75 0.15 3.85 0.05 4.2 -0.8 4.1 -1.15 4.0 -1.2 4.05 -1.45 4.1 -1.6 M0.3 4.85 L-0.2 5.5 -0.25 5.55 0.0 6.15 Q0.6 7.15 1.7 7.6 L2.9 8.25 Q2.9 7.45 3.2 6.75 L3.2 6.6 Q3.25 5.6 2.8 4.75 L2.65 4.65 0.5 4.6 0.3 4.85 M-3.35 1.45 L-3.35 1.5 -3.35 1.45 M-3.3 3.35 L-3.8 3.65 -4.05 5.15 -4.0 6.4 -3.95 6.55 -3.75 6.45 Q-2.75 6.15 -2.1 5.4 L-2.1 5.35 Q-1.75 4.4 -2.1 3.55 L-2.35 3.25 -2.85 3.2 -3.3 3.35" fill="#660099" fill-rule="evenodd" stroke="none"/>
    <path d="M0.75 -4.55 L0.35 -4.75 0.25 -4.75 0.25 -4.8 0.2 -4.95 Q0.15 -5.35 0.4 -5.5 L0.5 -5.6 Q1.15 -5.6 1.15 -5.1 L1.1 -4.9 0.9 -4.6 0.85 -4.6 0.75 -4.55 M0.0 -4.85 L-0.2 -4.85 -0.6 -4.5 -0.8 -4.8 -0.8 -5.1 -0.6 -5.35 -0.55 -5.4 -0.2 -5.35 Q0.05 -5.3 0.0 -4.9 L0.0 -4.85 M-1.0 -4.1 L-1.45 -3.5 -1.5 -3.45 -1.8 -3.75 -1.8 -3.8 -1.8 -3.65 -1.85 -3.55 -1.9 -3.4 -1.6 -3.3 -2.05 -2.55 -2.3 -2.65 -2.35 -2.7 -2.35 -2.75 -2.35 -3.0 -2.3 -3.2 -2.45 -3.2 -2.75 -3.6 -2.75 -3.8 -2.75 -3.9 -2.65 -4.1 -2.6 -4.15 -2.5 -4.15 -2.45 -4.2 -2.35 -4.2 -2.3 -4.2 Q-1.9 -4.2 -1.85 -3.9 L-1.6 -4.3 -1.55 -4.35 Q-1.05 -4.4 -1.0 -4.1 M-1.9 -4.85 L-1.9 -4.9 -1.7 -5.35 -1.65 -5.35 -1.6 -5.4 Q-0.9 -5.4 -1.05 -4.8 L-1.05 -4.75 Q-1.15 -4.35 -1.6 -4.5 L-1.9 -4.85 M-0.65 -6.15 Q-0.05 -6.0 -0.45 -5.55 L-0.75 -5.45 Q-1.15 -5.65 -0.95 -6.0 L-0.65 -6.15" fill="#8ac550" fill-rule="evenodd" stroke="none"/>
    <path d="M1.5 -6.05 L1.6 -5.95 2.15 -5.35 2.3 -5.1 2.35 -5.05 2.4 -4.95 2.45 -4.8 2.5 -4.75 2.55 -4.7 2.65 -4.5 2.75 -4.35 2.8 -4.2 2.85 -4.05 3.05 -3.7 2.95 -3.5 2.8 -3.35 2.6 -3.1 2.5 -3.0 2.05 -2.65 1.9 -3.0 1.3 -3.95 1.2 -4.1 1.0 -4.3 0.85 -4.45 0.8 -4.5 0.9 -4.55 0.9 -4.6 1.1 -4.9 1.15 -5.1 1.25 -5.15 1.35 -5.15 1.75 -4.9 1.75 -4.65 Q1.85 -5.25 1.45 -5.7 L1.4 -5.85 1.5 -6.05 M0.25 -4.8 L0.05 -4.85 0.0 -4.85 0.0 -4.9 Q0.05 -5.3 -0.2 -5.35 L0.15 -5.6 0.4 -5.5 Q0.15 -5.35 0.2 -4.95 L0.25 -4.8 M-0.6 -4.5 L-0.9 -4.2 -1.0 -4.1 Q-1.05 -4.4 -1.55 -4.35 L-1.6 -4.3 -1.85 -3.9 Q-1.9 -4.2 -2.3 -4.2 L-2.35 -4.25 -2.2 -4.65 -1.9 -4.85 -1.6 -4.5 Q-1.15 -4.35 -1.05 -4.75 L-1.05 -4.8 -1.0 -5.05 -0.95 -5.1 -0.8 -5.1 -0.8 -4.8 -0.6 -4.5 M-2.3 -2.65 L-2.45 -2.7 -2.85 -2.9 -3.1 -3.2 -3.05 -3.35 -3.0 -3.4 -2.95 -3.65 -2.9 -3.75 -2.85 -3.85 -2.75 -4.15 -2.7 -4.2 -2.5 -4.15 -2.6 -4.15 -2.65 -4.1 -2.75 -3.9 -2.75 -3.8 -2.75 -3.6 -2.45 -3.2 -2.3 -3.2 -2.35 -3.0 -2.35 -2.75 -2.35 -2.7 -2.3 -2.65 M1.0 0.1 L1.25 0.05 2.3 -0.2 2.5 -0.3 2.75 -0.45 2.65 0.05 2.15 0.6 2.05 0.75 Q1.8 1.25 1.25 0.95 0.75 0.7 0.95 0.15 L1.0 0.1 M3.15 -0.7 L3.65 -1.05 3.55 -0.9 Q3.4 -0.65 3.15 -0.7 M-2.75 -0.4 L-1.55 0.1 -0.4 0.25 -0.45 0.5 -0.85 0.9 -1.45 0.75 -1.75 0.8 -1.8 0.85 Q-1.95 1.2 -2.25 1.1 L-2.35 1.05 -2.7 0.8 -2.75 0.6 -2.75 0.4 -2.8 0.4 Q-3.2 0.15 -2.95 -0.2 L-2.95 -0.25 -2.8 -0.4 -2.75 -0.4 M-1.8 -3.65 L-1.6 -3.3 -1.9 -3.4 -1.85 -3.55 -1.8 -3.65 M-2.25 -0.05 L-2.25 0.0 -2.2 0.0 -2.25 -0.05 M-0.1 0.5 L-0.05 0.5 Q0.7 0.55 0.45 1.4 0.25 1.95 -0.3 1.75 -0.9 1.5 -0.65 0.9 L-0.3 0.5 -0.1 0.5" fill="#58852c" fill-rule="evenodd" stroke="none"/>
    <path d="M1.0 0.1 L0.95 0.15 Q0.75 0.7 1.25 0.95 1.8 1.25 2.05 0.75 L2.15 0.6 2.65 0.05 2.75 -0.45 3.1 -0.7 3.15 -0.7 Q3.4 -0.65 3.55 -0.9 L3.65 -1.05 3.7 -1.1 3.7 -0.55 3.65 -0.35 3.65 -0.2 3.65 -0.15 3.6 -0.1 3.6 0.1 3.55 0.25 3.55 0.4 3.4 0.75 3.4 0.85 3.25 1.15 3.2 1.25 3.2 1.3 3.05 1.65 2.8 2.1 2.45 2.55 2.35 2.65 1.5 3.35 1.15 3.55 0.9 3.65 0.75 3.7 0.4 3.85 0.15 3.8 0.05 3.8 0.0 3.8 -0.2 3.75 -0.45 3.7 -0.55 3.65 -0.6 3.65 -0.65 3.6 -0.8 3.55 -1.25 3.3 -1.35 3.3 -2.0 2.75 -2.45 2.25 -2.8 1.8 -3.2 1.0 -3.25 0.9 -3.25 0.8 -3.3 0.7 -3.3 0.65 -3.35 0.55 -3.45 -0.15 -3.45 -0.3 -3.45 -0.4 -3.45 -0.6 -3.45 -1.0 -3.45 -1.05 -2.75 -0.4 -2.8 -0.4 -2.95 -0.25 -2.95 -0.2 Q-3.2 0.15 -2.8 0.4 L-2.75 0.4 -2.75 0.6 -2.7 0.8 -2.35 1.05 -2.25 1.1 Q-1.95 1.2 -1.8 0.85 L-1.75 0.8 -1.45 0.75 -0.85 0.9 -0.45 0.5 -0.4 0.25 1.0 0.1 M-2.25 -0.05 L-2.2 0.0 -2.25 0.0 -2.25 -0.05 M-0.05 0.5 L-0.1 0.45 -0.1 0.5 -0.3 0.5 -0.65 0.9 Q-0.9 1.5 -0.3 1.75 0.25 1.95 0.45 1.4 0.7 0.55 -0.05 0.5" fill="#2b5500" fill-rule="evenodd" stroke="none"/>
    <path d="M-0.1 0.5 L-0.1 0.45 -0.05 0.5 -0.1 0.5" fill="#91b70f" fill-rule="evenodd" stroke="none"/>
    <path d="M4.1 -1.6 L4.25 -1.9 4.3 -1.85 4.35 -1.8 4.25 -1.8 4.2 -1.75 4.1 -1.6 M6.4 2.25 L6.55 4.25 6.6 4.65 6.6 4.95 Q5.65 4.65 4.95 3.9 L4.75 3.55 4.55 3.2 4.5 3.5 4.5 3.15 4.2 1.95 4.5 0.8 4.5 0.75 4.7 0.6 4.8 0.55 Q5.35 0.6 5.75 1.05 L6.4 2.25 M-3.8 7.35 L-3.85 7.35 -3.8 7.35 M-4.85 3.6 L-4.85 3.5 -4.85 3.6 M-7.55 3.15 L-7.35 2.1 -7.15 1.6 -7.05 1.35 -7.05 1.3 -6.4 0.05 -6.05 -0.35 -4.95 -0.7 -4.35 0.15 Q-4.2 0.45 -4.3 0.8 L-4.8 2.05 -4.95 2.25 -5.2 2.4 Q-6.15 3.15 -7.35 3.15 L-7.55 3.15 M5.4 2.2 L5.35 2.05 Q5.3 1.55 4.85 1.45 4.4 1.45 4.5 1.95 L4.65 2.6 Q4.8 3.1 5.25 3.2 5.65 2.8 5.4 2.2 M0.55 4.75 Q0.4 4.8 0.4 4.95 0.5 5.7 1.0 6.25 1.15 6.4 1.35 6.4 1.95 6.45 1.65 5.95 L1.4 5.5 0.65 4.75 0.55 4.75 M0.3 4.85 L0.5 4.6 2.65 4.65 2.8 4.75 Q3.25 5.6 3.2 6.6 L3.2 6.75 Q2.9 7.45 2.9 8.25 L1.7 7.6 Q0.6 7.15 0.0 6.15 L-0.25 5.55 -0.2 5.5 0.3 4.85 M1.5 7.15 L1.45 6.9 1.45 6.8 1.25 6.95 1.1 6.8 1.5 7.15 M-3.35 1.45 L-3.35 1.5 -3.35 1.45 M-3.3 3.35 L-2.85 3.2 -2.35 3.25 -2.1 3.55 Q-1.75 4.4 -2.1 5.35 L-2.1 5.4 Q-2.75 6.15 -3.75 6.45 L-3.95 6.55 -4.0 6.4 -4.05 5.15 -3.8 3.65 -3.3 3.35 M-5.6 1.0 Q-5.4 0.4 -6.0 0.4 -6.6 0.85 -6.7 1.6 L-6.55 2.0 -6.4 2.0 -5.85 1.4 -5.6 1.0" fill="#9900cc" fill-rule="evenodd" stroke="none"/>
    <path d="M-2.45 -2.7 L-2.5 -2.45 -2.65 -2.5 Q-2.8 -2.5 -2.85 -2.6 -3.35 -2.7 -3.45 -3.05 L-3.5 -3.15 -3.45 -3.2 -3.3 -3.3 -3.25 -3.35 -3.15 -3.35 -3.15 -3.4 -3.0 -3.4 -3.05 -3.35 -3.1 -3.2 -2.85 -2.9 -2.45 -2.7 M-1.2 -2.9 L-1.2 -2.95 -1.15 -3.0 -0.75 -3.55 -0.35 -4.2 -0.3 -4.2 -0.1 -4.25 0.25 -4.25 Q0.4 -4.05 0.7 -3.9 L0.7 -3.85 0.8 -3.75 0.75 -3.3 Q0.2 -2.35 -0.85 -2.55 L-1.15 -2.8 -1.2 -2.9 M2.6 -2.8 L2.8 -3.0 2.85 -3.05 3.15 -3.4 3.2 -3.5 3.25 -3.6 3.3 -3.65 Q3.95 -3.6 3.85 -2.9 L3.45 -2.2 Q3.0 -1.85 2.7 -2.0 L2.6 -2.3 Q2.45 -2.6 2.6 -2.8 M3.45 -4.1 L3.25 -4.65 3.1 -4.7 3.1 -4.65 3.0 -4.9 2.9 -5.1 2.9 -5.15 3.05 -5.2 3.4 -5.2 3.45 -5.2 4.5 -4.8 4.8 -4.55 5.15 -4.05 5.2 -4.0 5.5 -3.55 5.4 -3.45 5.3 -3.3 Q4.75 -3.1 4.35 -3.3 L4.3 -3.3 3.9 -3.75 3.6 -4.0 3.5 -4.1 3.45 -4.1 M-4.6 -3.25 L-4.55 -3.4 -4.15 -3.95 -3.2 -4.55 -3.1 -4.45 -3.25 -4.15 -3.3 -4.0 -3.45 -3.6 -3.5 -3.55 -3.8 -3.2 -3.95 -2.9 -4.2 -2.9 -4.4 -3.0 -4.6 -3.25 M1.5 -1.75 L1.5 -1.7 Q1.65 -1.25 1.35 -0.95 L-1.55 -1.05 Q-2.05 -1.2 -2.15 -1.5 L-1.95 -1.8 -1.35 -1.9 -1.0 -1.75 1.25 -1.65 1.5 -1.75" fill="#cc9900" fill-rule="evenodd" stroke="none"/>
    <path d="M-2.5 -2.45 L-2.35 -2.45 -2.1 -2.45 -2.1 -2.25 -2.2 -2.05 -2.65 -0.9 -2.65 -0.85 -2.75 -0.95 -2.8 -0.95 -3.35 -1.4 -3.8 -1.9 -3.65 -2.75 -3.45 -3.05 Q-3.35 -2.7 -2.85 -2.6 -2.8 -2.5 -2.65 -2.5 L-2.5 -2.45 M-1.5 -2.65 L-1.2 -2.9 -1.15 -2.8 -0.85 -2.55 Q0.2 -2.35 0.75 -3.3 L0.8 -3.75 0.9 -3.75 1.35 -3.15 Q1.45 -2.8 1.8 -2.6 L1.75 -2.6 1.45 -2.25 Q0.75 -1.5 -0.35 -1.8 -0.85 -1.95 -1.25 -2.25 L-1.5 -2.65 M3.25 -3.6 L3.35 -3.75 3.9 -3.25 3.95 -3.15 Q4.4 -2.75 4.45 -2.15 L4.35 -2.25 4.35 -2.2 4.2 -2.2 4.05 -2.05 3.75 -1.75 3.45 -1.4 3.2 -1.1 3.05 -1.2 2.8 -1.55 2.7 -2.0 Q3.0 -1.85 3.45 -2.2 L3.85 -2.9 Q3.95 -3.6 3.3 -3.65 L3.25 -3.6 M2.9 -5.1 L2.9 -5.15 2.9 -5.1 M5.5 -3.55 L5.85 -2.85 Q6.3 -1.75 5.8 -0.75 L5.15 -1.5 4.9 -1.8 4.75 -1.9 4.7 -2.25 4.35 -3.3 Q4.75 -3.1 5.3 -3.3 L5.4 -3.45 5.5 -3.55 M1.85 -0.3 L1.8 -0.3 -1.95 -0.55 -2.15 -0.9 -2.2 -1.35 -1.95 -1.8 -2.15 -1.5 Q-2.05 -1.2 -1.55 -1.05 L1.35 -0.95 Q1.65 -1.25 1.5 -1.7 L1.5 -1.75 1.8 -1.95 1.85 -2.0 Q2.6 -2.0 2.45 -1.3 2.35 -0.8 1.95 -0.45 L1.85 -0.3 M-4.15 -2.1 L-4.15 -2.05 -4.2 -2.05 -4.3 -1.9 -4.55 -1.8 -4.6 -1.9 Q-4.8 -2.55 -4.6 -3.25 L-4.4 -3.0 -4.2 -2.9 -3.95 -2.9 -4.15 -2.1 M-3.2 -4.55 L-3.05 -4.6 -3.1 -4.45 -3.2 -4.55" fill="#996600" fill-rule="evenodd" stroke="none"/>
    <path d="M-2.1 -2.45 L-1.5 -2.65 -1.25 -2.25 Q-0.85 -1.95 -0.35 -1.8 0.75 -1.5 1.45 -2.25 L1.75 -2.6 1.8 -2.6 1.95 -2.55 2.15 -2.55 2.6 -2.8 Q2.45 -2.6 2.6 -2.3 L2.7 -2.0 2.8 -1.55 3.05 -1.2 3.2 -1.1 Q2.7 -0.6 2.05 -0.4 L1.85 -0.3 1.95 -0.45 Q2.35 -0.8 2.45 -1.3 2.6 -2.0 1.85 -2.0 L1.8 -1.95 1.5 -1.75 1.25 -1.65 -1.0 -1.75 -1.35 -1.9 -1.95 -1.8 -2.2 -1.35 -2.15 -0.9 -1.95 -0.55 -2.3 -0.7 -2.65 -0.85 -2.65 -0.9 -2.2 -2.05 -2.1 -2.25 -2.1 -2.45 M3.35 -3.75 L3.45 -4.1 3.5 -4.1 3.6 -4.0 3.9 -3.75 4.3 -3.3 4.35 -3.3 4.7 -2.25 4.75 -1.9 4.35 -2.25 4.45 -2.15 Q4.4 -2.75 3.95 -3.15 L3.9 -3.25 3.35 -3.75 M-3.8 -1.9 L-3.95 -2.05 -4.15 -2.1 -3.95 -2.9 -3.8 -3.2 -3.5 -3.55 -3.55 -3.4 -3.55 -3.3 -3.5 -3.3 -3.5 -3.15 -3.45 -3.05 -3.65 -2.75 -3.8 -1.9" fill="#663300" fill-rule="evenodd" stroke="none"/>
    <path d="M1.7 -8.05 Q1.65 -7.55 2.25 -7.5 L2.45 -7.65 2.45 -8.0 1.7 -8.05 M0.05 -7.7 L0.2 -7.6 Q0.7 -7.45 1.0 -7.8 L1.05 -8.0 0.95 -8.15 2.5 -8.0 2.75 -7.85 Q3.6 -6.7 3.95 -5.3 L3.4 -5.4 3.35 -5.4 3.1 -5.45 3.15 -5.55 Q3.3 -6.05 3.1 -6.55 L2.5 -7.15 Q2.1 -7.15 2.15 -6.75 L2.35 -6.25 2.1 -6.85 2.0 -6.95 1.9 -7.05 1.8 -7.15 0.95 -7.3 0.8 -7.4 0.3 -7.5 0.05 -7.7" fill="#a45b5b" fill-rule="evenodd" stroke="none"/>
    <path d="M1.7 -8.05 L2.45 -8.0 2.45 -7.65 2.25 -7.5 Q1.65 -7.55 1.7 -8.05 M0.95 -8.15 L1.05 -8.0 1.0 -7.8 Q0.7 -7.45 0.2 -7.6 L0.05 -7.7 0.0 -7.9 0.05 -7.9 0.15 -8.1 0.5 -8.25 0.55 -8.25 0.65 -8.2 0.95 -8.15 M2.35 -6.25 L2.15 -6.75 Q2.1 -7.15 2.5 -7.15 L3.1 -6.55 Q3.3 -6.05 3.15 -5.55 L3.1 -5.45 2.75 -5.5 2.35 -6.25" fill="#b79999" fill-rule="evenodd" stroke="none"/>
  </g>
</svg>
