<?xml version="1.0" encoding="UTF-8" standalone="no"?>
<svg xmlns:xlink="http://www.w3.org/1999/xlink" height="13.6px" width="22.3px" xmlns="http://www.w3.org/2000/svg">
  <g transform="matrix(1.0, 0.0, 0.0, 1.0, 12.0, 9.35)">
    <path d="M1.3 -7.75 L2.85 -8.0 Q3.75 -8.0 3.75 -7.2 L3.6 -6.45 3.35 -5.75 3.35 -5.4 3.4 -5.05 3.45 -4.9 4.6 -4.05 4.65 -4.0 5.7 -3.4 5.9 -3.2 6.45 -2.6 6.6 -2.35 7.0 -2.5 Q7.85 -2.55 8.6 -2.05 L9.05 -1.75 Q10.2 -1.2 10.3 0.05 L10.3 0.25 9.15 2.95 9.05 3.1 8.35 3.5 7.25 3.55 6.0 3.4 Q5.3 3.35 4.8 2.9 L4.55 2.55 4.4 2.35 Q4.1 1.95 4.1 1.45 L3.4 1.6 3.2 1.85 Q2.3 3.1 1.05 3.85 L0.7 4.0 -0.35 4.2 -2.25 3.85 -3.5 2.8 -4.3 1.8 -4.45 1.55 -6.15 1.3 -6.4 1.75 -6.65 2.0 Q-7.15 2.35 -7.65 2.8 L-8.7 3.15 Q-10.1 3.7 -11.2 2.85 L-11.5 2.55 -11.8 1.95 -11.95 0.25 -11.75 -0.65 -11.3 -1.65 -10.5 -2.85 -10.45 -2.85 -10.25 -2.9 -10.15 -2.95 -8.5 -2.75 -7.3 -3.8 -6.45 -4.25 -5.15 -4.95 -5.25 -5.0 -5.25 -5.05 -5.75 -5.5 -5.95 -5.7 Q-6.3 -6.05 -5.95 -6.4 L-5.65 -6.6 -4.25 -6.95 -4.3 -7.0 -4.45 -7.75 -4.5 -8.0 -4.5 -8.5 Q-4.3 -8.85 -3.9 -8.8 L-3.6 -8.8 Q-2.65 -8.85 -1.9 -8.2 L-1.65 -8.0 -1.6 -7.95 -1.6 -8.0 Q-0.75 -9.0 0.5 -9.35 1.2 -9.2 1.25 -8.45 L1.3 -7.75 M3.5 -6.9 L3.45 -7.3 2.0 -7.6 1.3 -7.35 0.9 -7.3 0.9 -7.6 0.95 -7.95 0.9 -8.3 0.85 -8.55 Q0.0 -9.05 -0.65 -8.4 L-1.25 -7.8 -1.35 -7.75 -1.75 -7.65 Q-2.05 -7.7 -2.35 -7.95 L-3.75 -8.15 -4.15 -7.7 -4.0 -7.2 -3.8 -6.9 -3.8 -6.85 -4.2 -6.7 -4.7 -6.5 -5.35 -6.3 Q-5.65 -5.8 -5.0 -5.5 L-4.8 -5.35 -4.7 -5.3 -4.55 -5.25 -4.5 -5.2 -4.5 -5.15 -4.1 -5.4 -3.4 -5.6 -3.0 -5.7 -2.95 -5.7 -2.45 -5.8 -1.95 -5.75 -2.65 -5.6 -4.1 -4.9 -4.4 -4.75 -4.4 -4.8 -4.5 -4.7 Q-5.1 -4.35 -5.8 -4.1 -7.05 -3.65 -8.0 -2.6 L-8.6 -1.85 -9.4 -0.6 -9.45 -0.5 -9.75 0.2 -9.7 0.35 -9.6 0.6 -9.55 0.65 -9.5 0.75 -9.25 0.95 -9.15 1.0 -8.45 1.1 -7.75 1.0 -6.3 0.95 -4.5 1.3 -4.15 1.4 -4.05 1.5 -3.95 1.55 -3.5 2.2 Q-2.9 3.4 -1.5 3.85 0.2 4.25 1.45 2.95 L2.55 1.65 2.7 1.4 3.55 1.25 4.1 1.15 6.35 1.3 7.2 1.5 7.3 1.5 7.6 0.85 7.45 0.45 7.2 0.05 7.1 -0.25 7.05 -0.4 6.7 -1.2 6.3 -2.0 6.2 -2.15 5.8 -2.7 4.2 -4.0 3.9 -4.15 3.6 -4.3 3.5 -4.3 3.15 -4.5 3.0 -4.55 2.95 -5.95 Q3.5 -6.15 3.5 -6.65 L3.5 -6.9 M9.65 -0.55 Q9.3 -1.45 8.35 -1.8 L8.15 -1.9 7.35 -2.05 6.9 -1.9 7.2 -1.45 7.7 -0.5 7.75 -0.2 7.8 0.05 8.1 0.9 7.95 1.6 6.9 1.55 6.55 1.45 6.35 1.45 4.6 1.35 5.25 2.45 5.3 2.5 5.4 2.65 5.45 2.75 8.0 2.95 Q8.65 2.95 8.95 2.35 L9.45 1.15 9.75 -0.25 9.7 -0.45 9.65 -0.55 M-11.6 -0.2 L-11.65 0.25 -11.7 0.95 -11.6 1.35 -11.45 2.2 -11.45 2.45 -11.25 2.45 -10.1 2.7 Q-8.75 2.95 -7.7 2.25 L-6.75 1.3 -7.45 1.35 -8.7 1.35 -9.55 1.2 -9.75 1.1 -9.8 1.1 -10.05 0.85 -10.2 0.1 -9.75 -0.85 -8.9 -2.4 -8.65 -2.6 -10.45 -2.3 -11.2 -1.4 -11.6 -0.2" fill="#000000" fill-rule="evenodd" stroke="none"/>
    <path d="M-3.4 -5.6 L-3.5 -5.8 -3.35 -6.35 -3.15 -6.5 -2.7 -6.5 -1.45 -6.3 Q-1.2 -6.9 -0.55 -7.15 L0.2 -6.45 Q0.45 -6.65 0.8 -6.7 1.8 -6.35 1.15 -5.55 L1.05 -5.45 2.25 -5.0 2.65 -4.75 2.7 -4.75 2.75 -4.7 3.05 -4.45 3.15 -4.4 3.5 -4.2 3.55 -4.15 3.9 -4.15 4.2 -4.0 5.8 -2.7 6.2 -2.15 6.3 -2.0 6.7 -1.2 7.05 -0.4 7.1 -0.25 7.2 0.05 6.95 -0.1 6.8 -0.15 Q6.85 -0.55 6.5 -0.9 L6.45 -1.05 6.2 -1.4 5.65 -1.7 5.55 -1.7 5.4 -1.7 5.35 -1.65 5.25 -1.65 5.1 -1.4 Q4.95 -1.2 5.1 -0.95 L5.15 -0.9 5.15 -0.8 5.05 -0.8 4.7 -0.9 4.7 -2.4 4.6 -2.7 4.35 -3.15 3.85 -3.5 3.7 -3.5 3.55 -3.55 3.2 -3.25 3.15 -2.9 3.4 -2.5 3.3 -1.6 3.2 -1.3 2.95 -0.8 2.35 -0.75 2.2 -0.75 2.2 -0.7 2.35 -1.65 Q2.55 -3.0 2.05 -4.2 L1.9 -4.5 1.6 -5.05 1.35 -5.25 0.95 -5.45 1.05 -5.4 0.55 -4.9 0.05 -4.85 -0.3 -4.45 -0.3 -2.95 -0.35 -1.55 -0.45 0.5 -1.05 0.5 -1.05 -1.8 -1.0 -2.55 Q-0.85 -3.7 -1.2 -4.75 -1.4 -5.6 -2.35 -5.55 L-3.05 -5.05 -3.35 -4.65 -3.6 -4.2 Q-4.2 -2.8 -4.0 -1.25 L-3.7 0.2 -3.85 -0.3 -4.6 -0.8 -4.65 -0.85 -4.7 -0.95 -4.9 -1.4 -4.8 -2.75 -4.6 -3.15 Q-4.55 -3.7 -4.9 -3.85 L-5.25 -3.9 -5.35 -3.85 -5.4 -3.8 -5.8 -3.45 -6.2 -2.7 Q-6.45 -1.95 -6.25 -1.2 L-6.7 -1.0 -6.9 -0.85 Q-7.1 -1.4 -6.8 -1.95 -6.5 -2.45 -6.95 -2.65 L-7.35 -2.55 -7.6 -2.5 -7.85 -2.35 -7.9 -2.25 -8.05 -1.85 Q-8.3 -1.2 -8.05 -0.45 L-8.15 -0.45 -8.3 -0.4 Q-8.45 -0.7 -8.9 -0.7 L-9.0 -0.6 -9.05 -0.6 -9.15 -0.45 -9.25 -0.15 -9.25 -0.05 -9.15 0.25 -9.2 0.1 -9.2 0.0 -9.05 -0.2 -9.0 -0.25 -8.6 -0.25 -8.35 0.05 -8.3 0.25 Q-8.5 0.75 -8.9 0.5 L-8.95 0.45 -9.05 0.35 -9.1 0.35 -9.25 0.1 -9.6 0.55 -9.6 0.6 -9.7 0.35 -9.75 0.2 -9.45 -0.5 -9.4 -0.6 -8.6 -1.85 -8.0 -2.6 Q-7.05 -3.65 -5.8 -4.1 -5.1 -4.35 -4.5 -4.7 L-4.4 -4.75 -4.1 -4.9 -2.65 -5.6 -1.95 -5.75 -2.45 -5.8 -2.95 -5.7 -3.0 -5.7 -3.4 -5.6 M-4.8 -5.35 L-4.8 -5.4 -4.7 -5.3 -4.8 -5.35 M1.05 2.2 L0.7 2.6 Q0.0 2.95 -0.3 2.35 L-0.5 1.55 -0.5 1.4 -0.5 1.35 -0.1 0.65 0.05 0.45 Q1.5 0.5 1.1 1.9 L1.05 2.2 M2.95 -0.7 L3.15 -0.95 Q4.3 -0.9 4.3 0.05 L4.25 0.15 4.05 0.4 4.0 0.45 3.9 0.5 3.75 0.55 3.55 0.6 3.2 0.5 3.05 0.4 2.95 0.35 Q2.7 0.15 2.8 -0.3 L2.85 -0.35 2.95 -0.7 M7.75 -0.2 L8.9 -0.25 Q9.3 -0.35 9.65 -0.55 L9.7 -0.45 9.75 -0.25 9.45 1.15 8.95 2.35 Q8.65 2.95 8.0 2.95 L5.45 2.75 5.4 2.65 5.3 2.5 5.25 2.45 4.6 1.35 6.35 1.45 6.55 1.45 6.9 1.55 7.95 1.6 8.1 0.9 7.8 0.05 7.75 -0.2 M5.0 -0.05 L5.5 -0.45 5.9 -0.4 Q6.45 -0.25 6.45 0.35 L6.25 0.35 5.95 0.55 5.5 0.6 5.4 0.6 5.15 0.4 5.1 0.35 5.0 0.05 5.0 -0.05 M-11.6 -0.2 L-10.55 -0.4 -10.3 -0.55 -9.75 -0.8 -9.75 -0.85 -10.2 0.1 -10.05 0.85 -9.8 1.1 -9.75 1.1 -9.55 1.2 -8.7 1.35 -7.45 1.35 -6.75 1.3 -7.7 2.25 Q-8.75 2.95 -10.1 2.7 L-11.25 2.45 -11.45 2.45 -11.45 2.2 -11.6 1.35 -11.7 0.95 -11.65 0.25 -11.6 -0.2 M-7.65 0.15 L-7.4 -0.5 -7.15 -0.65 -7.1 -0.6 -6.5 -0.1 -6.6 0.25 -6.65 0.3 -6.7 0.35 -6.9 0.4 -7.1 0.4 -7.65 0.2 -7.65 0.15 M-5.65 0.05 Q-5.6 -0.4 -5.15 -0.65 L-4.7 -0.6 -4.55 -0.35 -4.55 -0.3 -4.55 0.05 Q-4.75 0.65 -5.3 0.3 L-5.65 0.05 M-0.75 1.8 L-1.0 2.4 -1.05 2.4 -1.3 2.5 Q-1.9 3.05 -2.5 2.5 L-3.0 1.95 -3.0 1.9 Q-3.1 1.2 -2.45 0.9 -1.55 0.9 -0.95 1.65 L-0.75 1.8" fill="#990000" fill-rule="evenodd" stroke="none"/>
    <path d="M2.25 -5.0 L1.05 -5.45 1.15 -5.55 Q1.8 -6.35 0.8 -6.7 0.45 -6.65 0.2 -6.45 L-0.55 -7.15 Q-1.2 -6.9 -1.45 -6.3 L-2.7 -6.5 -3.15 -6.5 -3.35 -6.35 -3.5 -5.8 -3.4 -5.6 -4.1 -5.4 -4.5 -5.15 -4.5 -5.2 -4.55 -5.25 -4.7 -5.3 -4.8 -5.4 -4.8 -5.35 -5.0 -5.5 Q-5.65 -5.8 -5.35 -6.3 L-4.7 -6.5 -4.2 -6.7 -3.8 -6.85 -3.8 -6.9 -4.0 -7.2 -4.15 -7.7 -3.75 -8.15 -2.35 -7.95 Q-2.05 -7.7 -1.75 -7.65 L-1.35 -7.75 -1.25 -7.8 -0.65 -8.4 Q0.0 -9.05 0.85 -8.55 L0.9 -8.3 0.95 -7.95 0.9 -7.6 0.9 -7.3 1.3 -7.35 2.0 -7.6 3.45 -7.3 3.5 -6.9 2.85 -6.35 2.7 -6.15 Q2.1 -5.7 2.25 -5.0 M-8.3 0.25 L-8.35 0.05 -8.6 -0.25 -9.0 -0.25 -9.05 -0.2 -9.2 0.0 -9.2 0.1 -9.15 0.25 -9.25 -0.05 -9.25 -0.15 -9.15 -0.45 -9.05 -0.6 -9.0 -0.6 -8.9 -0.7 Q-8.45 -0.7 -8.3 -0.4 L-8.25 0.0 -8.3 0.25 M-8.05 -0.45 Q-8.3 -1.2 -8.05 -1.85 L-7.9 -2.25 -7.85 -2.35 -7.6 -2.5 -7.35 -2.55 -6.95 -2.65 Q-6.5 -2.45 -6.8 -1.95 -7.1 -1.4 -6.9 -0.85 L-6.85 -0.7 Q-6.3 -0.35 -6.6 0.25 L-6.5 -0.1 -7.1 -0.6 -7.15 -0.65 -7.4 -0.5 -7.65 0.15 -8.0 -0.35 -8.05 -0.45 M-6.25 -1.2 Q-6.45 -1.95 -6.2 -2.7 L-5.8 -3.45 -5.4 -3.8 -5.35 -3.85 -5.25 -3.9 -4.9 -3.85 Q-4.55 -3.7 -4.6 -3.15 L-4.8 -2.75 -4.9 -1.4 -4.55 -0.35 -4.7 -0.6 -5.15 -0.65 Q-5.6 -0.4 -5.65 0.05 L-6.15 -0.75 -6.15 -0.8 -6.25 -1.2 M-3.7 0.2 L-4.0 -1.25 Q-4.2 -2.8 -3.6 -4.2 L-3.35 -4.65 -3.05 -5.05 -2.35 -5.55 Q-1.4 -5.6 -1.2 -4.75 -0.85 -3.7 -1.0 -2.55 L-1.05 -1.8 -1.05 0.5 -1.0 1.15 -0.85 1.5 -0.85 1.55 -0.75 1.8 -0.95 1.65 Q-1.55 0.9 -2.45 0.9 -3.1 1.2 -3.0 1.9 L-3.0 1.95 -3.15 1.6 -3.35 1.2 -3.4 1.0 -3.4 0.9 -3.7 0.2 M-0.45 0.5 L-0.35 -1.55 -0.3 -2.95 -0.3 -4.45 0.05 -4.85 0.55 -4.9 1.05 -5.4 0.95 -5.45 1.35 -5.25 1.6 -5.05 1.9 -4.5 2.05 -4.2 Q2.55 -3.0 2.35 -1.65 L2.2 -0.7 2.15 -0.55 2.15 -0.4 1.85 0.65 1.6 1.2 1.05 2.2 1.1 1.9 Q1.5 0.5 0.05 0.45 L-0.1 0.65 -0.5 1.35 -0.45 0.5 M2.95 -0.8 L3.2 -1.3 3.3 -1.6 3.4 -2.5 3.15 -2.9 3.2 -3.25 3.55 -3.55 3.7 -3.5 3.85 -3.5 4.35 -3.15 4.6 -2.7 4.7 -2.4 4.7 -0.9 4.3 0.05 Q4.3 -0.9 3.15 -0.95 L2.95 -0.7 2.95 -0.8 M5.15 -0.8 L5.15 -0.9 5.1 -0.95 Q4.95 -1.2 5.1 -1.4 L5.25 -1.65 5.35 -1.65 5.4 -1.7 5.55 -1.7 5.65 -1.7 6.2 -1.4 6.45 -1.05 6.5 -0.9 Q6.85 -0.55 6.8 -0.15 L6.75 0.05 6.7 0.15 6.6 0.3 6.45 0.35 Q6.45 -0.25 5.9 -0.4 L5.5 -0.45 5.0 -0.05 5.15 -0.8 M3.5 -4.2 L3.15 -4.4 3.05 -4.45 3.15 -4.5 3.5 -4.3 3.5 -4.2 M7.75 -0.2 L7.7 -0.5 7.2 -1.45 6.9 -1.9 7.35 -2.05 8.15 -1.9 8.35 -1.8 Q9.3 -1.45 9.65 -0.55 9.3 -0.35 8.9 -0.25 L7.75 -0.2 M-9.75 -0.85 L-9.75 -0.8 -10.3 -0.55 -10.55 -0.4 -11.6 -0.2 -11.2 -1.4 -10.45 -2.3 -8.65 -2.6 -8.9 -2.4 -9.75 -0.85" fill="#ff0000" fill-rule="evenodd" stroke="none"/>
    <path d="M2.25 -5.0 Q2.1 -5.7 2.7 -6.15 L2.85 -6.35 3.5 -6.9 3.5 -6.65 Q3.5 -6.15 2.95 -5.95 L3.0 -4.55 3.15 -4.5 3.05 -4.45 2.75 -4.7 2.7 -4.75 2.65 -4.75 2.25 -5.0 M-4.4 -4.75 L-4.5 -4.7 -4.4 -4.8 -4.4 -4.75 M-9.6 0.6 L-9.6 0.55 -9.25 0.1 -9.1 0.35 -9.05 0.35 -8.95 0.45 -8.9 0.5 Q-8.5 0.75 -8.3 0.25 L-8.25 0.0 -8.3 -0.4 -8.15 -0.45 -8.05 -0.45 -8.0 -0.35 -7.65 0.15 -7.65 0.2 -7.1 0.4 -6.9 0.4 -6.7 0.35 -6.65 0.3 -6.6 0.25 Q-6.3 -0.35 -6.85 -0.7 L-6.9 -0.85 -6.7 -1.0 -6.25 -1.2 -6.15 -0.8 -6.15 -0.75 -5.65 0.05 -5.3 0.3 Q-4.75 0.65 -4.55 0.05 L-4.55 -0.3 -4.55 -0.35 -4.9 -1.4 -4.7 -0.95 -4.65 -0.85 -4.6 -0.8 -3.85 -0.3 -3.7 0.2 -3.4 0.9 -3.4 1.0 -3.35 1.2 -3.15 1.6 -3.0 1.95 -2.5 2.5 Q-1.9 3.05 -1.3 2.5 L-1.05 2.4 -1.0 2.4 -0.75 1.8 -0.85 1.55 -0.85 1.5 -1.0 1.15 -1.05 0.5 -0.45 0.5 -0.5 1.35 -0.5 1.4 -0.5 1.55 -0.3 2.35 Q0.0 2.95 0.7 2.6 L1.05 2.2 1.6 1.2 1.85 0.65 2.15 -0.4 2.15 -0.55 2.2 -0.7 2.2 -0.75 2.35 -0.75 2.95 -0.8 2.95 -0.7 2.85 -0.35 2.8 -0.3 Q2.7 0.15 2.95 0.35 L3.05 0.4 3.2 0.5 3.55 0.6 3.75 0.55 3.9 0.5 4.0 0.45 4.05 0.4 4.25 0.15 4.3 0.05 4.7 -0.9 5.05 -0.8 5.15 -0.8 5.0 -0.05 5.0 0.05 5.1 0.35 5.15 0.4 5.4 0.6 5.5 0.6 5.95 0.55 6.25 0.35 6.45 0.35 6.6 0.3 6.7 0.15 6.75 0.05 6.8 -0.15 6.95 -0.1 7.2 0.05 7.45 0.45 7.6 0.85 7.3 1.5 7.2 1.5 6.35 1.3 4.1 1.15 3.55 1.25 2.7 1.4 2.55 1.65 1.45 2.95 Q0.2 4.25 -1.5 3.85 -2.9 3.4 -3.5 2.2 L-3.95 1.55 -4.05 1.5 -4.15 1.4 -4.5 1.3 -6.3 0.95 -7.75 1.0 -8.45 1.1 -9.15 1.0 -9.25 0.95 -9.5 0.75 -9.55 0.65 -9.6 0.6 M3.9 -4.15 L3.55 -4.15 3.5 -4.2 3.5 -4.3 3.6 -4.3 3.9 -4.15" fill="#660000" fill-rule="evenodd" stroke="none"/>
  </g>
</svg>
