<?xml version="1.0" encoding="UTF-8" standalone="no"?>
<svg xmlns:xlink="http://www.w3.org/1999/xlink" height="46.0px" width="46.0px" xmlns="http://www.w3.org/2000/svg">
  <g transform="matrix(1.0, 0.0, 0.0, 1.0, 22.45, 23.15)">
    <path d="M12.3 -19.35 L10.8 -17.05 10.45 -16.35 7.9 -17.7 7.9 -17.8 8.45 -19.65 8.95 -21.05 Q10.65 -20.4 12.3 -19.35 M12.9 -14.45 L13.75 -15.45 15.05 -17.3 16.4 -16.05 17.15 -15.25 14.5 -12.9 14.8 -12.55 13.75 -13.65 12.9 -14.45 M5.4 -22.1 L4.75 -20.4 Q4.45 -19.55 4.45 -18.75 L1.6 -19.05 Q2.05 -20.75 2.1 -22.55 L1.75 -22.55 5.4 -22.1 M-1.4 -19.0 L-4.5 -18.4 -5.1 -20.9 -5.3 -21.85 -1.65 -22.5 Q-1.75 -20.75 -1.4 -19.0 M-7.2 -17.45 L-8.85 -16.55 -10.5 -19.7 Q-9.45 -20.35 -8.35 -20.8 L-7.75 -18.85 -7.45 -18.05 -7.2 -17.45 M-11.35 -14.75 L-12.55 -13.65 -12.7 -13.5 Q-13.25 -14.4 -14.1 -15.1 L-14.35 -15.4 -14.9 -16.35 -13.1 -17.95 -11.35 -14.75 M-13.7 -12.35 L-15.5 -9.9 -17.25 -11.3 -18.4 -12.1 -16.95 -14.15 -15.95 -12.75 Q-15.35 -11.75 -14.5 -11.4 L-13.7 -12.35 M-16.85 -7.0 L-17.3 -5.6 -18.25 -6.15 -20.75 -7.0 -19.9 -9.3 -17.05 -6.45 -16.85 -7.0 M-17.85 -2.75 L-17.95 -0.95 -21.35 -1.05 -21.75 -1.0 -21.45 -4.1 -20.95 -3.95 -19.7 -3.5 -18.75 -3.0 -17.85 -2.75 M-17.9 1.35 L-17.55 3.6 -21.05 5.4 -21.6 2.25 -18.1 1.9 -17.85 1.9 -17.9 1.35 M-16.65 6.55 L-15.65 8.55 -18.7 11.05 -20.1 8.3 -16.65 6.55 M-13.9 11.15 L-12.55 12.65 -10.6 14.35 -11.05 14.0 -13.5 16.9 -13.55 17.0 -15.2 15.5 -16.85 13.7 -15.0 12.1 -13.9 11.15 M-9.15 15.35 Q-7.4 16.5 -5.4 17.15 L-6.0 18.75 -6.7 20.9 -3.75 21.65 -3.75 21.55 -2.7 17.85 -0.4 18.1 -0.45 22.05 Q-6.35 21.8 -11.05 18.85 L-8.6 15.7 -9.15 15.35 M2.9 18.0 L5.05 17.6 5.65 19.75 6.3 21.4 3.1 21.95 2.95 20.25 2.9 18.0 M8.75 16.3 L10.7 15.15 10.95 15.55 Q11.45 17.15 12.45 18.7 L15.6 16.25 14.4 14.6 13.65 13.5 13.35 13.05 13.75 12.65 15.4 10.8 18.1 13.65 16.4 15.5 Q13.35 18.5 9.75 20.15 L8.75 16.3 M17.2 8.05 L18.4 5.2 21.3 6.65 21.8 6.9 Q21.05 9.05 19.9 11.05 L18.5 9.55 18.0 8.95 17.2 8.05 M19.1 1.85 L19.25 0.05 21.85 0.5 22.9 0.55 22.55 3.8 21.0 2.85 Q20.1 2.2 19.1 1.85 M19.15 -2.25 Q18.75 -6.55 16.6 -10.1 L17.25 -10.8 19.3 -12.55 21.3 -8.8 21.0 -9.5 17.55 -8.35 18.6 -5.45 21.5 -6.0 22.2 -6.15 22.8 -2.45 19.1 -2.85 19.15 -2.25" fill="#848400" fill-rule="evenodd" stroke="none"/>
    <path d="M10.45 -16.35 L10.8 -17.05 12.3 -19.35 15.05 -17.3 13.75 -15.45 12.9 -14.45 Q11.75 -15.55 10.45 -16.35 M8.95 -21.05 L8.45 -19.65 7.9 -17.8 7.9 -17.7 4.45 -18.75 Q4.45 -19.55 4.75 -20.4 L5.4 -22.1 8.95 -21.05 M14.8 -12.55 L14.5 -12.9 17.15 -15.25 17.25 -15.2 19.3 -12.55 17.25 -10.8 16.6 -10.1 14.8 -12.55 M-1.65 -22.5 L0.6 -22.6 0.7 -22.6 0.85 -22.6 0.95 -22.6 1.75 -22.55 2.1 -22.55 Q2.05 -20.75 1.6 -19.05 L0.65 -19.1 -1.4 -19.0 Q-1.75 -20.75 -1.65 -22.5 M-4.5 -18.4 L-7.2 -17.45 -7.45 -18.05 -7.75 -18.85 -8.35 -20.8 -8.15 -20.85 -6.9 -21.35 -5.9 -21.65 -5.3 -21.85 -5.1 -20.9 -4.5 -18.4 M-8.85 -16.55 L-11.35 -14.75 -13.1 -17.95 -10.5 -19.7 -8.85 -16.55 M-12.7 -13.5 L-12.85 -13.3 -13.7 -12.35 -14.5 -11.4 Q-15.35 -11.75 -15.95 -12.75 L-16.95 -14.15 -15.2 -16.05 -14.9 -16.35 -14.35 -15.4 -14.1 -15.1 Q-13.25 -14.4 -12.7 -13.5 M-15.5 -9.9 L-15.75 -9.45 -16.85 -7.0 -17.05 -6.45 -19.9 -9.3 -19.8 -9.6 -19.75 -9.65 -18.4 -12.1 -17.25 -11.3 -15.5 -9.9 M-17.3 -5.6 L-17.85 -2.75 -18.75 -3.0 -19.7 -3.5 -20.95 -3.95 -21.45 -4.1 -20.75 -7.0 -18.25 -6.15 -17.3 -5.6 M-17.95 -0.95 L-17.95 -0.5 -17.95 -0.35 -17.9 1.35 -17.85 1.9 -18.1 1.9 -21.6 2.25 -21.75 -0.25 -21.75 -1.0 -21.35 -1.05 -17.95 -0.95 M-17.55 3.6 L-16.65 6.55 -20.1 8.3 -21.05 5.4 -17.55 3.6 M-15.65 8.55 L-13.9 11.15 -15.0 12.1 -16.85 13.7 -18.7 11.05 -15.65 8.55 M-10.6 14.35 L-9.15 15.35 -8.6 15.7 -11.05 18.85 -13.55 17.0 -13.5 16.9 -11.05 14.0 -10.6 14.35 M-5.4 17.15 L-2.7 17.85 -3.75 21.55 -3.75 21.65 -6.7 20.9 -6.0 18.75 -5.4 17.15 M-0.4 18.1 L0.65 18.1 2.9 18.0 2.95 20.25 3.1 21.95 0.6 22.05 -0.45 22.05 -0.4 18.1 M5.05 17.6 Q6.95 17.15 8.75 16.3 L9.75 20.15 6.3 21.4 5.65 19.75 5.05 17.6 M10.7 15.15 L11.2 14.8 13.35 13.05 13.65 13.5 14.4 14.6 15.6 16.25 12.45 18.7 Q11.45 17.15 10.95 15.55 L10.7 15.15 M15.4 10.8 L17.05 8.3 17.1 8.2 17.2 8.05 18.0 8.95 18.5 9.55 19.9 11.05 18.1 13.65 15.4 10.8 M18.4 5.2 L19.1 1.85 Q20.1 2.2 21.0 2.85 L22.55 3.8 21.8 6.9 21.3 6.65 18.4 5.2 M19.25 0.05 L19.15 -2.25 19.1 -2.85 22.8 -2.45 22.85 -1.9 22.9 -0.5 22.9 -0.25 22.9 0.55 21.85 0.5 19.25 0.05 M22.2 -6.15 L21.5 -6.0 18.6 -5.45 17.55 -8.35 21.0 -9.5 21.3 -8.8 22.1 -6.55 22.2 -6.15" fill="#a8a800" fill-rule="evenodd" stroke="none"/>
    <path d="M10.45 -16.35 Q11.75 -15.55 12.9 -14.45 L13.75 -13.65 14.8 -12.55 16.6 -10.1 Q18.75 -6.55 19.15 -2.25 L19.25 0.05 19.1 1.85 18.4 5.2 17.2 8.05 17.1 8.2 17.05 8.3 15.4 10.8 13.75 12.65 13.35 13.05 11.2 14.8 10.7 15.15 8.75 16.3 Q6.95 17.15 5.05 17.6 L2.9 18.0 0.65 18.1 -0.4 18.1 -2.7 17.85 -5.4 17.15 Q-7.4 16.5 -9.15 15.35 L-10.6 14.35 -12.55 12.65 -13.9 11.15 -15.65 8.55 -16.65 6.55 -17.55 3.6 -17.9 1.35 -17.95 -0.35 -17.95 -0.5 -17.95 -0.95 -17.85 -2.75 -17.3 -5.6 -16.85 -7.0 -15.75 -9.45 -15.5 -9.9 -13.7 -12.35 -12.85 -13.3 -12.7 -13.5 -12.55 -13.65 -11.35 -14.75 -8.85 -16.55 -7.2 -17.45 -4.5 -18.4 -1.4 -19.0 0.65 -19.1 1.6 -19.05 4.45 -18.75 7.9 -17.7 10.45 -16.35 M15.05 -17.3 L12.3 -19.35 Q10.65 -20.4 8.95 -21.05 L5.4 -22.1 1.75 -22.55 0.95 -22.6 0.85 -22.6 0.7 -22.6 0.6 -22.6 -1.65 -22.5 -5.3 -21.85 -5.9 -21.65 -6.9 -21.35 -8.15 -20.85 -8.35 -20.8 Q-9.45 -20.35 -10.5 -19.7 L-13.1 -17.95 -14.9 -16.35 -15.2 -16.05 -16.95 -14.15 -18.4 -12.1 -19.75 -9.65 -19.8 -9.6 -19.9 -9.3 -20.75 -7.0 -21.45 -4.1 -21.75 -1.0 -21.75 -0.25 -21.6 2.25 -21.05 5.4 -20.1 8.3 -18.7 11.05 -16.85 13.7 -15.2 15.5 -13.55 17.0 -11.05 18.85 Q-6.35 21.8 -0.45 22.05 L0.6 22.05 3.1 21.95 6.3 21.4 9.75 20.15 Q13.35 18.5 16.4 15.5 L18.1 13.65 19.9 11.05 Q21.05 9.05 21.8 6.9 L22.55 3.8 22.9 0.55 22.9 -0.25 22.9 -0.5 22.85 -1.9 22.8 -2.45 22.2 -6.15 22.1 -6.55 21.3 -8.8 19.3 -12.55 17.25 -15.2 17.15 -15.25 16.4 -16.05 15.05 -17.3 M16.85 -16.4 Q23.55 -9.7 23.55 -0.15 23.55 9.35 16.85 16.1 10.1 22.85 0.55 22.85 -8.95 22.85 -15.7 16.1 -22.45 9.35 -22.45 -0.15 -22.45 -9.7 -15.7 -16.4 -8.95 -23.15 0.55 -23.15 10.1 -23.15 16.85 -16.4 M18.7 -0.55 Q18.7 -8.1 13.4 -13.4 8.1 -18.7 0.6 -18.65 -6.9 -18.7 -12.2 -13.4 -17.5 -8.1 -17.5 -0.55 -17.5 6.9 -12.2 12.2 -6.9 17.5 0.6 17.55 8.1 17.5 13.4 12.2 18.7 6.9 18.7 -0.55" fill="#000000" fill-rule="evenodd" stroke="none"/>
  </g>
</svg>
