<?xml version="1.0" encoding="UTF-8" standalone="no"?>
<svg xmlns:xlink="http://www.w3.org/1999/xlink" height="14.05px" width="13.4px" xmlns="http://www.w3.org/2000/svg">
  <g transform="matrix(1.0, 0.0, 0.0, 1.0, 6.7, 7.0)">
    <path d="M-2.65 -5.8 L-2.7 -5.75 -2.55 -5.4 -2.5 -4.7 -2.55 -4.55 -2.6 -4.2 Q-2.75 -3.45 -3.2 -2.8 L-3.25 -2.8 -4.05 -2.2 -4.15 -2.15 -4.5 -0.8 -4.5 -0.7 -4.4 -0.15 -4.4 -0.1 -4.35 0.05 -4.25 0.35 -4.25 0.4 -4.25 0.5 -4.15 1.7 -4.2 1.8 -4.4 1.9 -4.4 2.35 -4.95 2.25 -5.15 2.05 -5.45 1.7 -5.75 2.55 -5.8 2.65 -5.8 2.7 -5.8 2.75 -5.8 2.9 -5.7 3.25 -5.05 4.0 -4.05 4.3 -3.9 4.6 Q-3.2 5.8 -1.7 5.75 L-1.65 5.75 -1.3 6.0 -1.05 6.1 -0.3 6.2 -0.25 6.2 0.1 6.15 Q1.75 6.6 3.25 5.75 L3.4 5.65 3.75 5.4 4.15 5.4 Q5.2 5.3 5.75 4.15 6.4 2.75 6.05 1.35 L6.05 1.15 Q6.45 0.5 6.1 -0.25 L6.0 -0.6 Q6.45 -1.2 6.4 -2.0 6.3 -2.7 5.75 -3.0 L5.7 -3.35 5.4 -3.7 4.35 -4.75 3.75 -5.4 3.5 -5.75 3.1 -6.2 2.85 -6.4 1.35 -6.5 0.0 -6.2 -2.0 -6.05 -2.3 -5.95 -2.65 -5.8 M3.8 -6.05 L4.25 -5.35 4.8 -4.9 4.9 -4.8 5.95 -3.7 6.0 -3.55 Q6.0 -3.1 6.4 -2.8 L6.55 -2.5 Q6.9 -1.4 6.5 -0.3 6.85 0.55 6.65 1.45 6.4 2.05 6.45 2.75 L6.5 3.4 Q6.6 4.15 6.2 4.8 5.7 5.65 4.8 5.75 4.25 5.8 3.8 6.1 2.6 6.75 1.3 6.9 L0.65 6.95 -0.15 6.95 -0.25 6.9 -1.35 6.8 -1.7 6.35 -1.75 6.15 -3.35 5.7 -3.65 5.4 -4.45 4.8 Q-4.6 4.65 -4.8 4.65 -5.4 4.6 -5.65 4.1 -6.05 3.75 -6.05 3.15 L-5.9 2.5 -5.85 2.05 -5.8 2.05 -5.7 1.4 -5.85 1.05 -5.95 0.75 -6.4 -0.1 Q-6.95 -1.05 -6.4 -2.0 L-6.4 -2.15 -5.7 -4.3 -5.65 -4.75 Q-5.65 -5.4 -5.3 -5.85 L-5.1 -6.05 -5.0 -6.1 -4.85 -6.25 -3.95 -6.45 Q-3.2 -6.6 -2.6 -6.2 L-2.6 -6.25 -0.6 -6.7 -0.5 -6.65 0.45 -6.55 0.55 -6.65 0.95 -6.9 1.3 -7.0 Q2.6 -7.15 3.5 -6.3 L3.8 -6.05 M-2.95 -4.85 L-3.0 -5.35 -2.9 -5.95 -2.95 -6.0 -3.8 -6.1 -3.9 -6.2 -4.6 -5.9 -4.95 -5.65 -5.0 -5.6 -5.05 -5.5 -5.15 -5.3 -5.3 -4.85 -5.6 -3.65 -5.65 -3.55 -5.8 -2.85 -5.95 -2.25 -6.05 -1.7 -6.1 -1.55 -6.1 -1.5 -6.15 -1.45 -6.2 -1.1 -6.25 -0.65 -6.05 -0.25 -6.05 -0.2 -5.7 0.5 -5.5 0.75 -5.4 0.9 -5.35 0.95 -5.25 1.05 -5.0 1.3 -4.9 1.5 -4.6 1.4 -4.6 1.35 -4.55 1.25 -4.5 1.2 -4.55 0.4 -4.6 0.1 -4.6 0.05 -4.6 0.0 -4.6 -0.3 -4.7 -0.55 -4.8 -0.9 -4.7 -1.45 -4.7 -1.6 -4.65 -1.7 -4.5 -2.2 -4.3 -2.5 -3.9 -2.85 -3.85 -2.9 -3.75 -2.95 -3.55 -3.1 -3.2 -3.7 -3.0 -4.3 -2.95 -4.85" fill="#000000" fill-rule="evenodd" stroke="none"/>
    <path d="M3.5 -5.75 L3.3 -5.65 3.1 -5.6 3.0 -5.6 2.9 -5.55 0.85 -5.85 0.4 -5.45 Q-0.55 -4.8 -1.7 -4.75 L-1.75 -4.85 -1.8 -4.95 -1.9 -5.25 -1.9 -5.3 Q-1.95 -5.8 -2.3 -5.95 L-2.0 -6.05 0.0 -6.2 1.35 -6.5 2.85 -6.4 3.1 -6.2 3.5 -5.75 M1.5 -0.05 L1.55 -0.05 1.6 0.0 1.5 -0.05 M1.1 -0.4 L0.95 -0.15 0.9 -0.15 1.1 -0.4 M0.8 -0.1 L0.8 0.0 0.75 0.1 0.75 0.15 0.75 0.0 0.8 -0.1 M-0.7 0.75 L-0.7 1.25 -0.7 1.35 -1.45 1.25 -2.0 1.9 -2.0 2.1 -2.05 2.1 -2.1 2.05 -2.3 1.9 -2.45 1.65 -2.5 1.25 -2.4 0.8 -2.3 0.75 -2.15 0.7 -1.8 0.5 -1.55 0.3 -1.25 0.15 Q-0.85 0.3 -0.7 0.75 M-3.05 0.5 L-3.35 0.2 -3.55 -0.25 -3.7 -1.0 -3.75 -1.1 -3.7 -1.75 -3.4 -2.25 -2.7 -2.45 -2.6 -2.45 -2.35 -2.45 Q-2.6 -1.9 -2.4 -1.35 L-2.75 -0.85 -2.8 -0.2 -3.0 0.4 -2.95 0.5 -3.05 0.5 M-4.5 -0.7 L-4.45 -0.5 -4.35 -0.45 -4.4 -0.4 -4.4 -0.15 -4.5 -0.7 M-4.4 2.35 L-4.45 2.45 Q-4.6 3.1 -5.05 3.2 L-5.3 3.25 -5.35 3.2 -5.55 3.15 -5.8 2.9 -5.8 2.75 -5.8 2.7 -5.8 2.65 -5.75 2.55 -5.45 1.7 -5.15 2.05 -4.95 2.25 -4.4 2.35 M-1.4 -2.4 L-1.4 -2.5 -1.45 -2.55 -1.3 -2.7 -1.4 -2.4 M-1.8 -1.4 L-2.05 -1.45 -1.8 -1.4" fill="#99cc99" fill-rule="evenodd" stroke="none"/>
    <path d="M3.1 -5.6 L3.1 -5.4 3.05 -5.15 3.1 -4.85 3.3 -4.55 4.05 -3.5 4.65 -2.75 Q4.5 -2.15 4.9 -1.6 5.55 -0.7 5.4 0.45 L3.9 0.8 3.85 1.05 3.8 1.1 4.1 1.05 Q4.85 1.35 4.5 2.25 L4.2 2.75 Q3.15 2.95 3.2 1.9 L3.25 1.7 2.55 1.75 Q2.3 1.45 1.9 1.4 L1.75 1.35 Q1.35 1.3 1.05 1.1 L1.1 1.05 1.15 0.4 1.25 0.3 1.5 -0.05 1.6 0.0 1.55 -0.05 2.15 -0.55 2.95 -1.1 Q3.4 -1.4 3.5 -1.95 L3.5 -2.0 Q3.55 -2.95 3.2 -3.75 L3.15 -3.85 2.55 -4.8 2.15 -5.1 1.3 -5.5 1.25 -5.5 1.1 -5.35 1.1 -5.3 Q0.9 -5.1 0.95 -4.7 L1.35 -4.05 1.85 -3.7 1.9 -3.65 1.9 -3.55 1.9 -3.15 1.9 -2.25 1.65 -2.05 Q0.9 -1.65 0.55 -0.95 L0.55 -0.85 0.5 -0.8 -0.55 -1.7 -0.8 -1.85 -1.2 -2.05 -1.2 -2.1 -1.25 -2.7 -1.25 -2.75 -1.2 -2.8 -1.25 -2.8 -1.3 -2.8 -1.3 -2.7 -1.45 -2.55 -1.5 -2.55 -1.65 -2.1 -1.7 -2.0 -1.7 -1.9 -1.8 -1.4 -1.8 -1.25 -1.75 -1.2 Q-1.6 -0.4 -0.9 0.0 L-0.05 0.0 0.35 0.2 0.35 0.3 0.3 0.5 0.25 0.65 0.15 0.75 0.15 0.8 0.2 1.35 0.2 1.5 0.4 1.7 1.05 2.3 0.6 2.15 Q0.2 2.0 0.2 1.6 L0.2 1.5 0.05 1.35 -0.15 1.05 -0.25 0.75 -0.55 0.65 -0.7 0.75 Q-0.85 0.3 -1.25 0.15 L-1.55 0.3 -1.8 0.5 -2.15 0.7 -2.3 0.75 -2.4 0.8 -2.5 1.25 -2.45 1.65 -2.95 1.6 -2.95 1.5 Q-2.9 0.9 -3.1 0.6 L-3.05 0.5 -2.95 0.5 -3.0 0.4 -2.8 -0.2 -2.75 -0.85 -2.4 -1.35 Q-2.6 -1.9 -2.35 -2.45 L-2.6 -2.45 -2.5 -2.5 Q-2.1 -2.75 -1.9 -3.3 -1.7 -3.8 -1.65 -4.3 L-1.75 -4.85 -1.7 -4.75 Q-0.55 -4.8 0.4 -5.45 L0.85 -5.85 2.9 -5.55 3.0 -5.6 3.1 -5.6 M2.0 -1.2 L1.95 -1.15 2.0 -1.2 M1.15 -0.45 L1.1 -0.4 1.15 -0.45 M0.75 0.1 L0.75 0.25 0.75 0.15 0.75 0.1 M0.7 0.45 L0.7 0.7 0.65 0.8 0.65 1.35 0.6 1.3 0.55 1.2 0.55 1.15 0.5 1.05 0.55 0.95 0.7 0.45 M1.7 2.9 L1.65 3.7 1.2 4.2 Q0.0 4.35 -0.05 3.2 -0.05 2.55 0.55 2.25 L0.65 2.25 1.35 2.4 1.65 2.8 1.7 2.9 M-0.7 1.35 Q-0.15 1.6 -0.25 2.55 L-0.6 3.1 Q-1.45 3.5 -1.9 2.8 L-2.0 2.1 -2.0 1.9 -1.45 1.25 -0.7 1.35 M-1.9 -5.25 L-2.65 -5.8 -2.3 -5.95 Q-1.95 -5.8 -1.9 -5.3 L-1.9 -5.25 M-5.35 3.2 L-5.25 3.65 -5.05 4.0 -5.7 3.25 -5.8 2.9 -5.55 3.15 -5.35 3.2 M-1.3 6.0 L-1.05 5.95 Q-0.7 6.0 -0.3 6.2 L-1.05 6.1 -1.3 6.0 M3.25 5.75 L3.3 5.65 3.4 5.65 3.25 5.75 M-1.8 -1.4 L-2.05 -1.45 -1.8 -1.4" fill="#999933" fill-rule="evenodd" stroke="none"/>
    <path d="M3.1 -5.6 L3.3 -5.65 3.5 -5.75 3.75 -5.4 4.35 -4.75 5.4 -3.7 5.7 -3.35 5.75 -3.0 Q6.3 -2.7 6.4 -2.0 6.45 -1.2 6.0 -0.6 L6.1 -0.25 Q6.45 0.5 6.05 1.15 L6.05 1.35 Q6.4 2.75 5.75 4.15 5.2 5.3 4.15 5.4 L3.75 5.4 3.4 5.65 3.3 5.65 3.25 5.75 Q1.75 6.6 0.1 6.15 L-0.25 6.2 -0.3 6.2 Q-0.7 6.0 -1.05 5.95 L-1.3 6.0 -1.65 5.75 -1.7 5.75 Q-3.2 5.8 -3.9 4.6 L-4.05 4.3 -5.05 4.0 -5.25 3.65 -5.35 3.2 -5.3 3.25 -5.05 3.2 Q-4.6 3.1 -4.45 2.45 L-4.4 2.35 -4.4 1.9 -4.2 1.8 -4.15 1.7 -4.25 0.5 -4.25 0.4 -4.25 0.35 -4.35 0.05 -4.4 -0.1 -4.4 -0.15 -4.4 -0.4 -4.35 -0.45 -4.45 -0.5 -4.5 -0.7 -4.5 -0.8 -4.15 -2.15 -4.05 -2.2 -3.25 -2.8 -3.2 -2.8 Q-2.75 -3.45 -2.6 -4.2 L-2.55 -4.55 -2.5 -4.7 -2.55 -5.4 -2.7 -5.75 -2.65 -5.8 -1.9 -5.25 -1.8 -4.95 -1.75 -4.85 -1.65 -4.3 Q-1.7 -3.8 -1.9 -3.3 -2.1 -2.75 -2.5 -2.5 L-2.6 -2.45 -2.7 -2.45 -3.4 -2.25 -3.7 -1.75 -3.75 -1.1 -3.7 -1.0 -3.55 -0.25 -3.35 0.2 -3.05 0.5 -3.1 0.6 Q-2.9 0.9 -2.95 1.5 L-2.95 1.6 -2.45 1.65 -2.3 1.9 -2.1 2.05 -2.05 2.1 -2.0 2.1 -1.9 2.8 Q-1.45 3.5 -0.6 3.1 L-0.25 2.55 Q-0.15 1.6 -0.7 1.35 L-0.7 1.25 -0.7 0.75 -0.55 0.65 -0.25 0.75 -0.15 1.05 0.05 1.35 0.2 1.5 0.2 1.6 Q0.2 2.0 0.6 2.15 L1.05 2.3 1.3 2.35 1.35 2.4 0.65 2.25 0.55 2.25 Q-0.05 2.55 -0.05 3.2 0.0 4.35 1.2 4.2 L1.65 3.7 1.7 2.9 1.75 3.1 Q1.8 4.05 2.6 4.25 2.65 4.15 2.75 4.15 2.9 3.7 2.55 3.3 L2.55 3.2 2.5 2.95 2.45 2.8 Q2.05 1.95 1.25 1.8 L0.8 1.6 0.65 1.35 0.65 0.8 0.7 0.7 0.7 0.45 0.75 0.25 0.75 0.1 0.8 0.0 0.8 -0.1 0.9 -0.15 0.95 -0.15 1.1 -0.4 1.15 -0.45 1.45 -0.75 1.9 -1.15 1.95 -1.15 2.0 -1.2 2.25 -1.35 Q2.8 -1.7 2.85 -2.25 L2.8 -2.8 2.6 -3.65 1.9 -4.55 1.6 -4.8 1.55 -4.85 Q1.25 -5.0 1.1 -5.3 L1.1 -5.35 1.25 -5.5 1.3 -5.5 2.15 -5.1 2.55 -4.8 3.15 -3.85 3.2 -3.75 Q3.55 -2.95 3.5 -2.0 L3.5 -1.95 Q3.4 -1.4 2.95 -1.1 L2.15 -0.55 1.55 -0.05 1.5 -0.05 1.25 0.3 1.15 0.4 1.1 1.05 1.05 1.1 Q1.35 1.3 1.75 1.35 L1.9 1.4 Q2.3 1.45 2.55 1.75 L3.25 1.7 3.2 1.9 Q3.15 2.95 4.2 2.75 L4.5 2.25 Q4.85 1.35 4.1 1.05 L3.8 1.1 3.85 1.05 3.9 0.8 5.4 0.45 Q5.55 -0.7 4.9 -1.6 4.5 -2.15 4.65 -2.75 L4.05 -3.5 3.3 -4.55 3.1 -4.85 3.05 -5.15 3.1 -5.4 3.1 -5.6 M0.5 -0.8 L0.55 -0.75 0.45 -0.55 0.35 -0.5 Q0.15 -0.5 -0.05 -0.65 L-0.5 -1.0 Q-1.25 -1.05 -1.55 -1.75 L-1.55 -1.9 -1.4 -2.4 -1.3 -2.7 -1.3 -2.8 -1.25 -2.8 -1.2 -2.8 -1.25 -2.75 -1.25 -2.7 -1.2 -2.1 -1.2 -2.05 -0.8 -1.85 -0.55 -1.7 0.5 -0.8" fill="#996600" fill-rule="evenodd" stroke="none"/>
    <path d="M1.1 -5.3 Q1.25 -5.0 1.55 -4.85 L1.6 -4.8 1.9 -4.55 2.6 -3.65 2.8 -2.8 2.85 -2.25 Q2.8 -1.7 2.25 -1.35 L2.0 -1.2 1.95 -1.15 1.9 -1.15 1.45 -0.75 1.15 -0.45 1.1 -0.4 0.9 -0.15 0.8 -0.1 0.75 0.0 0.75 0.15 0.75 0.25 0.7 0.45 0.55 0.95 0.5 1.05 0.55 1.15 0.55 1.2 0.6 1.3 0.65 1.35 0.8 1.6 1.25 1.8 Q2.05 1.95 2.45 2.8 L2.5 2.95 2.55 3.2 2.55 3.3 Q2.9 3.7 2.75 4.15 2.65 4.15 2.6 4.25 1.8 4.05 1.75 3.1 L1.7 2.9 1.65 2.8 1.35 2.4 1.3 2.35 1.05 2.3 0.4 1.7 0.2 1.5 0.2 1.35 0.15 0.8 0.15 0.75 0.25 0.65 0.3 0.5 0.35 0.3 0.35 0.2 -0.05 0.0 -0.9 0.0 Q-1.6 -0.4 -1.75 -1.2 L-1.8 -1.25 -1.8 -1.4 -1.7 -1.9 -1.7 -2.0 -1.65 -2.1 -1.5 -2.55 -1.45 -2.55 -1.4 -2.5 -1.4 -2.4 -1.55 -1.9 -1.55 -1.75 Q-1.25 -1.05 -0.5 -1.0 L-0.05 -0.65 Q0.15 -0.5 0.35 -0.5 L0.45 -0.55 0.55 -0.75 0.5 -0.8 0.55 -0.85 0.55 -0.95 Q0.9 -1.65 1.65 -2.05 L1.9 -2.25 1.9 -3.15 1.9 -3.55 1.9 -3.65 1.85 -3.7 1.35 -4.05 0.95 -4.7 Q0.9 -5.1 1.1 -5.3 M-5.05 -5.5 L-5.0 -5.6 -4.95 -5.65 -4.6 -5.9 -3.9 -6.2 -3.8 -6.1 -2.95 -6.0 -2.9 -5.95 -3.0 -5.35 -2.95 -4.85 -3.35 -5.35 -3.45 -5.45 -3.75 -5.7 -4.8 -5.6 -5.05 -5.5" fill="#ff0000" fill-rule="evenodd" stroke="none"/>
    <path d="M-5.05 -5.5 L-4.8 -5.6 -3.75 -5.7 -3.45 -5.45 -3.35 -5.35 -2.95 -4.85 -3.0 -4.3 -3.2 -3.7 -3.35 -3.95 Q-3.8 -4.65 -4.45 -4.8 L-4.65 -4.85 -5.15 -4.85 -5.3 -4.85 -5.15 -5.3 -5.05 -5.5 M-4.3 -2.5 L-4.5 -2.2 -5.2 -2.4 -5.4 -2.35 -5.85 -2.3 -5.95 -2.25 -5.8 -2.85 -4.7 -3.0 -4.45 -2.8 -4.3 -2.5 M-4.8 -0.9 L-4.7 -0.55 -4.6 -0.3 -4.6 0.0 -4.6 0.05 -5.0 -0.1 -5.15 -0.05 -5.25 -0.05 -5.3 0.0 -5.35 0.05 -5.45 0.15 -5.55 0.35 -5.6 0.45 -5.6 0.65 -5.5 0.75 -5.7 0.5 -6.05 -0.2 -5.85 -0.2 -5.7 -0.3 -5.3 -0.8 -5.2 -0.85 -4.8 -0.9" fill="#666666" fill-rule="evenodd" stroke="none"/>
    <path d="M-5.25 1.05 L-5.35 0.95 -5.4 0.9 -5.5 0.75 -5.6 0.65 -5.6 0.45 -5.55 0.35 -5.45 0.15 -5.35 0.05 Q-4.8 0.55 -5.15 1.1 L-5.25 1.05 M-6.2 -1.1 L-6.15 -1.45 -6.1 -1.5 -6.1 -1.55 -6.05 -1.7 -5.95 -2.25 -5.85 -2.3 -5.4 -2.35 -5.2 -2.4 -5.15 -1.95 -5.15 -1.75 Q-5.25 -1.35 -5.5 -1.05 L-6.2 -1.1 M-5.6 -3.65 L-5.3 -4.85 -5.15 -4.85 -4.65 -4.85 -4.45 -4.8 -4.45 -4.5 Q-4.45 -4.05 -4.7 -3.7 L-4.85 -3.55 Q-5.1 -3.35 -5.35 -3.55 L-5.6 -3.65" fill="#cccccc" fill-rule="evenodd" stroke="none"/>
    <path d="M-3.2 -3.7 L-3.55 -3.1 -3.75 -2.95 -3.85 -2.9 -3.9 -2.85 -4.3 -2.5 -4.45 -2.8 -4.7 -3.0 -5.8 -2.85 -5.65 -3.55 -5.6 -3.65 -5.35 -3.55 Q-5.1 -3.35 -4.85 -3.55 L-4.7 -3.7 Q-4.45 -4.05 -4.45 -4.5 L-4.45 -4.8 Q-3.8 -4.65 -3.35 -3.95 L-3.2 -3.7 M-4.5 -2.2 L-4.65 -1.7 -4.7 -1.6 -4.7 -1.45 -4.8 -0.9 -5.2 -0.85 -5.3 -0.8 -5.7 -0.3 -5.85 -0.2 -6.05 -0.2 -6.05 -0.25 -6.25 -0.65 -6.2 -1.1 -5.5 -1.05 Q-5.25 -1.35 -5.15 -1.75 L-5.15 -1.95 -5.2 -2.4 -4.5 -2.2 M-4.6 0.05 L-4.6 0.1 -4.55 0.4 -4.5 1.2 -4.55 1.25 -4.6 1.35 -4.6 1.4 -4.9 1.5 -5.0 1.3 -5.25 1.05 -5.15 1.1 Q-4.8 0.55 -5.35 0.05 L-5.3 0.0 -5.25 -0.05 -5.15 -0.05 -5.0 -0.1 -4.6 0.05" fill="#999999" fill-rule="evenodd" stroke="none"/>
  </g>
</svg>
