<?xml version="1.0" encoding="UTF-8" standalone="no"?>
<svg xmlns:xlink="http://www.w3.org/1999/xlink" height="17.85px" width="17.0px" xmlns="http://www.w3.org/2000/svg">
  <g transform="matrix(1.0, 0.0, 0.0, 1.0, 8.45, 8.75)">
    <path d="M-3.45 -3.5 L-3.75 -3.75 -3.8 -3.8 -3.8 -3.9 -3.75 -4.0 -3.7 -4.3 -3.65 -4.65 -3.45 -5.3 -3.0 -6.3 -1.2 -7.3 -1.1 -7.35 -0.2 -8.45 0.8 -8.4 1.05 -7.95 1.25 -7.75 1.45 -7.5 1.55 -7.4 2.35 -7.1 3.25 -6.7 3.8 -6.35 3.95 -5.95 Q3.55 -5.95 3.3 -6.2 2.45 -6.4 1.75 -6.85 L1.45 -7.0 1.05 -7.15 1.0 -7.2 -0.7 -6.95 -0.7 -6.9 -0.75 -6.9 -0.75 -6.85 -1.7 -6.5 -0.4 -6.35 -1.35 -5.45 Q-1.75 -5.15 -1.45 -4.8 L-1.25 -4.75 0.4 -5.65 0.45 -5.65 Q1.0 -5.2 1.75 -5.05 L1.9 -4.7 2.15 -3.45 1.85 -2.7 Q1.4 -2.1 0.7 -1.85 L0.85 -2.1 Q1.0 -2.8 0.25 -2.8 -0.15 -2.6 -0.05 -2.15 0.0 -1.75 0.35 -1.75 L0.2 -1.7 -1.1 -1.6 -2.15 -1.75 Q-2.25 -1.75 -2.35 -1.85 L-2.85 -2.3 -2.85 -2.35 Q-2.95 -3.05 -3.4 -3.45 L-3.4 -3.5 -3.4 -3.55 -3.45 -3.5 M0.6 -3.55 L0.85 -3.9 Q0.95 -4.65 0.15 -4.6 -0.25 -4.4 -0.15 -3.95 0.0 -3.3 0.6 -3.55" fill="#eed0bb" fill-rule="evenodd" stroke="none"/>
    <path d="M3.9 -0.95 L4.1 -1.15 Q3.55 -2.35 4.15 -3.2 L4.3 -3.4 4.55 -3.65 4.65 -3.7 5.15 -3.9 Q6.3 -3.8 5.9 -2.5 L5.75 -1.85 Q6.55 -0.75 6.0 0.5 L5.8 0.65 5.7 1.0 5.0 1.8 4.9 1.9 Q5.25 1.45 4.5 1.2 L4.35 1.25 Q3.65 1.65 4.3 2.1 L4.45 2.2 Q3.9 2.3 3.5 1.6 L3.45 1.25 4.2 0.8 Q4.7 0.35 4.5 -0.25 L3.9 -0.95 M-6.95 1.45 L-6.65 1.1 Q-7.35 0.95 -7.7 0.6 L-7.95 -0.45 -7.9 -1.0 -7.75 -1.3 -7.7 -1.45 -7.65 -1.5 -7.4 -1.9 -7.2 -2.15 Q-6.8 -3.8 -5.1 -4.0 L-4.9 -3.95 -4.8 -3.95 -4.5 -3.85 -4.05 -3.65 -4.0 -3.6 -3.85 -3.45 -3.8 -3.45 -3.8 -3.4 -3.7 -2.7 -3.8 -2.65 -3.9 -2.55 -4.15 -2.05 -4.45 -1.95 -4.45 -2.05 Q-3.85 -2.9 -4.9 -3.2 L-5.4 -2.9 Q-5.85 -1.8 -4.65 -1.85 L-4.75 -1.25 -4.85 -0.8 -4.85 -0.7 -5.0 -0.75 -5.55 -0.6 Q-6.0 -0.25 -5.85 0.3 -5.6 1.5 -4.45 1.05 L-4.2 0.65 -4.1 0.0 -4.0 0.05 -3.9 0.35 -3.75 0.55 Q-3.4 0.85 -3.35 1.3 -2.95 0.9 -2.4 0.85 L-2.2 0.85 Q-2.4 0.25 -2.2 -0.35 L-1.15 -0.15 -1.0 -0.1 -0.95 -0.1 -0.75 -0.15 -0.1 -0.6 0.6 -0.6 0.4 0.15 0.45 0.35 0.55 0.6 1.5 1.55 1.65 1.9 Q3.1 2.5 2.65 4.1 L2.65 4.5 Q2.8 5.15 2.3 5.6 L0.35 5.55 -0.05 5.55 -0.25 5.85 -0.4 6.1 Q-2.0 6.45 -2.5 4.85 L-2.6 4.25 -2.9 3.9 -3.0 3.7 -5.75 3.45 -5.9 3.2 -5.95 3.05 -6.0 2.95 -5.4 2.85 -5.05 2.35 Q-4.8 1.2 -6.05 1.25 L-6.1 1.25 -6.5 1.6 -6.95 1.45 M5.4 -0.85 L5.2 -0.8 Q4.55 -0.35 5.2 0.15 L5.65 0.1 Q6.3 -0.55 5.4 -0.85 M5.55 -2.15 L5.5 -2.25 5.35 -2.25 5.3 -2.2 5.25 -2.1 5.25 -2.05 5.3 -1.95 5.5 -1.95 5.55 -2.05 5.6 -2.1 5.55 -2.15 M-6.2 -0.7 Q-5.5 -1.3 -6.4 -1.6 L-6.55 -1.55 Q-7.25 -1.15 -6.6 -0.7 -6.4 -0.55 -6.2 -0.7 M-3.35 2.65 L-3.5 2.8 Q-3.8 3.05 -3.6 3.4 L-2.8 3.45 Q-2.25 2.7 -3.35 2.65 M-0.35 2.35 L-0.65 2.65 Q-0.85 3.15 -0.35 3.35 L0.0 3.35 Q0.95 2.75 -0.1 2.3 L-0.3 2.35 -0.35 2.35 M-2.1 2.2 Q-2.3 2.95 -1.5 3.0 L-1.2 2.85 Q-0.5 2.05 -1.5 1.75 L-2.1 2.2 M-0.6 0.1 L-1.05 0.25 -1.35 0.75 Q-1.35 2.0 -0.1 1.6 L-0.1 1.55 Q0.65 0.45 -0.6 0.1 M-0.85 5.4 L-0.75 5.35 -0.65 5.25 -0.6 5.2 Q-0.3 4.35 -1.25 4.35 -1.6 4.45 -1.6 4.85 -1.65 5.55 -0.85 5.4" fill="#c2b2d7" fill-rule="evenodd" stroke="none"/>
    <path d="M3.95 -5.95 L3.8 -6.35 3.25 -6.7 2.35 -7.1 1.55 -7.4 1.45 -7.5 1.25 -7.75 1.05 -7.95 0.8 -8.4 -0.2 -8.45 -1.1 -7.35 -1.2 -7.3 -3.0 -6.3 -3.45 -5.3 -3.65 -4.65 -3.7 -4.3 -3.75 -4.0 -3.8 -3.9 -3.8 -3.8 -3.75 -3.75 -3.45 -3.5 -3.4 -3.45 Q-2.95 -3.05 -2.85 -2.35 L-2.85 -2.3 -2.85 -1.95 -2.95 -1.05 Q-2.35 -0.55 -1.5 -0.55 L-1.3 -0.5 -1.15 -0.45 Q-0.45 -1.05 0.55 -1.05 1.7 -1.0 2.1 0.15 L3.1 -0.75 3.15 -0.75 3.3 -0.8 3.6 -1.35 3.75 -1.55 Q3.5 -2.6 3.85 -3.6 L4.0 -3.8 4.55 -4.2 4.6 -3.95 4.5 -4.35 4.5 -4.45 4.5 -4.5 4.05 -5.75 3.95 -5.95 M0.35 -1.75 Q0.0 -1.75 -0.05 -2.15 -0.15 -2.6 0.25 -2.8 1.0 -2.8 0.85 -2.1 L0.7 -1.85 0.6 -1.8 0.35 -1.75 M1.75 -5.05 Q1.0 -5.2 0.45 -5.65 L0.4 -5.65 -1.25 -4.75 -1.45 -4.8 Q-1.75 -5.15 -1.35 -5.45 L-0.4 -6.35 -0.05 -6.55 0.2 -6.8 1.45 -6.3 2.0 -5.85 2.3 -5.5 2.35 -5.35 2.4 -5.3 2.5 -5.15 2.55 -5.05 2.5 -5.05 2.5 -4.95 2.45 -4.9 2.25 -4.9 2.2 -4.95 2.15 -5.0 1.75 -5.05 M1.1 -8.45 L1.65 -7.95 2.1 -7.7 Q3.55 -7.3 4.4 -6.0 L5.05 -4.65 5.1 -4.55 Q5.7 -4.5 6.2 -3.95 L6.5 -3.75 7.5 -3.5 7.65 -3.45 8.3 -2.1 Q8.4 -1.25 8.15 -0.45 L8.15 -0.4 8.15 -0.35 Q8.75 0.9 8.45 2.3 8.3 3.0 7.75 3.5 L7.45 3.7 6.8 4.15 6.65 4.9 5.7 6.05 5.25 7.05 4.55 7.75 4.1 8.05 Q3.7 8.8 2.95 9.05 L2.75 9.05 -0.8 8.8 Q-1.95 8.55 -2.65 7.55 L-3.3 6.75 -3.55 6.6 -4.4 6.0 -4.7 5.75 -4.9 5.6 Q-5.4 5.3 -5.95 5.25 L-6.55 4.85 -7.35 3.9 -7.5 3.35 -7.55 2.35 -7.3 1.3 -8.1 0.5 -8.25 0.35 Q-8.75 -0.65 -8.0 -1.5 L-7.85 -1.8 -7.8 -2.35 Q-7.35 -3.6 -6.25 -4.25 L-5.2 -4.55 -4.5 -4.55 -4.45 -4.65 -4.1 -5.05 -4.05 -5.1 -3.5 -6.25 Q-3.15 -6.7 -2.6 -6.95 L-2.25 -7.1 Q-1.2 -7.5 -0.5 -8.4 L-0.1 -8.75 0.75 -8.65 1.1 -8.45 M5.15 -3.9 L4.65 -3.7 4.55 -3.65 4.3 -3.4 4.15 -3.2 Q3.55 -2.35 4.1 -1.15 L3.9 -0.95 3.75 -0.7 3.6 -0.3 3.4 0.1 2.25 0.95 2.1 1.0 Q1.8 -0.45 0.6 -0.6 L-0.1 -0.6 -0.75 -0.15 -0.95 -0.1 -1.0 -0.1 -1.15 -0.15 -2.2 -0.35 -2.6 -0.3 -2.9 -0.25 -2.95 -0.4 -3.0 -0.55 -3.1 -0.7 -3.4 -1.05 -3.35 -1.55 -3.3 -1.65 -3.3 -1.75 Q-3.25 -2.25 -3.35 -2.65 L-3.4 -2.85 -3.75 -3.4 -3.8 -3.4 -3.8 -3.45 -3.85 -3.45 -4.0 -3.6 -4.05 -3.65 -4.5 -3.85 -4.8 -3.95 -4.9 -3.95 -5.1 -4.0 Q-6.8 -3.8 -7.2 -2.15 L-7.4 -1.9 -7.65 -1.5 -7.7 -1.45 -7.75 -1.3 Q-8.35 -0.05 -7.7 0.6 -7.35 0.95 -6.65 1.1 L-6.95 1.45 -7.15 2.0 Q-7.45 4.0 -5.4 4.7 L-5.05 5.1 Q-4.25 5.75 -3.3 5.55 L-3.25 5.6 Q-3.2 6.4 -2.65 7.05 L-1.5 7.8 -0.35 8.2 0.35 8.35 0.45 8.4 0.8 8.45 0.75 8.4 2.65 8.4 2.75 8.4 2.9 8.35 3.15 8.3 3.6 8.15 4.9 6.35 5.3 6.1 Q6.05 5.35 6.15 4.35 L6.15 3.9 7.0 3.5 Q8.55 1.55 7.45 -0.6 L7.7 -0.85 7.85 -1.15 7.9 -1.25 Q8.4 -2.75 7.2 -3.1 L6.45 -3.2 6.4 -3.25 5.4 -3.9 5.25 -3.9 5.15 -3.9 M0.6 -3.55 Q0.0 -3.3 -0.15 -3.95 -0.25 -4.4 0.15 -4.6 0.95 -4.65 0.85 -3.9 L0.6 -3.55" fill="#000000" fill-rule="evenodd" stroke="none"/>
    <path d="M-3.45 -3.5 L-3.4 -3.55 -3.4 -3.5 -3.4 -3.45 -3.45 -3.5 M-2.85 -2.3 L-2.35 -1.85 Q-2.25 -1.75 -2.15 -1.75 L-1.1 -1.6 0.2 -1.7 0.35 -1.75 0.6 -1.8 0.7 -1.85 Q1.4 -2.1 1.85 -2.7 L2.15 -3.45 1.9 -4.7 1.75 -5.05 2.15 -5.0 2.2 -4.95 2.25 -4.9 2.45 -4.9 2.5 -4.95 2.5 -5.05 2.55 -5.05 2.5 -5.15 2.4 -5.3 2.35 -5.35 2.3 -5.5 2.0 -5.85 1.45 -6.3 0.2 -6.8 -0.05 -6.55 -0.4 -6.35 -1.7 -6.5 -0.75 -6.85 -0.75 -6.9 -0.7 -6.9 -0.7 -6.95 1.0 -7.2 1.05 -7.15 1.45 -7.0 1.75 -6.85 Q2.45 -6.4 3.3 -6.2 3.55 -5.95 3.95 -5.95 L4.05 -5.75 4.5 -4.5 4.5 -4.45 4.5 -4.35 4.6 -3.95 4.55 -4.2 4.0 -3.8 3.85 -3.6 Q3.5 -2.6 3.75 -1.55 L3.6 -1.35 3.3 -0.8 3.15 -0.75 3.1 -0.75 2.1 0.15 Q1.7 -1.0 0.55 -1.05 -0.45 -1.05 -1.15 -0.45 L-1.3 -0.5 -1.5 -0.55 Q-2.35 -0.55 -2.95 -1.05 L-2.85 -1.95 -2.85 -2.3" fill="#cc9999" fill-rule="evenodd" stroke="none"/>
    <path d="M7.2 -3.1 Q8.4 -2.75 7.9 -1.25 L7.85 -1.15 7.7 -0.85 7.45 -0.6 Q8.55 1.55 7.0 3.5 L6.15 3.9 6.15 4.35 Q6.05 5.35 5.3 6.1 L4.9 6.35 3.6 8.15 3.15 8.3 2.9 8.35 2.75 8.4 2.65 8.4 0.75 8.4 0.8 8.45 0.45 8.4 0.35 8.35 -0.35 8.2 -1.5 7.8 -2.65 7.05 Q-3.2 6.4 -3.25 5.6 L-3.25 5.55 -3.3 5.55 Q-4.25 5.75 -5.05 5.1 L-5.4 4.7 Q-7.45 4.0 -7.15 2.0 L-6.95 1.45 -6.5 1.6 -6.6 2.25 -6.0 2.95 -5.95 3.05 -5.9 3.2 -5.75 3.45 -5.7 3.55 Q-5.3 4.25 -4.55 4.45 L-4.45 4.45 Q-3.05 4.3 -2.3 5.4 L-2.15 5.75 -2.15 6.4 Q-1.35 6.75 -0.55 7.25 L-0.45 7.05 1.15 6.85 2.05 6.5 2.75 6.3 Q2.85 6.1 3.05 6.05 L3.0 5.85 Q2.9 5.4 3.25 5.1 L4.05 4.95 Q3.9 4.25 4.45 3.8 L4.6 3.65 Q5.8 2.45 7.15 1.5 7.3 0.7 6.6 0.2 L6.45 0.0 Q6.25 -0.4 6.6 -0.75 7.45 -1.7 7.2 -2.95 L7.2 -3.1 M-3.35 -2.65 Q-3.25 -2.25 -3.3 -1.75 L-3.3 -1.65 -3.35 -1.55 -3.4 -1.05 -3.1 -0.7 -3.0 -0.55 -2.95 -0.4 -2.9 -0.25 -2.6 -0.3 -2.85 0.15 -4.0 0.05 -4.1 0.0 Q-4.2 -0.55 -4.85 -0.7 L-4.85 -0.8 -4.75 -1.25 -4.65 -1.85 -4.55 -1.85 -4.45 -1.95 -4.15 -2.05 -3.9 -2.55 -3.8 -2.65 -3.7 -2.7 -3.55 -2.7 -3.35 -2.65 M2.25 0.95 L3.4 0.1 3.45 0.05 3.6 -0.3 3.75 -0.7 3.9 -0.95 4.5 -0.25 Q4.7 0.35 4.2 0.8 L3.45 1.25 3.35 1.25 3.2 1.3 2.25 1.25 2.2 1.1 2.25 0.95" fill="#715b8e" fill-rule="evenodd" stroke="none"/>
    <path d="M5.15 -3.9 L5.25 -3.9 5.4 -3.9 6.4 -3.25 6.45 -3.2 7.2 -3.1 7.2 -2.95 Q7.45 -1.7 6.6 -0.75 6.25 -0.4 6.45 0.0 L6.6 0.2 Q7.3 0.7 7.15 1.5 5.8 2.45 4.6 3.65 L4.45 3.8 Q3.9 4.25 4.05 4.95 L3.25 5.1 Q2.9 5.4 3.0 5.85 L3.05 6.05 Q2.85 6.1 2.75 6.3 L2.05 6.5 1.15 6.85 -0.45 7.05 -0.55 7.25 Q-1.35 6.75 -2.15 6.4 L-2.15 5.75 -2.3 5.4 Q-3.05 4.3 -4.45 4.45 L-4.55 4.45 Q-5.3 4.25 -5.7 3.55 L-5.75 3.45 -3.0 3.7 -2.9 3.9 -2.6 4.25 -2.5 4.85 Q-2.0 6.45 -0.4 6.1 L-0.25 5.85 -0.05 5.55 0.35 5.55 2.3 5.6 Q2.8 5.15 2.65 4.5 L2.65 4.1 Q3.1 2.5 1.65 1.9 L1.5 1.55 0.55 0.6 0.45 0.35 0.4 0.15 0.6 -0.6 Q1.8 -0.45 2.1 1.0 L2.25 0.95 2.2 1.1 2.25 1.25 3.2 1.3 3.35 1.25 3.45 1.25 3.5 1.6 Q3.9 2.3 4.45 2.2 L4.7 2.1 4.9 1.9 5.0 1.8 5.7 1.0 Q5.65 1.35 6.05 1.6 L6.55 1.6 6.75 1.35 Q7.2 0.45 6.1 0.4 L6.0 0.5 Q6.55 -0.75 5.75 -1.85 L5.9 -2.5 Q6.3 -3.8 5.15 -3.9 M-7.7 0.6 Q-8.35 -0.05 -7.75 -1.3 L-7.9 -1.0 -7.95 -0.45 -7.7 0.6 M-3.8 -3.4 L-3.75 -3.4 -3.4 -2.85 -3.35 -2.65 -3.55 -2.7 -3.7 -2.7 -3.8 -3.4 M-2.6 -0.3 L-2.2 -0.35 Q-2.4 0.25 -2.2 0.85 L-2.4 0.85 Q-2.95 0.9 -3.35 1.3 -3.4 0.85 -3.75 0.55 L-3.9 0.35 -4.0 0.05 -2.85 0.15 -2.6 -0.3 M3.4 0.1 L3.6 -0.3 3.45 0.05 3.4 0.1" fill="#8e7aa9" fill-rule="evenodd" stroke="none"/>
    <path d="M4.45 2.2 L4.3 2.1 Q3.65 1.65 4.35 1.25 L4.5 1.2 Q5.25 1.45 4.9 1.9 L4.7 2.1 4.45 2.2 M5.7 1.0 L5.8 0.65 6.0 0.5 6.1 0.4 Q7.2 0.45 6.75 1.35 L6.55 1.6 6.05 1.6 Q5.65 1.35 5.7 1.0 M5.55 -2.15 L5.6 -2.1 5.55 -2.05 5.5 -1.95 5.3 -1.95 5.25 -2.05 5.25 -2.1 5.3 -2.2 5.35 -2.25 5.5 -2.25 5.55 -2.15 M5.4 -0.85 Q6.3 -0.55 5.65 0.1 L5.2 0.15 Q4.55 -0.35 5.2 -0.8 L5.4 -0.85 M-6.0 2.95 L-6.6 2.25 -6.5 1.6 -6.1 1.25 -6.05 1.25 Q-4.8 1.2 -5.05 2.35 L-5.4 2.85 -6.0 2.95 M-6.2 -0.7 Q-6.4 -0.55 -6.6 -0.7 -7.25 -1.15 -6.55 -1.55 L-6.4 -1.6 Q-5.5 -1.3 -6.2 -0.7 M-4.65 -1.85 Q-5.85 -1.8 -5.4 -2.9 L-4.9 -3.2 Q-3.85 -2.9 -4.45 -2.05 L-4.45 -1.95 -4.55 -1.85 -4.65 -1.85 M-4.85 -0.7 Q-4.2 -0.55 -4.1 0.0 L-4.2 0.65 -4.45 1.05 Q-5.6 1.5 -5.85 0.3 -6.0 -0.25 -5.55 -0.6 L-5.0 -0.75 -4.85 -0.7 M-0.6 0.1 Q0.65 0.45 -0.1 1.55 L-0.1 1.6 Q-1.35 2.0 -1.35 0.75 L-1.05 0.25 -0.6 0.1 M-2.1 2.2 L-1.5 1.75 Q-0.5 2.05 -1.2 2.85 L-1.5 3.0 Q-2.3 2.95 -2.1 2.2 M-0.35 2.35 L-0.3 2.35 -0.1 2.3 Q0.95 2.75 0.0 3.35 L-0.35 3.35 Q-0.85 3.15 -0.65 2.65 L-0.35 2.35 M-3.35 2.65 Q-2.25 2.7 -2.8 3.45 L-3.6 3.4 Q-3.8 3.05 -3.5 2.8 L-3.35 2.65 M-0.85 5.4 Q-1.65 5.55 -1.6 4.85 -1.6 4.45 -1.25 4.35 -0.3 4.35 -0.6 5.2 L-0.65 5.25 -0.75 5.35 -0.85 5.4" fill="#ffffff" fill-rule="evenodd" stroke="none"/>
  </g>
</svg>
