<?xml version="1.0" encoding="UTF-8" standalone="no"?>
<svg xmlns:xlink="http://www.w3.org/1999/xlink" height="13.85px" width="10.2px" xmlns="http://www.w3.org/2000/svg">
  <g transform="matrix(1.0, 0.0, 0.0, 1.0, 5.1, 8.3)">
    <path d="M2.55 -3.8 L2.6 -3.7 2.65 -3.45 2.6 -3.45 2.45 -3.45 2.4 -3.5 2.35 -3.6 2.4 -3.75 2.45 -3.8 2.5 -3.85 2.55 -3.85 2.55 -3.8 M-2.95 -2.4 L-2.85 -2.75 -2.8 -2.8 -2.8 -2.9 -2.7 -3.1 -2.5 -3.0 Q-2.25 -2.85 -2.35 -2.45 L-2.4 -2.4 Q-2.6 -1.9 -3.0 -2.2 L-2.95 -2.4 M-2.1 -4.05 L-2.1 -4.1 -2.0 -4.2 -1.95 -4.25 -1.7 -4.45 Q-1.45 -4.4 -1.55 -4.05 L-1.6 -4.0 -1.75 -3.9 -1.8 -3.9 -1.95 -3.9 -2.1 -4.05 M-0.85 -4.85 L-0.75 -4.9 -0.65 -4.9 -0.6 -4.9 -0.25 -5.0 Q-0.2 -4.85 -0.3 -4.7 L-0.45 -4.55 -0.65 -4.55 -0.85 -4.85 M0.8 -4.95 L1.3 -4.75 1.45 -4.7 1.4 -4.6 1.3 -4.5 Q0.75 -4.4 0.8 -4.8 L0.8 -4.95" fill="#cc9900" fill-rule="evenodd" stroke="none"/>
    <path d="M2.55 -3.8 L3.05 -3.15 3.1 -3.0 3.15 -2.95 3.15 -2.9 3.2 -2.85 3.35 -2.0 3.35 -1.95 3.35 -1.75 3.35 -1.7 3.35 -1.55 3.35 -1.25 3.35 -1.2 3.35 -1.15 3.4 -0.85 3.4 -0.7 2.8 1.3 1.8 2.65 Q0.8 3.5 0.6 4.75 L0.6 4.85 -0.35 4.9 -1.05 4.85 -1.0 4.85 -1.1 4.15 Q-1.5 3.0 -2.3 2.1 L-2.35 2.05 -2.55 1.65 -2.55 1.6 -2.05 1.15 -2.05 1.25 -1.95 1.35 -1.8 1.35 -1.5 1.3 -1.4 1.25 -1.3 1.35 -1.1 1.5 1.2 1.45 1.9 1.1 2.0 1.1 2.1 1.0 2.1 0.95 2.15 0.95 2.45 0.5 2.9 -0.8 Q3.1 -1.9 2.8 -2.9 L2.7 -3.25 2.6 -3.7 2.55 -3.8 M0.85 2.1 L0.8 2.15 0.8 2.2 0.85 2.2 0.85 2.1" fill="#663333" fill-rule="evenodd" stroke="none"/>
    <path d="M2.6 -3.7 L2.7 -3.25 2.8 -2.9 Q3.1 -1.9 2.9 -0.8 L2.45 0.5 2.15 0.95 2.1 0.95 2.1 1.0 2.0 1.1 1.9 1.1 1.2 1.45 -1.1 1.5 -1.3 1.35 -1.4 1.25 -1.5 1.3 -1.8 1.35 -1.95 1.35 -2.05 1.25 -2.05 1.15 -2.55 1.6 Q-3.25 0.45 -3.15 -0.85 L-3.15 -1.2 -3.15 -1.55 -3.15 -1.45 -3.1 -1.8 -3.05 -1.95 -3.0 -2.15 -2.95 -2.4 -3.0 -2.2 Q-2.6 -1.9 -2.4 -2.4 L-2.35 -2.45 Q-2.25 -2.85 -2.5 -3.0 L-2.7 -3.1 -2.65 -3.2 -2.25 -3.85 -2.1 -4.05 -1.95 -3.9 -1.8 -3.9 -1.95 -3.6 -2.05 -3.4 -2.35 -1.7 -2.05 0.0 Q-1.8 0.7 -1.4 0.7 -1.0 0.7 -0.7 0.0 -0.45 -0.7 -0.45 -1.7 -0.45 -2.7 -0.7 -3.4 L-1.05 -3.95 -1.4 -4.1 -1.55 -4.05 Q-1.45 -4.4 -1.7 -4.45 L-0.85 -4.85 -0.65 -4.55 -0.45 -4.55 -0.3 -4.7 Q-0.2 -4.85 -0.25 -5.0 L-0.2 -5.0 -0.1 -5.0 -0.05 -5.05 0.35 -5.0 0.45 -5.0 0.5 -5.0 0.8 -4.95 0.8 -4.8 Q0.75 -4.4 1.3 -4.5 L1.4 -4.6 1.45 -4.7 1.5 -4.65 1.85 -4.45 1.9 -4.4 2.2 -4.2 2.55 -3.85 2.5 -3.85 2.45 -3.8 2.4 -3.75 2.35 -3.6 2.4 -3.5 2.45 -3.45 2.6 -3.45 2.65 -3.45 2.6 -3.7 M1.8 0.5 L2.1 0.0 2.3 -0.95 2.35 -1.7 2.1 -3.4 1.8 -3.9 1.75 -3.9 1.6 -4.0 1.6 -4.05 1.4 -4.1 1.0 -3.85 0.75 -3.4 Q0.45 -2.7 0.45 -1.7 0.45 -0.7 0.75 0.0 1.0 0.7 1.4 0.7 L1.8 0.55 1.85 0.6 1.9 0.55 1.8 0.5" fill="#996600" fill-rule="evenodd" stroke="none"/>
    <path d="M-0.45 -7.25 L1.3 -6.95 1.25 -7.05 1.1 -7.3 Q0.4 -7.9 -0.5 -7.9 L-0.55 -7.9 -0.65 -7.85 -1.15 -7.6 -1.9 -6.85 -2.0 -6.7 -1.65 -6.75 -1.55 -6.9 -1.55 -6.95 -0.7 -7.25 -0.45 -7.25 M1.95 -6.3 L1.8 -6.35 1.5 -6.4 1.25 -6.45 1.2 -6.45 0.25 -6.8 -1.1 -6.85 -1.15 -6.8 -1.25 -6.75 -1.3 -6.7 -1.35 -6.65 -1.55 -6.4 -1.6 -6.35 -1.65 -6.35 -2.15 -6.2 -2.2 -6.2 -2.4 -6.1 -3.05 -5.55 -3.85 -4.4 -3.85 -4.35 -4.2 -4.05 -4.2 -4.0 -4.25 -3.95 -4.3 -3.95 Q-4.7 -3.5 -4.2 -3.1 L-4.2 -3.0 -4.2 -2.8 -3.9 -1.45 -3.75 -1.55 -3.55 -1.55 -3.5 -2.1 -3.4 -2.65 -3.15 -3.0 -3.0 -3.4 -2.75 -3.85 -1.85 -4.75 -1.75 -4.8 -1.65 -4.9 -1.25 -5.15 -0.9 -5.3 -0.55 -5.45 -0.5 -5.45 -0.35 -5.5 0.65 -5.45 0.75 -5.45 0.85 -5.4 0.9 -5.45 0.95 -5.45 1.05 -5.4 1.45 -5.2 1.5 -5.2 1.7 -5.05 2.25 -4.7 2.4 -4.6 2.6 -4.4 2.7 -4.25 3.3 -3.5 3.25 -3.5 3.4 -3.35 3.4 -3.3 3.45 -3.25 3.45 -2.7 3.55 -2.35 3.55 -2.3 3.6 -1.85 3.65 -1.8 3.65 -1.75 3.65 -1.65 3.7 -1.6 4.0 -2.05 4.25 -2.7 4.4 -3.15 4.4 -3.45 Q4.35 -4.15 3.7 -4.6 L3.2 -5.0 3.1 -5.25 Q2.75 -6.05 1.95 -6.3 M-3.65 2.3 L-4.7 2.8 -4.85 2.8 Q-5.25 2.65 -5.05 2.35 L-5.1 2.05 -4.8 -0.1 Q-4.65 -0.9 -4.05 -1.35 L-4.25 -1.8 -4.35 -2.1 Q-4.8 -3.05 -4.6 -4.05 L-4.5 -4.3 -2.9 -6.15 -2.7 -6.4 -2.35 -6.6 -2.35 -6.7 -2.0 -7.3 -1.85 -7.4 Q-1.45 -8.1 -0.65 -8.2 L-0.25 -8.3 Q0.85 -8.35 1.25 -7.4 L1.5 -6.95 1.6 -6.85 1.7 -6.8 1.75 -6.75 1.8 -6.75 2.1 -6.6 2.35 -6.35 3.6 -5.2 3.7 -5.15 Q4.45 -4.7 4.6 -3.8 L4.55 -3.25 4.4 -2.8 4.15 -1.5 4.1 -1.35 4.25 -1.2 4.65 -0.55 4.8 0.35 4.9 0.7 5.1 2.35 4.95 2.9 Q4.6 3.0 4.45 2.7 L4.4 2.6 3.7 2.0 3.65 2.4 3.65 2.65 3.35 3.55 Q2.6 4.6 1.35 5.15 L-1.2 5.35 Q-2.65 4.8 -3.4 3.5 L-3.5 3.25 -3.55 3.0 -3.55 2.85 -3.65 2.8 -3.65 2.35 -3.6 2.4 -3.6 2.25 -3.65 1.7 -3.65 2.3 M-2.55 1.6 L-2.55 1.65 -2.35 2.05 -2.3 2.1 Q-1.5 3.0 -1.1 4.15 L-1.0 4.85 -1.05 4.85 -0.35 4.9 0.6 4.85 0.6 4.75 Q0.8 3.5 1.8 2.65 L2.8 1.3 3.4 -0.7 3.4 -0.85 3.35 -1.15 3.35 -1.2 3.35 -1.25 3.35 -1.55 3.35 -1.7 3.35 -1.75 3.35 -1.95 3.35 -2.0 3.2 -2.85 3.15 -2.9 3.15 -2.95 3.1 -3.0 3.05 -3.15 2.55 -3.8 2.55 -3.85 2.2 -4.2 1.9 -4.4 1.85 -4.45 1.5 -4.65 1.45 -4.7 1.3 -4.75 0.8 -4.95 0.5 -5.0 0.45 -5.0 0.35 -5.0 -0.05 -5.05 -0.1 -5.0 -0.2 -5.0 -0.25 -5.0 -0.6 -4.9 -0.65 -4.9 -0.75 -4.9 -0.85 -4.85 -1.7 -4.45 -1.95 -4.25 -2.0 -4.2 -2.1 -4.1 -2.1 -4.05 -2.25 -3.85 -2.65 -3.2 -2.7 -3.1 -2.8 -2.9 -2.8 -2.8 -2.85 -2.75 -2.95 -2.4 -3.0 -2.15 -3.05 -1.95 -3.1 -1.8 -3.15 -1.45 -3.15 -1.55 -3.15 -1.2 -3.15 -0.85 Q-3.25 0.45 -2.55 1.6 M1.8 0.55 L1.4 0.7 Q1.0 0.7 0.75 0.0 0.45 -0.7 0.45 -1.7 0.45 -2.7 0.75 -3.4 L1.0 -3.85 1.4 -4.1 1.6 -4.05 1.6 -4.0 1.75 -3.9 1.8 -3.9 2.1 -3.4 2.35 -1.7 2.3 -0.95 2.1 0.0 1.8 0.5 1.8 0.55 M0.9 -1.95 L0.9 -0.05 Q1.95 -0.25 2.05 -1.4 L2.05 -1.55 2.05 -1.75 Q1.95 -3.25 0.85 -3.65 L0.85 -2.8 0.9 -1.95 M3.7 -1.25 L3.65 -1.25 3.65 -1.2 3.65 -1.25 3.65 -0.75 3.65 -0.65 3.65 -0.55 3.7 -0.15 3.7 -0.05 3.7 0.6 3.7 0.95 3.7 1.25 3.7 1.5 3.85 1.6 4.95 2.55 4.5 -0.25 4.4 -0.65 3.7 -1.25 M-1.8 -3.9 L-1.75 -3.9 -1.6 -4.0 -1.55 -4.05 -1.4 -4.1 -1.05 -3.95 -0.7 -3.4 Q-0.45 -2.7 -0.45 -1.7 -0.45 -0.7 -0.7 0.0 -1.0 0.7 -1.4 0.7 -1.8 0.7 -2.05 0.0 L-2.35 -1.7 -2.05 -3.4 -1.95 -3.6 -1.8 -3.9 M-4.0 1.75 L-3.65 1.45 -3.65 1.15 -3.65 0.55 -3.65 -0.45 -3.6 -0.95 -3.6 -1.25 -3.6 -1.3 -3.65 -1.25 -4.4 -0.65 -4.5 -0.1 -4.95 2.55 -4.0 1.75 M-0.85 -2.95 L-0.85 -3.65 Q-1.7 -3.35 -1.95 -2.4 L-2.0 -2.15 -2.05 -1.75 Q-2.15 -0.3 -0.9 -0.05 L-0.85 -1.5 -0.85 -2.95 M-3.2 1.45 L-3.2 1.55 -3.2 1.9 -3.2 1.95 -3.15 2.35 -3.1 2.55 -3.05 2.85 -3.0 3.05 -2.95 3.15 -2.9 3.45 Q-2.55 4.3 -1.8 4.6 L-1.3 4.8 -1.3 4.75 -1.3 4.6 -1.35 4.5 -1.35 4.4 -1.4 4.35 -1.4 4.3 Q-1.7 3.5 -2.3 2.9 L-3.2 1.45 M3.25 0.75 L2.5 1.95 1.3 3.9 1.1 4.55 1.05 4.75 1.95 4.4 2.15 4.3 Q2.85 3.5 3.15 2.5 L3.35 1.6 3.4 1.5 3.4 1.35 3.4 1.25 3.45 1.1 3.45 0.25 3.25 0.75" fill="#000000" fill-rule="evenodd" stroke="none"/>
    <path d="M2.4 -4.6 L2.25 -4.7 1.7 -5.05 1.5 -5.2 1.75 -5.05 2.15 -4.8 2.4 -4.6" fill="#99ffff" fill-rule="evenodd" stroke="none"/>
    <path d="M0.85 -2.8 L0.85 -3.65 Q1.95 -3.25 2.05 -1.75 L2.05 -1.55 2.05 -1.4 Q1.95 -0.25 0.9 -0.05 L0.9 -1.95 Q1.1 -1.6 1.65 -1.8 L1.8 -2.15 Q2.0 -3.0 1.1 -2.95 L1.0 -2.9 0.95 -2.9 0.85 -2.8 M4.5 -0.25 L4.95 2.55 3.85 1.6 Q4.1 0.65 4.5 -0.25 M-4.5 -0.1 L-4.4 -0.65 -3.65 -1.25 -3.6 -1.3 -3.6 -1.25 -3.6 -0.95 -3.65 -0.45 -3.65 0.55 -3.65 1.15 -3.65 1.45 -4.0 1.75 -4.05 1.45 -4.2 0.55 -4.5 -0.1 M-0.85 -2.95 L-1.2 -3.0 -1.5 -2.85 -1.95 -2.4 Q-1.7 -3.35 -0.85 -3.65 L-0.85 -2.95 M-2.0 -2.15 L-1.65 -1.55 -0.9 -1.5 -0.85 -1.5 -0.9 -0.05 Q-2.15 -0.3 -2.05 -1.75 L-2.0 -2.15" fill="#9999ff" fill-rule="evenodd" stroke="none"/>
    <path d="M3.7 -1.25 L4.4 -0.65 4.5 -0.25 Q4.1 0.65 3.85 1.6 L3.7 1.5 3.7 1.25 3.7 0.95 3.7 0.6 3.7 -0.05 3.7 -0.15 3.65 -0.55 3.65 -0.65 3.65 -0.75 3.65 -1.2 3.7 -1.25 M-3.2 1.45 L-2.3 2.9 Q-1.7 3.5 -1.4 4.3 L-1.4 4.35 -1.35 4.4 -1.35 4.5 -1.3 4.6 -1.3 4.75 -1.3 4.8 -1.8 4.6 Q-2.55 4.3 -2.9 3.45 L-2.95 3.15 -3.0 3.05 -3.05 2.85 -3.1 2.55 -3.15 2.35 -3.2 1.95 -3.2 1.9 -3.2 1.55 -3.2 1.45 M3.25 0.75 L3.45 0.25 3.45 1.1 3.4 1.25 3.4 1.35 3.4 1.5 3.35 1.6 3.15 2.5 Q2.85 3.5 2.15 4.3 L1.95 4.4 1.05 4.75 1.1 4.55 1.3 3.9 2.5 1.95 3.25 0.75" fill="#6666ff" fill-rule="evenodd" stroke="none"/>
    <path d="M0.85 -2.8 L0.95 -2.9 1.0 -2.9 1.1 -2.95 Q2.0 -3.0 1.8 -2.15 L1.65 -1.8 Q1.1 -1.6 0.9 -1.95 L0.85 -2.8 M-4.5 -0.1 L-4.2 0.55 -4.05 1.45 -4.0 1.75 -4.95 2.55 -4.5 -0.1 M-1.95 -2.4 L-1.5 -2.85 -1.2 -3.0 -0.85 -2.95 -0.85 -1.5 -0.9 -1.5 -1.65 -1.55 -2.0 -2.15 -1.95 -2.4" fill="#99ccff" fill-rule="evenodd" stroke="none"/>
    <path d="M4.4 -3.45 L4.4 -3.15 4.25 -2.7 4.0 -2.05 3.7 -1.6 3.65 -1.65 3.65 -1.75 3.65 -1.8 3.6 -1.85 3.55 -2.3 3.55 -2.35 3.45 -2.7 3.45 -3.25 3.4 -3.3 3.4 -3.35 3.25 -3.5 3.3 -3.5 3.5 -3.5 4.4 -3.45 M-3.15 -3.0 L-3.4 -2.65 -3.5 -2.1 -3.55 -1.55 -3.75 -1.55 -3.9 -1.45 -4.2 -2.8 -4.15 -2.8 -4.1 -2.85 -4.0 -2.9 -3.95 -3.0 -3.8 -3.1 -3.45 -3.1 -3.35 -3.05 -3.25 -3.05 -3.15 -3.0 M1.8 0.5 L1.9 0.55 1.85 0.6 1.8 0.55 1.8 0.5 M0.85 2.1 L0.85 2.2 0.8 2.2 0.8 2.15 0.85 2.1" fill="#cc0000" fill-rule="evenodd" stroke="none"/>
    <path d="M3.65 -1.2 L3.65 -1.25 3.7 -1.25 3.65 -1.2" fill="#edcdb6" fill-rule="evenodd" stroke="none"/>
    <path d="M3.65 -0.75 L3.65 -1.25 3.65 -1.2 3.65 -0.75" fill="#e3b18b" fill-rule="evenodd" stroke="none"/>
    <path d="M-3.65 2.35 L-3.65 2.3 -3.65 1.7 -3.6 2.25 -3.6 2.4 -3.65 2.35" fill="#ad7a3f" fill-rule="evenodd" stroke="none"/>
    <path d="M-0.55 -7.9 L-0.5 -7.9 Q0.4 -7.9 1.1 -7.3 L1.25 -7.05 1.3 -6.95 -0.45 -7.25 -0.4 -7.4 Q-0.35 -7.75 -0.55 -7.9 M-1.55 -6.9 L-1.65 -6.75 -2.0 -6.7 -1.9 -6.85 Q-1.8 -6.75 -1.65 -6.75 L-1.55 -6.9 M1.95 -6.3 Q2.75 -6.05 3.1 -5.25 L3.2 -5.0 3.7 -4.6 Q4.35 -4.15 4.4 -3.45 L3.5 -3.5 3.3 -3.5 2.7 -4.25 2.6 -4.4 2.4 -4.6 2.15 -4.8 1.75 -5.05 1.5 -5.2 1.45 -5.2 1.05 -5.4 0.95 -5.45 0.9 -5.45 0.85 -5.4 0.75 -5.45 0.65 -5.45 -0.35 -5.5 -0.5 -5.45 -0.55 -5.45 -0.9 -5.3 -1.25 -5.15 -1.65 -4.9 -1.75 -4.8 -1.85 -4.75 -2.75 -3.85 -3.0 -3.4 -3.15 -3.0 -3.25 -3.05 -3.35 -3.05 -3.45 -3.1 -3.8 -3.1 -3.95 -3.0 -4.0 -2.9 -4.1 -2.85 -4.15 -2.8 -4.2 -2.8 -4.2 -3.0 -4.2 -3.1 Q-4.7 -3.5 -4.3 -3.95 L-4.4 -3.8 -4.15 -3.45 Q-3.9 -3.25 -3.65 -3.45 L-2.95 -4.25 -2.7 -4.7 -2.35 -5.15 -1.9 -5.45 -1.05 -5.65 Q-0.35 -5.75 -0.15 -6.35 L1.3 -6.35 1.85 -6.3 2.15 -6.25 1.95 -6.3 M-1.3 -6.7 L-1.25 -6.75 -1.15 -6.8 -1.1 -6.85 -1.15 -6.8 -1.2 -6.75 -1.3 -6.7" fill="#ff6633" fill-rule="evenodd" stroke="none"/>
    <path d="M-0.45 -7.25 L-0.7 -7.25 -1.55 -6.95 -1.55 -6.9 -1.65 -6.75 Q-1.8 -6.75 -1.9 -6.85 L-1.15 -7.6 -0.65 -7.85 -0.55 -7.9 Q-0.35 -7.75 -0.4 -7.4 L-0.45 -7.25 M-1.1 -6.85 L0.25 -6.8 1.2 -6.45 1.25 -6.45 1.5 -6.4 1.8 -6.35 1.95 -6.3 2.15 -6.25 1.85 -6.3 1.3 -6.35 -0.15 -6.35 Q-0.35 -5.75 -1.05 -5.65 L-1.9 -5.45 -2.35 -5.15 -2.7 -4.7 -2.95 -4.25 -3.65 -3.45 Q-3.9 -3.25 -4.15 -3.45 L-4.4 -3.8 -4.3 -3.95 -4.25 -3.95 -4.2 -4.0 -4.2 -4.05 -3.85 -4.35 -3.85 -4.4 -3.05 -5.55 -2.4 -6.1 -2.2 -6.2 -2.15 -6.2 -1.65 -6.35 -1.6 -6.35 -1.55 -6.4 -1.35 -6.65 -1.3 -6.7 -1.2 -6.75 -1.15 -6.8 -1.1 -6.85" fill="#ff9900" fill-rule="evenodd" stroke="none"/>
  </g>
</svg>
