<?xml version="1.0" encoding="UTF-8" standalone="no"?>
<svg xmlns:xlink="http://www.w3.org/1999/xlink" height="14.9px" width="13.15px" xmlns="http://www.w3.org/2000/svg">
  <g transform="matrix(1.0, 0.0, 0.0, 1.0, 6.4, 4.15)">
    <path d="M3.5 -0.8 L3.6 -0.95 3.7 -0.95 3.8 -0.9 Q3.7 -0.75 3.75 -0.45 L3.6 -0.5 Q3.4 -0.65 3.5 -0.8 M3.75 -0.75 L3.8 -0.9 3.9 -0.85 4.9 0.15 Q5.65 0.9 5.8 1.9 L6.0 4.25 6.75 5.55 4.65 8.65 3.65 8.45 3.3 9.35 2.05 10.3 1.25 10.05 0.35 10.75 -0.8 10.65 -3.35 8.75 -3.6 8.15 -3.95 8.45 Q-4.3 8.8 -4.8 8.3 L-6.15 7.3 -6.4 6.15 -6.1 5.5 -5.95 3.35 -6.0 3.25 Q-6.1 2.65 -6.35 3.35 L-6.3 1.7 -6.0 0.75 -3.8 -0.8 -3.7 -0.8 Q-3.05 -0.2 -3.95 0.05 L-5.45 0.95 -5.9 1.75 -6.0 2.55 Q-5.4 3.45 -5.5 4.65 L-5.75 5.55 Q-5.95 6.1 -6.3 6.5 L-6.1 6.65 -4.25 7.95 -3.45 7.8 -2.05 9.2 Q-1.25 10.2 0.05 10.2 L0.65 9.75 3.25 9.05 3.8 8.15 4.45 8.1 5.3 7.4 5.6 6.45 5.85 6.2 5.15 1.25 5.0 0.75 4.65 0.1 3.75 -0.75" fill="#000000" fill-rule="evenodd" stroke="none"/>
    <path d="M3.8 -0.9 L3.8 -0.95 3.9 -0.85 3.8 -0.9 M-3.95 0.05 L-4.0 0.1 -4.25 0.4 Q-3.9 0.95 -4.4 1.5 L-4.5 1.7 -4.55 2.0 -4.6 2.3 Q-4.4 2.55 -4.5 2.9 L-4.5 3.15 -4.25 2.95 -3.55 4.1 -2.85 4.9 -1.85 6.6 -1.2 6.8 -1.3 7.35 -1.3 8.2 -1.55 7.65 Q-2.95 6.95 -3.95 5.45 L-4.05 6.1 -3.3 7.55 -4.45 6.35 -4.75 5.45 -5.3 5.7 -5.35 6.9 -6.1 6.65 -6.3 6.5 Q-5.95 6.1 -5.75 5.55 L-5.5 4.65 Q-5.4 3.45 -6.0 2.55 L-5.9 1.75 -5.45 0.95 -3.95 0.05 M3.4 1.3 Q3.25 1.2 3.25 0.95 3.2 0.7 3.4 0.45 L3.45 0.4 3.75 0.1 3.6 1.35 3.55 1.35 3.4 1.3 M4.65 0.1 L5.0 0.75 5.15 1.25 4.65 0.1 M-0.85 6.4 L-0.5 7.0 Q-0.25 6.55 0.2 6.35 L0.2 7.25 -0.25 7.65 -0.85 6.4 M-2.7 5.3 L-2.7 5.45 -2.7 5.35 -2.7 5.3" fill="#ffcc00" fill-rule="evenodd" stroke="none"/>
    <path d="M3.75 -0.45 L3.75 -0.75 4.65 0.1 5.15 1.25 5.85 6.2 5.6 6.45 5.3 7.4 4.45 8.1 3.8 8.15 3.25 9.05 0.65 9.75 0.05 10.2 Q-1.25 10.2 -2.05 9.2 L-3.45 7.8 -4.25 7.95 -6.1 6.65 -5.35 6.9 -5.3 5.7 -4.75 5.45 -4.45 6.35 -3.3 7.55 -4.05 6.1 -3.95 5.45 Q-2.95 6.95 -1.55 7.65 L-1.3 8.2 -1.3 7.35 -1.2 6.8 -1.85 6.6 -2.85 4.9 -3.55 4.1 -4.25 2.95 -3.55 3.1 -3.65 2.95 -3.7 2.7 Q-3.8 2.35 -3.55 2.1 -2.9 1.95 -2.5 2.55 L-2.3 2.9 -1.5 4.05 Q-1.05 4.75 -0.15 4.6 L0.25 4.35 2.15 2.35 2.35 2.15 2.45 2.0 3.25 1.95 3.4 1.35 3.4 1.3 3.55 1.35 3.6 1.35 3.75 0.1 3.45 0.4 3.4 0.45 2.65 -0.3 2.6 -0.5 2.95 -0.95 3.5 -0.8 Q3.4 -0.65 3.6 -0.5 L3.75 -0.45 M4.35 1.75 Q4.3 2.6 3.7 3.2 L3.65 3.3 4.3 3.95 4.45 2.8 4.55 2.55 4.35 1.95 4.4 1.75 4.35 1.75 M0.2 6.35 L0.95 6.35 1.1 6.1 Q0.9 6.1 0.85 5.9 0.75 5.6 1.0 5.35 L-0.5 6.05 -1.05 6.15 -0.85 6.4 -0.25 7.65 0.2 7.25 0.2 6.35" fill="#cc6633" fill-rule="evenodd" stroke="none"/>
    <path d="M-3.65 3.6 L-3.75 3.7 -4.7 4.15 -4.85 4.15 Q-5.25 4.0 -5.05 3.7 L-5.1 3.4 -4.8 1.25 Q-4.65 0.45 -4.05 0.0 L-4.1 -0.05 -3.85 -0.1 -3.8 -0.15 -3.75 -0.2 -3.55 -0.2 -3.5 -0.75 -3.4 -1.3 -3.15 -1.65 -3.0 -2.05 -2.75 -2.5 -1.85 -3.4 -1.75 -3.45 -1.65 -3.55 -1.25 -3.8 -0.9 -3.95 -0.55 -4.1 -0.5 -4.1 -0.35 -4.15 0.65 -4.1 0.75 -4.1 0.85 -4.05 0.9 -4.1 0.95 -4.1 1.05 -4.05 1.45 -3.85 1.5 -3.85 1.7 -3.7 2.25 -3.35 2.4 -3.25 2.6 -3.05 2.7 -2.9 3.3 -2.15 3.25 -2.15 3.4 -2.0 3.4 -1.95 3.45 -1.9 3.45 -1.35 3.55 -1.0 3.55 -0.95 3.6 -0.5 3.65 -0.45 3.65 -0.4 3.65 -0.3 3.7 -0.25 3.8 -0.35 4.15 0.05 4.25 0.15 4.65 0.8 4.8 1.7 4.9 2.05 5.1 3.7 4.95 4.25 Q4.6 4.35 4.45 4.05 L4.4 3.95 3.7 3.35 3.7 3.45 3.3 3.25 3.35 2.95 3.4 2.85 3.4 2.7 3.4 2.6 3.45 2.45 3.45 1.6 3.25 2.1 2.5 3.3 Q1.85 4.15 1.35 5.15 L1.3 5.25 1.1 5.9 1.05 6.1 0.95 6.65 -1.2 6.7 -1.25 6.4 -1.25 6.2 -1.3 5.9 -1.5 5.45 -2.3 4.25 -3.2 2.8 -3.2 2.9 -3.2 3.25 -3.2 3.3 -3.15 3.65 -3.55 3.55 -3.6 3.6 -3.65 3.05 -3.65 3.6 M0.8 -3.6 L0.5 -3.65 0.45 -3.65 0.35 -3.65 -0.05 -3.7 -0.1 -3.65 -0.2 -3.65 -0.25 -3.65 -0.6 -3.55 -0.65 -3.55 -0.75 -3.55 -0.85 -3.5 -1.7 -3.1 -1.95 -2.9 -2.0 -2.85 -2.1 -2.75 -2.1 -2.7 -2.25 -2.5 -2.65 -1.85 -2.7 -1.75 -2.8 -1.55 -2.8 -1.45 -2.85 -1.4 -2.95 -1.05 -3.0 -0.8 -3.05 -0.6 -3.1 -0.45 -3.15 -0.1 -3.15 -0.2 -3.15 0.15 -3.15 0.5 Q-3.25 1.8 -2.55 2.95 L-2.55 3.0 -2.35 3.4 -2.3 3.45 Q-1.5 4.35 -1.1 5.5 L-1.0 6.2 -1.05 6.2 -0.35 6.25 0.6 6.2 0.6 6.1 Q0.8 4.85 1.8 4.0 L2.8 2.65 3.4 0.65 3.4 0.5 3.35 0.2 3.35 0.15 3.35 0.1 3.35 -0.2 3.35 -0.35 3.35 -0.4 3.35 -0.6 3.35 -0.65 3.2 -1.5 3.15 -1.55 3.15 -1.6 3.1 -1.65 3.05 -1.8 2.55 -2.45 2.55 -2.5 2.2 -2.85 1.9 -3.05 1.85 -3.1 1.5 -3.3 1.45 -3.35 1.3 -3.4 0.8 -3.6 M4.5 1.1 L4.4 0.7 3.7 0.1 3.65 0.1 3.65 0.15 3.65 0.1 3.65 0.6 3.65 0.7 3.65 0.8 3.7 1.2 3.7 1.3 3.7 1.95 3.7 2.3 3.7 2.6 3.7 2.85 3.85 2.95 4.95 3.9 4.5 1.1 M-4.0 3.1 L-3.65 2.8 -3.65 2.5 -3.65 1.9 -3.65 0.9 -3.6 0.4 -3.6 0.1 -3.6 0.05 -3.65 0.1 -4.4 0.7 -4.5 1.25 -4.95 3.9 -4.0 3.1" fill="#000000" fill-rule="evenodd" stroke="none"/>
    <path d="M-0.25 -3.65 L-0.2 -3.65 -0.1 -3.65 -0.05 -3.7 0.35 -3.65 0.45 -3.65 0.5 -3.65 0.8 -3.6 0.8 -3.45 Q0.75 -3.05 1.3 -3.15 L1.4 -3.25 1.45 -3.35 1.5 -3.3 1.85 -3.1 1.9 -3.05 2.2 -2.85 2.55 -2.5 2.5 -2.5 2.45 -2.45 2.4 -2.4 2.35 -2.25 2.4 -2.15 2.45 -2.1 2.6 -2.1 2.65 -2.1 2.6 -2.35 2.7 -1.9 2.8 -1.55 Q3.1 -0.55 2.9 0.55 L2.45 1.85 2.15 2.3 2.1 2.3 2.1 2.35 2.0 2.45 1.9 2.45 1.2 2.8 -1.1 2.85 -1.3 2.7 -1.4 2.6 -1.5 2.65 -1.8 2.7 -1.95 2.7 -2.05 2.6 -2.05 2.5 -2.55 2.95 Q-3.25 1.8 -3.15 0.5 L-3.15 0.15 -3.15 -0.2 -3.15 -0.1 -3.1 -0.45 -3.05 -0.6 -3.0 -0.8 -2.95 -1.05 -3.0 -0.85 Q-2.6 -0.55 -2.4 -1.05 L-2.35 -1.1 Q-2.25 -1.5 -2.5 -1.65 L-2.7 -1.75 -2.65 -1.85 -2.25 -2.5 -2.1 -2.7 -1.95 -2.55 -1.8 -2.55 -1.75 -2.55 -1.6 -2.65 -1.55 -2.7 Q-1.45 -3.05 -1.7 -3.1 L-0.85 -3.5 -0.65 -3.2 -0.45 -3.2 -0.3 -3.35 Q-0.2 -3.5 -0.25 -3.65 M1.8 1.85 L1.8 1.9 1.85 1.95 1.9 1.9 1.8 1.85" fill="#996600" fill-rule="evenodd" stroke="none"/>
    <path d="M0.8 -3.6 L1.3 -3.4 1.45 -3.35 1.4 -3.25 1.3 -3.15 Q0.75 -3.05 0.8 -3.45 L0.8 -3.6 M2.55 -2.5 L2.55 -2.45 2.6 -2.35 2.65 -2.1 2.6 -2.1 2.45 -2.1 2.4 -2.15 2.35 -2.25 2.4 -2.4 2.45 -2.45 2.5 -2.5 2.55 -2.5 M-2.95 -1.05 L-2.85 -1.4 -2.8 -1.45 -2.8 -1.55 -2.7 -1.75 -2.5 -1.65 Q-2.25 -1.5 -2.35 -1.1 L-2.4 -1.05 Q-2.6 -0.55 -3.0 -0.85 L-2.95 -1.05 M-2.1 -2.7 L-2.1 -2.75 -2.0 -2.85 -1.95 -2.9 -1.7 -3.1 Q-1.45 -3.05 -1.55 -2.7 L-1.6 -2.65 -1.75 -2.55 -1.8 -2.55 -1.95 -2.55 -2.1 -2.7 M-0.85 -3.5 L-0.75 -3.55 -0.65 -3.55 -0.6 -3.55 -0.25 -3.65 Q-0.2 -3.5 -0.3 -3.35 L-0.45 -3.2 -0.65 -3.2 -0.85 -3.5" fill="#cc9900" fill-rule="evenodd" stroke="none"/>
    <path d="M2.4 -3.25 L2.25 -3.35 1.7 -3.7 1.5 -3.85 1.75 -3.7 2.15 -3.45 2.4 -3.25" fill="#99ffff" fill-rule="evenodd" stroke="none"/>
    <path d="M4.5 1.1 L4.95 3.9 3.85 2.95 Q4.1 2.0 4.5 1.1 M-4.5 1.25 L-4.4 0.7 -3.65 0.1 -3.6 0.05 -3.6 0.1 -3.6 0.4 -3.65 0.9 -3.65 1.9 -3.65 2.5 -3.65 2.8 -4.0 3.1 -4.05 2.8 -4.2 1.9 -4.5 1.25" fill="#9999ff" fill-rule="evenodd" stroke="none"/>
    <path d="M-4.5 1.25 L-4.2 1.9 -4.05 2.8 -4.0 3.1 -4.95 3.9 -4.5 1.25" fill="#99ccff" fill-rule="evenodd" stroke="none"/>
    <path d="M1.8 1.85 L1.9 1.9 1.85 1.95 1.8 1.9 1.8 1.85 M0.85 3.55 L0.8 3.55 0.8 3.5 0.85 3.45 0.85 3.55" fill="#cc0000" fill-rule="evenodd" stroke="none"/>
    <path d="M2.55 -2.45 L3.05 -1.8 3.1 -1.65 3.15 -1.6 3.15 -1.55 3.2 -1.5 3.35 -0.65 3.35 -0.6 3.35 -0.4 3.35 -0.35 3.35 -0.2 3.35 0.1 3.35 0.15 3.35 0.2 3.4 0.5 3.4 0.65 2.8 2.65 1.8 4.0 Q0.8 4.85 0.6 6.1 L0.6 6.2 -0.35 6.25 -1.05 6.2 -1.0 6.2 -1.1 5.5 Q-1.5 4.35 -2.3 3.45 L-2.35 3.4 -2.55 3.0 -2.55 2.95 -2.05 2.5 -2.05 2.6 -1.95 2.7 -1.8 2.7 -1.5 2.65 -1.4 2.6 -1.3 2.7 -1.1 2.85 1.2 2.8 1.9 2.45 2.0 2.45 2.1 2.35 2.1 2.3 2.15 2.3 2.45 1.85 2.9 0.55 Q3.1 -0.55 2.8 -1.55 L2.7 -1.9 2.6 -2.35 2.55 -2.45 M0.85 3.55 L0.85 3.45 0.8 3.5 0.8 3.55 0.85 3.55" fill="#663333" fill-rule="evenodd" stroke="none"/>
    <path d="M3.7 0.1 L4.4 0.7 4.5 1.1 Q4.1 2.0 3.85 2.95 L3.7 2.85 3.7 2.6 3.7 2.3 3.7 1.95 3.7 1.3 3.7 1.2 3.65 0.8 3.65 0.7 3.65 0.6 3.65 0.15 3.7 0.1" fill="#6666ff" fill-rule="evenodd" stroke="none"/>
    <path d="M-3.65 3.6 L-3.65 3.05 -3.6 3.6 -3.65 3.6" fill="#ad7a3f" fill-rule="evenodd" stroke="none"/>
    <path d="M3.65 0.15 L3.65 0.1 3.7 0.1 3.65 0.15" fill="#edcdb6" fill-rule="evenodd" stroke="none"/>
    <path d="M3.65 0.6 L3.65 0.1 3.65 0.15 3.65 0.6" fill="#e3b18b" fill-rule="evenodd" stroke="none"/>
    <path d="M-1.55 2.25 L-1.95 1.65 -2.1 1.4 Q-2.4 0.95 -2.3 0.45 L-2.2 0.3 -2.2 0.0 -2.0 -0.2 -1.3 -1.6 -1.25 -1.7 -1.1 -1.8 -0.15 -2.85 0.55 -2.35 0.5 -2.25 Q0.45 -1.45 0.9 -0.8 L0.8 -0.35 0.9 -0.1 0.65 -0.05 Q0.5 0.0 0.45 0.1 0.2 0.65 0.4 1.3 L0.2 1.4 Q-0.1 1.55 0.0 1.9 0.3 2.7 0.0 3.55 L-0.15 3.7 -0.25 3.8 Q-0.25 3.15 -0.8 3.1 L-1.1 2.65 -0.9 1.9 -0.7 1.35 Q-0.5 0.75 -1.1 0.75 L-1.3 0.95 -1.75 1.85 -1.55 2.25" fill="#ffcc00" fill-rule="evenodd" stroke="none"/>
    <path d="M-0.15 -3.5 Q0.35 -3.5 0.55 -3.05 L0.6 -3.0 Q1.4 -2.4 1.85 -1.45 L1.8 -1.05 1.85 -1.05 1.9 -0.85 1.95 -0.75 Q2.55 -0.15 2.55 0.7 L2.3 1.55 2.15 1.55 1.95 1.5 1.95 2.15 1.75 2.65 1.7 2.65 1.65 2.7 1.6 2.7 1.5 2.9 1.25 3.1 1.2 3.7 0.95 4.15 0.85 4.15 0.65 4.2 0.4 5.45 0.2 5.6 -0.1 5.25 -0.85 4.75 -1.3 4.15 -1.35 3.95 Q-1.55 3.45 -1.15 3.15 L-1.25 3.05 -1.45 2.85 Q-2.25 3.0 -2.25 2.2 L-2.15 1.65 -2.2 1.55 -2.2 1.35 -2.2 1.3 Q-2.95 1.3 -2.7 0.55 L-2.25 -0.25 -2.0 -0.45 -1.9 -0.85 Q-2.1 -1.3 -1.7 -1.7 L-1.2 -2.1 -1.45 -1.9 Q-1.7 -2.1 -1.45 -2.45 L-1.0 -2.85 -0.35 -3.15 -0.35 -3.25 -0.15 -3.5 M0.55 -2.35 L-0.15 -2.85 -1.1 -1.8 -1.25 -1.7 -1.3 -1.6 -2.0 -0.2 -2.2 0.0 -2.2 0.3 -2.3 0.45 Q-2.4 0.95 -2.1 1.4 L-1.95 1.65 -1.55 2.25 -1.55 2.3 -1.55 2.45 -1.5 2.45 -1.45 2.5 Q-1.25 2.55 -1.1 2.7 L-1.1 2.65 -0.8 3.1 -0.75 3.3 -0.75 3.35 -0.8 3.7 -0.8 3.95 -0.7 4.1 -0.75 4.1 -0.35 4.65 -0.05 4.95 0.0 5.0 0.65 3.8 1.8 1.2 1.95 0.65 1.9 0.05 1.25 -1.55 0.7 -2.25 0.55 -2.4 0.55 -2.35" fill="#000000" fill-rule="evenodd" stroke="none"/>
    <path d="M-1.55 2.25 L-1.75 1.85 -1.3 0.95 -1.1 0.75 Q-0.5 0.75 -0.7 1.35 L-0.9 1.9 -1.1 2.65 -1.1 2.7 Q-1.25 2.55 -1.45 2.5 L-1.5 2.45 -1.55 2.45 -1.55 2.3 -1.55 2.25 M-0.8 3.1 Q-0.25 3.15 -0.25 3.8 L-0.15 3.7 0.0 3.55 Q0.3 2.7 0.0 1.9 -0.1 1.55 0.2 1.4 L0.4 1.3 Q0.2 0.65 0.45 0.1 0.5 0.0 0.65 -0.05 L0.9 -0.1 0.8 -0.35 0.9 -0.8 Q0.45 -1.45 0.5 -2.25 L0.55 -2.35 0.55 -2.4 0.7 -2.25 1.25 -1.55 1.9 0.05 1.95 0.65 1.8 1.2 0.65 3.8 0.0 5.0 -0.05 4.95 -0.35 4.65 -0.75 4.1 -0.7 4.1 -0.8 3.95 -0.8 3.7 -0.75 3.35 -0.75 3.3 -0.8 3.1" fill="#cc6633" fill-rule="evenodd" stroke="none"/>
  </g>
</svg>
