<?xml version="1.0" encoding="UTF-8" standalone="no"?>
<svg xmlns:xlink="http://www.w3.org/1999/xlink" height="20.15px" width="23.3px" xmlns="http://www.w3.org/2000/svg">
  <g transform="matrix(1.0, 0.0, 0.0, 1.0, 11.5, 10.6)">
    <path d="M1.3 -2.65 L1.4 -2.7 1.35 -2.6 1.3 -2.65 M3.65 -0.6 L3.8 -0.2 3.65 -0.2 3.75 -0.35 3.65 -0.6 M-2.95 6.75 L-2.75 6.85 -2.7 7.15 -2.7 7.2 -2.95 6.75 M4.25 3.2 L4.1 3.55 4.0 3.8 4.25 3.2 M-2.5 -2.65 L-2.45 -2.75 -2.35 -2.7 -2.5 -2.65" fill="#990000" fill-rule="evenodd" stroke="none"/>
    <path d="M1.75 -8.65 L1.55 -8.4 1.6 -8.2 1.7 -7.95 1.75 -7.75 1.8 -7.55 1.85 -7.5 1.85 -7.45 1.9 -7.35 1.95 -7.15 2.0 -7.1 2.05 -7.05 2.05 -6.95 2.1 -6.95 2.15 -6.9 2.15 -6.8 2.2 -6.7 2.25 -6.55 2.3 -6.45 2.9 -7.05 Q3.6 -8.15 3.05 -9.35 L2.95 -9.55 2.45 -10.05 2.3 -10.2 2.05 -10.15 1.85 -10.05 1.65 -9.75 1.65 -9.5 1.85 -9.05 1.75 -8.65 M0.35 -9.65 L0.05 -9.85 -0.7 -9.95 Q-1.3 -9.7 -1.5 -9.05 L-1.55 -8.8 -1.1 -8.95 -0.9 -9.0 -0.8 -9.0 -0.1 -9.05 0.6 -9.0 0.35 -9.65 M2.15 -10.45 Q3.1 -10.25 3.4 -9.3 3.85 -7.85 3.1 -6.5 L2.65 -5.8 2.65 -5.75 2.65 -5.7 2.75 -5.5 2.75 -5.45 3.35 -4.2 3.5 -3.95 3.6 -3.85 3.6 -3.75 3.65 -3.6 4.0 -2.9 4.6 -1.75 4.75 -1.25 4.8 -0.95 4.9 -0.7 4.9 -0.55 4.95 0.3 4.95 1.35 4.8 3.1 Q4.55 4.65 3.8 6.05 3.35 6.95 2.5 7.5 L2.15 7.65 2.05 7.7 1.95 7.7 Q1.95 9.1 0.55 9.4 L-1.15 9.5 Q-1.4 9.5 -1.55 9.3 -2.25 8.5 -2.3 7.65 L-2.75 7.25 -3.4 6.75 -3.65 6.45 -4.05 5.9 -5.0 4.1 -5.1 3.75 -5.4 2.6 -5.5 2.05 -5.6 0.5 -5.6 0.2 -5.6 0.15 -5.5 -0.35 -5.45 -0.75 -5.45 -0.85 -5.05 -1.95 -4.55 -3.1 -4.25 -3.75 -3.9 -4.4 -3.8 -4.6 -3.7 -4.85 -3.25 -5.95 -3.2 -5.95 -3.65 -6.45 -3.9 -7.0 Q-4.5 -8.15 -4.15 -9.4 L-3.65 -10.35 -3.55 -10.4 -3.2 -10.6 Q-2.35 -10.55 -2.25 -9.7 L-1.9 -8.85 -1.75 -8.65 -1.7 -8.7 -1.7 -8.75 Q-1.9 -9.55 -1.3 -10.15 L-1.05 -10.3 -0.15 -10.35 -0.05 -10.35 Q0.3 -10.1 0.8 -10.05 1.1 -9.5 1.05 -8.8 L1.35 -8.6 1.4 -8.65 1.4 -9.15 1.4 -9.35 Q1.35 -10.05 1.9 -10.45 L1.95 -10.45 2.15 -10.45 M1.4 -7.75 L1.4 -7.8 1.35 -7.85 1.35 -7.9 1.3 -8.05 1.05 -8.3 -1.0 -8.4 -1.45 -8.3 -1.5 -8.25 -1.55 -8.15 -1.6 -8.15 -1.6 -8.05 -1.75 -7.95 -1.85 -7.85 -1.9 -7.7 -1.95 -7.7 -2.0 -7.65 -2.0 -7.35 -2.3 -6.45 -2.35 -6.35 -2.55 -6.15 -2.6 -6.1 -2.75 -5.85 -2.95 -5.55 -3.65 -4.0 -3.75 -3.9 -4.95 -0.65 -4.95 -0.45 -4.9 -0.4 -5.0 0.1 -5.2 0.5 -5.15 0.85 -5.15 0.8 -4.8 0.65 -4.35 0.35 -4.4 0.2 -3.8 -0.2 -1.45 -0.9 -1.4 -0.9 -1.4 -1.05 -1.3 -1.1 1.4 -0.75 1.4 -0.7 Q2.75 -0.5 3.85 0.3 L3.85 0.35 4.2 0.6 4.55 0.85 4.35 -0.2 4.3 -0.35 4.3 -0.5 3.8 -2.0 3.5 -2.9 Q2.85 -3.7 2.6 -4.7 L2.3 -5.55 2.25 -5.6 2.25 -5.65 2.2 -5.75 2.0 -6.35 1.95 -6.45 1.95 -6.5 1.9 -6.6 1.85 -6.75 1.75 -6.95 1.6 -7.3 1.55 -7.35 1.55 -7.45 1.4 -7.75 M2.9 0.55 L1.75 -0.2 0.05 -0.6 -0.35 -0.6 -2.05 -0.4 -2.75 -0.1 -2.8 -0.1 -4.3 1.0 -4.45 1.2 -4.8 1.65 -4.75 1.3 -4.85 1.7 -4.9 3.1 -4.8 3.4 -3.2 6.4 -2.95 6.75 -2.7 7.2 -2.55 7.4 -2.3 7.45 Q-2.3 6.7 -1.85 5.9 L-1.35 5.3 -1.2 5.15 -1.15 5.15 -0.95 5.05 Q-1.45 5.5 -1.5 6.2 L-1.55 6.65 -1.65 7.2 -1.65 7.3 Q-1.7 7.85 -1.4 8.25 L-0.75 8.75 Q0.25 9.25 0.9 8.45 L1.05 8.2 1.2 7.7 1.25 7.4 1.2 7.15 1.15 6.85 1.15 6.8 1.15 6.7 1.1 6.3 1.05 5.8 1.0 5.5 1.4 5.9 1.7 6.5 1.9 7.4 1.95 7.4 2.95 6.6 3.0 6.6 3.6 5.0 4.1 3.6 4.15 3.6 4.1 3.55 4.25 3.2 4.05 1.9 3.65 1.2 2.9 0.55 M4.25 3.2 L4.3 3.05 4.4 2.65 4.25 3.2 M-2.8 -10.2 L-3.15 -10.25 Q-3.8 -9.85 -3.9 -9.1 L-3.85 -7.8 -3.9 -7.75 -3.8 -7.3 -3.65 -7.05 -3.05 -6.3 -2.95 -6.45 -2.9 -6.55 -2.85 -6.55 -2.85 -6.6 -2.85 -6.55 -2.8 -6.6 -2.75 -6.6 -2.7 -6.75 -2.55 -7.1 -2.3 -7.65 -2.1 -8.2 -2.05 -8.2 -1.95 -8.4 Q-2.5 -8.8 -2.45 -9.5 -2.4 -10.05 -2.8 -10.2 M-3.6 0.2 L-3.55 0.2 -3.55 0.1 -3.65 0.15 -3.6 0.2" fill="#000000" fill-rule="evenodd" stroke="none"/>
    <path d="M4.3 -0.35 L4.35 -0.2 4.3 -0.35 M1.9 -1.2 L1.9 -1.15 1.8 -1.15 1.9 -1.2 M4.1 3.55 L4.15 3.6 4.1 3.6 3.6 5.0 3.85 4.3 4.0 3.8 4.1 3.55 M-3.0 -2.1 L-3.0 -2.05 -3.0 -2.1 M-3.6 0.2 L-3.65 0.15 -3.55 0.1 -3.55 0.2 -3.6 0.2 M-0.85 3.4 L-0.9 3.45 -0.85 3.4" fill="#cc0000" fill-rule="evenodd" stroke="none"/>
    <path d="M-2.35 -6.35 L-2.3 -6.45 -2.3 -6.35 -2.35 -6.35" fill="#660000" fill-rule="evenodd" stroke="none"/>
    <path d="M-2.75 -0.1 L-2.05 -0.4 -0.35 -0.6 0.05 -0.6 1.75 -0.2 2.9 0.55 2.6 1.1 2.1 2.35 2.05 2.3 2.15 2.75 2.05 2.35 1.8 2.8 0.25 4.35 Q0.85 4.6 1.15 5.3 L1.4 5.9 1.0 5.5 1.05 5.8 1.1 6.3 1.15 6.7 1.15 6.8 1.15 6.85 1.2 7.15 1.25 7.4 1.2 7.7 1.05 8.2 0.9 8.45 Q0.25 9.25 -0.75 8.75 L-1.4 8.25 -1.0 8.4 -0.6 8.3 -0.2 7.7 Q0.0 7.2 -0.25 6.85 L-0.6 6.55 -0.7 6.45 -0.8 6.45 -0.85 6.4 -1.0 6.35 Q-1.35 6.35 -1.55 6.65 L-1.5 6.2 Q-1.45 5.5 -0.95 5.05 L-1.15 5.15 -1.2 5.15 -1.35 5.3 -1.2 4.85 -2.0 4.9 Q-2.95 5.7 -2.65 6.95 L-2.4 7.4 -2.3 7.45 -2.55 7.4 -2.7 7.2 -2.7 7.15 -2.75 6.85 -2.95 6.75 -3.2 6.4 -4.8 3.4 -4.9 3.1 -4.85 1.7 -4.75 1.3 -4.8 1.65 -4.45 1.2 -4.7 2.55 Q-4.7 3.3 -4.0 3.4 L-3.55 3.35 Q-2.25 3.05 -1.45 1.95 -1.15 1.55 -1.2 1.1 -1.2 0.75 -1.45 0.5 -1.95 -0.15 -2.75 -0.1 M-0.85 3.4 L-0.9 3.45 -0.85 3.4" fill="#666666" fill-rule="evenodd" stroke="none"/>
    <path d="M-2.3 7.45 L-2.4 7.4 -2.65 6.95 Q-2.95 5.7 -2.0 4.9 L-1.2 4.85 -1.35 5.3 -1.85 5.9 Q-2.3 6.7 -2.3 7.45 M1.4 5.9 L1.15 5.3 Q0.85 4.6 0.25 4.35 L1.8 2.8 2.05 2.35 2.15 2.75 2.3 2.65 2.1 2.35 2.6 1.1 2.9 0.55 3.65 1.2 4.05 1.9 4.25 3.2 4.0 3.8 3.85 4.3 3.6 4.85 3.0 6.55 2.95 6.55 2.95 6.6 1.95 7.4 1.9 7.4 1.7 6.5 1.4 5.9" fill="#404040" fill-rule="evenodd" stroke="none"/>
    <path d="M-2.75 -0.1 Q-1.95 -0.15 -1.45 0.5 -1.2 0.75 -1.2 1.1 -1.15 1.55 -1.45 1.95 -2.25 3.05 -3.55 3.35 L-4.0 3.4 Q-4.7 3.3 -4.7 2.55 L-4.45 1.2 -4.3 1.0 -2.8 -0.1 -2.75 -0.1 M-1.55 6.65 Q-1.35 6.35 -1.0 6.35 L-0.85 6.4 -0.8 6.45 -0.7 6.45 -0.6 6.55 -0.25 6.85 Q0.0 7.2 -0.2 7.7 L-0.6 8.3 -1.0 8.4 -1.4 8.25 Q-1.7 7.85 -1.65 7.3 L-1.65 7.2 -1.55 6.65" fill="#999999" fill-rule="evenodd" stroke="none"/>
    <path d="M2.05 -10.15 L2.3 -10.2 2.45 -10.05 2.95 -9.55 3.05 -9.35 Q3.6 -8.15 2.9 -7.05 L2.3 -6.45 2.25 -6.55 2.2 -6.7 2.15 -6.8 2.15 -6.9 2.1 -6.95 2.05 -6.95 2.05 -7.05 2.0 -7.1 1.95 -7.15 1.9 -7.35 1.85 -7.45 1.85 -7.5 1.8 -7.55 1.75 -7.75 1.7 -7.95 1.6 -8.2 1.55 -8.4 1.75 -8.65 2.05 -8.2 2.15 -7.8 Q2.4 -7.65 2.75 -7.8 2.95 -8.5 2.75 -9.2 L2.35 -9.8 2.05 -10.15 M-1.0 -8.4 L-1.2 -7.6 -1.35 -7.55 -2.0 -7.35 -2.0 -7.65 -1.95 -7.7 -1.9 -7.7 -1.85 -7.85 -1.75 -7.95 -1.6 -8.05 -1.6 -8.15 -1.55 -8.15 -1.5 -8.25 -1.45 -8.3 -1.0 -8.4 M-0.4 -6.85 L-0.45 -6.55 -0.4 -6.55 -0.35 -6.55 -0.45 -6.35 -0.9 -4.85 Q-1.15 -3.75 -0.9 -2.65 L-1.25 -3.05 -1.25 -2.9 -1.7 -3.05 -1.7 -3.95 Q-1.65 -4.4 -1.9 -4.6 L-1.55 -6.3 -1.45 -6.45 -1.15 -6.45 -1.05 -6.45 -0.6 -6.8 -0.4 -6.85 M-2.8 -10.2 Q-2.4 -10.05 -2.45 -9.5 -2.5 -8.8 -1.95 -8.4 L-2.05 -8.2 -2.1 -8.2 -2.3 -7.65 -2.55 -7.1 -2.7 -6.75 -2.75 -6.6 -2.8 -6.6 -2.85 -6.55 -2.85 -6.6 -2.85 -6.55 -2.9 -6.55 -2.95 -6.45 -3.05 -6.3 -3.65 -7.05 -3.55 -7.1 -3.4 -7.2 Q-2.75 -7.65 -2.6 -8.35 L-2.65 -8.55 -2.9 -9.25 -2.8 -10.2" fill="#87875a" fill-rule="evenodd" stroke="none"/>
    <path d="M-1.2 -7.6 L0.05 -7.95 0.1 -8.0 1.35 -7.75 1.4 -7.75 1.55 -7.45 1.55 -7.35 1.6 -7.3 1.75 -6.95 1.85 -6.75 1.9 -6.6 1.95 -6.5 1.95 -6.45 2.0 -6.35 2.2 -5.75 2.2 -5.5 2.2 -5.4 Q2.15 -5.05 2.25 -4.65 L2.25 -4.3 2.1 -3.65 2.05 -3.35 2.95 -2.7 3.65 -2.0 3.5 -1.9 3.65 -2.0 3.8 -2.0 4.3 -0.5 4.3 -0.35 4.35 -0.2 4.55 0.85 4.2 0.6 3.85 0.35 3.85 0.3 3.8 -0.2 3.65 -0.6 3.55 -0.85 3.45 -1.1 2.75 -2.05 2.35 -2.45 2.2 -2.6 2.1 -2.65 1.85 -2.85 1.8 -2.85 1.4 -2.7 1.3 -2.65 1.2 -2.6 1.0 -2.55 1.1 -2.15 1.1 -2.1 1.15 -2.0 1.4 -0.7 1.4 -0.75 -1.3 -1.1 -1.4 -1.05 -1.55 -2.3 -1.8 -2.4 -1.85 -2.5 -2.0 -2.6 -2.25 -2.7 -2.3 -2.7 -2.35 -2.7 -2.45 -2.75 -2.5 -2.65 -3.0 -2.1 -3.0 -2.05 -3.05 -2.0 -3.05 -1.95 -4.4 -0.35 -4.4 -0.2 -4.4 0.1 -4.4 0.2 -4.35 0.35 -4.8 0.65 -5.15 0.8 -5.15 0.85 -5.2 0.5 -5.0 0.1 -4.9 -0.4 -4.8 -0.65 -4.75 -0.7 -4.7 -0.85 -4.55 -1.1 -3.4 -2.4 -3.15 -3.2 -2.9 -3.75 -2.45 -4.7 -2.4 -4.75 -2.25 -4.75 -1.9 -4.6 Q-1.65 -4.4 -1.7 -3.95 L-1.7 -3.05 -1.25 -2.9 -1.25 -3.05 -0.9 -2.65 -0.65 -2.5 -0.35 -2.4 -0.15 -2.4 -0.1 -2.4 0.15 -2.4 Q0.6 -2.55 0.95 -3.05 1.4 -3.7 1.4 -4.65 L1.4 -4.9 1.35 -5.3 1.2 -5.85 1.1 -6.05 0.95 -6.25 Q0.55 -6.85 0.0 -6.9 L-0.15 -6.9 -0.4 -6.85 -0.6 -6.8 -1.05 -6.45 -1.15 -6.45 -1.75 -6.45 -2.15 -6.4 -2.3 -6.35 -2.3 -6.45 -2.0 -7.35 -1.35 -7.55 -1.2 -7.6 M4.25 3.2 L4.4 2.65 4.3 3.05 4.25 3.2 M3.6 5.0 L3.0 6.6 2.95 6.6 2.95 6.55 3.0 6.55 3.6 4.85 3.85 4.3 3.6 5.0" fill="#43432e" fill-rule="evenodd" stroke="none"/>
    <path d="M-1.0 -8.4 L1.05 -8.3 1.3 -8.05 1.35 -7.9 1.35 -7.85 1.4 -7.8 1.4 -7.75 1.35 -7.75 0.1 -8.0 0.05 -7.95 -1.2 -7.6 -1.0 -8.4 M2.2 -5.75 L2.25 -5.65 2.25 -5.6 2.3 -5.55 2.6 -4.7 Q2.85 -3.7 3.5 -2.9 L3.8 -2.0 3.65 -2.0 3.5 -1.9 3.65 -2.0 2.95 -2.7 2.05 -3.35 2.1 -3.65 2.25 -4.3 2.25 -4.65 Q2.15 -5.05 2.2 -5.4 L2.2 -5.5 2.2 -5.75 M3.85 0.3 Q2.75 -0.5 1.4 -0.7 L1.15 -2.0 1.1 -2.1 1.1 -2.15 1.0 -2.55 1.2 -2.6 1.3 -2.65 1.35 -2.6 1.4 -2.7 1.8 -2.85 1.85 -2.85 2.1 -2.65 2.2 -2.6 2.35 -2.45 2.75 -2.05 3.45 -1.1 3.55 -0.85 3.65 -0.6 3.75 -0.35 3.65 -0.2 3.8 -0.2 3.85 0.3 M-1.4 -1.05 L-1.4 -0.9 -1.45 -0.9 -3.8 -0.2 -4.4 0.2 -4.4 0.1 -4.4 -0.2 -4.4 -0.35 -3.05 -1.95 -3.05 -2.0 -3.0 -2.05 -3.0 -2.1 -2.5 -2.65 -2.35 -2.7 -2.3 -2.7 -2.25 -2.7 -2.0 -2.6 -1.85 -2.5 -1.8 -2.4 -1.55 -2.3 -1.4 -1.05 M-4.9 -0.4 L-4.95 -0.45 -4.95 -0.65 -3.75 -3.9 -3.65 -4.0 -2.95 -5.55 -2.75 -5.85 -2.6 -6.1 -2.55 -6.15 -2.35 -6.35 -2.3 -6.35 -2.15 -6.4 -1.75 -6.45 -1.15 -6.45 -1.45 -6.45 -1.55 -6.3 -1.9 -4.6 -2.25 -4.75 -2.4 -4.75 -2.45 -4.7 -2.9 -3.75 -3.15 -3.2 -3.4 -2.4 -4.55 -1.1 -4.7 -0.85 -4.75 -0.7 -4.8 -0.65 -4.9 -0.4 M-0.4 -6.85 L-0.15 -6.9 0.0 -6.9 Q0.55 -6.85 0.95 -6.25 L1.1 -6.05 1.2 -5.85 1.35 -5.3 1.4 -4.9 1.4 -4.65 Q1.4 -3.7 0.95 -3.05 0.6 -2.55 0.15 -2.4 L-0.1 -2.4 -0.15 -2.4 -0.35 -2.4 -0.65 -2.5 -0.9 -2.65 Q-1.15 -3.75 -0.9 -4.85 L-0.45 -6.35 -0.35 -6.55 -0.4 -6.55 -0.45 -6.55 -0.4 -6.85 M1.9 -1.2 L1.8 -1.15 1.9 -1.15 1.9 -1.2 M2.15 2.75 L2.05 2.3 2.1 2.35 2.3 2.65 2.15 2.75" fill="#6b6942" fill-rule="evenodd" stroke="none"/>
    <path d="M0.35 -9.65 L0.6 -9.0 -0.1 -9.05 -0.8 -9.0 -0.9 -9.0 -1.1 -8.95 -1.55 -8.8 -1.5 -9.05 Q-1.3 -9.7 -0.7 -9.95 L0.05 -9.85 0.35 -9.65" fill="#993300" fill-rule="evenodd" stroke="none"/>
    <path d="M1.75 -8.65 L1.85 -9.05 1.65 -9.5 1.65 -9.75 1.85 -10.05 2.05 -10.15 2.35 -9.8 2.75 -9.2 Q2.95 -8.5 2.75 -7.8 2.4 -7.65 2.15 -7.8 L2.05 -8.2 1.75 -8.65 M-3.65 -7.05 L-3.8 -7.3 -3.9 -7.75 -3.85 -7.8 -3.9 -9.1 Q-3.8 -9.85 -3.15 -10.25 L-2.8 -10.2 -2.9 -9.25 -2.65 -8.55 -2.6 -8.35 Q-2.75 -7.65 -3.4 -7.2 L-3.55 -7.1 -3.65 -7.05" fill="#d1db8a" fill-rule="evenodd" stroke="none"/>
    <path d="M9.7 1.8 Q9.55 2.15 9.85 2.45 L9.9 2.45 10.15 2.65 Q10.75 2.95 11.3 2.65 L11.5 3.15 11.15 2.95 Q9.25 2.95 9.05 4.4 L9.1 4.65 9.0 4.35 8.9 4.9 7.45 5.85 Q6.1 6.55 4.65 6.85 L3.65 6.95 2.7 7.0 2.65 6.8 2.65 6.75 Q2.65 6.25 3.05 6.05 L3.1 6.0 3.1 5.95 4.0 3.95 4.1 3.9 4.6 3.8 5.0 3.85 7.4 3.9 8.3 3.65 8.6 3.55 8.6 3.5 8.55 3.05 8.55 2.9 Q8.75 1.85 9.7 1.8 M-9.4 1.8 Q-8.45 1.85 -8.25 2.9 L-8.2 3.05 -8.25 3.5 -8.3 3.55 -8.0 3.65 -7.1 3.9 -4.7 3.85 -4.3 3.8 -4.25 3.8 -3.8 3.9 -3.65 3.95 -2.75 5.95 -2.8 6.0 -2.7 6.05 Q-2.35 6.25 -2.35 6.75 L-2.35 6.8 -2.35 7.0 -3.35 6.95 -4.35 6.85 Q-5.8 6.55 -7.15 5.85 L-8.6 4.9 -8.7 4.35 -8.8 4.65 -8.7 4.4 Q-8.95 2.95 -10.85 2.95 L-11.15 3.15 -10.95 2.65 Q-10.45 2.95 -9.85 2.65 L-9.6 2.45 -9.55 2.45 Q-9.25 2.15 -9.4 1.8" fill="#666666" fill-rule="evenodd" stroke="none"/>
    <path d="M11.3 2.65 L10.55 2.05 10.1 1.8 10.0 1.8 9.7 1.8 Q8.75 1.85 8.55 2.9 L8.55 3.05 8.6 3.5 8.6 3.55 8.3 3.65 7.4 3.9 5.0 3.85 4.6 3.8 6.0 3.6 7.7 3.3 8.05 3.2 Q7.85 2.85 8.1 2.4 8.7 1.3 10.05 1.55 10.9 1.75 11.4 2.5 L11.75 3.2 Q12.0 4.55 10.75 5.2 L10.5 5.4 9.4 5.45 9.3 5.5 8.65 6.0 Q6.05 7.65 2.9 7.35 L2.7 7.0 3.65 6.95 4.65 6.85 Q6.1 6.55 7.45 5.85 L8.9 4.9 9.0 4.35 9.1 4.65 9.15 4.7 Q9.35 4.95 9.75 5.0 L10.25 4.95 Q11.5 4.7 11.5 3.45 L11.5 3.15 11.3 2.65 M-4.3 3.8 L-4.7 3.85 -7.1 3.9 -8.0 3.65 -8.3 3.55 -8.25 3.5 -8.2 3.05 -8.25 2.9 Q-8.45 1.85 -9.4 1.8 L-9.7 1.8 -9.8 1.8 -10.25 2.05 Q-10.75 2.3 -10.95 2.65 L-11.15 3.15 -11.2 3.45 Q-11.2 4.7 -9.95 4.95 L-9.45 5.0 Q-9.05 4.95 -8.85 4.7 L-8.8 4.65 -8.7 4.35 -8.6 4.9 -7.15 5.85 Q-5.8 6.55 -4.35 6.85 L-3.35 6.95 -2.35 7.0 -2.6 7.35 Q-5.75 7.65 -8.35 6.0 L-9.0 5.5 -9.05 5.45 -10.2 5.4 -10.45 5.2 Q-11.7 4.55 -11.45 3.2 L-11.1 2.5 Q-10.6 1.75 -9.75 1.55 -8.4 1.3 -7.8 2.4 -7.55 2.85 -7.7 3.2 L-7.4 3.3 -5.7 3.6 -4.3 3.8" fill="#000000" fill-rule="evenodd" stroke="none"/>
    <path d="M11.5 3.15 L11.5 3.45 Q11.5 4.7 10.25 4.95 L9.75 5.0 Q9.35 4.95 9.15 4.7 L9.1 4.65 9.05 4.4 Q9.25 2.95 11.15 2.95 L11.5 3.15 M-11.15 3.15 L-10.85 2.95 Q-8.95 2.95 -8.7 4.4 L-8.8 4.65 -8.85 4.7 Q-9.05 4.95 -9.45 5.0 L-9.95 4.95 Q-11.2 4.7 -11.2 3.45 L-11.15 3.15" fill="#404040" fill-rule="evenodd" stroke="none"/>
    <path d="M9.7 1.8 L10.0 1.8 10.1 1.8 10.55 2.05 11.3 2.65 Q10.75 2.95 10.15 2.65 L9.9 2.45 9.85 2.45 Q9.55 2.15 9.7 1.8 M-9.4 1.8 Q-9.25 2.15 -9.55 2.45 L-9.6 2.45 -9.85 2.65 Q-10.45 2.95 -10.95 2.65 -10.75 2.3 -10.25 2.05 L-9.8 1.8 -9.7 1.8 -9.4 1.8" fill="#999999" fill-rule="evenodd" stroke="none"/>
    <path d="M-6.0 -2.1 L-6.3 -1.5 -6.05 -1.3 -5.65 -1.3 -4.95 -1.85 -4.05 -2.85 Q-3.85 -3.05 -3.8 -3.3 -2.8 -3.2 -2.35 -2.15 -2.05 -1.5 -2.3 -0.8 L-2.3 -0.75 -2.4 -0.55 -2.85 0.25 -3.25 -0.5 Q-4.05 -1.3 -5.2 -1.1 -5.9 -0.95 -6.4 -0.4 L-6.45 -0.3 -6.35 -1.4 -6.0 -2.1" fill="#666666" fill-rule="evenodd" stroke="none"/>
    <path d="M-3.8 -3.3 L-3.85 -3.3 -4.25 -3.3 -5.4 -2.75 -5.5 -2.65 -5.6 -2.6 -6.0 -2.1 -6.35 -1.4 -6.45 -0.3 -6.35 0.3 -6.2 0.65 -6.2 0.7 -6.1 0.9 -5.15 1.55 -5.35 1.75 -5.7 1.75 -6.6 0.85 Q-7.3 -0.25 -6.8 -1.45 -6.35 -2.6 -5.3 -3.25 L-4.25 -3.6 Q-3.75 -3.65 -3.55 -3.35 L-2.8 -3.15 Q-1.95 -2.75 -1.65 -1.95 -1.4 -1.35 -1.5 -0.7 -1.6 -0.15 -2.2 -0.35 L-2.4 -0.55 -2.3 -0.75 -2.3 -0.8 Q-2.05 -1.5 -2.35 -2.15 -2.8 -3.2 -3.8 -3.3" fill="#000000" fill-rule="evenodd" stroke="none"/>
    <path d="M-5.15 1.55 L-6.1 0.9 -6.2 0.7 -6.2 0.65 -6.35 0.3 -6.45 -0.3 -6.4 -0.4 Q-5.9 -0.95 -5.2 -1.1 -4.05 -1.3 -3.25 -0.5 L-2.85 0.25 -2.85 0.3 -3.4 0.85 -4.1 1.35 -4.3 1.45 -5.15 1.55" fill="#404040" fill-rule="evenodd" stroke="none"/>
    <path d="M-6.0 -2.1 L-5.6 -2.6 -5.5 -2.65 -5.4 -2.75 -4.25 -3.3 -3.85 -3.3 -3.8 -3.3 Q-3.85 -3.05 -4.05 -2.85 L-4.95 -1.85 -5.65 -1.3 -6.05 -1.3 -6.3 -1.5 -6.0 -2.1" fill="#999999" fill-rule="evenodd" stroke="none"/>
    <path d="M1.25 -2.85 Q1.9 -2.8 2.05 -2.15 L2.1 -1.85 Q2.0 -1.2 1.35 -1.45 L1.05 -1.7 0.9 -2.2 Q0.85 -2.65 1.25 -2.85 M-1.25 -8.05 L-0.95 -8.45 -0.75 -8.45 Q-0.3 -8.0 -0.85 -7.65 L-1.05 -7.65 -1.25 -8.05 M-1.4 -4.3 Q-1.6 -5.0 -1.2 -5.7 L-0.7 -6.15 Q0.05 -6.3 0.25 -5.6 0.65 -4.4 -0.3 -3.6 -1.15 -3.45 -1.4 -4.3 M-2.35 -5.2 Q-2.5 -4.75 -2.9 -4.55 L-3.25 -4.5 -3.4 -4.7 Q-3.5 -5.35 -3.05 -5.9 L-2.6 -6.15 Q-2.0 -6.0 -2.3 -5.4 L-2.35 -5.2" fill="#999900" fill-rule="evenodd" stroke="none"/>
  </g>
</svg>
