<?xml version="1.0" encoding="UTF-8" standalone="no"?>
<svg xmlns:xlink="http://www.w3.org/1999/xlink" height="33.25px" width="14.05px" xmlns="http://www.w3.org/2000/svg">
  <g transform="matrix(1.0, 0.0, 0.0, 1.0, 6.0, 16.45)">
    <path d="M2.45 -5.75 L2.3 -5.75 Q1.9 -6.25 2.0 -7.0 L2.0 -7.75 1.8 -9.9 1.75 -10.35 1.75 -10.4 1.45 -13.3 1.45 -13.6 1.45 -13.75 1.5 -14.2 Q1.6 -15.0 2.05 -15.65 2.65 -16.45 3.7 -16.45 4.75 -16.45 5.6 -15.75 6.35 -15.1 6.65 -14.05 L6.8 -13.75 7.2 -12.2 7.4 -11.0 7.4 -10.8 7.45 -10.45 7.55 -9.85 7.65 -9.1 8.0 -6.15 8.05 -5.8 Q8.05 -5.25 7.7 -4.9 7.85 -6.4 7.5 -7.95 L7.35 -8.4 Q6.95 -10.05 6.9 -11.75 6.65 -15.25 3.8 -16.15 1.8 -15.5 1.95 -13.25 L2.05 -11.8 2.15 -10.5 2.2 -9.75 2.45 -5.75 M-0.6 3.3 Q-0.25 3.8 -0.2 4.55 L-0.15 4.7 -0.05 5.15 0.0 6.85 -0.15 8.15 -0.15 8.2 0.0 8.5 0.9 11.25 1.0 12.0 0.9 13.45 0.8 14.55 Q0.45 15.8 -0.7 16.5 L-0.85 16.65 -1.15 16.75 -2.5 16.8 -2.85 16.75 -3.1 16.6 -3.15 16.6 -3.4 16.45 -3.45 16.45 -3.6 16.3 -4.4 15.5 -4.45 15.4 -4.65 14.9 -5.1 13.95 -5.6 11.9 -5.65 11.5 -5.8 8.85 -5.85 8.25 -6.0 6.15 -5.95 3.2 -5.95 2.8 Q-5.9 2.1 -5.3 2.05 L-5.25 2.05 -5.25 2.2 Q-5.75 5.6 -5.3 9.2 L-5.1 10.6 -4.65 13.15 -4.45 13.95 -3.65 15.6 Q-2.6 16.8 -0.35 15.65 L-0.15 15.35 -0.05 15.15 0.25 14.25 Q0.7 12.6 0.3 10.7 L0.15 9.75 -0.2 8.95 -0.4 8.15 -0.45 7.75 -0.55 5.5 -0.55 4.0 -0.6 3.7 -0.6 3.3 M-0.8 8.6 L-0.85 8.7 -1.0 8.95 -1.35 9.2 -3.35 9.45 -3.65 9.35 -4.45 8.5 -4.5 8.35 Q-4.4 7.85 -3.9 8.2 L-3.2 8.5 -3.05 8.55 -1.05 8.65 -0.85 8.6 -0.8 8.6" fill="#000000" fill-rule="evenodd" stroke="none"/>
    <path d="M-3.6 0.65 L-3.6 0.6 -3.55 0.6 -3.6 0.65" fill="#6666cc" fill-rule="evenodd" stroke="none"/>
    <path d="M2.45 -5.75 L2.2 -9.75 2.15 -10.5 2.05 -11.8 1.95 -13.25 Q1.8 -15.5 3.8 -16.15 6.65 -15.25 6.9 -11.75 6.95 -10.05 7.35 -8.4 L7.5 -7.95 Q7.85 -6.4 7.7 -4.9 7.55 -3.5 6.9 -2.2 6.55 -1.5 5.7 -1.55 2.8 -1.7 2.55 -4.75 L2.45 -5.75 M-0.6 3.3 L-0.6 3.7 -0.55 4.0 -0.55 5.5 -0.45 7.75 -0.4 8.15 -0.2 8.95 0.15 9.75 0.3 10.7 Q0.7 12.6 0.25 14.25 L-0.05 15.15 -0.15 15.35 -0.35 15.65 Q-2.6 16.8 -3.65 15.6 L-4.45 13.95 -4.65 13.15 -5.1 10.6 -5.3 9.2 Q-5.75 5.6 -5.25 2.2 L-5.25 2.05 -5.2 1.65 -5.0 1.15 Q-4.4 0.65 -3.6 0.65 L-3.55 0.6 Q-1.35 1.05 -0.6 3.1 L-0.6 3.3 M-0.8 8.6 L-0.85 8.6 -1.05 8.65 -3.05 8.55 -3.2 8.5 -3.9 8.2 Q-4.4 7.85 -4.5 8.35 L-4.45 8.5 -3.65 9.35 -3.35 9.45 -1.35 9.2 -1.0 8.95 -0.85 8.7 -0.8 8.6" fill="#999999" fill-rule="evenodd" stroke="none"/>
  </g>
</svg>
