<?xml version="1.0" encoding="UTF-8" standalone="no"?>
<svg xmlns:xlink="http://www.w3.org/1999/xlink" height="27.7px" width="30.95px" xmlns="http://www.w3.org/2000/svg">
  <g transform="matrix(1.0, 0.0, 0.0, 1.0, 15.2, 14.0)">
    <path d="M-9.1 -13.4 L-9.1 -13.45 Q-10.95 -13.15 -12.1 -11.5 L-12.8 -10.3 -13.35 -9.3 -13.9 -7.75 -14.6 -4.25 Q-14.95 -2.7 -14.65 -1.2 -14.45 -0.05 -13.8 0.65 L-12.75 1.7 -11.2 1.7 -11.05 1.9 -12.15 2.3 -12.3 2.25 -13.1 2.0 -13.8 1.3 Q-14.95 -0.25 -15.15 -2.4 L-15.1 -4.85 Q-14.8 -7.4 -13.65 -9.75 L-12.5 -11.75 -11.5 -12.8 -10.35 -13.55 -9.55 -14.0 -9.05 -13.95 -8.6 -13.8 -8.55 -13.7 -8.5 -13.5 Q-8.45 -12.9 -8.95 -12.45 L-9.4 -11.8 -10.0 -10.4 -10.0 -10.05 -9.7 -10.0 -9.25 -10.35 -8.7 -10.75 -8.5 -10.65 -8.3 -10.25 -8.2 -10.0 -8.2 -9.65 -8.25 -9.4 -8.85 -8.9 -9.1 -8.55 -10.4 -7.0 -10.65 -6.35 -10.6 -6.3 -10.55 -5.95 -10.45 -5.35 -10.45 -5.15 -10.3 -4.8 -10.15 -4.6 -10.15 -4.55 -10.1 -4.45 -9.5 -3.15 -9.35 -2.95 -9.05 -2.3 -9.1 -2.3 -9.2 -2.4 -9.35 -2.55 -10.2 -3.6 -10.6 -4.4 -10.95 -5.75 Q-11.0 -6.5 -10.7 -7.1 L-10.55 -7.95 -10.45 -8.05 -9.4 -8.55 -9.15 -8.95 -8.8 -9.2 -8.75 -10.15 Q-9.45 -9.5 -10.45 -9.55 -11.1 -11.1 -9.9 -12.35 L-9.1 -13.4 M13.8 2.7 L13.75 2.55 Q13.6 2.25 13.75 2.05 L14.6 2.3 14.75 2.5 Q15.45 3.85 15.65 5.3 L15.75 6.0 Q15.8 7.5 15.25 8.9 L15.15 9.35 14.2 11.75 12.95 13.2 12.65 13.4 11.75 13.7 10.35 13.4 10.3 13.05 10.4 12.5 10.75 11.95 11.1 11.3 11.2 11.0 11.1 11.05 10.15 11.25 9.9 11.0 9.85 10.85 10.3 10.3 10.6 9.95 11.1 9.4 11.2 9.1 11.3 8.6 11.2 7.5 10.75 6.55 9.95 5.2 10.25 3.6 10.5 3.2 10.5 3.25 Q10.35 3.6 10.55 4.05 L10.6 4.05 10.65 4.2 10.6 4.35 10.45 4.65 10.4 4.8 11.45 6.5 Q11.8 7.35 11.75 8.3 11.7 9.05 11.3 9.65 L10.35 10.55 10.6 10.2 10.15 10.75 10.45 10.7 10.8 10.65 11.55 10.35 11.75 10.9 Q11.7 11.6 11.25 12.2 L10.75 13.25 12.45 13.2 13.85 11.35 14.45 10.25 Q15.4 8.15 15.2 5.75 L15.15 5.0 15.0 4.1 14.8 3.75 14.3 3.2 13.8 2.7" fill="#000000" fill-rule="evenodd" stroke="none"/>
    <path d="M-9.1 -13.4 L-9.1 -13.45 -9.1 -13.4" fill="#6666cc" fill-rule="evenodd" stroke="none"/>
    <path d="M-9.1 -13.45 L-9.1 -13.4 -9.9 -12.35 Q-11.1 -11.1 -10.45 -9.55 -9.45 -9.5 -8.75 -10.15 L-8.8 -9.2 -9.15 -8.95 -9.4 -8.55 -10.45 -8.05 -10.55 -7.95 -10.7 -7.1 Q-11.0 -6.5 -10.95 -5.75 L-10.6 -4.4 -10.2 -3.6 -9.35 -2.55 -9.2 -2.4 -9.1 -2.3 -8.9 -1.8 -9.1 -0.65 Q-9.25 0.2 -9.65 0.75 -10.15 1.55 -11.2 1.7 L-12.75 1.7 -13.8 0.65 Q-14.45 -0.05 -14.65 -1.2 -14.95 -2.7 -14.6 -4.25 L-13.9 -7.75 -13.35 -9.3 -12.8 -10.3 -12.1 -11.5 Q-10.95 -13.15 -9.1 -13.45 M10.5 3.25 L10.65 3.0 Q10.95 2.7 11.4 2.6 L11.55 2.55 13.2 2.2 13.3 2.25 13.8 2.7 14.3 3.2 14.8 3.75 15.0 4.1 15.15 5.0 15.2 5.75 Q15.4 8.15 14.45 10.25 L13.85 11.35 12.45 13.2 10.75 13.25 11.25 12.2 Q11.7 11.6 11.75 10.9 L11.55 10.35 10.8 10.65 10.45 10.7 10.15 10.75 10.6 10.2 10.35 10.55 11.3 9.65 Q11.7 9.05 11.75 8.3 11.8 7.35 11.45 6.5 L10.4 4.8 10.45 4.65 10.6 4.35 10.65 4.2 10.6 4.05 10.55 4.05 Q10.35 3.6 10.5 3.25" fill="#999999" fill-rule="evenodd" stroke="none"/>
  </g>
</svg>
