<?xml version="1.0" encoding="UTF-8" standalone="no"?>
<svg xmlns:xlink="http://www.w3.org/1999/xlink" height="26.5px" width="30.6px" xmlns="http://www.w3.org/2000/svg">
  <g transform="matrix(1.0, 0.0, 0.0, 1.0, 15.7, 14.0)">
    <path d="M8.55 -7.9 L8.75 -7.75 8.8 -7.7 8.8 -7.55 9.35 -6.65 9.75 -6.0 9.9 -5.35 10.45 -3.1 10.8 -2.5 10.55 -2.8 10.6 -1.6 10.75 1.05 10.9 2.55 10.95 2.65 10.8 3.85 10.65 5.9 10.55 7.2 10.95 7.95 12.1 8.8 Q14.05 7.3 14.25 4.7 14.4 2.15 13.9 -0.55 L12.75 -4.7 11.1 -7.8 11.2 -9.05 11.2 -9.1 11.5 -9.65 11.65 -10.05 11.65 -10.25 11.7 -10.4 11.6 -10.7 11.5 -10.85 11.35 -10.85 11.25 -10.85 11.1 -10.7 10.95 -10.5 10.85 -10.55 10.85 -10.75 10.85 -11.4 10.85 -12.0 Q11.05 -12.95 10.45 -13.55 L10.05 -13.55 10.0 -13.5 9.95 -13.5 9.9 -13.4 9.7 -12.7 Q9.6 -11.6 9.15 -10.6 L9.15 -10.5 8.95 -10.1 8.85 -10.0 8.8 -10.15 8.65 -10.15 8.45 -10.3 8.15 -10.65 7.7 -11.5 7.65 -11.5 7.5 -11.55 7.4 -11.45 7.2 -11.15 7.15 -11.1 Q6.95 -10.65 7.3 -10.05 L7.45 -9.8 7.55 -9.65 Q7.7 -9.0 8.1 -8.5 L8.2 -8.3 8.55 -7.95 8.6 -7.9 8.4 -8.05 8.55 -7.9 M10.05 -13.9 L10.1 -14.0 Q10.9 -14.0 11.1 -13.15 L11.35 -11.35 11.45 -11.5 11.65 -11.55 11.7 -11.65 11.95 -11.4 Q11.9 -11.25 12.0 -11.15 L12.1 -10.95 12.25 -10.6 11.65 -9.05 11.55 -8.7 11.45 -8.35 11.85 -7.75 12.5 -6.45 Q15.25 -1.65 14.85 4.1 14.65 7.1 12.6 9.15 L12.05 8.9 11.9 8.9 11.35 9.05 11.0 8.85 10.2 8.3 Q9.7 7.75 9.65 6.9 L9.65 4.7 9.8 4.45 9.95 3.9 Q10.35 1.75 10.35 -0.5 L10.35 -0.8 10.3 -1.15 10.05 -2.4 9.8 -3.25 Q9.3 -5.05 8.95 -6.9 L8.6 -7.2 7.55 -8.55 7.45 -8.7 Q6.9 -9.6 6.85 -10.6 L6.75 -11.3 7.65 -12.15 7.75 -12.05 8.05 -11.65 8.4 -10.85 8.6 -10.6 9.5 -13.1 10.05 -13.9 M-15.6 8.8 L-15.65 8.5 Q-15.8 7.0 -15.45 5.55 L-15.1 4.55 -14.15 3.3 -13.75 2.95 -13.7 2.9 -13.35 2.8 -13.3 2.75 -13.0 2.75 -13.0 2.7 -12.85 2.75 -12.8 2.75 -12.7 2.85 -12.65 2.9 -12.65 2.95 -12.55 3.05 -12.55 3.5 -12.6 6.3 Q-12.45 7.8 -11.7 9.1 L-11.4 9.85 -11.2 10.5 -11.2 10.65 Q-11.15 11.5 -11.6 12.15 L-11.7 12.25 -13.45 12.1 -14.8 10.65 -15.2 9.95 -15.25 9.8 -15.6 8.55 -15.6 8.8 M-12.9 3.45 L-12.85 3.2 -12.85 3.1 -13.4 3.15 -13.6 3.25 -13.85 3.45 -14.2 4.05 -15.05 5.8 Q-15.35 6.9 -15.25 8.1 L-15.2 8.45 -15.1 8.6 -15.1 8.65 -15.15 8.65 -15.15 8.7 -15.15 8.9 -15.15 8.95 -15.1 9.0 -15.1 9.05 -14.9 9.45 -14.9 9.55 Q-14.25 10.95 -12.95 11.8 L-12.5 11.85 -12.1 11.7 Q-11.7 10.7 -12.0 9.65 L-12.45 8.25 -13.1 5.4 -13.1 4.45 -13.15 4.4 -12.95 3.65 -12.9 3.45" fill="#000000" fill-rule="evenodd" stroke="none"/>
    <path d="M8.6 -7.9 L8.55 -7.9 8.4 -8.05 8.6 -7.9" fill="#3399cc" fill-rule="evenodd" stroke="none"/>
    <path d="M-15.6 8.8 L-15.6 8.55 -15.25 9.8 -15.6 8.85 -15.6 8.8" fill="#4581e0" fill-rule="evenodd" stroke="none"/>
    <path d="M8.6 -7.9 L8.55 -7.95 8.2 -8.3 8.1 -8.5 Q7.7 -9.0 7.55 -9.65 L7.45 -9.8 7.3 -10.05 Q6.95 -10.65 7.15 -11.1 L7.2 -11.15 7.4 -11.45 7.5 -11.55 7.65 -11.5 7.7 -11.5 8.15 -10.65 8.45 -10.3 8.65 -10.15 8.8 -10.15 8.85 -10.0 8.95 -10.1 9.15 -10.5 9.15 -10.6 Q9.6 -11.6 9.7 -12.7 L9.9 -13.4 9.95 -13.5 10.0 -13.5 10.05 -13.55 10.45 -13.55 Q11.05 -12.95 10.85 -12.0 L10.85 -11.4 10.85 -10.75 10.85 -10.55 10.95 -10.5 11.1 -10.7 11.25 -10.85 11.35 -10.85 11.5 -10.85 11.6 -10.7 11.7 -10.4 11.65 -10.25 11.65 -10.05 11.5 -9.65 11.2 -9.1 11.2 -9.05 11.1 -7.8 12.75 -4.7 13.9 -0.55 Q14.4 2.15 14.25 4.7 14.05 7.3 12.1 8.8 L10.95 7.95 10.55 7.2 10.65 5.9 10.8 3.85 10.95 2.65 10.9 2.55 10.75 1.05 10.6 -1.6 10.55 -2.8 10.8 -2.5 10.45 -3.1 9.9 -5.35 9.75 -6.0 9.35 -6.65 8.8 -7.55 8.8 -7.7 8.75 -7.75 8.55 -7.9 8.6 -7.9 M-12.9 3.45 L-12.95 3.65 -13.15 4.4 -13.1 4.45 -13.1 5.4 -12.45 8.25 -12.0 9.65 Q-11.7 10.7 -12.1 11.7 L-12.5 11.85 -12.95 11.8 Q-14.25 10.95 -14.9 9.55 L-14.9 9.45 -15.1 9.05 -15.1 9.0 -15.15 8.95 -15.15 8.9 -15.15 8.7 -15.15 8.65 -15.1 8.65 -15.1 8.6 -15.2 8.45 -15.25 8.1 Q-15.35 6.9 -15.05 5.8 L-14.2 4.05 -13.85 3.45 -13.6 3.25 -13.4 3.15 -12.85 3.1 -12.85 3.2 -12.9 3.45" fill="#999999" fill-rule="evenodd" stroke="none"/>
  </g>
</svg>
