<?xml version="1.0" encoding="UTF-8" standalone="no"?>
<svg xmlns:xlink="http://www.w3.org/1999/xlink" height="15.65px" width="29.15px" xmlns="http://www.w3.org/2000/svg">
  <g transform="matrix(1.0, 0.0, 0.0, 1.0, 14.55, 6.7)">
    <path d="M9.85 -4.1 L8.95 -4.8 8.55 -4.6 7.45 -6.0 6.85 -5.9 Q5.85 -5.65 5.35 -4.85 L5.7 -3.15 7.4 -2.8 8.0 -2.5 8.25 -2.35 9.8 -0.95 11.2 0.55 Q11.1 2.1 10.4 3.65 L10.0 4.4 Q9.4 5.35 9.45 6.25 L9.45 7.1 Q9.5 7.95 10.4 8.35 L12.4 8.15 12.7 7.5 13.3 5.8 13.65 4.35 13.9 3.05 14.05 1.65 Q14.15 0.85 13.65 0.35 L12.7 -0.7 11.75 -1.85 11.0 -2.8 9.85 -4.1 M8.85 -5.45 L9.85 -4.55 11.15 -3.2 12.2 -2.05 13.7 -0.3 14.05 0.3 Q15.05 2.25 14.3 4.6 L14.0 6.05 Q13.8 7.3 12.9 8.45 L12.65 8.75 12.55 8.7 10.9 8.95 Q10.05 8.85 9.4 8.2 L9.2 7.85 9.15 6.55 Q9.15 5.45 9.45 4.5 L10.35 2.1 10.7 1.05 7.5 -2.25 7.3 -2.35 Q6.2 -2.1 5.35 -2.8 L4.55 -4.85 5.3 -6.1 7.45 -6.7 8.85 -5.45 M-10.45 -4.05 L-9.5 -4.95 -8.25 -6.15 -7.55 -6.7 -5.35 -6.1 -4.65 -4.85 -5.4 -2.8 Q-6.1 -2.3 -6.8 -2.3 L-7.55 -2.25 Q-8.3 -1.9 -8.85 -1.25 L-10.8 1.05 -10.3 2.4 -9.65 3.8 Q-9.0 5.05 -9.1 6.55 -9.15 7.8 -9.5 8.2 L-10.0 8.55 Q-11.05 9.1 -12.1 8.9 L-12.75 8.75 -13.0 8.5 -13.25 8.05 -14.4 4.6 Q-14.65 3.05 -14.5 1.5 L-14.15 0.3 -13.75 -0.3 -12.25 -2.05 -11.25 -3.3 -10.45 -4.05 M-11.75 -1.95 Q-12.1 -1.25 -12.7 -0.65 L-13.9 0.9 -14.25 1.45 -14.2 1.7 -14.0 3.05 -13.1 6.5 -12.5 8.15 -10.45 8.35 Q-9.75 7.95 -9.65 7.1 L-9.55 6.25 Q-9.55 4.85 -10.45 3.6 L-10.85 2.75 -11.15 1.35 -11.25 0.55 -9.85 -0.9 -8.35 -2.35 -7.4 -2.75 -7.35 -2.65 -6.5 -3.0 -5.8 -3.15 -5.4 -4.85 Q-6.0 -5.8 -6.95 -5.9 L-7.5 -6.0 -8.65 -4.6 -8.75 -4.75 -9.0 -4.8 -10.05 -3.85 -11.15 -2.55 -11.75 -1.95" fill="#000000" fill-rule="evenodd" stroke="none"/>
    <path d="M9.85 -4.1 L11.0 -2.8 11.75 -1.85 12.7 -0.7 13.65 0.35 Q14.15 0.85 14.05 1.65 L13.9 3.05 13.65 4.35 13.3 5.8 12.7 7.5 12.4 8.15 10.4 8.35 Q9.5 7.95 9.45 7.1 L9.45 6.25 Q9.4 5.35 10.0 4.4 L10.4 3.65 Q11.1 2.1 11.2 0.55 L9.8 -0.95 8.25 -2.35 8.0 -2.5 7.4 -2.8 5.7 -3.15 5.35 -4.85 Q5.85 -5.65 6.85 -5.9 L7.45 -6.0 8.55 -4.6 8.95 -4.8 9.85 -4.1 M-11.75 -1.95 L-11.15 -2.55 -10.05 -3.85 -9.0 -4.8 -8.75 -4.75 -8.65 -4.6 -7.5 -6.0 -6.95 -5.9 Q-6.0 -5.8 -5.4 -4.85 L-5.8 -3.15 -6.5 -3.0 -7.35 -2.65 -7.4 -2.75 -8.35 -2.35 -9.85 -0.9 -11.25 0.55 -11.15 1.35 -10.85 2.75 -10.45 3.6 Q-9.55 4.85 -9.55 6.25 L-9.65 7.1 Q-9.75 7.95 -10.45 8.35 L-12.5 8.15 -13.1 6.5 -14.0 3.05 -14.2 1.7 -14.25 1.45 -13.9 0.9 -12.7 -0.65 Q-12.1 -1.25 -11.75 -1.95" fill="#999999" fill-rule="evenodd" stroke="none"/>
  </g>
</svg>
