<?xml version="1.0" encoding="UTF-8" standalone="no"?>
<svg xmlns:xlink="http://www.w3.org/1999/xlink" height="29.95px" width="25.65px" xmlns="http://www.w3.org/2000/svg">
  <g transform="matrix(1.0, 0.0, 0.0, 1.0, 13.25, 20.7)">
    <path d="M11.1 4.95 L11.3 5.05 11.65 5.1 12.05 4.8 12.05 4.25 11.9 3.1 11.6 1.4 10.7 -2.85 10.1 -5.7 8.65 -12.1 8.5 -12.55 8.4 -13.65 8.5 -14.0 Q9.15 -16.7 8.85 -19.2 L8.55 -19.45 8.3 -19.15 8.05 -18.8 7.55 -17.6 7.25 -16.8 7.15 -17.1 7.05 -17.7 7.05 -18.05 Q6.95 -18.1 6.95 -18.1 L6.85 -18.25 6.45 -19.5 6.4 -19.7 6.0 -20.15 5.9 -20.25 5.65 -20.0 5.65 -19.2 Q5.55 -17.95 5.75 -16.7 L5.75 -16.45 5.85 -16.2 5.75 -15.9 5.45 -15.7 5.4 -15.7 4.45 -16.2 4.35 -16.25 4.1 -15.7 Q4.1 -15.3 4.5 -14.85 L5.35 -13.65 5.85 -13.15 5.9 -13.1 5.95 -13.05 5.95 -12.55 6.0 -12.25 Q6.05 -11.0 6.35 -9.7 L6.75 -7.35 Q6.8 -6.65 7.15 -6.15 L7.3 -5.9 7.4 -5.85 7.4 -5.8 7.3 -5.55 7.2 -5.0 7.2 -4.9 7.15 -4.2 Q7.0 -2.1 7.55 0.05 L8.05 1.9 8.3 2.75 8.35 3.1 9.05 5.25 9.15 5.35 9.6 5.7 9.75 5.85 Q8.95 5.55 8.45 4.85 L7.95 3.8 7.7 3.35 7.6 3.15 7.25 1.55 6.75 -1.4 6.7 -2.0 Q6.5 -3.45 6.65 -4.9 L6.65 -5.1 6.65 -5.25 6.35 -6.45 5.8 -9.4 5.65 -11.5 5.6 -11.75 5.6 -12.65 5.3 -13.1 4.9 -13.55 Q4.2 -14.4 3.85 -15.45 3.55 -16.0 3.85 -16.4 L4.15 -16.65 4.3 -16.65 5.3 -16.4 5.2 -17.7 5.2 -18.3 5.25 -18.8 5.25 -19.35 Q5.2 -20.1 5.65 -20.5 L5.7 -20.45 6.05 -20.7 6.4 -20.35 6.95 -19.05 7.3 -18.25 7.5 -18.65 7.5 -18.8 8.45 -20.0 8.55 -20.0 8.65 -19.9 Q9.1 -19.8 9.2 -19.25 L9.3 -17.25 9.15 -14.95 8.85 -13.1 9.5 -10.35 10.1 -7.45 10.75 -4.55 11.4 -1.65 12.05 1.25 12.4 3.1 12.4 3.2 12.4 3.5 12.35 4.2 12.25 4.7 Q11.85 5.75 10.85 5.9 L9.9 5.85 10.15 5.85 11.0 5.45 11.0 5.25 11.05 5.0 11.1 4.95 M-10.35 9.1 L-10.2 8.95 -9.8 8.55 -9.7 8.45 -9.2 6.25 -9.15 5.9 -9.0 5.0 -8.65 3.15 Q-8.3 0.95 -8.6 -1.15 L-8.7 -1.85 -8.75 -1.9 -8.9 -2.5 -8.95 -2.7 -9.0 -2.75 -8.9 -2.8 -8.75 -3.1 -8.45 -4.3 -8.3 -6.65 -8.1 -9.25 -8.1 -9.55 -8.15 -10.05 -8.1 -10.1 -8.05 -10.15 -7.6 -10.7 -6.85 -11.95 Q-6.5 -12.5 -6.55 -12.85 L-6.8 -13.4 -6.85 -13.35 -6.9 -13.35 -7.8 -12.75 -7.9 -12.75 -8.2 -12.95 -8.3 -13.2 -8.2 -13.45 -8.25 -13.7 Q-8.2 -14.95 -8.4 -16.2 L-8.45 -17.0 -8.7 -17.2 -8.8 -17.1 -9.15 -16.65 -9.2 -16.45 -9.45 -15.15 -9.55 -15.0 -9.65 -14.95 -9.6 -14.6 -9.7 -14.0 -9.75 -13.7 -10.15 -14.45 -10.7 -15.6 -11.0 -15.95 -11.3 -16.25 -11.55 -15.95 Q-11.65 -13.45 -10.75 -10.8 L-10.65 -10.45 -10.65 -9.35 -10.75 -8.85 -11.65 -2.4 -12.0 0.5 -12.55 4.8 -12.75 6.55 -12.8 7.7 -12.7 8.25 -12.3 8.5 -11.95 8.45 -11.75 8.35 -11.65 8.6 -11.65 8.8 -10.75 9.1 -10.5 9.15 -11.45 9.25 Q-12.5 9.2 -12.95 8.15 L-13.1 7.65 -13.2 6.95 -13.25 6.65 -13.25 6.55 -13.05 4.7 -12.6 1.75 -12.2 -1.2 -11.85 -4.1 -11.45 -7.1 -11.05 -9.9 -11.5 -11.7 -11.85 -13.95 Q-12.05 -15.0 -11.9 -16.0 L-11.45 -16.65 -11.3 -16.75 -11.2 -16.8 -10.2 -15.65 -10.15 -15.5 -9.95 -15.15 -9.65 -15.95 -9.2 -17.3 -8.85 -17.65 -8.5 -17.45 -8.45 -17.5 Q-8.0 -17.15 -8.0 -16.4 L-7.9 -15.85 -7.85 -15.35 -7.8 -14.75 Q-7.7 -14.15 -7.75 -13.45 L-6.8 -13.75 -6.65 -13.8 -6.35 -13.6 Q-6.05 -13.2 -6.25 -12.6 -6.55 -11.55 -7.15 -10.65 L-7.5 -10.15 -7.75 -9.7 Q-7.65 -9.3 -7.7 -8.75 L-7.75 -8.5 -7.7 -6.45 -8.0 -3.45 -8.2 -2.25 -8.2 -2.05 -8.15 -1.85 -7.95 1.05 -8.0 1.65 -8.2 4.6 -8.45 6.2 -8.5 6.45 -8.75 6.9 -9.15 8.0 Q-9.6 8.75 -10.35 9.1" fill="#000000" fill-rule="evenodd" stroke="none"/>
    <path d="M9.75 5.85 L9.6 5.7 9.15 5.35 9.05 5.25 8.35 3.1 8.3 2.75 8.05 1.9 7.55 0.05 Q7.0 -2.1 7.15 -4.2 L7.2 -4.9 7.2 -5.0 7.3 -5.55 7.4 -5.8 7.4 -5.85 7.3 -5.9 7.15 -6.15 Q6.8 -6.65 6.75 -7.35 L6.35 -9.7 Q6.05 -11.0 6.0 -12.25 L5.95 -12.55 5.95 -13.05 5.9 -13.1 5.85 -13.15 5.35 -13.65 4.5 -14.85 Q4.1 -15.3 4.1 -15.7 L4.35 -16.25 4.45 -16.2 5.4 -15.7 5.45 -15.7 5.75 -15.9 5.85 -16.2 5.75 -16.45 5.75 -16.7 Q5.55 -17.95 5.65 -19.2 L5.65 -20.0 5.9 -20.25 6.0 -20.15 6.4 -19.7 6.45 -19.5 6.85 -18.25 6.95 -18.1 Q6.95 -18.1 7.05 -18.05 L7.05 -17.7 7.15 -17.1 7.25 -16.8 7.55 -17.6 8.05 -18.8 8.3 -19.15 8.55 -19.45 8.85 -19.2 Q9.15 -16.7 8.5 -14.0 L8.4 -13.65 8.5 -12.55 8.65 -12.1 10.1 -5.7 10.7 -2.85 11.6 1.4 11.9 3.1 12.05 4.25 12.05 4.8 11.65 5.1 11.3 5.05 11.1 4.95 11.05 4.95 11.05 5.0 11.0 5.25 11.0 5.45 10.15 5.85 9.9 5.85 9.75 5.85 M-11.75 8.35 L-11.95 8.45 -12.3 8.5 -12.7 8.25 -12.8 7.7 -12.75 6.55 -12.55 4.8 -12.0 0.5 -11.65 -2.4 -10.75 -8.85 -10.65 -9.35 -10.65 -10.45 -10.75 -10.8 Q-11.65 -13.45 -11.55 -15.95 L-11.3 -16.25 -11.0 -15.95 -10.7 -15.6 -10.15 -14.45 -9.75 -13.7 -9.7 -14.0 -9.6 -14.6 -9.65 -14.95 -9.55 -15.0 -9.45 -15.15 -9.2 -16.45 -9.15 -16.65 -8.8 -17.1 -8.7 -17.2 -8.45 -17.0 -8.4 -16.2 Q-8.2 -14.95 -8.25 -13.7 L-8.2 -13.45 -8.3 -13.2 -8.2 -12.95 -7.9 -12.75 -7.8 -12.75 -6.9 -13.35 -6.85 -13.35 -6.8 -13.4 -6.55 -12.85 Q-6.5 -12.5 -6.85 -11.95 L-7.6 -10.7 -8.05 -10.15 -8.1 -10.1 -8.15 -10.05 -8.1 -9.55 -8.1 -9.25 -8.3 -6.65 -8.45 -4.3 -8.75 -3.1 -8.9 -2.8 -9.0 -2.75 -8.95 -2.7 -8.9 -2.5 -8.75 -1.9 -8.7 -1.85 -8.6 -1.15 Q-8.3 0.95 -8.65 3.15 L-9.0 5.0 -9.15 5.9 -9.2 6.25 -9.7 8.45 -9.8 8.55 -10.2 8.95 -10.35 9.1 -10.5 9.15 -10.75 9.1 -11.65 8.8 -11.65 8.6 -11.75 8.35 -11.75 8.3 -11.75 8.35" fill="#999999" fill-rule="evenodd" stroke="none"/>
  </g>
</svg>
