<?xml version="1.0" encoding="UTF-8" standalone="no"?>
<svg xmlns:xlink="http://www.w3.org/1999/xlink" height="11.3px" width="30.1px" xmlns="http://www.w3.org/2000/svg">
  <g transform="matrix(1.0, 0.0, 0.0, 1.0, 15.1, 5.65)">
    <path d="M6.25 2.65 L6.1 1.75 6.2 0.7 Q6.1 1.15 6.35 1.5 L6.35 1.3 Q6.45 2.2 6.9 3.05 L7.3 3.75 7.75 4.15 8.05 4.25 9.0 4.4 9.95 4.45 12.05 3.9 12.05 3.95 12.15 3.9 12.25 3.75 13.05 3.15 14.1 1.9 14.25 1.7 14.45 1.2 14.5 1.1 14.6 0.4 14.6 0.2 14.7 -0.3 14.5 -0.6 14.5 -0.65 14.2 -1.25 13.75 -2.0 12.8 -3.05 11.65 -3.7 11.1 -3.8 11.05 -3.85 10.85 -3.85 10.75 -3.85 10.75 -3.8 10.25 -3.9 9.6 -4.05 8.85 -4.3 8.8 -4.3 8.7 -4.2 8.55 -4.15 8.3 -4.15 7.35 -3.15 7.2 -2.85 6.7 -1.8 6.6 -1.5 6.6 -1.4 6.55 -1.15 6.55 -1.2 Q6.6 -2.3 7.05 -3.35 L7.5 -4.15 6.75 -4.3 5.75 -4.65 4.9 -4.8 4.0 -4.9 2.95 -5.0 1.25 -5.1 0.25 -5.1 -2.25 -4.9 -2.75 -4.8 -3.0 -4.75 -3.25 -4.7 -3.35 -4.65 -3.45 -4.7 -3.55 -4.7 -3.55 -4.6 -4.0 -4.55 -5.9 -4.35 -8.65 -4.05 -9.5 -4.0 -10.2 -4.0 -11.15 -3.95 -11.05 -4.0 -11.15 -3.95 -12.65 -3.45 -13.5 -3.0 -13.65 -3.0 -13.75 -2.8 -14.5 -1.35 -14.75 0.2 -14.15 1.85 -14.1 1.95 -13.5 2.8 -11.9 3.85 -11.1 4.05 -10.8 4.1 -8.65 3.9 -8.15 4.1 -7.95 4.15 -7.9 4.15 -7.95 4.1 -6.95 4.3 -5.6 4.6 -5.35 4.6 -5.3 4.6 -5.2 4.6 -4.9 4.65 -4.85 4.65 -2.75 4.8 -2.55 4.95 -2.5 4.95 -1.4 5.0 0.65 5.2 0.55 5.3 0.45 5.35 0.6 5.35 0.6 5.4 0.65 5.35 0.75 5.35 0.75 5.25 0.75 5.2 2.25 5.15 3.2 5.1 4.05 5.05 4.35 5.0 4.3 5.1 4.4 5.05 4.4 5.0 4.6 5.05 5.0 5.05 4.9 5.15 5.5 5.05 6.15 4.9 7.15 4.4 6.65 3.65 6.25 2.65 M-7.6 4.65 L-9.2 4.6 -9.5 4.6 -11.9 4.4 -13.45 3.5 -14.0 2.9 -14.6 2.0 -15.0 0.9 -15.1 -0.2 -15.1 -0.8 -15.05 -1.1 -13.95 -3.05 -13.8 -3.2 -13.4 -3.55 -13.05 -3.75 -12.6 -3.95 -12.5 -4.0 -12.45 -4.05 -12.35 -4.1 -10.3 -4.3 -8.25 -4.3 -7.2 -4.4 -7.05 -4.4 -6.75 -4.45 -6.05 -4.55 -4.95 -4.75 -3.85 -5.0 -2.85 -5.25 -1.75 -5.4 -0.75 -5.55 0.55 -5.6 2.45 -5.5 2.5 -5.5 3.3 -5.45 3.75 -5.35 5.1 -4.95 5.15 -4.9 7.9 -4.25 8.25 -4.25 10.7 -4.2 11.4 -4.15 12.6 -3.65 13.8 -2.8 14.55 -1.6 14.95 -0.1 15.0 0.8 14.65 1.8 Q14.1 3.45 12.55 4.2 L11.85 4.55 11.5 4.55 11.25 4.6 10.65 4.7 7.9 4.45 7.35 4.6 6.8 4.9 5.9 5.2 4.55 5.3 3.15 5.55 2.95 5.55 1.85 5.55 0.1 5.65 -1.7 5.65 -3.6 5.45 -4.7 5.2 -5.6 4.95 -5.7 4.9 -6.55 4.9 -7.35 4.7 -7.6 4.65" fill="#000000" fill-rule="evenodd" stroke="none"/>
    <path d="M0.65 5.35 L0.75 5.25 0.75 5.35 0.65 5.35 M0.55 5.3 L0.65 5.2 0.6 5.3 0.55 5.3 M-5.3 4.6 L-5.35 4.6 -5.6 4.6 -5.0 4.5 -5.0 4.55 -5.2 4.6 -5.3 4.6" fill="#39158e" fill-rule="evenodd" stroke="none"/>
    <path d="M0.65 5.35 L0.6 5.4 0.6 5.35 0.45 5.35 0.55 5.3 0.6 5.3 0.6 5.35 0.65 5.35" fill="#4a1bb2" fill-rule="evenodd" stroke="none"/>
    <path d="M4.65 2.65 L4.9 2.05 5.05 1.6 5.35 -0.2 Q5.65 -1.65 5.4 -3.1 L5.35 -3.55 Q5.35 -4.15 5.0 -4.65 L4.9 -4.8 5.75 -4.65 6.75 -4.3 7.5 -4.15 7.05 -3.35 Q6.6 -2.3 6.55 -1.2 L6.2 0.5 6.2 0.7 6.1 1.75 6.25 2.65 5.45 2.65 4.65 2.65 M4.35 5.0 L4.4 5.05 4.3 5.1 4.35 5.0 M-14.1 1.95 L-14.15 1.85 -14.75 0.2 -14.5 -1.35 -13.75 -2.8 -13.65 -3.0 -13.5 -3.0 -12.65 -3.45 -11.15 -3.95 -11.05 -4.0 -11.15 -3.95 -10.2 -4.0 -9.5 -4.0 -8.65 -4.05 -5.9 -4.35 -6.75 -2.7 Q-7.4 -0.2 -6.6 2.35 L-6.5 2.6 -7.45 2.6 -8.65 2.7 -9.5 1.65 -9.5 1.6 Q-10.25 0.15 -10.5 -1.4 L-10.7 -1.45 -10.8 -1.4 -10.95 -0.9 -11.0 -0.8 -11.1 -0.7 -11.15 -0.05 Q-11.4 1.45 -10.95 2.85 L-11.5 2.8 Q-12.9 2.65 -14.1 1.95" fill="#b30000" fill-rule="evenodd" stroke="none"/>
    <path d="M9.75 -2.15 L9.8 -0.75 9.85 -0.45 9.8 -0.05 9.8 0.0 9.7 1.3 9.65 1.3 9.65 1.5 9.65 1.55 9.55 1.7 8.05 1.55 6.9 1.55 6.75 1.55 Q6.45 0.55 6.6 -0.5 L6.6 -0.3 6.65 -0.6 6.65 -0.7 6.85 -1.45 7.15 -2.15 8.85 -1.75 9.15 -1.65 9.8 -1.65 9.75 -2.15 M14.2 -1.25 L14.5 -0.65 14.5 -0.6 14.7 -0.3 14.6 0.2 14.6 0.4 14.5 1.1 14.45 1.1 11.55 1.6 10.65 1.8 10.3 1.7 10.25 1.7 10.25 1.55 10.2 -0.05 10.2 -0.7 10.4 -1.85 10.4 -1.95 10.4 -2.3 10.4 -2.35 10.55 -2.7 10.7 -3.05 10.6 -2.75 11.35 -2.45 Q12.3 -2.0 13.25 -1.7 L13.65 -1.55 14.2 -1.25" fill="#cc66ff" fill-rule="evenodd" stroke="none"/>
    <path d="M6.2 0.7 L6.2 0.5 6.55 -1.2 6.55 -1.15 6.6 -1.4 6.6 -1.5 6.7 -1.8 7.2 -2.85 7.35 -3.15 8.3 -4.15 8.55 -4.15 8.7 -4.2 8.8 -4.3 8.85 -4.3 9.6 -4.05 10.25 -3.9 10.75 -3.8 10.75 -3.85 10.85 -3.85 11.05 -3.85 11.1 -3.8 11.15 -3.6 11.0 -3.5 10.7 -3.05 10.55 -2.7 10.4 -2.35 10.4 -2.3 10.4 -1.95 10.4 -1.85 10.2 -0.7 10.2 -0.05 10.25 1.55 10.25 1.7 Q10.3 2.75 10.9 3.65 L10.95 3.75 13.05 2.65 13.25 2.5 13.45 2.35 13.75 2.05 13.8 2.05 14.1 1.8 14.25 1.7 14.1 1.9 13.05 3.15 12.25 3.75 12.15 3.9 12.05 3.95 12.05 3.9 9.95 4.45 9.0 4.4 8.05 4.25 7.75 4.15 7.3 3.75 6.9 3.05 Q6.45 2.2 6.35 1.3 L6.35 1.5 Q6.1 1.15 6.2 0.7 M9.75 -2.15 L9.7 -2.45 9.65 -2.55 8.5 -3.05 7.9 -3.35 7.75 -3.15 7.65 -2.9 7.45 -2.65 7.15 -2.15 6.85 -1.45 6.65 -0.7 6.65 -0.6 6.6 -0.5 Q6.45 0.55 6.75 1.55 L6.95 2.2 7.55 3.15 9.4 2.05 9.25 2.4 9.45 1.9 9.65 1.55 9.65 1.5 9.65 1.3 9.7 1.3 9.8 0.0 9.8 -0.05 9.85 -0.45 9.8 -0.75 9.75 -2.15 M10.25 -3.2 L10.25 -3.15 10.25 -3.2 M9.6 4.1 L9.55 4.05 9.5 4.1 9.6 4.1" fill="#660045" fill-rule="evenodd" stroke="none"/>
    <path d="M6.6 -0.5 L6.65 -0.6 6.6 -0.3 6.6 -0.5 M10.25 -3.2 L10.25 -3.15 10.25 -3.2 M9.6 4.1 L9.5 4.1 9.55 4.05 9.6 4.1" fill="#99409f" fill-rule="evenodd" stroke="none"/>
    <path d="M7.15 -2.15 L7.45 -2.65 7.65 -2.9 7.75 -3.15 7.9 -3.35 8.5 -3.05 9.65 -2.55 9.7 -2.45 9.75 -2.15 9.8 -1.65 9.15 -1.65 8.85 -1.75 7.15 -2.15 M10.7 -3.05 L11.0 -3.5 11.15 -3.6 11.1 -3.8 11.65 -3.7 12.8 -3.05 13.75 -2.0 14.2 -1.25 13.65 -1.55 13.25 -1.7 Q12.3 -2.0 11.35 -2.45 L10.6 -2.75 10.7 -3.05" fill="#ffccff" fill-rule="evenodd" stroke="none"/>
    <path d="M4.65 2.65 L5.45 2.65 6.25 2.65 6.65 3.65 7.15 4.4 6.15 4.9 5.5 5.05 4.9 5.15 5.0 5.05 4.6 5.05 4.4 5.0 4.4 5.05 4.35 5.0 4.05 5.05 3.2 5.1 2.25 5.15 0.75 5.2 0.75 5.25 0.65 5.35 0.6 5.35 0.6 5.3 0.65 5.2 -1.4 5.0 -2.5 4.95 -2.55 4.95 -2.75 4.8 -4.85 4.65 -4.9 4.65 -5.2 4.6 -5.3 4.6 -5.2 4.6 -5.0 4.55 -5.0 4.5 -5.6 4.6 -6.95 4.3 -7.95 4.1 -7.9 4.15 -7.95 4.15 -8.15 4.1 -8.65 3.9 -10.8 4.1 -11.1 4.05 -11.9 3.85 -13.5 2.8 -14.1 1.95 Q-12.9 2.65 -11.5 2.8 L-10.95 2.85 Q-11.4 1.45 -11.15 -0.05 L-11.1 -0.7 -11.0 -0.8 -10.95 -0.9 -10.8 -1.4 -10.7 -1.45 -10.5 -1.4 Q-10.25 0.15 -9.5 1.6 L-9.5 1.65 -8.65 2.7 -7.45 2.6 -6.5 2.6 -6.6 2.35 Q-7.4 -0.2 -6.75 -2.7 L-5.9 -4.35 -4.0 -4.55 -4.4 -4.05 Q-5.1 -2.7 -5.15 -1.1 L-5.0 0.85 -4.75 1.3 -4.85 1.2 -4.8 1.6 -4.45 2.6 -3.95 3.3 Q-2.75 4.65 -0.9 4.85 L1.95 4.55 3.05 4.05 Q4.0 3.5 4.55 2.65 L4.65 2.65 M-7.6 4.65 L-7.35 4.7 -6.55 4.9 -5.7 4.9 -5.6 4.95 -5.7 4.95 -7.1 4.85 -7.2 4.8 -7.2 4.75 -7.6 4.65" fill="#820000" fill-rule="evenodd" stroke="none"/>
    <path d="M4.9 -4.8 L5.0 -4.65 Q5.35 -4.15 5.35 -3.55 L5.4 -3.1 Q5.65 -1.65 5.35 -0.2 L5.05 1.6 4.9 2.05 4.65 2.65 4.55 2.65 Q4.0 3.5 3.05 4.05 L1.95 4.55 -0.9 4.85 Q-2.75 4.65 -3.95 3.3 L-4.45 2.6 -4.8 1.6 -4.85 1.2 -4.75 1.3 -5.0 0.85 -5.15 -1.1 Q-5.1 -2.7 -4.4 -4.05 L-4.0 -4.55 -3.55 -4.6 -3.55 -4.7 -3.45 -4.7 -3.35 -4.65 -3.25 -4.7 -3.0 -4.75 -2.75 -4.8 -2.25 -4.9 0.25 -5.1 1.25 -5.1 2.95 -5.0 4.0 -4.9 4.9 -4.8" fill="#590000" fill-rule="evenodd" stroke="none"/>
    <path d="M9.65 1.55 L9.45 1.9 9.25 2.4 9.4 2.05 7.55 3.15 6.95 2.2 6.75 1.55 6.9 1.55 8.05 1.55 9.55 1.7 9.65 1.55 M14.5 1.1 L14.45 1.2 14.25 1.7 14.1 1.8 13.8 2.05 13.75 2.05 13.45 2.35 13.25 2.5 13.05 2.65 10.95 3.75 10.9 3.65 Q10.3 2.75 10.25 1.7 L10.3 1.7 10.65 1.8 11.55 1.6 14.45 1.1 14.5 1.1" fill="#a948b0" fill-rule="evenodd" stroke="none"/>
  </g>
</svg>
