<?xml version="1.0" encoding="UTF-8" standalone="no"?>
<svg xmlns:xlink="http://www.w3.org/1999/xlink" height="11.85px" width="29.75px" xmlns="http://www.w3.org/2000/svg">
  <g transform="matrix(1.0, 0.0, 0.0, 1.0, 14.9, 5.85)">
    <path d="M-6.7 -4.35 L-6.75 -4.45 -7.05 -4.8 -6.5 -4.65 -6.35 -4.55 -6.25 -4.45 -6.7 -4.35" fill="#9dc5ff" fill-rule="evenodd" stroke="none"/>
    <path d="M4.3 -4.9 L3.2 -5.0 3.1 -5.0 0.9 -5.1 1.15 -5.1 Q0.25 -4.1 0.0 -2.75 L-0.25 0.2 -0.2 0.5 0.35 2.85 0.45 3.05 1.5 4.65 2.0 5.0 2.75 5.3 2.45 5.35 2.9 5.3 3.05 5.3 4.05 5.25 4.7 5.25 4.8 5.2 4.95 5.15 6.2 4.85 7.1 4.65 7.3 4.6 7.8 4.5 7.85 4.45 8.0 4.35 8.15 4.3 8.85 4.1 10.65 3.75 11.25 3.7 11.3 3.7 11.8 3.7 Q13.3 3.2 14.1 1.85 L14.55 0.55 14.6 0.3 14.65 0.25 14.65 -0.35 14.65 -0.4 14.65 -0.55 14.65 -0.6 14.65 -0.7 14.65 -0.75 14.6 -0.8 14.6 -0.85 14.55 -0.9 14.55 -1.05 14.55 -1.1 14.5 -1.15 14.5 -1.3 14.45 -1.35 14.35 -1.6 13.45 -2.85 13.35 -2.95 13.1 -3.15 12.45 -3.55 12.4 -3.55 12.4 -3.6 11.95 -3.8 11.8 -3.85 11.35 -4.0 11.25 -4.0 10.9 -4.0 10.85 -3.95 10.3 -4.0 10.2 -3.95 10.15 -3.95 10.05 -4.0 9.25 -4.05 9.2 -4.05 8.45 -4.15 8.3 -4.2 7.25 -4.3 7.05 -4.4 7.0 -4.4 6.6 -4.5 6.5 -4.55 6.4 -4.55 6.1 -4.6 5.85 -4.65 5.3 -4.75 4.3 -4.9 M-6.25 -4.45 L-6.15 -4.5 -5.3 -4.8 -4.75 -5.0 -4.15 -5.15 -3.75 -5.25 -2.75 -5.5 -1.65 -5.65 0.05 -5.8 1.65 -5.85 2.6 -5.75 3.65 -5.7 3.7 -5.7 3.95 -5.65 5.0 -5.45 5.3 -5.35 5.35 -5.35 Q5.35 -5.35 5.45 -5.3 L5.75 -5.25 6.65 -5.15 6.7 -5.1 7.05 -5.05 7.75 -4.8 7.8 -4.8 8.45 -4.75 9.1 -4.7 9.55 -4.65 9.6 -4.65 10.1 -4.6 10.6 -4.55 11.0 -4.5 11.05 -4.55 11.7 -4.4 Q12.6 -4.1 13.3 -3.45 L13.7 -3.05 13.8 -2.95 14.3 -2.35 14.35 -2.3 14.35 -2.25 14.4 -2.2 14.4 -2.15 14.65 -1.65 14.75 -1.1 14.75 -1.0 14.8 -0.9 14.8 -0.8 14.85 -0.8 14.85 -0.75 14.85 0.55 14.85 0.7 14.8 0.8 Q14.7 2.1 13.75 3.0 13.2 3.65 12.45 4.05 L12.3 4.1 10.6 4.2 8.35 4.8 8.25 4.8 7.65 5.0 7.45 5.05 6.15 5.4 6.0 5.4 5.85 5.45 5.6 5.5 5.55 5.55 4.8 5.7 4.3 5.8 4.1 5.85 3.7 5.9 -4.65 5.6 -4.75 5.6 -5.0 5.55 -6.3 5.25 -6.9 5.1 -7.85 4.75 -8.9 4.65 -9.25 4.6 -10.85 4.45 -11.0 4.5 -11.8 4.3 Q-13.0 3.9 -13.75 3.0 -14.7 2.1 -14.8 0.8 L-14.85 0.7 -14.85 0.55 -14.85 -0.75 -14.85 -0.8 -14.8 -0.8 -14.8 -0.9 -14.75 -0.9 -14.75 -1.0 -14.75 -1.1 -14.65 -1.65 -14.4 -2.15 -14.4 -2.2 -14.35 -2.25 -14.35 -2.3 -14.3 -2.35 -13.8 -2.95 -13.7 -3.05 -13.3 -3.45 Q-12.6 -4.1 -11.7 -4.4 L-11.65 -4.4 -10.15 -4.35 -9.9 -4.25 -9.8 -4.25 -9.05 -4.25 -7.85 -4.25 -7.8 -4.3 -7.45 -4.3 -6.7 -4.35 -6.25 -4.45 M7.4 -1.7 L7.45 -1.75 7.45 -1.7 7.4 -1.7 M-9.5 -3.7 L-11.15 -4.05 -11.5 -3.95 -11.8 -3.85 Q-12.65 -3.55 -13.35 -2.95 L-14.35 -1.6 -14.45 -1.35 -14.5 -1.3 -14.5 -1.15 -14.55 -1.1 -14.55 -1.05 -14.55 -0.9 -14.55 -0.85 -14.6 -0.85 -14.6 -0.8 -14.65 -0.75 -14.65 -0.7 -14.65 -0.6 -14.65 -0.4 -14.65 -0.35 -14.65 0.25 -14.6 0.3 -14.55 0.45 -14.55 0.55 -14.4 0.95 -14.3 1.25 -14.3 1.35 -14.1 1.85 Q-13.3 3.2 -11.8 3.7 L-11.05 3.85 -10.8 3.9 -10.75 3.85 -10.5 3.85 -10.3 3.9 -10.15 3.85 -9.9 3.85 Q-8.9 3.75 -8.05 4.15 L-7.6 4.4 -7.5 4.45 -7.45 4.45 -7.4 4.5 -7.2 4.55 -7.05 4.55 -7.4 3.9 -8.15 1.0 -8.1 -1.6 -7.55 -3.25 -7.25 -3.75 -7.65 -3.7 -8.0 -3.7 -8.15 -3.7 -8.35 -3.65 -8.5 -3.65 -8.65 -3.65 -9.45 -3.7 -9.5 -3.7 M-2.55 -4.75 L-2.65 -4.75 -2.7 -4.75 -2.95 -4.8 -3.1 -4.75 -3.3 -4.6 -3.45 -4.6 -4.45 -4.35 -4.75 -4.25 -5.15 -4.2 -5.4 -4.15 -5.55 -4.15 -5.6 -4.1 -5.65 -4.1 -5.95 -4.0 -6.15 -3.95 -6.2 -3.95 -6.45 -3.85 -6.5 -3.85 -6.7 -3.85 Q-7.45 -2.8 -7.55 -1.45 L-7.55 -1.4 -7.55 -1.25 -7.65 0.35 -7.65 0.75 -7.2 2.8 -7.05 3.15 -7.0 3.2 -7.0 3.25 -6.8 3.65 -6.1 4.7 -5.8 4.75 -5.15 4.85 -4.85 4.9 -4.6 4.95 -4.5 4.95 -4.5 5.0 -3.85 5.15 -3.6 5.2 -3.5 5.2 -3.3 5.25 -3.0 5.25 -2.5 5.3 -0.7 5.4 -0.1 5.4 0.0 5.35 0.2 5.35 0.9 5.4 1.5 5.4 1.25 5.4 -0.05 3.35 -0.4 2.3 -0.45 1.95 -0.4 2.1 -0.45 1.9 -0.5 1.7 -0.8 -0.05 Q-0.9 -1.6 -0.45 -3.2 L0.4 -5.15 -0.25 -5.1 -0.45 -5.05 -0.95 -5.0 -1.35 -5.0 -1.45 -4.95 -1.85 -4.9 -2.55 -4.75 M-6.1 3.05 L-6.1 3.0 -6.1 3.05 M9.55 2.7 L9.5 2.75 9.3 2.75 9.55 2.7" fill="#23252e" fill-rule="evenodd" stroke="none"/>
    <path d="M13.1 -3.15 L13.35 -2.95 13.45 -2.85 13.35 -2.8 13.3 -2.9 13.3 -3.0 13.1 -3.15 M4.8 5.2 L4.7 5.25 4.75 5.15 4.8 5.2 M2.9 5.3 L2.45 5.35 2.75 5.3 2.8 5.3 2.85 5.25 2.9 5.3 M-9.5 -3.7 L-9.45 -3.7 -9.5 -3.7 M-4.5 4.95 L-4.6 4.95 -4.55 4.95 -4.5 4.95 M-4.25 0.9 L-4.15 0.95 -4.2 1.0 -4.25 0.9" fill="#595988" fill-rule="evenodd" stroke="none"/>
    <path d="M-5.9 -2.7 L-5.85 -2.75 -5.8 -2.75 -5.9 -2.7" fill="#c77ea9" fill-rule="evenodd" stroke="none"/>
    <path d="M5.35 -5.35 L5.75 -5.25 5.45 -5.3 Q5.35 -5.35 5.35 -5.35" fill="#8b94a3" fill-rule="evenodd" stroke="none"/>
    <path d="M12.3 -2.9 L12.15 -3.1 12.3 -2.85 12.3 -2.9" fill="#8787c2" fill-rule="evenodd" stroke="none"/>
    <path d="M12.35 -3.1 L12.1 -3.25 12.35 -3.15 12.35 -3.1" fill="#878eb0" fill-rule="evenodd" stroke="none"/>
    <path d="M-13.6 -1.1 L-13.6 -1.15 -13.6 -1.1" fill="#a4a4ff" fill-rule="evenodd" stroke="none"/>
    <path d="M-3.4 -4.2 L-3.4 -4.15 -3.4 -4.2 M-0.45 1.9 L-0.55 2.05 -0.6 2.1 -0.65 2.1 -0.45 1.9" fill="#754900" fill-rule="evenodd" stroke="none"/>
    <path d="M-6.85 0.45 L-6.85 0.4 -6.85 0.45" fill="#a66600" fill-rule="evenodd" stroke="none"/>
    <path d="M2.4 0.35 L2.4 0.4 2.4 0.35" fill="#999999" fill-rule="evenodd" stroke="none"/>
    <path d="M4.3 -4.9 L5.3 -4.75 5.85 -4.65 6.1 -4.6 6.4 -4.55 6.5 -4.55 6.6 -4.5 7.0 -4.4 7.05 -4.4 7.25 -4.3 8.3 -4.2 8.45 -4.15 9.2 -4.05 9.25 -4.05 10.05 -4.0 10.15 -3.95 10.2 -3.95 10.3 -4.0 10.85 -3.95 10.9 -4.0 11.25 -4.0 11.35 -4.0 11.8 -3.85 11.95 -3.8 12.4 -3.6 12.4 -3.55 12.45 -3.55 13.1 -3.15 13.3 -3.0 13.3 -2.9 13.35 -2.8 13.45 -2.85 14.35 -1.6 14.45 -1.35 14.5 -1.3 14.5 -1.15 14.55 -1.1 14.55 -1.05 14.55 -0.9 14.6 -0.85 14.6 -0.8 14.65 -0.75 14.65 -0.7 14.65 -0.6 14.65 -0.55 Q13.5 1.55 11.0 1.65 6.9 0.25 2.65 0.3 2.15 -0.25 2.0 -1.1 1.75 -2.6 2.7 -3.95 L3.0 -4.25 4.3 -4.9 M4.7 -2.75 L5.05 -2.3 5.15 -2.25 9.5 -0.7 10.35 -0.6 11.9 -0.8 Q12.5 -1.25 12.3 -2.25 L11.85 -3.0 Q10.8 -3.8 9.3 -3.4 L8.85 -3.3 5.5 -3.65 5.0 -3.3 4.7 -2.85 4.7 -2.75 M12.35 -3.1 L12.35 -3.15 12.1 -3.25 12.35 -3.1 M12.3 -2.9 L12.3 -2.85 12.15 -3.1 12.3 -2.9 M-14.4 0.95 L-14.55 0.55 -14.55 0.45 -14.6 0.3 -14.65 0.25 -14.65 -0.35 -14.65 -0.4 -14.65 -0.6 -14.65 -0.7 -14.65 -0.75 -14.6 -0.8 -14.6 -0.85 -14.55 -0.85 -14.55 -0.9 -14.55 -1.05 -14.55 -1.1 -14.5 -1.15 -14.5 -1.3 -14.45 -1.35 -14.35 -1.6 -13.35 -2.95 Q-12.65 -3.55 -11.8 -3.85 L-11.5 -3.95 -11.15 -4.05 -9.5 -3.7 -9.45 -3.7 -8.65 -3.65 -8.5 -3.65 -8.35 -3.65 -8.15 -3.7 -8.0 -3.7 -7.65 -3.7 -7.25 -3.75 -7.55 -3.25 -8.1 -1.6 -8.15 1.0 -10.6 1.8 Q-12.7 2.2 -14.4 0.95 M-12.7 -1.25 Q-12.05 -1.75 -11.25 -1.85 L-10.35 -1.7 -10.25 -2.0 Q-9.85 -3.5 -11.45 -3.45 -13.45 -3.0 -13.85 -0.95 L-13.7 -0.4 Q-13.35 0.0 -12.9 0.15 L-13.5 -0.2 Q-13.3 -0.8 -12.7 -1.25 M-4.5 5.0 L-4.5 4.95 -4.5 5.0" fill="#990000" fill-rule="evenodd" stroke="none"/>
    <path d="M-2.55 -4.75 L-1.85 -4.9 -1.45 -4.95 -1.35 -5.0 -0.95 -5.0 -0.45 -5.05 -0.25 -5.1 0.4 -5.15 -0.45 -3.2 Q-0.9 -1.6 -0.8 -0.05 L-0.8 -0.55 -0.85 -0.4 Q-1.3 1.0 -2.55 1.7 -5.0 3.15 -7.3 2.5 L-7.2 2.8 -7.65 0.75 -7.65 0.35 -7.55 -1.25 -7.55 -1.05 -7.45 -0.95 Q-6.7 -0.3 -5.7 -0.65 -3.6 -1.4 -2.4 -3.15 -2.1 -3.55 -2.2 -4.05 L-2.55 -4.75 M-4.25 0.9 L-4.2 1.0 -4.15 0.95 -4.25 0.9 M-6.85 0.45 L-6.85 0.4 -6.85 0.45" fill="#cc9900" fill-rule="evenodd" stroke="none"/>
    <path d="M2.75 5.3 L2.0 5.0 1.5 4.65 0.45 3.05 0.35 2.85 -0.2 0.5 -0.25 0.2 0.0 -2.75 Q0.25 -4.1 1.15 -5.1 L0.9 -5.1 3.1 -5.0 3.2 -5.0 4.3 -4.9 3.0 -4.25 2.7 -3.95 Q1.75 -2.6 2.0 -1.1 2.15 -0.25 2.65 0.3 6.9 0.25 11.0 1.65 13.5 1.55 14.65 -0.55 L14.65 -0.4 14.65 -0.35 14.65 0.25 14.6 0.3 14.55 0.55 14.1 1.85 Q13.3 3.2 11.8 3.7 L11.3 3.7 11.25 3.7 10.65 3.75 8.85 4.1 8.15 4.3 8.0 4.35 7.85 4.45 7.8 4.5 7.3 4.6 7.1 4.65 6.2 4.85 4.95 5.15 4.8 5.2 4.75 5.15 4.7 5.25 4.05 5.25 3.05 5.3 2.9 5.3 2.85 5.25 2.8 5.3 2.75 5.3 M-8.15 1.0 L-7.4 3.9 -7.05 4.55 -7.2 4.55 -7.4 4.5 -7.45 4.45 -7.5 4.45 -7.6 4.4 -8.05 4.15 Q-8.9 3.75 -9.9 3.85 L-10.15 3.85 -10.3 3.9 -10.5 3.85 -10.75 3.85 -10.8 3.9 -11.05 3.85 -11.8 3.7 Q-13.3 3.2 -14.1 1.85 L-14.3 1.35 -14.3 1.25 -14.4 0.95 Q-12.7 2.2 -10.6 1.8 L-8.15 1.0 M9.55 2.7 L9.3 2.75 9.5 2.75 9.55 2.7 M2.4 0.35 L2.4 0.4 2.4 0.35" fill="#660000" fill-rule="evenodd" stroke="none"/>
    <path d="M4.7 -2.75 L4.7 -2.85 5.0 -3.3 5.5 -3.65 8.85 -3.3 9.3 -3.4 Q10.8 -3.8 11.85 -3.0 L12.3 -2.25 Q12.5 -1.25 11.9 -0.8 L10.35 -0.6 9.5 -0.7 5.15 -2.25 5.05 -2.3 4.7 -2.75 M7.4 -1.7 L7.45 -1.7 7.45 -1.75 7.4 -1.7 M-13.6 -1.1 L-13.6 -1.15 -13.6 -1.1 M-12.7 -1.25 Q-13.3 -0.8 -13.5 -0.2 L-12.9 0.15 Q-13.35 0.0 -13.7 -0.4 L-13.85 -0.95 Q-13.45 -3.0 -11.45 -3.45 -9.85 -3.5 -10.25 -2.0 L-10.35 -1.7 -11.25 -1.85 Q-12.05 -1.75 -12.7 -1.25" fill="#cc0000" fill-rule="evenodd" stroke="none"/>
    <path d="M-7.55 -1.25 L-7.55 -1.4 -7.55 -1.45 Q-7.45 -2.8 -6.7 -3.85 L-6.5 -3.85 -6.45 -3.85 -6.2 -3.95 -6.15 -3.95 -5.95 -4.0 -5.65 -4.1 -5.6 -4.1 -5.55 -4.15 -5.4 -4.15 -5.15 -4.2 -4.75 -4.25 -4.45 -4.35 -3.45 -4.6 -3.3 -4.6 -3.1 -4.75 -2.95 -4.8 -2.7 -4.75 -2.65 -4.75 -2.55 -4.75 -2.2 -4.05 Q-2.1 -3.55 -2.4 -3.15 -3.6 -1.4 -5.7 -0.65 -6.7 -0.3 -7.45 -0.95 L-7.55 -1.05 -7.55 -1.25 M-5.9 -2.7 L-5.8 -2.75 -5.85 -2.75 -5.9 -2.7 M-3.4 -4.2 L-3.4 -4.15 -3.4 -4.2" fill="#ffcc00" fill-rule="evenodd" stroke="none"/>
    <path d="M-0.8 -0.05 L-0.5 1.7 -0.45 1.9 -0.4 2.1 -0.45 1.95 -0.4 2.3 -0.05 3.35 1.25 5.4 1.5 5.4 0.9 5.4 0.2 5.35 0.0 5.35 -0.1 5.4 -0.7 5.4 -2.5 5.3 -3.0 5.25 -3.3 5.25 -3.5 5.2 -3.6 5.2 -3.85 5.15 -4.5 5.0 -4.5 4.95 -4.55 4.95 -4.6 4.95 -4.85 4.9 -5.15 4.85 -5.8 4.75 -6.1 4.7 -6.8 3.65 -7.0 3.25 -7.0 3.2 -7.05 3.15 -7.2 2.8 -7.3 2.5 Q-5.0 3.15 -2.55 1.7 -1.3 1.0 -0.85 -0.4 L-0.8 -0.55 -0.8 -0.05 M-0.45 1.9 L-0.65 2.1 -0.6 2.1 -0.55 2.05 -0.45 1.9 M-6.1 3.05 L-6.1 3.0 -6.1 3.05" fill="#996600" fill-rule="evenodd" stroke="none"/>
  </g>
</svg>
