<?xml version="1.0" encoding="UTF-8" standalone="no"?>
<svg xmlns:xlink="http://www.w3.org/1999/xlink" height="10.55px" width="29.6px" xmlns="http://www.w3.org/2000/svg">
  <g transform="matrix(1.0, 0.0, 0.0, 1.0, 14.6, 5.25)">
    <path d="M3.45 1.8 L3.85 0.8 Q4.25 -0.85 3.8 -2.3 L3.35 -3.9 3.05 -4.35 3.1 -4.35 4.05 -4.2 4.25 -4.15 4.4 -4.15 4.7 -4.1 5.85 -3.85 6.0 -3.8 6.5 -3.7 7.05 -3.6 7.6 -3.45 8.4 -3.35 8.5 -3.35 9.15 -3.25 10.2 -3.2 11.95 -3.3 11.9 -3.3 12.0 -3.3 Q13.45 -2.9 14.25 -1.65 L14.7 -0.7 14.5 -1.15 Q14.75 0.0 13.7 0.4 L12.35 0.85 10.8 0.55 9.2 0.5 8.4 0.65 6.9 0.1 Q6.95 -0.9 6.2 -1.5 L6.0 -1.65 Q5.45 -1.55 5.25 -1.15 4.95 -0.5 4.8 0.25 L4.5 1.25 4.35 1.45 4.25 1.4 3.45 1.8 M9.35 -1.6 Q9.25 -1.15 9.7 -0.95 10.75 -0.5 11.9 -0.6 12.65 -0.65 12.9 -1.3 L12.9 -1.8 Q12.3 -2.7 11.05 -2.6 L10.25 -2.5 Q9.5 -2.35 9.35 -1.6 M7.75 0.3 L7.75 0.35 7.8 0.3 7.75 0.3" fill="#993333" fill-rule="evenodd" stroke="none"/>
    <path d="M14.7 -0.7 L14.25 -1.65 Q13.45 -2.9 12.0 -3.3 L11.9 -3.3 11.95 -3.3 10.2 -3.2 9.15 -3.25 8.5 -3.35 8.4 -3.35 7.6 -3.45 7.05 -3.6 6.5 -3.7 6.0 -3.8 5.85 -3.85 4.7 -4.1 4.4 -4.15 4.25 -4.15 4.05 -4.2 3.1 -4.35 3.05 -4.35 3.35 -3.9 3.8 -2.3 Q4.25 -0.85 3.85 0.8 L3.45 1.8 2.3 2.6 0.9 3.1 -0.45 2.9 -1.0 2.95 -1.3 2.9 -2.25 2.0 -3.05 1.0 -3.5 -0.3 -3.4 -1.65 -3.0 -3.5 -3.55 -2.6 -4.05 -0.75 -4.0 0.75 -3.65 2.2 -3.6 2.4 -2.55 4.15 -1.9 4.7 -1.55 4.75 -1.5 4.75 -0.95 4.75 -0.5 4.75 -0.35 4.75 -0.25 4.7 -0.1 4.75 -0.05 4.75 0.2 4.75 0.45 4.75 0.5 4.75 0.65 4.7 0.75 4.75 1.4 4.75 3.25 4.7 3.8 4.65 4.1 4.6 4.3 4.6 4.4 4.6 4.65 4.5 5.3 4.4 5.35 4.4 5.35 4.35 5.45 4.35 5.7 4.35 6.0 4.3 6.4 4.25 6.45 4.25 6.55 4.25 7.7 3.8 9.95 3.35 10.0 3.25 10.0 3.35 10.25 3.3 11.2 3.4 11.35 3.45 11.55 3.35 11.7 3.4 12.0 3.25 Q12.85 3.05 13.45 2.45 L14.0 1.8 14.25 1.5 14.4 1.15 14.75 0.0 14.75 -0.2 14.7 -0.7 M4.95 -4.7 L5.6 -4.55 6.15 -4.35 7.05 -4.1 7.15 -4.05 7.6 -4.0 8.4 -3.9 8.6 -3.9 9.6 -3.65 9.65 -3.65 11.25 -3.6 11.75 -3.6 11.8 -3.6 12.75 -3.3 Q13.95 -2.9 14.65 -1.75 L14.8 -1.45 Q15.35 0.45 14.5 2.25 L14.05 2.75 13.85 2.95 13.65 3.1 12.1 3.7 10.95 3.9 10.55 4.0 10.55 3.95 9.15 4.05 7.65 4.4 7.2 4.55 Q6.8 4.65 6.45 4.85 L6.4 4.8 5.85 4.9 5.6 4.95 5.5 4.95 0.5 5.3 0.2 5.3 -0.1 5.3 -5.1 4.95 -5.15 4.95 -5.45 4.9 -6.0 4.8 -6.0 4.85 -6.8 4.55 -7.25 4.4 -8.75 4.05 -10.15 3.95 -10.15 4.0 -10.2 4.0 -11.25 3.85 -13.25 3.1 -13.45 2.95 -13.65 2.75 -14.05 2.25 Q-14.95 0.45 -14.35 -1.45 L-14.2 -1.75 Q-13.55 -2.9 -12.3 -3.3 L-11.4 -3.6 -11.35 -3.6 -10.85 -3.6 -9.25 -3.65 -9.2 -3.65 -8.2 -3.9 -7.95 -3.9 -7.2 -4.0 -6.75 -4.05 -6.6 -4.1 -5.75 -4.35 -5.15 -4.55 -4.55 -4.7 -4.1 -4.75 -3.1 -5.0 -1.95 -5.1 -0.2 -5.25 -0.05 -5.25 0.2 -5.25 0.5 -5.25 0.6 -5.25 2.35 -5.1 3.5 -5.0 4.55 -4.75 4.95 -4.7 M0.15 -4.7 L0.15 -4.6 0.15 -4.7 M0.25 -4.7 L0.3 -4.6 0.3 -4.7 0.25 -4.7 M1.5 -0.4 L1.55 -0.4 1.5 -0.55 1.5 -0.4 M9.35 -3.4 L9.5 -3.45 9.35 -3.45 9.35 -3.4 M14.75 -1.05 L14.75 -1.1 14.75 -1.05 M13.9 1.75 L13.95 1.75 13.9 1.75 M1.1 1.85 L1.15 1.7 1.2 1.7 1.15 1.65 1.15 1.7 1.1 1.85 M1.35 1.85 L1.25 1.75 1.3 1.85 1.35 1.85 M-4.6 1.55 L-4.7 0.75 -4.7 -0.5 -4.6 -1.2 -4.35 -1.9 Q-3.85 -3.25 -2.75 -4.25 L-2.6 -4.35 -2.2 -4.4 -2.65 -4.35 -3.6 -4.2 -3.8 -4.15 -4.0 -4.15 -4.25 -4.1 -4.55 -4.05 -5.45 -3.85 -5.6 -3.8 -6.1 -3.7 -6.6 -3.6 -7.2 -3.45 -7.95 -3.35 -8.15 -3.35 -8.4 -3.35 -8.75 -3.35 -8.75 -3.4 -8.9 -3.35 -11.55 -3.3 -11.45 -3.3 -11.6 -3.3 Q-13.05 -2.9 -13.85 -1.65 L-14.25 -0.8 -14.35 -0.2 -14.35 -0.1 -14.35 0.0 -14.0 1.15 -13.8 1.5 -13.6 1.8 -13.05 2.45 Q-12.45 3.05 -11.6 3.25 L-11.25 3.4 -11.15 3.35 -10.9 3.45 -10.75 3.4 -10.5 3.4 -10.4 3.4 -10.0 3.35 -9.9 3.35 -9.8 3.35 -9.75 3.35 -9.6 3.35 -9.55 3.25 -9.5 3.35 -9.5 3.3 Q-8.35 3.4 -7.3 3.85 L-6.3 4.15 -5.95 4.25 -6.0 4.25 -5.6 4.3 -5.55 4.3 -5.25 4.35 -5.0 4.35 -4.95 4.35 -4.95 4.4 -4.9 4.4 -4.25 4.5 -4.0 4.6 -3.85 4.6 -3.65 4.6 -3.35 4.65 -3.1 4.65 -3.65 3.85 -4.55 1.75 -4.6 1.55 M-14.35 -1.1 L-14.35 -1.05 -14.3 -1.05 -14.35 -1.1 M-8.9 -3.45 L-9.1 -3.45 -8.9 -3.4 -8.9 -3.45 M-2.3 -4.1 L-2.25 -4.1 -1.95 -4.3 -2.3 -4.1 M-1.1 -0.4 L-1.1 -0.55 -1.1 -0.4 M-0.9 1.85 L-0.85 1.85 -0.85 1.75 -0.9 1.85 M-0.75 1.7 L-0.7 1.85 -0.7 1.7 -0.75 1.65 -0.75 1.7 M-4.65 0.75 L-4.6 0.8 -4.55 0.75 -4.65 0.75 M-6.6 2.6 L-6.55 2.65 -6.6 2.65 -6.6 2.6" fill="#23252e" fill-rule="evenodd" stroke="none"/>
    <path d="M0.15 -4.7 L0.15 -4.6 0.15 -4.7 M0.25 -4.7 L0.3 -4.7 0.3 -4.6 0.25 -4.7" fill="#cc9900" fill-rule="evenodd" stroke="none"/>
    <path d="M1.5 -0.4 L1.5 -0.55 1.55 -0.4 1.5 -0.4 M1.1 1.85 L1.15 1.7 1.15 1.65 1.2 1.7 1.15 1.7 1.1 1.85 M-1.1 -0.4 L-1.1 -0.55 -1.1 -0.4 M-0.75 1.7 L-0.75 1.65 -0.7 1.7 -0.7 1.85 -0.75 1.7" fill="#996600" fill-rule="evenodd" stroke="none"/>
    <path d="M9.35 -3.4 L9.35 -3.45 9.5 -3.45 9.35 -3.4 M-8.9 -3.45 L-8.9 -3.4 -9.1 -3.45 -8.9 -3.45" fill="#333933" fill-rule="evenodd" stroke="none"/>
    <path d="M3.45 1.8 L4.25 1.4 4.35 1.45 4.5 1.25 4.8 0.25 Q4.95 -0.5 5.25 -1.15 5.45 -1.55 6.0 -1.65 L6.2 -1.5 Q6.95 -0.9 6.9 0.1 L8.4 0.65 9.2 0.5 10.8 0.55 12.35 0.85 13.7 0.4 Q14.75 0.0 14.5 -1.15 L14.7 -0.7 14.75 -0.2 13.7 1.1 Q13.1 1.65 12.25 1.8 L11.3 1.95 9.35 2.15 7.75 2.7 6.4 3.15 4.7 3.55 3.35 3.75 1.95 3.7 0.55 3.7 -0.85 3.5 -2.0 3.0 -3.65 2.2 -4.0 0.75 -4.05 -0.75 -3.55 -2.6 -3.0 -3.5 -3.4 -1.65 -3.5 -0.3 -3.05 1.0 -2.25 2.0 -1.3 2.9 -1.0 2.95 -0.45 2.9 0.9 3.1 2.3 2.6 3.45 1.8" fill="#7d0000" fill-rule="evenodd" stroke="none"/>
    <path d="M9.35 -1.6 Q9.5 -2.35 10.25 -2.5 L11.05 -2.6 Q12.3 -2.7 12.9 -1.8 L12.9 -1.3 Q12.65 -0.65 11.9 -0.6 10.75 -0.5 9.7 -0.95 9.25 -1.15 9.35 -1.6" fill="#ac5757" fill-rule="evenodd" stroke="none"/>
    <path d="M14.75 -1.05 L14.75 -1.1 14.75 -1.05 M-14.35 -1.1 L-14.3 -1.05 -14.35 -1.05 -14.35 -1.1" fill="#a4a4ff" fill-rule="evenodd" stroke="none"/>
    <path d="M14.75 -0.2 L14.75 0.0 14.4 1.15 14.25 1.5 14.0 1.8 13.45 2.45 Q12.85 3.05 12.0 3.25 L11.7 3.4 11.55 3.35 11.35 3.45 11.2 3.4 10.25 3.3 10.0 3.35 10.0 3.25 9.95 3.35 7.7 3.8 6.55 4.25 6.45 4.25 6.4 4.25 6.0 4.3 5.7 4.35 5.45 4.35 5.4 4.35 5.35 4.35 5.3 4.4 4.65 4.5 4.4 4.6 4.3 4.6 4.1 4.6 3.8 4.65 3.25 4.7 1.4 4.75 0.75 4.75 0.65 4.7 0.5 4.75 0.45 4.75 0.2 4.75 -0.05 4.75 -0.1 4.75 -0.25 4.7 -0.35 4.75 -0.5 4.75 -0.95 4.75 -1.5 4.75 -1.55 4.75 -1.9 4.7 -2.55 4.15 -3.6 2.4 -3.65 2.2 -2.0 3.0 -0.85 3.5 0.55 3.7 1.95 3.7 3.35 3.75 4.7 3.55 6.4 3.15 7.75 2.7 9.35 2.15 11.3 1.95 12.25 1.8 Q13.1 1.65 13.7 1.1 L14.75 -0.2 M13.9 1.75 L13.95 1.75 13.9 1.75 M-2.3 -4.1 L-1.95 -4.3 -2.25 -4.1 -2.3 -4.1" fill="#660000" fill-rule="evenodd" stroke="none"/>
    <path d="M7.75 0.3 L7.8 0.3 7.75 0.35 7.75 0.3 M-7.35 0.3 L-7.35 0.35 -7.35 0.3" fill="#a66600" fill-rule="evenodd" stroke="none"/>
    <path d="M5.45 4.35 L5.35 4.35 5.4 4.35 5.45 4.35 M-4.95 4.35 L-5.0 4.35 -4.95 4.35 M-4.65 0.75 L-4.55 0.75 -4.6 0.8 -4.65 0.75" fill="#595988" fill-rule="evenodd" stroke="none"/>
    <path d="M5.35 4.35 L5.35 4.4 5.3 4.4 5.35 4.35 M-4.9 4.4 L-4.95 4.4 -4.95 4.35 -4.9 4.4" fill="#990000" fill-rule="evenodd" stroke="none"/>
    <path d="M1.35 1.85 L1.3 1.85 1.25 1.75 1.35 1.85 M-0.9 1.85 L-0.85 1.75 -0.85 1.85 -0.9 1.85" fill="#754900" fill-rule="evenodd" stroke="none"/>
    <path d="M-14.25 -0.8 L-13.85 -1.65 Q-13.05 -2.9 -11.6 -3.3 L-11.45 -3.3 -11.55 -3.3 -8.9 -3.35 -8.75 -3.4 -8.75 -3.35 -8.4 -3.35 -8.15 -3.35 -7.95 -3.35 -7.2 -3.45 -6.6 -3.6 -6.1 -3.7 -5.6 -3.8 -5.45 -3.85 -4.55 -4.05 -4.25 -4.1 -4.0 -4.15 -3.8 -4.15 -3.6 -4.2 -2.65 -4.35 -2.2 -4.4 -2.6 -4.35 -2.75 -4.25 Q-3.85 -3.25 -4.35 -1.9 L-4.6 -1.2 -4.7 -0.5 -4.7 0.75 -4.6 1.55 -5.05 1.95 -5.15 1.95 -5.4 1.75 -5.45 1.7 -5.45 1.15 Q-5.3 0.3 -5.55 -0.5 L-5.45 -1.05 Q-5.55 -1.65 -6.1 -1.45 -7.4 -1.0 -7.9 0.25 L-8.15 0.65 -8.35 1.1 -10.7 1.5 -11.45 1.55 Q-13.05 1.5 -13.8 0.2 L-14.0 -1.35 -14.25 -0.8 M-13.05 -0.95 Q-13.1 -0.5 -12.7 -0.35 -11.0 0.35 -9.65 -0.85 L-9.1 -1.4 Q-8.8 -1.8 -8.85 -2.25 -8.95 -3.15 -9.9 -2.95 L-11.1 -2.65 -11.75 -2.55 Q-12.95 -2.2 -13.05 -0.95" fill="#666666" fill-rule="evenodd" stroke="none"/>
    <path d="M-4.6 1.55 L-4.55 1.75 -3.65 3.85 -3.1 4.65 -3.35 4.65 -3.65 4.6 -3.85 4.6 -4.0 4.6 -4.25 4.5 -4.9 4.4 -4.95 4.35 -5.0 4.35 -5.25 4.35 -5.55 4.3 -5.6 4.3 -6.0 4.25 -5.95 4.25 -6.3 4.15 -7.3 3.85 Q-8.35 3.4 -9.5 3.3 L-9.5 3.35 -9.55 3.25 -9.6 3.35 -9.75 3.35 -9.8 3.35 -9.9 3.35 -10.0 3.35 -10.4 3.4 -10.5 3.4 -10.75 3.4 -10.9 3.45 -11.15 3.35 -11.25 3.4 -11.6 3.25 Q-12.45 3.05 -13.05 2.45 L-13.6 1.8 -13.8 1.5 -14.0 1.15 -14.35 0.0 -14.35 -0.1 -14.35 -0.2 -14.25 -0.8 -14.0 -1.35 -13.8 0.2 Q-13.05 1.5 -11.45 1.55 L-10.7 1.5 -8.35 1.1 -8.15 0.65 -7.9 0.25 Q-7.4 -1.0 -6.1 -1.45 -5.55 -1.65 -5.45 -1.05 L-5.55 -0.5 Q-5.3 0.3 -5.45 1.15 L-5.45 1.7 -5.4 1.75 -5.15 1.95 -5.05 1.95 -4.6 1.55 M-14.2 -0.25 L-14.2 -0.2 -13.9 0.0 -14.2 -0.25 M-7.35 0.3 L-7.35 0.35 -7.35 0.3 M-6.6 2.6 L-6.6 2.65 -6.55 2.65 -6.6 2.6" fill="#515151" fill-rule="evenodd" stroke="none"/>
    <path d="M-14.2 -0.25 L-13.9 0.0 -14.2 -0.2 -14.2 -0.25" fill="#cc0000" fill-rule="evenodd" stroke="none"/>
    <path d="M-13.05 -0.95 Q-12.95 -2.2 -11.75 -2.55 L-11.1 -2.65 -9.9 -2.95 Q-8.95 -3.15 -8.85 -2.25 -8.8 -1.8 -9.1 -1.4 L-9.65 -0.85 Q-11.0 0.35 -12.7 -0.35 -13.1 -0.5 -13.05 -0.95" fill="#868686" fill-rule="evenodd" stroke="none"/>
  </g>
</svg>
