<?xml version="1.0" encoding="UTF-8" standalone="no"?>
<svg xmlns:xlink="http://www.w3.org/1999/xlink" height="11.2px" width="30.0px" xmlns="http://www.w3.org/2000/svg">
  <g transform="matrix(1.0, 0.0, 0.0, 1.0, 15.2, 5.25)">
    <path d="M4.8 2.9 L5.5 0.8 5.6 0.5 5.7 0.3 6.05 -2.3 6.0 -2.65 5.9 -2.95 5.65 -3.85 4.5 -4.1 4.2 -4.15 4.05 -4.15 3.85 -4.2 2.9 -4.35 2.85 -4.35 3.15 -3.9 3.6 -2.3 Q4.05 -0.85 3.65 0.8 L3.25 1.8 2.1 2.6 0.7 3.1 -0.65 2.9 -1.2 2.95 -1.5 2.9 -2.45 2.0 -3.25 1.0 -3.7 -0.3 -3.6 -1.65 -3.2 -3.3 -3.05 -3.65 Q-2.85 -4.05 -2.95 -4.25 L-2.85 -4.3 -2.8 -4.35 -2.4 -4.4 -2.85 -4.35 -2.95 -4.35 -3.4 -4.25 -3.0 -4.35 -3.6 -4.55 -3.9 -4.4 -4.35 -4.1 -4.45 -4.1 -4.75 -4.05 -5.65 -3.85 -5.7 -3.85 Q-5.65 -3.65 -5.75 -3.4 L-5.75 -3.35 -6.05 -2.85 -6.4 -2.2 -6.45 -0.65 -6.4 -0.25 Q-6.25 0.1 -6.25 0.55 L-6.25 0.75 -6.1 1.65 -6.05 1.9 -6.0 2.05 -5.6 3.2 -5.45 3.6 -5.4 3.75 -5.1 4.4 -4.85 4.45 -4.45 4.5 -4.2 4.6 -4.05 4.6 -3.85 4.6 -3.55 4.65 -3.3 4.65 -2.6 4.8 -1.85 4.75 -2.05 4.7 -1.75 4.75 -1.7 4.75 -1.15 4.75 -0.7 4.75 -0.55 4.75 -0.45 4.7 -0.3 4.75 -0.25 4.75 0.0 4.75 0.25 4.75 0.3 4.75 0.45 4.7 0.55 4.75 1.2 4.75 3.05 4.7 3.6 4.65 3.9 4.6 4.0 4.5 4.0 4.45 4.15 4.2 4.45 3.7 4.8 2.9 M4.35 -4.75 L4.75 -4.7 5.4 -4.55 5.95 -4.35 6.25 -4.25 6.7 -4.5 6.95 -4.6 Q7.85 -4.8 8.4 -4.1 L8.75 -3.9 8.9 -3.75 9.4 -3.65 9.45 -3.65 11.05 -3.6 11.55 -3.6 11.6 -3.6 11.95 -3.5 Q12.0 -3.9 12.35 -4.2 L12.45 -4.25 12.55 -4.2 12.6 -4.15 12.5 -3.35 12.5 -3.3 12.55 -3.3 Q13.75 -2.9 14.45 -1.75 L14.6 -1.45 Q15.15 0.45 14.3 2.25 L13.85 2.75 13.65 2.95 13.45 3.1 11.9 3.7 10.75 3.9 10.35 4.0 10.35 3.95 8.95 4.05 8.15 4.2 7.8 4.8 6.65 5.7 4.5 5.85 4.1 5.7 3.8 5.3 3.7 5.25 3.65 5.2 3.7 5.15 0.3 5.3 0.0 5.3 -0.3 5.3 -5.05 5.0 Q-5.25 5.35 -5.7 5.45 L-5.8 5.5 -7.05 5.45 -7.45 5.35 -8.4 4.65 -8.75 4.1 -8.95 4.05 -10.35 3.95 -10.35 4.0 -10.4 4.0 -11.45 3.85 -13.25 3.15 -12.9 3.3 -13.2 3.65 -13.25 3.7 -13.55 3.6 -13.3 3.15 -13.45 3.1 -13.65 2.95 -13.85 2.75 -14.25 2.25 Q-15.0 0.8 -14.75 -0.7 L-14.85 -0.65 Q-15.3 -0.65 -15.2 -1.0 L-15.1 -1.1 -14.7 -0.95 -14.55 -1.45 -14.4 -1.75 -14.0 -2.3 -14.2 -2.65 -14.25 -2.75 -14.2 -2.8 -14.15 -2.85 -14.1 -2.9 -13.95 -2.85 -13.75 -2.6 -12.5 -3.3 -11.6 -3.6 -11.55 -3.6 -11.05 -3.6 -9.45 -3.65 -9.4 -3.65 -8.9 -3.7 -8.4 -4.3 Q-7.95 -4.75 -7.3 -4.65 -6.6 -4.7 -6.15 -4.25 L-5.95 -4.35 -5.35 -4.55 -4.75 -4.7 -4.3 -4.75 -3.3 -5.0 -2.15 -5.1 -0.4 -5.25 -0.25 -5.25 0.0 -5.25 0.3 -5.25 0.4 -5.25 2.15 -5.1 3.3 -5.0 4.35 -4.75 M0.1 -4.7 L0.05 -4.7 0.1 -4.6 0.1 -4.7 M8.45 1.8 L8.5 1.65 8.55 1.1 8.6 0.65 8.6 -0.8 8.6 -1.75 8.6 -2.0 8.6 -2.05 8.5 -2.65 8.45 -2.95 8.45 -3.2 8.15 -3.9 Q7.85 -4.25 7.25 -4.3 L7.05 -4.25 6.95 -4.2 6.85 -4.1 6.75 -3.9 6.7 -3.85 6.7 -3.5 6.75 -3.35 6.75 -3.3 6.8 -3.15 6.65 -1.95 6.6 -1.65 Q6.45 -0.15 5.9 1.2 L5.15 3.2 5.0 3.5 4.6 4.5 4.7 4.45 4.6 4.7 Q4.5 4.85 4.55 5.05 L4.55 5.1 4.7 5.25 6.6 5.1 6.6 5.05 6.8 4.95 6.9 4.95 7.0 4.85 7.6 4.35 7.75 4.15 8.05 3.55 8.15 3.2 8.2 3.0 8.3 2.45 8.45 1.8 M1.3 -0.55 L1.3 -0.4 1.35 -0.4 1.3 -0.55 M9.15 -3.4 L9.3 -3.45 9.15 -3.45 9.15 -3.4 M14.35 -1.15 L14.2 -1.4 13.55 -1.45 13.55 -1.65 13.75 -1.8 13.95 -1.8 Q13.15 -2.9 11.8 -3.3 L11.7 -3.3 11.75 -3.3 10.0 -3.2 9.2 -3.25 Q9.65 -2.7 9.6 -1.85 L9.5 -0.4 9.35 0.8 9.2 1.15 9.15 1.25 9.15 1.6 9.1 1.9 9.0 2.2 8.4 3.55 9.75 3.35 9.8 3.25 9.8 3.35 10.05 3.3 11.0 3.4 11.15 3.45 11.35 3.35 11.5 3.4 11.8 3.25 Q12.65 3.05 13.25 2.45 L13.8 1.8 14.05 1.5 14.2 1.15 14.55 0.0 14.55 -0.2 14.5 -0.7 14.35 -1.15 M13.35 1.25 L13.05 1.45 13.1 0.95 13.15 0.95 13.2 0.9 13.25 0.9 13.5 1.15 13.35 1.25 M11.5 -1.2 L11.85 -1.4 12.05 -1.25 Q11.9 -0.75 11.55 -1.05 L11.5 -1.2 M12.45 -0.1 L12.3 -0.05 12.15 -0.25 12.3 -0.5 12.4 -0.5 Q12.85 -0.35 12.45 -0.1 M14.55 -1.1 L14.55 -1.05 14.55 -1.1 M13.7 1.75 L13.75 1.75 13.7 1.75 M11.0 0.45 L10.9 0.75 10.8 0.85 Q10.4 0.8 10.65 0.4 10.7 0.3 10.8 0.3 10.95 0.3 11.0 0.45 M1.05 1.75 L1.1 1.85 1.15 1.85 1.05 1.75 M1.0 1.7 L0.95 1.65 0.95 1.7 0.9 1.85 0.95 1.7 1.0 1.7 M-11.75 -3.3 L-11.65 -3.3 -11.8 -3.3 Q-13.25 -2.9 -14.05 -1.65 L-14.2 -1.35 -14.45 -0.8 -14.55 -0.2 -14.55 -0.1 -14.55 0.0 -14.45 0.6 -14.25 1.05 -14.2 1.15 -14.0 1.5 -13.8 1.8 -13.25 2.45 Q-12.65 3.05 -11.8 3.25 L-11.45 3.4 -11.35 3.35 -11.1 3.45 -10.95 3.4 -10.7 3.4 -10.6 3.4 -10.2 3.35 -10.1 3.35 -10.0 3.35 -9.95 3.35 -9.8 3.35 -9.75 3.25 -9.7 3.35 -9.7 3.3 -8.9 3.45 -9.05 3.05 -9.05 3.0 -9.5 2.1 -9.7 1.4 -9.8 1.2 Q-10.05 -0.1 -9.9 -1.4 L-9.45 -2.9 -9.25 -3.35 -11.75 -3.3 M-14.5 -1.05 L-14.55 -1.1 -14.55 -1.05 -14.5 -1.05 M-12.85 -1.3 L-12.75 -1.4 Q-12.25 -1.35 -12.45 -1.0 L-12.5 -0.95 Q-12.7 -0.9 -12.85 -1.1 L-12.85 -1.2 -12.85 -1.3 M-11.7 -2.05 L-11.4 -2.25 Q-10.95 -2.1 -11.3 -1.65 -11.4 -1.5 -11.55 -1.65 -11.8 -1.75 -11.7 -2.05 M-12.1 -0.4 Q-11.65 -0.25 -12.0 0.05 L-12.2 0.05 Q-12.55 -0.2 -12.2 -0.4 L-12.1 -0.4 M-10.85 -0.45 L-10.85 -0.6 -10.8 -0.7 -10.75 -0.7 -10.65 -0.7 -10.55 -0.6 -10.55 -0.55 -10.55 -0.45 -10.65 -0.4 -10.8 -0.4 -10.85 -0.45 M-6.6 -3.95 L-6.7 -4.1 Q-6.9 -4.35 -7.3 -4.3 L-8.2 -3.9 -8.3 -3.8 -8.5 -3.35 -8.5 -3.05 -8.55 -3.05 -8.6 -2.85 -8.85 -2.6 -9.2 -1.35 -9.3 -1.15 -9.4 0.55 -9.45 0.75 -9.35 1.15 -9.25 1.8 -9.2 2.05 -8.95 2.65 -8.85 2.95 -8.85 3.1 -8.75 3.25 -8.7 3.3 -8.55 3.5 -8.5 3.8 -8.3 4.1 -8.2 4.2 Q-7.6 4.85 -6.6 5.05 L-6.45 5.1 -5.85 5.0 -5.7 4.9 Q-5.5 4.7 -5.6 4.45 L-5.7 4.3 -5.6 4.3 -5.8 3.9 -5.85 3.85 -5.85 3.8 -6.15 3.15 -6.4 2.3 -6.5 2.05 -6.6 1.3 -6.8 0.35 -6.8 0.05 -6.9 -1.1 -6.9 -1.2 -6.85 -2.6 -6.85 -2.9 -6.8 -3.1 -6.8 -3.2 -6.6 -3.6 -6.6 -3.95 M-5.1 -0.6 L-5.1 -0.65 -4.95 -0.6 Q-4.75 -0.4 -5.05 -0.25 L-5.2 -0.2 -5.35 -0.2 -5.35 -0.25 -5.4 -0.25 -5.4 -0.3 -5.4 -0.4 -5.1 -0.6 M-2.5 -4.1 L-2.45 -4.1 -2.15 -4.3 -2.5 -4.1 M-0.05 -4.7 L-0.05 -4.6 -0.05 -4.7 M-1.3 -0.4 L-1.3 -0.55 -1.3 -0.4 M-1.05 1.75 L-1.1 1.85 -1.05 1.85 -1.05 1.75 M-0.95 1.7 L-0.9 1.85 -0.9 1.7 -0.95 1.65 -0.95 1.7 M-6.8 2.6 L-6.75 2.65 -6.8 2.65 -6.8 2.6" fill="#23252e" fill-rule="evenodd" stroke="none"/>
    <path d="M14.5 -0.7 L14.3 -1.15 14.35 -1.15 14.5 -0.7" fill="#993333" fill-rule="evenodd" stroke="none"/>
    <path d="M0.1 -4.7 L0.1 -4.6 0.05 -4.7 0.1 -4.7 M-0.05 -4.7 L-0.05 -4.6 -0.05 -4.7" fill="#cc9900" fill-rule="evenodd" stroke="none"/>
    <path d="M4.45 3.55 L4.8 2.9 4.45 3.7 4.15 4.2 4.0 4.45 4.35 3.65 4.45 3.55 M1.3 -0.55 L1.35 -0.4 1.3 -0.4 1.3 -0.55 M6.75 -3.9 L6.85 -4.1 6.95 -4.2 7.05 -4.25 7.25 -4.3 Q7.85 -4.25 8.15 -3.9 L8.45 -3.2 8.45 -2.95 8.5 -2.65 8.6 -2.05 8.6 -2.0 8.6 -1.75 8.6 -0.8 8.6 0.65 8.55 1.1 8.5 1.65 8.45 1.8 8.3 2.45 7.85 2.6 8.0 2.55 8.3 2.45 8.2 3.0 7.9 3.05 Q7.45 3.7 6.6 3.8 L6.5 3.75 5.6 3.75 6.3 2.15 6.8 0.05 7.0 -1.4 Q7.2 -2.8 6.85 -4.05 L6.75 -3.9 M7.6 0.3 L7.55 0.3 7.55 0.35 7.6 0.3 M1.0 1.7 L0.95 1.7 0.9 1.85 0.95 1.7 0.95 1.65 1.0 1.7 M-9.25 -3.35 L-9.45 -2.9 -9.45 -3.3 -9.25 -3.35 M-6.6 -3.95 L-6.95 -3.4 Q-7.55 -2.0 -7.6 -0.5 L-7.55 0.05 Q-7.4 0.8 -7.4 1.5 L-7.25 2.55 -8.95 2.5 -8.95 2.55 -9.05 2.25 -9.1 2.0 -9.2 2.05 -9.25 1.8 -9.1 1.5 -9.25 1.25 -9.25 1.2 -9.4 0.55 -9.3 -1.15 -9.2 -1.35 -8.85 -2.6 -8.6 -2.85 -8.55 -3.05 -8.5 -3.05 -8.5 -3.35 -8.3 -3.8 -8.2 -3.9 -7.3 -4.3 Q-6.9 -4.35 -6.7 -4.1 L-6.6 -3.95 M-5.85 3.85 L-5.95 3.8 -5.85 3.8 -5.85 3.85 M-1.3 -0.4 L-1.3 -0.55 -1.3 -0.4 M-0.95 1.7 L-0.95 1.65 -0.9 1.7 -0.9 1.85 -0.95 1.7 M-7.55 0.35 L-7.55 0.3 -7.55 0.35" fill="#996600" fill-rule="evenodd" stroke="none"/>
    <path d="M9.15 -3.4 L9.15 -3.45 9.3 -3.45 9.15 -3.4" fill="#333933" fill-rule="evenodd" stroke="none"/>
    <path d="M14.55 -1.1 L14.55 -1.05 14.55 -1.1 M-14.5 -1.05 L-14.55 -1.05 -14.55 -1.1 -14.5 -1.05" fill="#a4a4ff" fill-rule="evenodd" stroke="none"/>
    <path d="M-2.5 -4.1 L-2.15 -4.3 -2.45 -4.1 -2.5 -4.1" fill="#660000" fill-rule="evenodd" stroke="none"/>
    <path d="M7.6 0.3 L7.55 0.35 7.55 0.3 7.6 0.3 M-7.55 0.35 L-7.55 0.3 -7.55 0.35" fill="#a66600" fill-rule="evenodd" stroke="none"/>
    <path d="M-4.85 0.75 L-4.75 0.75 -4.8 0.8 -4.85 0.75" fill="#595988" fill-rule="evenodd" stroke="none"/>
    <path d="M1.05 1.75 L1.15 1.85 1.1 1.85 1.05 1.75 M-1.05 1.75 L-1.05 1.85 -1.1 1.85 -1.05 1.75" fill="#754900" fill-rule="evenodd" stroke="none"/>
    <path d="M-2.95 -4.25 L-2.95 -4.35 -2.85 -4.35 -2.4 -4.4 -2.8 -4.35 -2.85 -4.3 -2.95 -4.25 M-11.8 -3.3 L-11.65 -3.3 -11.75 -3.3 -11.8 -3.3" fill="#666666" fill-rule="evenodd" stroke="none"/>
    <path d="M-14.1 0.0 L-14.4 -0.2 -14.4 -0.25 -14.1 0.0" fill="#cc0000" fill-rule="evenodd" stroke="none"/>
    <path d="M-2.95 -4.25 Q-2.85 -4.05 -3.05 -3.65 L-3.2 -3.3 -3.6 -1.65 -3.7 -0.3 -3.25 1.0 -2.45 2.0 -1.5 2.9 -1.2 2.95 -0.65 2.9 0.7 3.1 2.1 2.6 3.25 1.8 3.65 0.8 Q4.05 -0.85 3.6 -2.3 L3.15 -3.9 2.85 -4.35 2.9 -4.35 3.85 -4.2 4.05 -4.15 4.2 -4.15 4.5 -4.1 5.65 -3.85 5.9 -2.95 6.0 -2.65 6.05 -2.3 5.7 0.3 5.6 0.5 5.5 0.8 4.8 2.9 4.45 3.55 3.15 3.75 1.75 3.7 0.35 3.7 -1.05 3.5 -2.2 3.0 -3.85 2.2 -3.8 2.4 -3.8 2.45 -6.0 2.05 -6.05 1.9 -6.1 1.65 -6.25 0.75 -6.25 0.55 Q-6.25 0.1 -6.4 -0.25 L-6.45 -0.65 -6.4 -2.2 -6.05 -2.85 -5.75 -3.35 -5.75 -3.4 Q-5.65 -3.65 -5.7 -3.85 L-5.65 -3.85 -4.75 -4.05 -4.45 -4.1 -4.35 -4.1 -3.9 -4.4 -3.6 -4.55 -3.0 -4.35 -3.4 -4.25 -2.95 -4.35 -2.95 -4.25 M8.45 1.8 L8.3 2.45 8.0 2.55 7.85 2.6 8.3 2.45 8.45 1.8 M9.0 2.2 L9.1 1.9 9.15 1.6 9.15 1.25 9.2 1.15 9.35 0.8 9.5 -0.4 9.6 -1.85 Q9.65 -2.7 9.2 -3.25 L10.0 -3.2 11.75 -3.3 11.7 -3.3 11.8 -3.3 Q13.15 -2.9 13.95 -1.8 L13.75 -1.8 13.55 -1.65 13.55 -1.45 14.2 -1.4 14.35 -1.15 14.3 -1.15 14.5 -0.7 14.55 -0.2 13.5 1.1 13.5 1.15 13.25 0.9 13.2 0.9 13.15 0.95 13.1 0.95 13.05 1.45 13.35 1.25 12.05 1.8 11.1 1.95 9.15 2.15 9.0 2.2 M12.45 -0.1 Q12.85 -0.35 12.4 -0.5 L12.3 -0.5 12.15 -0.25 12.3 -0.05 12.45 -0.1 M11.5 -1.2 L11.55 -1.05 Q11.9 -0.75 12.05 -1.25 L11.85 -1.4 11.5 -1.2 M11.0 0.45 Q10.95 0.3 10.8 0.3 10.7 0.3 10.65 0.4 10.4 0.8 10.8 0.85 L10.9 0.75 11.0 0.45 M-11.8 -3.3 L-11.75 -3.3 -9.25 -3.35 -9.45 -3.3 -9.45 -2.9 -9.9 -1.4 Q-10.05 -0.1 -9.8 1.2 L-9.7 1.4 -9.5 2.1 -10.55 2.2 -12.5 2.05 Q-13.65 1.75 -14.25 0.7 L-14.45 0.35 -14.5 0.15 -14.45 0.6 -14.55 0.0 -14.55 -0.1 -14.55 -0.2 -14.45 -0.8 -14.2 -1.35 -14.05 -1.65 Q-13.25 -2.9 -11.8 -3.3 M-14.1 0.0 L-14.4 -0.25 -14.4 -0.2 -14.1 0.0 M-10.85 -0.45 L-10.8 -0.4 -10.65 -0.4 -10.55 -0.45 -10.55 -0.55 -10.55 -0.6 -10.65 -0.7 -10.75 -0.7 -10.8 -0.7 -10.85 -0.6 -10.85 -0.45 M-12.1 -0.4 L-12.2 -0.4 Q-12.55 -0.2 -12.2 0.05 L-12.0 0.05 Q-11.65 -0.25 -12.1 -0.4 M-11.7 -2.05 Q-11.8 -1.75 -11.55 -1.65 -11.4 -1.5 -11.3 -1.65 -10.95 -2.1 -11.4 -2.25 L-11.7 -2.05 M-12.85 -1.3 L-12.85 -1.2 -12.85 -1.1 Q-12.7 -0.9 -12.5 -0.95 L-12.45 -1.0 Q-12.25 -1.35 -12.75 -1.4 L-12.85 -1.3 M-9.4 0.55 L-9.25 1.2 -9.25 1.25 -9.1 1.5 -9.25 1.8 -9.35 1.15 -9.45 0.75 -9.4 0.55 M-5.1 -0.6 L-5.4 -0.4 -5.4 -0.3 -5.4 -0.25 -5.35 -0.25 -5.35 -0.2 -5.2 -0.2 -5.05 -0.25 Q-4.75 -0.4 -4.95 -0.6 L-5.1 -0.65 -5.1 -0.6 M-4.85 0.75 L-4.8 0.8 -4.75 0.75 -4.85 0.75" fill="#990033" fill-rule="evenodd" stroke="none"/>
    <path d="M-6.0 2.05 L-3.8 2.45 -3.8 2.4 -3.85 2.2 -2.2 3.0 -1.05 3.5 0.35 3.7 1.75 3.7 3.15 3.75 4.45 3.55 4.35 3.65 4.0 4.45 4.0 4.5 3.9 4.6 3.6 4.65 3.05 4.7 1.2 4.75 0.55 4.75 0.45 4.7 0.3 4.75 0.25 4.75 0.0 4.75 -0.25 4.75 -0.3 4.75 -0.45 4.7 -0.55 4.75 -0.7 4.75 -1.15 4.75 -1.7 4.75 -1.75 4.75 -2.05 4.7 -1.85 4.75 -2.6 4.8 -3.3 4.65 -3.55 4.65 -3.85 4.6 -4.05 4.6 -4.2 4.6 -4.45 4.5 -4.85 4.45 -5.1 4.4 -5.4 3.75 -5.45 3.6 -5.6 3.2 -6.0 2.05 M9.0 2.2 L9.15 2.15 11.1 1.95 12.05 1.8 13.35 1.25 13.5 1.15 13.5 1.1 14.55 -0.2 14.55 0.0 14.2 1.15 14.05 1.5 13.8 1.8 13.25 2.45 Q12.65 3.05 11.8 3.25 L11.5 3.4 11.35 3.35 11.15 3.45 11.0 3.4 10.05 3.3 9.8 3.35 9.8 3.25 9.75 3.35 8.4 3.55 9.0 2.2 M13.7 1.75 L13.75 1.75 13.7 1.75 M-9.5 2.1 L-9.05 3.0 -9.05 3.05 -8.9 3.45 -9.7 3.3 -9.7 3.35 -9.75 3.25 -9.8 3.35 -9.95 3.35 -10.0 3.35 -10.1 3.35 -10.2 3.35 -10.6 3.4 -10.7 3.4 -10.95 3.4 -11.1 3.45 -11.35 3.35 -11.45 3.4 -11.8 3.25 Q-12.65 3.05 -13.25 2.45 L-13.8 1.8 -14.0 1.5 -14.2 1.15 -14.25 1.05 -14.45 0.6 -14.5 0.15 -14.45 0.35 -14.25 0.7 Q-13.65 1.75 -12.5 2.05 L-10.55 2.2 -9.5 2.1 M-9.2 2.05 L-9.1 2.0 -9.05 2.25 -8.95 2.55 -8.95 2.6 -8.95 2.65 -9.2 2.05 M-8.85 2.95 L-8.75 3.25 -8.7 3.3 -8.75 3.25 -8.85 3.1 -8.85 2.95" fill="#660033" fill-rule="evenodd" stroke="none"/>
    <path d="M8.2 3.0 L8.15 3.2 8.05 3.55 7.75 4.15 7.6 4.35 7.0 4.85 6.9 4.95 6.8 4.95 6.6 5.05 6.6 5.1 4.7 5.25 4.55 5.1 4.55 5.05 Q4.5 4.85 4.6 4.7 L4.7 4.45 4.6 4.5 5.0 3.5 5.15 3.2 5.9 1.2 Q6.45 -0.15 6.6 -1.65 L6.65 -1.95 6.8 -3.15 6.75 -3.3 6.75 -3.35 6.7 -3.5 6.7 -3.85 6.75 -3.9 6.85 -4.05 Q7.2 -2.8 7.0 -1.4 L6.8 0.05 6.3 2.15 5.6 3.75 6.5 3.75 6.6 3.8 Q7.45 3.7 7.9 3.05 L8.2 3.0 M-8.95 2.55 L-8.95 2.5 -7.25 2.55 -7.4 1.5 Q-7.4 0.8 -7.55 0.05 L-7.6 -0.5 Q-7.55 -2.0 -6.95 -3.4 L-6.6 -3.95 -6.6 -3.6 -6.8 -3.2 -6.8 -3.1 -6.85 -2.9 -6.85 -2.6 -6.9 -1.2 -6.9 -1.1 -6.8 0.05 -6.8 0.35 -6.6 1.3 -6.5 2.05 -6.4 2.3 -6.15 3.15 -5.85 3.8 -5.95 3.8 -5.85 3.85 -5.8 3.9 -5.6 4.3 -5.7 4.3 -5.6 4.45 Q-5.5 4.7 -5.7 4.9 L-5.85 5.0 -6.45 5.1 -6.6 5.05 Q-7.6 4.85 -8.2 4.2 L-8.3 4.1 -8.5 3.8 -8.55 3.5 -8.7 3.3 -8.75 3.25 -8.85 2.95 -8.95 2.65 -8.95 2.6 -8.95 2.55 M-6.8 2.6 L-6.8 2.65 -6.75 2.65 -6.8 2.6" fill="#663300" fill-rule="evenodd" stroke="none"/>
  </g>
</svg>
