<?xml version="1.0" encoding="UTF-8" standalone="no"?>
<svg xmlns:xlink="http://www.w3.org/1999/xlink" height="16.0px" width="31.2px" xmlns="http://www.w3.org/2000/svg">
  <g transform="matrix(1.0, 0.0, 0.0, 1.0, 15.85, 6.2)">
    <path d="M14.55 -1.25 L14.8 -1.15 14.85 -1.2 14.9 -1.05 14.85 -1.05 14.8 -1.1 14.55 -1.25 M-8.0 0.2 L-8.05 0.2 -8.1 -0.05 -7.95 -0.1 -8.0 0.15 -8.0 0.2 M-4.85 -4.4 Q-4.45 -4.65 -4.3 -5.05 L-4.1 -5.1 -4.0 -5.1 Q-4.6 -4.7 -4.75 -3.95 L-4.85 -3.6 -4.9 -3.6 -4.9 -3.7 -4.85 -3.95 -4.85 -4.25 -4.85 -4.4 M2.6 6.0 L2.35 5.85 -0.75 6.0 -0.8 6.0 -0.9 6.0 Q-1.75 6.15 -2.45 5.7 L-3.05 5.25 -3.4 4.95 -3.85 4.65 -4.05 4.55 -4.05 4.3 -4.45 3.2 -4.05 2.75 -2.3 4.05 -1.4 4.0 0.25 4.05 Q2.6 4.25 3.35 2.25 L3.55 1.6 4.35 -0.7 4.8 0.05 Q5.25 0.6 5.25 1.25 L5.2 1.95 4.85 2.8 3.9 4.45 2.8 5.95 2.6 6.0 M8.75 -1.15 Q8.45 -2.35 7.7 -3.25 7.15 -3.9 6.4 -4.4 L5.35 -4.9 7.15 -4.35 7.7 -4.15 9.7 -3.85 11.25 -3.95 12.1 -3.95 13.15 -3.5 13.9 -2.7 13.85 -2.7 13.7 -2.6 13.35 -2.1 12.9 -1.6 12.65 -1.45 12.2 -1.4 11.25 -1.55 10.55 -1.45 8.75 -1.1 8.75 -1.15 M-7.9 -2.15 L-11.15 -1.55 -10.4 -1.7 -10.6 -1.85 -10.9 -2.0 -12.85 -2.5 -12.95 -2.55 -13.6 -2.75 Q-12.85 -3.7 -11.4 -3.95 L-7.95 -4.25 -6.4 -4.55 Q-7.3 -3.8 -7.6 -2.55 L-7.6 -2.3 -7.85 -2.15 -7.9 -2.15" fill="#666699" fill-rule="evenodd" stroke="none"/>
    <path d="M-3.05 5.25 L-3.25 5.15 -4.15 4.65 -4.9 3.85 Q-5.6 2.45 -5.6 0.9 -5.6 -0.6 -5.15 -1.95 L-5.05 -2.3 Q-4.9 -3.2 -4.35 -3.85 L-4.05 -4.2 -3.95 -4.25 Q-4.5 -3.3 -4.55 -2.15 -4.6 -0.85 -4.0 0.3 -3.35 1.45 -2.2 2.1 L0.45 2.2 Q2.35 1.3 3.1 -0.65 L3.3 -1.8 3.25 -2.8 3.7 -2.45 4.6 -1.85 4.65 -1.8 4.65 -1.55 4.35 -0.7 3.55 1.6 3.35 2.25 Q2.6 4.25 0.25 4.05 L-1.4 4.0 -2.3 4.05 -4.05 2.75 -4.45 3.2 -4.05 4.3 -4.05 4.55 -3.85 4.65 -3.4 4.95 -3.05 5.25 M2.15 -5.2 L1.7 -5.5 1.45 -5.55 2.35 -5.45 2.4 -5.45 2.15 -5.2 M8.75 -1.15 L7.5 -0.9 7.0 -1.4 6.85 -2.5 6.8 -2.75 Q6.55 -3.55 5.9 -4.1 5.25 -4.75 4.4 -5.1 L4.15 -5.15 4.55 -5.1 4.7 -5.05 5.35 -4.9 6.4 -4.4 Q7.15 -3.9 7.7 -3.25 8.45 -2.35 8.75 -1.15 M13.9 -2.7 L14.25 -2.25 14.45 -1.95 14.6 -1.7 13.55 -1.65 12.9 -1.6 13.35 -2.1 13.7 -2.6 13.85 -2.7 13.9 -2.7 M14.6 0.1 L14.65 0.45 Q14.4 1.45 13.75 2.25 L13.65 2.25 Q13.3 2.3 13.1 2.65 L10.85 3.65 10.55 3.65 9.2 3.9 6.8 4.5 6.6 4.55 6.15 5.25 5.7 5.75 5.7 5.8 4.45 7.3 Q3.1 7.85 1.9 8.65 L1.65 8.8 1.6 8.9 -2.2 9.05 -4.7 7.75 -4.85 7.65 -6.3 6.65 Q-7.25 6.2 -7.6 5.15 L-7.8 4.75 Q-8.0 4.3 -7.8 3.9 L-10.15 3.6 Q-11.45 3.55 -12.8 2.9 -14.3 2.2 -14.45 0.65 L-13.25 0.9 -11.7 1.1 -9.1 1.15 -8.9 1.1 -8.65 1.05 -8.45 1.3 -8.35 1.75 -7.25 4.45 -6.9 5.1 Q-6.3 6.1 -5.2 6.65 L-4.1 7.2 -2.65 7.75 -1.05 8.05 -0.1 8.0 3.0 7.2 3.75 6.9 Q4.95 6.25 5.75 5.05 L6.75 3.05 7.0 2.6 7.7 1.45 9.25 1.25 10.15 1.15 13.05 0.45 13.3 0.45 14.1 0.35 14.9 -0.05 14.6 0.1 M-13.6 -2.75 L-12.95 -2.55 -12.85 -2.5 -10.9 -2.0 -10.6 -1.85 -10.4 -1.7 -11.15 -1.55 -7.9 -2.15 -8.3 -1.05 -11.5 -1.25 -11.9 -1.3 -13.3 -1.6 -13.3 -1.65 -14.1 -1.8 -13.6 -2.75 M-3.2 -5.25 L-3.0 -5.3 -2.7 -5.35 -3.2 -5.25" fill="#3e4966" fill-rule="evenodd" stroke="none"/>
    <path d="M7.2 -0.4 L7.2 -0.45 7.3 -0.45 7.55 -0.5 8.1 -0.6 8.5 -0.65 8.6 -0.65 8.75 -0.7 9.4 -0.8 9.55 -0.8 10.25 -1.05 11.0 -1.15 12.25 -1.05 12.65 -1.05 12.7 -1.05 13.85 -1.25 14.4 -1.3 14.45 -1.3 14.55 -1.25 14.8 -1.1 14.85 -1.05 14.85 -0.75 14.1 -0.55 13.35 -0.4 12.55 -0.35 8.5 0.1 8.3 0.2 Q7.75 0.6 7.35 0.0 L7.2 -0.4 M-5.15 6.35 L-5.2 6.35 -5.9 5.95 -6.05 5.85 Q-6.95 5.25 -7.2 4.25 L-7.25 4.1 -7.25 4.05 -7.45 3.3 -7.85 1.8 -8.0 0.9 -8.0 0.85 -8.0 0.8 -8.0 0.7 -8.0 0.35 -8.0 0.3 -8.0 0.2 -8.0 0.15 -7.95 -0.1 Q-7.7 -1.45 -7.05 -2.65 L-6.9 -2.9 -6.5 -3.65 -6.4 -3.8 -5.5 -4.65 -5.2 -4.7 -4.85 -4.4 -4.85 -4.25 -4.85 -3.95 -4.9 -3.7 -5.15 -3.6 -5.05 -3.25 -5.15 -3.0 -5.4 -2.7 -5.7 -2.2 -5.75 -2.2 Q-6.5 -1.65 -6.6 -0.7 L-6.65 -0.35 -6.7 -0.2 -6.85 1.4 -7.0 2.05 -6.45 4.25 -6.4 4.45 -6.0 5.2 -5.85 5.35 -5.0 6.2 -4.65 6.55 -5.15 6.35 M-15.3 0.0 L-15.45 -0.15 Q-15.75 -1.05 -14.95 -1.3 L-14.85 -1.35 -14.25 -1.35 -14.0 -1.35 -12.15 -1.05 -11.25 -0.75 -11.15 -0.7 -10.7 -0.7 Q-9.8 -1.05 -8.95 -0.7 L-8.9 -0.7 -8.75 -0.65 -8.7 -0.65 -8.65 -0.65 -8.55 -0.45 Q-8.5 -0.3 -8.6 -0.2 -8.9 0.3 -9.5 0.05 L-9.8 0.0 Q-10.95 0.45 -12.1 0.0 L-13.1 -0.25 -14.3 -0.25 -14.9 -0.1 -15.3 0.0 M-4.2 5.3 L-4.05 5.4 -3.6 5.75 -2.2 6.35 -1.35 6.4 -1.05 6.4 0.5 6.3 0.55 6.3 1.05 6.3 1.2 6.3 2.45 6.05 2.6 6.0 2.8 5.95 3.05 5.9 3.15 5.8 3.25 5.75 3.45 5.65 3.8 4.85 Q4.2 3.9 4.8 3.1 L5.0 2.8 5.65 1.8 Q5.9 0.75 5.25 -0.05 4.7 -0.75 4.65 -1.55 L4.65 -1.8 4.7 -2.45 4.6 -2.55 4.5 -2.65 4.3 -2.9 Q3.8 -3.05 3.4 -3.35 L3.1 -3.6 2.9 -3.9 Q2.35 -4.1 2.15 -4.7 L3.4 -4.3 3.6 -4.2 4.7 -3.35 5.1 -2.7 5.2 -2.45 6.15 -0.4 6.15 -0.2 5.95 1.25 5.95 1.8 Q6.05 3.35 5.05 4.55 L4.7 4.95 4.35 5.4 3.5 6.15 3.15 6.45 2.3 6.65 Q0.4 6.95 -1.55 6.65 L-3.2 6.35 -3.45 6.15 -4.15 5.95 -4.45 5.6 -4.45 5.55 -4.6 5.5 -4.7 5.5 -4.7 5.4 -4.65 5.4 -4.5 5.45 -4.4 5.45 -4.2 5.3" fill="#cccc99" fill-rule="evenodd" stroke="none"/>
    <path d="M2.4 -5.45 L3.9 -5.2 4.3 -4.85 4.95 -4.25 5.2 -4.1 5.5 -3.9 Q6.45 -2.9 6.2 -1.55 6.15 -1.45 6.25 -1.4 L6.95 -0.35 7.2 -0.4 7.35 0.0 Q7.75 0.6 8.3 0.2 L8.5 0.1 12.55 -0.35 13.35 -0.4 14.1 -0.55 14.85 -0.75 Q14.75 -0.15 14.2 0.05 L13.75 0.15 13.0 0.3 11.1 0.4 10.75 0.45 9.25 0.8 7.25 0.9 7.2 1.25 7.1 1.9 6.85 2.75 6.15 3.8 5.65 4.45 5.45 4.7 4.9 5.4 4.6 5.85 4.3 6.25 4.05 6.55 3.2 7.0 2.5 7.05 1.4 7.45 0.4 7.45 0.05 7.5 -2.9 7.4 -3.85 6.85 -5.15 6.35 -4.65 6.55 -5.0 6.2 -5.85 5.35 -6.0 5.2 -6.4 4.45 -6.45 4.25 -7.0 2.05 -6.85 1.4 -6.7 -0.2 -6.65 -0.35 -6.6 -0.7 Q-6.5 -1.65 -5.75 -2.2 L-5.7 -2.2 -6.15 -1.2 -6.15 -1.1 -6.5 0.85 -6.5 1.0 -6.1 2.95 -5.85 3.45 -5.55 4.35 -5.3 4.6 -4.2 5.3 -4.4 5.45 -4.5 5.45 -4.65 5.4 -4.7 5.4 -4.7 5.5 -4.6 5.5 -4.45 5.55 -4.45 5.6 -4.15 5.95 -3.45 6.15 -3.2 6.35 -1.55 6.65 Q0.4 6.95 2.3 6.65 L3.15 6.45 3.5 6.15 4.35 5.4 4.7 4.95 5.05 4.55 Q6.05 3.35 5.95 1.8 L5.95 1.25 6.15 -0.2 6.15 -0.4 5.2 -2.45 5.1 -2.7 4.7 -3.35 3.6 -4.2 3.4 -4.3 2.15 -4.7 2.1 -4.95 2.15 -5.2 2.4 -5.45 M-8.05 0.2 L-8.3 0.7 -9.8 0.75 -12.8 0.5 -13.1 0.4 -13.85 0.3 -14.5 0.2 -15.25 0.0 -15.3 0.0 -14.9 -0.1 -14.3 -0.25 -13.1 -0.25 -12.1 0.0 Q-10.95 0.45 -9.8 0.0 L-9.5 0.05 Q-8.9 0.3 -8.6 -0.2 -8.5 -0.3 -8.55 -0.45 L-8.65 -0.65 -8.7 -0.65 -8.4 -0.5 -8.1 -0.05 -8.05 0.2 M-4.9 -3.6 L-4.95 -3.6 -5.05 -3.25 -5.15 -3.6 -4.9 -3.7 -4.9 -3.6" fill="#999966" fill-rule="evenodd" stroke="none"/>
    <path d="M7.2 -0.4 L6.95 -0.35 6.25 -1.4 Q6.15 -1.45 6.2 -1.55 6.45 -2.9 5.5 -3.9 L5.2 -4.1 4.95 -4.25 4.3 -4.85 3.9 -5.2 2.4 -5.45 2.35 -5.45 1.45 -5.55 1.7 -5.5 2.15 -5.2 2.1 -4.95 2.15 -4.7 Q2.35 -4.1 2.9 -3.9 L3.1 -3.6 3.4 -3.35 Q3.8 -3.05 4.3 -2.9 L4.5 -2.65 4.6 -2.55 4.7 -2.45 4.65 -1.8 4.6 -1.85 3.7 -2.45 3.25 -2.8 3.3 -1.8 3.1 -0.65 Q2.35 1.3 0.45 2.2 L-2.2 2.1 Q-3.35 1.45 -4.0 0.3 -4.6 -0.85 -4.55 -2.15 -4.5 -3.3 -3.95 -4.25 L-4.05 -4.2 -4.35 -3.85 Q-4.9 -3.2 -5.05 -2.3 L-5.15 -1.95 Q-5.6 -0.6 -5.6 0.9 -5.6 2.45 -4.9 3.85 L-4.15 4.65 -3.25 5.15 -3.05 5.25 -2.45 5.7 Q-1.75 6.15 -0.9 6.0 L-0.8 6.0 -0.75 6.0 2.35 5.85 2.6 6.0 2.45 6.05 1.2 6.3 1.05 6.3 0.55 6.3 0.5 6.3 -1.05 6.4 -1.35 6.4 -2.2 6.35 -3.6 5.75 -4.05 5.4 -4.2 5.3 -5.3 4.6 -5.55 4.35 -5.85 3.45 -6.1 2.95 -6.5 1.0 -6.5 0.85 -6.15 -1.1 -6.15 -1.2 -5.7 -2.2 -5.4 -2.7 -5.15 -3.0 -5.05 -3.25 -4.95 -3.6 -4.9 -3.6 -4.85 -3.6 -4.75 -3.95 Q-4.6 -4.7 -4.0 -5.1 L-4.1 -5.1 -4.3 -5.05 Q-4.45 -4.65 -4.85 -4.4 L-5.2 -4.7 -5.5 -4.65 -6.4 -3.8 -6.5 -3.65 -6.9 -2.9 -7.05 -2.65 Q-7.7 -1.45 -7.95 -0.1 L-8.1 -0.05 -8.4 -0.5 -8.7 -0.65 -8.75 -0.65 -8.9 -0.7 -8.95 -0.7 Q-9.8 -1.05 -10.7 -0.7 L-11.15 -0.7 -11.25 -0.75 -12.15 -1.05 -14.0 -1.35 -14.25 -1.35 -14.85 -1.35 -14.95 -1.3 Q-15.75 -1.05 -15.45 -0.15 L-15.3 0.0 -15.25 0.0 -14.5 0.2 -13.85 0.3 -13.1 0.4 -12.8 0.5 -9.8 0.75 -8.3 0.7 -8.05 0.2 -8.0 0.2 -8.0 0.3 -8.0 0.35 -8.0 0.7 -8.0 0.8 -8.0 0.85 -8.0 0.9 -7.85 1.8 -7.45 3.3 -7.25 4.05 -7.25 4.1 -7.2 4.25 Q-6.95 5.25 -6.05 5.85 L-5.9 5.95 -5.2 6.35 -5.15 6.35 -3.85 6.85 -2.9 7.4 0.05 7.5 0.4 7.45 1.4 7.45 2.5 7.05 3.2 7.0 4.05 6.55 4.3 6.25 4.6 5.85 4.9 5.4 5.45 4.7 5.65 4.45 6.15 3.8 6.85 2.75 7.1 1.9 7.2 1.25 7.25 0.9 9.25 0.8 10.75 0.45 11.1 0.4 13.0 0.3 13.75 0.15 14.2 0.05 Q14.75 -0.15 14.85 -0.75 L14.85 -1.05 14.9 -1.05 14.85 -1.2 14.8 -1.15 14.55 -1.25 14.45 -1.3 14.4 -1.3 13.85 -1.25 12.7 -1.05 12.65 -1.05 12.25 -1.05 11.0 -1.15 10.25 -1.05 9.55 -0.8 9.4 -0.8 8.75 -0.7 8.6 -0.65 8.5 -0.65 8.1 -0.6 7.55 -0.5 7.3 -0.45 7.2 -0.45 7.2 -0.4 M5.0 -5.55 L7.8 -4.55 8.35 -4.35 11.2 -4.3 11.5 -4.3 12.25 -4.15 13.2 -3.7 14.45 -2.6 14.8 -1.95 15.05 -1.3 15.3 -0.7 15.35 -0.1 Q15.45 0.8 14.9 1.45 L14.8 1.55 Q13.5 3.4 11.3 3.85 L11.05 3.9 7.4 4.95 6.45 5.35 6.4 5.4 Q5.9 6.45 5.0 7.2 L4.25 7.7 2.8 8.6 2.45 8.9 1.5 9.25 Q-0.1 10.05 -1.85 9.65 L-2.3 9.55 Q-3.45 9.25 -4.4 8.45 L-5.1 7.9 -7.1 6.3 -7.95 5.3 -8.9 4.1 -11.7 3.55 -11.8 3.5 Q-13.15 3.5 -14.15 2.6 L-14.25 2.5 -14.6 1.7 -14.8 1.1 -14.85 0.8 -15.7 0.0 -15.85 -0.85 Q-15.65 -1.7 -14.8 -1.8 L-14.6 -2.2 -14.5 -2.4 -14.4 -2.6 -13.55 -3.5 -13.5 -3.55 -12.85 -4.1 -12.25 -4.35 -12.15 -4.35 -8.3 -4.75 -5.5 -5.1 -4.25 -5.35 -1.75 -5.85 -1.15 -5.95 0.65 -6.15 3.55 -5.95 4.4 -5.7 4.45 -5.7 5.0 -5.55 M5.35 -4.9 L4.7 -5.05 4.55 -5.1 4.15 -5.15 4.4 -5.1 Q5.25 -4.75 5.9 -4.1 6.55 -3.55 6.8 -2.75 L6.85 -2.5 7.0 -1.4 7.5 -0.9 8.75 -1.15 8.75 -1.1 10.55 -1.45 11.25 -1.55 12.2 -1.4 12.65 -1.45 12.9 -1.6 13.55 -1.65 14.6 -1.7 14.45 -1.95 14.25 -2.25 13.9 -2.7 13.15 -3.5 12.1 -3.95 11.25 -3.95 9.7 -3.85 7.7 -4.15 7.15 -4.35 5.35 -4.9 M4.35 -0.7 L4.65 -1.55 Q4.7 -0.75 5.25 -0.05 5.9 0.75 5.65 1.8 L5.0 2.8 4.8 3.1 Q4.2 3.9 3.8 4.85 L3.45 5.65 3.25 5.75 3.15 5.8 3.05 5.9 2.8 5.95 3.9 4.45 4.85 2.8 5.2 1.95 5.25 1.25 Q5.25 0.6 4.8 0.05 L4.35 -0.7 M14.6 0.1 L14.9 -0.05 14.1 0.35 13.3 0.45 13.05 0.45 10.15 1.15 9.25 1.25 7.7 1.45 7.0 2.6 6.75 3.05 5.75 5.05 Q4.95 6.25 3.75 6.9 L3.0 7.2 -0.1 8.0 -1.05 8.05 -2.65 7.75 -4.1 7.2 -5.2 6.65 Q-6.3 6.1 -6.9 5.1 L-7.25 4.45 -8.35 1.75 -8.45 1.3 -8.65 1.05 -8.9 1.1 -9.1 1.15 -11.7 1.1 -13.25 0.9 -14.45 0.65 Q-14.3 2.2 -12.8 2.9 -11.45 3.55 -10.15 3.6 L-7.8 3.9 Q-8.0 4.3 -7.8 4.75 L-7.6 5.15 Q-7.25 6.2 -6.3 6.65 L-4.85 7.65 -4.7 7.75 -2.2 9.05 1.6 8.9 1.65 8.8 1.9 8.65 Q3.1 7.85 4.45 7.3 L5.7 5.8 5.7 5.75 6.15 5.25 6.6 4.55 6.8 4.5 9.2 3.9 10.55 3.65 10.85 3.65 13.1 2.65 Q13.3 2.3 13.65 2.25 L13.75 2.25 Q14.4 1.45 14.65 0.45 L14.6 0.1 M-13.6 -2.75 L-14.1 -1.8 -13.3 -1.65 -13.3 -1.6 -11.9 -1.3 -11.5 -1.25 -8.3 -1.05 -7.9 -2.15 -7.85 -2.15 -7.6 -2.3 -7.6 -2.55 Q-7.3 -3.8 -6.4 -4.55 L-7.95 -4.25 -11.4 -3.95 Q-12.85 -3.7 -13.6 -2.75 M-3.2 -5.25 L-2.7 -5.35 -3.0 -5.3 -3.2 -5.25" fill="#000000" fill-rule="evenodd" stroke="none"/>
  </g>
</svg>
