<?xml version="1.0" encoding="UTF-8" standalone="no"?>
<svg xmlns:xlink="http://www.w3.org/1999/xlink" height="15.7px" width="33.65px" xmlns="http://www.w3.org/2000/svg">
  <g transform="matrix(1.0, 0.0, 0.0, 1.0, 16.1, 7.85)">
    <path d="M3.4 -7.25 L4.2 -6.95 6.65 -5.4 7.25 -4.9 Q7.4 -4.8 7.6 -4.65 8.35 -5.3 9.45 -5.25 11.3 -5.25 13.0 -4.65 L13.65 -4.35 14.0 -4.1 15.0 -3.1 15.35 -2.7 15.85 -1.55 16.0 -0.75 16.05 0.0 16.05 0.15 16.05 0.25 15.95 1.2 15.55 2.3 15.25 2.85 Q14.5 4.05 13.3 4.75 L10.95 5.85 9.3 6.05 8.95 6.1 8.2 5.95 7.65 5.85 7.6 5.8 7.5 5.75 6.85 5.45 6.75 5.3 6.35 5.4 Q4.6 6.65 2.75 7.35 L0.2 7.85 Q-2.05 7.85 -4.0 6.9 L-6.0 5.55 -6.1 5.5 -6.75 5.3 -6.9 5.45 -7.55 5.75 -7.65 5.8 -7.7 5.85 -8.25 5.95 -9.0 6.1 -9.3 6.05 -11.0 5.85 -13.35 4.75 Q-14.55 4.05 -15.3 2.85 L-15.6 2.3 -16.0 1.2 -16.1 0.25 -16.1 0.15 -16.1 0.0 -16.05 -0.75 -15.9 -1.55 -15.4 -2.7 -15.0 -3.1 -14.05 -4.1 -13.65 -4.35 -13.05 -4.65 Q-11.35 -5.25 -9.5 -5.25 -8.35 -5.3 -7.55 -4.55 L-6.5 -5.0 -5.6 -5.85 -5.0 -6.3 -4.5 -6.65 -3.8 -6.95 Q-2.85 -7.45 -1.7 -7.55 L-1.05 -7.7 0.5 -7.85 Q2.0 -7.8 3.4 -7.25 M5.5 -5.25 L5.05 -5.7 4.5 -6.2 3.3 -6.85 0.85 -7.5 0.5 -7.55 -0.3 -7.5 -1.45 -7.3 -2.75 -7.0 -2.85 -6.95 -2.9 -6.95 -3.0 -6.9 -3.25 -6.85 -4.65 -6.15 -5.05 -5.9 -5.35 -5.5 -5.5 -5.3 -5.5 -5.25 -5.9 -5.05 -6.45 -4.65 -7.45 -3.65 -7.6 -3.5 -8.3 -3.05 -8.0 -3.2 -8.05 -3.2 -9.1 -0.95 -9.2 0.25 -9.2 0.6 -9.3 0.6 -9.3 0.65 -9.25 1.1 -9.15 1.2 -9.05 1.25 -8.75 2.2 -8.7 2.35 -6.95 4.4 -6.8 4.55 -6.45 4.8 -6.5 4.8 -4.65 5.1 -4.5 5.15 -3.55 5.35 -2.55 5.45 -2.45 5.45 -0.75 5.55 -0.1 5.55 0.05 5.55 0.25 5.55 0.7 5.55 2.5 5.45 3.5 5.35 3.65 5.35 3.9 5.25 4.6 5.1 6.45 4.8 6.4 4.8 6.75 4.55 7.95 3.3 8.65 2.35 8.7 2.2 9.0 1.25 9.1 1.2 9.2 1.1 9.25 0.65 9.3 0.6 9.15 0.6 9.15 0.25 9.05 -0.95 8.15 -3.0 8.0 -3.2 8.25 -3.05 7.55 -3.5 6.45 -4.65 5.85 -5.05 5.5 -5.25 M-0.2 -4.35 L0.35 -4.3 0.65 -4.3 0.75 -4.3 2.75 -4.0 4.45 -3.55 4.6 -3.45 6.05 -2.1 6.35 -1.2 6.45 -0.3 6.4 -0.1 6.4 0.0 6.35 0.05 Q6.05 1.15 5.25 2.0 L3.6 3.4 2.2 3.9 1.95 3.9 1.7 3.95 1.6 3.95 0.05 4.1 -0.1 4.1 -1.65 3.95 -1.75 3.95 -2.0 3.9 -2.2 3.9 -2.25 3.9 -3.65 3.4 -5.3 2.0 Q-6.1 1.15 -6.4 0.05 L-6.4 0.0 -6.45 -0.1 -6.45 -0.3 -6.4 -1.2 -6.1 -2.1 -4.65 -3.45 -4.5 -3.55 -2.8 -4.0 -0.8 -4.3 -0.7 -4.3 -0.3 -4.35 -0.25 -4.35 -0.2 -4.35 M4.25 -1.7 L4.1 -1.7 3.6 -2.3 3.1 -2.65 Q1.85 -3.5 0.05 -3.55 L-0.1 -3.55 Q-1.9 -3.5 -3.15 -2.65 L-3.65 -2.3 -4.15 -1.7 -4.2 -1.7 -4.2 -1.65 -4.5 -0.45 -4.35 0.2 Q-4.1 1.0 -3.15 1.65 -1.9 2.45 -0.1 2.5 L0.05 2.5 Q1.85 2.45 3.1 1.65 4.05 1.0 4.35 0.2 L4.45 -0.4 4.35 -0.75 4.35 -1.7 4.25 -1.7 M4.6 -0.6 L4.55 -0.6 4.55 -0.55 4.6 -0.6 M12.1 -4.7 L11.8 -4.8 11.6 -4.8 11.15 -4.9 11.05 -4.95 10.85 -4.95 8.85 -4.75 8.6 -4.75 8.5 -4.8 Q7.95 -4.9 7.8 -4.5 L7.75 -4.3 7.75 -4.15 8.05 -3.75 8.15 -3.7 8.2 -3.65 8.25 -3.55 8.35 -3.45 8.65 -3.0 8.85 -2.7 8.9 -2.65 9.2 -2.0 9.2 -1.95 9.25 -1.9 9.25 -1.8 9.3 -1.75 9.3 -1.6 9.3 -1.55 9.35 -1.5 9.35 -1.45 9.35 -1.35 9.35 -1.1 9.3 -1.25 9.55 0.25 9.55 0.35 9.65 0.6 9.65 0.65 9.5 1.4 9.4 1.75 8.95 3.0 8.2 4.25 8.1 4.35 8.05 4.4 8.0 4.45 7.85 4.55 7.95 4.55 7.9 4.6 7.8 4.75 7.65 4.95 7.6 5.05 7.6 5.35 7.75 5.65 8.9 5.45 9.65 5.4 9.9 5.4 10.0 5.35 11.35 5.1 12.2 4.8 14.05 3.6 14.55 3.05 15.3 1.85 15.55 1.1 15.55 1.05 15.7 0.1 15.7 -0.15 15.7 -0.45 15.7 -0.5 15.7 -1.0 15.7 -1.05 15.65 -1.4 15.3 -2.2 15.25 -2.3 14.7 -3.05 13.5 -4.1 12.4 -4.6 12.1 -4.7 M7.1 -4.5 L7.0 -4.5 7.15 -4.45 7.1 -4.5 M8.95 -2.3 L8.95 -2.25 8.95 -2.3 M12.85 2.2 L12.8 2.2 12.85 2.2 M0.05 6.15 L-0.1 6.15 -2.85 6.0 -4.2 5.85 -3.8 6.25 -2.75 6.9 1.0 7.35 Q2.25 7.25 3.2 6.55 L3.8 5.9 2.05 6.05 0.05 6.15 M-15.05 -2.7 L-15.3 -2.3 -15.3 -2.2 -15.65 -1.4 -15.7 -1.15 -15.75 -1.05 -15.75 -1.0 -15.75 -0.5 -15.75 -0.45 -15.75 -0.15 -15.75 0.1 -15.6 1.05 -15.6 1.1 -15.35 1.85 -14.6 3.05 -14.1 3.6 Q-13.25 4.4 -12.25 4.8 L-11.4 5.1 -10.0 5.35 -9.9 5.4 -9.7 5.4 -8.95 5.45 -7.8 5.65 -7.65 5.35 -7.65 5.05 -7.7 4.95 -7.8 4.75 -7.95 4.6 -7.95 4.55 -7.85 4.55 -8.05 4.45 -8.1 4.4 -8.15 4.35 -8.25 4.25 -9.0 3.0 -9.45 1.75 -9.55 1.4 -9.65 0.6 -9.6 0.35 -9.6 0.25 -9.35 -1.25 -9.4 -1.1 -9.4 -1.35 -9.4 -1.45 -9.4 -1.5 -9.35 -1.55 -9.35 -1.6 -9.35 -1.75 -9.3 -1.8 -9.3 -1.9 -9.25 -1.95 -9.25 -2.0 -9.15 -2.2 -8.9 -2.7 -8.55 -3.2 -8.4 -3.45 -8.3 -3.55 -8.2 -3.65 -8.1 -3.75 -7.8 -4.15 -7.8 -4.3 -7.85 -4.45 Q-8.0 -4.9 -8.55 -4.8 L-8.65 -4.75 -10.85 -4.95 -11.1 -4.95 -11.2 -4.9 -11.3 -4.85 -11.65 -4.8 -11.85 -4.8 -12.15 -4.7 -13.55 -4.1 -14.75 -3.05 -15.05 -2.7 M-7.0 -4.5 L-7.15 -4.5 -7.2 -4.45 -7.0 -4.5 M-9.0 -2.3 L-9.0 -2.25 -8.95 -2.3 -9.0 -2.3 M-4.6 -0.55 L-4.6 -0.6 -4.65 -0.6 -4.6 -0.55" fill="#23252e" fill-rule="evenodd" stroke="none"/>
    <path d="M-0.3 -4.35 L-0.2 -4.35 -0.25 -4.35 -0.3 -4.35" fill="#46579f" fill-rule="evenodd" stroke="none"/>
    <path d="M-5.5 -5.25 L-5.5 -5.3 -5.35 -5.5 -5.05 -5.9 -4.65 -6.15 -3.25 -6.85 -3.0 -6.9 -2.9 -6.95 -2.85 -6.95 -2.75 -7.0 -1.45 -7.3 -0.3 -7.5 0.5 -7.55 0.85 -7.5 3.3 -6.85 4.5 -6.2 5.05 -5.7 5.5 -5.25 5.0 -5.5 4.9 -5.55 4.3 -5.75 4.05 -5.85 2.7 -6.15 2.6 -6.15 2.15 -6.15 1.5 -6.15 0.15 -6.25 -1.35 -6.2 -1.75 -6.15 -1.6 -6.15 -2.65 -6.15 -3.2 -6.05 -3.4 -6.0 -4.35 -5.75 -5.05 -5.5 -5.3 -5.35 -5.4 -5.3 -5.5 -5.25 M8.15 -3.7 Q8.25 -4.3 8.8 -4.55 L8.85 -4.6 10.1 -4.25 Q10.75 -3.75 10.85 -2.7 10.95 -1.95 10.35 -1.4 L9.35 -1.35 9.35 -1.45 9.35 -1.5 9.4 -1.5 9.3 -1.75 9.25 -1.9 9.2 -2.0 8.9 -2.65 8.85 -2.7 8.65 -3.0 8.35 -3.45 8.25 -3.55 8.2 -3.65 8.15 -3.7 M9.9 -3.9 L9.95 -3.95 9.9 -3.95 9.9 -3.9 M-15.05 -2.7 L-14.75 -3.05 -13.55 -4.1 Q-12.55 -4.1 -12.3 -3.45 -12.15 -3.15 -12.25 -2.65 L-12.3 -2.35 Q-12.45 -1.9 -12.8 -1.6 L-13.1 -1.3 Q-14.35 -0.4 -14.95 -1.65 -15.2 -2.15 -15.05 -2.7 M-13.05 -3.05 L-12.6 -3.35 -13.05 -3.05 M-12.55 -2.45 L-12.6 -2.65 -12.65 -2.45 -12.55 -2.45" fill="#999999" fill-rule="evenodd" stroke="none"/>
    <path d="M4.25 -1.7 L4.35 -1.7 4.35 -0.75 4.45 -0.4 4.35 0.2 Q4.05 1.0 3.1 1.65 1.85 2.45 0.05 2.5 L-0.1 2.5 Q-1.9 2.45 -3.15 1.65 -4.1 1.0 -4.35 0.2 L-4.5 -0.45 -4.2 -1.65 -4.2 -1.7 -4.15 -1.7 -3.65 -2.3 -3.15 -2.65 Q-1.9 -3.5 -0.1 -3.55 L0.05 -3.55 Q1.85 -3.5 3.1 -2.65 L3.6 -2.3 4.1 -1.7 4.25 -1.7" fill="#333333" fill-rule="evenodd" stroke="none"/>
    <path d="M4.6 -0.6 L4.55 -0.55 4.55 -0.6 4.6 -0.6 M-4.6 -0.55 L-4.65 -0.6 -4.6 -0.6 -4.6 -0.55" fill="#a7adb8" fill-rule="evenodd" stroke="none"/>
    <path d="M8.15 -3.7 L8.05 -3.75 7.75 -4.15 7.75 -4.3 7.8 -4.5 Q7.95 -4.9 8.5 -4.8 L8.6 -4.75 8.85 -4.75 10.85 -4.95 11.05 -4.95 11.15 -4.9 11.6 -4.8 11.8 -4.8 12.1 -4.7 12.35 -4.5 Q14.7 -3.0 13.6 -0.55 L13.2 0.05 Q11.65 1.75 9.65 0.65 L9.65 0.6 9.55 0.35 9.55 0.25 9.3 -1.25 9.35 -1.1 9.35 -1.35 10.35 -1.4 Q10.95 -1.95 10.85 -2.7 10.75 -3.75 10.1 -4.25 L8.85 -4.6 8.8 -4.55 Q8.25 -4.3 8.15 -3.7 M-15.7 -1.15 L-15.65 -1.4 -15.3 -2.2 -15.3 -2.3 -15.05 -2.7 Q-15.2 -2.15 -14.95 -1.65 -14.35 -0.4 -13.1 -1.3 L-12.8 -1.6 Q-12.45 -1.9 -12.3 -2.35 L-12.25 -2.65 Q-12.15 -3.15 -12.3 -3.45 -12.55 -4.1 -13.55 -4.1 L-12.15 -4.7 -11.85 -4.8 -11.65 -4.8 -11.3 -4.85 -10.95 -4.75 -9.85 -4.05 -9.9 -3.95 -9.8 -4.05 -9.2 -3.1 Q-9.0 -2.7 -9.2 -2.25 -10.1 0.3 -12.85 1.15 -13.95 1.5 -14.75 0.85 L-15.5 -0.05 -15.7 -1.0 -15.7 -1.15 M-9.9 -3.95 L-9.95 -3.95 -9.95 -3.9 -9.9 -3.95" fill="#666666" fill-rule="evenodd" stroke="none"/>
    <path d="M9.2 -2.0 L9.25 -1.9 9.3 -1.75 9.4 -1.5 9.35 -1.5 9.3 -1.55 9.3 -1.6 9.3 -1.75 9.25 -1.8 9.25 -1.9 9.2 -1.95 9.2 -2.0 M9.9 -3.9 L9.9 -3.95 9.95 -3.95 9.9 -3.9 M-9.9 -3.95 L-9.95 -3.9 -9.95 -3.95 -9.9 -3.95" fill="#4a5c93" fill-rule="evenodd" stroke="none"/>
    <path d="M14.9 -0.15 L14.9 -0.25 14.9 -0.15 M11.05 2.15 L11.1 2.15 11.05 2.15 M-9.8 -4.05 L-9.9 -3.95 -9.85 -4.05 -9.8 -4.05 M-13.05 -3.05 L-12.6 -3.35 -13.05 -3.05 M-12.55 -2.45 L-12.65 -2.45 -12.6 -2.65 -12.55 -2.45" fill="#7a8bbc" fill-rule="evenodd" stroke="none"/>
    <path d="M7.1 -4.5 L7.15 -4.45 7.0 -4.5 7.1 -4.5 M-7.0 -4.5 L-7.2 -4.45 -7.15 -4.5 -7.0 -4.5" fill="#8b94a3" fill-rule="evenodd" stroke="none"/>
    <path d="M7.95 4.55 L7.85 4.55 8.0 4.45 7.95 4.55 M8.95 -2.3 L8.95 -2.25 8.95 -2.3 M-8.05 4.45 L-7.85 4.55 -7.95 4.55 -8.05 4.45 M-9.0 -2.3 L-8.95 -2.3 -9.0 -2.25 -9.0 -2.3" fill="#5e6781" fill-rule="evenodd" stroke="none"/>
    <path d="M12.35 -4.5 L12.1 -4.7 12.4 -4.6 12.35 -4.5 M-11.3 -4.85 L-11.2 -4.9 -11.1 -4.95 -10.85 -4.95 -10.95 -4.75 -11.3 -4.85 M-15.75 0.1 L-15.75 -0.15 -15.75 -0.45 -15.75 -0.5 -15.75 -1.0 -15.75 -1.05 -15.7 -1.15 -15.7 -1.0 -15.5 -0.05 -15.75 0.1" fill="#404040" fill-rule="evenodd" stroke="none"/>
    <path d="M9.15 0.6 L9.3 0.6 9.25 0.65 9.15 0.6 M-9.3 0.65 L-9.3 0.6 -9.2 0.6 -9.3 0.65" fill="#333384" fill-rule="evenodd" stroke="none"/>
    <path d="M9.65 0.65 Q11.65 1.75 13.2 0.05 L13.6 -0.55 Q14.7 -3.0 12.35 -4.5 L12.4 -4.6 13.5 -4.1 14.7 -3.05 15.25 -2.3 15.3 -2.2 15.65 -1.4 15.7 -1.05 15.7 -1.0 15.7 -0.5 15.7 -0.45 15.7 -0.15 15.7 0.1 15.55 1.05 15.55 1.1 15.3 1.85 14.55 3.05 14.05 3.6 12.2 4.8 11.35 5.1 10.0 5.35 9.9 5.4 9.65 5.4 8.9 5.45 7.75 5.65 7.6 5.35 7.6 5.05 7.65 4.95 7.8 4.75 7.9 4.6 7.95 4.55 8.0 4.45 8.05 4.4 8.1 4.35 8.2 4.25 8.95 3.0 9.4 1.75 9.5 1.4 9.65 0.65 M14.9 -0.15 L14.9 -0.25 14.9 -0.15 M12.85 2.2 L12.8 2.2 12.85 2.2 M11.05 2.15 L11.1 2.15 11.05 2.15 M0.05 6.15 L2.05 6.05 3.8 5.9 3.2 6.55 Q2.25 7.25 1.0 7.35 L-2.75 6.9 -3.8 6.25 -4.2 5.85 -2.85 6.0 -0.1 6.15 0.05 6.15 M-10.85 -4.95 L-8.65 -4.75 -8.55 -4.8 Q-8.0 -4.9 -7.85 -4.45 L-7.8 -4.3 -7.8 -4.15 -8.1 -3.75 -8.2 -3.65 -8.3 -3.55 -8.4 -3.45 -8.55 -3.2 -8.9 -2.7 -9.15 -2.2 -9.25 -2.0 -9.25 -1.95 -9.3 -1.9 -9.3 -1.8 -9.35 -1.75 -9.35 -1.6 -9.35 -1.55 -9.4 -1.5 -9.4 -1.45 -9.4 -1.35 -9.4 -1.1 -9.35 -1.25 -9.6 0.25 -9.6 0.35 -9.65 0.6 -9.55 1.4 -9.45 1.75 -9.0 3.0 -8.25 4.25 -8.15 4.35 -8.1 4.4 -8.05 4.45 -7.95 4.55 -7.95 4.6 -7.8 4.75 -7.7 4.95 -7.65 5.05 -7.65 5.35 -7.8 5.65 -8.95 5.45 -9.7 5.4 -9.9 5.4 -10.0 5.35 -11.4 5.1 -12.25 4.8 Q-13.25 4.4 -14.1 3.6 L-14.6 3.05 -15.35 1.85 -15.6 1.1 -15.6 1.05 -15.75 0.1 -15.5 -0.05 -14.75 0.85 Q-13.95 1.5 -12.85 1.15 -10.1 0.3 -9.2 -2.25 -9.0 -2.7 -9.2 -3.1 L-9.8 -4.05 -9.85 -4.05 -10.95 -4.75 -10.85 -4.95" fill="#4e4e4e" fill-rule="evenodd" stroke="none"/>
    <path d="M9.25 0.65 L9.2 1.1 9.1 1.2 9.0 1.25 8.7 2.2 8.65 2.35 7.95 3.3 6.75 4.55 6.4 4.8 6.45 4.8 4.6 5.1 3.9 5.25 3.65 5.35 3.5 5.35 2.5 5.45 0.7 5.55 0.25 5.55 0.05 5.55 -0.1 5.55 -0.75 5.55 -2.45 5.45 -2.55 5.45 -3.55 5.35 -4.5 5.15 -4.65 5.1 -6.5 4.8 -6.45 4.8 -6.8 4.55 -6.95 4.4 -8.7 2.35 -8.75 2.2 -9.05 1.25 -9.15 1.2 -9.25 1.1 -9.3 0.65 -9.2 0.6 -6.2 0.6 -6.4 0.05 Q-6.1 1.15 -5.3 2.0 L-3.65 3.4 -2.25 3.9 -2.2 3.9 -2.0 3.9 -1.75 3.95 -1.65 3.95 -0.1 4.1 0.05 4.1 1.6 3.95 1.7 3.95 1.95 3.9 2.2 3.9 3.6 3.4 5.25 2.0 Q6.05 1.15 6.35 0.05 L6.2 0.6 9.15 0.6 9.25 0.65" fill="#400040" fill-rule="evenodd" stroke="none"/>
    <path d="M-5.5 -5.25 L-5.4 -5.3 -5.3 -5.35 -5.05 -5.5 -4.35 -5.75 -3.4 -6.0 -3.2 -6.05 -2.65 -6.15 -1.6 -6.15 -1.75 -6.15 -1.35 -6.2 0.15 -6.25 1.5 -6.15 2.15 -6.15 2.6 -6.15 2.7 -6.15 4.05 -5.85 4.3 -5.75 4.9 -5.55 5.0 -5.5 5.5 -5.25 5.85 -5.05 6.45 -4.65 7.55 -3.5 8.25 -3.05 8.0 -3.2 8.15 -3.0 9.05 -0.95 9.15 0.25 9.15 0.6 6.2 0.6 6.35 0.05 6.4 0.0 6.4 -0.1 6.45 -0.3 6.35 -1.2 6.05 -2.1 4.6 -3.45 4.45 -3.55 2.75 -4.0 0.75 -4.3 0.65 -4.3 0.35 -4.3 -0.2 -4.35 -0.3 -4.35 -0.7 -4.3 -0.8 -4.3 -2.8 -4.0 -4.5 -3.55 -4.65 -3.45 -6.1 -2.1 -6.4 -1.2 -6.45 -0.3 -6.45 -0.1 -6.4 0.0 -6.4 0.05 -6.2 0.6 -9.2 0.6 -9.2 0.25 -9.1 -0.95 -8.05 -3.2 -8.0 -3.2 -8.3 -3.05 -7.6 -3.5 -7.45 -3.65 -6.45 -4.65 -5.9 -5.05 -5.5 -5.25" fill="#54035a" fill-rule="evenodd" stroke="none"/>
    <path d="M13.35 -2.75 Q13.1 -3.0 13.15 -3.35 L13.15 -3.5 Q13.3 -4.2 13.95 -4.5 L15.4 -5.1 15.55 -5.2 15.85 -5.0 15.95 -4.9 15.35 -3.95 15.0 -3.25 14.75 -2.85 14.55 -2.45 13.5 -2.7 13.35 -2.75 M14.25 2.4 L13.9 2.4 13.85 2.4 13.8 2.45 13.75 2.45 13.7 2.5 13.55 2.5 13.5 2.2 Q13.6 1.1 14.25 0.3 L14.3 0.2 14.5 0.25 Q15.75 0.5 16.7 1.4 L17.05 1.95 17.05 2.0 17.05 2.25 16.95 2.45 16.85 2.45 14.25 2.4 M10.25 3.6 L10.15 3.55 Q10.2 3.05 10.75 2.9 L11.25 2.7 Q12.1 2.6 12.3 3.25 L12.35 3.65 12.55 5.6 12.5 6.05 12.2 6.25 12.05 6.3 10.6 4.25 10.3 3.75 10.25 3.6" fill="#999999" fill-rule="evenodd" stroke="none"/>
    <path d="M13.15 -3.35 L12.75 -3.65 12.8 -4.0 14.7 -5.2 15.3 -5.45 15.7 -5.35 Q16.25 -5.3 16.1 -4.7 L15.7 -3.45 15.45 -2.9 15.4 -2.8 15.4 -2.6 15.05 -2.05 13.45 -2.15 Q13.0 -2.5 13.35 -2.75 L13.5 -2.7 14.55 -2.45 14.75 -2.85 15.0 -3.25 15.35 -3.95 15.95 -4.9 15.85 -5.0 15.55 -5.2 15.4 -5.1 13.95 -4.5 Q13.3 -4.2 13.15 -3.5 L13.15 -3.35 M14.5 0.25 Q14.55 -0.1 14.9 -0.05 15.7 0.1 16.4 0.6 L17.5 1.65 17.55 1.9 17.5 2.05 17.55 2.45 17.4 2.65 17.05 2.65 17.0 2.7 15.2 2.95 14.2 2.85 14.1 2.75 14.25 2.4 16.85 2.45 16.95 2.45 17.05 2.25 17.05 2.0 17.05 1.95 16.7 1.4 Q15.75 0.5 14.5 0.25 M12.3 3.25 Q12.7 3.35 12.75 3.85 L12.9 5.25 12.9 6.2 12.7 6.6 12.15 6.7 11.65 6.3 10.75 5.05 10.2 4.0 Q10.1 3.75 10.25 3.6 L10.3 3.75 10.6 4.25 12.05 6.3 12.2 6.25 12.5 6.05 12.55 5.6 12.35 3.65 12.3 3.25" fill="#000000" fill-rule="evenodd" stroke="none"/>
  </g>
</svg>
