<?xml version="1.0" encoding="UTF-8" standalone="no"?>
<svg xmlns:xlink="http://www.w3.org/1999/xlink" height="15.0px" width="34.8px" xmlns="http://www.w3.org/2000/svg">
  <g transform="matrix(1.0, 0.0, 0.0, 1.0, 17.35, 7.35)">
    <path d="M2.55 -6.45 L6.6 -6.0 6.05 -6.3 Q4.0 -7.0 1.9 -6.9 L0.8 -7.2 Q3.3 -7.65 5.75 -6.55 7.2 -5.9 9.0 -5.25 L11.1 -5.05 13.45 -4.85 15.5 -3.5 Q16.35 -2.9 16.85 -1.95 18.0 0.35 16.9 2.6 15.85 4.65 13.6 5.45 L9.25 5.55 Q8.45 6.3 7.55 6.55 L5.4 6.45 1.2 7.65 -1.0 7.6 Q-3.2 7.35 -5.4 6.45 L-8.05 6.15 -9.3 5.55 -12.75 5.65 Q-15.25 5.2 -16.5 3.1 -17.6 1.3 -17.25 -0.65 -16.95 -2.45 -15.55 -3.65 -14.0 -4.95 -12.0 -5.3 L-9.4 -4.9 Q-7.3 -5.6 -5.1 -6.65 L-3.75 -7.1 -1.3 -7.15 -2.2 -6.85 Q-4.35 -7.05 -6.15 -6.1 -6.75 -5.8 -7.3 -5.45 L-3.05 -6.35 -2.1 -6.5 2.55 -6.45 M4.9 -3.8 L4.95 -3.3 5.35 -3.5 5.4 -3.5 5.7 -3.5 6.6 -3.55 Q8.95 -3.35 10.1 -1.35 10.75 -0.3 11.0 0.9 11.3 1.95 10.7 2.95 L9.75 3.9 12.4 3.45 14.6 2.45 16.15 0.95 16.55 0.1 16.45 -1.0 15.9 -2.45 15.65 -2.75 15.45 -3.05 15.4 -3.1 Q13.85 -4.95 11.2 -4.9 9.8 -4.7 8.9 -4.0 L8.6 -4.15 8.45 -4.25 8.15 -4.35 8.05 -4.35 7.7 -4.3 7.45 -4.2 7.2 -4.05 7.15 -4.1 6.8 -4.4 6.6 -4.5 4.95 -4.35 4.8 -4.35 4.85 -4.15 4.9 -3.8 M4.15 1.15 L4.35 0.15 4.5 -4.5 4.9 -4.9 -4.4 -4.55 -4.75 -4.8 -4.55 -4.55 Q-4.5 -3.65 -4.6 -2.8 L-4.65 -2.7 -4.65 -2.65 Q-4.9 -0.7 -4.2 1.15 L-4.0 1.65 Q-2.8 4.15 0.05 4.2 1.3 4.4 2.4 3.65 3.7 2.65 4.15 1.15 M13.95 4.9 L13.9 4.95 13.95 4.9 M-16.0 2.1 L-15.9 2.2 Q-14.95 3.05 -13.65 3.3 L-13.2 3.4 Q-13.85 2.35 -13.2 0.95 -11.7 -2.4 -7.9 -2.55 L-7.7 -3.45 -6.55 -3.5 -5.85 -3.65 -5.8 -3.65 -5.85 -3.1 -5.95 -2.35 -5.75 -0.2 -5.4 1.25 -5.25 1.6 -5.2 2.15 -5.05 2.05 -4.7 2.55 -4.3 3.0 -3.8 3.45 Q-2.8 4.25 -1.4 4.6 L-2.25 4.1 Q-5.5 1.8 -5.05 -2.0 L-4.95 -3.85 -4.95 -4.35 -5.05 -4.6 -6.35 -4.35 -7.3 -4.1 -8.05 -4.15 -8.8 -4.1 Q-10.4 -5.1 -12.4 -4.8 -15.4 -4.25 -16.45 -1.55 -17.0 0.0 -16.55 1.75 L-16.45 2.15 -16.25 2.6 -15.5 3.75 -14.9 4.3 -14.95 4.25 -15.7 3.05 -15.9 2.45 -15.95 2.25 -16.0 2.1 M-7.25 -4.55 L-5.3 -5.05 -4.95 -4.9 -4.35 -5.05 -0.85 -5.8 0.6 -6.05 -2.55 -5.9 Q-5.4 -5.7 -8.0 -4.75 L-7.25 -4.55" fill="#000000" fill-rule="evenodd" stroke="none"/>
    <path d="M-4.55 -4.55 L-4.75 -4.8 -4.4 -4.55 -4.55 -4.55" fill="#b7b7b7" fill-rule="evenodd" stroke="none"/>
    <path d="M13.95 4.9 L13.9 4.95 13.95 4.9" fill="#606060" fill-rule="evenodd" stroke="none"/>
    <path d="M5.35 -3.5 L4.95 -3.3 4.9 -3.8 4.9 -3.75 Q5.05 -3.55 5.35 -3.5 M4.85 -4.15 L4.8 -4.35 4.95 -4.35 4.9 -4.3 4.85 -4.15 M15.9 -2.45 L16.45 -1.0 16.55 0.1 16.15 0.95 14.6 2.45 12.4 3.45 9.75 3.9 10.7 2.95 Q11.3 1.95 11.0 0.9 10.75 -0.3 10.1 -1.35 8.95 -3.35 6.6 -3.55 L9.05 -3.75 9.55 -3.85 12.0 -4.1 12.6 -4.0 13.65 -3.75 14.0 -3.65 Q15.0 -3.25 15.85 -2.5 L15.9 -2.45 M-16.0 2.1 L-16.15 1.5 -16.15 1.35 -16.15 0.9 -16.2 0.1 -16.05 -0.45 -15.65 -1.5 -15.0 -2.5 -14.05 -3.2 -13.9 -3.3 -13.85 -3.35 -13.0 -3.75 -12.75 -3.8 -9.6 -3.65 -7.7 -3.45 -7.9 -2.55 Q-11.7 -2.4 -13.2 0.95 -13.85 2.35 -13.2 3.4 L-13.65 3.3 Q-14.95 3.05 -15.9 2.2 L-16.0 2.1 M-5.25 1.6 L-5.05 2.05 -5.2 2.15 -5.25 1.6 M-7.25 -4.55 L-8.0 -4.75 Q-5.4 -5.7 -2.55 -5.9 L0.6 -6.05 -0.85 -5.8 -4.35 -5.05 -4.95 -4.9 -5.3 -5.05 -7.25 -4.55" fill="#333333" fill-rule="evenodd" stroke="none"/>
    <path d="M5.35 -3.5 Q5.05 -3.55 4.9 -3.75 L4.9 -3.8 4.85 -4.15 4.9 -4.3 4.95 -4.35 6.6 -4.5 6.8 -4.4 7.15 -4.1 7.2 -4.05 7.45 -4.2 7.7 -4.3 8.05 -4.35 8.15 -4.35 8.45 -4.25 8.6 -4.15 8.9 -4.0 Q9.8 -4.7 11.2 -4.9 13.85 -4.95 15.4 -3.1 L15.45 -3.05 15.65 -2.75 15.9 -2.45 15.85 -2.5 Q15.0 -3.25 14.0 -3.65 L13.65 -3.75 12.6 -4.0 12.0 -4.1 9.55 -3.85 9.05 -3.75 6.6 -3.55 5.7 -3.5 5.4 -3.5 5.35 -3.5 M-7.7 -3.45 L-9.6 -3.65 -12.75 -3.8 -13.0 -3.75 -13.85 -3.35 -13.9 -3.3 -14.05 -3.2 -15.0 -2.5 -15.65 -1.5 -16.05 -0.45 -16.2 0.1 -16.15 0.9 -16.15 1.35 -16.15 1.5 -16.0 2.1 -15.95 2.25 -15.9 2.45 -15.7 3.05 -14.95 4.25 -14.9 4.3 -15.5 3.75 -16.25 2.6 -16.45 2.15 -16.55 1.75 Q-17.0 0.0 -16.45 -1.55 -15.4 -4.25 -12.4 -4.8 -10.4 -5.1 -8.8 -4.1 L-8.05 -4.15 -7.3 -4.1 -6.35 -4.35 -5.05 -4.6 -4.95 -4.35 -4.95 -3.85 -5.05 -2.0 Q-5.5 1.8 -2.25 4.1 L-1.4 4.6 Q-2.8 4.25 -3.8 3.45 L-4.3 3.0 -4.7 2.55 -5.05 2.05 -5.25 1.6 -5.4 1.25 -5.75 -0.2 -5.95 -2.35 -5.85 -3.1 -5.8 -3.65 -5.85 -3.65 -6.55 -3.5 -7.7 -3.45" fill="#666666" fill-rule="evenodd" stroke="none"/>
    <path d="M1.9 -6.9 L2.55 -6.45 -2.1 -6.5 -3.05 -6.35 -2.2 -6.85 -1.3 -7.15 0.8 -7.2 1.9 -6.9 M4.15 1.15 Q3.7 2.65 2.4 3.65 1.3 4.4 0.05 4.2 -2.8 4.15 -4.0 1.65 L-4.0 1.6 -4.05 1.35 Q-4.4 0.35 -4.2 -0.65 L-4.15 -0.9 -4.15 -0.95 -3.85 -0.9 Q-3.25 0.2 -2.1 0.85 L-1.35 1.15 Q0.45 1.55 1.85 0.6 L2.25 0.45 Q2.9 0.05 3.25 -0.6 L3.5 -1.0 3.95 -1.3 4.1 -1.35 Q4.35 -0.35 4.2 0.75 L4.15 1.15" fill="#663366" fill-rule="evenodd" stroke="none"/>
    <path d="M2.55 -6.45 L1.9 -6.9 Q4.0 -7.0 6.05 -6.3 L6.6 -6.0 2.55 -6.45 M-2.2 -6.85 L-3.05 -6.35 -7.3 -5.45 Q-6.75 -5.8 -6.15 -6.1 -4.35 -7.05 -2.2 -6.85" fill="#800080" fill-rule="evenodd" stroke="none"/>
    <path d="M-4.4 -4.55 L4.9 -4.9 4.5 -4.5 4.35 0.15 4.15 1.15 4.2 0.75 Q4.35 -0.35 4.1 -1.35 L3.95 -1.3 3.5 -1.0 3.25 -0.6 Q2.9 0.05 2.25 0.45 L1.85 0.6 Q0.45 1.55 -1.35 1.15 L-2.1 0.85 Q-3.25 0.2 -3.85 -0.9 L-4.15 -0.95 -4.15 -0.9 -4.2 -0.65 Q-4.4 0.35 -4.05 1.35 L-4.0 1.6 -4.0 1.65 -4.2 1.15 Q-4.9 -0.7 -4.65 -2.65 L-4.65 -2.7 -4.6 -2.8 Q-4.5 -3.65 -4.55 -4.55 L-4.4 -4.55" fill="#330000" fill-rule="evenodd" stroke="none"/>
  </g>
</svg>
