<?xml version="1.0" encoding="UTF-8" standalone="no"?>
<svg xmlns:xlink="http://www.w3.org/1999/xlink" height="18.85px" width="19.8px" xmlns="http://www.w3.org/2000/svg">
  <g transform="matrix(1.0, 0.0, 0.0, 1.0, 10.0, 11.65)">
    <path d="M-2.1 -5.6 L-2.15 -6.95 -2.1 -7.35 -2.05 -7.5 -1.6 -8.8 Q-1.25 -10.1 -0.5 -11.2 L0.7 -9.55 0.75 -9.45 1.55 -6.75 1.6 -5.35 1.6 -5.3 1.6 -5.25 1.3 -4.35 Q0.85 -3.5 -0.15 -3.55 L-0.2 -3.55 -0.2 -3.5 Q-0.7 -3.3 -0.95 -3.65 L-1.6 -4.2 -2.1 -5.6 M6.25 -1.85 L5.75 -2.75 5.7 -2.85 5.65 -2.95 5.55 -3.1 5.2 -3.55 5.15 -3.6 5.9 -4.2 6.8 -5.35 7.2 -5.85 7.25 -5.85 7.35 -5.9 7.45 -5.8 7.75 -5.65 7.95 -5.2 Q8.25 -3.7 7.8 -2.3 L7.35 -1.4 7.1 -1.2 6.9 -1.0 6.8 -0.9 6.75 -0.85 6.7 -0.9 6.6 -1.15 6.4 -1.55 6.25 -1.85 M5.85 -3.45 L5.95 -3.15 6.85 -3.25 7.25 -3.8 7.4 -4.1 Q7.55 -4.65 7.05 -4.8 6.75 -4.8 6.6 -4.5 L6.3 -4.15 Q5.9 -3.85 5.85 -3.45 M-0.55 -9.9 L-0.75 -9.85 -0.9 -9.7 -1.55 -6.8 -1.55 -6.35 -1.55 -6.25 -1.4 -5.4 -1.4 -5.3 Q-1.25 -4.75 -0.7 -4.95 L-0.6 -5.1 -0.5 -6.2 -0.5 -6.55 -0.5 -6.8 -0.45 -7.15 -0.15 -9.1 Q0.0 -9.75 -0.55 -9.9 M-7.45 -6.0 L-6.85 -5.35 -6.75 -5.15 -6.0 -4.55 -5.3 -4.0 -5.2 -3.95 -5.3 -3.8 -5.5 -3.45 -5.6 -3.3 -5.65 -3.15 -6.0 -2.55 -6.15 -2.15 -6.15 -2.1 -6.2 -2.05 -6.2 -1.95 -6.4 -1.4 -6.45 -1.35 -6.5 -1.15 -6.5 -1.1 -6.6 -1.2 -6.9 -1.5 -6.95 -1.55 Q-8.05 -2.7 -8.1 -4.25 L-8.1 -4.95 -7.7 -6.0 -7.65 -6.1 -7.5 -6.1 -7.45 -6.0 M-7.4 -5.05 L-7.45 -5.0 -7.6 -4.9 Q-7.85 -3.9 -7.35 -3.0 L-7.2 -2.8 -6.5 -2.75 -6.35 -3.0 -6.6 -3.9 -6.7 -4.5 Q-6.7 -5.1 -7.4 -5.05" fill="#cccc99" fill-rule="evenodd" stroke="none"/>
    <path d="M5.85 -3.45 Q5.9 -3.85 6.3 -4.15 L6.6 -4.5 Q6.75 -4.8 7.05 -4.8 7.55 -4.65 7.4 -4.1 L7.25 -3.8 6.85 -3.25 5.95 -3.15 5.85 -3.45 M-0.55 -9.9 Q0.0 -9.75 -0.15 -9.1 L-0.45 -7.15 -0.5 -6.8 -0.5 -6.55 -0.5 -6.2 -0.6 -5.1 -0.7 -4.95 Q-1.25 -4.75 -1.4 -5.3 L-1.4 -5.4 -1.55 -6.25 -1.55 -6.35 -1.55 -6.8 -0.9 -9.7 -0.75 -9.85 -0.55 -9.9 M-7.4 -5.05 Q-6.7 -5.1 -6.7 -4.5 L-6.6 -3.9 -6.35 -3.0 -6.5 -2.75 -7.2 -2.8 -7.35 -3.0 Q-7.85 -3.9 -7.6 -4.9 L-7.45 -5.0 -7.4 -5.05" fill="#ffff99" fill-rule="evenodd" stroke="none"/>
    <path d="M7.4 -6.35 Q8.15 -6.3 8.4 -5.6 L8.6 -5.05 Q9.0 -3.8 8.45 -2.55 L7.9 -1.55 8.0 -1.6 8.45 -1.75 9.0 -1.9 Q9.5 -1.85 9.65 -1.3 9.9 -0.65 9.75 0.1 L8.8 1.95 Q7.85 3.15 6.45 3.65 L6.35 3.7 5.3 4.9 Q4.25 5.75 3.15 6.1 2.55 6.2 2.0 6.5 L1.35 6.7 Q0.65 7.2 -0.15 7.2 -0.8 7.2 -1.5 6.7 -2.35 6.15 -3.2 5.7 L-4.95 4.75 -5.9 3.95 -5.95 3.85 -6.0 3.85 -6.05 3.8 Q-6.2 3.65 -6.35 3.6 L-6.55 3.55 Q-6.85 3.35 -7.3 3.3 L-7.7 3.2 -8.4 2.85 -9.5 1.35 -9.65 1.0 -9.9 0.25 Q-10.15 -0.55 -9.6 -1.15 L-9.4 -1.3 -9.1 -1.55 -7.95 -1.75 -8.2 -2.45 Q-8.55 -3.5 -8.5 -4.6 L-8.3 -5.85 -8.25 -6.0 -8.0 -6.45 -7.95 -6.5 -7.85 -6.55 Q-7.2 -6.55 -6.8 -5.9 L-6.35 -5.4 -6.0 -5.1 -4.85 -4.2 -4.45 -4.5 -4.3 -4.6 -4.1 -4.75 -3.05 -5.2 -2.95 -5.2 -2.9 -6.05 Q-2.85 -7.3 -2.4 -8.5 -2.05 -9.9 -1.2 -11.1 L-0.9 -11.4 -0.9 -11.45 -0.75 -11.55 -0.6 -11.65 0.2 -11.2 Q1.25 -10.1 1.65 -8.65 L1.85 -7.75 2.2 -5.35 2.5 -5.25 3.9 -4.5 4.05 -4.4 4.75 -4.0 4.8 -3.95 5.2 -4.2 7.0 -6.0 7.25 -6.2 7.4 -6.35 M1.6 -5.3 L1.6 -5.35 1.55 -6.75 0.75 -9.45 0.7 -9.55 -0.5 -11.2 Q-1.25 -10.1 -1.6 -8.8 L-2.05 -7.5 -2.1 -7.35 -2.15 -6.95 -2.1 -5.6 -2.15 -5.6 -2.2 -5.5 -2.25 -5.25 -2.3 -5.2 -2.45 -5.0 -2.5 -4.95 -2.7 -4.85 -2.95 -4.75 -3.55 -4.45 -4.25 -4.1 -4.45 -3.95 -4.75 -3.75 -4.95 -3.25 -5.0 -3.15 -5.2 -2.9 -5.7 -1.8 -5.75 -1.75 -5.8 -1.6 -5.95 -1.15 -6.0 -0.85 -6.05 -0.7 -6.05 -0.65 -6.35 -0.8 -6.55 -0.9 -6.95 -1.0 -7.55 -1.1 -8.45 -1.05 -9.0 -0.9 -9.15 -0.85 -9.15 -0.8 -9.3 -0.6 -9.3 -0.5 -9.35 -0.4 -9.35 -0.3 -9.35 -0.25 -9.35 -0.2 -9.2 0.65 -9.05 1.15 Q-8.3 2.35 -6.9 2.75 L-6.6 2.85 -6.3 2.9 -6.05 2.9 -5.85 3.5 -5.65 3.7 -5.45 3.9 -4.85 4.4 -4.7 4.5 -3.2 5.3 -1.4 6.0 0.0 6.55 1.55 6.15 1.6 6.15 2.95 5.7 4.45 4.85 5.25 4.25 5.5 4.0 5.7 3.75 6.15 3.15 6.5 3.05 6.75 2.95 7.6 2.55 8.4 1.9 Q9.35 0.7 9.4 -0.8 L9.4 -0.85 9.25 -1.4 9.2 -1.45 8.75 -1.55 8.65 -1.5 8.65 -1.45 8.2 -1.2 7.55 -0.75 6.95 -0.55 6.45 -0.4 6.4 -0.45 6.4 -0.55 6.3 -0.8 6.0 -1.25 5.45 -2.15 5.3 -2.4 5.25 -2.45 5.0 -2.85 4.75 -3.2 4.8 -3.35 4.75 -3.35 4.35 -3.7 Q3.6 -4.3 2.7 -4.6 L2.35 -4.75 2.25 -4.75 2.0 -4.85 1.95 -4.9 1.65 -5.25 1.6 -5.3 M6.6 -1.15 L6.7 -0.9 6.75 -0.85 6.8 -0.9 6.9 -1.0 7.1 -1.2 7.35 -1.4 7.8 -2.3 Q8.25 -3.7 7.95 -5.2 L7.75 -5.65 7.45 -5.8 7.35 -5.9 7.25 -5.85 7.2 -5.85 6.8 -5.35 5.9 -4.2 5.15 -3.6 5.2 -3.55 5.55 -3.1 5.65 -2.95 5.7 -2.85 5.75 -2.75 6.25 -1.85 6.25 -1.7 6.3 -1.55 6.35 -1.5 6.6 -1.15 M-7.45 -6.0 L-7.5 -6.1 -7.65 -6.1 -7.7 -6.0 -8.1 -4.95 -8.1 -4.25 Q-8.05 -2.7 -6.95 -1.55 L-6.9 -1.5 -6.6 -1.2 -6.5 -1.1 -6.5 -1.15 -6.45 -1.35 -6.4 -1.4 -6.2 -1.95 -6.2 -2.05 -6.15 -2.1 -6.15 -2.15 -6.0 -2.55 -5.65 -3.15 -5.6 -3.3 -5.5 -3.45 -5.3 -3.8 -5.2 -3.95 -5.3 -4.0 -6.0 -4.55 -6.75 -5.15 -6.85 -5.35 -7.45 -6.0 M-5.1 -4.05 L-4.95 -4.1 -4.85 -4.2 -5.1 -4.1 -5.1 -4.05 M-6.15 -2.1 L-5.95 -1.9 -5.9 -2.0 -6.15 -2.1" fill="#003300" fill-rule="evenodd" stroke="none"/>
    <path d="M2.35 -4.75 L2.7 -4.6 Q2.7 -2.9 1.1 -2.1 L-1.6 -2.15 -3.1 -3.35 Q-3.6 -3.9 -3.55 -4.45 L-2.95 -4.75 -2.7 -4.85 -2.95 -4.75 -2.8 -4.4 -2.4 -3.85 Q-1.85 -3.15 -1.0 -2.9 0.45 -2.45 1.65 -3.25 L1.95 -3.55 2.6 -4.65 2.35 -4.75 M4.75 -3.2 L5.0 -2.85 5.25 -2.45 5.3 -2.4 5.45 -2.15 6.0 -1.25 6.3 -0.8 6.4 -0.55 6.4 -0.45 6.45 -0.4 5.85 -0.2 4.65 0.2 4.55 0.35 4.45 0.4 4.25 0.55 Q3.8 1.3 3.95 2.15 L3.85 2.3 Q3.7 3.05 4.05 3.65 L3.7 3.8 2.85 4.05 1.2 4.35 0.7 4.35 1.05 4.35 Q1.1 3.45 0.15 3.55 L0.05 3.6 0.0 3.6 -0.4 4.35 -0.6 4.3 -2.7 3.95 -3.25 3.85 -4.05 3.35 Q-3.65 2.4 -3.9 1.3 L-3.95 1.0 -4.1 0.7 -4.1 0.65 -4.25 0.15 Q-4.15 -0.25 -4.65 -0.45 L-4.7 -0.45 -6.05 -0.65 -6.05 -0.7 -6.0 -0.85 -5.95 -1.15 -5.8 -1.6 -5.75 -1.75 -5.7 -1.8 -5.2 -2.9 -4.85 -2.3 -4.85 -2.25 -4.0 -1.15 -3.8 -0.95 -3.35 -0.45 -3.35 -0.5 -1.35 0.0 -1.4 0.0 -1.35 0.05 0.7 0.25 1.1 0.55 0.7 0.2 1.9 0.0 3.15 -0.45 3.15 -0.35 3.2 -0.45 3.35 -0.45 4.4 -2.05 4.5 -2.25 4.55 -2.45 4.65 -2.8 4.75 -3.2 M9.2 -1.45 L9.25 -1.4 9.4 -0.85 9.4 -0.8 Q9.35 0.7 8.4 1.9 L7.6 2.55 6.75 2.95 6.5 3.05 5.15 2.2 5.85 1.95 Q7.75 1.15 8.8 -0.6 L8.95 -0.85 9.1 -1.15 9.2 -1.45 M-6.3 2.9 L-6.6 2.85 -6.9 2.75 Q-8.3 2.35 -9.05 1.15 L-9.2 0.65 -9.35 -0.2 -9.35 -0.25 -9.35 -0.3 -9.35 -0.4 -9.3 -0.5 -9.15 -0.25 -9.0 0.0 -8.0 1.05 -7.15 1.65 -6.35 1.8 -4.85 1.35 -4.9 1.55 Q-5.1 2.5 -6.05 2.75 L-6.3 2.9 M-0.85 1.55 L-1.0 2.25 Q-0.95 2.95 -0.3 3.15 0.85 3.5 1.4 2.45 1.8 1.75 1.15 1.4 L1.1 1.35 Q0.85 0.8 0.3 0.8 L-0.05 0.8 -0.25 0.95 -0.4 1.0 -0.85 1.55 M-5.3 -1.15 L-5.4 -1.25 -5.3 -1.1 -5.3 -1.15" fill="#697d69" fill-rule="evenodd" stroke="none"/>
    <path d="M2.7 -4.6 Q3.6 -4.3 4.35 -3.7 L4.75 -3.35 4.8 -3.35 4.75 -3.2 4.65 -2.8 4.55 -2.45 4.5 -2.25 4.4 -2.05 3.35 -0.45 3.2 -0.45 3.15 -0.45 1.9 0.0 0.7 0.2 0.7 0.25 -1.35 0.05 -1.35 0.0 -3.35 -0.5 -3.35 -0.45 -3.8 -0.95 -4.0 -1.15 -4.85 -2.25 -4.85 -2.3 -5.2 -2.9 -5.0 -3.15 -4.95 -3.25 -4.75 -3.75 -4.45 -3.95 -4.25 -4.1 -3.55 -4.45 Q-3.6 -3.9 -3.1 -3.35 L-1.6 -2.15 1.1 -2.1 Q2.7 -2.9 2.7 -4.6 M6.45 -0.4 L6.95 -0.55 7.55 -0.75 8.2 -1.2 8.65 -1.45 8.65 -1.5 8.75 -1.55 9.2 -1.45 9.1 -1.15 8.95 -0.85 8.8 -0.6 Q7.75 1.15 5.85 1.95 L5.15 2.2 3.95 2.2 3.95 2.15 Q3.8 1.3 4.25 0.55 L4.45 0.4 4.55 0.35 4.65 0.2 5.85 -0.2 6.45 -0.4 M-9.3 -0.5 L-9.3 -0.6 -9.15 -0.8 -9.15 -0.85 -9.0 -0.9 -8.45 -1.05 -7.55 -1.1 -6.95 -1.0 -6.55 -0.9 -6.35 -0.8 -6.05 -0.65 -4.7 -0.45 -4.65 -0.45 Q-4.15 -0.25 -4.25 0.15 L-4.1 0.65 -4.1 0.7 -4.05 0.85 -4.05 0.9 -4.05 0.95 -4.15 1.0 -4.85 1.35 -6.35 1.8 -7.15 1.65 -8.0 1.05 -9.0 0.0 -9.15 -0.25 -9.3 -0.5 M3.75 -1.9 L3.75 -1.85 3.8 -1.85 3.8 -2.05 3.75 -1.9 M1.2 4.35 L1.15 4.6 Q1.0 5.35 0.25 5.45 L-0.2 5.35 Q-0.85 5.05 -0.65 4.4 L-0.6 4.3 -0.4 4.35 0.0 3.6 0.05 3.6 0.15 3.55 Q1.1 3.45 1.05 4.35 L0.7 4.35 1.2 4.35 M0.3 0.8 L0.2 0.8 0.65 0.9 0.85 1.1 1.0 1.45 0.95 1.95 Q0.45 2.85 -0.5 2.4 L-0.85 2.0 -0.85 1.85 -0.8 1.5 -0.85 1.55 -0.4 1.0 -0.3 0.95 -0.25 0.95 -0.05 0.8 0.3 0.8 M-3.85 -2.2 L-3.8 -2.25 -3.9 -2.3 -3.85 -2.2" fill="#8a9d8a" fill-rule="evenodd" stroke="none"/>
    <path d="M1.6 -5.25 L1.6 -5.3 1.65 -5.25 1.6 -5.25 M3.8 -1.85 L3.75 -1.85 3.75 -1.9 3.8 -1.85 M6.6 -1.15 L6.35 -1.5 6.3 -1.55 6.25 -1.7 6.25 -1.85 6.4 -1.55 6.6 -1.15" fill="#1e5a77" fill-rule="evenodd" stroke="none"/>
    <path d="M-2.25 -5.25 L-2.2 -5.5 -2.15 -5.5 -2.2 -5.25 -2.25 -5.25 M3.8 -1.85 L3.75 -1.9 3.8 -2.05 3.8 -1.85 M-2.5 -4.45 L-2.45 -4.45 -2.45 -4.4 -2.5 -4.4 -2.5 -4.45 M-3.85 -2.2 L-3.9 -2.3 -3.8 -2.25 -3.85 -2.2" fill="#292981" fill-rule="evenodd" stroke="none"/>
    <path d="M3.2 -0.45 L3.15 -0.35 3.15 -0.45 3.2 -0.45 M0.7 0.2 L1.1 0.55 0.7 0.25 0.7 0.2 M-1.35 0.05 L-1.4 0.0 -1.35 0.0 -1.35 0.05 M-2.15 -5.5 L-2.2 -5.5 -2.15 -5.5 M-0.9 4.4 L-0.9 4.5 -0.95 4.5 -0.9 4.4" fill="#4581e0" fill-rule="evenodd" stroke="none"/>
    <path d="M1.6 6.15 L1.55 6.15 1.55 6.1 1.6 6.15" fill="#2365d1" fill-rule="evenodd" stroke="none"/>
    <path d="M-5.1 -4.05 L-5.1 -4.1 -4.85 -4.2 -4.95 -4.1 -5.1 -4.05" fill="#ffcc00" fill-rule="evenodd" stroke="none"/>
    <path d="M-6.15 -2.1 L-5.9 -2.0 -5.95 -1.9 -6.15 -2.1 M-0.3 -3.05 L-0.35 -2.9 -0.35 -3.05 -0.3 -3.05" fill="#3399cc" fill-rule="evenodd" stroke="none"/>
    <path d="M-5.3 -1.15 L-5.3 -1.1 -5.4 -1.25 -5.3 -1.15" fill="#6666cc" fill-rule="evenodd" stroke="none"/>
    <path d="M-2.1 -5.6 L-1.6 -4.2 -0.95 -3.65 Q-0.7 -3.3 -0.2 -3.5 L-0.2 -3.55 -0.15 -3.55 Q0.85 -3.5 1.3 -4.35 L1.6 -5.25 1.65 -5.25 1.95 -4.9 2.0 -4.85 2.25 -4.75 2.35 -4.75 2.6 -4.65 1.95 -3.55 1.65 -3.25 Q0.45 -2.45 -1.0 -2.9 -1.85 -3.15 -2.4 -3.85 L-2.8 -4.4 -2.95 -4.75 -2.7 -4.85 -2.5 -4.95 -2.45 -5.0 -2.3 -5.2 -2.25 -5.25 -2.2 -5.25 -2.15 -5.5 -2.2 -5.5 -2.15 -5.6 -2.1 -5.6 M6.5 3.05 L6.15 3.15 5.7 3.75 5.5 4.0 5.25 4.25 4.45 4.85 2.95 5.7 1.6 6.15 1.55 6.1 1.55 6.15 0.0 6.55 -1.4 6.0 -3.2 5.3 -4.7 4.5 -4.85 4.4 -5.45 3.9 -5.65 3.7 -5.85 3.5 -6.05 2.9 -6.3 2.9 -6.05 2.75 Q-5.1 2.5 -4.9 1.55 L-4.85 1.35 -4.15 1.0 -4.05 0.95 -4.05 0.9 -4.05 0.85 -4.1 0.7 -3.95 1.0 -3.9 1.3 Q-3.65 2.4 -4.05 3.35 L-3.25 3.85 -2.7 3.95 -0.6 4.3 -0.65 4.4 Q-0.85 5.05 -0.2 5.35 L0.25 5.45 Q1.0 5.35 1.15 4.6 L1.2 4.35 2.85 4.05 3.7 3.8 4.05 3.65 Q3.7 3.05 3.85 2.3 L3.95 2.15 3.95 2.2 5.15 2.2 6.5 3.05 M-0.85 1.55 L-0.8 1.5 -0.85 1.85 -0.85 2.0 -0.5 2.4 Q0.45 2.85 0.95 1.95 L1.0 1.45 0.85 1.1 0.65 0.9 0.2 0.8 0.3 0.8 Q0.85 0.8 1.1 1.35 L1.15 1.4 Q1.8 1.75 1.4 2.45 0.85 3.5 -0.3 3.15 -0.95 2.95 -1.0 2.25 L-0.85 1.55 M-0.25 0.95 L-0.3 0.95 -0.4 1.0 -0.25 0.95 M-2.5 -4.45 L-2.5 -4.4 -2.45 -4.4 -2.45 -4.45 -2.5 -4.45 M-0.3 -3.05 L-0.35 -3.05 -0.35 -2.9 -0.3 -3.05 M-0.9 4.4 L-0.95 4.5 -0.9 4.5 -0.9 4.4" fill="#475447" fill-rule="evenodd" stroke="none"/>
  </g>
</svg>
