<?xml version="1.0" encoding="UTF-8" standalone="no"?>
<svg xmlns:xlink="http://www.w3.org/1999/xlink" height="180.1px" width="119.1px" xmlns="http://www.w3.org/2000/svg">
  <g transform="matrix(1.0, 0.0, 0.0, 1.0, 60.15, -40.45)">
    <path d="M-41.9 50.05 L-41.8 50.05 Q-36.1 51.0 -30.45 51.95 L-33.15 54.1 -26.35 54.5 -23.0 54.95 -20.4 55.8 Q-17.7 56.95 -15.8 58.35 L-14.3 58.5 -14.4 58.7 -14.7 59.25 -7.8 59.65 -7.7 59.65 Q1.55 58.75 10.75 57.85 L13.35 57.6 13.4 58.0 23.8 57.2 30.5 57.4 Q31.55 56.2 32.95 55.1 L35.4 53.45 36.8 52.4 37.4 52.4 42.2 52.7 52.1 50.9 54.6 50.4 49.9 49.0 47.0 48.1 38.1 48.0 Q39.05 47.55 39.05 46.6 L39.0 46.6 38.65 46.25 33.25 44.65 32.75 44.45 30.6 43.95 Q28.8 43.65 27.7 43.05 L26.7 42.55 25.25 42.8 19.85 43.7 Q8.65 45.35 -2.9 44.9 L-5.2 44.6 -6.35 44.2 Q-7.45 42.2 -6.1 40.9 L-7.2 40.65 -9.0 40.45 -13.0 41.9 -11.15 42.85 -12.4 44.75 Q-16.2 44.8 -20.0 44.8 L-25.8 44.8 Q-27.8 44.3 -32.05 45.4 -34.25 46.6 -36.45 47.75 -39.2 48.9 -41.9 50.05 L-41.9 50.05 -30.45 51.95 -33.15 54.1 -31.35 54.2 -26.35 54.5 Q-22.9 54.7 -20.4 55.8 -17.9 56.85 -16.1 58.15 L-15.8 58.35 -14.3 58.5 -14.7 59.25 -7.8 59.65 10.95 57.8 13.35 57.6 13.4 58.0 23.8 57.2 Q26.8 57.1 29.8 57.3 L30.5 57.4 Q31.55 56.2 32.95 55.1 L35.4 53.45 36.8 52.4 37.5 52.4 42.2 52.7 45.0 52.2 Q49.8 51.3 54.6 50.4 50.8 49.25 47.0 48.1 42.55 48.05 38.1 48.0 39.05 47.55 39.05 46.6 L39.0 46.6 38.8 46.35 38.65 46.25 38.55 46.25 32.75 44.45 30.6 43.95 Q28.8 43.65 27.7 43.05 L26.7 42.55 26.0 42.7 25.25 42.8 Q21.05 43.45 16.9 44.1 7.0 44.5 -2.9 44.9 L-4.75 44.7 -6.35 44.2 Q-7.45 42.2 -6.1 40.9 L-7.2 40.65 -9.0 40.45 -13.0 41.9 -11.15 42.85 -12.4 44.75 -22.1 44.8 -25.8 44.8 -26.45 44.6 -29.75 43.8 Q-32.35 45.85 -38.8 48.75 L-41.9 50.05 -41.9 50.05 -37.75 50.75 -32.55 51.65 -30.45 51.95 -33.15 54.1 -28.35 54.4 -26.35 54.5 Q-24.15 54.65 -22.35 55.15 -21.3 55.4 -20.4 55.8 -18.2 56.75 -16.55 57.85 L-15.8 58.35 -14.3 58.5 -14.7 59.25 Q-11.25 59.45 -7.8 59.65 L-4.6 59.35 Q3.25 58.55 11.05 57.8 12.2 57.7 13.35 57.6 L13.4 58.0 19.2 57.4 23.8 57.2 Q25.95 57.25 28.1 57.25 L30.5 57.4 Q31.55 56.2 32.95 55.1 L35.4 53.45 36.8 52.4 37.9 52.5 Q40.05 52.6 42.2 52.7 L44.1 52.4 Q49.35 51.4 54.6 50.4 50.8 49.25 47.0 48.1 L45.2 48.1 38.1 48.0 Q39.05 47.55 39.0 46.6 L38.65 46.25 32.75 44.45 30.6 43.95 29.0 43.6 27.7 43.05 26.7 42.55 25.25 42.8 Q16.8 44.4 8.2 44.85 2.7 45.1 -3.4 44.9 -5.1 44.75 -6.35 44.2 -7.45 42.2 -6.1 40.9 L-7.2 40.65 -9.0 40.45 -13.0 41.9 -11.15 42.85 -12.4 44.75 -21.3 44.8 -25.8 44.8 -29.75 43.8 Q-32.35 45.85 -38.0 48.45 L-41.9 50.05 -41.8 50.05 -41.2 50.15 Q-35.8 51.05 -30.45 51.95 L-33.15 54.1 -30.15 54.3 -26.35 54.5 Q-22.9 54.7 -20.4 55.8 -17.7 56.95 -15.8 58.35 L-14.3 58.5 -14.7 59.25 -14.4 59.25 -7.8 59.65 -1.1 58.95 0.2 58.85 Q6.8 58.2 13.35 57.6 L13.4 58.0 16.65 57.65 23.3 57.2 23.8 57.2 30.5 57.4 Q31.55 56.2 32.95 55.1 L35.4 53.45 36.8 52.4 42.2 52.7 42.8 52.6 Q46.6 51.9 50.4 51.2 52.5 50.8 54.6 50.4 52.75 49.85 50.9 49.3 48.95 48.7 47.0 48.1 42.55 48.05 38.1 48.0 39.05 47.55 39.05 46.6 L39.0 46.6 38.8 46.35 38.65 46.25 37.15 45.85 Q34.95 45.15 32.75 44.45 L30.6 43.95 28.85 43.55 27.7 43.05 26.7 42.55 25.25 42.8 11.25 44.7 9.25 44.8 6.45 44.95 Q1.85 45.1 -2.8 44.9 L-2.9 44.9 -6.35 44.2 Q-7.45 42.2 -6.1 40.9 L-7.2 40.65 -9.0 40.45 -13.0 41.9 -11.15 42.85 -12.4 44.75 Q-16.95 44.8 -21.5 44.8 -23.65 44.8 -25.8 44.8 L-27.5 44.4 -28.3 44.2 -29.75 43.8 -30.6 44.4 Q-33.0 46.15 -36.45 47.75 L-39.15 48.95 -41.9 50.05" fill="#ffffff" fill-rule="evenodd" stroke="none">
      <animate attributeName="fill" dur="2s" repeatCount="indefinite" values="#ffffff;#ffffff"/>
      <animate attributeName="fill-opacity" dur="2s" repeatCount="indefinite" values="1.0;1.0"/>
      <animate attributeName="d" dur="2s" repeatCount="indefinite" values="M-41.9 50.05 L-41.8 50.05 Q-36.1 51.0 -30.45 51.95 L-33.15 54.1 -26.35 54.5 -23.0 54.95 -20.4 55.8 Q-17.7 56.95 -15.8 58.35 L-14.3 58.5 -14.4 58.7 -14.7 59.25 -7.8 59.65 -7.7 59.65 Q1.55 58.75 10.75 57.85 L13.35 57.6 13.4 58.0 23.8 57.2 30.5 57.4 Q31.55 56.2 32.95 55.1 L35.4 53.45 36.8 52.4 37.4 52.4 42.2 52.7 52.1 50.9 54.6 50.4 49.9 49.0 47.0 48.1 38.1 48.0 Q39.05 47.55 39.05 46.6 L39.0 46.6 38.65 46.25 33.25 44.65 32.75 44.45 30.6 43.95 Q28.8 43.65 27.7 43.05 L26.7 42.55 25.25 42.8 19.85 43.7 Q8.65 45.35 -2.9 44.9 L-5.2 44.6 -6.35 44.2 Q-7.45 42.2 -6.1 40.9 L-7.2 40.65 -9.0 40.45 -13.0 41.9 -11.15 42.85 -12.4 44.75 Q-16.2 44.8 -20.0 44.8 L-25.8 44.8 Q-27.8 44.3 -32.05 45.4 -34.25 46.6 -36.45 47.75 -39.2 48.9 -41.9 50.05 L-41.9 50.05 -30.45 51.95 -33.15 54.1 -31.35 54.2 -26.35 54.5 Q-22.9 54.7 -20.4 55.8 -17.9 56.85 -16.1 58.15 L-15.8 58.35 -14.3 58.5 -14.7 59.25 -7.8 59.65 10.95 57.8 13.35 57.6 13.4 58.0 23.8 57.2 Q26.8 57.1 29.8 57.3 L30.5 57.4 Q31.55 56.2 32.95 55.1 L35.4 53.45 36.8 52.4 37.5 52.4 42.2 52.7 45.0 52.2 Q49.8 51.3 54.6 50.4 50.8 49.25 47.0 48.1 42.55 48.05 38.1 48.0 39.05 47.55 39.05 46.6 L39.0 46.6 38.8 46.35 38.65 46.25 38.55 46.25 32.75 44.45 30.6 43.95 Q28.8 43.65 27.7 43.05 L26.7 42.55 26.0 42.7 25.25 42.8 Q21.05 43.45 16.9 44.1 7.0 44.5 -2.9 44.9 L-4.75 44.7 -6.35 44.2 Q-7.45 42.2 -6.1 40.9 L-7.2 40.65 -9.0 40.45 -13.0 41.9 -11.15 42.85 -12.4 44.75 -22.1 44.8 -25.8 44.8 -26.45 44.6 -29.75 43.8 Q-32.35 45.85 -38.8 48.75 L-41.9 50.05 -41.9 50.05 -37.75 50.75 -32.55 51.65 -30.45 51.95 -33.15 54.1 -28.35 54.4 -26.35 54.5 Q-24.15 54.65 -22.35 55.15 -21.3 55.4 -20.4 55.8 -18.2 56.75 -16.55 57.85 L-15.8 58.35 -14.3 58.5 -14.7 59.25 Q-11.25 59.45 -7.8 59.65 L-4.6 59.35 Q3.25 58.55 11.05 57.8 12.2 57.7 13.35 57.6 L13.4 58.0 19.2 57.4 23.8 57.2 Q25.95 57.25 28.1 57.25 L30.5 57.4 Q31.55 56.2 32.95 55.1 L35.4 53.45 36.8 52.4 37.9 52.5 Q40.05 52.6 42.2 52.7 L44.1 52.4 Q49.35 51.4 54.6 50.4 50.8 49.25 47.0 48.1 L45.2 48.1 38.1 48.0 Q39.05 47.55 39.0 46.6 L38.65 46.25 32.75 44.45 30.6 43.95 29.0 43.6 27.7 43.05 26.7 42.55 25.25 42.8 Q16.8 44.4 8.2 44.85 2.7 45.1 -3.4 44.9 -5.1 44.75 -6.35 44.2 -7.45 42.2 -6.1 40.9 L-7.2 40.65 -9.0 40.45 -13.0 41.9 -11.15 42.85 -12.4 44.75 -21.3 44.8 -25.8 44.8 -29.75 43.8 Q-32.35 45.85 -38.0 48.45 L-41.9 50.05 -41.8 50.05 -41.2 50.15 Q-35.8 51.05 -30.45 51.95 L-33.15 54.1 -30.15 54.3 -26.35 54.5 Q-22.9 54.7 -20.4 55.8 -17.7 56.95 -15.8 58.35 L-14.3 58.5 -14.7 59.25 -14.4 59.25 -7.8 59.65 -1.1 58.95 0.2 58.85 Q6.8 58.2 13.35 57.6 L13.4 58.0 16.65 57.65 23.3 57.2 23.8 57.2 30.5 57.4 Q31.55 56.2 32.95 55.1 L35.4 53.45 36.8 52.4 42.2 52.7 42.8 52.6 Q46.6 51.9 50.4 51.2 52.5 50.8 54.6 50.4 52.75 49.85 50.9 49.3 48.95 48.7 47.0 48.1 42.55 48.05 38.1 48.0 39.05 47.55 39.05 46.6 L39.0 46.6 38.8 46.35 38.65 46.25 37.15 45.85 Q34.95 45.15 32.75 44.45 L30.6 43.95 28.85 43.55 27.7 43.05 26.7 42.55 25.25 42.8 11.25 44.7 9.25 44.8 6.45 44.95 Q1.85 45.1 -2.8 44.9 L-2.9 44.9 -6.35 44.2 Q-7.45 42.2 -6.1 40.9 L-7.2 40.65 -9.0 40.45 -13.0 41.9 -11.15 42.85 -12.4 44.75 Q-16.95 44.8 -21.5 44.8 -23.65 44.8 -25.8 44.8 L-27.5 44.4 -28.3 44.2 -29.75 43.8 -30.6 44.4 Q-33.0 46.15 -36.45 47.75 L-39.15 48.95 -41.9 50.05;M23.05 119.85 L23.05 119.85 Q24.55 122.1 26.6 123.0 L27.95 123.45 30.75 123.55 32.0 123.3 32.85 124.25 Q33.6 124.95 34.65 125.5 L35.15 125.8 35.25 125.8 35.55 125.9 38.55 126.2 38.55 126.2 Q43.25 124.75 42.25 120.3 L43.35 119.95 43.45 119.95 47.6 118.75 50.3 117.95 Q50.95 117.75 51.6 117.55 L52.8 117.15 53.5 116.95 53.7 116.85 55.4 115.75 58.95 113.55 58.45 112.55 57.6 110.5 56.3 110.8 52.7 111.55 Q52.35 111.6 52.0 111.65 L52.0 111.65 51.9 111.65 49.6 112.15 49.4 112.05 48.5 111.65 Q47.95 111.35 47.4 111.05 L47.0 110.85 46.5 110.55 44.45 109.55 Q39.7 109.0 34.95 108.45 L34.05 108.35 33.95 108.75 Q33.7 109.45 33.45 110.15 L33.35 110.65 33.15 111.35 32.6 113.05 32.3 113.95 31.45 114.0 Q30.15 114.8 28.4 114.25 L25.85 114.05 Q25.0 114.2 23.45 115.4 22.55 116.35 22.35 117.35 22.15 118.55 23.05 119.85 L20.25 200.5 23.85 202.8 24.9 203.5 25.4 203.9 26.0 205.7 Q26.3 206.7 26.6 207.7 26.9 208.55 27.2 209.4 L27.3 209.5 27.6 210.0 27.8 210.2 29.4 212.2 33.7 217.6 34.6 217.2 34.7 217.1 38.0 215.35 Q38.95 214.85 39.9 214.35 L40.2 214.65 Q40.75 215.05 41.3 215.45 L42.3 215.85 42.85 216.05 43.05 216.15 44.75 216.25 45.8 215.85 Q47.75 214.75 48.65 213.45 49.55 212.15 49.35 210.65 49.2 209.25 48.1 207.7 47.9 207.45 47.75 207.2 L47.75 207.2 47.75 207.2 47.75 207.2 47.75 207.2 45.8 207.0 45.7 206.1 Q45.55 205.55 45.4 205.0 L45.3 204.7 45.2 204.4 45.1 204.2 Q44.45 202.55 43.15 201.8 39.1 199.6 36.7 202.85 L36.35 203.35 35.95 203.15 Q35.4 202.85 34.85 202.55 L34.45 202.35 33.95 202.05 32.55 201.3 31.85 200.9 31.05 200.5 27.95 198.8 26.65 199.05 26.35 199.05 25.15 199.25 Q23.25 199.4 21.35 199.5 L20.05 200.4 -46.15 207.8 -44.65 209.3 -42.8 210.85 -41.75 211.55 -40.5 212.55 -38.7 214.25 -37.65 214.25 Q-36.7 214.2 -35.75 214.15 -35.4 214.6 -35.05 215.05 -34.5 216.05 -33.95 217.05 L-33.75 217.15 -33.0 217.45 -32.6 217.65 Q-31.1 218.4 -29.75 219.5 L-28.6 220.55 Q-24.75 220.45 -21.15 218.45 -20.6 218.15 -20.05 218.0 L-19.9 217.9 -17.1 217.45 -14.7 217.2 Q-13.6 216.85 -12.75 216.2 L-12.1 217.25 Q-11.5 217.7 -10.9 218.15 L-9.45 218.6 -8.6 218.7 -8.1 218.7 Q-6.95 218.7 -5.85 218.1 L-5.05 217.5 Q-2.55 215.45 -2.2 212.95 -1.95 211.15 -2.9 209.1 L-3.3 208.3 -5.2 205.4 Q-5.4 205.05 -5.6 204.7 L-5.7 204.6 -7.4 202.0 -8.0 201.0 -8.4 200.3 -9.1 200.5 -9.6 200.7 -10.2 201.0 Q-14.2 202.6 -18.15 204.15 -20.3 206.1 -22.45 208.0 -23.2 208.05 -23.95 208.1 -24.85 208.2 -25.75 208.25 L-26.25 208.25 -27.0 208.15 -29.0 207.55 -30.05 207.25 -31.15 207.0 -35.6 206.35 -37.7 206.65 -39.65 206.85 Q-42.0 207.05 -44.35 207.25 L-46.45 207.6 -60.15 108.05 -59.9 108.35 Q-57.8 110.8 -56.7 113.45 L-56.1 115.25 -55.75 116.8 -53.75 116.9 Q-52.2 117.0 -50.65 117.05 -49.25 117.1 -47.85 117.15 L-47.05 117.15 -46.55 117.15 -46.35 117.15 -42.95 116.35 -39.45 115.55 -39.05 115.95 Q-36.95 119.4 -33.55 120.25 L-33.35 120.25 -31.75 120.45 -28.2 120.15 -27.7 120.05 -24.2 119.6 Q-23.3 119.55 -22.45 119.55 L-20.85 119.6 -19.95 119.7 -17.15 120.2 -16.85 120.3 Q-14.9 119.25 -14.3 117.0 -14.0 115.7 -14.45 114.75 -14.85 113.9 -15.85 113.3 -16.8 112.7 -17.8 112.25 -20.0 111.2 -22.3 110.8 -22.75 110.7 -23.2 110.65 L-23.3 110.65 -23.4 110.65 -23.5 110.65 -24.3 110.6 Q-24.5 109.4 -25.2 108.25 L-25.9 107.2 -26.6 106.4 -27.0 106.0 -27.4 105.6 -28.0 105.1 -33.6 99.95 -34.45 100.6 -34.7 102.0 Q-35.25 104.45 -37.1 106.2 L-37.1 106.2 -38.45 107.3 Q-39.3 107.85 -40.15 108.4 L-40.7 108.7 -41.5 109.1 -43.6 109.8 -44.7 109.95 -45.9 110.0 Q-48.2 109.95 -50.6 108.9 -51.55 108.5 -52.0 107.7 L-52.3 106.85 -52.35 106.45 -53.05 106.55 -53.65 106.6 Q-55.3 106.9 -56.95 107.2 L-58.65 107.55 -60.15 108.05"/>
    </path>
    <path d="M-41.9 50.05 L-39.15 48.95 -36.45 47.75 Q-33.0 46.15 -30.6 44.4 L-29.75 43.8 -28.3 44.2 -27.5 44.4 -25.8 44.8 Q-23.65 44.8 -21.5 44.8 -16.95 44.8 -12.4 44.75 L-11.15 42.85 -13.0 41.9 -9.0 40.45 -7.2 40.65 -6.1 40.9 Q-7.45 42.2 -6.35 44.2 L-2.9 44.9 -2.8 44.9 Q1.85 45.1 6.45 44.95 L9.25 44.8 11.25 44.7 25.25 42.8 26.7 42.55 27.7 43.05 28.85 43.55 30.6 43.95 32.75 44.45 Q34.95 45.15 37.15 45.85 L38.65 46.25 38.8 46.35 39.0 46.6 39.05 46.6 Q39.05 47.55 38.1 48.0 42.55 48.05 47.0 48.1 48.95 48.7 50.9 49.3 52.75 49.85 54.6 50.4 52.5 50.8 50.4 51.2 46.6 51.9 42.8 52.6 L42.2 52.7 36.8 52.4 35.4 53.45 32.95 55.1 Q31.55 56.2 30.5 57.4 L23.8 57.2 23.3 57.2 16.65 57.65 13.4 58.0 13.35 57.6 Q6.8 58.2 0.2 58.85 L-1.1 58.95 -7.8 59.65 -14.4 59.25 -14.7 59.25 -14.3 58.5 -15.8 58.35 Q-17.7 56.95 -20.4 55.8 -22.9 54.7 -26.35 54.5 L-30.15 54.3 -33.15 54.1 -30.45 51.95 Q-35.8 51.05 -41.2 50.15 L-41.8 50.05 -41.9 50.05 -38.0 48.45 Q-32.35 45.85 -29.75 43.8 L-25.8 44.8 -21.3 44.8 -12.4 44.75 -11.15 42.85 -13.0 41.9 -9.0 40.45 -7.2 40.65 -6.1 40.9 Q-7.45 42.2 -6.35 44.2 -5.1 44.75 -3.4 44.9 2.7 45.1 8.2 44.85 16.8 44.4 25.25 42.8 L26.7 42.55 27.7 43.05 29.0 43.6 30.6 43.95 32.75 44.45 38.65 46.25 39.0 46.6 Q39.05 47.55 38.1 48.0 L45.2 48.1 47.0 48.1 Q50.8 49.25 54.6 50.4 49.35 51.4 44.1 52.4 L42.2 52.7 Q40.05 52.6 37.9 52.5 L36.8 52.4 35.4 53.45 32.95 55.1 Q31.55 56.2 30.5 57.4 L28.1 57.25 Q25.95 57.25 23.8 57.2 L19.2 57.4 13.4 58.0 13.35 57.6 Q12.2 57.7 11.05 57.8 3.25 58.55 -4.6 59.35 L-7.8 59.65 Q-11.25 59.45 -14.7 59.25 L-14.3 58.5 -15.8 58.35 -16.55 57.85 Q-18.2 56.75 -20.4 55.8 -21.3 55.4 -22.35 55.15 -24.15 54.65 -26.35 54.5 L-28.35 54.4 -33.15 54.1 -30.45 51.95 -32.55 51.65 -37.75 50.75 -41.9 50.05 -41.9 50.05 -38.8 48.75 Q-32.35 45.85 -29.75 43.8 L-26.45 44.6 -25.8 44.8 -22.1 44.8 -12.4 44.75 -11.15 42.85 -13.0 41.9 -9.0 40.45 -7.2 40.65 -6.1 40.9 Q-7.45 42.2 -6.35 44.2 L-4.75 44.7 -2.9 44.9 Q7.0 44.5 16.9 44.1 21.05 43.45 25.25 42.8 L26.0 42.7 26.7 42.55 27.7 43.05 Q28.8 43.65 30.6 43.95 L32.75 44.45 38.55 46.25 38.65 46.25 38.8 46.35 39.0 46.6 39.05 46.6 Q39.05 47.55 38.1 48.0 42.55 48.05 47.0 48.1 50.8 49.25 54.6 50.4 49.8 51.3 45.0 52.2 L42.2 52.7 37.5 52.4 36.8 52.4 35.4 53.45 32.95 55.1 Q31.55 56.2 30.5 57.4 L29.8 57.3 Q26.8 57.1 23.8 57.2 L13.4 58.0 13.35 57.6 10.95 57.8 -7.8 59.65 -14.7 59.25 -14.3 58.5 -15.8 58.35 -16.1 58.15 Q-17.9 56.85 -20.4 55.8 -22.9 54.7 -26.35 54.5 L-31.35 54.2 -33.15 54.1 -30.45 51.95 -41.9 50.05 -41.9 50.05 Q-39.2 48.9 -36.45 47.75 -34.25 46.6 -32.05 45.4 -27.8 44.3 -25.8 44.8 L-20.0 44.8 Q-16.2 44.8 -12.4 44.75 L-11.15 42.85 -13.0 41.9 -9.0 40.45 -7.2 40.65 -6.1 40.9 Q-7.45 42.2 -6.35 44.2 L-5.2 44.6 -2.9 44.9 Q8.65 45.35 19.85 43.7 L25.25 42.8 26.7 42.55 27.7 43.05 Q28.8 43.65 30.6 43.95 L32.75 44.45 33.25 44.65 38.65 46.25 39.0 46.6 39.05 46.6 Q39.05 47.55 38.1 48.0 L47.0 48.1 49.9 49.0 54.6 50.4 52.1 50.9 42.2 52.7 37.4 52.4 36.8 52.4 35.4 53.45 32.95 55.1 Q31.55 56.2 30.5 57.4 L23.8 57.2 13.4 58.0 13.35 57.6 10.75 57.85 Q1.55 58.75 -7.7 59.65 L-7.8 59.65 -14.7 59.25 -14.4 58.7 -14.3 58.5 -15.8 58.35 Q-17.7 56.95 -20.4 55.8 L-23.0 54.95 -26.35 54.5 -33.15 54.1 -30.45 51.95 Q-36.1 51.0 -41.8 50.05 L-41.9 50.05" fill="none" stroke="#000000" stroke-linecap="round" stroke-linejoin="round" stroke-opacity="0.0" stroke-width="1.0">
      <animate attributeName="stroke" dur="2s" repeatCount="indefinite" values="#000000;#000001"/>
      <animate attributeName="stroke-width" dur="2s" repeatCount="indefinite" values="0.0;0.0"/>
      <animate attributeName="fill-opacity" dur="2s" repeatCount="indefinite" values="0.0;0.0"/>
      <animate attributeName="d" dur="2s" repeatCount="indefinite" values="M-41.9 50.05 L-39.15 48.95 -36.45 47.75 Q-33.0 46.15 -30.6 44.4 L-29.75 43.8 -28.3 44.2 -27.5 44.4 -25.8 44.8 Q-23.65 44.8 -21.5 44.8 -16.95 44.8 -12.4 44.75 L-11.15 42.85 -13.0 41.9 -9.0 40.45 -7.2 40.65 -6.1 40.9 Q-7.45 42.2 -6.35 44.2 L-2.9 44.9 -2.8 44.9 Q1.85 45.1 6.45 44.95 L9.25 44.8 11.25 44.7 25.25 42.8 26.7 42.55 27.7 43.05 28.85 43.55 30.6 43.95 32.75 44.45 Q34.95 45.15 37.15 45.85 L38.65 46.25 38.8 46.35 39.0 46.6 39.05 46.6 Q39.05 47.55 38.1 48.0 42.55 48.05 47.0 48.1 48.95 48.7 50.9 49.3 52.75 49.85 54.6 50.4 52.5 50.8 50.4 51.2 46.6 51.9 42.8 52.6 L42.2 52.7 36.8 52.4 35.4 53.45 32.95 55.1 Q31.55 56.2 30.5 57.4 L23.8 57.2 23.3 57.2 16.65 57.65 13.4 58.0 13.35 57.6 Q6.8 58.2 0.2 58.85 L-1.1 58.95 -7.8 59.65 -14.4 59.25 -14.7 59.25 -14.3 58.5 -15.8 58.35 Q-17.7 56.95 -20.4 55.8 -22.9 54.7 -26.35 54.5 L-30.15 54.3 -33.15 54.1 -30.45 51.95 Q-35.8 51.05 -41.2 50.15 L-41.8 50.05 -41.9 50.05 -38.0 48.45 Q-32.35 45.85 -29.75 43.8 L-25.8 44.8 -21.3 44.8 -12.4 44.75 -11.15 42.85 -13.0 41.9 -9.0 40.45 -7.2 40.65 -6.1 40.9 Q-7.45 42.2 -6.35 44.2 -5.1 44.75 -3.4 44.9 2.7 45.1 8.2 44.85 16.8 44.4 25.25 42.8 L26.7 42.55 27.7 43.05 29.0 43.6 30.6 43.95 32.75 44.45 38.65 46.25 39.0 46.6 Q39.05 47.55 38.1 48.0 L45.2 48.1 47.0 48.1 Q50.8 49.25 54.6 50.4 49.35 51.4 44.1 52.4 L42.2 52.7 Q40.05 52.6 37.9 52.5 L36.8 52.4 35.4 53.45 32.95 55.1 Q31.55 56.2 30.5 57.4 L28.1 57.25 Q25.95 57.25 23.8 57.2 L19.2 57.4 13.4 58.0 13.35 57.6 Q12.2 57.7 11.05 57.8 3.25 58.55 -4.6 59.35 L-7.8 59.65 Q-11.25 59.45 -14.7 59.25 L-14.3 58.5 -15.8 58.35 -16.55 57.85 Q-18.2 56.75 -20.4 55.8 -21.3 55.4 -22.35 55.15 -24.15 54.65 -26.35 54.5 L-28.35 54.4 -33.15 54.1 -30.45 51.95 -32.55 51.65 -37.75 50.75 -41.9 50.05 -41.9 50.05 -38.8 48.75 Q-32.35 45.85 -29.75 43.8 L-26.45 44.6 -25.8 44.8 -22.1 44.8 -12.4 44.75 -11.15 42.85 -13.0 41.9 -9.0 40.45 -7.2 40.65 -6.1 40.9 Q-7.45 42.2 -6.35 44.2 L-4.75 44.7 -2.9 44.9 Q7.0 44.5 16.9 44.1 21.05 43.45 25.25 42.8 L26.0 42.7 26.7 42.55 27.7 43.05 Q28.8 43.65 30.6 43.95 L32.75 44.45 38.55 46.25 38.65 46.25 38.8 46.35 39.0 46.6 39.05 46.6 Q39.05 47.55 38.1 48.0 42.55 48.05 47.0 48.1 50.8 49.25 54.6 50.4 49.8 51.3 45.0 52.2 L42.2 52.7 37.5 52.4 36.8 52.4 35.4 53.45 32.95 55.1 Q31.55 56.2 30.5 57.4 L29.8 57.3 Q26.8 57.1 23.8 57.2 L13.4 58.0 13.35 57.6 10.95 57.8 -7.8 59.65 -14.7 59.25 -14.3 58.5 -15.8 58.35 -16.1 58.15 Q-17.9 56.85 -20.4 55.8 -22.9 54.7 -26.35 54.5 L-31.35 54.2 -33.15 54.1 -30.45 51.95 -41.9 50.05 -41.9 50.05 Q-39.2 48.9 -36.45 47.75 -34.25 46.6 -32.05 45.4 -27.8 44.3 -25.8 44.8 L-20.0 44.8 Q-16.2 44.8 -12.4 44.75 L-11.15 42.85 -13.0 41.9 -9.0 40.45 -7.2 40.65 -6.1 40.9 Q-7.45 42.2 -6.35 44.2 L-5.2 44.6 -2.9 44.9 Q8.65 45.35 19.85 43.7 L25.25 42.8 26.7 42.55 27.7 43.05 Q28.8 43.65 30.6 43.95 L32.75 44.45 33.25 44.65 38.65 46.25 39.0 46.6 39.05 46.6 Q39.05 47.55 38.1 48.0 L47.0 48.1 49.9 49.0 54.6 50.4 52.1 50.9 42.2 52.7 37.4 52.4 36.8 52.4 35.4 53.45 32.95 55.1 Q31.55 56.2 30.5 57.4 L23.8 57.2 13.4 58.0 13.35 57.6 10.75 57.85 Q1.55 58.75 -7.7 59.65 L-7.8 59.65 -14.7 59.25 -14.4 58.7 -14.3 58.5 -15.8 58.35 Q-17.7 56.95 -20.4 55.8 L-23.0 54.95 -26.35 54.5 -33.15 54.1 -30.45 51.95 Q-36.1 51.0 -41.8 50.05 L-41.9 50.05;M-60.15 108.05 L-58.65 107.55 -56.95 107.2 Q-55.3 106.9 -53.65 106.6 L-53.05 106.55 -52.35 106.45 -52.3 106.85 -52.0 107.7 Q-51.55 108.5 -50.6 108.9 -48.2 109.95 -45.9 110.0 L-44.7 109.95 -43.6 109.8 -41.5 109.1 -40.7 108.7 -40.15 108.4 Q-39.3 107.85 -38.45 107.3 L-37.1 106.2 -37.1 106.2 Q-35.25 104.45 -34.7 102.0 L-34.45 100.6 -33.6 99.95 -28.0 105.1 -27.4 105.6 -27.0 106.0 -26.6 106.4 -25.9 107.2 -25.2 108.25 Q-24.5 109.4 -24.3 110.6 L-23.5 110.65 -23.4 110.65 -23.3 110.65 -23.2 110.65 Q-22.75 110.7 -22.3 110.8 -20.0 111.2 -17.8 112.25 -16.8 112.7 -15.85 113.3 -14.85 113.9 -14.45 114.75 -14.0 115.7 -14.3 117.0 -14.9 119.25 -16.85 120.3 L-17.15 120.2 -19.95 119.7 -20.85 119.6 -22.45 119.55 Q-23.3 119.55 -24.2 119.6 L-27.7 120.05 -28.2 120.15 -31.75 120.45 -33.35 120.25 -33.55 120.25 Q-36.95 119.4 -39.05 115.95 L-39.45 115.55 -42.95 116.35 -46.35 117.15 -46.55 117.15 -47.05 117.15 -47.85 117.15 Q-49.25 117.1 -50.65 117.05 -52.2 117.0 -53.75 116.9 L-55.75 116.8 -56.1 115.25 -56.7 113.45 Q-57.8 110.8 -59.9 108.35 L-60.15 108.05 -60.15 108.05 -44.35 207.25 Q-42.0 207.05 -39.65 206.85 L-37.7 206.65 -35.6 206.35 -31.15 207.0 -30.05 207.25 -29.0 207.55 -27.0 208.15 -26.25 208.25 -25.75 208.25 Q-24.85 208.2 -23.95 208.1 -23.2 208.05 -22.45 208.0 -20.3 206.1 -18.15 204.15 -14.2 202.6 -10.2 201.0 L-9.6 200.7 -9.1 200.5 -8.4 200.3 -8.0 201.0 -7.4 202.0 -5.7 204.6 -5.6 204.7 Q-5.4 205.05 -5.2 205.4 L-3.3 208.3 -2.9 209.1 Q-1.95 211.15 -2.2 212.95 -2.55 215.45 -5.05 217.5 L-5.85 218.1 Q-6.95 218.7 -8.1 218.7 L-8.6 218.7 -9.45 218.6 -10.9 218.15 Q-11.5 217.7 -12.1 217.25 L-12.75 216.2 Q-13.6 216.85 -14.7 217.2 L-17.1 217.45 -19.9 217.9 -20.05 218.0 Q-20.6 218.15 -21.15 218.45 -24.75 220.45 -28.6 220.55 L-29.75 219.5 Q-31.1 218.4 -32.6 217.65 L-33.0 217.45 -33.75 217.15 -33.95 217.05 Q-34.5 216.05 -35.05 215.05 -35.4 214.6 -35.75 214.15 -36.7 214.2 -37.65 214.25 L-38.7 214.25 -40.5 212.55 -41.75 211.55 -42.8 210.85 -44.65 209.3 -46.15 207.8 -46.45 207.6 21.35 199.5 Q23.25 199.4 25.15 199.25 L26.35 199.05 26.65 199.05 27.95 198.8 31.05 200.5 31.85 200.9 32.55 201.3 33.95 202.05 34.45 202.35 34.85 202.55 Q35.4 202.85 35.95 203.15 L36.35 203.35 36.7 202.85 Q39.1 199.6 43.15 201.8 44.45 202.55 45.1 204.2 L45.2 204.4 45.3 204.7 45.4 205.0 Q45.55 205.55 45.7 206.1 L45.8 207.0 47.75 207.2 47.75 207.2 47.75 207.2 47.75 207.2 47.75 207.2 Q47.9 207.45 48.1 207.7 49.2 209.25 49.35 210.65 49.55 212.15 48.65 213.45 47.75 214.75 45.8 215.85 L44.75 216.25 43.05 216.15 42.85 216.05 42.3 215.85 41.3 215.45 Q40.75 215.05 40.2 214.65 L39.9 214.35 Q38.95 214.85 38.0 215.35 L34.7 217.1 34.6 217.2 33.7 217.6 29.4 212.2 27.8 210.2 27.6 210.0 27.3 209.5 27.2 209.4 Q26.9 208.55 26.6 207.7 26.3 206.7 26.0 205.7 L25.4 203.9 24.9 203.5 23.85 202.8 20.25 200.5 20.05 200.4 Q22.15 118.55 22.35 117.35 22.55 116.35 23.45 115.4 25.0 114.2 25.85 114.05 L28.4 114.25 Q30.15 114.8 31.45 114.0 L32.3 113.95 32.6 113.05 33.15 111.35 33.35 110.65 33.45 110.15 Q33.7 109.45 33.95 108.75 L34.05 108.35 34.95 108.45 Q39.7 109.0 44.45 109.55 L46.5 110.55 47.0 110.85 47.4 111.05 Q47.95 111.35 48.5 111.65 L49.4 112.05 49.6 112.15 51.9 111.65 52.0 111.65 52.0 111.65 Q52.35 111.6 52.7 111.55 L56.3 110.8 57.6 110.5 58.45 112.55 58.95 113.55 55.4 115.75 53.7 116.85 53.5 116.95 52.8 117.15 51.6 117.55 Q50.95 117.75 50.3 117.95 L47.6 118.75 43.45 119.95 43.35 119.95 42.25 120.3 Q43.25 124.75 38.55 126.2 L38.55 126.2 35.55 125.9 35.25 125.8 35.15 125.8 34.65 125.5 Q33.6 124.95 32.85 124.25 L32.0 123.3 30.75 123.55 27.95 123.45 26.6 123.0 Q24.55 122.1 23.05 119.85 L23.05 119.85"/>
    </path>
  </g>
</svg>
