<?xml version="1.0" encoding="UTF-8" standalone="no"?>
<svg xmlns:xlink="http://www.w3.org/1999/xlink" height="271.55px" width="126.8px" xmlns="http://www.w3.org/2000/svg">
  <g transform="matrix(1.0, 0.0, 0.0, 1.0, 59.5, 29.5)">
    <path d="M-57.7 86.5 L-57.7 86.5 Q-57.6 88.05 -56.7 89.25 -55.5 90.95 -54.75 92.8 -53.9 94.85 -53.55 97.05 L-53.7 97.75 Q-54.0 99.8 -54.25 101.85 L-54.3 104.25 -54.15 106.8 -53.2 115.55 -53.1 116.75 Q-52.8 120.5 -50.45 122.35 -49.45 123.15 -48.05 123.6 -48.25 129.65 -45.4 134.4 -43.8 137.1 -41.15 139.35 -36.85 143.1 -32.55 146.85 -31.85 151.45 -32.0 156.1 -32.1 159.5 -32.65 162.9 L-33.5 169.2 Q-33.65 171.7 -33.8 174.2 -33.75 177.6 -33.7 180.95 L-33.65 182.45 Q-33.5 187.1 -34.2 191.55 -34.55 193.25 -34.85 194.9 L-35.05 195.7 Q-35.25 196.5 -35.45 197.3 L-35.55 197.6 Q-36.3 200.25 -37.35 202.85 L-37.35 202.95 Q-38.85 206.5 -39.85 210.2 L-39.95 210.6 -40.65 212.95 -41.95 216.6 -42.9 218.8 -43.7 220.6 Q-42.15 221.95 -40.6 223.25 -39.55 224.15 -38.5 225.0 -32.8 229.3 -27.1 233.55 L-25.0 235.0 -23.4 236.0 -22.8 236.4 -22.6 236.3 -21.2 235.75 Q-17.85 234.2 -14.6 232.05 L-14.5 231.95 -13.7 231.35 -11.65 229.6 -11.25 229.6 -8.95 229.8 -7.9 231.15 Q-7.45 231.6 -7.05 232.0 -5.35 233.4 -3.0 234.05 3.55 235.75 10.4 235.95 L10.6 235.95 11.3 236.05 Q12.1 236.25 12.8 236.75 L14.25 237.65 Q15.65 238.4 17.15 238.8 L18.9 239.15 19.15 239.15 19.55 239.2 Q21.1 239.0 22.65 238.8 24.8 238.1 26.95 237.45 29.7 236.4 32.45 235.35 33.2 236.4 34.3 236.65 L35.85 236.85 37.4 236.5 44.9 233.3 45.65 232.55 46.1 232.95 46.4 232.2 Q47.1 230.55 47.75 228.9 L47.95 228.3 49.15 225.4 Q51.15 220.45 53.15 215.5 L53.15 215.5 53.35 208.1 53.55 202.7 53.65 198.9 Q53.5 195.7 53.4 192.55 53.25 191.25 53.1 190.0 52.55 186.45 50.9 183.2 L49.8 181.2 47.9 178.2 44.6 173.5 44.5 173.2 Q44.3 172.0 44.1 170.8 L43.3 166.3 43.05 164.9 Q42.8 162.7 43.0 160.45 L43.15 158.8 43.9 154.5 Q45.0 147.95 46.45 141.5 47.15 138.6 47.85 135.75 L48.2 134.2 Q48.75 131.3 48.5 128.3 L50.6 128.6 51.5 128.9 Q56.5 130.3 61.55 128.85 L62.35 127.8 Q62.95 127.1 62.95 126.2 63.05 123.75 62.75 121.4 L62.3 118.55 62.1 117.65 61.6 115.55 61.2 114.05 61.45 112.45 Q61.45 109.9 60.95 107.5 60.7 106.35 61.2 105.4 L61.5 104.8 62.55 102.7 Q64.7 97.85 65.4 92.75 65.95 88.6 65.55 84.25 65.25 82.15 65.0 80.1 64.4 76.9 63.4 73.75 62.4 70.55 60.9 67.45 L60.75 67.2 60.7 66.6 60.95 63.4 60.95 62.8 Q61.0 60.45 60.65 58.1 L59.8 54.35 59.0 51.9 Q57.3 47.4 54.6 43.45 53.0 41.15 51.05 39.0 L50.45 38.05 50.3 37.65 Q49.15 33.2 48.85 28.5 48.7 26.2 48.05 24.35 L47.6 23.1 47.15 22.2 46.4 21.05 Q44.9 19.05 42.6 17.75 L40.8 16.9 39.1 16.5 Q36.45 16.2 34.05 15.35 L33.95 15.35 Q33.8 13.35 33.3 11.4 L33.2 10.9 Q32.0 6.45 30.0 3.0 L28.15 0.3 25.3 -2.7 Q21.25 -6.3 15.45 -7.85 15.35 -12.55 19.25 -15.75 L20.2 -16.1 21.7 -16.85 21.75 -17.0 22.0 -17.0 21.65 -17.65 Q20.8 -19.25 20.1 -20.8 18.35 -24.4 14.45 -25.45 12.25 -26.05 10.25 -26.95 6.8 -28.5 3.15 -29.1 -1.0 -29.8 -5.35 -29.3 -5.85 -28.85 -6.7 -28.55 -8.35 -27.8 -10.0 -27.05 L-12.85 -25.15 Q-18.15 -21.05 -19.0 -14.95 -19.45 -11.9 -18.8 -8.4 L-18.7 -8.0 Q-21.4 -7.4 -23.15 -6.1 -25.8 -4.15 -26.25 -0.6 L-26.35 0.75 -26.3 1.8 -26.25 2.4 -26.15 3.15 -25.75 5.0 Q-28.5 9.8 -31.25 14.55 -32.4 16.45 -33.05 18.4 L-33.15 18.7 -34.0 19.0 -35.0 19.35 Q-37.1 19.5 -39.15 19.65 L-40.05 20.75 Q-41.6 22.5 -43.1 24.2 -44.3 25.5 -45.45 26.8 -47.2 28.6 -48.9 30.35 L-49.0 30.45 -49.95 35.65 Q-50.45 37.85 -50.9 40.0 L-51.1 40.8 -51.2 41.3 -51.95 44.15 -52.45 45.95 Q-52.95 48.05 -53.45 50.15 L-54.2 53.1 -54.95 56.3 Q-55.7 60.0 -56.45 63.65 L-57.35 69.75 Q-58.15 76.8 -57.85 83.9 L-57.7 86.5" fill="#6699ff" fill-rule="evenodd" stroke="none">
      <animate attributeName="fill" dur="2s" repeatCount="indefinite" values="#6699ff;#6699ff"/>
      <animate attributeName="fill-opacity" dur="2s" repeatCount="indefinite" values="1.0;1.0"/>
      <animate attributeName="d" dur="2s" repeatCount="indefinite" values="M-57.7 86.5 L-57.7 86.5 Q-57.6 88.05 -56.7 89.25 -55.5 90.95 -54.75 92.8 -53.9 94.85 -53.55 97.05 L-53.7 97.75 Q-54.0 99.8 -54.25 101.85 L-54.3 104.25 -54.15 106.8 -53.2 115.55 -53.1 116.75 Q-52.8 120.5 -50.45 122.35 -49.45 123.15 -48.05 123.6 -48.25 129.65 -45.4 134.4 -43.8 137.1 -41.15 139.35 -36.85 143.1 -32.55 146.85 -31.85 151.45 -32.0 156.1 -32.1 159.5 -32.65 162.9 L-33.5 169.2 Q-33.65 171.7 -33.8 174.2 -33.75 177.6 -33.7 180.95 L-33.65 182.45 Q-33.5 187.1 -34.2 191.55 -34.55 193.25 -34.85 194.9 L-35.05 195.7 Q-35.25 196.5 -35.45 197.3 L-35.55 197.6 Q-36.3 200.25 -37.35 202.85 L-37.35 202.95 Q-38.85 206.5 -39.85 210.2 L-39.95 210.6 -40.65 212.95 -41.95 216.6 -42.9 218.8 -43.7 220.6 Q-42.15 221.95 -40.6 223.25 -39.55 224.15 -38.5 225.0 -32.8 229.3 -27.1 233.55 L-25.0 235.0 -23.4 236.0 -22.8 236.4 -22.6 236.3 -21.2 235.75 Q-17.85 234.2 -14.6 232.05 L-14.5 231.95 -13.7 231.35 -11.65 229.6 -11.25 229.6 -8.95 229.8 -7.9 231.15 Q-7.45 231.6 -7.05 232.0 -5.35 233.4 -3.0 234.05 3.55 235.75 10.4 235.95 L10.6 235.95 11.3 236.05 Q12.1 236.25 12.8 236.75 L14.25 237.65 Q15.65 238.4 17.15 238.8 L18.9 239.15 19.15 239.15 19.55 239.2 Q21.1 239.0 22.65 238.8 24.8 238.1 26.95 237.45 29.7 236.4 32.45 235.35 33.2 236.4 34.3 236.65 L35.85 236.85 37.4 236.5 44.9 233.3 45.65 232.55 46.1 232.95 46.4 232.2 Q47.1 230.55 47.75 228.9 L47.95 228.3 49.15 225.4 Q51.15 220.45 53.15 215.5 L53.15 215.5 53.35 208.1 53.55 202.7 53.65 198.9 Q53.5 195.7 53.4 192.55 53.25 191.25 53.1 190.0 52.55 186.45 50.9 183.2 L49.8 181.2 47.9 178.2 44.6 173.5 44.5 173.2 Q44.3 172.0 44.1 170.8 L43.3 166.3 43.05 164.9 Q42.8 162.7 43.0 160.45 L43.15 158.8 43.9 154.5 Q45.0 147.95 46.45 141.5 47.15 138.6 47.85 135.75 L48.2 134.2 Q48.75 131.3 48.5 128.3 L50.6 128.6 51.5 128.9 Q56.5 130.3 61.55 128.85 L62.35 127.8 Q62.95 127.1 62.95 126.2 63.05 123.75 62.75 121.4 L62.3 118.55 62.1 117.65 61.6 115.55 61.2 114.05 61.45 112.45 Q61.45 109.9 60.95 107.5 60.7 106.35 61.2 105.4 L61.5 104.8 62.55 102.7 Q64.7 97.85 65.4 92.75 65.95 88.6 65.55 84.25 65.25 82.15 65.0 80.1 64.4 76.9 63.4 73.75 62.4 70.55 60.9 67.45 L60.75 67.2 60.7 66.6 60.95 63.4 60.95 62.8 Q61.0 60.45 60.65 58.1 L59.8 54.35 59.0 51.9 Q57.3 47.4 54.6 43.45 53.0 41.15 51.05 39.0 L50.45 38.05 50.3 37.65 Q49.15 33.2 48.85 28.5 48.7 26.2 48.05 24.35 L47.6 23.1 47.15 22.2 46.4 21.05 Q44.9 19.05 42.6 17.75 L40.8 16.9 39.1 16.5 Q36.45 16.2 34.05 15.35 L33.95 15.35 Q33.8 13.35 33.3 11.4 L33.2 10.9 Q32.0 6.45 30.0 3.0 L28.15 0.3 25.3 -2.7 Q21.25 -6.3 15.45 -7.85 15.35 -12.55 19.25 -15.75 L20.2 -16.1 21.7 -16.85 21.75 -17.0 22.0 -17.0 21.65 -17.65 Q20.8 -19.25 20.1 -20.8 18.35 -24.4 14.45 -25.45 12.25 -26.05 10.25 -26.95 6.8 -28.5 3.15 -29.1 -1.0 -29.8 -5.35 -29.3 -5.85 -28.85 -6.7 -28.55 -8.35 -27.8 -10.0 -27.05 L-12.85 -25.15 Q-18.15 -21.05 -19.0 -14.95 -19.45 -11.9 -18.8 -8.4 L-18.7 -8.0 Q-21.4 -7.4 -23.15 -6.1 -25.8 -4.15 -26.25 -0.6 L-26.35 0.75 -26.3 1.8 -26.25 2.4 -26.15 3.15 -25.75 5.0 Q-28.5 9.8 -31.25 14.55 -32.4 16.45 -33.05 18.4 L-33.15 18.7 -34.0 19.0 -35.0 19.35 Q-37.1 19.5 -39.15 19.65 L-40.05 20.75 Q-41.6 22.5 -43.1 24.2 -44.3 25.5 -45.45 26.8 -47.2 28.6 -48.9 30.35 L-49.0 30.45 -49.95 35.65 Q-50.45 37.85 -50.9 40.0 L-51.1 40.8 -51.2 41.3 -51.95 44.15 -52.45 45.95 Q-52.95 48.05 -53.45 50.15 L-54.2 53.1 -54.95 56.3 Q-55.7 60.0 -56.45 63.65 L-57.35 69.75 Q-58.15 76.8 -57.85 83.9 L-57.7 86.5;M-59.15 97.05 L-59.25 97.65 Q-59.6 99.2 -59.45 100.7 -59.25 102.7 -58.15 104.5 -58.25 106.9 -57.5 109.1 L-57.4 109.5 Q-56.45 112.1 -54.0 111.75 L-53.5 114.15 -52.9 116.65 -50.65 125.25 -50.25 126.4 Q-48.9 129.1 -45.25 130.45 -43.85 130.95 -42.65 131.65 -37.5 134.55 -36.55 140.55 -36.0 144.05 -35.85 147.5 -35.65 153.05 -36.6 158.5 -37.35 163.05 -38.9 167.5 -39.95 170.75 -40.95 174.0 L-42.55 180.0 Q-40.4 181.05 -39.7 183.95 -38.95 187.5 -39.8 190.9 L-40.25 192.4 Q-41.85 196.75 -43.8 200.95 -42.3 200.75 -40.45 200.9 L-40.9 201.75 Q-42.0 201.7 -42.65 202.15 L-42.9 202.25 Q-45.0 204.4 -43.9 207.4 L-43.9 207.5 Q-42.6 211.0 -40.05 213.9 L-39.6 214.4 -39.45 216.75 -38.45 220.85 -38.95 223.2 -39.05 225.15 Q-38.85 227.05 -37.2 228.5 -36.3 229.35 -35.0 229.85 -28.1 232.6 -21.75 235.95 L-19.25 235.35 -17.35 234.9 -16.7 234.95 -16.6 234.95 -15.2 235.0 Q-11.0 234.8 -7.9 237.0 L-7.75 237.1 -6.9 237.4 -4.3 237.8 -4.0 237.8 -2.2 239.25 -1.25 240.35 Q-0.75 240.9 -0.15 241.05 2.2 241.45 4.55 241.8 11.3 241.6 18.05 241.4 L18.05 241.4 18.7 240.85 Q19.1 240.1 19.45 239.35 L19.85 237.4 Q21.15 236.85 22.45 236.3 L24.25 236.3 24.55 236.3 24.75 236.6 Q25.7 238.2 26.95 239.0 28.8 240.2 31.3 239.6 32.9 236.95 35.45 235.4 36.4 234.85 37.5 234.4 L38.75 233.95 40.3 233.45 48.1 230.7 48.8 230.4 49.3 230.2 50.2 229.8 Q52.3 228.95 52.55 227.45 L53.1 227.5 56.3 228.05 Q57.1 222.9 54.6 217.45 L54.6 217.45 51.75 210.65 53.8 205.7 55.2 202.2 Q56.55 198.75 54.95 195.85 54.35 194.75 53.35 193.75 50.65 191.0 50.0 187.5 L49.6 185.3 49.1 181.55 48.5 175.8 48.5 175.5 Q48.35 174.25 47.75 173.3 L49.45 168.9 50.05 167.6 Q51.0 165.55 51.05 163.3 L51.15 161.6 51.4 156.85 Q51.85 150.3 51.35 143.7 51.05 140.65 51.55 137.6 L51.85 136.1 Q52.5 133.15 53.3 130.25 L53.9 128.25 54.2 127.3 Q55.6 122.4 57.0 117.55 L57.3 116.45 Q57.55 115.6 57.75 114.75 58.3 112.45 58.8 110.2 L60.65 108.3 61.2 107.7 62.2 105.9 62.7 104.6 63.4 103.05 Q64.5 100.85 65.6 98.7 66.2 97.7 66.8 96.7 L67.15 95.95 67.3 93.55 Q65.45 88.75 63.65 84.0 62.05 79.65 62.3 75.5 62.45 73.3 63.1 71.15 61.25 68.45 59.45 65.75 59.1 62.35 58.75 58.95 L58.75 58.65 59.25 58.45 62.3 57.8 62.7 57.25 Q64.9 55.4 63.7 52.8 L62.0 49.3 60.75 47.1 Q58.35 42.85 55.4 38.85 53.6 36.5 52.4 33.9 L51.9 32.8 51.7 32.4 Q49.95 28.3 47.7 24.45 46.5 22.5 45.35 20.6 L45.5 19.35 44.5 18.5 44.05 17.1 Q42.8 14.85 40.75 13.2 L39.25 12.0 37.85 10.8 Q35.8 9.1 33.75 7.4 L33.75 7.4 Q32.25 6.2 31.25 4.65 L30.95 4.2 Q28.7 0.55 26.45 -3.05 L26.3 -6.15 25.55 -10.25 Q24.45 -16.8 21.95 -21.0 19.35 -25.45 15.3 -27.25 L14.4 -27.6 12.75 -28.1 12.55 -28.1 12.25 -28.2 11.65 -28.3 Q10.1 -28.45 8.6 -28.55 5.35 -28.5 1.5 -27.4 -0.5 -26.7 -2.5 -26.05 -5.8 -24.5 -9.05 -22.95 -13.35 -20.65 -15.35 -17.2 -15.65 -16.6 -15.9 -16.05 -16.6 -14.45 -16.9 -12.6 L-17.1 -9.35 Q-16.9 -3.25 -15.4 2.85 -18.55 3.75 -21.7 4.65 L-22.1 4.75 Q-24.35 5.5 -26.45 6.4 -28.95 8.45 -31.45 10.5 L-32.6 11.6 -33.55 12.5 -33.75 12.9 -33.85 13.55 -35.1 15.25 Q-38.65 19.85 -43.65 22.75 -45.5 23.85 -47.55 24.7 L-47.65 24.8 -48.25 25.5 -48.7 26.45 Q-49.25 28.95 -47.55 30.5 L-46.65 31.15 Q-48.75 32.3 -49.45 34.6 -49.95 36.3 -49.95 38.05 -49.95 40.9 -48.0 42.55 L-48.1 42.75 -50.9 46.9 Q-52.05 48.85 -53.5 50.6 L-54.15 51.4 -54.25 52.0 -54.8 54.8 -55.1 56.9 Q-53.55 58.4 -52.35 60.1 L-52.95 63.0 -53.3 66.4 Q-53.75 70.15 -54.35 73.85 L-55.45 80.05 Q-56.75 87.25 -58.5 94.4 L-59.15 97.05"/>
    </path>
    <path d="M-57.7 86.5 L-57.85 83.9 Q-58.15 76.8 -57.35 69.75 L-56.45 63.65 Q-55.7 60.0 -54.95 56.3 L-54.2 53.1 -53.45 50.15 Q-52.95 48.05 -52.45 45.95 L-51.95 44.15 -51.2 41.3 -51.1 40.8 -50.9 40.0 Q-50.45 37.85 -49.95 35.65 L-49.0 30.45 -48.9 30.35 Q-47.2 28.6 -45.45 26.8 -44.3 25.5 -43.1 24.2 -41.6 22.5 -40.05 20.75 L-39.15 19.65 Q-37.1 19.5 -35.0 19.35 L-34.0 19.0 -33.15 18.7 -33.05 18.4 Q-32.4 16.45 -31.25 14.55 -28.5 9.8 -25.75 5.0 L-26.15 3.15 -26.25 2.4 -26.3 1.8 -26.35 0.75 -26.25 -0.6 Q-25.8 -4.15 -23.15 -6.1 -21.4 -7.4 -18.7 -8.0 L-18.8 -8.4 Q-19.45 -11.9 -19.0 -14.95 -18.15 -21.05 -12.85 -25.15 L-10.0 -27.05 Q-8.35 -27.8 -6.7 -28.55 -5.85 -28.85 -5.35 -29.3 -1.0 -29.8 3.15 -29.1 6.8 -28.5 10.25 -26.95 12.25 -26.05 14.45 -25.45 18.35 -24.4 20.1 -20.8 20.8 -19.25 21.65 -17.65 L22.0 -17.0 21.75 -17.0 21.7 -16.85 20.2 -16.1 19.25 -15.75 Q15.35 -12.55 15.45 -7.85 21.25 -6.3 25.3 -2.7 L28.15 0.3 30.0 3.0 Q32.0 6.45 33.2 10.9 L33.3 11.4 Q33.8 13.35 33.95 15.35 L34.05 15.35 Q36.45 16.2 39.1 16.5 L40.8 16.9 42.6 17.75 Q44.9 19.05 46.4 21.05 L47.15 22.2 47.6 23.1 48.05 24.35 Q48.7 26.2 48.85 28.5 49.15 33.2 50.3 37.65 L50.45 38.05 51.05 39.0 Q53.0 41.15 54.6 43.45 57.3 47.4 59.0 51.9 L59.8 54.35 60.65 58.1 Q61.0 60.45 60.95 62.8 L60.95 63.4 60.7 66.6 60.75 67.2 60.9 67.45 Q62.4 70.55 63.4 73.75 64.4 76.9 65.0 80.1 65.25 82.15 65.55 84.25 65.95 88.6 65.4 92.75 64.7 97.85 62.55 102.7 L61.5 104.8 61.2 105.4 Q60.7 106.35 60.95 107.5 61.45 109.9 61.45 112.45 L61.2 114.05 61.6 115.55 62.1 117.65 62.3 118.55 62.75 121.4 Q63.05 123.75 62.95 126.2 62.95 127.1 62.35 127.8 L61.55 128.85 Q56.5 130.3 51.5 128.9 L50.6 128.6 48.5 128.3 Q48.75 131.3 48.2 134.2 L47.85 135.75 Q47.15 138.6 46.45 141.5 45.0 147.95 43.9 154.5 L43.15 158.8 43.0 160.45 Q42.8 162.7 43.05 164.9 L43.3 166.3 44.1 170.8 Q44.3 172.0 44.5 173.2 L44.6 173.5 47.9 178.2 49.8 181.2 50.9 183.2 Q52.55 186.45 53.1 190.0 53.25 191.25 53.4 192.55 53.5 195.7 53.65 198.9 L53.55 202.7 53.35 208.1 53.15 215.5 53.15 215.5 Q51.15 220.45 49.15 225.4 L47.95 228.3 47.75 228.9 Q47.1 230.55 46.4 232.2 L46.1 232.95 45.65 232.55 44.9 233.3 37.4 236.5 35.85 236.85 34.3 236.65 Q33.2 236.4 32.45 235.35 29.7 236.4 26.95 237.45 24.8 238.1 22.65 238.8 21.1 239.0 19.55 239.2 L19.15 239.15 18.9 239.15 17.15 238.8 Q15.65 238.4 14.25 237.65 L12.8 236.75 Q12.1 236.25 11.3 236.05 L10.6 235.95 10.4 235.95 Q3.55 235.75 -3.0 234.05 -5.35 233.4 -7.05 232.0 -7.45 231.6 -7.9 231.15 L-8.95 229.8 -11.25 229.6 -11.65 229.6 -13.7 231.35 -14.5 231.95 -14.6 232.05 Q-17.85 234.2 -21.2 235.75 L-22.6 236.3 -22.8 236.4 -23.4 236.0 -25.0 235.0 -27.1 233.55 Q-32.8 229.3 -38.5 225.0 -39.55 224.15 -40.6 223.25 -42.15 221.95 -43.7 220.6 L-42.9 218.8 -41.95 216.6 -40.65 212.95 -39.95 210.6 -39.85 210.2 Q-38.85 206.5 -37.35 202.95 L-37.35 202.85 Q-36.3 200.25 -35.55 197.6 L-35.45 197.3 Q-35.25 196.5 -35.05 195.7 L-34.85 194.9 Q-34.55 193.25 -34.2 191.55 -33.5 187.1 -33.65 182.45 L-33.7 180.95 Q-33.75 177.6 -33.8 174.2 -33.65 171.7 -33.5 169.2 L-32.65 162.9 Q-32.1 159.5 -32.0 156.1 -31.85 151.45 -32.55 146.85 -36.85 143.1 -41.15 139.35 -43.8 137.1 -45.4 134.4 -48.25 129.65 -48.05 123.6 -49.45 123.15 -50.45 122.35 -52.8 120.5 -53.1 116.75 L-53.2 115.55 -54.15 106.8 -54.3 104.25 -54.25 101.85 Q-54.0 99.8 -53.7 97.75 L-53.55 97.05 Q-53.9 94.85 -54.75 92.8 -55.5 90.95 -56.7 89.25 -57.6 88.05 -57.7 86.5 L-57.7 86.5" fill="none" stroke="#000000" stroke-linecap="round" stroke-linejoin="round" stroke-opacity="0.0" stroke-width="1.0">
      <animate attributeName="stroke" dur="2s" repeatCount="indefinite" values="#000000;#000001"/>
      <animate attributeName="stroke-width" dur="2s" repeatCount="indefinite" values="0.0;0.0"/>
      <animate attributeName="fill-opacity" dur="2s" repeatCount="indefinite" values="0.0;0.0"/>
      <animate attributeName="d" dur="2s" repeatCount="indefinite" values="M-57.7 86.5 L-57.85 83.9 Q-58.15 76.8 -57.35 69.75 L-56.45 63.65 Q-55.7 60.0 -54.95 56.3 L-54.2 53.1 -53.45 50.15 Q-52.95 48.05 -52.45 45.95 L-51.95 44.15 -51.2 41.3 -51.1 40.8 -50.9 40.0 Q-50.45 37.85 -49.95 35.65 L-49.0 30.45 -48.9 30.35 Q-47.2 28.6 -45.45 26.8 -44.3 25.5 -43.1 24.2 -41.6 22.5 -40.05 20.75 L-39.15 19.65 Q-37.1 19.5 -35.0 19.35 L-34.0 19.0 -33.15 18.7 -33.05 18.4 Q-32.4 16.45 -31.25 14.55 -28.5 9.8 -25.75 5.0 L-26.15 3.15 -26.25 2.4 -26.3 1.8 -26.35 0.75 -26.25 -0.6 Q-25.8 -4.15 -23.15 -6.1 -21.4 -7.4 -18.7 -8.0 L-18.8 -8.4 Q-19.45 -11.9 -19.0 -14.95 -18.15 -21.05 -12.85 -25.15 L-10.0 -27.05 Q-8.35 -27.8 -6.7 -28.55 -5.85 -28.85 -5.35 -29.3 -1.0 -29.8 3.15 -29.1 6.8 -28.5 10.25 -26.95 12.25 -26.05 14.45 -25.45 18.35 -24.4 20.1 -20.8 20.8 -19.25 21.65 -17.65 L22.0 -17.0 21.75 -17.0 21.7 -16.85 20.2 -16.1 19.25 -15.75 Q15.35 -12.55 15.45 -7.85 21.25 -6.3 25.3 -2.7 L28.15 0.3 30.0 3.0 Q32.0 6.45 33.2 10.9 L33.3 11.4 Q33.8 13.35 33.95 15.35 L34.05 15.35 Q36.45 16.2 39.1 16.5 L40.8 16.9 42.6 17.75 Q44.9 19.05 46.4 21.05 L47.15 22.2 47.6 23.1 48.05 24.35 Q48.7 26.2 48.85 28.5 49.15 33.2 50.3 37.65 L50.45 38.05 51.05 39.0 Q53.0 41.15 54.6 43.45 57.3 47.4 59.0 51.9 L59.8 54.35 60.65 58.1 Q61.0 60.45 60.95 62.8 L60.95 63.4 60.7 66.6 60.75 67.2 60.9 67.45 Q62.4 70.55 63.4 73.75 64.4 76.9 65.0 80.1 65.25 82.15 65.55 84.25 65.95 88.6 65.4 92.75 64.7 97.85 62.55 102.7 L61.5 104.8 61.2 105.4 Q60.7 106.35 60.95 107.5 61.45 109.9 61.45 112.45 L61.2 114.05 61.6 115.55 62.1 117.65 62.3 118.55 62.75 121.4 Q63.05 123.75 62.95 126.2 62.95 127.1 62.35 127.8 L61.55 128.85 Q56.5 130.3 51.5 128.9 L50.6 128.6 48.5 128.3 Q48.75 131.3 48.2 134.2 L47.85 135.75 Q47.15 138.6 46.45 141.5 45.0 147.95 43.9 154.5 L43.15 158.8 43.0 160.45 Q42.8 162.7 43.05 164.9 L43.3 166.3 44.1 170.8 Q44.3 172.0 44.5 173.2 L44.6 173.5 47.9 178.2 49.8 181.2 50.9 183.2 Q52.55 186.45 53.1 190.0 53.25 191.25 53.4 192.55 53.5 195.7 53.65 198.9 L53.55 202.7 53.35 208.1 53.15 215.5 53.15 215.5 Q51.15 220.45 49.15 225.4 L47.95 228.3 47.75 228.9 Q47.1 230.55 46.4 232.2 L46.1 232.95 45.65 232.55 44.9 233.3 37.4 236.5 35.85 236.85 34.3 236.65 Q33.2 236.4 32.45 235.35 29.7 236.4 26.95 237.45 24.8 238.1 22.65 238.8 21.1 239.0 19.55 239.2 L19.15 239.15 18.9 239.15 17.15 238.8 Q15.65 238.4 14.25 237.65 L12.8 236.75 Q12.1 236.25 11.3 236.05 L10.6 235.95 10.4 235.95 Q3.55 235.75 -3.0 234.05 -5.35 233.4 -7.05 232.0 -7.45 231.6 -7.9 231.15 L-8.95 229.8 -11.25 229.6 -11.65 229.6 -13.7 231.35 -14.5 231.95 -14.6 232.05 Q-17.85 234.2 -21.2 235.75 L-22.6 236.3 -22.8 236.4 -23.4 236.0 -25.0 235.0 -27.1 233.55 Q-32.8 229.3 -38.5 225.0 -39.55 224.15 -40.6 223.25 -42.15 221.95 -43.7 220.6 L-42.9 218.8 -41.95 216.6 -40.65 212.95 -39.95 210.6 -39.85 210.2 Q-38.85 206.5 -37.35 202.95 L-37.35 202.85 Q-36.3 200.25 -35.55 197.6 L-35.45 197.3 Q-35.25 196.5 -35.05 195.7 L-34.85 194.9 Q-34.55 193.25 -34.2 191.55 -33.5 187.1 -33.65 182.45 L-33.7 180.95 Q-33.75 177.6 -33.8 174.2 -33.65 171.7 -33.5 169.2 L-32.65 162.9 Q-32.1 159.5 -32.0 156.1 -31.85 151.45 -32.55 146.85 -36.85 143.1 -41.15 139.35 -43.8 137.1 -45.4 134.4 -48.25 129.65 -48.05 123.6 -49.45 123.15 -50.45 122.35 -52.8 120.5 -53.1 116.75 L-53.2 115.55 -54.15 106.8 -54.3 104.25 -54.25 101.85 Q-54.0 99.8 -53.7 97.75 L-53.55 97.05 Q-53.9 94.85 -54.75 92.8 -55.5 90.95 -56.7 89.25 -57.6 88.05 -57.7 86.5 L-57.7 86.5;M-59.15 97.05 L-58.5 94.4 Q-56.75 87.25 -55.45 80.05 L-54.35 73.85 Q-53.75 70.15 -53.3 66.4 L-52.95 63.0 -52.35 60.1 Q-53.55 58.4 -55.1 56.9 L-54.8 54.8 -54.25 52.0 -54.15 51.4 -53.5 50.6 Q-52.05 48.85 -50.9 46.9 L-48.1 42.75 -48.0 42.55 Q-49.95 40.9 -49.95 38.05 -49.95 36.3 -49.45 34.6 -48.75 32.3 -46.65 31.15 L-47.55 30.5 Q-49.25 28.95 -48.7 26.45 L-48.25 25.5 -47.65 24.8 -47.55 24.7 Q-45.5 23.85 -43.65 22.75 -38.65 19.85 -35.1 15.25 L-33.85 13.55 -33.75 12.9 -33.55 12.5 -32.6 11.6 -31.45 10.5 Q-28.95 8.45 -26.45 6.4 -24.35 5.5 -22.1 4.75 L-21.7 4.65 Q-18.55 3.75 -15.4 2.85 -16.9 -3.25 -17.1 -9.35 L-16.9 -12.6 Q-16.6 -14.45 -15.9 -16.05 -15.65 -16.6 -15.35 -17.2 -13.35 -20.65 -9.05 -22.95 -5.8 -24.5 -2.5 -26.05 -0.5 -26.7 1.5 -27.4 5.35 -28.5 8.6 -28.55 10.1 -28.45 11.65 -28.3 L12.25 -28.2 12.55 -28.1 12.75 -28.1 14.4 -27.6 15.3 -27.25 Q19.35 -25.45 21.95 -21.0 24.45 -16.8 25.55 -10.25 L26.3 -6.15 26.45 -3.05 Q28.7 0.55 30.95 4.2 L31.25 4.65 Q32.25 6.2 33.75 7.4 L33.75 7.4 Q35.8 9.1 37.85 10.8 L39.25 12.0 40.75 13.2 Q42.8 14.85 44.05 17.1 L44.5 18.5 45.5 19.35 45.35 20.6 Q46.5 22.5 47.7 24.45 49.95 28.3 51.7 32.4 L51.9 32.8 52.4 33.9 Q53.6 36.5 55.4 38.85 58.35 42.85 60.75 47.1 L62.0 49.3 63.7 52.8 Q64.9 55.4 62.7 57.25 L62.3 57.8 59.25 58.45 58.75 58.65 58.75 58.95 Q59.1 62.35 59.45 65.75 61.25 68.45 63.1 71.15 62.45 73.3 62.3 75.5 62.05 79.65 63.65 84.0 65.45 88.75 67.3 93.55 L67.15 95.95 66.8 96.7 Q66.2 97.7 65.6 98.7 64.5 100.85 63.4 103.05 L62.7 104.6 62.2 105.9 61.2 107.7 60.65 108.3 58.8 110.2 Q58.3 112.45 57.75 114.75 57.55 115.6 57.3 116.45 L57.0 117.55 Q55.6 122.4 54.2 127.3 L53.9 128.25 53.3 130.25 Q52.5 133.15 51.85 136.1 L51.55 137.6 Q51.05 140.65 51.35 143.7 51.85 150.3 51.4 156.85 L51.15 161.6 51.05 163.3 Q51.0 165.55 50.05 167.6 L49.45 168.9 47.75 173.3 Q48.35 174.25 48.5 175.5 L48.5 175.8 49.1 181.55 49.6 185.3 50.0 187.5 Q50.65 191.0 53.35 193.75 54.35 194.75 54.95 195.85 56.55 198.75 55.2 202.2 L53.8 205.7 51.75 210.65 54.6 217.45 54.6 217.45 Q57.1 222.9 56.3 228.05 L53.1 227.5 52.55 227.45 Q52.3 228.95 50.2 229.8 L49.3 230.2 48.8 230.4 48.1 230.7 40.3 233.45 38.75 233.95 37.5 234.4 Q36.4 234.85 35.45 235.4 32.9 236.95 31.3 239.6 28.8 240.2 26.95 239.0 25.7 238.2 24.75 236.6 L24.55 236.3 24.25 236.3 22.45 236.3 Q21.15 236.85 19.85 237.4 L19.45 239.35 Q19.1 240.1 18.7 240.85 L18.05 241.4 18.05 241.4 Q11.3 241.6 4.55 241.8 2.2 241.45 -0.15 241.05 -0.75 240.9 -1.25 240.35 L-2.2 239.25 -4.0 237.8 -4.3 237.8 -6.9 237.4 -7.75 237.1 -7.9 237.0 Q-11.0 234.8 -15.2 235.0 L-16.6 234.95 -16.7 234.95 -17.35 234.9 -19.25 235.35 -21.75 235.95 Q-28.1 232.6 -35.0 229.85 -36.3 229.35 -37.2 228.5 -38.85 227.05 -39.05 225.15 L-38.95 223.2 -38.45 220.85 -39.45 216.75 -39.6 214.4 -40.05 213.9 Q-42.6 211.0 -43.9 207.5 L-43.9 207.4 Q-45.0 204.4 -42.9 202.25 L-42.65 202.15 Q-42.0 201.7 -40.9 201.75 L-40.45 200.9 Q-42.3 200.75 -43.8 200.95 -41.85 196.75 -40.25 192.4 L-39.8 190.9 Q-38.95 187.5 -39.7 183.95 -40.4 181.05 -42.55 180.0 L-40.95 174.0 Q-39.95 170.75 -38.9 167.5 -37.35 163.05 -36.6 158.5 -35.65 153.05 -35.85 147.5 -36.0 144.05 -36.55 140.55 -37.5 134.55 -42.65 131.65 -43.85 130.95 -45.25 130.45 -48.9 129.1 -50.25 126.4 L-50.65 125.25 -52.9 116.65 -53.5 114.15 -54.0 111.75 Q-56.45 112.1 -57.4 109.5 L-57.5 109.1 Q-58.25 106.9 -58.15 104.5 -59.25 102.7 -59.45 100.7 -59.6 99.2 -59.25 97.65 L-59.15 97.05"/>
    </path>
  </g>
</svg>
