<?xml version="1.0" encoding="UTF-8" standalone="no"?>
<svg xmlns:xlink="http://www.w3.org/1999/xlink" height="4.85px" width="162.15px" xmlns="http://www.w3.org/2000/svg">
  <g transform="matrix(1.0, 0.0, 0.0, 1.0, 81.05, 2.4)">
    <path d="M-81.05 -2.4 L-81.05 -2.2 -81.05 1.45 -80.25 1.0 Q-77.75 0.65 -75.25 0.95 -73.05 1.95 -70.75 2.2 L-65.95 1.9 -65.65 1.9 -64.9 1.7 -64.1 1.55 -55.5 1.05 -54.9 1.15 -53.1 1.35 -50.8 1.75 -48.7 1.7 Q-47.55 1.3 -46.6 1.9 L-46.4 2.0 -40.8 1.5 -37.5 1.05 -21.1 0.4 -19.2 0.75 Q-15.4 1.85 -11.4 0.9 -6.15 -0.4 -0.75 -0.05 L0.85 0.05 Q5.3 0.2 9.65 -0.75 L11.05 -1.05 12.95 -1.35 14.65 -1.6 Q20.4 -2.45 26.15 -1.5 27.8 -1.25 28.35 0.35 32.95 1.2 37.45 -0.55 40.8 -1.85 44.3 -2.4 L38.35 -2.4 -81.05 -2.4 M59.15 -2.4 L59.25 -2.4 Q59.7 -2.3 59.95 -2.0 60.15 -1.65 60.35 -1.35 L60.5 -0.8 61.6 -0.55 62.35 -0.45 65.25 -0.4 66.35 -0.5 70.55 -0.8 Q71.3 -0.85 72.05 -0.85 L72.45 -0.85 74.2 -0.85 Q75.95 -0.9 77.7 -0.95 L80.7 -1.0 81.1 -1.6 81.1 -2.4 59.15 -2.4 M47.65 -2.4 L47.85 -2.4 48.05 -2.3 Q48.2 -2.25 48.35 -2.25 48.7 -2.1 49.05 -2.0 L49.35 -1.9 49.7 -1.75 51.05 -1.7 52.85 -2.0 Q53.15 -2.05 53.45 -2.1 53.85 -2.15 54.25 -2.2 55.0 -2.25 55.7 -2.3 L57.0 -2.4 57.4 -2.4 47.65 -2.4" fill="#0099cc" fill-rule="evenodd" stroke="none">
      <animate attributeName="fill" dur="2s" repeatCount="indefinite" values="#0099cc;#00ccff"/>
      <animate attributeName="fill-opacity" dur="2s" repeatCount="indefinite" values="1.0;1.0"/>
      <animate attributeName="d" dur="2s" repeatCount="indefinite" values="M-81.05 -2.4 L-81.05 -2.2 -81.05 1.45 -80.25 1.0 Q-77.75 0.65 -75.25 0.95 -73.05 1.95 -70.75 2.2 L-65.95 1.9 -65.65 1.9 -64.9 1.7 -64.1 1.55 -55.5 1.05 -54.9 1.15 -53.1 1.35 -50.8 1.75 -48.7 1.7 Q-47.55 1.3 -46.6 1.9 L-46.4 2.0 -40.8 1.5 -37.5 1.05 -21.1 0.4 -19.2 0.75 Q-15.4 1.85 -11.4 0.9 -6.15 -0.4 -0.75 -0.05 L0.85 0.05 Q5.3 0.2 9.65 -0.75 L11.05 -1.05 12.95 -1.35 14.65 -1.6 Q20.4 -2.45 26.15 -1.5 27.8 -1.25 28.35 0.35 32.95 1.2 37.45 -0.55 40.8 -1.85 44.3 -2.4 L38.35 -2.4 -81.05 -2.4 M59.15 -2.4 L59.25 -2.4 Q59.7 -2.3 59.95 -2.0 60.15 -1.65 60.35 -1.35 L60.5 -0.8 61.6 -0.55 62.35 -0.45 65.25 -0.4 66.35 -0.5 70.55 -0.8 Q71.3 -0.85 72.05 -0.85 L72.45 -0.85 74.2 -0.85 Q75.95 -0.9 77.7 -0.95 L80.7 -1.0 81.1 -1.6 81.1 -2.4 59.15 -2.4 M47.65 -2.4 L47.85 -2.4 48.05 -2.3 Q48.2 -2.25 48.35 -2.25 48.7 -2.1 49.05 -2.0 L49.35 -1.9 49.7 -1.75 51.05 -1.7 52.85 -2.0 Q53.15 -2.05 53.45 -2.1 53.85 -2.15 54.25 -2.2 55.0 -2.25 55.7 -2.3 L57.0 -2.4 57.4 -2.4 47.65 -2.4;M-81.05 -2.4 L-81.05 -2.4 -81.05 -1.15 -81.05 -0.85 Q-81.05 0.0 -81.05 0.85 -81.05 1.65 -81.05 2.45 L-79.45 2.45 -79.35 2.45 -79.2 2.3 -79.05 2.15 -76.05 2.3 -75.85 2.3 -75.25 2.45 -74.45 2.45 -73.75 2.45 Q-73.4 2.45 -73.05 2.45 L-72.95 2.45 -71.05 2.45 -69.95 2.45 -64.25 2.45 -63.65 2.45 Q-62.3 2.45 -60.95 2.45 -59.1 2.45 -57.25 2.45 L-56.75 2.45 Q-55.25 2.05 -53.75 1.65 L-53.25 1.5 -52.85 1.4 -52.25 1.2 Q-50.3 0.55 -48.35 -0.1 -47.8 -0.25 -47.25 -0.4 -45.75 -0.85 -44.25 -1.3 -43.1 -1.6 -42.0 -1.9 L-40.0 -2.4 -81.05 -2.4 M-36.35 -2.4 L-36.35 -2.4 Q-35.6 -1.3 -34.85 -0.25 -33.95 0.95 -32.6 1.4 L-30.05 2.0 -25.85 2.15 -22.4 1.85 -10.5 0.9 -6.2 0.65 11.5 -0.25 Q14.9 -0.4 18.15 -1.35 L19.65 -1.7 26.6 -1.5 Q33.8 0.45 41.25 -0.85 L53.7 -2.15 58.1 -2.4 54.85 -2.4 -36.35 -2.4 M-36.35 -2.4 L-36.35 -2.4 -34.95 -0.35 Q-34.0 0.95 -32.6 1.4 -29.35 2.45 -25.85 2.15 L-22.4 1.85 -18.3 1.45 -6.2 0.65 11.5 -0.25 Q14.9 -0.4 18.15 -1.35 22.45 -2.6 26.6 -1.5 33.8 0.45 41.25 -0.85 L53.7 -2.15 58.1 -2.4 -36.35 -2.4"/>
    </path>
    <path d="M-81.05 1.45 L-81.05 1.45 -81.05 2.45 -79.35 2.45 -79.05 2.15 -75.85 2.3 -75.25 2.45 77.2 2.45 81.1 2.45 81.1 -1.0 72.45 -0.85 65.25 -0.4 64.35 -0.35 60.5 -0.8 59.95 -2.0 59.15 -2.4 57.4 -2.4 50.75 -1.65 49.7 -1.75 47.65 -2.4 44.3 -2.4 Q40.8 -1.85 37.45 -0.55 32.95 1.2 28.35 0.35 27.8 -1.25 26.15 -1.5 20.4 -2.45 14.65 -1.6 L12.95 -1.35 9.65 -0.75 Q4.5 0.35 -0.75 -0.05 -6.15 -0.4 -11.4 0.9 -15.4 1.85 -19.2 0.75 L-21.1 0.4 -37.5 1.05 -40.8 1.5 -46.6 1.9 Q-47.55 1.3 -48.7 1.7 L-50.8 1.75 -58.0 0.95 -65.95 1.9 -69.6 2.25 Q-72.5 2.2 -75.25 0.95 -77.75 0.65 -80.25 1.0 L-81.05 1.45" fill="#00ccff" fill-rule="evenodd" stroke="none">
      <animate attributeName="fill" dur="2s" repeatCount="indefinite" values="#00ccff;#00ff9a"/>
      <animate attributeName="fill-opacity" dur="2s" repeatCount="indefinite" values="1.0;1.0"/>
      <animate attributeName="d" dur="2s" repeatCount="indefinite" values="M-81.05 1.45 L-81.05 1.45 -81.05 2.45 -79.35 2.45 -79.05 2.15 -75.85 2.3 -75.25 2.45 77.2 2.45 81.1 2.45 81.1 -1.0 72.45 -0.85 65.25 -0.4 64.35 -0.35 60.5 -0.8 59.95 -2.0 59.15 -2.4 57.4 -2.4 50.75 -1.65 49.7 -1.75 47.65 -2.4 44.3 -2.4 Q40.8 -1.85 37.45 -0.55 32.95 1.2 28.35 0.35 27.8 -1.25 26.15 -1.5 20.4 -2.45 14.65 -1.6 L12.95 -1.35 9.65 -0.75 Q4.5 0.35 -0.75 -0.05 -6.15 -0.4 -11.4 0.9 -15.4 1.85 -19.2 0.75 L-21.1 0.4 -37.5 1.05 -40.8 1.5 -46.6 1.9 Q-47.55 1.3 -48.7 1.7 L-50.8 1.75 -58.0 0.95 -65.95 1.9 -69.6 2.25 Q-72.5 2.2 -75.25 0.95 -77.75 0.65 -80.25 1.0 L-81.05 1.45;M-79.35 2.45 L-79.25 2.45 -79.25 2.45 -79.25 2.45 -79.25 2.45 -79.15 2.45 -79.15 2.45 -75.25 2.45 -75.35 2.45 -75.45 2.45 -75.65 2.35 -75.85 2.3 -75.85 2.3 -75.85 2.3 -75.85 2.3 -75.85 2.3 -75.85 2.3 -75.85 2.3 -75.85 2.3 -75.85 2.3 -75.95 2.3 Q-76.05 2.25 -76.15 2.2 -76.3 2.2 -76.45 2.2 -76.5 2.2 -76.55 2.2 -76.7 2.15 -76.85 2.15 L-76.95 2.15 -77.05 2.15 Q-77.2 2.15 -77.35 2.15 -77.5 2.15 -77.65 2.15 -77.75 2.15 -77.85 2.15 L-77.95 2.15 -78.35 2.15 -78.45 2.15 -78.65 2.15 Q-78.7 2.15 -78.75 2.15 L-78.85 2.15 -79.05 2.15 -79.15 2.25 -79.2 2.3 Q-79.25 2.35 -79.25 2.4 -79.3 2.45 -79.35 2.45 L-79.35 2.45"/>
    </path>
    <path d="M-79.35 2.45 L-79.35 2.45 -75.25 2.45 -75.35 2.45 -75.85 2.3 -75.85 2.3 -76.05 2.3 -76.45 2.2 Q-76.7 2.15 -76.95 2.15 -77.1 2.15 -77.25 2.15 -77.35 2.15 -77.45 2.15 L-78.05 2.15 -78.55 2.15 -78.65 2.15 Q-78.75 2.15 -78.85 2.15 -78.95 2.15 -79.05 2.15 L-79.1 2.2 -79.2 2.3 -79.3 2.45 -79.35 2.45" fill="#00ff99" fill-rule="evenodd" stroke="none">
      <animate attributeName="fill" dur="2s" repeatCount="indefinite" values="#00ff99;#0099cd"/>
      <animate attributeName="fill-opacity" dur="2s" repeatCount="indefinite" values="1.0;1.0"/>
      <animate attributeName="d" dur="2s" repeatCount="indefinite" values="M-79.35 2.45 L-79.35 2.45 -75.25 2.45 -75.35 2.45 -75.85 2.3 -75.85 2.3 -76.05 2.3 -76.45 2.2 Q-76.7 2.15 -76.95 2.15 -77.1 2.15 -77.25 2.15 -77.35 2.15 -77.45 2.15 L-78.05 2.15 -78.55 2.15 -78.65 2.15 Q-78.75 2.15 -78.85 2.15 -78.95 2.15 -79.05 2.15 L-79.1 2.2 -79.2 2.3 -79.3 2.45 -79.35 2.45;M-56.75 2.45 L-55.85 2.45 81.1 2.45 81.1 -2.4 66.4 -2.4 58.1 -2.4 53.7 -2.15 41.25 -0.85 Q33.8 0.45 26.6 -1.5 22.45 -2.6 18.15 -1.35 14.9 -0.4 11.5 -0.25 L-6.2 0.65 -22.4 1.85 -25.85 2.15 Q-29.35 2.45 -32.6 1.4 -34.0 0.95 -36.65 -2.4 L-40.0 -2.4 -46.9 -0.5 -53.25 1.5 -56.75 2.45"/>
    </path>
    <path d="M-81.05 -2.4 L38.35 -2.4 44.3 -2.4 Q40.8 -1.85 37.45 -0.55 32.95 1.2 28.35 0.35 27.8 -1.25 26.15 -1.5 20.4 -2.45 14.65 -1.6 L12.95 -1.35 11.05 -1.05 9.65 -0.75 Q5.3 0.2 0.85 0.05 L-0.75 -0.05 Q-6.15 -0.4 -11.4 0.9 -15.4 1.85 -19.2 0.75 L-21.1 0.4 -37.5 1.05 -40.8 1.5 -46.4 2.0 -46.6 1.9 Q-47.55 1.3 -48.7 1.7 L-50.8 1.75 -53.1 1.35 -54.9 1.15 -55.5 1.05 -64.1 1.55 -64.9 1.7 -65.65 1.9 -65.95 1.9 -70.75 2.2 Q-73.05 1.95 -75.25 0.95 -77.75 0.65 -80.25 1.0 L-81.05 1.45 -81.05 -2.2 -81.05 -2.4 M-81.05 1.45 L-80.25 1.0 Q-77.75 0.65 -75.25 0.95 -72.5 2.2 -69.6 2.25 L-65.95 1.9 -58.0 0.95 -50.8 1.75 -48.7 1.7 Q-47.55 1.3 -46.6 1.9 L-40.8 1.5 -37.5 1.05 -21.1 0.4 -19.2 0.75 Q-15.4 1.85 -11.4 0.9 -6.15 -0.4 -0.75 -0.05 4.5 0.35 9.65 -0.75 L12.95 -1.35 14.65 -1.6 Q20.4 -2.45 26.15 -1.5 27.8 -1.25 28.35 0.35 32.95 1.2 37.45 -0.55 40.8 -1.85 44.3 -2.4 L47.65 -2.4 49.7 -1.75 50.75 -1.65 57.4 -2.4 59.15 -2.4 59.95 -2.0 60.5 -0.8 64.35 -0.35 65.25 -0.4 72.45 -0.85 81.1 -1.0 81.1 2.45 77.2 2.45 -75.25 2.45 -75.85 2.3 -79.05 2.15 -79.35 2.45 -81.05 2.45 -81.05 1.45 -81.05 1.45 M-79.35 2.45 L-79.3 2.45 -79.2 2.3 -79.1 2.2 -79.05 2.15 Q-78.95 2.15 -78.85 2.15 -78.75 2.15 -78.65 2.15 L-78.55 2.15 -78.05 2.15 -77.45 2.15 Q-77.35 2.15 -77.25 2.15 -77.1 2.15 -76.95 2.15 -76.7 2.15 -76.45 2.2 L-76.05 2.3 -75.85 2.3 -75.85 2.3 -75.35 2.45 -75.25 2.45 -79.35 2.45 -79.35 2.45 M47.65 -2.4 L57.4 -2.4 57.0 -2.4 55.7 -2.3 Q55.0 -2.25 54.25 -2.2 53.85 -2.15 53.45 -2.1 53.15 -2.05 52.85 -2.0 L51.05 -1.7 49.7 -1.75 49.35 -1.9 49.05 -2.0 Q48.7 -2.1 48.35 -2.25 48.2 -2.25 48.05 -2.3 L47.85 -2.4 47.65 -2.4 M59.15 -2.4 L81.1 -2.4 81.1 -1.6 80.7 -1.0 77.7 -0.95 Q75.95 -0.9 74.2 -0.85 L72.45 -0.85 72.05 -0.85 Q71.3 -0.85 70.55 -0.8 L66.35 -0.5 65.25 -0.4 62.35 -0.45 61.6 -0.55 60.5 -0.8 60.35 -1.35 Q60.15 -1.65 59.95 -2.0 59.7 -2.3 59.25 -2.4 L59.15 -2.4" fill="none" stroke="#000000" stroke-linecap="round" stroke-linejoin="round" stroke-opacity="0.0" stroke-width="1.0">
      <animate attributeName="stroke" dur="2s" repeatCount="indefinite" values="#000000;#000001"/>
      <animate attributeName="stroke-width" dur="2s" repeatCount="indefinite" values="0.0;0.0"/>
      <animate attributeName="fill-opacity" dur="2s" repeatCount="indefinite" values="0.0;0.0"/>
      <animate attributeName="d" dur="2s" repeatCount="indefinite" values="M-81.05 -2.4 L38.35 -2.4 44.3 -2.4 Q40.8 -1.85 37.45 -0.55 32.95 1.2 28.35 0.35 27.8 -1.25 26.15 -1.5 20.4 -2.45 14.65 -1.6 L12.95 -1.35 11.05 -1.05 9.65 -0.75 Q5.3 0.2 0.85 0.05 L-0.75 -0.05 Q-6.15 -0.4 -11.4 0.9 -15.4 1.85 -19.2 0.75 L-21.1 0.4 -37.5 1.05 -40.8 1.5 -46.4 2.0 -46.6 1.9 Q-47.55 1.3 -48.7 1.7 L-50.8 1.75 -53.1 1.35 -54.9 1.15 -55.5 1.05 -64.1 1.55 -64.9 1.7 -65.65 1.9 -65.95 1.9 -70.75 2.2 Q-73.05 1.95 -75.25 0.95 -77.75 0.65 -80.25 1.0 L-81.05 1.45 -81.05 -2.2 -81.05 -2.4 M-81.05 1.45 L-80.25 1.0 Q-77.75 0.65 -75.25 0.95 -72.5 2.2 -69.6 2.25 L-65.95 1.9 -58.0 0.95 -50.8 1.75 -48.7 1.7 Q-47.55 1.3 -46.6 1.9 L-40.8 1.5 -37.5 1.05 -21.1 0.4 -19.2 0.75 Q-15.4 1.85 -11.4 0.9 -6.15 -0.4 -0.75 -0.05 4.5 0.35 9.65 -0.75 L12.95 -1.35 14.65 -1.6 Q20.4 -2.45 26.15 -1.5 27.8 -1.25 28.35 0.35 32.95 1.2 37.45 -0.55 40.8 -1.85 44.3 -2.4 L47.65 -2.4 49.7 -1.75 50.75 -1.65 57.4 -2.4 59.15 -2.4 59.95 -2.0 60.5 -0.8 64.35 -0.35 65.25 -0.4 72.45 -0.85 81.1 -1.0 81.1 2.45 77.2 2.45 -75.25 2.45 -75.85 2.3 -79.05 2.15 -79.35 2.45 -81.05 2.45 -81.05 1.45 -81.05 1.45 M-79.35 2.45 L-79.3 2.45 -79.2 2.3 -79.1 2.2 -79.05 2.15 Q-78.95 2.15 -78.85 2.15 -78.75 2.15 -78.65 2.15 L-78.55 2.15 -78.05 2.15 -77.45 2.15 Q-77.35 2.15 -77.25 2.15 -77.1 2.15 -76.95 2.15 -76.7 2.15 -76.45 2.2 L-76.05 2.3 -75.85 2.3 -75.85 2.3 -75.35 2.45 -75.25 2.45 -79.35 2.45 -79.35 2.45 M47.65 -2.4 L57.4 -2.4 57.0 -2.4 55.7 -2.3 Q55.0 -2.25 54.25 -2.2 53.85 -2.15 53.45 -2.1 53.15 -2.05 52.85 -2.0 L51.05 -1.7 49.7 -1.75 49.35 -1.9 49.05 -2.0 Q48.7 -2.1 48.35 -2.25 48.2 -2.25 48.05 -2.3 L47.85 -2.4 47.65 -2.4 M59.15 -2.4 L81.1 -2.4 81.1 -1.6 80.7 -1.0 77.7 -0.95 Q75.95 -0.9 74.2 -0.85 L72.45 -0.85 72.05 -0.85 Q71.3 -0.85 70.55 -0.8 L66.35 -0.5 65.25 -0.4 62.35 -0.45 61.6 -0.55 60.5 -0.8 60.35 -1.35 Q60.15 -1.65 59.95 -2.0 59.7 -2.3 59.25 -2.4 L59.15 -2.4;M-81.05 -2.4 L-40.0 -2.4 -42.0 -1.9 Q-43.1 -1.6 -44.25 -1.3 -45.75 -0.85 -47.25 -0.4 -47.8 -0.25 -48.35 -0.1 -50.3 0.55 -52.25 1.2 L-52.85 1.4 -53.25 1.5 -53.75 1.65 Q-55.25 2.05 -56.75 2.45 L-57.25 2.45 Q-59.1 2.45 -60.95 2.45 -62.3 2.45 -63.65 2.45 L-64.25 2.45 -69.95 2.45 -71.05 2.45 -72.95 2.45 -73.05 2.45 Q-73.4 2.45 -73.75 2.45 L-74.45 2.45 -75.25 2.45 -75.85 2.3 -76.05 2.3 -79.05 2.15 -79.2 2.3 -79.35 2.45 -79.45 2.45 -81.05 2.45 Q-81.05 1.65 -81.05 0.85 -81.05 0.0 -81.05 -0.85 L-81.05 -1.15 -81.05 -2.4 -81.05 -2.4 M-79.35 2.45 L-79.35 2.45 Q-79.3 2.45 -79.25 2.4 -79.25 2.35 -79.2 2.3 L-79.15 2.25 -79.05 2.15 -78.85 2.15 -78.75 2.15 Q-78.7 2.15 -78.65 2.15 L-78.45 2.15 -78.35 2.15 -77.95 2.15 -77.85 2.15 Q-77.75 2.15 -77.65 2.15 -77.5 2.15 -77.35 2.15 -77.2 2.15 -77.05 2.15 L-76.95 2.15 -76.85 2.15 Q-76.7 2.15 -76.55 2.2 -76.5 2.2 -76.45 2.2 -76.3 2.2 -76.15 2.2 -76.05 2.25 -75.95 2.3 L-75.85 2.3 -75.85 2.3 -75.85 2.3 -75.85 2.3 -75.85 2.3 -75.85 2.3 -75.85 2.3 -75.85 2.3 -75.85 2.3 -75.65 2.35 -75.45 2.45 -75.35 2.45 -75.25 2.45 -79.15 2.45 -79.15 2.45 -79.25 2.45 -79.25 2.45 -79.25 2.45 -79.25 2.45 -79.35 2.45 M-56.75 2.45 L-53.25 1.5 -46.9 -0.5 -40.0 -2.4 -36.65 -2.4 Q-34.0 0.95 -32.6 1.4 -29.35 2.45 -25.85 2.15 L-22.4 1.85 -6.2 0.65 11.5 -0.25 Q14.9 -0.4 18.15 -1.35 22.45 -2.6 26.6 -1.5 33.8 0.45 41.25 -0.85 L53.7 -2.15 58.1 -2.4 66.4 -2.4 81.1 -2.4 81.1 2.45 -55.85 2.45 -56.75 2.45 M-36.35 -2.4 L58.1 -2.4 53.7 -2.15 41.25 -0.85 Q33.8 0.45 26.6 -1.5 22.45 -2.6 18.15 -1.35 14.9 -0.4 11.5 -0.25 L-6.2 0.65 -18.3 1.45 -22.4 1.85 -25.85 2.15 Q-29.35 2.45 -32.6 1.4 -34.0 0.95 -34.95 -0.35 L-36.35 -2.4 -36.35 -2.4 M-36.35 -2.4 L54.85 -2.4 58.1 -2.4 53.7 -2.15 41.25 -0.85 Q33.8 0.45 26.6 -1.5 L19.65 -1.7 18.15 -1.35 Q14.9 -0.4 11.5 -0.25 L-6.2 0.65 -10.5 0.9 -22.4 1.85 -25.85 2.15 -30.05 2.0 -32.6 1.4 Q-33.95 0.95 -34.85 -0.25 -35.6 -1.3 -36.35 -2.4 L-36.35 -2.4"/>
    </path>
  </g>
</svg>
