<?xml version="1.0" encoding="UTF-8" standalone="no"?>
<svg xmlns:xlink="http://www.w3.org/1999/xlink" height="265.65px" width="90.8px" xmlns="http://www.w3.org/2000/svg">
  <g transform="matrix(1.0, 0.0, 0.0, 1.0, 45.5, 35.8)">
    <path d="M-44.15 101.65 Q-44.35 103.85 -43.35 104.8 -42.35 105.75 -40.15 105.45 L-39.75 105.25 Q-39.6 105.1 -39.45 104.95 -39.45 104.9 -39.45 104.85 -39.15 104.15 -38.85 103.45 -38.05 101.35 -37.25 99.3 -36.3 96.45 -35.65 93.5 L-31.95 76.25 Q-31.6 76.55 -31.25 76.85 -30.45 77.45 -29.7 78.05 L-29.6 78.1 Q-29.55 78.15 -29.5 78.2 L-30.6 85.7 Q-31.2 91.6 -20.65 121.65 -20.3 124.55 -20.65 121.65 -20.3 124.55 -20.65 121.65 -20.3 124.55 -20.65 121.65 -20.3 124.55 -21.1 127.6 -22.05 131.4 -22.5 135.2 L-25.15 160.1 Q-25.35 162.35 -25.9 164.55 -26.3 166.0 -21.05 210.2 L-20.35 211.5 -21.05 210.2 Q-20.7 211.0 -21.05 210.2 -20.7 211.0 -21.05 210.2 -20.7 211.0 -21.05 210.2 -20.7 211.0 -21.05 210.2 -20.7 211.0 -21.05 210.2 -20.7 211.0 -21.05 210.2 -20.7 211.0 -21.05 210.2 -20.7 211.0 -21.05 210.2 -20.7 211.0 -17.2 214.1 -15.45 214.4 -17.2 214.1 -15.45 214.4 -17.2 214.1 -15.45 214.4 -13.3 212.75 -13.25 212.75 -13.2 212.75 L-13.15 212.65 Q-13.1 212.55 -13.05 212.5 L-12.95 212.3 Q-12.3 207.0 -11.7 201.7 -11.55 196.65 -11.7 201.7 -11.55 196.65 -12.35 190.75 -12.45 190.4 -12.35 190.75 -12.45 190.4 -12.35 190.75 -12.5 190.4 -12.6 190.1 -13.6 188.3 -13.85 186.45 -13.9 186.0 -13.9 185.55 L-13.8 184.05 Q-13.75 183.85 -13.7 183.65 -13.55 183.15 -13.45 182.7 -13.15 181.75 -12.85 180.85 -12.25 178.95 -11.65 177.05 -10.7 174.3 -9.75 171.6 -8.9 169.45 -8.1 167.3 -7.9 166.85 -7.7 166.4 -6.4 163.2 -7.0 160.65 -7.3 159.2 -8.3 157.95 -9.2 157.1 -10.05 156.25 -9.9 152.45 -9.8 148.65 L-9.8 148.05 Q-9.5 143.55 -8.15 139.35 -6.75 135.2 -4.25 131.35 -0.7 131.1 2.8 130.85 6.35 130.2 9.85 129.6 L10.3 131.5 Q12.5 140.6 15.6 149.5 17.15 153.95 19.15 158.1 21.2 162.3 23.7 166.2 22.45 169.55 18.8 204.55 19.15 208.4 20.15 212.05 L18.8 204.55 Q19.2 208.75 18.8 204.55 19.2 208.75 18.8 204.55 19.2 208.75 20.35 212.75 21.0 213.8 22.7 218.65 22.85 219.3 22.7 218.65 22.85 219.3 22.7 218.65 22.85 219.3 22.95 219.95 23.15 220.2 23.3 220.45 23.55 220.7 23.8 220.95 L23.9 221.05 Q24.05 221.15 24.15 221.25 L26.0 221.25 26.45 219.95 Q26.8 218.6 25.75 211.7 L25.75 211.6 Q25.65 211.15 25.75 211.7 25.65 211.2 25.75 211.7 25.65 211.2 25.75 211.7 25.65 211.2 25.75 211.7 L25.65 210.75 Q25.55 208.2 25.5 205.65 25.6 202.95 25.7 200.25 25.95 197.15 26.45 194.1 L28.05 183.55 28.65 180.45 29.7 177.45 31.0 173.3 Q32.45 167.3 33.2 160.95 33.55 158.1 33.4 155.35 33.25 152.6 32.6 149.9 31.95 147.2 31.25 135.15 31.1 133.25 31.25 135.15 31.1 133.25 31.25 135.15 L30.75 131.45 Q30.7 131.25 30.65 131.1 L30.6 130.8 Q30.5 130.6 30.4 130.45 L29.8 129.75 Q29.25 129.25 28.75 128.75 26.65 126.55 22.75 113.9 22.65 112.35 22.75 113.9 L22.3 103.15 Q21.85 99.65 20.85 96.3 L22.3 103.15 21.95 100.7 Q21.6 99.2 21.3 97.75 21.8 100.45 22.3 103.15 21.8 99.4 20.75 95.8 19.05 89.95 18.15 83.95 L17.4 78.0 Q17.1 75.4 17.35 72.8 17.65 70.2 18.5 67.55 19.15 65.45 19.8 63.4 20.85 60.2 20.15 57.75 19.45 55.35 16.95 53.65 17.4 52.55 17.8 51.45 18.05 50.3 17.9 49.05 L17.8 47.4 21.1 50.6 Q22.85 52.4 24.25 54.45 25.7 56.5 26.8 58.8 26.5 60.85 26.65 62.85 26.85 64.9 27.5 66.9 31.05 78.4 33.05 90.2 33.75 94.35 34.45 109.6 34.75 110.9 34.45 109.6 34.75 110.9 34.45 109.6 34.75 110.9 35.35 112.1 35.75 112.55 36.1 113.0 L37.15 113.3 Q39.45 113.3 40.6 112.0 41.75 110.75 41.75 108.15 42.15 107.75 42.5 107.4 L43.05 106.5 Q43.35 105.3 43.65 104.1 L44.0 101.65 44.5 94.75 Q44.85 90.1 44.5 85.6 44.15 81.1 43.15 76.7 41.2 68.45 40.45 60.0 L41.9 58.15 Q42.7 56.7 42.7 55.15 42.75 52.6 40.5 49.75 39.0 47.9 37.65 37.0 37.35 34.8 37.65 37.0 37.35 34.8 36.2 32.2 36.0 32.05 36.2 32.2 L31.0 30.7 Q28.75 29.85 31.0 30.7 28.75 29.85 31.0 30.7 28.75 29.85 26.65 28.5 25.85 27.9 25.1 27.35 L24.8 27.05 Q24.3 26.55 23.8 26.05 22.25 24.3 15.05 13.2 12.75 11.5 15.05 13.2 12.75 11.5 15.05 13.2 13.7 12.2 12.05 11.75 10.75 11.55 9.5 11.4 L10.7 8.25 11.25 6.9 Q11.8 5.65 12.35 4.4 13.05 3.25 13.95 2.2 14.1 1.4 14.25 0.6 14.25 0.4 14.25 0.2 14.2 -0.35 14.2 -0.9 14.15 -1.05 14.15 -1.2 14.05 -1.9 13.95 -2.6 L13.9 -4.2 Q13.7 -6.15 13.55 -8.05 L13.25 -9.85 12.75 -11.7 7.8 -19.8 Q7.3 -19.8 6.85 -19.8 L6.25 -19.9 Q5.9 -20.05 5.6 -20.15 4.65 -20.6 3.95 -21.6 L1.2 -21.5 Q-3.65 -17.25 -8.45 -13.0 L-10.25 -11.4 Q-10.1 -9.35 -10.0 -7.3 L-9.65 -2.65 Q-9.6 -1.6 -13.55 8.05 -15.55 11.1 -13.55 8.05 -15.55 11.1 -13.55 8.05 -15.55 11.1 -18.2 13.7 L-18.1 14.75 Q-17.7 18.45 -17.7 22.2 -18.35 21.2 -19.15 20.55 -20.1 19.8 -27.6 21.45 -28.15 22.0 -27.6 21.45 -28.15 22.0 -27.6 21.45 L-28.5 22.75 Q-29.35 24.55 -29.3 26.35 -29.25 28.15 -28.3 29.95 -27.9 30.7 -29.85 36.45 -31.0 38.1 -29.85 36.45 -31.0 38.1 -36.65 43.9 -37.45 45.3 -38.2 46.65 -38.65 47.75 -39.1 48.85 -37.85 46.35 -36.65 43.9 L-36.65 43.9 Q-37.1 44.65 -37.5 45.35 -38.55 47.2 -36.65 43.9 -38.3 46.35 -39.2 49.25 -40.05 51.85 -40.25 54.5 -40.4 57.2 -39.9 59.95 -39.75 61.0 -39.75 62.05 -39.8 63.15 -39.8 64.2 -41.55 76.65 -42.9 89.15 L-44.15 101.65" fill="#99ccff" fill-rule="evenodd" stroke="none">
      <animate attributeName="fill" dur="2s" repeatCount="indefinite" values="#99ccff;#99ccff"/>
      <animate attributeName="fill-opacity" dur="2s" repeatCount="indefinite" values="1.0;1.0"/>
      <animate attributeName="d" dur="2s" repeatCount="indefinite" values="M-44.15 101.65 Q-44.35 103.85 -43.35 104.8 -42.35 105.75 -40.15 105.45 L-39.75 105.25 Q-39.6 105.1 -39.45 104.95 -39.45 104.9 -39.45 104.85 -39.15 104.15 -38.85 103.45 -38.05 101.35 -37.25 99.3 -36.3 96.45 -35.65 93.5 L-31.95 76.25 Q-31.6 76.55 -31.25 76.85 -30.45 77.45 -29.7 78.05 L-29.6 78.1 Q-29.55 78.15 -29.5 78.2 L-30.6 85.7 Q-31.2 91.6 -20.65 121.65 -20.3 124.55 -20.65 121.65 -20.3 124.55 -20.65 121.65 -20.3 124.55 -20.65 121.65 -20.3 124.55 -21.1 127.6 -22.05 131.4 -22.5 135.2 L-25.15 160.1 Q-25.35 162.35 -25.9 164.55 -26.3 166.0 -21.05 210.2 L-20.35 211.5 -21.05 210.2 Q-20.7 211.0 -21.05 210.2 -20.7 211.0 -21.05 210.2 -20.7 211.0 -21.05 210.2 -20.7 211.0 -21.05 210.2 -20.7 211.0 -21.05 210.2 -20.7 211.0 -21.05 210.2 -20.7 211.0 -21.05 210.2 -20.7 211.0 -21.05 210.2 -20.7 211.0 -17.2 214.1 -15.45 214.4 -17.2 214.1 -15.45 214.4 -17.2 214.1 -15.45 214.4 -13.3 212.75 -13.25 212.75 -13.2 212.75 L-13.15 212.65 Q-13.1 212.55 -13.05 212.5 L-12.95 212.3 Q-12.3 207.0 -11.7 201.7 -11.55 196.65 -11.7 201.7 -11.55 196.65 -12.35 190.75 -12.45 190.4 -12.35 190.75 -12.45 190.4 -12.35 190.75 -12.5 190.4 -12.6 190.1 -13.6 188.3 -13.85 186.45 -13.9 186.0 -13.9 185.55 L-13.8 184.05 Q-13.75 183.85 -13.7 183.65 -13.55 183.15 -13.45 182.7 -13.15 181.75 -12.85 180.85 -12.25 178.95 -11.65 177.05 -10.7 174.3 -9.75 171.6 -8.9 169.45 -8.1 167.3 -7.9 166.85 -7.7 166.4 -6.4 163.2 -7.0 160.65 -7.3 159.2 -8.3 157.95 -9.2 157.1 -10.05 156.25 -9.9 152.45 -9.8 148.65 L-9.8 148.05 Q-9.5 143.55 -8.15 139.35 -6.75 135.2 -4.25 131.35 -0.7 131.1 2.8 130.85 6.35 130.2 9.85 129.6 L10.3 131.5 Q12.5 140.6 15.6 149.5 17.15 153.95 19.15 158.1 21.2 162.3 23.7 166.2 22.45 169.55 18.8 204.55 19.15 208.4 20.15 212.05 L18.8 204.55 Q19.2 208.75 18.8 204.55 19.2 208.75 18.8 204.55 19.2 208.75 20.35 212.75 21.0 213.8 22.7 218.65 22.85 219.3 22.7 218.65 22.85 219.3 22.7 218.65 22.85 219.3 22.95 219.95 23.15 220.2 23.3 220.45 23.55 220.7 23.8 220.95 L23.9 221.05 Q24.05 221.15 24.15 221.25 L26.0 221.25 26.45 219.95 Q26.8 218.6 25.75 211.7 L25.75 211.6 Q25.65 211.15 25.75 211.7 25.65 211.2 25.75 211.7 25.65 211.2 25.75 211.7 25.65 211.2 25.75 211.7 L25.65 210.75 Q25.55 208.2 25.5 205.65 25.6 202.95 25.7 200.25 25.95 197.15 26.45 194.1 L28.05 183.55 28.65 180.45 29.7 177.45 31.0 173.3 Q32.45 167.3 33.2 160.95 33.55 158.1 33.4 155.35 33.25 152.6 32.6 149.9 31.95 147.2 31.25 135.15 31.1 133.25 31.25 135.15 31.1 133.25 31.25 135.15 L30.75 131.45 Q30.7 131.25 30.65 131.1 L30.6 130.8 Q30.5 130.6 30.4 130.45 L29.8 129.75 Q29.25 129.25 28.75 128.75 26.65 126.55 22.75 113.9 22.65 112.35 22.75 113.9 L22.3 103.15 Q21.85 99.65 20.85 96.3 L22.3 103.15 21.95 100.7 Q21.6 99.2 21.3 97.75 21.8 100.45 22.3 103.15 21.8 99.4 20.75 95.8 19.05 89.95 18.15 83.95 L17.4 78.0 Q17.1 75.4 17.35 72.8 17.65 70.2 18.5 67.55 19.15 65.45 19.8 63.4 20.85 60.2 20.15 57.75 19.45 55.35 16.95 53.65 17.4 52.55 17.8 51.45 18.05 50.3 17.9 49.05 L17.8 47.4 21.1 50.6 Q22.85 52.4 24.25 54.45 25.7 56.5 26.8 58.8 26.5 60.85 26.65 62.85 26.85 64.9 27.5 66.9 31.05 78.4 33.05 90.2 33.75 94.35 34.45 109.6 34.75 110.9 34.45 109.6 34.75 110.9 34.45 109.6 34.75 110.9 35.35 112.1 35.75 112.55 36.1 113.0 L37.15 113.3 Q39.45 113.3 40.6 112.0 41.75 110.75 41.75 108.15 42.15 107.75 42.5 107.4 L43.05 106.5 Q43.35 105.3 43.65 104.1 L44.0 101.65 44.5 94.75 Q44.85 90.1 44.5 85.6 44.15 81.1 43.15 76.7 41.2 68.45 40.45 60.0 L41.9 58.15 Q42.7 56.7 42.7 55.15 42.75 52.6 40.5 49.75 39.0 47.9 37.65 37.0 37.35 34.8 37.65 37.0 37.35 34.8 36.2 32.2 36.0 32.05 36.2 32.2 L31.0 30.7 Q28.75 29.85 31.0 30.7 28.75 29.85 31.0 30.7 28.75 29.85 26.65 28.5 25.85 27.9 25.1 27.35 L24.8 27.05 Q24.3 26.55 23.8 26.05 22.25 24.3 15.05 13.2 12.75 11.5 15.05 13.2 12.75 11.5 15.05 13.2 13.7 12.2 12.05 11.75 10.75 11.55 9.5 11.4 L10.7 8.25 11.25 6.9 Q11.8 5.65 12.35 4.4 13.05 3.25 13.95 2.2 14.1 1.4 14.25 0.6 14.25 0.4 14.25 0.2 14.2 -0.35 14.2 -0.9 14.15 -1.05 14.15 -1.2 14.05 -1.9 13.95 -2.6 L13.9 -4.2 Q13.7 -6.15 13.55 -8.05 L13.25 -9.85 12.75 -11.7 7.8 -19.8 Q7.3 -19.8 6.85 -19.8 L6.25 -19.9 Q5.9 -20.05 5.6 -20.15 4.65 -20.6 3.95 -21.6 L1.2 -21.5 Q-3.65 -17.25 -8.45 -13.0 L-10.25 -11.4 Q-10.1 -9.35 -10.0 -7.3 L-9.65 -2.65 Q-9.6 -1.6 -13.55 8.05 -15.55 11.1 -13.55 8.05 -15.55 11.1 -13.55 8.05 -15.55 11.1 -18.2 13.7 L-18.1 14.75 Q-17.7 18.45 -17.7 22.2 -18.35 21.2 -19.15 20.55 -20.1 19.8 -27.6 21.45 -28.15 22.0 -27.6 21.45 -28.15 22.0 -27.6 21.45 L-28.5 22.75 Q-29.35 24.55 -29.3 26.35 -29.25 28.15 -28.3 29.95 -27.9 30.7 -29.85 36.45 -31.0 38.1 -29.85 36.45 -31.0 38.1 -36.65 43.9 -37.45 45.3 -38.2 46.65 -38.65 47.75 -39.1 48.85 -37.85 46.35 -36.65 43.9 L-36.65 43.9 Q-37.1 44.65 -37.5 45.35 -38.55 47.2 -36.65 43.9 -38.3 46.35 -39.2 49.25 -40.05 51.85 -40.25 54.5 -40.4 57.2 -39.9 59.95 -39.75 61.0 -39.75 62.05 -39.8 63.15 -39.8 64.2 -41.55 76.65 -42.9 89.15 L-44.15 101.65;M-45.05 101.25 Q-44.35 104.5 -45.0 107.85 -44.15 109.3 -42.4 109.1 L-42.4 109.15 Q-43.35 113.35 -39.75 114.35 -38.85 114.6 -38.25 114.0 -35.85 111.25 -36.65 107.25 -38.6 97.45 -36.9 87.65 -36.85 87.55 -36.85 87.45 L-36.8 86.65 Q-36.85 83.3 -35.85 80.2 -33.45 73.0 -30.5 65.9 L-30.05 64.8 Q-27.9 59.15 -27.0 53.2 L-26.9 53.1 Q-26.8 53.0 -26.75 52.9 -26.3 52.3 -25.9 51.75 -25.65 51.45 -25.45 51.15 -25.25 50.9 -25.05 50.65 -24.9 50.6 -24.8 50.6 -24.75 50.8 -24.7 50.95 L-24.25 51.95 Q-24.65 52.75 -25.05 53.5 -25.35 54.05 -24.6 64.55 L-24.5 64.95 -24.4 65.25 Q-24.35 65.5 -24.3 65.75 -24.2 66.0 -24.1 66.25 -24.0 66.55 -23.9 66.8 -23.8 67.05 -23.7 67.3 -23.6 67.55 -23.5 67.8 -23.4 68.1 -23.3 68.35 -23.2 68.6 -23.1 68.85 -23.0 69.1 -22.9 69.35 -22.8 69.6 -22.7 69.85 -22.25 70.8 -21.8 71.75 -20.4 75.2 -19.8 78.95 -19.55 80.3 -19.35 81.65 -20.75 85.9 -21.45 90.45 L-22.35 96.55 Q-23.55 105.75 -24.1 115.05 L-25.25 135.05 Q-25.35 137.0 -25.8 138.9 -25.85 139.2 -25.9 139.5 -27.0 144.9 -25.8 149.8 -25.85 150.9 -25.85 152.0 -25.85 152.05 -25.85 152.1 -26.2 155.85 -24.9 159.2 -24.05 161.35 -24.4 163.5 -25.6 172.1 -24.8 180.6 L-22.6 205.2 Q-22.3 208.5 -20.25 211.2 -15.35 217.6 -15.9 225.85 -16.05 228.5 -13.65 229.35 -8.25 231.3 -7.7 225.5 -7.1 219.2 -9.6 213.55 -11.65 209.05 -12.3 204.2 -12.45 203.1 -12.85 202.05 -14.0 199.25 -14.35 196.35 -15.2 190.15 -16.0 183.95 -16.7 179.3 -16.1 174.75 -15.15 167.2 -15.7 159.65 L-15.55 158.45 Q-13.7 152.3 -14.75 145.85 -14.45 145.9 -14.2 145.9 -11.9 146.35 -10.15 145.45 -8.7 144.15 -8.2 142.3 L-6.1 135.4 Q-5.8 135.15 -5.5 134.9 -5.35 134.8 -5.25 134.7 -5.0 134.35 -4.8 134.0 -3.45 128.8 -2.7 123.5 -2.0 126.9 -1.35 130.3 L-1.2 130.95 Q-0.6 133.05 0.7 133.95 2.05 134.9 4.2 134.55 5.4 137.65 6.6 140.7 7.1 142.1 7.6 143.45 8.8 147.3 11.25 149.65 12.6 150.95 14.3 151.75 14.3 153.5 14.9 155.05 16.05 157.9 18.9 158.1 19.35 160.95 19.05 163.75 L17.95 168.95 Q15.4 178.9 16.6 189.0 L16.75 191.95 16.75 192.4 Q16.7 193.35 16.65 194.25 L16.65 194.25 Q16.65 194.55 16.65 194.85 16.65 195.05 16.65 195.25 16.65 195.5 16.65 195.7 16.65 195.9 16.65 196.1 L16.3 206.95 Q16.2 211.05 18.05 214.65 20.05 218.5 20.2 222.7 20.3 222.8 20.4 222.9 L20.8 223.3 21.2 223.65 21.7 223.65 22.4 223.65 Q22.55 223.5 22.7 223.4 22.75 223.35 22.8 223.3 22.95 223.15 23.05 223.0 23.1 222.85 23.15 222.7 22.35 217.05 22.25 211.3 22.15 207.65 22.35 204.0 L22.6 199.7 Q23.2 190.3 24.9 181.05 L27.05 168.55 Q28.4 160.05 27.3 151.75 L28.2 149.8 Q29.55 147.6 28.95 145.1 26.8 136.0 24.05 126.95 23.85 126.35 23.7 125.75 L23.6 125.25 Q22.5 119.0 21.4 112.8 L21.05 110.7 19.2 100.5 Q18.0 94.25 17.6 87.95 17.3 83.5 15.5 79.75 16.45 78.2 17.35 76.65 19.0 73.55 20.65 70.45 L21.95 67.3 Q22.45 65.85 22.95 64.45 24.1 61.0 24.2 57.55 24.3 54.95 23.8 52.3 23.65 51.6 23.55 50.9 25.85 52.8 28.7 54.2 29.85 54.8 30.4 55.9 32.15 59.5 34.45 62.7 L37.8 66.85 37.65 71.95 Q37.6 74.5 37.6 77.05 37.55 82.6 40.6 87.0 40.5 87.2 40.4 87.4 40.3 87.9 40.2 88.4 39.85 88.8 39.55 89.15 39.45 89.3 39.35 89.4 39.15 90.7 38.95 91.95 38.9 92.3 38.85 92.65 38.55 94.45 38.25 96.2 37.1 100.9 37.7 105.45 L37.45 105.75 Q36.7 106.5 36.05 107.4 35.45 109.1 34.4 110.65 31.15 115.6 34.3 119.85 L33.9 120.85 Q33.0 124.75 32.8 128.7 L33.0 128.9 33.45 129.35 Q34.1 129.35 34.75 129.35 34.95 129.15 35.15 128.95 35.45 128.35 35.75 127.75 L37.15 122.9 Q38.1 119.35 36.3 116.6 36.15 115.55 36.7 114.65 39.55 110.15 39.15 105.1 39.45 104.85 39.7 104.65 39.9 104.4 40.1 104.15 40.15 103.95 40.2 103.8 L40.2 103.8 Q40.2 103.8 40.2 103.8 40.2 103.3 40.2 102.8 40.4 102.45 40.55 102.15 42.3 96.7 42.1 90.7 L42.5 90.0 Q43.1 88.95 42.75 87.75 42.45 87.45 42.15 87.2 42.25 87.2 42.3 87.2 42.35 87.15 42.4 87.1 43.8 85.55 43.95 83.45 44.05 82.05 43.15 80.85 L42.75 74.3 42.7 72.3 Q42.7 70.35 42.85 68.4 47.0 65.75 44.15 61.4 41.45 57.4 39.9 52.9 40.85 51.2 40.6 49.3 39.95 44.2 39.65 39.1 39.5 36.65 38.1 34.7 32.8 27.45 24.45 23.25 L21.85 21.5 Q18.5 18.35 14.4 17.7 L11.15 12.9 8.2 8.3 8.2 8.25 Q10.15 -1.95 10.15 -12.6 L9.9 -22.2 Q9.6 -27.9 9.65 -33.3 9.65 -34.25 8.85 -34.85 L3.2 -35.8 Q-4.3 -34.1 -11.55 -31.7 L-14.2 -30.5 Q-13.95 -29.15 -14.4 -27.4 L-15.5 -23.8 Q-15.75 -23.05 -16.5 -23.05 -16.6 -23.05 -16.7 -23.05 -17.15 -23.05 -17.55 -23.05 -17.5 -22.85 -17.45 -22.7 L-15.5 -21.9 Q-15.75 -21.3 -16.0 -20.7 -16.7 -18.55 -17.35 -16.4 -17.9 -14.2 -18.1 -11.9 -18.55 -7.35 -17.7 -2.8 -17.45 -1.55 -17.2 -0.3 L-16.85 0.7 Q-16.7 2.7 -16.7 4.75 -16.8 11.35 -18.15 17.85 -19.3 18.15 -20.45 18.45 -20.75 18.95 -21.05 19.45 -22.35 21.6 -23.95 23.55 -26.35 26.45 -29.4 28.95 -34.1 32.75 -37.05 37.75 -37.6 38.7 -37.65 39.7 L-37.65 40.6 Q-37.15 44.35 -38.85 47.7 -43.9 57.75 -40.5 68.2 -40.4 68.7 -40.35 69.15 -40.75 73.5 -41.75 77.7 -42.15 79.2 -42.2 80.65 -42.35 83.65 -42.9 86.5 -43.3 88.85 -44.2 91.0 -45.55 94.35 -45.5 97.75 L-45.05 101.25"/>
    </path>
    <path d="M-44.15 101.65 L-42.9 89.15 Q-41.55 76.65 -39.8 64.2 -39.8 63.15 -39.75 62.05 -39.75 61.0 -39.9 59.95 -40.4 57.2 -40.25 54.5 -40.05 51.85 -39.2 49.25 -38.3 46.35 -36.65 43.9 -38.55 47.2 -37.5 45.35 -37.1 44.65 -36.65 43.9 L-36.65 43.9 Q-37.85 46.35 -39.1 48.85 -38.65 47.75 -38.2 46.65 -37.45 45.3 -36.65 43.9 -31.0 38.1 -29.85 36.45 -31.0 38.1 -29.85 36.45 -27.9 30.7 -28.3 29.95 -29.25 28.15 -29.3 26.35 -29.35 24.55 -28.5 22.75 L-27.6 21.45 Q-28.15 22.0 -27.6 21.45 -28.15 22.0 -27.6 21.45 -20.1 19.8 -19.15 20.55 -18.35 21.2 -17.7 22.2 -17.7 18.45 -18.1 14.75 L-18.2 13.7 Q-15.55 11.1 -13.55 8.05 -15.55 11.1 -13.55 8.05 -15.55 11.1 -13.55 8.05 -9.6 -1.6 -9.65 -2.65 L-10.0 -7.3 Q-10.1 -9.35 -10.25 -11.4 L-8.45 -13.0 Q-3.65 -17.25 1.2 -21.5 L3.95 -21.6 Q4.65 -20.6 5.6 -20.15 5.9 -20.05 6.25 -19.9 L6.85 -19.8 Q7.3 -19.8 7.8 -19.8 L12.75 -11.7 13.25 -9.85 13.55 -8.05 Q13.7 -6.15 13.9 -4.2 L13.95 -2.6 Q14.05 -1.9 14.15 -1.2 14.15 -1.05 14.2 -0.9 14.2 -0.35 14.25 0.2 14.25 0.4 14.25 0.6 14.1 1.4 13.95 2.2 13.05 3.25 12.35 4.4 11.8 5.65 11.25 6.9 L10.7 8.25 9.5 11.4 Q10.75 11.55 12.05 11.75 13.7 12.2 15.05 13.2 12.75 11.5 15.05 13.2 12.75 11.5 15.05 13.2 22.25 24.3 23.8 26.05 24.3 26.55 24.8 27.05 L25.1 27.35 Q25.85 27.9 26.65 28.5 28.75 29.85 31.0 30.7 28.75 29.85 31.0 30.7 28.75 29.85 31.0 30.7 L36.2 32.2 Q36.0 32.05 36.2 32.2 37.35 34.8 37.65 37.0 37.35 34.8 37.65 37.0 39.0 47.9 40.5 49.75 42.75 52.6 42.7 55.15 42.7 56.7 41.9 58.15 L40.45 60.0 Q41.2 68.45 43.15 76.7 44.15 81.1 44.5 85.6 44.85 90.1 44.5 94.75 L44.0 101.65 43.65 104.1 Q43.35 105.3 43.05 106.5 L42.5 107.4 Q42.15 107.75 41.75 108.15 41.75 110.75 40.6 112.0 39.45 113.3 37.15 113.3 L36.1 113.0 Q35.75 112.55 35.35 112.1 34.75 110.9 34.45 109.6 34.75 110.9 34.45 109.6 34.75 110.9 34.45 109.6 33.75 94.35 33.05 90.2 31.05 78.4 27.5 66.9 26.85 64.9 26.65 62.85 26.5 60.85 26.8 58.8 25.7 56.5 24.25 54.45 22.85 52.4 21.1 50.6 L17.8 47.4 17.9 49.05 Q18.05 50.3 17.8 51.45 17.4 52.55 16.95 53.65 19.45 55.35 20.15 57.75 20.85 60.2 19.8 63.4 19.15 65.45 18.5 67.55 17.65 70.2 17.35 72.8 17.1 75.4 17.4 78.0 L18.15 83.95 Q19.05 89.95 20.75 95.8 21.8 99.4 22.3 103.15 21.8 100.45 21.3 97.75 21.6 99.2 21.95 100.7 L22.3 103.15 20.85 96.3 Q21.85 99.65 22.3 103.15 L22.75 113.9 Q22.65 112.35 22.75 113.9 26.65 126.55 28.75 128.75 29.25 129.25 29.8 129.75 L30.4 130.45 Q30.5 130.6 30.6 130.8 L30.65 131.1 Q30.7 131.25 30.75 131.45 L31.25 135.15 Q31.1 133.25 31.25 135.15 31.1 133.25 31.25 135.15 31.95 147.2 32.6 149.9 33.25 152.6 33.4 155.35 33.55 158.1 33.2 160.95 32.45 167.3 31.0 173.3 L29.7 177.45 28.65 180.45 28.05 183.55 26.45 194.1 Q25.95 197.15 25.7 200.25 25.6 202.95 25.5 205.65 25.55 208.2 25.65 210.75 L25.75 211.7 Q25.65 211.2 25.75 211.7 25.65 211.2 25.75 211.7 25.65 211.2 25.75 211.7 25.65 211.15 25.75 211.6 L25.75 211.7 Q26.8 218.6 26.45 219.95 L26.0 221.25 24.15 221.25 Q24.05 221.15 23.9 221.05 L23.8 220.95 Q23.55 220.7 23.3 220.45 23.15 220.2 22.95 219.95 22.85 219.3 22.7 218.65 22.85 219.3 22.7 218.65 22.85 219.3 22.7 218.65 21.0 213.8 20.35 212.75 19.2 208.75 18.8 204.55 19.2 208.75 18.8 204.55 19.2 208.75 18.8 204.55 L20.15 212.05 Q19.15 208.4 18.8 204.55 22.45 169.55 23.7 166.2 21.2 162.3 19.15 158.1 17.15 153.95 15.6 149.5 12.5 140.6 10.3 131.5 L9.85 129.6 Q6.35 130.2 2.8 130.85 -0.7 131.1 -4.25 131.35 -6.75 135.2 -8.15 139.35 -9.5 143.55 -9.8 148.05 L-9.8 148.65 Q-9.9 152.45 -10.05 156.25 -9.2 157.1 -8.3 157.95 -7.3 159.2 -7.0 160.65 -6.4 163.2 -7.7 166.4 -7.9 166.85 -8.1 167.3 -8.9 169.45 -9.75 171.6 -10.7 174.3 -11.65 177.05 -12.25 178.95 -12.85 180.85 -13.15 181.75 -13.45 182.7 -13.55 183.15 -13.7 183.65 -13.75 183.85 -13.8 184.05 L-13.9 185.55 Q-13.9 186.0 -13.85 186.45 -13.6 188.3 -12.6 190.1 -12.5 190.4 -12.35 190.75 -12.45 190.4 -12.35 190.75 -12.45 190.4 -12.35 190.75 -11.55 196.65 -11.7 201.7 -11.55 196.65 -11.7 201.7 -12.3 207.0 -12.95 212.3 L-13.05 212.5 Q-13.1 212.55 -13.15 212.65 L-13.2 212.75 Q-13.25 212.75 -13.3 212.75 -15.45 214.4 -17.2 214.1 -15.45 214.4 -17.2 214.1 -15.45 214.4 -17.2 214.1 -20.7 211.0 -21.05 210.2 -20.7 211.0 -21.05 210.2 -20.7 211.0 -21.05 210.2 -20.7 211.0 -21.05 210.2 -20.7 211.0 -21.05 210.2 -20.7 211.0 -21.05 210.2 -20.7 211.0 -21.05 210.2 -20.7 211.0 -21.05 210.2 -20.7 211.0 -21.05 210.2 L-20.35 211.5 -21.05 210.2 Q-26.3 166.0 -25.9 164.55 -25.35 162.35 -25.15 160.1 L-22.5 135.2 Q-22.05 131.4 -21.1 127.6 -20.3 124.55 -20.65 121.65 -20.3 124.55 -20.65 121.65 -20.3 124.55 -20.65 121.65 -20.3 124.55 -20.65 121.65 -31.2 91.6 -30.6 85.7 L-29.5 78.2 Q-29.55 78.15 -29.6 78.1 L-29.7 78.05 Q-30.45 77.45 -31.25 76.85 -31.6 76.55 -31.95 76.25 L-35.65 93.5 Q-36.3 96.45 -37.25 99.3 -38.05 101.35 -38.85 103.45 -39.15 104.15 -39.45 104.85 -39.45 104.9 -39.45 104.95 -39.6 105.1 -39.75 105.25 L-40.15 105.45 Q-42.35 105.75 -43.35 104.8 -44.35 103.85 -44.15 101.65" fill="none" stroke="#000000" stroke-linecap="round" stroke-linejoin="round" stroke-opacity="0.0" stroke-width="1.0">
      <animate attributeName="stroke" dur="2s" repeatCount="indefinite" values="#000000;#000001"/>
      <animate attributeName="stroke-width" dur="2s" repeatCount="indefinite" values="0.0;0.0"/>
      <animate attributeName="fill-opacity" dur="2s" repeatCount="indefinite" values="0.0;0.0"/>
      <animate attributeName="d" dur="2s" repeatCount="indefinite" values="M-44.15 101.65 L-42.9 89.15 Q-41.55 76.65 -39.8 64.2 -39.8 63.15 -39.75 62.05 -39.75 61.0 -39.9 59.95 -40.4 57.2 -40.25 54.5 -40.05 51.85 -39.2 49.25 -38.3 46.35 -36.65 43.9 -38.55 47.2 -37.5 45.35 -37.1 44.65 -36.65 43.9 L-36.65 43.9 Q-37.85 46.35 -39.1 48.85 -38.65 47.75 -38.2 46.65 -37.45 45.3 -36.65 43.9 -31.0 38.1 -29.85 36.45 -31.0 38.1 -29.85 36.45 -27.9 30.7 -28.3 29.95 -29.25 28.15 -29.3 26.35 -29.35 24.55 -28.5 22.75 L-27.6 21.45 Q-28.15 22.0 -27.6 21.45 -28.15 22.0 -27.6 21.45 -20.1 19.8 -19.15 20.55 -18.35 21.2 -17.7 22.2 -17.7 18.45 -18.1 14.75 L-18.2 13.7 Q-15.55 11.1 -13.55 8.05 -15.55 11.1 -13.55 8.05 -15.55 11.1 -13.55 8.05 -9.6 -1.6 -9.65 -2.65 L-10.0 -7.3 Q-10.1 -9.35 -10.25 -11.4 L-8.45 -13.0 Q-3.65 -17.25 1.2 -21.5 L3.95 -21.6 Q4.65 -20.6 5.6 -20.15 5.9 -20.05 6.25 -19.9 L6.85 -19.8 Q7.3 -19.8 7.8 -19.8 L12.75 -11.7 13.25 -9.85 13.55 -8.05 Q13.7 -6.15 13.9 -4.2 L13.95 -2.6 Q14.05 -1.9 14.15 -1.2 14.15 -1.05 14.2 -0.9 14.2 -0.35 14.25 0.2 14.25 0.4 14.25 0.6 14.1 1.4 13.95 2.2 13.05 3.25 12.35 4.4 11.8 5.65 11.25 6.9 L10.7 8.25 9.5 11.4 Q10.75 11.55 12.05 11.75 13.7 12.2 15.05 13.2 12.75 11.5 15.05 13.2 12.75 11.5 15.05 13.2 22.25 24.3 23.8 26.05 24.3 26.55 24.8 27.05 L25.1 27.35 Q25.85 27.9 26.65 28.5 28.75 29.85 31.0 30.7 28.75 29.85 31.0 30.7 28.75 29.85 31.0 30.7 L36.2 32.2 Q36.0 32.05 36.2 32.2 37.35 34.8 37.65 37.0 37.35 34.8 37.65 37.0 39.0 47.9 40.5 49.75 42.75 52.6 42.7 55.15 42.7 56.7 41.9 58.15 L40.45 60.0 Q41.2 68.45 43.15 76.7 44.15 81.1 44.5 85.6 44.85 90.1 44.5 94.75 L44.0 101.65 43.65 104.1 Q43.35 105.3 43.05 106.5 L42.5 107.4 Q42.15 107.75 41.75 108.15 41.75 110.75 40.6 112.0 39.45 113.3 37.15 113.3 L36.1 113.0 Q35.75 112.55 35.35 112.1 34.75 110.9 34.45 109.6 34.75 110.9 34.45 109.6 34.75 110.9 34.45 109.6 33.75 94.35 33.05 90.2 31.05 78.4 27.5 66.9 26.85 64.9 26.65 62.85 26.5 60.85 26.8 58.8 25.7 56.5 24.25 54.45 22.85 52.4 21.1 50.6 L17.8 47.4 17.9 49.05 Q18.05 50.3 17.8 51.45 17.4 52.55 16.95 53.65 19.45 55.35 20.15 57.75 20.85 60.2 19.8 63.4 19.15 65.45 18.5 67.55 17.65 70.2 17.35 72.8 17.1 75.4 17.4 78.0 L18.15 83.95 Q19.05 89.95 20.75 95.8 21.8 99.4 22.3 103.15 21.8 100.45 21.3 97.75 21.6 99.2 21.95 100.7 L22.3 103.15 20.85 96.3 Q21.85 99.65 22.3 103.15 L22.75 113.9 Q22.65 112.35 22.75 113.9 26.65 126.55 28.75 128.75 29.25 129.25 29.8 129.75 L30.4 130.45 Q30.5 130.6 30.6 130.8 L30.65 131.1 Q30.7 131.25 30.75 131.45 L31.25 135.15 Q31.1 133.25 31.25 135.15 31.1 133.25 31.25 135.15 31.95 147.2 32.6 149.9 33.25 152.6 33.4 155.35 33.55 158.1 33.2 160.95 32.45 167.3 31.0 173.3 L29.7 177.45 28.65 180.45 28.05 183.55 26.45 194.1 Q25.95 197.15 25.7 200.25 25.6 202.95 25.5 205.65 25.55 208.2 25.65 210.75 L25.75 211.7 Q25.65 211.2 25.75 211.7 25.65 211.2 25.75 211.7 25.65 211.2 25.75 211.7 25.65 211.15 25.75 211.6 L25.75 211.7 Q26.8 218.6 26.45 219.95 L26.0 221.25 24.15 221.25 Q24.05 221.15 23.9 221.05 L23.8 220.95 Q23.55 220.7 23.3 220.45 23.15 220.2 22.95 219.95 22.85 219.3 22.7 218.65 22.85 219.3 22.7 218.65 22.85 219.3 22.7 218.65 21.0 213.8 20.35 212.75 19.2 208.75 18.8 204.55 19.2 208.75 18.8 204.55 19.2 208.75 18.8 204.55 L20.15 212.05 Q19.15 208.4 18.8 204.55 22.45 169.55 23.7 166.2 21.2 162.3 19.15 158.1 17.15 153.95 15.6 149.5 12.5 140.6 10.3 131.5 L9.85 129.6 Q6.35 130.2 2.8 130.85 -0.7 131.1 -4.25 131.35 -6.75 135.2 -8.15 139.35 -9.5 143.55 -9.8 148.05 L-9.8 148.65 Q-9.9 152.45 -10.05 156.25 -9.2 157.1 -8.3 157.95 -7.3 159.2 -7.0 160.65 -6.4 163.2 -7.7 166.4 -7.9 166.85 -8.1 167.3 -8.9 169.45 -9.75 171.6 -10.7 174.3 -11.65 177.05 -12.25 178.95 -12.85 180.85 -13.15 181.75 -13.45 182.7 -13.55 183.15 -13.7 183.65 -13.75 183.85 -13.8 184.05 L-13.9 185.55 Q-13.9 186.0 -13.85 186.45 -13.6 188.3 -12.6 190.1 -12.5 190.4 -12.35 190.75 -12.45 190.4 -12.35 190.75 -12.45 190.4 -12.35 190.75 -11.55 196.65 -11.7 201.7 -11.55 196.65 -11.7 201.7 -12.3 207.0 -12.95 212.3 L-13.05 212.5 Q-13.1 212.55 -13.15 212.65 L-13.2 212.75 Q-13.25 212.75 -13.3 212.75 -15.45 214.4 -17.2 214.1 -15.45 214.4 -17.2 214.1 -15.45 214.4 -17.2 214.1 -20.7 211.0 -21.05 210.2 -20.7 211.0 -21.05 210.2 -20.7 211.0 -21.05 210.2 -20.7 211.0 -21.05 210.2 -20.7 211.0 -21.05 210.2 -20.7 211.0 -21.05 210.2 -20.7 211.0 -21.05 210.2 -20.7 211.0 -21.05 210.2 -20.7 211.0 -21.05 210.2 L-20.35 211.5 -21.05 210.2 Q-26.3 166.0 -25.9 164.55 -25.35 162.35 -25.15 160.1 L-22.5 135.2 Q-22.05 131.4 -21.1 127.6 -20.3 124.55 -20.65 121.65 -20.3 124.55 -20.65 121.65 -20.3 124.55 -20.65 121.65 -20.3 124.55 -20.65 121.65 -31.2 91.6 -30.6 85.7 L-29.5 78.2 Q-29.55 78.15 -29.6 78.1 L-29.7 78.05 Q-30.45 77.45 -31.25 76.85 -31.6 76.55 -31.95 76.25 L-35.65 93.5 Q-36.3 96.45 -37.25 99.3 -38.05 101.35 -38.85 103.45 -39.15 104.15 -39.45 104.85 -39.45 104.9 -39.45 104.95 -39.6 105.1 -39.75 105.25 L-40.15 105.45 Q-42.35 105.75 -43.35 104.8 -44.35 103.85 -44.15 101.65;M-45.05 101.25 L-45.5 97.75 Q-45.55 94.35 -44.2 91.0 -43.3 88.85 -42.9 86.5 -42.35 83.65 -42.2 80.65 -42.15 79.2 -41.75 77.7 -40.75 73.5 -40.35 69.15 -40.4 68.7 -40.5 68.2 -43.9 57.75 -38.85 47.7 -37.15 44.35 -37.65 40.6 L-37.65 39.7 Q-37.6 38.7 -37.05 37.75 -34.1 32.75 -29.4 28.95 -26.35 26.45 -23.95 23.55 -22.35 21.6 -21.05 19.45 -20.75 18.95 -20.45 18.45 -19.3 18.15 -18.15 17.85 -16.8 11.35 -16.7 4.75 -16.7 2.7 -16.85 0.7 L-17.2 -0.3 Q-17.45 -1.55 -17.7 -2.8 -18.55 -7.35 -18.1 -11.9 -17.9 -14.2 -17.35 -16.4 -16.7 -18.55 -16.0 -20.7 -15.75 -21.3 -15.5 -21.9 L-17.45 -22.7 Q-17.5 -22.85 -17.55 -23.05 -17.15 -23.05 -16.7 -23.05 -16.6 -23.05 -16.5 -23.05 -15.75 -23.05 -15.5 -23.8 L-14.4 -27.4 Q-13.95 -29.15 -14.2 -30.5 L-11.55 -31.7 Q-4.3 -34.1 3.2 -35.8 L8.85 -34.85 Q9.65 -34.25 9.65 -33.3 9.6 -27.9 9.9 -22.2 L10.15 -12.6 Q10.15 -1.95 8.2 8.25 L8.2 8.3 11.15 12.9 14.4 17.7 Q18.5 18.35 21.85 21.5 L24.45 23.25 Q32.8 27.45 38.1 34.7 39.5 36.65 39.65 39.1 39.95 44.2 40.6 49.3 40.85 51.2 39.9 52.9 41.45 57.4 44.15 61.4 47.0 65.75 42.85 68.4 42.7 70.35 42.7 72.3 L42.75 74.3 43.15 80.85 Q44.05 82.05 43.95 83.45 43.8 85.55 42.4 87.1 42.35 87.15 42.3 87.2 42.25 87.2 42.15 87.2 42.45 87.45 42.75 87.75 43.1 88.95 42.5 90.0 L42.1 90.7 Q42.3 96.7 40.55 102.15 40.4 102.45 40.2 102.8 40.2 103.3 40.2 103.8 40.2 103.8 40.2 103.8 L40.2 103.8 Q40.15 103.95 40.1 104.15 39.9 104.4 39.7 104.65 39.45 104.85 39.15 105.1 39.55 110.15 36.7 114.65 36.15 115.55 36.3 116.6 38.1 119.35 37.15 122.9 L35.75 127.75 Q35.45 128.35 35.15 128.95 34.95 129.15 34.75 129.35 34.1 129.35 33.45 129.35 L33.0 128.9 32.8 128.7 Q33.0 124.75 33.9 120.85 L34.3 119.85 Q31.15 115.6 34.4 110.65 35.45 109.1 36.05 107.4 36.7 106.5 37.45 105.75 L37.7 105.45 Q37.1 100.9 38.25 96.2 38.55 94.45 38.85 92.65 38.9 92.3 38.95 91.95 39.15 90.7 39.35 89.4 39.45 89.3 39.55 89.15 39.85 88.8 40.2 88.4 40.3 87.9 40.4 87.4 40.5 87.2 40.6 87.0 37.55 82.6 37.6 77.05 37.6 74.5 37.65 71.95 L37.8 66.85 34.45 62.7 Q32.15 59.5 30.4 55.9 29.85 54.8 28.7 54.2 25.85 52.8 23.55 50.9 23.65 51.6 23.8 52.3 24.3 54.95 24.2 57.55 24.1 61.0 22.95 64.45 22.45 65.85 21.95 67.3 L20.65 70.45 Q19.0 73.55 17.35 76.65 16.45 78.2 15.5 79.75 17.3 83.5 17.6 87.95 18.0 94.25 19.2 100.5 L21.05 110.7 21.4 112.8 Q22.5 119.0 23.6 125.25 L23.7 125.75 Q23.85 126.35 24.05 126.95 26.8 136.0 28.95 145.1 29.55 147.6 28.2 149.8 L27.3 151.75 Q28.4 160.05 27.05 168.55 L24.9 181.05 Q23.2 190.3 22.6 199.7 L22.35 204.0 Q22.15 207.65 22.25 211.3 22.35 217.05 23.15 222.7 23.1 222.85 23.05 223.0 22.95 223.15 22.8 223.3 22.75 223.35 22.7 223.4 22.55 223.5 22.4 223.65 L21.7 223.65 21.2 223.65 20.8 223.3 20.4 222.9 Q20.3 222.8 20.2 222.7 20.05 218.5 18.05 214.65 16.2 211.05 16.3 206.95 L16.65 196.1 Q16.65 195.9 16.65 195.7 16.65 195.5 16.65 195.25 16.65 195.05 16.65 194.85 16.65 194.55 16.65 194.25 L16.65 194.25 Q16.7 193.35 16.75 192.4 L16.75 191.95 16.6 189.0 Q15.4 178.9 17.95 168.95 L19.05 163.75 Q19.35 160.95 18.9 158.1 16.05 157.9 14.9 155.05 14.3 153.5 14.3 151.75 12.6 150.95 11.25 149.65 8.8 147.3 7.6 143.45 7.1 142.1 6.6 140.7 5.4 137.65 4.2 134.55 2.05 134.9 0.7 133.95 -0.6 133.05 -1.2 130.95 L-1.35 130.3 Q-2.0 126.9 -2.7 123.5 -3.45 128.8 -4.8 134.0 -5.0 134.35 -5.25 134.7 -5.35 134.8 -5.5 134.9 -5.8 135.15 -6.1 135.4 L-8.2 142.3 Q-8.7 144.15 -10.15 145.45 -11.9 146.35 -14.2 145.9 -14.45 145.9 -14.75 145.85 -13.7 152.3 -15.55 158.45 L-15.7 159.65 Q-15.15 167.2 -16.1 174.75 -16.7 179.3 -16.0 183.95 -15.2 190.15 -14.35 196.35 -14.0 199.25 -12.85 202.05 -12.45 203.1 -12.3 204.2 -11.65 209.05 -9.6 213.55 -7.1 219.2 -7.7 225.5 -8.25 231.3 -13.65 229.35 -16.05 228.5 -15.9 225.85 -15.35 217.6 -20.25 211.2 -22.3 208.5 -22.6 205.2 L-24.8 180.6 Q-25.6 172.1 -24.4 163.5 -24.05 161.35 -24.9 159.2 -26.2 155.85 -25.85 152.1 -25.85 152.05 -25.85 152.0 -25.85 150.9 -25.8 149.8 -27.0 144.9 -25.9 139.5 -25.85 139.2 -25.8 138.9 -25.35 137.0 -25.25 135.05 L-24.1 115.05 Q-23.55 105.75 -22.35 96.55 L-21.45 90.45 Q-20.75 85.9 -19.35 81.65 -19.55 80.3 -19.8 78.95 -20.4 75.2 -21.8 71.75 -22.25 70.8 -22.7 69.85 -22.8 69.6 -22.9 69.35 -23.0 69.1 -23.1 68.85 -23.2 68.6 -23.3 68.35 -23.4 68.1 -23.5 67.8 -23.6 67.55 -23.7 67.3 -23.8 67.05 -23.9 66.8 -24.0 66.55 -24.1 66.25 -24.2 66.0 -24.3 65.75 -24.35 65.5 -24.4 65.25 L-24.5 64.95 -24.6 64.55 Q-25.35 54.05 -25.05 53.5 -24.65 52.75 -24.25 51.95 L-24.7 50.95 Q-24.75 50.8 -24.8 50.6 -24.9 50.6 -25.05 50.65 -25.25 50.9 -25.45 51.15 -25.65 51.45 -25.9 51.75 -26.3 52.3 -26.75 52.9 -26.8 53.0 -26.9 53.1 L-27.0 53.2 Q-27.9 59.15 -30.05 64.8 L-30.5 65.9 Q-33.45 73.0 -35.85 80.2 -36.85 83.3 -36.8 86.65 L-36.85 87.45 Q-36.85 87.55 -36.9 87.65 -38.6 97.45 -36.65 107.25 -35.85 111.25 -38.25 114.0 -38.85 114.6 -39.75 114.35 -43.35 113.35 -42.4 109.15 L-42.4 109.1 Q-44.15 109.3 -45.0 107.85 -44.35 104.5 -45.05 101.25"/>
    </path>
  </g>
</svg>
