<?xml version="1.0" encoding="UTF-8" standalone="no"?>
<svg xmlns:xlink="http://www.w3.org/1999/xlink" height="57.45px" width="48.1px" xmlns="http://www.w3.org/2000/svg">
  <g transform="matrix(1.0, 0.0, 0.0, 1.0, 20.7, 26.95)">
    <path d="M-19.9 -17.4 L-19.9 -17.4 -19.9 -17.2 -19.6 -16.75 -17.85 -17.4 -17.2 -17.55 -16.15 -17.75 Q-10.4 -17.8 -9.95 -15.75 L-9.95 -15.1 -10.1 -14.55 Q-8.8 -15.3 -7.15 -15.85 -3.25 -15.95 -1.75 -14.9 L-1.45 -14.95 -1.15 -15.0 0.2 -15.05 Q3.55 -15.15 5.0 -13.95 L5.95 -12.6 6.0 -12.45 6.55 -12.4 6.9 -12.9 7.4 -13.4 7.7 -13.7 Q7.5 -12.95 7.7 -12.25 L13.4 -11.2 13.45 -12.5 13.35 -13.0 13.8 -13.45 Q13.55 -12.3 14.25 -11.05 L16.4 -10.5 16.55 -10.75 16.6 -10.85 16.65 -10.8 16.65 -10.7 16.6 -10.45 17.65 -10.15 17.8 -10.1 Q18.4 -11.25 20.0 -12.25 L20.1 -12.25 20.6 -12.35 21.35 -12.55 21.35 -12.6 Q22.7 -12.55 24.05 -12.5 25.1 -12.25 26.15 -12.0 L26.35 -12.1 Q23.7 -12.35 22.85 -14.3 L22.7 -14.85 Q22.65 -15.4 22.95 -15.85 23.4 -16.6 24.6 -17.15 L25.1 -17.2 25.45 -17.3 25.85 -17.45 25.85 -17.45 27.2 -17.45 27.4 -17.45 27.0 -17.9 Q26.55 -18.3 26.15 -18.7 25.8 -19.0 25.45 -19.25 L24.6 -19.8 Q24.2 -20.05 23.8 -20.25 22.9 -20.65 22.0 -21.05 21.1 -21.5 20.2 -21.95 L18.8 -22.65 Q16.9 -23.6 15.05 -24.5 14.65 -26.35 11.6 -26.85 L11.3 -26.85 10.8 -26.9 9.95 -26.9 9.7 -26.9 Q7.95 -26.85 6.7 -25.95 5.55 -25.5 4.4 -25.05 L2.3 -24.35 Q-1.15 -23.15 -4.55 -21.95 L-5.9 -21.8 -6.0 -21.8 Q-6.95 -22.55 -8.4 -22.05 L-10.75 -21.25 -13.9 -20.0 Q-15.55 -19.3 -17.15 -18.65 L-19.9 -17.4" fill="#ffffff" fill-rule="evenodd" stroke="none">
      <animate attributeName="fill" dur="2s" repeatCount="indefinite" values="#ffffff;#ffffff"/>
      <animate attributeName="fill-opacity" dur="2s" repeatCount="indefinite" values="1.0;0.5019608"/>
      <animate attributeName="d" dur="2s" repeatCount="indefinite" values="M-19.9 -17.4 L-19.9 -17.4 -19.9 -17.2 -19.6 -16.75 -17.85 -17.4 -17.2 -17.55 -16.15 -17.75 Q-10.4 -17.8 -9.95 -15.75 L-9.95 -15.1 -10.1 -14.55 Q-8.8 -15.3 -7.15 -15.85 -3.25 -15.95 -1.75 -14.9 L-1.45 -14.95 -1.15 -15.0 0.2 -15.05 Q3.55 -15.15 5.0 -13.95 L5.95 -12.6 6.0 -12.45 6.55 -12.4 6.9 -12.9 7.4 -13.4 7.7 -13.7 Q7.5 -12.95 7.7 -12.25 L13.4 -11.2 13.45 -12.5 13.35 -13.0 13.8 -13.45 Q13.55 -12.3 14.25 -11.05 L16.4 -10.5 16.55 -10.75 16.6 -10.85 16.65 -10.8 16.65 -10.7 16.6 -10.45 17.65 -10.15 17.8 -10.1 Q18.4 -11.25 20.0 -12.25 L20.1 -12.25 20.6 -12.35 21.35 -12.55 21.35 -12.6 Q22.7 -12.55 24.05 -12.5 25.1 -12.25 26.15 -12.0 L26.35 -12.1 Q23.7 -12.35 22.85 -14.3 L22.7 -14.85 Q22.65 -15.4 22.95 -15.85 23.4 -16.6 24.6 -17.15 L25.1 -17.2 25.45 -17.3 25.85 -17.45 25.85 -17.45 27.2 -17.45 27.4 -17.45 27.0 -17.9 Q26.55 -18.3 26.15 -18.7 25.8 -19.0 25.45 -19.25 L24.6 -19.8 Q24.2 -20.05 23.8 -20.25 22.9 -20.65 22.0 -21.05 21.1 -21.5 20.2 -21.95 L18.8 -22.65 Q16.9 -23.6 15.05 -24.5 14.65 -26.35 11.6 -26.85 L11.3 -26.85 10.8 -26.9 9.95 -26.9 9.7 -26.9 Q7.95 -26.85 6.7 -25.95 5.55 -25.5 4.4 -25.05 L2.3 -24.35 Q-1.15 -23.15 -4.55 -21.95 L-5.9 -21.8 -6.0 -21.8 Q-6.95 -22.55 -8.4 -22.05 L-10.75 -21.25 -13.9 -20.0 Q-15.55 -19.3 -17.15 -18.65 L-19.9 -17.4;M-20.7 27.95 L-20.6 28.15 -20.5 28.35 -20.1 28.9 -19.15 30.5 -18.5 30.35 -17.3 30.05 Q-13.7 29.2 -10.5 27.6 L-9.85 27.15 -9.3 26.55 Q-7.95 25.25 -6.45 24.45 -3.85 23.05 -0.75 23.1 L-0.45 23.1 -0.05 23.15 1.05 23.4 Q3.9 24.25 6.7 24.1 L8.65 23.9 8.85 23.9 9.45 23.85 9.95 23.85 10.75 23.75 11.15 23.75 Q11.9 23.7 12.65 23.65 L18.8 23.5 20.2 23.5 20.1 23.3 19.6 22.5 Q18.85 21.15 18.1 19.85 L17.0 17.7 16.8 17.4 16.8 17.3 16.8 17.2 16.8 17.2 16.7 16.9 16.3 15.7 16.25 15.5 Q15.9 13.7 16.75 11.95 L16.75 11.95 16.3 11.5 15.8 10.75 15.75 10.65 Q15.1 9.45 15.3 7.9 15.45 6.7 16.05 5.85 L16.25 5.55 Q13.85 4.95 11.5 4.4 L10.6 4.05 Q9.95 3.8 9.8 3.1 9.5 1.75 10.15 0.75 L10.5 0.25 10.75 0.05 11.35 -0.2 11.35 -0.2 12.75 -0.45 12.65 -0.65 12.05 -1.55 Q11.7 -2.2 11.8 -2.8 11.55 -3.25 11.45 -3.75 L10.45 -3.05 Q10.4 -2.45 9.95 -1.95 9.15 -1.05 8.8 -0.1 8.45 0.95 8.7 2.0 L7.1 2.3 Q3.95 3.15 2.7 4.2 0.6 5.95 3.8 8.15 L3.95 8.45 4.45 9.1 3.8 9.75 3.75 9.95 Q1.65 10.4 0.3 11.1 -1.2 11.85 -1.75 12.9 L-4.1 13.45 Q-10.7 15.4 -9.05 18.55 L-8.2 19.7 -8.1 19.8 Q-9.45 20.35 -10.55 21.0 L-12.6 22.45 -15.65 25.05 Q-17.45 26.55 -17.45 28.2 L-20.7 27.95"/>
    </path>
    <path d="M-19.9 -17.4 L-17.15 -18.65 Q-15.55 -19.3 -13.9 -20.0 L-10.75 -21.25 -8.4 -22.05 Q-6.95 -22.55 -6.0 -21.8 L-5.9 -21.8 -4.55 -21.95 Q-1.15 -23.15 2.3 -24.35 L4.4 -25.05 Q5.55 -25.5 6.7 -25.95 7.95 -26.85 9.7 -26.9 L9.95 -26.9 10.8 -26.9 11.3 -26.85 11.6 -26.85 Q14.65 -26.35 15.05 -24.5 16.9 -23.6 18.8 -22.65 L20.2 -21.95 Q21.1 -21.5 22.0 -21.05 22.9 -20.65 23.8 -20.25 24.2 -20.05 24.6 -19.8 L25.45 -19.25 Q25.8 -19.0 26.15 -18.7 26.55 -18.3 27.0 -17.9 L27.4 -17.45 27.2 -17.45 25.85 -17.45 25.85 -17.45 25.45 -17.3 25.1 -17.2 24.6 -17.15 Q23.4 -16.6 22.95 -15.85 22.65 -15.4 22.7 -14.85 L22.85 -14.3 Q23.7 -12.35 26.35 -12.1 L26.15 -12.0 Q25.1 -12.25 24.05 -12.5 22.7 -12.55 21.35 -12.6 L21.35 -12.55 20.6 -12.35 20.1 -12.25 20.0 -12.25 Q18.4 -11.25 17.8 -10.1 L17.65 -10.15 16.6 -10.45 16.65 -10.7 16.65 -10.8 16.6 -10.85 16.55 -10.75 16.4 -10.5 14.25 -11.05 Q13.55 -12.3 13.8 -13.45 L13.35 -13.0 13.45 -12.5 13.4 -11.2 7.7 -12.25 Q7.5 -12.95 7.7 -13.7 L7.4 -13.4 6.9 -12.9 6.55 -12.4 6.0 -12.45 5.95 -12.6 5.0 -13.95 Q3.55 -15.15 0.2 -15.05 L-1.15 -15.0 -1.45 -14.95 -1.75 -14.9 Q-3.25 -15.95 -7.15 -15.85 -8.8 -15.3 -10.1 -14.55 L-9.95 -15.1 -9.95 -15.75 Q-10.4 -17.8 -16.15 -17.75 L-17.2 -17.55 -17.85 -17.4 -19.6 -16.75 -19.9 -17.2 -19.9 -17.4 -19.9 -17.4" fill="none" stroke="#000000" stroke-linecap="round" stroke-linejoin="round" stroke-opacity="0.0" stroke-width="1.0">
      <animate attributeName="stroke" dur="2s" repeatCount="indefinite" values="#000000;#000001"/>
      <animate attributeName="stroke-width" dur="2s" repeatCount="indefinite" values="0.0;0.0"/>
      <animate attributeName="fill-opacity" dur="2s" repeatCount="indefinite" values="0.0;0.0"/>
      <animate attributeName="d" dur="2s" repeatCount="indefinite" values="M-19.9 -17.4 L-17.15 -18.65 Q-15.55 -19.3 -13.9 -20.0 L-10.75 -21.25 -8.4 -22.05 Q-6.95 -22.55 -6.0 -21.8 L-5.9 -21.8 -4.55 -21.95 Q-1.15 -23.15 2.3 -24.35 L4.4 -25.05 Q5.55 -25.5 6.7 -25.95 7.95 -26.85 9.7 -26.9 L9.95 -26.9 10.8 -26.9 11.3 -26.85 11.6 -26.85 Q14.65 -26.35 15.05 -24.5 16.9 -23.6 18.8 -22.65 L20.2 -21.95 Q21.1 -21.5 22.0 -21.05 22.9 -20.65 23.8 -20.25 24.2 -20.05 24.6 -19.8 L25.45 -19.25 Q25.8 -19.0 26.15 -18.7 26.55 -18.3 27.0 -17.9 L27.4 -17.45 27.2 -17.45 25.85 -17.45 25.85 -17.45 25.45 -17.3 25.1 -17.2 24.6 -17.15 Q23.4 -16.6 22.95 -15.85 22.65 -15.4 22.7 -14.85 L22.85 -14.3 Q23.7 -12.35 26.35 -12.1 L26.15 -12.0 Q25.1 -12.25 24.05 -12.5 22.7 -12.55 21.35 -12.6 L21.35 -12.55 20.6 -12.35 20.1 -12.25 20.0 -12.25 Q18.4 -11.25 17.8 -10.1 L17.65 -10.15 16.6 -10.45 16.65 -10.7 16.65 -10.8 16.6 -10.85 16.55 -10.75 16.4 -10.5 14.25 -11.05 Q13.55 -12.3 13.8 -13.45 L13.35 -13.0 13.45 -12.5 13.4 -11.2 7.7 -12.25 Q7.5 -12.95 7.7 -13.7 L7.4 -13.4 6.9 -12.9 6.55 -12.4 6.0 -12.45 5.95 -12.6 5.0 -13.95 Q3.55 -15.15 0.2 -15.05 L-1.15 -15.0 -1.45 -14.95 -1.75 -14.9 Q-3.25 -15.95 -7.15 -15.85 -8.8 -15.3 -10.1 -14.55 L-9.95 -15.1 -9.95 -15.75 Q-10.4 -17.8 -16.15 -17.75 L-17.2 -17.55 -17.85 -17.4 -19.6 -16.75 -19.9 -17.2 -19.9 -17.4 -19.9 -17.4;M-20.7 27.95 L-17.45 28.2 Q-17.45 26.55 -15.65 25.05 L-12.6 22.45 -10.55 21.0 Q-9.45 20.35 -8.1 19.8 L-8.2 19.7 -9.05 18.55 Q-10.7 15.4 -4.1 13.45 L-1.75 12.9 Q-1.2 11.85 0.3 11.1 1.65 10.4 3.75 9.95 L3.8 9.75 4.45 9.1 3.95 8.45 3.8 8.15 Q0.6 5.95 2.7 4.2 3.95 3.15 7.1 2.3 L8.7 2.0 Q8.45 0.95 8.8 -0.1 9.15 -1.05 9.95 -1.95 10.4 -2.45 10.45 -3.05 L11.45 -3.75 Q11.55 -3.25 11.8 -2.8 11.7 -2.2 12.05 -1.55 L12.65 -0.65 12.75 -0.45 11.35 -0.2 11.35 -0.2 10.75 0.05 10.5 0.25 10.15 0.75 Q9.5 1.75 9.8 3.1 9.95 3.8 10.6 4.05 L11.5 4.4 Q13.85 4.95 16.25 5.55 L16.05 5.85 Q15.45 6.7 15.3 7.9 15.1 9.45 15.75 10.65 L15.8 10.75 16.3 11.5 16.75 11.95 16.75 11.95 Q15.9 13.7 16.25 15.5 L16.3 15.7 16.7 16.9 16.8 17.2 16.8 17.2 16.8 17.3 16.8 17.4 17.0 17.7 18.1 19.85 Q18.85 21.15 19.6 22.5 L20.1 23.3 20.2 23.5 18.8 23.5 12.65 23.65 Q11.9 23.7 11.15 23.75 L10.75 23.75 9.95 23.85 9.45 23.85 8.85 23.9 8.65 23.9 6.7 24.1 Q3.9 24.25 1.05 23.4 L-0.05 23.15 -0.45 23.1 -0.75 23.1 Q-3.85 23.05 -6.45 24.45 -7.95 25.25 -9.3 26.55 L-9.85 27.15 -10.5 27.6 Q-13.7 29.2 -17.3 30.05 L-18.5 30.35 -19.15 30.5 -20.1 28.9 -20.5 28.35 -20.6 28.15 -20.7 27.95"/>
    </path>
  </g>
</svg>
