<?xml version="1.0" encoding="UTF-8" standalone="no"?>
<svg xmlns:xlink="http://www.w3.org/1999/xlink" height="271.2px" width="129.9px" xmlns="http://www.w3.org/2000/svg">
  <g transform="matrix(1.0, 0.0, 0.0, 1.0, 61.95, 29.4)">
    <path d="M-58.7 95.9 L-58.7 95.9 Q-58.7 98.0 -58.7 100.1 -58.25 102.45 -57.85 104.8 L-56.95 107.5 -56.45 108.7 -56.3 109.1 -54.2 114.35 Q-53.35 116.45 -53.2 118.9 L-53.2 121.5 Q-53.25 124.4 -52.45 127.05 L-51.25 130.0 -50.05 132.05 Q-49.3 131.05 -48.25 130.5 L-47.75 130.25 Q-42.75 129.85 -41.75 134.35 L-41.6 135.15 -41.5 135.5 -40.75 136.2 -39.4 137.55 -39.3 137.65 -38.4 138.85 -36.35 139.0 -34.75 139.1 Q-33.9 145.45 -33.1 151.75 L-32.95 153.15 Q-32.9 154.35 -33.0 155.55 L-33.6 160.45 Q-33.95 162.05 -34.25 163.65 -35.25 168.2 -36.95 172.6 L-38.0 175.95 -38.2 176.65 -37.65 177.1 -36.45 178.45 -35.5 179.9 Q-31.65 186.4 -32.75 193.8 L-33.2 195.3 -34.3 196.8 -36.05 198.8 Q-41.0 205.3 -36.7 213.0 -36.25 213.75 -36.1 214.5 -35.8 215.7 -36.1 216.75 -36.45 218.1 -37.7 219.3 -40.1 219.9 -41.85 219.35 L-43.2 218.7 -42.45 224.6 -41.75 225.75 -39.25 227.35 -38.55 227.65 -37.8 228.0 Q-36.55 228.45 -35.3 228.85 L-33.3 229.3 Q-30.85 231.25 -27.9 232.55 -26.4 233.3 -25.05 234.35 -22.75 236.3 -20.5 238.25 L-19.2 239.4 Q-17.9 240.65 -16.0 241.15 L-10.5 241.8 -8.05 241.6 -5.55 241.35 -5.15 241.35 -4.0 241.35 -0.1 241.35 -0.6 241.35 -0.25 241.1 7.95 236.6 10.95 235.2 Q14.3 233.75 17.85 232.9 20.75 232.45 23.65 232.05 L28.75 232.3 30.55 232.5 40.0 233.2 42.3 232.85 44.9 232.2 49.9 231.65 Q47.7 226.55 46.95 221.05 46.55 218.0 46.55 214.85 L46.6 212.55 47.0 204.85 Q47.05 203.35 47.1 201.85 L47.3 198.1 Q47.55 192.85 47.75 187.65 L47.55 185.75 47.55 185.65 46.95 184.15 Q44.45 183.15 42.4 181.75 39.8 180.0 37.85 177.7 37.35 177.05 37.25 176.15 L37.25 175.85 Q37.25 172.55 37.7 169.4 38.3 165.05 39.7 160.95 40.75 157.9 42.25 155.0 44.15 151.3 46.8 147.85 46.7 143.4 46.9 139.0 47.2 133.65 47.9 128.35 L47.9 128.35 Q48.05 127.6 48.75 127.0 51.65 124.8 54.55 122.65 L58.35 120.35 Q59.15 117.1 59.9 113.85 L60.35 111.45 Q60.75 108.5 61.15 105.55 L61.35 102.95 61.5 100.35 61.75 96.65 62.45 91.5 62.8 89.1 63.15 86.25 63.25 85.25 Q62.15 82.45 61.4 79.55 60.55 76.25 60.65 73.0 L60.75 71.05 Q60.15 69.5 59.9 67.85 59.45 65.15 59.85 62.3 60.0 61.15 60.3 59.95 L59.1 56.55 Q57.25 51.6 55.75 46.65 L55.6 46.0 55.95 46.5 53.65 43.15 Q52.45 41.5 51.85 39.5 51.1 36.9 51.45 34.65 51.7 33.3 52.35 32.1 51.25 29.55 49.5 27.3 L49.4 27.2 Q48.25 25.8 47.1 24.4 L46.35 23.6 Q43.0 19.6 41.45 14.6 40.9 13.25 40.35 11.9 L39.5 10.25 Q37.8 7.45 36.55 4.4 36.15 3.45 35.15 3.1 L34.65 3.0 Q31.0 2.0 28.15 -0.15 26.35 -1.55 24.9 -3.45 L24.4 -4.1 23.0 -6.3 22.3 -7.5 21.6 -8.9 21.4 -9.2 Q20.05 -11.9 18.95 -14.65 18.25 -16.5 18.2 -18.35 L18.05 -19.4 17.75 -20.4 Q16.15 -24.1 12.05 -25.05 L10.85 -25.65 7.65 -27.2 6.35 -28.8 4.6 -27.6 1.85 -27.45 -1.35 -24.45 -1.35 -24.45 Q-3.35 -24.4 -4.2 -26.1 L-4.55 -26.8 -4.65 -27.05 -4.75 -26.6 Q-5.0 -25.1 -5.65 -23.9 -6.05 -23.3 -6.45 -22.75 L-8.05 -21.15 Q-8.05 -19.8 -8.95 -18.6 L-9.65 -17.8 -9.85 -17.6 Q-11.45 -16.15 -13.2 -15.8 L-13.4 -15.5 Q-15.5 -12.55 -17.95 -9.75 L-17.8 -10.45 -18.2 -9.0 -19.4 -5.55 Q-19.8 -4.65 -20.15 -3.75 L-20.75 -2.55 Q-21.55 -1.0 -22.3 0.55 -23.5 2.9 -24.7 5.25 L-24.8 5.45 -26.85 5.3 Q-28.1 8.45 -28.95 11.8 L-29.4 13.6 -29.4 13.75 Q-29.75 14.85 -30.1 15.95 L-30.3 16.45 Q-31.35 19.1 -33.3 21.15 L-33.5 21.25 Q-34.85 22.05 -36.15 22.8 -39.8 24.9 -43.7 26.65 L-46.3 27.8 -46.05 29.8 -45.65 32.2 Q-45.5 33.1 -45.6 34.05 L-44.75 36.15 Q-43.55 39.3 -43.0 42.5 -41.65 50.0 -43.7 58.05 L-43.9 58.75 Q-44.95 62.5 -47.7 60.1 -48.25 62.65 -49.1 65.25 L-49.3 65.95 Q-52.35 74.95 -55.4 83.95 L-55.7 84.75 -56.7 87.7 -57.5 90.0 Q-58.5 92.85 -58.7 95.9" fill="#6699ff" fill-rule="evenodd" stroke="none">
      <animate attributeName="fill" dur="2s" repeatCount="indefinite" values="#6699ff;#6699ff"/>
      <animate attributeName="fill-opacity" dur="2s" repeatCount="indefinite" values="1.0;1.0"/>
      <animate attributeName="d" dur="2s" repeatCount="indefinite" values="M-58.7 95.9 L-58.7 95.9 Q-58.7 98.0 -58.7 100.1 -58.25 102.45 -57.85 104.8 L-56.95 107.5 -56.45 108.7 -56.3 109.1 -54.2 114.35 Q-53.35 116.45 -53.2 118.9 L-53.2 121.5 Q-53.25 124.4 -52.45 127.05 L-51.25 130.0 -50.05 132.05 Q-49.3 131.05 -48.25 130.5 L-47.75 130.25 Q-42.75 129.85 -41.75 134.35 L-41.6 135.15 -41.5 135.5 -40.75 136.2 -39.4 137.55 -39.3 137.65 -38.4 138.85 -36.35 139.0 -34.75 139.1 Q-33.9 145.45 -33.1 151.75 L-32.95 153.15 Q-32.9 154.35 -33.0 155.55 L-33.6 160.45 Q-33.95 162.05 -34.25 163.65 -35.25 168.2 -36.95 172.6 L-38.0 175.95 -38.2 176.65 -37.65 177.1 -36.45 178.45 -35.5 179.9 Q-31.65 186.4 -32.75 193.8 L-33.2 195.3 -34.3 196.8 -36.05 198.8 Q-41.0 205.3 -36.7 213.0 -36.25 213.75 -36.1 214.5 -35.8 215.7 -36.1 216.75 -36.45 218.1 -37.7 219.3 -40.1 219.9 -41.85 219.35 L-43.2 218.7 -42.45 224.6 -41.75 225.75 -39.25 227.35 -38.55 227.65 -37.8 228.0 Q-36.55 228.45 -35.3 228.85 L-33.3 229.3 Q-30.85 231.25 -27.9 232.55 -26.4 233.3 -25.05 234.35 -22.75 236.3 -20.5 238.25 L-19.2 239.4 Q-17.9 240.65 -16.0 241.15 L-10.5 241.8 -8.05 241.6 -5.55 241.35 -5.15 241.35 -4.0 241.35 -0.1 241.35 -0.6 241.35 -0.25 241.1 7.95 236.6 10.95 235.2 Q14.3 233.75 17.85 232.9 20.75 232.45 23.65 232.05 L28.75 232.3 30.55 232.5 40.0 233.2 42.3 232.85 44.9 232.2 49.9 231.65 Q47.7 226.55 46.95 221.05 46.55 218.0 46.55 214.85 L46.6 212.55 47.0 204.85 Q47.05 203.35 47.1 201.85 L47.3 198.1 Q47.55 192.85 47.75 187.65 L47.55 185.75 47.55 185.65 46.95 184.15 Q44.45 183.15 42.4 181.75 39.8 180.0 37.85 177.7 37.35 177.05 37.25 176.15 L37.25 175.85 Q37.25 172.55 37.7 169.4 38.3 165.05 39.7 160.95 40.75 157.9 42.25 155.0 44.15 151.3 46.8 147.85 46.7 143.4 46.9 139.0 47.2 133.65 47.9 128.35 L47.9 128.35 Q48.05 127.6 48.75 127.0 51.65 124.8 54.55 122.65 L58.35 120.35 Q59.15 117.1 59.9 113.85 L60.35 111.45 Q60.75 108.5 61.15 105.55 L61.35 102.95 61.5 100.35 61.75 96.65 62.45 91.5 62.8 89.1 63.15 86.25 63.25 85.25 Q62.15 82.45 61.4 79.55 60.55 76.25 60.65 73.0 L60.75 71.05 Q60.15 69.5 59.9 67.85 59.45 65.15 59.85 62.3 60.0 61.15 60.3 59.95 L59.1 56.55 Q57.25 51.6 55.75 46.65 L55.6 46.0 55.95 46.5 53.65 43.15 Q52.45 41.5 51.85 39.5 51.1 36.9 51.45 34.65 51.7 33.3 52.35 32.1 51.25 29.55 49.5 27.3 L49.4 27.2 Q48.25 25.8 47.1 24.4 L46.35 23.6 Q43.0 19.6 41.45 14.6 40.9 13.25 40.35 11.9 L39.5 10.25 Q37.8 7.45 36.55 4.4 36.15 3.45 35.15 3.1 L34.65 3.0 Q31.0 2.0 28.15 -0.15 26.35 -1.55 24.9 -3.45 L24.4 -4.1 23.0 -6.3 22.3 -7.5 21.6 -8.9 21.4 -9.2 Q20.05 -11.9 18.95 -14.65 18.25 -16.5 18.2 -18.35 L18.05 -19.4 17.75 -20.4 Q16.15 -24.1 12.05 -25.05 L10.85 -25.65 7.65 -27.2 6.35 -28.8 4.6 -27.6 1.85 -27.45 -1.35 -24.45 -1.35 -24.45 Q-3.35 -24.4 -4.2 -26.1 L-4.55 -26.8 -4.65 -27.05 -4.75 -26.6 Q-5.0 -25.1 -5.65 -23.9 -6.05 -23.3 -6.45 -22.75 L-8.05 -21.15 Q-8.05 -19.8 -8.95 -18.6 L-9.65 -17.8 -9.85 -17.6 Q-11.45 -16.15 -13.2 -15.8 L-13.4 -15.5 Q-15.5 -12.55 -17.95 -9.75 L-17.8 -10.45 -18.2 -9.0 -19.4 -5.55 Q-19.8 -4.65 -20.15 -3.75 L-20.75 -2.55 Q-21.55 -1.0 -22.3 0.55 -23.5 2.9 -24.7 5.25 L-24.8 5.45 -26.85 5.3 Q-28.1 8.45 -28.95 11.8 L-29.4 13.6 -29.4 13.75 Q-29.75 14.85 -30.1 15.95 L-30.3 16.45 Q-31.35 19.1 -33.3 21.15 L-33.5 21.25 Q-34.85 22.05 -36.15 22.8 -39.8 24.9 -43.7 26.65 L-46.3 27.8 -46.05 29.8 -45.65 32.2 Q-45.5 33.1 -45.6 34.05 L-44.75 36.15 Q-43.55 39.3 -43.0 42.5 -41.65 50.0 -43.7 58.05 L-43.9 58.75 Q-44.95 62.5 -47.7 60.1 -48.25 62.65 -49.1 65.25 L-49.3 65.95 Q-52.35 74.95 -55.4 83.95 L-55.7 84.75 -56.7 87.7 -57.5 90.0 Q-58.5 92.85 -58.7 95.9;M-61.7 88.85 L-61.95 90.2 Q-62.15 92.45 -60.4 94.05 -58.6 95.75 -56.25 95.85 L-55.45 98.7 -55.05 100.1 -54.95 100.45 -53.5 106.1 Q-53.0 108.35 -52.55 110.6 L-52.05 113.25 Q-51.6 116.0 -51.2 118.75 L-50.7 122.05 -50.4 124.55 Q-50.2 125.8 -50.0 127.05 L-49.9 127.65 Q-49.15 131.9 -46.0 134.5 L-45.05 134.5 -44.75 134.5 -44.05 134.5 -42.25 133.25 -42.05 133.2 -42.2 134.8 -41.95 136.75 -42.3 138.2 Q-43.5 144.6 -38.5 149.65 L-37.5 150.6 Q-36.55 151.45 -35.6 152.3 L-31.9 155.5 Q-30.6 156.65 -30.25 158.3 -29.1 162.9 -29.75 167.55 L-30.45 170.95 -30.65 171.65 -30.75 172.15 -31.1 173.95 -31.25 175.6 Q-31.95 182.85 -34.3 189.75 L-34.75 191.05 -35.45 192.75 -36.55 195.25 Q-39.75 202.15 -41.8 209.45 -42.0 210.2 -42.2 210.95 -42.55 212.15 -42.9 213.3 -42.1 214.55 -41.45 215.95 -40.65 217.7 -40.05 219.7 L-39.65 220.9 -37.85 226.75 -37.45 228.15 -36.65 230.85 -36.35 231.85 -35.5 231.9 Q-34.25 232.0 -33.1 232.6 L-31.15 233.55 Q-27.65 234.95 -24.5 234.8 -22.95 234.5 -21.4 234.2 -18.75 233.3 -16.4 231.1 L-14.7 231.65 Q-13.05 231.95 -11.4 232.25 L-6.05 231.8 -3.7 231.05 -1.65 229.8 -1.2 229.5 -0.1 228.85 3.75 229.4 4.25 229.5 4.85 229.6 14.25 230.1 17.4 230.0 Q19.75 233.05 22.9 234.75 25.35 236.05 28.3 236.55 L33.45 237.35 35.15 237.55 44.7 237.8 47.0 237.55 49.6 237.15 50.9 232.4 Q52.5 227.05 54.8 222.05 53.4 219.5 52.35 216.75 L51.55 214.6 48.4 207.3 Q47.7 205.85 48.5 204.4 L49.85 200.85 Q51.4 194.9 48.6 190.7 L47.45 189.25 47.4 189.15 47.85 187.65 Q48.6 185.3 49.8 182.95 51.25 180.15 51.75 177.1 51.9 176.25 52.0 175.4 L52.0 175.1 Q52.25 171.65 49.5 169.4 45.85 166.35 44.95 162.3 47.7 161.25 48.65 157.3 49.6 153.2 50.55 149.15 51.45 144.75 52.35 140.4 53.4 135.1 55.8 130.2 L55.8 130.2 Q56.1 129.55 56.4 128.9 57.95 125.3 57.8 122.0 L60.7 118.75 Q62.6 115.95 63.1 112.5 L63.25 110.15 Q63.3 107.1 62.85 104.15 L62.35 101.55 61.85 99.05 61.45 95.35 61.0 90.25 60.8 87.85 62.55 85.95 63.1 85.25 Q65.0 82.7 66.2 79.95 67.45 76.9 67.8 73.55 L67.95 71.65 Q67.9 69.9 67.85 68.2 67.5 65.4 67.2 62.65 67.0 61.5 66.8 60.4 L66.0 56.95 Q64.75 51.65 62.85 46.7 L62.55 46.0 62.35 45.4 60.65 41.65 Q59.75 39.85 58.85 38.05 57.6 35.85 56.4 33.7 55.65 32.65 54.9 31.65 52.95 29.3 50.4 28.25 L50.2 28.15 Q49.55 26.5 49.45 24.8 L49.4 23.6 Q49.5 17.35 44.55 15.05 43.35 14.45 41.85 14.1 L40.7 12.8 Q38.3 10.45 35.1 9.6 33.95 9.35 32.8 9.15 L32.0 9.05 Q28.9 7.4 25.25 8.1 24.55 5.8 24.3 3.45 L24.2 2.65 23.65 -0.25 23.7 -1.5 23.75 -3.0 23.75 -3.0 Q23.8 -6.55 22.3 -9.15 21.4 -10.75 19.9 -12.0 L19.05 -12.65 19.3 -13.45 Q20.55 -17.2 18.95 -20.85 L18.4 -22.05 16.45 -24.9 14.9 -26.4 13.1 -27.6 10.6 -28.65 6.25 -29.4 6.15 -29.4 Q4.1 -29.2 2.95 -27.9 L2.5 -27.35 2.4 -27.45 1.9 -27.9 Q0.8 -28.65 -1.0 -28.45 -1.55 -28.2 -2.25 -27.85 L-4.1 -26.85 Q-5.25 -26.05 -6.4 -25.3 L-7.45 -24.5 -7.55 -24.4 Q-8.85 -22.95 -10.1 -21.5 L-10.3 -21.2 Q-12.4 -18.05 -13.6 -14.55 L-13.85 -13.75 -14.2 -12.35 -14.85 -8.6 Q-15.0 -7.45 -14.35 -6.5 L-13.65 -5.4 Q-12.7 -3.75 -12.45 -2.05 -14.55 -0.35 -16.15 1.9 L-16.25 2.0 -17.35 3.75 Q-19.1 6.55 -20.25 9.6 L-22.2 9.6 -22.4 9.6 Q-23.35 10.15 -24.55 10.3 L-25.15 10.4 Q-28.05 10.8 -30.9 11.15 L-31.1 11.15 Q-32.55 11.35 -33.8 12.0 -37.6 13.9 -40.2 17.3 L-41.8 19.5 -42.95 21.0 -44.65 23.0 Q-45.35 23.6 -46.0 24.2 L-47.8 25.5 Q-50.7 27.25 -52.25 30.2 -55.95 37.25 -56.15 45.45 L-56.15 46.25 Q-56.25 48.95 -56.3 51.6 -56.35 54.2 -56.4 56.8 L-56.4 57.9 Q-56.7 67.35 -58.5 76.55 L-58.65 77.3 -59.4 80.45 -60.1 83.05 Q-60.9 85.95 -61.7 88.85"/>
    </path>
    <path d="M14.2 240.15 L14.3 240.15 Q14.35 240.1 14.4 240.05 L14.6 240.05 Q15.05 239.75 15.5 239.45 L15.7 239.35 15.7 239.35 16.1 239.25 Q16.95 239.15 17.75 239.05 17.8 239.05 17.85 239.05 18.65 238.95 19.45 238.9 20.0 238.9 20.55 238.9 20.7 238.9 20.85 238.9 20.95 238.9 21.05 238.9 20.85 239.0 20.65 239.05 20.55 239.05 20.45 239.05 L19.95 239.15 Q19.4 239.25 18.9 239.35 18.75 239.4 18.6 239.45 18.4 239.45 18.2 239.45 17.9 239.5 17.6 239.55 L17.1 239.65 Q16.45 239.75 15.8 239.85 15.5 239.9 15.2 239.95 14.7 240.05 14.2 240.15" fill="#6699ff" fill-rule="evenodd" stroke="none">
      <animate attributeName="fill" dur="2s" repeatCount="indefinite" values="#6699ff;#00ccff"/>
      <animate attributeName="fill-opacity" dur="2s" repeatCount="indefinite" values="1.0;1.0"/>
      <animate attributeName="d" dur="2s" repeatCount="indefinite" values="M14.2 240.15 L14.3 240.15 Q14.35 240.1 14.4 240.05 L14.6 240.05 Q15.05 239.75 15.5 239.45 L15.7 239.35 15.7 239.35 16.1 239.25 Q16.95 239.15 17.75 239.05 17.8 239.05 17.85 239.05 18.65 238.95 19.45 238.9 20.0 238.9 20.55 238.9 20.7 238.9 20.85 238.9 20.95 238.9 21.05 238.9 20.85 239.0 20.65 239.05 20.55 239.05 20.45 239.05 L19.95 239.15 Q19.4 239.25 18.9 239.35 18.75 239.4 18.6 239.45 18.4 239.45 18.2 239.45 17.9 239.5 17.6 239.55 L17.1 239.65 Q16.45 239.75 15.8 239.85 15.5 239.9 15.2 239.95 14.7 240.05 14.2 240.15;M-55.7 122.65 L-55.7 122.65 Q-55.95 124.1 -55.2 125.25 L-53.7 127.55 Q-50.3 132.6 -46.4 137.4 L-45.65 139.9 -45.25 140.7 -43.25 144.35 Q-36.3 153.9 -34.35 165.7 -34.15 166.75 -34.25 167.75 -35.35 179.3 -34.75 191.05 -32.0 183.55 -31.25 175.6 -31.05 173.25 -30.45 170.95 -29.9 169.05 -29.65 167.15 -29.15 162.65 -30.25 158.3 -30.6 156.65 -31.9 155.5 L-37.5 150.6 Q-44.25 144.65 -41.95 136.75 -42.4 134.95 -42.25 133.25 -43.15 134.0 -46.0 134.5 -49.35 131.75 -50.0 127.05 L-51.2 118.75 Q-52.45 109.5 -55.05 100.1 -55.85 103.7 -55.35 107.85 -54.4 115.3 -55.7 122.65"/>
    </path>
    <path d="M-58.7 95.9 Q-58.5 92.85 -57.5 90.0 L-56.7 87.7 -55.7 84.75 -55.4 83.95 Q-52.35 74.95 -49.3 65.95 L-49.1 65.25 Q-48.25 62.65 -47.7 60.1 -44.95 62.5 -43.9 58.75 L-43.7 58.05 Q-41.65 50.0 -43.0 42.5 -43.55 39.3 -44.75 36.15 L-45.6 34.05 Q-45.5 33.1 -45.65 32.2 L-46.05 29.8 -46.3 27.8 -43.7 26.65 Q-39.8 24.9 -36.15 22.8 -34.85 22.05 -33.5 21.25 L-33.3 21.15 Q-31.35 19.1 -30.3 16.45 L-30.1 15.95 Q-29.75 14.85 -29.4 13.75 L-29.4 13.6 -28.95 11.8 Q-28.1 8.45 -26.85 5.3 L-24.8 5.45 -24.7 5.25 Q-23.5 2.9 -22.3 0.55 -21.55 -1.0 -20.75 -2.55 L-20.15 -3.75 Q-19.8 -4.65 -19.4 -5.55 L-18.2 -9.0 -17.8 -10.45 -17.95 -9.75 Q-15.5 -12.55 -13.4 -15.5 L-13.2 -15.8 Q-11.45 -16.15 -9.85 -17.6 L-9.65 -17.8 -8.95 -18.6 Q-8.05 -19.8 -8.05 -21.15 L-6.45 -22.75 Q-6.05 -23.3 -5.65 -23.9 -5.0 -25.1 -4.75 -26.6 L-4.65 -27.05 -4.55 -26.8 -4.2 -26.1 Q-3.35 -24.4 -1.35 -24.45 L-1.35 -24.45 1.85 -27.45 4.6 -27.6 6.35 -28.8 7.65 -27.2 10.85 -25.65 12.05 -25.05 Q16.15 -24.1 17.75 -20.4 L18.05 -19.4 18.2 -18.35 Q18.25 -16.5 18.95 -14.65 20.05 -11.9 21.4 -9.2 L21.6 -8.9 22.3 -7.5 23.0 -6.3 24.4 -4.1 24.9 -3.45 Q26.35 -1.55 28.15 -0.15 31.0 2.0 34.65 3.0 L35.15 3.1 Q36.15 3.45 36.55 4.4 37.8 7.45 39.5 10.25 L40.35 11.9 Q40.9 13.25 41.45 14.6 43.0 19.6 46.35 23.6 L47.1 24.4 Q48.25 25.8 49.4 27.2 L49.5 27.3 Q51.25 29.55 52.35 32.1 51.7 33.3 51.45 34.65 51.1 36.9 51.85 39.5 52.45 41.5 53.65 43.15 L55.95 46.5 55.6 46.0 55.75 46.65 Q57.25 51.6 59.1 56.55 L60.3 59.95 Q60.0 61.15 59.85 62.3 59.45 65.15 59.9 67.85 60.15 69.5 60.75 71.05 L60.65 73.0 Q60.55 76.25 61.4 79.55 62.15 82.45 63.25 85.25 L63.15 86.25 62.8 89.1 62.45 91.5 61.75 96.65 61.5 100.35 61.35 102.95 61.15 105.55 Q60.75 108.5 60.35 111.45 L59.9 113.85 Q59.15 117.1 58.35 120.35 L54.55 122.65 Q51.65 124.8 48.75 127.0 48.05 127.6 47.9 128.35 L47.9 128.35 Q47.2 133.65 46.9 139.0 46.7 143.4 46.8 147.85 44.15 151.3 42.25 155.0 40.75 157.9 39.7 160.95 38.3 165.05 37.7 169.4 37.25 172.55 37.25 175.85 L37.25 176.15 Q37.35 177.05 37.85 177.7 39.8 180.0 42.4 181.75 44.45 183.15 46.95 184.15 L47.55 185.65 47.55 185.75 47.75 187.65 Q47.55 192.85 47.3 198.1 L47.1 201.85 Q47.05 203.35 47.0 204.85 L46.6 212.55 46.55 214.85 Q46.55 218.0 46.95 221.05 47.7 226.55 49.9 231.65 L44.9 232.2 42.3 232.85 40.0 233.2 30.55 232.5 28.75 232.3 23.65 232.05 Q20.75 232.45 17.85 232.9 14.3 233.75 10.95 235.2 L7.95 236.6 -0.25 241.1 -0.6 241.35 -0.1 241.35 -4.0 241.35 -5.15 241.35 -5.55 241.35 -8.05 241.6 -10.5 241.8 -16.0 241.15 Q-17.9 240.65 -19.2 239.4 L-20.5 238.25 Q-22.75 236.3 -25.05 234.35 -26.4 233.3 -27.9 232.55 -30.85 231.25 -33.3 229.3 L-35.3 228.85 Q-36.55 228.45 -37.8 228.0 L-38.55 227.65 -39.25 227.35 -41.75 225.75 -42.45 224.6 -43.2 218.7 -41.85 219.35 Q-40.1 219.9 -37.7 219.3 -36.45 218.1 -36.1 216.75 -35.8 215.7 -36.1 214.5 -36.25 213.75 -36.7 213.0 -41.0 205.3 -36.05 198.8 L-34.3 196.8 -33.2 195.3 -32.75 193.8 Q-31.65 186.4 -35.5 179.9 L-36.45 178.45 -37.65 177.1 -38.2 176.65 -38.0 175.95 -36.95 172.6 Q-35.25 168.2 -34.25 163.65 -33.95 162.05 -33.6 160.45 L-33.0 155.55 Q-32.9 154.35 -32.95 153.15 L-33.1 151.75 Q-33.9 145.45 -34.75 139.1 L-36.35 139.0 -38.4 138.85 -39.3 137.65 -39.4 137.55 -40.75 136.2 -41.5 135.5 -41.6 135.15 -41.75 134.35 Q-42.75 129.85 -47.75 130.25 L-48.25 130.5 Q-49.3 131.05 -50.05 132.05 L-51.25 130.0 -52.45 127.05 Q-53.25 124.4 -53.2 121.5 L-53.2 118.9 Q-53.35 116.45 -54.2 114.35 L-56.3 109.1 -56.45 108.7 -56.95 107.5 -57.85 104.8 Q-58.25 102.45 -58.7 100.1 -58.7 98.0 -58.7 95.9 L-58.7 95.9 M14.2 240.15 Q14.7 240.05 15.2 239.95 15.5 239.9 15.8 239.85 16.45 239.75 17.1 239.65 L17.6 239.55 Q17.9 239.5 18.2 239.45 18.4 239.45 18.6 239.45 18.75 239.4 18.9 239.35 19.4 239.25 19.95 239.15 L20.45 239.05 Q20.55 239.05 20.65 239.05 20.85 239.0 21.05 238.9 20.95 238.9 20.85 238.9 20.7 238.9 20.55 238.9 20.0 238.9 19.45 238.9 18.65 238.95 17.85 239.05 17.8 239.05 17.75 239.05 16.95 239.15 16.1 239.25 L15.7 239.35 15.7 239.35 15.5 239.45 Q15.05 239.75 14.6 240.05 L14.4 240.05 Q14.35 240.1 14.3 240.15 L14.2 240.15 Q14.7 240.05 15.2 239.95 15.5 239.9 15.8 239.85 16.45 239.75 17.1 239.65 L17.6 239.55 Q17.9 239.5 18.2 239.45 18.4 239.45 18.6 239.45 18.75 239.4 18.9 239.35 19.4 239.25 19.95 239.15 L20.45 239.05 Q20.55 239.05 20.65 239.05 20.85 239.0 21.05 238.9 20.95 238.9 20.85 238.9 20.7 238.9 20.55 238.9 20.0 238.9 19.45 238.9 18.65 238.95 17.85 239.05 17.8 239.05 17.75 239.05 16.95 239.15 16.1 239.25 L15.7 239.35 15.7 239.35 15.5 239.45 Q15.05 239.75 14.6 240.05 L14.4 240.05 Q14.35 240.1 14.3 240.15 L14.2 240.15" fill="none" stroke="#000000" stroke-linecap="round" stroke-linejoin="round" stroke-opacity="0.0" stroke-width="1.0">
      <animate attributeName="stroke" dur="2s" repeatCount="indefinite" values="#000000;#000001"/>
      <animate attributeName="stroke-width" dur="2s" repeatCount="indefinite" values="0.0;0.0"/>
      <animate attributeName="fill-opacity" dur="2s" repeatCount="indefinite" values="0.0;0.0"/>
      <animate attributeName="d" dur="2s" repeatCount="indefinite" values="M-58.7 95.9 Q-58.5 92.85 -57.5 90.0 L-56.7 87.7 -55.7 84.75 -55.4 83.95 Q-52.35 74.95 -49.3 65.95 L-49.1 65.25 Q-48.25 62.65 -47.7 60.1 -44.95 62.5 -43.9 58.75 L-43.7 58.05 Q-41.65 50.0 -43.0 42.5 -43.55 39.3 -44.75 36.15 L-45.6 34.05 Q-45.5 33.1 -45.65 32.2 L-46.05 29.8 -46.3 27.8 -43.7 26.65 Q-39.8 24.9 -36.15 22.8 -34.85 22.05 -33.5 21.25 L-33.3 21.15 Q-31.35 19.1 -30.3 16.45 L-30.1 15.95 Q-29.75 14.85 -29.4 13.75 L-29.4 13.6 -28.95 11.8 Q-28.1 8.45 -26.85 5.3 L-24.8 5.45 -24.7 5.25 Q-23.5 2.9 -22.3 0.55 -21.55 -1.0 -20.75 -2.55 L-20.15 -3.75 Q-19.8 -4.65 -19.4 -5.55 L-18.2 -9.0 -17.8 -10.45 -17.95 -9.75 Q-15.5 -12.55 -13.4 -15.5 L-13.2 -15.8 Q-11.45 -16.15 -9.85 -17.6 L-9.65 -17.8 -8.95 -18.6 Q-8.05 -19.8 -8.05 -21.15 L-6.45 -22.75 Q-6.05 -23.3 -5.65 -23.9 -5.0 -25.1 -4.75 -26.6 L-4.65 -27.05 -4.55 -26.8 -4.2 -26.1 Q-3.35 -24.4 -1.35 -24.45 L-1.35 -24.45 1.85 -27.45 4.6 -27.6 6.35 -28.8 7.65 -27.2 10.85 -25.65 12.05 -25.05 Q16.15 -24.1 17.75 -20.4 L18.05 -19.4 18.2 -18.35 Q18.25 -16.5 18.95 -14.65 20.05 -11.9 21.4 -9.2 L21.6 -8.9 22.3 -7.5 23.0 -6.3 24.4 -4.1 24.9 -3.45 Q26.35 -1.55 28.15 -0.15 31.0 2.0 34.65 3.0 L35.15 3.1 Q36.15 3.45 36.55 4.4 37.8 7.45 39.5 10.25 L40.35 11.9 Q40.9 13.25 41.45 14.6 43.0 19.6 46.35 23.6 L47.1 24.4 Q48.25 25.8 49.4 27.2 L49.5 27.3 Q51.25 29.55 52.35 32.1 51.7 33.3 51.45 34.65 51.1 36.9 51.85 39.5 52.45 41.5 53.65 43.15 L55.95 46.5 55.6 46.0 55.75 46.65 Q57.25 51.6 59.1 56.55 L60.3 59.95 Q60.0 61.15 59.85 62.3 59.45 65.15 59.9 67.85 60.15 69.5 60.75 71.05 L60.65 73.0 Q60.55 76.25 61.4 79.55 62.15 82.45 63.25 85.25 L63.15 86.25 62.8 89.1 62.45 91.5 61.75 96.65 61.5 100.35 61.35 102.95 61.15 105.55 Q60.75 108.5 60.35 111.45 L59.9 113.85 Q59.15 117.1 58.35 120.35 L54.55 122.65 Q51.65 124.8 48.75 127.0 48.05 127.6 47.9 128.35 L47.9 128.35 Q47.2 133.65 46.9 139.0 46.7 143.4 46.8 147.85 44.15 151.3 42.25 155.0 40.75 157.9 39.7 160.95 38.3 165.05 37.7 169.4 37.25 172.55 37.25 175.85 L37.25 176.15 Q37.35 177.05 37.85 177.7 39.8 180.0 42.4 181.75 44.45 183.15 46.95 184.15 L47.55 185.65 47.55 185.75 47.75 187.65 Q47.55 192.85 47.3 198.1 L47.1 201.85 Q47.05 203.35 47.0 204.85 L46.6 212.55 46.55 214.85 Q46.55 218.0 46.95 221.05 47.7 226.55 49.9 231.65 L44.9 232.2 42.3 232.85 40.0 233.2 30.55 232.5 28.75 232.3 23.65 232.05 Q20.75 232.45 17.85 232.9 14.3 233.75 10.95 235.2 L7.95 236.6 -0.25 241.1 -0.6 241.35 -0.1 241.35 -4.0 241.35 -5.15 241.35 -5.55 241.35 -8.05 241.6 -10.5 241.8 -16.0 241.15 Q-17.9 240.65 -19.2 239.4 L-20.5 238.25 Q-22.75 236.3 -25.05 234.35 -26.4 233.3 -27.9 232.55 -30.85 231.25 -33.3 229.3 L-35.3 228.85 Q-36.55 228.45 -37.8 228.0 L-38.55 227.65 -39.25 227.35 -41.75 225.75 -42.45 224.6 -43.2 218.7 -41.85 219.35 Q-40.1 219.9 -37.7 219.3 -36.45 218.1 -36.1 216.75 -35.8 215.7 -36.1 214.5 -36.25 213.75 -36.7 213.0 -41.0 205.3 -36.05 198.8 L-34.3 196.8 -33.2 195.3 -32.75 193.8 Q-31.65 186.4 -35.5 179.9 L-36.45 178.45 -37.65 177.1 -38.2 176.65 -38.0 175.95 -36.95 172.6 Q-35.25 168.2 -34.25 163.65 -33.95 162.05 -33.6 160.45 L-33.0 155.55 Q-32.9 154.35 -32.95 153.15 L-33.1 151.75 Q-33.9 145.45 -34.75 139.1 L-36.35 139.0 -38.4 138.85 -39.3 137.65 -39.4 137.55 -40.75 136.2 -41.5 135.5 -41.6 135.15 -41.75 134.35 Q-42.75 129.85 -47.75 130.25 L-48.25 130.5 Q-49.3 131.05 -50.05 132.05 L-51.25 130.0 -52.45 127.05 Q-53.25 124.4 -53.2 121.5 L-53.2 118.9 Q-53.35 116.45 -54.2 114.35 L-56.3 109.1 -56.45 108.7 -56.95 107.5 -57.85 104.8 Q-58.25 102.45 -58.7 100.1 -58.7 98.0 -58.7 95.9 L-58.7 95.9 M14.2 240.15 Q14.7 240.05 15.2 239.95 15.5 239.9 15.8 239.85 16.45 239.75 17.1 239.65 L17.6 239.55 Q17.9 239.5 18.2 239.45 18.4 239.45 18.6 239.45 18.75 239.4 18.9 239.35 19.4 239.25 19.95 239.15 L20.45 239.05 Q20.55 239.05 20.65 239.05 20.85 239.0 21.05 238.9 20.95 238.9 20.85 238.9 20.7 238.9 20.55 238.9 20.0 238.9 19.45 238.9 18.65 238.95 17.85 239.05 17.8 239.05 17.75 239.05 16.95 239.15 16.1 239.25 L15.7 239.35 15.7 239.35 15.5 239.45 Q15.05 239.75 14.6 240.05 L14.4 240.05 Q14.35 240.1 14.3 240.15 L14.2 240.15 Q14.7 240.05 15.2 239.95 15.5 239.9 15.8 239.85 16.45 239.75 17.1 239.65 L17.6 239.55 Q17.9 239.5 18.2 239.45 18.4 239.45 18.6 239.45 18.75 239.4 18.9 239.35 19.4 239.25 19.95 239.15 L20.45 239.05 Q20.55 239.05 20.65 239.05 20.85 239.0 21.05 238.9 20.95 238.9 20.85 238.9 20.7 238.9 20.55 238.9 20.0 238.9 19.45 238.9 18.65 238.95 17.85 239.05 17.8 239.05 17.75 239.05 16.95 239.15 16.1 239.25 L15.7 239.35 15.7 239.35 15.5 239.45 Q15.05 239.75 14.6 240.05 L14.4 240.05 Q14.35 240.1 14.3 240.15 L14.2 240.15;M-61.7 88.85 Q-60.9 85.95 -60.1 83.05 L-59.4 80.45 -58.65 77.3 -58.5 76.55 Q-56.7 67.35 -56.4 57.9 L-56.4 56.8 Q-56.35 54.2 -56.3 51.6 -56.25 48.95 -56.15 46.25 L-56.15 45.45 Q-55.95 37.25 -52.25 30.2 -50.7 27.25 -47.8 25.5 L-46.0 24.2 Q-45.35 23.6 -44.65 23.0 L-42.95 21.0 -41.8 19.5 -40.2 17.3 Q-37.6 13.9 -33.8 12.0 -32.55 11.35 -31.1 11.15 L-30.9 11.15 Q-28.05 10.8 -25.15 10.4 L-24.55 10.3 Q-23.35 10.15 -22.4 9.6 L-22.2 9.6 -20.25 9.6 Q-19.1 6.55 -17.35 3.75 L-16.25 2.0 -16.15 1.9 Q-14.55 -0.35 -12.45 -2.05 -12.7 -3.75 -13.65 -5.4 L-14.35 -6.5 Q-15.0 -7.45 -14.85 -8.6 L-14.2 -12.35 -13.85 -13.75 -13.6 -14.55 Q-12.4 -18.05 -10.3 -21.2 L-10.1 -21.5 Q-8.85 -22.95 -7.55 -24.4 L-7.45 -24.5 -6.4 -25.3 Q-5.25 -26.05 -4.1 -26.85 L-2.25 -27.85 Q-1.55 -28.2 -1.0 -28.45 0.8 -28.65 1.9 -27.9 L2.4 -27.45 2.5 -27.35 2.95 -27.9 Q4.1 -29.2 6.15 -29.4 L6.25 -29.4 10.6 -28.65 13.1 -27.6 14.9 -26.4 16.45 -24.9 18.4 -22.05 18.95 -20.85 Q20.55 -17.2 19.3 -13.45 L19.05 -12.65 19.9 -12.0 Q21.4 -10.75 22.3 -9.15 23.8 -6.55 23.75 -3.0 L23.75 -3.0 23.7 -1.5 23.65 -0.25 24.2 2.65 24.3 3.45 Q24.55 5.8 25.25 8.1 28.9 7.4 32.0 9.05 L32.8 9.15 Q33.95 9.35 35.1 9.6 38.3 10.45 40.7 12.8 L41.85 14.1 Q43.35 14.45 44.55 15.05 49.5 17.35 49.4 23.6 L49.45 24.8 Q49.55 26.5 50.2 28.15 L50.4 28.25 Q52.95 29.3 54.9 31.65 55.65 32.65 56.4 33.7 57.6 35.85 58.85 38.05 59.75 39.85 60.65 41.65 L62.35 45.4 62.55 46.0 62.85 46.7 Q64.75 51.65 66.0 56.95 L66.8 60.4 Q67.0 61.5 67.2 62.65 67.5 65.4 67.85 68.2 67.9 69.9 67.95 71.65 L67.8 73.55 Q67.45 76.9 66.2 79.95 65.0 82.7 63.1 85.25 L62.55 85.95 60.8 87.85 61.0 90.25 61.45 95.35 61.85 99.05 62.35 101.55 62.85 104.15 Q63.3 107.1 63.25 110.15 L63.1 112.5 Q62.6 115.95 60.7 118.75 L57.8 122.0 Q57.95 125.3 56.4 128.9 56.1 129.55 55.8 130.2 L55.8 130.2 Q53.4 135.1 52.35 140.4 51.45 144.75 50.55 149.15 49.6 153.2 48.65 157.3 47.7 161.25 44.95 162.3 45.85 166.35 49.5 169.4 52.25 171.65 52.0 175.1 L52.0 175.4 Q51.9 176.25 51.75 177.1 51.25 180.15 49.8 182.95 48.6 185.3 47.85 187.65 L47.4 189.15 47.45 189.25 48.6 190.7 Q51.4 194.9 49.85 200.85 L48.5 204.4 Q47.7 205.85 48.4 207.3 L51.55 214.6 52.35 216.75 Q53.4 219.5 54.8 222.05 52.5 227.05 50.9 232.4 L49.6 237.15 47.0 237.55 44.7 237.8 35.15 237.55 33.45 237.35 28.3 236.55 Q25.35 236.05 22.9 234.75 19.75 233.05 17.4 230.0 L14.25 230.1 4.85 229.6 4.25 229.5 3.75 229.4 -0.1 228.85 -1.2 229.5 -1.65 229.8 -3.7 231.05 -6.05 231.8 -11.4 232.25 Q-13.05 231.95 -14.7 231.65 L-16.4 231.1 Q-18.75 233.3 -21.4 234.2 -22.95 234.5 -24.5 234.8 -27.65 234.95 -31.15 233.55 L-33.1 232.6 Q-34.25 232.0 -35.5 231.9 L-36.35 231.85 -36.65 230.85 -37.45 228.15 -37.85 226.75 -39.65 220.9 -40.05 219.7 Q-40.65 217.7 -41.45 215.95 -42.1 214.55 -42.9 213.3 -42.55 212.15 -42.2 210.95 -42.0 210.2 -41.8 209.45 -39.75 202.15 -36.55 195.25 L-35.45 192.75 -34.75 191.05 -34.3 189.75 Q-31.95 182.85 -31.25 175.6 L-31.1 173.95 -30.75 172.15 -30.65 171.65 -30.45 170.95 -29.75 167.55 Q-29.1 162.9 -30.25 158.3 -30.6 156.65 -31.9 155.5 L-35.6 152.3 Q-36.55 151.45 -37.5 150.6 L-38.5 149.65 Q-43.5 144.6 -42.3 138.2 L-41.95 136.75 -42.2 134.8 -42.05 133.2 -42.25 133.25 -44.05 134.5 -44.75 134.5 -45.05 134.5 -46.0 134.5 Q-49.15 131.9 -49.9 127.65 L-50.0 127.05 Q-50.2 125.8 -50.4 124.55 L-50.7 122.05 -51.2 118.75 Q-51.6 116.0 -52.05 113.25 L-52.55 110.6 Q-53.0 108.35 -53.5 106.1 L-54.95 100.45 -55.05 100.1 -55.45 98.7 -56.25 95.85 Q-58.6 95.75 -60.4 94.05 -62.15 92.45 -61.95 90.2 L-61.7 88.85 M-55.7 122.65 Q-54.4 115.3 -55.35 107.85 -55.85 103.7 -55.05 100.1 -52.45 109.5 -51.2 118.75 L-50.0 127.05 Q-49.35 131.75 -46.0 134.5 -43.15 134.0 -42.25 133.25 -42.4 134.95 -41.95 136.75 -44.25 144.65 -37.5 150.6 L-31.9 155.5 Q-30.6 156.65 -30.25 158.3 -29.15 162.65 -29.65 167.15 -29.9 169.05 -30.45 170.95 -31.05 173.25 -31.25 175.6 -32.0 183.55 -34.75 191.05 -35.35 179.3 -34.25 167.75 -34.15 166.75 -34.35 165.7 -36.3 153.9 -43.25 144.35 L-45.25 140.7 -45.65 139.9 -46.4 137.4 Q-50.3 132.6 -53.7 127.55 L-55.2 125.25 Q-55.95 124.1 -55.7 122.65 L-55.7 122.65 Q-54.4 115.3 -55.35 107.85 -55.85 103.7 -55.05 100.1 -52.45 109.5 -51.2 118.75 L-50.0 127.05 Q-49.35 131.75 -46.0 134.5 -43.15 134.0 -42.25 133.25 -42.4 134.95 -41.95 136.75 -44.25 144.65 -37.5 150.6 L-31.9 155.5 Q-30.6 156.65 -30.25 158.3 -29.15 162.65 -29.65 167.15 -29.9 169.05 -30.45 170.95 -31.05 173.25 -31.25 175.6 -32.0 183.55 -34.75 191.05 -35.35 179.3 -34.25 167.75 -34.15 166.75 -34.35 165.7 -36.3 153.9 -43.25 144.35 L-45.25 140.7 -45.65 139.9 -46.4 137.4 Q-50.3 132.6 -53.7 127.55 L-55.2 125.25 Q-55.95 124.1 -55.7 122.65 L-55.7 122.65"/>
    </path>
  </g>
</svg>
