<?xml version="1.0" encoding="UTF-8" standalone="no"?>
<svg xmlns:xlink="http://www.w3.org/1999/xlink" height="63.4px" width="96.5px" xmlns="http://www.w3.org/2000/svg">
  <g transform="matrix(1.0, 0.0, 0.0, 1.0, 41.9, 3.75)">
    <path d="M-20.7 27.95 L-20.7 27.95 -19.15 30.5 -18.5 30.35 -15.15 29.5 -13.15 28.75 -10.5 27.6 -9.85 27.15 -9.45 26.75 Q-8.05 25.35 -6.5 24.55 -5.1 23.75 -3.5 23.4 L-2.6 23.25 -2.1 23.2 -0.45 23.1 1.05 23.4 2.15 23.65 6.7 24.1 9.95 23.85 15.25 23.55 15.45 23.55 20.2 23.5 19.45 22.2 17.5 18.7 16.8 17.2 16.7 16.9 Q16.25 15.85 16.15 14.9 L16.15 13.8 Q16.3 12.85 16.75 11.95 L15.8 10.85 Q15.05 9.55 15.3 7.9 15.45 6.55 16.25 5.55 L14.1 5.15 Q12.3 4.75 10.6 4.05 9.95 3.8 9.8 3.1 L9.75 2.9 Q9.45 1.2 10.75 0.05 11.65 -0.4 12.75 -0.45 L12.45 -0.85 Q12.25 -1.2 12.05 -1.55 L11.95 -1.65 11.9 -1.75 11.85 -1.9 11.85 -2.0 Q11.75 -2.4 11.8 -2.8 11.55 -3.25 11.45 -3.75 L10.45 -3.05 Q10.4 -2.45 9.95 -1.95 L9.95 -1.95 9.1 -0.65 Q8.6 0.25 8.6 1.15 L8.65 1.75 8.7 2.0 8.2 2.1 7.1 2.3 Q-1.3 4.6 3.8 8.15 L4.45 9.1 3.8 9.75 3.75 9.95 Q1.0 10.55 -0.45 11.55 -1.35 12.15 -1.75 12.9 L-1.75 12.9 Q-2.85 13.15 -3.9 13.4 L-4.1 13.45 -4.6 13.55 -5.75 13.95 Q-7.25 14.55 -8.15 15.25 L-9.05 16.2 Q-9.45 16.85 -9.35 17.55 -9.25 18.6 -8.1 19.8 -10.85 20.95 -12.6 22.45 L-14.5 24.05 -15.65 25.05 Q-17.1 26.25 -17.4 27.6 L-17.45 28.2 -20.7 27.95" fill="#ffffff" fill-opacity="0.5019608" fill-rule="evenodd" stroke="none">
      <animate attributeName="fill" dur="2s" repeatCount="indefinite" values="#ffffff;#ffffff"/>
      <animate attributeName="fill-opacity" dur="2s" repeatCount="indefinite" values="0.5019608;1.0"/>
      <animate attributeName="d" dur="2s" repeatCount="indefinite" values="M-20.7 27.95 L-20.7 27.95 -19.15 30.5 -18.5 30.35 -15.15 29.5 -13.15 28.75 -10.5 27.6 -9.85 27.15 -9.45 26.75 Q-8.05 25.35 -6.5 24.55 -5.1 23.75 -3.5 23.4 L-2.6 23.25 -2.1 23.2 -0.45 23.1 1.05 23.4 2.15 23.65 6.7 24.1 9.95 23.85 15.25 23.55 15.45 23.55 20.2 23.5 19.45 22.2 17.5 18.7 16.8 17.2 16.7 16.9 Q16.25 15.85 16.15 14.9 L16.15 13.8 Q16.3 12.85 16.75 11.95 L15.8 10.85 Q15.05 9.55 15.3 7.9 15.45 6.55 16.25 5.55 L14.1 5.15 Q12.3 4.75 10.6 4.05 9.95 3.8 9.8 3.1 L9.75 2.9 Q9.45 1.2 10.75 0.05 11.65 -0.4 12.75 -0.45 L12.45 -0.85 Q12.25 -1.2 12.05 -1.55 L11.95 -1.65 11.9 -1.75 11.85 -1.9 11.85 -2.0 Q11.75 -2.4 11.8 -2.8 11.55 -3.25 11.45 -3.75 L10.45 -3.05 Q10.4 -2.45 9.95 -1.95 L9.95 -1.95 9.1 -0.65 Q8.6 0.25 8.6 1.15 L8.65 1.75 8.7 2.0 8.2 2.1 7.1 2.3 Q-1.3 4.6 3.8 8.15 L4.45 9.1 3.8 9.75 3.75 9.95 Q1.0 10.55 -0.45 11.55 -1.35 12.15 -1.75 12.9 L-1.75 12.9 Q-2.85 13.15 -3.9 13.4 L-4.1 13.45 -4.6 13.55 -5.75 13.95 Q-7.25 14.55 -8.15 15.25 L-9.05 16.2 Q-9.45 16.85 -9.35 17.55 -9.25 18.6 -8.1 19.8 -10.85 20.95 -12.6 22.45 L-14.5 24.05 -15.65 25.05 Q-17.1 26.25 -17.4 27.6 L-17.45 28.2 -20.7 27.95;M-41.9 50.05 L-41.85 50.05 -37.05 50.85 -35.75 51.05 -30.45 51.95 -33.15 54.1 -28.35 54.4 -27.05 54.5 -26.35 54.5 Q-22.9 54.7 -20.4 55.8 -17.7 56.95 -15.8 58.35 L-14.3 58.5 -14.7 59.25 -12.0 59.45 -9.5 59.55 -7.8 59.65 -0.4 58.9 4.9 58.4 13.35 57.6 13.4 58.0 21.35 57.25 23.8 57.2 30.5 57.4 32.45 55.5 32.95 55.1 Q34.2 54.25 35.4 53.45 L36.8 52.4 Q38.35 52.5 39.9 52.6 L42.2 52.7 Q44.55 52.3 46.9 51.9 48.95 51.5 51.0 51.1 L54.6 50.4 Q51.8 49.55 49.0 48.7 48.2 48.45 47.4 48.2 L47.0 48.1 Q44.45 48.05 41.9 48.0 40.4 48.0 38.9 48.0 L38.1 48.0 Q38.85 47.65 39.0 47.0 L39.05 46.6 39.0 46.6 38.8 46.35 38.65 46.25 Q38.15 46.15 37.7 46.05 36.85 45.8 36.05 45.55 L34.4 45.0 Q33.6 44.7 32.85 44.45 L32.75 44.45 30.6 43.95 Q28.8 43.65 27.7 43.05 L26.7 42.55 26.25 42.65 25.25 42.8 23.65 43.1 Q15.65 44.0 7.7 44.85 L6.1 44.95 4.6 45.0 4.3 45.0 Q0.7 44.95 -2.9 44.9 -4.55 44.6 -6.15 44.3 L-6.35 44.2 Q-7.45 42.2 -6.1 40.9 L-6.3 40.85 -7.2 40.65 -9.0 40.45 Q-11.0 41.2 -13.0 41.9 L-11.15 42.85 Q-11.8 43.8 -12.4 44.75 -14.65 44.75 -16.9 44.75 -21.35 44.8 -25.8 44.8 L-29.75 43.8 -31.75 45.2 Q-34.1 46.5 -36.45 47.75 L-37.35 48.15 -41.9 50.05"/>
    </path>
    <path d="M-20.7 27.95 L-17.45 28.2 -17.4 27.6 Q-17.1 26.25 -15.65 25.05 L-14.5 24.05 -12.6 22.45 Q-10.85 20.95 -8.1 19.8 -9.25 18.6 -9.35 17.55 -9.45 16.85 -9.05 16.2 L-8.15 15.25 Q-7.25 14.55 -5.75 13.95 L-4.6 13.55 -4.1 13.45 -3.9 13.4 Q-2.85 13.15 -1.75 12.9 L-1.75 12.9 Q-1.35 12.15 -0.45 11.55 1.0 10.55 3.75 9.95 L3.8 9.75 4.45 9.1 3.8 8.15 Q-1.3 4.6 7.1 2.3 L8.2 2.1 8.7 2.0 8.65 1.75 8.6 1.15 Q8.6 0.25 9.1 -0.65 L9.95 -1.95 9.95 -1.95 Q10.4 -2.45 10.45 -3.05 L11.45 -3.75 Q11.55 -3.25 11.8 -2.8 11.75 -2.4 11.85 -2.0 L11.85 -1.9 11.9 -1.75 11.95 -1.65 12.05 -1.55 Q12.25 -1.2 12.45 -0.85 L12.75 -0.45 Q11.65 -0.4 10.75 0.05 9.45 1.2 9.75 2.9 L9.8 3.1 Q9.95 3.8 10.6 4.05 12.3 4.75 14.1 5.15 L16.25 5.55 Q15.45 6.55 15.3 7.9 15.05 9.55 15.8 10.85 L16.75 11.95 Q16.3 12.85 16.15 13.8 L16.15 14.9 Q16.25 15.85 16.7 16.9 L16.8 17.2 17.5 18.7 19.45 22.2 20.2 23.5 15.45 23.55 15.25 23.55 9.95 23.85 6.7 24.1 2.15 23.65 1.05 23.4 -0.45 23.1 -2.1 23.2 -2.6 23.25 -3.5 23.4 Q-5.1 23.75 -6.5 24.55 -8.05 25.35 -9.45 26.75 L-9.85 27.15 -10.5 27.6 -13.15 28.75 -15.15 29.5 -18.5 30.35 -19.15 30.5 -20.7 27.95 -20.7 27.95" fill="none" stroke="#000000" stroke-linecap="round" stroke-linejoin="round" stroke-opacity="0.0" stroke-width="1.0">
      <animate attributeName="stroke" dur="2s" repeatCount="indefinite" values="#000000;#000001"/>
      <animate attributeName="stroke-width" dur="2s" repeatCount="indefinite" values="0.0;0.0"/>
      <animate attributeName="fill-opacity" dur="2s" repeatCount="indefinite" values="0.0;0.0"/>
      <animate attributeName="d" dur="2s" repeatCount="indefinite" values="M-20.7 27.95 L-17.45 28.2 -17.4 27.6 Q-17.1 26.25 -15.65 25.05 L-14.5 24.05 -12.6 22.45 Q-10.85 20.95 -8.1 19.8 -9.25 18.6 -9.35 17.55 -9.45 16.85 -9.05 16.2 L-8.15 15.25 Q-7.25 14.55 -5.75 13.95 L-4.6 13.55 -4.1 13.45 -3.9 13.4 Q-2.85 13.15 -1.75 12.9 L-1.75 12.9 Q-1.35 12.15 -0.45 11.55 1.0 10.55 3.75 9.95 L3.8 9.75 4.45 9.1 3.8 8.15 Q-1.3 4.6 7.1 2.3 L8.2 2.1 8.7 2.0 8.65 1.75 8.6 1.15 Q8.6 0.25 9.1 -0.65 L9.95 -1.95 9.95 -1.95 Q10.4 -2.45 10.45 -3.05 L11.45 -3.75 Q11.55 -3.25 11.8 -2.8 11.75 -2.4 11.85 -2.0 L11.85 -1.9 11.9 -1.75 11.95 -1.65 12.05 -1.55 Q12.25 -1.2 12.45 -0.85 L12.75 -0.45 Q11.65 -0.4 10.75 0.05 9.45 1.2 9.75 2.9 L9.8 3.1 Q9.95 3.8 10.6 4.05 12.3 4.75 14.1 5.15 L16.25 5.55 Q15.45 6.55 15.3 7.9 15.05 9.55 15.8 10.85 L16.75 11.95 Q16.3 12.85 16.15 13.8 L16.15 14.9 Q16.25 15.85 16.7 16.9 L16.8 17.2 17.5 18.7 19.45 22.2 20.2 23.5 15.45 23.55 15.25 23.55 9.95 23.85 6.7 24.1 2.15 23.65 1.05 23.4 -0.45 23.1 -2.1 23.2 -2.6 23.25 -3.5 23.4 Q-5.1 23.75 -6.5 24.55 -8.05 25.35 -9.45 26.75 L-9.85 27.15 -10.5 27.6 -13.15 28.75 -15.15 29.5 -18.5 30.35 -19.15 30.5 -20.7 27.95 -20.7 27.95;M-41.9 50.05 L-37.35 48.15 -36.45 47.75 Q-34.1 46.5 -31.75 45.2 L-29.75 43.8 -25.8 44.8 Q-21.35 44.8 -16.9 44.75 -14.65 44.75 -12.4 44.75 -11.8 43.8 -11.15 42.85 L-13.0 41.9 Q-11.0 41.2 -9.0 40.45 L-7.2 40.65 -6.3 40.85 -6.1 40.9 Q-7.45 42.2 -6.35 44.2 L-6.15 44.3 Q-4.55 44.6 -2.9 44.9 0.7 44.95 4.3 45.0 L4.6 45.0 6.1 44.95 7.7 44.85 Q15.65 44.0 23.65 43.1 L25.25 42.8 26.25 42.65 26.7 42.55 27.7 43.05 Q28.8 43.65 30.6 43.95 L32.75 44.45 32.85 44.45 Q33.6 44.7 34.4 45.0 L36.05 45.55 Q36.85 45.8 37.7 46.05 38.15 46.15 38.65 46.25 L38.8 46.35 39.0 46.6 39.05 46.6 39.0 47.0 Q38.85 47.65 38.1 48.0 L38.9 48.0 Q40.4 48.0 41.9 48.0 44.45 48.05 47.0 48.1 L47.4 48.2 Q48.2 48.45 49.0 48.7 51.8 49.55 54.6 50.4 L51.0 51.1 Q48.95 51.5 46.9 51.9 44.55 52.3 42.2 52.7 L39.9 52.6 Q38.35 52.5 36.8 52.4 L35.4 53.45 Q34.2 54.25 32.95 55.1 L32.45 55.5 30.5 57.4 23.8 57.2 21.35 57.25 13.4 58.0 13.35 57.6 4.9 58.4 -0.4 58.9 -7.8 59.65 -9.5 59.55 -12.0 59.45 -14.7 59.25 -14.3 58.5 -15.8 58.35 Q-17.7 56.95 -20.4 55.8 -22.9 54.7 -26.35 54.5 L-27.05 54.5 -28.35 54.4 -33.15 54.1 -30.45 51.95 -35.75 51.05 -37.05 50.85 -41.85 50.05 -41.9 50.05"/>
    </path>
  </g>
</svg>
