<?xml version="1.0" encoding="UTF-8" standalone="no"?>
<svg xmlns:xlink="http://www.w3.org/1999/xlink" height="18.2px" width="18.2px" xmlns="http://www.w3.org/2000/svg">
  <g transform="matrix(1.0, 0.0, 0.0, 1.0, 9.1, 9.1)">
    <path d="M6.4 -6.45 Q9.1 -3.75 9.1 0.0 9.1 3.75 6.4 6.4 3.75 9.1 0.0 9.1 -3.75 9.1 -6.45 6.4 -9.1 3.75 -9.1 0.0 -9.1 -3.75 -6.45 -6.45 -3.75 -9.1 0.0 -9.1 3.75 -9.1 6.4 -6.45" fill="#000000" fill-rule="evenodd" stroke="none"/>
    <path d="M5.75 -6.0 L5.8 -5.95 5.75 -6.0" fill="#7b28a4" fill-rule="evenodd" stroke="none"/>
    <path d="M5.8 -5.95 Q8.25 -3.5 8.3 -0.05 8.25 3.4 5.8 5.8 3.4 8.25 -0.05 8.3 -3.5 8.25 -5.95 5.8 L-6.2 5.5 Q-3.9 6.55 -1.2 6.65 1.15 6.7 2.9 5.4 8.3 1.35 6.1 -5.1 L5.8 -5.95" fill="#850300" fill-rule="evenodd" stroke="none"/>
    <path d="M0.95 -1.7 Q2.5 -3.95 0.3 -5.5 -1.05 -6.45 -2.8 -6.05 -3.9 -5.8 -4.75 -5.0 -6.85 -3.05 -6.3 -0.45 -6.1 0.4 -5.4 0.9 -2.7 2.7 -0.55 0.25 L0.95 -1.7 M5.8 -5.95 L6.1 -5.1 Q8.3 1.35 2.9 5.4 1.15 6.7 -1.2 6.65 -3.9 6.55 -6.2 5.5 L-6.25 5.5 -7.1 4.35 Q-8.3 2.55 -8.35 0.3 L-8.35 -0.05 Q-8.35 -3.5 -5.95 -5.95 -3.5 -8.35 -0.05 -8.35 3.35 -8.35 5.75 -6.0 L5.8 -5.95" fill="#9f0400" fill-rule="evenodd" stroke="none"/>
    <path d="M0.95 -1.7 L-0.55 0.25 Q-2.7 2.7 -5.4 0.9 -6.1 0.4 -6.3 -0.45 -6.85 -3.05 -4.75 -5.0 -3.9 -5.8 -2.8 -6.05 -1.05 -6.45 0.3 -5.5 2.5 -3.95 0.95 -1.7" fill="#b00400" fill-rule="evenodd" stroke="none"/>
    <path d="M-1.6 -4.7 L2.1 -4.3 Q4.5 -3.1 4.3 -1.0 4.05 1.0 2.35 1.9 L-1.8 2.2" fill="none" stroke="#330000" stroke-linecap="round" stroke-linejoin="round" stroke-width="1.75"/>
    <path d="M-1.6 -1.65 L-1.6 -1.1" fill="none" stroke="#330000" stroke-linecap="round" stroke-linejoin="round" stroke-width="2.25"/>
    <path d="M-1.8 2.2 L-1.8 6.1" fill="none" stroke="#330000" stroke-linecap="round" stroke-linejoin="round" stroke-width="1.75"/>
    <path d="M-2.0 -5.45 L1.75 -5.05 Q4.1 -3.8 3.9 -1.7 3.65 0.25 1.95 1.2 L-2.2 1.45" fill="none" stroke="#ff9999" stroke-linecap="round" stroke-linejoin="round" stroke-width="1.75"/>
    <path d="M-2.0 -2.4 L-2.0 -1.85" fill="none" stroke="#ff9999" stroke-linecap="round" stroke-linejoin="round" stroke-width="2.25"/>
    <path d="M-2.2 1.45 L-2.2 5.35" fill="none" stroke="#ff9999" stroke-linecap="round" stroke-linejoin="round" stroke-width="1.75"/>
  </g>
</svg>
