<?xml version="1.0" encoding="UTF-8" standalone="no"?>
<svg xmlns:xlink="http://www.w3.org/1999/xlink" height="13.65px" width="19.25px" xmlns="http://www.w3.org/2000/svg">
  <g transform="matrix(1.0, 0.0, 0.0, 1.0, -0.95, -3.1)">
    <path d="M19.6 12.35 L19.85 12.35 19.85 5.85 19.45 5.5 19.0 5.0 18.2 4.2 17.7 3.7 17.55 3.45 17.45 3.35 1.25 3.35 1.25 12.3 2.05 12.3 3.3 12.3 Q2.55 12.6 1.95 13.05 1.2 13.6 1.45 14.45 L1.4 14.2 3.55 14.25 6.2 14.2 7.15 14.4 7.35 14.25 7.7 14.2 Q9.8 14.1 11.85 14.15 L13.25 13.2 13.9 12.8 14.25 12.6 12.9 12.6 11.2 12.65 9.7 12.65 10.25 12.3 14.65 12.3 15.9 12.3 16.1 12.3 15.4 12.85 13.95 14.05 15.15 14.1 17.0 14.1 18.6 13.05 19.3 12.6 19.6 12.35 M17.7 3.1 L20.2 5.75 20.2 16.75 0.95 16.75 0.95 3.1 17.7 3.1 M3.3 5.35 L3.3 5.3 9.25 5.3 9.25 5.35 3.3 5.35 M10.1 14.45 L2.85 14.5 2.2 14.5 1.45 14.5 1.25 14.5 1.25 16.35 1.6 16.35 4.45 16.35 4.45 16.4 19.85 16.4 19.85 14.35 18.95 14.35 16.55 14.4 16.5 14.4 13.5 14.45 10.4 14.45 10.1 14.45" fill="#000000" fill-rule="evenodd" stroke="none"/>
    <path d="M17.1 3.95 L17.1 3.9 Q17.15 3.5 17.55 3.45 L17.7 3.7 18.2 4.2 19.0 5.0 19.45 5.5 19.85 5.85 19.85 12.35 19.6 12.35 19.05 12.35 19.0 9.6 19.0 6.6 19.0 5.95 18.4 5.45 18.15 5.15 17.8 4.8 17.15 4.1 17.1 3.95 M2.1 15.7 L9.0 15.7 9.05 15.7 18.95 15.75 18.95 14.65 18.95 14.35 19.85 14.35 19.85 16.4 4.45 16.4 4.45 16.35 1.6 16.35 1.75 16.2 1.9 16.0 1.95 15.7 2.1 15.7" fill="#660099" fill-rule="evenodd" stroke="none"/>
    <path d="M17.55 3.45 Q17.15 3.5 17.1 3.9 L17.1 3.95 17.1 4.05 12.35 4.15 2.05 4.25 2.05 6.7 2.05 9.7 2.05 11.75 2.05 12.3 1.25 12.3 1.25 3.35 17.45 3.35 17.55 3.45 M2.2 14.5 L2.2 14.65 2.1 15.7 1.95 15.7 1.9 16.0 1.75 16.2 1.6 16.35 1.25 16.35 1.25 14.5 1.45 14.5 2.2 14.5" fill="#99ccff" fill-rule="evenodd" stroke="none"/>
    <path d="M17.1 3.95 L17.15 4.1 17.8 4.8 17.6 4.95 17.6 4.9 Q17.35 4.4 16.8 4.5 L16.15 4.9 15.1 5.95 Q14.75 5.65 14.35 5.95 L14.35 6.0 14.2 5.95 13.9 6.3 13.15 6.9 13.15 7.1 Q13.25 7.65 12.95 8.05 L12.85 8.1 Q12.25 8.15 12.25 7.6 L9.45 9.8 9.45 6.1 9.45 9.8 9.25 9.95 9.25 6.25 9.25 9.95 8.95 10.2 8.45 10.7 8.25 10.9 7.85 11.4 Q7.65 11.7 7.85 12.0 L8.1 12.3 4.65 12.3 3.95 12.3 3.3 12.3 2.05 12.3 2.05 11.75 3.3 10.65 3.5 10.5 3.5 10.7 3.5 10.5 4.2 9.9 6.9 7.9 9.25 6.25 9.45 6.1 12.35 4.15 17.1 4.05 17.1 3.95 M8.7 12.3 L8.95 12.1 9.1 12.3 8.7 12.3 M3.3 10.65 L3.3 10.7 3.5 10.7 3.3 10.7 3.3 10.65 M3.5 10.7 L3.5 10.9 8.25 10.9 3.5 10.9 3.5 10.7 8.45 10.7 3.5 10.7 M10.1 14.45 L9.65 14.95 9.05 15.65 9.0 15.7 2.1 15.7 2.2 14.65 2.2 14.5 2.85 14.5 10.1 14.45" fill="#cc66ff" fill-rule="evenodd" stroke="none"/>
    <path d="M17.8 4.8 L18.15 5.15 18.4 5.45 19.0 5.95 19.0 6.6 19.0 9.6 19.05 12.35 16.1 12.3 15.9 12.3 14.65 12.3 10.25 12.3 9.1 12.3 8.95 12.1 8.7 12.3 8.1 12.3 7.85 12.0 Q7.65 11.7 7.85 11.4 L8.25 10.9 9.45 10.9 9.45 9.8 9.45 10.9 8.25 10.9 8.45 10.7 8.95 10.2 9.25 9.95 9.45 9.8 12.25 7.6 Q12.25 8.15 12.85 8.1 L12.95 8.05 Q13.25 7.65 13.15 7.1 L13.15 6.9 13.9 6.3 14.2 5.95 14.35 6.0 14.35 5.95 Q14.75 5.65 15.1 5.95 L16.15 4.9 16.8 4.5 Q17.35 4.4 17.6 4.9 L17.6 4.95 17.8 4.8 M2.05 11.75 L2.05 9.7 2.05 6.7 2.05 4.25 12.35 4.15 9.45 6.1 9.45 5.55 9.25 5.55 9.45 5.55 9.45 6.1 9.25 6.25 9.25 5.55 9.25 6.25 6.9 7.9 4.2 9.9 3.5 10.5 3.3 10.65 3.3 5.35 3.3 10.65 2.05 11.75 M9.25 5.55 L9.25 5.35 9.25 5.55 3.5 5.55 3.5 10.5 3.5 5.55 9.25 5.55 M9.25 5.35 L9.25 5.3 3.3 5.3 3.3 5.35 9.25 5.35 M8.45 10.7 L9.25 10.7 9.25 9.95 9.25 10.7 8.45 10.7 M9.0 15.7 L9.05 15.65 9.65 14.95 10.1 14.45 10.4 14.45 13.5 14.45 16.5 14.4 16.55 14.4 18.95 14.35 18.95 14.65 18.95 15.75 9.05 15.7 9.0 15.7" fill="#cc66cc" fill-rule="evenodd" stroke="none"/>
    <path d="M19.05 12.35 L19.6 12.35 19.3 12.6 18.6 13.05 17.0 14.1 15.15 14.1 13.95 14.05 15.4 12.85 16.1 12.3 19.05 12.35 M10.25 12.3 L9.7 12.65 9.45 12.8 7.35 14.25 7.15 14.4 6.2 14.2 3.55 14.25 1.4 14.2 1.45 14.45 Q1.2 13.6 1.95 13.05 2.55 12.6 3.3 12.3 L3.95 12.3 4.65 12.3 8.1 12.3 8.7 12.3 9.1 12.3 10.25 12.3 M3.9 13.35 L3.9 13.3 3.9 13.35" fill="#333333" fill-rule="evenodd" stroke="none"/>
    <path d="M9.7 12.65 L11.2 12.65 12.9 12.6 14.25 12.6 13.9 12.8 13.25 13.2 11.85 14.15 Q9.8 14.1 7.7 14.2 L7.35 14.25 9.45 12.8 9.7 12.65" fill="#666666" fill-rule="evenodd" stroke="none"/>
    <path d="M3.9 13.35 L3.9 13.3 3.9 13.35" fill="#c25525" fill-rule="evenodd" stroke="none"/>
    <path d="M9.25 5.35 L9.25 5.55 9.25 6.25 9.25 9.95 9.25 10.7 8.45 10.7 3.5 10.7 3.3 10.7 3.3 10.65 3.3 5.35 9.25 5.35" fill="none" stroke="#99ccff" stroke-linecap="round" stroke-linejoin="round" stroke-width="0.5"/>
    <path d="M9.25 5.55 L9.45 5.55 9.45 6.1 9.45 9.8 9.45 10.9 8.25 10.9 3.5 10.9 3.5 10.7 3.5 10.5 3.5 5.55 9.25 5.55 Z" fill="none" stroke="#660099" stroke-linecap="round" stroke-linejoin="round" stroke-width="0.5"/>
    <path d="M14.3 7.7 L14.3 7.15 14.3 7.05 17.05 7.05 17.05 7.7 14.3 7.7 M13.7 7.35 L13.7 7.7 11.95 7.7 11.95 7.65 12.0 7.55 12.0 7.5 12.0 7.05 13.7 7.05 13.7 7.35 M12.85 8.25 L12.85 8.65 12.85 8.9 12.2 8.9 12.2 8.4 12.2 8.25 12.85 8.25 M13.45 8.9 L13.45 8.45 13.45 8.25 15.5 8.25 15.5 8.65 15.5 8.9 13.45 8.9 M10.45 7.7 L10.45 7.05 11.35 7.05 11.35 7.1 11.35 7.6 11.35 7.7 10.45 7.7 M10.45 8.25 L11.6 8.25 11.6 8.75 11.6 8.9 10.45 8.9 10.45 8.25 M12.4 9.35 L12.4 9.85 12.4 10.0 10.45 10.0 10.45 9.35 12.4 9.35 M15.05 9.35 L15.05 9.8 15.05 10.0 13.0 10.0 13.0 9.65 13.0 9.35 15.05 9.35 M15.65 10.0 L15.65 9.7 15.65 9.35 17.05 9.35 17.05 10.0 15.65 10.0 M16.1 8.45 L16.1 8.25 17.05 8.25 17.05 8.9 16.1 8.9 16.1 8.45" fill="#000000" fill-rule="evenodd" stroke="none"/>
  </g>
</svg>
