<?xml version="1.0" encoding="UTF-8" standalone="no"?>
<svg xmlns:xlink="http://www.w3.org/1999/xlink" height="17.05px" width="19.0px" xmlns="http://www.w3.org/2000/svg">
  <g transform="matrix(1.0, 0.0, 0.0, 1.0, -0.85, -1.15)">
    <path d="M2.9 12.55 L2.9 12.4 3.2 11.85 3.2 11.5 3.25 10.05 4.3 9.1 6.9 7.25 Q8.1 6.4 9.4 5.7 10.6 5.05 11.85 4.55 L15.45 3.1 17.4 3.9 18.35 6.85 18.65 7.8 16.95 10.0 16.15 7.45 15.55 6.85 15.45 10.95 9.85 14.5 4.95 14.55 2.9 12.55 M14.85 4.95 L11.0 6.0 8.1 7.65 4.85 10.45 4.6 11.95 4.65 11.95 5.2 12.1 7.3 10.3 15.2 5.75 14.85 4.95 M8.45 10.65 L7.45 11.55 7.2 12.05 Q7.15 12.95 8.05 13.15 8.95 13.4 9.35 12.45 L9.35 12.05 9.15 11.25 Q8.95 10.65 8.45 10.65" fill="#68cdff" fill-rule="evenodd" stroke="none"/>
    <path d="M17.4 3.9 L16.9 2.6 16.75 2.15 Q14.45 2.15 12.4 3.1 10.05 4.15 7.7 5.6 5.35 6.95 3.4 8.7 L1.6 10.9 1.95 11.4 2.15 11.65 2.9 12.55 4.95 14.55 6.15 15.55 8.6 17.05 9.55 17.5 15.05 14.2 19.15 11.8 19.1 11.15 18.9 9.2 18.65 7.8 18.35 6.85 17.4 3.9 M17.3 1.45 L18.9 6.35 Q19.75 8.9 19.85 11.75 L19.3 12.8 14.45 15.5 11.05 18.1 9.2 18.2 Q7.0 17.25 5.25 15.8 L2.55 13.4 0.85 11.75 0.95 9.65 4.05 7.2 Q6.4 5.45 8.45 4.4 L10.9 3.15 Q11.3 2.9 15.25 1.15 L17.3 1.45" fill="#000000" fill-rule="evenodd" stroke="none"/>
    <path d="M2.9 12.55 L2.15 11.65 1.95 11.4 1.6 10.9 3.4 8.7 Q5.35 6.95 7.7 5.6 10.05 4.15 12.4 3.1 14.45 2.15 16.75 2.15 L16.9 2.6 17.4 3.9 15.45 3.1 11.85 4.55 Q10.6 5.05 9.4 5.7 8.1 6.4 6.9 7.25 L4.3 9.1 3.25 10.05 3.2 11.5 3.2 11.85 2.9 12.4 2.9 12.55 M8.45 10.65 Q8.95 10.65 9.15 11.25 L9.35 12.05 9.35 12.45 Q8.95 13.4 8.05 13.15 7.15 12.95 7.2 12.05 L7.45 11.55 8.45 10.65" fill="#ccffff" fill-rule="evenodd" stroke="none"/>
    <path d="M18.9 9.2 L19.1 11.15 19.15 11.8 15.05 14.2 9.55 17.5 8.6 17.05 6.15 15.55 10.1 15.55 18.35 11.45 18.9 9.2" fill="#3466ff" fill-rule="evenodd" stroke="none"/>
    <path d="M18.65 7.8 L18.9 9.2 18.35 11.45 10.1 15.55 6.15 15.55 4.95 14.55 9.85 14.5 15.45 10.95 15.55 6.85 16.15 7.45 16.95 10.0 18.65 7.8" fill="#0099ff" fill-rule="evenodd" stroke="none"/>
    <path d="M14.85 4.95 L15.2 5.75 7.3 10.3 5.2 12.1 4.65 11.95 4.6 11.95 4.85 10.45 8.1 7.65 11.0 6.0 14.85 4.95" fill="#ffffff" fill-rule="evenodd" stroke="none"/>
  </g>
</svg>
