<?xml version="1.0" encoding="UTF-8" standalone="no"?>
<svg xmlns:xlink="http://www.w3.org/1999/xlink" height="23.35px" width="24.0px" xmlns="http://www.w3.org/2000/svg">
  <g transform="matrix(1.0, 0.0, 0.0, 1.0, 11.95, 11.65)">
    <path d="M7.6 -5.0 L3.6 -9.35 Q1.2 -10.6 -1.45 -10.15 L-2.95 -9.35 -4.3 -8.5 Q-5.3 -7.25 -6.85 -6.55 L-7.4 -6.25 Q-9.65 -4.7 -10.1 -2.1 L-10.15 -1.85 -10.2 -1.35 -10.25 -0.45 -10.35 0.0 Q-9.2 1.55 -8.4 3.3 L-7.65 4.85 Q-6.75 5.5 -6.35 6.55 L-6.3 6.65 Q-5.35 7.0 -5.1 8.0 L-5.1 8.1 -4.05 8.9 -3.7 9.0 -3.0 9.1 0.3 8.75 Q1.85 8.55 3.25 7.75 L3.9 7.35 Q5.65 6.2 7.55 5.3 L8.05 4.8 9.3 1.6 9.25 -1.15 8.8 -2.6 Q8.45 -3.9 7.6 -5.0 M12.05 -0.6 L11.95 0.6 Q11.75 2.75 10.45 4.45 L9.05 6.0 Q7.8 7.4 6.9 9.05 L6.3 9.75 Q4.05 11.15 1.65 11.6 L-0.3 11.65 Q-1.15 11.55 -1.8 11.05 -2.55 10.5 -3.6 10.35 L-4.75 9.8 -5.35 8.95 -5.55 8.8 -5.6 8.75 -5.35 8.75 -5.35 8.65 Q-8.7 8.85 -10.45 6.1 -11.5 4.45 -11.7 2.45 L-11.9 0.8 Q-12.0 0.15 -11.75 -0.3 -12.05 -1.9 -11.8 -3.5 -11.3 -7.35 -7.8 -9.5 -5.6 -10.85 -2.9 -11.2 L-0.2 -11.65 5.5 -10.4 6.4 -9.95 Q8.5 -8.5 10.2 -6.4 11.5 -4.8 11.55 -2.75 12.15 -2.0 12.05 -0.6" fill="#00cccc" fill-rule="evenodd" stroke="none"/>
  </g>
</svg>
