<?xml version="1.0" encoding="UTF-8" standalone="no"?>
<svg xmlns:xlink="http://www.w3.org/1999/xlink" height="71.05px" width="61.5px" xmlns="http://www.w3.org/2000/svg">
  <g transform="matrix(1.0, 0.0, 0.0, 1.0, -20.65, -17.6)">
    <path d="M48.35 20.8 Q49.9 21.05 51.35 21.75 L53.05 20.85 Q54.55 19.95 56.25 20.1 57.45 20.35 56.75 21.45 L56.7 21.55 56.55 22.05 55.9 23.45 57.15 24.9 Q57.0 25.65 57.25 26.35 L57.3 26.5 57.6 26.35 Q59.45 25.6 61.45 25.95 L62.5 26.25 63.0 26.3 65.55 25.45 67.9 24.3 67.65 23.25 Q67.4 22.55 67.45 21.85 67.5 21.15 67.7 20.5 L67.75 20.15 Q67.75 19.65 68.1 19.25 L68.15 19.25 68.15 19.2 68.2 19.2 Q68.85 19.2 69.25 19.7 L69.25 19.75 Q69.55 19.1 70.1 18.6 71.15 17.5 72.65 17.6 L75.6 18.15 Q76.3 18.45 76.85 19.0 77.6 18.35 78.45 17.85 79.15 17.8 79.25 18.55 L79.4 18.95 Q79.9 20.35 79.55 21.85 L79.55 21.95 79.75 22.4 79.8 22.6 80.15 24.1 81.0 23.15 Q81.2 22.95 81.45 22.85 L81.6 22.8 Q82.25 23.0 82.15 23.75 L81.75 26.65 Q81.5 28.0 80.75 29.1 L80.7 29.25 80.45 30.75 80.1 33.65 Q79.9 35.15 79.25 36.45 78.6 37.8 77.6 38.85 L75.15 40.6 73.85 41.2 71.55 42.15 71.1 43.3 71.0 43.9 70.3 49.75 69.9 55.65 Q69.75 58.6 69.2 61.5 L68.55 64.0 68.45 64.3 67.6 66.25 67.75 66.55 Q69.05 67.35 70.05 68.7 L71.3 70.35 71.5 70.6 Q73.25 73.0 73.95 75.9 74.65 78.8 74.35 81.7 L73.8 84.5 Q73.25 86.25 71.95 87.6 70.8 88.8 69.15 88.65 L67.85 88.5 Q67.2 88.35 66.8 87.7 66.05 86.55 65.9 85.1 65.8 84.15 65.95 83.2 L66.1 82.85 62.9 81.7 61.25 81.0 60.3 80.85 60.15 80.9 Q59.55 80.5 58.6 80.4 L58.35 80.4 53.95 80.2 Q51.2 79.9 48.85 78.6 47.8 78.0 46.65 77.75 L42.75 76.75 40.9 76.1 41.2 76.25 41.3 76.3 41.15 76.35 40.9 76.5 38.15 77.55 36.7 77.85 35.15 78.5 34.7 78.9 33.9 80.15 33.7 81.35 33.3 83.55 33.1 84.05 32.6 84.75 32.45 84.8 31.25 85.25 31.2 85.25 30.25 85.25 Q28.75 84.9 27.65 83.95 L27.3 83.7 26.85 83.3 25.6 81.15 25.45 80.8 25.35 80.55 25.25 79.9 Q25.2 79.5 25.3 79.15 L25.35 79.05 25.4 79.2 25.35 78.85 25.35 78.3 25.45 76.75 25.6 75.45 25.7 74.7 Q25.85 73.2 26.6 71.8 L27.6 70.35 27.75 70.15 28.75 69.15 29.35 68.45 30.6 67.4 32.4 66.25 34.05 65.45 36.35 64.4 37.35 64.0 37.45 63.95 37.55 63.9 37.55 63.7 37.5 63.0 37.55 62.75 37.2 61.7 37.1 61.35 Q35.3 59.85 34.8 57.55 L34.8 57.5 35.35 57.5 35.35 56.4 35.6 56.8 Q36.2 57.85 36.3 59.2 L38.7 61.85 38.65 62.45 38.6 63.7 38.6 63.8 38.6 64.0 38.7 64.85 38.8 64.95 38.75 64.95 38.55 64.9 38.5 64.9 37.9 64.75 37.9 64.4 37.75 64.5 37.5 64.6 36.5 65.15 36.4 65.15 36.3 65.2 36.0 65.4 34.8 66.0 32.25 67.4 29.85 69.1 28.75 69.95 28.3 70.35 27.5 71.6 Q26.9 72.8 26.7 74.15 L26.6 74.3 26.5 74.85 26.05 78.4 25.95 79.35 Q26.7 81.0 28.05 82.35 L28.3 82.65 28.35 82.7 28.5 82.95 Q29.5 84.5 31.3 84.3 L31.95 83.85 32.2 83.3 Q32.75 81.85 32.75 80.2 L32.9 80.15 33.2 79.2 32.65 79.15 32.45 79.15 Q31.95 79.15 31.8 78.85 L30.65 78.65 30.6 78.55 Q30.45 78.15 30.8 78.05 L31.5 78.0 32.8 77.95 34.85 77.5 35.0 77.3 Q36.25 76.55 37.75 76.45 L37.9 76.4 37.9 76.45 37.95 76.45 39.2 76.05 39.6 75.95 39.75 76.15 39.8 76.15 40.25 75.8 40.15 75.75 39.7 75.5 39.55 74.1 40.5 74.75 Q41.5 75.5 42.8 75.7 L43.5 75.85 Q47.4 76.6 51.05 77.95 L51.1 77.95 51.65 78.2 52.8 78.65 55.65 78.65 57.4 78.85 57.75 78.9 58.05 78.95 58.15 78.95 59.15 79.05 59.35 79.4 Q61.7 79.35 63.45 80.8 L63.5 80.85 68.1 82.9 70.0 83.85 70.1 83.9 69.9 83.85 69.85 83.85 69.65 83.8 69.2 83.7 66.55 83.0 67.05 85.3 Q67.65 87.9 70.4 87.5 L70.9 87.25 Q72.1 86.45 72.8 85.1 L73.6 83.2 Q73.9 82.3 73.55 81.8 74.1 79.4 73.5 76.85 L72.85 74.95 71.3 71.8 70.55 70.35 69.85 69.1 70.3 69.95 69.0 68.7 Q68.35 68.5 67.9 67.95 L67.55 67.7 Q66.85 67.3 66.85 66.75 L66.6 67.05 66.2 66.45 66.25 66.35 66.9 65.15 66.95 65.05 67.0 65.0 67.45 64.0 67.8 63.1 Q68.1 60.45 68.9 58.05 L68.9 57.15 Q69.05 54.1 69.35 51.1 L69.25 50.9 69.4 50.75 69.75 47.35 69.9 46.2 69.9 46.15 70.25 43.6 70.45 42.45 70.45 42.35 70.85 41.5 70.95 41.15 71.5 39.15 71.7 38.75 71.95 37.95 72.0 37.8 71.95 37.95 71.75 38.75 71.65 39.05 Q71.4 39.9 71.6 40.75 L71.65 40.9 71.85 41.35 72.95 41.1 73.15 40.95 74.0 40.4 Q74.75 39.85 75.55 39.4 78.25 37.75 79.2 34.8 L79.45 33.9 79.9 31.05 80.05 30.05 80.1 29.75 80.25 29.0 79.45 28.95 79.1 28.9 Q78.45 28.9 78.4 28.35 77.85 27.4 78.35 26.35 L79.0 25.6 79.1 25.6 78.8 26.45 78.8 27.15 78.8 27.25 78.8 27.55 78.9 27.75 79.0 27.9 79.25 28.05 79.7 28.2 80.1 28.15 80.2 28.1 80.3 28.1 80.45 27.95 80.65 27.8 81.0 27.35 81.2 27.0 81.5 25.7 81.55 25.55 81.7 24.5 81.85 23.55 81.7 23.4 81.55 23.45 81.35 23.65 80.8 24.05 80.55 24.25 80.25 24.55 79.95 24.9 79.85 24.45 79.55 23.3 79.3 22.65 79.25 22.45 Q78.7 23.2 77.7 23.05 L77.35 22.9 76.55 22.0 76.4 21.55 76.5 21.75 76.9 22.1 77.9 22.35 78.25 22.4 78.8 22.25 79.0 21.95 78.95 21.9 79.0 21.8 79.05 21.65 79.2 21.1 78.7 18.7 78.25 18.55 Q77.65 18.75 77.2 19.4 L77.1 19.5 77.05 19.6 76.7 19.35 76.6 19.25 75.85 18.85 Q74.6 18.25 73.0 18.2 L72.0 18.2 70.75 19.0 Q70.15 19.5 69.85 20.25 L69.8 20.45 69.6 20.85 69.55 20.8 69.55 20.75 69.2 20.3 69.1 20.2 68.7 19.75 68.4 19.8 68.4 19.85 68.3 20.15 68.2 20.4 Q67.9 21.25 67.75 22.2 L67.8 22.4 67.95 22.7 68.1 23.1 68.55 23.6 68.65 23.65 68.85 23.75 69.0 23.8 69.0 23.85 69.1 23.85 Q69.5 23.95 69.95 23.65 L70.1 23.5 70.4 23.0 70.35 22.6 70.25 22.3 69.95 21.65 69.8 21.3 Q70.3 21.4 70.5 21.95 70.7 22.5 70.55 23.1 70.3 23.95 69.45 24.3 68.75 24.4 68.45 23.95 L68.55 23.65 68.4 23.95 68.2 24.75 64.05 26.75 62.85 26.8 62.7 26.75 Q61.95 26.3 61.0 26.3 L59.35 26.5 Q58.85 26.6 58.4 26.85 L58.3 26.9 57.85 26.85 57.45 26.7 57.25 26.9 56.85 27.35 56.55 27.4 56.5 27.4 56.35 27.25 56.6 26.45 56.6 25.15 Q56.55 24.8 56.3 24.6 L55.6 23.95 54.8 23.3 54.7 23.25 54.75 23.15 55.0 22.85 55.45 22.35 55.6 22.1 55.65 22.05 Q55.85 21.55 56.2 21.15 L56.4 20.95 56.2 20.4 54.5 21.05 52.9 21.7 52.75 21.8 52.35 22.25 52.0 22.7 51.6 23.7 51.6 23.85 51.65 24.45 51.4 24.45 51.15 24.15 Q50.9 23.45 51.1 22.75 L51.25 22.3 51.0 22.15 50.65 22.05 50.45 21.95 49.3 21.55 48.2 21.05 45.7 21.35 45.2 21.4 44.0 22.4 43.7 22.7 43.65 22.7 43.5 22.9 43.55 22.95 43.65 23.05 43.9 23.25 44.0 23.6 Q44.2 24.6 43.65 25.35 L43.55 25.4 43.45 25.4 43.4 25.45 43.35 25.5 43.3 25.5 43.45 25.15 43.5 24.8 43.4 23.75 43.35 23.55 43.2 23.15 42.65 22.35 42.5 22.2 40.55 21.4 40.05 21.2 39.7 21.1 39.15 20.9 38.95 21.25 39.45 21.9 39.9 22.45 40.55 23.65 40.7 24.1 40.65 24.2 41.0 24.7 40.4 25.05 39.35 25.8 39.2 26.0 39.15 26.05 39.1 26.1 38.9 26.4 38.8 26.55 38.7 27.3 38.7 27.35 38.85 28.25 39.3 30.2 39.55 30.85 38.95 31.95 38.65 32.5 38.4 33.05 38.3 33.05 37.8 33.25 37.45 33.35 36.65 33.45 36.1 33.5 35.85 33.6 35.35 33.75 35.35 33.05 37.6 32.7 37.75 32.25 Q38.05 31.35 38.65 30.5 37.7 28.65 38.15 26.75 38.45 25.4 39.7 24.6 L40.05 24.4 38.55 21.35 38.55 20.95 38.8 20.65 38.9 20.6 38.95 20.6 39.15 20.4 40.85 21.0 Q41.55 21.2 42.25 21.7 L42.95 22.1 43.45 21.7 Q44.1 21.25 44.85 21.05 L46.05 20.85 46.05 20.8 46.15 20.8 46.6 20.7 48.35 20.8 M73.95 20.75 L74.55 21.35 74.55 21.4 74.5 21.5 74.45 21.55 74.35 21.9 74.2 22.55 74.15 22.55 Q73.25 23.3 72.05 22.85 71.25 22.5 71.5 21.7 L71.7 21.5 71.7 21.65 Q71.85 22.55 72.75 22.3 L73.75 22.2 Q74.35 21.65 74.0 20.85 L73.95 20.75 M44.55 27.6 L44.65 27.45 44.8 27.2 45.4 26.6 Q46.15 25.95 47.1 25.9 49.15 25.85 50.9 27.0 L51.25 27.3 51.05 27.5 50.9 27.75 50.4 27.7 50.35 27.7 50.2 27.7 49.7 27.45 47.5 26.2 Q47.3 26.2 47.05 26.35 L46.3 26.75 Q45.0 27.2 44.85 28.35 L45.05 28.55 45.2 28.7 45.2 28.75 45.25 28.8 45.05 28.95 44.35 28.1 44.45 27.7 44.5 27.65 44.55 27.6 M75.7 27.6 L75.75 27.7 75.7 27.7 75.65 27.75 75.7 27.6" fill="#000000" fill-rule="evenodd" stroke="none"/>
    <path d="M69.8 21.3 L69.95 21.65 70.25 22.3 70.35 22.6 70.4 23.0 70.1 23.5 69.95 23.65 Q69.5 23.95 69.1 23.85 L69.0 23.85 69.0 23.8 68.85 23.75 68.95 23.65 69.0 23.55 68.95 23.3 68.85 22.95 68.85 22.85 68.6 22.1 68.55 21.7 68.55 21.45 68.55 21.1 68.4 19.85 68.4 19.8 68.7 19.75 69.1 20.2 69.2 20.3 69.55 20.75 69.55 20.8 69.6 20.85 69.6 20.9 69.75 21.2 69.8 21.3 M77.05 19.6 L77.1 19.5 77.2 19.4 Q77.65 18.75 78.25 18.55 L78.7 18.7 79.2 21.1 79.05 21.65 79.0 21.8 78.95 21.9 79.0 21.95 78.8 22.25 78.25 22.4 77.9 22.35 76.9 22.1 76.5 21.75 76.4 21.55 Q76.1 20.85 76.45 20.25 L76.7 19.9 76.75 19.85 76.9 19.75 77.2 19.75 77.25 19.75 77.2 19.75 77.05 19.6 M79.95 24.9 L80.25 24.55 80.55 24.25 80.8 24.05 81.35 23.65 81.55 23.45 81.7 23.4 81.85 23.55 81.7 24.5 81.55 25.55 80.85 26.4 80.45 26.9 80.3 27.0 80.25 27.0 78.9 27.35 78.8 27.55 78.8 27.25 78.8 27.15 78.8 26.45 79.1 25.6 79.3 25.35 79.5 25.15 79.7 25.05 79.8 25.0 79.95 24.9 M35.35 43.0 L35.35 42.0 Q35.7 40.7 36.7 40.05 37.35 39.6 38.3 39.5 L38.4 39.45 38.65 39.55 40.45 39.3 40.55 39.25 41.4 39.3 42.0 40.0 42.05 40.05 42.05 40.1 41.8 40.1 41.55 40.1 40.45 39.95 40.5 40.3 40.6 40.65 40.4 41.15 Q39.85 41.3 39.5 40.85 L39.1 40.4 38.3 40.3 38.0 40.3 37.45 40.1 38.3 40.65 38.55 41.7 38.35 42.6 38.3 42.7 37.7 43.45 36.6 43.8 35.5 43.15 35.35 43.0 M71.7 21.5 Q71.6 21.1 71.65 20.7 71.75 19.85 72.3 19.3 L72.4 19.2 Q73.25 19.2 73.6 20.05 L73.95 20.75 74.0 20.85 Q74.35 21.65 73.75 22.2 L72.75 22.3 Q71.85 22.55 71.7 21.65 L71.7 21.5 M51.25 27.3 L52.05 26.55 52.7 26.2 53.0 26.1 53.4 25.95 Q54.0 26.15 54.3 26.5 L54.5 26.85 Q54.65 27.4 54.3 28.25 L54.25 28.35 54.2 28.35 54.05 28.35 Q52.45 28.6 52.1 27.25 51.75 27.75 51.65 28.35 L51.45 28.7 50.7 29.3 50.6 28.8 50.75 28.0 50.8 27.9 50.85 27.8 50.9 27.75 51.05 27.5 51.25 27.3 M58.25 35.6 L58.1 35.6 57.6 35.9 56.45 36.1 54.9 36.2 54.6 36.1 Q54.9 35.65 55.5 35.65 55.65 35.25 56.0 35.15 L56.75 34.95 57.0 34.8 Q57.45 34.5 57.9 34.45 L58.1 34.5 58.45 34.35 Q60.05 34.4 60.75 35.15 L61.0 35.5 61.35 37.4 60.9 38.5 60.85 38.6 60.8 38.65 60.45 39.0 59.95 39.35 58.95 39.25 Q58.35 39.1 58.2 38.5 57.35 37.1 58.25 35.65 L58.3 35.6 58.25 35.6 M45.05 28.95 L45.15 29.15 45.3 29.7 44.15 28.8 43.25 28.85 43.05 28.5 42.65 28.05 42.45 28.0 42.45 28.4 42.0 29.45 Q41.3 29.8 40.55 29.45 40.05 29.2 39.9 28.75 L39.9 28.65 39.9 28.45 39.9 27.9 39.95 27.75 Q40.15 27.15 40.75 26.85 L41.05 26.85 41.15 26.85 41.2 26.75 41.55 26.75 41.75 26.8 41.8 26.8 42.8 27.1 42.95 27.15 43.7 27.55 43.7 27.6 43.75 27.6 44.35 28.1 45.05 28.95 M44.45 48.6 Q44.8 47.8 45.7 47.5 L45.9 47.5 Q46.35 47.15 46.9 47.0 L47.7 47.2 47.95 47.35 47.05 47.6 46.95 47.8 Q47.0 48.25 46.55 48.35 L45.85 48.4 45.15 48.6 Q46.05 48.8 46.15 49.95 46.2 50.85 45.5 51.45 L44.9 51.8 44.85 51.8 44.7 51.7 44.6 51.65 44.15 51.3 43.9 50.85 43.75 50.05 43.75 49.8 Q43.85 49.2 44.4 48.75 L44.45 48.6 M54.95 46.7 L54.95 46.75 Q55.25 47.25 55.95 47.4 L56.4 48.2 56.35 49.25 Q56.05 50.35 54.85 50.35 L54.4 50.3 54.35 50.35 54.3 49.95 Q54.35 48.5 55.4 47.6 L54.45 47.55 54.25 47.55 52.45 47.2 Q52.65 47.0 53.0 46.95 L53.05 46.9 53.6 46.8 53.9 46.75 54.6 46.6 54.85 46.7 54.95 46.7 M50.95 57.5 Q51.95 57.7 52.15 58.75 L52.2 58.9 52.35 59.15 52.25 59.25 52.15 59.75 Q51.45 59.35 50.65 59.35 L50.4 59.35 49.2 60.25 48.95 60.45 48.85 60.55 48.85 60.2 48.9 59.9 48.85 59.8 48.75 59.35 49.05 58.8 49.3 58.45 49.95 57.55 50.3 57.45 50.5 57.45 50.75 57.5 50.95 57.5 M49.75 67.05 Q49.95 66.65 50.3 66.55 L50.5 66.5 51.3 66.65 51.3 66.7 51.45 66.75 51.55 66.8 51.6 66.9 51.75 67.1 51.8 67.15 52.1 67.9 52.2 68.25 52.25 68.7 Q51.3 68.0 50.05 68.3 L49.9 68.4 49.05 69.0 49.1 68.6 49.45 67.55 49.6 67.25 49.7 67.05 49.75 67.05" fill="#cccccc" fill-rule="evenodd" stroke="none"/>
    <path d="M68.85 23.75 L68.65 23.65 68.55 23.6 68.1 23.1 67.95 22.7 67.8 22.4 67.75 22.2 Q67.9 21.25 68.2 20.4 L68.3 20.15 68.4 19.85 68.55 21.1 68.55 21.45 68.55 21.7 68.6 22.1 68.85 22.85 68.85 22.95 68.95 23.3 69.0 23.55 68.95 23.65 68.85 23.75 M81.55 25.55 L81.5 25.7 81.2 27.0 81.0 27.35 80.65 27.8 80.45 27.95 80.3 28.1 80.2 28.1 80.1 28.15 79.7 28.2 79.25 28.05 79.0 27.9 78.9 27.75 78.8 27.55 78.9 27.35 80.25 27.0 80.3 27.0 80.45 26.9 80.85 26.4 81.55 25.55 M42.3 26.2 L42.3 26.25 42.25 26.2 42.3 26.2 M54.2 28.4 L54.2 28.35 54.25 28.35 54.2 28.4 M58.25 35.65 L58.25 35.6 58.3 35.6 58.25 35.65 M42.0 40.0 L42.05 40.05 42.05 40.1 42.05 40.05 42.0 40.0 M37.75 44.1 L38.0 44.1 37.8 44.15 37.75 44.1 M49.2 70.0 L49.35 70.2 49.2 70.1 49.2 70.0" fill="#666666" fill-rule="evenodd" stroke="none"/>
    <path d="M48.35 20.8 L46.6 20.7 46.15 20.8 46.05 20.8 46.05 20.85 44.85 21.05 44.95 21.0 46.15 20.65 48.35 20.8 M35.35 33.75 L35.85 33.6 36.1 33.5 36.65 33.45 37.45 33.35 37.8 33.25 37.85 34.6 37.85 34.85 37.95 35.45 38.0 35.65 Q36.55 35.9 35.6 36.8 L35.35 36.85 35.35 33.75 M38.95 31.95 L39.55 30.85 39.3 30.2 Q39.85 30.15 40.25 29.75 L40.6 30.05 41.25 30.25 42.65 31.05 43.25 31.2 43.15 31.65 42.55 31.65 42.45 31.75 42.2 31.9 Q41.5 32.2 40.95 32.65 L40.2 32.4 40.1 32.35 38.95 31.95 M38.7 27.3 L38.8 26.55 38.75 26.85 38.8 27.1 38.7 27.3 M43.9 23.25 L43.65 23.05 43.55 22.95 43.5 22.9 43.65 22.7 43.7 22.7 44.0 22.4 45.2 21.4 45.7 21.35 48.2 21.05 49.3 21.55 50.45 21.95 Q49.95 23.0 48.55 23.1 L45.75 23.35 44.1 23.3 43.9 23.25 M51.4 24.45 L51.65 24.45 52.0 24.9 52.55 25.2 52.1 25.0 52.45 25.5 52.65 25.75 52.95 26.05 52.75 25.85 Q51.85 26.05 51.1 26.45 L50.95 26.6 50.75 26.9 50.9 27.0 Q49.15 25.85 47.1 25.9 46.15 25.95 45.4 26.6 L44.8 27.2 44.65 27.45 44.55 27.6 44.5 27.55 44.1 27.25 Q43.1 26.55 42.0 26.4 L41.9 26.4 42.0 26.3 42.1 26.25 42.25 26.2 42.3 26.25 42.3 26.2 42.85 26.0 Q44.25 25.55 45.7 25.25 L49.3 24.6 51.4 24.45 M57.25 26.9 L57.45 26.7 57.85 26.85 58.3 26.9 58.4 26.85 Q58.85 26.6 59.35 26.5 L61.0 26.3 Q61.95 26.3 62.7 26.75 L62.85 26.8 64.05 26.75 68.2 24.75 68.4 23.95 68.55 23.65 68.45 23.95 Q68.75 24.4 69.45 24.3 70.3 23.95 70.55 23.1 70.7 22.5 70.5 21.95 70.3 21.4 69.8 21.3 L69.75 21.2 69.6 20.9 69.6 20.85 69.8 20.45 69.85 20.25 Q70.15 19.5 70.75 19.0 L72.0 18.2 73.0 18.2 Q74.6 18.25 75.85 18.85 L76.55 19.3 76.7 19.35 76.5 19.4 76.0 19.65 Q74.95 20.15 74.55 21.35 L73.95 20.75 73.6 20.05 Q73.25 19.2 72.4 19.2 L72.3 19.3 Q71.75 19.85 71.65 20.7 71.6 21.1 71.7 21.5 L71.5 21.7 Q71.25 22.5 72.05 22.85 73.25 23.3 74.15 22.55 L74.2 22.55 74.1 23.85 Q74.15 24.65 74.5 25.3 74.8 25.85 74.65 26.35 74.45 25.25 73.05 24.85 L71.85 25.05 Q70.25 25.7 71.4 26.8 L72.15 26.75 72.7 26.85 Q73.45 27.55 74.4 27.45 L74.65 27.2 75.1 27.55 75.5 28.05 Q76.7 30.55 75.45 32.95 74.4 35.0 72.15 34.8 L71.6 34.55 70.35 33.35 Q69.55 33.15 69.05 32.7 L68.3 32.85 68.1 32.8 Q67.75 32.6 67.4 32.55 L67.0 32.1 66.85 31.75 66.15 30.55 65.5 29.85 65.5 29.75 Q64.8 27.85 62.75 28.0 L60.65 28.65 60.5 28.7 60.1 28.75 59.15 29.0 58.95 28.9 57.7 28.05 57.5 27.9 57.45 27.85 57.25 27.7 57.1 27.5 57.0 27.35 57.25 26.9 M51.65 78.2 L51.1 77.95 51.65 78.15 51.65 78.2 M26.5 74.85 L26.6 74.3 26.7 74.15 Q26.9 72.8 27.5 71.6 L28.3 70.35 28.75 69.95 29.85 69.1 32.25 67.4 34.8 66.0 36.0 65.4 36.3 65.2 36.4 65.15 36.5 65.15 37.5 64.6 37.75 64.5 37.9 64.4 37.9 64.75 38.5 64.9 38.5 65.0 Q38.7 65.75 39.2 66.35 L39.65 67.1 Q40.0 68.1 40.9 68.6 L41.9 68.55 Q42.6 68.15 42.55 67.25 L42.75 66.6 Q43.3 65.75 42.85 65.1 43.15 64.55 42.8 64.0 L42.6 63.75 41.75 62.45 41.35 61.05 40.85 59.8 38.85 57.6 38.9 57.5 38.9 56.95 38.7 56.3 38.65 56.15 38.5 55.65 38.4 55.05 38.4 54.85 40.2 53.7 39.9 53.55 40.2 53.7 42.6 54.7 43.9 55.45 45.2 56.3 Q45.6 58.1 46.5 59.8 L48.4 64.0 49.05 66.0 49.35 66.65 49.25 66.8 Q48.65 67.8 48.65 68.95 48.65 69.45 48.95 69.85 L49.2 70.1 49.35 70.2 49.2 70.0 49.6 70.35 50.65 70.4 50.8 70.5 51.7 70.55 51.9 70.35 52.1 69.95 52.2 69.45 52.15 69.9 Q52.55 69.3 52.5 68.5 L52.3 67.05 52.15 66.65 53.35 66.45 Q54.3 65.35 54.45 64.0 L54.45 63.5 54.2 61.8 55.15 61.1 55.8 60.45 57.45 58.15 58.05 56.8 Q58.75 54.25 60.05 51.95 L60.55 51.2 62.95 48.15 Q63.65 47.15 63.75 45.95 63.95 43.95 65.25 42.55 L66.55 42.8 66.95 43.45 66.9 43.6 66.95 47.7 67.0 48.75 Q67.0 52.65 65.15 56.1 L64.55 57.05 Q63.4 58.8 63.2 60.75 L63.15 60.8 63.1 61.45 63.1 61.8 Q63.1 62.1 63.25 62.3 L64.45 64.0 64.7 64.35 64.8 64.5 64.75 64.8 64.65 65.2 Q64.2 67.8 64.4 70.35 L64.65 72.75 64.6 73.0 Q63.95 76.5 60.3 77.2 59.65 77.3 59.4 77.75 58.45 76.5 56.85 75.8 56.3 75.55 55.7 75.4 L47.95 75.2 46.1 75.35 44.0 74.95 41.95 74.05 40.45 73.05 39.75 71.2 39.7 71.1 39.65 70.95 39.4 70.35 Q39.0 69.85 38.2 69.9 L38.05 70.05 37.9 70.3 37.9 73.35 37.75 73.55 37.55 73.9 37.25 74.6 35.1 75.35 34.85 75.45 Q33.6 75.5 32.95 76.45 32.05 77.25 30.95 77.15 29.2 77.0 27.85 75.95 L27.5 75.5 27.45 75.45 26.6 74.35 26.5 74.85 M55.9 37.4 L55.85 37.35 55.9 37.35 55.9 37.4 M57.0 49.3 L57.05 49.35 57.0 49.45 57.0 49.3 M56.3 50.55 L56.15 50.8 56.05 50.7 56.3 50.55" fill="#999966" fill-rule="evenodd" stroke="none"/>
    <path d="M37.8 33.25 L38.3 33.05 38.4 33.05 38.65 32.5 38.95 31.95 40.1 32.35 40.2 32.4 40.95 32.65 Q41.5 32.2 42.2 31.9 L41.75 32.65 41.65 32.9 40.35 34.15 Q40.0 34.65 39.8 35.2 L38.85 36.25 38.45 36.5 38.3 36.6 37.1 37.15 35.35 37.95 35.35 36.85 35.6 36.8 Q36.55 35.9 38.0 35.65 L37.95 35.45 37.85 34.85 37.85 34.6 37.8 33.25 M39.3 30.2 L38.85 28.25 38.7 27.35 38.7 27.3 38.8 27.1 38.75 26.85 38.8 26.55 38.9 26.4 39.1 26.1 39.15 26.05 39.2 26.0 39.35 25.8 40.4 25.05 41.0 24.7 41.25 25.1 41.35 25.3 41.85 25.75 42.8 25.9 43.3 25.5 43.35 25.5 43.4 25.45 43.45 25.4 43.55 25.4 43.65 25.35 Q44.2 24.6 44.0 23.6 L43.9 23.25 44.1 23.3 45.75 23.35 48.55 23.1 Q49.95 23.0 50.45 21.95 L50.65 22.05 51.0 22.15 51.25 22.3 51.1 22.75 Q50.9 23.45 51.15 24.15 L51.4 24.45 49.3 24.6 45.7 25.25 Q44.25 25.55 42.85 26.0 L42.3 26.2 42.25 26.2 42.1 26.25 42.0 26.3 41.3 26.25 41.0 26.35 40.65 26.45 Q39.85 26.85 39.55 27.7 39.15 28.95 40.25 29.75 39.85 30.15 39.3 30.2 M54.7 23.25 L54.8 23.3 55.6 23.95 56.3 24.6 Q56.55 24.8 56.6 25.15 L56.6 26.45 56.35 27.25 56.5 27.4 56.55 27.4 56.85 27.35 57.25 26.9 57.0 27.35 57.1 27.5 57.25 27.7 57.45 27.85 57.5 27.9 57.7 28.05 58.95 28.9 59.15 29.0 60.1 28.75 60.5 28.7 60.65 28.65 62.75 28.0 Q64.8 27.85 65.5 29.75 L65.5 29.85 66.15 30.55 64.35 30.25 64.05 30.45 57.35 29.65 Q55.95 29.45 54.75 28.8 L54.85 28.85 54.9 28.65 55.05 28.25 Q55.35 27.3 54.85 26.5 54.25 25.55 53.15 25.6 L52.65 25.75 52.45 25.5 52.1 25.0 52.55 25.2 53.05 25.25 53.2 25.25 53.6 25.1 53.95 24.65 54.2 23.95 54.25 23.9 54.7 23.25 M75.85 18.85 L76.6 19.25 76.7 19.35 77.05 19.6 77.2 19.75 77.25 19.75 77.2 19.75 76.9 19.75 76.75 19.85 76.7 19.9 76.45 20.25 Q76.1 20.85 76.4 21.55 L76.55 22.0 77.35 22.9 77.7 23.05 Q78.7 23.2 79.25 22.45 L79.3 22.65 79.55 23.3 79.85 24.45 79.95 24.9 79.8 25.0 79.7 25.05 79.5 25.15 79.3 25.35 79.1 25.6 79.0 25.6 78.35 26.35 Q77.85 27.4 78.4 28.35 78.45 28.9 79.1 28.9 L79.45 28.95 80.25 29.0 80.1 29.75 80.05 30.05 79.9 31.05 79.45 33.9 79.2 34.8 Q78.25 37.75 75.55 39.4 74.75 39.85 74.0 40.4 L73.15 40.95 72.95 41.1 71.85 41.35 71.65 40.9 71.6 40.75 Q71.4 39.9 71.65 39.05 L71.75 38.75 71.95 37.95 72.0 37.8 71.95 37.95 71.7 38.75 71.5 39.15 70.95 41.15 70.85 41.5 70.45 42.35 70.45 42.45 70.25 43.6 69.9 46.15 69.9 46.2 69.75 47.35 69.4 50.75 69.25 50.9 69.35 51.1 Q69.05 54.1 68.9 57.15 L68.9 58.05 Q68.1 60.45 67.8 63.1 L67.45 64.0 67.0 65.0 66.95 65.05 66.9 65.15 66.25 66.35 66.2 66.45 66.6 67.05 66.85 66.75 Q66.85 67.3 67.55 67.7 L67.9 67.95 Q68.35 68.5 69.0 68.7 L70.3 69.95 69.85 69.1 70.55 70.35 71.3 71.8 72.85 74.95 73.5 76.85 Q74.1 79.4 73.55 81.8 L73.05 83.45 71.55 83.8 70.1 83.9 70.0 83.85 68.1 82.9 63.5 80.85 63.45 80.8 Q61.7 79.35 59.35 79.4 L59.15 79.05 58.15 78.95 58.05 78.95 57.75 78.9 57.4 78.85 55.65 78.65 52.8 78.65 51.65 78.2 51.65 78.15 51.1 77.95 51.05 77.95 Q47.4 76.6 43.5 75.85 L42.8 75.7 Q41.5 75.5 40.5 74.75 L39.55 74.1 39.7 75.5 40.15 75.75 40.25 75.8 39.8 76.15 39.75 76.15 39.6 75.95 39.2 76.05 37.95 76.45 37.9 76.4 37.75 76.45 Q36.25 76.55 35.0 77.3 L34.85 77.5 32.8 77.95 31.5 78.0 30.8 78.05 Q30.45 78.15 30.6 78.55 L30.65 78.65 30.55 78.6 Q28.55 77.7 27.6 75.7 L27.5 75.5 27.85 75.95 Q29.2 77.0 30.95 77.15 32.05 77.25 32.95 76.45 33.6 75.5 34.85 75.45 L35.1 75.35 37.25 74.6 37.55 73.9 37.75 73.55 37.9 73.35 37.9 70.3 38.05 70.05 38.2 69.9 Q39.0 69.85 39.4 70.35 L39.65 70.95 39.7 71.1 39.75 71.2 40.45 73.05 41.95 74.05 44.0 74.95 46.1 75.35 47.95 75.2 55.7 75.4 Q56.3 75.55 56.85 75.8 58.45 76.5 59.4 77.75 59.65 77.3 60.3 77.2 63.95 76.5 64.6 73.0 L64.65 72.75 64.4 70.35 Q64.2 67.8 64.65 65.2 L64.75 64.8 64.8 64.5 64.7 64.35 64.45 64.0 63.25 62.3 Q63.1 62.1 63.1 61.8 L63.1 61.45 63.15 60.8 63.2 60.75 Q63.4 58.8 64.55 57.05 L65.15 56.1 Q67.0 52.65 67.0 48.75 L66.95 47.7 66.9 43.6 66.95 43.45 66.55 42.8 65.25 42.55 Q63.95 43.95 63.75 45.95 63.65 47.15 62.95 48.15 L60.55 51.2 60.05 51.95 Q58.75 54.25 58.05 56.8 L57.45 58.15 55.8 60.45 55.15 61.1 54.2 61.8 54.45 63.5 54.45 64.0 Q54.3 65.35 53.35 66.45 L52.15 66.65 51.95 66.65 Q51.4 65.95 50.35 66.0 49.8 66.1 49.35 66.65 L49.05 66.0 48.4 64.0 46.5 59.8 Q45.6 58.1 45.2 56.3 L43.9 55.45 44.7 55.35 46.35 55.1 46.75 55.55 47.95 57.2 47.95 57.25 Q47.4 58.6 47.75 60.0 48.1 61.35 48.95 62.45 L49.45 62.75 49.9 62.7 Q50.35 63.3 51.2 62.9 53.4 61.95 54.25 59.75 55.6 58.9 55.8 57.25 55.85 56.8 56.15 56.45 L57.2 54.85 57.25 54.8 57.55 54.2 Q58.15 53.3 58.95 52.55 L59.55 51.9 62.0 48.05 Q63.35 45.4 64.3 42.6 L64.65 41.55 64.75 41.05 65.05 40.6 66.65 37.4 Q67.85 35.05 67.4 32.55 67.75 32.6 68.1 32.8 L68.3 32.85 69.05 32.7 Q69.55 33.15 70.35 33.35 L71.6 34.55 72.15 34.8 Q74.4 35.0 75.45 32.95 76.7 30.55 75.5 28.05 L75.1 27.55 74.65 27.2 74.4 27.45 Q73.45 27.55 72.7 26.85 L72.15 26.75 71.4 26.8 Q70.25 25.7 71.85 25.05 L73.05 24.85 Q74.45 25.25 74.65 26.35 74.8 25.85 74.5 25.3 74.15 24.65 74.1 23.85 L74.2 22.55 74.35 21.9 74.45 21.55 74.5 21.5 74.55 21.4 74.55 21.35 Q74.95 20.15 76.0 19.65 L76.5 19.4 76.7 19.35 76.55 19.3 75.85 18.85 M38.5 64.9 L38.55 64.9 38.75 64.95 38.8 64.95 38.7 64.85 38.6 64.0 38.6 63.8 38.6 63.7 38.65 62.45 38.7 61.85 36.3 59.2 Q36.2 57.85 35.6 56.8 L35.35 56.4 35.35 49.35 Q36.7 49.75 37.85 50.55 L38.3 50.85 40.9 52.95 42.6 54.7 40.2 53.7 39.9 53.55 40.2 53.7 38.4 54.85 38.4 55.05 38.5 55.65 38.65 56.15 38.7 56.3 38.9 56.95 38.9 57.5 38.85 57.6 40.85 59.8 41.35 61.05 41.75 62.45 42.6 63.75 42.8 64.0 Q43.15 64.55 42.85 65.1 43.3 65.75 42.75 66.6 L42.55 67.25 Q42.6 68.15 41.9 68.55 L40.9 68.6 Q40.0 68.1 39.65 67.1 L39.2 66.35 Q38.7 65.75 38.5 65.0 L38.5 64.9 M75.7 27.6 L75.65 27.75 75.7 27.7 75.75 27.7 75.7 27.6 M69.7 86.35 L69.65 86.35 69.7 86.35" fill="#666633" fill-rule="evenodd" stroke="none"/>
    <path d="M41.0 24.7 L40.65 24.2 40.7 24.1 40.55 23.65 39.9 22.45 39.45 21.9 38.95 21.25 39.15 20.9 39.7 21.1 40.05 21.2 40.55 21.4 42.5 22.2 42.65 22.35 43.2 23.15 43.35 23.55 43.4 23.75 43.5 24.8 43.45 25.15 43.3 25.5 42.8 25.9 41.85 25.75 41.35 25.3 41.25 25.1 41.0 24.7 M51.65 24.45 L51.6 23.85 51.6 23.7 52.0 22.7 52.35 22.25 52.75 21.8 52.9 21.7 54.5 21.05 56.2 20.4 56.4 20.95 56.2 21.15 Q55.85 21.55 55.65 22.05 L55.6 22.1 55.45 22.35 55.0 22.85 54.75 23.15 54.7 23.25 54.25 23.9 54.2 23.95 53.95 24.65 53.6 25.1 53.2 25.25 53.05 25.25 52.55 25.2 52.0 24.9 51.65 24.45" fill="#ffffcc" fill-rule="evenodd" stroke="none"/>
    <path d="M35.35 43.5 L35.35 43.0 35.5 43.15 36.6 43.8 37.7 43.45 38.3 42.7 38.35 42.6 38.55 41.7 38.3 40.65 37.45 40.1 38.0 40.3 38.3 40.3 39.1 40.4 39.5 40.85 Q39.85 41.3 40.4 41.15 L40.6 40.65 40.5 40.3 40.45 39.95 41.55 40.1 41.8 40.1 42.05 40.1 42.2 40.65 Q42.35 41.55 41.85 42.25 41.35 42.9 40.75 42.8 L40.4 43.4 40.3 43.5 40.0 43.65 38.3 44.1 37.75 44.1 37.8 44.15 36.6 44.15 Q35.85 44.0 35.35 43.5 M35.35 42.0 L35.35 40.35 Q35.9 39.65 36.85 39.3 L37.65 39.15 38.3 39.15 41.0 38.9 Q42.2 38.9 42.05 40.05 L42.0 40.0 41.4 39.3 40.55 39.25 40.45 39.3 38.65 39.55 38.4 39.45 38.3 39.5 Q37.35 39.6 36.7 40.05 35.7 40.7 35.35 42.0 M49.35 66.65 Q49.8 66.1 50.35 66.0 51.4 65.95 51.95 66.65 L52.15 66.65 52.3 67.05 52.5 68.5 Q52.55 69.3 52.15 69.9 L52.2 69.45 52.1 69.95 51.9 70.35 51.7 70.55 50.8 70.5 50.65 70.4 49.6 70.35 49.2 70.0 49.2 70.1 48.95 69.85 Q48.65 69.45 48.65 68.95 48.65 67.8 49.25 66.8 L49.35 66.65 M52.65 25.75 L53.15 25.6 Q54.25 25.55 54.85 26.5 55.35 27.3 55.05 28.25 L54.9 28.65 54.85 28.85 54.75 28.8 54.7 28.75 54.25 28.35 54.3 28.25 Q54.65 27.4 54.5 26.85 L54.3 26.5 Q54.0 26.15 53.4 25.95 L53.0 26.1 52.7 26.2 52.05 26.55 51.25 27.3 50.9 27.0 50.75 26.9 50.95 26.6 51.1 26.45 Q51.85 26.05 52.75 25.85 L52.95 26.05 52.65 25.75 M42.0 26.3 L41.9 26.4 42.0 26.4 Q43.1 26.55 44.1 27.25 L44.5 27.55 44.55 27.6 44.5 27.65 44.45 27.7 44.35 28.1 43.75 27.6 43.7 27.6 43.7 27.55 42.95 27.15 42.8 27.1 41.8 26.8 41.75 26.8 41.55 26.75 41.2 26.75 41.15 26.85 41.05 26.85 40.75 26.85 Q40.15 27.15 39.95 27.75 L39.9 27.9 39.9 28.45 39.9 28.65 39.9 28.75 Q40.05 29.2 40.55 29.45 41.3 29.8 42.0 29.45 L42.45 28.4 42.45 28.0 42.65 28.05 43.05 28.5 43.25 28.85 44.15 28.8 45.3 29.7 45.15 29.15 45.05 28.95 45.25 28.8 45.3 29.0 45.5 29.3 45.5 29.4 45.45 29.7 45.45 29.8 45.3 29.8 45.05 30.35 43.85 31.2 43.3 31.2 43.25 31.2 42.65 31.05 41.25 30.25 40.6 30.05 40.25 29.75 Q39.15 28.95 39.55 27.7 39.85 26.85 40.65 26.45 L41.0 26.35 41.3 26.25 42.0 26.3 M50.9 27.75 L50.85 27.8 50.8 27.9 50.75 28.0 50.6 28.8 50.7 29.3 51.45 28.7 51.65 28.35 Q51.75 27.75 52.1 27.25 52.45 28.6 54.05 28.35 L54.2 28.35 54.2 28.4 53.7 29.15 52.7 29.95 50.9 29.85 Q49.8 29.25 50.1 28.0 L50.2 27.7 50.35 27.7 50.4 27.7 50.9 27.75 M53.0 59.6 L52.75 59.45 52.6 59.5 52.55 59.7 52.55 59.6 52.6 60.6 52.45 61.1 52.1 61.5 52.05 61.6 50.8 62.2 50.5 62.25 50.35 62.2 50.1 62.15 49.6 61.85 49.1 61.55 48.8 61.2 48.55 60.9 48.45 60.55 48.4 60.3 Q48.2 59.4 48.5 58.55 L48.6 58.85 48.55 58.6 48.8 57.75 48.95 57.55 Q49.15 57.15 49.5 56.9 49.7 56.7 49.95 56.75 51.65 56.85 52.65 58.2 L52.8 58.45 53.0 59.6 M60.45 39.0 L60.8 38.65 60.85 38.6 60.9 38.5 61.35 37.4 61.0 35.5 60.75 35.15 Q60.05 34.4 58.45 34.35 L58.1 34.5 57.9 34.45 Q57.45 34.5 57.0 34.8 L56.75 34.95 56.0 35.15 Q55.65 35.25 55.5 35.65 54.9 35.65 54.6 36.1 L54.9 36.2 56.45 36.1 57.6 35.9 58.1 35.6 58.25 35.6 58.25 35.65 Q57.35 37.1 58.2 38.5 58.35 39.1 58.95 39.25 L59.95 39.35 57.2 39.45 Q55.75 39.55 54.7 38.6 54.05 38.05 54.2 37.25 54.1 36.9 54.3 36.5 L54.4 36.35 Q54.35 35.65 54.95 35.3 L55.7 34.8 Q56.85 33.85 58.4 33.9 59.95 33.8 61.05 34.9 61.9 35.7 61.8 36.95 61.6 38.35 60.55 39.2 L60.3 39.25 60.05 39.3 60.45 39.0 M52.4 46.8 L52.75 46.8 Q53.6 46.2 54.6 46.05 55.45 46.15 56.1 46.55 L56.05 46.55 56.15 46.7 56.35 47.1 56.75 47.5 Q57.2 48.1 57.0 49.3 L57.0 49.45 Q56.85 50.1 56.3 50.55 L56.05 50.7 55.1 51.1 54.1 51.0 53.7 50.6 53.3 50.35 52.55 49.4 51.95 48.6 Q51.8 48.0 52.0 47.45 L52.4 46.8 M43.3 49.45 Q43.45 48.55 44.15 47.8 L44.6 47.3 45.3 47.1 46.4 46.7 47.8 46.95 47.7 47.15 47.9 46.8 48.3 47.25 Q49.0 48.6 48.4 50.05 L47.9 50.75 47.45 51.05 45.95 51.4 45.9 51.55 45.85 51.55 45.45 51.85 45.3 51.85 44.2 51.75 Q43.25 51.3 43.2 50.25 L43.2 50.0 43.3 49.5 43.55 49.65 43.3 49.45 M44.45 48.6 L44.4 48.75 Q43.85 49.2 43.75 49.8 L43.75 50.05 43.9 50.85 44.15 51.3 44.6 51.65 44.7 51.7 44.85 51.8 44.9 51.8 45.5 51.45 Q46.2 50.85 46.15 49.95 46.05 48.8 45.15 48.6 L45.85 48.4 46.55 48.35 Q47.0 48.25 46.95 47.8 L47.05 47.6 47.95 47.35 47.7 47.2 46.9 47.0 Q46.35 47.15 45.9 47.5 L45.7 47.5 Q44.8 47.8 44.45 48.6 M55.9 37.4 L55.9 37.35 55.85 37.35 55.9 37.4 M53.6 46.8 L53.05 46.9 53.0 46.95 Q52.65 47.0 52.45 47.2 L54.25 47.55 54.45 47.55 55.4 47.6 Q54.35 48.5 54.3 49.95 L54.35 50.35 54.4 50.3 54.85 50.35 Q56.05 50.35 56.35 49.25 L56.4 48.2 55.95 47.4 Q55.25 47.25 54.95 46.75 L54.95 46.7 54.9 46.7 55.0 46.65 54.85 46.7 54.6 46.6 53.9 46.75 53.95 46.75 53.65 46.75 53.6 46.8 M50.95 57.5 L50.75 57.5 50.5 57.45 50.3 57.45 49.95 57.55 49.3 58.45 49.05 58.8 48.75 59.35 48.85 59.8 48.9 59.9 48.85 60.2 48.85 60.55 48.95 60.45 49.2 60.25 50.4 59.35 50.65 59.35 Q51.45 59.35 52.15 59.75 L52.25 59.25 52.35 59.15 52.2 58.9 52.15 58.75 Q51.95 57.7 50.95 57.5 M49.75 67.05 L49.7 67.05 49.6 67.25 49.45 67.55 49.1 68.6 49.05 69.0 49.9 68.4 50.05 68.3 Q51.3 68.0 52.25 68.7 L52.2 68.25 52.1 67.9 51.8 67.15 51.75 67.1 51.6 66.9 51.55 66.8 51.45 66.75 51.3 66.7 51.3 66.65 50.5 66.5 50.3 66.55 Q49.95 66.65 49.75 67.05" fill="#333333" fill-rule="evenodd" stroke="none"/>
    <path d="M73.55 81.8 Q73.9 82.3 73.6 83.2 L72.8 85.1 Q72.1 86.45 70.9 87.25 L70.4 87.5 Q67.65 87.9 67.05 85.3 L66.55 83.0 69.2 83.7 69.65 83.8 69.85 83.85 69.9 83.85 70.1 83.9 71.55 83.8 73.05 83.45 73.55 81.8 M30.65 78.65 L31.8 78.85 Q31.95 79.15 32.45 79.15 L32.65 79.15 33.2 79.2 32.9 80.15 32.75 80.2 Q32.75 81.85 32.2 83.3 L31.95 83.85 31.3 84.3 Q29.5 84.5 28.5 82.95 L28.35 82.7 28.3 82.65 28.05 82.35 Q26.7 81.0 25.95 79.35 L26.05 78.4 26.5 74.85 26.6 74.35 27.45 75.45 27.5 75.5 27.6 75.7 Q28.55 77.7 30.55 78.6 L30.65 78.65 M35.35 46.25 L35.35 43.5 Q35.85 44.0 36.6 44.15 L37.8 44.15 38.0 44.1 37.75 44.1 38.3 44.1 40.0 43.65 40.3 43.5 40.4 43.4 40.75 42.8 Q41.35 42.9 41.85 42.25 42.35 41.55 42.2 40.65 L42.05 40.1 42.05 40.05 Q42.2 38.9 41.0 38.9 L38.3 39.15 37.65 39.15 36.85 39.3 Q35.9 39.65 35.35 40.35 L35.35 38.7 Q36.25 38.05 37.2 37.75 L37.75 37.7 38.3 37.75 39.45 37.5 40.55 35.2 40.75 34.85 41.45 33.8 Q41.85 33.4 42.4 33.45 L42.65 32.95 43.0 32.15 42.95 32.15 43.05 31.9 43.0 32.05 43.25 32.05 43.5 31.8 43.85 31.2 45.05 30.35 45.3 29.8 45.45 29.8 45.45 29.7 45.5 29.4 45.5 29.3 45.3 29.0 45.25 28.8 45.2 28.75 45.2 28.7 45.05 28.55 44.85 28.35 Q45.0 27.2 46.3 26.75 L47.05 26.35 Q47.3 26.2 47.5 26.2 L49.7 27.45 50.2 27.7 50.1 28.0 Q49.8 29.25 50.9 29.85 L52.7 29.95 53.7 29.15 54.15 29.6 55.2 30.3 Q58.7 31.5 62.5 31.15 L63.0 31.1 63.85 30.85 64.1 30.7 Q65.25 30.15 65.95 31.1 L66.25 31.6 65.2 31.1 64.75 31.4 Q63.6 32.8 64.4 34.6 L64.0 35.2 Q63.15 36.8 63.25 38.6 60.55 41.55 59.55 45.4 L58.8 45.8 Q57.8 46.4 56.6 46.5 L56.1 46.55 Q55.45 46.15 54.6 46.05 53.6 46.2 52.75 46.8 L52.4 46.8 52.35 46.8 52.0 44.85 Q52.75 43.3 52.55 41.6 52.5 41.0 52.1 40.55 51.65 40.1 51.5 39.45 51.35 38.55 50.8 37.75 50.35 37.15 50.3 36.45 50.25 34.3 48.4 33.75 L48.35 33.75 48.25 33.8 48.1 33.9 48.05 34.05 47.95 35.15 Q47.75 37.3 47.9 39.5 47.65 40.0 47.75 40.5 48.05 42.7 48.85 44.75 L48.65 45.65 48.65 45.8 48.6 45.8 Q48.45 45.85 48.35 46.0 L47.9 46.8 47.7 47.15 47.8 46.95 46.4 46.7 45.3 47.1 44.6 47.3 44.15 47.8 Q43.45 48.55 43.3 49.45 42.25 48.85 41.05 48.75 L40.4 49.35 Q39.45 48.6 38.3 48.15 L37.8 48.0 Q36.8 46.85 35.35 46.25 M60.45 39.0 L60.05 39.3 60.3 39.25 60.55 39.2 Q61.6 38.35 61.8 36.95 61.9 35.7 61.05 34.9 59.95 33.8 58.4 33.9 56.85 33.85 55.7 34.8 L54.95 35.3 Q54.35 35.65 54.4 36.35 L54.3 36.5 Q54.1 36.9 54.2 37.25 54.05 38.05 54.7 38.6 55.75 39.55 57.2 39.45 L59.95 39.35 60.45 39.0 M69.7 86.35 L69.65 86.35 69.7 86.35" fill="#c7af52" fill-rule="evenodd" stroke="none"/>
    <path d="M35.35 49.35 L35.35 48.65 37.2 48.8 38.3 49.85 38.4 49.95 Q39.65 51.1 41.2 51.7 L42.95 54.2 Q43.3 54.7 43.85 54.8 45.25 55.15 46.05 53.8 L46.2 53.8 46.3 53.8 47.6 54.45 47.9 54.6 48.0 55.35 48.45 56.15 48.45 57.5 48.5 58.5 48.6 58.85 48.5 58.55 Q48.2 59.4 48.4 60.3 L48.45 60.55 48.55 60.9 48.8 61.2 49.1 61.55 49.6 61.85 50.1 62.15 50.35 62.2 50.5 62.25 50.8 62.2 52.05 61.6 52.1 61.5 52.45 61.1 52.6 60.6 52.55 59.6 52.55 59.7 52.6 59.5 52.75 59.45 53.0 59.6 54.2 59.5 54.35 59.3 Q54.75 58.85 54.65 58.3 L54.15 56.85 Q55.8 55.95 56.8 54.35 L60.8 48.1 61.0 47.65 62.55 43.25 63.35 41.5 63.95 40.35 64.5 39.35 Q64.95 38.5 65.65 37.9 67.1 36.55 66.1 35.05 L66.15 34.7 66.15 34.0 66.1 32.75 66.25 31.7 66.25 31.6 65.95 31.1 Q65.25 30.15 64.1 30.7 L63.85 30.85 63.0 31.1 62.5 31.15 Q58.7 31.5 55.2 30.3 L54.15 29.6 53.7 29.15 54.2 28.4 54.25 28.35 54.7 28.75 54.75 28.8 Q55.95 29.45 57.35 29.65 L64.05 30.45 64.35 30.25 66.15 30.55 66.85 31.75 67.0 32.1 67.4 32.55 Q67.85 35.05 66.65 37.4 L65.05 40.6 64.75 41.05 64.65 41.55 64.3 42.6 Q63.35 45.4 62.0 48.05 L59.55 51.9 58.95 52.55 Q58.15 53.3 57.55 54.2 L57.25 54.8 57.2 54.85 56.15 56.45 Q55.85 56.8 55.8 57.25 55.6 58.9 54.25 59.75 53.4 61.95 51.2 62.9 50.35 63.3 49.9 62.7 L49.45 62.75 48.95 62.45 Q48.1 61.35 47.75 60.0 47.4 58.6 47.95 57.25 L47.95 57.2 46.75 55.55 46.35 55.1 44.7 55.35 43.9 55.45 42.6 54.7 40.9 52.95 38.3 50.85 37.85 50.55 Q36.7 49.75 35.35 49.35 M35.35 38.7 L35.35 37.95 37.1 37.15 38.3 36.6 38.45 36.5 38.85 36.25 39.8 35.2 Q40.0 34.65 40.35 34.15 L41.65 32.9 41.75 32.65 42.2 31.9 42.45 31.75 42.55 31.65 43.15 31.65 43.25 31.2 43.3 31.2 43.85 31.2 43.5 31.8 43.25 32.05 43.0 32.05 43.05 31.9 42.95 32.15 43.0 32.15 42.65 32.95 42.4 33.45 Q41.85 33.4 41.45 33.8 L40.75 34.85 40.55 35.2 39.45 37.5 38.3 37.75 37.75 37.7 37.2 37.75 Q36.25 38.05 35.35 38.7" fill="#663300" fill-rule="evenodd" stroke="none"/>
    <path d="M35.35 48.65 L35.35 46.25 Q36.8 46.85 37.8 48.0 L38.3 48.15 Q39.45 48.6 40.4 49.35 L41.05 48.75 Q42.25 48.85 43.3 49.45 L43.55 49.65 43.3 49.5 43.2 50.0 43.2 50.25 Q43.25 51.3 44.2 51.75 L45.3 51.85 45.45 51.85 45.85 51.55 45.9 51.55 45.95 51.4 47.45 51.05 47.9 50.75 48.4 50.05 Q49.0 48.6 48.3 47.25 L47.9 46.8 48.35 46.0 Q48.45 45.85 48.6 45.8 L48.65 45.8 48.65 45.65 48.85 44.75 Q48.05 42.7 47.75 40.5 47.65 40.0 47.9 39.5 47.75 37.3 47.95 35.15 L48.05 34.05 48.1 33.9 48.25 33.8 48.35 33.75 48.4 33.75 Q50.25 34.3 50.3 36.45 50.35 37.15 50.8 37.75 51.35 38.55 51.5 39.45 51.65 40.1 52.1 40.55 52.5 41.0 52.55 41.6 52.75 43.3 52.0 44.85 L52.35 46.8 52.4 46.8 52.0 47.45 Q51.8 48.0 51.95 48.6 L52.55 49.4 53.3 50.35 53.7 50.6 54.1 51.0 55.1 51.1 56.05 50.7 56.15 50.8 56.3 50.55 Q56.85 50.1 57.0 49.45 L57.05 49.35 57.0 49.3 Q57.2 48.1 56.75 47.5 L56.35 47.1 56.15 46.7 56.05 46.55 56.1 46.55 56.6 46.5 Q57.8 46.4 58.8 45.8 L59.55 45.4 Q60.55 41.55 63.25 38.6 63.15 36.8 64.0 35.2 L64.4 34.6 Q63.6 32.8 64.75 31.4 L65.2 31.1 66.25 31.6 66.25 31.7 66.1 32.75 66.15 34.0 66.15 34.7 66.1 35.05 Q67.1 36.55 65.65 37.9 64.95 38.5 64.5 39.35 L63.95 40.35 63.35 41.5 62.55 43.25 61.0 47.65 60.8 48.1 56.8 54.35 Q55.8 55.95 54.15 56.85 L54.65 58.3 Q54.75 58.85 54.35 59.3 L54.2 59.5 53.0 59.6 52.8 58.45 52.65 58.2 Q51.65 56.85 49.95 56.75 49.7 56.7 49.5 56.9 49.15 57.15 48.95 57.55 L48.8 57.75 48.55 58.6 48.6 58.85 48.5 58.5 48.45 57.5 48.45 56.15 48.0 55.35 47.9 54.6 47.6 54.45 46.3 53.8 46.2 53.8 46.05 53.8 Q45.25 55.15 43.85 54.8 43.3 54.7 42.95 54.2 L41.2 51.7 Q39.65 51.1 38.4 49.95 L38.3 49.85 37.2 48.8 35.35 48.65 M53.6 46.8 L53.65 46.75 53.95 46.75 53.9 46.75 53.6 46.8 M54.85 46.7 L55.0 46.65 54.9 46.7 54.95 46.7 54.85 46.7" fill="#996633" fill-rule="evenodd" stroke="none"/>
    <path d="M35.35 56.4 L35.35 57.5 34.8 57.5 33.55 55.6 33.0 55.05 Q31.9 54.05 30.35 53.5 L26.45 52.05 23.15 50.9 Q21.35 50.15 20.9 48.25 20.4 45.75 20.95 43.45 L21.0 42.35 Q21.2 41.45 21.8 40.75 L22.15 40.35 Q23.85 39.3 25.8 38.6 L30.35 36.9 32.2 34.65 33.7 33.6 Q34.5 33.25 35.35 33.05 L35.35 33.75 33.55 34.25 33.45 34.35 Q32.5 35.2 31.8 36.3 L31.75 36.3 31.6 36.55 31.55 36.6 31.55 36.65 31.5 36.75 31.4 36.8 31.05 37.1 30.4 37.2 30.15 37.35 28.55 38.1 27.6 38.5 26.1 39.15 24.7 39.75 22.8 40.65 22.45 41.3 21.65 43.3 21.55 44.0 21.5 44.0 21.5 44.25 21.5 44.4 21.5 44.6 Q21.4 45.3 21.45 46.05 L21.65 47.4 21.75 47.75 21.8 47.9 22.05 48.6 22.25 49.05 Q25.75 51.95 30.8 52.1 L33.0 53.7 33.35 53.65 33.55 54.2 33.6 54.25 34.35 55.05 34.8 55.6 35.35 56.4" fill="#000000" fill-rule="evenodd" stroke="none"/>
    <path d="M35.35 36.85 L35.35 37.95 34.5 38.45 Q32.9 39.5 32.3 41.2 L32.05 42.0 Q31.7 43.5 31.95 45.0 32.0 45.4 32.2 45.6 32.05 46.3 32.35 47.0 32.9 48.3 34.1 48.9 L34.45 49.1 35.35 49.35 35.35 56.4 34.8 55.6 34.35 55.05 33.6 54.25 33.55 54.2 33.35 53.65 33.0 53.7 30.8 52.1 Q25.75 51.95 22.25 49.05 L22.05 48.6 21.8 47.9 21.75 47.75 22.8 47.85 28.7 48.35 28.1 48.3 29.1 47.75 29.85 47.35 Q29.7 45.7 31.0 44.65 L31.6 44.05 Q31.65 43.55 31.85 43.0 L31.45 41.85 30.35 40.0 30.15 39.45 30.15 39.4 30.25 38.8 30.45 38.35 30.45 37.85 30.65 37.25 31.05 37.1 31.4 36.8 31.5 36.75 31.55 36.65 31.55 36.6 31.6 36.55 31.75 36.3 31.8 36.3 33.2 36.55 33.25 36.6 33.85 36.75 35.35 36.85" fill="#666633" fill-rule="evenodd" stroke="none"/>
    <path d="M35.35 33.75 L35.35 36.85 33.85 36.75 33.25 36.6 33.2 36.55 31.8 36.3 Q32.5 35.2 33.45 34.35 L33.55 34.25 35.35 33.75 M21.75 47.75 L21.65 47.4 21.45 46.05 Q21.4 45.3 21.5 44.6 L21.5 44.4 21.5 44.25 21.5 44.0 21.55 44.0 21.65 43.3 22.45 41.3 22.8 40.65 24.7 39.75 26.1 39.15 27.6 38.5 28.55 38.1 30.15 37.35 30.4 37.2 31.05 37.1 30.65 37.25 30.45 37.85 30.45 38.35 30.25 38.8 30.15 39.4 30.15 39.45 30.35 40.0 31.45 41.85 31.85 43.0 Q31.65 43.55 31.6 44.05 L31.0 44.65 Q29.7 45.7 29.85 47.35 L29.1 47.75 28.1 48.3 28.7 48.35 22.8 47.85 21.75 47.75" fill="#999966" fill-rule="evenodd" stroke="none"/>
    <path d="M35.35 37.95 L35.35 38.7 34.75 39.15 34.35 39.65 Q33.65 40.75 33.1 41.95 L32.75 42.75 Q32.35 43.6 32.5 44.5 L32.65 45.35 32.65 45.4 32.85 46.15 Q33.7 48.1 35.35 48.65 L35.35 49.35 34.45 49.1 34.1 48.9 Q32.9 48.3 32.35 47.0 32.05 46.3 32.2 45.6 32.0 45.4 31.95 45.0 31.7 43.5 32.05 42.0 L32.3 41.2 Q32.9 39.5 34.5 38.45 L35.35 37.95" fill="#663300" fill-rule="evenodd" stroke="none"/>
    <path d="M35.35 38.7 L35.35 40.35 Q35.0 40.8 34.8 41.45 34.6 42.0 34.8 42.5 L35.35 43.5 35.35 46.25 33.9 45.8 Q34.2 44.6 33.9 43.45 33.65 42.55 33.1 41.95 33.65 40.75 34.35 39.65 L34.75 39.15 35.35 38.7" fill="#c7af52" fill-rule="evenodd" stroke="none"/>
    <path d="M35.35 42.0 L35.35 43.0 35.25 42.45 35.35 42.0" fill="#cccccc" fill-rule="evenodd" stroke="none"/>
    <path d="M35.35 40.35 L35.35 42.0 35.25 42.45 35.35 43.0 35.35 43.5 34.8 42.5 Q34.6 42.0 34.8 41.45 35.0 40.8 35.35 40.35" fill="#333333" fill-rule="evenodd" stroke="none"/>
    <path d="M35.35 46.25 L35.35 48.65 Q33.7 48.1 32.85 46.15 L32.65 45.4 32.65 45.35 32.5 44.5 Q32.35 43.6 32.75 42.75 L33.1 41.95 Q33.65 42.55 33.9 43.45 34.2 44.6 33.9 45.8 L35.35 46.25" fill="#996633" fill-rule="evenodd" stroke="none"/>
  </g>
</svg>
