<?xml version="1.0" encoding="UTF-8" standalone="no"?>
<svg xmlns:xlink="http://www.w3.org/1999/xlink" height="90.2px" width="58.3px" xmlns="http://www.w3.org/2000/svg">
  <g transform="matrix(1.0, 0.0, 0.0, 1.0, -20.65, -6.9)">
    <path d="M48.35 20.8 Q49.9 21.05 51.35 21.75 L53.05 20.85 Q54.55 19.95 56.25 20.1 57.45 20.35 56.75 21.45 L56.7 21.55 56.55 22.05 55.9 23.45 57.3 25.15 57.4 25.35 Q58.05 24.6 58.95 24.05 L62.7 21.95 64.25 21.25 64.6 19.4 63.85 18.65 Q62.6 17.25 62.55 15.45 L62.65 14.95 62.8 14.65 Q63.05 14.3 63.45 14.35 L65.15 14.65 65.75 11.7 65.7 10.5 Q65.4 9.05 65.65 7.6 65.65 7.45 65.8 7.4 L66.05 7.2 68.75 8.0 69.45 7.4 Q70.25 7.0 71.15 6.9 72.95 7.1 74.15 8.45 L74.35 8.65 74.55 8.8 75.9 8.85 75.95 8.75 76.45 8.65 76.45 8.6 Q77.6 9.0 77.15 10.3 L76.7 11.35 76.25 12.5 75.8 13.45 76.05 14.05 76.35 15.4 76.45 16.55 77.75 16.05 Q78.55 16.05 78.7 16.5 79.05 16.8 78.9 17.45 78.7 18.8 77.95 19.95 L76.95 21.3 77.0 21.6 77.05 23.1 77.1 24.6 77.1 25.15 76.75 28.0 75.15 32.3 75.05 32.6 74.5 34.45 74.15 35.5 71.95 41.0 71.1 43.3 71.0 43.9 70.3 49.75 69.9 55.65 Q69.75 58.6 69.2 61.5 L68.45 64.3 67.6 66.25 69.25 69.8 70.35 71.85 70.6 72.4 Q71.35 75.3 71.7 78.2 71.95 80.6 71.75 82.95 71.65 84.05 71.7 85.15 71.8 86.6 71.3 87.95 L71.2 88.35 Q70.7 90.35 69.65 92.15 69.5 94.05 68.05 95.4 L67.55 96.05 Q66.35 97.75 64.3 96.75 63.85 96.55 63.55 96.1 62.75 94.85 62.7 93.4 62.6 91.55 62.95 89.8 L63.05 89.05 Q63.0 85.85 61.15 83.25 L59.9 81.8 58.6 80.4 53.95 80.2 Q51.2 79.9 48.85 78.6 47.8 78.0 46.65 77.75 L42.75 76.75 40.15 75.75 Q38.3 74.8 36.3 73.95 35.5 73.65 34.8 74.3 L34.1 74.8 Q31.0 76.25 27.8 74.85 26.95 74.5 26.45 73.75 25.45 72.2 25.75 70.4 L25.9 70.05 Q25.9 69.3 26.05 68.6 26.3 67.3 27.25 66.3 L27.8 65.8 28.7 64.75 30.45 63.4 Q31.0 63.05 31.5 62.9 L31.65 62.8 Q33.9 62.55 35.95 63.35 L36.5 63.5 37.45 63.65 37.55 62.75 37.2 61.7 37.1 61.35 Q35.3 59.85 34.8 57.55 33.45 54.6 30.35 53.5 L26.45 52.05 23.15 50.9 Q21.35 50.15 20.9 48.25 20.4 45.75 20.95 43.45 L21.0 42.35 Q21.2 41.45 21.8 40.75 L22.15 40.35 Q23.85 39.3 25.8 38.6 L30.35 36.9 32.2 34.65 33.7 33.6 Q35.55 32.75 37.6 32.7 37.9 31.55 38.65 30.5 37.7 28.65 38.15 26.75 38.45 25.4 39.7 24.6 L40.05 24.4 38.55 21.35 38.55 20.95 38.8 20.65 38.9 20.6 38.95 20.6 39.15 20.4 40.85 21.0 Q41.55 21.2 42.25 21.7 L42.95 22.1 43.45 21.7 Q44.1 21.25 44.85 21.05 L46.05 20.85 46.05 20.8 46.15 20.8 46.6 20.7 48.35 20.8 M72.9 11.2 L72.75 11.65 Q72.65 12.4 72.95 12.85 L73.1 13.05 73.9 13.3 74.0 13.3 74.1 13.3 74.15 13.3 74.25 13.3 74.45 13.25 74.65 13.25 75.15 13.0 75.2 12.95 75.3 12.9 75.35 12.85 75.85 12.5 75.95 11.6 76.35 9.5 76.0 9.4 75.95 9.4 75.7 9.55 75.35 9.75 75.3 9.75 74.85 9.85 74.35 10.1 73.65 10.4 73.15 10.8 73.05 10.9 72.9 11.2 M74.1 13.95 L74.1 13.8 Q73.5 13.85 73.1 13.4 L72.5 12.85 72.45 12.7 Q72.15 11.9 72.55 11.1 L72.65 11.0 72.7 10.95 72.65 10.9 72.8 10.7 Q73.25 10.1 73.85 9.8 L74.1 9.7 73.95 9.5 Q72.8 8.05 70.95 7.55 L69.45 8.25 Q68.95 8.5 68.55 8.85 L68.4 9.0 67.7 9.7 67.5 9.95 67.15 10.45 66.85 10.95 66.65 11.4 Q65.95 12.85 65.7 14.8 L65.65 15.1 65.7 14.85 Q66.75 15.2 67.7 15.9 L67.8 15.95 67.8 16.0 68.15 16.45 Q68.5 17.2 68.3 18.05 L67.6 19.05 67.25 19.2 65.4 19.3 65.25 19.25 65.2 19.8 65.1 20.65 65.1 20.9 65.1 21.05 64.65 21.3 64.2 21.55 Q60.85 23.45 57.75 26.4 L57.7 26.45 57.25 26.9 56.85 27.35 56.5 27.4 56.35 27.25 56.6 26.45 56.6 25.15 Q56.55 24.8 56.3 24.6 L55.6 23.95 54.8 23.3 54.7 23.25 54.75 23.15 55.0 22.85 55.45 22.35 55.6 22.1 55.65 22.05 Q55.85 21.55 56.2 21.15 L56.4 20.95 56.2 20.4 54.5 21.05 52.9 21.7 52.75 21.8 52.35 22.25 52.0 22.7 51.6 23.7 51.6 23.85 51.65 24.45 51.4 24.45 51.15 24.15 Q50.9 23.45 51.1 22.75 L51.25 22.3 51.0 22.15 50.65 22.05 50.45 21.95 49.3 21.55 48.2 21.05 45.7 21.35 45.2 21.4 44.0 22.4 43.7 22.7 43.65 22.7 43.5 22.9 43.55 22.95 43.65 23.05 43.9 23.25 44.0 23.6 Q44.2 24.6 43.65 25.35 L43.55 25.4 43.45 25.4 43.4 25.45 43.35 25.5 43.3 25.5 43.45 25.15 43.5 24.8 43.4 23.75 43.35 23.55 43.2 23.15 42.65 22.35 42.5 22.2 40.55 21.4 40.05 21.2 39.7 21.1 39.15 20.9 38.95 21.25 39.45 21.9 39.9 22.45 40.55 23.65 40.7 24.1 40.65 24.2 41.0 24.7 40.4 25.05 39.35 25.8 39.2 26.0 39.15 26.05 39.1 26.1 38.9 26.4 38.8 26.55 38.7 27.3 38.7 27.35 38.85 28.25 39.3 30.2 39.55 30.85 38.95 31.95 38.65 32.5 38.4 33.05 37.8 33.25 37.45 33.35 36.65 33.45 36.1 33.5 35.85 33.6 33.55 34.25 33.45 34.35 Q32.5 35.2 31.8 36.3 L31.75 36.3 31.6 36.55 31.55 36.6 31.55 36.65 31.5 36.75 31.4 36.8 31.05 37.1 30.4 37.2 30.15 37.35 28.55 38.1 27.6 38.5 26.1 39.15 24.7 39.75 22.8 40.65 22.45 41.3 21.65 43.3 21.55 44.0 21.5 44.0 21.5 44.25 21.5 44.4 21.5 44.6 Q21.4 45.3 21.45 46.05 L21.65 47.4 21.75 47.75 21.8 47.9 22.05 48.6 22.25 49.05 Q25.75 51.95 30.8 52.1 L33.0 53.7 33.35 53.65 33.55 54.2 33.6 54.25 Q34.75 55.35 35.6 56.8 36.2 57.85 36.3 59.2 L38.7 61.85 38.65 62.45 38.6 63.8 38.7 64.85 38.8 64.95 38.75 64.95 38.55 64.9 38.5 64.9 37.45 64.6 31.7 63.5 31.55 63.6 Q30.9 63.85 30.35 64.4 L30.0 64.75 29.75 64.95 Q28.8 65.2 28.25 66.1 L27.95 66.75 27.85 66.8 Q27.35 67.15 27.1 67.65 26.6 68.45 26.7 69.65 L26.8 70.25 26.8 70.3 26.6 70.95 26.6 71.2 27.0 72.7 27.25 73.3 28.0 74.0 Q29.0 74.5 30.1 74.55 L30.55 74.7 31.8 74.7 31.85 74.7 32.0 74.35 Q33.6 73.9 34.85 72.7 L35.1 72.4 36.1 72.6 Q38.4 73.1 40.5 74.75 41.5 75.5 42.8 75.7 L43.5 75.85 Q47.4 76.6 51.05 77.95 L51.1 77.95 51.65 78.2 52.8 78.65 55.65 78.65 57.4 78.85 57.75 78.9 58.05 78.95 58.15 78.95 59.15 79.05 60.5 81.1 61.0 81.85 63.25 85.35 63.6 85.9 63.9 86.35 63.9 88.5 Q63.85 89.6 64.1 90.4 63.95 91.05 64.1 91.55 L64.0 91.7 Q63.2 93.7 64.35 95.35 65.5 97.05 66.85 95.45 L67.75 94.15 67.85 94.05 68.05 93.65 68.9 91.85 69.05 91.35 69.65 90.5 69.75 90.35 70.4 88.85 Q70.9 87.3 70.9 85.6 L70.8 84.3 Q71.55 81.05 70.8 77.4 69.7 71.85 66.85 67.45 L66.2 66.45 66.25 66.35 66.9 65.15 66.95 65.05 67.0 65.0 67.8 63.1 Q68.1 60.45 68.9 58.05 L68.9 57.15 Q69.05 54.1 69.35 51.1 L69.25 50.9 69.4 50.75 69.75 47.35 69.9 46.2 69.9 46.15 70.25 43.6 70.45 42.35 70.85 41.5 71.5 39.15 71.7 38.75 72.0 37.8 73.0 34.75 74.4 30.9 75.9 27.1 75.85 26.9 75.85 26.75 Q76.2 25.5 76.2 24.05 L76.15 22.15 76.15 21.7 74.7 22.2 73.35 22.1 73.15 22.0 73.15 21.9 Q72.5 21.75 72.25 21.0 71.95 20.15 72.4 19.3 L73.0 18.65 73.25 18.55 73.45 18.35 74.3 17.75 74.3 17.95 74.4 17.85 74.55 17.65 75.85 17.0 75.85 16.8 75.55 13.95 75.5 13.55 75.4 13.15 75.45 13.3 74.7 13.85 74.1 13.95 M66.85 10.05 L67.45 9.15 68.1 8.45 66.95 8.05 66.5 7.9 66.3 9.15 66.15 10.2 66.15 10.35 66.4 10.95 Q66.5 10.45 66.9 10.1 L66.85 10.05 M68.3 10.9 Q68.25 10.5 68.5 10.2 L68.7 10.15 69.05 10.35 68.95 10.45 68.95 10.5 69.2 10.45 69.25 10.5 Q70.7 10.95 71.25 12.6 L71.4 13.15 71.4 13.3 Q71.35 14.25 70.35 14.6 69.5 15.0 68.95 14.45 L68.95 14.4 Q68.6 14.3 68.6 13.9 L68.5 12.45 68.35 11.9 Q68.2 11.5 68.2 11.1 L68.2 11.05 68.25 10.9 68.3 10.9 M70.8 13.45 L70.85 13.45 70.75 12.95 70.65 12.6 70.3 11.8 69.45 10.95 68.8 10.5 68.65 10.55 68.65 10.65 Q68.65 12.25 69.05 13.7 L69.1 13.95 69.4 14.0 69.85 14.2 70.7 13.8 70.75 13.75 70.8 13.45 M67.1 18.65 L67.3 18.55 67.35 18.55 67.4 18.5 Q67.85 18.2 67.95 17.55 L68.0 17.3 67.8 16.55 67.05 16.05 66.2 15.75 65.6 15.5 65.05 15.3 65.0 15.25 64.25 15.2 63.35 15.15 63.1 15.45 63.15 15.5 63.3 15.85 63.45 16.2 64.65 18.25 64.9 18.35 65.3 18.55 65.8 18.7 66.8 18.75 67.1 18.65 M77.8 18.9 L78.05 17.85 78.3 16.9 78.05 16.75 77.8 16.8 77.45 17.0 76.4 17.4 75.9 17.6 74.8 18.25 74.5 18.35 74.35 18.4 74.0 18.5 Q72.95 18.85 72.75 19.8 L72.65 20.5 72.65 20.6 72.85 21.1 73.1 21.25 73.55 21.4 74.35 21.55 75.3 21.45 75.75 21.3 76.1 21.15 76.75 20.7 77.1 20.35 77.75 19.05 77.8 18.9 M44.55 27.6 L44.65 27.45 44.8 27.2 45.4 26.6 Q46.15 25.95 47.1 25.9 49.15 25.85 50.9 27.0 L51.25 27.3 51.05 27.5 50.9 27.75 50.4 27.7 50.35 27.7 50.2 27.7 49.7 27.45 47.5 26.2 Q47.3 26.2 47.05 26.35 L46.3 26.75 Q45.0 27.2 44.85 28.35 L45.05 28.55 45.2 28.7 45.2 28.75 45.25 28.8 45.05 28.95 44.35 28.1 44.45 27.7 44.5 27.65 44.55 27.6" fill="#000000" fill-rule="evenodd" stroke="none"/>
    <path d="M44.85 21.05 L44.95 21.0 46.15 20.65 48.35 20.8 46.6 20.7 46.15 20.8 46.05 20.8 46.05 20.85 44.85 21.05 M72.9 11.2 L73.05 10.9 73.15 10.8 72.9 11.2 M73.85 9.8 Q73.25 10.1 72.8 10.7 L72.65 10.9 72.7 10.95 72.65 11.0 72.55 11.1 Q72.15 11.9 72.45 12.7 L72.5 12.85 73.1 13.4 Q73.5 13.85 74.1 13.8 L74.1 13.95 74.1 14.25 74.15 14.55 74.15 14.9 74.2 15.35 74.25 16.95 74.3 17.4 74.3 17.75 73.45 18.35 73.25 18.55 73.0 18.65 72.4 19.3 Q71.95 20.15 72.25 21.0 72.5 21.75 73.15 21.9 L73.15 22.0 73.1 22.05 72.75 22.05 72.55 22.05 72.45 21.95 Q72.1 21.6 71.6 21.65 71.0 22.0 71.3 22.65 71.6 23.45 72.45 23.5 L72.6 23.55 74.1 23.6 74.2 23.6 74.3 23.6 74.2 26.05 74.0 26.2 73.5 26.9 72.4 28.5 Q71.25 30.05 70.75 31.8 69.7 32.6 68.3 32.85 L68.1 32.8 Q67.75 32.6 67.4 32.55 L67.0 32.1 66.85 31.75 66.15 30.55 65.5 29.85 65.5 29.75 Q64.8 27.85 62.75 28.0 L60.65 28.65 60.5 28.7 60.1 28.75 59.15 29.0 58.95 28.9 57.7 28.05 57.5 27.9 57.45 27.85 57.1 27.5 57.0 27.35 57.25 26.9 57.7 26.45 57.75 26.4 Q60.85 23.45 64.2 21.55 L64.65 21.3 Q65.15 21.8 65.8 21.7 L66.45 21.5 66.8 21.15 67.0 21.0 67.1 20.8 68.95 20.15 69.5 19.45 Q69.75 18.55 68.8 18.55 L68.65 18.7 68.55 18.75 67.8 19.1 67.55 19.2 67.6 19.05 68.3 18.05 Q68.5 17.2 68.15 16.45 L67.8 16.0 67.8 15.95 67.85 15.7 67.7 15.9 Q66.75 15.2 65.7 14.85 L65.65 15.1 65.7 14.8 Q65.95 12.85 66.65 11.4 L66.85 10.95 67.15 10.45 67.5 9.95 67.7 9.7 68.4 9.0 68.55 8.85 Q68.95 8.5 69.45 8.25 L70.95 7.55 Q72.8 8.05 73.95 9.5 L73.85 9.8 M61.0 81.85 L60.5 81.1 60.95 81.75 61.05 81.75 61.0 81.85 M51.65 78.2 L51.1 77.95 51.65 78.15 51.65 78.2 M30.35 64.4 Q30.9 63.85 31.55 63.6 L31.7 63.5 37.45 64.6 38.5 64.9 38.5 65.0 Q38.7 65.75 39.2 66.35 L39.65 67.1 Q40.0 68.1 40.9 68.6 L41.9 68.55 Q42.6 68.15 42.55 67.25 L42.75 66.6 Q43.3 65.75 42.85 65.1 43.2 64.45 42.6 63.75 41.6 62.6 41.35 61.05 L40.85 59.8 38.85 57.6 38.9 57.5 38.9 56.95 38.7 56.3 38.65 56.15 38.5 55.65 38.4 54.85 40.2 53.7 39.9 53.55 40.2 53.7 42.6 54.7 43.9 55.45 45.2 56.3 Q45.6 58.1 46.5 59.8 48.05 62.8 49.05 66.0 L49.35 66.65 49.25 66.8 Q48.65 67.8 48.65 68.95 48.65 69.45 48.95 69.85 L49.2 70.1 49.35 70.2 49.2 70.0 Q49.7 70.65 50.65 70.4 L50.8 70.5 51.7 70.55 52.1 69.95 52.2 69.45 52.15 69.9 Q52.55 69.3 52.5 68.5 L52.3 67.05 52.15 66.65 53.35 66.45 Q54.45 65.15 54.45 63.5 L54.2 61.8 55.15 61.1 55.8 60.45 57.45 58.15 58.05 56.8 Q58.75 54.25 60.05 51.95 L60.55 51.2 62.95 48.15 Q63.65 47.15 63.75 45.95 63.95 43.95 65.25 42.55 L66.55 42.8 66.95 43.45 66.9 43.6 66.95 47.7 67.0 48.75 Q67.0 52.65 65.15 56.1 L64.55 57.05 Q63.4 58.8 63.2 60.75 L63.15 60.8 63.1 61.45 63.1 61.8 Q63.1 62.1 63.25 62.3 L64.7 64.35 64.8 64.5 64.75 64.8 64.65 65.2 Q64.0 69.0 64.65 72.75 L64.6 73.0 Q63.95 76.5 60.3 77.2 59.65 77.3 59.4 77.75 58.45 76.5 56.85 75.8 56.3 75.55 55.7 75.4 L47.95 75.2 46.1 75.35 44.0 74.95 41.95 74.05 40.45 73.05 39.75 71.2 Q38.5 68.95 36.25 69.65 L36.05 69.55 Q35.05 68.95 33.75 69.25 L33.7 69.3 33.5 69.4 33.35 69.4 32.2 71.2 32.8 71.35 31.55 70.95 31.55 70.7 Q31.5 69.65 30.75 68.9 L30.85 68.65 30.95 68.45 30.9 68.35 30.4 67.8 30.3 67.55 30.2 67.35 30.7 66.4 31.0 65.5 Q31.05 64.8 30.4 64.4 L30.35 64.4 M21.75 47.75 L21.65 47.4 21.45 46.05 Q21.4 45.3 21.5 44.6 L21.5 44.4 21.5 44.25 21.5 44.0 21.55 44.0 21.65 43.3 22.45 41.3 22.8 40.65 24.7 39.75 26.1 39.15 27.6 38.5 28.55 38.1 30.15 37.35 30.4 37.2 31.05 37.1 30.65 37.25 30.45 37.85 30.45 38.35 30.25 38.8 30.15 39.4 30.15 39.45 30.35 40.0 31.45 41.85 31.85 43.0 Q31.65 43.55 31.6 44.05 L31.0 44.65 Q29.7 45.7 29.85 47.35 L29.1 47.75 28.1 48.3 28.7 48.35 22.8 47.85 21.75 47.75 M31.8 36.3 Q32.5 35.2 33.45 34.35 L33.55 34.25 35.85 33.6 36.1 33.5 36.65 33.45 37.45 33.35 37.8 33.25 37.85 34.6 37.85 34.85 37.95 35.45 38.0 35.65 Q36.55 35.9 35.6 36.8 L33.85 36.75 33.25 36.6 33.2 36.55 31.8 36.3 M38.95 31.95 L39.55 30.85 39.3 30.2 Q39.85 30.15 40.25 29.75 L40.6 30.05 41.25 30.25 42.65 31.05 43.25 31.2 43.15 31.65 42.55 31.65 42.45 31.75 42.2 31.9 Q41.5 32.2 40.95 32.65 L40.2 32.4 40.1 32.35 38.95 31.95 M38.7 27.3 L38.8 26.55 38.75 26.85 38.8 27.1 38.7 27.3 M43.9 23.25 L43.65 23.05 43.55 22.95 43.5 22.9 43.65 22.7 43.7 22.7 44.0 22.4 45.2 21.4 45.7 21.35 48.2 21.05 49.3 21.55 50.45 21.95 Q49.95 23.0 48.55 23.1 L45.75 23.35 44.1 23.3 43.9 23.25 M51.4 24.45 L51.65 24.45 52.0 24.9 52.55 25.2 52.1 25.0 52.45 25.5 52.65 25.75 52.95 26.05 52.75 25.85 Q51.85 26.05 51.1 26.45 L50.95 26.6 50.75 26.9 50.9 27.0 Q49.15 25.85 47.1 25.9 46.15 25.95 45.4 26.6 L44.8 27.2 44.65 27.45 44.55 27.6 44.5 27.55 44.1 27.25 Q43.1 26.55 42.0 26.4 L41.9 26.4 42.0 26.3 42.1 26.25 42.25 26.2 42.3 26.25 42.3 26.2 42.85 26.0 Q44.25 25.55 45.7 25.25 L49.3 24.6 51.4 24.45 M68.3 10.9 L68.25 10.9 68.2 11.05 68.2 11.1 Q68.2 11.5 68.35 11.9 L68.5 12.45 68.6 13.9 Q68.6 14.3 68.95 14.4 L68.95 14.45 Q69.5 15.0 70.35 14.6 71.35 14.25 71.4 13.3 L71.4 13.15 71.25 12.6 Q70.7 10.95 69.25 10.5 L69.2 10.45 68.95 10.5 68.95 10.45 69.05 10.35 68.7 10.15 68.5 10.2 Q68.25 10.5 68.3 10.9 M70.75 15.0 Q70.1 15.45 69.3 15.35 L69.1 15.5 Q68.75 16.25 69.6 16.5 L71.25 16.4 72.0 15.7 Q72.4 14.9 71.6 14.65 71.15 14.75 70.75 15.0 M55.9 37.35 L55.9 37.4 55.85 37.35 55.9 37.35 M57.0 49.3 L57.05 49.35 57.0 49.45 57.0 49.3 M56.3 50.55 L56.15 50.8 56.05 50.7 56.3 50.55" fill="#999966" fill-rule="evenodd" stroke="none"/>
    <path d="M74.65 13.25 L74.45 13.25 74.25 13.3 74.15 13.3 74.1 13.3 74.0 13.3 73.9 13.3 73.1 13.05 72.95 12.85 Q72.65 12.4 72.75 11.65 L72.9 11.2 73.15 10.8 73.65 10.4 74.35 10.1 74.85 9.85 75.3 9.75 75.35 9.75 75.7 9.55 75.4 10.7 74.75 12.7 74.7 12.85 74.65 13.25 M66.3 9.15 L66.5 7.9 66.95 8.05 68.1 8.45 67.45 9.15 66.85 10.05 66.3 9.15 M69.05 13.7 Q68.65 12.25 68.65 10.65 L68.65 10.55 68.8 10.5 69.45 10.95 70.3 11.8 70.65 12.6 70.75 12.95 70.85 13.45 70.8 13.45 70.6 13.55 69.05 13.6 69.05 13.7 M63.15 15.5 L63.1 15.45 63.35 15.15 64.25 15.2 65.0 15.25 65.05 15.3 65.6 15.5 66.2 15.75 67.05 16.05 67.8 16.55 68.0 17.3 67.95 17.55 Q67.85 18.2 67.4 18.5 L67.35 18.55 67.3 18.55 67.1 18.65 67.0 18.35 66.75 18.1 66.35 17.9 65.35 17.35 64.7 16.8 64.4 16.55 63.15 15.5 M72.85 21.1 L72.65 20.6 72.65 20.5 72.75 19.8 Q72.95 18.85 74.0 18.5 L74.35 18.4 74.5 18.35 74.8 18.25 75.9 17.6 76.4 17.4 77.45 17.0 77.8 16.8 78.05 16.75 78.3 16.9 78.05 17.85 77.8 18.9 Q76.7 19.5 75.75 20.25 L75.45 20.35 72.85 20.7 72.7 20.9 72.85 21.1 M51.25 27.3 L52.05 26.55 52.7 26.2 53.0 26.1 53.4 25.95 Q54.0 26.15 54.3 26.5 L54.5 26.85 Q54.65 27.4 54.3 28.25 L54.25 28.35 54.2 28.35 54.05 28.35 Q52.45 28.6 52.1 27.25 51.75 27.75 51.65 28.35 L51.45 28.7 50.7 29.3 50.6 28.8 50.75 28.0 50.8 27.9 50.85 27.8 50.9 27.75 51.05 27.5 51.25 27.3 M58.25 35.6 L58.1 35.6 57.6 35.9 56.45 36.1 54.9 36.2 54.6 36.1 Q54.9 35.65 55.5 35.65 55.65 35.25 56.0 35.15 L56.75 34.95 57.0 34.8 Q57.45 34.5 57.9 34.45 L58.1 34.5 58.45 34.35 Q60.05 34.4 60.75 35.15 L61.0 35.5 61.35 37.4 60.9 38.5 60.85 38.6 60.8 38.65 60.45 39.0 59.95 39.35 58.95 39.25 Q58.35 39.1 58.2 38.5 57.35 37.1 58.25 35.65 L58.3 35.6 58.25 35.6 M45.05 28.95 L45.15 29.15 45.3 29.7 44.15 28.8 43.25 28.85 43.05 28.5 42.65 28.05 42.45 28.0 42.45 28.4 42.0 29.45 Q41.3 29.8 40.55 29.45 40.05 29.2 39.9 28.75 L39.9 28.65 39.9 28.45 39.9 27.9 39.95 27.75 Q40.15 27.15 40.75 26.85 L41.05 26.85 41.15 26.85 41.2 26.75 41.55 26.75 41.75 26.8 41.8 26.8 42.8 27.1 42.95 27.15 43.7 27.55 43.7 27.6 43.75 27.6 44.35 28.1 45.05 28.95 M42.05 40.1 L41.8 40.1 41.55 40.1 40.45 39.95 40.5 40.3 40.6 40.65 40.4 41.15 Q39.85 41.3 39.5 40.85 L39.1 40.4 38.0 40.3 37.45 40.1 Q38.55 40.3 38.55 41.7 L38.35 42.6 37.7 43.45 36.6 43.8 35.5 43.15 35.35 43.0 35.25 42.45 Q35.55 40.8 36.7 40.05 37.35 39.6 38.4 39.45 L38.65 39.55 40.45 39.3 40.55 39.25 41.4 39.3 42.0 40.0 42.05 40.05 42.05 40.1 M44.45 48.6 Q44.8 47.8 45.7 47.5 L45.9 47.5 Q46.35 47.15 46.9 47.0 L47.7 47.2 47.95 47.35 47.05 47.6 46.95 47.8 Q47.0 48.25 46.55 48.35 L45.85 48.4 45.15 48.6 Q46.05 48.8 46.15 49.95 46.2 50.85 45.5 51.45 L44.9 51.8 44.85 51.8 44.7 51.7 44.6 51.65 44.15 51.3 43.9 50.85 43.75 50.05 43.75 49.8 Q43.85 49.2 44.4 48.75 L44.45 48.6 M54.95 46.7 L54.95 46.75 Q55.25 47.25 55.95 47.4 L56.4 48.2 56.35 49.25 Q56.05 50.35 54.85 50.35 L54.4 50.3 54.35 50.35 54.3 49.95 Q54.35 48.5 55.4 47.6 L54.45 47.55 54.25 47.55 52.45 47.2 Q52.65 47.0 53.0 46.95 L53.05 46.9 53.6 46.8 53.9 46.75 54.6 46.6 54.85 46.7 54.95 46.7 M50.95 57.5 Q51.95 57.7 52.15 58.75 L52.2 58.9 52.35 59.15 52.25 59.25 52.15 59.75 Q51.45 59.35 50.65 59.35 L50.4 59.35 49.2 60.25 48.95 60.45 48.85 60.55 48.85 60.2 48.9 59.9 48.85 59.8 48.75 59.35 49.05 58.8 49.3 58.45 49.95 57.55 50.3 57.45 50.5 57.45 50.75 57.5 50.95 57.5 M49.6 67.25 L49.7 67.05 49.75 67.05 Q49.95 66.65 50.3 66.55 L50.5 66.5 51.3 66.65 51.3 66.7 51.45 66.75 51.55 66.8 51.6 66.9 51.75 67.1 51.8 67.15 52.1 67.9 52.2 68.25 52.25 68.7 Q51.3 68.0 50.05 68.3 L49.9 68.4 49.05 69.0 49.1 68.6 49.45 67.55 49.6 67.25" fill="#cccccc" fill-rule="evenodd" stroke="none"/>
    <path d="M75.7 9.55 L75.95 9.4 76.0 9.4 76.35 9.5 75.95 11.6 75.85 12.5 75.35 12.85 75.3 12.9 75.2 12.95 75.15 13.0 74.65 13.25 74.7 12.85 74.75 12.7 75.4 10.7 75.7 9.55 M66.3 9.15 L66.85 10.05 66.9 10.1 Q66.5 10.45 66.4 10.95 L66.15 10.35 66.15 10.2 66.3 9.15 M70.8 13.45 L70.75 13.75 70.7 13.8 69.85 14.2 69.4 14.0 69.1 13.95 69.05 13.7 69.05 13.6 70.6 13.55 70.8 13.45 M67.1 18.65 L66.8 18.75 65.8 18.7 65.3 18.55 64.9 18.35 64.65 18.25 63.45 16.2 63.3 15.85 63.15 15.5 64.4 16.55 64.7 16.8 65.35 17.35 66.35 17.9 66.75 18.1 67.0 18.35 67.1 18.65 M77.8 18.9 L77.75 19.05 77.1 20.35 76.75 20.7 76.1 21.15 75.75 21.3 75.3 21.45 74.35 21.55 73.55 21.4 73.1 21.25 72.85 21.1 72.7 20.9 72.85 20.7 75.45 20.35 75.75 20.25 Q76.7 19.5 77.8 18.9 M42.3 26.2 L42.3 26.25 42.25 26.2 42.3 26.2 M54.2 28.4 L54.2 28.35 54.25 28.35 54.2 28.4 M58.25 35.65 L58.25 35.6 58.3 35.6 58.25 35.65 M42.0 40.0 L42.05 40.05 42.0 40.0 M37.8 44.15 L37.75 44.1 38.0 44.1 37.8 44.15 M42.05 40.1 L42.05 40.05 42.05 40.1 M49.2 70.0 L49.35 70.2 49.2 70.1 49.2 70.0" fill="#666666" fill-rule="evenodd" stroke="none"/>
    <path d="M74.1 13.95 L74.7 13.85 75.45 13.3 75.4 13.15 75.5 13.55 75.55 13.95 75.85 16.8 75.85 17.0 74.55 17.65 74.4 17.85 74.3 17.95 74.3 17.75 74.3 17.4 74.25 16.95 74.2 15.35 74.15 14.9 74.15 14.55 74.1 14.25 74.1 13.95 M73.15 22.0 L73.35 22.1 74.7 22.2 76.15 21.7 76.15 22.15 76.2 24.05 Q76.2 25.5 75.85 26.75 L75.85 26.9 75.9 27.1 74.4 30.9 73.0 34.75 72.0 37.8 71.7 38.75 71.5 39.15 70.85 41.5 70.45 42.35 70.25 43.6 69.9 46.15 69.9 46.2 69.75 47.35 69.4 50.75 69.25 50.9 69.35 51.1 Q69.05 54.1 68.9 57.15 L68.9 58.05 Q68.1 60.45 67.8 63.1 L67.0 65.0 66.95 65.05 66.9 65.15 66.25 66.35 66.2 66.45 66.85 67.45 Q69.7 71.85 70.8 77.4 71.55 81.05 70.8 84.3 L70.9 85.6 Q70.9 87.3 70.4 88.85 L70.65 87.85 Q70.1 87.5 69.1 87.45 L69.05 87.5 Q68.65 87.65 68.45 88.1 L68.0 88.95 67.2 88.95 66.9 88.55 Q66.45 88.15 65.85 88.25 L65.05 87.5 64.85 87.15 Q64.45 86.1 63.6 85.9 L63.25 85.35 61.0 81.85 61.05 81.75 60.95 81.75 60.5 81.1 59.15 79.05 58.15 78.95 58.05 78.95 57.75 78.9 57.4 78.85 55.65 78.65 52.8 78.65 51.65 78.2 51.65 78.15 51.1 77.95 51.05 77.95 Q47.4 76.6 43.5 75.85 L42.8 75.7 Q41.5 75.5 40.5 74.75 38.4 73.1 36.1 72.6 L35.1 72.4 34.85 72.7 Q34.5 71.85 33.1 71.55 L32.35 71.8 31.25 71.65 Q30.75 71.45 30.4 71.05 29.45 69.8 29.4 68.2 L29.65 66.1 29.8 65.4 Q29.85 64.7 30.4 64.4 31.05 64.8 31.0 65.5 L30.7 66.4 30.2 67.35 30.3 67.55 30.4 67.8 30.9 68.35 30.95 68.45 30.85 68.65 30.75 68.9 Q31.5 69.65 31.55 70.7 L31.55 70.95 32.8 71.35 32.2 71.2 33.35 69.4 33.5 69.4 33.7 69.3 33.75 69.25 Q35.05 68.95 36.05 69.55 L36.25 69.65 Q38.5 68.95 39.75 71.2 L40.45 73.05 41.95 74.05 44.0 74.95 46.1 75.35 47.95 75.2 55.7 75.4 Q56.3 75.55 56.85 75.8 58.45 76.5 59.4 77.75 59.65 77.3 60.3 77.2 63.95 76.5 64.6 73.0 L64.65 72.75 Q64.0 69.0 64.65 65.2 L64.75 64.8 64.8 64.5 64.7 64.35 63.25 62.3 Q63.1 62.1 63.1 61.8 L63.1 61.45 63.15 60.8 63.2 60.75 Q63.4 58.8 64.55 57.05 L65.15 56.1 Q67.0 52.65 67.0 48.75 L66.95 47.7 66.9 43.6 66.95 43.45 66.55 42.8 65.25 42.55 Q63.95 43.95 63.75 45.95 63.65 47.15 62.95 48.15 L60.55 51.2 60.05 51.95 Q58.75 54.25 58.05 56.8 L57.45 58.15 55.8 60.45 55.15 61.1 54.2 61.8 54.45 63.5 Q54.45 65.15 53.35 66.45 L52.15 66.65 51.95 66.65 Q51.4 65.95 50.35 66.0 49.8 66.1 49.35 66.65 L49.05 66.0 Q48.05 62.8 46.5 59.8 45.6 58.1 45.2 56.3 L43.9 55.45 44.7 55.35 46.35 55.1 46.75 55.55 47.95 57.2 47.95 57.25 Q47.4 58.6 47.75 60.0 48.1 61.35 48.95 62.45 L49.45 62.75 49.9 62.7 Q50.35 63.3 51.2 62.9 53.4 61.95 54.25 59.75 55.6 58.9 55.8 57.25 55.85 56.8 56.15 56.45 L57.2 54.85 57.25 54.8 57.55 54.2 Q58.15 53.3 58.95 52.55 L59.55 51.9 62.0 48.05 Q63.35 45.4 64.3 42.6 L64.65 41.55 64.75 41.05 65.05 40.6 66.65 37.4 Q67.85 35.05 67.4 32.55 67.75 32.6 68.1 32.8 L68.3 32.85 Q69.7 32.6 70.75 31.8 71.25 30.05 72.4 28.5 L73.5 26.9 74.0 26.2 74.2 26.05 74.3 23.6 74.2 23.6 74.1 23.6 72.6 23.55 72.45 23.5 Q71.6 23.45 71.3 22.65 71.0 22.0 71.6 21.65 72.1 21.6 72.45 21.95 L72.55 22.05 72.75 22.05 73.1 22.05 73.15 22.0 M38.5 64.9 L38.55 64.9 38.75 64.95 38.8 64.95 38.7 64.85 38.6 63.8 38.65 62.45 38.7 61.85 36.3 59.2 Q36.2 57.85 35.6 56.8 34.75 55.35 33.6 54.25 L33.55 54.2 33.35 53.65 33.0 53.7 30.8 52.1 Q25.75 51.95 22.25 49.05 L22.05 48.6 21.8 47.9 21.75 47.75 22.8 47.85 28.7 48.35 28.1 48.3 29.1 47.75 29.85 47.35 Q29.7 45.7 31.0 44.65 L31.6 44.05 Q31.65 43.55 31.85 43.0 L31.45 41.85 30.35 40.0 30.15 39.45 30.15 39.4 30.25 38.8 30.45 38.35 30.45 37.85 30.65 37.25 31.05 37.1 31.4 36.8 31.5 36.75 31.55 36.65 31.55 36.6 31.6 36.55 31.75 36.3 31.8 36.3 33.2 36.55 33.25 36.6 33.85 36.75 35.6 36.8 Q36.55 35.9 38.0 35.65 L37.95 35.45 37.85 34.85 37.85 34.6 37.8 33.25 38.4 33.05 38.65 32.5 38.95 31.95 40.1 32.35 40.2 32.4 40.95 32.65 Q41.5 32.2 42.2 31.9 L41.75 32.65 41.65 32.9 40.35 34.15 Q40.0 34.65 39.8 35.2 L38.85 36.25 38.45 36.5 37.1 37.15 Q35.75 37.65 34.5 38.45 32.9 39.5 32.3 41.2 L32.05 42.0 Q31.7 43.5 31.95 45.0 32.0 45.4 32.2 45.6 32.05 46.3 32.35 47.0 32.9 48.3 34.1 48.9 L34.45 49.1 Q36.3 49.5 37.85 50.55 L40.9 52.95 42.6 54.7 40.2 53.7 39.9 53.55 40.2 53.7 38.4 54.85 38.5 55.65 38.65 56.15 38.7 56.3 38.9 56.95 38.9 57.5 38.85 57.6 40.85 59.8 41.35 61.05 Q41.6 62.6 42.6 63.75 43.2 64.45 42.85 65.1 43.3 65.75 42.75 66.6 L42.55 67.25 Q42.6 68.15 41.9 68.55 L40.9 68.6 Q40.0 68.1 39.65 67.1 L39.2 66.35 Q38.7 65.75 38.5 65.0 L38.5 64.9 M39.3 30.2 L38.85 28.25 38.7 27.35 38.7 27.3 38.8 27.1 38.75 26.85 38.8 26.55 38.9 26.4 39.1 26.1 39.15 26.05 39.2 26.0 39.35 25.8 40.4 25.05 41.0 24.7 41.25 25.1 41.35 25.3 41.85 25.75 42.8 25.9 43.3 25.5 43.35 25.5 43.4 25.45 43.45 25.4 43.55 25.4 43.65 25.35 Q44.2 24.6 44.0 23.6 L43.9 23.25 44.1 23.3 45.75 23.35 48.55 23.1 Q49.95 23.0 50.45 21.95 L50.65 22.05 51.0 22.15 51.25 22.3 51.1 22.75 Q50.9 23.45 51.15 24.15 L51.4 24.45 49.3 24.6 45.7 25.25 Q44.25 25.55 42.85 26.0 L42.3 26.2 42.25 26.2 42.1 26.25 42.0 26.3 41.3 26.25 41.0 26.35 40.65 26.45 Q39.85 26.85 39.55 27.7 39.15 28.95 40.25 29.75 39.85 30.15 39.3 30.2 M54.7 23.25 L54.8 23.3 55.6 23.95 56.3 24.6 Q56.55 24.8 56.6 25.15 L56.6 26.45 56.35 27.25 56.5 27.4 56.85 27.35 57.25 26.9 57.0 27.35 57.1 27.5 57.45 27.85 57.5 27.9 57.7 28.05 58.95 28.9 59.15 29.0 60.1 28.75 60.5 28.7 60.65 28.65 62.75 28.0 Q64.8 27.85 65.5 29.75 L65.5 29.85 66.15 30.55 64.35 30.25 64.05 30.45 57.35 29.65 Q55.95 29.45 54.75 28.8 L54.85 28.85 54.9 28.65 55.05 28.25 Q55.35 27.3 54.85 26.5 54.25 25.55 53.15 25.6 L52.65 25.75 52.45 25.5 52.1 25.0 52.55 25.2 53.05 25.25 53.2 25.25 53.6 25.1 53.95 24.65 54.2 23.95 54.25 23.9 54.7 23.25 M64.65 21.3 L65.1 21.05 65.1 20.9 65.1 20.65 65.2 19.8 65.25 19.25 65.4 19.3 67.25 19.2 67.6 19.05 67.55 19.2 67.8 19.1 68.55 18.75 68.65 18.7 68.8 18.55 Q69.75 18.55 69.5 19.45 L68.95 20.15 67.1 20.8 67.0 21.0 66.8 21.15 66.45 21.5 65.8 21.7 Q65.15 21.8 64.65 21.3 M67.8 15.95 L67.7 15.9 67.85 15.7 67.8 15.95 M73.95 9.5 L74.1 9.7 73.85 9.8 73.95 9.5 M70.75 15.0 Q71.15 14.75 71.6 14.65 72.4 14.9 72.0 15.7 L71.25 16.4 69.6 16.5 Q68.75 16.25 69.1 15.5 L69.3 15.35 Q70.1 15.45 70.75 15.0" fill="#666633" fill-rule="evenodd" stroke="none"/>
    <path d="M41.0 24.7 L40.65 24.2 40.7 24.1 40.55 23.65 39.9 22.45 39.45 21.9 38.95 21.25 39.15 20.9 39.7 21.1 40.05 21.2 40.55 21.4 42.5 22.2 42.65 22.35 43.2 23.15 43.35 23.55 43.4 23.75 43.5 24.8 43.45 25.15 43.3 25.5 42.8 25.9 41.85 25.75 41.35 25.3 41.25 25.1 41.0 24.7 M51.65 24.45 L51.6 23.85 51.6 23.7 52.0 22.7 52.35 22.25 52.75 21.8 52.9 21.7 54.5 21.05 56.2 20.4 56.4 20.95 56.2 21.15 Q55.85 21.55 55.65 22.05 L55.6 22.1 55.45 22.35 55.0 22.85 54.75 23.15 54.7 23.25 54.25 23.9 54.2 23.95 53.95 24.65 53.6 25.1 53.2 25.25 53.05 25.25 52.55 25.2 52.0 24.9 51.65 24.45" fill="#ffffcc" fill-rule="evenodd" stroke="none"/>
    <path d="M52.65 25.75 L53.15 25.6 Q54.25 25.55 54.85 26.5 55.35 27.3 55.05 28.25 L54.9 28.65 54.85 28.85 54.75 28.8 54.7 28.75 54.25 28.35 54.3 28.25 Q54.65 27.4 54.5 26.85 L54.3 26.5 Q54.0 26.15 53.4 25.95 L53.0 26.1 52.7 26.2 52.05 26.55 51.25 27.3 50.9 27.0 50.75 26.9 50.95 26.6 51.1 26.45 Q51.85 26.05 52.75 25.85 L52.95 26.05 52.65 25.75 M42.0 26.3 L41.9 26.4 42.0 26.4 Q43.1 26.55 44.1 27.25 L44.5 27.55 44.55 27.6 44.5 27.65 44.45 27.7 44.35 28.1 43.75 27.6 43.7 27.6 43.7 27.55 42.95 27.15 42.8 27.1 41.8 26.8 41.75 26.8 41.55 26.75 41.2 26.75 41.15 26.85 41.05 26.85 40.75 26.85 Q40.15 27.15 39.95 27.75 L39.9 27.9 39.9 28.45 39.9 28.65 39.9 28.75 Q40.05 29.2 40.55 29.45 41.3 29.8 42.0 29.45 L42.45 28.4 42.45 28.0 42.65 28.05 43.05 28.5 43.25 28.85 44.15 28.8 45.3 29.7 45.15 29.15 45.05 28.95 45.25 28.8 45.3 29.0 45.5 29.3 45.5 29.4 45.45 29.7 45.45 29.8 45.3 29.8 45.05 30.35 43.85 31.2 43.3 31.2 43.25 31.2 42.65 31.05 41.25 30.25 40.6 30.05 40.25 29.75 Q39.15 28.95 39.55 27.7 39.85 26.85 40.65 26.45 L41.0 26.35 41.3 26.25 42.0 26.3 M50.9 27.75 L50.85 27.8 50.8 27.9 50.75 28.0 50.6 28.8 50.7 29.3 51.45 28.7 51.65 28.35 Q51.75 27.75 52.1 27.25 52.45 28.6 54.05 28.35 L54.2 28.35 54.2 28.4 53.7 29.15 52.7 29.95 50.9 29.85 Q49.8 29.25 50.1 28.0 L50.2 27.7 50.35 27.7 50.4 27.7 50.9 27.75 M53.0 59.6 L52.75 59.45 52.6 59.5 52.55 59.7 52.55 59.6 52.6 60.6 52.45 61.1 52.1 61.5 52.05 61.6 50.8 62.2 50.5 62.25 50.35 62.2 50.1 62.15 49.6 61.85 49.1 61.55 48.8 61.2 48.55 60.9 48.45 60.55 48.4 60.3 Q48.2 59.4 48.5 58.55 L48.6 58.85 48.55 58.6 48.8 57.75 48.95 57.55 Q49.15 57.15 49.5 56.9 49.7 56.7 49.95 56.75 51.65 56.85 52.65 58.2 L52.8 58.45 53.0 59.6 M60.45 39.0 L60.8 38.65 60.85 38.6 60.9 38.5 61.35 37.4 61.0 35.5 60.75 35.15 Q60.05 34.4 58.45 34.35 L58.1 34.5 57.9 34.45 Q57.45 34.5 57.0 34.8 L56.75 34.95 56.0 35.15 Q55.65 35.25 55.5 35.65 54.9 35.65 54.6 36.1 L54.9 36.2 56.45 36.1 57.6 35.9 58.1 35.6 58.25 35.6 58.25 35.65 Q57.35 37.1 58.2 38.5 58.35 39.1 58.95 39.25 L59.95 39.35 57.2 39.45 Q55.75 39.55 54.7 38.6 54.05 38.05 54.2 37.25 54.1 36.9 54.3 36.5 L54.4 36.35 Q54.35 35.65 54.95 35.3 L55.7 34.8 Q56.85 33.85 58.4 33.9 59.95 33.8 61.05 34.9 61.9 35.7 61.8 36.95 61.6 38.35 60.55 39.2 L60.3 39.25 60.05 39.3 60.45 39.0 M52.4 46.8 L52.75 46.8 Q53.6 46.2 54.6 46.05 55.45 46.15 56.1 46.55 L56.05 46.55 56.15 46.7 56.35 47.1 56.75 47.5 Q57.2 48.1 57.0 49.3 L57.0 49.45 Q56.85 50.1 56.3 50.55 L56.05 50.7 55.1 51.1 54.1 51.0 53.7 50.6 53.3 50.35 52.55 49.4 51.95 48.6 Q51.8 48.0 52.0 47.45 L52.4 46.8 M42.0 40.0 L41.4 39.3 40.55 39.25 40.45 39.3 38.65 39.55 38.4 39.45 Q37.35 39.6 36.7 40.05 35.55 40.8 35.25 42.45 L35.35 43.0 35.5 43.15 36.6 43.8 37.7 43.45 38.35 42.6 38.55 41.7 Q38.55 40.3 37.45 40.1 L38.0 40.3 39.1 40.4 39.5 40.85 Q39.85 41.3 40.4 41.15 L40.6 40.65 40.5 40.3 40.45 39.95 41.55 40.1 41.8 40.1 42.05 40.1 42.2 40.65 Q42.35 41.55 41.85 42.25 41.35 42.9 40.75 42.8 L40.4 43.4 40.3 43.5 40.0 43.65 37.75 44.1 37.8 44.15 36.6 44.15 Q35.25 43.85 34.8 42.5 34.6 42.0 34.8 41.45 35.25 39.85 36.85 39.3 L37.65 39.15 41.0 38.9 Q42.2 38.9 42.05 40.05 L42.0 40.0 M43.3 49.45 Q43.45 48.55 44.15 47.8 L44.6 47.3 45.3 47.1 46.4 46.7 47.8 46.95 47.7 47.15 47.9 46.8 48.3 47.25 Q49.0 48.6 48.4 50.05 L47.9 50.75 47.45 51.05 45.95 51.4 45.9 51.55 45.85 51.55 45.45 51.85 45.3 51.85 44.2 51.75 Q43.25 51.3 43.2 50.25 L43.2 50.0 43.3 49.5 43.55 49.65 43.3 49.45 M44.45 48.6 L44.4 48.75 Q43.85 49.2 43.75 49.8 L43.75 50.05 43.9 50.85 44.15 51.3 44.6 51.65 44.7 51.7 44.85 51.8 44.9 51.8 45.5 51.45 Q46.2 50.85 46.15 49.95 46.05 48.8 45.15 48.6 L45.85 48.4 46.55 48.35 Q47.0 48.25 46.95 47.8 L47.05 47.6 47.95 47.35 47.7 47.2 46.9 47.0 Q46.35 47.15 45.9 47.5 L45.7 47.5 Q44.8 47.8 44.45 48.6 M55.9 37.35 L55.85 37.35 55.9 37.4 55.9 37.35 M53.6 46.8 L53.05 46.9 53.0 46.95 Q52.65 47.0 52.45 47.2 L54.25 47.55 54.45 47.55 55.4 47.6 Q54.35 48.5 54.3 49.95 L54.35 50.35 54.4 50.3 54.85 50.35 Q56.05 50.35 56.35 49.25 L56.4 48.2 55.95 47.4 Q55.25 47.25 54.95 46.75 L54.95 46.7 54.9 46.7 55.0 46.65 54.85 46.7 54.6 46.6 53.9 46.75 53.95 46.75 53.65 46.75 53.6 46.8 M52.15 66.65 L52.3 67.05 52.5 68.5 Q52.55 69.3 52.15 69.9 L52.2 69.45 52.1 69.95 51.7 70.55 50.8 70.5 50.65 70.4 Q49.7 70.65 49.2 70.0 L49.2 70.1 48.95 69.85 Q48.65 69.45 48.65 68.95 48.65 67.8 49.25 66.8 L49.35 66.65 Q49.8 66.1 50.35 66.0 51.4 65.95 51.95 66.65 L52.15 66.65 M49.6 67.25 L49.45 67.55 49.1 68.6 49.05 69.0 49.9 68.4 50.05 68.3 Q51.3 68.0 52.25 68.7 L52.2 68.25 52.1 67.9 51.8 67.15 51.75 67.1 51.6 66.9 51.55 66.8 51.45 66.75 51.3 66.7 51.3 66.65 50.5 66.5 50.3 66.55 Q49.95 66.65 49.75 67.05 L49.7 67.05 49.6 67.25 M50.95 57.5 L50.75 57.5 50.5 57.45 50.3 57.45 49.95 57.55 49.3 58.45 49.05 58.8 48.75 59.35 48.85 59.8 48.9 59.9 48.85 60.2 48.85 60.55 48.95 60.45 49.2 60.25 50.4 59.35 50.65 59.35 Q51.45 59.35 52.15 59.75 L52.25 59.25 52.35 59.15 52.2 58.9 52.15 58.75 Q51.95 57.7 50.95 57.5" fill="#333333" fill-rule="evenodd" stroke="none"/>
    <path d="M67.75 94.15 L66.85 95.45 Q65.5 97.05 64.35 95.35 63.2 93.7 64.0 91.7 L64.1 91.55 Q63.95 91.05 64.1 90.4 63.85 89.6 63.9 88.5 L63.9 86.35 63.6 85.9 Q64.45 86.1 64.85 87.15 L65.05 87.5 65.85 88.25 Q66.45 88.15 66.9 88.55 L67.2 88.95 68.0 88.95 Q68.55 88.85 69.05 88.3 L69.1 88.2 69.05 89.1 68.6 91.5 67.75 94.15 M30.55 74.7 L30.1 74.55 Q29.0 74.5 28.0 74.0 L27.25 73.3 27.0 72.7 26.6 71.2 26.6 70.95 26.8 70.3 26.8 70.25 26.7 69.65 Q26.6 68.45 27.1 67.65 27.35 67.15 27.85 66.8 L27.95 66.75 28.25 66.1 Q28.8 65.2 29.75 64.95 L30.0 64.75 30.35 64.4 30.4 64.4 Q29.85 64.7 29.8 65.4 L29.65 66.1 29.4 68.2 Q29.45 69.8 30.4 71.05 30.75 71.45 31.25 71.65 L32.35 71.8 32.4 71.8 32.6 71.8 32.85 72.2 31.1 74.1 30.7 74.5 30.55 74.7 M50.2 27.7 L50.1 28.0 Q49.8 29.25 50.9 29.85 L52.7 29.95 53.7 29.15 54.15 29.6 55.2 30.3 Q58.7 31.5 62.5 31.15 L63.0 31.1 63.85 30.85 64.1 30.7 Q65.25 30.15 65.95 31.1 L66.25 31.6 65.2 31.1 64.75 31.4 Q63.6 32.8 64.4 34.6 L64.0 35.2 Q63.15 36.8 63.25 38.6 60.55 41.55 59.55 45.4 L58.8 45.8 Q57.8 46.4 56.6 46.5 L56.1 46.55 Q55.45 46.15 54.6 46.05 53.6 46.2 52.75 46.8 L52.4 46.8 52.35 46.8 52.0 44.85 Q52.75 43.3 52.55 41.6 52.5 41.0 52.1 40.55 51.65 40.1 51.5 39.45 51.35 38.55 50.8 37.75 50.35 37.15 50.3 36.45 50.25 34.3 48.4 33.75 L48.35 33.75 48.25 33.8 48.1 33.9 48.05 34.05 47.95 35.15 Q47.75 37.3 47.9 39.5 47.65 40.0 47.75 40.5 48.05 42.7 48.85 44.75 L48.65 45.65 48.65 45.8 48.6 45.8 Q48.45 45.85 48.35 46.0 L47.9 46.8 47.7 47.15 47.8 46.95 46.4 46.7 45.3 47.1 44.6 47.3 44.15 47.8 Q43.45 48.55 43.3 49.45 42.25 48.85 41.05 48.75 L40.4 49.35 Q39.3 48.4 37.8 48.0 36.3 46.3 33.9 45.8 34.2 44.6 33.9 43.45 33.65 42.55 33.1 41.95 33.65 40.75 34.35 39.65 L34.75 39.15 Q35.9 38.15 37.2 37.75 L37.75 37.7 39.45 37.5 40.55 35.2 40.75 34.85 41.45 33.8 Q41.85 33.4 42.4 33.45 L42.65 32.95 43.0 32.15 42.95 32.15 43.05 31.9 43.0 32.05 43.25 32.05 43.5 31.8 43.85 31.2 45.05 30.35 45.3 29.8 45.45 29.8 45.45 29.7 45.5 29.4 45.5 29.3 45.3 29.0 45.25 28.8 45.2 28.75 45.2 28.7 45.05 28.55 44.85 28.35 Q45.0 27.2 46.3 26.75 L47.05 26.35 Q47.3 26.2 47.5 26.2 L49.7 27.45 50.2 27.7 M60.45 39.0 L60.05 39.3 60.3 39.25 60.55 39.2 Q61.6 38.35 61.8 36.95 61.9 35.7 61.05 34.9 59.95 33.8 58.4 33.9 56.85 33.85 55.7 34.8 L54.95 35.3 Q54.35 35.65 54.4 36.35 L54.3 36.5 Q54.1 36.9 54.2 37.25 54.05 38.05 54.7 38.6 55.75 39.55 57.2 39.45 L59.95 39.35 60.45 39.0 M42.05 40.05 Q42.2 38.9 41.0 38.9 L37.65 39.15 36.85 39.3 Q35.25 39.85 34.8 41.45 34.6 42.0 34.8 42.5 35.25 43.85 36.6 44.15 L37.8 44.15 38.0 44.1 37.75 44.1 40.0 43.65 40.3 43.5 40.4 43.4 40.75 42.8 Q41.35 42.9 41.85 42.25 42.35 41.55 42.2 40.65 L42.05 40.1 42.05 40.05" fill="#c7af52" fill-rule="evenodd" stroke="none"/>
    <path d="M54.75 28.8 Q55.95 29.45 57.35 29.65 L64.05 30.45 64.35 30.25 66.15 30.55 66.85 31.75 67.0 32.1 67.4 32.55 Q67.85 35.05 66.65 37.4 L65.05 40.6 64.75 41.05 64.65 41.55 64.3 42.6 Q63.35 45.4 62.0 48.05 L59.55 51.9 58.95 52.55 Q58.15 53.3 57.55 54.2 L57.25 54.8 57.2 54.85 56.15 56.45 Q55.85 56.8 55.8 57.25 55.6 58.9 54.25 59.75 53.4 61.95 51.2 62.9 50.35 63.3 49.9 62.7 L49.45 62.75 48.95 62.45 Q48.1 61.35 47.75 60.0 47.4 58.6 47.95 57.25 L47.95 57.2 46.75 55.55 46.35 55.1 44.7 55.35 43.9 55.45 42.6 54.7 40.9 52.95 37.85 50.55 Q36.3 49.5 34.45 49.1 L34.1 48.9 Q32.9 48.3 32.35 47.0 32.05 46.3 32.2 45.6 32.0 45.4 31.95 45.0 31.7 43.5 32.05 42.0 L32.3 41.2 Q32.9 39.5 34.5 38.45 35.75 37.65 37.1 37.15 L38.45 36.5 38.85 36.25 39.8 35.2 Q40.0 34.65 40.35 34.15 L41.65 32.9 41.75 32.65 42.2 31.9 42.45 31.75 42.55 31.65 43.15 31.65 43.25 31.2 43.3 31.2 43.85 31.2 43.5 31.8 43.25 32.05 43.0 32.05 43.05 31.9 42.95 32.15 43.0 32.15 42.65 32.95 42.4 33.45 Q41.85 33.4 41.45 33.8 L40.75 34.85 40.55 35.2 39.45 37.5 37.75 37.7 37.2 37.75 Q35.9 38.15 34.75 39.15 L34.35 39.65 Q33.65 40.75 33.1 41.95 L32.75 42.75 Q32.35 43.6 32.5 44.5 L32.65 45.35 32.65 45.4 32.85 46.15 Q34.1 49.05 37.2 48.8 L38.4 49.95 Q39.65 51.1 41.2 51.7 L42.95 54.2 Q43.3 54.7 43.85 54.8 45.25 55.15 46.05 53.8 L46.2 53.8 46.3 53.8 47.6 54.45 47.9 54.6 48.0 55.35 48.45 56.15 48.45 57.5 48.5 58.5 48.6 58.85 48.5 58.55 Q48.2 59.4 48.4 60.3 L48.45 60.55 48.55 60.9 48.8 61.2 49.1 61.55 49.6 61.85 50.1 62.15 50.35 62.2 50.5 62.25 50.8 62.2 52.05 61.6 52.1 61.5 52.45 61.1 52.6 60.6 52.55 59.6 52.55 59.7 52.6 59.5 52.75 59.45 53.0 59.6 54.2 59.5 54.35 59.3 Q54.75 58.85 54.65 58.3 L54.15 56.85 Q55.8 55.95 56.8 54.35 L60.8 48.1 61.0 47.65 62.55 43.25 63.35 41.5 63.95 40.35 64.5 39.35 Q64.95 38.5 65.65 37.9 67.1 36.55 66.1 35.05 L66.15 34.7 66.15 34.0 66.1 32.75 66.25 31.7 66.25 31.6 65.95 31.1 Q65.25 30.15 64.1 30.7 L63.85 30.85 63.0 31.1 62.5 31.15 Q58.7 31.5 55.2 30.3 L54.15 29.6 53.7 29.15 54.2 28.4 54.25 28.35 54.7 28.75 54.75 28.8" fill="#663300" fill-rule="evenodd" stroke="none"/>
    <path d="M70.4 88.85 L69.75 90.35 69.65 90.5 69.05 91.35 68.9 91.85 68.05 93.65 67.85 94.05 67.75 94.15 68.6 91.5 69.05 89.1 69.1 88.2 69.05 88.3 Q68.55 88.85 68.0 88.95 L68.45 88.1 Q68.65 87.65 69.05 87.5 L69.1 87.45 Q70.1 87.5 70.65 87.85 L70.4 88.85 M34.85 72.7 Q33.6 73.9 32.0 74.35 L31.85 74.7 31.8 74.7 30.55 74.7 30.7 74.5 31.1 74.1 32.85 72.2 32.6 71.8 32.4 71.8 32.35 71.8 33.1 71.55 Q34.5 71.85 34.85 72.7 M66.25 31.6 L66.25 31.7 66.1 32.75 66.15 34.0 66.15 34.7 66.1 35.05 Q67.1 36.55 65.65 37.9 64.95 38.5 64.5 39.35 L63.95 40.35 63.35 41.5 62.55 43.25 61.0 47.65 60.8 48.1 56.8 54.35 Q55.8 55.95 54.15 56.85 L54.65 58.3 Q54.75 58.85 54.35 59.3 L54.2 59.5 53.0 59.6 52.8 58.45 52.65 58.2 Q51.65 56.85 49.95 56.75 49.7 56.7 49.5 56.9 49.15 57.15 48.95 57.55 L48.8 57.75 48.55 58.6 48.6 58.85 48.5 58.5 48.45 57.5 48.45 56.15 48.0 55.35 47.9 54.6 47.6 54.45 46.3 53.8 46.2 53.8 46.05 53.8 Q45.25 55.15 43.85 54.8 43.3 54.7 42.95 54.2 L41.2 51.7 Q39.65 51.1 38.4 49.95 L37.2 48.8 Q34.1 49.05 32.85 46.15 L32.65 45.4 32.65 45.35 32.5 44.5 Q32.35 43.6 32.75 42.75 L33.1 41.95 Q33.65 42.55 33.9 43.45 34.2 44.6 33.9 45.8 36.3 46.3 37.8 48.0 39.3 48.4 40.4 49.35 L41.05 48.75 Q42.25 48.85 43.3 49.45 L43.55 49.65 43.3 49.5 43.2 50.0 43.2 50.25 Q43.25 51.3 44.2 51.75 L45.3 51.85 45.45 51.85 45.85 51.55 45.9 51.55 45.95 51.4 47.45 51.05 47.9 50.75 48.4 50.05 Q49.0 48.6 48.3 47.25 L47.9 46.8 48.35 46.0 Q48.45 45.85 48.6 45.8 L48.65 45.8 48.65 45.65 48.85 44.75 Q48.05 42.7 47.75 40.5 47.65 40.0 47.9 39.5 47.75 37.3 47.95 35.15 L48.05 34.05 48.1 33.9 48.25 33.8 48.35 33.75 48.4 33.75 Q50.25 34.3 50.3 36.45 50.35 37.15 50.8 37.75 51.35 38.55 51.5 39.45 51.65 40.1 52.1 40.55 52.5 41.0 52.55 41.6 52.75 43.3 52.0 44.85 L52.35 46.8 52.4 46.8 52.0 47.45 Q51.8 48.0 51.95 48.6 L52.55 49.4 53.3 50.35 53.7 50.6 54.1 51.0 55.1 51.1 56.05 50.7 56.15 50.8 56.3 50.55 Q56.85 50.1 57.0 49.45 L57.05 49.35 57.0 49.3 Q57.2 48.1 56.75 47.5 L56.35 47.1 56.15 46.7 56.05 46.55 56.1 46.55 56.6 46.5 Q57.8 46.4 58.8 45.8 L59.55 45.4 Q60.55 41.55 63.25 38.6 63.15 36.8 64.0 35.2 L64.4 34.6 Q63.6 32.8 64.75 31.4 L65.2 31.1 66.25 31.6 M53.6 46.8 L53.65 46.75 53.95 46.75 53.9 46.75 53.6 46.8 M54.85 46.7 L55.0 46.65 54.9 46.7 54.95 46.7 54.85 46.7" fill="#996633" fill-rule="evenodd" stroke="none"/>
  </g>
</svg>
