<?xml version="1.0" encoding="UTF-8" standalone="no"?>
<svg xmlns:xlink="http://www.w3.org/1999/xlink" height="90.2px" width="58.3px" xmlns="http://www.w3.org/2000/svg">
  <g transform="matrix(1.0, 0.0, 0.0, 1.0, -23.9, -6.9)">
    <path d="M81.1 47.75 L81.2 47.4 81.4 46.05 81.4 44.6 81.35 44.4 81.35 44.25 81.35 44.0 81.2 43.3 80.45 41.3 80.05 40.65 78.15 39.75 76.75 39.15 75.25 38.5 74.3 38.1 72.7 37.35 72.5 37.2 71.8 37.1 71.45 36.8 71.4 36.75 71.35 36.65 71.3 36.6 71.25 36.55 71.1 36.3 69.4 34.35 69.3 34.25 67.0 33.6 66.75 33.5 66.2 33.45 65.45 33.35 65.1 33.25 64.5 33.05 64.2 32.5 63.95 31.95 63.9 31.95 63.35 30.85 63.55 30.2 64.0 28.25 64.15 27.35 64.15 27.3 64.05 26.55 63.95 26.4 63.75 26.1 63.75 26.05 63.7 26.0 63.5 25.8 62.5 25.05 61.85 24.7 62.2 24.2 62.2 24.1 62.3 23.65 63.0 22.45 63.4 21.9 63.95 21.25 63.75 20.9 63.15 21.1 62.8 21.2 62.3 21.4 60.35 22.2 60.2 22.35 59.65 23.15 59.4 22.9 59.2 22.7 58.85 22.4 57.65 21.4 57.15 21.35 54.7 21.05 53.55 21.55 52.45 21.95 52.2 22.05 51.85 22.15 51.55 22.3 50.85 22.7 50.55 22.25 50.1 21.8 50.0 21.7 48.35 21.05 46.65 20.4 Q46.5 20.6 46.5 20.95 L46.65 21.15 47.2 22.05 47.25 22.1 47.4 22.35 47.9 22.85 48.1 23.15 48.15 23.25 48.05 23.3 47.25 23.95 46.55 24.6 Q46.3 24.8 46.25 25.15 46.15 25.85 46.3 26.45 L46.5 27.25 46.35 27.4 46.05 27.35 45.65 26.9 45.15 26.45 45.1 26.4 Q42.0 23.45 38.65 21.55 L38.25 21.3 37.8 21.05 37.8 20.9 37.75 20.65 37.7 19.8 37.65 19.25 37.45 19.3 35.6 19.2 35.3 19.05 Q34.75 18.7 34.55 18.05 34.35 17.2 34.7 16.45 L35.05 16.0 35.05 15.95 35.15 15.9 Q36.1 15.2 37.15 14.85 L37.2 15.1 37.15 14.8 Q36.9 12.85 36.25 11.4 L36.05 10.95 35.75 10.45 35.35 9.95 35.15 9.7 34.5 9.0 34.3 8.85 33.45 8.25 Q32.75 7.8 31.9 7.55 30.05 8.05 28.95 9.5 L28.8 9.7 29.0 9.8 Q29.6 10.1 30.05 10.7 L30.2 10.9 30.15 10.95 30.2 11.0 30.3 11.1 Q30.7 11.9 30.4 12.7 L30.35 12.85 29.75 13.4 Q29.35 13.85 28.8 13.8 L28.8 13.95 28.15 13.85 27.45 13.3 27.45 13.15 27.4 13.55 27.35 13.95 27.05 16.8 27.0 17.0 28.3 17.65 28.45 17.85 28.55 17.95 28.55 17.75 29.4 18.35 29.65 18.55 29.85 18.65 30.45 19.3 Q30.9 20.15 30.6 21.0 30.35 21.75 29.7 21.9 L29.75 22.0 29.5 22.1 28.15 22.2 26.75 21.7 26.75 22.15 26.7 24.05 Q26.65 25.5 27.05 26.75 L27.0 26.9 26.95 27.1 28.5 30.9 29.9 34.75 30.9 37.8 31.2 38.75 31.4 39.15 32.0 41.5 32.4 42.35 32.6 43.6 32.95 46.15 32.95 46.2 33.1 47.35 33.5 50.75 33.6 50.9 33.5 51.1 33.95 57.15 34.0 58.05 Q34.75 60.45 35.05 63.1 L35.9 65.0 35.9 65.05 35.95 65.15 36.65 66.35 36.7 66.45 36.0 67.45 Q33.15 71.85 32.05 77.4 31.3 81.05 32.05 84.3 L31.95 85.6 Q31.95 88.25 33.25 90.5 L33.85 91.35 Q34.55 93.65 36.05 95.45 37.35 97.05 38.55 95.35 39.65 93.7 38.9 91.7 L38.8 91.55 38.8 90.4 39.0 88.5 39.0 86.35 39.25 85.9 39.6 85.35 41.9 81.85 42.4 81.1 43.75 79.05 44.75 78.95 44.85 78.95 45.15 78.9 45.45 78.85 47.25 78.65 50.05 78.65 51.2 78.2 51.8 77.95 51.85 77.95 Q55.45 76.6 59.35 75.85 L60.1 75.7 Q61.35 75.5 62.4 74.75 64.45 73.1 66.8 72.6 L67.75 72.4 Q69.05 73.85 70.9 74.35 L71.0 74.7 72.75 74.55 74.85 74.0 75.6 73.3 75.9 72.7 76.25 71.2 76.3 70.95 76.1 70.3 76.1 70.25 76.15 69.65 Q76.25 68.45 75.8 67.65 L75.0 66.8 74.95 66.75 74.6 66.1 Q74.05 65.2 73.15 64.95 L72.9 64.75 72.55 64.4 Q71.95 63.85 71.3 63.6 L71.2 63.5 65.4 64.6 64.4 64.9 64.3 64.9 64.1 64.95 64.15 64.85 64.25 63.8 64.2 62.45 64.15 61.85 66.6 59.2 Q66.65 57.85 67.3 56.8 68.1 55.35 69.25 54.25 L69.35 54.2 69.55 53.65 69.9 53.7 Q70.9 52.8 72.05 52.1 77.1 51.95 80.65 49.05 L80.8 48.6 81.05 47.9 81.1 47.75 M58.0 21.05 L59.4 21.7 59.95 22.1 60.6 21.7 Q61.3 21.2 62.0 21.0 62.8 20.6 63.7 20.4 L63.95 20.6 64.05 20.65 64.3 20.95 64.3 21.35 62.85 24.4 63.15 24.6 Q64.4 25.4 64.7 26.75 65.15 28.65 64.2 30.5 64.95 31.55 65.3 32.7 67.3 32.75 69.15 33.6 70.0 34.0 70.65 34.65 L72.5 36.9 77.05 38.6 Q79.0 39.3 80.7 40.35 L81.05 40.75 Q81.65 41.45 81.85 42.35 L81.95 43.45 Q82.45 45.75 81.95 48.25 81.5 50.15 79.7 50.9 78.15 51.7 76.4 52.05 L72.5 53.5 Q69.4 54.6 68.05 57.55 67.55 59.85 65.75 61.35 L65.65 61.7 Q65.25 62.2 65.3 62.75 L65.4 63.65 66.35 63.5 66.9 63.35 Q68.95 62.55 71.2 62.8 L71.35 62.9 72.4 63.4 74.15 64.75 75.05 65.8 75.6 66.3 Q76.55 67.3 76.8 68.6 L77.0 70.05 77.1 70.4 Q77.4 72.2 76.4 73.75 75.9 74.5 75.05 74.85 71.85 76.25 68.75 74.8 L68.05 74.3 Q67.35 73.65 66.55 73.95 L62.7 75.75 60.1 76.75 56.2 77.75 Q55.05 78.0 54.0 78.6 51.65 79.9 48.9 80.2 L44.25 80.4 42.95 81.8 41.7 83.25 Q39.85 85.85 39.8 89.05 L39.9 89.8 Q40.25 91.55 40.15 93.4 40.1 94.85 39.3 96.1 L38.55 96.75 Q36.5 97.75 35.3 96.05 L34.8 95.4 Q33.35 94.05 33.2 92.15 32.15 90.35 31.65 88.35 L31.55 87.95 Q31.05 86.6 31.15 85.15 L31.1 82.95 Q30.9 80.6 31.15 78.2 31.5 75.3 32.25 72.4 L32.5 71.85 33.6 69.8 35.3 66.25 34.4 64.3 Q33.9 62.9 33.65 61.5 33.1 58.6 32.95 55.65 L32.55 49.75 31.85 43.9 31.8 43.3 30.9 41.0 28.7 35.5 28.35 34.45 27.8 32.6 27.75 32.3 Q26.75 30.2 26.1 28.0 25.7 26.6 25.75 25.15 L25.75 24.6 25.8 23.1 25.85 21.6 25.9 21.3 24.9 19.95 Q24.15 18.8 23.95 17.45 23.8 16.8 24.2 16.5 24.3 16.05 25.1 16.05 L26.4 16.55 26.5 15.4 26.8 14.05 27.05 13.45 26.65 12.5 26.15 11.35 25.7 10.3 Q25.25 9.0 26.4 8.6 L26.4 8.65 26.9 8.75 26.95 8.85 28.3 8.8 28.5 8.65 28.7 8.45 Q29.9 7.1 31.7 6.9 32.6 7.0 33.4 7.4 L34.15 8.0 36.8 7.2 37.05 7.4 37.2 7.6 Q37.45 9.05 37.15 10.5 37.0 11.1 37.1 11.7 37.35 13.2 37.75 14.65 L39.4 14.35 Q39.8 14.3 40.05 14.65 L40.2 14.95 40.3 15.45 Q40.25 17.25 39.0 18.65 L38.3 19.4 38.65 21.25 40.15 21.95 43.9 24.05 45.45 25.35 45.55 25.15 Q46.1 24.1 46.95 23.45 L46.3 22.05 46.2 21.55 46.1 21.45 Q45.4 20.35 46.6 20.1 48.3 19.95 49.8 20.85 L51.55 21.75 Q52.95 21.05 54.55 20.8 L56.25 20.7 56.7 20.8 56.8 20.8 56.8 20.85 58.0 21.05 M58.55 28.1 L57.85 28.95 57.65 28.8 57.65 28.75 57.65 28.7 57.8 28.55 58.0 28.35 Q57.85 27.2 56.55 26.75 L55.8 26.35 55.35 26.2 53.15 27.45 52.65 27.7 52.5 27.7 52.45 27.7 52.0 27.75 51.8 27.5 51.6 27.3 51.95 27.0 52.0 27.0 Q53.7 25.85 55.75 25.9 56.7 25.95 57.45 26.6 L58.05 27.2 58.25 27.45 58.35 27.6 58.4 27.65 58.4 27.7 58.55 28.1 M36.55 9.15 L36.4 7.9 35.9 8.05 34.75 8.45 34.8 8.45 35.4 9.15 36.0 10.05 36.0 10.1 36.45 10.95 36.75 10.35 36.7 10.2 36.55 9.15 M33.6 10.5 L33.65 10.45 33.9 10.5 33.95 10.5 33.9 10.45 33.85 10.35 34.15 10.15 34.35 10.2 34.6 10.9 34.7 11.05 34.7 11.1 34.5 11.9 34.35 12.45 34.25 13.9 33.9 14.4 33.95 14.45 Q33.35 15.0 32.5 14.6 31.5 14.25 31.5 13.3 L31.5 13.15 31.6 12.6 Q32.15 10.95 33.6 10.5 M33.8 13.7 Q34.2 12.25 34.2 10.65 L34.2 10.55 34.05 10.5 33.4 10.95 Q32.9 11.3 32.55 11.8 L32.2 12.6 32.1 12.95 32.0 13.45 32.05 13.45 32.1 13.75 32.15 13.8 33.0 14.2 33.45 14.0 33.8 13.95 33.8 13.7 M29.7 10.8 L29.2 10.4 28.55 10.1 28.0 9.85 27.55 9.75 27.15 9.55 26.9 9.4 26.55 9.5 26.9 11.6 27.05 12.5 27.5 12.85 27.6 12.9 27.65 12.95 27.75 13.0 28.25 13.25 28.4 13.25 28.45 13.25 28.6 13.3 28.75 13.3 28.9 13.3 28.95 13.3 29.75 13.05 29.95 12.85 Q30.2 12.4 30.1 11.65 L30.0 11.2 29.8 10.9 29.7 10.8 M30.05 21.1 L30.2 20.6 30.2 20.5 30.15 19.8 Q29.9 18.85 28.85 18.5 L28.55 18.4 28.35 18.35 28.05 18.25 26.95 17.6 26.45 17.4 25.4 17.0 25.05 16.8 24.8 16.75 24.55 16.9 24.8 17.85 25.1 18.9 25.15 19.05 25.75 20.35 26.15 20.7 26.75 21.15 27.1 21.3 27.55 21.45 28.5 21.55 28.55 21.55 29.35 21.4 29.75 21.25 30.05 21.1 M39.75 15.5 L39.75 15.45 39.55 15.15 38.65 15.2 37.9 15.25 37.85 15.3 37.25 15.5 36.7 15.75 35.8 16.05 35.1 16.55 34.9 17.3 34.9 17.55 Q35.0 18.2 35.5 18.5 L35.5 18.55 35.55 18.55 35.75 18.65 36.1 18.75 37.05 18.7 37.55 18.55 37.95 18.35 38.2 18.25 39.4 16.2 39.55 15.85 39.75 15.5" fill="#000000" fill-rule="evenodd" stroke="none"/>
    <path d="M71.8 37.1 L72.5 37.2 72.7 37.35 74.3 38.1 75.25 38.5 76.75 39.15 78.15 39.75 80.05 40.65 80.45 41.3 81.2 43.3 81.35 44.0 81.35 44.25 81.35 44.4 81.4 44.6 81.4 46.05 81.2 47.4 81.1 47.75 80.1 47.85 74.15 48.35 74.8 48.3 73.75 47.75 73.0 47.35 Q73.15 45.7 71.85 44.65 L71.3 44.05 71.05 43.0 71.4 41.85 Q71.8 40.85 72.5 40.0 L72.7 39.45 72.7 39.4 72.65 38.8 72.45 38.35 72.4 37.85 72.25 37.25 71.8 37.1 M64.4 64.9 L65.4 64.6 71.2 63.5 71.3 63.6 Q71.95 63.85 72.55 64.4 L72.5 64.4 Q71.8 64.8 71.9 65.5 L72.15 66.4 72.65 67.35 72.55 67.55 72.45 67.8 Q72.05 67.95 71.95 68.35 L71.9 68.45 72.0 68.65 72.1 68.9 Q71.35 69.65 71.3 70.7 L71.3 70.95 70.1 71.35 70.7 71.2 69.5 69.4 69.35 69.4 69.15 69.3 69.1 69.25 Q67.8 68.95 66.8 69.55 L66.6 69.65 Q64.35 68.95 63.1 71.2 L62.4 73.05 60.9 74.05 58.85 74.95 56.75 75.35 54.9 75.2 47.15 75.4 46.0 75.8 Q44.4 76.5 43.5 77.75 43.2 77.3 42.55 77.2 38.9 76.5 38.25 73.0 L38.2 72.75 Q38.85 69.0 38.2 65.2 L38.15 64.8 38.05 64.5 38.2 64.35 39.6 62.3 39.75 61.8 39.75 61.45 39.7 60.8 39.7 60.75 Q39.45 58.8 38.3 57.05 L37.7 56.1 Q35.85 52.65 35.85 48.75 L35.9 47.7 35.95 43.6 35.95 43.45 36.3 42.8 37.65 42.55 Q38.9 43.95 39.1 45.95 39.2 47.15 39.9 48.15 L42.3 51.2 42.8 51.95 Q44.1 54.25 44.8 56.8 L45.4 58.15 47.05 60.45 47.7 61.1 48.65 61.8 Q48.4 62.6 48.4 63.5 48.4 65.15 49.5 66.45 L50.7 66.65 50.55 67.05 50.35 68.5 Q50.3 69.3 50.75 69.9 L50.75 69.95 51.15 70.55 52.05 70.5 52.2 70.4 Q53.15 70.65 53.65 70.0 L53.55 70.2 53.7 70.1 53.9 69.85 54.2 68.95 Q54.2 67.8 53.6 66.8 L53.5 66.65 53.8 66.0 Q54.8 62.8 56.35 59.8 57.25 58.1 57.65 56.3 L58.95 55.45 60.3 54.7 Q61.4 54.15 62.65 53.7 L63.0 53.55 62.7 53.7 64.45 54.85 64.35 55.65 64.2 56.15 64.15 56.3 63.95 56.95 63.95 57.5 64.0 57.6 Q62.85 58.6 62.0 59.8 61.6 60.35 61.5 61.05 61.25 62.6 60.25 63.75 59.65 64.45 60.0 65.1 59.55 65.75 60.1 66.6 L60.3 67.25 Q60.25 68.15 60.95 68.55 L61.95 68.6 Q62.85 68.1 63.2 67.1 L63.65 66.35 64.35 65.0 64.4 64.9 M51.8 77.95 L51.2 78.2 51.2 78.15 51.8 77.95 M42.4 81.1 L41.9 81.85 41.8 81.75 41.95 81.75 42.4 81.1 M29.75 22.0 L29.7 21.9 Q30.35 21.75 30.6 21.0 30.9 20.15 30.45 19.3 L29.85 18.65 29.65 18.55 29.4 18.35 28.55 17.75 28.6 17.4 28.6 16.95 28.7 15.35 28.7 14.9 28.75 14.55 28.75 14.25 28.8 13.95 28.8 13.8 Q29.35 13.85 29.75 13.4 L30.35 12.85 30.4 12.7 Q30.7 11.9 30.3 11.1 L30.2 11.0 30.15 10.95 30.2 10.9 30.05 10.7 Q29.6 10.1 29.0 9.8 L28.95 9.5 Q30.05 8.05 31.9 7.55 32.75 7.8 33.45 8.25 L34.3 8.85 34.5 9.0 35.15 9.7 35.35 9.95 35.75 10.45 36.05 10.95 36.25 11.4 Q36.9 12.85 37.15 14.8 L37.2 15.1 37.15 14.85 Q36.1 15.2 35.15 15.9 L35.05 15.7 35.05 15.95 35.05 16.0 34.7 16.45 Q34.35 17.2 34.55 18.05 34.75 18.7 35.3 19.05 L35.3 19.2 35.05 19.1 34.3 18.75 34.2 18.7 34.05 18.55 Q33.1 18.55 33.35 19.45 L33.9 20.15 Q34.75 20.7 35.75 20.8 L35.9 21.0 36.05 21.15 36.4 21.5 37.05 21.7 Q37.7 21.8 38.25 21.3 L38.65 21.55 Q42.0 23.45 45.1 26.4 L45.15 26.45 45.65 26.9 45.9 27.35 45.75 27.5 45.4 27.85 45.4 27.9 45.15 28.05 43.9 28.9 43.75 29.0 42.75 28.75 42.35 28.7 42.25 28.65 40.1 28.0 Q38.05 27.85 37.35 29.75 L37.35 29.85 36.7 30.55 36.0 31.75 35.9 32.1 35.45 32.55 Q35.1 32.6 34.75 32.8 L34.55 32.85 Q33.15 32.6 32.15 31.8 31.6 30.05 30.45 28.5 L29.35 26.9 28.85 26.2 28.7 26.05 28.6 23.6 28.65 23.6 28.75 23.6 30.3 23.55 30.4 23.5 Q31.25 23.45 31.55 22.65 31.85 22.0 31.25 21.65 30.75 21.6 30.4 21.95 L30.3 22.05 30.1 22.05 29.75 22.05 29.75 22.0 M52.45 21.95 L53.55 21.55 54.7 21.05 57.15 21.35 57.65 21.4 58.85 22.4 59.2 22.7 59.4 22.9 59.3 22.95 58.75 23.3 57.1 23.35 54.3 23.1 Q52.9 23.0 52.45 21.95 M64.05 26.55 L64.15 27.3 64.05 27.1 64.15 26.85 64.05 26.55 M63.55 30.2 L63.35 30.85 63.9 31.95 Q63.3 32.05 62.75 32.35 L62.65 32.4 61.95 32.65 60.7 31.9 60.4 31.75 60.3 31.65 59.75 31.65 59.6 31.2 60.2 31.05 61.6 30.25 62.25 30.05 62.6 29.75 62.65 29.75 Q63.0 30.15 63.55 30.2 M65.1 33.25 L65.45 33.35 66.2 33.45 66.75 33.5 67.0 33.6 69.3 34.25 69.4 34.35 71.1 36.3 69.65 36.55 69.6 36.6 69.05 36.75 67.25 36.8 Q66.3 35.9 64.85 35.65 L64.9 35.45 65.0 34.85 65.05 34.6 65.1 33.25 M58.0 21.05 L56.8 20.85 56.8 20.8 56.7 20.8 56.25 20.7 54.55 20.8 56.7 20.65 57.9 21.0 58.0 21.05 M50.35 25.2 L50.85 24.9 51.2 24.45 53.55 24.6 57.15 25.25 60.05 26.0 60.55 26.2 60.55 26.25 60.65 26.2 60.75 26.25 60.85 26.3 60.95 26.4 60.85 26.4 Q59.75 26.55 58.75 27.25 L58.35 27.55 58.35 27.6 58.25 27.45 58.05 27.2 57.45 26.6 Q56.7 25.95 55.75 25.9 53.7 25.85 52.0 27.0 L52.15 26.9 51.9 26.6 51.75 26.45 50.15 25.85 49.95 26.05 50.2 25.75 50.4 25.5 50.8 25.0 50.35 25.2 M47.0 37.35 L47.0 37.4 47.0 37.35 M45.85 49.3 L45.9 49.45 45.8 49.35 45.85 49.3 M46.55 50.55 L46.8 50.7 46.7 50.8 46.55 50.55 M33.6 10.5 Q32.15 10.95 31.6 12.6 L31.5 13.15 31.5 13.3 Q31.5 14.25 32.5 14.6 33.35 15.0 33.95 14.45 L33.9 14.4 34.25 13.9 34.35 12.45 34.5 11.9 34.7 11.1 34.7 11.05 34.6 10.9 34.35 10.2 34.15 10.15 33.85 10.35 33.9 10.45 33.95 10.5 33.9 10.5 33.65 10.45 33.6 10.5 M30.0 11.2 L29.7 10.8 29.8 10.9 30.0 11.2 M31.25 14.65 Q30.45 14.9 30.85 15.7 31.1 16.2 31.6 16.4 L33.25 16.5 Q34.1 16.25 33.75 15.5 L33.55 15.35 Q32.75 15.45 32.1 15.0 31.7 14.75 31.25 14.65" fill="#999966" fill-rule="evenodd" stroke="none"/>
    <path d="M48.15 23.25 L48.1 23.15 47.9 22.85 47.4 22.35 47.25 22.1 47.2 22.05 46.65 21.15 46.5 20.95 Q46.5 20.6 46.65 20.4 L48.35 21.05 50.0 21.7 50.1 21.8 50.55 22.25 50.85 22.7 51.25 23.7 51.3 23.85 51.2 24.45 50.85 24.9 50.35 25.2 49.8 25.25 49.7 25.25 49.25 25.1 48.9 24.65 48.65 23.95 48.65 23.9 48.15 23.25 M59.65 23.15 L60.2 22.35 60.35 22.2 62.3 21.4 62.8 21.2 63.15 21.1 63.75 20.9 63.95 21.25 63.4 21.9 63.0 22.45 62.3 23.65 62.2 24.1 62.2 24.2 61.85 24.7 61.6 25.1 61.5 25.3 61.0 25.75 60.05 25.9 Q59.6 25.75 59.45 25.15 L59.35 24.8 59.45 23.75 59.5 23.55 59.65 23.15" fill="#ffffcc" fill-rule="evenodd" stroke="none"/>
    <path d="M81.1 47.75 L81.05 47.9 80.8 48.6 80.65 49.05 Q77.1 51.95 72.05 52.1 70.9 52.8 69.9 53.7 L69.55 53.65 69.35 54.2 69.25 54.25 Q68.1 55.35 67.3 56.8 66.65 57.85 66.6 59.2 L64.15 61.85 64.2 62.45 64.25 63.8 64.15 64.85 64.1 64.95 64.3 64.9 64.4 64.9 64.35 65.0 63.65 66.35 63.2 67.1 Q62.85 68.1 61.95 68.6 L60.95 68.55 Q60.25 68.15 60.3 67.25 L60.1 66.6 Q59.55 65.75 60.0 65.1 59.65 64.45 60.25 63.75 61.25 62.6 61.5 61.05 61.6 60.35 62.0 59.8 62.85 58.6 64.0 57.6 L63.95 57.5 63.95 56.95 64.15 56.3 64.2 56.15 64.35 55.65 64.45 54.85 62.7 53.7 63.0 53.55 62.65 53.7 Q61.4 54.15 60.3 54.7 L61.95 52.95 Q63.35 51.6 65.0 50.55 66.55 49.5 68.4 49.1 L68.75 48.9 Q69.95 48.3 70.5 47.0 70.8 46.3 70.7 45.6 L70.9 45.0 Q71.15 43.5 70.8 42.0 L70.55 41.2 Q69.95 39.5 68.35 38.45 67.1 37.65 65.75 37.15 L64.4 36.5 64.0 36.25 Q63.35 35.85 63.05 35.2 L62.5 34.15 61.25 32.9 61.1 32.65 60.7 31.9 61.95 32.65 62.65 32.4 62.75 32.35 Q63.3 32.05 63.9 31.95 L63.95 31.95 64.2 32.5 64.5 33.05 65.1 33.25 65.05 34.6 65.0 34.85 64.9 35.45 64.85 35.65 Q66.3 35.9 67.25 36.8 L69.05 36.75 69.6 36.6 69.65 36.55 71.1 36.3 71.25 36.55 71.3 36.6 71.35 36.65 71.4 36.75 71.45 36.8 71.8 37.1 72.25 37.25 72.4 37.85 72.45 38.35 72.65 38.8 72.7 39.4 72.7 39.45 72.5 40.0 Q71.8 40.85 71.4 41.85 L71.05 43.0 71.3 44.05 71.85 44.65 Q73.15 45.7 73.0 47.35 L73.75 47.75 74.8 48.3 74.15 48.35 80.1 47.85 81.1 47.75 M66.8 72.6 Q64.45 73.1 62.4 74.75 61.35 75.5 60.1 75.7 L59.35 75.85 Q55.45 76.6 51.85 77.95 L51.8 77.95 51.2 78.15 51.2 78.2 50.05 78.65 47.25 78.65 45.45 78.85 45.15 78.9 44.85 78.95 44.75 78.95 43.75 79.05 42.4 81.1 41.95 81.75 41.8 81.75 41.9 81.85 39.6 85.35 39.25 85.9 Q38.4 86.1 38.0 87.15 L37.85 87.5 37.8 87.5 37.0 88.25 Q36.4 88.15 35.95 88.55 L35.65 88.95 Q34.55 89.15 33.85 88.3 L33.55 87.9 Q32.6 86.35 32.15 84.55 L32.05 84.3 Q31.3 81.05 32.05 77.4 33.15 71.85 36.0 67.45 L36.7 66.45 36.65 66.35 35.95 65.15 35.9 65.05 35.9 65.0 35.05 63.1 Q34.75 60.45 34.0 58.05 L33.95 57.15 33.5 51.1 33.6 50.9 33.5 50.75 33.1 47.35 32.95 46.2 32.95 46.15 32.6 43.6 32.4 42.35 32.0 41.5 31.4 39.15 31.2 38.75 30.9 37.8 29.9 34.75 28.5 30.9 26.95 27.1 27.0 26.9 27.05 26.75 Q26.65 25.5 26.7 24.05 L26.75 22.15 26.75 21.7 28.15 22.2 29.5 22.1 29.75 22.0 29.75 22.05 30.1 22.05 30.3 22.05 30.4 21.95 Q30.75 21.6 31.25 21.65 31.85 22.0 31.55 22.65 31.25 23.45 30.4 23.5 L30.3 23.55 28.75 23.6 28.65 23.6 28.6 23.6 28.7 26.05 28.85 26.2 29.35 26.9 30.45 28.5 Q31.6 30.05 32.15 31.8 33.15 32.6 34.55 32.85 L34.75 32.8 Q35.1 32.6 35.45 32.55 35.0 35.05 36.2 37.4 L37.8 40.6 38.15 41.05 38.2 41.55 38.55 42.6 Q39.5 45.4 40.85 48.05 41.9 50.1 43.3 51.9 L43.9 52.55 45.3 54.2 45.6 54.8 45.65 54.85 46.7 56.45 47.05 57.25 Q47.25 58.9 48.6 59.75 49.45 61.95 51.65 62.9 52.5 63.3 53.0 62.7 L53.4 62.75 Q53.75 62.7 53.9 62.45 54.75 61.35 55.1 60.0 55.45 58.6 54.9 57.25 L54.9 57.2 56.1 55.55 56.5 55.1 58.15 55.35 58.95 55.45 57.65 56.3 Q57.25 58.1 56.35 59.8 54.8 62.8 53.8 66.0 L53.5 66.65 Q53.05 66.1 52.5 66.0 51.45 65.95 50.95 66.65 L50.7 66.65 49.5 66.45 Q48.4 65.15 48.4 63.5 48.4 62.6 48.65 61.8 L47.7 61.1 47.05 60.45 45.4 58.15 44.8 56.8 Q44.1 54.25 42.8 51.95 L42.3 51.2 39.9 48.15 Q39.2 47.15 39.1 45.95 38.9 43.95 37.65 42.55 L36.3 42.8 35.95 43.45 35.95 43.6 35.9 47.7 35.85 48.75 Q35.85 52.65 37.7 56.1 L38.3 57.05 Q39.45 58.8 39.7 60.75 L39.7 60.8 39.75 61.45 39.75 61.8 39.6 62.3 38.2 64.35 38.05 64.5 38.15 64.8 38.2 65.2 Q38.85 69.0 38.2 72.75 L38.25 73.0 Q38.9 76.5 42.55 77.2 43.2 77.3 43.5 77.75 44.4 76.5 46.0 75.8 L47.15 75.4 54.9 75.2 56.75 75.35 58.85 74.95 60.9 74.05 62.4 73.05 63.1 71.2 Q64.35 68.95 66.6 69.65 L66.8 69.55 Q67.8 68.95 69.1 69.25 L69.15 69.3 69.35 69.4 69.5 69.4 70.7 71.2 70.1 71.35 71.3 70.95 71.3 70.7 Q71.35 69.65 72.1 68.9 L72.0 68.65 71.9 68.45 71.95 68.35 Q72.05 67.95 72.45 67.8 L72.55 67.55 72.65 67.35 72.15 66.4 71.9 65.5 Q71.8 64.8 72.5 64.4 73.0 64.7 73.05 65.4 L73.2 66.1 73.45 68.2 Q73.4 69.8 72.45 71.05 L71.6 71.65 70.25 71.8 Q69.65 71.7 69.4 71.4 L67.65 71.5 67.25 71.6 67.1 71.8 66.8 72.6 M28.55 17.75 L28.55 17.95 28.45 17.85 28.3 17.65 27.0 17.0 27.05 16.8 27.35 13.95 27.4 13.55 27.45 13.15 27.45 13.3 28.15 13.85 28.8 13.95 28.75 14.25 28.75 14.55 28.7 14.9 28.7 15.35 28.6 16.95 28.6 17.4 28.55 17.75 M29.0 9.8 L28.8 9.7 28.95 9.5 29.0 9.8 M35.15 15.9 L35.05 15.95 35.05 15.7 35.15 15.9 M35.3 19.05 L35.6 19.2 37.45 19.3 37.65 19.25 37.7 19.8 37.75 20.65 37.8 20.9 37.8 21.05 38.25 21.3 Q37.7 21.8 37.05 21.7 L36.4 21.5 36.05 21.15 35.9 21.0 35.75 20.8 Q34.75 20.7 33.9 20.15 L33.35 19.45 Q33.1 18.55 34.05 18.55 L34.2 18.7 34.3 18.75 35.05 19.1 35.3 19.2 35.3 19.05 M45.65 26.9 L46.05 27.35 46.35 27.4 46.5 27.25 46.3 26.45 Q46.15 25.85 46.25 25.15 46.3 24.8 46.55 24.6 L47.25 23.95 48.05 23.3 48.15 23.25 48.65 23.9 48.65 23.95 48.9 24.65 49.25 25.1 49.7 25.25 49.8 25.25 50.35 25.2 50.8 25.0 50.4 25.5 50.2 25.75 49.7 25.6 Q48.6 25.55 48.0 26.5 47.5 27.3 47.8 28.25 L47.95 28.65 48.05 28.85 48.1 28.8 Q46.9 29.45 45.5 29.65 L38.85 30.45 38.5 30.25 36.7 30.55 37.35 29.85 37.35 29.75 Q38.05 27.85 40.1 28.0 L42.25 28.65 42.35 28.7 42.75 28.75 43.75 29.0 43.9 28.9 45.15 28.05 45.4 27.9 45.4 27.85 45.75 27.5 45.9 27.35 45.65 26.9 M50.85 22.7 L51.55 22.3 51.85 22.15 52.2 22.05 52.45 21.95 Q52.9 23.0 54.3 23.1 L57.1 23.35 58.75 23.3 59.3 22.95 59.4 22.9 59.65 23.15 59.5 23.55 59.45 23.75 59.35 24.8 59.45 25.15 Q59.6 25.75 60.05 25.9 L61.0 25.75 61.5 25.3 61.6 25.1 61.85 24.7 62.5 25.05 63.5 25.8 63.7 26.0 63.75 26.05 63.75 26.1 63.95 26.4 64.05 26.55 64.15 26.85 64.05 27.1 64.15 27.3 64.15 27.35 64.0 28.25 63.55 30.2 Q63.0 30.15 62.65 29.75 63.7 28.95 63.3 27.7 63.0 26.85 62.2 26.45 L61.85 26.35 61.55 26.25 60.85 26.3 60.75 26.25 60.65 26.2 60.55 26.2 60.05 26.0 57.15 25.25 53.55 24.6 51.2 24.45 51.3 23.85 51.25 23.7 50.85 22.7 M31.25 14.65 Q31.7 14.75 32.1 15.0 32.75 15.45 33.55 15.35 L33.75 15.5 Q34.1 16.25 33.25 16.5 L31.6 16.4 Q31.1 16.2 30.85 15.7 30.45 14.9 31.25 14.65" fill="#666633" fill-rule="evenodd" stroke="none"/>
    <path d="M60.65 26.2 L60.55 26.25 60.55 26.2 60.65 26.2 M48.65 28.4 L48.65 28.35 48.65 28.4 M44.6 35.65 L44.55 35.6 44.6 35.6 44.6 35.65 M60.8 40.1 L60.8 40.05 60.85 40.0 60.85 40.05 60.8 40.1 M65.1 44.15 L64.85 44.1 65.1 44.1 65.1 44.15 M36.55 9.15 L36.7 10.2 36.75 10.35 36.45 10.95 36.0 10.1 36.0 10.05 36.55 9.15 M33.8 13.7 L33.8 13.95 33.45 14.0 33.0 14.2 32.15 13.8 32.1 13.75 32.05 13.45 32.25 13.55 33.85 13.6 33.8 13.7 M27.15 9.55 L27.45 10.7 28.1 12.7 28.15 12.85 28.25 13.25 27.75 13.0 27.65 12.95 27.6 12.9 27.5 12.85 27.05 12.5 26.9 11.6 26.55 9.5 26.9 9.4 27.15 9.55 M25.1 18.9 L27.1 20.25 27.4 20.35 30.0 20.7 30.15 20.9 30.05 21.1 29.75 21.25 29.35 21.4 28.55 21.55 28.5 21.55 27.55 21.45 27.1 21.3 26.75 21.15 26.15 20.7 25.75 20.35 25.15 19.05 25.1 18.9 M35.75 18.65 L35.85 18.35 36.1 18.1 36.5 17.9 37.5 17.35 38.15 16.8 38.45 16.55 39.75 15.5 39.55 15.85 39.4 16.2 38.2 18.25 37.95 18.35 37.55 18.55 37.05 18.7 36.1 18.75 35.75 18.65 M53.65 70.0 L53.7 70.1 53.55 70.2 53.65 70.0" fill="#666666" fill-rule="evenodd" stroke="none"/>
    <path d="M58.55 28.1 L59.1 27.6 59.15 27.6 59.2 27.6 59.2 27.55 59.95 27.15 60.05 27.1 61.05 26.8 61.15 26.8 61.35 26.75 61.65 26.75 61.7 26.85 61.8 26.85 62.1 26.85 Q62.7 27.15 62.9 27.75 L62.95 27.9 63.0 28.45 62.95 28.65 62.95 28.75 62.35 29.45 62.3 29.45 Q61.55 29.8 60.85 29.45 60.45 29.0 60.4 28.4 L60.45 28.0 60.2 28.05 Q59.85 28.1 59.8 28.5 L59.6 28.85 58.7 28.8 57.55 29.7 57.7 29.15 57.85 28.95 58.55 28.1 M48.6 28.35 L48.6 28.25 Q48.2 27.4 48.4 26.85 L48.55 26.5 Q48.85 26.15 49.45 25.95 L49.9 26.1 50.15 26.2 50.8 26.55 51.6 27.3 51.8 27.5 52.0 27.75 52.0 27.8 52.05 27.9 52.1 28.0 52.3 28.8 52.2 29.3 51.4 28.7 51.2 28.35 50.75 27.25 Q50.4 28.6 48.8 28.35 L48.65 28.35 48.6 28.35 M42.45 39.0 L42.05 38.65 42.0 38.6 41.95 38.5 Q41.55 38.0 41.5 37.4 L41.85 35.5 42.1 35.15 Q42.8 34.4 44.4 34.35 L44.75 34.5 44.95 34.45 45.85 34.8 46.1 34.95 46.85 35.15 47.35 35.65 Q47.95 35.65 48.3 36.1 L47.95 36.2 46.4 36.1 45.25 35.9 44.75 35.6 44.6 35.6 44.55 35.6 44.6 35.65 Q45.5 37.1 44.65 38.5 L43.9 39.25 42.9 39.35 42.45 39.0 M47.95 46.7 L48.05 46.7 48.25 46.6 48.95 46.75 49.25 46.8 49.8 46.9 49.9 46.95 50.45 47.2 50.4 47.2 48.6 47.55 48.4 47.55 47.45 47.6 Q48.5 48.5 48.55 49.95 L48.5 50.35 48.45 50.3 48.0 50.35 Q46.8 50.35 46.5 49.25 L46.45 48.2 Q46.55 47.7 46.9 47.4 47.6 47.25 47.9 46.75 L47.95 46.75 47.95 46.7 M60.8 40.1 L60.85 40.05 60.85 40.0 Q61.05 39.45 61.5 39.3 L62.3 39.25 62.4 39.3 64.2 39.55 64.45 39.45 Q65.5 39.6 66.2 40.05 67.3 40.8 67.6 42.45 L67.55 43.0 67.35 43.15 66.25 43.8 Q65.75 43.8 65.15 43.45 L64.5 42.6 64.3 41.7 Q64.3 40.3 65.45 40.1 L64.9 40.3 63.75 40.4 63.35 40.85 Q63.0 41.3 62.45 41.15 L62.25 40.65 62.35 40.3 62.4 39.95 61.3 40.1 61.05 40.1 60.8 40.1 M55.9 47.8 L55.8 47.6 54.95 47.35 55.2 47.2 55.95 47.0 57.0 47.5 57.15 47.5 Q58.05 47.8 58.45 48.6 L58.5 48.75 Q59.0 49.2 59.1 49.8 L59.15 50.05 58.95 50.85 58.7 51.3 58.25 51.65 58.2 51.7 58.0 51.8 57.35 51.45 Q56.65 50.85 56.7 49.95 56.8 48.8 57.7 48.6 L57.0 48.4 56.3 48.35 Q55.85 48.25 55.9 47.8 M36.0 10.05 L35.4 9.15 34.8 8.45 34.75 8.45 35.9 8.05 36.4 7.9 36.55 9.15 36.0 10.05 M32.05 13.45 L32.0 13.45 32.1 12.95 32.2 12.6 32.55 11.8 Q32.9 11.3 33.4 10.95 L34.05 10.5 34.2 10.55 34.2 10.65 Q34.2 12.25 33.8 13.7 L33.85 13.6 32.25 13.55 32.05 13.45 M27.15 9.55 L27.55 9.75 28.0 9.85 28.55 10.1 29.2 10.4 29.7 10.8 30.0 11.2 30.1 11.65 Q30.2 12.4 29.95 12.85 L29.75 13.05 28.95 13.3 28.9 13.3 28.75 13.3 28.6 13.3 28.45 13.25 28.4 13.25 28.25 13.25 28.15 12.85 28.1 12.7 27.45 10.7 27.15 9.55 M25.1 18.9 L24.8 17.85 24.55 16.9 24.8 16.75 25.05 16.8 25.4 17.0 26.45 17.4 26.95 17.6 28.05 18.25 28.35 18.35 28.55 18.4 28.85 18.5 Q29.9 18.85 30.15 19.8 L30.2 20.5 30.2 20.6 30.05 21.1 30.15 20.9 30.0 20.7 27.4 20.35 27.1 20.25 25.1 18.9 M35.75 18.65 L35.55 18.55 35.5 18.55 35.5 18.5 Q35.0 18.2 34.9 17.55 L34.9 17.3 35.1 16.55 35.8 16.05 36.7 15.75 37.25 15.5 37.85 15.3 37.9 15.25 38.65 15.2 39.55 15.15 39.75 15.45 39.75 15.5 38.45 16.55 38.15 16.8 37.5 17.35 36.5 17.9 36.1 18.1 35.85 18.35 35.75 18.65 M53.6 58.45 L53.8 58.8 54.1 59.35 54.0 59.8 53.95 59.9 54.0 60.2 54.05 60.55 53.9 60.45 53.65 60.25 52.45 59.35 52.2 59.35 50.75 59.75 50.6 59.25 50.5 59.15 50.7 58.9 50.7 58.75 Q50.9 57.7 51.9 57.5 L52.15 57.5 52.35 57.45 52.55 57.45 52.9 57.55 53.6 58.45 M50.65 68.7 L50.7 68.25 50.75 67.9 Q50.85 67.5 51.1 67.15 L51.1 67.1 51.25 66.9 51.3 66.8 51.35 66.8 51.4 66.75 51.55 66.7 51.55 66.65 52.35 66.5 52.55 66.55 53.15 67.05 53.25 67.25 53.4 67.55 53.75 68.6 53.85 69.0 52.95 68.4 52.8 68.3 Q51.55 68.0 50.65 68.7" fill="#cccccc" fill-rule="evenodd" stroke="none"/>
    <path d="M57.85 28.95 L57.7 29.15 57.55 29.7 58.7 28.8 59.6 28.85 59.8 28.5 Q59.85 28.1 60.2 28.05 L60.45 28.0 60.4 28.4 Q60.45 29.0 60.85 29.45 61.55 29.8 62.3 29.45 L62.35 29.45 62.95 28.75 62.95 28.65 63.0 28.45 62.95 27.9 62.9 27.75 Q62.7 27.15 62.1 26.85 L61.8 26.85 61.7 26.85 61.65 26.75 61.35 26.75 61.15 26.8 61.05 26.8 60.05 27.1 59.95 27.15 59.2 27.55 59.2 27.6 59.15 27.6 59.1 27.6 58.55 28.1 58.4 27.7 58.4 27.65 58.35 27.6 58.35 27.55 58.75 27.25 Q59.75 26.55 60.85 26.4 L60.95 26.4 60.85 26.3 61.55 26.25 61.85 26.35 62.2 26.45 Q63.0 26.85 63.3 27.7 63.7 28.95 62.65 29.75 L62.6 29.75 62.25 30.05 61.6 30.25 60.2 31.05 59.6 31.2 59.55 31.2 59.05 31.2 Q58.35 31.05 57.8 30.35 L57.55 29.8 57.4 29.8 57.4 29.7 57.35 29.4 57.35 29.3 57.55 29.0 57.65 28.8 57.85 28.95 M52.65 27.7 L52.75 28.0 Q53.05 29.25 51.95 29.85 L50.15 29.95 49.15 29.15 48.65 28.4 48.65 28.35 48.8 28.35 Q50.4 28.6 50.75 27.25 L51.2 28.35 51.4 28.7 52.2 29.3 52.3 28.8 52.1 28.0 52.05 27.9 52.0 27.8 52.0 27.75 52.45 27.7 52.5 27.7 52.65 27.7 M46.75 46.55 Q47.4 46.15 48.25 46.05 49.25 46.2 50.1 46.8 L50.45 46.8 50.85 47.45 Q51.05 48.0 50.9 48.6 L50.3 49.4 49.55 50.35 49.2 50.6 48.75 51.0 47.75 51.1 46.8 50.7 46.55 50.55 Q46.0 50.1 45.9 49.45 L45.85 49.3 Q45.65 48.1 46.1 47.5 46.25 47.25 46.55 47.1 L46.7 46.7 46.8 46.55 46.75 46.55 M55.0 46.8 L55.15 47.15 55.1 46.95 56.45 46.7 57.55 47.1 58.25 47.3 58.7 47.8 Q59.4 48.55 59.6 49.45 L59.35 49.65 59.55 49.5 59.65 50.0 59.65 50.25 Q59.6 51.3 58.65 51.75 L57.55 51.85 57.45 51.85 57.0 51.55 56.9 51.4 55.4 51.05 54.95 50.75 54.45 50.05 Q53.85 48.6 54.55 47.25 54.7 46.95 55.0 46.8 M50.2 25.75 L49.95 26.05 50.15 25.85 51.75 26.45 51.9 26.6 52.15 26.9 52.0 27.0 51.95 27.0 51.6 27.3 50.8 26.55 50.15 26.2 49.9 26.1 49.45 25.95 Q48.85 26.15 48.55 26.5 L48.4 26.85 Q48.2 27.4 48.6 28.25 L48.6 28.35 48.15 28.75 48.1 28.8 48.05 28.85 47.95 28.65 47.8 28.25 Q47.5 27.3 48.0 26.5 48.6 25.55 49.7 25.6 L50.2 25.75 M44.6 35.6 L44.75 35.6 45.25 35.9 46.4 36.1 47.95 36.2 48.3 36.1 Q47.95 35.65 47.35 35.65 L46.85 35.15 46.1 34.95 45.85 34.8 44.95 34.45 44.75 34.5 44.4 34.35 Q42.8 34.4 42.1 35.15 L41.85 35.5 41.5 37.4 Q41.55 38.0 41.95 38.5 L42.0 38.6 42.05 38.65 42.45 39.0 42.8 39.3 42.55 39.25 42.3 39.2 Q41.25 38.35 41.05 36.95 40.95 35.7 41.8 34.9 42.9 33.8 44.45 33.9 46.0 33.85 47.15 34.8 L47.9 35.3 Q48.5 35.65 48.45 36.35 L48.55 36.5 48.65 37.25 Q48.8 38.05 48.15 38.6 47.1 39.55 45.65 39.45 L42.9 39.35 43.9 39.25 44.65 38.5 Q45.5 37.1 44.6 35.65 L44.6 35.6 M47.0 37.35 L47.0 37.4 47.0 37.35 M49.85 59.6 Q49.8 59.05 50.05 58.45 L50.2 58.2 Q51.2 56.85 52.9 56.75 L53.35 56.9 53.95 57.55 54.05 57.75 54.35 58.6 54.3 58.85 54.35 58.55 Q54.65 59.4 54.45 60.3 L54.4 60.55 54.3 60.9 54.05 61.2 53.75 61.55 53.25 61.85 52.75 62.15 52.5 62.2 52.4 62.25 52.05 62.2 Q51.5 62.1 50.85 61.6 L50.75 61.5 50.4 61.1 50.25 60.6 50.35 59.6 50.3 59.7 50.25 59.5 50.1 59.45 49.85 59.6 M48.05 46.7 L47.85 46.65 47.95 46.7 47.95 46.75 47.9 46.75 Q47.6 47.25 46.9 47.4 46.55 47.7 46.45 48.2 L46.5 49.25 Q46.8 50.35 48.0 50.35 L48.45 50.3 48.5 50.35 48.55 49.95 Q48.5 48.5 47.45 47.6 L48.4 47.55 48.6 47.55 50.4 47.2 50.45 47.2 49.9 46.95 49.8 46.9 49.25 46.8 49.25 46.75 48.9 46.75 48.95 46.75 48.25 46.6 48.05 46.7 M65.1 44.1 L62.85 43.65 62.55 43.5 62.45 43.4 62.1 42.8 Q61.5 42.9 61.0 42.25 60.5 41.55 60.65 40.65 L60.8 40.1 61.05 40.1 61.3 40.1 62.4 39.95 62.35 40.3 62.25 40.65 62.45 41.15 Q63.0 41.3 63.35 40.85 L63.75 40.4 64.9 40.3 65.45 40.1 Q64.3 40.3 64.3 41.7 L64.5 42.6 65.15 43.45 Q65.75 43.8 66.25 43.8 L67.35 43.15 67.55 43.0 67.6 42.45 Q67.3 40.8 66.2 40.05 65.5 39.6 64.45 39.45 L64.2 39.55 62.4 39.3 62.3 39.25 61.5 39.3 Q61.05 39.45 60.85 40.0 L60.8 40.05 Q60.65 38.9 61.85 38.9 L65.2 39.15 66.0 39.3 Q67.6 39.85 68.05 41.45 68.25 42.0 68.05 42.5 67.6 43.85 66.25 44.15 L65.1 44.15 65.1 44.1 M55.9 47.8 Q55.85 48.25 56.3 48.35 L57.0 48.4 57.7 48.6 Q56.8 48.8 56.7 49.95 56.65 50.85 57.35 51.45 L58.0 51.8 58.2 51.7 58.25 51.65 58.7 51.3 58.95 50.85 59.15 50.05 59.1 49.8 Q59.0 49.2 58.5 48.75 L58.45 48.6 Q58.05 47.8 57.15 47.5 L57.0 47.5 55.95 47.0 55.2 47.2 54.95 47.35 55.8 47.6 55.9 47.8 M50.7 66.65 L50.95 66.65 Q51.45 65.95 52.5 66.0 53.05 66.1 53.5 66.65 L53.6 66.8 Q54.2 67.8 54.2 68.95 L53.9 69.85 53.7 70.1 53.65 70.0 Q53.15 70.65 52.2 70.4 L52.05 70.5 51.15 70.55 50.75 69.95 50.75 69.9 Q50.3 69.3 50.35 68.5 L50.55 67.05 50.7 66.65 M53.6 58.45 L52.9 57.55 52.55 57.45 52.35 57.45 52.15 57.5 51.9 57.5 Q50.9 57.7 50.7 58.75 L50.7 58.9 50.5 59.15 50.6 59.25 50.75 59.75 52.2 59.35 52.45 59.35 53.65 60.25 53.9 60.45 54.05 60.55 54.0 60.2 53.95 59.9 54.0 59.8 54.1 59.35 53.8 58.8 53.6 58.45 M50.65 68.7 Q51.55 68.0 52.8 68.3 L52.95 68.4 53.85 69.0 53.75 68.6 53.4 67.55 53.25 67.25 53.15 67.05 52.55 66.55 52.35 66.5 51.55 66.65 51.55 66.7 51.4 66.75 51.35 66.8 51.3 66.8 51.25 66.9 51.1 67.1 51.1 67.15 Q50.85 67.5 50.75 67.9 L50.7 68.25 50.65 68.7" fill="#333333" fill-rule="evenodd" stroke="none"/>
    <path d="M72.55 64.4 L72.9 64.75 73.15 64.95 Q74.05 65.2 74.6 66.1 L74.95 66.75 75.0 66.8 75.8 67.65 Q76.25 68.45 76.15 69.65 L76.1 70.25 76.1 70.3 76.3 70.95 76.25 71.2 75.9 72.7 75.6 73.3 74.85 74.0 72.75 74.55 71.0 74.7 70.9 74.35 Q69.05 73.85 67.75 72.4 L66.8 72.6 67.1 71.8 67.25 71.6 67.65 71.5 69.4 71.4 Q69.65 71.7 70.25 71.8 L71.6 71.65 72.45 71.05 Q73.4 69.8 73.45 68.2 L73.2 66.1 73.05 65.4 Q73.0 64.7 72.5 64.4 L72.55 64.4 M39.25 85.9 L39.0 86.35 39.0 88.5 38.8 90.4 38.8 91.55 38.9 91.7 Q39.65 93.7 38.55 95.35 37.35 97.05 36.05 95.45 34.55 93.65 33.85 91.35 L33.25 90.5 Q31.95 88.25 31.95 85.6 L32.05 84.3 32.15 84.55 Q32.6 86.35 33.55 87.9 L33.85 88.3 Q34.55 89.15 35.65 88.95 L35.95 88.55 Q36.4 88.15 37.0 88.25 L37.8 87.5 37.85 87.5 38.0 87.15 Q38.4 86.1 39.25 85.9 M57.65 28.8 L57.55 29.0 57.35 29.3 57.35 29.4 57.4 29.7 57.4 29.8 57.55 29.8 57.8 30.35 Q58.35 31.05 59.05 31.2 L59.35 31.8 59.6 32.05 59.85 32.05 59.8 31.9 59.9 32.15 60.2 32.95 60.45 33.45 Q61.0 33.4 61.4 33.8 L62.1 34.85 62.3 35.2 63.4 37.5 65.1 37.7 65.65 37.75 Q66.95 38.15 68.1 39.15 L68.5 39.65 69.75 41.95 Q69.2 42.55 68.95 43.45 68.65 44.6 68.95 45.8 66.55 46.3 65.05 48.0 63.55 48.4 62.5 49.35 L61.8 48.75 Q60.6 48.85 59.6 49.45 59.4 48.55 58.7 47.8 L58.25 47.3 57.55 47.1 56.45 46.7 55.1 46.95 55.15 47.15 55.0 46.8 54.5 46.0 54.25 45.8 54.2 45.8 54.2 45.65 54.0 44.75 Q54.8 42.7 55.1 40.5 L54.95 39.5 Q55.1 37.3 54.9 35.15 L54.8 34.05 54.75 33.9 54.6 33.8 54.5 33.75 54.45 33.75 Q52.6 34.3 52.55 36.45 52.5 37.15 52.05 37.75 51.5 38.55 51.35 39.45 L50.75 40.55 Q50.35 41.0 50.3 41.6 50.1 43.3 50.85 44.85 50.55 45.8 50.55 46.8 L50.45 46.8 50.1 46.8 Q49.25 46.2 48.25 46.05 47.4 46.15 46.75 46.55 L46.25 46.5 Q45.05 46.4 44.05 45.8 L43.35 45.4 Q42.3 41.55 39.6 38.6 39.7 36.8 38.85 35.2 L38.45 34.6 Q39.25 32.8 38.1 31.4 L37.65 31.1 36.65 31.6 36.9 31.1 Q37.6 30.15 38.75 30.7 L39.05 30.85 39.9 31.1 40.35 31.15 Q44.15 31.5 47.65 30.3 L48.7 29.6 49.15 29.15 50.15 29.95 51.95 29.85 Q53.05 29.25 52.75 28.0 L52.65 27.7 53.15 27.45 55.35 26.2 55.8 26.35 56.55 26.75 Q57.85 27.2 58.0 28.35 L57.8 28.55 57.65 28.7 57.65 28.75 57.65 28.8 M42.45 39.0 L42.9 39.35 45.65 39.45 Q47.1 39.55 48.15 38.6 48.8 38.05 48.65 37.25 L48.55 36.5 48.45 36.35 Q48.5 35.65 47.9 35.3 L47.15 34.8 Q46.0 33.85 44.45 33.9 42.9 33.8 41.8 34.9 40.95 35.7 41.05 36.95 41.25 38.35 42.3 39.2 L42.55 39.25 42.8 39.3 42.45 39.0 M60.8 40.1 L60.65 40.65 Q60.5 41.55 61.0 42.25 61.5 42.9 62.1 42.8 L62.45 43.4 62.55 43.5 62.85 43.65 65.1 44.1 64.85 44.1 65.1 44.15 66.25 44.15 Q67.6 43.85 68.05 42.5 68.25 42.0 68.05 41.45 67.6 39.85 66.0 39.3 L65.2 39.15 61.85 38.9 Q60.65 38.9 60.8 40.05 L60.8 40.1" fill="#c7af52" fill-rule="evenodd" stroke="none"/>
    <path d="M36.65 31.6 L37.65 31.1 38.1 31.4 Q39.25 32.8 38.45 34.6 L38.85 35.2 Q39.7 36.8 39.6 38.6 42.3 41.55 43.35 45.4 L44.05 45.8 Q45.05 46.4 46.25 46.5 L46.75 46.55 46.8 46.55 46.7 46.7 46.55 47.1 Q46.25 47.25 46.1 47.5 45.65 48.1 45.85 49.3 L45.8 49.35 45.9 49.45 Q46.0 50.1 46.55 50.55 L46.7 50.8 46.8 50.7 47.75 51.1 48.75 51.0 49.2 50.6 49.55 50.35 50.3 49.4 50.9 48.6 Q51.05 48.0 50.85 47.45 L50.45 46.8 50.55 46.8 Q50.55 45.8 50.85 44.85 50.1 43.3 50.3 41.6 50.35 41.0 50.75 40.55 L51.35 39.45 Q51.5 38.55 52.05 37.75 52.5 37.15 52.55 36.45 52.6 34.3 54.45 33.75 L54.5 33.75 54.6 33.8 54.75 33.9 54.8 34.05 54.9 35.15 Q55.1 37.3 54.95 39.5 L55.1 40.5 Q54.8 42.7 54.0 44.75 L54.2 45.65 54.2 45.8 54.25 45.8 54.5 46.0 55.0 46.8 Q54.7 46.95 54.55 47.25 53.85 48.6 54.45 50.05 L54.95 50.75 55.4 51.05 56.9 51.4 57.0 51.55 57.45 51.85 57.55 51.85 58.65 51.75 Q59.6 51.3 59.65 50.25 L59.65 50.0 59.55 49.5 59.35 49.65 59.6 49.45 Q60.6 48.85 61.8 48.75 L62.5 49.35 Q63.55 48.4 65.05 48.0 66.55 46.3 68.95 45.8 68.65 44.6 68.95 43.45 69.2 42.55 69.75 41.95 L70.1 42.75 Q70.5 43.6 70.35 44.5 L70.2 45.35 70.2 45.4 70.0 46.15 Q68.75 49.05 65.65 48.8 L64.45 49.95 61.65 51.7 59.9 54.2 59.0 54.8 Q57.6 55.15 56.8 53.8 L56.7 53.8 56.55 53.8 55.3 54.45 54.95 54.6 54.85 55.35 54.4 56.15 54.4 57.5 54.35 58.5 54.3 58.85 54.35 58.6 54.05 57.75 53.95 57.55 53.35 56.9 52.9 56.75 Q51.2 56.85 50.2 58.2 L50.05 58.45 Q49.8 59.05 49.85 59.6 L48.65 59.5 48.5 59.3 Q48.1 58.85 48.2 58.3 L48.7 56.85 Q47.05 55.95 46.05 54.35 L42.05 48.1 41.85 47.65 40.3 43.25 39.5 41.5 38.9 40.35 38.35 39.35 37.2 37.9 Q35.75 36.55 36.75 35.05 L36.7 34.7 36.7 34.0 36.75 32.75 Q36.45 32.2 36.6 31.7 L36.65 31.6 M47.95 46.7 L47.85 46.65 48.05 46.7 47.95 46.7 M48.95 46.75 L48.9 46.75 49.25 46.75 49.25 46.8 48.95 46.75" fill="#996633" fill-rule="evenodd" stroke="none"/>
    <path d="M59.05 31.2 L59.55 31.2 59.6 31.2 59.75 31.65 60.3 31.65 60.4 31.75 60.7 31.9 61.1 32.65 61.25 32.9 62.5 34.15 63.05 35.2 Q63.35 35.85 64.0 36.25 L64.4 36.5 65.75 37.15 Q67.1 37.65 68.35 38.45 69.95 39.5 70.55 41.2 L70.8 42.0 Q71.15 43.5 70.9 45.0 L70.7 45.6 Q70.8 46.3 70.5 47.0 69.95 48.3 68.75 48.9 L68.4 49.1 Q66.55 49.5 65.0 50.55 63.35 51.6 61.95 52.95 L60.3 54.7 58.95 55.45 58.15 55.35 56.5 55.1 56.1 55.55 54.9 57.2 54.9 57.25 Q55.45 58.6 55.1 60.0 54.75 61.35 53.9 62.45 53.75 62.7 53.4 62.75 L53.0 62.7 Q52.5 63.3 51.65 62.9 49.45 61.95 48.6 59.75 47.25 58.9 47.05 57.25 L46.7 56.45 45.65 54.85 45.6 54.8 45.3 54.2 43.9 52.55 43.3 51.9 Q41.9 50.1 40.85 48.05 39.5 45.4 38.55 42.6 L38.2 41.55 38.15 41.05 37.8 40.6 36.2 37.4 Q35.0 35.05 35.45 32.55 L35.9 32.1 36.0 31.75 36.7 30.55 38.5 30.25 38.85 30.45 45.5 29.65 Q46.9 29.45 48.1 28.8 L48.15 28.75 48.6 28.35 48.65 28.35 48.65 28.4 49.15 29.15 48.7 29.6 47.65 30.3 Q44.15 31.5 40.35 31.15 L39.9 31.1 39.05 30.85 38.75 30.7 Q37.6 30.15 36.9 31.1 L36.65 31.6 36.6 31.7 Q36.45 32.2 36.75 32.75 L36.7 34.0 36.7 34.7 36.75 35.05 Q35.75 36.55 37.2 37.9 L38.35 39.35 38.9 40.35 39.5 41.5 40.3 43.25 41.85 47.65 42.05 48.1 46.05 54.35 Q47.05 55.95 48.7 56.85 L48.2 58.3 Q48.1 58.85 48.5 59.3 L48.65 59.5 49.85 59.6 50.1 59.45 50.25 59.5 50.3 59.7 50.35 59.6 50.25 60.6 50.4 61.1 50.75 61.5 50.85 61.6 Q51.5 62.1 52.05 62.2 L52.4 62.25 52.5 62.2 52.75 62.15 53.25 61.85 53.75 61.55 54.05 61.2 54.3 60.9 54.4 60.55 54.45 60.3 Q54.65 59.4 54.35 58.55 L54.3 58.85 54.35 58.5 54.4 57.5 54.4 56.15 54.85 55.35 54.95 54.6 55.3 54.45 56.55 53.8 56.7 53.8 56.8 53.8 Q57.6 55.15 59.0 54.8 L59.9 54.2 61.65 51.7 64.45 49.95 65.65 48.8 Q68.75 49.05 70.0 46.15 L70.2 45.4 70.2 45.35 70.35 44.5 Q70.5 43.6 70.1 42.75 L69.75 41.95 68.5 39.65 68.1 39.15 Q66.95 38.15 65.65 37.75 L65.1 37.7 63.4 37.5 62.3 35.2 62.1 34.85 61.4 33.8 Q61.0 33.4 60.45 33.45 L60.2 32.95 59.9 32.15 59.8 31.9 59.85 32.05 59.6 32.05 59.35 31.8 59.05 31.2" fill="#663300" fill-rule="evenodd" stroke="none"/>
  </g>
</svg>
