<?xml version="1.0" encoding="UTF-8" standalone="no"?>
<svg xmlns:xlink="http://www.w3.org/1999/xlink" height="36.1px" width="36.1px" xmlns="http://www.w3.org/2000/svg">
  <g transform="matrix(1.0, 0.0, 0.0, 1.0, 18.05, 18.55)">
    <path d="M2.15 -16.75 L2.55 -16.1 2.5 -16.15 1.35 -16.4 1.15 -16.4 0.95 -16.4 0.45 -16.35 -0.55 -16.1 -0.9 -15.95 -1.75 -15.3 -1.8 -15.2 -2.25 -14.7 -2.7 -14.0 -2.75 -13.9 -2.8 -13.7 -2.9 -13.4 -3.1 -12.7 -3.15 -12.65 -3.15 -12.55 -3.15 -12.5 -3.2 -12.35 -3.4 -12.1 -3.9 -11.7 -4.6 -11.4 Q-5.35 -11.25 -6.0 -10.75 L-7.35 -9.9 -8.7 -8.8 -9.75 -7.6 -9.8 -7.55 -10.55 -6.4 -11.15 -5.45 -11.35 -5.05 -11.5 -4.75 -11.65 -4.5 -11.75 -4.35 -12.0 -3.6 -12.1 -3.6 -12.25 -3.6 -12.6 -3.6 -13.0 -3.5 -13.05 -3.5 -13.35 -3.35 -13.65 -3.25 -14.8 -2.35 -15.65 -1.0 -15.9 0.45 -15.7 1.8 -15.6 1.95 -15.75 1.9 -16.25 1.6 -16.8 1.15 -16.95 1.05 -16.95 1.0 -17.7 -0.1 -17.75 -0.15 -17.85 -0.35 -18.05 -1.7 -17.8 -3.15 -16.95 -4.5 -15.8 -5.4 -15.5 -5.5 -15.2 -5.65 -15.15 -5.65 -14.75 -5.75 -14.4 -5.75 -14.25 -5.75 -14.15 -5.75 -13.9 -6.5 -13.8 -6.65 -13.65 -6.9 -13.5 -7.2 -13.3 -7.6 -12.7 -8.55 -11.95 -9.7 -11.9 -9.75 -10.85 -10.95 -9.5 -12.05 -8.15 -12.9 -6.75 -13.55 -6.05 -13.85 -5.55 -14.25 -5.35 -14.5 -5.3 -14.65 -5.3 -14.7 -5.3 -14.8 -5.25 -14.85 -5.05 -15.55 -4.95 -15.85 -4.9 -16.05 -4.85 -16.15 -4.4 -16.85 -3.95 -17.35 -3.9 -17.45 -3.05 -18.1 -2.7 -18.25 -1.7 -18.5 -1.2 -18.55 -1.0 -18.55 -0.8 -18.55 0.35 -18.3 1.6 -17.45 1.75 -17.2 2.15 -16.75 M15.3 -3.25 L15.45 -3.45 15.6 -3.15 15.5 -3.2 15.3 -3.25 M-3.35 14.85 L-3.1 14.75 -2.9 14.65 -2.85 14.7 -2.8 14.95 -2.7 15.15 -3.35 14.85" fill="#696969" fill-rule="evenodd" stroke="none"/>
    <path d="M2.15 -16.75 L2.8 -16.25 2.9 -16.05 2.85 -15.95 2.55 -16.1 2.15 -16.75 M15.45 -3.45 L15.55 -3.65 16.3 -2.8 15.6 -3.15 15.45 -3.45 M-2.35 15.9 L-3.2 15.1 -3.35 14.85 -2.7 15.15 -2.35 15.9 M-15.4 2.4 L-15.45 2.5 -15.6 2.35 -15.75 2.25 -15.75 2.2 -16.25 1.6 -15.75 1.9 -15.6 1.95 -15.6 2.0 -15.55 2.05 -15.4 2.4" fill="#000000" fill-rule="evenodd" stroke="none"/>
    <path d="M2.55 -16.1 L2.85 -15.95 2.8 -15.65 Q2.85 -14.95 3.35 -14.4 L3.45 -14.1 Q4.25 -12.45 5.85 -11.6 L8.95 -8.95 11.65 -5.9 11.85 -5.6 Q12.5 -4.25 13.85 -3.5 L14.15 -3.25 Q14.75 -3.0 15.3 -3.25 L15.5 -3.2 15.6 -3.15 16.3 -2.8 16.45 -2.75 17.4 -1.7 17.4 -1.65 18.0 -0.25 18.0 1.25 17.35 2.65 16.35 3.8 15.65 4.25 14.45 4.5 14.3 4.5 14.25 4.75 14.05 5.35 14.0 5.45 13.3 6.9 12.45 8.35 11.3 9.8 10.7 10.4 10.05 11.0 8.75 12.1 7.3 12.95 6.2 13.45 5.25 13.8 5.05 13.85 5.05 14.2 5.05 14.45 4.7 15.45 4.65 15.55 4.25 16.05 3.15 16.95 Q2.55 17.4 1.8 17.45 1.0 17.7 0.25 17.45 -0.6 17.4 -1.2 17.0 L-1.25 17.0 -2.25 16.05 -2.35 15.9 -2.7 15.15 -2.8 14.95 -2.85 14.7 -2.9 14.65 Q-2.6 14.35 -2.7 13.85 -2.85 13.35 -3.25 13.0 L-5.25 11.2 Q-6.75 9.65 -8.4 8.4 L-8.9 7.95 Q-10.6 6.55 -11.9 4.8 L-12.65 3.95 -13.35 3.05 Q-13.95 2.05 -15.0 2.1 L-15.4 2.4 -15.55 2.05 -15.6 2.0 -15.6 1.95 -15.7 1.8 -15.9 0.45 -15.65 -1.0 -14.8 -2.35 -13.65 -3.25 -13.35 -3.35 -13.05 -3.5 -13.0 -3.5 -12.6 -3.6 -12.25 -3.6 -12.1 -3.6 -12.0 -3.6 -11.75 -4.35 -11.65 -4.5 -11.5 -4.75 -11.35 -5.05 -11.15 -5.45 -10.55 -6.4 -9.8 -7.55 -9.75 -7.6 -8.7 -8.8 -7.35 -9.9 -6.0 -10.75 Q-5.35 -11.25 -4.6 -11.4 L-3.9 -11.7 -3.4 -12.1 -3.2 -12.35 -3.15 -12.5 -3.15 -12.55 -3.15 -12.65 -3.1 -12.7 -2.9 -13.4 -2.8 -13.7 -2.75 -13.9 -2.7 -14.0 -2.25 -14.7 -1.8 -15.2 -1.75 -15.3 -0.9 -15.95 -0.55 -16.1 0.45 -16.35 0.95 -16.4 1.15 -16.4 1.35 -16.4 2.5 -16.15 2.55 -16.1 M-8.0 11.0 L-8.7 10.35 Q-7.85 11.0 -7.1 11.75 L-7.4 11.5 -8.0 11.0" fill="#c8c8c8" fill-rule="evenodd" stroke="none"/>
    <path d="M2.8 -16.25 L2.95 -16.0 3.75 -14.9 3.95 -14.55 4.1 -13.2 5.3 -12.7 6.7 -12.0 8.0 -11.25 9.2 -10.25 10.35 -9.15 11.35 -7.85 12.15 -6.55 13.15 -4.55 14.35 -4.2 14.55 -4.15 15.5 -3.7 16.45 -2.6 17.05 -1.2 17.05 0.3 16.4 1.7 15.4 2.85 14.7 3.3 13.5 3.55 13.35 3.55 13.3 3.8 13.1 4.4 13.05 4.5 12.35 5.95 11.5 7.4 10.35 8.85 9.75 9.45 9.1 10.05 7.8 11.15 6.35 12.0 5.25 12.5 4.3 12.85 4.1 12.9 4.1 13.25 4.1 13.5 3.75 14.5 3.7 14.6 3.3 15.1 2.2 16.0 Q1.6 16.45 0.85 16.5 0.05 16.75 -0.7 16.5 -1.55 16.45 -2.15 16.05 L-3.2 15.1 -3.75 14.0 -3.85 13.6 -4.1 12.85 -5.6 12.35 -7.0 11.55 -8.35 10.55 -9.65 9.4 -10.75 8.15 -11.8 6.65 -12.45 5.25 -13.1 3.75 -13.2 3.55 -14.55 3.1 -15.6 2.35 -15.75 2.25 -15.75 2.2 -16.5 1.1 -16.55 1.05 -16.65 0.85 -16.85 -0.5 -16.6 -1.95 -15.75 -3.3 -14.6 -4.2 -14.3 -4.3 -14.0 -4.45 -13.95 -4.45 -13.55 -4.55 -13.2 -4.55 -13.05 -4.55 -12.95 -4.55 -12.7 -5.3 -12.6 -5.45 -12.45 -5.7 -12.3 -6.0 -12.1 -6.4 -11.5 -7.35 -10.75 -8.5 -10.7 -8.55 -9.65 -9.75 -8.3 -10.85 -6.95 -11.7 -5.55 -12.35 -4.85 -12.65 -4.35 -13.05 -4.15 -13.3 -4.1 -13.45 -4.1 -13.5 -4.1 -13.6 -4.05 -13.65 -3.85 -14.35 -3.75 -14.65 -3.7 -14.85 -3.65 -14.95 -3.2 -15.65 -2.75 -16.15 -2.7 -16.25 -1.85 -16.9 -1.5 -17.05 -0.5 -17.3 0.0 -17.35 0.2 -17.35 0.4 -17.35 1.55 -17.1 2.8 -16.25" fill="#000000" fill-rule="evenodd" stroke="none"/>
    <path d="M2.4 -11.7 Q3.85 -11.2 5.4 -10.3 L7.0 -9.25 Q8.4 -8.45 9.25 -7.15 L10.1 -5.7 10.95 -4.15 11.0 -4.0 11.0 -3.8 11.2 -3.05 11.1 -3.3 11.0 -1.45 11.0 0.45 11.0 2.55 11.0 2.65 10.3 4.55 8.9 7.2 8.55 7.7 7.3 8.9 6.95 9.15 6.55 9.5 5.4 10.2 4.3 10.6 3.1 10.9 2.8 11.0 2.3 11.0 2.25 11.15 -0.1 11.1 -2.3 11.15 -3.55 10.55 -5.15 9.95 -6.45 9.25 -7.8 8.3 -9.0 7.15 -9.85 5.9 -10.55 4.75 -11.35 3.25 -11.25 2.6 -11.3 3.0 Q-10.25 4.65 -8.35 5.7 -3.65 8.3 1.2 6.3 L1.6 5.95 Q2.25 5.5 2.9 5.15 L3.1 5.05 3.8 4.25 Q7.95 -0.45 6.45 -6.5 5.35 -10.75 1.55 -11.7 L2.4 -11.7 M14.3 -1.55 L14.35 -1.5 14.25 -1.45 14.3 -1.55 M3.4 12.3 L3.2 12.4 3.2 12.3 3.4 12.3" fill="#959595" fill-rule="evenodd" stroke="none"/>
    <path d="M1.2 -15.25 L1.75 -15.6 2.3 -14.9 2.55 -14.55 3.0 -13.65 3.2 -12.9 3.25 -12.8 Q3.7 -12.35 4.2 -12.15 4.65 -11.85 5.2 -11.65 L6.8 -10.8 7.75 -10.2 8.55 -9.4 9.25 -8.6 9.95 -7.75 11.0 -6.35 Q11.65 -5.55 11.9 -4.6 12.15 -3.85 12.75 -3.5 L11.5 -2.55 11.4 -2.65 11.3 -2.9 11.2 -3.05 11.0 -3.8 11.0 -4.0 10.95 -4.15 10.1 -5.7 9.25 -7.15 Q8.4 -8.45 7.0 -9.25 L5.4 -10.3 Q3.85 -11.2 2.4 -11.7 L2.05 -11.8 1.95 -12.25 1.85 -13.85 Q1.8 -14.7 1.2 -15.25 M-15.7 0.1 L-15.5 -0.05 -14.6 -0.5 -14.45 0.65 -13.55 1.35 -12.05 2.25 -11.95 2.3 -11.45 2.5 -11.25 2.6 -11.35 3.25 -10.55 4.75 -9.85 5.9 -9.0 7.15 -7.8 8.3 -6.45 9.25 -5.15 9.95 -3.55 10.55 -2.3 11.15 -2.2 11.2 -2.0 11.55 -3.0 12.5 -3.25 12.1 -4.45 11.55 -5.7 10.95 -6.6 10.45 -7.5 9.7 -9.0 8.5 -9.85 7.8 -10.45 6.85 -11.3 5.15 Q-11.7 4.15 -12.25 3.6 -12.95 2.95 -13.75 2.5 L-14.55 1.85 -14.8 1.65 -15.1 1.35 -15.15 1.25 -15.7 0.1 M2.25 11.15 L2.3 11.0 2.8 11.0 3.1 10.9 4.3 10.6 5.4 10.2 6.55 9.5 6.95 9.15 7.3 8.9 8.55 7.7 8.9 7.2 10.3 4.55 11.0 2.65 11.3 1.9 12.35 1.85 Q14.0 2.05 15.0 0.9 L15.05 0.5 14.9 -0.85 15.85 -1.45 Q16.15 -0.65 16.05 0.35 16.0 1.15 15.45 1.7 L14.05 2.7 13.8 2.8 Q13.4 2.8 13.15 3.05 L12.55 2.9 12.4 3.0 12.15 3.15 12.0 3.3 11.6 4.2 10.95 5.6 Q10.1 8.0 8.05 9.7 5.9 11.5 3.5 12.2 L3.4 12.3 3.2 12.3 3.2 12.4 3.05 12.65 2.7 13.55 2.6 13.8 Q2.35 14.7 1.65 15.25 L1.55 15.3 0.5 15.7 -0.1 15.75 -0.2 15.75 -0.3 15.7 -0.4 15.7 -1.2 15.4 -1.2 15.25 -1.0 14.9 Q-0.8 14.65 -0.5 14.65 L-0.4 14.65 0.35 14.45 1.75 13.7 1.8 13.25 Q1.85 12.1 2.25 11.15 M-1.95 11.65 L-2.0 11.65 -1.95 11.65" fill="#696969" fill-rule="evenodd" stroke="none"/>
    <path d="M1.75 -15.6 L1.2 -15.25 Q0.0 -15.8 -1.0 -15.55 -1.85 -15.05 -2.0 -14.35 L-2.05 -14.1 -2.2 -13.1 -2.45 -12.15 -2.55 -11.85 -3.1 -11.4 Q-3.3 -11.7 -3.2 -11.15 L-4.0 -10.95 -4.7 -10.65 -5.3 -10.4 -5.55 -10.35 -7.35 -9.0 -8.55 -7.9 -8.6 -7.8 -9.25 -7.05 -9.6 -6.65 -11.0 -4.9 -11.05 -4.8 -11.75 -3.6 -11.9 -3.1 -11.95 -2.95 -12.5 -2.65 Q-13.05 -2.25 -13.5 -2.1 L-14.6 -1.25 -14.6 -0.5 -15.5 -0.05 -15.7 0.1 -15.4 -1.1 -14.55 -2.45 -13.25 -3.35 -12.55 -3.65 -12.45 -3.75 -12.2 -4.25 -12.05 -4.5 -11.8 -4.95 -11.05 -6.25 Q-10.15 -7.9 -8.7 -9.15 L-7.75 -9.9 -7.2 -10.3 -6.05 -10.85 -4.35 -11.6 -4.15 -11.65 -3.95 -11.9 -3.9 -11.95 -3.7 -12.1 -3.55 -12.15 -3.45 -12.2 -3.35 -12.25 -3.35 -12.35 -3.3 -12.7 -3.25 -12.9 -3.2 -13.1 -3.15 -13.5 -2.9 -14.2 -2.85 -14.4 -2.6 -14.9 -1.8 -15.7 -0.6 -16.1 Q0.65 -16.35 1.75 -15.6 M11.5 -2.55 L12.75 -3.5 14.15 -2.8 15.55 -1.85 15.85 -1.45 14.9 -0.85 14.35 -1.5 14.3 -1.55 13.4 -2.15 11.5 -2.55 M-1.2 15.4 L-1.45 15.2 -1.7 15.0 -2.6 13.95 Q-3.1 13.15 -3.0 12.5 L-2.0 11.55 -2.05 11.75 -2.0 11.65 -1.95 11.65 -1.8 13.3 Q-1.5 14.25 -0.5 14.65 -0.8 14.65 -1.0 14.9 L-1.2 15.25 -1.2 15.4" fill="#c8c8c8" fill-rule="evenodd" stroke="none"/>
    <path d="M1.2 -15.25 Q1.8 -14.7 1.85 -13.85 L1.95 -12.25 2.05 -11.8 2.4 -11.7 1.55 -11.7 1.25 -11.75 -2.55 -11.85 -2.45 -12.15 -2.2 -13.1 -2.05 -14.1 -2.0 -14.35 Q-1.85 -15.05 -1.0 -15.55 0.0 -15.8 1.2 -15.25 M11.2 -3.05 L11.3 -2.9 11.4 -2.65 11.5 -2.55 13.4 -2.15 14.3 -1.55 14.25 -1.45 14.35 -1.5 14.9 -0.85 15.05 0.5 15.0 0.9 Q14.0 2.05 12.35 1.85 L11.3 1.9 11.0 2.65 11.0 2.55 11.0 0.45 11.0 -1.45 11.1 -3.3 11.2 -3.05 M-14.6 -0.5 L-14.6 -1.25 -13.5 -2.1 Q-13.05 -2.25 -12.5 -2.65 L-11.95 -2.95 -11.9 -3.1 -11.9 -2.1 -11.9 -0.65 -11.75 0.8 -11.6 1.35 -11.45 2.5 -11.95 2.3 -12.05 2.25 -13.55 1.35 -14.45 0.65 -14.6 -0.5 M-2.3 11.15 L-0.1 11.1 2.25 11.15 Q1.85 12.1 1.8 13.25 L1.75 13.7 0.35 14.45 -0.4 14.65 -0.5 14.65 Q-1.5 14.25 -1.8 13.3 L-1.95 11.65 -2.0 11.65 -2.05 11.75 -2.0 11.55 -2.2 11.2 -2.3 11.15" fill="#7c7c7c" fill-rule="evenodd" stroke="none"/>
    <path d="M-11.9 -3.1 L-11.75 -3.6 -11.05 -4.8 -11.0 -4.9 -9.6 -6.65 -9.25 -7.05 -8.6 -7.8 -8.55 -7.9 -7.35 -9.0 -5.55 -10.35 -5.3 -10.4 -4.7 -10.65 -4.0 -10.95 -3.2 -11.15 Q-3.3 -11.7 -3.1 -11.4 L-2.55 -11.85 1.25 -11.75 1.55 -11.7 Q5.35 -10.75 6.45 -6.5 7.95 -0.45 3.8 4.25 L3.1 5.05 2.9 5.15 Q2.25 5.5 1.6 5.95 L1.2 6.3 Q-3.65 8.3 -8.35 5.7 -10.25 4.65 -11.3 3.0 L-11.25 2.6 -11.45 2.5 -11.6 1.35 -11.75 0.8 -11.9 -0.65 -11.9 -2.1 -11.9 -3.1" fill="#a7a7a7" fill-rule="evenodd" stroke="none"/>
  </g>
</svg>
