<?xml version="1.0" encoding="UTF-8" standalone="no"?>
<svg xmlns:xlink="http://www.w3.org/1999/xlink" height="13.6px" width="16.4px" xmlns="http://www.w3.org/2000/svg">
  <g transform="matrix(1.0, 0.0, 0.0, 1.0, 8.05, 6.2)">
    <path d="M1.45 -3.05 L1.85 -4.1 2.15 -4.5 2.2 -4.55 2.3 -4.6 2.75 -4.55 2.75 -4.4 Q3.1 -4.0 3.1 -3.45 L3.15 -3.0 3.1 -2.65 3.05 -2.25 Q2.65 -0.85 1.8 0.4 L1.7 0.65 1.15 1.7 0.8 2.35 0.25 2.95 0.0 2.75 0.1 2.5 -0.05 1.95 0.05 1.65 0.2 1.2 0.3 1.05 0.9 -1.35 1.45 -3.05 M4.5 -1.05 L4.6 -1.25 5.9 -3.1 6.7 -3.95 7.05 -3.9 7.15 -3.95 Q8.1 -4.0 8.3 -3.2 L8.35 -2.85 Q8.4 -1.95 7.7 -1.35 L7.6 -1.25 7.2 -0.6 5.2 1.6 5.15 1.6 3.45 2.95 3.0 3.3 2.45 3.85 1.85 4.05 1.4 4.3 1.95 2.85 2.15 2.6 2.55 2.05 2.95 1.2 4.5 -1.05 M7.45 2.35 L7.5 2.35 7.6 2.4 7.55 2.5 7.45 2.8 7.4 3.0 7.1 3.45 6.75 3.7 6.55 3.85 6.3 4.15 4.45 5.4 4.1 5.55 4.0 5.6 3.85 5.6 4.75 5.15 6.6 3.6 7.3 2.6 6.5 3.15 5.0 4.35 3.95 5.35 3.85 5.45 3.85 5.4 3.95 5.35 4.85 4.3 5.05 4.15 7.0 2.6 Q7.15 2.35 7.45 2.35 M-6.95 3.65 L-7.95 2.9 -8.05 2.75 -8.0 2.2 -8.0 2.1 -7.55 1.5 -5.35 2.3 -5.1 2.45 -3.7 3.2 -3.1 3.65 -2.9 3.9 -2.3 4.25 -1.9 4.7 -2.85 4.1 -3.0 4.0 -4.65 3.0 -5.9 2.5 -7.3 1.95 -7.65 2.2 -7.5 2.85 -6.15 3.6 -6.0 3.65 -4.75 4.15 -4.5 4.25 -3.45 4.55 -2.85 4.7 -1.9 4.9 -1.9 4.95 -1.95 4.95 -2.05 5.0 -2.1 5.05 -3.3 4.9 -5.0 4.55 -6.85 3.7 -6.95 3.65 M-6.45 -3.35 L-6.5 -3.4 -7.45 -4.55 -7.8 -5.3 -7.7 -5.8 -7.35 -6.2 -6.95 -5.9 -6.75 -5.8 -5.15 -4.85 -5.1 -4.8 -4.35 -4.2 -4.05 -3.8 -2.65 -1.6 -2.15 -0.75 -2.0 -0.5 -0.95 1.7 -0.95 1.75 -1.0 1.8 -1.0 1.85 Q-1.65 1.8 -2.05 1.15 L-2.15 0.95 -2.95 0.25 -4.5 -1.4 -6.45 -3.35 M2.3 -4.25 L2.3 -4.2 1.85 -3.4 1.85 -3.35 1.25 -1.85 0.75 -0.3 0.55 0.5 Q0.25 0.85 0.4 1.2 L0.1 2.4 0.65 1.85 0.75 1.75 0.75 1.7 1.8 0.2 2.05 -0.2 2.5 -1.2 2.6 -1.55 2.7 -2.35 2.7 -2.5 2.65 -2.9 2.55 -3.65 2.55 -3.7 2.4 -4.35 2.4 -4.4 2.3 -4.25 M4.45 -0.55 L3.4 0.95 2.75 2.1 2.6 2.4 2.5 2.5 2.25 3.0 2.05 3.35 2.0 3.4 1.85 3.7 1.65 4.05 2.0 3.8 2.25 3.6 3.35 2.75 4.0 2.3 5.5 1.05 5.75 0.75 6.7 -0.25 7.5 -1.45 8.05 -2.5 8.15 -2.7 7.75 -3.4 7.35 -3.8 7.3 -3.7 7.15 -3.55 6.05 -2.45 5.1 -1.35 4.9 -1.15 4.45 -0.55 M-1.75 1.15 L-2.05 0.2 -2.55 -0.75 -2.55 -0.8 -2.8 -1.2 -3.55 -2.45 -4.05 -3.2 -4.75 -3.95 -5.45 -4.6 -7.0 -5.7 -7.25 -5.85 -7.4 -5.15 -6.9 -4.55 -6.05 -3.55 -6.0 -3.45 -5.6 -3.0 -5.1 -2.45 -4.1 -1.45 -3.6 -1.0 -3.1 -0.45 -2.65 0.05 -2.65 0.1 -1.75 1.15" fill="#000000" fill-rule="evenodd" stroke="none"/>
    <path d="M3.95 5.35 L5.0 4.35 6.5 3.15 7.3 2.6 6.6 3.6 4.75 5.15 3.85 5.6 3.65 5.65 3.85 5.45 3.95 5.35" fill="#cccccc" fill-rule="evenodd" stroke="none"/>
    <path d="M1.15 1.7 L1.45 1.35 2.2 0.25 2.8 -0.45 4.5 -1.05 2.95 1.2 2.55 2.05 2.15 2.6 1.95 2.85 1.4 4.3 1.85 4.05 2.45 3.85 3.0 3.3 3.45 2.95 5.15 1.6 5.2 1.6 Q4.9 2.15 4.85 2.85 L5.65 3.15 Q5.9 2.9 6.25 2.75 6.8 2.45 7.4 2.3 L7.45 2.35 Q7.15 2.35 7.0 2.6 L5.05 4.15 4.85 4.3 3.95 5.35 3.85 5.4 3.85 5.45 3.65 5.65 3.85 5.6 4.0 5.6 4.1 5.55 4.45 5.4 6.3 4.15 5.75 4.65 Q7.1 4.6 8.2 5.35 L7.8 5.85 3.65 6.2 3.4 7.15 Q3.2 7.5 2.8 7.4 L2.5 7.3 1.1 6.9 1.2 6.75 1.3 6.45 1.4 6.65 2.4 6.75 2.6 6.35 Q2.7 5.55 1.85 5.6 1.3 5.8 1.3 6.3 L1.2 6.0 1.25 5.9 Q1.55 5.45 1.05 5.25 L0.65 5.6 0.35 5.5 Q0.3 5.05 -0.25 5.05 L-0.35 5.15 -0.8 5.05 Q-1.25 5.1 -1.55 5.45 L-1.65 5.6 -1.65 6.05 -1.25 6.4 -1.55 6.25 -1.6 6.6 -3.1 6.7 -3.25 6.3 -3.05 5.85 -3.75 6.0 Q-4.85 6.15 -5.95 5.5 L-6.0 5.05 -6.6 4.55 -7.2 4.05 -7.05 3.65 -6.95 3.65 -6.85 3.7 -5.0 4.55 -3.3 4.9 -2.1 5.05 -2.05 5.0 -1.95 4.95 -1.9 4.95 -1.9 4.9 -1.55 4.95 -1.9 4.7 -2.3 4.25 -2.9 3.9 -3.1 3.65 -3.7 3.2 -5.1 2.45 -5.35 2.3 -3.45 2.45 Q-4.75 1.2 -5.25 -0.5 L-3.55 0.3 -6.65 -3.3 -6.45 -3.35 -4.5 -1.4 -2.95 0.25 -2.15 0.95 -2.05 1.15 Q-1.65 1.8 -1.0 1.85 L-1.0 1.8 -0.95 1.75 -0.95 1.7 -2.0 -0.5 -1.95 -0.45 Q-2.35 -1.85 -2.15 -3.1 -0.2 -1.95 -0.6 0.2 -0.15 -1.85 1.45 -3.05 L0.9 -1.35 0.3 1.05 0.2 1.2 0.05 1.65 -0.05 1.95 0.1 2.5 0.0 2.75 0.25 2.95 0.8 2.35 1.15 1.7 M7.55 2.5 L7.7 2.65 7.4 3.0 7.45 2.8 7.55 2.5 M1.85 5.45 Q2.2 5.55 2.35 5.25 2.65 4.7 2.05 4.55 1.7 4.6 1.6 4.95 1.55 5.35 1.85 5.45 M0.5 4.35 Q0.3 4.4 0.2 4.55 0.0 5.0 0.5 4.95 L0.7 4.9 Q1.1 4.55 0.6 4.35 L0.5 4.35 M0.65 3.4 L0.25 3.5 0.05 3.8 Q0.05 4.3 0.6 4.2 L0.95 3.95 Q1.15 3.5 0.65 3.4 M-1.5 2.35 L-1.75 2.45 Q-2.1 2.6 -1.85 2.9 -1.6 3.2 -1.35 2.9 -1.0 2.5 -1.5 2.35 M-2.0 6.1 Q-1.75 5.55 -2.35 5.5 L-2.5 5.65 Q-2.85 6.0 -2.5 6.3 L-2.25 6.3 -2.0 6.1 M-0.6 4.35 Q-0.35 3.8 -1.1 3.65 L-1.45 4.25 Q-1.45 4.8 -0.85 4.7 L-0.6 4.35" fill="#7e7ea9" fill-rule="evenodd" stroke="none"/>
    <path d="M4.45 -0.55 L4.9 -1.15 5.1 -1.35 6.05 -2.45 7.15 -3.55 7.3 -3.7 7.35 -3.8 7.75 -3.4 8.15 -2.7 8.05 -2.5 7.5 -1.45 6.7 -0.25 5.75 0.75 5.5 1.05 4.0 2.3 3.35 2.75 2.25 3.6 2.0 3.8 1.65 4.05 1.85 3.7 2.0 3.4 2.05 3.35 2.25 3.0 2.5 2.5 2.6 2.4 2.75 2.1 3.4 0.95 4.45 -0.55 M2.3 -4.25 L2.4 -4.4 2.4 -4.35 2.55 -3.7 2.55 -3.65 2.65 -2.9 2.7 -2.5 2.7 -2.35 2.6 -1.55 2.5 -1.2 2.05 -0.2 1.8 0.2 0.75 1.7 0.75 1.75 0.65 1.85 0.1 2.4 0.4 1.2 Q0.25 0.85 0.55 0.5 L0.75 -0.3 1.25 -1.85 1.85 -3.35 1.85 -3.4 2.3 -4.2 2.3 -4.25 M-1.75 1.15 L-2.65 0.1 -2.65 0.05 -3.1 -0.45 -3.6 -1.0 -4.1 -1.45 -5.1 -2.45 -5.6 -3.0 -6.0 -3.45 -6.05 -3.55 -6.9 -4.55 -7.4 -5.15 -7.25 -5.85 -7.0 -5.7 -5.45 -4.6 -4.75 -3.95 -4.05 -3.2 -3.55 -2.45 -2.8 -1.2 -2.55 -0.8 -2.55 -0.75 -2.05 0.2 -1.75 1.15 M-1.9 4.7 L-1.55 4.95 -1.9 4.9 -2.85 4.7 -3.45 4.55 -4.5 4.25 -4.75 4.15 -6.0 3.65 -6.15 3.6 -7.5 2.85 -7.65 2.2 -7.3 1.95 -5.9 2.5 -4.65 3.0 -3.0 4.0 -2.85 4.1 -1.9 4.7" fill="#ccffff" fill-rule="evenodd" stroke="none"/>
    <path d="M1.1 6.9 L1.05 6.9 -0.1 6.5 -1.6 6.6 -1.55 6.25 -1.25 6.4 -1.65 6.05 -1.65 5.6 -1.55 5.45 Q-1.25 5.1 -0.8 5.05 L-0.35 5.15 -0.25 5.05 Q0.3 5.05 0.35 5.5 L0.65 5.6 1.05 5.25 Q1.55 5.45 1.25 5.9 L1.2 6.0 1.3 6.3 Q1.3 5.8 1.85 5.6 2.7 5.55 2.6 6.35 L2.4 6.75 1.4 6.65 1.3 6.45 1.2 6.75 1.1 6.9 M0.65 3.4 Q1.15 3.5 0.95 3.95 L0.6 4.2 Q0.05 4.3 0.05 3.8 L0.25 3.5 0.65 3.4 M0.5 4.35 L0.6 4.35 Q1.1 4.55 0.7 4.9 L0.5 4.95 Q0.0 5.0 0.2 4.55 0.3 4.4 0.5 4.35 M1.85 5.45 Q1.55 5.35 1.6 4.95 1.7 4.6 2.05 4.55 2.65 4.7 2.35 5.25 2.2 5.55 1.85 5.45 M-1.5 2.35 Q-1.0 2.5 -1.35 2.9 -1.6 3.2 -1.85 2.9 -2.1 2.6 -1.75 2.45 L-1.5 2.35 M-0.6 4.35 L-0.85 4.7 Q-1.45 4.8 -1.45 4.25 L-1.1 3.65 Q-0.35 3.8 -0.6 4.35 M-2.0 6.1 L-2.25 6.3 -2.5 6.3 Q-2.85 6.0 -2.5 5.65 L-2.35 5.5 Q-1.75 5.55 -2.0 6.1" fill="#ffffff" fill-rule="evenodd" stroke="none"/>
  </g>
</svg>
