<?xml version="1.0" encoding="UTF-8" standalone="no"?>
<svg xmlns:xlink="http://www.w3.org/1999/xlink" height="12.9px" width="13.1px" xmlns="http://www.w3.org/2000/svg">
  <g transform="matrix(1.0, 0.0, 0.0, 1.0, 6.85, 7.85)">
    <path d="M4.8 -6.15 L4.65 -6.0 Q4.35 -5.6 4.7 -5.15 L5.0 -4.85 5.2 -4.7 5.2 -4.6 5.3 -4.35 5.3 -4.3 5.8 -3.3 5.85 -3.05 5.75 -2.3 5.35 -1.2 4.85 -2.0 4.65 -2.6 Q4.4 -3.55 3.6 -4.15 L3.25 -4.4 Q3.25 -5.0 2.75 -5.5 L2.45 -5.55 2.35 -5.45 2.15 -5.2 2.0 -5.35 1.15 -5.65 1.1 -5.8 0.95 -5.9 0.45 -5.7 0.2 -5.65 -0.25 -4.9 -0.4 -4.6 Q-0.9 -4.3 -0.95 -3.65 L-1.05 -2.15 -1.05 -2.1 -1.2 -1.35 -1.1 0.15 -0.95 1.4 -0.6 2.8 -0.2 4.1 -0.6 3.85 -0.7 3.7 -0.75 3.55 -0.85 3.55 -1.0 3.3 Q-1.6 2.3 -1.8 1.15 L-1.85 0.6 -1.9 -0.8 -1.8 -2.2 -1.7 -2.85 -1.55 -3.85 -1.55 -3.95 Q-1.6 -3.9 -1.8 -3.8 L-1.65 -4.25 -1.0 -5.75 -2.2 -5.35 -2.8 -5.0 Q-2.75 -5.5 -3.4 -5.65 -4.5 -5.25 -4.55 -4.0 L-4.4 -3.35 -4.6 -3.0 -5.05 -1.95 -5.15 -1.85 -5.3 -1.6 -5.35 -1.5 -5.45 -1.45 -5.75 -2.1 Q-5.95 -2.65 -5.75 -3.15 L-5.65 -3.55 -5.65 -3.6 -5.6 -4.05 -5.45 -4.4 -5.35 -4.95 -5.3 -5.05 Q-4.85 -5.65 -5.65 -5.75 L-5.95 -5.7 -5.75 -6.05 -3.55 -6.55 -3.55 -6.6 -3.5 -6.6 -1.75 -6.8 Q-0.8 -7.05 0.0 -7.45 L1.85 -6.95 1.9 -6.9 Q2.15 -6.45 2.9 -6.6 L3.25 -6.4 4.8 -6.15 M-1.1 -6.6 L-1.25 -6.6 -1.35 -6.55 -1.1 -6.6" fill="#c77ea9" fill-rule="evenodd" stroke="none"/>
    <path d="M3.85 -6.75 L4.05 -6.8 4.65 -6.75 3.85 -6.75 M5.2 -4.7 L5.0 -4.85 4.7 -5.15 Q4.35 -5.6 4.65 -6.0 L4.8 -6.15 5.05 -6.05 5.15 -6.05 5.25 -6.0 Q5.6 -5.7 5.55 -5.2 L5.55 -5.15 5.5 -4.95 5.45 -4.5 5.2 -4.75 5.2 -4.7 M-5.95 -5.7 L-5.65 -5.75 Q-4.85 -5.65 -5.3 -5.05 L-5.35 -4.95 -5.45 -4.4 -5.6 -4.05 -5.55 -4.25 -5.5 -4.45 -5.45 -4.5 -5.45 -4.6 -5.95 -3.65 -6.35 -4.15 -6.3 -4.9 -6.15 -5.25 -6.05 -5.5 -5.95 -5.7 M-0.95 1.4 L-1.1 0.15 -1.2 -1.35 -1.05 -2.1 -1.05 -1.55 Q-1.0 -0.9 -0.45 -0.9 L-0.35 -1.0 Q-0.05 -1.65 -0.1 -2.35 L0.0 -2.85 Q0.25 -3.8 -0.2 -4.6 L-0.3 -4.65 -0.4 -4.6 -0.25 -4.9 0.2 -5.65 0.45 -5.7 0.95 -5.9 1.1 -5.8 1.15 -5.65 1.25 -5.2 1.6 -3.65 1.65 -3.25 1.65 -3.15 2.0 -1.7 2.05 -1.1 1.85 1.3 1.85 1.5 0.8 1.5 0.35 1.5 -0.95 1.4" fill="#a4a4ff" fill-rule="evenodd" stroke="none"/>
    <path d="M3.85 -6.75 L4.65 -6.75 Q5.7 -6.75 6.1 -5.8 L5.9 -4.05 6.1 -3.6 Q6.4 -2.85 6.1 -1.9 L5.55 -0.9 5.7 -0.1 5.25 1.3 4.25 2.7 3.4 3.3 2.0 3.85 1.65 4.35 Q1.0 5.25 -0.15 5.0 L-1.1 4.4 -1.2 4.05 -1.75 3.9 Q-2.7 3.6 -3.45 3.05 L-4.4 2.3 -5.2 1.25 Q-5.7 0.55 -5.7 -0.45 L-5.7 -0.65 -6.1 -1.75 Q-6.35 -2.4 -6.15 -3.1 -6.7 -3.45 -6.85 -4.15 L-6.8 -4.3 -6.25 -6.0 -6.05 -6.2 -4.65 -6.95 Q-3.7 -6.7 -3.0 -6.95 L-2.9 -7.0 -2.3 -6.95 -1.65 -7.3 -1.55 -7.35 -0.35 -7.85 0.2 -7.85 Q1.6 -7.55 2.95 -6.65 L3.85 -6.75 M4.8 -6.15 L3.25 -6.4 2.9 -6.6 Q2.15 -6.45 1.9 -6.9 L1.85 -6.95 0.0 -7.45 Q-0.8 -7.05 -1.75 -6.8 L-3.5 -6.6 -3.55 -6.65 -3.55 -6.6 -3.55 -6.55 -5.75 -6.05 -5.95 -5.7 -6.05 -5.5 -6.15 -5.25 -6.3 -4.9 -6.35 -4.15 -5.95 -3.65 -5.45 -4.6 -5.45 -4.5 -5.5 -4.45 -5.55 -4.25 -5.6 -4.05 -5.65 -3.6 -5.65 -3.55 -5.75 -3.15 Q-5.95 -2.65 -5.75 -2.1 L-5.45 -1.45 -5.35 -1.5 -5.3 -1.6 -5.15 -1.85 -5.05 -1.95 -4.9 -1.9 -4.95 -1.6 -5.05 -0.15 -5.0 -0.05 -5.0 0.45 -4.0 1.8 -2.85 2.75 -1.25 3.5 -1.25 3.45 -2.05 2.0 -2.25 1.25 -2.3 1.15 -2.3 1.05 -2.4 0.55 -2.5 -1.05 -2.15 -2.7 -1.8 -3.8 Q-1.6 -3.9 -1.55 -3.95 L-1.55 -3.85 -1.7 -2.85 -1.8 -2.2 -1.9 -0.8 -1.85 0.6 -1.8 1.15 Q-1.6 2.3 -1.0 3.3 L-0.85 3.55 -0.75 3.55 -0.7 3.7 -0.6 3.85 -0.2 4.1 0.25 4.25 0.85 4.25 1.15 4.05 1.2 4.05 1.55 3.25 1.6 3.1 1.7 2.85 1.75 2.7 1.85 1.5 1.85 1.3 2.05 -1.1 2.0 -1.7 2.1 -1.2 2.3 0.3 2.3 0.55 2.3 1.55 2.25 1.95 2.25 2.0 2.15 2.55 Q2.0 2.9 2.3 3.15 L3.25 2.8 3.9 2.35 4.3 1.7 4.85 0.4 5.0 0.1 5.0 -0.75 4.9 -1.0 4.5 -2.05 4.45 -2.15 4.5 -2.2 4.8 -2.05 4.85 -2.0 5.35 -1.2 5.75 -2.3 5.85 -3.05 5.8 -3.3 5.3 -4.3 5.3 -4.35 5.2 -4.6 5.2 -4.7 5.2 -4.75 5.45 -4.5 5.5 -4.95 5.55 -5.15 5.55 -5.2 Q5.6 -5.7 5.25 -6.0 L5.15 -6.05 5.05 -6.05 4.8 -6.15" fill="#000000" fill-rule="evenodd" stroke="none"/>
    <path d="M-4.4 -3.35 L-4.55 -4.0 Q-4.5 -5.25 -3.4 -5.65 -2.75 -5.5 -2.8 -5.0 L-3.0 -4.5 -3.55 -3.35 -3.65 -3.2 -4.4 -3.35 M-1.05 -2.1 L-1.05 -2.15 -0.95 -3.65 Q-0.9 -4.3 -0.4 -4.6 L-0.3 -4.65 -0.2 -4.6 Q0.25 -3.8 0.0 -2.85 L-0.1 -2.35 Q-0.05 -1.65 -0.35 -1.0 L-0.45 -0.9 Q-1.0 -0.9 -1.05 -1.55 L-1.05 -2.1 M2.35 -5.45 L2.45 -5.55 2.75 -5.5 Q3.25 -5.0 3.25 -4.4 L3.0 -3.75 2.85 -3.7 Q2.4 -3.7 2.25 -4.1 L2.1 -4.9 2.35 -5.45" fill="#ffffff" fill-rule="evenodd" stroke="none"/>
    <path d="M-1.65 -7.3 L-1.0 -7.7 -0.35 -7.85 -1.55 -7.35 -1.65 -7.3 M-5.05 -1.95 L-4.6 -3.0 -4.4 -3.35 -3.65 -3.2 -3.55 -3.35 -3.0 -4.5 -2.8 -5.0 -2.2 -5.35 -1.0 -5.75 -1.65 -4.25 -1.8 -3.8 -2.15 -2.7 -2.5 -1.05 -2.4 0.55 -2.3 1.05 -2.35 1.05 -2.4 1.0 -2.6 1.0 Q-3.3 0.6 -4.05 0.25 L-4.4 0.1 -5.05 -0.15 -4.95 -1.6 -4.9 -1.9 -5.05 -1.95 M-0.2 4.1 L-0.6 2.8 -0.95 1.4 0.35 1.5 0.8 1.5 1.85 1.5 1.75 2.7 1.7 2.85 1.6 3.1 1.55 3.25 1.2 4.05 1.15 4.05 0.85 4.25 0.25 4.25 -0.2 4.1 M1.15 -5.65 L2.0 -5.35 2.15 -5.2 2.35 -5.45 2.1 -4.9 2.25 -4.1 Q2.4 -3.7 2.85 -3.7 L3.0 -3.75 3.25 -4.4 3.6 -4.15 Q4.4 -3.55 4.65 -2.6 L4.85 -2.0 4.8 -2.05 4.5 -2.2 4.45 -2.15 4.5 -2.05 4.9 -1.0 5.0 -0.75 5.0 0.1 3.9 0.45 3.2 0.75 2.35 1.2 2.3 1.55 2.3 0.55 2.3 0.3 2.1 -1.2 2.0 -1.7 1.65 -3.15 1.65 -3.25 1.6 -3.65 1.25 -5.2 1.15 -5.65 M-1.1 -6.6 L-1.35 -6.55 -1.25 -6.6 -1.1 -6.6 M-2.3 1.15 L-2.25 1.25 -2.3 1.2 -2.3 1.15" fill="#8787c2" fill-rule="evenodd" stroke="none"/>
    <path d="M5.0 0.1 L4.85 0.4 4.3 1.7 3.9 2.35 3.25 2.8 2.3 3.15 Q2.0 2.9 2.15 2.55 L2.25 2.0 2.25 1.95 2.3 1.55 2.35 1.2 3.2 0.75 3.9 0.45 5.0 0.1 M-5.05 -0.15 L-4.4 0.1 -4.05 0.25 Q-3.3 0.6 -2.6 1.0 L-2.4 1.0 -2.35 1.05 -2.3 1.05 -2.3 1.15 -2.3 1.2 -2.25 1.25 -2.05 2.0 -1.25 3.45 -1.25 3.5 -2.85 2.75 -4.0 1.8 -5.0 0.45 -5.0 -0.05 -5.05 -0.15" fill="#595988" fill-rule="evenodd" stroke="none"/>
  </g>
</svg>
