<?xml version="1.0" encoding="UTF-8" standalone="no"?>
<svg xmlns:xlink="http://www.w3.org/1999/xlink" height="13.65px" width="16.4px" xmlns="http://www.w3.org/2000/svg">
  <g transform="matrix(1.0, 0.0, 0.0, 1.0, 8.1, 5.0)">
    <path d="M5.5 -2.3 L4.5 -3.25 3.3 -3.9 0.85 -4.55 0.5 -4.6 -0.3 -4.55 -1.45 -4.35 -2.75 -4.05 -2.85 -4.0 -2.9 -4.0 -3.0 -3.95 -3.25 -3.9 -4.65 -3.2 -5.05 -2.95 -5.35 -2.55 -5.5 -2.35 -5.5 -2.3 -5.9 -2.1 -6.45 -1.7 -7.4 -0.8 -7.25 -1.1 -7.05 -1.55 -7.05 -1.6 -6.7 -1.95 -6.5 -2.05 -5.6 -2.9 -5.0 -3.35 -4.5 -3.7 -3.8 -4.0 Q-2.85 -4.5 -1.7 -4.6 L-1.05 -4.75 0.5 -4.9 Q2.0 -4.85 3.4 -4.3 L4.2 -4.0 5.65 -3.2 6.95 -1.9 7.7 -0.85 7.95 -0.3 7.55 -0.55 6.45 -1.7 5.85 -2.1 5.5 -2.3 M-0.15 -2.7 L-0.1 -2.7 0.05 -2.7 0.15 -2.7 0.1 -2.65 0.05 -2.5 0.05 -1.65 0.2 -1.4 0.25 -1.4 0.65 -1.35 0.75 -1.35 2.75 -1.05 4.45 -0.6 4.6 -0.5 Q5.5 -0.05 6.05 0.85 L6.35 1.75 6.45 2.65 6.4 2.85 6.4 2.95 6.35 3.0 Q6.05 4.1 5.25 4.95 L3.6 6.35 2.2 6.85 1.95 6.85 1.7 6.9 1.6 6.9 0.05 7.05 -0.1 7.05 -1.65 6.9 -1.75 6.9 -2.0 6.85 -2.2 6.85 -2.25 6.85 -3.65 6.35 -5.3 4.95 Q-6.1 4.1 -6.4 3.0 L-6.4 2.95 -6.45 2.85 -6.45 2.65 -6.4 1.75 -6.1 0.85 Q-5.55 -0.05 -4.65 -0.5 L-4.5 -0.6 -2.8 -1.05 -0.8 -1.35 -0.7 -1.35 -0.3 -1.4 -0.25 -1.4 -0.1 -1.65 -0.05 -1.7 -0.1 -2.5 -0.15 -2.65 -0.15 -2.7 M-7.05 -1.55 L-7.0 -1.55 -7.05 -1.55 M7.1 -1.55 L7.0 -1.55 7.15 -1.5 7.1 -1.55 M3.6 0.65 L3.1 0.3 Q1.85 -0.55 0.05 -0.6 L-0.1 -0.6 Q-1.9 -0.55 -3.15 0.3 L-3.65 0.65 -4.15 1.25 -4.3 1.25 -4.55 1.25 Q-4.7 0.65 -5.4 0.45 L-5.55 0.45 -5.8 0.7 Q-6.15 1.55 -5.75 2.4 L-5.55 2.7 -5.0 2.9 -5.1 2.8 -5.1 2.75 -5.15 2.75 -5.15 2.7 -5.35 2.25 -4.65 2.35 -4.6 2.4 -4.6 2.35 -4.55 2.35 -4.5 2.35 -4.5 2.45 -4.35 3.15 Q-4.1 3.95 -3.15 4.6 -1.9 5.4 -0.1 5.45 L0.05 5.45 Q1.85 5.4 3.1 4.6 4.05 3.95 4.35 3.15 L4.45 2.45 4.45 2.35 4.55 2.35 4.55 2.4 4.6 2.35 5.3 2.25 5.35 2.25 5.1 2.7 5.1 2.75 5.05 2.75 5.05 2.8 5.0 2.9 5.5 2.7 5.7 2.4 Q6.1 1.55 5.75 0.7 L5.5 0.45 5.35 0.45 Q4.65 0.65 4.55 1.25 L4.25 1.25 4.1 1.25 3.6 0.65" fill="#23252e" fill-rule="evenodd" stroke="none"/>
    <path d="M0.85 -4.55 L3.3 -3.9 4.5 -3.25 5.5 -2.3 5.0 -2.55 4.9 -2.6 4.3 -2.8 4.05 -2.9 2.7 -3.2 2.6 -3.2 2.15 -3.2 0.55 -3.05 0.15 -2.7 0.05 -2.7 -0.1 -2.7 -0.15 -2.7 -0.6 -3.05 -0.9 -3.1 Q-0.25 -3.4 0.35 -3.8 0.8 -4.1 0.85 -4.55" fill="#7a8bbc" fill-rule="evenodd" stroke="none"/>
    <path d="M-0.9 -3.1 L-0.6 -3.05 -0.15 -2.7 -0.15 -2.65 -0.1 -2.5 -0.05 -1.7 -0.1 -1.65 -0.25 -1.4 -0.3 -1.4 -0.7 -1.35 -0.8 -1.35 -2.8 -1.05 -4.5 -0.6 -4.65 -0.5 Q-5.55 -0.05 -6.1 0.85 L-6.4 1.75 -6.45 2.65 -6.45 2.85 -6.4 2.95 -6.4 3.0 -6.2 3.55 -7.85 3.5 Q-8.25 1.9 -7.95 0.25 L-7.55 -0.45 -7.4 -0.8 -6.45 -1.7 -5.9 -2.1 -5.5 -2.3 -5.4 -2.35 -5.05 -2.55 -4.35 -2.8 -3.4 -3.05 -3.2 -3.1 -2.65 -3.2 -1.55 -3.2 -0.9 -3.1" fill="#46579f" fill-rule="evenodd" stroke="none"/>
    <path d="M0.85 -4.55 Q0.8 -4.1 0.35 -3.8 -0.25 -3.4 -0.9 -3.1 L-1.55 -3.2 -2.65 -3.2 -3.2 -3.1 -3.4 -3.05 -4.35 -2.8 -5.05 -2.55 -5.4 -2.35 -5.5 -2.3 -5.5 -2.35 -5.35 -2.55 -5.05 -2.95 -4.65 -3.2 -3.25 -3.9 -3.0 -3.95 -2.9 -4.0 -2.85 -4.0 -2.75 -4.05 -1.45 -4.35 -0.3 -4.55 0.5 -4.6 0.85 -4.55" fill="#a0accf" fill-rule="evenodd" stroke="none"/>
    <path d="M-7.05 -1.55 L-7.0 -1.55 -7.05 -1.55 M7.1 -1.55 L7.15 -1.5 7.0 -1.55 7.1 -1.55" fill="#8b94a3" fill-rule="evenodd" stroke="none"/>
    <path d="M-3.65 0.65 L-3.15 0.3 Q-1.9 -0.55 -0.1 -0.6 L0.05 -0.6 Q1.85 -0.55 3.1 0.3 L3.6 0.65 3.6 0.7 3.8 1.05 3.8 1.25 3.75 1.65 3.75 2.2 3.45 2.85 2.85 3.35 Q1.55 3.95 0.05 3.8 L-0.1 3.8 Q-1.6 3.95 -2.9 3.35 L-3.5 2.85 -3.8 2.2 -3.8 1.65 -3.85 1.25 -3.85 1.05 -3.65 0.7 -3.65 0.65 M4.25 1.25 L4.55 1.25 4.6 1.25 5.25 1.4 5.3 1.4 5.35 1.45 5.6 1.7 5.45 2.15 5.35 2.25 5.3 2.25 4.6 2.35 4.55 2.35 4.35 2.15 4.25 1.8 4.25 1.6 4.2 1.4 4.25 1.25 M-4.55 2.35 L-4.6 2.35 -4.65 2.35 -5.35 2.25 -5.5 2.15 -5.6 1.7 -5.4 1.45 -5.35 1.4 -5.25 1.4 -4.65 1.25 -4.55 1.25 -4.3 1.25 -4.25 1.4 -4.25 1.6 -4.3 1.8 -4.4 2.15 -4.55 2.35" fill="#e85700" fill-rule="evenodd" stroke="none"/>
    <path d="M-3.65 0.65 L-3.65 0.7 -3.85 1.05 -3.85 1.25 -3.8 1.65 -3.8 2.2 -3.5 2.85 -2.9 3.35 Q-1.6 3.95 -0.1 3.8 L0.05 3.8 Q1.55 3.95 2.85 3.35 L3.45 2.85 3.75 2.2 3.75 1.65 3.8 1.25 3.8 1.05 3.6 0.7 3.6 0.65 4.1 1.25 4.25 1.25 4.2 1.4 4.25 1.6 4.25 1.8 4.35 2.15 4.55 2.35 4.45 2.35 4.45 2.45 4.35 3.15 Q4.05 3.95 3.1 4.6 1.85 5.4 0.05 5.45 L-0.1 5.45 Q-1.9 5.4 -3.15 4.6 -4.1 3.95 -4.35 3.15 L-4.5 2.45 -4.5 2.35 -4.55 2.35 -4.4 2.15 -4.3 1.8 -4.25 1.6 -4.25 1.4 -4.3 1.25 -4.15 1.25 -3.65 0.65" fill="#b6440e" fill-rule="evenodd" stroke="none"/>
    <path d="M4.55 1.25 Q4.65 0.65 5.35 0.45 L5.5 0.45 5.75 0.7 Q6.1 1.55 5.7 2.4 L5.5 2.7 5.0 2.9 5.05 2.8 5.05 2.75 5.1 2.75 5.1 2.7 5.35 2.25 5.45 2.15 5.6 1.7 5.35 1.45 5.3 1.4 5.25 1.4 4.6 1.25 4.55 1.25 M-5.35 2.25 L-5.15 2.7 -5.15 2.75 -5.1 2.75 -5.1 2.8 -5.0 2.9 -5.55 2.7 -5.75 2.4 Q-6.15 1.55 -5.8 0.7 L-5.55 0.45 -5.4 0.45 Q-4.7 0.65 -4.55 1.25 L-4.65 1.25 -5.25 1.4 -5.35 1.4 -5.4 1.45 -5.6 1.7 -5.5 2.15 -5.35 2.25" fill="#b3b9c1" fill-rule="evenodd" stroke="none"/>
    <path d="M4.6 2.35 L4.55 2.4 4.55 2.35 4.6 2.35 M-4.6 2.35 L-4.6 2.4 -4.65 2.35 -4.6 2.35" fill="#a7adb8" fill-rule="evenodd" stroke="none"/>
    <path d="M0.15 -2.7 L0.55 -3.05 2.15 -3.2 2.6 -3.2 2.7 -3.2 4.05 -2.9 4.3 -2.8 4.9 -2.6 5.0 -2.55 5.5 -2.3 5.85 -2.1 6.45 -1.7 7.55 -0.55 7.95 -0.3 8.2 1.45 8.0 3.5 Q7.5 5.35 5.75 6.7 L5.25 7.25 5.1 7.3 Q3.1 8.25 0.9 8.4 -2.0 8.6 -4.7 7.5 L-5.6 6.5 -6.45 5.95 -7.25 4.85 -7.5 4.5 -7.85 3.5 -6.2 3.55 -6.4 3.0 Q-6.1 4.1 -5.3 4.95 L-3.65 6.35 -2.25 6.85 -2.2 6.85 -2.0 6.85 -1.75 6.9 -1.65 6.9 -0.1 7.05 0.05 7.05 1.6 6.9 1.7 6.9 1.95 6.85 2.2 6.85 3.6 6.35 5.25 4.95 Q6.05 4.1 6.35 3.0 L6.4 2.95 6.4 2.85 6.45 2.65 6.35 1.75 6.05 0.85 Q5.5 -0.05 4.6 -0.5 L4.45 -0.6 2.75 -1.05 0.75 -1.35 0.65 -1.35 0.25 -1.4 0.2 -1.4 0.05 -1.65 0.05 -2.5 0.1 -2.65 0.15 -2.7" fill="#000000" fill-rule="evenodd" stroke="none"/>
    <path d="M1.15 -1.9 L-1.85 -1.65 Q-2.35 -1.75 -2.85 -2.0 L-3.05 -2.1 -3.1 -1.95 -3.4 -1.45 Q-4.25 -0.85 -4.45 0.15 L-4.7 0.65 Q-5.3 1.15 -5.8 0.5 L-5.9 -0.15 Q-5.7 -1.4 -4.9 -2.3 L-4.15 -2.8 -3.75 -3.4 -3.2 -3.65 -3.15 -3.8 -2.7 -4.35 -1.7 -4.55 2.65 -4.15 2.85 -4.05 Q4.2 -3.5 5.0 -2.45 5.8 -1.45 5.65 -0.15 5.45 1.3 4.05 1.15 L3.7 0.85 3.7 0.3 3.55 0.2 2.95 -0.35 2.55 -0.95 2.55 -1.0 2.4 -1.0 1.7 -1.45 1.15 -1.9" fill="#000000" fill-rule="evenodd" stroke="none"/>
    <path d="M1.55 -2.6 L1.8 -3.0 2.2 -3.3 2.4 -3.3 2.9 -3.2 2.95 -3.2 3.4 -2.85 3.4 -2.7 Q3.25 -2.15 2.6 -2.0 1.8 -1.9 1.5 -2.4 L1.55 -2.55 1.55 -2.6 M-4.0 -1.75 L-4.0 -1.85 -3.85 -2.2 -3.65 -2.9 -2.9 -3.25 -2.85 -3.25 -2.6 -3.3 -2.45 -3.3 Q-2.3 -3.15 -2.3 -2.8 -2.35 -2.2 -2.85 -1.85 L-4.0 -1.75" fill="#ffffff" fill-rule="evenodd" stroke="none"/>
    <path d="M2.95 -3.2 L2.9 -3.2 2.4 -3.3 2.2 -3.3 1.8 -3.0 1.55 -2.6 1.4 -2.6 1.25 -2.6 -0.95 -2.6 -1.25 -2.55 -1.3 -2.55 -1.55 -2.55 -1.7 -2.9 -1.8 -3.0 -2.15 -3.25 -2.6 -3.3 -2.85 -3.25 -2.9 -3.25 -3.65 -2.9 -3.85 -2.2 -4.0 -1.85 -4.0 -1.75 -3.9 -1.25 -3.9 -1.2 -3.75 -1.0 -3.9 -0.75 -3.9 -0.7 -3.95 -0.65 -3.95 -0.6 -3.95 -0.55 -4.0 -0.5 -4.0 -0.35 -4.25 0.25 -4.35 1.35 -4.3 1.5 -4.3 1.55 -4.05 2.0 -3.85 2.25 -2.15 3.35 -1.85 3.45 -0.45 3.5 0.3 3.5 0.85 3.55 1.2 3.5 2.25 3.35 2.95 3.1 3.75 2.75 4.2 2.5 4.35 2.35 4.45 2.15 4.5 1.85 4.5 1.8 4.45 1.1 4.45 0.85 4.45 0.7 4.4 0.5 4.25 -0.1 4.25 -0.25 4.0 -0.95 3.95 -1.0 3.9 -1.1 3.85 -1.25 3.75 -1.45 3.85 -1.95 3.8 -2.15 3.75 -2.25 Q3.5 -3.0 2.95 -3.2 M2.5 -3.7 L2.8 -3.7 Q3.8 -3.65 4.2 -2.7 L4.3 -1.75 4.35 -1.5 4.75 -0.05 4.9 1.0 4.9 1.1 Q4.9 1.95 4.35 2.75 L3.45 3.4 2.4 3.6 1.55 3.6 1.4 3.6 -0.1 3.6 -3.25 3.4 -3.85 3.15 -4.55 2.4 -4.8 1.75 Q-5.15 0.4 -4.35 -0.75 L-4.2 -0.9 -4.35 -1.15 Q-4.75 -2.15 -4.2 -3.05 L-3.75 -3.45 -2.8 -3.7 Q-1.85 -3.75 -1.45 -3.05 L0.5 -3.1 1.55 -3.05 1.6 -3.1 1.6 -3.15 Q1.95 -3.65 2.5 -3.7" fill="#000000" fill-rule="evenodd" stroke="none"/>
    <path d="M1.55 -2.6 L1.55 -2.55 1.5 -2.4 1.45 -2.15 1.55 -1.7 Q1.65 -1.25 2.1 -1.0 L2.55 -0.9 3.0 -0.9 3.2 -0.95 3.3 -1.0 3.7 -1.3 3.75 -1.45 3.85 -1.25 3.9 -1.1 3.95 -1.0 4.0 -0.95 4.25 -0.25 4.25 -0.1 4.4 0.5 4.45 0.7 4.45 0.85 4.45 1.1 4.5 1.8 4.5 1.85 4.45 2.15 4.35 2.35 4.2 2.5 3.75 2.75 2.95 3.1 2.25 3.35 1.2 3.5 0.85 3.55 0.3 3.5 -0.45 3.5 -1.85 3.45 -2.15 3.35 -3.85 2.25 -4.05 2.0 -4.3 1.55 -3.9 1.55 -3.75 1.55 0.2 1.95 1.55 1.8 2.6 1.45 3.5 1.25 3.7 1.15 3.65 0.1 3.55 -0.25 3.5 -0.2 2.45 -0.1 Q1.35 -0.35 1.15 -1.4 L1.1 -1.65 1.1 -1.85 1.25 -2.6 1.4 -2.6 1.55 -2.6 M-3.95 -0.65 L-3.9 -0.7 -3.9 -0.75 -3.75 -1.0 -3.7 -0.95 -3.45 -0.8 -3.35 -0.75 -3.1 -0.7 -2.45 -0.75 -2.25 -0.85 -1.8 -1.25 -1.6 -1.55 -1.55 -1.8 -1.55 -2.35 -1.55 -2.55 -1.3 -2.55 -1.25 -2.55 -0.95 -2.6 -0.9 -2.15 -0.95 -1.75 -1.1 -1.1 -1.2 -0.75 -1.5 -0.3 Q-1.95 0.15 -2.75 0.05 L-3.0 0.0 Q-3.35 -0.05 -3.6 -0.25 L-3.65 -0.3 -3.9 -0.55 -3.95 -0.65" fill="#b6440e" fill-rule="evenodd" stroke="none"/>
    <path d="M1.5 -2.4 Q1.8 -1.9 2.6 -2.0 3.25 -2.15 3.4 -2.7 L3.4 -2.85 2.95 -3.2 Q3.5 -3.0 3.75 -2.25 L3.8 -2.15 3.85 -1.95 3.75 -1.45 3.7 -1.3 3.3 -1.0 3.2 -0.95 3.0 -0.9 2.55 -0.9 2.1 -1.0 Q1.65 -1.25 1.55 -1.7 L1.45 -2.15 1.5 -2.4 M-3.75 -1.0 L-3.9 -1.2 -3.9 -1.25 -4.0 -1.75 -2.85 -1.85 Q-2.35 -2.2 -2.3 -2.8 -2.3 -3.15 -2.45 -3.3 L-2.6 -3.3 -2.15 -3.25 -1.8 -3.0 -1.7 -2.9 -1.55 -2.55 -1.55 -2.35 -1.55 -1.8 -1.6 -1.55 -1.8 -1.25 -2.25 -0.85 -2.45 -0.75 -3.1 -0.7 -3.35 -0.75 -3.45 -0.8 -3.7 -0.95 -3.75 -1.0" fill="#ffcc00" fill-rule="evenodd" stroke="none"/>
    <path d="M-4.3 1.55 L-4.3 1.5 -4.35 1.35 -4.25 0.25 -4.0 -0.35 -4.0 -0.5 -3.95 -0.55 -3.95 -0.6 -3.95 -0.65 -3.9 -0.55 -3.65 -0.3 -3.6 -0.25 Q-3.35 -0.05 -3.0 0.0 L-2.75 0.05 Q-1.95 0.15 -1.5 -0.3 L-1.65 0.25 -1.6 0.8 Q-1.3 1.55 -0.55 1.2 L-0.4 1.0 -0.05 0.25 0.15 -0.05 Q0.5 -0.95 -0.4 -1.15 -0.9 -1.05 -1.2 -0.75 L-1.1 -1.1 -0.95 -1.75 -0.9 -2.15 -0.95 -2.6 1.25 -2.6 1.1 -1.85 1.1 -1.65 1.15 -1.4 Q1.35 -0.35 2.45 -0.1 L3.5 -0.2 3.55 -0.25 3.65 0.1 3.7 1.15 3.5 1.25 2.6 1.45 1.55 1.8 0.2 1.95 -3.75 1.55 -3.9 1.55 -4.3 1.55" fill="#e85700" fill-rule="evenodd" stroke="none"/>
    <path d="M-1.2 -0.75 Q-0.9 -1.05 -0.4 -1.15 0.5 -0.95 0.15 -0.05 L-0.05 0.25 -0.4 1.0 -0.55 1.2 Q-1.3 1.55 -1.6 0.8 L-1.65 0.25 -1.5 -0.3 -1.2 -0.75" fill="#ff8d48" fill-rule="evenodd" stroke="none"/>
    <path d="M5.6 -2.85 Q7.9 -0.95 7.95 1.75 7.9 4.4 5.6 6.3 3.35 8.25 0.1 8.25 -3.15 8.25 -5.45 6.3 -7.7 4.4 -7.7 1.75 -7.7 -0.95 -5.45 -2.85 -3.15 -4.75 0.1 -4.75 3.35 -4.75 5.6 -2.85" fill="#78a3e9" fill-opacity="0.4" fill-rule="evenodd" stroke="none"/>
    <path d="M4.6 -3.6 L4.85 -3.45 5.6 -2.85 6.1 -2.45 6.7 -1.75 7.25 -0.95 7.4 -0.7 7.45 -0.5 Q7.25 0.25 6.65 0.4 L6.2 2.0 6.0 2.95 5.6 3.35 Q5.05 4.4 4.0 4.95 L3.5 5.2 3.2 5.3 3.15 5.35 2.8 5.4 Q0.0 6.1 -2.75 5.35 -4.3 4.9 -5.35 3.8 L-6.0 4.05 Q-6.8 4.15 -7.4 3.65 L-7.5 3.3 -7.7 1.75 -7.7 1.4 -7.6 0.55 -7.35 0.8 Q-6.5 1.5 -5.75 0.8 L-5.65 0.7 -5.6 1.05 -5.55 1.25 -5.4 1.7 -5.3 1.95 -5.25 2.0 -5.25 2.05 -4.7 2.9 -4.6 3.0 -4.45 3.15 Q-4.55 3.8 -3.7 3.95 -2.65 4.15 -1.8 3.5 L-1.35 3.15 -1.55 3.1 -0.8 3.05 0.05 2.7 Q1.15 1.95 0.9 0.7 L0.85 0.5 0.75 0.25 Q1.2 0.45 1.4 1.0 L1.6 1.95 1.85 2.5 1.9 2.65 2.0 2.8 2.4 3.25 2.6 3.4 3.9 3.55 4.1 3.55 4.15 3.5 4.65 3.05 4.85 2.8 5.5 1.65 5.7 0.95 5.8 0.35 5.8 -0.1 5.45 -1.85 5.4 -1.95 5.3 -2.1 5.1 -2.4 5.0 -2.5 4.75 -2.8 4.65 -2.9 4.6 -2.95 4.5 -3.1 4.6 -3.55 4.6 -3.6" fill="#7a8bbc" fill-rule="evenodd" stroke="none"/>
    <path d="M2.75 -3.9 L2.45 -4.0 2.4 -4.0 2.4 -4.05 2.3 -4.05 2.2 -4.15 0.0 -4.3 -1.0 -4.35 -1.45 -4.3 -2.55 -3.9 -2.75 -3.85 -2.9 -3.8 -4.4 -2.65 -4.95 -2.0 -5.45 -0.2 -5.5 0.4 -5.15 1.75 -4.45 2.95 -4.4 3.05 -2.65 2.9 -2.6 2.85 Q-1.75 2.25 -1.35 1.3 L-0.9 0.45 -0.7 0.25 0.1 -0.15 Q1.05 -0.15 1.4 0.75 L2.0 1.95 Q2.45 2.8 3.35 3.0 L4.55 2.95 4.85 2.45 5.25 1.55 Q5.6 0.35 5.45 -0.95 L4.9 -2.3 4.8 -2.45 4.45 -2.9 2.9 -3.8 2.75 -3.9 M4.6 -3.6 L4.5 -3.65 3.35 -4.2 3.3 -4.2 2.85 -4.35 2.0 -4.6 0.1 -4.75 -0.3 -4.75 -1.95 -4.55 Q-3.55 -4.2 -4.8 -3.35 L-5.45 -2.85 -5.8 -2.55 -5.85 -2.5 -6.1 -2.25 -6.35 -1.95 -6.7 -1.5 -7.25 -0.5 -7.5 0.25 -7.6 0.55 -7.7 1.4 -7.7 1.75 -7.5 3.3 -7.4 3.65 Q-6.85 5.15 -5.45 6.3 -3.15 8.25 0.1 8.25 L0.3 8.25 1.4 8.15 Q3.8 7.85 5.6 6.3 7.7 4.6 7.9 2.25 L7.95 1.75 7.9 1.2 7.45 -0.5 7.4 -0.7 7.25 -0.95 6.7 -1.75 6.1 -2.45 5.6 -2.85 4.85 -3.45 4.6 -3.6 M-5.65 0.7 L-5.65 0.45 -5.7 0.45 -5.7 0.1 -5.7 0.0 -5.7 -0.05 -5.65 -0.35 -5.5 -1.25 -5.15 -2.05 -4.75 -2.6 -3.95 -3.4 -2.7 -4.05 -2.25 -4.2 -1.75 -4.3 -1.55 -4.35 -0.8 -4.5 0.45 -4.5 2.2 -4.3 2.3 -4.3 2.65 -4.2 Q3.2 -4.05 3.7 -3.7 L4.4 -3.2 4.5 -3.1 4.6 -2.95 4.65 -2.9 4.75 -2.8 5.0 -2.5 5.1 -2.4 5.3 -2.1 5.4 -1.95 5.45 -1.85 5.8 -0.1 5.8 0.35 5.7 0.95 5.5 1.65 4.85 2.8 4.65 3.05 4.15 3.5 4.1 3.55 3.9 3.55 2.6 3.4 2.4 3.25 2.0 2.8 1.9 2.65 1.85 2.5 1.6 1.95 1.4 1.0 Q1.2 0.45 0.75 0.25 L-0.1 0.2 -0.5 0.35 -1.05 1.15 -1.3 1.9 -1.75 2.65 -1.9 2.8 Q-2.55 3.45 -3.55 3.55 L-3.6 3.55 -4.2 3.4 -4.4 3.25 -4.45 3.15 -4.6 3.0 -4.7 2.9 -5.25 2.05 -5.25 2.0 -5.3 1.95 -5.4 1.7 -5.55 1.25 -5.6 1.05 -5.65 0.7 M4.15 -4.15 L4.3 -4.05 4.75 -3.75 5.2 -3.55 6.85 -1.8 6.95 -1.65 7.25 -1.45 7.6 -1.0 7.7 -0.85 8.15 0.35 8.2 1.15 8.25 1.2 8.3 1.75 8.15 1.95 7.95 3.15 7.75 3.95 6.85 5.8 6.35 6.35 3.8 8.0 3.7 8.05 0.95 8.6 -1.6 8.55 Q-2.95 8.35 -4.15 7.65 L-6.3 6.0 -6.65 5.65 -7.8 3.6 -8.1 2.05 -8.1 1.6 -7.95 0.3 -7.85 -0.1 -7.5 -0.9 -7.1 -1.4 -6.95 -1.65 -6.65 -2.1 -6.6 -2.2 -6.35 -2.45 -6.25 -2.55 -5.1 -3.45 -4.75 -3.65 -3.7 -4.25 -1.65 -4.85 1.15 -5.0 1.6 -4.9 2.0 -4.85 4.15 -4.15" fill="#000000" fill-rule="evenodd" stroke="none"/>
    <path d="M7.45 -0.5 L7.9 1.2 7.95 1.75 7.9 2.25 Q7.7 4.6 5.6 6.3 3.8 7.85 1.4 8.15 L0.3 8.25 0.1 8.25 Q-3.15 8.25 -5.45 6.3 -6.85 5.15 -7.4 3.65 -6.8 4.15 -6.0 4.05 L-5.35 3.8 Q-4.3 4.9 -2.75 5.35 0.0 6.1 2.8 5.4 L3.15 5.35 3.2 5.3 3.5 5.2 4.0 4.95 Q5.05 4.4 5.6 3.35 L6.0 2.95 6.2 2.0 6.65 0.4 Q7.25 0.25 7.45 -0.5" fill="#4a5c93" fill-rule="evenodd" stroke="none"/>
    <path d="M-7.6 0.55 L-7.5 0.25 -7.25 -0.5 -6.7 -1.5 -6.35 -1.95 -6.1 -2.25 -5.85 -2.5 -5.8 -2.55 -5.45 -2.85 -4.8 -3.35 Q-3.55 -4.2 -1.95 -4.55 L-0.3 -4.75 0.1 -4.75 2.0 -4.6 2.85 -4.35 3.3 -4.2 3.35 -4.2 4.5 -3.65 4.6 -3.6 4.6 -3.55 4.5 -3.1 4.4 -3.2 3.7 -3.7 Q3.2 -4.05 2.65 -4.2 L2.3 -4.3 2.2 -4.3 0.45 -4.5 -0.8 -4.5 -1.55 -4.35 -1.75 -4.3 -2.25 -4.2 -2.7 -4.05 -3.95 -3.4 -4.75 -2.6 -5.15 -2.05 -5.5 -1.25 -5.65 -0.35 -5.7 -0.05 -5.7 0.0 -5.7 0.1 -5.7 0.45 -5.65 0.45 -5.65 0.7 -5.75 0.8 Q-6.5 1.5 -7.35 0.8 L-7.6 0.55 M0.75 0.25 L0.85 0.5 0.9 0.7 Q1.15 1.95 0.05 2.7 L-0.8 3.05 -1.55 3.1 -1.35 3.15 -1.8 3.5 Q-2.65 4.15 -3.7 3.95 -4.55 3.8 -4.45 3.15 L-4.4 3.25 -4.2 3.4 -3.6 3.55 -3.55 3.55 Q-2.55 3.45 -1.9 2.8 L-1.75 2.65 -1.3 1.9 -1.05 1.15 -0.5 0.35 -0.1 0.2 0.75 0.25" fill="#a0accf" fill-rule="evenodd" stroke="none"/>
  </g>
</svg>
