<?xml version="1.0" encoding="UTF-8" standalone="no"?>
<svg xmlns:xlink="http://www.w3.org/1999/xlink" height="10.9px" width="9.9px" xmlns="http://www.w3.org/2000/svg">
  <g transform="matrix(1.0, 0.0, 0.0, 1.0, 5.3, 8.5)">
    <path d="M1.75 -8.35 L2.55 -8.5 Q3.7 -8.35 4.45 -7.5 L4.55 -7.35 4.6 -7.25 4.6 -7.1 4.6 -7.05 4.6 -7.0 4.45 -6.6 4.35 -6.5 3.6 -5.75 3.7 -5.2 3.75 -4.15 4.15 -2.85 4.15 -2.8 4.2 -2.55 4.2 -0.9 Q4.2 -0.25 3.85 0.5 L3.6 1.2 2.35 1.9 Q1.1 2.6 -0.3 2.35 L-1.65 1.85 -3.2 0.95 -3.95 0.0 -4.4 -1.75 -4.35 -3.05 -4.05 -4.0 -4.0 -4.1 -5.05 -5.65 -5.15 -5.85 -5.1 -6.15 -5.25 -6.2 -5.3 -6.3 -5.3 -6.35 -4.8 -6.65 -4.35 -6.85 -3.85 -6.9 Q-3.0 -7.0 -2.3 -6.5 L-2.15 -6.65 -1.85 -7.0 0.2 -7.3 0.9 -7.85 1.35 -8.25 1.65 -8.35 1.75 -8.35 M-4.0 -0.45 L-2.85 0.9 -2.0 1.3 -1.0 1.75 0.1 1.75 1.8 1.5 2.85 1.05 Q3.8 0.6 3.75 -0.4 L3.65 -1.75 3.5 -2.95 3.45 -3.2 3.15 -4.9 3.1 -5.1 3.05 -5.2 2.85 -5.45 2.8 -5.45 2.7 -5.55 2.5 -5.7 2.45 -5.75 2.2 -5.9 2.0 -6.05 1.05 -6.65 1.0 -6.65 0.7 -6.65 0.6 -6.65 0.25 -6.65 0.25 -6.6 0.0 -6.6 -0.45 -6.6 -1.45 -6.55 -1.85 -6.55 -2.1 -6.35 -2.25 -6.2 -2.4 -6.05 -2.65 -5.8 -2.7 -5.75 -2.75 -5.6 -2.95 -5.35 -3.1 -5.0 -3.15 -4.85 -3.3 -4.4 -3.45 -4.05 -3.5 -3.8 -3.6 -3.55 -3.7 -3.25 -4.0 -1.35 -4.0 -0.45 M1.4 -7.0 L1.7 -6.85 2.3 -6.45 3.05 -7.1 1.75 -7.25 1.6 -7.2 1.4 -7.0 M-2.95 -5.8 L-3.35 -5.95 -3.1 -5.6 -2.95 -5.8" fill="#000000" fill-rule="evenodd" stroke="none"/>
    <path d="M-4.0 -0.45 L-4.0 -1.35 -3.7 -3.25 -3.6 -3.55 -3.5 -3.8 -3.45 -4.05 -3.3 -4.4 -3.4 -4.1 -2.85 -3.8 -2.6 -3.8 -2.35 -3.8 Q-1.65 -4.05 -1.7 -4.85 -1.6 -4.85 -1.45 -4.95 L-1.35 -5.1 -0.8 -5.55 -0.15 -5.85 -0.25 -5.4 Q-0.2 -4.5 0.7 -4.1 L2.05 -3.9 2.15 -3.95 2.15 -3.9 2.3 -3.3 2.5 -1.95 2.55 -0.85 -4.0 -0.45 M-3.1 -5.0 L-2.95 -5.35 -2.95 -5.3 -2.7 -4.75 -2.75 -4.75 -2.85 -4.8 -3.05 -5.05 -3.1 -5.0 M-2.4 -6.05 L-2.25 -6.2 -2.3 -6.0 -2.4 -6.05 M0.2 -2.35 L0.15 -1.95 -0.3 -2.0 -0.3 -2.05 Q-0.5 -2.4 0.0 -2.6 L0.1 -2.65 0.25 -2.5 0.2 -2.35 M1.2 -2.05 L1.15 -2.35 Q0.85 -3.3 -0.1 -3.35 L-0.7 -3.05 Q-1.3 -2.55 -1.15 -1.75 L-1.0 -1.45 Q-0.3 -0.55 0.8 -1.1 L1.2 -2.05 M1.35 -6.0 L1.65 -5.4 1.75 -5.15 Q1.45 -5.15 1.25 -5.3 L1.15 -5.65 1.25 -5.95 1.35 -6.0" fill="#c16100" fill-rule="evenodd" stroke="none"/>
    <path d="M0.25 -6.6 L0.25 -6.65 0.6 -6.65 0.7 -6.65 1.0 -6.65 1.05 -6.65 2.0 -6.05 2.2 -5.9 2.45 -5.75 2.5 -5.7 2.7 -5.55 2.8 -5.45 2.85 -5.45 3.05 -5.2 3.1 -5.1 3.15 -4.9 3.45 -3.2 3.5 -2.95 3.65 -1.75 3.75 -0.4 Q3.8 0.6 2.85 1.05 L1.8 1.5 0.1 1.75 -1.0 1.75 -2.0 1.3 -2.85 0.9 -4.0 -0.45 2.55 -0.85 2.5 -1.95 2.3 -3.3 2.15 -3.9 2.15 -3.95 2.05 -3.9 0.7 -4.1 Q-0.2 -4.5 -0.25 -5.4 L-0.15 -5.85 -0.1 -6.05 0.25 -6.6 M-3.3 -4.4 L-3.15 -4.85 -3.1 -5.0 -3.05 -5.05 -2.85 -4.8 -2.75 -4.75 -2.7 -4.75 -2.95 -5.3 -2.95 -5.35 -2.75 -5.6 -2.7 -5.75 -2.65 -5.8 -2.4 -6.05 -2.3 -6.0 -2.25 -6.0 Q-1.85 -5.65 -1.75 -5.1 L-1.7 -4.85 Q-1.65 -4.05 -2.35 -3.8 L-2.6 -3.8 -2.85 -3.8 -3.4 -4.1 -3.3 -4.4 M1.35 -6.0 L1.25 -5.95 1.15 -5.65 1.25 -5.3 Q1.45 -5.15 1.75 -5.15 L1.65 -5.4 1.35 -6.0 M1.2 -2.05 L0.8 -1.1 Q-0.3 -0.55 -1.0 -1.45 L-1.15 -1.75 Q-1.3 -2.55 -0.7 -3.05 L-0.1 -3.35 Q0.85 -3.3 1.15 -2.35 L1.2 -2.05 M0.2 -2.35 L0.25 -2.5 0.1 -2.65 0.0 -2.6 Q-0.5 -2.4 -0.3 -2.05 L-0.3 -2.0 0.15 -1.95 0.2 -2.35" fill="#9b4600" fill-rule="evenodd" stroke="none"/>
    <path d="M-2.25 -6.2 L-2.1 -6.35 -1.85 -6.55 -1.45 -6.55 -0.45 -6.6 0.0 -6.6 0.25 -6.6 -0.1 -6.05 -0.15 -5.85 -0.8 -5.55 -1.35 -5.1 -1.45 -4.95 Q-1.6 -4.85 -1.7 -4.85 L-1.75 -5.1 Q-1.85 -5.65 -2.25 -6.0 L-2.3 -6.0 -2.25 -6.2" fill="#e8ae00" fill-rule="evenodd" stroke="none"/>
    <path d="M0.35 -6.4 L0.35 -6.45 0.55 -6.85 0.8 -7.3 Q1.15 -7.8 1.7 -7.9 L2.25 -8.0 Q2.45 -7.85 2.3 -7.4 L2.0 -7.05 Q1.45 -6.8 1.15 -6.2 L1.0 -6.1 Q0.45 -6.0 0.35 -6.4 M-0.45 -3.15 L-0.2 -3.2 Q0.45 -3.1 0.2 -2.45 L0.0 -2.15 -0.05 -2.1 Q-0.75 -1.85 -0.95 -2.45 L-0.55 -3.1 -0.5 -3.1 -0.45 -3.15 M-3.15 -6.5 L-3.05 -6.45 -2.85 -6.3 Q-2.75 -5.9 -3.0 -5.65 L-3.85 -5.7 -4.3 -5.8 -4.45 -5.95 -4.6 -6.1 -4.6 -6.25 Q-4.1 -6.6 -3.5 -6.55 L-3.15 -6.5" fill="#ffffff" fill-rule="evenodd" stroke="none"/>
    <path d="M2.25 -8.0 L2.4 -8.05 3.0 -8.0 Q3.6 -7.85 4.1 -7.35 L4.1 -7.15 3.9 -7.15 3.5 -6.95 3.45 -6.95 2.85 -6.3 2.75 -6.15 2.5 -5.9 1.85 -4.7 1.6 -4.5 0.95 -4.6 0.3 -5.0 0.3 -5.05 Q0.15 -5.8 0.35 -6.4 0.45 -6.0 1.0 -6.1 L1.15 -6.2 Q1.45 -6.8 2.0 -7.05 L2.3 -7.4 Q2.45 -7.85 2.25 -8.0 M-0.95 -2.45 Q-0.75 -1.85 -0.05 -2.1 L0.0 -2.15 0.2 -2.45 Q0.45 -3.1 -0.2 -3.2 L-0.45 -3.15 -0.3 -3.25 Q0.4 -3.4 0.65 -2.8 0.95 -2.1 0.3 -1.6 L-0.8 -1.7 -1.0 -2.3 -0.95 -2.45 M-0.45 -3.15 L-0.5 -3.1 -0.55 -3.1 -0.45 -3.15 M-4.3 -5.8 L-3.85 -5.7 -3.0 -5.65 Q-2.75 -5.9 -2.85 -6.3 L-3.05 -6.45 -3.15 -6.5 Q-2.15 -6.3 -2.0 -5.15 L-2.1 -4.75 -2.4 -4.4 -2.95 -4.5 -3.0 -4.6 -3.15 -4.7 -3.4 -5.1 -3.55 -5.25 -3.6 -5.35 Q-4.0 -5.5 -4.3 -5.8" fill="#cccccc" fill-rule="evenodd" stroke="none"/>
  </g>
</svg>
