<?xml version="1.0" encoding="UTF-8" standalone="no"?>
<svg xmlns:xlink="http://www.w3.org/1999/xlink" height="12.0px" width="10.1px" xmlns="http://www.w3.org/2000/svg">
  <g transform="matrix(1.0, 0.0, 0.0, 1.0, 5.4, 7.05)">
    <path d="M0.3 -6.95 L1.75 -7.05 Q2.6 -7.15 3.25 -6.7 L3.4 -6.55 Q4.35 -5.9 4.65 -4.7 4.8 -3.5 4.55 -2.35 L4.5 -1.5 4.4 -1.3 4.45 -1.05 4.45 -0.8 4.4 -0.45 4.35 0.3 3.75 2.25 3.4 2.85 3.1 3.35 2.7 3.9 2.4 4.2 Q1.25 5.1 -0.25 4.95 L-1.1 4.65 Q-2.4 3.85 -3.15 2.6 L-3.3 2.25 -3.65 2.15 -4.65 1.15 -5.0 0.45 -5.2 -0.15 Q-5.45 -1.0 -5.35 -1.95 -5.3 -2.75 -4.9 -3.4 -4.4 -4.3 -3.55 -4.85 L-2.25 -5.35 Q-1.55 -6.05 -0.55 -6.15 L0.15 -6.9 0.3 -6.95 M0.4 -6.6 L0.25 -6.6 0.2 -6.5 0.1 -6.45 0.1 -6.4 -0.1 -6.25 -0.1 -6.2 -0.05 -6.1 0.0 -6.05 -0.1 -6.0 -0.05 -6.0 0.1 -6.05 0.15 -6.05 0.35 -6.05 0.55 -6.05 0.6 -6.05 0.75 -6.0 1.05 -5.9 1.1 -5.9 1.2 -5.85 1.35 -5.7 1.5 -5.4 1.5 -5.3 1.55 -4.9 1.7 -3.9 1.7 -3.7 1.7 -3.6 1.75 -3.3 1.75 -3.0 1.7 -2.1 1.7 -1.9 1.65 -1.15 1.65 -1.1 1.65 -1.0 1.7 -0.9 1.75 -0.85 Q1.5 -1.0 1.55 -1.3 L1.55 -1.55 1.25 -4.45 1.2 -4.75 0.9 -5.5 0.8 -5.6 0.75 -5.6 0.75 -5.65 0.7 -5.7 -0.25 -6.0 -0.35 -6.0 -0.4 -5.95 -0.65 -5.9 -0.7 -5.9 -1.6 -5.5 -1.65 -5.45 -2.1 -5.15 -2.25 -5.0 -2.35 -4.85 -2.35 -4.8 -2.45 -4.85 -2.5 -4.85 -3.2 -4.6 -3.25 -4.55 -3.95 -4.0 -4.0 -3.9 -4.1 -3.85 -4.6 -3.1 -4.7 -2.8 Q-5.1 -1.8 -4.85 -0.55 L-4.75 -0.2 Q-4.45 0.8 -3.6 1.5 L-3.95 -0.05 -3.95 -1.0 -3.9 -1.8 -3.85 -1.85 -3.85 -1.95 -3.85 -2.0 -3.7 -2.15 -3.7 -2.25 -3.7 -2.3 -3.55 -2.4 -3.5 -2.45 -3.5 -2.5 -3.45 -2.45 -3.45 -2.4 -3.5 -2.2 -3.5 -2.15 -3.6 -0.4 -3.4 0.7 -3.05 1.95 -2.8 2.35 -2.35 3.0 Q-1.6 3.9 -0.3 4.4 L0.2 4.5 0.55 4.55 1.65 4.05 2.9 2.8 3.7 1.1 3.85 0.6 3.9 0.45 4.05 0.1 4.1 -0.3 4.1 -0.35 4.15 -0.6 4.15 -0.7 4.1 -1.25 4.1 -1.3 4.1 -1.35 4.05 -1.55 3.3 -0.85 2.7 -0.55 2.5 -0.5 2.4 -0.5 Q2.15 -0.45 2.05 -0.6 L2.0 -0.65 2.05 -0.65 Q3.0 -0.7 3.5 -1.55 L3.6 -1.6 3.7 -1.85 3.9 -2.3 4.05 -2.75 4.15 -2.9 4.15 -2.95 4.15 -3.0 4.15 -3.3 4.0 -5.1 3.9 -5.45 3.8 -5.65 3.75 -5.7 3.75 -5.75 3.45 -6.15 3.1 -6.5 2.95 -6.6 2.55 -6.6 1.3 -6.6 0.75 -6.6 0.45 -6.65 0.4 -6.6" fill="#000000" fill-rule="evenodd" stroke="none"/>
    <path d="M3.9 -2.3 L3.7 -1.85 3.75 -1.9 3.8 -2.1 3.9 -2.35 3.9 -2.3" fill="#a35e43" fill-rule="evenodd" stroke="none"/>
    <path d="M4.15 -2.95 L4.15 -2.9 4.05 -2.75 3.9 -2.3 3.9 -2.35 3.8 -2.1 3.75 -1.9 3.7 -1.85 3.6 -1.6 3.5 -1.55 Q3.0 -0.7 2.05 -0.65 L1.7 -0.95 1.65 -1.05 1.65 -1.15 1.7 -1.9 1.7 -2.1 1.75 -3.0 4.15 -2.95 M-3.95 -0.05 L-3.6 1.5 Q-4.45 0.8 -4.75 -0.2 L-4.45 -0.65 -3.95 -0.5 -3.95 -0.05" fill="#9c9a9c" fill-rule="evenodd" stroke="none"/>
    <path d="M0.2 -6.5 L0.25 -6.6 0.4 -6.6 0.2 -6.5" fill="#666666" fill-rule="evenodd" stroke="none"/>
    <path d="M0.0 -3.6 Q-0.25 -2.3 -1.2 -1.45 -1.3 -1.3 -1.5 -1.3 L-1.7 -1.25 Q-2.55 -1.05 -2.8 -1.8 L-2.8 -2.0 Q-2.75 -3.55 -1.7 -4.65 L-1.25 -4.95 -1.05 -5.05 Q-0.2 -5.15 0.0 -4.25 L0.0 -3.6" fill="#c58770" fill-rule="evenodd" stroke="none"/>
    <path d="M2.05 -0.6 Q2.15 -0.45 2.4 -0.5 L2.5 -0.5 2.65 -0.5 2.7 -0.55 3.3 -0.85 4.05 -1.55 4.1 -1.35 4.1 -1.3 4.1 -1.25 4.15 -0.7 4.15 -0.6 4.1 -0.35 4.1 -0.3 4.05 0.1 3.9 0.45 3.85 0.6 3.7 1.1 2.9 2.8 1.65 4.05 0.55 4.55 0.2 4.5 -0.3 4.4 Q-1.6 3.9 -2.35 3.0 L-2.8 2.35 -3.05 1.95 -3.4 0.7 -3.6 -0.4 -2.95 0.7 -2.7 1.05 -2.0 2.1 1.65 2.15 1.85 2.05 2.1 1.75 2.45 0.7 2.55 0.2 2.4 0.1 Q1.45 0.1 1.7 -0.75 L1.75 -0.85 2.05 -0.6" fill="#71412f" fill-rule="evenodd" stroke="none"/>
    <path d="M0.2 -6.5 L0.4 -6.6 0.45 -6.65 0.75 -6.6 1.3 -6.6 1.0 -6.2 0.95 -5.95 1.05 -5.9 0.75 -6.0 0.6 -6.05 0.55 -6.05 0.35 -6.05 0.15 -6.05 0.1 -6.05 -0.05 -6.0 -0.1 -6.0 0.0 -6.05 -0.05 -6.1 -0.1 -6.2 -0.1 -6.25 0.1 -6.4 0.1 -6.45 0.2 -6.5 M3.1 -6.5 L3.45 -6.15 3.75 -5.75 3.75 -5.7 3.8 -5.65 3.9 -5.45 4.0 -5.1 4.15 -3.3 4.15 -3.0 4.15 -2.95 1.75 -3.0 1.75 -3.3 1.7 -3.6 1.7 -3.7 1.7 -3.9 1.55 -4.9 1.6 -4.9 1.95 -4.75 Q3.05 -4.7 3.3 -5.75 L3.15 -6.4 3.1 -6.5 M-3.55 -2.4 L-3.7 -2.3 -3.7 -2.25 -3.7 -2.15 -3.85 -2.0 -3.85 -1.95 -3.85 -1.85 -3.9 -1.8 -3.95 -1.0 -3.95 -0.05 -3.95 -0.5 -4.45 -0.65 -4.75 -0.2 -4.85 -0.55 Q-5.1 -1.8 -4.7 -2.8 L-4.6 -3.1 -4.2 -2.85 -3.55 -2.9 -3.3 -3.0 -3.35 -2.9 -3.55 -2.4 M-2.5 -4.85 L-2.45 -4.85 -2.35 -4.8 -2.4 -4.8 -2.5 -4.85" fill="#cccccc" fill-rule="evenodd" stroke="none"/>
    <path d="M1.3 -6.6 L2.55 -6.6 2.95 -6.6 3.1 -6.5 3.15 -6.4 3.3 -5.75 Q3.05 -4.7 1.95 -4.75 L1.6 -4.9 1.55 -4.9 1.5 -5.3 1.5 -5.4 1.35 -5.7 1.2 -5.85 1.1 -5.9 1.05 -5.9 0.95 -5.95 1.0 -6.2 1.3 -6.6 M-4.6 -3.1 L-4.1 -3.85 -4.0 -3.9 -3.95 -4.0 -3.25 -4.55 -3.2 -4.6 -2.5 -4.85 -2.4 -4.8 -2.4 -4.75 -2.5 -4.65 -2.5 -4.6 -2.7 -4.25 -2.75 -4.2 -2.8 -4.1 -2.8 -4.05 -3.05 -3.55 -3.3 -3.0 -3.55 -2.9 -4.2 -2.85 -4.6 -3.1" fill="#ffffff" fill-rule="evenodd" stroke="none"/>
    <path d="M-3.6 -0.4 L-3.5 -2.15 -3.5 -2.2 -3.45 -2.4 -3.45 -2.45 -3.5 -2.5 -3.5 -2.45 -3.55 -2.4 -3.35 -2.9 -3.3 -3.0 -3.05 -3.55 -2.8 -4.05 -2.8 -4.1 -2.75 -4.2 -2.7 -4.25 -2.5 -4.6 -2.5 -4.65 -2.4 -4.75 -2.4 -4.8 -2.35 -4.8 -2.35 -4.85 -2.25 -5.0 -2.1 -5.15 -1.65 -5.45 -1.6 -5.5 -0.7 -5.9 -0.65 -5.9 -0.4 -5.95 -0.35 -6.0 -0.25 -6.0 0.7 -5.7 0.75 -5.65 0.75 -5.6 0.8 -5.6 0.9 -5.5 1.2 -4.75 1.25 -4.45 1.55 -1.55 1.55 -1.3 Q1.5 -1.0 1.75 -0.85 L1.7 -0.75 Q1.45 0.1 2.4 0.1 L2.55 0.2 2.45 0.7 2.1 1.75 1.85 2.05 1.65 2.15 -2.0 2.1 -2.7 1.05 -2.95 0.7 -3.6 -0.4 M0.0 -3.6 L0.0 -4.25 Q-0.2 -5.15 -1.05 -5.05 L-1.25 -4.95 -1.7 -4.65 Q-2.75 -3.55 -2.8 -2.0 L-2.8 -1.8 Q-2.55 -1.05 -1.7 -1.25 L-1.5 -1.3 Q-1.3 -1.3 -1.2 -1.45 -0.25 -2.3 0.0 -3.6" fill="#b76c51" fill-rule="evenodd" stroke="none"/>
  </g>
</svg>
