<?xml version="1.0" encoding="UTF-8" standalone="no"?>
<svg xmlns:xlink="http://www.w3.org/1999/xlink" height="15.8px" width="12.5px" xmlns="http://www.w3.org/2000/svg">
  <g transform="matrix(1.0, 0.0, 0.0, 1.0, 5.05, 6.2)">
    <path d="M3.3 -4.05 L3.3 -4.0 3.2 -4.15 3.3 -4.05 M4.75 -0.05 L5.25 -0.05 Q5.6 -0.7 5.6 -1.5 L5.45 -2.35 5.75 -2.0 5.9 -1.85 Q6.7 -1.35 6.85 -0.45 L6.9 -0.35 6.55 -0.4 6.15 0.0 Q5.75 0.75 5.7 1.5 L5.75 2.35 Q5.85 3.0 6.35 3.05 L6.3 3.35 Q6.2 4.25 5.75 5.05 L4.85 6.55 5.1 4.2 5.15 3.45 5.05 2.95 5.3 1.75 Q5.55 1.05 4.9 0.95 L4.75 0.95 4.75 1.1 4.75 0.6 4.8 0.25 4.8 0.15 4.75 -0.05 M3.05 -4.4 L3.05 -4.35 3.15 -4.2 2.95 -4.4 3.05 -4.4 M4.45 0.8 L4.4 1.15 4.3 1.35 4.25 1.25 4.25 1.2 4.3 1.15 4.4 1.0 4.45 0.8 M-0.75 5.15 L-0.9 4.95 -1.15 4.85 -2.0 4.05 -2.45 3.4 -2.7 3.0 -3.05 1.75 -3.15 1.2 -3.0 1.55 -2.6 2.05 Q-1.85 2.8 -0.95 2.7 L-0.9 2.65 -0.9 2.7 -0.75 5.15 M0.7 -2.25 L1.1 -2.2 1.4 -1.9 1.75 -1.1 2.2 0.05 2.2 0.1 2.0 0.0 1.9 0.0 1.85 0.0 1.75 0.15 1.7 0.65 1.9 2.55 1.8 5.2 0.2 5.4 -0.05 5.3 -0.05 4.8 -0.2 2.8 -0.15 1.5 0.1 0.15 0.4 -1.15 0.7 -1.8 0.8 -2.0 0.95 -2.2 0.7 -2.25 M-0.85 1.7 L-0.85 1.95 -0.95 1.9 -0.85 1.7" fill="#999999" fill-rule="evenodd" stroke="none"/>
    <path d="M-2.0 -3.75 L-2.0 -3.8 -1.9 -3.95 -1.75 -4.1 -1.3 -4.4 -1.25 -4.45 -1.1 -4.55 -0.35 -4.85 -0.3 -4.85 -0.1 -4.85 -0.05 -4.9 1.85 -4.55 1.9 -4.55 1.95 -4.5 2.2 -4.4 2.3 -4.35 2.45 -4.3 2.9 -3.95 3.6 -3.3 4.0 -2.65 4.0 -2.5 Q4.05 -1.25 3.35 -0.15 L3.2 0.0 2.45 0.4 2.15 -0.9 1.95 -1.35 Q1.45 -2.7 0.75 -2.7 L0.65 -2.7 0.35 -2.55 0.35 -3.2 -0.05 -3.9 -0.7 -4.0 -0.9 -3.9 -0.95 -3.85 -1.35 -3.6 Q-2.4 -2.5 -2.45 -0.95 L-2.45 -0.75 Q-2.2 0.0 -1.35 -0.2 L-1.15 -0.25 Q-0.95 -0.25 -0.85 -0.4 L-0.75 -0.5 -1.0 0.85 -1.5 0.75 -1.8 0.65 -3.1 -0.15 -3.25 -0.35 -3.25 -0.05 -3.15 -1.1 -3.15 -1.15 -3.1 -1.35 -3.1 -1.4 -3.15 -1.45 -3.15 -1.4 -3.2 -1.35 -3.0 -1.85 -2.95 -1.95 -2.7 -2.5 -2.45 -3.0 -2.45 -3.05 -2.4 -3.15 -2.35 -3.2 -2.15 -3.55 -2.15 -3.6 -2.05 -3.7 -2.05 -3.75 -2.0 -3.75 M1.95 -3.85 L1.9 -3.85 1.95 -3.85" fill="#b76c51" fill-rule="evenodd" stroke="none"/>
    <path d="M3.3 -4.0 L4.2 -2.7 4.5 -2.0 4.5 -1.95 4.7 -1.1 4.75 -0.3 4.75 -0.25 4.75 -0.05 4.8 0.15 4.8 0.25 4.75 0.6 4.75 1.1 4.75 1.25 4.7 1.35 4.25 3.0 4.65 2.8 4.75 2.8 4.9 2.85 5.05 2.95 5.15 3.45 5.1 4.2 4.85 6.55 4.7 7.15 4.65 7.4 5.2 6.8 5.45 6.45 6.65 3.8 6.95 2.7 7.0 2.3 7.05 1.65 6.9 -0.35 6.85 -0.45 Q6.7 -1.35 5.9 -1.85 L5.75 -2.0 5.45 -2.35 4.1 -3.8 3.3 -4.05 3.2 -4.15 3.3 -4.0 M3.05 -4.4 Q4.0 -4.45 4.7 -3.8 L5.85 -2.25 7.0 -1.3 7.3 -0.55 7.4 1.6 6.85 4.5 6.3 5.8 5.65 6.9 4.95 7.6 4.65 7.65 4.6 7.65 4.4 7.4 Q4.25 6.95 4.4 6.5 L4.6 5.6 Q4.55 5.0 4.65 4.45 L4.7 3.95 4.75 3.3 4.35 3.55 3.85 3.8 3.75 3.9 3.45 4.4 3.05 4.95 2.75 5.25 2.6 5.35 2.15 7.8 Q1.55 9.6 0.75 9.6 -0.05 9.6 -0.6 7.8 L-1.1 5.5 Q-2.15 4.75 -2.8 3.65 L-2.95 3.3 -3.3 3.2 -4.3 2.2 -4.65 1.5 -4.85 0.9 Q-5.1 0.05 -5.0 -0.9 -4.95 -1.7 -4.55 -2.35 L-4.45 -2.5 -4.65 -3.05 Q-4.55 -4.35 -3.75 -5.35 -3.2 -6.0 -2.35 -6.15 L-2.15 -6.2 Q-1.05 -6.3 -0.4 -5.4 L-0.2 -5.1 -0.15 -5.2 0.2 -5.2 0.25 -5.2 1.35 -5.05 1.65 -4.95 2.85 -4.45 2.95 -4.4 3.15 -4.2 3.05 -4.35 3.05 -4.4 M4.0 -2.65 L3.6 -3.3 2.9 -3.95 2.45 -4.3 2.3 -4.35 2.2 -4.4 1.95 -4.5 1.9 -4.55 1.85 -4.55 -0.05 -4.9 -0.1 -4.85 -0.3 -4.85 -0.35 -4.85 -1.1 -4.55 -1.25 -4.45 -1.3 -4.4 -1.75 -4.1 -1.9 -3.95 -2.0 -3.8 -2.0 -3.75 -2.1 -3.8 -2.15 -3.8 -2.85 -3.55 -2.9 -3.5 -3.6 -2.95 -3.65 -2.85 -3.75 -2.8 -4.25 -2.05 -4.35 -1.75 Q-4.75 -0.75 -4.5 0.5 L-4.4 0.85 Q-4.1 1.85 -3.25 2.55 L-3.6 1.0 -3.6 0.05 -3.55 -0.75 -3.5 -0.8 -3.5 -0.9 -3.5 -0.95 -3.35 -1.1 -3.35 -1.2 -3.35 -1.25 -3.2 -1.35 -3.15 -1.4 -3.15 -1.45 -3.1 -1.4 -3.1 -1.35 -3.15 -1.15 -3.15 -1.1 -3.25 -0.05 -3.25 0.35 -3.25 0.4 -3.05 0.65 -2.8 0.85 -1.65 1.55 -1.35 1.65 Q-1.1 1.8 -1.25 2.0 L-1.25 2.05 -2.0 1.8 -2.1 1.7 Q-2.45 1.4 -2.85 1.35 L-3.25 0.65 -3.15 1.2 -3.05 1.75 -2.7 3.0 -2.45 3.4 -2.0 4.05 -1.15 4.85 -0.9 4.95 -0.75 5.15 -0.7 5.2 -0.7 5.6 -0.7 5.65 -0.65 6.25 -0.55 6.4 Q-0.2 7.85 0.5 9.1 L0.55 9.1 0.65 9.15 0.7 9.2 0.8 9.2 0.9 9.2 2.0 6.65 2.25 5.5 Q2.3 5.0 2.6 4.7 L2.6 4.65 2.7 4.5 2.75 4.5 3.25 3.85 4.05 2.15 4.15 1.95 4.2 1.65 4.25 1.5 4.3 1.35 4.4 1.15 4.45 0.8 4.45 0.7 4.5 0.45 4.5 0.35 4.45 -0.2 4.45 -0.25 4.45 -0.3 4.45 -0.4 4.5 -0.75 4.5 -0.85 4.45 -1.35 4.25 -2.2 4.0 -2.7 4.0 -2.65 M-1.0 0.85 L-0.75 -0.5 -0.6 -0.9 -0.55 -1.05 -0.1 -2.05 0.35 -2.55 0.65 -2.7 0.75 -2.7 Q1.45 -2.7 1.95 -1.35 L2.15 -0.9 2.45 0.4 2.5 0.55 2.65 1.75 2.9 1.65 3.8 1.35 4.3 1.15 4.25 1.2 4.25 1.25 3.75 1.75 Q3.25 2.15 2.65 2.15 L2.65 2.05 Q2.3 1.9 2.35 1.45 L2.35 0.8 2.25 0.1 2.2 0.1 2.2 0.05 1.75 -1.1 1.4 -1.9 1.1 -2.2 0.7 -2.25 -0.2 -1.05 -0.35 -0.75 -0.8 1.4 -0.85 1.7 -0.95 1.9 -0.95 2.0 -1.0 2.0 -1.15 2.0 -1.0 0.85 M-2.4 -4.15 L-2.5 -4.1 -2.05 -4.25 -1.9 -4.3 -1.2 -4.8 -0.35 -5.1 -0.75 -5.55 -1.3 -5.85 -2.15 -5.9 -2.5 -5.8 -2.8 -5.65 -3.75 -4.8 -4.05 -4.1 -4.15 -3.65 -4.2 -3.4 -4.2 -2.85 -3.75 -3.35 -3.2 -3.8 -3.15 -3.8 -2.85 -3.95 -2.4 -4.15" fill="#000000" fill-rule="evenodd" stroke="none"/>
    <path d="M4.15 1.95 L4.05 2.15 3.25 3.85 2.75 4.5 2.7 4.5 2.6 4.65 2.6 4.7 Q2.3 5.0 2.25 5.5 L2.0 6.65 0.9 9.2 0.8 9.2 0.7 9.2 0.65 9.15 0.55 9.1 0.5 9.1 Q-0.2 7.85 -0.55 6.4 L-0.65 6.25 -0.7 5.65 -0.3 6.7 -0.1 6.65 -0.05 6.65 0.0 6.0 -0.05 5.3 0.2 5.4 1.8 5.2 1.9 2.55 1.7 0.65 1.75 0.15 1.85 0.0 1.9 0.0 2.0 0.0 2.2 0.1 2.25 0.1 2.35 0.8 2.35 1.45 Q2.3 1.9 2.65 2.05 L2.55 2.0 Q2.35 2.2 2.55 2.45 L2.6 2.5 2.9 2.6 Q3.6 2.45 4.1 1.95 L4.15 1.95 M6.95 2.7 L6.65 3.8 5.45 6.45 5.2 6.8 4.65 7.4 4.7 7.15 4.85 6.55 5.75 5.05 Q6.2 4.25 6.3 3.35 L6.35 3.05 6.7 3.0 6.95 2.7 M5.05 2.95 L4.9 2.85 4.75 2.8 4.65 2.8 4.25 3.0 4.7 1.35 4.75 1.25 4.75 1.1 4.75 0.95 4.9 0.95 Q5.55 1.05 5.3 1.75 L5.05 2.95" fill="#666666" fill-rule="evenodd" stroke="none"/>
    <path d="M3.3 -4.0 L3.3 -4.05 4.1 -3.8 5.45 -2.35 5.6 -1.5 Q5.6 -0.7 5.25 -0.05 L4.75 -0.05 4.75 -0.25 4.75 -0.3 4.7 -1.1 4.5 -1.95 4.5 -2.0 4.2 -2.7 3.3 -4.0 M-2.0 -3.75 L-2.05 -3.75 -2.15 -3.8 -2.1 -3.8 -2.0 -3.75 M-2.95 -1.95 L-3.0 -1.85 -3.2 -1.35 -3.35 -1.25 -3.35 -1.2 -3.35 -1.1 -3.5 -0.95 -3.5 -0.9 -3.5 -0.8 -3.55 -0.75 -3.6 0.05 -3.6 1.0 -3.6 0.55 Q-3.8 0.4 -4.1 0.4 L-4.4 0.85 -4.5 0.5 Q-4.75 -0.75 -4.35 -1.75 L-4.25 -2.05 -3.85 -1.8 -3.2 -1.85 -2.95 -1.95 M4.3 1.35 L4.25 1.5 4.2 1.65 4.15 1.95 4.1 1.95 Q3.6 2.45 2.9 2.6 L2.6 2.5 2.55 2.45 Q2.35 2.2 2.55 2.0 L2.65 2.05 2.65 2.15 Q3.25 2.15 3.75 1.75 L4.25 1.25 4.3 1.35 M-0.7 5.65 L-0.7 5.6 -0.7 5.2 -0.75 5.15 -0.9 2.7 -0.9 2.65 -0.95 2.7 Q-1.85 2.8 -2.6 2.05 L-3.0 1.55 -3.15 1.2 -3.25 0.65 -2.85 1.35 Q-2.45 1.4 -2.1 1.7 L-2.0 1.8 -1.25 2.05 -1.15 2.05 -1.15 2.0 -1.0 2.0 -0.95 2.0 -0.95 1.9 -0.85 1.95 -0.85 1.7 -0.8 1.4 -0.35 -0.75 -0.2 -1.05 0.7 -2.25 0.95 -2.2 0.8 -2.0 0.7 -1.8 0.4 -1.15 0.1 0.15 -0.15 1.5 -0.2 2.8 -0.05 4.8 -0.05 5.3 0.0 6.0 -0.05 6.65 -0.1 6.65 -0.3 6.7 -0.7 5.65 M1.95 -3.85 L1.9 -3.85 1.95 -3.85 M6.9 -0.35 L7.05 1.65 7.0 2.3 6.95 2.7 6.7 3.0 6.35 3.05 Q5.85 3.0 5.75 2.35 L5.7 1.5 Q5.75 0.75 6.15 0.0 L6.55 -0.4 6.9 -0.35" fill="#cccccc" fill-rule="evenodd" stroke="none"/>
    <path d="M4.05 -0.8 L4.1 -0.85 4.15 -1.05 4.25 -1.3 4.25 -1.25 4.05 -0.8" fill="#a35e43" fill-rule="evenodd" stroke="none"/>
    <path d="M-0.75 -0.5 L-0.85 -0.4 Q-0.95 -0.25 -1.15 -0.25 L-1.35 -0.2 Q-2.2 0.0 -2.45 -0.75 L-2.45 -0.95 Q-2.4 -2.5 -1.35 -3.6 L-0.95 -3.85 -0.9 -3.9 -0.7 -4.0 -0.05 -3.9 0.35 -3.2 0.35 -2.55 -0.1 -2.05 -0.55 -1.05 -0.6 -0.9 -0.75 -0.5" fill="#c58770" fill-rule="evenodd" stroke="none"/>
    <path d="M-2.05 -3.75 L-2.05 -3.7 -2.15 -3.6 -2.15 -3.55 -2.35 -3.2 -2.4 -3.15 -2.45 -3.05 -2.45 -3.0 -2.7 -2.5 -2.95 -1.95 -3.2 -1.85 -3.85 -1.8 -4.25 -2.05 -3.75 -2.8 -3.65 -2.85 -3.6 -2.95 -2.9 -3.5 -2.85 -3.55 -2.15 -3.8 -2.05 -3.75" fill="#ffffff" fill-rule="evenodd" stroke="none"/>
    <path d="M-4.4 0.85 L-4.1 0.4 Q-3.8 0.4 -3.6 0.55 L-3.6 1.0 -3.25 2.55 Q-4.1 1.85 -4.4 0.85" fill="#9c9a9c" fill-rule="evenodd" stroke="none"/>
    <path d="M-1.3 -5.85 Q-1.3 -5.0 -2.0 -4.45 L-2.4 -4.15 -2.85 -3.95 -4.05 -4.1 -3.75 -4.8 -3.65 -4.5 -3.45 -4.3 Q-2.85 -4.1 -2.35 -4.6 -1.95 -4.95 -2.2 -5.45 L-2.5 -5.8 -2.15 -5.9 -1.3 -5.85" fill="#ff0000" fill-rule="evenodd" stroke="none"/>
    <path d="M-3.75 -4.8 L-2.8 -5.65 -2.5 -5.8 -2.2 -5.45 Q-1.95 -4.95 -2.35 -4.6 -2.85 -4.1 -3.45 -4.3 L-3.65 -4.5 -3.75 -4.8" fill="#ff6600" fill-rule="evenodd" stroke="none"/>
    <path d="M-1.3 -5.85 L-0.75 -5.55 -0.35 -5.1 -1.2 -4.8 -1.9 -4.3 -2.05 -4.25 -2.5 -4.1 -2.4 -4.15 -2.0 -4.45 Q-1.3 -5.0 -1.3 -5.85 M-2.85 -3.95 L-3.15 -3.8 -3.2 -3.8 -3.75 -3.35 -4.2 -2.85 -4.2 -3.4 -4.15 -3.65 -4.05 -4.1 -2.85 -3.95" fill="#990000" fill-rule="evenodd" stroke="none"/>
    <path d="M-3.25 -0.05 L-3.25 -0.35 -3.1 -0.15 -1.8 0.65 -1.5 0.75 -1.0 0.85 -1.15 2.0 -1.15 2.05 -1.25 2.05 -1.25 2.0 Q-1.1 1.8 -1.35 1.65 L-1.65 1.55 -2.8 0.85 -3.05 0.65 -3.25 0.4 -3.25 0.35 -3.25 -0.05 M2.45 0.4 L3.2 0.0 3.35 -0.15 Q4.05 -1.25 4.0 -2.5 L4.0 -2.65 4.0 -2.7 4.25 -2.2 4.45 -1.35 4.5 -0.85 4.5 -0.75 4.45 -0.4 4.45 -0.3 4.45 -0.25 4.45 -0.2 4.5 0.35 4.5 0.45 4.45 0.7 4.45 0.8 4.4 1.0 4.3 1.15 3.8 1.35 2.9 1.65 2.65 1.75 2.5 0.55 2.45 0.4 M4.05 -0.8 L4.25 -1.25 4.25 -1.3 4.15 -1.05 4.1 -0.85 4.05 -0.8 M2.85 0.55 L3.0 0.55 3.05 0.5 2.85 0.55" fill="#71412f" fill-rule="evenodd" stroke="none"/>
  </g>
</svg>
