<?xml version="1.0" encoding="UTF-8" standalone="no"?>
<svg xmlns:xlink="http://www.w3.org/1999/xlink" height="17.1px" width="15.05px" xmlns="http://www.w3.org/2000/svg">
  <g transform="matrix(1.0, 0.0, 0.0, 1.0, 6.1, 5.35)">
    <path d="M4.8 -0.65 Q5.35 -0.3 5.95 0.1 L6.0 0.1 6.35 0.55 7.25 0.8 7.5 0.8 7.9 0.65 8.0 0.45 8.05 0.5 8.6 1.5 8.25 1.1 8.1 1.05 6.9 1.1 6.85 1.0 6.05 0.5 6.05 0.55 6.0 0.55 5.95 0.6 5.8 0.8 5.8 1.1 6.05 1.65 5.1 1.8 4.9 1.3 4.7 1.0 3.1 0.65 3.05 0.7 Q2.95 0.75 3.0 0.85 L2.75 1.95 2.6 2.5 2.4 3.45 2.25 3.8 2.2 4.0 2.0 3.95 1.95 3.95 1.35 3.95 0.7 4.0 Q0.15 4.0 -0.25 4.3 L-0.45 3.8 -0.5 3.7 -0.5 3.15 -0.4 2.3 Q-0.3 1.25 -0.95 0.75 L-1.3 1.25 -1.9 1.1 -1.95 1.1 -2.0 1.15 -2.1 1.2 Q-2.4 1.5 -2.35 2.0 L-2.3 2.05 -3.35 2.15 -3.6 2.6 -3.65 2.65 -3.7 2.5 -3.65 2.2 -3.6 1.2 -3.55 0.3 -3.4 0.6 -3.0 0.85 -2.5 0.8 -2.35 0.75 Q-2.0 0.65 -1.95 0.2 L-1.95 -0.1 -1.95 -0.4 -1.75 -0.85 -0.9 -2.7 -0.65 -2.8 -0.25 -2.8 -0.15 -2.8 0.2 -2.8 Q1.8 -2.95 3.2 -1.95 L3.1 -0.85 Q3.05 -0.55 3.25 -0.4 3.65 -0.15 4.0 -0.4 4.5 -0.15 4.8 -0.65 M8.65 1.65 L8.75 2.0 8.75 2.1 8.7 2.1 8.65 1.65 M1.35 -1.7 Q1.65 -2.4 1.05 -2.55 0.8 -2.55 0.7 -2.3 0.45 -1.65 1.05 -1.55 1.2 -1.5 1.35 -1.7 M0.65 -0.25 Q0.4 -0.25 0.3 0.0 0.05 0.45 0.45 0.7 L0.8 0.65 Q1.25 0.0 0.65 -0.25 M-0.8 -0.3 L-0.6 -0.65 Q-0.4 -1.5 -1.2 -1.55 L-1.45 -1.1 Q-1.65 -0.1 -0.8 -0.3 M-5.75 1.95 L-5.65 2.3 -5.7 2.4 -5.75 1.95" fill="#009900" fill-rule="evenodd" stroke="none"/>
    <path d="M-4.7 8.7 L-5.2 8.7 -5.4 8.65 Q-5.85 8.15 -5.95 7.35 L-6.0 7.0 Q-6.2 5.7 -5.9 4.4 L-5.55 3.65 -4.8 2.85 -5.4 0.8 Q-5.75 0.0 -5.2 -0.7 L-5.1 -1.0 -4.8 -2.05 -5.1 -2.5 Q-5.65 -2.85 -5.9 -3.5 L-5.9 -3.6 -5.75 -4.25 -5.45 -4.8 -5.2 -4.95 -4.7 -5.2 Q-3.95 -5.15 -3.6 -4.3 L-3.55 -4.1 -3.55 -4.0 -3.3 -3.65 -3.3 -3.6 -3.25 -3.5 -3.1 -3.45 -3.05 -3.25 -3.0 -3.15 -2.9 -3.2 -2.65 -3.65 -2.6 -3.7 -2.05 -4.85 -1.95 -5.0 Q-1.2 -5.45 -0.3 -5.35 0.6 -5.35 1.35 -4.7 L1.6 -4.45 2.9 -3.95 3.1 -3.75 3.15 -3.6 4.35 -2.55 4.65 -2.3 4.9 -1.8 5.15 -0.5 6.35 -0.45 7.3 -0.55 8.1 -0.25 8.25 -0.05 8.65 0.7 8.9 1.6 8.95 1.75 8.95 2.05 8.85 2.2 8.8 2.35 7.9 2.25 7.65 2.1 7.55 2.1 7.5 2.1 7.45 2.1 7.25 2.4 6.6 2.8 6.6 3.75 Q6.5 4.7 5.85 5.05 L5.8 5.1 5.4 5.6 4.75 6.15 4.0 6.75 Q3.95 7.2 4.2 7.6 L4.25 7.75 4.6 9.95 4.55 10.6 4.0 11.3 2.1 11.75 1.9 11.7 1.1 10.95 1.0 10.75 1.0 10.45 1.0 10.4 0.95 10.35 0.95 10.3 0.85 10.35 0.3 11.15 -0.45 11.1 -0.65 10.75 -1.05 10.7 -1.15 10.8 -2.35 10.65 -2.6 10.35 -2.65 10.3 Q-3.2 10.1 -3.2 9.45 L-3.2 9.1 -3.1 7.6 -3.1 7.45 -3.25 6.8 -3.4 6.15 -3.95 6.05 Q-3.75 7.0 -3.8 8.0 L-3.9 8.25 -3.95 8.35 -4.2 8.7 -4.25 8.7 -4.7 8.7 M-4.1 -4.15 L-4.75 -4.8 -5.15 -4.8 -5.2 -4.75 -5.4 -4.55 -5.6 -4.1 -5.75 -3.65 -4.5 -2.5 -4.55 -1.8 -4.6 -1.4 Q-4.8 -0.5 -5.3 0.3 L-4.8 1.4 Q-4.45 2.25 -4.4 3.1 L-4.7 3.5 -5.15 3.95 -5.5 4.75 -5.7 6.25 -5.6 6.7 -5.3 8.25 -4.7 8.6 -4.6 8.55 -4.3 8.4 -4.15 8.25 Q-4.1 7.75 -4.2 7.3 L-4.35 6.7 -4.2 5.5 -3.45 5.3 -2.75 6.2 -2.85 6.7 -2.7 7.75 -2.75 8.05 Q-2.95 8.8 -2.8 9.5 L-2.75 9.65 -2.75 9.8 -2.7 9.9 -2.35 10.3 Q-1.55 10.5 -0.65 10.3 L-0.6 10.3 -0.55 10.25 Q-0.35 10.75 0.15 10.65 L0.35 10.35 0.4 10.0 0.45 9.95 0.5 9.95 0.55 9.95 0.65 9.85 1.4 10.25 1.55 11.05 1.75 11.25 Q2.7 11.5 3.6 10.95 L3.95 10.35 Q4.15 9.4 3.85 8.5 L3.7 7.9 3.6 6.9 3.6 6.65 Q3.8 6.2 4.1 5.9 4.6 5.15 5.25 4.95 L5.35 4.9 5.85 4.7 5.9 4.5 6.25 3.6 6.45 2.85 6.5 2.75 6.55 2.6 6.6 2.4 7.7 1.85 8.0 2.0 8.4 2.2 8.45 2.2 8.7 2.1 8.75 2.1 8.75 2.0 8.65 1.65 8.65 1.6 8.65 1.55 8.6 1.5 8.05 0.5 8.0 0.45 7.85 0.2 7.4 -0.05 6.85 -0.1 6.0 0.1 5.95 0.1 Q5.35 -0.3 4.8 -0.65 L4.65 -0.75 4.7 -1.3 4.65 -1.55 4.35 -2.05 3.8 -2.8 3.3 -3.25 2.5 -3.55 2.3 -3.75 1.9 -4.1 1.35 -4.35 1.3 -4.35 Q0.25 -4.8 -0.95 -4.9 L-1.6 -4.45 -1.85 -4.4 -2.95 -2.75 -3.0 -2.7 -3.3 -2.75 -3.3 -2.8 -3.35 -3.1 Q-3.55 -3.75 -4.0 -4.05 L-4.1 -4.15" fill="#000000" fill-rule="evenodd" stroke="none"/>
    <path d="M8.85 2.2 L8.9 2.55 Q8.8 3.15 8.3 2.9 L8.05 2.7 7.65 2.1 7.9 2.25 8.8 2.35 8.85 2.2 M7.55 2.1 L7.45 2.1 7.5 2.1 7.55 2.1 M-3.2 9.1 L-3.25 8.8 -3.3 8.3 Q-3.5 7.5 -3.25 6.8 L-3.1 7.45 -3.1 7.6 -3.2 9.1 M-3.9 8.25 L-3.95 8.7 -4.1 8.95 Q-4.5 9.15 -4.7 8.7 L-4.25 8.7 -4.2 8.7 -3.95 8.35 -3.9 8.25 M8.6 1.5 L8.65 1.55 8.65 1.6 8.65 1.65 8.7 2.1 8.45 2.2 8.4 2.2 8.0 2.0 7.7 1.85 6.6 2.4 6.55 2.6 6.5 2.75 6.45 2.85 6.25 3.6 5.9 4.5 5.85 4.7 5.35 4.9 5.25 4.95 Q4.6 5.15 4.1 5.9 3.8 6.2 3.6 6.65 L3.6 6.9 3.7 7.9 3.85 8.5 Q4.15 9.4 3.95 10.35 L3.6 10.95 Q2.7 11.5 1.75 11.25 L1.55 11.05 1.4 10.25 0.65 9.85 0.55 9.95 0.5 9.95 0.45 9.95 0.4 10.0 0.35 10.35 0.15 10.65 Q-0.35 10.75 -0.55 10.25 L-0.6 10.3 -0.65 10.3 Q-1.55 10.5 -2.35 10.3 L-2.7 9.9 -2.75 9.8 -2.75 9.65 -2.8 9.5 Q-2.95 8.8 -2.75 8.05 L-2.7 7.75 -2.85 6.7 -2.75 6.2 -3.45 5.3 -4.2 5.5 -4.35 6.7 -4.2 7.3 Q-4.1 7.75 -4.15 8.25 L-4.3 8.4 -4.6 8.55 -4.7 8.1 -4.7 8.0 Q-5.0 7.05 -4.8 6.05 L-4.75 5.35 Q-4.75 4.95 -4.4 4.85 L-4.2 4.75 -4.2 4.6 -4.05 4.3 -4.0 4.25 -4.05 3.95 -4.0 3.6 -3.95 3.6 -3.8 2.9 -3.65 2.65 -3.6 2.6 -3.35 2.15 -2.3 2.05 Q-2.1 2.95 -1.3 2.6 L-1.15 2.15 Q-1.0 1.45 -1.3 1.25 L-0.95 0.75 Q-0.3 1.25 -0.4 2.3 L-0.5 3.15 -0.5 3.7 -0.45 3.8 -0.25 4.3 Q0.15 4.0 0.7 4.0 L1.35 3.95 1.95 3.95 2.0 3.95 2.2 4.0 2.25 3.8 2.4 3.45 2.6 2.5 2.75 1.95 3.0 0.85 Q2.95 0.75 3.05 0.7 L3.1 0.65 4.7 1.0 4.9 1.3 5.1 1.8 6.05 1.65 5.8 1.1 5.8 0.8 5.95 0.6 6.0 0.55 6.05 0.55 6.05 0.5 6.85 1.0 6.9 1.1 8.1 1.05 8.25 1.1 8.6 1.5" fill="#006600" fill-rule="evenodd" stroke="none"/>
    <path d="M-4.1 -4.15 L-4.0 -4.05 Q-3.55 -3.75 -3.35 -3.1 L-3.3 -2.8 -3.3 -2.75 -3.0 -2.7 -2.95 -2.75 -1.85 -4.4 -1.6 -4.45 -0.95 -4.9 Q0.25 -4.8 1.3 -4.35 L1.35 -4.35 1.9 -4.1 2.3 -3.75 2.5 -3.55 3.3 -3.25 3.8 -2.8 4.35 -2.05 4.65 -1.55 4.7 -1.3 4.65 -0.75 4.8 -0.65 Q4.5 -0.15 4.0 -0.4 3.65 -0.15 3.25 -0.4 3.05 -0.55 3.1 -0.85 L3.2 -1.95 Q1.8 -2.95 0.2 -2.8 L0.35 -3.0 Q0.65 -3.75 0.0 -3.9 L-0.4 -3.5 Q-0.5 -2.95 -0.15 -2.8 L-0.25 -2.8 -0.65 -2.8 -0.9 -2.7 -1.75 -0.85 -1.95 -0.4 -2.05 -0.55 Q-2.35 -1.2 -2.95 -1.05 L-3.55 0.0 -3.55 0.3 -3.6 1.2 -3.65 2.2 -3.7 2.5 -3.65 2.65 -3.8 2.9 -3.95 3.6 -4.0 3.6 -4.05 3.95 -4.0 4.25 -4.05 4.3 -4.2 4.6 -4.2 4.75 -4.4 4.85 Q-4.75 4.95 -4.75 5.35 L-4.8 6.05 Q-5.0 7.05 -4.7 8.0 L-4.7 8.1 -4.6 8.55 -4.7 8.6 -5.3 8.25 -5.6 6.7 -5.7 6.25 -5.5 4.75 -5.15 3.95 -4.7 3.5 -4.4 3.1 Q-4.45 2.25 -4.8 1.4 L-5.3 0.3 Q-4.8 -0.5 -4.6 -1.4 L-4.55 -1.8 -4.5 -2.5 -5.75 -3.65 -5.4 -3.35 -5.0 -4.1 -4.1 -4.15 M6.0 0.1 L6.85 -0.1 7.4 -0.05 7.35 -0.05 Q7.05 0.05 7.1 0.4 L7.25 0.8 6.35 0.55 6.0 0.1 M7.85 0.2 L8.0 0.45 7.9 0.65 7.9 0.6 7.85 0.25 7.85 0.2 M-4.2 -1.65 L-4.3 -1.55 -4.7 -1.0 -4.7 -0.25 -4.5 -0.05 Q-3.9 0.0 -3.6 -0.7 -3.4 -1.25 -3.7 -1.55 L-4.2 -1.65 M-1.95 -3.4 Q-2.4 -3.2 -2.4 -2.6 L-2.3 -2.2 Q-2.0 -1.7 -1.45 -2.05 -0.85 -2.45 -1.2 -3.1 L-1.45 -3.3 -1.95 -3.4" fill="#99cc00" fill-rule="evenodd" stroke="none"/>
    <path d="M-5.75 -3.65 L-5.6 -4.1 -5.4 -4.55 -5.2 -4.75 -5.15 -4.8 -4.75 -4.8 -4.1 -4.15 -5.0 -4.1 -5.4 -3.35 -5.75 -3.65 M7.4 -0.05 L7.85 0.2 7.85 0.25 7.9 0.6 7.9 0.65 7.5 0.8 7.25 0.8 7.1 0.4 Q7.05 0.05 7.35 -0.05 L7.4 -0.05 M-1.95 -3.4 L-1.45 -3.3 -1.2 -3.1 Q-0.85 -2.45 -1.45 -2.05 -2.0 -1.7 -2.3 -2.2 L-2.4 -2.6 Q-2.4 -3.2 -1.95 -3.4 M-4.2 -1.65 L-3.7 -1.55 Q-3.4 -1.25 -3.6 -0.7 -3.9 0.0 -4.5 -0.05 L-4.7 -0.25 -4.7 -1.0 -4.3 -1.55 -4.2 -1.65 M-3.55 0.3 L-3.55 0.0 -2.95 -1.05 Q-2.35 -1.2 -2.05 -0.55 L-1.95 -0.4 -1.95 -0.1 -1.95 0.2 Q-2.0 0.65 -2.35 0.75 L-2.5 0.8 -3.0 0.85 -3.4 0.6 -3.55 0.3 M-0.15 -2.8 Q-0.5 -2.95 -0.4 -3.5 L0.0 -3.9 Q0.65 -3.75 0.35 -3.0 L0.2 -2.8 -0.15 -2.8 M-2.3 2.05 L-2.35 2.0 Q-2.4 1.5 -2.1 1.2 L-2.0 1.15 -1.95 1.1 -1.9 1.1 -1.3 1.25 Q-1.0 1.45 -1.15 2.15 L-1.3 2.6 Q-2.1 2.95 -2.3 2.05 M-0.8 -0.3 Q-1.65 -0.1 -1.45 -1.1 L-1.2 -1.55 Q-0.4 -1.5 -0.6 -0.65 L-0.8 -0.3 M0.65 -0.25 Q1.25 0.0 0.8 0.65 L0.45 0.7 Q0.05 0.45 0.3 0.0 0.4 -0.25 0.65 -0.25 M1.35 -1.7 Q1.2 -1.5 1.05 -1.55 0.45 -1.65 0.7 -2.3 0.8 -2.55 1.05 -2.55 1.65 -2.4 1.35 -1.7" fill="#ccff00" fill-rule="evenodd" stroke="none"/>
  </g>
</svg>
