<?xml version="1.0" encoding="UTF-8" standalone="no"?>
<svg xmlns:xlink="http://www.w3.org/1999/xlink" height="14.6px" width="11.6px" xmlns="http://www.w3.org/2000/svg">
  <g transform="matrix(1.0, 0.0, 0.0, 1.0, 5.8, 7.85)">
    <path d="M1.0 -5.75 L0.8 -5.8 0.75 -7.2 0.3 -7.35 0.0 -7.25 -0.1 -7.2 -0.15 -7.1 -0.35 -6.6 -0.85 -6.75 -1.0 -6.65 -1.2 -6.4 Q-0.95 -5.9 -1.75 -5.85 L-2.3 -5.85 -2.35 -5.7 Q-2.45 -5.25 -1.9 -4.95 L-1.4 -4.4 -1.45 -4.4 Q-1.7 -4.15 -1.45 -3.6 L-1.05 -3.2 -1.7 -2.35 -2.05 -1.85 -1.95 -1.7 -1.4 -0.65 -1.4 -0.6 -1.4 -0.5 -1.7 -0.2 -1.95 -0.15 -2.1 0.1 Q-2.15 0.5 -1.85 0.7 L-1.6 0.8 -1.45 0.85 -1.4 0.85 -1.65 2.15 -1.1 2.8 -1.05 2.95 -1.1 2.95 -1.55 3.45 -2.05 3.35 Q-3.8 1.8 -4.0 -0.15 L-4.0 -1.05 -3.75 -2.5 -4.1 -1.9 -4.2 -1.75 -4.4 -1.85 -5.05 -2.05 -5.1 -1.9 -4.75 -0.85 -4.7 -0.8 Q-4.95 0.6 -4.4 1.9 L-4.35 2.0 Q-4.35 2.75 -5.0 3.7 L-5.05 3.9 -5.0 3.95 Q-4.55 4.55 -3.75 4.2 L-2.75 3.75 Q-1.6 4.25 -0.9 5.15 L-0.6 5.6 Q-0.15 6.4 0.6 6.5 L1.0 6.45 1.05 6.4 Q1.65 4.05 3.95 3.5 L4.55 3.35 5.4 3.25 5.45 2.9 Q5.45 2.55 5.05 2.3 4.55 2.0 4.45 1.5 L4.45 1.45 4.55 0.85 4.75 0.35 4.65 -0.05 4.7 0.0 4.65 -0.3 4.6 -0.35 4.9 -1.0 5.35 -2.35 Q5.55 -3.0 4.95 -3.05 L3.6 -2.85 3.65 -2.75 3.55 -2.8 3.3 -2.75 3.0 -3.15 1.8 -4.45 1.75 -4.35 1.75 -4.2 2.25 -3.5 2.65 -2.85 2.75 -2.15 2.75 -1.5 2.6 0.0 2.45 0.8 2.4 1.45 2.45 1.5 2.65 1.55 2.7 1.55 3.25 0.05 3.55 -0.95 3.55 -1.3 3.5 -1.55 Q3.3 -2.1 3.4 -2.6 L3.5 -2.45 3.5 -2.4 3.6 -2.1 3.65 -2.0 3.7 -1.85 3.8 -1.6 3.8 -1.5 3.8 -1.45 3.9 0.0 3.8 -0.05 3.7 0.0 Q3.45 0.05 3.5 0.15 3.4 1.4 2.75 2.4 L2.65 2.35 2.05 2.1 1.9 1.9 2.25 1.45 2.15 0.8 2.45 0.35 2.25 -1.85 2.3 -1.85 2.5 -2.5 2.45 -2.6 2.4 -2.75 2.05 -3.2 1.8 -3.7 1.3 -3.75 1.3 -4.2 1.3 -4.25 1.45 -4.6 1.5 -4.7 1.55 -4.75 1.65 -4.9 1.75 -4.95 1.75 -5.4 1.7 -5.7 1.65 -5.7 1.0 -5.75 M-3.0 4.35 L-3.35 4.35 -3.4 4.4 -4.0 4.45 -4.2 4.55 -4.2 4.5 -4.5 4.55 -4.55 4.5 -4.65 4.55 -4.9 4.65 -4.9 4.7 -5.15 4.65 -5.3 4.6 -5.55 4.35 -5.15 3.0 -4.55 2.15 -4.85 1.5 Q-5.25 0.6 -5.05 -0.45 L-5.05 -0.75 -5.75 -1.95 -5.8 -2.35 -4.85 -2.4 -4.3 -2.3 -3.75 -2.95 -3.75 -3.0 -3.75 -3.05 -3.35 -3.6 -3.15 -3.8 -2.7 -4.25 -2.6 -4.3 -2.45 -4.5 -2.4 -4.55 -2.4 -4.75 -2.55 -5.05 -2.85 -5.3 -2.8 -5.6 -2.8 -5.75 Q-2.55 -6.15 -1.95 -6.15 L-1.7 -6.1 -1.65 -6.45 -1.1 -7.45 -0.2 -7.15 0.0 -7.6 0.3 -7.85 Q0.75 -7.9 0.9 -7.55 L1.2 -7.3 1.25 -6.9 1.55 -6.25 1.6 -6.1 2.05 -6.0 2.2 -5.9 2.1 -5.15 2.15 -4.85 2.05 -4.7 2.45 -4.35 2.8 -3.95 3.35 -3.15 3.75 -3.2 5.0 -3.25 5.05 -3.3 Q5.8 -3.25 5.65 -2.5 L5.1 0.35 4.95 0.95 5.05 1.15 5.7 2.45 5.8 3.3 5.65 3.7 4.6 3.8 3.7 3.75 2.8 4.2 2.7 4.2 2.45 4.35 1.05 6.6 0.85 6.75 Q-0.25 6.8 -1.05 6.0 L-2.25 4.7 -2.4 4.5 -2.8 4.4 -2.95 4.3 -3.0 4.35 M3.35 -3.15 L3.35 -2.95 3.4 -2.85 3.4 -2.9 3.45 -3.0 3.35 -3.15 M-2.1 -1.3 L-1.95 -2.4 -1.55 -2.85 -1.45 -2.95 -1.75 -3.95 -1.65 -4.4 -1.7 -4.55 -1.85 -4.45 -2.05 -4.3 -3.3 -3.1 -3.3 -3.05 -3.6 -2.7 -3.6 -2.45 -3.7 -1.8 -3.7 -0.3 -3.4 0.85 -3.4 0.9 -2.1 3.0 -1.6 2.9 -1.8 1.7 -1.8 1.1 -1.8 1.05 Q-2.3 0.55 -2.2 0.05 L-1.9 -0.55 -1.8 -0.7 -2.1 -1.3" fill="#000000" fill-rule="evenodd" stroke="none"/>
    <path d="M3.8 -1.45 L3.8 -1.5 3.8 -1.45" fill="#333366" fill-rule="evenodd" stroke="none"/>
    <path d="M4.4 1.2 L4.45 1.2 4.4 1.2" fill="#0033cc" fill-rule="evenodd" stroke="none"/>
    <path d="M-4.7 -0.8 L-4.75 -0.85 -4.7 -0.85 -4.7 -0.8 M3.8 -1.5 L3.85 -1.4 3.8 -1.45 3.8 -1.5" fill="#660000" fill-rule="evenodd" stroke="none"/>
    <path d="M-3.0 4.35 L-2.95 4.3 -2.8 4.4 -3.0 4.35" fill="#ff3300" fill-rule="evenodd" stroke="none"/>
    <path d="M3.55 -1.3 L3.55 -0.95 3.25 0.05 2.6 0.0 2.75 -1.5 Q3.0 -1.2 3.4 -1.2 L3.5 -1.25 3.55 -1.3 M-3.7 -0.3 L-3.15 -0.65 -2.85 -0.85 -2.1 -1.3 -1.8 -0.7 -1.9 -0.55 -2.2 0.05 -2.15 0.6 -3.3 1.0 -3.4 0.9 -3.4 0.85 -3.7 -0.3" fill="#e3b18b" fill-rule="evenodd" stroke="none"/>
    <path d="M0.0 -7.25 L0.3 -7.35 0.75 -7.2 0.8 -5.8 1.0 -5.75 0.95 -5.65 0.65 -4.75 Q0.55 -4.4 0.7 -4.1 L1.3 -3.15 1.1 -2.35 1.3 -2.1 1.65 -1.75 1.75 -0.9 1.65 -0.75 0.95 1.3 0.95 1.65 1.4 3.05 1.65 2.8 0.4 4.25 0.3 4.05 0.25 3.9 Q0.1 3.05 -0.7 2.9 L-0.8 2.9 -0.95 3.0 -1.0 2.9 Q-0.7 2.55 -0.8 2.0 L-0.85 0.95 -0.7 0.25 Q-0.35 -0.6 -1.0 -1.3 L-0.9 -1.4 Q-0.45 -1.75 -0.5 -2.25 -0.5 -2.75 -0.85 -3.1 L-0.75 -3.45 Q-0.6 -3.9 -0.75 -4.3 L-0.55 -5.15 -0.1 -6.5 0.0 -7.0 0.0 -7.25 M3.6 -2.1 L3.5 -2.4 3.5 -2.45 3.4 -2.6 3.3 -2.7 3.35 -2.75 3.3 -2.75 3.55 -2.8 3.65 -2.75 3.6 -2.85 4.95 -3.05 Q5.55 -3.0 5.35 -2.35 L4.9 -1.0 4.6 -0.35 4.65 -0.3 4.7 0.0 4.65 -0.05 Q4.4 -0.75 4.5 -1.5 L4.55 -2.15 3.6 -2.1 M5.45 2.9 L5.4 3.25 4.55 3.35 3.95 3.5 3.7 3.3 Q3.5 2.75 4.0 2.5 L5.45 2.8 5.45 2.9 M1.0 6.45 L0.6 6.5 Q-0.15 6.4 -0.6 5.6 L-0.9 5.15 -0.8 5.1 Q-0.1 5.15 0.35 5.75 L1.0 6.45 M-5.0 3.95 L-5.05 3.9 -5.0 3.7 Q-4.35 2.75 -4.35 2.0 L-4.4 1.9 Q-4.95 0.6 -4.7 -0.8 L-4.7 -0.85 -4.75 -0.85 -5.1 -1.9 -5.05 -2.05 -4.4 -1.85 -4.2 -1.75 -4.1 -1.9 -4.0 -1.05 -4.0 -0.15 -4.25 0.15 -4.3 0.4 -4.3 0.65 Q-3.45 1.5 -3.9 2.55 L-4.55 4.3 -5.0 3.95 M-1.95 -1.7 L-2.05 -1.85 -1.7 -2.35 -1.6 -2.25 -1.95 -1.7 M3.35 -3.15 L3.45 -3.0 3.4 -2.9 3.4 -2.85 3.35 -2.95 3.35 -3.15" fill="#66cc00" fill-rule="evenodd" stroke="none"/>
    <path d="M3.25 0.05 L2.7 1.55 2.65 1.55 2.45 1.5 2.4 1.45 2.45 0.8 2.6 0.0 3.25 0.05 M-2.2 0.05 Q-2.3 0.55 -1.8 1.05 L-1.8 1.1 -1.8 1.7 -1.6 2.9 -2.1 3.0 -3.4 0.9 -3.3 1.0 -2.15 0.6 -2.2 0.05" fill="#ad7a3f" fill-rule="evenodd" stroke="none"/>
    <path d="M3.4 -2.6 Q3.3 -2.1 3.5 -1.55 L3.55 -1.3 3.5 -1.25 3.4 -1.2 Q3.0 -1.2 2.75 -1.5 L2.75 -2.15 2.65 -2.85 2.25 -3.5 1.75 -4.2 1.75 -4.35 1.8 -4.45 3.0 -3.15 3.3 -2.75 3.35 -2.75 3.3 -2.7 3.4 -2.6 M-3.7 -0.3 L-3.7 -1.8 -3.6 -2.45 -3.6 -2.7 -3.3 -3.05 -3.3 -3.1 -2.05 -4.3 -1.85 -4.45 -1.7 -4.55 -1.65 -4.4 -1.75 -3.95 -1.45 -2.95 -1.55 -2.85 -1.95 -2.4 -2.1 -1.3 -2.85 -0.85 -3.15 -0.65 -3.7 -0.3" fill="#edcdb6" fill-rule="evenodd" stroke="none"/>
    <path d="M-1.0 2.9 L-0.95 3.0 -0.85 3.25 -0.6 3.85 Q-0.05 3.6 0.3 4.05 L0.4 4.25 1.65 2.8 1.4 3.05 0.95 1.65 0.95 1.3 1.65 -0.75 1.75 -0.9 1.65 -1.75 1.3 -2.1 1.1 -2.35 1.3 -3.15 0.7 -4.1 Q0.55 -4.4 0.65 -4.75 L0.95 -5.65 1.0 -5.75 1.65 -5.7 1.7 -5.7 1.75 -5.4 1.75 -4.95 1.65 -4.9 1.55 -4.75 1.5 -4.7 1.45 -4.6 1.3 -4.25 1.3 -4.2 1.3 -3.75 1.8 -3.7 2.05 -3.2 2.4 -2.75 2.45 -2.6 2.5 -2.5 2.3 -1.85 2.25 -1.85 2.45 0.35 2.15 0.8 2.25 1.45 1.9 1.9 2.05 2.1 2.65 2.35 2.75 2.4 Q3.4 1.4 3.5 0.15 3.45 0.05 3.7 0.0 L3.8 -0.05 3.9 0.0 3.8 -1.45 3.85 -1.4 3.8 -1.5 3.8 -1.6 3.7 -1.85 3.65 -2.0 3.6 -2.1 4.55 -2.15 4.5 -1.5 Q4.4 -0.75 4.65 -0.05 L4.75 0.35 4.55 0.85 4.45 1.45 4.45 1.5 Q4.55 2.0 5.05 2.3 5.45 2.55 5.45 2.9 L5.45 2.8 4.0 2.5 Q3.5 2.75 3.7 3.3 L3.95 3.5 Q1.65 4.05 1.05 6.4 L1.0 6.45 0.35 5.75 Q-0.1 5.15 -0.8 5.1 L-0.9 5.15 Q-1.6 4.25 -2.75 3.75 L-3.75 4.2 Q-4.55 4.55 -5.0 3.95 L-4.55 4.3 -3.9 2.55 Q-3.45 1.5 -4.3 0.65 L-4.3 0.4 -4.25 0.15 -4.0 -0.15 Q-3.8 1.8 -2.05 3.35 L-1.55 3.45 -1.1 2.95 -1.05 2.95 -1.05 2.85 -1.0 2.9 M-4.1 -1.9 L-3.75 -2.5 -4.0 -1.05 -4.1 -1.9 M4.4 1.2 L4.45 1.2 4.4 1.2" fill="#009900" fill-rule="evenodd" stroke="none"/>
    <path d="M0.0 -7.25 L0.0 -7.0 -0.1 -6.5 -0.55 -5.15 -0.75 -4.3 Q-0.6 -3.9 -0.75 -3.45 L-0.85 -3.1 Q-0.5 -2.75 -0.5 -2.25 -0.45 -1.75 -0.9 -1.4 L-1.0 -1.3 Q-0.35 -0.6 -0.7 0.25 L-0.85 0.95 -0.8 2.0 Q-0.7 2.55 -1.0 2.9 L-1.05 2.85 -1.05 2.95 -1.1 2.8 -1.65 2.15 -1.4 0.85 -1.45 0.85 -1.6 0.8 -1.85 0.7 Q-2.15 0.5 -2.1 0.1 L-1.95 -0.15 -1.7 -0.2 -1.4 -0.5 -1.4 -0.6 -1.4 -0.65 -1.95 -1.7 -1.6 -2.25 -1.7 -2.35 -1.05 -3.2 -1.45 -3.6 Q-1.7 -4.15 -1.45 -4.4 L-1.4 -4.4 -1.9 -4.95 Q-2.45 -5.25 -2.35 -5.7 L-2.3 -5.85 -1.75 -5.85 Q-0.95 -5.9 -1.2 -6.4 L-1.0 -6.65 -0.85 -6.75 -0.35 -6.6 -0.15 -7.1 -0.1 -7.2 0.0 -7.25 M-0.95 3.0 L-0.8 2.9 -0.7 2.9 Q0.1 3.05 0.25 3.9 L0.3 4.05 Q-0.05 3.6 -0.6 3.85 L-0.85 3.25 -0.95 3.0" fill="#99ff33" fill-rule="evenodd" stroke="none"/>
  </g>
</svg>
