<?xml version="1.0" encoding="UTF-8" standalone="no"?>
<svg xmlns:xlink="http://www.w3.org/1999/xlink" height="13.8px" width="21.15px" xmlns="http://www.w3.org/2000/svg">
  <g transform="matrix(1.0, 0.0, 0.0, 1.0, 10.55, 6.9)">
    <path d="M-6.15 0.5 Q-5.35 -0.25 -5.15 -1.4 L-4.9 -2.05 -5.0 -1.9 -4.95 -2.45 -4.6 -3.75 -4.55 -4.0 -4.0 -4.65 -3.35 -5.05 -1.95 -5.75 -0.75 -6.85 -0.5 -6.85 0.6 -6.8 0.8 -6.5 1.05 -6.2 2.6 -5.2 3.35 -4.85 3.8 -4.2 4.95 -2.1 4.95 -1.75 Q5.1 -1.1 5.4 -0.5 L6.15 0.65 5.2 0.4 5.0 0.25 4.85 0.15 4.8 -0.25 4.65 -1.8 4.3 -3.0 3.2 -4.25 2.2 -4.95 2.2 -4.9 2.25 -4.9 2.8 -4.0 3.4 -2.65 3.75 -1.2 4.1 0.4 3.65 0.35 1.4 1.75 0.9 1.95 Q0.15 1.3 -0.6 1.75 L-1.15 1.75 -0.7 1.6 -0.3 1.35 -0.6 1.1 -0.7 0.6 Q-0.4 1.05 0.1 0.8 L0.25 0.7 0.4 -0.1 0.3 -0.25 0.55 -0.1 0.7 0.1 0.8 0.3 0.75 0.55 0.65 0.9 0.5 1.25 0.4 1.3 1.3 1.15 1.75 0.85 3.5 -0.05 3.4 -0.9 3.2 -1.9 3.1 -2.25 3.1 -2.35 3.05 -2.4 Q3.0 -3.25 2.6 -4.1 L1.4 -5.3 1.05 -5.6 Q0.75 -6.4 -0.15 -6.6 L-0.35 -6.6 -0.9 -6.35 -1.3 -6.05 -0.75 -6.1 -0.7 -6.1 -0.75 -6.1 -1.05 -6.0 -1.4 -5.65 -2.55 -4.3 -2.95 -3.4 -3.75 -1.9 -3.9 -1.4 Q-4.25 0.25 -2.85 1.25 -2.0 1.2 -1.3 1.7 L-3.4 1.55 -3.75 1.5 Q-4.15 1.05 -4.25 0.15 L-4.15 -1.25 -3.7 -2.6 -3.6 -2.85 Q-3.4 -3.75 -2.8 -4.5 L-2.8 -4.35 -2.75 -4.55 -2.75 -4.6 -1.95 -5.25 Q-2.55 -5.25 -3.35 -4.6 -4.15 -3.95 -4.45 -3.15 L-4.65 -2.15 -5.05 -1.35 -5.05 -1.3 -5.05 -1.1 -5.1 -1.05 -5.15 -0.6 -5.1 -0.1 -5.15 -0.1 -6.05 0.45 -6.15 0.5 M6.15 0.65 L6.15 0.5 6.95 0.65 7.95 0.65 7.95 0.75 9.05 1.4 9.65 1.7 9.7 2.85 9.6 3.1 9.55 3.25 9.6 3.45 10.1 4.3 10.55 5.5 10.6 6.25 9.45 6.6 8.85 6.4 6.05 5.9 5.05 5.85 3.95 6.15 3.6 6.5 3.55 6.55 3.2 6.65 3.2 6.7 2.95 6.6 1.8 5.95 0.8 6.9 0.35 6.65 -0.75 6.1 -2.2 6.0 Q-2.35 6.0 -2.5 6.15 L-3.25 6.1 -3.65 5.6 -4.25 5.8 -5.15 5.45 -7.6 6.2 -8.0 5.95 -9.8 6.45 -10.0 6.65 -10.1 6.65 Q-10.65 5.7 -10.55 4.7 L-10.5 3.45 -9.6 2.8 -9.25 2.2 -9.3 1.65 -8.95 1.3 -7.8 0.5 -7.0 0.5 -7.0 0.65 -8.2 1.35 Q-8.8 1.85 -8.6 2.7 L-9.4 3.9 -9.8 4.8 -9.75 5.5 -9.75 5.55 -9.7 5.7 -8.1 5.85 -6.75 5.45 -5.15 5.25 -3.95 5.1 -3.15 5.15 Q-2.65 5.8 -1.6 5.65 L-0.6 5.6 0.2 6.1 0.8 6.0 1.2 5.35 1.95 5.75 5.35 5.4 5.45 5.4 9.55 5.95 10.15 5.55 10.2 5.5 10.25 5.05 10.0 4.7 Q9.2 3.7 8.9 2.5 L8.75 1.85 7.8 1.2 6.15 0.65 M-6.9 0.5 L-6.75 0.5 -6.7 0.3 -6.3 0.25 -6.2 0.25 -6.25 0.5 -6.7 0.5 -7.0 0.65 -6.9 0.5 M-0.15 -5.55 L0.55 -5.05 Q0.9 -4.2 0.2 -3.55 -0.1 -3.25 -0.35 -3.45 L-0.35 -3.3 -0.8 -3.75 -0.8 -3.9 -0.4 -3.85 -0.3 -3.85 Q0.35 -4.0 0.35 -4.75 0.35 -5.4 -0.15 -5.45 L-0.15 -5.55 M0.5 -2.1 L0.65 -1.75 Q0.7 -1.2 0.4 -0.8 L0.0 -0.7 0.0 -0.65 Q-0.5 -0.65 -0.8 -1.1 L-0.95 -1.4 Q-0.55 -0.85 -0.05 -1.1 L0.25 -1.35 0.5 -1.75 0.5 -2.1" fill="#000000" fill-rule="evenodd" stroke="none"/>
    <path d="M-3.75 -1.9 L-2.95 -3.4 -2.55 -4.3 -1.4 -5.65 -1.05 -6.0 -0.75 -6.1 -0.7 -6.1 -0.75 -6.1 -1.3 -6.05 -0.9 -6.35 -0.35 -6.6 -0.15 -6.6 -0.2 -6.4 -0.15 -5.55 -0.15 -5.45 -0.55 -5.45 Q-1.1 -5.1 -1.0 -4.35 -1.0 -4.0 -0.8 -3.9 L-0.8 -3.75 -0.35 -3.3 -0.35 -2.8 -0.4 -2.8 -1.0 -2.15 Q-1.2 -1.8 -1.0 -1.5 L-0.95 -1.4 -0.8 -1.1 Q-0.5 -0.65 0.0 -0.65 L0.0 -0.55 0.0 -0.4 -0.25 -0.45 Q-0.55 -0.45 -0.65 -0.2 L-0.8 0.25 Q-2.15 0.15 -3.05 -0.9 L-3.75 -1.9 M1.4 -5.3 L2.6 -4.1 Q3.0 -3.25 3.05 -2.4 L3.1 -2.35 3.1 -2.25 2.65 -1.15 1.9 -1.4 1.8 -1.5 1.75 -1.6 1.4 -5.3 M-7.0 0.5 L-6.9 0.5 -7.0 0.65 -7.0 0.5" fill="#768df9" fill-rule="evenodd" stroke="none"/>
    <path d="M-1.3 1.7 Q-2.0 1.2 -2.85 1.25 -4.25 0.25 -3.9 -1.4 L-3.75 -1.9 -3.05 -0.9 Q-2.15 0.15 -0.8 0.25 L-0.7 0.6 -0.6 1.1 -0.3 1.35 -0.7 1.6 -1.15 1.75 -1.25 1.75 -1.3 1.7 M-0.15 -6.6 Q0.75 -6.4 1.05 -5.6 L1.4 -5.3 1.75 -1.6 1.8 -1.5 1.9 -1.4 2.65 -1.15 3.1 -2.25 3.2 -1.9 3.4 -0.9 3.5 -0.05 1.75 0.85 1.3 1.15 0.4 1.3 0.5 1.25 0.65 0.9 0.75 0.55 0.8 0.3 0.7 0.1 0.55 -0.1 0.3 -0.25 0.0 -0.4 0.0 -0.55 0.0 -0.65 0.0 -0.7 0.4 -0.8 Q0.7 -1.2 0.65 -1.75 L0.5 -2.1 Q0.45 -2.8 -0.35 -2.8 L-0.35 -3.3 -0.35 -3.45 Q-0.1 -3.25 0.2 -3.55 0.9 -4.2 0.55 -5.05 L-0.15 -5.55 -0.2 -6.4 -0.15 -6.6" fill="#1d5fc0" fill-rule="evenodd" stroke="none"/>
    <path d="M-6.15 0.5 L-6.05 0.45 -5.15 -0.1 -4.75 0.15 -4.25 0.15 Q-4.15 1.05 -3.75 1.5 L-3.4 1.55 -1.3 1.7 -1.25 1.75 -1.15 1.75 -0.6 1.75 Q0.15 1.3 0.9 1.95 L1.4 1.75 3.65 0.35 4.1 0.4 4.05 0.4 4.8 0.35 5.0 0.25 5.2 0.4 6.15 0.65 7.8 1.2 8.75 1.85 8.9 2.5 Q9.2 3.7 10.0 4.7 L10.25 5.05 9.7 4.6 9.5 4.5 9.05 4.15 8.55 3.3 8.35 2.4 8.35 2.35 8.3 2.3 8.25 2.25 8.2 2.2 Q7.55 2.45 7.1 1.95 L6.9 1.8 Q5.9 1.25 4.7 1.25 L3.9 1.15 3.85 1.15 3.8 1.2 3.6 1.3 Q3.4 1.3 3.25 1.45 L3.1 1.65 3.05 1.7 2.7 1.75 2.0 2.1 0.8 2.8 0.75 2.95 Q0.45 3.45 -0.15 3.25 L-0.55 2.8 -0.75 2.8 -2.05 2.4 -4.55 2.25 Q-5.2 2.3 -5.5 1.8 L-5.5 1.5 Q-5.3 1.05 -4.75 1.15 L-5.25 0.5 Q-5.95 0.35 -6.45 0.9 L-6.8 1.15 -8.0 1.85 Q-7.55 2.65 -8.3 3.2 L-9.25 4.15 -9.8 4.8 -9.4 3.9 -8.6 2.7 Q-8.8 1.85 -8.2 1.35 L-7.0 0.65 -6.7 0.5 -6.25 0.5 -6.15 0.5 M-5.05 -1.3 L-5.05 -1.35 -4.65 -2.15 -4.45 -3.15 Q-4.15 -3.95 -3.35 -4.6 -2.55 -5.25 -1.95 -5.25 L-2.75 -4.6 -2.75 -4.55 -2.8 -4.5 Q-3.4 -3.75 -3.6 -2.85 L-3.7 -2.6 Q-4.55 -2.25 -4.9 -1.2 L-5.05 -1.3 M3.75 -1.2 L3.4 -2.65 2.8 -4.0 2.25 -4.9 2.2 -4.95 3.2 -4.25 4.3 -3.0 4.65 -1.8 3.95 -2.05 3.85 -2.05 3.8 -2.0 3.7 -1.65 3.75 -1.2" fill="#ffcc00" fill-rule="evenodd" stroke="none"/>
    <path d="M0.3 -0.25 L0.4 -0.1 0.25 0.7 0.1 0.8 Q-0.4 1.05 -0.7 0.6 L-0.8 0.25 -0.65 -0.2 Q-0.55 -0.45 -0.25 -0.45 L0.0 -0.4 0.3 -0.25 M-0.35 -2.8 Q0.45 -2.8 0.5 -2.1 L0.5 -1.75 0.25 -1.35 -0.05 -1.1 Q-0.55 -0.85 -0.95 -1.4 L-1.0 -1.5 Q-1.2 -1.8 -1.0 -2.15 L-0.4 -2.8 -0.35 -2.8 M-0.15 -5.45 Q0.35 -5.4 0.35 -4.75 0.35 -4.0 -0.3 -3.85 L-0.4 -3.85 -0.8 -3.9 Q-1.0 -4.0 -1.0 -4.35 -1.1 -5.1 -0.55 -5.45 L-0.15 -5.45" fill="#99ccff" fill-rule="evenodd" stroke="none"/>
    <path d="M2.25 -4.9 L2.2 -4.9 2.2 -4.95 2.25 -4.9" fill="#333366" fill-rule="evenodd" stroke="none"/>
    <path d="M-5.15 -0.1 L-5.1 -0.1 -5.15 -0.6 -5.1 -1.05 -5.05 -1.1 -4.95 -1.15 -4.9 -1.2 Q-4.55 -2.25 -3.7 -2.6 L-4.15 -1.25 -4.25 0.15 -4.75 0.15 -5.15 -0.1 M4.1 0.4 L3.75 -1.2 3.7 -1.65 3.8 -2.0 3.85 -2.05 3.95 -2.05 4.65 -1.8 4.8 -0.25 4.85 0.15 5.0 0.25 4.8 0.35 4.05 0.4 4.1 0.4 M10.25 5.05 L10.2 5.5 10.15 5.55 9.55 5.95 5.45 5.4 5.4 5.4 5.35 5.4 1.95 5.75 1.2 5.35 0.8 6.0 0.2 6.1 -0.6 5.6 -1.6 5.65 Q-2.65 5.8 -3.15 5.15 L-3.95 5.1 -5.15 5.25 -6.75 5.45 -8.1 5.85 -9.7 5.7 -9.75 5.55 -9.75 5.5 -9.6 5.5 Q-9.25 4.8 -8.5 4.75 L-8.3 4.65 Q-7.6 4.05 -6.7 3.9 -5.8 3.4 -4.7 3.45 L-3.8 3.7 -2.25 4.95 0.2 5.1 Q1.35 5.4 2.4 4.6 L3.1 4.2 3.2 4.25 3.35 4.2 3.45 4.1 3.6 4.0 3.85 3.9 4.15 3.55 4.6 2.95 4.8 2.8 5.25 2.85 5.35 2.9 Q6.4 2.95 7.45 3.45 L7.95 3.65 Q8.8 3.95 9.5 4.5 L9.7 4.6 10.25 5.05" fill="#9f7800" fill-rule="evenodd" stroke="none"/>
    <path d="M3.05 -2.4 L3.1 -2.35 3.05 -2.4" fill="#660000" fill-rule="evenodd" stroke="none"/>
    <path d="M-2.75 -4.55 L-2.8 -4.35 -2.8 -4.5 -2.75 -4.55" fill="#cc66ff" fill-rule="evenodd" stroke="none"/>
    <path d="M-5.05 -1.1 L-5.05 -1.3 -4.9 -1.2 -4.95 -1.15 -5.05 -1.1 M5.45 5.4 L5.35 5.4 5.4 5.4 5.45 5.4 M-9.75 5.5 L-9.8 4.8 -9.25 4.15 -8.3 3.2 Q-7.55 2.65 -8.0 1.85 L-6.8 1.15 -6.45 0.9 Q-5.95 0.35 -5.25 0.5 L-4.75 1.15 Q-5.3 1.05 -5.5 1.5 L-5.5 1.8 Q-5.2 2.3 -4.55 2.25 L-2.05 2.4 -0.75 2.8 -0.55 2.8 -0.15 3.25 Q0.45 3.45 0.75 2.95 L0.8 2.8 2.0 2.1 2.7 1.75 3.05 1.7 3.1 1.65 3.25 1.45 Q3.4 1.3 3.6 1.3 L3.8 1.2 3.85 1.15 3.9 1.15 4.7 1.25 Q5.9 1.25 6.9 1.8 L7.1 1.95 Q7.55 2.45 8.2 2.2 L8.25 2.25 8.3 2.3 8.35 2.35 8.35 2.4 8.55 3.3 9.05 4.15 9.5 4.5 Q8.8 3.95 7.95 3.65 L7.45 3.45 Q6.4 2.95 5.35 2.9 L5.25 2.85 4.8 2.8 4.6 2.95 4.15 3.55 3.85 3.9 3.6 4.0 3.45 4.1 3.35 4.2 3.2 4.25 3.1 4.2 2.4 4.6 Q1.35 5.4 0.2 5.1 L-2.25 4.95 -3.8 3.7 -4.7 3.45 Q-5.8 3.4 -6.7 3.9 -7.6 4.05 -8.3 4.65 L-8.5 4.75 Q-9.25 4.8 -9.6 5.5 L-9.75 5.5" fill="#cc9900" fill-rule="evenodd" stroke="none"/>
  </g>
</svg>
