<?xml version="1.0" encoding="UTF-8" standalone="no"?>
<svg xmlns:xlink="http://www.w3.org/1999/xlink" height="18.4px" width="17.2px" xmlns="http://www.w3.org/2000/svg">
  <g transform="matrix(1.0, 0.0, 0.0, 1.0, 8.55, 8.9)">
    <path d="M2.05 -7.85 Q3.1 -7.55 3.8 -6.8 L5.0 -6.35 Q5.95 -6.05 6.35 -5.1 L6.75 -3.75 6.8 -3.7 6.8 -3.65 Q7.7 -3.3 8.1 -2.4 L8.25 -2.0 8.35 -0.7 8.25 -0.15 Q8.55 0.7 8.5 1.6 L8.65 2.1 8.65 2.4 Q8.65 3.05 8.3 3.55 L8.0 4.1 7.5 4.7 6.8 5.4 6.35 5.95 5.4 7.2 5.35 7.3 5.15 7.65 Q4.85 8.55 3.95 9.15 L3.5 9.35 2.0 9.3 1.65 9.45 0.45 9.4 0.2 9.25 0.15 9.2 -0.6 9.25 -1.05 9.15 Q-1.4 9.1 -1.55 8.9 L-3.6 8.55 -3.95 8.35 -5.1 6.85 -5.15 6.75 -5.55 6.05 -5.75 6.05 -6.3 5.85 -7.35 4.8 -8.05 3.6 -8.1 3.15 -8.2 2.85 -8.2 2.7 -8.25 2.05 Q-8.6 0.9 -8.55 -0.3 L-8.5 -0.65 -8.05 -1.65 -7.9 -1.95 -7.85 -2.5 Q-7.4 -3.7 -6.4 -4.3 L-5.85 -5.3 -5.05 -6.35 Q-4.5 -6.75 -3.8 -6.8 L-3.8 -6.85 -3.15 -6.8 -2.65 -7.1 -2.3 -7.25 Q-1.25 -7.65 -0.55 -8.55 L-0.15 -8.9 0.7 -8.8 1.05 -8.6 1.6 -8.1 Q1.8 -7.95 2.05 -7.85 M2.55 -6.55 L3.25 -6.5 3.8 -6.35 3.75 -6.5 3.4 -6.7 3.2 -6.85 2.3 -7.25 1.5 -7.55 1.4 -7.65 1.2 -7.9 1.0 -8.1 0.75 -8.55 -0.25 -8.6 -1.15 -7.5 -1.25 -7.45 -2.8 -6.55 -2.9 -6.5 -2.8 -6.55 -2.35 -6.65 -1.2 -6.4 -1.2 -6.45 -0.5 -6.45 -0.45 -6.45 0.0 -6.15 0.2 -6.0 0.3 -5.85 0.4 -5.9 0.75 -6.3 Q1.0 -6.7 1.5 -6.6 L2.55 -6.55 M6.25 -3.55 L6.2 -3.95 6.15 -4.1 6.1 -4.35 5.3 -5.95 5.2 -6.1 5.0 -5.95 2.8 -6.05 2.55 -6.05 1.05 -5.9 0.5 -5.65 0.5 -5.6 0.05 -5.65 0.1 -5.55 -0.05 -5.55 -0.2 -5.6 -0.45 -5.8 -0.6 -5.95 -0.65 -6.0 -0.65 -6.05 -0.75 -6.1 -0.8 -6.1 -2.55 -6.25 -3.0 -6.35 -3.45 -6.45 -3.1 -6.5 -3.5 -6.45 -4.6 -6.35 -5.05 -5.55 -5.3 -5.2 -5.65 -4.65 -5.8 -4.4 -6.0 -3.9 -6.35 -3.7 -7.1 -2.65 -7.2 -2.35 -7.25 -2.3 -7.35 -2.2 -7.45 -2.05 -7.7 -1.65 -7.75 -1.6 -7.8 -1.45 -7.95 -1.15 -7.95 -1.05 -8.0 -0.95 Q-8.4 -0.45 -8.3 0.2 L-8.3 0.25 -8.2 0.95 -8.1 1.35 -7.9 2.45 -7.75 3.0 -7.15 4.45 -7.05 4.6 -6.7 4.8 -6.3 5.05 -6.3 4.9 -6.2 4.9 -6.05 4.9 -6.0 4.9 -5.85 4.75 -5.8 4.55 -5.8 4.5 -5.8 3.2 -6.05 1.05 -6.05 0.85 Q-5.6 1.0 -5.7 1.55 L-5.75 1.9 -5.35 3.1 -5.25 4.55 -5.45 5.75 -5.2 6.0 -5.1 6.1 -4.85 6.35 -4.4 6.8 -3.8 6.9 -3.7 7.0 -3.65 7.05 -3.15 7.25 -3.0 7.25 -2.6 6.8 -2.5 6.1 -2.5 5.95 Q-2.85 3.9 -3.8 2.05 L-3.8 1.85 -3.85 1.25 -3.8 0.65 -2.95 2.6 -2.9 2.7 -2.4 4.0 -2.25 4.3 -2.25 4.4 -2.05 5.2 -2.0 5.55 -1.95 5.55 -1.75 6.35 -1.55 7.3 -1.35 7.8 -0.95 8.15 -0.8 8.2 -0.1 8.2 0.1 8.1 0.3 7.85 0.4 7.45 0.4 7.4 0.35 6.4 -0.1 4.6 -0.25 3.9 -1.05 1.3 -0.8 -0.3 -0.7 -0.3 -0.75 -0.55 -0.7 -1.0 -0.55 -1.9 -0.55 -1.95 -0.5 -2.2 -0.5 -2.35 -0.5 -2.45 -0.4 -3.15 -0.25 -4.3 -0.25 -4.4 -0.25 -4.9 Q0.15 -4.7 0.05 -4.2 L-0.1 -3.85 -0.3 -1.15 -0.3 -0.9 -0.4 0.0 -0.45 1.2 -0.45 1.3 0.15 4.05 0.75 5.75 0.9 7.15 0.9 7.25 0.9 7.45 Q0.95 8.1 1.4 8.35 L1.55 8.4 1.9 8.45 2.05 8.45 2.15 8.4 2.25 8.1 2.35 7.9 2.45 7.7 3.0 5.95 Q3.2 4.55 3.0 3.05 L2.9 2.3 2.65 -0.55 2.8 -0.15 3.15 1.3 3.6 3.75 3.5 4.65 3.35 6.0 3.1 6.75 Q2.75 7.7 3.55 7.95 L3.65 7.95 3.9 8.0 4.45 7.15 4.55 6.8 4.7 6.4 4.95 5.65 5.0 5.5 5.05 5.45 5.2 4.9 5.65 1.25 5.9 3.35 5.85 4.05 5.3 6.45 5.15 6.45 5.6 6.5 5.85 6.1 6.65 5.2 7.25 4.25 Q7.8 4.0 8.0 3.4 L8.1 2.95 8.1 2.9 8.15 1.4 8.0 0.45 8.0 0.4 7.95 0.05 7.9 -0.05 7.45 -0.75 7.65 -1.0 7.75 -1.15 7.8 -1.3 7.85 -1.4 7.95 -1.8 7.6 -2.4 7.0 -3.1 6.8 -3.3 6.4 -3.35 6.35 -3.4 6.25 -3.55" fill="#000000" fill-rule="evenodd" stroke="none"/>
    <path d="M-0.5 -6.45 L-1.2 -6.45 -1.2 -6.4 -2.35 -6.65 -2.8 -6.55 -2.9 -6.5 -2.8 -6.55 -1.25 -7.45 -1.15 -7.5 -0.25 -8.6 0.75 -8.55 1.0 -8.1 1.2 -7.9 1.4 -7.65 1.5 -7.55 2.3 -7.25 3.2 -6.85 3.4 -6.7 3.75 -6.5 3.8 -6.35 3.25 -6.5 2.55 -6.55 1.7 -7.0 1.4 -7.15 1.0 -7.3 0.95 -7.35 Q0.1 -7.65 -0.75 -7.1 L-0.75 -7.05 -0.8 -7.05 -0.8 -7.0 -1.75 -6.65 -0.45 -6.5 -0.5 -6.45" fill="#eed0bb" fill-rule="evenodd" stroke="none"/>
    <path d="M2.55 -6.55 L1.5 -6.6 Q1.0 -6.7 0.75 -6.3 L0.4 -5.9 0.3 -5.85 0.2 -6.0 0.0 -6.15 -0.45 -6.45 -0.5 -6.45 -0.45 -6.5 -1.75 -6.65 -0.8 -7.0 -0.8 -7.05 -0.75 -7.05 -0.75 -7.1 Q0.1 -7.65 0.95 -7.35 L1.0 -7.3 1.4 -7.15 1.7 -7.0 2.55 -6.55" fill="#cc9999" fill-rule="evenodd" stroke="none"/>
    <path d="M0.9 -4.95 L1.05 -5.35 1.2 -5.5 Q1.9 -5.45 2.1 -4.9 L2.0 -5.05 1.85 -5.05 1.7 -4.9 Q1.5 -3.45 1.7 -2.0 L1.75 -1.6 2.15 1.65 Q2.35 3.85 1.95 6.05 L1.6 8.4 1.9 8.45 1.55 8.4 1.4 8.35 Q0.95 8.1 0.9 7.45 L0.9 7.25 0.9 7.15 1.3 5.05 Q0.75 3.1 0.7 1.1 L0.7 0.85 0.7 0.8 0.7 0.75 0.6 0.35 0.6 0.1 0.65 -1.35 0.7 -2.65 Q0.55 -3.85 0.9 -4.95 M2.25 -4.4 Q2.15 -5.1 2.65 -5.6 L2.7 -5.6 2.9 -5.65 3.8 -5.0 3.65 -4.95 Q3.4 -4.7 3.6 -4.4 3.65 -3.75 4.0 -3.15 4.6 -2.15 4.75 -1.0 L4.75 0.15 4.6 2.35 4.55 4.05 Q4.4 6.0 3.6 7.85 L3.55 7.95 Q2.75 7.7 3.1 6.75 L3.35 6.0 3.5 4.65 3.6 3.75 3.65 2.45 3.7 -0.9 3.65 -1.1 Q3.55 -2.05 3.0 -2.8 L2.3 -4.2 2.3 -4.4 2.25 -4.4 M6.0 -2.35 L6.25 -2.6 6.45 -2.65 6.5 -2.7 6.9 -2.45 7.0 -2.35 7.25 1.1 6.95 2.15 Q6.75 2.45 6.9 2.8 L7.0 3.0 6.5 3.0 6.1 2.35 6.05 -0.3 6.05 -0.55 5.9 -1.3 5.8 -1.95 6.0 -2.35 M0.6 0.1 L0.6 0.25 0.6 0.1 M-0.35 -5.2 L-0.85 -4.15 -1.45 0.1 -1.4 2.5 -0.5 6.9 -0.25 7.75 -0.1 8.2 -0.8 8.2 -0.95 8.15 -1.35 7.8 -1.55 7.3 -1.75 6.35 -2.05 5.2 -2.25 4.4 -2.25 4.3 -3.0 1.65 -3.1 1.0 -3.05 0.75 -3.0 -0.1 -2.6 -1.75 -2.55 -1.95 -2.55 -2.3 -2.4 -3.25 -2.2 -4.95 -1.75 -5.55 -1.7 -5.6 -1.55 -5.7 -1.5 -5.7 Q-0.7 -5.75 -0.4 -5.3 L-0.35 -5.2 M-3.15 7.25 L-3.65 7.05 -3.7 7.0 -3.8 6.9 -4.0 6.65 -4.2 6.25 -4.25 6.05 -4.4 5.3 -4.45 5.15 -4.5 5.0 Q-5.15 3.55 -5.4 2.0 L-5.45 1.5 -5.45 1.25 Q-5.5 -0.8 -4.75 -2.6 L-4.6 -4.4 -4.2 -5.4 -4.1 -5.65 -3.75 -5.95 -3.0 -5.75 Q-2.65 -5.45 -2.7 -4.75 L-2.7 -4.45 -2.9 -4.55 -3.4 -4.05 -4.35 0.2 -4.45 1.5 -4.25 3.1 -3.15 7.25 M-7.25 -2.3 L-7.2 -2.35 -7.1 -2.65 -6.3 -3.3 Q-5.55 -2.9 -5.75 -1.95 L-5.75 -1.9 -5.9 -1.15 -5.8 -1.7 -6.3 -1.9 -6.55 -1.7 -6.75 -1.15 -7.0 1.55 -6.6 4.8 -6.7 4.75 -7.05 4.1 -7.25 3.45 -7.4 3.05 Q-7.8 1.9 -7.8 0.8 L-7.8 0.45 Q-7.8 -0.9 -7.3 -2.2 L-7.25 -2.3" fill="#c2b2d7" fill-rule="evenodd" stroke="none"/>
    <path d="M0.5 -5.6 L0.5 -5.65 1.05 -5.9 2.55 -6.05 2.8 -6.05 5.0 -5.95 5.2 -6.1 5.3 -5.95 6.1 -4.35 6.15 -4.1 6.2 -3.95 6.25 -3.55 6.25 -3.65 6.2 -3.6 Q5.75 -3.1 6.2 -2.65 L6.25 -2.6 6.0 -2.35 5.7 -3.35 Q5.55 -4.05 4.9 -4.25 L4.55 -4.05 4.65 -3.85 5.25 -2.35 5.65 -0.6 5.7 0.55 5.65 1.25 5.2 4.9 5.05 5.45 5.0 5.5 4.95 5.65 4.7 6.4 4.55 6.8 4.45 7.15 3.9 8.0 3.65 7.95 3.55 7.95 3.6 7.85 Q4.4 6.0 4.55 4.05 L4.6 2.35 4.75 0.15 4.75 -1.0 Q4.6 -2.15 4.0 -3.15 3.65 -3.75 3.6 -4.4 3.4 -4.7 3.65 -4.95 L3.8 -5.0 2.9 -5.65 2.7 -5.6 2.65 -5.6 Q2.15 -5.1 2.25 -4.4 L2.15 -4.4 2.15 -4.2 Q2.1 -3.85 2.2 -3.45 L2.5 -1.9 2.55 -1.75 2.5 -1.75 2.55 -1.45 2.6 -0.95 2.65 -0.55 2.9 2.3 3.0 3.05 Q3.2 4.55 3.0 5.95 L2.45 7.7 2.35 7.9 2.25 8.1 2.15 8.4 2.05 8.45 1.9 8.45 1.6 8.4 1.95 6.05 Q2.35 3.85 2.15 1.65 L1.75 -1.6 1.7 -2.0 Q1.5 -3.45 1.7 -4.9 L1.85 -5.05 2.0 -5.05 2.1 -4.9 Q1.9 -5.45 1.2 -5.5 L1.05 -5.35 0.9 -4.95 Q0.85 -5.45 0.5 -5.6 M7.75 -1.15 L7.65 -1.0 7.45 -0.75 7.9 -0.05 7.95 0.05 8.0 0.4 8.0 0.45 8.15 1.4 8.1 1.25 7.85 1.1 7.8 1.45 7.6 2.05 7.2 2.8 7.0 3.0 6.9 2.8 Q6.75 2.45 6.95 2.15 L7.25 1.1 7.0 -2.35 Q7.55 -1.9 7.75 -1.15 M-0.25 -4.9 L-0.25 -4.4 -0.25 -4.3 -0.4 -3.15 -0.5 -2.45 -0.5 -2.35 -0.5 -2.2 -0.55 -1.95 -0.55 -1.9 -0.7 -1.0 -0.75 -0.55 -0.7 -0.3 -0.8 -0.3 -1.05 1.3 -0.25 3.9 -0.1 4.6 0.35 6.4 0.4 7.4 0.4 7.45 0.3 7.85 0.1 8.1 -0.1 8.2 -0.25 7.75 -0.5 6.9 -1.4 2.5 -1.45 0.1 -0.85 -4.15 -0.35 -5.2 -0.25 -4.9 M-3.85 1.25 L-3.8 1.85 -3.8 2.05 Q-2.85 3.9 -2.5 5.95 L-2.5 6.1 -2.6 6.8 -3.0 7.25 -3.15 7.25 -4.25 3.1 -4.45 1.5 -4.35 0.2 -3.4 -4.05 -2.9 -4.55 -2.7 -4.45 -2.7 -4.75 Q-2.65 -5.45 -3.0 -5.75 L-3.75 -5.95 -4.1 -5.65 -4.2 -5.4 -4.6 -4.4 -4.65 -4.4 -5.25 -3.5 -5.7 -2.25 -5.75 -1.95 Q-5.55 -2.9 -6.3 -3.3 L-7.1 -2.65 -6.35 -3.7 -6.0 -3.9 -5.8 -4.4 -5.65 -4.65 -5.3 -5.2 -5.05 -5.55 -4.6 -6.35 -3.5 -6.45 -3.1 -6.5 -3.45 -6.45 -3.0 -6.35 -2.55 -6.25 -0.8 -6.1 -0.75 -6.1 -0.65 -6.05 -0.65 -6.0 -0.6 -5.95 -0.45 -5.8 -0.2 -5.6 -0.4 -5.3 Q-0.7 -5.75 -1.5 -5.7 L-1.55 -5.7 -1.7 -5.6 -1.75 -5.55 -2.2 -4.95 -2.4 -3.25 -2.6 -3.35 -2.9 -3.2 -2.95 -3.15 -3.65 -0.5 -3.75 0.0 -3.8 0.2 -3.85 1.25 M-6.05 0.85 L-6.05 1.05 -5.8 3.2 -5.8 4.5 -5.8 4.55 -5.85 4.75 -6.0 4.9 -6.05 4.9 -6.2 4.9 -6.3 4.9 -6.6 4.8 -7.0 1.55 -6.75 -1.15 -6.55 -1.7 -6.3 -1.9 -5.8 -1.7 -5.9 -1.15 -6.05 0.0 -6.05 0.2 -6.05 0.35 -6.05 0.55 -6.05 0.85 M-8.0 -0.95 L-7.95 -1.05 -8.0 -1.0 -8.0 -0.95" fill="#8e7aa9" fill-rule="evenodd" stroke="none"/>
    <path d="M0.5 -5.6 Q0.85 -5.45 0.9 -4.95 0.55 -3.85 0.7 -2.65 L0.65 -1.35 0.6 0.1 0.6 0.35 0.7 0.75 0.7 0.8 0.7 0.85 0.7 1.1 Q0.75 3.1 1.3 5.05 L0.9 7.15 0.75 5.75 0.15 4.05 -0.45 1.3 -0.45 1.2 -0.4 0.0 -0.3 -0.9 -0.3 -1.15 -0.1 -3.85 0.05 -4.2 Q0.15 -4.7 -0.25 -4.9 L-0.35 -5.2 -0.4 -5.3 -0.2 -5.6 -0.05 -5.55 0.1 -5.55 0.05 -5.65 0.5 -5.6 M2.65 -0.55 L2.6 -0.95 2.55 -1.45 2.5 -1.75 2.55 -1.75 2.5 -1.9 2.2 -3.45 Q2.1 -3.85 2.15 -4.2 L2.15 -4.4 2.25 -4.4 2.3 -4.4 2.3 -4.2 3.0 -2.8 Q3.55 -2.05 3.65 -1.1 L3.7 -0.9 3.65 2.45 3.6 3.75 3.15 1.3 2.8 -0.15 2.65 -0.55 M5.65 1.25 L5.7 0.55 5.65 -0.6 5.25 -2.35 4.65 -3.85 4.55 -4.05 4.9 -4.25 Q5.55 -4.05 5.7 -3.35 L6.0 -2.35 5.8 -1.95 5.9 -1.3 6.05 -0.55 6.05 -0.3 6.1 2.35 6.5 3.0 7.0 3.0 7.2 2.8 7.6 2.05 7.8 1.45 7.85 1.1 8.1 1.25 8.15 1.4 8.1 2.9 8.1 2.95 8.0 3.4 Q7.8 4.0 7.25 4.25 L6.65 5.2 5.85 6.1 5.6 6.5 5.15 6.45 5.3 6.45 5.85 4.05 5.9 3.35 5.65 1.25 M6.25 -2.6 L6.2 -2.65 Q5.75 -3.1 6.2 -3.6 L6.25 -3.65 6.25 -3.55 6.35 -3.4 6.4 -3.35 6.8 -3.3 7.0 -3.1 7.6 -2.4 7.95 -1.8 7.85 -1.4 7.8 -1.3 7.75 -1.15 Q7.55 -1.9 7.0 -2.35 L6.9 -2.45 6.5 -2.7 6.45 -2.65 6.25 -2.6 M0.6 0.1 L0.6 0.25 0.6 0.1 M-1.75 6.35 L-1.95 5.55 -2.0 5.55 -2.05 5.2 -1.75 6.35 M-2.25 4.3 L-2.4 4.0 -2.9 2.7 -2.95 2.6 -3.8 0.65 -3.85 1.25 -3.8 0.2 -3.75 0.0 -3.65 -0.5 -2.95 -3.15 -2.9 -3.2 -2.6 -3.35 -2.4 -3.25 -2.55 -2.3 -2.55 -1.95 -2.6 -1.75 -3.0 -0.1 -3.05 0.75 -3.1 1.0 -3.0 1.65 -2.25 4.3 M-3.8 6.9 L-4.4 6.8 -4.85 6.35 -5.1 6.1 -5.2 6.0 -5.45 5.75 -5.25 4.55 -5.35 3.1 -5.75 1.9 -5.7 1.55 Q-5.6 1.0 -6.05 0.85 L-6.05 0.55 -6.05 0.35 -6.05 0.2 -6.05 0.0 -5.9 -1.15 -5.75 -1.9 -5.75 -1.95 -5.7 -2.25 -5.25 -3.5 -4.65 -4.4 -4.6 -4.4 -4.75 -2.6 Q-5.5 -0.8 -5.45 1.25 L-5.45 1.5 -5.4 2.0 Q-5.15 3.55 -4.5 5.0 L-4.45 5.15 -4.4 5.3 -4.25 6.05 -4.2 6.25 -4.0 6.65 -3.8 6.9 M-6.3 4.9 L-6.3 5.05 -6.7 4.8 -7.05 4.6 -7.15 4.45 -7.75 3.0 -7.9 2.45 -8.1 1.35 -8.2 0.95 -8.3 0.25 -8.3 0.2 Q-8.4 -0.45 -8.0 -0.95 L-8.0 -1.0 -7.95 -1.05 -7.95 -1.15 -7.8 -1.45 -7.75 -1.6 -7.7 -1.65 -7.45 -2.05 -7.35 -2.2 -7.25 -2.3 -7.3 -2.2 Q-7.8 -0.9 -7.8 0.45 L-7.8 0.8 Q-7.8 1.9 -7.4 3.05 L-7.25 3.45 -7.05 4.1 -6.7 4.75 -6.6 4.8 -6.3 4.9" fill="#715b8e" fill-rule="evenodd" stroke="none"/>
  </g>
</svg>
