<?xml version="1.0" encoding="UTF-8" standalone="no"?>
<svg xmlns:xlink="http://www.w3.org/1999/xlink" height="17.85px" width="17.0px" xmlns="http://www.w3.org/2000/svg">
  <g transform="matrix(1.0, 0.0, 0.0, 1.0, 8.5, 8.9)">
    <path d="M2.05 -7.85 Q3.5 -7.45 4.35 -6.15 L5.0 -4.8 5.05 -4.7 Q5.65 -4.65 6.15 -4.1 L6.45 -3.9 7.45 -3.65 7.6 -3.6 8.25 -2.25 Q8.35 -1.4 8.1 -0.6 L8.1 -0.55 8.1 -0.5 Q8.7 0.75 8.4 2.15 8.25 2.85 7.7 3.35 L7.4 3.55 6.75 4.0 6.6 4.75 5.65 5.9 5.2 6.9 4.5 7.6 4.05 7.9 Q3.65 8.65 2.9 8.9 L2.7 8.9 -0.85 8.65 Q-2.0 8.4 -2.7 7.4 L-3.35 6.6 -3.6 6.45 Q-4.1 6.35 -4.45 5.85 L-4.75 5.6 -4.95 5.45 Q-5.45 5.15 -6.0 5.1 L-6.6 4.7 -7.4 3.75 -7.55 3.2 -7.6 2.2 -7.35 1.15 -8.15 0.35 -8.3 0.2 Q-8.8 -0.8 -8.05 -1.65 L-7.9 -1.95 -7.85 -2.5 Q-7.4 -3.75 -6.3 -4.4 -5.85 -4.75 -5.25 -4.7 L-4.55 -4.7 -4.5 -4.8 -4.15 -5.2 -4.1 -5.25 -3.55 -6.4 -2.65 -7.1 -2.3 -7.25 Q-1.25 -7.65 -0.55 -8.55 L-0.15 -8.9 0.7 -8.8 1.05 -8.6 1.6 -8.1 Q1.8 -7.95 2.05 -7.85 M3.9 -6.1 L3.75 -6.5 3.2 -6.85 2.3 -7.25 1.5 -7.55 1.4 -7.65 1.2 -7.9 1.0 -8.1 0.75 -8.55 -0.25 -8.6 -1.15 -7.5 -1.25 -7.45 -3.05 -6.45 -3.5 -5.45 -3.7 -4.8 -3.75 -4.45 -3.8 -4.15 -3.85 -4.05 -3.85 -3.95 -3.8 -3.9 -3.7 -3.85 -3.8 -3.55 -3.85 -3.55 -3.8 -3.5 -4.0 -2.75 -3.45 -2.6 Q-3.55 -1.7 -3.05 -0.95 L-2.9 -1.1 -2.8 -1.05 -2.1 -1.9 Q-1.7 -2.55 -1.45 -3.35 L-0.8 -4.75 -0.55 -5.25 -0.45 -5.45 -0.25 -5.8 -0.25 -5.85 -0.25 -5.9 -0.2 -5.95 -0.1 -6.0 0.05 -6.0 0.1 -5.95 Q0.2 -6.1 0.4 -6.05 L0.8 -5.9 0.85 -5.85 1.45 -5.25 1.8 -4.6 2.15 -3.95 2.25 -3.7 Q2.85 -2.45 3.9 -1.7 L4.15 -1.55 4.15 -1.6 Q3.9 -2.8 4.4 -3.9 L4.55 -4.1 4.45 -4.6 4.45 -4.65 4.0 -5.9 3.9 -6.1 M1.45 -3.55 L0.8 -5.2 0.75 -5.25 0.7 -5.3 0.7 -5.4 0.15 -5.85 0.05 -5.4 -0.05 -5.25 -0.15 -4.9 -0.25 -4.75 -0.3 -4.7 -1.0 -3.0 -1.2 -2.6 -1.3 -2.45 -1.4 -2.1 -1.5 -2.0 Q-1.8 -1.3 -2.4 -0.8 L-2.45 -0.6 -2.45 -0.5 -2.65 -0.45 -2.95 -0.4 -3.0 -0.5 -3.05 -0.55 -3.05 -0.65 -3.05 -0.7 -3.15 -0.85 -3.2 -0.9 Q-3.55 -0.85 -3.9 -1.25 L-4.05 -1.65 -4.0 -2.6 -4.2 -2.2 -4.3 -2.3 -4.35 -2.4 -4.25 -2.65 -4.25 -2.75 -4.5 -3.15 -4.4 -3.95 -4.55 -4.0 -4.85 -4.1 -4.95 -4.1 -5.15 -4.15 Q-6.85 -3.95 -7.25 -2.3 L-7.45 -2.05 -7.7 -1.65 -7.75 -1.6 -7.8 -1.45 Q-8.4 -0.2 -7.75 0.45 L-6.7 0.95 -7.0 1.3 -7.2 1.85 Q-7.5 3.85 -5.45 4.55 L-5.1 4.95 Q-4.3 5.6 -3.35 5.4 L-3.3 5.45 Q-3.25 6.25 -2.7 6.9 -2.25 7.45 -1.55 7.65 L-0.4 8.05 0.3 8.2 0.4 8.25 0.75 8.3 0.7 8.25 2.6 8.25 2.7 8.25 2.85 8.2 3.1 8.15 3.55 8.0 4.85 6.2 5.25 5.95 Q6.0 5.2 6.1 4.2 L6.1 3.75 Q6.7 3.7 6.95 3.35 8.5 1.4 7.4 -0.75 L7.65 -1.0 7.8 -1.3 7.85 -1.4 Q8.35 -2.9 7.15 -3.25 L6.4 -3.35 6.35 -3.4 Q6.0 -3.95 5.35 -4.05 L5.2 -4.05 5.1 -4.05 4.6 -3.85 4.55 -2.7 Q4.75 -2.0 4.55 -1.4 L4.6 -1.05 4.3 -0.75 3.9 -0.75 3.75 -0.8 3.7 -0.8 3.6 -0.6 3.6 -0.85 Q2.5 -1.25 1.95 -2.35 L1.55 -3.25 1.45 -3.55 M3.2 0.15 L3.05 0.25 3.05 0.2 3.2 0.15" fill="#000000" fill-rule="evenodd" stroke="none"/>
    <path d="M-3.8 -3.55 L-3.7 -3.85 -3.8 -3.9 -3.85 -3.95 -3.85 -4.05 -3.8 -4.15 -3.75 -4.45 -3.7 -4.8 -3.5 -5.45 -3.05 -6.45 -1.25 -7.45 -1.15 -7.5 -0.25 -8.6 0.75 -8.55 1.0 -8.1 1.2 -7.9 1.4 -7.65 1.5 -7.55 2.3 -7.25 3.2 -6.85 3.75 -6.5 3.9 -6.1 Q3.5 -6.1 3.25 -6.35 2.4 -6.55 1.7 -7.0 L1.4 -7.15 1.0 -7.3 0.95 -7.35 Q0.1 -7.65 -0.75 -7.1 L-0.75 -7.05 -0.8 -7.05 -0.8 -7.0 -1.75 -6.65 -0.45 -6.5 -1.4 -5.6 Q-1.8 -5.3 -1.5 -4.95 L-1.3 -4.9 -0.55 -5.25 -0.8 -4.75 -1.45 -3.35 Q-1.7 -2.55 -2.1 -1.9 L-2.2 -1.9 -2.3 -1.9 -2.65 -2.25 -3.45 -2.6 -4.0 -2.75 -3.8 -3.5 -3.8 -3.55 M2.15 -3.95 L1.8 -4.6 1.45 -5.25 1.7 -5.2 1.85 -4.85 2.15 -3.95" fill="#eed0bb" fill-rule="evenodd" stroke="none"/>
    <path d="M-3.45 -2.6 L-2.65 -2.25 -2.3 -1.9 -2.2 -1.9 -2.1 -1.9 -2.8 -1.05 -2.9 -1.1 -3.05 -0.95 Q-3.55 -1.7 -3.45 -2.6 M-0.55 -5.25 L-1.3 -4.9 -1.5 -4.95 Q-1.8 -5.3 -1.4 -5.6 L-0.45 -6.5 -1.75 -6.65 -0.8 -7.0 -0.8 -7.05 -0.75 -7.05 -0.75 -7.1 Q0.1 -7.65 0.95 -7.35 L1.0 -7.3 1.4 -7.15 1.7 -7.0 Q2.4 -6.55 3.25 -6.35 3.5 -6.1 3.9 -6.1 L4.0 -5.9 4.45 -4.65 4.45 -4.6 4.55 -4.1 4.4 -3.9 Q3.9 -2.8 4.15 -1.6 L4.15 -1.55 3.9 -1.7 Q2.85 -2.45 2.25 -3.7 L2.15 -3.95 1.85 -4.85 1.7 -5.2 1.45 -5.25 0.85 -5.85 0.8 -5.9 0.4 -6.05 Q0.2 -6.1 0.1 -5.95 L0.05 -6.0 -0.1 -6.0 -0.2 -5.95 -0.25 -5.9 -0.25 -5.85 -0.45 -5.55 -0.45 -5.45 -0.55 -5.25" fill="#cc9999" fill-rule="evenodd" stroke="none"/>
    <path d="M-0.25 -5.85 L-0.25 -5.8 -0.45 -5.45 -0.45 -5.55 -0.25 -5.85 M-1.0 -3.0 L-0.3 -4.7 -0.25 -4.75 -0.15 -4.9 -0.05 -5.25 0.05 -5.4 0.15 -5.85 0.7 -5.4 0.7 -5.3 0.75 -5.25 0.8 -5.2 1.45 -3.55 1.35 -2.9 Q1.3 -2.65 1.4 -2.45 1.9 -1.55 2.8 -0.9 L2.75 -0.75 2.45 0.0 Q2.1 0.75 2.9 0.75 L3.0 0.75 2.95 0.8 2.55 1.1 2.25 1.15 Q1.25 1.2 1.0 0.15 L0.85 0.05 0.75 -0.15 0.55 -0.2 0.5 -0.25 0.35 0.0 0.4 0.2 0.5 0.45 1.45 1.4 1.6 1.75 Q3.05 2.35 2.6 3.95 L2.6 4.35 Q2.75 5.0 2.25 5.45 L0.3 5.4 -0.1 5.4 -0.3 5.7 -0.45 5.95 Q-2.05 6.3 -2.55 4.7 L-2.65 4.1 -2.95 3.75 -3.05 3.55 -5.8 3.3 -5.95 3.05 -6.0 2.9 -6.05 2.8 -5.45 2.7 Q-5.15 2.55 -5.1 2.2 -4.85 1.05 -6.1 1.1 L-6.15 1.1 -6.55 1.45 Q-6.75 1.3 -7.0 1.3 L-6.7 0.95 -7.75 0.45 -8.0 -0.6 -7.95 -1.15 -7.8 -1.45 -7.75 -1.6 -7.7 -1.65 -7.45 -2.05 -7.25 -2.3 Q-6.85 -3.95 -5.15 -4.15 L-4.95 -4.1 -4.85 -4.1 -4.55 -4.0 -4.4 -3.95 -4.5 -3.15 -4.95 -3.35 Q-5.3 -3.35 -5.45 -3.05 -5.9 -1.95 -4.7 -2.0 L-4.8 -1.4 -4.9 -0.95 -4.9 -0.85 -5.05 -0.9 -5.6 -0.75 Q-6.05 -0.4 -5.9 0.15 -5.65 1.35 -4.5 0.9 L-4.25 0.5 -4.15 -0.15 -4.05 -0.1 -3.95 0.2 -3.8 0.4 Q-3.45 0.7 -3.4 1.15 -3.0 0.75 -2.45 0.7 L-2.25 0.7 -2.35 0.05 -2.45 -0.2 Q-1.5 -0.3 -1.1 -1.35 L-0.8 -2.15 Q-0.6 -2.8 -1.0 -3.0 M4.3 -0.75 L4.6 -1.05 4.55 -1.4 Q4.75 -2.0 4.55 -2.7 L4.6 -3.85 5.1 -4.05 Q6.25 -3.95 5.85 -2.65 L5.7 -2.0 Q6.5 -0.9 5.95 0.35 L5.75 0.5 5.65 0.85 4.95 1.65 4.85 1.75 Q5.2 1.3 4.45 1.05 L4.3 1.1 Q3.6 1.5 4.25 1.95 L4.4 2.05 Q3.85 2.15 3.45 1.45 L3.4 1.1 4.15 0.65 Q4.65 0.2 4.45 -0.4 L4.3 -0.75 M5.6 -0.05 Q6.25 -0.7 5.35 -1.0 L5.15 -0.95 Q4.5 -0.5 5.15 0.0 L5.6 -0.05 M5.45 -2.4 L5.3 -2.4 5.25 -2.35 5.2 -2.25 5.2 -2.2 5.25 -2.1 5.45 -2.1 5.5 -2.2 5.55 -2.25 5.5 -2.3 5.45 -2.4 M-6.65 -0.85 Q-6.45 -0.7 -6.25 -0.85 -5.55 -1.45 -6.45 -1.75 L-6.6 -1.7 Q-7.3 -1.3 -6.65 -0.85 M-4.5 -2.1 L-4.5 -2.2 -4.35 -2.4 -4.3 -2.3 -4.2 -2.2 -4.5 -2.1 M-3.4 2.5 L-3.55 2.65 Q-3.85 2.9 -3.65 3.25 L-2.85 3.3 Q-2.3 2.55 -3.4 2.5 M-0.4 2.2 L-0.7 2.5 Q-0.9 3.0 -0.4 3.2 L-0.05 3.2 Q0.9 2.6 -0.15 2.15 L-0.35 2.2 -0.4 2.2 M-2.15 2.05 Q-2.35 2.8 -1.55 2.85 -1.35 2.85 -1.25 2.7 -0.55 1.9 -1.55 1.6 -2.0 1.6 -2.15 2.05 M-0.15 1.45 L-0.15 1.4 Q0.6 0.3 -0.65 -0.05 L-1.1 0.1 -1.4 0.6 Q-1.4 1.85 -0.15 1.45 M-0.9 5.25 L-0.8 5.2 -0.7 5.1 -0.65 5.05 Q-0.35 4.2 -1.3 4.2 -1.65 4.3 -1.65 4.7 -1.7 5.4 -0.9 5.25" fill="#c2b2d7" fill-rule="evenodd" stroke="none"/>
    <path d="M-4.05 -0.1 L-4.15 -0.15 Q-4.25 -0.7 -4.9 -0.85 L-4.9 -0.95 -4.8 -1.4 -4.7 -2.0 -4.6 -2.0 -4.5 -2.1 -4.2 -2.2 -4.0 -2.6 -4.05 -1.65 -3.9 -1.25 Q-3.55 -0.85 -3.2 -0.9 L-3.15 -0.85 -3.05 -0.7 -3.05 -0.65 -3.05 -0.55 -3.0 -0.5 -2.95 -0.4 -2.65 -0.45 -2.9 0.0 -4.05 -0.1 M-7.0 1.3 Q-6.75 1.3 -6.55 1.45 L-6.65 2.1 Q-6.5 2.7 -6.05 2.8 L-6.0 2.9 -5.95 3.05 -5.8 3.3 -5.75 3.4 Q-5.35 4.1 -4.6 4.3 L-4.5 4.3 Q-3.1 4.15 -2.35 5.25 L-2.2 5.6 -2.2 6.25 Q-1.4 6.6 -0.6 7.1 L-0.5 6.9 1.1 6.7 2.0 6.35 2.7 6.15 3.0 5.9 2.95 5.7 Q2.85 5.25 3.2 4.95 L4.0 4.8 Q3.85 4.1 4.4 3.65 L4.55 3.5 Q5.75 2.3 7.1 1.35 7.25 0.55 6.55 0.05 L6.4 -0.15 Q6.2 -0.55 6.55 -0.9 7.4 -1.85 7.15 -3.1 L7.15 -3.25 Q8.35 -2.9 7.85 -1.4 L7.8 -1.3 7.65 -1.0 7.4 -0.75 Q8.5 1.4 6.95 3.35 6.7 3.7 6.1 3.75 L6.1 4.2 Q6.0 5.2 5.25 5.95 L4.85 6.2 3.55 8.0 3.1 8.15 2.85 8.2 2.7 8.25 2.6 8.25 0.7 8.25 0.75 8.3 0.4 8.25 0.3 8.2 -0.4 8.05 -1.55 7.65 Q-2.25 7.45 -2.7 6.9 -3.25 6.25 -3.3 5.45 L-3.3 5.4 -3.35 5.4 Q-4.3 5.6 -5.1 4.95 L-5.45 4.55 Q-7.5 3.85 -7.2 1.85 L-7.0 1.3 M2.25 1.15 L2.55 1.1 2.95 0.8 3.0 0.75 3.05 0.25 3.2 0.15 3.25 0.1 3.45 -0.05 3.6 -0.6 3.7 -0.8 3.75 -0.8 3.9 -0.75 4.3 -0.75 4.45 -0.4 Q4.65 0.2 4.15 0.65 L3.4 1.1 3.3 1.1 3.15 1.15 Q2.65 1.5 2.25 1.15" fill="#715b8e" fill-rule="evenodd" stroke="none"/>
    <path d="M-3.8 -3.55 L-3.8 -3.5 -3.85 -3.55 -3.8 -3.55 M-1.0 -3.0 Q-0.6 -2.8 -0.8 -2.15 L-1.1 -1.35 Q-1.5 -0.3 -2.45 -0.2 L-2.35 0.05 -2.25 0.7 -2.45 0.7 Q-3.0 0.75 -3.4 1.15 -3.45 0.7 -3.8 0.4 L-3.95 0.2 -4.05 -0.1 -2.9 0.0 -2.65 -0.45 -2.45 -0.5 -2.45 -0.6 -2.4 -0.8 Q-1.8 -1.3 -1.5 -2.0 L-1.4 -2.1 -1.3 -2.45 -1.2 -2.6 -1.0 -3.0 M-7.8 -1.45 L-7.95 -1.15 -8.0 -0.6 -7.75 0.45 Q-8.4 -0.2 -7.8 -1.45 M-5.8 3.3 L-3.05 3.55 -2.95 3.75 -2.65 4.1 -2.55 4.7 Q-2.05 6.3 -0.45 5.95 L-0.3 5.7 -0.1 5.4 0.3 5.4 2.25 5.45 Q2.75 5.0 2.6 4.35 L2.6 3.95 Q3.05 2.35 1.6 1.75 L1.45 1.4 0.5 0.45 0.4 0.2 0.35 0.0 0.5 -0.25 0.55 -0.2 0.75 -0.15 0.85 0.05 1.0 0.15 Q1.25 1.2 2.25 1.15 2.65 1.5 3.15 1.15 L3.3 1.1 3.4 1.1 3.45 1.45 Q3.85 2.15 4.4 2.05 L4.65 1.95 4.85 1.75 4.95 1.65 5.65 0.85 Q5.6 1.2 6.0 1.45 L6.5 1.45 6.7 1.2 Q7.15 0.3 6.05 0.25 L5.95 0.35 Q6.5 -0.9 5.7 -2.0 L5.85 -2.65 Q6.25 -3.95 5.1 -4.05 L5.2 -4.05 5.35 -4.05 Q6.0 -3.95 6.35 -3.4 L6.4 -3.35 7.15 -3.25 7.15 -3.1 Q7.4 -1.85 6.55 -0.9 6.2 -0.55 6.4 -0.15 L6.55 0.05 Q7.25 0.55 7.1 1.35 5.75 2.3 4.55 3.5 L4.4 3.65 Q3.85 4.1 4.0 4.8 L3.2 4.95 Q2.85 5.25 2.95 5.7 L3.0 5.9 2.7 6.15 2.0 6.35 1.1 6.7 -0.5 6.9 -0.6 7.1 Q-1.4 6.6 -2.2 6.25 L-2.2 5.6 -2.35 5.25 Q-3.1 4.15 -4.5 4.3 L-4.6 4.3 Q-5.35 4.1 -5.75 3.4 L-5.8 3.3 M3.0 0.75 L2.9 0.75 Q2.1 0.75 2.45 0.0 L2.75 -0.75 2.8 -0.9 Q1.9 -1.55 1.4 -2.45 1.3 -2.65 1.35 -2.9 L1.45 -3.55 1.55 -3.25 1.95 -2.35 Q2.5 -1.25 3.6 -0.85 L3.6 -0.6 3.45 -0.05 3.25 0.1 3.2 0.15 3.05 0.2 3.05 0.25 3.0 0.75" fill="#8e7aa9" fill-rule="evenodd" stroke="none"/>
    <path d="M-4.15 -0.15 L-4.25 0.5 -4.5 0.9 Q-5.65 1.35 -5.9 0.15 -6.05 -0.4 -5.6 -0.75 L-5.05 -0.9 -4.9 -0.85 Q-4.25 -0.7 -4.15 -0.15 M-4.7 -2.0 Q-5.9 -1.95 -5.45 -3.05 -5.3 -3.35 -4.95 -3.35 L-4.5 -3.15 -4.25 -2.75 -4.25 -2.65 -4.35 -2.4 -4.5 -2.2 -4.5 -2.1 -4.6 -2.0 -4.7 -2.0 M-6.55 1.45 L-6.15 1.1 -6.1 1.1 Q-4.85 1.05 -5.1 2.2 -5.15 2.55 -5.45 2.7 L-6.05 2.8 Q-6.5 2.7 -6.65 2.1 L-6.55 1.45 M4.4 2.05 L4.25 1.95 Q3.6 1.5 4.3 1.1 L4.45 1.05 Q5.2 1.3 4.85 1.75 L4.65 1.95 4.4 2.05 M5.65 0.85 L5.75 0.5 5.95 0.35 6.05 0.25 Q7.15 0.3 6.7 1.2 L6.5 1.45 6.0 1.45 Q5.6 1.2 5.65 0.85 M5.45 -2.4 L5.5 -2.3 5.55 -2.25 5.5 -2.2 5.45 -2.1 5.25 -2.1 5.2 -2.2 5.2 -2.25 5.25 -2.35 5.3 -2.4 5.45 -2.4 M5.6 -0.05 L5.15 0.0 Q4.5 -0.5 5.15 -0.95 L5.35 -1.0 Q6.25 -0.7 5.6 -0.05 M-6.65 -0.85 Q-7.3 -1.3 -6.6 -1.7 L-6.45 -1.75 Q-5.55 -1.45 -6.25 -0.85 -6.45 -0.7 -6.65 -0.85 M-0.15 1.45 Q-1.4 1.85 -1.4 0.6 L-1.1 0.1 -0.65 -0.05 Q0.6 0.3 -0.15 1.4 L-0.15 1.45 M-2.15 2.05 Q-2.0 1.6 -1.55 1.6 -0.55 1.9 -1.25 2.7 -1.35 2.85 -1.55 2.85 -2.35 2.8 -2.15 2.05 M-0.4 2.2 L-0.35 2.2 -0.15 2.15 Q0.9 2.6 -0.05 3.2 L-0.4 3.2 Q-0.9 3.0 -0.7 2.5 L-0.4 2.2 M-3.4 2.5 Q-2.3 2.55 -2.85 3.3 L-3.65 3.25 Q-3.85 2.9 -3.55 2.65 L-3.4 2.5 M-0.9 5.25 Q-1.7 5.4 -1.65 4.7 -1.65 4.3 -1.3 4.2 -0.35 4.2 -0.65 5.05 L-0.7 5.1 -0.8 5.2 -0.9 5.25" fill="#ffffff" fill-rule="evenodd" stroke="none"/>
  </g>
</svg>
