<?xml version="1.0" encoding="UTF-8" standalone="no"?>
<svg xmlns:xlink="http://www.w3.org/1999/xlink" height="11.05px" width="10.2px" xmlns="http://www.w3.org/2000/svg">
  <g transform="matrix(1.0, 0.0, 0.0, 1.0, 5.05, 5.5)">
    <path d="M2.6 -3.8 L2.6 -3.85 2.25 -4.2 1.9 -4.45 1.5 -4.7 1.35 -4.75 0.85 -4.95 0.55 -5.0 0.5 -5.0 0.4 -5.0 0.0 -5.05 -0.05 -5.0 -0.15 -5.0 -0.2 -5.0 -0.55 -4.9 -0.6 -4.9 -0.7 -4.9 -0.8 -4.85 -1.65 -4.45 -1.9 -4.25 -1.95 -4.2 -2.05 -4.1 -2.05 -4.05 -2.2 -3.85 -2.6 -3.2 -2.65 -3.1 -2.75 -2.9 -2.75 -2.8 -2.8 -2.75 -2.9 -2.4 -2.95 -2.15 -3.0 -1.95 -3.05 -1.8 -3.1 -1.45 -3.1 -1.55 -3.1 -1.2 Q-3.3 0.3 -2.5 1.6 L-2.5 1.65 -2.3 2.05 -2.25 2.1 Q-1.45 3.0 -1.05 4.15 L-0.95 4.85 -1.0 4.85 -0.3 4.9 0.65 4.85 0.65 4.75 Q0.85 3.5 1.85 2.65 L2.85 1.3 3.45 -0.7 3.4 -1.2 3.4 -1.25 3.4 -1.55 3.4 -1.7 3.4 -1.95 3.4 -2.0 3.2 -2.95 3.15 -3.0 3.1 -3.15 2.6 -3.8 M2.15 0.95 L2.15 1.0 2.05 1.1 2.0 1.1 1.75 1.05 Q1.25 0.9 1.35 0.35 L1.45 0.25 1.6 0.25 1.5 0.15 1.45 0.0 1.45 -0.1 0.7 -0.55 0.5 -0.65 0.45 -0.7 0.45 -0.8 0.5 -0.85 0.55 -0.9 0.6 -0.95 0.7 -0.95 0.85 -0.9 0.9 -0.9 1.15 -0.85 1.75 -0.5 1.75 -0.45 2.05 -1.2 2.2 -2.3 2.15 -2.8 2.1 -3.0 2.1 -3.05 1.8 -3.4 1.5 -3.6 1.45 -3.6 1.4 -3.65 1.35 -3.7 0.45 -4.0 -0.2 -3.95 -0.55 -3.85 Q-1.55 -3.3 -1.75 -2.2 L-1.8 -1.0 -1.7 -0.75 -1.65 -0.45 -1.45 -0.55 -0.85 -0.95 -0.65 -1.05 -0.5 -1.1 -0.3 -1.05 -0.35 -0.75 -0.6 -0.55 Q-1.0 -0.35 -1.35 -0.2 L-1.85 0.2 -2.1 0.65 -1.8 0.75 -1.7 0.65 -1.1 0.45 Q-0.65 0.6 -0.95 0.9 L-1.15 1.05 -1.45 1.3 -1.75 1.35 -1.9 1.35 -2.0 1.25 -2.0 1.15 -2.0 1.1 -1.95 0.95 -2.15 0.95 -2.2 0.85 -2.15 0.45 -2.2 0.45 -2.0 -0.1 Q-2.25 -0.6 -2.3 -1.25 -2.3 -2.25 -1.9 -3.15 L-1.5 -3.75 Q-0.9 -4.3 -0.1 -4.4 L1.25 -4.15 1.85 -3.8 Q2.35 -3.4 2.45 -2.65 2.6 -1.65 2.35 -0.8 L2.0 0.0 2.35 0.4 2.3 0.5 2.25 0.6 1.95 0.55 1.7 0.4 1.9 0.6 2.15 0.9 2.15 0.95 M1.75 1.4 Q1.9 1.65 1.65 1.9 L1.6 1.95 1.5 1.9 1.5 1.85 Q1.45 1.65 1.55 1.45 L1.6 1.4 1.7 1.35 1.75 1.4 M1.35 2.0 L1.35 2.3 1.1 2.7 0.8 2.55 Q0.75 2.45 0.85 2.25 L0.9 2.2 0.9 2.1 0.85 2.0 0.9 1.7 1.05 1.35 1.2 1.4 1.35 2.0 M0.5 2.4 L0.45 2.9 0.0 3.55 -0.2 3.55 -0.3 3.45 -0.25 3.35 -0.2 3.1 -0.1 2.05 -0.05 1.85 0.0 1.85 0.05 1.75 0.1 1.75 0.4 1.95 0.45 2.1 0.45 2.15 0.5 2.4 M-0.55 3.45 L-0.6 3.5 -0.75 3.5 Q-1.15 3.05 -1.05 2.5 L-1.05 2.4 -1.0 2.4 -1.0 2.35 -0.95 2.35 -0.9 2.3 -0.8 2.4 -0.6 2.9 -0.6 2.95 -0.55 3.35 -0.55 3.4 -0.55 3.45 M-0.9 2.1 L-0.95 2.2 -1.2 2.15 -1.15 1.75 -0.95 1.55 -0.9 1.5 -0.7 1.65 -0.7 1.7 -0.9 2.1 M2.45 -4.6 L2.75 -4.25 3.5 -3.25 3.6 -2.35 3.6 -2.3 3.65 -1.85 3.7 -1.8 3.7 -1.65 4.3 -1.2 4.7 -0.55 4.85 0.35 4.95 0.7 5.15 2.35 5.0 2.9 Q4.65 3.0 4.5 2.7 L4.45 2.6 3.75 2.0 3.7 2.4 3.7 2.65 3.4 3.55 Q2.65 4.6 1.4 5.15 L-1.15 5.35 Q-2.6 4.8 -3.35 3.5 L-3.45 3.25 -3.5 3.0 -3.5 2.85 -3.6 2.8 -3.6 2.35 -3.55 2.4 -3.55 2.25 -3.6 1.7 -3.6 2.3 -4.65 2.8 -4.8 2.8 Q-5.2 2.65 -5.0 2.35 L-5.05 2.05 -4.75 -0.1 Q-4.55 -1.1 -3.7 -1.55 L-3.5 -1.55 -3.45 -2.1 -3.35 -2.65 -2.95 -3.4 -2.7 -3.85 -1.8 -4.75 -1.7 -4.8 -1.6 -4.9 -0.85 -5.3 -0.5 -5.45 -0.45 -5.45 -0.3 -5.5 0.8 -5.45 0.9 -5.4 0.95 -5.45 1.0 -5.45 1.1 -5.4 1.5 -5.2 2.3 -4.7 2.45 -4.6 M3.75 -1.25 L3.7 -1.25 3.7 -1.2 3.7 -1.25 3.7 -0.75 3.7 -0.65 3.7 -0.55 3.75 -0.15 3.75 -0.05 3.75 0.6 3.75 0.95 3.75 1.25 3.75 1.5 3.9 1.6 5.0 2.55 4.55 -0.25 4.45 -0.65 3.75 -1.25 M3.3 0.75 L2.55 1.95 1.35 3.9 1.15 4.55 1.1 4.75 2.0 4.4 2.2 4.3 Q2.9 3.5 3.2 2.5 L3.4 1.6 3.45 1.5 3.45 1.35 3.45 1.25 3.5 1.1 3.5 0.25 3.3 0.75 M-1.3 -3.75 L-1.3 -3.8 -1.4 -3.75 -1.3 -3.75 M-3.95 1.75 L-3.6 1.45 -3.6 1.15 -3.6 0.55 -3.6 -0.45 -3.55 -1.3 -4.35 -0.65 -4.45 -0.1 -4.9 2.55 -3.95 1.75 M-3.15 1.45 L-3.15 1.55 -3.15 1.9 -3.15 1.95 -3.1 2.35 -3.05 2.55 -3.0 2.85 -2.95 3.05 -2.9 3.15 -2.85 3.45 Q-2.5 4.3 -1.75 4.6 L-1.25 4.8 -1.25 4.75 -1.25 4.6 -1.3 4.5 -1.3 4.4 -1.35 4.35 -1.35 4.3 Q-1.65 3.5 -2.25 2.9 L-3.15 1.45" fill="#000000" fill-rule="evenodd" stroke="none"/>
    <path d="M3.7 -0.75 L3.7 -1.25 3.7 -1.2 3.7 -0.75" fill="#e3b18b" fill-rule="evenodd" stroke="none"/>
    <path d="M2.45 -4.6 L2.3 -4.7 1.5 -5.2 2.2 -4.8 2.45 -4.6" fill="#99ffff" fill-rule="evenodd" stroke="none"/>
    <path d="M3.75 -1.25 L3.7 -1.2 3.7 -1.25 3.75 -1.25" fill="#edcdb6" fill-rule="evenodd" stroke="none"/>
    <path d="M-3.6 2.3 L-3.6 1.7 -3.55 2.25 -3.55 2.4 -3.6 2.35 -3.6 2.3" fill="#ad7a3f" fill-rule="evenodd" stroke="none"/>
    <path d="M-1.3 -3.75 L-1.4 -3.75 -1.3 -3.8 -1.3 -3.75" fill="#9900cc" fill-rule="evenodd" stroke="none"/>
    <path d="M1.5 -3.6 L1.8 -3.4 2.1 -3.05 2.1 -3.0 2.15 -2.8 2.2 -2.3 2.05 -1.2 1.75 -0.45 1.75 -0.5 1.15 -0.85 Q1.55 -1.25 1.75 -1.8 2.05 -2.45 1.85 -3.1 L1.7 -3.45 1.5 -3.6 M-1.7 -0.75 L-1.45 -0.55 -1.65 -0.45 -1.7 -0.75 M3.7 -1.2 L3.75 -1.25 4.45 -0.65 4.55 -0.25 3.9 1.6 3.75 1.5 3.75 1.25 3.75 0.95 3.75 0.6 3.75 -0.05 3.75 -0.15 3.7 -0.55 3.7 -0.65 3.7 -0.75 3.7 -1.2 M3.3 0.75 L3.5 0.25 3.5 1.1 3.45 1.25 3.45 1.35 3.45 1.5 3.4 1.6 3.2 2.5 Q2.9 3.5 2.2 4.3 L2.0 4.4 1.1 4.75 1.15 4.55 1.35 3.9 2.55 1.95 3.3 0.75 M-3.15 1.45 L-2.25 2.9 Q-1.65 3.5 -1.35 4.3 L-1.35 4.35 -1.3 4.4 -1.3 4.5 -1.25 4.6 -1.25 4.75 -1.25 4.8 -1.75 4.6 Q-2.5 4.3 -2.85 3.45 L-2.9 3.15 -2.95 3.05 -3.0 2.85 -3.05 2.55 -3.1 2.35 -3.15 1.95 -3.15 1.9 -3.15 1.55 -3.15 1.45" fill="#6666ff" fill-rule="evenodd" stroke="none"/>
    <path d="M-2.5 1.6 Q-3.3 0.3 -3.1 -1.2 L-3.1 -1.55 -3.1 -1.45 -3.05 -1.8 -3.0 -1.95 -2.95 -2.15 -2.9 -2.4 -2.95 -2.2 Q-2.55 -1.9 -2.35 -2.4 -2.1 -2.95 -2.65 -3.1 L-2.6 -3.2 -2.2 -3.85 -2.05 -4.05 -1.9 -3.9 -1.7 -3.9 -1.55 -4.0 Q-1.4 -4.35 -1.65 -4.45 L-0.8 -4.85 -0.6 -4.55 -0.4 -4.55 -0.25 -4.7 Q-0.15 -4.85 -0.2 -5.0 L-0.15 -5.0 -0.05 -5.0 0.0 -5.05 0.4 -5.0 0.5 -5.0 0.55 -5.0 0.85 -4.95 Q0.75 -4.4 1.35 -4.5 L1.5 -4.7 1.9 -4.45 2.25 -4.2 2.6 -3.85 2.55 -3.85 2.5 -3.8 2.45 -3.75 2.4 -3.6 2.45 -3.5 2.5 -3.45 2.65 -3.45 2.7 -3.45 2.65 -3.7 2.75 -3.25 Q3.15 -2.1 2.95 -0.8 2.8 0.25 2.15 0.95 L2.15 0.9 1.9 0.6 1.95 0.55 2.25 0.6 2.3 0.5 2.35 0.4 2.0 0.0 2.35 -0.8 Q2.6 -1.65 2.45 -2.65 2.35 -3.4 1.85 -3.8 L1.25 -4.15 -0.1 -4.4 Q-0.9 -4.3 -1.5 -3.75 L-1.9 -3.15 Q-2.3 -2.25 -2.3 -1.25 -2.25 -0.6 -2.0 -0.1 L-2.2 0.45 -2.15 0.45 -2.2 0.85 -2.15 0.95 -2.0 1.1 -2.0 1.15 -2.5 1.6 M2.0 1.1 L1.75 1.35 1.75 1.05 2.0 1.1 M-1.4 1.55 L-1.6 1.45 -1.75 1.35 -1.45 1.3 -1.45 1.35 -1.4 1.55" fill="#996600" fill-rule="evenodd" stroke="none"/>
    <path d="M1.5 -3.6 L1.7 -3.45 1.85 -3.1 Q2.05 -2.45 1.75 -1.8 1.55 -1.25 1.15 -0.85 L0.9 -0.9 0.85 -0.95 0.35 -1.25 0.9 -1.85 1.05 -2.85 Q0.8 -3.65 -0.1 -3.55 -0.95 -3.35 -1.25 -2.5 -1.5 -1.8 -1.1 -1.25 L-0.95 -1.1 -0.65 -1.05 -0.85 -0.95 -1.45 -0.55 -1.7 -0.75 -1.8 -1.0 -1.75 -2.2 Q-1.55 -3.3 -0.55 -3.85 L-0.2 -3.95 0.45 -4.0 1.35 -3.7 1.4 -3.65 1.45 -3.6 1.5 -3.6 M4.55 -0.25 L5.0 2.55 3.9 1.6 4.55 -0.25 M-4.45 -0.1 L-4.35 -0.65 -3.55 -1.3 -3.6 -0.45 -3.6 0.55 -3.6 1.15 -3.6 1.45 -3.95 1.75 -4.0 1.45 -4.15 0.55 -4.45 -0.1" fill="#9999ff" fill-rule="evenodd" stroke="none"/>
    <path d="M-0.65 -1.05 L-0.95 -1.1 -1.1 -1.25 Q-1.5 -1.8 -1.25 -2.5 -0.95 -3.35 -0.1 -3.55 0.8 -3.65 1.05 -2.85 L0.9 -1.85 0.35 -1.25 -0.15 -1.05 -0.2 -1.05 -0.25 -1.05 -0.3 -1.05 -0.5 -1.1 -0.65 -1.05 M-4.45 -0.1 L-4.15 0.55 -4.0 1.45 -3.95 1.75 -4.9 2.55 -4.45 -0.1" fill="#99ccff" fill-rule="evenodd" stroke="none"/>
    <path d="M2.6 -3.8 L3.1 -3.15 3.15 -3.0 3.2 -2.95 3.4 -2.0 3.4 -1.95 3.4 -1.7 3.4 -1.55 3.4 -1.25 3.4 -1.2 3.45 -0.7 2.85 1.3 1.85 2.65 Q0.85 3.5 0.65 4.75 L0.65 4.85 -0.3 4.9 -1.0 4.85 -0.95 4.85 -1.05 4.15 Q-1.45 3.0 -2.25 2.1 L-2.3 2.05 -2.5 1.65 -2.5 1.6 -2.0 1.15 -2.0 1.25 -1.9 1.35 -1.75 1.35 -1.6 1.45 -1.4 1.55 -1.15 1.75 -1.2 2.15 -0.95 2.2 -0.9 2.1 -0.9 2.15 -0.95 2.35 -1.0 2.35 -1.0 2.4 -1.05 2.4 -1.05 2.5 Q-1.15 3.05 -0.75 3.5 L-0.6 3.5 -0.55 3.45 -0.35 3.4 -0.25 3.35 -0.3 3.45 -0.2 3.55 0.0 3.55 0.45 2.9 0.5 2.4 0.8 2.55 1.1 2.7 1.35 2.3 1.35 2.0 1.45 1.85 1.5 1.85 1.5 1.9 1.6 1.95 1.65 1.9 Q1.9 1.65 1.75 1.4 L1.75 1.35 2.0 1.1 2.05 1.1 2.15 1.0 2.15 0.95 Q2.8 0.25 2.95 -0.8 3.15 -2.1 2.75 -3.25 L2.65 -3.7 2.6 -3.8" fill="#663333" fill-rule="evenodd" stroke="none"/>
    <path d="M2.6 -3.85 L2.6 -3.8 2.65 -3.7 2.7 -3.45 2.65 -3.45 2.5 -3.45 2.45 -3.5 2.4 -3.6 2.45 -3.75 2.5 -3.8 2.55 -3.85 2.6 -3.85 M-2.9 -2.4 L-2.8 -2.75 -2.75 -2.8 -2.75 -2.9 -2.65 -3.1 Q-2.1 -2.95 -2.35 -2.4 -2.55 -1.9 -2.95 -2.2 L-2.9 -2.4 M-2.05 -4.05 L-2.05 -4.1 -1.95 -4.2 -1.9 -4.25 -1.65 -4.45 Q-1.4 -4.35 -1.55 -4.0 L-1.7 -3.9 -1.9 -3.9 -2.05 -4.05 M-0.8 -4.85 L-0.7 -4.9 -0.6 -4.9 -0.55 -4.9 -0.2 -5.0 Q-0.15 -4.85 -0.25 -4.7 L-0.4 -4.55 -0.6 -4.55 -0.8 -4.85 M0.85 -4.95 L1.35 -4.75 1.5 -4.7 1.35 -4.5 Q0.75 -4.4 0.85 -4.95" fill="#cc9900" fill-rule="evenodd" stroke="none"/>
    <path d="M1.75 1.35 L1.75 1.4 1.7 1.35 1.6 1.4 1.55 1.45 Q1.45 1.65 1.5 1.85 L1.45 1.85 1.35 2.0 1.2 1.4 1.05 1.35 0.9 1.7 0.65 1.55 0.6 1.6 0.4 1.95 0.1 1.75 0.05 1.75 0.0 1.85 -0.05 1.85 -0.4 1.7 Q-0.85 1.95 -0.8 2.4 L-0.9 2.3 -0.95 2.35 -0.9 2.15 -0.9 2.1 -0.7 1.7 -0.7 1.65 -0.9 1.5 -0.95 1.55 -1.15 1.75 -1.4 1.55 -1.45 1.35 -1.45 1.3 -1.15 1.05 Q-0.75 1.25 -0.45 0.8 L0.25 0.55 0.5 0.6 Q0.75 0.5 0.8 0.2 L0.65 -0.35 0.7 -0.55 1.45 -0.1 1.45 0.0 1.5 0.15 1.6 0.25 1.45 0.25 1.35 0.35 Q1.25 0.9 1.75 1.05 L1.75 1.35 M-0.25 3.35 L-0.35 3.4 -0.55 3.45 -0.55 3.4 -0.55 3.35 -0.6 2.95 -0.6 2.9 -0.3 3.05 -0.2 3.1 -0.25 3.35 M0.9 -0.9 L0.85 -0.9 0.85 -0.95 0.9 -0.9 M1.95 0.55 L1.9 0.6 1.7 0.4 1.95 0.55 M0.9 2.1 L0.9 2.2 0.85 2.2 0.85 2.15 0.9 2.1 M-2.15 0.95 L-1.95 0.95 -2.0 1.1 -2.15 0.95" fill="#cc0000" fill-rule="evenodd" stroke="none"/>
    <path d="M0.8 2.55 L0.5 2.4 0.45 2.15 0.45 2.1 0.4 1.95 0.6 1.6 0.65 1.55 0.9 1.7 0.85 2.0 0.9 2.1 0.85 2.15 0.85 2.2 0.9 2.2 0.85 2.25 Q0.75 2.45 0.8 2.55 M0.85 -0.9 L0.7 -0.95 0.6 -0.95 0.55 -0.9 0.5 -0.85 0.45 -0.8 0.45 -0.7 0.5 -0.65 0.7 -0.55 0.65 -0.35 0.8 0.2 Q0.75 0.5 0.5 0.6 L0.25 0.55 -0.45 0.8 Q-0.75 1.25 -1.15 1.05 L-0.95 0.9 Q-0.65 0.6 -1.1 0.45 L-1.7 0.65 -1.8 0.75 -2.1 0.65 -1.85 0.2 -1.35 -0.2 Q-1.0 -0.35 -0.6 -0.55 L-0.35 -0.75 -0.3 -1.05 -0.25 -1.05 -0.2 -1.05 -0.15 -1.05 0.35 -1.25 0.85 -0.95 0.85 -0.9 M-0.05 1.85 L-0.1 2.05 -0.2 3.1 -0.3 3.05 -0.6 2.9 -0.8 2.4 Q-0.85 1.95 -0.4 1.7 L-0.05 1.85" fill="#ff6600" fill-rule="evenodd" stroke="none"/>
  </g>
</svg>
