<?xml version="1.0" encoding="UTF-8" standalone="no"?>
<svg xmlns:xlink="http://www.w3.org/1999/xlink" height="28.2px" width="31.45px" xmlns="http://www.w3.org/2000/svg">
  <g transform="matrix(1.0, 0.0, 0.0, 1.0, 15.75, 14.5)">
    <path d="M9.6 -2.8 L9.9 -3.45 10.0 -3.65 10.65 -4.95 10.65 -5.05 10.7 -5.1 10.8 -5.3 10.95 -5.65 10.95 -5.85 11.05 -6.45 11.1 -6.8 11.15 -6.85 10.9 -7.5 9.6 -9.05 9.35 -9.4 9.05 -9.65 8.85 -10.1 8.85 -10.85 9.0 -11.15 9.2 -11.25 9.75 -10.85 10.2 -10.5 10.5 -10.55 10.5 -10.9 9.9 -12.3 9.45 -12.95 Q8.95 -13.4 9.0 -14.0 L9.05 -14.2 9.1 -14.3 9.55 -14.45 10.05 -14.5 10.85 -14.05 12.0 -13.3 13.0 -12.25 14.15 -10.25 Q15.3 -7.9 15.6 -5.35 L15.65 -2.9 Q15.45 -0.75 14.3 0.8 L13.55 1.55 13.3 1.8 12.1 1.9 11.6 1.95 11.5 1.8 11.5 1.5 11.7 1.2 13.25 1.2 14.3 0.15 Q14.95 -0.55 15.15 -1.7 15.45 -3.2 15.1 -4.75 L14.4 -8.25 13.85 -9.8 13.3 -10.8 12.6 -12.0 Q11.45 -13.65 9.65 -13.95 L9.6 -13.95 9.6 -13.9 10.4 -12.85 Q11.6 -11.6 10.95 -10.05 9.95 -10.0 9.25 -10.65 L9.3 -9.7 9.65 -9.45 9.9 -9.05 10.95 -8.55 11.05 -8.45 11.25 -7.6 11.45 -6.25 11.1 -4.9 10.7 -4.1 9.85 -3.05 9.7 -2.9 9.6 -2.8 M-10.5 3.25 L-10.45 3.2 -10.25 3.6 -9.9 5.2 -10.75 6.55 -11.15 7.5 -11.3 8.6 -11.15 9.1 -11.05 9.4 -10.6 9.95 -10.3 10.3 -9.85 10.85 -9.85 11.0 -10.15 11.25 -11.1 11.05 -11.2 11.0 -11.1 11.3 -10.75 11.95 -10.4 12.5 -10.25 13.05 -10.35 13.4 -11.75 13.7 -12.65 13.4 -12.95 13.2 -14.2 11.75 -15.15 9.35 -15.25 8.9 Q-15.8 7.5 -15.75 6.0 L-15.65 5.3 Q-15.45 3.85 -14.75 2.5 L-14.6 2.3 -13.75 2.05 Q-13.6 2.25 -13.75 2.55 L-13.8 2.7 -14.3 3.2 -14.8 3.75 -14.95 4.1 -15.0 4.1 -15.1 5.0 -15.2 5.75 Q-15.4 8.15 -14.45 10.25 L-13.85 11.35 -12.45 13.2 -10.7 13.25 Q-10.9 12.65 -11.25 12.2 -11.7 11.6 -11.75 10.9 L-11.55 10.35 Q-11.15 10.45 -10.75 10.65 L-10.45 10.7 -10.15 10.75 -10.1 10.75 -10.6 10.2 -10.3 10.55 -11.3 9.65 Q-11.7 9.05 -11.75 8.3 -11.8 7.35 -11.45 6.5 L-10.4 4.8 -10.45 4.65 -10.55 4.35 -10.65 4.2 -10.55 4.05 Q-10.35 3.6 -10.5 3.25" fill="#000000" fill-rule="evenodd" stroke="none"/>
    <path d="M9.6 -13.9 L9.6 -13.95 9.65 -13.95 9.6 -13.9 M-15.0 4.1 L-14.95 4.1 -15.0 4.1" fill="#6666cc" fill-rule="evenodd" stroke="none"/>
    <path d="M9.6 -2.8 L9.7 -2.9 9.85 -3.05 10.7 -4.1 11.1 -4.9 11.45 -6.25 11.25 -7.6 11.05 -8.45 10.95 -8.55 9.9 -9.05 9.65 -9.45 9.3 -9.7 9.25 -10.65 Q9.95 -10.0 10.95 -10.05 11.6 -11.6 10.4 -12.85 L9.6 -13.9 9.65 -13.95 Q11.45 -13.65 12.6 -12.0 L13.3 -10.8 13.85 -9.8 14.4 -8.25 15.1 -4.75 Q15.45 -3.2 15.15 -1.7 14.95 -0.55 14.3 0.15 L13.25 1.2 11.7 1.2 Q10.65 1.05 10.15 0.25 9.75 -0.3 9.6 -1.15 9.45 -1.75 9.45 -2.3 L9.6 -2.8 M-10.5 3.25 Q-10.35 3.6 -10.55 4.05 L-10.65 4.2 -10.55 4.35 -10.45 4.65 -10.4 4.8 -11.45 6.5 Q-11.8 7.35 -11.75 8.3 -11.7 9.05 -11.3 9.65 L-10.3 10.55 -10.6 10.2 -10.1 10.75 -10.15 10.75 -10.45 10.7 -10.75 10.65 Q-11.15 10.45 -11.55 10.35 L-11.75 10.9 Q-11.7 11.6 -11.25 12.2 -10.9 12.65 -10.7 13.25 L-12.45 13.2 -13.85 11.35 -14.45 10.25 Q-15.4 8.15 -15.2 5.75 L-15.1 5.0 -15.0 4.1 -14.95 4.1 -14.8 3.75 -14.3 3.2 -13.8 2.7 -13.3 2.25 -13.15 2.2 -11.55 2.55 -11.4 2.6 Q-10.95 2.7 -10.65 3.0 L-10.5 3.25" fill="#999999" fill-rule="evenodd" stroke="none"/>
  </g>
</svg>
