<?xml version="1.0" encoding="UTF-8" standalone="no"?>
<svg xmlns:xlink="http://www.w3.org/1999/xlink" height="12.2px" width="21.9px" xmlns="http://www.w3.org/2000/svg">
  <g transform="matrix(1.0, 0.0, 0.0, 1.0, 11.1, 16.45)">
    <path d="M10.6 -14.4 L10.8 -12.95 Q10.9 -10.95 10.5 -8.95 L9.9 -7.35 9.8 -7.15 8.7 -5.4 7.8 -4.65 Q7.2 -4.15 6.5 -4.25 4.75 -4.55 4.25 -6.2 L4.1 -7.0 Q4.05 -8.35 4.45 -9.65 L5.85 -13.55 Q6.3 -14.9 7.2 -15.95 L7.4 -16.15 9.25 -16.05 Q9.35 -15.95 9.4 -16.0 L9.55 -15.95 10.1 -15.35 10.2 -15.05 10.6 -14.4 M10.2 -13.9 L9.4 -15.4 9.3 -15.5 Q8.55 -16.35 7.55 -16.05 L4.7 -9.8 Q3.25 -6.5 5.65 -4.8 6.35 -4.3 7.05 -4.8 8.7 -6.1 9.75 -8.05 L9.75 -8.5 9.85 -8.75 10.0 -9.85 10.4 -12.7 10.2 -13.9 M-9.5 -16.05 L-7.7 -16.15 -7.45 -15.95 Q-6.6 -14.9 -6.15 -13.55 L-4.75 -9.65 Q-4.35 -8.35 -4.4 -7.0 L-4.55 -6.2 Q-5.05 -4.55 -6.8 -4.25 -7.5 -4.15 -8.1 -4.65 L-9.0 -5.4 -10.05 -7.15 -10.15 -7.35 -10.8 -8.95 Q-11.2 -10.95 -11.05 -12.95 L-10.85 -14.4 -10.5 -15.05 -10.4 -15.35 -9.85 -15.95 -9.65 -16.0 -9.5 -16.05 M-7.85 -16.05 Q-8.85 -16.35 -9.6 -15.5 L-9.7 -15.4 -10.5 -13.9 -10.65 -12.7 -10.3 -9.85 -10.1 -8.75 -10.0 -8.5 -10.0 -8.05 Q-9.0 -6.1 -7.3 -4.8 -6.65 -4.3 -5.9 -4.8 -3.55 -6.5 -5.0 -9.8 L-7.85 -16.05" fill="#000000" fill-rule="evenodd" stroke="none"/>
    <path d="M10.2 -13.9 L10.4 -12.7 10.0 -9.85 9.85 -8.75 9.75 -8.5 9.75 -8.05 Q8.7 -6.1 7.05 -4.8 6.35 -4.3 5.65 -4.8 3.25 -6.5 4.7 -9.8 L7.55 -16.05 Q8.55 -16.35 9.3 -15.5 L9.4 -15.4 10.2 -13.9 M-7.85 -16.05 L-5.0 -9.8 Q-3.55 -6.5 -5.9 -4.8 -6.65 -4.3 -7.3 -4.8 -9.0 -6.1 -10.0 -8.05 L-10.0 -8.5 -10.1 -8.75 -10.3 -9.85 -10.65 -12.7 -10.5 -13.9 -9.7 -15.4 -9.6 -15.5 Q-8.85 -16.35 -7.85 -16.05" fill="#999999" fill-rule="evenodd" stroke="none"/>
  </g>
</svg>
