<?xml version="1.0" encoding="UTF-8" standalone="no"?>
<svg xmlns:xlink="http://www.w3.org/1999/xlink" height="12.15px" width="40.15px" xmlns="http://www.w3.org/2000/svg">
  <g transform="matrix(1.0, 0.0, 0.0, 1.0, 20.15, 10.25)">
    <path d="M11.05 -1.5 L11.2 -1.3 11.3 -1.2 11.3 -1.15 12.85 0.05 Q14.1 0.75 15.55 1.15 L16.2 1.35 16.25 1.35 17.05 0.5 17.25 0.35 18.75 -1.6 19.0 -2.15 19.15 -2.55 19.45 -5.95 19.45 -6.05 18.65 -8.7 18.4 -9.35 18.2 -9.6 18.0 -9.75 17.45 -9.85 17.45 -9.75 17.45 -9.5 17.45 -9.25 17.55 -8.5 17.4 -8.35 17.4 -8.3 16.25 -6.85 16.3 -5.85 16.5 -5.05 16.2 -3.8 15.3 -2.65 Q14.9 -2.3 14.6 -2.75 L14.25 -3.1 13.45 -3.85 12.95 -4.55 12.85 -4.45 11.7 -4.4 11.2 -4.05 10.75 -3.5 10.75 -3.25 10.75 -2.7 Q10.7 -2.05 11.0 -1.55 L11.05 -1.5 M18.3 -9.9 L18.4 -9.85 18.7 -9.45 19.6 -7.7 Q20.25 -5.7 19.85 -3.55 19.6 -2.2 19.0 -1.0 L18.95 -0.9 18.5 -0.2 17.0 1.3 16.1 1.75 15.8 1.9 Q14.4 1.95 13.1 1.2 L11.0 -0.7 10.9 -0.8 10.85 -1.0 10.8 -1.3 10.8 -1.35 10.45 -2.75 10.4 -3.85 10.75 -4.65 11.1 -4.9 11.2 -4.9 11.7 -5.05 12.55 -5.0 12.8 -4.8 12.9 -4.8 13.0 -4.75 13.05 -4.7 13.05 -4.6 13.35 -4.3 13.4 -4.2 13.45 -4.15 Q14.05 -3.55 14.8 -3.1 L14.95 -3.0 15.05 -3.0 15.45 -3.35 15.8 -3.95 15.9 -4.1 16.05 -4.75 15.95 -5.15 15.65 -5.8 15.6 -6.0 15.4 -7.0 15.35 -7.5 Q15.1 -8.3 15.7 -8.7 L15.95 -8.65 16.1 -8.5 16.2 -8.0 16.35 -7.85 16.45 -7.65 16.5 -7.65 16.5 -7.7 16.75 -8.2 16.8 -8.3 16.8 -8.15 16.95 -8.6 17.15 -9.95 17.3 -10.05 17.25 -10.1 17.35 -10.1 17.5 -10.2 17.5 -10.25 17.5 -10.2 17.65 -10.2 17.7 -10.15 17.95 -10.15 18.0 -10.05 18.3 -9.9 M13.7 0.95 L14.35 1.25 14.8 1.4 13.7 0.95 M-17.65 -10.2 L-17.6 -10.25 -17.6 -10.2 -17.45 -10.1 -17.4 -10.1 -17.4 -10.05 -17.3 -9.95 -17.1 -8.6 -16.95 -8.15 -16.9 -8.3 -16.9 -8.2 -16.6 -7.7 -16.6 -7.65 -16.55 -7.65 -16.45 -7.85 -16.35 -8.0 -16.2 -8.5 -16.05 -8.65 -15.85 -8.7 Q-15.25 -8.3 -15.45 -7.5 L-15.55 -7.0 -15.75 -6.0 -15.8 -5.8 -16.1 -5.15 -16.2 -4.75 -16.05 -4.1 -15.9 -3.95 -15.6 -3.35 -15.2 -3.0 -15.1 -3.0 -14.9 -3.1 -13.6 -4.15 -13.55 -4.2 -13.5 -4.3 -13.2 -4.6 -13.2 -4.7 -13.15 -4.75 -13.05 -4.8 -12.95 -4.8 -12.7 -5.0 -11.85 -5.05 -11.35 -4.9 -11.25 -4.9 -10.9 -4.65 -10.5 -3.85 -10.6 -2.75 -10.9 -1.35 -10.95 -1.35 -10.9 -1.3 -11.0 -1.0 -11.05 -0.8 -11.15 -0.7 Q-12.05 0.4 -13.25 1.2 -14.55 1.95 -15.9 1.9 L-16.25 1.75 -17.15 1.3 -18.65 -0.2 -19.1 -0.9 -19.15 -1.0 Q-19.75 -2.2 -20.0 -3.55 -20.4 -5.7 -19.75 -7.7 L-18.85 -9.45 -18.5 -9.85 -18.45 -9.9 -18.15 -10.05 -18.1 -10.15 -17.8 -10.15 -17.8 -10.2 -17.65 -10.2 M-11.15 -1.55 Q-10.85 -2.05 -10.9 -2.7 L-10.9 -3.25 -10.9 -3.5 -11.3 -4.05 -11.8 -4.4 -13.0 -4.45 -13.1 -4.55 -13.6 -3.85 -14.4 -3.1 -14.75 -2.75 Q-15.05 -2.3 -15.45 -2.65 L-16.35 -3.8 -16.65 -5.05 -16.45 -5.85 -16.4 -6.85 -17.55 -8.3 -17.55 -8.35 -17.65 -8.5 -17.6 -9.25 -17.55 -9.5 -17.55 -9.75 -17.6 -9.85 -18.1 -9.75 -18.35 -9.6 -18.55 -9.35 -18.8 -8.7 -19.6 -6.05 -19.55 -5.95 Q-19.6 -4.2 -19.3 -2.55 L-19.15 -2.15 -18.9 -1.6 Q-18.3 -0.5 -17.4 0.35 L-17.2 0.5 -16.4 1.35 -16.35 1.35 -15.7 1.15 Q-14.25 0.75 -13.0 0.05 L-11.45 -1.15 -11.45 -1.2 -11.35 -1.3 -11.15 -1.5 -11.15 -1.55 M-13.85 0.95 L-14.9 1.4 -14.5 1.25 -13.85 0.95" fill="#000000" fill-rule="evenodd" stroke="none"/>
    <path d="M13.7 0.95 L14.8 1.4 14.35 1.25 13.7 0.95 M-13.85 0.95 L-14.5 1.25 -14.9 1.4 -13.85 0.95" fill="#3399cc" fill-rule="evenodd" stroke="none"/>
    <path d="M11.0 -1.55 Q10.7 -2.05 10.75 -2.7 L10.75 -3.25 10.75 -3.5 11.2 -4.05 11.7 -4.4 12.85 -4.45 12.95 -4.55 13.45 -3.85 14.25 -3.1 14.6 -2.75 Q14.9 -2.3 15.3 -2.65 L16.2 -3.8 16.5 -5.05 16.3 -5.85 16.25 -6.85 17.4 -8.3 17.4 -8.35 17.55 -8.5 17.45 -9.25 17.45 -9.5 17.45 -9.75 17.45 -9.85 18.0 -9.75 18.2 -9.6 18.4 -9.35 18.65 -8.7 19.45 -6.05 19.45 -5.95 19.15 -2.55 19.0 -2.15 18.75 -1.6 17.25 0.35 17.05 0.5 16.25 1.35 16.2 1.35 15.55 1.15 Q14.1 0.75 12.85 0.05 L11.3 -1.15 11.3 -1.2 11.2 -1.3 11.05 -1.5 11.05 -1.55 11.0 -1.55 M-11.15 -1.5 L-11.35 -1.3 -11.45 -1.2 -11.45 -1.15 -13.0 0.05 Q-14.25 0.75 -15.7 1.15 L-16.35 1.35 -16.4 1.35 -17.2 0.5 -17.4 0.35 Q-18.3 -0.5 -18.9 -1.6 L-19.15 -2.15 -19.3 -2.55 Q-19.6 -4.2 -19.55 -5.95 L-19.6 -6.05 -18.8 -8.7 -18.55 -9.35 -18.35 -9.6 -18.1 -9.75 -17.6 -9.85 -17.55 -9.75 -17.55 -9.5 -17.6 -9.25 -17.65 -8.5 -17.55 -8.35 -17.55 -8.3 -16.4 -6.85 -16.45 -5.85 -16.65 -5.05 -16.35 -3.8 -15.45 -2.65 Q-15.05 -2.3 -14.75 -2.75 L-14.4 -3.1 -13.6 -3.85 -13.1 -4.55 -13.0 -4.45 -11.8 -4.4 -11.3 -4.05 -10.9 -3.5 -10.9 -3.25 -10.9 -2.7 Q-10.85 -2.05 -11.15 -1.55 L-11.15 -1.5" fill="#999999" fill-rule="evenodd" stroke="none"/>
  </g>
</svg>
