<?xml version="1.0" encoding="UTF-8" standalone="no"?>
<svg xmlns:xlink="http://www.w3.org/1999/xlink" height="10.3px" width="38.35px" xmlns="http://www.w3.org/2000/svg">
  <g transform="matrix(1.0, 0.0, 0.0, 1.0, 19.6, 2.4)">
    <path d="M6.8 -2.15 Q6.25 -2.0 5.9 -1.5 L5.8 -1.3 Q5.35 -0.55 5.95 0.2 L6.1 0.35 Q6.55 0.85 7.3 1.0 7.7 1.05 8.0 0.75 L8.05 0.7 8.2 0.75 8.4 0.95 11.9 1.95 Q12.45 2.15 13.0 2.5 L13.5 2.85 13.15 3.1 13.0 3.25 10.15 5.25 9.6 5.6 Q8.9 5.95 9.3 6.5 L9.3 6.55 9.3 6.65 Q9.3 7.1 9.55 7.35 L9.95 7.6 10.7 7.45 10.75 7.45 Q12.15 7.4 13.4 6.75 L13.85 6.5 16.4 4.75 17.85 3.4 18.2 2.8 18.3 2.6 18.4 2.1 18.15 1.4 18.1 1.35 18.05 1.35 18.0 1.35 17.95 1.25 17.85 1.05 17.65 0.85 Q16.5 0.0 15.2 -0.5 L13.85 -0.9 11.1 -1.5 9.75 -1.75 8.5 -1.9 7.35 -2.0 7.05 -2.05 7.0 -2.1 6.9 -2.15 6.8 -2.15 M6.9 -2.4 L7.2 -2.4 8.05 -2.35 10.75 -1.95 11.45 -1.85 13.65 -1.3 Q15.4 -1.05 16.9 -0.25 L17.05 -0.15 17.9 0.35 Q18.75 0.8 18.75 1.75 L18.7 2.05 18.65 2.6 18.1 3.7 16.7 5.25 16.45 5.45 15.8 5.8 15.65 5.9 13.1 7.4 12.35 7.7 9.5 7.75 9.2 7.6 Q8.25 6.95 8.6 5.85 L8.75 5.55 Q9.6 4.35 10.95 3.8 L11.9 3.25 12.35 2.95 Q10.2 1.95 7.9 1.5 L6.35 1.15 5.85 0.55 5.5 -0.05 5.45 -0.25 5.35 -0.55 Q5.2 -1.05 5.45 -1.55 5.85 -2.5 6.9 -2.4 M-17.75 -0.25 Q-16.25 -1.05 -14.45 -1.3 L-12.3 -1.85 -11.55 -1.95 -8.9 -2.35 -8.0 -2.4 -7.75 -2.4 Q-6.7 -2.5 -6.3 -1.55 -6.05 -1.05 -6.2 -0.55 L-6.3 -0.25 -6.35 -0.05 -6.7 0.55 -7.2 1.15 -8.75 1.5 Q-11.05 1.95 -13.2 2.95 L-12.75 3.25 -11.8 3.8 Q-10.45 4.35 -9.6 5.55 L-9.45 5.85 Q-9.1 6.95 -10.05 7.6 L-10.35 7.75 -13.2 7.7 -13.95 7.4 -16.5 5.9 -16.65 5.8 -17.3 5.45 -17.55 5.25 -18.95 3.7 -19.5 2.6 -19.55 2.05 -19.6 1.75 Q-19.6 0.8 -18.75 0.35 L-17.9 -0.15 -17.75 -0.25 M-10.55 -1.75 L-11.95 -1.5 -14.7 -0.9 -16.05 -0.5 Q-17.35 0.0 -18.5 0.85 L-18.7 1.05 -18.8 1.25 -18.8 1.35 -18.85 1.35 -18.95 1.35 -18.95 1.4 -19.25 2.1 -19.15 2.6 -19.05 2.8 -18.7 3.4 -17.25 4.75 -14.7 6.5 -14.25 6.75 Q-13.0 7.4 -11.6 7.45 L-11.55 7.45 -10.8 7.6 -10.4 7.35 Q-10.15 7.1 -10.15 6.65 L-10.15 6.55 -10.15 6.5 Q-9.75 5.95 -10.45 5.6 L-11.0 5.25 -13.8 3.25 -14.0 3.1 -14.35 2.85 -13.8 2.5 -12.75 1.95 -9.25 0.95 -9.0 0.75 -8.9 0.7 -8.85 0.75 Q-8.55 1.05 -8.15 1.0 L-6.9 0.35 -6.8 0.2 Q-6.2 -0.55 -6.65 -1.3 L-6.75 -1.5 -7.65 -2.15 -7.7 -2.15 -7.85 -2.1 -7.9 -2.05 -8.15 -2.0 -9.3 -1.9 -10.55 -1.75" fill="#000000" fill-rule="evenodd" stroke="none"/>
    <path d="M6.8 -2.15 L6.9 -2.15 7.0 -2.1 7.05 -2.05 7.35 -2.0 8.5 -1.9 9.75 -1.75 11.1 -1.5 13.85 -0.9 15.2 -0.5 Q16.5 0.0 17.65 0.85 L17.85 1.05 17.95 1.25 18.0 1.35 18.05 1.35 18.1 1.35 18.15 1.4 18.4 2.1 18.3 2.6 18.2 2.8 17.85 3.4 16.4 4.75 13.85 6.5 13.4 6.75 Q12.15 7.4 10.75 7.45 L10.7 7.45 9.95 7.6 9.55 7.35 Q9.3 7.1 9.3 6.65 L9.3 6.55 9.3 6.5 Q8.9 5.95 9.6 5.6 L10.15 5.25 13.0 3.25 13.15 3.1 13.5 2.85 13.0 2.5 Q12.45 2.15 11.9 1.95 L8.4 0.95 8.2 0.75 8.05 0.7 8.0 0.75 Q7.7 1.05 7.3 1.0 6.55 0.85 6.1 0.35 L5.95 0.2 Q5.35 -0.55 5.8 -1.3 L5.9 -1.5 Q6.25 -2.0 6.8 -2.15 M-10.55 -1.75 L-9.3 -1.9 -8.15 -2.0 -7.9 -2.05 -7.85 -2.1 -7.7 -2.15 -7.65 -2.15 -6.75 -1.5 -6.65 -1.3 Q-6.2 -0.55 -6.8 0.2 L-6.9 0.35 -8.15 1.0 Q-8.55 1.05 -8.85 0.75 L-8.9 0.7 -9.0 0.75 -9.25 0.95 -12.75 1.95 -13.8 2.5 -14.35 2.85 -14.0 3.1 -13.8 3.25 -11.0 5.25 -10.45 5.6 Q-9.75 5.95 -10.15 6.5 L-10.15 6.55 -10.15 6.65 Q-10.15 7.1 -10.4 7.35 L-10.8 7.6 -11.55 7.45 -11.6 7.45 Q-13.0 7.4 -14.25 6.75 L-14.7 6.5 -17.25 4.75 -18.7 3.4 -19.05 2.8 -19.15 2.6 -19.25 2.1 -18.95 1.4 -18.95 1.35 -18.85 1.35 -18.8 1.35 -18.8 1.25 -18.7 1.05 -18.5 0.85 Q-17.35 0.0 -16.05 -0.5 L-14.7 -0.9 -11.95 -1.5 -10.55 -1.75" fill="#999999" fill-rule="evenodd" stroke="none"/>
  </g>
</svg>
