<?xml version="1.0" encoding="UTF-8" standalone="no"?>
<svg xmlns:xlink="http://www.w3.org/1999/xlink" height="15.45px" width="31.75px" xmlns="http://www.w3.org/2000/svg">
  <g transform="matrix(1.0, 0.0, 0.0, 1.0, 16.1, 8.35)">
    <path d="M-4.35 -5.15 L-4.55 -5.4 -4.35 -5.2 -4.2 -5.15 -4.35 -5.15 M-4.65 -6.2 L-1.85 -6.6 -1.1 -6.65 0.1 -6.8 0.6 -6.75 1.0 -6.75 2.15 -6.7 2.8 -6.7 4.35 -6.55 4.8 -6.45 4.7 -6.4 3.4 -5.95 2.4 -5.7 0.65 -5.8 -1.75 -5.65 -4.05 -6.05 -4.65 -6.2 M4.2 -5.05 L4.25 -5.1 4.35 -5.15 4.8 -5.3 4.95 -5.3 5.45 -5.2 5.75 -4.65 5.75 -4.6 6.05 -3.85 5.8 -4.15 5.7 -4.25 Q5.05 -4.4 4.85 -3.9 L4.75 -4.15 4.5 -4.65 4.2 -5.05 M6.75 -4.85 L6.8 -4.9 7.1 -4.95 7.2 -4.95 7.45 -4.85 7.5 -4.85 7.6 -4.75 7.75 -4.7 7.8 -4.7 7.9 -4.6 7.85 -4.55 7.95 -4.4 8.0 -4.3 8.05 -4.25 8.1 -4.2 8.2 -4.05 8.25 -3.95 8.25 -3.9 8.3 -3.85 8.3 -3.8 8.75 -2.8 8.95 -1.85 9.0 -1.7 9.0 -1.65 9.0 -1.55 Q9.15 -0.15 8.95 1.3 L8.9 1.6 8.85 2.0 8.75 2.2 8.55 2.65 8.15 3.15 7.65 3.35 7.1 3.3 Q7.0 2.65 7.15 2.05 L7.45 2.2 7.75 2.25 7.95 2.2 8.25 2.15 8.5 1.7 8.55 1.6 8.6 1.35 8.55 1.4 8.4 1.55 8.25 1.65 7.75 1.55 7.65 1.5 7.55 1.45 Q7.25 1.1 7.25 0.65 L7.35 0.25 7.4 0.25 7.4 0.2 7.65 0.15 7.75 0.15 7.75 0.05 7.75 -0.2 7.8 -1.0 8.3 -1.1 8.4 -1.15 Q8.8 -1.55 8.75 -2.1 8.4 -1.5 7.75 -1.85 7.55 -2.05 7.5 -2.4 7.4 -2.9 7.85 -3.1 L7.55 -3.0 7.5 -3.1 7.4 -3.5 7.2 -3.95 7.05 -4.3 7.0 -4.4 6.95 -4.5 6.75 -4.85 M8.65 -5.2 L9.3 -5.35 10.35 -5.45 9.4 -5.35 10.8 -4.8 10.9 -4.7 10.95 -4.7 11.75 -4.15 12.0 -3.95 12.1 -3.85 12.2 -3.7 12.3 -3.6 11.65 -3.9 11.5 -3.9 11.25 -3.95 10.55 -3.85 9.7 -3.25 9.7 -3.3 9.45 -4.0 9.3 -4.3 9.1 -4.6 8.8 -5.0 8.65 -5.2 M15.0 0.8 L14.95 1.15 14.85 1.65 14.75 1.95 14.9 1.4 15.0 0.8 M-15.15 1.95 L-15.25 1.65 -15.45 0.8 -15.15 1.95 M-10.8 -5.45 L-9.35 -5.25 -9.05 -5.2 -9.25 -5.0 -9.35 -4.85 -9.55 -4.55 -10.15 -3.3 -10.1 -3.25 Q-10.65 -4.0 -11.7 -3.95 L-11.95 -3.9 -12.1 -3.9 -12.75 -3.6 -12.65 -3.7 -12.55 -3.85 -12.2 -4.15 -11.95 -4.3 -11.4 -4.7 -11.35 -4.7 -11.2 -4.8 -9.85 -5.35 -10.8 -5.45 M-8.3 -4.6 L-8.3 -4.65 -8.25 -4.7 -8.2 -4.7 -8.1 -4.7 -8.05 -4.75 -8.0 -4.75 -7.95 -4.85 -7.85 -4.85 -7.65 -4.95 -7.15 -4.85 -7.4 -4.5 -7.4 -4.4 -7.45 -4.35 -7.8 -3.5 -7.95 -3.1 -7.95 -3.0 -8.3 -3.1 Q-7.85 -2.9 -7.95 -2.4 -8.0 -2.05 -8.2 -1.85 -8.85 -1.5 -9.2 -2.1 -9.25 -1.55 -8.8 -1.15 L-8.75 -1.1 -8.2 -1.0 -8.2 -0.4 -8.2 -0.2 -8.15 0.15 -8.1 0.15 -7.85 0.2 -7.8 0.25 -7.7 0.65 -7.8 1.2 -8.1 1.5 -9.0 1.4 -9.0 1.35 -8.95 1.7 Q-8.85 2.15 -8.4 2.2 L-7.9 2.2 -7.6 2.05 Q-7.45 2.65 -7.55 3.3 L-8.3 3.3 -9.0 2.65 -9.15 2.25 -9.2 2.2 -9.25 2.0 -9.35 1.6 -9.4 1.3 -9.5 -0.4 -9.45 -1.55 -9.45 -1.65 -9.45 -1.7 -9.4 -1.7 -9.15 -2.8 -8.75 -3.8 -8.7 -3.9 -8.65 -3.95 -8.6 -4.05 -8.5 -4.25 -8.45 -4.3 -8.4 -4.4 -8.3 -4.55 -8.3 -4.6 M-5.85 -5.2 L-5.4 -5.3 -5.1 -5.3 -4.75 -5.15 -4.65 -5.05 -4.85 -4.75 -5.15 -4.2 -5.3 -3.9 Q-5.5 -4.4 -6.15 -4.25 L-6.25 -4.15 -6.5 -3.85 -6.2 -4.5 -5.95 -5.0 -5.95 -5.1 -5.85 -5.2 M6.45 -2.1 L6.5 -0.25 6.35 0.45 6.2 1.2 5.85 2.2 5.5 2.65 5.5 2.7 5.4 2.85 5.25 3.0 5.1 3.15 4.45 3.1 4.35 3.0 4.15 2.85 4.15 2.6 4.25 2.25 4.65 1.3 4.85 0.7 4.95 0.75 5.3 0.8 Q6.05 0.8 6.2 0.05 L5.25 0.1 4.95 -0.45 Q4.85 -1.0 5.25 -1.2 L5.15 -1.15 5.2 -1.7 5.25 -1.6 6.1 -1.5 6.15 -1.55 6.4 -1.95 6.45 -2.1 M12.55 1.25 L12.25 1.3 11.9 1.2 Q11.0 0.95 10.45 0.2 L10.35 0.0 10.15 -0.95 10.1 -1.4 10.1 -2.6 10.25 -2.8 10.65 -3.1 10.65 -3.05 10.65 -2.65 Q10.65 -1.9 11.15 -1.25 11.6 -0.55 12.4 -0.6 L12.55 -0.65 12.9 -0.85 12.9 -0.2 12.9 -0.15 12.75 0.55 12.75 0.7 12.6 1.15 12.55 1.25 M13.35 -1.95 Q13.65 -1.7 14.05 -1.6 L14.5 -1.6 14.6 -1.6 14.65 -1.6 14.55 -2.15 14.7 -1.5 14.7 -1.35 14.7 -0.7 14.65 -0.4 14.65 0.0 14.65 0.05 Q14.5 1.3 13.75 2.35 L13.5 2.65 13.15 2.9 12.5 2.8 12.4 2.6 12.5 2.25 12.85 1.75 13.15 1.1 13.45 -0.5 13.35 -1.95 M-11.1 -3.1 Q-10.75 -2.95 -10.55 -2.6 -10.45 -1.5 -10.65 -0.4 L-10.8 0.0 -10.9 0.2 Q-11.45 0.95 -12.35 1.2 L-12.95 1.25 -13.05 0.95 -13.1 0.8 -13.2 0.55 -13.3 -0.2 -13.35 -0.85 -13.0 -0.65 Q-12.1 -0.5 -11.6 -1.25 -11.0 -2.05 -11.1 -3.05 L-11.1 -3.1 M-13.75 -1.95 L-13.9 -0.5 Q-13.85 1.05 -12.95 2.25 L-12.85 2.6 -12.95 2.8 -13.25 3.0 -13.6 2.9 -13.95 2.65 -14.2 2.35 -15.0 0.65 -15.1 0.0 -15.1 -0.4 -15.15 -0.7 -15.1 -1.5 -14.95 -2.15 -15.1 -1.6 -14.95 -1.6 -14.75 -1.6 Q-14.2 -1.6 -13.75 -1.95 M-6.9 -2.1 L-6.85 -1.95 -6.6 -1.55 -5.7 -1.6 -5.6 -1.7 -5.6 -1.15 -5.7 -1.2 Q-5.3 -1.0 -5.4 -0.45 L-5.7 0.1 -6.65 0.05 Q-6.5 0.8 -5.75 0.8 L-5.4 0.75 -5.25 0.7 -5.15 1.15 -4.7 2.25 -4.6 2.6 -4.6 2.85 -4.8 3.0 -4.9 3.1 -5.55 3.15 -5.85 2.85 -5.95 2.65 -6.2 2.25 -6.3 2.2 -6.8 0.45 -6.9 -0.25 -6.9 -0.4 -6.9 -2.1" fill="#b7b7b7" fill-rule="evenodd" stroke="none"/>
    <path d="M4.8 -6.45 L5.3 -6.35 5.65 -6.3 7.15 -5.7 7.5 -5.5 7.75 -5.3 7.5 -5.35 7.35 -5.35 7.2 -5.35 6.95 -5.3 6.4 -5.2 6.35 -5.15 5.7 -5.45 4.85 -5.65 4.8 -5.65 4.25 -5.5 3.55 -5.6 2.4 -5.7 3.4 -5.95 4.7 -6.4 4.8 -6.45 M-4.55 -5.4 L-4.6 -5.45 -4.7 -5.5 -5.05 -5.6 -5.3 -5.65 -5.35 -5.65 -5.55 -5.6 -6.2 -5.45 -6.7 -5.2 -6.8 -5.15 -6.8 -5.2 -7.05 -5.25 -7.5 -5.35 -6.2 -5.9 -6.15 -5.9 -4.95 -6.15 -4.65 -6.2 -4.05 -6.05 -1.75 -5.65 -3.2 -5.45 -4.15 -5.2 -4.2 -5.15 -4.35 -5.2 -4.55 -5.4 M4.2 -5.05 L4.5 -4.65 4.75 -4.15 4.85 -3.9 5.05 -3.15 5.2 -1.7 5.15 -1.15 Q4.5 -1.05 4.4 -0.2 4.35 0.4 4.85 0.7 L4.65 1.3 4.25 2.25 4.15 2.6 4.15 2.85 4.35 3.0 4.45 3.1 5.1 3.15 5.25 3.0 5.4 2.85 5.5 2.7 5.5 2.65 5.85 2.2 5.5 3.15 5.4 3.35 4.9 4.3 4.9 4.4 4.6 4.55 4.35 4.7 3.65 5.05 3.35 5.05 3.35 5.1 3.3 5.15 Q2.75 5.25 2.35 4.8 2.4 4.1 2.9 3.5 L3.7 2.2 3.9 1.75 4.05 1.4 4.35 0.05 4.35 -0.15 Q4.65 -1.35 4.55 -2.6 L4.5 -3.25 4.25 -4.1 4.05 -4.55 4.05 -4.65 4.05 -4.7 4.15 -4.95 4.2 -5.05 M6.55 -4.8 L6.75 -4.85 6.95 -4.5 7.0 -4.4 7.05 -4.3 7.2 -3.95 7.4 -3.5 7.5 -3.1 7.55 -3.0 7.45 -2.95 7.1 -2.6 7.05 -2.4 7.05 -2.55 6.9 -3.6 6.75 -4.15 6.7 -4.45 6.55 -4.8 M10.35 -5.45 L11.35 -5.3 11.8 -5.2 13.1 -4.55 13.3 -4.45 13.35 -4.4 Q14.65 -3.35 15.0 -1.65 L15.0 -1.45 15.1 -0.45 15.1 -0.2 15.05 0.5 15.0 0.8 14.9 1.4 14.75 1.95 14.7 2.0 14.1 3.05 13.35 3.75 13.2 3.9 13.15 3.9 12.45 4.25 12.4 4.25 11.0 4.3 10.9 4.25 10.75 4.25 10.05 3.85 9.85 3.7 9.75 3.6 9.5 3.4 9.35 3.1 9.3 3.05 9.3 3.0 9.5 2.3 9.55 2.35 10.2 2.85 10.7 3.05 11.75 3.0 11.95 2.9 12.35 2.65 12.4 2.6 12.5 2.8 13.15 2.9 13.5 2.65 13.75 2.35 Q14.5 1.3 14.65 0.05 L14.65 0.0 14.65 -0.4 14.7 -0.7 14.7 -1.35 14.7 -1.5 14.55 -2.15 14.1 -3.05 14.0 -3.2 12.8 -4.4 12.75 -4.45 12.6 -4.55 12.35 -4.5 12.25 -4.45 12.2 -4.35 12.2 -4.0 12.25 -3.9 12.25 -3.85 12.4 -3.65 12.45 -3.6 12.7 -3.35 12.2 -3.7 12.1 -3.85 12.0 -3.95 11.75 -4.15 10.95 -4.7 10.9 -4.7 10.8 -4.8 9.4 -5.35 10.35 -5.45 M-13.6 3.9 L-13.8 3.75 -14.55 3.05 -15.15 2.0 -15.15 1.95 -15.45 0.8 -15.55 -0.2 -15.55 -0.45 -15.45 -1.45 -15.4 -1.65 Q-15.1 -3.35 -13.8 -4.4 L-13.75 -4.45 -13.55 -4.55 -12.25 -5.2 -11.75 -5.3 -10.8 -5.45 -9.85 -5.35 -11.2 -4.8 -11.35 -4.7 -11.4 -4.7 -11.95 -4.3 -12.2 -4.15 -12.55 -3.85 -12.65 -3.7 -13.1 -3.35 -12.9 -3.6 -12.8 -3.65 -12.65 -3.85 -12.65 -3.95 -12.65 -4.0 Q-12.55 -4.2 -12.6 -4.35 L-12.65 -4.45 -12.75 -4.5 -13.05 -4.55 -13.15 -4.45 -13.25 -4.4 -14.45 -3.2 -14.55 -3.05 -14.95 -2.15 -15.1 -1.5 -15.15 -0.7 -15.1 -0.4 -15.1 0.0 -15.0 0.65 -14.2 2.35 -13.95 2.65 -13.6 2.9 -13.25 3.0 -12.95 2.8 -12.85 2.6 -12.55 2.8 -12.4 2.9 -11.2 3.05 -11.15 3.05 Q-10.4 2.9 -9.95 2.3 L-9.75 3.0 -9.7 3.05 -9.95 3.4 -10.2 3.6 -10.5 3.85 -10.75 4.0 -10.9 4.1 -11.2 4.25 -11.35 4.25 -11.85 4.4 -12.85 4.25 -12.9 4.25 Q-13.25 4.0 -13.6 3.9 M-7.15 -4.85 L-7.0 -4.8 -7.05 -4.65 -7.1 -4.4 -7.2 -4.15 -7.45 -2.4 -7.95 -3.0 -7.95 -3.1 -7.8 -3.5 -7.45 -4.35 -7.4 -4.4 -7.4 -4.5 -7.15 -4.85 M-4.65 -5.05 L-4.6 -4.95 -4.55 -4.95 -4.5 -4.85 -4.5 -4.7 -4.5 -4.65 -4.5 -4.55 -4.65 -4.15 -4.7 -4.1 -5.0 -2.6 Q-5.1 -1.35 -4.8 -0.15 L-4.8 0.05 -4.35 1.75 -4.15 2.2 -4.0 2.55 -3.35 3.5 Q-2.85 4.1 -2.8 4.8 -3.2 5.25 -3.75 5.15 L-3.8 5.1 -3.8 5.05 -4.1 5.05 -4.8 4.7 -5.0 4.55 -5.1 4.5 -5.3 4.4 -5.35 4.3 -5.85 3.35 -6.3 2.2 -6.2 2.25 -5.95 2.65 -5.85 2.85 -5.55 3.15 -4.9 3.1 -4.8 3.0 -4.6 2.85 -4.6 2.6 -4.7 2.25 -5.15 1.15 -5.25 0.7 Q-4.8 0.4 -4.85 -0.2 -4.95 -1.05 -5.6 -1.15 L-5.6 -1.7 -5.5 -3.15 -5.3 -3.9 -5.15 -4.2 -4.85 -4.75 -4.65 -5.05 M8.75 2.2 L8.65 2.65 8.1 4.1 8.05 4.1 8.0 4.15 7.9 4.35 7.55 4.5 7.3 4.65 6.75 4.75 6.65 4.65 Q6.2 4.3 6.25 3.7 L6.35 3.1 6.4 2.75 6.45 2.2 6.6 1.7 6.7 1.3 7.0 -0.55 7.1 -1.6 7.55 -1.1 7.8 -1.0 7.75 -0.2 7.75 0.05 7.75 0.15 7.65 0.15 7.4 0.2 7.4 0.25 7.35 0.25 Q7.0 0.4 6.85 0.9 L6.8 1.3 Q6.75 1.75 7.15 2.05 7.0 2.65 7.1 3.3 L7.65 3.35 8.15 3.15 8.55 2.65 8.75 2.2 M9.0 -1.65 L9.0 -1.55 9.05 0.5 9.0 1.25 8.9 1.6 8.95 1.3 Q9.15 -0.15 9.0 -1.55 L9.0 -1.65 M12.55 1.25 L12.5 1.3 12.15 1.95 11.5 2.45 11.15 2.6 10.25 2.45 10.1 2.3 9.95 2.05 9.75 0.65 9.7 0.3 9.7 -0.6 9.7 -0.75 9.75 -1.05 9.75 -1.2 9.85 -1.65 9.95 -2.25 10.1 -2.6 10.1 -1.4 10.15 -0.95 10.35 0.0 10.45 0.2 Q11.0 0.95 11.9 1.2 L12.25 1.3 12.55 1.25 M11.65 -3.9 L11.5 -3.9 11.65 -3.9 M-12.1 -3.9 L-11.95 -3.9 -12.1 -3.9 M-10.55 -2.6 L-10.4 -2.25 -10.2 -1.2 -10.15 -0.75 -10.15 -0.6 -10.15 0.3 -10.15 0.65 -10.25 1.35 -10.4 2.05 -10.55 2.3 Q-10.95 2.8 -11.6 2.6 L-11.85 2.5 -12.4 2.15 -12.95 1.3 -12.95 1.25 -12.35 1.2 Q-11.45 0.95 -10.9 0.2 L-10.8 0.0 -10.65 -0.4 Q-10.45 -1.5 -10.55 -2.6 M-8.2 -1.0 L-8.0 -1.1 -7.5 -1.6 -7.45 -0.55 -7.4 -0.4 -7.25 0.75 -6.9 2.2 -6.85 2.75 -6.7 3.7 -6.8 4.3 -7.1 4.65 -7.2 4.75 -7.75 4.65 -8.35 4.35 -8.45 4.15 -8.5 4.1 -8.55 4.1 -8.65 3.9 -9.1 2.65 -9.15 2.25 -9.2 2.2 -9.15 2.25 -9.0 2.65 -8.3 3.3 -7.55 3.3 Q-7.45 2.65 -7.6 2.05 -7.05 1.65 -7.3 0.95 L-7.3 0.9 Q-7.45 0.4 -7.8 0.25 L-7.85 0.2 -8.1 0.15 -8.15 0.15 -8.2 -0.2 -8.2 -0.4 -8.2 -1.0 M-9.35 1.6 L-9.4 1.3 -9.45 1.25 -9.5 0.5 -9.55 -0.4 -9.45 -1.65 -9.45 -1.55 -9.5 -0.4 -9.4 1.3 -9.35 1.6" fill="#7b7b7b" fill-rule="evenodd" stroke="none"/>
    <path d="M2.15 -7.05 L2.45 -7.05 2.75 -7.0 2.85 -7.0 4.8 -6.8 5.8 -6.6 5.45 -6.8 2.65 -7.6 1.75 -7.55 1.7 -7.55 1.5 -7.5 0.95 -7.75 -0.75 -7.95 -1.9 -7.6 -2.2 -7.45 -2.55 -7.45 -3.4 -7.5 -3.7 -7.4 Q-5.15 -7.3 -6.3 -6.4 L-6.45 -6.3 -6.85 -6.05 -5.9 -6.25 -4.9 -6.45 -4.7 -6.5 -4.15 -6.65 -3.35 -6.9 -3.0 -6.95 -2.7 -7.0 -1.7 -7.15 -1.15 -7.2 -1.0 -7.2 -0.5 -7.2 0.55 -7.15 2.05 -7.05 2.15 -7.05 M4.25 -5.5 L4.8 -5.65 4.85 -5.65 5.7 -5.45 6.35 -5.15 6.4 -5.2 6.95 -5.3 7.2 -5.35 7.35 -5.35 7.5 -5.35 7.75 -5.3 7.5 -5.5 7.15 -5.7 5.65 -6.3 5.3 -6.35 4.8 -6.45 4.35 -6.55 2.8 -6.7 2.15 -6.7 1.0 -6.75 0.6 -6.75 0.1 -6.8 -1.1 -6.65 -1.85 -6.6 -4.65 -6.2 -4.95 -6.15 -6.15 -5.9 -6.2 -5.9 -7.5 -5.35 -7.05 -5.25 -6.8 -5.2 -6.8 -5.15 -6.7 -5.2 -6.2 -5.45 -5.55 -5.6 -5.35 -5.65 -5.3 -5.65 -5.05 -5.6 -4.7 -5.5 -4.6 -5.45 -4.55 -5.4 -4.35 -5.15 -4.25 -4.9 -4.25 -4.75 -4.2 -4.2 -4.25 -4.1 -4.5 -2.65 -4.4 -0.45 Q-4.25 0.55 -3.7 1.5 L-2.35 1.85 -1.45 2.1 -1.4 2.7 -1.3 3.0 -1.1 3.6 -0.95 3.65 -1.05 2.1 1.0 1.95 0.85 3.5 1.5 3.4 1.4 2.45 1.65 1.85 2.45 1.75 3.25 1.6 3.95 -0.45 4.05 -2.65 4.05 -2.75 3.8 -4.05 3.8 -4.1 3.8 -4.6 3.8 -4.75 3.85 -4.9 3.9 -5.1 4.1 -5.4 4.3 -5.5 4.25 -5.5 M2.1 -7.95 L4.9 -7.4 6.65 -6.35 7.6 -6.1 8.7 -5.65 9.0 -5.7 9.05 -5.7 10.65 -5.9 11.0 -5.8 11.1 -5.75 12.85 -5.2 Q14.2 -4.5 14.95 -3.2 L15.45 -2.0 15.65 -0.8 Q15.75 0.7 15.1 2.05 L14.85 2.6 Q14.4 3.6 13.55 4.15 12.9 4.7 12.05 4.9 L11.35 5.05 Q9.95 5.25 8.55 5.05 L8.2 4.95 Q7.8 5.35 7.1 5.55 L6.05 5.95 4.7 5.85 3.55 6.3 2.6 6.55 2.0 6.65 -0.35 7.1 -1.9 6.8 -2.2 6.65 -3.05 6.55 -4.0 6.3 -5.1 5.85 -6.5 5.95 -7.55 5.55 -8.6 4.95 -8.65 4.95 -9.0 5.05 Q-10.4 5.25 -11.8 5.05 L-12.5 4.9 Q-13.35 4.7 -13.95 4.15 -14.85 3.6 -15.3 2.6 L-15.55 2.05 Q-16.2 0.7 -16.1 -0.8 L-15.9 -2.0 -15.4 -3.2 Q-14.65 -4.5 -13.3 -5.2 L-11.55 -5.75 -11.45 -5.8 -11.1 -5.9 -9.45 -5.7 -8.75 -5.5 -7.9 -5.75 -7.55 -5.8 -6.65 -6.7 Q-5.05 -7.75 -3.15 -7.8 L-2.35 -7.7 -1.75 -8.1 -0.6 -8.35 Q0.5 -8.45 1.35 -7.85 L2.1 -7.95 M5.45 -5.2 L4.95 -5.3 4.8 -5.3 4.35 -5.15 4.25 -5.1 4.2 -5.05 4.15 -4.95 4.05 -4.7 4.05 -4.65 4.05 -4.55 4.25 -4.1 4.5 -3.25 4.55 -2.6 Q4.65 -1.35 4.35 -0.15 L4.15 0.55 3.8 1.45 2.25 3.5 2.0 3.7 1.9 3.75 1.4 4.0 0.8 4.2 0.35 4.25 0.1 4.45 -0.5 4.4 -0.6 4.4 -0.8 4.25 -2.35 3.75 -2.45 3.7 -2.7 3.5 -3.95 1.95 -4.6 0.55 -4.8 -0.15 Q-5.1 -1.35 -5.0 -2.6 L-4.7 -4.1 -4.65 -4.15 -4.5 -4.55 -4.5 -4.65 -4.5 -4.7 -4.5 -4.85 -4.55 -4.95 -4.6 -4.95 -4.65 -5.05 -4.75 -5.15 -5.1 -5.3 -5.4 -5.3 -5.85 -5.2 -6.25 -5.1 -6.3 -5.05 -6.4 -5.0 -6.4 -4.95 -6.55 -4.85 -6.75 -4.7 -6.8 -4.65 -6.85 -4.7 -6.9 -4.75 -7.0 -4.8 -7.15 -4.85 -7.65 -4.95 -7.85 -4.85 -7.95 -4.85 -8.0 -4.75 -8.05 -4.75 -8.1 -4.7 -8.2 -4.7 -8.25 -4.7 -8.3 -4.65 -8.3 -4.6 -8.35 -4.65 -8.45 -4.8 -8.5 -4.9 -8.65 -5.05 -8.7 -5.05 -8.9 -5.15 -8.95 -5.15 -9.05 -5.2 -9.35 -5.25 -10.8 -5.45 -11.75 -5.3 -12.25 -5.2 -13.55 -4.55 -13.75 -4.45 -13.8 -4.4 Q-15.1 -3.35 -15.4 -1.65 L-15.45 -1.45 -15.55 -0.45 -15.55 -0.2 -15.45 0.8 -15.25 1.65 -15.15 1.95 -15.15 2.0 -14.55 3.05 -13.8 3.75 -13.6 3.9 -13.65 3.9 -13.35 4.05 -13.3 4.1 -12.25 4.55 -9.75 4.75 -9.15 4.6 -8.95 4.5 -8.65 4.4 -8.55 4.3 -8.5 4.3 -8.25 4.55 -8.2 4.6 -7.95 4.7 -6.75 5.15 -6.45 5.2 -5.9 5.3 -5.5 5.45 -5.3 5.5 -4.6 5.6 -3.45 5.6 -3.6 5.65 -3.5 5.7 -3.05 5.8 -2.7 5.9 -2.5 6.0 -1.15 6.05 -0.95 6.0 -1.15 6.05 -1.5 6.15 -0.75 6.35 -0.35 6.45 0.35 6.4 0.15 6.3 0.4 6.4 1.0 6.3 1.15 6.15 2.05 6.0 2.25 5.9 2.65 5.8 2.7 5.75 3.05 5.7 3.15 5.65 3.0 5.6 4.2 5.6 4.85 5.5 4.95 5.45 5.05 5.45 5.45 5.3 6.0 5.2 6.35 5.15 7.55 4.7 Q7.65 4.65 7.8 4.55 L7.95 4.45 8.1 4.3 8.15 4.3 8.2 4.4 8.25 4.45 8.5 4.5 9.2 4.7 9.35 4.75 11.4 4.65 11.8 4.55 11.9 4.55 12.85 4.1 12.95 4.05 13.2 3.9 13.35 3.75 14.1 3.05 14.7 2.0 14.75 1.95 14.85 1.65 14.95 1.15 15.0 0.8 15.05 0.5 15.1 -0.2 15.1 -0.45 15.0 -1.45 15.0 -1.65 Q14.65 -3.35 13.35 -4.4 L13.3 -4.45 13.1 -4.55 11.8 -5.2 11.35 -5.3 10.35 -5.45 9.3 -5.35 8.65 -5.2 8.55 -5.15 8.5 -5.15 8.45 -5.15 8.3 -5.05 8.2 -5.05 8.15 -4.95 8.1 -4.9 8.05 -4.85 8.0 -4.8 7.9 -4.6 7.8 -4.7 7.75 -4.7 7.6 -4.75 7.5 -4.85 7.45 -4.85 7.2 -4.95 7.1 -4.95 6.8 -4.9 6.75 -4.85 6.55 -4.8 6.45 -4.7 6.35 -4.65 6.3 -4.7 6.0 -4.95 5.95 -5.0 5.8 -5.1 5.55 -5.15 5.45 -5.2" fill="#000000" fill-rule="evenodd" stroke="none"/>
    <path d="M6.05 -3.85 L5.75 -4.6 5.75 -4.65 5.45 -5.2 5.55 -5.15 5.8 -5.1 5.95 -5.0 6.0 -4.95 6.3 -4.7 6.35 -4.65 6.45 -4.7 6.55 -4.8 6.7 -4.45 6.75 -4.15 6.9 -3.6 7.05 -2.55 7.05 -2.4 7.1 -2.6 7.45 -2.95 7.55 -3.0 7.85 -3.1 Q7.4 -2.9 7.5 -2.4 7.55 -2.05 7.75 -1.85 8.4 -1.5 8.75 -2.1 8.8 -1.55 8.4 -1.15 L8.3 -1.1 7.8 -1.0 7.55 -1.1 7.1 -1.6 7.0 -0.55 6.7 1.3 6.6 1.7 6.45 2.2 6.4 2.75 6.35 3.1 6.25 3.7 Q6.2 4.3 6.65 4.65 L6.75 4.75 7.3 4.65 7.55 4.5 7.9 4.35 8.0 4.15 8.05 4.1 8.1 4.1 8.65 2.65 8.75 2.2 8.85 2.0 8.9 1.6 9.0 1.25 9.05 0.5 9.0 -1.55 9.0 -1.65 9.0 -1.7 8.95 -1.85 8.75 -2.8 8.3 -3.8 8.3 -3.85 8.25 -3.9 8.25 -3.95 8.2 -4.05 8.1 -4.2 8.05 -4.25 8.0 -4.3 7.95 -4.4 7.85 -4.55 7.9 -4.6 8.0 -4.8 8.05 -4.85 8.1 -4.9 8.15 -4.95 8.2 -5.05 8.3 -5.05 8.45 -5.15 8.5 -5.15 8.55 -5.15 8.65 -5.2 8.8 -5.0 9.1 -4.6 9.3 -4.3 9.45 -4.0 9.7 -3.3 9.7 -3.25 10.55 -3.85 11.25 -3.95 11.5 -3.9 11.65 -3.9 12.3 -3.6 12.2 -3.7 12.7 -3.35 12.7 -3.3 12.85 -3.05 12.95 -2.9 13.0 -2.8 13.35 -1.95 13.45 -0.5 13.15 1.1 12.85 1.75 12.5 2.25 12.4 2.6 12.35 2.65 11.95 2.9 11.75 3.0 10.7 3.05 10.2 2.85 9.55 2.35 9.5 2.3 9.3 3.0 9.3 3.05 9.35 3.1 9.5 3.4 9.75 3.6 9.85 3.7 10.05 3.85 10.75 4.25 10.9 4.25 11.0 4.3 12.4 4.25 12.45 4.25 13.15 3.9 13.2 3.9 12.95 4.05 12.85 4.1 11.9 4.55 11.8 4.55 11.4 4.65 9.35 4.75 9.2 4.7 8.5 4.5 8.25 4.45 8.2 4.4 8.15 4.3 8.1 4.3 7.95 4.45 7.8 4.55 Q7.65 4.65 7.55 4.7 L6.35 5.15 6.0 5.2 5.45 5.3 5.05 5.45 4.95 5.45 4.85 5.5 4.2 5.6 3.0 5.6 3.15 5.65 3.05 5.7 2.7 5.75 2.65 5.8 2.25 5.9 2.05 6.0 1.15 6.15 1.0 6.3 0.4 6.4 0.15 6.3 0.35 6.4 -0.35 6.45 -0.75 6.35 -1.5 6.15 -1.15 6.05 -0.95 6.0 -1.15 6.05 -2.5 6.0 -2.7 5.9 -3.05 5.8 -3.5 5.7 -3.6 5.65 -3.45 5.6 -4.6 5.6 -5.3 5.5 -5.5 5.45 -5.9 5.3 -6.45 5.2 -6.75 5.15 -7.95 4.7 -8.2 4.6 -8.25 4.55 -8.5 4.3 -8.55 4.3 -8.65 4.4 -8.95 4.5 -9.15 4.6 -9.75 4.75 -12.25 4.55 -13.3 4.1 -13.35 4.05 -13.65 3.9 -13.6 3.9 Q-13.25 4.0 -12.9 4.25 L-12.85 4.25 -11.85 4.4 -11.35 4.25 -11.2 4.25 -10.9 4.1 -10.75 4.0 -10.5 3.85 -10.2 3.6 -9.95 3.4 -9.7 3.05 -9.75 3.0 -9.95 2.3 Q-10.4 2.9 -11.15 3.05 L-11.2 3.05 -12.4 2.9 -12.55 2.8 -12.85 2.6 -12.95 2.25 Q-13.85 1.05 -13.9 -0.5 L-13.75 -1.95 -13.45 -2.8 -13.35 -2.9 -13.15 -3.3 -13.1 -3.35 -12.65 -3.7 -12.75 -3.6 -12.1 -3.9 -11.95 -3.9 -11.7 -3.95 Q-10.65 -4.0 -10.1 -3.25 L-10.15 -3.3 -9.55 -4.55 -9.35 -4.85 -9.25 -5.0 -9.05 -5.2 -8.95 -5.15 -8.9 -5.15 -8.7 -5.05 -8.65 -5.05 -8.5 -4.9 -8.45 -4.8 -8.35 -4.65 -8.3 -4.6 -8.3 -4.55 -8.4 -4.4 -8.45 -4.3 -8.5 -4.25 -8.6 -4.05 -8.65 -3.95 -8.7 -3.9 -8.75 -3.8 -9.15 -2.8 -9.4 -1.7 -9.45 -1.7 -9.45 -1.65 -9.55 -0.4 -9.5 0.5 -9.45 1.25 -9.4 1.3 -9.35 1.6 -9.25 2.0 -9.2 2.2 -9.15 2.25 -9.1 2.65 -8.65 3.9 -8.55 4.1 -8.5 4.1 -8.45 4.15 -8.35 4.35 -7.75 4.65 -7.2 4.75 -7.1 4.65 -6.8 4.3 -6.7 3.7 -6.85 2.75 -6.9 2.2 -7.25 0.75 -7.4 -0.4 -7.45 -0.55 -7.5 -1.6 -8.0 -1.1 -8.2 -1.0 -8.75 -1.1 -8.8 -1.15 Q-9.25 -1.55 -9.2 -2.1 -8.85 -1.5 -8.2 -1.85 -8.0 -2.05 -7.95 -2.4 -7.85 -2.9 -8.3 -3.1 L-7.95 -3.0 -7.45 -2.4 -7.2 -4.15 -7.1 -4.4 -7.05 -4.65 -7.0 -4.8 -6.9 -4.75 -6.85 -4.7 -6.8 -4.65 -6.75 -4.7 -6.55 -4.85 -6.4 -4.95 -6.4 -5.0 -6.3 -5.05 -6.25 -5.1 -5.85 -5.2 -5.95 -5.1 -5.95 -5.0 -6.2 -4.5 -6.5 -3.85 -6.75 -3.1 -6.85 -2.4 -6.9 -2.1 -6.9 -0.4 -6.9 -0.25 -6.8 0.45 -6.3 2.2 -5.85 3.35 -5.35 4.3 -5.3 4.4 -5.1 4.5 -5.0 4.55 -4.8 4.7 -4.1 5.05 -3.8 5.05 -3.8 5.1 -3.75 5.15 Q-3.2 5.25 -2.8 4.8 -2.85 4.1 -3.35 3.5 L-4.0 2.55 -4.15 2.2 -4.35 1.75 -4.8 0.05 -4.8 -0.15 -4.6 0.55 -3.95 1.95 -2.7 3.5 -2.45 3.7 -2.35 3.75 -0.8 4.25 -0.6 4.4 -0.5 4.4 0.1 4.45 0.35 4.25 0.8 4.2 1.4 4.0 1.9 3.75 2.0 3.7 2.25 3.5 3.8 1.45 4.15 0.55 4.35 -0.15 4.35 0.05 4.05 1.4 3.9 1.75 3.7 2.2 2.9 3.5 Q2.4 4.1 2.35 4.8 2.75 5.25 3.3 5.15 L3.35 5.1 3.35 5.05 3.65 5.05 4.35 4.7 4.6 4.55 4.9 4.4 4.9 4.3 5.4 3.35 5.5 3.15 5.85 2.2 6.2 1.2 6.35 0.45 6.5 -0.25 6.45 -2.1 6.45 -2.15 6.4 -2.4 6.3 -3.05 6.3 -3.1 6.2 -3.5 6.05 -3.85 M5.15 -1.15 L5.25 -1.2 Q4.85 -1.0 4.95 -0.45 L5.25 0.1 6.2 0.05 Q6.05 0.8 5.3 0.8 L4.95 0.75 4.85 0.7 Q4.35 0.4 4.4 -0.2 4.5 -1.05 5.15 -1.15 M7.15 2.05 Q6.75 1.75 6.8 1.3 L6.85 0.9 Q7.0 0.4 7.35 0.25 L7.4 0.25 7.35 0.25 7.25 0.65 Q7.25 1.1 7.55 1.45 L7.65 1.5 7.75 1.55 8.25 1.65 8.4 1.55 8.55 1.4 8.6 1.35 8.55 1.6 8.5 1.7 8.25 2.15 7.95 2.2 7.75 2.25 7.45 2.2 7.15 2.05 M10.1 -2.6 L9.95 -2.25 9.85 -1.65 9.75 -1.2 9.75 -1.05 9.7 -0.75 9.7 -0.6 9.7 0.3 9.75 0.65 9.95 2.05 10.1 2.3 10.25 2.45 11.15 2.6 11.5 2.45 12.15 1.95 12.5 1.3 12.55 1.25 12.6 1.15 12.75 0.7 12.75 0.55 12.9 -0.15 12.9 -0.2 12.9 -0.85 12.9 -0.95 12.75 -2.4 12.5 -2.7 Q12.05 -3.25 11.3 -3.25 L10.65 -3.1 10.25 -2.8 10.1 -2.6 M-11.1 -3.1 L-11.7 -3.25 -11.75 -3.25 Q-12.5 -3.25 -12.95 -2.7 L-13.2 -2.4 -13.35 -0.85 -13.3 -0.2 -13.2 0.55 -13.1 0.8 -13.05 0.95 -12.95 1.25 -12.95 1.3 -12.4 2.15 -11.85 2.5 -11.6 2.6 Q-10.95 2.8 -10.55 2.3 L-10.4 2.05 -10.25 1.35 -10.15 0.65 -10.15 0.3 -10.15 -0.6 -10.15 -0.75 -10.2 -1.2 -10.4 -2.25 -10.55 -2.6 Q-10.75 -2.95 -11.1 -3.1 M-5.25 0.7 L-5.4 0.75 -5.75 0.8 Q-6.5 0.8 -6.65 0.05 L-5.7 0.1 -5.4 -0.45 Q-5.3 -1.0 -5.7 -1.2 L-5.6 -1.15 Q-4.95 -1.05 -4.85 -0.2 -4.8 0.4 -5.25 0.7 M-7.8 0.25 Q-7.45 0.4 -7.3 0.9 L-7.3 0.95 Q-7.05 1.65 -7.6 2.05 L-7.9 2.2 -8.4 2.2 Q-8.85 2.15 -8.95 1.7 L-9.0 1.35 -9.0 1.4 -8.1 1.5 -7.8 1.2 -7.7 0.65 -7.8 0.25" fill="#606060" fill-rule="evenodd" stroke="none"/>
    <path d="M4.85 -3.9 Q5.05 -4.4 5.7 -4.25 L5.8 -4.15 6.05 -3.85 6.2 -3.5 6.3 -3.1 6.3 -3.05 6.4 -2.4 6.45 -2.15 6.45 -2.1 6.4 -1.95 6.15 -1.55 6.1 -1.5 5.25 -1.6 5.2 -1.7 5.05 -3.15 4.85 -3.9 M10.65 -3.1 L11.3 -3.25 Q12.05 -3.25 12.5 -2.7 L12.75 -2.4 12.9 -0.95 12.9 -0.85 12.55 -0.65 12.4 -0.6 Q11.6 -0.55 11.15 -1.25 10.65 -1.9 10.65 -2.65 L10.65 -3.05 10.65 -3.1 M13.35 -1.95 L13.0 -2.8 12.95 -2.9 12.85 -3.05 12.7 -3.3 12.7 -3.35 12.45 -3.6 12.4 -3.65 12.25 -3.85 12.25 -3.9 12.2 -4.0 12.2 -4.35 12.25 -4.45 12.35 -4.5 12.6 -4.55 12.75 -4.45 12.8 -4.4 14.0 -3.2 14.1 -3.05 14.55 -2.15 14.65 -1.6 14.6 -1.6 14.5 -1.6 14.05 -1.6 Q13.65 -1.7 13.35 -1.95 M-14.95 -2.15 L-14.55 -3.05 -14.45 -3.2 -13.25 -4.4 -13.15 -4.45 -13.05 -4.55 -12.75 -4.5 -12.65 -4.45 -12.6 -4.35 Q-12.55 -4.2 -12.65 -4.0 L-12.65 -3.95 -12.65 -3.85 -12.8 -3.65 -12.9 -3.6 -13.1 -3.35 -13.15 -3.3 -13.35 -2.9 -13.45 -2.8 -13.75 -1.95 Q-14.2 -1.6 -14.75 -1.6 L-14.95 -1.6 -15.1 -1.6 -14.95 -2.15 M-13.35 -0.85 L-13.2 -2.4 -12.95 -2.7 Q-12.5 -3.25 -11.75 -3.25 L-11.7 -3.25 -11.1 -3.1 -11.1 -3.05 Q-11.0 -2.05 -11.6 -1.25 -12.1 -0.5 -13.0 -0.65 L-13.35 -0.85 M-6.9 -2.1 L-6.85 -2.4 -6.75 -3.1 -6.5 -3.85 -6.25 -4.15 -6.15 -4.25 Q-5.5 -4.4 -5.3 -3.9 L-5.5 -3.15 -5.6 -1.7 -5.7 -1.6 -6.6 -1.55 -6.85 -1.95 -6.9 -2.1" fill="#ffffff" fill-rule="evenodd" stroke="none"/>
    <path d="M3.8 -4.05 L4.05 -2.75 3.65 -2.45 2.95 -2.4 Q3.0 -3.1 3.55 -3.6 L3.8 -4.05 M1.85 -4.7 L2.45 -4.65 2.45 -4.35 1.25 -2.95 1.85 -4.7 M-1.05 -3.45 L-0.8 -4.5 -0.3 -4.55 Q-0.3 -3.9 -0.45 -3.2 L-0.65 -2.5 -1.4 -2.45 -1.05 -3.45 M-3.2 -3.8 L-2.95 -3.9 -2.8 -3.45 -2.8 -3.2 -3.15 -3.7 -3.2 -3.8" fill="#0099cc" fill-rule="evenodd" stroke="none"/>
    <path d="M4.25 -5.5 L4.3 -5.5 4.1 -5.4 3.9 -5.1 3.85 -4.9 3.8 -4.75 3.8 -4.6 3.8 -4.1 3.8 -4.05 3.55 -3.6 Q3.0 -3.1 2.95 -2.4 L3.65 -2.45 4.05 -2.75 4.05 -2.65 3.95 -0.45 3.25 1.6 2.45 1.75 1.65 1.85 1.4 2.45 1.5 3.4 0.85 3.5 1.0 1.95 -1.05 2.1 -0.95 3.65 -1.1 3.6 -1.3 3.0 -1.4 2.7 -1.45 2.1 -2.35 1.85 -3.7 1.5 Q-4.25 0.55 -4.4 -0.45 L-4.5 -2.65 -4.25 -4.1 -4.2 -4.2 -4.25 -4.75 -4.25 -4.9 -4.35 -5.15 -4.2 -5.15 -4.15 -5.2 -3.2 -5.45 -1.75 -5.65 0.65 -5.8 2.4 -5.7 3.55 -5.6 4.25 -5.5 M1.85 -4.7 L1.25 -2.95 2.45 -4.35 2.45 -4.65 1.85 -4.7 M-1.05 -3.45 L-1.4 -2.45 -0.65 -2.5 -0.45 -3.2 Q-0.3 -3.9 -0.3 -4.55 L-0.8 -4.5 -1.05 -3.45 M-3.2 -3.8 L-3.15 -3.7 -2.8 -3.2 -2.8 -3.45 -2.95 -3.9 -3.2 -3.8" fill="#0c4596" fill-rule="evenodd" stroke="none"/>
    <path d="M2.15 -7.05 L2.05 -7.05 0.55 -7.15 -0.5 -7.2 -1.0 -7.2 -1.15 -7.2 -1.7 -7.15 -2.7 -7.0 -3.0 -6.95 -2.65 -7.2 -2.2 -7.45 -1.9 -7.6 -0.75 -7.95 0.95 -7.75 1.5 -7.5 1.95 -7.25 2.05 -7.15 2.1 -7.1 2.15 -7.05" fill="#6c7fb0" fill-rule="evenodd" stroke="none"/>
    <path d="M1.5 -7.5 L1.7 -7.55 1.75 -7.55 2.65 -7.6 5.45 -6.8 5.8 -6.6 4.8 -6.8 2.85 -7.0 2.75 -7.0 2.45 -7.05 2.15 -7.05 2.1 -7.1 2.05 -7.15 1.95 -7.25 1.5 -7.5 M-3.0 -6.95 L-3.35 -6.9 -4.15 -6.65 -4.7 -6.5 -4.9 -6.45 -5.9 -6.25 -6.85 -6.05 -6.45 -6.3 -6.3 -6.4 Q-5.15 -7.3 -3.7 -7.4 L-3.4 -7.5 -2.55 -7.45 -2.2 -7.45 -2.65 -7.2 -3.0 -6.95" fill="#99a5de" fill-rule="evenodd" stroke="none"/>
  </g>
</svg>
