<?xml version="1.0" encoding="UTF-8" standalone="no"?>
<svg xmlns:xlink="http://www.w3.org/1999/xlink" height="46.0px" width="46.0px" xmlns="http://www.w3.org/2000/svg">
  <g transform="matrix(1.0, 0.0, 0.0, 1.0, 23.0, 23.0)">
    <path d="M13.95 -12.75 L14.25 -12.4 16.05 -9.95 16.7 -10.65 18.75 -12.4 16.7 -15.05 16.6 -15.1 13.95 -12.75 M13.2 -15.3 L14.5 -17.15 11.75 -19.2 10.25 -16.9 9.9 -16.2 12.35 -14.3 13.2 -15.3 M7.9 -19.5 L8.4 -20.9 4.85 -21.95 4.2 -20.25 Q3.9 -19.4 3.9 -18.6 L7.35 -17.55 7.35 -17.65 7.9 -19.5 M0.05 -22.45 L-2.2 -22.35 -1.95 -18.85 0.1 -18.95 1.05 -18.9 Q1.5 -20.6 1.55 -22.4 L1.2 -22.4 0.4 -22.45 0.3 -22.45 0.15 -22.45 0.05 -22.45 M17.25 -7.7 L17.2 -7.7 18.05 -5.35 18.05 -5.3 20.95 -5.85 21.65 -6.0 21.55 -6.4 20.75 -8.65 20.45 -9.35 17.0 -8.2 17.25 -7.7 M18.55 -2.7 L18.6 -2.1 18.7 0.2 21.3 0.65 22.35 0.7 22.35 -0.1 22.35 -0.35 22.3 -1.75 22.25 -2.3 18.55 -2.7 M16.3 -16.25 Q23.0 -9.55 23.0 0.0 23.0 9.5 16.3 16.25 9.55 23.0 0.0 23.0 -9.5 23.0 -16.25 16.25 -23.0 9.5 -23.0 0.0 -23.0 -9.55 -16.25 -16.25 -9.5 -23.0 0.0 -23.0 9.55 -23.0 16.3 -16.25 M12.85 -13.25 Q7.55 -18.55 0.05 -18.5 -7.45 -18.55 -12.75 -13.25 -18.05 -7.95 -18.05 -0.4 -18.05 7.05 -12.75 12.35 -7.45 17.65 0.05 17.7 7.55 17.65 12.85 12.35 18.15 7.05 18.15 -0.4 18.15 -7.95 12.85 -13.25 M20.75 6.8 L21.25 7.05 22.0 3.95 20.45 3.0 Q19.55 2.35 18.55 2.0 L17.85 5.35 20.75 6.8 M16.5 8.45 L14.85 10.95 17.55 13.8 19.35 11.2 17.95 9.7 17.45 9.1 16.65 8.2 16.55 8.35 16.5 8.45 M0.1 18.25 L-0.95 18.25 -1.0 22.2 0.05 22.2 2.55 22.1 2.4 20.4 2.35 18.15 0.1 18.25 M15.05 16.4 L13.85 14.75 13.1 13.65 12.8 13.2 10.65 14.95 10.15 15.3 10.4 15.7 Q10.9 17.3 11.9 18.85 L15.05 16.4 15.1 16.4 15.05 16.4 M5.75 21.55 L9.2 20.3 8.2 16.45 Q6.4 17.3 4.5 17.75 L5.1 19.9 5.75 21.55 M-16.2 8.7 L-19.25 11.2 -17.4 13.85 -15.55 12.25 -14.45 11.3 -16.2 8.7 M-13.65 -17.8 L-11.9 -14.6 Q-10.7 -15.65 -9.4 -16.4 L-11.05 -19.55 -13.65 -17.8 M-17.5 -14.0 L-16.5 -12.6 Q-15.9 -11.6 -15.05 -11.25 L-15.05 -11.2 -14.25 -12.2 -13.4 -13.15 -13.25 -13.35 Q-13.8 -14.25 -14.65 -14.95 L-14.9 -15.25 -15.45 -16.2 -15.75 -15.9 -17.5 -14.0 M-8.9 -20.65 L-8.3 -18.7 -8.0 -17.9 -7.75 -17.3 -5.05 -18.25 -5.65 -20.75 -5.85 -21.7 -6.45 -21.5 -7.45 -21.2 -8.7 -20.7 -8.9 -20.65 M-21.9 -0.9 L-22.3 -0.85 -22.3 -0.1 -22.15 2.4 -18.65 2.05 -18.4 2.05 -18.45 1.5 -18.5 -0.2 -18.5 -0.35 -18.5 -0.8 -21.9 -0.9 M-21.3 -6.85 L-22.0 -3.95 -21.5 -3.8 -20.25 -3.35 -19.3 -2.85 -18.4 -2.6 -17.85 -5.45 -18.8 -6.0 -21.3 -6.85 M-20.3 -9.5 L-20.35 -9.45 -20.45 -9.15 -17.6 -6.3 -17.4 -6.85 -16.3 -9.3 -16.05 -9.75 -17.8 -11.15 -18.95 -11.95 -20.3 -9.5 M-18.1 3.75 L-21.6 5.55 -20.65 8.45 -17.2 6.7 -18.1 3.75 M-7.25 21.05 L-4.3 21.8 -4.3 21.7 -3.25 18.0 -5.95 17.3 -6.55 18.9 -7.25 21.05 M-11.15 14.5 L-11.55 14.15 -11.6 14.15 -14.05 17.05 -14.1 17.15 -11.6 19.0 -9.15 15.85 -9.7 15.5 -11.15 14.5" fill="#660033" fill-rule="evenodd" stroke="none"/>
    <path d="M18.05 -5.35 L17.2 -7.7 17.25 -7.7 18.05 -5.3 18.05 -5.35 M15.05 16.4 L15.1 16.4 15.05 16.4" fill="#9f0400" fill-rule="evenodd" stroke="none"/>
    <path d="M13.95 -12.75 L16.6 -15.1 16.7 -15.05 18.75 -12.4 16.7 -10.65 16.05 -9.95 14.25 -12.4 13.95 -12.75 M13.2 -15.3 L12.35 -14.3 9.9 -16.2 10.25 -16.9 11.75 -19.2 14.5 -17.15 13.2 -15.3 M7.9 -19.5 L7.35 -17.65 7.35 -17.55 3.9 -18.6 Q3.9 -19.4 4.2 -20.25 L4.85 -21.95 8.4 -20.9 7.9 -19.5 M0.05 -22.45 L0.15 -22.45 0.3 -22.45 0.4 -22.45 1.2 -22.4 1.55 -22.4 Q1.5 -20.6 1.05 -18.9 L0.1 -18.95 -1.95 -18.85 -2.2 -22.35 0.05 -22.45 M18.05 -5.35 L18.05 -5.3 17.25 -7.7 17.0 -8.2 20.45 -9.35 20.75 -8.65 21.55 -6.4 21.65 -6.0 20.95 -5.85 18.05 -5.3 18.05 -5.35 M18.55 -2.7 L22.25 -2.3 22.3 -1.75 22.35 -0.35 22.35 -0.1 22.35 0.7 21.3 0.65 18.7 0.2 18.6 -2.1 18.55 -2.7 M20.75 6.8 L17.85 5.35 18.55 2.0 Q19.55 2.35 20.45 3.0 L22.0 3.95 21.25 7.05 20.75 6.8 M0.1 18.25 L2.35 18.15 2.4 20.4 2.55 22.1 0.05 22.2 -1.0 22.2 -0.95 18.25 0.1 18.25 M16.5 8.45 L16.55 8.35 16.65 8.2 17.45 9.1 17.95 9.7 19.35 11.2 17.55 13.8 14.85 10.95 16.5 8.45 M5.75 21.55 L5.1 19.9 4.5 17.75 Q6.4 17.3 8.2 16.45 L9.2 20.3 5.75 21.55 M15.05 16.4 L11.9 18.85 Q10.9 17.3 10.4 15.7 L10.15 15.3 10.65 14.95 12.8 13.2 13.1 13.65 13.85 14.75 15.05 16.4 M-20.3 -9.5 L-18.95 -11.95 -17.8 -11.15 -16.05 -9.75 -16.3 -9.3 -17.4 -6.85 -17.6 -6.3 -20.45 -9.15 -20.35 -9.45 -20.3 -9.5 M-21.3 -6.85 L-18.8 -6.0 -17.85 -5.45 -18.4 -2.6 -19.3 -2.85 -20.25 -3.35 -21.5 -3.8 -22.0 -3.95 -21.3 -6.85 M-21.9 -0.9 L-18.5 -0.8 -18.5 -0.35 -18.5 -0.2 -18.45 1.5 -18.4 2.05 -18.65 2.05 -22.15 2.4 -22.3 -0.1 -22.3 -0.85 -21.9 -0.9 M-8.9 -20.65 L-8.7 -20.7 -7.45 -21.2 -6.45 -21.5 -5.85 -21.7 -5.65 -20.75 -5.05 -18.25 -7.75 -17.3 -8.0 -17.9 -8.3 -18.7 -8.9 -20.65 M-17.5 -14.0 L-15.75 -15.9 -15.45 -16.2 -14.9 -15.25 -14.65 -14.95 Q-13.8 -14.25 -13.25 -13.35 L-13.4 -13.15 -14.25 -12.2 -15.05 -11.2 -15.05 -11.25 Q-15.9 -11.6 -16.5 -12.6 L-17.5 -14.0 M-13.65 -17.8 L-11.05 -19.55 -9.4 -16.4 Q-10.7 -15.65 -11.9 -14.6 L-13.65 -17.8 M-16.2 8.7 L-14.45 11.3 -15.55 12.25 -17.4 13.85 -19.25 11.2 -16.2 8.7 M-18.1 3.75 L-17.2 6.7 -20.65 8.45 -21.6 5.55 -18.1 3.75 M-11.15 14.5 L-9.7 15.5 -9.15 15.85 -11.6 19.0 -14.1 17.15 -14.05 17.05 -11.6 14.15 -11.55 14.15 -11.15 14.5 M-7.25 21.05 L-6.55 18.9 -5.95 17.3 -3.25 18.0 -4.3 21.7 -4.3 21.8 -7.25 21.05" fill="#9933cc" fill-rule="evenodd" stroke="none"/>
  </g>
</svg>
