<?xml version="1.0" encoding="UTF-8" standalone="no"?>
<svg xmlns:xlink="http://www.w3.org/1999/xlink" height="11.85px" width="29.75px" xmlns="http://www.w3.org/2000/svg">
  <g transform="matrix(1.0, 0.0, 0.0, 1.0, 14.95, 5.6)">
    <path d="M-7.0 -4.4 L-5.65 -4.7 -5.05 -4.7 -4.9 -4.75 -4.2 -4.9 -3.8 -5.0 -2.8 -5.25 -1.7 -5.4 0.0 -5.55 1.6 -5.6 2.55 -5.5 3.6 -5.45 3.65 -5.45 3.9 -5.4 4.95 -5.2 5.25 -5.1 5.3 -5.1 5.4 -5.05 5.7 -5.0 6.6 -4.9 6.65 -4.85 Q7.5 -4.75 8.15 -4.25 L8.4 -4.05 10.45 -4.4 11.65 -4.15 Q12.55 -3.85 13.25 -3.2 L13.65 -2.8 13.75 -2.7 14.25 -2.1 14.3 -2.05 14.3 -2.0 14.35 -1.95 14.35 -1.9 14.6 -1.4 14.7 -0.85 14.7 -0.75 14.75 -0.65 14.75 -0.55 14.8 -0.55 14.8 -0.5 14.8 0.8 14.8 0.95 14.75 1.05 Q14.65 2.35 13.7 3.25 L12.4 4.3 11.75 4.45 8.7 4.75 8.6 4.75 8.5 4.85 8.1 5.05 8.05 5.05 6.1 5.65 5.95 5.65 5.55 5.75 5.5 5.8 4.25 6.05 4.05 6.1 3.65 6.15 -4.8 5.85 Q-6.55 5.55 -8.05 4.9 L-8.4 4.7 -8.45 4.7 -11.85 4.55 -13.8 3.25 Q-14.75 2.35 -14.85 1.05 L-14.9 0.95 -14.9 0.8 -14.9 -0.5 -14.9 -0.55 -14.85 -0.55 -14.85 -0.65 -14.8 -0.65 -14.8 -0.75 -14.8 -0.85 -14.7 -1.4 -14.45 -1.9 -14.45 -1.95 -14.4 -2.0 -14.4 -2.05 -14.35 -2.1 -13.85 -2.7 -13.75 -2.8 -13.35 -3.2 -11.75 -4.15 -10.55 -4.4 -8.4 -4.0 -8.1 -3.85 -7.65 -4.15 -7.2 -4.35 -7.0 -4.4 M2.6 -2.95 L1.45 -3.3 0.2 -3.45 0.1 -3.45 Q-1.85 -3.45 -3.15 -2.55 L-3.65 -2.2 -3.65 -2.15 -4.15 -1.6 -4.3 -1.6 -4.35 -1.6 -4.4 -1.4 -4.6 -0.6 -4.6 -0.5 -4.5 -0.5 -4.5 -0.4 -4.35 0.3 -3.8 1.2 -3.15 1.75 Q-2.2 2.35 -1.0 2.55 L0.1 2.6 Q2.0 2.6 3.35 1.75 L3.45 1.65 3.75 1.45 3.75 1.4 4.15 1.05 Q4.65 0.4 4.65 -0.35 L4.65 -0.45 4.75 -0.45 4.55 -0.9 4.45 -1.6 4.3 -1.6 3.35 -2.55 3.2 -2.65 2.6 -2.95 M-4.6 -0.5 L-4.65 -0.5 -4.6 -0.45 -4.6 -0.5 M8.8 -3.6 L8.7 -3.7 8.8 -3.55 8.85 -3.45 8.85 -3.5 8.8 -3.55 9.15 -2.9 9.2 -2.65 Q9.7 -1.55 9.45 -0.3 L9.45 -0.2 9.35 -0.8 9.25 -1.15 9.3 -1.0 9.3 -1.25 9.3 -1.35 9.3 -1.4 9.25 -1.45 9.25 -1.5 9.25 -1.65 9.2 -1.7 9.2 -1.8 9.15 -1.85 9.15 -2.0 9.1 -2.05 9.0 -2.55 8.4 -3.15 Q7.65 -4.1 6.45 -4.3 L5.8 -4.4 6.1 -3.8 6.55 -2.65 6.65 -2.3 6.7 -2.15 6.75 -1.95 6.85 -1.05 6.75 -0.35 6.5 0.6 6.4 0.85 Q5.8 2.3 4.6 3.3 L4.1 3.6 2.75 4.05 2.6 4.05 2.55 4.05 0.25 4.2 0.05 4.2 -1.65 4.05 -1.75 4.05 -2.0 4.0 -2.2 4.0 -2.25 4.0 -3.65 3.5 -5.3 2.1 Q-6.1 1.25 -6.4 0.15 L-6.4 0.1 -6.45 0.0 -6.6 -0.6 -6.7 -1.35 -6.65 -1.9 -6.55 -2.45 -6.5 -2.6 -6.45 -2.75 -6.1 -3.5 -5.95 -3.8 -5.9 -3.85 -6.25 -3.85 -6.65 -3.8 -7.0 -3.7 -7.35 -3.6 -8.0 -3.15 -8.3 -2.95 -8.95 -2.25 -8.95 -2.2 -9.0 -2.2 -9.0 -2.15 -9.0 -2.1 -9.05 -2.05 -9.05 -2.0 -9.1 -1.95 -9.1 -1.9 -9.15 -1.85 -9.15 -1.8 -9.2 -1.75 -9.2 -1.65 -9.25 -1.6 -9.25 -1.45 -9.3 -1.45 -9.3 -1.25 -9.35 -1.2 -9.4 -1.25 -9.4 -1.35 -9.4 -1.4 -9.35 -1.45 -9.35 -1.5 -9.35 -1.65 -9.3 -1.7 -9.3 -1.8 -9.25 -1.85 -9.25 -2.0 -9.2 -2.05 -8.75 -3.25 -8.55 -3.45 -8.6 -3.5 -8.7 -3.35 -8.8 -3.6 -8.9 -3.6 -8.85 -3.6 Q-10.35 -4.15 -11.85 -3.6 L-13.4 -2.7 -14.4 -1.35 -14.5 -1.1 -14.55 -1.05 -14.55 -0.9 -14.6 -0.85 -14.6 -0.8 -14.6 -0.65 -14.65 -0.6 -14.65 -0.55 -14.7 -0.5 -14.7 -0.45 -14.7 -0.35 -14.7 -0.15 -14.7 -0.1 -14.7 0.5 -14.65 0.55 -14.6 0.8 -14.15 2.1 Q-13.35 3.45 -11.85 3.95 L-11.1 4.1 -9.2 4.2 -9.3 4.0 Q-9.9 2.6 -9.75 1.1 L-9.6 0.45 -9.6 0.7 -9.4 2.2 -9.1 3.2 -9.0 3.45 -8.95 3.55 -8.9 3.6 -8.55 4.15 -8.25 4.4 -8.3 4.55 -8.3 4.6 -7.85 4.65 -7.75 4.7 -6.5 4.9 -4.65 5.2 -3.55 5.45 -2.55 5.55 -0.75 5.65 1.05 5.65 3.0 5.55 4.0 5.5 4.65 5.5 6.15 5.1 7.25 4.85 7.8 4.7 8.0 4.5 8.05 4.45 8.4 4.05 8.6 3.7 9.05 2.9 9.25 2.55 9.3 2.2 9.5 0.6 9.5 0.5 9.7 1.0 9.65 2.05 Q9.5 3.15 8.95 4.05 L8.85 4.15 9.0 4.15 9.05 4.15 10.55 4.15 11.0 4.1 11.75 3.95 Q13.25 3.45 14.05 2.1 L14.5 0.8 14.55 0.55 14.6 0.5 14.6 -0.1 14.6 -0.15 14.6 -0.35 14.6 -0.45 14.6 -0.5 14.55 -0.55 14.55 -0.6 14.5 -0.65 14.5 -0.8 14.5 -0.85 14.45 -0.9 14.45 -1.05 14.4 -1.1 14.3 -1.35 13.3 -2.7 11.75 -3.6 Q10.25 -4.15 8.8 -3.6 M13.75 -0.25 L13.7 0.35 13.65 0.6 13.6 0.7 13.6 0.75 13.55 0.85 12.75 2.3 12.1 2.85 11.0 2.95 10.75 2.75 10.65 2.55 10.65 2.5 10.7 2.2 11.5 2.3 Q12.25 2.4 12.7 1.8 L13.35 0.5 13.7 -0.85 13.75 -0.25 M5.3 0.1 L5.3 0.0 5.25 0.05 5.3 0.1 M-10.65 -1.8 L-10.7 -1.25 -10.85 -0.2 -10.85 0.5 -10.75 2.55 -10.85 2.75 -11.1 2.95 -12.2 2.85 -12.85 2.3 -11.1 2.25 Q-11.35 0.9 -11.1 -0.45 L-10.85 -1.4 -10.65 -1.8" fill="#23252e" fill-rule="evenodd" stroke="none"/>
    <path d="M-3.65 -2.15 L-3.65 -2.2 -3.65 -2.15" fill="#b6440e" fill-rule="evenodd" stroke="none"/>
    <path d="M-7.85 4.65 L-8.3 4.6 -8.3 4.55 -8.25 4.4 -7.85 4.65 M-9.0 -2.15 L-9.0 -2.2 -8.95 -2.2 -9.0 -2.15" fill="#5e6781" fill-rule="evenodd" stroke="none"/>
    <path d="M-7.0 -4.4 L-7.2 -4.35 -7.15 -4.4 -7.0 -4.4 M5.7 -5.0 L5.4 -5.05 5.3 -5.1 5.7 -5.0" fill="#8b94a3" fill-rule="evenodd" stroke="none"/>
    <path d="M5.3 0.1 L5.25 0.05 5.3 0.0 5.3 0.1" fill="#b3b9c1" fill-rule="evenodd" stroke="none"/>
    <path d="M12.05 -3.0 L12.3 -2.9 12.3 -2.85 Q12.15 -2.95 12.05 -3.0" fill="#878eb0" fill-rule="evenodd" stroke="none"/>
    <path d="M-4.6 -0.5 L-4.6 -0.45 -4.65 -0.5 -4.6 -0.5" fill="#a7adb8" fill-rule="evenodd" stroke="none"/>
    <path d="M-3.65 -2.2 L-3.15 -2.55 Q-1.85 -3.45 0.1 -3.45 L0.2 -3.45 1.45 -3.3 2.6 -2.95 2.9 -2.1 Q3.3 -0.4 1.9 0.65 0.2 1.85 -2.0 1.55 L-3.5 1.3 -3.8 1.2 -4.35 0.3 -4.5 -0.4 -4.5 -0.5 -4.6 -0.5 -4.6 -0.6 -4.4 -1.4 -4.35 -1.6 -4.3 -1.6 -4.15 -1.6 -3.65 -2.15 -3.65 -2.2 M4.15 1.05 L3.75 1.4 3.75 1.25 4.05 1.0 4.15 1.05 M8.8 -3.55 L8.8 -3.6 Q10.25 -4.15 11.75 -3.6 L13.3 -2.7 14.3 -1.35 14.4 -1.1 14.45 -1.05 14.45 -0.9 14.5 -0.85 14.5 -0.8 14.5 -0.65 14.55 -0.6 14.55 -0.55 14.6 -0.5 14.6 -0.45 14.6 -0.35 14.6 -0.15 14.6 -0.1 14.6 0.5 14.55 0.55 14.5 0.8 14.05 2.1 Q13.25 3.45 11.75 3.95 L11.0 4.1 10.55 4.15 9.05 4.15 9.0 4.15 8.85 4.15 8.95 4.05 Q9.5 3.15 9.65 2.05 L9.7 1.0 9.5 0.5 9.5 0.35 9.35 -0.8 9.45 -0.2 9.45 -0.3 Q9.7 -1.55 9.2 -2.65 L9.15 -2.9 8.8 -3.55 M9.05 2.9 L8.6 3.7 8.4 4.05 8.05 4.45 8.0 4.5 7.8 4.7 7.25 4.85 6.15 5.1 4.65 5.5 4.0 5.5 3.0 5.55 1.05 5.65 -0.75 5.65 -2.55 5.55 -3.55 5.45 -4.65 5.2 -6.5 4.9 -7.75 4.7 -7.85 4.65 -8.25 4.4 -8.55 4.15 -8.9 3.6 -8.95 3.55 -9.0 3.45 -9.1 3.2 -9.15 2.95 -5.7 3.5 -3.35 3.8 -2.3 4.0 -2.25 4.0 -2.2 4.0 -2.0 4.0 -1.75 4.05 -1.65 4.05 0.05 4.2 0.25 4.2 2.55 4.05 2.6 4.05 2.75 4.05 2.95 4.0 4.95 3.7 8.75 2.95 9.05 2.9 M-9.6 0.45 L-9.75 1.1 Q-9.9 2.6 -9.3 4.0 L-9.2 4.2 -11.1 4.1 -11.85 3.95 Q-13.35 3.45 -14.15 2.1 L-14.6 0.8 -14.65 0.55 -14.7 0.5 -14.7 -0.1 -14.7 -0.15 -14.7 -0.35 -14.7 -0.45 -14.7 -0.5 -14.65 -0.55 -14.65 -0.6 -14.6 -0.65 -14.6 -0.8 -14.6 -0.85 -14.55 -0.9 -14.55 -1.05 -14.5 -1.1 -14.4 -1.35 -13.4 -2.7 -11.85 -3.6 Q-10.35 -4.15 -8.85 -3.6 L-8.9 -3.6 -8.8 -3.6 -8.7 -3.35 -8.6 -3.5 -8.55 -3.45 -8.75 -3.25 -9.2 -2.05 -9.25 -2.0 -9.25 -1.85 -9.3 -1.8 -9.3 -1.7 -9.35 -1.65 -9.35 -1.5 -9.35 -1.45 -9.4 -1.4 -9.4 -1.35 -9.4 -1.25 -9.4 -1.0 -9.4 -1.05 -9.35 -1.15 -9.4 -0.95 -9.6 0.35 -9.6 0.45 M12.3 -2.85 L12.3 -2.9 12.05 -3.0 12.0 -3.0 11.05 -3.1 10.8 -2.95 10.75 -2.8 10.65 -2.45 10.6 -2.05 10.6 -1.35 10.6 -1.25 10.75 -0.2 10.75 0.5 10.75 0.85 10.65 2.5 10.65 2.55 10.75 2.75 11.0 2.95 12.1 2.85 12.75 2.3 13.55 0.85 13.6 0.75 13.6 0.7 13.65 0.6 13.7 0.35 13.75 -0.25 13.55 -1.3 Q13.15 -2.35 12.45 -2.8 L12.3 -2.85 M-12.0 -3.0 L-12.05 -3.0 -12.55 -2.8 Q-13.25 -2.35 -13.65 -1.3 L-13.8 -0.75 -13.8 -0.65 -13.8 0.2 -13.65 0.85 -12.85 2.3 -12.2 2.85 -11.1 2.95 -10.85 2.75 -10.75 2.55 -10.85 0.5 -10.85 -0.2 -10.7 -1.25 -10.65 -1.8 -10.9 -2.95 -11.15 -3.1 -11.75 -3.05 -12.0 -3.0" fill="#333333" fill-rule="evenodd" stroke="none"/>
    <path d="M2.6 -2.95 L3.2 -2.65 3.35 -2.55 4.3 -1.6 4.45 -1.6 4.55 -0.9 4.75 -0.45 4.65 -0.45 4.65 -0.35 Q4.65 0.4 4.15 1.05 L4.05 1.0 3.75 1.25 3.75 1.4 3.75 1.45 3.45 1.65 3.35 1.75 Q2.0 2.6 0.1 2.6 L-1.0 2.55 Q-2.2 2.35 -3.15 1.75 L-3.8 1.2 -3.5 1.3 -2.0 1.55 Q0.2 1.85 1.9 0.65 3.3 -0.4 2.9 -2.1 L2.6 -2.95 M9.5 0.5 L9.5 0.6 9.3 2.2 9.25 2.55 9.05 2.9 8.75 2.95 4.95 3.7 2.95 4.0 2.75 4.05 4.1 3.6 4.6 3.3 Q5.8 2.3 6.4 0.85 L6.5 0.6 6.75 -0.35 6.85 -1.05 7.25 -0.9 Q8.5 -0.6 8.4 -1.9 L8.2 -2.75 Q7.65 -3.95 6.4 -4.05 L6.1 -3.8 5.8 -4.4 6.45 -4.3 Q7.65 -4.1 8.4 -3.15 L9.0 -2.55 9.1 -2.05 9.15 -2.0 9.15 -1.85 9.2 -1.8 9.2 -1.7 9.25 -1.65 9.25 -1.5 9.25 -1.45 9.3 -1.4 9.3 -1.35 9.3 -1.25 9.3 -1.0 9.25 -1.15 9.35 -0.8 9.5 0.35 9.5 0.5 M-9.1 3.2 L-9.4 2.2 -9.6 0.7 -9.6 0.45 -9.6 0.35 -9.4 -0.95 Q-9.25 -0.25 -8.15 -0.45 L-7.85 -0.75 Q-6.7 -2.05 -7.8 -3.15 L-8.0 -3.15 -7.35 -3.6 -7.0 -3.7 -6.65 -3.8 -6.25 -3.85 -5.9 -3.85 -5.95 -3.8 -6.1 -3.5 -6.45 -2.75 -6.5 -2.6 -6.55 -2.45 -6.65 -1.9 -6.7 -1.35 -6.6 -0.6 -6.45 0.0 -6.4 0.1 -6.4 0.15 Q-6.1 1.25 -5.3 2.1 L-3.65 3.5 -2.25 4.0 -2.3 4.0 -3.35 3.8 -5.7 3.5 -9.15 2.95 -9.1 3.2 M12.3 -2.85 L12.45 -2.8 Q13.15 -2.35 13.55 -1.3 L13.75 -0.25 13.7 -0.85 13.35 0.5 12.7 1.8 Q12.25 2.4 11.5 2.3 L10.7 2.2 10.65 2.5 10.75 0.85 10.75 0.5 10.75 -0.2 10.6 -1.25 10.6 -1.35 Q11.0 -0.7 12.2 -0.9 L12.5 -1.5 Q12.55 -2.7 11.2 -2.95 L10.9 -2.9 10.8 -2.85 10.75 -2.8 10.8 -2.95 11.05 -3.1 12.0 -3.0 12.05 -3.0 Q12.15 -2.95 12.3 -2.85 M-13.8 -0.75 L-13.7 -0.7 Q-12.35 0.0 -11.6 -1.65 -11.15 -2.65 -12.0 -3.0 L-11.75 -3.05 -11.15 -3.1 -10.9 -2.95 -10.65 -1.8 -10.85 -1.4 -11.1 -0.45 Q-11.35 0.9 -11.1 2.25 L-12.85 2.3 -13.65 0.85 -13.8 0.2 -13.8 -0.65 -13.8 -0.75 M-9.4 -1.05 L-9.4 -1.0 -9.4 -1.25 -9.4 -1.05" fill="#666666" fill-rule="evenodd" stroke="none"/>
    <path d="M-9.4 -1.25 L-9.35 -1.2 -9.3 -1.25 -9.3 -1.45 -9.25 -1.45 -9.25 -1.6 -9.2 -1.65 -9.2 -1.75 -9.15 -1.8 -9.15 -1.85 -9.1 -1.9 -9.1 -1.95 -9.05 -2.0 -9.05 -2.05 -9.0 -2.1 -9.0 -2.15 -8.95 -2.2 -8.95 -2.25 -8.3 -2.95 -8.0 -3.15 -7.8 -3.15 Q-6.7 -2.05 -7.85 -0.75 L-8.15 -0.45 Q-9.25 -0.25 -9.4 -0.95 L-9.35 -1.15 -9.4 -1.05 -9.4 -1.25 M6.85 -1.05 L6.75 -1.95 6.7 -2.15 6.65 -2.3 6.55 -2.65 6.1 -3.8 6.4 -4.05 Q7.65 -3.95 8.2 -2.75 L8.4 -1.9 Q8.5 -0.6 7.25 -0.9 L6.85 -1.05 M10.6 -1.35 L10.6 -2.05 10.65 -2.45 10.75 -2.8 10.8 -2.85 10.9 -2.9 11.2 -2.95 Q12.55 -2.7 12.5 -1.5 L12.2 -0.9 Q11.0 -0.7 10.6 -1.35 M-13.8 -0.75 L-13.65 -1.3 Q-13.25 -2.35 -12.55 -2.8 L-12.05 -3.0 -12.0 -3.0 Q-11.15 -2.65 -11.6 -1.65 -12.35 0.0 -13.7 -0.7 L-13.8 -0.75" fill="#999999" fill-rule="evenodd" stroke="none"/>
  </g>
</svg>
