<?xml version="1.0" encoding="UTF-8" standalone="no"?>
<svg xmlns:xlink="http://www.w3.org/1999/xlink" height="15.7px" width="32.15px" xmlns="http://www.w3.org/2000/svg">
  <g transform="matrix(1.0, 0.0, 0.0, 1.0, 16.1, 8.05)">
    <path d="M0.85 -7.7 L3.3 -7.05 4.5 -6.4 5.5 -5.45 5.0 -5.7 4.9 -5.75 4.3 -5.95 4.05 -6.05 2.7 -6.35 2.6 -6.35 2.15 -6.35 0.55 -6.2 0.15 -5.85 0.05 -5.85 -0.1 -5.85 -0.15 -5.85 -0.6 -6.2 -0.9 -6.25 Q-0.25 -6.55 0.35 -6.95 0.8 -7.25 0.85 -7.7 M8.85 -2.9 L8.65 -3.2 8.35 -3.65 8.25 -3.75 8.2 -3.85 8.15 -3.85 8.05 -3.95 7.75 -4.35 7.75 -4.5 7.8 -4.7 Q7.95 -5.1 8.5 -5.0 L8.6 -4.95 10.85 -5.15 11.05 -5.15 11.15 -5.1 11.6 -5.0 11.8 -5.0 Q11.6 -4.85 11.7 -4.45 L10.5 -4.7 9.05 -4.6 9.25 -4.4 9.4 -4.2 9.45 -4.15 9.45 -4.1 9.6 -3.9 9.65 -3.85 9.65 -3.8 9.85 -3.5 9.65 -3.6 9.35 -3.55 9.3 -3.5 Q9.05 -3.45 8.95 -3.25 L8.85 -2.9 M15.7 -0.35 L15.7 -0.1 15.55 0.85 15.55 0.9 15.3 1.65 15.0 1.85 14.9 1.9 14.55 1.9 14.8 0.75 14.85 0.65 14.85 0.5 14.9 -0.15 14.9 -0.45 14.9 -0.35 15.05 -0.15 Q15.6 0.0 15.7 -0.35 M8.95 2.8 L9.4 1.55 9.5 1.2 9.65 0.4 10.05 0.8 10.7 0.75 10.85 0.6 10.85 0.7 10.75 1.75 10.6 2.15 10.3 3.0 9.9 3.15 Q9.2 3.35 8.95 2.8 M13.0 -3.25 L12.55 -3.55 13.0 -3.25 M12.5 -2.65 L12.6 -2.85 12.6 -2.65 12.5 -2.65 M12.4 -1.3 L12.35 -1.3 12.4 -1.3 M-11.85 -5.0 L-11.65 -5.0 -11.2 -5.1 -11.1 -5.15 -10.85 -5.15 -8.65 -4.95 -8.55 -5.0 Q-8.0 -5.1 -7.85 -4.65 L-7.8 -4.5 -7.8 -4.35 -8.1 -3.95 -8.2 -3.85 -8.3 -3.75 -8.4 -3.65 -8.55 -3.4 -8.9 -2.9 Q-9.0 -3.6 -9.7 -3.6 L-9.85 -3.5 -9.7 -3.8 -9.65 -3.85 -9.65 -3.9 -9.5 -4.1 -9.45 -4.15 -9.4 -4.2 -9.25 -4.4 -9.05 -4.6 -10.55 -4.7 -11.75 -4.45 Q-11.65 -4.85 -11.85 -5.0 M-9.65 0.4 L-9.55 1.2 -9.45 1.55 -9.0 2.8 Q-9.25 3.35 -9.95 3.15 L-10.35 3.0 -10.65 2.15 -10.75 1.75 -10.9 0.7 -10.9 0.6 -10.75 0.75 -10.1 0.8 -9.65 0.4 M-15.35 1.65 L-15.6 0.9 -15.6 0.85 -15.75 -0.1 -15.75 -0.35 Q-15.65 0.0 -15.1 -0.15 L-14.95 -0.35 -14.9 -0.45 -14.9 -0.15 -14.9 0.5 -14.9 0.65 -14.85 0.75 -14.55 1.9 -14.95 1.9 -15.05 1.85 Q-15.2 1.7 -15.35 1.65 M-12.6 -3.55 L-13.05 -3.25 -12.6 -3.55 M-12.55 -2.65 L-12.65 -2.65 -12.6 -2.85 -12.55 -2.65 M11.05 1.95 L11.1 1.95 11.05 1.95" fill="#7a8bbc" fill-rule="evenodd" stroke="none"/>
    <path d="M5.5 -5.45 L5.85 -5.25 6.45 -4.85 7.55 -3.7 8.25 -3.25 8.0 -3.4 8.15 -3.2 9.05 -1.15 9.15 0.05 9.15 0.4 6.2 0.4 6.35 -0.15 6.4 -0.2 6.4 -0.3 6.45 -0.5 6.35 -1.4 6.05 -2.3 4.6 -3.65 4.45 -3.75 2.75 -4.2 0.75 -4.5 0.65 -4.5 0.25 -4.55 0.2 -4.55 0.05 -4.8 0.05 -5.65 0.1 -5.8 0.15 -5.85 0.55 -6.2 2.15 -6.35 2.6 -6.35 2.7 -6.35 4.05 -6.05 4.3 -5.95 4.9 -5.75 5.0 -5.7 5.5 -5.45 M-9.2 0.4 L-9.2 0.05 -9.1 -1.15 -8.05 -3.4 -8.0 -3.4 -8.3 -3.25 -7.6 -3.7 -7.45 -3.85 -6.45 -4.85 -5.9 -5.25 -5.5 -5.45 -5.4 -5.5 -5.05 -5.7 -4.35 -5.95 -3.4 -6.2 -3.2 -6.25 -2.65 -6.35 -1.55 -6.35 -0.9 -6.25 -0.6 -6.2 -0.15 -5.85 -0.15 -5.8 -0.1 -5.65 -0.05 -4.85 -0.1 -4.8 -0.25 -4.55 -0.3 -4.55 -0.7 -4.5 -0.8 -4.5 -2.8 -4.2 -4.5 -3.75 -4.65 -3.65 -6.1 -2.3 -6.4 -1.4 -6.45 -0.5 -6.45 -0.3 -6.4 -0.2 -6.4 -0.15 -6.2 0.4 -9.2 0.4 M-3.8 6.05 L-4.2 5.65 -2.85 5.8 -0.1 5.95 0.05 5.95 2.05 5.85 3.8 5.7 3.2 6.35 Q2.25 7.05 1.0 7.15 L-2.75 6.7 -3.8 6.05" fill="#46579f" fill-rule="evenodd" stroke="none"/>
    <path d="M-5.5 -5.45 L-5.5 -5.5 -5.35 -5.7 -5.05 -6.1 -4.65 -6.35 -3.25 -7.05 -3.0 -7.1 -2.9 -7.15 -2.85 -7.15 -2.75 -7.2 -1.45 -7.5 -0.3 -7.7 0.5 -7.75 0.85 -7.7 Q0.8 -7.25 0.35 -6.95 -0.25 -6.55 -0.9 -6.25 L-1.55 -6.35 -2.65 -6.35 -3.2 -6.25 -3.4 -6.2 -4.35 -5.95 -5.05 -5.7 -5.4 -5.5 -5.5 -5.45 M8.85 -2.9 L8.95 -3.25 Q9.05 -3.45 9.3 -3.5 L9.35 -3.55 9.65 -3.6 9.85 -3.5 10.6 -1.4 10.75 -0.75 10.85 -0.05 10.85 0.6 10.7 0.75 10.05 0.8 9.65 0.4 9.65 0.15 9.55 -1.05 9.3 -1.95 9.25 -2.1 9.2 -2.2 8.9 -2.85 8.85 -2.9 M11.7 -4.45 Q11.6 -4.85 11.8 -5.0 L12.1 -4.9 13.5 -4.3 14.7 -3.25 15.25 -2.5 15.3 -2.4 15.65 -1.6 15.7 -1.25 15.7 -1.2 15.7 -0.7 15.7 -0.65 15.7 -0.35 Q15.6 0.0 15.05 -0.15 L14.9 -0.35 14.9 -0.45 14.85 -0.8 14.85 -0.85 14.8 -0.85 14.8 -0.95 14.75 -1.0 14.75 -1.05 14.75 -1.15 14.7 -1.55 14.7 -1.6 14.65 -1.7 14.5 -1.95 14.45 -2.05 14.4 -2.2 14.4 -2.25 14.35 -2.3 14.35 -2.35 14.3 -2.4 13.8 -3.0 13.7 -3.1 13.3 -3.5 12.7 -3.95 11.7 -4.45 M9.9 -4.1 L9.95 -4.15 10.65 -4.15 11.25 -4.05 11.6 -3.95 11.8 -3.9 11.9 -3.85 12.5 -3.6 12.55 -3.55 12.1 -3.15 11.7 -3.05 10.4 -3.3 10.25 -3.55 9.9 -4.1 M12.65 -1.05 L12.65 -1.1 12.65 -1.3 12.65 -1.4 12.5 -1.8 Q12.35 -2.25 12.5 -2.65 L12.6 -2.65 12.6 -2.85 12.6 -2.9 12.8 -3.05 13.25 -3.1 13.35 -3.0 14.0 -2.25 14.25 -1.85 14.25 -1.8 14.3 -1.8 14.35 -1.65 14.4 -1.6 14.45 -1.4 14.5 -1.35 14.5 -1.2 14.55 -1.15 14.55 -1.1 14.55 -0.95 14.6 -0.9 14.6 -0.85 14.65 -0.8 14.65 -0.75 14.65 -0.65 14.65 -0.55 14.5 -0.25 14.3 -0.1 13.3 -0.15 12.7 -0.8 12.65 -1.05 M11.35 0.2 L11.35 -0.05 11.35 -0.1 11.3 -1.1 11.2 -1.55 11.15 -1.75 10.9 -2.3 10.75 -2.65 11.35 -2.75 11.65 -2.55 11.95 -2.2 12.3 -1.55 12.4 -1.3 12.45 -1.05 12.55 -0.6 12.35 0.0 Q12.1 0.45 11.6 0.3 L11.35 0.2 M12.4 -1.3 L12.35 -1.3 12.4 -1.3 M-15.75 -0.35 L-15.75 -0.65 -15.75 -0.7 -15.75 -1.2 -15.75 -1.25 -15.65 -1.6 -15.3 -2.4 -15.3 -2.5 -14.75 -3.25 -13.55 -4.3 -12.15 -4.9 -11.85 -5.0 Q-11.65 -4.85 -11.75 -4.45 L-12.75 -3.95 -13.35 -3.5 -13.75 -3.1 -13.85 -3.0 -14.35 -2.4 -14.4 -2.35 -14.4 -2.3 -14.45 -2.25 -14.45 -2.2 -14.5 -2.05 -14.55 -1.95 -14.7 -1.7 -14.7 -1.6 -14.7 -1.55 -14.8 -1.15 -14.8 -1.05 -14.8 -1.0 -14.8 -0.95 -14.85 -0.95 -14.85 -0.85 -14.9 -0.85 -14.9 -0.8 -14.9 -0.45 -14.95 -0.35 -15.1 -0.15 Q-15.65 0.0 -15.75 -0.35 M-8.9 -2.9 L-9.25 -2.2 -9.3 -2.1 -9.35 -1.95 -9.6 -1.05 -9.7 0.15 -9.65 0.4 -10.1 0.8 -10.75 0.75 -10.9 0.6 -10.85 -0.05 -10.8 -0.75 -10.65 -1.4 Q-10.45 -2.55 -9.85 -3.5 L-9.7 -3.6 Q-9.0 -3.6 -8.9 -2.9 M-9.95 -4.1 L-10.3 -3.55 -10.4 -3.3 -11.7 -3.05 -12.15 -3.15 -12.6 -3.55 -12.5 -3.6 -11.95 -3.85 -11.85 -3.9 -11.65 -3.95 -11.3 -4.05 -10.65 -4.15 -9.95 -4.15 -9.95 -4.1 M-14.7 -0.55 L-14.7 -0.65 -14.7 -0.75 -14.7 -0.8 -14.65 -0.85 -14.65 -0.9 -14.6 -0.95 -14.6 -1.1 -14.6 -1.15 -14.55 -1.2 -14.55 -1.35 -14.5 -1.4 -14.4 -1.6 -14.4 -1.65 -14.3 -1.8 -14.25 -1.85 -14.0 -2.25 -13.4 -3.0 -13.25 -3.1 -12.85 -3.05 -12.65 -2.9 -12.6 -2.85 -12.65 -2.65 -12.55 -2.65 Q-12.4 -2.25 -12.55 -1.8 L-12.65 -1.4 -12.65 -1.3 -12.65 -1.1 -12.65 -1.05 -12.7 -0.8 -13.35 -0.15 -14.35 -0.1 -14.55 -0.25 -14.7 -0.55 M-12.4 -1.3 L-12.35 -1.55 -12.0 -2.2 -11.7 -2.55 -11.4 -2.75 -10.75 -2.65 -10.95 -2.3 -11.2 -1.75 -11.25 -1.55 -11.3 -1.1 -11.4 -0.1 -11.4 -0.05 -11.35 0.2 -11.65 0.3 Q-12.15 0.45 -12.4 0.0 L-12.6 -0.6 -12.5 -1.05 -12.4 -1.3" fill="#a0accf" fill-rule="evenodd" stroke="none"/>
    <path d="M0.85 -7.7 L0.5 -7.75 -0.3 -7.7 -1.45 -7.5 -2.75 -7.2 -2.85 -7.15 -2.9 -7.15 -3.0 -7.1 -3.25 -7.05 -4.65 -6.35 -5.05 -6.1 -5.35 -5.7 -5.5 -5.5 -5.5 -5.45 -5.9 -5.25 -6.45 -4.85 -7.45 -3.85 -7.6 -3.7 -8.3 -3.25 -8.0 -3.4 -8.05 -3.4 -9.1 -1.15 -9.2 0.05 -9.2 0.4 -9.3 0.4 -9.3 0.45 -9.25 0.9 -9.15 1.0 -9.05 1.05 -8.75 2.0 -8.7 2.15 -6.95 4.2 -6.8 4.35 -6.45 4.6 -6.5 4.6 -4.65 4.9 -4.5 4.95 -3.55 5.15 -2.55 5.25 -2.45 5.25 -0.75 5.35 -0.1 5.35 0.05 5.35 0.25 5.35 0.7 5.35 2.5 5.25 3.5 5.15 3.65 5.15 3.9 5.05 4.6 4.9 6.45 4.6 6.4 4.6 6.75 4.35 7.95 3.1 8.65 2.15 8.7 2.0 9.0 1.05 9.1 1.0 9.2 0.9 9.25 0.45 9.3 0.4 9.15 0.4 9.15 0.05 9.05 -1.15 8.15 -3.2 8.0 -3.4 8.25 -3.25 7.55 -3.7 6.45 -4.85 5.85 -5.25 5.5 -5.45 4.5 -6.4 3.3 -7.05 0.85 -7.7 M4.2 -7.15 L6.65 -5.6 7.25 -5.1 Q7.4 -5.0 7.6 -4.85 8.35 -5.5 9.45 -5.45 11.3 -5.45 13.0 -4.85 L13.65 -4.55 14.0 -4.3 15.0 -3.3 15.35 -2.9 15.85 -1.75 16.0 -0.95 16.05 -0.2 16.05 -0.05 16.05 0.05 15.95 1.0 15.55 2.1 15.25 2.65 Q14.5 3.85 13.3 4.55 L10.95 5.65 9.3 5.85 8.95 5.9 8.2 5.75 7.65 5.65 7.6 5.6 7.5 5.55 6.85 5.25 6.75 5.1 6.35 5.2 Q4.6 6.45 2.75 7.15 L0.2 7.65 Q-2.05 7.65 -4.0 6.7 L-6.0 5.35 -6.1 5.3 -6.75 5.1 -6.9 5.25 -7.55 5.55 -7.65 5.6 -7.7 5.65 -8.25 5.75 -9.0 5.9 -9.3 5.85 -11.0 5.65 -13.35 4.55 Q-14.55 3.85 -15.3 2.65 L-15.6 2.1 -16.0 1.0 -16.1 0.05 -16.1 -0.05 -16.1 -0.2 -16.05 -0.95 -15.9 -1.75 -15.4 -2.9 -15.0 -3.3 -14.05 -4.3 -13.65 -4.55 -13.05 -4.85 Q-11.35 -5.45 -9.5 -5.45 -8.35 -5.5 -7.55 -4.75 L-6.5 -5.2 -5.6 -6.05 -5.0 -6.5 -4.5 -6.85 -3.8 -7.15 Q-2.85 -7.65 -1.7 -7.75 L-1.05 -7.9 0.5 -8.05 Q2.0 -8.0 3.4 -7.45 L4.2 -7.15 M0.15 -5.85 L0.1 -5.8 0.05 -5.65 0.05 -4.8 0.2 -4.55 0.25 -4.55 0.65 -4.5 0.75 -4.5 2.75 -4.2 4.45 -3.75 4.6 -3.65 6.05 -2.3 6.35 -1.4 6.45 -0.5 6.4 -0.3 6.4 -0.2 6.35 -0.15 Q6.05 0.95 5.25 1.8 L3.6 3.2 2.2 3.7 1.95 3.7 1.7 3.75 1.6 3.75 0.05 3.9 -0.1 3.9 -1.65 3.75 -1.75 3.75 -2.0 3.7 -2.2 3.7 -2.25 3.7 -3.65 3.2 -5.3 1.8 Q-6.1 0.95 -6.4 -0.15 L-6.4 -0.2 -6.45 -0.3 -6.45 -0.5 -6.4 -1.4 -6.1 -2.3 -4.65 -3.65 -4.5 -3.75 -2.8 -4.2 -0.8 -4.5 -0.7 -4.5 -0.3 -4.55 -0.25 -4.55 -0.1 -4.8 -0.05 -4.85 -0.1 -5.65 -0.15 -5.8 -0.15 -5.85 -0.1 -5.85 0.05 -5.85 0.15 -5.85 M4.55 -1.9 L4.25 -1.9 4.1 -1.9 3.6 -2.5 3.1 -2.85 Q1.85 -3.7 0.05 -3.75 L-0.1 -3.75 Q-1.9 -3.7 -3.15 -2.85 L-3.65 -2.5 -4.15 -1.9 -4.3 -1.9 -4.55 -1.9 Q-4.7 -2.5 -5.4 -2.7 L-5.55 -2.7 -5.8 -2.45 Q-6.15 -1.6 -5.75 -0.75 L-5.55 -0.45 Q-5.25 -0.2 -5.0 -0.25 L-5.1 -0.35 -5.1 -0.4 -5.15 -0.4 -5.15 -0.45 -5.35 -0.9 -4.65 -0.8 -4.6 -0.75 -4.6 -0.8 -4.55 -0.8 -4.5 -0.8 -4.5 -0.7 -4.35 0.0 Q-4.1 0.8 -3.15 1.45 -1.9 2.25 -0.1 2.3 L0.05 2.3 Q1.85 2.25 3.1 1.45 4.05 0.8 4.35 0.0 L4.45 -0.7 4.45 -0.8 4.55 -0.8 4.55 -0.75 4.6 -0.8 5.3 -0.9 5.35 -0.9 5.1 -0.45 5.1 -0.4 5.05 -0.4 5.05 -0.35 5.0 -0.25 Q5.2 -0.2 5.5 -0.45 L5.7 -0.75 Q6.1 -1.6 5.75 -2.45 L5.5 -2.7 5.35 -2.7 Q4.65 -2.5 4.55 -1.9 M11.8 -5.0 L11.6 -5.0 11.15 -5.1 11.05 -5.15 10.85 -5.15 8.6 -4.95 8.5 -5.0 Q7.95 -5.1 7.8 -4.7 L7.75 -4.5 7.75 -4.35 8.05 -3.95 8.15 -3.85 8.2 -3.85 8.25 -3.75 8.35 -3.65 8.65 -3.2 8.85 -2.9 8.9 -2.85 9.2 -2.2 9.2 -2.15 9.25 -2.1 9.25 -2.0 9.3 -1.95 9.3 -1.8 9.3 -1.75 9.35 -1.7 9.35 -1.65 9.35 -1.55 9.35 -1.3 9.3 -1.45 9.55 0.05 9.55 0.15 9.65 0.4 9.5 1.2 9.4 1.55 8.95 2.8 8.2 4.05 8.1 4.15 8.05 4.2 8.0 4.25 7.85 4.35 7.95 4.35 7.9 4.4 7.8 4.55 7.65 4.75 7.6 4.85 7.6 5.15 7.75 5.45 8.9 5.25 9.65 5.2 9.9 5.2 10.0 5.15 11.35 4.9 12.2 4.6 14.05 3.4 14.55 2.85 15.3 1.65 15.55 0.9 15.55 0.85 15.7 -0.1 15.7 -0.35 15.7 -0.65 15.7 -0.7 15.7 -1.2 15.7 -1.25 15.65 -1.6 15.3 -2.4 15.25 -2.5 14.7 -3.25 13.5 -4.3 12.1 -4.9 11.8 -5.0 M7.0 -4.7 L7.15 -4.65 7.1 -4.7 7.0 -4.7 M8.95 -2.5 L8.95 -2.45 8.95 -2.5 M-11.85 -5.0 L-12.15 -4.9 -13.55 -4.3 -14.75 -3.25 -15.3 -2.5 -15.3 -2.4 -15.65 -1.6 -15.75 -1.25 -15.75 -1.2 -15.75 -0.7 -15.75 -0.65 -15.75 -0.35 -15.75 -0.1 -15.6 0.85 -15.6 0.9 -15.35 1.65 -14.6 2.85 -14.1 3.4 Q-13.25 4.2 -12.25 4.6 L-11.4 4.9 -10.0 5.15 -9.9 5.2 -9.7 5.2 -8.95 5.25 -7.8 5.45 -7.65 5.15 -7.65 4.85 -7.7 4.75 -7.8 4.55 -7.95 4.4 -7.95 4.35 -7.85 4.35 -8.05 4.25 -8.1 4.2 -8.15 4.15 -8.25 4.05 -9.0 2.8 -9.45 1.55 -9.55 1.2 -9.65 0.4 -9.6 0.15 -9.6 0.05 -9.35 -1.45 -9.4 -1.3 -9.4 -1.55 -9.4 -1.65 -9.4 -1.7 -9.35 -1.75 -9.35 -1.8 -9.35 -1.95 -9.3 -2.0 -9.3 -2.1 -9.25 -2.15 -9.25 -2.2 -8.9 -2.9 -8.55 -3.4 -8.4 -3.65 -8.3 -3.75 -8.2 -3.85 -8.1 -3.95 -7.8 -4.35 -7.8 -4.5 -7.85 -4.65 Q-8.0 -5.1 -8.55 -5.0 L-8.65 -4.95 -10.85 -5.15 -11.1 -5.15 -11.2 -5.1 -11.65 -5.0 -11.85 -5.0 M-7.0 -4.7 L-7.15 -4.7 -7.2 -4.65 -7.0 -4.7 M-9.0 -2.45 L-8.95 -2.5 -9.0 -2.5 -9.0 -2.45 M-3.8 6.05 L-2.75 6.7 1.0 7.15 Q2.25 7.05 3.2 6.35 L3.8 5.7 2.05 5.85 0.05 5.95 -0.1 5.95 -2.85 5.8 -4.2 5.65 -3.8 6.05 M12.8 2.0 L12.85 2.0 12.8 2.0" fill="#23252e" fill-rule="evenodd" stroke="none"/>
    <path d="M4.25 -1.9 L4.2 -1.75 4.25 -1.55 4.25 -1.35 4.35 -1.0 4.55 -0.8 4.45 -0.8 4.45 -0.7 4.35 0.0 Q4.05 0.8 3.1 1.45 1.85 2.25 0.05 2.3 L-0.1 2.3 Q-1.9 2.25 -3.15 1.45 -4.1 0.8 -4.35 0.0 L-4.5 -0.7 -4.5 -0.8 -4.55 -0.8 -4.4 -1.0 -4.3 -1.35 -4.25 -1.55 -4.25 -1.75 -4.3 -1.9 -4.15 -1.9 -3.65 -2.5 -3.65 -2.45 -3.85 -2.1 -3.85 -1.9 -3.8 -1.5 -3.8 -0.95 -3.5 -0.3 -2.9 0.2 Q-1.6 0.8 -0.1 0.65 L0.05 0.65 Q1.55 0.8 2.85 0.2 3.2 0.0 3.45 -0.3 L3.75 -0.95 3.75 -1.5 3.8 -1.9 3.8 -2.1 3.6 -2.45 3.6 -2.5 4.1 -1.9 4.25 -1.9" fill="#b6440e" fill-rule="evenodd" stroke="none"/>
    <path d="M4.55 -1.9 L4.6 -1.9 5.25 -1.75 5.3 -1.75 5.35 -1.7 5.6 -1.45 5.45 -1.0 5.35 -0.9 5.3 -0.9 4.6 -0.8 4.55 -0.8 4.35 -1.0 4.25 -1.35 4.25 -1.55 4.2 -1.75 4.25 -1.9 4.55 -1.9 M3.6 -2.5 L3.6 -2.45 3.8 -2.1 3.8 -1.9 3.75 -1.5 3.75 -0.95 3.45 -0.3 Q3.2 0.0 2.85 0.2 1.55 0.8 0.05 0.65 L-0.1 0.65 Q-1.6 0.8 -2.9 0.2 L-3.5 -0.3 -3.8 -0.95 -3.8 -1.5 -3.85 -1.9 -3.85 -2.1 -3.65 -2.45 -3.65 -2.5 -3.15 -2.85 Q-1.9 -3.7 -0.1 -3.75 L0.05 -3.75 Q1.85 -3.7 3.1 -2.85 L3.6 -2.5 M-4.3 -1.9 L-4.25 -1.75 -4.25 -1.55 -4.3 -1.35 -4.4 -1.0 -4.55 -0.8 -4.6 -0.8 -4.65 -0.8 -5.35 -0.9 -5.5 -1.0 -5.6 -1.45 -5.4 -1.7 -5.35 -1.75 -5.25 -1.75 -4.65 -1.9 -4.55 -1.9 -4.3 -1.9" fill="#e85700" fill-rule="evenodd" stroke="none"/>
    <path d="M5.35 -0.9 L5.45 -1.0 5.6 -1.45 5.35 -1.7 5.3 -1.75 5.25 -1.75 4.6 -1.9 4.55 -1.9 Q4.65 -2.5 5.35 -2.7 L5.5 -2.7 5.75 -2.45 Q6.1 -1.6 5.7 -0.75 L5.5 -0.45 Q5.2 -0.2 5.0 -0.25 L5.05 -0.35 5.05 -0.4 5.1 -0.4 5.1 -0.45 5.35 -0.9 M-4.55 -1.9 L-4.65 -1.9 -5.25 -1.75 -5.35 -1.75 -5.4 -1.7 -5.6 -1.45 -5.5 -1.0 -5.35 -0.9 -5.15 -0.45 -5.15 -0.4 -5.1 -0.4 -5.1 -0.35 -5.0 -0.25 Q-5.25 -0.2 -5.55 -0.45 L-5.75 -0.75 Q-6.15 -1.6 -5.8 -2.45 L-5.55 -2.7 -5.4 -2.7 Q-4.7 -2.5 -4.55 -1.9" fill="#b3b9c1" fill-rule="evenodd" stroke="none"/>
    <path d="M4.55 -0.8 L4.6 -0.8 4.55 -0.75 4.55 -0.8 M-4.65 -0.8 L-4.6 -0.8 -4.6 -0.75 -4.65 -0.8" fill="#a7adb8" fill-rule="evenodd" stroke="none"/>
    <path d="M15.3 1.65 L14.55 2.85 14.05 3.4 12.2 4.6 11.35 4.9 11.45 4.6 11.5 4.35 10.9 4.5 11.8 4.25 13.45 3.3 13.75 2.95 14.45 2.05 14.5 1.95 14.55 1.9 14.9 1.9 15.0 1.85 15.3 1.65 M8.9 5.25 L7.75 5.45 7.6 5.15 7.6 4.85 7.65 4.75 7.8 4.55 7.9 4.4 7.95 4.35 8.0 4.25 8.05 4.2 8.1 4.15 8.2 4.05 8.95 2.8 Q9.2 3.35 9.9 3.15 L10.3 3.0 9.9 3.9 9.8 4.15 9.55 4.45 9.5 4.55 9.45 4.65 9.3 4.85 9.25 4.9 8.9 5.25 M9.65 0.4 L9.55 0.15 9.55 0.05 9.3 -1.45 9.35 -1.3 9.35 -1.55 9.35 -1.65 9.35 -1.7 9.3 -1.75 9.3 -1.8 9.3 -1.95 9.25 -2.0 9.25 -2.1 9.2 -2.15 9.2 -2.2 9.25 -2.1 9.3 -1.95 9.55 -1.05 9.65 0.15 9.65 0.4 M9.95 -4.15 L9.9 -4.1 9.9 -4.15 9.95 -4.15 M14.65 -0.55 L14.65 -0.45 14.65 -0.4 14.65 -0.05 14.65 0.2 14.6 0.25 14.55 0.5 14.15 1.75 14.1 1.8 13.9 2.1 13.85 2.05 13.7 2.2 13.55 2.3 13.05 2.4 12.9 2.3 12.75 2.1 12.7 1.65 12.8 1.1 12.8 -0.45 12.8 -0.5 Q12.65 -0.8 12.65 -1.05 L12.7 -0.8 13.3 -0.15 14.3 -0.1 14.5 -0.25 14.65 -0.55 M11.35 0.2 L11.6 0.3 Q12.1 0.45 12.35 0.0 L12.55 -0.6 12.6 0.2 12.55 0.9 12.35 1.5 12.3 1.55 11.75 2.4 11.35 2.65 11.0 2.65 11.15 2.0 11.2 1.8 11.25 1.55 11.25 1.35 11.3 0.45 11.35 0.2 M-9.25 -2.2 L-9.25 -2.15 -9.3 -2.1 -9.3 -2.0 -9.35 -1.95 -9.35 -1.8 -9.35 -1.75 -9.4 -1.7 -9.4 -1.65 -9.4 -1.55 -9.4 -1.3 -9.35 -1.45 -9.6 0.05 -9.6 0.15 -9.65 0.4 -9.7 0.15 -9.6 -1.05 -9.35 -1.95 -9.3 -2.1 -9.25 -2.2 M-9.0 2.8 L-8.25 4.05 -8.15 4.15 -8.1 4.2 -8.05 4.25 -7.95 4.35 -7.95 4.4 -7.8 4.55 -7.7 4.75 -7.65 4.85 -7.65 5.15 -7.8 5.45 -8.95 5.25 -9.3 4.9 -9.35 4.85 -9.5 4.65 -9.55 4.55 -9.6 4.45 -9.8 4.15 -9.95 3.9 -10.35 3.0 -9.95 3.15 Q-9.25 3.35 -9.0 2.8 M-11.4 4.9 L-12.25 4.6 Q-13.25 4.2 -14.1 3.4 L-14.6 2.85 -15.35 1.65 Q-15.2 1.7 -15.05 1.85 L-14.95 1.9 -14.55 1.9 -14.55 1.95 -14.5 2.05 -13.8 2.95 -13.45 3.3 Q-12.8 3.95 -11.85 4.25 L-10.9 4.5 -11.55 4.35 -11.5 4.6 -11.4 4.9 M-9.95 -4.1 L-9.95 -4.15 -9.9 -4.15 -9.95 -4.1 M-14.7 -0.55 L-14.55 -0.25 -14.35 -0.1 -13.35 -0.15 -12.7 -0.8 -12.65 -1.05 -12.85 -0.5 -12.85 -0.45 -12.85 1.1 -12.75 1.65 -12.75 2.1 -12.95 2.3 -13.1 2.4 -13.6 2.3 -13.7 2.2 -13.9 2.05 -13.95 2.1 -14.15 1.8 -14.15 1.75 -14.6 0.5 -14.65 0.25 -14.7 0.2 -14.7 -0.05 -14.7 -0.4 -14.7 -0.45 -14.7 -0.55 M-11.35 0.2 L-11.35 0.45 -11.3 1.35 -11.25 1.55 -11.2 1.8 -11.2 2.0 -11.05 2.65 -11.4 2.65 -11.8 2.4 -12.35 1.55 -12.35 1.5 -12.6 0.9 -12.65 0.2 -12.6 -0.6 -12.4 0.0 Q-12.15 0.45 -11.65 0.3 L-11.35 0.2 M-10.55 3.85 L-10.6 3.85 -10.55 3.8 -10.55 3.85 M12.8 2.0 L12.85 2.0 12.8 2.0 M10.6 3.85 L10.5 3.85 10.55 3.8 10.6 3.85" fill="#4a5c93" fill-rule="evenodd" stroke="none"/>
    <path d="M9.85 -3.5 L9.65 -3.8 9.65 -3.85 9.6 -3.9 9.45 -4.1 9.45 -4.15 9.4 -4.2 9.25 -4.4 9.05 -4.6 10.5 -4.7 11.7 -4.45 12.7 -3.95 13.3 -3.5 13.7 -3.1 13.8 -3.0 14.3 -2.4 14.35 -2.35 14.35 -2.3 14.4 -2.25 14.4 -2.2 14.45 -2.05 14.5 -1.95 14.65 -1.7 14.7 -1.6 14.7 -1.55 14.75 -1.15 14.75 -1.05 14.75 -1.0 14.8 -0.95 14.8 -0.85 14.85 -0.85 14.85 -0.8 14.9 -0.45 14.9 -0.15 14.85 0.5 14.85 0.65 14.8 0.75 14.55 1.9 14.5 1.95 14.45 2.05 13.75 2.95 13.45 3.3 11.8 4.25 10.9 4.5 11.5 4.35 11.45 4.6 11.35 4.9 10.0 5.15 9.9 5.2 9.65 5.2 8.9 5.25 9.25 4.9 9.3 4.85 9.45 4.65 9.5 4.55 9.55 4.45 9.8 4.15 9.9 3.9 10.3 3.0 10.6 2.15 10.75 1.75 10.85 0.7 10.85 0.6 10.85 -0.05 10.75 -0.75 10.6 -1.4 9.85 -3.5 M9.95 -4.15 L9.9 -4.15 9.9 -4.1 10.25 -3.55 10.4 -3.3 11.7 -3.05 12.1 -3.15 12.55 -3.55 12.5 -3.6 11.9 -3.85 11.8 -3.9 11.6 -3.95 11.25 -4.05 10.65 -4.15 9.95 -4.15 M13.0 -3.25 L12.55 -3.55 13.0 -3.25 M12.5 -2.65 Q12.35 -2.25 12.5 -1.8 L12.65 -1.4 12.65 -1.3 12.65 -1.1 12.65 -1.05 Q12.65 -0.8 12.8 -0.5 L12.8 -0.45 12.8 1.1 12.7 1.65 12.75 2.1 12.9 2.3 13.05 2.4 13.55 2.3 13.7 2.2 13.85 2.05 13.9 2.1 14.1 1.8 14.15 1.75 14.55 0.5 14.6 0.25 14.65 0.2 14.65 -0.05 14.65 -0.4 14.65 -0.45 14.65 -0.55 14.65 -0.65 14.65 -0.75 14.65 -0.8 14.6 -0.85 14.6 -0.9 14.55 -0.95 14.55 -1.1 14.55 -1.15 14.5 -1.2 14.5 -1.35 14.45 -1.4 14.4 -1.6 14.35 -1.65 14.3 -1.8 14.25 -1.8 14.25 -1.85 14.0 -2.25 13.35 -3.0 13.25 -3.1 12.8 -3.05 12.6 -2.9 12.6 -2.85 12.5 -2.65 M12.4 -1.3 L12.3 -1.55 11.95 -2.2 11.65 -2.55 11.35 -2.75 10.75 -2.65 10.9 -2.3 11.15 -1.75 11.2 -1.55 11.3 -1.1 11.35 -0.1 11.35 -0.05 11.35 0.2 11.3 0.45 11.25 1.35 11.25 1.55 11.2 1.8 11.15 2.0 11.0 2.65 11.35 2.65 11.75 2.4 12.3 1.55 12.35 1.5 12.55 0.9 12.6 0.2 12.55 -0.6 12.45 -1.05 12.4 -1.3 M-8.95 5.25 L-9.7 5.2 -9.9 5.2 -10.0 5.15 -11.4 4.9 -11.5 4.6 -11.55 4.35 -10.9 4.5 -11.85 4.25 Q-12.8 3.95 -13.45 3.3 L-13.8 2.95 -14.5 2.05 -14.55 1.95 -14.55 1.9 -14.85 0.75 -14.9 0.65 -14.9 0.5 -14.9 -0.15 -14.9 -0.45 -14.9 -0.8 -14.9 -0.85 -14.85 -0.85 -14.85 -0.95 -14.8 -0.95 -14.8 -1.0 -14.8 -1.05 -14.8 -1.15 -14.7 -1.55 -14.7 -1.6 -14.7 -1.7 -14.55 -1.95 -14.5 -2.05 -14.45 -2.2 -14.45 -2.25 -14.4 -2.3 -14.4 -2.35 -14.35 -2.4 -13.85 -3.0 -13.75 -3.1 -13.35 -3.5 -12.75 -3.95 -11.75 -4.45 -10.55 -4.7 -9.05 -4.6 -9.25 -4.4 -9.4 -4.2 -9.45 -4.15 -9.5 -4.1 -9.65 -3.9 -9.65 -3.85 -9.7 -3.8 -9.85 -3.5 Q-10.45 -2.55 -10.65 -1.4 L-10.8 -0.75 -10.85 -0.05 -10.9 0.6 -10.9 0.7 -10.75 1.75 -10.65 2.15 -10.35 3.0 -9.95 3.9 -9.8 4.15 -9.6 4.45 -9.55 4.55 -9.5 4.65 -9.35 4.85 -9.3 4.9 -8.95 5.25 M-9.95 -4.15 L-10.65 -4.15 -11.3 -4.05 -11.65 -3.95 -11.85 -3.9 -11.95 -3.85 -12.5 -3.6 -12.6 -3.55 -12.15 -3.15 -11.7 -3.05 -10.4 -3.3 -10.3 -3.55 -9.95 -4.1 -9.9 -4.15 -9.95 -4.15 M-12.6 -3.55 L-13.05 -3.25 -12.6 -3.55 M-12.6 -2.85 L-12.65 -2.9 -12.85 -3.05 -13.25 -3.1 -13.4 -3.0 -14.0 -2.25 -14.25 -1.85 -14.3 -1.8 -14.4 -1.65 -14.4 -1.6 -14.5 -1.4 -14.55 -1.35 -14.55 -1.2 -14.6 -1.15 -14.6 -1.1 -14.6 -0.95 -14.65 -0.9 -14.65 -0.85 -14.7 -0.8 -14.7 -0.75 -14.7 -0.65 -14.7 -0.55 -14.7 -0.45 -14.7 -0.4 -14.7 -0.05 -14.7 0.2 -14.65 0.25 -14.6 0.5 -14.15 1.75 -14.15 1.8 -13.95 2.1 -13.9 2.05 -13.7 2.2 -13.6 2.3 -13.1 2.4 -12.95 2.3 -12.75 2.1 -12.75 1.65 -12.85 1.1 -12.85 -0.45 -12.85 -0.5 -12.65 -1.05 -12.65 -1.1 -12.65 -1.3 -12.65 -1.4 -12.55 -1.8 Q-12.4 -2.25 -12.55 -2.65 L-12.6 -2.85 M-11.35 0.2 L-11.4 -0.05 -11.4 -0.1 -11.3 -1.1 -11.25 -1.55 -11.2 -1.75 -10.95 -2.3 -10.75 -2.65 -11.4 -2.75 -11.7 -2.55 -12.0 -2.2 -12.35 -1.55 -12.4 -1.3 -12.5 -1.05 -12.6 -0.6 -12.65 0.2 -12.6 0.9 -12.35 1.5 -12.35 1.55 -11.8 2.4 -11.4 2.65 -11.05 2.65 -11.2 2.0 -11.2 1.8 -11.25 1.55 -11.3 1.35 -11.35 0.45 -11.35 0.2 M-10.55 3.85 L-10.55 3.8 -10.6 3.85 -10.55 3.85 M11.05 1.95 L11.1 1.95 11.05 1.95 M10.6 3.85 L10.55 3.8 10.5 3.85 10.6 3.85" fill="#333366" fill-rule="evenodd" stroke="none"/>
    <path d="M7.0 -4.7 L7.1 -4.7 7.15 -4.65 7.0 -4.7 M-7.0 -4.7 L-7.2 -4.65 -7.15 -4.7 -7.0 -4.7" fill="#8b94a3" fill-rule="evenodd" stroke="none"/>
    <path d="M7.95 4.35 L7.85 4.35 8.0 4.25 7.95 4.35 M8.95 -2.5 L8.95 -2.45 8.95 -2.5 M-8.05 4.25 L-7.85 4.35 -7.95 4.35 -8.05 4.25 M-9.0 -2.45 L-9.0 -2.5 -8.95 -2.5 -9.0 -2.45" fill="#5e6781" fill-rule="evenodd" stroke="none"/>
    <path d="M9.15 0.4 L9.3 0.4 9.25 0.45 9.2 0.9 9.1 1.0 9.0 1.05 8.7 2.0 8.65 2.15 7.95 3.1 6.75 4.35 6.4 4.6 6.45 4.6 4.6 4.9 3.9 5.05 3.65 5.15 3.5 5.15 2.5 5.25 0.7 5.35 0.25 5.35 0.05 5.35 -0.1 5.35 -0.75 5.35 -2.45 5.25 -2.55 5.25 -3.55 5.15 -4.5 4.95 -4.65 4.9 -6.5 4.6 -6.45 4.6 -6.8 4.35 -6.95 4.2 -8.7 2.15 -8.75 2.0 -9.05 1.05 -9.15 1.0 -9.25 0.9 -9.3 0.45 -9.3 0.4 -9.2 0.4 -6.2 0.4 -6.4 -0.15 Q-6.1 0.95 -5.3 1.8 L-3.65 3.2 -2.25 3.7 -2.2 3.7 -2.0 3.7 -1.75 3.75 -1.65 3.75 -0.1 3.9 0.05 3.9 1.6 3.75 1.7 3.75 1.95 3.7 2.2 3.7 3.6 3.2 5.25 1.8 Q6.05 0.95 6.35 -0.15 L6.2 0.4 9.15 0.4" fill="#333384" fill-rule="evenodd" stroke="none"/>
  </g>
</svg>
