<?xml version="1.0" encoding="UTF-8" standalone="no"?>
<svg xmlns:xlink="http://www.w3.org/1999/xlink" height="11.55px" width="29.75px" xmlns="http://www.w3.org/2000/svg">
  <g transform="matrix(1.0, 0.0, 0.0, 1.0, 14.95, 5.4)">
    <path d="M3.85 -4.55 L4.15 -4.5 3.85 -4.5 3.85 -4.55" fill="#999933" fill-rule="evenodd" stroke="none"/>
    <path d="M4.15 -4.5 L3.85 -4.55 3.7 -4.55 3.85 -4.5 4.15 -4.5 4.85 -3.05 Q5.25 -1.4 4.9 0.2 L4.45 1.8 4.25 2.3 3.75 3.05 3.6 3.2 3.45 3.3 3.45 3.35 2.5 3.95 2.0 4.1 Q-0.3 4.75 -2.35 3.8 L-3.05 3.45 -3.15 3.35 -3.2 3.3 -4.2 2.3 -4.95 0.5 Q-5.25 -1.0 -4.85 -2.4 L-4.8 -2.45 -4.8 -2.55 -4.75 -2.6 -4.75 -2.65 -4.65 -2.9 -4.5 -3.3 -4.25 -3.8 -4.2 -3.85 -4.95 -3.65 -5.0 -3.65 -5.4 -3.55 -6.1 -3.35 -6.65 -3.1 -6.85 -2.95 -6.9 -2.95 -7.0 -2.9 -7.0 -2.85 -7.25 -2.55 -7.3 -2.55 -7.7 -1.9 -7.75 -1.8 -7.8 -1.75 -7.9 -1.8 -8.0 -1.9 -8.05 -1.95 -8.0 -2.25 -7.85 -2.7 -8.2 -2.95 -8.35 -3.0 -9.3 -3.3 -9.5 -3.3 -9.55 -3.3 -9.65 -3.35 -10.8 -3.55 -11.55 -3.55 -11.85 -3.45 -13.4 -2.55 -13.75 -2.15 -13.65 -2.25 -13.65 -2.3 -12.2 -2.65 -11.5 -2.6 -10.8 -2.4 -10.85 -2.4 -11.1 -2.45 -11.15 -2.45 -11.6 -2.5 -12.65 -2.35 -12.7 -2.3 -12.9 -2.2 -13.3 -2.0 -13.75 -1.75 -14.15 -1.35 -14.6 -0.7 -14.6 -0.55 -14.65 -0.55 -14.65 -0.45 -14.7 -0.4 -14.7 -0.35 -14.7 -0.25 -14.7 -0.1 -14.7 -0.05 -14.7 0.55 -14.65 0.6 -14.6 0.75 -14.6 0.8 -14.15 1.45 -13.35 1.9 -12.8 2.1 -12.65 2.1 -11.6 2.15 -11.25 2.1 -11.0 2.05 -10.9 2.0 -10.6 1.9 -10.2 1.55 -9.35 -0.05 -9.3 -0.2 -9.4 0.65 -9.7 1.55 -9.9 1.85 -10.75 2.5 -11.3 2.55 -11.7 2.6 -12.7 2.6 -13.05 2.55 -14.15 2.05 -14.15 2.1 Q-13.35 3.4 -11.85 3.9 L-11.1 4.05 -10.85 4.1 -10.8 4.05 -10.55 4.05 -10.35 4.1 -10.2 4.05 -10.05 4.05 -9.85 4.0 -8.75 3.6 -8.35 3.4 -8.25 3.45 -8.25 3.35 -8.3 3.25 -8.5 1.95 -8.4 1.05 -8.4 0.9 -8.35 0.85 -8.25 0.6 -8.2 0.4 -8.05 0.95 -8.05 1.0 -8.1 1.05 -8.05 1.5 -7.75 2.3 -7.8 2.3 -7.65 2.65 -7.6 2.75 -7.2 3.3 -6.8 3.8 -6.0 4.5 -5.85 4.7 Q-5.45 4.8 -5.15 5.05 L-5.2 5.05 -4.9 5.1 -4.65 5.15 -4.55 5.15 -3.9 5.3 -3.65 5.35 -3.55 5.4 -3.05 5.45 -2.55 5.5 -0.75 5.6 -0.15 5.6 -0.05 5.5 0.15 5.55 0.85 5.6 2.0 5.5 2.05 5.3 2.0 5.55 2.4 5.5 2.75 5.5 2.85 5.5 3.0 5.5 4.0 5.45 4.65 5.4 4.9 5.35 6.15 5.05 7.05 4.85 7.25 4.8 7.75 4.65 7.8 4.65 7.95 4.5 8.1 4.5 9.8 4.1 9.05 4.25 9.45 3.95 10.0 3.65 10.4 3.25 10.95 2.35 11.2 1.7 11.25 1.65 11.45 1.05 11.55 0.35 11.65 1.85 11.6 2.3 11.55 2.5 11.5 2.85 11.45 2.95 11.35 3.25 11.05 3.9 11.2 3.9 11.25 3.9 11.75 3.9 Q13.05 3.45 13.85 2.4 L14.05 2.1 14.3 1.45 14.5 0.85 14.55 0.6 14.6 0.55 14.6 -0.05 14.6 -0.1 14.6 -0.25 14.6 -0.35 14.6 -0.4 14.55 -0.45 14.55 -0.55 14.5 -0.55 14.5 -0.7 14.5 -0.75 14.45 -0.8 14.45 -0.95 14.4 -1.0 14.3 -1.25 13.3 -2.55 13.25 -2.6 13.05 -2.75 12.4 -3.15 12.35 -3.15 12.35 -3.2 11.9 -3.4 11.75 -3.45 11.3 -3.6 11.2 -3.6 10.85 -3.6 10.8 -3.55 10.4 -3.6 10.75 -3.1 10.95 -2.7 10.95 -2.6 11.0 -2.55 11.0 -2.5 11.1 -2.25 11.1 -2.15 11.25 -1.8 11.25 -1.75 11.35 -1.5 11.3 -1.4 11.25 -1.3 11.15 -1.3 11.05 -1.45 11.0 -1.55 10.6 -2.1 10.05 -2.65 9.95 -2.75 9.7 -3.0 9.25 -3.3 9.2 -3.4 8.65 -3.7 8.4 -3.75 8.25 -3.8 7.2 -3.9 7.0 -4.0 6.95 -4.0 6.55 -4.1 6.45 -4.15 6.35 -4.15 6.1 -4.2 6.05 -4.2 5.8 -4.25 5.8 -4.2 5.25 -4.35 4.95 -4.4 4.7 -4.45 4.15 -4.5 M-11.7 2.6 L-11.7 2.55 -11.75 2.6 -11.7 2.6 M-8.05 4.35 L-8.65 4.25 -8.7 4.3 -9.75 4.45 -10.0 4.45 -11.4 4.6 -11.5 4.6 -11.85 4.5 -13.8 3.25 Q-14.75 2.35 -14.85 1.1 L-14.9 1.0 -14.9 0.85 -14.9 -0.4 -14.9 -0.45 -14.85 -0.45 -14.85 -0.55 -14.8 -0.55 -14.8 -0.65 -14.8 -0.75 -14.7 -1.3 -14.45 -1.8 -14.45 -1.85 -14.4 -1.9 -14.4 -1.95 -14.35 -2.0 -13.85 -2.55 -13.75 -2.65 -13.35 -3.05 -11.75 -4.0 -11.7 -4.0 -10.2 -3.9 -9.95 -3.85 -9.85 -3.85 -9.1 -3.8 -9.0 -3.8 -8.45 -3.7 -7.2 -3.65 -6.85 -3.9 -6.75 -3.95 -6.3 -4.05 -6.2 -4.1 -5.35 -4.35 -4.8 -4.6 -4.2 -4.75 -3.8 -4.8 -2.8 -5.05 -1.7 -5.2 0.0 -5.35 1.6 -5.4 2.55 -5.3 3.6 -5.25 3.65 -5.25 3.9 -5.2 4.95 -5.0 5.25 -4.9 5.3 -4.9 5.4 -4.85 5.7 -4.85 6.6 -4.7 6.65 -4.65 7.0 -4.6 7.7 -4.4 7.75 -4.4 8.4 -4.3 9.05 -4.25 9.5 -4.2 9.55 -4.2 10.05 -4.15 10.55 -4.15 10.95 -4.1 11.0 -4.15 11.65 -4.0 Q12.55 -3.7 13.25 -3.05 L13.65 -2.65 13.75 -2.55 14.25 -2.0 14.3 -1.95 14.3 -1.9 14.35 -1.85 14.35 -1.8 14.6 -1.3 14.7 -0.75 14.7 -0.65 14.75 -0.55 14.75 -0.45 14.8 -0.45 14.8 -0.4 14.8 0.85 14.8 1.0 14.75 1.1 Q14.65 2.35 13.7 3.25 13.15 3.85 12.4 4.25 L12.25 4.3 10.55 4.4 8.3 4.95 8.2 5.0 7.6 5.15 7.4 5.2 6.1 5.55 5.95 5.6 5.8 5.6 5.55 5.65 5.5 5.7 4.75 5.9 4.25 5.95 4.05 6.0 3.65 6.05 -3.9 5.85 -4.0 5.8 -5.9 5.4 -6.25 5.3 Q-6.95 5.15 -7.45 4.7 L-7.65 4.55 -7.8 4.4 -8.0 4.1 -7.95 4.2 -8.05 4.35 M10.7 -2.65 L10.65 -2.6 10.7 -2.6 10.7 -2.65 M-0.4 -3.45 L-0.35 -3.5 -0.4 -3.5 -0.4 -3.45 M-0.7 2.35 L-0.65 2.35 -0.6 2.3 -0.5 2.15 -0.65 2.3 -0.7 2.35" fill="#000000" fill-rule="evenodd" stroke="none"/>
    <path d="M10.05 -2.65 L10.6 -2.1 11.0 -1.55 11.05 -1.45 11.15 -1.3 11.25 -1.3 11.3 -1.4 11.35 -1.5 11.25 -1.75 11.25 -1.8 11.1 -2.15 11.1 -2.25 11.0 -2.5 11.0 -2.55 10.95 -2.6 11.2 -2.65 12.05 -2.85 12.35 -3.15 12.4 -3.15 13.05 -2.75 13.25 -2.6 13.3 -2.55 14.3 -1.25 14.4 -1.0 14.45 -0.95 14.45 -0.8 14.5 -0.75 14.5 -0.7 14.5 -0.55 14.55 -0.55 14.55 -0.45 14.6 -0.4 14.6 -0.35 14.6 -0.25 14.6 -0.1 14.6 -0.05 14.6 0.55 14.55 0.6 14.5 0.85 14.3 1.45 13.55 1.4 13.6 0.9 Q13.65 -0.1 12.85 -0.6 12.3 -0.4 12.35 0.25 L12.3 0.6 12.25 1.4 11.95 1.4 11.95 1.45 11.65 1.45 11.65 1.85 11.55 0.35 11.45 1.05 11.25 1.65 11.2 1.7 10.95 2.35 10.2 2.3 7.35 2.3 6.7 2.3 6.5 2.3 6.55 1.95 6.75 0.6 Q6.9 -0.9 6.55 -2.35 L6.4 -2.7 5.85 -2.75 5.4 -2.8 5.7 -2.8 5.65 -2.85 8.45 -2.6 9.95 -2.55 10.05 -2.65 M-7.75 2.3 L-8.05 1.5 -8.1 1.05 -8.05 1.0 -8.05 0.95 -8.2 0.4 -8.25 0.4 -7.9 -1.75 -7.9 -1.8 -7.8 -1.75 -7.75 -1.8 -7.4 -1.75 -7.2 -1.8 -6.45 -2.05 -6.5 -2.0 Q-6.95 -0.7 -6.7 0.7 L-6.2 2.3 -7.75 2.3 M-6.65 -3.1 L-6.1 -3.35 -6.15 -3.3 -6.25 -3.25 -6.65 -3.1 M3.85 -4.5 L3.7 -4.55 3.85 -4.55 3.85 -4.5 M7.4 -1.35 L7.4 -1.4 7.35 -1.35 7.4 -1.35 M12.3 -2.7 L12.3 -2.75 12.05 -2.85 Q12.15 -2.8 12.3 -2.7 M7.65 1.0 L7.45 1.1 7.5 1.15 7.65 1.0" fill="#8c8c8c" fill-rule="evenodd" stroke="none"/>
    <path d="M4.15 -4.5 L4.7 -4.45 4.8 -4.4 4.9 -4.4 5.05 -4.35 5.2 -4.35 5.4 -3.85 5.65 -2.85 5.7 -2.8 5.4 -2.8 5.85 -2.75 5.95 -2.35 6.0 -0.9 5.75 0.55 5.5 1.75 5.25 2.3 5.35 2.3 5.05 2.9 4.8 3.25 Q3.75 4.3 2.3 4.7 L0.85 5.15 0.55 5.15 -1.85 4.9 -2.4 4.75 Q-3.85 4.4 -4.7 3.05 L-5.05 2.5 -5.15 2.3 -5.3 2.1 Q-6.1 0.75 -6.0 -0.85 L-5.75 -2.3 -5.7 -2.3 -5.75 -2.45 -5.75 -2.8 -5.4 -3.55 -5.0 -3.65 -4.95 -3.65 -4.2 -3.85 -4.25 -3.8 -4.5 -3.3 -4.65 -2.9 -4.75 -2.65 -4.75 -2.6 -4.8 -2.55 -4.8 -2.45 -4.85 -2.4 Q-5.25 -1.0 -4.95 0.5 L-4.2 2.3 -3.2 3.3 -3.15 3.35 -3.1 3.4 -3.05 3.45 -2.35 3.8 Q-0.3 4.75 2.0 4.1 L2.5 3.95 3.45 3.35 3.45 3.3 3.6 3.2 3.75 3.05 4.25 2.3 4.45 1.8 4.9 0.2 Q5.25 -1.4 4.85 -3.05 L4.15 -4.5 M-4.9 -2.4 L-4.85 -2.45 -4.9 -2.45 -4.9 -2.4" fill="#cece6f" fill-rule="evenodd" stroke="none"/>
    <path d="M4.7 -4.45 L4.95 -4.4 5.25 -4.35 5.8 -4.2 5.8 -4.25 6.05 -4.2 6.1 -4.2 6.35 -4.15 6.45 -4.15 6.55 -4.1 6.95 -4.0 7.0 -4.0 7.2 -3.9 8.25 -3.8 8.4 -3.75 8.65 -3.7 9.2 -3.4 9.25 -3.3 9.7 -3.0 9.95 -2.75 10.05 -2.65 9.95 -2.55 8.45 -2.6 5.65 -2.85 5.4 -3.85 5.2 -4.35 5.05 -4.35 4.9 -4.4 4.8 -4.4 4.7 -4.45 M10.95 -2.6 L10.95 -2.7 10.75 -3.1 10.4 -3.6 10.8 -3.55 10.85 -3.6 11.2 -3.6 11.3 -3.6 11.75 -3.45 11.9 -3.4 12.35 -3.2 12.35 -3.15 12.4 -3.15 12.35 -3.15 12.05 -2.85 11.2 -2.65 10.95 -2.6 M-10.85 -2.4 L-10.8 -2.4 -11.5 -2.6 -12.2 -2.65 -13.65 -2.3 -13.65 -2.25 -13.75 -2.15 -13.4 -2.55 -11.85 -3.45 -11.55 -3.55 -10.8 -3.55 -9.65 -3.35 Q-9.3 -2.55 -9.95 -1.85 L-10.6 -2.25 -10.85 -2.4 M-7.75 -1.8 L-7.7 -1.9 -7.3 -2.55 -7.25 -2.55 -7.0 -2.85 -7.0 -2.9 -6.9 -2.95 -6.85 -2.95 -6.65 -3.1 -6.25 -3.25 -6.15 -3.3 -6.4 -2.3 -6.4 -2.1 -6.45 -2.1 -6.45 -2.05 -7.2 -1.8 -7.4 -1.75 -7.75 -1.8" fill="#cccccc" fill-rule="evenodd" stroke="none"/>
    <path d="M5.3 -4.9 L5.7 -4.85 5.4 -4.85 5.3 -4.9" fill="#8b94a3" fill-rule="evenodd" stroke="none"/>
    <path d="M5.8 -4.2 L5.8 -4.25 5.8 -4.2" fill="#b3b9c1" fill-rule="evenodd" stroke="none"/>
    <path d="M14.3 1.45 L14.05 2.1 13.85 2.4 Q13.05 3.45 11.75 3.9 L11.25 3.9 11.2 3.9 11.05 3.9 11.35 3.25 11.45 2.95 11.5 2.85 11.55 2.5 11.6 2.3 11.65 1.85 11.65 1.45 11.95 1.45 11.95 1.4 12.25 1.4 12.3 0.6 12.35 0.25 Q12.3 -0.4 12.85 -0.6 13.65 -0.1 13.6 0.9 L13.55 1.4 14.3 1.45 M10.95 2.35 L10.4 3.25 10.0 3.65 9.45 3.95 9.05 4.25 9.8 4.1 8.1 4.5 7.95 4.5 7.8 4.65 7.75 4.65 7.25 4.8 7.05 4.85 6.15 5.05 4.9 5.35 4.65 5.4 4.0 5.45 3.0 5.5 2.85 5.5 2.8 5.45 2.75 5.5 2.4 5.5 2.0 5.55 2.05 5.3 2.0 5.5 0.85 5.6 0.15 5.55 -0.05 5.5 -0.15 5.6 -0.75 5.6 -2.55 5.5 -3.05 5.45 -3.55 5.4 -3.65 5.35 -3.9 5.3 -4.55 5.15 -4.65 5.15 -4.9 5.1 -5.2 5.05 -5.15 5.05 Q-5.45 4.8 -5.85 4.7 L-6.0 4.5 -6.8 3.8 -7.2 3.3 -7.6 2.75 -7.65 2.65 -7.8 2.3 -7.75 2.3 -6.2 2.3 -6.7 0.7 Q-6.95 -0.7 -6.5 -2.0 L-6.45 -2.05 -6.45 -2.1 -6.4 -2.1 -6.15 -2.2 -6.1 -2.25 -5.7 -2.3 -5.75 -2.3 -6.0 -0.85 Q-6.1 0.75 -5.3 2.1 L-5.15 2.3 -5.05 2.5 -4.7 3.05 Q-3.85 4.4 -2.4 4.75 L-1.85 4.9 0.55 5.15 0.85 5.15 2.3 4.7 Q3.75 4.3 4.8 3.25 L5.05 2.9 5.35 2.3 5.25 2.3 5.5 1.75 5.75 0.55 6.0 -0.9 5.95 -2.35 5.85 -2.75 6.4 -2.7 6.55 -2.35 Q6.9 -0.9 6.75 0.6 L6.55 1.95 6.5 2.3 6.7 2.3 7.35 2.3 10.2 2.3 10.95 2.35 M-3.15 3.35 L-3.05 3.45 -3.1 3.4 -3.15 3.35 M10.2 2.3 L10.2 2.35 10.2 2.4 10.25 2.45 10.2 2.3 M-6.15 3.3 L-6.15 3.25 -6.15 3.3" fill="#4d4f4d" fill-rule="evenodd" stroke="none"/>
    <path d="M7.4 -1.35 L7.35 -1.35 7.4 -1.4 7.4 -1.35 M-6.15 3.3 L-6.15 3.25 -6.15 3.3" fill="#23252e" fill-rule="evenodd" stroke="none"/>
    <path d="M10.7 -2.65 L10.7 -2.6 10.65 -2.6 10.7 -2.65 M10.2 2.3 L10.25 2.45 10.2 2.4 10.2 2.35 10.2 2.3 M7.65 1.0 L7.5 1.15 7.45 1.1 7.65 1.0" fill="#6fa637" fill-rule="evenodd" stroke="none"/>
    <path d="M12.3 -2.7 Q12.15 -2.8 12.05 -2.85 L12.3 -2.75 12.3 -2.7" fill="#878eb0" fill-rule="evenodd" stroke="none"/>
    <path d="M11.25 -1.75 L11.25 -1.8 11.25 -1.75 M-8.2 0.4 L-8.25 0.6 -8.25 0.4 -8.2 0.4 M-8.0 -1.9 L-7.9 -1.8 -7.9 -1.75 -8.0 -1.9 M-6.1 -3.35 L-5.4 -3.55 -5.75 -2.8 -5.75 -2.45 -5.7 -2.3 -6.1 -2.25 -6.15 -2.2 -6.4 -2.1 -6.4 -2.3 -6.15 -3.3 -6.1 -3.35 M-7.65 4.55 L-7.75 4.5 -7.8 4.45 -7.95 4.35 -8.05 4.35 -7.95 4.2 -8.0 4.1 -7.8 4.4 -7.65 4.55" fill="#666666" fill-rule="evenodd" stroke="none"/>
    <path d="M3.45 3.35 L3.45 3.3 3.45 3.35" fill="#333333" fill-rule="evenodd" stroke="none"/>
    <path d="M2.85 5.5 L2.75 5.5 2.8 5.45 2.85 5.5 M-9.55 -3.3 L-9.5 -3.3 -9.55 -3.3" fill="#595988" fill-rule="evenodd" stroke="none"/>
    <path d="M-9.3 -0.2 L-9.35 -0.05 -10.2 1.55 -10.6 1.9 -10.6 -0.2 -10.6 -2.25 -9.95 -1.85 -9.65 -1.5 Q-9.3 -0.9 -9.3 -0.2 M-11.0 2.05 L-11.25 2.1 -11.6 2.15 -12.65 2.1 -12.65 1.3 -12.7 -1.65 -12.7 -2.3 -12.65 -2.35 -11.6 -2.5 -11.15 -2.45 -11.05 -0.2 -11.0 2.05 M-13.35 1.9 L-14.15 1.45 -14.6 0.8 -14.6 0.75 -14.65 0.6 -14.7 0.55 -14.7 -0.05 -14.7 -0.1 -14.7 -0.25 -14.7 -0.35 -14.7 -0.4 -14.65 -0.45 -14.65 -0.55 -14.6 -0.55 -14.6 -0.7 -14.15 -1.35 -13.75 -1.75 -13.3 -2.0 -13.2 -2.05 -13.15 -1.4 -13.2 0.1 -13.25 1.95 -13.35 1.9" fill="#cc0000" fill-rule="evenodd" stroke="none"/>
    <path d="M-10.6 1.9 L-10.9 2.0 -11.0 2.05 -11.05 -0.2 -11.15 -2.45 -11.1 -2.45 -10.85 -2.4 -10.6 -2.25 -10.6 -0.2 -10.6 1.9 M-12.65 2.1 L-12.8 2.1 -13.35 1.9 -13.25 1.95 -13.2 0.1 -13.15 -1.4 -13.2 -2.05 -13.3 -2.0 -12.9 -2.2 -12.7 -2.3 -12.7 -1.65 -12.65 1.3 -12.65 2.1" fill="#880000" fill-rule="evenodd" stroke="none"/>
    <path d="M-8.25 0.6 L-8.35 0.85 -8.4 0.9 -8.4 1.05 -8.5 1.95 -8.3 3.25 -8.25 3.35 -8.25 3.45 -8.35 3.4 -8.75 3.6 -9.85 4.0 -10.05 4.05 -10.2 4.05 -10.35 4.1 -10.55 4.05 -10.8 4.05 -10.85 4.1 -11.1 4.05 -11.85 3.9 Q-13.35 3.4 -14.15 2.1 L-14.15 2.05 -13.05 2.55 -12.7 2.6 -11.7 2.6 -11.3 2.55 -10.75 2.5 -9.9 1.85 -9.7 1.55 -9.4 0.65 -9.3 -0.2 Q-9.3 -0.9 -9.65 -1.5 L-9.95 -1.85 Q-9.3 -2.55 -9.65 -3.35 L-9.55 -3.3 -9.5 -3.3 -9.3 -3.3 -8.35 -3.0 -8.2 -2.95 -7.85 -2.7 -8.0 -2.25 -8.05 -1.95 -8.0 -1.9 -7.9 -1.75 -8.25 0.4 -8.25 0.6" fill="#999999" fill-rule="evenodd" stroke="none"/>
    <path d="M-0.4 -3.45 L-0.4 -3.5 -0.35 -3.5 -0.4 -3.45 M-4.9 -2.4 L-4.9 -2.45 -4.85 -2.45 -4.9 -2.4" fill="#2b5500" fill-rule="evenodd" stroke="none"/>
    <path d="M-0.7 2.35 L-0.65 2.3 -0.5 2.15 -0.6 2.3 -0.65 2.35 -0.7 2.35" fill="#754900" fill-rule="evenodd" stroke="none"/>
    <path d="M-11.7 2.6 L-11.75 2.6 -11.7 2.55 -11.7 2.6" fill="#58852c" fill-rule="evenodd" stroke="none"/>
  </g>
</svg>
