<?xml version="1.0" encoding="UTF-8" standalone="no"?>
<svg xmlns:xlink="http://www.w3.org/1999/xlink" height="12.35px" width="29.75px" xmlns="http://www.w3.org/2000/svg">
  <g transform="matrix(1.0, 0.0, 0.0, 1.0, 14.95, 5.4)">
    <path d="M5.7 -4.85 L6.6 -4.7 6.65 -4.65 7.0 -4.6 7.7 -4.4 7.75 -4.4 8.4 -4.3 9.05 -4.25 9.5 -4.2 9.55 -4.2 10.05 -4.15 10.55 -4.15 10.95 -4.1 11.0 -4.15 11.65 -4.0 Q12.55 -3.7 13.25 -3.05 L13.65 -2.65 13.75 -2.55 14.25 -2.0 14.3 -1.95 14.3 -1.9 14.35 -1.85 14.35 -1.8 14.6 -1.3 14.7 -0.75 14.7 -0.65 14.75 -0.55 14.75 -0.45 14.8 -0.45 14.8 -0.4 14.8 0.85 14.8 1.0 14.75 1.1 Q14.65 2.35 13.7 3.25 13.15 3.85 12.4 4.25 L12.25 4.3 10.55 4.4 8.3 4.95 8.2 5.0 7.6 5.15 7.4 5.2 6.1 5.55 5.95 5.6 5.8 5.6 5.55 5.65 5.5 5.7 4.75 5.9 4.25 5.95 4.05 6.0 3.65 6.05 -2.75 6.0 Q-2.8 6.6 -3.55 6.85 L-4.35 6.95 -4.95 6.8 -6.1 6.15 Q-6.6 5.7 -7.25 5.55 L-9.0 5.5 -10.0 4.5 -10.1 4.5 -11.4 4.6 -11.5 4.6 -11.85 4.5 -13.8 3.25 Q-14.75 2.35 -14.85 1.1 L-14.9 1.0 -14.9 0.85 -14.9 -0.4 -14.9 -0.45 -14.85 -0.45 -14.85 -0.55 -14.8 -0.55 -14.8 -0.65 -14.8 -0.75 -14.7 -1.3 -14.45 -1.8 -14.45 -1.85 -14.4 -1.9 -14.4 -1.95 -14.35 -2.0 -13.85 -2.55 -13.75 -2.65 -13.35 -3.05 -11.75 -4.0 -11.7 -4.0 -10.2 -3.9 -10.0 -3.85 -9.05 -4.45 Q-8.4 -4.45 -8.0 -4.0 L-7.6 -4.45 -7.55 -4.45 -6.95 -4.65 -5.7 -4.5 -5.5 -4.3 -5.35 -4.35 -4.8 -4.6 -4.2 -4.75 -3.8 -4.8 -2.8 -5.05 -1.7 -5.2 0.0 -5.35 1.6 -5.4 2.55 -5.3 3.6 -5.25 3.65 -5.25 3.9 -5.2 4.95 -5.0 5.25 -4.9 5.3 -4.9 5.4 -4.85 5.7 -4.85 M5.25 -4.35 L4.95 -4.4 4.7 -4.45 4.15 -4.5 4.85 -3.05 Q5.2 -1.55 4.95 -0.05 L4.9 0.2 4.45 1.8 4.25 2.3 3.75 3.05 3.6 3.2 3.45 3.3 3.45 3.35 2.5 3.95 2.0 4.1 Q-0.3 4.75 -2.35 3.8 L-3.05 3.45 -3.15 3.35 -3.2 3.3 -4.2 2.3 -4.9 0.75 -4.95 0.5 -5.05 -0.25 -5.05 -0.9 -5.05 -1.05 -4.85 -2.4 -4.8 -2.45 -4.8 -2.55 -4.75 -2.6 -4.75 -2.65 -4.65 -2.9 -4.5 -3.3 -4.25 -3.8 -4.2 -3.85 -4.95 -3.65 -5.0 -3.65 -5.2 -3.6 -5.2 -3.5 -5.3 -3.3 -5.6 -2.65 -5.95 -1.25 -6.0 -0.45 -5.95 0.15 -5.95 0.45 -5.9 0.85 -5.9 1.0 Q-5.7 2.25 -5.0 3.25 L-4.55 3.8 -3.9 4.35 -2.95 5.05 -2.85 5.1 -2.8 5.3 -2.75 5.45 -2.55 5.5 -1.9 5.55 -1.7 5.55 -0.75 5.6 -0.45 5.6 -0.15 5.6 -0.05 5.5 0.15 5.55 0.85 5.6 2.0 5.5 2.05 5.3 2.0 5.55 2.4 5.5 2.45 5.5 2.75 5.5 2.85 5.5 3.0 5.5 4.0 5.45 4.65 5.4 4.9 5.35 6.15 5.05 7.05 4.85 7.25 4.8 7.75 4.65 7.8 4.65 7.95 4.5 8.1 4.5 9.5 4.15 9.8 4.1 10.05 4.0 11.15 3.7 11.05 3.9 11.2 3.9 11.25 3.9 11.75 3.9 Q13.05 3.45 13.85 2.4 L14.05 2.1 14.3 1.45 14.5 0.85 14.55 0.65 14.55 0.6 14.6 0.55 14.6 -0.05 14.6 -0.1 14.6 -0.25 14.6 -0.35 14.6 -0.4 14.55 -0.45 14.55 -0.55 14.5 -0.55 14.5 -0.7 14.5 -0.75 14.45 -0.8 14.45 -0.95 14.4 -1.0 14.3 -1.25 13.3 -2.55 13.25 -2.6 13.05 -2.75 12.5 -3.1 12.4 -3.15 12.35 -3.15 12.35 -3.2 11.9 -3.4 11.75 -3.45 11.3 -3.6 11.2 -3.6 10.85 -3.6 10.8 -3.55 10.5 -3.6 10.45 -3.65 9.85 -3.75 7.25 -3.95 7.2 -3.9 7.0 -4.0 6.95 -4.0 6.55 -4.1 6.45 -4.15 6.35 -4.15 6.1 -4.2 6.05 -4.2 5.8 -4.25 5.8 -4.2 5.25 -4.35 M3.85 -4.5 L4.15 -4.5 3.85 -4.55 3.7 -4.55 3.85 -4.5 M9.2 4.15 L9.5 4.15 9.05 4.25 9.2 4.15 M-10.55 -2.2 L-10.1 -2.95 -9.8 -3.35 -10.25 -3.45 -10.55 -3.5 -10.8 -3.55 -11.55 -3.55 -11.85 -3.45 -13.4 -2.55 -13.75 -2.15 -13.65 -2.25 -13.65 -2.3 -13.35 -2.4 -14.1 -1.35 -14.15 -1.35 -14.35 -1.1 -14.6 -0.7 -14.6 -0.55 -14.65 -0.55 -14.65 -0.45 -14.7 -0.4 -14.7 -0.35 -14.7 -0.25 -14.7 -0.1 -14.7 -0.05 -14.7 0.55 -14.65 0.6 -14.6 0.75 -14.6 0.8 -14.5 0.95 -14.1 2.1 -14.15 2.05 -14.15 2.1 Q-13.35 3.4 -11.85 3.9 L-11.45 4.0 -11.1 4.05 -10.85 4.1 -10.8 4.05 -10.55 4.05 -10.35 4.1 Q-11.15 2.9 -11.1 1.45 L-11.1 1.4 -11.15 1.05 -11.1 -0.95 -11.0 -1.25 -10.55 -2.2 M-10.15 -1.75 L-10.35 -0.8 Q-10.6 0.3 -10.45 1.45 L-10.45 1.6 -10.35 2.05 -10.05 3.1 -9.95 3.35 -9.65 4.05 -9.55 4.2 -9.5 4.2 -9.4 4.45 -9.15 4.75 -9.05 4.85 Q-8.55 5.05 -8.0 5.3 -7.5 5.5 -7.3 5.05 L-7.25 4.95 -7.3 4.75 -7.35 4.7 -7.45 4.55 -7.35 4.55 -7.0 4.65 -7.3 4.55 -7.55 4.3 -8.75 2.3 -9.15 0.75 Q-9.35 -0.55 -9.05 -1.75 L-9.0 -2.0 -8.9 -2.25 -8.65 -2.6 -8.6 -2.8 -8.4 -3.2 -8.35 -3.35 -8.35 -3.8 Q-8.45 -4.1 -8.95 -4.1 L-9.05 -4.05 -9.1 -4.05 -9.25 -3.8 -9.5 -3.3 -9.6 -3.1 -9.75 -2.85 -10.0 -2.3 -10.15 -1.75 M-6.5 -1.75 L-6.35 -2.45 -6.15 -2.85 -6.0 -3.25 -5.9 -3.6 Q-5.9 -3.95 -6.05 -4.15 -6.25 -4.4 -6.75 -4.35 L-7.0 -4.2 -7.4 -3.9 -7.7 -3.35 -7.8 -2.95 -7.9 -2.7 -7.95 -2.65 -8.0 -2.15 -8.0 -2.1 -8.15 -1.75 -8.25 -1.45 -8.4 -0.35 Q-8.55 0.9 -8.3 2.1 L-8.3 2.2 -8.1 2.6 -8.05 2.7 -8.0 2.7 -8.0 2.75 -7.95 2.75 -7.95 2.85 -7.15 4.1 -6.65 4.7 -6.6 4.75 -6.55 4.75 -6.55 4.8 -6.2 5.3 -5.35 5.9 -4.15 6.3 -3.45 6.2 -3.2 5.95 -3.25 5.65 -3.3 5.55 -3.75 5.35 -3.65 5.35 -3.55 5.4 -3.15 5.45 -4.05 4.95 -4.1 4.9 Q-5.35 4.05 -6.05 2.7 L-6.1 2.65 -6.35 2.0 -6.6 -0.15 -6.6 -0.9 -6.5 -1.75 M-0.4 -3.45 L-0.35 -3.5 -0.4 -3.5 -0.4 -3.45 M-0.65 2.3 L-0.7 2.35 -0.65 2.35 -0.6 2.3 -0.5 2.15 -0.65 2.3" fill="#000000" fill-rule="evenodd" stroke="none"/>
    <path d="M5.25 -4.35 L5.2 -4.3 5.2 -4.35 5.05 -4.35 4.9 -4.4 4.8 -4.4 4.7 -4.45 4.95 -4.4 5.25 -4.35 M12.4 -3.15 L12.35 -3.15 12.4 -3.15" fill="#cccccc" fill-rule="evenodd" stroke="none"/>
    <path d="M3.85 -4.5 L3.85 -4.55 4.15 -4.5 3.85 -4.5" fill="#999933" fill-rule="evenodd" stroke="none"/>
    <path d="M3.85 -4.55 L3.85 -4.5 3.7 -4.55 3.85 -4.55" fill="#8c8c8c" fill-rule="evenodd" stroke="none"/>
    <path d="M5.3 -4.9 L5.7 -4.85 5.4 -4.85 5.3 -4.9" fill="#8b94a3" fill-rule="evenodd" stroke="none"/>
    <path d="M5.8 -4.25 L5.8 -4.2 5.8 -4.25" fill="#b3b9c1" fill-rule="evenodd" stroke="none"/>
    <path d="M-3.15 3.35 L-3.05 3.45 -3.1 3.4 -3.15 3.35" fill="#4d4f4d" fill-rule="evenodd" stroke="none"/>
    <path d="M7.4 -1.4 L7.4 -1.35 7.35 -1.35 7.4 -1.4" fill="#23252e" fill-rule="evenodd" stroke="none"/>
    <path d="M12.3 -2.7 Q12.15 -2.8 12.05 -2.85 L12.3 -2.75 12.3 -2.7" fill="#878eb0" fill-rule="evenodd" stroke="none"/>
    <path d="M10.2 2.35 L10.2 2.3 10.25 2.45 10.2 2.4 10.2 2.35 M7.5 1.15 L7.45 1.1 7.65 1.0 7.5 1.15" fill="#6fa637" fill-rule="evenodd" stroke="none"/>
    <path d="M3.45 3.35 L3.45 3.3 3.45 3.35" fill="#333333" fill-rule="evenodd" stroke="none"/>
    <path d="M2.85 5.5 L2.75 5.5 2.8 5.45 2.85 5.5" fill="#595988" fill-rule="evenodd" stroke="none"/>
    <path d="M-0.4 -3.45 L-0.4 -3.5 -0.35 -3.5 -0.4 -3.45 M-4.9 -2.45 L-4.85 -2.45 -4.9 -2.4 -4.9 -2.45" fill="#2b5500" fill-rule="evenodd" stroke="none"/>
    <path d="M-0.65 2.3 L-0.5 2.15 -0.6 2.3 -0.65 2.35 -0.7 2.35 -0.65 2.3" fill="#754900" fill-rule="evenodd" stroke="none"/>
    <path d="M4.7 -4.45 L4.8 -4.4 4.9 -4.4 5.05 -4.35 5.2 -4.35 5.2 -4.3 5.25 -4.35 5.8 -4.2 5.8 -4.25 6.05 -4.2 6.1 -4.2 6.35 -4.15 6.45 -4.15 6.55 -4.1 6.95 -4.0 7.0 -4.0 7.2 -3.9 7.25 -3.95 9.85 -3.75 10.45 -3.65 10.5 -3.6 10.8 -3.55 10.85 -3.6 11.2 -3.6 11.3 -3.6 11.75 -3.45 11.9 -3.4 12.35 -3.2 12.35 -3.15 12.4 -3.15 12.5 -3.1 12.75 -2.6 13.1 -1.85 13.35 -0.45 13.3 -0.3 Q12.85 0.2 12.1 0.3 L9.9 0.4 Q9.2 0.4 8.7 -0.15 L7.8 -1.35 Q7.35 -2.0 6.55 -1.85 L6.2 -1.55 6.05 -0.8 6.0 0.8 5.95 0.7 Q5.7 -0.05 4.95 -0.05 5.2 -1.55 4.85 -3.05 L4.15 -4.5 4.7 -4.45 M8.7 -3.25 L8.45 -3.15 Q8.05 -2.95 8.1 -2.4 L8.2 -2.2 9.15 -1.4 Q9.65 -1.1 10.2 -1.0 L11.95 -1.1 12.3 -1.25 Q12.55 -1.5 12.45 -1.85 L11.7 -2.7 Q10.7 -3.3 9.55 -3.3 L8.7 -3.25 M12.3 -2.7 L12.3 -2.75 12.05 -2.85 Q12.15 -2.8 12.3 -2.7 M-5.95 -1.25 L-5.6 -2.65 -5.3 -3.3 -5.2 -3.5 -5.2 -3.6 -5.0 -3.65 -4.95 -3.65 -4.2 -3.85 -4.25 -3.8 -4.5 -3.3 -4.65 -2.9 -4.75 -2.65 -4.75 -2.6 -4.8 -2.55 -4.8 -2.45 -4.85 -2.4 -5.05 -1.05 Q-5.35 -1.35 -5.9 -1.3 L-5.95 -1.25 M-5.05 -0.25 L-4.95 0.5 -4.9 0.75 -5.0 0.7 -5.15 0.65 -4.95 0.45 -5.05 -0.25 M8.1 1.65 L8.1 1.55 8.3 1.65 8.1 1.65 M-14.35 -1.1 L-14.15 -1.35 -14.1 -1.35 -13.35 -2.4 -13.65 -2.3 -13.65 -2.25 -13.75 -2.15 -13.4 -2.55 -11.85 -3.45 -11.55 -3.55 -10.8 -3.55 -10.55 -3.5 -10.25 -3.45 -9.8 -3.35 -10.1 -2.95 -10.55 -2.2 -10.65 -2.2 -12.3 -0.85 -11.95 -1.45 -11.85 -1.75 Q-11.7 -2.4 -12.25 -2.6 L-12.4 -2.55 Q-13.25 -2.05 -13.6 -1.05 L-13.65 -0.8 Q-13.9 -1.15 -14.35 -1.1 M-11.15 1.05 L-11.1 1.4 -11.8 1.4 -11.25 1.4 -11.25 1.15 -11.15 1.1 -11.15 1.05 M-4.9 -2.45 L-4.9 -2.4 -4.85 -2.45 -4.9 -2.45" fill="#333399" fill-rule="evenodd" stroke="none"/>
    <path d="M-10.35 2.05 L-10.45 1.6 -10.45 1.45 Q-10.6 0.3 -10.35 -0.8 L-10.15 -1.75 -9.05 -1.75 Q-9.35 -0.55 -9.15 0.75 L-8.75 2.3 -8.8 2.15 -10.35 2.05 M-6.5 -1.75 L-6.6 -0.9 -6.6 -0.15 -6.35 2.0 -6.8 2.1 -7.4 2.1 -8.15 2.05 -8.3 2.1 Q-8.55 0.9 -8.4 -0.35 L-8.25 -1.45 -8.15 -1.75 -7.8 -1.7 -7.75 -1.7 -7.15 -1.65 -6.95 -1.75 -6.65 -1.75 -6.5 -1.75" fill="#6f006f" fill-rule="evenodd" stroke="none"/>
    <path d="M-8.75 2.3 L-7.55 4.3 -7.3 4.55 -7.0 4.65 -7.35 4.55 -7.45 4.55 -7.35 4.7 -7.3 4.75 -7.25 4.95 -7.3 5.05 Q-7.5 5.5 -8.0 5.3 -8.55 5.05 -9.05 4.85 L-9.15 4.75 -9.4 4.45 -9.5 4.2 -9.55 4.2 -9.65 4.05 -9.95 3.35 -10.05 3.1 -10.35 2.05 -8.8 2.15 -8.75 2.3 M-6.35 2.0 L-6.1 2.65 -6.05 2.7 Q-5.35 4.05 -4.1 4.9 L-4.05 4.95 -3.15 5.45 -3.55 5.4 -3.65 5.35 -3.75 5.35 -3.3 5.55 -3.25 5.65 -3.2 5.95 -3.45 6.2 -4.15 6.3 -5.35 5.9 -6.2 5.3 -6.55 4.8 -6.55 4.75 -6.6 4.75 -6.65 4.7 -7.15 4.1 -7.95 2.85 -7.95 2.75 -8.0 2.75 -8.0 2.7 -8.05 2.7 -8.1 2.6 -8.3 2.2 -8.3 2.1 -8.15 2.05 -7.4 2.1 -6.8 2.1 -6.35 2.0" fill="#5b005b" fill-rule="evenodd" stroke="none"/>
    <path d="M-10.15 -1.75 L-10.0 -2.3 -9.75 -2.85 -9.6 -3.1 -9.5 -3.3 -9.25 -3.8 -9.1 -4.05 -9.05 -4.05 -8.95 -4.1 Q-8.45 -4.1 -8.35 -3.8 L-8.35 -3.35 -8.4 -3.2 -8.6 -2.8 -8.65 -2.6 -8.9 -2.25 -9.0 -2.0 -9.05 -1.75 -10.15 -1.75 M-8.15 -1.75 L-8.0 -2.1 -8.0 -2.15 -7.95 -2.65 -7.9 -2.7 -7.8 -2.95 -7.7 -3.35 -7.4 -3.9 -7.0 -4.2 -6.75 -4.35 Q-6.25 -4.4 -6.05 -4.15 -5.9 -3.95 -5.9 -3.6 L-6.0 -3.25 -6.15 -2.85 -6.35 -2.45 -6.5 -1.75 -6.65 -1.75 -6.95 -1.75 -7.15 -1.65 -7.75 -1.7 -7.8 -1.7 -8.15 -1.75" fill="#7300aa" fill-rule="evenodd" stroke="none"/>
    <path d="M4.95 -0.05 Q5.7 -0.05 5.95 0.7 L6.0 0.8 5.95 1.6 5.9 1.85 Q6.45 2.35 7.3 2.1 7.6 1.65 8.1 1.65 L8.3 1.65 9.2 1.65 9.55 1.75 12.8 1.55 14.55 0.65 14.5 0.85 14.3 1.45 14.05 2.1 13.85 2.4 Q13.05 3.45 11.75 3.9 L11.25 3.9 11.2 3.9 11.05 3.9 11.15 3.7 10.05 4.0 9.8 4.1 9.5 4.15 8.1 4.5 7.95 4.5 7.8 4.65 7.75 4.65 7.25 4.8 7.05 4.85 6.15 5.05 4.9 5.35 4.65 5.4 4.0 5.45 3.0 5.5 2.85 5.5 2.8 5.45 2.75 5.5 2.45 5.5 2.4 5.5 2.0 5.55 2.05 5.3 2.0 5.5 0.85 5.6 0.15 5.55 -0.05 5.5 -0.15 5.6 -0.45 5.6 -0.75 5.6 -1.7 5.55 -1.9 5.55 -2.55 5.5 -2.75 5.45 -2.8 5.3 -2.85 5.1 -2.95 5.05 -3.9 4.35 -4.55 3.8 -5.0 3.25 Q-5.7 2.25 -5.9 1.0 L-5.9 0.85 -5.95 0.45 -5.95 0.15 Q-5.6 0.15 -5.25 0.45 L-5.15 0.65 -5.0 0.7 -4.9 0.75 -4.2 2.3 -3.2 3.3 -3.15 3.35 -3.1 3.4 -3.05 3.45 -2.35 3.8 Q-0.3 4.75 2.0 4.1 L2.5 3.95 3.45 3.35 3.45 3.3 3.6 3.2 3.75 3.05 4.25 2.3 4.45 1.8 4.9 0.2 4.95 -0.05 M10.2 2.35 L10.2 2.4 10.25 2.45 10.2 2.3 10.2 2.35 M9.2 4.15 L9.05 4.25 9.5 4.15 9.2 4.15 M-11.1 1.4 L-11.1 1.45 Q-11.15 2.9 -10.35 4.1 L-10.55 4.05 -10.8 4.05 -10.85 4.1 -11.1 4.05 -11.45 4.0 -11.85 3.9 Q-13.35 3.4 -14.15 2.1 L-14.15 2.05 -14.1 2.1 -14.5 0.95 -14.6 0.8 -14.6 0.75 -14.6 0.7 -14.0 1.05 -13.75 1.1 -12.4 1.3 -12.3 1.35 -11.8 1.4 -11.1 1.4" fill="#003366" fill-rule="evenodd" stroke="none"/>
    <path d="M6.0 0.8 L6.05 -0.8 6.2 -1.55 6.55 -1.85 Q7.35 -2.0 7.8 -1.35 L8.7 -0.15 Q9.2 0.4 9.9 0.4 L12.1 0.3 Q12.85 0.2 13.3 -0.3 L13.35 -0.45 13.1 -1.85 12.75 -2.6 12.5 -3.1 13.05 -2.75 13.25 -2.6 13.3 -2.55 14.3 -1.25 14.4 -1.0 14.45 -0.95 14.45 -0.8 14.5 -0.75 14.5 -0.7 14.5 -0.55 14.55 -0.55 14.55 -0.45 14.6 -0.4 14.6 -0.35 14.6 -0.25 14.6 -0.1 14.6 -0.05 14.6 0.55 14.55 0.6 14.55 0.65 12.8 1.55 9.55 1.75 9.2 1.65 8.3 1.65 8.1 1.55 8.1 1.65 Q7.6 1.65 7.3 2.1 6.45 2.35 5.9 1.85 L5.95 1.6 6.0 0.8 M7.4 -1.4 L7.35 -1.35 7.4 -1.35 7.4 -1.4 M-5.95 0.15 L-6.0 -0.45 -5.95 -1.25 -5.9 -1.3 Q-5.35 -1.35 -5.05 -1.05 L-5.05 -0.9 -5.05 -0.25 -4.95 0.45 -5.15 0.65 -5.25 0.45 Q-5.6 0.15 -5.95 0.15 M7.5 1.15 L7.65 1.0 7.45 1.1 7.5 1.15 M-10.55 -2.2 L-11.0 -1.25 -11.1 -0.95 -11.15 1.05 -11.15 1.1 -11.25 1.15 -11.25 1.4 -11.8 1.4 -12.3 1.35 -12.4 1.3 -13.75 1.1 -14.0 1.05 -14.6 0.7 -14.6 0.75 -14.65 0.6 -14.7 0.55 -14.7 -0.05 -14.7 -0.1 -14.7 -0.25 -14.7 -0.35 -14.7 -0.4 -14.65 -0.45 -14.65 -0.55 -14.6 -0.55 -14.6 -0.7 -14.35 -1.1 Q-13.9 -1.15 -13.65 -0.8 L-13.6 -0.5 Q-13.3 0.05 -12.75 -0.3 L-12.3 -0.85 -10.65 -2.2 -10.55 -2.2" fill="#2d2d86" fill-rule="evenodd" stroke="none"/>
    <path d="M8.7 -3.25 L9.55 -3.3 Q10.7 -3.3 11.7 -2.7 L12.45 -1.85 Q12.55 -1.5 12.3 -1.25 L11.95 -1.1 10.2 -1.0 Q9.65 -1.1 9.15 -1.4 L8.2 -2.2 8.1 -2.4 Q8.05 -2.95 8.45 -3.15 L8.7 -3.25 M-13.65 -0.8 L-13.6 -1.05 Q-13.25 -2.05 -12.4 -2.55 L-12.25 -2.6 Q-11.7 -2.4 -11.85 -1.75 L-11.95 -1.45 -12.3 -0.85 -12.75 -0.3 Q-13.3 0.05 -13.6 -0.5 L-13.65 -0.8" fill="#3300ff" fill-rule="evenodd" stroke="none"/>
  </g>
</svg>
