<?xml version="1.0" encoding="UTF-8" standalone="no"?>
<svg xmlns:xlink="http://www.w3.org/1999/xlink" height="15.95px" width="32.5px" xmlns="http://www.w3.org/2000/svg">
  <g transform="matrix(1.0, 0.0, 0.0, 1.0, 16.15, 8.55)">
    <path d="M-15.8 -1.35 L-15.9 -0.4 -15.7 1.15 -15.6 1.45 -15.3 2.3 -15.0 2.85 -13.35 4.05 -12.85 4.2 -12.25 4.3 Q-11.4 5.0 -10.15 4.75 L-10.0 4.7 -9.7 4.5 -9.9 4.65 -10.85 3.45 -11.2 2.6 -11.45 1.7 -11.55 0.4 -11.55 0.1 -11.4 -0.95 -10.8 -2.65 -10.75 -2.65 -10.75 -2.7 -10.7 -2.8 -10.55 -3.05 -10.1 -3.8 -9.8 -4.35 -9.75 -4.4 Q-9.95 -5.1 -10.7 -5.1 L-11.2 -4.95 -11.4 -4.7 -11.9 -4.1 -12.3 -3.4 -12.4 -3.05 -12.55 -2.75 -12.6 -2.65 -12.95 -1.35 -13.05 -0.9 -13.15 0.9 -13.15 0.95 -13.05 2.05 -12.55 3.6 -12.6 3.7 -12.65 3.8 -12.7 3.8 -12.85 3.8 -13.1 3.5 -12.9 3.65 -13.15 3.45 -13.5 3.1 -13.6 3.05 -13.8 2.85 Q-14.55 2.1 -14.8 1.15 L-14.75 1.15 -14.85 0.75 -14.85 0.7 -14.9 0.6 -14.9 0.45 -14.9 0.25 -14.9 -0.8 -14.9 -0.85 -14.85 -1.05 -14.8 -1.25 -14.7 -1.7 -14.45 -2.2 -14.45 -2.25 -14.4 -2.3 -14.4 -2.35 -14.35 -2.4 -13.85 -2.95 -13.75 -3.05 -13.45 -3.35 -13.35 -3.45 -12.9 -3.8 -12.8 -3.9 -12.6 -4.25 -12.75 -4.25 -13.1 -4.25 -13.8 -3.95 -13.9 -3.85 -14.3 -3.55 -14.4 -3.45 -15.2 -2.6 -15.7 -1.7 -15.8 -1.35 M-7.95 4.05 L-8.55 3.95 -8.6 4.0 -8.9 4.0 -9.6 4.85 Q-11.5 5.5 -13.2 4.55 L-14.5 3.85 -14.95 3.5 -15.55 2.7 -15.75 2.35 -16.05 1.1 Q-16.25 -0.2 -16.0 -1.4 -15.7 -2.7 -14.7 -3.6 L-14.2 -3.9 -14.15 -4.0 Q-13.45 -4.55 -12.6 -4.6 L-12.5 -4.6 -11.65 -5.15 -10.5 -5.3 Q-9.5 -5.25 -9.2 -4.3 L-9.15 -4.2 -9.1 -4.2 -9.0 -4.2 -8.5 -4.1 -8.8 -4.15 -7.3 -5.5 -6.9 -5.75 -6.2 -6.1 -4.1 -6.75 -3.45 -6.85 -3.45 -6.95 -2.95 -7.5 Q-1.8 -8.25 -0.5 -8.55 0.95 -8.65 2.25 -8.0 L2.5 -7.9 Q3.0 -7.7 3.3 -7.35 L5.3 -6.95 6.15 -6.75 Q7.3 -6.45 8.35 -5.85 L10.1 -4.8 10.45 -4.55 10.55 -4.55 10.95 -4.5 11.0 -4.55 11.65 -4.4 12.2 -4.15 12.4 -4.2 12.65 -4.25 Q14.25 -4.15 15.3 -3.05 L16.1 -1.75 16.25 -1.0 Q16.5 0.5 15.95 1.9 15.35 3.35 13.85 3.7 L12.7 3.85 12.5 3.95 12.35 4.0 10.65 4.1 8.4 4.65 8.3 4.7 8.05 4.75 7.5 5.2 5.4 6.35 3.65 7.1 -0.15 7.3 -1.15 7.2 Q-3.05 7.1 -4.5 6.2 L-5.1 5.8 -6.1 5.0 -6.15 5.0 Q-6.85 4.85 -7.35 4.4 L-7.55 4.25 -7.65 4.2 -7.7 4.15 -7.8 4.0 -7.85 3.9 -8.0 3.7 -7.95 3.8 -8.05 3.95 -7.95 3.95 -7.9 3.95 -7.95 4.05 M-13.5 0.8 L-13.5 0.6 Q-13.55 -0.9 -13.2 -2.35 L-13.1 -2.65 -12.85 -3.25 -12.8 -3.4 -13.05 -3.2 -13.4 -2.95 -13.75 -2.55 -14.45 -1.4 -14.4 -1.4 -14.45 -0.35 -14.4 -0.2 -14.4 0.2 -14.4 0.3 -14.35 0.6 Q-14.15 1.7 -13.4 2.55 L-13.35 2.65 -13.25 2.7 -13.4 2.1 -13.5 0.8 M-9.8 -3.5 L-10.0 -3.05 -10.35 -2.75 -10.9 -1.9 Q-11.2 -0.65 -11.1 0.65 L-11.05 1.0 Q-10.95 2.15 -10.2 2.95 L-9.8 3.45 -9.75 3.55 -8.85 3.25 -8.75 3.2 -8.35 3.0 -8.25 3.05 -8.25 2.95 -8.3 2.85 -8.5 1.55 -8.45 1.1 Q-8.7 -0.05 -8.6 -1.3 L-8.2 -2.65 -7.9 -3.1 -8.2 -3.35 -8.35 -3.4 -9.15 -3.65 -9.3 -3.7 -9.5 -3.7 -9.55 -3.7 -9.7 -3.8 -9.8 -3.5 M-0.55 -8.1 L-1.8 -7.65 -2.3 -7.05 -1.45 -7.2 1.0 -7.35 2.45 -7.4 2.6 -7.4 Q1.4 -8.3 -0.1 -8.2 L-0.55 -8.1 M-0.3 -7.05 L-0.75 -7.05 -0.9 -7.05 -1.85 -6.85 -2.1 -6.85 -2.3 -6.85 -2.35 -6.85 -2.65 -6.8 -6.1 -5.8 -6.6 -5.5 -7.8 -4.5 -8.1 -3.95 -8.05 -3.9 -7.95 -3.9 -7.9 -3.9 -7.2 -4.0 -7.2 -4.05 -6.85 -4.3 -6.75 -4.35 -6.3 -4.45 -6.2 -4.5 -5.5 -4.7 -5.45 -4.7 -5.35 -4.75 -4.8 -5.0 -4.2 -5.15 -3.8 -5.2 -2.8 -5.45 -2.0 -5.6 -1.7 -5.6 -0.8 -5.7 0.0 -5.75 1.2 -5.8 1.6 -5.8 2.55 -5.7 2.9 -5.7 3.05 -5.7 3.4 -5.65 3.6 -5.65 3.65 -5.65 3.9 -5.6 4.95 -5.4 5.25 -5.3 5.3 -5.3 5.4 -5.25 5.7 -5.25 6.6 -5.1 6.65 -5.05 7.0 -5.0 7.7 -4.8 7.75 -4.8 8.4 -4.7 9.05 -4.65 9.3 -4.65 8.9 -4.95 Q7.65 -5.8 6.15 -6.3 L4.4 -6.75 3.55 -6.9 3.0 -6.95 1.8 -7.05 -0.3 -7.05 M-5.15 -4.0 L-5.4 -3.95 -5.5 -3.95 -6.1 -3.75 -6.65 -3.5 -6.85 -3.35 -6.9 -3.35 -7.0 -3.3 -7.0 -3.25 -7.25 -2.95 -7.3 -2.95 -7.7 -2.3 -7.75 -2.2 -7.8 -2.15 -7.85 -2.15 -7.9 -2.2 -8.0 -2.3 -7.9 -2.15 -7.9 -2.1 -7.9 -2.0 -8.25 0.0 -8.25 0.2 -8.2 0.0 -8.15 0.25 -8.05 0.55 -8.05 0.6 -8.1 0.65 -8.05 1.1 -7.75 1.9 -7.8 1.9 -7.75 1.9 -7.65 2.25 -7.6 2.35 -7.2 2.9 -6.8 3.4 -6.7 3.5 -6.6 3.6 -6.55 3.65 -6.15 4.15 -6.05 4.25 -5.4 4.95 -5.0 5.3 -3.8 5.9 -2.0 6.55 -1.2 6.65 -0.05 6.8 0.6 6.9 1.85 6.8 4.95 5.75 5.6 5.4 6.25 4.75 6.35 4.7 6.45 4.65 6.55 4.55 7.05 4.45 7.25 4.4 7.75 4.25 7.8 4.25 7.95 4.1 8.1 4.1 8.7 3.95 9.45 3.75 9.8 3.7 9.45 3.75 9.05 3.85 9.45 3.6 8.85 2.9 8.4 2.05 8.3 2.25 8.0 1.3 7.95 0.05 8.1 -0.85 8.25 -1.55 8.3 -1.65 8.35 -1.75 8.35 -1.8 8.7 -2.45 9.0 -2.9 9.05 -2.9 8.9 -2.25 8.8 -1.95 Q8.45 -1.45 8.45 -0.8 L8.55 0.6 8.6 0.9 8.95 1.95 9.6 3.0 9.95 3.3 10.45 3.5 11.75 3.65 12.05 3.6 13.0 3.15 Q13.8 2.55 14.25 1.65 L14.7 -0.1 Q14.8 -1.3 14.1 -2.15 L13.8 -2.5 13.6 -2.7 13.15 -3.2 12.1 -3.75 11.95 -3.8 11.9 -3.85 11.15 -4.1 9.85 -3.95 Q9.45 -3.85 9.35 -3.6 L9.25 -3.7 9.2 -3.8 8.65 -4.1 8.4 -4.15 8.25 -4.2 7.2 -4.3 7.0 -4.4 6.9 -4.45 6.55 -4.5 6.45 -4.55 6.35 -4.55 6.1 -4.6 6.05 -4.6 5.8 -4.65 5.8 -4.6 5.25 -4.75 4.95 -4.8 4.7 -4.85 4.15 -4.9 4.2 -4.8 4.85 -3.45 Q5.15 -2.2 5.05 -0.95 L4.95 -0.6 Q4.45 1.2 2.95 2.4 L2.3 2.7 -2.6 2.4 Q-3.5 2.0 -4.1 1.25 L-5.0 -0.4 Q-5.2 -1.65 -4.85 -2.8 L-4.8 -2.85 -4.8 -2.95 -4.75 -3.0 -4.75 -3.05 -4.65 -3.3 -4.5 -3.7 -4.3 -4.05 -4.25 -4.2 -4.2 -4.25 -4.25 -4.25 -4.6 -4.1 -4.95 -4.05 -5.0 -4.05 -5.15 -4.0 M3.85 -4.9 L4.15 -4.9 3.85 -4.95 3.7 -4.95 3.85 -4.9 M-0.4 -3.9 L-0.4 -3.85 -0.35 -3.9 -0.4 -3.9 M15.55 -1.9 L14.6 -3.3 Q14.45 -3.45 14.25 -3.55 L13.95 -3.65 12.65 -3.9 13.25 -3.45 13.35 -3.35 13.6 -3.15 13.65 -3.05 13.75 -2.95 13.9 -2.85 14.05 -2.65 14.3 -2.4 14.3 -2.35 14.35 -2.3 14.4 -2.25 14.4 -2.2 14.45 -2.15 14.45 -2.1 14.7 -1.6 14.8 -1.35 14.8 -1.05 14.8 -0.95 14.85 -0.85 14.85 -0.75 14.9 -0.75 14.9 -0.7 14.9 -0.55 14.95 -0.1 14.9 0.55 14.9 0.7 14.85 0.8 Q14.75 2.05 13.8 2.95 L13.0 3.65 13.2 3.6 Q14.3 3.4 15.1 2.6 L15.45 2.1 Q16.0 1.05 16.0 0.0 L16.0 -0.15 15.95 -0.6 15.9 -0.7 15.55 -1.9 M3.1 5.1 L3.0 5.1 3.1 5.1 M-0.6 1.9 L-0.5 1.75 -0.65 1.9 -0.7 1.95 -0.65 1.95 -0.6 1.9" fill="#000000" fill-rule="evenodd" stroke="none"/>
    <path d="M-14.4 -0.2 L-14.45 -0.35 -14.4 -1.4 -14.45 -1.4 -13.75 -2.55 -13.4 -2.95 -13.05 -3.2 -12.8 -3.4 -12.85 -3.25 -13.1 -2.65 -13.2 -2.35 Q-13.55 -0.9 -13.5 0.6 L-13.5 0.8 -13.55 0.75 -13.65 0.7 -14.3 0.0 -14.4 -0.2 M-11.1 0.65 Q-11.2 -0.65 -10.9 -1.9 L-10.35 -2.75 -10.0 -3.05 -9.8 -3.5 -9.55 -3.1 -9.55 -3.05 Q-9.15 -2.25 -9.5 -1.35 L-9.9 -0.55 -11.1 0.65 M-7.9 -2.2 L-7.85 -2.15 -7.8 -2.15 -7.75 -2.2 -7.7 -2.3 -7.3 -2.95 -7.25 -2.95 -7.0 -3.25 -7.0 -3.3 -6.9 -3.35 -6.85 -3.35 -6.65 -3.5 -6.1 -3.75 -5.5 -3.95 -5.4 -3.95 -5.15 -4.0 -5.2 -4.0 Q-5.7 -3.3 -5.8 -2.45 L-6.4 -2.5 -6.45 -2.5 -6.45 -2.45 -7.2 -2.2 -7.15 -2.2 -7.8 -2.05 -7.9 -2.0 -7.9 -2.1 -7.9 -2.15 -7.9 -2.2 M4.7 -4.85 L4.95 -4.8 5.25 -4.75 5.8 -4.6 5.8 -4.65 6.05 -4.6 6.1 -4.6 6.35 -4.55 6.45 -4.55 6.55 -4.5 6.9 -4.45 7.0 -4.4 7.2 -4.3 8.25 -4.2 8.4 -4.15 8.65 -4.1 9.2 -3.8 9.25 -3.7 9.35 -3.6 9.3 -3.45 9.1 -3.1 9.05 -2.9 9.0 -2.9 7.6 -3.05 7.55 -3.1 5.75 -3.25 5.65 -3.25 5.4 -4.25 5.25 -4.65 5.2 -4.75 5.05 -4.75 4.9 -4.8 4.8 -4.8 4.7 -4.85" fill="#cccccc" fill-rule="evenodd" stroke="none"/>
    <path d="M-5.15 -4.0 L-5.0 -4.05 -4.95 -4.05 -4.6 -4.1 -4.25 -4.25 -4.2 -4.25 -4.25 -4.2 -4.3 -4.05 -4.5 -3.7 -4.65 -3.3 -4.75 -3.05 -4.75 -3.0 -4.8 -2.95 -4.8 -2.85 -4.85 -2.8 Q-5.2 -1.65 -5.0 -0.4 L-4.1 1.25 Q-3.5 2.0 -2.6 2.4 L2.3 2.7 2.95 2.4 Q4.45 1.2 4.95 -0.6 L5.05 -0.95 Q5.15 -2.2 4.85 -3.45 L4.2 -4.8 4.15 -4.9 4.7 -4.85 4.8 -4.8 4.9 -4.8 5.05 -4.75 5.2 -4.75 5.25 -4.65 5.4 -4.25 5.65 -3.25 5.75 -3.25 7.55 -3.1 8.05 -1.75 8.1 -1.25 8.1 -0.85 7.95 0.05 8.0 1.3 7.85 1.8 Q7.55 3.45 6.35 4.7 L6.25 4.75 5.6 5.4 4.95 5.75 1.85 6.8 0.6 6.9 -0.05 6.8 -1.2 6.65 -2.0 6.55 -3.8 5.9 -5.0 5.3 -5.4 4.95 -6.05 4.25 -6.2 4.05 -6.9 2.8 -7.3 1.6 Q-7.7 0.15 -7.45 -1.35 L-7.2 -2.15 -7.35 -2.15 -7.2 -2.2 -6.45 -2.45 -6.45 -2.5 -6.4 -2.5 -5.8 -2.45 Q-5.7 -3.3 -5.2 -4.0 L-5.15 -4.0 M3.85 -4.9 L3.7 -4.95 3.85 -4.95 3.85 -4.9 M-4.9 -2.8 L-4.85 -2.85 -4.9 -2.85 -4.9 -2.8 M5.65 -3.25 L5.65 -3.2 5.7 -3.2 5.65 -3.25 M7.4 -1.8 L7.35 -1.75 7.4 -1.75 7.4 -1.8 M2.8 5.05 L2.75 5.1 2.85 5.1 2.8 5.05 M3.1 5.1 L3.0 5.1 3.1 5.1" fill="#8c8c8c" fill-rule="evenodd" stroke="none"/>
    <path d="M-7.55 4.25 L-7.65 4.2 -7.7 4.15 -7.75 4.1 -7.8 4.05 -7.85 4.05 -7.95 4.05 -7.9 3.95 -7.95 3.95 -8.05 3.95 -7.95 3.8 -8.0 3.7 -7.85 3.9 -7.8 4.0 -7.7 4.15 -7.65 4.2 -7.55 4.25 M-8.2 0.0 L-8.25 0.2 -8.25 0.0 -8.2 0.0 M-7.9 -2.15 L-8.0 -2.3 -7.9 -2.2 -7.9 -2.15" fill="#666666" fill-rule="evenodd" stroke="none"/>
    <path d="M5.65 -3.25 L5.7 -3.2 5.65 -3.2 5.65 -3.25" fill="#cece6f" fill-rule="evenodd" stroke="none"/>
    <path d="M-14.4 -0.2 L-14.3 0.0 -13.65 0.7 -13.55 0.75 -13.5 0.8 -13.4 2.1 -13.25 2.7 -13.35 2.65 -13.4 2.55 Q-14.15 1.7 -14.35 0.6 L-14.4 0.3 -14.4 0.2 -14.4 -0.2 M-11.1 0.65 L-9.9 -0.55 -9.5 -1.35 Q-9.15 -2.25 -9.55 -3.05 L-9.55 -3.1 -9.8 -3.5 -9.7 -3.8 -9.55 -3.7 -9.5 -3.7 -9.3 -3.7 -9.15 -3.65 -8.35 -3.4 -8.2 -3.35 -7.9 -3.1 -8.2 -2.65 -8.6 -1.3 Q-8.7 -0.05 -8.45 1.1 L-8.5 1.55 -8.3 2.85 -8.25 2.95 -8.25 3.05 -8.35 3.0 -8.75 3.2 -8.85 3.25 -9.75 3.55 -9.8 3.45 -10.2 2.95 Q-10.95 2.15 -11.05 1.0 L-11.1 0.65" fill="#999999" fill-rule="evenodd" stroke="none"/>
    <path d="M-9.55 -3.7 L-9.5 -3.7 -9.55 -3.7 M2.8 5.05 L2.85 5.1 2.75 5.1 2.8 5.05" fill="#595988" fill-rule="evenodd" stroke="none"/>
    <path d="M9.0 -2.9 L8.7 -2.45 8.35 -1.8 8.35 -1.75 8.3 -1.65 8.25 -1.55 8.1 -0.85 8.1 -1.25 8.05 -1.75 7.55 -3.1 7.6 -3.05 9.0 -2.9 M8.0 1.3 L8.3 2.25 8.4 2.05 8.85 2.9 9.45 3.6 9.05 3.85 9.45 3.75 9.8 3.7 9.45 3.75 8.7 3.95 8.1 4.1 7.95 4.1 7.8 4.25 7.75 4.25 7.25 4.4 7.05 4.45 6.55 4.55 6.45 4.65 6.35 4.7 Q7.55 3.45 7.85 1.8 L8.0 1.3 M-6.05 4.25 L-6.15 4.15 -6.55 3.65 -6.6 3.6 -6.7 3.5 -6.8 3.4 -7.2 2.9 -7.6 2.35 -7.65 2.25 -7.75 1.9 -7.8 1.9 -7.75 1.9 -8.05 1.1 -8.1 0.65 -8.05 0.6 -8.05 0.55 -8.15 0.25 -8.2 0.0 -8.25 0.0 -7.9 -2.0 -7.8 -2.05 -7.15 -2.2 -7.2 -2.2 -7.35 -2.15 -7.2 -2.15 -7.45 -1.35 Q-7.7 0.15 -7.3 1.6 L-6.9 2.8 -6.2 4.05 -6.05 4.25" fill="#4d4f4d" fill-rule="evenodd" stroke="none"/>
    <path d="M-0.4 -3.9 L-0.35 -3.9 -0.4 -3.85 -0.4 -3.9 M-4.9 -2.8 L-4.9 -2.85 -4.85 -2.85 -4.9 -2.8" fill="#2b5500" fill-rule="evenodd" stroke="none"/>
    <path d="M4.15 -4.9 L3.85 -4.9 3.85 -4.95 4.15 -4.9" fill="#999933" fill-rule="evenodd" stroke="none"/>
    <path d="M5.7 -5.25 L5.4 -5.25 5.3 -5.3 5.7 -5.25" fill="#8b94a3" fill-rule="evenodd" stroke="none"/>
    <path d="M5.8 -4.6 L5.8 -4.65 5.8 -4.6" fill="#b3b9c1" fill-rule="evenodd" stroke="none"/>
    <path d="M7.4 -1.8 L7.4 -1.75 7.35 -1.75 7.4 -1.8" fill="#23252e" fill-rule="evenodd" stroke="none"/>
    <path d="M-0.6 1.9 L-0.65 1.95 -0.7 1.95 -0.65 1.9 -0.5 1.75 -0.6 1.9" fill="#754900" fill-rule="evenodd" stroke="none"/>
    <path d="M-15.6 1.45 L-15.7 1.15 -15.9 -0.4 -15.8 -1.35 -14.9 -0.85 -14.9 -0.8 -14.9 0.25 -14.9 0.45 -14.9 0.6 -14.85 0.7 -14.85 0.75 -14.75 1.15 -14.8 1.15 -15.25 1.4 -15.6 1.45 M-13.15 0.95 L-13.15 0.9 -13.05 -0.9 -12.95 -1.35 -12.6 -1.05 -11.4 -0.95 -11.55 0.1 -11.55 0.4 -11.45 1.7 -11.55 1.75 Q-12.4 2.25 -12.9 1.45 L-13.15 0.95 M-0.3 -7.05 L1.8 -7.05 1.75 -6.6 1.5 -6.25 1.2 -5.8 0.0 -5.75 -0.8 -5.7 Q-0.4 -6.0 -0.3 -6.35 L-0.25 -6.75 -0.3 -7.05 M10.75 -3.55 L11.05 -3.7 Q13.15 -3.65 13.75 -1.7 14.25 -0.15 12.9 0.85 11.4 1.55 9.75 0.85 L9.3 0.5 Q8.65 -0.4 8.95 -1.5 L9.2 -2.15 9.25 -1.15 Q9.35 -0.6 9.9 -0.35 10.7 0.05 11.3 -0.5 12.35 -1.45 12.05 -2.75 11.8 -3.75 10.75 -3.55 M15.55 -1.9 L15.9 -0.7 15.95 -0.6 16.0 -0.15 16.0 0.0 15.65 0.25 15.05 0.35 14.95 0.35 14.95 -0.1 14.9 -0.55 14.9 -0.7 14.9 -0.75 14.85 -0.75 14.85 -0.85 14.8 -0.95 14.8 -1.05 14.8 -1.35 15.0 -1.45 15.55 -1.9" fill="#cc3300" fill-rule="evenodd" stroke="none"/>
    <path d="M-13.9 -3.85 L-13.8 -3.95 -13.1 -4.25 -12.75 -4.25 -12.6 -4.25 -12.8 -3.9 -12.9 -3.8 -13.35 -3.45 -13.9 -3.85 M-14.8 1.15 Q-14.55 2.1 -13.8 2.85 L-13.6 3.05 -13.5 3.1 -13.15 3.45 -12.9 3.65 -13.1 3.5 -12.85 3.8 -12.7 3.8 -12.65 3.8 -12.6 3.7 -12.55 3.6 -13.05 2.05 -13.15 0.95 -12.9 1.45 Q-12.4 2.25 -11.55 1.75 L-11.45 1.7 -11.2 2.6 -10.85 3.45 -9.9 4.65 -9.7 4.5 -10.0 4.7 -10.15 4.75 Q-11.4 5.0 -12.25 4.3 L-12.85 4.2 -13.35 4.05 -15.0 2.85 -15.3 2.3 -15.6 1.45 -15.25 1.4 -14.8 1.15 M-11.9 -4.1 L-11.4 -4.7 -11.2 -4.95 -10.7 -5.1 Q-9.95 -5.1 -9.75 -4.4 L-9.8 -4.35 -10.1 -3.8 -10.55 -3.05 Q-10.5 -4.25 -11.8 -4.2 L-11.9 -4.1 M1.8 -7.05 L3.0 -6.95 3.55 -6.9 4.4 -6.75 6.15 -6.3 Q7.65 -5.8 8.9 -4.95 L9.3 -4.65 9.05 -4.65 8.4 -4.7 7.75 -4.8 7.7 -4.8 7.0 -5.0 6.65 -5.05 6.6 -5.1 5.7 -5.25 5.3 -5.3 5.25 -5.3 4.95 -5.4 3.9 -5.6 3.65 -5.65 3.6 -5.65 3.4 -5.65 3.05 -5.7 2.9 -5.7 2.55 -5.7 1.6 -5.8 1.2 -5.8 1.5 -6.25 1.75 -6.6 1.8 -7.05 M-5.5 -4.7 L-6.2 -4.5 -6.3 -4.45 -6.75 -4.35 -6.85 -4.3 -7.2 -4.05 -7.2 -4.0 -7.9 -3.9 -8.05 -3.9 -8.1 -3.95 -7.8 -4.5 -6.6 -5.5 -6.1 -5.8 -6.55 -5.5 -6.55 -5.2 -6.35 -5.0 -5.5 -4.7 M9.35 -3.6 Q9.45 -3.85 9.85 -3.95 L11.15 -4.1 11.9 -3.85 11.95 -3.8 12.1 -3.75 13.15 -3.2 13.6 -2.7 13.8 -2.5 14.1 -2.15 Q14.8 -1.3 14.7 -0.1 L14.25 1.65 Q13.8 2.55 13.0 3.15 L12.05 3.6 11.75 3.65 10.45 3.5 9.95 3.3 9.6 3.0 8.95 1.95 8.6 0.9 8.55 0.6 8.45 -0.8 Q8.45 -1.45 8.8 -1.95 L8.9 -2.25 9.05 -2.9 9.1 -3.1 9.3 -3.45 9.35 -3.6 M10.75 -3.55 L9.8 -2.9 9.2 -2.15 8.95 -1.5 Q8.65 -0.4 9.3 0.5 L9.75 0.85 Q11.4 1.55 12.9 0.85 14.25 -0.15 13.75 -1.7 13.15 -3.65 11.05 -3.7 L10.75 -3.55 M16.0 0.0 Q16.0 1.05 15.45 2.1 L15.1 2.6 Q14.3 3.4 13.2 3.6 L13.0 3.65 13.8 2.95 Q14.75 2.05 14.85 0.8 L14.9 0.7 14.9 0.55 14.95 -0.1 14.95 0.35 15.05 0.35 15.65 0.25 16.0 0.0 M13.6 -3.15 L13.35 -3.35 13.25 -3.45 12.65 -3.9 13.95 -3.65 13.6 -3.15" fill="#990000" fill-rule="evenodd" stroke="none"/>
    <path d="M-15.8 -1.35 L-15.7 -1.7 -15.2 -2.6 -14.4 -3.45 -14.3 -3.55 -13.9 -3.85 -13.35 -3.45 -13.45 -3.35 -13.75 -3.05 -13.85 -2.95 -14.35 -2.4 -14.4 -2.35 -14.4 -2.3 -14.45 -2.25 -14.45 -2.2 -14.7 -1.7 -14.8 -1.25 -14.85 -1.05 -14.9 -0.85 -15.8 -1.35 M-12.95 -1.35 L-12.6 -2.65 -12.55 -2.75 -12.4 -3.05 -12.3 -3.4 -11.9 -4.1 -11.8 -4.2 Q-10.5 -4.25 -10.55 -3.05 L-10.7 -2.8 -10.75 -2.7 -10.75 -2.65 -10.8 -2.65 -11.4 -0.95 -12.6 -1.05 -12.95 -1.35 M-6.1 -5.8 L-2.65 -6.8 -2.35 -6.85 -2.3 -6.85 -2.1 -6.85 -1.85 -6.85 -0.9 -7.05 -0.75 -7.05 -0.3 -7.05 -0.25 -6.75 -0.3 -6.35 Q-0.4 -6.0 -0.8 -5.7 L-1.7 -5.6 -2.0 -5.6 -2.8 -5.45 -3.8 -5.2 -4.2 -5.15 -4.8 -5.0 -5.35 -4.75 -5.45 -4.7 -5.5 -4.7 -6.35 -5.0 -6.55 -5.2 -6.55 -5.5 -6.1 -5.8 M9.2 -2.15 L9.8 -2.9 10.75 -3.55 Q11.8 -3.75 12.05 -2.75 12.35 -1.45 11.3 -0.5 10.7 0.05 9.9 -0.35 9.35 -0.6 9.25 -1.15 L9.2 -2.15 M13.95 -3.65 L14.25 -3.55 Q14.45 -3.45 14.6 -3.3 L15.55 -1.9 15.0 -1.45 14.8 -1.35 14.7 -1.6 14.45 -2.1 14.45 -2.15 14.4 -2.2 14.4 -2.25 14.35 -2.3 14.3 -2.35 14.3 -2.4 14.05 -2.65 13.9 -2.85 13.75 -2.95 13.65 -3.05 13.6 -3.15 13.95 -3.65" fill="#ff6600" fill-rule="evenodd" stroke="none"/>
    <path d="M-0.55 -8.1 L-0.1 -8.2 Q1.4 -8.3 2.6 -7.4 L2.45 -7.4 1.0 -7.35 -1.45 -7.2 -2.3 -7.05 -1.8 -7.65 -0.55 -8.1" fill="#009966" fill-rule="evenodd" stroke="none"/>
  </g>
</svg>
