<?xml version="1.0" encoding="UTF-8" standalone="no"?>
<svg xmlns:xlink="http://www.w3.org/1999/xlink" height="11.05px" width="29.75px" xmlns="http://www.w3.org/2000/svg">
  <g transform="matrix(1.0, 0.0, 0.0, 1.0, 14.85, 5.2)">
    <path d="M5.8 -4.65 L6.7 -4.55 6.75 -4.5 7.1 -4.45 7.8 -4.25 7.85 -4.25 8.5 -4.15 9.15 -4.1 9.6 -4.05 9.65 -4.05 10.15 -4.0 10.65 -4.0 11.05 -3.95 11.1 -4.0 11.75 -3.85 Q12.65 -3.6 13.35 -2.95 L13.75 -2.6 13.85 -2.5 14.35 -1.95 14.4 -1.9 14.4 -1.85 14.45 -1.8 14.45 -1.75 14.7 -1.25 14.8 -0.75 14.8 -0.65 14.85 -0.55 14.85 -0.5 14.9 -0.5 14.9 -0.45 14.9 0.8 14.9 0.9 14.85 1.0 Q14.75 2.2 13.8 3.05 L12.5 4.0 12.35 4.05 12.35 4.1 10.65 4.2 8.4 4.7 8.3 4.75 7.7 4.9 7.5 4.95 6.2 5.3 6.05 5.3 5.9 5.35 5.65 5.4 5.6 5.4 4.85 5.6 4.35 5.65 4.15 5.7 3.75 5.75 -4.6 5.5 -4.7 5.5 -4.95 5.45 -6.25 5.15 -6.85 5.0 -7.8 4.65 -8.85 4.6 -9.2 4.55 -10.8 4.4 -10.95 4.45 -11.75 4.3 -13.7 3.05 Q-14.65 2.2 -14.75 1.0 L-14.8 0.9 -14.8 0.8 -14.8 -0.45 -14.8 -0.5 -14.75 -0.5 -14.75 -0.55 -14.7 -0.55 -14.7 -0.65 -14.7 -0.75 -14.6 -1.25 -14.35 -1.75 -14.35 -1.8 -14.3 -1.85 -14.3 -1.9 -14.25 -1.95 -13.75 -2.5 -13.65 -2.6 -13.25 -2.95 -11.65 -3.85 -11.6 -3.85 -10.1 -3.8 -9.85 -3.7 -9.75 -3.7 -9.0 -3.7 -7.8 -3.7 -7.75 -3.75 -7.4 -3.75 -6.65 -3.8 -6.2 -3.9 -6.1 -3.95 -5.25 -4.2 -4.7 -4.4 -4.1 -4.55 -3.7 -4.65 -2.7 -4.85 -1.6 -5.0 0.1 -5.15 1.7 -5.2 2.65 -5.1 3.7 -5.05 3.75 -5.05 4.0 -5.0 5.05 -4.8 5.35 -4.7 5.4 -4.7 5.5 -4.7 5.8 -4.65 M5.9 -4.05 L5.35 -4.2 3.25 -4.4 3.15 -4.4 0.6 -4.55 -0.2 -4.5 -0.4 -4.45 -0.9 -4.4 -1.3 -4.4 -1.4 -4.35 -1.8 -4.35 -2.6 -4.15 -2.65 -4.15 -2.9 -4.2 -3.05 -4.15 -3.25 -4.05 -3.4 -4.0 -4.4 -3.8 -4.7 -3.7 -5.35 -3.65 -5.5 -3.6 -5.55 -3.55 -5.6 -3.55 -5.9 -3.5 -6.1 -3.45 -6.15 -3.45 -6.4 -3.35 -6.45 -3.35 -6.85 -3.3 -6.95 -3.3 -7.6 -3.2 -7.95 -3.2 -8.1 -3.2 -8.3 -3.15 -8.45 -3.15 -8.6 -3.15 -9.4 -3.2 -9.45 -3.2 -11.1 -3.5 -11.45 -3.4 -11.75 -3.3 Q-12.6 -3.05 -13.3 -2.5 L-14.3 -1.25 -14.4 -1.0 -14.45 -0.95 -14.45 -0.8 -14.5 -0.75 -14.5 -0.7 -14.5 -0.55 -14.55 -0.55 -14.55 -0.5 -14.6 -0.45 -14.6 -0.4 -14.6 -0.3 -14.6 -0.1 -14.6 0.5 -14.55 0.55 -14.5 0.7 -14.5 0.8 -14.25 1.5 -14.05 2.0 Q-13.25 3.25 -11.75 3.7 L-11.0 3.85 -10.75 3.9 -10.7 3.85 -10.45 3.85 -10.25 3.9 -10.1 3.85 -9.85 3.85 -8.0 4.1 -7.55 4.35 -7.45 4.4 -7.4 4.4 -7.35 4.45 -7.15 4.5 -6.45 4.6 -6.4 4.6 -5.1 4.8 -4.8 4.85 -4.55 4.9 -4.45 4.9 -3.8 5.05 -3.55 5.1 -3.45 5.1 -2.95 5.15 -2.45 5.2 -0.65 5.3 -0.05 5.3 0.05 5.25 0.25 5.25 0.95 5.3 2.1 5.25 2.15 5.0 2.1 5.25 2.5 5.25 2.85 5.2 2.95 5.2 3.1 5.2 4.1 5.15 4.75 5.15 5.0 5.05 6.25 4.8 7.15 4.6 7.35 4.55 7.85 4.45 7.9 4.4 8.05 4.3 8.2 4.3 10.7 3.75 11.3 3.7 11.35 3.7 11.85 3.7 Q13.35 3.25 14.15 2.0 L14.6 0.8 14.65 0.55 14.7 0.5 14.7 -0.1 14.7 -0.3 14.7 -0.4 14.7 -0.45 14.65 -0.5 14.65 -0.55 14.6 -0.55 14.6 -0.7 14.6 -0.75 14.55 -0.8 14.55 -0.95 14.5 -1.0 14.4 -1.25 13.4 -2.5 13.35 -2.55 13.15 -2.65 12.5 -3.05 12.45 -3.05 12.45 -3.1 12.0 -3.3 11.85 -3.3 11.4 -3.45 11.3 -3.45 10.95 -3.45 10.9 -3.45 10.35 -3.45 10.25 -3.4 10.2 -3.45 10.1 -3.45 9.3 -3.55 9.25 -3.55 8.5 -3.65 8.35 -3.65 7.3 -3.75 7.1 -3.85 7.05 -3.85 6.65 -3.95 6.55 -4.0 6.45 -4.0 6.15 -4.05 5.9 -4.1 5.9 -4.05 M7.5 -1.35 L7.5 -1.3 7.45 -1.35 7.5 -1.35 M-6.05 3.1 L-6.05 3.05 -6.05 3.1" fill="#23252e" fill-rule="evenodd" stroke="none"/>
    <path d="M-9.4 -3.2 L-8.6 -3.15 -8.45 -3.15 -8.3 -3.15 -8.1 -3.2 -7.95 -3.2 -7.6 -3.2 -6.95 -3.3 -6.85 -3.3 -6.45 -3.35 -6.4 -3.35 -6.15 -3.45 -6.1 -3.45 -5.9 -3.5 -5.6 -3.55 -5.55 -3.55 -5.5 -3.6 -5.35 -3.65 -4.7 -3.7 -4.4 -3.8 -3.4 -4.0 -3.25 -4.05 -3.05 -4.15 -2.9 -4.2 -2.65 -4.15 -2.6 -4.15 -1.8 -4.35 -1.4 -4.35 -1.3 -4.4 -0.9 -4.4 -0.4 -4.45 -0.2 -4.5 0.6 -4.55 3.15 -4.4 3.25 -4.4 5.35 -4.2 5.9 -4.05 5.9 -4.1 6.15 -4.05 6.45 -4.0 6.55 -4.0 6.65 -3.95 7.05 -3.85 7.1 -3.85 7.3 -3.75 8.35 -3.65 8.5 -3.65 9.25 -3.55 9.3 -3.55 10.1 -3.45 10.2 -3.45 10.25 -3.4 10.35 -3.45 10.9 -3.45 10.95 -3.45 11.3 -3.45 11.4 -3.45 11.85 -3.3 12.0 -3.3 12.45 -3.1 12.45 -3.05 12.5 -3.05 13.15 -2.65 13.35 -2.55 13.4 -2.35 13.5 -1.95 13.55 -1.85 13.5 -1.85 Q13.65 -1.1 13.45 -0.25 L13.0 -0.45 12.5 -0.7 12.35 -0.65 Q11.65 -0.3 12.3 0.15 L12.5 0.2 12.55 0.25 12.5 0.25 Q12.05 0.25 11.9 0.6 L11.85 0.6 11.8 0.4 Q12.05 -0.15 11.45 -0.5 L11.0 -0.5 10.7 -0.3 Q10.4 0.15 10.65 0.5 L10.6 0.5 10.45 0.5 10.35 0.6 10.25 0.6 10.05 0.8 9.55 0.5 9.6 0.35 10.2 0.35 10.45 -0.1 Q10.6 -0.75 10.25 -0.9 L10.5 -1.05 10.7 -1.2 10.7 -1.15 10.75 -1.0 10.85 -0.9 11.1 -0.9 11.2 -0.95 11.3 -1.2 11.3 -1.25 11.2 -1.35 11.15 -1.4 10.9 -1.45 10.85 -1.4 Q10.95 -1.8 10.25 -1.95 L9.85 -1.8 Q9.5 -1.35 9.95 -1.05 L9.55 -1.05 9.45 -1.0 9.15 -0.65 9.15 -0.1 8.9 -0.1 Q8.9 -0.6 8.5 -0.8 L8.7 -1.0 8.8 -1.6 9.6 -1.5 9.9 -1.95 Q10.3 -2.95 9.2 -2.95 L8.9 -2.75 Q8.7 -2.7 8.65 -2.45 L8.65 -1.75 8.05 -1.95 7.75 -1.65 Q7.45 -1.25 7.8 -0.9 L7.7 -0.9 7.65 -0.9 7.5 -0.8 7.45 -0.75 7.1 -0.3 6.9 -0.4 Q6.8 -0.6 6.5 -0.65 L6.5 -0.7 6.5 -0.8 7.0 -0.9 7.1 -1.15 Q7.6 -2.15 6.4 -2.3 L6.05 -2.2 5.8 -2.4 5.4 -2.45 5.35 -2.4 5.2 -2.3 5.35 -2.65 5.35 -2.75 4.95 -3.0 Q4.4 -2.9 4.0 -2.55 L3.95 -2.35 4.05 -2.15 4.95 -2.1 4.9 -2.0 4.8 -1.65 Q4.55 -1.95 3.85 -1.85 3.35 -1.85 3.2 -1.5 L3.1 -1.6 3.45 -2.05 3.55 -2.6 Q3.45 -3.65 2.2 -3.4 L2.15 -3.35 2.05 -3.3 1.95 -3.3 1.65 -2.9 1.4 -2.95 1.0 -2.85 Q0.4 -2.6 0.45 -1.95 0.5 -1.6 0.65 -1.4 L0.35 -1.2 Q0.45 -1.75 -0.2 -1.8 L0.2 -1.9 0.35 -2.1 Q0.85 -3.15 -0.3 -3.35 L-0.3 -3.3 -0.85 -3.25 -1.1 -2.7 Q-1.15 -1.8 -0.35 -1.75 L-0.7 -1.55 -0.85 -1.65 -1.25 -1.7 -1.3 -1.65 Q-1.05 -2.5 -2.05 -2.65 L-2.6 -2.6 -2.85 -2.05 -2.8 -1.6 -3.6 -1.7 -3.75 -1.65 -3.85 -1.6 -4.2 -1.05 -4.25 -1.05 -4.2 -1.2 -4.05 -1.8 Q-3.7 -1.6 -3.25 -2.0 -2.6 -2.7 -3.55 -3.0 L-4.2 -2.75 -4.4 -2.25 -4.8 -2.4 -4.8 -2.35 -5.3 -2.25 -5.55 -1.8 -5.5 -1.45 -5.6 -1.45 -5.75 -1.4 Q-5.75 -1.9 -6.55 -1.95 L-6.8 -1.8 -7.0 -1.6 -7.4 -1.8 -7.7 -1.65 Q-8.05 -1.4 -7.9 -1.1 -8.15 -1.55 -9.0 -1.5 L-9.05 -1.5 -9.15 -1.45 -9.6 -0.9 -10.1 -1.15 -10.4 -1.0 Q-10.9 -0.6 -10.35 -0.2 L-9.85 -0.25 -9.6 -0.5 -9.55 -0.35 -9.4 -0.05 -10.05 -0.1 Q-10.65 0.1 -10.6 0.65 L-10.65 0.65 -10.7 0.7 Q-10.7 0.2 -11.15 0.05 -10.75 -0.6 -11.5 -1.0 L-11.95 -1.0 -12.2 -0.75 Q-12.6 -0.2 -12.1 0.15 -12.4 0.4 -12.3 0.85 L-12.55 0.65 -13.0 0.65 -13.15 0.8 Q-13.7 1.6 -12.6 1.7 L-12.35 1.5 -12.2 1.15 -11.85 1.5 -12.0 1.85 -12.4 1.85 -12.5 1.95 -12.6 1.95 -12.85 2.3 -12.9 2.55 -13.85 2.0 -14.25 1.5 -14.5 0.8 -14.5 0.7 -14.55 0.55 -14.6 0.5 -14.6 -0.1 -14.6 -0.3 -14.6 -0.4 -14.6 -0.45 -14.55 -0.5 -14.55 -0.55 -14.5 -0.55 -14.5 -0.7 -14.5 -0.75 -14.45 -0.8 -14.45 -0.95 -14.4 -1.0 -14.3 -1.25 -13.3 -2.5 Q-12.6 -3.05 -11.75 -3.3 L-11.45 -3.4 -11.1 -3.5 -9.45 -3.2 -9.4 -3.2 M0.2 -0.8 L0.2 -0.75 0.2 -0.8 M0.9 -4.05 L0.8 -4.0 0.55 -3.8 Q0.35 -3.3 0.85 -3.1 L1.2 -3.1 Q2.15 -3.65 1.1 -4.05 L0.9 -4.05 M7.5 -1.35 L7.45 -1.35 7.5 -1.3 7.5 -1.35 M12.6 -1.95 L12.2 -2.0 12.05 -1.95 Q11.65 -1.85 11.75 -1.45 12.05 -0.6 12.7 -1.25 L12.95 -1.45 13.0 -1.6 12.95 -1.75 12.9 -1.85 12.85 -1.95 12.6 -1.95 M10.4 -3.2 L10.3 -3.15 10.25 -3.05 10.2 -3.0 10.15 -2.75 10.15 -2.7 10.3 -2.6 10.35 -2.5 10.65 -2.5 10.75 -2.55 10.8 -2.55 Q10.6 -2.0 11.5 -1.95 L11.7 -2.1 Q12.05 -2.65 11.5 -2.95 L11.1 -3.0 10.95 -2.9 10.8 -3.1 10.7 -3.2 10.4 -3.2 M12.4 -2.65 L12.15 -2.75 12.4 -2.65 M11.45 1.25 L11.4 1.4 11.4 1.25 11.45 1.25 M10.3 2.2 L10.35 2.3 10.3 2.25 10.3 2.2 M7.75 0.95 L7.6 1.1 7.55 1.0 7.75 0.95 M6.85 0.8 L6.85 0.75 6.85 0.8 M-10.25 -2.05 L-10.25 -1.9 Q-9.95 -1.15 -9.2 -1.7 L-9.15 -1.95 -9.25 -2.3 -9.4 -2.35 -9.6 -2.4 Q-10.0 -2.4 -10.25 -2.05 M-13.75 -1.0 L-13.8 -1.0 Q-14.45 -0.7 -14.3 0.0 -14.05 0.85 -13.05 0.5 L-12.7 0.1 Q-12.45 -1.05 -13.75 -1.0 M-12.95 -2.6 Q-13.55 -2.35 -13.55 -1.8 -13.55 -0.7 -12.35 -0.95 -11.85 -1.05 -11.8 -1.5 -11.65 -2.7 -12.95 -2.6 M-10.85 -1.25 L-10.65 -1.3 Q-9.9 -2.25 -11.1 -2.6 -11.65 -2.65 -11.75 -2.05 -11.95 -1.1 -10.85 -1.25 M-7.8 -0.1 L-7.9 -0.15 -7.85 -0.3 -7.85 -1.05 -7.65 -0.85 -7.2 -0.85 -7.05 -0.6 -7.15 -0.5 -7.15 -0.35 -7.3 -0.35 -7.8 -0.1 M-8.9 0.35 L-9.1 0.3 -9.15 0.2 -8.85 0.25 -8.9 0.35 M-6.35 -0.15 L-6.35 -0.2 -6.35 -0.15 M-6.35 -0.45 L-6.35 -0.5 -6.3 -0.5 -6.35 -0.45 M-1.95 -2.75 L-1.75 -2.9 Q-1.0 -3.8 -2.15 -4.1 -2.75 -4.2 -2.85 -3.6 -3.05 -2.7 -1.95 -2.75 M-1.4 -3.95 L-1.35 -3.55 Q-0.7 -2.95 -0.25 -3.8 L-0.3 -3.9 Q-0.5 -4.3 -1.0 -4.25 L-1.4 -3.95 M-6.15 -0.6 L-6.05 -0.75 -6.0 -0.65 -6.05 -0.65 -6.15 -0.6 M-4.05 1.35 L-4.05 1.25 -4.0 1.3 -4.05 1.35" fill="#6fa637" fill-rule="evenodd" stroke="none"/>
    <path d="M-14.25 1.5 L-13.85 2.0 -12.9 2.55 -12.85 2.3 -12.6 1.95 -12.5 1.95 -12.4 1.85 -12.0 1.85 -11.6 2.45 -11.6 2.4 -11.05 2.6 -10.6 2.3 Q-10.2 1.5 -10.8 1.25 L-10.75 1.0 -10.7 0.7 -10.65 0.65 -10.6 0.65 -10.6 0.85 -10.1 1.35 -9.75 1.85 -9.4 1.85 Q-8.6 1.35 -9.2 1.0 L-9.15 0.85 -9.1 0.3 -8.9 0.35 -8.95 0.95 Q-8.6 1.8 -7.65 1.4 L-7.4 1.2 -7.4 0.9 -7.2 0.7 Q-7.2 0.05 -7.8 -0.1 L-7.3 -0.35 -7.15 -0.35 Q-7.2 0.1 -6.55 0.05 L-6.4 -0.1 -6.35 -0.15 -6.35 -0.2 -6.35 -0.45 -6.3 -0.5 -6.35 -0.5 -6.8 -0.7 -6.95 -0.65 -7.05 -0.6 -7.2 -0.85 -7.15 -0.9 Q-6.7 -1.35 -7.0 -1.6 L-6.8 -1.8 -6.55 -1.95 Q-5.75 -1.9 -5.75 -1.4 L-5.6 -1.45 -5.5 -1.45 -5.55 -1.8 -5.3 -2.25 -4.8 -2.35 -4.8 -2.4 -4.4 -2.25 -4.2 -2.75 -3.55 -3.0 Q-2.6 -2.7 -3.25 -2.0 -3.7 -1.6 -4.05 -1.8 L-4.2 -1.2 -4.25 -1.05 -4.2 -1.05 -3.85 -1.6 -3.75 -1.65 -3.6 -1.7 -2.8 -1.6 -2.85 -2.05 -2.6 -2.6 -2.05 -2.65 Q-1.05 -2.5 -1.3 -1.65 L-1.25 -1.7 -0.85 -1.65 -0.7 -1.55 -0.35 -1.75 Q-1.15 -1.8 -1.1 -2.7 L-0.85 -3.25 -0.3 -3.3 -0.3 -3.35 Q0.85 -3.15 0.35 -2.1 L0.2 -1.9 -0.2 -1.8 Q0.45 -1.75 0.35 -1.2 L0.65 -1.4 Q0.5 -1.6 0.45 -1.95 0.4 -2.6 1.0 -2.85 L1.4 -2.95 1.65 -2.9 1.95 -3.3 2.05 -3.3 2.15 -3.35 2.2 -3.4 Q3.45 -3.65 3.55 -2.6 L3.45 -2.05 3.1 -1.6 3.2 -1.5 Q3.35 -1.85 3.85 -1.85 4.55 -1.95 4.8 -1.65 L4.9 -2.0 4.95 -2.1 4.05 -2.15 3.95 -2.35 4.0 -2.55 Q4.4 -2.9 4.95 -3.0 L5.35 -2.75 5.35 -2.65 5.2 -2.3 5.35 -2.4 5.4 -2.45 5.8 -2.4 6.05 -2.2 5.95 -2.15 5.65 -1.7 Q5.7 -0.75 6.5 -0.8 L6.5 -0.7 6.5 -0.65 Q6.8 -0.6 6.9 -0.4 L7.1 -0.3 7.1 0.15 Q7.25 0.8 7.75 0.95 L7.8 0.9 8.1 0.85 8.3 0.95 8.6 0.85 8.85 0.35 8.9 -0.1 9.15 -0.1 Q9.2 0.25 9.6 0.35 L9.55 0.5 9.4 0.5 Q9.1 0.45 8.9 0.7 8.2 1.45 9.15 1.9 9.7 2.1 10.0 1.65 L10.05 1.6 Q10.2 2.05 11.1 1.95 L11.35 1.5 11.4 1.4 11.45 1.25 11.4 1.25 11.4 1.15 11.45 1.25 11.65 1.45 12.05 1.4 Q12.75 0.85 11.9 0.6 12.05 0.25 12.5 0.25 L12.55 0.25 12.5 0.2 12.7 0.15 Q13.1 -0.2 13.0 -0.45 L13.45 -0.25 Q13.65 -1.1 13.5 -1.85 L13.55 -1.85 13.5 -1.95 13.4 -2.35 13.35 -2.55 13.4 -2.5 14.4 -1.25 14.5 -1.0 14.55 -0.95 14.55 -0.8 14.6 -0.75 14.6 -0.7 14.6 -0.55 14.65 -0.55 14.65 -0.5 14.7 -0.45 14.7 -0.4 14.7 -0.3 14.7 -0.1 14.7 0.5 14.65 0.55 14.6 0.8 14.15 2.0 Q13.35 3.25 11.85 3.7 L11.35 3.7 11.3 3.7 10.7 3.75 8.2 4.3 8.05 4.3 7.9 4.4 7.85 4.45 7.35 4.55 7.15 4.6 6.25 4.8 5.0 5.05 4.75 5.15 4.1 5.15 3.1 5.2 2.95 5.2 2.9 5.15 2.85 5.2 2.5 5.25 2.1 5.25 2.15 5.0 2.1 5.25 0.95 5.3 0.25 5.25 0.05 5.25 -0.05 5.3 -0.65 5.3 -2.45 5.2 -2.95 5.15 -3.45 5.1 -3.55 5.1 -3.8 5.05 -4.45 4.9 -4.55 4.9 -4.8 4.85 -5.1 4.8 -6.4 4.6 -6.45 4.6 -7.15 4.5 -7.35 4.45 -7.4 4.4 -7.45 4.4 -7.55 4.35 -8.0 4.1 -9.85 3.85 -10.1 3.85 -10.25 3.9 -10.45 3.85 -10.7 3.85 -10.75 3.9 -11.0 3.85 -11.75 3.7 Q-13.25 3.25 -14.05 2.0 L-14.25 1.5 M10.05 0.8 L10.25 0.6 10.35 0.6 10.45 0.5 10.6 0.5 10.65 0.5 10.7 0.55 10.45 0.55 10.35 0.6 Q10.15 0.65 10.1 0.85 L10.05 0.8 M11.8 0.4 L11.85 0.6 11.65 0.65 11.6 0.7 11.7 0.55 11.8 0.4 M0.9 -4.05 L1.1 -4.05 Q2.15 -3.65 1.2 -3.1 L0.85 -3.1 Q0.35 -3.3 0.55 -3.8 L0.8 -4.0 0.9 -4.05 M0.2 -0.8 L0.2 -0.75 0.2 -0.8 M13.05 0.9 L13.1 0.9 13.2 0.7 Q13.3 0.45 13.05 0.3 L12.8 0.25 12.75 0.25 12.6 0.4 12.55 0.5 12.55 0.7 12.6 0.8 12.65 0.85 12.75 0.9 13.05 0.9 M11.45 0.8 L11.55 0.7 Q11.4 0.85 11.4 1.05 L11.3 0.8 11.45 0.8 M10.3 2.2 L10.3 2.25 10.35 2.3 10.3 2.2 M7.75 0.95 L7.55 1.0 7.6 1.1 7.75 0.95 M8.25 1.5 L8.0 1.5 7.95 1.5 7.9 1.55 7.8 1.75 7.8 1.95 7.85 2.0 7.95 2.1 8.25 2.1 8.35 1.95 8.45 1.8 8.35 1.65 8.25 1.5 M6.85 0.8 L6.85 0.75 6.85 0.8 M-6.15 -0.6 L-6.05 -0.65 -6.0 -0.65 -6.05 -0.75 -6.15 -0.6 M-1.4 -3.95 L-1.0 -4.25 Q-0.5 -4.3 -0.3 -3.9 L-0.25 -3.8 Q-0.7 -2.95 -1.35 -3.55 L-1.4 -3.95 M-1.95 -2.75 Q-3.05 -2.7 -2.85 -3.6 -2.75 -4.2 -2.15 -4.1 -1.0 -3.8 -1.75 -2.9 L-1.95 -2.75 M-0.5 2.15 L-0.4 2.0 -0.6 2.2 -0.55 2.2 -0.5 2.15 M-4.05 1.35 L-4.0 1.3 -4.05 1.25 -4.05 1.35 M-9.4 2.2 L-9.45 2.2 -9.8 1.9 -9.95 1.95 -10.0 1.95 -10.15 2.15 Q-10.3 2.65 -9.65 2.65 L-9.5 2.5 -9.4 2.2 M-6.05 3.1 L-6.05 3.05 -6.05 3.1" fill="#2b5500" fill-rule="evenodd" stroke="none"/>
    <path d="M5.4 -4.7 L5.8 -4.65 5.5 -4.7 5.4 -4.7" fill="#8b94a3" fill-rule="evenodd" stroke="none"/>
    <path d="M5.9 -4.1 L5.9 -4.05 5.9 -4.1" fill="#b3b9c1" fill-rule="evenodd" stroke="none"/>
    <path d="M-12.0 1.85 L-11.85 1.5 -12.2 1.15 -12.35 1.5 -12.6 1.7 Q-13.7 1.6 -13.15 0.8 L-13.0 0.65 -12.55 0.65 -12.3 0.85 Q-12.4 0.4 -12.1 0.15 L-11.8 0.0 -11.75 0.0 -11.15 0.05 Q-10.7 0.2 -10.7 0.7 L-10.75 1.0 -10.8 1.25 Q-10.2 1.5 -10.6 2.3 L-11.05 2.6 -11.6 2.4 -11.6 2.45 -12.0 1.85 M-10.6 0.65 Q-10.65 0.1 -10.05 -0.1 L-9.4 -0.05 -9.55 -0.35 -9.6 -0.5 -9.85 -0.25 -10.35 -0.2 Q-10.9 -0.6 -10.4 -1.0 L-10.1 -1.15 -9.6 -0.9 -9.15 -1.45 -9.05 -1.5 -9.0 -1.5 Q-8.15 -1.55 -7.9 -1.1 -8.05 -1.4 -7.7 -1.65 L-7.4 -1.8 -7.0 -1.6 Q-6.7 -1.35 -7.15 -0.9 L-7.2 -0.85 -7.65 -0.85 -7.85 -1.05 -7.85 -0.3 -7.9 -0.15 -7.8 -0.1 Q-7.2 0.05 -7.2 0.7 L-7.4 0.9 -7.4 1.2 -7.65 1.4 Q-8.6 1.8 -8.95 0.95 L-8.9 0.35 -8.85 0.25 -9.15 0.2 -9.1 0.3 -9.15 0.85 -9.2 1.0 Q-8.6 1.35 -9.4 1.85 L-9.75 1.85 -10.1 1.35 -10.6 0.85 -10.6 0.65 M6.05 -2.2 L6.4 -2.3 Q7.6 -2.15 7.1 -1.15 L7.0 -0.9 6.5 -0.8 Q5.7 -0.75 5.65 -1.7 L5.95 -2.15 6.05 -2.2 M7.1 -0.3 L7.45 -0.75 7.5 -0.8 7.65 -0.9 7.7 -0.9 7.8 -0.9 8.5 -0.8 Q8.9 -0.6 8.9 -0.1 L8.85 0.35 8.6 0.85 8.3 0.95 8.1 0.85 7.8 0.9 7.75 0.95 Q7.25 0.8 7.1 0.15 L7.1 -0.3 M9.15 -0.1 L9.15 -0.65 9.45 -1.0 9.55 -1.05 9.95 -1.05 10.25 -0.9 Q10.6 -0.75 10.45 -0.1 L10.2 0.35 9.6 0.35 Q9.2 0.25 9.15 -0.1 M10.85 -1.4 L10.9 -1.45 11.15 -1.4 11.2 -1.35 11.3 -1.25 11.3 -1.2 11.2 -0.95 11.1 -0.9 10.85 -0.9 10.75 -1.0 10.7 -1.15 10.7 -1.2 10.75 -1.3 10.8 -1.4 10.85 -1.4 M9.55 0.5 L10.05 0.8 10.1 0.85 Q10.15 0.65 10.35 0.6 L10.45 0.55 10.7 0.55 10.65 0.5 Q10.4 0.15 10.7 -0.3 L11.0 -0.5 11.45 -0.5 Q12.05 -0.15 11.8 0.4 L11.7 0.55 11.6 0.7 11.65 0.65 11.85 0.6 11.9 0.6 Q12.75 0.85 12.05 1.4 L11.65 1.45 11.45 1.25 11.4 1.15 11.4 1.25 11.4 1.4 11.35 1.5 11.1 1.95 Q10.2 2.05 10.05 1.6 L10.0 1.65 Q9.7 2.1 9.15 1.9 8.2 1.45 8.9 0.7 9.1 0.45 9.4 0.5 L9.55 0.5 M12.5 0.2 L12.3 0.15 Q11.65 -0.3 12.35 -0.65 L12.5 -0.7 13.0 -0.45 Q13.1 -0.2 12.7 0.15 L12.5 0.2 M13.05 0.9 L12.75 0.9 12.65 0.85 12.6 0.8 12.55 0.7 12.55 0.5 12.6 0.4 12.75 0.25 12.8 0.25 13.05 0.3 Q13.3 0.45 13.2 0.7 L13.1 0.9 13.05 0.9 M11.45 0.8 L11.3 0.8 11.4 1.05 Q11.4 0.85 11.55 0.7 L11.45 0.8 M8.25 1.5 L8.35 1.65 8.45 1.8 8.35 1.95 8.25 2.1 7.95 2.1 7.85 2.0 7.8 1.95 7.8 1.75 7.9 1.55 7.95 1.5 8.0 1.5 8.25 1.5 M-7.15 -0.35 L-7.15 -0.5 -7.05 -0.6 -6.95 -0.65 -6.8 -0.7 -6.35 -0.5 -6.35 -0.45 -6.35 -0.2 -6.35 -0.15 -6.4 -0.1 -6.55 0.05 Q-7.2 0.1 -7.15 -0.35 M-9.4 2.2 L-9.5 2.5 -9.65 2.65 Q-10.3 2.65 -10.15 2.15 L-10.0 1.95 -9.95 1.95 -9.8 1.9 -9.45 2.2 -9.4 2.2" fill="#58852c" fill-rule="evenodd" stroke="none"/>
    <path d="M-12.1 0.15 Q-12.6 -0.2 -12.2 -0.75 L-11.95 -1.0 -11.5 -1.0 Q-10.75 -0.6 -11.15 0.05 L-11.75 0.0 -11.8 0.0 -12.1 0.15 M7.8 -0.9 Q7.45 -1.25 7.75 -1.65 L8.05 -1.95 8.65 -1.75 8.65 -2.45 Q8.7 -2.7 8.9 -2.75 L9.2 -2.95 Q10.3 -2.95 9.9 -1.95 L9.6 -1.5 8.8 -1.6 8.7 -1.0 8.5 -0.8 7.8 -0.9 M9.95 -1.05 Q9.5 -1.35 9.85 -1.8 L10.25 -1.95 Q10.95 -1.8 10.85 -1.4 L10.8 -1.4 10.75 -1.3 10.7 -1.2 10.5 -1.05 10.25 -0.9 9.95 -1.05 M10.4 -3.2 L10.7 -3.2 10.8 -3.1 10.95 -2.9 11.1 -3.0 11.5 -2.95 Q12.05 -2.65 11.7 -2.1 L11.5 -1.95 Q10.6 -2.0 10.8 -2.55 L10.75 -2.55 10.65 -2.5 10.35 -2.5 10.3 -2.6 10.15 -2.7 10.15 -2.75 10.2 -3.0 10.25 -3.05 10.3 -3.15 10.4 -3.2 M12.6 -1.95 L12.85 -1.95 12.9 -1.85 12.95 -1.75 13.0 -1.6 12.95 -1.45 12.7 -1.25 Q12.05 -0.6 11.75 -1.45 11.65 -1.85 12.05 -1.95 L12.2 -2.0 12.6 -1.95 M-12.95 -2.6 Q-11.65 -2.7 -11.8 -1.5 -11.85 -1.05 -12.35 -0.95 -13.55 -0.7 -13.55 -1.8 -13.55 -2.35 -12.95 -2.6 M-13.75 -1.0 Q-12.45 -1.05 -12.7 0.1 L-13.05 0.5 Q-14.05 0.85 -14.3 0.0 -14.45 -0.7 -13.8 -1.0 L-13.75 -1.0 M-10.25 -2.05 Q-10.0 -2.4 -9.6 -2.4 L-9.4 -2.35 -9.25 -2.3 -9.15 -1.95 -9.2 -1.7 Q-9.95 -1.15 -10.25 -1.9 L-10.25 -2.05 M-10.85 -1.25 Q-11.95 -1.1 -11.75 -2.05 -11.65 -2.65 -11.1 -2.6 -9.9 -2.25 -10.65 -1.3 L-10.85 -1.25" fill="#8ac550" fill-rule="evenodd" stroke="none"/>
    <path d="M12.4 -2.65 L12.15 -2.75 12.4 -2.65" fill="#878eb0" fill-rule="evenodd" stroke="none"/>
    <path d="M-9.4 -3.2 L-9.45 -3.2 -9.4 -3.2 M2.85 5.2 L2.9 5.15 2.95 5.2 2.85 5.2" fill="#595988" fill-rule="evenodd" stroke="none"/>
    <path d="M-0.5 2.15 L-0.55 2.2 -0.6 2.2 -0.4 2.0 -0.5 2.15" fill="#754900" fill-rule="evenodd" stroke="none"/>
  </g>
</svg>
