<?xml version="1.0" encoding="UTF-8" standalone="no"?>
<svg xmlns:xlink="http://www.w3.org/1999/xlink" height="14.9px" width="30.65px" xmlns="http://www.w3.org/2000/svg">
  <g transform="matrix(1.0, 0.0, 0.0, 1.0, 15.5, 7.3)">
    <path d="M-4.35 -5.85 L-2.25 -6.4 1.45 -6.6 1.75 -6.55 4.45 -5.95 4.55 -5.9 4.75 -5.35 4.75 -5.25 Q6.05 -4.55 6.4 -3.3 L6.45 -3.35 6.65 -3.45 6.65 -3.5 Q8.2 -3.55 8.5 -2.6 L8.55 -2.8 Q8.7 -3.4 9.1 -3.7 L9.3 -3.8 9.85 -3.05 10.25 -2.3 10.6 -1.25 10.6 -1.2 10.65 -0.7 Q10.95 0.55 10.9 1.9 L10.9 2.1 10.5 2.15 10.35 2.2 10.25 2.05 Q9.95 1.6 9.45 1.55 L7.15 1.55 7.0 1.55 6.85 1.7 7.2 0.75 Q7.65 -1.15 5.9 -2.15 L5.75 -2.25 5.75 -2.05 5.75 -1.8 5.75 -1.75 5.95 -1.2 5.75 -1.15 5.7 -1.15 Q5.9 -2.85 4.3 -4.25 1.9 -6.45 -1.6 -6.05 -2.8 -5.45 -3.55 -4.15 L-4.45 -4.2 -4.55 -4.2 Q-4.05 -3.9 -4.0 -3.2 L-4.15 -3.75 Q-5.0 -3.0 -4.75 -1.55 -5.2 -1.2 -5.25 -0.65 L-5.25 -0.6 -5.95 -0.7 Q-7.4 0.05 -6.9 1.7 L-6.7 2.2 Q-7.2 2.35 -7.6 2.65 -7.8 2.45 -8.1 2.35 -9.9 1.8 -10.6 3.5 L-12.95 3.6 -13.6 3.75 -13.7 3.5 -14.15 2.85 -14.3 2.35 -14.65 0.6 Q-13.7 1.7 -12.4 1.0 L-12.55 0.55 Q-12.8 -0.4 -12.05 -1.05 L-11.9 -1.1 Q-11.8 -1.1 -11.65 -1.2 L-10.6 -1.1 -10.65 -2.0 Q-10.5 -2.55 -10.0 -2.7 L-9.6 -2.8 Q-8.55 -2.4 -8.7 -1.6 L-8.4 -1.95 -8.25 -2.0 -8.0 -2.1 -8.0 -2.15 Q-6.35 -2.2 -6.15 -1.05 L-5.7 -1.75 Q-6.7 -1.9 -6.65 -3.15 -6.65 -4.1 -5.8 -4.45 L-5.5 -4.45 -4.7 -4.3 -4.85 -4.45 -4.45 -4.5 -4.2 -4.55 Q-3.3 -5.05 -3.55 -6.0 L-4.35 -5.85 M4.9 -2.6 L4.8 -2.65 4.85 -2.95 4.9 -2.6 M6.3 2.85 L6.15 2.8 6.25 2.6 6.55 2.1 6.8 1.8 Q6.5 2.05 6.45 2.45 L6.3 2.85 M-9.95 -0.65 L-9.75 0.2 -9.5 0.05 -9.4 0.0 -8.75 0.1 -8.9 -0.35 -8.95 -1.05 -9.05 -0.9 -9.25 -0.65 -9.95 -0.65 M-3.7 -2.75 L-3.1 -1.85 -3.1 -1.8 Q-3.6 -2.0 -3.7 -2.75" fill="#999933" fill-rule="evenodd" stroke="none"/>
    <path d="M-13.6 3.75 L-12.95 3.6 -10.6 3.5 Q-9.9 1.8 -8.1 2.35 -7.8 2.45 -7.6 2.65 -7.2 2.35 -6.7 2.2 L-6.9 1.7 Q-7.4 0.05 -5.95 -0.7 L-5.25 -0.6 -5.25 -0.65 Q-5.2 -1.2 -4.75 -1.55 -5.0 -3.0 -4.15 -3.75 L-4.0 -3.2 -4.05 -2.7 Q-4.1 -2.2 -4.5 -1.95 L-4.1 -1.8 -3.95 -3.1 -3.65 -4.0 -3.55 -4.15 Q-2.8 -5.45 -1.6 -6.05 1.9 -6.45 4.3 -4.25 5.9 -2.85 5.7 -1.15 L5.75 -1.15 6.2 -0.5 6.3 -0.7 Q6.05 -0.9 5.95 -1.2 L5.75 -1.75 5.75 -1.8 5.75 -2.05 5.75 -2.25 5.9 -2.15 Q7.65 -1.15 7.2 0.75 L6.85 1.7 7.0 1.55 7.15 1.55 9.45 1.55 Q9.95 1.6 10.25 2.05 L10.35 2.2 10.5 2.15 10.9 2.1 10.9 2.15 10.85 2.3 10.85 2.6 10.75 2.95 10.65 3.4 10.5 3.7 9.7 4.65 9.05 5.0 Q8.6 4.95 8.45 5.25 L7.75 5.35 5.2 6.05 3.8 6.4 2.85 6.65 2.8 6.65 2.25 6.7 0.3 6.8 0.0 6.8 -0.3 6.8 -2.4 6.7 -2.85 6.45 -3.05 6.4 -6.2 5.95 -7.1 5.8 -7.4 5.65 -7.7 5.55 -7.9 5.4 -8.35 5.15 -10.25 4.9 -10.65 5.05 -10.7 5.05 -11.35 4.95 -12.45 4.4 -13.35 3.95 -13.45 3.85 -13.55 3.8 -13.6 3.75 M4.9 -2.6 L4.85 -2.95 4.8 -2.65 4.9 -2.6 M5.85 0.8 L5.95 0.8 5.95 0.7 5.85 0.8 M6.3 2.85 L6.45 2.45 Q6.5 2.05 6.8 1.8 L6.55 2.1 6.25 2.6 6.15 2.8 6.3 2.85 M-3.7 -2.75 Q-3.6 -2.0 -3.1 -1.8 L-3.1 -1.85 -3.7 -2.75 M-3.5 0.3 L-3.5 0.35 -3.45 0.3 -3.5 0.3" fill="#996600" fill-rule="evenodd" stroke="none"/>
    <path d="M10.65 -4.05 L12.05 -4.2 12.45 -4.25 12.85 -4.0 13.0 -3.8 Q13.9 -2.8 14.3 -1.5 L14.6 0.2 Q14.75 1.35 14.35 2.45 L14.05 3.25 Q13.85 3.9 13.3 4.2 L13.15 4.35 12.6 4.8 12.1 5.0 12.25 5.05 11.85 4.95 11.5 4.9 10.4 4.7 10.5 4.55 10.75 4.25 10.75 4.2 10.8 4.05 11.05 3.75 11.15 3.55 12.1 3.85 12.25 3.9 12.45 3.6 12.4 3.55 12.45 3.4 12.5 3.3 12.6 3.05 12.75 2.7 12.8 2.6 12.95 1.15 12.75 -0.35 12.9 -0.4 Q13.75 -1.2 13.35 -2.35 L13.1 -3.05 Q12.6 -3.9 11.65 -3.85 L11.3 -3.6 11.25 -3.5 10.75 -3.95 10.65 -4.05" fill="#666666" fill-rule="evenodd" stroke="none"/>
    <path d="M4.95 -6.2 L6.65 -5.95 6.8 -6.0 6.95 -5.9 7.0 -5.9 7.15 -5.75 7.2 -5.7 7.3 -5.5 9.0 -4.9 9.0 -4.85 9.5 -4.6 Q9.7 -4.45 10.0 -4.45 L12.45 -4.6 12.5 -4.6 13.1 -4.4 13.45 -4.1 Q14.2 -3.6 14.55 -2.75 L14.85 -1.8 14.9 -1.7 14.9 -1.6 14.95 -1.35 15.15 0.2 15.1 1.25 14.55 3.0 13.6 4.7 12.75 5.2 12.4 5.35 12.05 5.5 11.85 5.5 10.45 5.35 9.7 5.3 9.15 5.4 9.1 5.4 8.4 5.9 8.0 6.1 5.7 6.45 3.7 6.95 Q2.6 7.45 1.3 7.55 L-2.4 7.4 -3.9 7.2 -6.1 6.6 -7.35 6.1 -9.95 5.5 -10.0 5.5 -10.05 5.5 Q-11.4 5.6 -12.55 4.95 L-13.05 4.65 -13.75 4.2 -14.1 3.75 Q-14.6 3.4 -14.75 2.8 L-14.85 2.2 -15.25 1.55 -15.45 0.7 Q-15.65 -0.3 -15.05 -1.1 L-15.1 -1.25 -15.1 -1.85 -14.0 -4.0 Q-13.55 -4.6 -12.8 -4.9 L-9.5 -5.15 -9.1 -5.4 -7.75 -5.8 Q-6.65 -5.85 -5.65 -6.4 L-5.25 -6.55 -2.5 -6.65 -2.3 -6.7 -1.55 -7.0 0.1 -7.25 Q1.5 -7.4 2.65 -6.75 L2.7 -6.7 3.05 -6.75 4.5 -6.3 4.6 -6.25 4.95 -6.2 M4.45 -5.95 L1.75 -6.55 1.45 -6.6 -2.25 -6.4 -4.35 -5.85 -5.65 -5.65 -5.75 -5.65 -5.9 -5.6 -6.75 -5.25 -6.9 -5.2 -7.35 -5.15 -8.1 -5.0 -8.3 -5.0 -9.3 -4.7 -9.35 -4.7 -10.9 -4.65 -10.95 -4.65 -11.45 -4.65 -11.45 -4.6 -11.5 -4.6 -12.4 -4.25 Q-12.75 -4.1 -13.05 -3.9 L-13.15 -3.8 -14.3 -2.25 -14.45 -1.85 -14.5 -1.6 -14.5 -1.5 -14.55 -1.35 -14.65 -0.15 -14.65 0.6 -14.3 2.35 -14.15 2.85 -13.7 3.5 -13.6 3.75 -13.55 3.8 -13.45 3.85 -13.35 3.95 -12.45 4.4 -11.35 4.95 -10.7 5.05 -10.65 5.05 -10.25 4.9 -8.35 5.15 -7.9 5.4 -7.7 5.55 -7.4 5.65 -7.1 5.8 -6.2 5.95 -3.05 6.4 -2.85 6.45 -2.4 6.7 -0.3 6.8 0.0 6.8 0.3 6.8 2.25 6.7 2.8 6.65 2.85 6.65 3.8 6.4 5.2 6.05 7.75 5.35 8.45 5.25 Q8.6 4.95 9.05 5.0 L9.7 4.65 10.5 3.7 10.65 3.4 10.75 2.95 10.85 2.6 10.85 2.3 10.9 2.15 10.9 2.1 10.9 1.9 Q10.95 0.55 10.65 -0.7 L10.6 -1.2 10.6 -1.25 10.25 -2.3 9.85 -3.05 9.3 -3.8 9.25 -3.85 9.1 -4.05 8.6 -4.65 8.65 -4.7 8.5 -4.75 8.05 -4.9 8.0 -4.9 7.9 -4.95 7.75 -5.05 7.35 -5.15 6.9 -5.2 6.8 -5.25 5.9 -5.6 5.8 -5.65 4.45 -5.95 M11.15 3.55 L11.05 3.75 10.8 4.05 10.75 4.2 10.75 4.25 10.5 4.55 10.4 4.7 11.5 4.9 11.85 4.95 12.25 5.05 12.1 5.0 12.6 4.8 13.15 4.35 13.3 4.2 Q13.85 3.9 14.05 3.25 L14.35 2.45 Q14.75 1.35 14.6 0.2 L14.3 -1.5 Q13.9 -2.8 13.0 -3.8 L12.85 -4.0 12.45 -4.25 12.05 -4.2 10.65 -4.05 10.1 -4.0 10.25 -3.65 10.6 -2.4 10.6 -2.35 10.7 -2.3 11.3 -0.75 11.35 -0.4 Q11.8 0.8 11.55 2.15 L11.35 2.55 11.15 3.55" fill="#000000" fill-rule="evenodd" stroke="none"/>
    <path d="M-4.85 -4.45 L-4.7 -4.3 -5.5 -4.45 -4.85 -4.45 M-5.8 -4.45 Q-6.65 -4.1 -6.65 -3.15 -6.7 -1.9 -5.7 -1.75 L-6.15 -1.05 Q-6.35 -2.2 -8.0 -2.15 L-8.0 -2.1 -8.25 -2.0 -8.4 -1.95 -8.7 -1.6 Q-8.55 -2.4 -9.6 -2.8 L-10.0 -2.7 Q-10.5 -2.55 -10.65 -2.0 L-10.6 -1.1 -11.65 -1.2 Q-11.8 -1.1 -11.9 -1.1 L-12.05 -1.05 Q-12.8 -0.4 -12.55 0.55 L-12.4 1.0 Q-13.7 1.7 -14.65 0.6 L-14.65 -0.15 -14.3 -0.35 Q-13.45 -0.75 -13.85 -1.75 L-13.55 -2.2 -13.4 -2.4 Q-12.65 -2.3 -12.2 -2.75 -11.7 -3.3 -11.6 -4.05 L-11.4 -4.05 -8.35 -4.2 -8.15 -4.15 Q-6.95 -3.7 -6.0 -4.45 L-5.8 -4.45 M-4.0 -3.2 Q-4.05 -3.9 -4.55 -4.2 L-4.45 -4.2 -3.55 -4.15 -3.65 -4.0 -3.95 -3.1 -4.1 -1.8 -4.5 -1.95 Q-4.1 -2.2 -4.05 -2.7 L-4.0 -3.2 M5.75 -1.15 L5.95 -1.2 Q6.05 -0.9 6.3 -0.7 L6.2 -0.5 5.75 -1.15 M9.1 -3.7 Q8.7 -3.4 8.55 -2.8 L8.5 -2.6 Q8.2 -3.55 6.65 -3.5 L6.65 -3.45 6.45 -3.35 6.4 -3.3 Q6.05 -4.55 4.75 -5.25 L4.75 -5.35 4.55 -5.9 4.45 -5.95 5.8 -5.65 5.9 -5.6 6.8 -5.25 6.9 -5.2 7.35 -5.15 7.75 -5.05 7.9 -4.95 8.0 -4.9 Q7.85 -3.95 8.95 -3.55 L9.1 -3.7 M5.85 0.8 L5.95 0.7 5.95 0.8 5.85 0.8 M-13.05 -3.9 L-13.1 -3.85 -13.15 -3.8 -13.05 -3.9 M-9.95 -0.65 L-9.25 -0.65 -9.05 -0.9 -8.95 -1.05 -8.9 -0.35 -8.75 0.1 -9.4 0.0 -9.5 0.05 -9.75 0.2 -9.95 -0.65 M-3.5 0.3 L-3.45 0.3 -3.5 0.35 -3.5 0.3" fill="#99cc99" fill-rule="evenodd" stroke="none"/>
    <path d="M-4.35 -5.85 L-3.55 -6.0 Q-3.3 -5.05 -4.2 -4.55 L-4.45 -4.5 -4.85 -4.45 -5.5 -4.45 -5.8 -4.45 -6.0 -4.45 Q-6.95 -3.7 -8.15 -4.15 L-8.35 -4.2 -11.4 -4.05 -11.6 -4.05 Q-11.7 -3.3 -12.2 -2.75 -12.65 -2.3 -13.4 -2.4 L-13.55 -2.2 -13.85 -1.75 Q-13.45 -0.75 -14.3 -0.35 L-14.65 -0.15 -14.55 -1.35 -14.5 -1.5 -14.5 -1.6 -14.45 -1.85 -14.3 -2.25 -13.15 -3.8 -13.1 -3.85 -13.05 -3.9 Q-12.75 -4.1 -12.4 -4.25 L-11.5 -4.6 -11.45 -4.6 -11.45 -4.65 -10.95 -4.65 -10.9 -4.65 -9.35 -4.7 -9.3 -4.7 -8.3 -5.0 -8.1 -5.0 -7.35 -5.15 -6.9 -5.2 -6.75 -5.25 -5.9 -5.6 -5.75 -5.65 -5.65 -5.65 -4.35 -5.85 M9.3 -3.8 L9.1 -3.7 8.95 -3.55 Q7.85 -3.95 8.0 -4.9 L8.05 -4.9 8.5 -4.75 8.6 -4.65 9.1 -4.05 9.25 -3.85 9.3 -3.8" fill="#99ffcc" fill-rule="evenodd" stroke="none"/>
    <path d="M8.5 -4.75 L8.65 -4.7 8.6 -4.65 8.5 -4.75 M10.65 -4.05 L10.75 -3.95 11.25 -3.5 Q10.95 -3.1 11.0 -2.6 11.05 -1.45 12.05 -0.75 12.15 -0.25 12.7 -0.35 L12.75 -0.35 12.95 1.15 12.8 2.6 12.75 2.7 12.6 3.05 12.5 3.3 12.45 3.4 12.4 3.55 12.45 3.6 12.25 3.9 12.1 3.85 11.15 3.55 11.35 2.55 11.55 2.15 Q11.8 0.8 11.35 -0.4 L11.3 -0.75 10.7 -2.3 10.6 -2.35 10.6 -2.4 10.25 -3.65 10.1 -4.0 10.65 -4.05" fill="#999999" fill-rule="evenodd" stroke="none"/>
    <path d="M11.25 -3.5 L11.3 -3.6 11.65 -3.85 Q12.6 -3.9 13.1 -3.05 L13.35 -2.35 Q13.75 -1.2 12.9 -0.4 L12.75 -0.35 12.7 -0.35 Q12.15 -0.25 12.05 -0.75 11.05 -1.45 11.0 -2.6 10.95 -3.1 11.25 -3.5" fill="#cccccc" fill-rule="evenodd" stroke="none"/>
  </g>
</svg>
