<?xml version="1.0" encoding="UTF-8" standalone="no"?>
<svg xmlns:xlink="http://www.w3.org/1999/xlink" height="12.85px" width="17.4px" xmlns="http://www.w3.org/2000/svg">
  <g transform="matrix(1.0, 0.0, 0.0, 1.0, 8.45, 8.1)">
    <path d="M1.6 -7.25 L0.05 -7.6 -0.7 -7.45 -1.55 -7.05 -2.55 -6.1 -2.55 -5.75 -2.55 -5.7 -2.75 -4.95 -2.75 -4.9 -2.8 -4.85 -2.85 -4.85 -3.0 -4.8 -3.0 -4.75 -3.1 -4.75 -3.15 -4.65 -3.2 -4.55 -3.55 -3.95 -3.65 -3.75 -3.9 -3.2 -3.9 -3.05 -4.05 -2.85 -4.2 -2.8 -4.45 -2.75 -5.4 -2.5 -6.2 -2.35 -6.4 -2.35 -6.65 -2.25 -6.8 -1.35 -6.85 -1.3 Q-7.05 -0.7 -7.4 -0.25 L-7.9 0.35 Q-7.4 0.6 -7.05 1.0 -6.75 1.25 -6.55 1.2 L-6.45 1.35 -6.3 2.05 -4.7 0.4 -4.6 0.3 -4.35 0.15 -4.1 0.05 -3.95 0.05 -3.9 0.0 -3.6 -0.15 -3.3 -0.25 -3.25 -0.3 -3.2 -0.3 -3.2 -0.25 -3.1 -0.2 -2.95 -0.1 -2.95 -0.05 -3.15 0.1 -3.25 0.2 -3.7 0.45 -3.8 0.55 -3.75 0.9 -3.75 0.95 -3.15 1.95 -2.7 2.55 -1.8 3.55 -0.85 3.95 -0.2 4.2 0.9 4.0 1.95 3.4 2.0 3.4 2.2 3.25 2.35 3.2 2.45 3.1 Q3.1 2.75 3.35 2.0 L3.65 1.4 4.05 1.05 4.25 0.85 3.4 0.25 2.7 -0.2 2.55 -0.45 2.55 -0.65 2.55 -0.7 4.4 0.35 4.75 0.65 5.1 1.0 5.15 1.05 Q5.85 1.35 6.35 1.9 L6.65 2.25 6.7 2.2 6.75 1.9 6.8 1.85 6.75 1.85 6.75 1.8 6.8 1.75 6.85 1.75 8.0 0.75 8.1 0.7 8.25 0.9 8.1 0.65 8.55 0.45 7.7 -0.35 7.65 -0.4 7.6 -0.6 7.55 -0.6 7.55 -0.7 7.5 -0.85 7.4 -1.15 6.0 -1.75 5.4 -1.95 5.45 -1.95 5.35 -2.0 5.05 -2.15 4.65 -2.3 4.5 -2.4 4.5 -2.45 4.5 -2.5 4.0 -2.9 3.9 -3.2 3.6 -4.1 3.55 -4.15 3.55 -4.25 3.45 -4.55 3.4 -4.65 3.3 -4.75 2.8 -5.45 2.8 -5.6 2.7 -5.9 2.7 -6.05 2.7 -6.1 2.65 -6.1 2.65 -6.2 2.65 -6.25 2.55 -6.35 1.6 -7.25 M-3.45 -5.25 L-3.4 -5.25 -3.4 -5.3 -3.3 -5.35 -3.15 -5.6 -2.95 -6.2 -2.75 -6.45 -2.25 -6.95 -1.4 -7.65 -0.65 -7.9 -0.25 -8.05 -0.2 -8.05 0.95 -7.9 1.1 -7.85 2.75 -6.75 3.1 -6.35 3.2 -6.15 Q3.1 -5.7 3.35 -5.3 L4.05 -4.6 4.15 -4.05 4.15 -3.9 4.15 -3.85 4.15 -3.05 5.45 -2.35 7.0 -1.85 7.15 -1.8 7.2 -1.75 7.5 -1.55 7.75 -0.9 8.35 -0.2 8.5 -0.1 8.55 0.05 8.55 0.15 8.9 0.45 8.9 0.5 8.95 0.65 8.95 0.75 8.45 1.0 Q7.85 1.2 7.6 1.75 7.05 2.25 6.75 2.85 L6.7 2.8 6.65 2.8 6.4 2.75 6.15 2.3 6.05 2.2 4.8 1.25 4.55 1.2 4.5 1.35 4.45 1.35 4.0 2.1 2.95 3.3 Q1.85 4.45 0.45 4.75 L-1.75 4.1 -3.1 2.9 -3.65 1.6 -3.8 1.35 -4.1 0.9 -4.1 0.8 -4.15 0.85 -4.5 0.8 -4.6 0.85 -4.65 0.85 -4.75 1.0 -4.8 1.2 -4.85 1.2 -4.95 1.2 -5.45 1.75 -5.65 2.05 -5.65 1.9 -6.4 2.85 -6.55 2.9 -6.7 2.4 -6.8 2.1 Q-6.95 1.4 -7.35 1.05 L-8.45 0.5 -8.3 0.3 -7.65 -0.55 Q-6.95 -1.6 -6.75 -2.75 L-6.7 -2.8 -6.65 -2.85 -6.0 -2.95 -4.35 -3.35 -4.15 -3.35 -4.2 -3.4 -4.25 -3.55 -4.15 -3.7 -3.75 -4.55 -3.65 -4.75 -3.5 -5.1 -3.5 -5.15 -3.45 -5.25" fill="#000000" fill-rule="evenodd" stroke="none"/>
    <path d="M-2.55 -5.75 L-2.5 -6.0 -2.4 -6.0 -1.95 -5.65 -1.85 -5.6 -1.15 -5.15 1.35 -4.95 Q1.45 -4.95 1.55 -5.05 L2.6 -6.3 2.65 -6.25 2.65 -6.2 2.65 -6.1 2.7 -6.1 2.7 -6.05 2.7 -5.9 2.8 -5.6 2.8 -5.45 3.3 -4.75 3.4 -4.65 3.45 -4.55 3.55 -4.25 3.55 -4.15 3.2 -4.35 3.15 -4.35 Q2.65 -4.7 2.0 -4.65 L1.85 -4.6 1.75 -4.6 1.75 -4.55 1.7 -4.5 1.65 -4.5 1.65 -4.45 1.2 -4.3 0.85 -4.7 0.35 -4.9 -0.6 -4.7 -0.8 -4.4 -1.1 -4.5 Q-1.45 -5.0 -2.15 -4.85 L-3.55 -3.85 -3.55 -3.95 -3.2 -4.55 -3.15 -4.65 -3.1 -4.75 -3.0 -4.75 -2.9 -4.75 -2.85 -4.8 -2.75 -4.9 -2.75 -4.95 -2.55 -5.7 -2.55 -5.75 M4.0 -2.9 L4.5 -2.5 4.5 -2.45 4.45 -2.35 5.05 -2.15 5.35 -2.0 5.45 -1.95 5.4 -1.95 4.2 -2.05 5.6 -1.2 6.65 -0.7 6.85 -0.65 7.2 -0.4 7.7 -0.35 8.55 0.45 8.1 0.65 7.05 1.45 6.95 1.4 6.95 1.45 Q6.35 0.75 5.45 0.4 L5.05 0.2 3.5 -0.4 3.45 -0.35 3.2 -0.45 2.8 -0.7 2.6 -0.8 2.55 -0.7 2.55 -0.65 2.55 -0.45 2.7 -0.2 3.4 0.25 4.25 0.85 4.05 1.05 3.65 1.4 3.35 2.0 Q3.1 2.75 2.45 3.1 L2.35 3.2 2.2 3.25 1.95 3.4 0.9 4.0 -0.2 4.2 -0.85 3.95 -1.8 3.55 -2.7 2.55 -3.15 1.95 -3.75 0.95 -3.75 0.9 -3.8 0.55 -3.7 0.45 -3.25 0.2 -3.15 0.1 -2.95 -0.05 -2.95 -0.1 -3.1 -0.2 -3.2 -0.25 -3.2 -0.3 Q-3.45 -0.6 -3.75 -0.55 L-5.3 0.0 -5.55 0.15 -6.55 1.2 Q-6.75 1.25 -7.05 1.0 -7.4 0.6 -7.9 0.35 L-7.4 -0.25 Q-7.05 -0.7 -6.85 -1.3 L-6.8 -1.35 -5.9 -1.55 -4.4 -2.65 -4.45 -2.75 -4.2 -2.8 -4.05 -2.8 -3.95 -2.85 -3.65 -3.05 -3.7 -3.05 -3.65 -3.05 -3.45 -3.0 -3.4 -3.0 -2.2 -2.8 -1.7 -2.85 -1.55 -2.9 -1.35 -2.95 -1.15 -3.1 Q-0.9 -3.4 -1.0 -3.75 L-0.95 -3.8 -0.4 -3.75 -0.1 -3.7 0.2 -3.75 1.0 -3.85 1.0 -3.45 1.25 -3.4 1.45 -3.1 1.65 -2.95 3.2 -2.6 3.4 -2.3 3.25 -2.55 3.25 -2.6 3.55 -2.7 3.6 -2.75 3.9 -3.0 4.0 -2.9 M6.7 2.2 L6.65 2.25 6.35 1.9 6.7 2.2 M-6.65 -2.25 L-6.4 -2.35 -6.65 -2.25 M0.95 0.5 L1.5 0.4 2.0 0.2 1.95 -1.3 1.95 -1.9 1.95 -1.8 Q1.65 -1.8 1.45 -2.0 L1.3 -2.1 1.1 -2.3 0.05 -2.45 -0.3 -2.5 -0.3 -2.45 -0.4 -2.45 -0.7 -2.5 -0.85 -2.35 -2.1 -1.75 Q-2.45 -0.75 -1.9 0.15 L-1.75 0.2 -0.55 0.5 -0.55 0.6 -0.6 0.75 -0.55 1.05 Q-0.2 1.75 0.55 1.5 L0.9 1.0 0.95 0.5 M-0.4 2.85 L-0.3 3.3 Q-0.1 3.7 0.45 3.5 L0.8 3.05 0.8 3.0 0.8 2.95 Q0.8 2.5 0.5 2.35 L-0.05 2.0 -0.2 2.0 -0.5 2.4 -0.4 2.85" fill="#67820b" fill-rule="evenodd" stroke="none"/>
    <path d="M-3.45 -5.25 L-3.5 -5.15 -3.45 -5.25 M3.55 -4.15 L3.6 -4.1 3.9 -3.2 4.0 -2.9 3.9 -3.0 3.6 -2.75 3.55 -2.7 3.25 -2.6 3.2 -2.6 1.65 -2.95 1.45 -3.1 1.25 -3.4 1.0 -3.45 1.0 -3.85 0.9 -4.2 0.1 -4.6 -0.1 -4.45 -0.2 -4.4 -0.7 -4.05 -0.95 -3.8 -1.0 -3.75 Q-0.9 -3.4 -1.15 -3.1 L-1.35 -2.95 -1.55 -2.9 -1.7 -2.85 -2.2 -2.8 -3.4 -3.0 -3.45 -3.0 -3.65 -3.05 -3.7 -3.05 -3.65 -3.05 -3.95 -2.85 -4.05 -2.8 -4.2 -2.8 -4.05 -2.85 -3.9 -3.05 -3.9 -3.2 -3.65 -3.75 -3.55 -3.95 -3.55 -3.85 -2.15 -4.85 Q-1.45 -5.0 -1.1 -4.5 L-0.8 -4.4 -0.6 -4.7 0.35 -4.9 0.85 -4.7 1.2 -4.3 1.65 -4.45 1.65 -4.5 1.7 -4.5 1.75 -4.55 1.75 -4.6 1.85 -4.6 2.0 -4.65 Q2.65 -4.7 3.15 -4.35 L3.2 -4.35 3.55 -4.15 M4.5 -2.45 L4.5 -2.4 4.65 -2.3 5.05 -2.15 4.45 -2.35 4.5 -2.45 M7.55 -0.6 L7.6 -0.6 7.65 -0.4 7.55 -0.5 7.55 -0.6 M8.1 0.65 L8.25 0.9 8.1 0.7 8.0 0.75 6.85 1.75 6.9 1.65 6.95 1.45 6.95 1.4 7.05 1.45 8.1 0.65 M4.4 0.35 L2.55 -0.7 2.6 -0.8 2.8 -0.7 3.2 -0.45 3.45 -0.35 4.45 0.4 4.4 0.35 M2.2 3.25 L2.0 3.4 1.95 3.4 2.2 3.25 M-2.95 -0.05 L-2.95 -0.1 -3.1 -0.2 -2.95 -0.1 -2.95 -0.05 M-4.1 0.05 L-4.35 0.15 -4.6 0.3 -4.7 0.4 -4.5 0.15 -4.4 0.15 -4.1 0.05 M-6.45 1.35 L-6.55 1.2 -6.5 1.15 -6.45 1.35 M-3.0 -4.75 L-3.0 -4.8 -2.85 -4.85 -2.8 -4.85 -2.75 -4.9 -2.85 -4.8 -2.9 -4.75 -3.0 -4.75 M0.3 -2.0 Q0.75 -1.8 0.55 -1.25 L0.35 -1.0 Q-0.35 -0.85 -0.55 -1.45 L-0.55 -1.7 0.05 -1.6 0.25 -1.8 0.3 -2.0 M0.4 -0.1 Q0.85 -0.05 0.95 0.45 L0.95 0.5 0.9 1.0 0.55 1.5 Q-0.2 1.75 -0.55 1.05 L-0.6 0.75 -0.55 0.6 -0.35 0.75 Q0.0 0.95 0.3 0.75 L0.5 0.45 0.4 -0.1 M-0.4 2.85 L0.1 2.9 0.4 2.65 0.5 2.35 Q0.8 2.5 0.8 2.95 L0.8 3.0 0.8 3.05 0.45 3.5 Q-0.1 3.7 -0.3 3.3 L-0.4 2.85" fill="#495c0a" fill-rule="evenodd" stroke="none"/>
    <path d="M3.2 -2.6 L3.25 -2.6 3.25 -2.55 3.4 -2.3 3.2 -2.6 M-0.2 -4.4 L-0.1 -4.45 -0.2 -4.4 M-0.4 -2.45 L-0.3 -2.45 -0.4 -2.45" fill="#81a20d" fill-rule="evenodd" stroke="none"/>
    <path d="M1.6 -7.25 L1.35 -7.15 0.85 -7.15 -0.5 -6.9 -1.95 -5.65 -2.4 -6.0 -2.5 -6.0 -2.55 -5.75 -2.55 -6.1 -1.55 -7.05 -0.7 -7.45 0.05 -7.6 1.6 -7.25 M-0.1 -4.45 Q0.45 -4.35 0.2 -3.85 L0.15 -3.75 -0.1 -3.7 -0.4 -3.75 -0.95 -3.8 -0.7 -4.05 -0.2 -4.4 -0.1 -4.45 M0.05 -2.45 L0.3 -2.0 0.25 -1.8 0.05 -1.6 -0.55 -1.7 -0.6 -1.85 Q-0.7 -2.25 -0.4 -2.45 L-0.3 -2.45 -0.3 -2.5 0.05 -2.45 M-0.55 0.5 L-0.6 0.25 -0.3 -0.2 -0.25 -0.25 -0.15 -0.3 0.4 -0.1 0.5 0.45 0.3 0.75 Q0.0 0.95 -0.35 0.75 L-0.55 0.6 -0.55 0.5 M0.5 2.35 L0.4 2.65 0.1 2.9 -0.4 2.85 -0.5 2.4 -0.2 2.0 -0.05 2.0 0.5 2.35" fill="#99ff00" fill-rule="evenodd" stroke="none"/>
    <path d="M-1.95 -5.65 L-0.5 -6.9 0.85 -7.15 1.35 -7.15 1.6 -7.25 2.55 -6.35 2.65 -6.25 2.6 -6.3 1.55 -5.05 Q1.45 -4.95 1.35 -4.95 L-1.15 -5.15 -1.85 -5.6 -1.95 -5.65 M5.4 -1.95 L6.0 -1.75 7.4 -1.15 7.5 -0.85 7.55 -0.7 7.55 -0.6 7.55 -0.5 7.65 -0.4 7.7 -0.35 7.2 -0.4 6.85 -0.65 6.65 -0.7 5.6 -1.2 4.2 -2.05 5.4 -1.95 M6.85 1.75 L6.8 1.75 6.75 1.8 6.75 1.85 6.8 1.85 6.75 1.9 6.7 2.2 6.35 1.9 Q5.85 1.35 5.15 1.05 L5.1 1.0 4.75 0.65 4.4 0.35 4.45 0.4 3.45 -0.35 3.5 -0.4 5.05 0.2 5.45 0.4 Q6.35 0.75 6.95 1.45 L6.9 1.65 6.85 1.75 M-3.2 -0.25 L-3.2 -0.3 -3.25 -0.3 -3.3 -0.25 -3.6 -0.15 -3.9 0.0 -3.95 0.05 -4.1 0.05 -4.4 0.15 -4.5 0.15 -4.7 0.4 -6.3 2.05 -6.45 1.35 -6.5 1.15 -6.55 1.2 -5.55 0.15 -5.3 0.0 -3.75 -0.55 Q-3.45 -0.6 -3.2 -0.3 L-3.2 -0.25 M-6.8 -1.35 L-6.65 -2.25 -6.4 -2.35 -6.2 -2.35 -5.4 -2.5 -4.45 -2.75 -4.4 -2.65 -5.9 -1.55 -6.8 -1.35 M1.0 -3.85 L0.2 -3.75 -0.1 -3.7 0.15 -3.75 0.2 -3.85 Q0.45 -4.35 -0.1 -4.45 L0.1 -4.6 0.9 -4.2 1.0 -3.85 M0.05 -2.45 L1.1 -2.3 1.3 -2.1 1.45 -2.0 Q1.65 -1.8 1.95 -1.8 L1.95 -1.9 1.95 -1.3 2.0 0.2 1.5 0.4 0.95 0.5 0.95 0.45 Q0.85 -0.05 0.4 -0.1 L-0.15 -0.3 -0.25 -0.25 -0.3 -0.2 -0.6 0.25 -0.55 0.5 -1.75 0.2 -1.9 0.15 Q-2.45 -0.75 -2.1 -1.75 L-0.85 -2.35 -0.7 -2.5 -0.4 -2.45 Q-0.7 -2.25 -0.6 -1.85 L-0.55 -1.7 -0.55 -1.45 Q-0.35 -0.85 0.35 -1.0 L0.55 -1.25 Q0.75 -1.8 0.3 -2.0 L0.05 -2.45" fill="#91b70f" fill-rule="evenodd" stroke="none"/>
  </g>
</svg>
