<?xml version="1.0" encoding="UTF-8" standalone="no"?>
<svg xmlns:xlink="http://www.w3.org/1999/xlink" height="32.35px" width="32.35px" xmlns="http://www.w3.org/2000/svg">
  <g transform="matrix(1.0, 0.0, 0.0, 1.0, -13.95, -13.95)">
    <path d="M40.5 40.5 Q36.2 44.8 30.15 44.8 24.05 44.8 19.75 40.5 15.45 36.15 15.45 30.1 15.45 24.05 19.75 19.75 24.05 15.4 30.15 15.45 36.2 15.4 40.5 19.75 44.8 24.05 44.8 30.1 44.8 36.15 40.5 40.5 Z" fill="none" stroke="#cc0000" stroke-linecap="round" stroke-linejoin="round" stroke-width="3.0"/>
    <path d="M40.5 40.5 Q36.2 44.8 30.15 44.8 24.05 44.8 19.75 40.5 15.45 36.15 15.45 30.1 15.45 24.05 19.75 19.75 24.05 15.4 30.15 15.45 36.2 15.4 40.5 19.75 44.8 24.05 44.8 30.1 44.8 36.15 40.5 40.5 Z" fill="none" stroke="#000000" stroke-linecap="round" stroke-linejoin="round" stroke-width="2.0"/>
    <path d="M39.9 19.15 L40.5 19.75 Q42.05 21.25 43.05 23.0 M41.45 39.55 L40.5 40.5 Q39.05 42.0 37.35 42.95 M44.05 25.35 Q44.8 27.55 44.85 30.15 M44.65 32.75 Q44.2 35.3 42.9 37.55 M25.55 16.15 Q27.7 15.5 30.15 15.5 L30.95 15.5 M33.25 15.8 Q35.75 16.25 37.9 17.65 M19.35 20.2 L19.75 19.75 Q21.4 18.05 23.4 17.05 M19.75 40.5 Q17.9 38.65 16.85 36.5 M16.0 34.15 Q15.5 32.25 15.5 30.15 L15.5 29.3 M35.25 43.95 Q32.85 44.8 30.15 44.85 L28.8 44.8 M26.5 44.4 Q23.85 43.75 21.65 42.15 M15.85 26.85 Q16.35 24.3 17.8 22.15" fill="none" stroke="#ff0000" stroke-linecap="round" stroke-linejoin="round" stroke-width="1.0"/>
  </g>
</svg>
