<?xml version="1.0" encoding="UTF-8" standalone="no"?>
<svg xmlns:xlink="http://www.w3.org/1999/xlink" height="55.05px" width="39.85px" xmlns="http://www.w3.org/2000/svg">
  <g transform="matrix(1.0, 0.0, 0.0, 1.0, 7.2, 8.45)">
    <path d="M-3.95 -6.35 L-5.2 -4.75 -5.25 -4.6 -6.15 -2.25 -6.35 -1.2 Q-6.75 4.3 -5.5 9.35 L-4.1 14.45 -3.7 17.85 -3.2 17.75 -2.65 19.7 -3.0 20.35 -2.4 22.85 -2.0 22.15 -0.95 24.9 -0.65 25.45 Q0.5 27.7 1.0 30.25 L1.05 30.35 1.55 31.5 1.5 31.5 1.55 31.8 1.55 32.0 Q1.55 32.95 2.25 33.5 L2.3 33.4 2.65 34.05 3.95 35.8 4.1 36.0 4.3 36.25 4.4 36.35 4.7 36.65 5.2 38.2 6.2 38.25 6.6 38.7 6.65 38.7 7.05 39.05 7.15 39.15 7.45 39.35 7.55 39.45 7.8 41.1 4.9 38.25 1.05 33.25 Q0.85 28.9 -1.85 25.7 -3.3 21.95 -3.75 18.05 -4.25 14.05 -5.9 10.45 -7.8 4.75 -6.95 -1.35 -6.55 -3.55 -5.35 -5.6 -4.15 -7.7 -1.75 -8.3 2.75 -9.05 5.5 -5.5 8.1 -0.9 6.5 4.35 5.9 6.2 6.4 8.05 6.85 9.95 7.65 11.6 8.0 14.35 8.7 17.05 9.35 19.7 9.05 22.5 L8.85 24.7 Q8.65 25.9 9.35 26.85 12.4 28.6 14.1 31.45 L14.6 32.25 14.0 32.15 13.9 31.7 13.0 31.55 12.85 31.2 12.75 31.05 11.95 30.4 12.0 30.5 10.15 28.95 Q9.2 28.4 8.7 27.55 7.9 25.0 8.15 22.3 8.35 20.25 7.85 18.1 L7.45 16.1 6.15 11.05 5.65 8.65 Q5.5 7.1 5.8 5.65 6.35 2.7 6.1 -0.25 L5.5 -3.05 Q5.0 -4.55 4.0 -5.75 2.25 -7.8 -0.4 -7.65 -2.25 -7.4 -3.95 -6.35 M15.0 32.95 L17.7 37.0 18.85 37.6 Q19.45 37.95 19.8 37.25 20.95 35.4 22.7 34.2 L25.85 33.65 28.9 33.45 Q29.95 34.4 29.65 35.75 L31.75 36.55 Q32.9 36.85 32.55 38.45 31.55 41.0 31.2 43.75 L29.5 44.35 Q28.6 44.55 28.3 45.6 27.0 46.3 25.65 45.9 24.55 45.55 23.45 46.2 L21.25 46.3 Q18.55 44.75 15.45 44.35 12.3 43.95 9.55 42.3 L8.35 41.5 8.8 41.25 9.0 40.65 9.05 40.65 9.1 40.7 9.25 40.8 Q10.35 41.6 11.3 41.9 L11.65 42.35 Q12.05 42.9 12.55 42.45 L13.85 42.8 14.1 43.0 14.65 43.2 14.7 43.2 14.85 43.2 15.25 43.4 15.75 43.45 16.4 43.55 16.6 43.55 Q19.6 44.5 22.5 45.8 L24.75 44.75 25.7 44.8 Q25.9 45.65 26.7 45.4 27.6 45.35 27.8 44.5 27.95 43.6 28.6 43.1 29.0 43.4 28.8 43.85 L30.05 43.1 30.15 42.5 Q30.5 40.5 31.3 38.7 L31.4 38.55 31.55 38.1 31.7 37.8 Q31.65 37.1 31.1 36.9 30.55 36.4 29.6 36.4 L29.55 36.35 28.95 35.55 28.95 35.45 Q28.95 34.05 27.95 34.15 L26.05 34.25 Q25.25 34.75 24.25 35.25 23.3 35.65 23.55 36.75 L23.9 36.7 23.4 37.3 23.35 37.35 Q22.75 37.45 22.3 37.9 L22.3 37.75 21.65 37.95 20.5 39.0 19.4 38.8 19.5 38.7 18.6 38.4 18.45 38.3 18.05 37.7 17.1 37.45 15.75 35.7 16.05 35.7 16.2 35.7 16.1 35.65 15.3 35.05 14.7 34.05 14.25 33.25 14.05 33.15 14.2 33.2 14.15 33.1 15.0 32.95 M20.05 38.25 L22.5 36.95 Q21.85 35.95 22.8 35.5 L24.05 34.6 Q22.85 34.45 22.15 35.35 21.45 36.2 21.05 37.15 L20.25 37.85 19.8 38.4 20.05 38.25" fill="#000000" fill-rule="evenodd" stroke="none"/>
    <path d="M8.35 27.85 L7.45 27.45 6.6 27.35 4.7 26.6 4.3 26.8 3.65 26.45 Q3.85 23.15 6.85 21.9 7.35 20.55 7.15 19.2 6.55 15.3 5.05 11.85 L2.45 10.8 2.2 10.85 0.15 11.65 Q0.4 10.75 1.25 10.1 L1.95 9.7 Q3.3 7.35 4.25 4.85 L4.9 2.65 Q5.75 -0.9 4.3 -4.05 L2.95 -6.0 Q1.45 -7.45 -0.6 -7.15 -2.35 -7.1 -3.95 -6.35 -2.25 -7.4 -0.4 -7.65 2.25 -7.8 4.0 -5.75 5.0 -4.55 5.5 -3.05 L6.1 -0.25 Q6.35 2.7 5.8 5.65 5.5 7.1 5.65 8.65 L6.15 11.05 7.45 16.1 7.85 18.1 Q8.35 20.25 8.15 22.3 7.9 25.0 8.7 27.55 L8.35 27.85 M1.55 31.5 Q2.3 31.7 2.8 32.45 L3.0 32.75 4.15 34.15 4.25 34.25 4.7 36.55 4.35 36.2 4.3 36.25 4.1 36.0 3.95 35.8 4.0 35.75 2.65 34.05 2.3 33.4 2.25 33.5 Q1.55 32.95 1.55 32.0 L1.55 31.8 1.5 31.5 1.55 31.5 M7.55 39.45 L7.45 39.35 7.15 39.15 7.05 39.05 6.65 38.7 6.6 38.7 6.2 38.25 6.0 36.2 7.0 37.1 7.45 37.45 7.55 39.45 M19.4 38.8 L20.5 39.0 19.4 39.7 Q19.15 40.55 19.6 41.15 20.05 40.5 20.75 40.55 21.3 41.2 20.85 41.85 L20.45 42.55 20.4 42.7 20.3 42.9 20.25 43.0 20.25 43.05 20.2 43.05 19.95 42.0 19.9 41.6 19.15 41.85 Q18.6 41.3 18.75 40.45 L18.75 40.4 18.45 40.4 Q18.15 39.8 18.65 39.45 L19.4 38.8 M22.3 37.9 Q22.75 37.45 23.35 37.35 L23.4 37.3 23.9 36.7 23.55 36.75 Q23.3 35.65 24.25 35.25 25.25 34.75 26.05 34.25 L27.95 34.15 Q28.95 34.05 28.95 35.45 L28.95 35.55 29.55 36.35 29.6 36.4 Q30.55 36.4 31.1 36.9 L28.9 40.65 29.75 37.2 Q29.5 36.1 28.1 36.4 26.65 36.8 26.5 38.25 L26.0 40.9 Q25.8 41.35 25.95 41.65 L25.8 42.3 25.5 41.95 25.65 36.9 24.65 37.05 24.25 37.15 23.9 37.3 23.7 37.35 23.6 37.35 23.45 37.4 23.4 37.45 23.55 38.85 Q23.5 39.85 22.8 40.2 L22.7 39.85 22.3 37.9 M30.15 42.5 L30.05 43.1 28.8 43.85 Q29.0 43.4 28.6 43.1 27.95 43.6 27.8 44.5 27.6 45.35 26.7 45.4 25.9 45.65 25.7 44.8 L24.75 44.75 22.5 45.8 Q19.6 44.5 16.6 43.55 L16.45 43.5 16.4 43.55 15.75 43.45 15.8 43.2 Q15.85 42.5 15.25 41.95 L17.1 42.4 17.25 42.5 18.9 42.9 19.45 43.25 Q20.0 43.95 20.8 44.25 L21.9 44.5 22.6 44.5 23.05 44.55 25.65 43.35 25.9 43.2 26.75 43.0 26.8 42.9 Q27.2 42.15 28.15 42.25 L30.05 42.45 30.15 42.5 M14.85 43.2 L14.7 43.2 14.75 43.15 14.85 43.2 M14.1 43.0 L13.85 42.8 12.55 42.45 12.75 42.05 12.65 41.35 13.05 41.55 13.45 41.6 13.8 41.7 14.1 43.0 M11.3 41.9 Q10.35 41.6 9.25 40.8 L9.05 40.65 9.0 40.65 9.1 38.8 9.6 39.2 10.3 39.7 10.95 40.15 11.3 41.9 M7.4 38.5 L7.3 38.55 7.4 38.55 7.4 38.5" fill="#946129" fill-rule="evenodd" stroke="none"/>
    <path d="M-3.95 -6.35 Q-2.35 -7.1 -0.6 -7.15 1.45 -7.45 2.95 -6.0 L4.3 -4.05 Q5.75 -0.9 4.9 2.65 L4.25 4.85 Q3.3 7.35 1.95 9.7 L1.25 10.1 Q0.4 10.75 0.15 11.65 L2.2 10.85 2.45 10.8 5.05 11.85 Q6.55 15.3 7.15 19.2 7.35 20.55 6.85 21.9 3.85 23.15 3.65 26.45 L4.3 26.8 4.7 26.6 6.6 27.35 7.45 27.45 8.35 27.85 8.3 27.9 7.75 28.25 Q6.45 28.9 5.2 28.8 L4.7 29.5 4.4 30.7 4.6 31.25 4.55 31.25 4.9 31.8 4.25 34.25 4.15 34.15 3.0 32.75 2.8 32.45 Q2.3 31.7 1.55 31.5 L1.05 30.35 1.0 30.25 Q0.5 27.7 -0.65 25.45 L-0.95 24.9 2.15 24.6 Q2.1 20.85 1.1 17.2 L0.95 16.65 2.0 17.55 2.2 17.6 2.25 17.65 2.25 17.55 Q1.3 13.7 -1.95 13.25 -2.7 13.2 -3.4 13.7 L-4.1 14.45 -5.5 9.35 Q-6.75 4.3 -6.35 -1.2 L-6.15 -2.25 -5.25 -4.6 -5.2 -4.75 -3.95 -6.35 M-2.45 -3.65 L-3.65 -3.5 Q-3.2 -2.8 -3.25 -1.75 L-3.3 -0.8 -3.55 6.6 Q-3.6 8.3 -3.9 9.95 L-1.55 10.4 -1.1 9.5 -1.05 9.45 -0.9 9.05 -0.5 8.4 -0.1 7.4 0.7 5.3 Q1.05 3.95 0.75 2.6 L-0.25 -0.85 -0.8 -1.6 -1.5 -2.6 -1.75 -3.05 -2.15 -3.4 -2.35 -3.55 -2.45 -3.65 M2.55 12.85 L2.4 13.1 Q1.8 15.7 3.5 17.95 L3.65 18.05 4.15 18.05 4.3 17.9 4.35 17.8 4.4 17.7 4.4 17.45 4.4 17.3 Q4.8 16.8 4.65 16.2 L4.35 14.9 Q4.15 13.4 2.95 12.75 L2.55 12.85 M20.25 37.85 L21.05 37.15 Q21.45 36.2 22.15 35.35 22.85 34.45 24.05 34.6 L22.8 35.5 Q21.85 35.95 22.5 36.95 L20.05 38.25 20.0 38.15 20.25 37.85 M7.6 35.65 L7.45 37.45 7.0 37.1 6.0 36.2 5.8 33.5 5.8 33.45 6.65 34.5 6.75 34.6 6.65 34.65 7.1 35.15 7.1 35.1 7.35 35.4 7.6 35.65 M8.9 36.7 L9.3 36.95 9.25 37.15 10.25 37.65 10.3 37.6 10.65 37.85 10.95 40.15 10.3 39.7 9.6 39.2 9.1 38.8 8.9 36.7 M18.6 38.4 L19.5 38.7 19.4 38.8 18.65 39.45 Q18.15 39.8 18.45 40.4 L18.75 40.4 18.75 40.45 Q18.6 41.3 19.15 41.85 L19.9 41.6 19.95 42.0 20.2 43.05 20.2 43.1 20.25 43.05 20.25 43.0 20.3 42.9 20.8 43.15 22.2 43.1 22.55 42.45 22.55 42.35 22.7 39.85 22.8 40.2 Q23.5 39.85 23.55 38.85 L23.4 37.45 23.45 37.4 23.6 37.35 23.7 37.35 23.9 37.3 24.25 37.15 24.65 37.05 25.65 36.9 25.5 41.95 25.8 42.3 25.95 41.65 Q25.8 41.35 26.0 40.9 L26.5 38.25 Q26.65 36.8 28.1 36.4 29.5 36.1 29.75 37.2 L28.9 40.65 31.1 36.9 Q31.65 37.1 31.7 37.8 L31.55 38.1 31.3 38.7 Q30.5 40.5 30.15 42.5 L30.05 42.45 28.15 42.25 Q27.2 42.15 26.8 42.9 L26.75 43.0 25.9 43.2 25.65 43.35 23.05 44.55 22.6 44.5 21.9 44.5 20.8 44.25 Q20.0 43.95 19.45 43.25 L18.9 42.9 17.25 42.5 17.1 42.4 15.25 41.95 15.0 40.45 15.2 40.05 16.75 40.55 Q16.8 40.0 17.3 39.5 L18.2 38.7 18.6 38.4 M13.8 41.7 L13.45 41.6 13.05 41.55 12.65 41.35 12.4 38.85 13.55 39.55 13.8 41.7 M20.4 42.7 L20.45 42.55 20.5 42.55 20.4 42.65 20.4 42.7 M22.4 44.4 L22.35 44.4 22.4 44.45 22.4 44.4" fill="#d7ae7e" fill-rule="evenodd" stroke="none"/>
    <path d="M0.95 16.65 L1.1 17.2 Q2.1 20.85 2.15 24.6 L-0.95 24.9 -2.0 22.15 -1.3 21.2 0.35 21.25 1.05 22.3 1.55 22.9 1.75 22.95 Q2.1 22.2 1.85 21.15 1.35 19.4 0.0 18.05 L-0.95 18.0 -2.65 19.7 -3.2 17.75 -1.65 16.05 -1.0 15.6 Q0.1 15.55 0.95 16.65 M4.9 31.8 L4.55 31.25 4.6 31.25 4.4 30.7 4.7 29.5 5.2 28.8 Q6.45 28.9 7.75 28.25 L8.3 27.9 8.35 27.85 8.7 27.55 Q9.2 28.4 10.15 28.95 L12.0 30.5 11.95 30.4 12.75 31.05 12.85 31.2 13.0 31.55 Q10.75 31.55 9.2 32.75 7.6 33.95 7.6 35.65 L7.35 35.4 7.1 35.1 7.1 35.15 6.65 34.65 6.75 34.6 6.65 34.5 5.8 33.45 5.8 33.5 6.1 32.65 Q7.0 30.6 9.45 30.25 L9.7 29.85 8.65 30.0 Q6.7 30.35 4.9 31.8 M-2.45 -3.65 L-2.35 -3.55 -2.15 -3.4 -1.75 -3.05 -1.5 -2.6 -0.8 -1.6 -0.25 -0.85 0.75 2.6 Q1.05 3.95 0.7 5.3 L-0.1 7.4 -0.5 8.4 -0.9 9.05 -1.05 9.45 -1.1 9.5 -1.55 10.4 -3.9 9.95 Q-3.6 8.3 -3.55 6.6 L-3.3 -0.8 -3.25 -1.75 Q-3.2 -2.8 -3.65 -3.5 L-2.45 -3.65 M2.55 12.85 L2.95 12.75 Q4.15 13.4 4.35 14.9 L4.65 16.2 Q4.8 16.8 4.4 17.3 L4.4 17.45 4.4 17.7 4.35 17.8 4.3 17.9 4.15 18.05 3.65 18.05 3.5 17.95 Q1.8 15.7 2.4 13.1 L2.55 12.85 M20.05 38.25 L19.8 38.4 20.25 37.85 20.0 38.15 20.05 38.25 M14.15 33.1 L14.2 33.2 14.05 33.15 14.25 33.25 14.7 34.05 15.3 35.05 14.5 35.05 Q11.65 35.3 10.65 37.85 L10.3 37.6 10.25 37.65 9.25 37.15 9.3 36.95 8.9 36.7 9.25 34.55 Q9.45 34.35 9.75 34.25 11.8 33.05 14.15 33.1 M15.75 35.7 L17.1 37.45 16.25 37.55 Q14.45 38.0 13.55 39.55 L12.4 38.85 12.7 37.95 Q13.55 35.85 15.75 35.7 M18.45 38.3 L18.6 38.4 18.2 38.7 17.3 39.5 Q16.8 40.0 16.75 40.55 L15.2 40.05 15.25 39.45 15.75 38.85 18.45 38.3 M20.5 39.0 L21.65 37.95 22.3 37.75 22.3 37.9 22.7 39.85 22.55 42.35 22.55 42.45 22.2 43.1 20.8 43.15 20.3 42.9 20.4 42.7 20.4 42.65 20.5 42.55 20.45 42.55 20.85 41.85 Q21.3 41.2 20.75 40.55 20.05 40.5 19.6 41.15 19.15 40.55 19.4 39.7 L20.5 39.0 M18.75 40.45 L18.75 40.4 18.75 40.45 M22.4 44.4 L22.4 44.45 22.35 44.4 22.4 44.4" fill="#e3c29d" fill-rule="evenodd" stroke="none"/>
    <path d="M-4.1 14.45 L-3.4 13.7 Q-2.7 13.2 -1.95 13.25 1.3 13.7 2.25 17.55 L2.2 17.6 2.0 17.55 0.95 16.65 Q0.1 15.55 -1.0 15.6 L-1.65 16.05 -3.2 17.75 -3.7 17.85 -4.1 14.45 M4.25 34.25 L4.9 31.8 Q6.7 30.35 8.65 30.0 L9.7 29.85 9.45 30.25 Q7.0 30.6 6.1 32.65 L5.8 33.5 6.0 36.2 6.2 38.25 5.2 38.2 4.7 36.65 4.7 36.55 4.25 34.25 M14.6 32.25 L15.0 32.95 14.15 33.1 Q11.8 33.05 9.75 34.25 9.45 34.35 9.25 34.55 L8.9 36.7 9.1 38.8 9.0 40.65 8.8 41.25 8.35 41.5 7.8 41.1 7.55 39.45 7.45 37.45 7.6 35.65 Q7.6 33.95 9.2 32.75 10.75 31.55 13.0 31.55 L13.9 31.7 14.0 32.15 14.6 32.25 M-2.65 19.7 L-0.95 18.0 0.0 18.05 Q1.35 19.4 1.85 21.15 2.1 22.2 1.75 22.95 L1.55 22.9 1.05 22.3 0.35 21.25 -1.3 21.2 -2.0 22.15 -2.4 22.85 -3.0 20.35 -2.65 19.7 M10.65 37.85 Q11.65 35.3 14.5 35.05 L15.3 35.05 16.1 35.65 16.05 35.7 15.75 35.7 Q13.55 35.85 12.7 37.95 L12.4 38.85 12.65 41.35 12.75 42.05 12.55 42.45 Q12.05 42.9 11.65 42.35 L11.3 41.9 10.95 40.15 10.65 37.85 M17.1 37.45 L18.05 37.7 18.45 38.3 15.75 38.85 15.25 39.45 15.2 40.05 15.0 40.45 15.25 41.95 Q15.85 42.5 15.8 43.2 L15.75 43.45 15.25 43.4 14.85 43.2 14.75 43.15 14.7 43.2 14.65 43.2 14.1 43.0 13.8 41.7 13.55 39.55 Q14.45 38.0 16.25 37.55 L17.1 37.45" fill="#660045" fill-rule="evenodd" stroke="none"/>
    <path d="M2.25 17.55 L2.25 17.65 2.2 17.6 2.25 17.55 M16.1 35.65 L16.2 35.7 16.05 35.7 16.1 35.65" fill="#5a361f" fill-rule="evenodd" stroke="none"/>
    <path d="M31.55 38.1 L31.4 38.55 31.3 38.7 31.55 38.1 M20.25 43.05 L20.2 43.1 20.2 43.05 20.25 43.05" fill="#b57b35" fill-rule="evenodd" stroke="none"/>
  </g>
</svg>
