<?xml version="1.0" encoding="UTF-8" standalone="no"?>
<svg xmlns:xlink="http://www.w3.org/1999/xlink" height="142.6px" width="91.2px" xmlns="http://www.w3.org/2000/svg">
  <g transform="matrix(1.0, 0.0, 0.0, 1.0, 45.6, 71.3)">
    <path d="M14.95 -68.25 L14.9 -68.35 14.4 -68.95 14.2 -69.2 Q13.5 -69.8 12.5 -69.95 L11.7 -70.15 11.65 -70.15 11.4 -70.25 11.25 -70.2 11.2 -70.15 7.95 -70.4 4.7 -70.55 3.4 -70.2 3.25 -70.25 1.8 -69.55 1.65 -69.5 1.6 -69.45 1.2 -69.2 Q-0.45 -68.2 -1.65 -66.6 L-2.1 -66.05 -2.15 -65.95 -2.1 -66.0 -3.5 -64.15 -3.2 -63.65 -3.45 -64.05 -3.5 -63.95 -3.4 -62.65 -2.1 -61.1 -2.1 -61.25 -2.15 -61.95 -2.2 -62.3 -2.2 -62.65 -2.15 -63.6 -1.9 -64.3 -1.4 -64.35 Q-1.05 -64.45 -0.7 -64.7 L-0.45 -65.15 -0.6 -64.8 -0.55 -64.85 0.35 -65.2 0.7 -65.85 0.3 -65.1 2.75 -65.9 2.8 -65.95 3.75 -66.05 3.8 -66.1 3.85 -66.15 3.65 -66.15 5.35 -66.05 5.55 -66.2 5.95 -66.55 5.6 -66.25 6.35 -66.2 6.75 -66.5 6.3 -66.15 7.9 -65.9 8.4 -65.75 9.8 -65.55 10.2 -65.7 9.75 -65.55 10.15 -65.35 10.7 -65.2 Q11.75 -64.5 12.9 -64.2 L12.3 -64.35 13.15 -64.1 13.7 -63.45 13.75 -63.35 15.55 -60.35 15.7 -60.3 15.75 -60.1 15.9 -59.85 16.15 -59.5 15.85 -59.65 Q16.7 -58.1 16.65 -56.25 L16.35 -53.9 16.3 -53.65 16.15 -53.1 16.6 -53.6 Q17.55 -54.15 18.55 -53.6 18.85 -52.2 18.75 -50.8 18.55 -48.5 17.2 -46.35 L17.05 -46.55 17.1 -46.35 17.1 -46.3 16.35 -46.55 16.15 -46.4 16.05 -46.2 15.95 -46.35 Q15.2 -46.05 15.3 -45.35 L15.35 -43.9 Q14.65 -40.95 15.3 -37.65 L16.3 -31.3 Q16.8 -32.3 17.7 -32.55 18.45 -31.0 20.05 -30.0 L20.3 -29.9 20.3 -30.05 20.3 -30.1 Q20.75 -30.15 20.95 -30.55 L21.0 -30.65 21.0 -30.6 21.05 -30.6 Q23.25 -30.65 25.1 -29.1 L25.05 -29.45 25.2 -29.65 25.7 -30.95 25.75 -33.15 Q26.7 -40.25 25.1 -47.3 L19.75 -57.65 19.05 -58.85 19.0 -59.0 18.85 -59.25 16.95 -63.2 16.95 -63.35 16.8 -63.5 15.3 -67.3 15.25 -67.35 15.25 -67.4 14.95 -68.25 M10.7 -62.05 L11.4 -61.95 11.65 -61.9 Q13.4 -61.5 14.3 -60.0 L16.05 -56.9 Q15.45 -59.8 13.65 -62.85 L12.2 -63.95 11.2 -64.5 Q9.55 -65.25 7.55 -65.3 3.95 -65.45 0.85 -64.35 0.15 -63.85 -0.75 -63.5 L-0.95 -63.45 Q-2.0 -63.1 -1.5 -61.65 L-0.55 -61.9 Q4.8 -63.05 10.7 -62.05 M-8.9 57.4 L-9.3 57.1 -10.0 56.45 -9.85 55.35 Q-10.45 55.25 -10.8 54.85 -10.45 53.5 -11.0 52.35 L-11.85 49.8 Q-11.85 46.85 -10.95 44.25 L-8.95 39.0 -9.9 34.1 Q-10.55 31.55 -9.05 29.35 -9.25 27.05 -10.5 25.05 -11.8 23.0 -11.3 20.55 L-10.1 16.0 -12.95 9.95 -14.7 5.6 Q-14.8 4.2 -15.2 2.95 -15.6 1.7 -16.35 0.6 -17.9 -1.65 -19.6 -3.7 -23.6 -7.75 -28.35 -10.75 L-25.55 -13.85 Q-36.05 -14.9 -45.6 -19.55 L-45.6 -19.75 Q-37.65 -19.35 -29.55 -20.9 -21.5 -22.45 -13.7 -25.15 L-13.7 -25.2 -11.3 -26.35 -10.9 -26.55 -8.65 -27.6 -8.25 -27.8 -7.85 -28.0 -6.5 -28.6 Q-6.15 -28.75 -6.1 -29.05 L-5.65 -29.45 Q-6.35 -33.25 -5.65 -37.2 -5.0 -41.2 -3.35 -44.65 L-2.0 -46.5 -3.05 -49.0 Q-3.55 -50.4 -2.8 -51.7 L-2.9 -52.25 -3.0 -52.8 -3.15 -53.15 -3.1 -53.15 -3.2 -53.5 Q-2.95 -53.9 -3.0 -54.35 L-3.0 -55.35 -2.5 -59.45 Q-3.1 -60.05 -3.35 -60.9 L-3.95 -62.75 -4.0 -63.55 -4.05 -63.6 -4.0 -64.1 -3.8 -65.25 Q-2.35 -67.45 -0.2 -69.35 1.9 -71.25 4.65 -71.15 7.3 -71.4 9.5 -71.15 L14.05 -70.2 Q15.55 -69.1 16.35 -67.35 L17.9 -63.9 24.2 -51.2 Q27.3 -44.8 27.1 -37.4 26.95 -33.1 25.9 -28.95 28.8 -28.3 31.1 -26.15 32.65 -25.6 33.5 -24.45 L34.0 -24.15 34.75 -23.65 35.8 -22.95 36.3 -22.55 36.35 -22.45 37.15 -21.9 38.6 -20.8 40.0 -19.7 41.95 -18.1 42.8 -17.3 43.0 -17.1 44.65 -15.4 44.9 -15.15 45.2 -14.65 45.45 -14.25 45.45 -14.2 45.6 -14.0 45.6 -13.85 45.6 -13.15 45.4 -12.85 45.3 -12.6 45.3 -12.55 44.9 -11.75 43.05 -10.0 Q41.45 -8.4 39.5 -7.35 37.45 -6.25 35.7 -4.85 L33.5 -3.65 Q32.6 -3.35 32.25 -2.5 31.6 -1.6 31.1 -0.55 L31.3 -0.05 Q31.35 1.45 31.0 2.9 L30.9 3.75 30.9 3.85 30.0 6.7 28.95 9.45 28.85 9.7 28.6 10.4 28.1 11.85 28.1 11.95 27.65 14.5 27.6 15.15 27.3 16.6 27.0 18.2 26.95 18.4 26.55 20.35 26.4 21.15 26.3 22.05 26.2 23.3 26.15 23.9 25.8 25.75 26.05 26.1 25.95 26.3 Q26.4 27.85 25.7 29.45 26.6 31.5 25.25 33.45 26.15 34.05 26.3 35.2 L26.6 37.35 Q27.05 38.3 26.85 39.15 L26.4 40.85 Q28.05 45.25 30.4 49.4 29.85 52.1 28.65 54.55 28.2 55.15 28.65 56.0 L28.85 56.45 28.65 57.05 28.45 57.7 28.2 57.1 27.65 56.0 27.6 56.0 26.9 54.85 Q24.35 55.45 22.6 57.9 L22.6 57.95 22.55 57.95 20.0 58.6 15.55 58.95 Q13.4 59.0 11.4 57.95 10.15 57.6 9.5 58.2 5.15 57.1 0.35 57.25 L-3.7 57.65 Q-5.9 57.95 -7.65 56.75 L-8.7 56.0 -8.9 57.4 M8.85 70.5 Q7.15 67.85 4.8 65.65 L3.95 64.85 1.35 62.45 1.35 62.4 -0.75 60.75 -0.75 60.25 Q0.7 60.75 1.75 62.25 2.8 63.7 4.5 63.85 6.1 65.15 7.4 66.8 L8.5 68.8 8.85 70.5 M12.25 -52.7 L12.3 -52.55 12.15 -52.1 11.95 -52.3 11.4 -53.0 10.3 -52.6 Q8.4 -51.95 6.6 -51.1 L6.7 -51.3 6.75 -51.4 6.7 -51.4 6.85 -51.7 Q7.95 -52.3 9.15 -53.05 9.7 -53.4 10.35 -53.55 L11.7 -53.6 12.05 -53.3 12.1 -53.25 12.25 -52.7 M9.35 -34.65 L10.0 -35.7 10.85 -37.05 11.55 -38.3 12.3 -39.65 12.95 -40.75 13.0 -40.8 11.8 -37.2 11.75 -37.05 11.15 -36.15 10.55 -35.25 9.3 -33.85 7.45 -33.9 7.35 -33.9 5.75 -33.7 5.3 -33.75 4.7 -33.85 Q3.8 -34.15 3.55 -34.9 3.25 -35.65 2.75 -36.2 2.6 -34.8 2.6 -33.4 L2.4 -32.4 Q2.1 -31.65 1.4 -31.05 L5.05 -26.05 Q6.75 -23.85 9.0 -22.15 L9.5 -21.75 10.4 -22.6 11.1 -23.5 11.8 -24.45 12.85 -25.9 13.35 -26.7 14.0 -27.65 14.95 -29.1 15.85 -30.5 15.6 -31.85 15.4 -32.65 15.25 -33.45 14.95 -35.05 14.65 -36.65 14.5 -37.45 14.4 -38.3 14.25 -38.9 Q13.85 -40.25 14.1 -41.6 L14.1 -41.65 14.25 -43.1 14.25 -44.15 14.3 -44.8 Q14.45 -45.65 15.0 -46.3 L16.05 -47.25 Q16.3 -47.15 16.5 -47.35 L16.95 -47.3 Q17.95 -49.95 18.1 -53.1 16.95 -53.55 16.55 -52.75 16.15 -51.9 15.4 -51.7 L15.15 -52.2 15.35 -53.95 15.25 -56.0 14.95 -57.0 14.5 -57.9 13.85 -58.9 13.35 -59.7 13.1 -60.15 12.0 -60.5 10.65 -60.8 9.9 -60.95 9.2 -61.0 8.45 -61.15 6.85 -61.2 3.8 -61.4 2.35 -61.35 1.0 -61.3 -1.25 -60.85 -1.6 -60.65 -2.0 -60.0 -2.15 -59.3 -2.1 -59.1 -2.1 -58.95 -2.1 -59.0 Q-1.85 -58.35 -2.05 -57.6 L-2.15 -57.2 -2.35 -54.3 -2.35 -54.25 -2.25 -53.45 -1.45 -53.4 Q-0.8 -53.25 -0.2 -52.9 L1.45 -51.9 2.1 -51.55 2.3 -51.05 2.3 -50.95 1.1 -51.5 0.7 -51.65 -0.4 -52.1 -1.4 -52.45 -1.9 -52.65 -2.2 -52.75 -2.2 -52.7 -2.2 -52.6 -2.2 -52.5 -2.2 -52.4 -2.3 -51.45 -2.3 -51.2 -2.35 -51.15 -2.55 -49.9 -2.25 -48.9 -2.1 -48.75 -1.35 -47.2 -1.3 -47.1 -1.2 -46.95 -1.15 -46.9 Q-0.45 -45.55 -0.55 -43.8 1.3 -39.75 3.7 -35.85 L3.85 -35.65 3.95 -35.4 4.5 -34.55 5.75 -34.55 8.2 -34.6 8.55 -34.6 8.7 -34.6 9.3 -34.65 9.35 -34.65 M11.25 -29.55 L11.3 -29.5 11.25 -29.5 11.25 -29.55 M3.45 -57.6 L3.55 -57.85 3.55 -57.9 3.85 -58.3 3.9 -58.35 3.9 -58.4 4.1 -58.65 4.15 -58.7 4.2 -58.7 4.4 -58.7 4.55 -58.55 4.5 -58.3 4.4 -58.2 4.3 -58.1 4.1 -58.1 Q3.45 -57.55 3.35 -56.7 L3.4 -56.45 3.15 -55.4 3.3 -54.9 3.35 -54.85 3.55 -54.55 3.6 -53.85 3.2 -54.25 2.85 -54.7 Q2.55 -55.4 2.75 -56.1 L2.85 -56.25 3.15 -57.15 3.2 -57.3 3.45 -57.6 M7.05 -56.75 L7.1 -56.85 7.25 -57.8 7.35 -57.9 7.4 -57.95 7.45 -58.0 7.45 -58.1 7.55 -58.1 8.75 -57.9 8.45 -57.8 8.3 -57.8 Q8.2 -58.0 7.9 -58.0 L7.7 -57.85 7.5 -57.85 7.5 -57.8 7.5 -57.7 7.5 -57.4 7.5 -57.35 7.4 -56.75 7.4 -56.55 7.3 -56.5 Q7.2 -56.45 7.15 -56.55 L7.05 -56.75 M0.65 -57.85 L0.55 -57.8 0.3 -57.65 -0.5 -57.75 -1.1 -57.15 -1.1 -57.1 -0.7 -56.7 -0.95 -56.4 -1.15 -56.55 -1.15 -56.6 -1.2 -56.7 -1.25 -56.75 -1.3 -56.85 -1.3 -56.9 -1.4 -56.95 -1.4 -57.3 -0.7 -58.1 0.65 -57.85 M23.95 -28.8 L23.95 -28.95 23.9 -28.95 23.15 -29.2 23.0 -29.25 22.75 -29.4 22.2 -29.75 Q21.35 -30.35 20.75 -29.1 19.85 -26.55 19.5 -23.9 L18.45 -18.7 Q16.5 -12.15 14.15 -5.6 L14.0 -5.15 Q12.7 -1.55 11.05 1.9 L10.35 3.4 10.1 3.85 10.0 4.05 9.15 5.65 9.05 5.85 9.0 5.95 8.7 6.45 8.65 6.55 8.4 7.0 8.4 7.05 8.3 7.0 8.55 6.35 8.8 5.65 10.4 1.1 11.5 -2.0 Q6.7 6.05 0.1 12.7 -3.35 16.75 -8.1 19.1 -9.25 18.55 -9.75 17.35 L-10.35 19.95 Q-11.0 21.25 -10.75 22.6 L-10.5 23.45 -10.4 23.75 -9.4 25.85 -9.05 26.6 -8.95 26.85 -8.85 27.05 -8.7 27.35 -8.65 27.1 -8.65 27.05 -8.55 26.7 -7.7 25.4 -7.45 25.2 Q-7.3 25.85 -7.3 26.55 L-7.3 26.9 -7.35 27.2 -7.45 27.75 -7.5 27.9 -7.5 28.0 -7.55 28.15 -7.6 28.25 -7.65 28.45 -7.7 28.6 -8.6 31.6 -8.65 31.75 -8.8 32.45 -8.85 32.9 -8.95 33.4 -8.9 35.9 -8.55 37.25 -8.45 37.55 -8.4 37.55 -8.3 37.35 -7.6 36.0 -7.55 36.3 Q-7.45 36.9 -7.75 37.5 L-8.35 38.7 -8.4 38.9 Q-9.1 42.25 -10.6 45.5 L-11.0 46.6 -11.2 48.05 -10.95 50.5 -10.65 51.45 -10.4 52.2 -10.4 52.25 -10.35 52.25 -10.3 52.2 -9.75 51.4 -8.8 50.3 -8.35 49.95 Q-2.7 45.15 2.8 39.8 L3.8 38.8 5.1 37.4 6.4 36.0 6.85 35.5 10.25 31.55 10.25 31.5 13.05 27.8 16.1 23.6 Q23.9 12.2 28.0 -0.6 L27.9 -0.75 27.6 -1.45 27.95 -1.55 28.3 -1.45 28.65 -2.35 Q32.05 -12.3 33.55 -22.7 L33.65 -23.4 33.65 -23.45 33.65 -23.5 33.65 -23.55 33.4 -23.85 33.15 -24.15 Q32.75 -24.45 32.2 -24.55 L30.45 -25.0 30.4 -25.05 Q29.95 -25.8 28.9 -25.95 L28.9 -26.05 28.55 -26.4 28.55 -26.45 28.2 -26.7 26.45 -27.6 25.7 -28.0 24.4 -28.8 24.0 -28.7 24.05 -28.3 23.95 -28.8 M23.2 -20.65 L23.3 -20.55 23.55 -20.75 23.25 -20.5 23.2 -20.6 23.2 -20.65 M5.3 -43.7 L5.85 -43.7 Q6.65 -43.7 7.0 -42.9 L7.1 -42.75 6.95 -42.75 6.45 -42.85 4.1 -42.9 3.9 -43.25 3.75 -43.2 Q3.65 -43.7 4.2 -43.8 L4.9 -43.75 5.3 -43.7 M6.55 -40.35 L6.85 -40.4 7.0 -40.4 7.05 -40.4 7.9 -40.45 8.25 -40.5 8.45 -40.5 8.55 -40.5 8.6 -40.45 8.55 -40.2 8.05 -40.1 7.85 -40.05 5.8 -39.75 5.65 -39.75 5.5 -39.85 5.5 -39.9 5.0 -40.05 4.75 -40.2 4.5 -40.2 4.3 -40.1 3.8 -39.8 3.55 -39.75 Q4.0 -40.65 5.1 -40.65 L5.85 -40.25 6.0 -40.3 6.25 -40.3 6.35 -40.35 6.55 -40.35 M1.05 -31.8 L1.55 -31.95 1.65 -32.2 1.6 -32.55 1.75 -32.3 1.95 -36.65 0.0 -40.45 -0.4 -41.1 -1.0 -42.15 -1.1 -42.3 -1.25 -42.75 Q-1.8 -44.25 -1.7 -46.0 -5.6 -38.7 -5.1 -29.7 L-5.1 -29.65 -5.0 -29.3 -5.05 -29.2 -5.0 -28.95 -4.75 -28.75 -4.3 -29.1 -4.3 -29.05 -4.2 -29.15 -4.1 -29.0 -3.5 -29.55 -3.4 -29.75 -3.45 -29.7 -3.3 -29.85 -2.2 -30.75 -1.85 -30.75 -1.5 -30.9 -1.1 -31.25 -0.85 -31.4 0.1 -32.4 1.0 -31.75 1.05 -31.7 1.05 -31.8 M6.45 -19.55 L7.1 -19.05 9.05 -21.2 Q6.35 -23.2 4.2 -25.85 L0.05 -31.2 -1.85 -29.7 -1.8 -29.65 -2.0 -29.65 -2.3 -29.4 -2.3 -29.45 -3.0 -28.9 -3.0 -28.85 -3.15 -28.9 -3.7 -28.65 -3.85 -28.4 -3.85 -28.35 -4.25 -28.15 -5.75 -27.35 Q-6.0 -27.1 -6.35 -27.1 L-6.35 -26.95 -6.35 -26.85 -6.95 -26.55 -7.05 -26.7 -7.2 -26.9 -7.55 -27.0 Q-9.85 -27.25 -11.65 -25.8 L-11.75 -25.8 -11.85 -25.75 -11.95 -25.6 -12.25 -25.25 -12.4 -25.15 -12.35 -25.1 -12.45 -25.05 -12.8 -24.4 -14.2 -23.75 -14.3 -23.65 -14.95 -23.35 -15.55 -23.4 -15.6 -23.4 -15.25 -23.9 -19.1 -22.55 Q-28.35 -19.35 -38.35 -19.05 L-42.7 -19.05 -41.9 -18.7 -41.4 -18.5 -41.15 -18.4 -41.0 -18.35 -40.65 -18.25 -37.0 -17.05 -36.5 -16.9 -36.45 -16.9 -33.8 -16.2 -33.5 -16.15 -33.35 -16.1 -32.9 -15.95 -32.5 -15.85 Q-29.55 -15.0 -26.45 -14.85 L-25.4 -14.8 -17.3 -14.65 -17.35 -14.95 Q-17.0 -14.65 -16.5 -14.7 -13.85 -7.85 -9.95 -1.7 L-5.15 5.05 Q-2.7 8.4 0.55 11.15 L1.35 10.2 0.9 9.9 1.2 10.1 1.35 10.05 1.55 9.8 1.75 9.8 5.1 5.65 5.7 4.95 5.25 5.15 5.7 4.95 6.85 3.4 6.95 3.2 7.35 2.5 7.5 2.3 9.7 -0.95 10.45 -2.15 10.45 -2.2 10.8 -2.8 10.4 -3.55 10.85 -2.7 12.05 -4.4 12.7 -5.5 12.8 -5.9 12.9 -6.0 13.0 -6.25 13.15 -6.65 13.5 -7.7 14.0 -9.15 12.9 -9.6 13.9 -9.2 14.4 -10.65 14.1 -10.75 14.45 -10.6 16.95 -17.0 Q18.15 -20.25 18.7 -23.8 L18.55 -23.6 18.9 -24.95 18.95 -25.0 Q19.55 -27.1 19.55 -29.45 18.25 -30.05 17.5 -31.3 15.35 -27.3 12.5 -23.8 L9.25 -20.0 Q7.65 -18.1 5.5 -16.9 L4.8 -17.7 4.15 -18.5 4.2 -18.5 4.25 -18.45 Q5.4 -18.6 6.35 -19.1 L6.25 -19.05 6.95 -19.1 7.05 -19.1 6.45 -19.55 M0.95 -21.65 L1.15 -21.45 1.6 -20.95 0.95 -21.65 M7.45 -14.9 L7.15 -15.1 5.95 -16.3 Q6.65 -15.55 7.45 -14.9 M13.1 -11.25 L13.3 -11.15 13.2 -11.15 13.1 -11.25 M42.05 -9.8 L44.85 -12.3 44.8 -12.55 Q44.6 -12.7 44.7 -13.1 L44.25 -13.9 44.25 -13.95 43.7 -14.7 43.3 -15.25 41.25 -17.4 39.05 -19.4 37.7 -20.55 36.3 -21.6 35.0 -22.6 34.6 -22.75 34.45 -22.75 34.2 -22.4 34.1 -22.25 34.05 -21.9 34.05 -21.85 34.6 -21.75 34.0 -21.85 Q32.85 -12.2 29.85 -3.35 L30.0 -3.45 29.6 -2.35 Q29.2 -2.1 29.15 -1.3 L29.15 -1.25 29.1 -1.2 28.8 -0.3 28.75 0.1 27.8 2.95 27.55 3.65 27.3 4.35 24.6 10.4 24.55 10.5 24.6 10.5 24.15 11.45 24.0 11.5 23.4 12.8 23.4 12.85 23.45 12.85 23.55 12.85 23.3 13.4 22.95 14.25 22.95 14.3 Q22.3 15.05 21.8 15.9 L20.7 18.1 20.35 19.0 20.55 19.4 20.4 19.1 20.15 19.2 20.05 19.5 20.1 19.65 20.0 19.45 Q19.05 20.55 18.7 21.65 18.35 21.9 18.3 22.35 L18.25 22.4 18.15 22.5 18.1 22.5 17.5 23.25 16.95 24.1 Q20.75 26.95 25.15 28.8 L25.15 26.85 24.95 25.85 25.1 25.5 25.05 25.3 25.05 25.15 25.25 22.85 25.55 20.35 25.65 20.15 26.0 17.45 26.4 14.6 Q26.65 13.15 27.15 11.75 L27.75 9.8 28.05 9.05 28.1 9.0 28.4 7.65 28.7 7.05 30.15 2.05 30.55 0.85 30.25 0.7 Q30.7 0.4 30.75 -0.3 L30.75 -0.75 31.6 -2.8 31.55 -2.8 32.35 -3.7 Q33.0 -4.65 34.15 -5.2 L34.4 -5.3 33.85 -5.05 35.6 -5.9 37.7 -6.95 38.0 -7.15 41.05 -9.05 42.05 -9.8 M-25.9 -12.45 L-27.6 -10.7 Q-23.5 -8.85 -20.0 -5.35 -16.5 -1.9 -14.5 2.15 L-14.15 2.95 Q-13.45 4.6 -13.2 6.45 L-12.95 7.8 Q-12.55 9.3 -11.6 10.65 L-11.6 10.2 -11.2 11.15 -10.65 12.4 -10.6 12.45 -10.6 12.95 Q-9.9 14.3 -9.5 15.95 -9.15 17.45 -7.55 17.95 L-7.3 18.05 -6.35 17.2 -1.4 12.85 -1.4 12.8 -1.2 12.45 -0.75 12.15 Q-0.55 11.9 -0.75 11.65 L-2.35 9.8 -2.75 9.45 -4.45 7.6 -5.85 5.75 -8.4 2.1 -10.3 -0.6 -11.55 -2.5 -12.15 -3.5 -13.2 -5.45 -15.25 -9.4 -16.0 -11.3 -16.15 -11.85 Q-16.2 -12.45 -16.5 -12.75 L-16.75 -13.3 -17.1 -13.5 -20.55 -13.7 -24.7 -13.8 -25.05 -13.5 -25.05 -13.35 -24.4 -13.25 -25.25 -13.35 -25.45 -13.05 -25.75 -12.8 -25.9 -12.45 M-15.25 -19.05 L-15.2 -19.5 -15.3 -18.5 -15.25 -19.05 M-14.95 -20.95 L-14.9 -21.3 -14.9 -21.25 -14.95 -20.95 M17.9 41.75 L16.1 41.9 15.5 41.8 15.45 41.8 14.35 43.1 Q8.75 44.2 2.65 43.3 L1.55 44.5 -0.6 46.0 -4.3 48.15 Q-6.1 49.4 -7.75 50.8 -8.95 51.8 -9.5 53.2 L-9.85 54.5 Q-7.35 55.0 -5.6 56.85 L2.4 55.6 Q6.55 55.1 9.95 57.25 L15.7 57.85 Q18.7 57.75 21.4 56.75 21.8 55.2 23.15 54.75 L25.7 53.65 Q26.75 53.25 27.75 53.65 L27.65 53.75 27.6 54.05 27.75 54.3 27.9 54.0 28.0 53.75 29.4 50.15 26.35 43.45 25.7 41.9 22.8 42.75 19.95 43.05 Q18.3 43.15 17.6 42.15 L17.8 41.85 17.85 41.95 18.4 42.1 18.7 42.25 25.3 40.7 Q25.7 39.65 25.7 38.6 25.45 36.1 24.7 33.9 21.7 34.45 18.85 33.95 L18.4 33.95 Q18.15 34.15 18.05 34.45 L18.3 33.75 Q18.45 33.45 18.65 33.75 L24.85 32.8 Q25.4 31.45 25.05 30.25 L25.05 29.95 24.85 29.7 Q23.3 28.75 21.65 28.05 19.5 27.1 17.65 25.75 L17.65 25.7 Q17.35 25.35 16.85 25.4 16.5 25.4 16.3 25.7 L15.85 26.3 13.75 28.6 12.05 31.2 10.9 32.7 Q10.45 33.4 11.2 33.6 L11.25 33.55 11.35 33.5 11.45 33.4 10.95 33.45 13.65 33.25 Q14.6 33.7 15.5 34.45 L18.05 34.5 18.2 34.85 18.3 35.05 18.4 35.1 18.45 35.15 21.2 37.5 17.9 41.75 M-0.85 51.85 L-0.8 51.85 -0.9 51.95 -0.85 51.85 M4.55 40.8 L4.6 40.9 4.9 41.0 Q4.3 40.7 3.8 41.0 L2.3 41.95 2.55 42.65 13.95 41.95 Q15.7 39.45 18.4 37.4 L14.25 33.95 9.9 34.15 9.3 35.2 9.35 35.2 9.05 35.75 8.4 35.7 7.65 36.3 7.45 36.45 6.95 36.85 6.95 36.9 6.1 37.7 Q4.95 38.8 4.7 40.25 L4.65 40.25 4.65 40.3 Q4.45 40.55 4.55 40.8 M24.85 46.6 L24.85 46.55 24.9 46.6 24.85 46.6 M17.4 66.45 L17.3 66.7 15.3 66.7 Q16.3 64.95 18.05 63.8 20.4 62.15 22.8 61.1 L20.15 63.55 Q18.6 64.75 17.4 66.45" fill="#000000" fill-rule="evenodd" stroke="none"/>
    <path d="M-2.1 -66.05 L-1.65 -66.6 Q-0.45 -68.2 1.2 -69.2 L1.6 -69.45 1.65 -69.5 1.8 -69.55 3.25 -70.25 3.4 -70.2 4.7 -70.55 7.95 -70.4 11.2 -70.15 11.25 -70.2 11.4 -70.25 11.65 -70.15 11.7 -70.15 12.5 -69.95 Q13.5 -69.8 14.2 -69.2 L14.4 -68.95 14.9 -68.35 14.95 -68.25 13.9 -67.7 13.05 -67.25 13.1 -67.25 12.8 -67.2 11.85 -66.95 11.1 -66.65 11.05 -66.7 7.85 -67.35 8.5 -67.8 8.85 -68.3 9.95 -69.3 Q8.45 -68.45 7.1 -67.4 L7.05 -67.4 4.65 -67.45 4.9 -67.7 Q5.65 -68.45 6.0 -69.35 L3.9 -67.4 3.0 -67.3 2.5 -67.25 1.25 -67.0 1.9 -68.5 1.95 -68.6 1.3 -68.0 0.55 -67.1 0.25 -66.5 -0.5 -65.95 -1.4 -65.2 -1.7 -66.0 -1.5 -65.65 -1.9 -64.4 -1.9 -64.3 -2.15 -63.6 -2.2 -62.65 -2.2 -62.3 -2.15 -61.95 -2.1 -61.25 -2.1 -61.1 -3.4 -62.65 -3.5 -63.95 -3.45 -64.05 -3.2 -63.65 -3.5 -64.15 -2.1 -66.0 -2.1 -66.05 M-1.25 -42.75 L-1.7 -42.2 -2.3 -40.9 Q-3.25 -38.85 -3.7 -36.6 L-3.85 -35.5 Q-4.15 -33.45 -3.85 -31.35 L-3.55 -30.35 -3.5 -30.2 -3.3 -29.85 -3.45 -29.7 -3.4 -29.75 -3.5 -29.55 -4.1 -29.0 -4.2 -29.15 -4.3 -29.05 -4.3 -29.1 -4.75 -28.75 -5.0 -28.95 -5.05 -29.2 -5.0 -29.3 -5.1 -29.65 -5.1 -29.7 Q-5.6 -38.7 -1.7 -46.0 -1.8 -44.25 -1.25 -42.75" fill="#ffff99" fill-rule="evenodd" stroke="none"/>
    <path d="M14.95 -68.25 L15.25 -67.4 15.25 -67.35 15.3 -67.3 16.8 -63.5 16.95 -63.35 16.95 -63.2 18.85 -59.25 18.95 -59.0 19.0 -58.85 20.25 -55.95 21.95 -51.55 22.85 -48.25 23.4 -44.6 Q22.3 -48.55 20.7 -52.2 L20.3 -52.45 22.2 -45.95 23.2 -41.8 22.5 -39.2 21.45 -36.25 21.25 -39.0 20.45 -43.7 20.45 -43.8 20.3 -45.25 19.8 -47.25 18.95 -50.35 18.75 -50.8 Q18.85 -52.2 18.55 -53.6 17.55 -54.15 16.6 -53.6 L16.35 -53.9 16.65 -56.25 Q16.7 -58.1 15.85 -59.65 L16.15 -59.5 Q17.5 -58.85 18.85 -58.75 17.4 -59.75 15.7 -60.3 L15.55 -60.35 13.75 -63.35 15.3 -63.2 16.0 -63.15 15.95 -63.2 15.6 -63.3 14.85 -63.85 13.7 -64.05 12.9 -64.2 Q11.75 -64.5 10.7 -65.2 L10.15 -65.35 9.75 -65.55 10.2 -65.7 10.65 -65.9 12.15 -66.4 12.45 -66.6 12.55 -66.65 13.25 -67.0 13.95 -67.3 13.65 -67.3 13.1 -67.25 13.05 -67.25 13.9 -67.7 14.95 -68.25 M20.3 -30.05 L20.3 -29.9 20.05 -30.0 20.3 -30.05 M7.9 -65.9 L6.3 -66.15 6.75 -66.5 7.85 -67.35 11.05 -66.7 11.1 -66.65 10.75 -66.5 Q9.4 -65.85 7.9 -65.9 M5.95 -66.55 L5.55 -66.2 5.35 -66.05 3.65 -66.15 4.65 -67.45 7.05 -67.4 6.3 -66.8 5.95 -66.55 M2.8 -65.95 L2.75 -65.9 0.3 -65.1 0.7 -65.85 1.25 -67.0 2.5 -67.25 3.0 -67.3 3.9 -67.4 3.6 -67.05 2.8 -65.95 M-0.45 -65.15 L-0.7 -64.7 Q-1.05 -64.45 -1.4 -64.35 L-1.35 -64.4 -1.45 -64.35 -1.4 -65.2 -0.5 -65.95 0.25 -66.5 -0.45 -65.15 M15.15 -67.2 L15.1 -67.3 15.1 -67.2 15.15 -67.2 M0.0 -40.45 Q0.1 -40.05 -0.25 -39.65 L-0.5 -39.25 Q-1.5 -37.65 -1.3 -35.75 L-1.2 -34.4 -0.85 -31.4 -1.1 -31.25 -1.25 -31.2 -1.35 -31.15 Q-3.15 -35.25 -1.7 -39.6 L-1.9 -39.75 -1.95 -39.6 -2.4 -38.5 -2.6 -37.75 -2.6 -37.8 Q-3.55 -34.3 -2.2 -30.75 L-3.3 -29.85 -3.5 -30.2 -3.55 -30.35 -3.85 -31.35 Q-4.15 -33.45 -3.85 -35.5 L-3.7 -36.6 Q-3.25 -38.85 -2.3 -40.9 L-1.7 -42.2 -1.25 -42.75 -1.1 -42.3 -1.0 -42.15 -0.4 -41.1 0.0 -40.45" fill="#c7af52" fill-rule="evenodd" stroke="none"/>
    <path d="M17.1 -46.35 L17.05 -46.55 17.2 -46.35 17.1 -46.35 M15.15 -67.2 L15.1 -67.2 15.1 -67.3 15.15 -67.2 M7.45 -48.9 L8.0 -49.55 9.0 -50.15 8.95 -49.95 9.0 -49.7 Q9.15 -49.3 9.5 -49.25 L9.8 -49.3 10.15 -49.65 Q10.3 -50.45 9.5 -50.45 L9.45 -50.45 9.9 -50.65 Q11.2 -51.2 12.2 -50.95 L12.4 -50.55 12.25 -50.05 12.2 -50.0 12.15 -49.9 12.1 -49.85 11.9 -50.0 11.05 -49.75 10.95 -49.7 10.7 -49.6 10.05 -49.4 Q9.8 -49.15 9.5 -49.25 L9.3 -49.2 9.05 -49.15 8.7 -49.15 7.5 -48.9 7.55 -48.85 7.9 -48.75 7.5 -48.8 7.45 -48.8 7.45 -48.9 7.5 -48.9 7.45 -48.9 M0.95 -49.05 L1.05 -49.1 1.4 -49.45 1.3 -50.05 Q1.2 -50.35 0.7 -50.3 L0.45 -50.2 0.2 -49.75 0.25 -49.5 0.35 -49.25 -0.75 -49.5 -0.8 -49.5 -1.4 -49.55 -0.85 -49.5 -1.05 -49.7 -1.05 -49.75 -1.05 -49.8 -1.15 -49.8 -1.3 -49.95 -1.35 -50.1 -1.3 -50.25 -1.3 -50.45 -1.3 -50.55 -1.25 -50.65 -1.2 -50.7 -1.15 -50.7 -1.15 -50.75 -1.1 -50.75 0.8 -50.55 1.6 -50.05 1.7 -50.0 2.8 -49.5 2.9 -49.4 2.9 -49.35 2.9 -49.15 3.0 -49.1 3.05 -48.95 3.1 -48.8 1.35 -49.05 1.2 -49.05 0.95 -49.05 M-25.75 -12.5 L-25.8 -12.55 -25.75 -12.65 -25.75 -12.5" fill="#ffffff" fill-rule="evenodd" stroke="none"/>
    <path d="M25.75 -33.15 L25.7 -30.95 25.2 -29.65 25.05 -29.45 23.6 -39.1 23.6 -39.3 23.55 -39.6 23.2 -41.8 22.2 -45.95 20.3 -52.45 20.7 -52.2 Q22.3 -48.55 23.4 -44.6 L24.1 -41.65 Q25.3 -36.1 25.4 -30.8 L25.75 -33.15 M21.0 -30.65 L20.95 -30.55 Q20.75 -30.15 20.3 -30.1 21.15 -35.7 20.2 -41.7 20.15 -43.2 19.75 -44.55 19.35 -45.95 19.6 -47.3 L19.7 -47.2 20.45 -43.8 20.45 -43.7 21.25 -39.0 21.45 -36.25 Q21.55 -33.5 21.05 -30.75 L21.0 -30.65 M16.05 -46.2 L16.15 -46.4 16.35 -46.55 17.1 -46.3 Q18.35 -41.3 17.9 -35.6 L17.6 -35.3 17.2 -40.95 Q17.1 -43.75 16.05 -46.2 M16.15 -59.5 L15.9 -59.85 15.75 -60.1 15.7 -60.3 Q17.4 -59.75 18.85 -58.75 17.5 -58.85 16.15 -59.5 M13.75 -63.35 L13.7 -63.45 13.15 -64.1 12.3 -64.35 12.9 -64.2 13.7 -64.05 14.85 -63.85 15.6 -63.3 15.95 -63.2 16.0 -63.15 15.3 -63.2 13.75 -63.35 M10.2 -65.7 L9.8 -65.55 8.4 -65.75 7.9 -65.9 Q9.4 -65.85 10.75 -66.5 L11.1 -66.65 11.85 -66.95 12.8 -67.2 13.1 -67.25 13.65 -67.3 13.95 -67.3 13.25 -67.0 12.55 -66.65 12.45 -66.6 12.15 -66.4 10.65 -65.9 10.2 -65.7 M6.75 -66.5 L6.35 -66.2 5.6 -66.25 5.95 -66.55 6.3 -66.8 7.1 -67.4 Q8.45 -68.45 9.95 -69.3 L8.85 -68.3 8.5 -67.8 7.85 -67.35 6.75 -66.5 M3.65 -66.15 L3.85 -66.15 3.8 -66.1 3.75 -66.05 2.8 -65.95 3.6 -67.05 3.9 -67.4 6.0 -69.35 Q5.65 -68.45 4.9 -67.7 L4.65 -67.45 3.65 -66.15 M0.7 -65.85 L0.35 -65.2 -0.55 -64.85 -0.6 -64.8 -0.45 -65.15 0.25 -66.5 0.55 -67.1 1.3 -68.0 1.95 -68.6 1.9 -68.5 1.25 -67.0 0.7 -65.85 M-1.4 -64.35 L-1.9 -64.3 -1.9 -64.4 -1.5 -65.65 -1.7 -66.0 -1.4 -65.2 -1.45 -64.35 -1.35 -64.4 -1.4 -64.35 M1.05 -31.8 L0.4 -33.95 0.25 -35.5 Q0.05 -36.3 0.55 -36.95 L0.7 -36.75 Q0.7 -34.6 1.6 -32.55 L1.65 -32.2 1.55 -31.95 1.05 -31.8 M-2.2 -30.75 Q-3.55 -34.3 -2.6 -37.8 L-2.6 -37.75 -2.4 -38.5 -1.95 -39.6 -1.9 -39.75 -1.7 -39.6 Q-3.15 -35.25 -1.35 -31.15 L-1.25 -31.2 -1.1 -31.25 -1.5 -30.9 -1.85 -30.75 -2.2 -30.75" fill="#685a22" fill-rule="evenodd" stroke="none"/>
    <path d="M11.2 -64.5 L12.2 -63.95 13.65 -62.85 Q15.45 -59.8 16.05 -56.9 L14.3 -60.0 Q13.4 -61.5 11.65 -61.9 L11.4 -61.95 10.7 -62.05 Q10.6 -62.45 10.8 -62.85 L10.85 -63.2 11.2 -64.5 M-0.55 -61.9 L-1.5 -61.65 Q-2.0 -63.1 -0.95 -63.45 L-0.75 -63.5 -0.6 -62.05 -0.55 -61.9 M33.65 -23.55 L33.65 -23.5 33.65 -23.45 33.65 -23.55 M9.0 5.95 L9.05 5.85 9.0 5.95 M9.15 5.65 L10.0 4.05 9.5 5.05 9.15 5.65 M15.15 17.3 L15.7 16.3 16.0 15.85 15.15 17.3" fill="#9f2800" fill-rule="evenodd" stroke="none"/>
    <path d="M11.2 -64.5 L10.85 -63.2 10.8 -62.85 Q10.6 -62.45 10.7 -62.05 4.8 -63.05 -0.55 -61.9 L-0.6 -62.05 -0.75 -63.5 Q0.15 -63.85 0.85 -64.35 3.95 -65.45 7.55 -65.3 9.55 -65.25 11.2 -64.5 M23.9 -28.95 L23.95 -28.95 23.95 -28.8 23.9 -28.85 23.9 -28.95 M-10.3 52.2 L-10.35 52.25 -10.4 52.25 -10.3 52.2 M-8.3 37.35 L-8.4 37.55 -8.45 37.55 -8.3 37.35 M-8.65 27.1 L-8.7 27.35 -8.85 27.05 -8.65 27.1 M25.4 -28.1 L25.4 -28.15 25.45 -28.15 25.4 -28.1 M21.7 -18.65 L21.75 -18.75 21.75 -18.55 21.7 -18.65 M15.9 6.95 L15.75 6.95 15.8 6.9 15.9 6.95 M15.25 0.05 L15.3 0.0 15.3 0.05 15.25 0.05" fill="#cc3300" fill-rule="evenodd" stroke="none"/>
    <path d="M-2.1 -66.0 L-2.15 -65.95 -2.1 -66.05 -2.1 -66.0 M7.1 -67.4 L6.3 -66.8 7.05 -67.4 7.1 -67.4" fill="#ffffcc" fill-rule="evenodd" stroke="none"/>
    <path d="M12.25 -52.7 L12.45 -54.95 12.45 -57.15 12.35 -58.0 10.95 -58.55 9.55 -59.1 8.2 -59.55 6.35 -60.05 4.5 -60.4 3.1 -60.45 1.6 -60.15 0.1 -59.7 -1.75 -59.25 -2.1 -59.1 -2.15 -59.3 -2.0 -60.0 -1.6 -60.65 -1.25 -60.85 1.0 -61.3 2.35 -61.35 3.8 -61.4 6.85 -61.2 8.45 -61.15 9.2 -61.0 9.9 -60.95 10.65 -60.8 12.0 -60.5 13.1 -60.15 13.35 -59.7 13.85 -58.9 14.5 -57.9 14.95 -57.0 15.25 -56.0 15.35 -53.95 15.15 -52.2 15.4 -51.7 15.35 -49.9 16.0 -50.3 16.95 -51.55 17.1 -51.5 16.8 -48.75 16.15 -48.35 15.65 -48.0 15.55 -47.5 15.0 -46.3 Q14.45 -45.65 14.3 -44.8 L14.25 -44.15 14.25 -43.1 14.1 -41.65 14.1 -41.6 Q13.85 -40.25 14.25 -38.9 L14.4 -38.3 14.5 -37.45 14.65 -36.65 14.95 -35.05 15.25 -33.45 15.4 -32.65 15.6 -31.85 15.85 -30.5 14.95 -29.1 14.0 -27.65 13.35 -26.7 12.85 -25.9 11.8 -24.45 11.1 -23.5 10.4 -22.6 9.5 -21.75 9.5 -23.55 9.3 -24.95 9.2 -26.25 9.05 -27.55 11.6 -27.4 11.25 -28.3 Q11.0 -29.0 11.3 -29.5 L11.25 -29.55 11.95 -31.5 11.55 -32.85 10.4 -32.4 9.75 -32.1 7.7 -32.05 6.4 -32.1 Q5.4 -32.25 5.1 -33.25 L5.3 -33.75 5.75 -33.7 7.35 -33.9 7.45 -33.85 7.45 -33.9 9.3 -33.85 10.55 -35.25 11.15 -36.15 11.75 -37.05 11.8 -37.2 13.0 -40.8 12.95 -40.75 12.3 -39.65 11.55 -38.3 10.85 -37.05 10.0 -35.7 9.35 -34.65 9.3 -34.7 9.95 -36.2 10.4 -37.5 10.85 -38.8 11.2 -40.1 11.6 -41.5 11.95 -42.8 12.45 -44.45 12.8 -46.15 13.05 -47.9 12.25 -48.75 Q12.05 -48.8 11.95 -48.65 L9.65 -48.25 8.05 -47.95 7.5 -48.15 9.25 -48.25 10.6 -48.6 12.05 -49.0 Q13.2 -49.55 12.7 -50.35 L12.4 -50.55 12.2 -50.95 Q11.2 -51.2 9.9 -50.65 L9.45 -50.45 9.0 -50.15 8.0 -49.55 7.45 -48.9 7.05 -48.85 7.05 -48.9 7.0 -48.85 Q6.7 -48.7 6.9 -48.45 L7.3 -48.15 6.8 -48.0 6.4 -46.7 5.95 -45.5 5.8 -45.4 Q5.35 -45.85 5.55 -46.8 L5.6 -47.6 5.6 -47.8 5.8 -49.7 Q6.55 -50.3 7.45 -50.5 L11.95 -51.6 12.15 -52.1 12.3 -52.55 12.25 -52.7 M3.1 -49.8 L3.15 -49.55 3.15 -49.45 Q3.25 -49.1 2.8 -49.5 L1.7 -50.0 1.6 -50.05 0.8 -50.55 -1.1 -50.75 -1.15 -50.75 -1.15 -50.7 -1.2 -50.7 -1.25 -50.65 -1.3 -50.55 -1.3 -50.45 -1.3 -50.25 -1.35 -50.1 -1.7 -50.2 -1.65 -49.25 -1.6 -49.45 -1.5 -49.3 Q-1.35 -49.0 -0.7 -48.85 L2.1 -48.05 2.05 -48.05 2.0 -48.05 2.0 -48.0 1.15 -47.9 -0.5 -48.1 Q-1.55 -48.25 -2.2 -48.95 L-2.25 -48.9 -2.55 -49.9 -2.35 -51.15 -2.3 -51.2 -2.3 -51.25 -2.1 -51.35 -1.15 -51.3 0.75 -50.9 2.05 -50.3 3.1 -49.8 M7.45 -48.8 L7.25 -48.7 7.35 -48.8 7.4 -48.8 7.35 -48.8 7.45 -48.9 7.45 -48.8 M7.1 -39.0 L7.9 -38.65 8.0 -38.45 Q7.85 -37.9 7.25 -37.85 L6.65 -37.6 6.5 -37.55 6.0 -37.4 5.45 -37.35 3.9 -37.6 Q3.7 -37.65 3.7 -37.85 3.6 -38.75 4.55 -38.8 L5.2 -38.85 5.25 -38.85 5.45 -38.9 5.6 -38.9 6.35 -39.0 6.45 -39.0 6.55 -39.0 7.0 -39.0 7.1 -39.0 M8.55 -29.5 L8.85 -29.4 8.9 -28.9 8.55 -28.55 Q7.95 -28.05 7.2 -28.05 L6.75 -28.2 Q6.25 -28.4 6.05 -28.85 5.6 -29.85 6.1 -30.75 L6.2 -30.85 6.3 -30.9 6.4 -30.9 6.4 -30.85 Q6.5 -30.15 7.1 -29.8 L7.65 -29.6 8.55 -29.5 M-0.4 -49.15 L-0.35 -49.1 -0.4 -49.15" fill="#946129" fill-rule="evenodd" stroke="none"/>
    <path d="M-1.75 -59.25 L0.1 -59.7 1.6 -60.15 3.1 -60.45 4.5 -60.4 6.35 -60.05 8.2 -59.55 9.55 -59.1 10.95 -58.55 12.35 -58.0 12.45 -57.15 12.45 -54.95 12.25 -52.7 12.1 -53.25 12.05 -53.3 11.7 -53.6 10.35 -53.55 Q9.7 -53.4 9.15 -53.05 7.95 -52.3 6.85 -51.7 L6.7 -51.4 6.65 -51.35 6.7 -51.3 6.6 -51.1 Q8.4 -51.95 10.3 -52.6 L11.4 -53.0 11.95 -52.3 12.15 -52.1 11.95 -51.6 7.45 -50.5 Q6.55 -50.3 5.8 -49.7 L5.6 -47.8 5.0 -47.85 5.6 -47.8 5.55 -47.95 5.35 -48.3 4.7 -48.4 Q3.9 -48.15 3.75 -47.3 L3.5 -46.9 3.15 -46.85 3.2 -46.7 1.65 -46.85 -1.25 -47.1 -1.2 -46.95 -1.3 -47.1 -1.35 -47.2 -2.1 -48.75 -2.2 -48.95 Q-1.55 -48.25 -0.5 -48.1 L1.15 -47.9 2.0 -48.0 2.05 -48.05 2.1 -48.05 2.5 -47.95 2.55 -47.95 2.75 -48.0 2.75 -48.05 2.8 -48.05 3.15 -48.15 3.6 -48.15 3.7 -48.3 3.7 -48.6 3.65 -49.1 3.55 -49.25 3.15 -49.55 3.1 -49.8 3.05 -50.1 Q2.95 -50.9 2.3 -51.05 L2.1 -51.55 1.45 -51.9 1.65 -51.9 1.95 -51.9 3.8 -52.6 4.15 -53.25 4.35 -53.25 Q4.85 -53.4 4.75 -53.95 L5.25 -55.35 5.4 -56.25 Q5.3 -57.35 4.75 -58.25 L4.7 -58.3 4.55 -58.55 4.4 -58.7 4.2 -58.7 4.2 -58.75 4.15 -58.7 4.1 -58.65 3.9 -58.4 3.9 -58.35 3.85 -58.3 3.55 -57.9 3.55 -57.85 3.45 -57.6 3.4 -57.65 Q2.4 -58.7 1.05 -59.1 L0.95 -59.15 Q-0.5 -59.4 -1.95 -59.15 L-1.75 -59.25 M5.6 -47.6 L5.55 -46.8 Q5.35 -45.85 5.8 -45.4 L5.95 -45.5 6.4 -46.7 6.8 -48.0 7.3 -48.15 7.5 -48.15 8.05 -47.95 9.65 -48.25 11.95 -48.65 Q12.05 -48.8 12.25 -48.75 L13.05 -47.9 12.8 -46.15 12.45 -44.45 11.95 -42.8 11.6 -41.5 11.2 -40.1 10.85 -38.8 10.4 -37.5 9.95 -36.2 9.3 -34.7 9.3 -34.65 8.7 -34.6 8.55 -34.6 8.2 -34.6 5.75 -34.55 4.5 -34.55 3.95 -35.4 3.85 -35.65 3.7 -35.85 4.25 -35.95 6.25 -35.9 6.25 -36.05 Q6.2 -36.9 6.7 -37.55 L6.55 -37.45 6.2 -37.4 6.0 -37.35 6.0 -37.4 6.5 -37.55 6.65 -37.6 7.25 -37.85 Q7.85 -37.9 8.0 -38.45 L7.9 -38.65 7.1 -39.0 7.3 -39.0 8.4 -38.8 8.05 -39.95 8.05 -40.05 8.55 -40.15 8.55 -40.2 8.6 -40.45 8.55 -40.5 8.45 -40.5 8.25 -40.5 7.9 -40.45 7.05 -40.4 7.0 -40.4 6.85 -40.4 6.55 -40.35 6.5 -40.4 Q6.2 -40.7 6.35 -41.1 L6.45 -41.3 Q6.3 -42.05 6.4 -42.75 L6.45 -42.85 6.95 -42.75 7.1 -42.75 7.0 -42.9 Q6.65 -43.7 5.85 -43.7 L5.3 -43.7 5.4 -45.55 5.6 -47.6 M7.0 -48.85 L7.05 -48.9 7.05 -48.85 7.0 -48.85 M9.05 -27.55 L9.2 -26.25 9.3 -24.95 9.5 -23.55 9.5 -21.75 9.0 -22.15 Q6.75 -23.85 5.05 -26.05 L1.4 -31.05 Q2.1 -31.65 2.4 -32.4 L3.0 -31.5 Q3.15 -30.7 3.65 -30.05 L3.85 -29.7 5.8 -26.55 5.6 -26.9 Q7.25 -27.5 9.05 -27.55 M15.0 -46.3 L15.55 -47.5 15.65 -48.0 16.15 -48.35 16.8 -48.75 17.1 -51.5 16.95 -51.55 16.0 -50.3 15.35 -49.9 15.4 -51.7 Q16.15 -51.9 16.55 -52.75 16.95 -53.55 18.1 -53.1 17.95 -49.95 16.95 -47.3 L16.5 -47.35 Q16.3 -47.15 16.05 -47.25 L15.0 -46.3 M8.75 -57.9 L7.55 -58.1 7.45 -58.1 7.45 -58.0 7.4 -57.95 7.35 -57.9 7.25 -57.8 7.1 -56.85 7.05 -56.75 7.05 -56.5 7.2 -55.95 7.75 -55.95 7.95 -55.95 8.2 -56.05 8.8 -56.4 Q9.25 -56.85 9.25 -57.45 L9.15 -57.6 8.75 -57.9 M0.7 -51.65 L0.0 -51.85 -0.4 -52.1 0.7 -51.65 M-1.9 -52.65 L-2.2 -52.6 -2.2 -52.7 -2.2 -52.75 -1.9 -52.65 M-2.3 -51.45 L-2.1 -51.35 -2.3 -51.25 -2.3 -51.2 -2.3 -51.45 M11.2 -47.25 L11.05 -47.4 10.45 -47.45 8.35 -47.05 8.05 -47.0 7.85 -46.85 11.3 -46.95 11.2 -47.25 M11.4 -46.95 L7.75 -46.85 7.6 -45.35 10.4 -44.65 11.0 -44.4 11.15 -45.1 11.35 -46.5 11.4 -46.95 M4.5 -40.2 L4.5 -40.1 3.8 -39.75 3.8 -39.8 4.3 -40.1 4.5 -40.2 M5.1 -40.65 L5.3 -40.65 Q5.65 -40.4 6.0 -40.3 L5.85 -40.25 5.1 -40.65" fill="#d7ae7e" fill-rule="evenodd" stroke="none"/>
    <path d="M4.15 -58.7 L4.2 -58.75 4.2 -58.7 4.15 -58.7 M7.5 -57.35 L7.5 -57.4 7.5 -57.35 M7.5 -57.7 L7.5 -57.8 7.5 -57.85 7.7 -57.85 7.65 -57.85 7.5 -57.7" fill="#00ff00" fill-rule="evenodd" stroke="none"/>
    <path d="M7.4 -56.55 L7.4 -56.75 7.5 -57.35 Q7.7 -56.9 8.1 -57.2 L8.3 -57.4 8.3 -57.8 8.45 -57.8 8.55 -57.75 8.9 -57.6 8.7 -57.3 Q8.35 -56.55 7.55 -56.35 L7.35 -56.4 7.35 -56.45 7.4 -56.55 M0.3 -57.65 L0.8 -57.25 0.9 -57.1 0.9 -56.95 0.9 -56.9 0.85 -56.3 0.8 -56.25 0.8 -56.1 0.75 -55.85 0.7 -55.75 0.65 -55.7 0.6 -55.6 0.55 -55.45 -0.3 -56.5 -0.5 -56.6 -0.7 -56.7 -1.1 -57.1 -1.1 -57.15 -0.5 -57.75 0.3 -57.65 M4.55 -57.55 L4.8 -56.55 4.8 -56.05 4.05 -54.05 3.55 -54.55 3.35 -54.85 3.3 -54.9 3.15 -55.4 3.4 -56.45 3.55 -56.2 3.8 -56.25 4.4 -57.25 4.55 -57.55 M-0.15 -57.65 L-0.3 -57.65 Q-0.85 -57.7 -0.9 -57.2 L-0.75 -56.95 Q-0.3 -56.75 0.0 -57.1 0.35 -57.5 -0.15 -57.65" fill="#cc0099" fill-rule="evenodd" stroke="none"/>
    <path d="M7.5 -57.4 L7.5 -57.7 7.65 -57.85 7.7 -57.85 7.9 -58.0 Q8.2 -58.0 8.3 -57.8 L8.3 -57.4 8.1 -57.2 Q7.7 -56.9 7.5 -57.35 L7.5 -57.4 M4.3 -58.1 L4.55 -57.55 4.4 -57.25 3.8 -56.25 3.55 -56.2 3.4 -56.45 3.35 -56.7 Q3.45 -57.55 4.1 -58.1 L4.3 -58.1 M-11.95 -25.6 L-11.85 -25.75 -11.75 -25.8 -11.65 -25.8 -11.5 -25.9 Q-9.55 -26.05 -9.55 -24.55 L-9.65 -23.95 -9.95 -23.4 Q-10.9 -22.65 -11.65 -23.2 L-12.2 -23.75 Q-12.65 -24.45 -12.3 -25.1 L-12.25 -25.25 -11.95 -25.6 M35.9 -20.25 Q37.8 -20.25 37.1 -18.5 L36.65 -17.9 34.75 -17.85 Q34.2 -18.15 34.2 -18.6 L34.35 -19.25 35.0 -19.95 35.35 -20.2 35.8 -20.25 35.9 -20.25 M-0.15 -57.65 Q0.35 -57.5 0.0 -57.1 -0.3 -56.75 -0.75 -56.95 L-0.9 -57.2 Q-0.85 -57.7 -0.3 -57.65 L-0.15 -57.65 M-23.55 -18.95 L-26.25 -17.7 Q-27.7 -17.0 -29.3 -16.6 L-29.9 -16.4 Q-30.7 -16.6 -31.4 -16.95 -32.05 -17.25 -32.15 -17.95 L-32.2 -18.15 Q-32.2 -18.85 -31.65 -19.3 L-30.2 -19.35 -26.8 -19.35 -24.5 -19.65 Q-23.65 -19.4 -23.55 -18.95 M-9.3 -12.4 Q-10.85 -11.8 -11.35 -13.0 L-11.5 -13.45 Q-11.7 -14.35 -11.0 -14.95 L-10.85 -15.0 -10.65 -15.1 -10.65 -15.15 Q-9.6 -15.15 -9.15 -14.7 -8.65 -14.25 -8.9 -13.2 -8.95 -12.7 -9.3 -12.4 M-2.0 -14.25 L-1.65 -14.55 -1.25 -14.7 -0.4 -14.25 Q0.2 -13.85 0.4 -13.1 -0.7 -11.75 -1.5 -10.05 -1.85 -9.25 -2.35 -8.55 -3.15 -8.9 -3.4 -9.7 L-3.5 -10.0 Q-3.95 -12.3 -2.5 -13.8 L-2.0 -14.25" fill="#ffccff" fill-rule="evenodd" stroke="none"/>
    <path d="M4.55 -58.55 L4.7 -58.3 4.75 -58.25 Q5.3 -57.35 5.4 -56.25 L5.25 -55.35 4.75 -53.95 Q4.85 -53.4 4.35 -53.25 L4.15 -53.25 4.1 -53.3 3.6 -53.85 3.55 -54.55 4.05 -54.05 4.8 -56.05 4.8 -56.55 4.55 -57.55 4.3 -58.1 4.4 -58.2 4.5 -58.3 4.55 -58.55 M8.75 -57.9 L9.15 -57.6 9.25 -57.45 Q9.25 -56.85 8.8 -56.4 L8.2 -56.05 7.95 -55.95 7.75 -55.95 7.2 -55.95 7.05 -56.5 7.15 -56.55 Q7.2 -56.45 7.3 -56.5 L7.4 -56.55 7.35 -56.45 7.35 -56.4 7.55 -56.35 Q8.35 -56.55 8.7 -57.3 L8.9 -57.6 8.55 -57.75 8.45 -57.8 8.75 -57.9 M0.65 -57.85 L0.85 -57.7 Q1.2 -57.45 1.2 -57.0 1.2 -55.9 0.75 -54.9 L0.4 -55.4 -0.15 -55.8 -0.7 -56.1 -0.95 -56.4 -0.7 -56.7 -0.5 -56.6 -0.3 -56.5 0.55 -55.45 0.6 -55.6 0.65 -55.7 0.7 -55.75 0.75 -55.85 0.8 -56.1 0.8 -56.25 0.85 -56.3 0.9 -56.9 0.9 -56.95 0.9 -57.1 0.8 -57.25 0.3 -57.65 0.55 -57.8 0.65 -57.85" fill="#990099" fill-rule="evenodd" stroke="none"/>
    <path d="M7.05 -56.5 L7.05 -56.75 7.15 -56.55 7.05 -56.5 M23.9 -28.95 L23.9 -28.85 23.95 -28.8 24.05 -28.3 24.15 -25.2 23.95 -24.0 23.2 -20.65 23.2 -20.6 23.25 -20.5 23.55 -20.75 24.1 -21.35 Q24.7 -22.15 24.95 -23.1 L25.4 -26.1 25.4 -28.1 25.45 -28.15 25.7 -28.0 26.45 -27.6 26.85 -26.6 27.35 -24.95 27.55 -23.05 27.55 -20.1 27.4 -19.55 27.2 -15.2 27.05 -14.4 Q26.75 -13.5 27.3 -12.95 L27.45 -12.9 26.75 -10.95 28.1 -12.9 28.55 -14.05 28.6 -14.15 Q30.8 -19.45 30.4 -25.0 L30.45 -25.0 32.2 -24.55 Q32.75 -24.45 33.15 -24.15 L33.1 -24.15 32.7 -22.3 30.3 -12.6 26.7 -4.9 Q25.5 -2.55 24.75 -0.1 L24.7 0.4 24.45 0.75 24.8 0.75 Q25.55 0.15 26.45 -0.25 27.0 -0.55 27.4 -1.0 L27.65 -1.25 27.6 -1.45 27.9 -0.75 27.85 -0.65 27.45 0.2 Q25.4 3.5 23.8 7.2 21.75 11.9 19.15 16.3 L17.5 18.7 11.0 26.7 8.1 29.75 5.25 32.55 4.9 33.25 4.75 33.8 4.55 34.25 3.65 35.6 2.2 37.6 Q-0.95 40.9 -4.7 43.6 L-11.2 48.05 -11.0 46.6 -10.6 45.5 Q-9.1 42.25 -8.4 38.9 L-8.35 38.7 -6.95 37.75 Q-2.25 34.55 1.15 29.9 L1.65 29.25 2.0 28.65 2.5 27.75 3.5 25.85 4.55 24.0 5.5 22.1 6.5 20.15 7.35 18.45 4.3 22.0 2.5 24.05 2.85 23.65 Q4.75 20.3 5.8 16.55 L5.95 16.3 8.9 7.55 8.9 7.3 8.9 7.15 9.15 6.8 9.7 6.1 10.55 4.9 10.85 4.4 12.55 1.3 13.6 -0.6 15.35 -4.05 17.05 -7.3 18.1 -9.25 19.1 -11.2 20.2 -13.7 21.4 -17.4 21.75 -18.55 21.75 -18.75 21.7 -18.65 21.65 -18.7 22.2 -20.6 22.25 -21.3 22.6 -25.6 22.75 -29.4 23.0 -29.25 23.15 -29.2 23.9 -28.95 M-7.3 26.9 L-7.3 26.55 Q-7.3 25.85 -7.45 25.2 L-7.7 25.4 -8.55 26.7 -8.95 26.6 -9.05 26.6 -9.4 25.85 -10.4 23.75 -10.5 23.45 -10.75 22.6 -9.25 23.0 -8.05 23.4 -5.2 23.85 -4.15 22.6 -1.3 18.8 Q4.15 11.15 9.15 3.15 L10.4 1.1 8.8 5.65 8.7 5.6 Q8.25 5.7 7.9 6.15 L7.9 6.4 6.9 9.5 6.9 9.75 6.5 11.35 6.35 11.5 6.15 11.75 Q3.95 16.65 1.05 21.25 L0.1 22.85 Q-1.5 25.75 -4.2 27.45 L-7.3 26.9 M6.35 -19.1 Q5.4 -18.6 4.25 -18.45 L4.2 -18.5 4.15 -18.5 4.15 -18.55 3.85 -18.9 Q3.65 -18.85 3.45 -19.05 L2.55 -19.9 2.45 -20.0 2.2 -20.3 1.6 -20.95 1.15 -21.45 0.95 -21.65 0.6 -22.15 0.55 -22.2 -0.8 -23.95 -2.35 -26.0 -2.75 -26.6 -3.85 -28.4 -3.7 -28.65 -3.15 -28.9 -3.0 -28.85 -3.0 -28.9 -2.3 -29.45 -2.3 -29.4 Q0.8 -23.4 6.35 -19.1 M18.55 -23.6 L18.7 -23.8 Q18.15 -20.25 16.95 -17.0 L14.45 -10.6 14.1 -10.75 13.3 -11.15 13.1 -11.25 Q10.8 -12.35 8.65 -13.7 L8.85 -13.85 Q14.4 -17.95 18.55 -23.6 M25.1 -14.15 L25.1 -16.1 25.15 -16.25 25.2 -16.95 25.3 -17.1 25.35 -17.2 25.35 -17.35 25.45 -17.95 25.35 -18.1 25.3 -18.2 25.2 -18.2 25.1 -18.2 24.45 -17.15 Q24.05 -15.2 23.25 -13.4 L22.2 -11.0 Q19.9 -6.15 18.0 -1.15 17.3 -0.65 17.3 0.2 L16.4 1.5 15.55 2.95 Q13.6 5.75 12.75 8.85 L12.6 8.95 12.55 9.0 12.45 9.05 Q12.3 9.35 12.4 9.7 L14.85 7.6 16.0 6.25 16.05 6.25 15.65 6.9 15.75 6.95 15.9 6.95 17.8 4.6 19.55 2.2 21.15 -0.35 22.5 -2.95 23.75 -6.05 23.8 -6.2 24.4 -8.2 24.5 -9.8 Q24.75 -11.15 25.3 -12.55 25.7 -13.5 25.65 -14.55 L25.5 -14.6 25.1 -14.15 M-25.45 -13.05 L-25.25 -13.35 -24.4 -13.25 -18.15 -12.65 -17.65 -12.65 -17.6 -12.7 -17.6 -12.65 -17.2 -12.8 -17.05 -12.75 -17.0 -12.7 -16.95 -12.7 -16.85 -12.65 Q-15.75 -9.5 -14.15 -6.55 -13.05 -2.75 -11.2 0.75 L-6.25 9.35 -9.9 11.7 -10.6 12.15 Q-10.7 8.25 -11.3 4.75 -12.0 0.85 -14.25 -2.8 -18.75 -9.15 -25.45 -13.05 M-6.35 17.2 L-7.3 18.05 -7.55 17.95 -7.55 17.85 -6.35 17.2 M27.9 54.0 L27.75 54.3 27.6 54.05 27.9 54.0 M-2.55 53.75 L-2.5 53.7 -2.55 53.75 M-1.3 53.15 L-1.4 53.15 -1.2 53.05 -1.3 53.15 M-0.4 48.55 L3.35 45.55 8.15 47.15 12.75 47.6 13.15 47.25 13.25 46.95 13.35 46.25 13.3 45.85 13.1 45.35 17.2 45.4 17.25 45.9 17.45 46.35 17.85 46.7 18.4 47.0 18.45 47.35 Q19.7 50.25 21.3 52.75 L21.5 53.15 Q20.15 54.05 18.95 54.9 16.7 56.35 14.2 56.35 L13.4 53.55 Q12.95 51.9 12.95 50.2 L13.0 49.25 12.7 48.75 12.95 48.05 Q12.1 49.4 11.6 50.8 10.9 52.8 10.9 55.05 10.4 54.35 9.2 54.1 L7.65 53.7 Q4.5 53.75 1.65 54.65 L1.6 50.15 1.7 49.7 -3.05 52.15 Q-2.15 49.95 -0.4 48.55 M21.8 4.4 L21.85 4.3 22.1 3.55 Q21.3 3.7 21.1 4.5 L20.2 5.2 Q18.05 7.8 16.05 10.55 13.55 12.75 11.75 15.6 L11.3 16.45 6.15 24.9 Q5.15 26.55 5.05 28.25 L5.35 28.4 4.0 29.8 5.8 28.45 6.05 28.25 8.0 26.5 8.7 25.8 8.65 25.9 10.7 23.6 11.3 22.8 14.65 18.1 15.05 17.4 15.15 17.3 16.0 15.85 16.0 15.8 17.9 12.15 17.95 12.05 18.25 11.5 19.6 9.1 19.55 9.1 19.5 9.05 21.9 4.45 21.8 4.4 M15.25 0.05 L15.3 0.05 15.3 0.0 15.25 0.05 M21.6 45.0 L21.45 44.75 22.45 44.5 24.95 46.8 25.1 46.95 27.0 49.0 28.05 50.4 24.45 51.2 24.25 50.8 24.25 50.7 23.8 49.2 21.85 45.55 21.6 45.0 M4.0 59.15 L4.15 59.15 Q7.3 59.2 9.2 61.75 9.8 62.6 9.5 63.55 L9.75 64.0 Q10.0 64.65 9.7 65.25 L9.5 65.55 9.25 65.6 Q8.45 65.8 8.05 65.15 L8.0 65.0 Q6.75 64.25 5.85 63.05 4.95 61.8 3.7 61.05 3.35 61.0 3.1 60.75 2.6 60.2 3.05 59.6 L3.2 59.4 3.3 59.35 4.0 59.15" fill="#990000" fill-rule="evenodd" stroke="none"/>
    <path d="M5.6 -47.8 L5.6 -47.6 5.4 -45.55 5.3 -43.7 4.9 -43.75 4.2 -43.8 Q3.65 -43.7 3.75 -43.2 L3.9 -43.25 4.1 -42.9 6.45 -42.85 6.4 -42.75 Q6.3 -42.05 6.45 -41.3 L6.35 -41.1 Q6.2 -40.7 6.5 -40.4 L6.55 -40.35 6.35 -40.35 6.25 -40.3 6.0 -40.3 Q5.65 -40.4 5.3 -40.65 L5.1 -40.65 Q4.0 -40.65 3.55 -39.75 L3.8 -39.8 3.75 -39.75 3.8 -39.75 4.5 -40.1 4.75 -40.2 5.0 -40.05 5.5 -39.9 5.5 -39.85 5.65 -39.75 5.8 -39.75 5.85 -39.75 7.85 -40.0 8.05 -40.05 8.05 -39.95 8.4 -38.8 7.3 -39.0 7.1 -39.0 7.0 -39.0 6.55 -39.0 6.45 -39.0 6.35 -39.0 5.6 -38.9 5.45 -38.9 5.25 -38.85 5.2 -38.85 4.55 -38.8 Q3.6 -38.75 3.7 -37.85 3.7 -37.65 3.9 -37.6 L5.45 -37.35 6.0 -37.35 6.2 -37.4 6.55 -37.45 6.7 -37.55 Q6.2 -36.9 6.25 -36.05 L6.25 -35.9 4.25 -35.95 3.7 -35.85 Q1.3 -39.75 -0.55 -43.8 -0.45 -45.55 -1.15 -46.9 L-1.2 -46.95 -1.25 -47.1 1.65 -46.85 3.2 -46.7 3.15 -46.85 3.5 -46.9 3.75 -47.3 Q3.9 -48.15 4.7 -48.4 L5.35 -48.3 5.55 -47.95 5.6 -47.8 5.0 -47.85 5.6 -47.8 M7.45 -33.9 L7.45 -33.85 7.35 -33.9 7.45 -33.9 M5.3 -33.75 L5.1 -33.25 Q5.4 -32.25 6.4 -32.1 L7.7 -32.05 9.75 -32.1 10.4 -32.4 11.55 -32.85 11.95 -31.5 11.25 -29.55 11.25 -29.5 11.3 -29.5 Q11.0 -29.0 11.25 -28.3 L11.6 -27.4 9.05 -27.55 Q7.25 -27.5 5.6 -26.9 L5.8 -26.55 3.85 -29.7 3.65 -30.05 Q3.15 -30.7 3.0 -31.5 L2.4 -32.4 2.6 -33.4 Q2.6 -34.8 2.75 -36.2 3.25 -35.65 3.55 -34.9 3.8 -34.15 4.7 -33.85 L5.3 -33.75 M-2.1 -59.1 L-1.75 -59.25 -1.95 -59.15 Q-0.5 -59.4 0.95 -59.15 L1.05 -59.1 Q2.4 -58.7 3.4 -57.65 L3.45 -57.6 3.2 -57.3 3.15 -57.15 2.85 -56.25 2.75 -56.1 Q2.55 -55.4 2.85 -54.7 L3.2 -54.25 3.6 -53.85 4.1 -53.3 4.15 -53.25 3.8 -52.6 1.95 -51.9 1.65 -51.9 1.45 -51.9 -0.2 -52.9 Q-0.8 -53.25 -1.45 -53.4 L-2.25 -53.45 -2.35 -54.25 -2.35 -54.3 -2.15 -57.2 -2.05 -57.6 Q-1.85 -58.35 -2.1 -59.0 L-2.1 -58.95 -2.1 -59.1 M2.3 -51.05 Q2.95 -50.9 3.05 -50.1 L3.1 -49.8 2.05 -50.3 0.75 -50.9 -1.15 -51.3 -2.1 -51.35 -2.3 -51.45 -2.2 -52.4 -2.2 -52.5 -2.2 -52.6 -1.9 -52.65 -1.4 -52.45 -0.4 -52.1 0.0 -51.85 0.7 -51.65 1.1 -51.5 2.3 -50.95 2.3 -51.05 M-0.95 -56.4 L-0.7 -56.1 -0.15 -55.8 0.4 -55.4 0.75 -54.9 Q1.2 -55.9 1.2 -57.0 1.2 -57.45 0.85 -57.7 L0.65 -57.85 -0.7 -58.1 -1.4 -57.3 -1.4 -56.95 -1.3 -56.9 -1.3 -56.85 -1.25 -56.75 -1.2 -56.7 -1.15 -56.6 -1.15 -56.55 -0.95 -56.4 M0.8 -57.25 L0.9 -57.1 0.9 -56.95 0.9 -57.1 0.8 -57.25 M6.7 -51.3 L6.65 -51.35 6.7 -51.4 6.75 -51.4 6.7 -51.3 M11.2 -47.25 L11.3 -46.95 7.85 -46.85 8.05 -47.0 8.35 -47.05 10.45 -47.45 11.05 -47.4 11.2 -47.25 M11.4 -46.95 L11.35 -46.5 11.15 -45.1 11.0 -44.4 10.4 -44.65 7.6 -45.35 7.75 -46.85 11.4 -46.95 M8.55 -29.5 L7.65 -29.6 7.1 -29.8 Q6.5 -30.15 6.4 -30.85 L6.4 -30.9 6.3 -30.9 6.2 -30.85 6.1 -30.75 Q5.6 -29.85 6.05 -28.85 6.25 -28.4 6.75 -28.2 L7.2 -28.05 Q7.95 -28.05 8.55 -28.55 L8.9 -28.9 8.85 -29.4 8.55 -29.5" fill="#efd1b6" fill-rule="evenodd" stroke="none"/>
    <path d="M9.0 -50.15 L9.45 -50.45 9.5 -50.45 Q10.3 -50.45 10.15 -49.65 L9.8 -49.3 9.5 -49.25 Q9.15 -49.3 9.0 -49.7 L8.95 -49.95 9.0 -50.15 M0.35 -49.25 L0.25 -49.5 0.2 -49.75 0.45 -50.2 0.7 -50.3 Q1.2 -50.35 1.3 -50.05 L1.4 -49.45 1.05 -49.1 0.95 -49.05 Q0.55 -49.0 0.35 -49.25 M4.15 -18.5 L4.8 -17.7 5.5 -16.9 5.45 -16.85 5.95 -16.3 7.15 -15.1 7.45 -14.9 7.85 -14.55 8.25 -14.25 8.3 -14.3 8.45 -14.15 8.85 -13.85 8.65 -13.7 Q10.8 -12.35 13.1 -11.25 L13.2 -11.15 13.3 -11.15 14.1 -10.75 14.4 -10.65 13.9 -9.2 12.9 -9.6 14.0 -9.15 13.5 -7.7 9.55 -9.45 9.4 -9.4 9.35 -9.35 9.3 -9.15 9.3 -8.95 9.35 -8.85 9.4 -8.8 9.5 -8.7 9.5 -8.5 9.55 -8.1 9.85 -7.7 10.4 -5.7 10.4 -3.55 Q10.25 -2.4 9.7 -1.25 L9.4 -0.55 9.7 -0.95 7.5 2.3 7.35 2.5 6.95 3.2 6.85 3.4 5.7 4.95 5.25 5.15 5.7 4.95 5.1 5.65 Q2.6 6.95 -0.3 6.3 L-0.75 6.05 Q-1.25 5.6 -1.85 5.55 L-2.05 5.7 -2.15 5.8 -2.15 6.55 -1.25 8.15 0.85 10.0 1.3 10.3 1.35 10.2 0.55 11.15 Q-2.7 8.4 -5.15 5.05 L-9.95 -1.7 Q-13.85 -7.85 -16.5 -14.7 -17.0 -14.65 -17.35 -14.95 L-17.3 -14.65 -25.4 -14.8 -26.45 -14.85 -26.3 -14.9 -24.55 -14.95 -22.4 -15.45 Q-21.0 -15.9 -19.75 -16.6 -18.45 -17.35 -17.5 -18.45 L-17.35 -18.8 -17.3 -19.0 -17.7 -18.8 -17.3 -19.05 -16.7 -21.15 -15.8 -23.05 -15.6 -23.4 -15.55 -23.4 -14.95 -23.35 -14.3 -23.65 -14.2 -23.75 -12.8 -24.4 -12.85 -24.25 -13.35 -23.15 -14.3 -20.7 Q-14.95 -18.8 -14.8 -16.65 L-14.7 -15.8 Q-14.05 -17.6 -12.25 -18.75 -10.45 -19.95 -8.75 -20.8 -6.3 -23.55 -6.35 -26.85 L-6.35 -26.95 -6.35 -27.1 Q-6.0 -27.1 -5.75 -27.35 L-4.25 -28.15 -3.85 -28.35 -3.85 -28.4 -2.75 -26.6 -2.35 -26.0 -0.8 -23.95 0.55 -22.2 0.6 -22.15 0.95 -21.65 1.6 -20.95 2.2 -20.3 2.45 -20.0 2.55 -19.9 3.45 -19.05 Q3.65 -18.85 3.85 -18.9 L4.15 -18.55 4.15 -18.5 M12.9 -6.0 L12.8 -5.9 12.7 -5.5 12.7 -6.15 12.8 -6.05 12.9 -6.0 M1.4 -15.4 L0.6 -16.0 0.2 -16.3 Q-2.35 -17.95 -5.45 -18.2 -4.7 -16.4 -4.8 -14.35 L-4.85 -10.25 Q-5.1 -8.15 -6.25 -6.45 L-6.25 -6.4 -6.3 -6.3 -8.8 -3.15 -8.4 -2.6 -6.5 0.1 -5.0 1.5 -4.7 1.85 -2.65 3.5 -2.2 3.8 -1.5 4.05 0.3 4.4 0.8 4.5 2.95 4.4 5.15 3.15 Q6.7 1.85 7.45 0.1 L7.7 -0.25 7.95 -0.6 Q8.8 -2.15 8.95 -3.9 L9.05 -4.1 9.0 -4.45 9.0 -4.5 9.0 -4.6 9.05 -4.65 9.05 -4.75 9.0 -4.9 9.0 -4.95 Q9.2 -5.75 8.8 -6.45 L8.65 -6.85 8.4 -7.65 8.25 -7.65 8.05 -8.25 7.0 -9.65 6.85 -9.75 3.45 -13.55 3.4 -13.6 3.15 -13.85 2.2 -14.7 2.05 -14.85 1.75 -15.1 1.4 -15.4 M38.55 -19.3 Q37.95 -20.4 36.5 -20.35 L35.9 -20.25 35.8 -20.25 35.35 -20.2 35.0 -19.95 34.35 -19.25 34.2 -18.6 34.05 -18.4 Q33.1 -16.75 33.55 -14.95 L33.75 -14.6 Q33.8 -13.7 34.1 -12.9 34.45 -11.9 35.3 -11.3 36.0 -10.85 36.8 -10.7 L37.35 -10.55 37.55 -10.65 38.05 -10.85 38.5 -11.1 40.1 -12.7 40.25 -12.8 40.3 -12.9 40.35 -13.05 40.75 -14.1 40.9 -15.2 40.9 -16.2 40.55 -17.25 40.4 -17.7 40.25 -17.9 Q39.65 -19.0 38.55 -19.3 M28.75 0.1 L28.8 -0.3 29.1 -1.2 29.15 -1.25 29.15 -1.3 Q29.2 -2.1 29.6 -2.35 L30.0 -3.45 29.85 -3.35 Q32.85 -12.2 34.0 -21.85 L34.6 -21.75 34.05 -21.85 34.05 -21.9 34.1 -22.25 34.2 -22.4 34.45 -22.75 34.6 -22.75 35.0 -22.6 36.3 -21.6 37.7 -20.55 39.05 -19.4 41.25 -17.4 43.3 -15.25 43.7 -14.7 44.25 -13.95 44.25 -13.9 44.7 -13.1 Q44.6 -12.7 44.8 -12.55 L44.85 -12.3 42.05 -9.8 42.15 -10.0 42.2 -10.05 Q43.5 -10.9 44.0 -12.35 44.15 -12.85 43.9 -13.3 L43.8 -13.5 Q43.45 -14.25 42.65 -14.25 L42.4 -14.2 42.35 -14.2 41.15 -12.6 41.1 -12.4 41.75 -12.25 40.95 -12.4 38.2 -9.6 Q36.65 -8.3 34.8 -7.6 34.85 -7.2 35.25 -6.7 L35.4 -6.15 35.6 -5.9 33.85 -5.05 34.4 -5.3 34.15 -5.2 Q33.0 -4.65 32.35 -3.7 L31.55 -2.8 31.6 -2.8 30.75 -0.75 30.75 -0.3 Q30.7 0.4 30.25 0.7 L28.85 -0.05 28.8 -0.05 28.75 0.1 M25.05 25.3 L25.1 25.5 24.95 25.85 25.15 26.85 25.15 28.8 Q20.75 26.95 16.95 24.1 L17.5 23.25 18.1 22.5 18.15 22.5 18.25 22.4 18.3 22.35 Q18.35 21.9 18.7 21.65 L18.75 21.65 18.7 21.7 Q22.15 23.0 25.0 25.3 L25.05 25.35 25.05 25.3 M23.45 12.85 L23.4 12.85 23.4 12.8 23.45 12.85 M-2.65 -23.05 L-2.75 -23.2 -3.65 -24.4 -3.65 -24.5 -3.85 -24.75 -3.9 -25.0 -3.95 -25.15 Q-4.1 -25.65 -4.55 -25.8 L-4.65 -25.8 Q-5.15 -25.45 -5.15 -24.75 L-5.25 -24.4 Q-5.25 -23.55 -5.6 -22.75 -5.7 -22.2 -5.95 -21.7 L-6.0 -21.4 -6.0 -21.35 -6.0 -21.3 -5.5 -21.0 -4.4 -20.8 -2.7 -20.35 -2.65 -20.3 -2.25 -20.2 -1.9 -20.0 Q-1.45 -19.85 -1.1 -19.5 -0.8 -19.15 -0.4 -19.3 -0.05 -19.4 -0.1 -19.8 -0.2 -20.55 -0.9 -20.95 L-1.9 -22.0 -1.95 -22.1 -2.65 -23.05 M-4.65 -21.8 L-4.55 -21.95 -4.65 -21.75 -4.65 -21.8 M-8.7 -17.4 L-8.75 -17.5 -9.25 -17.1 -11.8 -14.6 -12.0 -14.1 Q-13.1 -11.45 -12.05 -8.8 L-11.9 -8.4 -11.8 -8.2 Q-11.25 -6.6 -10.2 -5.9 L-10.05 -6.15 -9.95 -5.8 Q-9.85 -5.55 -9.55 -5.65 -8.75 -5.85 -8.3 -6.6 L-7.75 -7.35 -7.55 -7.75 -7.0 -8.5 -6.65 -9.25 -6.35 -12.45 Q-6.3 -14.7 -6.9 -16.85 -7.2 -17.9 -8.25 -17.9 L-8.35 -17.85 -8.45 -17.8 -8.7 -17.4 M-14.95 -20.95 L-14.9 -21.25 -14.9 -21.3 -14.95 -20.95 M-15.25 -19.05 L-15.3 -18.5 -15.2 -19.5 -15.25 -19.05 M11.95 36.2 Q12.65 36.3 13.05 36.95 L13.25 37.45 Q13.4 38.05 13.15 38.6 12.9 39.3 12.3 39.7 L10.0 39.85 9.6 39.85 Q9.1 39.5 9.6 39.2 L10.5 38.9 Q11.35 38.75 11.65 37.95 L11.65 36.9 Q11.4 36.6 11.65 36.3 L11.95 36.2 M4.55 40.8 L4.6 40.8 5.8 41.15 9.1 41.45 12.45 40.9 12.75 40.8 13.6 40.35 13.8 40.15 14.15 39.65 Q15.0 38.3 14.55 36.8 14.35 36.0 13.6 35.55 L13.0 35.25 Q11.6 34.65 10.1 34.75 L9.5 34.85 9.3 35.2 9.9 34.15 14.25 33.95 18.4 37.4 Q15.7 39.45 13.95 41.95 L2.55 42.65 2.3 41.95 3.8 41.0 Q4.3 40.7 4.9 41.0 L4.6 40.9 4.55 40.8" fill="#660045" fill-rule="evenodd" stroke="none"/>
    <path d="M18.85 -59.25 L19.0 -59.0 19.05 -58.85 19.0 -58.85 18.95 -59.0 18.85 -59.25 M21.05 -30.6 L21.0 -30.6 21.0 -30.65 21.05 -30.6 M17.1 -46.3 L17.1 -46.35 17.2 -46.35 17.1 -46.3 M16.6 -53.6 L16.15 -53.1 16.3 -53.65 16.35 -53.9 16.6 -53.6 M19.8 -47.25 L20.3 -45.25 20.45 -43.8 20.45 -43.7 20.45 -43.8 19.7 -47.2 19.8 -47.25 M1.0 -31.75 L1.05 -31.8 1.05 -31.7 1.0 -31.75" fill="#9c8732" fill-rule="evenodd" stroke="none"/>
    <path d="M19.05 -58.85 L19.75 -57.65 25.1 -47.3 Q26.7 -40.25 25.75 -33.15 L25.4 -30.8 Q25.3 -36.1 24.1 -41.65 L23.4 -44.6 22.85 -48.25 21.95 -51.55 20.25 -55.95 19.0 -58.85 19.05 -58.85 M25.05 -29.45 L25.1 -29.1 Q23.25 -30.65 21.05 -30.6 L21.0 -30.65 21.05 -30.75 Q21.55 -33.5 21.45 -36.25 L22.5 -39.2 23.2 -41.8 23.55 -39.6 23.6 -39.3 23.6 -39.1 25.05 -29.45 M20.3 -30.1 L20.3 -30.05 20.05 -30.0 Q18.45 -31.0 17.7 -32.55 16.8 -32.3 16.3 -31.3 L15.3 -37.65 Q14.65 -40.95 15.35 -43.9 L15.3 -45.35 Q15.2 -46.05 15.95 -46.35 L16.05 -46.2 Q17.1 -43.75 17.2 -40.95 L17.6 -35.3 17.9 -35.6 Q18.35 -41.3 17.1 -46.3 L17.2 -46.35 Q18.55 -48.5 18.75 -50.8 L18.95 -50.35 19.8 -47.25 19.7 -47.2 19.6 -47.3 Q19.35 -45.95 19.75 -44.55 20.15 -43.2 20.2 -41.7 21.15 -35.7 20.3 -30.1 M1.6 -32.55 Q0.7 -34.6 0.7 -36.75 L0.55 -36.95 Q0.05 -36.3 0.25 -35.5 L0.4 -33.95 1.05 -31.8 1.0 -31.75 0.1 -32.4 -0.85 -31.4 -1.2 -34.4 -1.3 -35.75 Q-1.5 -37.65 -0.5 -39.25 L-0.25 -39.65 Q0.1 -40.05 0.0 -40.45 L1.95 -36.65 1.75 -32.3 1.6 -32.55" fill="#98780c" fill-rule="evenodd" stroke="none"/>
    <path d="M7.3 -48.15 L6.9 -48.45 Q6.7 -48.7 7.0 -48.85 L7.05 -48.85 7.45 -48.9 7.35 -48.8 7.4 -48.8 7.35 -48.8 7.25 -48.7 7.45 -48.8 7.5 -48.8 7.9 -48.75 7.55 -48.85 7.5 -48.9 8.7 -49.15 9.05 -49.15 9.3 -49.2 9.5 -49.25 Q9.8 -49.15 10.05 -49.4 L10.7 -49.6 10.95 -49.7 11.05 -49.75 11.9 -50.0 12.1 -49.85 12.15 -49.9 12.2 -50.0 12.25 -50.05 12.4 -50.55 12.7 -50.35 Q13.2 -49.55 12.05 -49.0 L10.6 -48.6 9.25 -48.25 7.5 -48.15 7.3 -48.15 M7.45 -48.9 L7.5 -48.9 7.45 -48.9" fill="#67441d" fill-rule="evenodd" stroke="none"/>
    <path d="M28.45 57.7 L28.2 58.2 27.85 58.35 26.2 59.25 25.85 59.45 Q25.2 59.7 24.6 60.15 L23.15 61.2 Q21.4 62.4 20.15 64.1 18.8 65.2 17.75 66.65 L16.55 67.8 Q15.0 69.5 12.9 70.65 L12.55 70.85 10.6 71.25 10.45 71.3 9.3 71.2 9.25 71.15 8.85 70.5 8.5 68.8 7.4 66.8 Q6.1 65.15 4.5 63.85 2.8 63.7 1.75 62.25 0.7 60.75 -0.75 60.25 L-0.75 60.75 -0.8 60.75 1.25 62.5 1.35 62.4 1.35 62.45 3.95 64.85 0.25 62.45 -8.85 57.45 -8.9 57.4 -8.7 56.0 -7.65 56.75 Q-5.9 57.95 -3.7 57.65 L0.35 57.25 Q5.15 57.1 9.5 58.2 10.15 57.6 11.4 57.95 13.4 59.0 15.55 58.95 L20.0 58.6 22.55 57.95 22.6 57.95 22.6 57.9 Q24.35 55.45 26.9 54.85 L27.6 56.0 27.65 56.0 28.2 57.1 28.45 57.7 M24.05 -28.3 L24.0 -28.7 24.4 -28.8 25.7 -28.0 25.45 -28.15 25.4 -28.15 25.4 -28.1 25.4 -26.1 24.95 -23.1 Q24.7 -22.15 24.1 -21.35 L23.55 -20.75 23.3 -20.55 23.2 -20.65 23.95 -24.0 24.15 -25.2 24.05 -28.3 M28.9 -25.95 Q29.95 -25.8 30.4 -25.05 L30.4 -25.0 Q30.8 -19.45 28.6 -14.15 L28.55 -14.05 28.1 -12.9 26.75 -10.95 27.45 -12.9 27.45 -12.95 27.85 -14.2 28.65 -17.55 29.0 -21.05 29.0 -24.65 28.9 -25.95 M33.4 -23.85 L33.65 -23.55 33.65 -23.45 33.65 -23.4 33.55 -22.7 Q32.05 -12.3 28.65 -2.35 L27.95 -1.55 27.6 -1.45 27.65 -1.25 27.4 -1.0 Q27.0 -0.55 26.45 -0.25 25.55 0.15 24.8 0.75 L24.45 0.75 24.7 0.4 24.75 -0.1 Q25.5 -2.55 26.7 -4.9 L30.3 -12.6 32.7 -22.3 33.1 -24.15 33.4 -23.85 M28.0 -0.6 Q23.9 12.2 16.1 23.6 L13.05 27.8 10.25 31.5 10.25 31.55 6.85 35.5 6.55 35.85 6.5 35.85 6.4 36.0 5.1 37.4 3.8 38.8 2.8 39.8 Q-2.7 45.15 -8.35 49.95 L-10.65 51.45 -10.95 50.5 -11.2 48.05 -4.7 43.6 Q-0.95 40.9 2.2 37.6 L3.65 35.6 4.55 34.25 4.75 33.8 4.9 33.25 5.25 32.55 8.1 29.75 11.0 26.7 17.5 18.7 19.15 16.3 Q21.75 11.9 23.8 7.2 25.4 3.5 27.45 0.2 L27.85 -0.65 28.0 -0.6 M-7.55 36.3 L-7.6 36.0 -8.3 37.35 -8.4 37.3 -8.55 37.25 -8.9 35.9 -8.95 33.4 -8.85 32.9 -8.8 32.45 -8.65 31.75 -8.5 31.65 -8.6 31.6 -7.7 28.6 -7.65 28.45 -7.6 28.25 -7.55 28.15 -7.5 28.0 -7.5 27.9 -7.45 27.75 -7.35 27.2 -7.3 26.9 -4.2 27.45 Q-1.5 25.75 0.1 22.85 L1.05 21.25 Q3.95 16.65 6.15 11.75 L6.35 11.5 6.5 11.35 6.9 9.75 6.9 9.5 7.9 6.4 7.9 6.15 Q8.25 5.7 8.7 5.6 L8.8 5.65 8.55 6.35 8.3 7.0 8.4 7.05 8.4 7.0 8.5 7.05 8.4 7.75 8.9 7.15 8.9 7.3 8.9 7.55 5.95 16.3 5.8 16.55 Q4.75 20.3 2.85 23.65 L2.5 24.05 2.15 24.45 1.1 25.7 0.55 26.25 Q-2.05 28.85 -4.3 31.75 L-4.4 31.8 -4.45 31.9 -5.15 32.8 -6.2 34.3 -7.55 36.3 M6.45 -19.55 L7.05 -19.1 6.95 -19.1 6.25 -19.05 6.35 -19.1 Q0.8 -23.4 -2.3 -29.4 L-2.0 -29.65 -1.8 -29.65 -1.0 -28.2 Q1.9 -23.2 6.45 -19.55 M18.9 -24.95 L18.55 -23.6 Q14.4 -17.95 8.85 -13.85 L8.45 -14.15 8.3 -14.3 Q14.35 -18.55 18.9 -24.95 M16.0 6.25 L14.85 7.6 12.4 9.7 Q12.3 9.35 12.45 9.05 L12.55 9.0 12.6 8.95 12.75 8.85 Q13.6 5.75 15.55 2.95 L16.4 1.5 17.3 0.2 Q17.3 -0.65 18.0 -1.15 19.9 -6.15 22.2 -11.0 L23.25 -13.4 Q24.05 -15.2 24.45 -17.15 L25.1 -18.2 25.2 -18.2 25.3 -18.2 25.35 -18.1 25.45 -17.95 25.35 -17.35 25.35 -17.2 25.3 -17.1 25.2 -16.95 25.15 -16.25 25.1 -16.1 25.1 -14.15 25.1 -14.1 24.7 -13.65 24.3 -13.1 24.25 -13.05 23.4 -11.25 21.4 -5.75 16.9 4.25 16.45 5.3 16.25 5.6 16.05 6.1 16.05 6.15 16.0 6.25 M-25.75 -12.5 L-25.75 -12.65 -25.8 -12.55 -25.9 -12.45 -25.75 -12.8 -25.45 -13.05 Q-18.75 -9.15 -14.25 -2.8 -12.0 0.85 -11.3 4.75 -10.7 8.25 -10.6 12.15 L-9.9 11.7 -6.25 9.35 -11.2 0.75 Q-13.05 -2.75 -14.15 -6.55 -15.75 -9.5 -16.85 -12.65 L-16.95 -12.7 -17.0 -12.7 -17.05 -12.75 -17.2 -12.8 -17.6 -12.65 -17.6 -12.7 -17.65 -12.65 -18.15 -12.65 -24.4 -13.25 -25.05 -13.35 -25.05 -13.5 -24.7 -13.8 -20.55 -13.7 -17.1 -13.5 -16.75 -13.3 -16.5 -12.75 Q-16.2 -12.45 -16.15 -11.85 L-16.0 -11.3 -15.25 -9.4 -13.2 -5.45 -12.15 -3.5 -11.55 -2.5 -10.3 -0.6 -8.4 2.1 -5.85 5.75 -4.45 7.6 -2.75 9.45 -2.35 9.8 -0.75 11.65 Q-0.55 11.9 -0.75 12.15 L-1.2 12.45 -1.4 12.8 -1.4 12.85 -6.35 17.2 -7.55 17.85 -7.55 17.95 Q-9.15 17.45 -9.5 15.95 -9.9 14.3 -10.6 12.95 L-10.6 12.45 -10.65 12.4 -11.2 11.15 -11.6 10.2 -11.55 7.1 Q-12.6 0.8 -16.3 -4.25 -20.05 -9.3 -25.75 -12.5 M27.6 54.05 L27.65 53.75 27.75 53.65 Q26.75 53.25 25.7 53.65 L23.15 54.75 Q21.8 55.2 21.4 56.75 18.7 57.75 15.7 57.85 L9.95 57.25 Q6.55 55.1 2.4 55.6 L-5.6 56.85 Q-7.35 55.0 -9.85 54.5 L-9.5 53.2 Q-8.95 51.8 -7.75 50.8 -6.1 49.4 -4.3 48.15 L-0.6 46.0 1.55 44.5 2.65 43.3 Q8.75 44.2 14.35 43.1 L15.45 41.8 15.5 41.8 16.1 41.9 17.9 41.75 17.8 41.85 17.6 42.15 Q18.3 43.15 19.95 43.05 L22.8 42.75 25.7 41.9 26.35 43.45 29.4 50.15 28.0 53.75 27.9 54.0 27.6 54.05 M18.05 34.5 L15.5 34.45 Q14.6 33.7 13.65 33.25 L10.95 33.45 11.45 33.4 11.35 33.5 11.25 33.55 11.2 33.6 Q10.45 33.4 10.9 32.7 L12.05 31.2 13.75 28.6 15.85 26.3 16.3 25.7 Q16.5 25.4 16.85 25.4 17.35 25.35 17.65 25.7 L17.65 25.75 Q19.5 27.1 21.65 28.05 23.3 28.75 24.85 29.7 L25.05 29.95 25.05 30.25 Q25.4 31.45 24.85 32.8 L18.65 33.75 Q18.45 33.45 18.3 33.75 L18.05 34.45 18.05 34.5 M-0.85 51.85 L-0.9 51.95 -0.8 51.85 -0.85 51.85 M-2.55 53.75 L-2.5 53.7 -2.55 53.75 M-1.3 53.15 L-1.2 53.05 -1.4 53.15 -1.3 53.15 M-0.4 48.55 Q-2.15 49.95 -3.05 52.15 L1.7 49.7 1.6 50.15 1.65 54.65 Q4.5 53.75 7.65 53.7 L9.2 54.1 Q10.4 54.35 10.9 55.05 10.9 52.8 11.6 50.8 12.1 49.4 12.95 48.05 L12.7 48.75 13.0 49.25 12.95 50.2 Q12.95 51.9 13.4 53.55 L14.2 56.35 Q16.7 56.35 18.95 54.9 20.15 54.05 21.5 53.15 L21.3 52.75 Q19.7 50.25 18.45 47.35 L18.4 47.0 17.85 46.7 17.45 46.35 17.25 45.9 17.2 45.4 13.1 45.35 13.3 45.85 13.35 46.25 13.25 46.95 13.15 47.25 12.75 47.6 8.15 47.15 3.35 45.55 -0.4 48.55 M21.85 4.3 L21.75 4.4 19.85 7.75 17.85 11.05 15.8 14.3 13.65 17.65 11.5 20.75 9.3 23.75 8.95 24.2 5.35 28.4 5.05 28.25 Q5.15 26.55 6.15 24.9 L11.3 16.45 11.75 15.6 Q13.55 12.75 16.05 10.55 18.05 7.8 20.2 5.2 L21.1 4.5 Q21.3 3.7 22.1 3.55 L21.85 4.3 M21.6 45.0 L21.85 45.55 23.8 49.2 24.25 50.7 24.25 50.8 24.45 51.2 28.05 50.4 27.0 49.0 25.1 46.95 24.95 46.8 22.45 44.5 21.45 44.75 21.6 45.0 M24.85 46.6 L24.9 46.6 24.85 46.55 24.85 46.6 M4.0 59.15 L3.3 59.35 3.2 59.4 3.05 59.6 Q2.6 60.2 3.1 60.75 3.35 61.0 3.7 61.05 4.95 61.8 5.85 63.05 6.75 64.25 8.0 65.0 L8.05 65.15 Q8.45 65.8 9.25 65.6 L9.5 65.55 9.7 65.25 Q10.0 64.65 9.75 64.0 L9.5 63.55 Q9.8 62.6 9.2 61.75 7.3 59.2 4.15 59.15 L4.0 59.15 M17.4 66.45 Q18.6 64.75 20.15 63.55 L22.8 61.1 Q20.4 62.15 18.05 63.8 16.3 64.95 15.3 66.7 L17.3 66.7 17.4 66.45" fill="#820000" fill-rule="evenodd" stroke="none"/>
    <path d="M26.45 -27.6 L28.2 -26.7 28.55 -26.45 28.55 -26.4 28.9 -26.05 28.9 -25.95 29.0 -24.65 29.0 -21.05 28.65 -17.55 27.85 -14.2 27.45 -12.95 27.3 -12.95 Q26.75 -13.5 27.05 -14.4 L27.2 -15.2 27.4 -19.55 27.55 -20.1 27.55 -23.05 27.35 -24.95 26.85 -26.6 26.45 -27.6 M-8.35 38.7 L-7.75 37.5 Q-7.45 36.9 -7.55 36.3 L-6.2 34.3 -5.15 32.8 -4.45 31.9 -4.3 31.75 Q-2.05 28.85 0.55 26.25 L1.1 25.7 2.15 24.45 2.5 24.05 4.3 22.0 7.35 18.45 6.5 20.15 5.5 22.1 4.55 24.0 3.5 25.85 2.5 27.75 2.0 28.65 1.65 29.25 1.15 29.9 Q-2.25 34.55 -6.95 37.75 L-8.35 38.7 M-10.75 22.6 Q-11.0 21.25 -10.35 19.95 L-9.75 17.35 Q-9.25 18.55 -8.1 19.1 -3.35 16.75 0.1 12.7 6.7 6.05 11.5 -2.0 L10.4 1.1 9.15 3.15 Q4.15 11.15 -1.3 18.8 L-4.15 22.6 -5.2 23.85 -8.05 23.4 -9.25 23.0 -10.75 22.6 M8.65 6.55 L8.7 6.45 9.0 5.95 9.05 5.85 9.15 5.65 9.5 5.05 10.0 4.05 10.1 3.85 10.35 3.4 11.05 1.9 Q12.7 -1.55 14.0 -5.15 L14.15 -5.6 Q16.5 -12.15 18.45 -18.7 L19.5 -23.9 Q19.85 -26.55 20.75 -29.1 21.35 -30.35 22.2 -29.75 L22.75 -29.4 22.6 -25.6 22.25 -21.3 22.2 -20.6 21.65 -18.7 21.55 -18.35 21.7 -18.65 21.75 -18.55 21.4 -17.4 20.2 -13.7 19.1 -11.2 18.1 -9.25 17.05 -7.3 15.35 -4.05 13.6 -0.6 12.55 1.3 10.85 4.4 10.55 4.9 9.7 6.1 9.15 6.8 8.9 7.15 8.4 7.75 8.5 7.05 8.65 6.55 M25.1 -14.15 L25.5 -14.6 25.65 -14.55 Q25.7 -13.5 25.3 -12.55 24.75 -11.15 24.5 -9.8 L24.4 -8.2 23.8 -6.2 23.75 -6.05 22.5 -2.95 21.15 -0.35 19.55 2.2 17.8 4.6 15.9 6.95 15.8 6.9 16.05 6.25 16.05 6.15 16.05 6.1 16.25 5.6 16.45 5.3 16.9 4.25 21.4 -5.75 23.4 -11.25 24.25 -13.05 24.3 -13.1 24.7 -13.65 25.1 -14.1 25.1 -14.15 M21.75 4.4 L21.8 4.4 21.9 4.45 19.5 9.05 18.25 11.5 17.95 12.05 17.9 12.15 16.0 15.8 16.0 15.85 15.7 16.3 15.15 17.3 15.05 17.4 14.65 18.1 11.3 22.8 10.7 23.6 8.65 25.9 8.7 25.8 8.0 26.5 6.05 28.25 5.8 28.45 4.0 29.8 5.35 28.4 8.95 24.2 9.3 23.75 11.5 20.75 13.65 17.65 15.8 14.3 17.85 11.05 19.85 7.75 21.75 4.4" fill="#b30000" fill-rule="evenodd" stroke="none"/>
    <path d="M30.4 -25.05 L30.45 -25.0 30.4 -25.05 M27.9 -0.75 L28.0 -0.6 27.85 -0.65 27.9 -0.75 M-8.55 26.7 L-8.65 27.05 -8.65 27.1 -8.85 27.05 -8.95 26.85 -9.05 26.6 -8.95 26.6 -8.55 26.7 M21.8 4.4 L21.75 4.4 21.85 4.3 21.8 4.4" fill="#660000" fill-rule="evenodd" stroke="none"/>
    <path d="M33.15 -24.15 L33.4 -23.85 33.1 -24.15 33.15 -24.15 M28.65 -2.35 L28.3 -1.45 27.95 -1.55 28.65 -2.35 M6.85 35.5 L6.4 36.0 6.5 35.85 6.55 35.85 6.85 35.5 M-8.35 49.95 L-8.8 50.3 -9.75 51.4 -10.3 52.2 -10.4 52.25 -10.4 52.2 -10.65 51.45 -8.35 49.95 M-8.45 37.55 L-8.55 37.25 -8.4 37.3 -8.3 37.35 -8.45 37.55 M-8.65 31.75 L-8.6 31.6 -8.5 31.65 -8.65 31.75 M21.65 -18.7 L21.7 -18.65 21.55 -18.35 21.65 -18.7 M30.4 -25.05 L30.45 -25.0 30.4 -25.0 30.4 -25.05 M16.05 6.25 L16.0 6.25 16.05 6.15 16.05 6.25 M27.45 -12.95 L27.45 -12.9 27.3 -12.95 27.45 -12.95 M-4.45 31.9 L-4.4 31.8 -4.3 31.75 -4.45 31.9 M8.7 5.6 L8.8 5.65 8.7 5.6" fill="#912400" fill-rule="evenodd" stroke="none"/>
    <path d="M3.15 -49.55 L3.55 -49.25 3.65 -49.1 3.7 -48.6 3.7 -48.3 3.6 -48.15 3.15 -48.15 2.8 -48.05 2.75 -48.05 2.75 -48.0 2.55 -47.95 2.5 -47.95 2.1 -48.05 -0.7 -48.85 Q-1.35 -49.0 -1.5 -49.3 L-1.6 -49.45 -1.65 -49.25 -1.7 -50.2 -1.35 -50.1 -1.3 -49.95 -1.15 -49.8 -1.05 -49.8 -1.05 -49.75 -1.05 -49.7 -0.85 -49.5 -1.4 -49.55 -0.8 -49.5 -0.75 -49.5 0.35 -49.25 Q0.55 -49.0 0.95 -49.05 L1.2 -49.05 1.35 -49.05 3.1 -48.8 3.05 -48.95 3.0 -49.1 2.9 -49.15 2.9 -49.35 2.9 -49.4 2.8 -49.5 Q3.25 -49.1 3.15 -49.45 L3.15 -49.55 M-0.4 -49.15 L-0.35 -49.1 -0.4 -49.15" fill="#795022" fill-rule="evenodd" stroke="none"/>
    <path d="M9.3 -34.7 L9.35 -34.65 9.3 -34.65 9.3 -34.7 M2.05 -48.05 L2.0 -48.0 2.0 -48.05 2.05 -48.05 M-2.2 -48.95 L-2.1 -48.75 -2.25 -48.9 -2.2 -48.95" fill="#b57b35" fill-rule="evenodd" stroke="none"/>
    <path d="M-1.8 -29.65 L-1.85 -29.7 0.05 -31.2 4.2 -25.85 Q6.35 -23.2 9.05 -21.2 L7.1 -19.05 6.45 -19.55 Q1.9 -23.2 -1.0 -28.2 L-1.8 -29.65 M5.5 -16.9 Q7.65 -18.1 9.25 -20.0 L12.5 -23.8 Q15.35 -27.3 17.5 -31.3 18.25 -30.05 19.55 -29.45 19.55 -27.1 18.95 -25.0 L18.9 -24.95 Q14.35 -18.55 8.3 -14.3 L8.25 -14.25 7.85 -14.55 7.45 -14.9 Q6.65 -15.55 5.95 -16.3 L5.45 -16.85 5.5 -16.9 M-25.8 -12.55 L-25.75 -12.5 Q-20.05 -9.3 -16.3 -4.25 -12.6 0.8 -11.55 7.1 L-11.6 10.2 -11.6 10.65 Q-12.55 9.3 -12.95 7.8 L-13.2 6.45 Q-13.45 4.6 -14.15 2.95 L-14.5 2.15 Q-16.5 -1.9 -20.0 -5.35 -23.5 -8.85 -27.6 -10.7 L-25.9 -12.45 -25.8 -12.55" fill="#cc6600" fill-rule="evenodd" stroke="none"/>
    <path d="M0.9 9.9 L1.35 10.2 1.3 10.3 0.85 10.0 0.9 9.9 M-26.45 -14.85 Q-29.55 -15.0 -32.5 -15.85 L-32.9 -15.95 -33.35 -16.1 -33.5 -16.15 -33.8 -16.2 -36.45 -16.9 -36.5 -16.9 -37.0 -17.05 -40.65 -18.25 -41.0 -18.35 -41.15 -18.4 -41.4 -18.5 -41.9 -18.7 -38.35 -19.05 Q-28.35 -19.35 -19.1 -22.55 L-15.25 -23.9 -15.6 -23.4 -15.8 -23.05 -16.7 -21.15 -17.3 -19.05 -17.7 -18.8 -17.3 -19.0 -17.35 -18.8 -17.5 -18.45 Q-18.45 -17.35 -19.75 -16.6 -21.0 -15.9 -22.4 -15.45 L-24.55 -14.95 -26.3 -14.9 -26.45 -14.85 M-12.8 -24.4 L-12.45 -25.05 -12.35 -25.1 -12.4 -25.15 -12.3 -25.1 Q-12.65 -24.45 -12.2 -23.75 L-11.65 -23.2 Q-10.9 -22.65 -9.95 -23.4 L-9.65 -23.95 -9.55 -24.55 Q-9.55 -26.05 -11.5 -25.9 L-11.65 -25.8 Q-9.85 -27.25 -7.55 -27.0 L-7.2 -26.9 -7.05 -26.7 -6.95 -26.55 -7.0 -26.55 -7.0 -26.5 -7.0 -26.35 Q-6.95 -25.9 -7.2 -25.2 L-8.1 -23.7 -9.8 -21.8 Q-11.35 -20.35 -12.85 -21.35 L-13.3 -19.9 Q-13.7 -18.1 -14.8 -16.65 -14.95 -18.8 -14.3 -20.7 L-13.35 -23.15 -12.85 -24.25 -12.8 -24.4 M0.2 -16.3 Q0.35 -16.05 0.6 -16.0 L0.75 -15.8 0.95 -15.6 1.4 -15.4 1.75 -15.1 2.05 -14.85 2.2 -14.7 3.15 -13.85 3.4 -13.6 3.45 -13.55 Q4.6 -11.5 5.25 -9.35 5.75 -7.55 5.65 -5.6 5.35 -1.85 2.65 0.8 L2.2 1.05 Q-1.45 2.2 -4.75 0.4 -6.4 -0.45 -7.2 -1.9 L-7.45 -1.95 -7.55 -2.05 -7.65 -2.0 -7.7 -2.05 -8.25 -2.4 -8.4 -2.6 -8.8 -3.15 -6.3 -6.3 -6.25 -6.4 -6.25 -6.45 Q-5.1 -8.15 -4.85 -10.25 L-4.8 -14.35 Q-4.7 -16.4 -5.45 -18.2 -2.35 -17.95 0.2 -16.3 M0.65 -8.7 L0.8 -8.8 0.8 -8.85 1.0 -9.1 0.65 -8.7 M35.9 -20.25 L36.5 -20.35 Q37.95 -20.4 38.55 -19.3 L38.6 -19.25 38.8 -18.75 Q39.55 -16.4 37.65 -14.8 L37.15 -14.25 Q35.4 -13.35 33.85 -14.5 L33.75 -14.6 33.55 -14.95 Q33.1 -16.75 34.05 -18.4 L34.2 -18.6 Q34.2 -18.15 34.75 -17.85 L36.65 -17.9 37.1 -18.5 Q37.8 -20.25 35.9 -20.25 M20.7 18.1 L21.8 15.9 Q22.3 15.5 23.05 15.4 25.25 15.75 24.05 17.8 22.8 19.95 20.9 18.35 L20.7 18.1 M-6.0 -21.35 L-6.0 -21.4 -5.95 -21.7 Q-5.7 -22.2 -5.6 -22.75 -5.25 -23.55 -5.25 -24.4 L-5.15 -24.75 Q-5.15 -25.45 -4.65 -25.8 L-4.55 -25.8 Q-4.1 -25.65 -3.95 -25.15 L-3.9 -25.0 -3.85 -24.75 -3.65 -24.5 -3.65 -24.4 -2.75 -23.2 -2.65 -23.05 -2.75 -22.9 -2.85 -22.75 -3.15 -22.2 Q-3.05 -21.7 -3.6 -21.05 L-4.75 -21.2 -4.8 -21.25 -4.8 -21.3 -4.95 -21.25 -5.2 -21.25 -5.45 -21.25 -6.0 -21.35 M-23.55 -18.95 Q-23.65 -19.4 -24.5 -19.65 L-26.8 -19.35 -30.2 -19.35 -31.65 -19.3 Q-32.2 -18.85 -32.2 -18.15 L-32.15 -17.95 Q-32.05 -17.25 -31.4 -16.95 -30.7 -16.6 -29.9 -16.4 L-29.3 -16.6 Q-27.7 -17.0 -26.25 -17.7 L-23.55 -18.95 M-4.65 -21.8 L-4.65 -21.75 -4.55 -21.95 -4.65 -21.8 M-11.9 -8.4 L-12.05 -8.8 Q-13.1 -11.45 -12.0 -14.1 L-11.8 -14.6 -9.25 -17.1 -8.75 -17.5 -8.7 -17.4 -8.35 -15.35 Q-8.15 -13.45 -8.3 -11.4 -9.1 -9.35 -11.05 -8.55 L-11.9 -8.4 M-2.0 -14.25 L-2.5 -13.8 Q-3.95 -12.3 -3.5 -10.0 L-3.4 -9.7 Q-3.15 -8.9 -2.35 -8.55 -1.85 -9.25 -1.5 -10.05 -0.7 -11.75 0.4 -13.1 0.2 -13.85 -0.4 -14.25 L-1.25 -14.7 -1.65 -14.55 -2.0 -14.25 M-9.3 -12.4 Q-8.95 -12.7 -8.9 -13.2 -8.65 -14.25 -9.15 -14.7 -9.6 -15.15 -10.65 -15.15 L-10.65 -15.1 -10.85 -15.0 -11.0 -14.95 Q-11.7 -14.35 -11.5 -13.45 L-11.35 -13.0 Q-10.85 -11.8 -9.3 -12.4 M-3.65 -2.8 L-4.0 -2.55 -3.65 -2.55 -3.65 -2.8 M7.65 36.3 L8.05 35.95 Q10.15 36.75 8.3 37.95 L7.6 38.0 Q6.8 37.65 6.95 36.9 L6.95 36.85 7.45 36.45 7.65 36.3 M20.6 34.75 Q23.55 34.95 23.7 37.5 23.7 38.0 23.25 38.35 L23.1 38.5 21.45 38.35 21.85 37.8 Q21.65 36.65 20.7 35.7 L20.15 35.15 20.4 34.9 20.6 34.75" fill="#cc66ff" fill-rule="evenodd" stroke="none"/>
    <path d="M26.55 20.35 L26.35 21.8 26.3 22.05 26.4 21.15 26.55 20.35 M13.5 -7.7 L13.15 -6.65 13.0 -6.25 12.9 -6.0 12.8 -6.05 12.8 -6.15 12.8 -6.05 12.7 -6.15 12.7 -5.5 12.05 -4.4 10.85 -2.7 10.4 -3.55 10.8 -2.8 10.45 -2.2 10.45 -2.15 9.7 -0.95 9.4 -0.55 9.7 -1.25 Q10.25 -2.4 10.4 -3.55 L10.4 -5.7 9.85 -7.7 9.55 -8.1 9.5 -8.5 9.5 -8.7 9.4 -8.8 9.35 -8.85 9.3 -8.95 9.3 -9.15 9.35 -9.35 9.4 -9.4 9.55 -9.45 13.5 -7.7 M5.1 5.65 L1.75 9.8 1.55 9.8 0.9 9.9 0.85 10.0 -1.25 8.15 -2.15 6.55 -2.15 5.8 -2.05 5.7 -1.85 5.55 Q-1.25 5.6 -0.75 6.05 L-0.3 6.3 Q2.6 6.95 5.1 5.65 M-6.95 -26.55 L-6.35 -26.85 Q-6.3 -23.55 -8.75 -20.8 -10.45 -19.95 -12.25 -18.75 -14.05 -17.6 -14.7 -15.8 L-14.8 -16.65 Q-13.7 -18.1 -13.3 -19.9 L-12.85 -21.35 Q-11.35 -20.35 -9.8 -21.8 L-8.1 -23.7 -7.2 -25.2 Q-6.95 -25.9 -7.0 -26.35 L-7.0 -26.5 -7.0 -26.55 -6.95 -26.55 M0.2 -16.3 L0.6 -16.0 1.4 -15.4 0.95 -15.6 0.75 -15.8 0.6 -16.0 Q0.35 -16.05 0.2 -16.3 M3.45 -13.55 L6.85 -9.75 7.0 -9.65 8.05 -8.25 8.25 -7.65 8.4 -7.65 8.65 -6.85 8.8 -6.45 Q9.2 -5.75 9.0 -4.95 L9.0 -4.9 9.05 -4.75 9.05 -4.65 9.0 -4.6 9.0 -4.5 9.0 -4.45 9.05 -4.1 8.95 -3.9 Q8.8 -2.15 7.95 -0.6 L7.7 -0.25 7.45 0.1 Q6.7 1.85 5.15 3.15 L2.95 4.4 0.8 4.5 0.3 4.4 -1.5 4.05 -2.2 3.8 -2.65 3.5 -4.7 1.85 -5.0 1.5 -6.5 0.1 -8.4 -2.6 -8.25 -2.4 -7.7 -2.05 -7.65 -2.0 -7.55 -2.05 -7.45 -1.95 -7.2 -1.9 Q-6.4 -0.45 -4.75 0.4 -1.45 2.2 2.2 1.05 L2.65 0.8 Q5.35 -1.85 5.65 -5.6 5.75 -7.55 5.25 -9.35 4.6 -11.5 3.45 -13.55 M0.65 -8.7 L1.0 -9.1 0.8 -8.85 0.8 -8.8 0.65 -8.7 M33.75 -14.6 L33.85 -14.5 Q35.4 -13.35 37.15 -14.25 L37.65 -14.8 Q39.55 -16.4 38.8 -18.75 L38.6 -19.25 38.55 -19.3 Q39.65 -19.0 40.25 -17.9 L40.4 -17.7 40.55 -17.25 40.9 -16.2 40.9 -15.2 40.75 -14.1 40.35 -13.05 40.3 -12.9 40.25 -12.8 40.1 -12.7 38.5 -11.1 38.05 -10.85 37.55 -10.65 37.35 -10.55 36.8 -10.7 Q36.0 -10.85 35.3 -11.3 34.45 -11.9 34.1 -12.9 33.8 -13.7 33.75 -14.6 M42.05 -9.8 L41.05 -9.05 38.0 -7.15 37.7 -6.95 35.6 -5.9 35.4 -6.15 35.25 -6.7 Q34.85 -7.2 34.8 -7.6 36.65 -8.3 38.2 -9.6 L40.95 -12.4 41.75 -12.25 41.1 -12.4 41.15 -12.6 42.35 -14.2 42.4 -14.2 42.65 -14.25 Q43.45 -14.25 43.8 -13.5 L43.9 -13.3 Q44.15 -12.85 44.0 -12.35 43.5 -10.9 42.2 -10.05 L42.15 -10.0 42.05 -9.8 M30.25 0.7 L30.55 0.85 30.15 2.05 28.7 7.05 28.4 7.65 28.1 9.0 28.05 9.05 27.75 9.8 27.15 11.75 Q26.65 13.15 26.4 14.6 L26.0 17.45 25.65 20.15 25.55 20.35 25.25 22.85 25.05 25.15 25.05 25.3 25.05 25.35 25.0 25.3 Q22.15 23.0 18.7 21.7 L18.75 21.65 18.7 21.65 Q19.05 20.55 20.0 19.45 L20.1 19.65 20.05 19.5 20.15 19.2 20.4 19.1 20.55 19.4 20.35 19.0 20.7 18.1 20.9 18.35 Q22.8 19.95 24.05 17.8 25.25 15.75 23.05 15.4 22.3 15.5 21.8 15.9 22.3 15.05 22.95 14.3 L22.95 14.25 23.3 13.4 23.55 12.85 23.45 12.85 23.4 12.8 24.0 11.5 24.15 11.45 24.6 10.5 24.55 10.5 24.6 10.4 27.3 4.35 27.55 3.65 27.8 2.95 28.75 0.1 28.8 -0.05 28.85 -0.05 30.25 0.7 M-2.65 -23.05 L-1.95 -22.1 -1.9 -22.0 -0.9 -20.95 Q-0.2 -20.55 -0.1 -19.8 -0.05 -19.4 -0.4 -19.3 -0.8 -19.15 -1.1 -19.5 -1.45 -19.85 -1.9 -20.0 L-2.25 -20.2 -2.65 -20.3 -2.7 -20.35 -4.4 -20.8 -5.5 -21.0 -6.0 -21.3 -6.0 -21.35 -5.45 -21.25 -5.2 -21.25 -4.95 -21.25 -4.8 -21.3 -4.8 -21.25 -4.8 -21.2 -4.75 -21.2 -3.6 -21.05 Q-3.05 -21.7 -3.15 -22.2 L-2.85 -22.75 -2.75 -22.9 -2.65 -23.05 M-8.7 -17.4 L-8.45 -17.8 -8.35 -17.85 -8.25 -17.9 Q-7.2 -17.9 -6.9 -16.85 -6.3 -14.7 -6.35 -12.45 L-6.65 -9.25 -7.0 -8.5 -7.55 -7.75 -7.75 -7.35 -8.3 -6.6 Q-8.75 -5.85 -9.55 -5.65 -9.85 -5.55 -9.95 -5.8 L-10.05 -6.15 -10.2 -5.9 Q-11.25 -6.6 -11.8 -8.2 L-11.9 -8.4 -11.05 -8.55 Q-9.1 -9.35 -8.3 -11.4 -8.15 -13.45 -8.35 -15.35 L-8.7 -17.4 M-3.65 -2.8 L-3.65 -2.55 -4.0 -2.55 -3.65 -2.8 M17.9 41.75 L21.2 37.5 18.45 35.15 18.4 35.1 18.3 35.05 18.2 34.85 18.05 34.5 18.05 34.45 Q18.15 34.15 18.4 33.95 L18.85 33.95 Q21.7 34.45 24.7 33.9 25.45 36.1 25.7 38.6 25.7 39.65 25.3 40.7 L18.7 42.25 18.4 42.1 17.85 41.95 17.8 41.85 17.9 41.75 M26.0 10.9 L25.95 10.95 25.9 10.95 25.95 10.95 25.95 11.0 26.0 11.0 26.0 10.9 M0.35 8.3 L0.3 8.3 0.5 8.7 0.35 8.35 0.35 8.3 M0.25 8.05 L0.2 8.05 0.25 8.1 0.25 8.05 M1.6 7.85 L1.65 7.85 1.7 7.85 1.6 7.85 M11.95 36.2 L11.65 36.3 Q11.4 36.6 11.65 36.9 L11.65 37.95 Q11.35 38.75 10.5 38.9 L9.6 39.2 Q9.1 39.5 9.6 39.85 L10.0 39.85 12.3 39.7 Q12.9 39.3 13.15 38.6 13.4 38.05 13.25 37.45 L13.05 36.95 Q12.65 36.3 11.95 36.2 M9.3 35.2 L9.5 34.85 10.1 34.75 Q11.6 34.65 13.0 35.25 L13.6 35.55 Q14.35 36.0 14.55 36.8 15.0 38.3 14.15 39.65 L13.8 40.15 13.6 40.35 12.75 40.8 12.45 40.9 9.1 41.45 5.8 41.15 4.6 40.8 4.55 40.8 Q4.45 40.55 4.65 40.3 L4.65 40.25 4.7 40.25 Q4.95 38.8 6.1 37.7 L6.95 36.9 Q6.8 37.65 7.6 38.0 L8.3 37.95 Q10.15 36.75 8.05 35.95 L7.65 36.3 8.4 35.7 9.05 35.75 9.35 35.2 9.3 35.2 M20.6 34.75 L20.4 34.9 20.15 35.15 20.7 35.7 Q21.65 36.65 21.85 37.8 L21.45 38.35 23.1 38.5 23.25 38.35 Q23.7 38.0 23.7 37.5 23.55 34.95 20.6 34.75" fill="#99409f" fill-rule="evenodd" stroke="none"/>
    <path d="M-41.9 -18.7 L-42.7 -19.05 -38.35 -19.05 -41.9 -18.7 M12.8 -6.05 L12.8 -6.15 12.8 -6.05 M-4.8 -21.25 L-4.75 -21.2 -4.8 -21.2 -4.8 -21.25" fill="#99573e" fill-rule="evenodd" stroke="none"/>
    <path d="M26.0 10.9 L26.0 11.0 25.95 11.0 25.95 10.95 25.9 10.95 25.95 10.95 26.0 10.9" fill="#b86c50" fill-rule="evenodd" stroke="none"/>
    <path d="M8.4 7.0 L8.65 6.55 8.5 7.05 8.4 7.0 M15.75 6.95 L15.65 6.9 16.05 6.25 15.8 6.9 15.75 6.95 M18.25 11.5 L19.5 9.05 19.55 9.1 19.6 9.1 18.25 11.5" fill="#aa2b00" fill-rule="evenodd" stroke="none"/>
    <path d="M1.6 7.85 L1.7 7.85 1.65 7.85 1.6 7.85 M0.25 8.05 L0.25 8.1 0.2 8.05 0.25 8.05 M0.35 8.3 L0.35 8.35 0.5 8.7 0.3 8.3 0.35 8.3" fill="#990066" fill-rule="evenodd" stroke="none"/>
    <path d="M1.55 9.8 L1.35 10.05 1.2 10.1 0.9 9.9 1.55 9.8" fill="#770051" fill-rule="evenodd" stroke="none"/>
    <path d="M-12.4 -25.15 L-12.25 -25.25 -11.95 -25.6 -12.25 -25.25 -12.3 -25.1 -12.4 -25.15 M-11.85 -25.75 L-11.75 -25.8 -11.85 -25.75" fill="#cc99ff" fill-rule="evenodd" stroke="none"/>
  </g>
</svg>
