<?xml version="1.0" encoding="UTF-8" standalone="no"?>
<svg xmlns:xlink="http://www.w3.org/1999/xlink" height="116.15px" width="46.25px" xmlns="http://www.w3.org/2000/svg">
  <g transform="matrix(1.0, 0.0, 0.0, 1.0, 37.35, 4.8)">
    <path d="M-23.75 44.55 L-24.3 44.2 Q-24.85 43.9 -24.95 43.2 -25.1 41.85 -24.05 41.0 -22.85 37.95 -21.0 35.15 L-20.95 35.15 -21.05 35.95 -21.25 37.7 Q-21.95 41.35 -20.3 44.5 L-20.25 44.5 -20.5 43.9 Q-20.15 45.1 -18.8 45.5 L-18.7 45.45 -18.65 45.45 -18.6 45.45 -18.5 45.45 -17.55 45.5 -17.4 45.6 Q-17.0 45.8 -16.75 46.25 L-16.5 47.35 -17.9 47.3 -17.95 47.2 Q-18.75 46.3 -19.9 46.1 -20.45 46.1 -20.75 46.4 L-21.5 45.3 Q-22.2 44.15 -23.45 44.3 L-23.5 44.35 -23.7 44.55 -23.75 44.55 M-17.0 43.2 L-18.15 42.35 -18.4 42.1 Q-19.0 41.05 -19.05 39.75 L-19.15 37.55 -19.15 37.15 Q-18.6 34.0 -17.5 31.0 L-16.9 29.45 -16.75 29.1 -16.35 28.35 Q-15.75 27.15 -15.8 25.9 L-15.55 25.05 -15.35 24.35 -14.75 28.6 -13.6 33.85 -13.5 33.5 Q-14.35 37.8 -16.25 41.7 L-16.95 43.1 -17.0 43.2 M-15.7 25.0 L-16.05 25.6 Q-17.05 25.9 -17.35 27.05 L-18.2 28.65 -18.8 29.5 Q-18.75 28.5 -18.85 27.55 L-18.95 26.35 Q-19.1 22.75 -16.6 19.95 L-15.5 18.55 Q-12.9 14.9 -9.05 13.7 L-8.8 13.5 Q-8.65 7.55 -4.6 3.1 L-3.15 1.4 Q-1.25 -1.15 1.45 -2.75 L1.7 -2.3 Q-2.75 0.2 -3.6 5.55 -4.4 10.8 -7.1 15.25 -8.65 15.2 -9.95 15.7 -15.85 17.9 -15.4 24.1 L-15.35 24.35 -15.7 25.0 M-18.7 109.85 L-18.7 105.85 Q-17.75 106.05 -17.3 105.1 -16.3 103.05 -16.4 100.8 -16.4 100.3 -16.65 100.0 -14.9 100.65 -14.75 102.45 L-14.8 103.55 -14.8 103.65 -14.85 103.8 Q-17.35 106.8 -18.1 110.4 L-18.7 109.85 M-26.5 99.5 L-26.85 99.85 Q-29.05 100.15 -31.2 100.8 L-31.05 100.6 Q-30.5 99.7 -30.8 98.55 L-31.25 96.9 -28.7 96.5 Q-27.15 96.2 -26.4 94.85 L-26.2 94.35 -25.35 95.15 Q-25.2 95.9 -25.2 96.6 -25.25 98.2 -26.5 99.5 M-31.95 100.45 L-32.45 101.2 Q-34.2 102.1 -35.45 103.6 L-35.45 102.95 -35.25 101.15 Q-34.7 98.95 -33.35 97.2 L-33.1 96.75 -33.0 96.25 Q-32.35 96.6 -32.05 97.2 L-31.85 97.7 Q-31.3 99.15 -31.95 100.45 M-24.5 51.75 L-24.4 51.25 -24.25 50.5 -24.2 50.25 -22.3 50.6 Q-22.1 51.25 -21.4 51.4 -19.6 51.7 -17.85 51.4 L-17.8 51.4 -19.55 52.8 -19.25 52.8 -18.75 52.7 -18.8 52.75 -20.1 53.1 Q-22.65 53.75 -24.6 52.55 L-24.5 51.75 M-22.65 7.2 Q-17.95 2.5 -12.2 -0.5 L-10.3 -1.05 -11.85 1.35 -11.3 0.65 -11.95 0.55 -12.5 0.65 Q-15.85 2.0 -18.05 4.9 L-18.9 6.0 -21.85 10.2 Q-24.15 13.3 -25.8 16.8 L-26.05 17.15 -27.8 18.7 -27.75 17.95 -27.7 17.5 Q-26.8 14.0 -24.95 10.8 L-24.05 9.6 Q-23.0 8.5 -22.65 7.2 M-30.1 25.85 L-29.2 25.75 -26.6 26.0 -27.25 28.15 -28.55 28.1 -29.05 28.0 -29.5 27.75 -29.35 27.4 Q-29.0 26.25 -29.9 25.8 L-30.1 25.85 M-32.05 22.2 L-31.65 20.95 -31.25 21.25 -32.05 22.2 M-31.85 24.65 L-30.75 23.6 -30.3 23.6 Q-30.5 25.1 -31.75 26.1 L-31.7 25.95 Q-31.35 25.0 -31.85 24.65 M-32.35 23.25 L-32.25 22.95 -32.2 23.15 -32.35 23.25 M-5.8 36.5 L-5.35 35.75 -4.9 34.95 Q-5.25 34.75 -5.7 34.65 L-11.95 33.55 -11.2 31.2 Q-8.05 33.25 -4.35 33.9 L-4.7 34.5 -4.45 34.1 Q-3.8 34.35 -3.8 34.9 -4.9 35.55 -5.05 36.85 L-5.8 36.5 M-1.75 39.9 L-1.55 40.0 -1.3 40.35 Q-1.2 40.8 -1.45 41.15 L-1.55 41.3 Q-2.3 45.15 -2.0 49.5 -0.95 55.8 3.95 60.55 1.5 59.75 -0.75 57.85 L-1.25 57.45 Q-2.1 55.2 -2.45 52.8 L-2.75 49.75 -2.85 47.75 -2.9 46.55 Q-2.9 44.35 -3.15 42.3 L-3.25 42.1 Q-4.05 41.35 -4.0 40.55 L-4.1 40.55 -3.7 40.55 -3.95 40.55 -4.15 40.25 -4.2 40.0 -4.0 39.65 -3.4 40.1 -1.75 39.9 M-14.85 49.2 L-14.65 48.95 Q-14.2 50.9 -13.15 52.7 L-11.2 53.7 -11.3 53.8 -11.6 54.3 Q-12.85 56.25 -14.5 57.75 L-15.5 56.9 Q-17.35 54.9 -17.35 52.25 L-16.35 51.55 -16.25 51.45 -15.1 50.05 -15.05 49.95 -14.85 49.2 M-10.4 56.15 L-10.2 57.3 Q-9.5 59.8 -7.05 61.3 L-6.8 62.0 -7.05 62.7 -8.1 64.0 Q-10.15 66.35 -12.7 67.4 -15.35 63.75 -14.9 59.25 L-13.05 58.25 Q-11.65 57.25 -10.45 55.65 L-10.4 56.15 M-6.25 64.25 L-6.25 64.3 Q-5.75 67.55 -3.85 70.25 L-3.75 70.35 -3.75 70.4 Q-4.55 71.95 -6.1 72.8 -8.3 74.1 -10.6 75.05 -12.75 72.65 -12.75 69.5 L-12.55 68.25 -11.65 68.05 Q-8.7 66.65 -6.3 63.85 L-6.25 64.25 M-3.05 72.3 L-2.9 72.2 -2.95 72.65 Q-4.85 75.25 -4.75 78.55 -4.75 79.5 -4.3 80.25 L-3.6 79.9 -7.8 81.9 -9.1 82.25 -9.25 82.25 -9.9 82.4 Q-10.8 80.05 -10.65 77.4 L-10.5 75.5 -10.2 75.45 -10.05 75.4 -4.3 73.2 -3.05 72.35 -3.05 72.3 M-4.35 91.55 L-4.6 92.05 -4.75 92.35 -4.35 91.55 M-21.05 94.05 L-20.9 93.65 -20.65 93.55 -20.35 93.4 -20.3 93.35 -20.2 93.35 -20.15 93.35 -20.0 93.35 Q-19.1 93.35 -18.45 93.7 -17.75 94.05 -17.4 94.8 L-17.2 95.3 -17.15 95.75 -17.15 95.8 -16.8 95.5 -16.8 95.45 -16.1 94.65 -16.05 94.6 -15.45 93.65 -14.5 93.3 Q-12.1 93.4 -10.4 94.3 L-10.5 93.5 -10.45 92.1 -10.45 92.05 -9.95 90.25 -9.9 90.05 -9.9 90.0 -9.9 89.45 -9.8 88.4 -9.75 88.15 -9.7 88.05 -9.4 87.15 Q-9.05 86.2 -8.3 85.45 -9.35 86.45 -10.0 87.65 -10.3 86.0 -9.1 84.15 L-9.7 82.95 -7.4 82.75 -7.3 82.75 -3.35 83.0 Q-3.25 84.05 -3.4 85.1 L-3.85 88.95 Q-6.15 89.55 -6.75 91.75 -7.15 93.3 -6.55 94.75 -6.4 95.1 -6.4 95.5 -6.4 97.45 -6.0 99.3 -5.7 100.75 -5.95 102.15 L-6.0 102.25 Q-7.0 102.3 -7.85 102.75 L-7.9 102.8 Q-8.85 101.05 -9.3 98.95 L-9.75 97.85 Q-10.9 95.95 -13.9 96.65 L-14.9 97.05 -15.05 97.1 -16.5 97.1 -17.35 97.15 Q-18.25 97.45 -18.65 98.7 L-19.25 101.05 -22.45 101.15 -23.65 100.15 Q-24.45 99.55 -25.3 99.3 L-25.45 99.55 -24.95 98.7 -24.5 97.35 -24.45 97.05 -24.55 95.35 -24.45 96.0 -23.35 95.85 -22.8 96.65 -21.55 98.15 -20.8 98.95 -20.85 98.95 -20.65 99.15 -20.45 99.35 -20.25 98.5 Q-20.2 97.6 -21.0 96.9 L-21.7 96.15 -21.05 94.05 M-10.85 98.35 L-10.8 98.35 -10.45 98.95 -9.75 100.15 -9.75 100.55 Q-9.85 101.2 -10.45 101.55 L-11.85 102.4 Q-12.9 103.15 -14.1 103.6 -14.0 102.45 -14.2 101.25 L-14.2 101.2 -14.45 100.55 -14.6 100.35 -15.05 99.9 -14.65 100.25 -12.1 99.8 Q-10.95 99.35 -10.85 98.35" fill="#990000" fill-rule="evenodd" stroke="none"/>
    <path d="M1.45 -2.75 L1.35 -2.95 Q-1.0 -4.35 -2.95 -3.95 L-3.2 -3.9 -4.25 -3.5 -5.2 -2.85 -5.6 -2.5 -11.1 3.2 -16.45 6.75 Q-17.0 10.75 -18.45 14.45 -19.65 17.35 -21.35 20.05 -25.3 26.05 -27.3 32.8 -27.75 35.0 -27.65 37.05 -27.5 39.05 -26.8 40.9 -25.4 44.55 -24.65 48.35 L-24.6 48.3 -24.25 50.25 -24.2 50.35 -24.2 50.25 -24.25 50.5 -24.4 51.25 -24.5 51.75 -24.75 53.7 Q-22.9 54.85 -22.9 56.9 L-23.0 60.7 -22.7 60.7 Q-20.05 63.05 -19.8 66.25 L-19.75 66.75 -19.8 67.5 -20.05 69.2 Q-18.05 70.85 -17.35 73.05 L-17.05 74.75 -17.05 74.8 -17.15 76.95 Q-15.35 79.0 -15.9 81.5 -16.5 84.05 -16.1 86.5 L-15.55 85.9 Q-15.3 85.55 -14.95 86.05 -14.9 86.9 -15.25 87.6 -15.65 88.35 -16.5 88.8 L-19.55 90.5 Q-20.35 91.45 -20.8 92.6 L-20.85 92.7 -21.35 93.65 -22.1 94.55 -22.05 95.4 -22.1 95.15 Q-23.05 94.55 -24.15 94.35 L-24.7 94.35 -24.4 94.3 -26.05 94.2 -26.3 94.25 -26.95 93.9 -29.75 94.45 -31.9 95.15 -32.35 95.35 -32.5 95.4 -32.45 95.45 Q-33.1 95.25 -33.5 95.8 L-33.6 96.0 Q-34.55 95.75 -34.95 96.75 L-35.05 97.05 -35.6 99.15 -35.8 100.1 Q-36.1 102.15 -36.0 104.3 L-35.45 103.6 Q-34.2 102.1 -32.45 101.2 L-31.95 100.45 -31.05 100.6 -31.2 100.8 Q-29.05 100.15 -26.85 99.85 L-26.5 99.5 -26.2 99.7 -25.75 99.9 -25.8 99.95 -26.0 100.2 Q-24.4 101.35 -23.5 103.25 -22.65 105.0 -20.5 104.9 L-20.45 105.0 -19.75 105.55 -18.75 105.3 -18.7 105.25 -18.7 105.85 -18.7 109.85 -18.7 110.65 Q-19.45 110.2 -19.55 109.15 -19.3 107.0 -20.3 105.6 -22.0 106.0 -23.45 105.1 -25.1 102.8 -26.9 100.65 -29.45 101.0 -31.95 102.0 -34.45 103.0 -35.4 105.7 -35.9 106.3 -36.7 106.45 -37.55 105.4 -37.3 104.15 L-37.0 101.7 -36.15 98.0 Q-35.75 96.2 -34.15 94.85 L-29.5 93.15 Q-27.0 92.4 -24.65 93.5 L-23.05 93.9 -21.1 90.85 Q-20.3 89.2 -18.4 88.6 L-16.9 83.1 Q-16.2 80.2 -18.05 77.85 -17.15 73.2 -20.9 70.1 -20.3 66.7 -22.3 63.85 L-23.7 62.4 Q-24.45 61.6 -24.35 60.7 -23.3 58.55 -24.65 56.55 -26.75 54.85 -25.7 52.2 -25.2 51.6 -25.5 51.0 L-25.85 49.85 Q-25.25 47.7 -26.1 46.05 L-27.5 42.7 Q-29.0 37.25 -28.25 31.5 -30.4 31.15 -32.3 30.15 -34.2 29.1 -34.75 26.75 L-33.9 24.95 Q-32.0 15.75 -25.5 8.05 -19.0 0.35 -9.75 -2.2 L-4.55 -4.35 1.1 -4.15 Q2.65 -3.2 3.55 -1.6 4.15 1.8 3.55 5.15 2.9 8.5 0.25 10.95 -2.0 11.95 -3.8 14.1 L-7.2 18.2 Q-10.65 23.85 -11.1 30.45 -7.55 32.9 -3.15 33.3 -2.9 33.9 -3.1 34.75 -3.35 35.6 -3.05 36.4 L-0.4 38.7 Q1.15 39.65 -0.5 41.5 -1.95 47.1 -0.05 52.3 1.85 57.45 6.35 61.0 L8.9 63.7 7.85 63.7 Q0.7 60.6 -5.4 54.9 -4.7 48.7 -4.95 42.05 L-5.4 39.25 Q-5.55 37.85 -6.9 37.15 -9.8 36.2 -12.75 36.55 -14.0 40.7 -16.6 44.3 -16.5 45.05 -16.0 45.65 -15.45 46.2 -15.4 46.95 -13.85 47.25 -13.35 48.65 -13.45 50.1 -12.6 51.2 -10.65 52.0 -9.75 53.85 -9.85 57.2 -7.2 59.5 -4.55 61.75 -4.95 65.15 -4.75 66.95 -3.55 68.35 -2.3 69.7 -1.65 71.3 -2.25 74.8 -1.1 78.25 L-1.4 80.4 Q-1.6 81.5 -0.7 82.3 -0.3 86.2 -1.55 89.65 -3.65 91.0 -4.1 93.35 -4.3 95.95 -3.6 98.25 -2.9 100.6 -3.65 103.2 -4.2 104.6 -5.65 105.15 -7.1 105.7 -7.95 107.1 -9.9 108.05 -12.0 107.35 L-13.15 105.95 Q-13.5 105.3 -14.15 105.1 L-14.65 105.0 -14.75 105.15 -14.85 105.3 -16.15 107.45 -16.85 108.8 -17.95 111.35 -18.25 111.35 -18.1 110.4 Q-17.35 106.8 -14.85 103.8 L-14.8 103.65 -14.45 103.75 -13.75 104.1 -13.0 104.45 -13.1 104.55 -12.55 105.4 Q-11.6 107.05 -9.55 106.75 -8.6 106.15 -8.0 105.3 -7.4 105.4 -6.8 104.75 L-6.55 104.3 -4.8 103.5 -4.4 100.6 Q-4.2 99.05 -4.95 97.85 -5.75 94.8 -4.75 92.35 L-4.6 92.05 -4.35 91.55 -3.85 90.75 -2.8 89.5 -2.6 89.35 -1.75 85.1 Q-1.4 82.85 -2.6 81.0 L-2.5 81.1 -2.4 80.5 Q-2.35 79.8 -2.65 79.4 L-2.95 79.6 -2.4 79.2 Q-3.5 75.9 -2.95 72.65 L-2.9 72.2 -3.05 72.3 -3.0 71.4 Q-3.05 70.95 -3.35 70.65 L-3.85 70.25 Q-5.75 67.55 -6.25 64.3 L-6.25 64.25 -6.15 64.05 Q-5.75 63.3 -6.2 62.6 L-6.8 62.0 -7.05 61.3 Q-9.5 59.8 -10.2 57.3 L-10.4 56.15 -10.25 55.45 Q-10.05 54.25 -11.15 53.85 L-11.3 53.8 -11.2 53.7 -13.15 52.7 Q-14.2 50.9 -14.65 48.95 L-14.85 49.2 Q-15.3 48.6 -16.1 48.55 L-16.1 48.5 -16.05 48.45 -16.0 48.2 -16.5 47.35 -16.75 46.25 Q-17.0 45.8 -17.4 45.6 L-17.25 45.15 -17.25 44.35 -17.25 44.2 -17.45 43.7 -17.35 43.65 -17.2 43.45 -17.15 43.45 -17.05 43.25 -17.0 43.2 -16.95 43.1 -16.25 41.7 Q-14.35 37.8 -13.5 33.5 L-13.45 33.15 Q-12.85 20.35 -2.7 11.5 -0.35 10.5 1.15 8.25 2.15 5.7 2.5 2.6 2.8 -0.1 1.7 -2.3 L1.45 -2.75 M-11.85 1.35 L-10.3 -1.05 -12.2 -0.5 Q-17.95 2.5 -22.65 7.2 L-24.75 9.45 Q-29.5 14.75 -31.65 20.95 L-32.05 22.2 -32.1 22.45 -32.65 23.2 Q-33.15 24.25 -32.55 25.0 -33.05 25.25 -33.2 25.75 -34.05 26.35 -33.7 27.45 -33.55 27.85 -33.15 27.9 L-33.05 27.9 Q-32.25 28.95 -31.0 29.35 L-28.25 30.45 -27.25 28.15 -26.6 26.0 -29.2 25.75 -30.1 25.85 -30.15 25.9 -29.75 25.05 Q-29.35 24.1 -29.85 23.65 L-29.45 22.9 Q-29.2 21.95 -29.7 21.6 -26.4 19.35 -23.2 16.65 -20.75 16.35 -20.15 14.35 L-18.9 10.4 Q-18.85 6.3 -15.4 4.35 L-15.3 4.25 -15.15 4.2 -15.05 4.1 -13.75 3.2 -11.85 1.35 M-21.55 17.15 L-22.0 17.15 -25.65 19.6 Q-27.55 20.65 -29.15 22.4 L-28.7 24.6 -25.7 24.95 Q-23.3 21.2 -21.55 17.15 M-11.95 33.55 L-12.25 35.7 Q-8.7 35.45 -5.85 36.55 L-5.8 36.5 -5.05 36.85 -5.1 37.2 Q-4.55 37.85 -4.45 38.7 L-4.0 39.65 -4.2 40.0 -4.15 40.25 -3.95 40.55 -3.7 40.55 -4.1 40.55 Q-3.2 47.5 -5.0 53.85 L-1.25 57.45 -0.75 57.85 Q1.5 59.75 3.95 60.55 -0.95 55.8 -2.0 49.5 -2.3 45.15 -1.55 41.3 L-1.45 41.15 Q-1.2 40.8 -1.3 40.35 L-1.55 40.0 -1.75 39.9 -1.5 39.75 -2.85 38.7 Q-4.25 37.05 -3.7 34.85 L-3.8 34.9 Q-3.8 34.35 -4.45 34.1 L-4.7 34.5 -4.35 33.9 Q-8.05 33.25 -11.2 31.2 L-11.95 33.55 M-11.85 82.75 Q-11.7 82.8 -11.5 82.9 L-11.4 82.95 -11.65 82.95 -11.85 82.75" fill="#000000" fill-rule="evenodd" stroke="none"/>
    <path d="M-2.95 -3.95 Q-2.6 -3.5 -2.85 -2.6 L-3.35 -1.55 -6.2 1.85 Q-8.2 4.05 -10.55 5.75 L-11.4 6.2 -13.6 6.9 Q-14.1 10.4 -16.0 13.3 -16.85 14.6 -18.05 14.5 -17.7 15.15 -18.5 16.2 L-18.6 16.3 Q-18.65 17.85 -19.45 19.2 L-21.55 23.2 Q-22.9 25.9 -23.7 28.75 L-24.15 30.6 Q-24.6 33.35 -25.3 35.95 -24.85 37.6 -26.4 37.85 -27.15 38.0 -27.5 37.3 L-27.65 37.05 Q-27.75 35.0 -27.3 32.8 -25.3 26.05 -21.35 20.05 -19.65 17.35 -18.45 14.45 -17.0 10.75 -16.45 6.75 L-11.1 3.2 -5.6 -2.5 -5.2 -2.85 -4.25 -3.5 -3.2 -3.9 -2.95 -3.95 M-24.5 48.1 L-24.6 47.8 Q-24.8 47.1 -24.6 46.35 L-24.2 45.55 -23.85 45.1 Q-23.6 44.9 -23.35 44.95 -22.45 45.1 -22.2 45.95 L-22.15 46.25 -22.1 47.05 Q-22.1 48.15 -23.1 48.55 L-23.55 48.6 -23.6 48.6 Q-24.25 48.55 -24.5 48.1 M-32.45 95.45 L-32.5 95.4 -32.35 95.35 -31.9 95.15 -29.75 94.45 -29.35 94.35 Q-28.9 94.45 -28.7 94.9 -28.55 95.25 -28.8 95.5 -29.35 96.2 -30.2 96.45 L-30.95 96.7 -31.25 96.8 -31.35 96.45 -31.45 96.15 -32.2 95.6 -32.45 95.45 M-21.35 93.65 L-20.85 92.7 -20.8 92.6 Q-20.35 91.45 -19.55 90.5 L-16.5 88.8 Q-15.65 88.35 -15.25 87.6 L-15.05 87.85 Q-15.75 91.35 -18.45 93.7 -19.1 93.35 -20.0 93.35 L-20.15 93.35 -20.2 93.35 -20.3 93.35 -20.35 93.4 -20.65 93.55 -20.9 93.65 -21.05 94.05 -21.35 93.65 M-17.05 74.8 L-17.05 74.75 -17.35 73.05 -16.85 72.85 Q-15.75 73.55 -14.35 73.2 -13.4 72.9 -13.2 73.85 -13.1 74.6 -13.75 74.9 L-16.8 74.95 -17.05 74.8 M-19.8 67.5 L-19.75 66.75 -19.8 66.25 -19.85 65.75 -19.7 65.45 Q-19.45 65.05 -19.0 65.1 L-17.55 65.75 -17.05 65.85 Q-15.5 65.8 -15.0 67.05 -14.75 67.6 -15.2 68.0 -16.35 68.95 -17.95 68.6 L-19.1 68.1 -19.8 67.5 M-14.95 13.0 Q-15.05 11.9 -14.05 11.35 -13.85 12.15 -14.5 12.85 L-14.95 13.0 M-17.05 17.9 Q-17.25 20.25 -19.1 21.5 -19.15 19.2 -17.3 17.65 L-17.05 17.9 M-22.55 28.7 Q-23.0 27.5 -22.4 26.45 L-21.05 24.4 Q-20.35 24.35 -20.3 25.3 -20.55 27.6 -22.55 28.7 M-24.6 34.05 Q-24.9 32.4 -23.2 32.05 -22.8 33.45 -23.7 34.5 -24.3 34.8 -24.6 34.05 M-18.2 59.8 L-21.85 59.95 Q-22.65 59.75 -22.9 59.2 L-22.85 57.9 Q-22.7 57.3 -22.1 57.1 -20.05 57.0 -18.2 57.75 L-17.9 58.05 Q-17.45 59.0 -18.2 59.8 M-14.5 80.15 Q-13.15 80.0 -12.45 81.0 -12.3 81.2 -12.45 81.4 -13.25 82.3 -14.55 82.0 -16.25 81.65 -15.5 80.15 L-15.3 79.9 -14.8 79.9 -14.8 79.95 Q-14.6 80.0 -14.5 80.15 M-15.5 99.7 L-15.65 99.65 -15.7 99.6 Q-16.2 99.25 -16.85 99.25 -17.55 99.2 -17.35 98.35 L-16.9 98.45 -15.85 98.5 -14.95 98.3 -14.75 98.2 -14.55 98.25 -14.35 98.45 Q-14.1 99.1 -14.75 99.4 L-15.5 99.7" fill="#ff6633" fill-rule="evenodd" stroke="none"/>
    <path d="M-2.95 -3.95 Q-1.0 -4.35 1.35 -2.95 L1.45 -2.75 Q-1.25 -1.15 -3.15 1.4 L-4.6 3.1 Q-8.65 7.55 -8.8 13.5 L-9.05 13.7 Q-12.9 14.9 -15.5 18.55 L-16.6 19.95 Q-19.1 22.75 -18.95 26.35 L-18.85 27.55 Q-18.75 28.5 -18.8 29.5 L-18.2 28.65 -17.35 27.05 Q-17.05 25.9 -16.05 25.6 L-15.7 25.0 -15.55 25.05 -15.8 25.9 Q-15.75 27.15 -16.35 28.35 L-16.75 29.1 -16.9 29.45 -17.5 31.0 Q-18.6 34.0 -19.15 37.15 L-19.15 37.55 -19.05 39.75 Q-19.0 41.05 -18.4 42.1 L-18.15 42.35 -17.0 43.2 -17.05 43.25 -17.15 43.45 -17.2 43.45 -17.35 43.65 -17.45 43.7 -17.55 43.75 -17.3 44.15 -17.25 44.2 -17.25 44.35 -17.25 45.15 -17.4 45.6 -17.55 45.5 -18.5 45.45 -18.6 45.45 -18.65 45.45 -18.7 45.45 -18.8 45.5 Q-20.15 45.1 -20.5 43.9 L-20.25 44.5 -20.3 44.5 Q-21.95 41.35 -21.25 37.7 L-21.05 35.95 -20.95 35.15 -21.0 35.15 Q-22.85 37.95 -24.05 41.0 -25.1 41.85 -24.95 43.2 -24.85 43.9 -24.3 44.2 L-23.75 44.55 Q-24.15 44.95 -24.2 45.55 L-24.6 46.35 Q-24.8 47.1 -24.6 47.8 L-24.5 48.1 -24.6 48.3 -24.65 48.35 Q-25.4 44.55 -26.8 40.9 -27.5 39.05 -27.65 37.05 L-27.5 37.3 Q-27.15 38.0 -26.4 37.85 -24.85 37.6 -25.3 35.95 -24.6 33.35 -24.15 30.6 L-23.7 28.75 Q-22.9 25.9 -21.55 23.2 L-19.45 19.2 Q-18.65 17.85 -18.6 16.3 L-18.5 16.2 Q-17.7 15.15 -18.05 14.5 -16.85 14.6 -16.0 13.3 -14.1 10.4 -13.6 6.9 L-11.4 6.2 -10.55 5.75 Q-8.2 4.05 -6.2 1.85 L-3.35 -1.55 -2.85 -2.6 Q-2.6 -3.5 -2.95 -3.95 M-18.7 105.85 L-18.7 105.25 -18.7 102.75 Q-18.25 101.95 -18.15 100.95 -18.05 99.85 -16.9 99.9 L-16.85 99.9 -16.65 99.95 -16.65 100.0 Q-16.4 100.3 -16.4 100.8 -16.3 103.05 -17.3 105.1 -17.75 106.05 -18.7 105.85 M-35.45 103.6 L-36.0 104.3 Q-36.1 102.15 -35.8 100.1 L-35.6 99.15 -35.05 97.05 -34.95 96.75 Q-34.55 95.75 -33.6 96.0 L-33.3 96.1 -33.0 96.25 -33.1 96.75 -33.35 97.2 Q-34.7 98.95 -35.25 101.15 L-35.45 102.95 -35.45 103.6 M-29.75 94.45 L-26.95 93.9 -26.3 94.25 -26.2 94.35 -26.4 94.85 Q-27.15 96.2 -28.7 96.5 L-31.25 96.9 -31.25 96.8 -30.95 96.7 -30.2 96.45 Q-29.35 96.2 -28.8 95.5 -28.55 95.25 -28.7 94.9 -28.9 94.45 -29.35 94.35 L-29.75 94.45 M-24.7 94.35 L-24.15 94.35 -23.95 94.45 -23.65 95.0 -23.35 95.85 -24.45 96.0 -24.55 95.35 -24.7 94.7 -24.75 94.55 -24.95 94.4 -24.7 94.35 M-22.05 95.4 L-22.1 94.55 -21.35 93.65 -21.05 94.05 -21.7 96.15 -21.75 96.1 -22.05 95.4 M-15.25 87.6 Q-14.9 86.9 -14.95 86.05 -15.3 85.55 -15.55 85.9 L-16.1 86.5 Q-16.5 84.05 -15.9 81.5 -15.35 79.0 -17.15 76.95 L-17.05 74.8 -16.8 74.95 -13.75 74.9 Q-13.1 74.6 -13.2 73.85 -13.4 72.9 -14.35 73.2 -15.75 73.55 -16.85 72.85 L-17.35 73.05 Q-18.05 70.85 -20.05 69.2 L-19.8 67.5 -19.1 68.1 -17.95 68.6 Q-16.35 68.95 -15.2 68.0 -14.75 67.6 -15.0 67.05 -15.5 65.8 -17.05 65.85 L-17.55 65.75 -19.0 65.1 Q-19.45 65.05 -19.7 65.45 L-19.85 65.75 -19.8 66.25 Q-20.05 63.05 -22.7 60.7 L-23.0 60.7 -22.9 56.9 Q-22.9 54.85 -24.75 53.7 L-24.5 51.75 -24.6 52.55 Q-22.65 53.75 -20.1 53.1 L-18.8 52.75 -17.35 52.25 Q-17.35 54.9 -15.5 56.9 L-14.5 57.75 Q-15.85 58.95 -17.5 59.85 L-14.9 59.25 Q-15.35 63.75 -12.7 67.4 L-14.65 68.05 -12.55 68.25 -12.75 69.5 Q-12.75 72.65 -10.6 75.05 L-12.1 75.6 -10.5 75.5 -10.65 77.4 Q-10.8 80.05 -9.9 82.4 L-11.95 82.65 -11.85 82.75 -11.65 82.95 -11.4 82.95 -9.95 82.95 -9.8 82.95 -9.7 82.95 -9.1 84.15 Q-10.3 86.0 -10.0 87.65 -11.45 90.1 -11.3 93.35 L-10.45 92.05 -10.45 92.1 -10.5 93.5 -10.4 94.3 Q-12.1 93.4 -14.5 93.3 L-15.45 93.65 Q-14.9 92.45 -14.8 91.0 L-13.15 88.9 Q-12.05 87.9 -11.9 86.7 L-14.95 90.0 Q-16.3 91.75 -16.5 94.0 -16.55 94.5 -16.95 94.9 L-17.2 95.3 -17.4 94.8 Q-17.75 94.05 -18.45 93.7 -15.75 91.35 -15.05 87.85 L-15.25 87.6 M-22.65 7.2 Q-23.0 8.5 -24.05 9.6 L-24.95 10.8 Q-26.8 14.0 -27.7 17.5 L-27.75 17.95 -27.8 18.7 -27.8 18.75 -28.5 19.3 -29.2 19.85 -29.4 20.0 -30.15 20.45 -31.25 21.25 -31.65 20.95 Q-29.5 14.75 -24.75 9.45 L-22.65 7.2 M-30.15 25.9 L-30.1 25.85 -29.9 25.8 Q-29.0 26.25 -29.35 27.4 L-29.5 27.75 Q-30.3 27.2 -31.2 26.95 -30.8 26.15 -30.15 25.9 M-33.2 25.75 Q-33.05 25.25 -32.55 25.0 L-32.35 24.9 -32.3 24.85 -32.05 24.75 -31.85 24.65 Q-31.35 25.0 -31.7 25.95 L-31.75 26.1 -31.95 26.25 -32.0 26.3 -33.3 26.4 -33.2 25.75 M-17.05 17.9 L-17.3 17.65 Q-19.15 19.2 -19.1 21.5 -17.25 20.25 -17.05 17.9 M-14.95 13.0 L-14.5 12.85 Q-13.85 12.15 -14.05 11.35 -15.05 11.9 -14.95 13.0 M-22.55 28.7 Q-20.55 27.6 -20.3 25.3 -20.35 24.35 -21.05 24.4 L-22.4 26.45 Q-23.0 27.5 -22.55 28.7 M-24.6 34.05 Q-24.3 34.8 -23.7 34.5 -22.8 33.45 -23.2 32.05 -24.9 32.4 -24.6 34.05 M-23.6 48.6 L-23.55 48.6 -23.1 48.55 Q-22.1 48.15 -22.1 47.05 L-22.15 46.25 -22.2 45.95 Q-20.6 47.5 -20.3 49.55 -21.8 50.2 -23.25 49.55 L-23.6 48.6 M-1.25 57.45 L-5.0 53.85 Q-3.2 47.5 -4.1 40.55 L-4.0 40.55 Q-4.05 41.35 -3.25 42.1 L-3.15 42.3 Q-2.9 44.35 -2.9 46.55 L-2.85 47.75 -2.75 49.75 -2.45 52.8 Q-2.1 55.2 -1.25 57.45 M-18.2 59.8 Q-17.45 59.0 -17.9 58.05 L-18.2 57.75 Q-20.05 57.0 -22.1 57.1 -22.7 57.3 -22.85 57.9 L-22.9 59.2 Q-22.65 59.75 -21.85 59.95 L-18.2 59.8 M-20.65 99.15 L-20.85 98.95 -20.8 98.95 -20.65 99.15 M-14.5 80.15 Q-14.6 80.0 -14.8 79.95 L-14.8 79.9 -15.3 79.9 -15.5 80.15 Q-16.25 81.65 -14.55 82.0 -13.25 82.3 -12.45 81.4 -12.3 81.2 -12.45 81.0 -13.15 80.0 -14.5 80.15 M-14.75 98.2 L-13.85 97.7 -13.75 97.6 -13.4 97.45 -11.5 97.7 -10.85 98.3 -10.85 98.35 Q-10.95 99.35 -12.1 99.8 L-14.65 100.25 -15.05 99.9 -15.5 99.7 -14.75 99.4 Q-14.1 99.1 -14.35 98.45 L-14.55 98.25 -14.75 98.2" fill="#cc0000" fill-rule="evenodd" stroke="none"/>
    <path d="M-24.6 48.3 L-24.5 48.1 Q-24.25 48.55 -23.6 48.6 L-23.25 49.55 Q-21.8 50.2 -20.3 49.55 -20.6 47.5 -22.2 45.95 -22.45 45.1 -23.35 44.95 -23.6 44.9 -23.85 45.1 L-24.2 45.55 Q-24.15 44.95 -23.75 44.55 L-23.7 44.55 -23.5 44.35 -23.45 44.3 Q-22.2 44.15 -21.5 45.3 L-20.75 46.4 Q-20.45 46.1 -19.9 46.1 -18.75 46.3 -17.95 47.2 L-17.9 47.3 -16.5 47.35 -16.0 48.2 -16.05 48.45 -16.1 48.5 -16.1 48.55 Q-15.3 48.6 -14.85 49.2 L-15.05 49.95 -15.1 50.05 -16.25 51.45 -16.35 51.55 -17.35 52.25 -18.8 52.75 -18.75 52.7 -19.25 52.8 -19.55 52.8 -17.8 51.4 -17.85 51.4 Q-19.6 51.7 -21.4 51.4 -22.1 51.25 -22.3 50.6 L-24.2 50.25 -24.2 50.35 -24.25 50.25 -24.6 48.3 M-17.25 44.2 L-17.3 44.15 -17.55 43.75 -17.45 43.7 -17.25 44.2 M-15.55 25.05 L-15.7 25.0 -15.35 24.35 -15.4 24.1 Q-15.85 17.9 -9.95 15.7 -8.65 15.2 -7.1 15.25 -4.4 10.8 -3.6 5.55 -2.75 0.2 1.7 -2.3 2.8 -0.1 2.5 2.6 2.15 5.7 1.15 8.25 -0.35 10.5 -2.7 11.5 -12.85 20.35 -13.45 33.15 L-13.5 33.5 -13.6 33.85 -14.75 28.6 -15.35 24.35 -15.55 25.05 M-18.7 105.25 L-18.75 105.3 -19.75 105.55 -20.45 105.0 -20.5 104.9 Q-22.65 105.0 -23.5 103.25 -24.4 101.35 -26.0 100.2 L-25.8 99.95 -25.75 99.9 -26.2 99.7 -26.5 99.5 Q-25.25 98.2 -25.2 96.6 -25.2 95.9 -25.35 95.15 L-26.2 94.35 -26.3 94.25 -26.05 94.2 -24.4 94.3 -24.7 94.35 -24.95 94.4 -24.75 94.55 -24.7 94.7 -24.55 95.35 -24.45 97.05 -24.5 97.35 -24.95 98.7 -25.45 99.55 -25.3 99.3 Q-24.45 99.55 -23.65 100.15 L-22.45 101.15 -19.25 101.05 -18.65 98.7 Q-18.25 97.45 -17.35 97.15 L-16.5 97.1 -15.05 97.1 -14.9 97.05 -13.9 96.65 Q-10.9 95.95 -9.75 97.85 L-9.3 98.95 Q-8.85 101.05 -7.9 102.8 L-7.85 102.75 Q-7.0 102.3 -6.0 102.25 L-5.95 102.15 Q-5.7 100.75 -6.0 99.3 -6.4 97.45 -6.4 95.5 -6.4 95.1 -6.55 94.75 -7.15 93.3 -6.75 91.75 -6.15 89.55 -3.85 88.95 L-3.4 85.1 Q-3.25 84.05 -3.35 83.0 L-7.3 82.75 -7.4 82.75 -9.7 82.95 -9.8 82.95 -9.95 82.95 -11.4 82.95 -11.5 82.9 Q-11.7 82.8 -11.85 82.75 L-11.95 82.65 -9.9 82.4 -9.25 82.25 -9.1 82.25 -7.8 81.9 -3.6 79.9 -4.3 80.25 Q-4.75 79.5 -4.75 78.55 -4.85 75.25 -2.95 72.65 -3.5 75.9 -2.4 79.2 L-2.95 79.6 -2.65 79.4 Q-2.35 79.8 -2.4 80.5 L-2.5 81.1 -2.6 81.0 Q-1.4 82.85 -1.75 85.1 L-2.6 89.35 -2.8 89.5 -3.85 90.75 -4.35 91.55 -4.75 92.35 Q-5.75 94.8 -4.95 97.85 -4.2 99.05 -4.4 100.6 L-4.8 103.5 -6.55 104.3 -6.8 104.75 Q-7.4 105.4 -8.0 105.3 -8.6 106.15 -9.55 106.75 -11.6 107.05 -12.55 105.4 L-13.1 104.55 -13.0 104.45 -13.75 104.1 -14.45 103.75 -14.8 103.65 -14.8 103.55 -14.75 102.45 Q-14.9 100.65 -16.65 100.0 L-16.65 99.95 -16.85 99.9 -16.9 99.9 Q-18.05 99.85 -18.15 100.95 -18.25 101.95 -18.7 102.75 L-18.7 105.25 M-31.05 100.6 L-31.95 100.45 Q-31.3 99.15 -31.85 97.7 L-32.05 97.2 Q-32.35 96.6 -33.0 96.25 L-33.3 96.1 -33.6 96.0 -33.5 95.8 Q-33.1 95.25 -32.45 95.45 L-32.2 95.6 -31.45 96.15 -31.35 96.45 -31.25 96.8 -31.25 96.9 -30.8 98.55 Q-30.5 99.7 -31.05 100.6 M-24.15 94.35 Q-23.05 94.55 -22.1 95.15 L-22.05 95.4 -21.75 96.1 -21.7 96.15 -21.0 96.9 Q-20.2 97.6 -20.25 98.5 L-20.45 99.35 -20.65 99.15 -20.8 98.95 -21.55 98.15 -22.8 96.65 -23.35 95.85 -23.65 95.0 -23.95 94.45 -24.15 94.35 M-27.8 18.7 L-26.05 17.15 -25.8 16.8 Q-24.15 13.3 -21.85 10.2 L-18.9 6.0 -18.05 4.9 Q-15.85 2.0 -12.5 0.65 L-11.95 0.55 -11.3 0.65 -11.85 1.35 -13.75 3.2 -15.05 4.1 -15.15 4.2 -15.3 4.25 -15.4 4.35 Q-18.85 6.3 -18.9 10.4 L-20.15 14.35 Q-20.75 16.35 -23.2 16.65 -26.4 19.35 -29.7 21.6 -29.2 21.95 -29.45 22.9 L-29.85 23.65 Q-29.35 24.1 -29.75 25.05 L-30.15 25.9 Q-30.8 26.15 -31.2 26.95 -30.3 27.2 -29.5 27.75 L-29.05 28.0 -28.55 28.1 -27.25 28.15 -28.25 30.45 -31.0 29.35 Q-32.25 28.95 -33.05 27.9 L-33.15 27.9 Q-33.55 27.85 -33.7 27.45 -34.05 26.35 -33.2 25.75 L-33.3 26.4 -32.0 26.3 -31.95 26.25 -31.75 26.1 Q-30.5 25.1 -30.3 23.6 L-30.75 23.6 -31.85 24.65 -32.05 24.75 -32.3 24.85 -32.35 24.9 -32.55 25.0 Q-33.15 24.25 -32.65 23.2 L-32.1 22.45 -32.05 22.2 -31.25 21.25 -30.15 20.45 -29.4 20.0 -29.2 19.85 -28.5 19.3 -27.8 18.75 -27.8 18.7 M-32.35 23.25 L-32.2 23.15 -32.25 22.95 -32.35 23.25 M-5.8 36.5 L-5.85 36.55 Q-8.7 35.45 -12.25 35.7 L-11.95 33.55 -5.7 34.65 Q-5.25 34.75 -4.9 34.95 L-5.35 35.75 -5.8 36.5 M-3.8 34.9 L-3.7 34.85 Q-4.25 37.05 -2.85 38.7 L-1.5 39.75 -1.75 39.9 -3.4 40.1 -4.0 39.65 -4.45 38.7 Q-4.55 37.85 -5.1 37.2 L-5.05 36.85 Q-4.9 35.55 -3.8 34.9 M-14.5 57.75 Q-12.85 56.25 -11.6 54.3 L-11.3 53.8 -11.15 53.85 Q-10.05 54.25 -10.25 55.45 L-10.4 56.15 -10.45 55.65 Q-11.65 57.25 -13.05 58.25 L-14.9 59.25 -17.5 59.85 Q-15.85 58.95 -14.5 57.75 M-6.8 62.0 L-6.2 62.6 Q-5.75 63.3 -6.15 64.05 L-6.25 64.25 -6.3 63.85 Q-8.7 66.65 -11.65 68.05 L-12.55 68.25 -14.65 68.05 -12.7 67.4 Q-10.15 66.35 -8.1 64.0 L-7.05 62.7 -6.8 62.0 M-3.85 70.25 L-3.35 70.65 Q-3.05 70.95 -3.0 71.4 L-3.05 72.3 -3.05 72.35 -4.3 73.2 -10.05 75.4 -10.2 75.45 -10.5 75.5 -12.1 75.6 -10.6 75.05 Q-8.3 74.1 -6.1 72.8 -4.55 71.95 -3.75 70.4 L-3.75 70.35 -3.85 70.25 M-10.0 87.65 Q-9.35 86.45 -8.3 85.45 -9.05 86.2 -9.4 87.15 L-9.7 88.05 -9.75 88.15 -9.8 88.4 -9.9 89.45 -9.9 90.0 -9.9 90.05 -9.95 90.25 -10.45 92.05 -11.3 93.35 Q-11.45 90.1 -10.0 87.65 M-15.45 93.65 L-16.05 94.6 -16.1 94.65 -16.8 95.45 -16.8 95.5 -17.15 95.8 -17.15 95.75 -17.2 95.3 -16.95 94.9 Q-16.55 94.5 -16.5 94.0 -16.3 91.75 -14.95 90.0 L-11.9 86.7 Q-12.05 87.9 -13.15 88.9 L-14.8 91.0 Q-14.9 92.45 -15.45 93.65 M-14.75 98.2 L-14.95 98.3 -15.85 98.5 -16.9 98.45 -17.35 98.35 Q-17.55 99.2 -16.85 99.25 -16.2 99.25 -15.7 99.6 L-15.65 99.65 -15.5 99.7 -15.05 99.9 -14.6 100.35 -14.45 100.55 -14.2 101.2 -14.2 101.25 Q-14.0 102.45 -14.1 103.6 -12.9 103.15 -11.85 102.4 L-10.45 101.55 Q-9.85 101.2 -9.75 100.55 L-9.75 100.15 -10.45 98.95 -10.8 98.35 -10.85 98.35 -10.85 98.3 -11.5 97.7 -13.4 97.45 -13.75 97.6 -13.85 97.7 -14.75 98.2" fill="#660000" fill-rule="evenodd" stroke="none"/>
  </g>
</svg>
