<?xml version="1.0" encoding="UTF-8" standalone="no"?>
<svg xmlns:xlink="http://www.w3.org/1999/xlink" height="88.05px" width="41.05px" xmlns="http://www.w3.org/2000/svg">
  <g transform="matrix(1.0, 0.0, 0.0, 1.0, 33.95, 7.9)">
    <path d="M2.8 -7.1 L0.85 -6.85 0.2 -6.6 -2.85 -5.25 -2.95 -5.2 -3.3 -5.0 Q-5.95 -3.35 -6.7 -0.45 L-7.85 2.95 -8.65 4.9 -9.6 6.25 Q-10.9 7.5 -13.4 7.8 L-15.8 10.8 -15.85 10.85 -16.1 11.2 Q-16.6 11.85 -16.6 12.55 L-17.0 12.55 -17.05 12.55 -17.45 13.05 -17.55 13.55 -18.55 14.45 -21.55 17.55 -22.05 18.1 -21.95 19.7 Q-21.95 23.7 -23.85 27.35 -24.2 28.4 -23.9 29.3 L-24.05 28.65 -24.65 28.55 -25.25 29.25 -25.35 28.95 Q-26.6 29.1 -27.6 29.85 L-27.8 30.35 Q-28.45 32.5 -27.15 34.3 -26.75 35.3 -26.85 36.65 -26.9 37.3 -26.6 37.7 L-26.7 38.35 -26.55 38.75 -26.85 38.75 -26.85 39.55 -27.8 39.7 -28.6 38.75 -28.65 38.75 -28.75 38.65 -30.2 37.4 -33.1 35.25 -33.1 35.35 -33.15 35.45 -33.25 37.2 -33.1 39.0 Q-32.75 40.9 -32.9 42.85 -31.7 43.5 -30.45 44.35 L-29.75 44.85 -29.3 45.2 -29.05 45.4 -28.9 45.3 -28.55 46.45 -28.2 46.9 -28.15 46.95 -28.3 47.05 -28.55 47.3 -28.65 47.4 -28.4 48.85 Q-28.2 49.2 -28.15 49.6 L-28.15 50.4 -28.45 51.05 -28.4 51.6 -28.3 51.9 -28.0 52.05 Q-29.95 51.1 -32.4 51.15 L-31.35 52.3 -30.75 53.0 -30.7 53.0 -28.65 55.75 -27.15 58.15 -27.25 58.75 -27.2 59.9 -27.45 59.95 Q-27.9 60.1 -28.0 60.4 L-27.95 60.4 Q-28.65 60.5 -29.15 61.0 -28.45 61.6 -27.35 61.55 L-26.5 61.65 -26.45 61.7 -25.4 63.2 -24.2 64.7 -24.2 64.75 -24.25 65.0 Q-24.3 65.45 -23.85 65.55 L-23.7 65.6 Q-24.15 66.05 -23.95 66.9 -23.65 68.05 -23.65 69.05 L-23.65 68.7 Q-24.05 69.35 -23.55 69.95 -24.45 70.85 -23.15 72.0 -21.3 73.65 -20.85 75.4 L-20.9 75.45 -20.9 76.05 Q-20.75 76.7 -20.25 76.85 -20.6 77.5 -19.75 78.1 L-16.0 78.95 -12.9 79.15 -14.2 78.55 Q-15.65 77.8 -16.75 76.2 L-16.85 76.05 Q-17.4 75.25 -18.15 75.1 -17.75 74.7 -17.85 74.15 L-18.0 73.25 Q-16.05 74.45 -13.9 74.55 L-13.9 73.5 -16.9 70.1 Q-18.3 68.35 -18.6 66.2 L-18.65 65.9 Q-18.2 64.25 -18.05 62.8 L-18.05 62.7 -18.1 61.95 Q-17.5 62.2 -17.15 61.55 -16.3 61.3 -15.6 60.6 -14.0 60.95 -13.95 59.85 L-13.35 59.95 Q-12.1 61.35 -10.1 61.55 -9.65 61.55 -9.4 61.95 L-8.9 62.3 -8.9 62.8 -8.6 63.15 -7.85 63.25 Q-7.75 64.5 -6.65 65.35 -6.75 63.95 -7.55 62.85 L-7.5 62.65 Q-7.35 61.75 -8.05 61.65 L-8.15 61.85 Q-8.0 61.5 -8.15 61.1 -9.7 58.65 -12.2 57.55 L-12.85 58.2 -12.4 57.7 Q-12.6 57.2 -13.45 57.3 L-13.55 57.4 -17.05 56.6 Q-16.95 55.8 -17.8 55.7 L-17.75 55.35 Q-19.4 53.9 -19.9 51.8 L-20.4 50.7 Q-20.1 50.5 -20.05 50.0 L-20.2 49.45 -19.85 49.5 Q-19.6 48.6 -19.95 47.8 L-19.9 47.95 -19.45 47.95 -19.2 47.7 -19.15 47.7 Q-18.7 47.25 -19.1 46.65 L-19.15 46.55 Q-18.55 42.95 -19.85 39.7 L-19.9 39.55 -19.95 39.4 -20.0 39.3 -20.45 36.95 -20.45 36.9 -20.45 36.2 Q-20.35 34.5 -19.55 32.8 L-19.65 32.7 -19.8 32.45 -19.8 32.35 Q-19.35 31.25 -20.15 30.5 L-19.7 30.5 Q-19.6 29.0 -18.4 28.2 L-18.3 28.1 -17.05 27.3 -16.1 26.75 -16.1 26.6 Q-15.65 26.65 -15.3 26.1 L-15.25 26.05 -15.0 26.3 Q-12.3 24.2 -11.05 21.45 -9.75 18.65 -9.0 15.65 L-9.05 15.65 -8.95 15.55 -8.8 15.4 -8.65 14.85 -9.35 14.5 -8.65 14.85 Q-7.95 12.7 -6.6 10.8 -5.4 9.15 -3.75 8.45 L-2.25 8.0 -1.65 7.95 Q1.3 7.7 3.3 5.45 L3.6 4.5 Q4.35 2.4 5.35 0.4 6.6 -2.05 5.95 -5.3 L5.35 -6.45 Q4.05 -7.05 2.8 -7.1 M6.8 -7.15 Q7.2 -5.2 7.1 -3.15 6.9 -1.2 7.1 0.75 6.5 3.25 4.95 5.35 3.35 7.45 0.7 8.05 -4.15 9.05 -5.95 12.45 -7.8 15.85 -9.2 19.85 -10.6 23.85 -14.1 26.6 L-16.6 27.95 Q-17.9 28.6 -18.35 30.1 -18.75 31.25 -17.95 32.25 L-19.3 35.75 Q-17.75 40.45 -17.95 45.9 -19.75 49.0 -18.55 52.15 -17.25 53.9 -16.45 55.9 -14.05 57.05 -11.1 56.5 -5.85 60.35 -6.0 66.95 -7.05 66.7 -7.4 65.7 -7.75 64.7 -8.45 63.95 -9.3 62.65 -10.75 62.85 -12.25 63.0 -13.05 61.85 -15.8 61.25 -17.05 63.8 -18.3 66.05 -16.8 68.05 L-13.9 71.85 Q-11.6 73.1 -8.75 73.05 L-8.75 73.35 Q-10.75 75.1 -13.15 75.7 L-15.0 75.15 Q-15.95 74.6 -16.9 75.15 -14.3 78.0 -10.8 79.2 -11.4 80.05 -12.9 80.15 -16.85 79.9 -20.35 78.55 -22.25 74.4 -24.85 70.65 -24.5 68.45 -24.5 66.2 -26.3 64.6 -27.05 62.6 -28.0 62.0 -29.1 61.8 -30.2 61.6 -31.05 61.0 -30.95 60.0 -29.95 59.95 L-28.05 59.8 Q-27.25 59.05 -27.95 58.15 -31.45 54.3 -33.45 49.95 L-31.2 50.25 Q-30.05 50.55 -29.0 50.25 -29.4 48.65 -29.45 46.95 L-33.6 42.9 Q-34.25 37.65 -33.6 32.35 -32.5 33.2 -31.8 34.6 -29.65 36.2 -27.8 38.3 -27.4 36.3 -28.55 34.3 -29.25 32.95 -28.9 31.4 L-28.05 28.5 Q-27.15 27.9 -25.8 28.05 -24.25 25.85 -23.8 23.2 L-22.85 17.9 Q-20.0 14.85 -17.7 11.35 -15.45 7.8 -11.65 6.25 -9.3 3.6 -8.6 0.3 -7.9 -3.1 -4.85 -5.2 -2.35 -6.8 0.7 -7.6 3.75 -8.4 6.8 -7.15 M-18.65 66.2 L-18.75 66.55 -18.8 66.05 -18.8 66.0 -18.65 66.2 M-13.0 73.65 L-13.1 75.0 Q-11.8 74.65 -10.75 73.65 L-12.5 73.4 -12.55 73.4 -12.95 73.35 -13.0 73.65 M-24.5 56.2 L-24.5 56.1 -24.45 56.05 -24.45 56.1 -24.5 56.2" fill="#000000" fill-rule="evenodd" stroke="none"/>
    <path d="M-24.2 64.7 L-25.4 63.2 -24.6 62.4 -24.35 62.45 -24.05 62.7 -23.5 63.0 -23.45 63.0 -23.35 63.0 Q-23.0 63.4 -23.0 64.15 L-24.2 64.75 -24.2 64.7 M-30.7 53.0 L-30.75 53.0 -31.35 52.3 -32.4 51.15 Q-29.95 51.1 -28.0 52.05 L-27.65 52.25 -27.75 52.5 Q-28.65 53.9 -30.5 53.1 L-30.7 53.0 M-28.15 49.6 Q-28.2 49.2 -28.4 48.85 L-28.65 47.4 -28.55 47.3 -28.3 47.05 -28.15 46.95 -27.85 46.7 -27.35 46.5 -26.75 46.35 -26.6 46.65 -26.3 46.85 -25.75 46.9 -25.25 46.9 Q-24.85 47.45 -25.65 48.35 L-26.2 48.95 Q-27.2 49.95 -28.15 49.6 M-33.25 37.2 L-33.15 35.45 -33.1 35.35 -33.1 35.25 -30.2 37.4 -30.05 37.8 Q-29.6 38.95 -30.7 39.6 L-31.55 39.6 Q-32.8 38.55 -33.25 37.2 M-26.85 39.55 L-26.85 38.75 -26.55 38.75 Q-25.85 38.8 -25.2 39.5 L-24.85 39.9 Q-24.7 40.85 -25.9 41.0 L-26.35 40.95 -26.45 40.6 -26.85 39.55 M-27.8 30.35 L-27.6 29.85 Q-26.6 29.1 -25.35 28.95 L-25.25 29.25 -24.6 31.05 Q-24.0 31.55 -23.25 31.8 L-21.65 31.95 Q-20.95 31.2 -20.45 31.75 L-20.2 32.05 -20.2 32.1 -20.9 32.1 -22.35 33.25 -23.45 32.8 -23.85 32.5 -23.6 32.3 -24.0 32.55 Q-26.95 32.85 -27.8 30.35 M-21.95 19.7 L-22.05 18.1 -21.55 17.55 -18.55 14.45 -18.1 14.1 -17.3 13.9 -16.95 14.85 Q-17.4 15.25 -17.45 15.95 L-17.55 16.8 -17.7 16.85 -20.05 17.85 -20.8 19.55 -21.1 19.95 -21.75 19.95 -21.95 19.7 M-16.1 11.2 L-15.85 10.85 -15.8 10.8 -13.4 7.8 Q-10.9 7.5 -9.6 6.25 L-9.4 6.4 -9.25 6.6 Q-9.3 7.2 -9.75 7.8 L-10.2 8.4 Q-12.75 8.85 -14.35 10.7 L-15.4 11.8 -16.05 11.8 -16.2 11.65 -16.3 11.55 -16.1 11.2 M-7.85 2.95 L-6.7 -0.45 Q-5.95 -3.35 -3.3 -5.0 L-2.95 -5.2 -2.85 -5.25 0.2 -6.6 0.05 -6.15 Q-0.2 -5.3 -0.85 -4.65 -3.65 -1.9 -4.75 1.75 L-5.25 2.65 Q-6.8 4.35 -7.85 2.95 M-15.25 19.4 L-15.3 19.1 Q-15.5 16.8 -13.35 15.85 L-12.8 15.6 Q-11.6 16.35 -12.55 17.95 -13.2 19.0 -14.3 19.5 L-15.25 19.4 M-22.3 60.2 L-22.8 59.75 Q-22.6 59.25 -22.2 58.9 L-22.1 58.85 -21.8 58.8 -21.45 58.95 -21.2 59.05 Q-20.5 59.95 -20.35 60.85 L-20.5 61.05 Q-20.9 61.55 -20.8 62.25 L-20.8 62.3 -20.8 62.5 -20.75 62.75 -20.9 63.0 Q-21.1 63.3 -21.4 63.2 L-22.25 62.8 -21.95 62.25 -21.9 61.95 Q-21.75 60.85 -22.3 60.2" fill="#ff6633" fill-rule="evenodd" stroke="none"/>
    <path d="M0.2 -6.6 L0.85 -6.85 2.8 -7.1 2.2 -3.35 2.3 -2.3 Q2.55 -1.35 2.25 -0.5 1.6 1.3 0.55 2.8 -0.35 2.4 -1.5 2.55 L-1.55 2.6 -1.75 2.65 -3.05 4.15 Q-3.8 5.0 -3.8 6.0 -7.5 6.35 -9.6 9.3 L-10.5 10.9 Q-11.35 12.8 -13.4 13.4 -13.85 13.5 -14.3 13.15 -15.25 12.5 -16.35 12.65 L-16.6 12.75 -16.6 12.55 Q-16.6 11.85 -16.1 11.2 L-16.3 11.55 -16.2 11.65 -16.05 11.8 -15.4 11.8 -14.35 10.7 Q-12.75 8.85 -10.2 8.4 L-9.75 7.8 Q-9.3 7.2 -9.25 6.6 L-9.4 6.4 -9.6 6.25 -8.65 4.9 -7.85 2.95 Q-6.8 4.35 -5.25 2.65 L-4.75 1.75 Q-3.65 -1.9 -0.85 -4.65 -0.2 -5.3 0.05 -6.15 L0.2 -6.6 M-16.0 78.95 L-19.75 78.1 Q-20.6 77.5 -20.25 76.85 L-20.2 76.75 -19.45 75.25 -19.1 75.15 -19.45 75.95 Q-19.5 76.7 -18.95 77.2 -17.65 78.35 -16.0 78.95 M-20.85 75.4 Q-21.3 73.65 -23.15 72.0 -24.45 70.85 -23.55 69.95 -23.2 69.55 -22.35 69.2 L-21.25 69.05 -21.8 69.1 Q-22.55 69.95 -22.05 71.35 -21.4 73.15 -20.1 74.4 L-19.45 74.65 -19.25 74.65 -19.0 74.1 Q-19.1 75.1 -20.85 75.5 L-20.85 75.4 M-23.65 69.05 Q-23.65 68.05 -23.95 66.9 -24.15 66.05 -23.7 65.6 L-22.9 65.05 Q-21.9 64.6 -21.15 64.8 L-21.85 64.9 -22.15 65.05 -22.35 65.1 -22.7 65.55 Q-23.25 66.3 -22.9 67.15 L-21.95 68.45 Q-22.85 68.65 -23.65 69.2 L-23.65 69.05 M-25.4 63.2 L-26.45 61.7 -26.5 61.65 -26.45 61.65 -26.95 60.8 -27.2 59.9 -27.25 58.75 -25.95 58.5 Q-24.75 57.55 -24.5 56.2 L-24.45 56.1 -24.45 56.05 -24.75 55.05 -24.5 55.95 -24.5 55.5 -24.8 54.1 -24.8 53.6 Q-24.65 52.25 -26.25 51.75 L-28.15 50.4 -28.15 49.6 Q-27.2 49.95 -26.2 48.95 L-25.65 48.35 Q-24.85 47.45 -25.25 46.9 L-22.4 46.3 -22.35 46.25 -22.2 46.15 -22.1 46.2 -21.8 46.55 -21.85 46.55 -22.05 46.7 -22.25 46.75 Q-22.8 47.15 -22.8 47.8 L-22.75 48.6 -22.3 48.6 -23.25 48.75 -26.1 50.4 -24.6 50.25 -22.95 49.5 -22.5 49.55 Q-23.7 50.2 -23.65 51.7 -23.55 54.7 -21.25 56.45 L-20.2 57.2 -19.05 57.7 Q-19.9 58.6 -19.4 59.95 -18.7 60.6 -18.35 61.3 L-18.7 60.7 -19.25 60.5 -20.2 60.7 -20.5 61.05 -20.35 60.85 Q-20.5 59.95 -21.2 59.05 L-21.45 58.95 -21.8 58.8 -22.1 58.85 -22.2 58.9 Q-22.6 59.25 -22.8 59.75 -23.25 59.45 -23.85 59.25 -24.45 59.2 -24.75 59.75 -25.75 61.55 -24.05 62.7 L-24.35 62.45 -24.6 62.4 -25.4 63.2 M-27.35 61.55 Q-28.45 61.6 -29.15 61.0 -28.65 60.5 -27.95 60.4 L-27.85 60.35 -27.35 61.55 M-28.65 55.75 L-30.7 53.0 -30.5 53.1 Q-28.65 53.9 -27.75 52.5 L-27.65 52.25 -27.05 52.6 Q-28.1 52.8 -28.15 54.0 -28.15 54.75 -28.5 55.35 L-28.65 55.75 M-30.45 44.35 Q-31.7 43.5 -32.9 42.85 -32.75 40.9 -33.1 39.0 L-33.25 37.2 Q-32.8 38.55 -31.55 39.6 L-30.7 39.6 Q-29.6 38.95 -30.05 37.8 L-30.2 37.4 -28.75 38.65 -28.65 38.75 -28.9 38.75 -29.5 39.15 Q-29.9 39.45 -29.95 39.95 -30.05 41.65 -30.4 43.25 L-30.45 44.35 M-26.6 37.7 Q-26.9 37.3 -26.85 36.65 -26.75 35.3 -27.15 34.3 -28.45 32.5 -27.8 30.35 -26.95 32.85 -24.0 32.55 L-23.6 32.3 -23.85 32.5 -23.45 32.8 -22.35 33.25 Q-23.4 34.5 -23.35 36.4 L-23.2 37.05 Q-22.4 38.5 -22.35 40.15 -23.25 40.1 -23.7 40.7 -24.0 39.05 -25.5 38.2 L-25.6 38.2 -26.05 38.05 -26.6 37.65 -26.6 37.7 M-23.9 29.3 Q-24.2 28.4 -23.85 27.35 -21.95 23.7 -21.95 19.7 L-21.75 19.95 -21.1 19.95 -20.8 19.55 -20.05 17.85 -17.7 16.85 -17.55 16.8 -17.9 18.25 Q-18.3 19.7 -19.35 20.95 L-19.8 21.5 Q-21.85 24.15 -20.1 26.75 L-20.7 27.25 -21.15 27.6 -22.3 28.15 -23.6 29.7 -23.65 29.75 -23.7 29.85 -23.9 29.3 M-18.55 14.45 L-17.55 13.55 -17.45 13.45 -17.3 13.9 -18.1 14.1 -18.55 14.45 M-16.8 22.9 L-16.8 22.85 Q-15.2 21.55 -15.25 19.4 L-14.3 19.5 Q-13.2 19.0 -12.55 17.95 -11.6 16.35 -12.8 15.6 L-10.9 15.25 Q-11.85 17.15 -12.4 19.25 -13.05 21.7 -14.2 24.0 -14.9 23.95 -15.5 23.55 -16.2 23.05 -16.8 22.9 M-20.2 32.05 L-20.15 32.1 -20.2 32.1 -20.2 32.05 M-24.2 41.95 L-24.25 42.9 -25.8 43.6 Q-27.05 44.35 -27.0 45.4 L-28.35 46.1 Q-25.9 44.0 -26.35 40.95 L-25.9 41.0 Q-24.7 40.85 -24.85 39.9 -24.55 40.4 -24.55 41.15 -24.6 41.85 -24.2 41.95 M-26.9 46.05 L-26.75 46.35 -27.35 46.5 -27.85 46.7 -28.15 46.95 -26.9 46.05 M-20.35 64.25 L-21.0 63.8 -23.0 64.15 Q-23.0 63.4 -23.35 63.0 L-22.55 63.0 -22.5 63.0 -22.45 63.0 -22.4 62.95 -22.35 62.9 -22.25 62.8 -21.4 63.2 Q-21.1 63.3 -20.9 63.0 L-20.75 62.75 -20.35 64.25 M-12.55 73.4 L-12.8 73.5 -13.0 73.65 -12.95 73.35 -12.55 73.4" fill="#cc0000" fill-rule="evenodd" stroke="none"/>
    <path d="M2.8 -7.1 Q4.05 -7.05 5.35 -6.45 L5.95 -5.3 Q6.6 -2.05 5.35 0.4 4.35 2.4 3.6 4.5 2.5 2.9 0.5 2.85 L0.55 2.8 Q1.6 1.3 2.25 -0.5 2.55 -1.35 2.3 -2.3 L2.2 -3.35 2.8 -7.1 M-2.25 8.0 L-3.75 8.45 -4.75 8.75 Q-6.95 9.45 -8.4 11.2 L-10.05 13.9 -10.25 14.4 -9.85 14.45 -10.55 14.4 -10.65 14.4 -10.95 14.45 -13.25 14.95 Q-14.2 15.85 -14.9 15.4 L-16.2 14.2 Q-16.6 13.45 -16.6 12.75 L-16.35 12.65 Q-15.25 12.5 -14.3 13.15 -13.85 13.5 -13.4 13.4 -11.35 12.8 -10.5 10.9 L-9.6 9.3 Q-7.5 6.35 -3.8 6.0 L-3.45 5.95 -3.3 5.95 -3.5 6.0 -3.55 6.15 -3.6 6.65 Q-3.65 7.5 -2.95 8.0 L-2.8 8.1 -2.25 8.0 M-16.1 26.6 L-16.1 26.75 -17.05 27.3 Q-17.0 27.05 -17.45 26.9 L-19.5 27.45 Q-20.65 28.7 -20.5 30.4 L-20.5 30.55 -21.25 30.8 -22.2 30.95 -21.7 30.9 Q-21.7 30.65 -21.85 30.45 L-21.8 30.05 Q-21.9 29.4 -21.4 28.95 -21.0 28.6 -21.0 28.1 -21.0 27.75 -21.15 27.6 L-20.7 27.25 -20.1 26.75 Q-21.85 24.15 -19.8 21.5 L-19.35 20.95 Q-18.3 19.7 -17.9 18.25 L-17.55 16.8 -17.45 15.95 Q-17.4 15.25 -16.95 14.85 -15.45 15.85 -15.75 17.7 L-16.2 21.1 -17.55 22.6 Q-18.3 23.45 -17.55 24.5 -17.35 25.15 -16.75 25.6 -16.25 26.0 -16.1 26.6 M-19.8 32.45 L-19.65 32.7 -21.15 34.2 -21.7 34.8 Q-22.45 35.65 -22.5 36.7 L-22.35 37.2 -21.45 38.45 Q-20.1 39.95 -19.95 42.05 L-19.85 42.7 Q-19.65 44.0 -20.1 45.25 -20.55 45.5 -20.45 46.0 L-20.4 46.25 -20.45 46.25 -20.4 47.15 -20.45 47.05 -20.75 47.05 -21.2 47.55 -21.15 47.95 Q-20.7 48.6 -20.75 49.3 L-21.45 48.95 Q-21.55 48.85 -21.6 48.85 L-21.95 48.7 -22.3 48.6 -22.75 48.6 -22.8 47.8 Q-22.8 47.15 -22.25 46.75 L-22.05 46.7 -21.85 46.55 -21.8 46.55 -22.1 46.2 -22.2 46.15 -22.35 46.25 -22.4 46.3 -25.25 46.9 -25.75 46.9 -26.3 46.85 -26.6 46.65 -26.75 46.35 -26.9 46.05 Q-25.05 45.0 -22.8 45.05 L-21.95 45.65 Q-21.7 45.35 -21.75 44.9 -23.0 43.6 -24.45 44.0 L-27.0 45.4 Q-27.05 44.35 -25.8 43.6 L-24.25 42.9 -24.2 41.95 -23.7 41.95 -23.65 41.15 -23.7 40.7 Q-23.25 40.1 -22.35 40.15 -22.4 38.5 -23.2 37.05 L-23.35 36.4 Q-23.4 34.5 -22.35 33.25 L-20.9 32.1 -20.2 32.1 -20.15 32.1 -19.8 32.45 M-17.05 56.6 L-13.55 57.4 -13.1 57.45 Q-14.2 58.15 -14.0 59.55 L-13.95 59.85 Q-14.0 60.95 -15.6 60.6 -16.3 61.3 -17.15 61.55 L-17.25 61.6 -18.4 59.95 Q-18.9 59.05 -18.3 58.05 L-17.1 56.55 -17.05 56.6 M-12.85 58.2 L-12.2 57.55 Q-9.7 58.65 -8.15 61.1 -8.0 61.5 -8.15 61.85 L-8.45 62.2 -8.6 62.3 -8.9 62.3 -9.4 61.95 Q-9.65 61.55 -10.1 61.55 -12.1 61.35 -13.35 59.95 L-13.4 59.9 -13.4 59.8 -13.4 59.75 -13.4 59.6 -13.4 59.55 -13.4 59.45 -13.4 59.4 -13.25 58.85 -13.2 58.75 -12.85 58.2 M-7.55 62.85 Q-6.75 63.95 -6.65 65.35 -7.75 64.5 -7.85 63.25 L-7.85 63.2 -7.85 63.1 -7.55 62.85 M-18.1 61.95 L-18.05 62.7 -18.05 62.8 Q-18.2 64.25 -18.65 65.9 L-18.8 66.0 Q-19.45 64.95 -20.35 64.25 L-20.75 62.75 -20.8 62.5 -20.8 62.3 -20.8 62.25 Q-20.9 61.55 -20.5 61.05 L-20.2 60.7 -19.25 60.5 -18.7 60.7 -18.35 61.3 -18.1 61.9 -18.1 61.95 M-18.15 75.1 Q-17.4 75.25 -16.85 76.05 L-16.75 76.2 Q-15.65 77.8 -14.2 78.55 L-12.9 79.15 -16.0 78.95 Q-17.65 78.35 -18.95 77.2 -19.5 76.7 -19.45 75.95 L-19.1 75.15 -18.15 75.1 M-27.25 58.75 L-27.15 58.15 -28.65 55.75 -28.5 55.35 Q-28.15 54.75 -28.15 54.0 -28.1 52.8 -27.05 52.6 L-26.4 53.1 -26.75 52.8 -26.95 53.0 Q-27.6 53.75 -27.7 54.75 L-27.7 56.15 -27.6 56.8 Q-27.35 57.85 -26.2 57.8 L-26.0 57.7 -25.3 56.85 -24.8 56.5 -24.5 56.2 Q-24.75 57.55 -25.95 58.5 L-27.25 58.75 M-29.75 44.85 L-30.45 44.35 -30.4 43.25 Q-30.05 41.65 -29.95 39.95 -29.9 39.45 -29.5 39.15 L-28.9 38.75 -28.65 38.75 -28.6 38.75 -27.8 39.7 -27.8 39.75 -27.65 40.45 -27.8 40.4 -28.2 40.5 Q-29.05 40.95 -29.35 41.9 L-29.85 43.5 Q-30.05 44.25 -29.75 44.85 M-10.9 15.25 L-10.3 15.3 Q-10.85 16.0 -10.0 16.65 -9.95 17.3 -10.2 17.95 L-10.35 18.45 -11.35 20.75 -13.9 24.4 Q-14.7 25.05 -15.65 24.6 L-15.9 24.5 -16.5 24.45 -16.8 22.9 Q-16.2 23.05 -15.5 23.55 -14.9 23.95 -14.2 24.0 -13.05 21.7 -12.4 19.25 -11.85 17.15 -10.9 15.25 M-23.7 29.85 L-23.65 29.75 -23.6 29.7 -23.6 29.95 -23.7 29.85 M-19.05 57.7 L-20.2 57.2 -21.25 56.45 Q-23.55 54.7 -23.65 51.7 -23.7 50.2 -22.5 49.55 L-22.35 49.6 Q-21.4 49.75 -20.8 50.3 -20.95 50.15 -21.05 50.1 -21.35 50.85 -21.0 51.55 -20.9 53.65 -19.55 55.25 L-19.15 55.8 -18.15 56.5 -18.95 57.55 -19.05 57.7 M-21.25 69.05 L-21.1 69.05 Q-20.1 69.15 -19.5 70.2 L-19.5 70.3 Q-19.65 71.75 -19.2 73.2 L-19.1 73.45 -19.0 74.1 -19.25 74.65 -19.45 74.65 -20.1 74.4 Q-21.4 73.15 -22.05 71.35 -22.55 69.95 -21.8 69.1 L-21.25 69.05 M-21.15 64.8 Q-20.25 65.05 -19.65 66.25 L-19.8 68.45 Q-20.95 68.2 -21.95 68.45 L-22.9 67.15 Q-23.25 66.3 -22.7 65.55 L-22.35 65.1 -22.15 65.05 -21.85 64.9 -21.15 64.8 M-24.75 55.05 L-24.8 54.1 -24.5 55.5 -24.5 55.95 -24.75 55.05 M-22.3 60.2 L-22.85 60.15 Q-23.5 60.55 -23.7 61.35 -23.85 62.05 -23.6 62.7 L-23.35 63.0 -23.45 63.0 -23.5 63.0 -24.05 62.7 Q-25.75 61.55 -24.75 59.75 -24.45 59.2 -23.85 59.25 -23.25 59.45 -22.8 59.75 L-22.3 60.2 M-22.35 62.9 Q-22.15 62.65 -22.1 62.15 L-21.9 61.95 -21.95 62.25 -22.25 62.8 -22.35 62.9" fill="#990000" fill-rule="evenodd" stroke="none"/>
    <path d="M3.6 4.5 L3.3 5.45 Q1.3 7.7 -1.65 7.95 L-2.25 8.0 -2.8 8.1 -2.95 8.0 Q-3.65 7.5 -3.6 6.65 L-3.55 6.15 -3.5 6.0 -3.3 5.95 -3.45 5.95 -3.8 6.0 Q-3.8 5.0 -3.05 4.15 L-1.75 2.65 -1.55 2.6 -1.5 2.55 Q-0.35 2.4 0.55 2.8 L0.5 2.85 Q2.5 2.9 3.6 4.5 M-3.75 8.45 Q-5.4 9.15 -6.6 10.8 -7.95 12.7 -8.65 14.85 L-9.35 14.5 -8.65 14.85 -8.8 15.4 -8.95 15.55 -9.05 15.65 -9.0 15.65 Q-9.75 18.65 -11.05 21.45 -12.3 24.2 -15.0 26.3 L-15.25 26.05 -15.3 26.1 Q-15.65 26.65 -16.1 26.6 -16.25 26.0 -16.75 25.6 -17.35 25.15 -17.55 24.5 -18.3 23.45 -17.55 22.6 L-16.2 21.1 -15.75 17.7 Q-15.45 15.85 -16.95 14.85 L-17.3 13.9 -17.45 13.45 -17.55 13.55 -17.45 13.05 -17.05 12.55 -17.0 12.55 -16.6 12.55 -16.6 12.75 Q-16.6 13.45 -16.2 14.2 L-14.9 15.4 Q-14.2 15.85 -13.25 14.95 L-10.95 14.45 -10.65 14.4 -10.55 14.4 -9.85 14.45 -10.25 14.4 -10.05 13.9 -8.4 11.2 Q-6.95 9.45 -4.75 8.75 L-3.75 8.45 M-17.05 27.3 L-18.3 28.1 -18.4 28.2 Q-19.6 29.0 -19.7 30.5 L-20.15 30.5 Q-19.35 31.25 -19.8 32.35 L-19.8 32.45 -20.15 32.1 -20.2 32.05 -20.45 31.75 Q-20.95 31.2 -21.65 31.95 L-23.25 31.8 Q-24.0 31.55 -24.6 31.05 L-25.25 29.25 -24.65 28.55 -24.05 28.65 -23.9 29.3 -23.7 29.85 -23.6 29.95 -23.6 29.7 -22.3 28.15 -21.15 27.6 Q-21.0 27.75 -21.0 28.1 -21.0 28.6 -21.4 28.95 -21.9 29.4 -21.8 30.05 L-21.85 30.45 Q-21.7 30.65 -21.7 30.9 L-22.2 30.95 -21.25 30.8 -20.5 30.55 -20.5 30.4 Q-20.65 28.7 -19.5 27.45 L-17.45 26.9 Q-17.0 27.05 -17.05 27.3 M-19.65 32.7 L-19.55 32.8 Q-20.35 34.5 -20.45 36.2 L-20.45 36.9 -20.45 36.95 -20.0 39.3 -19.95 39.4 -19.9 39.55 -19.85 39.7 Q-18.55 42.95 -19.15 46.55 L-19.1 46.65 Q-18.7 47.25 -19.15 47.7 L-19.2 47.7 -19.45 47.95 -19.9 47.95 -19.95 47.8 Q-19.6 48.6 -19.85 49.5 L-20.2 49.45 -20.05 50.0 Q-20.1 50.5 -20.4 50.7 L-19.9 51.8 Q-19.4 53.9 -17.75 55.35 L-17.8 55.7 Q-16.95 55.8 -17.05 56.6 L-17.1 56.55 -18.3 58.05 Q-18.9 59.05 -18.4 59.95 L-17.25 61.6 -17.15 61.55 Q-17.5 62.2 -18.1 61.95 L-18.1 61.9 -18.35 61.3 Q-18.7 60.6 -19.4 59.95 -19.9 58.6 -19.05 57.7 L-18.95 57.55 -18.15 56.5 -19.15 55.8 -19.55 55.25 Q-20.9 53.65 -21.0 51.55 -21.35 50.85 -21.05 50.1 -20.95 50.15 -20.8 50.3 -21.4 49.75 -22.35 49.6 L-22.5 49.55 -22.95 49.5 -24.6 50.25 -26.1 50.4 -23.25 48.75 -22.3 48.6 -21.95 48.7 -21.6 48.85 Q-21.55 48.85 -21.45 48.95 L-20.75 49.3 Q-20.7 48.6 -21.15 47.95 L-21.2 47.55 -20.75 47.05 -20.45 47.05 -20.4 47.15 -20.45 46.25 -20.4 46.25 -20.45 46.0 Q-20.55 45.5 -20.1 45.25 -19.65 44.0 -19.85 42.7 L-19.95 42.05 Q-20.1 39.95 -21.45 38.45 L-22.35 37.2 -22.5 36.7 Q-22.45 35.65 -21.7 34.8 L-21.15 34.2 -19.65 32.7 M-13.55 57.4 L-13.45 57.3 Q-12.6 57.2 -12.4 57.7 L-12.85 58.2 -13.2 58.75 -13.25 58.85 -13.4 59.4 -13.4 59.45 -13.4 59.55 -13.4 59.6 -13.4 59.75 -13.4 59.8 -13.4 59.9 -13.35 59.95 -13.95 59.85 -14.0 59.55 Q-14.2 58.15 -13.1 57.45 L-13.55 57.4 M-8.15 61.85 L-8.05 61.65 Q-7.35 61.75 -7.5 62.65 L-7.55 62.85 -7.85 63.1 -7.85 63.2 -7.85 63.25 -8.6 63.15 -8.9 62.8 -8.9 62.3 -8.6 62.3 -8.45 62.2 -8.15 61.85 M-18.6 66.2 Q-18.3 68.35 -16.9 70.1 L-13.9 73.5 -13.9 74.55 Q-16.05 74.45 -18.0 73.25 L-17.85 74.15 Q-17.75 74.7 -18.15 75.1 L-19.1 75.15 -19.45 75.25 -20.2 76.75 -20.25 76.85 Q-20.75 76.7 -20.9 76.05 L-20.9 75.45 -20.85 75.4 -20.85 75.5 Q-19.1 75.1 -19.0 74.1 L-19.1 73.45 -19.2 73.2 Q-19.65 71.75 -19.5 70.3 L-19.5 70.2 Q-20.1 69.15 -21.1 69.05 L-21.25 69.05 -22.35 69.2 Q-23.2 69.55 -23.55 69.95 -24.05 69.35 -23.65 68.7 L-23.65 69.05 -23.65 69.2 Q-22.85 68.65 -21.95 68.45 -20.95 68.2 -19.8 68.45 L-19.65 66.25 Q-20.25 65.05 -21.15 64.8 -21.9 64.6 -22.9 65.05 L-23.7 65.6 -23.85 65.55 Q-24.3 65.45 -24.25 65.0 L-24.2 64.75 -24.2 64.7 -24.2 64.75 -23.0 64.15 -21.0 63.8 -20.35 64.25 Q-19.45 64.95 -18.8 66.0 L-18.8 66.05 -18.75 66.55 -18.65 66.2 -18.6 66.2 M-26.5 61.65 L-27.35 61.55 -27.85 60.35 -27.95 60.4 -28.0 60.4 Q-27.9 60.1 -27.45 59.95 L-27.2 59.9 -26.95 60.8 -26.45 61.65 -26.5 61.65 M-28.0 52.05 L-28.3 51.9 -28.4 51.6 -28.45 51.05 -28.15 50.4 -26.25 51.75 Q-24.65 52.25 -24.8 53.6 L-24.8 54.1 -24.75 55.05 -24.45 56.05 -24.5 56.1 -24.5 56.2 -24.8 56.5 -25.3 56.85 -26.0 57.7 -26.2 57.8 Q-27.35 57.85 -27.6 56.8 L-27.7 56.15 -27.7 54.75 Q-27.6 53.75 -26.95 53.0 L-26.75 52.8 -26.4 53.1 -27.05 52.6 -27.65 52.25 -28.0 52.05 M-28.15 46.95 L-28.2 46.9 -28.55 46.45 -28.9 45.3 -29.05 45.4 -29.3 45.2 -29.75 44.85 Q-30.05 44.25 -29.85 43.5 L-29.35 41.9 Q-29.05 40.95 -28.2 40.5 L-27.8 40.4 -27.65 40.45 -27.8 39.75 -27.8 39.7 -26.85 39.55 -26.45 40.6 -26.35 40.95 Q-25.9 44.0 -28.35 46.1 L-27.0 45.4 -24.45 44.0 Q-23.0 43.6 -21.75 44.9 -21.7 45.35 -21.95 45.65 L-22.8 45.05 Q-25.05 45.0 -26.9 46.05 L-28.15 46.95 M-26.55 38.75 L-26.7 38.35 -26.6 37.7 -26.6 37.65 -26.05 38.05 -25.6 38.2 -25.5 38.2 Q-24.0 39.05 -23.7 40.7 L-23.65 41.15 -23.7 41.95 -24.2 41.95 Q-24.6 41.85 -24.55 41.15 -24.55 40.4 -24.85 39.9 L-25.2 39.5 Q-25.85 38.8 -26.55 38.75 M-16.8 22.9 L-16.5 24.45 -15.9 24.5 -15.65 24.6 Q-14.7 25.05 -13.9 24.4 L-11.35 20.75 -10.35 18.45 -10.2 17.95 Q-9.95 17.3 -10.0 16.65 -10.85 16.0 -10.3 15.3 L-10.9 15.25 -12.8 15.6 -13.35 15.85 Q-15.5 16.8 -15.3 19.1 L-15.25 19.4 Q-15.2 21.55 -16.8 22.85 L-16.8 22.9 M-12.55 73.4 L-12.5 73.4 -10.75 73.65 Q-11.8 74.65 -13.1 75.0 L-13.0 73.65 -12.8 73.5 -12.55 73.4 M-23.35 63.0 L-23.6 62.7 Q-23.85 62.05 -23.7 61.35 -23.5 60.55 -22.85 60.15 L-22.3 60.2 Q-21.75 60.85 -21.9 61.95 L-22.1 62.15 Q-22.15 62.65 -22.35 62.9 L-22.4 62.95 -22.45 63.0 -22.5 63.0 -22.55 63.0 -23.35 63.0" fill="#660000" fill-rule="evenodd" stroke="none"/>
    <path d="M-18.65 65.9 L-18.6 66.2 -18.65 66.2 -18.8 66.0 -18.65 65.9" fill="#ffffff" fill-rule="evenodd" stroke="none"/>
  </g>
</svg>
