<?xml version="1.0" encoding="UTF-8" standalone="no"?>
<svg xmlns:xlink="http://www.w3.org/1999/xlink" height="88.05px" width="40.6px" xmlns="http://www.w3.org/2000/svg">
  <g transform="matrix(1.0, 0.0, 0.0, 1.0, 6.45, 7.05)">
    <path d="M3.4 0.45 L3.3 0.2 Q2.35 -2.1 0.25 -3.6 L-0.2 -3.9 Q-2.4 -4.6 -4.3 -5.8 L-4.35 -5.8 -0.35 -6.0 Q1.9 -5.3 3.8 -4.15 5.35 -3.2 6.3 -1.8 L5.35 -1.75 Q3.95 -1.05 3.4 0.4 L3.4 0.45 M8.0 9.45 L6.75 8.0 6.35 7.6 4.8 6.35 5.9 6.85 Q7.0 7.2 7.95 6.55 L8.85 5.45 8.95 5.25 9.15 5.75 Q10.3 8.25 13.95 8.65 L16.3 11.65 17.0 12.75 Q17.35 13.8 16.75 15.05 L15.4 16.25 Q14.7 16.7 13.75 15.8 L11.45 15.3 11.35 15.3 11.2 15.25 11.1 15.25 10.25 15.25 9.15 15.7 9.1 15.5 8.8 14.7 8.6 14.2 8.9 13.95 9.5 13.7 Q10.75 12.65 9.5 11.3 9.8 10.75 9.65 10.2 L9.1 9.5 8.0 9.45 M25.95 29.75 Q27.15 29.9 28.2 30.65 L28.25 30.85 Q28.65 31.95 28.55 32.95 L27.0 34.4 Q25.8 35.95 26.45 37.8 L26.45 37.95 26.0 39.0 26.0 39.05 Q24.3 40.05 24.25 42.15 L23.45 41.8 Q23.0 41.55 22.85 40.95 22.25 38.4 24.65 37.15 24.5 36.05 24.75 35.15 24.95 34.25 25.55 33.5 L25.8 33.15 25.95 32.95 26.15 32.7 26.05 32.5 26.05 32.4 26.0 32.25 25.3 31.5 25.95 29.75 M31.0 54.15 L29.0 57.1 27.1 56.85 Q27.55 55.85 28.55 55.3 L29.55 54.75 31.25 53.7 31.55 53.5 31.0 54.15 M27.85 59.55 L27.65 61.3 27.8 60.65 27.5 60.5 27.1 60.55 26.75 60.8 24.8 63.7 24.35 63.4 23.25 63.3 22.8 62.9 21.8 62.05 21.4 61.65 Q20.9 61.2 21.0 60.5 21.1 59.8 21.65 59.4 L21.8 59.3 22.2 59.25 21.8 58.6 21.75 58.35 Q21.9 57.75 22.35 57.55 L23.2 57.65 23.45 58.2 23.15 57.45 Q22.85 56.4 22.9 55.25 22.9 54.65 23.05 54.0 23.5 52.05 24.9 50.9 L25.15 51.05 25.55 51.25 25.55 51.2 26.25 51.3 26.65 51.2 26.7 51.2 26.1 50.85 25.5 50.55 25.5 50.5 24.15 49.75 24.55 47.3 24.85 45.95 26.0 46.2 26.05 46.25 26.0 46.2 Q26.45 46.35 26.9 46.6 27.35 46.75 27.75 47.05 L27.85 47.1 27.95 47.15 28.0 47.2 27.95 47.3 27.35 50.35 Q27.25 50.9 27.3 51.45 L27.6 52.1 28.0 51.85 27.2 52.35 26.8 52.55 Q25.2 53.05 25.35 54.4 25.45 55.65 25.0 56.9 L26.0 57.65 Q25.9 58.4 26.75 58.75 L27.3 59.15 27.85 59.55 M24.3 66.45 Q24.7 66.95 24.5 67.75 24.3 68.6 24.25 69.4 L24.2 70.05 Q23.3 69.45 22.35 69.25 L22.25 68.65 Q22.15 67.4 22.7 66.75 23.1 66.25 23.85 66.05 L24.3 66.45 M24.55 71.45 Q24.65 72.1 23.75 72.85 22.15 74.25 21.65 75.75 L21.6 75.8 Q20.75 75.4 20.95 74.0 21.35 71.55 23.55 70.85 L24.55 71.45 M15.9 61.5 L15.8 61.5 Q15.75 60.45 16.45 59.55 16.0 58.5 16.25 57.9 L17.6 57.45 17.65 57.45 17.75 57.4 18.9 58.9 Q19.4 59.7 19.2 60.4 L16.8 61.0 Q16.45 61.1 16.15 61.3 L15.9 61.5 M21.35 31.45 L20.25 31.3 19.9 29.95 21.35 29.8 21.6 29.75 22.25 29.6 21.9 29.65 Q21.2 28.25 21.3 26.55 21.45 23.5 19.6 21.2 19.25 20.8 19.25 20.3 L18.35 19.4 17.9 19.1 17.15 21.65 16.95 21.95 16.9 22.0 16.85 22.0 16.8 21.9 16.35 18.5 Q16.1 17.2 16.8 16.35 L18.1 16.15 18.55 16.55 19.35 16.95 20.0 17.65 20.7 18.45 Q22.05 20.25 22.25 22.55 L22.9 26.9 23.15 28.05 Q23.4 29.2 24.1 30.1 L24.35 30.35 24.3 30.55 24.15 30.8 24.1 30.9 23.85 31.25 23.5 31.6 Q22.6 31.9 21.8 31.6 L21.75 31.55 21.35 31.45 M15.3 26.85 L13.75 25.4 13.8 25.35 15.1 24.8 Q13.15 23.35 13.75 20.95 L14.1 20.4 14.8 17.15 Q16.05 18.1 15.9 19.9 15.7 22.25 17.4 23.65 17.4 25.75 15.6 27.1 L15.3 26.85 M24.8 42.85 L24.45 42.8 24.8 42.75 24.8 42.85 M24.7 44.75 Q24.65 44.45 24.75 44.2 L25.0 43.9 24.8 44.2 25.0 44.8 24.7 44.75 M26.75 57.2 L26.7 57.15 Q25.7 56.8 25.95 56.05 L26.25 54.5 27.85 53.25 27.1 55.55 26.9 56.35 26.75 57.2" fill="#990000" fill-rule="evenodd" stroke="none"/>
    <path d="M-4.35 -5.8 L-4.3 -5.8 Q-2.4 -4.6 -0.2 -3.9 L0.25 -3.6 Q2.35 -2.1 3.3 0.2 L3.4 0.45 3.35 1.25 Q3.1 1.9 3.2 2.6 L3.25 2.95 Q3.75 3.25 4.2 3.7 L2.5 2.5 2.35 2.1 Q1.65 0.4 0.35 -0.6 L0.3 -0.7 Q-0.15 -1.85 -1.3 -2.1 -1.95 -2.1 -2.35 -1.5 -2.65 -1.05 -2.45 -0.6 -1.5 1.85 -0.7 4.45 L-0.05 5.3 Q1.65 6.4 3.9 5.95 L4.35 5.8 4.8 6.35 6.35 7.6 6.75 8.0 8.0 9.45 7.85 9.45 Q6.8 10.1 6.75 11.2 4.9 9.0 2.2 8.8 -0.8 8.55 -2.75 6.3 -3.6 3.7 -4.85 1.25 -6.1 -1.2 -5.45 -4.45 L-4.8 -5.6 -4.35 -5.8 M8.9 13.95 L8.6 14.2 8.15 13.35 8.45 13.85 8.85 13.95 8.9 13.95 M29.0 52.65 Q30.7 51.95 32.75 51.95 L32.95 51.95 32.85 52.05 31.0 54.15 31.55 53.5 31.25 53.7 29.55 54.75 28.55 55.3 Q27.55 55.85 27.1 56.85 L26.9 57.4 26.75 57.2 26.9 56.35 27.1 55.55 27.85 53.25 28.0 53.15 29.0 52.65 M23.35 70.25 Q24.4 70.8 24.55 71.45 L23.55 70.85 Q21.35 71.55 20.95 74.0 20.75 75.4 21.6 75.8 L21.45 76.35 Q19.2 75.85 19.75 74.3 20.25 72.75 20.1 71.15 20.95 69.4 22.95 70.05 L23.1 70.1 23.35 70.25 M20.95 78.05 L20.95 78.1 20.6 78.8 20.4 78.95 17.45 79.65 13.55 80.0 14.8 79.4 Q16.25 78.65 17.35 77.05 17.8 76.35 18.35 76.1 19.1 75.7 20.05 76.1 L20.8 77.6 20.95 78.05 M19.2 66.6 Q18.8 65.25 18.7 64.05 19.15 64.5 20.25 64.05 21.35 63.6 21.7 62.45 L21.8 62.05 22.8 62.9 23.25 63.3 23.45 63.45 Q23.0 64.1 23.0 64.75 L21.6 64.6 Q20.1 65.5 19.25 67.0 L19.4 67.55 19.1 67.55 19.2 67.0 19.25 66.7 19.2 66.6 M15.8 61.5 Q14.7 61.6 14.6 60.85 L14.6 60.4 Q14.8 59.0 13.7 58.3 L13.95 58.25 14.25 58.25 16.25 57.9 Q16.0 58.5 16.45 59.55 15.75 60.45 15.8 61.5 M13.35 61.4 Q12.25 62.25 10.7 62.4 10.25 62.4 10.0 62.8 L9.5 63.15 9.25 63.15 Q8.45 62.7 8.8 61.95 L9.45 61.0 10.0 61.1 11.4 61.05 Q12.35 60.95 13.05 60.45 13.85 59.9 13.35 59.1 L12.7 58.45 12.85 58.4 12.9 58.45 Q13.95 59.3 14.0 60.75 L13.35 61.4 M8.45 64.0 Q8.4 65.3 7.3 66.15 7.35 64.85 8.1 63.75 L8.15 63.65 8.45 63.9 8.45 64.0 M18.4 56.5 L18.3 56.15 19.55 54.8 Q20.0 55.15 21.0 55.1 L22.45 53.2 22.85 52.65 Q23.9 51.1 22.25 50.55 L23.5 50.3 Q24.2 50.55 24.9 50.9 23.5 52.05 23.05 54.0 22.9 54.65 22.9 55.25 22.85 56.4 23.15 57.45 L23.45 58.2 23.2 57.65 22.35 57.55 Q21.9 57.75 21.75 58.35 L21.8 58.6 22.2 59.25 21.8 59.3 21.65 59.4 Q21.1 59.8 21.0 60.5 L20.1 60.4 Q20.35 59.2 19.5 58.35 L18.45 56.75 18.4 56.5 M20.65 50.3 L20.4 50.3 20.35 49.25 Q20.4 48.7 20.75 48.2 21.3 47.65 21.05 47.05 L20.75 47.2 19.8 47.6 19.8 47.65 Q19.4 45.65 19.6 43.75 L20.2 44.05 Q20.8 44.3 21.35 44.05 23.35 43.25 22.0 41.5 21.7 41.1 21.7 40.65 L21.35 37.75 21.1 37.6 21.05 37.6 Q21.05 36.25 20.65 34.95 22.65 36.15 24.75 35.15 24.5 36.05 24.65 37.15 22.25 38.4 22.85 40.95 23.0 41.55 23.45 41.8 L24.25 42.15 24.25 42.75 24.45 42.8 24.8 42.85 25.25 43.65 25.0 43.9 24.75 44.2 Q24.65 44.45 24.7 44.75 23.4 44.55 22.35 45.7 22.25 46.15 22.55 46.45 L23.4 45.85 24.85 45.95 24.55 47.3 24.15 49.75 23.9 49.6 23.85 49.55 Q22.85 49.15 22.05 49.75 L20.65 50.3 M19.9 29.95 Q19.55 29.4 19.0 29.0 L18.05 28.4 18.95 28.3 Q20.3 28.0 20.55 26.65 20.95 24.5 18.8 23.8 L18.45 23.9 18.1 23.4 16.9 22.0 16.95 21.95 17.15 21.65 17.9 19.1 18.35 19.4 19.25 20.3 Q19.25 20.8 19.6 21.2 21.45 23.5 21.3 26.55 21.2 28.25 21.9 29.65 L22.25 29.6 21.6 29.75 21.35 29.8 19.9 29.95 M17.25 27.9 L16.95 27.7 16.75 27.6 16.65 27.55 Q16.7 27.05 17.0 26.7 L17.0 26.85 17.25 27.9 M13.75 25.4 Q12.4 23.95 11.65 22.25 L11.0 20.65 11.35 21.55 11.65 21.15 12.7 18.2 Q13.1 16.8 12.35 16.1 L14.0 16.65 14.8 17.15 14.1 20.4 13.75 20.95 Q13.15 23.35 15.1 24.8 L13.8 25.35 13.75 25.4 M9.8 17.05 L9.65 16.45 9.75 16.4 10.95 16.1 10.55 16.2 9.8 17.05 M26.05 32.5 L26.15 32.7 25.95 32.95 26.1 32.75 26.05 32.5 M22.15 46.5 L22.0 46.55 Q21.4 46.95 21.15 47.6 20.55 49.3 22.15 49.55 L22.25 49.45 22.5 49.3 22.75 48.6 22.8 48.35 22.9 48.2 Q23.95 46.75 22.15 46.5 M22.35 69.25 L20.35 69.3 20.25 67.1 Q21.3 64.9 23.45 65.9 L23.85 66.05 Q23.1 66.25 22.7 66.75 22.15 67.4 22.25 68.65 L22.35 69.25 M21.05 66.15 L20.95 66.3 20.85 66.4 20.85 66.55 20.9 66.85 21.0 67.0 21.3 67.05 22.7 66.75 22.95 66.5 22.95 66.4 22.9 66.3 22.8 66.2 21.55 65.95 21.55 66.0 21.3 66.0 21.2 66.05 21.05 66.15" fill="#cc0000" fill-rule="evenodd" stroke="none"/>
    <path d="M6.3 -1.8 Q5.35 -3.2 3.8 -4.15 1.9 -5.3 -0.35 -6.0 L-4.35 -5.8 -4.8 -5.6 -5.45 -4.45 Q-6.1 -1.2 -4.85 1.25 -3.6 3.7 -2.75 6.3 -0.8 8.55 2.2 8.8 4.9 9.0 6.75 11.2 L7.1 11.65 7.2 11.8 8.15 13.35 8.6 14.2 8.8 14.7 9.1 15.5 9.15 15.7 10.25 15.25 9.45 15.55 9.75 16.4 9.65 16.45 9.8 17.05 9.8 17.1 10.0 17.75 10.65 19.75 11.0 20.65 11.65 22.25 Q12.4 23.95 13.75 25.4 L15.3 26.85 Q15.6 27.95 16.95 27.7 L17.25 27.9 18.05 28.4 19.0 29.0 Q19.55 29.4 19.9 29.95 L20.25 31.3 21.35 31.45 21.0 31.35 Q20.45 31.8 20.65 32.7 L20.7 32.9 20.1 33.6 20.2 33.75 20.65 34.95 Q21.05 36.25 21.05 37.6 L20.6 39.95 20.4 40.5 Q19.75 42.1 19.6 43.75 19.4 45.65 19.8 47.65 19.7 48.35 20.2 49.05 L20.35 49.25 20.4 50.3 20.65 50.3 Q20.35 51.05 20.95 51.55 20.6 52.0 20.5 52.6 20.2 53.8 19.55 54.8 L18.3 56.15 18.4 56.5 18.35 56.5 18.05 56.7 17.95 56.7 17.6 57.45 16.25 57.9 14.25 58.25 13.35 58.05 13.35 58.1 13.2 58.2 13.05 58.2 12.9 58.45 12.85 58.4 12.7 58.45 Q10.8 59.3 9.45 61.0 L8.8 61.95 8.45 62.3 8.3 62.6 8.05 63.5 8.1 63.75 Q7.35 64.85 7.3 66.15 8.4 65.3 8.45 64.0 L8.45 64.1 8.8 64.1 9.0 63.95 9.5 63.15 10.0 62.8 Q10.25 62.4 10.7 62.4 12.25 62.25 13.35 61.4 L13.55 61.45 14.85 61.35 Q14.65 61.2 14.6 60.85 14.7 61.6 15.8 61.5 L15.9 61.5 16.15 61.45 16.25 61.45 17.35 62.25 17.65 62.95 18.25 63.35 18.6 63.35 18.65 62.85 18.65 63.6 18.7 64.05 Q18.8 65.25 19.2 66.6 L19.15 66.8 Q19.05 67.2 19.1 67.55 18.65 69.4 17.5 70.9 L14.45 74.3 14.45 75.35 14.75 75.3 Q17.0 75.15 18.95 73.8 L19.05 73.95 18.8 74.45 Q18.45 75.25 18.35 76.1 17.8 76.35 17.35 77.05 16.25 78.65 14.8 79.4 L13.55 80.0 17.45 79.65 20.4 78.95 20.6 78.8 20.95 78.1 20.95 78.05 21.55 76.75 21.65 76.5 Q22.05 75.95 21.75 75.5 L21.65 75.75 Q22.15 74.25 23.75 72.85 24.65 72.1 24.55 71.45 24.4 70.8 23.35 70.25 23.8 70.45 24.05 70.7 L24.2 70.65 24.55 70.35 Q24.65 69.75 24.25 69.4 24.3 68.6 24.5 67.75 24.7 66.95 24.3 66.45 L24.75 66.05 Q24.9 65.75 24.7 65.5 L24.75 65.55 27.05 62.5 27.1 62.4 27.15 62.3 27.65 61.3 27.85 59.55 27.75 59.0 27.75 58.95 27.85 58.8 29.0 57.1 31.0 54.15 32.85 52.05 32.95 51.95 32.75 51.95 Q30.7 51.95 29.0 52.65 L28.95 51.95 28.6 51.3 28.75 51.2 Q28.55 50.3 28.95 49.65 L29.25 48.7 29.2 48.55 29.2 48.45 29.15 48.15 29.1 48.1 29.15 48.05 29.1 46.45 29.15 45.85 29.0 44.75 28.6 42.55 28.25 41.15 28.15 40.85 28.05 40.25 27.75 40.15 27.75 39.55 Q27.65 38.8 27.15 38.5 L27.45 37.45 Q27.3 36.1 27.75 35.1 L27.85 34.95 Q28.45 34.0 28.55 32.95 28.65 31.95 28.25 30.85 L28.2 30.65 Q27.15 29.9 25.95 29.75 25.75 28.6 24.55 28.6 L24.4 28.15 Q22.15 23.75 22.6 18.9 20.55 16.5 18.15 14.35 18.2 13.1 17.0 12.75 L16.3 11.65 13.95 8.65 Q10.3 8.25 9.15 5.75 L8.95 5.25 Q7.95 3.0 7.25 0.4 L6.3 -1.8 M-0.05 -6.75 Q3.0 -5.95 5.5 -4.35 8.55 -2.25 9.25 1.15 9.95 4.45 12.35 7.1 16.1 8.65 18.4 12.2 20.65 15.7 23.5 18.75 L24.45 24.05 Q24.9 26.7 26.5 28.9 27.8 28.75 28.75 29.35 L29.55 32.25 Q29.9 33.8 29.25 35.15 28.25 36.8 28.4 38.5 L28.45 38.85 Q28.35 39.05 28.4 39.35 L28.45 39.65 28.55 40.05 28.6 40.15 29.4 41.55 29.6 42.05 30.1 44.85 Q30.35 46.15 30.1 47.5 L30.15 47.75 30.1 47.8 29.65 51.1 Q30.7 51.4 31.85 51.1 L34.15 50.8 Q32.1 55.15 28.6 59.0 27.9 59.9 28.75 60.65 L30.65 60.8 Q31.6 60.85 31.7 61.85 30.85 62.45 29.75 62.65 28.65 62.85 27.75 63.45 26.95 65.45 25.2 67.05 25.15 69.3 25.5 71.5 22.9 75.25 21.05 79.4 17.5 80.75 13.6 81.0 12.05 80.9 11.45 80.05 14.95 78.85 17.55 76.0 16.6 75.45 15.65 76.0 L13.85 76.55 13.8 76.55 13.55 76.5 13.05 76.35 11.1 75.45 9.4 74.2 9.4 73.9 Q12.25 73.95 14.6 72.7 L17.5 68.9 Q18.95 66.9 17.75 64.65 16.45 62.1 13.7 62.7 12.9 63.85 11.45 63.7 9.95 63.5 9.1 64.8 8.4 65.55 8.05 66.55 7.7 67.55 6.7 67.8 6.5 61.2 11.8 57.35 14.7 57.9 17.1 56.75 17.9 54.75 19.25 53.0 20.4 49.85 18.6 46.75 18.4 41.3 20.0 36.6 L18.6 33.1 Q19.4 32.1 19.05 30.95 18.55 29.45 17.3 28.8 L14.75 27.45 Q11.25 24.7 9.85 20.7 8.45 16.7 6.65 13.3 4.8 9.9 0.0 8.9 -2.7 8.3 -4.25 6.2 -5.85 4.1 -6.4 1.6 -6.25 -0.35 -6.4 -2.3 -6.55 -4.35 -6.1 -6.3 -3.1 -7.55 -0.05 -6.75 M27.95 62.4 Q29.05 62.45 29.75 61.85 29.2 61.35 28.45 61.2 L27.95 62.4 M13.6 74.15 L11.35 74.45 12.0 75.0 Q12.65 75.45 13.45 75.7 L13.55 75.75 13.7 75.8 13.6 74.25 13.6 74.15" fill="#000000" fill-rule="evenodd" stroke="none"/>
    <path d="M3.4 0.45 L3.4 0.4 Q3.95 -1.05 5.35 -1.75 L6.3 -1.8 7.25 0.4 Q7.95 3.0 8.95 5.25 L8.85 5.45 7.95 6.55 Q7.0 7.2 5.9 6.85 L4.8 6.35 4.35 5.8 5.15 5.1 5.2 4.7 5.05 4.55 4.2 3.7 Q3.75 3.25 3.25 2.95 L3.2 2.6 Q3.1 1.9 3.35 1.25 L3.4 0.45 M10.25 15.25 L11.1 15.25 11.2 15.25 11.35 15.3 11.45 15.3 13.75 15.8 Q14.7 16.7 15.4 16.25 L16.75 15.05 Q17.35 13.8 17.0 12.75 18.2 13.1 18.15 14.35 20.55 16.5 22.6 18.9 22.15 23.75 24.4 28.15 L24.55 28.6 Q25.75 28.6 25.95 29.75 L25.3 31.5 25.2 31.85 Q23.85 32.95 22.2 32.75 21.5 32.0 21.05 32.55 L20.7 32.9 20.65 32.7 Q20.45 31.8 21.0 31.35 L21.35 31.45 21.75 31.55 21.8 31.6 Q22.6 31.9 23.5 31.6 L23.85 31.25 24.1 30.9 24.15 30.8 24.3 30.55 24.35 30.35 24.1 30.1 Q23.4 29.2 23.15 28.05 L22.9 26.9 22.25 22.55 Q22.05 20.25 20.7 18.45 L20.0 17.65 19.35 16.95 18.55 16.55 18.1 16.15 16.8 16.35 Q16.1 17.2 16.35 18.5 L16.8 21.9 16.85 22.0 16.9 22.0 18.1 23.4 18.45 23.9 Q18.65 24.5 18.25 25.2 L18.15 25.3 17.35 26.4 17.0 26.7 Q16.7 27.05 16.65 27.55 L16.75 27.6 16.95 27.7 Q15.6 27.95 15.3 26.85 L15.6 27.1 Q17.4 25.75 17.4 23.65 15.7 22.25 15.9 19.9 16.05 18.1 14.8 17.15 L14.0 16.65 12.35 16.1 12.25 16.1 11.45 16.05 10.95 16.1 9.75 16.4 9.45 15.55 10.25 15.25 M28.55 32.95 Q28.45 34.0 27.85 34.95 L27.75 35.1 Q27.3 36.1 27.45 37.45 L27.15 38.5 Q27.65 38.8 27.75 39.55 L27.75 40.15 28.05 40.25 28.15 40.85 28.25 41.15 28.6 42.55 29.0 44.75 29.15 45.85 29.1 46.45 29.15 48.05 29.1 48.1 29.15 48.15 29.2 48.45 29.2 48.55 29.25 48.7 28.95 49.65 Q28.55 50.3 28.75 51.2 L28.6 51.3 28.95 51.95 29.0 52.65 28.0 53.15 27.85 53.25 26.25 54.5 25.95 56.05 Q25.7 56.8 26.7 57.15 L26.75 57.2 26.9 57.4 27.1 56.85 29.0 57.1 27.85 58.8 27.75 58.95 27.75 59.0 27.85 59.55 27.3 59.15 26.75 58.75 Q25.9 58.4 26.0 57.65 L25.0 56.9 Q25.45 55.65 25.35 54.4 25.2 53.05 26.8 52.55 L27.2 52.35 28.0 51.85 27.6 52.1 27.3 51.45 Q27.25 50.9 27.35 50.35 L27.95 47.3 28.0 47.2 27.95 47.15 27.85 47.1 27.75 47.05 Q27.35 46.75 26.9 46.6 26.45 46.35 26.0 46.2 L26.05 46.25 26.0 46.2 24.85 45.95 23.4 45.85 22.55 46.45 Q22.25 46.15 22.35 45.7 23.4 44.55 24.7 44.75 L25.0 44.8 24.8 44.2 25.0 43.9 25.25 43.65 24.8 42.85 24.8 42.75 24.45 42.8 24.25 42.75 24.25 42.15 Q24.3 40.05 26.0 39.05 L26.0 39.0 26.45 37.95 26.45 37.8 Q25.8 35.95 27.0 34.4 L28.55 32.95 M27.65 61.3 L27.15 62.3 27.1 62.4 27.05 62.5 24.75 65.55 24.7 65.5 Q24.9 65.75 24.75 66.05 L24.3 66.45 23.85 66.05 23.45 65.9 Q21.3 64.9 20.25 67.1 L20.35 69.3 22.35 69.25 Q23.3 69.45 24.2 70.05 L24.25 69.4 Q24.65 69.75 24.55 70.35 L24.2 70.65 24.05 70.7 Q23.8 70.45 23.35 70.25 L23.1 70.1 22.95 70.05 Q20.95 69.4 20.1 71.15 20.25 72.75 19.75 74.3 19.2 75.85 21.45 76.35 L21.6 75.8 21.65 75.75 21.75 75.5 Q22.05 75.95 21.65 76.5 L21.55 76.75 20.95 78.05 20.8 77.6 20.05 76.1 Q19.1 75.7 18.35 76.1 18.45 75.25 18.8 74.45 L19.05 73.95 18.95 73.8 Q17.0 75.15 14.75 75.3 L14.45 75.35 14.45 74.3 17.5 70.9 Q18.65 69.4 19.1 67.55 19.05 67.2 19.15 66.8 L19.2 66.6 19.25 66.7 19.2 67.0 19.1 67.55 19.4 67.55 19.25 67.0 Q20.1 65.5 21.6 64.6 L23.0 64.75 Q23.0 64.1 23.45 63.45 L23.25 63.3 24.35 63.4 24.8 63.7 26.75 60.8 27.1 60.55 27.5 60.5 27.8 60.65 27.65 61.3 M18.65 62.85 L18.6 63.35 18.25 63.35 17.65 62.95 17.35 62.25 16.25 61.45 16.15 61.45 15.9 61.5 16.15 61.3 Q16.45 61.1 16.8 61.0 L19.2 60.4 Q19.4 59.7 18.9 58.9 L17.75 57.4 17.65 57.45 17.6 57.45 17.95 56.7 18.05 56.7 18.35 56.5 18.4 56.5 18.45 56.75 19.5 58.35 Q20.35 59.2 20.1 60.4 L20.0 60.75 19.65 61.1 19.45 61.3 18.65 62.85 M14.6 60.85 Q14.65 61.2 14.85 61.35 L13.55 61.45 13.35 61.4 14.0 60.75 Q13.95 59.3 12.9 58.45 L13.05 58.2 13.2 58.2 13.35 58.1 13.35 58.05 14.25 58.25 13.95 58.25 13.7 58.3 Q14.8 59.0 14.6 60.4 L14.6 60.85 M9.5 63.15 L9.0 63.95 8.8 64.1 8.45 64.1 8.45 64.0 8.45 63.9 8.15 63.65 8.1 63.75 8.05 63.5 8.3 62.6 8.45 62.3 8.8 61.95 Q8.45 62.7 9.25 63.15 L9.5 63.15 M20.95 51.55 Q20.35 51.05 20.65 50.3 L22.05 49.75 Q22.85 49.15 23.85 49.55 L23.9 49.6 24.15 49.75 25.5 50.5 25.5 50.55 26.1 50.85 26.7 51.2 26.65 51.2 26.25 51.3 25.55 51.2 25.55 51.25 25.15 51.05 24.9 50.9 Q24.2 50.55 23.5 50.3 L22.25 50.55 Q21.4 50.85 20.95 51.55 M20.35 49.25 L20.2 49.05 Q19.7 48.35 19.8 47.65 L19.8 47.6 20.75 47.2 21.05 47.05 Q21.3 47.65 20.75 48.2 20.4 48.7 20.35 49.25 M27.95 62.4 L28.45 61.2 Q29.2 61.35 29.75 61.85 29.05 62.45 27.95 62.4 M13.6 74.15 L13.6 74.25 13.7 75.8 13.55 75.75 13.45 75.7 Q12.65 75.45 12.0 75.0 L11.35 74.45 13.6 74.15" fill="#660000" fill-rule="evenodd" stroke="none"/>
    <path d="M6.75 11.2 Q6.8 10.1 7.85 9.45 L8.0 9.45 9.1 9.5 9.65 10.2 Q9.8 10.75 9.5 11.3 10.75 12.65 9.5 13.7 L8.9 13.95 8.85 13.95 8.45 13.85 8.15 13.35 7.2 11.8 7.1 11.65 6.75 11.2 M4.35 5.8 L3.9 5.95 Q1.65 6.4 -0.05 5.3 L-0.7 4.45 Q-1.5 1.85 -2.45 -0.6 -2.65 -1.05 -2.35 -1.5 -1.95 -2.1 -1.3 -2.1 -0.15 -1.85 0.3 -0.7 L0.35 -0.6 Q1.65 0.4 2.35 2.1 L2.5 2.5 4.2 3.7 5.05 4.55 5.2 4.7 5.15 5.1 4.35 5.8 M18.7 64.05 L18.65 63.6 18.65 62.85 19.45 61.3 19.65 61.1 20.0 60.75 20.1 60.4 21.0 60.5 Q20.9 61.2 21.4 61.65 L21.8 62.05 21.7 62.45 Q21.35 63.6 20.25 64.05 19.15 64.5 18.7 64.05 M9.45 61.0 Q10.8 59.3 12.7 58.45 L13.35 59.1 Q13.85 59.9 13.05 60.45 12.35 60.95 11.4 61.05 L10.0 61.1 9.45 61.0 M19.55 54.8 Q20.2 53.8 20.5 52.6 20.6 52.0 20.95 51.55 21.4 50.85 22.25 50.55 23.9 51.1 22.85 52.65 L22.45 53.2 21.0 55.1 Q20.0 55.15 19.55 54.8 M19.6 43.75 Q19.75 42.1 20.4 40.5 L20.6 39.95 21.05 37.6 21.1 37.6 21.35 37.75 21.7 40.65 Q21.7 41.1 22.0 41.5 23.35 43.25 21.35 44.05 20.8 44.3 20.2 44.05 L19.6 43.75 M20.65 34.95 L20.2 33.75 20.1 33.6 20.7 32.9 21.05 32.55 Q21.5 32.0 22.2 32.75 23.85 32.95 25.2 31.85 L25.3 31.5 26.0 32.25 26.05 32.4 26.05 32.5 26.1 32.75 25.95 32.95 25.8 33.15 25.55 33.5 Q24.95 34.25 24.75 35.15 22.65 36.15 20.65 34.95 M18.05 28.4 L17.25 27.9 17.0 26.85 17.0 26.7 17.35 26.4 18.15 25.3 18.25 25.2 Q18.65 24.5 18.45 23.9 L18.8 23.8 Q20.95 24.5 20.55 26.65 20.3 28.0 18.95 28.3 L18.05 28.4 M11.0 20.65 L10.65 19.75 10.0 17.75 9.8 17.1 9.8 17.05 10.55 16.2 10.95 16.1 11.45 16.05 12.25 16.1 12.35 16.1 Q13.1 16.8 12.7 18.2 L11.65 21.15 11.35 21.55 11.0 20.65 M22.15 46.5 Q23.95 46.75 22.9 48.2 L22.8 48.35 22.75 48.6 22.5 49.3 22.25 49.45 22.15 49.55 Q20.55 49.3 21.15 47.6 21.4 46.95 22.0 46.55 L22.15 46.5 M21.05 66.15 L21.2 66.05 21.3 66.0 21.55 66.0 21.55 65.95 22.8 66.2 22.9 66.3 22.95 66.4 22.95 66.5 22.7 66.75 21.3 67.05 21.0 67.0 20.9 66.85 20.85 66.55 20.85 66.4 20.95 66.3 21.05 66.15" fill="#ff6633" fill-rule="evenodd" stroke="none"/>
  </g>
</svg>
