<?xml version="1.0" encoding="UTF-8" standalone="no"?>
<svg xmlns:xlink="http://www.w3.org/1999/xlink" height="167.2px" width="108.5px" xmlns="http://www.w3.org/2000/svg">
  <g transform="matrix(1.0, 0.0, 0.0, 1.0, 45.45, 86.5)">
    <path d="M-35.9 -5.65 Q-38.8 -7.1 -41.1 -9.3 L-41.1 -9.25 -41.9 -10.55 -42.1 -11.0 -42.45 -11.55 -41.95 -13.15 Q-39.9 -13.85 -40.2 -15.6 L-40.8 -18.85 Q-41.75 -20.2 -41.4 -21.5 L-32.15 -22.1 Q-31.6 -22.95 -31.95 -23.8 -32.3 -24.65 -32.25 -25.55 -30.5 -25.5 -28.65 -24.65 -26.9 -23.85 -25.15 -24.95 L-21.1 -24.2 Q-20.3 -25.65 -20.0 -27.35 -19.75 -29.05 -18.0 -30.05 L-13.25 -30.7 Q-10.85 -31.05 -8.9 -32.4 -7.5 -32.5 -7.85 -33.7 -8.3 -34.95 -7.85 -36.0 L-13.65 -39.2 Q-13.6 -40.1 -12.75 -40.1 -12.0 -40.1 -11.4 -40.45 L-8.4 -40.6 Q-8.8 -41.95 -10.1 -43.25 -12.45 -44.25 -15.2 -44.05 -18.05 -43.85 -20.1 -45.5 L-24.55 -50.4 -19.05 -49.65 -14.55 -51.15 Q-15.15 -55.25 -17.55 -58.8 L-15.15 -66.65 Q-13.05 -67.4 -10.95 -65.8 L-7.45 -68.15 -7.55 -74.75 -10.25 -80.4 Q-4.35 -81.5 0.5 -78.6 2.4 -76.85 3.95 -74.75 5.4 -72.7 7.65 -71.45 8.9 -70.3 10.65 -70.2 L13.95 -69.65 Q14.6 -69.9 15.25 -70.35 L16.75 -70.4 Q21.0 -67.0 22.85 -62.2 22.6 -60.2 23.3 -58.6 25.65 -59.6 27.05 -62.05 27.7 -62.25 28.2 -61.75 L28.0 -56.65 Q27.95 -54.0 26.3 -52.1 27.7 -50.75 27.9 -48.8 28.1 -46.9 28.55 -45.05 L31.3 -41.65 Q33.6 -41.6 35.1 -40.0 L37.45 -36.55 Q35.85 -35.8 34.05 -36.25 L33.55 -35.8 Q34.0 -30.05 32.05 -25.25 30.2 -27.25 28.65 -29.7 27.1 -32.2 24.05 -32.25 22.35 -32.5 21.05 -31.75 L22.55 -27.3 26.0 -26.1 23.2 -23.5 Q21.65 -22.2 19.6 -22.7 18.0 -23.9 16.75 -25.65 L14.2 -28.8 Q13.4 -27.6 12.15 -26.85 10.55 -29.35 10.65 -32.5 9.25 -34.75 6.9 -35.35 L6.75 -30.45 Q7.75 -28.5 9.7 -27.9 11.6 -27.3 11.8 -24.95 L13.3 -24.55 Q14.1 -24.5 14.7 -23.75 15.3 -22.05 16.85 -21.2 L19.7 -19.0 25.25 -19.2 30.6 -19.0 Q29.0 -17.1 28.35 -14.8 30.6 -13.8 33.3 -13.75 35.95 -13.7 38.05 -12.25 35.0 -9.75 31.65 -7.35 31.2 -6.75 31.65 -6.3 32.1 -5.8 31.95 -5.15 28.4 -4.05 25.25 -1.95 24.4 -2.15 23.85 -1.55 23.8 1.25 22.7 4.0 21.6 6.7 23.75 9.2 23.1 12.05 21.5 14.55 L18.2 19.45 Q21.85 20.7 25.35 22.7 28.8 24.65 31.2 28.1 L33.0 23.95 Q33.6 22.7 34.85 21.85 36.1 21.0 35.25 19.45 35.55 15.9 38.65 14.25 41.55 12.2 45.25 11.9 47.7 11.95 50.05 12.8 52.4 13.6 53.45 15.95 L53.45 17.1 Q58.25 18.75 60.25 22.95 62.25 27.15 62.8 31.8 63.3 33.65 62.8 35.45 L57.25 29.8 Q54.3 27.0 50.45 26.6 50.75 29.1 51.8 31.75 52.75 34.35 55.8 35.0 L57.45 35.35 Q58.3 35.3 58.65 36.15 54.15 37.6 49.5 37.05 45.55 36.35 43.85 32.95 42.15 29.55 41.0 26.3 L33.75 35.1 Q22.9 35.7 15.4 27.55 15.0 29.05 14.95 30.75 13.85 31.85 13.2 33.2 15.4 34.65 16.15 37.35 L15.1 40.2 Q16.25 40.2 17.35 40.65 18.45 41.95 19.15 43.6 19.8 45.2 19.15 46.85 L18.4 46.25 18.55 46.0 Q18.5 43.6 16.2 42.25 L16.05 42.35 15.9 42.1 14.45 39.75 14.25 39.45 14.8 38.1 Q14.55 34.8 13.4 35.35 13.0 35.5 12.55 35.8 L13.1 35.45 Q13.45 34.1 13.0 32.65 L12.7 32.0 12.4 31.6 13.35 30.55 13.65 25.55 13.1 26.0 13.45 25.7 13.2 24.9 12.25 25.2 Q12.05 25.25 11.9 25.4 L8.5 28.2 8.45 28.25 8.35 28.8 8.7 28.95 8.2 28.7 7.75 30.2 7.75 30.35 Q6.9 32.25 7.0 34.5 L7.2 34.55 Q6.8 36.2 7.1 38.0 7.2 38.75 7.6 39.2 L7.95 39.2 7.3 39.2 7.55 40.15 8.6 42.55 8.8 42.85 8.9 43.05 9.05 42.85 9.25 42.7 Q9.8 44.0 10.85 45.0 L11.4 45.45 11.0 45.5 10.75 45.55 11.5 46.55 13.4 49.5 13.4 49.55 13.45 49.65 14.15 49.45 14.2 49.8 14.65 52.6 14.95 53.5 15.4 53.4 14.65 53.55 14.55 53.55 14.55 53.6 14.7 54.4 14.5 60.6 13.75 61.8 Q8.65 69.95 4.8 78.65 L4.8 78.95 5.2 78.95 6.2 79.0 6.8 79.0 Q7.9 79.1 8.4 78.05 9.8 73.5 12.9 69.5 L11.5 73.85 11.25 74.7 Q10.6 76.4 9.45 77.9 8.45 79.7 6.25 79.5 4.4 79.35 3.3 80.65 L-0.1 80.55 -0.9 80.55 -4.45 80.7 -5.35 80.4 -6.4 79.25 -5.35 79.45 -3.9 79.0 -3.85 78.95 Q-5.35 72.7 -8.5 67.15 L-8.65 66.9 -8.8 66.65 Q-10.8 63.2 -13.4 60.0 L-13.55 57.9 -13.6 57.2 -13.65 56.3 -13.55 56.1 -13.55 55.9 -13.7 55.65 -13.75 54.95 Q-13.6 53.95 -13.95 53.2 L-13.95 52.25 -13.9 51.9 -13.55 50.6 -13.45 50.2 -12.15 47.55 -11.85 47.1 -10.6 45.05 -10.35 44.75 -10.3 44.65 -10.25 44.7 -8.2 41.45 -8.25 41.4 -7.85 40.8 -7.65 40.45 -7.6 40.35 -7.45 40.1 Q-7.0 39.7 -7.0 39.3 L-6.9 39.05 Q-6.45 39.05 -6.3 38.45 -6.2 38.1 -6.4 37.85 L-6.35 37.75 -6.2 37.35 -5.85 36.15 -5.8 35.85 -5.6 34.9 Q-5.4 33.75 -5.55 32.6 L-5.7 32.0 -5.9 31.35 -6.05 30.95 -7.0 28.45 -7.4 28.35 -7.85 28.2 Q-8.75 27.75 -9.7 27.4 L-10.4 27.05 -10.5 28.05 Q-11.0 28.35 -10.9 28.95 L-10.85 29.1 -10.95 29.0 -13.0 31.4 -13.2 31.4 Q-13.9 31.8 -13.65 32.55 L-14.25 33.45 Q-14.75 33.6 -14.9 34.1 L-14.9 34.4 -15.35 34.4 Q-15.35 35.5 -16.4 36.2 -17.5 36.9 -16.8 38.0 L-16.85 38.0 -16.95 38.65 -16.95 38.9 Q-16.65 39.7 -16.65 40.5 -17.05 40.65 -17.0 41.2 L-17.65 42.0 -17.75 42.5 -17.65 42.3 Q-18.4 43.9 -18.45 45.8 L-18.45 45.9 Q-18.9 46.15 -19.05 46.7 L-19.05 46.6 Q-20.3 47.4 -20.8 48.8 L-20.95 49.15 -21.1 49.85 -21.4 50.15 -21.5 50.95 -22.2 54.4 Q-22.75 56.45 -22.15 58.55 L-22.0 58.75 Q-20.45 61.05 -19.6 63.75 -19.3 64.4 -18.75 64.1 L-17.7 64.2 -14.6 65.8 Q-13.0 66.5 -12.35 68.35 -14.65 66.7 -17.3 65.7 -18.2 65.3 -19.15 65.05 -19.35 65.1 -19.4 65.25 L-20.25 65.15 Q-21.05 62.75 -22.45 60.6 -24.2 57.85 -23.1 54.35 -22.4 52.2 -22.25 49.75 -22.15 47.3 -19.5 46.3 -19.7 42.5 -17.25 39.7 -17.4 38.1 -18.6 37.45 -19.05 38.4 -20.05 38.3 L-21.85 38.1 Q-25.35 36.85 -28.1 34.25 -28.5 35.65 -28.55 37.25 -29.95 39.8 -32.35 41.5 L-36.95 44.95 -37.5 44.95 Q-36.95 42.75 -35.45 40.65 -34.9 36.95 -36.0 33.6 -37.95 35.55 -38.4 38.25 L-39.3 43.6 Q-39.1 44.65 -39.15 45.85 L-40.2 45.85 Q-45.8 39.6 -45.45 31.1 -43.8 26.65 -39.5 24.55 -39.7 20.2 -36.2 17.95 L-33.25 17.15 Q-31.65 16.8 -30.35 17.85 L-29.15 17.9 -29.0 17.9 -28.7 17.95 -27.85 18.3 Q-26.75 18.85 -25.9 19.7 L-24.8 20.8 -24.6 21.05 -24.45 21.3 Q-24.0 21.75 -23.9 22.4 -24.0 23.45 -24.55 24.55 -24.1 26.35 -22.7 27.7 L-20.1 30.5 Q-18.75 29.6 -18.65 27.95 L-18.4 24.7 Q-18.85 22.35 -18.3 20.1 -20.55 17.85 -23.1 16.15 -25.7 14.4 -27.25 11.7 -26.0 8.9 -26.8 6.1 -27.6 3.4 -29.1 1.15 L-29.1 1.05 -29.55 -0.1 -29.6 -0.2 -29.8 -0.65 -29.85 -0.75 -30.95 -3.2 Q-28.6 -1.95 -27.65 0.5 L-25.9 4.95 -25.75 5.3 -25.8 7.85 -26.3 11.45 Q-24.35 13.55 -22.05 15.05 L-21.65 15.3 -21.9 15.15 -21.55 15.0 -19.35 14.1 Q-20.0 13.3 -20.2 12.3 -20.6 10.7 -20.0 9.15 -19.45 7.55 -21.3 6.65 -21.2 4.05 -21.4 1.55 L-21.4 1.3 -21.6 -0.6 -21.75 -1.35 -21.9 -2.3 Q-22.75 -6.65 -27.05 -8.65 L-27.8 -9.7 -26.35 -9.25 Q-23.55 -8.1 -21.6 -5.25 L-20.55 -1.15 -20.4 -0.45 -20.4 -0.3 -20.2 1.7 -20.2 2.2 -20.65 4.55 Q-20.6 5.5 -20.0 6.25 L-19.9 6.35 -19.5 6.35 -19.45 6.25 Q-18.85 4.05 -17.55 2.35 L-17.15 1.85 -14.5 -0.55 -13.85 -0.95 -14.35 -1.95 Q-16.0 -5.2 -16.35 -9.0 L-14.55 -12.1 Q-13.55 -13.6 -13.65 -15.35 -15.0 -15.95 -16.55 -15.85 L-16.8 -15.85 Q-18.5 -15.65 -20.1 -15.85 L-19.7 -16.05 -17.7 -16.6 -17.1 -16.7 -16.05 -16.95 -15.15 -17.35 -15.15 -17.45 -15.2 -17.5 -15.25 -17.6 -15.25 -17.65 -15.6 -18.3 Q-16.15 -19.2 -16.95 -19.75 L-18.1 -20.4 Q-20.25 -21.2 -21.3 -23.0 L-23.65 -23.5 Q-24.85 -23.85 -25.9 -23.0 L-26.45 -23.15 -26.5 -23.15 Q-28.9 -23.75 -31.1 -24.65 -31.45 -23.95 -31.1 -23.15 L-30.8 -22.05 -30.8 -21.5 -30.4 -21.25 -29.0 -20.5 Q-28.05 -20.1 -28.75 -18.65 -30.05 -17.1 -32.0 -16.6 L-30.4 -18.1 Q-29.65 -18.85 -30.35 -20.05 L-30.4 -20.1 Q-32.55 -21.2 -35.05 -20.9 L-35.45 -20.85 -40.05 -20.6 -39.35 -17.5 -39.05 -16.65 Q-38.65 -15.35 -38.5 -13.95 L-38.45 -13.7 -38.45 -13.65 -38.4 -12.4 -39.15 -13.65 Q-40.55 -13.35 -41.4 -12.25 L-41.4 -12.1 -41.3 -11.8 -40.8 -10.25 -40.4 -9.65 -40.35 -9.65 -40.05 -9.3 -38.9 -8.45 -38.1 -8.05 Q-37.65 -7.95 -37.3 -7.65 L-36.7 -6.95 -36.25 -6.3 Q-35.8 -6.05 -35.9 -5.65 M19.15 46.9 Q21.3 48.0 21.7 50.35 L22.4 54.95 Q22.4 57.95 20.85 60.3 19.25 61.55 17.95 63.1 18.6 61.35 20.0 59.85 21.75 57.9 21.4 55.1 21.1 52.45 20.35 50.0 L20.15 50.0 20.0 48.6 Q19.8 47.6 19.25 47.0 L19.15 46.9 M10.25 -68.5 L10.3 -68.45 Q9.4 -69.1 8.3 -69.3 L8.4 -69.2 Q7.0 -70.5 4.85 -70.5 4.1 -70.8 4.55 -71.15 L5.05 -71.85 1.35 -76.15 -0.25 -77.5 -1.95 -78.45 -3.35 -79.0 Q-6.25 -79.5 -8.9 -79.0 L-6.35 -74.4 -5.95 -68.45 -5.95 -68.4 -5.9 -68.1 -6.75 -66.95 -9.6 -65.25 Q-11.0 -64.3 -12.75 -65.0 -14.35 -65.85 -14.7 -64.55 L-15.4 -62.3 Q-16.85 -59.5 -15.3 -56.9 L-15.05 -56.5 -13.45 -53.4 -12.75 -51.75 -7.95 -50.25 -4.85 -45.9 Q-4.25 -44.3 -5.6 -43.85 -6.95 -43.4 -7.65 -42.45 -6.8 -40.85 -5.6 -42.2 -4.45 -43.65 -2.9 -43.4 L-2.7 -43.4 Q-0.9 -43.45 0.2 -42.2 L0.55 -41.75 Q-0.15 -41.65 -0.8 -42.2 L-0.95 -42.35 Q-3.05 -43.15 -4.55 -41.95 L-6.6 -40.4 -7.5 -39.8 -9.35 -39.5 Q-10.35 -39.55 -11.1 -39.05 L-8.9 -37.75 -8.55 -37.6 Q-7.25 -36.95 -5.85 -36.55 L-5.7 -36.5 Q-2.75 -37.4 0.7 -37.25 2.1 -38.5 1.75 -40.55 2.45 -39.8 2.5 -38.6 L2.65 -38.6 2.9 -38.75 4.3 -37.75 6.8 -36.45 10.7 -34.15 Q11.25 -35.15 12.15 -36.2 13.1 -37.25 14.2 -37.25 16.3 -36.0 16.75 -33.7 L17.7 -34.2 18.2 -34.1 Q18.7 -34.2 18.9 -34.55 19.9 -32.9 22.05 -33.55 24.65 -34.4 26.75 -33.2 28.5 -32.0 29.35 -30.1 L29.65 -29.55 Q30.4 -28.0 31.65 -26.65 32.35 -27.05 32.6 -28.0 32.95 -31.55 32.8 -35.15 32.7 -37.35 31.65 -39.1 L30.3 -40.85 29.85 -41.25 27.55 -43.85 27.6 -44.0 Q27.8 -44.6 27.15 -44.9 L26.95 -45.0 27.55 -45.05 Q27.65 -46.8 27.1 -48.4 L26.25 -50.15 23.5 -52.1 22.9 -52.6 21.9 -53.25 22.25 -54.0 22.1 -54.85 21.8 -57.9 21.85 -61.3 20.6 -63.95 19.3 -65.9 18.95 -65.7 18.7 -66.35 Q18.7 -67.15 18.3 -67.8 L18.15 -68.0 Q16.95 -68.95 15.6 -69.5 14.35 -68.65 12.8 -68.9 L12.6 -68.9 11.05 -69.1 9.95 -69.2 10.25 -68.5 M17.25 -40.85 L18.05 -40.6 18.2 -40.55 18.55 -40.45 17.25 -40.85 M-3.85 -57.8 L-3.5 -57.65 -2.0 -57.05 0.0 -56.2 3.9 -54.35 4.35 -54.1 5.35 -52.95 6.7 -50.95 6.95 -50.55 7.7 -49.4 Q8.65 -48.3 10.0 -47.6 L8.5 -47.7 Q8.2 -48.2 7.5 -48.25 L7.05 -48.2 6.95 -48.65 6.5 -48.95 5.7 -49.05 6.0 -49.2 0.75 -51.3 Q-0.25 -53.45 -1.6 -55.4 -2.7 -57.0 -4.5 -57.6 L-5.45 -57.85 -5.65 -58.35 -5.35 -58.35 -5.05 -58.0 Q-4.55 -57.55 -3.9 -57.8 L-3.85 -57.8 M6.0 -50.25 L5.15 -51.75 Q4.35 -53.6 2.7 -53.9 1.05 -54.25 -0.4 -55.05 0.15 -53.55 1.1 -52.2 3.55 -50.6 6.0 -50.25 M26.5 -56.05 Q26.5 -58.05 27.05 -59.85 L23.3 -57.6 23.1 -54.45 Q22.9 -53.6 23.8 -53.3 L25.35 -52.65 Q26.45 -54.05 26.5 -56.05 M34.8 -39.2 Q34.1 -40.2 32.7 -40.1 L33.6 -37.55 36.15 -37.25 34.8 -39.2 M28.2 -41.25 L27.75 -41.8 28.8 -41.05 29.7 -39.75 29.55 -39.55 28.2 -41.25 M23.35 -40.9 L26.15 -38.05 22.6 -39.5 Q22.6 -40.4 23.35 -40.9 M21.75 -24.3 L24.05 -25.7 Q23.35 -26.3 22.35 -26.15 20.85 -28.9 20.15 -32.0 L19.55 -32.0 19.55 -31.05 Q19.75 -29.7 20.7 -28.35 21.55 -27.2 20.5 -26.4 L20.15 -26.15 Q18.55 -29.55 16.3 -32.55 14.8 -31.95 14.65 -30.1 L14.65 -30.05 14.7 -30.05 19.25 -24.1 21.75 -24.3 M4.55 -47.85 L4.45 -47.8 4.45 -47.85 4.55 -47.85 M2.6 -33.4 L2.8 -35.7 Q3.3 -36.45 3.0 -37.1 L2.4 -38.3 2.35 -38.4 2.3 -38.25 Q1.95 -37.4 1.2 -36.9 L-4.25 -35.9 -4.55 -35.85 -5.35 -35.7 -6.2 -35.55 -6.9 -35.4 -6.9 -31.25 -6.9 -31.05 -6.85 -31.0 -6.75 -30.85 -6.65 -30.75 -6.2 -30.25 Q-5.2 -29.3 -3.9 -28.8 -2.15 -28.15 -0.6 -27.2 L-2.75 -27.3 -4.6 -27.9 -5.15 -28.15 -5.4 -28.25 -5.55 -28.35 -6.5 -29.15 -7.05 -29.6 -7.1 -29.6 -7.65 -30.05 -8.4 -29.1 -8.65 -28.55 Q-8.85 -27.75 -8.5 -26.9 L-8.45 -26.65 -8.4 -26.6 -8.3 -26.3 -8.0 -25.5 -7.9 -25.3 -7.2 -23.6 Q-4.75 -21.55 -1.65 -20.65 L0.2 -20.3 0.65 -20.25 0.85 -20.15 1.0 -19.95 1.05 -19.7 1.05 -19.65 1.0 -19.3 Q-4.0 -19.25 -7.75 -22.75 -9.3 -25.15 -9.15 -27.55 -9.05 -29.3 -8.05 -31.05 -11.25 -31.0 -13.7 -28.8 L-13.9 -28.6 Q-15.05 -22.65 -10.0 -18.9 -9.55 -18.3 -9.45 -17.5 -9.4 -16.75 -8.7 -16.15 L-5.95 -15.7 -2.6 -15.1 Q0.45 -14.55 3.25 -16.15 4.25 -16.65 5.55 -16.75 6.75 -16.8 7.15 -17.95 L7.95 -19.1 9.75 -21.45 Q11.1 -23.25 10.55 -25.6 9.85 -26.85 8.65 -27.2 8.25 -25.55 7.45 -24.05 6.5 -22.4 5.05 -20.95 4.5 -20.55 4.15 -21.1 6.15 -22.85 7.0 -25.1 L7.6 -27.65 7.4 -28.1 6.85 -28.8 6.15 -29.2 5.9 -29.3 5.05 -28.0 Q4.6 -27.3 3.85 -27.35 5.2 -28.5 5.55 -29.85 L5.65 -31.45 5.6 -32.1 5.6 -32.15 5.5 -32.65 5.05 -36.15 3.55 -36.45 2.5 -27.95 2.35 -27.95 2.4 -30.15 2.45 -31.5 2.6 -33.4 M1.55 -22.2 L1.4 -21.25 1.3 -20.3 Q1.2 -21.15 1.25 -22.0 1.35 -23.5 1.85 -25.05 L1.55 -22.25 1.55 -22.2 M14.85 -35.5 L14.85 -35.55 14.75 -35.65 Q14.3 -36.35 13.4 -36.25 12.0 -35.35 11.45 -33.9 L11.45 -33.75 Q11.65 -31.25 12.85 -29.3 L14.15 -32.4 Q15.5 -33.05 15.6 -34.3 L14.85 -35.5 M10.6 -20.55 L10.25 -19.55 11.45 -19.05 Q12.4 -18.9 12.8 -19.85 L14.1 -22.55 13.4 -23.45 12.2 -23.55 12.1 -23.4 12.05 -23.4 Q11.2 -23.35 11.2 -22.5 L11.3 -22.05 10.6 -20.55 M9.55 -11.25 L10.05 -11.3 10.85 -11.7 Q11.9 -12.5 12.95 -12.45 13.7 -12.4 14.45 -11.95 14.8 -13.45 13.7 -14.0 12.5 -14.6 11.8 -15.55 11.2 -16.85 11.8 -18.2 L11.75 -18.25 11.5 -18.4 10.0 -18.65 Q8.8 -18.35 8.35 -17.55 7.85 -16.9 8.05 -16.25 L7.75 -13.1 Q8.55 -11.4 9.55 -11.25 M20.65 -17.45 L20.05 -17.05 Q17.8 -20.0 14.4 -20.9 12.75 -19.25 13.0 -17.15 L15.25 -16.45 15.2 -16.45 16.1 -16.1 18.55 -15.05 18.7 -14.95 19.4 -14.6 20.15 -14.2 19.9 -13.85 Q17.1 -15.2 13.95 -15.35 15.4 -14.25 15.55 -12.65 L15.6 -11.85 Q15.45 -9.8 15.7 -7.65 L12.45 -1.1 14.85 0.45 15.7 1.4 17.95 4.9 Q18.85 4.6 18.85 3.4 17.4 -0.1 18.55 -3.35 19.65 -6.65 22.25 -9.15 L23.0 -9.25 Q20.35 -6.6 19.85 -3.05 19.6 -1.7 19.75 -0.2 19.7 0.8 20.05 1.7 20.4 2.55 19.9 3.5 18.5 5.5 19.2 7.5 19.85 9.5 19.15 11.7 L18.65 13.15 18.75 13.7 18.85 14.85 18.9 17.1 21.55 12.05 Q22.2 10.65 21.55 9.55 20.85 8.35 21.1 7.0 21.9 4.45 22.1 1.7 22.2 -1.1 23.75 -3.3 L24.65 -2.9 30.35 -6.15 28.65 -9.15 Q27.9 -9.25 27.4 -8.75 27.15 -8.55 26.9 -8.5 L26.3 -8.65 26.4 -8.8 Q27.2 -9.95 28.65 -10.45 29.9 -9.8 30.8 -8.55 33.2 -10.05 35.55 -12.15 L34.95 -12.4 33.45 -12.55 Q31.2 -12.6 29.15 -13.3 L27.3 -13.7 25.15 -13.6 25.15 -13.85 Q25.85 -14.5 25.4 -14.95 L24.8 -15.5 24.85 -15.5 24.6 -15.75 24.5 -15.85 24.6 -15.9 25.3 -15.9 25.95 -15.65 Q26.65 -15.3 27.5 -15.65 L27.6 -16.15 28.1 -17.05 28.65 -18.35 24.15 -18.1 Q22.15 -18.3 20.65 -17.45 M6.8 -12.9 L6.8 -13.7 6.9 -14.1 6.9 -14.2 Q7.25 -15.05 6.9 -16.0 4.95 -15.95 3.3 -15.05 L0.0 -13.45 0.0 -12.95 0.05 -9.9 0.3 -4.05 7.65 -2.9 Q9.3 -5.35 10.0 -8.1 10.85 -10.1 9.25 -10.5 7.65 -10.95 6.9 -12.4 L6.8 -12.9 M9.25 -3.25 L9.15 -2.65 Q9.95 -2.3 10.75 -2.1 L11.85 -2.0 14.05 -5.85 Q15.1 -7.75 14.7 -10.1 14.05 -11.35 13.05 -11.45 12.3 -11.5 11.4 -10.95 L11.45 -10.3 Q11.05 -9.9 11.0 -9.15 L11.25 -8.6 10.55 -6.65 Q9.55 -4.95 9.25 -3.25 M-7.9 -0.3 L-0.65 -0.9 8.4 -0.1 13.4 0.7 12.75 0.2 12.0 -0.2 11.7 -0.3 Q4.95 -3.1 -3.2 -2.9 -6.8 -2.8 -9.8 -1.65 L-10.9 -1.2 Q-14.2 0.25 -16.8 3.0 L-17.35 4.25 -18.35 6.6 -18.5 7.1 -18.5 7.15 Q-19.25 9.6 -19.35 12.35 -18.8 13.55 -17.8 14.4 L-17.6 14.85 -17.55 14.9 -17.5 15.05 -17.45 15.05 -17.35 15.25 -16.85 15.55 -15.7 15.35 -15.6 15.35 -15.35 15.85 -15.3 15.95 -15.3 15.85 -15.15 13.55 -15.1 13.2 Q-14.3 11.5 -12.3 11.6 L-12.0 11.75 -11.9 11.8 Q-10.35 12.4 -9.25 13.65 L-8.3 14.9 Q-7.0 17.25 -6.65 19.8 -7.45 21.25 -9.05 21.3 -9.4 21.95 -8.6 22.35 L-8.1 22.5 -8.15 22.65 -8.1 23.45 -8.1 23.5 -7.95 23.85 -5.45 29.15 -5.4 29.5 -5.1 31.2 -4.8 32.7 -4.75 34.35 -4.95 35.65 Q-5.4 37.8 -6.25 39.85 L-6.55 40.4 Q-7.05 41.15 -7.05 42.0 L-7.45 42.6 -11.7 48.45 -11.8 48.65 -11.9 48.8 -11.9 48.85 -12.0 48.95 -12.0 49.0 -12.05 49.15 -12.15 49.3 -12.65 50.65 -12.7 50.7 -12.9 51.7 -12.95 53.9 -12.45 59.75 -9.5 63.8 -7.3 67.45 -7.1 67.8 Q-5.65 70.55 -4.5 73.45 L-2.9 78.1 -2.75 78.5 -2.75 78.15 -2.75 78.05 -3.05 74.85 -3.15 74.25 -3.2 74.1 -3.3 73.65 -3.25 73.65 Q-3.65 71.95 -4.2 70.35 L-5.3 67.85 -6.0 66.4 -6.4 65.65 -7.15 64.15 -7.55 63.25 -7.6 63.25 -10.1 57.95 Q-10.65 55.25 -10.4 52.8 L-10.35 52.35 -9.05 48.25 -8.85 47.8 -6.8 43.8 -6.15 42.5 -5.9 42.05 Q-5.0 41.15 -4.45 39.9 -3.6 37.8 -3.3 35.55 -3.05 33.55 -3.45 31.65 L-4.1 28.7 -4.35 27.7 Q-4.5 26.9 -4.95 26.35 L-5.4 25.4 -5.5 25.15 -5.95 24.4 -6.05 24.3 -7.7 23.9 -8.05 23.45 Q-8.3 23.05 -8.1 22.65 L-8.1 22.6 -8.05 22.55 -7.6 22.7 -6.6 23.05 -5.8 23.1 -5.6 23.1 -5.05 23.15 -3.95 23.2 -3.85 23.2 -3.75 23.05 Q-3.15 22.1 -3.05 20.95 L-3.05 18.0 -3.35 17.0 -3.35 16.75 -3.35 16.7 -3.3 16.4 -3.25 16.35 -3.2 16.35 -3.15 16.4 -3.15 16.5 -3.15 16.6 -3.0 16.75 -2.95 16.85 Q-1.85 18.7 -1.6 20.85 L-1.6 22.15 -1.05 22.35 Q-0.95 22.45 -0.8 22.5 0.2 22.75 0.95 22.15 L1.55 21.85 Q0.8 20.4 1.0 18.65 1.25 16.25 2.9 14.45 L3.15 14.3 3.15 14.25 3.2 14.2 3.35 14.1 3.65 13.75 3.5 14.2 3.4 14.4 3.35 14.45 Q2.65 16.35 2.55 18.35 L2.5 18.6 2.55 19.7 2.75 20.45 2.75 20.55 2.8 20.6 2.85 20.65 3.3 21.5 3.75 21.9 4.0 22.25 4.15 22.45 4.5 22.5 4.2 22.45 4.1 22.35 3.75 21.9 4.25 22.3 4.65 22.15 5.6 21.9 5.9 21.8 5.95 21.8 6.5 21.85 Q7.75 21.8 8.65 21.2 9.45 21.4 9.4 22.35 L9.4 22.4 9.0 22.5 8.1 22.8 8.1 22.85 8.05 22.9 7.45 23.8 7.1 23.95 7.25 24.2 Q6.75 25.1 6.55 26.15 L5.7 28.8 Q5.2 30.7 4.95 32.7 L4.85 32.95 4.8 33.65 4.65 34.1 Q4.55 35.4 4.6 36.7 L4.5 37.75 4.95 40.9 Q5.15 42.15 5.85 43.15 6.3 43.75 6.9 44.0 L7.0 44.0 8.0 45.9 9.1 47.5 11.1 50.35 11.1 50.6 11.2 51.95 11.55 55.95 Q11.7 57.7 11.35 59.25 L10.65 61.25 9.55 63.75 5.35 73.15 5.15 74.0 5.1 74.05 4.5 76.75 Q8.6 68.7 13.3 61.05 L13.45 60.8 13.65 59.6 13.7 59.45 Q13.9 57.3 13.65 55.2 L13.5 54.35 13.4 53.7 12.9 49.75 10.7 47.2 8.05 43.4 7.35 42.3 Q5.15 37.65 6.15 32.9 L6.15 32.85 6.35 32.15 Q7.65 27.0 9.45 22.4 L9.5 22.4 9.5 22.35 9.45 22.35 9.45 21.7 9.1 21.1 8.95 21.0 9.6 20.25 7.25 20.35 Q6.3 19.8 6.0 18.95 L5.95 18.7 5.9 17.7 6.3 16.2 11.3 10.95 11.85 10.75 Q12.95 10.5 13.9 11.1 L14.7 11.75 Q14.75 13.75 13.95 15.75 L15.25 17.45 16.3 15.9 16.6 15.35 16.6 15.3 16.85 14.9 16.85 14.85 16.7 14.8 17.05 11.25 16.75 10.05 17.0 9.55 17.05 9.15 17.1 8.4 16.55 8.3 16.1 7.85 15.75 6.1 15.5 5.55 14.45 3.95 Q13.45 2.5 11.85 1.8 10.1 1.05 8.25 0.9 L6.6 0.7 2.45 0.55 -3.05 0.7 -3.2 0.7 -7.6 1.4 Q-9.45 1.8 -11.05 2.65 -12.25 3.35 -12.95 4.5 L-13.35 5.15 Q-13.9 6.0 -13.55 6.85 -13.1 6.9 -12.8 7.3 -12.4 7.8 -12.7 8.35 -13.05 8.95 -13.8 8.85 L-16.2 9.0 -16.7 8.95 -16.8 8.15 -16.8 7.65 -16.7 7.5 -16.45 7.25 -16.5 6.9 -16.5 6.4 -16.25 5.95 -15.85 5.4 -15.2 4.5 -15.15 4.4 -15.05 4.3 -12.75 1.75 Q-12.25 1.3 -10.3 0.55 L-9.15 0.1 -9.05 0.05 -8.95 0.05 -7.9 -0.3 M-16.3 -49.55 L-16.35 -49.55 -16.9 -49.4 -19.35 -49.05 -19.7 -49.05 -19.8 -49.05 -22.35 -49.45 -22.05 -48.85 -21.8 -48.65 -20.65 -47.65 -20.0 -47.0 -19.15 -46.1 -18.85 -45.8 Q-17.3 -44.1 -15.0 -45.1 -12.7 -44.85 -10.3 -43.8 -7.95 -42.7 -6.05 -45.1 L-7.55 -47.75 -8.9 -49.25 Q-9.85 -49.9 -10.75 -50.2 L-15.4 -49.95 -16.3 -49.55 M-18.7 -21.85 L-18.15 -21.85 -18.0 -21.95 -17.9 -22.05 -16.85 -23.1 -16.6 -23.35 Q-14.4 -23.45 -15.05 -25.3 -15.65 -27.2 -15.3 -28.7 L-16.95 -28.75 Q-18.1 -28.6 -18.85 -27.8 L-18.9 -27.7 -19.2 -26.9 -19.8 -25.0 Q-20.25 -23.55 -19.35 -22.3 L-18.7 -21.85 M-37.25 -18.1 L-35.35 -16.05 -35.45 -15.9 -35.5 -15.9 -37.35 -17.6 -38.8 -18.9 -38.8 -19.35 -38.7 -19.25 -37.25 -18.1 M-6.6 -14.45 L-8.0 -14.8 Q-8.6 -14.55 -8.4 -13.75 -11.05 -8.5 -8.3 -3.3 L-7.0 -3.45 -1.65 -4.0 -0.7 -4.05 -0.7 -4.3 Q-0.75 -8.0 -1.15 -11.5 -1.9 -13.5 -4.0 -13.9 L-6.6 -14.45 M-13.6 -17.1 L-12.85 -16.15 -12.1 -16.45 -10.45 -16.65 Q-10.4 -17.8 -11.2 -18.5 L-12.85 -19.85 Q-13.85 -21.75 -15.2 -22.85 L-15.45 -22.75 -15.5 -22.75 Q-16.75 -22.35 -17.0 -21.1 -15.5 -20.25 -14.7 -18.85 L-13.6 -17.1 M-10.55 -15.55 L-10.9 -15.6 Q-11.95 -15.55 -12.65 -14.85 L-12.7 -14.65 Q-13.3 -14.4 -13.25 -13.55 L-13.2 -13.4 -14.2 -11.15 -14.25 -11.15 -14.55 -10.4 -14.9 -9.7 -15.0 -9.55 -14.3 -9.75 -12.85 -9.85 -12.7 -9.85 -12.35 -9.85 -11.4 -9.65 Q-11.0 -10.95 -10.25 -12.05 -9.55 -13.15 -9.65 -14.55 -9.85 -15.45 -10.55 -15.55 M-13.25 -9.0 L-14.35 -8.65 Q-15.8 -7.45 -15.1 -5.95 L-13.95 -3.0 -13.8 -2.65 Q-13.45 -1.75 -12.65 -1.85 -11.7 -2.0 -10.85 -2.45 -10.35 -2.55 -10.05 -2.8 -9.65 -3.15 -9.7 -3.65 L-9.7 -3.8 -9.7 -3.9 -9.75 -4.05 -9.8 -4.1 -9.8 -4.2 -9.9 -4.35 -11.3 -7.8 Q-11.85 -9.15 -13.25 -9.0 M-11.55 13.65 L-11.55 13.6 -12.25 13.45 -12.95 13.35 Q-14.35 14.05 -14.05 15.5 L-14.15 15.65 -14.35 16.45 -14.1 16.95 -14.25 16.95 -14.6 17.2 -14.9 17.4 -14.95 17.45 -15.0 17.5 -15.05 17.55 -15.15 17.65 -15.2 17.7 -15.3 17.75 -17.05 20.5 -17.15 20.95 -17.15 21.0 -17.25 21.4 -17.3 22.0 Q-17.45 24.6 -17.9 27.05 L-18.1 28.15 -18.05 28.15 -18.5 28.8 -18.35 29.5 -18.3 29.55 -18.9 30.5 -18.9 30.55 -18.8 30.55 -19.2 30.95 Q-19.35 31.4 -19.1 31.7 L-19.55 31.6 -19.95 32.1 -20.65 31.4 -21.0 31.1 -21.2 30.95 -21.35 30.8 -21.55 30.65 Q-23.45 28.85 -24.6 26.8 L-24.95 26.15 -25.05 26.0 -25.15 26.1 -25.2 26.1 -27.6 27.95 -27.65 27.95 Q-28.5 28.25 -29.4 27.95 L-30.1 27.9 -30.8 28.35 -30.8 28.4 -30.85 28.45 -31.0 28.7 -31.1 33.45 -31.1 33.65 -31.1 35.4 -31.45 35.7 -31.75 35.4 Q-31.6 32.4 -32.15 29.75 L-33.85 31.0 Q-34.6 31.6 -34.55 32.7 L-34.55 32.85 Q-33.35 35.25 -33.7 38.05 -33.95 39.8 -34.65 41.3 L-35.4 42.7 -35.6 42.95 -35.3 42.8 Q-31.95 40.6 -29.95 37.2 -29.6 35.3 -29.85 33.1 L-29.9 32.35 -29.85 33.0 -29.4 31.3 -29.15 30.55 Q-28.8 30.2 -28.3 30.0 -28.25 30.7 -28.75 31.5 L-26.2 34.0 Q-23.15 36.65 -19.4 37.65 L-19.2 37.1 Q-18.55 37.2 -18.35 36.65 L-18.2 36.1 Q-17.95 35.5 -18.05 34.9 L-18.05 34.75 -17.85 36.5 Q-17.0 35.7 -16.9 34.65 L-16.1 34.55 -16.0 34.4 -15.9 33.75 -15.45 33.65 Q-15.55 32.85 -15.2 32.35 L-15.05 32.0 -14.3 32.2 Q-13.8 31.9 -13.8 31.3 L-13.85 30.7 Q-12.6 29.15 -12.25 27.2 L-11.4 23.25 Q-11.2 21.95 -10.3 20.8 -9.8 20.15 -9.9 19.45 L-9.85 19.45 -9.4 19.35 Q-8.15 18.65 -8.85 17.4 L-8.75 16.15 Q-9.75 14.2 -11.55 13.65 M-19.15 17.3 L-19.25 17.4 -19.05 17.65 -19.1 17.45 -19.2 16.85 -19.15 17.3 M-33.0 20.0 L-31.35 18.15 -31.25 18.0 -34.0 18.15 -34.65 18.65 -34.75 18.8 -35.25 19.65 -35.65 20.7 -35.7 20.85 -35.8 21.05 -36.0 21.8 -36.1 22.55 -36.15 22.6 -36.2 24.4 -36.2 24.7 -36.55 24.8 -38.2 25.3 -38.55 25.45 -38.7 25.55 -39.8 26.1 -40.0 26.2 Q-41.35 27.0 -42.45 28.15 L-42.6 28.3 -42.65 28.35 -42.85 28.55 -44.2 30.35 -44.2 30.55 -44.25 30.65 -44.3 31.1 -44.4 32.0 Q-44.85 37.4 -41.95 41.95 L-41.15 43.25 -39.9 44.4 Q-40.4 40.3 -39.15 36.85 L-39.0 36.5 Q-38.4 34.85 -37.35 33.35 L-35.25 31.35 -31.4 27.35 -32.25 26.5 Q-33.2 26.85 -34.0 27.3 L-34.5 27.65 -34.8 27.8 -34.9 27.9 -36.4 29.1 -36.45 29.15 -36.55 29.25 -36.8 29.5 -38.1 31.15 Q-40.3 34.35 -41.35 37.75 L-41.4 37.8 -41.35 37.4 Q-41.2 34.75 -40.0 32.4 L-39.6 31.6 -39.35 31.25 -39.3 31.15 -39.1 30.85 Q-38.15 29.3 -36.8 28.2 -35.55 27.1 -33.95 26.3 -33.9 25.7 -34.3 25.5 -34.75 25.25 -34.8 24.75 L-34.8 24.7 Q-35.0 23.2 -34.4 21.95 -34.05 21.05 -33.3 20.25 L-33.0 20.0 M-36.2 19.15 L-36.25 19.1 -36.35 19.2 Q-37.55 19.65 -37.8 20.95 L-38.0 22.0 -38.1 23.1 -38.25 23.6 -38.15 23.65 -37.1 23.65 -36.9 21.75 -36.85 21.6 -36.35 19.55 -36.25 19.25 -36.2 19.15 M-33.15 21.8 L-33.15 21.85 -33.4 22.35 -33.45 22.5 -33.6 22.95 -33.9 24.05 Q-33.4 25.0 -32.4 25.1 -32.25 23.75 -31.7 22.7 -30.6 20.5 -27.95 19.45 L-27.9 19.4 -28.45 19.0 -28.75 18.8 -29.7 18.4 -29.75 18.55 -31.3 19.55 Q-32.45 20.5 -33.15 21.8 M-26.9 20.25 L-27.1 20.2 -27.3 20.2 Q-30.1 21.05 -31.05 23.65 L-31.2 24.1 Q-31.45 25.0 -31.15 25.7 L-30.2 26.8 Q-27.55 27.4 -25.85 25.45 L-25.85 25.2 Q-25.8 24.35 -25.3 23.65 -24.75 22.85 -25.1 21.85 -25.55 20.45 -26.85 20.25 L-26.9 20.2 -26.9 20.25 M-29.15 25.8 L-29.25 25.55 -29.4 24.75 Q-29.45 24.15 -29.1 23.65 L-29.05 23.6 -28.55 22.95 Q-28.1 22.2 -27.3 22.05 L-27.3 22.15 -26.95 22.05 -26.8 22.05 -26.35 22.05 -26.35 22.1 -26.35 22.25 Q-26.2 23.7 -27.4 24.55 L-27.8 24.95 Q-28.35 25.6 -29.15 25.8 M-2.75 26.8 L-2.7 27.3 Q-2.9 28.65 -2.45 30.2 L-2.15 31.0 -2.0 31.4 -2.0 34.1 -2.55 37.45 -2.7 37.8 Q-4.25 41.4 -6.25 44.8 L-8.0 47.85 Q-9.55 50.6 -9.4 53.8 -9.35 55.5 -8.6 57.05 L-4.3 65.65 -3.8 66.9 -3.25 68.5 Q-2.6 70.85 -1.45 72.95 L-1.35 73.35 -1.45 74.1 Q-1.55 75.55 -0.3 76.1 1.45 76.8 2.8 75.7 4.15 74.6 4.1 72.85 4.1 71.55 4.45 70.4 5.85 66.2 7.65 62.15 8.25 60.9 8.25 59.55 L7.95 58.05 8.1 55.75 8.1 54.9 8.15 54.35 7.95 52.85 Q7.6 49.95 6.35 47.2 4.55 43.2 3.7 38.85 L3.6 37.8 4.1 33.4 4.6 30.05 4.65 26.8 Q4.3 24.2 1.65 24.15 L0.25 24.15 -0.3 24.0 Q-2.7 24.35 -2.75 26.8 M-8.55 24.95 L-8.7 24.65 -8.7 24.8 -8.55 24.95 M-4.2 67.0 L-4.2 66.95 -4.4 66.95 -4.2 67.0 M48.9 13.7 L48.9 13.65 47.75 13.05 46.35 12.8 46.25 12.8 46.15 12.8 46.0 12.8 46.5 13.6 47.65 14.6 48.05 15.1 Q48.55 15.75 48.8 16.75 49.1 18.0 50.6 17.3 L50.0 14.9 49.75 14.55 48.9 13.7 M49.65 14.4 L49.75 14.55 49.8 14.4 49.65 14.35 49.6 14.3 49.5 14.2 49.65 14.4 M42.75 16.35 Q43.8 17.55 44.4 19.1 L48.0 17.8 Q47.35 16.15 46.25 14.75 L45.8 14.2 45.35 13.85 45.3 13.8 45.25 13.75 44.8 13.5 44.6 13.4 44.5 13.35 44.35 13.3 44.3 13.3 44.2 13.25 43.55 13.05 43.5 12.9 43.3 12.95 43.25 13.0 43.05 13.0 42.65 13.05 Q41.8 13.2 41.25 13.75 L40.65 14.5 40.8 14.6 Q41.9 15.35 42.75 16.35 M42.5 17.75 L41.45 16.55 Q40.7 15.9 39.65 15.6 L39.35 15.55 39.05 15.45 38.95 15.55 38.85 15.65 38.75 15.7 38.65 15.75 38.6 15.8 38.55 15.85 38.5 15.9 38.45 15.95 36.75 18.75 Q36.6 19.35 36.6 20.0 L36.6 20.15 36.7 21.65 36.6 21.65 Q36.5 21.7 36.35 21.85 L36.0 22.35 36.45 22.95 35.8 22.05 35.3 22.8 Q33.55 25.35 32.65 28.2 L32.4 29.15 32.25 29.65 32.3 29.7 Q32.0 29.9 31.8 30.25 L31.45 29.95 30.85 29.7 30.85 29.65 Q30.65 28.65 29.95 28.35 L30.0 28.3 29.55 27.8 Q27.95 26.0 25.95 24.9 L22.9 23.0 22.7 22.85 21.6 22.05 Q19.1 21.1 16.55 19.85 L16.2 19.7 15.1 19.3 14.9 19.25 Q14.9 18.8 14.5 18.25 L14.2 18.05 13.7 17.85 13.75 17.55 13.55 17.3 13.15 16.85 13.25 16.6 Q13.6 15.55 12.8 15.1 L12.1 13.7 11.25 13.0 10.95 12.8 10.9 12.85 Q9.8 13.55 9.05 14.5 8.45 15.2 8.1 16.1 7.8 16.85 7.65 17.7 7.9 18.75 8.95 18.65 L9.05 18.05 9.0 18.5 Q9.3 18.9 10.0 18.85 L10.1 19.1 10.4 19.4 11.35 19.75 11.4 19.75 Q14.55 24.55 18.95 29.15 23.35 33.75 29.35 34.1 L29.2 33.8 29.65 33.95 31.75 34.4 32.45 34.45 Q33.05 34.35 33.3 33.7 L33.55 33.8 34.0 33.25 Q34.9 32.75 35.15 31.8 L35.15 31.65 Q37.75 29.05 39.3 26.0 L39.45 25.85 39.6 25.7 40.75 24.75 41.3 24.35 41.6 24.6 42.05 25.95 43.35 29.65 43.5 29.95 Q44.45 32.6 46.5 34.85 49.15 35.95 51.85 35.85 L54.4 35.45 Q51.75 34.1 50.7 31.45 L48.75 26.2 45.05 25.6 Q46.1 28.85 47.6 31.85 L48.25 32.75 49.4 34.55 Q48.45 34.7 47.6 33.8 L44.0 25.9 Q43.7 25.35 43.75 24.8 L44.0 24.1 44.5 24.6 48.2 24.4 48.65 24.45 Q52.5 25.0 55.5 27.6 L61.85 33.05 61.8 32.6 60.7 26.2 Q60.1 23.0 57.45 21.15 54.85 19.35 52.2 18.25 L52.2 18.2 52.05 18.2 Q47.7 18.7 43.95 20.75 L43.9 20.8 43.75 20.85 43.3 20.25 Q43.0 19.75 43.1 19.05 L42.5 17.75 M51.65 14.85 L51.25 15.05 Q51.15 15.15 51.2 15.35 L51.2 15.4 Q51.4 16.55 52.3 16.85 L52.5 16.9 52.7 16.05 Q52.4 15.2 51.65 14.85 M28.55 31.2 L28.65 30.9 28.7 31.15 28.55 31.2 M1.75 79.75 L1.65 79.75 2.1 79.8 2.1 79.75 1.75 79.7 1.75 79.75" fill="#000000" fill-rule="evenodd" stroke="none"/>
    <path d="M11.05 -69.1 L12.6 -68.9 12.8 -68.9 Q14.35 -68.65 15.6 -69.5 16.95 -68.95 18.15 -68.0 L18.3 -67.8 18.4 -67.65 15.65 -66.85 13.95 -66.65 12.1 -67.0 11.65 -67.15 11.65 -67.75 11.4 -68.6 11.2 -69.1 11.05 -69.1 M18.95 -65.7 L19.3 -65.9 20.6 -63.95 20.25 -63.6 18.9 -62.9 Q17.9 -62.55 17.5 -63.5 L17.4 -64.0 17.4 -64.1 17.45 -64.15 17.5 -64.25 Q18.05 -65.15 18.95 -65.7 M21.9 -53.25 L22.9 -52.6 23.5 -52.1 22.9 -51.55 21.65 -51.35 20.3 -51.5 Q19.6 -51.05 18.9 -50.9 L18.9 -51.65 17.85 -51.9 17.75 -51.8 17.5 -51.4 17.4 -50.95 Q16.9 -51.05 16.4 -51.3 13.95 -50.45 11.9 -48.95 L11.35 -48.9 11.3 -48.9 11.35 -50.25 Q13.3 -53.0 16.4 -52.5 17.45 -53.95 19.15 -54.0 20.65 -53.95 21.9 -53.25 M27.55 -43.85 L29.85 -41.25 30.3 -40.85 29.1 -40.95 28.8 -41.05 27.75 -41.8 28.2 -41.25 Q27.45 -41.55 26.8 -42.0 L21.7 -41.05 21.3 -40.9 20.55 -40.35 Q19.8 -39.85 19.2 -40.05 L19.25 -40.2 Q19.5 -42.8 22.4 -43.5 L27.5 -43.95 27.55 -43.85 M-6.6 -40.4 L-4.55 -41.95 Q-3.05 -43.15 -0.95 -42.35 L-0.8 -42.2 Q-1.6 -41.95 -1.55 -40.8 L-1.55 -40.75 -1.45 -40.45 -3.5 -39.75 -6.25 -39.95 -6.6 -40.4 M-13.45 -53.4 L-15.05 -56.5 -14.9 -56.85 -14.4 -57.05 -15.3 -56.9 Q-16.85 -59.5 -15.4 -62.3 L-14.7 -64.55 Q-14.35 -65.85 -12.75 -65.0 -11.0 -64.3 -9.6 -65.25 L-6.75 -66.95 -5.9 -68.1 -5.95 -68.4 -5.85 -68.4 -5.9 -68.4 -5.95 -68.45 -6.35 -74.4 -8.9 -79.0 Q-6.25 -79.5 -3.35 -79.0 L-1.95 -78.45 Q-1.7 -77.6 -2.65 -77.05 L-3.65 -76.85 -4.9 -77.1 -4.85 -77.0 -5.3 -77.1 -4.95 -76.8 -4.7 -76.65 Q-4.1 -75.2 -4.25 -73.6 L-4.15 -73.1 Q-3.0 -70.95 -3.65 -68.75 -3.75 -68.35 -4.2 -68.2 L-5.1 -68.05 Q-4.45 -67.55 -4.75 -66.4 -5.0 -65.4 -5.95 -64.85 L-6.3 -64.45 Q-7.35 -61.8 -10.1 -62.75 L-10.55 -63.05 -11.7 -62.5 Q-12.0 -62.3 -12.4 -62.25 L-12.8 -62.2 Q-13.5 -60.1 -13.7 -57.95 L-13.9 -57.45 -13.8 -57.55 Q-12.8 -57.4 -12.4 -56.35 L-12.35 -56.3 Q-10.45 -55.4 -11.3 -53.7 L-11.65 -53.6 -12.1 -53.55 -12.2 -53.55 -12.75 -53.55 -13.45 -53.4 M4.85 -70.5 Q7.0 -70.5 8.4 -69.2 L8.2 -68.85 8.0 -68.55 7.95 -68.5 7.7 -68.5 7.4 -68.5 Q7.0 -68.35 6.85 -68.05 L6.25 -68.1 Q4.4 -66.95 3.5 -68.75 3.25 -69.3 3.45 -69.75 L3.9 -69.75 4.85 -70.5 M8.1 -65.45 L10.7 -65.25 11.1 -65.05 11.1 -64.35 Q11.05 -63.6 10.3 -63.4 8.85 -62.9 8.2 -64.1 7.75 -64.8 8.1 -65.45 M1.1 -62.1 L1.3 -61.95 2.55 -61.55 1.9 -61.15 1.1 -61.0 -0.9 -61.4 -1.5 -61.15 -1.95 -60.85 -1.65 -59.7 -1.55 -58.95 -1.6 -58.65 -1.95 -58.75 -2.3 -58.9 -4.25 -59.4 -4.45 -61.55 -1.45 -62.05 1.1 -62.1 M5.5 -54.95 Q4.9 -54.8 4.7 -55.5 L4.7 -55.75 4.4 -56.0 Q4.4 -56.45 4.95 -56.8 L5.1 -56.85 5.15 -56.9 Q5.75 -56.95 6.1 -56.4 L5.9 -55.1 5.5 -54.95 M0.8 -59.85 Q1.85 -60.0 2.45 -59.2 2.65 -58.2 1.85 -57.6 0.65 -57.7 0.35 -58.9 0.2 -59.6 0.8 -59.85 M11.45 -33.75 L11.45 -33.9 Q12.0 -35.35 13.4 -36.25 14.3 -36.35 14.75 -35.65 L14.85 -35.55 14.85 -35.5 14.85 -35.2 Q14.85 -34.8 14.5 -34.5 L12.85 -33.4 Q12.15 -32.95 11.55 -33.0 L11.45 -33.75 M-20.0 -47.0 L-20.65 -47.65 -21.8 -48.65 -22.05 -48.85 -22.35 -49.45 -19.8 -49.05 -19.7 -49.05 -19.35 -49.05 -16.9 -49.4 -16.35 -49.55 -16.3 -49.55 -15.25 -49.65 -15.1 -49.6 -15.0 -49.5 Q-14.95 -47.95 -16.6 -47.55 L-18.35 -47.45 -20.0 -47.0 M-9.0 -59.55 Q-9.05 -60.05 -8.5 -60.4 -8.0 -60.85 -7.6 -60.1 -7.55 -59.45 -8.1 -58.9 -8.8 -58.85 -9.0 -59.55" fill="#ff6633" fill-rule="evenodd" stroke="none"/>
    <path d="M10.25 -68.5 L9.95 -69.2 11.05 -69.1 10.2 -69.15 10.05 -68.95 10.25 -68.5 M18.3 -67.8 Q18.7 -67.15 18.7 -66.35 L18.7 -66.3 Q17.35 -65.6 16.65 -64.25 L14.0 -64.35 13.65 -64.9 13.35 -65.4 12.35 -66.75 12.1 -67.0 13.95 -66.65 15.65 -66.85 18.4 -67.65 18.3 -67.8 M20.6 -63.95 L21.85 -61.3 21.8 -57.9 21.1 -58.25 Q20.05 -60.8 18.1 -62.7 L17.65 -62.75 17.65 -62.7 17.3 -62.45 17.25 -62.35 17.5 -61.2 18.05 -59.55 17.95 -59.6 17.25 -59.5 16.6 -59.1 16.55 -59.05 16.35 -59.95 15.4 -62.8 15.0 -63.45 14.6 -63.4 17.05 -63.35 17.1 -63.45 17.15 -63.55 17.35 -63.95 17.4 -64.0 17.5 -63.5 Q17.9 -62.55 18.9 -62.9 L20.25 -63.6 20.6 -63.95 M23.5 -52.1 L26.25 -50.15 27.1 -48.4 Q24.45 -49.45 21.4 -49.25 20.9 -48.9 20.25 -48.7 18.85 -48.2 18.2 -46.95 17.9 -46.45 17.95 -45.85 L18.0 -44.95 Q16.6 -46.6 14.7 -47.75 13.95 -48.95 13.0 -49.55 13.3 -48.1 14.5 -46.7 15.6 -46.35 16.5 -45.3 17.15 -44.5 18.05 -44.35 L18.05 -43.55 Q18.0 -42.4 18.65 -42.0 L16.9 -41.95 14.9 -43.95 Q13.95 -45.0 12.25 -44.6 11.35 -46.6 11.3 -48.9 L11.35 -48.9 11.9 -48.95 Q13.95 -50.45 16.4 -51.3 16.9 -51.05 17.4 -50.95 L17.5 -51.4 17.4 -50.7 18.15 -50.1 Q18.75 -50.35 18.9 -50.9 19.6 -51.05 20.3 -51.5 L21.65 -51.35 22.9 -51.55 23.5 -52.1 M30.3 -40.85 L31.65 -39.1 30.5 -39.1 Q28.0 -38.8 27.3 -36.45 L27.35 -35.85 Q28.8 -32.85 29.65 -29.55 L29.35 -30.1 Q28.5 -32.0 26.75 -33.2 24.65 -34.4 22.05 -33.55 19.9 -32.9 18.9 -34.55 L18.55 -35.3 19.2 -40.05 Q19.8 -39.85 20.55 -40.35 L21.3 -40.9 21.7 -41.05 26.8 -42.0 Q27.45 -41.55 28.2 -41.25 L29.55 -39.55 29.7 -39.75 28.8 -41.05 29.1 -40.95 30.3 -40.85 M17.7 -34.2 L16.75 -33.7 Q16.3 -36.0 14.2 -37.25 13.1 -37.25 12.15 -36.2 11.25 -35.15 10.7 -34.15 L6.8 -36.45 4.3 -37.75 4.65 -37.7 Q6.55 -37.3 8.0 -38.55 8.85 -39.35 9.3 -40.35 L9.9 -41.8 Q10.5 -41.4 11.3 -41.25 11.95 -41.15 12.45 -40.75 L15.2 -38.4 15.9 -37.9 16.25 -37.5 17.2 -36.8 17.25 -36.7 Q17.75 -35.6 17.8 -34.3 L17.7 -34.2 M-8.9 -37.75 L-11.1 -39.05 Q-10.35 -39.55 -9.35 -39.5 L-7.5 -39.8 -6.6 -40.4 -6.25 -39.95 -3.5 -39.75 -1.45 -40.45 -1.4 -40.35 -0.8 -39.85 -0.95 -39.65 Q-4.9 -39.0 -8.85 -37.8 L-8.9 -37.75 M0.2 -42.2 Q-0.9 -43.45 -2.7 -43.4 L-2.7 -43.7 -2.85 -44.1 Q-4.05 -45.4 -4.7 -47.05 L-5.7 -49.7 -5.85 -50.05 -6.3 -52.7 Q-6.35 -53.3 -6.7 -53.75 -7.35 -54.65 -8.5 -54.9 L-9.15 -54.7 -9.55 -54.2 -11.65 -53.6 -11.3 -53.7 Q-10.45 -55.4 -12.35 -56.3 L-12.4 -56.35 Q-12.8 -57.4 -13.8 -57.55 L-13.9 -57.45 -13.7 -57.95 Q-13.5 -60.1 -12.8 -62.2 L-12.4 -62.25 Q-12.0 -62.3 -11.7 -62.5 L-10.55 -63.05 -10.1 -62.75 Q-7.35 -61.8 -6.3 -64.45 L-5.95 -64.85 Q-5.0 -65.4 -4.75 -66.4 -4.45 -67.55 -5.1 -68.05 L-4.2 -68.2 Q-3.75 -68.35 -3.65 -68.75 -3.0 -70.95 -4.15 -73.1 L-4.25 -73.6 Q-4.1 -75.2 -4.7 -76.65 L-4.95 -76.8 Q-4.15 -76.3 -3.2 -76.2 L-1.0 -74.5 -0.7 -74.2 -0.3 -72.75 Q0.8 -70.05 3.45 -69.75 3.25 -69.3 3.5 -68.75 4.4 -66.95 6.25 -68.1 L6.85 -68.05 6.65 -67.45 Q6.6 -66.6 6.85 -66.1 L6.35 -65.45 6.15 -63.6 Q6.05 -62.6 4.85 -63.05 L4.8 -63.0 2.95 -63.95 3.0 -63.95 3.0 -64.25 3.0 -64.35 2.9 -65.1 Q2.45 -66.8 2.75 -68.45 L2.05 -65.35 1.75 -65.4 Q0.75 -66.25 0.6 -67.55 L0.0 -70.4 0.0 -66.55 -0.25 -66.6 -0.45 -66.45 Q-1.5 -67.05 -2.05 -68.15 -1.95 -66.3 -0.4 -65.8 L-0.65 -65.85 Q-0.55 -64.95 0.05 -64.2 L0.25 -63.6 0.2 -63.7 0.15 -63.65 Q-0.2 -63.35 -0.75 -63.5 L-0.95 -63.55 -1.85 -63.7 -3.45 -63.1 -3.65 -63.05 Q-4.5 -63.05 -5.25 -62.65 -5.9 -62.3 -5.95 -61.6 L-5.95 -61.45 -5.4 -60.05 -5.2 -59.2 -5.1 -58.45 -5.05 -58.25 -5.35 -58.35 -5.65 -58.35 -5.45 -57.85 -4.5 -57.6 -4.9 -57.0 -5.15 -55.6 Q-5.3 -54.45 -5.0 -53.35 L-4.2 -50.6 Q-3.05 -46.5 0.35 -44.05 1.8 -43.0 3.5 -42.8 L3.5 -42.7 Q4.95 -41.5 6.75 -41.95 L7.5 -42.35 7.2 -41.9 Q6.0 -40.4 4.05 -40.35 L2.75 -41.05 0.65 -42.05 0.2 -42.2 M-15.05 -56.5 L-15.3 -56.9 -14.4 -57.05 -14.9 -56.85 -15.05 -56.5 M-5.95 -68.4 L-5.95 -68.45 -5.9 -68.4 -5.85 -68.4 -5.95 -68.4 M-1.95 -78.45 L-0.25 -77.5 -0.6 -76.85 -0.75 -75.0 Q-2.6 -76.5 -4.85 -77.0 L-4.9 -77.1 -3.65 -76.85 -2.65 -77.05 Q-1.7 -77.6 -1.95 -78.45 M8.0 -68.55 L8.0 -68.5 7.95 -68.5 8.0 -68.55 M9.85 -67.0 L9.85 -66.95 9.85 -67.0 M6.1 -62.3 Q6.65 -63.0 6.75 -63.95 6.85 -65.0 7.7 -65.45 L8.1 -65.45 Q7.75 -64.8 8.2 -64.1 8.85 -62.9 10.3 -63.4 11.05 -63.6 11.1 -64.35 L11.1 -65.05 Q12.5 -64.15 13.2 -62.85 L12.8 -63.45 11.45 -63.35 10.85 -62.85 Q9.75 -61.7 10.8 -60.5 L11.1 -60.2 10.4 -59.55 10.45 -59.7 9.55 -60.35 Q7.95 -61.5 6.1 -62.3 M17.8 -37.6 L17.75 -37.55 17.5 -37.45 16.8 -38.15 17.35 -37.7 17.8 -37.6 M14.3 -62.3 L14.4 -62.05 14.5 -61.65 14.3 -62.3 M2.55 -61.55 L4.7 -60.6 Q6.55 -59.6 8.3 -58.4 L8.7 -58.05 9.7 -57.1 9.5 -57.05 Q8.4 -56.65 8.3 -55.55 8.2 -54.85 8.35 -54.2 L6.6 -54.65 6.55 -54.6 6.1 -54.35 6.0 -54.3 6.05 -54.3 5.55 -54.85 5.5 -54.95 5.9 -55.1 6.1 -56.4 Q5.75 -56.95 5.15 -56.9 L5.1 -56.85 4.95 -56.8 Q4.4 -56.45 4.4 -56.0 L3.95 -56.3 3.65 -56.45 1.05 -57.85 0.65 -58.0 -0.7 -58.45 -1.95 -58.75 -1.6 -58.65 -1.55 -58.95 -1.65 -59.7 -1.95 -60.85 -1.5 -61.15 -0.9 -61.4 1.1 -61.0 1.9 -61.15 2.55 -61.55 M0.0 -56.2 L0.1 -56.2 0.3 -56.1 0.65 -55.95 Q2.0 -55.5 3.15 -54.75 L3.9 -54.35 0.0 -56.2 M-1.9 -51.05 L-1.75 -50.8 -1.85 -50.9 -1.95 -51.05 -1.95 -51.15 -1.9 -51.05 M-2.0 -51.45 L-1.6 -51.75 Q-1.0 -51.7 -0.5 -51.35 L0.35 -50.75 1.0 -50.15 -0.4 -51.0 -0.4 -50.9 1.3 -49.4 1.8 -48.95 2.3 -48.35 2.7 -48.1 3.35 -47.7 Q4.35 -47.5 5.25 -48.05 L6.05 -48.25 6.9 -48.25 7.0 -48.2 7.05 -48.2 7.2 -48.15 7.35 -47.3 7.25 -47.25 Q5.3 -46.4 3.0 -46.25 1.25 -47.4 -0.2 -49.05 L-0.3 -49.25 -0.55 -49.6 -1.15 -50.25 -2.0 -51.45 M6.4 -43.05 L6.6 -43.1 7.05 -43.4 6.4 -43.05 M0.8 -59.85 Q0.2 -59.6 0.35 -58.9 0.65 -57.7 1.85 -57.6 2.65 -58.2 2.45 -59.2 1.85 -60.0 0.8 -59.85 M15.15 -54.65 L16.0 -53.25 Q15.15 -52.9 14.5 -53.9 14.4 -54.6 15.15 -54.65 M23.35 -40.9 Q22.6 -40.4 22.6 -39.5 L26.15 -38.05 23.35 -40.9 M-8.0 -25.5 L-8.3 -26.3 -8.4 -26.6 -8.5 -26.95 -8.6 -27.95 -8.65 -28.55 -8.4 -29.1 -7.65 -30.05 -7.1 -29.6 -7.05 -29.6 -6.5 -29.15 -5.55 -28.35 -5.4 -28.25 -5.15 -28.15 -4.6 -27.9 -2.75 -27.3 -2.1 -27.2 -1.65 -26.95 Q-1.3 -26.7 -1.5 -26.3 -2.4 -24.4 -4.6 -25.4 L-5.7 -26.2 Q-6.75 -25.5 -7.9 -25.35 L-8.0 -25.5 M-6.2 -30.25 L-6.65 -30.75 -6.75 -30.85 -6.9 -31.25 -6.9 -35.4 -6.2 -35.55 -5.35 -35.7 -5.05 -35.75 -4.5 -35.05 Q-3.8 -34.35 -2.85 -34.0 L-2.85 -33.65 -2.85 -33.3 -2.95 -32.95 -2.95 -32.8 Q-3.25 -31.95 -4.0 -31.3 L-4.25 -31.2 -5.05 -30.55 -5.05 -30.5 -6.2 -30.3 -6.2 -30.25 M-4.55 -35.85 L-4.25 -35.9 -4.6 -35.8 -4.55 -35.85 M1.55 -22.25 L1.55 -22.2 1.55 -22.25 M14.85 -35.5 L15.6 -34.3 Q15.5 -33.05 14.15 -32.4 L12.85 -29.3 Q11.65 -31.25 11.45 -33.75 L11.55 -33.0 Q12.15 -32.95 12.85 -33.4 L14.5 -34.5 Q14.85 -34.8 14.85 -35.2 L14.85 -35.5 M-2.75 78.05 L-2.75 78.15 -2.75 78.5 -2.9 78.1 -2.75 78.05 M-20.0 -47.0 L-18.35 -47.45 -16.6 -47.55 Q-14.95 -47.95 -15.0 -49.5 L-15.1 -49.6 -15.25 -49.65 -16.3 -49.55 -15.4 -49.95 -10.75 -50.2 Q-10.8 -48.4 -9.8 -46.8 -12.1 -47.9 -14.65 -47.2 L-16.9 -46.7 -19.15 -46.1 -20.0 -47.0 M-9.0 -59.55 Q-8.8 -58.85 -8.1 -58.9 -7.55 -59.45 -7.6 -60.1 -8.0 -60.85 -8.5 -60.4 -9.05 -60.05 -9.0 -59.55 M-0.3 -31.35 L-0.2 -31.25 -0.2 -31.05 Q-0.2 -30.8 -0.35 -30.7 L-0.45 -30.65 -0.85 -30.65 -1.0 -30.75 -1.1 -31.0 -1.0 -31.35 -0.9 -31.45 -0.8 -31.55 -0.45 -31.5 -0.3 -31.35 M-3.5 -22.95 Q-4.4 -23.65 -3.5 -24.3 L-3.15 -24.45 Q-1.8 -23.95 -2.85 -23.0 L-3.5 -22.95 M15.8 53.35 L15.7 53.25 15.75 53.25 15.7 52.9 15.8 53.35 M14.65 53.55 L14.55 53.6 14.55 53.55 14.65 53.55" fill="#cc0000" fill-rule="evenodd" stroke="none"/>
    <path d="M17.95 63.1 Q17.0 64.2 16.2 65.45 L15.0 67.4 13.9 69.15 12.45 71.9 Q12.25 72.25 12.2 72.65 L11.95 73.7 11.85 73.8 11.25 74.7 11.5 73.85 12.9 69.5 Q9.8 73.5 8.4 78.05 7.9 79.1 6.8 79.0 L6.2 79.0 6.35 78.65 7.35 76.2 8.75 72.65 Q10.15 69.1 12.25 65.9 L13.5 64.2 Q14.75 62.5 15.4 60.6 L15.7 60.2 16.0 58.95 16.1 53.85 16.2 53.05 19.9 50.0 20.15 50.0 20.35 50.0 Q21.1 52.45 21.4 55.1 21.75 57.9 20.0 59.85 18.6 61.35 17.95 63.1 M-6.4 79.25 L-6.65 78.95 -8.8 76.35 -9.25 75.15 -9.25 75.05 -9.75 73.4 -10.15 72.25 Q-11.35 69.05 -14.35 67.5 L-15.5 66.85 Q-16.4 66.25 -17.35 65.85 L-17.3 65.7 Q-14.65 66.7 -12.35 68.35 -13.0 66.5 -14.6 65.8 L-17.7 64.2 -18.75 64.1 Q-19.3 64.4 -19.6 63.75 -20.45 61.05 -22.0 58.75 L-21.85 58.65 Q-19.6 57.5 -20.0 54.6 L-19.15 52.95 -19.0 52.55 Q-17.35 54.5 -15.1 55.9 -15.35 55.75 -15.55 55.65 -15.5 57.45 -14.65 59.1 L-14.55 59.35 Q-14.15 61.05 -13.0 62.5 -10.95 64.95 -9.4 67.8 -8.15 70.1 -7.25 72.55 -6.25 75.15 -5.65 77.85 L-5.45 78.9 -5.35 79.45 -6.4 79.25 M-29.9 -0.75 Q-31.05 -2.85 -33.05 -4.15 L-33.3 -4.55 -35.9 -5.65 Q-35.8 -6.05 -36.25 -6.3 L-36.7 -6.95 -37.3 -7.65 Q-37.65 -7.95 -38.1 -8.05 L-38.9 -8.45 -40.05 -9.3 -40.35 -9.65 -40.3 -9.7 -39.1 -9.95 Q-38.05 -10.05 -37.65 -11.0 L-37.35 -12.0 Q-37.2 -13.4 -38.5 -13.95 -38.65 -15.35 -39.05 -16.65 L-39.35 -17.5 -37.35 -17.6 -35.5 -15.9 -35.45 -15.9 -35.4 -15.85 Q-36.2 -14.05 -34.5 -12.95 L-34.45 -12.65 -36.6 -13.05 -36.6 -13.0 -36.75 -12.95 -36.85 -12.95 -37.3 -12.0 Q-37.25 -11.5 -36.7 -11.1 L-35.45 -10.3 -34.6 -9.8 -31.5 -7.35 -30.1 -5.7 -28.3 -3.25 -28.2 -3.05 -27.3 -2.0 -26.9 -1.6 -26.8 -1.4 Q-26.6 -1.0 -26.2 -1.0 L-25.85 -1.0 -25.8 -0.95 -25.75 -0.85 -25.7 -0.8 -25.65 -0.8 -25.65 -0.85 -25.7 -0.95 -25.75 -1.0 -25.75 -1.1 -25.8 -1.2 -25.7 -1.25 -25.6 -1.5 -24.8 0.0 Q-23.75 2.1 -24.7 4.2 -25.45 5.9 -25.25 7.85 L-25.8 7.85 -25.75 5.3 -25.9 4.95 -27.65 0.5 Q-28.6 -1.95 -30.95 -3.2 L-29.85 -0.75 -29.9 -0.75 M-35.45 -20.85 L-35.05 -20.9 Q-32.55 -21.2 -30.4 -20.1 L-31.05 -20.35 -31.05 -20.25 -30.95 -18.2 -31.3 -17.95 -31.5 -17.8 -31.6 -17.65 Q-33.55 -17.15 -35.15 -16.1 L-35.3 -15.95 -35.35 -16.05 -37.25 -18.1 -36.9 -17.8 Q-35.85 -18.3 -35.0 -19.5 -34.65 -20.05 -35.05 -20.5 L-35.45 -20.85 M-30.4 -21.25 L-30.8 -21.5 -30.8 -22.05 -30.55 -21.9 Q-28.45 -20.8 -26.85 -22.2 -26.45 -22.55 -26.5 -23.05 L-26.45 -23.15 -25.9 -23.0 Q-24.85 -23.85 -23.65 -23.5 L-21.3 -23.0 Q-20.25 -21.2 -18.1 -20.4 L-16.95 -19.75 -17.5 -19.9 -20.2 -19.65 -20.9 -19.4 Q-23.2 -18.25 -25.7 -18.55 L-27.15 -19.75 -27.85 -20.5 Q-28.5 -21.5 -29.85 -21.35 L-30.4 -21.25 M-16.55 -15.85 Q-15.0 -15.95 -13.65 -15.35 -13.55 -13.6 -14.55 -12.1 L-16.35 -9.0 Q-16.0 -5.2 -14.35 -1.95 L-15.25 -1.9 Q-16.2 -1.25 -17.4 -0.95 L-18.25 -0.95 -20.6 -1.4 -20.55 -1.15 -21.6 -5.25 Q-23.55 -8.1 -26.35 -9.25 L-26.45 -9.85 -26.3 -11.35 Q-26.25 -9.5 -23.8 -9.8 -23.15 -9.9 -22.85 -10.55 -21.8 -13.0 -19.1 -12.85 -17.5 -12.75 -16.5 -13.85 -15.75 -14.7 -16.4 -15.65 L-16.55 -15.85 M8.4 -69.2 L8.3 -69.3 Q9.4 -69.1 10.3 -68.45 L10.25 -68.5 10.05 -68.95 10.2 -69.15 11.05 -69.1 11.2 -69.1 11.4 -68.6 11.65 -67.75 11.65 -67.15 12.1 -67.0 12.35 -66.75 13.35 -65.4 13.65 -64.9 14.0 -64.35 16.65 -64.25 Q17.35 -65.6 18.7 -66.3 L18.7 -66.35 18.95 -65.7 Q18.05 -65.15 17.5 -64.25 L17.45 -64.15 17.4 -64.1 17.4 -64.0 17.35 -63.95 17.15 -63.55 17.1 -63.45 17.05 -63.35 14.6 -63.4 15.0 -63.45 15.4 -62.8 16.35 -59.95 16.55 -59.05 15.95 -58.9 15.85 -58.85 15.95 -58.55 Q16.5 -58.45 16.75 -57.9 L16.85 -57.65 17.6 -56.3 17.7 -55.4 18.05 -55.45 20.8 -55.2 21.25 -54.95 21.8 -54.5 22.15 -54.4 22.1 -54.8 22.1 -54.85 22.25 -54.0 21.9 -53.25 Q20.65 -53.95 19.15 -54.0 17.45 -53.95 16.4 -52.5 13.3 -53.0 11.35 -50.25 L11.3 -48.9 Q11.35 -46.6 12.25 -44.6 13.95 -45.0 14.9 -43.95 L16.9 -41.95 18.65 -42.0 19.3 -42.45 21.5 -44.2 26.95 -45.0 27.15 -44.9 Q27.8 -44.6 27.6 -44.0 L27.55 -43.85 27.5 -43.95 22.4 -43.5 Q19.5 -42.8 19.25 -40.2 L19.2 -40.05 18.55 -35.3 18.9 -34.55 Q18.7 -34.2 18.2 -34.1 L17.7 -34.2 17.8 -34.3 Q17.75 -35.6 17.25 -36.7 L17.2 -36.8 16.25 -37.5 15.9 -37.9 16.0 -38.45 16.1 -38.45 16.15 -38.4 16.2 -38.4 16.8 -38.15 17.5 -37.45 17.75 -37.55 17.8 -37.6 Q18.2 -37.9 18.3 -38.6 L18.7 -40.4 18.55 -40.45 18.2 -40.55 18.05 -40.6 17.25 -40.85 Q15.85 -41.5 14.7 -42.7 L14.55 -42.85 14.45 -43.0 14.4 -43.05 14.25 -43.15 14.1 -43.4 13.95 -43.55 Q13.25 -43.8 12.55 -43.55 11.8 -43.3 11.25 -43.95 L11.2 -44.05 Q10.7 -46.35 10.65 -48.65 L10.5 -48.8 Q10.3 -49.0 10.25 -49.3 L10.15 -49.7 9.8 -50.7 Q9.6 -51.65 10.5 -52.05 L10.75 -52.15 12.1 -53.2 12.55 -53.65 Q12.95 -54.0 13.45 -54.05 L13.7 -54.05 13.65 -54.4 14.15 -55.05 Q14.5 -55.4 15.05 -55.45 L15.25 -55.45 Q15.85 -54.75 16.6 -54.45 L16.35 -55.75 Q16.25 -56.5 15.8 -57.0 14.85 -56.1 13.35 -56.2 12.2 -57.2 13.5 -57.05 14.75 -56.9 15.25 -57.7 L15.15 -58.45 14.55 -59.3 Q12.6 -59.95 11.35 -59.05 L10.7 -58.45 Q10.2 -58.8 10.35 -59.5 L10.4 -59.55 11.1 -60.2 11.4 -60.3 11.85 -60.35 13.8 -60.65 13.8 -60.75 13.2 -62.85 Q12.5 -64.15 11.1 -65.05 L10.7 -65.25 8.1 -65.45 7.7 -65.45 Q6.85 -65.0 6.75 -63.95 6.65 -63.0 6.1 -62.3 L6.0 -62.15 Q5.25 -62.05 4.7 -62.6 L4.8 -63.0 4.85 -63.05 Q6.05 -62.6 6.15 -63.6 L6.35 -65.45 6.85 -66.1 Q7.35 -66.5 8.05 -66.5 L8.3 -66.5 9.3 -66.5 9.85 -66.5 9.85 -66.95 9.85 -67.0 9.85 -67.05 9.45 -67.8 9.4 -67.85 9.25 -68.1 Q8.8 -68.5 8.0 -68.5 L8.0 -68.55 8.2 -68.85 8.4 -69.2 M14.3 -62.3 L14.5 -61.65 14.4 -62.05 14.3 -62.3 M-0.7 -74.2 L-1.0 -74.5 -3.2 -76.2 Q-4.15 -76.3 -4.95 -76.8 L-5.3 -77.1 -4.85 -77.0 Q-2.6 -76.5 -0.75 -75.0 L1.1 -73.05 Q0.2 -73.4 -0.7 -74.2 M-5.35 -58.35 L-5.05 -58.25 -5.1 -58.45 -5.2 -59.2 -5.4 -60.05 -5.95 -61.45 -5.95 -61.6 Q-5.9 -62.3 -5.25 -62.65 -4.5 -63.05 -3.65 -63.05 L-3.45 -63.1 -1.85 -63.7 -0.95 -63.55 -0.75 -63.5 Q-0.2 -63.35 0.15 -63.65 L0.2 -63.7 0.25 -63.6 0.05 -64.2 Q-0.55 -64.95 -0.65 -65.85 L-0.4 -65.8 Q-1.95 -66.3 -2.05 -68.15 -1.5 -67.05 -0.45 -66.45 L-0.25 -66.6 0.0 -66.55 0.0 -70.4 0.6 -67.55 Q0.75 -66.25 1.75 -65.4 L2.0 -65.15 2.05 -65.35 2.75 -68.45 Q2.45 -66.8 2.9 -65.1 L3.0 -64.35 3.0 -64.25 2.85 -63.65 2.85 -63.55 2.8 -63.45 2.05 -62.5 1.7 -62.2 1.1 -62.1 -1.45 -62.05 -4.45 -61.55 -4.25 -59.4 -3.95 -57.85 -3.9 -57.8 -3.85 -57.8 -3.9 -57.8 Q-4.55 -57.55 -5.05 -58.0 L-5.35 -58.35 M8.5 -47.7 L8.3 -47.15 7.9 -46.6 7.35 -46.25 7.25 -46.2 7.1 -46.15 6.85 -46.1 4.35 -45.5 Q1.45 -45.35 0.1 -47.7 L-1.9 -51.05 -1.95 -51.15 -2.45 -52.05 -2.0 -51.45 -1.15 -50.25 -0.2 -49.05 Q1.25 -47.4 3.0 -46.25 5.3 -46.4 7.25 -47.25 L7.35 -47.3 7.2 -48.15 7.05 -48.2 7.0 -48.2 6.9 -48.25 6.05 -48.25 5.25 -48.05 5.0 -47.95 4.55 -47.85 4.45 -47.85 4.45 -47.8 2.85 -48.05 1.3 -49.4 -0.4 -50.9 -0.4 -51.0 1.0 -50.15 2.6 -49.1 5.7 -49.05 6.5 -48.95 6.95 -48.65 7.05 -48.2 7.5 -48.25 Q8.2 -48.2 8.5 -47.7 M3.5 -42.8 L3.5 -43.15 5.9 -42.95 6.35 -43.0 6.4 -43.05 7.05 -43.4 7.3 -43.6 7.45 -43.9 7.6 -44.2 7.65 -44.3 7.7 -44.45 7.7 -44.5 7.8 -45.5 Q8.55 -45.4 8.4 -44.45 L8.25 -43.3 7.5 -42.35 6.75 -41.95 Q4.95 -41.5 3.5 -42.7 L3.5 -42.8 M15.15 -54.65 Q14.4 -54.6 14.5 -53.9 15.15 -52.9 16.0 -53.25 L15.15 -54.65 M18.05 -44.35 Q17.15 -44.5 16.5 -45.3 15.6 -46.35 14.5 -46.7 13.3 -48.1 13.0 -49.55 13.95 -48.95 14.7 -47.75 16.6 -46.6 18.0 -44.95 L18.55 -44.3 18.25 -44.3 18.05 -44.35 M18.9 -50.9 Q18.75 -50.35 18.15 -50.1 L17.4 -50.7 17.5 -51.4 17.75 -51.8 17.85 -51.9 18.9 -51.65 18.9 -50.9 M26.5 -56.05 Q26.45 -54.05 25.35 -52.65 L23.8 -53.3 Q22.9 -53.6 23.1 -54.45 L23.3 -57.6 27.05 -59.85 Q26.5 -58.05 26.5 -56.05 M34.8 -39.2 L36.15 -37.25 33.6 -37.55 32.7 -40.1 Q34.1 -40.2 34.8 -39.2 M20.5 -26.4 Q21.55 -27.2 20.7 -28.35 19.75 -29.7 19.55 -31.05 L19.55 -32.0 20.15 -32.0 Q20.85 -28.9 22.35 -26.15 23.35 -26.3 24.05 -25.7 L21.75 -24.3 21.85 -24.35 21.3 -25.25 20.5 -26.4 M14.7 -30.05 L14.65 -30.05 14.65 -30.1 14.7 -30.05 M-4.25 -35.9 L1.2 -36.9 Q1.95 -37.4 2.3 -38.25 L2.35 -38.4 2.4 -38.3 3.0 -37.1 Q3.3 -36.45 2.8 -35.7 L2.6 -33.4 2.0 -33.25 0.55 -33.1 Q-0.95 -33.2 -2.15 -34.15 L-2.5 -34.35 -4.5 -35.05 -5.05 -35.75 -5.35 -35.7 -4.55 -35.85 -4.6 -35.8 -4.25 -35.9 M2.4 -30.15 L2.35 -27.95 2.5 -27.95 3.55 -36.45 5.05 -36.15 5.5 -32.65 5.6 -32.15 5.6 -32.1 5.3 -29.8 5.55 -29.85 Q5.2 -28.5 3.85 -27.35 4.6 -27.3 5.05 -28.0 L5.9 -29.3 6.15 -29.2 6.85 -28.8 7.4 -28.1 7.0 -25.1 Q6.15 -22.85 4.15 -21.1 L4.2 -21.05 3.45 -20.7 Q2.3 -19.95 1.0 -19.95 L0.85 -20.15 0.65 -20.25 Q0.3 -21.2 1.15 -21.9 L1.25 -22.0 Q1.2 -21.15 1.3 -20.3 L1.4 -21.25 1.55 -22.2 1.55 -22.25 3.05 -23.7 3.7 -24.4 4.15 -25.5 3.95 -25.9 3.7 -26.5 3.6 -26.7 Q2.6 -26.8 2.0 -27.65 1.55 -28.35 1.85 -29.15 L2.4 -30.15 M-9.15 -27.55 Q-9.3 -25.15 -7.75 -22.75 -4.0 -19.25 1.0 -19.3 L1.05 -19.65 1.15 -19.65 3.15 -19.7 4.9 -18.1 Q0.3 -16.2 -4.7 -17.9 L-6.45 -18.1 Q-7.2 -19.8 -8.75 -20.95 -10.35 -22.15 -10.95 -24.0 L-12.1 -26.55 Q-10.95 -26.35 -9.75 -27.45 L-9.15 -27.55 M27.6 -16.15 L27.5 -15.65 Q26.65 -15.3 25.95 -15.65 L25.3 -15.9 25.9 -15.7 27.6 -16.15 M14.85 0.45 L12.45 -1.1 15.7 -7.65 Q15.45 -9.8 15.6 -11.85 L15.55 -12.65 18.15 -12.05 19.5 -9.3 Q19.7 -8.8 19.4 -8.4 17.5 -5.7 16.0 -2.75 15.25 -1.35 14.9 0.15 L14.85 0.45 M0.05 -9.9 L0.35 -9.7 2.75 -9.8 5.8 -11.95 6.8 -12.9 6.9 -12.4 Q7.65 -10.95 9.25 -10.5 10.85 -10.1 10.0 -8.1 9.3 -5.35 7.65 -2.9 L0.3 -4.05 0.05 -9.9 M-6.6 -14.45 L-6.55 -14.0 Q-6.05 -12.7 -4.5 -12.4 L-3.5 -10.4 -3.2 -9.65 Q-2.8 -8.7 -2.9 -7.6 L-3.15 -6.8 Q-3.95 -4.95 -6.0 -4.2 L-7.0 -3.45 -8.3 -3.3 Q-11.05 -8.5 -8.4 -13.75 -8.6 -14.55 -8.0 -14.8 L-6.6 -14.45 M-19.15 17.3 L-19.2 16.85 -19.1 17.45 -19.05 17.65 -19.25 17.4 -19.15 17.3 M-10.85 29.1 L-10.15 29.75 -9.9 29.95 -8.4 31.35 -6.95 32.25 -7.2 34.2 Q-7.4 35.7 -7.9 37.1 -11.05 34.9 -13.05 31.5 L-13.0 31.4 -10.95 29.0 -10.85 29.1 M-14.9 34.4 Q-12.8 37.8 -9.75 40.3 L-11.4 43.15 -11.55 43.8 Q-14.0 41.9 -15.8 39.5 L-14.55 39.15 Q-13.65 38.7 -13.8 37.75 -14.0 36.0 -16.0 36.1 L-16.35 36.2 -16.4 36.2 Q-15.35 35.5 -15.35 34.4 L-14.9 34.4 M-15.9 44.35 L-13.45 46.4 -13.0 46.7 Q-14.0 47.55 -14.6 48.8 -15.05 49.7 -15.15 50.75 L-15.0 50.85 -15.25 50.7 -15.7 50.3 -15.95 50.15 -16.75 49.25 Q-17.85 47.7 -18.45 46.15 L-18.45 45.9 -18.45 45.8 -16.95 45.8 Q-16.4 45.7 -16.2 45.2 L-15.9 44.35 M-8.55 24.95 L-8.7 24.8 -8.7 24.65 -8.55 24.95 M13.1 26.0 L13.65 25.55 13.35 30.55 12.4 31.6 Q10.75 33.35 8.8 34.55 L8.9 33.9 9.65 30.4 10.0 29.15 10.1 28.3 10.3 28.1 13.1 26.0 M12.55 35.8 Q13.0 35.5 13.4 35.35 14.55 34.8 14.8 38.1 L14.25 39.45 Q13.6 40.45 12.45 41.0 L10.15 42.1 10.1 42.15 10.0 41.75 Q9.45 40.5 9.3 39.1 L9.25 38.75 10.6 37.5 10.7 37.4 10.8 37.3 12.55 35.8 M16.05 42.35 L16.2 42.25 Q18.5 43.6 18.55 46.0 L18.4 46.25 Q16.85 48.35 14.6 49.2 L14.65 49.3 14.5 49.35 14.45 49.35 13.95 49.45 14.1 49.4 Q14.5 48.25 14.1 46.95 13.7 45.55 12.7 44.75 14.3 43.5 16.05 42.35" fill="#660000" fill-rule="evenodd" stroke="none"/>
    <path d="M12.9 -86.45 L13.0 -86.25 13.05 -86.1 12.55 -85.75 12.4 -85.9 12.45 -86.2 12.6 -86.5 12.9 -86.45 M-17.35 65.85 L-19.4 65.25 Q-19.35 65.1 -19.15 65.05 -18.2 65.3 -17.3 65.7 L-17.35 65.85 M-29.8 -0.65 L-29.9 -0.75 -29.85 -0.75 -29.8 -0.65 M-40.35 -9.65 L-40.4 -9.65 -40.8 -10.25 -41.3 -11.8 -41.4 -12.1 -41.4 -12.25 Q-40.55 -13.35 -39.15 -13.65 L-38.4 -12.4 -38.45 -13.65 -38.45 -13.7 -38.5 -13.95 Q-37.2 -13.4 -37.35 -12.0 L-37.65 -11.0 Q-38.05 -10.05 -39.1 -9.95 L-40.3 -9.7 -40.35 -9.65 M-39.35 -17.5 L-40.05 -20.6 -35.45 -20.85 -35.05 -20.5 Q-34.65 -20.05 -35.0 -19.5 -35.85 -18.3 -36.9 -17.8 L-37.25 -18.1 -38.7 -19.25 -38.8 -19.35 -38.8 -18.9 -37.35 -17.6 -39.35 -17.5 M-30.8 -22.05 L-31.1 -23.15 Q-31.45 -23.95 -31.1 -24.65 -28.9 -23.75 -26.5 -23.15 L-26.45 -23.15 -26.5 -23.05 Q-26.45 -22.55 -26.85 -22.2 -28.45 -20.8 -30.55 -21.9 L-30.8 -22.05 M-19.7 -16.05 L-20.1 -15.85 Q-18.5 -15.65 -16.8 -15.85 L-16.55 -15.85 -16.4 -15.65 Q-15.75 -14.7 -16.5 -13.85 -17.5 -12.75 -19.1 -12.85 -21.8 -13.0 -22.85 -10.55 -23.15 -9.9 -23.8 -9.8 -26.25 -9.5 -26.3 -11.35 L-25.9 -12.35 Q-24.6 -14.9 -21.95 -15.9 L-20.6 -16.1 -19.7 -16.05 M-19.45 6.25 L-19.5 6.35 -19.9 6.35 -20.0 6.25 -19.45 6.25 M21.8 -57.9 L22.1 -54.85 22.1 -54.8 22.15 -54.4 21.8 -54.5 21.25 -54.95 20.8 -55.2 18.05 -55.45 17.7 -55.4 17.6 -56.3 16.85 -57.65 16.75 -57.9 Q16.5 -58.45 15.95 -58.55 L15.85 -58.85 15.95 -58.9 16.55 -59.05 16.6 -59.1 17.25 -59.5 17.95 -59.6 18.05 -59.55 17.5 -61.2 17.25 -62.35 17.3 -62.45 17.65 -62.7 17.65 -62.75 18.1 -62.7 Q20.05 -60.8 21.1 -58.25 L21.8 -57.9 M27.1 -48.4 Q27.65 -46.8 27.55 -45.05 L26.95 -45.0 21.5 -44.2 19.3 -42.45 18.65 -42.0 Q18.0 -42.4 18.05 -43.55 L18.05 -44.35 18.25 -44.3 18.55 -44.3 18.0 -44.95 17.95 -45.85 Q17.9 -46.45 18.2 -46.95 18.85 -48.2 20.25 -48.7 20.9 -48.9 21.4 -49.25 24.45 -49.45 27.1 -48.4 M31.65 -39.1 Q32.7 -37.35 32.8 -35.15 32.95 -31.55 32.6 -28.0 32.35 -27.05 31.65 -26.65 30.4 -28.0 29.65 -29.55 28.8 -32.85 27.35 -35.85 L27.3 -36.45 Q28.0 -38.8 30.5 -39.1 L31.65 -39.1 M4.3 -37.75 L2.9 -38.75 2.65 -38.6 2.5 -38.6 Q2.45 -39.8 1.75 -40.55 2.1 -38.5 0.7 -37.25 -2.75 -37.4 -5.7 -36.5 L-5.85 -36.55 Q-7.25 -36.95 -8.55 -37.6 L-8.9 -37.75 -8.85 -37.8 Q-4.9 -39.0 -0.95 -39.65 L-0.8 -39.85 -1.4 -40.35 -1.45 -40.45 -1.55 -40.75 -1.55 -40.8 Q-1.6 -41.95 -0.8 -42.2 -0.15 -41.65 0.55 -41.75 L0.2 -42.2 0.65 -42.05 2.75 -41.05 4.05 -40.35 Q6.0 -40.4 7.2 -41.9 L7.5 -42.35 8.25 -43.3 8.4 -44.45 Q8.55 -45.4 7.8 -45.5 L7.7 -44.5 7.7 -44.45 7.65 -44.3 7.6 -44.2 7.45 -43.9 7.3 -43.6 7.05 -43.4 6.6 -43.1 6.4 -43.05 6.35 -43.0 5.9 -42.95 3.5 -43.15 3.5 -42.8 Q1.8 -43.0 0.35 -44.05 -3.05 -46.5 -4.2 -50.6 L-5.0 -53.35 Q-5.3 -54.45 -5.15 -55.6 L-4.9 -57.0 -4.5 -57.6 Q-2.7 -57.0 -1.6 -55.4 -0.25 -53.45 0.75 -51.3 L6.0 -49.2 5.7 -49.05 2.6 -49.1 1.0 -50.15 0.35 -50.75 -0.5 -51.35 Q-1.0 -51.7 -1.6 -51.75 L-2.0 -51.45 -2.45 -52.05 -1.95 -51.15 -1.95 -51.05 -1.85 -50.9 -1.75 -50.8 -1.9 -51.05 0.1 -47.7 Q1.45 -45.35 4.35 -45.5 L6.85 -46.1 7.1 -46.15 7.25 -46.2 7.35 -46.25 7.9 -46.6 8.3 -47.15 8.5 -47.7 10.0 -47.6 Q8.65 -48.3 7.7 -49.4 L6.95 -50.55 6.7 -50.95 5.35 -52.95 4.35 -54.1 3.9 -54.35 3.15 -54.75 Q2.0 -55.5 0.65 -55.95 L0.3 -56.1 0.1 -56.2 0.0 -56.2 -2.0 -57.05 -3.5 -57.65 -3.85 -57.8 -3.9 -57.8 -3.95 -57.85 -4.25 -59.4 -2.3 -58.9 -1.95 -58.75 -0.7 -58.45 0.65 -58.0 1.05 -57.85 3.65 -56.45 3.95 -56.3 4.4 -56.0 4.7 -55.75 4.7 -55.5 Q4.9 -54.8 5.5 -54.95 L5.55 -54.85 6.05 -54.3 6.0 -54.3 6.1 -54.35 6.55 -54.6 6.6 -54.65 8.35 -54.2 Q8.2 -54.85 8.3 -55.55 8.4 -56.65 9.5 -57.05 L9.7 -57.1 8.7 -58.05 8.3 -58.4 Q6.55 -59.6 4.7 -60.6 L2.55 -61.55 1.3 -61.95 1.1 -62.1 1.7 -62.2 2.05 -62.5 2.8 -63.45 2.85 -63.55 2.85 -63.65 2.95 -63.95 4.8 -63.0 4.7 -62.6 Q5.25 -62.05 6.0 -62.15 L6.1 -62.3 Q7.95 -61.5 9.55 -60.35 L10.45 -59.7 10.4 -59.55 10.35 -59.5 Q10.2 -58.8 10.7 -58.45 L11.35 -59.05 Q12.6 -59.95 14.55 -59.3 L15.15 -58.45 15.25 -57.7 Q14.75 -56.9 13.5 -57.05 12.2 -57.2 13.35 -56.2 14.85 -56.1 15.8 -57.0 16.25 -56.5 16.35 -55.75 L16.6 -54.45 Q15.85 -54.75 15.25 -55.45 L15.05 -55.45 Q14.5 -55.4 14.15 -55.05 L13.65 -54.4 13.7 -54.05 13.45 -54.05 Q12.95 -54.0 12.55 -53.65 L12.1 -53.2 10.75 -52.15 10.5 -52.05 Q9.6 -51.65 9.8 -50.7 L10.15 -49.7 10.25 -49.3 Q10.3 -49.0 10.5 -48.8 L10.65 -48.65 Q10.7 -46.35 11.2 -44.05 L11.25 -43.95 Q11.8 -43.3 12.55 -43.55 13.25 -43.8 13.95 -43.55 L14.1 -43.4 14.25 -43.15 14.4 -43.05 14.45 -43.0 14.55 -42.85 14.7 -42.7 Q15.85 -41.5 17.25 -40.85 L18.55 -40.45 18.7 -40.4 18.3 -38.6 Q18.2 -37.9 17.8 -37.6 L17.35 -37.7 16.8 -38.15 16.2 -38.4 16.15 -38.4 16.1 -38.45 16.0 -38.45 15.9 -37.9 15.2 -38.4 12.45 -40.75 Q11.95 -41.15 11.3 -41.25 10.5 -41.4 9.9 -41.8 L9.3 -40.35 Q8.85 -39.35 8.0 -38.55 6.55 -37.3 4.65 -37.7 L4.3 -37.75 M-2.7 -43.4 L-2.9 -43.4 Q-4.45 -43.65 -5.6 -42.2 -6.8 -40.85 -7.65 -42.45 -6.95 -43.4 -5.6 -43.85 -4.25 -44.3 -4.85 -45.9 L-7.95 -50.25 -12.75 -51.75 -13.45 -53.4 -12.75 -53.55 -12.2 -53.55 -12.1 -53.55 -11.65 -53.6 -9.55 -54.2 -9.15 -54.7 -8.5 -54.9 Q-7.35 -54.65 -6.7 -53.75 -6.35 -53.3 -6.3 -52.7 L-5.85 -50.05 -5.7 -49.7 -4.7 -47.05 Q-4.05 -45.4 -2.85 -44.1 L-2.7 -43.7 -2.7 -43.4 M-0.25 -77.5 L1.35 -76.15 5.05 -71.85 4.55 -71.15 Q4.1 -70.8 4.85 -70.5 L3.9 -69.75 3.45 -69.75 Q0.8 -70.05 -0.3 -72.75 L-0.7 -74.2 Q0.2 -73.4 1.1 -73.05 L-0.75 -75.0 -0.6 -76.85 -0.25 -77.5 M8.0 -68.5 Q8.8 -68.5 9.25 -68.1 L9.4 -67.85 9.45 -67.8 9.85 -67.05 9.85 -67.0 9.85 -66.95 9.85 -66.5 9.3 -66.5 8.3 -66.5 8.05 -66.5 Q7.35 -66.5 6.85 -66.1 6.6 -66.6 6.65 -67.45 L6.85 -68.05 Q7.0 -68.35 7.4 -68.5 L7.7 -68.5 7.95 -68.5 8.0 -68.5 M13.2 -62.85 L13.8 -60.75 13.8 -60.65 11.85 -60.35 11.4 -60.3 11.1 -60.2 10.8 -60.5 Q9.75 -61.7 10.85 -62.85 L11.45 -63.35 12.8 -63.45 13.2 -62.85 M20.5 -26.4 L21.3 -25.25 21.85 -24.35 21.75 -24.3 19.25 -24.1 14.7 -30.05 14.65 -30.1 Q14.8 -31.95 16.3 -32.55 18.55 -29.55 20.15 -26.15 L20.5 -26.4 M-0.2 -49.05 L-1.15 -50.25 -0.55 -49.6 -0.3 -49.25 -0.2 -49.05 M4.55 -47.85 L5.0 -47.95 5.25 -48.05 Q4.35 -47.5 3.35 -47.7 L2.7 -48.1 2.3 -48.35 1.8 -48.95 1.3 -49.4 2.85 -48.05 4.45 -47.8 4.55 -47.85 M2.6 -33.4 L2.45 -31.5 2.4 -30.15 1.85 -29.15 Q1.55 -28.35 2.0 -27.65 2.6 -26.8 3.6 -26.7 L3.7 -26.5 3.95 -25.9 4.15 -25.5 3.7 -24.4 3.05 -23.7 1.55 -22.25 1.85 -25.05 Q1.35 -23.5 1.25 -22.0 L1.15 -21.9 Q0.3 -21.2 0.65 -20.25 L0.2 -20.3 -1.65 -20.65 Q-4.75 -21.55 -7.2 -23.6 L-7.9 -25.3 -8.0 -25.5 -7.9 -25.35 Q-6.75 -25.5 -5.7 -26.2 L-4.6 -25.4 Q-2.4 -24.4 -1.5 -26.3 -1.3 -26.7 -1.65 -26.95 L-2.1 -27.2 -2.75 -27.3 -0.6 -27.2 Q-2.15 -28.15 -3.9 -28.8 -5.2 -29.3 -6.2 -30.25 L-6.2 -30.3 -5.05 -30.5 -5.05 -30.55 -4.25 -31.2 -4.0 -31.3 Q-3.25 -31.95 -2.95 -32.8 L-2.95 -32.95 -2.85 -33.3 -2.85 -33.65 -2.85 -34.0 Q-3.8 -34.35 -4.5 -35.05 L-2.5 -34.35 -2.15 -34.15 Q-0.95 -33.2 0.55 -33.1 L2.0 -33.25 2.6 -33.4 M-13.7 -28.8 Q-11.25 -31.0 -8.05 -31.05 -9.05 -29.3 -9.15 -27.55 L-9.75 -27.45 Q-10.95 -26.35 -12.1 -26.55 L-13.7 -28.8 M1.05 -19.65 L1.05 -19.7 1.15 -19.65 1.05 -19.65 M-8.4 -26.6 L-8.45 -26.65 -8.5 -26.9 Q-8.85 -27.75 -8.65 -28.55 L-8.6 -27.95 -8.5 -26.95 -8.4 -26.6 M-6.75 -30.85 L-6.85 -31.0 -6.9 -31.05 -6.9 -31.25 -6.75 -30.85 M20.65 -17.45 Q22.15 -18.3 24.15 -18.1 L28.65 -18.35 28.1 -17.05 27.6 -16.15 25.9 -15.7 25.3 -15.9 24.6 -15.9 24.5 -15.85 24.6 -15.75 24.85 -15.5 24.8 -15.5 21.45 -15.7 Q21.05 -15.8 20.9 -16.2 L20.65 -17.45 M27.3 -13.7 L29.15 -13.3 Q31.2 -12.6 33.45 -12.55 L34.95 -12.4 Q32.75 -11.2 30.05 -10.9 L29.15 -10.9 Q26.6 -11.1 27.25 -13.5 L27.3 -13.7 M26.4 -8.8 L26.3 -8.65 26.9 -8.5 Q27.75 -7.8 26.85 -6.45 L26.3 -5.45 Q25.55 -3.9 23.9 -4.05 22.05 -5.65 23.75 -7.8 24.25 -8.45 25.1 -8.75 L25.9 -8.95 26.4 -8.8 M0.05 -9.9 L0.0 -12.95 0.0 -13.45 3.3 -15.05 Q4.95 -15.95 6.9 -16.0 7.25 -15.05 6.9 -14.2 L6.9 -14.1 6.8 -13.7 6.8 -12.9 5.8 -11.95 2.75 -9.8 0.35 -9.7 0.05 -9.9 M-10.75 -50.2 Q-9.85 -49.9 -8.9 -49.25 L-7.55 -47.75 -6.05 -45.1 Q-7.95 -42.7 -10.3 -43.8 -12.7 -44.85 -15.0 -45.1 -17.3 -44.1 -18.85 -45.8 L-19.15 -46.1 -16.9 -46.7 -14.65 -47.2 Q-12.1 -47.9 -9.8 -46.8 -10.8 -48.4 -10.75 -50.2 M-0.3 -31.35 L-0.45 -31.5 -0.8 -31.55 -0.9 -31.45 -1.0 -31.35 -1.1 -31.0 -1.0 -30.75 -0.85 -30.65 -0.45 -30.65 -0.35 -30.7 Q-0.2 -30.8 -0.2 -31.05 L-0.2 -31.25 -0.3 -31.35 M-35.35 -16.05 L-35.3 -15.95 -35.4 -15.85 -35.45 -15.9 -35.35 -16.05 M-3.5 -22.95 L-2.85 -23.0 Q-1.8 -23.95 -3.15 -24.45 L-3.5 -24.3 Q-4.4 -23.65 -3.5 -22.95 M-1.65 -4.0 L-0.85 -4.05 -0.7 -4.3 -0.7 -4.05 -1.65 -4.0 M-21.1 49.85 L-20.95 49.7 -20.95 49.75 -19.0 52.55 -19.15 52.95 -20.0 54.6 Q-19.6 57.5 -21.85 58.65 L-22.0 58.75 -22.15 58.55 Q-22.75 56.45 -22.2 54.4 L-21.5 50.95 -21.4 50.15 -21.1 49.85 M-15.8 39.5 L-16.8 38.0 Q-17.5 36.9 -16.4 36.2 L-16.35 36.2 -16.0 36.1 Q-14.0 36.0 -13.8 37.75 -13.65 38.7 -14.55 39.15 L-15.8 39.5 M-17.65 42.3 L-17.55 42.1 -17.35 42.45 -16.65 43.45 -15.9 44.35 -16.2 45.2 Q-16.4 45.7 -16.95 45.8 L-18.45 45.8 Q-18.4 43.9 -17.65 42.3 M-13.0 46.7 L-12.85 46.45 -12.8 46.5 -13.0 46.7 M-10.85 29.1 L-10.95 29.0 -10.85 29.1 M-18.05 48.75 L-18.4 48.25 -18.45 48.05 -18.05 48.8 -18.05 48.75 M10.1 28.3 L10.0 29.15 9.65 30.4 8.9 33.9 8.8 34.55 8.7 34.6 8.15 34.9 8.1 34.9 7.9 34.8 7.3 34.6 7.2 34.55 7.0 34.5 Q6.9 32.25 7.75 30.35 L7.75 30.2 8.2 28.7 8.7 28.95 9.05 29.0 9.85 28.45 9.9 28.4 10.0 28.35 10.1 28.3 M7.95 39.2 L8.3 39.1 8.4 39.05 8.35 38.8 8.45 39.25 9.1 38.85 9.25 38.75 9.3 39.1 Q9.45 40.5 10.0 41.75 L10.1 42.15 10.15 42.1 9.85 42.25 9.9 42.35 9.8 42.35 9.25 42.7 9.05 42.85 8.9 43.05 8.8 42.85 8.6 42.55 7.55 40.15 7.3 39.2 7.95 39.2 M11.4 45.45 L12.0 45.25 12.0 45.3 12.15 45.2 12.2 45.15 12.7 44.75 Q13.7 45.55 14.1 46.95 14.5 48.25 14.1 49.4 L13.95 49.45 13.8 49.45 13.4 49.55 13.4 49.5 11.5 46.55 10.75 45.55 11.0 45.5 11.4 45.45 M16.2 53.05 L16.1 53.85 16.0 58.95 15.7 60.2 15.4 60.6 Q14.75 62.5 13.5 64.2 L12.25 65.9 Q10.15 69.1 8.75 72.65 L7.35 76.2 6.35 78.65 6.2 79.0 5.2 78.95 4.8 78.95 4.8 78.65 Q8.65 69.95 13.75 61.8 L14.5 60.6 14.7 54.4 14.55 53.6 14.65 53.55 15.4 53.4 15.45 53.35 15.6 53.3 15.7 53.25 15.8 53.35 Q15.85 53.25 15.95 53.25 L16.2 53.05" fill="#990000" fill-rule="evenodd" stroke="none"/>
    <path d="M12.35 -21.5 L11.8 -20.35 10.85 -20.6 10.6 -20.55 11.3 -22.05 Q11.45 -21.75 11.9 -21.6 L12.35 -21.5 M13.4 -23.45 L13.2 -23.15 Q12.75 -23.55 12.1 -23.4 L12.2 -23.55 13.4 -23.45 M11.5 -18.4 L11.25 -18.55 11.05 -18.25 10.65 -17.1 Q10.4 -18.0 9.35 -18.1 8.7 -18.05 8.35 -17.55 8.8 -18.35 10.0 -18.65 L11.5 -18.4 M10.65 -16.3 L10.7 -15.8 10.75 -15.7 Q10.85 -15.25 11.1 -14.75 L11.1 -14.7 11.6 -13.8 11.3 -13.7 Q10.45 -13.4 9.75 -12.85 L8.9 -11.85 8.85 -11.6 Q9.15 -11.35 9.55 -11.25 8.55 -11.4 7.75 -13.1 L8.05 -16.25 8.25 -15.85 Q8.45 -15.6 8.75 -15.5 9.7 -15.3 10.4 -15.95 L10.65 -16.3 M13.05 -11.45 L13.1 -11.25 13.25 -10.85 13.35 -10.65 13.05 -10.7 12.55 -10.7 Q11.8 -10.7 11.45 -10.3 L11.4 -10.95 Q12.3 -11.5 13.05 -11.45 M13.3 -8.35 L12.9 -7.85 13.2 -7.6 13.25 -7.5 13.3 -7.45 Q13.0 -6.05 11.8 -5.2 L11.75 -5.2 11.5 -4.6 11.05 -3.1 9.75 -3.4 9.25 -3.25 Q9.55 -4.95 10.55 -6.65 L11.25 -8.6 Q12.1 -7.75 13.2 -8.35 L13.3 -8.35 M-7.9 -0.3 L-8.95 0.05 -9.05 0.05 -9.15 0.1 -10.3 0.55 Q-10.3 -0.6 -10.9 -1.2 L-9.8 -1.65 Q-8.55 -1.5 -7.9 -0.3 M-15.85 5.4 L-16.25 5.95 -16.5 6.4 -16.6 6.6 -16.8 7.55 -16.8 8.15 -16.7 8.95 -16.6 9.4 -16.7 9.6 -18.05 8.2 -18.5 7.15 -18.5 7.1 -18.35 6.6 -17.35 4.25 -17.5 4.65 -17.35 4.75 Q-16.6 5.25 -15.85 5.4 M13.9 11.1 Q12.95 10.5 11.85 10.75 L11.3 10.95 11.8 10.75 11.8 10.7 Q11.9 9.75 11.6 9.15 L12.15 8.65 12.1 8.6 12.05 8.6 11.95 8.5 12.5 8.2 12.7 8.2 13.15 8.5 Q13.8 8.95 13.9 9.8 L13.9 11.1 M6.3 16.2 L5.9 17.7 5.95 18.7 6.0 18.95 4.6 18.7 3.8 18.3 Q3.9 17.1 4.45 16.0 L4.85 15.35 4.95 15.5 Q5.5 16.25 6.3 16.2 M8.05 43.4 L10.7 47.2 10.25 46.6 9.9 46.6 9.75 46.65 Q9.2 46.95 9.1 47.5 L8.0 45.9 7.0 44.0 7.3 43.9 7.4 43.8 7.75 43.7 8.05 43.4 M13.4 53.7 L13.5 54.35 13.65 55.2 Q13.9 57.3 13.7 59.45 L13.65 59.6 13.45 60.8 13.3 61.05 12.8 61.05 12.8 61.1 12.05 61.35 Q10.95 62.0 10.1 63.05 L9.55 63.75 10.65 61.25 11.35 59.25 Q11.7 57.7 11.55 55.95 L11.2 51.95 11.3 52.4 Q11.65 54.45 13.5 54.25 L13.4 53.7 M-10.4 52.8 Q-10.65 55.25 -10.1 57.95 L-7.6 63.25 -8.85 63.0 -9.45 63.6 -9.5 63.8 -12.45 59.75 -12.95 53.9 -12.9 51.7 -12.95 52.4 Q-12.3 53.35 -10.45 52.85 L-10.4 52.8 M-9.25 13.65 Q-10.35 12.4 -11.9 11.8 L-12.0 11.75 Q-12.0 10.8 -12.3 10.15 -9.95 10.45 -8.3 12.35 L-8.0 12.0 -7.9 12.05 -7.7 12.25 -7.5 12.45 -7.45 12.5 Q-7.65 13.65 -8.55 14.5 L-9.25 13.65 M-15.15 13.55 L-15.3 15.85 -15.35 15.85 -15.6 15.35 Q-16.0 14.5 -16.0 13.65 L-15.2 14.1 -15.15 13.55 M-18.7 -21.85 L-19.35 -22.3 Q-20.25 -23.55 -19.8 -25.0 L-19.2 -26.9 -19.2 -26.85 Q-19.2 -25.65 -18.05 -25.5 L-17.5 -25.5 -17.5 -24.55 -17.35 -23.9 -17.45 -24.05 -18.6 -23.1 -18.85 -22.6 Q-18.95 -22.05 -18.7 -21.85 M-18.9 -27.7 L-18.85 -27.8 Q-18.1 -28.6 -16.95 -28.75 L-17.0 -28.55 -17.05 -28.2 -17.05 -27.8 -18.15 -28.1 -18.9 -27.7 M-14.75 -20.55 L-14.5 -20.25 -13.85 -19.35 -13.8 -19.25 -12.7 -17.6 -12.9 -17.6 -13.6 -17.1 -14.7 -18.85 Q-15.5 -20.25 -17.0 -21.1 -16.75 -22.35 -15.5 -22.75 L-15.75 -22.3 Q-16.4 -22.15 -16.35 -21.4 -16.35 -20.45 -15.4 -20.4 L-14.75 -20.55 M-10.55 -15.55 L-10.6 -15.5 -11.0 -14.4 -11.0 -14.3 Q-11.3 -14.85 -12.2 -14.8 L-12.7 -14.65 -12.65 -14.85 Q-11.95 -15.55 -10.9 -15.6 L-10.55 -15.55 M-11.55 -12.6 L-11.75 -12.0 -11.9 -11.6 -12.05 -11.05 -13.3 -11.3 -13.6 -11.25 -14.2 -11.15 -13.2 -13.4 -12.8 -12.85 Q-12.1 -12.4 -11.55 -12.6 M-14.9 -9.7 L-14.8 -9.6 -14.3 -9.75 -15.0 -9.55 -14.9 -9.7 M-13.15 -8.35 L-13.7 -8.45 Q-15.05 -8.3 -15.2 -7.0 -15.3 -6.45 -14.85 -6.1 L-13.2 -6.0 -12.6 -6.65 -12.55 -6.45 -12.15 -5.55 -12.1 -5.25 -12.0 -4.95 -11.4 -3.75 -12.0 -3.55 -13.3 -3.05 -13.8 -2.65 -13.95 -3.0 -15.1 -5.95 Q-15.8 -7.45 -14.35 -8.65 L-13.25 -9.0 -13.25 -8.95 -13.15 -8.4 -13.15 -8.35 M-14.05 15.5 Q-14.35 14.05 -12.95 13.35 L-12.25 13.45 -11.55 13.6 -11.55 13.65 Q-11.35 13.95 -11.3 14.5 -11.25 15.35 -12.0 15.8 L-12.15 15.9 -14.0 15.7 -14.05 15.5 M-27.65 27.95 L-27.6 27.95 -25.2 26.1 -25.15 26.1 -24.95 26.15 -24.6 26.8 -24.7 26.85 Q-26.85 28.65 -25.3 30.9 L-25.8 30.35 -27.35 28.6 -27.65 27.95 M-18.9 30.5 L-18.3 29.55 -17.75 29.25 -17.5 29.2 -17.45 29.2 -18.1 30.4 -18.15 30.85 -17.8 31.1 Q-18.3 30.75 -18.8 30.55 L-18.9 30.5 M-17.9 27.05 Q-17.45 24.6 -17.3 22.0 L-17.25 21.4 Q-16.2 22.6 -14.5 21.7 -13.5 21.2 -12.9 20.3 -12.95 21.1 -13.35 21.9 L-13.55 22.55 Q-14.1 25.6 -16.8 27.05 L-17.6 27.15 -17.9 27.05 M-34.8 24.75 Q-34.75 25.25 -34.3 25.5 -33.9 25.7 -33.95 26.3 -35.55 27.1 -36.8 28.2 L-36.9 27.8 Q-37.45 26.25 -38.55 25.45 L-38.2 25.3 -36.55 24.8 -36.2 24.7 -36.2 24.4 -34.8 24.75 M-39.1 30.85 L-39.3 31.15 -39.35 31.25 -39.6 31.6 -40.0 32.35 -40.6 32.35 -44.4 32.0 -44.3 31.1 -44.25 30.65 -44.2 30.55 -44.2 30.35 -42.85 28.55 Q-42.25 29.65 -40.8 30.4 L-39.1 30.85 M-36.25 19.25 L-36.35 19.55 -36.85 21.6 -36.9 21.75 -37.2 21.95 -37.85 22.05 -38.0 22.0 -37.8 20.95 Q-37.55 19.65 -36.35 19.2 L-36.25 19.25 M-33.1 21.9 L-33.15 21.8 Q-32.45 20.5 -31.3 19.55 -30.1 19.65 -30.0 20.6 -31.1 21.45 -31.7 22.7 -32.65 22.75 -33.1 21.9 M-29.15 25.8 Q-28.35 25.6 -27.8 24.95 L-27.4 24.55 Q-26.2 23.7 -26.35 22.25 L-26.2 22.15 Q-25.8 22.3 -25.65 22.85 -25.55 23.1 -25.6 23.3 -25.7 24.15 -26.25 24.8 L-27.35 25.7 Q-27.9 26.1 -28.55 26.05 L-29.15 25.8 M-24.05 32.2 Q-22.85 33.0 -21.3 32.75 L-21.05 32.25 -21.35 32.85 -21.6 33.0 Q-22.9 33.2 -23.9 32.3 L-24.05 32.2 M46.15 12.8 L46.25 12.8 46.35 12.8 47.75 13.05 48.9 13.65 48.9 13.7 48.85 14.1 Q48.75 14.85 48.05 15.1 L47.65 14.6 46.5 13.6 46.1 12.95 46.15 12.8 M45.8 14.25 L45.1 15.4 Q44.1 16.25 42.75 16.35 41.9 15.35 40.8 14.6 L40.65 14.5 41.25 13.75 41.35 14.05 Q42.45 16.25 44.8 14.95 L45.3 13.8 45.35 13.85 45.8 14.25 M42.5 17.75 L43.1 19.05 Q43.0 19.75 43.3 20.25 L43.75 20.85 43.9 20.8 43.95 20.75 43.8 21.45 43.35 21.55 44.95 21.2 46.8 21.3 46.8 21.4 46.3 21.5 47.95 21.65 47.9 21.75 48.95 21.9 48.95 21.85 Q51.1 22.35 52.95 23.55 L56.5 26.0 58.85 28.45 60.35 30.25 61.8 32.6 61.85 33.05 55.5 27.6 Q52.5 25.0 48.65 24.45 L48.2 24.4 44.5 24.6 44.0 24.1 43.75 24.8 Q43.7 25.35 44.0 25.9 L47.6 33.8 Q48.45 34.7 49.4 34.55 L48.25 32.75 49.55 34.1 50.25 34.65 Q51.15 35.15 51.85 35.85 49.15 35.95 46.5 34.85 44.45 32.6 43.5 29.95 L43.35 29.65 42.05 25.95 41.9 25.45 41.8 24.45 42.05 24.6 41.25 23.9 40.65 23.95 39.05 23.4 Q37.55 23.05 36.7 21.75 L36.7 21.65 36.6 20.15 Q37.15 20.9 38.25 21.3 L40.85 21.1 40.25 21.05 41.15 21.0 41.15 20.8 41.6 20.15 42.4 18.05 42.5 17.75 M8.1 16.1 Q8.45 15.2 9.05 14.5 L9.1 15.3 Q9.35 16.15 9.85 16.5 L9.75 16.65 Q8.9 16.6 8.1 16.1 M13.15 16.85 L13.55 17.3 13.2 17.65 Q11.5 18.3 11.3 16.65 12.3 16.15 13.15 16.85 M14.9 19.25 L15.1 19.3 14.95 19.6 Q14.4 20.75 14.6 21.7 L13.0 20.5 12.55 19.65 12.5 19.3 12.75 19.25 14.8 19.25 14.9 19.25 M22.9 23.0 L25.95 24.9 Q27.95 26.0 29.55 27.8 L29.25 28.45 28.35 29.35 Q26.4 29.25 24.7 28.15 L21.75 26.2 Q22.4 25.85 22.7 25.05 23.15 23.85 22.9 23.0 M32.4 29.15 L32.65 28.2 34.1 28.95 34.0 29.05 33.65 29.2 32.4 29.15 M35.3 22.8 L35.8 22.05 36.45 22.95 37.25 23.9 37.45 24.1 36.7 24.95 36.45 25.25 36.5 25.15 36.25 24.15 Q35.9 23.25 35.3 22.8 M29.55 31.95 L29.55 31.2 29.65 30.7 29.7 30.65 29.7 30.55 Q30.05 29.95 30.6 29.8 30.4 30.95 30.7 31.95 29.95 32.15 29.55 31.95" fill="#999966" fill-rule="evenodd" stroke="none"/>
    <path d="M12.35 -21.5 Q13.1 -21.45 13.45 -22.2 13.6 -22.6 13.35 -22.95 L13.2 -23.15 13.4 -23.45 14.1 -22.55 12.8 -19.85 Q12.4 -18.9 11.45 -19.05 L10.25 -19.55 10.6 -20.55 10.85 -20.6 11.8 -20.35 12.35 -21.5 M11.5 -18.4 L11.75 -18.25 11.8 -18.2 Q11.2 -16.85 11.8 -15.55 12.5 -14.6 13.7 -14.0 14.8 -13.45 14.45 -11.95 13.7 -12.4 12.95 -12.45 11.9 -12.5 10.85 -11.7 L10.05 -11.3 9.55 -11.25 Q9.15 -11.35 8.85 -11.6 L8.9 -11.85 9.75 -12.85 Q10.45 -13.4 11.3 -13.7 L11.6 -13.8 11.1 -14.7 11.1 -14.75 Q10.85 -15.25 10.75 -15.7 L10.7 -15.8 10.65 -16.3 10.7 -16.75 10.65 -17.1 11.05 -18.25 11.25 -18.55 11.5 -18.4 M13.05 -11.45 Q14.05 -11.35 14.7 -10.1 15.1 -7.75 14.05 -5.85 L11.85 -2.0 10.75 -2.1 Q9.95 -2.3 9.15 -2.65 L9.25 -3.25 9.75 -3.4 11.05 -3.1 11.5 -4.6 11.75 -5.2 11.8 -5.2 Q13.0 -6.05 13.3 -7.45 L13.25 -7.5 13.2 -7.6 12.9 -7.85 13.3 -8.35 Q13.85 -8.75 14.0 -9.4 14.25 -10.4 13.35 -10.65 L13.25 -10.85 13.1 -11.25 13.05 -11.45 M-9.8 -1.65 Q-6.8 -2.8 -3.2 -2.9 4.95 -3.1 11.7 -0.3 L12.0 -0.2 12.75 0.2 13.4 0.7 8.4 -0.1 -0.65 -0.9 -7.9 -0.3 Q-8.55 -1.5 -9.8 -1.65 M16.75 10.05 L17.05 11.25 16.7 14.8 16.85 14.9 16.6 15.3 16.6 15.35 16.3 15.9 15.25 17.45 13.95 15.75 Q14.75 13.75 14.7 11.75 L13.9 11.1 13.9 9.8 Q13.8 8.95 13.15 8.5 L12.7 8.2 Q14.9 8.0 16.4 9.55 L16.75 10.05 M6.0 18.95 Q6.3 19.8 7.25 20.35 L9.6 20.25 8.95 21.0 9.1 21.1 9.45 21.7 9.45 22.35 9.5 22.35 9.5 22.4 9.45 22.4 Q7.65 27.0 6.35 32.15 L6.15 32.85 6.15 32.9 Q5.15 37.65 7.35 42.3 L8.05 43.4 7.75 43.7 7.4 43.8 7.3 43.9 7.0 44.0 6.9 44.0 Q6.3 43.75 5.85 43.15 5.15 42.15 4.95 40.9 L4.5 37.75 4.6 36.7 Q4.55 35.4 4.65 34.1 L4.8 33.65 4.85 32.95 4.95 32.7 Q5.2 30.7 5.7 28.8 L6.55 26.15 Q6.75 25.1 7.25 24.2 L7.45 23.8 8.05 22.9 8.1 22.85 8.1 22.8 9.0 22.5 9.4 22.4 9.4 22.35 Q9.45 21.4 8.65 21.2 7.75 21.8 6.5 21.85 L5.95 21.8 5.9 21.8 Q4.45 21.55 3.75 20.1 3.65 19.15 3.8 18.3 L4.6 18.7 6.0 18.95 M13.3 61.05 Q8.6 68.7 4.5 76.75 L5.1 74.05 5.15 74.0 5.35 73.15 9.55 63.75 10.1 63.05 Q10.95 62.0 12.05 61.35 L12.8 61.1 12.8 61.05 13.3 61.05 M-5.8 23.1 L-6.6 23.05 -7.6 22.7 -8.05 22.55 -8.1 22.5 -8.6 22.35 Q-9.4 21.95 -9.05 21.3 -7.45 21.25 -6.65 19.8 -7.0 17.25 -8.3 14.9 L-9.25 13.65 -8.55 14.5 Q-7.65 13.65 -7.45 12.5 L-7.15 12.8 -5.85 14.3 -5.15 15.4 -5.3 15.45 Q-5.6 15.45 -5.75 15.75 L-4.75 18.9 Q-4.3 20.5 -4.85 22.15 -5.25 22.9 -5.8 23.1 M-8.05 23.45 L-7.7 23.9 -6.05 24.3 -5.95 24.4 -5.5 25.15 -5.4 25.4 -4.95 26.35 Q-4.5 26.9 -4.35 27.7 L-4.1 28.7 -3.45 31.65 Q-3.05 33.55 -3.3 35.55 -3.6 37.8 -4.45 39.9 -5.0 41.15 -5.9 42.05 L-6.15 42.5 -6.55 42.75 -6.9 42.8 -7.45 42.6 -7.05 42.0 Q-7.05 41.15 -6.55 40.4 L-6.25 39.85 Q-5.4 37.8 -4.95 35.65 L-4.75 34.35 -4.8 32.7 -5.1 31.2 -5.4 29.5 -5.45 29.15 -7.95 23.85 -8.1 23.5 -8.05 23.45 M-7.6 63.25 L-7.55 63.25 -7.15 64.15 -6.4 65.65 -6.0 66.4 -5.3 67.85 -4.2 70.35 Q-3.65 71.95 -3.25 73.65 L-3.3 73.65 -3.2 74.1 -3.15 74.25 -3.05 74.85 -2.75 78.05 -2.9 78.1 -4.5 73.45 Q-5.65 70.55 -7.1 67.8 L-7.3 67.45 -9.5 63.8 -9.45 63.6 -8.85 63.0 -7.6 63.25 M-15.6 15.35 L-15.7 15.35 -16.85 15.55 -17.35 15.25 -17.45 15.05 -17.5 15.05 -17.55 14.9 -17.6 14.85 -17.8 14.4 Q-18.8 13.55 -19.35 12.35 -19.25 9.6 -18.5 7.15 L-18.05 8.2 -16.7 9.6 -16.35 9.8 -16.0 10.25 -15.25 10.95 -15.85 11.9 -15.9 12.05 -16.0 12.85 -16.05 13.65 -16.0 13.65 Q-16.0 14.5 -15.6 15.35 M-16.95 -28.75 L-15.3 -28.7 Q-15.65 -27.2 -15.05 -25.3 -14.4 -23.45 -16.6 -23.35 L-16.85 -23.1 -17.9 -22.05 -18.0 -21.95 -18.15 -21.85 -18.7 -21.85 Q-18.95 -22.05 -18.85 -22.6 L-18.6 -23.1 -17.45 -24.05 -17.35 -23.9 -17.5 -24.55 -17.5 -25.5 -16.9 -26.0 Q-16.65 -26.35 -16.65 -26.8 -16.7 -27.5 -17.05 -27.8 L-17.05 -28.2 -17.0 -28.55 -16.95 -28.75 M-14.75 -20.55 Q-14.6 -20.7 -14.55 -21.0 -14.35 -22.1 -15.5 -22.35 L-15.75 -22.3 -15.5 -22.75 -15.45 -22.75 -15.2 -22.85 Q-13.85 -21.75 -12.85 -19.85 L-11.2 -18.5 Q-10.4 -17.8 -10.45 -16.65 L-12.1 -16.45 -12.85 -16.15 -13.6 -17.1 -12.9 -17.6 -12.7 -17.6 -13.8 -19.25 -13.85 -19.35 -14.5 -20.25 -14.75 -20.55 M-11.0 -14.3 L-11.0 -14.4 -10.6 -15.5 -10.55 -15.55 Q-9.85 -15.45 -9.65 -14.55 -9.55 -13.15 -10.25 -12.05 -11.0 -10.95 -11.4 -9.65 L-12.35 -9.85 -12.7 -9.85 -12.85 -9.85 -14.3 -9.75 -14.8 -9.6 -14.9 -9.7 -14.55 -10.4 -14.25 -11.15 -14.2 -11.15 -13.6 -11.25 -13.3 -11.3 -12.05 -11.05 -11.9 -11.6 -11.75 -12.0 -11.55 -12.6 -11.0 -13.15 -10.9 -13.6 -11.0 -14.3 M-13.15 -8.35 L-13.15 -8.4 -13.25 -8.95 -13.25 -9.0 Q-11.85 -9.15 -11.3 -7.8 L-9.9 -4.35 -9.8 -4.2 -9.8 -4.1 -9.75 -4.05 -9.7 -3.9 -9.7 -3.8 -9.7 -3.65 Q-9.65 -3.15 -10.05 -2.8 -10.35 -2.55 -10.85 -2.45 -11.7 -2.0 -12.65 -1.85 -13.45 -1.75 -13.8 -2.65 L-13.3 -3.05 -12.0 -3.55 -11.4 -3.75 -12.0 -4.95 -12.1 -5.25 -12.15 -5.55 -12.55 -6.45 -12.6 -6.65 -12.5 -7.1 Q-12.35 -8.15 -13.15 -8.35 M-0.1 1.75 Q0.0 7.05 0.75 12.75 0.3 14.05 -0.55 14.85 L-2.05 12.3 -0.75 1.0 Q-0.2 1.05 -0.1 1.75 M-2.75 2.65 L-3.75 4.25 Q-4.7 7.25 -5.25 10.4 -5.6 10.85 -6.1 10.8 L-6.75 9.75 Q-5.5 4.9 -2.6 1.0 -2.15 1.8 -2.75 2.65 M-9.9 6.8 Q-8.25 3.45 -5.15 1.25 L-5.0 1.45 Q-7.8 4.3 -9.0 7.85 -10.2 7.7 -9.9 6.8 M-11.85 6.05 Q-11.05 3.8 -8.65 2.3 L-11.2 6.05 -11.85 6.05 M-11.55 13.65 Q-9.75 14.2 -8.75 16.15 L-8.85 17.4 -9.0 17.75 -9.05 17.9 -9.1 17.95 -11.2 16.35 Q-11.6 16.05 -12.05 15.9 L-12.0 15.8 Q-11.25 15.35 -11.3 14.5 -11.35 13.95 -11.55 13.65 M-9.9 19.45 Q-9.8 20.15 -10.3 20.8 -11.2 21.95 -11.4 23.25 L-12.25 27.2 Q-12.6 29.15 -13.85 30.7 L-13.95 30.75 Q-14.7 29.2 -16.15 28.35 L-18.05 28.15 -18.1 28.15 -17.9 27.05 -17.6 27.15 -16.8 27.05 Q-14.1 25.6 -13.55 22.55 L-13.35 21.9 Q-12.95 21.1 -12.9 20.3 L-13.05 18.7 Q-13.4 17.4 -14.6 17.2 L-14.25 16.95 -14.1 16.95 Q-11.9 16.65 -10.5 18.35 L-9.9 19.45 M-15.05 32.0 L-15.2 32.35 Q-15.55 32.85 -15.45 33.65 L-15.9 33.75 Q-16.35 32.25 -17.45 31.35 L-17.2 31.2 Q-16.15 30.55 -16.3 29.4 -15.4 29.85 -15.05 30.95 -14.9 31.55 -15.05 32.0 M-16.9 34.65 Q-17.0 35.7 -17.85 36.5 L-18.05 34.75 Q-18.35 33.15 -19.05 31.7 -17.7 31.9 -17.1 33.2 L-17.1 33.3 -16.9 34.45 -16.9 34.65 M-19.2 37.1 L-19.4 37.65 Q-23.15 36.65 -26.2 34.0 L-28.75 31.5 Q-28.25 30.7 -28.3 30.0 -28.8 30.2 -29.15 30.55 L-29.3 30.75 -29.4 30.85 -29.9 32.35 -29.85 33.1 Q-29.6 35.3 -29.95 37.2 -31.95 40.6 -35.3 42.8 L-35.4 42.7 -34.65 41.3 Q-33.95 39.8 -33.7 38.05 -33.35 35.25 -34.55 32.85 L-34.55 32.7 Q-34.6 31.6 -33.85 31.0 L-32.15 29.75 Q-31.6 32.4 -31.75 35.4 L-31.45 35.7 -31.1 35.4 -31.1 33.65 -31.1 33.45 -31.0 28.7 -30.85 28.45 -30.8 28.4 -30.8 28.35 -30.1 27.9 -29.4 27.95 Q-28.5 28.25 -27.65 27.95 L-27.35 28.6 -25.8 30.35 -25.3 30.9 -25.3 30.95 -24.7 31.55 -24.05 32.15 -24.05 32.2 -23.9 32.3 Q-22.9 33.2 -21.6 33.0 L-21.35 32.85 -21.05 32.25 -21.0 31.75 -21.0 31.6 -21.0 31.45 -21.0 31.35 -21.0 31.1 -20.65 31.4 -19.95 32.1 Q-18.2 34.15 -19.2 37.1 M-16.8 15.0 L-16.85 15.0 -16.8 15.05 -16.8 15.0 M-34.65 18.65 L-34.0 18.15 -31.25 18.0 -31.35 18.15 -33.0 20.0 Q-33.15 19.35 -33.7 19.05 L-34.55 18.75 -34.65 18.65 M-34.4 21.95 Q-35.0 23.2 -34.8 24.7 L-34.8 24.75 -36.2 24.4 -36.15 22.6 -36.1 22.55 -36.0 21.8 -35.8 21.05 Q-35.4 21.95 -34.4 21.95 M-40.0 32.4 Q-41.2 34.75 -41.35 37.4 L-41.4 37.8 -41.35 37.75 Q-40.3 34.35 -38.1 31.15 L-36.8 29.5 -36.55 29.25 -36.45 29.15 -36.4 29.1 -34.9 27.9 -34.85 27.9 -34.8 27.8 -34.5 27.65 -34.0 27.3 Q-33.2 26.85 -32.25 26.5 L-31.4 27.35 -35.25 31.35 -37.35 33.35 Q-38.4 34.85 -39.0 36.5 L-39.15 36.85 Q-40.4 40.3 -39.9 44.4 L-41.15 43.25 -41.95 41.95 Q-44.85 37.4 -44.4 32.0 L-40.6 32.35 -40.0 32.35 -40.0 32.4 M-36.9 21.75 L-37.1 23.65 -38.15 23.65 -38.1 23.1 -38.0 22.0 -37.85 22.05 -37.2 21.95 -36.9 21.75 M-33.15 21.85 L-33.1 21.9 Q-32.65 22.75 -31.7 22.7 -31.1 21.45 -30.0 20.6 -30.1 19.65 -31.3 19.55 L-29.75 18.55 Q-29.25 18.6 -28.8 18.85 -28.35 19.05 -27.95 19.45 -30.6 20.5 -31.7 22.7 -32.25 23.75 -32.4 25.1 -33.4 25.0 -33.9 24.05 L-33.6 22.95 -33.45 22.5 -33.4 22.35 -33.15 21.85 M-26.85 20.25 Q-25.55 20.45 -25.1 21.85 -24.75 22.85 -25.3 23.65 -25.8 24.35 -25.85 25.2 L-25.85 25.45 Q-27.55 27.4 -30.2 26.8 L-31.15 25.7 Q-31.45 25.0 -31.2 24.1 L-31.05 23.65 Q-30.1 21.05 -27.3 20.2 L-27.1 20.2 -26.9 20.25 -26.85 20.25 M-26.35 22.1 L-26.35 22.05 -26.8 22.05 -26.95 22.05 -27.3 22.15 -27.3 22.05 Q-28.1 22.2 -28.55 22.95 L-29.05 23.6 -29.1 23.65 Q-29.45 24.15 -29.4 24.75 L-29.25 25.55 -29.15 25.8 -28.55 26.05 Q-27.9 26.1 -27.35 25.7 L-26.25 24.8 Q-25.7 24.15 -25.6 23.3 -25.55 23.1 -25.65 22.85 -25.8 22.3 -26.2 22.15 L-26.35 22.1 M-1.15 43.75 L-0.85 44.3 -1.8 46.7 -2.15 47.5 Q-1.55 51.85 -1.8 56.15 -1.8 56.8 -2.5 56.9 -4.95 57.15 -5.15 54.55 L-5.65 50.4 Q-5.9 48.85 -5.5 47.4 -5.25 46.4 -4.25 46.25 L-2.65 44.0 -2.35 43.6 -2.1 43.5 -2.1 43.45 -1.35 43.55 -1.15 43.75 M48.9 13.7 L49.75 14.55 50.0 14.9 50.6 17.3 Q49.1 18.0 48.8 16.75 48.55 15.75 48.05 15.1 48.75 14.85 48.85 14.1 L48.9 13.7 M45.8 14.25 L45.8 14.2 46.25 14.75 Q47.35 16.15 48.0 17.8 L44.4 19.1 Q43.8 17.55 42.75 16.35 44.1 16.25 45.1 15.4 L45.8 14.25 M43.95 20.75 Q47.7 18.7 52.05 18.2 L52.15 18.2 52.2 18.25 Q54.85 19.35 57.45 21.15 60.1 23.0 60.7 26.2 L61.8 32.6 60.35 30.25 58.85 28.45 56.5 26.0 58.75 27.7 54.8 23.8 Q52.7 21.85 50.05 21.5 L47.05 21.35 46.8 21.3 44.95 21.2 43.35 21.55 43.8 21.45 43.95 20.75 M48.25 32.75 L47.6 31.85 Q46.1 28.85 45.05 25.6 L48.75 26.2 50.7 31.45 Q51.75 34.1 54.4 35.45 L51.85 35.85 Q51.15 35.15 50.25 34.65 L49.55 34.1 48.25 32.75 M39.3 26.0 Q37.75 29.05 35.15 31.65 L35.05 31.75 Q33.4 31.25 32.3 29.7 L32.25 29.65 32.4 29.15 33.65 29.2 34.0 29.05 34.1 28.95 36.4 25.3 36.45 25.25 36.7 24.95 37.45 24.1 39.4 25.8 39.3 26.0 M34.0 33.25 L33.55 33.8 33.3 33.7 Q32.15 33.25 31.6 32.05 31.6 29.85 32.55 31.05 L34.15 32.8 34.0 33.25 M29.2 33.8 L29.35 34.1 Q23.35 33.75 18.95 29.15 14.55 24.55 11.4 19.75 L11.4 19.7 12.5 19.3 12.55 19.65 13.0 20.5 14.6 21.7 15.6 22.25 16.4 22.6 17.2 23.0 17.4 23.15 17.95 23.55 19.15 24.4 21.75 26.2 24.7 28.15 Q26.4 29.25 28.35 29.35 L29.25 28.45 29.55 27.8 30.0 28.3 29.95 28.35 Q29.0 29.4 28.65 30.9 L28.55 31.2 28.5 31.45 Q28.65 32.7 29.2 33.8 M9.05 18.05 L8.95 18.65 Q7.9 18.75 7.65 17.7 7.8 16.85 8.1 16.1 8.9 16.6 9.75 16.65 L9.65 16.75 9.6 16.8 9.55 16.9 9.45 17.05 9.4 17.15 9.05 18.05 M12.1 13.7 L12.8 15.1 12.9 15.35 12.25 15.3 12.3 14.95 12.1 13.7 M13.55 17.3 L13.75 17.55 13.7 17.85 Q13.6 18.3 13.0 18.4 L10.3 18.3 Q10.05 17.65 10.6 17.1 L11.3 16.65 Q11.5 18.3 13.2 17.65 L13.55 17.3 M51.65 14.85 Q52.4 15.2 52.7 16.05 L52.5 16.9 52.3 16.85 Q51.4 16.55 51.2 15.4 L51.2 15.35 Q51.15 15.15 51.25 15.05 L51.65 14.85 M10.65 5.15 L10.35 5.15 9.15 3.7 Q8.35 3.0 8.1 2.15 9.55 2.65 10.65 4.1 L10.65 5.15 M5.0 1.9 Q7.35 4.05 8.45 6.8 8.0 7.35 7.4 7.55 6.45 4.7 4.7 2.2 L5.0 1.9 M3.8 4.25 L5.25 7.55 Q6.0 9.3 4.4 10.75 3.5 6.25 1.85 2.2 1.9 1.8 2.3 1.9 L3.8 4.25 M30.7 31.95 Q31.1 33.3 32.4 34.3 30.75 34.6 29.85 32.8 L29.55 31.95 Q29.95 32.15 30.7 31.95" fill="#996633" fill-rule="evenodd" stroke="none"/>
    <path d="M13.2 -23.15 L13.35 -22.95 Q13.6 -22.6 13.45 -22.2 13.1 -21.45 12.35 -21.5 L11.9 -21.6 Q11.45 -21.75 11.3 -22.05 L11.2 -22.5 Q11.2 -23.35 12.05 -23.4 L12.1 -23.4 Q12.75 -23.55 13.2 -23.15 M10.65 -17.1 L10.7 -16.75 10.65 -16.3 10.4 -15.95 Q9.7 -15.3 8.75 -15.5 8.45 -15.6 8.25 -15.85 L8.05 -16.25 Q7.85 -16.9 8.35 -17.55 8.7 -18.05 9.35 -18.1 10.4 -18.0 10.65 -17.1 M13.35 -10.65 Q14.25 -10.4 14.0 -9.4 13.85 -8.75 13.3 -8.35 L13.2 -8.35 Q12.1 -7.75 11.25 -8.6 L11.0 -9.15 Q11.05 -9.9 11.45 -10.3 11.8 -10.7 12.55 -10.7 L13.05 -10.7 13.35 -10.65 M-10.3 0.55 Q-12.25 1.3 -12.75 1.75 L-15.05 4.3 -15.15 4.4 -15.2 4.5 -15.85 5.4 Q-16.6 5.25 -17.35 4.75 L-17.5 4.65 -17.35 4.25 -16.8 3.0 Q-14.2 0.25 -10.9 -1.2 -10.3 -0.6 -10.3 0.55 M11.3 10.95 L6.3 16.2 Q5.5 16.25 4.95 15.5 L4.85 15.35 5.2 14.8 Q6.9 12.45 9.3 10.75 10.6 10.05 11.6 9.15 11.9 9.75 11.8 10.7 L11.8 10.75 11.3 10.95 M10.7 47.2 L12.9 49.75 13.4 53.7 13.5 54.25 Q11.65 54.45 11.3 52.4 L11.2 51.95 11.1 50.6 11.1 50.35 9.1 47.5 Q9.2 46.95 9.75 46.65 L9.9 46.6 10.25 46.6 10.7 47.2 M-6.15 42.5 L-6.8 43.8 -8.85 47.8 -9.05 48.25 -10.35 52.35 -10.4 52.8 -10.45 52.85 Q-12.3 53.35 -12.95 52.4 L-12.9 51.7 -12.7 50.7 -12.65 50.65 -12.15 49.3 -12.05 49.15 -12.0 49.0 -12.0 48.95 -11.9 48.85 -11.9 48.8 -11.8 48.65 -11.7 48.45 -7.45 42.6 -6.9 42.8 -6.55 42.75 -6.15 42.5 M-12.0 11.75 L-12.3 11.6 Q-14.3 11.5 -15.1 13.2 L-15.1 13.15 -15.1 13.25 -15.15 13.55 -15.2 14.1 -16.0 13.65 -16.05 13.65 -16.0 12.85 -15.9 12.05 -15.85 11.9 -15.25 10.95 Q-14.65 10.3 -13.6 10.1 L-12.3 10.15 Q-12.0 10.8 -12.0 11.75 M-19.2 -26.9 L-18.9 -27.7 -18.15 -28.1 -17.05 -27.8 Q-16.7 -27.5 -16.65 -26.8 -16.65 -26.35 -16.9 -26.0 L-17.5 -25.5 -18.05 -25.5 Q-19.2 -25.65 -19.2 -26.85 L-19.2 -26.9 M-15.75 -22.3 L-15.5 -22.35 Q-14.35 -22.1 -14.55 -21.0 -14.6 -20.7 -14.75 -20.55 L-15.4 -20.4 Q-16.35 -20.45 -16.35 -21.4 -16.4 -22.15 -15.75 -22.3 M-12.7 -14.65 L-12.2 -14.8 Q-11.3 -14.85 -11.0 -14.3 L-10.9 -13.6 -11.0 -13.15 -11.55 -12.6 Q-12.1 -12.4 -12.8 -12.85 L-13.2 -13.4 -13.25 -13.55 Q-13.3 -14.4 -12.7 -14.65 M-12.6 -6.65 L-13.2 -6.0 -14.85 -6.1 Q-15.3 -6.45 -15.2 -7.0 -15.05 -8.3 -13.7 -8.45 L-13.15 -8.35 Q-12.35 -8.15 -12.5 -7.1 L-12.6 -6.65 M-24.6 26.8 Q-23.45 28.85 -21.55 30.65 L-21.35 30.8 -21.2 30.95 -21.0 31.1 -21.0 31.35 -21.0 31.45 -21.0 31.6 -21.0 31.75 -21.05 32.25 -21.3 32.75 Q-22.85 33.0 -24.05 32.2 L-24.05 32.15 -24.7 31.55 -25.3 30.95 -25.3 30.9 Q-26.85 28.65 -24.7 26.85 L-24.6 26.8 M-17.25 21.4 L-17.15 21.0 -17.15 20.95 -17.05 20.5 -15.3 17.75 -15.2 17.7 -15.15 17.65 -15.05 17.55 -15.0 17.5 -14.95 17.45 -14.9 17.4 -14.6 17.2 Q-13.4 17.4 -13.05 18.7 L-12.9 20.3 Q-13.5 21.2 -14.5 21.7 -16.2 22.6 -17.25 21.4 M-33.0 20.0 L-33.3 20.25 Q-34.05 21.05 -34.4 21.95 -35.4 21.95 -35.8 21.05 L-35.7 20.85 -35.65 20.7 -35.25 19.65 -34.75 18.8 -34.55 18.75 -33.7 19.05 Q-33.15 19.35 -33.0 20.0 M-36.8 28.2 Q-38.15 29.3 -39.1 30.85 L-40.8 30.4 Q-42.25 29.65 -42.85 28.55 L-42.65 28.35 -42.6 28.3 -42.45 28.2 -42.45 28.15 Q-41.35 27.0 -40.0 26.2 L-39.8 26.1 -38.7 25.55 -38.55 25.45 Q-37.45 26.25 -36.9 27.8 L-36.8 28.2 M-17.8 31.1 L-18.15 30.85 -18.1 30.4 -17.45 29.2 -17.25 29.15 -16.3 29.4 Q-16.15 30.55 -17.2 31.2 L-17.45 31.35 -17.5 31.3 -17.8 31.1 M43.55 13.05 L44.2 13.25 44.3 13.3 44.35 13.3 44.5 13.35 44.6 13.4 44.8 13.5 45.25 13.75 45.3 13.8 44.8 14.95 Q42.45 16.25 41.35 14.05 L41.25 13.75 Q41.8 13.2 42.65 13.05 L43.05 13.0 43.25 13.0 43.35 13.0 43.55 13.05 M36.75 18.75 L38.45 15.95 38.5 15.9 38.55 15.85 38.6 15.8 38.65 15.75 38.75 15.7 38.85 15.65 38.95 15.55 39.05 15.45 39.35 15.55 39.65 15.6 Q40.7 15.9 41.45 16.55 L42.5 17.75 42.4 18.05 41.6 20.15 41.15 20.8 41.15 20.4 40.85 19.5 40.55 19.2 39.95 18.3 39.45 17.85 39.4 17.8 38.7 17.7 38.6 17.7 Q38.05 18.45 38.5 19.4 L39.0 20.05 39.6 20.7 39.7 20.75 Q39.95 21.0 40.25 21.05 L40.85 21.1 38.25 21.3 Q37.15 20.9 36.6 20.15 L36.6 20.0 36.65 19.5 36.65 19.45 36.75 18.75 M9.05 14.5 Q9.8 13.55 10.9 12.85 L11.25 13.0 12.1 13.7 12.3 14.95 12.25 15.3 Q11.1 15.25 10.2 16.1 L9.85 16.5 Q9.35 16.15 9.1 15.3 L9.05 14.5 M15.1 19.3 L16.2 19.7 16.55 19.85 Q19.1 21.1 21.6 22.05 L22.7 22.85 22.9 23.0 Q23.15 23.85 22.7 25.05 22.4 25.85 21.75 26.2 L19.15 24.4 17.95 23.55 17.4 23.15 17.45 23.05 17.2 23.0 16.4 22.6 15.6 22.25 14.6 21.7 Q14.4 20.75 14.95 19.6 L15.1 19.3 M32.65 28.2 Q33.55 25.35 35.3 22.8 35.9 23.25 36.25 24.15 L36.5 25.15 36.45 25.25 36.4 25.3 34.1 28.95 32.65 28.2" fill="#99cc99" fill-rule="evenodd" stroke="none"/>
    <path d="M19.15 46.85 L19.15 46.9 19.25 47.0 Q19.8 47.6 20.0 48.6 L20.15 50.0 19.9 50.0 16.2 53.05 15.95 53.25 Q15.85 53.25 15.8 53.35 L15.7 52.9 15.75 53.25 15.7 53.25 15.6 53.3 15.45 53.35 15.4 53.4 14.95 53.5 14.65 52.6 14.2 49.8 14.15 49.45 13.45 49.65 13.4 49.55 13.8 49.45 13.95 49.45 14.45 49.35 14.5 49.35 14.65 49.3 14.6 49.2 Q16.85 48.35 18.4 46.25 L19.15 46.85 M-30.4 -20.1 L-30.35 -20.05 Q-29.65 -18.85 -30.4 -18.1 L-32.0 -16.6 Q-30.05 -17.1 -28.75 -18.65 -28.05 -20.1 -29.0 -20.5 L-30.4 -21.25 -29.85 -21.35 Q-28.5 -21.5 -27.85 -20.5 L-27.15 -19.75 -25.7 -18.55 Q-23.2 -18.25 -20.9 -19.4 L-20.2 -19.65 -17.5 -19.9 -16.95 -19.75 Q-16.15 -19.2 -15.6 -18.3 L-15.25 -17.65 -15.25 -17.6 -15.2 -17.5 -15.15 -17.45 -15.15 -17.35 -16.05 -16.95 -17.1 -16.7 -17.7 -16.6 -19.7 -16.05 -20.6 -16.1 -21.95 -15.9 Q-24.6 -14.9 -25.9 -12.35 L-26.3 -11.35 -26.45 -9.85 -26.35 -9.25 -27.8 -9.7 -27.05 -8.65 Q-22.75 -6.65 -21.9 -2.3 L-21.75 -1.35 -21.6 -0.6 -21.4 1.3 -21.4 1.55 Q-21.2 4.05 -21.3 6.65 -19.45 7.55 -20.0 9.15 -20.6 10.7 -20.2 12.3 -20.0 13.3 -19.35 14.1 L-21.55 15.0 -21.9 15.15 -21.65 15.3 -22.05 15.05 Q-24.35 13.55 -26.3 11.45 L-25.8 7.85 -25.25 7.85 Q-25.45 5.9 -24.7 4.2 -23.75 2.1 -24.8 0.0 L-25.6 -1.5 -25.7 -1.25 -25.8 -1.2 -25.75 -1.1 -25.75 -1.0 -25.7 -0.95 -25.65 -0.85 -25.65 -0.8 -25.7 -0.8 -25.75 -0.85 -25.8 -0.95 -25.85 -1.0 -26.2 -1.0 Q-26.6 -1.0 -26.8 -1.4 L-26.9 -1.6 -27.3 -2.0 -28.2 -3.05 -28.3 -3.25 -30.1 -5.7 -31.5 -7.35 -34.6 -9.8 -35.45 -10.3 -36.7 -11.1 Q-37.25 -11.5 -37.3 -12.0 L-36.85 -12.95 -36.75 -12.95 -36.6 -13.0 -36.6 -13.05 -34.45 -12.65 -34.5 -12.95 Q-36.2 -14.05 -35.4 -15.85 L-35.3 -15.95 -35.15 -16.1 Q-33.55 -17.15 -31.6 -17.65 L-31.5 -17.8 -31.3 -17.95 -30.95 -18.2 -31.05 -20.25 -31.05 -20.35 -30.4 -20.1 M-14.35 -1.95 L-13.85 -0.95 -14.5 -0.55 -17.15 1.85 -17.55 2.35 Q-18.85 4.05 -19.45 6.25 L-20.0 6.25 Q-20.6 5.5 -20.65 4.55 L-20.2 2.2 -20.2 1.7 -20.4 -0.3 -20.4 -0.45 -20.55 -1.15 -20.6 -1.4 -18.25 -0.95 -17.4 -0.95 Q-16.2 -1.25 -15.25 -1.9 L-14.35 -1.95 M5.6 -32.1 L5.65 -31.45 5.55 -29.85 5.3 -29.8 5.6 -32.1 M7.4 -28.1 L7.6 -27.65 7.0 -25.1 7.4 -28.1 M4.15 -21.1 Q4.5 -20.55 5.05 -20.95 6.5 -22.4 7.45 -24.05 8.25 -25.55 8.65 -27.2 9.85 -26.85 10.55 -25.6 11.1 -23.25 9.75 -21.45 L7.95 -19.1 7.15 -17.95 Q6.75 -16.8 5.55 -16.75 4.25 -16.65 3.25 -16.15 0.45 -14.55 -2.6 -15.1 L-5.95 -15.7 -8.7 -16.15 Q-9.4 -16.75 -9.45 -17.5 -9.55 -18.3 -10.0 -18.9 -15.05 -22.65 -13.9 -28.6 L-13.7 -28.8 -12.1 -26.55 -10.95 -24.0 Q-10.35 -22.15 -8.75 -20.95 -7.2 -19.8 -6.45 -18.1 L-4.7 -17.9 Q0.3 -16.2 4.9 -18.1 L3.15 -19.7 1.15 -19.65 1.05 -19.7 1.0 -19.95 Q2.3 -19.95 3.45 -20.7 L4.2 -21.05 4.15 -21.1 M15.55 -12.65 Q15.4 -14.25 13.95 -15.35 17.1 -15.2 19.9 -13.85 L20.15 -14.2 19.4 -14.6 18.7 -14.95 18.55 -15.05 16.1 -16.1 15.2 -16.45 15.25 -16.45 13.0 -17.15 Q12.75 -19.25 14.4 -20.9 17.8 -20.0 20.05 -17.05 L20.65 -17.45 20.9 -16.2 Q21.05 -15.8 21.45 -15.7 L24.8 -15.5 25.4 -14.95 Q25.85 -14.5 25.15 -13.85 L25.15 -13.6 27.3 -13.7 27.25 -13.5 Q26.6 -11.1 29.15 -10.9 L30.05 -10.9 Q32.75 -11.2 34.95 -12.4 L35.55 -12.15 Q33.2 -10.05 30.8 -8.55 29.9 -9.8 28.65 -10.45 27.2 -9.95 26.4 -8.8 L25.9 -8.95 25.1 -8.75 Q24.25 -8.45 23.75 -7.8 22.05 -5.65 23.9 -4.05 25.55 -3.9 26.3 -5.45 L26.85 -6.45 Q27.75 -7.8 26.9 -8.5 27.15 -8.55 27.4 -8.75 27.9 -9.25 28.65 -9.15 L30.35 -6.15 24.65 -2.9 23.75 -3.3 Q22.2 -1.1 22.1 1.7 21.9 4.45 21.1 7.0 20.85 8.35 21.55 9.55 22.2 10.65 21.55 12.05 L18.9 17.1 18.85 14.85 18.75 13.7 18.65 13.15 19.15 11.7 Q19.85 9.5 19.2 7.5 18.5 5.5 19.9 3.5 20.4 2.55 20.05 1.7 19.7 0.8 19.75 -0.2 19.6 -1.7 19.85 -3.05 20.35 -6.6 23.0 -9.25 L22.25 -9.15 Q19.65 -6.65 18.55 -3.35 17.4 -0.1 18.85 3.4 18.85 4.6 17.95 4.9 L15.7 1.4 14.85 0.45 14.9 0.15 Q15.25 -1.35 16.0 -2.75 17.5 -5.7 19.4 -8.4 19.7 -8.8 19.5 -9.3 L18.15 -12.05 15.55 -12.65 M-7.0 -3.45 L-6.0 -4.2 Q-3.95 -4.95 -3.15 -6.8 L-2.9 -7.6 Q-2.8 -8.7 -3.2 -9.65 L-3.5 -10.4 -4.5 -12.4 Q-6.05 -12.7 -6.55 -14.0 L-6.6 -14.45 -4.0 -13.9 Q-1.9 -13.5 -1.15 -11.5 -0.75 -8.0 -0.7 -4.3 L-0.85 -4.05 -1.65 -4.0 -7.0 -3.45 M-21.1 49.85 L-20.95 49.15 -20.8 48.8 Q-20.3 47.4 -19.05 46.6 L-19.05 46.7 Q-18.9 46.15 -18.45 45.9 L-18.45 46.15 Q-17.85 47.7 -16.75 49.25 L-15.95 50.15 -15.7 50.3 -15.25 50.7 -15.0 50.85 -15.15 50.75 Q-15.05 49.7 -14.6 48.8 -14.0 47.55 -13.0 46.7 L-13.45 46.4 -15.9 44.35 -16.65 43.45 -17.35 42.45 -17.55 42.1 -17.65 42.3 -17.75 42.5 -17.65 42.0 -17.0 41.2 Q-17.05 40.65 -16.65 40.5 -16.65 39.7 -16.95 38.9 L-16.95 38.65 -16.85 38.0 -16.8 38.0 -15.8 39.5 Q-14.0 41.9 -11.55 43.8 L-11.4 43.15 -9.75 40.3 Q-12.8 37.8 -14.9 34.4 L-14.9 34.1 Q-14.75 33.6 -14.25 33.45 L-13.65 32.55 Q-13.9 31.8 -13.2 31.4 L-13.0 31.4 -13.05 31.5 Q-11.05 34.9 -7.9 37.1 -7.4 35.7 -7.2 34.2 L-6.95 32.25 -8.4 31.35 -9.9 29.95 -10.15 29.75 -10.85 29.1 -10.9 28.95 Q-11.0 28.35 -10.5 28.05 L-10.4 27.05 -9.7 27.4 Q-8.75 27.75 -7.85 28.2 L-7.4 28.35 -7.0 28.45 -6.05 30.95 -5.9 31.35 -5.7 32.0 -5.55 32.6 Q-5.4 33.75 -5.6 34.9 L-5.8 35.85 -5.85 36.15 -6.2 37.35 -6.35 37.75 -6.4 37.85 Q-6.2 38.1 -6.3 38.45 -6.45 39.05 -6.9 39.05 L-7.0 39.3 Q-7.0 39.7 -7.45 40.1 L-7.6 40.35 -7.65 40.45 -7.85 40.8 -8.25 41.4 -8.2 41.45 -10.25 44.7 -10.3 44.65 -10.35 44.75 -10.6 45.05 -11.85 47.1 -12.15 47.55 -13.45 50.2 -13.55 50.6 -13.9 51.9 -13.95 52.25 -13.95 53.2 Q-13.6 53.95 -13.75 54.95 L-13.7 55.65 -13.55 55.9 -13.55 56.1 -13.65 56.3 -13.6 57.2 -13.55 57.9 -13.4 60.0 Q-10.8 63.2 -8.8 66.65 L-8.65 66.9 -8.5 67.15 Q-5.35 72.7 -3.85 78.95 L-3.9 79.0 -5.35 79.45 -5.45 78.9 -5.65 77.85 Q-6.25 75.15 -7.25 72.55 -8.15 70.1 -9.4 67.8 -10.95 64.95 -13.0 62.5 -14.15 61.05 -14.55 59.35 L-14.65 59.1 Q-15.5 57.45 -15.55 55.65 -15.35 55.75 -15.1 55.9 -17.35 54.5 -19.0 52.55 L-20.95 49.75 -20.95 49.7 -21.1 49.85 M-13.0 46.7 L-12.8 46.5 -12.85 46.45 -13.0 46.7 M-18.05 48.75 L-18.05 48.8 -18.45 48.05 -18.4 48.25 -18.05 48.75 M8.7 28.95 L8.35 28.8 8.45 28.25 8.5 28.2 11.9 25.4 Q12.05 25.25 12.25 25.2 L13.2 24.9 13.45 25.7 13.1 26.0 10.3 28.1 10.1 28.3 10.0 28.35 9.9 28.4 9.85 28.45 9.05 29.0 8.7 28.95 M12.4 31.6 L12.7 32.0 13.0 32.65 Q13.45 34.1 13.1 35.45 L12.55 35.8 10.8 37.3 10.7 37.4 10.6 37.5 9.25 38.75 9.1 38.85 8.45 39.25 8.35 38.8 8.4 39.05 8.3 39.1 7.95 39.2 7.6 39.2 Q7.2 38.75 7.1 38.0 6.8 36.2 7.2 34.55 L7.3 34.6 7.9 34.8 8.1 34.9 8.15 34.9 8.7 34.6 8.8 34.55 Q10.75 33.35 12.4 31.6 M14.25 39.45 L14.45 39.75 15.9 42.1 16.05 42.35 Q14.3 43.5 12.7 44.75 L12.2 45.15 12.15 45.2 12.0 45.3 12.0 45.25 11.4 45.45 10.85 45.0 Q9.8 44.0 9.25 42.7 L9.8 42.35 9.9 42.35 9.85 42.25 10.15 42.1 12.45 41.0 Q13.6 40.45 14.25 39.45" fill="#4f0000" fill-rule="evenodd" stroke="none"/>
    <path d="M1.75 -65.4 L2.05 -65.35 2.0 -65.15 1.75 -65.4 M3.0 -64.25 L3.0 -63.95 2.95 -63.95 2.85 -63.65 3.0 -64.25" fill="#cc6600" fill-rule="evenodd" stroke="none"/>
    <path d="M6.0 -50.25 Q3.55 -50.6 1.1 -52.2 0.15 -53.55 -0.4 -55.05 1.05 -54.25 2.7 -53.9 4.35 -53.6 5.15 -51.75 L6.0 -50.25" fill="#ffcc00" fill-rule="evenodd" stroke="none"/>
    <path d="M-16.7 8.95 L-16.2 9.0 -13.8 8.85 Q-13.05 8.95 -12.7 8.35 -12.4 7.8 -12.8 7.3 -13.1 6.9 -13.55 6.85 -13.9 6.0 -13.35 5.15 L-12.95 4.5 Q-12.25 3.35 -11.05 2.65 -9.45 1.8 -7.6 1.4 L-3.2 0.7 -3.05 0.7 2.45 0.55 6.6 0.7 8.25 0.9 Q10.1 1.05 11.85 1.8 13.45 2.5 14.45 3.95 L15.5 5.55 15.75 6.1 16.1 7.85 16.55 8.3 17.1 8.4 17.05 9.15 17.0 9.55 16.75 10.05 16.4 9.55 Q14.9 8.0 12.7 8.2 L12.5 8.2 11.95 8.5 12.05 8.6 12.1 8.6 12.15 8.65 11.6 9.15 Q10.6 10.05 9.3 10.75 6.9 12.45 5.2 14.8 L4.85 15.35 4.45 16.0 Q3.9 17.1 3.8 18.3 3.65 19.15 3.75 20.1 4.45 21.55 5.9 21.8 L5.6 21.9 4.65 22.15 4.25 22.3 3.75 21.9 3.3 21.5 2.85 20.65 2.85 20.7 2.8 20.6 2.75 20.5 2.7 18.4 2.65 18.4 2.55 18.35 Q2.65 16.35 3.35 14.45 L3.4 14.4 3.5 14.2 3.65 13.75 3.35 14.1 3.2 14.2 3.15 14.25 3.15 14.3 2.9 14.45 Q1.25 16.25 1.0 18.65 0.8 20.4 1.55 21.85 L0.95 22.15 Q0.2 22.75 -0.8 22.5 -0.95 22.45 -1.05 22.35 L-1.6 22.15 -1.6 20.85 Q-1.85 18.7 -2.95 16.85 L-3.0 16.75 -3.15 16.6 -3.15 16.5 -3.15 16.4 -3.2 16.35 -3.25 16.35 -3.3 16.4 -3.35 16.7 -3.35 16.75 -3.35 17.0 -3.05 18.0 -3.05 20.95 Q-3.15 22.1 -3.75 23.05 L-3.85 23.2 -3.95 23.1 -3.9 23.05 -3.95 23.1 -3.95 23.2 -5.05 23.15 -5.6 23.1 -5.8 23.1 Q-5.25 22.9 -4.85 22.15 -4.3 20.5 -4.75 18.9 L-5.75 15.75 Q-5.6 15.45 -5.3 15.45 L-4.7 16.3 -5.15 15.4 -5.85 14.3 -7.15 12.8 -7.45 12.5 -7.5 12.45 -7.7 12.25 -7.9 12.05 -8.0 12.0 -8.3 12.35 Q-9.95 10.45 -12.3 10.15 L-13.6 10.1 Q-14.65 10.3 -15.25 10.95 L-16.0 10.25 -16.35 9.8 -16.6 9.4 -16.7 8.95 M4.0 22.25 L3.75 21.9 3.55 21.65 4.0 22.25 M-9.9 6.8 Q-10.2 7.7 -9.0 7.85 -7.8 4.3 -5.0 1.45 L-5.15 1.25 Q-8.25 3.45 -9.9 6.8 M-2.75 2.65 Q-2.15 1.8 -2.6 1.0 -5.5 4.9 -6.75 9.75 L-6.1 10.8 Q-5.6 10.85 -5.25 10.4 -4.7 7.25 -3.75 4.25 L-2.75 2.65 M-0.1 1.75 Q-0.2 1.05 -0.75 1.0 L-2.05 12.3 -0.55 14.85 Q0.3 14.05 0.75 12.75 0.0 7.05 -0.1 1.75 M-11.85 6.05 L-11.2 6.05 -8.65 2.3 Q-11.05 3.8 -11.85 6.05 M-8.85 17.4 Q-8.15 18.65 -9.4 19.35 L-9.85 19.45 -9.9 19.45 -10.5 18.35 Q-11.9 16.65 -14.1 16.95 L-14.35 16.45 -14.15 15.65 -14.0 15.7 -12.15 15.9 -12.05 15.9 Q-11.6 16.05 -11.2 16.35 L-9.1 17.95 -9.05 17.9 -9.0 17.75 -8.85 17.4 M-13.85 30.7 L-13.8 31.3 Q-13.8 31.9 -14.3 32.2 L-15.05 32.0 Q-14.9 31.55 -15.05 30.95 -15.4 29.85 -16.3 29.4 L-17.25 29.15 -17.45 29.2 -17.5 29.2 -17.75 29.25 -18.3 29.55 -18.35 29.5 -18.5 28.8 -18.05 28.15 -16.15 28.35 Q-14.7 29.2 -13.95 30.75 L-13.95 30.8 -13.85 30.7 M-15.9 33.75 L-16.0 34.4 -16.1 34.55 -16.9 34.65 -16.9 34.45 -17.1 33.3 -17.1 33.2 Q-17.7 31.9 -19.05 31.7 -18.35 33.15 -18.05 34.75 L-18.05 34.9 Q-17.95 35.5 -18.2 36.1 L-18.35 36.65 Q-18.55 37.2 -19.2 37.1 -18.2 34.15 -19.95 32.1 L-19.55 31.6 -19.1 31.7 Q-19.35 31.4 -19.2 30.95 L-18.8 30.55 Q-18.3 30.75 -17.8 31.1 L-17.5 31.3 -17.45 31.35 Q-16.35 32.25 -15.9 33.75 M-36.35 19.2 L-36.25 19.1 -36.2 19.15 -36.35 19.2 M-28.8 18.85 Q-29.25 18.6 -29.75 18.55 L-29.7 18.4 -28.75 18.8 -28.8 18.85 M-2.75 26.8 Q-2.7 24.35 -0.3 24.0 L0.25 24.15 1.65 24.15 Q4.3 24.2 4.65 26.8 L4.6 30.05 4.1 33.4 3.6 37.8 3.7 38.85 Q4.55 43.2 6.35 47.2 7.6 49.95 7.95 52.85 L8.15 54.35 8.1 54.9 8.1 55.75 7.95 58.05 8.25 59.55 Q8.25 60.9 7.65 62.15 5.85 66.2 4.45 70.4 4.1 71.55 4.1 72.85 4.15 74.6 2.8 75.7 1.45 76.8 -0.3 76.1 -1.55 75.55 -1.45 74.1 L-1.35 73.35 -1.45 72.95 Q-2.6 70.85 -3.25 68.5 L-3.8 66.9 -4.3 65.65 -8.6 57.05 Q-9.35 55.5 -9.4 53.8 -9.55 50.6 -8.0 47.85 L-6.25 44.8 Q-4.25 41.4 -2.7 37.8 L-2.55 37.45 -2.0 34.1 -2.0 31.4 -2.15 31.0 -2.45 30.2 Q-2.9 28.65 -2.7 27.3 L-2.75 26.8 M-1.15 43.75 L-1.35 43.55 -2.1 43.45 -2.1 43.5 -2.35 43.6 -2.65 44.0 -4.25 46.25 Q-5.25 46.4 -5.5 47.4 -5.9 48.85 -5.65 50.4 L-5.15 54.55 Q-4.95 57.15 -2.5 56.9 -1.8 56.8 -1.8 56.15 -1.55 51.85 -2.15 47.5 L-1.8 46.7 -0.85 44.3 -1.15 43.75 M49.75 14.55 L49.65 14.4 49.65 14.35 49.8 14.4 49.75 14.55 M43.55 13.05 L43.35 13.0 43.3 12.95 43.5 12.9 43.55 13.05 M52.05 18.2 L52.2 18.2 52.15 18.2 52.05 18.2 M41.3 24.35 L40.75 24.75 39.6 25.7 39.45 25.85 39.4 25.8 37.45 24.1 37.25 23.9 36.45 22.95 36.0 22.35 36.35 21.85 Q36.5 21.7 36.6 21.65 L36.7 21.65 36.7 21.75 Q37.55 23.05 39.05 23.4 L40.65 23.95 41.3 24.35 M35.15 31.8 Q34.9 32.75 34.0 33.25 L34.15 32.8 32.55 31.05 Q31.6 29.85 31.6 32.05 32.15 33.25 33.3 33.7 33.05 34.35 32.45 34.45 L31.75 34.4 29.65 33.95 29.2 33.8 Q28.65 32.7 28.5 31.45 L28.55 31.2 28.7 31.15 28.65 30.9 Q29.0 29.4 29.95 28.35 30.65 28.65 30.85 29.65 L30.85 29.7 31.45 29.95 31.8 30.25 Q32.0 29.9 32.3 29.7 33.4 31.25 35.05 31.75 L35.15 31.8 M11.35 19.75 L10.4 19.4 10.1 19.1 10.0 18.85 Q9.3 18.9 9.0 18.5 L9.05 18.05 9.4 17.15 9.45 17.05 9.55 16.9 9.6 16.8 9.65 16.75 9.75 16.65 9.85 16.5 10.2 16.1 Q11.1 15.25 12.25 15.3 L12.9 15.35 12.8 15.1 Q13.6 15.55 13.25 16.6 L13.15 16.85 Q12.3 16.15 11.3 16.65 L10.6 17.1 Q10.05 17.65 10.3 18.3 L13.0 18.4 Q13.6 18.3 13.7 17.85 L14.2 18.05 14.5 18.25 Q14.9 18.8 14.9 19.25 L14.8 19.25 12.75 19.25 12.5 19.3 11.4 19.7 11.35 19.7 11.35 19.75 M41.15 20.8 L41.15 21.0 40.25 21.05 Q39.95 21.0 39.7 20.75 L39.6 20.7 39.0 20.05 38.5 19.4 Q38.05 18.45 38.6 17.7 L38.7 17.7 39.4 17.8 39.45 17.85 39.95 18.3 40.55 19.2 40.85 19.5 41.15 20.4 41.15 20.8 M46.8 21.4 L47.05 21.35 50.05 21.5 Q52.7 21.85 54.8 23.8 L58.75 27.7 56.5 26.0 52.95 23.55 Q51.1 22.35 48.95 21.85 L47.95 21.65 46.3 21.5 46.8 21.4 M10.65 5.15 L10.65 4.1 Q9.55 2.65 8.1 2.15 8.35 3.0 9.15 3.7 L10.35 5.15 10.65 5.15 M3.8 4.25 L2.3 1.9 Q1.9 1.8 1.85 2.2 3.5 6.25 4.4 10.75 6.0 9.3 5.25 7.55 L3.8 4.25 M5.0 1.9 L4.7 2.2 Q6.45 4.7 7.4 7.55 8.0 7.35 8.45 6.8 7.35 4.05 5.0 1.9 M29.55 31.95 L29.85 32.8 Q30.75 34.6 32.4 34.3 31.1 33.3 30.7 31.95 30.4 30.95 30.6 29.8 30.05 29.95 29.7 30.55 L29.7 30.65 29.65 30.7 29.55 31.2 29.55 31.95" fill="#663300" fill-rule="evenodd" stroke="none"/>
    <path d="M-16.5 6.4 L-16.5 6.9 -16.45 7.25 -16.7 7.5 -16.8 7.65 -16.8 8.15 -16.8 7.55 -16.6 6.6 -16.5 6.4 M7.25 24.2 L7.1 23.95 7.45 23.8 7.25 24.2 M2.75 20.55 L2.75 20.45 2.55 19.7 2.5 18.6 2.55 18.35 2.65 18.4 Q2.55 19.4 2.75 20.55 M-3.85 23.2 L-3.95 23.2 -3.95 23.1 -3.85 23.2 M-15.1 13.2 L-15.15 13.55 -15.1 13.25 -15.1 13.15 -15.1 13.2 M-29.15 30.55 L-29.4 31.3 -29.85 33.0 -29.9 32.35 -29.4 30.85 -29.3 30.75 -29.15 30.55 M-25.2 26.1 L-25.15 26.1 -25.2 26.1 M-14.15 15.65 L-14.05 15.5 -14.0 15.7 -14.15 15.65 M-38.15 23.65 L-38.25 23.6 -38.1 23.1 -38.15 23.65 M-27.95 19.45 Q-28.35 19.05 -28.8 18.85 L-28.75 18.8 -28.45 19.0 -27.9 19.4 -27.95 19.45 M-26.9 20.25 L-26.9 20.2 -26.85 20.25 -26.9 20.25 M49.65 14.4 L49.5 14.2 49.6 14.3 49.65 14.35 49.65 14.4 M46.0 12.8 L46.15 12.8 46.0 12.8 M43.3 12.95 L43.35 13.0 43.25 13.0 43.3 12.95 M52.2 18.2 L52.2 18.25 52.15 18.2 52.2 18.2 M39.45 25.85 L39.3 26.0 39.4 25.8 39.45 25.85 M35.15 31.65 L35.15 31.8 35.05 31.75 35.15 31.65 M11.4 19.75 L11.35 19.75 11.35 19.7 11.4 19.75 M2.75 20.5 L2.8 20.6 2.75 20.5" fill="#333333" fill-rule="evenodd" stroke="none"/>
    <path d="M16.7 14.8 L16.85 14.85 16.85 14.9 16.7 14.8 M3.75 21.9 L4.1 22.35 4.2 22.45 4.5 22.5 4.15 22.45 4.0 22.25 3.55 21.65 3.75 21.9 M2.85 20.65 L2.8 20.6 2.75 20.55 Q2.55 19.4 2.65 18.4 L2.7 18.4 2.75 20.5 2.8 20.6 2.85 20.7 2.85 20.65 M-8.05 22.55 L-8.1 22.6 -8.1 22.65 Q-8.3 23.05 -8.05 23.45 L-8.1 23.5 -8.1 23.45 -8.15 22.65 -8.1 22.5 -8.05 22.55 M-35.3 42.8 L-35.6 42.95 -35.4 42.7 -35.3 42.8 M-25.15 26.1 L-25.05 26.0 -24.95 26.15 -25.15 26.1 M-12.15 15.9 L-12.0 15.8 -12.05 15.9 -12.15 15.9 M-3.95 23.1 L-3.9 23.05 -3.95 23.1 M-39.6 31.6 L-40.0 32.4 -40.0 32.35 -39.6 31.6 M-42.6 28.3 L-42.45 28.15 -42.45 28.2 -42.6 28.3 M-36.15 22.6 L-36.1 22.55 -36.15 22.6 M-34.75 18.8 L-34.65 18.65 -34.55 18.75 -34.75 18.8 M-33.15 21.8 L-33.1 21.9 -33.15 21.85 -33.15 21.8 M-13.95 30.75 L-13.85 30.7 -13.95 30.8 -13.95 30.75 M-4.2 67.0 L-4.4 66.95 -4.2 66.95 -4.2 67.0 M46.5 13.6 L46.0 12.8 46.15 12.8 46.1 12.95 46.5 13.6 M45.8 14.2 L45.8 14.25 45.35 13.85 45.8 14.2 M42.05 25.95 L41.6 24.6 41.3 24.35 40.65 23.95 41.25 23.9 42.05 24.6 41.8 24.45 41.9 25.45 42.05 25.95 M10.9 12.85 L10.95 12.8 11.25 13.0 10.9 12.85 M36.6 20.0 Q36.6 19.35 36.75 18.75 L36.65 19.45 36.65 19.5 36.6 20.0 M11.4 19.7 L11.4 19.75 11.35 19.7 11.4 19.7 M1.75 79.75 L1.75 79.7 2.1 79.75 2.1 79.8 1.65 79.75 1.75 79.75" fill="#666666" fill-rule="evenodd" stroke="none"/>
    <path d="M-15.3 15.85 L-15.3 15.95 -15.35 15.85 -15.3 15.85 M-5.15 15.4 L-4.7 16.3 -5.3 15.45 -5.15 15.4 M-18.8 30.55 L-18.9 30.55 -18.9 30.5 -18.8 30.55 M-16.8 15.0 L-16.8 15.05 -16.85 15.0 -16.8 15.0 M-36.45 29.15 L-36.4 29.1 -36.45 29.15 M-34.9 27.9 L-34.8 27.8 -34.85 27.9 -34.9 27.9 M-36.2 19.15 L-36.25 19.25 -36.35 19.2 -36.2 19.15 M-26.35 22.25 L-26.35 22.1 -26.2 22.15 -26.35 22.25 M38.7 17.7 L38.6 17.7 38.7 17.7 M47.05 21.35 L46.8 21.4 46.8 21.3 47.05 21.35 M47.95 21.65 L48.95 21.85 48.95 21.9 47.9 21.75 47.95 21.65 M17.2 23.0 L17.45 23.05 17.4 23.15 17.2 23.0" fill="#999999" fill-rule="evenodd" stroke="none"/>
    <path d="M-16.35 9.8 L-16.7 9.6 -16.6 9.4 -16.35 9.8" fill="#cccccc" fill-rule="evenodd" stroke="none"/>
  </g>
</svg>
