<?xml version="1.0" encoding="UTF-8" standalone="no"?>
<svg xmlns:xlink="http://www.w3.org/1999/xlink" height="37.9px" width="29.7px" xmlns="http://www.w3.org/2000/svg">
  <g transform="matrix(1.0, 0.0, 0.0, 1.0, 15.25, 18.45)">
    <path d="M0.5 -14.8 L-0.1 -14.4 Q-0.65 -14.45 -1.1 -14.8 L-1.1 -14.9 -0.95 -15.65 -0.75 -15.75 -0.5 -15.85 Q0.15 -15.95 0.65 -15.4 L0.5 -14.8 M-1.8 -16.8 L-2.75 -16.85 -3.95 -16.65 Q-4.55 -16.5 -4.85 -15.95 -5.3 -15.25 -5.2 -14.75 L-8.15 -14.95 Q-8.2 -15.95 -7.0 -16.5 L-3.85 -17.3 -3.7 -17.25 -1.8 -16.8" fill="#999966" fill-rule="evenodd" stroke="none"/>
    <path d="M3.1 -12.4 Q3.3 -12.1 3.65 -12.4 3.7 -12.75 3.35 -12.95 3.0 -13.2 3.25 -13.55 4.1 -13.4 4.25 -12.55 4.35 -11.85 3.65 -11.7 2.9 -11.65 2.65 -12.4 L2.65 -12.85 3.1 -12.4 M-3.1 -13.45 L-2.75 -13.1 -2.7 -13.1 -2.65 -13.0 Q-1.5 -11.3 -1.9 -9.2 L-1.9 -9.1 Q-2.65 -7.85 -4.05 -6.95 -5.9 -5.75 -8.15 -5.1 L-12.7 -5.4 Q-13.05 -5.2 -13.0 -4.8 -10.85 -3.65 -8.65 -4.4 L-4.45 -5.8 -4.1 -6.1 -2.3 -7.25 -0.65 -7.9 1.15 -8.25 7.5 -7.95 9.05 -7.4 Q9.8 -7.0 10.65 -7.1 10.0 -10.1 8.35 -12.65 L6.9 -14.55 Q4.1 -17.25 0.3 -17.5 L-3.7 -17.35 -3.85 -17.3 -7.0 -16.5 Q-8.2 -15.95 -8.15 -14.95 L-5.2 -14.75 -4.45 -14.45 -4.45 -14.4 -3.55 -13.85 -3.1 -13.45 M7.1 -11.7 L7.0 -11.7 Q6.4 -11.6 6.15 -12.1 L6.15 -12.8 6.8 -12.25 6.85 -12.25 6.9 -12.4 6.8 -12.85 Q6.5 -13.25 7.15 -13.25 L7.6 -12.65 7.6 -12.55 7.6 -12.5 7.6 -12.45 7.6 -12.35 7.6 -12.25 7.55 -12.05 7.1 -11.7 M9.0 -13.55 Q12.15 -9.75 11.55 -4.85 10.35 -3.8 10.85 -2.2 12.2 -1.15 11.5 0.15 10.75 1.5 12.15 2.5 L11.7 6.5 Q11.45 8.45 12.25 10.3 L10.95 14.05 Q10.2 15.95 8.0 16.4 7.2 17.95 5.75 18.85 L0.3 19.45 Q-1.9 17.65 -4.85 17.5 -7.85 17.3 -8.75 13.85 -9.3 12.6 -10.35 11.75 -11.9 12.25 -13.05 11.2 -14.15 9.65 -13.75 7.85 -13.4 6.0 -13.9 4.4 L-15.0 2.25 Q-15.6 1.15 -14.75 -0.05 -14.4 -0.65 -13.75 -0.6 -13.1 -0.55 -12.6 -0.9 -12.55 -2.25 -12.95 -3.45 -13.4 -4.6 -13.45 -5.75 -13.1 -6.65 -13.2 -7.7 -13.3 -8.85 -12.9 -9.7 -12.2 -11.6 -10.65 -13.15 -9.1 -14.7 -8.25 -16.5 -4.0 -18.8 1.0 -18.4 6.0 -18.0 9.0 -13.55 M4.6 18.05 L5.05 18.1 5.45 18.15 Q6.4 17.55 6.9 16.45 7.35 15.35 8.7 15.45 L10.2 13.2 10.95 11.45 11.0 11.3 Q11.7 9.0 10.75 6.65 11.75 3.95 10.3 1.55 L10.25 1.55 Q11.35 -0.3 10.3 -2.0 9.85 -2.65 9.75 -3.3 L9.8 -3.3 9.75 -3.8 9.75 -4.2 9.95 -5.1 10.15 -5.55 9.6 -6.0 9.05 -6.4 9.05 -6.35 Q7.85 -7.1 6.45 -7.3 1.1 -8.35 -2.95 -5.8 -6.75 -3.4 -11.25 -3.3 L-11.9 -3.3 -11.9 -3.2 -11.9 -3.05 -11.85 -2.85 -11.85 -2.65 -11.7 -0.75 Q-11.7 0.3 -10.95 1.1 L-10.9 1.1 -10.6 1.4 -10.75 1.45 Q-11.45 1.75 -11.95 1.05 L-12.0 1.0 Q-12.6 0.15 -13.45 0.25 -14.1 0.35 -14.05 0.95 -13.3 1.75 -12.95 2.7 -12.4 4.3 -12.95 6.15 L-13.15 7.45 Q-13.2 9.55 -11.2 10.95 -11.1 10.1 -11.15 9.25 L-11.2 8.6 -10.7 9.2 Q-8.5 12.0 -6.6 15.1 L-5.9 16.2 -2.8 16.4 -1.75 17.6 -1.7 17.65 Q-1.05 18.15 -0.2 18.3 L0.7 18.3 1.0 18.25 4.6 18.05 M8.5 0.55 L8.55 0.65 8.5 0.7 8.15 0.9 7.8 0.9 7.65 0.85 7.6 0.85 7.1 0.9 6.9 1.15 6.85 1.2 Q5.15 1.15 4.35 -0.15 L4.15 -0.5 4.0 -1.1 Q4.8 -0.7 5.55 0.1 L5.65 0.1 7.15 0.2 7.65 0.2 8.5 0.55 M-0.95 0.2 L-1.1 0.4 -2.05 1.0 -2.35 1.1 Q-4.6 1.8 -6.7 1.55 L-6.85 1.45 -6.9 1.4 -6.75 1.25 -6.75 1.3 -6.5 1.1 -6.25 0.95 Q-5.25 0.3 -3.95 0.55 L-2.4 0.5 -2.45 0.55 -1.55 0.15 -1.6 0.15 -0.9 -0.35 -0.75 -0.15 -0.95 0.2 M3.85 1.75 Q4.5 2.0 4.75 2.8 L4.75 4.0 4.75 4.05 4.75 4.4 Q4.1 3.8 4.0 2.65 L3.3 1.65 3.4 1.65 3.85 1.75 M0.45 -9.45 L0.45 -8.9 -0.85 -10.15 Q-0.2 -10.35 0.25 -9.8 L0.45 -9.45 M4.7 -4.1 L3.95 -3.75 1.45 -3.85 0.9 -4.05 Q-1.1 -5.05 -3.0 -3.85 -1.35 -5.4 1.15 -4.7 1.95 -4.15 2.85 -4.25 L4.7 -4.1 M0.55 -2.3 Q1.15 -1.8 1.25 -0.75 0.55 -1.2 0.55 -2.3 M2.35 -1.05 L2.1 -1.05 Q1.7 -1.7 2.25 -2.3 L2.35 -1.05 M6.8 -4.0 L6.0 -3.95 5.85 -4.1 6.95 -4.15 7.0 -4.1 6.8 -4.0 M-5.2 -7.2 Q-4.0 -7.95 -2.95 -9.1 -2.4 -10.7 -3.05 -12.15 -4.0 -13.6 -5.5 -14.0 -7.85 -14.5 -9.65 -13.15 -12.45 -10.2 -11.9 -6.05 L-9.1 -5.9 -8.95 -5.9 -8.0 -6.05 -7.9 -6.1 -7.5 -6.2 -6.9 -6.35 -6.85 -6.4 Q-6.0 -6.7 -5.2 -7.2 M-1.55 7.2 L-1.25 7.2 -1.1 7.35 -0.15 7.65 0.3 7.6 0.45 7.5 0.4 7.5 Q1.0 7.1 1.7 7.85 2.15 8.35 2.7 8.3 L2.8 8.3 2.85 8.35 2.95 8.3 3.5 7.95 3.75 7.75 Q4.1 7.3 4.65 7.3 4.95 7.3 5.0 7.45 L5.0 7.65 4.75 7.95 4.25 8.2 3.9 8.4 3.7 8.55 3.3 8.75 3.0 8.8 2.95 8.85 2.9 8.85 -1.15 7.8 -1.45 7.7 -1.5 7.3 -1.55 7.2 M6.35 7.3 L6.25 7.15 6.15 7.0 6.25 7.05 6.3 7.1 6.35 7.1 8.05 7.7 8.3 7.7 Q9.55 7.8 10.25 8.55 L9.85 8.45 7.95 8.15 Q6.9 8.0 6.35 7.3 M0.05 10.7 L-1.9 10.75 Q-2.45 10.25 -3.1 10.1 L-3.8 9.95 -3.55 9.9 4.1 10.3 Q5.75 9.4 7.35 9.6 L7.2 9.7 Q5.25 11.05 2.95 10.85 L0.35 10.7 0.05 10.7 M-12.25 2.65 L-11.45 3.85 -11.05 4.5 Q-10.4 5.7 -11.3 7.0 L-11.35 7.05 -11.35 7.1 -10.95 7.75 -11.65 7.7 -12.35 7.65 Q-11.5 6.7 -11.45 5.55 L-11.55 4.65 -11.55 4.6 -11.6 4.5 -11.6 4.55 Q-12.35 3.5 -12.55 2.25 L-12.25 2.65 M1.8 5.25 Q2.1 4.8 2.8 4.8 2.8 5.3 2.25 5.25 L1.8 5.25 M3.45 15.5 L3.8 14.85 3.75 15.45 4.0 16.1 Q4.4 16.75 3.35 16.7 L2.65 17.3 3.45 15.5" fill="#000000" fill-rule="evenodd" stroke="none"/>
    <path d="M-11.85 -2.65 L-11.0 -2.6 -9.15 -2.85 -8.2 -3.0 -7.75 -3.1 -7.9 -2.3 -8.0 -1.75 -8.0 -1.7 -7.65 -1.05 -7.05 -0.85 -6.9 -0.9 -6.35 -1.1 Q-5.8 -1.6 -5.6 -2.3 L-5.55 -2.6 Q-5.45 -3.2 -5.7 -3.55 L-5.6 -3.7 -5.45 -3.8 -4.45 -4.1 -0.1 -5.25 0.05 -5.3 Q3.25 -5.75 6.3 -4.75 L6.8 -4.55 6.8 -4.3 6.95 -4.15 5.85 -4.1 6.0 -3.95 6.8 -4.0 Q6.9 -3.5 7.35 -3.15 L7.6 -2.85 Q8.25 -1.95 9.3 -1.9 L9.5 -1.9 9.9 -1.45 10.0 -1.25 9.55 -0.9 8.7 0.25 7.65 0.2 7.15 0.2 6.4 0.15 5.65 0.1 5.55 0.1 Q4.8 -0.7 4.0 -1.1 L4.15 -0.5 4.35 -0.15 3.25 -0.2 2.2 -0.15 0.3 0.2 -0.05 0.15 -0.4 0.1 -0.5 0.1 -0.85 0.1 -0.95 0.2 -0.75 -0.15 -0.9 -0.35 -1.6 0.15 -1.55 0.15 -2.45 0.55 -2.4 0.5 -3.95 0.55 Q-5.25 0.3 -6.25 0.95 L-7.05 0.9 -7.1 0.9 -7.2 0.95 Q-7.6 1.25 -7.55 1.75 L-7.5 2.2 -7.05 3.2 -6.75 3.6 -5.95 4.4 -4.25 5.2 -4.05 5.3 Q-2.75 5.7 -1.6 5.0 L-1.15 4.75 -0.6 4.45 -0.5 4.5 0.65 4.6 0.75 4.5 0.9 4.35 1.15 3.95 Q1.6 3.3 1.55 2.55 L1.6 2.5 1.6 2.4 1.65 2.35 2.45 1.75 2.5 1.6 2.7 1.6 3.25 1.5 3.3 1.55 3.35 1.55 3.4 1.65 3.3 1.65 4.0 2.65 Q4.1 3.8 4.75 4.4 L4.75 4.05 5.0 4.3 4.9 4.6 4.9 5.35 4.85 5.6 4.85 5.7 5.45 5.65 Q6.55 5.9 6.0 6.8 L5.95 6.85 Q5.65 7.3 5.1 7.4 L5.0 7.45 Q4.95 7.3 4.65 7.3 4.1 7.3 3.75 7.75 L3.5 7.95 2.95 8.3 2.8 8.3 2.7 8.25 2.7 8.3 Q2.15 8.35 1.7 7.85 1.0 7.1 0.4 7.5 L0.45 7.5 0.3 7.6 -0.15 7.65 -1.1 7.35 -1.25 7.2 -1.55 7.2 -2.9 7.35 Q-3.6 7.6 -4.1 8.2 L-4.2 8.35 -5.0 8.45 -5.0 8.4 -5.2 8.45 -5.95 8.5 -6.45 8.55 -6.5 8.7 -6.85 9.4 -6.85 9.45 -6.7 9.4 -6.55 9.35 Q-5.35 8.75 -3.95 8.9 L-3.9 8.9 -3.55 8.85 -2.75 8.7 -2.45 8.5 -2.2 8.4 -2.05 8.3 -1.95 8.3 Q-1.6 8.2 -1.35 8.45 L-1.15 8.4 -1.0 8.45 -0.95 8.45 -0.9 8.45 Q-0.5 8.5 -0.1 8.7 L0.65 9.1 0.8 9.2 0.85 9.2 1.6 9.6 1.95 9.7 2.15 9.75 2.2 9.8 2.3 9.75 3.7 9.15 4.6 8.7 4.9 8.6 5.2 8.6 5.85 8.55 6.3 8.75 6.5 9.05 Q7.6 9.0 8.2 9.8 L8.15 10.05 Q7.6 10.6 6.8 10.3 L6.5 11.35 6.5 11.4 5.3 11.6 4.95 12.05 4.9 12.1 2.0 12.0 1.65 12.1 -0.4 12.3 Q-1.2 11.5 -2.35 11.6 L-2.45 11.65 -2.55 11.7 -2.6 11.75 -2.75 11.95 -2.9 12.35 -2.9 12.4 -2.9 12.5 Q-2.9 13.05 -2.45 13.25 L-2.1 13.35 -2.05 13.4 -1.85 13.2 -2.3 13.8 -2.45 14.5 -2.9 14.7 -3.3 15.05 -3.95 15.05 -4.15 15.05 -6.1 13.35 -6.95 12.45 -7.45 11.75 -8.35 10.6 -9.0 9.9 Q-9.05 9.35 -9.25 8.9 L-9.65 8.35 -9.5 7.35 -9.4 6.7 Q-9.15 5.8 -9.35 5.0 L-9.5 4.55 -9.8 4.05 -9.85 3.75 Q-9.9 2.8 -10.45 2.1 L-10.5 1.95 -10.75 1.45 -10.6 1.4 -10.9 1.1 -10.9 1.05 -10.95 1.1 Q-11.7 0.3 -11.7 -0.75 L-11.85 -2.65 M-5.1 2.85 L-4.05 2.9 -4.0 2.9 -3.85 2.9 -3.35 2.9 -3.15 2.85 -2.8 2.8 Q-2.4 2.65 -2.15 2.3 L-1.95 1.95 -1.85 1.95 -1.8 1.9 -1.7 1.9 -1.35 1.9 -1.35 1.85 Q-0.9 1.9 -0.85 2.5 -0.8 2.85 -1.1 3.1 L-1.15 3.15 -1.95 3.7 -2.1 3.8 -2.55 3.95 -2.75 4.05 -2.9 4.1 Q-4.5 4.4 -5.4 3.2 L-5.45 3.15 -5.75 2.95 -5.75 2.9 -5.7 2.85 -5.7 2.8 -5.1 2.85 M8.15 3.3 L7.8 3.55 6.1 3.6 5.5 3.05 5.35 2.65 Q5.25 2.2 5.55 2.05 L5.65 2.0 6.25 2.0 8.0 1.85 8.3 1.75 8.65 1.75 8.7 1.75 8.85 1.8 9.3 2.15 9.25 2.45 9.2 2.55 9.1 2.6 8.15 3.3 M-13.15 7.45 L-12.95 6.15 Q-12.4 4.3 -12.95 2.7 L-12.85 2.45 -12.8 2.3 -12.7 2.3 -12.6 2.25 -12.6 2.2 -12.4 2.2 -12.25 2.65 -12.55 2.25 Q-12.35 3.5 -11.6 4.55 L-11.45 5.55 Q-11.5 6.7 -12.35 7.65 L-11.65 7.7 -11.85 8.05 -11.85 8.1 Q-12.65 8.2 -13.15 7.45 M2.35 -1.05 L2.25 -2.3 Q1.7 -1.7 2.1 -1.05 L2.35 -1.05 M0.55 -2.3 Q0.55 -1.2 1.25 -0.75 1.15 -1.8 0.55 -2.3 M4.7 -4.1 L2.85 -4.25 Q1.95 -4.15 1.15 -4.7 -1.35 -5.4 -3.0 -3.85 -1.1 -5.05 0.9 -4.05 L1.45 -3.85 3.95 -3.75 4.7 -4.1 M5.5 -1.3 L5.2 -1.0 Q5.1 -0.55 5.45 -0.3 6.35 0.3 7.35 -0.05 7.8 -0.35 7.55 -0.8 7.4 -1.0 7.2 -1.0 L6.65 -1.1 5.5 -1.3 M-8.0 -6.05 L-8.95 -5.9 -9.1 -5.9 -11.9 -6.05 Q-12.45 -10.2 -9.65 -13.15 -7.85 -14.5 -5.5 -14.0 -4.0 -13.6 -3.05 -12.15 -2.4 -10.7 -2.95 -9.1 -4.0 -7.95 -5.2 -7.2 L-5.4 -7.85 -5.6 -8.3 Q-6.15 -9.65 -7.4 -9.7 L-7.85 -9.9 -8.25 -9.8 -8.5 -9.4 -8.5 -7.15 Q-8.55 -6.35 -8.0 -6.05 M-10.4 -11.0 L-11.0 -10.2 -11.05 -10.0 -11.15 -7.75 -11.1 -7.35 Q-10.85 -6.85 -10.3 -7.05 L-10.2 -7.15 -9.95 -7.3 Q-9.35 -7.75 -9.3 -8.55 L-9.25 -8.8 -8.75 -10.75 -8.55 -11.15 -8.5 -11.65 -8.4 -11.7 -8.05 -11.9 Q-7.8 -12.05 -7.8 -12.35 -7.8 -13.05 -8.55 -12.95 -9.35 -12.65 -9.8 -11.95 L-9.9 -11.8 -10.4 -11.0 M-5.7 -0.85 Q-6.35 -0.8 -6.7 -0.35 -6.95 -0.1 -6.8 0.25 L-6.65 0.45 -5.4 0.3 -5.2 0.25 -2.85 0.15 -2.55 -0.1 Q-2.25 -0.25 -2.2 -0.55 -2.1 -1.2 -2.8 -1.15 -2.9 -1.05 -3.1 -1.05 L-3.3 -0.95 -4.35 -0.95 -5.35 -0.9 -5.7 -0.85 M-6.3 4.7 L-7.15 4.55 Q-8.05 4.95 -8.65 5.75 -9.0 6.25 -8.85 6.85 L-8.6 7.15 Q-7.65 7.55 -6.85 6.8 L-6.6 6.6 Q-6.05 6.1 -6.0 5.45 -5.95 4.95 -6.3 4.7 M0.35 10.7 L2.95 10.85 Q5.25 11.05 7.2 9.7 L7.35 9.6 Q5.75 9.4 4.1 10.3 L-3.55 9.9 -3.8 9.95 -3.1 10.1 Q-2.45 10.25 -1.9 10.75 L0.05 10.7 0.25 10.75 0.35 10.75 1.35 10.75 0.35 10.7 M-0.15 13.9 Q-0.7 14.5 -0.1 14.95 L0.3 14.95 1.2 14.5 1.5 14.05 Q1.65 13.25 0.75 13.4 0.25 13.45 -0.15 13.9 M1.8 5.25 L2.25 5.25 Q2.8 5.3 2.8 4.8 2.1 4.8 1.8 5.25 M2.65 5.8 L2.5 5.85 Q1.5 6.4 1.7 7.45 L1.95 7.8 Q2.95 8.15 3.0 7.2 L3.05 7.0 Q3.55 6.1 2.65 5.8 M8.6 10.9 Q9.5 10.7 9.75 11.45 9.9 11.95 9.55 12.4 L9.4 12.7 9.1 13.2 Q8.05 13.6 7.75 12.6 7.6 12.1 7.85 11.6 8.1 11.05 8.6 10.9 M4.2 13.25 L3.95 13.4 Q3.7 13.8 4.1 14.05 L4.75 14.3 5.35 14.15 5.5 13.75 5.35 13.35 5.25 13.35 Q6.35 13.55 5.9 14.7 5.7 15.2 5.15 15.25 L3.75 15.45 3.8 14.85 3.45 15.5 3.2 15.5 2.55 15.55 Q1.7 15.7 1.4 15.25 L1.9 15.2 1.05 15.2 1.0 15.25 0.75 15.65 Q-0.5 16.1 -0.75 14.9 -1.0 13.8 0.0 13.25 L0.15 13.15 2.25 13.35 2.55 13.45 4.2 13.25" fill="#e1ac88" fill-rule="evenodd" stroke="none"/>
    <path d="M3.1 -12.4 L2.65 -12.85 2.65 -12.4 Q2.9 -11.65 3.65 -11.7 4.35 -11.85 4.25 -12.55 4.1 -13.4 3.25 -13.55 3.0 -13.2 3.35 -12.95 3.7 -12.75 3.65 -12.4 3.3 -12.1 3.1 -12.4 M-3.1 -13.45 L-0.4 -13.2 0.05 -12.95 Q1.65 -12.55 1.85 -13.95 2.0 -14.95 1.2 -15.55 0.0 -16.5 -1.45 -16.75 L-1.65 -16.75 -1.8 -16.8 Q0.65 -16.5 2.85 -15.65 4.65 -15.0 6.05 -13.75 L6.75 -12.85 6.9 -12.4 6.8 -12.25 6.15 -12.8 6.15 -12.1 Q6.4 -11.6 7.0 -11.7 L7.1 -11.7 7.25 -10.85 7.55 -9.35 4.0 -9.95 3.95 -9.95 Q1.35 -9.55 -0.65 -7.9 L-2.3 -7.25 -4.1 -6.1 -4.45 -5.8 -8.65 -4.4 Q-10.85 -3.65 -13.0 -4.8 -13.05 -5.2 -12.7 -5.4 L-8.15 -5.1 Q-5.9 -5.75 -4.05 -6.95 -2.65 -7.85 -1.9 -9.1 L-1.9 -9.2 Q-1.5 -11.3 -2.65 -13.0 L-2.7 -13.1 -2.75 -13.1 -3.1 -13.45 M0.45 -9.45 L0.25 -9.8 Q-0.2 -10.35 -0.85 -10.15 L0.45 -8.9 0.45 -9.45" fill="#999999" fill-rule="evenodd" stroke="none"/>
    <path d="M0.5 -14.8 L0.65 -15.4 Q0.15 -15.95 -0.5 -15.85 L-0.75 -15.75 -0.95 -15.65 -1.1 -14.9 -1.1 -14.8 Q-0.65 -14.45 -0.1 -14.4 L0.5 -14.8 M-1.8 -16.8 L-1.65 -16.75 -1.45 -16.75 Q0.0 -16.5 1.2 -15.55 2.0 -14.95 1.85 -13.95 1.65 -12.55 0.05 -12.95 L-0.4 -13.2 -3.1 -13.45 -3.55 -13.85 -4.45 -14.4 -4.45 -14.45 -5.2 -14.75 Q-5.3 -15.25 -4.85 -15.95 -4.55 -16.5 -3.95 -16.65 L-2.75 -16.85 -1.8 -16.8" fill="#bac5ba" fill-rule="evenodd" stroke="none"/>
    <path d="M6.9 -12.4 L6.75 -12.85 6.8 -12.85 6.9 -12.4 M-3.7 -17.25 L-3.85 -17.3 -3.7 -17.35 -3.7 -17.25" fill="#993300" fill-rule="evenodd" stroke="none"/>
    <path d="M-0.65 -7.9 Q1.35 -9.55 3.95 -9.95 L4.0 -9.95 7.55 -9.35 7.25 -10.85 7.1 -11.7 7.55 -12.05 7.6 -12.25 7.6 -12.35 7.6 -12.45 7.6 -12.5 7.6 -12.55 7.6 -12.65 7.15 -13.25 Q6.5 -13.25 6.8 -12.85 L6.75 -12.85 6.05 -13.75 Q4.65 -15.0 2.85 -15.65 0.65 -16.5 -1.8 -16.8 L-3.7 -17.25 -3.7 -17.35 0.3 -17.5 Q4.1 -17.25 6.9 -14.55 L8.35 -12.65 Q10.0 -10.1 10.65 -7.1 9.8 -7.0 9.05 -7.4 L7.5 -7.95 1.15 -8.25 -0.65 -7.9" fill="#5e6f5e" fill-rule="evenodd" stroke="none"/>
    <path d="M-2.7 -13.1 L-2.65 -13.0 -2.7 -13.1 M6.8 -12.25 L6.9 -12.4 6.85 -12.25 6.8 -12.25" fill="#cc6600" fill-rule="evenodd" stroke="none"/>
    <path d="M-1.7 17.65 L-1.75 17.6 -1.7 17.6 -1.7 17.65 M-11.15 9.25 Q-11.1 10.1 -11.2 10.95 -13.2 9.55 -13.15 7.45 -12.65 8.2 -11.85 8.1 L-11.8 8.65 -11.15 9.25 M-12.95 2.7 Q-13.3 1.75 -14.05 0.95 -14.1 0.35 -13.45 0.25 -12.6 0.15 -12.0 1.0 L-11.95 1.05 -12.1 1.1 -12.2 1.1 -12.4 1.35 -12.5 2.0 -12.4 2.2 -12.6 2.2 -12.6 2.25 -12.7 2.3 -12.8 2.3 -12.85 2.45 -12.95 2.7 M-10.9 1.1 L-10.95 1.1 -10.9 1.05 -10.9 1.1 M-5.45 -3.8 L-5.6 -3.7 -5.7 -3.55 -5.8 -3.65 -6.35 -3.5 -5.75 -3.7 -5.45 -3.8 M5.5 -1.3 L6.65 -1.1 7.2 -1.0 Q7.4 -1.0 7.55 -0.8 7.8 -0.35 7.35 -0.05 6.35 0.3 5.45 -0.3 5.1 -0.55 5.2 -1.0 L5.5 -1.3 M-6.9 -6.35 L-7.5 -6.2 -7.1 -6.3 -7.05 -6.45 -6.9 -6.35 M-10.4 -11.0 L-9.9 -11.8 -9.8 -11.95 Q-9.35 -12.65 -8.55 -12.95 -7.8 -13.05 -7.8 -12.35 -7.8 -12.05 -8.05 -11.9 L-8.4 -11.7 -8.5 -11.65 -8.55 -11.15 -8.75 -10.75 -9.25 -8.8 -9.3 -8.55 Q-9.35 -7.75 -9.95 -7.3 L-10.2 -7.15 -10.3 -7.05 Q-10.85 -6.85 -11.1 -7.35 L-11.15 -7.75 -11.05 -10.0 -11.0 -10.2 -10.4 -11.0 M-5.7 -0.85 L-5.35 -0.9 -4.35 -0.95 -3.3 -0.95 -3.1 -1.05 Q-2.9 -1.05 -2.8 -1.15 -2.1 -1.2 -2.2 -0.55 -2.25 -0.25 -2.55 -0.1 L-2.85 0.15 -5.2 0.25 -5.4 0.3 -6.65 0.45 -6.8 0.25 Q-6.95 -0.1 -6.7 -0.35 -6.35 -0.8 -5.7 -0.85 M-6.3 4.7 Q-5.95 4.95 -6.0 5.45 -6.05 6.1 -6.6 6.6 L-6.85 6.8 Q-7.65 7.55 -8.6 7.15 L-8.85 6.85 Q-9.0 6.25 -8.65 5.75 -8.05 4.95 -7.15 4.55 L-6.3 4.7 M-1.0 8.45 L-0.95 8.45 -1.0 8.45 M-2.05 8.3 L-2.2 8.4 -2.05 8.3 M-11.3 7.0 L-11.35 7.1 -11.35 7.05 -11.3 7.0 M-0.15 13.9 Q0.25 13.45 0.75 13.4 1.65 13.25 1.5 14.05 L1.2 14.5 0.3 14.95 -0.1 14.95 Q-0.7 14.5 -0.15 13.9 M10.15 2.6 L10.15 2.55 10.15 2.6 M2.65 5.8 Q3.55 6.1 3.05 7.0 L3.0 7.2 Q2.95 8.15 1.95 7.8 L1.7 7.45 Q1.5 6.4 2.5 5.85 L2.65 5.8 M5.25 13.35 L5.35 13.35 5.5 13.75 5.35 14.15 4.75 14.3 4.1 14.05 Q3.7 13.8 3.95 13.4 L4.2 13.25 4.8 13.3 4.85 13.3 5.15 13.3 5.25 13.35" fill="#eed0bb" fill-rule="evenodd" stroke="none"/>
    <path d="M-11.85 -2.65 L-11.85 -2.85 -11.9 -3.05 -11.9 -3.2 -11.9 -3.3 -11.25 -3.3 Q-6.75 -3.4 -2.95 -5.8 1.1 -8.35 6.45 -7.3 7.85 -7.1 9.05 -6.35 L9.05 -6.4 9.6 -6.0 10.15 -5.55 9.95 -5.1 9.75 -4.2 9.75 -3.8 9.8 -3.3 9.75 -3.3 Q9.85 -2.65 10.3 -2.0 11.35 -0.3 10.25 1.55 L10.3 1.55 Q11.75 3.95 10.75 6.65 11.7 9.0 11.0 11.3 L10.95 11.45 10.2 13.2 8.7 15.45 Q7.35 15.35 6.9 16.45 6.4 17.55 5.45 18.15 L5.05 18.1 4.6 18.05 Q5.2 17.7 5.3 16.95 L5.4 16.75 7.15 15.5 Q7.45 14.35 8.75 14.25 L9.25 14.15 9.55 13.65 9.75 13.25 10.35 11.5 10.5 9.95 10.15 7.9 9.85 7.05 9.8 6.65 Q9.9 6.0 10.55 5.55 L10.65 5.4 10.2 3.4 9.95 3.0 9.75 2.75 9.0 2.7 9.1 2.6 9.2 2.55 9.25 2.45 9.3 2.15 8.85 1.8 8.75 1.75 8.7 1.75 8.65 1.75 8.3 1.75 8.0 1.85 6.25 2.0 5.65 2.0 5.55 2.05 Q5.25 2.2 5.35 2.65 L5.5 3.05 6.1 3.6 7.8 3.55 8.15 3.3 Q8.2 3.9 7.55 4.2 L7.0 4.45 Q6.1 4.95 5.25 4.45 L4.75 4.0 4.75 2.8 Q4.5 2.0 3.85 1.75 L3.45 1.5 3.3 1.55 3.25 1.5 2.7 1.6 2.5 1.6 2.45 1.75 1.8 1.9 1.35 2.55 1.05 2.85 -0.45 3.55 -1.05 4.2 Q-1.85 4.95 -2.7 4.55 L-2.8 4.35 -2.75 4.05 -2.55 3.95 -2.1 3.8 -1.95 3.7 -1.15 3.15 -1.1 3.1 Q-0.8 2.85 -0.85 2.5 -0.9 1.9 -1.35 1.85 L-1.35 1.9 -1.7 1.9 -1.8 1.9 -1.85 1.95 -1.95 1.95 -2.15 2.3 Q-2.4 2.65 -2.8 2.8 L-3.15 2.85 -3.35 2.9 -3.85 2.9 -3.9 2.85 -4.0 2.9 -4.05 2.9 -5.1 2.85 -5.45 2.75 -6.25 2.2 Q-6.85 2.15 -6.85 1.55 L-6.85 1.45 -6.7 1.55 Q-4.6 1.8 -2.35 1.1 L-2.05 1.0 -1.1 0.4 -0.95 0.2 -0.5 0.1 -0.4 0.1 -0.05 0.15 0.3 0.2 2.2 -0.15 3.25 -0.2 4.35 -0.15 Q5.15 1.15 6.85 1.2 L6.9 1.15 7.1 0.9 7.6 0.85 7.65 0.85 7.8 0.9 8.15 0.9 8.5 0.7 8.55 0.65 8.5 0.55 9.95 0.45 10.1 -0.25 10.2 -0.45 10.1 -0.75 10.05 -0.95 9.85 -1.1 10.0 -1.25 9.9 -1.45 9.5 -1.9 9.3 -1.9 9.15 -2.45 9.1 -2.95 9.1 -3.0 9.15 -3.2 9.15 -3.35 9.35 -3.75 9.3 -3.7 9.25 -3.6 9.25 -3.65 9.15 -3.45 9.1 -3.15 Q8.9 -3.35 8.95 -3.65 9.1 -4.75 8.55 -5.65 L6.45 -6.5 4.4 -6.8 0.45 -6.5 0.15 -6.4 Q-2.75 -5.65 -5.45 -4.3 -6.85 -3.6 -8.2 -3.0 L-9.15 -2.85 -11.0 -2.6 -11.85 -2.65 M-6.5 1.1 L-6.75 1.3 -6.75 1.25 -6.6 1.1 -6.5 1.1 M5.0 7.45 L5.1 7.4 Q5.65 7.3 5.95 6.85 L6.0 6.8 6.35 7.1 6.3 7.1 6.25 7.05 6.15 7.0 6.25 7.15 6.35 7.3 6.3 7.6 5.95 8.25 Q5.5 8.35 5.2 8.6 L4.9 8.6 4.6 8.7 3.7 9.15 2.3 9.75 2.2 9.75 2.15 9.75 1.95 9.7 1.6 9.6 0.85 9.2 0.8 9.2 0.65 9.1 -0.1 8.7 Q-0.5 8.5 -0.9 8.45 L-0.95 8.45 -1.0 8.45 -1.15 8.4 -1.35 8.45 Q-1.6 8.2 -1.95 8.3 L-2.15 7.95 Q-2.2 7.4 -1.7 7.25 L-1.5 7.3 -1.45 7.7 -1.15 7.8 2.9 8.85 2.95 8.85 3.0 8.8 3.3 8.75 3.7 8.55 3.9 8.4 4.25 8.2 4.75 7.95 5.0 7.65 5.0 7.45 M10.15 2.6 L10.15 2.55 10.15 2.6 M9.35 1.85 L9.0 1.85 9.05 1.85 9.35 1.85" fill="#c46b31" fill-rule="evenodd" stroke="none"/>
    <path d="M-8.2 -3.0 Q-6.85 -3.6 -5.45 -4.3 -2.75 -5.65 0.15 -6.4 L0.45 -6.5 4.4 -6.8 6.45 -6.5 8.55 -5.65 Q9.1 -4.75 8.95 -3.65 8.9 -3.35 9.1 -3.15 L9.1 -3.0 9.1 -2.95 9.15 -2.45 9.3 -1.9 Q8.25 -1.95 7.6 -2.85 L7.35 -3.15 Q6.9 -3.5 6.8 -4.0 L7.0 -4.1 6.95 -4.15 6.8 -4.3 6.8 -4.55 6.3 -4.75 Q3.25 -5.75 0.05 -5.3 L-0.1 -5.25 -4.45 -4.1 -5.45 -3.8 -5.75 -3.7 -6.35 -3.5 -5.8 -3.65 -5.7 -3.55 Q-5.45 -3.2 -5.55 -2.6 L-5.6 -2.3 Q-5.8 -1.6 -6.35 -1.1 L-6.9 -0.9 -7.05 -0.85 -7.65 -1.05 -8.0 -1.7 -8.0 -1.75 -7.9 -2.3 -7.75 -3.1 -8.2 -3.0 M10.0 -1.25 L9.85 -1.1 10.05 -0.95 10.1 -0.75 10.2 -0.45 10.1 -0.25 9.95 0.45 8.5 0.55 7.65 0.2 8.7 0.25 9.55 -0.9 10.0 -1.25 M-0.5 0.1 L-0.95 0.2 -0.85 0.1 -0.5 0.1 M-6.85 1.45 L-6.85 1.55 Q-6.85 2.15 -6.25 2.2 L-5.45 2.75 -5.1 2.85 -5.7 2.8 -5.7 2.85 -5.75 2.9 -5.75 2.95 -5.45 3.15 -5.4 3.2 Q-4.5 4.4 -2.9 4.1 L-2.75 4.05 -2.8 4.35 -2.7 4.55 Q-1.85 4.95 -1.05 4.2 L-0.45 3.55 1.05 2.85 1.35 2.55 1.8 1.9 2.45 1.75 1.65 2.35 1.6 2.4 1.6 2.5 1.55 2.55 Q1.6 3.3 1.15 3.95 L0.9 4.35 0.75 4.5 0.65 4.6 -0.5 4.5 -0.6 4.45 -1.15 4.75 -1.6 5.0 Q-2.75 5.7 -4.05 5.3 L-4.25 5.2 -5.95 4.4 -6.75 3.6 -7.05 3.2 -7.5 2.2 -7.55 1.75 Q-7.6 1.25 -7.2 0.95 L-7.1 0.9 -7.05 0.9 -6.25 0.95 -6.5 1.1 -6.6 1.1 -6.75 1.25 -6.9 1.4 -6.85 1.45 M-4.0 2.9 L-3.9 2.85 -3.85 2.9 -4.0 2.9 M3.3 1.55 L3.45 1.5 3.85 1.75 3.4 1.65 3.35 1.55 3.3 1.55 M4.75 4.0 L5.25 4.45 Q6.1 4.95 7.0 4.45 L7.55 4.2 Q8.2 3.9 8.15 3.3 L9.1 2.6 9.0 2.7 9.75 2.75 9.95 3.0 10.2 3.4 10.65 5.4 10.55 5.55 Q9.9 6.0 9.8 6.65 L9.85 7.05 10.15 7.9 10.5 9.95 10.35 11.5 9.75 13.25 9.55 13.65 9.25 14.15 8.75 14.25 Q7.45 14.35 7.15 15.5 L5.4 16.75 5.3 16.95 Q5.2 17.7 4.6 18.05 L1.0 18.25 0.7 18.3 -0.2 18.3 Q-1.05 18.15 -1.7 17.65 L-1.7 17.6 -1.75 17.6 -2.8 16.4 -5.9 16.2 -6.6 15.1 Q-8.5 12.0 -10.7 9.2 L-11.2 8.6 -11.15 9.25 -11.8 8.65 -11.85 8.1 -11.85 8.05 -11.65 7.7 -10.95 7.75 -11.35 7.1 -11.3 7.0 Q-10.4 5.7 -11.05 4.5 L-11.45 3.85 -12.25 2.65 -12.4 2.2 -12.5 2.0 -12.4 1.35 -12.2 1.1 -12.1 1.1 -11.95 1.05 Q-11.45 1.75 -10.75 1.45 L-10.5 1.95 -10.45 2.1 Q-9.9 2.8 -9.85 3.75 L-9.8 4.05 -9.5 4.55 -9.35 5.0 Q-9.15 5.8 -9.4 6.7 L-9.5 7.35 -9.65 8.35 -9.25 8.9 Q-9.05 9.35 -9.0 9.9 L-8.35 10.6 -7.45 11.75 -6.95 12.45 -6.1 13.35 -4.15 15.05 -3.95 15.05 -3.3 15.05 -2.9 14.7 -2.45 14.5 -2.3 13.8 -1.85 13.2 -2.05 13.4 -2.1 13.35 -2.45 13.25 Q-2.9 13.05 -2.9 12.5 L-2.9 12.4 -2.9 12.35 -2.75 11.95 -2.6 11.75 -2.55 11.7 -2.45 11.65 -2.35 11.6 Q-1.2 11.5 -0.4 12.3 L1.65 12.1 2.0 12.0 4.9 12.1 4.95 12.05 5.3 11.6 6.5 11.4 6.5 11.35 6.8 10.3 Q7.6 10.6 8.15 10.05 L8.2 9.8 Q7.6 9.0 6.5 9.05 L6.3 8.75 5.85 8.55 5.2 8.6 Q5.5 8.35 5.95 8.25 L6.3 7.6 6.35 7.3 Q6.9 8.0 7.95 8.15 L9.85 8.45 10.25 8.55 Q9.55 7.8 8.3 7.7 L8.05 7.7 6.35 7.1 6.0 6.8 Q6.55 5.9 5.45 5.65 L4.85 5.7 4.85 5.6 4.9 5.35 4.9 4.6 5.0 4.3 4.75 4.05 4.75 4.0 M8.7 1.75 L8.75 1.75 8.85 1.8 8.7 1.75 M-8.0 -6.05 Q-8.55 -6.35 -8.5 -7.15 L-8.5 -9.4 -8.25 -9.8 -7.85 -9.9 -7.4 -9.7 Q-6.15 -9.65 -5.6 -8.3 L-5.4 -7.85 -5.2 -7.2 Q-6.0 -6.7 -6.85 -6.4 L-6.9 -6.35 -7.05 -6.45 -7.1 -6.3 -7.5 -6.2 -7.9 -6.1 -8.0 -6.05 M-2.2 8.4 L-2.45 8.5 -2.75 8.7 -3.55 8.85 -3.9 8.9 -3.95 8.9 Q-5.35 8.75 -6.55 9.35 L-6.7 9.4 -6.85 9.45 -6.85 9.4 -6.5 8.7 -6.45 8.55 -5.95 8.5 -5.2 8.45 -5.0 8.45 -4.2 8.35 -4.1 8.2 Q-3.6 7.6 -2.9 7.35 L-1.55 7.2 -1.5 7.3 -1.7 7.25 Q-2.2 7.4 -2.15 7.95 L-1.95 8.3 -2.05 8.3 -2.2 8.4 M2.8 8.3 L2.95 8.3 2.85 8.35 2.8 8.3 M2.15 9.75 L2.2 9.75 2.3 9.75 2.2 9.8 2.15 9.75 M8.6 10.9 Q8.1 11.05 7.85 11.6 7.6 12.1 7.75 12.6 8.05 13.6 9.1 13.2 L9.4 12.7 9.55 12.4 Q9.9 11.95 9.75 11.45 9.5 10.7 8.6 10.9 M4.2 13.25 L2.55 13.45 2.25 13.35 0.15 13.15 0.0 13.25 Q-1.0 13.8 -0.75 14.9 -0.5 16.1 0.75 15.65 L1.0 15.25 1.05 15.2 1.9 15.2 1.4 15.25 Q1.7 15.7 2.55 15.55 L3.2 15.5 3.45 15.5 2.65 17.3 3.35 16.7 Q4.4 16.75 4.0 16.1 L3.75 15.45 5.15 15.25 Q5.7 15.2 5.9 14.7 6.35 13.55 5.25 13.35 L5.15 13.3 4.85 13.3 4.8 13.3 4.2 13.25" fill="#d89263" fill-rule="evenodd" stroke="none"/>
    <path d="M9.1 -3.15 L9.15 -3.45 9.25 -3.65 9.25 -3.6 9.3 -3.7 9.35 -3.75 9.15 -3.35 9.15 -3.2 9.1 -3.0 9.1 -3.15 M9.35 1.85 L9.05 1.85 9.0 1.85 9.35 1.85" fill="#d17e47" fill-rule="evenodd" stroke="none"/>
    <path d="M5.65 0.1 L6.4 0.15 7.15 0.2 5.65 0.1 M-5.2 8.45 L-5.0 8.4 -5.0 8.45 -5.2 8.45 M2.7 8.3 L2.7 8.25 2.8 8.3 2.7 8.3 M0.35 10.7 L1.35 10.75 0.35 10.75 0.25 10.75 0.05 10.7 0.35 10.7 M-11.45 5.55 L-11.6 4.55 -11.6 4.5 -11.55 4.6 -11.55 4.65 -11.45 5.55 M14.45 3.75 L14.45 3.85 14.35 3.85 14.25 3.75 14.3 3.65 14.35 3.65 14.45 3.7 14.45 3.75" fill="#cccccc" fill-rule="evenodd" stroke="none"/>
  </g>
</svg>
