<?xml version="1.0" encoding="UTF-8" standalone="no"?>
<svg xmlns:xlink="http://www.w3.org/1999/xlink" height="52.95px" width="46.4px" xmlns="http://www.w3.org/2000/svg">
  <g transform="matrix(1.0, 0.0, 0.0, 1.0, 23.2, 30.45)">
    <path d="M15.55 -26.5 L15.7 -27.7 11.0 -26.85 11.35 -25.75 Q11.6 -25.1 12.1 -24.55 L14.5 -25.6 Q15.25 -25.85 15.55 -26.5 M16.5 -27.2 Q15.75 -26.5 16.0 -25.55 17.7 -24.4 19.3 -24.05 18.2 -26.05 16.5 -27.2 M16.95 -28.95 Q18.8 -26.1 21.25 -23.45 22.7 -22.85 23.2 -21.25 21.95 -17.1 19.4 -13.45 19.45 -11.6 20.4 -10.05 21.35 -8.6 21.25 -6.75 20.45 -8.6 19.15 -10.45 17.8 -12.25 18.0 -14.45 19.5 -15.45 20.65 -16.9 21.8 -18.4 21.4 -20.3 19.2 -23.65 15.35 -24.7 14.2 -24.9 13.3 -24.25 12.45 -23.65 11.45 -23.45 7.6 -18.95 9.95 -13.45 12.35 -10.25 11.45 -6.3 13.7 -4.0 13.1 -0.7 12.1 0.15 12.1 1.35 12.05 2.6 11.45 3.5 12.35 5.1 13.7 5.95 L13.75 10.0 Q13.85 12.2 15.55 13.5 16.3 15.05 15.65 16.8 14.35 17.9 12.6 17.95 11.8 20.95 9.15 21.4 L4.1 22.5 0.65 20.65 Q-1.6 22.3 -4.4 21.7 -6.55 18.1 -10.35 16.95 -14.15 15.8 -14.7 11.55 L-12.65 7.75 Q-11.5 5.8 -12.55 3.7 -12.65 2.75 -11.9 2.1 -13.0 -1.0 -12.25 -4.3 -10.25 -5.85 -10.95 -8.05 L-9.45 -11.6 Q-8.65 -13.45 -9.65 -15.4 L-11.75 -17.35 Q-12.35 -16.65 -11.75 -15.75 L-12.15 -13.75 Q-12.3 -12.6 -13.55 -12.25 L-14.9 -12.25 Q-13.7 -13.05 -12.7 -14.45 -12.8 -17.4 -14.55 -19.5 -16.65 -18.6 -17.7 -16.6 L-19.45 -12.6 Q-19.95 -10.1 -18.4 -8.05 L-18.75 -4.4 Q-19.0 -2.6 -20.75 -1.65 -21.8 -0.95 -23.05 -1.2 -22.55 -2.2 -21.45 -2.45 -20.35 -2.8 -19.9 -3.95 -19.35 -6.3 -20.85 -8.05 L-23.2 -10.0 Q-21.55 -14.45 -21.4 -19.5 -20.35 -20.35 -18.95 -20.85 -17.6 -21.3 -16.65 -22.75 -15.7 -22.85 -14.7 -22.35 -13.8 -21.8 -13.25 -22.9 -12.8 -24.1 -13.3 -25.05 -13.85 -26.0 -13.75 -27.15 -11.4 -29.1 -8.85 -30.45 L-2.75 -29.95 Q-2.35 -27.3 -1.25 -24.85 -0.1 -22.45 2.6 -21.25 5.85 -22.0 7.2 -25.05 8.45 -28.15 11.9 -28.1 14.2 -29.45 16.95 -28.95 M11.0 -24.6 L10.55 -25.85 Q10.3 -26.95 9.15 -26.35 8.8 -25.2 9.25 -24.2 L9.65 -23.6 Q10.65 -23.15 11.25 -24.05 L11.0 -24.6 M4.45 -17.65 L5.05 -16.7 Q6.55 -16.3 7.7 -17.4 7.3 -19.0 8.15 -20.25 L9.85 -22.75 9.05 -23.55 7.85 -24.75 Q6.25 -22.05 3.9 -20.2 3.85 -18.8 4.45 -17.65 M3.8 -10.85 L3.95 -10.7 Q5.95 -10.6 7.75 -11.85 8.8 -12.75 8.7 -13.8 L6.85 -12.7 Q5.9 -12.05 4.75 -12.35 L3.65 -13.65 Q3.0 -14.3 3.3 -15.1 L4.95 -13.35 6.6 -13.45 Q8.1 -14.1 8.2 -15.8 L8.05 -15.95 6.85 -15.9 6.7 -15.8 5.1 -15.6 Q3.05 -17.0 3.3 -19.65 L3.15 -19.8 Q1.5 -21.2 -0.75 -20.8 -3.15 -20.35 -4.7 -18.75 L-5.0 -18.6 -5.0 -18.65 -6.05 -18.4 Q-6.85 -18.4 -7.55 -18.8 L-7.6 -18.85 -8.1 -18.7 -8.3 -18.6 Q-9.15 -18.1 -9.4 -17.15 L-9.55 -16.95 -8.45 -15.6 -8.3 -15.35 -8.1 -14.9 -8.2 -15.15 -8.05 -15.35 -7.2 -15.9 -6.85 -16.15 -6.25 -16.55 -6.3 -16.4 -7.5 -13.7 -7.65 -13.4 -7.95 -13.1 -8.35 -12.0 -9.95 -8.45 -9.6 -7.95 Q-7.5 -8.7 -5.6 -7.4 L-4.8 -6.8 -2.65 -5.05 -2.05 -4.55 Q-1.4 -2.25 1.0 -1.9 L0.9 -1.6 Q0.7 -1.2 0.25 -1.35 L-0.4 -1.4 -0.95 -1.2 -0.35 -0.7 0.3 0.2 0.3 0.25 0.4 0.4 Q-0.25 1.0 -0.5 0.3 -0.75 -0.4 -1.45 -0.25 -2.5 2.65 -4.9 4.2 L-6.35 4.95 Q-7.8 5.35 -8.9 4.3 -10.0 3.25 -11.35 2.95 L-11.6 3.8 Q-11.45 5.25 -10.2 6.1 L-8.6 7.0 -7.75 7.3 -9.6 7.4 -9.65 7.35 -11.35 6.7 -13.7 12.0 -13.1 12.7 Q-11.5 14.45 -9.3 15.6 -6.7 16.95 -5.2 19.55 -4.5 20.1 -3.8 20.15 L-3.45 20.15 -2.85 20.05 -2.7 20.0 -2.65 19.95 Q-1.35 19.35 0.05 19.3 0.3 16.95 2.05 15.1 L2.3 15.45 2.05 16.25 2.0 16.3 1.6 16.85 1.35 17.35 1.35 17.4 1.4 17.35 Q1.1 18.15 1.55 18.9 L1.8 19.2 4.15 21.65 6.85 21.2 8.1 20.9 8.5 20.75 9.4 20.5 11.5 17.3 11.45 16.65 Q11.2 14.4 9.05 12.65 L7.15 12.55 5.45 12.65 Q6.1 12.1 6.95 11.8 L7.9 11.5 8.15 11.45 9.4 11.35 9.45 11.4 10.25 12.0 10.3 12.05 10.9 12.7 10.95 12.7 11.2 13.05 11.8 13.9 12.55 15.55 12.55 15.65 12.65 15.9 Q12.9 16.85 13.55 16.45 14.05 16.0 14.7 16.05 L14.75 16.05 14.55 14.45 14.1 14.15 14.0 14.1 Q12.4 13.05 12.4 11.4 L12.45 10.9 12.9 6.6 Q11.3 5.35 10.25 3.6 9.7 2.75 8.9 2.3 L8.6 2.15 8.55 2.15 7.85 1.95 7.05 1.85 6.9 2.0 6.2 2.7 Q5.3 3.3 4.2 3.3 L0.85 3.45 Q-1.0 4.65 -2.05 6.45 -4.7 10.25 -7.8 13.55 L-8.8 14.6 -8.8 14.55 -8.75 14.55 -8.5 13.75 -7.3 11.45 Q-8.2 11.5 -8.8 12.3 -9.35 12.95 -10.0 12.6 L-10.2 12.45 Q-9.1 11.2 -7.6 10.4 L-6.8 9.95 Q-4.8 9.05 -3.7 6.95 -2.3 3.05 1.15 2.5 L4.75 1.7 7.55 0.55 Q9.6 0.8 10.8 2.6 11.6 1.5 10.55 0.6 L8.85 -1.2 Q8.2 -0.45 7.4 -0.8 L9.65 -3.9 Q9.85 -5.25 10.55 -6.5 11.2 -7.75 10.45 -8.95 L9.85 -8.45 Q9.3 -8.85 9.65 -9.15 L10.0 -9.9 10.15 -11.35 Q10.2 -12.15 9.4 -12.2 7.5 -9.9 4.6 -9.75 L4.5 -9.8 4.2 -9.95 3.9 -10.1 Q3.25 -10.6 3.1 -11.35 L3.8 -10.85 M1.8 -13.85 L1.85 -13.85 1.8 -13.8 1.8 -13.85 M9.65 -1.7 L9.6 -1.65 10.6 -0.5 Q11.15 0.15 11.8 -0.2 12.5 -0.95 12.4 -2.0 L11.9 -1.95 12.35 -2.0 12.3 -2.1 12.15 -2.2 11.8 -2.4 11.8 -2.3 11.65 -2.0 11.25 -1.95 10.8 -2.35 10.7 -2.3 10.65 -2.35 10.75 -2.6 11.15 -2.6 11.45 -2.95 11.45 -3.2 11.5 -3.2 11.85 -3.25 12.05 -3.3 11.7 -4.1 11.25 -4.45 11.0 -4.1 10.7 -3.6 10.65 -3.6 10.45 -3.2 10.2 -2.8 9.95 -2.35 9.65 -1.7 M22.0 -21.05 L22.2 -20.65 22.2 -21.0 22.2 -21.6 Q21.95 -22.2 21.25 -22.3 L22.0 -21.05 M0.85 14.7 L0.95 14.3 1.0 14.15 0.9 14.3 1.05 14.1 0.95 14.35 0.75 14.9 0.85 14.7 M-10.55 -28.45 Q-13.0 -27.7 -12.45 -25.75 -11.9 -23.8 -12.05 -22.05 L-11.7 -22.25 -11.55 -25.55 Q-10.9 -26.8 -9.4 -27.15 -9.3 -28.15 -9.6 -28.95 L-10.55 -28.45 M-8.55 -28.25 L-8.6 -28.0 Q-8.25 -27.1 -7.5 -27.4 L-6.2 -27.55 -6.0 -27.5 Q-4.9 -26.6 -4.85 -25.05 L-4.25 -25.05 -2.85 -25.05 Q-2.6 -26.8 -3.4 -28.95 L-3.7 -29.05 -4.05 -29.15 -6.95 -29.3 Q-8.4 -29.65 -8.55 -28.25 M-6.1 -26.15 L-9.25 -26.0 Q-11.0 -24.8 -10.55 -22.25 -8.95 -20.45 -6.8 -19.8 -5.45 -19.95 -4.5 -20.75 L-6.1 -26.15 M-20.75 -10.8 L-20.7 -10.85 Q-20.1 -13.9 -18.7 -16.55 L-19.2 -17.15 -20.35 -18.55 Q-20.6 -14.35 -22.0 -10.5 -21.3 -10.5 -20.75 -10.8 M-2.25 -23.55 L-1.8 -23.95 -1.75 -24.05 Q-2.3 -24.7 -3.05 -24.5 L-3.6 -24.35 -4.5 -24.2 Q-4.55 -23.5 -4.2 -22.85 -3.0 -23.0 -2.25 -23.55 M-1.0 -22.75 Q-0.5 -23.45 -1.35 -23.7 L-1.6 -23.7 -2.15 -23.25 -2.2 -22.8 Q-3.05 -22.65 -3.7 -22.1 -3.85 -21.55 -3.4 -21.15 -2.1 -21.6 -1.35 -22.5 L-1.1 -22.65 -1.0 -22.75 M-9.4 -18.7 L-9.2 -19.2 -8.85 -19.75 -8.45 -19.5 -8.85 -19.8 Q-9.8 -20.35 -10.75 -20.7 L-10.8 -20.6 Q-11.1 -21.1 -11.85 -21.0 L-12.15 -21.0 -13.5 -21.0 -13.5 -20.3 -13.2 -19.85 Q-13.55 -18.7 -12.3 -18.6 L-12.05 -18.8 -12.2 -18.65 -12.15 -18.65 -11.8 -18.4 -10.95 -18.35 -10.5 -17.85 -9.9 -17.3 -9.4 -18.7 M-14.6 -21.1 L-14.6 -21.15 -15.15 -21.45 -15.15 -20.35 -15.15 -20.3 -15.1 -20.3 -14.55 -20.3 -14.55 -20.95 -14.6 -21.1 M-18.35 -17.75 Q-17.1 -18.7 -15.95 -20.0 L-15.75 -20.2 -15.65 -20.3 -15.85 -20.75 Q-16.45 -21.9 -17.5 -20.95 -18.7 -19.85 -19.9 -19.5 -19.65 -18.45 -18.4 -17.75 L-18.35 -17.75 M-5.3 -5.85 Q-6.7 -6.85 -8.3 -7.4 -9.9 -6.05 -11.25 -4.1 L-11.25 -0.25 -10.05 1.45 -7.65 3.85 Q-5.6 4.25 -4.0 2.9 L-2.4 0.15 Q-1.65 -1.3 -2.4 -3.05 L-2.7 -3.45 -5.1 -5.75 -5.3 -5.85 M-8.2 -4.0 L-8.1 -4.05 Q-7.1 -4.15 -6.75 -3.25 L-6.65 -3.0 -6.55 -2.8 -6.5 -2.8 -5.35 -2.5 Q-4.75 -2.3 -4.2 -1.9 L-5.4 -1.95 -6.7 -1.9 -6.75 -1.85 -6.95 -1.6 -7.3 -1.3 -8.2 -1.35 Q-8.55 -1.45 -8.75 -1.65 L-9.25 -1.55 -9.35 -1.55 -9.45 -1.75 Q-9.75 -2.45 -9.1 -2.45 L-9.05 -2.45 -8.8 -2.5 Q-8.45 -2.15 -7.85 -2.3 L-7.6 -2.6 -7.45 -2.85 -7.45 -3.25 Q-7.6 -3.95 -8.2 -4.0 M-19.6 -7.7 Q-19.75 -9.2 -21.1 -10.05 -20.85 -8.8 -19.6 -7.7" fill="#000000" fill-rule="evenodd" stroke="none"/>
    <path d="M15.55 -26.5 L14.05 -26.7 13.9 -26.65 11.35 -25.75 11.0 -26.85 15.7 -27.7 15.55 -26.5 M9.25 -24.2 Q8.8 -25.2 9.15 -26.35 10.3 -26.95 10.55 -25.85 L11.0 -24.6 10.05 -24.95 Q9.7 -25.0 9.5 -24.7 L9.25 -24.2 M9.05 -23.55 Q8.25 -23.05 7.8 -22.15 L5.45 -17.5 4.45 -17.65 Q3.85 -18.8 3.9 -20.2 6.25 -22.05 7.85 -24.75 L9.05 -23.55 M-10.55 -28.45 L-9.6 -28.95 Q-9.3 -28.15 -9.4 -27.15 -10.9 -26.8 -11.55 -25.55 L-11.7 -22.25 -12.05 -22.05 Q-11.9 -23.8 -12.45 -25.75 -13.0 -27.7 -10.55 -28.45 M-20.75 -10.8 Q-21.3 -10.5 -22.0 -10.5 -20.6 -14.35 -20.35 -18.55 L-19.2 -17.15 Q-19.9 -17.0 -20.05 -16.15 L-20.5 -14.4 Q-21.1 -12.65 -20.75 -10.85 L-20.75 -10.8 M-2.25 -23.55 Q-3.0 -23.0 -4.2 -22.85 -4.55 -23.5 -4.5 -24.2 L-3.6 -24.35 -3.5 -23.7 -2.85 -23.2 -2.25 -23.55 M-1.35 -22.5 Q-2.1 -21.6 -3.4 -21.15 -3.85 -21.55 -3.7 -22.1 -3.05 -22.65 -2.2 -22.8 L-2.2 -22.75 -1.55 -22.8 -1.35 -22.8 -1.1 -22.8 -1.35 -22.5 M-8.85 -19.75 L-9.2 -19.2 -9.4 -18.7 -9.8 -18.9 -9.8 -18.95 Q-10.0 -19.45 -10.55 -19.45 L-12.3 -19.8 -12.7 -19.55 -13.2 -19.85 -13.5 -20.3 -13.5 -21.0 -12.15 -21.0 -11.85 -21.0 Q-11.1 -21.1 -10.8 -20.6 L-10.75 -20.7 Q-9.8 -20.35 -8.85 -19.8 L-8.85 -19.75 M-15.85 -20.75 Q-17.25 -20.25 -18.4 -19.05 -19.1 -18.35 -18.35 -17.75 L-18.4 -17.75 Q-19.65 -18.45 -19.9 -19.5 -18.7 -19.85 -17.5 -20.95 -16.45 -21.9 -15.85 -20.75" fill="#cc9933" fill-rule="evenodd" stroke="none"/>
    <path d="M22.0 -21.05 L22.2 -21.0 22.2 -20.65 22.0 -21.05 M-8.55 -28.25 L-8.55 -28.2 -8.55 -28.15 -8.6 -28.0 -8.55 -28.25 M-14.6 -21.1 L-14.65 -21.15 -14.6 -21.15 -14.6 -21.1 M-15.15 -20.35 L-15.1 -20.3 -15.15 -20.3 -15.15 -20.35" fill="#99cc66" fill-rule="evenodd" stroke="none"/>
    <path d="M11.35 -25.75 L13.9 -26.65 14.05 -26.7 15.55 -26.5 Q15.25 -25.85 14.5 -25.6 L12.1 -24.55 Q11.6 -25.1 11.35 -25.75 M16.5 -27.2 Q18.2 -26.05 19.3 -24.05 17.7 -24.4 16.0 -25.55 15.75 -26.5 16.5 -27.2 M11.0 -24.6 L11.25 -24.05 Q10.65 -23.15 9.65 -23.6 L9.25 -24.2 9.5 -24.7 Q9.7 -25.0 10.05 -24.95 L11.0 -24.6 M4.45 -17.65 L5.45 -17.5 7.8 -22.15 Q8.25 -23.05 9.05 -23.55 L9.85 -22.75 8.15 -20.25 Q7.3 -19.0 7.7 -17.4 6.55 -16.3 5.05 -16.7 L4.45 -17.65 M22.2 -21.0 L22.0 -21.05 21.25 -22.3 Q21.95 -22.2 22.2 -21.6 L22.2 -21.0 M-8.6 -28.0 L-8.55 -28.15 -8.55 -28.2 -7.85 -28.5 Q-6.75 -28.7 -6.25 -27.8 L-6.2 -27.55 -7.5 -27.4 Q-8.25 -27.1 -8.6 -28.0 M-4.25 -25.05 L-4.35 -25.25 Q-4.55 -26.3 -4.4 -27.4 L-4.0 -29.15 -3.7 -29.05 -3.4 -28.95 Q-2.6 -26.8 -2.85 -25.05 L-4.25 -25.05 M-19.2 -17.15 L-18.7 -16.55 Q-20.1 -13.9 -20.7 -10.85 L-20.75 -10.85 Q-21.1 -12.65 -20.5 -14.4 L-20.05 -16.15 Q-19.9 -17.0 -19.2 -17.15 M-3.6 -24.35 L-3.05 -24.5 Q-2.3 -24.7 -1.75 -24.05 L-1.8 -23.95 -2.25 -23.55 -2.85 -23.2 -3.5 -23.7 -3.6 -24.35 M-2.2 -22.8 L-2.15 -23.25 -1.6 -23.7 -1.35 -23.7 Q-0.5 -23.45 -1.0 -22.75 L-1.1 -22.8 -1.35 -22.8 -1.55 -22.8 -2.2 -22.75 -2.2 -22.8 M-13.2 -19.85 L-12.7 -19.55 -12.3 -19.8 -10.55 -19.45 Q-10.0 -19.45 -9.8 -18.95 L-9.8 -18.9 -9.4 -18.7 -9.9 -17.3 -10.5 -17.85 -10.95 -18.35 -11.8 -18.4 -12.15 -18.65 -12.2 -18.65 -12.05 -18.8 -12.3 -18.6 Q-13.55 -18.7 -13.2 -19.85 M-14.6 -21.15 L-14.65 -21.15 -14.6 -21.1 -14.55 -20.95 -14.55 -20.3 -15.1 -20.3 -15.15 -20.35 -15.15 -21.45 -14.6 -21.15 M-18.35 -17.75 Q-19.1 -18.35 -18.4 -19.05 -17.25 -20.25 -15.85 -20.75 L-15.65 -20.3 -15.75 -20.2 -15.95 -20.0 Q-17.1 -18.7 -18.35 -17.75 M-19.6 -7.7 Q-20.85 -8.8 -21.1 -10.05 -19.75 -9.2 -19.6 -7.7" fill="#996600" fill-rule="evenodd" stroke="none"/>
    <path d="M9.65 -1.7 L10.1 -1.35 11.1 -1.5 11.9 -1.95 12.4 -2.0 Q12.5 -0.95 11.8 -0.2 11.15 0.15 10.6 -0.5 L9.6 -1.65 9.65 -1.7 M11.25 -1.95 L11.05 -1.9 Q10.3 -1.75 9.95 -2.35 L10.2 -2.8 10.45 -3.2 10.45 -3.05 Q10.55 -2.75 10.75 -2.6 L10.65 -2.35 10.7 -2.3 10.8 -2.35 11.25 -1.95 M10.7 -3.6 L11.0 -4.1 11.05 -4.1 11.2 -4.0 11.4 -3.8 11.85 -3.25 11.5 -3.2 11.45 -3.2 10.8 -3.65 10.7 -3.6 M-8.55 -28.2 L-8.55 -28.25 Q-8.4 -29.65 -6.95 -29.3 L-4.05 -29.15 -4.0 -29.15 -4.4 -27.4 Q-4.55 -26.3 -4.35 -25.25 L-4.25 -25.05 -4.85 -25.05 Q-4.9 -26.6 -6.0 -27.5 L-6.2 -27.55 -6.25 -27.8 Q-6.75 -28.7 -7.85 -28.5 L-8.55 -28.2 M-10.05 1.45 L-11.25 -0.25 -11.25 -4.1 Q-9.9 -6.05 -8.3 -7.4 -6.7 -6.85 -5.3 -5.85 L-5.15 -5.7 -3.45 -3.25 Q-2.65 -1.8 -3.45 -0.4 L-4.7 2.4 Q-6.15 3.0 -7.7 3.15 L-8.8 2.2 Q-9.4 1.7 -10.05 1.45 M-8.2 -4.0 L-8.45 -4.0 -8.5 -4.0 -8.75 -3.9 -8.8 -3.85 -9.0 -3.6 -9.0 -2.85 -8.95 -2.7 -8.8 -2.5 -9.05 -2.45 -9.1 -2.45 Q-9.75 -2.45 -9.45 -1.75 L-9.95 -2.65 -10.0 -2.9 Q-9.9 -4.0 -9.0 -4.6 L-8.25 -4.9 Q-7.25 -4.85 -6.75 -3.9 -6.45 -3.35 -6.5 -2.8 L-6.55 -2.8 -6.65 -3.0 -6.75 -3.25 Q-7.1 -4.15 -8.1 -4.05 L-8.2 -4.0 M-5.35 -2.5 L-5.35 -2.75 Q-5.2 -6.0 -8.55 -6.05 L-9.95 -5.25 Q-11.7 -3.8 -11.0 -1.7 -10.65 -0.65 -9.7 -0.2 -8.05 0.55 -6.45 -0.2 -5.35 -0.7 -5.4 -1.95 L-4.2 -1.9 Q-4.75 -2.3 -5.35 -2.5 M-7.3 -1.3 L-8.65 -1.25 Q-9.0 -1.35 -9.25 -1.55 L-8.75 -1.65 Q-8.55 -1.45 -8.2 -1.35 L-7.3 -1.3" fill="#cc9900" fill-rule="evenodd" stroke="none"/>
    <path d="M-4.0 -29.15 L-4.05 -29.15 -3.7 -29.05 -4.0 -29.15" fill="#cc6600" fill-rule="evenodd" stroke="none"/>
    <path d="M-20.7 -10.85 L-20.75 -10.8 -20.75 -10.85 -20.7 -10.85 M-1.0 -22.75 L-1.1 -22.65 -1.35 -22.5 -1.1 -22.8 -1.0 -22.75" fill="#339999" fill-rule="evenodd" stroke="none"/>
    <path d="M3.15 -19.8 L3.3 -19.65 Q3.05 -17.0 5.1 -15.6 L6.7 -15.8 6.85 -15.9 8.05 -15.95 8.2 -15.8 Q8.1 -14.1 6.6 -13.45 L4.95 -13.35 3.3 -15.1 Q3.0 -14.3 3.65 -13.65 L4.75 -12.35 Q5.9 -12.05 6.85 -12.7 L8.7 -13.8 Q8.8 -12.75 7.75 -11.85 5.95 -10.6 3.95 -10.7 L3.8 -10.85 3.7 -11.2 1.85 -13.85 1.8 -13.85 0.65 -15.55 0.35 -16.3 Q0.25 -17.3 0.95 -18.0 L2.8 -19.7 2.95 -19.75 3.15 -19.8 M3.9 -10.1 L4.2 -9.95 4.5 -9.8 4.6 -9.75 Q7.5 -9.9 9.4 -12.2 10.2 -12.15 10.15 -11.35 L10.0 -9.9 9.65 -9.15 Q9.3 -8.85 9.85 -8.45 L10.45 -8.95 Q11.2 -7.75 10.55 -6.5 9.85 -5.25 9.65 -3.9 L7.4 -0.8 Q8.2 -0.45 8.85 -1.2 L10.55 0.6 Q11.6 1.5 10.8 2.6 9.6 0.8 7.55 0.55 L4.75 1.7 1.15 2.5 Q-2.3 3.05 -3.7 6.95 -4.8 9.05 -6.8 9.95 L-7.6 10.4 -8.15 10.3 -8.15 10.25 -9.9 9.05 -10.35 8.45 -10.35 8.3 -10.35 8.15 -10.35 8.0 -10.3 7.8 -9.65 7.35 -9.6 7.4 -7.75 7.3 -8.6 7.0 -7.05 6.9 Q-6.85 6.9 -6.65 6.7 L-4.9 4.2 Q-2.5 2.65 -1.45 -0.25 -0.75 -0.4 -0.5 0.3 -0.25 1.0 0.4 0.4 L0.3 0.25 0.3 0.2 0.6 0.15 1.15 0.2 3.35 -0.05 3.65 -0.35 4.05 -0.8 4.35 -0.95 4.5 -1.2 4.9 -1.5 5.2 -2.0 Q5.65 -3.65 4.0 -4.15 L3.9 -4.4 Q2.1 -4.45 0.6 -5.55 L0.65 -5.65 -0.3 -6.55 -0.35 -6.55 -0.45 -6.55 -0.5 -6.55 -0.8 -6.75 -1.4 -7.15 Q-2.15 -7.5 -1.9 -8.3 L-1.8 -8.45 Q-1.3 -8.85 -0.6 -9.05 0.75 -9.2 1.8 -8.4 2.05 -8.2 2.35 -8.1 L3.65 -8.55 3.9 -8.65 3.9 -8.75 3.95 -9.65 3.9 -10.1 M-10.0 12.6 Q-9.35 12.95 -8.8 12.3 -8.2 11.5 -7.3 11.45 L-8.5 13.75 -8.75 14.55 -8.8 14.55 -8.85 14.65 -8.95 14.9 Q-7.6 14.85 -6.35 15.6 -5.85 15.9 -5.65 16.45 -4.85 16.9 -4.4 17.7 L-4.3 18.05 -3.2 18.65 -1.05 16.2 Q-1.75 17.05 -2.25 18.05 L-2.7 20.0 -2.85 20.05 -3.45 20.15 -3.8 20.15 Q-4.5 20.1 -5.2 19.55 -6.7 16.95 -9.3 15.6 -11.5 14.45 -13.1 12.7 -11.95 12.65 -10.85 13.1 L-10.55 13.2 -10.0 12.6 M6.2 2.7 L6.9 2.0 7.05 1.85 7.85 1.95 8.55 2.15 8.6 2.15 8.75 2.5 8.9 2.3 Q9.7 2.75 10.25 3.6 11.3 5.35 12.9 6.6 L12.45 10.9 12.4 11.4 11.1 11.1 Q10.4 11.35 10.3 12.05 L10.25 12.0 9.45 11.4 9.4 11.35 8.15 11.45 7.9 11.5 6.95 11.8 Q6.65 11.85 6.4 12.0 5.7 11.7 5.35 10.7 L5.05 9.4 4.95 9.35 Q3.65 8.5 2.2 8.65 1.85 8.7 1.55 9.0 L0.95 9.5 0.85 9.5 0.1 9.5 -0.05 9.3 Q-0.45 8.95 -0.35 8.4 L-0.3 8.0 0.85 6.75 1.05 7.1 1.3 7.3 2.55 7.35 Q4.85 7.25 6.85 6.3 L9.0 6.2 9.0 6.1 Q8.5 4.4 6.6 4.4 L6.45 4.45 5.7 3.0 6.2 2.7 M11.45 16.65 L11.5 17.3 9.4 20.5 8.5 20.75 8.65 20.4 9.1 19.25 Q9.75 17.6 8.05 17.3 5.95 17.85 5.65 20.15 L5.6 21.45 6.85 21.2 4.15 21.65 1.8 19.2 1.55 18.9 4.5 19.35 4.6 19.4 Q4.65 18.4 5.2 17.4 5.9 16.2 7.15 15.45 L7.3 15.45 7.8 15.35 Q9.15 16.0 9.2 17.05 L10.3 16.55 11.45 16.65 M-6.25 -16.55 L-6.85 -16.15 -7.2 -15.9 -8.05 -15.35 -8.2 -15.15 -8.1 -14.9 -8.3 -15.35 -8.45 -15.6 -9.55 -16.95 -9.4 -17.15 Q-9.15 -18.1 -8.3 -18.6 L-8.1 -18.7 -7.6 -18.85 -7.55 -18.8 Q-6.85 -18.4 -6.05 -18.4 L-5.0 -18.65 -5.0 -18.6 -6.25 -16.85 -6.2 -16.85 -6.2 -16.55 -6.25 -16.55 M8.4 -7.7 L8.75 -7.95 9.15 -8.3 Q9.8 -9.1 8.8 -9.4 L6.4 -8.8 Q5.35 -8.6 4.7 -7.85 5.0 -6.95 5.95 -6.95 L6.35 -6.95 7.4 -7.2 7.2 -6.95 6.95 -6.0 6.55 -4.6 5.9 -3.25 5.8 -2.85 Q5.75 -2.5 5.95 -2.35 L6.2 -2.75 5.9 -2.3 6.25 -2.3 6.35 -2.35 6.65 -2.55 6.85 -2.85 6.85 -2.9 Q8.3 -4.4 8.25 -6.55 L8.35 -6.7 8.5 -7.0 Q8.85 -7.5 8.4 -7.7 M0.3 -10.4 Q0.15 -9.85 -0.4 -9.6 -2.15 -9.75 -3.7 -10.7 L-3.75 -10.75 -5.8 -10.8 -5.95 -10.9 -6.1 -11.15 Q-5.9 -11.6 -5.3 -11.65 L-4.5 -11.8 -4.3 -12.1 -3.55 -12.5 Q-1.4 -12.8 0.0 -11.4 0.45 -11.0 0.3 -10.4 M0.85 14.7 L0.95 14.35 0.85 14.35 0.9 14.3 0.95 14.3 0.85 14.7 M1.05 14.1 L1.1 14.0 1.35 13.8 Q2.65 13.8 2.25 14.9 1.95 14.4 0.95 14.35 L1.05 14.1" fill="#cc6633" fill-rule="evenodd" stroke="none"/>
    <path d="M3.15 -19.8 L2.95 -19.75 2.8 -19.7 0.95 -18.0 Q0.25 -17.3 0.35 -16.3 L0.65 -15.55 1.8 -13.85 1.8 -13.8 1.85 -13.85 3.7 -11.2 3.8 -10.85 3.1 -11.35 Q3.25 -10.6 3.9 -10.1 L3.95 -9.65 3.9 -8.75 3.9 -8.65 3.65 -8.55 2.35 -8.1 Q2.05 -8.2 1.8 -8.4 0.75 -9.2 -0.6 -9.05 -1.3 -8.85 -1.8 -8.45 L-1.9 -8.3 Q-2.15 -7.5 -1.4 -7.15 L-0.8 -6.75 -0.5 -6.55 -0.45 -6.55 -0.35 -6.55 -0.3 -6.55 0.65 -5.65 0.6 -5.6 0.6 -5.55 Q2.1 -4.45 3.9 -4.4 L4.0 -4.15 4.25 -3.5 4.15 -2.9 4.05 -2.6 3.35 -1.9 2.95 -1.85 0.9 -1.6 1.0 -1.9 Q-1.4 -2.25 -2.05 -4.55 L-2.65 -5.05 -2.0 -5.45 Q-1.05 -6.2 -1.75 -7.25 -2.9 -8.9 -4.85 -9.1 L-5.4 -8.65 -5.4 -7.9 -4.8 -6.8 -5.6 -7.4 Q-7.5 -8.7 -9.6 -7.95 L-9.95 -8.45 -8.35 -12.0 -7.95 -13.1 -7.65 -13.4 -7.5 -13.7 -6.3 -16.4 -6.25 -16.55 -6.2 -16.55 -6.2 -16.85 -6.25 -16.85 -5.0 -18.6 -4.7 -18.75 Q-3.15 -20.35 -0.75 -20.8 1.5 -21.2 3.15 -19.8 M-7.6 10.4 Q-9.1 11.2 -10.2 12.45 L-10.0 12.6 -10.55 13.2 -10.85 13.1 Q-11.95 12.65 -13.1 12.7 L-13.7 12.0 -11.35 6.7 -9.65 7.35 -10.3 7.8 -10.35 8.0 -10.35 8.15 -10.35 8.3 -10.35 8.45 -9.9 9.05 -8.15 10.25 -8.15 10.3 -7.6 10.4 M-8.8 14.55 L-8.8 14.6 -7.8 13.55 Q-4.7 10.25 -2.05 6.45 -1.0 4.65 0.85 3.45 L4.2 3.3 Q5.3 3.3 6.2 2.7 L5.7 3.0 6.45 4.45 6.5 4.55 6.2 4.75 5.45 5.4 3.1 5.45 Q1.6 5.6 1.0 6.6 L0.85 6.75 -0.3 8.0 -0.35 8.4 Q-0.45 8.95 -0.05 9.3 L0.1 9.5 0.85 9.5 0.95 9.5 1.55 9.0 Q1.85 8.7 2.2 8.65 3.65 8.5 4.95 9.35 L5.05 9.4 5.35 10.7 Q5.7 11.7 6.4 12.0 6.65 11.85 6.95 11.8 6.1 12.1 5.45 12.65 L7.15 12.55 9.05 12.65 Q11.2 14.4 11.45 16.65 L10.3 16.55 9.2 17.05 Q9.15 16.0 7.8 15.35 L7.3 15.45 7.15 15.45 Q5.9 16.2 5.2 17.4 4.65 18.4 4.6 19.4 L4.5 19.35 1.55 18.9 Q1.1 18.15 1.4 17.35 L1.35 17.35 1.6 16.85 2.0 16.3 2.05 16.25 2.3 15.45 2.35 15.45 2.2 15.0 2.25 14.9 Q2.65 13.8 1.35 13.8 L1.1 14.0 1.05 14.1 0.9 14.3 0.85 14.35 0.1 15.05 -1.05 16.2 -3.2 18.65 -4.3 18.05 -4.4 17.7 Q-4.85 16.9 -5.65 16.45 -5.85 15.9 -6.35 15.6 -7.6 14.85 -8.95 14.9 L-8.85 14.65 -8.8 14.55 M-8.6 7.0 L-10.2 6.1 Q-11.45 5.25 -11.6 3.8 L-11.35 2.95 Q-10.0 3.25 -8.9 4.3 -7.8 5.35 -6.35 4.95 L-4.9 4.2 -6.65 6.7 Q-6.85 6.9 -7.05 6.9 L-8.6 7.0 M7.4 -7.2 L8.0 -7.7 8.3 -7.75 8.4 -7.7 Q8.85 -7.5 8.5 -7.0 L8.35 -6.7 8.25 -6.55 Q8.3 -4.4 6.85 -2.9 L6.85 -2.85 6.65 -2.55 6.35 -2.35 6.25 -2.3 5.9 -2.3 6.2 -2.75 5.95 -2.35 Q5.75 -2.5 5.8 -2.85 L5.9 -3.25 6.55 -4.6 6.95 -6.0 7.2 -6.95 7.4 -7.2 M0.3 -10.4 Q0.45 -11.0 0.0 -11.4 -1.4 -12.8 -3.55 -12.5 L-4.3 -12.1 -4.5 -11.8 -5.3 -11.65 Q-5.9 -11.6 -6.1 -11.15 L-5.95 -10.9 -5.8 -10.8 -3.75 -10.75 -3.7 -10.7 Q-2.15 -9.75 -0.4 -9.6 0.15 -9.85 0.3 -10.4 M6.25 15.35 L6.65 14.3 Q6.85 12.7 5.1 12.85 L4.05 13.55 Q2.95 14.4 3.2 15.7 L3.55 16.15 Q5.2 16.8 6.25 15.35 M-3.1 -19.05 L-3.85 -18.75 Q-5.75 -17.9 -5.6 -15.85 -5.55 -15.35 -5.05 -15.2 -2.9 -14.6 -1.55 -16.4 -0.75 -17.55 -1.4 -18.7 L-1.7 -18.9 -3.1 -19.05 M-7.55 13.4 L-7.5 13.35 -7.0 12.7 -7.75 13.55 -7.55 13.4" fill="#de9c7c" fill-rule="evenodd" stroke="none"/>
    <path d="M-2.65 -5.05 L-4.8 -6.8 -5.4 -7.9 -5.4 -8.65 -4.85 -9.1 Q-2.9 -8.9 -1.75 -7.25 -1.05 -6.2 -2.0 -5.45 L-2.65 -5.05 M6.25 15.35 Q5.2 16.8 3.55 16.15 L3.2 15.7 Q2.95 14.4 4.05 13.55 L5.1 12.85 Q6.85 12.7 6.65 14.3 L6.25 15.35 M-3.1 -19.05 L-1.7 -18.9 -1.4 -18.7 Q-0.75 -17.55 -1.55 -16.4 -2.9 -14.6 -5.05 -15.2 -5.55 -15.35 -5.6 -15.85 -5.75 -17.9 -3.85 -18.75 L-3.1 -19.05" fill="#cccccc" fill-rule="evenodd" stroke="none"/>
    <path d="M8.6 2.15 L8.9 2.3 8.75 2.5 8.6 2.15 M14.0 14.1 L14.1 14.15 14.0 14.2 14.0 14.1 M11.2 13.05 L10.95 12.7 11.2 12.65 11.2 13.05 M-0.35 -0.7 L-0.95 -1.2 -0.4 -1.4 -0.95 -1.2 -0.35 -0.7 M-8.85 -19.75 L-8.85 -19.8 -8.45 -19.5 -8.85 -19.75" fill="#6699cc" fill-rule="evenodd" stroke="none"/>
    <path d="M-5.3 -5.85 L-5.1 -5.75 -5.15 -5.7 -5.3 -5.85" fill="#999900" fill-rule="evenodd" stroke="none"/>
    <path d="M11.9 -1.95 L11.1 -1.5 10.1 -1.35 9.65 -1.7 9.95 -2.35 Q10.3 -1.75 11.05 -1.9 L11.25 -1.95 11.65 -2.0 11.8 -2.3 11.8 -2.4 12.15 -2.2 11.9 -1.95 M11.0 -4.1 L11.25 -4.45 11.7 -4.1 12.05 -3.3 11.85 -3.25 11.4 -3.8 11.2 -4.0 11.05 -4.1 11.0 -4.1 M-5.1 -5.75 L-2.7 -3.45 -2.4 -3.05 Q-1.65 -1.3 -2.4 0.15 L-4.0 2.9 Q-5.6 4.25 -7.65 3.85 L-10.05 1.45 Q-9.4 1.7 -8.8 2.2 L-7.7 3.15 Q-6.15 3.0 -4.7 2.4 L-3.45 -0.4 Q-2.65 -1.8 -3.45 -3.25 L-5.15 -5.7 -5.1 -5.75 M-6.5 -2.8 Q-6.45 -3.35 -6.75 -3.9 -7.25 -4.85 -8.25 -4.9 L-9.0 -4.6 Q-9.9 -4.0 -10.0 -2.9 L-9.95 -2.65 -9.45 -1.75 -9.35 -1.55 -9.25 -1.55 Q-9.0 -1.35 -8.65 -1.25 L-7.3 -1.3 -6.95 -1.6 -6.75 -1.85 -6.7 -1.9 -5.4 -1.95 Q-5.35 -0.7 -6.45 -0.2 -8.05 0.55 -9.7 -0.2 -10.65 -0.65 -11.0 -1.7 -11.7 -3.8 -9.95 -5.25 L-8.55 -6.05 Q-5.2 -6.0 -5.35 -2.75 L-5.35 -2.5 -6.5 -2.8" fill="#ffff00" fill-rule="evenodd" stroke="none"/>
    <path d="M10.45 -3.2 L10.65 -3.6 10.7 -3.6 10.8 -3.65 11.45 -3.2 11.45 -2.95 11.15 -2.6 10.75 -2.6 Q10.55 -2.75 10.45 -3.05 L10.45 -3.2 M-8.8 -2.5 L-8.95 -2.7 -9.0 -2.85 -9.0 -3.6 -8.8 -3.85 -8.75 -3.9 -8.5 -4.0 -8.45 -4.0 -8.2 -4.0 Q-7.6 -3.95 -7.45 -3.25 L-7.45 -2.85 -7.6 -2.6 -7.85 -2.3 Q-8.45 -2.15 -8.8 -2.5" fill="#ffffff" fill-rule="evenodd" stroke="none"/>
    <path d="M12.4 11.4 Q12.4 13.05 14.0 14.1 L14.0 14.2 14.1 14.15 14.55 14.45 14.75 16.05 14.7 16.05 Q14.05 16.0 13.55 16.45 12.9 16.85 12.65 15.9 L12.55 15.65 12.55 15.55 11.8 13.9 11.2 13.05 11.2 12.65 10.95 12.7 10.9 12.7 10.3 12.05 Q10.4 11.35 11.1 11.1 L12.4 11.4 M8.5 20.75 L8.1 20.9 6.85 21.2 5.6 21.45 5.65 20.15 Q5.95 17.85 8.05 17.3 9.75 17.6 9.1 19.25 L8.65 20.4 8.5 20.75 M2.3 15.45 L2.05 15.1 Q0.3 16.95 0.05 19.3 -1.35 19.35 -2.65 19.95 L-2.7 20.0 -2.25 18.05 Q-1.75 17.05 -1.05 16.2 L0.1 15.05 0.85 14.35 0.95 14.35 0.85 14.7 0.75 14.9 0.95 14.35 Q1.95 14.4 2.25 14.9 L2.2 15.0 2.35 15.45 2.3 15.45 M0.3 0.2 L-0.35 -0.7 -0.95 -1.2 -0.4 -1.4 0.25 -1.35 Q0.7 -1.2 0.9 -1.6 L2.95 -1.85 3.35 -1.9 4.05 -2.6 4.15 -2.9 4.25 -3.5 4.0 -4.15 Q5.65 -3.65 5.2 -2.0 L4.9 -1.5 4.5 -1.2 4.35 -0.95 4.05 -0.8 3.65 -0.35 3.35 -0.05 1.15 0.2 0.6 0.15 0.3 0.2 M7.4 -7.2 L6.35 -6.95 5.95 -6.95 Q5.0 -6.95 4.7 -7.85 5.35 -8.6 6.4 -8.8 L8.8 -9.4 Q9.8 -9.1 9.15 -8.3 L8.75 -7.95 8.4 -7.7 8.3 -7.75 8.0 -7.7 7.4 -7.2 M6.45 4.45 L6.6 4.4 Q8.5 4.4 9.0 6.1 L9.0 6.2 6.85 6.3 Q4.85 7.25 2.55 7.35 L1.3 7.3 1.05 7.1 0.85 6.75 1.0 6.6 Q1.6 5.6 3.1 5.45 L5.45 5.4 6.2 4.75 6.5 4.55 6.45 4.45" fill="#993300" fill-rule="evenodd" stroke="none"/>
    <path d="M0.6 -5.55 L0.6 -5.6 0.65 -5.65 0.6 -5.55 M2.35 15.45 L2.3 15.45 2.35 15.45" fill="#336699" fill-rule="evenodd" stroke="none"/>
    <path d="M11.9 -1.95 L12.15 -2.2 12.3 -2.1 12.35 -2.0 11.9 -1.95" fill="#cccc33" fill-rule="evenodd" stroke="none"/>
    <path d="M1.4 17.35 L1.35 17.4 1.35 17.35 1.4 17.35 M0.95 14.3 L0.9 14.3 1.0 14.15 0.95 14.3 M2.35 15.45 L2.3 15.45 2.35 15.45 M-7.55 13.4 L-7.75 13.55 -7.0 12.7 -7.5 13.35 -7.55 13.4" fill="#3366cc" fill-rule="evenodd" stroke="none"/>
  </g>
</svg>
