<?xml version="1.0" encoding="UTF-8" standalone="no"?>
<svg xmlns:xlink="http://www.w3.org/1999/xlink" height="42.85px" width="45.7px" xmlns="http://www.w3.org/2000/svg">
  <g transform="matrix(1.0, 0.0, 0.0, 1.0, 24.95, 22.1)">
    <path d="M11.9 -12.3 L12.0 -12.35 12.3 -12.6 12.35 -12.65 12.8 -12.9 12.85 -12.9 13.15 -13.05 13.35 -13.15 Q14.65 -13.25 15.35 -12.6 15.9 -12.05 15.95 -10.9 16.0 -10.1 15.65 -9.3 14.4 -6.65 11.65 -7.75 11.15 -7.95 11.05 -8.4 10.3 -10.9 11.9 -12.3 M-20.65 -5.55 L-20.7 -6.85 -21.05 -8.5 -21.75 -7.55 Q-21.85 -9.0 -20.3 -9.95 L-19.9 -10.25 Q-17.75 -10.7 -16.75 -9.05 -16.15 -8.05 -16.7 -7.05 -17.8 -4.85 -20.4 -5.45 L-20.65 -5.55" fill="#ffffff" fill-rule="evenodd" stroke="none"/>
    <path d="M12.9 -14.9 L16.7 -14.15 Q15.35 -15.6 13.3 -15.7 L12.8 -15.7 10.8 -15.9 10.6 -15.95 9.55 -16.1 9.35 -16.15 Q8.05 -15.4 8.0 -14.05 L8.0 -13.35 8.35 -13.65 Q9.25 -14.45 10.45 -14.75 L11.1 -14.9 12.3 -14.95 12.9 -14.9 M8.6 -6.75 L8.6 -6.8 8.35 -6.15 7.8 -4.2 Q9.65 -1.4 13.3 -1.4 15.7 -1.45 17.6 -2.85 L19.5 -6.2 Q20.4 -7.95 19.4 -9.9 17.85 -12.7 14.9 -13.65 12.0 -14.55 9.25 -13.0 9.2 -12.3 9.8 -11.65 10.4 -11.05 10.25 -10.05 L10.25 -10.0 Q9.25 -8.4 8.6 -6.75 M14.45 -16.95 Q17.6 -16.45 18.45 -12.9 20.8 -10.6 20.75 -7.0 L20.55 -6.35 20.5 -5.85 18.65 -2.95 Q17.5 -1.3 15.65 -0.8 14.4 0.7 12.7 1.15 11.05 1.55 9.75 2.8 9.05 2.85 8.65 3.4 9.2 6.2 9.05 9.25 8.9 12.25 7.15 14.5 5.15 15.5 4.1 17.3 3.05 19.15 1.55 20.45 -0.6 21.25 -2.35 20.0 -4.05 18.7 -5.9 18.1 -9.5 15.8 -10.5 12.05 -11.5 8.3 -10.8 4.1 -11.25 2.85 -12.45 2.0 -15.9 2.4 -19.1 1.15 -22.35 -0.15 -24.35 -3.1 -25.45 -5.35 -24.45 -7.4 -23.5 -9.4 -23.2 -11.6 -19.45 -16.65 -12.8 -15.85 -10.0 -16.75 -7.7 -19.3 -5.45 -21.9 -2.2 -21.05 -1.05 -21.25 0.2 -21.8 L2.95 -21.9 Q5.85 -20.25 8.3 -17.8 L14.45 -16.95 M6.05 -18.6 L5.45 -19.2 4.9 -19.65 4.35 -20.05 3.45 -20.55 2.05 -21.0 Q0.9 -21.25 -0.05 -19.8 L-0.25 -19.75 -2.4 -19.9 -3.0 -20.1 -3.95 -20.6 -4.7 -20.35 Q-5.75 -19.95 -6.55 -19.0 L-8.05 -17.45 -8.85 -16.75 -9.2 -16.25 -9.15 -16.0 -9.0 -15.75 -8.75 -15.45 -8.4 -14.8 -8.35 -14.7 -8.25 -14.55 -7.9 -13.4 -7.9 -13.25 -7.95 -12.75 Q-8.15 -12.05 -9.0 -11.65 -10.75 -10.95 -11.75 -9.6 -12.9 -5.9 -9.95 -4.3 -7.0 -2.7 -5.1 -0.15 L-4.65 1.0 -4.5 2.9 Q-4.65 4.5 -5.75 6.05 L-6.0 6.5 Q-6.4 7.5 -5.65 8.3 L-5.55 8.4 Q-4.9 9.1 -4.7 9.85 L-4.65 10.2 -4.6 10.3 Q-5.05 10.35 -5.2 9.95 -7.55 8.4 -6.7 6.5 -5.85 4.55 -5.4 2.6 -5.9 0.15 -8.2 -1.6 L-9.2 -0.85 -9.25 -0.8 Q-10.5 0.15 -11.6 1.45 L-11.5 1.65 Q-10.15 2.25 -9.05 1.2 L-8.9 1.9 -9.1 2.65 -9.15 2.7 -9.15 2.75 -9.3 2.95 -9.4 3.3 Q-10.05 6.7 -9.5 9.95 -9.2 12.0 -8.35 14.05 L-7.35 15.6 -6.65 16.35 -5.2 17.25 -4.15 17.6 -3.95 17.6 -3.8 17.65 -3.75 17.5 -3.3 12.75 -3.35 12.6 -3.45 10.9 -3.35 10.15 -2.85 8.9 Q-1.85 7.2 -1.95 5.05 -1.4 5.65 -1.3 6.5 L-1.25 6.9 -1.05 7.95 -0.5 8.7 0.3 9.05 0.65 9.1 0.95 9.1 1.55 9.0 1.95 8.85 2.15 8.8 Q3.75 7.05 3.55 4.6 3.05 3.9 2.5 3.75 L1.45 3.85 -0.85 4.45 -0.85 4.2 -0.85 3.9 Q0.25 2.9 1.7 2.9 L2.25 2.95 2.75 3.05 2.95 3.1 2.95 3.05 Q2.9 2.25 2.45 1.65 2.0 0.95 2.4 0.15 L2.7 -0.2 6.4 -5.1 Q8.3 -7.75 8.95 -10.95 L8.55 -11.3 8.0 -11.75 5.55 -13.35 5.25 -13.5 5.2 -13.5 5.15 -14.1 Q5.15 -16.25 6.65 -17.9 L6.7 -17.95 6.65 -17.95 6.05 -18.6 M3.15 -18.9 L3.45 -18.65 3.7 -18.35 4.1 -17.8 4.35 -17.35 1.05 -18.75 1.1 -18.85 Q1.45 -19.55 2.35 -19.45 L3.15 -18.9 M-3.7 -18.6 L-5.95 -17.5 -6.1 -17.45 -6.55 -17.0 -7.0 -16.8 -7.15 -16.75 -7.15 -16.95 -7.2 -17.0 Q-7.25 -17.75 -6.7 -18.05 -6.05 -18.45 -5.5 -18.95 L-4.05 -18.85 -3.55 -18.75 -3.7 -18.6 M6.45 -14.05 Q6.55 -14.8 7.4 -15.4 8.3 -16.0 7.8 -16.75 7.05 -17.35 6.65 -16.5 5.8 -15.1 6.45 -14.05 M6.75 -3.55 L6.4 -2.25 Q8.05 0.45 11.2 0.4 12.6 0.35 13.3 -0.4 9.35 -0.65 6.75 -3.55 M17.8 -8.2 L17.75 -6.0 Q17.3 -5.5 16.8 -5.55 16.25 -6.45 16.5 -7.45 16.75 -8.55 16.6 -9.4 L16.9 -10.1 Q17.85 -9.45 17.8 -8.2 M8.65 2.0 Q9.45 2.15 9.75 1.35 7.15 0.35 5.55 -1.95 4.35 -1.25 3.9 0.05 3.45 1.2 3.95 2.15 L4.7 4.1 Q5.3 7.65 2.7 9.85 2.35 12.8 3.4 15.55 7.9 13.9 7.45 9.55 6.95 5.25 7.5 1.45 7.75 1.1 8.1 1.2 L8.65 2.0 M-0.1 12.4 L0.05 12.4 Q1.15 12.5 1.2 11.65 L1.35 9.95 0.5 9.85 Q-0.75 9.6 -1.8 9.0 -2.7 9.9 -2.4 11.25 -1.45 12.3 -0.1 12.4 M1.2 15.85 L1.7 15.55 Q1.8 14.1 1.2 12.9 L-0.15 13.2 -0.5 13.1 -2.25 12.6 -2.4 15.05 -1.1 16.0 1.2 15.85 M-1.75 19.45 Q0.5 20.2 2.55 18.5 2.85 15.45 1.05 16.6 L0.95 16.7 -2.25 16.55 -2.05 19.35 -1.75 19.45 M-21.75 -7.55 L-21.05 -8.5 -20.7 -6.85 -20.65 -5.55 -20.6 -5.2 -20.55 -5.0 Q-20.45 -4.35 -20.85 -3.7 -22.15 -4.15 -22.2 -5.55 L-22.15 -6.05 -21.75 -7.55 M-20.25 -11.05 L-21.5 -10.45 -23.65 -7.6 Q-24.6 -6.05 -23.95 -4.05 -23.35 -2.8 -22.4 -1.9 -21.35 -0.9 -19.85 -0.45 -15.05 -0.05 -11.85 -3.25 -11.55 -3.95 -12.05 -4.4 -13.25 -5.95 -13.1 -7.65 L-12.65 -11.05 Q-14.9 -12.0 -17.1 -11.85 L-18.15 -11.7 -18.45 -11.65 -19.3 -11.4 -20.25 -11.05 M-9.55 -12.55 L-8.9 -13.25 -9.35 -14.9 Q-9.55 -15.85 -10.7 -15.85 -11.45 -15.0 -10.7 -14.15 L-9.55 -12.55 M-16.5 -14.65 L-17.8 -14.4 -17.9 -14.4 Q-20.45 -13.8 -21.85 -11.4 -19.35 -12.75 -16.8 -12.8 L-15.8 -12.8 -15.45 -12.8 Q-13.45 -12.6 -11.35 -11.6 -10.55 -11.75 -10.55 -12.55 -11.35 -13.85 -12.5 -14.55 L-16.5 -14.65 M-9.35 -2.6 Q-10.0 -3.15 -10.85 -3.2 -13.0 -0.15 -16.7 0.55 -15.45 1.15 -13.75 1.05 -10.75 0.25 -9.35 -2.6" fill="#000000" fill-rule="evenodd" stroke="none"/>
    <path d="M12.35 -12.65 L12.65 -12.9 12.8 -12.9 12.35 -12.65 M15.35 -12.6 Q17.0 -12.05 18.4 -10.65 L18.9 -9.4 Q19.5 -8.0 19.25 -6.5 L18.4 -4.5 Q17.9 -3.65 17.05 -3.3 14.65 -2.35 11.95 -2.55 10.8 -2.65 9.95 -3.55 9.65 -3.85 9.5 -4.25 L8.6 -6.75 Q9.25 -8.4 10.25 -10.0 L10.55 -10.55 11.8 -12.25 11.9 -12.3 Q10.3 -10.9 11.05 -8.4 11.15 -7.95 11.65 -7.75 14.4 -6.65 15.65 -9.3 16.0 -10.1 15.95 -10.9 15.9 -12.05 15.35 -12.6 M17.8 -8.2 Q17.85 -9.45 16.9 -10.1 L16.6 -9.4 Q16.75 -8.55 16.5 -7.45 16.25 -6.45 16.8 -5.55 17.3 -5.5 17.75 -6.0 L17.8 -8.2 M-20.65 -5.55 L-20.4 -5.45 Q-17.8 -4.85 -16.7 -7.05 -16.15 -8.05 -16.75 -9.05 -17.75 -10.7 -19.9 -10.25 L-20.3 -9.95 Q-21.85 -9.0 -21.75 -7.55 L-22.15 -6.05 -22.2 -5.55 Q-22.15 -4.15 -20.85 -3.7 -20.45 -4.35 -20.55 -5.0 L-20.6 -5.2 -20.65 -5.55 M-22.4 -1.9 Q-23.35 -2.8 -23.95 -4.05 -24.6 -6.05 -23.65 -7.6 L-21.5 -10.45 -20.25 -11.05 -19.2 -11.2 -16.75 -11.0 Q-15.25 -10.3 -14.55 -8.85 L-13.95 -7.1 Q-13.6 -5.3 -14.3 -3.55 L-14.4 -3.4 -14.7 -2.95 Q-16.35 -1.3 -18.85 -1.3 L-20.0 -1.4 Q-21.25 -1.4 -22.35 -1.9 L-22.4 -1.9" fill="#cccccc" fill-rule="evenodd" stroke="none"/>
    <path d="M12.35 -12.65 L12.3 -12.6 12.0 -12.35 11.9 -12.3 11.8 -12.25 10.55 -10.55 10.25 -10.0 10.25 -10.05 Q10.4 -11.05 9.8 -11.65 9.2 -12.3 9.25 -13.0 12.0 -14.55 14.9 -13.65 17.85 -12.7 19.4 -9.9 20.4 -7.95 19.5 -6.2 L17.6 -2.85 Q15.7 -1.45 13.3 -1.4 9.65 -1.4 7.8 -4.2 L8.35 -6.15 8.6 -6.8 8.6 -6.75 9.5 -4.25 Q9.65 -3.85 9.95 -3.55 10.8 -2.65 11.95 -2.55 14.65 -2.35 17.05 -3.3 17.9 -3.65 18.4 -4.5 L19.25 -6.5 Q19.5 -8.0 18.9 -9.4 L18.4 -10.65 Q17.0 -12.05 15.35 -12.6 14.65 -13.25 13.35 -13.15 L13.15 -13.05 12.85 -12.9 12.8 -12.9 12.65 -12.9 12.35 -12.65 M-22.4 -1.9 L-22.35 -1.9 Q-21.25 -1.4 -20.0 -1.4 L-18.85 -1.3 Q-16.35 -1.3 -14.7 -2.95 L-14.4 -3.4 -14.3 -3.55 Q-13.6 -5.3 -13.95 -7.1 L-14.55 -8.85 Q-15.25 -10.3 -16.75 -11.0 L-19.2 -11.2 -20.25 -11.05 -19.3 -11.4 -18.45 -11.65 -18.15 -11.7 -17.1 -11.85 Q-14.9 -12.0 -12.65 -11.05 L-13.1 -7.65 Q-13.25 -5.95 -12.05 -4.4 -11.55 -3.95 -11.85 -3.25 -15.05 -0.05 -19.85 -0.45 -21.35 -0.9 -22.4 -1.9" fill="#999999" fill-rule="evenodd" stroke="none"/>
    <path d="M3.45 -20.55 L3.7 -19.75 3.6 -19.7 3.55 -19.65 3.2 -19.05 3.15 -18.9 2.35 -19.45 Q1.45 -19.55 1.1 -18.85 L0.5 -18.75 0.15 -18.65 0.05 -18.6 0.0 -18.75 -0.2 -19.2 -0.25 -19.3 -0.25 -19.75 -0.05 -19.8 Q0.9 -21.25 2.05 -21.0 L3.45 -20.55 M-5.95 -17.5 L-6.15 -17.4 -6.2 -17.3 -6.3 -17.2 -6.55 -17.0 -6.1 -17.45 -5.95 -17.5 M-1.55 -13.4 L-0.75 -13.55 -0.9 -13.4 Q-1.15 -13.0 -1.0 -12.55 -0.75 -11.9 -0.1 -11.95 L-0.95 -11.05 Q-1.8 -9.8 -2.7 -11.55 L-7.0 -11.45 Q-9.0 -10.45 -10.75 -8.9 -10.75 -8.55 -11.1 -8.25 -11.45 -8.0 -11.0 -7.6 -8.85 -9.8 -6.3 -11.05 -4.65 -12.05 -3.45 -10.8 -2.3 -9.65 -0.95 -9.6 0.25 -12.6 2.4 -11.2 4.15 -10.1 5.9 -10.25 5.75 -9.55 5.9 -9.0 5.5 -8.65 4.95 -8.75 3.8 -8.95 2.7 -8.75 1.25 -9.1 0.0 -8.15 -1.65 -6.95 -3.35 -8.15 L-5.4 -8.25 -6.7 -8.25 Q-7.55 -8.2 -8.2 -7.6 L-8.25 -7.55 -8.65 -7.4 -9.15 -7.1 Q-9.9 -6.3 -9.0 -5.75 L-8.75 -5.7 Q-7.7 -5.7 -6.75 -5.2 -6.15 -4.65 -5.3 -4.6 -4.5 -3.85 -3.4 -3.55 L-1.15 -3.35 Q0.05 -3.55 1.05 -4.15 L1.5 -4.45 1.85 -4.75 2.05 -4.8 3.75 -5.0 2.4 -3.55 2.1 -3.35 Q1.1 -2.95 0.5 -2.1 L0.25 -2.15 -0.05 -2.2 -0.1 -2.3 -0.15 -2.2 -0.4 -2.25 Q-1.8 -2.3 -2.8 -1.2 -3.15 -0.75 -3.0 -0.25 -2.45 1.45 -0.85 0.45 L-0.55 0.4 -0.5 0.4 -0.9 0.65 0.75 0.65 1.65 1.8 1.45 1.55 1.05 2.0 0.7 2.2 Q-1.85 2.6 -3.35 4.6 L-3.8 5.75 Q-4.25 6.2 -4.25 6.9 L-4.45 7.15 -4.7 8.0 -5.0 8.1 -5.7 8.15 -5.5 8.3 Q-6.05 8.05 -6.05 7.35 L-6.0 6.5 -5.75 6.05 Q-4.65 4.5 -4.5 2.9 L-4.45 2.8 -4.3 2.8 -4.3 3.45 Q-4.15 2.05 -4.65 1.0 L-5.1 -0.15 Q-7.0 -2.7 -9.95 -4.3 -12.9 -5.9 -11.75 -9.6 -10.75 -10.95 -9.0 -11.65 -8.15 -12.05 -7.95 -12.75 L-7.1 -13.15 -7.15 -13.1 Q-7.45 -12.5 -6.95 -12.05 L-5.75 -11.95 -5.6 -12.1 -5.55 -12.15 -3.25 -13.0 Q-2.75 -13.45 -2.95 -13.95 L-2.85 -13.9 Q-2.2 -13.45 -1.55 -13.4 M3.9 -13.3 L3.95 -13.3 4.35 -13.4 4.55 -13.45 5.05 -13.35 5.55 -13.35 8.0 -11.75 7.3 -11.25 Q6.85 -10.9 6.25 -10.9 L5.95 -10.5 Q4.75 -10.7 3.8 -11.4 2.55 -12.35 1.0 -12.4 L0.35 -12.2 0.5 -12.4 Q0.85 -12.75 1.35 -12.65 1.9 -12.5 2.25 -12.95 L2.35 -13.5 2.2 -14.0 2.45 -13.85 Q3.1 -13.3 3.9 -13.3 M2.95 3.05 L2.95 3.1 2.75 3.05 2.9 3.05 2.95 3.05 M0.65 9.1 L0.3 9.05 0.55 9.0 0.65 9.1 M-3.75 17.5 L-3.8 17.65 -3.95 17.6 -3.75 17.5 M-9.5 9.95 Q-10.05 6.7 -9.4 3.3 -8.45 3.6 -7.6 3.0 L-7.05 2.5 -6.9 2.4 -7.15 1.9 Q-6.8 2.35 -6.85 3.0 L-6.9 3.5 -7.15 4.95 -7.7 7.35 -7.9 9.0 -8.05 9.15 -8.15 9.6 Q-8.8 9.45 -9.35 9.8 L-9.5 9.95 M-8.05 -17.45 L-6.55 -19.0 Q-5.75 -19.95 -4.7 -20.35 L-4.0 -19.55 -4.05 -18.85 -5.5 -18.95 Q-6.05 -18.45 -6.7 -18.05 -7.25 -17.75 -7.2 -17.0 -7.95 -16.55 -8.15 -17.3 L-8.15 -17.35 -8.05 -17.45" fill="#cc66cc" fill-rule="evenodd" stroke="none"/>
    <path d="M6.05 -18.6 L5.35 -18.6 4.7 -18.0 4.7 -17.95 4.55 -17.75 4.4 -17.85 4.1 -17.8 3.7 -18.35 3.45 -18.65 3.15 -18.9 3.2 -19.05 3.55 -19.65 3.6 -19.7 3.7 -19.75 3.45 -20.55 4.35 -20.05 4.9 -19.65 5.45 -19.2 6.05 -18.6 M1.05 -18.75 L0.85 -18.8 0.5 -18.75 1.1 -18.85 1.05 -18.75 M-0.25 -19.3 L-0.4 -19.75 -2.25 -19.85 Q-1.6 -19.35 -2.25 -18.75 L-2.25 -18.7 -2.2 -18.65 -2.2 -18.6 -3.55 -18.7 -3.7 -18.6 -3.55 -18.75 -4.05 -18.85 -4.0 -19.55 -4.7 -20.35 -3.95 -20.6 -3.0 -20.1 -2.4 -19.9 -0.25 -19.75 -0.25 -19.3 M-6.3 -17.2 L-6.5 -17.05 -6.45 -16.8 -6.15 -16.45 Q-4.65 -15.9 -3.3 -16.65 L-2.6 -16.4 -2.8 -15.15 Q-2.8 -13.75 -1.55 -13.4 -2.2 -13.45 -2.85 -13.9 L-2.95 -13.95 -4.15 -14.05 -5.1 -13.8 -5.25 -13.75 -6.2 -13.5 -7.1 -13.15 -7.95 -12.75 -7.9 -13.25 -7.9 -13.4 -8.25 -14.55 -8.35 -14.7 -8.4 -14.8 -8.75 -15.45 -9.0 -15.75 -9.15 -16.0 -9.2 -16.25 -8.85 -16.75 -8.05 -17.45 -8.15 -17.35 -8.15 -17.3 Q-7.95 -16.55 -7.2 -17.0 L-7.15 -16.95 -7.15 -16.75 -7.0 -16.8 -6.55 -17.0 -6.3 -17.2 M-0.2 -13.8 L-0.1 -14.3 0.15 -14.85 0.15 -15.0 0.35 -15.7 0.4 -16.0 1.65 -16.05 2.1 -15.8 Q2.25 -15.1 2.75 -14.65 2.85 -13.75 3.75 -13.4 L3.9 -13.3 Q3.1 -13.3 2.45 -13.85 L2.2 -14.0 2.1 -14.05 2.05 -14.05 1.75 -14.2 0.65 -14.2 -0.2 -13.8 M5.05 -13.35 L5.25 -13.5 5.55 -13.35 5.05 -13.35 M6.65 -17.9 L6.65 -17.95 6.7 -17.95 6.65 -17.9 M0.35 -12.2 L1.0 -12.4 Q2.55 -12.35 3.8 -11.4 4.75 -10.7 5.95 -10.5 L6.25 -10.9 Q6.85 -10.9 7.3 -11.25 L8.0 -11.75 8.55 -11.3 8.95 -10.95 Q8.3 -7.75 6.4 -5.1 L2.7 -0.2 2.4 0.15 Q2.0 0.95 2.45 1.65 2.9 2.25 2.95 3.05 L2.9 3.05 2.75 3.05 2.25 2.95 1.7 2.9 Q0.25 2.9 -0.85 3.9 L-0.85 4.2 -0.95 4.25 -1.3 4.9 -1.45 5.85 -1.3 6.5 Q-1.4 5.65 -1.95 5.05 -1.85 7.2 -2.85 8.9 L-3.35 10.15 -3.45 10.9 -4.3 10.55 -4.5 10.4 -4.7 9.85 Q-4.9 9.1 -5.55 8.4 L-5.45 8.5 -5.5 8.3 -5.7 8.15 -5.0 8.1 -4.7 8.0 -4.45 7.15 -4.25 6.9 Q-4.25 6.2 -3.8 5.75 L-3.35 4.6 Q-1.85 2.6 0.7 2.2 L1.05 2.0 1.45 1.55 1.65 1.8 0.75 0.65 -0.9 0.65 -0.5 0.4 -0.55 0.4 -0.85 0.45 Q-2.45 1.45 -3.0 -0.25 -3.15 -0.75 -2.8 -1.2 -1.8 -2.3 -0.4 -2.25 L-0.15 -2.2 -0.1 -2.3 -0.05 -2.2 0.25 -2.15 0.5 -2.1 Q1.1 -2.95 2.1 -3.35 L2.4 -3.55 3.75 -5.0 2.05 -4.8 1.85 -4.75 1.5 -4.45 1.05 -4.15 Q0.05 -3.55 -1.15 -3.35 L-3.4 -3.55 Q-4.5 -3.85 -5.3 -4.6 -6.15 -4.65 -6.75 -5.2 -7.7 -5.7 -8.75 -5.7 L-9.0 -5.75 Q-9.9 -6.3 -9.15 -7.1 L-8.65 -7.4 -8.25 -7.55 -8.2 -7.6 Q-7.55 -8.2 -6.7 -8.25 L-5.4 -8.25 Q-6.25 -8.15 -6.9 -7.65 L-7.4 -7.45 -7.55 -7.2 -7.5 -7.0 -6.75 -7.15 -6.5 -7.1 -3.6 -6.95 -1.2 -6.25 -0.5 -6.35 1.5 -7.45 2.55 -7.95 3.1 -8.2 3.4 -8.25 3.4 -7.8 3.35 -8.45 Q3.15 -8.4 3.05 -8.65 L2.7 -8.75 Q3.8 -8.95 4.95 -8.75 5.5 -8.65 5.9 -9.0 5.75 -9.55 5.9 -10.25 4.15 -10.1 2.4 -11.2 0.25 -12.6 -0.95 -9.6 -2.3 -9.65 -3.45 -10.8 -4.65 -12.05 -6.3 -11.05 -8.85 -9.8 -11.0 -7.6 -11.45 -8.0 -11.1 -8.25 -10.75 -8.55 -10.75 -8.9 -9.0 -10.45 -7.0 -11.45 L-2.7 -11.55 Q-1.8 -9.8 -0.95 -11.05 L-0.1 -11.95 -0.05 -11.95 0.35 -12.2 M-7.35 15.6 L-8.35 14.05 Q-9.2 12.0 -9.5 9.95 L-9.35 9.8 Q-8.8 9.45 -8.15 9.6 L-8.05 9.15 -7.9 9.0 Q-8.05 11.1 -7.45 13.3 L-7.35 14.0 -7.35 15.6 M-8.9 1.9 L-9.05 1.2 Q-10.15 2.25 -11.5 1.65 L-11.6 1.45 Q-10.5 0.15 -9.25 -0.8 L-9.2 -0.85 -9.2 -0.7 -9.1 -0.3 -8.95 0.05 -8.6 0.6 -8.35 0.85 -8.95 1.45 -8.9 1.9 M-4.5 2.9 L-4.65 1.0 Q-4.15 2.05 -4.3 3.45 L-4.3 2.8 -4.45 2.8 -4.5 2.9 M-1.25 -4.85 L-1.25 -4.8 -1.1 -4.8 -1.25 -4.85 M-5.45 16.6 L-5.55 16.35 -5.2 16.8 -5.2 16.9 -5.3 16.8 -5.45 16.6" fill="#9933cc" fill-rule="evenodd" stroke="none"/>
    <path d="M4.1 -17.8 L4.4 -17.85 4.55 -17.75 4.7 -17.95 4.7 -18.0 5.35 -18.6 6.05 -18.6 6.65 -17.95 6.65 -17.9 Q5.15 -16.25 5.15 -14.1 L5.2 -13.5 5.25 -13.5 5.05 -13.35 4.55 -13.45 4.35 -13.4 3.95 -13.3 3.9 -13.3 3.75 -13.4 Q2.85 -13.75 2.75 -14.65 2.25 -15.1 2.1 -15.8 L1.65 -16.05 0.4 -16.0 0.35 -15.7 0.15 -15.0 0.15 -14.85 -0.1 -14.3 -0.2 -13.8 -0.6 -13.65 -0.75 -13.55 -1.55 -13.4 Q-2.8 -13.75 -2.8 -15.15 L-2.6 -16.4 -3.3 -16.65 Q-4.65 -15.9 -6.15 -16.45 L-6.45 -16.8 -6.5 -17.05 -6.3 -17.2 -6.2 -17.3 -6.15 -17.4 -5.95 -17.5 -3.7 -18.6 -3.55 -18.7 -2.2 -18.6 -2.2 -18.65 -2.25 -18.7 -2.25 -18.75 Q-1.6 -19.35 -2.25 -19.85 L-0.4 -19.75 -0.25 -19.3 -0.2 -19.2 0.0 -18.75 0.05 -18.6 0.15 -18.65 0.5 -18.75 0.85 -18.8 1.05 -18.75 4.35 -17.35 4.1 -17.8 M-3.45 10.9 L-3.35 12.6 -3.3 12.75 -3.75 17.5 -3.95 17.6 -4.15 17.6 -5.2 17.25 -6.65 16.35 -7.35 15.6 -7.35 14.0 -7.45 13.3 Q-8.05 11.1 -7.9 9.0 L-7.7 7.35 -7.15 4.95 -6.9 3.5 -6.85 3.0 Q-6.8 2.35 -7.15 1.9 L-6.9 2.4 -7.05 2.5 -7.6 3.0 Q-8.45 3.6 -9.4 3.3 L-9.3 2.95 -9.15 2.75 -9.15 2.7 -9.1 2.65 -8.9 1.9 -8.95 1.45 -8.35 0.85 -8.6 0.6 -8.95 0.05 -9.1 -0.3 -9.2 -0.7 -9.2 -0.85 -8.2 -1.6 Q-5.9 0.15 -5.4 2.6 -5.85 4.55 -6.7 6.5 -7.55 8.4 -5.2 9.95 -5.05 10.35 -4.6 10.3 L-4.65 10.2 -4.7 9.85 -4.5 10.4 -4.3 10.55 -3.45 10.9 M-5.55 8.4 L-5.65 8.3 Q-6.4 7.5 -6.0 6.5 L-6.05 7.35 Q-6.05 8.05 -5.5 8.3 L-5.45 8.5 -5.55 8.4 M2.7 -8.75 L3.05 -8.65 Q3.15 -8.4 3.35 -8.45 L3.4 -7.8 3.4 -8.25 3.1 -8.2 2.55 -7.95 1.5 -7.45 -0.5 -6.35 -1.2 -6.25 -3.6 -6.95 -6.5 -7.1 -6.75 -7.15 -7.5 -7.0 -7.55 -7.2 -7.4 -7.45 -6.9 -7.65 Q-6.25 -8.15 -5.4 -8.25 L-3.35 -8.15 Q-1.65 -6.95 0.0 -8.15 1.25 -9.1 2.7 -8.75 M8.65 2.0 L8.1 1.2 Q7.75 1.1 7.5 1.45 6.95 5.25 7.45 9.55 7.9 13.9 3.4 15.55 2.35 12.8 2.7 9.85 5.3 7.65 4.7 4.1 L3.95 2.15 Q3.45 1.2 3.9 0.05 4.35 -1.25 5.55 -1.95 7.15 0.35 9.75 1.35 9.45 2.15 8.65 2.0 M-1.25 -4.85 L-1.1 -4.8 -1.25 -4.8 -1.25 -4.85 M-5.45 16.6 L-5.3 16.8 -5.2 16.9 -5.2 16.8 -5.55 16.35 -5.45 16.6" fill="#663399" fill-rule="evenodd" stroke="none"/>
    <path d="M6.45 -14.05 Q5.8 -15.1 6.65 -16.5 7.05 -17.35 7.8 -16.75 8.3 -16.0 7.4 -15.4 6.55 -14.8 6.45 -14.05 M6.75 -3.55 Q9.35 -0.65 13.3 -0.4 12.6 0.35 11.2 0.4 8.05 0.45 6.4 -2.25 L6.75 -3.55 M-9.55 -12.55 L-10.7 -14.15 Q-11.45 -15.0 -10.7 -15.85 -9.55 -15.85 -9.35 -14.9 L-8.9 -13.25 -9.55 -12.55 M-9.35 -2.6 Q-10.75 0.25 -13.75 1.05 -15.45 1.15 -16.7 0.55 -13.0 -0.15 -10.85 -3.2 -10.0 -3.15 -9.35 -2.6" fill="#993300" fill-rule="evenodd" stroke="none"/>
    <path d="M-0.75 -13.55 L-0.6 -13.65 -0.2 -13.8 0.65 -14.2 1.75 -14.2 2.05 -14.05 2.1 -14.05 2.2 -14.0 2.35 -13.5 2.25 -12.95 Q1.9 -12.5 1.35 -12.65 0.85 -12.75 0.5 -12.4 L0.35 -12.2 -0.05 -11.95 -0.1 -11.95 Q-0.75 -11.9 -1.0 -12.55 -1.15 -13.0 -0.9 -13.4 L-0.75 -13.55 M-0.85 4.2 L-0.85 4.45 1.45 3.85 2.5 3.75 Q2.75 5.6 1.9 7.3 L-1.05 7.95 -1.25 6.9 -1.3 6.5 -1.45 5.85 -1.3 4.9 -0.95 4.25 -0.85 4.2 M0.5 9.85 L0.45 9.9 Q-0.2 10.75 -0.15 11.85 L-0.1 12.4 Q-1.45 12.3 -2.4 11.25 -2.7 9.9 -1.8 9.0 -0.75 9.6 0.5 9.85 M1.2 15.85 L-1.1 16.0 -2.4 15.05 -2.25 12.6 -0.5 13.1 -0.15 13.2 0.0 13.9 0.3 15.2 Q0.35 15.8 0.65 16.05 L1.2 15.85 M-1.75 19.45 L-2.05 19.35 -2.25 16.55 0.95 16.7 1.1 18.25 -0.25 18.75 Q-1.1 19.0 -1.75 19.45 M-2.95 -13.95 Q-2.75 -13.45 -3.25 -13.0 L-5.55 -12.15 -5.6 -12.1 -5.75 -11.95 -6.95 -12.05 Q-7.45 -12.5 -7.15 -13.1 L-7.1 -13.15 -6.2 -13.5 -5.25 -13.75 -5.1 -13.8 -4.15 -14.05 -2.95 -13.95" fill="#cc99cc" fill-rule="evenodd" stroke="none"/>
    <path d="M12.9 -14.9 L12.3 -14.95 11.1 -14.9 11.05 -15.0 Q11.6 -15.2 11.7 -15.8 L11.25 -15.85 10.8 -15.9 12.8 -15.7 12.9 -14.9 M-17.9 -14.4 L-17.8 -14.4 -16.5 -14.65 Q-15.95 -14.5 -15.5 -14.1 -15.05 -13.65 -15.3 -13.1 L-15.45 -12.8 -15.8 -12.8 -16.8 -12.8 -17.85 -12.75 Q-18.2 -13.2 -18.1 -13.75 L-17.9 -14.4" fill="#cc99ff" fill-rule="evenodd" stroke="none"/>
    <path d="M10.45 -14.75 Q9.25 -14.45 8.35 -13.65 8.05 -13.8 8.0 -14.05 8.05 -15.4 9.35 -16.15 L9.55 -16.1 10.6 -15.95 11.25 -15.85 11.7 -15.8 Q11.6 -15.2 11.05 -15.0 L10.55 -14.95 10.45 -14.75 M-17.9 -14.4 L-18.1 -13.75 Q-18.2 -13.2 -17.85 -12.75 L-16.8 -12.8 Q-19.35 -12.75 -21.85 -11.4 -20.45 -13.8 -17.9 -14.4" fill="#cc6699" fill-rule="evenodd" stroke="none"/>
    <path d="M12.8 -15.7 L13.3 -15.7 Q15.35 -15.6 16.7 -14.15 L12.9 -14.9 12.8 -15.7 M11.1 -14.9 L10.45 -14.75 10.55 -14.95 11.05 -15.0 11.1 -14.9 M8.35 -13.65 L8.0 -13.35 8.0 -14.05 Q8.05 -13.8 8.35 -13.65 M10.6 -15.95 L10.8 -15.9 11.25 -15.85 10.6 -15.95 M-15.45 -12.8 L-15.3 -13.1 Q-15.05 -13.65 -15.5 -14.1 -15.95 -14.5 -16.5 -14.65 L-12.5 -14.55 Q-11.35 -13.85 -10.55 -12.55 -10.55 -11.75 -11.35 -11.6 -13.45 -12.6 -15.45 -12.8" fill="#cc3300" fill-rule="evenodd" stroke="none"/>
    <path d="M2.5 3.75 Q3.05 3.9 3.55 4.6 3.75 7.05 2.15 8.8 L1.95 8.85 1.55 9.0 0.95 9.1 0.65 9.1 0.55 9.0 0.3 9.05 -0.5 8.7 -1.05 7.95 1.9 7.3 Q2.75 5.6 2.5 3.75 M-0.1 12.4 L-0.15 11.85 Q-0.2 10.75 0.45 9.9 L0.5 9.85 1.35 9.95 1.2 11.65 Q1.15 12.5 0.05 12.4 L-0.1 12.4 M-0.15 13.2 L1.2 12.9 Q1.8 14.1 1.7 15.55 L1.2 15.85 0.65 16.05 Q0.35 15.8 0.3 15.2 L0.0 13.9 -0.15 13.2 M0.95 16.7 L1.05 16.6 Q2.85 15.45 2.55 18.5 0.5 20.2 -1.75 19.45 -1.1 19.0 -0.25 18.75 L1.1 18.25 0.95 16.7" fill="#996666" fill-rule="evenodd" stroke="none"/>
  </g>
</svg>
