<?xml version="1.0" encoding="UTF-8" standalone="no"?>
<svg xmlns:xlink="http://www.w3.org/1999/xlink" height="64.0px" width="30.5px" xmlns="http://www.w3.org/2000/svg">
  <g transform="matrix(1.0, 0.0, 0.0, 1.0, 3.7, 5.4)">
    <path d="M17.15 21.65 L17.75 20.3 Q15.95 15.15 12.6 10.65 9.2 4.55 4.65 -1.0 L1.9 -2.5 1.1 -2.95 Q-0.75 -3.85 -2.55 -2.4 L-2.7 -1.0 Q-2.85 3.6 1.15 6.55 3.35 8.25 4.8 10.65 6.2 13.05 7.95 15.25 L8.8 16.5 10.75 20.3 10.9 20.45 11.5 21.5 Q12.25 22.4 13.35 22.8 L15.1 23.1 Q16.4 22.55 17.15 21.65 M6.75 -1.75 Q8.3 0.5 9.4 3.0 9.95 4.55 11.2 5.95 12.5 7.2 13.2 8.8 L17.05 15.7 Q19.75 15.15 20.8 17.35 21.1 18.5 21.95 19.4 24.85 18.7 25.45 21.4 25.7 23.1 26.6 25.0 27.4 26.8 25.25 27.85 25.3 29.4 24.3 30.6 L23.85 31.25 23.35 31.8 23.1 31.9 23.0 32.0 Q22.55 32.4 22.9 32.9 L23.0 32.95 23.05 32.95 23.1 33.0 23.25 33.4 23.45 33.75 23.5 34.0 23.5 37.25 22.9 40.3 22.45 41.85 21.9 43.05 20.55 44.95 19.9 45.45 19.45 46.05 Q19.05 46.65 18.95 47.55 L17.9 51.7 16.25 56.1 Q15.05 56.75 13.85 57.7 12.7 58.6 11.2 58.6 9.1 56.05 6.1 56.65 L3.0 54.2 Q2.55 52.9 3.05 51.7 3.6 50.5 2.35 49.6 2.8 47.25 4.15 45.3 5.45 43.35 7.95 42.75 9.05 43.2 10.0 42.35 10.9 41.5 11.8 40.95 13.3 38.5 12.05 36.1 10.7 33.7 12.2 31.15 11.95 30.1 11.1 29.55 10.2 29.1 10.9 27.85 11.15 26.0 9.8 24.6 8.4 23.15 9.7 21.3 8.65 18.5 6.7 15.9 L2.85 10.65 -0.9 6.85 Q-2.85 5.05 -3.5 2.6 -4.05 -1.15 -3.05 -4.5 -1.95 -5.6 -0.4 -5.35 L2.55 -5.1 Q5.15 -4.05 6.75 -1.75 M24.9 26.1 L25.1 26.75 25.2 26.75 Q26.0 25.95 25.65 24.7 L24.9 22.35 24.1 20.5 Q23.7 19.55 22.55 20.35 L22.2 20.3 22.1 20.35 22.0 20.4 21.65 20.95 Q20.5 18.25 17.9 16.6 17.9 17.8 18.6 18.9 19.05 19.75 18.95 20.6 L18.75 21.35 Q17.65 22.9 16.2 23.65 L16.0 23.8 13.35 24.45 12.65 24.5 10.55 22.3 Q10.05 23.15 10.6 23.6 L11.7 24.6 Q12.45 25.6 12.05 26.75 11.6 27.85 11.7 28.8 12.95 29.4 13.45 28.1 13.9 26.8 15.15 26.25 L16.75 26.15 Q18.4 26.2 19.9 26.9 L20.0 26.95 Q21.8 27.35 21.65 29.0 21.45 30.6 22.3 31.65 23.35 30.85 23.95 29.2 L23.65 27.95 23.85 27.8 Q24.8 27.15 24.9 26.1 M18.55 32.15 L19.8 32.3 Q20.5 32.5 20.95 32.05 L21.2 31.75 Q21.4 30.55 21.1 29.5 L20.8 28.7 20.55 28.4 19.8 27.75 19.1 27.45 15.9 27.2 15.65 27.3 Q14.95 27.5 14.6 28.15 L14.45 28.4 14.35 28.6 13.25 30.7 12.8 31.95 12.6 33.3 12.6 33.4 12.6 33.55 12.8 34.35 13.45 35.9 13.65 36.25 13.75 37.8 Q13.7 39.3 13.25 40.9 L15.15 41.35 15.95 36.7 16.0 36.15 Q16.2 34.5 16.9 33.05 L17.4 32.35 17.55 32.3 18.55 32.15 M21.6 42.15 L21.7 42.2 Q23.2 38.85 22.85 34.85 21.8 33.3 19.9 33.0 L18.9 32.9 Q18.8 32.9 18.75 33.0 18.1 33.0 17.7 33.35 16.6 37.6 16.25 42.0 L16.8 42.65 16.4 42.2 Q15.85 42.35 15.5 42.75 L14.9 42.65 14.5 42.75 14.45 42.75 13.8 42.45 Q12.2 42.05 10.7 42.85 L9.1 44.15 Q8.15 44.85 7.95 45.85 9.25 47.15 8.1 48.3 6.95 49.35 7.55 50.85 L7.85 51.2 9.05 51.85 9.05 52.15 9.45 52.55 Q9.85 53.25 10.5 52.95 L10.9 52.75 Q11.35 52.45 11.8 52.45 L11.9 51.85 13.45 52.1 13.9 52.5 13.5 52.45 13.1 52.8 13.0 52.85 13.05 53.2 Q13.0 53.75 13.4 54.25 L13.55 54.3 14.55 54.5 14.9 53.95 14.9 53.85 Q15.35 54.25 16.1 54.3 16.45 52.3 17.2 50.5 17.85 48.65 17.85 46.6 L18.5 45.7 19.0 45.15 19.6 44.5 20.55 43.85 20.55 43.75 Q21.35 43.1 21.6 42.15 M6.9 51.55 L6.7 51.1 6.45 49.7 6.45 49.25 Q7.75 48.35 7.35 47.15 6.95 46.0 6.95 44.65 5.8 44.45 5.2 45.4 L5.05 45.65 5.05 45.7 4.45 46.25 4.2 46.5 Q3.9 46.7 3.9 47.15 L3.9 47.35 3.85 47.4 Q2.85 48.2 3.15 49.45 3.3 49.85 3.85 49.85 4.75 49.75 4.8 48.8 L4.85 48.45 5.0 48.4 6.0 47.65 Q6.2 48.6 5.65 49.55 L5.0 50.45 4.8 50.6 4.85 50.2 4.05 52.85 5.15 53.65 6.65 55.05 7.35 55.6 Q8.35 56.0 9.6 55.0 10.15 55.45 10.15 56.05 10.1 56.7 10.95 56.95 12.2 57.7 13.15 56.8 L13.35 56.65 14.6 55.75 Q14.75 55.6 15.05 55.55 L15.15 55.5 15.05 55.35 14.75 55.1 Q14.6 55.6 14.05 55.5 L13.35 55.45 Q12.6 55.35 12.35 54.65 L12.3 54.35 12.15 53.65 12.0 53.8 10.75 54.45 10.4 54.5 Q9.25 54.55 8.5 53.65 8.15 53.3 8.15 52.75 L8.15 52.55 7.6 52.5 6.9 51.55" fill="#000000" fill-rule="evenodd" stroke="none"/>
    <path d="M1.9 -2.5 L2.05 -2.1 2.2 -1.7 Q2.75 -0.6 3.75 -0.1 4.2 1.1 5.05 2.1 L6.25 3.6 8.85 6.85 11.4 10.1 11.8 10.85 Q12.25 13.4 13.35 15.75 14.85 18.95 17.15 21.65 16.4 22.55 15.1 23.1 L13.35 22.8 12.8 20.2 12.7 19.85 12.6 19.6 11.4 16.7 9.2 13.1 7.15 10.0 Q5.3 7.15 2.65 5.2 L3.0 5.05 Q4.75 4.25 4.05 2.5 L3.25 0.9 Q2.35 -0.75 0.65 -0.95 -0.55 -0.85 -0.9 0.0 -1.55 -0.85 -2.7 -1.0 L-2.55 -2.4 Q-0.75 -3.85 1.1 -2.95 L1.9 -2.5 M18.55 32.15 L17.55 32.3 17.4 32.35 16.9 33.05 16.85 32.9 Q16.35 30.8 14.35 30.5 L13.25 30.7 14.35 28.6 14.45 28.4 14.6 28.15 15.15 28.25 Q17.45 28.45 18.75 30.5 L18.8 30.75 18.8 30.85 18.8 30.95 18.85 31.1 Q18.5 31.55 18.55 32.15 M15.95 36.7 L15.15 41.35 13.25 40.9 Q13.7 39.3 13.75 37.8 L14.95 37.5 15.95 36.7 M6.9 51.55 L7.6 52.5 7.3 52.25 6.9 51.55 M15.05 55.35 L15.15 55.5 15.05 55.55 15.05 55.35" fill="#e3b18b" fill-rule="evenodd" stroke="none"/>
    <path d="M17.15 21.65 Q14.85 18.95 13.35 15.75 12.25 13.4 11.8 10.85 L11.4 10.1 8.85 6.85 6.25 3.6 5.05 2.1 Q4.2 1.1 3.75 -0.1 2.75 -0.6 2.2 -1.7 L2.05 -2.1 1.9 -2.5 4.65 -1.0 Q9.2 4.55 12.6 10.65 15.95 15.15 17.75 20.3 L17.15 21.65 M14.6 28.15 Q14.95 27.5 15.65 27.3 L15.9 27.2 19.1 27.45 19.8 27.75 20.55 28.4 20.8 28.7 21.1 29.5 Q21.4 30.55 21.2 31.75 L20.95 32.05 Q20.5 32.5 19.8 32.3 L18.55 32.15 Q18.5 31.55 18.85 31.1 L18.8 30.95 18.8 30.85 18.8 30.75 18.75 30.5 Q17.45 28.45 15.15 28.25 L14.6 28.15 M7.6 52.5 L8.15 52.55 8.15 52.75 Q8.15 53.3 8.5 53.65 9.25 54.55 10.4 54.5 L10.75 54.45 12.0 53.8 12.15 53.65 12.3 54.35 12.35 54.65 Q12.6 55.35 13.35 55.45 L14.05 55.5 Q14.6 55.6 14.75 55.1 L15.05 55.35 15.05 55.55 Q14.75 55.6 14.6 55.75 L13.35 56.65 13.15 56.8 Q12.2 57.7 10.95 56.95 10.1 56.7 10.15 56.05 10.15 55.45 9.6 55.0 8.35 56.0 7.35 55.6 L6.65 55.05 5.15 53.65 5.5 53.15 Q5.9 52.65 6.45 52.45 L7.3 52.25 7.6 52.5" fill="#ad7a3f" fill-rule="evenodd" stroke="none"/>
    <path d="M-0.9 0.0 Q-0.55 -0.85 0.65 -0.95 2.35 -0.75 3.25 0.9 L4.05 2.5 Q4.75 4.25 3.0 5.05 L2.65 5.2 2.6 5.2 2.1 4.85 1.65 4.5 1.25 4.3 Q0.55 3.5 0.2 2.5 L-0.5 0.5 -0.9 0.0 M11.4 16.7 L12.6 19.6 12.7 19.85 12.8 20.2 Q12.65 21.0 11.75 21.45 L11.5 21.5 10.9 20.45 10.75 20.3 8.8 16.5 Q9.05 15.95 9.6 15.55 L10.9 15.8 11.4 16.7" fill="#ffffff" fill-rule="evenodd" stroke="none"/>
    <path d="M-2.7 -1.0 Q-1.55 -0.85 -0.9 0.0 L-0.5 0.5 0.2 2.5 Q0.55 3.5 1.25 4.3 L1.65 4.5 2.1 4.85 2.6 5.2 2.65 5.2 Q5.3 7.15 7.15 10.0 L9.2 13.1 11.4 16.7 10.9 15.8 9.6 15.55 Q9.05 15.95 8.8 16.5 L7.95 15.25 Q6.2 13.05 4.8 10.65 3.35 8.25 1.15 6.55 -2.85 3.6 -2.7 -1.0 M12.8 20.2 L13.35 22.8 Q12.25 22.4 11.5 21.5 L11.75 21.45 Q12.65 21.0 12.8 20.2 M16.9 33.05 Q16.2 34.5 16.0 36.15 L15.95 36.7 14.95 37.5 13.75 37.8 13.65 36.25 13.45 35.9 12.8 34.35 12.6 33.55 12.6 33.4 12.6 33.3 12.8 31.95 13.25 30.7 14.35 30.5 Q16.35 30.8 16.85 32.9 L16.9 33.05 M5.15 53.65 L4.05 52.85 4.85 50.2 4.8 50.6 5.0 50.45 5.65 49.55 Q6.2 48.6 6.0 47.65 L5.0 48.4 4.85 48.45 4.8 48.8 Q4.75 49.75 3.85 49.85 3.3 49.85 3.15 49.45 2.85 48.2 3.85 47.4 L3.9 47.35 3.9 47.15 Q3.9 46.7 4.2 46.5 L4.45 46.25 5.05 45.7 5.05 45.65 5.2 45.4 Q5.8 44.45 6.95 44.65 6.95 46.0 7.35 47.15 7.75 48.35 6.45 49.25 L6.45 49.7 6.7 51.1 6.9 51.55 7.3 52.25 6.45 52.45 Q5.9 52.65 5.5 53.15 L5.15 53.65" fill="#edcdb6" fill-rule="evenodd" stroke="none"/>
    <path d="M24.9 26.1 Q24.8 27.15 23.85 27.8 L23.65 27.95 22.1 22.2 21.65 20.95 22.0 20.4 22.1 20.35 22.2 20.3 22.55 20.35 22.45 20.4 22.65 20.85 24.65 25.4 24.9 26.05 24.9 26.1" fill="#333333" fill-rule="evenodd" stroke="none"/>
    <path d="M22.55 20.35 Q23.7 19.55 24.1 20.5 L24.9 22.35 25.65 24.7 Q26.0 25.95 25.2 26.75 L25.1 26.75 24.9 26.1 24.9 26.05 24.65 25.4 22.65 20.85 22.45 20.4 22.55 20.35 M23.65 27.95 L23.95 29.2 Q23.35 30.85 22.3 31.65 21.45 30.6 21.65 29.0 21.8 27.35 20.0 26.95 L19.9 26.9 20.45 26.1 Q21.1 24.95 20.85 23.6 20.45 21.4 18.95 20.6 19.05 19.75 18.6 18.9 17.9 17.8 17.9 16.6 20.5 18.25 21.65 20.95 L22.1 22.2 23.65 27.95" fill="#666666" fill-rule="evenodd" stroke="none"/>
    <path d="M16.75 26.15 L15.15 26.25 Q13.9 26.8 13.45 28.1 12.95 29.4 11.7 28.8 11.6 27.85 12.05 26.75 12.45 25.6 11.7 24.6 L10.6 23.6 Q10.05 23.15 10.55 22.3 L12.65 24.5 13.35 24.45 16.0 23.8 16.2 23.65 16.55 24.3 Q16.95 25.15 16.75 26.05 L16.75 26.15" fill="#cccccc" fill-rule="evenodd" stroke="none"/>
    <path d="M19.9 26.9 Q18.4 26.2 16.75 26.15 L16.75 26.05 Q16.95 25.15 16.55 24.3 L16.2 23.65 Q17.65 22.9 18.75 21.35 L18.95 20.6 Q20.45 21.4 20.85 23.6 21.1 24.95 20.45 26.1 L19.9 26.9" fill="#999999" fill-rule="evenodd" stroke="none"/>
    <path d="M19.9 33.0 L19.25 36.45 18.85 39.4 18.75 40.1 Q20.4 40.9 21.6 42.15 21.35 43.1 20.55 43.75 L20.55 43.85 19.6 44.5 18.65 44.65 16.95 42.85 16.8 42.65 16.25 42.0 Q16.6 37.6 17.7 33.35 18.1 33.0 18.75 33.0 18.8 32.9 18.9 32.9 L19.9 33.0 M14.9 53.85 L14.9 53.95 14.55 54.5 13.55 54.3 13.4 54.25 Q13.0 53.75 13.05 53.2 L13.0 52.85 13.1 52.8 13.5 52.45 13.9 52.5 Q15.1 52.65 14.9 53.85 M11.9 51.85 L11.8 52.45 Q11.35 52.45 10.9 52.75 L10.5 52.95 Q9.85 53.25 9.45 52.55 L9.05 52.15 9.05 51.85 Q9.2 50.7 10.5 50.6 11.8 50.75 11.9 51.85 M7.85 51.2 L7.55 50.85 Q6.95 49.35 8.1 48.3 9.25 47.15 7.95 45.85 8.15 44.85 9.1 44.15 L10.7 42.85 Q12.2 42.05 13.8 42.45 13.05 43.05 12.6 44.1 L12.25 44.95 11.15 47.05 Q10.6 48.15 9.45 48.7 7.75 49.45 7.85 51.2" fill="#9999ff" fill-rule="evenodd" stroke="none"/>
    <path d="M19.9 33.0 Q21.8 33.3 22.85 34.85 23.2 38.85 21.7 42.2 L21.6 42.15 Q20.4 40.9 18.75 40.1 L18.85 39.4 19.25 36.45 19.9 33.0 M19.6 44.5 L19.0 45.15 18.5 45.7 17.85 46.6 Q17.85 48.65 17.2 50.5 16.45 52.3 16.1 54.3 15.35 54.25 14.9 53.85 15.1 52.65 13.9 52.5 L13.45 52.1 11.9 51.85 Q11.8 50.75 10.5 50.6 9.2 50.7 9.05 51.85 L7.85 51.2 Q7.75 49.45 9.45 48.7 10.6 48.15 11.15 47.05 L12.25 44.95 12.6 44.1 Q13.05 43.05 13.8 42.45 L14.45 42.75 14.5 42.75 14.9 42.65 15.5 42.75 Q15.85 42.35 16.4 42.2 L16.8 42.65 16.95 42.85 18.65 44.65 19.6 44.5" fill="#333366" fill-rule="evenodd" stroke="none"/>
  </g>
</svg>
