<?xml version="1.0" encoding="UTF-8" standalone="no"?>
<svg xmlns:xlink="http://www.w3.org/1999/xlink" height="89.5px" width="58.65px" xmlns="http://www.w3.org/2000/svg">
  <g transform="matrix(1.0, 0.0, 0.0, 1.0, 26.6, 44.8)">
    <path d="M26.7 -27.0 L26.15 -27.45 Q24.6 -28.95 22.65 -29.35 L22.55 -29.25 22.35 -29.35 21.0 -29.65 Q20.25 -30.45 19.25 -30.35 L17.95 -25.45 17.9 -21.05 Q17.8 -18.7 19.7 -17.2 23.05 -17.05 26.2 -17.9 L28.25 -18.6 28.4 -18.65 29.35 -19.15 Q30.45 -19.9 31.1 -21.0 30.65 -21.75 30.05 -21.95 L30.05 -22.05 30.15 -22.2 30.35 -23.15 30.05 -23.7 29.3 -23.55 29.2 -24.5 26.7 -27.0 M1.0 -38.6 L2.75 -39.1 Q3.15 -40.8 2.4 -42.5 L2.35 -42.65 2.25 -42.7 2.2 -42.75 2.15 -42.8 2.1 -42.85 Q1.65 -43.25 1.0 -43.35 L0.3 -43.35 -1.7 -43.3 -2.25 -43.3 -2.6 -43.15 Q-3.5 -42.7 -3.5 -41.65 L-3.5 -41.05 -3.3 -39.25 -2.5 -38.9 1.0 -38.6 M3.3 -43.35 Q3.85 -41.65 3.85 -39.9 3.85 -38.15 4.55 -36.55 5.35 -36.85 5.75 -36.4 L6.8 -35.75 9.1 -34.95 Q10.3 -34.7 11.25 -35.85 12.1 -36.05 12.45 -35.45 L13.3 -34.35 16.1 -34.45 Q16.4 -33.95 16.05 -33.5 15.7 -33.05 15.8 -32.45 18.2 -31.15 21.0 -31.25 23.8 -31.35 25.95 -29.3 28.85 -27.55 30.6 -24.85 32.35 -22.1 32.0 -18.75 29.55 -16.8 26.45 -16.45 L20.25 -15.75 Q18.45 -13.45 19.55 -10.6 20.6 -7.8 18.75 -5.35 15.65 -3.5 15.75 -0.25 15.85 3.0 14.7 5.75 L13.3 5.75 13.3 11.2 Q14.0 11.3 14.7 11.8 15.4 12.3 14.8 13.25 14.6 13.45 14.7 13.8 16.9 13.05 17.45 14.9 17.85 16.75 18.75 18.0 19.5 19.7 19.05 21.45 17.85 22.1 18.45 23.1 19.0 24.1 19.2 25.05 L19.4 29.1 Q19.35 30.4 19.9 31.5 19.7 31.75 19.65 32.15 L19.6 32.15 19.6 32.2 19.35 32.3 19.1 32.4 19.0 32.5 18.95 32.4 Q12.95 34.95 11.6 41.1 10.8 42.15 10.8 43.25 10.35 43.85 10.5 44.7 L5.1 44.2 -9.9 42.95 -10.65 42.95 Q-10.6 41.85 -11.15 41.35 -11.8 39.0 -12.65 36.9 L-15.3 33.2 Q-16.65 31.15 -19.0 31.55 L-20.45 31.35 -20.45 31.4 -20.5 31.45 -21.5 26.65 Q-22.1 24.0 -20.7 21.6 -19.65 20.55 -18.15 20.2 -16.3 15.75 -13.7 11.65 L-14.0 9.4 Q-14.15 8.2 -13.35 7.3 -12.35 6.95 -12.35 6.0 -12.4 5.05 -11.9 4.3 L-14.1 3.5 -14.1 0.15 Q-14.1 -1.5 -15.05 -2.85 -17.35 -4.7 -18.7 -7.25 L-17.9 -12.2 Q-21.15 -20.8 -26.6 -28.4 -25.8 -30.4 -23.85 -31.35 L-21.0 -31.4 Q-19.45 -30.95 -19.25 -32.85 L-15.65 -33.15 Q-13.8 -33.25 -12.45 -34.75 -11.3 -34.55 -10.7 -35.7 -10.2 -36.85 -9.0 -35.85 L-8.0 -35.25 Q-7.3 -35.8 -7.15 -36.8 -5.4 -36.45 -4.65 -37.9 -4.45 -40.0 -4.4 -42.05 -4.4 -44.15 -1.8 -44.8 L1.05 -44.6 Q2.55 -44.85 3.3 -43.35 M8.6 -33.95 Q7.15 -34.6 5.5 -34.75 2.65 -33.5 -0.55 -33.9 -3.8 -34.4 -6.45 -35.75 -7.2 -35.0 -6.75 -34.2 L1.05 -28.5 1.85 -28.4 8.6 -33.95 M2.65 -35.05 L3.4 -35.55 3.0 -37.75 Q-0.4 -37.25 -3.45 -38.2 L-4.25 -36.35 Q-0.95 -35.4 2.65 -35.05 M3.35 -28.3 L3.0 -28.2 1.7 -27.25 1.55 -27.1 -1.65 -29.35 -9.45 -34.75 Q-10.05 -34.55 -9.9 -33.8 -6.5 -30.85 -2.95 -28.15 L-0.5 -26.35 -0.85 -26.55 -0.9 -26.55 -1.25 -26.25 -1.8 -25.65 -2.45 -25.4 -2.7 -25.25 -2.3 -25.6 -2.3 -26.1 -5.65 -28.7 Q-7.3 -29.75 -8.45 -31.25 -9.7 -32.7 -11.35 -33.55 -13.05 -33.9 -14.4 -32.55 L-14.85 -32.6 Q-15.7 -32.6 -16.1 -31.9 L-17.3 -32.0 Q-18.8 -32.25 -19.25 -31.1 L-17.25 -27.7 Q-15.55 -24.1 -15.35 -19.95 -15.3 -17.7 -15.7 -15.3 L-13.65 -16.8 -13.6 -16.8 -13.1 -17.15 -13.0 -17.25 -4.95 -23.5 -5.25 -22.4 -9.45 -19.05 -16.75 -12.95 -16.8 -12.9 -16.6 -12.8 Q-12.6 -15.4 -8.55 -18.1 L-4.65 -20.85 -4.45 -21.0 -4.35 -21.05 -4.25 -21.15 -0.55 -23.85 -0.45 -24.0 1.25 -25.05 1.3 -25.05 5.8 -22.1 6.65 -21.5 7.55 -20.95 7.6 -20.95 8.75 -20.25 9.6 -19.75 10.65 -19.1 13.65 -17.2 Q16.0 -15.65 18.75 -14.8 L18.9 -15.7 Q14.9 -18.0 11.1 -20.45 L11.05 -20.55 10.7 -20.75 10.65 -20.75 8.95 -21.9 Q8.75 -22.65 8.1 -23.2 6.05 -25.05 3.6 -25.6 L3.1 -26.0 3.15 -26.05 3.75 -26.5 4.25 -27.45 Q8.15 -30.2 11.5 -33.7 L11.2 -34.0 Q7.0 -31.45 3.35 -28.3 M14.4 -31.6 L14.75 -33.4 13.5 -33.55 5.25 -26.1 5.25 -25.6 Q8.7 -23.1 12.35 -20.95 L12.35 -20.9 13.35 -20.35 16.25 -18.7 16.45 -19.05 Q14.45 -22.2 14.2 -26.0 L14.2 -26.3 Q14.0 -29.05 14.4 -31.6 M17.85 -29.7 Q18.1 -30.65 17.15 -30.85 L15.5 -31.4 Q14.0 -25.7 16.75 -20.8 16.4 -25.65 17.85 -29.7 M20.6 -27.6 L20.75 -28.4 20.85 -28.3 20.7 -28.05 20.6 -27.6 M7.4 3.5 Q10.55 3.85 13.5 4.85 L13.95 5.0 Q14.6 3.1 14.4 0.9 14.2 -1.3 15.2 -3.0 L15.4 -3.1 Q18.3 -4.85 17.95 -7.75 L17.55 -13.7 11.55 -17.05 8.1 -19.1 8.0 -19.15 8.45 -19.6 8.25 -19.35 7.9 -19.7 7.05 -20.25 2.65 -22.4 0.75 -23.0 -0.5 -22.2 -0.5 -22.1 -1.45 -21.35 -1.6 -21.25 -2.25 -20.8 -4.2 -19.7 -11.3 -14.65 -11.55 -14.7 -11.8 -14.65 -11.9 -14.65 -12.15 -14.4 -12.3 -14.3 -12.3 -13.95 -16.3 -11.1 -17.1 -10.05 Q-17.75 -8.25 -16.55 -7.1 L-14.2 -4.9 Q-12.85 -3.25 -12.85 -0.95 L-13.0 3.4 -9.45 4.2 2.4 3.3 7.4 3.5 M8.65 10.7 L12.05 11.2 11.85 5.55 Q6.3 4.3 0.75 4.6 L-10.6 4.95 -10.6 6.5 -9.7 6.65 -5.75 7.45 -2.0 8.3 0.7 9.0 8.65 10.7 M2.95 10.5 L1.7 10.25 -0.5 9.75 -5.45 8.65 -7.1 8.3 -7.2 8.15 -7.35 8.05 -8.85 7.85 -9.35 7.75 Q-9.7 7.4 -10.3 7.4 L-10.65 7.5 -11.6 7.6 Q-12.1 8.0 -12.65 8.25 -12.9 9.55 -12.05 10.7 L-11.8 10.65 Q-11.4 11.15 -10.6 11.0 L-9.4 11.2 -8.75 11.4 -8.25 11.3 -8.2 11.3 -8.1 10.55 -8.2 11.4 -5.85 11.8 -5.5 11.9 -5.15 11.95 -4.45 12.15 -4.05 12.25 -3.8 12.3 -2.4 12.55 -2.5 12.6 -1.85 12.9 0.85 13.85 1.5 12.8 1.1 13.55 1.9 13.7 2.0 13.7 Q2.8 14.35 3.85 14.45 L3.75 14.6 1.95 14.95 -0.95 15.75 0.55 15.1 Q-5.65 12.85 -12.45 11.95 L-12.95 12.5 -14.4 14.55 -15.0 16.2 Q-15.75 18.6 -17.25 20.7 L-14.1 20.6 -13.6 20.1 -13.95 20.4 -13.75 21.15 -13.7 21.35 -20.05 22.55 -20.1 22.75 -20.2 24.35 -20.2 25.5 Q-20.1 28.1 -19.15 30.5 L-15.3 30.1 Q-13.7 29.5 -12.0 29.4 L-12.0 29.45 -11.8 30.15 -11.55 30.8 -10.95 31.65 -10.3 31.8 Q-11.35 31.75 -12.05 30.9 -13.25 29.65 -15.0 31.1 L-12.5 34.45 -11.5 36.0 Q-9.95 38.6 -10.05 41.8 L-0.25 42.4 9.4 43.1 10.5 39.3 Q12.1 35.7 14.9 33.05 L18.0 30.75 Q18.35 28.45 17.85 26.2 L16.75 22.65 Q12.9 23.75 9.15 25.15 9.25 25.95 8.7 26.55 L8.7 26.5 8.75 26.25 Q8.75 25.4 8.35 24.65 L8.2 24.2 Q10.55 23.55 12.7 22.55 L13.15 22.35 13.75 22.45 13.9 22.2 13.95 22.05 Q15.6 21.45 17.45 21.5 18.2 21.25 18.0 20.45 L17.75 19.05 17.15 17.95 15.7 15.3 12.15 15.8 Q11.9 15.6 11.6 15.55 L11.35 15.95 Q8.95 16.5 6.75 17.45 L6.45 17.45 6.45 16.5 6.05 15.1 7.4 15.65 11.0 15.15 Q12.75 14.85 13.35 13.2 8.25 11.45 2.95 10.5 M-2.85 18.05 L-2.9 18.1 Q-2.95 18.8 -2.6 19.15 -3.75 19.25 -4.75 19.8 L-4.8 19.8 -4.95 19.8 -5.0 19.5 -5.1 18.75 -5.1 18.65 -4.7 18.6 -2.85 18.05 M-0.55 26.55 L-0.45 26.7 -0.3 27.9 -0.1 28.6 -0.05 28.8 Q-0.8 28.3 -1.45 28.0 L-2.2 28.45 Q-2.2 27.8 -2.35 27.2 L-0.5 26.75 -0.55 26.55 M-19.8 -30.05 L-19.85 -30.1 -19.9 -30.15 Q-22.95 -30.6 -25.15 -28.85 L-23.2 -26.15 Q-21.3 -23.2 -19.85 -20.05 -18.45 -17.15 -17.55 -14.05 -16.0 -18.1 -16.6 -22.45 L-16.85 -23.85 Q-17.65 -27.35 -19.8 -30.05 M-10.55 28.65 L-10.6 28.65 -10.6 28.6 -10.55 28.65 M-11.25 26.1 L-11.3 25.9 -11.25 26.1" fill="#000000" fill-rule="evenodd" stroke="none"/>
    <path d="M29.3 -23.55 L30.05 -23.7 30.35 -23.15 30.15 -22.2 30.05 -22.05 30.05 -21.95 Q30.65 -21.75 31.1 -21.0 30.45 -19.9 29.35 -19.15 L28.4 -18.65 28.25 -18.6 26.2 -17.9 26.1 -18.3 25.8 -19.55 25.75 -19.65 23.6 -19.7 Q22.25 -19.85 21.65 -20.9 L20.5 -23.0 20.45 -23.8 20.4 -24.45 20.4 -24.65 20.4 -24.8 20.4 -25.4 20.4 -26.25 20.55 -27.5 20.6 -27.6 20.7 -28.05 20.85 -28.3 20.75 -28.4 21.05 -29.55 21.0 -29.65 22.35 -29.35 22.55 -29.25 Q21.15 -27.7 21.05 -25.6 L21.05 -25.3 Q21.1 -22.35 23.4 -20.75 26.15 -20.1 28.3 -21.75 29.2 -22.5 29.3 -23.55 M8.6 -33.95 L1.85 -28.4 1.05 -28.5 -6.75 -34.2 Q-7.2 -35.0 -6.45 -35.75 -3.8 -34.4 -0.55 -33.9 2.65 -33.5 5.5 -34.75 7.15 -34.6 8.6 -33.95 M3.7 -33.2 L3.65 -33.05 3.65 -32.9 3.65 -32.65 3.65 -32.55 3.9 -32.3 4.05 -32.15 4.65 -32.15 4.75 -32.25 Q5.6 -33.4 4.1 -33.6 L3.7 -33.2 M2.15 -32.65 L1.7 -32.7 1.6 -32.65 1.3 -32.4 1.25 -32.3 1.25 -31.75 1.25 -31.7 1.15 -31.75 0.6 -31.55 Q-0.8 -30.75 0.5 -29.7 L1.4 -29.7 1.6 -29.85 Q2.45 -30.75 1.9 -31.35 L1.95 -31.4 Q2.9 -31.9 2.15 -32.65 M-4.25 -21.15 L-4.35 -21.05 -4.45 -21.0 -4.25 -21.15 M-4.95 -23.5 L-13.0 -17.25 Q-11.9 -18.75 -13.65 -19.35 L-14.2 -19.2 Q-16.25 -18.25 -14.6 -16.8 L-13.65 -16.8 -15.7 -15.3 Q-15.3 -17.7 -15.35 -19.95 L-14.9 -19.9 Q-13.8 -19.75 -13.15 -20.6 -11.6 -22.7 -12.05 -25.3 -12.3 -26.4 -12.85 -27.15 L-12.45 -27.55 Q-11.75 -29.2 -13.65 -29.3 L-14.1 -28.8 -14.3 -28.3 -14.7 -28.45 Q-14.5 -29.45 -15.95 -29.85 L-16.35 -29.8 -16.55 -29.8 Q-17.0 -29.5 -17.05 -29.05 L-17.0 -28.0 -17.25 -27.7 -19.25 -31.1 Q-18.8 -32.25 -17.3 -32.0 L-16.1 -31.9 -16.3 -31.5 Q-16.65 -30.65 -15.95 -30.2 -14.4 -28.95 -13.55 -30.65 L-13.25 -31.3 Q-13.2 -30.65 -12.45 -30.3 -11.8 -30.0 -11.4 -30.5 -10.05 -32.15 -12.05 -32.8 L-13.0 -32.25 -13.25 -31.65 Q-13.35 -32.4 -14.4 -32.55 -13.05 -33.9 -11.35 -33.55 -9.7 -32.7 -8.45 -31.25 -7.3 -29.75 -5.65 -28.7 L-2.3 -26.1 -2.3 -25.6 -2.7 -25.25 -4.95 -23.5 M12.35 -20.95 Q8.7 -23.1 5.25 -25.6 L5.25 -26.1 13.5 -33.55 14.75 -33.4 14.4 -31.6 14.0 -31.6 Q11.1 -29.25 10.95 -25.2 10.95 -24.6 11.1 -24.15 L12.35 -20.95 M17.85 -29.7 Q16.4 -25.65 16.75 -20.8 14.0 -25.7 15.5 -31.4 L17.15 -30.85 Q18.1 -30.65 17.85 -29.7 M11.55 -17.05 L11.75 -16.35 11.05 -16.65 10.4 -16.4 Q9.4 -15.35 10.6 -14.6 L11.6 -14.7 Q12.15 -15.35 12.15 -15.75 L13.35 -14.35 13.15 -14.05 Q12.9 -13.6 13.25 -13.25 L13.5 -13.2 14.1 -13.3 14.3 -13.4 15.95 -11.75 Q15.6 -11.0 15.55 -10.2 L15.35 -8.05 Q14.1 -6.45 12.2 -5.6 11.3 -5.2 10.75 -4.55 L7.5 -5.85 4.2 -6.1 0.35 -6.5 -4.3 -6.1 -4.35 -6.0 Q-4.5 -5.3 -5.05 -4.85 -6.35 -3.65 -7.8 -2.7 L-8.5 -2.2 Q-9.05 -1.8 -9.7 -1.75 L-8.85 -0.85 Q-7.4 0.1 -5.9 -0.85 -4.65 -1.65 -3.2 -2.1 L-2.4 -2.4 Q1.4 -2.8 4.55 -0.95 4.35 0.05 4.7 1.05 5.15 2.55 6.5 3.4 L7.4 3.5 2.4 3.3 -9.45 4.2 -13.0 3.4 -12.85 -0.95 Q-12.85 -3.25 -14.2 -4.9 L-16.55 -7.1 Q-17.75 -8.25 -17.1 -10.05 L-16.3 -11.1 -12.3 -13.95 Q-12.15 -12.8 -10.85 -13.45 L-10.75 -13.85 -10.95 -14.5 -11.15 -14.6 -11.3 -14.65 -4.2 -19.7 -2.25 -20.8 -1.6 -21.25 -1.45 -21.35 -0.5 -22.1 -0.5 -22.2 0.75 -23.0 2.65 -22.4 7.05 -20.25 7.9 -19.7 8.25 -19.35 8.45 -19.6 8.0 -19.15 8.1 -19.1 11.55 -17.05 M4.3 -13.8 L6.4 -13.45 6.1 -13.8 Q3.65 -15.6 0.15 -15.1 L-1.4 -14.8 -1.0 -14.9 -1.55 -14.9 -3.6 -14.5 Q-4.55 -14.1 -5.0 -13.35 L-4.6 -13.5 -0.15 -14.05 4.3 -13.8 M12.8 -10.35 Q13.75 -11.9 11.9 -12.4 L11.5 -12.35 Q10.8 -12.2 10.55 -11.5 10.05 -9.95 11.65 -9.75 12.4 -9.65 12.8 -10.35 M3.7 -10.5 L3.65 -10.4 Q3.5 -8.8 5.0 -9.55 L5.1 -9.95 4.95 -10.6 4.9 -10.65 4.7 -10.7 4.35 -10.8 4.1 -10.75 3.95 -10.75 3.75 -10.5 3.7 -10.5 M9.35 -9.4 Q8.45 -7.85 9.8 -6.95 L10.6 -6.95 11.1 -7.35 Q12.0 -8.8 10.6 -9.8 L9.8 -9.8 9.35 -9.4 M8.0 -10.95 L8.95 -10.75 Q10.4 -10.7 10.7 -12.15 11.3 -14.45 8.95 -14.75 7.15 -14.7 7.05 -12.85 7.0 -11.75 7.55 -11.25 L6.55 -11.4 6.35 -11.3 Q6.0 -11.1 5.9 -10.6 5.35 -8.4 7.65 -8.75 L8.1 -9.45 Q8.4 -10.5 8.0 -10.95 M7.7 -15.45 Q8.6 -16.6 7.1 -16.8 L6.65 -16.4 Q6.45 -16.0 6.55 -15.6 7.05 -15.15 7.6 -15.35 L7.7 -15.45 M-2.85 17.45 L-2.75 18.0 -2.85 18.05 -4.7 18.6 -5.1 18.65 Q-5.8 18.6 -6.2 17.6 L-6.35 17.65 -10.35 18.65 -13.6 20.1 -14.1 20.6 -17.25 20.7 Q-15.75 18.6 -15.0 16.2 L-14.4 14.55 Q-13.6 15.4 -12.15 15.05 L-11.6 15.7 -10.75 15.7 -10.3 15.3 -9.45 15.5 -7.6 15.9 -7.2 16.15 Q-6.8 16.35 -6.5 16.15 L-2.85 17.45 M14.9 33.05 Q12.1 35.7 10.5 39.3 L9.4 43.1 -0.25 42.4 -10.05 41.8 Q-9.95 38.6 -11.5 36.0 L-12.5 34.45 -10.5 34.45 Q-9.05 34.4 -7.8 33.85 L-6.1 33.45 Q2.95 32.5 10.85 28.3 12.2 29.05 13.65 29.05 L14.7 32.6 14.9 33.05 M11.35 32.75 L11.45 32.7 Q12.8 30.95 10.7 30.3 L10.3 30.35 10.15 30.35 Q9.65 30.65 9.6 31.15 9.25 33.15 11.35 32.75 M5.1 38.95 L5.45 38.75 6.3 38.0 Q6.75 37.8 6.9 37.25 7.45 34.8 4.85 34.85 L4.8 34.9 -3.7 34.2 -4.5 34.4 Q-6.55 35.35 -5.9 37.45 L-5.85 37.65 Q-6.05 38.15 -5.4 38.7 L-4.8 38.75 -4.8 38.7 -4.6 38.6 -3.35 38.7 3.65 38.95 3.45 39.45 Q3.45 39.95 3.95 40.1 L4.65 40.0 Q5.45 39.45 5.1 38.95 M6.15 38.45 L5.7 38.95 Q5.3 39.85 6.2 40.25 L6.85 40.2 Q8.5 39.1 6.6 38.3 L6.3 38.45 6.15 38.45 M6.35 32.95 Q5.6 34.3 7.0 34.9 7.65 35.15 8.1 34.65 9.45 32.95 7.4 32.4 6.75 32.35 6.35 32.95 M8.4 34.85 L8.25 34.85 Q7.9 35.1 7.8 35.6 7.35 37.5 9.4 37.15 10.95 35.55 8.85 34.8 L8.4 34.85 M-16.85 -23.85 L-16.6 -22.45 Q-16.0 -18.1 -17.55 -14.05 -18.45 -17.15 -19.85 -20.05 L-17.7 -19.9 -17.55 -20.05 Q-16.7 -21.5 -16.8 -23.15 L-16.85 -23.8 -16.85 -23.85 M-9.55 -29.9 L-9.55 -29.8 -9.35 -29.55 -9.2 -29.4 -8.65 -29.4 -8.55 -29.45 Q-8.35 -29.6 -8.3 -29.85 L-8.25 -30.15 -8.45 -30.5 -8.55 -30.65 -9.05 -30.65 -9.4 -30.45 -9.5 -30.35 -9.55 -29.9 M-0.4 -33.55 L-0.8 -33.5 -0.9 -33.45 -1.35 -32.95 Q-1.7 -32.0 -0.85 -31.65 L-0.2 -31.7 Q1.5 -32.75 -0.4 -33.55 M-10.9 -29.25 L-11.0 -29.1 Q-11.1 -27.5 -9.65 -28.25 L-9.55 -28.65 Q-9.5 -29.05 -9.7 -29.3 L-9.95 -29.45 -10.3 -29.55 -10.55 -29.5 -10.7 -29.45 -10.9 -29.25 M-9.45 -14.95 L-9.9 -14.55 Q-10.7 -13.35 -9.45 -12.6 L-8.65 -12.6 -8.2 -13.0 Q-7.4 -14.25 -8.65 -14.95 L-9.45 -14.95 M-13.2 -8.3 L-13.4 -8.25 Q-14.0 -7.8 -14.1 -7.1 -14.4 -4.95 -12.05 -5.25 -11.45 -5.3 -11.25 -5.95 -10.45 -8.3 -13.1 -8.35 L-13.1 -8.3 -13.2 -8.3 M-15.55 -7.6 Q-14.4 -8.75 -15.95 -9.3 L-16.25 -9.2 Q-17.45 -8.45 -16.3 -7.55 L-15.55 -7.6 M-11.85 -11.75 Q-12.55 -11.8 -12.85 -11.3 -13.15 -11.8 -14.15 -12.05 -15.0 -12.15 -15.45 -11.3 -16.1 -9.8 -14.65 -9.25 -13.65 -8.8 -13.15 -9.6 L-12.35 -8.9 Q-11.35 -8.55 -10.85 -9.35 -9.65 -11.25 -11.85 -11.75 M-9.85 -7.25 L-10.25 -6.8 Q-11.05 -5.55 -9.55 -5.25 -9.0 -5.15 -8.75 -5.6 -7.8 -7.25 -9.85 -7.25 M-12.3 15.55 Q-12.95 15.5 -13.35 16.15 -14.15 17.55 -12.7 18.2 -11.85 18.6 -11.4 17.85 -10.2 16.0 -12.3 15.55 M-8.75 17.3 L-8.65 17.2 Q-7.75 16.05 -9.35 15.85 L-9.75 16.25 -9.8 16.4 -9.8 16.5 -9.8 16.8 -9.75 16.9 -9.55 17.15 -9.35 17.3 -8.75 17.3 M-9.95 34.5 Q-10.45 34.8 -10.5 35.3 -10.85 37.25 -8.75 36.9 L-8.65 36.85 Q-7.3 35.05 -9.35 34.45 L-9.8 34.5 -9.95 34.5" fill="#333366" fill-rule="evenodd" stroke="none"/>
    <path d="M22.55 -29.25 L22.65 -29.35 Q24.6 -28.95 26.15 -27.45 L26.7 -27.0 25.65 -25.7 Q23.65 -24.15 21.5 -25.35 L21.05 -25.6 Q21.15 -27.7 22.55 -29.25 M-23.2 -26.15 L-25.15 -28.85 Q-22.95 -30.6 -19.9 -30.15 L-19.85 -30.1 -19.8 -30.05 Q-18.6 -27.95 -21.05 -26.85 L-22.6 -26.3 -23.2 -26.15" fill="#9999ff" fill-rule="evenodd" stroke="none"/>
    <path d="M1.0 -43.35 L0.9 -43.0 -0.4 -43.2 -0.65 -43.2 -1.15 -43.05 -1.15 -43.25 -1.7 -43.3 0.3 -43.35 1.0 -43.35 M-1.35 -39.8 L-1.35 -39.9 0.75 -39.85 0.7 -40.5 0.75 -39.7 Q0.8 -39.0 1.0 -38.6 L-2.5 -38.9 -1.95 -39.05 Q-1.5 -39.45 -1.35 -39.8 M8.65 10.7 L0.7 9.0 -2.0 8.3 -1.8 7.7 Q-1.5 6.15 -2.45 5.5 L-3.5 5.55 Q-0.45 5.3 2.65 5.6 2.2 6.15 2.05 6.9 1.9 7.85 2.55 8.6 3.85 10.2 5.35 8.75 5.95 8.2 6.05 7.45 L6.0 6.15 5.1 5.95 8.1 6.6 Q8.5 8.1 8.5 9.65 L8.65 10.7 M-5.75 7.45 L-9.7 6.65 -9.2 6.5 -7.2 6.05 -5.25 5.7 Q-6.0 6.35 -5.75 7.45 M1.0 7.35 L1.5 6.55 Q1.35 5.65 0.7 5.75 0.05 6.15 0.2 6.8 L1.0 7.35" fill="#e3b18b" fill-rule="evenodd" stroke="none"/>
    <path d="M1.0 -43.35 Q1.65 -43.25 2.1 -42.85 L2.15 -42.8 2.2 -42.75 2.25 -42.7 2.35 -42.65 2.4 -42.5 Q3.15 -40.8 2.75 -39.1 L1.0 -38.6 Q0.8 -39.0 0.75 -39.7 L0.7 -40.5 0.75 -39.85 -1.35 -39.9 -1.35 -39.8 Q-2.05 -39.95 -2.6 -40.35 L-3.4 -41.0 -3.5 -41.05 -3.5 -41.65 Q-3.5 -42.7 -2.6 -43.15 L-2.3 -42.9 Q-2.0 -42.4 -1.4 -42.15 L-1.2 -42.05 -1.15 -43.05 -0.65 -43.2 -0.4 -43.2 0.9 -43.0 1.0 -43.35 M-9.7 6.65 L-10.6 6.5 -10.6 4.95 0.75 4.6 Q6.3 4.3 11.85 5.55 L12.05 11.2 8.65 10.7 8.5 9.65 Q8.5 8.1 8.1 6.6 L5.1 5.95 4.25 5.85 3.95 5.75 2.65 5.6 Q-0.45 5.3 -3.5 5.55 L-4.55 5.65 -5.25 5.7 -7.2 6.05 -9.2 6.5 -9.7 6.65 M1.0 7.35 L0.2 6.8 Q0.05 6.15 0.7 5.75 1.35 5.65 1.5 6.55 L1.0 7.35" fill="#ad7a3f" fill-rule="evenodd" stroke="none"/>
    <path d="M2.15 -32.65 Q2.9 -31.9 1.95 -31.4 L1.9 -31.35 Q2.45 -30.75 1.6 -29.85 L1.4 -29.7 0.5 -29.7 Q-0.8 -30.75 0.6 -31.55 L1.15 -31.75 1.25 -31.7 1.25 -31.75 1.25 -32.3 1.3 -32.4 1.6 -32.65 1.7 -32.7 2.15 -32.65 M3.7 -33.2 L4.1 -33.6 Q5.6 -33.4 4.75 -32.25 L4.65 -32.15 4.05 -32.15 3.9 -32.3 3.65 -32.55 3.65 -32.65 3.65 -32.9 3.65 -33.05 3.7 -33.2 M-13.0 -17.25 L-13.1 -17.15 -13.6 -16.8 -13.65 -16.8 -14.6 -16.8 Q-16.25 -18.25 -14.2 -19.2 L-13.65 -19.35 Q-11.9 -18.75 -13.0 -17.25 M-16.1 -31.9 Q-15.7 -32.6 -14.85 -32.6 L-14.4 -32.55 Q-13.35 -32.4 -13.25 -31.65 L-13.0 -32.25 -12.05 -32.8 Q-10.05 -32.15 -11.4 -30.5 -11.8 -30.0 -12.45 -30.3 -13.2 -30.65 -13.25 -31.3 L-13.55 -30.65 Q-14.4 -28.95 -15.95 -30.2 -16.65 -30.65 -16.3 -31.5 L-16.1 -31.9 M11.75 -16.35 L12.15 -15.75 Q12.15 -15.35 11.6 -14.7 L10.6 -14.6 Q9.4 -15.35 10.4 -16.4 L11.05 -16.65 11.75 -16.35 M13.35 -14.35 L13.5 -14.5 13.55 -14.55 13.65 -14.55 13.65 -14.6 14.2 -14.55 14.35 -14.4 14.55 -14.0 14.45 -13.6 14.3 -13.4 14.1 -13.3 13.5 -13.2 13.25 -13.25 Q12.9 -13.6 13.15 -14.05 L13.35 -14.35 M-11.3 -14.65 L-11.15 -14.6 -10.95 -14.5 -10.75 -13.85 -10.85 -13.45 Q-12.15 -12.8 -12.3 -13.95 L-12.3 -14.3 -12.15 -14.4 -11.9 -14.65 -11.8 -14.65 -11.55 -14.7 -11.3 -14.65 M7.7 -15.45 L7.6 -15.35 Q7.05 -15.15 6.55 -15.6 6.45 -16.0 6.65 -16.4 L7.1 -16.8 Q8.6 -16.6 7.7 -15.45 M8.0 -10.95 Q8.4 -10.5 8.1 -9.45 L7.65 -8.75 Q5.35 -8.4 5.9 -10.6 6.0 -11.1 6.35 -11.3 L6.55 -11.4 7.55 -11.25 Q7.0 -11.75 7.05 -12.85 7.15 -14.7 8.95 -14.75 11.3 -14.45 10.7 -12.15 10.4 -10.7 8.95 -10.75 L8.0 -10.95 M9.35 -9.4 L9.8 -9.8 10.6 -9.8 Q12.0 -8.8 11.1 -7.35 L10.6 -6.95 9.8 -6.95 Q8.45 -7.85 9.35 -9.4 M3.7 -10.5 L3.75 -10.5 3.95 -10.75 4.1 -10.75 4.35 -10.8 4.7 -10.7 4.9 -10.65 4.95 -10.6 5.1 -9.95 5.0 -9.55 Q3.5 -8.8 3.65 -10.4 L3.7 -10.5 M12.8 -10.35 Q12.4 -9.65 11.65 -9.75 10.05 -9.95 10.55 -11.5 10.8 -12.2 11.5 -12.35 L11.9 -12.4 Q13.75 -11.9 12.8 -10.35 M11.35 32.75 Q9.25 33.15 9.6 31.15 9.65 30.65 10.15 30.35 L10.3 30.35 10.7 30.3 Q12.8 30.95 11.45 32.7 L11.35 32.75 M3.65 38.95 L3.95 38.65 4.35 38.55 5.1 38.95 Q5.45 39.45 4.65 40.0 L3.95 40.1 Q3.45 39.95 3.45 39.45 L3.65 38.95 M6.3 38.0 L6.2 38.05 Q4.35 38.8 3.85 37.1 3.4 35.75 4.55 35.0 L4.8 34.9 4.85 34.85 Q7.45 34.8 6.9 37.25 6.75 37.8 6.3 38.0 M-5.85 37.65 L-5.4 36.95 -5.15 36.75 -5.0 36.7 -4.7 36.65 -4.4 36.75 -4.15 36.85 Q-3.65 37.75 -4.5 38.5 L-4.6 38.6 -4.8 38.7 -4.8 38.75 -5.4 38.7 Q-6.05 38.15 -5.85 37.65 M8.4 34.85 L8.85 34.8 Q10.95 35.55 9.4 37.15 7.35 37.5 7.8 35.6 7.9 35.1 8.25 34.85 L8.4 34.85 M6.35 32.95 Q6.75 32.35 7.4 32.4 9.45 32.95 8.1 34.65 7.65 35.15 7.0 34.9 5.6 34.3 6.35 32.95 M6.15 38.45 L6.3 38.45 6.6 38.3 Q8.5 39.1 6.85 40.2 L6.2 40.25 Q5.3 39.85 5.7 38.95 L6.15 38.45 M-17.0 -28.0 L-17.05 -29.05 Q-17.0 -29.5 -16.55 -29.8 L-16.35 -29.8 -15.95 -29.85 Q-14.5 -29.45 -14.7 -28.45 L-15.2 -27.5 -15.3 -27.4 Q-16.75 -27.2 -17.0 -28.0 M-14.3 -28.3 L-14.1 -28.8 -13.65 -29.3 Q-11.75 -29.2 -12.45 -27.55 L-12.85 -27.15 -12.9 -27.15 -13.75 -27.15 Q-14.5 -27.65 -14.3 -28.3 M-10.9 -29.25 L-10.7 -29.45 -10.55 -29.5 -10.3 -29.55 -9.95 -29.45 -9.7 -29.3 Q-9.5 -29.05 -9.55 -28.65 L-9.65 -28.25 Q-11.1 -27.5 -11.0 -29.1 L-10.9 -29.25 M-0.4 -33.55 Q1.5 -32.75 -0.2 -31.7 L-0.85 -31.65 Q-1.7 -32.0 -1.35 -32.95 L-0.9 -33.45 -0.8 -33.5 -0.4 -33.55 M-9.55 -29.9 L-9.5 -30.35 -9.4 -30.45 -9.05 -30.65 -8.55 -30.65 -8.45 -30.5 -8.25 -30.15 -8.3 -29.85 Q-8.35 -29.6 -8.55 -29.45 L-8.65 -29.4 -9.2 -29.4 -9.35 -29.55 -9.55 -29.8 -9.55 -29.9 M-9.45 -14.95 L-8.65 -14.95 Q-7.4 -14.25 -8.2 -13.0 L-8.65 -12.6 -9.45 -12.6 Q-10.7 -13.35 -9.9 -14.55 L-9.45 -14.95 M-13.75 -26.0 L-13.25 -26.1 Q-11.55 -25.2 -13.4 -24.5 -13.6 -24.45 -13.8 -24.65 -14.55 -25.35 -13.75 -26.0 M-11.85 -11.75 Q-9.65 -11.25 -10.85 -9.35 -11.35 -8.55 -12.35 -8.9 L-13.15 -9.6 Q-13.65 -8.8 -14.65 -9.25 -16.1 -9.8 -15.45 -11.3 -15.0 -12.15 -14.15 -12.05 -13.15 -11.8 -12.85 -11.3 -12.55 -11.8 -11.85 -11.75 M-15.55 -7.6 L-16.3 -7.55 Q-17.45 -8.45 -16.25 -9.2 L-15.95 -9.3 Q-14.4 -8.75 -15.55 -7.6 M-13.2 -8.3 L-13.1 -8.3 -13.1 -8.35 Q-10.45 -8.3 -11.25 -5.95 -11.45 -5.3 -12.05 -5.25 -14.4 -4.95 -14.1 -7.1 -14.0 -7.8 -13.4 -8.25 L-13.2 -8.3 M-9.85 -7.25 Q-7.8 -7.25 -8.75 -5.6 -9.0 -5.15 -9.55 -5.25 -11.05 -5.55 -10.25 -6.8 L-9.85 -7.25 M-10.3 15.3 L-10.75 15.7 -11.6 15.7 -12.15 15.05 Q-12.4 14.6 -12.0 14.0 L-11.5 13.55 Q-9.6 13.6 -10.3 15.3 M-12.3 15.55 Q-10.2 16.0 -11.4 17.85 -11.85 18.6 -12.7 18.2 -14.15 17.55 -13.35 16.15 -12.95 15.5 -12.3 15.55 M-6.5 16.15 Q-6.8 16.35 -7.2 16.15 L-7.6 15.9 Q-7.9 15.5 -7.65 14.85 -7.55 14.55 -7.25 14.4 L-7.1 14.35 -6.7 14.3 Q-4.8 15.05 -6.5 16.15 M-8.75 17.3 L-9.35 17.3 -9.55 17.15 -9.75 16.9 -9.8 16.8 -9.8 16.5 -9.8 16.4 -9.75 16.25 -9.35 15.85 Q-7.75 16.05 -8.65 17.2 L-8.75 17.3 M-9.95 34.5 L-9.8 34.5 -9.35 34.45 Q-7.3 35.05 -8.65 36.85 L-8.75 36.9 Q-10.85 37.25 -10.5 35.3 -10.45 34.8 -9.95 34.5" fill="#006699" fill-rule="evenodd" stroke="none"/>
    <path d="M26.7 -27.0 L29.2 -24.5 29.3 -23.55 Q29.2 -22.5 28.3 -21.75 26.15 -20.1 23.4 -20.75 21.1 -22.35 21.05 -25.3 L21.05 -25.6 21.5 -25.35 Q23.65 -24.15 25.65 -25.7 L26.7 -27.0 M26.2 -17.9 Q23.05 -17.05 19.7 -17.2 17.8 -18.7 17.9 -21.05 L17.95 -25.45 19.25 -30.35 Q20.25 -30.45 21.0 -29.65 L21.05 -29.55 20.75 -28.4 20.6 -27.6 20.55 -27.5 20.4 -26.25 20.4 -25.4 20.4 -24.8 20.4 -24.65 20.4 -24.45 20.45 -23.8 20.5 -23.0 21.65 -20.9 Q22.25 -19.85 23.6 -19.7 L25.75 -19.65 25.8 -19.55 26.1 -18.3 26.2 -17.9 M2.65 -35.05 Q-0.95 -35.4 -4.25 -36.35 L-3.45 -38.2 Q-0.4 -37.25 3.0 -37.75 L3.4 -35.55 2.65 -35.05 M-23.2 -26.15 L-22.6 -26.3 -21.05 -26.85 Q-18.6 -27.95 -19.8 -30.05 -17.65 -27.35 -16.85 -23.85 L-16.85 -23.8 -16.8 -23.15 Q-16.7 -21.5 -17.55 -20.05 L-17.7 -19.9 -19.85 -20.05 Q-21.3 -23.2 -23.2 -26.15" fill="#336699" fill-rule="evenodd" stroke="none"/>
    <path d="M1.55 -27.1 L1.7 -27.25 3.0 -28.2 3.35 -28.3 2.6 -27.65 Q3.1 -26.85 3.85 -27.2 L3.9 -27.2 4.25 -27.45 3.75 -26.5 3.15 -26.05 3.1 -26.0 1.55 -27.1 M1.3 -25.05 L1.25 -25.05 -0.45 -24.0 -0.2 -24.5 Q-0.85 -25.2 -1.65 -25.1 L-1.95 -24.9 Q-2.1 -25.4 -1.6 -25.7 L-1.65 -25.7 -1.8 -25.65 -1.25 -26.25 -0.9 -26.55 -0.85 -26.55 -0.5 -26.35 0.05 -25.95 1.3 -25.05" fill="#663300" fill-rule="evenodd" stroke="none"/>
    <path d="M3.35 -28.3 Q7.0 -31.45 11.2 -34.0 L11.5 -33.7 Q8.15 -30.2 4.25 -27.45 L3.9 -27.2 3.85 -27.2 Q3.1 -26.85 2.6 -27.65 L3.35 -28.3 M3.1 -26.0 L3.6 -25.6 4.65 -24.9 6.95 -23.25 Q5.9 -23.0 5.8 -22.1 L1.3 -25.05 0.05 -25.95 -0.5 -26.35 -2.95 -28.15 -2.55 -28.15 Q-2.15 -28.2 -1.9 -28.5 -1.5 -28.95 -1.65 -29.35 L1.55 -27.1 3.1 -26.0 M8.95 -21.9 L10.65 -20.75 10.55 -20.8 Q9.65 -20.7 9.6 -19.75 L8.75 -20.25 7.6 -20.95 7.95 -21.2 Q8.4 -21.6 8.45 -22.15 L8.45 -22.2 8.95 -21.9 M11.1 -20.45 Q14.9 -18.0 18.9 -15.7 L18.75 -14.8 Q16.0 -15.65 13.65 -17.2 L10.65 -19.1 11.0 -19.55 Q11.3 -20.15 11.1 -20.45 M-0.45 -24.0 L-0.55 -23.85 -4.25 -21.15 -4.45 -21.0 -4.65 -20.85 -8.55 -18.1 Q-8.6 -18.9 -9.45 -19.05 L-5.25 -22.4 -4.95 -22.65 -1.95 -24.9 -1.65 -25.1 Q-0.85 -25.2 -0.2 -24.5 L-0.45 -24.0" fill="#996600" fill-rule="evenodd" stroke="none"/>
    <path d="M3.6 -25.6 Q6.05 -25.05 8.1 -23.2 8.75 -22.65 8.95 -21.9 L8.45 -22.2 6.95 -23.25 4.65 -24.9 3.6 -25.6 M-5.25 -22.4 L-4.95 -23.5 -2.7 -25.25 -2.45 -25.4 -1.8 -25.65 -1.65 -25.7 -1.6 -25.7 Q-2.1 -25.4 -1.95 -24.9 L-4.95 -22.65 -5.25 -22.4 M-15.35 -19.95 Q-15.55 -24.1 -17.25 -27.7 L-17.0 -28.0 Q-16.75 -27.2 -15.3 -27.4 L-15.2 -27.5 -14.7 -28.45 -14.3 -28.3 Q-14.5 -27.65 -13.75 -27.15 L-12.9 -27.15 -12.85 -27.15 Q-12.3 -26.4 -12.05 -25.3 -11.6 -22.7 -13.15 -20.6 -13.8 -19.75 -14.9 -19.9 L-15.35 -19.95 M12.35 -20.95 L11.1 -24.15 Q10.95 -24.6 10.95 -25.2 11.1 -29.25 14.0 -31.6 L14.4 -31.6 Q14.0 -29.05 14.2 -26.3 L14.2 -26.0 Q14.45 -22.2 16.45 -19.05 L16.25 -18.7 13.35 -20.35 12.35 -20.9 12.35 -20.95 M11.75 -16.35 L11.55 -17.05 17.55 -13.7 17.95 -7.75 Q18.3 -4.85 15.4 -3.1 L15.2 -3.0 Q14.2 -1.3 14.4 0.9 14.6 3.1 13.95 5.0 L13.5 4.85 Q10.55 3.85 7.4 3.5 L6.5 3.4 Q5.15 2.55 4.7 1.05 4.35 0.05 4.55 -0.95 1.4 -2.8 -2.4 -2.4 L-3.2 -2.1 Q-4.65 -1.65 -5.9 -0.85 -7.4 0.1 -8.85 -0.85 L-9.7 -1.75 Q-9.05 -1.8 -8.5 -2.2 L-7.8 -2.7 Q-6.35 -3.65 -5.05 -4.85 -4.5 -5.3 -4.35 -6.0 L-4.3 -6.1 0.35 -6.5 4.2 -6.1 7.5 -5.85 10.75 -4.55 Q11.3 -5.2 12.2 -5.6 14.1 -6.45 15.35 -8.05 L15.55 -10.2 Q15.6 -11.0 15.95 -11.75 L14.3 -13.4 14.45 -13.6 14.55 -14.0 14.35 -14.4 14.2 -14.55 13.65 -14.6 13.65 -14.55 13.55 -14.55 13.5 -14.5 13.35 -14.35 12.15 -15.75 11.75 -16.35 M4.3 -13.8 L-0.15 -14.05 -4.6 -13.5 -5.0 -13.35 Q-4.55 -14.1 -3.6 -14.5 L-1.55 -14.9 -1.0 -14.9 -1.4 -14.8 0.15 -15.1 Q3.65 -15.6 6.1 -13.8 L6.4 -13.45 4.3 -13.8 M-0.95 15.75 L-1.7 16.0 -2.0 16.1 -2.15 16.15 -2.3 16.25 -2.4 16.4 -2.6 16.65 -2.85 17.45 -6.5 16.15 Q-4.8 15.05 -6.7 14.3 L-7.1 14.35 -7.25 14.4 Q-7.55 14.55 -7.65 14.85 -7.9 15.5 -7.6 15.9 L-9.45 15.5 -10.3 15.3 Q-9.6 13.6 -11.5 13.55 L-12.0 14.0 Q-12.4 14.6 -12.15 15.05 -13.6 15.4 -14.4 14.55 L-12.95 12.5 -12.45 11.95 Q-5.65 12.85 0.55 15.1 L-0.95 15.75 M-0.05 28.8 L0.25 29.1 0.35 29.2 2.6 29.35 Q4.9 28.65 7.1 27.55 L8.4 26.9 8.7 26.55 Q9.25 25.95 9.15 25.15 12.9 23.75 16.75 22.65 L17.85 26.2 Q18.35 28.45 18.0 30.75 L14.9 33.05 14.7 32.6 13.65 29.05 Q12.2 29.05 10.85 28.3 2.95 32.5 -6.1 33.45 L-7.8 33.85 Q-9.05 34.4 -10.5 34.45 L-12.5 34.45 -15.0 31.1 Q-13.25 29.65 -12.05 30.9 -11.35 31.75 -10.3 31.8 L-9.5 31.75 -9.4 31.75 -9.05 31.65 Q-5.7 31.05 -2.75 29.4 L-2.5 29.3 -2.4 29.2 -2.4 28.95 -2.2 28.45 -1.45 28.0 Q-0.8 28.3 -0.05 28.8 M5.1 38.95 L4.35 38.55 3.95 38.65 3.65 38.95 -3.35 38.7 -4.6 38.6 -4.5 38.5 Q-3.65 37.75 -4.15 36.85 L-4.4 36.75 -4.7 36.65 -5.0 36.7 -5.15 36.75 -5.4 36.95 -5.85 37.65 -5.9 37.45 Q-6.55 35.35 -4.5 34.4 L-3.7 34.2 4.8 34.9 4.55 35.0 Q3.4 35.75 3.85 37.1 4.35 38.8 6.2 38.05 L6.3 38.0 5.45 38.75 5.1 38.95 M-13.75 -26.0 Q-14.55 -25.35 -13.8 -24.65 -13.6 -24.45 -13.4 -24.5 -11.55 -25.2 -13.25 -26.1 L-13.75 -26.0" fill="#000033" fill-rule="evenodd" stroke="none"/>
    <path d="M10.65 -20.75 L10.7 -20.75 11.05 -20.55 11.1 -20.45 Q11.3 -20.15 11.0 -19.55 L10.65 -19.1 9.6 -19.75 Q9.65 -20.7 10.55 -20.8 L10.65 -20.75 M7.6 -20.95 L7.55 -20.95 6.65 -21.5 5.8 -22.1 Q5.9 -23.0 6.95 -23.25 L8.45 -22.2 8.45 -22.15 Q8.4 -21.6 7.95 -21.2 L7.6 -20.95 M-8.55 -18.1 Q-12.6 -15.4 -16.6 -12.8 L-16.75 -12.95 -9.45 -19.05 Q-8.6 -18.9 -8.55 -18.1 M-2.95 -28.15 Q-6.5 -30.85 -9.9 -33.8 -10.05 -34.55 -9.45 -34.75 L-1.65 -29.35 Q-1.5 -28.95 -1.9 -28.5 -2.15 -28.2 -2.55 -28.15 L-2.95 -28.15" fill="#cc9900" fill-rule="evenodd" stroke="none"/>
    <path d="M-1.15 -43.05 L-1.2 -42.05 -1.4 -42.15 Q-2.0 -42.4 -2.3 -42.9 L-2.6 -43.15 -2.25 -43.3 -1.7 -43.3 -1.15 -43.25 -1.15 -43.05 M-3.5 -41.05 L-3.4 -41.0 -2.6 -40.35 Q-2.05 -39.95 -1.35 -39.8 -1.5 -39.45 -1.95 -39.05 L-2.5 -38.9 -3.3 -39.25 -3.5 -41.05 M-2.0 8.3 L-5.75 7.45 Q-6.0 6.35 -5.25 5.7 L-4.55 5.65 -3.5 5.55 -2.45 5.5 Q-1.5 6.15 -1.8 7.7 L-2.0 8.3 M2.65 5.6 L3.95 5.75 4.25 5.85 5.1 5.95 6.0 6.15 6.05 7.45 Q5.95 8.2 5.35 8.75 3.85 10.2 2.55 8.6 1.9 7.85 2.05 6.9 2.2 6.15 2.65 5.6" fill="#edcdb6" fill-rule="evenodd" stroke="none"/>
    <path d="M2.95 10.5 L1.95 13.65 2.0 13.7 1.9 13.7 1.1 13.55 1.5 12.8 1.85 10.4 1.85 10.3 1.7 10.25 2.95 10.5 M7.1 27.55 L6.85 26.25 6.75 24.4 6.55 23.15 Q6.1 20.4 5.1 17.9 L4.95 17.05 4.7 15.95 Q4.2 15.6 4.35 14.95 L4.8 14.45 Q5.75 14.4 6.1 15.1 L6.05 15.1 6.45 16.5 6.45 17.45 6.75 17.45 6.5 17.5 6.55 17.7 6.55 17.85 6.6 18.1 6.85 19.3 6.9 19.6 7.05 20.15 Q7.45 22.2 8.2 24.15 L8.2 24.2 8.35 24.65 Q8.75 25.4 8.75 26.25 L8.7 26.5 8.7 26.55 8.4 26.9 7.1 27.55 M11.35 15.95 L11.6 15.55 Q11.9 15.6 12.15 15.8 L12.35 16.15 13.05 18.15 13.25 18.6 13.6 19.65 13.9 21.05 13.95 22.05 13.9 22.2 13.75 22.45 13.15 22.35 12.95 21.9 12.35 18.95 12.3 18.75 11.85 17.5 11.4 16.15 11.35 15.95 M-8.1 10.55 L-8.2 11.3 -8.25 11.3 -8.75 11.4 -9.4 11.2 -9.15 10.85 Q-8.7 10.15 -8.55 9.35 -8.15 8.2 -8.85 7.85 L-7.35 8.05 -7.2 8.15 -7.1 8.3 -7.2 8.25 -7.35 8.55 -8.1 10.55 M-10.6 11.0 Q-11.4 11.15 -11.8 10.65 -11.05 10.4 -10.9 9.5 L-10.5 7.55 -10.65 7.5 -10.3 7.4 Q-9.7 7.4 -9.35 7.75 -10.6 9.15 -10.6 11.0 M-3.8 9.8 Q-2.9 9.7 -2.5 10.5 -2.3 10.85 -2.55 11.25 -3.1 11.95 -4.0 11.55 L-4.7 10.9 -4.8 10.65 Q-4.7 9.75 -3.8 9.8 M-5.7 21.6 L-6.5 19.15 Q-6.75 18.35 -6.4 17.7 L-6.35 17.65 -6.2 17.6 Q-5.8 18.6 -5.1 18.65 L-5.1 18.75 -5.0 19.5 -4.95 19.8 -4.8 19.8 -4.75 19.8 -4.2 22.2 -2.5 27.0 -2.4 27.25 -2.35 27.2 Q-2.2 27.8 -2.2 28.45 L-2.4 28.95 -2.4 29.2 -2.5 29.3 -2.75 29.4 -3.4 29.7 -3.6 28.95 -3.9 27.9 -3.8 27.4 Q-3.8 26.2 -4.25 25.0 L-5.6 21.1 -5.7 21.6 M-11.7 29.4 L-11.75 29.4 -11.7 29.4" fill="#333333" fill-rule="evenodd" stroke="none"/>
    <path d="M2.0 13.7 L1.95 13.65 2.95 10.5 Q8.25 11.45 13.35 13.2 12.75 14.85 11.0 15.15 L7.4 15.65 6.05 15.1 6.1 15.1 Q5.75 14.4 4.8 14.45 L4.35 14.95 Q4.2 15.6 4.7 15.95 L4.95 17.05 5.1 17.9 4.8 17.05 3.1 20.55 Q1.95 20.45 0.95 19.8 -0.05 19.1 -1.15 18.75 L-1.05 19.6 -1.05 19.65 -0.95 20.6 Q-0.45 23.75 0.6 26.65 L0.9 27.5 1.65 28.3 Q4.35 27.55 6.85 26.25 L7.1 27.55 Q4.9 28.65 2.6 29.35 L0.35 29.2 0.25 29.1 -0.05 28.8 -0.1 28.6 -0.3 27.9 -0.45 26.7 -0.55 26.55 -1.8 21.8 -2.4 19.1 -2.45 19.1 -2.6 19.15 Q-2.95 18.8 -2.9 18.1 L-2.85 18.05 -2.75 18.0 -2.85 17.45 -2.6 16.65 -2.4 16.4 -2.3 16.25 -2.15 16.15 -2.0 16.1 -1.7 16.0 -0.95 15.75 1.95 14.95 3.75 14.6 3.85 14.45 Q2.8 14.35 2.0 13.7 M1.7 10.25 L1.85 10.3 1.85 10.4 1.5 12.8 0.85 13.85 -1.85 12.9 Q-1.05 12.6 -0.4 11.9 L-0.1 11.15 Q-0.15 10.4 -0.5 9.75 L1.7 10.25 M-10.3 31.8 L-10.95 31.65 -11.55 30.8 -11.8 30.15 -12.0 29.45 -12.0 29.4 -11.75 29.4 -11.7 29.4 -11.75 29.1 -11.85 28.75 -12.75 24.55 -13.05 22.35 -13.5 21.3 -13.7 21.35 -13.75 21.15 -13.95 20.4 -13.6 20.1 -10.35 18.65 -6.35 17.65 -6.4 17.7 Q-6.75 18.35 -6.5 19.15 L-5.7 21.6 -5.85 22.05 -5.9 22.4 -5.9 22.35 -6.6 24.1 Q-8.0 24.2 -9.25 23.45 -10.45 22.8 -11.8 22.5 L-11.85 22.5 -11.4 25.4 -11.3 25.9 -11.25 26.1 -10.8 27.8 -10.6 28.6 -10.6 28.65 -10.55 28.65 -10.0 30.45 Q-6.8 30.1 -4.05 28.95 L-3.9 27.9 -3.6 28.95 -3.4 29.7 -2.75 29.4 Q-5.7 31.05 -9.05 31.65 L-9.4 31.75 -9.5 31.75 -10.3 31.8 M0.75 18.6 L2.4 19.55 Q3.8 17.8 4.15 15.5 L-0.2 16.5 -1.05 16.75 -1.3 16.85 -1.3 17.4 0.75 18.6 M-5.85 11.8 L-8.2 11.4 -8.1 10.55 -7.35 8.55 -7.2 8.25 -7.1 8.3 -5.45 8.65 -5.85 8.8 Q-6.85 9.45 -6.35 10.5 L-6.25 10.8 -5.85 11.8 M-9.4 11.2 L-10.6 11.0 Q-10.6 9.15 -9.35 7.75 L-8.85 7.85 Q-8.15 8.2 -8.55 9.35 -8.7 10.15 -9.15 10.85 L-9.4 11.2 M-11.8 10.65 L-12.05 10.7 Q-12.9 9.55 -12.65 8.25 -12.1 8.0 -11.6 7.6 L-10.65 7.5 -10.5 7.55 -10.9 9.5 Q-11.05 10.4 -11.8 10.65 M-9.95 22.1 L-7.45 22.75 Q-6.95 20.8 -7.05 18.85 L-9.95 19.55 -10.45 19.6 Q-11.6 19.85 -12.0 20.9 -11.0 21.65 -9.95 22.1" fill="#666666" fill-rule="evenodd" stroke="none"/>
    <path d="M-2.6 19.15 L-2.45 19.1 -2.4 19.1 -1.8 21.8 -4.2 22.2 -4.75 19.8 Q-3.75 19.25 -2.6 19.15 M6.75 17.45 Q8.95 16.5 11.35 15.95 L11.4 16.15 11.85 17.5 12.3 18.75 Q10.25 19.1 8.3 19.8 L7.9 19.95 7.05 20.15 6.9 19.6 6.85 19.3 6.6 18.1 6.55 17.85 6.55 17.7 6.5 17.5 6.75 17.45 M12.15 15.8 L15.7 15.3 17.15 17.95 13.25 18.6 13.05 18.15 12.35 16.15 12.15 15.8 M-20.2 25.5 L-20.2 24.35 -20.1 22.75 -20.05 22.55 -13.7 21.35 -13.5 21.3 -13.05 22.35 -12.75 24.55 -13.4 24.6 -14.75 24.75 -20.2 25.5 M-0.2 16.5 L0.65 16.2 Q1.3 16.7 1.1 17.8 L0.75 18.6 -1.3 17.4 -1.3 16.85 -1.05 16.75 -0.2 16.5 M-10.45 19.6 Q-9.45 20.15 -9.75 21.6 L-9.95 22.1 Q-11.0 21.65 -12.0 20.9 -11.6 19.85 -10.45 19.6" fill="#cccccc" fill-rule="evenodd" stroke="none"/>
    <path d="M-1.8 21.8 L-0.55 26.55 -0.5 26.75 -2.35 27.2 -2.4 27.25 -2.5 27.0 -4.2 22.2 -1.8 21.8 M6.85 26.25 Q4.35 27.55 1.65 28.3 L0.9 27.5 0.6 26.65 Q-0.45 23.75 -0.95 20.6 L-1.05 19.65 -1.05 19.6 -1.15 18.75 Q-0.05 19.1 0.95 19.8 1.95 20.45 3.1 20.55 L4.8 17.05 5.1 17.9 Q6.1 20.4 6.55 23.15 L6.75 24.4 6.85 26.25 M17.15 17.95 L17.75 19.05 18.0 20.45 Q18.2 21.25 17.45 21.5 15.6 21.45 13.95 22.05 L13.9 21.05 13.6 19.65 13.25 18.6 17.15 17.95 M13.15 22.35 L12.7 22.55 Q10.55 23.55 8.2 24.2 L8.2 24.15 Q7.45 22.2 7.05 20.15 L7.9 19.95 8.3 19.8 Q10.25 19.1 12.3 18.75 L12.35 18.95 12.95 21.9 13.15 22.35 M-12.0 29.4 Q-13.7 29.5 -15.3 30.1 L-19.15 30.5 Q-20.1 28.1 -20.2 25.5 L-14.75 24.75 -13.4 24.6 -12.75 24.55 -11.85 28.75 -11.75 29.1 -11.7 29.4 -11.75 29.4 -12.0 29.4 M0.75 18.6 L1.1 17.8 Q1.3 16.7 0.65 16.2 L-0.2 16.5 4.15 15.5 Q3.8 17.8 2.4 19.55 L0.75 18.6 M-1.85 12.9 L-2.5 12.6 -2.4 12.55 -3.8 12.3 -4.05 12.25 -4.45 12.15 -5.15 11.95 -5.5 11.9 -5.85 11.8 -6.25 10.8 -6.35 10.5 Q-6.85 9.45 -5.85 8.8 L-5.45 8.65 -0.5 9.75 Q-0.15 10.4 -0.1 11.15 L-0.4 11.9 Q-1.05 12.6 -1.85 12.9 M-3.8 9.8 Q-4.7 9.75 -4.8 10.65 L-4.7 10.9 -4.0 11.55 Q-3.1 11.95 -2.55 11.25 -2.3 10.85 -2.5 10.5 -2.9 9.7 -3.8 9.8 M-11.3 25.9 L-11.4 25.4 -11.85 22.5 -11.8 22.5 Q-10.45 22.8 -9.25 23.45 -8.0 24.2 -6.6 24.1 L-5.9 22.35 -5.9 22.4 -5.85 22.05 -5.7 21.6 -5.6 21.1 -4.25 25.0 Q-3.8 26.2 -3.8 27.4 L-3.9 27.9 -4.05 28.95 Q-6.8 30.1 -10.0 30.45 L-10.55 28.65 -10.6 28.6 -10.8 27.8 -11.25 26.1 -11.3 25.9 M-9.95 22.1 L-9.75 21.6 Q-9.45 20.15 -10.45 19.6 L-9.95 19.55 -7.05 18.85 Q-6.95 20.8 -7.45 22.75 L-9.95 22.1" fill="#999999" fill-rule="evenodd" stroke="none"/>
    <path d="M-16.6 -12.8 L-16.8 -12.9 -16.75 -12.95 -16.6 -12.8" fill="#ffffff" fill-rule="evenodd" stroke="none"/>
  </g>
</svg>
