<?xml version="1.0" encoding="UTF-8" standalone="no"?>
<svg xmlns:xlink="http://www.w3.org/1999/xlink" height="65.25px" width="50.05px" xmlns="http://www.w3.org/2000/svg">
  <g transform="matrix(1.0, 0.0, 0.0, 1.0, 24.5, 25.25)">
    <path d="M11.1 -16.05 Q11.65 -16.7 12.75 -16.75 13.55 -16.55 14.0 -16.2 13.4 -14.95 14.25 -14.1 L14.45 -13.9 Q15.6 -13.1 17.15 -13.2 18.7 -13.3 19.5 -11.7 20.1 -10.0 18.8 -9.9 17.45 -9.8 16.9 -8.6 16.9 -7.5 17.35 -6.55 L17.6 -6.0 Q18.2 -4.9 17.7 -3.6 L18.6 -1.25 Q18.95 0.05 17.9 1.05 17.1 4.15 19.8 5.75 22.35 7.25 22.6 10.1 21.95 10.45 21.4 11.1 L20.2 11.2 Q19.65 10.3 20.2 9.3 L20.35 8.9 20.25 8.75 Q20.35 6.65 17.8 6.75 16.35 7.3 15.55 8.65 14.85 9.8 15.65 10.85 L15.95 11.2 15.95 11.5 16.0 12.55 Q14.6 14.1 14.45 15.9 L14.3 15.6 13.9 15.1 13.55 14.7 13.5 14.65 13.45 14.6 13.05 14.35 13.2 14.4 13.25 14.45 14.45 14.3 Q14.95 14.2 15.15 13.55 15.45 12.75 15.35 12.2 15.1 11.2 14.1 10.6 L15.0 9.85 15.15 9.4 14.8 8.2 15.0 8.1 Q15.7 7.85 15.9 7.25 L16.05 7.1 Q17.95 5.65 16.3 4.25 L15.4 4.25 15.0 4.45 Q14.5 4.65 14.2 5.0 L13.6 5.05 14.3 4.75 Q14.95 4.35 14.85 3.65 L14.4 2.6 16.05 2.7 Q17.1 2.5 17.25 1.4 17.7 -1.25 14.85 -1.15 L14.05 -0.55 13.65 -1.3 13.65 -1.35 14.25 -2.2 14.45 -2.75 15.0 -3.65 Q15.4 -5.75 13.3 -5.7 13.4 -6.45 12.7 -6.95 L12.0 -7.0 11.7 -6.55 11.65 -6.4 11.55 -7.8 11.55 -7.95 11.5 -8.05 Q11.3 -9.2 10.1 -9.7 L6.35 -10.25 Q4.45 -10.45 3.2 -8.7 3.25 -7.85 3.55 -7.1 3.9 -6.35 3.55 -5.5 2.4 -4.5 1.6 -3.15 0.8 -1.8 -1.0 -2.5 -3.3 -1.45 -4.25 1.05 -4.35 2.4 -3.9 3.85 -3.4 5.3 -4.55 6.55 -6.2 7.2 -6.1 8.9 -6.05 10.6 -6.25 12.15 -4.65 14.4 -3.8 16.95 -4.1 17.7 -3.9 18.45 -3.65 19.2 -3.95 19.9 L-4.05 19.95 -4.0 20.0 Q-3.65 20.4 -3.65 20.8 -3.25 21.3 -3.15 21.8 L-3.1 21.75 Q-0.85 23.35 -1.75 26.1 L-2.2 27.05 Q-2.9 26.55 -4.2 26.6 L-4.45 26.95 Q-6.1 27.85 -5.35 29.5 -4.55 31.35 -2.6 30.45 L-2.6 31.1 -2.65 31.25 -2.55 31.65 -2.4 32.65 -2.0 33.0 Q-2.15 35.1 -2.9 37.1 -3.45 38.55 -5.0 38.9 L-5.9 38.65 -6.25 38.5 -6.15 35.2 -6.15 34.6 -6.1 33.35 -6.55 32.5 -6.5 31.6 -6.25 31.9 -6.2 31.65 -6.45 30.6 -6.5 30.8 Q-6.5 29.95 -6.75 29.2 L-6.7 29.0 -6.35 28.85 -6.2 27.75 -7.0 27.35 -7.05 27.35 Q-7.2 26.9 -7.65 26.55 L-7.3 26.2 Q-6.85 25.85 -6.8 25.3 -6.55 23.2 -8.65 22.95 L-9.3 23.5 Q-9.65 21.9 -11.55 21.55 L-11.55 21.6 Q-12.3 21.5 -12.85 21.85 L-13.6 22.95 -13.85 22.85 -14.1 22.75 -14.35 22.3 Q-14.55 21.3 -13.8 20.6 L-13.75 19.7 Q-13.65 18.6 -12.65 18.2 -9.9 17.75 -8.85 20.05 L-8.65 20.6 Q-9.05 21.15 -8.6 21.95 L-8.55 22.0 -8.6 22.2 Q-7.45 22.7 -7.0 23.65 L-6.75 23.4 -5.7 22.05 -5.5 21.85 -6.85 17.95 -7.05 17.1 Q-7.1 15.1 -6.1 13.25 -7.15 11.3 -7.25 9.15 -7.4 7.4 -6.25 6.25 -5.35 5.3 -5.25 3.95 L-5.15 1.45 Q-6.75 1.4 -7.05 -0.15 -7.3 -1.55 -6.0 -2.3 L-4.45 -2.5 Q-2.05 -3.1 0.3 -4.3 L1.15 -4.9 2.9 -7.1 Q2.8 -8.65 3.15 -10.15 3.5 -11.6 5.0 -11.9 L6.05 -12.05 Q8.8 -12.35 10.45 -10.5 L10.65 -10.05 13.35 -9.8 Q12.85 -11.2 13.25 -12.35 L13.05 -11.7 12.7 -11.3 Q10.75 -11.55 11.4 -12.75 L11.35 -12.8 11.5 -13.15 11.3 -12.8 10.75 -12.3 9.85 -12.3 Q8.45 -13.1 9.35 -14.5 L9.45 -14.65 Q9.4 -13.15 10.9 -13.1 L11.5 -13.15 Q12.2 -13.35 12.35 -14.2 12.65 -15.75 11.1 -16.05 M-6.3 -19.75 L-5.3 -20.5 Q-2.85 -20.15 -4.25 -17.9 -4.9 -17.0 -5.65 -17.3 -5.7 -16.9 -5.9 -16.4 -6.25 -15.3 -7.45 -14.9 L-9.25 -14.8 -8.8 -15.2 Q-8.3 -15.9 -8.3 -16.85 L-8.3 -17.0 Q-8.45 -18.5 -6.8 -19.1 L-6.65 -19.05 -6.6 -19.15 -6.55 -19.2 -6.3 -19.75 M-9.5 -15.05 Q-9.85 -15.4 -9.9 -16.15 L-9.5 -16.85 -8.9 -17.85 Q-8.55 -16.25 -9.5 -15.05 M-15.7 0.8 L-15.7 0.6 Q-15.7 -0.3 -14.9 -0.85 L-13.9 -1.4 -12.85 -1.35 -12.75 -2.25 -12.85 -2.25 -13.8 -2.25 Q-14.95 -2.95 -14.3 -4.15 L-13.7 -4.65 Q-11.85 -4.55 -12.2 -3.2 L-11.95 -3.4 -11.05 -3.4 Q-9.55 -2.3 -10.55 -0.65 L-11.05 -0.2 Q-10.75 0.5 -10.85 1.55 -10.95 2.7 -11.95 3.25 L-12.35 3.5 Q-14.7 3.75 -15.4 2.35 -15.35 1.5 -15.7 0.8 M7.7 -16.25 L7.5 -15.95 7.35 -15.85 6.85 -15.9 6.65 -16.0 6.65 -16.05 Q6.9 -16.5 6.75 -16.9 L6.95 -17.05 7.4 -17.0 7.55 -16.8 7.7 -16.7 7.7 -16.25 M10.6 -16.4 L10.6 -16.1 10.6 -16.05 10.55 -16.05 10.6 -16.4 M0.05 -18.1 L0.0 -17.95 -0.1 -17.8 -0.45 -17.8 -0.65 -18.1 -0.65 -18.2 -0.5 -18.3 -0.45 -18.35 -0.35 -18.4 -0.1 -18.35 0.0 -18.2 0.05 -18.1 M-3.95 -4.85 L-4.25 -4.75 Q-6.55 -4.45 -6.55 -6.7 L-6.6 -7.6 Q-8.2 -9.65 -6.05 -11.0 -5.35 -11.5 -4.5 -11.3 L-3.65 -11.45 -3.9 -11.55 Q-5.3 -12.2 -4.25 -13.4 -3.95 -13.75 -3.5 -13.75 -2.35 -13.4 -2.45 -12.65 L-1.6 -13.55 -1.25 -13.8 0.05 -13.6 0.15 -14.45 Q0.35 -15.15 1.0 -15.15 2.55 -14.6 2.05 -13.1 L1.7 -12.7 0.8 -12.75 0.85 -11.7 0.55 -10.55 0.35 -10.9 0.35 -10.95 -0.1 -11.15 -0.2 -11.15 -1.6 -10.0 -1.7 -10.05 -1.7 -9.95 -4.55 -7.7 -4.25 -5.0 -4.15 -4.95 -3.95 -4.85 M3.25 -14.15 L3.6 -14.65 3.8 -14.85 3.9 -14.9 3.95 -14.95 4.0 -14.95 4.3 -14.9 4.4 -14.8 4.5 -14.7 Q4.6 -14.25 4.3 -13.9 L4.05 -13.65 3.45 -13.65 3.35 -13.75 3.3 -13.85 3.25 -14.15 M13.0 5.35 L12.95 5.2 13.6 5.05 13.35 5.2 13.0 5.35 M12.15 2.45 Q11.95 1.35 12.25 0.1 L12.35 0.25 13.6 0.3 13.6 0.25 13.95 -0.05 13.7 0.25 Q13.55 0.65 13.65 1.2 13.75 1.95 14.1 2.4 13.6 2.0 12.85 2.0 L12.45 2.2 12.15 2.45 M11.75 -4.95 L11.65 -5.15 11.65 -5.55 11.95 -5.15 11.75 -4.95 M12.8 -9.15 L12.4 -8.9 11.85 -8.4 11.85 -8.2 11.85 -7.9 11.9 -7.8 12.2 -7.5 12.35 -7.35 Q13.05 -7.15 13.5 -7.7 14.55 -8.9 12.8 -9.15 M24.45 12.6 Q23.25 13.95 22.25 13.25 L21.95 11.8 Q21.75 11.15 22.75 10.55 24.1 11.1 24.45 12.6 M5.9 26.0 L5.6 25.55 6.3 25.75 Q6.2 26.05 6.25 26.4 L6.1 26.25 6.05 26.15 5.9 26.0 M6.4 27.0 L6.5 27.25 Q7.4 29.05 9.2 28.4 L9.1 28.85 Q9.0 29.9 9.65 30.5 10.9 31.6 10.6 33.35 L10.2 33.7 Q8.8 33.95 7.6 33.3 L7.45 33.0 6.1 29.8 6.2 29.3 Q6.45 28.2 6.3 27.15 L6.4 27.0 M10.45 26.55 Q10.5 25.35 9.9 24.8 L10.6 24.55 Q10.95 25.85 12.45 25.75 L12.0 25.8 11.3 26.25 11.25 26.3 Q10.8 26.25 10.45 26.55 M13.95 24.8 L14.0 24.8 14.1 24.3 14.2 24.0 14.75 23.4 Q15.6 21.45 13.55 20.85 L12.4 21.4 12.2 21.75 12.15 22.05 12.2 21.8 12.15 21.8 12.15 21.4 Q13.8 21.15 14.25 19.6 L14.6 18.0 14.75 18.65 15.5 19.35 Q16.3 19.55 16.6 20.3 L16.7 20.3 16.7 20.65 16.75 20.95 Q16.9 21.95 16.35 22.65 L15.4 24.0 14.7 24.0 13.95 24.8 M16.7 25.9 L17.15 26.55 18.5 28.75 Q18.7 30.15 17.25 30.8 14.9 30.75 13.55 28.6 13.45 27.8 13.6 27.2 L15.65 27.35 15.95 27.1 Q16.5 26.7 16.65 26.0 L16.7 25.9 M-1.4 -20.35 L-1.3 -20.2 -1.55 -19.6 -1.85 -19.3 Q-3.1 -19.25 -2.9 -20.45 L-2.4 -20.8 -2.15 -20.9 Q-1.6 -20.8 -1.4 -20.35 M-2.25 -18.7 Q-1.9 -18.2 -2.05 -17.5 L-2.15 -17.05 Q-4.1 -16.3 -3.7 -18.45 L-3.6 -18.6 -3.35 -18.9 -3.2 -18.95 -2.9 -19.0 -2.5 -18.85 -2.25 -18.7 M-11.4 -6.35 L-11.2 -5.85 -11.25 -5.6 Q-11.3 -5.3 -11.5 -5.15 L-11.65 -5.05 -12.3 -5.05 -12.45 -5.25 -12.65 -5.55 -12.7 -5.7 -12.6 -6.1 -12.5 -6.3 -12.2 -6.55 -11.55 -6.5 -11.4 -6.35 M-2.65 -12.0 L-2.65 -11.95 -2.9 -11.9 -2.65 -11.95 -2.65 -12.0 M-7.15 -4.8 L-7.9 -4.95 -8.2 -5.2 -8.35 -5.6 -8.2 -6.4 -8.1 -6.5 -8.0 -6.55 -7.85 -6.6 -7.8 -6.65 Q-6.2 -6.6 -6.7 -5.3 L-7.15 -4.8 M-9.55 2.6 L-9.6 2.65 Q-9.85 3.2 -9.5 3.75 L-9.1 4.15 -9.25 4.65 -9.25 4.75 Q-7.55 7.0 -8.65 9.85 L-8.8 10.15 Q-8.5 12.5 -10.15 12.7 L-9.6 12.6 Q-7.8 12.75 -8.55 14.55 L-9.1 15.05 -9.95 15.05 Q-10.5 16.3 -11.9 15.7 -13.5 15.15 -12.8 13.5 L-12.05 12.45 Q-13.4 11.9 -13.5 10.35 L-12.35 10.35 Q-11.8 10.3 -11.6 9.75 -11.0 7.95 -12.75 7.75 L-13.15 7.8 -13.55 7.95 -13.6 7.7 Q-13.95 5.25 -12.2 4.05 -11.55 3.6 -10.7 3.45 L-10.15 2.45 -10.0 2.25 -9.75 2.35 -9.55 2.6 M-12.0 21.25 L-11.3 21.1 Q-9.85 20.1 -11.55 19.5 L-12.0 19.6 Q-12.55 19.9 -12.55 20.5 -12.55 21.05 -12.0 21.25 M-13.4 24.0 L-13.0 24.3 -12.95 24.4 Q-13.0 25.95 -12.7 27.3 -14.1 27.05 -14.85 28.05 L-15.0 28.25 Q-15.85 29.4 -17.15 28.8 -18.4 27.65 -17.7 26.3 -17.0 25.0 -16.7 23.75 L-14.3 23.55 Q-13.8 23.7 -13.4 24.0 M-10.3 16.65 L-9.8 16.2 Q-8.1 16.45 -9.1 17.7 L-9.2 17.85 -9.85 17.85 -10.0 17.7 -10.3 17.4 -10.35 17.25 -10.35 16.9 -10.35 16.8 -10.3 16.65 M-13.6 31.45 Q-14.1 30.95 -14.15 30.25 -14.35 29.45 -15.1 29.0 -14.7 28.15 -13.85 27.95 -12.45 27.65 -11.95 28.75 L-11.85 30.95 Q-12.3 31.3 -13.05 31.4 L-13.6 31.45" fill="#009900" fill-rule="evenodd" stroke="none"/>
    <path d="M10.6 -16.05 L10.9 -16.1 11.1 -16.05 Q12.65 -15.75 12.35 -14.2 12.2 -13.35 11.5 -13.15 L10.9 -13.1 Q9.4 -13.15 9.45 -14.65 L9.5 -15.0 Q8.35 -14.75 7.8 -15.9 L7.7 -16.25 7.7 -16.7 7.9 -17.15 Q8.2 -17.85 8.8 -18.15 10.75 -18.25 10.6 -16.4 L10.55 -16.05 10.6 -16.05 M-8.65 20.6 L-8.15 20.1 Q-6.5 20.0 -6.7 21.55 -6.75 22.1 -7.25 22.35 -8.15 22.75 -8.55 22.0 L-8.6 21.95 Q-9.05 21.15 -8.65 20.6 M6.65 -16.05 L6.5 -15.8 Q6.2 -15.2 5.5 -15.45 4.55 -15.85 4.9 -16.85 5.15 -17.55 5.85 -17.55 L6.75 -16.9 Q6.9 -16.5 6.65 -16.05 M3.35 -17.1 L3.6 -17.1 Q4.85 -16.7 3.95 -15.75 3.05 -14.8 2.55 -15.9 2.45 -16.25 2.7 -16.5 L3.25 -17.05 3.35 -17.1 M6.85 -15.45 Q8.1 -15.05 7.2 -14.05 L6.45 -14.0 Q5.6 -14.5 6.35 -15.25 L6.85 -15.45 M-8.75 -13.4 Q-7.45 -12.85 -8.6 -12.1 L-9.1 -12.05 Q-9.7 -12.35 -9.45 -13.0 L-9.15 -13.3 -9.05 -13.35 -8.75 -13.4 M-11.6 -12.65 Q-10.35 -12.1 -11.4 -11.0 -11.95 -10.45 -12.4 -11.1 -12.8 -11.7 -12.35 -12.25 L-11.95 -12.6 -11.85 -12.65 -11.6 -12.65 M-13.5 -9.5 L-13.05 -9.85 Q-11.05 -9.9 -11.4 -8.05 L-11.7 -7.35 Q-13.5 -6.5 -13.9 -8.2 -14.1 -9.0 -13.5 -9.5 M-9.65 -9.15 Q-9.95 -8.75 -10.4 -9.0 -11.45 -9.5 -10.75 -10.45 L-10.15 -10.75 Q-8.7 -10.3 -9.65 -9.15 M-8.7 -2.7 Q-9.7 -2.2 -9.55 -3.25 L-9.3 -3.5 -9.15 -3.55 Q-8.5 -3.4 -8.65 -2.75 L-8.7 -2.7 M-8.3 -2.2 L-7.8 -2.4 Q-6.7 -2.05 -7.5 -1.2 L-8.1 -1.15 Q-8.8 -1.5 -8.3 -2.2 M-9.55 2.6 L-8.9 1.8 Q-7.15 1.75 -7.35 3.4 L-7.8 4.05 -9.1 4.15 -9.5 3.75 Q-9.85 3.2 -9.6 2.65 L-9.55 2.6 M-13.5 10.35 Q-14.15 10.05 -14.1 9.0 -14.1 8.25 -13.55 7.95 L-13.15 7.8 -12.75 7.75 Q-11.0 7.95 -11.6 9.75 -11.8 10.3 -12.35 10.35 L-13.5 10.35 M-9.25 1.65 Q-10.25 1.95 -10.7 1.05 -11.05 0.3 -10.5 -0.35 L-10.0 -0.75 Q-8.45 -0.85 -8.45 0.6 -8.45 1.4 -9.25 1.65 M-14.3 8.05 Q-14.6 8.65 -15.35 8.3 -16.3 7.95 -15.85 6.9 -15.6 6.3 -14.95 6.35 -13.45 6.75 -14.3 8.05 M-14.5 11.9 Q-16.0 12.45 -16.3 11.0 -16.6 9.85 -15.55 9.35 -13.45 9.35 -13.9 11.25 L-14.5 11.9 M-13.05 11.8 Q-12.0 12.9 -13.3 13.65 L-13.85 13.7 Q-14.4 13.55 -14.35 13.0 -14.2 12.2 -13.6 11.7 L-13.05 11.8 M-14.1 15.85 Q-13.75 16.25 -13.9 16.7 L-14.1 16.95 -14.15 16.95 -14.55 16.95 -14.7 16.85 -14.8 16.7 -14.75 16.15 -14.5 15.85 -14.1 15.85" fill="#ccff00" fill-rule="evenodd" stroke="none"/>
    <path d="M11.1 -16.05 L10.9 -16.1 10.6 -16.05 10.6 -16.1 10.6 -16.4 Q10.75 -18.25 8.8 -18.15 8.2 -17.85 7.9 -17.15 L7.7 -16.7 7.55 -16.8 7.4 -17.0 6.95 -17.05 6.75 -16.9 5.85 -17.55 Q5.15 -17.55 4.9 -16.85 4.55 -15.85 5.5 -15.45 6.2 -15.2 6.5 -15.8 L6.65 -16.05 6.65 -16.0 6.85 -15.9 7.35 -15.85 7.5 -15.95 7.7 -16.25 7.8 -15.9 Q8.35 -14.75 9.5 -15.0 L9.45 -14.65 9.35 -14.5 Q8.45 -13.1 9.85 -12.3 L10.75 -12.3 11.3 -12.8 11.5 -13.15 11.35 -12.8 11.4 -12.75 Q10.75 -11.55 12.7 -11.3 L13.05 -11.7 13.25 -12.35 Q12.85 -11.2 13.35 -9.8 L10.65 -10.05 10.45 -10.5 Q8.8 -12.35 6.05 -12.05 L5.0 -11.9 Q3.5 -11.6 3.15 -10.15 2.8 -8.65 2.9 -7.1 L1.15 -4.9 0.3 -4.3 Q-2.05 -3.1 -4.45 -2.5 L-6.0 -2.3 Q-7.3 -1.55 -7.05 -0.15 -6.75 1.4 -5.15 1.45 L-5.25 3.95 Q-5.35 5.3 -6.25 6.25 -7.4 7.4 -7.25 9.15 -7.15 11.3 -6.1 13.25 -7.1 15.1 -7.05 17.1 L-6.85 17.95 -5.5 21.85 -5.7 22.05 -6.75 23.4 -7.0 23.65 Q-7.45 22.7 -8.6 22.2 L-8.55 22.0 Q-8.15 22.75 -7.25 22.35 -6.75 22.1 -6.7 21.55 -6.5 20.0 -8.15 20.1 L-8.65 20.6 -8.85 20.05 Q-9.9 17.75 -12.65 18.2 -13.65 18.6 -13.75 19.7 L-13.8 20.6 Q-14.55 21.3 -14.35 22.3 L-14.1 22.75 -16.85 22.6 Q-19.0 20.85 -18.15 19.35 L-16.2 16.3 Q-15.1 14.7 -16.4 12.9 -17.6 11.7 -17.05 10.25 -16.55 8.8 -17.35 7.45 -16.9 4.9 -15.5 2.75 L-15.4 2.35 Q-14.7 3.75 -12.35 3.5 L-11.95 3.25 Q-10.95 2.7 -10.85 1.55 -10.75 0.5 -11.05 -0.2 L-10.55 -0.65 Q-9.55 -2.3 -11.05 -3.4 L-11.95 -3.4 -12.2 -3.2 Q-11.85 -4.55 -13.7 -4.65 L-14.3 -4.15 Q-14.95 -2.95 -13.8 -2.25 L-12.85 -2.25 -12.75 -2.25 -12.85 -1.35 -13.9 -1.4 -14.9 -0.85 Q-15.7 -0.3 -15.7 0.6 L-15.7 0.8 -16.0 0.4 Q-16.9 -0.55 -16.05 -1.9 -16.45 -3.5 -17.65 -4.55 -18.7 -4.4 -18.75 -5.5 L-18.4 -7.8 Q-15.7 -7.3 -14.05 -9.8 L-12.85 -13.2 Q-12.4 -14.95 -10.35 -15.65 L-9.5 -16.85 -9.9 -16.15 Q-9.85 -15.4 -9.5 -15.05 L-9.8 -14.7 -9.7 -14.5 -8.8 -15.2 -9.25 -14.8 -7.45 -14.9 Q-6.25 -15.3 -5.9 -16.4 -5.7 -16.9 -5.65 -17.3 -4.9 -17.0 -4.25 -17.9 -2.85 -20.15 -5.3 -20.5 L-6.3 -19.75 Q-5.7 -21.15 -5.55 -22.7 -5.35 -24.75 -2.65 -23.85 -1.05 -24.25 0.6 -23.85 L1.3 -23.3 Q1.6 -22.35 1.2 -21.6 0.75 -20.95 1.3 -20.15 3.35 -18.6 6.25 -18.5 9.05 -18.4 11.35 -19.5 13.25 -18.45 14.1 -16.35 L14.0 -16.2 Q13.55 -16.55 12.75 -16.75 11.65 -16.7 11.1 -16.05 M-12.65 25.05 L-12.65 24.95 -12.75 23.95 -12.8 23.7 -12.7 23.8 -12.65 23.9 -12.55 24.0 -12.5 24.75 -12.45 24.95 -12.65 25.05 M3.35 -17.1 L3.25 -17.05 2.7 -16.5 Q2.45 -16.25 2.55 -15.9 3.05 -14.8 3.95 -15.75 4.85 -16.7 3.6 -17.1 L3.35 -17.1 M0.35 -10.9 L0.55 -10.55 0.85 -11.7 0.8 -12.75 1.7 -12.7 2.05 -13.1 Q2.55 -14.6 1.0 -15.15 0.35 -15.15 0.15 -14.45 L0.05 -13.6 -1.25 -13.8 -1.6 -13.55 -2.45 -12.65 Q-2.35 -13.4 -3.5 -13.75 -3.95 -13.75 -4.25 -13.4 -5.3 -12.2 -3.9 -11.55 L-3.65 -11.45 -4.5 -11.3 Q-5.35 -11.5 -6.05 -11.0 -8.2 -9.65 -6.6 -7.6 L-6.55 -6.7 Q-6.55 -4.45 -4.25 -4.75 L-3.95 -4.85 -2.5 -5.0 Q0.25 -6.2 0.6 -9.1 0.3 -9.6 0.45 -10.3 L0.35 -10.9 M0.05 -18.1 L0.0 -18.2 -0.1 -18.35 -0.35 -18.4 -0.45 -18.35 -0.5 -18.3 -0.65 -18.2 -0.65 -18.1 -0.45 -17.8 -0.1 -17.8 0.0 -17.95 0.05 -18.1 M-1.7 -9.95 L-1.7 -10.05 -1.6 -10.0 -1.7 -9.95 M3.25 -14.15 L3.3 -13.85 3.35 -13.75 3.45 -13.65 4.05 -13.65 4.3 -13.9 Q4.6 -14.25 4.5 -14.7 L4.4 -14.8 4.3 -14.9 4.0 -14.95 3.95 -14.95 3.9 -14.9 3.8 -14.85 3.6 -14.65 3.25 -14.15 M6.85 -15.45 L6.35 -15.25 Q5.6 -14.5 6.45 -14.0 L7.2 -14.05 Q8.1 -15.05 6.85 -15.45 M16.6 20.3 L16.7 20.25 16.7 20.3 16.6 20.3 M-1.4 -20.35 Q-1.6 -20.8 -2.15 -20.9 L-2.4 -20.8 -2.9 -20.45 Q-3.1 -19.25 -1.85 -19.3 L-1.55 -19.6 -1.3 -20.2 -1.4 -20.35 M-6.8 -19.1 L-6.55 -19.2 -6.6 -19.15 -6.65 -19.05 -6.8 -19.1 M-8.75 -13.4 L-9.05 -13.35 -9.15 -13.3 -9.45 -13.0 Q-9.7 -12.35 -9.1 -12.05 L-8.6 -12.1 Q-7.45 -12.85 -8.75 -13.4 M-2.25 -18.7 L-2.5 -18.85 -2.9 -19.0 -3.2 -18.95 -3.35 -18.9 -3.6 -18.6 -3.7 -18.45 Q-4.1 -16.3 -2.15 -17.05 L-2.05 -17.5 Q-1.9 -18.2 -2.25 -18.7 M-12.1 -14.0 Q-11.5 -13.55 -10.75 -14.0 L-12.1 -14.0 M-14.7 -19.35 Q-13.3 -20.05 -11.8 -19.9 -10.35 -19.7 -10.0 -17.85 -9.85 -16.4 -10.9 -15.45 -11.5 -15.0 -12.1 -14.85 -13.0 -16.8 -15.0 -17.35 -15.15 -18.35 -14.7 -19.35 M-13.5 -9.5 Q-14.1 -9.0 -13.9 -8.2 -13.5 -6.5 -11.7 -7.35 L-11.4 -8.05 Q-11.05 -9.9 -13.05 -9.85 L-13.5 -9.5 M-11.6 -12.65 L-11.85 -12.65 -11.95 -12.6 -12.35 -12.25 Q-12.8 -11.7 -12.4 -11.1 -11.95 -10.45 -11.4 -11.0 -10.35 -12.1 -11.6 -12.65 M-2.65 -12.0 L-2.65 -11.95 -2.9 -11.9 -2.65 -11.95 -2.65 -12.0 M-11.4 -6.35 L-11.55 -6.5 -12.2 -6.55 -12.5 -6.3 -12.6 -6.1 -12.7 -5.7 -12.65 -5.55 -12.45 -5.25 -12.3 -5.05 -11.65 -5.05 -11.5 -5.15 Q-11.3 -5.3 -11.25 -5.6 L-11.2 -5.85 -11.4 -6.35 M-9.65 -9.15 Q-8.7 -10.3 -10.15 -10.75 L-10.75 -10.45 Q-11.45 -9.5 -10.4 -9.0 -9.95 -8.75 -9.65 -9.15 M-7.15 -4.8 L-6.7 -5.3 Q-6.2 -6.6 -7.8 -6.65 L-7.85 -6.6 -8.0 -6.55 -8.1 -6.5 -8.2 -6.4 -8.35 -5.6 -8.2 -5.2 -7.9 -4.95 -7.15 -4.8 M-8.3 -2.2 Q-8.8 -1.5 -8.1 -1.15 L-7.5 -1.2 Q-6.7 -2.05 -7.8 -2.4 L-8.3 -2.2 M-8.7 -2.7 L-8.65 -2.75 Q-8.5 -3.4 -9.15 -3.55 L-9.3 -3.5 -9.55 -3.25 Q-9.7 -2.2 -8.7 -2.7 M-9.1 4.15 L-7.8 4.05 -7.35 3.4 Q-7.15 1.75 -8.9 1.8 L-9.55 2.6 -9.75 2.35 -10.0 2.25 -10.15 2.45 -10.7 3.45 Q-11.55 3.6 -12.2 4.05 -13.95 5.25 -13.6 7.7 L-13.55 7.95 Q-14.1 8.25 -14.1 9.0 -14.15 10.05 -13.5 10.35 -13.4 11.9 -12.05 12.45 L-12.8 13.5 Q-13.5 15.15 -11.9 15.7 -10.5 16.3 -9.95 15.05 L-9.1 15.05 -8.55 14.55 Q-7.8 12.75 -9.6 12.6 L-10.15 12.7 Q-8.5 12.5 -8.8 10.15 L-8.65 9.85 Q-7.55 7.0 -9.25 4.75 L-9.25 4.65 -9.1 4.15 M-9.25 1.65 Q-8.45 1.4 -8.45 0.6 -8.45 -0.85 -10.0 -0.75 L-10.5 -0.35 Q-11.05 0.3 -10.7 1.05 -10.25 1.95 -9.25 1.65 M-19.65 11.4 Q-20.5 11.8 -21.15 12.6 -21.8 13.45 -22.75 13.6 -22.9 13.0 -23.35 12.45 -23.85 12.0 -23.65 11.4 L-20.7 8.25 Q-19.65 9.5 -19.65 11.4 M-19.25 10.6 Q-19.3 9.45 -19.7 8.7 L-19.7 8.1 Q-17.45 7.4 -17.5 9.7 -17.25 10.6 -17.8 11.25 -19.25 11.7 -19.25 10.6 M-14.1 15.85 L-14.5 15.85 -14.75 16.15 -14.8 16.7 -14.7 16.85 -14.55 16.95 -14.15 16.95 -14.1 16.95 -13.9 16.7 Q-13.75 16.25 -14.1 15.85 M-13.05 11.8 L-13.6 11.7 Q-14.2 12.2 -14.35 13.0 -14.4 13.55 -13.85 13.7 L-13.3 13.65 Q-12.0 12.9 -13.05 11.8 M-14.5 11.9 L-13.9 11.25 Q-13.45 9.35 -15.55 9.35 -16.6 9.85 -16.3 11.0 -16.0 12.45 -14.5 11.9 M-14.3 8.05 Q-13.45 6.75 -14.95 6.35 -15.6 6.3 -15.85 6.9 -16.3 7.95 -15.35 8.3 -14.6 8.65 -14.3 8.05 M-10.3 16.65 L-10.35 16.8 -10.35 16.9 -10.35 17.25 -10.3 17.4 -10.0 17.7 -9.85 17.85 -9.2 17.85 -9.1 17.7 Q-8.1 16.45 -9.8 16.2 L-10.3 16.65 M-11.85 30.95 L-11.85 31.1 -13.45 31.65 -13.6 31.45 -13.05 31.4 Q-12.3 31.3 -11.85 30.95" fill="#99cc00" fill-rule="evenodd" stroke="none"/>
    <path d="M14.0 -16.2 L14.1 -16.35 Q13.25 -18.45 11.35 -19.5 9.05 -18.4 6.25 -18.5 3.35 -18.6 1.3 -20.15 0.75 -20.95 1.2 -21.6 1.6 -22.35 1.3 -23.3 L0.6 -23.85 Q-1.05 -24.25 -2.65 -23.85 -5.35 -24.75 -5.55 -22.7 -5.7 -21.15 -6.3 -19.75 L-6.55 -19.2 -6.8 -19.1 Q-8.45 -18.5 -8.3 -17.0 L-8.3 -16.85 Q-8.3 -15.9 -8.8 -15.2 L-9.7 -14.5 -9.8 -14.7 -9.5 -15.05 Q-8.55 -16.25 -8.9 -17.85 L-9.5 -16.85 -10.35 -15.65 Q-12.4 -14.95 -12.85 -13.2 L-14.05 -9.8 Q-15.7 -7.3 -18.4 -7.8 L-18.75 -5.5 Q-18.7 -4.4 -17.65 -4.55 -16.45 -3.5 -16.05 -1.9 -16.9 -0.55 -16.0 0.4 L-15.7 0.8 Q-15.35 1.5 -15.4 2.35 L-15.5 2.75 Q-16.9 4.9 -17.35 7.45 -16.55 8.8 -17.05 10.25 -17.6 11.7 -16.4 12.9 -15.1 14.7 -16.2 16.3 L-18.15 19.35 Q-19.0 20.85 -16.85 22.6 L-14.1 22.75 -13.85 22.85 -13.6 22.95 -13.0 23.25 -12.8 23.7 -12.75 23.95 -12.65 24.95 -12.65 25.05 Q-12.6 25.7 -11.95 26.0 L-11.9 26.05 -11.7 26.85 Q-10.3 28.7 -10.35 31.2 -12.25 32.95 -14.5 32.45 -15.45 31.5 -15.6 30.3 L-17.65 29.55 Q-18.7 29.15 -18.9 27.95 -19.25 26.55 -18.6 25.55 L-17.35 23.6 Q-18.95 21.55 -18.75 19.05 L-17.5 17.25 Q-16.8 16.3 -17.35 15.2 -17.85 14.35 -17.9 13.15 -18.0 11.9 -19.35 12.35 L-21.25 13.8 Q-22.15 14.7 -23.4 14.2 -24.6 12.9 -24.5 11.1 L-21.75 8.05 Q-20.2 6.55 -17.95 6.75 L-16.95 3.6 Q-16.5 1.95 -17.8 0.55 -17.0 -0.95 -17.85 -2.05 L-19.55 -4.2 Q-19.4 -5.3 -19.6 -6.45 -19.75 -7.65 -18.75 -8.4 -17.9 -9.6 -16.6 -9.0 -15.25 -8.5 -14.8 -10.15 L-13.85 -12.85 Q-13.3 -14.2 -13.9 -15.5 -14.95 -16.9 -16.4 -16.2 -16.5 -18.45 -15.5 -20.65 -13.65 -20.15 -11.6 -21.25 -9.55 -22.4 -9.25 -19.3 -8.65 -18.5 -7.8 -18.95 -6.6 -20.2 -6.8 -22.05 -7.15 -23.95 -5.15 -24.55 -1.7 -25.65 2.0 -25.0 L2.8 -24.15 Q2.4 -22.8 2.45 -21.45 4.45 -19.35 7.15 -19.45 9.4 -20.95 12.25 -21.0 15.3 -19.5 15.4 -16.3 15.0 -15.85 14.9 -15.2 16.5 -14.4 18.4 -14.05 20.2 -13.75 20.2 -11.3 20.8 -9.5 19.25 -8.85 18.4 -8.4 18.8 -7.5 L19.25 -5.75 Q18.9 -4.0 19.75 -2.1 20.55 -0.2 18.7 1.3 18.2 3.4 19.9 4.45 21.9 4.6 22.7 6.4 22.85 8.15 23.9 9.2 24.95 10.2 25.5 11.7 25.85 13.6 24.55 14.5 23.65 14.6 22.8 15.1 L21.0 15.3 Q20.85 12.6 18.4 11.4 15.45 13.95 16.15 17.65 17.75 19.25 18.2 21.25 L17.35 23.9 Q16.9 25.25 18.4 26.2 18.6 27.25 19.45 28.0 20.2 28.75 19.5 30.0 18.05 31.5 16.35 32.05 14.4 32.0 13.0 30.55 11.8 28.1 12.75 25.6 L13.2 25.1 13.95 24.8 14.7 24.0 15.4 24.0 16.35 22.65 Q16.9 21.95 16.75 20.95 L16.7 20.65 16.7 20.3 16.7 20.25 16.6 20.3 Q16.3 19.55 15.5 19.35 L14.75 18.65 14.6 18.0 14.6 17.95 Q14.35 16.9 14.45 15.9 14.6 14.1 16.0 12.55 L15.95 11.5 15.95 11.2 Q16.05 10.8 16.65 10.8 17.25 9.55 18.55 9.75 19.7 9.9 20.2 8.7 L20.25 8.75 20.35 8.9 20.2 9.3 Q19.65 10.3 20.2 11.2 L21.4 11.1 Q21.95 10.45 22.6 10.1 22.35 7.25 19.8 5.75 17.1 4.15 17.9 1.05 18.95 0.05 18.6 -1.25 L17.7 -3.6 Q18.2 -4.9 17.6 -6.0 L17.35 -6.55 Q16.9 -7.5 16.9 -8.6 17.45 -9.8 18.8 -9.9 20.1 -10.0 19.5 -11.7 18.7 -13.3 17.15 -13.2 15.6 -13.1 14.45 -13.9 L14.25 -14.1 Q13.4 -14.95 14.0 -16.2 M0.35 -10.9 L0.45 -10.3 Q0.3 -9.6 0.6 -9.1 0.25 -6.2 -2.5 -5.0 L-3.95 -4.85 -4.15 -4.95 -4.25 -5.0 -4.55 -7.7 -1.7 -9.95 -1.6 -10.0 -0.2 -11.15 -0.1 -11.15 0.35 -10.95 0.35 -10.9 M9.75 -8.05 L9.65 -8.65 Q7.25 -9.45 4.65 -9.15 4.2 -8.7 4.5 -8.1 L4.8 -6.95 Q4.65 -5.4 3.55 -4.25 L1.5 -1.8 Q1.7 -1.0 2.45 -0.6 3.85 -0.35 4.45 0.95 L4.45 1.5 Q2.75 0.3 0.8 -0.3 L-1.25 -0.75 -1.9 -0.85 Q-3.45 0.4 -3.25 1.75 L-2.8 2.85 -2.8 2.9 Q-2.3 3.6 -2.3 4.3 L-2.3 4.5 Q-2.35 5.35 -3.15 6.3 L-3.45 6.6 Q-4.75 7.35 -4.75 8.45 L-5.05 10.6 Q-4.7 11.95 -3.85 13.0 -3.0 14.05 -2.65 15.3 -2.45 16.8 -2.75 18.45 L-2.9 19.3 Q-3.4 21.35 -0.8 21.75 L-0.75 21.85 -0.65 22.1 -0.7 22.1 -0.75 22.15 -0.85 22.15 Q-1.2 22.55 -1.0 23.0 L-0.75 23.2 Q-0.5 23.25 -0.3 23.45 -0.2 24.6 -0.45 25.9 -1.9 27.35 -2.05 29.25 -1.1 30.6 -1.0 32.35 -0.75 35.5 -2.25 38.3 -3.4 40.4 -5.7 39.9 -7.7 39.5 -7.3 37.45 -7.05 36.0 -7.15 34.4 -7.5 34.15 -7.5 33.65 L-7.45 32.65 Q-8.05 31.4 -7.9 30.0 L-8.35 28.5 -8.35 28.4 -9.05 27.75 Q-9.65 27.4 -9.6 26.8 L-9.65 26.75 -9.85 26.5 -9.95 26.3 -11.75 26.25 -11.6 26.1 -11.4 25.95 -11.25 25.85 -11.15 25.8 -10.35 25.6 -10.3 25.6 -10.2 25.5 -9.85 25.55 -9.65 25.6 -9.55 25.65 -8.8 25.85 -8.15 26.2 Q-7.9 26.3 -7.7 26.5 L-7.65 26.55 Q-7.2 26.9 -7.05 27.35 L-7.0 27.4 -7.0 27.35 -6.2 27.75 -6.35 28.85 -6.7 29.0 -6.75 29.2 Q-6.5 29.95 -6.5 30.8 L-6.45 30.6 -6.2 31.65 -6.25 31.9 -6.5 31.6 -6.55 32.5 -6.1 33.35 -6.15 34.6 -6.15 35.2 -6.25 38.5 -5.9 38.65 -5.0 38.9 Q-3.45 38.55 -2.9 37.1 -2.15 35.1 -2.0 33.0 L-2.4 32.65 -2.55 31.65 -2.65 31.25 -2.6 31.1 -2.6 30.45 Q-2.75 29.8 -3.2 29.2 L-2.9 28.2 -2.85 28.25 -2.8 28.25 -2.85 28.2 -2.85 28.1 -2.6 27.3 -2.5 27.35 -2.2 27.05 -1.75 26.1 Q-0.85 23.35 -3.1 21.75 L-3.15 21.8 Q-3.25 21.3 -3.65 20.8 -3.65 20.4 -4.0 20.0 L-4.05 19.95 -3.95 19.9 Q-3.65 19.2 -3.9 18.45 -4.1 17.7 -3.8 16.95 -4.65 14.4 -6.25 12.15 -6.05 10.6 -6.1 8.9 -6.2 7.2 -4.55 6.55 -3.4 5.3 -3.9 3.85 -4.35 2.4 -4.25 1.05 -3.3 -1.45 -1.0 -2.5 0.8 -1.8 1.6 -3.15 2.4 -4.5 3.55 -5.5 3.9 -6.35 3.55 -7.1 3.25 -7.85 3.2 -8.7 4.45 -10.45 6.35 -10.25 L10.1 -9.7 Q11.3 -9.2 11.5 -8.05 L11.55 -7.95 11.55 -7.8 11.65 -6.4 11.65 -6.2 11.65 -5.55 11.65 -5.15 11.75 -4.95 Q12.6 -3.3 12.45 -1.35 L12.3 -0.2 12.3 -0.15 12.25 0.1 Q11.95 1.35 12.15 2.45 12.3 3.6 12.9 4.65 L12.95 5.2 13.0 5.35 13.0 5.7 12.9 7.1 12.85 7.35 12.0 9.45 11.95 9.5 11.8 9.8 11.75 9.85 11.7 9.95 11.15 11.3 10.95 11.6 10.2 14.2 9.85 15.6 9.8 15.75 9.7 16.3 Q8.85 18.9 5.7 19.3 L5.2 19.25 Q4.85 19.4 4.65 19.8 L4.55 20.35 4.45 21.5 4.5 21.95 4.45 22.3 3.8 22.15 3.6 22.2 3.6 21.75 Q3.55 20.45 4.0 19.05 3.7 18.5 3.0 18.6 L1.85 18.4 Q0.7 17.25 -0.05 15.9 L-0.5 15.0 -0.55 15.0 -1.45 12.2 0.2 15.05 0.4 15.35 2.0 17.35 2.05 17.35 2.05 17.4 2.35 17.7 2.45 17.8 3.9 17.9 7.75 17.5 Q8.5 14.1 10.5 10.95 12.2 8.2 11.25 5.1 L11.15 4.8 11.2 4.7 11.35 4.0 11.4 3.5 11.4 3.3 Q11.8 3.0 11.6 2.4 L11.55 2.35 Q11.25 1.85 10.6 1.9 L10.4 1.9 10.05 1.9 10.2 1.9 10.4 2.45 Q10.45 3.05 9.85 3.45 9.15 3.9 8.6 3.2 L8.55 3.1 8.7 2.75 Q8.5 2.95 8.45 3.3 L8.5 3.65 8.3 4.0 8.2 4.25 Q8.0 3.75 8.1 3.15 8.7 1.6 10.25 1.5 L10.35 1.5 11.25 1.0 Q11.7 0.5 11.65 -0.6 9.8 -0.5 8.25 0.7 8.35 -0.65 9.7 -1.4 L9.9 -1.5 11.25 -2.05 Q11.85 -2.3 11.35 -3.2 10.25 -5.5 9.75 -8.05 M4.95 -2.55 L5.1 -2.65 5.65 -3.1 6.65 -2.95 6.85 -2.9 Q7.7 -2.1 7.15 -1.0 L6.85 -0.55 6.3 -0.35 5.3 -0.4 5.05 -0.5 Q4.55 -0.85 4.5 -1.4 L4.4 -1.65 4.6 -2.15 4.95 -2.55 M4.95 -1.65 L5.1 -1.15 Q5.45 -0.55 6.2 -0.7 L6.45 -0.85 Q7.2 -1.5 6.7 -2.35 L6.35 -2.6 5.6 -2.65 Q5.0 -2.35 4.95 -1.65 M9.35 -6.2 Q9.55 -5.05 8.5 -4.55 7.6 -4.15 7.0 -4.8 L6.75 -5.25 Q6.6 -6.5 7.5 -7.15 8.8 -7.35 9.3 -6.25 L9.35 -6.2 M8.85 -5.4 L8.95 -5.95 Q8.75 -6.9 7.75 -6.8 6.75 -6.25 7.3 -5.2 L7.55 -4.95 Q8.45 -4.65 8.85 -5.4 M24.45 12.6 Q24.1 11.1 22.75 10.55 21.75 11.15 21.95 11.8 L22.25 13.25 Q23.25 13.95 24.45 12.6 M2.25 2.4 Q1.9 3.6 0.65 3.25 L0.2 3.05 Q-0.3 2.55 -0.15 1.85 L-0.45 1.9 -0.7 1.95 -1.5 2.05 -1.75 2.15 -1.85 2.35 -1.9 2.05 Q-0.25 0.85 1.9 1.5 L3.9 3.25 3.7 4.05 3.05 3.2 2.5 2.55 2.3 2.4 2.25 2.4 M3.9 23.65 L4.15 23.6 4.0 24.2 3.85 23.65 3.9 23.65 M11.25 26.3 L11.7 26.35 11.85 26.55 Q11.65 27.2 11.05 27.55 L10.45 28.05 10.25 28.7 10.15 29.55 Q11.55 30.6 11.7 32.3 L11.45 33.95 10.65 34.9 Q8.1 35.35 6.35 33.55 L5.95 32.95 5.25 30.8 Q4.5 29.25 5.3 27.65 L5.5 27.2 5.55 27.15 5.6 27.05 5.55 26.75 5.55 26.6 5.3 26.25 5.25 26.2 5.25 26.15 5.05 25.8 5.05 25.65 4.6 24.8 4.6 24.65 4.5 24.2 4.55 24.1 4.65 24.1 5.25 24.85 5.3 24.9 5.3 25.0 5.3 25.1 5.55 25.45 5.55 25.5 5.55 25.65 5.8 25.9 5.8 25.95 5.9 26.0 6.05 26.15 6.1 26.25 6.3 27.15 Q6.45 28.2 6.2 29.3 L6.1 29.8 7.45 33.0 7.6 33.3 Q8.8 33.95 10.2 33.7 L10.6 33.35 Q10.9 31.6 9.65 30.5 9.0 29.9 9.1 28.85 L9.2 28.4 9.75 27.15 10.45 26.55 Q10.8 26.25 11.25 26.3 M16.7 25.9 L16.15 25.55 16.1 25.35 15.9 24.9 16.0 24.55 Q15.6 24.2 15.1 24.3 L14.65 24.6 14.6 24.6 Q14.25 24.6 14.2 25.0 L14.1 25.55 Q13.6 25.85 13.65 26.4 L13.75 26.7 13.8 26.75 13.6 27.2 Q13.45 27.8 13.55 28.6 14.9 30.75 17.25 30.8 18.7 30.15 18.5 28.75 L17.15 26.55 16.7 25.9 M-12.1 -14.0 L-10.75 -14.0 Q-11.5 -13.55 -12.1 -14.0 M-14.7 -19.35 Q-15.15 -18.35 -15.0 -17.35 -13.0 -16.8 -12.1 -14.85 -11.5 -15.0 -10.9 -15.45 -9.85 -16.4 -10.0 -17.85 -10.35 -19.7 -11.8 -19.9 -13.3 -20.05 -14.7 -19.35 M-1.05 -9.5 Q-2.8 -8.9 -3.4 -7.35 -3.1 -6.2 -2.15 -6.55 -0.35 -7.45 -1.05 -9.5 M-19.25 10.6 Q-19.25 11.7 -17.8 11.25 -17.25 10.6 -17.5 9.7 -17.45 7.4 -19.7 8.1 L-19.7 8.7 Q-19.3 9.45 -19.25 10.6 M-19.65 11.4 Q-19.65 9.5 -20.7 8.25 L-23.65 11.4 Q-23.85 12.0 -23.35 12.45 -22.9 13.0 -22.75 13.6 -21.8 13.45 -21.15 12.6 -20.5 11.8 -19.65 11.4 M-13.4 24.0 Q-13.8 23.7 -14.3 23.55 L-16.7 23.75 Q-17.0 25.0 -17.7 26.3 -18.4 27.65 -17.15 28.8 -15.85 29.4 -15.0 28.25 L-14.85 28.05 Q-14.1 27.05 -12.7 27.3 -13.0 25.95 -12.95 24.4 L-13.0 24.3 -13.4 24.0 M-13.6 31.45 L-13.45 31.65 -11.85 31.1 -11.85 30.95 -11.95 28.75 Q-12.45 27.65 -13.85 27.95 -14.7 28.15 -15.1 29.0 -14.35 29.45 -14.15 30.25 -14.1 30.95 -13.6 31.45" fill="#000000" fill-rule="evenodd" stroke="none"/>
    <path d="M2.45 -0.6 Q1.7 -1.0 1.5 -1.8 L3.55 -4.25 Q4.65 -5.4 4.8 -6.95 L4.5 -8.1 Q4.2 -8.7 4.65 -9.15 7.25 -9.45 9.65 -8.65 L9.75 -8.05 9.05 -8.05 7.6 -8.05 7.35 -7.95 6.35 -7.5 Q6.4 -6.1 5.9 -4.85 5.5 -4.0 4.8 -3.55 L3.6 -2.25 2.8 -1.2 2.65 -0.8 2.45 -0.6 M11.25 1.0 L10.35 1.5 10.25 1.5 Q8.7 1.6 8.1 3.15 8.0 3.75 8.2 4.25 L8.3 4.0 8.5 3.65 8.45 3.3 Q8.5 2.95 8.7 2.75 L8.55 3.1 8.6 3.2 Q9.15 3.9 9.85 3.45 10.45 3.05 10.4 2.45 L10.2 1.9 10.05 1.9 10.4 1.9 10.6 1.9 Q11.25 1.85 11.55 2.35 L11.6 2.4 Q11.8 3.0 11.4 3.3 L11.4 3.5 11.35 4.0 11.2 4.7 11.15 4.8 11.25 5.1 10.7 5.2 10.65 5.25 10.1 5.4 9.45 5.65 9.15 5.8 9.15 5.85 9.0 5.9 8.85 5.95 8.55 6.1 7.6 6.15 7.05 5.9 6.95 5.85 Q6.65 5.7 6.65 5.35 L6.65 4.0 6.75 3.7 6.75 3.6 Q7.15 2.45 8.2 1.8 9.45 1.0 10.85 0.8 L11.45 0.75 11.25 1.0 M2.05 17.35 L2.0 17.35 2.05 17.35 M-0.55 15.0 L-0.5 15.0 -0.05 15.9 Q0.7 17.25 1.85 18.4 L3.0 18.6 Q3.7 18.5 4.0 19.05 3.55 20.45 3.6 21.75 L3.55 21.75 3.6 22.2 3.0 22.3 2.0 22.35 Q1.6 21.35 1.8 20.3 L1.85 19.7 1.8 19.65 Q-0.05 19.35 -0.65 17.5 L-0.7 17.25 -1.0 16.1 -1.05 15.65 -0.85 15.2 -0.65 15.0 -0.55 15.0 M-2.3 4.3 Q-2.3 3.6 -2.8 2.9 L-2.8 2.85 -3.25 1.75 Q-3.45 0.4 -1.9 -0.85 L-1.25 -0.75 0.8 -0.3 0.1 0.3 -0.4 0.85 -0.15 0.8 Q1.5 0.75 2.95 1.65 3.8 2.15 4.35 3.0 L4.55 3.3 4.75 3.65 4.8 3.85 4.9 4.65 4.9 5.0 4.8 5.4 4.6 5.75 2.25 5.95 1.5 5.75 0.25 5.25 -0.45 4.95 -0.75 4.95 -0.95 4.9 -1.05 4.85 -1.7 4.65 -2.25 4.3 -2.3 4.3 M2.25 2.4 L2.3 2.4 2.5 2.55 3.05 3.2 3.7 4.05 3.9 3.25 1.9 1.5 Q-0.25 0.85 -1.9 2.05 L-1.85 2.35 -1.75 2.15 -1.5 2.05 -0.7 1.95 -0.45 1.9 -0.15 1.85 Q-0.3 2.55 0.2 3.05 L0.65 3.25 Q1.9 3.6 2.25 2.4 M7.1 13.75 Q5.5 15.05 3.4 14.55 2.55 14.2 2.4 13.45 4.1 14.6 6.0 13.95 6.6 13.45 7.1 13.75 M-1.05 -9.5 Q-0.35 -7.45 -2.15 -6.55 -3.1 -6.2 -3.4 -7.35 -2.8 -8.9 -1.05 -9.5" fill="#ad7a3f" fill-rule="evenodd" stroke="none"/>
    <path d="M2.65 -0.8 L2.8 -1.2 3.6 -2.25 4.8 -3.55 Q5.5 -4.0 5.9 -4.85 6.4 -6.1 6.35 -7.5 L7.35 -7.95 7.6 -8.05 9.05 -8.05 9.75 -8.05 Q10.25 -5.5 11.35 -3.2 11.85 -2.3 11.25 -2.05 L9.9 -1.5 9.7 -1.4 Q8.4 -0.95 7.45 0.25 6.7 0.5 6.25 1.0 L5.65 0.6 5.15 0.25 Q3.95 -0.5 2.65 -0.8 M11.25 5.1 Q12.2 8.2 10.5 10.95 8.5 14.1 7.75 17.5 L3.9 17.9 Q3.45 17.5 2.8 17.45 3.1 17.05 2.8 16.5 L0.3 12.2 0.3 11.55 0.2 11.1 0.2 10.05 0.15 9.0 0.1 8.45 Q0.8 8.65 1.45 8.25 2.95 7.35 1.65 6.2 L1.65 6.1 1.5 5.75 2.25 5.95 4.6 5.75 4.8 5.4 4.9 5.0 4.9 4.65 5.15 4.7 5.25 7.95 5.5 8.75 2.7 7.95 Q2.5 8.65 2.95 9.05 L5.35 9.4 Q6.5 9.9 7.35 8.75 L7.2 8.65 6.9 8.7 7.05 5.9 7.6 6.15 Q7.3 6.65 7.4 7.25 7.5 7.75 7.9 8.0 L10.65 7.9 Q11.4 7.4 11.35 6.6 11.25 5.6 10.65 5.25 L10.7 5.2 11.25 5.1 M-1.45 12.2 L-0.55 15.0 -0.65 15.0 -0.85 15.2 -1.05 15.65 -1.0 16.1 -0.7 17.25 -0.65 17.5 Q-0.05 19.35 1.8 19.65 L1.85 19.7 1.8 20.3 Q1.6 21.35 2.0 22.35 L1.25 22.4 -0.65 22.1 -0.75 21.85 -0.8 21.75 Q-3.4 21.35 -2.9 19.3 L-2.75 18.45 Q-2.45 16.8 -2.65 15.3 -3.0 14.05 -3.85 13.0 -4.7 11.95 -5.05 10.6 L-4.75 8.45 Q-4.75 7.35 -3.45 6.6 L-3.15 6.3 -3.15 6.45 -3.05 7.1 -2.75 8.1 Q-2.3 9.35 -2.15 10.65 L-1.85 11.55 -1.45 12.2 M-2.3 4.5 L-2.3 4.3 -2.25 4.3 -1.7 4.65 -2.15 4.45 -2.3 4.5 M4.95 -2.55 L4.6 -2.15 4.4 -1.65 4.5 -1.4 Q4.55 -0.85 5.05 -0.5 L5.3 -0.4 6.3 -0.35 6.85 -0.55 7.15 -1.0 Q7.7 -2.1 6.85 -2.9 L6.65 -2.95 5.65 -3.1 5.1 -2.65 4.95 -2.55 M9.35 -6.2 L9.3 -6.25 Q8.8 -7.35 7.5 -7.15 6.6 -6.5 6.75 -5.25 L7.0 -4.8 Q7.6 -4.15 8.5 -4.55 9.55 -5.05 9.35 -6.2 M6.75 3.7 L6.65 4.0 6.6 3.85 6.7 3.85 6.75 3.7 M4.35 3.0 L4.4 3.0 4.8 3.1 4.55 3.3 4.35 3.0 M4.9 10.95 L1.85 12.05 2.65 12.35 Q5.65 13.3 8.1 11.45 6.5 10.45 4.9 10.95 M7.1 13.75 Q6.6 13.45 6.0 13.95 4.1 14.6 2.4 13.45 2.55 14.2 3.4 14.55 5.5 15.05 7.1 13.75" fill="#e3b18b" fill-rule="evenodd" stroke="none"/>
    <path d="M2.45 -0.6 L2.65 -0.8 Q3.95 -0.5 5.15 0.25 L5.65 0.6 6.25 1.0 Q6.7 0.5 7.45 0.25 8.4 -0.95 9.7 -1.4 8.35 -0.65 8.25 0.7 9.8 -0.5 11.65 -0.6 11.7 0.5 11.25 1.0 L11.45 0.75 10.85 0.8 Q9.45 1.0 8.2 1.8 7.15 2.45 6.75 3.6 L6.75 3.7 6.7 3.85 6.6 3.85 6.65 4.0 6.65 5.35 Q6.65 5.7 6.95 5.85 L7.05 5.9 6.9 8.7 5.5 8.75 5.25 7.95 5.15 4.7 4.9 4.65 4.8 3.85 4.75 3.65 4.55 3.3 4.8 3.1 4.4 3.0 4.35 3.0 Q3.8 2.15 2.95 1.65 1.5 0.75 -0.15 0.8 L-0.4 0.85 0.1 0.3 0.8 -0.3 Q2.75 0.3 4.45 1.5 L4.45 0.95 Q3.85 -0.35 2.45 -0.6 M3.9 17.9 L2.45 17.8 2.35 17.7 2.05 17.4 2.05 17.35 2.0 17.35 0.4 15.35 0.2 15.05 -1.45 12.2 -1.85 11.55 -2.15 10.65 Q-2.3 9.35 -2.75 8.1 L-3.05 7.1 -3.15 6.45 -3.15 6.3 Q-2.35 5.35 -2.3 4.5 L-2.15 4.45 -1.7 4.65 -1.05 4.85 Q-1.9 5.0 -2.55 5.6 -2.9 5.85 -2.9 6.25 -2.85 7.0 -2.05 6.95 L-1.8 7.1 -0.15 7.3 Q0.85 7.1 1.0 6.15 L0.9 5.7 0.7 5.5 0.25 5.25 1.5 5.75 1.65 6.1 1.65 6.2 Q2.95 7.35 1.45 8.25 0.8 8.65 0.1 8.45 L0.15 9.0 0.2 10.05 0.2 11.1 0.3 11.55 0.3 12.2 2.8 16.5 Q3.1 17.05 2.8 17.45 3.45 17.5 3.9 17.9 M7.6 6.15 L8.55 6.1 8.05 6.2 8.0 6.45 8.15 6.95 9.35 7.15 9.8 7.05 Q10.3 6.95 10.4 6.45 L10.3 5.7 10.1 5.4 10.65 5.25 Q11.25 5.6 11.35 6.6 11.4 7.4 10.65 7.9 L7.9 8.0 Q7.5 7.75 7.4 7.25 7.3 6.65 7.6 6.15" fill="#edcdb6" fill-rule="evenodd" stroke="none"/>
    <path d="M4.95 -1.65 Q5.0 -2.35 5.6 -2.65 L6.35 -2.6 6.7 -2.35 Q7.2 -1.5 6.45 -0.85 L6.2 -0.7 Q5.45 -0.55 5.1 -1.15 L4.95 -1.65 M8.85 -5.4 Q8.45 -4.65 7.55 -4.95 L7.3 -5.2 Q6.75 -6.25 7.75 -6.8 8.75 -6.9 8.95 -5.95 L8.85 -5.4" fill="#cccccc" fill-rule="evenodd" stroke="none"/>
    <path d="M-11.9 26.05 L-11.95 26.0 Q-12.6 25.7 -12.65 25.05 L-12.45 24.95 -12.5 24.75 -12.55 24.0 -12.65 23.9 -12.7 23.8 -12.8 23.7 -13.0 23.25 -13.6 22.95 -12.85 21.85 Q-12.3 21.5 -11.55 21.6 L-11.55 21.55 Q-9.65 21.9 -9.3 23.5 L-8.65 22.95 Q-6.55 23.2 -6.8 25.3 -6.85 25.85 -7.3 26.2 L-7.65 26.55 -7.7 26.5 Q-7.9 26.3 -8.15 26.2 L-8.6 25.75 -8.8 25.85 -9.55 25.65 -9.65 25.6 -9.85 25.55 -10.2 25.5 -10.3 25.6 -10.35 25.6 -11.15 25.8 -11.25 25.85 -11.4 25.95 -11.6 26.1 -11.9 26.05 M4.45 22.3 L4.5 21.95 4.45 21.5 4.55 20.35 4.65 19.8 Q4.85 19.4 5.2 19.25 L5.7 19.3 Q8.85 18.9 9.7 16.3 L9.8 15.75 9.85 15.6 10.2 14.2 10.95 11.6 11.15 11.3 11.7 9.95 11.75 9.85 11.8 9.8 11.95 9.5 12.0 9.45 12.85 7.35 12.9 7.1 13.0 5.7 13.0 5.35 13.35 5.2 13.6 5.05 12.95 5.2 12.9 4.65 Q12.3 3.6 12.15 2.45 L12.45 2.2 12.85 2.0 Q13.6 2.0 14.1 2.4 13.75 1.95 13.65 1.2 13.55 0.65 13.7 0.25 L13.95 -0.05 13.6 0.25 13.6 0.3 12.35 0.25 12.25 0.1 12.3 -0.15 12.3 -0.2 12.45 -1.35 Q12.6 -3.3 11.75 -4.95 L11.95 -5.15 11.65 -5.55 11.65 -6.2 11.65 -6.4 11.7 -6.55 12.0 -7.0 12.7 -6.95 Q13.4 -6.45 13.3 -5.7 15.4 -5.75 15.0 -3.65 L14.45 -2.75 14.25 -2.2 13.65 -1.35 13.65 -1.3 14.05 -0.55 14.85 -1.15 Q17.7 -1.25 17.25 1.4 17.1 2.5 16.05 2.7 L14.4 2.6 14.85 3.65 Q14.95 4.35 14.3 4.75 L13.6 5.05 14.2 5.0 Q14.5 4.65 15.0 4.45 L15.4 4.25 16.3 4.25 Q17.95 5.65 16.05 7.1 L15.9 7.25 Q15.7 7.85 15.0 8.1 L14.8 8.2 15.15 9.4 15.0 9.85 14.1 10.6 Q15.1 11.2 15.35 12.2 15.45 12.75 15.15 13.55 14.95 14.2 14.45 14.3 L13.25 14.45 13.2 14.4 13.05 14.35 13.45 14.6 13.5 14.65 13.55 14.7 13.9 15.1 14.3 15.6 14.45 15.9 Q14.35 16.9 14.6 17.95 L14.6 18.0 14.25 19.6 Q13.8 21.15 12.15 21.4 L12.15 21.8 12.2 21.8 12.15 22.05 12.2 21.75 12.4 21.4 13.55 20.85 Q15.6 21.45 14.75 23.4 L14.2 24.0 14.1 24.3 14.0 24.8 13.95 24.8 13.2 25.1 12.75 25.6 12.45 25.75 Q10.95 25.85 10.6 24.55 L9.9 24.8 Q10.5 25.35 10.45 26.55 L9.75 27.15 9.2 28.4 Q7.4 29.05 6.5 27.25 L6.4 27.0 6.55 26.7 6.25 26.4 Q6.2 26.05 6.3 25.75 L5.6 25.55 5.45 24.5 5.45 24.45 5.0 24.05 4.8 23.8 4.6 23.65 4.45 23.2 4.45 22.3 M-2.2 27.05 L-2.5 27.35 -2.6 27.3 -2.85 28.1 -2.85 28.2 -2.8 28.25 -2.85 28.25 -2.9 28.2 -3.2 29.2 Q-2.75 29.8 -2.6 30.45 -4.55 31.35 -5.35 29.5 -6.1 27.85 -4.45 26.95 L-4.2 26.6 Q-2.9 26.55 -2.2 27.05 M12.8 -9.15 Q14.55 -8.9 13.5 -7.7 13.05 -7.15 12.35 -7.35 L12.2 -7.5 11.9 -7.8 11.85 -7.9 11.85 -8.2 11.85 -8.4 12.4 -8.9 12.8 -9.15 M15.95 11.2 L15.65 10.85 Q14.85 9.8 15.55 8.65 16.35 7.3 17.8 6.75 20.35 6.65 20.25 8.75 L20.2 8.7 Q19.7 9.9 18.55 9.75 17.25 9.55 16.65 10.8 16.05 10.8 15.95 11.2 M13.6 27.2 L13.8 26.75 13.75 26.7 13.65 26.4 Q13.6 25.85 14.1 25.55 L14.2 25.0 Q14.25 24.6 14.6 24.6 L14.65 24.6 15.1 24.3 Q15.6 24.2 16.0 24.55 L15.9 24.9 16.1 25.35 16.15 25.55 16.7 25.9 16.65 26.0 Q16.5 26.7 15.95 27.1 L15.65 27.35 13.6 27.2 M-12.0 21.25 Q-12.55 21.05 -12.55 20.5 -12.55 19.9 -12.0 19.6 L-11.55 19.5 Q-9.85 20.1 -11.3 21.1 L-12.0 21.25" fill="#006600" fill-rule="evenodd" stroke="none"/>
    <path d="M8.55 6.1 L8.85 5.95 9.0 5.9 9.15 5.85 9.15 5.8 9.45 5.65 10.1 5.4 10.3 5.7 10.4 6.45 Q10.3 6.95 9.8 7.05 L9.35 7.15 8.15 6.95 8.0 6.45 8.05 6.2 8.55 6.1 M0.25 5.25 L0.7 5.5 0.9 5.7 1.0 6.15 Q0.85 7.1 -0.15 7.3 L-1.8 7.1 -2.05 6.95 Q-2.85 7.0 -2.9 6.25 -2.9 5.85 -2.55 5.6 -1.9 5.0 -1.05 4.85 L-0.95 4.9 -0.75 4.95 -0.45 4.95 0.25 5.25" fill="#ffffff" fill-rule="evenodd" stroke="none"/>
    <path d="M5.5 8.75 L6.9 8.7 7.2 8.65 7.35 8.75 Q6.5 9.9 5.35 9.4 L2.95 9.05 Q2.5 8.65 2.7 7.95 L5.5 8.75 M4.9 10.95 Q6.5 10.45 8.1 11.45 5.65 13.3 2.65 12.35 L1.85 12.05 4.9 10.95" fill="#663300" fill-rule="evenodd" stroke="none"/>
  </g>
</svg>
