<?xml version="1.0" encoding="UTF-8" standalone="no"?>
<svg xmlns:xlink="http://www.w3.org/1999/xlink" height="107.55px" width="36.0px" xmlns="http://www.w3.org/2000/svg">
  <g transform="matrix(1.0, 0.0, 0.0, 1.0, 10.35, 9.4)">
    <path d="M10.0 -2.0 L9.85 -2.15 Q9.4 -2.2 9.1 -1.85 L8.4 -1.8 Q8.55 -2.45 9.3 -2.6 8.25 -4.1 6.75 -5.1 L6.6 -5.3 Q4.9 -7.6 2.3 -7.75 L-3.05 -8.55 Q-4.9 -8.5 -5.9 -7.15 L-6.55 -6.2 -7.5 -4.2 -5.65 -5.7 Q-6.1 -4.4 -7.05 -3.05 L-8.65 -0.4 -9.05 0.45 -9.1 0.6 Q-9.7 2.55 -9.05 4.5 L-9.0 4.75 -8.9 5.05 -8.9 5.0 Q-8.1 7.15 -6.8 9.1 L-5.35 10.75 -4.8 11.45 Q-3.75 12.9 -2.95 14.45 -1.5 17.4 -1.15 20.85 L-1.05 22.8 0.35 22.65 Q0.35 23.3 -0.1 23.3 L-0.95 23.4 Q-0.8 27.55 0.45 31.75 1.15 33.65 2.8 35.05 L3.7 35.75 4.6 36.4 6.1 37.4 Q6.5 37.85 6.55 38.45 L6.55 38.75 6.5 40.15 Q6.8 40.95 7.4 41.3 L7.4 41.0 7.4 40.85 7.4 40.7 Q7.4 39.6 7.55 38.5 L7.65 37.25 8.0 37.4 Q8.55 37.75 8.6 38.5 L8.75 39.35 9.05 40.3 Q9.1 41.75 9.65 43.15 11.1 43.35 12.25 42.8 L12.2 42.2 12.25 42.7 12.6 42.6 13.45 42.1 14.45 41.3 14.2 40.85 Q15.35 40.65 16.0 39.5 L16.5 38.4 16.65 37.8 16.75 37.85 16.8 37.8 Q17.35 35.6 16.5 33.3 L15.95 31.7 15.6 30.65 15.2 29.0 15.1 28.55 Q14.25 25.45 14.55 22.5 L15.7 24.85 Q16.9 21.15 15.1 18.1 L11.6 12.2 Q11.25 13.65 10.5 14.8 L10.3 15.1 10.3 14.45 11.1 9.5 11.2 9.1 11.4 8.5 Q12.55 5.3 11.85 1.8 L11.4 0.45 Q11.15 -0.3 10.3 0.05 L10.3 -0.2 Q10.55 -0.55 11.0 -0.4 L10.95 -0.55 10.45 -1.5 10.0 -2.0 M-5.5 -8.85 Q-0.35 -10.1 4.75 -8.6 4.9 -9.25 5.4 -9.4 5.65 -8.9 5.05 -8.5 5.8 -8.3 6.15 -7.5 6.5 -6.7 7.3 -7.35 6.6 -6.35 7.85 -5.65 10.1 -4.6 11.6 -2.25 12.15 -2.55 12.75 -2.65 L11.7 -1.95 Q12.65 -0.35 13.1 1.5 L13.7 1.35 Q13.9 1.1 14.15 1.5 12.75 1.6 13.1 3.0 13.4 4.4 13.1 5.55 L12.5 8.15 Q12.1 9.4 12.2 10.55 L16.65 17.85 17.55 17.6 Q16.65 18.4 17.15 19.6 17.6 20.75 17.45 21.95 L18.7 22.05 18.7 22.45 17.45 22.55 16.2 27.05 16.8 27.05 Q16.25 27.65 16.5 28.35 L16.9 29.8 Q17.5 29.85 17.7 30.35 L17.15 30.25 18.15 34.7 Q21.3 36.55 22.3 39.85 23.2 43.2 22.9 46.7 L22.55 47.85 Q26.4 52.4 25.45 58.65 L24.1 61.35 Q23.4 62.7 21.85 63.25 20.85 66.8 18.55 69.55 19.7 71.95 19.7 74.75 20.55 74.85 20.9 75.6 L21.75 76.9 Q22.4 78.5 22.35 80.45 L22.3 80.9 22.3 82.0 21.65 84.85 20.9 86.75 20.25 87.9 Q19.3 89.0 18.05 89.8 L15.7 91.15 15.4 91.9 Q13.15 95.9 8.85 97.35 L8.5 98.15 Q6.35 96.8 4.85 94.6 1.9 89.4 1.85 83.1 0.05 80.4 0.55 77.0 1.05 73.6 2.2 70.7 L3.6 68.75 2.75 66.45 Q0.85 66.3 0.15 64.75 -0.5 61.1 1.95 58.65 0.3 51.8 1.7 44.6 2.55 40.85 5.75 38.85 L5.75 38.3 1.7 35.45 Q-0.3 33.95 -0.9 31.4 L-1.15 31.4 Q-0.75 30.85 -1.0 30.35 L-1.35 29.35 Q-1.65 29.05 -1.9 29.1 L-1.9 28.85 -1.75 28.95 Q-1.5 27.45 -1.85 25.75 L-2.75 25.75 Q-1.7 24.95 -1.95 23.55 L-2.3 20.7 Q-2.8 20.6 -2.6 20.35 -2.35 20.1 -2.4 19.75 L-3.05 15.4 Q-6.35 12.1 -8.85 8.05 -10.0 6.25 -10.25 4.3 L-10.25 2.05 Q-10.1 0.65 -9.55 -0.8 -9.25 -1.7 -8.55 -2.45 -7.85 -3.25 -8.4 -4.25 L-7.55 -7.0 Q-6.9 -8.3 -5.5 -8.85 M9.8 7.55 L9.55 7.3 9.9 7.05 10.25 7.3 10.25 7.65 9.8 7.55 M10.35 4.65 L9.3 4.65 Q9.4 4.2 9.7 4.3 L10.3 4.2 10.35 4.15 11.05 4.25 11.05 4.65 10.35 4.65 M8.7 11.15 L8.95 10.75 9.15 11.15 8.7 11.15 M4.0 42.5 L3.95 42.5 3.6 42.65 Q3.25 42.9 3.15 43.3 L3.15 43.85 Q2.25 47.1 2.1 50.15 1.9 53.45 2.65 57.35 3.4 56.95 3.5 56.35 L3.45 56.6 Q4.3 57.0 4.85 56.3 L5.15 55.9 4.8 56.1 Q5.3 55.9 5.45 55.35 5.65 54.5 6.45 54.05 7.3 53.4 8.4 53.8 10.0 54.6 10.7 56.2 11.15 57.85 10.15 59.0 8.95 59.8 7.75 59.75 L7.75 59.65 8.35 59.35 8.55 59.3 9.1 58.8 9.15 58.6 9.65 58.3 Q10.1 57.55 9.95 56.55 9.4 54.85 7.55 54.4 6.5 54.65 6.1 55.65 7.55 55.4 8.55 56.55 8.95 57.35 8.75 58.1 L8.6 58.05 8.4 58.1 Q6.6 58.8 5.4 60.2 L5.3 60.35 4.9 61.0 4.15 62.15 3.55 63.35 3.2 64.05 Q3.1 64.3 3.15 64.5 L3.35 64.8 3.3 64.85 3.55 65.45 4.35 67.6 6.55 66.2 Q7.1 65.8 8.0 65.8 8.5 65.75 8.6 65.45 L8.8 65.45 9.7 65.5 10.6 65.45 9.85 65.45 Q12.9 65.35 15.35 66.65 16.85 67.4 18.15 68.65 19.95 66.0 20.7 62.95 L21.15 61.6 21.35 61.0 21.65 58.3 Q21.75 57.15 21.45 56.1 L20.85 54.0 20.65 53.35 Q20.5 52.7 19.95 52.25 L19.9 52.05 19.3 51.25 Q18.95 50.6 18.25 50.4 L18.55 50.95 17.2 48.65 Q16.6 46.6 18.25 45.6 20.1 45.3 21.8 46.7 L21.75 45.45 21.85 45.1 21.8 43.7 21.7 43.3 Q21.25 39.7 19.0 37.1 L18.5 36.55 17.9 36.0 Q17.75 39.55 15.4 41.95 L14.45 42.75 Q9.75 45.5 5.4 42.3 4.95 41.75 5.25 41.2 5.55 40.65 5.3 40.1 4.0 41.1 4.0 42.5 M16.95 52.65 L17.0 52.6 17.05 52.7 16.95 52.65 M21.45 48.1 Q20.8 46.45 18.9 46.6 18.3 47.05 18.25 47.85 18.15 48.85 18.8 49.35 L18.85 49.3 18.85 49.4 Q18.9 49.95 19.45 49.75 L19.5 49.75 19.4 49.9 20.35 51.4 Q20.55 51.95 21.0 52.15 L20.85 52.4 20.95 52.75 21.35 52.95 21.45 53.0 21.95 54.7 Q22.0 55.2 22.35 55.35 22.0 55.5 22.15 55.9 L22.25 56.05 22.3 56.05 22.5 58.4 22.7 58.45 Q22.4 58.65 22.5 59.0 22.5 60.65 22.05 62.15 23.65 60.65 24.1 58.9 L24.25 58.75 Q24.75 58.35 24.3 57.95 L24.2 57.95 24.25 57.9 Q24.7 56.6 24.4 55.2 L24.6 54.85 Q24.9 54.25 24.3 54.1 L24.25 54.15 24.1 53.3 Q23.55 52.25 23.35 51.35 L23.4 51.1 Q23.55 50.45 23.0 50.3 L22.85 50.35 22.85 50.15 22.0 49.05 22.15 48.7 22.0 48.35 21.45 48.05 21.45 48.1 M7.25 57.85 L7.3 57.85 8.0 57.4 Q7.5 56.35 6.25 56.45 L6.45 56.75 6.3 56.5 5.9 56.45 5.75 56.5 5.7 56.5 5.65 56.55 Q5.5 56.65 5.5 56.9 L5.05 56.8 Q4.25 57.2 3.9 57.95 L3.9 57.9 3.7 57.85 Q3.4 57.85 3.25 58.15 L3.25 58.3 3.3 58.3 2.3 59.8 2.4 60.0 2.2 59.9 Q2.0 59.9 1.9 60.05 1.75 60.15 1.85 60.3 L2.0 60.55 1.8 60.35 Q1.35 61.15 1.45 62.0 L1.25 61.95 1.1 62.1 Q0.95 62.45 1.1 62.8 L1.0 62.7 1.0 63.85 1.4 64.85 Q1.55 65.35 2.25 65.35 L2.45 63.6 2.9 63.25 2.9 62.9 2.85 62.8 2.8 62.85 3.2 62.15 3.45 61.6 Q4.1 61.6 3.95 60.95 L3.9 60.9 4.65 59.75 5.15 59.75 5.25 59.55 5.35 59.25 6.5 57.95 6.5 58.0 6.6 58.05 6.95 58.05 7.25 57.85 M6.0 61.9 L6.0 61.85 6.0 61.9 M18.7 75.0 Q18.6 71.65 16.8 69.1 L15.95 67.85 Q13.35 66.35 10.3 66.4 7.25 66.45 4.8 68.4 2.8 71.25 1.9 74.6 0.95 77.95 2.1 81.65 L2.35 80.2 2.15 81.25 2.15 81.4 2.6 82.5 3.1 82.8 Q2.9 85.05 3.3 87.3 4.0 91.85 6.9 95.5 L7.7 96.45 Q7.3 91.35 9.8 87.0 10.75 87.2 11.7 87.0 L11.75 87.0 11.85 87.0 14.65 85.65 15.55 84.8 Q15.75 85.15 16.15 85.05 16.1 86.0 15.7 86.8 L15.0 88.15 13.95 89.75 13.25 91.1 13.35 91.35 13.75 91.35 14.15 91.2 14.2 91.15 15.5 90.6 16.85 89.8 17.05 89.7 17.35 89.5 17.4 89.45 17.55 89.3 18.65 88.4 19.65 87.25 20.15 86.25 20.75 84.45 21.4 81.95 21.6 80.2 Q21.45 78.75 20.85 77.7 L19.9 76.3 19.25 75.55 19.15 75.7 18.95 75.15 Q18.85 75.0 18.7 75.0 M14.0 81.15 L13.8 81.75 13.95 81.15 14.0 81.15 M13.65 82.2 L13.25 83.15 13.4 82.75 13.5 82.6 13.55 82.4 13.65 82.2 M11.6 87.95 L10.55 88.05 Q8.55 91.75 8.7 95.65 10.0 93.9 10.55 91.9 L11.6 87.95 M18.6 82.85 L17.95 83.2 17.25 83.25 17.75 82.1 18.35 82.65 18.6 82.85" fill="#000000" fill-rule="evenodd" stroke="none"/>
    <path d="M-9.1 0.6 L-9.05 0.45 -8.65 -0.4 -7.05 -3.05 Q-6.1 -4.4 -5.65 -5.7 L-7.5 -4.2 -6.55 -6.2 -5.9 -7.15 Q-4.9 -8.5 -3.05 -8.55 L2.3 -7.75 Q4.9 -7.6 6.6 -5.3 L6.75 -5.1 Q8.25 -4.1 9.3 -2.6 8.55 -2.45 8.4 -1.8 L9.1 -1.85 Q9.4 -2.2 9.85 -2.15 L10.0 -2.0 10.3 -1.55 10.45 -1.5 10.95 -0.55 11.0 -0.4 Q10.55 -0.55 10.3 -0.2 L10.3 0.05 Q11.15 -0.3 11.4 0.45 L11.85 1.8 Q12.55 5.3 11.4 8.5 L11.2 9.1 11.1 9.5 10.3 14.45 10.3 15.1 10.5 14.8 Q11.25 13.65 11.6 12.2 L15.1 18.1 Q16.9 21.15 15.7 24.85 L14.55 22.5 Q14.25 25.45 15.1 28.55 L15.2 29.0 15.6 30.65 15.75 31.2 15.95 31.7 16.5 33.3 Q17.35 35.6 16.8 37.8 L16.6 37.75 16.65 37.8 16.5 38.4 16.0 39.5 Q15.35 40.65 14.2 40.85 13.5 39.4 13.6 37.8 L13.6 37.4 Q13.8 35.3 13.4 33.4 14.55 34.65 14.55 36.85 L14.7 37.0 15.25 34.95 Q14.75 32.2 13.8 29.5 13.6 29.05 13.55 28.6 13.1 26.05 13.65 23.6 L13.9 20.95 13.6 19.8 10.9 15.35 10.75 15.35 8.6 15.0 7.55 14.55 Q6.95 14.45 6.65 14.15 L6.75 13.85 6.55 14.3 6.3 14.3 6.35 14.25 6.4 13.9 Q6.15 13.45 6.2 12.85 6.25 12.35 6.6 12.0 L6.7 11.85 Q7.0 8.65 6.2 5.45 4.75 2.2 2.55 -0.3 1.6 -0.4 0.85 -1.25 0.65 -1.45 0.65 -1.75 L-0.15 -1.9 -0.35 -2.05 -1.05 -2.5 Q-2.2 -3.5 -3.8 -3.7 -6.25 -2.2 -8.2 -0.05 L-9.1 0.6 M13.45 42.1 L12.6 42.6 12.25 42.7 12.2 42.2 11.75 39.85 11.45 38.95 11.35 38.7 11.25 38.4 10.75 36.85 10.65 36.45 10.4 35.55 10.3 34.75 10.3 34.7 10.5 34.25 11.1 30.95 Q11.3 28.4 10.35 26.2 L9.95 25.35 Q8.6 22.9 8.4 20.05 L8.4 19.8 Q8.35 18.75 8.95 18.05 L9.15 18.45 9.35 18.8 9.35 18.85 10.2 20.95 Q12.25 23.65 12.5 27.5 12.75 31.25 11.35 34.4 13.3 38.2 13.15 42.35 L13.45 42.1 M-1.15 20.85 Q-1.5 17.4 -2.95 14.45 -3.75 12.9 -4.8 11.45 L-5.1 11.05 -5.25 10.6 -5.1 10.45 -5.1 10.4 Q-5.15 8.75 -4.3 7.45 -4.05 7.05 -3.65 7.05 L-3.55 7.1 -3.7 5.4 -3.7 4.3 -2.5 8.15 -2.25 9.05 Q-1.9 10.25 -1.15 11.35 L0.1 12.8 0.55 13.15 0.6 14.0 0.2 14.65 -0.65 14.15 Q-0.05 17.15 -0.95 20.3 L-1.0 20.7 -1.1 20.8 -1.15 20.85 M4.2 33.7 L6.65 35.65 6.75 35.55 Q7.1 35.8 6.85 36.1 L6.65 36.0 6.5 35.9 6.1 35.7 6.05 35.65 4.1 34.1 3.85 33.85 3.65 33.55 3.8 33.35 4.2 33.7 M-5.35 0.4 L-5.65 0.4 Q-6.2 -0.5 -5.65 -1.3 -5.15 -2.5 -3.95 -2.35 -3.7 -1.85 -3.95 -1.35 L-4.2 -0.4 Q-4.6 0.35 -5.35 0.4 M0.1 2.7 Q0.2 3.75 -0.7 4.1 -1.7 4.05 -1.95 3.15 -2.15 1.9 -1.5 0.95 -0.2 1.1 0.1 2.7 M10.3 4.2 Q9.9 2.7 9.15 1.35 8.05 -0.55 6.05 -1.1 L5.3 -1.45 4.4 -0.85 4.1 -0.65 4.35 -0.45 4.5 -0.25 Q5.8 1.0 6.65 2.55 L6.7 2.7 6.85 3.0 7.0 3.3 Q8.3 6.95 7.75 10.45 L8.15 10.05 Q9.35 9.05 9.8 7.55 L10.25 7.65 10.25 7.3 9.9 7.05 Q10.1 6.4 10.45 5.85 L10.4 6.5 10.35 4.65 11.05 4.65 11.05 4.25 10.35 4.15 10.3 4.2 M8.7 11.15 L9.15 11.15 8.95 10.75 8.7 11.15 M6.9 13.6 L7.0 13.45 6.95 13.4 6.9 13.6 M5.7 26.25 Q6.25 26.4 6.2 27.05 5.75 26.95 5.5 26.55 L5.7 26.25 M2.15 26.0 L2.2 25.65 Q2.65 25.8 2.85 26.5 L2.65 26.8 2.5 26.9 2.3 26.6 2.15 26.0 M5.4 30.5 Q5.65 29.55 5.95 30.25 L5.95 30.5 5.4 30.5 M8.4 34.95 Q7.4 34.45 7.0 33.45 L7.25 33.35 8.4 34.95 M12.75 18.75 Q12.4 19.35 11.6 19.2 11.85 18.6 12.75 18.75" fill="#71412f" fill-rule="evenodd" stroke="none"/>
    <path d="M10.0 -2.0 L10.45 -1.5 10.3 -1.55 10.0 -2.0 M15.6 30.65 L15.95 31.7 15.75 31.2 15.6 30.65 M8.75 39.35 L8.6 38.5 Q8.55 37.75 8.0 37.4 L8.0 37.3 8.05 37.15 10.75 36.85 11.25 38.4 11.35 38.7 11.45 38.95 11.75 39.85 11.7 39.85 11.5 39.95 11.35 40.1 9.25 40.0 9.2 39.95 8.75 39.35 M3.7 35.75 L2.8 35.05 Q1.15 33.65 0.45 31.75 -0.8 27.55 -0.95 23.4 L-0.1 23.3 Q0.35 23.3 0.35 22.65 L-1.05 22.8 -1.15 20.85 -1.1 20.8 -1.0 20.7 -1.0 20.65 Q0.3 18.65 2.35 17.55 L6.9 21.5 Q8.2 25.2 8.55 29.2 8.75 32.0 6.15 33.55 L4.2 33.7 3.8 33.35 3.65 33.55 3.85 33.85 Q3.25 34.25 3.4 35.05 L3.7 35.75 M-5.35 10.75 L-6.8 9.1 Q-8.1 7.15 -8.9 5.0 L-7.3 1.6 -5.9 1.45 -5.35 0.4 Q-4.6 0.35 -4.2 -0.4 L-3.95 -1.35 Q-3.7 -1.85 -3.95 -2.35 L-3.8 -3.35 Q-2.35 -3.2 -1.05 -2.5 L-0.35 -2.05 -0.15 -1.9 1.05 -0.7 Q2.8 1.35 4.15 3.7 4.6 5.4 4.6 7.25 4.6 8.45 3.75 9.3 L1.9 10.6 2.1 10.5 2.35 9.8 2.05 9.2 0.75 8.6 0.25 8.35 Q-1.0 7.2 -1.85 5.7 L-2.1 4.95 Q-2.2 3.85 -3.05 3.4 L-3.25 3.45 -3.3 3.45 -3.45 3.6 -3.7 4.3 -3.75 5.0 -3.7 5.4 -3.55 7.1 -3.65 7.05 Q-4.05 7.05 -4.3 7.45 -5.15 8.75 -5.1 10.4 L-5.1 10.45 -5.35 10.75 M1.45 10.85 L0.55 11.5 0.95 11.15 0.35 10.75 1.45 10.85 M-1.65 9.7 L-1.5 10.15 -1.65 9.7 M0.1 2.7 Q-0.2 1.1 -1.5 0.95 -2.15 1.9 -1.95 3.15 -1.7 4.05 -0.7 4.1 0.2 3.75 0.1 2.7 M6.9 13.6 L6.95 13.4 7.0 13.45 6.9 13.6 M2.3 26.6 L2.5 26.9 2.65 26.8 2.85 26.5 Q2.65 25.8 2.2 25.65 L2.15 26.0 1.8 24.6 1.85 24.55 Q2.05 23.7 1.15 23.7 0.6 24.25 0.6 25.15 0.55 27.2 1.0 29.15 L1.7 31.2 Q2.3 32.55 3.65 32.35 L4.05 31.45 Q4.15 30.85 3.9 30.4 L3.3 29.4 2.75 28.4 2.3 26.6 M5.7 26.25 L5.5 26.55 Q5.75 26.95 6.2 27.05 6.25 26.4 5.7 26.25 M5.4 30.5 L5.95 30.5 5.95 30.25 Q5.65 29.55 5.4 30.5" fill="#a35e43" fill-rule="evenodd" stroke="none"/>
    <path d="M14.2 40.85 L14.45 41.3 13.45 42.1 13.15 42.35 Q13.3 38.2 11.35 34.4 12.75 31.25 12.5 27.5 12.25 23.65 10.2 20.95 L9.35 18.85 9.35 18.8 9.15 18.45 8.95 18.05 Q8.35 18.75 8.4 19.8 L8.4 20.05 Q8.6 22.9 9.95 25.35 L10.35 26.2 Q11.3 28.4 11.1 30.95 L10.5 34.25 10.3 34.7 10.3 34.75 10.4 35.55 10.65 36.45 10.75 36.85 8.05 37.15 8.0 37.3 8.0 37.4 7.65 37.25 7.55 38.5 Q7.4 39.6 7.4 40.7 L7.4 40.85 7.4 41.0 7.4 41.3 Q6.8 40.95 6.5 40.15 L6.55 38.75 6.55 38.45 Q6.5 37.85 6.1 37.4 L4.6 36.4 3.7 35.75 3.4 35.05 Q3.25 34.25 3.85 33.85 L4.1 34.1 6.05 35.65 6.1 35.7 6.5 35.9 6.65 36.0 6.85 36.1 Q7.1 35.8 6.75 35.55 L6.65 35.65 4.2 33.7 6.15 33.55 Q8.75 32.0 8.55 29.2 8.2 25.2 6.9 21.5 L2.35 17.55 Q0.3 18.65 -1.0 20.65 L-1.0 20.7 -0.95 20.3 Q-0.05 17.15 -0.65 14.15 L0.2 14.65 0.6 14.0 0.55 13.15 0.1 12.8 -1.15 11.35 Q-1.9 10.25 -2.25 9.05 L-2.5 8.15 -2.4 8.3 -2.0 8.95 -1.7 9.65 -1.65 9.7 -1.7 9.6 -0.4 10.3 0.3 10.75 0.35 10.75 0.95 11.15 0.55 11.5 1.45 10.85 1.7 10.7 1.9 10.6 3.75 9.3 Q4.6 8.45 4.6 7.25 4.6 5.4 4.15 3.7 2.8 1.35 1.05 -0.7 L-0.15 -1.9 0.65 -1.75 Q0.65 -1.45 0.85 -1.25 1.6 -0.4 2.55 -0.3 4.75 2.2 6.2 5.45 7.0 8.65 6.7 11.85 L6.6 12.0 Q6.25 12.35 6.2 12.85 6.15 13.45 6.4 13.9 L6.35 14.25 6.3 14.3 6.55 14.3 6.75 13.85 6.65 14.15 Q6.95 14.45 7.55 14.55 L8.6 15.0 10.75 15.35 10.9 15.35 13.6 19.8 13.9 20.95 13.65 23.6 Q13.1 26.05 13.55 28.6 13.6 29.05 13.8 29.5 14.75 32.2 15.25 34.95 L14.7 37.0 14.55 36.85 Q14.55 34.65 13.4 33.4 13.8 35.3 13.6 37.4 L13.6 37.8 Q13.5 39.4 14.2 40.85 M12.2 42.2 L12.25 42.8 Q11.1 43.35 9.65 43.15 9.1 41.75 9.05 40.3 L8.75 39.35 9.2 39.95 9.25 40.0 11.35 40.1 11.5 39.95 11.7 39.85 11.75 39.85 12.2 42.2 M-4.8 11.45 L-5.35 10.75 -5.1 10.45 -5.25 10.6 -5.1 11.05 -4.8 11.45 M-8.9 5.0 L-8.9 5.05 -9.0 4.75 -9.05 4.5 Q-9.7 2.55 -9.1 0.6 L-8.2 -0.05 Q-6.25 -2.2 -3.8 -3.7 -2.2 -3.5 -1.05 -2.5 -2.35 -3.2 -3.8 -3.35 L-3.95 -2.35 Q-5.15 -2.5 -5.65 -1.3 -6.2 -0.5 -5.65 0.4 L-5.35 0.4 -5.9 1.45 -7.3 1.6 -8.9 5.0 M-1.65 9.7 L-1.5 10.15 -1.65 9.7 M9.8 7.55 Q9.35 9.05 8.15 10.05 L7.75 10.45 Q8.3 6.95 7.0 3.3 L6.85 3.0 6.7 2.7 6.65 2.55 Q5.8 1.0 4.5 -0.25 L4.35 -0.45 4.1 -0.65 4.4 -0.85 5.3 -1.45 6.05 -1.1 Q8.05 -0.55 9.15 1.35 9.9 2.7 10.3 4.2 L9.7 4.3 Q9.4 4.2 9.3 4.65 L10.35 4.65 10.4 6.5 10.45 5.85 Q10.1 6.4 9.9 7.05 L9.55 7.3 9.8 7.55 M8.4 34.95 L7.25 33.35 7.0 33.45 Q7.4 34.45 8.4 34.95 M12.75 18.75 Q11.85 18.6 11.6 19.2 12.4 19.35 12.75 18.75" fill="#91533c" fill-rule="evenodd" stroke="none"/>
    <path d="M1.9 10.6 L1.7 10.7 1.45 10.85 0.35 10.75 0.3 10.75 -0.4 10.3 -1.7 9.6 -1.65 9.7 -1.7 9.65 -2.0 8.95 -2.4 8.3 -2.5 8.15 -3.7 4.3 -3.7 5.4 -3.75 5.0 -3.7 4.3 -3.45 3.6 -3.3 3.45 -3.25 3.45 -3.05 3.4 Q-2.2 3.85 -2.1 4.95 L-1.85 5.7 Q-1.0 7.2 0.25 8.35 L0.75 8.6 2.05 9.2 2.35 9.8 2.1 10.5 1.9 10.6 M2.3 26.6 L2.75 28.4 3.3 29.4 3.9 30.4 Q4.15 30.85 4.05 31.45 L3.65 32.35 Q2.3 32.55 1.7 31.2 L1.0 29.15 Q0.55 27.2 0.6 25.15 0.6 24.25 1.15 23.7 2.05 23.7 1.85 24.55 L1.8 24.6 2.15 26.0 2.3 26.6" fill="#c58770" fill-rule="evenodd" stroke="none"/>
    <path d="M3.15 43.85 L3.15 43.3 Q3.25 42.9 3.6 42.65 L3.95 42.5 4.0 42.5 4.0 42.9 Q4.65 44.55 6.45 45.2 L6.65 45.3 7.0 45.5 7.05 45.5 8.15 45.8 Q9.2 46.0 8.95 47.25 L8.85 49.6 Q8.6 51.2 10.45 51.05 13.4 52.85 13.65 56.2 14.05 57.75 13.45 59.45 12.85 61.1 11.45 62.2 8.5 63.35 6.0 61.9 L5.95 61.85 Q4.35 62.95 3.35 64.8 L3.15 64.5 Q3.1 64.3 3.2 64.05 L3.55 63.35 4.15 62.15 4.9 61.0 5.3 60.35 5.4 60.2 Q6.6 58.8 8.4 58.1 L8.6 58.05 8.75 58.1 8.25 59.0 9.15 58.6 9.1 58.8 8.55 59.3 8.35 59.35 7.75 59.65 7.75 59.75 7.3 59.65 Q6.45 60.1 6.15 60.85 L6.3 60.95 Q8.05 62.15 10.45 61.7 11.95 61.1 12.65 59.55 13.15 57.7 12.85 55.75 12.55 53.8 11.3 52.55 8.45 50.65 5.55 52.35 4.0 54.05 4.25 56.2 L4.5 56.2 4.8 56.1 5.15 55.9 4.85 56.3 Q4.3 57.0 3.45 56.6 L3.5 56.35 3.5 56.1 3.5 56.0 Q3.35 55.2 3.55 54.25 4.05 53.1 4.95 52.1 L5.3 51.7 5.45 51.55 5.9 51.15 Q6.8 50.55 8.05 50.6 8.4 49.9 8.2 48.95 L8.15 47.0 Q7.05 46.0 5.45 45.4 3.8 44.8 3.35 43.15 L3.2 43.6 3.15 43.85 M21.7 43.3 L21.8 43.7 21.85 45.1 21.75 45.45 21.5 44.95 Q20.4 42.75 17.95 43.0 16.0 43.55 15.15 45.3 13.9 47.95 15.5 50.35 L15.6 50.5 Q16.25 51.1 17.05 51.1 L17.95 51.1 18.1 51.05 18.6 51.05 18.55 50.95 18.25 50.4 Q18.95 50.6 19.3 51.25 L19.9 52.05 19.95 52.25 Q20.5 52.7 20.65 53.35 L20.85 54.0 21.45 56.1 Q21.75 57.15 21.65 58.3 L21.35 61.0 21.15 61.6 20.7 62.95 21.0 61.65 21.0 61.45 21.25 59.3 21.25 59.2 21.25 59.05 20.0 54.85 18.15 55.3 16.3 55.6 Q16.5 57.2 16.2 58.7 15.55 60.65 14.4 62.65 L14.0 63.2 Q12.9 64.65 11.15 65.0 L10.2 65.1 Q9.75 65.0 9.4 65.45 L9.5 65.45 9.85 65.45 10.6 65.45 9.7 65.5 8.8 65.45 8.6 65.45 8.5 64.75 Q9.0 64.1 9.7 64.2 L11.0 64.15 11.4 64.0 11.55 63.95 Q13.35 63.2 14.2 61.55 L14.3 61.35 14.9 59.9 14.95 59.8 15.7 57.15 Q15.85 56.45 15.6 55.9 15.25 55.35 15.85 54.85 L17.7 54.9 18.1 54.8 19.1 54.5 19.65 54.25 Q19.35 53.4 18.7 52.9 L18.0 52.9 17.65 52.85 17.05 52.7 17.0 52.6 16.95 52.65 16.35 52.45 15.25 51.65 14.55 50.7 14.5 50.6 14.25 50.05 14.2 49.9 14.05 49.4 14.05 49.45 Q13.75 48.4 13.95 47.2 14.25 45.35 15.3 43.9 L15.75 43.4 16.0 43.2 16.05 43.15 16.35 42.9 16.4 42.85 Q17.45 42.15 18.85 42.15 20.4 42.45 21.7 43.9 L21.7 43.3 M6.0 61.9 L6.0 61.85 6.0 61.9 M18.7 75.0 Q18.85 75.0 18.95 75.15 L19.15 75.7 Q18.5 76.25 18.0 76.9 L17.7 77.35 17.1 78.5 16.95 78.9 16.55 80.4 16.35 81.95 16.25 83.15 16.15 84.95 16.15 85.05 Q15.75 85.15 15.55 84.8 15.95 84.1 15.75 82.95 15.2 82.0 15.15 80.8 15.45 77.25 18.3 75.3 L18.4 75.25 18.7 75.05 18.7 75.0 M11.75 87.0 L11.7 87.0 Q10.75 87.2 9.8 87.0 L10.4 86.0 11.6 84.4 11.7 84.3 Q12.55 83.3 12.9 82.15 L13.15 80.8 13.15 80.7 13.15 80.6 13.15 80.5 13.15 80.3 Q13.05 78.0 12.05 75.95 L10.6 73.85 Q9.8 72.8 8.4 72.9 6.7 73.1 5.95 74.45 L4.5 77.05 3.85 78.8 Q3.25 80.8 3.1 82.8 L2.6 82.5 2.15 81.4 2.15 81.25 2.35 80.2 5.3 73.45 5.5 73.15 5.9 72.55 6.2 72.2 8.1 70.95 10.1 70.8 Q13.4 72.05 13.9 75.9 14.7 78.6 14.0 81.15 L13.95 81.15 13.8 81.75 13.65 82.2 13.55 82.4 13.5 82.6 13.4 82.75 13.25 83.15 Q12.4 85.15 11.05 87.0 L11.75 87.0" fill="#363836" fill-rule="evenodd" stroke="none"/>
    <path d="M4.0 42.5 Q4.0 41.1 5.3 40.1 5.55 40.65 5.25 41.2 4.95 41.75 5.4 42.3 9.75 45.5 14.45 42.75 L15.4 41.95 15.9 43.0 14.8 43.9 Q13.95 44.55 12.95 44.9 10.15 45.95 7.05 45.5 L7.0 45.5 6.65 45.3 6.45 45.2 Q4.65 44.55 4.0 42.9 L4.0 42.5 M4.95 52.1 Q4.05 53.1 3.55 54.25 3.35 55.2 3.5 56.0 L3.5 56.1 3.5 56.35 3.3 56.05 3.25 55.7 Q2.25 52.6 2.8 49.35 L3.1 47.4 Q3.2 46.6 3.8 46.1 L4.2 45.9 5.0 45.95 5.1 46.65 5.15 49.3 4.95 52.05 4.95 52.1" fill="#cccccc" fill-rule="evenodd" stroke="none"/>
    <path d="M15.4 41.95 Q17.75 39.55 17.9 36.0 L18.5 36.55 19.0 37.1 Q18.8 40.5 16.4 42.85 L16.35 42.9 16.05 43.15 16.0 43.2 15.75 43.4 15.3 43.9 Q14.25 45.35 13.95 47.2 13.75 48.4 14.05 49.45 L14.05 49.85 14.2 49.9 14.25 50.05 14.5 50.6 14.55 50.7 15.25 51.65 16.35 52.45 16.95 52.65 17.05 52.7 17.65 52.85 18.0 52.9 Q18.3 53.25 18.1 53.7 18.3 54.3 18.1 54.8 L17.7 54.9 15.85 54.85 Q15.25 55.35 15.6 55.9 15.85 56.45 15.7 57.15 L14.95 59.8 14.9 59.9 14.3 61.35 14.2 61.55 Q13.35 63.2 11.55 63.95 L11.45 63.9 8.6 63.55 Q5.8 63.65 3.55 65.45 L3.3 64.85 3.35 64.8 Q4.35 62.95 5.95 61.85 L6.0 61.9 Q8.5 63.35 11.45 62.2 12.85 61.1 13.45 59.45 14.05 57.75 13.65 56.2 13.4 52.85 10.45 51.05 8.6 51.2 8.85 49.6 L8.95 47.25 Q9.2 46.0 8.15 45.8 L7.05 45.5 Q10.15 45.95 12.95 44.9 13.95 44.55 14.8 43.9 L15.9 43.0 15.4 41.95 M8.75 58.1 Q8.95 57.35 8.55 56.55 7.55 55.4 6.1 55.65 6.5 54.65 7.55 54.4 9.4 54.85 9.95 56.55 10.1 57.55 9.65 58.3 L9.15 58.6 8.25 59.0 8.75 58.1 M7.75 59.75 Q8.95 59.8 10.15 59.0 11.15 57.85 10.7 56.2 10.0 54.6 8.4 53.8 7.3 53.4 6.45 54.05 5.65 54.5 5.45 55.35 5.3 55.9 4.8 56.1 L4.5 56.2 4.25 56.2 Q4.0 54.05 5.55 52.35 8.45 50.65 11.3 52.55 12.55 53.8 12.85 55.75 13.15 57.7 12.65 59.55 11.95 61.1 10.45 61.7 8.05 62.15 6.3 60.95 L6.15 60.85 Q6.45 60.1 7.3 59.65 L7.75 59.75 M3.5 56.35 Q3.4 56.95 2.65 57.35 1.9 53.45 2.1 50.15 2.25 47.1 3.15 43.85 L3.2 43.6 3.35 43.15 Q3.8 44.8 5.45 45.4 7.05 46.0 8.15 47.0 L8.2 48.95 Q8.4 49.9 8.05 50.6 6.8 50.55 5.9 51.15 L5.45 51.55 5.3 51.7 4.95 52.1 4.95 52.05 5.15 49.3 5.1 46.65 5.0 45.95 4.2 45.9 3.8 46.1 Q3.2 46.6 3.1 47.4 L2.8 49.35 Q2.25 52.6 3.25 55.7 L3.3 56.05 3.5 56.35 M18.15 55.3 L17.45 59.55 Q17.05 61.3 16.25 62.9 L15.95 63.7 14.0 63.2 14.4 62.65 Q15.55 60.65 16.2 58.7 16.5 57.2 16.3 55.6 L18.15 55.3 M14.15 91.2 L13.75 91.35 13.35 91.35 13.25 91.1 13.95 89.75 15.0 88.15 15.7 86.8 Q16.1 86.0 16.15 85.05 L16.15 84.95 16.25 83.15 16.35 81.95 16.55 80.4 16.95 78.9 17.4 78.7 17.9 78.6 18.25 78.75 Q19.35 79.3 19.7 80.5 L19.8 81.2 19.7 82.65 19.35 84.6 19.2 84.8 19.15 85.0 18.95 85.8 18.4 86.95 18.15 87.35 16.2 89.75 14.4 91.0 14.15 91.2 M6.9 95.5 Q4.0 91.85 3.3 87.3 2.9 85.05 3.1 82.8 3.25 80.8 3.85 78.8 5.45 77.2 7.9 77.75 8.95 78.0 9.55 78.9 L10.0 79.85 9.95 79.95 Q8.85 81.75 8.1 83.7 L7.4 86.4 6.9 90.2 Q6.7 92.25 6.8 94.35 L6.9 95.5 M12.9 82.15 Q12.55 83.3 11.7 84.3 L12.25 83.55 12.35 83.4 12.9 82.15 M18.6 82.85 L18.35 82.65 17.75 82.1 17.25 83.25 17.95 83.2 18.6 82.85" fill="#999999" fill-rule="evenodd" stroke="none"/>
    <path d="M16.8 37.8 L16.75 37.85 16.65 37.8 16.6 37.75 16.8 37.8 M11.6 87.95 L10.55 91.9 Q10.0 93.9 8.7 95.65 8.55 91.75 10.55 88.05 L11.6 87.95" fill="#ffffff" fill-rule="evenodd" stroke="none"/>
    <path d="M19.0 37.1 Q21.25 39.7 21.7 43.3 L21.7 43.9 Q20.4 42.45 18.85 42.15 17.45 42.15 16.4 42.85 18.8 40.5 19.0 37.1 M21.75 45.45 L21.8 46.7 Q20.1 45.3 18.25 45.6 16.6 46.6 17.2 48.65 L18.55 50.95 18.6 51.05 18.1 51.05 17.95 51.1 17.05 51.1 Q16.25 51.1 15.6 50.5 L15.5 50.35 Q13.9 47.95 15.15 45.3 16.0 43.55 17.95 43.0 20.4 42.75 21.5 44.95 L21.75 45.45 M20.7 62.95 Q19.95 66.0 18.15 68.65 16.85 67.4 15.35 66.65 12.9 65.35 9.85 65.45 L9.5 65.45 9.4 65.45 Q9.75 65.0 10.2 65.1 L11.15 65.0 Q12.9 64.65 14.0 63.2 L15.95 63.7 16.25 62.9 Q17.05 61.3 17.45 59.55 L18.15 55.3 20.0 54.85 21.25 59.05 21.25 59.2 21.25 59.3 21.0 61.45 21.0 61.65 20.7 62.95 M8.6 65.45 Q8.5 65.75 8.0 65.8 7.1 65.8 6.55 66.2 L4.35 67.6 3.55 65.45 Q5.8 63.65 8.6 63.55 L11.45 63.9 11.4 64.0 11.0 64.15 9.7 64.2 Q9.0 64.1 8.5 64.75 L8.6 65.45 M18.0 52.9 L18.7 52.9 Q19.35 53.4 19.65 54.25 L19.1 54.5 18.1 54.8 Q18.3 54.3 18.1 53.7 18.3 53.25 18.0 52.9 M19.15 75.7 L19.25 75.55 19.9 76.3 20.85 77.7 Q21.45 78.75 21.6 80.2 L21.4 81.95 20.75 84.45 20.15 86.25 19.65 87.25 18.65 88.4 17.55 89.3 17.4 89.45 17.35 89.5 17.05 89.7 16.85 89.8 15.5 90.6 14.2 91.15 14.15 91.2 14.4 91.0 16.2 89.75 18.15 87.35 18.4 86.95 18.95 85.8 19.15 85.0 19.2 84.8 19.35 84.6 19.7 82.65 19.8 81.2 19.7 80.5 Q19.35 79.3 18.25 78.75 L17.9 78.6 17.4 78.7 16.95 78.9 17.1 78.5 17.7 77.35 18.0 76.9 Q18.5 76.25 19.15 75.7 M9.8 87.0 Q7.3 91.35 7.7 96.45 L6.9 95.5 6.8 94.35 Q6.7 92.25 6.9 90.2 L7.4 86.4 8.1 83.7 Q8.85 81.75 9.95 79.95 L10.0 79.85 9.55 78.9 Q8.95 78.0 7.9 77.75 5.45 77.2 3.85 78.8 L4.5 77.05 5.95 74.45 Q6.7 73.1 8.4 72.9 9.8 72.8 10.6 73.85 L12.05 75.95 Q13.05 78.0 13.15 80.3 L13.15 80.5 13.15 80.6 13.15 80.7 13.15 80.8 12.9 82.15 12.35 83.4 12.25 83.55 11.7 84.3 11.6 84.4 10.4 86.0 9.8 87.0" fill="#666666" fill-rule="evenodd" stroke="none"/>
    <path d="M18.85 49.3 L18.8 49.35 Q18.15 48.85 18.25 47.85 18.3 47.05 18.9 46.6 20.8 46.45 21.45 48.1 19.95 48.2 18.85 49.3 M22.0 49.05 L22.85 50.15 22.85 50.35 Q22.8 51.65 21.6 52.2 L21.0 52.15 Q20.55 51.95 20.35 51.4 L19.4 49.9 19.5 49.75 Q19.85 48.9 20.9 48.75 L22.0 49.05 M23.35 51.35 Q23.55 52.25 24.1 53.3 L24.25 54.15 23.95 54.75 23.6 55.1 23.55 55.15 23.45 55.2 22.35 55.35 Q22.0 55.2 21.95 54.7 L21.45 53.0 21.4 52.9 Q22.7 52.4 23.3 51.2 L23.35 51.35 M24.4 55.2 Q24.7 56.6 24.25 57.9 L24.2 57.95 Q23.5 58.65 22.7 58.45 L22.5 58.4 22.3 56.05 22.3 56.0 Q23.6 56.05 24.35 54.95 L24.4 55.2 M24.1 58.9 Q23.65 60.65 22.05 62.15 22.5 60.65 22.5 59.0 23.35 59.25 24.1 58.75 L24.1 58.9 M6.5 57.95 L5.35 59.25 5.25 59.35 3.9 57.95 Q4.25 57.2 5.05 56.8 L5.5 56.9 Q6.2 57.15 6.5 57.95 M4.65 59.75 L3.9 60.9 3.9 60.95 Q2.95 60.95 2.4 60.0 L2.3 59.8 3.3 58.3 3.35 58.25 Q4.15 58.6 4.7 59.4 L4.7 59.45 4.7 59.55 4.65 59.75 M3.45 61.6 L3.2 62.15 2.8 62.85 Q2.0 62.9 1.5 62.2 L1.45 62.0 Q1.35 61.15 1.8 60.35 L2.0 60.55 3.4 61.5 3.45 61.6 M2.45 63.6 L2.25 65.35 Q1.55 65.35 1.4 64.85 L1.0 63.85 1.0 62.7 1.1 62.8 Q1.7 63.35 2.5 63.5 L2.45 63.6 M6.45 56.75 L6.25 56.45 Q7.5 56.35 8.0 57.4 L7.3 57.85 7.25 57.85 6.65 57.0 6.45 56.75" fill="#009966" fill-rule="evenodd" stroke="none"/>
    <path d="M18.85 49.3 Q19.95 48.2 21.45 48.1 L21.45 48.05 22.0 48.35 22.15 48.7 22.0 49.05 20.9 48.75 Q19.85 48.9 19.5 49.75 L19.45 49.75 Q18.9 49.95 18.85 49.4 L18.85 49.3 M22.85 50.35 L23.0 50.3 Q23.55 50.45 23.4 51.1 L23.35 51.35 23.3 51.2 Q22.7 52.4 21.4 52.9 L21.35 52.95 20.95 52.75 20.85 52.4 21.0 52.15 21.6 52.2 Q22.8 51.65 22.85 50.35 M24.25 54.15 L24.3 54.1 Q24.9 54.25 24.6 54.85 L24.4 55.2 24.35 54.95 Q23.6 56.05 22.3 56.0 L22.25 56.05 22.15 55.9 Q22.0 55.5 22.35 55.35 L23.45 55.2 23.55 55.15 23.6 55.1 23.95 54.75 24.25 54.15 M24.2 57.95 L24.3 57.95 Q24.75 58.35 24.25 58.75 L24.1 58.9 24.1 58.75 Q23.35 59.25 22.5 59.0 22.4 58.65 22.7 58.45 23.5 58.65 24.2 57.95 M7.25 57.85 L6.95 58.05 6.6 58.05 6.5 58.0 6.5 57.95 Q6.2 57.15 5.5 56.9 5.5 56.65 5.65 56.55 L5.7 56.5 5.75 56.5 5.9 56.45 6.3 56.5 6.45 56.75 6.65 57.0 7.25 57.85 M5.35 59.25 L5.25 59.55 5.15 59.75 4.65 59.75 4.7 59.55 4.7 59.45 4.7 59.4 Q4.15 58.6 3.35 58.25 L3.25 58.3 3.25 58.15 Q3.4 57.85 3.7 57.85 L3.9 57.9 3.9 57.95 5.25 59.35 5.35 59.25 M3.9 60.9 L3.95 60.95 Q4.1 61.6 3.45 61.6 L3.4 61.5 2.0 60.55 1.85 60.3 Q1.75 60.15 1.9 60.05 2.0 59.9 2.2 59.9 L2.4 60.0 Q2.95 60.95 3.9 60.95 L3.9 60.9 M2.8 62.85 L2.85 62.8 2.9 62.9 2.9 63.25 2.45 63.6 2.5 63.5 Q1.7 63.35 1.1 62.8 0.95 62.45 1.1 62.1 L1.25 61.95 1.45 62.0 1.5 62.2 Q2.0 62.9 2.8 62.85" fill="#00cccc" fill-rule="evenodd" stroke="none"/>
    <path d="M14.05 49.45 L14.05 49.4 14.2 49.9 14.05 49.85 14.05 49.45 M11.55 63.95 L11.4 64.0 11.45 63.9 11.55 63.95 M2.35 80.2 L2.1 81.65 Q0.95 77.95 1.9 74.6 2.8 71.25 4.8 68.4 7.25 66.45 10.3 66.4 13.35 66.35 15.95 67.85 L16.8 69.1 Q18.6 71.65 18.7 75.0 L18.7 75.05 18.4 75.25 18.3 75.3 Q15.45 77.25 15.15 80.8 15.2 82.0 15.75 82.95 15.95 84.1 15.55 84.8 L14.65 85.65 11.85 87.0 11.75 87.0 11.05 87.0 Q12.4 85.15 13.25 83.15 L13.65 82.2 13.8 81.75 14.0 81.15 Q14.7 78.6 13.9 75.9 13.4 72.05 10.1 70.8 L8.1 70.95 6.2 72.2 5.9 72.55 5.5 73.15 5.3 73.45 2.35 80.2" fill="#4d4f4d" fill-rule="evenodd" stroke="none"/>
    <path d="M22.3 56.05 L22.25 56.05 22.3 56.0 22.3 56.05 M21.45 53.0 L21.35 52.95 21.4 52.9 21.45 53.0 M7.3 57.85 L7.25 57.85 7.3 57.85 M3.3 58.3 L3.25 58.3 3.35 58.25 3.3 58.3" fill="#cece6f" fill-rule="evenodd" stroke="none"/>
  </g>
</svg>
