<?xml version="1.0" encoding="UTF-8" standalone="no"?>
<svg xmlns:xlink="http://www.w3.org/1999/xlink" height="121.7px" width="46.05px" xmlns="http://www.w3.org/2000/svg">
  <g transform="matrix(1.0, 0.0, 0.0, 1.0, 11.15, 15.4)">
    <path d="M0.35 -7.5 L1.2 -7.6 Q5.5 -5.35 6.4 -0.8 L6.55 0.8 Q6.35 2.8 5.15 4.1 4.65 3.65 3.7 3.3 4.2 -0.65 2.5 -4.1 1.65 -5.8 0.0 -6.5 L-0.1 -6.5 -0.15 -5.7 -0.1 -6.65 0.35 -7.5 M0.95 12.4 L1.8 11.45 Q4.95 11.3 6.95 13.6 8.5 15.5 8.5 18.15 L7.05 17.9 5.65 17.3 Q4.7 16.55 4.1 15.4 3.05 13.2 0.95 12.4 M12.05 18.1 L12.8 18.45 Q13.65 20.3 13.45 22.35 L13.3 23.1 Q12.85 24.9 11.6 26.15 11.25 26.55 11.15 27.05 L2.5 28.05 -0.7 28.55 Q-1.8 27.7 -1.25 26.65 L0.9 24.95 0.95 25.0 Q0.6 25.95 1.15 26.8 1.75 27.75 2.5 27.85 3.25 27.95 4.1 27.2 L4.65 26.6 5.35 25.05 Q5.65 23.75 5.15 23.1 4.75 22.7 4.05 22.6 7.9 20.0 12.05 18.1 M0.35 29.85 Q1.25 29.2 2.45 29.25 L2.55 29.35 1.2 30.65 Q0.6 31.45 1.05 32.35 2.0 34.2 3.8 32.85 4.5 32.35 4.8 31.6 5.55 29.35 3.5 29.2 L4.95 28.85 12.4 27.95 11.0 28.05 11.55 28.45 12.65 29.35 Q13.1 30.5 13.1 31.8 13.05 33.4 12.45 34.95 L11.95 35.7 Q5.95 35.75 0.5 34.3 L0.4 34.0 Q-0.35 32.05 0.15 29.95 L0.35 29.85 M0.6 35.6 L0.65 35.6 1.75 35.75 Q0.5 36.65 1.8 37.8 L2.75 37.8 3.1 37.55 Q3.65 36.75 3.25 36.05 L3.25 36.0 11.85 36.9 Q12.1 37.15 12.5 37.25 L12.75 37.6 Q13.4 38.1 13.3 38.85 13.1 40.5 11.65 41.6 L11.35 41.9 9.6 41.5 Q3.85 40.2 -1.25 37.45 -1.25 36.1 -0.25 35.4 L0.6 35.6 M3.35 41.9 L3.9 41.6 5.4 42.0 5.45 42.05 6.3 42.7 Q6.95 43.35 7.05 44.25 L6.15 44.2 Q5.15 44.3 4.35 44.9 6.35 45.45 7.65 47.55 9.8 51.25 8.7 55.45 L8.6 56.45 Q8.85 60.2 5.6 61.8 L4.35 62.25 2.9 62.3 2.65 61.0 Q4.45 61.6 6.1 60.05 L7.25 58.3 Q7.95 55.8 8.05 53.15 8.1 48.85 4.8 46.35 4.4 46.0 3.9 45.95 L0.6 45.7 Q-0.75 45.65 -1.4 46.65 -1.25 45.65 0.0 45.35 L0.15 45.35 Q0.95 43.15 3.35 41.9 M11.7 69.75 L8.15 69.85 8.4 67.25 10.15 63.2 Q10.7 61.85 10.2 61.05 L11.4 62.25 11.85 63.4 Q12.25 66.5 11.7 69.75 M4.8 71.25 L4.8 71.3 Q4.25 72.95 5.45 73.45 L4.25 73.45 4.05 73.45 3.3 71.55 4.8 71.25 M6.9 70.95 Q8.7 70.75 10.6 71.0 L10.75 71.3 10.8 71.8 Q10.7 72.9 9.8 73.45 L6.75 73.45 6.95 73.25 Q7.4 72.6 7.0 71.95 L7.05 71.85 6.9 70.95 M8.05 77.8 L3.55 77.95 3.15 78.0 Q2.55 77.05 2.75 76.05 2.85 75.4 3.2 74.95 L3.55 74.9 3.85 74.85 Q3.7 77.55 6.25 77.3 6.9 76.9 7.0 76.15 7.15 75.15 6.9 74.45 L10.85 74.25 11.1 75.1 Q11.15 76.25 10.35 77.1 L9.55 77.85 8.05 77.8" fill="#666633" fill-rule="evenodd" stroke="none"/>
    <path d="M0.35 -7.5 L-0.1 -6.65 -0.15 -5.7 -0.1 -6.5 0.0 -6.5 Q1.65 -5.8 2.5 -4.1 4.2 -0.65 3.7 3.3 4.65 3.65 5.15 4.1 6.35 2.8 6.55 0.8 L6.4 -0.8 Q5.5 -5.35 1.2 -7.6 L0.35 -7.5 M12.15 7.05 Q13.1 11.3 12.85 15.95 10.7 17.05 8.6 18.35 L8.25 18.5 3.55 21.5 1.2 23.1 -1.05 24.8 -1.5 23.1 -1.9 21.8 Q-2.6 16.95 -5.15 12.75 -7.2 9.35 -8.7 5.85 L-9.4 4.05 Q-11.05 -0.3 -9.05 -5.6 L-8.7 -6.85 Q-8.05 -8.7 -6.5 -10.15 -4.5 -12.15 -2.05 -13.0 1.55 -14.05 4.75 -12.4 8.1 -7.2 10.35 -1.45 L12.15 7.05 M0.95 12.4 Q3.05 13.2 4.1 15.4 4.7 16.55 5.65 17.3 L7.05 17.9 8.5 18.15 Q8.5 15.5 6.95 13.6 4.95 11.3 1.8 11.45 L0.95 12.4 M-0.7 28.55 L2.5 28.05 11.15 27.05 Q11.25 26.55 11.6 26.15 12.85 24.9 13.3 23.1 L13.45 22.35 Q13.65 20.3 12.8 18.45 L12.05 18.1 Q13.3 17.45 14.7 16.95 15.45 19.15 15.5 21.55 L15.4 23.1 Q15.05 25.1 14.15 26.8 L14.05 27.7 14.0 27.85 14.05 27.85 14.7 31.95 Q14.4 32.85 14.6 33.95 14.7 34.7 14.25 35.25 14.4 36.2 13.6 36.95 L13.85 36.95 14.85 39.05 Q15.45 40.0 15.15 41.2 13.4 42.05 11.35 41.9 L11.65 41.6 Q13.1 40.5 13.3 38.85 13.4 38.1 12.75 37.6 L12.5 37.25 Q12.1 37.15 11.85 36.9 L3.25 36.0 2.35 35.85 1.75 35.75 0.65 35.6 0.6 35.6 0.55 35.5 Q0.25 35.35 0.2 35.0 0.15 34.45 0.4 34.0 L0.5 34.3 Q5.95 35.75 11.95 35.7 L12.45 34.95 Q13.05 33.4 13.1 31.8 13.1 30.5 12.65 29.35 L11.55 28.45 11.0 28.05 12.4 27.95 4.95 28.85 3.5 29.2 2.8 29.25 2.45 29.25 Q1.25 29.2 0.35 29.85 L-0.25 29.65 Q-0.7 29.4 -0.75 28.9 L-0.75 28.55 -0.7 28.55 M5.45 42.05 L6.35 42.15 7.8 42.5 8.2 42.65 Q10.7 42.8 12.25 44.65 13.2 45.8 13.2 47.3 L13.55 53.75 13.8 56.7 Q13.85 57.3 14.15 57.6 L14.2 56.75 Q13.85 63.2 13.05 69.65 L11.7 69.75 Q12.25 66.5 11.85 63.4 L11.4 62.25 10.2 61.05 Q10.7 61.85 10.15 63.2 L8.4 67.25 8.15 69.85 5.25 70.0 4.05 70.2 Q3.7 66.15 2.9 62.3 L4.35 62.25 5.6 61.8 Q8.85 60.2 8.6 56.45 L8.7 55.45 Q9.8 51.25 7.65 47.55 6.35 45.45 4.35 44.9 5.15 44.3 6.15 44.2 L7.05 44.25 Q6.95 43.35 6.3 42.7 L5.45 42.05 M2.65 61.0 L2.45 60.2 2.1 58.9 Q0.55 53.35 -2.05 48.3 L-1.05 44.65 -0.55 44.65 0.05 43.85 Q0.5 42.95 1.3 42.5 2.05 42.0 2.9 41.85 L3.35 41.9 Q0.95 43.15 0.15 45.35 L0.0 45.35 Q-1.25 45.65 -1.4 46.65 -0.75 45.65 0.6 45.7 L3.9 45.95 Q4.4 46.0 4.8 46.35 8.1 48.85 8.05 53.15 7.95 55.8 7.25 58.3 L6.1 60.05 Q4.45 61.6 2.65 61.0 M10.6 71.0 L13.7 71.55 14.05 72.45 13.85 73.1 13.3 73.35 13.65 73.2 Q14.25 73.7 13.85 74.45 L13.1 74.4 14.0 74.45 14.7 75.2 Q14.55 76.85 14.0 78.35 L8.05 77.8 9.55 77.85 10.35 77.1 Q11.15 76.25 11.1 75.1 L10.85 74.25 6.9 74.45 6.4 74.5 6.4 74.45 5.1 74.5 4.95 74.7 4.0 74.8 3.85 74.85 3.55 74.9 3.5 74.8 Q3.35 74.2 3.8 73.75 L4.0 73.6 4.25 73.45 5.45 73.45 6.75 73.45 9.8 73.45 Q10.7 72.9 10.8 71.8 L10.75 71.3 10.6 71.0 M2.75 76.05 Q2.8 75.5 3.15 74.95 L3.2 74.95 Q2.85 75.4 2.75 76.05" fill="#333300" fill-rule="evenodd" stroke="none"/>
    <path d="M7.05 -11.95 Q13.9 0.45 14.0 15.45 15.6 15.95 16.35 17.5 17.0 20.4 16.35 23.1 16.0 24.7 15.15 26.25 16.55 30.9 15.15 35.35 16.0 37.05 16.35 39.3 16.7 41.5 15.4 43.2 16.2 56.95 14.0 69.75 15.4 71.05 14.7 72.8 13.95 74.45 15.5 75.75 15.95 77.6 15.15 79.4 20.8 84.0 23.85 90.1 26.85 92.65 28.2 96.1 30.7 97.15 32.65 99.3 34.55 101.35 34.9 104.1 29.0 107.4 22.2 105.8 19.75 104.3 17.15 103.45 14.55 102.45 12.35 100.7 9.3 99.7 5.65 100.05 2.0 100.3 -0.1 97.7 -0.6 93.3 0.45 89.2 1.4 85.1 2.8 81.25 3.45 80.45 3.5 79.4 2.15 78.7 2.1 77.45 L1.6 74.95 Q1.75 74.0 2.7 73.45 2.7 61.9 -2.25 52.25 -3.3 49.05 -2.45 45.85 -1.55 42.7 -0.35 39.85 -1.4 39.2 -1.95 38.15 -2.65 37.15 -1.9 36.0 -1.4 34.85 -1.5 33.45 -1.75 32.0 -1.45 30.75 -0.7 29.9 -1.35 29.3 L-2.25 28.0 Q-1.75 26.3 -2.35 24.95 L-3.25 23.1 -3.65 22.25 Q-5.0 16.45 -8.05 11.35 L-8.7 10.3 Q-10.6 6.7 -11.15 2.65 L-11.15 -3.35 -11.0 -4.4 -10.85 -4.95 -10.75 -5.2 -10.7 -5.25 Q-10.15 -7.15 -8.85 -8.85 L-8.7 -9.15 Q-5.95 -12.85 -1.9 -14.9 L3.1 -15.2 Q5.6 -14.6 7.05 -11.95 M12.15 7.05 L10.35 -1.45 Q8.1 -7.2 4.75 -12.4 1.55 -14.05 -2.05 -13.0 -4.5 -12.15 -6.5 -10.15 -8.05 -8.7 -8.7 -6.85 L-9.05 -5.6 Q-11.05 -0.3 -9.4 4.05 L-8.7 5.85 Q-7.2 9.35 -5.15 12.75 -2.6 16.95 -1.9 21.8 L-1.5 23.1 -1.05 24.8 1.2 23.1 3.55 21.5 8.25 18.5 8.6 18.35 Q10.7 17.05 12.85 15.95 13.1 11.3 12.15 7.05 M-0.7 28.55 L-0.75 28.55 -0.75 28.9 Q-0.7 29.4 -0.25 29.65 L0.35 29.85 0.15 29.95 Q-0.35 32.05 0.4 34.0 0.15 34.45 0.2 35.0 0.25 35.35 0.55 35.5 L0.6 35.6 -0.25 35.4 Q-1.25 36.1 -1.25 37.45 3.85 40.2 9.6 41.5 L11.35 41.9 Q13.4 42.05 15.15 41.2 15.45 40.0 14.85 39.05 L13.85 36.95 13.6 36.95 Q14.4 36.2 14.25 35.25 14.7 34.7 14.6 33.95 14.4 32.85 14.7 31.95 L14.05 27.85 14.0 27.85 14.05 27.7 14.15 26.8 Q15.05 25.1 15.4 23.1 L15.5 21.55 Q15.45 19.15 14.7 16.95 13.3 17.45 12.05 18.1 7.9 20.0 4.05 22.6 L3.3 23.1 1.0 24.8 0.9 24.95 -1.25 26.65 Q-1.8 27.7 -0.7 28.55 M5.45 42.05 L5.4 42.0 3.9 41.6 3.35 41.9 2.9 41.85 Q2.05 42.0 1.3 42.5 0.5 42.95 0.05 43.85 L-0.55 44.65 -1.05 44.65 -2.05 48.3 Q0.55 53.35 2.1 58.9 L2.45 60.2 2.65 61.0 2.9 62.3 Q3.7 66.15 4.05 70.2 L5.25 70.0 8.15 69.85 11.7 69.75 13.05 69.65 Q13.85 63.2 14.2 56.75 L14.15 57.6 Q13.85 57.3 13.8 56.7 L13.55 53.75 13.2 47.3 Q13.2 45.8 12.25 44.65 10.7 42.8 8.2 42.65 L7.8 42.5 6.35 42.15 5.45 42.05 M0.5 40.65 L1.3 40.25 0.8 40.0 0.5 40.65 M14.35 43.55 L14.35 43.4 14.25 43.4 14.35 43.55 M4.85 71.25 L4.8 71.25 3.3 71.55 4.05 73.45 4.25 73.45 4.0 73.6 3.8 73.75 Q3.35 74.2 3.5 74.8 L3.55 74.9 3.2 74.95 3.15 74.95 Q2.8 75.5 2.75 76.05 2.55 77.05 3.15 78.0 L3.55 77.95 8.05 77.8 14.0 78.35 Q14.55 76.85 14.7 75.2 L14.0 74.45 13.1 74.4 13.85 74.45 Q14.25 73.7 13.65 73.2 L13.3 73.35 13.85 73.1 14.05 72.45 13.7 71.55 10.6 71.0 Q8.7 70.75 6.9 70.95 L4.85 71.25 M6.4 74.5 L4.95 74.7 5.1 74.5 6.4 74.45 6.4 74.5 M11.2 79.0 L4.5 79.6 2.35 86.1 Q0.75 89.8 3.55 92.35 L5.1 94.05 5.05 94.05 5.65 95.05 Q6.5 96.55 6.7 98.3 L10.95 98.85 Q10.85 95.9 12.75 94.05 L13.3 93.55 15.85 92.6 23.9 92.2 Q20.0 84.75 13.3 79.0 L11.2 79.0 M1.15 96.35 L1.15 97.2 Q2.9 98.65 5.2 98.2 5.2 96.95 4.75 95.8 L3.65 93.9 Q2.75 92.6 1.5 91.75 1.15 93.95 1.15 96.35 M13.7 94.8 L13.4 94.95 Q11.7 96.85 12.4 99.4 14.4 101.0 16.75 102.0 17.0 100.7 17.5 99.55 L18.4 98.35 19.0 97.85 19.7 97.45 19.75 97.45 21.75 97.15 Q24.65 97.4 27.3 97.05 27.3 95.95 26.6 95.2 L25.0 93.5 Q21.95 93.4 18.95 93.55 L17.9 93.6 Q15.7 93.8 13.7 94.8 M21.2 98.3 L19.65 98.55 Q18.05 99.8 17.75 101.95 20.7 105.0 25.0 104.85 L33.2 104.1 34.2 103.25 Q32.05 99.8 28.25 98.3 L23.8 98.15 23.75 98.15 21.2 98.3" fill="#000000" fill-rule="evenodd" stroke="none"/>
    <path d="M2.8 29.25 L3.5 29.2 Q5.55 29.35 4.8 31.6 4.5 32.35 3.8 32.85 2.0 34.2 1.05 32.35 0.6 31.45 1.2 30.65 L2.55 29.35 2.8 29.25 M1.75 35.75 L2.35 35.85 3.25 36.05 Q3.65 36.75 3.1 37.55 L2.75 37.8 1.8 37.8 Q0.5 36.65 1.75 35.75 M4.05 22.6 Q4.75 22.7 5.15 23.1 5.65 23.75 5.35 25.05 L4.65 26.6 4.1 27.2 Q3.25 27.95 2.5 27.85 1.75 27.75 1.15 26.8 0.6 25.95 0.95 25.0 L1.0 24.95 1.0 24.8 3.3 23.1 4.05 22.6 M4.8 71.3 L4.85 71.25 6.9 70.95 7.05 71.85 7.0 71.95 Q7.4 72.6 6.95 73.25 L6.75 73.45 5.45 73.45 Q4.25 72.95 4.8 71.3 M3.85 74.85 L4.0 74.8 4.95 74.7 6.4 74.5 6.9 74.45 Q7.15 75.15 7.0 76.15 6.9 76.9 6.25 77.3 3.7 77.55 3.85 74.85" fill="#999999" fill-rule="evenodd" stroke="none"/>
    <path d="M2.45 29.25 L2.8 29.25 2.55 29.35 2.45 29.25 M2.35 35.85 L3.25 36.0 3.25 36.05 2.35 35.85 M0.95 25.0 L0.9 24.95 1.0 24.8 1.0 24.95 0.95 25.0 M4.8 71.25 L4.85 71.25 4.8 71.3 4.8 71.25" fill="#666666" fill-rule="evenodd" stroke="none"/>
    <path d="M14.35 43.55 L14.25 43.4 14.35 43.4 14.35 43.55 M0.5 40.65 L0.8 40.0 1.3 40.25 0.5 40.65" fill="#333333" fill-rule="evenodd" stroke="none"/>
    <path d="M11.2 79.0 Q14.25 79.95 16.5 82.15 L17.65 83.55 19.7 86.0 19.75 86.3 Q20.1 87.4 20.75 88.5 L21.15 89.55 21.1 89.95 15.95 91.4 15.95 91.95 Q16.0 89.65 13.3 87.9 L13.2 87.65 Q12.55 86.25 10.85 86.5 L10.7 86.7 Q8.3 89.3 11.35 91.6 L11.65 92.05 12.0 93.1 Q9.75 94.45 7.15 94.85 L5.9 94.35 Q5.5 94.1 5.1 94.05 L3.55 92.35 Q0.75 89.8 2.35 86.1 L4.5 79.6 11.2 79.0 M7.1 82.85 Q6.0 82.45 5.25 83.4 4.05 85.1 4.75 87.15 5.1 88.8 6.7 89.0 8.95 87.5 8.45 84.5 8.2 83.3 7.1 82.85" fill="#333366" fill-rule="evenodd" stroke="none"/>
    <path d="M15.95 91.95 L15.95 91.4 21.1 89.95 21.15 89.55 20.75 88.5 Q20.1 87.4 19.75 86.3 L19.7 86.0 17.65 83.55 16.5 82.15 Q14.25 79.95 11.2 79.0 L13.3 79.0 Q20.0 84.75 23.9 92.2 L15.85 92.6 15.95 91.95 M5.1 94.05 Q5.5 94.1 5.9 94.35 L7.15 94.85 Q9.75 94.45 12.0 93.1 L12.75 94.05 Q10.85 95.9 10.95 98.85 L6.7 98.3 Q6.5 96.55 5.65 95.05 L5.05 94.05 5.1 94.05" fill="#000033" fill-rule="evenodd" stroke="none"/>
    <path d="M12.0 93.1 L11.65 92.05 11.35 91.6 Q8.3 89.3 10.7 86.7 L10.85 86.5 Q12.55 86.25 13.2 87.65 L13.3 87.9 Q16.0 89.65 15.95 91.95 L15.85 92.6 13.3 93.55 12.75 94.05 12.0 93.1 M7.55 84.75 Q7.9 86.9 6.6 88.15 5.0 86.5 5.75 84.1 7.1 82.9 7.55 84.75 M3.65 93.9 L4.75 95.8 Q5.2 96.95 5.2 98.2 2.9 98.65 1.15 97.2 L1.15 96.35 2.2 96.35 Q2.7 96.25 2.85 95.85 L3.65 93.9 M18.4 98.35 L17.5 99.55 Q17.0 100.7 16.75 102.0 14.4 101.0 12.4 99.4 11.7 96.85 13.4 94.95 L13.7 94.8 13.5 95.2 Q12.65 97.4 15.1 97.75 16.6 99.05 18.4 98.35 M17.9 93.6 L18.95 93.55 Q21.95 93.4 25.0 93.5 L26.6 95.2 Q27.3 95.95 27.3 97.05 24.65 97.4 21.75 97.15 L19.75 97.45 20.05 97.0 Q21.05 95.45 19.6 94.35 18.85 93.7 17.9 93.6 M23.8 98.15 L28.25 98.3 Q32.05 99.8 34.2 103.25 L33.2 104.1 25.0 104.85 Q20.7 105.0 17.75 101.95 18.05 99.8 19.65 98.55 L21.2 98.3 20.5 98.85 Q20.1 99.1 20.0 99.55 19.25 102.05 21.9 102.95 L24.0 103.75 Q26.15 104.6 27.5 103.25 28.0 102.9 27.8 102.4 26.95 98.75 23.8 98.15" fill="#336699" fill-rule="evenodd" stroke="none"/>
    <path d="M7.55 84.75 Q7.1 82.9 5.75 84.1 5.0 86.5 6.6 88.15 7.9 86.9 7.55 84.75 M7.1 82.85 Q8.2 83.3 8.45 84.5 8.95 87.5 6.7 89.0 5.1 88.8 4.75 87.15 4.05 85.1 5.25 83.4 6.0 82.45 7.1 82.85 M1.15 96.35 Q1.15 93.95 1.5 91.75 2.75 92.6 3.65 93.9 L2.85 95.85 Q2.7 96.25 2.2 96.35 L1.15 96.35 M13.7 94.8 Q15.7 93.8 17.9 93.6 18.85 93.7 19.6 94.35 21.05 95.45 20.05 97.0 L19.75 97.45 19.7 97.45 19.0 97.85 18.4 98.35 Q16.6 99.05 15.1 97.75 12.65 97.4 13.5 95.2 L13.7 94.8 M21.2 98.3 L23.75 98.15 23.8 98.15 Q26.95 98.75 27.8 102.4 28.0 102.9 27.5 103.25 26.15 104.6 24.0 103.75 L21.9 102.95 Q19.25 102.05 20.0 99.55 20.1 99.1 20.5 98.85 L21.2 98.3" fill="#9999ff" fill-rule="evenodd" stroke="none"/>
  </g>
</svg>
