<?xml version="1.0" encoding="UTF-8" standalone="no"?>
<svg xmlns:xlink="http://www.w3.org/1999/xlink" height="54.6px" width="34.45px" xmlns="http://www.w3.org/2000/svg">
  <g transform="matrix(1.0, 0.0, 0.0, 1.0, 13.85, 27.0)">
    <path d="M-2.5 13.8 Q-2.95 13.05 -4.2 13.1 L-4.4 13.2 -4.6 13.25 -4.7 13.4 -4.8 13.4 -5.1 13.6 -5.5 14.2 -5.75 15.05 Q-6.5 13.0 -6.75 10.55 -9.15 10.8 -11.45 11.4 L-10.1 7.85 -9.5 6.65 Q-8.35 4.2 -10.4 2.05 L-10.55 -0.9 Q-12.55 -2.15 -13.35 -4.05 L-13.4 -6.4 Q-13.05 -8.15 -11.45 -9.25 -10.8 -9.9 -10.85 -10.8 -12.55 -12.65 -13.85 -14.55 L-10.2 -17.45 -10.2 -18.0 -10.25 -19.7 -10.55 -24.8 -6.75 -24.45 -5.8 -23.9 -0.2 -23.9 Q1.6 -25.2 3.55 -26.3 5.35 -27.45 7.65 -26.75 L10.7 -24.7 13.05 -25.75 Q13.85 -25.75 14.5 -26.2 L14.8 -26.35 15.1 -25.25 14.95 -24.15 14.95 -23.15 15.0 -21.85 Q14.95 -21.0 15.55 -20.55 15.85 -20.35 16.25 -20.25 L17.65 -19.8 19.05 -18.95 Q20.95 -18.1 20.5 -15.85 16.6 -13.9 16.1 -9.55 16.2 -8.3 17.4 -7.6 18.2 -7.15 18.1 -6.4 L17.8 -5.5 Q15.6 -3.4 15.25 -0.7 L15.05 -0.4 14.95 0.0 14.75 0.5 14.8 0.65 15.2 1.3 15.35 1.85 15.35 2.45 15.55 3.45 Q15.35 4.0 15.45 4.6 L14.6 6.7 14.4 7.65 13.8 9.35 13.55 10.0 13.45 10.35 13.05 11.25 12.7 12.35 12.4 12.8 11.85 14.65 10.9 15.8 10.55 15.95 9.4 16.5 9.0 16.6 Q8.15 17.05 8.5 17.85 L8.5 17.95 8.55 19.15 8.7 19.6 8.45 22.7 Q7.9 25.1 9.25 27.2 L8.6 26.65 8.55 26.65 8.55 26.6 8.0 25.85 7.8 25.3 7.55 24.4 Q8.1 20.75 7.65 17.2 6.4 17.1 5.45 16.3 L4.9 15.65 3.05 13.1 2.95 12.9 3.05 13.05 5.35 15.35 5.45 15.45 5.7 15.6 8.5 15.75 Q10.95 15.25 11.75 13.0 L11.85 12.6 Q12.55 10.5 13.4 8.7 L13.6 7.85 14.6 4.45 Q15.0 3.0 14.65 1.75 L14.35 0.8 14.0 0.2 Q12.45 0.5 11.95 -0.75 11.7 -1.75 12.05 -2.35 L12.8 -3.0 13.05 -3.15 Q14.45 -3.0 15.25 -3.9 14.8 -5.15 13.9 -4.45 12.95 -3.7 11.95 -3.75 13.15 -5.1 15.0 -5.95 L15.05 -6.4 15.2 -7.1 Q15.5 -9.3 15.1 -11.75 L14.75 -12.9 14.6 -13.25 14.05 -14.2 14.05 -14.25 14.0 -14.3 Q13.1 -14.1 12.3 -13.55 L10.75 -13.65 10.6 -13.8 10.3 -13.6 Q9.65 -13.05 8.9 -12.8 L7.3 -12.75 6.8 -12.85 6.45 -13.6 Q5.8 -14.55 4.7 -13.9 L4.55 -13.8 4.3 -13.7 3.05 -13.25 1.75 -13.15 Q0.45 -13.2 -0.5 -13.85 L-0.75 -13.95 -1.1 -14.2 -2.6 -14.75 -2.65 -14.75 -2.7 -14.55 -2.7 -14.45 -2.7 -14.4 -2.7 -14.35 -2.9 -13.3 -3.25 -10.6 -3.7 -6.4 -3.75 -4.85 Q-3.2 -4.25 -3.6 -3.45 -5.1 -2.8 -6.75 -3.0 L-7.0 -3.1 Q-8.8 -3.5 -9.85 -2.05 L-9.7 0.6 Q-9.75 1.9 -8.65 2.85 L-6.9 4.2 Q-6.05 4.95 -4.9 4.75 L-2.75 7.85 -1.75 10.0 -1.55 10.55 -1.2 12.35 Q-1.05 14.15 -1.75 16.05 -1.9 18.2 -2.55 20.35 -3.5 21.15 -4.55 21.6 L-5.35 21.9 -5.45 21.9 Q-5.35 20.95 -4.4 20.45 L-2.75 19.25 -2.65 16.65 -2.3 15.25 Q-2.2 14.55 -2.35 14.15 L-2.3 13.8 -2.5 13.8 M14.0 -23.5 L13.65 -24.3 13.55 -24.55 13.45 -24.55 13.4 -24.55 12.35 -24.3 11.4 -23.85 11.05 -23.6 11.05 -22.7 10.7 -15.05 13.3 -14.9 Q14.6 -15.75 15.85 -16.15 L16.55 -15.5 15.3 -14.95 Q15.2 -13.45 15.85 -12.25 L17.7 -14.95 Q18.95 -15.6 19.4 -16.85 L18.6 -17.45 16.15 -19.25 14.5 -20.4 14.15 -20.7 14.0 -20.8 Q13.65 -21.7 13.95 -22.7 L14.0 -23.5 M5.05 -23.1 Q4.5 -21.9 5.55 -21.25 6.0 -20.85 6.45 -21.35 6.85 -21.9 7.4 -22.1 7.95 -22.65 8.95 -22.45 9.8 -22.2 9.75 -23.25 9.2 -24.85 7.85 -24.95 L7.4 -24.95 Q5.65 -24.8 5.05 -23.1 M7.75 -21.45 L7.25 -21.05 7.1 -20.95 6.9 -20.75 Q6.15 -19.8 6.65 -18.6 L9.75 -18.85 9.95 -21.05 Q8.9 -22.1 7.75 -21.45 M4.3 -25.7 Q2.9 -25.4 1.75 -24.05 1.95 -23.65 2.3 -23.3 L2.8 -23.0 Q3.25 -22.75 4.0 -22.6 4.85 -24.35 6.35 -25.65 L5.25 -25.8 4.85 -25.8 4.3 -25.7 M-8.75 -18.8 L-8.7 -17.65 Q-9.2 -16.5 -10.25 -15.95 L-10.75 -15.75 -10.8 -15.65 -11.25 -15.4 -11.85 -14.85 -12.05 -14.65 -12.2 -14.5 -11.65 -13.8 -10.35 -12.2 -10.25 -12.15 Q-9.85 -11.65 -9.8 -11.05 -9.75 -10.4 -10.15 -9.6 L-7.55 -9.8 Q-6.45 -9.8 -5.9 -8.8 -5.4 -7.8 -4.65 -7.25 L-3.5 -15.1 -5.2 -16.9 -4.95 -17.15 0.35 -14.8 Q1.7 -14.2 3.05 -14.3 4.5 -14.4 5.9 -15.3 L5.15 -18.7 Q3.4 -22.7 -0.8 -22.7 L-0.85 -22.7 -3.2 -22.75 -6.85 -23.05 -7.6 -23.15 -7.65 -23.15 -8.9 -23.3 -9.15 -23.15 -8.75 -18.8 M7.55 -18.15 L6.85 -17.45 Q6.7 -16.45 7.2 -15.75 L9.05 -16.0 Q10.15 -15.8 9.75 -17.25 L9.1 -18.05 8.85 -18.15 8.5 -18.2 8.4 -18.25 8.35 -18.25 8.0 -18.25 7.55 -18.15 M9.0 -15.05 L8.15 -15.3 7.95 -15.2 7.95 -15.1 7.35 -14.55 7.2 -14.15 Q7.35 -13.3 8.35 -13.55 9.3 -13.75 9.1 -14.95 L9.0 -15.05 M3.05 -6.65 L3.45 -6.4 3.6 -6.2 Q4.7 -5.2 6.1 -5.05 L6.1 -4.5 Q4.5 -4.4 3.05 -5.45 L2.45 -6.0 2.0 -6.4 1.35 -6.65 0.25 -6.5 0.05 -6.4 -0.45 -5.95 -1.1 -5.15 -1.45 -5.15 -0.7 -6.4 -0.5 -6.55 Q0.1 -7.15 1.15 -7.4 1.15 -7.4 1.25 -7.35 L1.35 -7.35 2.05 -7.15 3.05 -6.65 M1.9 -4.5 L3.05 -4.45 4.35 -4.1 4.5 -4.0 4.55 -3.95 4.6 -3.9 6.0 -2.9 7.5 -2.4 7.85 -2.1 7.8 -2.1 7.75 -2.1 7.5 -2.1 Q6.45 -2.05 6.15 -0.9 5.7 0.4 4.25 -0.15 L3.05 -0.6 1.6 -0.95 0.9 -1.0 Q0.15 -1.05 -0.2 -1.5 -0.7 -2.1 -0.4 -3.4 L-0.35 -3.65 -0.1 -3.8 1.05 -4.35 1.7 -4.45 1.9 -4.5 M10.25 4.75 L10.3 4.8 10.25 4.8 10.25 4.75 M2.05 -3.85 L0.75 -3.55 Q-0.05 -3.3 0.05 -2.55 0.15 -1.45 1.3 -1.5 L1.75 -1.5 Q1.2 -1.7 1.25 -2.3 1.35 -3.2 2.3 -3.1 3.1 -2.8 2.85 -2.0 L2.4 -1.35 3.05 -1.15 3.55 -1.0 Q4.25 -0.5 5.25 -0.6 L5.8 -0.95 Q6.2 -1.35 6.1 -1.85 L5.7 -2.3 4.7 -2.85 Q3.95 -3.4 3.05 -3.7 L2.05 -3.85 M13.55 -0.4 Q13.05 -0.35 12.85 -0.8 12.45 -1.55 13.15 -1.85 L13.35 -1.9 13.5 -1.85 Q14.35 -1.7 14.05 -0.8 L13.8 -0.5 13.55 -0.4 M12.8 -2.4 Q12.55 -2.25 12.45 -1.9 L12.4 -1.65 Q12.25 -0.7 13.05 -0.4 13.4 -0.2 13.7 -0.4 L14.25 -0.5 Q14.75 -0.5 15.0 -1.0 L15.15 -1.9 Q15.15 -2.75 14.35 -2.75 L12.8 -2.4 M17.15 -6.4 L17.15 -6.6 Q16.8 -7.2 16.2 -7.2 L16.2 -4.35 Q17.15 -5.15 17.15 -6.4 M1.6 6.6 Q1.6 6.15 1.85 5.65 L3.1 4.35 Q3.4 6.1 5.35 6.25 7.3 6.3 8.6 7.25 5.8 7.0 3.05 6.2 L2.65 6.1 Q2.05 6.5 2.3 7.05 L2.35 7.85 2.35 8.05 2.15 7.85 1.7 7.1 1.6 6.65 1.6 6.6 M9.65 9.45 Q9.65 10.1 9.05 10.55 7.95 10.65 7.45 9.9 7.3 8.9 8.3 8.3 9.45 8.35 9.65 9.45 M8.45 8.8 L8.35 8.75 8.2 8.75 8.0 8.9 Q7.8 9.3 7.95 9.45 L8.0 9.6 Q8.35 10.4 9.1 10.0 9.4 9.75 9.3 9.35 9.15 8.7 8.45 8.8 M7.5 13.6 L7.9 14.15 8.05 14.25 9.0 14.3 9.3 14.1 Q10.05 13.6 9.65 12.75 L9.0 12.3 8.0 12.25 8.0 12.3 7.9 12.3 7.85 12.35 7.65 12.55 7.55 12.85 7.45 13.35 7.5 13.6 M10.2 13.2 Q10.05 14.4 8.75 14.8 7.5 14.85 6.85 13.8 6.95 12.35 8.3 11.95 9.7 11.9 10.2 13.2 M3.15 25.15 L3.05 25.2 2.65 25.35 Q1.25 23.0 0.9 20.05 2.15 22.4 3.05 24.9 L3.15 25.15 M-9.75 -7.8 L-9.35 -8.75 -11.15 -8.5 -11.65 -6.4 -11.65 -5.7 Q-11.25 -4.05 -9.7 -4.35 -10.1 -5.35 -10.0 -6.4 L-10.0 -6.7 -9.75 -7.8 M-11.9 -5.2 L-11.9 -5.95 Q-11.8 -6.85 -12.65 -6.85 -13.15 -6.6 -13.1 -5.95 L-13.1 -5.7 -12.95 -4.6 -12.9 -4.4 -12.8 -4.05 -12.55 -3.4 -11.95 -2.9 -11.85 -2.9 -11.3 -2.95 -11.2 -3.0 -10.85 -2.95 -10.9 -3.25 -10.85 -3.3 -10.8 -3.35 -10.8 -3.65 -10.8 -3.7 -11.1 -4.05 -11.15 -4.1 -11.75 -4.75 -11.9 -5.2 M-8.25 -8.35 L-8.9 -7.7 -9.1 -7.05 -9.15 -6.4 Q-9.15 -5.55 -8.65 -4.75 -7.35 -4.5 -6.95 -5.5 L-6.55 -6.4 -6.0 -7.25 Q-6.3 -8.35 -7.3 -8.5 L-8.25 -8.35 M-6.15 -4.95 L-6.15 -4.5 Q-5.45 -3.75 -4.35 -3.9 L-4.75 -5.15 -5.65 -6.1 -5.7 -6.05 -5.75 -6.0 -5.8 -5.95 Q-6.15 -5.55 -6.15 -4.95 M-8.05 -1.55 L-8.1 -1.5 -8.05 -1.45 -8.2 -1.6 -8.05 -1.55 M-7.95 9.45 L-6.45 9.05 Q-5.2 9.9 -5.45 11.6 L-5.3 12.8 -4.25 12.25 Q-3.65 11.8 -2.95 11.7 L-2.2 11.8 -2.2 10.6 -3.85 7.85 -4.3 6.95 Q-5.2 4.85 -7.85 5.1 L-8.25 6.5 -9.45 9.85 -7.95 9.45" fill="#000000" fill-rule="evenodd" stroke="none"/>
    <path d="M11.4 -23.85 L12.35 -24.3 13.4 -24.55 13.45 -24.55 13.55 -24.55 13.65 -24.3 14.0 -23.5 13.6 -23.25 13.1 -22.65 Q12.75 -21.35 11.45 -21.95 10.95 -22.15 11.1 -22.7 L11.4 -23.85 M14.15 -20.7 L14.5 -20.4 16.15 -19.25 18.6 -17.45 18.4 -17.45 14.55 -17.3 14.25 -17.55 14.1 -17.95 14.25 -18.1 13.1 -17.05 Q12.9 -16.85 12.5 -16.9 L12.0 -17.3 Q11.65 -18.65 12.7 -19.65 L14.15 -20.7 M-3.2 -22.75 L-2.0 -22.7 Q-1.65 -22.2 -1.85 -21.9 L0.1 -21.45 Q1.25 -21.0 0.9 -19.9 L1.55 -19.7 1.75 -19.65 3.05 -19.1 Q4.0 -18.6 4.6 -17.65 L4.65 -17.2 Q4.25 -16.05 3.05 -16.65 2.65 -16.85 2.35 -17.0 L-0.65 -18.2 -1.2 -18.35 -3.1 -18.9 -3.4 -19.15 -3.55 -19.7 -3.55 -20.0 -5.4 -20.2 Q-5.65 -20.2 -5.75 -20.35 L-5.8 -20.45 -6.5 -20.45 -7.35 -20.75 -7.05 -19.95 -6.7 -19.7 Q-6.0 -19.05 -6.9 -18.2 L-7.95 -18.15 -8.75 -18.8 -9.15 -23.15 -8.9 -23.3 -7.65 -23.15 -7.6 -23.15 -6.85 -23.05 -3.2 -22.75 M-10.75 -15.65 L-8.1 -15.6 -7.9 -15.45 Q-7.15 -14.35 -8.35 -14.2 L-9.3 -14.0 -8.45 -12.8 Q-8.15 -12.45 -8.15 -12.0 -8.25 -10.6 -9.65 -11.0 L-9.8 -11.05 Q-9.85 -11.65 -10.25 -12.15 L-10.35 -12.2 -11.65 -13.8 -12.2 -14.5 -12.05 -14.65 -11.85 -14.85 -11.25 -15.4 -10.8 -15.65 -10.75 -15.65 M-8.25 6.5 L-7.95 6.15 Q-6.45 6.1 -6.75 7.55 -6.85 8.2 -7.35 8.7 L-7.95 9.45 -9.45 9.85 -8.25 6.5" fill="#993366" fill-rule="evenodd" stroke="none"/>
    <path d="M-2.5 13.8 L-2.3 13.8 -2.35 14.15 -2.5 13.8 M11.4 -23.85 L11.1 -22.7 11.05 -22.7 11.05 -23.6 11.4 -23.85 M-10.75 -15.75 L-10.75 -15.65 -10.8 -15.65 -10.75 -15.75" fill="#660033" fill-rule="evenodd" stroke="none"/>
    <path d="M11.1 -22.7 Q10.95 -22.15 11.45 -21.95 12.75 -21.35 13.1 -22.65 L13.6 -23.25 14.0 -23.5 13.95 -22.7 Q13.65 -21.7 14.0 -20.8 L14.15 -20.7 12.7 -19.65 Q11.65 -18.65 12.0 -17.3 L12.5 -16.9 Q12.9 -16.85 13.1 -17.05 L14.25 -18.1 14.1 -17.95 14.25 -17.55 14.55 -17.3 18.4 -17.45 18.6 -17.45 19.4 -16.85 Q18.95 -15.6 17.7 -14.95 L15.85 -12.25 Q15.2 -13.45 15.3 -14.95 L16.55 -15.5 15.85 -16.15 Q14.6 -15.75 13.3 -14.9 L10.7 -15.05 11.05 -22.7 11.1 -22.7 M-8.75 -18.8 L-7.95 -18.15 -6.9 -18.2 Q-6.0 -19.05 -6.7 -19.7 L-7.05 -19.95 -7.35 -20.75 -6.5 -20.45 -5.8 -20.45 -5.75 -20.35 Q-5.65 -20.2 -5.4 -20.2 L-3.55 -20.0 -3.55 -19.7 -3.4 -19.15 -3.1 -18.9 -1.2 -18.35 -0.65 -18.2 2.35 -17.0 Q2.65 -16.85 3.05 -16.65 4.25 -16.05 4.65 -17.2 L4.6 -17.65 Q4.0 -18.6 3.05 -19.1 L1.75 -19.65 1.55 -19.7 0.9 -19.9 Q1.25 -21.0 0.1 -21.45 L-1.85 -21.9 Q-1.65 -22.2 -2.0 -22.7 L-3.2 -22.75 -0.85 -22.7 -0.8 -22.7 Q3.4 -22.7 5.15 -18.7 L5.9 -15.3 Q4.5 -14.4 3.05 -14.3 1.7 -14.2 0.35 -14.8 L-4.95 -17.15 -5.2 -16.9 -3.5 -15.1 -4.65 -7.25 Q-5.4 -7.8 -5.9 -8.8 -6.45 -9.8 -7.55 -9.8 L-10.15 -9.6 Q-9.75 -10.4 -9.8 -11.05 L-9.65 -11.0 Q-8.25 -10.6 -8.15 -12.0 -8.15 -12.45 -8.45 -12.8 L-9.3 -14.0 -8.35 -14.2 Q-7.15 -14.35 -7.9 -15.45 L-8.1 -15.6 -10.75 -15.65 -10.75 -15.75 -10.25 -15.95 Q-9.2 -16.5 -8.7 -17.65 L-8.75 -18.8 M17.15 -6.4 Q17.15 -5.15 16.2 -4.35 L16.2 -7.2 Q16.8 -7.2 17.15 -6.6 L17.15 -6.4 M-8.25 6.5 L-7.85 5.1 Q-5.2 4.85 -4.3 6.95 L-3.85 7.85 -2.2 10.6 -2.2 11.8 -2.95 11.7 Q-3.65 11.8 -4.25 12.25 L-5.3 12.8 -5.45 11.6 Q-5.2 9.9 -6.45 9.05 L-7.95 9.45 -7.35 8.7 Q-6.85 8.2 -6.75 7.55 -6.45 6.1 -7.95 6.15 L-8.25 6.5" fill="#660000" fill-rule="evenodd" stroke="none"/>
    <path d="M-6.75 -3.0 Q-5.1 -2.8 -3.6 -3.45 -3.2 -4.25 -3.75 -4.85 L-3.7 -6.4 -3.25 -10.6 -2.9 -13.3 -2.7 -14.35 -2.7 -14.4 -2.7 -14.45 -2.7 -14.55 -2.6 -14.75 -1.1 -14.2 -0.7 -13.85 -0.75 -13.95 -0.5 -13.85 Q0.45 -13.2 1.75 -13.15 L3.05 -13.25 4.3 -13.7 4.55 -13.8 4.7 -13.8 4.7 -13.9 Q5.8 -14.55 6.45 -13.6 L6.8 -12.85 7.3 -12.75 8.9 -12.8 Q9.65 -13.05 10.3 -13.6 L10.75 -13.65 12.3 -13.55 Q13.1 -14.1 14.0 -14.3 L14.05 -14.25 14.05 -14.2 14.6 -13.25 14.75 -12.9 14.6 -12.85 Q12.0 -11.8 9.2 -11.9 8.9 -11.1 7.85 -11.4 L5.35 -12.0 3.05 -12.25 -0.05 -12.35 Q-0.15 -12.35 -0.25 -12.45 L-0.3 -12.6 -0.35 -12.55 Q-0.95 -11.5 -1.85 -10.65 L-2.85 -9.75 -3.15 -9.4 -3.15 -9.35 -3.15 -8.2 -3.15 -6.4 -3.1 -6.25 -2.9 -5.3 -2.9 -5.2 -3.0 -4.6 -3.0 -4.4 -3.0 -4.3 -3.1 -3.8 -3.3 -3.35 -3.4 -3.3 -3.5 -3.1 Q-3.45 -2.1 -4.2 -1.55 L-4.75 -1.55 -5.25 -1.85 -5.8 -2.1 -6.3 -2.4 -6.35 -2.45 -6.75 -3.0 M12.05 -2.35 Q11.7 -1.75 11.95 -0.75 12.45 0.5 14.0 0.2 L14.35 0.8 14.1 0.95 14.05 1.0 Q13.45 1.65 12.6 1.5 L12.0 1.35 11.45 1.1 11.1 1.0 10.55 -0.8 10.35 -1.2 10.3 -1.8 10.5 -2.15 10.95 -2.1 11.45 -2.2 11.6 -2.25 11.9 -2.35 12.05 -2.35 M7.75 -2.1 L7.85 -1.9 8.15 -1.55 8.05 -1.65 8.0 -1.7 8.0 -1.5 8.15 -0.1 8.2 0.2 7.8 0.75 6.75 1.15 6.25 1.25 5.95 1.3 5.85 1.35 Q4.5 2.05 3.05 1.7 L2.45 1.5 2.45 1.45 1.35 0.95 1.4 0.7 0.95 0.75 Q-0.05 0.7 -0.5 -0.05 L-0.55 -0.15 -1.25 -1.75 -1.3 -2.95 -1.05 -3.35 -0.7 -3.55 -0.4 -3.4 Q-0.7 -2.1 -0.2 -1.5 0.15 -1.05 0.9 -1.0 L1.6 -0.95 3.05 -0.6 4.25 -0.15 Q5.7 0.4 6.15 -0.9 6.45 -2.05 7.5 -2.1 L7.75 -2.1 M7.05 3.95 Q8.95 4.0 10.25 4.75 L10.25 4.8 9.85 4.95 9.7 5.0 9.75 5.0 10.8 4.75 10.8 4.8 Q11.15 5.15 11.05 5.65 L8.3 5.15 6.65 5.1 Q6.5 4.65 6.9 4.45 L7.05 3.95 M-8.05 -1.45 L-8.1 -1.5 -8.05 -1.55 -7.8 -1.5 Q-6.8 -1.35 -6.35 -0.5 L-5.95 0.35 Q-5.65 1.0 -5.6 1.75 -5.5 2.55 -6.25 2.9 L-6.75 2.95 -7.4 2.45 -7.95 1.65 -8.4 0.6 -8.35 -0.45 -8.45 -0.75 -8.15 -1.35 -8.1 -1.45 -8.05 -1.45" fill="#ad7a3f" fill-rule="evenodd" stroke="none"/>
    <path d="M7.85 -24.95 L7.95 -24.1 7.5 -23.35 7.25 -23.05 6.85 -22.8 Q6.5 -21.9 5.6 -22.25 5.05 -22.5 5.05 -23.1 5.65 -24.8 7.4 -24.95 L7.85 -24.95 M6.9 -20.75 L7.1 -20.95 7.25 -21.05 7.75 -21.45 Q8.85 -21.4 8.55 -20.25 L8.35 -19.75 Q7.2 -19.3 6.95 -20.4 L6.9 -20.75 M4.3 -25.7 Q4.5 -25.4 4.3 -24.8 4.1 -24.05 3.4 -23.6 L2.4 -23.25 2.3 -23.3 Q1.95 -23.65 1.75 -24.05 2.9 -25.4 4.3 -25.7 M9.1 -18.05 L9.3 -17.85 9.3 -17.75 Q9.4 -17.25 9.0 -16.9 8.3 -16.55 7.75 -17.05 7.25 -17.5 7.55 -18.15 L8.0 -18.25 8.35 -18.25 8.4 -18.25 8.5 -18.2 8.85 -18.15 9.1 -18.05 M7.35 -14.55 L7.95 -15.1 7.95 -15.2 8.15 -15.3 9.0 -15.05 8.95 -14.45 8.7 -13.95 Q7.55 -13.6 7.35 -14.55 M-10.0 -6.7 L-10.05 -6.65 Q-11.2 -6.25 -11.4 -7.3 -11.55 -7.9 -11.1 -8.25 L-11.0 -8.3 -10.85 -8.35 Q-9.9 -8.4 -9.75 -7.8 L-10.0 -6.7 M-12.95 -4.6 L-13.1 -5.7 -13.1 -5.95 Q-13.15 -6.6 -12.65 -6.85 -11.8 -6.85 -11.9 -5.95 L-11.9 -5.2 -11.95 -5.15 -12.1 -4.85 -12.2 -4.75 -12.95 -4.6 M-9.1 -7.05 L-8.9 -7.7 -8.25 -8.35 Q-7.5 -8.35 -7.4 -7.55 -7.3 -7.0 -7.65 -6.6 -8.65 -6.2 -9.1 -7.05 M-4.75 -5.15 L-5.15 -4.9 -6.15 -4.95 Q-6.15 -5.55 -5.8 -5.95 L-5.75 -6.0 -5.7 -6.05 -5.65 -6.1 -4.75 -5.15" fill="#ff3300" fill-rule="evenodd" stroke="none"/>
    <path d="M5.05 -23.1 Q5.05 -22.5 5.6 -22.25 6.5 -21.9 6.85 -22.8 L7.25 -23.05 7.5 -23.35 7.95 -24.1 7.85 -24.95 Q9.2 -24.85 9.75 -23.25 9.8 -22.2 8.95 -22.45 7.95 -22.65 7.4 -22.1 6.85 -21.9 6.45 -21.35 6.0 -20.85 5.55 -21.25 4.5 -21.9 5.05 -23.1 M6.9 -20.75 L6.95 -20.4 Q7.2 -19.3 8.35 -19.75 L8.55 -20.25 Q8.85 -21.4 7.75 -21.45 8.9 -22.1 9.95 -21.05 L9.75 -18.85 6.65 -18.6 Q6.15 -19.8 6.9 -20.75 M2.3 -23.3 L2.4 -23.25 3.4 -23.6 Q4.1 -24.05 4.3 -24.8 4.5 -25.4 4.3 -25.7 L4.85 -25.8 5.25 -25.8 6.35 -25.65 Q4.85 -24.35 4.0 -22.6 3.25 -22.75 2.8 -23.0 L2.3 -23.3 M7.55 -18.15 Q7.25 -17.5 7.75 -17.05 8.3 -16.55 9.0 -16.9 9.4 -17.25 9.3 -17.75 L9.3 -17.85 9.1 -18.05 9.75 -17.25 Q10.15 -15.8 9.05 -16.0 L7.2 -15.75 Q6.7 -16.45 6.85 -17.45 L7.55 -18.15 M9.0 -15.05 L9.1 -14.95 Q9.3 -13.75 8.35 -13.55 7.35 -13.3 7.2 -14.15 L7.35 -14.55 Q7.55 -13.6 8.7 -13.95 L8.95 -14.45 9.0 -15.05 M-10.0 -6.7 L-10.0 -6.4 Q-10.1 -5.35 -9.7 -4.35 -11.25 -4.05 -11.65 -5.7 L-11.65 -6.4 -11.15 -8.5 -9.35 -8.75 -9.75 -7.8 Q-9.9 -8.4 -10.85 -8.35 L-11.0 -8.3 -11.1 -8.25 Q-11.55 -7.9 -11.4 -7.3 -11.2 -6.25 -10.05 -6.65 L-10.0 -6.7 M-12.95 -4.6 L-12.2 -4.75 -12.1 -4.85 -11.95 -5.15 -11.9 -5.2 -11.75 -4.75 -11.15 -4.1 -11.1 -4.05 -10.8 -3.7 -10.8 -3.65 -10.8 -3.35 -10.85 -3.3 -10.9 -3.25 -10.85 -2.95 -11.2 -3.0 -11.3 -2.95 -11.85 -2.9 -11.95 -2.9 -12.55 -3.4 -12.8 -4.05 -12.9 -4.4 -12.95 -4.6 M-8.25 -8.35 L-7.3 -8.5 Q-6.3 -8.35 -6.0 -7.25 L-6.55 -6.4 -6.95 -5.5 Q-7.35 -4.5 -8.65 -4.75 -9.15 -5.55 -9.15 -6.4 L-9.1 -7.05 Q-8.65 -6.2 -7.65 -6.6 -7.3 -7.0 -7.4 -7.55 -7.5 -8.35 -8.25 -8.35 M-4.75 -5.15 L-4.35 -3.9 Q-5.45 -3.75 -6.15 -4.5 L-6.15 -4.95 -5.15 -4.9 -4.75 -5.15" fill="#993300" fill-rule="evenodd" stroke="none"/>
    <path d="M-5.35 21.9 L-4.55 21.6 Q-3.5 21.15 -2.55 20.35 -1.9 18.2 -1.75 16.05 -1.05 14.15 -1.2 12.35 L-0.1 12.45 Q0.95 13.4 2.3 13.95 L2.35 14.0 3.05 14.65 4.25 15.6 4.65 16.0 4.75 16.05 4.8 16.1 4.9 16.15 5.45 16.3 Q6.4 17.1 7.65 17.2 8.1 20.75 7.55 24.4 L7.8 25.3 7.75 25.3 8.0 25.85 8.55 26.6 8.55 26.65 8.6 26.65 7.95 27.05 3.05 27.6 1.7 27.45 0.25 27.05 Q-1.4 26.35 -2.9 25.3 L-5.15 23.45 Q-5.85 22.7 -5.4 21.9 L-5.35 21.9 M-2.7 -14.35 L-2.7 -14.4 -2.7 -14.35 M-2.7 -14.55 L-2.65 -14.75 -2.6 -14.75 -2.7 -14.55 M4.55 -13.8 L4.7 -13.9 4.7 -13.8 4.55 -13.8 M10.3 -13.6 L10.6 -13.8 10.75 -13.65 10.3 -13.6 M14.75 -12.9 L15.1 -11.75 Q15.5 -9.3 15.2 -7.1 L14.15 -6.7 10.25 -4.35 8.9 -4.4 8.75 -4.45 8.7 -4.5 8.6 -4.55 8.5 -4.6 7.35 -5.7 6.95 -6.0 5.0 -7.7 Q4.1 -8.45 3.05 -8.6 L2.05 -8.65 0.95 -8.45 1.05 -8.1 -0.2 -12.2 -0.25 -12.45 Q-0.15 -12.35 -0.05 -12.35 L3.05 -12.25 5.35 -12.0 7.85 -11.4 Q8.9 -11.1 9.2 -11.9 12.0 -11.8 14.6 -12.85 L14.75 -12.9 M14.35 0.8 L14.65 1.75 Q15.0 3.0 14.6 4.45 L13.6 7.85 13.4 8.7 Q12.55 10.5 11.85 12.6 L11.75 13.0 Q10.95 15.25 8.5 15.75 L5.7 15.6 6.15 15.9 6.15 15.85 Q6.4 15.35 6.15 14.85 5.4 13.55 4.1 12.7 L3.35 11.95 3.1 11.75 3.05 11.7 2.0 9.2 1.75 7.7 1.7 7.3 1.75 7.55 1.6 7.5 Q0.75 7.1 -0.2 7.0 L-0.45 6.85 -1.3 6.25 Q-1.95 5.85 -2.2 5.05 L-2.3 4.65 Q-2.45 3.75 -1.45 3.75 -0.35 3.75 0.65 4.2 L1.2 4.45 1.25 3.75 1.3 2.55 1.35 0.95 2.45 1.45 2.45 1.5 3.05 1.7 Q4.5 2.05 5.85 1.35 L5.95 1.3 6.25 1.25 6.75 1.15 7.8 0.75 8.2 0.2 8.3 2.85 6.85 3.25 Q6.55 3.5 6.7 3.95 L6.9 4.4 7.05 3.95 6.9 4.45 Q6.5 4.65 6.65 5.1 L8.3 5.15 11.05 5.65 Q11.15 5.15 10.8 4.8 L10.8 4.75 11.15 4.75 11.3 2.3 11.1 1.0 11.45 1.1 12.0 1.35 12.6 1.5 Q13.45 1.65 14.05 1.0 L14.1 0.95 14.35 0.8 M6.85 -9.0 L7.65 -8.6 7.85 -8.15 8.0 -7.8 8.15 -7.6 Q8.2 -7.3 8.4 -7.1 9.6 -5.5 11.1 -6.7 11.5 -7.05 12.0 -7.2 13.1 -7.5 13.25 -8.45 L13.0 -8.95 Q11.95 -9.5 10.8 -8.7 10.15 -8.25 9.55 -8.05 L8.6 -9.2 Q7.75 -10.1 6.25 -10.05 L6.2 -10.0 6.15 -10.0 6.0 -9.95 5.9 -9.95 5.9 -9.85 5.85 -9.8 5.85 -9.7 5.9 -9.6 5.95 -9.5 6.85 -9.0 M2.05 -7.15 L2.45 -7.0 3.0 -6.95 3.05 -6.85 3.15 -6.7 3.1 -6.65 3.05 -6.65 2.05 -7.15 M6.0 -2.9 L6.5 -2.7 6.85 -2.65 7.35 -2.45 7.5 -2.4 6.0 -2.9 M8.15 -1.55 L8.55 -1.35 8.05 -1.65 8.15 -1.55 M10.3 -1.8 L10.25 -2.0 10.3 -2.05 10.4 -2.2 10.95 -2.1 10.5 -2.15 10.3 -1.8 M1.7 -4.45 L1.6 -4.65 1.9 -4.5 1.7 -4.45 M9.65 9.45 Q9.45 8.35 8.3 8.3 7.3 8.9 7.45 9.9 7.95 10.65 9.05 10.55 9.65 10.1 9.65 9.45 M1.6 6.6 L1.6 6.65 1.7 7.1 2.15 7.85 2.35 8.05 2.35 7.85 2.3 7.05 Q2.05 6.5 2.65 6.1 L3.05 6.2 Q5.8 7.0 8.6 7.25 7.3 6.3 5.35 6.25 3.4 6.1 3.1 4.35 L1.85 5.65 Q1.6 6.15 1.6 6.6 M10.2 13.2 Q9.7 11.9 8.3 11.95 6.95 12.35 6.85 13.8 7.5 14.85 8.75 14.8 10.05 14.4 10.2 13.2 M3.15 25.15 L3.05 24.9 Q2.15 22.4 0.9 20.05 1.25 23.0 2.65 25.35 L3.05 25.2 3.15 25.15 M-2.9 -5.2 L-3.0 -4.4 -3.0 -4.6 -2.9 -5.2 M-6.35 -2.45 L-6.75 -2.9 -6.75 -3.0 -6.35 -2.45" fill="#e3b18b" fill-rule="evenodd" stroke="none"/>
    <path d="M-1.2 12.35 L-1.55 10.55 -1.75 10.0 -2.75 7.85 -4.9 4.75 Q-6.05 4.95 -6.9 4.2 L-8.65 2.85 Q-9.75 1.9 -9.7 0.6 L-9.85 -2.05 Q-8.8 -3.5 -7.0 -3.1 L-6.75 -3.0 -6.75 -2.9 -6.35 -2.45 -6.3 -2.4 -5.8 -2.1 -5.25 -1.85 -4.75 -1.55 -4.2 -1.55 Q-3.45 -2.1 -3.5 -3.1 L-3.4 -3.3 -3.3 -3.35 -3.1 -3.8 -3.0 -4.3 -3.0 -4.4 -2.9 -5.2 -2.9 -5.3 -3.1 -6.25 -3.15 -6.4 -3.15 -8.2 -3.15 -9.35 -3.15 -9.4 -2.85 -9.75 -1.85 -10.65 Q-0.95 -11.5 -0.35 -12.55 L-0.3 -12.6 -0.25 -12.45 -0.2 -12.2 1.05 -8.1 0.95 -8.45 2.05 -8.65 3.05 -8.6 Q4.1 -8.45 5.0 -7.7 L6.95 -6.0 7.35 -5.7 8.5 -4.6 8.6 -4.55 8.7 -4.5 8.75 -4.45 8.9 -4.4 10.25 -4.35 14.15 -6.7 15.2 -7.1 15.05 -6.4 15.0 -5.95 Q13.15 -5.1 11.95 -3.75 12.95 -3.7 13.9 -4.45 14.8 -5.15 15.25 -3.9 14.45 -3.0 13.05 -3.15 L12.8 -3.0 12.05 -2.35 11.9 -2.35 11.6 -2.25 11.45 -2.2 10.95 -2.1 10.4 -2.2 10.3 -2.05 10.25 -2.0 10.3 -1.8 10.35 -1.2 10.55 -0.8 11.1 1.0 11.3 2.3 11.15 4.75 10.8 4.75 9.75 5.0 9.7 5.0 9.85 4.95 10.25 4.8 10.3 4.8 10.25 4.75 Q8.95 4.0 7.05 3.95 L6.9 4.4 6.7 3.95 Q6.55 3.5 6.85 3.25 L8.3 2.85 8.2 0.2 8.15 -0.1 8.0 -1.5 8.0 -1.7 8.05 -1.65 8.55 -1.35 8.15 -1.55 7.85 -1.9 7.75 -2.1 7.8 -2.1 7.85 -2.1 7.5 -2.4 7.35 -2.45 6.85 -2.65 6.5 -2.7 6.0 -2.9 4.6 -3.9 4.55 -3.95 4.5 -4.0 4.35 -4.1 3.05 -4.45 1.9 -4.5 1.6 -4.65 1.7 -4.45 1.05 -4.35 -0.1 -3.8 -0.35 -3.65 -0.4 -3.4 -0.7 -3.55 -1.05 -3.35 -1.3 -2.95 -1.25 -1.75 -0.55 -0.15 -0.8 -0.15 -1.9 0.25 Q-2.75 0.95 -2.2 1.8 L-1.9 2.2 Q-0.5 3.2 1.05 2.65 L1.3 2.55 1.25 3.75 1.2 4.45 0.65 4.2 Q-0.35 3.75 -1.45 3.75 -2.45 3.75 -2.3 4.65 L-2.2 5.05 Q-1.95 5.85 -1.3 6.25 L-0.45 6.85 -0.2 7.0 Q0.75 7.1 1.6 7.5 L1.75 7.55 1.7 7.3 1.75 7.7 2.0 9.2 3.05 11.7 3.1 11.75 3.35 11.95 4.1 12.7 Q5.4 13.55 6.15 14.85 6.4 15.35 6.15 15.85 L6.15 15.9 5.7 15.6 5.45 15.45 5.35 15.35 3.05 13.05 2.95 12.9 3.05 13.1 4.9 15.65 5.45 16.3 4.9 16.15 4.8 16.1 4.75 16.05 4.65 16.0 4.25 15.6 3.05 14.65 2.35 14.0 2.3 13.95 Q0.95 13.4 -0.1 12.45 L-1.2 12.35 M-1.1 -14.2 L-0.75 -13.95 -0.7 -13.85 -1.1 -14.2 M6.85 -9.0 L5.95 -9.5 5.9 -9.6 5.85 -9.7 5.85 -9.8 5.9 -9.85 5.9 -9.95 6.0 -9.95 6.15 -10.0 6.2 -10.0 6.25 -10.05 Q7.75 -10.1 8.6 -9.2 L9.55 -8.05 Q10.15 -8.25 10.8 -8.7 11.95 -9.5 13.0 -8.95 L13.25 -8.45 Q13.1 -7.5 12.0 -7.2 11.5 -7.05 11.1 -6.7 9.6 -5.5 8.4 -7.1 8.2 -7.3 8.15 -7.6 L8.0 -7.8 7.85 -8.15 7.65 -8.6 6.85 -9.0 M3.05 -6.65 L3.1 -6.65 3.15 -6.7 3.05 -6.85 3.0 -6.95 2.45 -7.0 2.05 -7.15 1.35 -7.35 1.25 -7.35 Q1.15 -7.4 1.15 -7.4 0.1 -7.15 -0.5 -6.55 L-0.7 -6.4 -1.45 -5.15 -1.1 -5.15 -0.45 -5.95 0.05 -6.4 0.25 -6.5 1.35 -6.65 2.0 -6.4 2.45 -6.0 3.05 -5.45 Q4.5 -4.4 6.1 -4.5 L6.1 -5.05 Q4.7 -5.2 3.6 -6.2 L3.45 -6.4 3.05 -6.65 M10.2 2.55 L9.25 2.4 Q8.75 2.6 8.75 3.2 L9.0 3.7 Q9.65 4.35 10.25 3.7 10.8 3.2 10.3 2.6 L10.2 2.55 M-8.05 -1.45 L-8.1 -1.45 -8.15 -1.35 -8.45 -0.75 -8.35 -0.45 -8.4 0.6 -7.95 1.65 -7.4 2.45 -6.75 2.95 -6.25 2.9 Q-5.5 2.55 -5.6 1.75 -5.65 1.0 -5.95 0.35 L-6.35 -0.5 Q-6.8 -1.35 -7.8 -1.5 L-8.05 -1.55 -8.2 -1.6 -8.05 -1.45" fill="#edcdb6" fill-rule="evenodd" stroke="none"/>
    <path d="M2.05 -3.85 L3.05 -3.7 Q3.95 -3.4 4.7 -2.85 L5.7 -2.3 6.1 -1.85 Q6.2 -1.35 5.8 -0.95 L5.25 -0.6 Q4.25 -0.5 3.55 -1.0 L3.05 -1.15 2.4 -1.35 2.85 -2.0 Q3.1 -2.8 2.3 -3.1 1.35 -3.2 1.25 -2.3 1.2 -1.7 1.75 -1.5 L1.3 -1.5 Q0.15 -1.45 0.05 -2.55 -0.05 -3.3 0.75 -3.55 L2.05 -3.85 M-0.55 -0.15 L-0.5 -0.05 Q-0.05 0.7 0.95 0.75 L1.4 0.7 1.35 0.95 1.3 2.55 1.05 2.65 Q-0.5 3.2 -1.9 2.2 L-2.2 1.8 Q-2.75 0.95 -1.9 0.25 L-0.8 -0.15 -0.55 -0.15 M13.8 -0.5 L14.05 -0.8 Q14.35 -1.7 13.5 -1.85 L13.35 -1.9 13.15 -1.85 Q12.45 -1.55 12.85 -0.8 13.05 -0.35 13.55 -0.4 L13.8 -0.4 13.8 -0.5 M12.8 -2.4 L14.35 -2.75 Q15.15 -2.75 15.15 -1.9 L15.0 -1.0 Q14.75 -0.5 14.25 -0.5 L13.7 -0.4 Q13.4 -0.2 13.05 -0.4 12.25 -0.7 12.4 -1.65 L12.45 -1.9 Q12.55 -2.25 12.8 -2.4 M10.2 2.55 L10.3 2.6 Q10.8 3.2 10.25 3.7 9.65 4.35 9.0 3.7 L8.75 3.2 Q8.75 2.6 9.25 2.4 L10.2 2.55 M8.45 8.8 Q8.75 9.05 8.45 9.45 L8.35 9.5 7.95 9.45 Q7.8 9.3 8.0 8.9 L8.2 8.75 8.35 8.75 8.45 8.8 M7.5 13.6 L7.45 13.35 7.55 12.85 Q7.75 12.6 8.05 12.5 8.9 12.45 8.65 13.2 L8.45 13.65 7.6 13.7 7.5 13.6" fill="#ffffff" fill-rule="evenodd" stroke="none"/>
    <path d="M7.95 9.45 L8.35 9.5 8.45 9.45 Q8.75 9.05 8.45 8.8 9.15 8.7 9.3 9.35 9.4 9.75 9.1 10.0 8.35 10.4 8.0 9.6 L7.95 9.45 M7.55 12.85 L7.65 12.55 7.85 12.35 7.9 12.3 8.0 12.3 8.0 12.25 9.0 12.3 9.65 12.75 Q10.05 13.6 9.3 14.1 L9.0 14.3 8.05 14.25 7.9 14.15 7.5 13.6 7.6 13.7 8.45 13.65 8.65 13.2 Q8.9 12.45 8.05 12.5 7.75 12.6 7.55 12.85" fill="#999999" fill-rule="evenodd" stroke="none"/>
  </g>
</svg>
