<?xml version="1.0" encoding="UTF-8" standalone="no"?>
<svg xmlns:xlink="http://www.w3.org/1999/xlink" height="55.65px" width="36.7px" xmlns="http://www.w3.org/2000/svg">
  <g transform="matrix(1.0, 0.0, 0.0, 1.0, 15.6, 31.0)">
    <path d="M7.35 -26.6 L7.4 -26.55 7.4 -26.15 Q7.35 -25.55 7.55 -25.05 8.65 -22.7 10.55 -20.8 9.65 -18.65 9.5 -16.3 L9.4 -15.9 9.2 -14.85 Q8.0 -15.65 7.3 -17.0 L7.2 -17.45 7.9 -17.15 Q8.95 -17.8 8.35 -19.1 7.45 -21.05 7.5 -22.95 7.5 -23.55 7.0 -24.0 6.4 -24.6 5.6 -24.25 L5.6 -20.5 3.95 -22.75 Q4.1 -20.95 5.3 -19.35 3.0 -19.4 2.2 -21.25 L1.35 -23.2 1.55 -23.2 2.15 -23.55 2.35 -24.35 2.15 -25.15 1.55 -25.5 Q1.15 -25.5 0.95 -25.15 L0.75 -24.7 0.55 -25.05 0.1 -24.75 0.55 -22.75 Q-3.2 -22.7 -6.0 -20.2 -7.3 -20.5 -7.95 -21.3 -5.7 -22.9 -3.2 -23.65 -3.75 -24.15 -4.45 -24.5 L-3.45 -24.65 Q-2.95 -24.85 -2.75 -25.2 -2.6 -25.55 -2.9 -25.9 -3.2 -26.25 -3.95 -26.4 L-2.35 -26.85 4.75 -24.65 5.75 -25.2 5.1 -26.25 5.6 -25.95 Q6.6 -26.1 7.35 -26.6 M14.9 -11.55 L14.3 -14.8 Q14.45 -15.6 15.3 -15.6 15.65 -14.65 16.5 -13.9 L16.8 -13.95 16.1 -12.0 15.75 -11.55 14.9 -11.55 M-2.4 -28.5 L-2.2 -29.2 -1.6 -29.05 -2.35 -28.8 -2.4 -28.5 M-8.95 -15.3 L-8.6 -15.3 -8.45 -15.45 -8.45 -15.15 -8.95 -15.25 -8.95 -15.3 M-8.95 -14.1 L-7.55 -12.45 -5.35 -10.0 -4.65 -8.75 -5.2 -8.4 -5.5 -8.1 -6.3 -8.15 -9.6 -7.65 -9.9 -8.0 Q-10.55 -8.5 -11.35 -8.6 L-11.4 -7.85 -11.4 -9.2 Q-10.65 -9.2 -10.6 -10.2 -10.55 -10.6 -10.75 -11.0 L-11.4 -11.75 -8.95 -12.05 -8.95 -14.1 M-3.35 -6.45 L-4.5 -6.5 -4.2 -6.5 -3.65 -6.5 -3.35 -6.45 M-5.35 -6.55 L-7.1 -6.55 -6.65 -6.75 -5.35 -6.55" fill="#66cc00" fill-rule="evenodd" stroke="none"/>
    <path d="M5.1 -26.25 L5.75 -25.2 4.75 -24.65 -2.35 -26.85 -2.4 -28.5 -2.35 -28.8 -1.6 -29.05 -1.5 -29.0 5.1 -26.25 M-3.95 -26.4 Q-3.2 -26.25 -2.9 -25.9 -2.6 -25.55 -2.75 -25.2 -2.95 -24.85 -3.45 -24.65 L-4.45 -24.5 -5.8 -25.2 -3.95 -26.4 M0.75 -24.7 L0.95 -25.15 Q1.15 -25.5 1.55 -25.5 L2.15 -25.15 2.35 -24.35 2.15 -23.55 1.55 -23.2 1.35 -23.2 0.95 -23.55 Q0.7 -23.9 0.7 -24.35 L0.75 -24.7 M5.6 -20.5 L5.6 -24.25 Q6.4 -24.6 7.0 -24.0 7.5 -23.55 7.5 -22.95 7.45 -21.05 8.35 -19.1 8.95 -17.8 7.9 -17.15 L7.2 -17.45 5.6 -20.5 M12.3 -13.2 L12.5 -13.35 13.05 -13.25 13.35 -12.6 13.1 -11.9 12.35 -11.8 12.0 -12.2 Q11.8 -12.45 12.0 -12.7 L12.1 -12.95 12.15 -13.05 12.3 -13.2 M1.85 -11.6 L0.8 -11.5 0.7 -11.6 0.55 -12.0 Q0.55 -12.5 1.1 -12.65 L1.25 -12.6 1.75 -12.6 2.0 -12.25 2.0 -12.2 Q2.1 -11.85 1.85 -11.6 M3.5 -7.3 L3.5 -7.35 3.75 -7.7 3.8 -7.8 3.9 -7.8 3.9 -7.85 Q4.5 -7.95 4.7 -7.4 4.85 -7.05 4.45 -6.8 3.95 -6.45 3.65 -7.0 L3.5 -7.3 M11.35 -7.9 L11.55 -8.0 Q12.5 -8.05 12.45 -7.2 L12.3 -6.85 Q11.6 -6.3 11.15 -7.0 L11.1 -7.2 11.1 -7.35 11.35 -7.9 M-9.45 -17.05 L-8.95 -15.3 -8.95 -15.25 -9.2 -15.2 Q-9.5 -14.75 -8.95 -14.1 L-8.95 -12.05 -11.4 -11.75 -13.65 -12.4 -11.4 -13.85 -10.85 -17.35 -9.45 -17.05 M-1.6 -16.95 L-1.45 -16.95 Q-0.8 -17.0 -0.65 -16.3 -0.5 -15.5 -1.2 -15.3 L-1.95 -15.25 -2.25 -15.45 -2.35 -15.9 Q-2.4 -16.4 -2.05 -16.8 L-2.0 -16.85 -1.6 -16.95" fill="#99ff33" fill-rule="evenodd" stroke="none"/>
    <path d="M-3.6 18.8 L-4.4 20.4 Q-5.5 21.2 -6.6 21.1 -5.8 19.95 -4.4 19.3 -3.45 15.85 -3.05 12.05 -2.7 8.2 -6.1 5.7 -7.7 5.55 -8.9 4.6 -10.6 1.25 -10.9 -2.8 -9.75 -2.55 -9.4 -3.3 -9.0 -4.2 -9.4 -5.1 L-11.65 -4.95 -13.85 -5.0 -12.5 -7.45 Q-11.6 -8.75 -12.9 -9.9 -14.8 -11.3 -15.6 -13.3 -14.7 -13.8 -13.65 -13.9 -12.6 -14.0 -12.0 -15.0 -11.5 -16.3 -12.05 -17.85 -12.7 -19.5 -10.6 -18.9 -9.3 -18.3 -7.8 -17.95 -6.9 -18.55 -7.1 -19.5 -7.7 -19.95 -8.5 -20.1 -9.35 -20.3 -9.4 -21.2 -8.15 -22.9 -6.1 -23.7 -6.4 -24.4 -7.15 -24.35 -7.9 -24.35 -7.95 -25.1 L-3.0 -27.65 -3.65 -30.3 Q1.15 -29.3 5.8 -27.25 L8.9 -31.0 Q9.95 -30.8 9.9 -29.7 9.9 -28.65 10.3 -27.9 L11.4 -23.05 12.8 -23.25 Q13.55 -23.75 13.8 -22.8 13.9 -20.95 13.15 -19.2 12.3 -17.55 14.0 -16.05 L15.6 -17.0 Q16.0 -16.65 16.1 -15.95 16.2 -15.3 16.8 -14.85 L21.1 -15.3 Q19.75 -13.15 18.7 -10.8 19.55 -10.55 19.9 -9.75 17.65 -6.8 14.8 -4.3 13.85 -1.7 14.55 1.0 15.2 3.6 14.3 6.35 L12.0 11.5 10.7 13.7 10.65 13.7 10.45 13.75 9.75 14.55 9.5 14.95 8.6 15.65 8.55 15.65 Q8.2 15.85 8.1 16.3 L7.9 17.8 7.7 19.05 7.7 22.2 7.8 23.0 7.7 23.1 7.5 23.65 7.4 23.85 7.3 24.0 Q6.95 21.95 7.0 19.85 7.0 18.0 7.3 16.1 L2.9 14.6 1.35 13.6 1.0 13.2 1.0 13.15 0.1 11.7 0.1 11.65 -0.1 11.1 -0.4 9.9 -0.05 10.75 1.2 12.2 1.3 12.35 1.5 12.45 2.05 12.85 2.25 12.95 5.6 14.4 8.85 14.25 9.45 13.95 10.25 13.2 10.95 12.2 Q12.1 10.1 12.85 7.85 L13.35 6.45 Q14.15 4.0 13.65 1.35 L13.6 1.15 13.6 1.1 13.55 0.85 13.5 0.55 13.55 0.8 13.8 0.45 14.1 -0.65 14.0 -1.2 13.9 -1.7 13.9 -1.6 13.7 -1.85 13.55 -1.95 13.4 -1.85 Q13.1 -1.55 13.35 -1.2 L13.3 -1.1 13.25 -0.6 12.95 -0.3 12.55 -0.1 12.1 0.0 12.05 -0.05 Q11.85 -0.15 11.75 -0.2 L11.6 -0.35 11.5 -0.5 Q12.45 -1.95 14.0 -2.9 L14.1 -3.4 14.1 -3.6 14.1 -3.8 14.1 -5.1 14.15 -5.95 14.25 -7.35 Q14.45 -9.4 13.9 -11.35 L14.0 -12.1 Q13.95 -12.95 13.45 -13.3 L13.5 -13.3 13.5 -13.45 Q13.3 -14.65 12.7 -15.7 L12.3 -16.4 12.25 -16.35 Q11.4 -15.65 10.85 -14.55 10.35 -13.5 9.2 -13.2 7.35 -14.4 6.55 -16.3 5.8 -18.2 3.65 -18.9 L3.5 -18.95 2.95 -19.1 2.9 -19.1 Q2.2 -19.45 1.85 -19.95 L1.55 -20.6 1.5 -20.65 1.5 -20.7 Q1.3 -21.9 0.1 -22.0 L-1.15 -21.8 -1.85 -21.65 -1.9 -21.6 -2.6 -21.3 Q-5.55 -20.15 -7.2 -17.15 -8.1 -14.4 -6.1 -12.3 -4.15 -10.2 -3.0 -7.9 -2.1 -6.9 -1.5 -5.7 L-1.5 -5.75 -1.45 -5.55 -2.25 -5.4 -2.3 -5.45 -3.3 -5.55 -8.15 -5.4 -8.25 -5.0 Q-8.5 -2.9 -6.85 -1.35 L-8.45 -1.7 Q-9.3 -2.05 -9.95 -1.7 L-9.0 2.45 Q-8.55 4.6 -6.0 4.8 -3.6 6.35 -2.2 8.7 -2.05 10.6 -2.15 12.45 L-2.15 12.5 -2.2 13.2 -3.35 18.0 -3.4 18.15 -3.55 18.6 -3.6 18.8 M7.35 -26.6 Q6.6 -26.1 5.6 -25.95 L5.1 -26.25 -1.5 -29.0 -1.6 -29.05 -2.2 -29.2 -2.4 -28.5 -2.35 -26.85 -3.95 -26.4 -5.8 -25.2 -4.45 -24.5 Q-3.75 -24.15 -3.2 -23.65 -5.7 -22.9 -7.95 -21.3 -7.3 -20.5 -6.0 -20.2 -3.2 -22.7 0.55 -22.75 L0.1 -24.75 0.55 -25.05 0.75 -24.7 0.7 -24.35 Q0.7 -23.9 0.95 -23.55 L1.35 -23.2 2.2 -21.25 Q3.0 -19.4 5.3 -19.35 4.1 -20.95 3.95 -22.75 L5.6 -20.5 7.2 -17.45 7.3 -17.0 Q8.0 -15.65 9.2 -14.85 L9.8 -14.5 Q12.45 -17.8 12.6 -22.1 L11.1 -21.95 Q9.9 -25.15 9.1 -28.6 L8.9 -28.6 8.6 -28.15 Q8.1 -27.15 7.35 -26.6 M16.8 -13.95 L16.5 -13.9 Q15.65 -14.65 15.3 -15.6 14.45 -15.6 14.3 -14.8 L14.9 -11.55 Q15.3 -8.85 15.05 -6.0 16.75 -7.25 18.15 -8.95 18.65 -9.65 18.1 -9.75 17.55 -9.9 17.3 -10.35 18.0 -12.45 19.25 -14.35 L16.8 -13.95 M1.75 -3.35 L2.05 -3.3 3.25 -2.6 4.25 -2.0 4.5 -1.85 4.9 -1.65 5.0 -1.3 5.05 -1.3 Q5.5 -1.2 5.6 -0.65 L5.6 -0.25 5.5 -0.3 5.2 -0.45 4.8 0.0 5.2 -0.5 3.65 -1.7 3.45 -1.75 3.35 -1.75 3.05 -1.25 2.8 -1.0 1.85 -0.85 1.35 -1.05 1.2 -1.15 Q0.8 -1.85 1.1 -2.45 L0.45 -2.45 0.3 -2.45 0.35 -2.55 0.5 -2.7 0.65 -2.8 0.7 -2.9 0.75 -2.9 1.05 -3.05 1.4 -3.25 1.65 -3.35 1.75 -3.35 M0.45 -2.45 L0.45 -2.55 0.45 -2.45 M1.85 -0.85 L1.75 -0.95 1.85 -0.85 M2.7 -1.2 L2.65 -1.2 2.65 -1.15 2.7 -1.2 M-8.45 -15.45 L-8.45 -16.65 -9.45 -17.05 -10.85 -17.35 -11.4 -13.85 -13.65 -12.4 -14.05 -12.15 -11.4 -9.35 -11.4 -9.2 -11.4 -7.85 -11.7 -6.5 -11.85 -6.15 -11.6 -6.2 -9.25 -6.45 -7.1 -6.55 -5.35 -6.55 -4.5 -6.5 -3.35 -6.45 -3.05 -6.45 Q-3.35 -7.45 -4.15 -8.25 L-4.65 -8.75 -5.35 -10.0 -7.55 -12.45 -8.95 -14.1 Q-9.5 -14.75 -9.2 -15.2 L-8.95 -15.25 -8.45 -15.15 -8.45 -15.45 M8.95 6.2 L10.6 5.75 10.7 5.9 9.05 6.9 8.65 6.95 8.6 7.05 Q5.95 7.45 3.95 6.1 L4.15 6.15 4.3 6.15 6.2 6.35 7.55 6.35 8.9 6.2 8.95 6.2 M6.95 8.85 L6.45 9.15 6.45 9.2 6.4 9.2 Q6.65 8.95 6.95 8.85" fill="#000000" fill-rule="evenodd" stroke="none"/>
    <path d="M1.2 23.7 L-0.4 22.7 -0.65 22.45 Q-3.5 21.4 -3.6 18.8 L-3.55 18.6 -3.4 18.15 -3.35 18.0 -2.2 13.2 -2.15 12.5 -2.15 12.45 Q-2.05 10.6 -2.2 8.7 -3.6 6.35 -6.0 4.8 -8.55 4.6 -9.0 2.45 L-9.95 -1.7 Q-9.3 -2.05 -8.45 -1.7 L-6.85 -1.35 Q-8.5 -2.9 -8.25 -5.0 L-7.55 -4.5 -7.1 -4.35 Q-4.8 -3.0 -2.2 -3.65 L-1.85 -4.05 -1.7 -4.2 Q-1.3 -4.7 -1.35 -5.3 L-1.4 -5.55 -1.5 -5.7 Q-2.1 -6.9 -3.0 -7.9 -4.15 -10.2 -6.1 -12.3 -8.1 -14.4 -7.2 -17.15 -5.55 -20.15 -2.6 -21.3 L-2.5 -21.2 -1.9 -21.6 -1.85 -21.65 -1.15 -21.8 0.1 -22.0 Q1.3 -21.9 1.5 -20.7 L1.5 -20.65 1.55 -20.6 1.85 -19.95 Q1.0 -19.45 0.5 -18.6 L0.15 -17.95 -0.15 -16.9 -0.55 -17.75 0.55 -15.25 1.25 -13.1 1.3 -12.8 1.25 -13.05 1.15 -13.1 1.05 -13.1 Q0.25 -12.65 0.2 -11.75 L0.25 -11.4 Q0.8 -10.55 1.7 -10.8 L1.9 -10.85 2.35 -9.25 2.75 -7.05 2.65 -5.85 2.7 -6.2 4.5 -5.05 6.15 -3.65 Q7.5 -3.2 6.85 -2.0 L6.3 -1.65 6.05 -1.6 6.0 -1.6 5.5 -1.65 Q4.85 -1.7 4.3 -2.0 L3.2 -2.85 Q2.15 -4.0 0.65 -4.35 L0.5 -4.45 0.0 -4.25 -0.05 -4.2 -0.3 -4.0 Q-1.1 -3.3 -0.85 -2.35 L-0.9 -2.45 -0.75 -1.6 -0.6 -1.25 -0.15 -0.45 -0.05 -0.35 -0.1 -0.3 -1.45 1.15 -0.5 2.3 Q-1.9 3.0 -0.95 4.8 0.05 6.65 1.9 6.45 L2.0 8.75 Q1.9 10.3 2.4 11.7 2.7 12.5 2.25 12.95 L2.05 12.85 1.5 12.45 1.3 12.35 1.2 12.2 -0.05 10.75 -0.4 9.9 -0.1 11.1 0.1 11.65 0.1 11.7 1.0 13.15 1.0 13.2 1.35 13.6 1.3 13.85 1.2 14.45 Q0.8 16.3 0.75 18.25 L0.75 18.45 0.75 19.85 0.35 19.3 Q-0.05 20.5 0.85 21.45 L1.05 21.8 Q1.9 22.8 1.2 23.7 M14.15 -5.95 L14.1 -5.1 14.1 -3.8 13.7 -3.6 13.1 -3.15 12.1 -2.3 Q11.25 -1.55 10.6 -2.05 L10.3 -2.4 Q10.05 -2.9 10.35 -3.3 11.35 -4.75 12.75 -5.7 L12.85 -5.7 13.75 -5.9 14.15 -5.95 M-3.8 -19.8 L-4.55 -19.5 -4.95 -19.2 -6.05 -17.9 Q-6.9 -16.7 -6.4 -15.35 -6.05 -14.3 -4.85 -14.6 -3.45 -14.95 -3.7 -16.35 L-3.25 -16.85 -2.75 -17.45 Q-1.95 -18.2 -2.25 -19.25 L-2.7 -19.65 -3.8 -19.8 M-0.75 -16.85 Q-1.0 -17.25 -1.45 -17.35 -1.95 -17.4 -2.3 -17.0 -2.85 -16.45 -2.65 -15.65 L-2.5 -15.2 -2.5 -15.15 Q-2.1 -14.25 -0.95 -14.35 0.1 -14.85 -0.05 -16.0 -0.25 -16.65 -0.75 -16.85 M-6.4 1.5 L-6.45 1.45 -6.8 1.15 Q-7.6 0.15 -8.7 -0.3 L-7.7 1.0 -7.95 1.4 -8.0 2.1 -7.85 2.9 Q-7.4 4.1 -6.2 3.65 L-5.85 3.1 Q-5.45 2.0 -6.4 1.5 M8.95 6.15 L8.95 6.2 8.9 6.2 8.95 6.15 M6.85 10.4 L7.15 10.3 7.2 10.25 Q8.25 10.0 8.35 10.9 8.45 11.4 8.1 11.7 L7.85 12.6 7.35 13.2 5.95 13.25 5.55 12.85 Q4.95 11.6 6.0 10.8 6.3 10.35 6.85 10.4 M4.3 19.05 Q4.3 19.75 3.7 20.1 L2.2 20.0 Q1.9 19.7 2.0 19.2 2.25 18.35 3.1 18.1 4.3 17.95 4.3 19.05" fill="#edcdb6" fill-rule="evenodd" stroke="none"/>
    <path d="M11.6 -0.35 L11.75 -0.2 Q11.85 -0.15 12.05 -0.05 L12.1 0.0 12.55 -0.1 12.95 -0.3 13.25 -0.6 13.3 -1.1 13.35 -1.2 Q13.1 -1.55 13.4 -1.85 L13.55 -1.95 13.7 -1.85 13.9 -1.6 13.9 -1.7 14.0 -1.2 14.1 -0.65 13.8 0.45 13.55 0.8 13.5 0.55 13.55 0.85 12.15 0.6 Q11.55 0.35 11.5 -0.2 L11.55 -0.35 11.6 -0.35 M0.3 -2.45 L0.45 -2.45 1.1 -2.45 Q0.8 -1.85 1.2 -1.15 L1.35 -1.05 1.85 -0.85 2.8 -1.0 3.05 -1.25 3.35 -1.75 3.45 -1.75 3.65 -1.7 5.2 -0.5 4.8 0.0 5.2 -0.45 5.5 -0.3 5.6 -0.25 5.25 0.15 4.85 0.35 2.35 0.2 2.6 0.35 Q1.25 0.35 0.3 -0.6 0.0 -0.85 -0.05 -1.3 L0.15 -2.2 0.3 -2.45 M0.45 -2.45 L0.35 -2.4 0.45 -2.3 0.45 -2.45 M1.85 -0.85 L1.95 -0.75 1.8 -0.7 2.0 -0.75 1.85 -0.85 M9.65 2.1 Q10.0 2.3 9.95 2.7 L9.95 2.75 9.75 3.1 Q9.45 3.65 8.75 3.7 7.65 3.75 7.85 2.65 7.9 2.3 8.25 2.2 L9.3 1.95 9.65 2.1 M-3.8 -19.8 L-2.7 -19.65 -2.25 -19.25 Q-1.95 -18.2 -2.75 -17.45 L-3.25 -16.85 -3.7 -16.35 Q-3.45 -14.95 -4.85 -14.6 -6.05 -14.3 -6.4 -15.35 -6.9 -16.7 -6.05 -17.9 L-4.95 -19.2 -4.55 -19.5 -3.8 -19.8 M1.9 6.45 Q0.05 6.65 -0.95 4.8 -1.9 3.0 -0.5 2.3 L0.65 3.45 1.25 4.45 1.9 6.45" fill="#ffffff" fill-rule="evenodd" stroke="none"/>
    <path d="M5.95 21.35 Q5.55 21.65 5.25 21.9 5.7 21.3 5.45 20.45 L5.0 19.55 4.95 20.2 4.3 21.05 Q2.95 21.65 2.05 20.75 L2.15 21.3 Q2.9 22.8 4.4 22.4 2.95 24.25 1.2 23.7 1.9 22.8 1.05 21.8 L0.85 21.45 Q-0.05 20.5 0.35 19.3 L0.75 19.85 0.75 18.45 0.75 18.25 Q0.8 16.3 1.2 14.45 1.35 15.35 2.15 16.0 L2.75 16.3 5.9 17.05 5.95 17.1 5.75 18.0 5.75 18.95 5.95 20.35 6.1 21.2 5.95 21.35 M-1.45 -5.55 L-1.5 -5.75 -1.5 -5.7 -1.4 -5.55 -1.45 -5.55 M-2.6 -21.3 L-1.9 -21.6 -2.5 -21.2 -2.6 -21.3 M1.85 -19.95 Q2.2 -19.45 2.9 -19.1 2.85 -18.8 3.1 -18.45 L3.8 -17.75 Q4.8 -17.05 5.4 -15.95 L5.85 -15.25 7.05 -13.6 Q7.35 -12.75 8.05 -12.2 L8.35 -12.1 10.0 -12.1 10.05 -12.1 11.65 -13.3 11.8 -13.25 11.9 -13.15 11.9 -13.05 11.8 -13.05 11.75 -13.05 11.65 -12.85 Q11.4 -12.2 11.8 -11.65 11.75 -11.25 12.3 -11.0 L12.3 -10.85 12.8 -9.2 12.95 -8.25 12.9 -7.3 Q12.6 -8.05 12.05 -8.25 L11.6 -8.4 Q10.5 -7.8 10.75 -6.5 L10.95 -6.2 Q11.15 -6.0 11.4 -5.95 L11.9 -5.9 Q12.7 -6.05 12.85 -6.65 L12.8 -6.2 Q12.75 -5.95 12.85 -5.7 L12.75 -5.7 Q11.35 -4.75 10.35 -3.3 10.05 -2.9 10.3 -2.4 L10.6 -2.05 10.35 -1.85 8.2 -2.05 6.9 -2.0 6.85 -2.0 Q7.5 -3.2 6.15 -3.65 L4.5 -5.05 2.7 -6.2 2.65 -5.85 2.75 -7.05 2.35 -9.25 1.9 -10.85 2.15 -11.1 2.3 -11.15 2.3 -11.25 2.3 -11.3 2.35 -11.35 2.45 -11.8 Q2.35 -12.9 1.25 -13.1 L0.55 -15.25 -0.55 -17.75 -0.15 -16.9 0.15 -17.95 0.5 -18.6 Q1.0 -19.45 1.85 -19.95 M12.25 -16.35 L12.3 -16.4 12.7 -15.7 12.3 -16.4 12.25 -16.35 M14.1 -3.8 L14.1 -3.6 13.7 -3.6 14.1 -3.8 M9.45 13.95 L8.85 14.25 5.6 14.4 2.25 12.95 Q2.7 12.5 2.4 11.7 1.9 10.3 2.0 8.75 L1.9 6.45 1.25 4.45 0.65 3.45 -0.5 2.3 -1.45 1.15 -0.1 -0.3 -0.1 -0.25 0.0 -0.1 0.2 0.2 0.25 0.3 0.6 0.75 Q1.25 1.5 2.35 1.9 L2.55 2.0 3.6 2.55 Q4.65 3.05 5.75 2.55 L5.8 2.5 5.9 2.45 6.1 2.3 6.5 2.05 7.25 1.25 7.6 -0.15 7.6 -0.55 9.0 -0.65 9.45 1.5 9.65 2.1 9.3 1.95 8.25 2.2 Q7.9 2.3 7.85 2.65 7.65 3.75 8.75 3.7 9.45 3.65 9.75 3.1 L9.95 2.75 10.05 3.05 10.45 3.45 10.4 3.9 7.95 4.35 7.45 4.5 7.35 4.55 Q7.35 4.85 7.5 5.0 L7.4 4.95 Q7.3 5.15 7.5 5.35 8.15 5.9 9.0 5.65 L10.35 5.4 11.05 4.65 11.45 4.55 12.1 3.2 Q12.25 2.2 12.0 1.25 L12.9 1.35 13.05 1.55 Q13.55 2.55 13.25 3.55 L12.75 4.75 12.3 6.0 12.2 6.2 11.7 6.9 11.15 7.55 Q10.55 8.15 10.45 8.85 L10.5 9.0 10.95 10.7 10.75 11.55 10.05 13.0 9.6 13.7 9.45 13.95 M4.4 -8.1 L4.05 -8.25 Q3.1 -8.05 3.2 -7.05 L3.35 -6.6 3.3 -6.5 Q3.75 -6.0 4.4 -5.9 5.15 -6.2 5.3 -6.95 5.15 -7.85 4.4 -8.1 M-0.05 -0.9 L-0.05 -0.95 0.05 -0.75 -0.05 -0.9 M7.55 6.35 L6.2 6.35 4.3 6.15 4.15 6.15 3.95 6.1 Q5.95 7.45 8.6 7.05 L8.65 6.95 9.05 6.9 10.7 5.9 10.6 5.75 8.95 6.2 8.95 6.15 7.55 6.35 M9.45 8.5 Q9.35 8.35 9.2 8.35 L7.4 8.2 Q6.55 8.25 5.9 8.65 L5.7 8.95 Q5.3 9.25 5.4 9.65 L5.55 9.8 8.65 9.7 9.2 9.6 Q10.1 9.25 9.45 8.5 M6.85 10.4 Q6.3 10.35 6.0 10.8 4.95 11.6 5.55 12.85 L5.95 13.25 7.35 13.2 7.85 12.6 8.1 11.7 Q8.45 11.4 8.35 10.9 8.25 10.0 7.2 10.25 L7.15 10.3 6.85 10.4 M4.3 19.05 Q4.3 17.95 3.1 18.1 2.25 18.35 2.0 19.2 1.9 19.7 2.2 20.0 L3.7 20.1 Q4.3 19.75 4.3 19.05" fill="#e3b18b" fill-rule="evenodd" stroke="none"/>
    <path d="M9.2 -14.85 L9.4 -15.9 9.5 -16.3 Q9.65 -18.65 10.55 -20.8 8.65 -22.7 7.55 -25.05 7.35 -25.55 7.4 -26.15 L7.4 -26.55 7.35 -26.6 Q8.1 -27.15 8.6 -28.15 L8.9 -28.6 9.1 -28.6 Q9.9 -25.15 11.1 -21.95 L12.6 -22.1 Q12.45 -17.8 9.8 -14.5 L9.2 -14.85 M16.8 -13.95 L19.25 -14.35 Q18.0 -12.45 17.3 -10.35 17.55 -9.9 18.1 -9.75 18.65 -9.65 18.15 -8.95 16.75 -7.25 15.05 -6.0 15.3 -8.85 14.9 -11.55 L15.75 -11.55 16.1 -12.0 16.8 -13.95 M-9.45 -17.05 L-8.45 -16.65 -8.45 -15.45 -8.6 -15.3 -8.95 -15.3 -9.45 -17.05 M-4.65 -8.75 L-4.15 -8.25 Q-3.35 -7.45 -3.05 -6.45 L-3.35 -6.45 -3.65 -6.5 -4.2 -6.5 -4.5 -6.5 -5.35 -6.55 -6.65 -6.75 -7.1 -6.55 -9.25 -6.45 -11.6 -6.2 -11.85 -6.15 -11.7 -6.5 -11.4 -7.85 -11.35 -8.6 Q-10.55 -8.5 -9.9 -8.0 L-9.6 -7.65 -6.3 -8.15 -5.5 -8.1 -5.2 -8.4 -4.65 -8.75 M-11.4 -9.2 L-11.4 -9.35 -14.05 -12.15 -13.65 -12.4 -11.4 -11.75 -10.75 -11.0 Q-10.55 -10.6 -10.6 -10.2 -10.65 -9.2 -11.4 -9.2" fill="#009900" fill-rule="evenodd" stroke="none"/>
    <path d="M13.45 -13.3 Q13.95 -12.95 14.0 -12.1 L13.9 -11.35 13.8 -11.6 Q13.1 -10.85 12.3 -11.0 11.75 -11.25 11.8 -11.65 11.4 -12.2 11.65 -12.85 L11.75 -13.05 11.8 -13.05 11.9 -13.05 11.9 -13.15 11.8 -13.25 12.2 -13.55 12.5 -13.65 13.4 -13.3 13.45 -13.3 M12.3 -13.2 L12.15 -13.05 12.1 -12.95 12.0 -12.7 Q11.8 -12.45 12.0 -12.2 L12.35 -11.8 13.1 -11.9 13.35 -12.6 13.05 -13.25 12.5 -13.35 12.3 -13.2 M1.9 -10.85 L1.7 -10.8 Q0.8 -10.55 0.25 -11.4 L0.2 -11.75 Q0.25 -12.65 1.05 -13.1 L1.15 -13.1 1.25 -13.05 1.3 -12.8 1.25 -13.1 Q2.35 -12.9 2.45 -11.8 L2.35 -11.35 2.3 -11.3 2.3 -11.25 2.3 -11.15 2.15 -11.1 1.9 -10.85 M12.85 -6.65 Q12.7 -6.05 11.9 -5.9 L11.4 -5.95 Q11.15 -6.0 10.95 -6.2 L10.75 -6.5 Q10.5 -7.8 11.6 -8.4 L12.05 -8.25 Q12.6 -8.05 12.9 -7.3 L12.9 -7.2 12.85 -6.65 M1.85 -11.6 Q2.1 -11.85 2.0 -12.2 L2.0 -12.25 1.75 -12.6 1.25 -12.6 1.1 -12.65 Q0.55 -12.5 0.55 -12.0 L0.7 -11.6 0.8 -11.5 1.85 -11.6 M4.4 -8.1 Q5.15 -7.85 5.3 -6.95 5.15 -6.2 4.4 -5.9 3.75 -6.0 3.3 -6.5 L3.35 -6.6 3.2 -7.05 Q3.1 -8.05 4.05 -8.25 L4.4 -8.1 M3.5 -7.3 L3.65 -7.0 Q3.95 -6.45 4.45 -6.8 4.85 -7.05 4.7 -7.4 4.5 -7.95 3.9 -7.85 L3.9 -7.8 3.8 -7.8 3.75 -7.7 3.5 -7.35 3.5 -7.3 M11.35 -7.9 L11.1 -7.35 11.1 -7.2 11.15 -7.0 Q11.6 -6.3 12.3 -6.85 L12.45 -7.2 Q12.5 -8.05 11.55 -8.0 L11.35 -7.9 M-1.6 -16.95 L-2.0 -16.85 -2.05 -16.8 Q-2.4 -16.4 -2.35 -15.9 L-2.25 -15.45 -1.95 -15.25 -1.2 -15.3 Q-0.5 -15.5 -0.65 -16.3 -0.8 -17.0 -1.45 -16.95 L-1.6 -16.95 M-0.75 -16.85 Q-0.25 -16.65 -0.05 -16.0 0.1 -14.85 -0.95 -14.35 -2.1 -14.25 -2.5 -15.15 L-2.5 -15.2 -2.65 -15.65 Q-2.85 -16.45 -2.3 -17.0 -1.95 -17.4 -1.45 -17.35 -1.0 -17.25 -0.75 -16.85" fill="#333333" fill-rule="evenodd" stroke="none"/>
    <path d="M7.7 23.1 L7.55 24.1 7.3 24.4 Q6.4 25.0 6.1 24.05 L6.05 23.5 6.1 23.0 5.95 21.35 6.1 21.2 5.95 20.35 5.75 18.95 5.75 18.0 5.95 17.1 5.9 17.05 2.75 16.3 2.15 16.0 Q1.35 15.35 1.2 14.45 L1.3 13.85 1.35 13.6 2.9 14.6 7.3 16.1 Q7.0 18.0 7.0 19.85 6.95 21.95 7.3 24.0 L7.4 23.85 7.5 23.65 7.7 23.1 M5.25 21.9 L5.2 21.95 4.9 22.1 4.55 22.2 4.4 22.4 Q2.9 22.8 2.15 21.3 L2.05 20.75 Q2.95 21.65 4.3 21.05 L4.95 20.2 5.0 19.55 5.45 20.45 Q5.7 21.3 5.25 21.9 M-8.25 -5.0 L-8.15 -5.4 -3.3 -5.55 -2.3 -5.45 -2.25 -5.4 -1.45 -5.55 -1.4 -5.55 -1.35 -5.3 Q-1.3 -4.7 -1.7 -4.2 L-1.85 -4.05 -2.2 -3.65 Q-4.8 -3.0 -7.1 -4.35 L-7.55 -4.5 -8.25 -5.0 M2.9 -19.1 L2.95 -19.1 3.5 -18.95 3.65 -18.9 Q5.8 -18.2 6.55 -16.3 7.35 -14.4 9.2 -13.2 10.35 -13.5 10.85 -14.55 11.4 -15.65 12.25 -16.35 L12.3 -16.4 12.7 -15.7 Q13.3 -14.65 13.5 -13.45 L13.5 -13.3 13.45 -13.3 13.4 -13.3 12.5 -13.65 12.2 -13.55 11.8 -13.25 11.65 -13.3 10.05 -12.1 10.0 -12.1 8.35 -12.1 8.05 -12.2 Q7.35 -12.75 7.05 -13.6 L5.85 -15.25 5.4 -15.95 Q4.8 -17.05 3.8 -17.75 L3.1 -18.45 Q2.85 -18.8 2.9 -19.1 M13.9 -11.35 Q14.45 -9.4 14.25 -7.35 L14.15 -5.95 13.75 -5.9 12.85 -5.7 Q12.75 -5.95 12.8 -6.2 L12.85 -6.65 12.9 -7.2 12.9 -7.3 12.95 -8.25 12.8 -9.2 12.3 -10.85 12.3 -11.0 Q13.1 -10.85 13.8 -11.6 L13.9 -11.35 M14.1 -3.6 L14.1 -3.4 Q13.4 -3.1 12.85 -2.55 12.45 -2.05 11.85 -1.9 10.55 -1.5 10.1 -0.25 10.0 0.1 10.2 0.3 11.05 1.3 12.25 1.1 L13.25 1.3 13.6 1.15 13.65 1.35 Q14.15 4.0 13.35 6.45 L12.85 7.85 Q12.1 10.1 10.95 12.2 L10.25 13.2 9.45 13.95 9.6 13.7 10.05 13.0 10.75 11.55 10.95 10.7 10.5 9.0 10.45 8.85 Q10.55 8.15 11.15 7.55 L11.7 6.9 12.2 6.2 12.3 6.0 12.75 4.75 13.25 3.55 Q13.55 2.55 13.05 1.55 L12.9 1.35 12.0 1.25 Q12.25 2.2 12.1 3.2 L11.45 4.55 11.05 4.65 10.35 5.4 9.0 5.65 Q8.15 5.9 7.5 5.35 7.3 5.15 7.4 4.95 L7.5 5.0 Q7.35 4.85 7.35 4.55 L7.45 4.5 7.95 4.35 10.4 3.9 10.45 3.45 10.05 3.05 9.95 2.75 9.95 2.7 Q10.0 2.3 9.65 2.1 L9.45 1.5 9.0 -0.65 7.6 -0.55 7.6 -0.15 7.25 1.25 6.5 2.05 6.1 2.3 5.9 2.45 5.8 2.5 5.75 2.55 Q4.65 3.05 3.6 2.55 L2.55 2.0 2.35 1.9 Q1.25 1.5 0.6 0.75 L1.0 1.1 1.1 1.15 Q1.75 1.65 2.65 1.5 L2.8 1.45 5.4 1.4 5.6 1.2 5.95 0.65 6.3 -0.65 6.35 -1.05 6.05 -1.6 6.3 -1.65 6.85 -2.0 6.9 -2.0 8.2 -2.05 10.35 -1.85 10.6 -2.05 Q11.25 -1.55 12.1 -2.3 L13.1 -3.15 13.7 -3.6 14.1 -3.6 M-0.75 -1.6 L-0.9 -2.45 -0.85 -2.35 Q-1.1 -3.3 -0.3 -4.0 L-0.05 -4.2 0.0 -4.25 0.5 -4.45 0.65 -4.35 Q2.15 -4.0 3.2 -2.85 L4.3 -2.0 4.25 -2.0 3.25 -2.6 2.05 -3.3 1.75 -3.35 1.3 -3.4 1.25 -3.35 1.1 -3.3 0.95 -3.45 0.25 -3.6 -0.4 -3.15 -0.6 -2.95 -0.75 -1.6 M-6.4 1.5 Q-5.45 2.0 -5.85 3.1 L-6.2 3.65 Q-7.4 4.1 -7.85 2.9 L-8.0 2.1 -7.95 1.4 -7.7 1.0 -8.7 -0.3 Q-7.6 0.15 -6.8 1.15 L-6.45 1.45 -6.4 1.5 M9.45 8.5 Q10.1 9.25 9.2 9.6 L8.65 9.7 5.55 9.8 5.4 9.65 Q5.3 9.25 5.7 8.95 L5.9 8.65 Q6.55 8.25 7.4 8.2 L9.2 8.35 Q9.35 8.35 9.45 8.5 M6.95 8.85 Q6.65 8.95 6.4 9.2 L6.45 9.2 6.45 9.15 6.95 8.85" fill="#ad7a3f" fill-rule="evenodd" stroke="none"/>
    <path d="M14.1 -3.4 L14.0 -2.9 Q12.45 -1.95 11.5 -0.5 L11.6 -0.35 11.55 -0.35 11.5 -0.2 Q11.55 0.35 12.15 0.6 L13.55 0.85 13.6 1.1 13.6 1.15 13.25 1.3 12.25 1.1 Q11.05 1.3 10.2 0.3 10.0 0.1 10.1 -0.25 10.55 -1.5 11.85 -1.9 12.45 -2.05 12.85 -2.55 13.4 -3.1 14.1 -3.4 M4.3 -2.0 Q4.85 -1.7 5.5 -1.65 L6.0 -1.6 6.05 -1.6 6.35 -1.05 6.3 -0.65 5.95 0.65 5.6 1.2 5.4 1.4 2.8 1.45 2.65 1.5 Q1.75 1.65 1.1 1.15 L1.0 1.1 0.6 0.75 0.25 0.3 0.2 0.2 0.0 -0.1 -0.1 -0.25 -0.1 -0.3 -0.05 -0.35 -0.15 -0.45 -0.6 -1.25 -0.75 -1.6 -0.6 -2.95 -0.4 -3.15 0.25 -3.6 0.95 -3.45 1.1 -3.3 1.25 -3.35 1.3 -3.4 1.75 -3.35 1.65 -3.35 1.4 -3.25 1.05 -3.05 0.75 -2.9 0.7 -2.9 0.65 -2.8 0.5 -2.7 0.35 -2.55 0.3 -2.45 0.15 -2.2 -0.05 -1.3 Q0.0 -0.85 0.3 -0.6 1.25 0.35 2.6 0.35 L2.35 0.2 4.85 0.35 5.25 0.15 5.6 -0.25 5.6 -0.65 Q5.5 -1.2 5.05 -1.3 L5.0 -1.3 4.9 -1.65 4.5 -1.85 4.25 -2.0 4.3 -2.0 M-0.05 -0.9 L0.05 -0.75 -0.05 -0.95 -0.05 -0.9" fill="#663300" fill-rule="evenodd" stroke="none"/>
    <path d="M0.45 -2.45 L0.45 -2.55 0.45 -2.45 0.45 -2.3 0.35 -2.4 0.45 -2.45" fill="#990000" fill-rule="evenodd" stroke="none"/>
    <path d="M1.85 -0.85 L1.75 -0.95 1.85 -0.85 2.0 -0.75 1.8 -0.7 1.95 -0.75 1.85 -0.85" fill="#8f6434" fill-rule="evenodd" stroke="none"/>
    <path d="M2.7 -1.2 L2.65 -1.15 2.65 -1.2 2.7 -1.2" fill="#ff3300" fill-rule="evenodd" stroke="none"/>
  </g>
</svg>
