<?xml version="1.0" encoding="UTF-8" standalone="no"?>
<svg xmlns:xlink="http://www.w3.org/1999/xlink" height="145.75px" width="47.15px" xmlns="http://www.w3.org/2000/svg">
  <g transform="matrix(1.0, 0.0, 0.0, 1.0, 28.1, 12.15)">
    <path d="M-1.45 -10.25 L2.1 -9.55 Q2.7 -9.4 3.1 -8.9 L3.8 -7.55 Q5.15 -2.75 4.55 2.25 4.25 5.1 2.6 7.25 0.1 5.9 -2.95 5.95 L-4.8 6.25 Q-4.9 2.6 -3.65 -0.95 L-2.45 -3.7 Q-1.65 -5.25 -2.25 -6.5 L-2.8 -6.55 -5.25 -4.6 Q-7.5 -1.9 -8.05 1.75 -8.45 4.5 -7.75 7.1 L-7.8 7.1 Q-9.4 7.5 -10.0 8.6 L-10.05 8.05 -10.0 5.4 Q-10.15 3.95 -9.9 2.5 L-9.05 -1.4 -8.85 -1.35 Q-7.8 -4.65 -5.3 -7.45 -3.65 -9.35 -1.45 -10.25 M1.2 12.35 L2.6 15.05 3.2 17.5 Q3.6 20.5 2.9 23.35 L2.95 23.75 2.75 24.45 2.7 24.45 2.4 24.5 2.25 24.75 2.2 24.9 2.2 24.8 Q1.9 25.0 1.5 24.8 L0.95 24.25 0.85 24.15 -0.6 22.55 Q-1.4 21.65 -2.45 21.05 L-3.85 20.35 -5.65 19.75 -7.35 19.9 Q-8.25 20.25 -8.95 20.95 L-10.9 23.25 -11.25 23.8 -11.5 24.2 -11.85 24.9 -12.05 25.35 -12.45 25.85 Q-13.2 28.7 -13.35 31.6 -14.55 28.5 -14.1 24.95 -13.55 20.2 -11.4 16.6 -8.5 12.2 -3.6 10.75 -1.2 11.2 1.2 12.35 M-9.45 5.6 L-9.45 5.55 -9.45 5.6 M-7.75 13.9 Q-8.95 14.3 -9.7 15.35 -11.0 17.15 -11.55 19.3 L-11.75 19.6 -12.1 21.25 -12.05 21.55 -11.85 21.7 -11.3 21.7 -10.05 20.05 -9.45 19.45 Q-8.6 18.35 -7.35 18.2 -5.2 17.85 -4.45 16.1 -4.1 15.2 -4.8 14.55 -6.0 13.45 -7.75 13.9 M0.7 20.75 L0.65 20.7 0.65 20.75 0.7 20.75 M-9.75 63.75 L-9.4 63.75 -9.35 63.7 -8.75 63.85 -8.7 63.85 -8.75 63.8 -8.45 63.7 Q-8.0 63.55 -8.1 63.05 L-8.1 62.9 -7.55 63.0 -6.25 63.2 Q-5.9 62.7 -6.5 62.25 L-8.25 62.4 -8.45 62.05 -9.65 59.9 -9.7 59.9 -9.6 59.85 Q-9.45 59.7 -9.45 60.05 L-7.4 59.9 -7.5 59.3 -10.05 59.15 -10.4 58.45 -10.35 58.45 -9.9 58.35 -9.4 58.35 -8.3 58.3 -8.05 58.2 -7.95 58.2 -7.85 58.15 -8.25 56.65 -8.85 56.6 -10.0 56.7 -10.4 56.75 Q-11.0 56.75 -11.3 56.3 L-10.55 56.2 -9.35 56.0 -8.8 56.0 -8.65 56.05 Q-8.35 56.15 -8.0 56.4 L-7.8 56.65 -7.65 56.9 Q-7.1 59.3 -5.75 61.3 L-4.95 62.55 -4.8 62.75 -4.65 63.0 -4.3 63.5 -3.25 63.55 -2.1 62.2 -2.35 61.8 -2.4 61.85 -2.95 61.1 -4.9 57.15 -5.6 55.05 -6.55 51.3 -6.6 51.15 Q-6.65 46.9 -5.4 43.2 L-5.35 43.15 -5.05 42.25 -3.8 39.65 -3.7 39.5 -3.45 38.9 -3.45 38.85 -3.6 38.2 -3.75 38.05 -4.15 37.6 -5.05 37.6 -5.85 38.9 -6.95 40.95 -7.1 41.3 -7.65 42.5 Q-7.85 41.95 -7.5 41.35 L-9.55 41.35 -10.15 42.95 -8.6 43.0 -7.95 43.15 -7.85 43.2 -8.3 44.25 -8.4 44.2 -8.5 44.2 -9.05 44.2 -9.45 44.3 -10.05 44.3 -10.5 44.1 -10.45 43.85 -10.35 43.55 -9.6 41.35 -8.8 39.55 -8.7 39.35 -8.55 38.6 -8.25 38.05 Q-7.8 37.1 -8.7 36.8 -9.15 36.8 -9.4 37.3 L-9.4 37.35 -9.55 37.3 -8.85 36.25 -8.8 35.8 -8.5 35.5 -8.3 35.45 -7.75 35.7 -7.7 35.7 -6.55 36.0 -6.2 35.95 Q-5.05 35.7 -4.0 35.95 L-3.85 36.0 -3.8 35.95 -3.15 36.6 -3.2 36.7 Q-2.7 36.85 -2.4 37.35 L-2.3 37.5 -2.0 37.85 Q-1.0 39.0 -0.6 40.45 L-0.45 40.55 0.4 41.0 0.75 41.35 0.55 41.25 Q1.4 41.55 1.05 42.5 L1.0 42.65 Q0.9 42.9 0.95 43.1 1.05 43.65 2.05 43.75 2.75 43.95 2.7 45.0 L2.6 48.2 2.6 48.4 2.55 48.65 2.55 48.85 2.7 50.25 2.65 50.25 0.9 47.6 0.8 48.25 0.05 49.45 Q-0.9 49.4 -0.95 48.4 L-0.95 47.6 Q-0.95 46.75 -0.6 46.0 L-0.55 45.85 -0.65 46.0 -1.35 45.45 -2.45 44.5 -2.9 45.5 Q-3.65 46.95 -3.55 48.95 L-3.5 50.0 Q-3.6 54.65 -1.3 58.45 L-0.85 59.15 -0.55 59.5 0.25 60.45 -0.7 61.85 -1.25 62.7 Q-0.95 63.1 -1.0 63.5 L-1.2 63.95 -1.45 64.2 -2.95 65.5 -3.0 65.5 Q-3.45 65.85 -4.05 66.0 L-4.25 66.05 -6.65 66.5 -7.85 66.45 -7.35 66.35 -8.1 66.4 -9.4 64.4 -9.65 63.95 -9.75 63.75 M-6.6 38.9 L-8.4 38.8 -8.8 39.65 Q-7.65 39.5 -7.1 39.95 L-6.6 38.9 M1.6 53.3 Q1.85 54.75 1.0 55.85 -0.05 55.95 -0.25 54.95 L-0.4 53.25 Q-0.45 52.35 0.35 51.9 1.25 52.3 1.6 53.3 M6.35 51.8 Q5.9 50.9 6.6 50.15 7.05 52.0 6.7 53.75 6.15 52.7 6.35 51.8 M0.4 85.65 L-0.15 86.15 -1.2 87.5 -1.75 88.55 Q-3.0 91.05 -3.7 93.95 -4.5 93.0 -5.8 93.05 L-7.75 92.95 -8.65 93.0 -8.65 93.05 Q-11.35 93.4 -12.9 95.95 -13.65 97.95 -13.1 100.15 L-13.8 100.9 Q-17.1 91.8 -16.2 82.0 -15.7 76.1 -14.0 70.6 L-13.55 71.05 -12.6 71.05 -12.0 70.6 -11.65 69.95 -10.9 67.9 Q-10.3 69.25 -8.95 69.95 L-7.4 70.05 -5.75 69.85 -4.15 68.8 Q-3.15 68.75 -2.3 69.25 L-2.25 69.3 Q-1.75 70.2 -1.7 71.2 L-1.95 72.15 -1.5 71.8 -2.55 72.55 Q-5.1 73.9 -8.0 73.6 L-8.55 73.5 Q-9.6 73.35 -9.25 74.3 L-8.5 75.05 Q-5.5 76.1 -2.6 75.15 L-2.55 75.25 Q-2.3 74.9 -1.8 74.95 0.15 75.6 0.3 77.75 L0.4 78.45 Q1.2 81.75 0.95 85.1 L0.4 85.65 M14.55 128.75 Q11.05 129.3 7.45 128.7 L2.5 127.4 Q5.25 122.35 7.6 117.1 L7.2 118.05 9.2 118.0 Q10.5 117.5 11.75 118.25 14.55 119.85 14.9 123.05 15.2 125.9 14.55 128.7 L14.55 128.75 M-2.8 116.2 L-2.9 115.3 Q-5.25 106.35 -3.35 97.65 -2.85 93.25 -1.0 89.4 L-0.05 89.0 Q2.95 87.2 5.2 90.1 L6.25 91.75 Q8.85 97.2 9.1 103.3 9.2 106.1 8.45 108.9 L7.7 111.3 Q7.25 112.85 6.15 113.9 L5.05 115.35 Q3.15 118.85 -0.75 117.7 L-2.8 116.2 M11.15 126.4 Q11.65 123.35 10.25 120.7 L10.1 120.4 Q9.45 119.15 8.1 119.05 7.35 119.3 7.0 120.05 L4.8 124.6 Q4.4 125.55 5.0 126.35 5.65 127.3 6.75 127.5 8.6 127.85 10.45 127.55 11.0 127.1 11.15 126.4 M-6.75 65.0 L-6.75 65.05 -6.75 65.0 M-8.0 73.6 L-7.8 72.75 -7.85 72.8 -8.0 73.6 M-9.45 71.9 L-9.55 72.0 -9.5 72.0 -9.45 71.9 M-12.0 75.25 L-12.05 75.3 Q-13.6 75.5 -13.65 77.1 -14.75 80.9 -14.55 85.0 -14.4 88.05 -13.0 90.7 -12.65 91.4 -11.85 91.2 -9.4 90.55 -10.75 88.1 -11.8 83.1 -10.6 78.05 -10.1 75.9 -12.0 75.25 M-17.5 91.9 Q-16.8 97.15 -15.1 102.25 -18.55 105.95 -20.75 110.45 -21.9 104.6 -20.5 98.85 L-20.1 97.65 -17.5 91.9 M-12.1 100.7 L-11.85 100.6 Q-9.7 99.5 -7.6 100.55 L-7.6 100.75 Q-9.2 106.85 -10.15 113.15 -10.8 117.7 -10.95 122.4 -11.05 127.3 -10.05 131.9 L-11.1 132.05 Q-16.2 132.7 -20.7 130.85 -22.85 128.95 -22.7 126.0 -22.45 124.65 -22.45 123.0 -22.15 118.5 -20.75 114.2 L-19.3 110.45 Q-16.8 104.85 -12.1 100.7 M-20.75 114.2 L-20.45 114.3 -20.75 114.2 M-8.95 91.85 L-8.95 91.95 -8.8 91.9 -8.95 91.85 M-1.8 97.55 Q-2.35 99.65 -2.5 101.85 -2.85 107.95 -0.8 113.55 L-0.15 114.7 -0.65 113.9 0.3 114.8 0.4 114.8 0.5 114.85 0.6 114.9 0.95 114.8 1.15 114.65 1.2 114.6 1.3 114.45 1.4 114.35 Q1.85 113.2 1.75 111.95 L1.55 109.8 Q1.3 108.15 1.4 106.5 L1.75 102.1 2.05 99.9 2.15 98.8 Q2.35 96.6 2.15 94.4 2.05 93.35 1.5 92.45 0.45 92.55 -0.1 93.45 L-0.45 94.05 -1.05 95.05 -1.1 95.15 -1.0 94.8 -1.8 97.55 M-10.3 102.0 L-10.35 101.9 -10.8 101.6 -11.05 101.65 -11.1 101.7 Q-13.15 103.2 -14.7 105.25 -18.6 110.45 -20.35 116.85 -21.8 122.2 -20.55 127.65 -19.95 130.2 -17.35 129.3 L-17.0 128.7 Q-16.3 124.8 -16.3 120.85 -16.25 116.35 -14.65 112.15 L-14.45 111.4 Q-14.05 109.2 -12.95 107.25 -11.45 104.65 -10.3 102.0 M3.15 115.15 L3.1 115.25 3.1 115.3 3.15 115.15 M-22.1 112.7 L-21.85 113.2 Q-24.0 119.35 -24.05 126.15 -26.7 124.15 -26.9 121.1 -25.35 117.8 -23.45 114.65 L-22.75 114.5 -22.55 114.35 -23.1 114.1 -22.15 112.75 -22.1 112.7" fill="#666666" fill-rule="evenodd" stroke="none"/>
    <path d="M-1.45 -10.25 L0.65 -10.85 Q2.55 -11.7 4.3 -10.8 6.0 -9.9 7.55 -8.55 L7.8 -8.0 Q11.0 -4.45 11.6 0.25 12.2 4.85 12.05 9.6 11.3 14.0 9.7 18.1 L9.6 18.7 9.45 18.9 9.35 18.9 9.1 18.9 Q8.55 18.8 8.3 18.1 L8.15 17.5 8.1 17.55 Q6.1 14.0 2.7 11.8 -0.6 9.7 -4.45 9.95 L-4.85 10.0 Q-7.3 10.55 -9.1 12.3 L-9.05 11.95 Q-9.75 11.7 -9.8 10.9 L-10.0 9.0 -10.0 8.9 -10.0 8.6 Q-9.4 7.5 -7.8 7.1 L-7.75 7.1 -7.7 7.4 Q-7.3 8.8 -5.9 8.35 -4.75 7.95 -4.8 6.7 L-4.8 6.25 -2.95 5.95 Q0.1 5.9 2.6 7.25 4.25 5.1 4.55 2.25 5.15 -2.75 3.8 -7.55 L3.1 -8.9 Q2.7 -9.4 2.1 -9.55 L-1.45 -10.25 M1.2 12.35 L2.3 12.9 Q5.15 14.5 6.55 17.45 10.05 24.45 9.5 32.5 8.95 40.55 6.4 47.75 5.7 49.65 4.6 51.45 3.6 48.65 3.75 45.45 L3.75 39.25 Q3.2 34.4 1.5 29.55 0.7 27.35 -0.65 25.65 -2.35 23.6 -4.9 22.25 -6.5 22.4 -7.8 23.55 -9.1 24.75 -10.05 26.25 -11.0 27.9 -11.4 29.8 L-12.45 33.5 -13.35 31.6 Q-13.2 28.7 -12.45 25.85 L-12.05 25.35 -11.85 24.9 -11.5 24.2 -11.25 23.8 -10.9 23.25 -8.95 20.95 Q-8.25 20.25 -7.35 19.9 L-5.65 19.75 -3.85 20.35 -2.45 21.05 Q-1.4 21.65 -0.6 22.55 L0.85 24.15 0.95 24.25 1.5 24.8 Q1.9 25.0 2.2 24.8 L2.2 24.9 2.25 24.75 2.4 24.5 2.7 24.45 2.75 24.45 2.95 23.75 2.9 23.35 Q3.6 20.5 3.2 17.5 L2.6 15.05 1.2 12.35 M0.7 20.75 L0.65 20.75 0.65 20.7 0.7 20.75 M-4.15 68.8 Q-2.25 67.35 -0.85 65.35 L-0.5 64.85 0.05 63.95 0.6 63.0 2.75 58.2 3.8 52.85 Q4.35 53.1 4.95 52.85 7.9 58.1 9.4 63.95 10.2 67.25 10.55 70.8 11.5 80.45 8.85 89.8 6.8 85.75 2.05 84.3 L1.9 84.45 0.4 85.65 0.95 85.1 Q1.2 81.75 0.4 78.45 L0.3 77.75 Q0.15 75.6 -1.8 74.95 -2.3 74.9 -2.55 75.25 L-2.6 75.15 Q-5.5 76.1 -8.5 75.05 L-9.25 74.3 Q-9.6 73.35 -8.55 73.5 L-8.0 73.6 Q-5.1 73.9 -2.55 72.55 L-1.5 71.8 -1.95 72.15 -1.7 71.2 Q-1.75 70.2 -2.25 69.3 L-2.3 69.25 Q-3.15 68.75 -4.15 68.8 M7.6 117.1 L8.05 116.15 11.5 115.55 Q13.3 115.05 14.9 115.5 L15.95 116.7 Q18.15 122.0 18.05 127.85 L14.55 128.75 14.55 128.7 Q15.2 125.9 14.9 123.05 14.55 119.85 11.75 118.25 10.5 117.5 9.2 118.0 L7.2 118.05 7.6 117.1 M-1.0 89.4 L-0.5 88.35 0.1 87.3 Q1.75 85.6 4.0 86.25 6.2 87.55 7.3 89.75 L9.6 93.95 Q13.85 103.45 14.7 113.75 11.7 112.95 8.85 114.05 7.8 113.9 6.95 114.65 2.9 120.1 1.7 126.8 L1.25 126.8 -1.3 121.25 Q-2.4 118.8 -2.8 116.2 L-0.75 117.7 Q3.15 118.85 5.05 115.35 L6.15 113.9 Q7.25 112.85 7.7 111.3 L8.45 108.9 Q9.2 106.1 9.1 103.3 8.85 97.2 6.25 91.75 L5.2 90.1 Q2.95 87.2 -0.05 89.0 L-1.0 89.4 M-10.05 131.9 Q-11.05 127.3 -10.95 122.4 -10.8 117.7 -10.15 113.15 -9.2 106.85 -7.6 100.75 L-7.6 100.55 Q-9.7 99.5 -11.85 100.6 L-12.1 100.7 -11.3 100.05 -8.25 97.9 Q-6.7 96.85 -4.65 97.25 -5.65 104.65 -4.75 112.45 -3.9 120.25 -0.2 127.15 -0.15 127.65 -0.65 127.9 L-1.65 128.45 -1.85 127.5 -1.7 128.25 -1.9 128.4 -2.2 128.4 -2.25 128.4 -2.1 128.65 Q-5.6 131.15 -10.05 131.9" fill="#4d4f4d" fill-rule="evenodd" stroke="none"/>
    <path d="M9.35 18.9 L9.45 18.9 9.6 18.7 9.7 18.1 Q11.3 14.0 12.05 9.6 12.2 4.85 11.6 0.25 11.0 -4.45 7.8 -8.0 L7.55 -8.55 Q6.0 -9.9 4.3 -10.8 2.55 -11.7 0.65 -10.85 L-1.45 -10.25 Q-3.65 -9.35 -5.3 -7.45 -7.8 -4.65 -8.85 -1.35 L-8.95 -1.65 -9.05 -1.4 -9.9 2.5 Q-10.15 3.95 -10.0 5.4 L-10.05 8.05 -10.0 8.6 -10.0 8.9 -10.0 9.0 -9.8 10.9 Q-9.75 11.7 -9.05 11.95 L-9.1 12.3 Q-7.3 10.55 -4.85 10.0 L-4.45 9.95 Q-0.6 9.7 2.7 11.8 6.1 14.0 8.1 17.55 L8.15 17.5 8.3 18.1 Q8.55 18.8 9.1 18.9 L9.05 19.6 9.35 18.9 M-4.05 -10.3 Q-0.75 -12.65 3.4 -12.0 8.1 -10.9 10.55 -6.55 13.55 -0.05 13.2 7.4 12.8 14.8 9.4 21.0 11.25 28.1 10.55 35.2 9.75 42.25 7.2 48.9 7.95 50.2 7.95 51.95 7.95 53.65 7.3 55.15 9.5 59.3 10.7 63.95 L11.55 68.35 Q12.6 75.5 11.55 82.75 10.85 87.1 9.5 91.35 11.95 96.6 13.85 102.2 15.7 107.8 15.55 113.85 L16.7 115.55 Q19.6 121.35 18.95 128.0 18.2 129.5 16.5 129.85 L8.75 130.3 Q4.9 129.7 1.55 128.25 L0.9 128.25 Q-2.8 130.7 -6.8 132.45 -10.8 134.2 -15.7 133.3 L-19.1 132.65 Q-20.9 132.5 -22.1 131.2 -23.0 129.15 -24.15 127.55 -27.55 125.7 -28.1 122.0 -28.05 118.45 -26.65 115.5 -25.3 112.45 -23.5 109.8 -24.55 103.05 -23.5 96.65 -22.45 90.25 -18.3 85.1 L-17.75 84.65 Q-17.4 73.6 -12.7 63.95 L-11.85 62.25 Q-14.5 56.8 -14.45 50.1 -14.4 43.45 -11.3 38.1 -12.25 37.5 -12.2 36.35 -12.2 35.2 -13.15 34.65 -16.05 30.75 -15.5 25.8 -15.0 20.8 -12.8 16.9 L-10.35 13.75 Q-10.9 12.4 -10.45 11.0 L-10.6 11.5 Q-11.0 10.6 -11.0 9.55 L-11.2 5.15 -11.1 4.3 Q-11.05 -4.35 -4.4 -10.3 L-4.05 -10.3 M-13.35 31.6 L-12.45 33.5 -11.4 29.8 Q-11.0 27.9 -10.05 26.25 -9.1 24.75 -7.8 23.55 -6.5 22.4 -4.9 22.25 -2.35 23.6 -0.65 25.65 0.7 27.35 1.5 29.55 3.2 34.4 3.75 39.25 L3.75 45.45 Q3.6 48.65 4.6 51.45 5.7 49.65 6.4 47.75 8.95 40.55 9.5 32.5 10.05 24.45 6.55 17.45 5.15 14.5 2.3 12.9 L1.2 12.35 Q-1.2 11.2 -3.6 10.75 -8.5 12.2 -11.4 16.6 -13.55 20.2 -14.1 24.95 -14.55 28.5 -13.35 31.6 M-9.45 5.6 L-9.45 5.55 -9.45 5.6 M-6.7 24.75 L-6.8 24.75 -7.45 25.4 Q-7.8 25.95 -7.8 26.65 L-9.8 29.4 -10.5 30.85 Q-11.75 33.7 -10.6 36.85 L-10.0 36.15 Q-9.65 35.85 -9.8 35.45 -9.4 34.95 -8.85 34.85 L-8.9 34.7 Q-6.95 35.65 -4.65 34.75 L-4.5 34.75 -4.25 34.9 -3.35 35.15 -2.65 35.65 -2.45 35.75 -2.35 36.1 Q-1.8 37.5 -0.55 38.1 L-0.5 38.35 Q-0.2 39.95 1.3 40.15 L1.85 40.35 2.0 40.35 2.25 40.8 2.7 41.65 2.85 41.9 2.85 41.55 2.9 40.8 2.7 39.3 Q2.8 38.55 2.35 38.05 L1.9 35.9 1.85 34.05 1.45 33.65 1.15 33.6 1.15 34.25 Q1.2 33.1 0.85 32.0 0.05 29.6 -1.15 27.6 -1.05 27.2 -1.2 26.75 L-1.55 25.7 Q-1.9 24.55 -2.9 24.25 L-3.0 24.25 -3.0 24.2 Q-4.35 23.05 -5.75 23.85 -6.65 24.25 -6.7 24.75 M-10.3 38.55 Q-11.55 40.85 -12.25 43.45 -13.5 47.7 -13.25 52.05 L-13.2 52.9 -13.2 52.95 Q-12.65 58.65 -9.75 63.75 L-9.65 63.95 -9.4 64.4 -8.1 66.4 -7.35 66.35 -7.85 66.45 -6.65 66.5 -4.25 66.05 -4.05 66.0 Q-3.45 65.85 -3.0 65.5 L-2.95 65.5 -1.45 64.2 -1.2 63.95 -1.0 63.5 Q-0.95 63.1 -1.25 62.7 L-0.7 61.85 0.25 60.45 0.7 59.8 1.1 59.15 Q2.1 57.3 2.25 55.1 2.35 52.9 3.05 51.3 L2.75 50.4 2.7 50.25 2.55 48.85 2.55 48.65 2.6 48.4 2.6 48.2 2.7 45.0 Q2.75 43.95 2.05 43.75 1.05 43.65 0.95 43.1 0.9 42.9 1.0 42.65 L1.05 42.5 Q1.4 41.55 0.55 41.25 L0.75 41.35 0.4 41.0 -0.45 40.55 -0.6 40.45 Q-1.0 39.0 -2.0 37.85 L-2.3 37.5 -2.4 37.35 Q-2.7 36.85 -3.2 36.7 L-3.15 36.6 -3.8 35.95 -3.85 36.0 -4.0 35.95 Q-5.05 35.7 -6.2 35.95 L-6.55 36.0 -7.7 35.7 -7.5 35.4 -7.75 35.7 -8.3 35.45 -8.5 35.5 -8.8 35.8 -8.85 36.25 -9.55 37.3 -10.3 38.55 M6.35 51.8 Q6.15 52.7 6.7 53.75 7.05 52.0 6.6 50.15 5.9 50.9 6.35 51.8 M0.4 85.65 L1.9 84.45 2.05 84.3 Q6.8 85.75 8.85 89.8 11.5 80.45 10.55 70.8 10.2 67.25 9.4 63.95 7.9 58.1 4.95 52.85 4.35 53.1 3.8 52.85 L2.75 58.2 0.6 63.0 0.05 63.95 -0.5 64.85 -0.85 65.35 Q-2.25 67.35 -4.15 68.8 L-5.75 69.85 -7.4 70.05 -8.95 69.95 Q-10.3 69.25 -10.9 67.9 L-10.95 67.75 Q-11.3 66.05 -10.35 64.7 L-11.25 63.55 -11.45 63.9 -11.45 63.95 -11.7 64.45 -11.8 64.75 -11.9 64.9 -11.95 65.1 Q-13.15 67.8 -14.0 70.6 -15.7 76.1 -16.2 82.0 -17.1 91.8 -13.8 100.9 L-13.1 100.15 Q-13.65 97.95 -12.9 95.95 -11.35 93.4 -8.65 93.05 L-8.65 93.0 -7.75 92.95 -5.8 93.05 Q-4.5 93.0 -3.7 93.95 -3.0 91.05 -1.75 88.55 L-1.2 87.5 -0.15 86.15 0.4 85.65 M14.55 128.75 L18.05 127.85 Q18.15 122.0 15.95 116.7 L14.9 115.5 Q13.3 115.05 11.5 115.55 L8.05 116.15 7.6 117.1 Q5.25 122.35 2.5 127.4 L7.45 128.7 Q11.05 129.3 14.55 128.75 M-2.8 116.2 Q-2.4 118.8 -1.3 121.25 L1.25 126.8 1.7 126.8 Q2.9 120.1 6.95 114.65 7.8 113.9 8.85 114.05 11.7 112.95 14.7 113.75 13.85 103.45 9.6 93.95 L7.3 89.75 Q6.2 87.55 4.0 86.25 1.75 85.6 0.1 87.3 L-0.5 88.35 -1.0 89.4 Q-2.85 93.25 -3.35 97.65 -5.25 106.35 -2.9 115.3 L-2.8 116.2 M-9.45 71.9 L-9.5 72.0 -9.55 72.0 -9.45 71.9 M-8.0 73.6 L-7.85 72.8 -7.8 72.75 -8.0 73.6 M-17.5 91.9 Q-17.9 89.05 -17.95 86.2 -21.1 90.45 -22.1 95.55 -22.65 99.5 -22.8 103.75 -22.95 108.0 -21.3 111.55 L-20.75 110.45 Q-18.55 105.95 -15.1 102.25 -16.8 97.15 -17.5 91.9 M-12.1 100.7 Q-16.8 104.85 -19.3 110.45 L-20.75 114.2 Q-22.15 118.5 -22.45 123.0 -22.45 124.65 -22.7 126.0 -22.85 128.95 -20.7 130.85 -16.2 132.7 -11.1 132.05 L-10.05 131.9 Q-5.6 131.15 -2.1 128.65 L-2.25 128.4 -2.2 128.4 -1.9 128.4 -1.7 128.25 -1.85 127.5 -1.65 128.45 -0.65 127.9 Q-0.15 127.65 -0.2 127.15 -3.9 120.25 -4.75 112.45 -5.65 104.65 -4.65 97.25 -6.7 96.85 -8.25 97.9 L-11.3 100.05 -12.1 100.7 M-8.95 91.85 L-8.8 91.9 -8.95 91.95 -8.95 91.85 M-26.9 121.1 Q-26.7 124.15 -24.05 126.15 -24.0 119.35 -21.85 113.2 L-22.1 112.7 -23.15 110.95 -24.7 113.95 -24.6 113.95 -23.6 114.0 -23.35 114.05 -23.1 114.1 -22.55 114.35 -22.75 114.5 -23.45 114.65 Q-24.25 114.7 -24.95 114.2 -26.5 117.0 -26.9 120.1 L-26.9 121.1" fill="#000000" fill-rule="evenodd" stroke="none"/>
    <path d="M-4.8 6.25 L-4.8 6.7 Q-4.75 7.95 -5.9 8.35 -7.3 8.8 -7.7 7.4 L-7.75 7.1 Q-8.45 4.5 -8.05 1.75 -7.5 -1.9 -5.25 -4.6 L-2.8 -6.55 -2.25 -6.5 Q-1.65 -5.25 -2.45 -3.7 L-3.65 -0.95 Q-4.9 2.6 -4.8 6.25 M-7.75 13.9 Q-6.0 13.45 -4.8 14.55 -4.1 15.2 -4.45 16.1 -5.2 17.85 -7.35 18.2 -8.6 18.35 -9.45 19.45 L-10.05 20.05 -11.3 21.7 -11.85 21.7 -12.05 21.55 -12.1 21.25 -11.75 19.6 -11.55 19.3 Q-11.0 17.15 -9.7 15.35 -8.95 14.3 -7.75 13.9 M-14.0 70.6 Q-13.15 67.8 -11.95 65.1 L-11.9 64.9 -11.8 64.75 -11.7 64.45 -11.45 63.95 -11.45 63.9 -11.25 63.55 -10.35 64.7 Q-11.3 66.05 -10.95 67.75 L-10.9 67.9 -11.65 69.95 -12.0 70.6 -12.6 71.05 -13.55 71.05 -14.0 70.6 M11.15 126.4 Q11.0 127.1 10.45 127.55 8.6 127.85 6.75 127.5 5.65 127.3 5.0 126.35 4.4 125.55 4.8 124.6 L7.0 120.05 Q7.35 119.3 8.1 119.05 9.45 119.15 10.1 120.4 L10.25 120.7 Q11.65 123.35 11.15 126.4 M-12.0 75.25 Q-10.1 75.9 -10.6 78.05 -11.8 83.1 -10.75 88.1 -9.4 90.55 -11.85 91.2 -12.65 91.4 -13.0 90.7 -14.4 88.05 -14.55 85.0 -14.75 80.9 -13.65 77.1 -13.6 75.5 -12.05 75.3 L-12.0 75.25 M-20.75 110.45 L-21.3 111.55 Q-22.95 108.0 -22.8 103.75 -22.65 99.5 -22.1 95.55 -21.1 90.45 -17.95 86.2 -17.9 89.05 -17.5 91.9 L-20.1 97.65 -20.5 98.85 Q-21.9 104.6 -20.75 110.45 M-10.3 102.0 Q-11.45 104.65 -12.95 107.25 -14.05 109.2 -14.45 111.4 L-14.65 112.15 Q-16.25 116.35 -16.3 120.85 -16.3 124.8 -17.0 128.7 L-17.35 129.3 Q-19.95 130.2 -20.55 127.65 -21.8 122.2 -20.35 116.85 -18.6 110.45 -14.7 105.25 -13.15 103.2 -11.1 101.7 L-11.05 101.65 -10.8 101.6 -10.35 101.9 -10.3 102.0 M-1.8 97.55 L-1.0 94.8 -1.1 95.15 -1.05 95.05 -0.45 94.05 -0.1 93.45 Q0.45 92.55 1.5 92.45 2.05 93.35 2.15 94.4 2.35 96.6 2.15 98.8 L2.05 99.9 1.75 102.1 1.4 106.5 Q1.3 108.15 1.55 109.8 L1.75 111.95 Q1.85 113.2 1.4 114.35 L1.3 114.45 1.2 114.6 1.15 114.65 0.95 114.8 0.6 114.9 0.5 114.85 0.4 114.8 0.3 114.8 -0.65 113.9 -0.15 114.7 -0.8 113.55 Q-2.85 107.95 -2.5 101.85 -2.35 99.65 -1.8 97.55 M-22.1 112.7 L-22.15 112.75 -23.1 114.1 -23.35 114.05 -23.6 114.0 -24.6 113.95 -24.7 113.95 -23.15 110.95 -22.1 112.7 M-23.45 114.65 Q-25.35 117.8 -26.9 121.1 L-26.9 120.1 Q-26.5 117.0 -24.95 114.2 -24.25 114.7 -23.45 114.65" fill="#8c8c8c" fill-rule="evenodd" stroke="none"/>
    <path d="M-8.85 -1.35 L-9.05 -1.4 -8.95 -1.65 -8.85 -1.35 M2.45 38.5 L2.4 38.3 2.55 38.45 2.45 38.5 M-7.7 35.7 L-7.75 35.7 -7.5 35.4 -7.7 35.7" fill="#ffffff" fill-rule="evenodd" stroke="none"/>
    <path d="M9.1 18.9 L9.35 18.9 9.05 19.6 9.1 18.9 M-8.85 -1.35 L-9.05 -1.4 -8.85 -1.35 M-13.15 52.9 L-12.9 52.85 -12.3 53.0 -11.8 52.95 -11.85 51.75 -11.75 48.85 -11.6 47.8 -11.25 45.7 -11.2 46.05 -11.3 45.15 Q-10.5 41.65 -9.15 38.6 L-10.3 38.55 -9.55 37.3 -9.4 37.35 -9.4 37.3 Q-9.15 36.8 -8.7 36.8 -7.8 37.1 -8.25 38.05 L-8.55 38.6 -8.7 39.35 -8.8 39.55 -9.6 41.35 -10.35 43.55 -10.45 43.85 -10.5 44.1 -10.05 44.3 -9.45 44.3 -9.05 44.2 -8.5 44.2 -8.4 44.2 -8.3 44.25 -7.85 43.2 -7.95 43.15 -8.6 43.0 -10.15 42.95 -9.55 41.35 -7.5 41.35 Q-7.85 41.95 -7.65 42.5 L-7.1 41.3 -7.05 41.3 Q-7.65 42.65 -7.9 44.1 L-8.35 47.0 -8.65 49.9 -8.6 52.25 -8.55 52.65 -8.5 52.75 -7.5 53.0 -7.6 50.75 Q-7.55 47.6 -6.85 44.65 L-6.5 43.4 Q-5.75 40.9 -4.5 38.7 L-5.85 38.9 -5.05 37.6 -4.15 37.6 -3.75 38.05 -3.6 38.2 -3.45 38.85 -3.45 38.9 -3.7 39.5 -3.8 39.65 -5.05 42.25 -5.35 43.15 -5.4 43.2 Q-6.65 46.9 -6.6 51.15 L-6.55 51.3 -5.6 55.05 -4.9 57.15 -2.95 61.1 -2.4 61.85 -2.35 61.8 -2.1 62.2 -3.25 63.55 -4.3 63.5 -4.65 63.0 -4.8 62.75 -4.95 62.55 -5.75 61.3 Q-7.1 59.3 -7.65 56.9 L-7.8 56.65 -8.0 56.4 Q-8.35 56.15 -8.65 56.05 L-8.8 56.0 -9.35 56.0 -10.55 56.2 -11.3 56.3 Q-11.0 56.75 -10.4 56.75 L-10.0 56.7 -8.85 56.6 -8.25 56.65 -7.85 58.15 -7.95 58.2 -8.05 58.2 -8.3 58.3 -9.4 58.35 -9.9 58.35 -10.35 58.45 -10.4 58.45 -10.05 59.15 -7.5 59.3 -7.4 59.9 -9.45 60.05 Q-9.45 59.7 -9.6 59.85 L-9.7 59.9 -9.85 59.9 -9.65 59.9 -8.45 62.05 -8.25 62.4 -6.5 62.25 Q-5.9 62.7 -6.25 63.2 L-7.55 63.0 -8.1 62.9 -8.1 63.05 Q-8.0 63.55 -8.45 63.7 L-8.75 63.8 -8.75 63.85 -9.35 63.7 -9.4 63.75 -9.75 63.75 Q-12.65 58.65 -13.2 52.95 L-13.15 52.9 M2.75 50.4 L3.05 51.3 Q2.35 52.9 2.25 55.1 2.1 57.3 1.1 59.15 L0.7 59.8 0.25 60.45 -0.55 59.5 -0.85 59.15 -1.3 58.45 Q-3.6 54.65 -3.5 50.0 L-3.55 48.95 Q-3.65 46.95 -2.9 45.5 L-2.45 44.5 -1.35 45.45 -0.65 46.0 -0.6 46.0 Q-0.95 46.75 -0.95 47.6 L-0.95 48.4 Q-0.9 49.4 0.05 49.45 L0.8 48.25 0.9 47.6 2.65 50.25 2.75 50.4 M-6.6 38.9 L-7.1 39.95 Q-7.65 39.5 -8.8 39.65 L-8.4 38.8 -6.6 38.9 M-10.75 44.7 L-10.8 44.75 -10.8 44.9 -10.75 44.7 M1.6 53.3 Q1.25 52.3 0.35 51.9 -0.45 52.35 -0.4 53.25 L-0.25 54.95 Q-0.05 55.95 1.0 55.85 1.85 54.75 1.6 53.3 M-20.75 114.2 L-20.45 114.3 -20.75 114.2" fill="#999999" fill-rule="evenodd" stroke="none"/>
    <path d="M-7.8 26.65 Q-7.8 25.95 -7.45 25.4 L-6.8 24.75 -6.7 24.75 -6.45 25.45 Q-5.7 26.4 -6.55 27.55 L-6.65 28.0 -6.6 28.85 Q-6.45 29.6 -7.05 29.95 L-7.15 28.25 -7.05 25.9 -7.8 26.65 M-3.0 24.25 L-2.9 24.25 Q-1.9 24.55 -1.55 25.7 L-1.2 26.75 Q-1.05 27.2 -1.15 27.6 L-1.4 27.15 -2.3 26.4 Q-3.25 26.1 -3.1 25.45 L-3.0 24.25 M2.35 38.05 Q2.8 38.55 2.7 39.3 L2.45 38.5 2.55 38.45 2.4 38.3 2.4 38.25 2.4 38.2 2.35 38.05 M2.0 40.35 L1.85 40.35 1.9 40.25 2.0 40.35 M-1.35 31.8 L-1.3 31.8 -1.3 31.85 -1.35 31.8" fill="#71412f" fill-rule="evenodd" stroke="none"/>
    <path d="M-7.8 26.65 L-7.05 25.9 -7.15 28.25 -8.45 28.95 -8.65 29.4 Q-9.1 30.25 -9.2 31.2 L-9.2 31.5 Q-9.35 31.55 -9.55 31.75 L-8.9 34.7 -8.85 34.85 Q-9.4 34.95 -9.8 35.45 -9.65 35.85 -10.0 36.15 L-10.6 36.85 Q-11.75 33.7 -10.5 30.85 L-9.8 29.4 -7.8 26.65 M-6.65 28.0 L-6.55 27.55 Q-5.7 26.4 -6.45 25.45 L-6.7 24.75 Q-6.65 24.25 -5.75 23.85 -4.35 23.05 -3.0 24.2 L-3.0 24.25 -3.1 25.45 Q-3.25 26.1 -2.3 26.4 L-1.4 27.15 -1.15 27.6 Q0.05 29.6 0.85 32.0 1.2 33.1 1.15 34.25 L0.8 36.15 0.35 37.15 Q-0.7 36.8 -1.0 35.8 L-1.4 33.95 -1.0 32.8 Q-0.6 32.25 -1.05 31.65 L-1.15 31.7 -1.3 31.85 -1.3 31.8 -1.3 31.15 Q-1.25 30.05 -1.6 29.05 -3.9 27.3 -6.65 28.0 M1.9 35.9 L2.35 38.05 2.4 38.2 2.4 38.25 2.3 38.4 1.7 39.1 1.5 39.35 Q0.2 38.65 0.65 37.3 L1.5 34.85 1.5 34.95 1.8 35.6 1.9 35.9 M2.7 39.3 L2.9 40.8 2.85 41.35 2.5 41.25 2.25 40.8 2.0 40.35 1.9 40.25 1.85 40.1 Q1.4 39.25 2.45 38.5 L2.7 39.3" fill="#91533c" fill-rule="evenodd" stroke="none"/>
    <path d="M-7.15 28.25 L-7.05 29.95 Q-6.45 29.6 -6.6 28.85 L-6.65 28.0 Q-3.9 27.3 -1.6 29.05 -1.25 30.05 -1.3 31.15 L-1.3 31.8 -1.35 31.8 Q-2.15 32.45 -2.4 33.85 -2.65 35.45 -4.5 34.2 L-4.55 33.6 -4.0 33.65 -3.7 32.95 -3.65 32.7 -3.55 31.9 -3.1 29.4 Q-2.95 28.8 -3.55 28.7 L-3.95 29.0 -4.5 30.1 -4.35 29.25 -4.6 29.05 Q-5.55 29.95 -5.65 31.35 -5.85 32.75 -5.4 33.95 -6.8 34.9 -7.95 33.65 L-7.25 33.7 -7.1 33.5 Q-7.05 33.15 -7.3 32.9 L-7.3 32.65 Q-7.25 32.05 -7.55 31.65 L-7.6 30.95 -7.65 30.25 Q-7.75 29.6 -8.35 29.5 L-8.75 29.8 -9.0 30.8 -9.0 31.4 -9.2 31.5 -9.2 31.2 Q-9.1 30.25 -8.65 29.4 L-8.45 28.95 -7.15 28.25 M2.9 40.8 L2.85 41.55 2.7 41.65 2.25 40.8 2.5 41.25 2.85 41.35 2.9 40.8 M-8.8 32.35 L-8.55 33.05 -8.45 33.25 -8.8 32.35 M2.4 38.25 L2.4 38.3 2.3 38.4 2.4 38.25" fill="#a35e43" fill-rule="evenodd" stroke="none"/>
    <path d="M-9.0 31.4 L-9.0 30.8 -8.75 29.8 -8.35 29.5 Q-7.75 29.6 -7.65 30.25 L-7.6 30.95 -7.55 31.65 Q-7.25 32.05 -7.3 32.65 L-7.3 32.9 Q-7.05 33.15 -7.1 33.5 L-7.25 33.7 -7.95 33.65 -8.0 33.65 -8.15 33.45 -8.2 33.4 -8.45 33.25 -8.55 33.05 -8.8 32.35 -8.8 32.1 -8.8 32.0 Q-8.75 31.4 -9.0 31.4 M-4.5 30.1 L-3.95 29.0 -3.55 28.7 Q-2.95 28.8 -3.1 29.4 L-3.55 31.9 -3.65 32.7 -3.7 32.95 -4.0 33.65 -4.55 33.6 -4.6 31.4 -4.5 30.15 -4.5 30.1" fill="#c58770" fill-rule="evenodd" stroke="none"/>
    <path d="M1.15 34.25 L1.15 33.6 1.45 33.65 1.85 34.05 1.9 35.9 1.8 35.6 1.5 34.95 1.5 34.85 0.65 37.3 Q0.2 38.65 1.5 39.35 L1.7 39.1 2.3 38.4 2.4 38.3 2.45 38.5 Q1.4 39.25 1.85 40.1 L1.9 40.25 1.85 40.35 1.3 40.15 Q-0.2 39.95 -0.5 38.35 L-0.55 38.1 Q-1.8 37.5 -2.35 36.1 L-2.45 35.75 -2.65 35.65 -3.35 35.15 -4.25 34.9 -4.5 34.75 -4.65 34.75 Q-6.95 35.65 -8.9 34.7 L-9.55 31.75 Q-9.35 31.55 -9.2 31.5 L-9.0 31.4 Q-8.75 31.4 -8.8 32.0 L-8.8 32.1 -8.8 32.35 -8.45 33.25 -8.2 33.4 -8.15 33.45 -8.0 33.65 -7.95 33.65 Q-6.8 34.9 -5.4 33.95 -5.85 32.75 -5.65 31.35 -5.55 29.95 -4.6 29.05 L-4.35 29.25 -4.5 30.1 -4.5 30.15 -4.6 31.4 -4.55 33.6 -4.5 34.2 Q-2.65 35.45 -2.4 33.85 -2.15 32.45 -1.35 31.8 L-1.3 31.85 -1.15 31.7 -1.05 31.65 Q-0.6 32.25 -1.0 32.8 L-1.4 33.95 -1.0 35.8 Q-0.7 36.8 0.35 37.15 L0.8 36.15 1.15 34.25" fill="#533022" fill-rule="evenodd" stroke="none"/>
    <path d="M-10.3 38.55 L-9.15 38.6 Q-10.5 41.65 -11.3 45.15 L-11.2 46.05 -11.25 45.7 -11.6 47.8 -11.75 48.85 -11.85 51.75 -11.8 52.95 -12.3 53.0 -12.9 52.85 -13.15 52.9 -13.2 52.9 -13.25 52.05 Q-13.5 47.7 -12.25 43.45 -11.55 40.85 -10.3 38.55 M-5.85 38.9 L-4.5 38.7 Q-5.75 40.9 -6.5 43.4 L-6.85 44.65 Q-7.55 47.6 -7.6 50.75 L-7.5 53.0 -8.5 52.75 -8.55 52.65 -8.6 52.25 -8.65 49.9 -8.35 47.0 -7.9 44.1 Q-7.65 42.65 -7.05 41.3 L-6.95 40.95 -5.85 38.9" fill="#cccccc" fill-rule="evenodd" stroke="none"/>
    <path d="M-13.2 52.9 L-13.15 52.9 -13.2 52.95 -13.2 52.9 M-8.5 44.2 L-9.05 44.2 -8.5 44.2" fill="#669999" fill-rule="evenodd" stroke="none"/>
    <path d="M2.85 41.55 L2.85 41.9 2.7 41.65 2.85 41.55" fill="#c2846c" fill-rule="evenodd" stroke="none"/>
    <path d="M-9.65 59.9 L-9.85 59.9 -9.7 59.9 -9.65 59.9 M2.7 50.25 L2.75 50.4 2.65 50.25 2.7 50.25 M-3.85 36.0 L-3.8 35.95 -3.85 36.0 M-10.75 44.7 L-10.8 44.9 -10.8 44.75 -10.75 44.7" fill="#004040" fill-rule="evenodd" stroke="none"/>
    <path d="M-8.75 63.85 L-8.75 63.8 -8.7 63.85 -8.75 63.85 M-7.05 41.3 L-7.1 41.3 -6.95 40.95 -7.05 41.3 M-0.6 46.0 L-0.65 46.0 -0.55 45.85 -0.6 46.0 M-6.75 65.0 L-6.75 65.05 -6.75 65.0" fill="#006666" fill-rule="evenodd" stroke="none"/>
    <path d="M3.15 115.15 L3.1 115.3 3.1 115.25 3.15 115.15" fill="#818181" fill-rule="evenodd" stroke="none"/>
  </g>
</svg>
