<?xml version="1.0" encoding="UTF-8" standalone="no"?>
<svg xmlns:xlink="http://www.w3.org/1999/xlink" height="6.85px" width="9.8px" xmlns="http://www.w3.org/2000/svg">
  <g transform="matrix(1.0, 0.0, 0.0, 1.0, 4.9, 3.4)">
    <path d="M-3.05 -3.4 L-2.85 -3.4 -2.35 -3.05 Q-1.9 -2.6 -1.9 -2.0 -1.9 -1.4 -2.35 -0.95 -2.8 -0.5 -3.4 -0.5 -4.0 -0.5 -4.45 -0.95 -4.9 -1.4 -4.9 -2.0 L-4.7 -2.7 -4.85 -2.35 Q-4.9 -1.65 -4.15 -1.4 -3.3 -1.1 -2.85 -1.85 -2.55 -2.25 -2.65 -2.7 L-3.05 -3.4 M2.1 -2.7 L1.95 -2.35 Q1.9 -1.65 2.65 -1.4 3.5 -1.1 3.95 -1.85 4.25 -2.25 4.15 -2.7 L3.75 -3.4 3.95 -3.4 4.45 -3.05 4.9 -2.0 Q4.9 -1.4 4.45 -0.95 4.0 -0.5 3.4 -0.5 2.8 -0.5 2.35 -0.95 1.9 -1.4 1.9 -2.0 L2.1 -2.7 M0.55 0.55 L0.75 0.55 Q1.0 0.65 1.25 0.9 1.7 1.35 1.7 1.95 1.7 2.55 1.25 3.0 0.8 3.45 0.2 3.45 -0.4 3.45 -0.85 3.0 L-1.3 1.95 -1.1 1.25 -1.25 1.6 Q-1.3 2.3 -0.55 2.55 0.3 2.85 0.75 2.1 1.05 1.7 0.95 1.25 0.85 0.75 0.55 0.55" fill="#990000" fill-rule="evenodd" stroke="none"/>
    <path d="M-4.7 -2.7 L-4.55 -2.9 -4.45 -3.05 -3.9 -3.4 -3.05 -3.4 -2.65 -2.7 Q-2.55 -2.25 -2.85 -1.85 -3.3 -1.1 -4.15 -1.4 -4.9 -1.65 -4.85 -2.35 L-4.7 -2.7 M2.1 -2.7 L2.25 -2.9 2.35 -3.05 2.9 -3.4 3.75 -3.4 4.15 -2.7 Q4.25 -2.25 3.95 -1.85 3.5 -1.1 2.65 -1.4 1.9 -1.65 1.95 -2.35 L2.1 -2.7 M0.55 0.55 Q0.85 0.75 0.95 1.25 1.05 1.7 0.75 2.1 0.3 2.85 -0.55 2.55 -1.3 2.3 -1.25 1.6 L-1.1 1.25 -0.95 1.05 -0.85 0.9 -0.3 0.55 0.55 0.55" fill="#ff0000" fill-rule="evenodd" stroke="none"/>
  </g>
</svg>
