<?xml version="1.0" encoding="UTF-8" standalone="no"?>
<svg xmlns:xlink="http://www.w3.org/1999/xlink" height="101.05px" width="46.4px" xmlns="http://www.w3.org/2000/svg">
  <g transform="matrix(1.0, 0.0, 0.0, 1.0, 26.75, 14.6)">
    <path d="M0.0 -11.4 L1.35 -12.7 Q1.85 -13.4 2.8 -13.3 5.65 -12.5 7.25 -9.5 8.1 -7.0 8.1 -4.3 L7.8 4.45 Q7.45 9.1 9.2 13.2 L9.45 13.9 Q10.6 17.0 10.3 20.45 L9.7 21.6 Q9.25 22.25 9.15 23.0 L8.95 23.1 8.75 23.2 8.0 23.05 Q7.7 22.8 7.4 22.7 6.2 19.6 3.55 17.95 L2.35 17.4 0.8 17.15 1.45 17.25 0.35 16.95 -0.05 16.95 0.05 17.0 -4.35 16.65 -4.4 16.5 Q-6.6 14.3 -9.9 14.85 L-10.55 15.3 -13.75 17.35 Q-14.65 17.8 -15.2 18.6 -16.4 20.4 -17.2 22.4 L-17.2 22.35 Q-17.85 20.4 -17.9 18.4 -15.85 15.3 -16.05 11.5 L-16.05 11.45 Q-16.3 7.65 -15.2 4.25 L-9.1 -5.25 Q-5.95 -10.25 0.0 -11.4 M-3.8 -5.75 L-5.55 -5.45 Q-6.9 -5.0 -8.0 -4.0 L-10.1 -1.55 Q-12.75 2.9 -12.8 8.1 -13.35 9.1 -13.25 10.25 -12.95 13.15 -10.4 12.35 -8.7 10.7 -8.45 8.35 L-7.85 4.15 Q-7.35 1.6 -5.7 -0.25 L-3.15 -3.05 Q-1.4 -5.0 -3.8 -5.75 M2.4 22.3 L2.2 22.2 2.1 22.1 0.05 20.75 -0.6 20.4 -0.65 20.4 Q-1.95 19.9 -3.3 19.65 L-10.25 19.4 -12.4 20.25 Q-13.9 22.45 -14.7 25.2 -15.4 27.8 -14.15 30.3 L-13.85 30.8 -13.7 31.4 -13.2 32.9 -13.3 32.85 Q-14.0 33.0 -14.05 33.8 L-15.2 36.9 -15.9 39.9 -16.05 41.35 -16.15 42.75 -16.5 48.95 -16.05 55.15 -15.75 57.6 -16.15 57.45 -16.6 57.1 -16.95 56.35 -16.95 56.75 -17.05 56.75 -17.05 56.45 -17.1 56.25 -17.15 55.65 -17.25 54.8 -17.3 53.8 -17.8 49.4 -18.05 47.85 -18.15 46.95 -18.25 46.15 -18.25 45.7 -18.3 45.45 -18.35 44.7 -18.55 41.55 -18.55 41.3 -18.45 41.3 -18.35 40.55 -17.95 38.4 -17.8 37.85 -17.65 37.35 -16.55 33.9 -16.5 33.75 -16.8 33.1 -16.85 32.6 Q-17.55 31.85 -17.55 30.7 L-17.4 29.05 -17.3 28.85 -17.2 29.85 Q-15.25 29.95 -15.7 28.35 -16.2 26.75 -15.7 25.5 L-14.4 22.0 Q-13.85 20.15 -12.1 19.1 L-11.95 19.05 -11.1 18.9 -10.3 18.75 -9.7 18.6 Q-5.0 17.95 -0.4 19.3 L-0.1 19.4 0.4 19.55 Q0.85 19.7 1.35 19.95 3.45 20.75 4.05 22.7 L4.95 26.65 4.65 28.9 Q4.6 27.7 3.6 27.15 3.7 24.9 2.7 22.6 L2.55 22.45 2.4 22.3 M0.3 54.55 L-0.35 54.3 0.1 54.35 0.3 54.55 M3.0 40.2 L3.1 40.3 3.5 40.5 3.0 40.2 M1.2 33.3 L1.65 32.9 1.7 33.05 1.75 33.15 1.2 33.3 M2.0 31.9 L2.0 31.85 2.05 31.8 2.0 31.9 M11.4 25.55 L11.2 24.35 Q10.45 23.5 10.75 22.55 12.0 23.5 12.5 25.15 L12.4 27.85 14.1 27.7 Q14.15 28.75 13.4 29.55 L13.3 29.65 13.2 29.8 11.95 29.9 Q12.4 30.2 12.65 30.8 L12.85 31.2 Q13.5 33.1 13.0 35.15 L12.85 36.05 Q12.3 38.55 10.75 40.6 9.3 42.4 7.0 41.75 5.95 41.5 5.35 40.6 L4.95 39.8 4.9 39.5 3.8 33.75 4.15 33.7 4.35 33.65 3.8 33.7 3.75 33.45 3.6 32.95 4.3 30.75 4.25 31.1 4.35 31.1 5.15 31.15 7.15 30.7 7.85 30.3 9.1 29.0 8.55 26.3 8.55 26.25 8.65 26.1 8.7 25.75 Q9.4 26.25 9.55 27.15 9.7 28.0 10.4 28.4 L10.45 28.3 10.65 28.3 10.9 27.85 11.0 27.65 11.4 26.15 11.4 25.85 11.4 25.7 11.4 25.55 M10.15 32.85 Q10.55 30.95 8.65 31.0 6.35 32.4 5.8 34.95 5.3 36.95 7.25 37.1 9.25 37.2 9.6 35.2 L9.8 34.25 10.15 32.85 M14.85 41.1 Q15.25 41.65 15.2 42.6 L14.75 44.6 14.15 45.05 15.3 45.85 15.6 47.75 15.55 48.0 Q15.45 49.25 14.65 50.25 L12.4 52.95 Q9.9 55.8 6.1 54.85 L6.0 54.8 5.25 54.15 4.95 56.9 4.95 56.95 4.95 57.0 4.55 57.6 4.5 57.7 4.75 56.45 5.2 53.45 Q5.5 50.65 5.4 47.75 L6.85 47.75 Q8.7 47.55 10.25 46.45 12.4 44.9 14.05 42.65 L14.85 41.1 M9.05 47.35 Q8.4 47.6 7.95 48.25 7.2 49.3 7.1 50.55 7.05 51.4 7.85 51.6 10.2 52.15 10.85 49.75 11.45 47.4 9.05 47.35 M6.4 49.9 L6.25 49.8 6.25 50.0 6.4 49.9 M2.4 57.65 L2.35 57.7 2.4 57.7 2.35 57.9 2.15 57.9 2.4 57.65" fill="#003333" fill-rule="evenodd" stroke="none"/>
    <path d="M0.0 -11.4 Q-5.95 -10.25 -9.1 -5.25 L-15.2 4.25 Q-16.3 7.65 -16.05 11.45 L-16.05 11.5 Q-15.85 15.3 -17.9 18.4 -17.85 20.4 -17.2 22.35 L-17.2 22.4 Q-16.4 20.4 -15.2 18.6 -14.65 17.8 -13.75 17.35 L-10.55 15.3 -9.9 14.85 Q-6.6 14.3 -4.4 16.5 L-4.35 16.65 0.05 17.0 -0.05 16.95 0.35 16.95 1.45 17.25 0.8 17.15 2.35 17.4 3.55 17.95 Q6.2 19.6 7.4 22.7 7.7 22.8 8.0 23.05 L8.75 23.2 8.95 23.1 9.15 23.0 Q9.25 22.25 9.7 21.6 L10.3 20.45 Q10.6 17.0 9.45 13.9 L9.2 13.2 Q7.45 9.1 7.8 4.45 L8.1 -4.3 Q8.1 -7.0 7.25 -9.5 5.65 -12.5 2.8 -13.3 1.85 -13.4 1.35 -12.7 L0.0 -11.4 M-2.0 -13.2 Q-1.15 -13.25 -0.7 -14.25 3.65 -15.25 7.4 -13.3 11.2 -11.45 14.15 -8.15 18.2 -3.85 16.25 1.75 16.45 3.45 15.75 4.9 15.1 6.3 15.45 7.7 14.6 8.75 14.75 10.25 L14.8 11.45 14.8 13.0 14.95 13.0 15.0 13.75 14.8 13.95 Q14.7 14.95 15.1 15.6 15.15 18.0 15.9 20.05 15.9 22.4 16.3 24.85 16.65 27.3 15.0 29.3 15.25 31.7 16.15 33.9 16.95 36.1 17.3 38.55 16.9 41.05 15.75 43.2 17.3 46.8 17.45 51.3 17.6 55.7 15.1 59.0 17.4 62.35 17.45 66.6 17.9 69.25 19.15 71.8 20.3 74.3 18.9 77.15 16.9 79.5 14.5 80.85 12.05 82.15 9.05 81.25 7.6 81.95 6.85 83.25 4.75 85.15 1.9 84.4 0.4 86.0 -1.4 86.25 L-5.55 86.4 Q-9.1 86.1 -10.15 82.8 -10.85 81.25 -12.05 82.15 L-14.4 82.3 -15.85 82.4 -17.1 83.45 Q-19.15 84.1 -21.35 84.55 -23.6 85.0 -25.5 83.45 -25.6 81.4 -26.45 79.85 -26.9 76.6 -26.7 73.15 -26.55 69.8 -23.95 67.6 -21.95 65.8 -21.1 63.3 -20.35 60.95 -18.35 59.1 -18.0 58.95 -17.75 58.4 L-17.55 57.8 -17.55 57.7 -17.55 57.6 -17.55 57.5 -17.55 57.45 -17.55 57.3 -17.6 57.3 -17.65 57.25 -17.75 57.2 -17.8 57.1 -17.8 57.05 -17.8 56.95 Q-18.65 54.25 -19.0 51.45 L-19.95 43.75 Q-20.25 41.5 -19.65 39.4 -19.15 35.6 -18.05 31.95 -19.3 28.95 -19.05 25.35 -17.4 23.2 -18.3 20.75 L-18.7 19.35 -18.7 19.3 -17.95 17.05 -17.6 15.7 -17.5 15.3 Q-17.1 13.6 -17.05 11.8 L-17.0 11.45 -16.3 4.85 -15.4 0.35 -15.2 0.4 Q-14.6 -1.05 -13.3 -2.25 -12.05 -3.55 -12.25 -5.15 -8.6 -9.85 -3.55 -12.6 -2.85 -13.15 -2.0 -13.2 M-13.2 32.9 L-13.1 33.15 -14.0 35.75 -14.45 37.9 -14.4 37.9 -14.8 38.35 -15.05 39.0 -15.3 40.85 Q-15.7 43.95 -15.7 47.0 L-15.55 50.85 -15.4 53.25 -15.3 55.8 Q-15.05 56.25 -15.05 56.9 -15.1 57.35 -15.45 57.6 L-15.35 57.6 -15.0 57.65 -15.2 58.15 -15.35 58.85 Q-15.4 59.5 -14.9 59.9 L-13.8 60.45 -13.2 60.6 -13.0 60.65 -11.0 60.85 -2.05 61.0 Q0.45 59.95 2.15 57.9 L2.35 57.9 2.4 57.7 2.5 57.7 2.8 57.6 2.95 57.35 3.05 56.95 2.9 56.55 3.25 56.75 Q4.0 54.65 3.75 52.6 L3.7 52.55 3.7 52.5 3.85 51.55 3.85 51.6 3.9 51.45 3.9 51.15 Q4.15 49.05 4.05 46.8 L4.2 46.5 Q4.35 46.05 4.15 45.65 L4.05 45.55 3.75 40.7 3.6 40.6 3.5 40.5 3.1 40.3 3.55 40.55 Q4.15 39.8 3.45 38.95 L3.25 38.8 Q2.85 35.85 1.8 33.1 L1.75 33.15 1.7 33.05 1.65 32.9 1.95 32.45 2.05 31.95 2.0 31.9 2.05 31.8 2.2 31.6 Q3.5 29.4 3.6 27.15 4.6 27.7 4.65 28.9 L4.95 26.65 4.05 22.7 Q3.45 20.75 1.35 19.95 0.85 19.7 0.4 19.55 L-0.1 19.4 -0.4 19.3 Q-5.0 17.95 -9.7 18.6 L-10.3 18.75 -11.1 18.9 -11.95 19.05 -12.1 19.1 Q-13.85 20.15 -14.4 22.0 L-15.7 25.5 Q-16.2 26.75 -15.7 28.35 -15.25 29.95 -17.2 29.85 L-17.3 28.85 -17.4 29.05 -17.55 30.7 Q-17.55 31.85 -16.85 32.6 L-16.8 33.1 -16.5 33.75 -16.55 33.9 -17.65 37.35 -17.8 37.85 -17.95 38.4 -18.35 40.55 -18.45 41.3 -18.55 41.15 -18.55 41.3 -18.55 41.55 -18.35 44.7 -18.3 45.45 -18.25 45.7 -18.25 46.15 -18.15 46.95 -18.05 47.85 -17.8 49.4 -17.3 53.8 -17.25 54.8 -17.15 55.65 -17.1 56.25 -17.05 56.45 -17.05 56.75 -17.15 56.9 -16.9 57.35 -16.95 56.75 -16.95 56.35 -16.6 57.1 -16.15 57.45 -15.75 57.6 -16.05 55.15 -16.5 48.95 -16.15 42.75 -16.05 41.35 -15.9 39.9 -15.2 36.9 -14.05 33.8 Q-14.0 33.0 -13.3 32.85 L-13.2 32.9 M11.4 25.55 L11.4 25.7 11.4 25.85 11.4 26.15 11.0 27.65 10.9 27.85 10.65 28.3 10.45 28.3 10.4 28.4 Q9.7 28.0 9.55 27.15 9.4 26.25 8.7 25.75 L8.65 26.1 8.55 26.25 8.55 26.3 9.1 29.0 7.85 30.3 7.15 30.7 5.15 31.15 4.35 31.1 4.25 31.1 4.3 30.75 3.6 32.95 3.75 33.45 3.8 33.7 4.35 33.65 4.15 33.7 3.8 33.75 4.9 39.5 4.95 39.8 5.35 40.6 Q5.95 41.5 7.0 41.75 9.3 42.4 10.75 40.6 12.3 38.55 12.85 36.05 L13.0 35.15 Q13.5 33.1 12.85 31.2 L12.65 30.8 Q12.4 30.2 11.95 29.9 L13.2 29.8 13.3 29.65 13.4 29.55 Q14.15 28.75 14.1 27.7 L12.4 27.85 12.5 25.15 Q12.0 23.5 10.75 22.55 10.45 23.5 11.2 24.35 L11.4 25.55 M14.85 41.1 L14.05 42.65 Q12.4 44.9 10.25 46.45 8.7 47.55 6.85 47.75 L5.4 47.75 Q5.5 50.65 5.2 53.45 L4.75 56.45 4.5 57.7 4.55 57.6 4.95 57.0 4.95 56.95 4.95 56.9 5.25 54.15 6.0 54.8 6.1 54.85 Q9.9 55.8 12.4 52.95 L14.65 50.25 Q15.45 49.25 15.55 48.0 L15.6 47.75 15.3 45.85 14.15 45.05 14.75 44.6 15.2 42.6 Q15.25 41.65 14.85 41.1 M6.4 49.9 L6.25 50.0 6.25 49.8 6.4 49.9 M7.9 71.9 Q9.2 73.15 9.4 74.95 9.55 76.75 10.65 78.15 L10.3 79.95 Q12.5 80.3 14.2 78.9 15.85 77.4 17.75 76.5 18.8 75.55 18.55 74.1 L18.1 71.55 Q16.65 68.0 15.65 64.35 L14.55 59.6 Q12.55 60.9 10.35 61.05 L9.95 61.1 9.85 61.1 8.15 60.95 7.7 60.85 7.15 60.65 3.55 60.2 Q1.35 60.15 -0.25 62.25 L-0.35 62.35 -0.4 62.4 -0.4 62.45 -4.8 62.55 -8.9 62.55 -12.75 62.05 Q-14.9 61.5 -16.8 60.45 -19.65 63.05 -21.05 66.7 L-20.65 66.7 -19.95 66.6 -19.3 66.45 Q-18.5 66.25 -17.9 66.75 L-17.75 66.9 -18.1 67.1 -18.1 67.05 -18.45 67.2 -18.55 67.2 -21.7 68.25 Q-22.9 68.6 -23.8 69.4 -24.5 69.95 -25.0 70.85 -25.65 73.05 -25.5 75.3 L-23.6 71.9 -23.1 71.1 -21.55 69.8 -21.45 69.75 -21.2 69.65 -20.55 69.4 -18.05 69.15 -15.65 69.55 Q-14.75 71.25 -14.25 73.0 -13.9 74.55 -13.85 76.1 -13.8 78.35 -14.45 80.8 L-14.65 81.4 -13.55 81.3 -12.5 80.9 -11.85 80.4 -11.85 80.0 -11.85 79.95 -11.55 76.25 -11.05 74.4 Q-10.3 71.8 -11.55 69.45 L-11.95 68.7 -13.95 66.1 Q-13.05 66.35 -12.2 66.9 L-11.55 67.4 -10.8 68.0 Q-9.75 69.3 -9.4 70.85 L-6.65 67.75 -6.4 68.0 Q-8.2 70.75 -9.65 73.75 -11.05 76.7 -10.55 80.25 -9.6 79.65 -9.15 78.45 -8.95 73.7 -5.0 70.85 -2.4 69.9 -0.1 71.15 L0.05 71.35 Q1.85 73.5 2.2 76.1 L2.25 76.65 2.35 81.0 2.2 82.9 Q3.0 83.55 4.05 83.1 L4.25 82.95 4.35 82.9 5.6 81.45 5.85 80.75 Q5.75 79.3 6.0 78.15 6.9 79.2 6.7 80.95 7.95 81.1 8.7 79.8 9.55 77.75 8.8 75.75 8.25 74.55 8.05 73.45 L8.05 73.4 7.85 71.85 7.9 71.9 M-2.75 71.6 L-5.2 72.05 Q-7.1 74.7 -8.15 77.75 -9.2 80.85 -8.3 84.0 -6.9 84.9 -5.1 85.45 L-3.9 85.6 -2.4 85.35 -2.35 85.35 -2.3 85.3 -1.55 84.95 Q-0.75 84.45 0.3 84.15 1.3 83.9 1.4 82.65 1.75 79.55 1.4 76.6 1.0 73.65 -1.25 71.6 L-1.35 71.6 -2.15 71.6 -2.75 71.6 M5.55 73.7 L5.55 74.7 4.75 72.05 5.55 73.7 M-17.5 57.4 L-17.45 57.4 -17.5 57.3 -17.5 57.4 M-22.4 83.35 L-21.7 83.25 -21.35 83.1 -21.15 83.0 Q-19.55 82.15 -17.9 82.4 -15.4 81.1 -15.1 78.45 -14.75 75.85 -14.9 73.35 L-15.45 71.3 Q-15.75 70.2 -17.1 70.0 L-19.9 70.3 -21.8 71.35 Q-25.9 76.4 -24.3 82.6 -23.35 83.3 -22.4 83.35" fill="#000000" fill-rule="evenodd" stroke="none"/>
    <path d="M-3.8 -5.75 Q-1.4 -5.0 -3.15 -3.05 L-5.7 -0.25 Q-7.35 1.6 -7.85 4.15 L-8.45 8.35 Q-8.7 10.7 -10.4 12.35 -12.95 13.15 -13.25 10.25 -13.35 9.1 -12.8 8.1 -12.75 2.9 -10.1 -1.55 L-8.0 -4.0 Q-6.9 -5.0 -5.55 -5.45 L-3.8 -5.75 M2.45 57.5 L2.5 57.7 2.4 57.7 2.35 57.7 2.4 57.65 2.45 57.5 M3.85 51.45 L3.65 51.4 3.8 51.15 3.9 51.15 3.9 51.45 3.85 51.45 M3.45 38.95 L3.3 38.95 3.25 38.8 3.45 38.95 M10.15 32.85 L9.8 34.25 9.6 35.2 Q9.25 37.2 7.25 37.1 5.3 36.95 5.8 34.95 6.35 32.4 8.65 31.0 10.55 30.95 10.15 32.85 M9.05 47.35 Q11.45 47.4 10.85 49.75 10.2 52.15 7.85 51.6 7.05 51.4 7.1 50.55 7.2 49.3 7.95 48.25 8.4 47.6 9.05 47.35" fill="#606060" fill-rule="evenodd" stroke="none"/>
    <path d="M-13.2 32.9 L-13.7 31.4 -13.85 30.8 -14.15 30.3 Q-15.4 27.8 -14.7 25.2 -13.9 22.45 -12.4 20.25 L-10.25 19.4 -3.3 19.65 Q-1.95 19.9 -0.65 20.4 L-0.6 20.4 0.05 20.75 2.1 22.1 2.2 22.2 2.4 22.3 2.35 22.4 1.55 22.2 0.6 22.0 0.15 21.95 -3.85 21.4 -7.65 21.35 -7.85 21.2 -8.9 21.1 -11.2 22.5 Q-11.95 23.1 -12.25 24.05 -12.8 25.6 -11.35 26.45 L-11.55 27.5 Q-11.75 30.15 -10.45 32.5 L-9.7 32.7 -7.35 33.05 -6.4 33.1 -6.3 33.1 0.35 32.3 1.35 32.05 1.65 31.95 2.0 31.85 2.0 31.9 2.05 31.95 1.95 32.45 1.65 32.9 1.2 33.3 0.4 33.6 -0.15 33.7 -0.2 33.7 -8.85 34.05 -9.9 33.85 -10.3 33.75 -10.55 33.7 Q-10.8 33.45 -11.35 33.45 -11.7 33.35 -11.9 33.7 -12.75 34.75 -12.55 36.2 -12.35 37.4 -11.25 37.45 L-10.65 37.25 -10.4 37.25 -10.1 37.25 -9.6 37.25 -0.1 37.35 1.2 38.25 2.95 39.05 3.3 38.95 3.45 38.95 Q4.15 39.8 3.55 40.55 L3.1 40.3 3.0 40.2 2.7 40.0 1.0 38.9 0.25 38.35 Q-4.7 37.85 -9.7 38.1 L-10.95 38.15 -11.1 38.3 -11.5 38.2 -11.9 38.35 Q-13.3 39.55 -13.2 41.5 L-13.05 42.3 Q-12.65 43.75 -11.0 43.45 L-10.9 43.35 -10.75 43.2 -10.45 43.15 -6.2 43.05 -1.2 43.6 Q0.25 43.8 1.45 44.45 2.4 44.9 3.25 45.65 L4.05 45.65 4.15 45.65 Q4.35 46.05 4.2 46.5 L4.05 46.8 Q2.65 46.25 1.35 45.45 L0.25 44.7 -8.45 43.95 -9.55 44.0 -11.6 44.35 -11.7 44.4 -11.85 44.6 -12.25 44.4 Q-12.75 44.4 -13.0 44.8 -14.1 46.65 -13.4 48.7 L-13.0 49.05 -12.05 49.0 -12.0 49.0 -12.2 48.75 -11.95 49.05 -10.6 49.05 -4.9 48.95 -3.8 48.95 Q-1.1 48.9 1.15 49.9 2.5 50.5 3.65 51.4 L3.85 51.45 3.85 51.55 3.7 52.5 3.7 52.55 Q2.55 51.45 1.2 50.8 -0.75 49.75 -3.25 49.75 L-9.8 49.85 -11.3 49.9 -11.95 50.05 -12.0 50.3 -11.95 50.1 -12.35 49.9 -12.6 49.95 -12.65 49.95 -12.9 50.25 Q-13.8 51.7 -13.3 53.4 L-13.05 53.9 Q-12.3 55.0 -11.5 54.1 L-11.45 54.1 -9.8 54.0 -0.35 54.3 0.3 54.55 0.65 54.9 2.55 56.25 2.9 56.55 3.05 56.95 2.95 57.35 2.8 57.6 2.5 57.7 2.45 57.5 Q0.95 55.25 -1.4 55.2 L-6.1 54.85 -10.6 55.1 -11.3 55.1 -11.45 55.1 -11.7 55.15 -12.1 55.2 -12.2 55.35 Q-12.4 55.15 -12.8 55.05 -13.55 55.25 -13.85 56.05 L-14.25 57.9 Q-14.3 59.2 -13.8 60.45 L-14.9 59.9 Q-15.4 59.5 -15.35 58.85 L-15.2 58.15 -15.0 57.65 -15.35 57.6 -15.45 57.6 Q-15.1 57.35 -15.05 56.9 -15.05 56.25 -15.3 55.8 L-15.4 53.25 -15.55 50.85 -15.7 47.0 Q-15.7 43.95 -15.3 40.85 L-15.05 39.0 -14.8 38.35 -14.4 37.9 -14.45 37.9 -14.0 35.75 -13.1 33.15 -13.2 32.9" fill="#666666" fill-rule="evenodd" stroke="none"/>
    <path d="M-12.2 55.35 L-12.1 55.2 -11.7 55.15 -11.45 55.1 -11.3 55.1 -10.6 55.1 Q-9.85 55.8 -10.45 57.2 -10.75 58.1 -10.6 59.1 -10.5 60.0 -10.9 60.65 L-11.0 60.85 -13.0 60.65 -13.25 60.3 -13.25 60.05 -13.25 59.3 Q-13.4 57.05 -12.2 55.35 M-9.8 54.0 L-11.45 54.1 -11.95 54.15 Q-12.9 52.85 -12.25 51.15 L-12.1 50.6 -12.05 50.35 -12.0 50.3 -11.95 50.05 -11.3 49.9 -9.8 49.85 -9.85 50.9 Q-10.05 51.95 -9.85 53.05 L-9.8 54.0 M3.85 51.55 L3.85 51.45 3.9 51.45 3.85 51.6 3.85 51.55 M-10.6 49.05 L-11.95 49.05 -12.2 48.75 -12.5 47.8 -12.55 46.85 Q-12.4 45.6 -11.85 44.6 L-11.7 44.4 -11.6 44.35 -9.55 44.0 Q-9.35 44.55 -9.6 45.45 L-9.9 46.4 Q-9.4 48.0 -10.6 49.05 M4.15 45.65 L4.05 45.65 4.05 45.55 4.15 45.65 M-10.45 43.15 L-10.75 43.2 -11.35 43.25 -11.6 43.25 -12.15 41.95 Q-12.65 39.6 -11.1 38.3 L-10.95 38.15 -9.7 38.1 Q-8.9 38.8 -9.65 40.2 -10.1 41.1 -10.2 42.15 -10.25 42.75 -10.45 43.15 M-9.6 37.25 L-10.1 37.25 -10.4 37.25 -10.65 37.25 -11.15 37.25 -11.2 37.2 -11.55 36.15 Q-11.65 34.7 -10.7 33.65 L-10.55 33.7 -10.3 33.75 -9.9 33.85 -8.85 34.05 Q-8.65 34.5 -8.75 35.25 -8.9 36.4 -9.6 37.25 M-11.35 26.45 Q-12.8 25.6 -12.25 24.05 -11.95 23.1 -11.2 22.5 L-8.9 21.1 -7.85 21.2 -7.65 21.35 -7.35 21.8 Q-6.85 23.0 -7.45 24.15 L-8.2 25.35 Q-9.0 26.2 -10.05 26.55 L-11.25 26.5 -11.35 26.45 M2.35 22.4 L2.4 22.3 2.55 22.45 2.35 22.4 M-17.05 56.75 L-16.95 56.75 -16.9 57.35 -17.15 56.9 -17.05 56.75 M-17.5 57.4 L-17.5 57.3 -17.45 57.4 -17.5 57.4" fill="#999999" fill-rule="evenodd" stroke="none"/>
    <path d="M-13.8 60.45 Q-14.3 59.2 -14.25 57.9 L-13.85 56.05 Q-13.55 55.25 -12.8 55.05 -12.4 55.15 -12.2 55.35 -13.4 57.05 -13.25 59.3 L-13.25 60.05 -13.25 60.3 -13.0 60.65 -13.2 60.6 -13.8 60.45 M-10.6 55.1 L-6.1 54.85 -1.4 55.2 Q0.95 55.25 2.45 57.5 L2.4 57.65 2.15 57.9 Q0.45 59.95 -2.05 61.0 L-11.0 60.85 -10.9 60.65 Q-10.5 60.0 -10.6 59.1 -10.75 58.1 -10.45 57.2 -9.85 55.8 -10.6 55.1 M2.9 56.55 L2.55 56.25 0.65 54.9 0.3 54.55 0.1 54.35 -0.35 54.3 -9.8 54.0 -9.85 53.05 Q-10.05 51.95 -9.85 50.9 L-9.8 49.85 -3.25 49.75 Q-0.75 49.75 1.2 50.8 2.55 51.45 3.7 52.55 L3.75 52.6 Q4.0 54.65 3.25 56.75 L2.9 56.55 M-11.45 54.1 L-11.5 54.1 Q-12.3 55.0 -13.05 53.9 L-13.3 53.4 Q-13.8 51.7 -12.9 50.25 L-12.65 49.95 -12.6 49.95 -12.35 49.9 -11.95 50.1 -12.0 50.3 -12.05 50.35 -12.1 50.6 -12.25 51.15 Q-12.9 52.85 -11.95 54.15 L-11.45 54.1 M3.65 51.4 Q2.5 50.5 1.15 49.9 -1.1 48.9 -3.8 48.95 L-4.9 48.95 -10.6 49.05 Q-9.4 48.0 -9.9 46.4 L-9.6 45.45 Q-9.35 44.55 -9.55 44.0 L-8.45 43.95 0.25 44.7 1.35 45.45 Q2.65 46.25 4.05 46.8 4.15 49.05 3.9 51.15 L3.8 51.15 3.65 51.4 M-12.2 48.75 L-12.0 49.0 -12.05 49.0 -13.0 49.05 -13.4 48.7 Q-14.1 46.65 -13.0 44.8 -12.75 44.4 -12.25 44.4 L-11.85 44.6 Q-12.4 45.6 -12.55 46.85 L-12.5 47.8 -12.2 48.75 M4.05 45.65 L3.25 45.65 Q2.4 44.9 1.45 44.45 0.25 43.8 -1.2 43.6 L-6.2 43.05 -10.45 43.15 Q-10.25 42.75 -10.2 42.15 -10.1 41.1 -9.65 40.2 -8.9 38.8 -9.7 38.1 -4.7 37.85 0.25 38.35 L1.0 38.9 2.7 40.0 3.0 40.2 3.5 40.5 3.6 40.6 3.75 40.7 4.05 45.55 4.05 45.65 M-10.75 43.2 L-10.9 43.35 -11.0 43.45 Q-12.65 43.75 -13.05 42.3 L-13.2 41.5 Q-13.3 39.55 -11.9 38.35 L-11.5 38.2 -11.1 38.3 Q-12.65 39.6 -12.15 41.95 L-11.6 43.25 -11.35 43.25 -10.75 43.2 M3.3 38.95 L2.95 39.05 1.2 38.25 -0.1 37.35 -9.6 37.25 Q-8.9 36.4 -8.75 35.25 -8.65 34.5 -8.85 34.05 L-0.2 33.7 -0.15 33.7 0.4 33.6 1.2 33.3 1.75 33.15 1.8 33.1 Q2.85 35.85 3.25 38.8 L3.3 38.95 M-10.65 37.25 L-11.25 37.45 Q-12.35 37.4 -12.55 36.2 -12.75 34.75 -11.9 33.7 -11.7 33.35 -11.35 33.45 -10.8 33.45 -10.55 33.7 L-10.7 33.65 Q-11.65 34.7 -11.55 36.15 L-11.2 37.2 -11.15 37.25 -10.65 37.25 M2.0 31.85 L1.65 31.95 1.35 32.05 0.35 32.3 -6.3 33.1 -6.4 33.1 -7.35 33.05 -9.7 32.7 -10.45 32.5 Q-11.75 30.15 -11.55 27.5 L-11.35 26.45 -11.25 26.5 -10.05 26.55 Q-9.0 26.2 -8.2 25.35 L-7.45 24.15 Q-6.85 23.0 -7.35 21.8 L-7.65 21.35 -3.85 21.4 0.15 21.95 0.6 22.0 1.55 22.2 2.35 22.4 2.55 22.45 2.7 22.6 Q3.7 24.9 3.6 27.15 3.5 29.4 2.2 31.6 L2.05 31.8 2.0 31.85" fill="#333333" fill-rule="evenodd" stroke="none"/>
    <path d="M10.6 61.5 L11.6 62.5 11.8 62.65 12.05 63.1 12.25 64.15 12.25 64.2 Q12.15 65.2 11.35 65.85 11.15 65.9 11.0 66.05 L10.95 66.05 10.85 66.1 8.9 66.25 8.1 66.0 6.9 65.0 Q6.35 65.75 6.05 66.7 L5.95 67.1 5.25 66.9 Q5.05 66.9 4.9 67.05 3.9 67.35 4.1 68.4 4.3 69.35 4.0 70.3 3.5 71.85 3.55 73.45 3.55 74.1 4.15 74.25 3.4 74.3 2.75 74.9 L2.2 75.9 2.2 76.1 Q1.85 73.5 0.05 71.35 L0.3 70.9 Q0.9 69.85 0.15 68.95 L-1.35 67.5 -1.25 67.45 Q0.6 66.7 1.05 64.8 1.3 64.1 1.0 63.5 L3.9 63.75 4.6 63.9 6.25 63.8 6.05 62.6 Q6.05 61.1 7.15 60.65 L7.7 60.85 8.15 60.95 9.85 61.1 9.95 61.1 Q10.3 61.25 10.6 61.5 M5.85 80.75 L5.6 81.45 5.8 80.8 5.8 80.75 5.85 80.75 M-12.2 66.9 Q-13.05 66.35 -13.95 66.1 L-11.95 68.7 -11.55 69.45 -11.85 69.5 -12.0 69.5 -13.8 70.05 Q-14.5 70.65 -14.4 71.6 L-14.25 73.0 Q-14.75 71.25 -15.65 69.55 L-18.05 69.15 Q-17.9 68.0 -18.35 67.4 L-18.1 67.1 -17.75 66.9 -17.9 66.75 -16.0 64.25 Q-13.55 64.3 -12.75 62.05 L-8.9 62.55 -4.8 62.55 -5.45 63.0 Q-7.5 64.55 -6.65 66.9 L-7.8 67.7 Q-8.4 66.6 -9.95 66.25 -10.55 65.7 -11.45 65.55 L-11.45 65.6 -11.8 65.65 -12.1 66.05 -12.2 66.9 M-11.85 80.0 L-11.85 80.4 -12.5 80.9 -11.85 80.0 M-13.55 81.3 L-14.65 81.4 -14.45 80.8 -13.65 81.3 -13.55 81.3 M-3.9 85.6 L-4.45 85.55 -3.15 84.65 -2.25 79.45 -1.5 77.65 Q-0.75 76.2 -0.9 74.65 -2.1 73.35 -2.75 71.7 L-2.75 71.6 -2.15 71.6 -1.35 71.6 -1.25 71.6 Q1.0 73.65 1.4 76.6 1.75 79.55 1.4 82.65 1.3 83.9 0.3 84.15 -0.75 84.45 -1.55 84.95 L-2.3 85.3 -2.35 85.35 -2.4 85.35 -3.9 85.6 M-19.9 70.3 L-17.1 70.0 Q-15.75 70.2 -15.45 71.3 L-14.9 73.35 Q-14.75 75.85 -15.1 78.45 -15.4 81.1 -17.9 82.4 -19.55 82.15 -21.15 83.0 L-21.35 83.1 -21.7 83.25 -22.4 83.35 -22.35 83.2 -21.25 82.1 -20.7 81.5 Q-20.4 79.0 -18.8 77.0 L-17.05 75.0 -16.5 74.1 Q-15.7 71.85 -17.85 71.0 L-18.55 70.85 Q-19.55 70.75 -19.9 70.3" fill="#999933" fill-rule="evenodd" stroke="none"/>
    <path d="M0.05 71.35 L-0.1 71.15 Q-2.4 69.9 -5.0 70.85 -8.95 73.7 -9.15 78.45 -9.6 79.65 -10.55 80.25 -11.05 76.7 -9.65 73.75 -8.2 70.75 -6.4 68.0 L-6.65 67.75 -9.4 70.85 -9.0 70.35 Q-9.15 69.0 -8.2 68.1 L-7.8 67.7 -6.65 66.9 Q-7.5 64.55 -5.45 63.0 L-4.8 62.55 -0.4 62.45 -0.4 62.4 -0.35 62.35 -0.25 62.25 0.5 62.75 1.0 63.5 Q1.3 64.1 1.05 64.8 0.6 66.7 -1.25 67.45 L-1.35 67.5 0.15 68.95 Q0.9 69.85 0.3 70.9 L0.05 71.35 M-18.05 69.15 L-20.55 69.4 -21.2 69.65 -21.45 69.75 -21.55 69.8 -23.1 71.1 -23.6 71.9 -25.5 75.3 Q-25.65 73.05 -25.0 70.85 -24.5 69.95 -23.8 69.4 -22.9 68.6 -21.7 68.25 L-18.55 67.2 -18.45 67.2 -18.1 67.05 -18.1 67.1 -18.35 67.4 Q-17.9 68.0 -18.05 69.15 M-17.9 66.75 Q-18.5 66.25 -19.3 66.45 L-19.95 66.6 -20.65 66.7 -21.05 66.7 Q-19.65 63.05 -16.8 60.45 -14.9 61.5 -12.75 62.05 -13.55 64.3 -16.0 64.25 L-17.9 66.75" fill="#99cc99" fill-rule="evenodd" stroke="none"/>
    <path d="M-3.9 85.6 L-5.1 85.45 Q-6.9 84.9 -8.3 84.0 -9.2 80.85 -8.15 77.75 -7.1 74.7 -5.2 72.05 L-2.75 71.6 -2.75 71.7 Q-2.1 73.35 -0.9 74.65 -0.75 76.2 -1.5 77.65 L-2.25 79.45 -3.15 84.65 -4.45 85.55 -3.9 85.6 M-19.9 70.3 Q-19.55 70.75 -18.55 70.85 L-17.85 71.0 Q-15.7 71.85 -16.5 74.1 L-17.05 75.0 -18.8 77.0 Q-20.4 79.0 -20.7 81.5 L-21.25 82.1 -22.35 83.2 -22.4 83.35 Q-23.35 83.3 -24.3 82.6 -25.9 76.4 -21.8 71.35 L-19.9 70.3" fill="#cccc99" fill-rule="evenodd" stroke="none"/>
    <path d="M10.35 61.05 L10.25 61.25 10.6 61.5 Q10.3 61.25 9.95 61.1 L10.35 61.05 M8.9 66.25 Q6.9 68.6 7.9 71.9 L7.85 71.85 8.05 73.4 8.05 73.45 8.05 73.7 8.4 76.0 8.45 76.4 Q5.95 77.1 4.95 79.4 L4.45 80.0 2.35 81.0 2.25 76.65 2.2 76.1 2.2 75.9 2.75 74.9 Q3.4 74.3 4.15 74.25 3.55 74.1 3.55 73.45 3.5 71.85 4.0 70.3 4.3 69.35 4.1 68.4 3.9 67.35 4.9 67.05 5.05 66.9 5.25 66.9 L5.95 67.1 6.05 66.7 Q6.35 65.75 6.9 65.0 L8.1 66.0 8.9 66.25 M-9.4 70.85 Q-9.75 69.3 -10.8 68.0 L-11.55 67.4 -12.2 66.9 -12.1 66.05 -11.8 65.65 -11.45 65.6 -11.45 65.55 Q-10.55 65.7 -9.95 66.25 -8.4 66.6 -7.8 67.7 L-8.2 68.1 Q-9.15 69.0 -9.0 70.35 L-9.4 70.85 M-11.55 69.45 Q-10.3 71.8 -11.05 74.4 L-11.55 76.25 -12.85 75.9 -13.85 76.1 Q-13.9 74.55 -14.25 73.0 L-14.4 71.6 Q-14.5 70.65 -13.8 70.05 L-12.0 69.5 -11.85 69.5 -11.55 69.45 M5.55 73.7 L4.75 72.05 5.55 74.7 5.55 73.7" fill="#996600" fill-rule="evenodd" stroke="none"/>
    <path d="M10.35 61.05 Q12.55 60.9 14.55 59.6 L15.65 64.35 Q16.65 68.0 18.1 71.55 L18.55 74.1 Q18.8 75.55 17.75 76.5 15.85 77.4 14.2 78.9 12.5 80.3 10.3 79.95 L10.65 78.15 Q9.55 76.75 9.4 74.95 9.2 73.15 7.9 71.9 6.9 68.6 8.9 66.25 L10.85 66.1 10.95 66.05 11.0 66.05 Q11.15 65.9 11.35 65.85 12.15 65.2 12.25 64.2 L12.25 64.15 12.05 63.1 11.8 62.65 11.6 62.5 10.6 61.5 10.25 61.25 10.35 61.05 M8.05 73.45 Q8.25 74.55 8.8 75.75 9.55 77.75 8.7 79.8 7.95 81.1 6.7 80.95 6.9 79.2 6.0 78.15 5.75 79.3 5.85 80.75 L5.8 80.75 5.8 80.8 5.6 81.45 4.35 82.9 4.25 82.95 4.05 83.1 Q3.0 83.55 2.2 82.9 L2.35 81.0 4.45 80.0 4.95 79.4 Q5.95 77.1 8.45 76.4 L8.4 76.0 8.05 73.7 8.05 73.45 M-11.55 76.25 L-11.85 79.95 -11.85 80.0 -12.5 80.9 -13.55 81.3 -13.65 81.3 -14.45 80.8 Q-13.8 78.35 -13.85 76.1 L-12.85 75.9 -11.55 76.25 M-0.25 62.25 Q1.35 60.15 3.55 60.2 L7.15 60.65 Q6.05 61.1 6.05 62.6 L6.25 63.8 4.6 63.9 3.9 63.75 1.0 63.5 0.5 62.75 -0.25 62.25" fill="#714d00" fill-rule="evenodd" stroke="none"/>
  </g>
</svg>
