<?xml version="1.0" encoding="UTF-8" standalone="no"?>
<svg xmlns:xlink="http://www.w3.org/1999/xlink" height="101.05px" width="46.4px" xmlns="http://www.w3.org/2000/svg">
  <g transform="matrix(1.0, 0.0, 0.0, 1.0, 16.4, 13.7)">
    <path d="M-11.6 22.5 L-11.65 25.7 -11.65 24.75 -11.5 24.55 -10.65 23.7 -9.8 22.8 Q-10.0 20.5 -9.4 18.3 L-8.75 15.65 -8.4 14.95 Q-5.9 14.35 -5.35 17.0 L-5.35 17.05 -3.4 19.2 -2.55 19.9 -0.85 20.7 -0.7 20.85 -0.05 20.75 2.45 18.65 2.5 18.6 2.8 17.05 2.8 16.2 Q1.8 14.55 3.2 13.35 L4.2 13.05 4.4 13.0 Q5.7 13.55 6.6 14.75 8.65 17.55 12.0 16.85 L12.15 16.8 12.2 16.8 12.3 16.55 12.75 15.7 Q13.7 13.95 14.0 12.05 14.5 8.15 13.6 4.4 12.95 1.6 11.45 -0.8 L9.45 -3.7 Q6.4 -7.7 2.05 -10.2 L-0.4 -11.6 -1.4 -12.2 Q-6.95 -11.2 -10.8 -6.25 -12.7 -4.6 -12.25 -2.4 -11.85 -0.1 -11.75 2.15 -11.35 5.25 -10.05 8.1 L-10.05 15.05 Q-10.95 16.4 -10.8 18.35 L-11.35 20.95 -11.6 22.5 M20.85 59.05 L20.95 59.3 21.6 60.0 Q23.6 61.85 24.4 64.2 25.15 66.7 27.2 68.5 29.8 70.7 29.95 74.05 30.15 77.45 29.75 80.75 28.85 82.3 28.75 84.35 26.85 85.85 24.65 85.45 L20.35 84.35 19.15 83.3 17.65 83.2 15.3 83.05 Q14.1 82.15 13.4 83.65 12.35 87.0 8.8 87.3 L4.7 87.15 Q2.85 86.85 1.4 85.3 -1.5 86.05 -3.55 84.15 -4.35 82.85 -5.75 82.15 -8.8 83.05 -11.25 81.75 -13.7 80.4 -15.7 78.05 L-16.2 76.65 Q-16.6 75.1 -16.2 73.65 L-15.85 72.7 Q-14.7 70.1 -14.15 67.5 -14.15 63.25 -11.85 59.9 -14.35 56.6 -14.2 52.15 -14.05 47.7 -12.55 44.1 -13.7 41.95 -14.05 39.45 -13.75 37.0 -12.85 34.8 -12.0 32.6 -11.7 30.15 -13.4 28.2 -13.05 25.75 -12.7 23.3 -12.65 20.95 -11.9 18.9 -11.85 16.45 -11.5 15.85 -11.55 14.85 L-11.65 14.75 -11.65 13.9 -11.55 13.9 -11.6 12.3 -11.55 11.15 Q-11.35 9.65 -12.15 8.6 -11.85 7.2 -12.55 5.8 -13.2 4.35 -13.0 2.65 -14.95 -2.95 -10.85 -7.25 -7.95 -10.55 -4.2 -12.4 -0.4 -14.35 4.0 -13.35 4.4 -12.35 5.2 -12.3 6.1 -12.25 6.8 -11.7 11.85 -8.95 15.55 -4.25 15.3 -2.65 16.55 -1.4 17.8 -0.15 18.5 1.3 L18.7 1.25 19.55 5.75 20.3 12.3 20.3 12.7 Q20.35 14.45 20.75 16.2 L21.1 17.25 Q21.15 19.1 21.6 20.9 L21.7 21.4 21.6 21.65 Q20.9 23.4 21.55 24.95 L21.55 25.1 Q21.5 25.5 21.8 25.75 21.8 26.65 22.1 27.6 L22.35 28.3 Q22.15 30.7 21.35 32.85 22.4 36.45 22.95 40.3 23.5 42.4 23.15 44.65 L22.2 52.35 21.25 57.2 21.0 57.85 21.0 57.95 21.0 58.0 20.95 58.1 20.9 58.15 20.85 58.2 20.8 58.45 20.8 58.55 20.8 58.7 20.85 59.05 M20.2 57.65 L20.25 46.05 19.95 42.8 Q20.65 44.05 21.75 43.45 L21.8 42.2 21.8 42.05 21.75 42.2 21.55 41.0 Q20.95 37.95 19.95 35.15 L19.75 34.6 Q20.3 33.55 20.45 32.4 L20.45 30.75 Q18.5 30.85 18.95 29.25 19.45 27.65 18.9 26.4 L17.7 22.85 Q17.1 21.05 15.35 20.0 L15.2 20.0 12.3 19.45 Q9.3 19.1 6.4 19.55 L6.05 19.15 5.75 19.15 5.6 19.7 4.75 19.95 2.1 20.7 1.95 20.85 Q-0.2 21.65 -0.75 23.6 L-1.6 26.9 -1.7 27.55 -1.25 30.6 -2.15 31.6 -2.8 31.8 -3.15 31.9 Q-4.7 31.45 -5.8 29.9 L-5.6 28.9 -5.3 26.95 -5.3 26.75 -5.3 26.6 Q-6.2 27.0 -6.3 28.0 L-6.55 28.75 -7.3 29.35 Q-8.2 28.0 -8.1 26.4 L-7.95 25.25 Q-7.25 24.4 -7.5 23.45 L-7.55 23.5 -7.65 23.55 -8.2 24.2 -8.65 24.7 -9.25 26.0 -9.1 28.7 -9.1 28.75 -10.75 28.6 -10.8 29.45 Q-10.9 30.35 -10.6 31.05 L-10.5 30.8 -10.7 31.4 -10.75 31.55 -10.8 31.75 -12.0 36.25 -12.1 36.95 -12.1 37.05 -12.15 37.15 Q-12.35 38.45 -12.2 39.8 -11.7 40.25 -10.8 40.5 L-8.85 41.9 -6.1 41.85 Q-2.7 40.25 -3.15 36.45 L-3.25 35.7 Q-3.5 34.5 -4.15 33.35 -3.35 33.85 -2.45 34.15 L-0.3 34.65 Q-1.65 41.3 -2.2 48.65 -4.65 48.85 -6.65 47.6 L-7.0 47.35 -9.0 45.65 -10.7 43.7 -10.8 43.55 -11.05 43.1 -11.65 44.9 -11.7 45.35 -11.45 45.55 -11.8 45.65 -11.95 46.35 Q-12.6 49.3 -12.7 52.5 L-12.6 54.75 Q-10.45 57.1 -7.3 55.7 -5.25 54.8 -4.55 52.75 L-4.35 52.05 Q-4.15 50.55 -5.2 49.6 L-2.6 51.1 -1.65 58.1 -2.45 58.9 0.95 58.65 1.8 59.4 3.0 60.6 Q4.05 61.35 5.25 61.9 L5.65 61.9 16.5 61.5 18.15 60.8 18.6 60.15 18.5 59.1 18.85 59.05 19.15 59.0 Q19.85 58.8 20.1 58.05 L20.2 57.95 20.2 57.7 20.2 58.25 20.4 57.8 20.3 57.65 20.2 57.65 M17.35 31.4 L17.4 31.25 Q18.3 31.55 18.0 32.6 17.65 34.15 17.95 35.65 L18.6 38.55 18.95 39.9 Q19.25 40.85 18.45 41.3 L18.35 41.35 17.4 39.95 17.7 38.85 17.7 38.4 Q17.25 36.0 16.3 33.8 L16.1 33.9 16.1 33.55 16.35 33.25 Q16.7 32.95 16.7 32.45 L16.6 31.9 17.35 31.4 M21.4 47.85 L21.5 47.0 21.4 46.95 21.4 47.85 M28.1 71.45 L26.65 69.95 26.4 69.8 26.25 69.7 Q25.7 69.35 25.0 69.15 L23.2 68.55 21.0 67.8 Q21.7 67.1 22.6 67.35 L23.95 67.6 24.0 67.6 24.3 67.6 24.1 67.15 23.8 66.35 Q22.5 63.65 20.35 61.6 L20.05 61.35 Q16.45 63.35 12.2 63.45 L3.7 63.35 Q2.0 61.05 -0.3 61.1 L-0.55 61.1 -0.85 61.15 -3.3 61.4 -4.4 61.65 -4.8 61.85 -4.9 61.85 Q-8.3 62.35 -11.1 60.65 L-11.3 60.5 -11.55 61.55 -11.75 62.6 -11.75 62.65 -12.75 66.5 -12.85 66.85 -14.65 71.9 -14.85 72.45 -15.3 75.0 Q-15.55 76.4 -14.45 77.35 -12.65 78.3 -10.95 79.8 -9.25 81.2 -7.05 80.85 L-7.4 79.05 -6.55 77.45 -6.2 76.1 -6.2 75.85 -5.95 74.85 Q-5.55 73.65 -4.55 72.75 -4.65 74.1 -5.05 75.55 L-5.5 76.65 Q-6.35 78.65 -5.4 80.7 -4.7 82.0 -3.4 81.85 -3.65 80.1 -2.7 79.05 -2.5 80.2 -2.55 81.6 -2.2 83.25 -0.75 84.0 0.25 84.45 1.05 83.75 0.8 81.2 0.9 78.8 L1.0 77.55 Q1.25 74.5 3.35 72.05 L4.0 71.75 Q6.0 70.95 8.3 71.75 9.55 72.65 10.45 73.8 L11.45 75.45 Q12.3 77.15 12.4 79.35 12.85 80.5 13.75 81.15 14.25 77.75 13.0 74.85 L12.9 74.65 12.85 74.55 12.4 73.6 12.1 73.05 12.1 73.0 11.15 71.35 9.7 68.9 9.95 68.65 12.35 71.45 12.6 71.75 12.7 71.4 12.75 71.1 13.75 69.35 14.1 68.9 14.15 68.85 Q15.6 67.45 17.25 66.95 L15.25 69.6 15.15 69.75 Q14.0 71.55 14.05 73.55 L14.05 73.65 14.3 75.1 14.35 75.25 Q15.2 78.2 15.1 81.3 16.3 82.35 17.9 82.3 17.1 79.8 17.15 77.35 17.1 76.05 17.35 74.8 L17.35 74.75 Q17.75 72.55 18.85 70.45 L19.15 70.35 Q21.45 69.65 23.85 70.3 25.15 70.7 26.05 71.65 L26.7 72.5 26.8 72.7 26.85 72.8 28.8 76.2 28.65 73.2 28.4 72.2 28.3 71.75 28.1 71.45 M20.8 52.55 L20.85 51.95 20.4 56.75 20.35 57.45 20.55 56.45 20.65 55.4 20.8 52.55 M20.75 58.2 L20.75 58.3 20.8 58.2 20.75 58.2 M25.2 84.2 Q26.35 84.35 27.6 83.5 29.15 77.3 25.1 72.2 23.15 70.6 20.35 70.9 L20.05 70.95 Q18.95 71.15 18.7 72.15 L18.15 74.2 Q17.95 76.75 18.35 79.35 18.65 82.0 21.15 83.3 22.8 83.05 24.4 83.9 L25.2 84.2 M4.2 72.75 Q2.2 74.7 1.85 77.45 1.5 80.45 1.85 83.55 1.95 84.75 2.95 85.05 4.0 85.35 4.85 85.8 6.45 86.85 8.3 86.35 L9.4 86.0 11.55 84.9 Q12.45 81.75 11.4 78.65 10.35 75.6 8.45 72.95 6.45 72.35 4.5 72.5 L4.2 72.75 M3.75 38.25 L3.55 38.35 2.7 38.75 3.05 38.45 3.1 38.4 3.4 38.25 3.75 38.25 M-2.3 75.6 Q-2.5 74.3 -1.45 72.95 L-2.3 75.6" fill="#000000" fill-rule="evenodd" stroke="none"/>
    <path d="M-11.35 20.95 L-10.8 18.35 Q-10.95 16.4 -10.05 15.05 L-10.05 8.1 Q-11.35 5.25 -11.75 2.15 -11.85 -0.1 -12.25 -2.4 -12.7 -4.6 -10.8 -6.25 -6.95 -11.2 -1.4 -12.2 L-0.4 -11.6 2.05 -10.2 Q6.4 -7.7 9.45 -3.7 L11.45 -0.8 Q12.95 1.6 13.6 4.4 14.5 8.15 14.0 12.05 13.7 13.95 12.75 15.7 L12.3 16.55 12.2 16.8 12.15 16.8 12.0 16.85 Q8.65 17.55 6.6 14.75 5.7 13.55 4.4 13.0 L4.2 13.05 3.2 13.35 Q1.8 14.55 2.8 16.2 L2.8 17.05 2.5 18.6 2.45 18.65 -0.05 20.75 -0.7 20.85 -0.85 20.7 -2.55 19.9 -3.4 19.2 -5.35 17.05 -5.35 17.0 Q-5.9 14.35 -8.4 14.95 L-8.75 15.65 -9.4 18.3 Q-10.0 20.5 -9.8 22.8 L-10.65 23.7 -11.5 24.55 -11.65 24.75 -11.65 25.7 -11.6 22.5 -11.35 20.95 M21.25 57.2 L20.85 59.05 20.8 58.7 20.8 58.55 20.8 58.45 20.85 58.2 20.9 58.15 20.95 58.1 21.0 58.0 21.0 57.95 21.0 57.85 21.25 57.2 M1.5 -2.2 L1.45 -2.2 1.45 -2.15 1.5 -2.2 M0.95 58.65 L-2.45 58.9 -1.65 58.1 -2.6 51.1 -5.2 49.6 Q-4.15 50.55 -4.35 52.05 L-4.55 52.75 Q-5.25 54.8 -7.3 55.7 -10.45 57.1 -12.6 54.75 L-12.7 52.5 Q-12.6 49.3 -11.95 46.35 L-11.8 45.65 -11.45 45.55 -11.7 45.35 -11.65 44.9 -11.05 43.1 -10.8 43.55 -10.7 43.7 -9.0 45.65 -7.0 47.35 -6.65 47.6 Q-4.65 48.85 -2.2 48.65 -1.65 41.3 -0.3 34.65 L-2.45 34.15 Q-3.35 33.85 -4.15 33.35 -3.5 34.5 -3.25 35.7 L-3.15 36.45 Q-2.7 40.25 -6.1 41.85 L-8.85 41.9 -10.8 40.5 Q-11.7 40.25 -12.2 39.8 -12.35 38.45 -12.15 37.15 L-12.1 37.05 -12.1 36.95 -12.0 36.25 -10.8 31.75 -10.75 31.55 -10.7 31.4 -10.5 30.8 -10.6 31.05 Q-10.9 30.35 -10.8 29.45 L-10.75 28.6 -9.1 28.75 -9.1 28.7 -9.25 26.0 -8.65 24.7 -8.2 24.2 -7.65 23.55 -7.55 23.5 -7.5 23.45 Q-7.25 24.4 -7.95 25.25 L-8.1 26.4 Q-8.2 28.0 -7.3 29.35 L-6.55 28.75 -6.3 28.0 Q-6.2 27.0 -5.3 26.6 L-5.3 26.75 -5.3 26.95 -5.6 28.9 -5.8 29.9 Q-4.7 31.45 -3.15 31.9 L-2.8 31.8 -2.15 31.6 -1.25 30.6 -1.7 27.55 -1.6 26.9 -0.75 23.6 Q-0.2 21.65 1.95 20.85 L2.1 20.7 4.75 19.95 5.6 19.7 5.75 19.15 6.05 19.15 6.4 19.55 Q9.3 19.1 12.3 19.45 L15.2 20.0 15.35 20.0 Q17.1 21.05 17.7 22.85 L18.9 26.4 Q19.45 27.65 18.95 29.25 18.5 30.85 20.45 30.75 L20.45 32.4 Q20.3 33.55 19.75 34.6 L19.95 35.15 Q20.95 37.95 21.55 41.0 L21.75 42.2 21.8 42.05 21.8 42.2 21.75 43.45 Q20.65 44.05 19.95 42.8 L20.25 46.05 20.2 57.65 20.2 57.7 20.2 57.95 20.1 58.05 Q19.85 58.8 19.15 59.0 L18.85 59.05 18.5 59.1 18.5 59.05 18.3 58.65 18.9 57.7 18.7 57.0 18.95 54.45 18.85 54.3 18.6 54.0 19.0 53.15 19.05 53.1 19.25 52.55 19.35 51.7 19.3 50.95 19.3 50.75 Q19.0 49.45 19.2 48.05 L18.9 47.75 19.3 47.15 19.15 46.35 19.0 46.1 Q19.4 43.4 18.35 41.35 L18.45 41.3 Q19.25 40.85 18.95 39.9 L18.6 38.55 17.95 35.65 Q17.65 34.15 18.0 32.6 18.3 31.55 17.4 31.25 L17.35 31.4 Q18.65 28.8 17.9 26.1 L17.9 25.95 17.4 24.4 16.7 22.95 15.65 21.15 Q14.6 20.7 13.5 20.55 L11.2 20.25 8.15 20.4 Q6.3 20.55 4.6 21.25 3.15 21.8 1.85 22.65 L0.55 23.5 0.2 24.75 -0.05 28.25 Q0.1 29.9 0.7 31.6 L1.3 32.7 1.3 32.95 1.4 33.95 1.45 34.15 -0.3 40.6 -0.3 40.95 -0.5 41.65 -0.5 42.05 -0.55 42.4 -0.65 43.25 -0.75 44.0 -0.95 45.55 -1.0 47.15 -1.1 50.25 -1.15 53.15 -0.85 55.6 -0.35 57.05 0.0 57.8 0.05 58.05 0.2 58.3 0.95 58.65 M16.1 33.9 L15.9 33.95 15.55 34.05 15.2 34.15 15.0 34.25 14.7 34.3 14.5 34.35 14.05 34.4 Q15.2 34.2 16.1 33.55 L16.1 33.9 M14.75 44.15 Q16.55 44.3 17.9 45.4 L16.75 44.8 14.75 44.15 M15.5 49.95 L15.55 49.95 15.55 50.0 15.5 49.95 M21.4 47.85 L21.4 46.95 21.5 47.0 21.4 47.85 M20.8 52.55 L20.65 55.4 20.55 56.45 20.35 57.45 20.4 56.75 20.85 51.95 20.8 52.55 M15.8 55.1 L16.25 55.1 16.65 55.4 15.8 55.1 M-3.65 10.5 Q-3.55 8.3 -5.45 7.7 -6.7 7.7 -7.0 9.0 L-7.3 11.1 Q-7.5 13.35 -5.9 15.0 -3.95 17.05 -2.7 14.7 -2.5 14.35 -2.7 14.0 -3.7 12.35 -3.65 10.5 M-7.75 49.1 Q-7.7 48.7 -8.05 48.5 -9.05 47.8 -10.4 47.95 -11.9 48.25 -12.2 49.9 -12.4 51.1 -12.2 52.4 -11.95 54.3 -10.0 53.65 -9.35 53.0 -9.15 52.05 L-8.9 51.6 Q-7.75 50.55 -7.75 49.1 M-8.0 32.25 L-8.7 32.25 -9.25 32.85 -9.45 33.05 Q-11.1 34.0 -11.05 35.95 -11.0 38.15 -8.85 37.45 L-8.7 37.25 -7.65 35.85 Q-5.85 33.8 -8.0 32.25" fill="#003333" fill-rule="evenodd" stroke="none"/>
    <path d="M1.5 -2.2 L1.45 -2.15 1.45 -2.2 1.5 -2.2 M16.7 22.95 L17.4 24.4 16.7 22.95 M-3.65 10.5 Q-3.7 12.35 -2.7 14.0 -2.5 14.35 -2.7 14.7 -3.95 17.05 -5.9 15.0 -7.5 13.35 -7.3 11.1 L-7.0 9.0 Q-6.7 7.7 -5.45 7.7 -3.55 8.3 -3.65 10.5 M-8.0 32.25 Q-5.85 33.8 -7.65 35.85 L-8.7 37.25 -8.85 37.45 Q-11.0 38.15 -11.05 35.95 -11.1 34.0 -9.45 33.05 L-9.25 32.85 -8.7 32.25 -8.0 32.25 M-7.75 49.1 Q-7.75 50.55 -8.9 51.6 L-9.15 52.05 Q-9.35 53.0 -10.0 53.65 -11.95 54.3 -12.2 52.4 -12.4 51.1 -12.2 49.9 -11.9 48.25 -10.4 47.95 -9.05 47.8 -8.05 48.5 -7.7 48.7 -7.75 49.1" fill="#606060" fill-rule="evenodd" stroke="none"/>
    <path d="M0.95 58.65 L0.2 58.3 0.05 58.05 0.0 57.8 -0.35 57.05 -0.85 55.6 -1.15 53.15 -1.1 50.25 -1.0 47.15 -0.95 45.55 -0.75 44.0 -0.65 43.25 -0.55 42.4 -0.5 42.05 -0.5 41.65 -0.3 40.95 -0.3 40.6 1.45 34.15 1.4 33.95 1.3 32.95 1.3 32.7 0.7 31.6 Q0.1 29.9 -0.05 28.25 L0.2 24.75 0.55 23.5 1.85 22.65 Q3.15 21.8 4.6 21.25 6.3 20.55 8.15 20.4 L11.2 20.25 13.5 20.55 Q14.6 20.7 15.65 21.15 L16.7 22.95 14.0 22.3 10.25 22.5 9.3 22.6 8.8 22.35 Q7.3 22.5 5.9 23.35 3.5 24.8 3.75 26.95 3.05 28.55 3.2 30.5 3.35 32.15 4.25 33.5 L9.2 34.0 Q11.55 34.2 13.35 33.5 L16.6 31.9 16.7 32.45 Q16.7 32.95 16.35 33.25 L16.1 33.55 Q15.2 34.2 14.05 34.4 L4.25 34.6 3.25 34.6 3.25 34.65 3.0 34.5 Q2.55 34.55 2.15 34.9 1.6 35.65 1.45 36.6 1.15 38.15 2.6 38.8 L3.2 38.7 3.55 38.35 3.75 38.25 4.85 38.25 15.6 38.15 17.4 38.5 17.7 38.4 17.7 38.85 17.4 39.95 16.7 39.25 10.3 38.95 7.15 39.0 5.1 39.15 3.9 39.2 3.4 39.25 3.15 39.55 2.65 39.5 Q1.85 39.65 1.5 40.4 0.5 42.3 1.35 44.2 1.9 45.5 3.5 45.15 L4.0 44.65 4.8 44.6 14.75 44.15 16.75 44.8 17.9 45.4 18.9 46.2 18.95 46.25 19.0 46.1 19.15 46.35 19.3 47.15 18.9 47.75 Q17.6 46.3 15.65 45.55 13.8 44.85 11.7 44.85 L9.5 44.9 7.3 45.1 5.2 45.35 4.75 45.45 2.4 46.05 2.4 46.15 1.9 46.05 Q1.05 46.65 0.95 47.7 0.85 48.9 1.4 50.0 2.1 51.45 3.7 50.85 L3.95 50.4 4.85 50.35 15.5 49.95 15.55 50.0 19.0 53.15 18.6 54.0 Q17.45 52.5 15.75 51.45 L14.55 50.8 10.55 50.7 6.45 50.65 5.1 50.9 3.35 51.15 2.35 51.55 2.3 51.65 2.15 51.85 1.7 51.7 Q1.25 51.7 0.95 52.1 0.5 52.9 0.55 53.85 0.6 54.9 1.5 55.55 2.45 56.25 3.0 55.4 L3.15 55.25 4.25 55.25 14.25 54.95 15.8 55.1 16.65 55.4 17.05 55.8 17.85 56.65 18.7 57.0 18.9 57.7 18.3 58.65 Q17.65 56.65 15.65 56.2 L11.95 55.85 9.4 55.85 7.1 56.0 4.5 56.15 Q4.25 55.75 3.6 55.8 L3.25 56.0 2.95 56.3 Q2.15 56.3 1.9 57.05 1.65 58.2 1.8 59.4 L0.95 58.65" fill="#666666" fill-rule="evenodd" stroke="none"/>
    <path d="M17.4 24.4 L17.9 25.95 17.9 26.1 Q18.65 28.8 17.35 31.4 L16.6 31.9 13.35 33.5 Q11.55 34.2 9.2 34.0 L4.25 33.5 Q3.35 32.15 3.2 30.5 3.05 28.55 3.75 26.95 L4.0 28.0 Q4.4 29.0 5.5 28.7 7.7 28.05 9.4 26.4 12.0 24.0 9.3 22.6 L10.25 22.5 14.0 22.3 16.7 22.95 17.4 24.4 M18.35 41.35 Q19.4 43.4 19.0 46.1 L18.95 46.25 18.9 46.2 17.9 45.4 Q16.55 44.3 14.75 44.15 L4.8 44.6 Q4.8 42.6 5.2 40.6 5.4 39.65 5.1 39.15 L7.15 39.0 10.3 38.95 16.7 39.25 17.4 39.95 18.35 41.35 M18.9 47.75 L19.2 48.05 Q19.0 49.45 19.3 50.75 L19.3 50.95 19.35 51.7 19.25 52.55 19.05 53.1 19.0 53.15 15.55 50.0 15.55 49.95 15.5 49.95 4.85 50.35 Q5.1 49.75 4.9 48.95 4.65 48.0 4.85 47.0 5.05 46.1 4.75 45.45 L5.2 45.35 7.3 45.1 9.5 44.9 11.7 44.85 Q13.8 44.85 15.65 45.55 17.6 46.3 18.9 47.75 M18.6 54.0 L18.85 54.3 18.95 54.45 18.7 57.0 17.85 56.65 17.05 55.8 16.65 55.4 16.25 55.1 15.8 55.1 14.25 54.95 4.25 55.25 4.8 55.2 4.85 53.15 4.95 52.5 5.1 50.9 6.45 50.65 10.55 50.7 14.55 50.8 15.75 51.45 Q17.45 52.5 18.6 54.0 M18.3 58.65 L18.5 59.05 18.5 59.1 18.6 60.15 18.15 60.8 16.5 61.5 5.65 61.9 5.6 61.6 5.05 57.85 5.0 57.3 4.85 56.1 4.5 56.15 7.1 56.0 9.4 55.85 11.95 55.85 15.65 56.2 Q17.65 56.65 18.3 58.65 M16.1 33.9 L16.3 33.8 Q17.25 36.0 17.7 38.4 L17.4 38.5 15.6 38.15 4.85 38.25 5.1 36.95 5.2 36.2 Q5.55 35.15 5.2 34.6 L4.25 34.6 14.05 34.4 14.5 34.35 14.7 34.3 15.0 34.25 15.2 34.15 15.55 34.05 15.9 33.95 16.1 33.9 M3.0 55.4 Q2.45 56.25 1.5 55.55 0.6 54.9 0.55 53.85 0.5 52.9 0.95 52.1 1.25 51.7 1.7 51.7 L2.15 51.85 2.1 51.95 2.0 52.2 1.95 52.4 Q1.85 53.2 1.9 54.1 L2.05 54.6 2.75 55.65 3.0 55.4 M3.0 60.6 L1.8 59.4 Q1.65 58.2 1.9 57.05 2.15 56.3 2.95 56.3 L3.25 56.0 3.6 55.8 Q4.25 55.75 4.5 56.15 L4.2 56.15 4.0 56.2 3.85 56.2 Q2.5 57.5 2.8 59.5 L3.0 60.6 M3.55 38.35 L3.2 38.7 2.6 38.8 Q1.15 38.15 1.45 36.6 1.6 35.65 2.15 34.9 2.55 34.55 3.0 34.5 L3.25 34.65 3.0 35.2 Q2.55 36.95 3.05 38.45 L2.7 38.75 3.55 38.35 M4.0 44.65 L3.5 45.15 Q1.9 45.5 1.35 44.2 0.5 42.3 1.5 40.4 1.85 39.65 2.65 39.5 L3.15 39.55 Q1.4 41.95 2.85 44.7 L4.0 44.65 M2.4 46.15 Q1.85 47.5 2.55 48.9 L3.35 50.4 3.95 50.4 3.7 50.85 Q2.1 51.45 1.4 50.0 0.85 48.9 0.95 47.7 1.05 46.65 1.9 46.05 L2.4 46.15" fill="#333333" fill-rule="evenodd" stroke="none"/>
    <path d="M20.2 57.7 L20.2 57.65 20.3 57.65 20.4 57.8 20.2 58.25 20.2 57.7 M3.75 26.95 Q3.5 24.8 5.9 23.35 7.3 22.5 8.8 22.35 L9.3 22.6 Q12.0 24.0 9.4 26.4 7.7 28.05 5.5 28.7 4.4 29.0 4.0 28.0 L3.75 26.95 M4.25 34.6 L5.2 34.6 Q5.55 35.15 5.2 36.2 L5.1 36.95 4.85 38.25 3.75 38.25 3.4 38.25 3.1 38.4 3.05 38.45 Q2.55 36.95 3.0 35.2 L3.25 34.65 3.25 34.6 4.25 34.6 M5.1 39.15 Q5.4 39.65 5.2 40.6 4.8 42.6 4.8 44.6 L4.0 44.65 2.85 44.7 Q1.4 41.95 3.15 39.55 L3.4 39.25 3.9 39.2 5.1 39.15 M4.25 55.25 L3.15 55.25 3.0 55.4 2.75 55.65 2.05 54.6 1.9 54.1 Q1.85 53.2 1.95 52.4 L2.0 52.2 2.1 51.95 2.15 51.85 2.3 51.65 2.35 51.55 3.35 51.15 5.1 50.9 4.95 52.5 4.85 53.15 4.8 55.2 4.25 55.25 M20.75 58.2 L20.8 58.2 20.75 58.3 20.75 58.2 M4.5 56.15 L4.85 56.1 5.0 57.3 5.05 57.85 5.6 61.6 5.65 61.9 5.25 61.9 Q4.05 61.35 3.0 60.6 L2.8 59.5 Q2.5 57.5 3.85 56.2 L4.0 56.2 4.2 56.15 4.5 56.15 M2.4 46.15 L2.4 46.05 4.75 45.45 Q5.05 46.1 4.85 47.0 4.65 48.0 4.9 48.95 5.1 49.75 4.85 50.35 L3.95 50.4 3.35 50.4 2.55 48.9 Q1.85 47.5 2.4 46.15" fill="#999999" fill-rule="evenodd" stroke="none"/>
    <path d="M23.95 67.6 L23.8 67.55 23.15 66.95 Q22.05 66.25 21.45 65.15 L18.85 65.0 16.7 65.5 Q15.6 65.65 14.6 66.25 14.3 64.15 11.7 64.35 9.95 64.45 9.15 66.15 L9.15 66.25 8.95 66.8 8.95 67.25 8.85 66.85 8.85 66.75 8.65 66.6 Q3.55 67.25 -0.5 64.7 L-1.9 63.7 Q-2.7 63.05 -3.15 62.05 L-3.3 61.4 -0.85 61.15 -0.55 61.1 -0.3 61.1 Q2.0 61.05 3.7 63.35 L12.2 63.45 Q16.45 63.35 20.05 61.35 L20.35 61.6 Q22.5 63.65 23.8 66.35 L24.1 67.15 24.0 67.5 24.0 67.6 23.95 67.6 M11.45 75.45 L11.8 75.1 12.05 74.95 12.75 74.85 12.75 74.8 13.0 74.85 Q14.25 77.75 13.75 81.15 12.85 80.5 12.4 79.35 12.3 77.15 11.45 75.45 M17.15 77.35 Q17.1 79.8 17.9 82.3 16.3 82.35 15.1 81.3 15.2 78.2 14.35 75.25 L14.3 75.1 Q16.1 75.55 17.15 77.35" fill="#714d00" fill-rule="evenodd" stroke="none"/>
    <path d="M4.0 71.75 L3.35 72.05 Q1.25 74.5 1.0 77.55 L0.9 78.8 Q-0.7 79.35 -2.1 78.35 -2.65 78.0 -2.75 77.25 L-2.8 75.05 -3.65 75.75 -5.05 75.55 Q-4.65 74.1 -4.55 72.75 -5.55 73.65 -5.95 74.85 L-6.2 75.85 -6.2 76.1 -6.55 77.45 -6.7 77.9 -8.7 77.4 -9.7 76.9 -10.85 75.5 -11.25 75.95 Q-13.95 76.7 -14.65 74.1 L-14.85 72.45 -14.65 71.9 -12.85 66.85 -12.75 66.5 -12.65 66.2 Q-11.85 64.65 -11.8 63.1 L-11.75 62.65 -11.75 62.6 -11.55 61.55 -11.1 60.65 Q-8.3 62.35 -4.9 61.85 L-4.8 61.85 -4.4 61.65 -3.55 61.5 Q-2.8 62.5 -3.45 63.8 L-4.0 64.8 Q-2.95 65.35 -3.05 67.05 L-3.05 67.2 -2.7 67.85 -2.55 67.85 Q-0.25 68.0 -0.55 70.5 L-0.4 70.35 0.7 69.5 Q1.5 68.95 2.45 68.85 L3.25 68.75 Q5.55 69.2 4.7 71.55 L4.0 71.75 M-9.0 66.1 L-9.7 66.25 Q-10.5 66.4 -10.85 67.2 -13.55 67.85 -13.35 70.4 -13.3 71.05 -12.75 71.4 -10.6 72.55 -8.15 71.4 L-7.1 69.85 Q-5.95 66.9 -9.0 66.1 M-2.3 75.6 L-1.45 72.95 Q-2.5 74.3 -2.3 75.6" fill="#99cc99" fill-rule="evenodd" stroke="none"/>
    <path d="M26.4 69.8 L26.3 69.8 26.25 69.7 26.4 69.8 M14.6 66.25 L14.6 67.05 Q14.5 67.95 13.6 68.4 11.5 69.35 9.7 68.2 L9.2 67.75 9.2 68.7 9.5 69.55 Q10.05 70.9 11.15 71.35 L12.1 73.0 12.0 72.95 11.7 72.85 11.35 72.75 11.15 72.85 Q10.65 73.25 10.45 73.8 9.55 72.65 8.3 71.75 6.0 70.95 4.0 71.75 L4.7 71.55 Q5.55 69.2 3.25 68.75 L2.45 68.85 Q1.5 68.95 0.7 69.5 L-0.4 70.35 -0.55 70.5 Q-0.25 68.0 -2.55 67.85 L-2.7 67.85 -3.05 67.2 -3.05 67.05 Q-2.95 65.35 -4.0 64.8 L-3.45 63.8 Q-2.8 62.5 -3.55 61.5 L-4.4 61.65 -3.3 61.4 -3.15 62.05 Q-2.7 63.05 -1.9 63.7 L-0.5 64.7 Q3.55 67.25 8.65 66.6 L8.85 66.75 8.85 66.85 8.95 67.25 8.95 66.8 9.15 66.25 9.15 66.15 Q9.95 64.45 11.7 64.35 14.3 64.15 14.6 66.25 M12.35 71.45 L12.7 71.4 12.6 71.75 12.35 71.45 M14.15 68.85 L14.85 67.8 15.75 67.05 Q16.4 66.55 17.15 66.3 19.6 65.8 20.1 68.1 20.45 69.5 19.15 70.35 L18.85 70.45 Q17.75 72.55 17.35 74.75 L17.35 74.8 17.3 74.8 Q15.1 75.65 14.1 73.65 L14.05 73.65 14.05 73.55 Q14.0 71.55 15.15 69.75 L15.25 69.6 17.25 66.95 Q15.6 67.45 14.15 68.85 M28.4 72.2 L28.15 71.65 28.1 71.45 28.3 71.75 28.4 72.2 M0.9 78.8 Q0.8 81.2 1.05 83.75 0.25 84.45 -0.75 84.0 -2.2 83.25 -2.55 81.6 -2.5 80.2 -2.7 79.05 -3.65 80.1 -3.4 81.85 -4.7 82.0 -5.4 80.7 -6.35 78.65 -5.5 76.65 L-5.05 75.55 -3.65 75.75 -2.8 75.05 -2.75 77.25 Q-2.65 78.0 -2.1 78.35 -0.7 79.35 0.9 78.8 M-6.55 77.45 L-7.4 79.05 -7.05 80.85 Q-9.25 81.2 -10.95 79.8 -12.65 78.3 -14.45 77.35 -15.55 76.4 -15.3 75.0 L-14.85 72.45 -14.65 74.1 Q-13.95 76.7 -11.25 75.95 L-10.85 75.5 -9.7 76.9 -8.7 77.4 -6.7 77.9 -6.55 77.45 M-12.75 66.5 L-11.75 62.65 -11.8 63.1 Q-11.85 64.65 -12.65 66.2 L-12.75 66.5 M-11.55 61.55 L-11.3 60.5 -11.1 60.65 -11.55 61.55 M24.0 67.6 L24.0 67.5 24.1 67.15 24.3 67.6 24.0 67.6 M20.05 70.95 L20.35 70.9 Q23.15 70.6 25.1 72.2 29.15 77.3 27.6 83.5 26.35 84.35 25.2 84.2 25.55 81.8 24.85 79.35 24.75 79.15 24.95 78.95 L23.5 74.8 Q23.0 73.55 21.85 72.75 20.3 73.0 20.0 71.65 19.95 71.25 20.05 70.95 M9.4 86.0 L9.1 80.95 8.5 76.55 Q6.8 74.75 4.7 73.5 4.25 73.2 4.2 72.75 L4.5 72.5 Q6.45 72.35 8.45 72.95 10.35 75.6 11.4 78.65 12.45 81.75 11.55 84.9 L9.4 86.0 M-9.0 66.1 Q-5.95 66.9 -7.1 69.85 L-8.15 71.4 Q-10.6 72.55 -12.75 71.4 -13.3 71.05 -13.35 70.4 -13.55 67.85 -10.85 67.2 -10.5 66.4 -9.7 66.25 L-9.0 66.1" fill="#999933" fill-rule="evenodd" stroke="none"/>
    <path d="M20.05 70.95 Q19.95 71.25 20.0 71.65 20.3 73.0 21.85 72.75 23.0 73.55 23.5 74.8 L24.95 78.95 Q24.75 79.15 24.85 79.35 25.55 81.8 25.2 84.2 L24.4 83.9 Q22.8 83.05 21.15 83.3 18.65 82.0 18.35 79.35 17.95 76.75 18.15 74.2 L18.7 72.15 Q18.95 71.15 20.05 70.95 M4.2 72.75 Q4.25 73.2 4.7 73.5 6.8 74.75 8.5 76.55 L9.1 80.95 9.4 86.0 8.3 86.35 Q6.45 86.85 4.85 85.8 4.0 85.35 2.95 85.05 1.95 84.75 1.85 83.55 1.5 80.45 1.85 77.45 2.2 74.7 4.2 72.75" fill="#cccc99" fill-rule="evenodd" stroke="none"/>
    <path d="M26.4 69.8 L26.65 69.95 28.1 71.45 28.15 71.65 28.4 72.2 28.65 73.2 28.8 76.2 26.85 72.8 26.8 72.7 26.7 72.5 26.05 71.65 Q25.15 70.7 23.85 70.3 21.45 69.65 19.15 70.35 20.45 69.5 20.1 68.1 19.6 65.8 17.15 66.3 16.4 66.55 15.75 67.05 L14.85 67.8 14.15 68.85 14.1 68.9 13.75 69.35 12.75 71.1 12.7 71.4 12.35 71.45 9.95 68.65 9.7 68.9 11.15 71.35 Q10.05 70.9 9.5 69.55 L9.2 68.7 9.2 67.75 9.7 68.2 Q11.5 69.35 13.6 68.4 14.5 67.95 14.6 67.05 L14.6 66.25 Q15.6 65.65 16.7 65.5 L18.85 65.0 21.45 65.15 Q22.05 66.25 23.15 66.95 L23.8 67.55 23.95 67.6 22.6 67.35 Q21.7 67.1 21.0 67.8 L23.2 68.55 25.0 69.15 Q25.7 69.35 26.25 69.7 L26.3 69.8 26.4 69.8 M10.45 73.8 Q10.65 73.25 11.15 72.85 L11.35 72.75 11.7 72.85 12.0 72.95 12.1 73.0 12.1 73.05 12.4 73.6 12.85 74.55 12.9 74.65 13.0 74.85 12.75 74.8 12.75 74.85 12.05 74.95 11.8 75.1 11.45 75.45 10.45 73.8 M14.05 73.65 L14.1 73.65 Q15.1 75.65 17.3 74.8 L17.35 74.8 Q17.1 76.05 17.15 77.35 16.1 75.55 14.3 75.1 L14.05 73.65" fill="#996600" fill-rule="evenodd" stroke="none"/>
  </g>
</svg>
