<?xml version="1.0" encoding="UTF-8" standalone="no"?>
<svg xmlns:xlink="http://www.w3.org/1999/xlink" height="127.65px" width="40.05px" xmlns="http://www.w3.org/2000/svg">
  <g transform="matrix(1.0, 0.0, 0.0, 1.0, 27.9, 11.8)">
    <path d="M7.0 -9.45 Q4.85 -10.55 2.45 -10.45 L-1.3 -9.65 -1.5 -9.5 -1.6 -9.45 -2.05 -9.15 -2.15 -9.05 -2.35 -8.95 -2.55 -8.75 -2.7 -8.65 -2.85 -8.5 Q-4.35 -7.35 -5.25 -5.95 -6.2 -4.5 -6.55 -2.85 L-6.6 -2.55 Q-6.95 -0.95 -6.7 0.9 L-6.75 0.6 -6.8 0.7 -7.7 2.45 -8.05 1.8 -9.3 2.85 -11.8 5.45 -12.1 5.85 -13.4 8.3 -13.65 9.15 Q-14.05 10.7 -13.8 12.45 L-13.8 12.55 -13.7 13.2 Q-13.3 15.4 -12.4 17.4 L-12.75 18.35 -13.0 19.5 -13.1 19.35 Q-13.9 19.9 -14.35 20.75 L-15.0 22.45 -15.55 26.35 -15.85 28.3 -15.9 28.55 Q-16.05 29.9 -15.55 31.1 L-15.55 33.65 -15.55 33.95 -15.8 33.9 -16.65 35.0 -16.8 35.25 -17.6 36.45 -17.95 37.45 -18.0 37.45 -19.85 42.05 -19.9 42.3 -20.0 42.6 -19.9 42.55 -19.95 42.6 -19.95 42.65 -20.05 43.1 -20.25 44.5 -20.35 44.6 -20.6 44.9 -20.95 47.7 -21.0 49.05 -21.0 49.1 -21.0 49.7 -21.5 49.75 Q-22.2 49.95 -22.8 50.4 L-23.35 50.9 -24.25 51.3 -26.85 54.55 -26.85 54.65 -27.0 56.3 Q-27.25 58.3 -26.65 60.0 L-26.5 62.55 Q-26.35 63.55 -25.5 64.1 L-25.55 65.0 Q-25.0 67.7 -23.75 70.2 L-22.85 71.9 -22.75 72.05 -22.2 72.9 -22.1 73.1 -21.95 73.35 Q-19.25 77.2 -14.1 78.8 -11.3 79.2 -9.4 77.65 -7.2 73.45 -7.3 68.65 -7.05 65.65 -6.45 62.7 -6.35 61.95 -6.65 61.3 -4.3 53.4 -4.85 44.9 L-4.9 44.85 -4.9 43.3 -5.1 42.05 Q-5.2 40.6 -5.7 39.15 L-5.95 39.25 -5.75 38.15 -5.2 35.9 -3.75 35.8 Q-0.8 33.9 0.95 31.05 4.35 26.85 5.75 21.5 6.75 17.35 5.4 13.5 6.55 12.2 7.2 10.6 8.95 9.15 9.15 6.55 9.15 5.15 8.6 4.15 L9.45 2.65 10.15 0.7 10.15 0.65 11.0 -0.6 Q12.0 -4.6 9.35 -7.95 L7.0 -9.45 M12.15 -3.85 L12.05 -2.4 Q11.65 0.75 9.85 3.5 9.5 3.9 9.75 4.45 L9.8 4.55 9.8 4.6 9.95 7.1 9.1 10.15 Q8.75 11.0 8.0 11.5 7.25 12.1 7.2 12.9 6.95 13.25 6.95 13.7 6.8 14.2 6.9 14.8 L7.05 15.5 Q7.65 18.1 7.3 20.8 7.0 21.65 6.95 22.55 L5.4 27.05 5.3 27.3 2.95 30.7 -0.15 34.35 Q-1.6 36.25 -4.0 37.25 -2.2 43.3 -3.15 49.8 -4.15 56.25 -5.55 62.3 L-6.55 64.8 Q-6.9 65.6 -6.45 66.35 L-6.4 67.2 -6.15 69.95 Q-6.05 72.65 -6.6 75.3 L-6.8 75.8 -6.9 76.9 Q-7.1 78.1 -5.55 79.25 -5.65 80.8 -7.3 81.7 -9.3 81.95 -10.2 80.45 -10.1 80.0 -10.5 79.7 L-10.6 79.6 -11.15 80.0 -10.85 80.75 -7.05 89.05 -6.5 90.2 Q-5.15 90.15 -4.5 89.05 L-4.35 88.8 -4.25 89.05 Q-1.8 94.8 0.3 101.0 -1.45 100.85 -2.9 102.3 -1.25 108.5 1.25 114.45 L1.25 115.85 0.6 115.85 Q-3.4 108.55 -6.15 100.75 L-3.6 99.25 Q-3.85 97.25 -4.95 95.65 -6.5 95.95 -8.25 96.7 L-11.9 89.05 -15.05 83.2 Q-16.85 83.1 -17.65 81.95 L-17.65 81.55 -17.95 80.2 -17.9 80.0 Q-17.85 78.6 -19.05 78.3 L-19.6 78.05 -19.7 77.9 -20.75 77.0 -21.9 75.45 Q-23.65 72.9 -24.95 70.15 -26.35 67.3 -27.05 64.35 -27.8 61.35 -27.9 58.25 -28.0 56.3 -27.35 54.45 -26.3 51.45 -23.75 49.6 L-23.1 48.7 -22.6 48.5 Q-22.85 39.9 -17.1 33.55 L-17.05 33.5 Q-16.55 33.1 -16.65 32.45 -17.0 30.25 -16.95 28.0 -17.05 26.4 -16.8 24.9 -16.55 22.2 -15.2 19.95 L-14.4 18.5 -14.3 17.9 -14.3 17.85 -14.4 17.3 -14.8 15.15 -15.15 12.1 Q-15.05 8.9 -13.4 6.2 -11.8 3.5 -9.35 1.6 L-8.8 0.85 -8.7 0.8 -8.55 0.65 -8.4 0.4 -7.1 -4.45 -6.85 -5.25 Q-5.85 -7.1 -4.35 -8.55 -3.05 -9.9 -1.55 -10.8 1.3 -12.0 4.55 -11.75 8.55 -11.4 11.1 -8.3 12.15 -6.3 12.15 -3.85 M-17.1 72.15 L-16.5 72.25 -16.3 72.55 -16.05 72.7 -17.1 72.15 M-7.2 80.6 Q-6.6 80.05 -6.4 79.35 -6.95 78.25 -8.2 78.35 -9.3 78.75 -9.15 79.75 -8.55 80.8 -7.2 80.6 M-17.85 84.8 L-16.1 84.3 -13.5 89.05 Q-11.3 93.2 -9.2 97.5 -9.25 99.45 -11.5 100.2 -14.75 94.8 -17.35 89.05 L-18.7 86.0 Q-18.85 85.05 -17.85 84.8 M-11.45 87.25 L-11.9 87.1 -10.95 89.05 -10.1 90.35 -9.9 90.6 Q-8.8 92.9 -7.8 95.35 -6.9 95.45 -6.45 94.95 L-6.1 94.8 -5.3 94.3 -5.05 94.15 -4.35 94.1 -4.2 94.4 -3.9 94.95 -3.95 95.0 Q-2.95 97.15 -2.55 99.6 -3.05 100.3 -3.95 100.6 -5.5 101.5 -4.5 102.9 -3.5 104.3 -3.25 105.65 L-3.75 102.3 Q-3.0 100.75 -1.2 100.1 -1.6 97.65 -2.55 95.4 L-2.55 94.75 -2.75 94.3 -3.65 92.4 -3.65 92.35 Q-3.7 91.9 -3.9 91.7 L-4.35 90.7 -5.4 91.05 -5.75 91.0 -5.85 91.05 -5.9 91.1 -7.3 91.75 -7.05 92.5 -8.35 88.75 -8.75 87.45 -9.4 85.35 Q-9.7 84.5 -10.15 84.05 L-10.1 83.95 -11.5 81.65 Q-12.75 81.75 -13.8 82.3 -13.65 83.85 -12.6 85.2 L-12.55 85.15 -12.1 86.6 Q-12.15 87.05 -11.45 87.25 M-12.5 80.45 L-16.8 79.4 Q-16.9 81.0 -15.4 81.95 -13.6 81.4 -12.5 80.45 M-16.2 89.5 L-15.7 90.4 -15.65 90.65 -15.1 91.7 -14.8 92.4 -14.25 93.25 Q-14.3 93.75 -13.95 94.3 L-13.5 95.05 -12.7 96.35 -11.25 98.9 Q-10.6 98.9 -10.1 98.4 -10.35 97.0 -11.1 95.8 L-11.2 95.5 Q-11.45 94.55 -11.95 93.75 L-12.15 93.3 -12.85 92.55 Q-13.05 92.0 -13.4 91.6 -13.4 90.9 -13.95 90.25 L-14.1 90.05 -14.5 89.05 -14.8 88.65 -15.5 87.0 Q-15.95 85.75 -17.35 85.55 -17.6 87.05 -16.55 88.75 L-16.4 89.05 -16.35 89.2 -16.2 89.5" fill="#000000" fill-rule="evenodd" stroke="none"/>
    <path d="M2.45 -10.45 L2.6 -9.25 Q2.55 -6.85 0.5 -5.4 L-1.7 -4.1 Q-3.2 -3.35 -4.3 -4.4 -5.1 -5.2 -5.25 -5.95 -4.35 -7.35 -2.85 -8.5 L-2.7 -8.65 -2.55 -8.75 -2.35 -8.95 -2.15 -9.05 -2.05 -9.15 -1.6 -9.45 -1.5 -9.5 -1.3 -9.65 2.45 -10.45 M-10.95 41.05 Q-7.9 41.6 -5.15 43.3 L-5.1 42.05 -4.9 43.3 -4.9 44.85 -4.9 44.9 -6.3 43.9 Q-8.45 42.6 -10.9 42.0 L-11.0 42.0 -11.0 41.85 Q-10.9 41.45 -10.95 41.05 M1.5 1.35 L2.4 2.2 Q2.75 2.75 2.55 3.4 1.85 5.2 0.25 6.5 -2.1 8.2 -3.7 6.1 L-4.05 5.4 Q-3.45 4.3 -2.5 3.3 -0.75 1.75 1.5 1.35 M-9.3 2.85 Q-7.95 3.15 -8.15 4.85 -8.35 6.4 -9.25 7.7 L-10.95 9.3 Q-12.55 10.45 -13.6 9.15 L-13.65 9.15 -13.4 8.3 -12.1 5.85 -11.8 5.45 -9.3 2.85 M-15.55 26.35 L-15.0 22.45 -14.35 20.75 -13.6 20.5 Q-11.2 21.15 -12.15 23.6 -12.5 24.55 -13.3 25.3 -13.95 25.95 -14.65 26.25 L-15.55 26.35 M-6.2 24.6 L-6.3 24.95 -6.8 25.7 Q-6.95 25.7 -7.15 25.85 -8.2 24.85 -7.8 23.05 -6.2 16.25 -0.05 12.95 2.4 13.65 0.45 15.7 L-3.25 20.15 -6.2 24.6 M-20.35 44.6 L-20.25 44.5 Q-18.4 42.25 -15.45 41.75 -15.75 43.1 -16.7 44.2 L-18.35 45.5 Q-19.9 45.65 -20.35 44.6 M-19.9 42.55 L-20.0 42.6 -19.9 42.3 -19.85 42.05 -18.0 37.45 -17.95 37.45 -16.85 37.15 Q-15.0 37.25 -14.8 39.3 L-15.05 40.5 -15.15 40.8 -15.75 40.85 -16.3 40.9 -17.1 41.0 -17.25 41.05 -17.5 41.1 -19.8 42.5 -19.9 42.55 M-23.35 50.9 L-22.7 50.7 -22.5 51.75 -22.4 52.55 -22.35 53.45 -22.35 53.65 -22.35 53.9 -22.35 54.05 -22.35 54.1 -22.35 54.15 Q-24.2 55.7 -25.25 57.6 L-25.35 57.8 -26.25 59.8 -26.45 60.6 -26.5 60.5 -26.65 60.0 Q-27.25 58.3 -27.0 56.3 L-26.85 54.65 -26.85 54.55 -24.25 51.3 -23.35 50.9 M-25.15 60.9 L-25.0 59.8 -24.95 59.6 Q-24.35 57.0 -22.05 55.3 L-22.0 55.25 -21.95 55.45 -21.3 57.15 Q-21.95 59.75 -24.4 60.95 L-25.15 61.1 -25.15 60.9 M-7.25 38.5 Q-9.3 38.7 -10.75 37.65 -12.35 35.95 -11.3 33.9 -9.6 35.45 -7.4 36.6 -6.5 36.5 -5.9 37.2 -6.05 38.1 -7.25 38.5 M-14.65 67.0 L-14.65 67.45 Q-15.0 69.7 -16.85 69.8 L-17.25 69.3 -18.2 67.4 -18.25 67.3 -18.25 67.15 -18.25 67.1 -17.5 64.6 -17.45 64.55 -17.4 64.6 -14.65 67.0" fill="#999999" fill-rule="evenodd" stroke="none"/>
    <path d="M7.0 -9.45 L7.35 -8.8 Q8.0 -5.75 5.65 -3.5 L2.6 -1.1 Q1.85 -0.6 1.05 -0.4 L-0.1 -0.35 -1.05 -0.55 -1.95 -0.3 -4.8 -0.45 Q-5.3 -0.55 -5.65 -0.85 -6.35 -1.5 -6.4 -2.5 L-6.6 -2.55 -6.55 -2.85 Q-6.2 -4.5 -5.25 -5.95 -5.1 -5.2 -4.3 -4.4 -3.2 -3.35 -1.7 -4.1 L0.5 -5.4 Q2.55 -6.85 2.6 -9.25 L2.45 -10.45 Q4.85 -10.55 7.0 -9.45 M-7.7 2.45 L-6.25 4.8 -6.4 4.9 Q-6.05 7.45 -7.5 9.8 -8.75 11.7 -10.9 12.35 L-13.55 12.5 -13.8 12.55 -13.8 12.45 Q-14.05 10.7 -13.65 9.15 L-13.6 9.15 Q-12.55 10.45 -10.95 9.3 L-9.25 7.7 Q-8.35 6.4 -8.15 4.85 -7.95 3.15 -9.3 2.85 L-8.05 1.8 -7.7 2.45 M-13.0 19.5 L-11.15 21.8 -12.35 26.15 -13.45 27.7 -14.15 28.35 -15.85 28.55 -15.85 28.3 -15.55 26.35 -14.65 26.25 Q-13.95 25.95 -13.3 25.3 -12.5 24.55 -12.15 23.6 -11.2 21.15 -13.6 20.5 L-14.35 20.75 Q-13.9 19.9 -13.1 19.35 L-13.0 19.5 M-15.55 33.95 L-13.05 34.9 Q-13.25 37.2 -11.5 38.55 L-10.8 39.05 -10.95 41.05 Q-10.9 41.45 -11.0 41.85 L-11.0 42.0 -11.1 41.95 -11.2 42.5 Q-11.75 45.5 -13.35 48.15 -15.55 51.7 -19.45 50.65 -20.7 50.25 -21.0 49.1 L-21.0 49.05 -20.95 47.7 -20.6 44.9 -20.35 44.6 Q-19.9 45.65 -18.35 45.5 L-16.7 44.2 Q-15.75 43.1 -15.45 41.75 -18.4 42.25 -20.25 44.5 L-20.05 43.1 -19.95 42.65 -19.95 42.6 -19.9 42.55 -19.8 42.5 -17.5 41.1 -17.25 41.05 -17.1 41.0 -16.3 40.9 -15.75 40.85 -15.15 40.8 -15.05 40.5 -14.8 39.3 Q-15.0 37.25 -16.85 37.15 L-17.95 37.45 -17.6 36.45 -16.8 35.25 -16.65 35.0 -15.8 33.9 -15.55 33.95 M10.15 0.7 L10.15 0.65 10.15 0.7 M-4.05 5.4 L-3.7 6.1 Q-2.1 8.2 0.25 6.5 1.85 5.2 2.55 3.4 2.75 2.75 2.4 2.2 L1.5 1.35 4.2 1.25 4.85 1.3 5.25 3.3 Q5.25 6.6 3.3 9.15 0.75 8.5 -1.0 9.8 L-4.7 12.1 Q-5.45 9.5 -4.8 7.2 L-4.05 5.4 M0.15 10.35 Q2.25 10.65 3.0 12.9 3.5 14.55 2.8 16.2 2.6 16.65 2.55 17.15 1.95 22.4 -1.35 26.45 -3.5 29.0 -6.75 28.9 -10.0 28.75 -10.8 25.75 L-10.9 25.75 -10.85 25.6 -8.8 20.85 -6.85 17.05 -6.75 16.8 -6.15 15.8 -6.05 15.65 -5.9 15.55 -0.8 10.9 0.1 10.35 0.15 10.35 M-6.2 24.6 L-3.25 20.15 0.45 15.7 Q2.4 13.65 -0.05 12.95 -6.2 16.25 -7.8 23.05 -8.2 24.85 -7.15 25.85 -6.95 25.7 -6.8 25.7 L-6.3 24.95 -6.2 24.6 M-4.9 44.9 L-4.9 44.85 -4.85 44.9 -4.9 44.9 M-25.5 64.1 L-25.45 62.95 -25.2 61.1 -25.15 61.1 -24.4 60.95 Q-21.95 59.75 -21.3 57.15 L-19.75 60.6 -19.4 61.3 -18.35 63.1 Q-20.6 65.45 -19.9 68.6 -19.2 70.85 -17.1 72.15 L-16.05 72.7 -14.0 73.0 -14.45 74.05 -15.2 74.75 Q-17.95 76.05 -20.55 74.05 L-20.65 73.85 Q-21.5 72.35 -22.9 71.3 -23.25 70.55 -23.75 70.2 -25.0 67.7 -25.55 65.0 L-25.5 64.1 M-16.85 69.8 Q-15.0 69.7 -14.65 67.45 L-14.65 67.0 -14.1 67.4 Q-12.25 68.75 -9.95 68.6 -9.5 69.35 -10.3 69.85 L-11.65 70.7 Q-14.25 71.1 -16.45 70.2 L-16.85 69.8 M-13.05 63.65 Q-10.15 63.5 -8.2 65.55 -8.5 66.7 -9.75 67.25 -13.05 67.6 -15.35 65.05 -14.65 64.0 -13.05 63.65 M-12.5 80.45 Q-13.6 81.4 -15.4 81.95 -16.9 81.0 -16.8 79.4 L-12.5 80.45" fill="#666666" fill-rule="evenodd" stroke="none"/>
    <path d="M-6.6 -2.55 L-6.4 -2.5 Q-6.35 -1.5 -5.65 -0.85 -5.3 -0.55 -4.8 -0.45 L-1.95 -0.3 -1.05 -0.55 -0.1 -0.35 1.05 -0.4 Q1.85 -0.6 2.6 -1.1 L5.65 -3.5 Q8.0 -5.75 7.35 -8.8 L7.0 -9.45 9.35 -7.95 Q12.0 -4.6 11.0 -0.6 L10.15 0.65 10.15 0.7 9.45 2.65 8.6 4.15 Q9.15 5.15 9.15 6.55 8.95 9.15 7.2 10.6 6.55 12.2 5.4 13.5 6.75 17.35 5.75 21.5 4.35 26.85 0.95 31.05 -0.8 33.9 -3.75 35.8 L-5.2 35.9 -5.75 38.15 -5.95 39.25 -5.7 39.15 Q-5.2 40.6 -5.1 42.05 L-5.15 43.3 Q-7.9 41.6 -10.95 41.05 L-10.8 39.05 -11.5 38.55 Q-13.25 37.2 -13.05 34.9 L-15.55 33.95 -15.55 33.65 -15.55 31.1 Q-16.05 29.9 -15.9 28.55 L-15.85 28.55 -14.15 28.35 -13.45 27.7 -12.35 26.15 -11.15 21.8 -13.0 19.5 -12.75 18.35 -12.4 17.4 Q-13.3 15.4 -13.7 13.2 L-13.8 12.55 -13.55 12.5 -10.9 12.35 Q-8.75 11.7 -7.5 9.8 -6.05 7.45 -6.4 4.9 L-6.25 4.8 -7.7 2.45 -6.8 0.7 -6.75 0.6 -6.7 0.9 Q-6.95 -0.95 -6.6 -2.55 M1.5 1.35 Q-0.75 1.75 -2.5 3.3 -3.45 4.3 -4.05 5.4 L-4.8 7.2 Q-5.45 9.5 -4.7 12.1 L-1.0 9.8 Q0.75 8.5 3.3 9.15 5.25 6.6 5.25 3.3 L4.85 1.3 4.2 1.25 1.5 1.35 M0.15 10.35 L0.1 10.35 -0.8 10.9 -5.9 15.55 -6.05 15.65 -6.15 15.8 -6.75 16.8 -6.85 17.05 -8.8 20.85 -10.85 25.6 -10.9 25.75 -10.8 25.75 Q-10.0 28.75 -6.75 28.9 -3.5 29.0 -1.35 26.45 1.95 22.4 2.55 17.15 2.6 16.65 2.8 16.2 3.5 14.55 3.0 12.9 2.25 10.65 0.15 10.35 M-19.95 42.6 L-19.9 42.55 -19.8 42.5 -19.9 42.55 -19.95 42.6 M-11.0 42.0 L-10.9 42.0 Q-8.45 42.6 -6.3 43.9 L-4.9 44.9 -4.85 44.9 Q-4.3 53.4 -6.65 61.3 -6.35 61.95 -6.45 62.7 -7.05 65.65 -7.3 68.65 -7.2 73.45 -9.4 77.65 -11.3 79.2 -14.1 78.8 -19.25 77.2 -21.95 73.35 L-22.1 73.1 -22.2 72.9 -22.75 72.05 -22.85 71.9 -23.75 70.2 Q-23.25 70.55 -22.9 71.3 -21.5 72.35 -20.65 73.85 L-20.55 74.05 Q-17.95 76.05 -15.2 74.75 L-14.45 74.05 -14.0 73.0 -16.05 72.7 -16.3 72.55 -16.5 72.25 -17.1 72.15 Q-19.2 70.85 -19.9 68.6 -20.6 65.45 -18.35 63.1 L-19.4 61.3 -19.75 60.6 -21.3 57.15 -21.95 55.45 -22.0 55.25 -22.05 55.3 Q-24.35 57.0 -24.95 59.6 L-25.0 59.8 -25.15 60.9 -25.2 61.1 -25.45 62.95 -25.5 64.1 Q-26.35 63.55 -26.5 62.55 L-26.65 60.0 -26.5 60.5 -26.45 60.6 -26.25 59.8 -25.35 57.8 -25.25 57.6 Q-24.2 55.7 -22.35 54.15 L-22.35 54.1 -22.35 54.05 -22.35 53.9 -22.35 53.65 -22.35 53.45 -22.4 52.55 -22.5 51.75 -22.7 50.7 -23.35 50.9 -22.8 50.4 Q-22.2 49.95 -21.5 49.75 L-21.0 49.7 -21.0 49.1 Q-20.7 50.25 -19.45 50.65 -15.55 51.7 -13.35 48.15 -11.75 45.5 -11.2 42.5 L-11.1 41.95 -11.0 42.0 M-7.25 38.5 Q-6.05 38.1 -5.9 37.2 -6.5 36.5 -7.4 36.6 -9.6 35.45 -11.3 33.9 -12.35 35.95 -10.75 37.65 -9.3 38.7 -7.25 38.5 M-15.8 56.5 Q-17.6 57.35 -16.95 59.05 -16.3 59.65 -15.4 59.7 -13.6 59.05 -14.2 57.35 -14.65 56.45 -15.8 56.5 M-18.0 54.8 Q-17.35 55.4 -16.45 55.45 -14.65 54.8 -15.25 53.1 -15.7 52.2 -16.85 52.25 -18.65 53.1 -18.0 54.8 M-16.85 69.8 L-16.45 70.2 Q-14.25 71.1 -11.65 70.7 L-10.3 69.85 Q-9.5 69.35 -9.95 68.6 -12.25 68.75 -14.1 67.4 L-14.65 67.0 -17.4 64.6 -17.45 64.55 -17.5 64.6 -18.25 67.1 -18.25 67.15 -18.25 67.3 -18.2 67.4 -17.25 69.3 -16.85 69.8 M-13.05 63.65 Q-14.65 64.0 -15.35 65.05 -13.05 67.6 -9.75 67.25 -8.5 66.7 -8.2 65.55 -10.15 63.5 -13.05 63.65" fill="#333333" fill-rule="evenodd" stroke="none"/>
    <path d="M-15.85 28.55 L-15.9 28.55 -15.85 28.3 -15.85 28.55 M-25.2 61.1 L-25.15 60.9 -25.15 61.1 -25.2 61.1 M-22.05 55.3 L-22.0 55.25 -22.05 55.3" fill="#cccccc" fill-rule="evenodd" stroke="none"/>
    <path d="M-18.0 54.8 Q-18.65 53.1 -16.85 52.25 -15.7 52.2 -15.25 53.1 -14.65 54.8 -16.45 55.45 -17.35 55.4 -18.0 54.8 M-15.8 56.5 Q-14.65 56.45 -14.2 57.35 -13.6 59.05 -15.4 59.7 -16.3 59.65 -16.95 59.05 -17.6 57.35 -15.8 56.5 M-7.2 80.6 Q-8.55 80.8 -9.15 79.75 -9.3 78.75 -8.2 78.35 -6.95 78.25 -6.4 79.35 -6.6 80.05 -7.2 80.6 M-11.45 87.25 L-11.4 87.3 -11.3 87.35 Q-9.9 87.0 -9.35 86.0 -9.9 85.1 -10.55 85.55 -11.25 86.0 -11.95 86.25 L-12.1 86.6 -12.55 85.15 Q-11.15 84.85 -10.15 84.05 -9.7 84.5 -9.4 85.35 L-8.75 87.45 -8.8 87.45 Q-10.15 87.15 -11.1 88.15 L-10.65 89.05 -9.9 90.6 -10.1 90.35 -10.95 89.05 -11.9 87.1 -11.45 87.25 M-16.15 89.45 L-15.45 90.05 -15.4 90.05 -15.15 90.15 -14.45 89.3 -14.6 89.05 -14.8 88.65 -14.5 89.05 -14.1 90.05 -13.95 90.25 Q-13.4 90.9 -13.4 91.6 L-13.75 91.2 -14.35 90.75 -14.4 90.75 -14.45 90.7 -15.1 91.7 -15.65 90.65 -15.7 90.4 -16.2 89.5 -16.15 89.45 M-12.85 92.55 L-12.15 93.3 -11.95 93.75 Q-11.45 94.55 -11.2 95.5 -11.8 94.45 -13.05 95.3 L-12.85 95.95 -12.7 96.35 -13.5 95.05 -13.95 94.3 Q-14.3 93.75 -14.25 93.25 L-14.25 93.2 -14.05 93.65 -13.95 94.0 -13.95 94.05 -13.9 94.15 Q-13.25 94.4 -12.5 93.9 -12.6 93.15 -12.85 92.55" fill="#33ff00" fill-rule="evenodd" stroke="none"/>
    <path d="M-12.1 86.6 L-11.95 86.25 Q-11.25 86.0 -10.55 85.55 -9.9 85.1 -9.35 86.0 -9.9 87.0 -11.3 87.35 L-11.4 87.3 -11.45 87.25 Q-12.15 87.05 -12.1 86.6 M-10.15 84.05 Q-11.15 84.85 -12.55 85.15 L-12.6 85.2 Q-13.65 83.85 -13.8 82.3 -12.75 81.75 -11.5 81.65 L-10.1 83.95 -10.15 84.05 M-14.8 88.65 L-14.6 89.05 -14.45 89.3 -15.15 90.15 -15.4 90.05 -15.45 90.05 -16.15 89.45 -16.35 89.2 -16.4 89.05 -16.55 88.75 Q-17.6 87.05 -17.35 85.55 -15.95 85.75 -15.5 87.0 L-14.8 88.65 M-15.1 91.7 L-14.45 90.7 -14.4 90.75 -14.35 90.75 -13.75 91.2 -13.4 91.6 Q-13.05 92.0 -12.85 92.55 -12.6 93.15 -12.5 93.9 -13.25 94.4 -13.9 94.15 L-13.95 94.05 -13.95 94.0 -14.05 93.65 -14.25 93.2 -14.25 93.25 -14.8 92.4 -15.1 91.7 M-7.05 92.5 L-7.3 91.75 -5.9 91.1 -5.85 91.05 -5.75 91.0 -5.4 91.05 -4.35 90.7 -3.9 91.7 Q-3.7 91.9 -3.65 92.35 L-3.65 92.4 -2.75 94.3 -2.55 94.75 -2.55 95.4 -2.95 94.6 Q-3.6 94.6 -3.9 94.95 L-4.2 94.4 -4.35 94.1 -5.05 94.15 -5.3 94.3 -6.1 94.8 -6.45 94.95 -6.3 94.65 -7.05 92.5" fill="#006699" fill-rule="evenodd" stroke="none"/>
    <path d="M-9.9 90.6 L-10.65 89.05 -11.1 88.15 Q-10.15 87.15 -8.8 87.45 L-8.35 88.75 -7.05 92.5 -6.3 94.65 -6.45 94.95 Q-6.9 95.45 -7.8 95.35 -8.8 92.9 -9.9 90.6 M-11.2 95.5 L-11.1 95.8 Q-10.35 97.0 -10.1 98.4 -10.6 98.9 -11.25 98.9 L-12.7 96.35 -12.85 95.95 -13.05 95.3 Q-11.8 94.45 -11.2 95.5 M-2.55 95.4 Q-1.6 97.65 -1.2 100.1 -3.0 100.75 -3.75 102.3 L-3.25 105.65 Q-3.5 104.3 -4.5 102.9 -5.5 101.5 -3.95 100.6 -3.05 100.3 -2.55 99.6 -2.95 97.15 -3.95 95.0 L-3.9 94.95 Q-3.6 94.6 -2.95 94.6 L-2.55 95.4" fill="#0099ff" fill-rule="evenodd" stroke="none"/>
    <path d="M-8.8 87.45 L-8.75 87.45 -8.35 88.75 -8.8 87.45 M-16.15 89.45 L-16.2 89.5 -16.35 89.2 -16.15 89.45" fill="#ffffff" fill-rule="evenodd" stroke="none"/>
  </g>
</svg>
