<?xml version="1.0" encoding="UTF-8" standalone="no"?>
<svg xmlns:xlink="http://www.w3.org/1999/xlink" height="146.65px" width="47.45px" xmlns="http://www.w3.org/2000/svg">
  <g transform="matrix(1.0, 0.0, 0.0, 1.0, 11.55, 12.6)">
    <path d="M-8.55 -8.95 Q-7.6 -9.95 -6.3 -10.65 -3.35 -12.25 -0.2 -12.6 2.55 -12.6 5.25 -11.6 7.95 -10.6 9.8 -8.2 L9.85 -8.2 10.05 -7.9 10.85 -6.5 12.15 -3.8 12.5 -2.8 Q13.1 -0.2 12.85 2.55 14.1 2.9 14.95 3.95 L15.2 4.5 15.55 6.0 15.6 6.7 15.45 6.95 Q15.45 8.65 14.65 10.05 15.1 11.7 15.0 13.4 14.9 15.1 16.0 16.45 L16.0 17.5 Q15.95 18.05 16.6 18.1 17.6 17.95 18.2 19.0 L19.25 20.85 Q19.95 22.5 19.7 24.2 L19.25 24.5 Q19.95 27.55 20.15 30.65 20.35 33.7 21.2 36.7 22.15 40.65 21.1 44.65 20.0 45.3 20.7 46.1 20.75 48.05 20.3 49.8 18.75 50.45 18.65 51.95 19.6 54.55 19.95 57.6 19.65 59.6 19.0 61.4 21.2 64.7 22.35 68.4 22.75 71.65 22.75 74.9 22.75 78.1 24.05 81.1 25.35 86.7 23.5 91.6 25.6 93.4 25.8 96.0 26.0 98.6 26.6 100.95 28.0 101.8 28.55 103.25 L28.1 105.9 Q27.7 107.3 29.25 107.95 30.9 111.2 30.95 115.15 31.65 115.75 31.8 116.55 L32.1 118.2 Q33.9 119.55 34.6 121.35 L35.9 125.1 35.7 126.95 Q35.65 128.0 34.75 128.4 L31.8 128.35 28.9 128.2 Q27.65 127.4 26.25 127.15 25.7 129.8 23.7 131.4 L23.6 131.25 23.55 131.35 Q23.05 132.85 21.75 134.05 16.85 133.15 14.05 128.95 13.65 128.15 12.9 127.8 12.15 127.45 11.75 126.65 L10.95 126.0 9.55 126.6 Q8.75 126.8 8.55 127.7 7.6 128.15 7.05 128.95 L6.35 129.1 Q5.0 131.1 3.25 132.25 1.85 131.65 1.3 130.25 0.65 128.8 -0.65 128.05 -1.15 126.9 -2.1 125.95 -3.05 125.0 -3.3 123.7 L-5.9 123.8 Q-7.5 121.55 -8.2 119.0 L-5.9 114.6 Q-6.8 109.9 -5.4 106.15 L-2.7 98.4 Q-1.55 96.9 -2.4 95.35 -3.25 93.7 -3.3 92.0 -3.3 90.45 -2.6 89.1 L-1.3 86.25 -2.9 82.2 Q-3.65 80.25 -2.95 77.95 -2.25 73.8 -3.4 69.65 -3.5 68.2 -2.65 66.75 -1.8 65.35 -3.4 64.5 -4.3 62.25 -3.6 60.15 L-2.15 55.9 Q-2.0 51.25 -4.65 47.35 L-4.45 44.15 Q-6.95 43.65 -7.45 41.4 L-8.45 37.0 -8.55 36.3 -8.55 35.95 Q-8.5 34.7 -7.55 33.55 -7.75 32.05 -8.55 30.65 L-8.95 30.0 -8.95 27.3 -9.0 27.2 Q-10.15 25.45 -8.95 23.6 L-8.95 22.6 -9.8 18.9 -9.7 18.5 -9.15 17.5 -8.65 16.9 -8.55 16.8 Q-7.2 15.8 -8.1 14.8 L-8.55 14.25 -8.95 13.65 -9.6 12.35 Q-11.55 7.9 -11.55 3.3 -11.6 -1.3 -10.4 -5.85 -9.9 -7.35 -8.95 -8.5 L-8.55 -8.95 M-10.2 3.75 Q-9.9 6.95 -8.95 9.9 L-8.55 11.0 -6.9 14.4 -2.95 10.9 -2.45 10.5 -1.55 9.8 -0.15 9.05 0.5 8.7 1.55 7.9 Q3.5 6.75 5.6 5.8 L8.0 4.8 8.85 4.45 8.8 4.35 10.3 3.55 10.35 3.5 11.4 2.95 Q11.55 -1.25 10.35 -5.05 8.6 -8.25 5.15 -10.3 1.75 -11.75 -1.9 -10.9 L-2.25 -10.85 Q-5.75 -9.95 -8.25 -7.65 L-8.55 -7.0 -8.95 -6.0 Q-10.6 -1.65 -10.2 3.45 L-10.2 3.75 M13.7 4.35 L13.25 3.85 11.95 4.1 11.95 4.15 12.0 4.35 9.5 5.45 8.45 5.9 Q7.3 6.35 6.15 6.95 L5.95 7.05 4.35 7.85 1.95 8.95 Q0.85 9.45 0.25 10.4 L-0.15 10.55 Q-0.8 10.85 -0.95 11.4 L-1.55 11.75 -4.1 13.5 -4.35 13.45 -6.95 16.25 Q-8.55 18.1 -8.35 20.2 -8.2 22.25 -7.55 24.4 L-7.5 24.3 -7.45 25.65 -7.4 25.7 -8.1 26.7 Q-8.65 28.45 -7.6 29.7 -6.6 30.95 -6.65 32.8 L-6.3 32.7 -6.45 33.25 -6.25 33.7 -5.95 33.9 -7.05 34.55 Q-7.5 36.7 -6.9 38.7 L-5.8 41.85 -5.5 42.6 -3.55 42.9 Q-4.75 44.2 -3.6 45.45 L-3.6 46.65 -3.2 47.25 -2.9 47.7 -2.85 47.75 Q-1.85 49.35 -1.45 51.25 L-1.45 51.35 -1.4 51.7 -1.45 51.75 Q-1.4 53.1 -1.0 54.05 L-0.85 54.35 -1.0 54.4 Q-1.2 56.8 -2.25 59.15 -3.35 61.4 -2.35 64.0 L-2.1 64.15 -1.85 64.95 Q-1.5 65.65 -1.3 66.45 L-1.4 66.75 -1.9 68.4 Q-2.05 70.55 -1.7 72.85 -1.4 75.15 -1.55 77.35 -2.3 79.2 -1.9 81.35 -1.5 83.5 -0.55 85.15 L-0.5 85.4 -0.05 86.1 Q-1.65 88.2 -1.9 90.9 -2.1 93.4 -1.3 95.8 L-1.35 96.0 -1.25 97.0 Q-1.2 97.85 -1.45 98.6 L-1.7 99.35 -1.7 99.9 -3.85 105.2 Q-5.6 110.15 -4.55 115.55 L-4.5 117.75 Q-4.4 119.0 -5.35 119.55 -5.65 118.7 -5.6 117.6 L-5.6 115.95 -7.05 119.3 -5.25 122.85 Q-4.2 123.2 -3.4 122.4 L-1.15 117.6 Q-0.05 115.15 2.15 113.55 L8.55 109.55 Q9.65 108.8 10.8 108.25 L12.95 107.3 13.55 107.1 14.7 106.75 15.45 106.55 17.5 106.15 17.95 106.1 17.8 106.25 17.85 106.65 17.85 106.85 17.85 106.95 17.25 107.1 18.9 107.8 19.0 107.85 19.1 107.9 19.3 107.95 19.85 108.2 20.3 108.35 23.0 109.35 24.5 109.8 24.75 109.9 29.75 114.5 29.0 111.0 Q28.55 109.15 26.95 108.15 L26.9 107.45 27.15 105.8 27.3 105.45 27.3 105.35 27.45 104.65 Q27.4 103.8 26.7 103.05 24.9 101.85 23.7 100.0 22.45 98.1 22.7 96.0 L23.3 96.65 25.2 99.15 25.55 99.6 24.75 95.3 23.85 93.65 22.2 91.85 21.95 91.65 21.4 91.2 21.35 91.15 21.25 91.1 18.95 89.4 17.15 87.7 17.2 87.7 17.05 87.55 Q18.2 87.55 19.2 88.15 L20.1 88.8 Q21.4 89.95 22.85 90.9 24.25 85.6 22.6 80.8 L22.4 80.2 22.45 80.2 22.05 78.6 21.6 71.6 Q21.85 67.0 18.65 63.1 17.75 65.65 16.35 68.05 L16.1 67.7 16.55 66.4 18.15 61.05 18.6 58.2 18.6 58.0 18.6 57.8 18.55 56.8 18.55 56.75 18.15 54.85 18.1 54.75 18.1 54.65 18.0 54.4 16.85 56.3 Q16.65 55.6 16.8 54.95 L17.05 54.15 17.05 54.1 17.2 53.7 Q17.5 52.8 17.4 51.95 L16.7 52.2 17.2 52.0 17.35 50.4 17.7 49.2 19.35 48.5 19.35 46.45 19.45 46.4 19.75 45.85 Q19.8 45.1 19.4 44.9 L20.3 44.3 Q20.7 42.25 20.4 39.6 20.05 36.95 19.25 34.7 L18.0 34.85 Q18.35 34.4 19.0 34.4 18.95 30.4 18.25 26.35 L18.3 26.6 Q18.35 26.2 18.0 25.7 L18.1 24.8 18.1 24.45 19.15 23.8 18.95 23.15 19.0 22.85 18.75 21.45 Q18.45 20.65 17.85 20.25 17.4 19.25 16.5 18.75 L15.65 19.2 16.2 18.9 16.15 18.7 Q15.9 18.15 15.4 18.0 L15.1 18.1 15.55 17.95 14.4 15.65 13.35 15.75 13.5 15.7 14.05 14.8 Q14.3 13.8 13.95 13.3 L13.5 11.3 11.95 11.4 11.4 11.55 Q11.45 10.55 12.4 10.2 L14.05 9.35 14.35 6.45 Q14.45 5.35 13.7 4.35 M9.4 11.3 L10.0 11.05 9.9 11.2 9.4 11.3 9.25 11.35 9.4 11.3 M9.85 24.05 L9.9 24.05 9.9 24.1 9.85 24.05 M-8.95 25.3 L-8.95 26.3 -8.8 26.1 -8.95 25.3 M-0.2 54.0 L-0.2 54.05 -0.55 54.2 -0.2 54.0 M16.65 56.8 L16.45 57.1 16.4 57.1 16.65 56.8 M15.1 71.45 L15.05 71.4 15.15 71.25 15.1 71.45 M33.05 120.65 L33.1 120.6 33.2 120.45 Q33.45 119.8 32.8 119.7 L32.65 119.7 32.5 119.8 31.4 118.5 31.2 118.5 Q31.15 116.7 29.8 115.9 L27.5 113.9 27.45 113.9 26.25 113.15 Q24.9 112.4 23.5 111.8 21.3 110.8 19.1 110.95 18.05 110.6 17.5 109.65 16.9 108.7 16.0 108.25 14.55 108.2 13.6 109.0 10.0 110.1 7.3 112.45 4.55 114.8 1.3 116.7 -0.6 118.95 -1.25 121.95 L-0.65 122.3 Q-0.6 121.95 -0.25 121.95 L-0.2 121.95 -0.3 123.25 Q-0.25 124.05 -0.65 124.6 L-0.1 125.4 0.6 126.1 0.75 125.65 0.75 125.75 1.05 126.85 1.05 126.95 1.2 127.2 1.25 127.3 Q1.1 128.0 1.8 128.6 2.75 129.4 3.05 130.55 L3.05 130.45 3.5 130.75 3.5 130.35 3.5 130.9 3.7 130.7 3.8 130.65 3.9 130.55 4.75 129.75 4.8 129.4 5.25 129.25 5.3 129.2 5.45 129.1 5.35 128.95 5.35 128.85 5.9 128.15 5.75 127.45 5.9 127.95 6.5 127.75 7.0 127.35 7.45 126.85 7.45 126.75 Q8.8 125.3 8.3 123.2 8.95 123.25 9.0 124.15 9.05 125.0 9.7 125.15 10.85 125.35 11.3 124.65 L11.5 124.25 Q11.9 124.45 11.7 124.75 11.5 125.0 11.75 125.3 12.4 125.4 12.5 124.9 12.55 124.35 13.05 124.15 L13.15 124.25 Q12.45 124.9 13.0 125.4 L13.95 126.45 15.2 124.6 15.5 124.85 14.5 126.9 Q14.45 127.85 15.1 128.6 L15.5 129.0 15.6 129.1 15.6 129.15 16.0 129.5 16.1 129.6 16.35 129.75 16.35 129.65 16.55 129.9 16.65 130.0 16.95 130.25 17.95 130.85 18.15 130.95 18.45 131.0 18.9 131.4 18.85 131.2 18.9 131.3 19.45 131.7 19.25 131.1 Q19.4 132.0 20.35 132.35 L20.3 131.95 20.35 132.3 20.4 132.35 20.65 132.45 20.9 132.5 20.95 132.65 21.65 132.8 22.0 132.35 22.75 131.1 Q23.15 131.15 23.35 130.55 L24.05 129.85 24.85 128.6 Q25.05 126.05 23.35 124.15 L22.65 123.15 22.5 122.95 22.45 122.9 22.4 122.85 22.35 122.8 21.7 122.15 21.4 121.8 22.05 121.75 22.15 121.55 22.2 121.35 22.7 121.95 24.3 123.35 25.15 124.5 Q25.5 125.15 26.25 125.15 L27.35 122.65 27.5 122.15 27.7 121.65 28.3 121.55 28.15 122.4 28.05 123.45 27.6 124.3 Q27.45 124.75 27.9 124.8 L28.0 124.7 28.05 124.65 28.15 124.65 27.95 125.75 Q27.75 126.45 28.4 126.8 L29.1 127.05 29.1 127.0 29.25 127.05 30.3 127.1 30.95 127.05 34.85 127.45 34.85 127.3 Q34.85 124.6 33.9 122.3 L33.85 122.1 33.05 120.65 M24.05 129.85 L24.05 129.9 24.05 129.85 M4.95 125.6 L4.95 125.7 4.9 125.6 4.95 125.6" fill="#000000" fill-rule="evenodd" stroke="none"/>
    <path d="M-2.25 -10.85 L-1.9 -10.9 Q1.75 -11.75 5.15 -10.3 8.6 -8.25 10.35 -5.05 11.55 -1.25 11.4 2.95 L10.35 3.5 10.3 3.55 8.8 4.35 8.85 4.45 8.0 4.8 5.6 5.8 Q3.5 6.75 1.55 7.9 L0.5 8.7 -0.15 9.05 -1.55 9.8 -2.45 10.5 -2.95 10.9 -6.9 14.4 -8.55 11.0 -8.95 9.9 Q-9.9 6.95 -10.2 3.75 L-8.95 5.5 -8.75 5.7 -8.55 5.9 -7.95 6.3 Q-6.65 7.05 -5.2 7.4 L-0.4 7.8 Q0.85 7.7 2.0 7.0 4.75 5.25 5.45 2.05 L5.6 1.25 Q5.8 -2.05 4.15 -4.9 L2.95 -6.9 Q1.1 -9.95 -2.25 -10.85" fill="#4d4f4d" fill-rule="evenodd" stroke="none"/>
    <path d="M-10.2 3.75 L-10.2 3.45 Q-10.6 -1.65 -8.95 -6.0 L-8.55 -7.0 -8.25 -7.65 Q-5.75 -9.95 -2.25 -10.85 1.1 -9.95 2.95 -6.9 L4.15 -4.9 Q5.8 -2.05 5.6 1.25 L5.45 2.05 Q4.75 5.25 2.0 7.0 0.85 7.7 -0.4 7.8 L-5.2 7.4 Q-6.65 7.05 -7.95 6.3 L-8.55 5.9 -8.75 5.7 -8.95 5.5 -10.2 3.75 M-4.75 -7.7 Q-7.4 -6.6 -8.3 -3.75 L-8.55 -2.85 Q-8.95 -1.15 -8.55 0.65 -8.2 2.4 -6.4 2.05 -5.55 1.85 -5.45 0.95 L-5.25 -1.25 Q-5.05 -3.5 -3.95 -5.5 -3.0 -7.3 -4.75 -7.7" fill="#666666" fill-rule="evenodd" stroke="none"/>
    <path d="M-4.75 -7.7 Q-3.0 -7.3 -3.95 -5.5 -5.05 -3.5 -5.25 -1.25 L-5.45 0.95 Q-5.55 1.85 -6.4 2.05 -8.2 2.4 -8.55 0.65 -8.95 -1.15 -8.55 -2.85 L-8.3 -3.75 Q-7.4 -6.6 -4.75 -7.7" fill="#818181" fill-rule="evenodd" stroke="none"/>
    <path d="M8.45 5.9 L9.5 5.45 12.0 4.35 11.95 4.15 11.95 4.1 13.25 3.85 13.7 4.35 13.6 5.3 12.4 8.3 12.2 9.2 12.4 10.2 Q11.45 10.55 11.4 11.55 L11.95 11.4 Q11.6 13.05 12.2 14.65 L9.85 15.45 7.7 16.3 5.7 16.95 Q4.6 17.5 3.75 18.2 L3.25 17.7 Q1.85 15.85 3.25 14.3 L3.95 13.65 4.95 13.0 5.75 12.55 8.3 11.55 Q8.35 10.75 8.8 10.0 9.4 9.05 10.35 8.35 L10.45 8.15 10.45 7.95 10.35 7.6 Q9.0 6.95 8.45 5.9 M18.55 56.8 L18.6 57.8 18.6 58.0 18.6 58.2 18.15 61.05 16.55 66.4 14.95 70.05 14.75 70.25 14.8 70.1 Q14.75 67.45 14.25 64.9 L13.8 62.95 14.35 62.5 14.85 62.2 16.35 60.25 16.95 59.35 17.2 59.1 17.3 59.05 17.4 59.0 18.55 56.8 M17.15 87.7 L18.95 89.4 21.25 91.1 21.35 91.15 21.4 91.2 21.95 91.65 22.2 91.85 23.85 93.65 Q23.1 94.9 23.0 96.3 L23.3 96.65 22.7 96.0 Q22.45 98.1 23.7 100.0 24.9 101.85 26.7 103.05 27.4 103.8 27.45 104.65 L24.25 104.55 23.4 105.25 Q22.4 106.6 23.8 107.4 L25.75 107.8 26.9 108.0 26.9 107.45 26.95 108.15 Q28.55 109.15 29.0 111.0 L29.75 114.5 24.75 109.9 24.5 109.8 23.0 109.35 20.3 108.35 19.85 108.2 19.3 107.95 19.1 107.9 19.0 107.85 18.9 107.8 17.25 107.1 17.85 106.95 17.85 106.85 17.85 106.65 17.8 106.25 17.95 106.1 18.0 106.1 17.85 105.85 17.75 105.65 17.7 105.55 17.65 105.5 17.5 105.2 15.9 101.95 Q15.4 100.9 15.75 99.8 L16.1 99.2 Q14.25 98.15 11.6 98.2 L11.35 98.35 Q10.0 99.2 8.9 100.4 L5.8 103.3 Q4.9 105.45 3.15 104.25 L2.95 103.8 Q3.15 100.75 5.4 98.7 5.3 99.15 5.35 99.7 5.2 97.8 6.6 96.15 9.3 92.9 13.2 91.9 L16.3 91.5 17.0 91.45 17.15 90.85 17.45 89.6 12.95 83.35 13.25 83.1 11.2 84.5 9.2 85.4 8.75 85.55 10.35 84.25 9.55 84.45 Q6.95 85.0 7.1 82.55 7.15 81.65 7.75 80.95 L8.1 80.55 9.1 79.4 8.6 79.65 9.65 78.55 9.7 78.55 10.1 78.5 14.3 75.15 16.1 73.35 Q17.9 71.4 19.1 69.0 19.7 70.05 19.95 71.2 L20.1 72.15 Q20.4 75.55 21.45 78.75 21.75 79.65 22.3 80.1 L22.3 80.7 21.85 82.45 21.25 84.25 20.35 85.85 17.95 85.95 16.8 86.0 Q16.25 86.1 16.2 86.7 16.15 87.1 16.5 87.35 L17.15 87.7 M9.4 11.3 L9.9 11.2 10.0 11.05 9.4 11.3 9.25 11.35 9.4 11.3 M3.55 53.65 L4.2 54.5 4.25 54.55 4.0 54.4 3.55 53.75 3.55 53.65 M9.0 56.0 L9.85 56.05 11.9 55.75 Q14.0 55.25 15.95 54.35 L16.35 54.15 16.0 55.55 15.9 56.05 15.15 58.1 14.95 58.55 13.25 61.5 Q12.65 62.4 13.15 63.05 L10.95 65.4 10.65 65.4 10.8 65.1 10.15 65.6 Q9.2 66.2 8.05 66.6 7.3 66.9 6.9 66.2 5.8 64.2 7.55 62.4 L8.35 61.2 8.55 60.7 10.25 56.1 9.0 56.0" fill="#5a5838" fill-rule="evenodd" stroke="none"/>
    <path d="M13.7 4.35 Q14.45 5.35 14.35 6.45 L14.05 9.35 12.4 10.2 12.2 9.2 12.4 8.3 13.6 5.3 13.7 4.35 M11.95 11.4 L13.5 11.3 13.95 13.3 Q14.3 13.8 14.05 14.8 L13.5 15.7 13.35 15.75 13.0 15.8 9.6 16.85 9.45 16.9 8.95 17.1 8.8 17.2 4.6 19.45 3.7 19.95 1.45 26.25 0.6 28.55 Q-0.3 31.2 -2.6 32.25 L-5.95 33.9 -6.25 33.7 -6.45 33.25 -6.3 32.7 -3.4 31.5 -2.6 31.1 Q0.1 27.65 0.85 23.35 L0.95 22.95 Q1.55 20.05 3.75 18.2 4.6 17.5 5.7 16.95 L7.7 16.3 9.85 15.45 12.2 14.65 Q11.6 13.05 11.95 11.4 M17.7 49.2 L17.35 50.4 17.2 52.0 16.7 52.2 17.4 51.95 Q17.5 52.8 17.2 53.7 L17.05 54.1 17.05 54.15 16.8 54.95 Q16.65 55.6 16.85 56.3 L18.0 54.4 18.1 54.65 18.1 54.75 18.15 54.85 18.55 56.75 18.55 56.8 17.4 59.0 17.3 59.05 17.2 59.1 16.95 59.35 16.35 60.25 14.85 62.2 14.35 62.5 13.8 62.95 13.7 62.65 13.65 62.35 13.15 63.05 Q12.65 62.4 13.25 61.5 L14.95 58.55 15.15 58.1 15.9 56.05 16.0 55.55 16.35 54.15 15.95 54.35 Q14.0 55.25 11.9 55.75 L9.85 56.05 9.0 56.0 6.85 55.6 Q6.35 55.15 5.7 54.95 L5.35 55.05 4.25 54.55 4.2 54.5 3.55 53.65 Q3.3 52.15 2.65 50.85 L2.25 50.95 2.2 50.6 2.45 50.5 Q1.75 49.35 0.4 48.85 L0.15 48.75 0.0 48.6 -0.2 48.0 -0.05 48.65 -0.05 48.55 -0.35 48.3 -0.8 48.6 -0.85 48.4 -0.85 48.45 -2.4 47.95 -2.85 47.75 -2.9 47.7 -3.2 47.25 -3.6 46.65 -3.6 45.45 Q-4.75 44.2 -3.55 42.9 L-0.3 43.0 -0.15 43.0 Q2.15 43.35 3.55 45.25 L6.45 48.75 Q7.85 50.35 10.15 50.4 L10.25 50.4 10.4 50.4 15.05 49.85 16.7 49.5 17.7 49.2 M16.55 66.4 L16.1 67.7 16.35 68.05 Q17.75 65.65 18.65 63.1 21.85 67.0 21.6 71.6 L22.05 78.6 22.45 80.2 22.4 80.2 22.6 80.8 Q24.25 85.6 22.85 90.9 21.4 89.95 20.1 88.8 L19.2 88.15 Q18.2 87.55 17.05 87.55 L17.2 87.7 17.15 87.7 16.5 87.35 Q16.15 87.1 16.2 86.7 16.25 86.1 16.8 86.0 L17.95 85.95 20.35 85.85 21.25 84.25 21.85 82.45 22.3 80.7 22.3 80.1 Q21.75 79.65 21.45 78.75 20.4 75.55 20.1 72.15 L19.95 71.2 Q19.7 70.05 19.1 69.0 17.9 71.4 16.1 73.35 L14.3 75.15 10.1 78.5 9.7 78.55 9.65 78.55 10.3 77.85 12.1 75.25 13.45 72.85 13.55 72.65 14.7 70.25 14.75 70.25 14.95 70.05 16.55 66.4 M23.85 93.65 L24.75 95.3 25.55 99.6 25.2 99.15 23.3 96.65 23.0 96.3 Q23.1 94.9 23.85 93.65 M27.45 104.65 L27.3 105.35 27.3 105.45 27.15 105.8 26.9 107.45 26.9 108.0 25.75 107.8 23.8 107.4 Q22.4 106.6 23.4 105.25 L24.25 104.55 27.45 104.65 M16.65 56.8 L16.4 57.1 16.45 57.1 16.65 56.8 M15.1 71.45 L15.15 71.25 15.05 71.4 15.1 71.45" fill="#424128" fill-rule="evenodd" stroke="none"/>
    <path d="M13.35 15.75 L14.4 15.65 15.55 17.95 15.1 18.1 8.8 20.2 Q8.1 19.45 7.25 19.75 L5.6 20.2 Q5.0 20.4 4.65 20.75 L4.2 21.3 Q3.85 21.95 3.95 22.85 L4.2 26.5 4.2 26.55 Q5.3 31.3 6.65 35.85 L6.9 36.8 Q8.0 40.9 8.45 45.45 L9.05 45.75 Q9.9 46.2 10.75 46.95 11.85 47.85 13.15 48.1 15.0 47.15 16.95 46.95 L19.3 45.9 19.35 46.0 19.35 46.45 19.35 48.5 17.7 49.2 16.7 49.5 15.05 49.85 10.4 50.4 10.25 50.4 10.2 50.3 10.15 50.4 Q7.85 50.35 6.45 48.75 L3.55 45.25 Q2.15 43.35 -0.15 43.0 L-0.3 43.0 -3.55 42.9 -5.5 42.6 -5.8 41.85 -0.5 41.7 -0.35 41.65 Q-0.6 40.5 0.45 40.5 L1.0 40.65 1.15 40.5 1.15 40.45 1.65 40.35 1.85 40.25 1.55 40.75 1.6 40.75 Q3.8 42.0 6.15 43.0 L6.15 42.95 5.8 40.6 Q5.6 39.5 5.05 38.55 L3.75 35.7 2.8 33.05 Q2.3 31.6 2.1 30.15 L1.75 27.2 1.7 26.0 1.45 26.25 3.7 19.95 4.6 19.45 8.8 17.2 8.95 17.1 9.45 16.9 9.6 16.85 13.0 15.8 13.35 15.75 M15.65 19.2 L16.5 18.75 Q17.4 19.25 17.85 20.25 L17.8 20.25 16.8 20.8 13.25 21.55 12.9 21.55 Q12.0 22.0 12.6 22.7 13.2 23.35 13.4 24.05 L13.95 24.4 Q16.45 23.9 18.8 22.9 L18.9 22.9 18.95 23.15 19.15 23.8 18.1 24.45 Q15.55 25.9 12.85 25.45 13.05 24.95 12.7 24.35 L12.55 24.1 11.45 22.85 11.15 22.6 10.3 21.65 9.65 21.05 10.15 21.0 13.4 20.0 13.6 19.95 13.7 19.95 13.8 19.9 13.9 19.9 15.65 19.2 M18.25 26.35 Q18.95 30.4 19.0 34.4 18.35 34.4 18.0 34.85 L19.25 34.7 Q20.05 36.95 20.4 39.6 20.7 42.25 20.3 44.3 L19.4 44.9 18.0 45.3 15.15 46.25 Q13.7 46.45 12.55 47.2 L12.65 47.1 12.8 45.8 12.65 44.35 12.45 43.15 12.4 42.55 Q12.05 40.75 12.0 39.2 L14.05 39.7 14.05 39.45 11.75 38.9 Q11.4 37.4 11.65 36.1 L13.45 35.55 11.4 35.85 10.45 33.5 Q9.65 32.2 11.65 32.0 10.95 31.95 10.25 32.4 9.25 29.0 8.6 25.5 L8.55 25.0 8.4 23.95 8.35 23.6 8.0 22.7 7.6 22.55 8.1 22.75 8.35 22.85 8.6 23.0 9.25 23.5 9.85 24.05 9.9 24.1 10.0 24.2 10.3 24.55 10.75 25.2 Q10.7 26.65 12.1 26.9 15.35 27.5 18.2 26.1 L18.25 26.35 M7.6 20.8 L7.1 20.75 6.2 21.0 6.25 21.05 6.1 20.9 7.6 20.8 M5.65 26.0 L5.7 26.3 5.95 26.3 6.0 27.65 5.65 26.0 M18.85 22.4 Q16.6 23.5 14.25 23.55 13.5 23.1 13.25 22.25 L18.35 20.95 18.85 22.4 M-1.7 36.85 L-1.75 38.0 -1.5 38.0 Q-1.55 39.0 -2.6 39.15 -3.35 39.0 -3.75 38.4 -3.85 37.0 -3.15 35.85 L-2.6 36.1 -2.35 35.85 Q-1.7 36.2 -1.7 36.85 M2.15 39.5 L2.25 38.85 2.35 37.75 2.15 39.5 M6.2 45.1 L6.45 45.3 6.5 45.3 Q6.5 45.1 6.2 45.1" fill="#858d65" fill-rule="evenodd" stroke="none"/>
    <path d="M17.95 106.1 L17.5 106.15 15.45 106.55 14.7 106.75 13.55 107.1 12.95 107.3 10.8 108.25 Q10.3 105.8 10.35 103.35 10.4 101.15 11.05 99.15 L11.35 98.35 11.6 98.2 Q14.25 98.15 16.1 99.2 L15.75 99.8 Q15.4 100.9 15.9 101.95 L17.5 105.2 17.65 105.5 17.7 105.55 17.75 105.65 17.85 105.85 18.0 106.1 17.95 106.1 M-1.7 99.9 L-1.7 99.35 -1.45 98.6 Q-1.2 97.85 -1.25 97.0 L-1.35 96.0 -1.3 95.8 -1.25 96.0 -1.2 96.1 0.15 94.35 Q-1.35 91.85 0.05 89.45 0.0 91.75 0.6 94.15 0.85 94.2 1.2 93.85 L1.9 93.9 Q0.7 95.1 -0.15 96.5 -1.0 97.8 -1.5 99.25 L-1.6 99.6 -1.7 99.95 -1.7 99.9 M-0.05 86.1 L-0.5 85.4 -0.55 85.15 Q0.8 85.0 0.4 84.25 L0.35 84.15 -0.3 82.55 Q-0.7 81.55 0.0 80.9 0.7 80.25 0.85 79.45 L0.15 79.35 0.4 79.2 Q1.15 79.1 1.2 78.3 L1.2 76.9 0.3 77.0 -0.4 77.05 Q0.45 76.55 1.2 76.45 L1.4 74.35 2.15 76.55 2.0 77.15 Q1.8 77.95 2.0 78.85 1.25 80.05 0.65 81.5 0.1 82.85 1.15 84.2 L1.2 84.25 Q3.8 82.7 6.6 81.95 4.2 84.05 1.3 85.15 L0.85 85.3 Q0.6 85.8 -0.05 86.1 M-1.3 66.45 Q-1.5 65.65 -1.85 64.95 L-2.1 64.15 -1.75 64.3 -0.6 64.85 -0.15 65.05 0.05 63.0 -0.75 63.1 -0.75 63.0 Q0.3 63.0 0.5 61.95 L0.6 61.65 Q0.85 60.85 1.55 60.55 L1.3 61.45 Q0.7 63.4 0.5 65.3 1.85 65.55 2.55 66.45 L-0.3 66.2 Q-1.05 65.8 -1.3 66.45 M-0.85 54.35 L-1.0 54.05 0.75 53.05 -0.2 51.35 -1.4 51.7 -1.45 51.35 -1.45 51.25 -0.3 51.15 -0.7 49.05 -0.8 48.65 -0.8 48.6 -0.35 48.3 -0.05 48.55 -0.05 48.65 0.0 48.7 0.05 48.9 0.4 50.45 Q1.1 51.1 2.05 50.7 L2.2 50.6 2.25 50.95 0.85 51.25 Q1.55 51.9 1.65 52.75 2.05 52.25 2.55 52.5 L1.4 53.25 Q1.05 55.5 1.45 57.45 L1.55 57.8 1.65 58.15 Q3.55 56.85 5.25 55.4 L5.55 55.15 5.35 55.05 5.7 54.95 Q6.35 55.15 6.85 55.6 L9.0 56.0 10.25 56.1 8.55 60.7 8.35 61.2 8.1 61.65 7.75 60.25 7.25 59.45 4.55 57.55 2.5 58.85 Q1.1 59.6 -0.55 58.85 L-0.55 58.8 -0.5 58.65 Q-0.35 58.25 0.1 58.35 L1.0 58.25 0.95 57.85 Q0.7 55.55 0.75 53.55 L-0.2 54.05 -0.2 54.0 -0.85 54.35 M-7.4 25.7 L-7.45 25.65 -7.5 24.3 -7.1 23.9 Q-6.95 23.75 -6.7 23.75 L-6.55 23.75 -6.45 23.75 -7.4 25.7 M4.35 7.85 L5.95 7.05 6.15 6.95 Q7.3 6.35 8.45 5.9 9.0 6.95 10.35 7.6 L10.45 7.95 10.45 8.15 10.35 8.35 Q9.4 9.05 8.8 10.0 8.35 10.75 8.3 11.55 L5.75 12.55 4.95 13.0 Q5.35 11.95 5.4 10.9 L5.05 8.8 4.95 8.5 4.35 7.85 M3.25 14.3 Q1.85 15.85 3.25 17.7 L3.75 18.2 Q1.55 20.05 0.95 22.95 0.4 22.15 0.35 21.15 0.35 20.6 0.5 20.1 L0.45 19.15 Q-1.1 20.2 -2.45 21.65 -3.85 23.1 -5.35 23.8 -3.0 20.8 0.45 19.15 0.4 17.15 1.95 15.5 L3.25 14.3 M-6.95 21.75 Q-6.45 19.0 -4.45 17.0 -2.45 14.95 0.05 13.35 L1.55 12.55 Q-3.45 16.25 -6.4 21.75 L-6.95 21.75 M0.0 48.6 L0.15 48.75 0.0 48.7 0.0 48.6 M13.15 63.05 L13.65 62.35 13.7 62.65 13.8 62.95 14.25 64.9 Q14.75 67.45 14.8 70.1 L14.75 70.25 14.7 70.25 13.55 72.65 13.45 72.85 12.1 75.25 11.9 75.5 11.95 75.35 Q13.0 72.5 12.3 69.55 11.75 67.2 10.15 65.6 L10.8 65.1 10.65 65.4 10.95 65.4 13.15 63.05 M-3.5 31.25 Q-4.3 29.4 -4.75 27.2 -3.5 29.0 -3.5 31.25 M8.1 80.55 L7.75 80.95 Q7.15 81.65 7.1 82.55 6.95 85.0 9.55 84.45 L10.35 84.25 8.75 85.55 9.2 85.4 7.65 86.5 Q6.65 87.0 5.9 87.8 L5.45 88.15 Q3.0 88.05 3.95 85.85 4.9 83.7 6.6 81.95 L7.3 81.25 8.1 80.55 M11.2 84.5 L13.25 83.1 12.95 83.35 17.45 89.6 17.15 90.85 17.0 91.45 16.3 91.5 13.2 91.9 13.2 91.25 Q13.05 88.3 11.9 85.55 L11.2 84.5 M6.85 69.15 L3.75 72.35 Q2.1 73.9 -0.15 74.05 L-0.15 73.75 1.65 72.8 Q1.85 71.75 1.5 70.75 1.15 69.7 1.1 68.65 2.05 69.35 2.25 71.1 L2.25 72.3 7.05 68.3 6.85 69.15 M-2.7 113.55 Q-1.05 110.85 1.0 108.25 0.1 109.65 -0.55 111.2 -1.25 112.8 -2.7 113.55 M-1.9 109.3 Q-1.65 110.35 -1.7 111.35 -2.65 110.1 -2.6 108.15 -1.7 105.65 0.25 103.8 L0.75 100.2 Q1.55 102.3 0.5 104.05 L-1.85 107.25 Q-2.15 108.2 -1.9 109.3" fill="#73734d" fill-rule="evenodd" stroke="none"/>
    <path d="M10.8 108.25 Q9.65 108.8 8.55 109.55 L2.15 113.55 Q-0.05 115.15 -1.15 117.6 L-3.4 122.4 Q-4.2 123.2 -5.25 122.85 L-7.05 119.3 -5.6 115.95 -5.6 117.6 Q-5.65 118.7 -5.35 119.55 -4.4 119.0 -4.5 117.75 L-4.55 115.55 Q-5.6 110.15 -3.85 105.2 L-1.7 99.9 -1.7 99.95 -1.6 99.6 -1.5 99.25 Q-1.0 97.8 -0.15 96.5 0.7 95.1 1.9 93.9 L1.2 93.85 Q0.85 94.2 0.6 94.15 0.0 91.75 0.05 89.45 -1.35 91.85 0.15 94.35 L-1.2 96.1 -1.25 96.0 -1.3 95.8 Q-2.1 93.4 -1.9 90.9 -1.65 88.2 -0.05 86.1 0.6 85.8 0.85 85.3 L1.3 85.15 Q4.2 84.05 6.6 81.95 3.8 82.7 1.2 84.25 L1.15 84.2 Q0.1 82.85 0.65 81.5 1.25 80.05 2.0 78.85 1.8 77.95 2.0 77.15 L2.15 76.55 1.4 74.35 1.2 76.45 Q0.45 76.55 -0.4 77.05 L0.3 77.0 1.2 76.9 1.2 78.3 Q1.15 79.1 0.4 79.2 L0.15 79.35 0.85 79.45 Q0.7 80.25 0.0 80.9 -0.7 81.55 -0.3 82.55 L0.35 84.15 0.4 84.25 Q0.8 85.0 -0.55 85.15 -1.5 83.5 -1.9 81.35 -2.3 79.2 -1.55 77.35 -1.4 75.15 -1.7 72.85 -2.05 70.55 -1.9 68.4 L-1.4 66.75 -1.3 66.45 Q-1.05 65.8 -0.3 66.2 L2.55 66.45 Q1.85 65.55 0.5 65.3 0.7 63.4 1.3 61.45 L1.55 60.55 Q0.85 60.85 0.6 61.65 L0.5 61.95 Q0.3 63.0 -0.75 63.0 L-0.75 63.1 0.05 63.0 -0.15 65.05 -0.6 64.85 -1.75 64.3 -2.1 64.15 -2.35 64.0 Q-3.35 61.4 -2.25 59.15 -1.2 56.8 -1.0 54.4 L-0.85 54.35 -0.55 54.2 -0.2 54.05 0.75 53.55 Q0.7 55.55 0.95 57.85 L1.0 58.25 0.1 58.35 Q-0.35 58.25 -0.5 58.65 L-0.55 58.8 -0.55 58.85 Q1.1 59.6 2.5 58.85 L4.55 57.55 7.25 59.45 7.75 60.25 8.1 61.65 8.35 61.2 7.55 62.4 Q5.8 64.2 6.9 66.2 7.3 66.9 8.05 66.6 9.2 66.2 10.15 65.6 11.75 67.2 12.3 69.55 13.0 72.5 11.95 75.35 L11.9 75.5 12.1 75.25 10.3 77.85 9.65 78.55 8.6 79.65 9.1 79.4 8.1 80.55 7.3 81.25 6.6 81.95 Q4.9 83.7 3.95 85.85 3.0 88.05 5.45 88.15 L5.9 87.8 Q6.65 87.0 7.65 86.5 L9.2 85.4 11.2 84.5 11.9 85.55 Q13.05 88.3 13.2 91.25 L13.2 91.9 Q9.3 92.9 6.6 96.15 5.2 97.8 5.35 99.7 5.3 99.15 5.4 98.7 3.15 100.75 2.95 103.8 L3.15 104.25 Q4.9 105.45 5.8 103.3 L8.9 100.4 Q10.0 99.2 11.35 98.35 L11.05 99.15 Q10.4 101.15 10.35 103.35 10.3 105.8 10.8 108.25 M-1.0 54.05 Q-1.4 53.1 -1.45 51.75 L-1.4 51.7 -0.2 51.35 0.75 53.05 -1.0 54.05 M-1.45 51.25 Q-1.85 49.35 -2.85 47.75 L-2.4 47.95 -0.85 48.45 -0.85 48.4 -0.8 48.6 -0.8 48.65 -0.7 49.05 -0.3 51.15 -1.45 51.25 M-6.3 32.7 L-6.65 32.8 Q-6.6 30.95 -7.6 29.7 -8.65 28.45 -8.1 26.7 L-7.4 25.7 -6.45 23.75 -6.55 23.75 -6.7 23.75 Q-6.95 23.75 -7.1 23.9 L-7.5 24.3 -7.55 24.4 Q-8.2 22.25 -8.35 20.2 -8.55 18.1 -6.95 16.25 L-4.35 13.45 -4.1 13.5 -1.55 11.75 -0.95 11.4 Q-0.8 10.85 -0.15 10.55 L0.25 10.4 Q0.85 9.45 1.95 8.95 L4.35 7.85 4.95 8.5 5.05 8.8 5.4 10.9 Q5.35 11.95 4.95 13.0 L3.95 13.65 3.25 14.3 1.95 15.5 Q0.4 17.15 0.45 19.15 -3.0 20.8 -5.35 23.8 -3.85 23.1 -2.45 21.65 -1.1 20.2 0.45 19.15 L0.5 20.1 Q0.35 20.6 0.35 21.15 0.4 22.15 0.95 22.95 L0.85 23.35 Q0.1 27.65 -2.6 31.1 L-3.4 31.5 -3.5 31.25 -3.4 31.5 -6.3 32.7 M-6.95 21.75 L-6.4 21.75 Q-3.45 16.25 1.55 12.55 L0.05 13.35 Q-2.45 14.95 -4.45 17.0 -6.45 19.0 -6.95 21.75 M0.15 48.75 L0.4 48.85 Q1.75 49.35 2.45 50.5 L2.2 50.6 2.05 50.7 Q1.1 51.1 0.4 50.45 L0.05 48.9 0.0 48.7 0.15 48.75 M2.25 50.95 L2.65 50.85 Q3.3 52.15 3.55 53.65 L3.55 53.75 4.0 54.4 4.25 54.55 5.35 55.05 5.55 55.15 5.25 55.4 Q3.55 56.85 1.65 58.15 L1.55 57.8 1.45 57.45 Q1.05 55.5 1.4 53.25 L2.55 52.5 Q2.05 52.25 1.65 52.75 1.55 51.9 0.85 51.25 L2.25 50.95 M-3.5 31.25 Q-3.5 29.0 -4.75 27.2 -4.3 29.4 -3.5 31.25 M6.85 69.15 L7.05 68.3 2.25 72.3 2.25 71.1 Q2.05 69.35 1.1 68.65 1.15 69.7 1.5 70.75 1.85 71.75 1.65 72.8 L-0.15 73.75 -0.15 74.05 Q2.1 73.9 3.75 72.35 L6.85 69.15 M-1.9 109.3 Q-2.15 108.2 -1.85 107.25 L0.5 104.05 Q1.55 102.3 0.75 100.2 L0.25 103.8 Q-1.7 105.65 -2.6 108.15 -2.65 110.1 -1.7 111.35 -1.65 110.35 -1.9 109.3 M-2.7 113.55 Q-1.25 112.8 -0.55 111.2 0.1 109.65 1.0 108.25 -1.05 110.85 -2.7 113.55" fill="#87875a" fill-rule="evenodd" stroke="none"/>
    <path d="M15.1 18.1 L15.4 18.0 Q15.9 18.15 16.15 18.7 L16.2 18.9 15.65 19.2 13.9 19.9 13.8 19.9 13.7 19.95 13.6 19.95 13.4 20.0 10.15 21.0 9.65 21.05 7.7 20.8 7.6 20.8 6.1 20.9 Q5.75 21.05 5.5 21.35 L5.45 21.4 5.25 21.9 Q4.95 22.8 5.1 23.8 L5.65 26.0 6.0 27.65 7.5 34.1 Q8.7 39.3 9.0 44.75 10.2 44.75 11.0 45.55 L11.5 46.1 12.45 47.25 12.55 47.2 Q13.7 46.45 15.15 46.25 L18.0 45.3 19.4 44.9 Q19.8 45.1 19.75 45.85 L19.45 46.4 19.35 46.45 19.35 46.0 19.35 45.9 19.3 45.9 16.95 46.95 Q15.0 47.15 13.15 48.1 11.85 47.85 10.75 46.95 9.9 46.2 9.05 45.75 L8.45 45.45 Q8.0 40.9 6.9 36.8 L6.65 35.85 Q5.3 31.3 4.2 26.55 L4.2 26.5 3.95 22.85 Q3.85 21.95 4.2 21.3 L4.65 20.75 Q5.0 20.4 5.6 20.2 L7.25 19.75 Q8.1 19.45 8.8 20.2 L15.1 18.1 M17.85 20.25 Q18.45 20.65 18.75 21.45 L19.0 22.85 18.95 23.15 18.9 22.9 18.8 22.9 Q16.45 23.9 13.95 24.4 L13.4 24.05 Q13.2 23.35 12.6 22.7 12.0 22.0 12.9 21.55 L13.25 21.55 16.8 20.8 17.8 20.25 17.85 20.25 M18.1 24.45 L18.1 24.8 18.0 25.7 Q18.35 26.2 18.3 26.6 L18.25 26.35 18.2 26.1 Q15.35 27.5 12.1 26.9 10.7 26.65 10.75 25.2 L10.3 24.55 10.0 24.2 9.9 24.1 9.9 24.05 9.85 24.05 9.25 23.5 8.6 23.0 8.35 22.85 8.1 22.75 7.6 22.55 6.95 22.3 Q6.85 22.15 7.05 22.0 L9.1 22.05 9.75 22.3 9.7 22.3 Q10.5 22.7 11.2 23.45 L11.8 24.55 Q11.95 25.2 12.65 25.45 L12.85 25.45 Q15.55 25.9 18.1 24.45 M1.85 40.25 L1.65 40.35 1.15 40.45 1.15 40.5 1.0 40.65 0.45 40.5 0.8 40.5 1.0 40.55 Q1.65 36.65 0.15 33.15 0.95 32.8 1.65 33.35 2.2 35.4 2.35 37.5 L2.35 37.55 2.35 37.65 2.35 37.75 2.25 38.85 2.15 39.5 2.1 39.6 1.85 40.25 M12.45 43.15 Q12.55 44.5 12.0 45.65 L11.05 39.2 10.6 38.75 Q11.0 38.55 10.9 37.8 L10.6 36.45 Q10.1 35.8 9.9 34.85 7.8 29.5 8.3 23.6 L8.6 25.5 Q9.25 29.0 10.25 32.4 10.95 31.95 11.65 32.0 9.65 32.2 10.45 33.5 L11.4 35.85 13.45 35.55 11.65 36.1 Q11.4 37.4 11.75 38.9 L14.05 39.45 14.05 39.7 12.0 39.2 Q12.05 40.75 12.4 42.55 L12.45 43.15 M18.85 22.4 L18.35 20.95 13.25 22.25 Q13.5 23.1 14.25 23.55 16.6 23.5 18.85 22.4" fill="#606648" fill-rule="evenodd" stroke="none"/>
    <path d="M-5.8 41.85 L-6.9 38.7 Q-7.5 36.7 -7.05 34.55 L-5.95 33.9 -2.6 32.25 Q-0.3 31.2 0.6 28.55 L1.45 26.25 1.7 26.0 1.75 27.2 2.1 30.15 Q2.3 31.6 2.8 33.05 L3.75 35.7 5.05 38.55 Q5.6 39.5 5.8 40.6 L6.15 42.95 6.15 43.0 Q3.8 42.0 1.6 40.75 L1.55 40.75 1.85 40.25 2.1 39.6 2.15 39.5 2.35 37.75 2.35 37.65 2.35 37.55 2.35 37.5 Q2.2 35.4 1.65 33.35 0.95 32.8 0.15 33.15 1.65 36.65 1.0 40.55 L0.8 40.5 0.45 40.5 Q-0.6 40.5 -0.35 41.65 L-0.5 41.7 -5.8 41.85 M7.6 20.8 L7.7 20.8 9.65 21.05 10.3 21.65 11.15 22.6 11.45 22.85 12.55 24.1 12.7 24.35 Q13.05 24.95 12.85 25.45 L12.65 25.45 Q11.95 25.2 11.8 24.55 L11.2 23.45 Q10.5 22.7 9.7 22.3 L9.75 22.3 9.1 22.05 7.05 22.0 Q6.85 22.15 6.95 22.3 L7.6 22.55 8.0 22.7 8.35 23.6 8.4 23.95 8.55 25.0 8.6 25.5 8.3 23.6 Q7.8 29.5 9.9 34.85 10.1 35.8 10.6 36.45 L10.9 37.8 Q11.0 38.55 10.6 38.75 L11.05 39.2 12.0 45.65 Q12.55 44.5 12.45 43.15 L12.65 44.35 12.8 45.8 12.65 47.1 12.55 47.2 12.45 47.25 11.5 46.1 11.0 45.55 Q10.2 44.75 9.0 44.75 8.7 39.3 7.5 34.1 L6.0 27.65 5.95 26.3 5.7 26.3 5.65 26.0 5.1 23.8 Q4.95 22.8 5.25 21.9 L5.45 21.4 5.5 21.35 Q5.75 21.05 6.1 20.9 L6.25 21.05 6.2 21.0 7.1 20.75 7.6 20.8 M19.3 45.9 L19.35 45.9 19.35 46.0 19.3 45.9 M-1.7 36.85 Q-1.7 36.2 -2.35 35.85 L-2.6 36.1 -3.15 35.85 Q-3.85 37.0 -3.75 38.4 -3.35 39.0 -2.6 39.15 -1.55 39.0 -1.5 38.0 L-1.75 38.0 -1.7 36.85 M6.2 45.1 Q6.5 45.1 6.5 45.3 L6.45 45.3 6.2 45.1 M10.25 50.4 L10.15 50.4 10.2 50.3 10.25 50.4" fill="#a4ab88" fill-rule="evenodd" stroke="none"/>
    <path d="M-3.4 31.5 L-3.5 31.25 -3.4 31.5" fill="#999933" fill-rule="evenodd" stroke="none"/>
    <path d="M-0.05 48.65 L-0.2 48.0 0.0 48.6 0.0 48.7 -0.05 48.65" fill="#999966" fill-rule="evenodd" stroke="none"/>
    <path d="M-0.25 121.95 Q-0.6 121.95 -0.65 122.3 L-1.25 121.95 Q-0.6 118.95 1.3 116.7 4.55 114.8 7.3 112.45 10.0 110.1 13.6 109.0 14.55 108.2 16.0 108.25 16.9 108.7 17.5 109.65 18.05 110.6 19.1 110.95 21.3 110.8 23.5 111.8 24.9 112.4 26.25 113.15 L27.45 113.9 27.5 113.9 29.8 115.9 Q31.15 116.7 31.2 118.5 L31.4 118.5 32.5 119.8 32.65 119.7 32.8 119.7 Q33.45 119.8 33.2 120.45 L33.1 120.6 33.05 120.65 33.0 120.55 32.85 120.35 32.35 120.65 32.3 120.7 32.25 120.8 32.3 120.75 31.85 120.75 30.45 121.15 30.45 121.1 30.25 120.7 30.3 120.65 30.2 120.45 Q29.8 119.2 29.0 118.2 28.3 117.45 27.4 117.05 L26.8 116.65 25.3 116.15 24.55 115.95 24.15 115.85 23.95 115.7 23.75 115.6 23.75 115.7 23.55 116.6 23.6 117.0 Q23.5 117.5 23.7 117.9 L24.3 118.95 24.4 119.8 Q25.9 120.45 27.15 121.7 L27.25 121.95 27.5 122.15 27.35 122.65 26.25 125.15 Q25.5 125.15 25.15 124.5 L24.3 123.35 22.7 121.95 22.2 121.35 22.15 121.55 22.05 121.75 21.4 121.8 Q20.8 121.0 21.2 119.9 20.25 119.55 19.55 119.0 L20.15 119.05 20.7 118.7 21.45 119.1 22.0 119.7 22.25 119.3 22.1 118.85 21.75 118.1 21.65 118.0 21.5 117.5 21.5 117.35 20.95 116.5 Q18.6 115.1 17.05 112.9 L16.95 112.1 17.05 112.15 17.0 112.0 16.95 111.9 16.15 110.45 15.45 110.0 15.15 110.05 15.05 110.05 14.7 111.0 14.5 111.25 14.35 113.3 14.35 113.75 14.25 114.0 14.3 113.6 14.25 114.1 Q14.0 115.75 12.55 116.55 L12.25 116.45 12.85 114.1 12.4 114.0 11.75 113.9 10.35 114.0 9.8 114.05 9.4 114.1 9.2 114.3 8.4 114.9 7.2 116.1 6.45 116.65 5.9 117.25 5.8 117.25 5.65 117.3 5.55 117.4 5.9 117.65 5.55 117.65 2.7 117.4 Q2.25 118.75 1.3 119.6 L1.3 119.5 -0.2 121.85 -0.25 121.95 M28.4 126.8 Q27.75 126.45 27.95 125.75 L28.15 124.65 28.05 124.65 28.0 124.7 27.9 124.8 Q27.45 124.75 27.6 124.3 L28.05 123.45 28.15 122.4 28.2 122.35 28.8 122.4 28.95 122.45 29.0 122.45 29.05 122.8 28.9 123.05 28.7 123.8 Q28.45 124.85 28.45 125.9 L28.4 126.35 28.4 126.8 M22.5 122.95 L22.65 123.15 23.35 124.15 Q25.05 126.05 24.85 128.6 L24.05 129.85 Q24.1 127.7 22.95 125.95 L22.6 125.45 22.5 125.3 22.0 124.75 19.95 123.1 Q19.65 123.25 19.45 123.5 L20.05 122.75 20.15 122.7 20.55 122.65 21.7 122.7 22.1 122.8 22.25 122.85 22.55 123.05 22.5 122.95 M16.35 129.65 L16.35 129.75 16.1 129.6 16.35 129.65 M15.6 129.1 L15.5 129.0 15.6 129.1 M11.3 124.65 Q10.85 125.35 9.7 125.15 9.05 125.0 9.0 124.15 8.95 123.25 8.3 123.2 8.8 125.3 7.45 126.75 L7.45 126.7 7.4 126.75 7.2 126.95 7.15 127.05 Q7.1 125.6 6.2 124.55 L5.95 124.25 3.6 121.95 2.85 122.2 1.5 124.2 0.75 125.65 0.6 126.1 -0.1 125.4 -0.05 125.05 Q0.35 123.7 1.2 122.55 L1.5 122.2 Q2.2 121.4 3.15 121.05 L3.6 121.05 Q4.45 121.1 5.2 121.65 L5.55 121.9 6.75 123.0 6.95 123.15 7.05 123.25 7.55 122.75 8.25 121.9 8.5 121.7 9.05 121.45 Q10.35 121.55 10.9 122.75 11.35 123.7 11.3 124.65 M7.9 114.75 L7.85 114.8 7.8 114.9 7.9 114.75 M5.5 119.5 Q5.8 119.0 6.5 118.9 L6.7 118.85 7.15 119.35 7.5 119.05 7.5 119.1 7.8 118.55 7.8 118.2 7.65 117.85 7.5 117.7 8.5 117.35 Q9.0 117.2 9.1 117.7 L9.1 117.85 7.4 120.55 6.35 120.5 5.35 119.75 5.5 119.5 M14.2 118.5 L14.4 117.85 14.8 117.35 14.85 117.3 14.95 117.25 Q15.85 117.25 15.75 118.15 L15.7 118.5 15.7 118.55 15.7 118.75 15.7 118.8 16.5 119.85 16.85 120.5 17.5 120.7 17.15 120.75 16.05 120.9 Q15.15 121.05 14.9 121.75 L14.4 121.15 14.35 121.1 Q13.8 120.6 13.9 119.9 L13.95 119.2 14.1 118.65 14.2 118.5 M18.2 120.75 L18.35 120.7 19.4 120.8 19.5 120.9 19.55 121.55 19.25 121.75 19.05 121.9 19.1 121.55 18.95 121.15 18.2 120.75 M12.0 121.5 L12.0 122.5 11.75 122.5 11.7 122.45 11.7 122.35 11.6 122.05 11.45 121.7 11.45 121.6 11.35 121.35 10.5 120.0 11.3 119.95 12.0 121.05 12.0 121.5 M26.95 119.0 L26.85 119.75 Q26.1 120.0 25.65 119.5 L24.85 118.45 Q24.5 117.95 24.65 117.35 L25.2 116.9 Q25.8 117.95 26.85 117.7 28.0 118.3 28.2 119.45 L26.95 119.0 M30.5 122.3 L30.5 122.25 30.55 122.25 30.5 122.3" fill="#71412f" fill-rule="evenodd" stroke="none"/>
    <path d="M24.05 129.85 L24.05 129.9 24.05 129.85 M-0.1 125.4 L-0.65 124.6 Q-0.25 124.05 -0.3 123.25 L-0.2 121.95 -0.25 121.95 -0.2 121.85 1.3 119.5 1.3 119.6 Q2.25 118.75 2.7 117.4 L5.55 117.65 5.15 117.65 5.45 118.2 Q5.25 118.65 5.35 119.15 L5.5 119.5 5.35 119.75 6.35 120.5 6.25 120.6 Q5.65 121.2 5.55 121.9 L5.2 121.65 Q4.45 121.1 3.6 121.05 L3.8 120.8 Q4.1 120.45 3.85 120.1 3.4 119.35 2.4 119.55 L1.9 119.75 0.65 120.75 Q0.1 121.35 0.65 121.9 L1.5 122.2 1.2 122.55 Q0.35 123.7 -0.05 125.05 L-0.1 125.4 M15.15 110.05 L15.45 110.0 16.15 110.45 16.95 111.9 17.0 112.0 17.05 112.15 16.95 112.1 17.05 112.9 Q18.6 115.1 20.95 116.5 L21.5 117.35 21.5 117.5 21.65 118.0 21.75 118.1 22.1 118.85 22.25 119.3 22.0 119.7 21.45 119.1 20.7 118.7 20.7 118.5 20.55 118.3 18.95 117.95 18.85 117.65 18.4 116.65 17.45 115.4 Q16.85 114.6 15.9 114.3 L15.95 113.7 15.8 113.05 15.75 113.1 15.75 112.45 15.95 111.65 Q16.55 110.35 15.25 110.05 L15.15 110.05 M15.6 114.75 L15.7 114.9 15.6 114.8 15.6 114.75 M18.25 118.8 L18.4 118.85 18.45 118.9 18.3 118.95 18.35 119.3 18.25 118.8 M7.9 114.75 L7.8 114.9 7.85 114.8 7.9 114.75 M11.35 121.35 L10.9 120.6 10.2 120.1 10.15 119.4 Q10.2 118.65 9.9 118.2 L11.1 117.25 11.15 117.25 11.45 117.75 Q12.6 118.95 14.2 118.5 L14.1 118.65 13.95 119.2 13.9 119.9 Q13.8 120.6 14.35 121.1 L14.4 121.15 14.9 121.75 14.8 122.15 14.9 122.4 Q15.55 123.1 16.5 123.15 L17.95 122.95 Q18.85 122.65 19.05 121.9 L19.25 121.75 19.55 121.55 19.8 121.75 20.0 122.0 20.55 122.65 20.15 122.7 20.05 122.75 19.45 123.5 19.4 123.5 Q18.05 124.65 17.3 126.1 L16.9 126.9 Q16.15 123.85 12.95 122.75 L12.85 122.55 12.0 121.5 12.0 121.05 11.3 119.95 10.5 120.0 11.35 121.35 M22.25 122.85 L22.45 122.95 22.5 122.95 22.55 123.05 22.25 122.85" fill="#a35e43" fill-rule="evenodd" stroke="none"/>
    <path d="M29.1 127.0 L29.1 127.05 28.4 126.8 28.4 126.35 28.45 125.9 Q28.45 124.85 28.7 123.8 L28.9 123.05 29.05 122.8 29.0 122.45 28.95 122.45 28.8 122.4 28.2 122.35 28.15 122.4 28.3 121.55 28.7 121.4 29.55 120.7 Q29.75 120.4 29.6 120.1 29.2 119.5 28.4 119.45 L27.9 119.65 Q27.75 119.65 27.7 119.75 27.3 119.85 27.05 120.05 26.75 120.25 26.6 120.6 26.4 121.15 27.0 121.4 L27.7 121.65 27.5 122.15 27.25 121.95 27.15 121.7 Q25.9 120.45 24.4 119.8 L24.3 118.95 23.7 117.9 Q23.5 117.5 23.6 117.0 L23.55 116.6 23.75 115.7 23.75 115.6 23.95 115.7 24.15 115.85 24.55 115.95 25.3 116.15 26.8 116.65 27.4 117.05 Q28.3 117.45 29.0 118.2 29.8 119.2 30.2 120.45 L30.3 120.65 30.25 120.7 30.45 121.1 30.45 121.15 31.85 120.75 32.3 120.75 32.25 120.8 32.2 120.85 32.0 120.95 31.7 121.25 31.65 121.25 31.55 121.3 31.5 121.3 31.35 121.6 30.55 122.25 30.5 122.25 30.5 122.3 30.3 122.45 30.25 122.5 30.1 122.7 29.65 123.75 Q29.15 125.1 29.1 126.65 L29.1 127.0 M21.4 121.8 L21.7 122.15 22.35 122.8 22.4 122.85 22.45 122.9 22.5 122.95 22.45 122.95 22.25 122.85 22.1 122.8 21.7 122.7 20.55 122.65 20.0 122.0 19.8 121.75 19.55 121.55 19.5 120.9 19.4 120.8 18.35 120.7 18.2 120.75 17.5 120.7 16.85 120.5 16.5 119.85 15.7 118.8 15.7 118.75 15.7 118.55 15.7 118.5 15.75 118.15 Q15.85 117.25 14.95 117.25 L14.85 117.3 14.8 117.35 14.4 117.85 14.2 118.5 Q12.6 118.95 11.45 117.75 L11.15 117.25 11.1 117.25 9.9 118.2 Q10.2 118.65 10.15 119.4 L10.2 120.1 10.9 120.6 11.35 121.35 11.45 121.6 11.45 121.7 11.6 122.05 11.7 122.35 11.7 122.45 11.75 122.5 12.0 122.5 12.0 121.5 12.85 122.55 12.95 122.75 Q16.15 123.85 16.9 126.9 16.4 128.15 16.35 129.65 L16.1 129.6 16.0 129.5 15.6 129.15 15.6 129.1 15.5 129.0 15.1 128.6 Q14.45 127.85 14.5 126.9 L15.5 124.85 15.2 124.6 13.95 126.45 13.0 125.4 Q12.45 124.9 13.15 124.25 L13.05 124.15 Q12.55 124.35 12.5 124.9 12.4 125.4 11.75 125.3 11.5 125.0 11.7 124.75 11.9 124.45 11.5 124.25 L11.3 124.65 Q11.35 123.7 10.9 122.75 10.35 121.55 9.05 121.45 L8.5 121.7 8.25 121.9 7.55 122.75 7.05 123.25 6.95 123.15 6.75 123.0 5.55 121.9 Q5.65 121.2 6.25 120.6 L6.35 120.5 7.4 120.55 9.1 117.85 9.1 117.7 Q9.0 117.2 8.5 117.35 L7.5 117.7 7.65 117.85 7.8 118.2 7.8 118.55 7.5 119.1 7.5 119.05 7.15 119.35 6.7 118.85 6.5 118.9 Q5.8 119.0 5.5 119.5 L5.35 119.15 Q5.25 118.65 5.45 118.2 L5.15 117.65 5.55 117.65 5.9 117.65 5.55 117.4 5.65 117.3 5.8 117.25 5.9 117.25 6.45 116.65 7.2 116.1 8.4 114.9 9.2 114.3 9.4 114.1 9.8 114.05 10.35 114.0 11.75 113.9 12.4 114.0 12.85 114.1 12.25 116.45 12.55 116.55 Q14.0 115.75 14.25 114.1 L14.3 113.6 14.25 114.0 14.35 113.75 14.35 113.3 14.5 111.25 14.7 111.0 15.05 110.05 15.15 110.05 15.25 110.05 Q16.55 110.35 15.95 111.65 L15.75 112.45 15.75 113.1 15.7 113.1 15.7 113.15 Q15.35 113.75 15.55 114.5 L15.6 114.5 15.6 114.7 15.6 114.75 15.6 114.8 15.7 114.9 16.05 115.45 17.25 116.9 17.9 118.15 18.1 118.65 18.25 118.8 18.35 119.3 18.3 118.95 18.45 118.9 18.8 118.95 19.55 119.0 Q20.25 119.55 21.2 119.9 20.8 121.0 21.4 121.8 M26.95 119.0 L28.2 119.45 Q28.0 118.3 26.85 117.7 25.8 117.95 25.2 116.9 L24.65 117.35 Q24.5 117.95 24.85 118.45 L25.65 119.5 Q26.1 120.0 26.85 119.75 L26.95 119.0" fill="#91533c" fill-rule="evenodd" stroke="none"/>
    <path d="M28.3 121.55 L27.7 121.65 27.0 121.4 Q26.4 121.15 26.6 120.6 26.75 120.25 27.05 120.05 27.3 119.85 27.7 119.75 27.75 119.65 27.9 119.65 L28.4 119.45 Q29.2 119.5 29.6 120.1 29.75 120.4 29.55 120.7 L28.7 121.4 28.3 121.55 M20.7 118.7 L20.15 119.05 19.55 119.0 18.8 118.95 18.45 118.9 18.4 118.85 18.25 118.8 18.1 118.65 17.9 118.15 17.25 116.9 16.05 115.45 15.7 114.9 15.6 114.75 15.6 114.7 15.6 114.5 15.55 114.5 Q15.35 113.75 15.7 113.15 L15.7 113.1 15.75 113.1 15.8 113.05 15.95 113.7 15.9 114.3 Q16.85 114.6 17.45 115.4 L18.4 116.65 18.85 117.65 18.95 117.95 20.55 118.3 20.7 118.5 20.7 118.7 M17.5 120.7 L18.2 120.75 18.95 121.15 19.1 121.55 19.05 121.9 Q18.85 122.65 17.95 122.95 L16.5 123.15 Q15.55 123.1 14.9 122.4 L14.8 122.15 14.9 121.75 Q15.15 121.05 16.05 120.9 L17.15 120.75 17.5 120.7 M1.5 122.2 L0.65 121.9 Q0.1 121.35 0.65 120.75 L1.9 119.75 2.4 119.55 Q3.4 119.35 3.85 120.1 4.1 120.45 3.8 120.8 L3.6 121.05 3.15 121.05 Q2.2 121.4 1.5 122.2" fill="#c58770" fill-rule="evenodd" stroke="none"/>
    <path d="M33.85 122.1 L33.9 122.3 33.8 122.1 33.85 122.1 M34.85 127.3 L34.85 127.45 30.95 127.05 30.3 127.1 30.4 125.05 30.45 124.55 30.65 124.3 32.35 122.65 34.05 125.2 34.2 125.4 34.85 127.3 M22.0 132.35 L21.65 132.8 20.95 132.65 20.9 132.5 20.15 129.1 Q19.75 129.8 20.0 130.65 L20.05 130.75 20.05 130.85 20.3 131.95 20.35 132.35 Q19.4 132.0 19.25 131.1 L19.25 130.65 19.25 130.55 Q19.35 129.15 19.0 128.3 18.7 129.1 18.7 130.0 L18.8 130.1 Q19.2 130.55 18.8 130.85 L18.85 131.2 18.9 131.4 18.45 131.0 18.15 130.95 17.95 130.85 18.1 129.35 Q18.2 128.2 18.85 127.25 L20.65 125.0 21.2 126.7 21.75 129.6 22.0 132.15 22.0 132.35 M7.45 126.75 L7.45 126.85 7.4 126.75 7.45 126.7 7.45 126.75 M3.05 130.45 L3.05 130.55 Q2.75 129.4 1.8 128.6 1.1 128.0 1.25 127.3 L1.2 127.2 1.6 126.85 Q1.95 126.2 2.45 125.7 L3.2 124.9 3.75 124.45 3.8 126.75 3.8 127.1 3.6 127.7 3.6 127.75 3.6 128.35 3.6 127.45 Q3.05 128.95 3.05 130.45" fill="#787878" fill-rule="evenodd" stroke="none"/>
    <path d="M33.05 120.65 L33.85 122.1 33.8 122.1 33.9 122.3 Q34.85 124.6 34.85 127.3 L34.2 125.4 34.05 125.2 32.35 122.65 30.65 124.3 30.45 124.55 30.25 124.8 30.5 123.85 31.55 121.3 31.65 121.25 31.7 121.25 32.0 120.95 32.2 120.85 32.25 120.8 32.3 120.7 32.35 120.65 32.85 120.35 33.0 120.55 33.05 120.65 M24.05 129.85 L23.35 130.55 Q23.15 131.15 22.75 131.1 L22.0 132.35 22.0 132.15 21.75 129.6 21.2 126.7 20.65 125.0 18.85 127.25 Q18.2 128.2 18.1 129.35 L17.95 130.85 16.95 130.25 16.65 130.0 16.75 130.05 16.95 129.45 17.2 128.65 17.95 127.0 18.8 125.7 19.6 124.9 20.3 124.2 Q21.05 124.35 21.7 124.9 L22.15 125.25 22.6 125.45 22.95 125.95 Q24.1 127.7 24.05 129.85 M20.9 132.5 L20.65 132.45 20.4 132.35 20.35 132.3 20.3 131.95 20.05 130.85 20.05 130.75 20.0 130.65 Q19.75 129.8 20.15 129.1 L20.9 132.5 M19.25 131.1 L19.45 131.7 18.9 131.3 18.85 131.2 18.8 130.85 Q19.2 130.55 18.8 130.1 L18.7 130.0 Q18.7 129.1 19.0 128.3 19.35 129.15 19.25 130.55 L19.25 130.65 19.25 131.1 M6.5 127.75 L5.9 127.95 5.75 127.45 5.9 128.15 5.35 128.85 5.35 128.95 5.45 129.1 5.3 129.2 5.25 129.25 4.8 129.4 4.75 129.75 3.9 130.55 3.8 130.65 3.7 130.7 3.5 130.9 3.5 130.35 3.5 130.75 3.05 130.45 Q3.05 128.95 3.6 127.45 L3.6 128.35 3.6 127.75 3.6 127.7 3.8 127.1 3.8 126.75 3.75 124.45 3.2 124.9 2.45 125.7 Q1.95 126.2 1.6 126.85 L1.2 127.2 1.05 126.95 1.05 126.85 0.75 125.75 0.75 125.65 1.5 124.2 2.45 123.4 3.7 122.6 Q4.55 123.25 5.0 124.3 L5.3 124.9 Q6.05 126.0 6.35 127.35 L6.5 127.75 M4.95 125.6 L4.9 125.6 4.95 125.7 4.95 125.6" fill="#595959" fill-rule="evenodd" stroke="none"/>
    <path d="M30.3 127.1 L29.25 127.05 29.1 127.0 29.1 126.65 Q29.15 125.1 29.65 123.75 L30.1 122.7 30.25 122.5 30.3 122.45 30.5 122.3 30.55 122.25 31.35 121.6 31.5 121.3 31.55 121.3 30.5 123.85 30.25 124.8 30.45 124.55 30.4 125.05 30.3 127.1 M16.65 130.0 L16.55 129.9 16.35 129.65 Q16.4 128.15 16.9 126.9 L17.3 126.1 Q18.05 124.65 19.4 123.5 L19.45 123.5 Q19.65 123.25 19.95 123.1 L22.0 124.75 22.5 125.3 22.6 125.45 22.15 125.25 21.7 124.9 Q21.05 124.35 20.3 124.2 L19.6 124.9 18.8 125.7 17.95 127.0 17.2 128.65 16.95 129.45 16.75 130.05 16.65 130.0 M7.45 126.85 L7.0 127.35 6.5 127.75 6.35 127.35 Q6.05 126.0 5.3 124.9 L5.0 124.3 Q4.55 123.25 3.7 122.6 L2.45 123.4 1.5 124.2 2.85 122.2 3.6 121.95 5.95 124.25 6.2 124.55 Q7.1 125.6 7.15 127.05 L7.2 126.95 7.4 126.75 7.45 126.85" fill="#333333" fill-rule="evenodd" stroke="none"/>
  </g>
</svg>
