<?xml version="1.0" encoding="UTF-8" standalone="no"?>
<svg xmlns:xlink="http://www.w3.org/1999/xlink" height="112.45px" width="41.05px" xmlns="http://www.w3.org/2000/svg">
  <g transform="matrix(1.0, 0.0, 0.0, 1.0, 10.0, 10.6)">
    <path d="M-7.6 -4.8 L-5.7 -5.65 Q-2.8 -7.1 0.15 -7.15 L2.95 -3.25 3.75 -2.5 4.0 -1.95 Q5.15 -0.05 4.9 2.35 L4.75 2.95 1.85 8.35 1.7 8.65 -1.15 8.75 Q-2.95 6.9 -5.55 6.1 -6.95 4.35 -7.6 2.3 L-8.05 1.05 -8.25 0.6 Q-8.85 -2.1 -7.6 -4.8 M-0.7 23.8 L-0.5 23.7 Q1.7 22.7 2.2 20.0 L2.35 19.85 2.5 19.65 Q4.05 19.25 5.25 20.0 L6.2 22.25 6.65 23.3 Q8.25 28.55 13.15 29.15 14.45 30.95 15.0 33.0 L14.8 33.15 14.3 33.75 14.2 33.95 13.9 34.05 Q11.8 32.9 9.45 33.4 8.4 33.65 7.7 34.1 5.15 35.7 6.7 38.0 L5.2 38.75 3.75 40.05 Q1.65 37.95 0.75 35.25 0.55 32.7 1.35 30.2 2.05 27.65 0.4 25.55 L-0.7 23.8 M4.0 43.3 L3.75 43.75 4.4 43.95 Q6.65 43.95 8.95 42.8 L9.2 42.9 Q9.85 43.15 10.3 43.5 L10.95 43.85 11.35 44.0 Q13.1 44.65 13.9 42.95 L14.8 43.7 Q16.3 44.65 18.25 44.7 L18.45 44.95 18.6 45.15 19.45 46.75 19.65 47.25 Q18.85 46.4 17.65 46.1 L17.4 46.2 17.2 46.3 17.1 46.5 17.05 46.7 17.05 46.9 17.2 47.1 17.4 47.3 17.5 47.5 17.7 48.75 Q18.15 50.4 18.15 52.15 17.35 53.7 17.1 55.3 L15.5 55.5 Q13.45 55.85 12.45 57.7 L12.15 58.55 7.6 59.15 6.65 59.45 6.25 57.95 7.95 58.55 Q9.1 57.55 9.25 56.2 L8.35 55.6 8.35 55.5 8.35 55.4 8.35 55.3 8.35 55.25 8.35 55.15 8.35 55.1 8.55 54.25 Q8.65 53.8 8.9 53.5 L8.9 53.45 Q8.5 51.45 8.4 49.3 8.35 46.75 6.25 46.25 L5.7 46.75 5.5 46.95 Q4.3 50.15 4.4 53.6 3.45 51.5 2.85 49.4 2.05 46.5 4.0 43.3 M6.4 8.2 L6.1 8.9 5.75 9.55 5.7 9.6 4.9 10.8 4.4 11.8 Q3.85 12.5 3.0 12.7 L2.7 12.75 1.5 12.9 0.35 13.05 Q-0.5 13.35 -1.15 12.75 L-1.3 12.45 Q-1.35 11.65 -0.6 11.45 L-0.1 11.4 Q0.9 11.5 1.7 10.95 L1.95 10.7 2.85 10.05 3.55 9.3 3.85 9.05 4.8 7.85 5.15 7.25 5.6 6.8 5.65 6.75 5.75 6.65 6.2 6.8 6.2 7.6 6.25 7.6 6.25 7.8 6.4 8.2 M7.1 13.4 Q7.05 14.2 6.6 14.7 5.95 15.55 4.9 15.85 L2.3 16.2 1.8 16.0 0.75 15.15 0.7 14.85 Q0.8 14.25 1.5 14.5 L1.7 14.55 2.4 14.45 2.8 14.3 Q4.35 13.95 5.45 12.8 L5.85 12.5 6.0 12.3 6.3 12.0 Q7.1 11.85 7.15 12.55 L7.1 13.4 M13.45 35.65 L14.0 35.75 14.7 35.5 17.7 35.75 17.8 35.7 Q18.35 35.55 18.55 36.0 18.7 36.45 18.4 36.85 L17.3 37.7 13.6 37.8 12.95 37.6 12.8 37.65 11.4 37.55 11.2 37.45 Q10.6 37.1 11.0 36.65 L11.25 36.55 Q12.3 36.6 13.1 35.9 L13.45 35.65 M3.1 34.35 Q2.9 35.25 3.6 35.7 5.95 37.45 6.5 34.8 6.8 34.35 7.25 34.15 9.25 33.15 10.15 31.45 L9.95 31.0 9.85 30.75 9.45 30.6 7.85 30.45 Q4.0 30.7 3.1 34.35 M2.65 79.05 Q2.45 81.95 5.7 80.6 9.95 78.75 8.95 74.7 L8.55 74.5 7.95 74.35 7.8 74.4 Q8.6 73.6 9.65 73.3 10.5 74.45 12.35 74.65 14.55 75.55 15.15 77.5 L15.3 78.5 Q15.35 79.1 15.75 79.55 L18.35 82.9 Q17.2 84.7 17.4 86.9 L17.5 86.7 17.75 86.35 18.2 86.2 Q19.3 86.2 19.9 87.1 20.85 88.35 20.95 89.95 L20.95 90.65 18.4 90.9 17.7 88.8 17.3 87.5 Q16.7 89.8 18.0 91.8 L17.7 91.4 16.65 93.75 16.6 93.95 15.45 95.35 Q14.85 95.55 14.25 95.9 L13.6 96.45 13.55 96.4 Q13.55 95.15 13.85 93.95 L13.95 93.55 Q14.35 92.2 12.7 91.5 L12.0 90.25 13.3 88.75 13.65 88.0 Q15.25 84.55 12.95 82.1 L12.45 82.1 12.4 82.1 Q12.1 80.85 11.25 80.35 L11.45 81.55 10.15 81.4 Q9.0 81.35 8.0 82.05 7.35 82.6 7.3 83.25 5.6 81.4 2.9 81.35 L2.45 81.3 Q2.2 79.9 2.65 79.05 M27.1 88.65 Q25.6 88.7 25.6 87.2 25.7 86.75 25.45 86.55 L25.4 86.6 25.3 87.0 Q25.2 86.45 25.45 85.95 L25.6 85.7 25.65 85.7 25.9 85.5 25.95 85.5 26.15 85.35 Q27.05 85.3 27.25 86.2 L27.75 87.65 27.85 88.05 27.55 88.25 27.1 88.65 M23.9 77.15 L23.5 76.1 23.55 76.1 23.8 76.35 24.3 76.95 25.7 79.6 25.85 79.7 Q26.45 80.15 26.35 80.9 L26.25 80.95 25.1 81.05 Q24.7 80.15 24.75 79.2 L23.9 77.15 M20.25 76.6 L20.3 76.6 20.4 76.7 20.75 77.35 20.95 78.3 21.3 81.95 Q20.3 81.9 19.8 80.8 L20.2 78.3 20.25 76.6 M10.4 76.75 L13.05 80.0 Q12.15 77.9 10.4 76.75 M-2.65 1.85 Q-2.3 0.95 -2.35 0.05 -2.55 -3.25 -5.6 -3.45 -7.95 -2.55 -8.05 0.2 -8.1 2.05 -6.7 2.95 -3.9 4.85 -2.65 1.85 M-5.85 1.05 L-5.45 1.8 Q-4.85 1.5 -4.7 1.0 -4.6 1.6 -5.1 2.25 -6.0 2.25 -6.0 1.35 L-5.85 1.05" fill="#99cc99" fill-rule="evenodd" stroke="none"/>
    <path d="M4.95 -5.4 L4.85 -4.8 Q4.85 -3.5 5.5 -2.35 L5.4 -3.25 5.75 0.0 6.5 -1.0 7.3 -0.2 Q6.7 0.8 6.3 1.95 5.6 4.3 6.25 6.4 L6.2 6.8 5.75 6.65 5.65 6.75 5.6 6.8 5.15 7.25 4.8 7.85 3.85 9.05 3.55 9.3 2.85 10.05 1.95 10.7 1.7 10.95 Q0.9 11.5 -0.1 11.4 L-0.6 11.45 Q-1.35 11.65 -1.3 12.45 L-1.15 12.75 Q-0.5 13.35 0.35 13.05 L1.5 12.9 2.7 12.75 3.0 12.7 Q3.85 12.5 4.4 11.8 L4.9 10.8 5.7 9.6 5.75 9.55 6.1 8.9 6.4 8.2 Q6.95 9.6 8.75 9.45 L10.05 11.05 Q11.65 13.15 12.4 15.6 13.2 17.6 14.65 19.25 L15.25 19.9 Q18.75 23.7 20.5 28.45 L20.55 29.4 Q19.4 33.15 21.1 36.7 L20.4 37.0 20.15 37.1 19.9 37.4 Q18.75 37.45 18.3 38.8 L17.95 39.6 15.45 41.2 Q14.25 40.05 12.85 39.45 L13.1 39.7 Q11.95 38.4 10.15 38.4 L8.05 38.55 7.75 38.6 Q6.9 38.75 6.55 39.8 L6.55 39.85 6.25 40.35 Q6.05 41.1 6.85 41.5 7.8 41.75 8.6 42.3 L9.1 42.8 9.2 42.9 8.95 42.8 Q6.65 43.95 4.4 43.95 L3.75 43.75 4.0 43.3 5.2 41.25 3.75 40.05 5.2 38.75 6.7 38.0 Q5.15 35.7 7.7 34.1 8.4 33.65 9.45 33.4 11.8 32.9 13.9 34.05 L14.2 33.95 14.3 33.75 14.8 33.15 15.0 33.0 Q14.45 30.95 13.15 29.15 8.25 28.55 6.65 23.3 L6.2 22.25 5.25 20.0 Q4.05 19.25 2.5 19.65 L2.35 19.85 2.2 20.0 Q1.7 22.7 -0.5 23.7 L-0.7 23.8 -2.45 21.9 -2.55 21.8 -2.65 21.35 -2.9 19.95 -2.9 19.75 -3.05 18.15 Q-3.25 16.55 -3.0 14.9 -2.7 11.5 -4.85 8.55 -6.55 5.4 -7.85 2.0 L-8.25 0.6 -8.05 1.05 -7.6 2.3 Q-6.95 4.35 -5.55 6.1 -2.95 6.9 -1.15 8.75 L1.7 8.65 1.85 8.35 4.75 2.95 4.9 2.35 Q5.15 -0.05 4.0 -1.95 L3.75 -2.5 2.95 -3.25 0.15 -7.15 Q-2.8 -7.1 -5.7 -5.65 L-7.6 -4.8 -7.5 -5.0 Q-4.55 -9.15 0.55 -9.45 3.85 -8.45 4.95 -5.4 M6.85 60.95 L6.65 59.45 7.6 59.15 12.15 58.55 12.45 57.7 Q13.45 55.85 15.5 55.5 L17.1 55.3 Q17.35 53.7 18.15 52.15 18.15 50.4 17.7 48.75 L17.5 47.5 17.4 47.3 17.2 47.1 17.05 46.9 17.05 46.7 17.1 46.5 17.2 46.3 17.4 46.2 17.65 46.1 Q18.85 46.4 19.65 47.25 L19.85 47.7 22.45 52.05 Q23.8 54.7 21.8 57.25 18.55 57.05 16.2 59.25 11.0 57.85 6.85 60.95 M13.45 35.65 L13.1 35.9 Q12.3 36.6 11.25 36.55 L11.0 36.65 Q10.6 37.1 11.2 37.45 L11.4 37.55 12.8 37.65 12.95 37.6 13.6 37.8 17.3 37.7 18.4 36.85 Q18.7 36.45 18.55 36.0 18.35 35.55 17.8 35.7 L17.7 35.75 14.7 35.5 14.0 35.75 13.45 35.65 M7.1 13.4 L7.15 12.55 Q7.1 11.85 6.3 12.0 L6.0 12.3 5.85 12.5 5.45 12.8 Q4.35 13.95 2.8 14.3 L2.4 14.45 1.7 14.55 1.5 14.5 Q0.8 14.25 0.7 14.85 L0.75 15.15 1.8 16.0 2.3 16.2 4.9 15.85 Q5.95 15.55 6.6 14.7 7.05 14.2 7.1 13.4 M10.95 43.85 L11.1 43.8 11.35 44.0 10.95 43.85 M28.85 84.5 Q29.0 85.55 29.55 86.4 29.75 87.45 29.1 87.9 L28.85 88.0 27.1 88.65 27.55 88.25 27.85 88.05 27.75 87.65 27.25 86.2 Q27.05 85.3 26.15 85.35 L25.95 85.5 25.9 85.5 25.65 85.7 25.6 85.7 25.45 85.95 Q25.2 86.45 25.3 87.0 L25.3 87.05 Q25.15 87.7 25.3 88.3 L24.9 88.3 24.5 88.7 23.9 89.15 Q23.95 87.5 23.3 86.0 22.35 85.0 21.1 85.25 22.6 86.05 22.35 87.6 L21.85 90.55 20.95 90.65 20.95 89.95 Q20.85 88.35 19.9 87.1 19.3 86.2 18.2 86.2 L17.75 86.35 17.5 86.7 17.4 86.9 Q17.2 84.7 18.35 82.9 L15.75 79.55 Q15.35 79.1 15.3 78.5 L15.15 77.5 Q17.6 78.5 20.2 78.3 L19.8 80.8 Q20.3 81.9 21.3 81.95 L20.95 78.3 20.75 77.35 20.95 78.15 23.9 77.15 24.75 79.2 Q24.7 80.15 25.1 81.05 L26.25 80.95 26.5 81.7 Q27.15 83.95 28.85 84.5 M18.0 91.8 L18.0 91.85 18.35 91.9 Q17.7 92.85 17.35 93.95 L16.95 95.2 Q16.3 95.6 16.05 96.25 15.5 97.7 16.2 98.25 L16.65 98.35 15.85 98.2 Q14.35 97.65 13.6 96.45 L14.25 95.9 Q14.85 95.55 15.45 95.35 L16.6 93.95 16.65 93.75 17.7 91.4 18.0 91.8 M12.0 90.25 L11.8 89.5 12.35 89.5 13.3 88.75 12.0 90.25 M11.45 81.55 L11.45 82.35 10.9 84.45 8.7 85.3 Q8.1 84.1 7.3 83.25 7.35 82.6 8.0 82.05 9.0 81.35 10.15 81.4 L11.45 81.55 M24.3 76.95 L24.7 76.7 25.85 79.7 25.7 79.6 24.3 76.95 M2.7 87.3 L2.65 86.9 Q2.95 84.9 4.85 83.9 L5.65 83.7 6.7 83.75 7.3 84.85 Q7.2 85.8 6.3 86.05 5.45 86.25 4.75 86.8 L2.7 87.3 M14.1 98.15 L15.5 99.15 14.95 99.75 14.85 99.85 13.4 100.75 12.9 100.9 12.85 100.75 Q12.75 100.25 13.05 99.85 L13.35 99.3 Q13.6 98.55 14.1 98.15 M25.85 97.2 L26.9 97.3 Q26.7 99.5 24.85 100.6 L24.6 100.45 Q24.75 99.7 25.05 98.95 L25.85 97.2" fill="#999933" fill-rule="evenodd" stroke="none"/>
    <path d="M5.4 -3.25 L5.5 -2.35 Q4.85 -3.5 4.85 -4.8 L4.95 -5.4 5.1 -4.85 5.1 -4.7 5.2 -4.1 5.4 -3.25 M9.2 42.9 L9.1 42.8 8.6 42.3 Q7.8 41.75 6.85 41.5 6.05 41.1 6.25 40.35 L6.55 39.85 6.55 39.8 Q6.9 38.75 7.75 38.6 L8.05 38.55 10.15 38.4 Q11.95 38.4 13.1 39.7 L12.85 39.45 Q14.25 40.05 15.45 41.2 L17.95 39.6 18.3 38.8 Q18.75 37.45 19.9 37.4 L20.15 37.1 20.4 37.0 21.1 36.7 Q19.4 33.15 20.55 29.4 L20.5 28.45 Q18.75 23.7 15.25 19.9 L14.65 19.25 Q13.2 17.6 12.4 15.6 11.65 13.15 10.05 11.05 L8.75 9.45 Q6.95 9.6 6.4 8.2 L6.25 7.8 6.25 7.6 6.2 7.6 6.2 6.8 6.25 6.4 Q5.6 4.3 6.3 1.95 6.7 0.8 7.3 -0.2 L6.5 -1.0 Q6.85 -1.85 6.7 -2.85 6.3 -4.55 6.25 -6.15 11.5 -2.5 12.3 3.45 13.05 9.4 15.45 14.65 L16.6 16.75 Q17.25 17.85 16.8 19.0 18.35 20.25 19.15 22.2 19.85 24.1 21.0 25.85 20.55 26.4 21.0 26.8 L21.75 27.4 Q23.55 29.45 22.55 31.7 21.6 34.05 22.55 36.25 24.15 37.7 24.65 39.8 L23.45 44.4 Q22.8 46.85 25.2 48.55 26.7 54.3 26.4 59.95 24.8 60.8 23.2 60.2 22.7 59.85 22.75 59.4 23.55 59.0 23.8 58.3 21.45 58.2 20.5 60.45 19.55 62.65 16.95 61.85 L15.4 60.3 Q14.7 59.5 13.5 59.65 13.1 60.0 13.55 60.5 L6.85 62.15 6.85 61.35 6.85 60.95 Q11.0 57.85 16.2 59.25 18.55 57.05 21.8 57.25 23.8 54.7 22.45 52.05 L19.85 47.7 19.65 47.25 19.45 46.75 18.6 45.15 18.45 44.95 18.25 44.7 Q16.3 44.65 14.8 43.7 L13.9 42.95 Q13.1 44.65 11.35 44.0 L11.1 43.8 10.95 43.85 10.3 43.5 Q9.85 43.15 9.2 42.9 M9.65 73.3 L10.45 73.15 14.6 73.55 Q16.9 75.0 19.4 74.65 21.85 74.3 24.1 73.2 28.15 76.1 28.45 81.2 L27.5 81.35 Q27.15 81.2 27.05 81.35 L26.85 81.75 Q28.7 81.95 28.75 83.6 L28.75 83.7 28.85 84.5 Q27.15 83.95 26.5 81.7 L26.25 80.95 26.35 80.9 Q26.45 80.15 25.85 79.7 L24.7 76.7 24.3 76.95 23.8 76.35 23.55 76.1 23.45 75.95 23.5 76.1 23.9 77.15 20.95 78.15 20.75 77.35 20.4 76.7 20.3 76.6 20.25 76.55 20.25 76.6 20.2 78.3 Q17.6 78.5 15.15 77.5 14.55 75.55 12.35 74.65 10.5 74.45 9.65 73.3 M25.3 88.3 Q25.35 89.05 25.75 89.85 L26.0 90.0 Q26.65 90.3 27.5 90.0 L27.55 89.95 27.65 89.9 27.75 89.85 Q28.85 89.15 29.15 90.75 29.4 92.4 29.1 93.95 L28.3 95.9 28.05 96.0 27.55 96.1 26.45 96.1 Q25.65 95.9 25.0 95.35 L23.5 93.95 22.55 92.95 Q22.35 92.2 22.95 91.7 23.55 91.2 23.7 90.5 L23.9 89.15 24.5 88.7 24.9 88.3 25.3 88.3 M18.35 91.9 L19.6 91.8 21.2 91.65 Q20.5 92.65 20.1 93.95 19.7 95.05 19.55 96.3 L19.25 97.35 19.05 97.65 16.65 98.35 16.2 98.25 Q15.5 97.7 16.05 96.25 16.3 95.6 16.95 95.2 L17.35 93.95 Q17.7 92.85 18.35 91.9 M11.8 89.5 L11.65 88.7 11.65 88.55 Q11.4 87.0 10.8 85.6 12.5 84.55 12.45 82.25 L12.4 82.1 12.45 82.1 12.95 82.1 Q15.25 84.55 13.65 88.0 L13.3 88.75 12.35 89.5 11.8 89.5" fill="#996600" fill-rule="evenodd" stroke="none"/>
    <path d="M4.95 -5.4 Q3.85 -8.45 0.55 -9.45 -4.55 -9.15 -7.5 -5.0 L-7.6 -4.8 Q-8.85 -2.1 -8.25 0.6 L-7.85 2.0 Q-6.55 5.4 -4.85 8.55 -2.7 11.5 -3.0 14.9 -3.25 16.55 -3.05 18.15 L-2.9 19.75 -2.9 19.95 -2.65 21.35 -2.55 21.8 -2.45 21.9 -0.7 23.8 0.4 25.55 Q2.05 27.65 1.35 30.2 0.55 32.7 0.75 35.25 1.65 37.95 3.75 40.05 L5.2 41.25 4.0 43.3 Q2.05 46.5 2.85 49.4 3.45 51.5 4.4 53.6 L5.35 55.65 5.85 56.8 6.25 57.95 6.65 59.45 6.85 60.95 6.85 61.35 6.85 62.15 13.55 60.5 Q13.1 60.0 13.5 59.65 14.7 59.5 15.4 60.3 L16.95 61.85 Q19.55 62.65 20.5 60.45 21.45 58.2 23.8 58.3 23.55 59.0 22.75 59.4 22.7 59.85 23.2 60.2 24.8 60.8 26.4 59.95 26.7 54.3 25.2 48.55 22.8 46.85 23.45 44.4 L24.65 39.8 Q24.15 37.7 22.55 36.25 21.6 34.05 22.55 31.7 23.55 29.45 21.75 27.4 L21.0 26.8 Q20.55 26.4 21.0 25.85 19.85 24.1 19.15 22.2 18.35 20.25 16.8 19.0 17.25 17.85 16.6 16.75 L15.45 14.65 Q13.05 9.4 12.3 3.45 11.5 -2.5 6.25 -6.15 6.3 -4.55 6.7 -2.85 6.85 -1.85 6.5 -1.0 L5.75 0.0 5.4 -3.25 5.2 -4.1 5.1 -4.7 5.1 -4.85 4.95 -5.4 M4.65 -8.6 Q5.5 -7.5 6.9 -7.45 11.45 -5.15 13.35 -0.25 13.95 8.5 18.0 16.2 L19.3 15.9 Q17.8 17.25 19.0 18.75 19.5 19.8 20.9 19.9 19.7 20.7 20.65 21.9 21.55 23.1 22.05 24.25 23.45 25.95 24.05 28.05 24.75 30.1 23.6 32.25 22.9 33.1 22.95 34.25 24.05 36.7 26.2 37.85 L24.8 45.05 Q26.05 46.25 26.25 47.85 26.5 49.45 27.45 50.65 26.9 53.1 27.3 55.65 27.75 58.2 26.95 60.6 L25.8 63.05 Q25.2 64.3 26.5 65.45 26.45 67.1 25.6 68.45 24.75 69.8 25.65 71.45 27.95 73.55 28.65 76.4 L29.75 82.1 Q31.25 83.8 31.0 86.4 29.85 88.3 30.35 90.65 30.7 92.35 30.2 93.95 L29.75 95.15 Q27.75 96.65 27.15 99.25 26.6 101.75 23.45 101.35 22.75 100.45 23.05 99.55 23.4 98.55 22.4 97.8 22.4 96.5 23.2 95.45 23.7 94.6 22.9 93.95 22.65 93.7 22.3 93.55 L21.65 93.95 Q21.1 94.4 20.95 95.35 L20.25 97.7 Q16.75 99.6 13.5 101.75 11.55 102.2 10.75 100.9 10.25 98.75 11.45 97.05 12.5 95.6 12.95 93.95 L13.1 93.25 Q11.1 92.05 11.0 90.05 10.85 88.05 8.95 87.1 7.1 86.1 5.45 87.35 3.75 88.55 1.6 88.15 0.5 82.9 2.25 77.9 4.45 77.15 5.5 75.25 6.55 73.3 8.25 71.85 6.65 70.45 7.15 68.8 7.65 67.1 5.45 66.2 4.75 64.6 5.85 63.05 L2.05 52.75 Q-0.1 47.45 3.6 42.25 1.85 40.55 0.45 38.3 -0.8 36.3 -0.3 33.9 0.2 31.5 -0.1 29.35 0.15 26.75 -1.9 25.1 -3.95 23.4 -3.95 20.95 L-3.95 15.2 -6.45 9.7 -7.75 9.9 -6.85 9.1 Q-7.9 6.0 -9.3 2.9 -10.7 -0.2 -9.25 -3.8 -8.35 -6.15 -6.45 -8.15 -4.5 -10.2 -1.75 -10.05 0.4 -10.95 2.75 -10.4 3.8 -9.7 4.65 -8.6 M12.0 65.95 Q17.85 63.9 24.3 64.1 25.6 63.1 25.5 61.7 L22.0 60.8 20.8 62.1 Q18.75 63.5 16.3 62.65 14.65 61.4 12.95 61.45 L12.6 61.45 11.35 61.75 Q8.85 62.7 6.65 64.0 7.05 65.95 8.75 67.25 L9.2 67.05 12.0 65.95 M17.3 72.75 L22.8 72.6 Q24.35 72.1 25.05 70.9 24.9 70.2 24.15 69.9 L16.45 69.45 14.85 69.55 11.55 70.6 11.4 70.65 11.3 70.8 9.95 71.65 9.8 71.85 10.0 71.75 Q13.15 71.0 16.25 72.2 L17.3 72.75 M19.5 68.15 Q22.0 68.1 24.6 68.95 25.4 68.0 25.4 66.65 L24.5 65.05 Q21.55 64.8 18.7 65.15 L17.5 65.3 13.95 66.15 12.3 66.75 11.75 66.95 11.1 67.2 10.95 67.25 8.9 68.2 Q7.95 68.6 7.85 69.65 L7.8 70.05 8.2 70.4 8.25 70.4 8.75 70.5 9.2 70.35 9.3 70.3 9.35 70.25 11.05 69.2 12.8 68.95 15.75 68.5 17.7 68.25 19.5 68.15 M7.8 74.4 L7.1 75.3 Q6.05 77.2 4.0 77.95 L3.85 78.0 2.95 78.6 2.65 79.05 Q2.2 79.9 2.45 81.3 L2.9 81.35 Q5.6 81.4 7.3 83.25 8.1 84.1 8.7 85.3 L10.9 84.45 11.45 82.35 11.45 81.55 11.25 80.35 Q12.1 80.85 12.4 82.1 L12.45 82.25 Q12.5 84.55 10.8 85.6 11.4 87.0 11.65 88.55 L11.65 88.7 11.8 89.5 12.0 90.25 12.7 91.5 Q14.35 92.2 13.95 93.55 L13.85 93.95 Q13.55 95.15 13.55 96.4 L13.6 96.45 Q14.35 97.65 15.85 98.2 L16.65 98.35 19.05 97.65 19.25 97.35 19.55 96.3 Q19.7 95.05 20.1 93.95 20.5 92.65 21.2 91.65 L19.6 91.8 18.35 91.9 18.0 91.85 18.0 91.8 Q16.7 89.8 17.3 87.5 L17.7 88.8 18.4 90.9 20.95 90.65 21.85 90.55 22.35 87.6 Q22.6 86.05 21.1 85.25 22.35 85.0 23.3 86.0 23.95 87.5 23.9 89.15 L23.7 90.5 Q23.55 91.2 22.95 91.7 22.35 92.2 22.55 92.95 L23.5 93.95 25.0 95.35 Q25.65 95.9 26.45 96.1 L27.55 96.1 28.05 96.0 28.3 95.9 29.1 93.95 Q29.4 92.4 29.15 90.75 28.85 89.15 27.75 89.85 L27.65 89.9 27.55 89.95 27.5 90.0 Q26.65 90.3 26.0 90.0 L25.75 89.85 Q25.35 89.05 25.3 88.3 25.15 87.7 25.3 87.05 L25.3 87.0 25.4 86.6 25.45 86.55 Q25.7 86.75 25.6 87.2 25.6 88.7 27.1 88.65 L28.85 88.0 29.1 87.9 Q29.75 87.45 29.55 86.4 29.0 85.55 28.85 84.5 L28.75 83.7 28.75 83.6 Q28.7 81.95 26.85 81.75 L27.05 81.35 Q27.15 81.2 27.5 81.35 L28.45 81.2 Q28.15 76.1 24.1 73.2 21.85 74.3 19.4 74.65 16.9 75.0 14.6 73.55 L10.45 73.15 9.65 73.3 Q8.6 73.6 7.8 74.4 M23.5 76.1 L23.45 75.95 23.55 76.1 23.5 76.1 M20.3 76.6 L20.25 76.6 20.25 76.55 20.3 76.6 M2.7 87.3 L4.75 86.8 Q5.45 86.25 6.3 86.05 7.2 85.8 7.3 84.85 L6.7 83.75 Q6.0 82.9 5.0 82.35 3.7 81.75 2.55 82.55 L2.6 87.35 2.7 87.3 M14.1 98.15 L14.05 98.1 Q13.35 97.3 12.5 97.65 11.3 99.3 12.3 101.05 L13.4 100.75 14.85 99.85 14.95 99.75 15.5 99.15 14.1 98.15 M10.4 76.75 Q12.15 77.9 13.05 80.0 L10.4 76.75 M24.6 100.45 L24.85 100.6 Q26.7 99.5 26.9 97.3 L25.85 97.2 23.9 96.7 23.7 97.55 Q24.25 98.25 24.15 99.3 24.05 100.05 24.6 100.45 M-5.3 13.3 L-5.75 13.3 Q-5.7 12.8 -5.3 12.95 L-5.3 13.3" fill="#000000" fill-rule="evenodd" stroke="none"/>
    <path d="M6.25 57.95 L5.85 56.8 5.35 55.65 4.4 53.6 Q4.3 50.15 5.5 46.95 L5.7 46.75 6.25 46.25 Q8.35 46.75 8.4 49.3 8.5 51.45 8.9 53.45 L8.9 53.5 Q8.65 53.8 8.55 54.25 L8.35 55.1 8.35 55.15 8.35 55.25 8.35 55.3 8.35 55.4 8.35 55.5 8.35 55.6 9.25 56.2 Q9.1 57.55 7.95 58.55 L6.25 57.95 M3.1 34.35 Q4.0 30.7 7.85 30.45 L9.45 30.6 9.85 30.75 9.95 31.0 10.15 31.45 Q9.25 33.15 7.25 34.15 6.8 34.35 6.5 34.8 5.95 37.45 3.6 35.7 2.9 35.25 3.1 34.35 M2.65 79.05 L2.95 78.6 3.85 78.0 4.0 77.95 Q6.05 77.2 7.1 75.3 L7.8 74.4 7.95 74.35 8.55 74.5 8.95 74.7 Q9.95 78.75 5.7 80.6 2.45 81.95 2.65 79.05 M-2.65 1.85 Q-3.9 4.85 -6.7 2.95 -8.1 2.05 -8.05 0.2 -7.95 -2.55 -5.6 -3.45 -2.55 -3.25 -2.35 0.05 -2.3 0.95 -2.65 1.85 M-5.85 1.05 L-6.0 1.35 Q-6.0 2.25 -5.1 2.25 -4.6 1.6 -4.7 1.0 -4.85 1.5 -5.45 1.8 L-5.85 1.05" fill="#99ffcc" fill-rule="evenodd" stroke="none"/>
    <path d="M12.95 61.45 Q14.65 61.4 16.3 62.65 18.75 63.5 20.8 62.1 L22.0 60.8 25.5 61.7 Q25.6 63.1 24.3 64.1 17.85 63.9 12.0 65.95 L12.5 65.8 12.95 65.35 Q14.25 64.2 13.9 62.65 13.75 61.85 12.95 61.55 L12.95 61.45 M14.85 69.55 L16.45 69.45 24.15 69.9 Q24.9 70.2 25.05 70.9 24.35 72.1 22.8 72.6 L17.3 72.75 Q17.4 72.0 17.1 71.05 16.7 70.05 16.1 69.45 L14.85 69.55 M18.7 65.15 Q21.55 64.8 24.5 65.05 L25.4 66.65 Q25.4 68.0 24.6 68.95 22.0 68.1 19.5 68.15 L19.5 68.05 Q19.7 66.75 19.0 65.55 L18.7 65.15 M15.75 68.5 L12.8 68.95 12.8 68.1 Q12.7 67.2 12.3 66.75 L13.95 66.15 14.0 66.45 14.3 67.45 15.05 68.5 15.15 68.55 15.75 68.5" fill="#003333" fill-rule="evenodd" stroke="none"/>
    <path d="M12.95 61.45 L12.95 61.55 12.6 61.45 12.95 61.45 M10.0 71.75 L9.8 71.85 9.95 71.65 10.0 71.75 M19.5 68.05 L19.5 68.15 19.5 68.05 M8.2 70.4 L7.8 70.05 7.85 69.65 8.1 70.2 8.2 70.4 M17.5 65.3 L18.7 65.15 17.5 65.3" fill="#663300" fill-rule="evenodd" stroke="none"/>
    <path d="M12.95 61.55 Q13.75 61.85 13.9 62.65 14.25 64.2 12.95 65.35 L12.5 65.8 12.0 65.95 9.2 67.05 8.75 67.25 Q7.05 65.95 6.65 64.0 8.85 62.7 11.35 61.75 L12.6 61.45 12.95 61.55 M14.85 69.55 L16.1 69.45 Q16.7 70.05 17.1 71.05 17.4 72.0 17.3 72.75 L16.25 72.2 Q13.15 71.0 10.0 71.75 L9.95 71.65 11.3 70.8 11.4 70.65 11.55 70.6 14.85 69.55 M18.7 65.15 L19.0 65.55 Q19.7 66.75 19.5 68.05 L19.5 68.15 17.7 68.25 15.75 68.5 15.15 68.55 15.05 68.5 14.3 67.45 14.0 66.45 13.95 66.15 17.5 65.3 18.7 65.15 M12.8 68.95 L11.05 69.2 9.35 70.25 9.3 70.3 9.2 70.35 8.75 70.5 8.25 70.4 8.2 70.4 8.1 70.2 7.85 69.65 Q7.95 68.6 8.9 68.2 L10.95 67.25 11.1 67.2 11.75 66.95 12.3 66.75 Q12.7 67.2 12.8 68.1 L12.8 68.95" fill="#606060" fill-rule="evenodd" stroke="none"/>
    <path d="M6.7 83.75 L5.65 83.7 4.85 83.9 Q2.95 84.9 2.65 86.9 L2.7 87.3 2.6 87.35 2.55 82.55 Q3.7 81.75 5.0 82.35 6.0 82.9 6.7 83.75 M13.4 100.75 L12.3 101.05 Q11.3 99.3 12.5 97.65 13.35 97.3 14.05 98.1 L14.1 98.15 Q13.6 98.55 13.35 99.3 L13.05 99.85 Q12.75 100.25 12.85 100.75 L12.9 100.9 13.4 100.75 M24.6 100.45 Q24.05 100.05 24.15 99.3 24.25 98.25 23.7 97.55 L23.9 96.7 25.85 97.2 25.05 98.95 Q24.75 99.7 24.6 100.45" fill="#cccc99" fill-rule="evenodd" stroke="none"/>
  </g>
</svg>
