<?xml version="1.0" encoding="UTF-8" standalone="no"?>
<svg xmlns:xlink="http://www.w3.org/1999/xlink" height="125.8px" width="37.0px" xmlns="http://www.w3.org/2000/svg">
  <g transform="matrix(1.0, 0.0, 0.0, 1.0, 8.95, 6.6)">
    <path d="M1.5 -2.65 Q-0.7 -1.75 -1.6 0.3 L-2.25 2.45 Q-2.9 6.85 -2.45 11.25 L-1.9 16.15 -1.3 20.5 Q-0.8 23.75 -2.55 26.35 L-2.6 26.45 Q-2.75 22.1 -4.0 18.1 -5.65 8.35 -4.4 -2.05 -3.95 -4.7 -1.45 -5.8 1.7 -5.6 3.55 -3.35 L2.35 -2.9 1.5 -2.65 M0.35 14.1 L0.45 13.15 -0.85 9.6 -1.05 3.85 -1.05 3.75 -1.05 3.45 -0.7 1.95 -0.65 1.9 Q0.0 0.35 1.85 -0.5 4.55 0.9 5.75 3.6 L5.8 3.8 6.65 6.15 6.7 6.45 6.9 6.95 7.0 7.2 7.2 8.1 Q7.4 9.25 7.2 10.5 L7.05 11.6 7.0 12.05 6.55 11.75 6.1 11.5 5.55 11.3 4.95 11.15 4.5 11.25 4.25 11.35 4.55 11.4 Q6.1 11.75 6.3 13.55 L6.55 15.75 Q7.05 20.25 5.7 24.5 L4.2 28.65 3.75 29.25 1.2 29.15 1.15 29.1 1.0 28.5 1.2 29.35 1.4 30.3 Q2.2 32.35 4.0 33.25 5.05 31.85 5.7 30.3 L6.0 30.85 Q6.3 31.65 6.1 32.5 L5.95 33.25 5.9 33.0 5.85 32.9 Q4.2 34.5 3.65 36.7 L1.65 40.85 Q0.7 42.95 -1.25 44.2 L-1.3 44.0 -1.6 42.3 -1.15 42.15 -0.05 41.4 0.1 41.25 0.2 41.1 0.25 41.05 0.45 40.8 0.5 40.7 0.55 40.55 0.65 40.4 0.7 40.2 0.75 40.15 0.8 40.05 2.2 36.6 Q3.45 34.55 2.1 33.0 L1.25 31.85 1.45 33.0 Q1.65 34.1 1.3 35.15 L0.8 37.25 0.55 38.3 Q0.2 39.1 -0.45 39.7 L-1.65 40.4 -2.55 40.35 -3.15 39.95 Q-3.6 38.55 -3.3 37.15 L-3.25 35.85 -2.85 34.05 -2.6 32.85 -2.55 32.8 -0.5 28.85 -0.3 28.25 -0.3 28.2 -0.25 28.05 -0.25 26.6 0.0 26.6 -0.2 24.45 0.25 15.05 0.3 15.0 0.35 14.1 M-0.3 6.65 L-0.25 7.2 Q1.15 7.85 1.7 6.25 2.65 5.55 3.0 4.35 L3.5 2.45 3.6 2.0 3.35 1.55 Q2.45 0.0 0.9 1.2 -0.4 3.65 -0.3 6.65 M-1.3 33.1 L-1.85 33.85 -2.3 34.75 -2.75 35.65 -2.85 35.9 -2.9 36.05 -2.95 36.2 Q-3.15 38.15 -1.3 38.05 L-0.75 37.45 Q-0.4 36.85 -0.5 36.15 L-0.05 35.6 Q1.15 33.95 -0.15 32.75 L-0.9 32.75 -1.3 33.1 M1.25 60.95 L1.35 61.05 3.15 61.15 3.25 61.15 4.15 60.95 4.6 60.9 4.15 62.2 2.95 62.15 1.4 62.05 1.1 63.3 0.75 64.35 0.75 64.45 Q0.05 66.1 -1.3 67.05 L-2.9 67.2 -3.7 66.7 -4.25 65.3 -4.3 65.0 -4.55 63.95 Q-4.85 62.05 -4.55 60.25 L-4.15 58.7 -4.1 58.55 Q-3.1 55.4 -2.85 52.05 L-2.7 51.4 -2.3 50.95 -2.0 50.7 Q-1.7 50.45 -1.3 50.35 L-1.3 50.65 -1.25 49.95 Q-0.75 45.25 3.3 43.05 L3.15 43.15 2.8 44.1 2.4 44.8 2.3 44.85 2.65 44.75 2.9 47.0 3.0 47.35 2.7 48.1 Q2.3 49.15 1.5 49.85 L0.9 50.25 -0.2 50.05 Q-0.3 51.9 1.55 51.6 L2.25 51.4 3.6 50.15 3.65 50.05 3.65 50.0 4.05 50.6 3.85 52.3 3.75 52.1 3.65 51.95 2.4 52.5 2.2 52.55 Q2.6 53.75 2.45 55.05 L2.35 56.55 2.35 57.45 2.3 57.45 3.65 57.4 4.25 57.25 4.65 57.05 4.75 57.05 4.75 56.95 4.75 56.7 4.75 56.3 Q5.45 56.4 5.3 57.35 L5.1 58.3 4.15 58.25 4.1 58.25 4.15 58.3 4.3 58.5 Q4.8 59.25 4.25 60.0 L4.15 60.25 Q3.4 60.7 2.6 60.8 L3.55 60.5 4.2 59.85 Q4.75 58.7 3.35 58.45 2.05 58.3 0.85 58.95 L0.6 59.0 Q0.1 59.1 -0.05 59.55 -0.5 60.85 1.0 60.95 L1.25 60.95 M-1.4 98.7 Q-1.05 99.3 -0.35 99.05 L-0.2 98.85 Q0.3 98.5 0.3 97.9 0.65 98.25 0.55 99.05 0.5 99.7 -0.05 100.1 L-0.2 100.15 -1.25 100.0 -1.45 99.6 -1.5 99.55 -1.45 98.85 -1.4 98.7 M-0.85 102.05 Q1.5 102.1 3.0 104.1 L3.25 104.5 3.5 104.8 4.05 104.4 Q5.5 103.4 7.0 102.9 L7.3 102.95 8.95 103.6 9.45 103.85 10.0 103.9 10.9 104.05 11.55 104.5 11.7 104.8 11.8 105.15 Q12.1 105.95 11.9 106.55 L11.3 107.35 Q11.0 107.55 10.65 107.7 9.15 108.35 7.75 108.0 L9.4 109.05 9.5 109.15 10.45 109.55 Q12.75 110.35 15.4 109.55 L15.4 109.1 14.4 107.35 14.95 108.15 15.6 108.35 16.7 109.35 16.75 109.95 16.15 110.25 15.2 110.6 11.55 110.85 6.95 108.75 7.55 109.1 8.85 110.55 Q10.1 111.9 10.8 113.55 L11.25 114.05 Q12.75 115.0 13.3 116.5 10.3 116.45 8.3 113.95 6.15 111.35 3.2 110.55 0.85 110.2 -1.25 109.2 -2.45 106.9 -1.35 104.45 -0.9 103.35 -0.85 102.3 L-0.85 102.05 M-1.0 105.6 Q-1.15 106.45 -0.75 107.15 -0.45 107.7 0.15 107.6 1.55 107.4 0.95 106.15 0.9 105.8 1.0 105.55 1.4 104.2 0.0 104.2 -0.8 104.65 -1.0 105.6 M4.05 2.85 Q4.55 3.8 4.5 4.85 L4.5 5.2 Q4.7 7.8 2.9 9.6 L2.2 10.0 0.65 10.05 0.25 9.95 1.2 11.95 3.35 10.75 Q4.75 10.2 6.3 10.2 6.25 6.95 4.9 4.2 L3.95 2.6 4.05 2.85 M4.3 15.3 Q4.25 14.4 3.75 13.95 3.45 13.7 3.0 13.6 L2.7 13.75 Q1.35 14.6 2.0 16.25 L1.85 17.1 1.75 17.45 1.65 18.0 1.5 18.75 Q1.2 20.55 2.2 21.95 L2.35 22.15 2.75 22.15 2.8 22.15 3.1 21.85 3.55 20.75 Q4.45 18.1 4.3 15.3 M1.0 20.05 L0.8 19.05 0.6 22.0 0.6 22.15 0.75 21.95 0.9 21.25 1.0 20.05 M0.25 29.65 L0.2 29.75 0.25 29.75 0.55 30.55 0.25 29.65 M2.05 46.05 L1.4 45.9 0.8 46.45 Q0.55 46.95 0.55 47.55 0.6 48.05 1.0 48.15 L1.35 48.25 1.45 48.3 1.95 48.35 1.95 48.3 2.3 48.0 Q2.8 47.1 2.35 46.7 L2.3 46.45 2.05 46.05 M3.8 67.75 L3.8 67.55 Q3.8 67.25 3.6 67.1 2.6 66.45 1.25 66.65 1.0 66.75 0.7 66.95 L0.45 67.2 0.45 67.05 Q0.65 66.4 1.1 66.15 L1.7 66.0 2.1 65.95 2.3 65.95 3.45 65.8 4.1 64.85 Q4.4 65.75 4.3 66.8 L3.7 66.75 3.6 66.75 Q3.9 67.25 3.8 67.75 M0.5 68.55 L0.65 68.65 1.45 68.95 1.55 69.2 2.15 69.55 2.2 69.55 2.4 69.6 2.9 69.55 3.85 69.4 3.85 70.35 3.9 71.7 Q4.0 72.45 3.55 72.95 L3.2 73.05 Q3.05 71.65 3.2 70.7 L3.2 70.55 1.95 70.6 1.5 70.6 Q0.7 69.75 0.5 68.55 M3.3 75.35 L3.7 75.5 Q4.05 75.8 3.95 76.55 L3.7 77.2 3.45 77.5 3.25 77.55 Q3.75 77.25 3.75 76.4 3.7 75.65 3.3 75.35 M1.95 77.65 L2.0 78.0 2.55 78.0 1.9 79.1 1.55 79.0 1.2 78.6 1.15 78.5 0.95 76.3 Q0.9 75.1 1.85 74.65 L1.95 74.65 2.4 74.55 2.75 74.4 2.8 74.35 2.85 75.1 2.4 75.05 2.15 75.15 Q1.1 75.8 1.4 77.05 1.5 77.55 1.95 77.65 M23.95 114.55 L24.25 114.65 25.3 115.05 25.3 115.1 24.95 115.75 23.9 116.35 22.95 116.45 23.1 116.65 23.65 117.05 22.35 117.05 Q21.0 114.75 18.3 115.0 L17.9 114.95 Q17.4 114.35 16.4 114.6 15.6 114.7 15.5 115.5 L15.5 115.55 15.6 115.9 Q16.35 116.7 17.3 116.55 L17.8 116.4 17.9 116.25 18.2 115.7 18.35 116.1 18.4 116.45 17.95 117.4 16.9 117.85 16.85 117.85 16.75 117.85 16.35 117.85 16.25 117.85 16.2 117.85 16.05 117.8 15.65 117.7 15.25 117.45 15.1 117.3 14.7 116.4 14.8 116.75 14.35 116.7 14.25 116.7 13.7 116.5 13.75 115.55 13.8 115.5 13.9 115.4 Q15.4 114.0 17.6 114.05 L21.45 114.55 21.9 114.7 21.5 113.85 22.95 114.35 Q22.45 114.5 22.5 115.0 L22.7 115.65 22.7 115.7 Q23.0 116.15 23.85 115.9 L24.05 115.6 Q24.3 114.85 23.95 114.55 M7.4 104.45 L7.15 104.6 6.65 104.85 Q6.4 105.0 6.3 105.35 L6.3 105.4 6.4 105.9 Q7.15 107.05 8.55 106.45 L8.75 106.35 9.2 105.7 9.25 105.4 9.25 105.3 Q9.3 104.25 8.0 104.3 L7.55 104.4 7.4 104.45" fill="#003333" fill-rule="evenodd" stroke="none"/>
    <path d="M1.5 -2.65 L2.35 -2.9 3.55 -3.35 Q1.7 -5.6 -1.45 -5.8 -3.95 -4.7 -4.4 -2.05 -5.65 8.35 -4.0 18.1 -2.75 22.1 -2.6 26.45 L-2.55 26.35 Q-0.8 23.75 -1.3 20.5 L-1.9 16.15 -2.45 11.25 Q-2.9 6.85 -2.25 2.45 L-1.6 0.3 Q-0.7 -1.75 1.5 -2.65 M-3.15 -5.75 Q-0.95 -7.1 1.8 -6.35 5.9 -3.7 7.5 0.65 9.35 6.1 8.15 11.8 9.4 16.3 9.05 21.15 8.65 26.0 6.95 30.25 8.85 37.8 3.9 43.55 4.75 46.5 4.5 49.6 5.9 52.1 5.8 55.3 L5.5 56.7 Q5.15 57.45 6.2 57.6 6.9 59.5 6.25 61.45 4.9 61.85 5.0 63.15 L4.95 65.45 Q5.45 65.95 6.0 65.8 L6.35 65.8 Q6.8 68.4 5.45 70.5 4.05 72.5 4.85 75.15 L5.0 77.6 Q5.0 78.95 3.55 79.3 2.8 83.75 2.3 88.85 1.85 93.9 3.85 98.05 5.8 99.2 7.4 101.05 9.05 102.85 11.45 102.95 13.55 104.1 14.8 106.15 19.85 108.65 23.05 113.55 L26.15 114.45 Q27.65 115.1 28.05 116.85 26.7 118.7 24.45 118.5 22.2 118.35 20.3 119.05 17.8 119.5 15.85 118.5 13.9 117.55 11.75 117.45 9.2 115.95 6.75 114.2 4.25 112.45 1.45 111.55 0.25 111.0 -1.0 110.75 -2.3 110.4 -2.85 108.95 -3.35 107.05 -2.85 105.25 L-1.9 101.75 Q-2.55 98.75 -1.45 95.9 -1.95 83.05 -3.35 70.45 L-5.8 65.05 Q-6.85 62.25 -5.7 59.05 -5.1 55.3 -4.0 51.8 -2.9 48.25 -2.4 44.5 -3.75 42.85 -4.45 41.05 -5.25 39.15 -4.45 37.1 -3.5 34.25 -3.8 31.05 -4.15 27.85 -4.0 24.6 -6.8 12.25 -5.85 -1.3 -5.35 -3.95 -3.15 -5.75 M0.45 40.8 L0.25 41.05 0.2 41.1 0.1 41.25 -0.05 41.4 -1.15 42.15 -1.6 42.3 -1.3 44.0 -1.25 44.2 Q0.7 42.95 1.65 40.85 L3.65 36.7 Q4.2 34.5 5.85 32.9 L5.9 33.0 5.95 33.25 6.1 32.5 Q6.3 31.65 6.0 30.85 L5.7 30.3 Q5.05 31.85 4.0 33.25 2.2 32.35 1.4 30.3 L1.2 29.35 1.0 28.5 1.15 29.1 1.2 29.15 3.75 29.25 4.2 28.65 5.7 24.5 Q7.05 20.25 6.55 15.75 L6.3 13.55 Q6.1 11.75 4.55 11.4 L4.25 11.35 4.5 11.25 4.95 11.15 5.55 11.3 6.1 11.5 6.55 11.75 7.0 12.05 7.05 11.6 7.2 10.5 Q7.4 9.25 7.2 8.1 L7.0 7.2 6.9 6.95 6.7 6.45 6.65 6.15 5.8 3.8 5.75 3.6 Q4.55 0.9 1.85 -0.5 0.0 0.35 -0.65 1.9 L-0.7 1.95 -1.05 3.45 -1.05 3.75 -1.05 3.85 -0.85 9.6 0.45 13.15 0.35 14.1 0.25 15.05 -0.2 24.45 0.0 26.6 -0.25 26.6 -0.25 28.05 -0.3 28.2 -0.5 28.85 -2.55 32.8 -2.6 32.85 -2.85 34.05 -3.25 35.85 -3.3 37.15 Q-3.6 38.55 -3.15 39.95 L-2.55 40.35 -1.65 40.4 -0.45 39.7 Q0.2 39.1 0.55 38.3 L0.8 37.25 1.3 35.15 Q1.65 34.1 1.45 33.0 L1.25 31.85 2.1 33.0 Q3.45 34.55 2.2 36.6 L0.8 40.05 0.75 40.15 0.7 40.2 0.65 40.4 0.55 40.55 0.45 40.8 M3.85 52.3 L4.05 50.6 3.65 50.0 3.65 50.05 3.6 50.15 2.25 51.4 1.55 51.6 Q-0.3 51.9 -0.2 50.05 L0.9 50.25 1.5 49.85 Q2.3 49.15 2.7 48.1 L3.0 47.35 2.9 47.0 2.65 44.75 2.3 44.85 2.4 44.8 2.8 44.1 3.15 43.15 3.3 43.05 Q-0.75 45.25 -1.25 49.95 L-1.3 50.65 -1.3 50.35 Q-1.7 50.45 -2.0 50.7 L-2.3 50.95 -2.7 51.4 -2.85 52.05 Q-3.1 55.4 -4.1 58.55 L-4.15 58.7 -4.55 60.25 Q-4.85 62.05 -4.55 63.95 L-4.3 65.0 -4.25 65.3 -3.7 66.7 -2.9 67.2 -1.3 67.05 Q0.05 66.1 0.75 64.45 L0.75 64.35 1.1 63.3 1.4 62.05 2.95 62.15 4.15 62.2 4.6 60.9 4.15 60.95 3.25 61.15 3.15 61.15 1.35 61.05 1.25 60.95 2.6 60.8 Q3.4 60.7 4.15 60.25 L4.25 60.0 Q4.8 59.25 4.3 58.5 L4.15 58.3 4.1 58.25 4.15 58.25 5.1 58.3 5.3 57.35 Q5.45 56.4 4.75 56.3 L4.75 56.7 4.75 56.95 4.75 57.05 4.65 57.05 4.25 57.25 3.65 57.4 2.3 57.45 2.35 57.45 2.35 56.55 2.45 55.05 Q2.6 53.75 2.2 52.55 L2.4 52.5 3.65 51.95 4.1 52.9 3.85 52.3 M-8.8 79.3 L-8.95 78.8 -8.75 78.85 Q-8.6 79.45 -8.85 80.0 L-8.8 79.3 M-0.35 97.05 L-0.3 96.25 Q-0.2 96.65 -0.4 97.05 L-0.7 97.05 -1.1 97.25 Q-1.85 97.75 -1.5 98.5 L-1.45 98.65 -1.4 98.7 -1.45 98.85 -1.5 99.55 -1.45 99.6 -1.25 100.0 -0.2 100.15 -0.05 100.1 Q0.5 99.7 0.55 99.05 0.65 98.25 0.3 97.9 L0.25 97.75 Q0.15 97.1 -0.35 97.05 M-0.85 102.05 L-0.85 102.3 Q-0.9 103.35 -1.35 104.45 -2.45 106.9 -1.25 109.2 0.85 110.2 3.2 110.55 6.15 111.35 8.3 113.95 10.3 116.45 13.3 116.5 12.75 115.0 11.25 114.05 L10.8 113.55 Q10.1 111.9 8.85 110.55 L7.55 109.1 6.95 108.75 11.55 110.85 15.2 110.6 16.15 110.25 16.75 109.95 16.7 109.35 15.6 108.35 14.95 108.15 14.4 107.35 15.4 109.1 15.4 109.55 Q12.75 110.35 10.45 109.55 L9.5 109.15 9.4 109.05 7.75 108.0 Q9.15 108.35 10.65 107.7 11.0 107.55 11.3 107.35 L11.9 106.55 Q12.1 105.95 11.8 105.15 L11.7 104.8 11.55 104.5 10.9 104.05 10.0 103.9 9.45 103.85 8.95 103.6 7.3 102.95 7.0 102.9 Q5.5 103.4 4.05 104.4 L3.5 104.8 3.25 104.5 3.0 104.1 Q1.5 102.1 -0.85 102.05 M4.05 2.85 L3.95 2.6 4.9 4.2 Q6.25 6.95 6.3 10.2 4.75 10.2 3.35 10.75 L1.2 11.95 0.25 9.95 0.65 10.05 2.2 10.0 2.9 9.6 Q4.7 7.8 4.5 5.2 L4.5 4.85 Q4.55 3.8 4.05 2.85 M0.25 29.65 L0.55 30.55 0.25 29.75 0.2 29.75 0.25 29.65 M1.0 20.05 L0.9 21.25 0.75 21.95 0.6 22.15 0.6 22.0 0.8 19.05 1.0 20.05 M0.45 67.2 L0.2 67.6 Q0.05 68.2 0.5 68.55 0.7 69.75 1.5 70.6 L1.95 70.6 3.2 70.55 3.2 70.7 Q3.05 71.65 3.2 73.05 L3.55 72.95 Q4.0 72.45 3.9 71.7 L3.85 70.35 3.85 69.4 2.9 69.55 2.4 69.6 2.2 69.55 2.15 69.55 1.55 69.2 1.45 68.95 2.65 68.9 Q3.7 68.65 3.8 67.75 3.9 67.25 3.6 66.75 L3.7 66.75 4.3 66.8 Q4.4 65.75 4.1 64.85 L3.45 65.8 2.3 65.95 2.1 65.95 1.7 66.0 1.1 66.15 Q0.65 66.4 0.45 67.05 L0.45 67.2 M3.3 75.35 L2.85 75.1 2.8 74.35 2.75 74.4 2.4 74.55 1.95 74.65 1.85 74.65 Q0.9 75.1 0.95 76.3 L1.15 78.5 1.2 78.6 1.55 79.0 1.9 79.1 2.55 78.0 2.0 78.0 1.95 77.65 2.15 77.7 3.25 77.55 3.45 77.5 3.7 77.2 3.95 76.55 Q4.05 75.8 3.7 75.5 L3.3 75.35 M23.95 114.55 L23.25 114.25 23.0 114.3 22.95 114.35 21.5 113.85 21.9 114.7 21.45 114.55 17.6 114.05 Q15.4 114.0 13.9 115.4 L13.8 115.5 13.75 115.55 13.7 116.5 14.25 116.7 14.35 116.7 14.8 116.75 14.7 116.4 15.1 117.3 15.25 117.45 15.65 117.7 16.05 117.8 16.2 117.85 16.25 117.85 16.35 117.85 16.75 117.85 16.85 117.85 16.9 117.85 17.95 117.4 18.4 116.45 18.35 116.1 18.2 115.7 18.05 115.25 17.9 114.95 18.3 115.0 Q21.0 114.75 22.35 117.05 L23.65 117.05 23.1 116.65 22.95 116.45 23.9 116.35 24.95 115.75 25.3 115.1 25.3 115.05 24.25 114.65 23.95 114.55" fill="#000000" fill-rule="evenodd" stroke="none"/>
    <path d="M-0.3 6.65 Q-0.4 3.65 0.9 1.2 2.45 0.0 3.35 1.55 L3.6 2.0 3.5 2.45 3.0 4.35 Q2.65 5.55 1.7 6.25 1.15 7.85 -0.25 7.2 L-0.3 6.65 M-1.3 33.1 L-0.9 32.75 -0.15 32.75 Q1.15 33.95 -0.05 35.6 L-0.5 36.15 Q-0.4 36.85 -0.75 37.45 L-1.3 38.05 Q-3.15 38.15 -2.95 36.2 L-2.9 36.05 -2.85 35.9 -2.75 35.65 -2.3 34.75 -1.85 33.85 -1.3 33.1 M-0.4 97.05 L-0.35 97.05 Q0.15 97.1 0.25 97.75 L0.3 97.9 Q0.3 98.5 -0.2 98.85 L-0.35 99.05 Q-1.05 99.3 -1.4 98.7 L-1.45 98.65 -1.5 98.5 Q-1.85 97.75 -1.1 97.25 L-0.7 97.05 -0.4 97.05 M-1.0 105.6 Q-0.8 104.65 0.0 104.2 1.4 104.2 1.0 105.55 0.9 105.8 0.95 106.15 1.55 107.4 0.15 107.6 -0.45 107.7 -0.75 107.15 -1.15 106.45 -1.0 105.6 M4.3 15.3 Q4.45 18.1 3.55 20.75 L3.1 21.85 2.8 22.15 2.75 22.15 2.35 22.15 2.2 21.95 Q1.2 20.55 1.5 18.75 L1.65 18.0 1.75 17.45 1.85 17.1 2.0 16.25 Q1.35 14.6 2.7 13.75 L3.0 13.6 Q3.45 13.7 3.75 13.95 4.25 14.4 4.3 15.3 M2.05 46.05 L2.3 46.45 2.35 46.7 Q2.8 47.1 2.3 48.0 L1.95 48.3 1.95 48.35 1.45 48.3 1.35 48.25 1.0 48.15 Q0.6 48.05 0.55 47.55 0.55 46.95 0.8 46.45 L1.4 45.9 2.05 46.05 M22.95 114.35 L23.0 114.3 23.25 114.25 23.95 114.55 Q24.3 114.85 24.05 115.6 L23.85 115.9 Q23.0 116.15 22.7 115.7 L22.7 115.65 22.5 115.0 Q22.45 114.5 22.95 114.35 M17.9 114.95 L18.05 115.25 18.2 115.7 17.9 116.25 17.8 116.4 17.3 116.55 Q16.35 116.7 15.6 115.9 L15.5 115.55 15.5 115.5 Q15.6 114.7 16.4 114.6 17.4 114.35 17.9 114.95 M7.4 104.45 L7.55 104.4 8.0 104.3 Q9.3 104.25 9.25 105.3 L9.25 105.4 9.2 105.7 8.75 106.35 8.55 106.45 Q7.15 107.05 6.4 105.9 L6.3 105.4 6.3 105.35 Q6.4 105.0 6.65 104.85 L7.15 104.6 7.4 104.45" fill="#606060" fill-rule="evenodd" stroke="none"/>
    <path d="M2.6 60.8 L1.25 60.95 1.0 60.95 Q-0.5 60.85 -0.05 59.55 0.1 59.1 0.6 59.0 L0.85 58.95 Q2.05 58.3 3.35 58.45 4.75 58.7 4.2 59.85 L3.55 60.5 2.6 60.8 M0.45 67.2 L0.7 66.95 Q1.0 66.75 1.25 66.65 2.6 66.45 3.6 67.1 3.8 67.25 3.8 67.55 L3.8 67.75 Q3.7 68.65 2.65 68.9 L1.45 68.95 0.65 68.65 0.5 68.55 Q0.05 68.2 0.2 67.6 L0.45 67.2 M2.85 75.1 L3.3 75.35 Q3.7 75.65 3.75 76.4 3.75 77.25 3.25 77.55 L2.15 77.7 1.95 77.65 Q1.5 77.55 1.4 77.05 1.1 75.8 2.15 75.15 L2.4 75.05 2.85 75.1" fill="#999999" fill-rule="evenodd" stroke="none"/>
  </g>
</svg>
