<?xml version="1.0" encoding="UTF-8" standalone="no"?>
<svg xmlns:xlink="http://www.w3.org/1999/xlink" height="92.05px" width="24.05px" xmlns="http://www.w3.org/2000/svg">
  <g transform="matrix(1.0, 0.0, 0.0, 1.0, 17.75, 5.2)">
    <path d="M-0.65 -2.35 L-1.35 -1.0 -1.95 1.8 -2.05 2.7 -3.2 3.9 -3.4 4.1 -5.1 6.15 -5.15 6.2 -5.15 6.25 -7.35 9.75 -7.45 9.95 -7.5 10.1 -7.75 10.55 -8.15 11.6 -7.55 11.65 -6.6 11.55 -6.25 11.45 Q-4.75 10.9 -4.3 8.9 -2.7 7.6 -2.4 5.75 L-2.95 5.15 -2.1 5.95 Q-0.8 6.9 0.25 5.8 3.35 2.6 2.7 -2.0 L2.2 -3.45 1.65 -4.0 1.35 -3.85 1.15 -3.75 1.05 -3.7 0.95 -3.65 0.5 -3.4 -0.65 -2.35 M-2.0 -2.35 Q-0.95 -4.25 1.15 -4.9 2.7 -5.6 4.2 -4.7 6.0 -2.4 5.6 0.45 5.2 3.3 4.0 5.75 2.45 8.75 0.2 11.2 0.15 17.7 -1.35 23.7 -2.9 29.7 -7.0 34.4 -7.4 37.15 -5.55 39.05 -5.05 40.6 -5.7 42.0 -6.4 43.35 -5.35 44.75 -5.55 48.25 -7.05 51.2 -5.8 55.2 -7.35 59.0 -8.9 62.75 -6.75 66.6 L-4.45 71.25 -1.35 72.05 Q0.2 72.4 0.9 74.0 1.15 74.7 1.85 74.65 L3.2 74.85 Q5.2 75.8 5.6 77.65 L6.3 81.3 Q5.75 82.65 5.6 84.4 5.4 86.15 3.55 86.05 L1.25 85.9 Q0.05 85.7 -0.75 86.85 -2.3 86.9 -3.2 85.3 -4.15 83.65 -5.55 85.65 -6.7 85.8 -7.35 84.9 L-8.55 83.15 -9.35 78.9 Q-9.75 76.75 -9.1 74.55 -14.65 69.1 -13.75 61.35 -15.75 58.35 -14.65 54.65 -16.9 52.9 -17.6 50.2 -18.35 46.2 -15.65 43.45 -16.85 41.15 -16.0 38.7 -15.3 36.65 -13.55 35.15 -11.75 33.6 -11.55 31.4 -11.6 25.9 -9.25 21.15 -10.35 17.9 -10.4 14.3 -10.4 10.7 -8.2 7.95 L-5.45 4.9 Q-4.0 3.4 -3.3 1.6 -3.05 -0.5 -2.0 -2.35 M-8.7 23.25 Q-9.45 25.2 -9.75 27.25 L-9.2 27.45 -8.7 27.55 -7.65 27.3 Q-5.45 25.85 -4.35 23.3 L-2.0 17.5 -1.9 17.3 -1.1 12.0 -0.95 11.25 Q-1.25 10.5 -2.25 10.35 -1.65 10.1 -1.0 11.05 L-0.75 11.0 -0.7 10.95 -0.5 10.7 -0.35 10.5 0.3 9.55 0.45 9.25 0.3 9.45 0.1 9.7 -0.4 9.45 -0.55 9.4 -2.1 9.35 -2.75 9.6 -2.8 9.6 -2.85 9.7 -3.15 10.0 Q-4.85 11.9 -5.85 14.15 L-7.45 17.4 -8.25 19.0 -8.1 20.2 -8.05 20.3 -7.9 20.65 -7.75 20.9 -8.15 21.9 -8.45 22.6 -8.45 22.65 -8.7 23.25 M-2.6 10.6 L-2.95 11.0 -2.45 10.45 -2.6 10.6 M-8.6 35.85 L-8.6 35.75 -8.5 35.15 -8.2 35.6 -8.2 35.5 -8.1 35.35 -7.95 35.15 -7.95 35.0 -7.5 33.5 -7.6 33.6 -8.0 33.7 Q-9.25 33.85 -9.85 32.5 L-9.9 32.25 -10.3 33.75 -10.4 33.8 -10.8 34.25 -11.25 34.7 -11.7 35.15 -12.15 35.55 -12.4 35.75 -12.45 35.8 -12.9 36.15 -13.85 36.9 -15.0 39.5 -15.1 39.85 -15.15 40.4 -14.25 40.55 Q-12.0 40.8 -10.3 39.8 L-9.55 39.25 -8.45 38.8 -8.25 38.65 -8.05 38.45 -7.75 38.7 -7.9 38.1 -8.3 36.75 -8.4 37.0 -8.65 37.55 Q-9.0 38.1 -9.65 38.2 -10.7 38.1 -10.9 37.1 L-10.95 36.7 -9.35 36.65 -9.3 36.65 Q-8.8 36.4 -8.6 35.85 M-16.6 47.7 L-16.45 49.2 -15.75 49.55 -15.0 49.65 -14.4 49.6 -13.05 49.3 Q-10.55 48.45 -9.25 45.75 L-9.1 44.9 Q-9.25 43.7 -9.75 42.9 L-10.2 42.45 Q-8.7 42.65 -7.4 43.3 L-7.05 44.0 -7.0 43.9 -6.95 43.85 -6.8 43.1 -6.7 42.6 -6.65 42.3 Q-10.15 41.0 -13.7 41.95 L-14.7 42.25 -14.75 42.15 -14.7 42.45 -14.5 43.45 -14.4 43.55 -14.95 44.0 -16.05 45.15 -16.25 45.4 -16.3 45.7 -16.6 47.65 -16.6 47.7 M-14.15 55.35 L-14.3 55.75 -14.3 55.85 -14.25 56.15 -14.25 56.35 -14.25 56.4 -13.9 58.0 -13.75 58.05 -12.65 58.2 -12.0 58.0 Q-8.95 56.6 -8.95 53.1 L-9.05 52.15 Q-9.2 51.4 -9.65 51.0 L-9.45 50.9 Q-8.85 50.85 -8.5 51.15 L-8.2 51.5 -8.1 51.3 -8.05 51.3 Q-7.55 50.85 -7.4 50.2 L-7.35 49.95 -7.4 50.1 -7.55 50.05 -8.4 50.05 Q-10.05 50.05 -11.5 50.8 -13.0 51.55 -14.2 53.15 L-14.25 53.1 -13.85 53.75 Q-14.2 54.35 -14.0 55.0 L-14.15 55.35 M-9.4 61.3 L-8.95 61.95 -8.95 62.0 -8.9 61.85 -8.7 61.2 -8.65 60.85 -8.55 60.55 -8.45 60.2 -8.4 59.75 -8.5 60.15 -8.55 60.35 Q-9.75 59.55 -11.0 59.55 L-11.15 59.55 -11.25 59.55 -11.35 59.55 -11.45 59.55 -11.55 59.6 -11.65 59.6 -12.1 59.7 -12.25 59.75 -12.45 59.8 -12.85 59.95 -13.05 60.7 -13.05 60.95 -12.95 61.2 -13.05 61.35 Q-13.25 65.7 -11.4 69.55 L-10.65 70.55 -10.5 70.55 -10.15 70.95 Q-9.05 71.75 -8.4 70.65 -8.15 70.25 -8.15 69.75 -8.1 68.75 -8.6 67.8 L-9.85 65.05 -10.15 63.35 -10.3 62.3 -10.45 61.8 -10.8 61.1 -11.1 60.85 -11.7 60.5 -11.5 60.45 -10.0 60.85 -9.4 61.3 M0.3 77.3 L0.15 75.45 0.1 75.25 -0.4 74.3 -0.1 74.5 -0.4 74.25 -0.45 74.2 -0.6 74.15 -0.9 74.0 -1.25 73.9 -1.35 73.9 -1.7 73.85 -3.9 73.3 -4.25 72.7 -4.95 71.4 -5.35 70.9 Q-5.0 72.65 -6.85 73.3 L-8.2 73.35 -8.25 73.7 -8.25 74.25 -8.2 74.6 -8.1 74.8 -8.2 75.3 -8.25 75.65 -8.45 76.05 -8.55 76.7 -8.4 78.7 -8.35 78.85 -8.25 79.65 -8.15 79.75 -7.65 79.9 -7.45 79.75 -7.0 79.2 -7.0 78.65 -7.2 76.45 -5.85 81.05 -7.15 81.6 -7.85 81.5 -7.75 81.65 -7.7 81.85 -7.65 82.05 -7.45 82.7 -7.45 82.95 -7.15 83.4 -7.0 83.4 -6.55 83.7 Q-6.05 83.95 -5.8 83.55 -5.2 82.55 -6.1 82.15 L-5.75 82.2 Q-5.0 82.35 -4.85 83.2 -4.8 83.75 -5.05 84.2 L-5.0 84.3 -5.3 84.6 -4.25 83.7 -4.0 83.5 -3.65 83.25 -4.0 82.6 -3.95 82.6 -3.65 82.85 -3.25 82.9 -2.8 82.75 Q-2.45 82.5 -2.4 82.1 -2.2 80.65 -2.35 79.25 L-2.45 78.6 -2.5 78.35 -2.1 79.2 -0.8 82.9 -0.35 84.55 -0.25 85.0 -0.4 85.2 1.2 85.05 1.0 84.8 0.95 84.7 0.85 84.35 0.9 84.35 1.8 84.45 Q2.8 84.35 3.45 83.7 L3.8 83.2 3.85 83.05 Q4.1 82.4 3.85 82.0 L4.6 82.8 4.85 83.5 4.9 83.5 5.25 83.0 5.4 81.85 5.4 81.35 5.3 81.0 5.2 81.6 4.95 81.4 Q4.4 81.0 3.65 80.7 L3.55 80.65 3.45 80.65 2.95 80.25 2.95 80.2 Q3.55 80.3 3.9 79.85 L3.9 79.8 4.1 79.45 4.25 79.05 4.25 79.0 4.55 79.25 4.85 79.65 5.0 79.85 5.05 79.75 5.05 79.3 5.1 79.2 5.1 79.15 Q5.4 78.6 5.05 78.05 L4.8 77.8 4.8 78.1 4.8 77.65 3.4 76.4 2.2 76.35 1.85 76.2 0.8 76.05 0.95 76.3 1.05 76.6 1.6 78.25 1.6 78.3 1.6 78.4 1.6 78.5 1.75 79.15 1.8 80.5 1.0 81.1 0.45 81.55 -0.1 82.0 -1.1 79.95 -1.05 79.9 Q-0.3 79.5 0.05 78.75 L0.45 78.3 Q0.75 77.55 0.3 77.3" fill="#000000" fill-rule="evenodd" stroke="none"/>
    <path d="M-1.95 1.8 L-1.35 -1.0 -0.65 -2.35 0.5 -2.5 0.55 -2.5 1.55 -2.0 Q2.05 -1.45 1.6 -0.25 0.9 1.5 -0.8 2.1 L-1.1 2.15 Q-1.65 2.3 -1.95 1.8 M-6.25 11.45 L-6.6 11.55 -7.55 11.65 -8.15 11.6 -7.75 10.55 -7.5 10.1 -7.45 9.95 -7.35 9.75 -5.15 6.25 -5.15 6.2 Q-4.8 6.35 -4.55 6.6 -3.95 7.25 -4.4 8.5 -5.05 10.2 -6.25 11.45 M-7.75 20.9 L-4.7 13.55 -4.15 12.75 Q-2.85 12.95 -3.0 14.35 L-3.05 14.65 Q-3.45 16.75 -4.4 18.6 L-5.9 21.05 Q-6.7 22.15 -7.8 22.9 L-8.5 23.3 -8.7 23.25 -8.45 22.65 -8.45 22.6 -8.15 21.9 -7.75 20.9 M-8.6 35.85 Q-8.8 36.4 -9.3 36.65 L-9.35 36.65 -10.95 36.7 -10.95 36.6 -10.95 36.5 -10.95 36.45 -10.9 35.95 -10.8 35.6 -10.45 35.2 -10.2 35.0 Q-9.0 35.1 -8.6 35.85 M-15.1 39.85 L-15.0 39.5 -13.85 36.9 -12.9 36.15 -12.65 36.15 -12.15 36.35 -12.15 36.6 -11.8 37.7 -11.75 37.9 -11.65 38.0 -11.85 38.6 -11.95 38.85 Q-12.75 40.85 -14.7 40.15 L-15.1 39.85 M-16.6 47.7 L-16.6 47.65 -16.3 45.7 -16.25 45.4 -16.05 45.15 -14.95 44.0 -13.9 43.25 Q-12.05 43.45 -12.45 45.45 -12.85 47.8 -14.75 48.3 L-15.85 48.4 -16.45 47.95 -16.6 47.7 M-13.85 53.75 L-13.25 52.9 -12.55 52.65 -12.45 52.65 -11.95 52.75 Q-11.5 52.85 -11.4 53.25 L-11.45 53.9 -11.55 54.05 Q-11.65 55.55 -12.95 56.05 L-13.05 56.05 Q-13.5 56.2 -13.7 55.8 L-13.95 55.25 -14.0 55.0 Q-14.2 54.35 -13.85 53.75 M-10.45 61.8 L-10.65 62.55 Q-11.0 63.25 -10.9 64.1 -10.85 64.5 -11.15 64.8 -12.05 65.6 -12.55 64.6 -13.35 63.0 -12.6 61.6 L-12.3 61.1 Q-12.0 60.65 -11.45 60.7 L-11.1 60.85 -10.8 61.1 -10.45 61.8 M0.3 77.3 Q0.75 77.55 0.45 78.3 L0.05 78.75 -0.2 78.8 -1.7 78.65 -2.6 77.8 -2.85 77.25 Q-3.2 76.55 -2.95 76.0 L-2.4 75.35 -2.25 75.3 -1.55 75.9 -1.3 76.3 -0.6 77.05 -0.25 77.15 0.3 77.3 M1.75 79.15 L1.6 78.5 1.6 78.4 Q1.65 77.8 2.05 77.45 L2.2 77.4 2.55 77.3 Q3.1 77.3 3.3 77.85 L3.35 77.9 Q4.3 78.3 4.25 79.0 L4.25 79.05 4.1 79.45 3.9 79.8 3.9 79.85 Q3.55 80.3 2.95 80.2 L2.85 80.15 Q2.0 79.9 1.75 79.15 M-7.0 83.4 L-7.15 83.4 -7.45 82.95 -7.45 82.7 -7.0 82.1 -6.75 82.05 -6.4 82.2 -6.4 82.7 -6.45 82.75 Q-6.25 83.35 -6.95 83.4 L-7.0 83.4 M-8.35 78.85 L-8.4 78.7 -8.55 76.7 -8.45 76.05 -8.25 75.65 -8.05 75.55 -7.9 75.55 Q-7.25 75.65 -7.45 76.3 L-7.5 76.65 -7.5 77.35 -7.4 78.2 -7.35 78.7 -7.5 79.15 -7.7 79.2 Q-8.15 79.25 -8.35 78.85 M-5.65 77.0 L-5.45 77.05 -5.4 77.1 -5.3 77.15 -5.2 77.45 -5.2 77.65 -5.15 77.7 -4.7 78.65 -4.7 78.8 Q-3.8 80.25 -3.4 81.8 L-3.4 82.05 -3.55 82.2 -4.05 82.4 -4.1 82.4 Q-4.55 82.4 -4.85 81.85 L-5.95 79.4 Q-6.3 78.3 -5.9 77.35 L-5.85 77.15 -5.65 77.0 M1.25 81.55 L1.8 81.65 Q2.65 81.85 2.8 82.75 L2.85 83.05 Q2.85 83.65 2.45 84.05 L0.9 83.9 0.85 83.85 0.75 83.75 Q-0.1 82.7 0.9 81.75 1.1 81.6 1.25 81.55" fill="#606060" fill-rule="evenodd" stroke="none"/>
    <path d="M-1.95 1.8 Q-1.65 2.3 -1.1 2.15 L-0.8 2.1 Q0.9 1.5 1.6 -0.25 2.05 -1.45 1.55 -2.0 L0.55 -2.5 0.5 -2.5 -0.65 -2.35 0.5 -3.4 0.95 -3.65 1.05 -3.7 1.15 -3.75 1.35 -3.85 1.65 -4.0 2.2 -3.45 2.7 -2.0 Q3.35 2.6 0.25 5.8 -0.8 6.9 -2.1 5.95 L-2.95 5.15 -2.4 5.75 Q-2.7 7.6 -4.3 8.9 -4.75 10.9 -6.25 11.45 -5.05 10.2 -4.4 8.5 -3.95 7.25 -4.55 6.6 -4.8 6.35 -5.15 6.2 L-5.1 6.15 -3.4 4.1 -3.2 3.9 -2.05 2.7 -1.95 1.8 M-7.75 20.9 L-7.9 20.65 -8.05 20.3 -8.1 20.2 -8.25 19.0 -7.45 17.4 -5.85 14.15 Q-4.85 11.9 -3.15 10.0 L-2.85 9.7 -2.8 9.6 -2.75 9.6 -2.1 9.35 -0.55 9.4 -0.4 9.45 0.1 9.7 0.3 9.45 0.45 9.25 0.3 9.55 -0.35 10.5 -0.5 10.7 -0.7 10.95 -0.75 11.0 -1.0 11.05 Q-1.65 10.1 -2.25 10.35 -1.25 10.5 -0.95 11.25 L-1.1 12.0 -1.9 17.3 -2.0 17.5 -4.35 23.3 Q-5.45 25.85 -7.65 27.3 L-8.7 27.55 -9.2 27.45 -9.75 27.25 Q-9.45 25.2 -8.7 23.25 L-8.5 23.3 -7.8 22.9 Q-6.7 22.15 -5.9 21.05 L-4.4 18.6 Q-3.45 16.75 -3.05 14.65 L-3.0 14.35 Q-2.85 12.95 -4.15 12.75 L-4.7 13.55 -7.75 20.9 M-2.6 10.6 L-2.45 10.45 -2.95 11.0 -2.6 10.6 M-12.9 36.15 L-12.45 35.8 -12.4 35.75 -12.15 35.55 -11.7 35.15 -11.25 34.7 -10.8 34.25 -10.4 33.8 -10.3 33.75 -9.9 32.25 -9.85 32.5 Q-9.25 33.85 -8.0 33.7 L-7.6 33.6 -7.5 33.5 -7.95 35.0 -7.95 35.15 -8.1 35.35 -8.2 35.5 -8.2 35.6 -8.5 35.15 -8.6 35.75 -8.6 35.85 Q-9.0 35.1 -10.2 35.0 L-10.45 35.2 -10.8 35.6 -10.9 35.95 -10.95 36.45 -10.95 36.5 -10.95 36.6 -10.95 36.7 -10.9 37.1 Q-10.7 38.1 -9.65 38.2 -9.0 38.1 -8.65 37.55 L-8.4 37.0 -8.3 36.75 -7.9 38.1 -7.75 38.7 -8.05 38.45 -8.25 38.65 -8.45 38.8 -9.55 39.25 -10.3 39.8 Q-12.0 40.8 -14.25 40.55 L-15.15 40.4 -15.1 39.85 -14.7 40.15 Q-12.75 40.85 -11.95 38.85 L-11.85 38.6 -11.65 38.0 -11.75 37.9 -11.8 37.7 -12.15 36.6 -12.15 36.35 -12.65 36.15 -12.9 36.15 M-14.4 43.55 L-14.5 43.45 -14.7 42.45 -14.75 42.15 -14.7 42.25 -13.7 41.95 Q-10.15 41.0 -6.65 42.3 L-6.7 42.6 -6.8 43.1 -6.95 43.85 -7.0 43.9 -7.05 44.0 -7.4 43.3 Q-8.7 42.65 -10.2 42.45 L-9.75 42.9 Q-9.25 43.7 -9.1 44.9 L-9.25 45.75 Q-10.55 48.45 -13.05 49.3 L-14.4 49.6 -15.0 49.65 -15.75 49.55 -16.45 49.2 -16.6 47.7 -16.45 47.95 -15.85 48.4 -14.75 48.3 Q-12.85 47.8 -12.45 45.45 -12.05 43.45 -13.9 43.25 L-14.4 43.55 M-13.85 53.75 L-14.25 53.1 -14.2 53.15 Q-13.0 51.55 -11.5 50.8 -10.05 50.05 -8.4 50.05 L-7.55 50.05 -7.4 50.1 -7.35 49.95 -7.4 50.2 Q-7.55 50.85 -8.05 51.3 L-8.1 51.3 -8.2 51.5 -8.5 51.15 Q-8.85 50.85 -9.45 50.9 L-9.65 51.0 Q-9.2 51.4 -9.05 52.15 L-8.95 53.1 Q-8.95 56.6 -12.0 58.0 L-12.65 58.2 -13.75 58.05 -13.9 58.0 -14.25 56.4 -14.25 56.35 -14.25 56.15 -14.3 55.85 -14.3 55.75 -14.15 55.35 -14.0 55.0 -13.95 55.25 -13.7 55.8 Q-13.5 56.2 -13.05 56.05 L-12.95 56.05 Q-11.65 55.55 -11.55 54.05 L-11.45 53.9 -11.4 53.25 Q-11.5 52.85 -11.95 52.75 L-12.45 52.65 -12.55 52.65 -13.25 52.9 -13.85 53.75 M-10.45 61.8 L-10.3 62.3 -10.15 63.35 -9.85 65.05 -8.6 67.8 Q-8.1 68.75 -8.15 69.75 -8.15 70.25 -8.4 70.65 -9.05 71.75 -10.15 70.95 L-10.5 70.55 -10.65 70.55 -11.4 69.55 Q-13.25 65.7 -13.05 61.35 L-12.95 61.2 -13.05 60.95 -13.05 60.7 -12.85 59.95 -12.45 59.8 -12.25 59.75 -12.1 59.7 -11.65 59.6 -11.55 59.6 -11.45 59.55 -11.35 59.55 -11.25 59.55 -11.15 59.55 -11.0 59.55 Q-9.75 59.55 -8.55 60.35 L-8.5 60.15 -8.4 59.75 -8.45 60.2 -8.55 60.55 -8.65 60.85 -8.7 61.2 -8.9 61.85 -8.95 62.0 -8.95 61.95 -9.4 61.3 -10.0 60.85 -11.5 60.45 -11.7 60.5 -11.1 60.85 -11.45 60.7 Q-12.0 60.65 -12.3 61.1 L-12.6 61.6 Q-13.35 63.0 -12.55 64.6 -12.05 65.6 -11.15 64.8 -10.85 64.5 -10.9 64.1 -11.0 63.25 -10.65 62.55 L-10.45 61.8 M-8.25 75.65 L-8.2 75.3 -8.1 74.8 -8.2 74.6 -8.25 74.25 -8.25 73.7 -8.2 73.35 -6.85 73.3 Q-5.0 72.65 -5.35 70.9 L-4.95 71.4 -4.25 72.7 -3.9 73.3 -1.7 73.85 -1.35 73.9 -1.25 73.9 -0.9 74.0 -0.6 74.15 -0.45 74.2 -0.4 74.25 -0.1 74.5 -0.4 74.3 0.1 75.25 0.15 75.45 0.3 77.3 -0.25 77.15 -0.6 77.05 -1.3 76.3 -1.55 75.9 -2.25 75.3 -2.4 75.35 -2.95 76.0 Q-3.2 76.55 -2.85 77.25 L-2.6 77.8 -1.7 78.65 -0.2 78.8 0.05 78.75 Q-0.3 79.5 -1.05 79.9 L-1.1 79.95 -0.1 82.0 0.45 81.55 1.0 81.1 1.8 80.5 1.75 79.15 Q2.0 79.9 2.85 80.15 L2.95 80.2 2.95 80.25 3.45 80.65 3.55 80.65 3.65 80.7 Q4.4 81.0 4.95 81.4 L5.2 81.6 5.3 81.0 5.4 81.35 5.4 81.85 5.25 83.0 4.9 83.5 4.85 83.5 4.6 82.8 3.85 82.0 Q4.1 82.4 3.85 83.05 L3.8 83.2 3.45 83.7 Q2.8 84.35 1.8 84.45 L0.9 84.35 0.85 84.35 0.95 84.7 1.0 84.8 1.2 85.05 -0.4 85.2 -0.25 85.0 -0.35 84.55 -0.45 84.05 -0.55 83.75 -0.8 82.9 -2.1 79.2 -2.5 78.35 -2.45 78.6 -2.35 79.25 Q-2.2 80.65 -2.4 82.1 -2.45 82.5 -2.8 82.75 L-3.25 82.9 -3.65 82.85 -3.95 82.6 -4.0 82.6 -3.65 83.25 -4.0 83.5 -4.25 83.7 -5.3 84.6 -5.0 84.3 -5.05 84.2 Q-4.8 83.75 -4.85 83.2 -5.0 82.35 -5.75 82.2 L-6.1 82.15 Q-5.2 82.55 -5.8 83.55 -6.05 83.95 -6.55 83.7 L-7.0 83.4 -6.95 83.4 Q-6.25 83.35 -6.45 82.75 L-6.4 82.7 -6.4 82.2 -6.75 82.05 -7.0 82.1 -7.45 82.7 -7.65 82.05 -7.7 81.85 -7.75 81.65 -7.85 81.5 -7.15 81.6 -5.85 81.05 -7.2 76.45 -7.0 78.65 -7.0 79.2 -7.45 79.75 -7.65 79.9 -8.15 79.75 -8.25 79.65 -8.35 78.85 Q-8.15 79.25 -7.7 79.2 L-7.5 79.15 -7.35 78.7 -7.4 78.2 -7.5 77.35 -7.5 76.65 -7.45 76.3 Q-7.25 75.65 -7.9 75.55 L-8.05 75.55 -8.25 75.65 M1.6 78.4 L1.6 78.3 1.6 78.25 1.05 76.6 0.95 76.3 0.8 76.05 1.85 76.2 2.2 76.35 3.4 76.4 4.8 77.65 4.8 78.1 4.8 77.8 5.05 78.05 Q5.4 78.6 5.1 79.15 L5.1 79.2 5.05 79.3 5.05 79.75 5.0 79.85 4.85 79.65 4.55 79.25 4.25 79.0 Q4.3 78.3 3.35 77.9 L3.3 77.85 Q3.1 77.3 2.55 77.3 L2.2 77.4 2.05 77.45 Q1.65 77.8 1.6 78.4 M-5.65 77.0 L-5.85 77.15 -5.9 77.35 Q-6.3 78.3 -5.95 79.4 L-4.85 81.85 Q-4.55 82.4 -4.1 82.4 L-4.05 82.4 -3.55 82.2 -3.4 82.05 -3.4 81.8 Q-3.8 80.25 -4.7 78.8 L-4.7 78.65 -5.15 77.7 -5.2 77.65 -5.2 77.45 -5.3 77.15 -5.4 77.1 -5.45 77.05 -5.65 77.0 M-1.7 78.65 L-1.25 79.6 -1.7 78.65 M1.25 81.55 Q1.1 81.6 0.9 81.75 -0.1 82.7 0.75 83.75 L0.85 83.85 0.9 83.9 2.45 84.05 Q2.85 83.65 2.85 83.05 L2.8 82.75 Q2.65 81.85 1.8 81.65 L1.25 81.55" fill="#003333" fill-rule="evenodd" stroke="none"/>
  </g>
</svg>
