<?xml version="1.0" encoding="UTF-8" standalone="no"?>
<svg xmlns:xlink="http://www.w3.org/1999/xlink" height="124.25px" width="19.35px" xmlns="http://www.w3.org/2000/svg">
  <g transform="matrix(1.0, 0.0, 0.0, 1.0, 4.85, 6.25)">
    <path d="M-1.25 -1.25 L-1.65 -1.95 -2.35 -3.05 -2.5 -3.3 Q-2.65 -4.35 -1.6 -4.6 L-0.9 -4.6 1.0 -4.05 1.4 -3.35 1.95 -2.2 2.15 -1.6 2.8 -0.15 3.2 1.45 3.0 3.05 3.05 3.8 4.3 8.0 4.6 8.95 5.0 10.15 5.0 10.2 Q6.15 13.0 5.6 15.9 5.3 17.7 4.05 19.0 L4.0 19.05 3.35 19.15 3.25 16.65 3.25 16.6 3.25 16.2 3.25 15.6 3.25 15.25 Q3.55 15.6 4.2 15.7 L4.4 15.7 4.55 15.6 4.7 15.5 4.85 14.95 Q4.7 14.15 4.9 13.35 5.15 12.2 4.5 11.55 L4.05 11.2 Q3.85 11.2 3.7 11.4 L3.55 11.6 3.1 12.5 Q2.5 6.5 0.05 1.3 L0.75 1.3 1.25 0.85 1.25 0.45 Q0.6 -0.8 0.55 -2.2 L0.7 -2.45 0.9 -3.0 0.85 -3.15 Q0.7 -3.5 0.3 -3.55 L-0.1 -3.45 -0.8 -2.85 -1.25 -1.25 M5.1 6.55 L4.8 5.7 4.65 5.25 4.55 4.1 4.75 3.25 5.0 3.55 5.05 3.65 6.05 5.05 7.35 7.2 7.8 7.9 7.8 7.95 7.65 8.95 7.35 9.45 7.1 9.55 7.15 9.1 7.05 7.5 Q6.8 6.3 5.95 5.6 L5.75 5.4 Q5.0 5.7 5.1 6.55 M6.95 29.1 L6.9 28.95 6.9 28.9 6.75 27.8 6.9 27.9 Q8.1 26.25 9.9 25.8 L9.95 25.4 10.0 25.75 9.9 27.35 9.6 27.25 9.45 27.25 8.65 27.35 9.3 27.4 Q10.1 27.6 10.15 28.7 10.15 30.35 8.5 30.9 7.5 31.2 7.0 30.45 L6.9 30.2 6.95 29.85 7.0 29.6 7.15 29.9 7.5 30.3 8.15 30.3 8.75 29.8 Q9.7 28.65 9.0 27.55 L8.95 27.55 8.6 27.55 8.25 27.6 Q7.75 27.7 7.4 28.1 7.0 28.6 6.95 29.1 M8.5 18.15 L8.8 18.95 8.9 19.2 8.9 19.3 8.8 19.2 8.65 19.15 7.15 19.2 6.8 19.45 6.05 19.9 6.4 19.7 6.75 19.6 6.8 19.6 Q8.35 19.55 8.6 21.1 8.8 22.55 8.3 23.85 L7.9 24.95 7.15 25.9 Q5.7 26.3 5.0 25.0 L4.7 24.75 4.8 22.55 4.9 21.8 4.9 21.9 4.8 21.8 4.45 21.65 4.3 21.55 4.05 21.5 3.85 21.45 Q4.1 20.85 4.45 20.4 L5.35 19.35 Q6.55 18.2 8.3 17.75 L8.5 18.15 M6.6 20.15 L6.15 20.5 5.8 20.75 Q4.65 21.6 4.95 22.55 L5.3 23.25 5.85 23.25 6.2 22.9 6.35 22.45 6.9 21.75 Q8.05 20.5 6.6 20.15 M8.15 34.15 L8.2 34.0 8.3 33.85 8.2 33.7 7.8 33.0 7.65 33.0 8.2 32.8 Q9.3 32.1 10.5 32.5 L10.55 32.4 10.6 32.1 Q10.8 32.5 10.6 32.95 L10.55 33.1 10.4 33.55 10.25 33.85 10.2 33.75 9.7 33.6 9.9 33.9 9.95 34.1 10.0 34.15 Q10.8 35.35 10.8 36.8 10.85 37.9 9.95 38.65 8.75 39.7 8.15 41.1 7.75 42.0 6.85 42.35 L6.1 42.35 5.4 41.9 5.25 41.75 5.15 41.75 5.25 41.45 5.6 40.25 6.6 37.4 Q7.3 35.7 8.15 34.15 M6.35 38.9 L6.25 39.55 Q5.8 40.9 7.1 41.2 L7.65 40.95 8.6 37.6 9.2 36.85 Q10.1 35.55 8.8 35.0 6.55 36.15 6.35 38.9 M5.75 43.95 L6.1 44.6 7.1 45.9 7.15 46.0 Q7.9 43.35 9.4 40.95 10.85 40.25 11.75 41.4 L12.85 42.5 13.5 42.9 13.55 42.75 13.55 42.65 13.6 42.4 13.5 43.0 13.35 43.45 13.3 43.55 12.4 46.0 12.2 46.5 12.05 44.6 Q12.0 42.4 9.85 41.8 8.55 43.0 9.55 43.95 10.5 44.85 11.0 46.0 11.55 48.35 10.7 50.45 11.5 50.85 11.75 51.95 12.2 53.65 11.85 55.4 L11.45 57.35 Q11.15 58.9 10.3 60.25 L9.95 60.5 Q8.45 60.85 7.7 59.75 L7.65 59.7 7.55 59.45 7.3 58.9 7.2 58.7 7.05 58.35 6.75 57.6 6.6 57.5 Q5.75 55.5 6.45 53.15 L6.4 53.05 Q6.35 52.75 6.55 52.65 L6.5 51.75 6.55 51.6 6.6 51.65 6.8 51.75 7.55 51.9 7.65 52.0 7.7 51.9 8.2 51.8 8.4 51.75 Q10.85 50.25 10.35 47.05 L9.6 45.15 Q8.65 44.7 8.45 45.3 8.9 45.55 9.05 46.35 9.4 48.6 7.4 49.6 L6.35 49.8 5.55 49.6 5.0 49.3 5.1 49.55 5.2 49.7 5.25 49.8 5.55 50.35 5.6 50.4 5.7 50.7 5.0 50.2 4.55 49.5 Q3.95 48.05 4.4 46.6 4.55 46.2 4.9 46.05 L4.95 46.05 4.95 46.0 5.0 45.85 5.05 45.75 5.1 45.5 5.15 45.45 5.2 45.4 5.25 45.5 5.25 44.85 5.25 42.8 5.45 43.25 5.75 43.95 M9.35 52.25 Q9.1 51.95 8.6 51.9 L8.15 51.85 7.7 52.25 7.1 52.85 Q6.6 53.6 6.5 54.55 6.3 56.15 7.65 56.65 8.5 56.95 8.8 56.15 L9.25 54.5 9.5 53.45 Q9.7 52.6 9.35 52.25 M5.8 46.0 L5.5 46.1 Q4.9 46.4 4.65 47.15 L4.55 47.45 Q4.35 48.3 4.8 48.8 L5.3 49.15 Q6.4 49.7 6.65 48.55 L6.95 47.7 7.1 47.5 7.15 47.2 Q7.4 46.2 6.2 45.85 L5.8 46.0 M8.4 65.7 L8.45 64.55 8.4 64.15 8.45 63.65 8.35 63.4 Q8.25 63.15 8.5 62.95 L8.75 62.85 8.8 62.85 10.8 62.65 10.95 62.7 11.4 62.75 11.65 62.8 11.8 62.8 11.8 62.75 11.85 62.75 11.85 62.65 11.85 62.6 11.85 62.9 11.7 63.35 11.55 63.55 11.25 64.05 10.95 63.8 10.85 63.75 10.55 63.65 10.4 63.6 10.2 63.6 9.95 63.6 9.9 63.6 9.75 63.65 9.6 63.7 9.55 63.7 9.4 63.8 9.3 63.85 Q9.9 64.15 10.0 65.05 L10.0 65.15 10.05 66.55 Q9.9 69.55 8.5 72.2 L7.45 74.15 7.2 74.25 6.6 74.4 6.4 74.65 6.0 75.1 Q4.95 75.6 4.5 74.9 L4.6 74.7 4.65 74.6 5.5 73.4 5.35 73.8 5.3 73.85 5.2 73.95 5.25 74.05 5.25 74.1 5.6 74.1 5.9 74.1 6.2 73.8 6.6 73.5 7.3 72.35 8.0 70.7 Q8.8 68.65 9.0 66.5 L9.05 66.4 Q9.2 65.4 8.9 64.55 L8.85 64.55 8.8 64.5 8.65 64.6 8.5 65.25 8.4 65.7" fill="#003333" fill-rule="evenodd" stroke="none"/>
    <path d="M-1.25 -1.25 L-0.8 -2.85 -0.1 -3.45 0.3 -3.55 Q0.7 -3.5 0.85 -3.15 L0.9 -3.0 0.7 -2.45 0.55 -2.2 Q0.6 -0.8 1.25 0.45 L1.25 0.85 0.75 1.3 0.05 1.3 Q-1.3 0.15 -1.25 -1.25 M3.1 12.5 L3.55 11.6 3.7 11.4 Q3.85 11.2 4.05 11.2 L4.5 11.55 Q5.15 12.2 4.9 13.35 4.7 14.15 4.85 14.95 L4.7 15.5 4.55 15.6 4.4 15.7 4.2 15.7 Q3.55 15.6 3.25 15.25 2.75 14.7 2.85 13.7 L3.05 12.65 3.1 12.5 M7.1 9.55 L7.05 9.7 7.0 9.8 6.85 9.9 6.4 9.9 Q5.85 9.45 5.6 8.85 L5.3 7.65 5.3 7.55 5.15 6.85 5.1 6.55 Q5.0 5.7 5.75 5.4 L5.95 5.6 Q6.8 6.3 7.05 7.5 L7.15 9.1 7.1 9.55 M6.95 29.1 Q7.0 28.6 7.4 28.1 7.75 27.7 8.25 27.6 L8.6 27.55 8.95 27.55 9.0 27.55 Q9.7 28.65 8.75 29.8 L8.15 30.3 7.5 30.3 7.15 29.9 7.0 29.6 Q6.9 29.35 6.95 29.1 M6.6 20.15 Q8.05 20.5 6.9 21.75 L6.35 22.45 6.2 22.9 5.85 23.25 5.3 23.25 4.95 22.55 Q4.65 21.6 5.8 20.75 L6.15 20.5 6.6 20.15 M6.35 38.9 Q6.55 36.15 8.8 35.0 10.1 35.55 9.2 36.85 L8.6 37.6 7.65 40.95 7.1 41.2 Q5.8 40.9 6.25 39.55 L6.35 38.9 M9.35 52.25 Q9.7 52.6 9.5 53.45 L9.25 54.5 8.8 56.15 Q8.5 56.95 7.65 56.65 6.3 56.15 6.5 54.55 6.6 53.6 7.1 52.85 L7.7 52.25 8.15 51.85 8.6 51.9 Q9.1 51.95 9.35 52.25 M5.8 46.0 L6.2 45.85 Q7.4 46.2 7.15 47.2 L7.1 47.5 6.95 47.7 6.65 48.55 Q6.4 49.7 5.3 49.15 L4.8 48.8 Q4.35 48.3 4.55 47.45 L4.65 47.15 Q4.9 46.4 5.5 46.1 L5.8 46.0 M8.4 65.7 L8.5 65.25 8.65 64.6 8.8 64.5 8.85 64.55 8.9 64.55 Q9.2 65.4 9.05 66.4 L9.0 66.5 Q8.8 68.65 8.0 70.7 L7.3 72.35 6.6 73.5 6.2 73.8 5.9 74.1 5.6 74.1 5.25 74.1 5.25 74.05 5.2 73.95 5.3 73.85 5.35 73.8 5.5 73.4 Q5.85 71.95 6.65 70.6 L7.35 69.1 8.4 65.7" fill="#606060" fill-rule="evenodd" stroke="none"/>
    <path d="M3.25 15.25 L3.25 15.6 3.25 16.2 3.25 16.6 3.25 16.65 3.35 19.15 4.0 19.05 4.05 19.0 Q5.3 17.7 5.6 15.9 6.15 13.0 5.0 10.2 L5.0 10.15 4.6 8.95 4.3 8.0 3.05 3.8 3.0 3.05 3.2 1.45 2.8 -0.15 2.15 -1.6 1.95 -2.2 1.4 -3.35 1.0 -4.05 -0.9 -4.6 -1.6 -4.6 Q-2.65 -4.35 -2.5 -3.3 L-2.35 -3.05 -1.65 -1.95 -1.25 -1.25 Q-1.3 0.15 0.05 1.3 2.5 6.5 3.1 12.5 L3.05 12.65 2.85 13.7 Q2.75 14.7 3.25 15.25 M3.4 -3.6 Q4.6 -1.8 4.65 0.5 4.7 2.75 6.65 4.15 8.85 6.1 9.45 8.8 9.95 11.45 9.9 14.35 8.65 16.0 9.6 17.6 10.55 19.1 10.85 20.75 11.25 22.4 10.85 24.25 10.4 26.05 11.8 27.25 12.65 30.3 11.05 33.05 13.55 35.95 14.5 39.55 13.8 45.15 14.05 50.9 14.25 56.65 13.0 62.35 11.65 67.5 10.6 73.1 10.2 75.1 10.2 77.1 L10.1 77.25 Q9.5 77.55 9.45 78.25 L9.5 78.85 9.95 81.75 10.4 84.65 11.1 87.5 11.3 87.95 Q11.25 89.45 12.05 90.6 12.8 92.25 12.2 93.85 L12.1 93.95 12.15 94.0 11.95 94.35 Q11.85 94.65 11.9 94.95 L12.45 98.2 12.85 100.6 12.75 101.15 12.55 102.95 12.2 105.75 11.25 107.8 9.35 111.95 Q8.5 114.05 6.7 115.75 8.55 111.85 10.1 106.9 11.55 102.05 8.55 99.2 L8.5 99.25 8.4 99.35 8.75 102.6 Q9.35 103.35 8.9 104.5 L8.4 105.35 Q7.7 108.45 5.7 111.55 3.65 115.35 0.4 118.0 3.05 113.5 4.9 108.3 L5.55 105.35 5.25 104.6 Q5.05 103.45 5.2 102.3 5.25 102.0 5.5 101.85 5.15 99.8 4.2 97.8 L3.9 98.1 3.85 101.45 Q4.45 101.8 4.35 102.65 4.15 104.05 3.25 105.1 L3.2 105.15 Q1.65 110.9 -2.95 116.1 L-3.3 116.1 Q-1.3 112.2 0.15 108.0 1.55 103.7 0.6 99.1 1.2 97.1 0.55 95.15 -0.15 93.2 0.7 91.1 L0.55 90.95 Q-0.3 91.35 -1.05 91.95 L-1.1 92.0 -1.75 93.8 -2.1 94.6 -2.55 95.55 -3.15 96.25 -3.15 96.35 Q-3.1 100.05 -2.25 103.2 L-2.55 103.2 Q-4.6 100.55 -4.8 96.95 -4.95 94.4 -4.35 92.1 L-4.65 91.55 -4.55 91.4 Q-3.65 90.4 -3.55 89.1 L-3.65 87.9 -3.15 86.25 Q-2.45 84.8 -2.5 83.1 L-1.6 81.9 -0.65 80.75 1.3 78.55 1.6 78.05 1.85 77.85 2.0 77.4 1.7 76.5 3.3 74.55 Q6.5 70.75 7.2 65.85 7.95 63.65 7.05 61.6 L5.1 57.55 5.55 52.3 3.8 49.85 Q2.95 48.5 3.55 46.85 4.85 44.5 4.1 41.8 4.75 37.5 6.9 33.85 5.85 32.0 5.95 29.65 2.75 26.9 3.45 22.85 2.1 20.95 2.15 18.5 2.15 16.0 1.8 13.75 1.45 9.4 -0.15 5.65 -1.85 1.8 -3.7 -1.9 -4.25 -4.2 -2.4 -5.3 -0.9 -6.7 0.95 -6.05 2.75 -5.5 3.4 -3.6 M7.1 9.55 L7.35 9.45 7.65 8.95 7.8 7.95 7.8 7.9 7.35 7.2 6.05 5.05 5.05 3.65 5.0 3.55 4.75 3.25 4.55 4.1 4.65 5.25 4.8 5.7 5.1 6.55 5.15 6.85 5.3 7.55 5.3 7.65 5.6 8.85 Q5.85 9.45 6.4 9.9 L6.85 9.9 7.0 9.8 7.05 9.7 7.1 9.55 M-3.6 95.85 L-3.15 95.25 -2.8 94.45 -2.65 94.0 -2.0 91.95 -1.85 91.65 -1.8 91.55 -0.15 90.35 0.1 90.1 0.65 89.5 0.9 89.9 1.25 89.8 Q1.15 90.4 1.45 90.95 L1.4 91.0 1.2 91.6 1.1 93.55 1.15 94.0 1.7 96.95 1.7 97.0 Q1.05 98.5 1.65 100.4 2.2 102.3 2.05 104.15 L1.95 104.65 1.25 106.85 2.1 105.1 2.7 102.95 2.8 101.95 Q2.95 99.2 3.35 96.75 L3.55 96.0 4.0 95.4 4.5 94.95 4.75 95.8 Q5.5 98.6 5.65 101.75 L5.65 104.0 5.7 105.55 Q5.7 108.8 4.7 111.85 6.8 109.1 7.55 105.95 L7.8 104.45 8.0 102.35 7.95 99.35 Q7.6 99.2 7.6 98.9 L7.55 98.35 Q7.45 97.7 8.05 97.7 L8.3 97.25 8.45 96.85 8.75 96.45 8.9 96.05 Q9.05 95.55 9.15 96.05 L9.25 96.6 9.1 98.15 9.05 98.25 10.1 99.6 10.2 99.9 10.85 100.7 Q11.45 102.7 11.3 104.9 L11.7 103.9 11.95 103.15 Q12.3 101.45 12.0 99.9 L11.9 99.4 12.2 98.3 12.2 98.2 11.6 95.9 11.3 95.3 11.25 94.9 11.25 94.85 11.15 94.45 11.15 94.35 11.05 93.9 11.4 93.55 11.45 93.5 11.55 93.2 Q11.6 91.6 10.75 90.35 L10.5 90.05 Q10.45 88.0 10.05 86.05 L9.6 83.0 Q9.45 81.3 8.95 79.7 8.6 78.7 7.85 78.0 7.3 77.4 6.5 77.25 L4.7 76.9 Q3.15 77.1 2.0 78.65 L0.3 81.3 -1.3 84.6 -2.35 87.7 -3.25 90.25 -4.0 92.35 -4.55 95.2 Q-4.55 95.8 -4.0 95.95 L-4.0 96.1 -3.95 95.95 -3.6 95.85 M8.5 18.15 L8.3 17.75 Q6.55 18.2 5.35 19.35 L4.45 20.4 Q4.1 20.85 3.85 21.45 L4.05 21.5 4.3 21.55 4.45 21.65 4.8 21.8 4.9 21.9 4.9 21.8 4.8 22.55 4.7 24.75 5.0 25.0 Q5.7 26.3 7.15 25.9 L7.9 24.95 8.3 23.85 Q8.8 22.55 8.6 21.1 8.35 19.55 6.8 19.6 L6.75 19.6 6.4 19.7 6.05 19.9 6.8 19.45 7.15 19.2 8.65 19.15 8.8 19.2 8.9 19.3 8.9 19.2 8.8 18.95 8.5 18.15 M7.0 29.6 L6.95 29.85 6.9 30.2 7.0 30.45 Q7.5 31.2 8.5 30.9 10.15 30.35 10.15 28.7 10.1 27.6 9.3 27.4 L8.65 27.35 9.45 27.25 9.6 27.25 9.9 27.35 10.0 25.75 9.95 25.4 9.9 25.8 Q8.1 26.25 6.9 27.9 L6.75 27.8 6.9 28.9 6.9 28.95 6.95 29.1 Q6.9 29.35 7.0 29.6 M8.15 34.15 Q7.3 35.7 6.6 37.4 L5.6 40.25 5.25 41.45 5.15 41.75 5.25 41.75 5.4 41.9 6.1 42.35 6.85 42.35 Q7.75 42.0 8.15 41.1 8.75 39.7 9.95 38.65 10.85 37.9 10.8 36.8 10.8 35.35 10.0 34.15 L9.95 34.1 9.9 33.9 9.7 33.6 10.2 33.75 10.25 33.85 10.4 33.55 10.55 33.1 10.6 32.95 Q10.8 32.5 10.6 32.1 L10.55 32.4 10.5 32.5 Q9.3 32.1 8.2 32.8 L7.65 33.0 7.8 33.0 8.2 33.7 8.3 33.85 8.2 34.0 8.15 34.15 M4.9 46.05 Q4.55 46.2 4.4 46.6 3.95 48.05 4.55 49.5 L5.0 50.2 5.7 50.7 5.6 50.4 5.55 50.35 5.25 49.8 5.2 49.7 5.1 49.55 5.0 49.3 5.55 49.6 6.35 49.8 7.4 49.6 Q9.4 48.6 9.05 46.35 8.9 45.55 8.45 45.3 8.65 44.7 9.6 45.15 L10.35 47.05 Q10.85 50.25 8.4 51.75 L8.2 51.8 7.7 51.9 7.65 52.0 7.55 51.9 6.8 51.75 6.6 51.65 6.55 51.6 6.5 51.75 6.55 52.65 Q6.35 52.75 6.4 53.05 L6.45 53.15 Q5.75 55.5 6.6 57.5 L6.75 57.6 7.05 58.35 7.2 58.7 7.3 58.9 7.55 59.45 7.65 59.7 7.7 59.75 Q8.45 60.85 9.95 60.5 L10.3 60.25 Q11.15 58.9 11.45 57.35 L11.85 55.4 Q12.2 53.65 11.75 51.95 11.5 50.85 10.7 50.45 11.55 48.35 11.0 46.0 10.5 44.85 9.55 43.95 8.55 43.0 9.85 41.8 12.0 42.4 12.05 44.6 L12.2 46.5 12.4 46.0 13.3 43.55 13.35 43.45 13.5 43.0 13.6 42.4 13.55 42.65 13.55 42.75 13.5 42.9 12.85 42.5 11.75 41.4 Q10.85 40.25 9.4 40.95 7.9 43.35 7.15 46.0 L7.1 45.9 6.1 44.6 5.75 43.95 5.3 42.9 5.45 43.25 5.25 42.8 5.25 44.85 5.25 45.5 5.2 45.4 5.15 45.45 5.1 45.5 4.9 46.05 M5.5 73.4 L4.65 74.6 4.6 74.7 4.5 74.9 Q4.95 75.6 6.0 75.1 L6.4 74.65 6.6 74.4 7.2 74.25 7.45 74.15 8.5 72.2 Q9.9 69.55 10.05 66.55 L10.0 65.15 10.0 65.05 Q9.9 64.15 9.3 63.85 L9.4 63.8 9.55 63.7 9.6 63.7 9.75 63.65 9.9 63.6 9.95 63.6 10.2 63.6 10.4 63.6 10.55 63.65 10.85 63.75 10.95 63.8 11.25 64.05 11.55 63.55 11.7 63.35 11.85 62.9 11.85 62.6 11.85 62.65 11.85 62.75 11.8 62.75 11.8 62.8 11.65 62.8 11.4 62.75 10.95 62.7 10.8 62.65 8.8 62.85 8.75 62.85 8.5 62.95 Q8.25 63.15 8.35 63.4 L8.45 63.65 8.4 64.15 8.45 64.55 8.4 65.7 7.35 69.1 6.65 70.6 Q5.85 71.95 5.5 73.4" fill="#000000" fill-rule="evenodd" stroke="none"/>
    <path d="M-3.6 95.85 L-3.95 95.95 -4.0 95.95 Q-4.55 95.8 -4.55 95.2 L-4.0 92.35 -3.25 90.25 -2.35 87.7 -1.3 84.6 0.3 81.3 2.0 78.65 Q3.15 77.1 4.7 76.9 L4.7 77.4 4.55 78.4 Q4.05 80.05 2.85 81.35 L2.25 82.05 Q0.45 82.1 0.0 83.6 L-0.3 85.9 -0.15 88.55 -1.4 90.5 -2.35 92.05 -3.6 95.85 M11.55 93.2 L11.45 93.5 11.4 93.55 11.05 93.9 11.15 94.35 11.15 94.45 11.05 94.65 11.05 94.75 10.8 95.15 10.35 95.15 10.35 94.1 Q10.3 93.55 9.6 93.55 L9.5 93.65 9.5 93.7 9.5 93.35 Q9.7 92.3 10.65 91.8 L10.75 91.8 11.55 93.2 M8.75 96.45 L8.45 96.85 8.3 97.25 8.2 97.2 6.6 97.1 6.25 96.6 5.8 95.4 5.85 95.2 6.05 95.25 Q6.95 95.35 8.05 94.8 L8.5 94.55 Q8.0 95.45 8.55 96.3 L8.75 96.45 M2.15 93.0 Q4.3 93.55 5.5 91.9 L5.65 91.65 5.65 91.7 5.9 92.55 5.9 92.75 5.85 93.1 Q5.85 93.85 5.1 94.35 4.15 95.0 3.3 94.55 2.4 93.95 2.15 93.0 M8.05 88.45 Q7.55 88.5 7.5 87.8 L7.45 86.75 7.45 85.25 Q7.4 83.6 6.75 82.2 L7.0 81.7 7.95 82.25 8.2 82.95 Q8.8 84.75 8.6 86.65 L8.5 87.15 8.55 87.3 Q8.75 88.15 8.05 88.45 M4.15 87.65 Q3.6 86.55 3.75 85.25 4.0 83.4 4.55 81.6 4.85 80.6 5.35 81.55 5.7 81.9 5.65 82.55 5.6 84.5 4.7 85.9 L4.95 86.75 4.5 87.45 4.15 87.65" fill="#99cc99" fill-rule="evenodd" stroke="none"/>
    <path d="M3.55 96.0 L3.35 96.75 Q2.95 99.2 2.8 101.95 L2.7 102.95 2.1 105.1 1.25 106.85 1.95 104.65 2.05 104.15 Q2.2 102.3 1.65 100.4 1.05 98.5 1.7 97.0 L1.7 96.95 1.15 94.0 1.1 93.55 1.2 91.6 1.4 91.0 1.45 90.95 Q1.15 90.4 1.25 89.8 L0.9 89.9 0.65 89.5 0.1 90.1 -0.15 90.35 -1.8 91.55 -1.85 91.65 -2.0 91.95 -2.65 94.0 -2.8 94.45 -3.15 95.25 -3.6 95.85 -2.35 92.05 -1.4 90.5 -0.15 88.55 -0.3 85.9 0.0 83.6 Q0.45 82.1 2.25 82.05 L2.85 81.35 Q4.05 80.05 4.55 78.4 L7.75 79.65 7.9 79.9 8.6 81.55 8.4 81.5 8.15 81.75 7.95 82.0 7.9 82.2 7.95 82.25 7.0 81.7 6.75 82.2 Q7.4 83.6 7.45 85.25 L7.45 86.75 7.5 87.8 Q7.55 88.5 8.05 88.45 8.1 89.15 8.7 88.95 L9.4 88.75 Q9.5 90.35 10.55 91.55 L10.75 91.8 10.65 91.8 Q9.7 92.3 9.5 93.35 L9.5 93.7 9.45 93.75 9.35 93.65 9.15 93.55 8.5 94.55 8.05 94.8 Q6.95 95.35 6.05 95.25 6.8 95.1 7.15 94.25 L7.3 93.05 Q7.25 92.6 7.0 92.45 L6.75 91.9 Q6.35 91.4 5.75 91.35 L5.65 91.4 5.6 91.4 Q5.4 91.55 5.45 91.8 L5.5 91.9 Q4.3 93.55 2.15 93.0 L2.1 92.55 Q1.65 93.75 2.35 94.95 L2.95 95.6 3.55 96.0 M12.2 98.2 L12.2 98.3 11.9 99.4 12.0 99.9 Q12.3 101.45 11.95 103.15 L11.7 103.9 11.3 104.9 Q11.45 102.7 10.85 100.7 L10.2 99.9 10.1 99.6 9.05 98.25 9.1 98.15 12.2 98.2 M7.6 98.9 Q7.6 99.2 7.95 99.35 L8.0 102.35 7.8 104.45 7.55 105.95 Q6.8 109.1 4.7 111.85 5.7 108.8 5.7 105.55 L5.65 104.0 5.65 101.75 Q5.5 98.6 4.75 95.8 L5.8 95.4 6.25 96.6 6.6 97.1 6.15 96.8 5.95 96.8 5.55 97.75 5.8 98.35 6.2 98.65 7.6 98.9 M5.35 81.55 Q4.85 80.6 4.55 81.6 4.0 83.4 3.75 85.25 3.6 86.55 4.15 87.65 L4.15 88.25 Q4.25 88.85 4.8 88.9 L5.05 88.75 Q5.5 88.0 5.5 87.05 L5.8 86.55 6.05 85.7 6.5 84.35 6.55 83.0 Q6.7 81.55 5.45 81.5 L5.35 81.55 M5.9 92.75 L5.9 92.55 5.95 92.6 6.0 92.5 5.9 92.75" fill="#999933" fill-rule="evenodd" stroke="none"/>
    <path d="M-3.95 95.95 L-4.0 96.1 -4.0 95.95 -3.95 95.95" fill="#ffffff" fill-rule="evenodd" stroke="none"/>
    <path d="M4.7 76.9 L6.5 77.25 Q7.3 77.4 7.85 78.0 8.6 78.7 8.95 79.7 9.45 81.3 9.6 83.0 L10.05 86.05 Q10.45 88.0 10.5 90.05 L10.75 90.35 Q11.6 91.6 11.55 93.2 L10.75 91.8 10.55 91.55 Q9.5 90.35 9.4 88.75 L8.7 88.95 Q8.1 89.15 8.05 88.45 8.75 88.15 8.55 87.3 L8.5 87.15 8.6 86.65 Q8.8 84.75 8.2 82.95 L7.95 82.25 7.9 82.2 7.95 82.0 8.15 81.75 8.4 81.5 8.6 81.55 7.9 79.9 7.75 79.65 4.55 78.4 4.7 77.4 4.7 76.9 M11.15 94.45 L11.25 94.85 11.25 94.9 11.3 95.3 11.6 95.9 12.2 98.2 9.1 98.15 9.25 96.6 9.15 96.05 Q9.05 95.55 8.9 96.05 L8.75 96.45 8.55 96.3 Q8.0 95.45 8.5 94.55 L9.15 93.55 9.35 93.65 9.45 93.75 9.5 93.7 9.5 93.65 9.6 93.55 Q10.3 93.55 10.35 94.1 L10.35 95.15 10.8 95.15 11.05 94.75 11.05 94.65 11.15 94.45 M8.3 97.25 L8.05 97.7 Q7.45 97.7 7.55 98.35 L7.6 98.9 6.2 98.65 5.8 98.35 5.55 97.75 5.95 96.8 6.15 96.8 6.6 97.1 8.2 97.2 8.3 97.25 M4.75 95.8 L4.5 94.95 4.0 95.4 3.55 96.0 2.95 95.6 2.35 94.95 Q1.65 93.75 2.1 92.55 L2.15 93.0 Q2.4 93.95 3.3 94.55 4.15 95.0 5.1 94.35 5.85 93.85 5.85 93.1 L5.9 92.75 6.0 92.5 5.95 92.6 5.9 92.55 5.65 91.7 5.65 91.65 5.5 91.9 5.45 91.8 Q5.4 91.55 5.6 91.4 L5.65 91.4 5.75 91.35 Q6.35 91.4 6.75 91.9 L7.0 92.45 Q7.25 92.6 7.3 93.05 L7.15 94.25 Q6.8 95.1 6.05 95.25 L5.85 95.2 5.8 95.4 4.75 95.8 M5.35 81.55 L5.45 81.5 Q6.7 81.55 6.55 83.0 L6.5 84.35 6.05 85.7 5.8 86.55 5.5 87.05 Q5.5 88.0 5.05 88.75 L4.8 88.9 Q4.25 88.85 4.15 88.25 L4.15 87.65 4.5 87.45 4.95 86.75 4.7 85.9 Q5.6 84.5 5.65 82.55 5.7 81.9 5.35 81.55" fill="#996600" fill-rule="evenodd" stroke="none"/>
  </g>
</svg>
