<?xml version="1.0" encoding="UTF-8" standalone="no"?>
<svg xmlns:xlink="http://www.w3.org/1999/xlink" height="138.55px" width="71.6px" xmlns="http://www.w3.org/2000/svg">
  <g transform="matrix(1.0, 0.0, 0.0, 1.0, 46.0, 69.25)">
    <path d="M3.8 -66.5 L4.65 -66.05 5.85 -64.9 Q6.35 -64.15 7.35 -64.65 7.2 -63.95 6.55 -63.6 L6.9 -63.0 6.8 -62.85 6.6 -62.1 Q6.6 -61.75 6.9 -61.55 L7.4 -61.3 7.4 -61.2 Q7.5 -59.9 8.15 -58.75 L6.6 -50.2 Q7.4 -50.65 7.6 -51.5 7.85 -52.35 8.45 -52.9 9.6 -52.95 10.5 -52.4 L10.2 -49.95 Q9.9 -48.8 10.35 -47.45 10.25 -45.95 8.95 -44.85 7.6 -43.8 8.7 -42.1 8.85 -41.4 8.25 -41.2 7.7 -41.05 7.35 -40.7 L7.1 -40.7 6.95 -40.6 Q6.65 -40.4 6.65 -40.0 6.65 -38.65 7.0 -37.25 L6.9 -36.65 6.75 -35.4 5.45 -34.2 3.5 -32.0 3.25 -31.65 2.4 -30.7 2.1 -30.25 Q1.9 -29.75 2.2 -29.45 L1.9 -28.1 Q3.3 -27.95 3.45 -26.7 5.35 -26.35 6.8 -24.95 8.2 -23.5 10.3 -23.5 11.45 -22.25 11.9 -20.5 12.25 -18.75 14.15 -18.6 15.4 -16.25 17.65 -15.9 19.85 -15.55 21.25 -13.55 22.2 -14.05 23.05 -13.35 23.85 -12.65 24.3 -11.75 25.35 -9.5 25.6 -6.8 25.75 -4.15 24.4 -1.95 23.35 -0.3 21.4 0.15 19.85 0.05 18.5 0.75 18.0 2.25 16.85 3.35 15.65 4.35 15.9 6.2 15.35 7.3 14.4 8.15 13.4 8.95 14.25 10.35 13.95 13.35 11.4 15.2 11.5 16.95 10.55 18.3 L10.35 18.6 10.05 20.55 10.35 21.25 Q11.5 24.95 11.2 28.85 11.75 30.95 11.0 33.0 L9.75 34.55 Q10.85 35.0 11.2 36.1 11.5 37.2 12.75 37.5 12.85 39.45 12.2 41.3 11.1 41.6 10.45 42.35 L11.45 43.85 Q11.8 44.75 13.05 44.3 13.75 46.6 13.55 49.35 L12.3 49.7 Q11.7 49.75 11.65 50.75 10.8 52.4 11.25 54.25 11.7 56.1 10.85 57.75 11.75 58.4 11.6 59.65 10.5 61.2 8.8 62.2 7.05 63.15 5.95 64.8 L4.0 67.8 Q2.75 69.25 0.8 69.3 -1.9 69.0 -3.05 66.85 L-4.15 65.25 Q-5.95 64.8 -7.5 63.2 L-7.6 63.1 -9.8 62.3 Q-11.55 61.6 -12.85 60.0 -13.25 55.9 -10.9 52.65 L-11.65 50.9 Q-12.1 49.9 -13.25 50.0 -14.0 47.6 -13.8 44.75 -12.6 44.65 -12.25 43.7 L-11.55 41.85 Q-12.4 40.35 -12.0 38.55 -11.65 36.75 -13.4 35.65 -13.2 34.9 -13.85 34.75 -14.5 34.6 -14.75 34.1 -14.65 32.55 -13.9 31.25 -12.75 31.3 -12.15 30.2 -13.85 26.5 -12.8 22.75 -13.35 21.8 -13.45 20.65 -14.6 19.25 -15.2 17.55 -16.1 15.15 -15.05 12.55 -15.2 9.85 -17.6 8.7 -20.05 7.5 -21.35 5.05 -22.3 3.8 -23.75 3.05 L-25.45 1.85 -26.1 2.0 -31.85 2.9 -37.7 2.7 -38.3 2.6 -39.75 2.3 -40.25 1.95 -40.15 1.85 -40.25 1.8 -40.25 1.75 -40.3 1.6 -40.3 1.45 -37.55 1.1 -36.9 1.1 -33.75 0.75 -31.05 0.1 Q-29.15 -0.6 -27.35 -1.45 L-28.0 -3.2 -28.6 -3.3 -29.95 -3.55 -32.05 -4.05 -32.45 -4.15 -33.15 -4.35 -33.25 -4.35 -33.6 -4.45 -34.85 -4.85 -35.7 -5.2 -36.95 -5.8 -37.15 -5.9 -37.85 -6.2 -38.35 -6.5 Q-38.65 -6.6 -38.9 -6.8 L-39.05 -6.9 Q-39.8 -7.2 -40.45 -7.6 L-40.5 -7.65 -40.9 -7.9 -42.45 -9.0 -43.95 -10.15 -44.05 -10.25 -44.15 -10.35 -44.6 -10.8 Q-45.4 -11.55 -45.8 -12.6 L-45.85 -12.75 -46.0 -13.15 -45.9 -13.35 -45.8 -13.4 -45.5 -13.2 -45.45 -13.15 -45.05 -12.85 -44.9 -12.75 -42.45 -11.2 -41.75 -10.8 -40.0 -9.95 Q-38.8 -9.45 -37.7 -8.85 L-36.2 -8.15 -35.25 -7.8 -33.5 -7.2 -31.55 -6.85 -28.9 -6.65 -28.15 -6.65 Q-27.4 -7.65 -27.4 -8.55 -28.6 -9.6 -29.6 -10.8 L-31.55 -13.45 -32.95 -16.0 -33.4 -16.85 -34.25 -18.35 -34.95 -19.8 -36.15 -22.65 -36.25 -23.2 -36.45 -23.8 -36.45 -23.85 -36.65 -24.5 -36.65 -24.6 -36.7 -24.95 -36.7 -25.05 Q-37.1 -26.05 -37.15 -27.15 L-37.15 -27.2 Q-37.3 -28.65 -37.0 -30.0 L-36.9 -30.25 -36.85 -30.35 -36.8 -30.4 -36.7 -30.4 Q-36.45 -30.25 -36.6 -29.95 L-36.55 -29.85 -36.5 -29.8 -36.4 -29.25 -36.4 -29.1 -36.15 -27.85 -36.1 -27.75 -35.85 -26.6 -35.8 -26.55 -35.5 -25.75 -35.5 -25.7 -34.25 -22.95 -32.7 -20.2 -31.35 -18.15 -30.1 -16.3 -30.0 -16.2 -28.05 -13.75 -26.95 -12.55 -25.95 -11.55 Q-24.8 -12.3 -23.85 -13.45 L-24.45 -14.2 -26.55 -17.0 -28.2 -19.75 -28.2 -19.8 -29.05 -21.2 -29.65 -22.55 -30.05 -23.85 -30.45 -24.75 -30.65 -25.55 -30.85 -26.3 -31.0 -26.75 -31.0 -26.8 -31.0 -27.0 -31.0 -27.05 -31.1 -27.75 -31.1 -27.8 -31.15 -28.1 -31.15 -28.15 -31.25 -28.95 -31.25 -29.0 -31.3 -29.5 -31.35 -29.55 -31.3 -31.3 -31.3 -31.45 -31.25 -31.8 -31.2 -31.85 -31.15 -31.8 -31.1 -31.75 -31.1 -31.45 -31.1 -31.4 -30.8 -30.35 -30.8 -30.3 -30.6 -29.8 -30.6 -29.75 -30.15 -28.35 -29.65 -26.95 -29.4 -26.35 -28.85 -25.05 -28.65 -24.65 -27.9 -23.05 -27.6 -22.5 -25.5 -19.75 -22.9 -17.0 -21.35 -15.7 -21.1 -15.5 -20.35 -16.05 -20.45 -16.25 -20.95 -17.35 -21.1 -17.6 -21.45 -18.35 -22.4 -21.3 -23.2 -24.15 -23.4 -25.1 -23.65 -26.75 -23.65 -26.95 -23.8 -28.05 -23.8 -28.25 -23.9 -28.55 -23.9 -28.7 -24.0 -31.5 -23.75 -34.45 -23.7 -34.6 -23.65 -35.0 -23.6 -35.2 -23.55 -35.25 -23.45 -35.3 -23.3 -35.3 -23.15 -34.7 -23.0 -33.85 -23.0 -33.7 -22.9 -32.9 -22.7 -32.0 -22.7 -31.9 -22.7 -31.65 -22.7 -31.6 -22.5 -31.0 -22.5 -30.9 -22.4 -30.25 -22.4 -30.2 -21.95 -28.6 -21.95 -28.55 -21.9 -28.3 -21.9 -28.25 -21.6 -26.9 -21.6 -26.85 -21.15 -25.5 -20.35 -23.55 -20.1 -22.9 -20.1 -22.85 Q-19.8 -22.6 -19.8 -22.2 L-19.8 -22.15 -18.75 -19.8 -18.35 -18.85 -17.65 -17.35 Q-17.45 -17.55 -17.4 -18.0 -17.25 -18.85 -16.75 -19.5 -14.9 -22.05 -11.75 -22.0 -10.65 -23.9 -8.5 -24.4 -6.45 -24.95 -6.1 -27.05 L-4.8 -28.2 Q-4.15 -28.55 -4.35 -29.35 L-4.3 -29.65 Q-4.3 -30.55 -4.95 -31.25 L-6.0 -32.35 -6.65 -33.05 -7.95 -34.4 -8.15 -34.6 -9.1 -35.65 -9.2 -35.75 -9.2 -35.85 -9.4 -36.1 -9.55 -36.95 -9.65 -38.45 -9.65 -38.95 -10.25 -39.05 Q-15.4 -42.85 -14.55 -49.25 -13.6 -53.3 -10.5 -56.1 -11.4 -60.05 -9.8 -63.5 L-10.0 -64.3 Q-8.9 -64.45 -8.0 -65.3 L-6.7 -66.3 -6.5 -66.3 -5.35 -66.3 -4.8 -66.4 Q-4.1 -66.6 -4.0 -67.45 L-4.0 -67.5 -2.1 -68.05 -1.65 -68.85 Q-1.35 -68.05 -0.45 -68.15 0.4 -68.2 0.35 -69.25 0.65 -67.75 2.0 -67.25 2.0 -66.85 2.4 -66.45 L2.65 -66.35 3.6 -66.45 3.8 -66.5 M3.05 -65.6 L3.4 -65.85 Q3.05 -66.3 2.4 -66.25 L2.05 -66.05 Q1.0 -67.1 -0.65 -67.35 L-1.85 -67.45 Q-3.2 -67.4 -3.75 -66.55 L-4.95 -65.95 -5.35 -65.7 -5.65 -65.45 -5.45 -65.45 Q-6.65 -65.6 -7.6 -64.4 -10.0 -62.05 -9.65 -59.1 L-9.55 -58.15 -9.5 -57.45 -9.45 -57.25 -9.35 -55.8 -9.3 -54.3 -9.3 -53.0 Q-9.2 -51.75 -8.05 -51.45 L-7.9 -51.6 -7.6 -51.5 -7.0 -51.55 -6.5 -51.4 -3.8 -50.9 Q-2.0 -50.8 -1.05 -49.0 L-1.0 -47.7 -1.1 -46.3 -1.2 -45.5 Q-1.45 -43.8 -3.35 -42.9 -4.25 -42.4 -5.6 -42.3 -7.0 -42.2 -6.5 -40.65 L-4.85 -39.05 -4.35 -38.65 -3.3 -37.85 -2.95 -37.6 -2.75 -37.45 -1.8 -37.65 0.55 -37.45 1.0 -37.2 1.1 -37.3 2.8 -39.35 3.7 -40.4 4.5 -42.5 5.3 -43.95 5.45 -44.0 6.4 -44.1 5.8 -44.1 Q5.7 -43.65 5.75 -43.1 L5.85 -42.55 Q5.95 -41.8 6.65 -41.55 7.35 -41.3 7.6 -41.9 7.95 -42.2 7.65 -42.7 L7.7 -42.65 7.4 -43.5 7.4 -44.2 7.45 -44.35 Q9.65 -45.5 9.3 -47.65 9.1 -48.7 9.05 -49.65 L9.35 -49.7 9.85 -50.4 9.9 -51.15 Q9.7 -51.9 8.9 -51.9 L8.0 -51.1 Q7.3 -50.2 6.9 -49.15 L7.5 -49.5 6.45 -48.7 6.45 -48.75 6.15 -48.3 6.0 -48.05 5.65 -48.15 5.45 -48.3 5.4 -48.4 5.9 -51.25 6.6 -56.95 Q6.8 -59.1 6.4 -61.1 L6.25 -61.8 6.35 -61.85 6.35 -61.9 Q6.5 -62.35 6.05 -62.45 L4.85 -65.0 4.3 -65.6 Q3.6 -66.2 3.05 -65.6 M-4.1 -61.7 L-4.25 -61.75 -4.15 -61.8 -4.15 -61.75 -4.1 -61.7 M-5.35 -64.3 L-5.35 -64.4 -5.35 -64.3 M0.9 -64.7 L0.85 -64.65 0.9 -64.7 M7.6 -47.65 L7.85 -47.8 Q7.55 -46.9 7.7 -45.85 7.85 -45.05 7.3 -44.65 L7.25 -44.6 6.9 -44.45 Q6.15 -46.5 7.6 -47.65 M4.3 -47.65 L4.4 -47.85 4.85 -48.65 5.0 -48.85 5.15 -48.6 5.15 -48.4 5.0 -47.15 4.95 -47.0 4.55 -46.2 3.65 -44.9 2.8 -45.3 1.85 -45.55 1.65 -45.6 1.6 -45.6 1.5 -45.65 1.45 -45.65 Q0.95 -45.85 0.6 -46.2 L0.35 -46.4 0.35 -46.5 0.35 -46.55 0.4 -46.65 0.95 -46.7 0.55 -46.7 2.55 -48.45 3.0 -48.75 3.15 -48.8 3.7 -48.65 3.4 -48.65 3.2 -48.55 2.75 -48.2 2.7 -48.15 1.25 -46.65 1.2 -46.6 2.2 -46.15 2.45 -46.05 2.65 -46.0 3.2 -45.75 3.25 -45.7 3.3 -45.65 3.35 -45.65 3.4 -45.7 4.15 -47.0 4.3 -47.65 M0.55 -40.45 L0.6 -40.35 0.65 -40.25 Q0.35 -39.55 -0.45 -39.2 L-2.05 -39.55 -2.8 -40.25 -1.25 -40.45 Q-0.35 -40.75 0.55 -40.45 M2.1 -31.3 Q4.25 -32.9 5.6 -35.3 6.8 -36.75 6.3 -38.45 L5.9 -39.95 5.85 -40.05 5.6 -41.65 Q3.7 -38.35 0.85 -35.75 -1.9 -34.8 -3.6 -36.5 L-3.8 -36.7 -4.9 -37.85 -7.05 -40.1 -7.1 -41.4 -7.2 -41.65 -7.65 -41.95 -7.7 -41.95 -8.4 -42.1 -8.6 -41.9 -8.6 -41.4 -8.65 -41.05 -8.8 -38.05 -8.7 -36.15 -7.85 -35.45 -7.8 -35.45 Q-6.0 -33.9 -4.5 -31.95 -2.55 -29.5 1.2 -30.65 L1.75 -31.05 2.1 -31.3 M-5.1 -25.85 L-5.2 -25.8 -5.35 -25.75 Q-6.05 -25.1 -6.1 -24.15 -8.6 -24.1 -10.25 -21.75 L-10.2 -21.75 -10.15 -21.7 -10.25 -21.7 -11.0 -21.55 Q-11.4 -21.25 -11.4 -20.75 L-11.4 -20.4 -13.25 -20.65 Q-15.2 -19.45 -15.6 -17.3 L-15.45 -17.25 -15.7 -17.15 -16.05 -16.65 -16.05 -16.1 -16.0 -16.0 -15.85 -15.95 -15.1 -15.6 -15.0 -15.55 -14.65 -15.25 -14.05 -14.6 -14.3 -14.3 -16.3 -12.05 -16.7 -11.6 -18.15 -8.6 -18.85 -6.9 -18.9 -6.8 -19.0 -6.5 -20.75 -3.9 -21.25 -3.35 -21.8 -2.9 -21.95 -2.75 -22.0 -2.7 -22.25 -2.2 -22.45 -1.65 -22.6 -1.1 -22.7 -0.5 -22.7 -0.35 -22.75 -0.1 -22.75 0.05 -22.75 0.7 -22.75 0.85 -22.65 1.85 -22.6 2.25 -22.65 2.25 -23.0 2.2 Q-22.2 3.15 -20.85 2.6 L-20.85 2.7 -20.35 3.75 -20.3 3.85 -20.25 3.95 -20.15 4.1 -19.35 5.4 -19.25 5.55 -18.65 6.4 -18.6 6.4 Q-16.2 6.95 -14.2 4.95 L-14.1 4.9 Q-13.4 4.15 -13.25 3.2 L-13.2 2.8 Q-12.6 3.25 -11.95 3.65 L-10.8 4.35 -10.2 4.65 -9.95 4.8 -8.9 5.3 -9.45 5.7 -10.0 6.1 -10.7 6.6 -12.85 8.15 -13.0 8.2 -13.35 8.45 -13.35 8.4 -14.05 8.7 -14.5 8.8 -15.15 8.8 -15.3 8.8 -15.45 8.75 -15.0 10.1 -14.75 10.05 -15.05 10.1 -15.0 10.25 -14.35 11.5 -14.2 13.4 -14.15 13.85 -14.35 13.8 -14.45 14.4 -14.05 17.8 Q-13.65 18.95 -12.7 20.0 L-12.7 20.15 Q-12.75 21.4 -11.65 22.15 L-12.2 23.6 Q-12.35 24.55 -12.1 25.55 L-12.0 25.95 -9.9 25.85 -9.65 25.55 -9.4 25.25 -9.1 24.75 -8.85 24.65 -8.85 24.7 -8.85 24.85 -8.9 25.95 -8.9 27.35 -8.7 29.5 Q-8.15 29.95 -7.35 29.9 -7.9 29.55 -7.9 28.65 L-6.1 28.4 -5.9 28.3 -3.8 26.9 Q-1.5 25.0 -1.85 22.55 -1.55 23.6 -1.6 24.85 L-1.7 28.35 -4.4 30.4 -4.55 30.35 -4.45 30.45 Q-3.7 30.95 -2.8 31.1 L-2.2 31.15 0.8 32.05 Q2.5 32.65 4.35 32.45 L4.55 32.3 5.6 32.95 6.3 33.55 7.15 33.9 7.2 33.9 Q8.35 32.15 9.9 30.7 L10.4 30.1 10.35 29.95 10.4 29.65 10.5 28.85 Q10.75 27.7 10.4 26.8 L10.4 27.0 10.1 27.7 9.55 28.55 9.25 28.85 8.75 29.25 6.2 31.05 5.55 31.55 5.7 31.3 6.15 29.6 Q6.25 28.9 5.8 28.3 L5.1 27.55 4.35 27.95 6.55 26.75 Q7.65 26.15 8.25 25.15 L8.5 24.45 9.6 24.15 9.9 24.1 9.8 22.55 9.45 21.85 Q9.45 21.35 9.1 21.1 L9.2 21.2 9.15 20.6 9.05 18.9 8.75 19.15 8.25 19.45 8.15 19.5 Q6.8 19.55 5.85 18.8 L5.8 18.65 5.55 18.05 5.2 17.25 4.75 16.45 4.8 16.45 7.25 16.15 7.6 15.85 Q8.6 15.4 9.15 14.6 L9.55 13.7 10.15 14.6 10.1 15.25 10.05 15.85 Q10.9 14.7 11.0 13.3 L9.55 11.55 Q6.45 8.65 2.45 7.85 L3.0 7.75 Q5.35 7.65 5.75 5.55 L5.7 5.05 5.65 5.0 5.7 5.05 5.95 5.3 6.2 5.6 6.4 5.75 Q7.65 7.0 9.2 7.85 L10.55 8.35 10.6 8.55 11.7 8.9 12.35 9.05 12.4 9.4 12.9 9.2 13.3 8.6 Q13.45 7.85 13.25 7.25 L11.95 7.05 11.75 7.0 11.65 6.95 11.55 6.95 Q9.35 6.35 7.65 5.0 L7.15 4.6 6.6 4.05 5.55 2.8 5.5 2.75 5.15 2.25 5.05 2.1 Q7.3 3.05 9.9 2.55 L10.95 2.05 Q11.85 1.4 11.9 0.65 L11.9 0.6 12.5 1.25 13.05 1.85 14.8 3.8 14.8 3.95 Q15.7 3.45 15.7 2.6 L15.5 2.75 13.7 0.95 12.35 -0.35 10.9 -1.7 10.65 -1.9 10.4 -2.15 Q11.45 -1.95 12.65 -2.45 L12.9 -2.8 Q13.3 -3.2 13.3 -3.75 L13.3 -4.05 12.8 -4.4 13.95 -3.55 14.55 -3.05 14.75 -2.9 15.7 -2.0 15.9 -1.8 16.7 -0.95 16.8 -0.85 16.85 0.15 Q18.55 0.45 18.65 -1.3 L18.0 -1.15 14.9 -4.75 14.95 -4.95 Q16.0 -3.65 17.8 -4.65 L18.25 -5.45 18.45 -6.3 18.55 -6.4 18.8 -8.0 18.75 -8.1 18.85 -8.2 18.65 -2.35 18.8 -1.5 Q19.6 -1.6 19.9 -2.25 19.65 -2.7 19.65 -3.35 L19.65 -3.8 19.6 -4.15 19.65 -4.15 Q21.5 -3.3 23.05 -4.65 L23.4 -5.05 Q24.7 -6.85 24.45 -9.0 L24.6 -8.3 23.95 -10.35 23.1 -11.65 22.55 -12.2 22.3 -12.4 22.15 -12.55 21.9 -12.2 21.25 -12.75 20.5 -13.0 20.5 -12.3 20.45 -13.1 Q19.25 -14.2 17.75 -14.65 L17.55 -14.85 16.9 -15.45 Q16.3 -15.95 15.7 -15.85 L15.4 -15.8 15.65 -15.25 15.7 -14.9 15.95 -13.55 Q16.15 -11.8 15.9 -10.15 L15.5 -8.5 Q14.95 -6.95 13.95 -5.5 L13.45 -5.75 11.4 -6.9 Q12.05 -6.9 12.55 -7.5 13.65 -8.85 14.3 -10.35 15.0 -12.2 15.0 -14.25 L14.9 -15.75 14.75 -16.45 14.6 -16.55 Q13.6 -17.1 12.85 -17.7 L12.8 -17.55 12.55 -18.0 12.35 -18.3 Q11.9 -18.8 11.35 -18.8 L11.35 -18.45 Q11.15 -16.1 10.55 -13.95 L10.55 -13.9 10.2 -12.8 9.8 -11.8 8.85 -9.85 8.65 -9.45 8.4 -9.05 5.75 -10.35 5.35 -10.55 3.45 -11.7 2.8 -12.1 2.85 -12.1 3.15 -12.05 4.7 -11.75 Q7.75 -11.3 9.05 -13.9 L9.7 -15.4 Q10.85 -18.7 9.95 -22.05 L8.4 -22.9 7.9 -22.55 7.7 -23.0 7.25 -23.45 6.15 -23.35 6.0 -23.25 6.2 -23.15 2.7 -18.1 0.8 -14.45 0.75 -14.5 0.5 -14.75 0.3 -14.95 0.15 -15.05 0.0 -15.15 -0.15 -15.25 Q-0.95 -15.8 -1.9 -15.95 L-2.9 -16.1 -3.05 -16.3 -3.15 -16.35 -3.25 -16.45 -4.55 -17.75 -4.55 -17.8 -0.5 -17.95 1.05 -18.75 Q2.4 -19.75 3.2 -21.35 3.9 -22.8 4.0 -24.35 L4.8 -24.0 3.1 -24.7 2.2 -25.45 2.15 -27.1 0.2 -27.1 -1.65 -27.2 Q-3.55 -27.35 -5.1 -26.6 L-5.1 -26.5 -5.1 -25.85 M-21.0 2.15 L-21.25 1.0 -21.0 2.15 M-10.9 10.1 L-11.65 10.45 -11.4 10.3 -10.9 10.1 M11.85 -10.4 L11.1 -10.9 11.05 -10.95 11.1 -10.9 11.85 -10.4 M1.7 -12.9 L1.7 -13.0 1.8 -12.85 1.8 -12.8 1.7 -12.9 M4.85 -9.25 L4.9 -9.2 4.85 -9.2 4.85 -9.25 M3.65 -6.35 L3.75 -6.3 3.65 -6.3 3.65 -6.35 M-0.9 -4.55 L-1.25 -4.85 -0.9 -4.95 -0.9 -4.6 -0.9 -4.55 M19.75 -6.05 L19.6 -5.9 19.65 -6.25 19.75 -6.05 M2.3 1.7 L-1.95 2.15 -2.4 2.3 -5.25 3.25 -7.4 4.0 -7.55 4.05 -7.9 3.95 -8.2 3.9 -8.5 3.8 -9.0 3.65 -9.55 3.5 -10.5 3.1 -10.7 3.0 -11.1 2.8 -12.35 2.1 -9.15 1.95 Q-7.65 1.5 -6.35 0.7 L-6.35 0.65 -6.3 0.65 Q-4.9 -0.35 -4.2 -1.9 L-4.05 -2.45 Q-3.55 -4.35 -4.15 -6.1 L-4.7 -6.45 -4.15 -6.1 -3.65 -5.65 -3.25 -5.05 -3.2 -4.95 -2.9 -4.45 -1.5 -2.95 3.15 1.8 3.1 1.8 2.3 1.7 M2.55 9.1 L2.55 9.05 2.6 9.05 2.55 9.1 M1.35 9.0 L1.15 8.55 1.35 9.0 M0.9 12.2 Q1.6 12.6 2.2 11.9 L2.4 11.7 2.4 11.75 2.75 14.3 1.2 14.1 0.5 14.05 0.25 13.9 0.05 13.75 -0.05 13.6 0.2 12.2 0.8 12.2 0.85 12.2 0.9 12.2 M0.3 15.15 L0.35 14.75 0.35 14.7 0.45 15.05 0.55 15.3 0.85 15.2 Q0.25 15.35 -0.05 15.9 L0.0 15.8 0.1 15.65 0.2 15.55 0.3 15.15 M1.55 15.15 L2.0 15.15 2.1 15.2 1.55 15.15 M0.35 18.5 L0.15 18.45 -0.05 18.25 -0.1 18.2 0.35 18.5 M4.35 17.4 Q4.95 19.5 4.4 21.4 2.75 21.3 0.9 22.35 -0.15 22.9 -0.65 22.35 -1.1 21.85 -1.2 20.7 L-1.2 20.85 1.25 21.05 Q3.4 20.65 4.05 18.6 L4.1 17.5 3.8 16.55 4.35 17.4 M8.05 21.6 L8.1 20.85 8.4 20.9 8.45 20.9 8.4 20.9 8.15 21.3 8.05 21.6 M11.05 13.35 L11.3 13.6 11.05 13.35 M10.5 37.95 L10.5 37.9 Q10.6 37.3 10.3 36.85 L9.85 36.7 10.4 36.85 Q10.45 36.2 9.8 35.75 1.35 32.95 -7.5 31.1 -9.9 30.6 -12.1 31.15 L-12.2 32.0 -12.65 34.2 -12.7 34.55 -12.7 34.6 -12.8 35.05 Q-12.9 36.45 -10.7 36.4 -5.4 37.45 -0.3 39.15 4.75 40.85 10.1 41.35 L10.3 41.0 10.45 40.6 Q10.9 39.25 10.5 37.95 M10.1 38.75 L10.05 38.65 10.15 38.6 10.1 38.75 M9.3 41.05 L9.45 41.0 9.35 41.15 9.2 41.1 9.3 41.05 M10.1 43.5 L9.35 42.5 Q-0.5 42.3 -10.65 42.5 L-11.15 43.9 -11.35 44.75 Q-11.65 46.75 -11.0 48.75 L-11.0 48.8 -10.55 49.95 -10.35 50.3 -10.35 50.35 Q-9.4 51.7 -7.5 51.6 L10.25 50.95 10.8 49.15 10.95 48.1 11.0 47.65 11.0 46.9 10.95 46.35 10.95 46.05 Q10.75 44.65 10.1 43.5 M11.75 37.65 L11.45 37.7 11.3 38.0 10.95 40.0 Q10.85 40.35 11.1 40.65 L11.8 40.75 12.2 39.7 12.3 38.55 Q12.35 37.8 11.75 37.65 M12.95 46.3 L12.9 45.95 12.8 45.45 Q12.75 44.7 12.05 44.7 11.75 44.8 11.75 45.15 L11.8 45.75 11.85 46.45 12.05 48.6 12.3 48.95 Q13.05 49.15 13.05 48.45 L13.05 47.7 12.95 46.3 M-4.6 53.65 L-3.5 54.1 -1.75 54.7 -1.65 54.75 -1.55 54.75 2.4 55.65 3.7 55.9 4.55 55.5 Q5.7 54.85 6.2 53.7 L6.45 53.0 1.45 53.15 -4.25 52.85 -5.35 52.75 -5.8 53.1 -4.6 53.65 M-10.45 53.8 L-11.1 55.05 Q-11.95 56.95 -11.9 59.2 -11.15 60.45 -9.8 60.8 L-8.5 61.15 -7.35 61.65 -6.9 60.9 -6.6 61.05 -6.45 61.15 -6.3 61.25 Q-4.9 62.2 -3.95 63.55 L-3.75 63.8 Q-0.5 64.3 2.55 62.6 L3.6 61.85 Q5.0 60.4 4.2 58.15 L3.75 57.25 3.35 57.15 -1.7 56.1 Q-3.6 55.6 -5.3 54.75 L-5.45 54.65 -5.65 54.55 -5.8 54.45 Q-7.5 53.5 -9.6 53.35 L-10.1 53.3 -10.2 53.45 -10.45 53.8 M-12.2 -46.75 Q-12.35 -48.45 -11.65 -49.8 L-10.1 -51.6 Q-9.95 -53.15 -10.6 -54.5 L-12.65 -52.15 -12.85 -51.8 -12.95 -51.6 -13.35 -50.75 -13.65 -49.75 Q-14.0 -48.3 -13.8 -46.7 L-13.8 -46.65 Q-13.55 -43.95 -12.0 -41.8 -11.1 -40.45 -9.85 -40.05 L-9.6 -40.7 -9.55 -41.35 -9.35 -41.85 -9.35 -42.35 Q-11.35 -43.4 -12.05 -45.5 L-12.2 -46.75 M-3.15 -49.4 L-3.6 -49.6 -3.6 -49.65 -4.3 -49.9 -4.45 -49.95 -5.45 -50.1 -5.7 -50.15 -10.15 -50.6 Q-11.25 -49.2 -11.3 -47.6 L-11.3 -47.55 -11.3 -47.5 -11.3 -47.45 -11.3 -47.35 -11.3 -47.3 -10.95 -45.75 -10.9 -45.55 -10.7 -45.1 Q-9.3 -43.1 -6.7 -42.95 -4.55 -43.2 -2.85 -44.6 -1.8 -46.15 -1.95 -48.45 L-3.15 -49.4 M-45.05 -12.1 L-44.85 -11.85 -44.8 -11.95 -45.05 -12.1 M-34.2 -22.25 Q-35.95 -25.75 -36.85 -29.5 L-36.85 -28.8 -36.3 -25.2 -35.25 -21.95 -35.1 -21.6 -33.8 -18.5 -32.1 -15.05 -30.8 -13.05 -30.65 -12.85 -28.45 -10.45 -28.05 -10.05 -27.7 -9.7 -27.65 -9.7 -27.55 -9.6 Q-26.7 -9.4 -26.35 -10.2 L-26.25 -10.9 -26.3 -11.0 -26.6 -11.4 -26.7 -11.5 -28.4 -13.45 -29.75 -15.1 -30.05 -15.45 -31.5 -17.5 -34.0 -21.8 -34.2 -22.25 M-28.9 -24.75 L-29.55 -26.1 -30.25 -27.85 -31.2 -30.55 -31.3 -30.6 Q-30.75 -27.5 -29.75 -24.6 L-29.1 -22.9 -28.35 -21.25 -27.45 -19.65 -26.85 -18.65 -25.6 -16.8 -25.45 -16.55 -23.4 -14.0 -23.3 -13.9 Q-22.75 -13.6 -22.55 -13.1 L-20.95 -12.0 -20.75 -11.9 Q-20.15 -11.55 -19.45 -11.5 L-18.95 -11.65 Q-18.7 -11.9 -18.7 -12.25 L-19.15 -13.05 -20.05 -13.8 -20.3 -14.0 -20.4 -14.1 -20.2 -13.8 -22.9 -16.35 -24.25 -17.8 -25.5 -19.4 -25.6 -19.55 -25.95 -20.0 -27.75 -22.65 -28.9 -24.75 M-23.25 -33.7 L-23.35 -34.55 -23.4 -33.7 -23.25 -33.7 M-21.9 -27.05 L-22.0 -27.35 -21.95 -27.05 -21.9 -27.05 M-40.1 -7.9 L-40.05 -7.95 -40.15 -8.1 -40.4 -8.1 -40.3 -8.05 -40.1 -7.9 M-38.65 -8.55 L-38.7 -8.6 -38.7 -8.45 -38.65 -8.55 M-20.9 -10.9 L-21.2 -11.1 -21.85 -11.5 -22.2 -11.75 -22.85 -12.3 -23.1 -12.55 -24.15 -11.65 -25.1 -10.7 -25.15 -10.6 -25.15 -10.2 Q-25.25 -9.3 -26.05 -8.85 L-26.35 -8.75 -26.65 -8.15 -26.75 -8.0 -26.75 -7.95 -26.9 -7.7 -27.1 -6.85 -26.5 -6.5 Q-26.7 -6.75 -27.05 -6.8 L-27.1 -6.7 Q-27.5 -5.1 -26.85 -3.6 L-26.6 -3.05 -26.55 -2.9 -26.45 -2.15 -25.15 -2.65 -24.35 -2.55 -24.1 -2.85 Q-23.65 -3.4 -23.35 -4.05 L-23.05 -5.2 Q-20.35 -6.35 -18.85 -8.7 -17.75 -9.8 -17.4 -11.25 L-17.35 -11.75 -17.35 -12.75 -17.3 -13.25 -17.25 -14.7 -17.25 -14.95 -17.45 -16.05 -18.15 -15.9 -18.7 -15.7 -19.95 -15.15 -19.45 -14.7 -19.1 -14.35 -19.0 -14.3 -18.1 -13.45 -17.95 -13.25 -17.95 -13.2 Q-17.35 -12.0 -18.15 -11.0 L-18.45 -10.65 -20.25 -10.6 -20.85 -10.85 -20.9 -10.9 M-28.25 -4.15 L-28.1 -4.1 -28.25 -4.15 M-26.6 -1.0 L-27.15 -0.85 -27.15 -0.8 -28.85 0.1 -30.15 0.45 -33.1 1.2 -34.7 1.35 -36.0 1.45 -39.55 1.75 -36.8 2.45 -35.35 2.55 -34.05 2.65 -31.35 2.5 -28.95 2.1 -26.1 1.1 -26.05 1.15 -26.0 1.05 -26.45 0.85 -25.85 0.95 -24.3 0.15 -24.15 -0.25 -24.1 -0.35 -23.9 -0.9 -24.15 -1.4 -24.25 -1.5 -24.55 -1.55 -24.8 -1.65 -24.95 -1.65 -25.65 -1.45 -25.75 -1.4 -26.6 -1.0 M-5.95 -19.0 L-6.35 -19.3 -6.95 -19.75 -6.3 -19.3 -5.95 -19.0 M-8.75 -20.9 L-9.1 -21.15 -9.5 -21.35 -9.3 -21.25 -9.1 -21.15 -8.9 -21.05 -8.75 -20.9 M-10.55 -20.0 L-11.0 -20.0 -11.15 -20.0 -11.2 -20.0 -11.2 -20.35 -10.85 -20.15 -10.55 -20.0 M-9.85 -19.6 L-9.95 -19.65 -7.65 -18.3 -5.75 -17.0 -5.1 -16.5 -3.8 -15.5 -3.65 -15.35 -3.75 -15.2 -4.0 -14.8 -4.1 -14.7 -4.15 -14.65 -3.95 -14.5 -5.4 -13.6 -7.3 -11.6 -9.95 -13.6 -9.9 -13.6 -9.3 -13.7 Q-8.25 -13.9 -7.4 -14.5 -5.55 -15.9 -6.45 -17.5 L-8.85 -19.05 -9.85 -19.6 M-6.0 -11.3 L-6.1 -11.25 -5.95 -11.5 -6.0 -11.3 M-10.4 -13.95 L-10.6 -14.15 -11.1 -14.55 -11.25 -14.6 -11.25 -14.7 -10.65 -14.2 -10.4 -13.95 M-11.75 -12.95 L-11.05 -12.55 -11.75 -12.95 M-17.35 -3.7 L-17.5 -4.1 -17.45 -4.85 -17.4 -4.6 -17.3 -4.05 -17.25 -3.4 -17.3 -3.6 -17.35 -3.7 M-17.55 -1.75 L-18.1 -1.85 -18.15 -1.85 -18.0 -2.1 -17.85 -2.25 -17.55 -1.75 M-20.9 1.3 L-20.8 1.9 -20.9 1.3 M-15.05 -0.1 L-15.15 -0.2 -14.8 0.05 -14.75 0.2 -14.8 0.15 -15.05 -0.1 M-0.35 -8.9 L-0.7 -8.9 -0.6 -9.0 -0.35 -8.9 M-1.65 9.3 L-1.25 9.95 -1.2 10.05 Q-1.5 9.25 -2.0 9.15 -1.8 9.15 -1.65 9.3 M-4.35 11.0 L-4.8 11.35 -4.4 10.85 -4.35 11.0 M-0.35 9.8 L-0.4 9.85 -0.4 9.75 -0.35 9.8 M-14.75 0.2 L-14.4 0.55 -14.1 0.85 -14.75 0.2 M-15.9 0.3 L-16.05 0.1 -16.0 0.2 -15.9 0.3 M-12.25 16.35 L-12.2 16.3 -12.25 16.35 M-7.0 13.85 L-7.05 13.8 -7.0 13.75 -6.65 12.9 -7.0 13.85 M-12.7 18.55 L-12.65 18.55 -12.65 19.45 -12.7 19.7 -12.7 18.55 M-0.9 14.1 L-1.0 15.45 -1.9 19.25 -1.95 19.4 Q-3.8 18.55 -5.8 19.1 L-5.85 19.0 -6.2 18.3 -6.55 16.15 -6.55 16.1 -6.55 15.95 -6.45 15.5 -6.45 15.55 -5.6 16.4 Q-3.25 17.3 -1.7 15.35 L-1.15 14.55 -1.05 14.35 -0.9 14.1 M-0.35 16.85 L-0.15 16.1 -0.35 16.95 -0.35 16.85 M-0.05 26.95 L0.25 27.0 0.0 27.15 -0.05 26.95 M-13.5 33.8 L-13.05 32.55 Q-13.0 31.9 -13.65 31.85 L-14.1 32.75 -14.15 33.35 Q-14.1 34.0 -13.5 33.8 M-10.9 37.7 L-11.05 37.65 -11.0 37.8 -10.85 38.8 -10.7 39.45 -10.7 39.6 -10.45 39.65 -10.25 39.7 Q-8.1 40.1 -6.25 39.2 L-5.95 38.95 -6.55 38.8 -9.7 38.0 -10.9 37.7 M-12.25 46.2 L-12.25 46.0 Q-12.15 45.15 -13.0 45.15 L-13.25 45.3 -13.3 45.45 -13.15 48.4 -12.95 49.1 Q-12.8 49.45 -12.45 49.35 L-12.2 48.95 Q-12.15 47.55 -12.25 46.2 M-7.7 59.9 L-8.5 59.8 -7.7 59.9" fill="#000000" fill-rule="evenodd" stroke="none"/>
    <path d="M3.05 -65.6 L2.9 -65.45 1.95 -64.75 1.9 -64.75 1.5 -64.65 0.9 -64.65 0.9 -64.7 1.0 -64.75 1.5 -65.2 2.1 -66.05 2.05 -66.05 2.4 -66.25 Q3.05 -66.3 3.4 -65.85 L3.05 -65.6 M2.15 -62.5 L3.1 -61.7 3.5 -61.1 3.55 -61.1 4.05 -61.2 4.75 -61.7 4.85 -61.8 Q5.25 -62.4 5.95 -62.45 L6.05 -62.45 Q6.5 -62.35 6.35 -61.9 L6.35 -61.85 6.25 -61.8 Q5.95 -61.75 5.75 -61.95 L5.45 -61.45 5.4 -61.35 5.3 -60.8 5.2 -60.55 4.15 -60.2 3.6 -60.15 3.3 -59.2 3.0 -58.15 2.8 -57.25 2.7 -56.7 2.75 -56.5 2.8 -55.95 3.0 -55.7 3.75 -55.0 3.6 -54.1 2.85 -55.25 2.7 -55.4 2.35 -55.7 Q2.15 -56.0 2.2 -56.35 1.9 -57.0 2.5 -57.7 L2.5 -57.85 2.55 -57.9 2.65 -58.3 2.25 -58.45 0.85 -57.75 0.85 -57.7 0.7 -57.35 0.65 -56.7 0.65 -56.55 0.7 -56.5 0.7 -56.15 Q0.8 -55.45 0.45 -55.05 0.15 -54.8 -0.45 -54.65 L0.1 -55.4 0.3 -55.9 0.3 -55.95 0.35 -56.1 0.35 -56.15 0.4 -56.3 0.35 -56.45 0.35 -56.6 0.3 -56.65 0.25 -56.75 0.15 -58.0 0.2 -58.1 1.4 -58.8 1.8 -58.95 2.6 -59.15 2.65 -59.25 2.8 -60.15 Q2.8 -60.45 2.95 -60.65 L2.95 -60.75 2.9 -60.8 1.95 -61.6 0.8 -61.75 Q0.05 -61.2 -0.7 -61.25 L-0.75 -61.25 Q-1.1 -61.55 -1.05 -61.9 -0.05 -61.2 1.05 -62.15 1.6 -62.7 2.15 -62.5 M-3.75 -66.55 L-4.05 -65.95 -4.1 -65.85 -4.9 -62.9 Q-4.2 -62.35 -3.2 -62.05 -2.25 -61.8 -2.3 -60.55 -3.5 -60.25 -3.45 -59.15 L-3.45 -59.1 Q-3.5 -58.45 -4.0 -58.1 L-4.55 -57.85 -4.25 -59.3 Q-4.15 -60.1 -3.2 -60.45 -3.05 -61.25 -3.5 -61.55 L-3.85 -61.7 -3.95 -61.7 -4.1 -61.7 -4.15 -61.75 -4.15 -61.8 -4.25 -61.75 -5.5 -62.5 -5.35 -64.3 -5.35 -64.4 -5.4 -65.45 -5.45 -65.45 -5.65 -65.45 -5.35 -65.7 -4.95 -65.95 -3.75 -66.55 M-8.1 -53.1 Q-8.7 -53.55 -8.6 -54.1 L-8.5 -54.55 -7.95 -56.55 -7.6 -56.1 -7.5 -55.6 -7.55 -55.5 -7.6 -55.5 -7.75 -55.2 Q-8.1 -54.55 -7.8 -54.05 L-7.75 -54.0 -7.7 -53.9 -7.55 -53.75 -7.5 -53.7 Q-6.6 -52.95 -7.15 -51.6 L-7.0 -51.55 -7.6 -51.5 -7.9 -51.6 Q-7.6 -52.15 -7.75 -52.85 L-8.1 -53.1" fill="#ff0000" fill-rule="evenodd" stroke="none"/>
    <path d="M1.5 -65.2 L1.0 -64.75 0.9 -64.7 0.85 -64.65 0.9 -64.65 1.5 -64.65 1.05 -64.6 Q0.8 -64.4 0.95 -64.05 L1.1 -63.95 Q1.8 -63.8 2.4 -64.15 L2.5 -64.25 2.65 -64.15 2.7 -64.1 3.1 -63.45 3.25 -62.8 3.3 -62.55 2.55 -62.95 2.25 -62.95 2.05 -62.75 2.1 -62.55 2.15 -62.5 Q1.6 -62.7 1.05 -62.15 -0.05 -61.2 -1.05 -61.9 -1.1 -61.55 -0.75 -61.25 L-0.7 -61.25 Q-0.75 -61.0 -0.45 -60.85 L-0.35 -60.85 1.35 -60.95 1.35 -61.0 1.45 -61.1 1.5 -61.15 1.95 -60.95 2.9 -60.8 2.95 -60.75 2.95 -60.65 Q2.8 -60.45 2.8 -60.15 L2.65 -59.25 2.6 -59.15 1.8 -58.95 1.4 -58.8 0.2 -58.1 0.15 -58.0 0.25 -56.75 0.3 -56.65 0.35 -56.6 0.35 -56.45 0.4 -56.3 0.35 -56.15 0.35 -56.1 0.3 -55.95 0.25 -55.95 0.3 -55.9 0.1 -55.4 -0.45 -54.65 Q0.15 -54.8 0.45 -55.05 L1.15 -55.15 Q1.7 -55.45 1.6 -55.95 L1.4 -57.5 1.75 -57.65 2.5 -57.7 Q1.9 -57.0 2.2 -56.35 2.15 -56.0 2.35 -55.7 L2.7 -55.4 2.8 -55.15 2.0 -53.4 1.7 -53.1 1.7 -53.05 1.4 -52.65 1.35 -52.5 0.85 -51.85 0.8 -51.8 -0.45 -50.45 -1.05 -50.3 Q-1.35 -50.3 -1.55 -50.55 L-1.7 -51.0 -1.75 -51.05 Q-2.3 -50.95 -2.95 -51.65 L-3.6 -52.45 Q-4.15 -53.25 -5.0 -53.45 L-6.0 -53.75 -6.6 -53.85 -6.85 -53.9 -7.1 -54.85 -6.85 -55.1 Q-6.65 -55.35 -6.75 -55.7 -7.0 -56.5 -7.8 -56.55 L-7.85 -56.5 -7.6 -56.1 -7.95 -56.55 -8.5 -54.55 -8.6 -54.1 Q-8.7 -53.55 -8.1 -53.1 L-9.3 -53.0 -9.3 -54.3 -9.35 -55.8 -9.45 -57.25 -9.5 -57.45 -9.45 -57.45 -9.55 -58.15 -9.65 -59.1 Q-10.0 -62.05 -7.6 -64.4 -6.65 -65.6 -5.45 -65.45 L-5.4 -65.45 -5.35 -64.4 -5.35 -64.3 -5.5 -62.5 -4.25 -61.75 -4.1 -61.7 -3.95 -61.7 -3.85 -61.7 -3.5 -61.55 Q-3.05 -61.25 -3.2 -60.45 -4.15 -60.1 -4.25 -59.3 L-4.55 -57.85 -4.0 -58.1 -3.45 -58.1 -3.2 -58.55 -2.85 -59.25 Q-2.4 -59.7 -2.2 -60.3 -1.8 -61.4 -2.4 -62.35 L-2.6 -62.55 -4.0 -63.1 -4.05 -63.6 -3.75 -64.35 -3.75 -64.25 -3.7 -64.35 -3.7 -64.5 -2.85 -66.3 -2.9 -66.3 -3.1 -66.15 -3.05 -66.4 Q-2.9 -66.85 -3.3 -67.0 L-3.7 -66.6 -4.05 -65.95 -3.75 -66.55 Q-3.2 -67.4 -1.85 -67.45 L-0.65 -67.35 0.05 -66.8 1.5 -65.2 M-3.2 -60.45 L-3.25 -60.45 -3.2 -60.45 M5.45 -44.0 L5.3 -43.95 4.5 -42.5 4.2 -42.3 2.85 -41.3 2.65 -41.2 1.8 -42.85 1.85 -43.0 1.7 -43.2 1.7 -43.25 1.4 -43.95 1.4 -44.8 2.55 -44.55 4.0 -44.35 4.35 -44.8 5.1 -46.1 5.2 -46.3 5.4 -46.8 5.6 -46.6 5.65 -46.45 5.65 -45.85 5.45 -44.0 M-2.8 -40.25 L-2.9 -40.35 -2.3 -41.7 -1.85 -42.35 -1.5 -42.7 -1.25 -42.9 -0.65 -42.85 -0.35 -42.4 0.35 -41.25 0.35 -41.0 0.55 -40.55 0.55 -40.5 0.55 -40.45 Q-0.35 -40.75 -1.25 -40.45 L-2.8 -40.25 M-8.25 -62.65 L-8.55 -62.0 Q-9.05 -60.6 -8.55 -59.2 L-8.1 -58.45 Q-7.9 -58.3 -7.65 -58.45 L-7.55 -58.5 -6.7 -58.6 -6.5 -58.75 Q-5.8 -59.95 -5.6 -61.35 -5.5 -62.15 -5.8 -62.6 L-5.85 -63.55 Q-5.95 -64.3 -6.65 -64.25 -7.65 -63.7 -8.25 -62.65 M-0.1 -65.8 L-0.3 -66.25 Q-0.85 -66.8 -1.7 -66.65 -2.4 -66.35 -2.8 -65.8 L-3.15 -64.9 Q-3.25 -64.2 -2.6 -64.05 L-2.15 -63.9 Q-1.4 -63.7 -0.8 -64.15 0.0 -64.8 -0.1 -65.8 M-29.75 -15.1 L-28.4 -13.45 -26.7 -11.5 -26.6 -11.4 -27.15 -11.35 -28.35 -10.55 -28.45 -10.45 -30.65 -12.85 -30.8 -13.05 -31.85 -15.0 -31.9 -15.65 -31.85 -15.85 -31.75 -15.95 -31.55 -16.15 -31.45 -16.2 -31.2 -16.25 -29.75 -15.1 M-25.95 -20.0 L-25.6 -19.55 -25.5 -19.4 -24.25 -17.8 -22.9 -16.35 -20.2 -13.8 -20.4 -13.8 Q-21.25 -13.45 -21.2 -12.45 L-21.15 -12.15 -20.95 -12.0 -22.55 -13.1 Q-22.75 -13.6 -23.3 -13.9 L-23.4 -14.0 -25.45 -16.55 -25.6 -16.8 -26.85 -18.65 -27.2 -19.3 -27.0 -19.85 Q-26.75 -20.25 -26.35 -20.2 L-25.95 -20.0 M-27.15 -0.85 L-26.6 -1.0 -26.0 -1.1 -25.8 -0.35 Q-25.35 0.45 -24.3 0.15 L-24.15 -0.25 -24.3 0.15 -25.85 0.95 -26.45 0.85 -26.0 1.05 -26.05 1.15 -26.1 1.1 -28.95 2.1 Q-29.45 1.8 -29.3 0.9 L-28.85 0.1 -27.15 -0.8 -27.15 -0.85" fill="#99cc99" fill-rule="evenodd" stroke="none"/>
    <path d="M-3.7 -64.35 L-3.75 -64.25 -3.75 -64.35 -3.7 -64.35 M-8.25 -62.65 Q-7.65 -63.7 -6.65 -64.25 -5.95 -64.3 -5.85 -63.55 L-5.8 -62.6 Q-5.5 -62.15 -5.6 -61.35 -5.8 -59.95 -6.5 -58.75 L-6.7 -58.6 -7.55 -58.5 -7.65 -58.45 Q-7.9 -58.3 -8.1 -58.45 L-8.55 -59.2 Q-9.05 -60.6 -8.55 -62.0 L-8.25 -62.65 M-0.1 -65.8 Q0.0 -64.8 -0.8 -64.15 -1.4 -63.7 -2.15 -63.9 L-2.6 -64.05 Q-3.25 -64.2 -3.15 -64.9 L-2.8 -65.8 Q-2.4 -66.35 -1.7 -66.65 -0.85 -66.8 -0.3 -66.25 L-0.1 -65.8" fill="#99ffcc" fill-rule="evenodd" stroke="none"/>
    <path d="M1.5 -64.65 L1.9 -64.75 1.95 -64.75 2.9 -65.45 3.05 -65.6 Q3.6 -66.2 4.3 -65.6 L4.85 -65.0 6.05 -62.45 5.95 -62.45 Q5.25 -62.4 4.85 -61.8 L4.75 -61.7 4.05 -61.2 3.55 -61.1 3.5 -61.1 3.1 -61.7 2.15 -62.5 2.1 -62.55 2.05 -62.75 2.25 -62.95 2.55 -62.95 3.3 -62.55 3.25 -62.8 3.1 -63.45 2.7 -64.1 2.65 -64.15 2.5 -64.25 2.4 -64.15 Q1.8 -63.8 1.1 -63.95 L0.95 -64.05 Q0.8 -64.4 1.05 -64.6 L1.5 -64.65 M2.05 -66.05 L2.1 -66.05 1.5 -65.2 0.05 -66.8 -0.65 -67.35 Q1.0 -67.1 2.05 -66.05 M-4.05 -65.95 L-3.7 -66.6 -3.3 -67.0 Q-2.9 -66.85 -3.05 -66.4 L-3.1 -66.15 -2.9 -66.3 -2.85 -66.3 -3.7 -64.5 -3.7 -64.35 -3.75 -64.35 -4.05 -63.6 -4.0 -63.1 -2.6 -62.55 -2.4 -62.35 Q-1.8 -61.4 -2.2 -60.3 -2.4 -59.7 -2.85 -59.25 L-3.2 -58.55 -3.45 -58.1 -4.0 -58.1 Q-3.5 -58.45 -3.45 -59.1 L-3.45 -59.15 Q-3.5 -60.25 -2.3 -60.55 -2.25 -61.8 -3.2 -62.05 -4.2 -62.35 -4.9 -62.9 L-4.1 -65.85 -4.05 -65.95 M-3.2 -60.45 L-3.25 -60.45 -3.2 -60.45 M-9.55 -58.15 L-9.45 -57.45 -9.5 -57.45 -9.55 -58.15 M-9.45 -57.25 L-9.35 -55.8 -9.45 -57.25 M-9.3 -53.0 L-8.1 -53.1 -7.75 -52.85 Q-7.6 -52.15 -7.9 -51.6 L-8.05 -51.45 Q-9.2 -51.75 -9.3 -53.0 M-7.6 -56.1 L-7.85 -56.5 -7.8 -56.55 Q-7.0 -56.5 -6.75 -55.7 -6.65 -55.35 -6.85 -55.1 L-7.1 -54.85 -6.85 -53.9 -6.6 -53.85 -6.0 -53.75 -5.0 -53.45 Q-4.15 -53.25 -3.6 -52.45 L-2.95 -51.65 Q-2.3 -50.95 -1.75 -51.05 L-1.7 -51.0 -1.55 -50.55 Q-1.35 -50.3 -1.05 -50.3 L-0.45 -50.45 0.8 -51.8 0.85 -51.85 1.35 -52.5 1.4 -52.65 1.7 -53.05 1.7 -53.1 2.0 -53.4 2.8 -55.15 2.7 -55.4 2.85 -55.25 3.6 -54.1 3.75 -55.0 3.0 -55.7 2.8 -55.95 2.75 -56.5 2.7 -56.7 2.8 -57.25 3.0 -58.15 3.3 -59.2 3.6 -60.15 4.15 -60.2 5.2 -60.55 5.3 -60.8 5.4 -61.35 5.45 -61.45 5.75 -61.95 Q5.95 -61.75 6.25 -61.8 L6.4 -61.1 Q6.8 -59.1 6.6 -56.95 L5.9 -51.25 Q5.45 -52.6 3.75 -52.6 L3.3 -52.45 2.75 -52.25 Q0.15 -50.8 -0.9 -48.05 L-1.0 -47.7 -1.05 -49.0 Q-2.0 -50.8 -3.8 -50.9 L-6.5 -51.4 -7.0 -51.55 -7.15 -51.6 Q-6.6 -52.95 -7.5 -53.7 L-7.55 -53.75 -7.7 -53.9 -7.75 -54.0 -7.8 -54.05 Q-8.1 -54.55 -7.75 -55.2 L-7.6 -55.5 -7.55 -55.5 -7.5 -55.6 -7.6 -56.1 M2.5 -57.7 L1.75 -57.65 1.4 -57.5 1.6 -55.95 Q1.7 -55.45 1.15 -55.15 L0.45 -55.05 Q0.8 -55.45 0.7 -56.15 L0.7 -56.5 0.65 -56.55 0.65 -56.7 0.7 -57.35 0.85 -57.7 0.85 -57.75 2.25 -58.45 2.65 -58.3 2.55 -57.9 2.5 -57.85 2.5 -57.7 M0.3 -55.9 L0.25 -55.95 0.3 -55.95 0.3 -55.9 M2.9 -60.8 L1.95 -60.95 1.5 -61.15 1.45 -61.1 1.35 -61.0 1.35 -60.95 -0.35 -60.85 -0.45 -60.85 Q-0.75 -61.0 -0.7 -61.25 0.05 -61.2 0.8 -61.75 L1.95 -61.6 2.9 -60.8 M6.45 -48.7 L7.5 -49.5 6.9 -49.15 Q7.3 -50.2 8.0 -51.1 L8.9 -51.9 Q9.7 -51.9 9.9 -51.15 L9.85 -50.4 9.35 -49.7 9.05 -49.65 9.05 -49.75 Q8.2 -49.15 7.75 -48.05 L7.6 -47.65 Q6.15 -46.5 6.9 -44.45 L7.25 -44.6 7.4 -44.2 7.4 -43.5 7.7 -42.65 7.65 -42.7 Q7.95 -42.2 7.6 -41.9 7.35 -41.3 6.65 -41.55 5.95 -41.8 5.85 -42.55 L5.75 -43.1 Q5.7 -43.65 5.8 -44.1 L6.4 -44.1 5.45 -44.0 5.65 -45.85 5.65 -46.45 5.75 -46.5 5.75 -46.6 6.45 -48.7 M4.5 -42.5 L3.7 -40.4 2.8 -39.35 2.7 -39.45 0.7 -41.7 0.2 -42.25 Q-0.15 -42.75 -0.65 -42.85 L-1.25 -42.9 -1.45 -42.9 -1.7 -42.8 -1.75 -42.8 -3.0 -41.55 -4.85 -39.05 -6.5 -40.65 Q-7.0 -42.2 -5.6 -42.3 -4.25 -42.4 -3.35 -42.9 -1.45 -43.8 -1.2 -45.5 L-1.1 -46.3 -1.05 -46.1 Q-0.85 -45.1 0.15 -45.0 L1.4 -44.9 1.4 -44.8 1.4 -43.95 1.7 -43.25 1.7 -43.2 1.85 -43.0 1.8 -42.85 2.65 -41.2 2.85 -41.3 4.2 -42.3 4.5 -42.5 M3.4 -45.7 L3.35 -45.65 3.3 -45.65 3.25 -45.7 3.35 -45.65 3.4 -45.7 M-2.05 -39.55 L-2.7 -40.15 -2.8 -40.25 -2.05 -39.55 M-35.1 -21.6 L-34.3 -21.3 -34.1 -21.6 -34.2 -22.25 -34.0 -21.8 -31.5 -17.5 -30.05 -15.45 -29.75 -15.1 -31.2 -16.25 -31.45 -16.2 -31.55 -16.15 -31.75 -15.95 -31.85 -15.85 -31.9 -15.65 -31.85 -15.0 -30.8 -13.05 -32.1 -15.05 -33.8 -18.5 -35.1 -21.6 M-26.6 -11.4 L-26.3 -11.0 -26.25 -10.9 -26.35 -10.2 Q-26.7 -9.4 -27.55 -9.6 L-27.65 -9.7 -27.7 -9.7 -28.05 -10.05 -28.45 -10.45 -28.35 -10.55 -27.15 -11.35 -26.6 -11.4 M-29.75 -24.6 L-29.25 -24.4 -29.15 -24.5 -28.9 -24.75 -27.75 -22.65 -25.95 -20.0 -26.35 -20.2 Q-26.75 -20.25 -27.0 -19.85 L-27.2 -19.3 -26.85 -18.65 -27.45 -19.65 -28.35 -21.25 -29.1 -22.9 -29.75 -24.6 M-19.15 -13.05 L-18.7 -12.25 Q-18.7 -11.9 -18.95 -11.65 L-19.45 -11.5 Q-20.15 -11.55 -20.75 -11.9 L-20.95 -12.0 -21.15 -12.15 -21.2 -12.45 Q-21.25 -13.45 -20.4 -13.8 L-20.2 -13.8 Q-19.7 -13.5 -19.15 -13.05 M-28.25 -4.15 L-28.1 -4.1 -28.25 -4.15 M-26.6 -1.0 L-25.75 -1.4 -25.65 -1.45 -24.95 -1.65 -24.8 -1.65 -24.55 -1.55 -24.25 -1.5 -24.15 -1.4 -23.9 -0.9 -24.1 -0.35 -24.15 -0.25 -24.3 0.15 Q-25.35 0.45 -25.8 -0.35 L-26.0 -1.1 -26.6 -1.0 M-28.95 2.1 L-31.35 2.5 -34.05 2.65 -35.35 2.55 Q-34.7 2.15 -34.7 1.35 L-33.1 1.2 -30.15 0.45 -28.85 0.1 -29.3 0.9 Q-29.45 1.8 -28.95 2.1" fill="#999933" fill-rule="evenodd" stroke="none"/>
    <path d="M1.7 -34.5 L1.75 -34.35 1.5 -34.05 2.15 -31.8 2.1 -31.3 1.75 -31.05 1.4 -31.25 0.7 -33.5 0.7 -33.95 0.65 -34.25 1.55 -34.25 1.7 -34.5 M-7.7 -41.95 L-7.95 -41.95 Q-8.4 -41.85 -8.4 -41.4 -8.4 -40.3 -7.9 -39.3 L-8.2 -40.15 -7.5 -39.05 -6.65 -37.85 -6.25 -37.35 -5.85 -36.9 -6.8 -36.4 -7.1 -36.15 -7.15 -36.15 -7.25 -36.1 -7.4 -35.95 -7.85 -35.45 -8.7 -36.15 -8.8 -38.05 -8.65 -41.05 -8.6 -41.4 -8.6 -41.9 -8.4 -42.1 -7.7 -41.95 M-3.8 -34.65 L-3.4 -34.35 -1.5 -34.35 -2.05 -34.35 -2.15 -33.9 -2.15 -33.85 -2.95 -34.1 -2.15 -33.85 -2.55 -32.4 Q-2.7 -31.4 -3.45 -31.0 L-3.8 -31.25 -3.55 -33.25 -3.2 -34.2 -3.5 -34.35 -3.5 -34.45 -3.8 -34.65 M-0.5 37.25 L0.25 34.75 Q1.9 34.7 1.85 35.9 L1.75 36.3 Q1.4 36.85 1.4 37.65 L1.35 38.0 0.7 38.6 Q-0.35 38.8 -0.7 37.9 L-0.5 37.25 M2.95 35.9 L3.05 35.55 4.25 35.7 4.3 36.5 4.25 36.7 4.25 36.85 4.15 37.15 4.1 37.25 4.05 37.35 4.0 37.4 4.0 37.45 Q3.75 37.95 3.8 38.55 L3.85 39.1 Q3.3 39.8 2.65 39.4 1.75 38.8 1.85 38.1 L1.9 38.1 2.0 37.7 2.05 37.6 2.1 37.55 2.95 35.9 M5.7 36.55 L5.9 36.1 Q7.05 35.95 7.75 36.55 L7.65 36.95 6.9 39.6 6.8 39.95 4.95 39.8 5.05 38.8 Q5.25 37.6 5.7 36.55 M8.5 37.4 L8.65 37.4 8.75 37.45 9.65 37.55 9.75 37.15 9.65 37.6 9.6 37.75 Q9.35 38.15 9.45 38.65 L9.5 39.7 9.55 40.35 9.5 40.35 7.9 40.1 7.7 39.9 7.75 39.25 8.1 37.8 8.3 37.35 8.5 37.4 M-11.3 32.15 L-11.25 31.9 Q-10.35 31.95 -9.8 32.55 L-9.55 32.9 -9.55 32.95 -9.55 33.1 -9.55 33.2 Q-9.65 34.2 -10.2 34.9 L-10.55 35.3 Q-11.6 35.2 -11.9 34.5 L-11.8 34.2 -11.75 33.85 -11.3 32.15 M-8.5 32.95 L-8.15 32.4 -6.85 32.75 -6.9 33.45 Q-7.0 34.55 -7.45 35.65 L-7.7 35.75 -9.1 35.75 -9.15 35.25 Q-9.15 34.0 -8.5 32.95 M-5.5 33.85 L-5.1 33.1 Q-4.05 33.1 -3.55 33.9 L-3.65 34.25 -4.0 35.4 -4.4 36.55 -4.35 36.55 -4.55 37.05 -6.05 36.9 -6.1 36.15 Q-6.05 34.9 -5.5 33.85 M-3.15 35.0 L-2.7 34.25 -2.55 34.05 Q-1.7 33.95 -1.05 34.6 L-1.25 35.2 -1.25 35.35 -1.3 35.45 -1.5 37.0 -1.55 37.3 Q-1.85 38.4 -3.4 37.6 L-3.5 36.8 -3.5 36.65 -3.15 35.0 M3.9 44.8 L4.0 48.3 3.95 48.4 Q3.15 49.4 1.8 48.9 L1.7 48.35 Q1.4 47.0 1.4 45.6 L1.45 44.6 2.8 44.35 Q3.45 44.1 3.9 44.8 M0.25 47.65 L0.2 48.35 0.2 49.0 -1.65 49.15 -1.75 48.35 -2.05 46.25 -2.1 45.6 -2.05 45.3 Q-1.8 44.45 -0.75 44.25 0.2 44.05 0.3 44.85 L0.25 47.65 M9.75 48.85 L9.05 48.95 8.6 48.8 8.55 48.45 8.4 46.55 8.4 46.5 8.4 46.15 8.45 45.9 Q8.65 45.2 9.25 44.85 10.45 45.05 10.45 46.0 L10.4 46.25 10.25 48.4 10.25 48.5 10.15 48.6 10.1 48.65 9.75 48.85 M5.3 46.1 L5.35 45.8 5.3 44.75 7.3 44.8 7.45 46.45 7.55 47.4 7.55 47.5 7.5 47.9 7.25 48.45 7.3 48.45 Q6.8 49.1 5.7 49.05 L5.25 48.4 Q4.95 47.8 5.15 47.1 L5.3 46.1 M-11.0 48.8 L-11.0 48.75 -11.05 48.45 -11.2 46.55 -11.2 46.5 -11.2 46.15 -11.15 45.9 Q-10.95 45.2 -10.35 44.85 -9.15 45.05 -9.15 46.0 L-9.2 46.25 -9.35 48.4 -9.35 48.5 -9.45 48.6 -9.5 48.65 -9.85 48.85 -10.55 48.95 -11.0 48.8 M11.75 37.65 Q12.35 37.8 12.3 38.55 L12.2 39.7 11.8 40.75 11.1 40.65 Q10.85 40.35 10.95 40.0 L11.3 38.0 11.45 37.7 11.75 37.65 M12.95 46.3 L13.05 47.7 13.05 48.45 Q13.05 49.15 12.3 48.95 L12.05 48.6 11.85 46.45 11.8 45.75 11.75 45.15 Q11.75 44.8 12.05 44.7 12.75 44.7 12.8 45.45 L12.9 45.95 12.95 46.3 M-13.8 -46.65 L-13.8 -46.7 Q-14.0 -48.3 -13.65 -49.75 L-13.35 -50.75 -12.95 -51.6 -12.85 -51.8 -12.65 -52.15 -10.6 -54.5 Q-9.95 -53.15 -10.1 -51.6 L-11.65 -49.8 Q-12.35 -48.45 -12.2 -46.75 L-13.8 -46.65 M-45.05 -12.1 L-44.8 -11.95 -44.85 -11.85 -45.05 -12.1 M-26.05 1.15 L-26.1 1.1 -26.05 1.15 M-27.15 -0.8 L-27.15 -0.85 -27.15 -0.8 M-13.5 33.8 Q-14.1 34.0 -14.15 33.35 L-14.1 32.75 -13.65 31.85 Q-13.0 31.9 -13.05 32.55 L-13.5 33.8 M-12.25 46.2 Q-12.15 47.55 -12.2 48.95 L-12.45 49.35 Q-12.8 49.45 -12.95 49.1 L-13.15 48.4 -13.3 45.45 -13.25 45.3 -13.0 45.15 Q-12.15 45.15 -12.25 46.0 L-12.25 46.2 M-6.35 45.2 L-6.2 47.75 -6.2 48.05 -6.0 48.35 -6.0 48.5 Q-7.05 49.25 -8.2 49.1 L-8.55 44.5 Q-6.45 43.25 -6.35 45.0 L-6.35 45.2 M-5.45 44.5 Q-3.35 43.25 -3.25 45.0 L-3.25 45.2 -3.1 47.75 -3.1 48.05 -2.9 48.35 -2.9 48.5 Q-3.95 49.25 -5.1 49.1 L-5.45 44.5" fill="#999999" fill-rule="evenodd" stroke="none"/>
    <path d="M-10.9 -45.55 L-10.95 -45.75 -11.3 -47.3 -11.3 -47.35 -11.3 -47.45 -11.3 -47.5 -11.3 -47.55 -11.3 -47.6 Q-11.25 -49.2 -10.15 -50.6 L-5.7 -50.15 -5.45 -50.1 -4.45 -49.95 -4.3 -49.9 -3.6 -49.65 -3.6 -49.6 -3.15 -49.4 -2.85 -48.7 Q-2.6 -47.75 -2.85 -46.75 -3.2 -45.6 -4.1 -44.8 L-4.4 -44.45 Q-5.0 -43.9 -5.8 -43.85 -8.0 -43.7 -9.8 -44.6 L-10.9 -45.55 M-4.05 -48.15 L-4.25 -48.5 -4.9 -49.15 -7.05 -49.4 -7.65 -49.25 Q-9.25 -48.7 -9.2 -47.05 L-9.2 -46.35 Q-9.05 -45.15 -7.95 -44.55 L-7.85 -44.55 -6.0 -44.55 Q-4.65 -44.6 -4.15 -45.8 L-3.95 -46.2 Q-3.55 -47.2 -4.05 -48.15 M-21.9 -27.05 L-21.95 -27.05 -22.0 -27.35 -21.9 -27.05 M-38.65 -8.55 L-38.7 -8.45 -38.7 -8.6 -38.65 -8.55 M-40.1 -7.9 L-40.3 -8.05 -40.4 -8.1 -40.15 -8.1 -40.05 -7.95 -40.1 -7.9" fill="#009900" fill-rule="evenodd" stroke="none"/>
    <path d="M5.9 -51.25 L5.4 -48.4 5.45 -48.3 5.65 -48.15 6.0 -48.05 6.15 -48.3 6.45 -48.75 6.45 -48.7 5.75 -46.6 5.75 -46.5 5.65 -46.45 5.6 -46.6 5.4 -46.8 5.2 -46.3 5.1 -46.1 4.35 -44.8 4.0 -44.35 2.55 -44.55 1.4 -44.8 1.4 -44.9 0.15 -45.0 Q-0.85 -45.1 -1.05 -46.1 L-1.1 -46.3 -1.0 -47.7 -0.9 -48.05 Q0.15 -50.8 2.75 -52.25 L3.3 -52.45 3.75 -52.6 Q5.45 -52.6 5.9 -51.25 M9.05 -49.65 Q9.1 -48.7 9.3 -47.65 9.65 -45.5 7.45 -44.35 L7.4 -44.2 7.25 -44.6 7.3 -44.65 Q7.85 -45.05 7.7 -45.85 7.55 -46.9 7.85 -47.8 L7.6 -47.65 7.75 -48.05 Q8.2 -49.15 9.05 -49.75 L9.05 -49.65 M2.8 -39.35 L1.1 -37.3 1.0 -37.2 0.55 -37.45 -1.8 -37.65 -2.75 -37.45 -2.95 -37.6 -3.3 -37.85 -4.35 -38.65 -4.85 -39.05 -3.0 -41.55 -1.75 -42.8 -1.7 -42.8 -1.45 -42.9 -1.25 -42.9 -1.5 -42.7 -1.85 -42.35 -2.3 -41.7 -2.9 -40.35 -2.8 -40.25 -2.7 -40.15 -2.05 -39.55 -0.45 -39.2 Q0.35 -39.55 0.65 -40.25 L0.6 -40.35 0.55 -40.45 0.55 -40.5 0.55 -40.55 0.35 -41.0 0.35 -41.25 -0.35 -42.4 -0.65 -42.85 Q-0.15 -42.75 0.2 -42.25 L0.7 -41.7 2.7 -39.45 2.8 -39.35 M3.4 -48.65 L3.7 -48.65 3.15 -48.8 3.0 -48.75 2.55 -48.45 0.55 -46.7 0.95 -46.7 0.4 -46.65 0.35 -46.55 0.35 -46.5 0.35 -46.4 0.6 -46.2 Q0.95 -45.85 1.45 -45.65 L1.5 -45.65 1.6 -45.6 1.65 -45.6 1.85 -45.55 2.8 -45.3 3.65 -44.9 4.55 -46.2 4.95 -47.0 5.0 -47.15 5.15 -48.4 5.15 -48.6 5.0 -48.85 4.85 -48.65 4.4 -47.85 4.3 -47.65 4.35 -48.25 3.4 -48.65 M-35.1 -21.6 L-35.25 -21.95 -36.3 -25.2 -36.85 -28.8 -36.85 -29.5 Q-35.95 -25.75 -34.2 -22.25 L-34.1 -21.6 -34.3 -21.3 -35.1 -21.6 M-29.75 -24.6 Q-30.75 -27.5 -31.3 -30.6 L-31.2 -30.55 -30.25 -27.85 -29.55 -26.1 -28.9 -24.75 -29.15 -24.5 -29.25 -24.4 -29.75 -24.6 M-35.35 2.55 L-36.8 2.45 -39.55 1.75 -36.0 1.45 -34.7 1.35 Q-34.7 2.15 -35.35 2.55" fill="#996600" fill-rule="evenodd" stroke="none"/>
    <path d="M-10.9 -45.55 L-9.8 -44.6 Q-8.0 -43.7 -5.8 -43.85 -5.0 -43.9 -4.4 -44.45 L-4.1 -44.8 Q-3.2 -45.6 -2.85 -46.75 -2.6 -47.75 -2.85 -48.7 L-3.15 -49.4 -1.95 -48.45 Q-1.8 -46.15 -2.85 -44.6 -4.55 -43.2 -6.7 -42.95 -9.3 -43.1 -10.7 -45.1 L-10.9 -45.55 M-4.05 -48.15 Q-3.55 -47.2 -3.95 -46.2 L-4.15 -45.8 Q-4.65 -44.6 -6.0 -44.55 L-7.85 -44.55 -7.95 -44.55 Q-9.05 -45.15 -9.2 -46.35 L-9.2 -47.05 Q-9.25 -48.7 -7.65 -49.25 L-7.05 -49.4 -4.9 -49.15 -4.25 -48.5 -4.05 -48.15 M-4.8 -47.5 L-5.05 -48.1 Q-5.7 -48.85 -6.7 -48.95 L-8.05 -48.25 Q-8.7 -47.55 -8.5 -46.55 -8.6 -45.85 -8.0 -45.45 L-6.1 -45.35 Q-5.3 -45.65 -5.0 -46.4 -4.75 -46.9 -4.8 -47.5" fill="#336600" fill-rule="evenodd" stroke="none"/>
    <path d="M-4.8 -47.5 Q-4.75 -46.9 -5.0 -46.4 -5.3 -45.65 -6.1 -45.35 L-8.0 -45.45 Q-8.6 -45.85 -8.5 -46.55 -8.7 -47.55 -8.05 -48.25 L-6.7 -48.95 Q-5.7 -48.85 -5.05 -48.1 L-4.8 -47.5" fill="#00ff00" fill-rule="evenodd" stroke="none"/>
    <path d="M1.7 -34.5 L3.1 -36.6 4.85 -39.0 5.85 -40.1 5.85 -40.05 5.9 -39.95 6.3 -38.45 Q6.8 -36.75 5.6 -35.3 4.25 -32.9 2.1 -31.3 L2.15 -31.8 1.5 -34.05 1.75 -34.35 1.7 -34.5 M-3.6 -36.5 L-3.8 -36.55 -4.05 -36.95 -4.9 -37.85 -3.8 -36.7 -3.6 -36.5 M-7.65 -41.95 L-7.65 -41.9 -7.65 -41.95 M-5.85 -36.9 L-5.1 -36.2 -4.05 -34.95 -3.85 -34.7 -3.8 -34.65 -3.5 -34.45 -3.5 -34.35 -3.2 -34.2 -3.55 -33.25 -3.8 -31.25 -3.45 -31.0 Q-2.7 -31.4 -2.55 -32.4 L-2.15 -33.85 -2.95 -34.1 -2.15 -33.85 -2.15 -33.9 -2.05 -34.35 -1.5 -34.35 0.2 -34.3 0.35 -34.25 0.6 -34.25 0.65 -34.25 0.7 -33.95 0.7 -33.5 1.4 -31.25 1.75 -31.05 1.2 -30.65 Q-2.55 -29.5 -4.5 -31.95 -6.0 -33.9 -7.8 -35.45 L-7.85 -35.45 -7.4 -35.95 -7.25 -36.1 -7.15 -36.15 -7.1 -36.15 -6.8 -36.4 -5.85 -36.9 M-11.95 3.65 L-10.95 4.25 -10.8 4.3 -10.8 4.35 -11.95 3.65 M0.5 14.05 L0.55 14.05 0.25 13.9 0.5 14.05 M0.3 15.15 L0.2 15.55 0.1 15.65 0.1 15.6 0.2 15.5 0.3 15.15 M1.85 35.9 Q1.9 34.7 0.25 34.75 L-0.5 37.25 -0.6 37.55 0.1 35.2 -0.45 35.05 -1.15 34.9 -1.25 35.2 -1.05 34.6 Q-1.7 33.95 -2.55 34.05 L-2.7 34.25 -3.15 35.0 -2.85 34.45 -3.65 34.25 -3.55 33.9 Q-4.05 33.1 -5.1 33.1 L-5.5 33.85 -6.9 33.45 -6.85 32.75 -8.15 32.4 -8.5 32.95 -9.0 32.8 -9.8 32.55 Q-10.35 31.95 -11.25 31.9 L-11.3 32.15 -12.2 32.0 -12.1 31.15 Q-9.9 30.6 -7.5 31.1 1.35 32.95 9.8 35.75 10.45 36.2 10.4 36.85 L9.85 36.7 10.3 36.85 Q10.6 37.3 10.5 37.9 L10.5 37.95 9.6 37.75 9.65 37.6 9.75 37.15 9.65 37.55 8.75 37.45 8.65 37.4 8.5 37.4 7.65 36.95 7.75 36.55 Q7.05 35.95 5.9 36.1 L5.7 36.55 4.9 36.35 4.3 36.2 4.3 36.5 4.25 35.7 3.05 35.55 2.95 35.9 2.2 35.7 1.85 35.6 1.85 35.9 M0.2 48.35 L0.25 47.65 0.25 48.35 0.2 48.35 M10.1 48.65 L10.05 48.7 10.05 48.75 10.1 48.85 9.75 48.85 10.1 48.65 M-11.15 43.9 L-10.65 42.5 Q-0.5 42.3 9.35 42.5 L10.1 43.5 -3.95 43.9 -5.2 43.95 -7.1 43.9 -8.35 43.8 -11.15 43.9 M11.0 47.65 L10.95 48.1 11.0 47.65 M10.8 49.15 L10.25 50.95 -7.5 51.6 Q-9.4 51.7 -10.35 50.35 L-10.2 50.45 -9.6 50.45 -8.2 50.35 -6.7 50.3 -2.3 50.45 0.25 50.4 1.8 50.3 5.65 50.1 8.6 50.0 10.6 49.9 10.8 49.15 M-12.2 -46.75 L-12.05 -45.5 Q-11.35 -43.4 -9.35 -42.35 L-9.35 -41.85 -9.55 -41.35 -9.6 -40.7 -9.85 -40.05 Q-11.1 -40.45 -12.0 -41.8 -13.55 -43.95 -13.8 -46.65 L-12.2 -46.75 M-7.55 -41.55 L-7.55 -41.5 -7.6 -41.5 -7.55 -41.55 M-7.95 -41.45 L-7.8 -41.5 -8.0 -41.45 -8.0 -41.5 -7.95 -41.45 M-18.85 -3.9 L-18.9 -4.0 -18.85 -4.0 -18.85 -3.9 M-2.25 -6.5 L-2.3 -6.55 -2.25 -6.5 M-1.65 9.3 L-1.65 9.25 -1.65 9.3 M-11.8 34.2 L-11.85 34.2 -11.75 33.85 -11.8 34.2" fill="#666666" fill-rule="evenodd" stroke="none"/>
    <path d="M5.85 -40.05 L5.85 -40.1 4.85 -39.0 3.1 -36.6 1.7 -34.5 1.55 -34.25 0.65 -34.25 0.6 -34.25 0.35 -34.25 0.2 -34.3 -1.5 -34.35 -3.4 -34.35 -3.8 -34.65 -3.85 -34.7 -4.05 -34.95 -5.1 -36.2 -5.85 -36.9 -6.25 -37.35 -6.65 -37.85 -7.5 -39.05 -8.2 -40.15 -7.9 -39.3 Q-8.4 -40.3 -8.4 -41.4 -8.4 -41.85 -7.95 -41.95 L-7.7 -41.95 -7.65 -41.95 -7.2 -41.65 -7.1 -41.4 -7.05 -40.1 -4.9 -37.85 -4.05 -36.95 -3.8 -36.55 -3.6 -36.5 Q-1.9 -34.8 0.85 -35.75 3.7 -38.35 5.6 -41.65 L5.85 -40.05 M-7.65 -41.95 L-7.65 -41.9 -7.65 -41.95 M-7.55 -41.55 L-7.6 -41.5 -7.55 -41.5 -7.55 -41.55 M-7.95 -41.45 L-8.0 -41.5 -8.0 -41.45 -7.8 -41.5 -7.95 -41.45" fill="#cccccc" fill-rule="evenodd" stroke="none"/>
    <path d="M0.2 -27.1 L0.3 -25.7 Q0.2 -24.65 -0.55 -23.95 L-0.6 -23.85 -0.9 -23.6 -1.7 -23.15 Q-1.65 -23.85 -2.75 -24.2 L-4.25 -24.0 -4.65 -23.8 -4.7 -23.9 Q-5.1 -24.8 -5.1 -25.85 L-5.1 -26.5 -5.1 -26.6 Q-3.55 -27.35 -1.65 -27.2 L0.2 -27.1 M6.3 33.55 Q6.05 33.1 6.1 32.65 L7.05 32.0 7.55 31.6 7.7 31.45 7.75 31.35 7.85 31.3 7.9 31.2 Q8.95 30.15 10.3 29.75 L10.35 30.0 10.35 29.95 10.4 30.1 9.9 30.7 Q8.35 32.15 7.2 33.9 L7.15 33.9 6.3 33.55 M4.35 27.95 L4.2 28.05 4.1 28.1 3.95 28.2 2.85 28.85 2.65 29.0 2.4 29.15 0.9 30.3 -0.45 31.1 -1.0 31.2 Q-1.9 31.35 -2.1 30.5 L-1.65 30.15 Q0.75 28.4 3.3 26.85 L3.45 26.7 3.65 26.6 7.25 24.85 8.5 24.45 8.25 25.15 Q7.65 26.15 6.55 26.75 L4.35 27.95 M5.65 5.0 L5.6 5.0 -2.0 5.25 -2.15 5.35 -2.15 5.4 -2.4 5.5 -2.55 5.6 -2.6 5.6 Q-2.75 5.4 -3.05 5.4 L-2.75 5.5 -3.95 5.95 -4.05 6.0 -6.05 7.1 Q-7.45 7.9 -8.65 8.9 L-9.05 9.15 -9.85 9.65 -10.9 10.1 -11.4 10.3 -11.65 10.45 -11.85 10.6 -13.25 10.55 Q-13.75 10.3 -13.6 9.7 L-13.55 9.6 -11.75 8.8 -8.15 6.25 -8.05 6.15 -6.7 5.1 -6.6 5.05 Q-4.55 3.7 -2.0 3.45 L-0.6 3.4 Q2.55 3.4 5.3 4.55 L5.65 5.0 M18.75 -8.1 Q18.3 -7.7 17.6 -7.4 16.95 -7.15 16.4 -7.4 L16.0 -7.65 16.3 -8.25 16.4 -8.5 16.85 -10.05 16.9 -12.15 16.9 -12.8 17.75 -13.0 Q19.15 -12.85 19.5 -11.3 L19.6 -10.7 19.6 -10.45 19.4 -9.95 19.15 -9.45 19.15 -9.35 19.0 -8.85 18.9 -8.55 18.85 -8.35 18.85 -8.2 18.75 -8.1 M11.05 -10.95 L11.0 -11.0 10.95 -11.1 11.05 -11.4 11.2 -11.8 12.45 -15.8 12.6 -16.6 12.7 -16.6 Q14.2 -16.1 14.5 -14.55 L14.55 -13.65 Q14.45 -12.1 13.6 -10.85 L13.45 -10.65 13.35 -10.55 13.2 -10.5 13.0 -10.45 12.8 -10.4 11.85 -10.4 11.1 -10.9 11.05 -10.95 M7.2 -21.9 Q7.4 -21.3 8.1 -21.15 L8.45 -20.9 9.0 -20.6 8.95 -20.2 8.5 -18.25 8.5 -18.15 7.8 -16.75 Q7.0 -15.5 5.75 -14.65 L5.15 -14.4 5.6 -14.55 4.8 -15.3 4.35 -15.75 3.4 -16.4 4.35 -17.35 4.95 -18.15 6.35 -20.75 6.6 -21.2 6.85 -21.8 6.35 -21.35 7.15 -22.05 7.2 -21.9 M4.85 -9.2 L4.5 -9.0 Q3.3 -8.05 3.9 -7.25 L1.4 -8.95 Q1.55 -10.1 2.55 -10.6 L4.4 -9.55 4.45 -9.5 4.5 -9.5 4.65 -9.35 4.85 -9.25 4.85 -9.2 M-0.9 -4.95 L-0.7 -5.6 -0.6 -5.8 -0.55 -5.9 Q0.1 -6.9 1.05 -7.35 L1.8 -7.6 3.5 -6.5 3.65 -6.35 3.65 -6.3 3.6 -5.75 3.55 -5.8 Q2.95 -5.8 2.5 -5.4 1.6 -4.55 1.4 -3.35 L1.35 -2.9 1.0 -2.9 0.95 -2.9 0.9 -2.95 0.6 -3.25 -0.05 -3.8 -0.9 -4.55 -0.9 -4.6 -0.9 -4.95 M19.65 -6.25 L19.65 -6.3 20.65 -10.1 21.2 -11.2 21.25 -11.2 21.7 -11.4 Q23.35 -10.8 23.5 -9.15 L23.45 -8.5 23.4 -8.1 23.35 -7.9 22.95 -6.9 22.65 -6.45 22.45 -6.2 21.4 -5.5 Q20.6 -5.1 19.95 -5.8 L19.95 -5.85 19.75 -6.05 19.65 -6.25 M1.35 9.0 L1.15 8.55 1.35 9.0 M0.2 12.2 L0.2 11.95 Q-0.55 11.4 -0.75 10.1 -0.9 8.8 0.2 8.3 1.6 8.3 2.35 9.55 L2.6 10.05 Q2.3 9.7 1.75 9.5 0.7 9.45 0.3 10.5 -0.05 11.45 0.7 12.05 L0.9 12.2 0.85 12.2 0.8 12.2 0.2 12.2 M2.4 11.7 L2.55 11.45 2.4 11.75 2.4 11.7 M3.1 10.95 Q3.5 10.15 4.75 9.9 L5.0 9.85 Q6.3 10.45 7.35 11.3 L7.35 11.35 6.2 11.25 Q3.75 11.8 4.45 14.1 L3.75 13.85 3.5 12.75 3.25 11.6 3.1 10.95 M-0.1 18.2 L-0.3 17.75 -0.35 17.2 -0.35 17.05 -0.35 16.95 Q-0.25 15.65 1.0 15.35 2.65 15.4 2.7 16.8 L1.75 16.55 Q0.45 17.15 0.85 18.65 L0.35 18.5 -0.1 18.2 M1.0 24.4 Q0.15 25.2 0.35 26.0 L-0.2 25.55 -0.35 25.3 -0.4 25.25 -0.5 24.25 -0.5 24.2 -0.25 23.55 -0.1 23.55 Q1.1 23.6 2.05 22.9 L2.35 22.7 Q2.95 23.05 2.9 24.0 L2.45 23.8 Q1.65 23.85 1.0 24.4 M8.1 20.85 L8.05 21.6 7.75 22.1 7.7 22.15 Q7.4 22.6 6.8 22.4 5.55 21.9 6.2 20.65 L6.35 20.45 8.1 20.85 M-20.2 -13.8 L-20.4 -14.1 -20.3 -14.0 -20.05 -13.8 -19.15 -13.05 Q-19.7 -13.5 -20.2 -13.8 M-20.9 -10.9 L-21.45 -10.35 Q-22.6 -9.1 -22.65 -7.5 L-22.8 -6.7 -22.85 -6.4 -23.2 -6.3 -23.7 -6.25 -24.25 -6.6 Q-25.35 -8.0 -24.55 -9.65 -23.9 -11.1 -22.85 -12.3 L-22.2 -11.75 -21.85 -11.5 -21.2 -11.1 -20.9 -10.9 M-19.0 -14.3 L-18.6 -14.2 Q-18.15 -14.05 -17.85 -13.75 L-18.1 -13.5 -18.1 -13.45 -19.0 -14.3 M-8.9 -21.05 L-8.5 -22.15 -7.75 -22.95 Q-7.05 -23.5 -6.1 -23.35 L-5.65 -23.25 Q-5.15 -22.35 -4.45 -21.6 -5.7 -20.9 -5.85 -19.3 L-5.8 -18.85 -5.95 -19.0 -6.3 -19.3 -6.95 -19.75 -8.7 -20.9 -8.75 -20.9 -8.9 -21.05 M-10.55 -20.0 L-10.5 -19.95 -10.1 -19.75 -9.9 -19.55 -9.9 -19.5 -9.85 -19.45 -9.65 -19.1 Q-10.35 -19.05 -11.05 -18.5 -12.15 -17.6 -12.1 -16.35 L-12.0 -15.85 -12.7 -15.85 -13.45 -16.3 -14.3 -16.75 -14.3 -16.9 Q-14.2 -19.85 -11.2 -20.0 L-11.15 -20.0 -11.0 -20.0 -10.55 -20.0 M-5.95 -11.5 L-5.9 -11.65 -5.0 -12.8 Q-3.95 -13.85 -2.45 -14.55 L-2.15 -14.5 -1.3 -14.3 -0.95 -14.15 Q-0.65 -13.7 -0.85 -12.95 -2.55 -12.55 -3.6 -11.0 L-4.05 -10.15 -4.1 -10.05 -4.15 -10.0 -4.4 -9.85 -4.55 -9.75 Q-6.1 -9.9 -6.0 -11.3 L-5.95 -11.5 M-11.55 -11.7 Q-10.5 -11.7 -9.9 -11.0 L-9.9 -10.95 -9.85 -10.9 -9.8 -10.85 -9.5 -10.05 -9.45 -9.95 -9.45 -9.85 -9.7 -9.85 Q-11.05 -9.5 -12.05 -8.5 L-13.75 -6.65 -14.5 -5.3 -15.2 -5.5 -15.25 -5.5 Q-15.9 -5.8 -16.15 -6.35 L-16.25 -6.95 -16.25 -7.05 Q-16.2 -8.1 -15.6 -9.0 L-15.5 -9.1 -15.3 -9.4 -15.2 -9.45 -14.55 -10.2 -14.3 -10.45 -12.45 -11.65 -11.55 -11.7 M-18.15 -1.85 L-18.1 -1.85 -17.55 -1.75 -16.6 -0.55 -17.15 -0.25 Q-18.5 1.1 -18.9 2.95 L-18.85 3.45 Q-19.9 3.5 -20.7 2.1 L-20.8 1.9 -20.9 1.3 -20.85 1.2 -20.8 0.95 -20.45 0.15 -20.2 -0.35 -18.75 -1.65 -18.65 -1.7 -18.2 -1.85 -18.15 -1.85 M-4.8 11.35 L-4.35 11.0 -4.1 10.85 -3.9 10.75 -3.8 10.7 -3.3 10.65 Q-1.95 10.95 -1.95 12.15 L-2.55 12.1 -3.1 12.4 Q-4.9 13.4 -4.5 15.2 L-4.4 15.45 Q-5.15 15.7 -5.7 15.0 -6.35 14.2 -5.7 13.4 L-5.65 12.85 -5.05 11.7 -4.8 11.35 M-0.35 9.8 L-0.4 9.75 -0.4 9.85 -0.35 9.8 M-7.0 13.85 L-7.3 14.6 -7.35 14.8 -7.4 14.95 -7.55 15.5 -7.6 15.5 -8.6 15.8 Q-9.45 16.4 -9.8 17.35 -10.1 18.25 -10.0 19.05 L-10.2 18.85 Q-11.05 17.9 -11.0 16.55 L-10.95 16.2 Q-10.6 15.1 -9.9 14.1 -9.35 13.6 -8.55 13.35 -7.6 13.35 -7.05 13.8 L-7.0 13.85 M-7.5 23.85 L-7.5 23.8 -7.4 23.3 Q-7.0 21.25 -5.3 20.3 L-5.05 20.15 Q-3.05 20.6 -3.2 22.35 L-4.25 22.05 -5.7 23.0 Q-6.9 23.95 -6.95 25.1 L-7.5 23.85 M-11.0 37.8 L-10.9 37.7 -9.7 38.0 -10.75 37.75 -10.95 38.1 -10.95 38.15 -10.85 38.8 -11.0 37.8 M-10.45 39.65 L-10.7 39.6 -10.7 39.45 -10.45 39.65 M-8.7 59.7 L-8.75 59.65 Q-10.1 58.75 -9.65 57.15 L-9.3 56.3 Q-9.45 55.4 -8.85 54.7 L-7.85 54.0 -7.6 54.0 -6.85 54.2 Q-6.5 54.3 -6.25 54.55 L-5.9 55.1 -5.8 55.25 Q-7.05 56.25 -7.65 57.9 -8.15 59.15 -7.45 59.75 L-7.7 59.9 -8.5 59.8 -8.7 59.7 M-1.15 58.05 L-0.55 58.1 Q0.65 59.45 -0.3 61.2 L-0.85 62.05 Q-1.75 63.25 -2.9 62.2 L-3.2 61.6 Q-3.4 59.1 -1.15 58.05" fill="#606060" fill-rule="evenodd" stroke="none"/>
    <path d="M-5.1 -25.85 Q-5.1 -24.8 -4.7 -23.9 L-4.65 -23.8 -4.25 -24.0 -2.75 -24.2 Q-1.65 -23.85 -1.7 -23.15 L-0.9 -23.6 -0.6 -23.85 -0.55 -23.95 Q0.2 -24.65 0.3 -25.7 L0.2 -27.1 2.15 -27.1 2.2 -25.45 3.1 -24.7 3.05 -24.75 3.0 -24.75 4.0 -24.35 Q3.9 -22.8 3.2 -21.35 2.4 -19.75 1.05 -18.75 L-0.5 -17.95 -4.55 -17.8 -4.55 -17.75 -3.25 -16.45 -3.15 -16.35 -3.05 -16.3 -2.9 -16.1 -1.9 -15.95 Q-0.95 -15.8 -0.15 -15.25 L0.0 -15.15 0.15 -15.05 0.3 -14.95 0.5 -14.75 0.75 -14.5 0.8 -14.45 2.7 -18.1 6.2 -23.15 6.0 -23.25 6.15 -23.35 7.25 -23.45 7.7 -23.0 7.9 -22.55 8.4 -22.9 9.95 -22.05 Q10.85 -18.7 9.7 -15.4 L9.05 -13.9 Q7.75 -11.3 4.7 -11.75 L3.15 -12.05 2.85 -12.1 2.8 -12.1 3.45 -11.7 5.35 -10.55 5.75 -10.35 8.4 -9.05 8.65 -9.45 8.85 -9.85 9.8 -11.8 10.2 -12.8 10.55 -13.9 10.55 -13.95 Q11.15 -16.1 11.35 -18.45 L11.35 -18.8 Q11.9 -18.8 12.35 -18.3 L12.55 -18.0 12.8 -17.55 12.85 -17.7 Q13.6 -17.1 14.6 -16.55 L14.75 -16.45 14.9 -15.75 15.0 -14.25 Q15.0 -12.2 14.3 -10.35 13.65 -8.85 12.55 -7.5 12.05 -6.9 11.4 -6.9 L13.45 -5.75 13.95 -5.5 Q14.95 -6.95 15.5 -8.5 L15.9 -10.15 Q16.15 -11.8 15.95 -13.55 L15.7 -14.9 15.65 -15.25 15.4 -15.8 15.7 -15.85 Q16.3 -15.95 16.9 -15.45 L17.55 -14.85 17.75 -14.65 Q19.25 -14.2 20.45 -13.1 L20.5 -12.3 20.5 -13.0 21.25 -12.75 21.9 -12.2 22.15 -12.55 22.3 -12.4 22.55 -12.2 23.1 -11.65 23.95 -10.35 24.4 -9.2 24.45 -9.0 Q24.7 -6.85 23.4 -5.05 L23.05 -4.65 Q21.5 -3.3 19.65 -4.15 L19.6 -4.15 19.65 -3.8 19.65 -3.35 Q19.65 -2.7 19.9 -2.25 19.6 -1.6 18.8 -1.5 L18.65 -2.35 18.85 -8.2 18.85 -8.35 18.9 -8.55 19.0 -8.85 19.15 -9.35 19.15 -9.45 19.4 -9.95 19.6 -10.45 19.6 -10.7 19.5 -11.3 Q19.15 -12.85 17.75 -13.0 L16.9 -12.8 16.9 -12.15 16.85 -10.05 16.4 -8.5 16.3 -8.25 16.0 -7.65 16.4 -7.4 Q16.95 -7.15 17.6 -7.4 18.3 -7.7 18.75 -8.1 L18.8 -8.0 18.55 -6.4 18.45 -6.3 18.25 -5.45 17.8 -4.65 Q16.0 -3.65 14.95 -4.95 L14.9 -4.75 18.0 -1.15 18.65 -1.3 Q18.55 0.45 16.85 0.15 L16.8 -0.85 16.7 -0.95 15.9 -1.8 15.7 -2.0 14.75 -2.9 14.55 -3.05 13.95 -3.55 12.8 -4.4 13.3 -4.05 13.3 -3.75 Q13.3 -3.2 12.9 -2.8 L12.65 -2.45 Q11.45 -1.95 10.4 -2.15 L10.65 -1.9 10.9 -1.7 12.35 -0.35 13.7 0.95 15.5 2.75 15.7 2.6 Q15.7 3.45 14.8 3.95 L14.8 3.8 13.05 1.85 12.5 1.25 11.9 0.6 11.9 0.65 Q11.85 1.4 10.95 2.05 L9.9 2.55 Q7.3 3.05 5.05 2.1 L5.15 2.25 5.5 2.75 5.55 2.8 6.6 4.05 7.15 4.6 7.65 5.0 Q9.35 6.35 11.55 6.95 L11.65 6.95 11.75 7.0 11.95 7.05 13.25 7.25 Q13.45 7.85 13.3 8.6 L12.9 9.2 12.4 9.4 12.35 9.05 11.7 8.9 10.6 8.55 10.55 8.35 9.2 7.85 Q7.65 7.0 6.4 5.75 L6.2 5.6 5.95 5.3 5.7 5.05 5.65 5.0 5.7 5.05 5.75 5.55 Q5.35 7.65 3.0 7.75 L2.45 7.85 Q6.45 8.65 9.55 11.55 L11.0 13.3 Q10.9 14.7 10.05 15.85 L10.1 15.25 10.15 14.6 9.55 13.7 9.15 14.6 Q8.6 15.4 7.6 15.85 L7.25 16.15 4.8 16.45 4.75 16.45 5.2 17.25 5.55 18.05 5.8 18.65 5.85 18.8 Q6.8 19.55 8.15 19.5 L8.25 19.45 8.75 19.15 9.05 18.9 9.15 20.6 9.2 21.2 9.1 21.1 Q9.45 21.35 9.45 21.85 L9.8 22.55 9.9 24.1 9.6 24.15 8.5 24.45 7.25 24.85 3.65 26.6 3.45 26.7 3.3 26.85 Q0.75 28.4 -1.65 30.15 L-2.1 30.5 Q-1.9 31.35 -1.0 31.2 L-0.45 31.1 0.9 30.3 2.4 29.15 2.65 29.0 2.85 28.85 3.95 28.2 4.1 28.1 4.2 28.05 4.35 27.95 5.1 27.55 5.8 28.3 Q6.25 28.9 6.15 29.6 L5.7 31.3 5.55 31.55 6.2 31.05 8.75 29.25 9.25 28.85 9.55 28.55 10.1 27.7 10.4 27.0 10.4 26.8 Q10.75 27.7 10.5 28.85 L10.4 29.65 10.35 29.95 10.35 30.0 10.3 29.75 Q8.95 30.15 7.9 31.2 L7.85 31.3 7.75 31.35 7.7 31.45 7.55 31.6 7.05 32.0 6.1 32.65 Q6.05 33.1 6.3 33.55 L5.6 32.95 4.55 32.3 4.35 32.45 Q2.5 32.65 0.8 32.05 L-2.2 31.15 -2.8 31.1 Q-3.7 30.95 -4.45 30.45 L-4.55 30.35 -4.4 30.4 -1.7 28.35 -1.6 24.85 Q-1.55 23.6 -1.85 22.55 -1.5 25.0 -3.8 26.9 L-5.9 28.3 -6.1 28.4 -7.9 28.65 Q-7.9 29.55 -7.35 29.9 -8.15 29.95 -8.7 29.5 L-8.9 27.35 -8.9 25.95 -8.85 24.85 -8.85 24.7 -8.85 24.65 -9.1 24.75 -9.4 25.25 -9.65 25.55 -9.9 25.85 -12.0 25.95 -12.1 25.55 Q-12.35 24.55 -12.2 23.6 L-11.65 22.15 Q-12.75 21.4 -12.7 20.15 L-12.7 20.0 Q-13.65 18.95 -14.05 17.8 L-14.45 14.4 -14.35 13.8 -14.15 13.85 -14.2 13.4 -14.35 11.5 -15.0 10.25 -15.05 10.1 -14.75 10.05 -15.0 10.1 -15.45 8.75 -15.3 8.8 -15.15 8.8 -14.5 8.8 -14.05 8.7 -13.35 8.45 -13.0 8.2 -12.85 8.15 -10.7 6.6 -10.0 6.1 -9.45 5.7 -8.9 5.3 -9.95 4.8 -10.2 4.65 -10.8 4.35 -10.8 4.3 -10.95 4.25 -11.95 3.65 Q-12.6 3.25 -13.2 2.8 L-13.25 3.2 Q-13.4 4.15 -14.1 4.9 L-14.2 4.95 Q-16.2 6.95 -18.6 6.4 L-18.65 6.4 -19.25 5.55 -19.35 5.4 -20.15 4.1 -20.25 3.95 -20.3 3.85 -20.35 3.75 -20.85 2.7 -20.85 2.6 Q-22.2 3.15 -23.0 2.2 L-22.65 2.25 -22.6 2.25 -22.65 1.85 -22.75 0.85 -22.75 0.7 -22.75 0.05 -22.75 -0.1 -22.7 -0.35 -22.7 -0.5 -22.6 -1.1 -22.45 -1.65 -22.25 -2.2 -22.0 -2.7 -21.95 -2.75 -21.8 -2.9 -21.25 -3.35 -20.75 -3.9 -19.0 -6.5 -18.9 -6.8 -18.85 -6.9 -18.15 -8.6 -16.7 -11.6 -16.3 -12.05 -14.3 -14.3 -14.05 -14.6 -14.65 -15.25 -15.0 -15.55 -15.1 -15.6 -15.85 -15.95 -16.0 -16.0 -16.05 -16.1 -16.05 -16.65 -15.7 -17.15 -15.45 -17.25 -15.6 -17.3 Q-15.2 -19.45 -13.25 -20.65 L-11.4 -20.4 -11.4 -20.75 Q-11.4 -21.25 -11.0 -21.55 L-10.25 -21.7 -10.15 -21.7 -10.2 -21.75 -10.25 -21.75 Q-8.6 -24.1 -6.1 -24.15 -6.05 -25.1 -5.35 -25.75 L-5.2 -25.8 -5.1 -25.85 M-21.0 2.15 L-20.85 2.6 -21.0 2.15 -21.25 1.0 -21.0 2.15 M-10.9 10.1 L-9.85 9.65 -9.05 9.15 -8.65 8.9 Q-7.45 7.9 -6.05 7.1 L-4.05 6.0 -3.95 5.95 -2.75 5.5 -3.05 5.4 Q-2.75 5.4 -2.6 5.6 L-2.55 5.6 -2.4 5.5 -2.15 5.4 -2.15 5.35 -2.0 5.25 5.6 5.0 5.65 5.0 5.3 4.55 Q2.55 3.4 -0.6 3.4 L-2.0 3.45 Q-4.55 3.7 -6.6 5.05 L-6.7 5.1 -8.05 6.15 -8.15 6.25 -11.75 8.8 -13.55 9.6 -13.6 9.7 Q-13.75 10.3 -13.25 10.55 L-11.85 10.6 -11.65 10.45 -10.9 10.1 M11.85 -10.4 L12.8 -10.4 13.0 -10.45 13.2 -10.5 13.35 -10.55 13.45 -10.65 13.6 -10.85 Q14.45 -12.1 14.55 -13.65 L14.5 -14.55 Q14.2 -16.1 12.7 -16.6 L12.6 -16.6 12.45 -15.8 11.2 -11.8 11.05 -11.4 10.95 -11.1 11.0 -11.0 11.05 -10.95 11.1 -10.9 11.85 -10.4 M7.2 -21.9 L7.15 -22.05 6.35 -21.35 6.85 -21.8 6.6 -21.2 6.35 -20.75 4.95 -18.15 4.35 -17.35 3.4 -16.4 4.35 -15.75 4.8 -15.3 5.6 -14.55 5.15 -14.4 5.75 -14.65 Q7.0 -15.5 7.8 -16.75 L8.5 -18.15 8.5 -18.25 8.95 -20.2 9.0 -20.6 8.45 -20.9 8.1 -21.15 Q7.4 -21.3 7.2 -21.9 M1.7 -12.9 L1.8 -12.8 1.8 -12.85 1.7 -13.0 1.7 -12.9 M4.85 -9.25 L4.65 -9.35 4.5 -9.5 4.45 -9.5 4.4 -9.55 2.55 -10.6 Q1.55 -10.1 1.4 -8.95 L3.9 -7.25 Q3.3 -8.05 4.5 -9.0 L4.85 -9.2 4.9 -9.2 4.85 -9.25 M3.65 -6.35 L3.5 -6.5 1.8 -7.6 1.05 -7.35 Q0.1 -6.9 -0.55 -5.9 L-0.6 -5.8 -0.7 -5.6 -0.9 -4.95 -1.25 -4.85 -0.9 -4.55 -0.05 -3.8 0.6 -3.25 0.9 -2.95 0.95 -2.9 1.0 -2.9 1.35 -2.9 1.4 -3.35 Q1.6 -4.55 2.5 -5.4 2.95 -5.8 3.55 -5.8 L3.6 -5.75 3.65 -6.3 3.75 -6.3 3.65 -6.35 M19.75 -6.05 L19.95 -5.85 19.95 -5.8 Q20.6 -5.1 21.4 -5.5 L22.45 -6.2 22.65 -6.45 22.95 -6.9 23.35 -7.9 23.4 -8.1 23.45 -8.5 23.5 -9.15 Q23.35 -10.8 21.7 -11.4 L21.25 -11.2 21.2 -11.2 20.65 -10.1 19.65 -6.3 19.65 -6.25 19.6 -5.9 19.75 -6.05 M2.3 1.7 L3.1 1.8 3.15 1.8 -1.5 -2.95 -2.9 -4.45 -3.2 -4.95 -3.25 -5.05 -3.65 -5.65 -4.15 -6.1 -4.7 -6.45 -4.15 -6.1 Q-3.55 -4.35 -4.05 -2.45 L-4.2 -1.9 Q-4.9 -0.35 -6.3 0.65 L-6.35 0.65 -6.35 0.7 Q-7.65 1.5 -9.15 1.95 L-12.35 2.1 -11.1 2.8 -10.7 3.0 -10.5 3.1 -9.55 3.5 -9.0 3.65 -8.5 3.8 -8.2 3.9 -7.9 3.95 -7.55 4.05 -7.4 4.0 -5.25 3.25 -2.4 2.3 -1.95 2.15 2.3 1.7 M2.55 9.1 L2.6 9.05 2.55 9.05 2.55 9.1 M0.9 12.2 L0.7 12.05 Q-0.05 11.45 0.3 10.5 0.7 9.45 1.75 9.5 2.3 9.7 2.6 10.05 L2.35 9.55 Q1.6 8.3 0.2 8.3 -0.9 8.8 -0.75 10.1 -0.55 11.4 0.2 11.95 L0.2 12.2 -0.05 13.6 0.05 13.75 0.25 13.9 0.55 14.05 0.5 14.05 1.2 14.1 2.75 14.3 2.4 11.75 2.55 11.45 2.4 11.7 2.2 11.9 Q1.6 12.6 0.9 12.2 M3.1 10.95 L3.25 11.6 3.5 12.75 3.75 13.85 4.45 14.1 Q3.75 11.8 6.2 11.25 L7.35 11.35 7.35 11.3 Q6.3 10.45 5.0 9.85 L4.75 9.9 Q3.5 10.15 3.1 10.95 M0.1 15.65 L0.0 15.8 -0.05 15.9 Q0.25 15.35 0.85 15.2 L0.55 15.3 0.45 15.05 0.35 14.7 0.35 14.75 0.3 15.15 0.2 15.5 0.1 15.6 0.1 15.65 M1.55 15.15 L2.1 15.2 2.0 15.15 1.55 15.15 M-0.1 18.2 L-0.05 18.25 0.15 18.45 0.35 18.5 0.85 18.65 Q0.45 17.15 1.75 16.55 L2.7 16.8 Q2.65 15.4 1.0 15.35 -0.25 15.65 -0.35 16.95 L-0.35 17.05 -0.35 17.2 -0.3 17.75 -0.1 18.2 M4.35 17.4 L3.8 16.55 4.1 17.5 4.05 18.6 Q3.4 20.65 1.25 21.05 L-1.2 20.85 -1.2 20.7 Q-1.1 21.85 -0.65 22.35 -0.15 22.9 0.9 22.35 2.75 21.3 4.4 21.4 4.95 19.5 4.35 17.4 M1.0 24.4 Q1.65 23.85 2.45 23.8 L2.9 24.0 Q2.95 23.05 2.35 22.7 L2.05 22.9 Q1.1 23.6 -0.1 23.55 L-0.25 23.55 -0.5 24.2 -0.5 24.25 -0.4 25.25 -0.35 25.3 -0.2 25.55 0.35 26.0 Q0.15 25.2 1.0 24.4 M8.05 21.6 L8.15 21.3 8.4 20.9 8.45 20.9 8.4 20.9 8.1 20.85 6.35 20.45 6.2 20.65 Q5.55 21.9 6.8 22.4 7.4 22.6 7.7 22.15 L7.75 22.1 8.05 21.6 M-4.25 52.85 L1.45 53.15 6.45 53.0 6.2 53.7 Q5.7 54.85 4.55 55.5 L3.7 55.9 2.4 55.65 -1.55 54.75 -1.65 54.75 -1.75 54.7 -3.5 54.1 -4.6 53.65 -4.35 52.95 -4.25 52.85 M-10.2 53.45 L-10.1 53.3 -9.6 53.35 Q-7.5 53.5 -5.8 54.45 L-5.65 54.55 -5.45 54.65 -5.3 54.75 Q-3.6 55.6 -1.7 56.1 L3.35 57.15 3.75 57.25 4.2 58.15 Q5.0 60.4 3.6 61.85 L2.55 62.6 Q-0.5 64.3 -3.75 63.8 L-3.95 63.55 Q-4.9 62.2 -6.3 61.25 L-6.45 61.15 -6.6 61.05 -6.9 60.9 -7.35 61.65 -8.5 61.15 -9.8 60.8 Q-11.15 60.45 -11.9 59.2 -11.95 56.95 -11.1 55.05 L-10.45 53.8 -10.2 53.45 M-22.85 -12.3 Q-23.9 -11.1 -24.55 -9.65 -25.35 -8.0 -24.25 -6.6 L-23.7 -6.25 -23.2 -6.3 -22.85 -6.4 -22.8 -6.7 -22.65 -7.5 Q-22.6 -9.1 -21.45 -10.35 L-20.9 -10.9 -20.85 -10.85 -20.25 -10.6 -18.45 -10.65 -18.15 -11.0 Q-17.35 -12.0 -17.95 -13.2 L-17.95 -13.25 -18.1 -13.45 -18.1 -13.5 -17.85 -13.75 Q-18.15 -14.05 -18.6 -14.2 L-19.0 -14.3 -19.1 -14.35 -19.45 -14.7 -19.95 -15.15 -18.7 -15.7 -18.15 -15.9 -17.45 -16.05 -17.25 -14.95 -17.25 -14.7 -17.3 -13.25 -17.35 -12.75 -17.35 -11.75 -17.4 -11.25 Q-17.75 -9.8 -18.85 -8.7 -20.35 -6.35 -23.05 -5.2 L-23.35 -4.05 Q-23.65 -3.4 -24.1 -2.85 L-24.35 -2.55 -25.15 -2.65 -26.45 -2.15 -26.55 -2.9 -26.6 -3.05 -26.85 -3.6 Q-27.5 -5.1 -27.1 -6.7 L-27.05 -6.8 Q-26.7 -6.75 -26.5 -6.5 L-27.1 -6.85 -26.9 -7.7 -26.75 -7.95 -26.75 -8.0 -26.65 -8.15 -26.35 -8.75 -26.05 -8.85 Q-25.25 -9.3 -25.15 -10.2 L-25.15 -10.6 -25.1 -10.7 -24.15 -11.65 -23.1 -12.55 -22.85 -12.3 M-5.95 -19.0 L-5.8 -18.85 -5.85 -19.3 Q-5.7 -20.9 -4.45 -21.6 -5.15 -22.35 -5.65 -23.25 L-6.1 -23.35 Q-7.05 -23.5 -7.75 -22.95 L-8.5 -22.15 -8.9 -21.05 -9.1 -21.15 -9.3 -21.25 -9.5 -21.35 -9.1 -21.15 -8.75 -20.9 -8.7 -20.9 -6.95 -19.75 -6.35 -19.3 -5.95 -19.0 M-11.2 -20.0 Q-14.2 -19.85 -14.3 -16.9 L-14.3 -16.75 -13.45 -16.3 -12.7 -15.85 -12.0 -15.85 -12.1 -16.35 Q-12.15 -17.6 -11.05 -18.5 -10.35 -19.05 -9.65 -19.1 L-9.85 -19.45 -9.9 -19.5 -9.9 -19.55 -10.1 -19.75 -10.5 -19.95 -10.55 -20.0 -10.85 -20.15 -11.2 -20.35 -11.2 -20.0 M-9.85 -19.6 L-8.85 -19.05 -6.45 -17.5 Q-5.55 -15.9 -7.4 -14.5 -8.25 -13.9 -9.3 -13.7 L-9.9 -13.6 -9.95 -13.6 -7.3 -11.6 -5.4 -13.6 -3.95 -14.5 -4.15 -14.65 -4.1 -14.7 -4.0 -14.8 -3.75 -15.2 -3.65 -15.35 -3.8 -15.5 -5.1 -16.5 -5.75 -17.0 -7.65 -18.3 -9.95 -19.65 -9.85 -19.6 M-6.0 -11.3 Q-6.1 -9.9 -4.55 -9.75 L-4.4 -9.85 -4.15 -10.0 -4.1 -10.05 -4.05 -10.15 -3.6 -11.0 Q-2.55 -12.55 -0.85 -12.95 -0.65 -13.7 -0.95 -14.15 L-1.3 -14.3 -2.15 -14.5 -2.45 -14.55 Q-3.95 -13.85 -5.0 -12.8 L-5.9 -11.65 -5.95 -11.5 -6.1 -11.25 -6.0 -11.3 M-10.4 -13.95 L-10.65 -14.2 -11.25 -14.7 -11.25 -14.6 -11.1 -14.55 -10.6 -14.15 -10.4 -13.95 M-11.75 -12.95 L-11.05 -12.55 -11.75 -12.95 M-11.55 -11.7 L-12.45 -11.65 -14.3 -10.45 -14.55 -10.2 -15.2 -9.45 -15.3 -9.4 -15.5 -9.1 -15.6 -9.0 Q-16.2 -8.1 -16.25 -7.05 L-16.25 -6.95 -16.15 -6.35 Q-15.9 -5.8 -15.25 -5.5 L-15.2 -5.5 -14.5 -5.3 -13.75 -6.65 -12.05 -8.5 Q-11.05 -9.5 -9.7 -9.85 L-9.45 -9.85 -9.45 -9.95 -9.5 -10.05 -9.8 -10.85 -9.85 -10.9 -9.9 -10.95 -9.9 -11.0 Q-10.5 -11.7 -11.55 -11.7 M-17.35 -3.7 L-17.3 -3.6 -17.25 -3.4 -17.3 -4.05 -17.4 -4.6 -17.45 -4.85 -17.5 -4.1 -17.35 -3.7 M-18.85 -3.9 L-18.85 -4.0 -18.9 -4.0 -18.85 -3.9 M-18.15 -1.85 L-18.2 -1.85 -18.65 -1.7 -18.75 -1.65 -20.2 -0.35 -20.45 0.15 -20.8 0.95 -20.85 1.2 -20.9 1.3 -20.8 1.9 -20.7 2.1 Q-19.9 3.5 -18.85 3.45 L-18.9 2.95 Q-18.5 1.1 -17.15 -0.25 L-16.6 -0.55 -17.55 -1.75 -17.85 -2.25 -18.0 -2.1 -18.15 -1.85 M-15.05 -0.1 L-14.8 0.15 -14.75 0.2 -14.8 0.05 -15.15 -0.2 -15.05 -0.1 M-2.25 -6.5 L-2.3 -6.55 -2.25 -6.5 M-0.35 -8.9 L-0.6 -9.0 -0.7 -8.9 -0.35 -8.9 M-1.65 9.3 Q-1.8 9.15 -2.0 9.15 -1.5 9.25 -1.2 10.05 L-1.25 9.95 -1.65 9.3 -1.65 9.25 -1.65 9.3 M-4.8 11.35 L-5.05 11.7 -5.65 12.85 -5.7 13.4 Q-6.35 14.2 -5.7 15.0 -5.15 15.7 -4.4 15.45 L-4.5 15.2 Q-4.9 13.4 -3.1 12.4 L-2.55 12.1 -1.95 12.15 Q-1.95 10.95 -3.3 10.65 L-3.8 10.7 -3.9 10.75 -4.1 10.85 -4.35 11.0 -4.4 10.85 -4.8 11.35 M-14.75 0.2 L-14.1 0.85 -14.4 0.55 -14.75 0.2 M-15.9 0.3 L-16.0 0.2 -16.05 0.1 -15.9 0.3 M-12.25 16.35 L-12.2 16.3 -12.25 16.35 M-7.05 13.8 Q-7.6 13.35 -8.55 13.35 -9.35 13.6 -9.9 14.1 -10.6 15.1 -10.95 16.2 L-11.0 16.55 Q-11.05 17.9 -10.2 18.85 L-10.0 19.05 Q-10.1 18.25 -9.8 17.35 -9.45 16.4 -8.6 15.8 L-7.6 15.5 -7.55 15.5 -7.4 14.95 -7.35 14.8 -7.3 14.6 -7.0 13.85 -6.65 12.9 -7.0 13.75 -7.05 13.8 M-12.7 18.55 L-12.7 19.7 -12.65 19.45 -12.65 18.55 -12.7 18.55 M-0.35 16.85 L-0.35 16.95 -0.15 16.1 -0.35 16.85 M-0.9 14.1 L-1.05 14.35 -1.15 14.55 -1.7 15.35 Q-3.25 17.3 -5.6 16.4 L-6.45 15.55 -6.45 15.5 -6.55 15.95 -6.55 16.1 -6.55 16.15 -6.2 18.3 -5.85 19.0 -5.8 19.1 Q-3.8 18.55 -1.95 19.4 L-1.9 19.25 -1.0 15.45 -0.9 14.1 M-7.5 23.85 L-6.95 25.1 Q-6.9 23.95 -5.7 23.0 L-4.25 22.05 -3.2 22.35 Q-3.05 20.6 -5.05 20.15 L-5.3 20.3 Q-7.0 21.25 -7.4 23.3 L-7.5 23.8 -7.5 23.85 M-0.05 26.95 L0.0 27.15 0.25 27.0 -0.05 26.95 M-9.7 38.0 L-6.55 38.8 -5.95 38.95 -6.25 39.2 Q-8.1 40.1 -10.25 39.7 L-10.45 39.65 -10.7 39.45 -10.85 38.8 -10.95 38.15 -10.95 38.1 -10.75 37.75 -9.7 38.0 M-7.7 59.9 L-7.45 59.75 Q-8.15 59.15 -7.65 57.9 -7.05 56.25 -5.8 55.25 L-5.9 55.1 -6.25 54.55 Q-6.5 54.3 -6.85 54.2 L-7.6 54.0 -7.85 54.0 -8.85 54.7 Q-9.45 55.4 -9.3 56.3 L-9.65 57.15 Q-10.1 58.75 -8.75 59.65 L-8.7 59.7 -8.5 59.8 -7.7 59.9 M-1.15 58.05 Q-3.4 59.1 -3.2 61.6 L-2.9 62.2 Q-1.75 63.25 -0.85 62.05 L-0.3 61.2 Q0.65 59.45 -0.55 58.1 L-1.15 58.05" fill="#003333" fill-rule="evenodd" stroke="none"/>
    <path d="M-23.25 -33.7 L-23.4 -33.7 -23.35 -34.55 -23.25 -33.7" fill="#663300" fill-rule="evenodd" stroke="none"/>
    <path d="M0.9 -64.7 L0.9 -64.65 0.85 -64.65 0.9 -64.7" fill="#99ff00" fill-rule="evenodd" stroke="none"/>
    <path d="M3.4 -48.65 L4.35 -48.25 4.3 -47.65 4.15 -47.0 3.4 -45.7 3.35 -45.65 3.25 -45.7 3.2 -45.75 2.65 -46.0 2.45 -46.05 2.2 -46.15 1.2 -46.6 1.25 -46.65 2.7 -48.15 2.75 -48.2 3.2 -48.55 3.4 -48.65" fill="#ffffff" fill-rule="evenodd" stroke="none"/>
    <path d="M-0.5 37.25 L-0.7 37.9 Q-0.35 38.8 0.7 38.6 L1.35 38.0 1.4 37.65 Q1.4 36.85 1.75 36.3 L1.85 35.9 1.85 35.6 2.2 35.7 2.95 35.9 2.1 37.55 2.05 37.6 2.0 37.7 1.9 38.1 1.85 38.1 Q1.75 38.8 2.65 39.4 3.3 39.8 3.85 39.1 L3.8 38.55 Q3.75 37.95 4.0 37.45 L4.0 37.4 4.05 37.35 4.1 37.25 4.15 37.15 4.25 36.85 4.25 36.7 4.3 36.5 4.3 36.2 4.9 36.35 5.7 36.55 Q5.25 37.6 5.05 38.8 L4.95 39.8 6.8 39.95 6.9 39.6 7.65 36.95 8.5 37.4 8.3 37.35 8.1 37.8 7.75 39.25 7.7 39.9 7.9 40.1 9.5 40.35 9.55 40.35 9.5 39.7 9.45 38.65 Q9.35 38.15 9.6 37.75 L10.5 37.95 Q10.9 39.25 10.45 40.6 L10.3 41.0 10.1 41.35 Q4.75 40.85 -0.3 39.15 -5.4 37.45 -10.7 36.4 -12.9 36.45 -12.8 35.05 L-12.7 34.6 -12.7 34.55 -12.65 34.2 -12.2 32.0 -11.3 32.15 -11.75 33.85 -11.85 34.2 -11.8 34.2 -11.9 34.5 Q-11.6 35.2 -10.55 35.3 L-10.2 34.9 Q-9.65 34.2 -9.55 33.2 L-9.55 33.1 -9.55 32.95 -9.55 32.9 -9.8 32.55 -9.0 32.8 -8.5 32.95 Q-9.15 34.0 -9.15 35.25 L-9.1 35.75 -7.7 35.75 -7.45 35.65 Q-7.0 34.55 -6.9 33.45 L-5.5 33.85 Q-6.05 34.9 -6.1 36.15 L-6.05 36.9 -4.55 37.05 -4.35 36.55 -4.4 36.55 -4.0 35.4 -3.65 34.25 -2.85 34.45 -3.15 35.0 -3.5 36.65 -3.5 36.8 -3.4 37.6 Q-1.85 38.4 -1.55 37.3 L-1.5 37.0 -1.3 35.45 -1.25 35.35 -1.25 35.2 -1.15 34.9 -0.45 35.05 0.1 35.2 -0.6 37.55 -0.5 37.25 M10.1 38.75 L10.15 38.6 10.05 38.65 10.1 38.75 M9.3 41.05 L9.2 41.1 9.35 41.15 9.45 41.0 9.3 41.05 M3.9 44.8 Q3.45 44.1 2.8 44.35 L1.45 44.6 1.4 45.6 Q1.4 47.0 1.7 48.35 L1.8 48.9 Q3.15 49.4 3.95 48.4 L4.0 48.3 3.9 44.8 M0.25 47.65 L0.3 44.85 Q0.2 44.05 -0.75 44.25 -1.8 44.45 -2.05 45.3 L-2.1 45.6 -2.05 46.25 -1.75 48.35 -1.65 49.15 0.2 49.0 0.2 48.35 0.25 48.35 0.25 47.65 M10.1 48.65 L10.15 48.6 10.25 48.5 10.25 48.4 10.4 46.25 10.45 46.0 Q10.45 45.05 9.25 44.85 8.65 45.2 8.45 45.9 L8.4 46.15 8.4 46.5 8.4 46.55 8.55 48.45 8.6 48.8 9.05 48.95 9.75 48.85 10.1 48.85 10.05 48.75 10.05 48.7 10.1 48.65 M5.3 46.1 L5.15 47.1 Q4.95 47.8 5.25 48.4 L5.7 49.05 Q6.8 49.1 7.3 48.45 L7.25 48.45 7.5 47.9 7.55 47.5 7.55 47.4 7.45 46.45 7.3 44.8 5.3 44.75 5.35 45.8 5.3 46.1 M10.1 43.5 Q10.75 44.65 10.95 46.05 L10.95 46.35 11.0 46.9 11.0 47.65 10.95 48.1 10.8 49.15 10.6 49.9 8.6 50.0 5.65 50.1 1.8 50.3 0.25 50.4 -2.3 50.45 -6.7 50.3 -8.2 50.35 -9.6 50.45 -10.2 50.45 -10.35 50.35 -10.35 50.3 -10.55 49.95 -11.0 48.8 -10.55 48.95 -9.85 48.85 -9.5 48.65 -9.45 48.6 -9.35 48.5 -9.35 48.4 -9.2 46.25 -9.15 46.0 Q-9.15 45.05 -10.35 44.85 -10.95 45.2 -11.15 45.9 L-11.2 46.15 -11.2 46.5 -11.2 46.55 -11.05 48.45 -11.0 48.75 Q-11.65 46.75 -11.35 44.75 L-11.15 43.9 -8.35 43.8 -7.1 43.9 -5.2 43.95 -3.95 43.9 10.1 43.5 M-4.6 53.65 L-5.8 53.1 -5.35 52.75 -4.25 52.85 -4.35 52.95 -4.6 53.65 M-11.0 37.8 L-11.05 37.65 -10.9 37.7 -11.0 37.8 M-5.45 44.5 L-5.1 49.1 Q-3.95 49.25 -2.9 48.5 L-2.9 48.35 -3.1 48.05 -3.1 47.75 -3.25 45.2 -3.25 45.0 Q-3.35 43.25 -5.45 44.5 M-6.35 45.2 L-6.35 45.0 Q-6.45 43.25 -8.55 44.5 L-8.2 49.1 Q-7.05 49.25 -6.0 48.5 L-6.0 48.35 -6.2 48.05 -6.2 47.75 -6.35 45.2" fill="#333333" fill-rule="evenodd" stroke="none"/>
  </g>
</svg>
