<?xml version="1.0" encoding="UTF-8" standalone="no"?>
<svg xmlns:xlink="http://www.w3.org/1999/xlink" height="124.55px" width="40.2px" xmlns="http://www.w3.org/2000/svg">
  <g transform="matrix(1.0, 0.0, 0.0, 1.0, 9.55, 6.25)">
    <path d="M13.5 5.85 Q13.75 6.9 14.5 7.75 15.8 10.4 16.55 13.25 16.4 15.7 17.3 17.95 L17.35 19.6 Q17.15 24.85 17.6 29.75 18.05 34.65 17.3 39.7 17.55 40.7 16.6 41.5 15.7 42.25 15.4 43.25 L15.0 46.7 16.6 46.9 Q17.45 46.95 17.6 47.9 L17.95 54.7 Q18.0 58.25 15.45 60.4 15.9 62.25 15.3 64.0 14.65 65.7 16.15 67.1 16.05 67.95 16.55 68.6 L20.85 68.9 20.8 69.35 20.5 69.35 Q19.55 71.3 18.0 73.05 16.35 74.8 17.65 77.35 18.8 78.15 20.45 77.9 19.65 79.8 17.95 81.1 L18.05 83.1 18.0 84.0 18.0 84.15 18.0 84.25 18.2 85.1 Q18.5 85.6 19.3 85.8 L20.6 85.7 20.9 86.0 19.0 88.8 Q17.85 90.15 18.75 92.05 L18.5 95.3 Q18.1 97.15 20.05 97.55 21.6 98.3 22.35 100.0 21.75 102.4 23.45 103.75 25.1 105.05 26.1 106.95 27.8 109.25 29.15 111.7 30.45 114.15 30.35 117.0 L30.65 117.6 25.2 118.15 Q19.65 118.7 14.6 116.85 9.55 115.0 5.1 112.2 2.55 112.4 0.3 111.45 L-4.15 109.75 -4.95 109.15 -5.4 109.3 Q-4.95 105.1 -4.1 101.05 L-5.85 100.9 Q-6.75 99.55 -5.45 98.4 L-3.45 96.05 Q-4.4 90.85 -4.6 85.4 L-7.85 84.65 Q-7.1 81.75 -4.85 79.7 L-5.1 72.2 Q-7.3 69.3 -8.5 65.95 L-5.6 65.75 -5.15 65.9 -4.85 65.65 Q-4.9 61.7 -4.25 58.25 -7.9 55.6 -7.1 51.45 L-6.55 49.65 Q-6.1 48.8 -6.6 47.85 -6.75 46.4 -7.65 45.2 -8.0 41.85 -6.4 39.25 -6.15 32.1 -7.5 25.4 -8.8 19.1 -9.15 12.4 L-9.25 11.95 -9.45 11.1 -9.55 10.0 -9.55 6.9 -9.5 6.45 Q-9.4 3.55 -8.25 0.9 L-7.1 -1.4 Q-6.15 -3.0 -4.7 -4.2 L-4.05 -4.6 -3.4 -5.0 -3.4 -4.95 -4.45 -3.3 Q-6.25 -0.95 -6.95 1.8 -7.65 4.55 -7.8 7.4 L-7.75 9.55 -8.3 9.95 -8.5 10.1 -8.35 10.2 -7.25 10.45 -7.55 10.75 -7.6 10.8 -7.6 10.85 -7.4 11.85 -7.35 12.25 -7.25 12.35 Q-6.65 12.95 -6.8 13.95 -6.9 18.45 -6.25 22.8 -5.55 27.1 -5.65 31.75 -4.8 34.5 -5.35 37.5 L-6.1 42.9 Q-3.75 45.55 -5.1 48.15 -6.45 50.65 -6.45 53.75 -5.9 54.75 -4.75 55.55 -3.65 56.3 -3.45 57.6 L-0.15 57.75 -0.05 57.75 -0.95 56.9 -3.3 54.65 -2.75 54.85 -1.75 55.3 Q-0.35 56.1 0.85 57.65 L1.05 58.0 1.3 58.0 3.65 58.05 6.4 57.3 Q8.85 56.2 11.45 55.55 13.25 55.65 14.8 56.5 L11.95 56.85 15.65 59.55 Q16.95 57.1 16.85 54.15 16.75 51.15 16.25 48.45 L13.6 47.7 13.6 47.25 13.6 47.6 11.3 47.85 10.55 47.3 Q9.85 46.15 10.35 44.85 L10.5 44.35 Q10.9 42.55 11.85 41.1 11.9 41.0 12.0 41.0 L13.0 40.8 13.15 40.7 13.5 40.5 13.55 40.45 Q15.45 40.4 15.3 41.9 L16.65 39.35 15.9 24.9 Q15.6 17.75 14.35 10.75 14.3 9.0 12.95 8.1 L11.9 7.25 12.2 7.55 Q11.65 7.5 11.2 6.85 L10.45 5.55 9.95 4.35 9.8 4.3 Q9.4 4.1 9.35 3.65 9.3 2.2 8.6 0.95 L8.5 0.7 8.6 -0.05 6.2 -3.1 Q4.55 -4.95 2.15 -5.75 L0.45 -6.25 Q3.45 -6.35 5.95 -4.7 L8.15 -3.2 9.85 -1.55 10.55 -0.8 Q12.4 0.65 13.05 2.75 L13.1 2.75 13.1 2.85 13.25 3.5 13.4 3.85 13.4 4.55 13.5 5.85 M3.35 33.35 L3.4 33.8 8.8 33.9 6.45 34.4 2.95 34.5 2.2 33.3 2.5 26.05 2.7 27.85 2.8 28.4 3.35 33.35 M15.1 68.35 L15.15 68.2 Q13.6 66.45 14.35 64.25 L14.75 62.0 14.5 60.5 14.45 60.25 12.7 59.0 12.4 58.85 10.15 58.45 9.95 58.45 9.9 58.45 8.3 58.9 Q5.1 60.35 1.9 60.05 -0.75 58.75 -3.6 58.55 L-3.6 60.75 -3.75 67.85 Q-4.0 72.55 -3.25 77.05 L-3.4 77.4 Q-3.6 77.85 -3.45 78.45 L-3.35 78.75 Q-3.1 79.75 -4.05 80.35 L-4.25 80.5 -4.9 81.0 -5.15 81.2 -5.2 81.3 -7.0 84.05 -7.1 84.35 -7.2 84.55 -6.95 84.5 -4.35 84.45 -4.45 82.55 Q-4.25 82.3 -3.9 82.3 L-3.85 82.55 -3.65 83.9 -3.5 84.75 Q-2.85 89.05 -2.6 93.6 L-2.55 94.5 -2.5 95.75 -2.5 96.25 -2.9 96.7 -5.0 99.25 -5.3 99.65 -4.9 99.6 -3.95 99.25 -3.9 99.2 -2.6 99.25 -2.45 100.9 -2.45 101.05 -2.45 101.95 Q-2.5 104.25 -3.1 106.55 L-3.65 108.25 Q-1.05 110.05 2.25 110.85 3.2 110.35 4.3 110.55 5.45 110.75 5.7 109.4 6.25 108.0 7.1 106.55 7.9 105.1 9.35 104.7 11.35 103.0 13.65 102.15 15.5 101.45 17.6 101.35 L17.8 101.35 18.95 101.35 21.8 101.7 21.85 101.7 21.85 101.2 Q20.8 98.75 18.35 97.95 L18.3 97.95 Q16.85 97.45 15.8 98.25 14.65 99.0 13.5 98.55 L13.45 98.55 13.4 98.5 Q13.9 98.05 14.55 97.75 L15.35 97.5 15.45 97.5 15.6 97.45 15.75 97.4 15.85 97.4 16.25 97.2 16.6 97.0 Q18.15 96.1 17.9 94.45 L17.55 90.5 17.55 90.35 17.6 89.9 17.65 89.35 17.75 88.95 18.7 87.85 19.1 87.2 19.4 86.6 17.55 86.55 17.5 86.2 17.3 84.95 17.3 84.9 16.4 75.75 16.3 74.6 16.3 74.5 16.55 74.0 17.05 73.05 17.7 72.2 Q18.6 71.05 18.85 69.95 L15.0 69.65 14.95 69.65 15.1 68.35 M17.55 90.85 L17.6 90.8 17.55 90.75 17.55 90.85 M21.3 103.25 L20.55 102.45 Q14.5 101.8 10.25 105.85 8.1 108.15 6.9 110.85 L6.7 111.35 Q12.65 116.45 21.2 116.7 25.35 116.95 29.45 115.85 28.95 113.25 27.4 111.05 L24.45 106.55 21.3 103.25 M-2.6 19.85 Q-2.2 23.9 -1.4 28.05 -0.55 32.1 -0.25 36.0 4.25 37.95 9.3 37.45 6.85 38.75 3.85 38.25 0.8 37.75 -1.75 36.75 -1.25 33.0 -2.05 29.3 -2.85 25.6 -2.5 21.55 L-2.6 19.85 M3.5 45.15 L3.4 46.2 2.05 46.8 0.4 46.65 Q-0.5 46.0 -0.2 45.25 -1.3 45.35 -2.25 44.85 L6.2 40.25 Q6.05 41.35 5.35 42.15 L5.8 42.1 6.25 41.95 Q7.8 42.05 7.15 43.35 L7.0 43.65 6.55 43.15 5.85 42.8 5.8 42.75 5.3 42.95 Q4.3 43.45 3.85 44.25 L3.5 45.15 M11.15 49.2 Q11.95 49.2 12.5 48.7 11.65 49.6 10.55 49.95 L9.45 49.8 Q10.1 49.15 11.15 49.2 M8.6 53.85 Q9.4 53.3 10.2 53.0 9.65 53.85 8.6 53.85 M-5.2 69.9 L-4.85 69.9 -5.05 66.6 -7.45 66.35 -5.2 69.9 M9.15 97.3 L9.1 97.25 9.15 97.25 9.15 97.3" fill="#000000" fill-rule="evenodd" stroke="none"/>
    <path d="M-3.4 -4.95 L-2.55 -5.3 Q-1.85 -5.95 -0.9 -6.05 L0.4 -6.25 0.45 -6.25 2.15 -5.75 Q4.55 -4.95 6.2 -3.1 L8.6 -0.05 8.5 0.7 8.6 0.95 Q9.3 2.2 9.35 3.65 9.4 4.1 9.8 4.3 L9.95 4.35 10.45 5.55 11.2 6.85 Q11.65 7.5 12.2 7.55 L11.9 7.25 12.95 8.1 Q14.3 9.0 14.35 10.75 15.6 17.75 15.9 24.9 L16.65 39.35 15.3 41.9 Q15.45 40.4 13.55 40.45 L13.5 40.5 13.15 40.7 13.0 40.8 12.0 41.0 Q11.9 41.0 11.85 41.1 10.9 42.55 10.5 44.35 L10.35 44.85 Q9.85 46.15 10.55 47.3 L11.3 47.85 13.6 47.6 13.6 47.25 13.6 47.7 16.25 48.45 Q16.75 51.15 16.85 54.15 16.95 57.1 15.65 59.55 L11.95 56.85 14.8 56.5 Q13.25 55.65 11.45 55.55 8.85 56.2 6.4 57.3 L3.65 58.05 3.25 57.4 1.35 55.0 Q-0.4 53.05 -2.75 52.05 L-3.1 52.1 -3.25 52.1 Q-4.25 52.95 -3.4 54.0 L-2.75 54.85 -3.3 54.65 -0.95 56.9 -1.3 56.55 -1.05 56.85 -0.15 57.75 -3.45 57.6 Q-3.65 56.3 -4.75 55.55 -5.9 54.75 -6.45 53.75 -6.45 50.65 -5.1 48.15 -3.75 45.55 -6.1 42.9 L-5.35 37.5 Q-4.8 34.5 -5.65 31.75 -5.55 27.1 -6.25 22.8 -6.9 18.45 -6.8 13.95 -6.65 12.95 -7.25 12.35 L-7.35 12.25 -7.4 11.85 -7.6 10.85 -7.6 10.8 -7.55 10.75 -7.25 10.45 -5.05 7.85 -8.3 9.95 -7.75 9.55 -7.8 7.4 Q-7.65 4.55 -6.95 1.8 -6.25 -0.95 -4.45 -3.3 L-3.4 -4.95 M13.4 4.55 L13.5 5.25 13.5 5.85 13.4 4.55 M-4.85 10.3 L-3.5 9.6 -3.35 9.5 -3.25 9.45 Q-1.45 8.5 0.45 7.85 L-2.25 8.6 -4.65 9.35 -6.2 10.35 -5.05 10.4 -4.85 10.3 M3.35 33.35 L3.65 33.35 3.7 33.4 4.0 32.65 4.25 31.75 Q4.3 30.1 4.5 28.45 L3.85 23.4 3.3 21.9 3.55 22.3 3.05 20.25 Q2.75 19.2 2.6 18.15 L2.7 18.65 2.8 18.55 Q4.2 17.2 5.95 16.3 L6.75 15.95 Q7.65 15.7 8.0 14.95 L9.6 14.15 10.2 13.95 10.3 13.85 10.3 13.75 10.25 13.7 10.1 13.6 Q7.55 13.7 5.2 14.85 L1.15 17.1 Q0.7 17.4 0.9 17.85 L1.2 18.3 1.95 21.5 1.85 21.6 2.45 25.75 2.7 27.85 2.5 26.05 2.2 33.3 2.95 34.5 6.45 34.4 8.8 33.9 3.4 33.8 3.35 33.35 M21.3 103.25 L24.45 106.55 27.4 111.05 Q28.95 113.25 29.45 115.85 25.35 116.95 21.2 116.7 12.65 116.45 6.7 111.35 L6.9 110.85 7.5 111.55 8.2 111.5 8.35 111.45 Q9.6 109.65 10.35 107.55 10.75 106.6 11.65 106.1 15.65 103.95 20.25 103.8 21.0 103.75 21.3 103.25 M15.8 108.0 L15.75 108.0 15.7 108.1 15.65 108.15 15.7 108.55 15.75 108.65 Q15.4 108.95 15.6 109.45 L16.05 110.35 Q17.25 112.25 19.35 112.5 L20.4 112.7 Q21.35 112.85 21.5 112.0 21.7 111.3 21.05 111.2 L20.85 110.95 Q18.7 108.75 15.9 107.95 L15.8 108.0 M6.55 43.15 L7.0 43.65 7.15 43.35 Q7.8 42.05 6.25 41.95 L5.8 42.1 5.35 42.15 Q6.05 41.35 6.2 40.25 L-2.25 44.85 Q-1.3 45.35 -0.2 45.25 -0.5 46.0 0.4 46.65 L2.05 46.8 3.4 46.2 3.5 45.15 Q3.25 46.05 3.55 47.2 L4.15 48.9 Q4.75 50.2 5.9 49.95 5.55 48.9 5.55 47.8 5.55 46.5 5.95 45.25 6.15 44.6 6.6 44.05 L7.0 43.6 6.55 43.15 M-2.6 19.85 L-2.5 21.55 Q-2.85 25.6 -2.05 29.3 -1.25 33.0 -1.75 36.75 0.8 37.75 3.85 38.25 6.85 38.75 9.3 37.45 4.25 37.95 -0.25 36.0 -0.55 32.1 -1.4 28.05 -2.2 23.9 -2.6 19.85 M11.15 49.2 Q10.1 49.15 9.45 49.8 L10.55 49.95 Q11.65 49.6 12.5 48.7 11.95 49.2 11.15 49.2 M8.6 53.85 Q9.65 53.85 10.2 53.0 9.4 53.3 8.6 53.85" fill="#003333" fill-rule="evenodd" stroke="none"/>
    <path d="M-8.3 9.95 L-5.05 7.85 -7.25 10.45 -8.35 10.2 -8.5 10.1 -8.3 9.95 M-0.15 57.75 L-1.05 56.85 -1.3 56.55 -0.95 56.9 -0.05 57.75 -0.15 57.75 M-2.75 54.85 L-3.4 54.0 Q-4.25 52.95 -3.25 52.1 L-3.1 52.1 -2.75 52.05 Q-0.4 53.05 1.35 55.0 L3.25 57.4 3.65 58.05 1.3 58.0 1.05 58.0 0.85 57.65 Q-0.35 56.1 -1.75 55.3 L-2.75 54.85 M-4.85 10.3 L-5.05 10.4 -6.2 10.35 -4.65 9.35 -2.25 8.6 0.45 7.85 Q-1.45 8.5 -3.25 9.45 L-3.35 9.5 -3.5 9.6 -4.85 10.3 M2.7 27.85 L2.45 25.75 1.85 21.6 1.95 21.5 1.2 18.3 0.9 17.85 Q0.7 17.4 1.15 17.1 L5.2 14.85 Q7.55 13.7 10.1 13.6 L10.25 13.7 10.3 13.75 10.3 13.85 10.2 13.95 9.6 14.15 8.0 14.95 Q7.65 15.7 6.75 15.95 L5.95 16.3 Q4.2 17.2 2.8 18.55 L2.7 18.65 2.6 18.15 Q2.75 19.2 3.05 20.25 L3.55 22.3 3.3 21.9 3.85 23.4 4.5 28.45 Q4.3 30.1 4.25 31.75 L4.0 32.65 3.7 33.4 3.65 33.35 3.35 33.35 2.8 28.4 2.7 27.85 M6.55 43.15 L7.0 43.6 6.6 44.05 Q6.15 44.6 5.95 45.25 5.55 46.5 5.55 47.8 5.55 48.9 5.9 49.95 4.75 50.2 4.15 48.9 L3.55 47.2 Q3.25 46.05 3.5 45.15 L3.85 44.25 Q4.3 43.45 5.3 42.95 L5.8 42.75 5.85 42.8 6.55 43.15" fill="#606060" fill-rule="evenodd" stroke="none"/>
    <path d="M-3.6 60.75 L-3.6 58.55 Q-0.75 58.75 1.9 60.05 5.1 60.35 8.3 58.9 L9.9 58.45 9.95 58.45 10.15 58.45 12.4 58.85 12.7 59.0 14.45 60.25 14.5 60.5 14.75 62.0 14.35 64.25 Q13.6 66.45 15.15 68.2 L15.1 68.35 14.6 68.15 Q13.45 68.35 12.85 69.5 12.25 70.6 12.2 71.6 12.15 72.9 13.05 74.0 L13.2 74.15 13.9 74.8 Q15.1 75.7 16.4 75.75 L17.3 84.9 17.3 84.95 Q16.75 85.7 15.7 85.8 L15.25 85.9 Q14.6 86.15 14.35 87.0 14.15 88.55 15.0 89.6 L16.1 90.55 Q16.85 90.95 17.55 90.35 L17.55 90.5 17.9 94.45 Q18.15 96.1 16.6 97.0 L16.25 97.2 15.85 97.4 15.75 97.4 15.35 97.5 14.55 97.75 Q13.9 98.05 13.4 98.5 L13.45 98.55 13.5 98.55 10.55 98.95 9.8 98.85 9.85 98.85 Q10.5 97.65 9.9 96.4 L9.65 95.95 9.25 95.45 10.0 94.45 10.4 94.0 10.9 93.45 10.85 91.95 Q10.6 90.75 11.65 90.1 10.1 84.3 9.9 78.3 9.75 73.25 8.95 68.25 8.5 65.3 7.1 62.7 L4.75 62.7 4.2 62.65 2.5 62.3 1.6 62.2 Q-0.25 62.2 -1.85 61.6 L-2.2 61.45 -2.65 60.95 -3.6 60.75 M18.3 97.95 L18.35 97.95 Q20.8 98.75 21.85 101.2 L21.85 101.7 21.8 101.7 18.95 101.35 17.8 101.35 17.6 101.2 17.6 101.35 Q15.5 101.45 13.65 102.15 11.35 103.0 9.35 104.7 7.9 105.1 7.1 106.55 6.25 108.0 5.7 109.4 5.45 110.75 4.3 110.55 3.2 110.35 2.25 110.85 -1.05 110.05 -3.65 108.25 L-3.1 106.55 -3.0 106.6 -2.85 106.6 Q-1.45 106.9 -0.1 107.4 L0.2 107.5 0.95 107.85 0.95 106.95 1.45 105.05 2.15 103.6 2.4 103.3 4.3 101.5 4.55 101.35 5.4 101.0 6.1 100.75 7.55 100.45 7.75 100.45 7.35 100.6 6.15 101.15 6.1 101.2 5.65 101.55 4.1 103.45 3.75 104.15 3.1 105.35 3.05 106.6 2.75 107.05 2.7 107.05 2.55 107.1 2.65 107.2 Q4.5 105.3 6.7 103.7 9.25 101.85 12.05 100.55 L11.45 100.5 12.05 100.3 14.55 99.7 16.05 99.45 17.3 99.25 17.5 99.25 17.5 98.95 Q17.5 98.15 18.3 97.95 M12.55 64.8 L12.6 63.9 Q12.3 61.75 10.05 62.05 8.55 62.45 8.2 63.85 8.0 64.5 8.3 65.05 8.95 66.55 10.55 66.5 12.3 66.45 12.55 64.8 M13.55 86.05 L13.9 85.7 13.5 85.8 Q12.95 86.0 12.7 86.55 L12.65 86.65 Q12.1 87.7 12.65 88.55 L13.75 90.2 13.2 88.7 13.05 88.3 13.0 87.9 Q12.9 87.15 13.25 86.55 L13.6 86.05 13.55 86.05 M6.8 104.25 Q4.55 105.95 4.1 108.6 5.65 106.55 6.8 104.25" fill="#9b4600" fill-rule="evenodd" stroke="none"/>
    <path d="M-2.5 95.75 L-2.55 94.5 -2.4 94.4 Q-0.4 94.3 0.3 96.0 L0.4 96.35 0.55 97.25 Q0.0 96.9 -0.85 96.9 L-1.15 97.1 -1.15 97.25 -1.15 96.95 Q-1.1 95.7 -2.35 95.7 L-2.5 95.75 M-4.25 80.5 L-4.05 80.35 Q-3.1 79.75 -3.35 78.75 L-3.45 78.45 -3.25 78.55 -3.1 78.6 -3.05 78.7 -2.95 78.85 -2.95 78.9 Q-2.05 79.55 -1.95 80.75 L-1.95 80.85 -1.9 81.1 -2.9 80.95 Q-3.7 81.55 -3.85 82.35 L-3.9 81.6 Q-3.9 80.85 -4.25 80.5 M9.25 95.45 L9.65 95.95 9.9 96.4 8.2 96.25 8.1 96.2 7.1 96.0 6.85 96.2 6.8 96.25 6.15 96.8 6.1 96.65 Q5.7 95.85 6.35 95.15 L6.45 95.1 8.4 94.9 8.75 95.15 9.2 95.55 9.25 95.45 M12.55 64.8 Q12.3 66.45 10.55 66.5 8.95 66.55 8.3 65.05 8.0 64.5 8.2 63.85 8.55 62.45 10.05 62.05 12.3 61.75 12.6 63.9 L12.55 64.8 M11.7 63.95 L11.65 63.9 Q11.1 62.8 9.75 63.25 8.55 63.85 8.8 65.1 L10.5 65.3 Q11.45 65.0 11.65 64.15 L11.7 63.95 M5.2 77.4 L4.2 77.3 Q3.55 77.25 3.1 76.8 2.7 76.4 2.55 75.8 L2.45 74.95 2.5 75.0 2.6 75.1 2.65 75.2 2.75 75.3 2.85 75.45 2.9 75.55 3.0 75.65 3.1 75.75 3.6 75.65 Q5.3 74.8 5.3 72.85 L4.9 72.55 4.8 72.45 4.7 72.4 4.85 72.4 Q5.4 72.45 5.75 72.8 L6.35 73.45 6.65 73.8 6.65 73.7 Q6.85 74.85 6.35 75.9 L5.2 77.4 M3.7 71.75 L3.7 71.8 3.95 71.9 3.7 71.8 3.7 71.75 M5.65 85.7 Q5.35 85.3 4.95 85.55 4.5 85.8 4.4 85.15 L3.3 86.7 3.3 85.8 3.4 85.15 3.6 84.8 3.9 84.45 Q4.85 83.85 5.9 84.25 6.65 84.55 7.2 85.25 L6.35 85.15 Q5.9 85.3 5.65 85.7" fill="#e8ae00" fill-rule="evenodd" stroke="none"/>
    <path d="M16.55 74.0 L16.3 74.5 15.65 74.35 15.15 74.15 Q14.15 73.65 13.7 72.6 13.5 72.1 13.6 71.65 13.65 71.4 13.85 71.25 L13.95 71.25 14.1 71.35 14.05 71.6 14.1 72.2 Q14.45 73.9 16.1 74.0 L16.55 74.0 M-2.45 101.95 L-2.45 101.05 -2.15 100.85 Q-0.4 100.4 0.3 98.6 L-0.1 100.1 -0.4 100.65 -1.75 101.75 -2.25 101.9 -2.45 101.95 M-2.55 94.5 L-2.6 93.6 -2.15 93.5 Q-1.05 93.45 -0.4 94.3 0.15 95.05 0.3 96.0 -0.4 94.3 -2.4 94.4 L-2.55 94.5 M-3.5 84.75 L-3.65 83.9 Q-2.3 84.1 -2.0 82.55 L-1.9 81.2 Q-1.75 81.25 -1.75 81.45 L-1.75 81.5 Q-1.1 82.95 -2.2 84.2 -2.75 84.8 -3.5 84.75 M-3.45 78.45 Q-3.6 77.85 -3.4 77.4 -2.55 77.7 -2.2 78.65 L-1.9 79.9 -1.85 80.1 Q-1.75 80.5 -1.95 80.85 L-1.95 80.75 Q-2.05 79.55 -2.95 78.9 L-2.95 78.85 -3.05 78.7 -3.1 78.6 -3.25 78.55 -3.45 78.45 M9.8 98.85 L10.55 98.95 10.25 99.1 9.25 99.4 7.5 99.25 Q7.0 99.05 7.05 98.65 L6.7 98.85 Q5.85 99.7 4.95 99.6 5.0 98.05 6.05 96.95 L5.5 96.85 5.3 96.7 Q4.7 95.55 5.9 94.95 L7.2 94.65 8.4 94.9 6.45 95.1 6.35 95.15 Q5.7 95.85 6.1 96.65 L6.15 96.8 6.8 96.25 Q7.5 96.35 8.0 96.95 8.45 97.5 9.1 97.25 L9.15 97.3 8.9 97.95 8.15 98.35 7.55 98.45 7.95 98.7 9.25 98.6 9.8 98.85 M11.7 63.95 L11.65 64.15 Q11.45 65.0 10.5 65.3 L8.8 65.1 Q8.55 63.85 9.75 63.25 11.1 62.8 11.65 63.9 L11.7 63.95 M13.25 86.55 Q12.9 87.15 13.0 87.9 L13.05 88.3 13.2 88.7 13.75 90.2 12.65 88.55 Q12.1 87.7 12.65 86.65 L12.7 86.55 Q12.95 86.0 13.5 85.8 L13.9 85.7 13.55 86.05 13.25 86.55 M9.6 64.7 L10.55 64.75 Q11.25 64.3 10.85 63.75 9.45 63.55 9.6 64.7 M6.65 73.7 L6.65 73.8 6.35 73.45 5.75 72.8 Q5.4 72.45 4.85 72.4 L4.7 72.4 4.8 72.45 4.9 72.55 5.3 72.85 Q5.3 74.8 3.6 75.65 L3.1 75.75 3.0 75.65 2.9 75.55 2.85 75.45 2.75 75.3 2.65 75.2 2.6 75.1 2.5 75.0 2.45 74.95 2.55 75.8 Q2.7 76.4 3.1 76.8 3.55 77.25 4.2 77.3 L5.2 77.4 4.5 77.7 Q3.45 77.85 2.65 77.05 L2.0 76.2 1.8 76.05 Q1.45 75.15 1.8 74.25 L1.9 74.15 2.0 74.15 1.4 73.0 0.75 70.9 1.4 71.0 3.7 71.8 3.95 71.9 3.7 71.8 3.7 71.75 4.0 71.6 Q6.2 71.5 6.6 73.6 L6.6 73.65 6.65 73.7 M3.5 72.4 L1.5 71.75 1.55 71.9 2.35 73.4 3.6 74.85 Q4.9 74.2 4.45 72.95 L3.5 72.4 M2.65 85.2 L2.95 84.8 Q3.8 83.75 5.15 83.75 5.65 83.75 6.05 84.05 L6.1 84.05 6.2 84.1 6.3 84.15 6.85 84.6 7.25 85.3 7.2 85.25 Q6.65 84.55 5.9 84.25 4.85 83.85 3.9 84.45 L3.6 84.8 3.4 85.15 3.3 85.8 3.3 86.7 4.4 85.15 Q4.5 85.8 4.95 85.55 5.35 85.3 5.65 85.7 6.6 86.95 6.1 88.4 L5.35 89.8 4.4 89.9 Q4.85 90.55 5.4 90.5 L6.6 90.65 Q5.55 91.0 4.4 90.65 L4.2 90.55 3.2 90.4 2.25 90.65 Q1.2 91.1 1.05 89.8 L2.85 87.35 2.8 87.1 2.65 85.25 2.65 85.2 M2.5 89.95 Q4.0 89.65 4.95 88.5 5.25 87.15 4.85 86.35 L4.2 87.0 Q2.75 88.45 2.2 90.0 L2.5 89.95 M6.1 97.95 L5.85 98.5 5.8 98.65 6.1 98.55 6.45 98.4 7.75 97.5 Q7.3 96.9 6.65 96.8 L6.1 97.95 M6.8 104.25 Q5.65 106.55 4.1 108.6 4.55 105.95 6.8 104.25" fill="#793600" fill-rule="evenodd" stroke="none"/>
    <path d="M15.1 68.35 L14.95 69.65 15.0 69.65 14.95 69.7 14.6 70.05 Q14.35 70.3 14.25 70.65 14.1 70.95 14.1 71.35 L13.95 71.25 13.85 71.25 Q13.65 71.4 13.6 71.65 13.5 72.1 13.7 72.6 14.15 73.65 15.15 74.15 L15.65 74.35 16.3 74.5 16.3 74.6 16.4 75.75 Q15.1 75.7 13.9 74.8 L13.2 74.15 13.05 74.0 Q12.15 72.9 12.2 71.6 12.25 70.6 12.85 69.5 13.45 68.35 14.6 68.15 L15.1 68.35 M17.3 84.95 L17.5 86.2 17.55 86.55 17.5 86.55 15.9 86.85 15.75 86.85 Q15.05 87.0 15.3 88.1 15.45 89.65 16.95 89.65 L17.75 88.95 17.65 89.35 17.6 89.9 17.55 90.35 17.55 90.5 17.55 90.35 Q16.85 90.95 16.1 90.55 L15.0 89.6 Q14.15 88.55 14.35 87.0 14.6 86.15 15.25 85.9 L15.7 85.8 Q16.75 85.7 17.3 84.95 M21.85 101.7 L21.8 101.7 21.85 101.7 M17.8 101.35 L17.6 101.35 17.6 101.2 17.8 101.35 M-2.45 101.05 L-2.45 100.9 -2.6 99.25 -2.55 99.4 Q-1.3 98.85 -1.25 97.45 L-1.2 97.4 -1.15 97.25 -1.15 97.1 -0.85 96.9 Q0.0 96.9 0.55 97.25 L0.4 96.35 0.3 96.0 Q0.15 95.05 -0.4 94.3 -1.05 93.45 -2.15 93.5 L-2.6 93.6 Q-2.85 89.05 -3.5 84.75 -2.75 84.8 -2.2 84.2 -1.1 82.95 -1.75 81.5 L-1.75 81.45 Q-1.75 81.25 -1.9 81.2 L-2.0 82.55 Q-2.3 84.1 -3.65 83.9 L-3.85 82.55 -3.85 82.4 -3.85 82.35 Q-3.7 81.55 -2.9 80.95 L-1.9 81.1 -1.95 80.85 Q-1.75 80.5 -1.85 80.1 L-1.9 79.9 -2.2 78.65 Q-2.55 77.7 -3.4 77.4 L-3.25 77.05 Q-4.0 72.55 -3.75 67.85 L-3.6 60.75 -2.65 60.95 -2.2 61.45 Q-2.3 62.7 -1.0 64.25 -0.05 65.4 0.25 66.8 L1.0 70.95 1.4 71.0 0.75 70.9 1.4 73.0 1.15 72.4 1.25 74.0 1.7 77.7 Q2.45 81.35 2.65 85.05 L2.65 85.2 2.65 85.25 2.8 87.1 2.85 87.35 1.05 89.8 Q1.2 91.1 2.25 90.65 L3.2 90.4 4.1 94.75 1.3 99.15 1.0 99.15 0.85 99.3 -0.1 100.15 -0.4 100.65 -0.1 100.1 0.3 98.6 Q-0.4 100.4 -2.15 100.85 L-2.45 101.05 M-4.9 99.6 L-5.3 99.65 -5.0 99.25 -4.9 99.6 M-6.95 84.5 L-7.2 84.55 -7.1 84.35 -7.1 84.4 -7.05 84.4 -6.95 84.5 M9.9 96.4 Q10.5 97.65 9.85 98.85 L9.8 98.85 9.25 98.6 7.95 98.7 7.55 98.45 8.15 98.35 8.9 97.95 9.15 97.3 9.15 97.25 9.1 97.25 Q8.45 97.5 8.0 96.95 7.5 96.35 6.8 96.25 L6.85 96.2 7.1 96.0 8.1 96.2 8.2 96.25 9.9 96.4 M13.25 86.55 L13.55 86.05 13.6 86.05 13.25 86.55 M17.55 90.85 L17.55 90.75 17.6 90.8 17.55 90.85 M7.2 85.25 L7.25 85.4 7.2 85.7 Q7.8 87.45 7.5 89.2 7.35 90.15 6.55 90.75 L6.15 90.85 4.65 90.8 4.45 90.7 4.4 90.65 Q5.55 91.0 6.6 90.65 L5.4 90.5 Q4.85 90.55 4.4 89.9 L5.35 89.8 6.1 88.4 Q6.6 86.95 5.65 85.7 5.9 85.3 6.35 85.15 L7.2 85.25 M11.45 100.5 L12.05 100.55 Q9.25 101.85 6.7 103.7 4.5 105.3 2.65 107.2 L2.55 107.1 2.7 107.05 2.75 107.05 3.05 106.6 3.1 105.35 3.75 104.15 4.1 103.45 5.65 101.55 6.1 101.2 6.15 101.15 7.35 100.6 7.75 100.45 9.05 100.0 9.2 100.05 11.4 100.5 11.45 100.5" fill="#cc7a00" fill-rule="evenodd" stroke="none"/>
    <path d="M15.0 69.65 L18.85 69.95 Q18.6 71.05 17.7 72.2 L17.05 73.05 16.55 74.0 16.1 74.0 Q14.45 73.9 14.1 72.2 L14.05 71.6 14.1 71.35 Q14.1 70.95 14.25 70.65 L14.25 70.7 14.2 71.0 Q14.25 71.7 14.95 71.6 L16.3 71.4 Q17.65 71.1 17.7 69.85 L15.2 69.7 15.0 69.75 Q14.75 69.85 14.6 70.05 L14.95 69.7 15.0 69.65 M19.1 87.2 L18.7 87.85 17.75 88.95 16.95 89.65 Q15.45 89.65 15.3 88.1 15.05 87.0 15.75 86.85 15.55 87.1 15.5 87.5 L15.65 87.85 18.4 87.7 18.9 87.35 19.1 87.2 M-2.6 99.25 L-3.9 99.2 -2.95 98.15 Q-2.2 97.2 -2.9 96.7 L-2.5 96.25 -2.5 95.75 -2.35 95.7 Q-1.1 95.7 -1.15 96.95 L-1.15 97.25 -1.2 97.4 -1.25 97.45 Q-1.3 98.85 -2.55 99.4 L-2.6 99.25 M-3.85 82.55 L-3.9 82.3 Q-4.25 82.3 -4.45 82.55 L-4.35 84.45 -6.95 84.5 -7.05 84.4 -6.55 84.15 -6.15 84.05 -6.05 84.0 -5.1 82.95 -4.65 82.3 Q-4.25 81.3 -4.9 81.0 L-4.25 80.5 Q-3.9 80.85 -3.9 81.6 L-3.85 82.35 -3.85 82.4 -3.85 82.55 M9.6 64.7 Q9.45 63.55 10.85 63.75 11.25 64.3 10.55 64.75 L9.6 64.7 M3.5 72.4 L4.45 72.95 Q4.9 74.2 3.6 74.85 L2.35 73.4 2.75 73.95 3.0 74.15 3.85 73.9 4.0 73.4 3.5 72.4 M-5.2 69.9 L-7.45 66.35 -5.05 66.6 -4.85 69.9 -5.2 69.9 M2.5 89.95 L2.5 89.9 2.8 89.75 4.05 88.7 Q5.25 87.95 4.6 87.0 L4.2 87.0 4.85 86.35 Q5.25 87.15 4.95 88.5 4.0 89.65 2.5 89.95 M6.1 97.95 L6.65 96.8 Q7.3 96.9 7.75 97.5 L6.45 98.4 7.1 97.5 7.05 97.4 6.6 97.05 6.55 97.1 6.1 97.95 M6.1 98.55 L5.8 98.65 5.85 98.5 6.1 98.55" fill="#a8a8a8" fill-rule="evenodd" stroke="none"/>
    <path d="M17.55 86.55 L19.4 86.6 19.1 87.2 18.9 87.35 18.4 87.7 15.65 87.85 15.5 87.5 Q15.55 87.1 15.75 86.85 L15.9 86.85 17.5 86.55 17.55 86.55 M-3.9 99.2 L-3.95 99.25 -4.9 99.6 -5.0 99.25 -2.9 96.7 Q-2.2 97.2 -2.95 98.15 L-3.9 99.2 M-7.1 84.35 L-7.0 84.05 -5.2 81.3 -5.15 81.2 -4.9 81.0 Q-4.25 81.3 -4.65 82.3 L-5.1 82.95 -6.05 84.0 -6.15 84.05 -6.55 84.15 -7.05 84.4 -7.1 84.4 -7.1 84.35 M14.6 70.05 Q14.75 69.85 15.0 69.75 L15.2 69.7 17.7 69.85 Q17.65 71.1 16.3 71.4 L14.95 71.6 Q14.25 71.7 14.2 71.0 L14.25 70.7 14.25 70.65 Q14.35 70.3 14.6 70.05 M2.35 73.4 L1.55 71.9 1.5 71.75 3.5 72.4 4.0 73.4 3.85 73.9 3.0 74.15 2.75 73.95 2.35 73.4 M4.2 87.0 L4.6 87.0 Q5.25 87.95 4.05 88.7 L2.8 89.75 2.5 89.9 2.5 89.95 2.2 90.0 Q2.75 88.45 4.2 87.0 M5.85 98.5 L6.1 97.95 6.55 97.1 6.6 97.05 7.05 97.4 7.1 97.5 6.45 98.4 6.1 98.55 5.85 98.5" fill="#ffffff" fill-rule="evenodd" stroke="none"/>
    <path d="M15.75 97.4 L15.6 97.45 15.45 97.5 15.35 97.5 15.75 97.4 M13.5 98.55 Q14.65 99.0 15.8 98.25 16.85 97.45 18.3 97.95 17.5 98.15 17.5 98.95 L17.5 99.25 17.3 99.25 16.05 99.45 14.55 99.7 12.05 100.3 11.45 100.5 11.4 100.5 9.2 100.05 9.05 100.0 7.75 100.45 7.55 100.45 6.1 100.75 5.4 101.0 4.55 101.35 4.3 101.5 2.4 103.3 2.15 103.6 1.45 105.05 0.95 106.95 0.95 107.85 0.2 107.5 -0.1 107.4 Q-1.45 106.9 -2.85 106.6 L-3.0 106.6 -3.1 106.55 Q-2.5 104.25 -2.45 101.95 L-2.25 101.9 -1.75 101.75 -0.4 100.65 -0.1 100.15 0.85 99.3 1.0 99.15 1.3 99.15 4.1 94.75 3.2 90.4 4.2 90.55 4.4 90.65 4.45 90.7 4.65 90.8 6.15 90.85 6.55 90.75 Q7.35 90.15 7.5 89.2 7.8 87.45 7.2 85.7 L7.25 85.4 7.2 85.25 7.25 85.3 6.85 84.6 6.3 84.15 6.2 84.1 6.1 84.05 6.05 84.05 Q5.65 83.75 5.15 83.75 3.8 83.75 2.95 84.8 L2.65 85.2 2.65 85.05 Q2.45 81.35 1.7 77.7 L1.25 74.0 1.15 72.4 1.4 73.0 2.0 74.15 1.9 74.15 1.8 74.25 Q1.45 75.15 1.8 76.05 L2.0 76.2 2.65 77.05 Q3.45 77.85 4.5 77.7 L5.2 77.4 6.35 75.9 Q6.85 74.85 6.65 73.7 L6.6 73.65 6.6 73.6 Q6.2 71.5 4.0 71.6 L3.7 71.75 3.7 71.8 1.4 71.0 1.0 70.95 0.25 66.8 Q-0.05 65.4 -1.0 64.25 -2.3 62.7 -2.2 61.45 L-1.85 61.6 Q-0.25 62.2 1.6 62.2 L2.5 62.3 4.2 62.65 4.75 62.7 7.1 62.7 Q8.5 65.3 8.95 68.25 9.75 73.25 9.9 78.3 10.1 84.3 11.65 90.1 10.6 90.75 10.85 91.95 L10.9 93.45 10.4 94.0 10.0 94.45 9.25 95.45 9.2 95.55 8.75 95.15 8.4 94.9 7.2 94.65 5.9 94.95 Q4.7 95.55 5.3 96.7 L5.5 96.85 6.05 96.95 Q5.0 98.05 4.95 99.6 5.85 99.7 6.7 98.85 L7.05 98.65 Q7.0 99.05 7.5 99.25 L9.25 99.4 10.25 99.1 10.55 98.95 13.5 98.55" fill="#c16100" fill-rule="evenodd" stroke="none"/>
    <path d="M6.9 110.85 Q8.1 108.15 10.25 105.85 14.5 101.8 20.55 102.45 L21.3 103.25 Q21.0 103.75 20.25 103.8 15.65 103.95 11.65 106.1 10.75 106.6 10.35 107.55 9.6 109.65 8.35 111.45 L8.2 111.5 7.5 111.55 6.9 110.85 M15.8 108.0 L15.9 107.95 Q18.7 108.75 20.85 110.95 L21.05 111.2 Q21.7 111.3 21.5 112.0 21.35 112.85 20.4 112.7 L19.35 112.5 Q17.25 112.25 16.05 110.35 L15.6 109.45 Q15.4 108.95 15.75 108.65 L15.7 108.55 15.65 108.15 15.7 108.1 15.75 108.0 15.8 108.0" fill="#666666" fill-rule="evenodd" stroke="none"/>
  </g>
</svg>
