<?xml version="1.0" encoding="UTF-8" standalone="no"?>
<svg xmlns:xlink="http://www.w3.org/1999/xlink" height="152.15px" width="85.95px" xmlns="http://www.w3.org/2000/svg">
  <g transform="matrix(1.0, 0.0, 0.0, 1.0, 45.55, 74.95)">
    <path d="M10.95 -71.9 L10.8 -72.65 Q10.0 -73.45 8.8 -73.15 L7.7 -72.95 Q6.4 -72.5 6.85 -71.3 L7.15 -71.05 9.65 -70.95 Q10.6 -71.1 10.95 -71.9 M12.5 -73.9 Q12.85 -73.65 13.3 -73.5 L14.15 -73.05 14.3 -72.9 Q14.9 -71.9 14.45 -70.7 L14.35 -70.4 Q12.85 -67.95 10.25 -66.75 9.6 -66.45 9.6 -65.95 L9.4 -65.8 Q9.3 -63.7 8.4 -61.75 L8.35 -61.65 8.3 -61.5 8.25 -61.4 8.25 -61.35 8.15 -61.15 8.1 -61.15 8.1 -61.1 Q6.55 -58.05 4.4 -55.4 L4.55 -55.3 Q3.9 -55.05 3.6 -55.65 L3.6 -55.7 Q5.75 -58.4 7.25 -61.45 8.7 -64.55 8.4 -68.05 7.75 -69.2 6.6 -69.7 L6.5 -69.7 6.3 -69.9 5.95 -70.05 Q5.1 -70.25 4.55 -70.8 L1.35 -70.15 0.95 -70.0 Q6.1 -74.55 12.5 -73.9 M13.6 -53.9 L13.9 -53.3 Q13.65 -53.4 13.4 -53.6 11.95 -54.6 10.3 -53.95 L9.3 -53.25 8.55 -52.6 Q7.75 -51.45 7.4 -50.1 L7.2 -49.4 Q7.3 -51.3 6.75 -53.25 L6.65 -53.45 6.6 -53.7 6.65 -53.75 10.05 -55.85 Q12.0 -57.0 13.4 -54.65 L13.4 -54.55 13.6 -53.9 M18.4 -52.55 L18.7 -52.75 19.65 -53.5 19.75 -53.55 19.8 -53.55 19.9 -53.65 22.05 -55.75 Q23.65 -57.65 25.7 -59.05 L25.65 -58.45 20.35 -51.8 19.15 -50.45 19.55 -51.35 19.55 -51.5 Q19.15 -52.25 18.4 -52.55 M-0.9 -67.9 Q0.55 -68.75 2.1 -69.2 4.65 -68.9 4.8 -65.95 4.95 -63.2 3.25 -60.95 L2.05 -59.55 1.9 -59.45 1.55 -59.05 1.5 -59.1 1.3 -58.9 1.0 -58.65 0.85 -58.65 0.5 -59.3 0.85 -58.55 Q-1.45 -56.8 -4.5 -56.3 -6.05 -56.05 -7.45 -56.3 L-7.55 -56.3 -7.85 -56.4 -7.85 -56.45 -8.2 -56.5 -9.0 -56.8 Q-9.85 -57.2 -10.45 -58.0 L-10.5 -58.05 Q-10.15 -60.8 -7.75 -63.05 L-7.05 -63.65 -6.55 -64.05 -6.1 -64.45 -6.05 -64.45 -5.4 -64.95 -1.1 -67.8 -0.9 -67.9 M1.85 -55.3 L1.8 -55.3 1.9 -55.3 1.85 -55.3 M12.65 -48.05 L12.25 -48.55 12.05 -48.9 Q11.45 -50.25 12.05 -51.6 12.9 -52.1 13.95 -52.0 13.1 -51.65 12.9 -50.75 L12.85 -50.2 13.05 -49.4 12.95 -49.7 13.05 -49.75 13.05 -49.8 16.85 -49.75 16.6 -49.65 16.5 -49.6 13.9 -48.5 13.85 -48.5 13.6 -48.35 12.65 -48.05 M20.85 -27.5 L20.65 -27.25 20.35 -27.05 Q18.3 -26.85 16.65 -28.05 16.1 -28.45 16.15 -29.05 16.15 -29.35 16.3 -29.5 18.65 -28.6 20.85 -27.5 M16.95 -22.3 L17.7 -21.75 17.85 -21.45 Q17.9 -20.15 16.55 -20.0 15.8 -19.95 15.1 -20.35 L13.85 -21.5 Q13.4 -22.1 13.95 -22.6 14.3 -22.95 14.8 -22.9 L14.95 -22.9 15.0 -22.9 Q16.05 -22.85 16.9 -22.35 L16.95 -22.3 M14.2 -14.1 L14.85 -13.9 14.9 -13.9 Q15.25 -13.65 15.2 -13.25 15.15 -12.2 14.05 -12.05 12.4 -11.75 11.15 -12.85 10.35 -13.55 10.95 -14.3 11.2 -14.6 11.55 -14.65 L12.2 -14.55 14.2 -14.1 M32.6 -16.8 Q31.0 -17.3 31.65 -18.9 32.95 -19.9 33.7 -18.35 33.65 -17.15 32.6 -16.8 M38.95 -14.9 Q38.2 -16.4 37.85 -18.05 38.95 -17.6 39.35 -16.5 L38.95 -14.9 M28.55 -11.65 Q29.25 -12.7 30.0 -12.3 30.75 -11.95 30.1 -10.8 29.55 -10.2 28.8 -10.2 28.0 -10.8 28.55 -11.65 M14.85 11.55 Q14.1 13.55 12.2 14.55 L9.35 14.9 Q7.75 14.9 6.9 13.6 5.35 10.2 7.5 7.25 8.6 5.85 10.35 5.95 12.05 6.05 13.35 6.95 15.05 8.8 14.85 11.55 M13.1 8.6 Q12.4 7.0 10.95 6.9 9.5 6.75 8.25 7.8 6.7 9.55 7.3 12.0 7.75 13.4 9.25 13.9 11.35 14.4 12.95 12.55 13.8 10.6 13.1 8.6 M18.8 25.65 Q20.05 27.85 19.95 30.55 L19.8 31.85 15.5 31.8 15.45 31.8 15.65 29.8 Q15.8 28.4 15.5 27.25 L15.9 27.25 17.9 26.7 18.85 26.45 19.2 26.4 18.8 25.65 M20.55 32.55 L20.8 29.4 Q20.8 27.55 20.1 26.05 L21.85 25.6 22.05 25.6 21.85 25.2 Q22.8 27.0 23.0 29.15 L23.1 31.5 22.45 31.4 21.25 31.7 20.65 31.85 20.55 32.55 M7.05 25.25 L6.75 25.3 3.8 25.8 1.4 26.05 -1.5 26.15 -2.55 26.1 -5.4 25.95 -5.75 26.15 -6.05 26.0 -6.5 25.85 -6.6 25.85 Q-7.45 25.95 -7.9 26.7 L-7.6 27.45 -7.95 27.7 -8.4 28.45 -8.75 29.85 -8.9 30.55 -8.65 32.4 -8.75 32.95 -8.7 33.1 -8.85 33.05 -9.6 32.65 Q-10.2 30.45 -9.8 28.15 -9.4 25.8 -7.5 24.35 -7.05 23.85 -6.6 24.2 L-6.35 24.4 -6.3 24.4 Q-6.2 24.45 -6.05 24.55 L-5.6 24.65 4.4 24.3 Q6.25 23.75 6.9 24.95 L6.9 25.0 7.05 25.25 M0.7 30.9 Q1.35 30.8 1.85 30.3 2.35 29.8 2.4 29.05 2.4 28.6 2.1 28.3 1.05 27.35 -0.4 27.4 L-1.05 27.65 -1.7 27.95 Q-2.75 28.35 -2.6 29.45 L-2.5 29.65 -1.3 30.55 Q-0.3 31.1 0.7 30.9 M3.2 30.4 L1.75 31.4 Q-0.3 31.95 -2.2 31.1 -3.95 29.95 -3.55 28.15 -0.9 26.1 2.5 27.35 3.55 27.85 3.9 28.8 4.0 29.8 3.2 30.4 M-4.25 -61.0 L-4.15 -61.55 Q-4.05 -63.15 -5.8 -63.05 -8.15 -62.35 -8.85 -59.95 -9.05 -59.3 -8.65 -58.8 -7.9 -57.8 -6.8 -58.3 -5.05 -59.1 -4.25 -61.0 M-22.15 -23.75 Q-22.1 -24.3 -21.65 -24.6 -20.75 -25.25 -19.65 -25.3 -18.55 -25.45 -17.9 -24.65 L-17.8 -24.3 Q-17.75 -23.5 -18.55 -23.05 -19.95 -22.35 -21.4 -22.75 -22.2 -22.95 -22.15 -23.75 M-16.1 -14.05 L-19.2 -14.15 -19.4 -14.45 Q-19.6 -15.45 -18.55 -15.85 L-17.6 -16.2 Q-16.35 -16.4 -15.45 -15.7 L-15.25 -15.35 Q-15.15 -14.45 -16.1 -14.05 M-27.2 31.4 Q-27.7 28.5 -26.95 25.55 L-24.45 25.4 Q-25.0 26.95 -25.2 28.8 -25.35 30.6 -24.9 32.25 L-25.1 31.5 -26.75 31.35 -27.2 31.4 M-23.45 25.45 L-23.2 25.45 -20.65 25.6 -18.95 25.7 -19.9 27.8 Q-20.7 29.8 -20.3 31.95 L-21.5 31.8 -24.2 31.6 Q-24.65 28.3 -23.45 25.45 M-18.15 25.7 L-15.05 25.8 -14.55 25.8 -14.9 27.1 -15.2 30.0 -15.1 31.6 -19.15 31.8 -19.5 30.6 Q-19.4 27.9 -18.15 25.7" fill="#999999" fill-rule="evenodd" stroke="none"/>
    <path d="M8.15 -61.15 L8.25 -61.35 8.25 -61.4 8.3 -61.5 8.35 -61.65 8.4 -61.75 Q9.3 -63.7 9.4 -65.8 L9.6 -65.95 Q9.6 -66.45 10.25 -66.75 12.85 -67.95 14.35 -70.4 L14.45 -70.7 Q14.9 -71.9 14.3 -72.9 L14.15 -73.05 13.3 -73.5 Q12.85 -73.65 12.5 -73.9 L13.1 -73.8 Q16.55 -72.65 19.0 -69.6 20.0 -67.2 19.9 -64.6 L19.9 -64.55 18.75 -61.8 Q17.05 -58.25 13.6 -56.25 11.3 -57.6 8.4 -56.8 L6.4 -55.5 Q5.95 -55.1 5.5 -55.05 5.0 -55.0 4.55 -55.3 L4.4 -55.4 Q6.55 -58.05 8.1 -61.1 L8.15 -61.15 M1.35 -70.15 L4.55 -70.8 Q5.1 -70.25 5.95 -70.05 L6.3 -69.9 6.5 -69.7 6.6 -69.7 Q7.75 -69.2 8.4 -68.05 8.7 -64.55 7.25 -61.45 5.75 -58.4 3.6 -55.7 L3.45 -55.55 3.35 -55.4 3.2 -55.35 3.0 -55.35 1.85 -55.3 Q-0.95 -54.05 -4.45 -53.8 -8.0 -53.55 -10.45 -55.85 L-10.5 -58.05 -10.45 -58.0 Q-9.85 -57.2 -9.0 -56.8 L-8.2 -56.5 -7.85 -56.45 -7.85 -56.4 -7.55 -56.3 -7.45 -56.3 Q-6.05 -56.05 -4.5 -56.3 -1.45 -56.8 0.85 -58.55 L0.5 -59.3 0.85 -58.65 1.0 -58.65 1.3 -58.9 1.5 -59.1 1.55 -59.05 1.9 -59.45 2.05 -59.55 3.25 -60.95 Q4.95 -63.2 4.8 -65.95 4.65 -68.9 2.1 -69.2 0.55 -68.75 -0.9 -67.9 L1.1 -69.95 1.35 -70.15 M13.9 -53.3 L14.1 -53.05 Q10.85 -52.95 9.45 -50.1 9.0 -48.3 10.7 -47.2 L11.65 -46.85 Q10.45 -45.55 8.85 -44.5 7.2 -43.5 5.2 -43.75 7.0 -46.5 7.2 -49.4 L7.4 -50.1 Q7.75 -51.45 8.55 -52.6 L9.3 -53.25 10.3 -53.95 Q11.95 -54.6 13.4 -53.6 13.65 -53.4 13.9 -53.3 M1.85 -55.3 L1.9 -55.3 1.8 -55.3 1.85 -55.3 M20.85 -27.5 L23.15 -26.25 23.1 -25.8 Q20.4 -25.5 18.25 -26.9 L17.65 -26.9 Q17.5 -26.4 17.8 -26.05 L17.35 -26.25 17.35 -26.65 17.0 -27.1 16.7 -27.45 15.05 -28.6 14.95 -29.0 14.95 -29.35 15.15 -29.7 15.35 -29.85 16.3 -29.5 Q16.15 -29.35 16.15 -29.05 16.1 -28.45 16.65 -28.05 18.3 -26.85 20.35 -27.05 L20.65 -27.25 20.85 -27.5 M14.95 -22.9 L14.8 -22.9 Q14.3 -22.95 13.95 -22.6 13.4 -22.1 13.85 -21.5 L15.1 -20.35 Q15.8 -19.95 16.55 -20.0 17.9 -20.15 17.85 -21.45 L17.7 -21.75 16.95 -22.3 19.6 -22.0 Q20.15 -21.05 19.75 -20.0 L19.2 -17.85 Q15.9 -18.3 12.75 -19.7 12.65 -21.65 13.9 -23.35 L14.95 -22.9 M11.55 -14.65 Q11.2 -14.6 10.95 -14.3 10.35 -13.55 11.15 -12.85 12.4 -11.75 14.05 -12.05 15.15 -12.2 15.2 -13.25 15.25 -13.65 14.9 -13.9 L14.85 -13.9 14.2 -14.1 17.2 -13.05 Q16.85 -11.4 15.95 -9.95 12.7 -10.1 9.85 -11.3 9.7 -13.15 10.6 -14.8 L11.55 -14.65 M34.35 -18.75 Q34.55 -17.15 33.15 -16.2 31.4 -16.0 30.8 -17.35 30.75 -19.4 32.35 -20.0 33.75 -20.05 34.35 -18.75 M35.1 -19.35 L32.6 -21.05 31.95 -21.4 30.2 -21.85 28.7 -22.3 28.15 -22.4 25.7 -22.35 24.85 -22.4 25.8 -23.65 27.55 -23.55 27.85 -23.55 28.45 -23.45 28.6 -23.4 29.55 -23.2 Q32.9 -22.3 35.1 -19.35 M32.6 -16.8 Q33.65 -17.15 33.7 -18.35 32.95 -19.9 31.65 -18.9 31.0 -17.3 32.6 -16.8 M27.7 -17.5 L26.6 -18.35 Q25.7 -17.15 25.1 -15.8 L26.3 -20.3 26.5 -20.6 26.65 -20.85 26.85 -21.15 27.05 -21.35 27.25 -21.65 27.7 -21.6 26.8 -18.8 26.85 -18.75 27.45 -18.3 28.5 -17.25 28.25 -17.3 27.7 -17.5 M27.65 -10.25 Q27.65 -12.05 29.05 -13.2 30.65 -13.45 31.1 -12.15 31.15 -10.5 29.7 -9.5 28.35 -9.35 27.65 -10.25 M28.55 -11.65 Q28.0 -10.8 28.8 -10.2 29.55 -10.2 30.1 -10.8 30.75 -11.95 30.0 -12.3 29.25 -12.7 28.55 -11.65 M23.6 -9.4 L23.65 -9.4 23.65 -9.35 23.6 -9.4 M18.45 25.05 L18.8 25.65 19.2 26.4 18.85 26.45 17.9 26.7 15.9 27.25 15.5 27.25 15.45 27.25 15.15 26.3 14.65 25.45 Q16.35 24.55 18.3 24.85 L18.45 25.05 M19.8 31.85 L19.2 34.15 19.0 34.65 15.05 34.3 15.1 34.2 15.15 33.75 15.3 32.95 15.45 31.8 15.5 31.8 19.8 31.85 M20.0 34.4 L20.1 34.15 20.4 33.2 20.55 32.55 20.65 31.85 21.25 31.7 22.45 31.4 23.1 31.5 22.25 34.0 19.95 34.55 20.0 34.4 M20.1 26.05 L19.0 24.35 19.2 24.1 Q19.7 23.45 20.25 23.85 L21.6 24.8 21.85 25.2 22.05 25.6 21.85 25.6 20.1 26.05 M-6.05 26.0 L-5.75 26.15 -5.4 25.95 -2.55 26.1 -1.5 26.15 1.4 26.05 3.8 25.8 6.75 25.3 7.05 25.25 7.9 27.4 Q8.1 30.65 6.5 33.35 2.5 34.45 -1.65 34.55 -5.35 34.65 -8.7 33.1 L-8.75 32.95 -8.65 32.4 -8.9 30.55 -8.75 29.85 -8.4 28.45 -7.95 27.7 -7.6 27.45 -7.45 27.9 Q-7.25 28.55 -6.35 28.35 -5.4 27.8 -5.4 26.7 -5.6 26.2 -6.05 26.0 M0.7 30.9 Q-0.3 31.1 -1.3 30.55 L-2.5 29.65 -2.6 29.45 Q-2.75 28.35 -1.7 27.95 L-1.05 27.65 -0.4 27.4 Q1.05 27.35 2.1 28.3 2.4 28.6 2.4 29.05 2.35 29.8 1.85 30.3 1.35 30.8 0.7 30.9 M4.15 30.7 Q5.15 29.45 4.6 28.05 L2.75 26.35 -1.25 26.3 Q-3.3 26.3 -4.45 27.95 -4.9 29.45 -4.0 30.7 -2.3 32.25 0.25 32.45 2.5 32.35 4.15 30.7 M-44.4 -13.9 L-44.6 -14.2 Q-43.55 -15.7 -42.9 -17.3 L-42.85 -17.2 -42.85 -17.25 -42.3 -19.05 -41.65 -20.3 -41.15 -20.85 -41.15 -20.9 Q-39.3 -23.05 -36.65 -23.7 -34.0 -24.4 -31.5 -25.4 -30.05 -25.3 -28.7 -24.8 L-28.1 -23.45 -28.45 -23.55 -29.2 -23.8 -30.75 -24.05 -31.0 -24.3 Q-29.25 -22.45 -28.45 -20.2 L-28.35 -19.8 -27.95 -18.5 -27.9 -18.1 -27.8 -17.65 -27.75 -17.1 -27.75 -16.9 -27.65 -15.25 -27.75 -15.15 -27.8 -15.15 -27.95 -15.1 -27.9 -14.45 -27.8 -13.8 -27.85 -13.75 -27.95 -13.7 -28.0 -13.7 -28.0 -13.8 -28.1 -14.25 -28.1 -14.3 -28.2 -14.95 -28.25 -14.95 -28.6 -16.6 Q-29.3 -19.0 -30.45 -21.25 L-30.6 -21.65 -30.7 -21.8 -31.15 -22.45 -31.15 -22.5 -31.4 -22.9 -32.15 -24.05 -32.55 -24.0 -33.5 -23.8 -34.2 -23.6 -36.25 -23.05 -37.85 -22.25 -38.65 -21.7 -40.9 -19.8 -41.0 -19.7 -41.3 -20.15 -40.85 -19.55 -39.55 -18.5 Q-38.9 -19.8 -38.05 -20.55 -38.75 -18.0 -39.8 -15.3 L-39.65 -15.1 -39.25 -14.5 -40.1 -14.45 -40.3 -14.55 Q-40.5 -13.7 -41.15 -13.15 L-41.25 -13.2 -41.4 -13.3 -41.6 -13.6 -41.55 -13.8 -41.5 -13.9 -40.95 -14.7 Q-40.85 -15.5 -41.55 -16.1 L-42.25 -16.7 -42.85 -15.55 -43.7 -13.9 Q-44.1 -13.75 -44.4 -13.9 M-41.45 -19.15 L-41.0 -18.8 -41.25 -18.35 -41.8 -17.3 -40.5 -16.1 -39.7 -17.8 Q-40.55 -18.55 -41.45 -19.15 M-23.05 -23.8 Q-20.65 -25.65 -17.55 -26.05 -16.0 -24.35 -15.65 -22.2 -18.35 -20.85 -21.3 -20.2 L-23.05 -23.8 M-22.15 -23.75 Q-22.2 -22.95 -21.4 -22.75 -19.95 -22.35 -18.55 -23.05 -17.75 -23.5 -17.8 -24.3 L-17.9 -24.65 Q-18.55 -25.45 -19.65 -25.3 -20.75 -25.25 -21.65 -24.6 -22.1 -24.3 -22.15 -23.75 M-16.1 -14.05 Q-15.15 -14.45 -15.25 -15.35 L-15.45 -15.7 Q-16.35 -16.4 -17.6 -16.2 L-18.55 -15.85 Q-19.6 -15.45 -19.4 -14.45 L-19.2 -14.15 -16.1 -14.05 M-14.15 -12.8 Q-16.45 -11.75 -18.95 -11.3 -19.95 -13.0 -20.25 -15.1 -17.55 -16.7 -14.1 -16.9 L-13.4 -15.25 -13.25 -13.75 Q-13.05 -12.95 -14.15 -12.8 M-22.45 23.6 L-22.15 23.15 -17.7 23.45 -17.8 23.6 -18.95 25.7 -20.65 25.6 -23.2 25.45 -23.45 25.45 -22.45 23.6 M-16.65 23.7 L-16.5 23.5 -13.45 23.3 -13.5 25.9 -13.45 28.8 -13.6 31.6 -14.2 34.0 -17.4 34.55 -17.9 34.3 Q-18.7 33.8 -18.9 32.9 L-19.15 31.8 -15.1 31.6 -15.2 30.0 -14.9 27.1 -14.55 25.8 -15.05 25.8 -18.15 25.7 -18.0 25.4 -16.65 23.7 M-19.3 34.3 L-19.2 34.6 -22.3 34.4 -23.4 33.9 Q-23.95 33.35 -24.1 32.35 L-24.2 31.6 -21.5 31.8 -20.3 31.95 -20.1 32.75 -20.05 32.85 -19.9 33.2 -19.35 34.3 -19.3 34.3 M-24.25 34.05 L-24.05 34.4 Q-25.5 34.75 -26.55 33.7 L-27.2 31.4 -26.75 31.35 -25.1 31.5 -24.9 32.25 -24.85 32.4 -24.6 33.25 -24.25 34.05 M-26.95 25.55 L-26.75 24.8 -26.45 24.0 Q-25.3 23.05 -23.45 23.25 L-23.5 23.25 -24.45 25.4 -26.95 25.55 M-8.55 31.3 Q-7.9 32.4 -6.4 32.55 L-5.4 31.45 Q-5.7 30.05 -6.9 29.8 -8.2 30.1 -8.55 31.3" fill="#666666" fill-rule="evenodd" stroke="none"/>
    <path d="M12.5 -73.9 Q6.1 -74.55 0.95 -70.0 L1.35 -70.15 1.1 -69.95 -0.9 -67.9 -1.1 -67.8 -5.4 -64.95 -6.05 -64.45 -6.1 -64.45 -6.55 -64.05 -7.05 -63.65 -7.75 -63.05 Q-10.15 -60.8 -10.5 -58.05 L-10.45 -55.85 Q-8.0 -53.55 -4.45 -53.8 -0.95 -54.05 1.85 -55.3 L3.0 -55.35 3.2 -55.35 3.35 -55.4 3.45 -55.55 3.6 -55.7 3.6 -55.65 Q3.9 -55.05 4.55 -55.3 5.0 -55.0 5.5 -55.05 L5.55 -54.95 5.9 -54.55 6.25 -54.15 6.65 -53.75 6.6 -53.7 6.65 -53.45 6.75 -53.25 Q7.3 -51.3 7.2 -49.4 7.0 -46.5 5.2 -43.75 7.2 -43.5 8.85 -44.5 10.45 -45.55 11.65 -46.85 L10.7 -47.2 Q9.0 -48.3 9.45 -50.1 10.85 -52.95 14.1 -53.05 L13.9 -53.3 13.6 -53.9 Q14.1 -53.7 14.55 -54.15 L14.95 -54.5 15.55 -55.15 Q16.45 -56.1 17.15 -57.2 19.0 -59.55 19.65 -62.55 L19.75 -63.15 19.8 -63.5 19.9 -64.55 19.9 -64.6 Q20.0 -67.2 19.0 -69.6 16.55 -72.65 13.1 -73.8 L12.5 -73.9 M8.1 -61.1 L8.1 -61.15 8.15 -61.15 8.1 -61.1 M-29.8 -6.1 L-32.9 -6.9 Q-35.45 -7.75 -37.85 -8.75 L-40.8 -9.95 -41.15 -10.2 -41.8 -10.65 -42.55 -11.15 -45.55 -14.1 Q-45.65 -14.65 -45.25 -14.85 -44.9 -15.1 -44.9 -15.55 L-42.65 -20.35 Q-41.45 -22.7 -38.85 -24.0 -36.35 -24.8 -33.8 -26.0 -31.3 -27.2 -28.75 -25.95 -28.0 -27.3 -26.85 -28.25 L-26.7 -28.3 -26.25 -28.35 -24.25 -28.4 -23.2 -28.55 -22.25 -29.0 -21.2 -29.55 -20.25 -30.15 -20.15 -30.2 Q-18.3 -31.05 -16.25 -30.85 L-16.0 -30.8 -14.5 -30.6 -14.4 -30.65 Q-13.65 -30.55 -12.95 -30.05 -12.7 -29.85 -12.45 -30.05 -12.1 -30.2 -12.15 -30.55 -11.05 -30.7 -10.05 -31.3 L-7.9 -31.5 Q-7.7 -31.85 -7.75 -32.3 -8.95 -33.05 -10.3 -33.5 L-10.7 -33.7 -11.25 -34.95 -11.3 -35.1 -11.25 -35.9 Q-11.15 -36.5 -11.45 -37.2 -11.8 -37.9 -12.5 -37.95 L-12.65 -38.1 Q-13.75 -38.95 -13.1 -40.6 L-13.05 -40.6 -11.7 -41.3 -11.45 -41.65 Q-11.3 -42.15 -11.6 -42.3 L-11.8 -42.7 -12.4 -43.2 -13.5 -44.3 -14.35 -45.4 -15.45 -47.65 -15.65 -48.6 Q-15.7 -53.35 -11.95 -56.55 -11.55 -62.0 -7.15 -65.05 -2.75 -68.1 1.0 -71.5 3.9 -73.75 7.55 -74.65 11.15 -75.5 14.7 -74.1 L16.0 -74.05 Q21.75 -70.2 20.9 -63.2 19.45 -57.65 15.15 -53.85 15.2 -52.5 16.3 -52.6 L18.25 -52.45 18.4 -52.55 Q19.15 -52.25 19.55 -51.5 L19.55 -51.35 19.15 -50.45 Q16.8 -48.2 13.45 -47.6 12.65 -45.65 10.9 -44.4 9.1 -43.2 7.25 -42.75 7.2 -36.6 9.1 -30.8 10.1 -30.8 10.9 -30.05 11.65 -29.3 12.7 -29.85 13.75 -29.35 14.35 -30.05 14.95 -30.75 15.95 -30.85 20.05 -29.5 24.0 -27.45 24.2 -26.5 23.75 -25.45 24.55 -24.7 25.8 -24.4 27.75 -25.4 30.2 -24.7 34.8 -23.2 37.1 -19.0 38.9 -18.75 40.0 -17.3 40.35 -15.6 39.25 -13.85 L40.3 -11.6 Q40.65 -10.4 39.85 -9.3 L38.4 -8.25 38.3 -8.25 38.2 -8.15 38.1 -8.1 37.6 -7.8 37.6 -7.75 36.75 -7.35 35.85 -6.85 Q32.9 -5.7 29.75 -5.55 L26.25 -5.7 26.15 -5.65 24.9 -5.2 24.65 -5.1 24.25 -5.0 23.7 -4.8 19.95 -3.9 19.55 1.6 Q19.35 3.75 20.65 5.4 L20.35 4.95 21.7 3.85 22.55 3.2 22.85 2.95 23.05 3.9 23.1 4.05 23.05 4.2 23.0 4.55 22.65 5.35 22.65 5.4 Q22.05 5.95 21.8 6.8 24.3 8.65 23.25 11.0 22.15 13.35 21.4 15.6 20.65 17.5 21.7 19.7 21.55 20.55 21.7 21.3 21.9 22.05 21.4 22.75 23.4 23.75 23.8 26.0 L24.4 30.45 Q24.7 32.75 22.9 34.1 21.05 35.35 22.65 37.5 22.4 39.2 20.7 39.75 20.85 42.6 20.25 45.05 19.6 47.45 20.9 49.75 21.45 53.3 21.2 56.85 24.5 57.7 23.9 60.75 23.3 63.85 23.7 66.25 L23.75 66.35 22.55 66.65 19.95 67.55 19.75 66.2 19.85 65.7 Q20.6 64.05 20.8 62.1 L20.95 60.6 Q21.0 60.0 21.5 59.85 L21.65 59.65 22.4 59.75 22.4 59.45 22.45 58.95 22.5 58.8 Q20.55 57.6 18.2 57.25 16.1 56.95 14.4 55.7 L13.95 55.3 Q14.25 53.15 14.0 51.35 12.6 48.95 13.15 46.3 13.6 43.55 13.35 40.9 11.6 40.9 10.15 41.6 L10.1 42.4 Q10.05 43.85 10.3 45.4 L10.35 45.9 Q10.75 48.05 10.45 49.95 10.95 50.6 10.2 51.05 9.95 53.65 8.35 55.55 L4.95 59.25 Q3.45 60.75 0.9 60.5 L-3.9 60.3 -4.85 59.6 Q-6.6 58.0 -7.55 56.1 -8.55 54.1 -10.45 52.7 -10.55 49.7 -11.0 46.85 -11.5 43.9 -11.0 40.8 L-11.25 40.7 -12.95 40.5 -14.95 40.35 -14.9 50.35 -14.9 50.5 -14.85 52.1 -14.85 52.15 -15.25 54.0 Q-16.0 56.2 -18.35 57.45 -22.45 59.5 -25.7 61.9 L-25.7 62.0 -25.65 62.25 -25.6 62.25 Q-25.4 63.3 -24.7 64.15 -23.9 65.2 -24.0 66.6 L-23.95 67.4 -25.15 67.05 Q-25.35 66.0 -26.1 65.2 -26.45 63.25 -26.0 61.4 -23.25 59.5 -24.3 56.85 -25.4 54.2 -24.3 51.5 -22.25 48.85 -23.05 45.7 -23.85 42.5 -22.8 39.5 -24.3 39.3 -25.65 38.6 -25.95 37.35 -25.6 35.9 -25.25 34.5 -27.2 34.45 -28.85 31.7 -28.4 28.35 -28.0 24.9 -26.25 22.45 L-26.2 22.0 Q-25.8 22.1 -25.55 21.65 -25.2 18.8 -26.55 16.6 -27.95 14.35 -28.3 11.8 -28.35 10.75 -27.0 10.1 -25.7 9.45 -27.0 8.15 -28.4 6.85 -29.25 5.15 L-29.25 5.1 -29.85 4.1 -30.05 3.4 -30.1 2.7 -30.1 2.65 Q-30.15 2.2 -29.8 2.05 -29.15 2.1 -28.9 2.7 L-28.7 3.2 -28.7 3.25 -26.9 5.45 -26.3 6.2 -25.4 6.3 -24.55 6.4 -24.85 7.3 -23.9 4.8 -23.65 4.1 Q-22.95 -0.8 -23.6 -5.75 -25.45 -5.65 -27.2 -5.8 L-28.0 -5.85 -28.7 -5.95 -29.4 -6.15 -29.5 -6.05 -29.8 -6.1 M19.75 -53.55 L19.9 -53.65 19.8 -53.55 19.75 -53.55 M3.1 75.6 L1.4 77.0 1.4 76.8 Q0.1 76.55 -0.85 77.2 L-1.7 76.95 -1.45 76.85 -1.9 76.8 -2.05 76.65 -0.95 76.45 Q-0.25 76.45 0.0 75.9 L-4.4 74.75 -4.45 75.0 -4.65 74.85 -4.7 74.65 0.65 76.0 Q1.3 75.5 1.6 74.8 L2.25 75.35 3.1 75.6 M5.5 -46.8 Q6.2 -48.55 6.0 -50.6 L6.0 -50.65 5.65 -51.4 4.65 -52.7 4.4 -52.9 Q3.15 -53.75 1.65 -53.7 L0.1 -53.25 -2.9 -52.8 -4.65 -52.8 -7.2 -53.1 Q-7.95 -53.15 -8.7 -53.55 L-9.85 -54.05 -11.4 -54.95 -11.95 -55.35 -13.4 -53.7 -13.45 -53.7 -13.95 -52.7 -14.3 -51.6 -14.55 -49.7 -14.55 -49.6 -14.55 -49.55 -14.55 -49.45 -14.55 -49.25 -14.55 -49.2 -14.55 -49.05 -14.45 -48.05 -14.4 -47.8 -13.8 -45.9 -13.2 -45.15 -13.15 -45.1 -12.6 -44.5 -11.85 -44.0 -11.25 -43.55 -10.0 -42.9 Q-8.15 -42.15 -5.9 -42.25 -2.05 -42.45 1.3 -43.2 L2.45 -43.6 3.35 -43.9 3.45 -44.0 3.5 -44.0 4.25 -44.75 4.85 -45.55 5.25 -46.25 5.5 -46.8 M12.05 -51.6 Q11.1 -51.1 10.35 -49.85 10.2 -48.7 11.2 -48.0 L12.65 -48.05 13.6 -48.35 13.85 -48.5 13.9 -48.5 16.5 -49.6 16.6 -49.65 16.85 -49.75 Q18.05 -50.4 18.5 -51.65 L14.0 -52.0 13.95 -52.0 Q12.9 -52.1 12.05 -51.6 M17.8 -26.05 Q17.5 -26.4 17.65 -26.9 L18.25 -26.9 Q20.4 -25.5 23.1 -25.8 L23.15 -26.25 20.85 -27.5 Q18.65 -28.6 16.3 -29.5 L15.35 -29.85 15.2 -29.9 15.15 -29.7 14.95 -29.35 14.65 -28.75 14.3 -28.25 14.3 -28.2 Q13.65 -28.6 12.85 -28.6 L12.65 -28.6 12.35 -28.05 Q11.2 -25.55 10.8 -22.7 8.55 -17.55 7.5 -11.85 L7.0 -9.45 Q6.0 -5.05 4.45 -0.9 4.15 1.65 4.15 4.35 L3.7 8.5 3.55 9.05 3.45 9.45 Q0.75 12.95 -3.95 12.25 L-4.6 12.15 -4.85 11.8 -5.25 10.95 -5.35 10.65 Q-5.6 9.9 -5.5 9.05 L-5.45 5.65 Q-10.0 -6.6 -11.45 -19.9 L-13.2 -25.25 Q-14.0 -27.85 -15.7 -30.0 L-15.95 -30.25 Q-18.5 -30.85 -20.55 -29.2 L-21.5 -28.1 Q-22.0 -27.7 -22.6 -27.55 L-24.4 -27.65 Q-26.2 -28.2 -27.2 -26.9 L-27.3 -26.8 -27.85 -25.7 -26.65 -24.55 -26.45 -24.4 Q-24.75 -20.0 -23.65 -15.45 -20.35 -6.55 -22.25 2.2 -22.8 4.8 -23.85 7.4 L-23.25 7.55 -27.75 11.85 -24.25 16.35 -24.2 16.4 -24.15 17.0 -24.15 17.05 -24.15 17.25 -24.2 17.65 -24.35 18.3 -24.4 18.45 -24.6 18.95 Q-25.0 19.75 -24.95 20.65 L-24.85 21.2 -24.75 21.55 -13.6 22.4 Q-13.3 22.8 -12.95 22.7 -12.65 22.6 -12.4 23.05 -11.65 28.35 -12.85 33.8 -14.85 36.35 -18.1 36.0 L-24.45 35.85 -24.9 38.2 -17.85 38.75 -10.5 39.25 -5.95 38.65 Q-6.15 36.85 -5.6 35.4 -7.8 35.0 -9.45 33.65 -10.1 34.0 -10.35 33.5 L-10.85 32.6 Q-11.85 27.8 -8.9 24.15 -8.1 23.4 -7.15 23.45 L-5.25 23.35 -5.3 18.45 Q-5.3 16.6 -4.55 14.65 L1.45 14.0 2.35 15.15 3.15 16.9 3.35 17.55 3.4 17.8 3.4 17.95 3.45 18.25 Q3.9 20.7 3.15 23.1 L3.25 23.1 4.3 23.3 5.5 23.25 Q6.6 23.15 7.55 24.4 L8.85 27.3 Q9.6 28.7 9.2 30.55 8.35 34.3 4.55 35.15 5.1 37.25 4.35 39.3 L12.75 39.9 Q17.1 39.65 20.75 37.85 L21.2 38.4 21.35 38.2 20.65 35.7 16.85 36.0 Q14.8 36.25 13.6 34.6 14.05 30.4 13.45 26.35 12.65 24.05 14.8 23.85 16.95 23.7 18.35 22.6 L19.7 22.5 Q20.35 22.65 20.35 21.75 19.3 19.95 18.65 18.0 21.25 14.45 22.25 10.15 19.2 6.75 18.45 2.45 18.3 -7.45 21.3 -16.8 L22.65 -20.25 Q23.45 -21.95 23.65 -23.85 22.65 -23.95 21.8 -24.55 20.9 -25.2 19.75 -25.15 L19.6 -25.2 18.9 -25.5 18.25 -25.75 17.8 -26.05 M7.9 -28.4 Q7.5 -29.25 7.55 -30.05 L7.25 -32.0 Q5.85 -33.9 5.95 -36.1 L5.65 -39.8 5.65 -39.85 5.6 -40.65 5.3 -41.85 5.25 -42.25 Q5.2 -43.0 4.45 -42.95 L4.35 -42.9 4.3 -42.9 4.3 -42.85 4.1 -42.9 3.3 -42.55 3.1 -42.5 2.85 -42.4 2.55 -42.3 2.1 -42.15 0.8 -42.1 0.35 -42.0 -1.05 -41.65 -1.9 -41.5 -2.5 -41.45 -2.55 -41.45 -4.25 -41.25 -6.4 -41.15 -6.7 -41.15 -7.1 -41.2 -7.5 -41.2 -7.4 -41.2 -7.8 -41.3 -8.3 -41.35 -7.95 -41.3 -8.7 -41.45 -8.75 -41.45 -8.95 -41.5 -9.85 -41.8 -10.65 -42.05 -10.7 -41.55 -10.65 -41.5 -10.7 -41.5 -10.75 -41.45 -10.8 -41.45 -11.0 -40.9 -10.75 -40.6 -9.3 -40.35 -9.2 -40.35 -8.5 -40.35 -7.95 -40.3 -8.25 -40.45 -6.75 -39.95 -6.55 -39.9 -5.7 -39.8 -3.45 -39.55 -1.8 -39.15 -2.1 -38.7 -5.3 -38.9 Q-6.85 -38.65 -7.95 -39.45 L-8.1 -39.55 -8.6 -39.6 -9.3 -39.65 -10.35 -39.85 Q-11.45 -40.2 -12.35 -39.6 L-12.25 -38.8 Q-11.75 -38.7 -11.4 -38.45 L-10.9 -38.05 -10.65 -37.7 -10.6 -37.65 -10.5 -37.35 -10.45 -37.05 -10.45 -36.65 Q-10.65 -35.05 -9.4 -33.95 L-5.4 -34.05 -4.4 -34.2 -4.35 -34.2 -3.65 -33.65 -1.65 -33.4 -1.55 -33.5 -1.45 -33.6 -0.35 -34.45 -0.15 -34.6 1.6 -36.25 1.7 -36.2 1.75 -36.15 2.0 -36.45 Q1.5 -35.9 1.25 -35.2 L1.15 -34.95 Q0.45 -33.4 -1.15 -32.45 L-4.05 -32.7 -4.7 -33.1 -5.3 -33.2 Q-6.75 -33.3 -6.9 -31.9 L-6.95 -31.45 -6.95 -31.25 -6.95 -31.15 -7.1 -29.85 -7.15 -29.6 -7.15 -29.65 -7.45 -28.85 -7.8 -28.2 -7.95 -28.0 Q-8.15 -28.9 -8.0 -29.9 L-8.6 -30.2 -9.65 -30.35 -10.4 -30.1 -10.85 -29.9 -11.55 -29.6 -12.05 -29.4 -12.75 -29.2 -12.8 -29.2 -12.75 -29.15 -11.25 -25.7 -11.2 -25.55 -11.15 -25.4 -11.1 -25.25 -10.8 -24.25 -10.1 -20.8 -9.9 -18.7 -9.75 -17.1 -9.7 -16.65 -9.65 -16.3 -9.2 -13.4 -9.2 -13.25 -9.15 -13.0 -9.1 -12.9 -9.05 -12.65 -9.0 -12.4 -8.65 -10.9 -7.7 -7.75 -7.3 -6.3 -6.6 -4.4 -6.55 -4.3 -6.25 -3.75 Q-5.3 -1.85 -4.9 0.3 L-4.9 0.35 -4.9 1.05 -4.8 1.6 -4.8 1.75 -4.75 1.75 -4.4 2.7 -4.25 3.05 -4.1 3.25 -3.35 4.15 -3.2 4.2 -3.1 4.2 -2.95 4.25 -2.75 4.25 -2.65 4.3 -2.55 4.3 -2.4 4.3 -1.5 4.35 -0.05 4.25 0.1 4.25 0.4 4.2 1.65 3.85 1.85 3.25 2.5 1.2 3.3 -1.25 3.5 -1.95 4.15 -4.4 4.15 -4.55 4.05 -4.55 4.35 -4.95 4.65 -5.95 4.95 -7.05 Q5.65 -9.75 5.95 -12.6 L6.85 -16.05 8.05 -20.3 8.2 -20.8 8.8 -22.75 9.35 -24.3 11.0 -27.8 11.35 -28.45 9.5 -29.05 Q8.55 -29.5 8.0 -28.15 L7.9 -28.4 M0.3 -18.3 L0.3 -17.75 0.3 -17.65 0.75 -15.45 Q1.1 -13.3 1.05 -11.1 L0.95 -10.05 Q0.85 -9.2 1.45 -8.7 L1.35 -8.45 0.65 -7.3 -0.15 -6.65 -0.2 -6.6 Q-1.75 -5.5 -3.45 -4.85 L-4.1 -4.65 -5.3 -4.35 Q-3.7 -5.1 -1.9 -6.1 L-1.8 -6.15 Q-0.65 -7.9 0.15 -9.95 L0.3 -10.35 0.3 -10.4 0.0 -17.3 Q0.45 -17.85 0.3 -18.3 M16.95 -22.3 L16.9 -22.35 Q16.05 -22.85 15.0 -22.9 L14.95 -22.9 13.9 -23.35 Q12.65 -21.65 12.75 -19.7 15.9 -18.3 19.2 -17.85 L19.75 -20.0 Q20.15 -21.05 19.6 -22.0 L16.95 -22.3 M13.7 -24.4 Q16.9 -23.25 20.3 -22.45 21.15 -19.4 19.3 -16.8 15.0 -17.4 11.6 -19.6 12.3 -22.15 13.7 -24.4 M14.2 -14.1 L12.2 -14.55 11.55 -14.65 10.6 -14.8 Q9.7 -13.15 9.85 -11.3 12.7 -10.1 15.95 -9.95 16.85 -11.4 17.2 -13.05 L14.2 -14.1 M18.0 -14.15 Q18.5 -11.65 17.25 -9.6 15.4 -8.75 13.4 -9.2 11.4 -9.7 9.6 -10.35 8.8 -10.95 9.1 -11.9 L9.5 -13.7 Q9.85 -14.75 10.8 -15.55 L18.0 -14.15 M1.7 -22.5 L1.45 -22.2 1.15 -22.1 Q0.3 -21.85 -0.4 -22.35 L-1.0 -22.9 -1.4 -23.4 -1.4 -23.55 Q-1.25 -23.95 -0.8 -23.75 L-0.5 -23.6 -0.4 -23.5 1.35 -23.9 Q2.0 -23.9 1.95 -23.25 L1.7 -22.5 M24.85 -22.4 L24.75 -22.25 Q24.65 -21.5 24.2 -20.8 L22.55 -15.7 22.6 -13.95 Q22.4 -11.8 22.7 -9.65 L22.8 -8.55 23.05 -6.75 Q26.15 -6.6 29.15 -6.8 33.25 -7.1 36.8 -9.4 38.05 -10.4 39.45 -10.85 37.65 -14.45 36.4 -18.1 L35.6 -18.6 35.1 -19.35 Q32.9 -22.3 29.55 -23.2 L28.6 -23.4 28.45 -23.45 27.85 -23.55 27.55 -23.55 25.8 -23.65 24.85 -22.4 M38.95 -14.9 L39.35 -16.5 Q38.95 -17.6 37.85 -18.05 38.2 -16.4 38.95 -14.9 M28.5 -17.25 L29.05 -16.5 27.7 -17.5 28.25 -17.3 28.5 -17.25 M23.6 -9.4 L23.65 -9.35 23.65 -8.45 23.55 -10.15 23.6 -9.4 M14.85 11.55 Q15.05 8.8 13.35 6.95 12.05 6.05 10.35 5.95 8.6 5.85 7.5 7.25 5.35 10.2 6.9 13.6 7.75 14.9 9.35 14.9 L12.2 14.55 Q14.1 13.55 14.85 11.55 M2.6 5.2 L-0.2 5.4 Q-0.6 5.95 -1.45 6.35 L-2.05 6.75 Q-1.7 8.55 -1.8 10.3 -1.85 10.85 -2.4 11.05 L-3.2 11.25 -3.2 11.4 -0.8 11.15 Q1.9 11.35 2.05 9.2 2.15 7.1 2.6 5.2 M5.5 12.7 Q5.0 7.95 8.7 5.25 11.55 4.45 13.9 6.1 16.6 9.25 15.15 13.0 12.95 16.3 8.7 15.75 6.25 15.15 5.5 12.7 M1.45 17.6 Q0.8 18.05 -0.15 18.2 L-1.0 18.5 -1.9 18.95 Q-1.5 20.75 -1.85 22.45 L-2.3 23.3 -2.55 23.7 1.9 23.15 1.45 17.6 M19.2 24.1 L19.1 24.05 18.7 24.2 Q18.4 24.6 18.4 25.0 L18.45 25.05 18.3 24.85 Q16.35 24.55 14.65 25.45 L15.15 26.3 15.45 27.25 15.5 27.25 Q15.8 28.4 15.65 29.8 L15.45 31.8 15.3 32.95 15.15 33.75 15.1 34.2 15.05 34.3 19.0 34.65 19.2 34.15 19.4 34.4 19.9 34.45 20.0 34.4 19.95 34.55 22.25 34.0 23.1 31.5 23.0 29.15 Q22.8 27.0 21.85 25.2 L21.6 24.8 20.25 23.85 Q19.7 23.45 19.2 24.1 M7.05 25.25 L6.9 25.0 6.9 24.95 Q6.25 23.75 4.4 24.3 L-5.6 24.65 -6.05 24.55 Q-6.2 24.45 -6.3 24.4 L-6.35 24.4 -6.6 24.2 Q-7.05 23.85 -7.5 24.35 -9.4 25.8 -9.8 28.15 -10.2 30.45 -9.6 32.65 L-8.85 33.05 -8.7 33.1 Q-5.35 34.65 -1.65 34.55 2.5 34.45 6.5 33.35 8.1 30.65 7.9 27.4 L7.05 25.25 M3.5 38.35 L3.5 38.25 1.95 38.35 2.75 38.3 3.0 38.3 3.5 38.35 M3.75 42.5 L2.85 42.3 -0.55 42.1 -4.7 41.9 -4.75 42.35 -4.85 42.75 -4.95 43.2 -5.25 44.0 -5.55 44.45 -3.45 44.6 Q-0.2 45.05 2.8 46.0 5.8 46.9 8.95 47.05 L8.8 45.3 7.65 45.2 Q6.75 45.1 5.9 44.7 L5.05 44.15 Q3.75 44.1 3.75 42.9 L3.75 42.5 M6.95 47.4 L7.95 47.6 Q0.15 45.95 -7.75 45.0 L-7.65 45.2 -7.55 45.75 -7.4 50.2 -7.45 50.6 -0.15 49.75 Q3.65 49.15 7.6 49.65 L7.4 49.45 7.25 49.2 Q6.65 48.65 6.8 47.75 L6.95 47.4 M-4.95 60.35 L-8.2 60.25 Q-6.6 59.35 -5.05 60.05 L-4.55 60.3 -4.95 60.35 M17.85 49.4 L14.75 49.35 Q14.6 52.2 14.95 54.75 17.8 55.15 20.25 56.35 L19.85 51.05 Q19.55 49.2 17.85 49.4 M14.55 44.45 L14.25 48.05 18.9 47.8 18.85 44.3 14.55 44.45 M6.9 55.05 Q8.85 53.1 9.15 50.7 4.6 49.45 -0.05 50.5 L-9.6 51.35 Q-9.1 52.75 -7.9 53.85 -6.7 54.95 -5.85 56.4 L4.3 55.65 4.3 55.6 4.75 55.2 Q5.9 55.15 5.9 56.15 L6.9 55.05 M9.2 49.65 L9.1 49.85 9.35 49.9 9.3 49.4 9.2 49.65 M2.85 58.75 Q2.7 58.45 2.9 58.1 L3.6 56.5 Q3.65 56.25 3.85 56.15 L0.25 56.55 -2.5 56.75 -2.5 56.85 -2.35 58.3 -2.35 58.85 3.35 59.15 3.15 59.15 2.85 58.75 M-28.1 -23.45 L-28.7 -24.8 Q-30.05 -25.3 -31.5 -25.4 -34.0 -24.4 -36.65 -23.7 -39.3 -23.05 -41.15 -20.9 L-41.15 -20.85 -41.65 -20.3 -42.3 -19.05 -42.85 -17.25 -42.85 -17.2 -42.9 -17.3 Q-43.55 -15.7 -44.6 -14.2 L-44.4 -13.9 Q-42.95 -12.15 -40.45 -11.85 -34.7 -8.8 -27.85 -7.8 L-27.0 -8.05 -26.7 -9.5 Q-25.75 -11.5 -25.5 -13.75 L-25.25 -15.05 Q-26.4 -19.35 -28.1 -23.45 M-41.55 -13.8 L-41.6 -13.6 -41.4 -13.3 Q-41.75 -13.55 -41.55 -13.8 M-31.15 -22.45 L-30.7 -21.8 -30.6 -21.65 -30.45 -21.25 -31.15 -22.45 M-28.2 -14.95 L-28.1 -14.3 -28.1 -14.25 -28.2 -14.95 M-28.0 -13.7 L-27.95 -13.7 -27.85 -13.75 -27.8 -13.8 -27.9 -14.45 -27.95 -15.1 -27.8 -15.15 -27.75 -15.15 -27.65 -15.25 Q-27.45 -11.8 -27.65 -8.45 L-27.8 -8.25 -28.0 -13.7 M-27.9 -18.1 L-27.95 -18.5 -28.35 -19.8 -28.45 -20.2 -27.9 -18.1 M-15.85 -25.15 Q-15.2 -23.75 -14.9 -22.35 -14.8 -21.45 -15.7 -21.1 -18.65 -19.75 -21.8 -19.45 -23.3 -21.55 -24.0 -23.95 -21.5 -26.2 -17.95 -26.85 -16.5 -26.6 -15.85 -25.15 M-23.05 -23.8 L-21.3 -20.2 Q-18.35 -20.85 -15.65 -22.2 -16.0 -24.35 -17.55 -26.05 -20.65 -25.65 -23.05 -23.8 M-33.25 -20.7 Q-32.7 -20.75 -32.35 -20.2 -32.1 -19.35 -32.55 -18.75 L-33.7 -18.8 Q-34.1 -19.9 -33.25 -20.7 M-37.35 -14.9 L-36.85 -15.7 Q-36.3 -15.35 -36.35 -14.65 -37.1 -14.2 -37.35 -14.9 M-33.2 -13.9 Q-32.35 -13.9 -32.45 -13.1 -32.75 -12.8 -33.1 -12.95 -33.7 -13.4 -33.2 -13.9 M-12.2 -13.05 Q-15.7 -10.65 -19.9 -10.65 -20.75 -13.3 -20.8 -15.9 -17.7 -17.7 -13.95 -17.65 L-13.05 -16.55 -12.2 -13.05 M-14.15 -12.8 Q-13.05 -12.95 -13.25 -13.75 L-13.4 -15.25 -14.1 -16.9 Q-17.55 -16.7 -20.25 -15.1 -19.95 -13.0 -18.95 -11.3 -16.45 -11.75 -14.15 -12.8 M-17.8 23.6 L-17.7 23.45 -22.15 23.15 -22.45 23.6 -22.55 23.45 Q-22.65 23.35 -22.7 23.35 L-23.5 23.25 -23.45 23.25 Q-25.3 23.05 -26.45 24.0 L-26.75 24.8 -26.95 25.55 Q-27.7 28.5 -27.2 31.4 L-26.55 33.7 Q-25.5 34.75 -24.05 34.4 L-24.25 34.05 -24.1 34.15 Q-23.85 34.35 -23.65 34.15 L-23.4 33.9 -22.3 34.4 -19.2 34.6 -19.3 34.3 -19.2 34.4 -18.0 34.5 -17.9 34.3 -17.4 34.55 -14.2 34.0 -13.6 31.6 -13.45 28.8 -13.5 25.9 -13.45 23.3 -16.5 23.5 -16.65 23.7 Q-16.85 23.4 -17.35 23.45 L-17.6 23.55 -17.8 23.6 M-7.95 18.85 L-8.55 19.8 -8.3 18.95 -8.1 19.1 -7.95 18.85 M-16.15 48.4 L-16.0 43.3 -19.2 43.3 -19.2 43.45 Q-19.35 45.4 -20.2 47.15 L-20.35 47.3 -20.45 47.45 -16.7 47.7 Q-16.35 48.0 -16.25 48.4 L-19.05 48.55 Q-20.55 48.35 -21.8 48.95 -23.65 50.95 -23.6 53.6 -23.6 56.3 -22.7 58.55 -18.55 57.2 -16.25 53.5 L-16.15 48.5 -16.15 48.4 M-21.65 43.2 L-22.0 43.05 -21.75 45.3 -21.8 44.65 -21.75 43.75 -21.65 43.2 M-3.8 38.55 L-3.45 38.55 -4.15 38.5 -4.55 38.4 -4.6 38.65 -4.1 38.55 -3.8 38.55 M-9.8 44.8 L-9.9 44.8 -9.85 45.0 -9.8 44.8 M-5.15 57.4 L-5.15 57.3 -4.55 57.15 -5.25 57.35 -5.15 57.5 -5.15 57.4 M-15.65 60.4 L-18.85 62.8 Q-20.55 63.9 -22.45 63.95 -21.95 62.65 -20.65 62.05 L-18.35 60.5 Q-16.3 59.1 -13.85 58.8 -15.0 59.15 -15.65 60.4" fill="#000000" fill-rule="evenodd" stroke="none"/>
    <path d="M10.95 -71.9 Q10.6 -71.1 9.65 -70.95 L7.15 -71.05 6.85 -71.3 Q6.4 -72.5 7.7 -72.95 L8.8 -73.15 Q10.0 -73.45 10.8 -72.65 L10.95 -71.9 M12.65 -48.05 L11.2 -48.0 Q10.2 -48.7 10.35 -49.85 11.1 -51.1 12.05 -51.6 11.45 -50.25 12.05 -48.9 L12.25 -48.55 12.65 -48.05 M13.95 -52.0 L14.0 -52.0 18.5 -51.65 Q18.05 -50.4 16.85 -49.75 L13.05 -49.8 13.05 -49.75 12.95 -49.7 13.05 -49.4 12.85 -50.2 12.9 -50.75 Q13.1 -51.65 13.95 -52.0 M13.9 -48.5 L13.85 -48.5 13.9 -48.5 M-4.25 -61.0 Q-5.05 -59.1 -6.8 -58.3 -7.9 -57.8 -8.65 -58.8 -9.05 -59.3 -8.85 -59.95 -8.15 -62.35 -5.8 -63.05 -4.05 -63.15 -4.15 -61.55 L-4.25 -61.0" fill="#cccccc" fill-rule="evenodd" stroke="none"/>
    <path d="M19.9 -64.55 L19.8 -63.5 19.75 -63.15 19.65 -62.55 Q19.0 -59.55 17.15 -57.2 16.45 -56.1 15.55 -55.15 L14.95 -54.5 14.55 -54.15 Q14.1 -53.7 13.6 -53.9 L13.4 -54.55 13.4 -54.65 Q12.0 -57.0 10.05 -55.85 L6.65 -53.75 6.25 -54.15 5.9 -54.55 5.55 -54.95 5.5 -55.05 Q5.95 -55.1 6.4 -55.5 L8.4 -56.8 Q11.3 -57.6 13.6 -56.25 17.05 -58.25 18.75 -61.8 L19.9 -64.55 M18.45 25.05 L18.4 25.0 Q18.4 24.6 18.7 24.2 L19.1 24.05 19.2 24.1 19.0 24.35 20.1 26.05 Q20.8 27.55 20.8 29.4 L20.55 32.55 20.4 33.2 20.1 34.15 20.0 34.4 19.9 34.45 19.4 34.4 19.2 34.15 19.8 31.85 19.95 30.55 Q20.05 27.85 18.8 25.65 L18.45 25.05 M-7.6 27.45 L-7.9 26.7 Q-7.45 25.95 -6.6 25.85 L-6.5 25.85 -6.05 26.0 Q-5.6 26.2 -5.4 26.7 -5.4 27.8 -6.35 28.35 -7.25 28.55 -7.45 27.9 L-7.6 27.45 M3.2 30.4 Q4.0 29.8 3.9 28.8 3.55 27.85 2.5 27.35 -0.9 26.1 -3.55 28.15 -3.95 29.95 -2.2 31.1 -0.3 31.95 1.75 31.4 L3.2 30.4 M4.15 30.7 Q2.5 32.35 0.25 32.45 -2.3 32.25 -4.0 30.7 -4.9 29.45 -4.45 27.95 -3.3 26.3 -1.25 26.3 L2.75 26.35 4.6 28.05 Q5.15 29.45 4.15 30.7 M-17.8 23.6 L-17.6 23.55 -17.35 23.45 Q-16.85 23.4 -16.65 23.7 L-18.0 25.4 -18.15 25.7 Q-19.4 27.9 -19.5 30.6 L-19.15 31.8 -18.9 32.9 Q-18.7 33.8 -17.9 34.3 L-18.0 34.5 -19.2 34.4 -19.3 34.3 -19.35 34.3 -19.9 33.2 -20.05 32.85 -20.1 32.75 -20.3 31.95 Q-20.7 29.8 -19.9 27.8 L-18.95 25.7 -17.8 23.6 M-23.4 33.9 L-23.65 34.15 Q-23.85 34.35 -24.1 34.15 L-24.25 34.05 -24.6 33.25 -24.85 32.4 -24.9 32.25 Q-25.35 30.6 -25.2 28.8 -25.0 26.95 -24.45 25.4 L-23.5 23.25 -22.7 23.35 Q-22.65 23.35 -22.55 23.45 L-22.45 23.6 -23.45 25.45 Q-24.65 28.3 -24.2 31.6 L-24.1 32.35 Q-23.95 33.35 -23.4 33.9 M-16.15 48.4 L-16.15 48.5 -16.25 48.4 -16.15 48.4 M-8.55 31.3 Q-8.2 30.1 -6.9 29.8 -5.7 30.05 -5.4 31.45 L-6.4 32.55 Q-7.9 32.4 -8.55 31.3" fill="#333333" fill-rule="evenodd" stroke="none"/>
    <path d="M0.1 -53.25 L1.65 -53.7 Q3.15 -53.75 4.4 -52.9 L4.65 -52.7 5.65 -51.4 6.0 -50.65 6.0 -50.6 Q6.2 -48.55 5.5 -46.8 L4.55 -46.5 3.1 -46.4 Q2.35 -46.6 2.4 -46.75 L2.45 -47.05 Q3.1 -47.25 3.65 -47.75 4.45 -48.55 4.65 -49.6 L4.6 -50.2 Q4.15 -51.65 2.65 -51.7 1.8 -51.75 1.35 -51.2 L0.95 -51.8 0.05 -52.85 0.1 -53.25 M-14.45 -48.05 L-14.55 -49.05 -14.5 -48.7 -13.7 -48.5 -12.65 -48.6 Q-12.35 -48.65 -12.0 -48.85 -10.65 -49.65 -10.45 -51.05 L-10.35 -51.35 Q-10.1 -52.0 -10.3 -52.6 L-10.55 -53.0 Q-10.8 -53.3 -11.15 -53.4 L-10.65 -53.15 Q-11.15 -54.15 -12.45 -54.1 L-13.2 -53.85 -13.4 -53.7 -11.95 -55.35 -11.4 -54.95 -9.85 -54.05 -8.7 -53.55 Q-7.95 -53.15 -7.2 -53.1 L-4.65 -52.8 -2.9 -52.8 -2.15 -52.45 -1.85 -52.3 Q-0.4 -51.4 0.2 -49.9 L0.3 -49.45 0.25 -47.65 Q-0.1 -46.75 -0.85 -46.2 L-1.05 -46.15 -8.6 -45.8 -10.15 -46.1 Q-12.55 -46.55 -14.45 -48.05 M-5.85 -49.8 L-5.85 -50.1 Q-6.4 -51.65 -8.15 -51.7 L-8.7 -51.6 Q-10.25 -50.9 -10.0 -49.2 L-9.75 -48.8 Q-8.35 -47.9 -6.8 -48.6 -5.95 -49.0 -5.85 -49.8" fill="#00ff00" fill-rule="evenodd" stroke="none"/>
    <path d="M0.1 -53.25 L0.05 -52.85 0.95 -51.8 1.35 -51.2 Q1.8 -51.75 2.65 -51.7 4.15 -51.65 4.6 -50.2 L4.65 -49.6 Q4.45 -48.55 3.65 -47.75 3.1 -47.25 2.45 -47.05 L2.4 -46.75 Q2.35 -46.6 3.1 -46.4 L4.55 -46.5 5.5 -46.8 5.25 -46.25 4.85 -45.55 4.25 -44.75 3.5 -44.0 3.45 -44.0 3.35 -43.9 2.45 -43.6 1.3 -43.2 Q-2.05 -42.45 -5.9 -42.25 -8.15 -42.15 -10.0 -42.9 L-11.25 -43.55 -11.85 -44.0 -12.6 -44.5 -13.15 -45.1 -13.2 -45.15 -13.8 -45.9 -14.4 -47.8 -14.45 -48.05 Q-12.55 -46.55 -10.15 -46.1 L-8.6 -45.8 -1.05 -46.15 -0.85 -46.2 Q-0.1 -46.75 0.25 -47.65 L0.3 -49.45 0.2 -49.9 Q-0.4 -51.4 -1.85 -52.3 L-2.15 -52.45 -2.9 -52.8 0.1 -53.25" fill="#009900" fill-rule="evenodd" stroke="none"/>
    <path d="M23.7 -4.8 Q23.2 -4.6 23.05 -4.0 L22.75 -2.55 Q22.55 -1.3 22.7 0.0 L22.65 0.7 22.65 0.95 22.7 1.45 22.85 2.95 22.55 3.2 21.7 3.85 20.35 4.95 20.65 5.4 Q19.35 3.75 19.55 1.6 L19.95 -3.9 23.7 -4.8 M-30.1 2.7 L-29.95 2.1 -29.55 1.45 -29.1 0.4 Q-28.2 0.55 -27.4 0.0 L-27.35 0.0 -27.3 -0.4 -27.35 0.05 -26.8 -0.2 Q-26.3 -0.5 -25.85 -0.95 L-25.75 -1.1 Q-24.2 -3.05 -26.2 -4.4 L-25.5 -3.8 -25.8 -4.55 -26.4 -5.25 -26.9 -5.6 -27.2 -5.8 Q-25.45 -5.65 -23.6 -5.75 -22.95 -0.8 -23.65 4.1 L-23.9 4.8 -24.85 7.3 -24.55 6.4 -25.4 6.3 -26.3 6.2 -26.9 5.45 -28.7 3.25 -28.7 3.2 -28.9 2.7 Q-29.15 2.1 -29.8 2.05 -30.15 2.2 -30.1 2.65 L-30.1 2.7 M-1.05 -41.65 L0.35 -42.0 0.8 -42.1 2.1 -42.15 2.55 -42.3 2.85 -42.4 3.1 -42.5 3.3 -42.55 4.1 -42.9 4.3 -42.85 4.3 -42.9 4.35 -42.9 4.45 -42.95 Q5.2 -43.0 5.25 -42.25 L5.3 -41.85 5.6 -40.65 5.65 -39.85 5.65 -39.8 5.95 -36.1 Q5.85 -33.9 7.25 -32.0 L7.55 -30.05 Q7.5 -29.25 7.9 -28.4 L7.85 -28.4 Q7.2 -28.2 7.05 -28.8 L6.8 -29.95 6.5 -32.2 Q5.65 -32.3 5.25 -33.15 L5.25 -33.25 Q5.05 -30.6 3.9 -27.95 L2.95 -27.1 Q4.85 -30.8 4.75 -35.2 L4.45 -36.5 4.0 -37.3 3.8 -36.95 3.05 -36.05 1.15 -34.95 1.25 -35.2 Q1.5 -35.9 2.0 -36.45 L1.75 -36.15 1.7 -36.2 1.6 -36.25 -0.15 -34.6 -0.35 -34.45 -1.45 -33.6 -1.55 -33.5 -1.65 -33.4 -3.65 -33.65 -4.35 -34.2 -4.4 -34.2 -3.6 -35.7 -3.35 -36.1 -3.1 -36.45 -2.9 -36.5 -2.55 -36.8 -2.05 -36.35 -1.35 -36.25 -1.15 -36.3 -1.05 -36.35 0.6 -36.55 0.7 -36.5 0.75 -36.55 0.9 -36.65 2.45 -37.9 2.75 -38.45 2.95 -39.05 2.75 -39.45 Q2.0 -40.6 0.75 -41.0 L0.55 -40.95 Q0.2 -40.85 0.2 -40.5 L0.2 -40.35 0.25 -40.3 -0.65 -41.25 -1.05 -41.65 M4.95 -7.05 L4.65 -5.95 4.35 -4.95 4.05 -4.55 3.9 -4.55 Q2.5 -4.75 1.05 -5.8 L1.1 -6.0 0.3 -6.4 -0.15 -6.6 -0.15 -6.65 0.65 -7.3 1.35 -8.45 1.7 -8.2 2.15 -7.85 Q2.95 -7.9 3.6 -7.5 L3.95 -7.35 4.95 -7.05 M3.3 -1.25 L2.5 1.2 2.45 1.15 Q1.0 -0.2 -1.0 0.0 L-3.75 0.9 Q-4.35 1.2 -4.8 1.6 L-4.9 1.05 -4.9 0.35 -4.9 0.3 Q-5.3 -1.85 -6.25 -3.75 L-6.55 -4.3 -6.6 -4.4 -7.3 -6.3 -7.5 -6.95 -7.35 -7.0 -7.6 -7.6 -8.4 -10.05 -8.65 -10.9 -9.0 -12.4 -9.05 -12.65 -9.1 -12.9 -9.15 -13.0 -9.2 -13.25 -9.2 -13.4 -8.25 -13.75 -7.6 -12.8 -5.85 -8.7 -5.1 -7.55 -5.8 -7.35 -4.45 -7.7 -3.5 -7.95 Q-2.4 -8.3 -1.6 -9.05 L-1.35 -9.35 Q-0.85 -11.15 -0.8 -13.05 L-0.75 -17.45 -0.7 -17.7 -0.6 -17.85 -0.4 -18.15 Q-0.05 -18.6 -0.2 -19.15 L-0.15 -19.15 -0.1 -19.15 0.05 -18.8 0.15 -18.7 0.15 -18.65 0.3 -18.3 Q0.45 -17.85 0.0 -17.3 L0.3 -10.4 0.3 -10.35 0.15 -9.95 Q-0.65 -7.9 -1.8 -6.15 L-1.9 -6.15 -1.9 -6.1 Q-3.7 -5.1 -5.3 -4.35 L-4.1 -4.65 -4.1 -4.6 -4.05 -4.4 -4.35 -4.2 Q-6.15 -2.75 -4.25 -1.75 L-4.2 -1.7 -3.85 -1.55 -3.4 -1.35 -3.4 -1.15 -3.25 -1.3 -1.4 -1.2 0.9 -1.0 Q2.6 -0.55 3.35 -2.0 L3.4 -2.0 3.45 -1.95 3.5 -1.9 3.3 -1.25 M-10.1 -20.8 L-10.8 -24.25 -10.6 -24.15 -8.95 -23.75 -8.8 -23.4 -8.6 -22.4 -8.7 -22.05 -8.8 -22.0 -9.6 -21.45 -10.1 -20.8 M-2.05 -26.75 Q-2.65 -26.1 -3.35 -25.8 L-3.8 -26.6 Q-4.6 -28.2 -4.35 -29.85 L-4.3 -30.1 -4.25 -30.4 -4.15 -30.4 -3.7 -30.4 -3.25 -30.2 -2.7 -29.55 -2.65 -29.35 -2.6 -29.3 -1.85 -26.95 -2.05 -26.75 M-2.35 -21.65 L-2.2 -21.6 -2.15 -21.55 -1.8 -20.85 -4.65 -21.3 -5.85 -21.6 -5.75 -21.65 -5.3 -21.85 -2.35 -21.65 M0.95 -30.25 Q1.4 -29.8 1.15 -29.45 L0.75 -28.65 -0.55 -27.6 Q-0.25 -28.3 -0.1 -29.1 0.0 -29.8 0.65 -30.1 L0.95 -30.25 M4.75 -25.5 L4.7 -25.4 Q4.05 -24.7 3.1 -24.55 3.8 -25.45 4.0 -26.55 4.2 -27.65 5.05 -28.45 5.4 -27.7 5.2 -26.75 L4.75 -25.5 M6.95 -22.0 Q5.2 -20.15 2.9 -19.2 L4.8 -21.3 4.85 -21.4 4.95 -21.45 5.0 -21.5 Q5.8 -22.3 6.8 -22.25 L7.15 -22.2 6.95 -22.0 M1.35 -4.55 L-0.8 -2.5 Q-2.0 -1.45 -3.4 -2.05 L-3.65 -2.2 Q-1.6 -4.1 1.05 -4.9 L1.35 -4.55 M-8.85 -37.05 L-8.65 -37.15 -8.5 -37.15 -6.05 -36.95 -5.9 -36.9 -5.85 -36.85 -5.55 -36.65 -5.85 -36.65 -6.05 -36.25 -8.6 -36.05 -8.7 -36.1 Q-9.3 -36.55 -8.85 -37.05" fill="#996600" fill-rule="evenodd" stroke="none"/>
    <path d="M11.0 -27.8 L9.35 -24.3 8.7 -24.55 8.0 -24.65 Q6.45 -24.5 5.1 -25.25 L4.75 -25.5 5.2 -26.75 Q6.05 -27.3 7.1 -27.6 L8.7 -27.95 11.0 -27.8 M8.8 -22.75 L8.2 -20.8 8.05 -20.3 6.85 -16.05 Q5.75 -15.55 4.45 -15.55 2.0 -15.6 2.2 -18.0 2.25 -18.85 2.65 -19.55 L2.6 -19.45 Q2.35 -18.05 3.6 -17.55 L4.3 -17.6 Q5.65 -18.65 6.65 -20.2 7.35 -21.3 6.95 -22.0 L7.15 -22.2 6.8 -22.25 5.9 -22.75 6.8 -23.15 8.8 -22.75 M4.15 -4.4 L3.5 -1.95 3.45 -1.95 3.4 -2.0 3.35 -2.0 Q2.6 -0.55 0.9 -1.0 L-1.4 -1.2 -3.25 -1.3 -3.4 -1.35 -3.85 -1.55 -4.2 -1.7 -4.25 -1.75 Q-6.15 -2.75 -4.35 -4.2 L-4.05 -4.4 -3.45 -4.85 Q-1.75 -5.5 -0.2 -6.6 L0.3 -6.4 1.1 -6.0 1.05 -5.8 Q2.5 -4.75 3.9 -4.55 L4.15 -4.4 M-12.05 -29.4 L-11.55 -29.6 -10.85 -29.9 -11.25 -29.7 -11.55 -29.3 -11.2 -28.9 -11.8 -29.5 -12.05 -29.4 M-7.15 -29.6 L-7.1 -29.85 -6.95 -29.65 Q-5.5 -28.6 -5.1 -30.35 L-4.9 -31.25 Q-4.45 -32.65 -5.3 -33.2 L-4.7 -33.1 -4.05 -32.7 Q-3.15 -31.9 -3.25 -30.2 L-3.7 -30.4 -4.15 -30.4 -4.25 -30.4 -4.3 -30.1 -4.35 -29.85 Q-4.6 -28.2 -3.8 -26.6 L-4.35 -26.15 -3.9 -26.5 Q-3.75 -26.05 -3.9 -25.45 -4.2 -24.3 -5.3 -24.0 L-8.95 -23.75 -9.15 -24.4 -10.05 -26.7 Q-9.45 -26.75 -8.7 -27.15 -8.15 -27.45 -7.75 -28.05 -7.1 -28.95 -7.15 -29.6 M-10.45 -37.05 L-10.5 -37.35 Q-9.75 -37.35 -9.1 -38.1 L-8.9 -38.6 -8.95 -38.9 -9.3 -39.65 -8.6 -39.6 -7.85 -39.35 -7.95 -39.45 Q-6.85 -38.65 -5.3 -38.9 L-2.1 -38.7 -1.8 -39.15 -3.45 -39.55 -5.7 -39.8 -6.55 -39.9 Q-6.2 -40.2 -6.3 -40.8 L-6.4 -40.95 -6.7 -41.15 -6.4 -41.15 -4.25 -41.25 -2.55 -41.45 -2.5 -41.45 -1.9 -41.5 -1.35 -40.9 -0.8 -40.05 -0.55 -39.6 -0.35 -39.25 -0.4 -39.3 0.45 -37.7 -1.05 -36.35 -1.15 -36.3 -1.35 -36.25 -2.05 -36.35 -2.55 -36.8 -2.9 -36.5 -3.1 -36.45 -3.85 -36.5 -3.9 -36.5 -5.7 -36.85 -5.75 -36.9 -5.9 -36.9 -6.05 -36.95 -8.5 -37.15 -8.65 -37.15 -8.85 -37.05 Q-9.6 -36.9 -10.35 -37.05 L-10.45 -37.05 M-9.2 -40.35 L-9.3 -40.35 -10.75 -40.6 -11.0 -40.9 -10.8 -41.45 -10.75 -41.45 -10.7 -41.5 -10.65 -41.5 -10.7 -41.55 -10.65 -42.05 -9.85 -41.8 -8.95 -41.5 -9.1 -41.5 Q-9.45 -41.5 -9.6 -41.15 L-9.55 -40.8 -9.2 -40.35 M0.25 -40.3 L0.2 -40.35 0.2 -40.5 Q0.2 -40.85 0.55 -40.95 L0.75 -41.0 Q2.0 -40.6 2.75 -39.45 L2.95 -39.05 2.75 -38.45 2.45 -37.9 2.0 -37.4 Q1.35 -39.0 0.25 -40.3 M-2.7 -29.55 L-2.85 -29.8 Q-2.6 -30.5 -1.7 -30.8 L-1.05 -30.95 0.55 -30.2 0.6 -30.4 1.45 -32.9 Q1.55 -33.45 2.15 -33.4 L2.3 -33.45 Q2.9 -33.15 2.85 -32.35 L2.65 -30.2 2.4 -28.7 1.9 -27.25 Q1.55 -26.45 0.8 -26.55 L0.75 -26.5 Q-1.1 -25.95 -2.05 -26.75 L-1.85 -26.95 -2.6 -29.3 -2.65 -29.35 -2.7 -29.55 M-5.25 -22.55 Q-3.6 -22.45 -2.35 -21.65 L-5.3 -21.85 -4.8 -22.0 -5.25 -22.55 M-2.15 -21.55 L-0.8 -20.15 -0.85 -20.15 -0.75 -20.15 -0.3 -19.35 -0.2 -19.15 Q-0.05 -18.6 -0.4 -18.15 L-0.6 -17.85 -0.85 -17.6 -0.9 -17.3 Q-1.05 -16.65 -1.55 -16.3 L-2.6 -15.9 -2.5 -15.8 -2.75 -15.75 -2.85 -15.7 -2.95 -15.75 -4.5 -15.15 Q-4.35 -15.8 -4.65 -16.35 L-5.15 -17.0 Q-5.8 -17.75 -6.85 -17.85 L-7.2 -17.7 -8.1 -17.35 -8.3 -18.6 Q-7.7 -18.7 -6.85 -19.4 -5.85 -19.3 -5.05 -19.7 L-4.7 -20.45 Q-4.6 -20.9 -4.65 -21.3 L-1.8 -20.85 -2.15 -21.55 M0.95 -30.25 L0.65 -30.1 Q0.0 -29.8 -0.1 -29.1 -0.25 -28.3 -0.55 -27.6 L0.75 -28.65 1.15 -29.45 Q1.4 -29.8 0.95 -30.25 M1.35 -4.55 L1.05 -4.9 Q-1.6 -4.1 -3.65 -2.2 L-3.4 -2.05 Q-2.0 -1.45 -0.8 -2.5 L1.35 -4.55 M-6.05 -38.2 L-6.0 -38.2 -6.75 -38.35 -6.05 -38.2 M-6.95 -17.0 L-7.05 -17.05 -7.0 -17.1 -6.95 -17.0 M-7.85 -16.85 L-8.0 -16.75 -8.0 -16.8 -7.85 -16.85 M-5.35 -15.65 L-5.25 -15.5 -5.25 -15.4 -5.35 -15.65 M-7.15 -16.0 L-6.9 -15.85 Q-6.15 -15.45 -6.0 -14.6 L-8.1 -13.8 -7.65 -14.0 -7.9 -15.85 -7.15 -16.0" fill="#99cc99" fill-rule="evenodd" stroke="none"/>
    <path d="M-29.1 0.4 L-29.05 0.1 Q-28.7 -1.35 -28.9 -2.85 -29.1 -4.3 -29.7 -5.7 L-29.8 -6.1 -29.5 -6.05 -29.4 -6.15 -28.7 -5.95 -28.0 -5.85 -27.2 -5.8 -26.9 -5.6 -26.4 -5.25 -25.8 -4.55 -25.5 -3.8 -26.2 -4.4 Q-24.2 -3.05 -25.75 -1.1 L-25.85 -0.95 Q-26.3 -0.5 -26.8 -0.2 L-27.35 0.05 -27.3 -0.4 -27.35 0.0 -27.4 0.0 Q-28.2 0.55 -29.1 0.4 M7.9 -28.4 L8.0 -28.15 Q8.55 -29.5 9.5 -29.05 L11.35 -28.45 11.0 -27.8 8.7 -27.95 7.1 -27.6 Q6.05 -27.3 5.2 -26.75 5.4 -27.7 5.05 -28.45 4.2 -27.65 4.0 -26.55 3.8 -25.45 3.1 -24.55 4.05 -24.7 4.7 -25.4 L4.75 -25.5 5.1 -25.25 Q6.45 -24.5 8.0 -24.65 L8.7 -24.55 9.35 -24.3 8.8 -22.75 6.8 -23.15 5.9 -22.75 5.65 -22.65 Q4.5 -22.1 3.9 -21.0 L2.65 -19.55 Q2.25 -18.85 2.2 -18.0 2.0 -15.6 4.45 -15.55 5.75 -15.55 6.85 -16.05 L5.95 -12.6 Q5.65 -9.75 4.95 -7.05 L3.95 -7.35 3.6 -7.5 Q2.95 -7.9 2.15 -7.85 L1.7 -8.2 1.35 -8.45 1.45 -8.7 Q0.85 -9.2 0.95 -10.05 L1.05 -11.1 Q1.1 -13.3 0.75 -15.45 L0.3 -17.65 0.3 -17.75 0.3 -18.3 0.15 -18.65 0.15 -18.7 0.05 -18.8 -0.1 -19.15 -0.15 -19.15 -0.2 -19.15 -0.3 -19.35 -0.75 -20.15 -0.85 -20.15 -0.8 -20.15 -2.15 -21.55 -2.2 -21.6 -2.35 -21.65 Q-3.6 -22.45 -5.25 -22.55 L-6.5 -22.55 -8.7 -22.05 -8.6 -22.4 -8.8 -23.4 -8.95 -23.75 -5.3 -24.0 Q-4.2 -24.3 -3.9 -25.45 -3.75 -26.05 -3.9 -26.5 L-4.35 -26.15 -3.8 -26.6 -3.35 -25.8 Q-2.65 -26.1 -2.05 -26.75 -1.1 -25.95 0.75 -26.5 L0.8 -26.55 Q1.55 -26.45 1.9 -27.25 L2.4 -28.7 2.65 -30.2 2.85 -32.35 Q2.9 -33.15 2.3 -33.45 L2.15 -33.4 Q1.55 -33.45 1.45 -32.9 L0.6 -30.4 0.55 -30.2 -1.05 -30.95 -1.7 -30.8 Q-2.6 -30.5 -2.85 -29.8 L-2.7 -29.55 -3.25 -30.2 Q-3.15 -31.9 -4.05 -32.7 L-1.15 -32.45 Q0.45 -33.4 1.15 -34.95 L3.05 -36.05 3.8 -36.95 4.0 -37.3 4.45 -36.5 4.75 -35.2 Q4.85 -30.8 2.95 -27.1 L3.9 -27.95 Q5.05 -30.6 5.25 -33.25 L5.25 -33.15 Q5.65 -32.3 6.5 -32.2 L6.8 -29.95 7.05 -28.8 Q7.2 -28.2 7.85 -28.4 L7.9 -28.4 M4.05 -4.55 L4.15 -4.55 4.15 -4.4 3.9 -4.55 4.05 -4.55 M3.5 -1.95 L3.3 -1.25 3.5 -1.9 3.45 -1.95 3.5 -1.95 M2.5 1.2 L1.85 3.25 1.65 3.85 0.4 4.2 0.1 4.25 -0.05 4.25 -1.5 4.35 -2.4 4.3 -2.55 4.3 -2.65 4.3 -2.75 4.25 -2.95 4.25 -3.1 4.2 -3.2 4.2 -3.35 4.15 -4.1 3.25 -4.25 3.05 -4.4 2.7 -4.75 1.75 -4.8 1.75 -4.8 1.6 Q-4.35 1.2 -3.75 0.9 L-1.0 0.0 Q1.0 -0.2 2.45 1.15 L2.5 1.2 M-7.3 -6.3 L-7.7 -7.75 -8.65 -10.9 -8.4 -10.05 -7.6 -7.6 -7.35 -7.0 -7.5 -6.95 -7.3 -6.3 M-9.2 -13.4 L-9.65 -16.3 -9.7 -16.65 -9.75 -17.1 -9.9 -18.7 -10.1 -20.8 -9.6 -21.45 -8.8 -22.0 -8.75 -21.75 -8.3 -18.6 -8.1 -17.35 -9.45 -17.1 -9.45 -17.0 -9.45 -16.95 -9.45 -16.85 -9.4 -16.8 -8.45 -16.75 -8.0 -16.8 -8.0 -16.75 -7.85 -16.85 -7.75 -16.9 -7.35 -17.05 -7.3 -17.1 -7.05 -17.05 -6.95 -17.0 -6.6 -16.8 -6.55 -16.8 -5.35 -15.65 -5.25 -15.4 Q-4.85 -14.65 -5.3 -13.95 L-5.35 -13.95 -5.3 -13.4 -5.0 -12.9 Q-4.75 -12.5 -4.3 -12.45 L-4.2 -12.35 -3.15 -12.15 -2.9 -12.05 -2.6 -12.0 -2.55 -11.95 -2.4 -12.0 -2.4 -12.05 -2.4 -12.15 -2.35 -12.2 Q-1.9 -12.0 -1.8 -12.55 L-1.85 -12.6 -2.0 -12.7 -2.1 -12.65 -2.15 -12.65 -2.2 -12.6 -2.4 -12.35 -2.4 -12.25 -2.45 -12.35 Q-2.95 -12.9 -3.75 -12.8 L-4.35 -13.15 -4.85 -13.65 -4.65 -14.45 -4.65 -14.85 -4.5 -15.15 -2.95 -15.75 -2.85 -15.7 -2.75 -15.75 -2.5 -15.8 -2.6 -15.9 -1.55 -16.3 Q-1.05 -16.65 -0.9 -17.3 L-0.85 -17.6 -0.6 -17.85 -0.7 -17.7 -0.75 -17.45 -0.8 -13.05 Q-0.85 -11.15 -1.35 -9.35 L-1.6 -9.05 Q-2.4 -8.3 -3.5 -7.95 L-4.45 -7.7 -5.8 -7.35 -5.1 -7.55 -5.85 -8.7 -7.6 -12.8 -8.25 -13.75 -9.2 -13.4 M-10.8 -24.25 L-11.1 -25.25 -11.15 -25.4 -11.2 -25.55 -11.25 -25.7 -12.75 -29.15 -12.8 -29.2 -12.75 -29.2 -12.05 -29.4 -11.8 -29.5 -11.2 -28.9 -10.8 -28.3 -10.8 -28.25 -10.75 -28.15 -10.25 -27.1 -10.05 -26.7 -9.15 -24.4 -8.95 -23.75 -10.6 -24.15 -10.8 -24.25 M-4.4 -34.2 L-5.4 -34.05 -9.4 -33.95 Q-10.65 -35.05 -10.45 -36.65 L-10.45 -37.05 -10.35 -37.05 Q-9.6 -36.9 -8.85 -37.05 -9.3 -36.55 -8.7 -36.1 L-8.6 -36.05 -6.05 -36.25 -5.85 -36.65 -5.55 -36.65 -5.85 -36.85 -5.9 -36.9 -5.75 -36.9 -5.7 -36.85 -3.9 -36.5 -3.85 -36.5 -3.1 -36.45 -3.35 -36.1 -3.6 -35.7 -4.4 -34.2 M-10.9 -38.05 L-11.4 -38.45 -11.15 -38.5 -11.25 -38.35 -10.9 -38.05 M-8.6 -39.6 L-8.1 -39.55 -7.95 -39.45 -7.85 -39.35 -8.6 -39.6 M-6.55 -39.9 L-6.75 -39.95 -8.25 -40.45 -7.95 -40.3 -8.5 -40.35 -9.2 -40.35 -9.55 -40.8 -9.6 -41.15 Q-9.45 -41.5 -9.1 -41.5 L-8.95 -41.5 -8.75 -41.45 -8.7 -41.45 -7.95 -41.3 -8.3 -41.35 -7.8 -41.3 -7.4 -41.2 -7.5 -41.2 -7.1 -41.2 -6.7 -41.15 -6.4 -40.95 -6.3 -40.8 Q-6.2 -40.2 -6.55 -39.9 M-1.9 -41.5 L-1.05 -41.65 -0.65 -41.25 0.25 -40.3 Q1.35 -39.0 2.0 -37.4 L2.45 -37.9 0.9 -36.65 0.75 -36.55 0.7 -36.5 0.6 -36.55 -1.05 -36.35 0.45 -37.7 -0.4 -39.3 -0.35 -39.25 -0.55 -39.6 -0.8 -40.05 -1.35 -40.9 -1.9 -41.5 M1.7 -22.5 L1.95 -23.25 Q2.0 -23.9 1.35 -23.9 L-0.4 -23.5 -0.5 -23.6 -0.8 -23.75 Q-1.25 -23.95 -1.4 -23.55 L-1.4 -23.4 -1.0 -22.9 -0.4 -22.35 Q0.3 -21.85 1.15 -22.1 L1.45 -22.2 1.7 -22.5 M-0.15 -6.65 L-0.15 -6.6 0.3 -6.4 -0.2 -6.6 -0.15 -6.65 M-3.25 -1.3 L-3.4 -1.15 -3.4 -1.35 -3.25 -1.3 M-4.05 -4.4 L-4.1 -4.6 -4.1 -4.65 -3.45 -4.85 -4.05 -4.4 M-1.9 -6.1 L-1.9 -6.15 -1.8 -6.15 -1.9 -6.1 M-6.05 -38.2 L-6.75 -38.35 -6.0 -38.2 -6.05 -38.2 M-9.65 -30.35 L-9.15 -30.1 -9.65 -30.35 M-7.15 -16.0 L-7.9 -15.85 -7.65 -14.0 -8.1 -13.8 -6.0 -14.6 Q-6.15 -15.45 -6.9 -15.85 L-7.15 -16.0" fill="#999933" fill-rule="evenodd" stroke="none"/>
    <path d="M19.95 67.55 L17.6 68.5 8.35 72.6 Q5.9 73.65 3.75 75.15 L5.85 72.6 14.2 65.65 Q11.5 66.4 9.0 68.45 5.35 70.8 2.6 74.2 L1.85 73.8 1.6 74.8 Q1.3 75.5 0.65 76.0 L-4.7 74.65 -4.65 74.85 Q-8.9 72.35 -13.6 70.85 L-23.05 67.7 -22.95 66.85 Q-22.95 66.2 -23.25 65.6 -23.85 64.55 -23.95 63.4 L-24.25 62.4 -24.2 62.35 -22.4 61.5 Q-20.0 60.3 -18.05 58.45 L-16.15 56.45 Q-15.15 55.3 -15.25 54.0 L-14.85 52.15 -14.55 52.5 -14.35 52.4 Q-13.8 51.7 -13.7 50.9 -13.45 48.7 -13.7 46.55 -14.0 44.35 -13.5 42.25 L-13.05 42.1 -12.3 41.95 -11.65 41.35 Q-11.25 41.1 -11.25 40.7 L-11.0 40.8 Q-11.5 43.9 -11.0 46.85 -10.55 49.7 -10.45 52.7 -8.55 54.1 -7.55 56.1 -6.6 58.0 -4.85 59.6 L-5.0 59.8 -5.05 60.05 Q-6.6 59.35 -8.2 60.25 L-4.95 60.35 -3.15 61.65 Q-1.65 62.25 -0.05 62.25 3.2 62.3 5.75 59.9 L9.2 56.5 Q11.1 54.45 11.45 51.8 11.8 48.7 10.95 45.7 L10.85 45.1 Q11.05 43.35 10.1 42.4 L10.15 41.6 Q11.6 40.9 13.35 40.9 13.6 43.55 13.15 46.3 12.6 48.95 14.0 51.35 14.25 53.15 13.95 55.3 L14.4 55.7 Q14.4 56.65 15.5 57.3 17.95 58.85 20.85 59.4 L22.4 59.45 22.4 59.75 21.65 59.65 21.5 59.85 Q21.0 60.0 20.95 60.6 L20.8 62.1 Q20.6 64.05 19.85 65.7 L19.75 66.2 19.95 67.55 M-1.7 76.95 L-1.9 76.8 -1.45 76.85 -1.7 76.95 M15.35 -29.85 L15.15 -29.7 15.2 -29.9 15.35 -29.85 M14.95 -29.35 L14.95 -29.0 15.05 -28.6 14.65 -28.75 14.95 -29.35 M16.7 -27.45 L17.0 -27.1 17.35 -26.65 17.35 -26.25 17.8 -26.05 18.25 -25.75 18.9 -25.5 19.6 -25.2 19.75 -25.15 Q20.9 -25.2 21.8 -24.55 22.65 -23.95 23.65 -23.85 23.45 -21.95 22.65 -20.25 L21.3 -16.8 Q18.3 -7.45 18.45 2.45 19.2 6.75 22.25 10.15 21.25 14.45 18.65 18.0 19.3 19.95 20.35 21.75 20.35 22.65 19.7 22.5 L18.35 22.6 Q16.95 23.7 14.8 23.85 12.65 24.05 13.45 26.35 14.05 30.4 13.6 34.6 14.8 36.25 16.85 36.0 L20.65 35.7 21.35 38.2 21.2 38.4 20.75 37.85 Q17.1 39.65 12.75 39.9 L4.35 39.3 Q5.1 37.25 4.55 35.15 8.35 34.3 9.2 30.55 9.6 28.7 8.85 27.3 L7.55 24.4 Q6.6 23.15 5.5 23.25 L4.3 23.3 4.75 23.3 4.7 23.15 Q4.45 22.4 4.5 21.6 L4.45 18.45 4.25 16.6 Q4.0 14.9 2.55 14.1 L2.3 14.15 2.25 14.2 2.05 14.5 2.1 14.75 2.35 15.15 1.45 14.0 -4.55 14.65 Q-5.3 16.6 -5.3 18.45 L-5.25 23.35 -7.15 23.45 Q-8.1 23.4 -8.9 24.15 -11.85 27.8 -10.85 32.6 L-10.35 33.5 Q-10.1 34.0 -9.45 33.65 -7.8 35.0 -5.6 35.4 -6.15 36.85 -5.95 38.65 L-10.5 39.25 -17.85 38.75 -24.9 38.2 -24.45 35.85 -18.1 36.0 Q-14.85 36.35 -12.85 33.8 -11.65 28.35 -12.4 23.05 -12.65 22.6 -12.95 22.7 -13.3 22.8 -13.6 22.4 L-24.75 21.55 -24.85 21.2 -24.3 20.65 -23.6 20.2 -23.0 18.7 Q-22.5 16.9 -23.4 15.25 -23.9 14.25 -24.85 13.85 L-24.85 13.7 -25.05 10.85 -24.6 10.25 -24.25 9.65 Q-23.3 8.4 -22.7 6.95 -21.6 4.35 -21.3 1.5 L-20.6 -2.1 Q-20.2 -3.8 -20.35 -5.45 -20.2 -6.6 -20.45 -7.6 L-21.7 -13.0 -21.8 -13.45 Q-21.95 -14.3 -22.4 -14.75 L-23.5 -19.05 -25.2 -23.95 -25.35 -24.4 Q-25.6 -25.25 -26.15 -25.65 L-25.8 -26.2 Q-25.3 -27.0 -24.4 -27.1 L-22.6 -27.55 Q-22.0 -27.7 -21.5 -28.1 L-20.45 -28.65 Q-18.85 -29.4 -17.05 -29.75 L-16.75 -29.75 -15.6 -29.8 -15.7 -30.0 Q-14.0 -27.85 -13.2 -25.25 L-11.45 -19.9 Q-10.0 -6.6 -5.45 5.65 L-5.5 9.05 Q-5.6 9.9 -5.35 10.65 L-5.4 10.85 Q-5.4 11.45 -4.9 11.75 L-4.85 11.8 -4.6 12.15 -3.95 12.25 -1.4 12.65 0.5 12.55 0.9 12.6 Q2.7 12.8 3.4 11.2 L3.8 10.9 4.55 9.4 Q4.85 8.7 4.65 8.2 5.45 6.05 5.6 3.7 L6.0 0.05 6.3 -1.95 Q6.75 -5.45 7.65 -8.9 L7.95 -10.45 8.05 -11.4 Q8.0 -13.25 8.55 -15.0 L9.95 -18.35 11.15 -20.9 Q12.2 -23.7 13.55 -26.5 L13.6 -26.65 14.35 -26.7 14.4 -27.15 Q14.65 -27.75 15.25 -27.7 L16.7 -27.45 M-26.65 -24.55 L-27.85 -25.7 -27.3 -26.8 Q-27.85 -25.95 -27.3 -25.2 L-26.65 -24.55 M12.35 -28.05 L12.65 -28.6 12.85 -28.6 12.75 -28.6 12.45 -28.25 12.35 -28.05 M13.7 -24.4 Q12.3 -22.15 11.6 -19.6 15.0 -17.4 19.3 -16.8 21.15 -19.4 20.3 -22.45 16.9 -23.25 13.7 -24.4 M18.0 -14.15 L10.8 -15.55 Q9.85 -14.75 9.5 -13.7 L9.1 -11.9 Q8.8 -10.95 9.6 -10.35 11.4 -9.7 13.4 -9.2 15.4 -8.75 17.25 -9.6 18.5 -11.65 18.0 -14.15 M24.85 -22.4 L25.7 -22.35 28.15 -22.4 28.7 -22.3 30.2 -21.85 31.95 -21.4 32.6 -21.05 35.1 -19.35 35.6 -18.6 36.4 -18.1 Q37.65 -14.45 39.45 -10.85 38.05 -10.4 36.8 -9.4 33.25 -7.1 29.15 -6.8 26.15 -6.6 23.05 -6.75 L22.8 -8.55 22.7 -9.65 Q22.4 -11.8 22.6 -13.95 L22.55 -15.7 24.2 -20.8 Q24.65 -21.5 24.75 -22.25 L24.85 -22.4 M34.35 -18.75 Q33.75 -20.05 32.35 -20.0 30.75 -19.4 30.8 -17.35 31.4 -16.0 33.15 -16.2 34.55 -17.15 34.35 -18.75 M28.5 -17.25 L27.45 -18.3 26.85 -18.75 26.8 -18.8 27.7 -21.6 27.25 -21.65 27.05 -21.35 26.85 -21.15 26.65 -20.85 26.5 -20.6 26.3 -20.3 25.1 -15.8 Q25.7 -17.15 26.6 -18.35 L27.7 -17.5 29.05 -16.5 28.5 -17.25 M27.65 -10.25 Q28.35 -9.35 29.7 -9.5 31.15 -10.5 31.1 -12.15 30.65 -13.45 29.05 -13.2 27.65 -12.05 27.65 -10.25 M23.65 -9.35 L23.65 -9.4 23.6 -9.4 23.55 -10.15 23.65 -8.45 23.65 -9.35 M5.5 12.7 Q6.25 15.15 8.7 15.75 12.95 16.3 15.15 13.0 16.6 9.25 13.9 6.1 11.55 4.45 8.7 5.25 5.0 7.95 5.5 12.7 M2.6 5.2 Q2.15 7.1 2.05 9.2 1.9 11.35 -0.8 11.15 L-3.2 11.4 -3.2 11.25 -2.4 11.05 Q-1.85 10.85 -1.8 10.3 -1.7 8.55 -2.05 6.75 L-1.45 6.35 Q-0.6 5.95 -0.2 5.4 L2.6 5.2 M1.45 17.6 L1.9 23.15 -2.55 23.7 -2.3 23.3 -1.85 22.45 Q-1.5 20.75 -1.9 18.95 L-1.0 18.5 -0.15 18.2 Q0.8 18.05 1.45 17.6 M6.95 47.4 L6.8 47.75 Q6.65 48.65 7.25 49.2 L7.4 49.45 7.6 49.65 Q3.65 49.15 -0.15 49.75 L-7.45 50.6 -7.4 50.2 -7.55 45.75 -7.65 45.2 -7.75 45.0 Q0.15 45.95 7.95 47.6 L6.95 47.4 M3.75 42.5 L3.75 42.9 Q3.75 44.1 5.05 44.15 L5.9 44.7 Q6.75 45.1 7.65 45.2 L8.8 45.3 8.95 47.05 Q5.8 46.9 2.8 46.0 -0.2 45.05 -3.45 44.6 L-5.55 44.45 -5.25 44.0 -4.95 43.2 -4.85 42.75 -4.75 42.35 -4.7 41.9 -0.55 42.1 2.85 42.3 3.75 42.5 M3.5 38.35 L3.0 38.3 2.75 38.3 1.95 38.35 3.5 38.25 3.5 38.35 M14.55 44.45 L18.85 44.3 18.9 47.8 14.25 48.05 14.55 44.45 M17.85 49.4 Q19.55 49.2 19.85 51.05 L20.25 56.35 Q17.8 55.15 14.95 54.75 14.6 52.2 14.75 49.35 L17.85 49.4 M9.2 49.65 L9.3 49.4 9.35 49.9 9.1 49.85 9.2 49.65 M6.9 55.05 L5.9 56.15 Q5.9 55.15 4.75 55.2 L4.3 55.6 4.3 55.65 -5.85 56.4 Q-6.7 54.95 -7.9 53.85 -9.1 52.75 -9.6 51.35 L-0.05 50.5 Q4.6 49.45 9.15 50.7 8.85 53.1 6.9 55.05 M2.85 58.75 L3.15 59.15 3.35 59.15 -2.35 58.85 -2.35 58.3 -2.5 56.85 -2.5 56.75 0.25 56.55 3.85 56.15 Q3.65 56.25 3.6 56.5 L2.9 58.1 Q2.7 58.45 2.85 58.75 M-44.4 -13.9 Q-44.1 -13.75 -43.7 -13.9 L-42.85 -15.55 -42.25 -16.7 -41.55 -16.1 Q-40.85 -15.5 -40.95 -14.7 L-41.5 -13.9 -41.55 -13.8 Q-41.75 -13.55 -41.4 -13.3 L-41.25 -13.2 -41.15 -13.15 Q-40.5 -13.7 -40.3 -14.55 L-40.1 -14.45 -39.25 -14.5 -39.65 -15.1 -39.8 -15.3 Q-38.75 -18.0 -38.05 -20.55 -38.9 -19.8 -39.55 -18.5 L-40.85 -19.55 -41.3 -20.15 -41.0 -19.7 -40.9 -19.8 -38.65 -21.7 -37.85 -22.25 -36.25 -23.05 -34.2 -23.6 -33.5 -23.8 -32.55 -24.0 -32.15 -24.05 -31.4 -22.9 -31.15 -22.5 -31.15 -22.45 -30.45 -21.25 Q-29.3 -19.0 -28.6 -16.6 L-28.25 -14.95 -28.2 -14.95 -28.1 -14.25 -28.0 -13.8 -28.0 -13.7 -27.8 -8.25 -27.65 -8.45 Q-27.45 -11.8 -27.65 -15.25 L-27.75 -16.9 -27.75 -17.1 -27.8 -17.65 -27.9 -18.1 -28.45 -20.2 Q-29.25 -22.45 -31.0 -24.3 L-30.75 -24.05 -29.2 -23.8 -28.45 -23.55 -28.1 -23.45 Q-26.4 -19.35 -25.25 -15.05 L-25.5 -13.75 Q-25.75 -11.5 -26.7 -9.5 L-27.0 -8.05 -27.85 -7.8 Q-34.7 -8.8 -40.45 -11.85 -42.95 -12.15 -44.4 -13.9 M-41.45 -19.15 Q-40.55 -18.55 -39.7 -17.8 L-40.5 -16.1 -41.8 -17.3 -41.25 -18.35 -41.0 -18.8 -41.45 -19.15 M-15.85 -25.15 Q-16.5 -26.6 -17.95 -26.85 -21.5 -26.2 -24.0 -23.95 -23.3 -21.55 -21.8 -19.45 -18.65 -19.75 -15.7 -21.1 -14.8 -21.45 -14.9 -22.35 -15.2 -23.75 -15.85 -25.15 M-33.25 -20.7 Q-34.1 -19.9 -33.7 -18.8 L-32.55 -18.75 Q-32.1 -19.35 -32.35 -20.2 -32.7 -20.75 -33.25 -20.7 M-33.2 -13.9 Q-33.7 -13.4 -33.1 -12.95 -32.75 -12.8 -32.45 -13.1 -32.35 -13.9 -33.2 -13.9 M-37.35 -14.9 Q-37.1 -14.2 -36.35 -14.65 -36.3 -15.35 -36.85 -15.7 L-37.35 -14.9 M-12.2 -13.05 L-13.05 -16.55 -13.95 -17.65 Q-17.7 -17.7 -20.8 -15.9 -20.75 -13.3 -19.9 -10.65 -15.7 -10.65 -12.2 -13.05 M-14.75 4.6 Q-13.15 6.8 -11.0 7.15 L-11.0 6.7 -11.3 6.2 -12.95 4.8 Q-13.8 4.05 -14.75 4.6 M-9.05 8.45 L-8.35 7.55 Q-8.25 1.9 -11.4 -2.85 -11.25 0.1 -10.25 2.8 -9.25 5.45 -9.05 8.45 M-7.95 18.85 L-6.8 14.9 -6.8 14.6 -6.8 14.45 -6.85 14.1 -6.85 13.7 -7.25 11.7 Q-7.95 13.7 -7.9 15.75 -7.85 17.35 -8.3 18.95 L-8.55 19.8 -7.95 18.85 M-24.05 36.1 Q-24.6 36.15 -24.55 36.7 -24.55 38.1 -23.35 37.45 L-23.3 37.35 Q-23.15 36.45 -24.05 36.1 M-21.65 43.2 L-21.75 43.75 -21.8 44.65 -21.75 45.3 -22.0 43.05 -21.65 43.2 M-16.15 48.5 L-16.25 53.5 Q-18.55 57.2 -22.7 58.55 -23.6 56.3 -23.6 53.6 -23.65 50.95 -21.8 48.95 -20.55 48.35 -19.05 48.55 L-16.25 48.4 Q-16.35 48.0 -16.7 47.7 L-20.45 47.45 -20.35 47.3 -20.2 47.15 Q-19.35 45.4 -19.2 43.45 L-19.2 43.3 -16.0 43.3 -16.15 48.4 -16.25 48.4 -16.15 48.5 M-3.8 38.55 L-4.1 38.55 -4.6 38.65 -4.55 38.4 -4.15 38.5 -3.45 38.55 -3.8 38.55 M-9.8 44.8 L-9.85 45.0 -9.9 44.8 -9.8 44.8 M-5.15 57.4 L-5.15 57.5 -5.25 57.35 -4.55 57.15 -5.15 57.3 -5.15 57.4 M-15.65 60.4 Q-15.0 59.15 -13.85 58.8 -16.3 59.1 -18.35 60.5 L-20.65 62.05 Q-21.95 62.65 -22.45 63.95 -20.55 63.9 -18.85 62.8 L-15.65 60.4 M-14.1 69.5 L-13.55 70.35 Q-9.9 72.2 -6.6 73.45 -10.2 71.2 -14.1 69.5" fill="#003333" fill-rule="evenodd" stroke="none"/>
    <path d="M3.75 75.15 L3.1 75.6 2.25 75.35 1.6 74.8 1.85 73.8 2.6 74.2 Q5.35 70.8 9.0 68.45 11.5 66.4 14.2 65.65 L5.85 72.6 3.75 75.15 M-2.05 76.65 L-4.25 75.1 -4.45 75.0 -4.4 74.75 0.0 75.9 Q-0.25 76.45 -0.95 76.45 L-2.05 76.65 M-23.05 67.7 L-23.45 67.55 -23.95 67.4 -24.0 66.6 Q-23.9 65.2 -24.7 64.15 -25.4 63.3 -25.6 62.25 L-25.65 62.25 -25.7 62.0 -25.7 61.9 Q-22.45 59.5 -18.35 57.45 -16.0 56.2 -15.25 54.0 -15.15 55.3 -16.15 56.45 L-18.05 58.45 Q-20.0 60.3 -22.4 61.5 L-24.2 62.35 -24.25 62.4 -23.95 63.4 Q-23.85 64.55 -23.25 65.6 -22.95 66.2 -22.95 66.85 L-23.05 67.7 M15.05 -28.6 L16.7 -27.45 15.25 -27.7 Q14.65 -27.75 14.4 -27.15 L14.35 -26.7 13.6 -26.65 13.55 -26.5 Q12.2 -23.7 11.15 -20.9 L9.95 -18.35 8.55 -15.0 Q8.0 -13.25 8.05 -11.4 L7.95 -10.45 7.65 -8.9 Q6.75 -5.45 6.3 -1.95 L6.0 0.05 5.6 3.7 Q5.45 6.05 4.65 8.2 4.85 8.7 4.55 9.4 L3.8 10.9 3.4 11.2 Q2.7 12.8 0.9 12.6 L0.5 12.55 -1.4 12.65 -3.95 12.25 Q0.75 12.95 3.45 9.45 L3.55 9.05 3.7 8.5 4.15 4.35 Q4.15 1.65 4.45 -0.9 6.0 -5.05 7.0 -9.45 L7.5 -11.85 Q8.55 -17.55 10.8 -22.7 11.2 -25.55 12.35 -28.05 L12.45 -28.25 12.75 -28.6 12.85 -28.6 Q13.65 -28.6 14.3 -28.2 L14.3 -28.25 14.65 -28.75 15.05 -28.6 M4.3 23.3 L3.25 23.1 3.15 23.1 Q3.9 20.7 3.45 18.25 L3.4 17.95 3.4 17.8 3.35 17.55 3.15 16.9 2.35 15.15 2.1 14.75 2.05 14.5 2.25 14.2 2.3 14.15 2.55 14.1 Q4.0 14.9 4.25 16.6 L4.45 18.45 4.5 21.6 Q4.45 22.4 4.7 23.15 L4.75 23.3 4.3 23.3 M-24.85 21.2 L-24.95 20.65 Q-25.0 19.75 -24.6 18.95 L-24.4 18.45 -24.35 18.3 -24.2 17.65 -24.15 17.25 -24.15 17.05 -24.15 17.0 -24.2 16.4 -24.25 16.35 -27.75 11.85 -23.25 7.55 -23.85 7.4 Q-22.8 4.8 -22.25 2.2 -20.35 -6.55 -23.65 -15.45 -24.75 -20.0 -26.45 -24.4 L-26.65 -24.55 -27.3 -25.2 Q-27.85 -25.95 -27.3 -26.8 L-27.2 -26.9 Q-26.2 -28.2 -24.4 -27.65 L-22.6 -27.55 -24.4 -27.1 Q-25.3 -27.0 -25.8 -26.2 L-26.15 -25.65 Q-25.6 -25.25 -25.35 -24.4 L-25.2 -23.95 -23.5 -19.05 -22.4 -14.75 Q-21.95 -14.3 -21.8 -13.45 L-21.7 -13.0 -20.45 -7.6 Q-20.2 -6.6 -20.35 -5.45 -20.2 -3.8 -20.6 -2.1 L-21.3 1.5 Q-21.6 4.35 -22.7 6.95 -23.3 8.4 -24.25 9.65 L-24.6 10.25 -25.05 10.85 -24.85 13.7 -24.85 13.85 Q-23.9 14.25 -23.4 15.25 -22.5 16.9 -23.0 18.7 L-23.6 20.2 -24.3 20.65 -24.85 21.2 M-21.5 -28.1 L-20.55 -29.2 Q-18.5 -30.85 -15.95 -30.25 L-15.7 -30.0 -15.6 -29.8 -16.75 -29.75 -17.05 -29.75 Q-18.85 -29.4 -20.45 -28.65 L-21.5 -28.1 M-5.35 10.65 L-5.25 10.95 -4.85 11.8 -4.9 11.75 Q-5.4 11.45 -5.4 10.85 L-5.35 10.65 M13.1 8.6 Q13.8 10.6 12.95 12.55 11.35 14.4 9.25 13.9 7.75 13.4 7.3 12.0 6.7 9.55 8.25 7.8 9.5 6.75 10.95 6.9 12.4 7.0 13.1 8.6 M12.35 11.95 Q12.7 10.6 12.5 9.25 11.85 7.6 9.95 7.9 8.85 8.15 8.2 9.2 7.6 10.85 8.4 12.25 9.35 13.15 10.9 13.15 11.8 12.85 12.35 11.95 M10.1 42.4 Q11.05 43.35 10.85 45.1 L10.95 45.7 Q11.8 48.7 11.45 51.8 11.1 54.45 9.2 56.5 L5.75 59.9 Q3.2 62.3 -0.05 62.25 -1.65 62.25 -3.15 61.65 L-4.95 60.35 -4.55 60.3 -5.05 60.05 -5.0 59.8 -4.85 59.6 -3.9 60.3 0.9 60.5 Q3.45 60.75 4.95 59.25 L8.35 55.55 Q9.95 53.65 10.2 51.05 10.95 50.6 10.45 49.95 10.75 48.05 10.35 45.9 L10.3 45.4 Q10.05 43.85 10.1 42.4 M-11.25 40.7 Q-11.25 41.1 -11.65 41.35 L-12.3 41.95 -13.05 42.1 -13.5 42.25 Q-14.0 44.35 -13.7 46.55 -13.45 48.7 -13.7 50.9 -13.8 51.7 -14.35 52.4 L-14.55 52.5 -14.85 52.15 -14.85 52.1 -14.9 50.5 -14.9 50.35 -14.95 40.35 -12.95 40.5 -11.25 40.7 M22.4 59.45 L20.85 59.4 Q17.95 58.85 15.5 57.3 14.4 56.65 14.4 55.7 16.1 56.95 18.2 57.25 20.55 57.6 22.5 58.8 L22.45 58.95 22.4 59.45 M-9.05 8.45 Q-9.25 5.45 -10.25 2.8 -11.25 0.1 -11.4 -2.85 -8.25 1.9 -8.35 7.55 L-9.05 8.45 M-14.75 4.6 Q-13.8 4.05 -12.95 4.8 L-11.3 6.2 -11.0 6.7 -11.0 7.15 Q-13.15 6.8 -14.75 4.6 M-8.3 18.95 Q-7.85 17.35 -7.9 15.75 -7.95 13.7 -7.25 11.7 L-6.85 13.7 -6.85 14.1 -6.8 14.45 -6.8 14.6 -6.8 14.9 -7.95 18.85 -8.1 19.1 -8.3 18.95 M-24.05 36.1 Q-23.15 36.45 -23.3 37.35 L-23.35 37.45 Q-24.55 38.1 -24.55 36.7 -24.6 36.15 -24.05 36.1 M-14.1 69.5 Q-10.2 71.2 -6.6 73.45 -9.9 72.2 -13.55 70.35 L-14.1 69.5" fill="#606060" fill-rule="evenodd" stroke="none"/>
    <path d="M-10.85 -29.9 L-10.4 -30.1 -9.65 -30.35 -8.6 -30.2 -8.0 -29.9 Q-8.15 -28.9 -7.95 -28.0 L-7.8 -28.2 -7.45 -28.85 -7.15 -29.65 -7.15 -29.6 Q-7.1 -28.95 -7.75 -28.05 -8.15 -27.45 -8.7 -27.15 -9.45 -26.75 -10.05 -26.7 L-10.25 -27.1 -10.75 -28.15 -10.8 -28.25 -10.8 -28.3 -11.2 -28.9 -11.55 -29.3 -11.25 -29.7 -10.85 -29.9 M-7.1 -29.85 L-6.95 -31.15 -6.95 -31.25 -6.95 -31.45 -6.9 -31.9 Q-6.75 -33.3 -5.3 -33.2 -4.45 -32.65 -4.9 -31.25 L-5.1 -30.35 Q-5.5 -28.6 -6.95 -29.65 L-7.1 -29.85 M-10.5 -37.35 L-10.6 -37.65 -10.65 -37.7 -10.9 -38.05 -11.25 -38.35 -11.15 -38.5 -11.4 -38.45 Q-11.75 -38.7 -12.25 -38.8 L-12.35 -39.6 Q-11.45 -40.2 -10.35 -39.85 L-9.3 -39.65 -8.95 -38.9 -8.9 -38.6 -9.1 -38.1 Q-9.75 -37.35 -10.5 -37.35 M-8.7 -22.05 L-6.5 -22.55 -5.25 -22.55 -4.8 -22.0 -5.3 -21.85 -5.75 -21.65 -5.85 -21.6 -4.65 -21.3 Q-4.6 -20.9 -4.7 -20.45 L-5.05 -19.7 Q-5.85 -19.3 -6.85 -19.4 -7.7 -18.7 -8.3 -18.6 L-8.75 -21.75 -8.8 -22.0 -8.7 -22.05 M2.65 -19.55 L3.9 -21.0 Q4.5 -22.1 5.65 -22.65 L5.9 -22.75 6.8 -22.25 Q5.8 -22.3 5.0 -21.5 L4.95 -21.45 4.85 -21.4 4.8 -21.3 2.9 -19.2 Q5.2 -20.15 6.95 -22.0 7.35 -21.3 6.65 -20.2 5.65 -18.65 4.3 -17.6 L3.6 -17.55 Q2.35 -18.05 2.6 -19.45 L2.65 -19.55 M-9.65 -30.35 L-9.15 -30.1 -9.65 -30.35" fill="#99ffcc" fill-rule="evenodd" stroke="none"/>
    <path d="M-14.55 -49.05 L-14.55 -49.2 -14.55 -49.25 -14.55 -49.45 -14.55 -49.55 -14.55 -49.6 -14.55 -49.7 -14.3 -51.6 -13.95 -52.7 -13.45 -53.7 -13.4 -53.7 -13.2 -53.85 -12.45 -54.1 Q-11.15 -54.15 -10.65 -53.15 L-11.15 -53.4 Q-10.8 -53.3 -10.55 -53.0 L-10.3 -52.6 Q-10.1 -52.0 -10.35 -51.35 L-10.45 -51.05 Q-10.65 -49.65 -12.0 -48.85 -12.35 -48.65 -12.65 -48.6 L-13.7 -48.5 -14.5 -48.7 -14.55 -49.05 M-5.85 -49.8 Q-5.95 -49.0 -6.8 -48.6 -8.35 -47.9 -9.75 -48.8 L-10.0 -49.2 Q-10.25 -50.9 -8.7 -51.6 L-8.15 -51.7 Q-6.4 -51.65 -5.85 -50.1 L-5.85 -49.8" fill="#99ff00" fill-rule="evenodd" stroke="none"/>
    <path d="M-8.1 -17.35 L-7.2 -17.7 -6.85 -17.85 Q-5.8 -17.75 -5.15 -17.0 L-4.65 -16.35 Q-4.35 -15.8 -4.5 -15.15 L-4.65 -14.85 -4.65 -14.45 -4.85 -13.65 -4.35 -13.15 -3.75 -12.8 Q-2.95 -12.9 -2.45 -12.35 L-2.4 -12.25 -2.4 -12.35 -2.2 -12.6 -2.15 -12.65 -2.1 -12.65 -2.0 -12.7 -1.85 -12.6 -1.8 -12.55 Q-1.9 -12.0 -2.35 -12.2 L-2.4 -12.15 -2.4 -12.05 -2.4 -12.0 -2.55 -11.95 -2.6 -12.0 -2.9 -12.05 -3.15 -12.15 -4.2 -12.35 -4.3 -12.45 Q-4.75 -12.5 -5.0 -12.9 L-5.3 -13.4 -5.35 -13.95 -5.3 -13.95 Q-4.85 -14.65 -5.25 -15.4 L-5.25 -15.5 -5.35 -15.65 -6.55 -16.8 -6.6 -16.8 -6.95 -17.0 -7.0 -17.1 -7.05 -17.05 -7.3 -17.1 -7.35 -17.05 -7.75 -16.9 -7.85 -16.85 -8.0 -16.8 -8.45 -16.75 -9.4 -16.8 -9.45 -16.85 -9.45 -16.95 -9.45 -17.0 -9.45 -17.1 -8.1 -17.35" fill="#ff0000" fill-rule="evenodd" stroke="none"/>
    <path d="M12.35 11.95 Q11.8 12.85 10.9 13.15 9.35 13.15 8.4 12.25 7.6 10.85 8.2 9.2 8.85 8.15 9.95 7.9 11.85 7.6 12.5 9.25 12.7 10.6 12.35 11.95 M10.35 10.45 Q11.05 10.0 10.7 9.25 10.4 8.6 9.65 8.75 L9.15 9.1 8.85 9.55 Q8.65 10.05 9.05 10.4 L10.35 10.45" fill="#990000" fill-rule="evenodd" stroke="none"/>
    <path d="M10.35 10.45 L9.05 10.4 Q8.65 10.05 8.85 9.55 L9.15 9.1 9.65 8.75 Q10.4 8.6 10.7 9.25 11.05 10.0 10.35 10.45" fill="#cc0000" fill-rule="evenodd" stroke="none"/>
  </g>
</svg>
