<?xml version="1.0" encoding="UTF-8" standalone="no"?>
<svg xmlns:xlink="http://www.w3.org/1999/xlink" height="126.55px" width="61.15px" xmlns="http://www.w3.org/2000/svg">
  <g transform="matrix(1.0, 0.0, 0.0, 1.0, 29.6, 10.75)">
    <path d="M-15.7 46.35 L-16.4 47.25 Q-15.05 43.25 -14.45 39.0 L-16.25 39.3 Q-16.0 38.4 -15.3 37.8 -18.35 36.95 -20.9 35.2 -23.55 33.4 -26.6 32.85 -27.7 31.85 -29.05 31.05 L-29.6 30.6 -29.3 29.9 -28.5 28.15 -27.65 26.1 Q-26.3 25.05 -24.85 24.3 -24.55 21.35 -21.95 20.1 -20.9 19.25 -19.6 19.4 -18.35 19.55 -17.75 18.1 -16.35 15.7 -13.7 14.8 -13.55 12.65 -13.8 10.25 -14.0 7.8 -13.55 5.8 -12.1 6.6 -10.7 7.55 L-10.55 4.25 Q-10.3 2.45 -11.1 1.3 -11.45 0.3 -10.85 -0.6 -10.3 -1.55 -11.1 -2.35 -10.0 -2.25 -9.85 -3.2 -9.7 -4.2 -8.75 -4.45 -8.05 -6.45 -6.15 -7.45 -4.3 -8.45 -2.4 -9.1 -2.0 -10.45 -0.95 -10.4 L1.05 -10.75 Q2.65 -10.65 3.6 -9.6 4.5 -8.5 5.85 -7.75 7.6 -6.15 8.4 -4.15 9.55 -4.65 10.05 -3.3 10.55 -2.0 11.75 -2.8 L12.2 -2.8 Q12.1 -2.0 11.25 -1.45 12.4 -0.45 12.2 1.1 10.4 2.45 10.75 4.2 11.05 5.95 10.8 7.85 L11.1 8.3 Q12.2 7.1 13.7 7.55 13.85 11.15 13.35 14.5 14.55 14.9 15.95 15.6 17.3 16.35 17.55 17.95 18.5 19.05 20.15 19.5 21.7 19.95 21.65 21.85 24.35 23.3 25.4 26.1 L26.9 27.7 26.8 27.85 26.85 27.85 Q29.45 28.8 31.4 31.35 32.05 33.55 29.9 34.6 28.65 35.4 27.8 36.75 22.3 40.15 15.75 41.25 L15.4 42.2 15.3 42.3 Q14.35 41.75 14.55 40.8 L14.6 40.4 Q14.6 39.65 14.25 39.0 L12.2 33.4 Q11.0 30.65 8.75 28.35 8.15 26.05 7.05 23.95 L5.7 26.1 5.65 26.25 5.15 26.8 4.3 27.35 3.6 27.6 Q2.85 26.5 2.45 24.85 2.05 23.3 0.1 24.2 L-0.05 24.3 Q-1.3 24.65 -1.5 25.95 -1.75 27.25 -3.05 27.85 L-3.05 28.15 Q-4.8 26.9 -6.15 24.8 L-6.35 24.5 -6.5 24.3 Q-6.45 23.8 -6.8 23.55 L-7.8 24.9 Q-9.0 26.7 -9.65 28.7 L-9.75 28.95 -9.75 29.0 Q-10.75 31.6 -12.95 33.75 -12.8 35.5 -14.15 37.5 -13.05 38.6 -13.5 40.05 L-14.15 42.9 -15.1 45.25 -15.1 45.3 -15.7 46.35 M15.35 43.25 L15.75 44.1 Q16.0 46.0 15.0 47.35 16.8 53.05 13.8 57.9 11.9 59.8 9.35 60.55 6.8 61.25 6.0 64.2 L5.4 68.15 Q4.85 68.05 4.95 68.5 L4.95 69.05 Q4.25 68.2 3.15 68.15 3.0 69.5 3.2 71.1 3.4 72.6 2.95 73.85 2.95 76.0 3.45 78.05 5.45 79.1 5.9 81.0 6.35 82.9 7.35 84.5 8.7 87.9 7.5 91.0 6.25 94.05 5.55 97.15 4.8 97.95 4.65 99.0 6.9 102.3 5.4 106.2 3.8 108.15 3.5 110.7 L2.95 115.8 2.7 115.8 0.95 111.75 Q0.15 109.65 -1.65 108.0 L-1.35 105.25 Q-1.3 104.05 -0.55 102.8 0.15 101.5 -1.35 100.75 -2.45 103.0 -4.25 105.0 L-4.35 108.9 Q-5.15 107.3 -5.35 105.35 -5.55 103.35 -6.6 101.8 -5.15 99.4 -5.3 96.55 -6.2 94.15 -8.3 93.1 -8.2 90.6 -9.2 88.6 -9.6 86.7 -8.55 85.25 -7.55 83.8 -7.55 81.95 -6.05 79.9 -3.9 78.5 -4.55 77.05 -3.5 76.15 -4.15 75.75 -3.85 75.15 -3.5 74.6 -3.5 74.0 -3.3 71.65 -4.8 70.1 -6.95 70.4 -8.3 68.9 -7.95 66.65 -8.0 64.4 -9.5 63.9 -10.8 63.05 -9.9 59.65 -11.75 56.7 -13.75 54.5 -16.05 53.25 -16.0 50.45 -16.4 47.85 L-16.05 47.65 -15.95 47.55 Q-15.25 48.7 -15.15 49.9 -15.0 51.2 -15.5 52.65 -13.5 53.1 -12.15 54.6 -10.8 56.05 -9.6 57.65 -9.3 60.1 -10.25 62.3 -9.4 62.85 -8.4 62.8 -7.4 62.7 -7.05 63.8 L-7.0 64.45 Q-6.9 66.55 -7.55 68.6 -7.2 68.95 -7.15 68.6 L-6.8 68.3 Q-6.15 68.65 -5.55 68.3 L-4.35 68.15 -5.0 68.65 Q-5.4 68.7 -5.0 69.15 -3.1 68.15 -1.05 68.1 L2.25 67.6 2.5 67.55 2.95 67.4 Q3.15 66.75 3.7 66.5 4.45 66.4 4.8 66.9 L5.55 62.65 Q5.9 60.4 8.1 59.15 L11.25 57.35 8.3 59.9 8.25 59.9 8.25 59.95 8.4 60.05 Q10.2 58.55 12.6 57.45 14.95 56.25 14.45 53.4 15.1 51.35 14.45 49.2 13.85 48.1 14.55 46.95 L14.45 42.6 15.35 43.25 M9.85 -1.45 L9.5 -2.6 9.45 -2.65 9.2 -3.0 9.1 -2.95 7.75 -1.5 7.4 -1.0 5.55 0.1 5.45 0.15 5.25 0.25 5.15 0.3 3.65 0.05 3.5 0.0 Q2.5 -4.55 3.2 -9.15 L1.65 -9.35 1.1 -10.0 Q0.85 -10.0 0.75 -9.8 L0.6 -9.45 0.6 -9.3 0.05 -9.6 -1.35 -9.25 -1.55 -4.65 Q-1.7 -2.2 -3.0 -0.25 L-4.35 -0.65 Q-6.8 -1.55 -8.85 -3.45 L-9.3 -2.5 Q-9.75 -0.9 -10.55 0.6 L-6.35 4.0 -5.35 4.75 Q-2.55 6.65 -1.2 9.65 -0.45 12.45 -2.1 14.45 -3.95 14.65 -5.5 15.6 L-6.05 15.95 -9.8 18.2 -8.3 20.95 -8.1 20.8 -7.9 20.7 -5.3 19.45 Q-3.95 18.9 -2.5 18.7 1.6 17.95 5.45 18.7 L8.0 19.4 Q8.65 19.55 8.8 18.9 L8.8 18.75 9.2 17.6 8.95 17.35 8.75 17.2 8.1 16.65 7.65 16.3 6.95 15.75 6.7 15.6 Q4.85 14.25 2.75 13.3 L2.75 13.25 Q2.6 9.15 5.75 6.35 L9.2 3.05 11.25 0.75 Q10.95 -0.45 9.75 -1.0 L9.85 -1.45 M6.85 -5.25 L6.55 -5.6 6.35 -5.8 4.2 -7.3 4.1 -3.5 4.1 -3.4 4.05 -1.75 4.0 -0.5 Q6.15 -1.55 7.95 -3.55 L6.85 -5.25 M-3.75 13.85 L-2.15 13.05 -2.1 12.55 Q-1.95 10.85 -2.6 9.5 -3.15 8.25 -4.35 7.3 L-9.65 3.25 Q-9.9 4.8 -9.7 6.25 -9.5 7.65 -10.1 9.1 L-11.0 8.9 -12.4 7.9 -12.55 7.75 Q-12.95 12.4 -11.35 16.5 L-11.2 16.6 Q-10.0 17.8 -8.8 16.6 L-8.0 15.9 -7.3 15.4 -7.1 15.3 -6.85 15.15 -6.8 15.1 -6.6 15.05 -6.35 14.9 -6.2 14.85 -4.8 14.3 -3.75 13.85 M8.0 15.4 L9.7 16.8 10.05 16.55 Q11.55 15.4 12.25 13.45 12.5 10.85 11.95 8.65 L11.9 8.7 11.8 8.8 10.8 9.7 10.0 10.05 Q10.05 7.0 9.7 4.0 L5.4 8.05 Q4.55 8.85 4.2 9.8 3.85 10.55 3.9 11.5 L4.15 13.15 4.35 13.25 Q6.3 14.1 8.0 15.4 M26.25 36.5 L26.45 36.3 26.65 36.05 Q27.9 34.35 29.75 33.45 29.45 30.3 26.25 28.6 L26.2 28.7 Q26.15 27.8 25.1 27.75 24.95 27.2 24.4 26.8 23.45 26.05 23.85 25.0 22.95 23.65 21.6 23.0 L21.35 22.3 Q20.95 21.9 20.4 21.8 L20.55 21.25 Q19.8 20.35 18.65 19.75 L17.35 19.65 Q17.45 18.6 16.55 18.4 L15.5 16.55 Q14.8 15.4 13.5 15.2 L13.45 15.2 Q10.9 16.1 10.6 18.3 L10.35 19.9 9.75 22.05 9.6 22.55 10.35 22.5 9.8 22.55 Q9.4 22.85 9.4 23.4 9.4 23.9 9.65 24.2 L8.5 24.4 Q8.45 25.25 8.7 26.1 L9.7 26.45 Q9.55 26.9 9.8 27.4 L10.85 28.75 10.95 28.35 Q10.45 30.15 11.75 31.3 L13.2 33.1 13.65 34.0 14.25 34.05 14.05 34.65 Q14.0 35.7 14.9 36.1 L15.4 35.95 14.85 36.15 Q15.5 38.35 16.8 40.2 20.25 39.6 23.45 38.25 25.1 37.8 26.25 36.5 M7.9 22.0 L8.0 21.8 8.1 20.65 Q6.55 20.0 4.8 19.7 L4.2 19.6 1.9 19.4 -2.95 19.9 -4.35 20.35 -6.25 21.1 Q-7.3 21.45 -7.25 22.6 L-7.0 22.65 -6.5 22.9 -6.05 23.35 -5.75 23.85 Q-5.35 24.9 -4.55 25.5 L-4.55 25.05 Q-4.25 24.75 -3.9 24.85 L-3.55 25.1 Q-3.05 25.55 -2.85 26.25 L-1.65 24.0 0.75 23.5 3.15 23.65 3.15 23.75 3.15 23.8 3.1 24.5 Q3.2 25.0 3.6 25.5 L4.1 25.4 Q5.05 25.1 5.85 24.4 6.45 23.3 7.35 22.65 L7.65 22.35 7.9 22.05 7.9 22.0 M3.55 20.95 L3.65 21.0 Q4.0 21.35 3.65 21.7 L2.95 22.05 0.25 22.4 -0.9 22.4 -1.25 22.35 -1.45 22.2 -1.85 22.05 -1.0 22.05 -2.4 22.0 -2.45 21.95 -2.45 21.65 Q-2.4 21.45 -2.05 21.4 L-1.4 21.35 -1.2 21.35 -1.25 21.3 -1.25 21.25 0.8 21.05 1.25 20.9 1.45 20.95 2.2 20.85 2.75 20.95 2.9 20.95 2.95 20.95 3.05 20.95 3.15 20.95 3.55 20.95 M-2.85 21.75 L-2.9 21.75 -2.85 21.7 -2.85 21.75 M-3.6 21.85 L-3.85 21.9 -3.6 21.8 -3.6 21.85 M-5.35 33.8 L-5.4 33.85 -5.55 33.7 -5.9 33.25 -5.35 33.8 M-0.1 59.05 L-0.25 59.9 Q-0.15 58.75 -0.75 58.45 -1.35 58.05 -1.4 57.0 -2.2 56.25 -2.35 55.2 -5.35 52.4 -4.5 48.85 L-2.9 42.0 -2.8 41.75 -2.7 41.6 Q-1.95 40.25 -0.5 40.35 1.15 40.45 2.45 41.1 3.4 41.15 3.9 41.65 L4.3 42.55 4.9 45.1 4.9 45.3 Q5.0 47.25 4.7 49.0 L4.45 50.1 4.4 50.4 Q3.7 52.8 1.15 54.15 0.3 56.45 -0.1 59.05 M3.5 34.4 L3.6 34.45 3.45 34.6 3.5 34.4 M-8.0 -4.85 L-8.4 -3.95 -7.9 -3.95 -6.65 -3.0 -6.3 -2.85 -6.3 -2.8 -5.85 -2.65 -5.65 -2.6 -5.15 -2.45 -3.85 -1.8 -3.4 -1.45 -3.25 -2.35 -2.95 -8.05 -3.2 -7.95 -6.15 -6.6 Q-7.4 -6.0 -8.0 -4.85 M-17.75 20.6 Q-19.25 20.25 -20.8 21.0 -21.7 21.3 -22.6 22.0 -23.45 22.65 -23.4 23.6 -23.85 23.85 -24.0 24.45 L-23.9 25.1 Q-24.8 25.25 -25.35 25.95 L-26.95 26.85 -27.65 27.85 Q-28.5 29.2 -28.2 30.8 L-28.15 30.85 Q-25.6 31.95 -22.9 32.85 -20.85 33.55 -19.05 34.9 L-17.65 36.15 Q-15.6 36.55 -15.0 34.85 -14.45 33.05 -13.15 32.15 L-13.5 32.0 -12.95 31.8 -12.25 31.15 -12.1 30.5 -11.8 30.65 Q-10.6 28.8 -10.85 26.7 -10.35 26.2 -10.3 25.5 L-10.5 24.7 -10.95 24.0 -11.65 23.6 -10.35 24.3 -10.05 24.45 Q-9.95 21.55 -11.15 18.85 -12.35 18.5 -12.85 17.6 -13.35 16.65 -14.15 15.85 -15.5 16.95 -16.25 18.1 -16.2 18.6 -16.65 18.8 -17.05 18.9 -16.85 19.35 L-16.8 19.4 -17.0 19.35 -17.3 19.4 -17.4 19.4 -17.5 19.5 Q-17.9 19.8 -17.85 20.3 L-17.75 20.6 M-3.5 76.85 L-2.4 78.35 Q-0.7 77.55 1.35 78.05 L1.35 77.2 2.2 77.2 2.4 76.1 Q2.0 75.95 1.75 76.3 1.5 76.65 1.2 76.1 L-1.2 76.35 Q-2.4 76.3 -3.5 76.85 M-3.65 69.35 L-2.75 71.2 -0.2 70.6 Q1.1 70.4 2.05 69.7 2.05 68.35 0.7 68.6 1.15 69.05 0.7 69.35 -0.15 69.05 -0.7 69.55 -1.35 70.0 -2.0 69.95 L-1.05 69.05 -3.65 69.35 M-2.2 72.1 Q-2.95 72.6 -2.55 73.7 -0.35 72.85 1.65 74.05 L1.95 71.2 -0.45 71.45 Q-1.45 71.55 -2.2 72.1 M-3.95 97.15 Q-4.0 99.05 -5.45 100.6 -5.9 101.6 -5.4 102.6 L-5.15 103.2 -4.7 104.5 Q-2.55 102.35 -2.45 99.4 L-2.1 99.05 -1.95 98.9 -1.5 98.75 -1.3 98.8 -1.3 98.85 -1.0 99.15 -0.95 99.25 Q-0.5 100.2 0.35 100.45 L0.55 100.5 0.7 102.1 Q-0.5 105.1 -0.65 108.15 L-0.6 108.2 2.4 113.25 2.8 109.3 Q5.85 104.5 3.55 99.1 L4.2 97.75 Q5.75 93.75 6.7 89.45 6.6 86.25 5.65 83.4 4.65 80.55 2.05 78.9 L1.95 78.8 1.9 79.05 1.5 78.85 1.5 78.8 Q1.15 78.5 0.65 78.55 L0.4 78.8 -1.35 78.75 -2.0 78.8 -2.05 78.9 -2.4 78.85 -2.65 78.95 Q-3.0 79.1 -3.35 79.35 L-3.3 79.25 -3.4 79.3 Q-5.45 80.0 -6.0 81.8 -6.6 83.65 -7.7 85.15 -8.7 86.95 -7.8 88.55 -6.95 90.15 -7.4 92.35 -5.1 93.55 -4.05 96.1 L-3.95 97.15 M-4.35 81.8 L-4.55 82.45 -4.45 82.15 -4.35 81.75 -4.35 81.8 M2.35 42.45 Q0.25 42.3 -2.05 42.45 L-4.3 50.75 Q-2.25 53.05 -1.3 56.0 -0.7 56.4 -0.35 57.05 L-0.1 54.7 Q0.45 53.25 1.9 53.0 3.4 52.0 3.5 50.55 L3.55 47.4 2.35 42.45 M0.85 75.4 L0.85 75.05 Q0.15 73.9 -1.6 74.3 -2.9 74.5 -3.1 75.7 L0.85 75.4" fill="#000000" fill-rule="evenodd" stroke="none"/>
    <path d="M7.75 -1.5 L9.1 -2.95 9.2 -3.0 9.45 -2.65 9.5 -2.6 9.85 -1.45 8.7 -0.45 8.6 -0.35 8.25 -0.1 7.75 -1.5 M9.2 3.05 L5.75 6.35 Q2.6 9.15 2.75 13.25 2.1 14.05 3.0 14.7 L3.55 15.1 5.25 16.35 6.25 16.95 6.15 16.9 6.65 15.7 6.7 15.6 6.95 15.75 7.65 16.3 8.1 16.65 8.75 17.2 8.95 17.35 9.2 17.6 8.8 18.75 8.4 18.4 6.25 16.95 5.55 18.35 5.45 18.7 Q1.6 17.95 -2.5 18.7 -3.95 18.9 -5.3 19.45 L-4.35 19.1 -4.5 18.75 -5.15 16.75 -2.85 16.0 Q-1.35 15.35 -0.65 13.95 0.7 11.15 -0.7 8.3 -1.95 5.7 -4.1 3.75 -4.95 3.0 -5.9 2.35 L-5.05 0.35 -4.95 0.2 Q-4.15 1.15 -2.85 0.75 L-2.4 0.4 -1.75 -0.2 Q-0.4 -2.85 -0.2 -5.85 L0.05 -8.75 0.05 -9.6 0.6 -9.3 0.6 -8.5 0.75 -8.4 Q1.3 -8.6 1.35 -9.25 L1.65 -9.35 3.2 -9.15 Q2.5 -4.55 3.5 0.0 L3.65 0.05 Q3.5 0.4 3.6 0.85 L3.85 1.15 Q6.0 1.7 7.85 0.2 L8.1 0.0 8.25 -0.1 9.15 2.95 9.2 3.05 M8.1 0.0 L6.6 1.5 Q6.85 1.75 7.05 1.7 8.1 1.15 8.1 0.0 M0.1 -2.3 Q-0.25 -1.1 0.45 -0.2 1.0 -1.35 0.55 -2.65 0.25 -2.6 0.1 -2.3 M0.25 -4.15 Q0.6 -4.3 0.9 -4.6 L0.7 -6.0 Q-0.2 -5.35 0.25 -4.15 M4.45 4.45 L5.5 2.5 Q4.2 3.05 4.0 4.45 L4.45 4.45 M0.15 1.75 Q-1.85 2.95 -1.05 5.5 L-0.65 7.05 Q-0.45 7.9 0.6 7.45 1.35 6.2 1.65 4.75 L1.25 2.95 Q1.1 1.95 0.15 1.75 M-2.9 2.95 L-2.9 2.5 Q-3.85 1.55 -5.05 2.05 -4.2 3.35 -2.9 2.95" fill="#663300" fill-rule="evenodd" stroke="none"/>
    <path d="M9.85 -1.45 L9.75 -1.0 Q10.95 -0.45 11.25 0.75 L9.2 3.05 9.15 2.95 8.25 -0.1 8.6 -0.35 8.7 -0.45 9.85 -1.45 M8.8 18.75 L8.8 18.9 Q8.65 19.55 8.0 19.4 L5.45 18.7 5.55 18.35 6.25 16.95 8.4 18.4 8.8 18.75 M0.2 2.6 Q-0.8 3.95 -0.55 5.5 -0.45 6.6 0.4 6.8 1.45 4.65 0.2 2.6 M0.15 1.75 Q1.1 1.95 1.25 2.95 L1.65 4.75 Q1.35 6.2 0.6 7.45 -0.45 7.9 -0.65 7.05 L-1.05 5.5 Q-1.85 2.95 0.15 1.75" fill="#402000" fill-rule="evenodd" stroke="none"/>
    <path d="M2.75 13.25 L2.75 13.3 Q4.85 14.25 6.7 15.6 L6.65 15.7 6.15 16.9 6.25 16.95 5.25 16.35 3.55 15.1 3.0 14.7 Q2.1 14.05 2.75 13.25 M-5.3 19.45 L-7.9 20.7 -8.1 20.8 -8.3 20.95 -9.8 18.2 -6.05 15.95 -5.5 15.6 Q-3.95 14.65 -2.1 14.45 -0.45 12.45 -1.2 9.65 -2.55 6.65 -5.35 4.75 L-6.35 4.0 -10.55 0.6 Q-9.75 -0.9 -9.3 -2.5 L-8.85 -3.45 Q-6.8 -1.55 -4.35 -0.65 L-3.0 -0.25 Q-1.7 -2.2 -1.55 -4.65 L-1.35 -9.25 0.05 -9.6 0.05 -8.75 -0.2 -5.85 Q-0.4 -2.85 -1.75 -0.2 L-2.4 0.4 -2.85 0.75 Q-4.15 1.15 -4.95 0.2 L-5.05 0.35 -5.9 2.35 Q-4.95 3.0 -4.1 3.75 -1.95 5.7 -0.7 8.3 0.7 11.15 -0.65 13.95 -1.35 15.35 -2.85 16.0 L-5.15 16.75 -4.5 18.75 -4.35 19.1 -5.3 19.45 M3.65 0.05 L5.15 0.3 5.25 0.25 5.45 0.15 5.55 0.1 7.4 -1.0 7.75 -1.5 8.25 -0.1 8.1 0.0 7.85 0.2 Q6.0 1.7 3.85 1.15 L3.6 0.85 Q3.5 0.4 3.65 0.05 M-8.3 -0.2 L-8.45 0.05 Q-7.4 1.3 -6.2 1.45 -6.65 0.0 -8.3 -0.2 M-2.2 72.1 Q-1.45 71.55 -0.45 71.45 L1.95 71.2 1.65 74.05 Q-0.35 72.85 -2.55 73.7 -2.95 72.6 -2.2 72.1 M-3.65 69.35 L-1.05 69.05 -2.0 69.95 Q-1.35 70.0 -0.7 69.55 -0.15 69.05 0.7 69.35 1.15 69.05 0.7 68.6 2.05 68.35 2.05 69.7 1.1 70.4 -0.2 70.6 L-2.75 71.2 -3.65 69.35 M-3.5 76.85 Q-2.4 76.3 -1.2 76.35 L1.2 76.1 Q1.5 76.65 1.75 76.3 2.0 75.95 2.4 76.1 L2.2 77.2 1.35 77.2 1.35 78.05 Q-0.7 77.55 -2.4 78.35 L-3.5 76.85 M0.85 75.4 L-3.1 75.7 Q-2.9 74.5 -1.6 74.3 0.15 73.9 0.85 75.05 L0.85 75.4" fill="#996600" fill-rule="evenodd" stroke="none"/>
    <path d="M4.1 -3.5 L4.2 -7.3 6.35 -5.8 6.55 -5.6 6.85 -5.25 6.55 -4.55 4.7 -2.25 4.05 -1.75 4.1 -3.4 4.25 -3.5 4.1 -3.5 M-4.8 14.3 L-6.2 14.85 -6.35 14.9 -6.6 15.05 -6.8 15.1 -6.85 15.15 -7.1 15.3 -7.3 15.4 -8.0 15.9 Q-9.25 15.3 -10.15 13.9 -11.15 12.2 -9.85 10.9 L-9.65 10.85 -9.65 10.8 -9.4 10.7 -9.4 10.65 Q-8.45 10.65 -7.75 11.1 L-6.8 11.95 -6.65 12.15 -6.65 12.2 -6.5 12.4 -6.5 12.45 -6.1 12.75 Q-4.75 13.15 -4.4 13.95 L-4.35 14.1 -4.8 14.3 M-11.2 16.6 L-11.35 16.5 Q-12.95 12.4 -12.55 7.75 L-12.4 7.9 -11.0 8.9 -10.4 9.05 Q-10.25 9.6 -10.65 10.25 L-10.8 10.5 Q-11.2 13.55 -11.2 16.6 M8.95 11.0 Q10.05 11.45 9.6 13.0 L8.55 14.85 8.0 15.4 Q6.3 14.1 4.35 13.25 L4.95 12.9 7.65 11.05 7.8 10.8 8.95 11.0 M4.2 19.6 L4.15 19.75 4.25 20.25 4.5 20.95 3.55 20.95 3.15 20.95 3.05 20.95 2.95 20.95 2.9 20.95 2.2 20.85 1.45 20.95 1.25 20.9 0.8 21.05 -1.25 21.25 -2.75 21.45 -2.85 21.45 -2.9 21.5 -2.85 20.6 -2.95 19.9 1.9 19.4 4.2 19.6 M-2.9 21.75 L-3.2 21.85 -2.95 21.75 -3.25 21.8 -2.85 21.7 -2.9 21.75 M-4.35 20.35 L-4.4 20.4 Q-4.65 21.35 -4.55 22.4 L-3.9 24.85 Q-4.25 24.75 -4.55 25.05 L-4.55 25.5 Q-5.35 24.9 -5.75 23.85 L-6.05 23.35 -6.5 22.9 -7.0 22.65 -7.25 22.6 Q-7.3 21.45 -6.25 21.1 L-4.35 20.35 M-3.2 -7.95 L-3.5 -7.05 Q-3.5 -6.35 -3.65 -5.7 -3.9 -4.45 -4.9 -3.75 L-6.0 -3.85 Q-6.9 -3.9 -7.55 -4.5 L-8.0 -4.85 Q-7.4 -6.0 -6.15 -6.6 L-3.2 -7.95" fill="#99ccff" fill-rule="evenodd" stroke="none"/>
    <path d="M0.6 -9.3 L0.6 -9.45 0.75 -9.8 Q0.85 -10.0 1.1 -10.0 L1.65 -9.35 1.35 -9.25 Q1.3 -8.6 0.75 -8.4 L0.6 -8.5 0.6 -9.3 M8.1 0.0 Q8.1 1.15 7.05 1.7 6.85 1.75 6.6 1.5 L8.1 0.0 M0.25 -4.15 Q-0.2 -5.35 0.7 -6.0 L0.9 -4.6 Q0.6 -4.3 0.25 -4.15 M0.1 -2.3 Q0.25 -2.6 0.55 -2.65 1.0 -1.35 0.45 -0.2 -0.25 -1.1 0.1 -2.3 M4.45 4.45 L4.0 4.45 Q4.2 3.05 5.5 2.5 L4.45 4.45 M0.2 2.6 Q1.45 4.65 0.4 6.8 -0.45 6.6 -0.55 5.5 -0.8 3.95 0.2 2.6 M-8.3 -0.2 Q-6.65 0.0 -6.2 1.45 -7.4 1.3 -8.45 0.05 L-8.3 -0.2 M-2.9 2.95 Q-4.2 3.35 -5.05 2.05 -3.85 1.55 -2.9 2.5 L-2.9 2.95" fill="#cc9900" fill-rule="evenodd" stroke="none"/>
    <path d="M6.85 -5.25 L7.95 -3.55 Q6.15 -1.55 4.0 -0.5 L4.05 -1.75 4.7 -2.25 6.55 -4.55 6.85 -5.25 M4.1 -3.4 L4.1 -3.5 4.25 -3.5 4.1 -3.4 M-3.75 13.85 L-4.8 14.3 -4.35 14.1 -3.75 13.85 M-8.0 15.9 L-8.8 16.6 Q-10.0 17.8 -11.2 16.6 -11.2 13.55 -10.8 10.5 L-10.65 10.25 Q-10.25 9.6 -10.4 9.05 L-11.0 8.9 -10.1 9.1 Q-9.5 7.65 -9.7 6.25 -9.9 4.8 -9.65 3.25 L-4.35 7.3 Q-3.15 8.25 -2.6 9.5 L-2.65 9.5 -3.1 9.75 -3.95 9.9 Q-5.45 8.15 -8.1 8.3 -8.75 8.5 -8.55 9.05 -8.35 9.55 -8.3 10.0 L-7.75 11.1 Q-8.45 10.65 -9.4 10.65 L-9.4 10.7 -9.65 10.8 -9.65 10.85 -9.85 10.9 Q-11.15 12.2 -10.15 13.9 -9.25 15.3 -8.0 15.9 M-6.8 11.95 L-6.6 12.05 -6.65 12.15 -6.8 11.95 M8.95 11.0 L9.15 10.5 9.2 9.75 Q9.4 9.45 9.2 9.15 L9.05 9.0 8.45 8.9 7.0 9.1 6.35 9.25 5.9 9.35 4.2 9.8 Q4.55 8.85 5.4 8.05 L9.7 4.0 Q10.05 7.0 10.0 10.05 L10.8 9.7 10.4 9.9 10.05 16.55 9.7 16.8 8.0 15.4 8.55 14.85 9.6 13.0 Q10.05 11.45 8.95 11.0 M4.2 19.6 L4.8 19.7 Q6.55 20.0 8.1 20.65 L8.0 21.8 7.9 22.0 7.85 21.75 5.85 21.3 5.35 21.15 5.1 21.5 5.6 21.55 Q5.75 21.55 5.85 21.7 6.15 22.25 5.7 22.7 L4.25 22.85 4.15 23.0 4.1 23.0 4.1 22.95 3.95 22.7 4.05 22.85 2.7 22.7 0.5 22.75 -2.35 22.95 Q-2.75 23.35 -2.8 24.1 L-3.55 24.2 -3.55 25.1 -3.9 24.85 -4.55 22.4 Q-4.65 21.35 -4.4 20.4 L-4.35 20.35 -2.95 19.9 -2.85 20.6 -2.9 21.5 -3.3 21.65 -3.5 21.75 -3.6 21.8 -3.85 21.9 -3.6 21.85 -3.25 21.8 -2.95 21.75 -3.2 21.85 -2.9 21.75 -2.85 21.75 -2.45 21.65 -2.45 21.95 -2.4 22.0 -1.0 22.05 -1.85 22.05 -1.45 22.2 -1.25 22.35 -0.9 22.4 0.25 22.4 2.95 22.05 3.65 21.7 Q4.0 21.35 3.65 21.0 L3.55 20.95 4.5 20.95 4.25 20.25 4.15 19.75 4.2 19.6 M2.2 20.85 L2.9 20.95 2.75 20.95 2.2 20.85 M-1.4 21.35 L-1.25 21.3 -1.2 21.35 -1.4 21.35 M-3.85 -1.8 L-3.45 -1.5 -3.4 -1.55 -3.25 -2.35 -3.4 -1.45 -3.85 -1.8" fill="#6666ff" fill-rule="evenodd" stroke="none"/>
    <path d="M-2.6 9.5 Q-1.95 10.85 -2.1 12.55 L-2.15 13.05 -3.75 13.85 -4.35 14.1 -4.4 13.95 Q-4.75 13.15 -6.1 12.75 L-6.5 12.45 -6.5 12.4 -6.65 12.2 -6.65 12.15 -6.6 12.05 -6.8 11.95 -7.75 11.1 -8.3 10.0 Q-8.35 9.55 -8.55 9.05 -8.75 8.5 -8.1 8.3 -5.45 8.15 -3.95 9.9 L-3.1 9.75 -2.65 9.5 -2.6 9.5 M4.2 9.8 L5.9 9.35 6.35 9.25 7.0 9.1 8.45 8.9 9.05 9.0 9.2 9.15 Q9.4 9.45 9.2 9.75 L9.15 10.5 8.95 11.0 7.8 10.8 7.65 11.05 4.95 12.9 4.35 13.25 4.15 13.15 3.9 11.5 Q3.85 10.55 4.2 9.8 M10.05 16.55 L10.4 9.9 10.8 9.7 11.8 8.8 11.9 8.7 11.95 8.65 Q12.5 10.85 12.25 13.45 11.55 15.4 10.05 16.55 M8.5 10.15 L8.4 9.55 Q5.65 9.5 4.0 11.5 L8.5 10.15 M-2.45 21.65 L-2.85 21.75 -2.85 21.7 -3.25 21.8 -3.6 21.85 -3.6 21.8 -3.5 21.75 -3.3 21.65 -2.9 21.5 -2.85 21.45 -2.75 21.45 -1.25 21.25 -1.25 21.3 -1.4 21.35 -2.05 21.4 Q-2.4 21.45 -2.45 21.65 M-3.55 25.1 L-3.55 24.2 -2.8 24.1 Q-2.75 23.35 -2.35 22.95 L0.5 22.75 2.7 22.7 4.05 22.85 3.95 22.7 4.1 22.95 4.1 23.0 4.15 23.0 4.25 22.85 5.7 22.7 Q6.15 22.25 5.85 21.7 5.75 21.55 5.6 21.55 L5.1 21.5 5.35 21.15 5.85 21.3 7.85 21.75 7.9 22.0 7.9 22.05 7.65 22.35 7.35 22.65 Q6.45 23.3 5.85 24.4 5.05 25.1 4.1 25.4 L3.6 25.5 Q3.2 25.0 3.1 24.5 L3.15 23.8 3.15 23.75 3.15 23.65 0.75 23.5 -1.65 24.0 -2.85 26.25 Q-3.05 25.55 -3.55 25.1 M-3.8 11.55 L-3.8 11.25 Q-5.2 9.25 -7.7 9.3 -7.8 10.1 -6.95 10.8 -5.5 11.95 -3.8 11.55" fill="#6633cc" fill-rule="evenodd" stroke="none"/>
    <path d="M8.5 10.15 L4.0 11.5 Q5.65 9.5 8.4 9.55 L8.5 10.15 M-3.8 11.55 Q-5.5 11.95 -6.95 10.8 -7.8 10.1 -7.7 9.3 -5.2 9.25 -3.8 11.25 L-3.8 11.55" fill="#ffffcc" fill-rule="evenodd" stroke="none"/>
    <path d="M13.45 15.2 L13.5 15.2 Q14.8 15.4 15.5 16.55 L16.55 18.4 Q17.45 18.6 17.35 19.65 L18.65 19.75 Q19.8 20.35 20.55 21.25 L20.4 21.8 Q20.95 21.9 21.35 22.3 L21.6 23.0 Q22.95 23.65 23.85 25.0 23.45 26.05 24.4 26.8 24.95 27.2 25.1 27.75 26.15 27.8 26.2 28.7 L26.25 28.6 Q29.45 30.3 29.75 33.45 27.9 34.35 26.65 36.05 L26.45 36.3 26.25 36.5 27.35 32.35 27.35 31.9 Q25.95 31.2 24.9 30.2 L25.35 29.75 22.4 32.7 Q20.4 33.25 18.6 34.4 L15.4 35.95 14.9 36.1 Q14.0 35.7 14.05 34.65 L14.25 34.05 Q17.3 34.1 20.1 33.0 22.35 32.05 23.95 30.15 22.9 29.75 22.8 28.05 L22.65 27.5 Q22.55 27.2 22.6 26.9 L20.4 24.4 20.8 23.9 Q19.45 25.8 17.45 26.45 L12.9 27.8 12.45 28.15 12.75 27.95 Q13.55 28.55 13.1 29.95 L13.0 30.7 13.2 33.1 11.75 31.3 Q10.45 30.15 10.95 28.35 L10.85 28.75 9.8 27.4 Q9.55 26.9 9.7 26.45 L8.7 26.1 Q8.45 25.25 8.5 24.4 L9.65 24.2 Q9.4 23.9 9.4 23.4 9.4 22.85 9.8 22.55 L10.35 22.5 9.6 22.55 9.75 22.05 10.35 19.9 10.5 19.15 11.6 20.3 Q12.3 21.2 12.4 22.3 L12.4 22.35 13.25 22.3 14.6 20.9 Q14.0 20.45 14.4 19.45 L14.6 18.7 14.5 18.1 Q14.25 17.6 14.5 17.15 L14.6 17.0 13.3 15.3 13.45 15.2 M10.25 25.9 L10.4 26.6 11.15 26.75 13.95 26.85 17.2 25.45 Q18.55 24.9 19.1 23.5 L18.95 22.9 Q18.65 21.1 16.85 20.45 L16.5 20.3 16.45 20.35 15.35 21.7 13.4 23.05 12.95 23.2 10.1 24.1 Q11.0 24.55 10.35 25.8 L10.25 25.9 M-17.75 20.6 L-17.85 20.3 Q-17.9 19.8 -17.5 19.5 L-17.4 19.4 -17.3 19.4 -17.0 19.35 -16.8 19.4 Q-14.5 21.8 -11.9 23.4 L-11.85 22.8 -10.4 21.1 Q-10.05 22.55 -10.05 24.1 L-10.35 24.3 -11.65 23.6 -10.95 24.0 -10.5 24.7 -10.3 25.5 Q-10.35 26.2 -10.85 26.7 -10.6 28.8 -11.8 30.65 L-12.1 30.5 -12.25 31.15 -12.95 31.8 -13.5 32.0 -13.15 32.15 Q-14.45 33.05 -15.0 34.85 -15.6 36.55 -17.65 36.15 L-19.05 34.9 -16.5 34.6 Q-15.75 33.05 -15.8 31.3 L-15.65 30.8 -16.85 29.9 -17.15 29.6 -17.4 29.4 Q-17.95 27.45 -19.9 26.55 -21.85 25.6 -23.65 25.05 L-23.7 25.05 -23.9 25.1 -24.0 24.45 Q-23.85 23.85 -23.4 23.6 L-23.4 23.7 Q-20.0 24.25 -17.5 26.7 -17.15 28.85 -15.3 29.45 L-14.5 29.7 -14.25 29.05 -13.2 27.9 -12.3 27.3 -11.8 27.05 -10.95 26.2 -11.05 25.8 Q-12.8 24.5 -14.2 22.6 -15.5 21.45 -17.2 20.8 L-17.5 20.7 -17.75 20.6" fill="#333333" fill-rule="evenodd" stroke="none"/>
    <path d="M13.45 15.2 L13.3 15.3 14.6 17.0 14.5 17.15 Q14.25 17.6 14.5 18.1 L14.6 18.7 14.4 19.45 Q14.0 20.45 14.6 20.9 L13.25 22.3 12.4 22.35 12.4 22.3 Q12.3 21.2 11.6 20.3 L10.5 19.15 10.35 19.9 10.6 18.3 Q10.9 16.1 13.45 15.2 M13.2 33.1 L13.0 30.7 13.1 29.95 Q13.55 28.55 12.75 27.95 L12.45 28.15 12.9 27.8 17.45 26.45 Q19.45 25.8 20.8 23.9 L20.4 24.4 22.6 26.9 Q22.55 27.2 22.65 27.5 L22.8 28.05 Q22.9 29.75 23.95 30.15 22.35 32.05 20.1 33.0 17.3 34.1 14.25 34.05 L13.65 34.0 13.2 33.1 M15.4 35.95 L18.6 34.4 Q20.4 33.25 22.4 32.7 L25.35 29.75 24.9 30.2 Q25.95 31.2 27.35 31.9 L27.35 32.35 26.25 36.5 Q25.1 37.8 23.45 38.25 20.25 39.6 16.8 40.2 15.5 38.35 14.85 36.15 L15.4 35.95 M10.25 25.9 L10.35 25.8 Q11.0 24.55 10.1 24.1 L12.95 23.2 13.4 23.05 15.35 21.7 16.45 20.35 16.5 20.3 16.85 20.45 Q18.65 21.1 18.95 22.9 L19.1 23.5 Q18.55 24.9 17.2 25.45 L13.95 26.85 11.15 26.75 10.4 26.6 10.25 25.9 M15.3 24.2 L15.2 24.35 Q15.4 24.65 15.7 24.6 L15.75 24.5 15.85 24.3 15.8 24.25 15.55 24.05 15.55 24.1 15.45 24.1 15.4 24.15 15.3 24.2 M17.6 31.75 L17.75 31.95 17.9 32.0 18.25 32.05 18.25 32.0 18.35 31.95 Q18.95 31.2 17.9 31.05 L17.65 31.3 17.6 31.4 17.6 31.5 17.6 31.65 17.6 31.75 M15.4 30.65 L15.5 30.75 15.85 30.75 15.95 30.75 16.15 30.45 16.15 30.3 16.05 30.05 15.95 29.9 15.55 29.9 15.35 30.05 15.3 30.15 15.25 30.4 15.25 30.5 15.4 30.65 M17.95 28.85 L17.95 29.05 17.95 29.15 18.05 29.2 18.25 29.4 Q19.2 29.55 19.45 28.7 L19.4 28.65 Q19.3 28.35 18.95 28.3 L18.25 28.4 18.15 28.5 17.95 28.8 17.95 28.85 M23.95 34.55 L24.1 34.35 24.15 34.2 24.1 34.0 23.95 33.85 23.65 33.8 23.6 33.85 23.55 33.85 23.4 34.1 23.4 34.35 23.5 34.45 23.6 34.55 23.95 34.55 M21.2 28.7 L20.85 28.7 20.75 28.75 20.2 29.15 20.15 29.45 20.15 29.55 20.3 29.7 20.4 29.8 20.85 29.8 21.0 29.7 Q21.4 29.55 21.45 29.1 L21.3 28.85 21.2 28.7 M-23.4 23.6 Q-23.45 22.65 -22.6 22.0 -21.7 21.3 -20.8 21.0 -19.25 20.25 -17.75 20.6 L-17.5 20.7 -17.2 20.8 Q-15.5 21.45 -14.2 22.6 -12.8 24.5 -11.05 25.8 L-10.95 26.2 -11.8 27.05 -12.3 27.3 -13.2 27.9 -14.25 29.05 -14.5 29.7 -15.3 29.45 Q-17.15 28.85 -17.5 26.7 -20.0 24.25 -23.4 23.7 L-23.4 23.6 M-16.8 19.4 L-16.85 19.35 Q-17.05 18.9 -16.65 18.8 -16.2 18.6 -16.25 18.1 -15.5 16.95 -14.15 15.85 -13.35 16.65 -12.85 17.6 -12.35 18.5 -11.15 18.85 -9.95 21.55 -10.05 24.45 L-10.35 24.3 -10.05 24.1 Q-10.05 22.55 -10.4 21.1 L-11.85 22.8 -11.9 23.4 Q-14.5 21.8 -16.8 19.4 M-19.05 34.9 Q-20.85 33.55 -22.9 32.85 -25.6 31.95 -28.15 30.85 L-28.2 30.8 Q-28.5 29.2 -27.65 27.85 L-26.95 26.85 -25.35 25.95 Q-24.8 25.25 -23.9 25.1 L-23.7 25.05 -23.65 25.05 Q-21.85 25.6 -19.9 26.55 -17.95 27.45 -17.4 29.4 L-17.15 29.6 -16.85 29.9 -15.65 30.8 -15.8 31.3 Q-15.75 33.05 -16.5 34.6 L-19.05 34.9 M-25.2 28.95 L-25.4 29.15 Q-25.65 29.45 -25.55 29.85 L-25.45 29.95 -25.35 30.05 -25.0 30.05 -24.95 30.05 -24.75 29.8 Q-24.45 29.35 -24.85 29.0 L-25.2 28.95 M-22.75 27.9 Q-22.15 27.05 -23.25 26.9 L-23.5 27.15 Q-23.85 27.7 -23.3 28.05 L-22.85 28.05 -22.75 27.9 M-18.05 31.2 L-18.1 31.25 -18.1 31.35 -18.1 31.55 -18.05 31.65 -17.9 31.8 -17.8 31.9 -17.4 31.9 -17.35 31.85 Q-16.7 31.05 -17.75 30.9 L-18.05 31.2 M-21.2 30.2 L-21.45 30.25 -21.5 30.3 -21.8 30.6 Q-22.05 31.25 -21.5 31.5 L-21.05 31.5 Q-19.9 30.75 -21.2 30.2 M-14.15 25.65 L-14.45 25.9 -14.5 26.0 -14.5 26.1 -14.5 26.25 -14.45 26.35 -14.3 26.5 -14.2 26.6 -13.8 26.65 -13.8 26.6 -13.7 26.55 Q-13.1 25.8 -14.15 25.65 M-17.35 24.4 L-17.65 24.65 Q-17.75 25.35 -17.0 25.3 L-16.85 25.15 -16.7 24.8 -16.75 24.7 Q-16.9 24.4 -17.2 24.35 L-17.35 24.4 M-19.65 22.8 L-19.7 22.85 -19.7 22.9 -19.65 23.1 -19.4 23.1 -19.35 23.0 -19.3 22.95 -19.35 22.85 -19.4 22.75 -19.55 22.7 -19.6 22.75 -19.65 22.8" fill="#666633" fill-rule="evenodd" stroke="none"/>
    <path d="M15.3 24.2 L15.4 24.15 15.45 24.1 15.55 24.1 15.55 24.05 15.8 24.25 15.85 24.3 15.75 24.5 15.7 24.6 Q15.4 24.65 15.2 24.35 L15.3 24.2 M17.95 28.85 L17.95 28.8 18.15 28.5 18.25 28.4 18.95 28.3 Q19.3 28.35 19.4 28.65 L19.45 28.7 Q19.2 29.55 18.25 29.4 L18.05 29.2 17.95 29.15 17.95 29.05 17.95 28.85 M15.4 30.65 L15.25 30.5 15.25 30.4 15.3 30.15 15.35 30.05 15.55 29.9 15.95 29.9 16.05 30.05 16.15 30.3 16.15 30.45 15.95 30.75 15.85 30.75 15.5 30.75 15.4 30.65 M17.6 31.75 L17.6 31.65 17.6 31.5 17.6 31.4 17.65 31.3 17.9 31.05 Q18.95 31.2 18.35 31.95 L18.25 32.0 18.25 32.05 17.9 32.0 17.75 31.95 17.6 31.75 M21.2 28.7 L21.3 28.85 21.45 29.1 Q21.4 29.55 21.0 29.7 L20.85 29.8 20.4 29.8 20.3 29.7 20.15 29.55 20.15 29.45 20.2 29.15 20.75 28.75 20.85 28.7 21.2 28.7 M23.95 34.55 L23.6 34.55 23.5 34.45 23.4 34.35 23.4 34.1 23.55 33.85 23.6 33.85 23.65 33.8 23.95 33.85 24.1 34.0 24.15 34.2 24.1 34.35 23.95 34.55 M-22.75 27.9 L-22.85 28.05 -23.3 28.05 Q-23.85 27.7 -23.5 27.15 L-23.25 26.9 Q-22.15 27.05 -22.75 27.9 M-25.2 28.95 L-24.85 29.0 Q-24.45 29.35 -24.75 29.8 L-24.95 30.05 -25.0 30.05 -25.35 30.05 -25.45 29.95 -25.55 29.85 Q-25.65 29.45 -25.4 29.15 L-25.2 28.95 M-19.65 22.8 L-19.6 22.75 -19.55 22.7 -19.4 22.75 -19.35 22.85 -19.3 22.95 -19.35 23.0 -19.4 23.1 -19.65 23.1 -19.7 22.9 -19.7 22.85 -19.65 22.8 M-17.35 24.4 L-17.2 24.35 Q-16.9 24.4 -16.75 24.7 L-16.7 24.8 -16.85 25.15 -17.0 25.3 Q-17.75 25.35 -17.65 24.65 L-17.35 24.4 M-14.15 25.65 Q-13.1 25.8 -13.7 26.55 L-13.8 26.6 -13.8 26.65 -14.2 26.6 -14.3 26.5 -14.45 26.35 -14.5 26.25 -14.5 26.1 -14.5 26.0 -14.45 25.9 -14.15 25.65 M-21.2 30.2 Q-19.9 30.75 -21.05 31.5 L-21.5 31.5 Q-22.05 31.25 -21.8 30.6 L-21.5 30.3 -21.45 30.25 -21.2 30.2 M-18.05 31.2 L-17.75 30.9 Q-16.7 31.05 -17.35 31.85 L-17.4 31.9 -17.8 31.9 -17.9 31.8 -18.05 31.65 -18.1 31.55 -18.1 31.35 -18.1 31.25 -18.05 31.2" fill="#999966" fill-rule="evenodd" stroke="none"/>
    <path d="M15.4 42.3 L15.35 43.2 15.35 43.25 14.45 42.6 14.55 46.95 Q13.85 48.1 14.45 49.2 15.1 51.35 14.45 53.4 14.95 56.25 12.6 57.45 10.2 58.55 8.4 60.05 L8.3 59.9 11.25 57.35 8.1 59.15 Q5.9 60.4 5.55 62.65 L4.8 66.9 Q4.45 66.4 3.7 66.5 3.15 66.75 2.95 67.4 L2.5 67.55 2.25 67.6 -1.05 68.1 Q-3.1 68.15 -5.0 69.15 -5.4 68.7 -5.0 68.65 L-4.35 68.15 -5.55 68.3 Q-6.15 68.65 -6.8 68.3 L-7.15 68.6 Q-7.2 68.95 -7.55 68.6 -6.9 66.55 -7.0 64.45 L-7.05 63.8 Q-7.4 62.7 -8.4 62.8 -9.4 62.85 -10.25 62.3 -9.3 60.1 -9.6 57.65 -10.8 56.05 -12.15 54.6 -13.5 53.1 -15.5 52.65 -15.0 51.2 -15.15 49.9 -15.25 48.7 -15.95 47.55 L-16.05 47.55 -15.7 46.35 -15.1 45.3 -15.05 45.25 -15.1 45.25 -14.15 42.9 -13.5 40.05 Q-13.05 38.6 -14.15 37.5 -12.8 35.5 -12.95 33.75 -10.75 31.6 -9.75 29.0 L-9.75 28.95 -9.65 28.7 Q-9.0 26.7 -7.8 24.9 L-6.8 23.55 Q-6.45 23.8 -6.5 24.3 L-6.35 24.5 -6.15 24.8 -6.6 25.95 Q-7.45 27.6 -7.95 29.35 L-12.5 35.65 Q-12.25 39.6 -12.9 43.4 L-13.4 45.15 Q-14.4 47.45 -14.6 49.9 L-14.4 50.55 Q-13.4 51.9 -11.95 52.9 L-11.45 53.45 -8.8 58.5 Q-8.15 59.75 -7.9 61.2 -7.65 62.4 -6.7 63.35 L-5.95 64.25 Q-4.35 64.4 -3.65 66.0 L2.1 64.8 2.45 64.7 2.5 64.05 2.7 63.4 3.15 62.15 Q3.2 61.85 3.4 61.65 4.3 60.75 5.5 60.3 L5.95 60.0 11.45 54.9 11.85 49.6 12.45 43.0 Q12.55 41.35 12.1 39.85 L11.75 39.1 11.45 38.7 Q11.1 37.2 10.2 35.85 L9.65 34.95 Q9.0 33.75 7.75 33.7 L7.5 33.95 Q6.95 34.35 7.15 35.0 5.95 34.85 5.45 36.1 L5.35 36.05 5.25 35.9 5.2 35.8 5.25 35.7 5.25 34.8 Q6.05 34.0 6.3 32.9 5.35 32.95 5.0 33.8 L4.75 34.35 3.95 34.2 Q2.65 35.1 2.35 36.75 2.2 37.85 3.2 38.4 2.9 39.0 3.35 39.5 L6.35 42.9 Q6.45 43.75 6.05 44.55 L5.95 44.75 5.45 45.25 5.2 45.3 4.75 48.6 4.7 49.0 Q5.0 47.25 4.9 45.3 L4.9 45.1 4.3 42.55 3.9 41.65 Q3.4 41.15 2.45 41.1 1.15 40.45 -0.5 40.35 -1.95 40.25 -2.7 41.6 L-2.8 41.75 -2.9 42.0 -4.5 48.85 Q-5.35 52.4 -2.35 55.2 -2.2 56.25 -1.4 57.0 -1.35 58.05 -0.75 58.45 -0.15 58.75 -0.25 59.9 L-0.1 59.05 0.0 58.55 0.05 58.6 0.65 59.4 Q1.0 60.25 0.6 61.35 L0.5 61.75 -0.1 62.85 Q-1.5 63.4 -1.85 61.95 L-1.85 61.05 -1.7 60.25 -5.55 55.3 Q-6.8 54.6 -7.3 53.05 L-7.45 52.2 Q-8.8 52.0 -8.8 50.6 -8.75 49.15 -8.0 47.85 L-7.95 47.75 -7.7 47.35 -7.95 47.2 Q-7.95 42.85 -7.45 38.65 L-7.3 38.25 Q-8.25 36.2 -7.4 34.15 -7.05 33.4 -6.2 33.45 L-5.55 33.7 -5.4 33.85 -5.35 33.8 -5.2 33.8 -5.15 33.9 -5.15 33.95 -4.65 34.25 -4.5 34.35 -4.45 34.4 -3.2 35.95 -2.85 36.4 -2.3 37.0 -1.8 37.6 -1.8 37.55 -0.95 38.6 -0.2 38.65 0.15 38.15 0.8 37.65 0.85 37.3 0.8 36.9 Q1.1 36.55 1.6 36.6 L1.75 35.5 1.85 35.1 Q1.95 32.75 3.0 30.65 L2.95 30.4 2.05 28.8 Q1.75 28.1 1.75 27.35 -0.1 26.2 0.1 24.25 L-0.05 24.3 0.1 24.2 Q2.05 23.3 2.45 24.85 2.85 26.5 3.6 27.6 L4.3 27.35 5.15 26.8 5.65 26.25 5.7 26.1 7.05 23.95 Q8.15 26.05 8.75 28.35 11.0 30.65 12.2 33.4 L14.25 39.0 Q14.6 39.65 14.6 40.4 L14.55 40.8 Q14.35 41.75 15.3 42.3 L15.4 42.3 M3.5 34.4 L3.45 34.6 3.6 34.45 3.5 34.4 M1.6 97.45 L2.8 95.65 Q4.15 94.0 4.4 91.85 4.85 88.3 3.85 84.8 L3.0 82.9 2.85 82.95 2.35 83.15 2.35 83.45 2.35 83.5 Q2.7 85.3 1.85 87.15 L1.55 87.6 1.15 87.65 0.95 87.65 0.75 87.65 0.9 88.9 Q0.95 89.6 0.45 90.0 L0.1 90.1 -0.1 89.9 -0.15 89.8 -0.35 88.9 Q-0.45 87.45 -0.8 86.05 L-1.3 84.65 Q-2.0 83.35 -2.3 81.9 L-2.5 80.85 -2.8 80.55 Q-4.05 83.5 -4.8 86.65 -5.0 84.4 -4.55 82.45 L-4.6 82.4 -6.85 86.15 Q-5.45 89.4 -4.3 92.7 L-4.1 93.25 Q-3.3 95.2 -3.95 97.15 L-4.05 96.1 Q-5.1 93.55 -7.4 92.35 -6.95 90.15 -7.8 88.55 -8.7 86.95 -7.7 85.15 -6.6 83.65 -6.0 81.8 -5.45 80.0 -3.4 79.3 L-3.35 79.35 Q-3.0 79.1 -2.65 78.95 L-2.4 78.85 -2.05 78.9 -2.0 78.8 -1.35 78.75 0.4 78.8 0.45 78.8 0.8 80.65 Q0.85 81.6 1.95 81.8 2.85 81.15 2.35 80.45 L2.25 80.3 2.2 80.25 Q1.85 79.65 1.9 79.05 L2.05 78.9 Q4.65 80.55 5.65 83.4 6.6 86.25 6.7 89.45 5.75 93.75 4.2 97.75 L3.55 99.1 Q5.85 104.5 2.8 109.3 L2.4 113.25 -0.6 108.2 -0.1 108.2 0.0 108.15 0.25 107.9 0.35 107.75 0.75 107.45 Q1.95 105.85 2.3 104.05 2.35 101.7 0.95 99.55 L0.9 99.0 1.6 97.45 M-5.15 103.2 L-5.2 103.05 -4.6 101.75 Q-3.65 100.0 -3.15 98.1 L-2.6 96.55 -2.55 96.45 -2.55 96.4 Q-2.65 95.95 -2.4 95.55 L-2.0 94.95 Q-1.75 94.65 -1.4 94.65 0.2 95.05 0.0 96.9 L0.05 96.9 0.05 97.3 0.05 97.4 0.4 100.15 0.35 100.45 Q-0.5 100.2 -0.95 99.25 L-1.0 99.15 -1.3 98.85 -1.3 98.8 -1.5 98.75 -1.95 98.9 -2.1 99.05 -2.45 99.4 Q-2.55 102.35 -4.7 104.5 L-5.15 103.2 M-4.35 81.8 L-4.35 81.75 -4.45 82.15 -4.55 82.45 -4.35 81.8 M-1.25 79.65 L-1.4 79.75 -1.4 79.85 -1.35 80.5 -1.3 80.75 -1.05 82.1 -0.65 83.1 0.05 84.5 0.3 84.55 0.55 83.5 0.55 83.35 Q0.55 82.55 0.0 81.8 L-0.05 81.75 Q-0.45 81.15 -0.4 80.1 -0.35 79.15 -1.25 79.65" fill="#cc0000" fill-rule="evenodd" stroke="none"/>
    <path d="M-6.15 24.8 Q-4.8 26.9 -3.05 28.15 L-3.05 27.85 Q-1.75 27.25 -1.5 25.95 -1.3 24.65 -0.05 24.3 L0.1 24.25 Q-0.1 26.2 1.75 27.35 1.75 28.1 2.05 28.8 L2.95 30.4 3.0 30.65 Q1.95 32.75 1.85 35.1 L1.75 35.5 1.6 36.6 Q1.1 36.55 0.8 36.9 L0.85 37.3 0.8 37.65 0.15 38.15 -0.2 38.65 -0.95 38.6 -1.8 37.55 -1.8 36.35 -1.6 36.5 Q-0.9 36.9 -0.8 36.15 -0.7 35.45 -1.1 34.85 -1.55 34.1 -2.25 33.7 L-2.4 33.75 -3.15 31.7 -2.55 32.0 Q-1.65 32.35 -1.6 31.55 L-1.65 31.3 -3.45 28.85 -3.45 28.8 Q-3.55 28.15 -4.2 28.1 -4.65 28.35 -4.7 28.9 L-4.7 29.0 -4.65 29.1 -4.75 29.15 -4.95 29.45 -5.25 29.8 -6.3 29.2 -5.5 30.85 Q-5.7 32.35 -5.2 33.8 L-5.35 33.8 -5.9 33.25 -5.55 33.7 -6.2 33.45 Q-7.05 33.4 -7.4 34.15 -8.25 36.2 -7.3 38.25 L-7.45 38.65 Q-7.95 42.85 -7.95 47.2 L-7.95 47.75 -8.0 47.85 Q-8.75 49.15 -8.8 50.6 -8.8 52.0 -7.45 52.2 L-7.3 53.05 Q-6.8 54.6 -5.55 55.3 L-1.7 60.25 -1.85 61.05 -1.85 61.95 Q-1.5 63.4 -0.1 62.85 L0.5 61.75 0.6 61.35 Q1.0 60.25 0.65 59.4 L0.8 59.95 1.35 59.9 Q2.25 59.05 2.15 57.7 2.05 56.05 3.4 55.25 L3.65 55.1 3.2 56.4 Q3.1 56.75 3.4 57.0 4.25 57.8 4.8 56.75 L7.55 51.7 8.5 49.85 Q8.75 48.8 8.15 48.05 L7.85 48.0 7.6 48.25 7.5 48.65 7.35 48.95 7.0 50.3 7.0 50.25 7.0 50.1 6.95 50.05 Q6.15 49.45 5.9 50.4 L5.9 50.45 6.0 48.85 6.3 46.4 Q6.55 45.25 6.05 44.55 6.45 43.75 6.35 42.9 L3.35 39.5 Q2.9 39.0 3.2 38.4 2.2 37.85 2.35 36.75 2.65 35.1 3.95 34.2 L4.75 34.35 5.0 33.8 Q5.35 32.95 6.3 32.9 6.05 34.0 5.25 34.8 L5.25 35.7 5.2 35.8 5.25 35.9 5.35 36.05 5.4 36.15 5.45 36.1 Q5.95 34.85 7.15 35.0 6.95 34.35 7.5 33.95 L7.75 33.7 Q9.0 33.75 9.65 34.95 L10.2 35.85 Q11.1 37.2 11.45 38.7 L11.75 39.1 12.1 39.85 Q12.55 41.35 12.45 43.0 L11.85 49.6 11.45 54.9 5.95 60.0 5.5 60.3 Q4.3 60.75 3.4 61.65 3.2 61.85 3.15 62.15 L2.7 63.4 2.5 64.05 2.45 64.7 2.1 64.8 -3.65 66.0 Q-4.35 64.4 -5.95 64.25 L-6.7 63.35 Q-7.65 62.4 -7.9 61.2 -8.15 59.75 -8.8 58.5 L-11.45 53.45 -11.95 52.9 Q-13.4 51.9 -14.4 50.55 L-14.6 49.9 Q-14.4 47.45 -13.4 45.15 L-12.9 43.4 Q-12.25 39.6 -12.5 35.65 L-7.95 29.35 Q-7.45 27.6 -6.6 25.95 L-6.15 24.8 M-10.95 38.5 Q-11.2 38.45 -11.3 38.7 L-11.95 41.05 -12.8 46.65 -13.2 47.5 Q-13.65 48.3 -12.8 48.65 L-12.4 48.7 -12.45 48.8 -12.7 49.15 Q-12.9 49.95 -12.45 50.75 L-12.2 51.25 Q-11.7 52.5 -10.6 52.4 -9.85 51.6 -10.55 50.65 L-10.95 49.95 Q-11.3 49.05 -12.05 48.6 L-12.25 48.65 -12.15 48.55 Q-11.6 48.15 -11.45 47.45 -10.75 44.6 -10.45 41.7 L-10.45 40.55 -10.4 39.65 Q-10.25 38.8 -10.95 38.5 M-3.95 97.15 Q-3.3 95.2 -4.1 93.25 L-4.3 92.7 Q-5.45 89.4 -6.85 86.15 L-4.6 82.4 -4.55 82.45 Q-5.0 84.4 -4.8 86.65 -4.05 83.5 -2.8 80.55 L-2.5 80.85 -2.3 81.9 Q-2.0 83.35 -1.3 84.65 L-0.8 86.05 Q-0.45 87.45 -0.35 88.9 L-0.15 89.8 -0.1 89.9 0.1 90.1 0.45 90.0 Q0.95 89.6 0.9 88.9 L0.75 87.65 0.95 87.65 1.15 87.65 1.55 87.6 1.85 87.15 Q2.7 85.3 2.35 83.5 L2.35 83.45 2.35 83.15 2.85 82.95 3.0 82.9 3.85 84.8 Q4.85 88.3 4.4 91.85 4.15 94.0 2.8 95.65 L1.6 97.45 1.9 96.95 1.0 94.05 0.5 94.0 0.5 94.05 0.3 94.1 0.2 94.25 0.1 94.35 0.05 94.9 0.05 96.85 0.05 96.9 0.0 96.9 Q0.2 95.05 -1.4 94.65 -1.75 94.65 -2.0 94.95 L-2.4 95.55 Q-2.65 95.95 -2.55 96.4 L-2.55 96.45 -2.6 96.55 -3.15 98.1 Q-3.65 100.0 -4.6 101.75 L-5.2 103.05 -5.15 103.2 -5.4 102.6 Q-5.9 101.6 -5.45 100.6 -4.0 99.05 -3.95 97.15 M1.9 79.05 Q1.85 79.65 2.2 80.25 L2.25 80.3 2.35 80.45 Q2.85 81.15 1.95 81.8 0.85 81.6 0.8 80.65 L0.45 78.8 0.4 78.8 0.65 78.55 Q1.15 78.5 1.5 78.8 L1.5 78.85 1.9 79.05 M-3.1 91.3 Q-3.4 92.65 -2.6 93.5 L-2.15 93.5 -1.85 93.2 Q-1.65 92.65 -1.75 92.0 L-1.7 91.45 Q-1.15 90.35 -2.4 90.2 -2.95 90.6 -3.1 91.3 M-3.35 84.35 L-3.75 84.75 -3.9 85.35 Q-4.65 87.0 -4.7 88.85 -4.75 89.6 -4.1 89.8 L-3.55 89.75 Q-2.15 88.95 -2.65 87.4 L-2.35 85.8 Q-2.1 84.45 -3.35 84.35 M8.35 45.35 L8.3 46.85 Q8.25 47.85 8.85 48.5 L9.3 48.5 9.55 48.25 9.85 47.15 Q10.1 45.6 8.8 45.1 L8.55 45.15 8.35 45.35 M8.6 40.5 Q8.9 39.9 8.2 39.7 L7.95 39.75 7.65 40.15 Q7.25 41.05 8.35 41.1 L8.55 40.9 8.55 40.6 8.6 40.5 M-1.25 79.65 Q-0.35 79.15 -0.4 80.1 -0.45 81.15 -0.05 81.75 L0.0 81.8 Q0.55 82.55 0.55 83.35 L0.55 83.5 0.3 84.55 0.05 84.5 -0.65 83.1 -1.05 82.1 -1.3 80.75 -1.35 80.5 -1.4 79.85 -1.4 79.75 -1.25 79.65" fill="#ff6633" fill-rule="evenodd" stroke="none"/>
    <path d="M-4.65 29.1 L-4.7 29.0 -4.7 28.9 Q-4.65 28.35 -4.2 28.1 -3.55 28.15 -3.45 28.8 L-3.45 28.85 -1.65 31.3 -1.6 31.55 Q-1.65 32.35 -2.55 32.0 L-3.15 31.7 -3.7 30.4 -3.75 30.15 -4.0 29.6 -4.2 29.45 -4.25 29.35 -4.4 29.05 -4.65 29.05 -4.65 29.1 M-2.4 33.75 L-2.25 33.7 Q-1.55 34.1 -1.1 34.85 -0.7 35.45 -0.8 36.15 -0.9 36.9 -1.6 36.5 L-1.8 36.35 -2.0 35.25 -2.4 33.75 M-5.25 29.8 L-5.2 29.85 -4.8 30.25 Q-4.4 30.7 -4.1 31.3 L-4.0 31.6 -3.8 32.6 -3.8 32.65 Q-4.1 32.85 -4.05 33.3 L-5.5 30.85 -6.3 29.2 -5.25 29.8 M-10.95 38.5 Q-10.25 38.8 -10.4 39.65 L-10.45 40.55 -10.45 41.7 Q-10.75 44.6 -11.45 47.45 -11.6 48.15 -12.15 48.55 L-12.25 48.65 -12.05 48.6 Q-11.3 49.05 -10.95 49.95 L-10.55 50.65 Q-9.85 51.6 -10.6 52.4 -11.7 52.5 -12.2 51.25 L-12.45 50.75 Q-12.9 49.95 -12.7 49.15 L-12.45 48.8 -12.4 48.7 -12.8 48.65 Q-13.65 48.3 -13.2 47.5 L-12.8 46.65 -11.95 41.05 -11.3 38.7 Q-11.2 38.45 -10.95 38.5 M0.45 78.8 L0.4 78.8 0.45 78.8 M-3.35 84.35 Q-2.1 84.45 -2.35 85.8 L-2.65 87.4 Q-2.15 88.95 -3.55 89.75 L-4.1 89.8 Q-4.75 89.6 -4.7 88.85 -4.65 87.0 -3.9 85.35 L-3.75 84.75 -3.35 84.35 M-3.1 91.3 Q-2.95 90.6 -2.4 90.2 -1.15 90.35 -1.7 91.45 L-1.75 92.0 Q-1.65 92.65 -1.85 93.2 L-2.15 93.5 -2.6 93.5 Q-3.4 92.65 -3.1 91.3 M8.6 40.5 L8.55 40.6 8.55 40.9 8.35 41.1 Q7.25 41.05 7.65 40.15 L7.95 39.75 8.2 39.7 Q8.9 39.9 8.6 40.5 M8.35 45.35 L8.55 45.15 8.8 45.1 Q10.1 45.6 9.85 47.15 L9.55 48.25 9.3 48.5 8.85 48.5 Q8.25 47.85 8.3 46.85 L8.35 45.35 M5.9 50.45 L5.9 50.4 Q6.15 49.45 6.95 50.05 L7.0 50.1 7.0 50.25 7.0 50.3 7.35 48.95 7.5 48.65 7.6 48.25 7.85 48.0 8.15 48.05 Q8.75 48.8 8.5 49.85 L7.55 51.7 4.8 56.75 Q4.25 57.8 3.4 57.0 3.1 56.75 3.2 56.4 L3.65 55.1 Q4.85 54.25 5.15 52.8 L5.2 52.75 5.6 51.6 5.85 50.5 5.9 50.45" fill="#ff9900" fill-rule="evenodd" stroke="none"/>
    <path d="M-16.05 47.65 L-16.05 47.55 -15.95 47.55 -16.05 47.65 M-1.8 37.55 L-1.8 37.6 -2.3 37.0 -2.85 36.4 -3.2 35.95 -4.45 34.4 -4.5 34.35 -4.65 34.25 -5.15 33.95 -5.15 33.9 -5.2 33.8 Q-5.7 32.35 -5.5 30.85 L-4.05 33.3 Q-4.1 32.85 -3.8 32.65 L-3.8 32.6 -4.0 31.6 -4.1 31.3 Q-4.4 30.7 -4.8 30.25 L-5.2 29.85 -5.25 29.8 -4.95 29.45 -4.75 29.15 -4.65 29.1 -4.65 29.05 -4.4 29.05 -4.25 29.35 -4.2 29.45 -4.0 29.6 -3.75 30.15 -3.7 30.4 -3.15 31.7 -2.4 33.75 -2.0 35.25 -1.8 36.35 -1.8 37.55 M0.65 59.4 L0.05 58.6 0.0 58.55 -0.1 59.05 Q0.3 56.45 1.15 54.15 3.7 52.8 4.4 50.4 L4.45 50.1 4.7 49.0 4.75 48.6 5.2 45.3 5.45 45.25 5.95 44.75 6.05 44.55 Q6.55 45.25 6.3 46.4 L6.0 48.85 5.9 50.45 5.85 50.5 5.6 51.6 5.2 52.75 5.15 52.8 Q4.85 54.25 3.65 55.1 L3.4 55.25 Q2.05 56.05 2.15 57.7 2.25 59.05 1.35 59.9 L0.8 59.95 0.65 59.4 M0.05 96.9 L0.05 96.85 0.05 94.9 0.1 94.35 0.2 94.25 0.3 94.1 0.5 94.05 0.5 94.0 1.0 94.05 1.9 96.95 1.6 97.45 0.9 99.0 0.95 99.55 Q2.35 101.7 2.3 104.05 1.95 105.85 0.75 107.45 L0.35 107.75 0.25 107.9 0.0 108.15 -0.1 108.2 -0.6 108.2 -0.65 108.15 Q-0.5 105.1 0.7 102.1 L0.55 100.5 0.35 100.45 0.4 100.15 0.05 97.4 0.05 97.3 0.05 96.9 M-3.35 79.35 L-3.4 79.3 -3.3 79.25 -3.35 79.35" fill="#ff6600" fill-rule="evenodd" stroke="none"/>
    <path d="M5.35 36.05 L5.45 36.1 5.4 36.15 5.35 36.05" fill="#772600" fill-rule="evenodd" stroke="none"/>
    <path d="M-8.0 -4.85 L-7.55 -4.5 Q-6.9 -3.9 -6.0 -3.85 L-4.9 -3.75 Q-3.9 -4.45 -3.65 -5.7 -3.5 -6.35 -3.5 -7.05 L-3.2 -7.95 -2.95 -8.05 -3.25 -2.35 -3.4 -1.55 -3.45 -1.5 -3.85 -1.8 -5.15 -2.45 -5.65 -2.6 -5.85 -2.65 -6.3 -2.8 -6.3 -2.85 -6.65 -3.0 -7.9 -3.95 -8.4 -3.95 -8.0 -4.85" fill="#9999ff" fill-rule="evenodd" stroke="none"/>
    <path d="M15.4 42.2 L15.4 42.3 15.3 42.3 15.4 42.2 M-7.95 47.2 L-7.7 47.35 -7.95 47.75 -7.95 47.2 M8.3 59.9 L8.4 60.05 8.25 59.95 8.3 59.9 M2.05 78.9 L1.9 79.05 1.95 78.8 2.05 78.9" fill="#993300" fill-rule="evenodd" stroke="none"/>
  </g>
</svg>
