<?xml version="1.0" encoding="UTF-8" standalone="no"?>
<svg xmlns:xlink="http://www.w3.org/1999/xlink" height="172.4px" width="47.8px" xmlns="http://www.w3.org/2000/svg">
  <g transform="matrix(1.0, 0.0, 0.0, 1.0, 23.1, 9.1)">
    <path d="M6.75 -5.55 L5.85 -6.4 5.7 -6.55 4.85 -5.65 Q4.3 -5.95 4.65 -6.2 5.0 -6.45 4.85 -6.85 L3.75 -7.35 3.15 -7.4 3.1 -7.4 2.85 -7.05 2.6 -7.45 2.6 -7.5 0.4 -7.45 -0.2 -7.35 -1.1 -7.0 -2.0 -6.45 -2.25 -6.3 0.35 -3.85 0.55 -3.9 0.55 -3.85 0.6 -3.6 1.3 -2.7 1.2 -2.65 1.4 -2.55 2.05 -1.65 2.15 -1.85 Q1.8 -1.25 2.45 -0.7 L2.4 -0.7 2.55 -0.4 2.85 0.2 10.25 0.65 Q9.35 -2.8 6.75 -5.55 M6.25 -7.0 L7.1 -7.25 Q6.7 -6.7 7.15 -6.25 L8.0 -5.35 8.6 -5.5 Q8.3 -4.7 9.0 -3.85 L10.0 -2.2 Q10.7 -1.15 10.65 0.3 10.6 1.75 12.35 1.85 12.95 3.25 13.1 4.9 13.55 4.2 14.3 3.55 15.05 2.85 16.0 3.25 16.7 4.1 16.3 5.0 15.9 5.9 16.15 7.0 16.7 9.15 16.25 11.0 15.75 12.8 15.5 14.95 L14.95 15.7 Q18.3 17.7 19.15 21.55 20.4 21.7 21.25 22.75 22.05 23.75 23.45 23.35 24.35 23.8 24.7 24.75 24.3 26.5 24.2 28.2 19.55 33.15 12.8 34.5 13.2 37.45 10.75 39.1 8.35 40.75 8.3 43.65 L8.05 44.25 7.95 44.5 6.55 47.9 5.5 52.95 5.25 54.45 Q5.45 55.4 5.15 56.45 4.7 58.05 5.25 59.75 L5.4 60.35 Q5.7 61.8 5.3 63.25 4.9 64.75 4.9 66.2 L4.95 67.65 5.7 73.55 Q6.05 76.45 5.6 79.4 L5.3 80.65 5.35 82.4 5.2 84.55 Q5.0 87.5 4.4 90.35 L4.4 90.95 4.85 95.35 4.9 96.25 Q5.15 98.6 4.55 100.75 L4.55 100.8 4.4 106.75 Q4.3 109.75 4.5 112.7 4.65 115.65 4.4 118.6 4.2 121.55 4.25 124.55 L4.25 128.6 4.45 130.25 4.45 132.5 4.4 138.45 Q4.25 141.4 4.4 144.35 L4.55 145.15 5.1 147.45 7.1 150.2 7.55 150.65 Q8.55 151.45 8.9 152.6 9.1 153.1 8.6 153.35 7.95 153.65 7.4 153.1 L7.2 152.95 7.7 155.45 7.85 155.75 Q8.5 156.6 7.8 157.35 6.9 157.4 6.15 156.75 L6.0 157.4 5.8 157.55 5.15 157.5 5.0 158.1 4.35 160.4 3.95 162.2 3.8 162.35 3.55 163.15 3.35 163.3 2.95 163.15 2.6 162.0 Q2.35 161.7 2.25 161.2 L2.1 160.6 1.45 156.95 0.75 158.4 0.35 158.8 -0.05 158.8 Q-0.75 158.1 -0.3 157.0 L-0.1 156.15 -0.25 155.25 -0.45 155.35 -0.85 155.4 Q-1.45 155.15 -1.4 154.5 L-1.25 153.4 Q-2.1 154.0 -2.7 153.15 L-2.75 152.75 -2.25 151.75 -1.8 151.1 -0.2 148.35 -0.1 147.75 0.35 146.45 1.0 142.1 0.95 136.7 0.8 132.25 0.25 126.35 0.05 124.9 Q-0.35 122.0 -0.2 119.05 L0.1 116.85 Q0.55 114.7 0.45 112.45 L0.5 111.6 0.2 107.5 Q-0.05 104.55 0.1 101.55 L0.1 101.35 -0.65 95.7 Q-0.8 92.95 0.0 90.3 0.25 89.6 0.1 88.9 L-0.35 85.9 Q-0.5 84.1 -0.25 82.3 L-0.2 81.2 -0.35 76.85 -0.35 75.65 -0.15 73.5 -0.05 72.85 -0.7 71.55 -1.25 69.35 -1.3 67.2 -1.3 64.65 -1.6 63.2 Q-2.4 61.05 -2.15 58.8 L-2.1 57.35 Q-2.15 55.85 -1.65 54.5 L-1.75 52.15 -1.75 51.35 -1.8 51.25 Q-2.55 49.95 -2.7 48.45 -2.85 47.1 -3.25 45.85 L-4.05 45.45 Q-4.5 43.3 -6.1 41.55 L-9.45 38.25 Q-9.4 36.45 -10.05 34.65 -14.2 33.55 -18.0 31.0 -21.9 28.4 -23.1 24.1 -22.8 23.25 -22.1 22.8 -20.7 23.1 -19.85 22.15 -19.0 21.2 -17.7 21.55 L-16.3 18.4 Q-15.35 17.2 -13.95 16.6 -14.0 13.6 -15.9 11.2 -14.85 7.6 -15.45 4.0 -14.7 2.85 -13.5 3.5 L-11.55 5.3 Q-11.4 3.7 -10.4 2.75 -9.4 1.8 -9.75 -0.05 -9.6 -0.95 -8.95 -1.75 -8.25 -2.55 -9.1 -3.25 -8.55 -4.9 -7.1 -5.4 -5.65 -5.95 -4.5 -6.85 -3.45 -6.05 -3.05 -6.95 -2.65 -7.8 -1.8 -8.0 -0.95 -8.5 0.2 -8.35 1.3 -8.15 1.7 -9.1 1.7 -8.35 2.6 -8.2 2.6 -9.0 3.2 -9.1 L3.05 -8.35 4.35 -7.95 Q5.0 -7.8 5.15 -8.45 5.1 -7.65 6.25 -7.0 M20.4 23.95 L20.7 22.95 19.9 22.4 19.4 22.3 Q19.25 21.8 18.45 21.85 L18.25 22.0 Q17.2 19.55 14.95 17.75 15.3 19.3 14.8 20.7 L14.8 20.75 13.5 21.7 11.95 21.85 11.95 21.95 12.0 22.6 12.2 24.75 12.55 26.35 12.8 26.25 Q12.65 26.5 12.65 26.9 L12.75 27.2 12.75 28.05 12.9 30.0 12.85 29.7 Q12.65 30.0 12.8 30.5 L13.1 31.0 12.8 31.85 Q12.7 32.55 13.15 33.55 16.3 32.7 19.25 30.8 22.15 28.9 23.8 25.9 23.3 24.35 21.7 24.4 L21.35 24.9 21.35 24.95 21.65 24.45 Q21.7 23.7 20.7 23.7 L20.4 23.9 20.4 23.95 M8.5 5.75 L11.35 6.1 Q12.2 4.05 10.9 2.2 L7.7 1.7 6.1 1.7 Q3.55 1.8 1.55 0.5 0.35 -2.0 -1.55 -3.65 L-1.65 -3.7 -1.9 -3.95 -1.95 -3.95 -2.75 -4.55 -3.55 -5.0 -4.85 -5.65 Q-5.7 -5.05 -6.7 -4.65 L-7.6 -4.05 -7.85 -3.4 -7.4 -3.0 -5.45 -1.05 Q-4.4 0.2 -3.8 1.75 -4.4 2.45 -5.0 2.2 L-5.65 2.1 -6.05 2.05 -8.4 2.25 -8.7 2.3 -9.5 2.5 -9.55 2.6 -9.7 2.95 Q-10.55 4.65 -10.05 6.5 L-8.8 6.45 -7.1 6.4 -6.25 6.35 -3.25 6.4 Q-1.5 7.4 -1.4 9.7 -1.5 11.35 -1.1 12.95 -0.8 14.45 -1.2 15.8 L-1.25 16.05 -1.9 15.3 -1.95 15.35 -2.0 14.35 -2.0 14.3 -2.5 14.65 -2.55 14.7 -2.2 14.15 -2.15 14.0 -2.1 13.9 -2.2 14.0 Q-3.65 15.25 -5.3 15.65 L-5.95 15.7 -6.5 15.8 -8.7 15.55 -8.7 15.9 -8.9 15.8 -9.1 16.5 Q-9.15 17.3 -8.85 17.75 L-8.8 17.5 Q-8.95 18.35 -8.1 18.65 -7.45 18.9 -7.15 18.3 -6.55 18.9 -5.8 19.0 L-5.95 19.9 Q-4.05 18.3 -1.5 18.0 L-0.9 17.95 0.65 17.85 4.9 17.55 6.8 18.3 7.0 18.45 Q8.45 19.55 10.4 19.05 L10.5 19.0 10.6 19.05 10.8 18.65 Q11.3 17.85 11.3 16.9 L11.35 16.9 11.35 16.85 11.25 15.8 11.3 15.75 11.25 15.7 11.05 15.7 8.65 15.55 6.65 15.0 5.55 14.45 5.0 14.1 4.8 13.95 4.75 13.9 4.55 13.8 4.4 13.65 4.3 13.6 4.2 14.45 Q3.95 15.25 3.3 15.85 2.75 15.6 2.35 16.05 L1.4 16.3 -0.9 15.95 -1.1 15.85 Q-0.7 15.25 0.1 15.4 L0.15 15.4 Q0.8 15.05 1.6 15.05 2.5 15.05 3.1 14.55 3.1 11.3 3.85 8.2 L4.6 6.5 5.2 5.95 8.5 5.75 M15.25 8.5 L15.15 4.15 Q13.4 5.3 13.35 7.5 L14.4 7.15 13.95 8.65 13.95 8.85 13.95 8.9 13.65 11.7 13.2 14.05 Q12.3 15.35 12.35 16.95 12.35 18.5 11.25 19.8 11.65 21.25 13.35 21.0 14.5 20.3 14.0 18.9 13.5 17.5 13.95 16.2 15.2 14.05 15.4 11.85 L15.4 10.4 15.3 8.85 15.25 8.5 M10.3 10.9 L11.25 11.3 12.0 11.65 10.55 11.6 8.65 11.2 6.55 11.45 Q5.65 11.3 4.7 11.7 L4.45 11.8 Q4.85 13.35 6.55 14.05 L9.15 14.75 Q10.5 15.05 11.65 14.35 9.85 14.35 8.65 13.3 L10.25 13.6 Q11.05 13.95 12.0 13.6 12.6 12.2 12.3 10.6 L12.25 10.6 12.25 10.1 12.4 10.15 Q12.65 9.2 12.1 9.0 L11.9 8.35 11.7 8.0 11.8 8.2 11.25 6.7 5.55 7.05 5.25 8.5 5.15 8.7 5.1 8.8 Q4.7 9.6 4.75 10.4 L4.8 10.6 5.5 10.7 6.1 10.8 6.3 10.65 6.35 10.6 7.3 10.2 8.2 10.15 9.1 10.35 10.3 10.9 M4.25 21.6 L5.2 22.35 5.35 22.25 6.2 22.45 7.15 22.85 8.35 21.6 7.9 19.85 Q5.3 18.25 2.0 18.45 L-0.75 18.75 -2.1 18.85 Q-4.25 18.85 -5.65 20.4 L-5.55 20.7 -5.45 20.95 -4.75 22.95 -2.5 22.75 Q-1.5 22.7 -0.7 21.8 L1.2 21.5 4.1 21.6 4.35 21.65 4.25 21.6 M9.7 20.9 L9.7 21.3 Q8.9 22.75 7.65 23.4 L6.7 23.8 Q5.55 23.95 4.3 23.35 L2.45 22.35 1.85 22.05 0.6 21.95 Q0.05 22.1 -0.35 22.6 L-0.7 23.0 -2.35 24.0 -4.25 24.05 -5.65 23.65 Q-5.6 22.4 -6.25 21.5 L-6.35 21.4 Q-7.05 20.5 -6.8 19.45 L-6.75 19.2 -6.85 19.45 -8.05 23.05 Q-8.6 24.3 -7.95 25.5 -7.55 26.25 -7.5 27.1 L-7.6 28.05 Q-9.05 30.15 -8.8 32.85 L-8.55 37.95 Q-7.15 38.15 -6.65 39.25 L-5.35 41.25 -4.9 41.5 Q-4.05 42.0 -3.65 42.85 L-3.6 42.9 -3.6 43.0 -3.2 43.75 -2.55 44.75 -2.6 45.9 -2.6 45.95 -2.45 47.05 -1.6 50.05 -1.55 50.15 -1.1 51.45 -1.05 51.8 -0.8 52.75 -0.8 52.8 -0.7 53.0 -0.45 53.25 -0.65 53.25 -0.9 54.05 -1.1 54.9 -1.1 54.95 -1.15 55.05 -1.2 55.4 -1.25 55.55 -1.25 55.6 -1.25 55.75 -1.4 57.1 -1.45 57.65 -1.3 60.8 Q-0.1 63.45 -0.4 66.65 -0.7 69.35 0.3 71.7 L0.65 72.4 0.45 73.35 Q0.15 74.95 0.45 76.55 0.85 78.65 0.35 80.8 1.0 81.85 0.75 82.85 L0.35 85.0 Q1.35 87.9 0.7 90.9 0.05 93.9 0.2 96.7 L0.7 98.2 0.95 99.65 0.9 101.9 0.8 102.85 Q0.6 105.1 0.8 107.1 L1.1 109.5 Q1.2 111.45 0.85 113.3 L0.85 113.4 0.8 113.5 0.7 114.5 Q0.5 115.85 0.6 117.3 L0.7 118.65 0.85 119.55 0.8 121.2 0.8 121.4 0.8 122.95 0.85 123.6 0.9 123.95 1.0 124.85 1.05 125.2 1.05 125.45 1.1 126.05 1.1 126.6 1.1 126.95 1.1 128.1 1.1 129.7 1.1 130.65 1.05 132.55 1.05 132.8 1.05 133.45 1.15 135.4 1.25 136.35 1.3 136.95 1.35 137.35 1.5 138.7 1.5 138.85 1.6 140.65 1.65 141.6 1.65 141.85 1.4 143.65 1.35 144.2 1.3 144.45 1.3 144.8 1.35 145.35 1.35 145.4 1.35 145.75 1.15 146.6 1.15 146.7 0.6 147.65 0.55 147.7 0.2 148.5 0.1 148.75 -0.5 149.9 -0.55 149.9 -0.65 150.1 -0.65 150.15 -2.05 152.65 -1.1 152.3 -0.8 151.9 0.2 150.4 0.35 150.5 -0.4 152.2 -0.55 152.7 -0.85 154.9 -0.7 154.9 0.0 153.55 0.45 152.65 0.45 153.65 0.45 153.75 0.05 158.0 0.15 158.0 1.2 155.55 1.7 153.55 1.85 153.55 2.2 155.45 2.6 159.55 2.65 160.3 2.7 160.65 3.0 162.1 3.3 162.25 3.45 161.6 3.5 161.45 3.65 160.4 4.0 156.25 4.0 155.3 4.0 155.2 3.95 154.3 4.4 154.8 4.45 154.85 4.7 155.65 Q4.75 156.3 5.3 156.65 L5.5 156.7 5.35 156.35 5.25 155.65 Q5.2 155.3 5.3 155.05 6.2 156.35 7.55 157.05 7.3 155.3 6.5 153.65 L5.8 151.7 5.6 150.25 6.65 151.35 8.6 153.1 7.55 150.9 6.35 149.8 5.25 148.65 4.05 146.95 3.9 146.55 3.95 146.25 3.85 145.9 3.8 145.55 3.6 144.05 3.5 142.55 3.55 141.75 3.55 141.3 3.6 140.7 3.7 138.75 3.7 136.9 3.7 134.25 3.7 133.55 3.75 133.0 3.75 132.8 3.85 130.95 3.9 130.15 3.95 129.0 3.9 127.8 3.75 126.5 3.65 125.8 3.65 125.6 3.6 125.4 3.5 124.5 Q3.25 122.25 3.35 120.05 L3.2 119.9 Q2.85 118.65 3.65 117.65 4.3 110.0 3.85 102.35 L3.8 101.2 Q4.7 99.2 4.6 97.1 L4.3 95.35 4.05 94.2 3.85 90.4 3.85 90.1 3.95 89.4 Q3.75 87.25 4.4 85.05 4.75 83.5 4.4 82.1 L3.95 80.95 4.5 78.2 Q4.85 75.75 4.7 73.4 3.45 71.65 3.8 69.45 4.15 67.25 3.65 65.35 5.55 63.05 4.65 60.4 4.15 59.15 4.15 57.95 L4.15 57.7 4.35 55.95 4.55 55.35 4.75 54.55 4.4 54.2 4.4 54.15 4.6 53.05 4.7 52.6 4.85 51.15 5.15 50.15 5.25 49.85 6.05 47.75 6.35 46.5 6.5 45.6 6.6 44.65 7.0 44.4 Q7.1 43.15 7.65 42.1 8.2 40.9 9.3 40.0 11.15 38.4 11.55 36.2 L11.6 35.9 11.65 35.55 11.7 34.5 11.7 33.45 Q11.7 29.8 11.2 26.25 10.45 24.9 10.4 23.35 L10.4 23.2 10.4 23.05 10.1 21.35 9.7 20.35 9.7 20.9 M5.35 41.1 L4.65 42.0 4.6 41.65 4.35 39.3 Q2.65 36.45 4.2 33.9 5.65 31.3 5.6 28.3 5.85 27.0 6.8 26.2 L7.45 26.35 7.7 26.15 7.75 26.15 7.85 26.05 Q9.75 25.4 9.9 26.95 L9.95 27.5 10.35 29.65 10.3 29.8 10.0 30.4 Q9.5 31.6 9.9 32.8 L10.1 34.3 9.85 35.3 9.65 35.7 9.5 36.0 8.85 36.75 5.35 41.1 M9.1 30.85 Q9.35 30.25 9.15 29.45 8.7 28.1 8.65 26.8 6.35 26.85 6.4 28.7 L6.25 31.95 6.6 31.9 6.3 31.95 6.05 32.55 5.95 33.1 Q5.05 34.15 5.05 35.1 L9.15 34.35 Q9.35 33.0 8.75 32.8 L9.15 31.4 9.1 30.85 M8.95 35.4 L4.75 36.15 Q5.7 37.55 5.75 39.35 L8.95 35.4 M0.15 40.35 L-0.05 40.8 -0.55 41.45 -0.6 41.55 Q-1.65 42.2 -2.7 41.55 L-3.15 41.15 Q-4.3 40.05 -4.9 38.55 L-4.95 38.45 Q-5.45 37.2 -6.4 36.25 L-6.4 36.2 -6.85 35.8 Q-7.05 35.6 -7.3 35.45 L-7.4 35.35 -7.3 35.2 Q-6.5 33.0 -6.75 30.4 -6.95 28.85 -6.1 28.0 -5.45 27.25 -4.2 26.95 L-4.2 27.3 Q-3.35 26.85 -3.05 27.6 L-3.0 27.65 -2.95 27.75 -2.9 28.05 Q-2.65 29.35 -1.7 30.1 -1.65 32.05 -0.75 33.9 0.15 35.65 0.15 37.8 0.5 39.2 0.15 40.35 M0.1 139.6 L0.1 139.35 0.15 139.55 0.1 139.6 M-5.9 4.0 L-6.1 4.0 -5.95 3.95 -5.9 3.95 -5.9 4.0 M-8.45 1.35 L-5.75 1.1 Q-6.7 -0.5 -8.2 -1.8 -9.2 -0.4 -9.1 1.15 L-9.1 1.2 -9.1 1.4 -8.45 1.35 M-7.7 7.7 L-9.1 8.05 -9.2 8.1 -9.45 8.2 Q-10.65 9.5 -10.85 11.05 L-10.85 11.7 -10.85 12.1 -10.8 12.1 -10.85 12.3 -10.6 13.05 -10.85 13.15 -10.75 13.25 -10.5 13.45 -9.65 14.05 -9.45 14.25 -9.2 14.25 -6.45 14.8 Q-4.15 14.85 -2.7 13.25 L-3.3 13.4 -2.25 12.75 -2.15 12.7 -2.2 12.1 -2.1 11.9 -2.3 11.85 -3.95 11.65 -4.55 11.7 -6.1 11.4 -7.2 11.65 -9.4 11.85 -8.7 11.5 -6.5 10.55 -5.65 10.35 -5.6 10.35 -4.9 10.35 Q-4.2 10.45 -3.5 11.0 L-3.15 10.95 -2.4 10.8 -2.2 10.8 -2.2 10.6 -2.5 10.35 -3.2 8.35 -4.7 7.75 -5.25 7.65 -7.7 7.7 M-12.9 8.35 L-12.9 8.05 -11.1 9.3 -10.65 8.4 Q-10.65 6.85 -12.05 6.15 L-14.4 4.3 -14.55 4.95 Q-13.8 6.4 -14.25 7.95 L-14.6 9.0 -15.0 10.95 -14.55 11.6 -14.15 12.3 -14.1 12.3 Q-13.2 13.9 -12.75 15.8 -12.15 17.0 -12.25 18.8 -12.35 20.5 -10.9 20.6 -10.0 20.15 -9.4 19.2 L-9.9 18.6 Q-9.75 17.5 -10.35 16.7 -11.0 15.85 -10.65 14.85 L-11.85 13.5 -11.95 11.85 -12.2 11.05 -12.3 10.85 Q-12.8 9.6 -12.9 8.35 M-19.45 23.05 L-19.7 22.95 -20.05 23.0 Q-20.5 23.1 -20.55 23.55 L-20.65 23.5 Q-21.65 23.05 -22.3 24.15 -20.95 27.25 -18.1 29.85 -15.65 31.6 -13.0 32.9 L-10.95 33.75 -10.55 33.95 -10.15 34.1 -10.0 32.85 -10.05 32.8 -10.0 32.8 -9.65 32.3 -9.6 32.1 -9.6 31.5 Q-8.85 30.1 -9.05 29.15 L-9.0 29.0 -8.95 28.3 Q-9.0 27.8 -9.2 27.4 L-9.05 27.45 -9.2 27.2 Q-9.9 25.7 -9.4 24.1 L-8.5 20.7 -8.95 20.25 -10.1 21.3 Q-10.8 21.85 -11.75 21.6 -13.3 21.35 -13.25 20.25 L-13.45 18.0 Q-15.7 19.4 -16.55 21.85 -17.15 22.0 -17.35 22.75 L-17.4 22.7 Q-18.4 22.1 -19.45 23.05 M-3.2 30.55 L-3.25 30.3 -3.75 29.5 -3.85 28.05 -5.05 28.4 Q-5.6 28.5 -5.85 29.0 L-5.9 29.05 -6.05 29.4 -6.1 30.0 -5.95 30.6 -5.5 30.7 -5.95 30.6 Q-5.9 31.8 -6.1 32.85 L-6.1 33.8 -6.2 33.75 -6.45 35.1 -1.35 35.4 Q-1.5 34.55 -2.1 33.9 L-2.3 33.95 Q-2.3 33.5 -2.75 33.15 -2.95 32.6 -2.65 31.7 -2.45 30.95 -3.2 30.55 M-1.7 36.45 L-4.95 36.3 -5.15 36.45 Q-3.95 37.65 -3.15 39.0 -2.45 40.35 -1.05 41.25 -0.65 40.1 -0.65 38.8 -0.15 36.35 -1.7 36.45" fill="#000000" fill-rule="evenodd" stroke="none"/>
    <path d="M2.6 -7.45 L2.85 -7.05 3.1 -7.4 3.15 -7.4 3.75 -7.35 4.85 -6.85 Q5.0 -6.45 4.65 -6.2 4.3 -5.95 4.85 -5.65 L5.7 -6.55 5.85 -6.4 6.75 -5.55 6.9 -4.45 Q6.9 -3.55 6.35 -2.8 L5.6 -1.95 4.15 -1.85 4.05 -1.85 2.35 -2.05 Q1.8 -2.25 1.4 -2.55 L1.2 -2.65 1.3 -2.7 Q2.9 -3.3 4.55 -3.55 3.75 -4.4 2.55 -4.15 L0.55 -3.9 0.35 -3.85 -2.25 -6.3 -2.0 -6.45 -1.1 -7.0 -0.2 -7.35 0.4 -7.45 1.15 -7.55 2.6 -7.45 M2.55 -0.4 L2.4 -0.7 2.45 -0.7 3.9 -0.8 2.75 -0.45 2.55 -0.4 M-1.1 15.85 L-0.9 15.95 1.4 16.3 1.45 16.95 1.4 17.5 1.3 17.8 0.65 17.85 -0.9 17.95 -1.5 18.0 Q-4.05 18.3 -5.95 19.9 L-5.8 19.0 -5.5 17.35 Q-3.5 16.9 -1.95 15.35 L-1.9 15.3 -1.25 16.05 -1.2 15.8 -1.1 15.85 M15.25 8.5 L15.3 8.85 15.4 10.4 15.4 11.85 Q14.75 12.25 13.9 11.85 L13.65 11.7 13.95 8.9 13.95 8.85 14.3 8.45 14.35 8.35 15.25 8.5 M10.4 8.65 L10.75 9.05 Q11.15 9.55 11.1 10.15 L10.85 11.1 10.3 10.9 9.1 10.35 8.2 10.15 7.3 10.2 7.8 10.1 7.85 9.6 Q7.9 7.8 6.15 7.7 L6.7 7.55 7.35 7.5 Q9.05 7.5 10.2 8.5 L10.15 8.55 10.2 8.55 10.35 8.6 10.4 8.65 M10.55 11.6 L10.3 11.85 9.15 12.7 8.65 12.9 5.7 12.7 Q4.9 12.35 4.5 11.8 L4.7 11.7 Q5.65 11.3 6.55 11.45 L8.65 11.2 10.55 11.6 M-0.75 18.75 L-0.65 19.5 -0.85 20.1 -3.4 20.7 -3.35 20.75 -3.25 20.75 -3.1 20.85 -4.55 21.45 -5.2 21.6 -5.45 20.95 -5.55 20.7 -5.65 20.4 Q-4.25 18.85 -2.1 18.85 L-0.75 18.75 M-8.45 1.35 L-8.95 1.4 -9.1 1.2 -9.1 1.15 Q-9.2 -0.4 -8.2 -1.8 -6.7 -0.5 -5.75 1.1 L-8.45 1.35 M-7.7 7.7 L-5.25 7.65 Q-4.8 8.0 -4.5 8.65 -4.2 9.3 -4.2 10.0 L-4.25 10.55 -4.9 10.35 -5.6 10.35 -5.65 10.35 -6.5 10.55 -6.5 10.5 -6.3 9.5 Q-6.35 8.0 -7.7 7.7 M-7.2 11.65 L-6.1 11.4 -4.55 11.7 -4.95 12.5 -5.85 13.5 -8.1 13.65 -10.5 13.45 -10.75 13.25 -10.85 13.15 -10.6 13.05 -10.85 12.3 -10.8 12.1 -10.7 11.75 -10.85 11.7 -10.85 11.05 -10.6 11.65 -10.2 12.05 Q-8.4 12.9 -7.2 11.65 M-14.6 9.0 L-14.25 7.95 Q-13.8 6.4 -14.55 4.95 L-14.4 4.3 -12.05 6.15 Q-10.65 6.85 -10.65 8.4 L-11.1 9.3 -12.9 8.05 -12.9 8.35 -13.5 8.3 -13.9 8.6 -14.1 8.7 -14.6 9.0 M-11.95 11.85 L-11.85 13.5 -10.65 14.85 Q-11.0 15.85 -10.35 16.7 -9.75 17.5 -9.9 18.6 L-9.4 19.2 Q-10.0 20.15 -10.9 20.6 -12.35 20.5 -12.25 18.8 -12.15 17.0 -12.75 15.8 -13.2 13.9 -14.1 12.3 L-14.1 12.25 -14.0 12.1 -13.9 12.0 -13.85 11.95 -13.15 12.75 Q-12.6 13.1 -12.05 12.75 L-11.85 12.65 -11.95 11.85 M-7.75 12.55 L-7.8 12.55 -7.75 12.55" fill="#9999ff" fill-rule="evenodd" stroke="none"/>
    <path d="M0.15 15.4 L0.1 15.4 Q-0.7 15.25 -1.1 15.85 L-1.2 15.8 Q-0.8 14.45 -1.1 12.95 -1.5 11.35 -1.4 9.7 -1.5 7.4 -3.25 6.4 L-3.25 6.2 -2.95 5.8 -2.9 5.8 -2.65 5.75 Q-1.25 6.0 -0.8 7.45 L-0.55 8.25 Q0.45 11.05 0.35 14.05 L0.3 15.3 0.15 15.4 M-7.1 6.4 L-8.8 6.45 Q-9.65 5.4 -9.4 4.0 L-9.0 2.9 -9.25 3.45 -9.9 3.4 -9.7 2.95 -9.55 2.6 -9.5 2.5 -8.7 2.3 -8.65 2.45 -8.4 2.25 -6.05 2.05 -5.9 2.4 -5.85 2.3 -5.65 2.1 -5.0 2.2 Q-4.4 2.45 -3.8 1.75 -4.4 0.2 -5.45 -1.05 L-7.4 -3.0 -7.85 -3.4 -7.6 -4.05 Q-6.75 -4.05 -6.7 -3.55 L-4.65 -4.7 -3.55 -5.0 -2.75 -4.55 -1.95 -3.95 -3.85 -3.3 Q-4.55 -2.95 -4.4 -2.1 L-4.1 -1.5 -4.15 -1.5 Q-3.15 -0.25 -2.8 1.35 -2.55 2.6 -3.6 3.2 L-5.4 3.4 -5.85 3.15 -5.85 3.25 -6.55 3.1 -6.95 3.25 -7.15 3.25 -7.4 3.65 -7.8 4.8 Q-8.05 5.65 -7.75 6.4 L-7.1 6.4 M6.85 3.85 L4.2 4.15 1.6 4.0 1.15 3.25 6.85 3.5 6.85 3.85 M0.45 7.3 Q0.45 6.25 -0.05 5.5 L1.45 5.0 1.15 8.95 Q0.45 8.3 0.45 7.3 M-5.9 3.95 L-0.5 3.25 Q-1.15 5.05 -2.9 4.55 L-5.9 4.0 -5.9 3.95" fill="#cc9900" fill-rule="evenodd" stroke="none"/>
    <path d="M8.5 5.75 L5.2 5.95 4.6 6.5 3.85 8.2 Q3.1 11.3 3.1 14.55 2.5 15.05 1.6 15.05 0.8 15.05 0.15 15.4 L0.3 15.3 0.35 14.05 Q0.45 11.05 -0.55 8.25 L-0.8 7.45 Q-1.25 6.0 -2.65 5.75 L-2.9 5.8 -2.95 5.8 -3.25 6.2 -3.25 6.4 -6.25 6.35 -7.1 6.4 -7.75 6.4 Q-8.05 5.65 -7.8 4.8 L-7.4 3.65 -7.15 3.25 -6.95 3.25 -6.55 3.1 -5.85 3.25 -5.85 3.15 -5.4 3.4 -3.6 3.2 Q-2.55 2.6 -2.8 1.35 -3.15 -0.25 -4.15 -1.5 L-4.1 -1.5 -4.4 -2.1 Q-4.55 -2.95 -3.85 -3.3 L-1.95 -3.95 -1.9 -3.95 -1.65 -3.7 -1.55 -3.65 Q0.35 -2.0 1.55 0.5 3.55 1.8 6.1 1.7 L7.7 1.7 7.95 2.75 Q8.5 4.1 8.5 5.6 L8.5 5.75 M-8.8 6.45 L-10.05 6.5 Q-10.55 4.65 -9.7 2.95 L-9.9 3.4 -9.25 3.45 -9.0 2.9 -9.4 4.0 Q-9.65 5.4 -8.8 6.45 M-8.7 2.3 L-8.4 2.25 -8.65 2.45 -8.7 2.3 M-6.05 2.05 L-5.65 2.1 -5.85 2.3 -5.9 2.4 -6.05 2.05 M-7.6 -4.05 L-6.7 -4.65 Q-5.7 -5.05 -4.85 -5.65 L-3.55 -5.0 -4.65 -4.7 -6.7 -3.55 Q-6.75 -4.05 -7.6 -4.05 M6.85 3.85 L6.85 3.5 1.15 3.25 1.6 4.0 4.2 4.15 6.85 3.85 M0.45 7.3 Q0.45 8.3 1.15 8.95 L1.45 5.0 -0.05 5.5 Q0.45 6.25 0.45 7.3 M0.15 139.55 L0.25 139.9 0.1 139.8 0.1 139.6 0.15 139.55 M-5.9 4.0 L-2.9 4.55 Q-1.15 5.05 -0.5 3.25 L-5.9 3.95 -5.95 3.95 -6.1 4.0 -5.9 4.0" fill="#996600" fill-rule="evenodd" stroke="none"/>
    <path d="M6.75 -5.55 Q9.35 -2.8 10.25 0.65 L2.85 0.2 2.55 -0.4 2.75 -0.45 3.9 -0.8 7.35 -1.6 7.1 -1.9 5.6 -1.95 6.35 -2.8 Q6.9 -3.55 6.9 -4.45 L6.75 -5.55 M0.4 -7.45 L2.6 -7.5 2.6 -7.45 1.15 -7.55 0.4 -7.45 M1.4 16.3 L2.35 16.05 Q2.75 15.6 3.3 15.85 3.95 15.25 4.2 14.45 L4.8 15.0 4.95 15.1 5.6 15.55 Q5.35 15.8 5.55 16.15 6.15 16.85 7.15 17.15 8.1 17.4 8.05 18.55 L6.8 18.3 4.9 17.55 0.65 17.85 1.3 17.8 1.4 17.5 1.45 16.95 1.4 16.3 M8.65 15.55 L11.05 15.7 10.5 15.75 10.15 15.75 8.65 15.55 M11.35 16.85 L11.35 16.9 11.3 16.9 Q8.4 17.2 6.05 15.8 L6.45 16.0 6.6 16.05 6.7 16.1 7.15 16.3 Q9.15 17.1 11.35 16.85 M10.8 18.65 L10.6 19.05 10.5 19.0 9.5 18.0 Q10.55 17.7 10.75 18.45 L10.8 18.65 M-7.15 18.3 Q-7.45 18.9 -8.1 18.65 -8.95 18.35 -8.8 17.5 L-8.8 17.35 -7.05 17.8 -7.15 18.3 M10.3 10.9 L10.85 11.1 11.1 10.15 Q11.15 9.55 10.75 9.05 L10.4 8.65 11.8 8.9 12.1 9.0 Q12.65 9.2 12.4 10.15 L12.25 10.1 12.15 10.05 12.25 10.55 12.25 10.6 12.3 10.6 Q12.6 12.2 12.0 13.6 11.05 13.95 10.25 13.6 L8.65 13.3 Q9.85 14.35 11.65 14.35 10.5 15.05 9.15 14.75 L6.55 14.05 Q4.85 13.35 4.45 11.8 L4.5 11.8 Q4.9 12.35 5.7 12.7 L8.65 12.9 9.15 12.7 10.3 11.85 10.55 11.6 12.0 11.65 11.25 11.3 10.3 10.9 M10.2 8.5 Q9.05 7.5 7.35 7.5 L6.7 7.55 6.15 7.7 Q5.75 7.85 5.4 8.1 L5.25 8.5 5.55 7.05 11.25 6.7 11.8 8.2 11.0 8.3 Q10.5 8.15 10.2 8.5 M4.25 21.6 L5.0 21.55 Q5.5 21.8 5.65 21.15 L5.3 20.85 6.7 20.7 Q5.5 19.95 4.1 20.05 L1.15 20.1 -0.85 20.1 -0.65 19.5 -0.75 18.75 2.0 18.45 Q5.3 18.25 7.9 19.85 L8.35 21.6 7.15 22.85 6.2 22.45 6.15 22.4 Q5.75 22.15 5.35 22.25 L5.2 22.35 4.25 21.6 M-3.25 20.75 Q-2.65 21.0 -2.05 21.4 L-0.5 21.6 -0.7 21.8 Q-1.5 22.7 -2.5 22.75 L-4.75 22.95 -5.45 20.95 -5.2 21.6 -4.55 21.45 -3.1 20.85 -3.25 20.75 M-9.1 1.2 L-8.95 1.4 -8.45 1.35 -9.1 1.4 -9.1 1.2 M-5.25 7.65 L-4.7 7.75 -3.2 8.35 -2.5 10.35 -2.2 10.6 -2.2 10.8 -2.4 10.8 -3.15 10.95 -3.5 11.0 Q-4.2 10.45 -4.9 10.35 L-4.25 10.55 -4.2 10.0 Q-4.2 9.3 -4.5 8.65 -4.8 8.0 -5.25 7.65 M-4.55 11.7 L-3.95 11.65 -2.3 11.85 -2.1 11.9 -2.2 12.1 -2.3 12.25 -2.35 12.4 -2.6 12.5 Q-2.9 12.9 -3.55 13.0 -4.45 13.1 -5.15 13.6 L-3.3 13.4 -2.7 13.25 Q-4.15 14.85 -6.45 14.8 L-9.2 14.25 -9.65 14.05 -10.5 13.45 -8.1 13.65 -5.85 13.5 -4.95 12.5 -4.55 11.7" fill="#6666ff" fill-rule="evenodd" stroke="none"/>
    <path d="M2.45 -0.7 Q1.8 -1.25 2.15 -1.85 L2.05 -1.65 1.4 -2.55 Q1.8 -2.25 2.35 -2.05 L4.05 -1.85 4.15 -1.85 5.6 -1.95 7.1 -1.9 7.35 -1.6 3.9 -0.8 2.45 -0.7 M1.3 -2.7 L0.6 -3.6 0.55 -3.85 0.55 -3.9 2.55 -4.15 Q3.75 -4.4 4.55 -3.55 2.9 -3.3 1.3 -2.7 M11.25 15.7 L11.3 15.75 11.25 15.8 11.25 15.7 M11.3 16.9 Q11.3 17.85 10.8 18.65 L10.75 18.45 Q10.55 17.7 9.5 18.0 L10.5 19.0 10.4 19.05 Q8.45 19.55 7.0 18.45 L6.8 18.3 8.05 18.55 Q8.1 17.4 7.15 17.15 6.15 16.85 5.55 16.15 5.35 15.8 5.6 15.55 L5.65 15.55 6.05 15.8 Q8.4 17.2 11.3 16.9 M-5.8 19.0 Q-6.55 18.9 -7.15 18.3 L-7.05 17.8 -8.8 17.35 -8.8 17.5 -8.85 17.75 Q-9.15 17.3 -9.1 16.5 L-8.9 15.8 -8.7 15.9 -8.9 16.15 Q-8.75 16.9 -8.0 16.85 L-6.65 16.8 -5.75 16.65 Q-3.65 16.25 -2.55 14.7 L-2.5 14.65 -2.0 14.3 -2.0 14.35 -1.95 15.35 Q-3.5 16.9 -5.5 17.35 L-5.8 19.0 M-6.5 15.8 L-5.95 15.7 -5.3 15.65 -6.2 15.75 -6.5 15.8 M13.95 8.85 L13.95 8.65 14.4 7.15 13.35 7.5 Q13.4 5.3 15.15 4.15 L15.25 8.5 14.35 8.35 14.3 8.45 13.95 8.85 M15.4 11.85 Q15.2 14.05 13.95 16.2 13.5 17.5 14.0 18.9 14.5 20.3 13.35 21.0 11.65 21.25 11.25 19.8 12.35 18.5 12.35 16.95 12.3 15.35 13.2 14.05 L13.65 11.7 13.9 11.85 Q14.75 12.25 15.4 11.85 M12.25 10.55 L12.15 10.05 12.25 10.1 12.25 10.6 12.25 10.55 M12.1 9.0 L11.8 8.9 10.4 8.65 10.35 8.6 10.2 8.55 10.15 8.55 10.2 8.5 Q10.5 8.15 11.0 8.3 L11.8 8.2 11.7 8.0 11.9 8.35 12.1 9.0 M-0.85 20.1 L1.15 20.1 4.1 20.05 Q5.5 19.95 6.7 20.7 L5.3 20.85 5.65 21.15 Q5.5 21.8 5.0 21.55 L4.25 21.6 4.35 21.65 4.1 21.6 1.2 21.5 -0.7 21.8 -0.5 21.6 -2.05 21.4 Q-2.65 21.0 -3.25 20.75 L-3.35 20.75 -3.4 20.7 -0.85 20.1 M5.35 22.25 Q5.75 22.15 6.15 22.4 L6.2 22.45 5.35 22.25 M-2.2 12.1 L-2.15 12.7 -2.25 12.75 -3.3 13.4 -5.15 13.6 Q-4.45 13.1 -3.55 13.0 -2.9 12.9 -2.6 12.5 L-2.35 12.4 -2.3 12.25 -2.2 12.1 M-9.2 14.25 L-9.45 14.25 -9.65 14.05 -9.2 14.25" fill="#6633cc" fill-rule="evenodd" stroke="none"/>
    <path d="M19.9 22.4 L20.7 22.95 20.4 23.95 Q19.55 25.95 17.5 27.2 L12.9 30.0 12.75 28.05 Q14.1 28.35 15.1 27.15 L17.05 25.8 17.5 25.45 Q19.35 24.35 19.9 22.4 M21.35 24.9 L21.7 24.4 Q23.3 24.35 23.8 25.9 22.15 28.9 19.25 30.8 16.3 32.7 13.15 33.55 12.7 32.55 12.8 31.85 L13.35 31.8 15.15 31.05 16.75 30.0 20.1 27.0 Q20.7 26.45 20.9 25.75 L20.95 25.65 21.35 24.9 M12.8 26.25 L12.55 26.35 12.2 24.75 Q14.3 24.35 15.4 22.4 L15.55 21.6 Q15.4 20.85 14.8 20.7 15.3 19.3 14.95 17.75 17.2 19.55 18.25 22.0 L18.3 22.15 Q16.3 25.3 12.8 26.25 M6.6 31.9 L6.25 31.95 6.4 28.7 Q6.35 26.85 8.65 26.8 8.7 28.1 9.15 29.45 9.35 30.25 9.1 30.85 L8.35 31.65 6.6 31.9 M8.75 32.8 Q9.35 33.0 9.15 34.35 L5.05 35.1 Q5.05 34.15 5.95 33.1 L6.0 33.05 8.2 32.75 8.75 32.8 M-19.45 23.05 L-19.5 23.1 -19.15 23.4 Q-18.25 26.55 -15.5 28.65 L-14.25 29.55 -14.5 29.6 -15.0 29.9 -15.0 30.1 -14.8 30.25 -14.8 30.3 -14.75 30.4 -15.5 29.9 Q-18.15 28.1 -19.6 25.2 -19.65 24.0 -20.55 23.55 -20.5 23.1 -20.05 23.0 L-19.7 22.95 -19.45 23.05 M-13.85 29.75 L-10.95 29.95 Q-9.8 29.95 -9.65 28.9 L-9.55 28.55 -9.6 28.8 -9.0 29.0 -9.05 29.15 Q-8.85 30.1 -9.6 31.5 L-9.6 32.1 -9.6 31.55 -10.2 31.3 -13.85 29.75 M-13.7 26.3 L-15.9 24.45 Q-16.4 23.35 -17.35 22.75 -17.15 22.0 -16.55 21.85 L-16.6 21.9 -13.85 24.35 Q-11.95 24.6 -10.7 23.0 -10.15 22.2 -10.1 21.3 L-8.95 20.25 -8.5 20.7 -9.4 24.1 Q-9.9 25.7 -9.2 27.2 -9.75 26.9 -10.3 26.7 L-10.3 26.65 -10.3 26.7 -10.95 26.4 -11.0 26.4 -13.25 25.6 -13.4 25.65 -13.45 25.65 -13.75 26.1 -13.7 26.3 M-10.0 32.8 L-10.05 32.8 -10.0 32.85 -10.15 34.1 -10.55 33.95 -10.95 33.75 -13.0 32.9 -12.35 32.35 -12.2 32.2 -12.4 31.8 -10.7 32.4 -10.65 32.45 -10.0 32.8 M-5.5 30.7 L-4.3 30.7 -4.2 30.7 -3.4 30.45 -3.2 30.55 Q-2.45 30.95 -2.65 31.7 -2.95 32.6 -2.75 33.15 L-6.1 32.85 Q-5.9 31.8 -5.95 30.6 L-5.5 30.7 M-3.75 29.5 L-3.75 29.7 -6.0 29.25 -5.9 29.05 -5.85 29.0 Q-5.6 28.5 -5.05 28.4 L-3.85 28.05 -3.75 29.5 M-2.3 33.95 L-2.1 33.9 Q-1.5 34.55 -1.35 35.4 L-6.45 35.1 -6.2 33.75 -6.1 33.8 -2.3 33.95" fill="#990000" fill-rule="evenodd" stroke="none"/>
    <path d="M20.4 23.95 L20.4 23.9 20.7 23.7 Q21.7 23.7 21.65 24.45 L21.35 24.95 20.75 25.65 18.6 27.65 18.1 28.05 Q16.5 29.15 14.3 30.1 13.45 30.4 13.1 31.0 L12.8 30.5 Q12.65 30.0 12.85 29.7 L12.9 30.0 17.5 27.2 Q19.55 25.95 20.4 23.95 M12.75 27.2 L12.65 26.9 Q12.65 26.5 12.8 26.25 16.3 25.3 18.3 22.15 L18.25 22.0 18.45 21.85 Q19.25 21.8 19.4 22.3 L19.3 22.3 19.2 22.3 Q17.0 26.1 12.75 27.15 L12.75 27.2 M9.1 30.85 L9.15 31.4 8.75 32.8 8.2 32.75 6.0 33.05 5.95 33.1 6.05 32.55 6.3 31.95 6.6 31.9 8.35 31.65 9.1 30.85 M-14.75 30.4 L-14.8 30.3 -14.8 30.25 -15.0 30.1 -15.0 29.9 -14.5 29.6 -14.25 29.55 -14.1 29.7 -13.85 29.75 -10.2 31.3 -9.6 31.55 -9.6 32.1 -9.65 32.3 -10.0 32.8 -10.65 32.45 -10.7 32.4 -12.4 31.8 -14.75 30.4 M-9.55 28.55 L-9.5 28.3 Q-9.95 27.85 -10.7 27.6 L-10.85 27.55 -13.05 26.65 -13.5 26.4 -13.65 26.3 -13.7 26.3 -13.75 26.1 -13.45 25.65 -13.4 25.65 -13.25 25.6 -11.0 26.4 -10.95 26.4 -10.3 26.7 Q-9.75 26.9 -9.2 27.2 L-9.05 27.45 -9.2 27.4 Q-9.0 27.8 -8.95 28.3 L-9.0 29.0 -9.6 28.8 -9.55 28.55 M-3.2 30.55 L-3.4 30.45 -4.2 30.7 -4.3 30.7 -5.5 30.7 -5.95 30.6 -6.1 30.0 -6.05 29.4 -5.9 29.05 -6.0 29.25 -3.75 29.7 -3.75 29.5 -3.25 30.3 -3.2 30.55 M-6.1 32.85 L-2.75 33.15 Q-2.3 33.5 -2.3 33.95 L-6.1 33.8 -6.1 32.85 M-10.3 26.7 L-10.4 26.75 -10.75 26.55 -9.8 27.1 -10.25 26.8 -10.3 26.7" fill="#660000" fill-rule="evenodd" stroke="none"/>
    <path d="M7.7 1.7 L10.9 2.2 Q12.2 4.05 11.35 6.1 L8.5 5.75 8.5 5.6 Q8.5 4.1 7.95 2.75 L7.7 1.7" fill="#663333" fill-rule="evenodd" stroke="none"/>
    <path d="M4.5 11.8 L4.45 11.8 4.7 11.7 4.5 11.8 M12.25 10.6 L12.25 10.55 12.25 10.6 M4.3 147.9 L4.3 148.0 4.2 147.95 4.3 147.9 M4.1 147.35 L4.15 147.3 4.15 147.25 4.2 147.3 4.1 147.35 M-10.8 12.1 L-10.85 12.1 -10.85 11.7 -10.7 11.75 -10.8 12.1 M-9.6 11.9 L-9.7 11.9 -9.7 11.95 -9.8 11.8 -9.6 11.9 -9.45 11.9 -9.45 11.95 -9.6 11.9" fill="#ffffff" fill-rule="evenodd" stroke="none"/>
    <path d="M6.15 7.7 Q7.9 7.8 7.85 9.6 L7.8 10.1 7.3 10.2 6.35 10.6 6.3 10.65 6.1 10.8 5.5 10.7 4.8 10.6 4.75 10.4 Q4.7 9.6 5.1 8.8 L5.15 8.7 5.25 8.5 5.4 8.1 Q5.75 7.85 6.15 7.7 M-10.85 11.05 Q-10.65 9.5 -9.45 8.2 L-9.2 8.1 -9.1 8.05 -7.7 7.7 Q-6.35 8.0 -6.3 9.5 L-6.5 10.5 -6.5 10.55 -8.7 11.5 -9.4 11.85 -7.2 11.65 Q-8.4 12.9 -10.2 12.05 L-10.6 11.65 -10.85 11.05 M-9.6 11.9 L-9.45 11.95 -9.45 11.9 -9.6 11.9 -9.8 11.8 -9.7 11.95 -9.7 11.9 -9.6 11.9 M-12.9 8.35 Q-12.8 9.6 -12.3 10.85 L-12.2 11.05 -11.95 11.85 -11.85 12.65 -12.05 12.75 Q-12.6 13.1 -13.15 12.75 L-13.85 11.95 -13.9 12.0 -14.0 12.1 -14.1 12.25 -14.1 12.3 -14.15 12.3 -14.55 11.6 -15.0 10.95 -14.6 9.0 -14.1 8.7 -13.9 8.6 -13.5 8.3 -12.9 8.35" fill="#99ccff" fill-rule="evenodd" stroke="none"/>
    <path d="M6.65 15.0 L8.65 15.55 10.15 15.75 10.5 15.75 11.05 15.7 11.25 15.7 11.25 15.8 11.35 16.85 Q9.15 17.1 7.15 16.3 L6.7 16.1 6.75 15.6 6.95 15.4 7.3 15.25 6.65 15.0 M-5.3 15.65 Q-3.65 15.25 -2.2 14.0 L-2.15 14.0 -2.2 14.15 -2.55 14.7 Q-3.65 16.25 -5.75 16.65 L-6.3 15.85 -6.2 15.75 -5.3 15.65" fill="#9966cc" fill-rule="evenodd" stroke="none"/>
    <path d="M4.2 14.45 L4.3 13.6 4.4 13.65 4.55 13.8 4.75 13.9 4.8 13.95 5.0 14.1 5.55 14.45 6.65 15.0 7.3 15.25 6.95 15.4 6.75 15.6 6.7 16.1 6.6 16.05 6.45 16.0 6.05 15.8 5.65 15.55 5.6 15.55 4.95 15.1 4.8 15.0 4.2 14.45 M-8.7 15.9 L-8.7 15.55 -6.5 15.8 -6.2 15.75 -6.3 15.85 -5.75 16.65 -6.65 16.8 -8.0 16.85 Q-8.75 16.9 -8.9 16.15 L-8.7 15.9" fill="#cc66ff" fill-rule="evenodd" stroke="none"/>
    <path d="M-2.2 14.0 L-2.1 13.9 -2.15 14.0 -2.2 14.0 M5.6 15.55 L5.65 15.55 5.6 15.55" fill="#cc66cc" fill-rule="evenodd" stroke="none"/>
    <path d="M0.6 21.95 Q1.1 22.4 1.05 23.3 L1.0 23.65 -0.1 29.0 Q-0.45 30.35 0.0 31.65 L1.1 35.25 1.35 36.35 1.55 37.4 1.6 37.8 1.65 38.75 1.65 39.15 1.6 39.35 1.05 43.3 0.85 43.25 0.6 43.05 0.15 41.15 0.1 40.5 0.15 40.35 Q0.5 39.2 0.15 37.8 0.15 35.65 -0.75 33.9 -1.65 32.05 -1.7 30.1 -2.65 29.35 -2.9 28.05 L-2.95 27.75 -3.0 27.65 -3.05 27.6 -2.95 27.5 Q-2.75 25.85 -1.5 24.9 -0.75 24.25 -0.7 23.35 L-0.7 23.0 -0.35 22.6 Q0.05 22.1 0.6 21.95 M2.0 69.15 L1.8 69.8 Q1.45 71.65 2.1 73.4 L2.75 74.9 Q2.25 74.9 1.75 74.45 L1.55 74.2 1.25 74.1 1.85 78.7 2.1 80.55 Q2.25 82.0 1.8 83.4 L1.8 83.65 Q2.45 87.3 1.85 90.95 L1.3 94.1 1.25 94.4 Q2.15 94.9 2.0 96.15 L1.9 98.0 2.1 105.35 1.75 112.75 1.55 113.45 1.65 113.25 2.0 113.5 2.1 113.6 2.7 113.65 2.9 116.45 2.85 117.1 2.65 118.0 2.45 118.05 1.65 118.05 Q1.0 117.8 0.6 117.3 0.5 115.85 0.7 114.5 L0.8 113.5 0.85 113.4 0.85 113.3 Q1.2 111.45 1.1 109.5 L0.8 107.1 Q0.6 105.1 0.8 102.85 L0.9 101.9 0.95 99.65 0.7 98.2 0.2 96.7 Q0.05 93.9 0.7 90.9 1.35 87.9 0.35 85.0 L0.75 82.85 Q1.0 81.85 0.35 80.8 0.85 78.65 0.45 76.55 0.15 74.95 0.45 73.35 L0.65 72.4 0.3 71.7 Q-0.7 69.35 -0.4 66.65 -0.1 63.45 -1.3 60.8 L-1.45 57.65 -1.4 57.1 -1.15 55.9 -1.25 55.75 -1.25 55.6 -1.25 55.55 -1.2 55.4 -1.15 55.05 -1.1 54.95 -1.1 54.9 -0.9 54.05 -0.65 53.25 -0.45 53.25 -0.7 53.0 -0.8 52.8 -0.8 52.75 -1.05 51.8 -1.1 51.45 -1.55 50.15 -1.6 50.05 -2.45 47.05 -2.6 45.95 -2.6 45.9 -2.55 45.05 -2.55 44.75 -3.2 43.75 -3.6 43.0 -3.6 42.9 Q-1.85 44.1 -1.05 46.25 L-0.9 46.65 -1.4 49.7 -1.5 50.05 -1.45 49.95 Q-0.6 50.85 0.05 52.0 L0.95 54.0 1.05 55.0 1.0 55.05 0.7 55.65 0.5 56.65 0.35 57.4 0.25 58.75 0.4 61.05 Q1.05 64.7 1.1 68.4 L1.1 68.5 1.3 68.4 2.2 68.55 2.0 69.15 M2.2 121.1 L2.35 123.95 Q1.5 124.2 0.85 123.6 L0.8 122.95 0.8 121.4 0.8 121.2 Q1.1 120.9 1.7 120.9 L2.2 121.1 M2.45 124.7 L2.45 124.9 2.75 128.3 2.5 128.45 1.45 128.4 1.1 128.1 1.1 126.95 1.1 126.6 1.1 126.05 1.05 125.45 1.05 125.2 1.0 124.85 Q1.25 124.6 1.6 124.65 L2.45 124.7 M2.75 139.05 L2.8 141.3 2.75 142.95 Q2.6 143.8 2.6 144.6 1.7 144.9 1.35 144.2 L1.4 143.65 1.65 141.85 1.65 141.6 1.6 140.65 1.5 138.85 1.65 138.75 1.7 138.75 2.75 139.05 M2.65 160.3 L2.7 160.6 2.7 160.65 2.65 160.3 M10.1 21.35 L9.9 20.8 Q9.75 20.8 9.7 20.9 L9.7 20.35 10.1 21.35 M-5.15 40.6 L-4.9 41.5 -5.35 41.25 -6.65 39.25 Q-7.15 38.15 -8.55 37.95 L-8.8 32.85 Q-9.05 30.15 -7.6 28.05 L-7.5 27.1 Q-7.55 26.25 -7.95 25.5 -8.6 24.3 -8.05 23.05 L-6.85 19.45 -6.8 19.45 Q-7.05 20.5 -6.35 21.4 L-6.25 21.5 Q-6.85 22.75 -7.0 24.1 L-7.1 24.35 Q-6.95 25.6 -7.15 26.85 L-7.35 26.95 -6.9 26.7 -6.9 27.1 Q-7.1 28.9 -7.6 30.7 -8.2 33.05 -8.1 35.45 L-8.0 36.65 -7.05 37.4 Q-6.15 38.25 -5.6 39.4 L-5.35 40.05 -5.15 40.6 M1.2 155.55 L0.15 158.0 0.05 158.0 0.45 153.75 0.45 153.65 0.45 152.65 0.0 153.55 -0.7 154.9 -0.85 154.9 -0.55 152.7 -0.4 152.2 0.35 150.5 0.2 150.4 -0.8 151.9 -1.1 152.3 -2.05 152.65 -0.65 150.15 -0.65 150.1 -0.55 149.9 -0.5 149.9 0.1 148.75 0.2 148.5 0.55 147.7 0.6 147.65 1.15 146.7 1.45 146.75 1.5 146.85 Q2.0 148.25 1.25 149.65 L1.1 150.3 Q1.0 152.95 1.2 155.55" fill="#cccccc" fill-rule="evenodd" stroke="none"/>
    <path d="M1.05 23.3 L1.6 23.4 2.45 23.35 Q2.75 24.3 4.0 24.7 L4.35 24.75 4.6 24.75 4.55 24.8 Q4.45 25.15 4.65 25.45 L5.4 26.2 Q3.9 27.9 3.75 30.25 3.6 32.05 2.9 33.7 2.65 34.25 2.55 34.85 L2.5 35.1 1.65 34.9 1.2 35.15 1.1 35.25 0.0 31.65 Q-0.45 30.35 -0.1 29.0 L1.0 23.65 1.05 23.3 M1.65 38.75 Q2.35 39.3 2.8 38.5 L3.75 40.95 3.85 41.45 3.9 41.8 3.85 41.9 4.25 42.65 Q4.8 43.95 4.65 45.35 L4.65 45.55 4.1 45.1 3.75 44.75 2.95 44.2 2.85 44.25 2.6 44.0 Q2.3 43.65 1.8 43.75 L1.5 43.5 Q1.25 43.35 1.05 43.3 L1.6 39.35 1.65 39.15 1.65 38.75 M2.9 54.55 L3.65 54.7 3.75 54.7 3.85 54.65 4.0 54.65 3.55 56.15 3.35 56.45 2.9 56.65 3.05 57.4 3.0 59.15 Q2.7 60.8 2.85 62.45 3.1 64.7 2.95 66.95 L2.65 67.85 2.0 69.15 2.2 68.55 1.3 68.4 1.1 68.5 1.1 68.4 Q1.05 64.7 0.4 61.05 L0.25 58.75 0.35 57.4 0.5 56.65 0.7 55.65 1.0 55.05 1.05 55.0 Q2.2 55.1 2.4 53.7 L2.5 53.7 2.5 53.75 Q2.55 54.3 2.9 54.55 M2.75 74.9 L2.8 75.1 Q3.4 76.6 3.25 78.15 L3.2 78.45 Q2.4 80.75 2.6 83.3 L2.75 86.05 2.75 92.35 2.8 93.65 Q2.9 94.5 3.4 94.7 L3.1 96.75 3.05 97.3 3.15 104.65 Q3.2 106.9 2.9 109.15 2.6 111.4 2.7 113.65 L2.1 113.6 2.0 113.5 1.65 113.25 1.55 113.45 1.75 112.75 2.1 105.35 1.9 98.0 2.0 96.15 Q2.15 94.9 1.25 94.4 L1.3 94.1 1.85 90.95 Q2.45 87.3 1.8 83.65 L1.8 83.4 Q2.25 82.0 2.1 80.55 L1.85 78.7 1.25 74.1 1.55 74.2 1.75 74.45 Q2.25 74.9 2.75 74.9 M2.65 118.0 Q2.25 119.5 2.2 121.1 L1.7 120.9 Q1.1 120.9 0.8 121.2 L0.85 119.55 0.7 118.65 0.6 117.3 Q1.0 117.8 1.65 118.05 L2.45 118.05 2.65 118.0 M2.35 123.95 L2.4 124.45 2.45 124.7 1.6 124.65 Q1.25 124.6 1.0 124.85 L0.9 123.95 0.85 123.6 Q1.5 124.2 2.35 123.95 M2.75 128.3 L2.75 129.9 2.7 131.0 Q2.6 131.8 2.75 132.5 2.4 133.3 2.55 134.25 L2.45 134.55 Q2.15 135.6 2.6 136.5 L2.75 138.85 2.75 139.05 1.7 138.75 1.65 138.75 1.5 138.85 1.5 138.7 1.35 137.35 1.3 136.95 1.25 136.35 1.15 135.4 1.05 133.45 1.05 132.8 1.05 132.55 1.1 130.65 1.1 129.7 1.1 128.1 1.45 128.4 2.5 128.45 2.75 128.3 M2.6 144.6 Q2.5 147.4 3.7 150.05 3.1 150.3 3.0 150.9 2.75 152.15 2.9 153.45 L3.1 155.5 3.1 155.25 Q2.9 155.05 2.55 155.0 L2.5 155.0 2.3 155.2 2.2 155.3 2.2 155.45 1.85 153.55 1.7 153.55 1.2 155.55 Q1.0 152.95 1.1 150.3 L1.25 149.65 Q2.0 148.25 1.5 146.85 L1.45 146.75 1.15 146.7 1.15 146.6 1.35 145.75 1.35 145.4 1.35 145.35 1.3 144.8 1.3 144.45 1.35 144.2 Q1.7 144.9 2.6 144.6 M11.55 36.2 L10.7 36.75 9.85 37.5 9.35 38.0 7.65 39.5 7.05 40.05 6.65 40.55 6.6 41.25 6.05 42.05 Q5.2 42.45 4.9 41.7 L5.35 41.1 8.85 36.75 9.5 36.0 9.65 35.7 9.85 35.3 10.1 34.3 10.1 33.85 10.8 33.4 11.7 33.45 11.7 34.5 11.65 35.55 11.6 35.9 11.55 36.2 M9.95 27.5 L10.3 27.35 Q10.95 27.3 11.35 27.6 L11.6 30.0 11.45 30.05 Q11.1 30.95 10.2 30.5 L10.0 30.4 10.3 29.8 10.35 29.65 9.95 27.5 M-3.15 41.15 L-3.45 41.4 Q-4.25 41.8 -4.95 41.2 L-5.0 41.15 -5.15 40.6 -5.35 40.05 -5.6 39.4 -5.25 38.65 -5.0 38.55 -4.9 38.55 Q-4.3 40.05 -3.15 41.15 M-6.1 28.0 Q-6.95 28.85 -6.75 30.4 -6.5 33.0 -7.3 35.2 L-7.4 35.35 -7.3 35.45 Q-7.05 35.6 -6.85 35.8 L-6.4 36.2 -6.4 36.25 Q-6.35 36.85 -6.8 37.35 L-7.05 37.4 -8.0 36.65 -8.1 35.45 Q-8.2 33.05 -7.6 30.7 -7.1 28.9 -6.9 27.1 L-6.9 26.7 -7.35 26.95 -7.15 26.85 Q-6.95 25.6 -7.1 24.35 L-7.0 24.1 Q-6.85 22.75 -6.25 21.5 -5.6 22.4 -5.65 23.65 L-4.25 24.05 -4.75 24.9 -4.9 25.4 -5.05 26.2 -6.35 26.5 -6.65 26.6 Q-5.9 26.85 -6.1 27.85 L-6.1 28.0 M-1.4 57.1 L-1.25 55.75 -1.15 55.9 -1.4 57.1 M-6.8 19.45 L-6.85 19.45 -6.75 19.2 -6.8 19.45" fill="#999999" fill-rule="evenodd" stroke="none"/>
    <path d="M0.6 21.95 L1.85 22.05 2.45 22.35 4.3 23.35 Q5.55 23.95 6.7 23.8 L7.65 23.4 Q8.9 22.75 9.7 21.3 L9.7 20.9 Q9.75 20.8 9.9 20.8 L10.1 21.35 10.4 23.05 10.4 23.2 10.4 23.35 Q10.45 24.9 11.2 26.25 11.7 29.8 11.7 33.45 L11.7 34.5 11.7 33.45 10.8 33.4 10.1 33.85 10.1 34.3 9.9 32.8 Q9.5 31.6 10.0 30.4 L10.2 30.5 Q11.1 30.95 11.45 30.05 L11.6 30.0 11.35 27.6 Q10.95 27.3 10.3 27.35 L9.95 27.5 9.9 26.95 Q9.75 25.4 7.85 26.05 L7.75 26.15 7.7 26.15 7.45 26.35 6.8 26.2 Q5.85 27.0 5.6 28.3 5.65 31.3 4.2 33.9 2.65 36.45 4.35 39.3 L4.6 41.65 4.65 42.0 5.35 41.1 4.9 41.7 Q5.2 42.45 6.05 42.05 L6.6 41.25 6.65 40.55 7.05 40.05 7.65 39.5 9.35 38.0 9.85 37.5 10.7 36.75 11.55 36.2 Q11.15 38.4 9.3 40.0 8.2 40.9 7.65 42.1 7.1 43.15 7.0 44.4 L6.6 44.65 6.5 45.6 6.35 46.5 6.05 47.75 5.25 49.85 5.15 50.15 4.85 51.15 4.7 52.6 4.6 53.05 4.4 54.15 4.4 54.2 4.75 54.55 4.55 55.35 4.35 55.95 4.15 57.7 4.15 57.95 Q4.15 59.15 4.65 60.4 5.55 63.05 3.65 65.35 4.15 67.25 3.8 69.45 3.45 71.65 4.7 73.4 4.85 75.75 4.5 78.2 L3.95 80.95 4.4 82.1 Q4.75 83.5 4.4 85.05 3.75 87.25 3.95 89.4 L3.85 90.1 3.85 90.4 4.05 94.2 4.3 95.35 4.6 97.1 Q4.7 99.2 3.8 101.2 L3.85 102.35 Q4.3 110.0 3.65 117.65 2.85 118.65 3.2 119.9 L3.35 120.05 Q3.25 122.25 3.5 124.5 L3.6 125.4 3.65 125.6 3.65 125.8 3.75 126.5 3.9 127.8 3.95 129.0 3.9 130.15 3.85 130.95 3.75 132.8 3.75 133.0 3.7 133.55 3.7 134.25 3.7 136.9 3.7 138.75 3.6 140.7 3.55 141.3 3.55 141.75 3.5 142.55 3.6 144.05 3.8 145.55 3.85 145.9 3.95 146.25 3.9 146.55 4.05 146.95 5.25 148.65 6.35 149.8 7.55 150.9 8.6 153.1 6.65 151.35 5.6 150.25 5.8 151.7 6.5 153.65 Q7.3 155.3 7.55 157.05 6.2 156.35 5.3 155.05 5.2 155.3 5.25 155.65 L5.35 156.35 5.5 156.7 5.3 156.65 Q4.75 156.3 4.7 155.65 L4.45 154.85 4.4 154.8 3.95 154.3 4.0 155.2 4.0 155.3 4.0 156.25 3.65 160.4 3.5 161.45 3.45 161.6 3.3 162.25 3.0 162.1 2.7 160.65 2.7 160.6 2.65 160.3 2.6 159.55 2.2 155.45 2.2 155.3 2.3 155.2 2.5 155.0 2.55 155.0 Q2.9 155.05 3.1 155.25 L3.1 155.5 2.9 153.45 Q2.75 152.15 3.0 150.9 3.1 150.3 3.7 150.05 2.5 147.4 2.6 144.6 2.6 143.8 2.75 142.95 L2.8 141.3 2.75 139.05 2.75 138.85 2.6 136.5 Q2.15 135.6 2.45 134.55 L2.55 134.25 Q2.4 133.3 2.75 132.5 2.6 131.8 2.7 131.0 L2.75 129.9 2.75 128.3 2.45 124.9 2.45 124.7 2.4 124.45 2.35 123.95 2.2 121.1 Q2.25 119.5 2.65 118.0 L2.85 117.1 2.9 116.45 2.7 113.65 Q2.6 111.4 2.9 109.15 3.2 106.9 3.15 104.65 L3.05 97.3 3.1 96.75 3.4 94.7 Q2.9 94.5 2.8 93.65 L2.75 92.35 2.75 86.05 2.6 83.3 Q2.4 80.75 3.2 78.45 L3.25 78.15 Q3.4 76.6 2.8 75.1 L2.75 74.9 2.1 73.4 Q1.45 71.65 1.8 69.8 L2.0 69.15 2.65 67.85 2.95 66.95 Q3.1 64.7 2.85 62.45 2.7 60.8 3.0 59.15 L3.05 57.4 2.9 56.65 3.35 56.45 3.55 56.15 4.0 54.65 3.85 54.65 3.75 54.7 3.65 54.7 2.9 54.55 2.9 54.5 3.3 53.0 4.15 50.35 4.55 47.95 4.7 45.6 4.65 45.55 4.65 45.35 Q4.8 43.95 4.25 42.65 L3.85 41.9 3.9 41.8 3.85 41.45 3.75 40.95 2.8 38.5 Q2.35 39.3 1.65 38.75 L1.6 37.8 1.55 37.4 1.35 36.35 1.1 35.25 1.2 35.15 1.65 34.9 2.5 35.1 2.55 34.85 Q2.65 34.25 2.9 33.7 3.6 32.05 3.75 30.25 3.9 27.9 5.4 26.2 L4.65 25.45 Q4.45 25.15 4.55 24.8 L4.6 24.75 4.35 24.75 4.0 24.7 Q2.75 24.3 2.45 23.35 L1.6 23.4 1.05 23.3 Q1.1 22.4 0.6 21.95 M0.15 40.35 L0.1 40.5 0.15 41.15 0.6 43.05 0.85 43.25 Q0.25 43.15 -0.2 43.85 L-0.3 43.85 -0.55 43.8 -0.9 43.5 -0.85 43.9 -0.9 46.65 -1.05 46.25 Q-1.85 44.1 -3.6 42.9 L-3.65 42.85 Q-4.05 42.0 -4.9 41.5 L-5.15 40.6 -5.0 41.15 -4.95 41.2 Q-4.25 41.8 -3.45 41.4 L-3.15 41.15 -2.7 41.55 Q-1.65 42.2 -0.6 41.55 L-0.55 41.45 -0.05 40.8 0.15 40.35 M-3.05 27.6 Q-3.35 26.85 -4.2 27.3 L-4.2 26.95 Q-5.45 27.25 -6.1 28.0 L-6.1 27.85 Q-5.9 26.85 -6.65 26.6 L-6.35 26.5 -5.05 26.2 -4.9 25.4 -4.75 24.9 -4.25 24.05 -2.35 24.0 -0.7 23.0 -0.7 23.35 Q-0.75 24.25 -1.5 24.9 -2.75 25.85 -2.95 27.5 L-3.05 27.6 M-6.4 36.25 Q-5.45 37.2 -4.95 38.45 L-4.9 38.55 -5.0 38.55 -5.25 38.65 -5.6 39.4 Q-6.15 38.25 -7.05 37.4 L-6.8 37.35 Q-6.35 36.85 -6.4 36.25 M4.1 147.35 L4.2 147.3 4.15 147.25 4.15 147.3 4.1 147.35 M4.3 147.9 L4.2 147.95 4.3 148.0 4.3 147.9" fill="#666666" fill-rule="evenodd" stroke="none"/>
    <path d="M21.35 24.95 L21.35 24.9 20.95 25.65 20.9 25.75 Q20.7 26.45 20.1 27.0 L16.75 30.0 15.15 31.05 13.35 31.8 12.8 31.85 13.1 31.0 Q13.45 30.4 14.3 30.1 16.5 29.15 18.1 28.05 L18.6 27.65 20.75 25.65 21.35 24.95 M12.75 28.05 L12.75 27.2 12.75 27.15 Q17.0 26.1 19.2 22.3 L19.3 22.3 19.4 22.3 19.9 22.4 Q19.35 24.35 17.5 25.45 L17.05 25.8 15.1 27.15 Q14.1 28.35 12.75 28.05 M12.2 24.75 L12.0 22.6 11.95 21.95 11.95 21.85 13.5 21.7 14.8 20.75 14.8 20.7 Q15.4 20.85 15.55 21.6 L15.4 22.4 Q14.3 24.35 12.2 24.75 M-14.25 29.55 L-15.5 28.65 Q-18.25 26.55 -19.15 23.4 L-19.5 23.1 -19.45 23.05 Q-18.4 22.1 -17.4 22.7 L-17.35 22.75 Q-16.4 23.35 -15.9 24.45 L-13.7 26.3 -13.65 26.3 -13.5 26.4 -13.05 26.65 -10.85 27.55 -10.7 27.6 Q-9.95 27.85 -9.5 28.3 L-9.55 28.55 -9.65 28.9 Q-9.8 29.95 -10.95 29.95 L-13.85 29.75 -14.1 29.7 -14.25 29.55 M-20.55 23.55 Q-19.65 24.0 -19.6 25.2 -18.15 28.1 -15.5 29.9 L-14.75 30.4 -12.4 31.8 -12.2 32.2 -12.35 32.35 -13.0 32.9 Q-15.65 31.6 -18.1 29.85 -20.95 27.25 -22.3 24.15 -21.65 23.05 -20.65 23.5 L-20.55 23.55 M-10.1 21.3 Q-10.15 22.2 -10.7 23.0 -11.95 24.6 -13.85 24.35 L-16.6 21.9 -16.55 21.85 Q-15.7 19.4 -13.45 18.0 L-13.25 20.25 Q-13.3 21.35 -11.75 21.6 -10.8 21.85 -10.1 21.3 M-10.3 26.7 L-10.25 26.8 -9.8 27.1 -10.75 26.55 -10.4 26.75 -10.3 26.7 -10.3 26.65 -10.3 26.7" fill="#cc6600" fill-rule="evenodd" stroke="none"/>
    <path d="M4.65 45.55 L4.7 45.6 4.55 47.95 4.15 50.35 3.3 53.0 2.9 54.5 2.9 54.55 Q2.55 54.3 2.5 53.75 L2.5 53.7 2.4 53.7 Q2.2 55.1 1.05 55.0 L0.95 54.0 0.05 52.0 Q-0.6 50.85 -1.45 49.95 L-1.5 50.05 -1.4 49.7 -0.9 46.65 -0.85 43.9 -0.9 43.5 -0.55 43.8 -0.3 43.85 -0.2 43.85 Q0.25 43.15 0.85 43.25 L1.05 43.3 Q1.25 43.35 1.5 43.5 L1.8 43.75 Q2.3 43.65 2.6 44.0 L2.85 44.25 2.95 44.2 3.75 44.75 4.1 45.1 4.65 45.55 M-2.6 45.9 L-2.55 44.75 -2.55 45.05 -2.6 45.9" fill="#9c9a9c" fill-rule="evenodd" stroke="none"/>
  </g>
</svg>
