<?xml version="1.0" encoding="UTF-8" standalone="no"?>
<svg xmlns:xlink="http://www.w3.org/1999/xlink" height="101.5px" width="39.0px" xmlns="http://www.w3.org/2000/svg">
  <g transform="matrix(1.0, 0.0, 0.0, 1.0, 27.7, 13.8)">
    <path d="M-15.7 12.8 L-15.35 11.8 Q-13.85 7.75 -12.05 4.1 -11.1 2.1 -9.45 0.65 -7.75 -0.8 -7.35 -3.1 -3.5 -8.75 2.5 -12.55 L2.6 -12.55 Q3.35 -11.75 4.85 -11.8 L5.3 -11.5 6.5 -10.3 Q7.4 -8.85 7.6 -7.15 7.3 -6.7 7.15 -6.1 L7.1 -5.75 6.8 -3.75 6.7 -3.65 Q5.85 -2.55 5.45 -1.2 L4.8 -0.3 Q3.85 1.75 1.7 2.6 L1.65 0.65 Q1.55 -0.3 1.05 -1.05 L1.0 -1.55 Q0.95 -2.75 -0.35 -2.65 L-1.05 -1.95 -0.75 -2.8 Q-0.4 -3.5 -0.5 -4.3 -0.65 -5.6 -2.05 -5.5 L-2.7 -5.0 -2.75 -5.05 Q-3.5 -5.1 -4.1 -4.5 -5.55 -3.0 -6.05 -1.15 L-5.95 -1.2 -6.1 -0.75 -6.1 -0.6 -6.15 -0.65 -6.2 -0.05 -6.2 0.0 -6.3 0.35 -6.3 0.8 -6.25 1.85 -6.1 2.25 Q-5.7 4.15 -4.3 4.7 L-4.2 4.85 Q-3.7 5.75 -2.8 6.25 -1.2 7.05 -0.45 8.75 0.05 9.8 -0.15 10.95 L-0.5 12.45 -0.75 13.45 -0.8 13.85 -0.65 13.45 -1.2 15.2 Q-1.65 16.85 -2.5 18.3 -3.15 20.75 -4.55 23.0 L-5.2 24.2 -5.25 24.3 -5.45 24.55 -5.65 24.75 -7.3 25.4 -10.15 25.45 -10.75 25.3 -12.45 24.45 -13.3 23.8 -13.9 23.2 -14.7 22.0 -14.8 21.45 -15.0 21.25 -15.6 20.65 -15.2 21.05 -15.55 19.65 -16.0 17.55 Q-16.25 16.05 -15.85 14.6 -15.6 13.7 -15.7 12.8 M1.2 -5.15 Q0.55 -4.6 0.65 -3.85 1.3 -3.4 1.7 -4.15 2.25 -5.1 1.35 -5.3 L1.2 -5.15 M0.85 -9.1 L0.15 -8.75 -0.2 -8.55 -0.8 -7.95 Q-1.25 -7.5 -0.8 -6.95 -0.5 -6.6 -0.05 -6.8 L1.3 -7.4 1.8 -8.1 Q2.1 -9.25 0.85 -9.1 M-14.1 68.8 L-13.05 68.1 -11.8 67.35 -11.7 67.8 -11.5 68.8 -11.45 69.05 -11.25 71.25 -10.9 69.9 -10.1 72.85 Q-9.75 73.9 -8.65 73.5 L-8.35 73.1 Q-8.1 71.65 -8.75 70.2 L-8.85 69.75 Q-8.8 68.6 -9.35 68.0 -9.5 67.0 -9.05 66.15 L-8.35 66.7 -8.5 66.85 -9.05 66.25 -8.4 68.25 -8.65 67.55 Q-8.65 68.3 -8.15 68.95 L-8.1 69.0 -6.55 72.3 -6.35 72.35 -6.1 71.7 -5.75 71.9 Q-4.65 72.55 -4.15 71.5 -4.05 71.2 -4.2 71.0 L-5.8 68.65 -5.75 68.55 Q-5.1 67.7 -5.85 66.95 L-6.1 65.75 -6.05 65.1 -5.6 64.35 -3.3 63.9 -3.2 63.95 -1.5 64.9 Q0.7 66.2 3.05 67.25 L3.8 67.95 4.5 68.3 4.9 69.15 5.35 70.05 6.8 72.15 6.65 74.2 6.9 74.85 Q6.6 73.75 5.7 73.0 5.4 72.1 4.7 71.8 L3.55 71.1 Q3.2 71.4 2.7 71.4 L2.5 71.1 2.2 70.65 Q1.45 70.55 0.9 70.1 L0.85 70.1 0.75 70.1 Q0.1 70.45 0.1 71.15 L0.05 71.35 Q-0.25 70.85 -0.8 70.5 L-0.95 70.55 Q-1.5 70.8 -1.55 71.4 L-1.5 73.75 -1.45 73.75 -1.15 74.45 -1.25 75.0 -1.75 76.05 -2.0 76.0 -1.8 75.55 Q-1.65 74.85 -1.9 74.25 L-2.05 74.2 -2.25 74.25 -2.45 74.35 -2.9 74.55 -3.0 74.7 -3.05 75.0 -3.05 74.6 -3.35 74.8 -4.95 75.05 -4.75 74.7 Q-4.0 74.3 -3.15 74.05 -3.5 72.95 -4.7 73.05 -5.2 73.25 -5.65 73.6 -7.05 74.65 -6.75 76.25 L-6.7 76.3 -7.45 77.1 -7.75 77.05 -7.75 77.1 -8.1 77.4 -8.5 76.95 -8.2 77.8 -8.15 78.0 -8.2 78.3 -8.3 78.25 Q-9.0 78.05 -9.6 78.55 -10.35 79.05 -11.0 79.05 -10.95 78.5 -10.35 78.3 L-9.2 77.75 -8.9 77.8 Q-8.75 77.45 -9.1 77.3 L-10.25 77.4 -9.85 77.15 Q-10.6 77.45 -11.25 78.1 L-11.65 78.35 -11.85 78.4 -12.0 78.3 -11.6 77.2 -10.2 76.5 -10.15 76.5 -10.05 75.95 Q-9.95 74.5 -11.55 74.55 -12.15 74.75 -12.55 75.1 -12.45 73.1 -13.35 71.2 -13.9 70.0 -14.1 68.8 M4.25 83.3 L2.6 82.85 1.65 82.75 1.6 82.75 1.5 82.75 Q0.45 82.85 -0.4 82.35 L-0.4 82.3 0.0 82.2 0.55 82.0 1.45 81.4 1.65 81.4 Q2.15 81.55 1.95 82.0 L1.9 82.1 2.05 82.0 Q2.4 81.75 2.35 81.35 L2.45 81.35 2.55 81.75 2.7 81.55 2.75 81.5 2.85 81.4 3.0 81.35 3.1 81.3 3.1 81.35 3.1 81.8 3.0 82.2 4.25 83.3 M-1.25 81.25 L-1.35 81.3 -3.65 77.8 -2.8 77.75 Q-2.15 77.65 -1.6 77.2 L-0.8 76.35 -0.5 77.1 1.0 79.8 1.8 80.9 Q0.15 80.6 -1.25 81.25 M-5.2 86.0 L-7.75 85.25 Q-8.25 84.85 -8.9 84.7 L-9.25 84.55 -9.2 84.55 -9.1 84.5 -7.45 84.0 -7.3 83.9 -5.2 86.0 M-9.85 83.55 L-10.3 83.75 -10.65 80.9 -11.6 79.6 -11.55 79.55 Q-9.95 80.7 -8.5 79.7 -8.55 81.45 -7.8 83.15 -8.4 83.0 -9.1 83.15 L-9.85 83.55 M-6.4 9.3 L-6.25 9.7 Q-5.75 10.35 -5.05 9.9 L-4.3 9.15 -3.75 7.85 Q-3.45 6.75 -4.4 6.4 L-4.6 6.45 Q-6.25 7.4 -6.4 9.3 M-7.9 5.55 Q-7.95 3.85 -9.55 3.85 -10.05 4.0 -10.5 4.3 L-11.4 5.25 -12.7 7.45 Q-14.3 10.45 -14.85 13.75 L-14.95 14.9 -14.95 14.85 -14.95 15.0 -15.05 15.55 Q-15.25 16.3 -14.95 17.0 L-15.1 17.05 -14.95 17.75 -14.8 17.95 -14.75 18.4 -14.45 18.7 -13.6 19.05 -12.9 16.7 -12.0 14.2 -11.25 12.7 Q-11.35 12.15 -11.05 11.75 L-10.7 11.6 -9.45 9.25 -8.15 6.75 -7.95 6.4 -7.9 5.55 M-8.5 16.7 Q-8.75 16.3 -9.15 16.55 -9.9 17.2 -9.7 17.9 -9.05 18.0 -8.65 17.45 -8.3 17.1 -8.5 16.7 M-9.4 44.3 L-9.6 44.25 -12.6 44.6 -16.4 46.1 Q-18.25 46.85 -19.6 48.55 L-20.3 46.55 -20.45 45.0 -20.45 44.95 -19.25 43.85 Q-19.45 45.1 -18.6 45.8 -17.7 45.95 -17.7 45.0 L-17.6 43.9 Q-17.45 43.2 -17.7 42.75 -14.45 41.0 -10.65 41.15 L-10.5 41.5 -9.95 42.65 Q-9.6 43.45 -9.4 44.3 M-9.25 76.8 L-9.3 76.85 -9.25 76.85 -9.25 76.8" fill="#67820b" fill-rule="evenodd" stroke="none"/>
    <path d="M-1.05 -1.95 L-0.35 -2.65 Q0.95 -2.75 1.0 -1.55 L1.05 -1.05 Q1.55 -0.3 1.65 0.65 L1.7 2.6 1.7 2.7 -1.45 2.45 -1.4 0.65 -1.3 -0.7 -1.2 -1.3 -1.05 -1.95 M0.85 -9.1 Q2.1 -9.25 1.8 -8.1 L1.3 -7.4 -0.05 -6.8 Q-0.5 -6.6 -0.8 -6.95 -1.25 -7.5 -0.8 -7.95 L-0.2 -8.55 0.15 -8.75 0.85 -9.1 M1.2 -5.15 L1.35 -5.3 Q2.25 -5.1 1.7 -4.15 1.3 -3.4 0.65 -3.85 0.55 -4.6 1.2 -5.15 M-11.45 69.05 L-11.45 68.9 -11.45 67.4 -11.1 68.15 Q-10.8 69.0 -10.9 69.9 L-11.25 71.25 -11.45 69.05 M-8.5 66.85 Q-7.05 68.55 -6.1 70.7 L-6.1 70.75 -6.05 71.1 -6.1 71.7 -6.35 72.35 -6.55 72.3 -8.1 69.0 -8.4 68.25 -9.05 66.25 -8.5 66.85 M-0.75 82.05 L-0.85 81.95 -1.25 81.5 -1.25 81.25 Q0.15 80.6 1.8 80.9 L2.05 80.95 2.1 80.95 2.3 81.1 2.3 81.15 2.35 81.2 2.35 81.35 Q2.4 81.75 2.05 82.0 L1.9 82.1 1.95 82.0 Q2.15 81.55 1.65 81.4 L1.45 81.4 0.55 82.0 0.0 82.2 -0.4 82.3 -0.75 82.05 M-9.4 84.4 L-9.45 84.3 -9.5 84.25 -9.95 83.95 -9.95 83.65 -9.85 83.55 -9.1 83.15 Q-8.4 83.0 -7.8 83.15 L-6.45 83.9 -6.8 84.2 Q-7.05 84.0 -7.3 83.9 L-7.45 84.0 -9.1 84.5 -9.2 84.55 -9.4 84.4 M-11.95 79.05 L-12.4 78.1 -12.45 78.05 -12.5 77.9 -12.5 77.85 -12.7 77.4 -12.85 77.2 Q-13.1 76.65 -12.7 76.4 L-12.65 76.25 -12.55 75.1 Q-12.15 74.75 -11.55 74.55 -9.95 74.5 -10.05 75.95 L-10.15 76.5 -10.2 76.5 -11.6 77.2 -12.0 78.3 -12.0 78.4 -11.95 79.05 M-7.9 5.55 L-7.95 6.4 -8.15 6.75 -9.45 9.25 -10.7 11.6 -11.05 11.75 Q-11.35 12.15 -11.25 12.7 L-12.0 14.2 -12.9 16.7 -13.6 19.05 -14.45 18.7 -14.75 18.4 -14.8 17.95 -14.95 17.75 -15.1 17.05 -14.95 17.0 Q-15.25 16.3 -15.05 15.55 L-14.95 15.0 -14.95 14.85 -14.95 14.9 -14.85 13.75 Q-14.3 10.45 -12.7 7.45 L-11.4 5.25 -10.5 4.3 Q-10.05 4.0 -9.55 3.85 -7.95 3.85 -7.9 5.55 M-6.4 9.3 Q-6.25 7.4 -4.6 6.45 L-4.4 6.4 Q-3.45 6.75 -3.75 7.85 L-4.3 9.15 -5.05 9.9 Q-5.75 10.35 -6.25 9.7 L-6.4 9.3 M-8.5 16.7 Q-8.3 17.1 -8.65 17.45 -9.05 18.0 -9.7 17.9 -9.9 17.2 -9.15 16.55 -8.75 16.3 -8.5 16.7 M-17.7 42.75 Q-17.45 43.2 -17.6 43.9 L-17.7 45.0 Q-17.7 45.95 -18.6 45.8 -19.45 45.1 -19.25 43.85 L-19.25 43.65 -18.8 42.45 -18.6 42.25 -18.25 42.25 -18.25 42.2 Q-17.85 42.4 -17.7 42.75 M-3.05 75.0 L-3.1 75.1 Q-4.1 75.15 -4.55 75.95 L-4.65 76.15 -6.05 75.95 -6.7 76.3 -6.75 76.25 Q-7.05 74.65 -5.65 73.6 -5.2 73.25 -4.7 73.05 -3.5 72.95 -3.15 74.05 -4.0 74.3 -4.75 74.7 L-4.95 75.05 -3.35 74.8 -3.05 74.6 -3.05 75.0" fill="#81a20d" fill-rule="evenodd" stroke="none"/>
    <path d="M-15.7 12.8 Q-15.6 13.7 -15.85 14.6 -16.25 16.05 -16.0 17.55 L-15.55 19.65 -15.2 21.05 -15.6 20.65 -15.0 21.25 -14.8 21.45 -14.7 22.0 -13.9 23.2 -13.3 23.8 -12.45 24.45 -10.75 25.3 -10.15 25.45 -7.3 25.4 -5.65 24.75 -5.45 24.55 -5.25 24.3 -5.2 24.2 -4.55 23.0 Q-3.15 20.75 -2.5 18.3 -1.65 16.85 -1.2 15.2 L-0.65 13.45 -0.8 13.85 -0.75 13.45 -0.5 12.45 -0.15 10.95 Q0.05 9.8 -0.45 8.75 -1.2 7.05 -2.8 6.25 -3.7 5.75 -4.2 4.85 L-4.3 4.7 Q-5.7 4.15 -6.1 2.25 L-6.25 1.85 -6.3 0.8 -6.3 0.35 -6.2 0.0 -6.2 -0.05 -6.15 -0.65 -6.1 -0.6 -6.1 -0.75 -5.95 -1.2 -6.05 -1.15 Q-5.55 -3.0 -4.1 -4.5 -3.5 -5.1 -2.75 -5.05 L-2.7 -5.0 -2.05 -5.5 Q-0.65 -5.6 -0.5 -4.3 -0.4 -3.5 -0.75 -2.8 L-1.05 -1.95 -1.2 -1.3 -1.3 -0.7 -1.4 0.65 -1.45 2.45 1.7 2.7 1.7 2.6 Q3.85 1.75 4.8 -0.3 L5.45 -1.2 Q5.85 -2.55 6.7 -3.65 L6.8 -3.75 7.1 -5.75 7.15 -6.1 Q7.3 -6.7 7.6 -7.15 7.4 -8.85 6.5 -10.3 L5.3 -11.5 4.85 -11.8 Q3.35 -11.75 2.6 -12.55 4.6 -13.25 6.45 -12.25 8.35 -11.3 9.4 -9.45 10.35 -7.1 10.1 -4.5 L9.25 0.8 7.4 6.8 Q6.4 9.3 4.45 11.25 L4.1 11.6 3.9 11.8 Q2.7 16.15 0.1 19.75 L-4.1 25.3 -4.15 25.45 Q-4.35 26.6 -5.15 27.45 L-5.15 27.5 -4.35 27.2 Q-4.05 28.0 -4.15 28.85 L-4.25 28.9 -4.2 29.0 -4.3 29.35 -4.45 29.7 -4.5 29.85 -4.55 29.9 Q-6.7 30.95 -9.0 30.45 L-13.45 29.0 Q-15.5 27.45 -16.55 25.15 L-16.65 24.7 -16.8 24.45 Q-17.75 22.05 -17.3 19.65 L-17.15 18.6 Q-16.7 15.7 -15.7 12.8 M0.4 63.8 Q1.85 64.7 3.55 65.4 L8.2 71.0 8.35 71.85 8.4 73.55 Q8.35 74.5 7.8 75.3 L7.35 75.85 6.9 76.7 7.0 76.15 7.0 76.0 6.9 74.85 6.65 74.2 6.8 72.15 5.35 70.05 4.9 69.15 4.5 68.3 3.8 67.95 3.05 67.25 Q0.7 66.2 -1.5 64.9 L-3.2 63.95 -3.3 63.9 -5.6 64.35 -6.05 65.1 -6.1 65.75 -5.85 66.95 Q-5.1 67.7 -5.75 68.55 L-5.8 68.65 -4.2 71.0 Q-4.05 71.2 -4.15 71.5 -4.65 72.55 -5.75 71.9 L-6.1 71.7 -6.05 71.1 -6.1 70.75 -6.1 70.7 Q-7.05 68.55 -8.5 66.85 L-8.35 66.7 -9.05 66.15 Q-9.5 67.0 -9.35 68.0 -8.8 68.6 -8.85 69.75 L-8.75 70.2 Q-8.1 71.65 -8.35 73.1 L-8.65 73.5 Q-9.75 73.9 -10.1 72.85 L-10.9 69.9 Q-10.8 69.0 -11.1 68.15 L-11.45 67.4 -11.45 68.9 -11.45 69.05 -11.5 68.8 -11.7 67.8 -11.8 67.35 -13.05 68.1 -14.1 68.8 Q-14.45 67.1 -14.15 65.35 L-14.05 65.25 -14.05 65.2 Q-14.2 64.8 -13.85 64.5 L-12.1 63.15 -10.75 62.45 -9.55 61.9 -8.4 61.6 -8.0 61.45 -7.5 61.55 Q-3.8 60.55 -0.95 63.2 L-0.3 63.4 -0.25 63.4 -0.35 63.45 0.4 63.8 M2.7 71.4 L2.55 71.4 Q1.95 71.35 1.85 71.85 2.6 72.2 2.1 72.8 1.6 73.35 1.4 74.0 L1.3 74.55 1.15 74.05 0.15 71.05 0.1 71.15 Q0.1 70.45 0.75 70.1 L0.85 70.1 0.9 70.1 Q1.45 70.55 2.2 70.65 L2.5 71.1 2.7 71.4 M0.05 71.35 Q-0.4 73.15 0.6 74.75 L0.75 75.0 1.5 76.8 1.85 78.45 Q3.1 79.0 3.4 80.4 3.65 81.8 5.25 82.15 L6.3 83.05 6.15 83.1 5.75 83.2 4.95 83.3 4.25 83.3 3.0 82.2 3.1 81.8 3.1 81.35 3.1 81.3 3.0 81.35 2.85 81.4 2.75 81.5 2.7 81.55 2.55 81.75 2.45 81.35 2.35 81.2 2.3 81.15 2.3 81.1 2.1 80.95 2.05 80.95 1.8 80.9 1.0 79.8 -0.5 77.1 -0.8 76.35 -1.6 77.2 Q-2.15 77.65 -2.8 77.75 L-3.65 77.8 -3.75 77.65 -3.8 77.65 -4.05 77.35 -4.3 77.05 Q-4.45 77.8 -4.05 78.55 L-3.6 79.4 -3.85 80.15 -4.7 79.9 -6.25 80.0 -6.15 78.75 -5.4 78.8 Q-5.05 78.85 -5.1 78.45 -5.45 77.8 -6.15 77.65 L-6.45 78.1 -6.65 78.55 -6.75 79.0 -6.75 79.3 -6.75 79.4 -6.75 79.45 Q-6.7 80.35 -7.45 81.25 L-7.4 81.75 Q-6.85 81.8 -6.6 81.25 -6.35 83.1 -4.7 83.95 L-2.65 86.65 -4.25 86.25 -5.2 86.0 -7.3 83.9 Q-7.05 84.0 -6.8 84.2 L-6.45 83.9 -7.8 83.15 Q-8.55 81.45 -8.5 79.7 -9.95 80.7 -11.55 79.55 L-11.75 79.35 -11.85 79.25 -11.9 79.1 -11.95 79.05 -12.0 78.4 -12.0 78.3 -11.85 78.4 -11.65 78.35 -11.25 78.1 Q-10.6 77.45 -9.85 77.15 L-10.25 77.4 -9.1 77.3 Q-8.75 77.45 -8.9 77.8 L-9.2 77.75 -10.35 78.3 Q-10.95 78.5 -11.0 79.05 -10.35 79.05 -9.6 78.55 -9.0 78.05 -8.3 78.25 L-8.2 78.3 -8.15 78.0 -8.2 77.8 -8.5 76.95 -8.1 77.4 -7.75 77.1 -7.75 77.05 -7.45 77.1 -6.7 76.3 -6.05 75.95 -4.65 76.15 -4.55 75.95 Q-4.1 75.15 -3.1 75.1 L-3.05 75.0 -3.0 74.7 -2.9 74.55 -2.45 74.35 -2.25 74.25 -2.05 74.2 -1.9 74.25 Q-1.65 74.85 -1.8 75.55 L-2.0 76.0 -1.75 76.05 -1.25 75.0 -1.15 74.45 -1.45 73.75 -1.5 73.75 -1.55 71.4 Q-1.5 70.8 -0.95 70.55 L-0.8 70.5 Q-0.25 70.85 0.05 71.35 M-20.45 44.95 L-20.55 43.7 Q-19.15 41.25 -16.75 39.8 -14.2 38.6 -11.35 38.5 -8.5 38.4 -6.05 40.05 -6.1 40.4 -5.7 40.55 L-5.65 40.7 -5.25 41.6 -4.9 42.55 -4.95 42.55 Q-4.5 44.05 -4.55 45.7 L-9.4 44.3 Q-9.6 43.45 -9.95 42.65 L-10.5 41.5 -10.65 41.15 Q-14.45 41.0 -17.7 42.75 -17.85 42.4 -18.25 42.2 L-18.25 42.25 -18.6 42.25 -18.8 42.45 -19.25 43.65 -19.25 43.85 -20.45 44.95 M-12.15 27.65 L-12.1 27.55 -12.5 27.4 -12.15 27.65 M-4.1 76.8 L-4.1 76.85 -4.1 76.8" fill="#495c0a" fill-rule="evenodd" stroke="none"/>
    <path d="M2.6 -12.55 L2.5 -12.55 Q-3.5 -8.75 -7.35 -3.1 -7.75 -0.8 -9.45 0.65 -11.1 2.1 -12.05 4.1 -13.85 7.75 -15.35 11.8 L-15.7 12.8 Q-16.7 15.7 -17.15 18.6 L-17.3 19.65 Q-17.75 22.05 -16.8 24.45 L-16.7 24.8 -16.55 25.15 Q-15.5 27.45 -13.45 29.0 L-9.0 30.45 Q-6.7 30.95 -4.55 29.9 L-4.5 29.85 -4.45 29.7 -4.3 29.35 -4.2 29.0 -4.15 28.85 Q-4.05 28.0 -4.35 27.2 L-5.15 27.5 -5.15 27.45 Q-4.35 26.6 -4.15 25.45 L-4.1 25.3 0.1 19.75 Q2.7 16.15 3.9 11.8 L4.1 11.6 4.45 11.25 Q6.4 9.3 7.4 6.8 L9.25 0.8 10.1 -4.5 Q10.35 -7.1 9.4 -9.45 8.35 -11.3 6.45 -12.25 4.6 -13.25 2.6 -12.55 M11.2 -9.05 Q11.9 1.3 7.25 10.15 2.65 18.95 -3.45 26.35 -2.6 27.0 -2.9 28.2 L-3.5 30.25 -4.2 31.35 Q-3.25 32.45 -3.6 33.7 L-4.45 36.1 Q-3.45 37.2 -2.9 39.0 -2.75 40.85 -3.8 42.35 -3.5 44.2 -3.55 46.15 -2.15 47.4 -1.85 49.3 -1.55 51.2 -1.75 53.2 -2.55 53.7 -1.95 54.15 -1.35 54.55 -1.3 55.15 -0.8 56.6 -0.6 58.25 -0.45 59.85 -1.25 61.4 0.25 62.75 2.3 63.35 4.25 63.95 5.45 65.75 5.9 67.0 7.25 67.45 7.8 68.9 9.2 69.75 10.6 70.55 9.85 72.2 9.9 73.9 9.0 75.25 8.1 76.6 7.55 78.15 L7.3 78.35 6.9 78.6 6.3 78.45 6.1 75.15 Q5.85 73.45 4.1 72.8 L2.9 72.9 Q2.1 74.95 2.6 77.0 3.6 77.8 4.05 79.3 4.5 80.8 6.05 81.25 L6.75 81.8 Q7.85 82.5 9.35 82.4 L9.55 83.1 Q8.7 83.6 7.8 83.5 L6.35 84.3 Q4.7 84.85 3.0 84.25 L0.9 84.45 Q-0.25 84.7 -1.15 83.85 -2.3 82.35 -2.9 80.8 L-4.25 80.65 -5.5 80.7 Q-5.6 82.5 -3.8 83.15 L-2.55 85.05 -1.2 86.4 -0.85 86.65 0.5 87.15 0.6 87.25 Q0.6 87.65 0.25 87.7 L-2.8 87.7 -5.95 87.2 Q-7.2 86.25 -8.85 86.1 -10.55 85.95 -11.1 84.1 -11.15 81.4 -12.75 79.45 -14.35 77.5 -13.6 74.75 -14.0 72.55 -14.85 70.3 -15.7 68.05 -15.1 65.65 -17.2 64.85 -18.1 62.9 -19.05 60.9 -19.2 58.85 L-19.3 58.8 -19.45 58.45 Q-20.8 57.1 -21.45 55.3 -22.1 53.5 -21.3 51.5 -20.7 49.45 -21.45 47.35 -23.55 46.3 -24.5 44.2 -24.9 43.1 -24.55 41.85 -24.2 40.55 -25.2 39.9 -25.6 39.15 -25.65 38.25 -25.75 37.3 -26.85 37.15 -28.15 35.2 -27.5 33.0 -27.25 32.3 -26.5 31.95 -26.45 30.3 -25.85 28.7 -25.25 27.05 -26.0 25.6 -26.0 24.25 -25.0 23.55 -24.4 23.15 -23.7 23.05 L-22.2 20.9 Q-21.45 19.85 -21.2 18.5 L-19.9 16.9 Q-19.1 16.2 -17.95 16.45 -15.3 7.05 -10.6 -1.25 L-6.05 -7.2 Q-3.6 -10.4 -0.4 -12.35 2.7 -14.35 6.75 -13.6 9.95 -12.4 11.2 -9.05 M6.9 74.85 L7.0 76.0 7.0 76.15 6.9 76.7 7.35 75.85 7.8 75.3 Q8.35 74.5 8.4 73.55 L8.35 71.85 8.2 71.0 3.55 65.4 Q1.85 64.7 0.4 63.8 L-0.3 63.4 -0.95 63.2 Q-3.8 60.55 -7.5 61.55 L-8.0 61.45 -8.4 61.6 -9.55 61.9 -10.75 62.45 -12.1 63.15 -13.85 64.5 Q-14.2 64.8 -14.05 65.2 L-14.05 65.25 -14.15 65.35 Q-14.45 67.1 -14.1 68.8 -13.9 70.0 -13.35 71.2 -12.45 73.1 -12.55 75.1 L-12.65 76.25 -12.7 76.4 Q-13.1 76.65 -12.85 77.2 L-12.7 77.4 -12.5 77.85 -12.5 77.9 -12.45 78.05 -12.4 78.1 -11.95 79.05 -11.9 79.1 -11.85 79.25 -11.75 79.35 -11.6 79.6 -10.65 80.9 -10.3 83.75 -9.85 83.55 -9.95 83.65 -9.95 83.95 -9.5 84.25 -9.45 84.3 -9.4 84.4 -9.25 84.55 -8.9 84.7 Q-8.25 84.85 -7.75 85.25 L-5.2 86.0 -4.25 86.25 -2.65 86.65 -4.7 83.95 Q-6.35 83.1 -6.6 81.25 -6.85 81.8 -7.4 81.75 L-7.45 81.25 Q-6.7 80.35 -6.75 79.45 L-6.75 79.4 -6.75 79.3 -6.75 79.0 -6.65 78.55 -6.45 78.1 -6.15 77.65 Q-5.45 77.8 -5.1 78.45 -5.05 78.85 -5.4 78.8 L-6.15 78.75 -6.25 80.0 -4.7 79.9 -3.85 80.15 -3.3 80.1 -3.6 79.4 -4.05 78.55 Q-4.45 77.8 -4.3 77.05 L-4.05 77.35 -3.8 77.65 -3.75 77.65 -3.65 77.8 -1.35 81.3 -1.25 81.25 -1.25 81.5 -0.85 81.95 -0.75 82.05 -0.4 82.35 Q0.45 82.85 1.5 82.75 L1.6 82.75 1.65 82.75 2.6 82.85 4.25 83.3 4.95 83.3 5.75 83.2 6.15 83.1 6.3 83.05 5.25 82.15 Q3.65 81.8 3.4 80.4 3.1 79.0 1.85 78.45 L1.5 76.8 0.75 75.0 0.6 74.75 Q-0.4 73.15 0.05 71.35 L0.1 71.15 0.15 71.05 1.15 74.05 1.3 74.55 1.4 74.0 Q1.6 73.35 2.1 72.8 2.6 72.2 1.85 71.85 1.95 71.35 2.55 71.4 L2.7 71.4 Q3.2 71.4 3.55 71.1 L4.7 71.8 Q5.4 72.1 5.7 73.0 6.6 73.75 6.9 74.85 M2.3 81.15 L2.35 81.2 2.3 81.15 M-18.05 22.6 Q-18.45 20.2 -18.1 17.8 L-19.1 17.75 Q-20.0 18.4 -20.55 19.6 L-20.7 21.3 -20.65 20.4 -20.85 20.75 -21.2 21.55 -21.4 22.2 -21.4 21.75 -22.15 22.8 -22.45 23.25 -23.3 24.65 -24.15 26.85 -24.5 27.65 -24.5 27.8 -25.1 29.35 -25.15 29.7 -25.35 30.55 -25.4 31.1 -25.45 35.0 -25.25 36.3 -25.2 36.35 -25.2 36.3 -24.75 37.9 -24.3 39.1 -24.2 39.3 -24.15 39.4 -23.85 40.0 -23.85 40.05 -23.8 40.0 -23.8 39.95 -23.75 40.45 -23.55 41.0 Q-24.05 42.0 -23.65 43.25 L-22.85 44.65 Q-22.5 45.35 -21.7 45.45 -21.9 44.05 -21.25 42.7 L-21.15 42.55 Q-19.35 39.4 -16.1 38.2 L-15.65 38.05 Q-14.3 37.55 -12.85 37.35 L-12.4 37.3 -12.15 37.3 Q-10.8 37.15 -9.35 37.3 L-8.55 37.45 Q-8.25 37.85 -7.45 38.0 L-6.95 38.2 -6.0 38.4 -5.95 38.25 Q-6.2 38.65 -5.6 38.95 -4.9 39.3 -4.5 39.8 L-4.5 38.4 -4.9 37.35 -5.1 37.0 -5.2 36.2 -5.25 35.25 -5.3 34.65 -5.3 34.35 -5.25 34.2 -5.55 34.35 -5.2 34.15 Q-4.75 33.0 -5.3 31.75 L-5.95 31.85 -5.65 32.95 -5.8 32.2 Q-6.55 31.75 -7.6 31.8 L-7.95 31.85 -8.25 31.9 Q-8.7 31.5 -9.5 31.4 -11.55 31.1 -13.05 30.3 L-13.75 29.85 Q-16.5 27.95 -17.5 24.9 L-18.05 22.6 M-26.15 36.5 L-26.6 32.95 Q-27.05 33.9 -26.8 34.95 L-26.15 36.5 M-20.45 44.95 L-20.45 45.0 -20.3 46.55 -19.6 48.55 Q-18.25 46.85 -16.4 46.1 L-12.6 44.6 -9.6 44.25 -9.4 44.3 -4.55 45.7 Q-4.5 44.05 -4.95 42.55 L-4.9 42.55 -5.25 41.6 -5.65 40.7 -5.7 40.55 Q-6.1 40.4 -6.05 40.05 -8.5 38.4 -11.35 38.5 -14.2 38.6 -16.75 39.8 -19.15 41.25 -20.55 43.7 L-20.45 44.95 M-8.05 46.2 L-8.05 45.9 -9.2 45.8 -10.2 45.65 Q-13.6 45.55 -16.25 47.3 -18.9 49.05 -20.25 52.1 -20.5 53.5 -20.2 54.8 -19.85 56.1 -18.95 57.25 L-18.85 57.2 -18.65 58.15 -18.35 58.65 -18.3 58.8 -18.1 59.4 -18.0 59.7 -18.0 59.8 -17.95 59.9 -17.05 61.95 -16.2 63.25 -14.65 64.5 -13.7 63.4 -13.75 63.4 -13.05 62.9 -12.2 62.35 -12.2 62.3 -11.7 61.75 -11.7 61.85 Q-10.2 60.95 -8.65 60.55 L-8.7 60.4 -8.05 60.2 -7.95 60.35 -5.7 60.05 Q-4.3 60.0 -2.8 60.5 L-2.8 60.4 -2.5 60.6 -2.4 60.7 -1.9 61.15 -1.85 60.75 -1.8 60.7 -1.65 60.2 -1.65 60.15 -1.7 60.0 -1.55 59.0 Q-1.7 57.65 -2.15 56.25 -2.55 54.8 -3.65 54.0 L-3.7 54.0 -3.7 53.5 -3.3 53.6 -3.05 53.55 -2.9 52.85 Q-2.6 50.9 -3.2 49.1 L-3.3 48.85 -3.6 48.2 Q-5.15 46.6 -7.2 46.15 -7.3 45.9 -7.65 45.85 L-8.05 46.25 -8.05 46.2 M-24.05 23.95 Q-25.45 24.7 -25.2 26.3 L-24.05 23.95 M-4.1 76.8 L-4.1 76.85 -4.1 76.8" fill="#000000" fill-rule="evenodd" stroke="none"/>
    <path d="M-4.15 28.85 L-4.2 29.0 -4.25 28.9 -4.15 28.85 M-16.55 25.15 L-16.7 24.8 -16.8 24.45 -16.65 24.7 -16.55 25.15 M0.4 63.8 L-0.35 63.45 -0.25 63.4 -0.3 63.4 0.4 63.8 M-0.4 82.35 L-0.75 82.05 -0.4 82.3 -0.4 82.35 M-3.6 79.4 L-3.3 80.1 -3.85 80.15 -3.6 79.4 M-9.25 84.55 L-9.4 84.4 -9.2 84.55 -9.25 84.55 M-11.6 79.6 L-11.75 79.35 -11.55 79.55 -11.6 79.6 M2.45 81.35 L2.35 81.35 2.35 81.2 2.45 81.35 M-12.15 27.65 L-12.5 27.4 -12.1 27.55 -12.15 27.65" fill="#538409" fill-rule="evenodd" stroke="none"/>
    <path d="M-20.7 21.3 L-20.55 19.6 Q-20.0 18.4 -19.1 17.75 L-18.1 17.8 Q-18.45 20.2 -18.05 22.6 -19.3 22.65 -20.0 23.9 L-20.25 24.35 -20.3 24.25 -20.3 24.1 -20.35 23.9 Q-20.7 22.6 -20.7 21.3 M-21.25 42.7 Q-21.9 44.05 -21.7 45.45 -22.5 45.35 -22.85 44.65 L-23.65 43.25 Q-24.05 42.0 -23.55 41.0 L-23.05 40.3 -21.95 39.05 -22.0 39.45 -22.1 39.95 Q-22.45 41.65 -21.25 42.7 M-23.8 39.95 L-23.8 40.0 -23.85 40.0 -24.15 39.4 -24.3 39.1 -24.75 37.9 -25.2 36.3 -25.25 36.3 -25.45 35.0 -25.4 31.1 -25.35 30.55 -25.15 29.7 -25.1 29.35 -24.5 27.8 -24.5 27.65 -24.15 26.85 -23.3 24.65 -22.45 23.25 -22.15 22.8 -21.4 21.75 -21.4 22.2 Q-21.35 24.85 -20.25 27.1 L-19.6 28.2 -20.35 28.35 -21.7 28.75 -21.85 28.75 -21.95 28.7 -22.15 28.7 -22.65 28.85 Q-23.4 29.5 -23.05 30.4 L-23.65 32.05 -23.75 32.4 -23.85 32.75 -23.8 34.1 Q-23.95 34.5 -23.75 34.7 L-23.55 35.55 -22.8 36.65 -22.75 36.75 Q-22.4 37.15 -21.85 37.2 L-21.55 37.25 -21.05 37.4 -20.8 37.5 -20.8 37.55 -20.85 37.7 -21.05 37.85 -21.5 37.9 Q-23.0 38.65 -23.8 39.95 M-21.0 38.0 L-20.95 38.05 -21.1 38.1 -21.0 38.0 M-26.15 36.5 L-26.8 34.95 Q-27.05 33.9 -26.6 32.95 L-26.15 36.5 M-20.2 54.8 Q-20.5 53.5 -20.25 52.1 -18.9 49.05 -16.25 47.3 -13.6 45.55 -10.2 45.65 L-9.2 45.8 -8.05 45.9 -8.05 46.2 -8.55 46.3 Q-10.7 46.55 -12.75 47.3 -14.85 48.05 -16.75 49.3 -18.75 50.55 -19.35 52.75 L-19.65 54.3 -19.8 54.4 -20.2 54.8 M-24.05 23.95 L-25.2 26.3 Q-25.45 24.7 -24.05 23.95" fill="#cc9900" fill-rule="evenodd" stroke="none"/>
    <path d="M-18.05 22.6 L-17.5 24.9 Q-16.5 27.95 -13.75 29.85 L-13.05 30.3 Q-11.55 31.1 -9.5 31.4 -8.7 31.5 -8.25 31.9 L-7.95 31.85 -7.6 31.8 Q-6.55 31.75 -5.8 32.2 L-5.65 32.95 -5.95 31.85 -5.3 31.75 Q-4.75 33.0 -5.2 34.15 L-5.55 34.35 -5.85 34.35 -5.95 34.3 -6.0 34.25 -5.95 34.1 -5.9 34.05 -6.0 34.05 -7.75 34.0 -7.9 33.95 -8.05 34.05 -11.9 33.45 Q-13.5 33.25 -14.8 32.6 L-15.35 32.35 -15.45 32.25 Q-15.75 32.4 -15.7 32.7 -14.85 33.15 -14.65 34.05 -15.3 35.3 -16.4 35.6 -17.55 35.9 -18.25 37.15 L-18.2 37.15 -17.75 37.25 -16.6 36.6 -16.0 36.3 -13.25 35.35 -12.75 35.25 Q-10.2 34.6 -7.55 35.65 L-7.4 35.55 Q-6.45 35.55 -5.75 36.25 L-5.3 36.9 -5.1 37.0 -4.9 37.35 -4.5 38.4 -4.5 39.8 Q-4.9 39.3 -5.6 38.95 -6.2 38.65 -5.95 38.25 L-6.0 38.4 -6.95 38.2 -7.45 38.0 Q-8.25 37.85 -8.55 37.45 L-9.35 37.3 Q-10.8 37.15 -12.15 37.3 L-12.4 37.3 -12.85 37.35 Q-14.3 37.55 -15.65 38.05 L-16.1 38.2 Q-19.35 39.4 -21.15 42.55 L-21.25 42.7 Q-22.45 41.65 -22.1 39.95 L-22.0 39.45 -21.95 39.05 -21.9 39.0 -21.5 38.55 -21.35 38.4 -21.1 38.1 -20.95 38.05 -21.0 38.0 -20.9 37.9 -21.05 37.85 -20.85 37.7 -20.8 37.55 -20.8 37.5 -21.05 37.4 -21.55 37.25 -21.85 37.2 Q-22.4 37.15 -22.75 36.75 L-22.8 36.65 -23.55 35.55 -23.5 35.65 Q-22.85 36.3 -22.05 36.0 L-21.85 35.9 Q-21.15 35.4 -21.05 34.6 L-21.05 34.25 Q-21.35 33.55 -22.1 33.2 L-22.55 33.25 -23.1 33.2 -23.4 33.4 -23.7 33.8 -23.8 34.1 -23.85 32.75 -23.75 32.4 -23.65 32.05 -23.05 30.4 -22.9 30.55 Q-22.1 30.85 -21.55 30.1 L-21.35 29.6 Q-21.25 28.85 -21.85 28.75 L-21.7 28.75 -20.35 28.35 -19.6 28.2 Q-18.6 29.7 -17.05 31.0 -16.7 30.75 -16.95 30.35 L-16.9 30.3 -18.9 27.3 -18.15 28.65 -19.9 25.25 -20.25 24.35 -20.0 23.9 Q-19.3 22.65 -18.05 22.6 M-23.8 40.0 L-23.85 40.05 -23.85 40.0 -23.8 40.0 M-17.05 32.6 Q-17.2 32.1 -17.6 31.9 -17.6 31.5 -18.35 31.45 -18.95 31.75 -19.15 32.4 L-19.1 32.85 Q-19.25 33.3 -19.0 33.8 L-17.4 33.75 Q-16.9 33.3 -17.05 32.6 M-8.05 46.2 L-8.05 46.25 -8.15 46.7 -8.05 47.1 -8.15 48.15 -8.35 49.5 -8.4 49.7 -8.6 50.05 Q-9.25 50.5 -10.0 50.75 L-10.45 50.95 -12.4 51.4 -13.25 51.65 -13.55 51.45 -13.65 51.3 -14.25 50.75 -14.5 50.8 -14.5 50.85 Q-14.75 51.2 -14.5 51.65 L-14.05 52.2 -13.45 53.1 -13.35 53.2 -13.2 53.25 -12.85 54.4 -12.7 54.85 Q-13.0 56.1 -12.85 57.35 L-13.0 57.55 Q-13.85 58.2 -14.8 58.6 L-15.35 59.0 -15.4 59.25 -15.45 59.35 -15.35 59.3 Q-15.2 59.55 -14.85 59.45 L-12.8 58.7 -12.5 58.5 -12.25 58.25 -12.0 57.85 -11.85 56.6 -11.85 56.3 -11.6 55.85 -11.35 55.25 -10.95 55.0 -9.75 54.8 Q-9.2 54.8 -8.85 55.1 L-8.8 55.05 -8.7 55.05 -7.85 56.2 -7.7 56.35 -7.55 56.65 -7.25 56.9 -7.15 56.95 -7.05 57.0 -6.3 57.9 -6.0 58.65 -6.1 58.7 -9.0 59.25 -9.7 59.45 Q-10.8 59.75 -11.8 60.2 L-12.1 60.35 -14.1 61.45 -15.2 62.3 -15.95 63.05 -16.1 63.05 -16.05 63.1 -16.2 63.25 -17.05 61.95 -17.95 59.9 -18.0 59.8 -18.0 59.7 -18.1 59.4 -18.0 59.4 -17.9 59.2 -17.45 59.3 -17.3 59.1 -17.25 58.8 -17.2 58.8 -16.8 58.35 -17.15 57.95 -17.2 57.8 -17.4 57.3 -17.4 57.15 -17.55 56.65 -18.0 55.45 -18.0 55.4 -18.1 55.15 -18.15 53.7 -18.4 54.55 -18.55 54.85 Q-18.95 55.4 -19.4 54.85 L-19.55 54.55 -19.55 54.25 -19.65 54.3 -19.35 52.75 Q-18.75 50.55 -16.75 49.3 -14.85 48.05 -12.75 47.3 -10.7 46.55 -8.55 46.3 L-8.05 46.2 M-3.7 53.5 L-3.7 54.0 -3.75 54.0 -3.75 54.05 Q-3.65 55.1 -4.15 56.05 L-6.9 56.0 -7.05 55.8 -7.55 55.1 -7.65 54.95 -8.1 54.25 -8.1 54.2 -8.25 53.9 -8.45 53.65 -8.5 53.6 -8.55 53.6 -8.6 53.55 -8.8 53.45 -8.75 53.5 -8.6 52.95 -8.45 51.85 -8.15 50.25 -7.95 49.9 -7.9 49.9 -7.4 50.0 -6.75 50.0 -6.65 50.0 Q-4.95 50.5 -4.2 52.1 L-3.9 53.1 -3.7 53.5 M-17.9 52.95 L-18.1 53.55 -17.75 52.85 -17.9 52.95" fill="#996600" fill-rule="evenodd" stroke="none"/>
    <path d="M-5.55 34.35 L-5.25 34.2 -5.3 34.35 -5.3 34.65 -5.25 35.25 -5.2 36.2 -5.1 37.0 -5.3 36.9 -5.75 36.25 Q-6.45 35.55 -7.4 35.55 L-7.55 35.65 Q-10.2 34.6 -12.75 35.25 L-13.25 35.35 -16.0 36.3 -16.6 36.6 -17.75 37.25 -18.2 37.15 -18.25 37.15 Q-17.55 35.9 -16.4 35.6 -15.3 35.3 -14.65 34.05 -14.85 33.15 -15.7 32.7 -15.75 32.4 -15.45 32.25 L-15.35 32.35 -14.8 32.6 Q-13.5 33.25 -11.9 33.45 L-8.05 34.05 -7.9 33.95 -7.75 34.0 -6.0 34.05 -5.95 34.1 -6.0 34.25 -5.95 34.3 -5.85 34.35 -5.55 34.35 M-23.55 41.0 L-23.75 40.45 -23.8 39.95 Q-23.0 38.65 -21.5 37.9 L-21.05 37.85 -20.9 37.9 -21.0 38.0 -21.1 38.1 -21.35 38.4 -21.5 38.55 -21.9 39.0 -21.95 39.05 -23.05 40.3 -23.55 41.0 M-21.4 22.2 L-21.2 21.55 -20.85 20.75 -20.65 20.4 -20.7 21.3 Q-20.7 22.6 -20.35 23.9 L-20.3 24.1 -20.3 24.25 -20.25 24.35 -19.9 25.25 -18.15 28.65 -17.25 29.95 -16.95 30.35 Q-16.7 30.75 -17.05 31.0 -18.6 29.7 -19.6 28.2 L-20.25 27.1 Q-21.35 24.85 -21.4 22.2 M-8.05 46.25 L-7.65 45.85 Q-7.3 45.9 -7.2 46.15 -5.15 46.6 -3.6 48.2 L-3.3 48.85 -3.2 49.1 Q-2.6 50.9 -2.9 52.85 L-3.0 53.4 -3.15 53.5 -3.3 53.6 -3.7 53.5 -3.9 53.1 -4.2 52.1 Q-4.95 50.5 -6.65 50.0 L-6.75 50.0 -7.4 50.0 -7.9 49.9 -7.95 49.9 -8.15 50.25 -8.45 51.85 -8.6 52.95 -8.75 53.5 -8.8 53.45 -8.6 53.55 -8.55 53.6 -8.5 53.6 -8.45 53.65 -8.25 53.9 -8.1 54.2 -8.1 54.25 -7.65 54.95 -7.55 55.1 -7.05 55.8 -6.9 56.0 -4.15 56.05 Q-3.65 55.1 -3.75 54.05 L-3.7 54.05 -3.65 54.0 Q-2.55 54.8 -2.15 56.25 -1.7 57.65 -1.55 59.0 L-1.7 60.0 -1.65 60.15 -1.65 60.2 -1.8 60.7 -1.85 60.75 -1.9 61.15 -2.4 60.7 -2.5 60.6 -2.8 60.4 -2.8 60.5 Q-4.3 60.0 -5.7 60.05 L-7.95 60.35 -8.05 60.2 -8.7 60.4 -8.65 60.55 Q-10.2 60.95 -11.7 61.85 L-11.7 61.75 -12.2 62.3 -12.2 62.35 -13.05 62.9 -13.75 63.4 -13.7 63.4 -14.65 64.5 -16.2 63.25 -16.05 63.1 -16.1 63.05 -15.95 63.05 -15.2 62.3 -14.1 61.45 -12.1 60.35 -11.8 60.2 Q-10.8 59.75 -9.7 59.45 L-9.0 59.25 -6.1 58.7 -6.0 58.65 -6.3 57.9 -7.05 57.0 -7.15 56.95 -7.25 56.9 -7.55 56.65 -7.7 56.35 -7.85 56.2 -8.7 55.05 -8.8 55.05 -8.85 55.1 Q-9.2 54.8 -9.75 54.8 L-10.95 55.0 -11.35 55.25 -11.6 55.85 -11.85 56.3 -11.85 56.6 -12.0 57.85 -12.25 58.25 -12.5 58.5 -12.8 58.7 -14.85 59.45 Q-15.2 59.55 -15.35 59.3 L-15.4 59.25 -15.35 59.0 -14.8 58.6 Q-13.85 58.2 -13.0 57.55 L-12.85 57.35 Q-13.0 56.1 -12.7 54.85 L-12.85 54.4 -13.2 53.25 -13.35 53.2 -13.45 53.1 -14.05 52.2 -14.5 51.65 Q-14.75 51.2 -14.5 50.85 L-14.5 50.8 -14.25 50.75 -13.65 51.3 -13.55 51.45 -13.25 51.65 -12.4 51.4 -10.45 50.95 -10.0 50.75 Q-9.25 50.5 -8.6 50.05 L-8.4 49.7 -8.35 49.5 -8.15 48.15 -8.05 47.1 -8.15 46.7 -8.05 46.25 M-18.1 59.4 L-18.3 58.8 -18.35 58.65 -18.4 58.55 -18.55 58.1 -18.75 57.15 -18.85 57.2 -18.95 57.25 Q-19.85 56.1 -20.2 54.8 L-19.8 54.4 -19.65 54.3 -19.55 54.25 -19.55 54.55 -19.4 54.85 Q-18.95 55.4 -18.55 54.85 L-18.4 54.55 -18.15 53.7 -18.1 55.15 -18.0 55.4 -18.0 55.45 -17.55 56.65 -17.4 57.15 -17.4 57.3 -17.2 57.8 -17.15 57.95 -16.8 58.35 -17.2 58.8 -17.25 58.8 -17.3 59.1 -17.45 59.3 -17.9 59.2 -18.0 59.4 -18.1 59.4" fill="#6f4a00" fill-rule="evenodd" stroke="none"/>
    <path d="M-21.85 28.75 Q-21.25 28.85 -21.35 29.6 L-21.55 30.1 Q-22.1 30.85 -22.9 30.55 L-23.05 30.4 Q-23.4 29.5 -22.65 28.85 L-22.15 28.7 -21.95 28.7 -21.85 28.75 M-23.8 34.1 L-23.7 33.8 -23.4 33.4 -23.1 33.2 -22.55 33.25 -22.1 33.2 Q-21.35 33.55 -21.05 34.25 L-21.05 34.6 Q-21.15 35.4 -21.85 35.9 L-22.05 36.0 Q-22.85 36.3 -23.5 35.65 L-23.55 35.55 -23.75 34.7 Q-23.95 34.5 -23.8 34.1 M-17.05 32.6 Q-16.9 33.3 -17.4 33.75 L-19.0 33.8 Q-19.25 33.3 -19.1 32.85 L-19.15 32.4 Q-18.95 31.75 -18.35 31.45 -17.6 31.5 -17.6 31.9 -17.2 32.1 -17.05 32.6" fill="#e8e800" fill-rule="evenodd" stroke="none"/>
    <path d="M-25.2 36.3 L-25.2 36.35 -25.25 36.3 -25.2 36.3" fill="#9da9c4" fill-rule="evenodd" stroke="none"/>
    <path d="M-24.15 39.4 L-24.2 39.3 -24.3 39.1 -24.15 39.4 M-2.9 52.85 L-3.05 53.55 -3.3 53.6 -3.15 53.5 -3.0 53.4 -2.9 52.85" fill="#7485ab" fill-rule="evenodd" stroke="none"/>
    <path d="M-5.95 34.1 L-6.0 34.05 -5.9 34.05 -5.95 34.1 M-3.75 54.05 L-3.75 54.0 -3.7 54.05 -3.75 54.05" fill="#663333" fill-rule="evenodd" stroke="none"/>
    <path d="M-18.15 28.65 L-18.9 27.3 -16.9 30.3 -16.95 30.35 -17.25 29.95 -18.15 28.65 M-3.7 54.0 L-3.65 54.0 -3.7 54.05 -3.7 54.0 M-17.9 52.95 L-17.75 52.85 -18.1 53.55 -17.9 52.95" fill="#495778" fill-rule="evenodd" stroke="none"/>
    <path d="M-18.25 37.15 L-18.2 37.15 -18.25 37.15 M-18.35 58.65 L-18.65 58.15 -18.85 57.2 -18.75 57.15 -18.55 58.1 -18.4 58.55 -18.35 58.65" fill="#37425b" fill-rule="evenodd" stroke="none"/>
    <path d="M-15.4 59.25 L-15.35 59.3 -15.45 59.35 -15.4 59.25 M-3.75 54.0 L-3.7 54.0 -3.7 54.05 -3.75 54.0" fill="#666666" fill-rule="evenodd" stroke="none"/>
    <path d="M-8.4 68.25 L-8.1 69.0 -8.15 68.95 Q-8.65 68.3 -8.65 67.55 L-8.4 68.25 M-9.25 76.8 L-9.25 76.85 -9.3 76.85 -9.25 76.8" fill="#406507" fill-rule="evenodd" stroke="none"/>
  </g>
</svg>
