<?xml version="1.0" encoding="UTF-8" standalone="no"?>
<svg xmlns:xlink="http://www.w3.org/1999/xlink" height="128.2px" width="60.95px" xmlns="http://www.w3.org/2000/svg">
  <g transform="matrix(1.0, 0.0, 0.0, 1.0, 11.45, 7.1)">
    <path d="M-5.7 -1.6 Q-5.15 -3.1 -4.0 -4.3 -2.6 -5.8 -0.55 -6.1 L4.0 -5.7 Q6.35 -5.15 8.35 -3.65 L8.9 -3.2 Q12.8 0.05 16.4 3.8 19.15 6.75 20.0 10.3 L20.2 11.3 23.9 15.05 Q25.6 16.75 26.5 19.3 28.45 23.05 29.25 27.45 30.05 31.8 28.5 36.05 27.6 38.05 26.2 38.5 24.75 38.95 23.05 39.9 L20.65 40.2 18.15 40.1 Q14.9 38.7 12.75 35.95 L11.25 33.8 Q13.4 34.65 15.65 34.75 L16.8 34.7 Q22.8 33.55 22.8 27.65 22.8 22.5 20.35 18.2 L20.5 16.85 20.5 16.8 20.45 16.15 20.5 16.1 21.4 15.05 22.05 15.75 23.4 17.5 23.5 17.4 22.55 15.25 21.6 14.25 21.6 14.05 Q21.6 12.65 20.25 12.55 19.95 12.65 19.9 13.0 19.75 13.55 19.9 14.15 L19.5 14.55 19.6 14.75 Q19.45 14.4 19.1 14.45 L18.3 14.3 17.95 14.6 17.15 13.3 Q11.55 3.7 2.6 -2.95 L2.3 -3.3 Q-2.1 -4.7 -5.4 -1.85 L-5.7 -1.6 M18.8 15.9 L19.65 15.1 19.75 16.3 19.8 16.85 19.85 17.45 19.25 16.55 18.8 15.9 M12.45 78.65 L12.2 78.25 12.35 78.2 12.45 78.65 M-3.15 90.0 L-3.25 89.8 -3.0 89.9 -3.15 90.0 M2.25 57.45 L1.85 57.0 2.35 57.25 2.25 57.45 M0.55 56.55 L0.35 56.55 -0.2 56.55 0.45 56.5 0.55 56.55 M5.35 98.25 L5.4 98.25 5.5 98.25 5.5 98.3 5.4 98.25 5.35 98.25 M17.75 9.45 L15.9 9.0 Q17.3 10.05 18.3 11.5 18.55 12.45 18.0 13.25 L18.4 13.05 Q19.7 12.2 19.45 10.45 18.85 9.5 17.75 9.45 M1.2 35.1 L1.25 35.1 1.25 35.15 1.2 35.1" fill="#5e6777" fill-rule="evenodd" stroke="none"/>
    <path d="M11.25 33.8 Q10.1 32.0 9.25 30.0 7.85 27.8 7.25 25.25 L5.9 20.15 Q4.65 16.85 2.6 13.65 0.5 10.45 -2.5 8.4 -6.9 4.8 -5.95 -0.9 L-5.7 -1.6 -5.4 -1.85 Q-2.1 -4.7 2.3 -3.3 L2.6 -2.95 Q11.55 3.7 17.15 13.3 L17.95 14.6 Q16.8 15.75 16.5 17.25 L18.8 15.9 19.25 16.55 19.85 17.45 19.8 16.85 20.0 18.85 20.35 18.2 Q22.8 22.5 22.8 27.65 22.8 33.55 16.8 34.7 L15.65 34.75 Q13.4 34.65 11.25 33.8 M19.6 14.75 L19.5 14.55 19.9 14.15 Q19.75 13.55 19.9 13.0 19.95 12.65 20.25 12.55 21.6 12.65 21.6 14.05 L21.6 14.25 20.75 14.05 20.85 14.2 21.4 15.05 20.5 16.1 20.45 16.15 20.35 14.6 Q19.8 14.55 19.65 15.0 L19.6 14.75 M13.9 12.0 L13.75 12.6 15.7 12.85 Q14.95 12.0 13.9 12.0 M4.4 11.0 Q6.6 15.15 7.85 19.75 8.85 23.65 10.75 27.1 12.4 30.15 15.6 30.55 L15.8 30.45 16.05 30.25 16.15 29.6 Q15.7 27.55 14.5 25.75 13.15 23.7 12.55 21.2 11.9 18.35 10.4 15.85 9.75 14.2 8.65 12.65 7.15 10.65 4.95 9.95 L4.8 10.1 4.5 10.35 4.4 10.5 4.4 10.7 4.4 10.85 4.4 11.0 M9.35 56.0 L9.4 56.1 9.35 56.1 9.35 56.0" fill="#8b94a3" fill-rule="evenodd" stroke="none"/>
    <path d="M11.25 33.8 L12.75 35.95 Q14.9 38.7 18.15 40.1 L20.65 40.2 23.05 39.9 Q24.75 38.95 26.2 38.5 27.6 38.05 28.5 36.05 30.05 31.8 29.25 27.45 28.45 23.05 26.5 19.3 25.6 16.75 23.9 15.05 L20.2 11.3 20.0 10.3 Q19.15 6.75 16.4 3.8 12.8 0.05 8.9 -3.2 L8.35 -3.65 Q6.35 -5.15 4.0 -5.7 L-0.55 -6.1 Q-2.6 -5.8 -4.0 -4.3 -5.15 -3.1 -5.7 -1.6 L-5.95 -0.9 Q-6.9 4.8 -2.5 8.4 0.5 10.45 2.6 13.65 4.65 16.85 5.9 20.15 L7.25 25.25 Q7.85 27.8 9.25 30.0 10.1 32.0 11.25 33.8 M26.8 17.7 Q28.75 21.9 30.1 26.45 30.8 30.05 30.35 33.55 29.85 37.0 27.0 39.35 L23.9 40.65 21.5 41.45 Q26.65 48.7 29.8 57.15 35.75 63.8 38.6 72.25 41.45 80.7 39.1 89.6 38.9 89.7 38.75 89.85 42.15 93.65 44.9 98.05 L48.55 104.55 Q50.35 107.9 48.8 111.65 45.65 115.2 41.15 115.9 41.0 117.5 39.75 118.0 L37.3 118.95 Q34.0 120.2 30.2 120.95 26.4 121.6 23.1 119.55 21.7 118.9 20.15 118.4 18.55 117.9 17.85 116.35 12.9 116.95 8.5 115.15 4.05 113.35 0.25 110.3 -2.55 108.25 -2.85 104.9 -3.2 101.5 -2.45 98.35 L-1.0 95.3 Q-4.4 91.4 -5.65 86.5 -7.0 81.6 -7.2 76.3 -7.45 72.9 -6.65 69.65 -5.8 66.4 -7.4 63.5 -10.75 55.75 -11.35 46.85 -11.6 43.65 -11.3 40.65 -10.75 35.15 -8.4 30.1 -6.4 26.35 -2.5 25.0 1.3 23.65 5.35 24.2 L5.65 24.3 5.85 24.05 Q3.9 16.0 -2.25 10.25 -4.8 8.3 -6.2 5.7 -7.6 3.05 -7.15 -0.25 -6.7 -2.2 -5.6 -4.0 -4.6 -5.8 -2.65 -6.7 3.6 -8.05 8.55 -4.75 13.5 -1.5 17.4 2.95 18.95 4.4 19.6 6.35 L20.75 10.25 Q24.8 13.5 26.8 17.7 M25.4 49.4 L25.75 49.45 25.0 48.35 24.75 48.35 20.9 41.75 Q17.55 42.7 13.85 42.45 10.15 42.25 6.95 40.85 L6.5 40.65 Q4.2 39.7 2.1 37.65 L0.25 35.5 Q-0.65 34.3 -1.15 33.05 -1.2 31.3 -0.8 29.85 -0.4 28.4 1.15 27.5 3.55 26.45 6.45 26.45 L6.15 25.4 2.05 25.15 -1.75 25.85 Q-4.85 26.95 -6.85 29.75 -8.9 32.45 -9.45 35.8 L-10.15 40.65 Q-10.4 43.1 -10.3 45.6 -10.2 50.7 -8.7 55.3 L-8.7 55.25 -8.7 55.3 Q-8.75 55.95 -8.4 56.3 L-8.45 56.6 -6.05 64.9 Q-5.8 62.45 -4.7 60.0 -3.6 57.55 -0.95 56.6 L-0.2 56.55 0.35 56.55 0.55 56.55 0.7 56.55 Q1.3 56.5 1.85 57.0 L2.25 57.45 4.15 60.15 Q5.05 61.6 5.35 63.2 L4.1 61.25 2.1 58.6 Q1.05 57.4 -0.65 57.65 L-0.75 57.65 -0.95 57.75 -1.55 58.05 -1.55 58.1 -1.95 58.4 -2.8 59.4 -4.3 61.7 Q-6.6 70.0 -5.95 79.0 -5.6 84.8 -3.25 89.8 L-3.15 90.0 Q-1.9 92.6 -0.05 95.0 3.0 97.65 7.2 96.85 L7.25 96.85 Q8.75 96.5 9.8 95.6 L11.2 93.75 Q12.2 91.45 12.5 88.85 L12.65 87.05 Q12.75 83.5 12.15 80.4 L11.85 79.25 Q11.6 78.6 12.2 78.25 L12.45 78.65 13.25 80.6 13.35 81.0 13.5 81.65 13.5 81.75 14.0 85.55 19.9 85.0 19.9 84.95 20.7 84.85 20.8 84.85 20.85 84.9 28.75 84.55 28.6 84.0 28.7 84.35 28.85 84.35 29.55 84.3 29.65 84.55 33.8 84.6 Q34.2 85.15 33.85 85.65 33.45 86.15 34.45 86.3 35.25 85.25 35.55 83.8 33.4 66.2 25.8 50.05 L25.6 49.7 25.4 49.4 M31.25 60.25 L31.05 60.25 31.1 60.3 Q33.1 66.1 34.7 72.1 35.2 75.85 36.2 79.65 37.15 83.35 35.1 86.9 L38.1 89.3 Q38.75 88.15 38.85 86.85 L39.25 84.3 Q39.55 78.0 37.45 71.75 35.35 65.45 31.25 60.25 M41.15 114.7 L41.2 114.85 45.15 113.35 Q47.15 112.35 48.3 110.55 49.3 109.0 48.7 107.65 L47.6 104.9 Q45.25 100.25 42.25 95.75 39.25 91.2 34.95 88.05 33.7 86.75 32.45 86.55 L29.55 86.25 15.3 87.2 Q15.0 90.15 13.7 92.8 L13.7 92.85 Q12.4 95.45 9.8 97.15 7.9 98.2 5.5 98.25 L5.4 98.25 5.35 98.25 Q3.05 98.2 1.25 97.15 L-0.3 96.05 Q-1.6 98.35 -1.9 101.05 -2.05 103.65 -1.5 106.0 L-1.15 107.0 Q-0.65 108.25 0.45 109.2 L1.25 109.85 Q4.8 112.4 8.8 114.1 12.8 115.7 17.1 115.4 L17.05 115.1 17.9 115.8 18.75 116.05 18.9 116.5 Q23.25 118.65 27.9 120.3 L27.95 120.3 Q30.75 120.0 33.4 119.05 36.05 118.1 38.85 117.45 39.8 117.05 40.3 116.1 L40.2 115.75 40.6 115.6 41.15 114.7 M19.25 108.2 L19.15 108.4 19.1 108.4 19.25 108.2 M21.3 104.9 L21.1 105.1 21.2 104.95 21.3 104.9 M5.55 27.6 Q3.75 27.7 2.2 28.45 1.0 28.9 0.7 29.95 L-0.15 32.05 Q0.2 33.65 1.2 35.1 L1.25 35.15 1.4 35.4 Q4.35 38.8 8.9 40.35 L9.85 40.65 18.1 41.0 17.2 40.65 Q13.25 39.15 11.0 35.65 8.5 31.8 6.8 27.6 L5.55 27.6 M6.9 52.4 L6.85 52.45 6.85 52.4 6.9 52.4" fill="#000000" fill-rule="evenodd" stroke="none"/>
    <path d="M17.95 14.6 L18.3 14.3 19.1 14.45 Q19.45 14.4 19.6 14.75 L19.65 15.0 Q19.8 14.55 20.35 14.6 L20.45 16.15 20.5 16.8 20.5 16.85 20.35 18.2 20.0 18.85 19.8 16.85 19.75 16.3 19.65 15.1 18.8 15.9 16.5 17.25 Q16.8 15.75 17.95 14.6 M21.6 14.25 L22.55 15.25 23.5 17.4 23.4 17.5 22.05 15.75 21.4 15.05 20.85 14.2 20.75 14.05 21.6 14.25 M24.75 48.35 L25.0 48.35 25.75 49.45 25.4 49.4 21.5 49.9 20.6 50.2 20.55 50.25 19.85 50.75 19.75 50.85 31.7 80.95 31.5 80.85 31.35 80.55 29.4 77.2 29.7 77.95 Q24.6 64.4 19.15 50.95 L19.5 50.35 19.55 50.25 19.6 50.45 19.7 50.4 19.75 50.35 19.75 50.3 19.85 50.2 20.6 49.75 20.9 49.45 Q21.9 48.9 23.0 48.65 L24.2 48.4 24.75 48.35 M5.5 49.35 L9.9 49.7 10.15 49.75 10.65 49.85 10.6 49.75 10.95 49.9 11.9 50.15 24.1 80.95 23.9 80.85 23.75 80.55 21.8 77.2 22.1 77.95 Q17.0 64.4 11.55 50.95 L11.1 50.8 11.15 50.8 11.15 50.75 11.1 50.8 11.05 50.8 9.9 50.5 5.8 50.0 2.75 50.35 Q0.5 50.8 -1.6 51.9 L-1.8 52.0 -1.95 52.15 -2.7 52.85 -4.3 54.15 -4.8 54.7 -6.35 56.75 -7.5 58.85 -7.7 58.85 Q-7.95 58.45 -7.7 58.0 L-7.55 57.7 -6.8 56.35 -6.4 55.75 -5.2 54.35 -4.5 53.75 -4.5 53.65 -2.45 51.85 Q0.0 50.05 3.1 49.55 L3.2 49.55 5.5 49.35 M17.75 9.45 Q18.85 9.5 19.45 10.45 19.7 12.2 18.4 13.05 L18.0 13.25 Q18.55 12.45 18.3 11.5 17.3 10.05 15.9 9.0 L17.75 9.45 M13.9 12.0 Q14.95 12.0 15.7 12.85 L13.75 12.6 13.9 12.0" fill="#414652" fill-rule="evenodd" stroke="none"/>
    <path d="M25.4 49.4 L25.6 49.7 25.8 50.05 Q33.4 66.2 35.55 83.8 35.25 85.25 34.45 86.3 33.45 86.15 33.85 85.65 34.2 85.15 33.8 84.6 L29.65 84.55 29.55 84.3 28.85 84.35 28.7 84.35 28.6 84.0 28.75 84.55 20.85 84.9 20.8 84.85 20.7 84.85 19.9 84.95 19.9 85.0 14.0 85.55 13.5 81.75 13.5 81.65 13.35 81.0 13.25 80.6 13.5 78.35 12.25 69.05 10.4 62.7 Q8.9 57.55 6.95 52.6 6.65 52.3 6.5 51.85 L6.5 51.4 6.4 51.35 5.8 50.0 9.9 50.5 11.05 50.8 11.1 50.8 11.15 50.75 11.15 50.8 11.1 50.8 11.55 50.95 Q17.0 64.4 22.1 77.95 L21.8 77.2 23.75 80.55 23.9 80.85 24.1 80.95 11.9 50.15 10.95 49.9 10.6 49.75 10.65 49.85 10.15 49.75 9.9 49.7 5.5 49.35 4.45 47.15 Q3.7 45.6 3.35 43.9 L2.1 40.65 0.4 37.0 Q0.0 36.15 0.25 35.5 L2.1 37.65 Q4.2 39.7 6.5 40.65 L6.95 40.85 Q10.15 42.25 13.85 42.45 17.55 42.7 20.9 41.75 L24.75 48.35 24.2 48.4 23.0 48.65 Q21.9 48.9 20.9 49.45 L20.6 49.75 19.85 50.2 19.75 50.3 19.75 50.35 19.7 50.4 19.6 50.45 19.55 50.25 19.5 50.35 19.15 50.95 Q24.6 64.4 29.7 77.95 L29.4 77.2 31.35 80.55 31.5 80.85 31.7 80.95 19.75 50.85 19.85 50.75 20.55 50.25 20.6 50.2 21.5 49.9 25.4 49.4 M12.2 78.25 Q11.6 78.6 11.85 79.25 L12.15 80.4 Q12.75 83.5 12.65 87.05 L12.5 88.85 Q12.2 91.45 11.2 93.75 L9.8 95.6 Q8.75 96.5 7.25 96.85 L7.2 96.85 Q3.0 97.65 -0.05 95.0 -1.9 92.6 -3.15 90.0 L-3.0 89.9 Q0.85 91.8 3.0 88.05 4.85 82.85 4.0 77.55 L4.0 77.5 4.05 76.25 3.95 75.95 3.85 75.5 3.4 72.7 2.85 69.95 2.7 69.3 2.15 67.05 1.85 66.05 1.0 63.35 -0.05 61.1 -0.1 60.85 -0.15 60.7 -0.85 59.45 -1.0 59.2 Q-1.25 58.65 -1.75 58.55 L-1.55 58.1 -1.55 58.05 -0.95 57.75 -0.75 57.65 -0.65 57.65 Q1.05 57.4 2.1 58.6 L4.1 61.25 5.35 63.2 Q5.05 61.6 4.15 60.15 L2.25 57.45 2.35 57.25 Q5.3 58.85 6.2 62.7 7.35 67.8 9.95 72.5 11.55 75.3 12.35 78.2 L12.2 78.25 M31.25 60.25 Q35.35 65.45 37.45 71.75 39.55 78.0 39.25 84.3 L38.85 86.85 Q38.75 88.15 38.1 89.3 L35.1 86.9 Q37.15 83.35 36.2 79.65 35.2 75.85 34.7 72.1 33.1 66.1 31.1 60.3 L31.25 60.25 M5.5 98.25 Q7.9 98.2 9.8 97.15 12.4 95.45 13.7 92.85 L13.7 92.8 Q15.0 90.15 15.3 87.2 L29.55 86.25 32.45 86.55 Q33.7 86.75 34.95 88.05 39.25 91.2 42.25 95.75 45.25 100.25 47.6 104.9 L48.7 107.65 Q49.3 109.0 48.3 110.55 47.15 112.35 45.15 113.35 L41.2 114.85 41.15 114.7 Q38.85 108.85 34.0 104.05 L33.4 103.2 33.1 102.8 31.6 103.0 26.75 103.7 21.85 104.8 Q20.45 103.1 19.5 101.15 18.0 98.2 15.85 95.6 14.05 97.45 11.6 98.35 8.6 99.5 5.5 98.3 L5.5 98.25 M40.2 115.75 L40.3 116.1 Q39.8 117.05 38.85 117.45 36.05 118.1 33.4 119.05 30.75 120.0 27.95 120.3 L27.9 120.3 Q23.25 118.65 18.9 116.5 L18.75 116.05 18.75 115.15 18.8 115.1 18.8 115.05 18.8 115.0 18.9 114.8 19.45 113.5 26.1 115.4 25.0 112.25 23.6 108.95 23.75 108.7 23.5 108.05 Q23.35 107.65 23.35 107.25 L23.65 107.1 Q25.55 106.2 27.85 105.9 L32.1 105.15 33.45 105.45 Q35.75 107.7 37.7 110.3 39.5 112.75 40.2 115.75 M17.05 115.1 L17.1 115.4 Q12.8 115.7 8.8 114.1 4.8 112.4 1.25 109.85 L0.45 109.2 Q-0.65 108.25 -1.15 107.0 L-1.15 106.95 Q-0.85 106.05 0.05 106.15 2.1 106.9 2.55 108.1 L17.15 112.75 Q16.95 113.85 17.05 115.1 M30.6 114.35 Q31.75 113.3 31.45 111.75 30.85 108.6 28.1 107.6 L27.5 107.75 Q26.45 108.0 26.4 109.15 26.3 110.4 26.65 111.6 27.55 115.05 30.6 114.35 M1.25 35.1 L3.1 35.65 6.75 35.95 7.5 35.3 8.35 33.75 8.6 33.3 Q8.25 30.1 5.75 27.85 L5.55 27.6 6.8 27.6 Q8.5 31.8 11.0 35.65 13.25 39.15 17.2 40.65 L18.1 41.0 9.85 40.65 8.9 40.35 Q4.35 38.8 1.4 35.4 L1.25 35.15 1.25 35.1 M6.9 52.4 L6.85 52.4 6.85 52.45 6.9 52.4 6.95 52.45 6.95 52.4 6.9 52.4 M9.35 56.0 L9.35 56.1 9.4 56.1 9.35 56.0 M17.6 78.8 L17.9 79.55 17.6 78.8" fill="#5e6781" fill-rule="evenodd" stroke="none"/>
    <path d="M31.1 60.3 L31.05 60.25 31.25 60.25 31.1 60.3" fill="#ffffff" fill-rule="evenodd" stroke="none"/>
    <path d="M41.15 114.7 L40.6 115.6 40.2 115.75 Q39.5 112.75 37.7 110.3 35.75 107.7 33.45 105.45 L32.1 105.15 27.85 105.9 Q25.55 106.2 23.65 107.1 L23.35 107.25 Q21.4 108.5 20.65 110.55 L20.25 111.55 19.85 112.6 19.85 112.65 19.45 113.5 18.9 114.8 18.8 115.0 18.8 115.05 18.8 115.1 18.75 115.15 18.75 116.05 17.9 115.8 17.05 115.1 Q16.95 113.85 17.15 112.75 17.45 110.9 18.5 109.35 L19.1 108.4 19.15 108.4 19.25 108.2 19.3 108.1 21.1 105.15 21.1 105.1 21.3 104.9 21.85 104.8 26.75 103.7 31.6 103.0 33.1 102.8 33.4 103.2 34.0 104.05 Q38.85 108.85 41.15 114.7" fill="#3c4764" fill-rule="evenodd" stroke="none"/>
    <path d="M13.25 80.6 L12.45 78.65 12.35 78.2 Q11.55 75.3 9.95 72.5 7.35 67.8 6.2 62.7 5.3 58.85 2.35 57.25 L1.85 57.0 Q1.3 56.5 0.7 56.55 L0.55 56.55 0.45 56.5 -0.2 56.55 -0.95 56.6 Q-3.6 57.55 -4.7 60.0 -5.8 62.45 -6.05 64.9 L-8.45 56.6 -8.4 56.3 Q-8.75 55.95 -8.7 55.3 L-8.7 55.25 -8.7 55.3 Q-10.2 50.7 -10.3 45.6 -10.4 43.1 -10.15 40.65 L-9.45 35.8 Q-8.9 32.45 -6.85 29.75 -4.85 26.95 -1.75 25.85 L2.05 25.15 6.15 25.4 6.45 26.45 Q3.55 26.45 1.15 27.5 -0.4 28.4 -0.8 29.85 -1.2 31.3 -1.15 33.05 -0.65 34.3 0.25 35.5 0.0 36.15 0.4 37.0 L2.1 40.65 3.35 43.9 Q3.7 45.6 4.45 47.15 L5.5 49.35 3.2 49.55 3.1 49.55 Q0.0 50.05 -2.45 51.85 L-4.5 53.65 -4.5 53.75 -5.2 54.35 -6.4 55.75 -6.8 56.35 -7.55 57.7 -7.7 58.0 Q-7.95 58.45 -7.7 58.85 L-7.5 58.85 -6.35 56.75 -4.8 54.7 -4.3 54.15 -2.7 52.85 -1.95 52.15 -1.8 52.0 -1.6 51.9 Q0.5 50.8 2.75 50.35 L5.8 50.0 6.4 51.35 6.5 51.4 6.5 51.85 Q6.65 52.3 6.95 52.6 8.9 57.55 10.4 62.7 L12.25 69.05 13.5 78.35 13.25 80.6 M-3.25 89.8 Q-5.6 84.8 -5.95 79.0 -6.6 70.0 -4.3 61.7 L-2.8 59.4 -1.95 58.4 -1.75 58.55 Q-1.25 58.65 -1.0 59.2 L-0.85 59.45 -0.15 60.7 -0.1 60.85 -0.05 61.1 1.0 63.35 1.85 66.05 2.15 67.05 2.7 69.3 2.85 69.95 3.4 72.7 3.85 75.5 3.95 75.95 4.05 76.25 4.0 77.5 4.0 77.55 Q4.85 82.85 3.0 88.05 0.85 91.8 -3.0 89.9 L-3.25 89.8 M-1.15 107.0 L-1.5 106.0 Q-2.05 103.65 -1.9 101.05 -1.6 98.35 -0.3 96.05 L1.25 97.15 Q3.05 98.2 5.35 98.25 L5.4 98.25 5.5 98.3 Q8.6 99.5 11.6 98.35 14.05 97.45 15.85 95.6 18.0 98.2 19.5 101.15 20.45 103.1 21.85 104.8 L21.3 104.9 21.2 104.95 21.1 105.1 21.1 105.15 19.3 108.1 19.25 108.2 19.1 108.4 18.5 109.35 Q17.45 110.9 17.15 112.75 L2.55 108.1 Q2.1 106.9 0.05 106.15 -0.85 106.05 -1.15 106.95 L-1.15 107.0 M23.35 107.25 Q23.35 107.65 23.5 108.05 L23.75 108.7 23.6 108.95 25.0 112.25 26.1 115.4 19.45 113.5 19.85 112.65 19.85 112.6 20.25 111.55 20.65 110.55 Q21.4 108.5 23.35 107.25 M1.2 35.1 Q0.2 33.65 -0.15 32.05 L0.7 29.95 Q1.0 28.9 2.2 28.45 3.75 27.7 5.55 27.6 L5.75 27.85 Q8.25 30.1 8.6 33.3 L8.35 33.75 7.5 35.3 6.75 35.95 3.1 35.65 1.25 35.1 1.2 35.1 M-4.3 31.3 L-5.4 31.55 -7.2 34.55 Q-8.55 37.5 -8.6 40.65 L-8.4 43.75 Q-7.85 47.15 -4.65 47.0 -3.9 46.4 -3.7 45.5 L-3.7 44.65 Q-4.1 42.6 -4.1 40.65 -4.05 37.5 -2.85 34.5 -1.8 31.9 -4.3 31.3 M-0.9 74.4 Q-1.35 72.7 -1.0 71.0 -0.45 68.4 -1.95 66.55 L-2.9 66.45 -3.65 67.3 Q-5.05 70.8 -4.6 74.65 -4.3 77.6 -1.6 77.6 -0.45 76.2 -0.9 74.4 M15.1 98.5 L14.45 98.65 Q12.6 99.5 13.5 101.35 L14.25 102.85 Q15.3 104.75 17.3 104.35 18.15 104.15 18.3 103.15 18.75 99.55 15.1 98.5" fill="#878eb0" fill-rule="evenodd" stroke="none"/>
    <path d="M30.6 114.35 Q27.55 115.05 26.65 111.6 26.3 110.4 26.4 109.15 26.45 108.0 27.5 107.75 L28.1 107.6 Q30.85 108.6 31.45 111.75 31.75 113.3 30.6 114.35 M-4.3 31.3 Q-1.8 31.9 -2.85 34.5 -4.05 37.5 -4.1 40.65 -4.1 42.6 -3.7 44.65 L-3.7 45.5 Q-3.9 46.4 -4.65 47.0 -7.85 47.15 -8.4 43.75 L-8.6 40.65 Q-8.55 37.5 -7.2 34.55 L-5.4 31.55 -4.3 31.3 M-0.9 74.4 Q-0.45 76.2 -1.6 77.6 -4.3 77.6 -4.6 74.65 -5.05 70.8 -3.65 67.3 L-2.9 66.45 -1.95 66.55 Q-0.45 68.4 -1.0 71.0 -1.35 72.7 -0.9 74.4 M15.1 98.5 Q18.75 99.55 18.3 103.15 18.15 104.15 17.3 104.35 15.3 104.75 14.25 102.85 L13.5 101.35 Q12.6 99.5 14.45 98.65 L15.1 98.5" fill="#b3b9ce" fill-rule="evenodd" stroke="none"/>
    <path d="M4.4 11.0 L4.4 10.85 4.4 10.7 4.4 10.5 4.5 10.35 4.8 10.1 4.95 9.95 Q7.15 10.65 8.65 12.65 9.75 14.2 10.4 15.85 11.9 18.35 12.55 21.2 13.15 23.7 14.5 25.75 15.7 27.55 16.15 29.6 L16.05 30.25 15.8 30.45 15.6 30.55 Q12.4 30.15 10.75 27.1 8.85 23.65 7.85 19.75 6.6 15.15 4.4 11.0" fill="#b3b9c1" fill-rule="evenodd" stroke="none"/>
    <path d="M-1.95 58.4 L-1.55 58.1 -1.75 58.55 -1.95 58.4" fill="#8b94ab" fill-rule="evenodd" stroke="none"/>
  </g>
</svg>
