<?xml version="1.0" encoding="UTF-8" standalone="no"?>
<svg xmlns:xlink="http://www.w3.org/1999/xlink" height="95.6px" width="34.4px" xmlns="http://www.w3.org/2000/svg">
  <g transform="matrix(1.0, 0.0, 0.0, 1.0, 27.2, 4.85)">
    <path d="M-0.55 -3.55 L0.85 -4.05 Q4.25 -4.4 6.0 -1.55 6.9 0.95 5.75 2.9 L2.95 6.65 Q1.3 8.45 0.65 10.6 -0.05 14.05 -0.2 17.95 -0.35 21.8 -1.75 24.85 -3.15 27.9 -7.6 28.9 -8.55 29.1 -9.25 28.5 L-10.7 27.45 -13.3 22.4 Q-13.8 21.4 -14.5 20.8 L-14.2 20.75 Q-12.0 23.65 -8.45 21.9 -6.55 19.85 -6.25 17.15 -6.0 14.7 -5.1 12.4 -3.85 9.25 -1.55 6.5 0.55 4.0 1.15 0.85 1.8 -2.6 -0.55 -3.55 M-5.9 40.15 Q-4.1 35.6 -6.6 30.75 -5.05 30.65 -3.95 29.45 L-1.55 26.55 0.35 30.95 0.6 31.55 0.7 32.85 Q1.05 33.5 0.95 34.25 L0.95 34.85 Q1.25 35.4 1.2 36.05 L1.15 36.8 1.2 39.15 1.2 39.3 1.1 41.1 1.0 41.4 0.8 43.25 0.75 43.5 0.85 43.65 -0.05 43.0 Q-2.8 41.2 -5.85 40.45 L-5.85 40.4 -5.9 40.15 M-1.95 47.15 L-2.45 47.35 -2.4 48.2 -2.4 48.55 -2.55 48.25 -2.6 48.2 -3.15 47.6 -3.4 47.45 -3.5 47.4 Q-4.2 46.9 -5.3 46.5 -6.95 45.95 -8.9 45.75 L-8.95 45.75 -8.95 45.45 -8.85 44.7 -8.75 43.6 -8.05 43.7 -7.95 43.75 -4.85 44.45 -4.05 44.65 Q-3.45 44.8 -2.95 45.25 L-2.65 45.55 -2.5 45.85 -2.3 46.35 -2.3 46.85 -1.95 47.15 M-4.45 51.1 L-4.6 51.2 -4.6 51.25 -4.7 52.25 -4.7 53.15 -4.75 53.55 -5.1 52.8 -5.35 52.5 -5.4 52.5 Q-5.85 52.15 -6.5 51.9 L-6.45 51.85 -6.0 51.7 -6.5 51.85 -6.65 51.8 -7.05 51.65 -7.95 51.4 -8.05 51.35 -10.2 51.0 -11.0 50.95 -11.1 50.7 Q-11.2 49.3 -10.95 48.0 L-6.15 48.75 Q-5.5 48.85 -5.1 49.35 L-5.0 49.35 Q-4.8 49.35 -4.7 49.5 L-4.6 49.9 -4.6 50.0 -4.55 50.0 -4.55 50.05 -4.5 50.2 -4.5 50.25 -4.55 50.35 -4.45 50.65 -4.45 51.1 M-6.6 55.25 L-6.8 55.3 -7.0 55.4 -6.6 55.2 -6.6 55.25 M-13.7 68.3 L-13.35 68.95 -13.35 69.7 -13.35 70.5 -13.2 70.95 -13.3 71.9 -13.15 72.4 -13.2 72.55 -13.5 73.0 Q-15.5 76.4 -16.3 80.45 L-14.45 86.95 -14.1 87.9 -14.35 88.2 -15.8 89.95 -16.25 89.05 -17.1 86.95 Q-18.55 83.1 -19.1 78.95 -19.3 77.35 -18.55 75.95 L-16.05 71.2 Q-15.05 69.5 -13.7 68.3 M0.0 71.3 L0.65 72.85 Q1.25 74.65 1.45 76.6 L1.25 79.45 0.2 81.95 Q-0.95 83.85 -1.6 85.95 L-1.8 86.4 -1.8 86.45 -2.15 86.95 -2.25 87.05 -2.55 86.95 -2.7 86.9 -4.35 86.35 -4.35 86.3 -4.3 86.2 -4.05 84.7 -3.65 83.0 Q-3.3 81.85 -3.35 80.65 L-3.35 80.15 Q-3.2 79.1 -3.45 78.1 L-3.4 77.95 -3.35 77.9 -3.4 77.85 -3.55 77.7 -3.6 77.55 Q-3.95 76.55 -4.6 75.8 L-4.85 75.5 Q-6.05 73.85 -7.4 72.35 L-7.6 72.1 -7.65 72.05 -7.75 71.9 -7.45 71.95 -6.95 72.05 -0.45 71.5 0.0 71.3 M1.2 77.35 Q0.9 77.05 0.6 77.15 L-0.1 77.35 -0.85 77.4 -2.1 77.7 -2.05 77.8 -2.0 78.0 -1.95 78.05 -1.1 78.35 Q0.5 78.5 1.25 77.4 L1.2 77.35" fill="#5e6777" fill-rule="evenodd" stroke="none"/>
    <path d="M-14.5 20.8 Q-13.8 21.4 -13.3 22.4 L-10.7 27.45 -9.25 28.5 Q-8.55 29.1 -7.6 28.9 -3.15 27.9 -1.75 24.85 -0.35 21.8 -0.2 17.95 -0.05 14.05 0.65 10.6 1.3 8.45 2.95 6.65 L5.75 2.9 Q6.9 0.95 6.0 -1.55 4.25 -4.4 0.85 -4.05 L-0.55 -3.55 Q-4.75 -1.85 -8.35 1.65 -12.6 5.7 -14.55 10.6 -16.9 14.8 -17.75 19.65 L-17.65 19.65 -17.55 19.65 -17.15 19.65 -17.05 19.65 Q-15.55 19.85 -14.5 20.8 M-6.6 30.75 L-6.8 30.75 -7.25 30.7 Q-10.55 30.7 -11.85 28.05 L-14.1 23.0 Q-15.05 21.5 -16.5 20.6 -18.3 20.25 -19.6 21.4 L-21.9 23.8 Q-24.85 28.0 -25.75 32.85 L-25.9 33.45 -25.95 33.65 -26.0 34.2 -26.2 35.3 -26.25 38.05 -26.05 41.05 -25.5 43.2 -25.5 43.25 -25.7 43.55 -25.85 44.15 -25.85 44.3 Q-25.85 45.4 -24.55 46.3 L-23.85 46.7 -23.15 47.05 -22.9 47.15 -22.95 47.45 -22.85 48.5 -22.85 48.55 -22.85 49.0 -22.55 49.7 -22.2 50.15 -21.25 50.85 -20.35 51.25 -20.25 51.3 -20.2 51.8 -20.2 52.1 -20.15 52.45 -20.1 53.15 -20.05 53.25 -20.1 53.55 Q-20.15 54.5 -18.4 55.2 L-17.9 55.4 -17.65 55.45 -17.65 55.5 -17.6 55.8 -17.55 55.75 -17.4 55.7 -17.0 55.6 -16.65 55.5 -15.75 55.45 -13.6 55.3 -10.95 55.1 -8.5 55.5 -8.4 55.55 -8.4 55.4 -7.55 55.7 -7.55 55.75 -7.45 55.8 -6.9 55.9 Q-4.3 56.55 -1.95 57.95 -0.6 58.85 0.3 60.25 L0.5 60.3 Q2.05 61.85 3.2 63.95 L3.6 64.75 3.65 64.8 3.75 65.55 4.2 67.3 3.8 68.6 Q4.5 70.2 4.8 72.05 5.1 74.2 5.0 76.45 L4.85 77.5 3.75 81.8 Q3.05 83.9 1.85 85.7 L0.95 86.75 0.7 86.95 Q-0.45 87.9 -1.75 87.95 L-2.8 88.05 -2.9 88.15 Q-4.35 88.65 -5.15 87.3 L-5.3 86.95 Q-5.8 85.8 -5.3 84.65 -4.3 81.9 -5.05 79.1 -5.9 75.8 -8.5 73.75 L-9.0 73.45 Q-9.6 73.1 -10.25 73.05 L-12.2 73.25 Q-13.15 74.4 -13.75 75.8 L-14.2 76.9 Q-15.0 79.0 -14.55 81.25 L-13.45 85.5 Q-13.25 86.25 -13.2 86.95 L-13.15 87.55 -13.4 88.7 Q-13.8 89.65 -14.55 90.15 L-15.4 90.55 -17.1 90.75 Q-18.7 90.75 -20.05 89.85 L-21.45 88.85 -23.45 86.95 Q-24.8 85.35 -25.45 83.45 -26.2 82.3 -26.55 81.05 L-26.7 79.0 -26.6 76.95 -26.45 76.15 -26.35 75.65 -26.35 75.0 -26.05 72.85 -25.5 70.9 Q-25.9 69.35 -25.7 67.85 L-25.6 67.35 -25.55 66.9 -25.35 65.65 -25.3 65.45 -24.8 64.15 -24.35 63.15 -23.7 61.85 -23.55 61.55 -23.0 60.6 -22.8 60.25 -22.45 59.8 -22.4 59.8 Q-22.05 58.9 -21.4 58.25 L-20.1 57.05 -20.1 56.95 -19.35 56.55 -18.2 56.05 -17.85 55.9 -18.7 55.9 Q-20.0 55.45 -20.7 54.15 L-21.35 52.15 -22.15 51.75 -22.6 51.3 Q-23.85 50.6 -23.85 49.1 L-23.9 48.1 Q-23.95 47.3 -24.55 47.05 L-24.55 47.0 -24.65 46.9 -26.2 45.35 -26.75 43.95 -26.9 43.65 -26.95 43.5 -26.95 42.5 -27.05 41.7 -27.05 41.35 -27.1 40.8 -27.2 39.35 -27.0 34.9 -26.95 33.6 -26.85 33.1 Q-26.0 27.45 -22.55 22.8 -20.95 20.8 -18.8 19.8 -17.3 11.9 -12.3 5.05 -7.35 -1.85 0.45 -4.8 4.15 -5.15 6.5 -2.35 8.2 1.45 5.75 4.95 2.4 7.55 1.6 11.15 0.8 14.7 0.65 18.55 0.45 22.35 -1.0 25.75 0.7 28.35 1.65 31.3 L1.65 31.35 1.75 31.75 1.95 32.85 2.3 37.25 2.2 39.8 2.2 39.95 Q2.25 42.2 1.5 44.3 L0.95 45.4 -0.45 47.15 -0.55 47.2 -1.3 47.7 -1.3 49.15 -1.3 49.35 Q-1.5 50.55 -2.45 51.0 L-2.65 51.25 -3.4 51.85 -3.55 51.9 -3.6 52.35 Q-3.65 54.7 -5.8 55.8 L-5.8 55.9 -6.55 55.9 -6.6 55.25 -5.85 54.9 Q-5.0 54.4 -4.8 53.8 L-4.8 53.75 -4.75 53.55 -4.7 53.15 -4.7 52.25 -4.6 51.25 -4.6 51.2 -4.45 51.1 -4.0 50.9 -3.75 50.8 -3.5 50.65 Q-2.3 49.9 -2.3 49.0 L-2.4 48.55 -2.4 48.2 -2.45 47.35 -1.95 47.15 -1.75 47.05 -1.7 47.05 -1.3 46.85 -0.05 46.1 Q0.95 45.25 0.95 44.3 L0.85 43.65 0.75 43.5 0.8 43.25 1.0 41.4 1.1 41.1 1.2 39.3 1.2 39.15 1.15 36.8 1.2 36.05 Q1.25 35.4 0.95 34.85 L0.95 34.25 Q1.05 33.5 0.7 32.85 L0.6 31.55 0.35 30.95 -1.55 26.55 -3.95 29.45 Q-5.05 30.65 -6.6 30.75 M-19.15 25.25 L-19.4 25.4 -20.75 25.25 -20.85 25.1 -19.6 24.0 Q-19.9 23.35 -19.7 22.7 -18.95 22.3 -18.4 23.05 -18.25 23.8 -18.45 24.4 L-18.55 24.65 -18.6 24.7 -19.15 25.25 M-12.0 68.55 L-11.9 68.8 -11.5 70.65 -11.5 71.4 -11.2 71.4 -11.1 71.4 -10.35 71.3 -10.3 71.3 -9.4 71.2 -9.05 71.2 -7.25 70.85 -2.25 70.25 Q-0.3 70.2 1.35 69.3 L2.05 68.8 2.35 68.5 2.9 66.55 2.85 65.6 2.9 65.3 2.5 64.45 1.85 63.3 Q1.15 62.25 0.2 61.5 L0.15 61.45 Q-0.7 59.95 -2.2 58.95 L-2.6 58.6 Q-4.4 57.0 -6.8 57.0 L-6.85 57.0 -7.35 56.7 -8.25 56.3 -9.65 56.0 -10.35 55.9 -11.85 55.85 -14.0 55.9 -14.8 56.0 Q-16.8 56.3 -18.65 57.1 L-18.85 57.15 -19.8 57.85 Q-20.4 58.35 -20.7 59.1 L-21.35 59.9 -22.25 61.05 -22.5 61.55 Q-23.65 63.55 -24.3 65.65 L-24.35 66.1 -24.35 66.25 -24.7 69.2 -24.75 69.85 -24.65 70.45 -24.65 70.5 -24.4 70.6 -24.65 71.15 -24.85 71.8 -25.6 74.9 Q-26.0 76.95 -25.75 78.95 L-25.35 80.9 -25.15 81.75 -24.6 83.1 -24.45 83.5 -22.3 86.95 -20.05 89.2 Q-18.9 90.2 -17.35 90.05 L-16.5 89.85 -15.9 90.1 -15.8 89.95 -14.35 88.2 -14.1 87.9 -14.45 86.95 -16.3 80.45 Q-15.5 76.4 -13.5 73.0 L-13.2 72.55 -13.15 72.4 -13.3 71.9 -13.2 70.95 -13.35 70.5 -13.35 69.7 -13.35 68.95 -13.7 68.3 Q-14.15 67.7 -15.0 67.55 L-16.25 67.2 -17.15 67.15 -20.3 67.55 -21.4 67.9 -21.55 67.95 -22.85 68.7 -23.0 68.8 -23.15 68.8 -23.35 68.8 -23.4 68.8 -21.95 67.35 Q-20.75 66.45 -19.2 66.35 L-17.55 66.15 Q-15.5 66.05 -13.6 66.85 -12.45 67.35 -12.0 68.55 M-3.9 62.1 L-4.1 62.1 -4.0 62.1 -3.9 62.1 M-2.25 87.05 L-2.0 87.2 -1.5 86.95 -0.7 86.6 0.9 85.85 1.55 84.85 Q3.65 80.55 4.1 76.0 4.5 72.45 3.35 69.45 L3.1 69.8 2.1 70.6 1.05 70.95 Q0.5 71.05 0.0 71.3 L-0.45 71.5 -6.95 72.05 -7.45 71.95 -7.75 71.9 -7.65 72.05 -7.6 72.1 -7.4 72.35 Q-6.05 73.85 -4.85 75.5 L-4.6 75.8 Q-3.95 76.55 -3.6 77.55 L-3.55 77.7 -3.4 77.85 -3.35 77.9 -3.4 77.95 -3.45 78.1 Q-3.2 79.1 -3.35 80.15 L-3.35 80.65 Q-3.3 81.85 -3.65 83.0 L-4.05 84.7 -4.3 86.2 -4.35 86.3 -4.35 86.35 -2.7 86.9 -2.55 86.95 -2.25 87.05 M1.2 77.35 L1.25 77.4 Q0.5 78.5 -1.1 78.35 L-1.95 78.05 -2.0 78.0 -2.05 77.8 -2.1 77.7 -0.85 77.4 -0.1 77.35 0.6 77.15 Q0.9 77.05 1.2 77.35" fill="#000000" fill-rule="evenodd" stroke="none"/>
    <path d="M-14.35 14.7 Q-14.75 17.25 -12.25 17.1 -11.9 17.1 -11.7 16.75 -9.45 12.65 -6.85 8.75 L-3.55 4.65 Q-1.15 2.15 -4.2 0.95 -4.7 0.95 -5.2 1.3 -12.85 5.9 -14.35 14.7 M-0.55 -3.55 Q1.8 -2.6 1.15 0.85 0.55 4.0 -1.55 6.5 -3.85 9.25 -5.1 12.4 -6.0 14.7 -6.25 17.15 -6.55 19.85 -8.45 21.9 -12.0 23.65 -14.2 20.75 L-14.5 20.8 Q-15.55 19.85 -17.05 19.65 L-17.15 19.65 -17.55 19.65 -17.65 19.65 -17.75 19.65 Q-16.9 14.8 -14.55 10.6 -12.6 5.7 -8.35 1.65 -4.75 -1.85 -0.55 -3.55 M-17.2 39.95 L-17.1 37.7 Q-16.9 33.25 -15.8 28.9 -14.9 25.55 -17.65 24.25 L-17.65 24.3 -18.45 24.4 Q-18.25 23.8 -18.4 23.05 -18.95 22.3 -19.7 22.7 -19.9 23.35 -19.6 24.0 L-20.85 25.1 -20.75 25.25 -19.4 25.4 -19.15 25.25 Q-22.9 30.75 -23.15 37.45 -23.2 39.45 -22.85 41.35 L-24.2 42.05 -24.4 42.2 -25.4 43.1 -25.5 43.2 -26.05 41.05 -26.25 38.05 -26.2 35.3 -26.0 34.2 -25.95 33.65 -25.9 33.45 -25.75 32.85 Q-24.85 28.0 -21.9 23.8 L-19.6 21.4 Q-18.3 20.25 -16.5 20.6 -15.05 21.5 -14.1 23.0 L-11.85 28.05 Q-10.55 30.7 -7.25 30.7 L-6.8 30.75 -6.6 30.75 Q-4.1 35.6 -5.9 40.15 L-5.95 40.25 -12.45 39.7 -17.2 39.95 M-6.55 55.9 L-6.9 55.9 -7.45 55.8 -7.55 55.75 -7.55 55.7 -8.4 55.4 -8.4 55.55 -8.5 55.5 -10.95 55.1 -13.6 55.3 Q-13.2 54.2 -14.55 53.7 -15.3 53.7 -15.65 54.4 -15.9 54.95 -15.75 55.45 L-16.65 55.5 -17.15 55.55 -17.4 55.7 -17.55 55.75 -17.6 55.8 -17.65 55.5 -17.6 55.5 -17.55 55.25 -17.35 54.85 -17.1 54.55 -16.7 54.25 Q-14.35 53.25 -11.95 53.3 -9.5 53.2 -7.25 54.5 L-7.2 54.5 -6.85 54.8 -6.75 54.9 -6.6 55.2 -7.0 55.4 -6.8 55.3 -6.6 55.25 -6.55 55.9 M-20.05 53.25 L-20.1 53.15 -20.15 52.45 -20.2 52.1 -20.2 51.8 -20.25 51.3 -20.35 51.25 -20.35 51.2 -20.45 51.0 -20.5 50.75 -20.5 50.5 -20.5 50.1 Q-20.45 49.7 -20.2 49.45 L-20.1 49.4 -20.05 49.3 -19.9 49.2 -19.8 49.25 Q-18.9 48.75 -17.8 48.6 L-17.65 48.55 -17.9 49.15 Q-18.35 51.3 -16.05 51.0 L-15.65 50.8 Q-14.35 49.05 -15.95 48.3 L-11.9 47.95 -10.95 48.0 Q-11.2 49.3 -11.1 50.7 L-11.0 50.95 -10.2 51.0 -12.45 50.9 -16.95 51.4 -17.9 51.65 -18.1 51.75 -18.25 51.8 -19.45 52.45 -19.6 52.6 -19.7 52.7 -19.8 52.75 -19.85 52.85 -19.95 52.95 -20.05 53.25 M-22.55 49.7 L-22.85 49.0 -22.85 48.55 -22.85 48.5 -22.95 47.45 -22.9 47.15 -22.95 47.0 -22.85 46.25 -22.85 46.2 -22.7 45.95 -22.6 45.7 -22.6 45.55 -22.55 45.5 -22.45 45.45 -21.4 44.35 -20.3 44.0 Q-20.6 44.6 -20.4 45.35 L-19.85 46.55 Q-21.15 47.0 -21.85 47.55 L-22.15 47.8 -22.15 47.85 -22.45 48.2 -22.65 48.65 -22.65 48.8 -22.7 49.0 -22.7 49.1 -22.7 49.2 -22.55 49.7 M-8.95 45.75 L-9.75 45.65 -12.5 45.5 -16.7 45.8 -16.7 45.7 Q-16.4 44.15 -17.1 43.5 L-13.9 43.2 -8.75 43.6 -8.85 44.7 -8.95 45.45 -8.95 45.75 M-23.15 68.8 L-23.0 68.8 -22.85 68.7 -21.55 67.95 -20.65 67.95 -20.3 67.55 -17.15 67.15 -16.25 67.2 -15.0 67.55 Q-14.15 67.7 -13.7 68.3 -15.05 69.5 -16.05 71.2 L-18.55 75.95 Q-19.3 77.35 -19.1 78.95 -18.55 83.1 -17.1 86.95 L-16.25 89.05 -15.8 89.95 -15.9 90.1 -16.5 89.85 -17.35 90.05 Q-18.9 90.2 -20.05 89.2 L-22.3 86.95 -24.45 83.5 -24.6 83.1 -25.15 81.75 -25.35 80.9 -25.75 78.95 Q-26.0 76.95 -25.6 74.9 L-24.85 71.8 -24.65 71.15 -24.4 70.6 -24.15 70.1 -23.4 69.05 -23.35 69.0 -23.15 68.8 M0.0 71.3 Q0.5 71.05 1.05 70.95 L2.1 70.6 3.1 69.8 3.35 69.45 Q4.5 72.45 4.1 76.0 3.65 80.55 1.55 84.85 L0.9 85.85 -0.7 86.6 -1.5 86.95 -2.0 87.2 -2.25 87.05 -2.15 86.95 -1.8 86.45 -1.8 86.4 -1.6 85.95 Q-0.95 83.85 0.2 81.95 L1.25 79.45 1.45 76.6 Q1.25 74.65 0.65 72.85 L0.0 71.3 M-22.1 70.4 Q-22.5 70.45 -22.75 70.65 -24.0 72.15 -24.3 74.1 L-24.25 76.15 Q-23.95 77.9 -22.1 77.15 -21.65 76.65 -21.6 76.05 -21.5 74.25 -20.95 72.6 -20.35 70.7 -22.1 70.4" fill="#8b94a3" fill-rule="evenodd" stroke="none"/>
    <path d="M-14.35 14.7 Q-12.85 5.9 -5.2 1.3 -4.7 0.95 -4.2 0.95 -1.15 2.15 -3.55 4.65 L-6.85 8.75 Q-9.45 12.65 -11.7 16.75 -11.9 17.1 -12.25 17.1 -14.75 17.25 -14.35 14.7 M-18.45 24.4 L-17.65 24.3 -17.65 24.25 Q-14.9 25.55 -15.8 28.9 -16.9 33.25 -17.1 37.7 L-17.2 39.95 -20.4 40.55 -21.95 41.0 -22.85 41.35 Q-23.2 39.45 -23.15 37.45 -22.9 30.75 -19.15 25.25 L-18.6 24.7 -18.55 24.65 -18.45 24.4 M-13.6 55.3 L-15.75 55.45 Q-15.9 54.95 -15.65 54.4 -15.3 53.7 -14.55 53.7 -13.2 54.2 -13.6 55.3 M-16.65 55.5 L-17.0 55.6 -17.4 55.7 -17.15 55.55 -16.65 55.5 M-17.65 55.5 L-17.65 55.45 -17.6 55.5 -17.65 55.5 M-4.75 53.55 L-4.8 53.75 -4.75 53.55 M-16.7 45.8 L-16.85 45.8 -19.75 46.5 -19.85 46.55 -20.4 45.35 Q-20.6 44.6 -20.3 44.0 L-20.1 43.95 -19.45 43.9 -17.45 43.55 -17.1 43.5 Q-16.4 44.15 -16.7 45.7 L-16.7 45.8 M-17.65 48.55 L-16.1 48.3 -15.95 48.3 Q-14.35 49.05 -15.65 50.8 L-16.05 51.0 Q-18.35 51.3 -17.9 49.15 L-17.65 48.55 M-22.1 70.4 Q-20.35 70.7 -20.95 72.6 -21.5 74.25 -21.6 76.05 -21.65 76.65 -22.1 77.15 -23.95 77.9 -24.25 76.15 L-24.3 74.1 Q-24.0 72.15 -22.75 70.65 -22.5 70.45 -22.1 70.4" fill="#b3b9c1" fill-rule="evenodd" stroke="none"/>
    <path d="M-17.2 39.95 L-12.45 39.7 -5.95 40.25 -5.9 40.15 -5.85 40.4 -5.85 40.45 Q-2.8 41.2 -0.05 43.0 L0.85 43.65 0.95 44.3 Q0.95 45.25 -0.05 46.1 L-1.3 46.85 -1.7 47.05 -1.75 47.05 -1.95 47.15 -2.3 46.85 -2.3 46.35 -2.5 45.85 -2.65 45.55 -2.95 45.25 Q-3.45 44.8 -4.05 44.65 L-4.85 44.45 -7.95 43.75 -8.05 43.7 -8.75 43.6 -13.9 43.2 -17.1 43.5 -17.45 43.55 -19.45 43.9 -20.1 43.95 -20.3 44.0 -21.4 44.35 -22.45 45.45 -22.55 45.5 -22.6 45.55 -22.6 45.7 -22.7 45.95 -22.85 46.2 -22.85 46.25 -22.95 47.0 -22.9 47.15 -23.15 47.05 -23.85 46.7 -24.55 46.3 Q-25.85 45.4 -25.85 44.3 L-25.85 44.15 -25.7 43.55 -25.5 43.25 -25.5 43.2 -25.4 43.1 -24.4 42.2 -24.2 42.05 -22.85 41.35 -21.95 41.0 -20.4 40.55 -17.2 39.95 M-17.65 55.45 L-17.9 55.4 -18.4 55.2 Q-20.15 54.5 -20.1 53.55 L-20.05 53.25 -19.95 52.95 -19.85 52.85 -19.8 52.75 -19.7 52.7 -19.6 52.6 -19.45 52.45 -18.25 51.8 -18.1 51.75 -17.9 51.65 -16.95 51.4 -12.45 50.9 -10.2 51.0 -8.05 51.35 -7.95 51.4 -7.05 51.65 -6.65 51.8 -6.5 51.9 Q-5.85 52.15 -5.4 52.5 L-5.35 52.5 -5.1 52.8 -4.75 53.55 -4.8 53.75 -4.8 53.8 Q-5.0 54.4 -5.85 54.9 L-6.6 55.25 -6.6 55.2 -6.75 54.9 -6.85 54.8 -7.2 54.5 -7.25 54.5 Q-9.5 53.2 -11.95 53.3 -14.35 53.25 -16.7 54.25 L-17.1 54.55 -17.35 54.85 -17.55 55.25 -17.6 55.5 -17.65 55.45 M-20.35 51.25 L-21.25 50.85 -22.2 50.15 -22.55 49.7 -22.7 49.2 -22.7 49.1 -22.7 49.0 -22.65 48.8 -22.65 48.65 -22.45 48.2 -22.15 47.85 -22.15 47.8 -21.85 47.55 Q-21.15 47.0 -19.85 46.55 L-19.75 46.5 -16.85 45.8 -16.7 45.8 -12.5 45.5 -9.75 45.65 -8.95 45.75 -8.9 45.75 Q-6.95 45.95 -5.3 46.5 -4.2 46.9 -3.5 47.4 L-3.4 47.45 -3.15 47.6 -2.6 48.2 -2.55 48.25 -2.4 48.55 -2.3 49.0 Q-2.3 49.9 -3.5 50.65 L-3.75 50.8 -4.0 50.9 -4.45 51.1 -4.45 50.65 -4.55 50.35 -4.5 50.25 -4.5 50.2 -4.55 50.05 -4.55 50.0 -4.6 50.0 -4.6 49.9 -4.7 49.5 Q-4.8 49.35 -5.0 49.35 L-5.1 49.35 Q-5.5 48.85 -6.15 48.75 L-10.95 48.0 -11.9 47.95 -15.95 48.3 -16.1 48.3 -17.65 48.55 -17.8 48.6 Q-18.9 48.75 -19.8 49.25 L-19.9 49.2 -20.05 49.3 -20.1 49.4 -20.2 49.45 Q-20.45 49.7 -20.5 50.1 L-20.5 50.5 -20.5 50.75 -20.45 51.0 -20.35 51.2 -20.35 51.25" fill="#414652" fill-rule="evenodd" stroke="none"/>
    <path d="M-11.85 55.85 L-11.65 55.9 -10.3 56.9 -8.9 58.55 -8.25 60.4 Q-7.45 62.3 -7.9 64.45 -8.25 65.85 -9.35 66.85 -10.55 67.9 -12.0 68.55 -12.45 67.35 -13.6 66.85 -15.5 66.05 -17.55 66.15 L-19.2 66.35 Q-20.75 66.45 -21.95 67.35 L-23.4 68.8 -23.35 68.8 -23.15 68.8 -23.35 69.0 -23.4 69.05 -24.15 70.1 -24.4 70.6 -24.65 70.5 -24.65 70.45 -24.75 69.85 -24.7 69.2 -24.35 66.25 -24.35 66.1 -24.3 65.65 Q-23.65 63.55 -22.5 61.55 L-22.25 61.05 -21.35 59.9 -20.7 59.1 Q-20.4 58.35 -19.8 57.85 L-18.85 57.15 -18.65 57.1 Q-16.8 56.3 -14.8 56.0 L-14.0 55.9 -11.85 55.85 M-21.55 67.95 L-21.4 67.9 -20.3 67.55 -20.65 67.95 -21.55 67.95 M-21.3 61.45 Q-21.9 62.45 -21.65 63.65 -21.15 66.2 -18.65 65.1 L-18.3 64.55 -17.85 64.0 -16.3 61.65 Q-15.05 59.4 -17.25 58.75 -19.95 59.1 -21.3 61.45" fill="#878eb0" fill-rule="evenodd" stroke="none"/>
    <path d="M-21.3 61.45 Q-19.95 59.1 -17.25 58.75 -15.05 59.4 -16.3 61.65 L-17.85 64.0 -18.3 64.55 -18.65 65.1 Q-21.15 66.2 -21.65 63.65 -21.9 62.45 -21.3 61.45" fill="#b3b9ce" fill-rule="evenodd" stroke="none"/>
    <path d="M-11.85 55.85 L-10.35 55.9 -9.65 56.0 -8.25 56.3 -7.35 56.7 -6.85 57.0 -6.8 57.0 Q-4.4 57.0 -2.6 58.6 L-2.2 58.95 Q-0.7 59.95 0.15 61.45 L0.2 61.5 Q1.15 62.25 1.85 63.3 L2.5 64.45 2.9 65.3 2.85 65.6 2.9 66.55 2.35 68.5 2.05 68.8 1.35 69.3 Q-0.3 70.2 -2.25 70.25 L-7.25 70.85 -9.05 71.2 -9.4 71.2 -10.3 71.3 -10.35 71.3 -11.1 71.4 -11.2 71.4 -11.5 71.4 -11.5 70.65 -11.9 68.8 -12.0 68.55 Q-10.55 67.9 -9.35 66.85 -8.25 65.85 -7.9 64.45 -7.45 62.3 -8.25 60.4 L-8.9 58.55 -10.3 56.9 -11.65 55.9 -11.85 55.85 M-3.9 62.1 L-4.0 62.1 -4.1 62.1 -3.9 62.1" fill="#5e6781" fill-rule="evenodd" stroke="none"/>
  </g>
</svg>
