<?xml version="1.0" encoding="UTF-8" standalone="no"?>
<svg xmlns:xlink="http://www.w3.org/1999/xlink" height="120.65px" width="126.45px" xmlns="http://www.w3.org/2000/svg">
  <g transform="matrix(1.0, 0.0, 0.0, 1.0, 63.2, 60.3)">
    <path d="M-8.4 -58.0 Q-6.85 -59.15 -4.9 -59.9 -3.0 -60.7 -0.85 -59.95 L2.1 -58.25 4.85 -58.85 Q6.25 -59.15 7.5 -58.3 9.45 -58.8 10.85 -57.7 14.65 -59.55 18.5 -57.6 20.6 -56.1 20.35 -53.3 L19.8 -51.8 Q19.55 -51.0 18.7 -50.6 19.3 -49.5 18.9 -48.35 L17.9 -46.25 18.1 -45.2 Q21.2 -47.65 25.5 -48.15 29.8 -48.7 33.4 -46.95 36.85 -44.85 39.5 -41.6 41.55 -42.8 44.1 -42.7 46.3 -44.35 49.2 -43.35 52.95 -41.9 56.35 -39.4 59.7 -36.95 61.15 -32.95 61.2 -30.35 62.2 -28.1 63.15 -25.85 63.25 -23.25 63.25 -17.1 59.55 -12.2 55.8 -7.3 50.45 -4.75 47.65 -3.65 44.65 -3.4 42.25 7.4 39.0 17.85 35.85 25.9 30.7 32.95 29.1 35.05 27.15 36.65 28.4 39.75 27.15 42.55 25.85 45.3 23.95 47.5 20.85 51.1 17.05 54.0 13.2 56.85 8.85 58.2 8.05 58.15 7.25 58.75 L5.7 59.75 Q0.65 61.35 -3.95 58.8 -9.6 58.75 -14.45 55.85 -19.3 52.9 -22.6 48.2 L-24.4 44.45 Q-25.15 42.5 -23.8 40.5 -31.2 35.65 -35.35 28.35 -39.55 21.0 -42.15 13.05 -44.5 5.05 -45.65 -3.2 -50.65 -4.45 -54.9 -7.35 -59.55 -10.95 -61.85 -16.2 -64.15 -21.5 -62.5 -27.35 -61.7 -29.4 -61.4 -31.65 -61.05 -33.9 -59.8 -35.75 -57.75 -38.45 -54.9 -40.5 -52.1 -42.6 -48.8 -43.45 -46.25 -44.1 -44.2 -42.8 -42.1 -42.7 -40.25 -41.9 -37.65 -44.6 -34.3 -46.05 -31.0 -47.5 -27.25 -46.8 L-23.85 -45.85 Q-22.25 -45.35 -20.9 -44.05 -20.7 -44.8 -20.8 -45.4 -21.35 -45.55 -21.6 -46.15 L-22.05 -47.1 Q-22.15 -48.5 -21.75 -49.8 -21.35 -51.1 -22.05 -52.5 -22.25 -54.5 -20.95 -55.85 L-18.3 -58.1 Q-15.55 -59.65 -12.9 -57.8 -11.1 -59.25 -8.85 -58.3 L-8.4 -58.0 M10.55 -57.05 L10.6 -57.1 Q9.25 -58.05 7.8 -57.5 7.05 -57.25 6.95 -56.5 6.9 -55.8 6.35 -55.45 5.9 -56.15 6.3 -56.75 L6.95 -57.8 Q5.5 -58.2 3.95 -57.5 2.55 -57.0 1.5 -57.75 L-0.75 -58.95 Q-2.6 -59.85 -4.35 -59.0 L-7.8 -57.4 -7.85 -56.25 Q-8.0 -55.6 -8.55 -55.45 -8.35 -56.6 -9.05 -57.5 L-11.65 -57.55 -11.85 -57.55 -13.1 -56.75 -14.4 -57.6 -16.35 -57.8 -17.5 -57.45 -17.8 -57.35 -19.1 -56.5 -19.15 -56.45 -19.4 -56.15 -19.65 -55.9 -19.75 -55.8 -20.9 -54.0 Q-21.45 -52.6 -21.1 -51.05 L-20.7 -50.45 -20.85 -50.1 -20.9 -49.6 -20.9 -49.15 -20.9 -49.3 Q-21.05 -48.15 -20.8 -47.1 -19.85 -46.25 -19.95 -45.3 L-20.05 -43.05 Q-20.1 -41.55 -18.95 -40.55 -17.85 -39.6 -18.2 -37.95 L-19.55 -39.4 -19.75 -37.85 Q-19.9 -36.55 -19.5 -35.45 L-20.3 -34.6 -20.6 -34.0 -20.6 -33.9 -21.75 -33.7 -22.95 -32.9 -23.9 -32.65 -24.25 -32.6 -24.7 -32.55 -26.15 -32.35 -26.3 -32.2 -26.5 -32.1 -27.6 -31.85 -27.65 -30.8 Q-27.5 -30.3 -27.8 -29.85 L-27.75 -29.8 -27.65 -29.75 -27.6 -29.7 Q-26.65 -29.05 -25.4 -29.05 L-25.25 -29.05 -24.05 -29.25 -23.7 -29.35 -23.5 -29.4 Q-22.6 -29.6 -22.0 -28.95 -21.3 -28.25 -20.35 -27.95 -20.2 -27.2 -19.05 -27.4 L-18.8 -27.5 -18.6 -26.2 -18.35 -25.3 -18.3 -25.15 -18.3 -25.1 -18.3 -25.0 -18.35 -24.8 -18.35 -24.7 -18.4 -24.5 -18.5 -24.2 -18.95 -23.5 Q-18.85 -24.7 -19.55 -25.5 -20.2 -24.45 -20.35 -23.2 -20.4 -21.55 -19.35 -20.3 -17.95 -19.9 -16.8 -18.65 -15.65 -17.5 -14.15 -17.15 -11.75 -16.8 -9.7 -18.15 L-8.7 -18.95 -8.55 -19.1 -8.3 -18.75 -10.25 -16.4 -10.4 -16.25 -10.3 -16.15 Q-9.25 -15.05 -7.75 -14.8 L-4.9 -14.55 -4.75 -14.55 -4.0 -15.3 -3.95 -15.4 Q-3.2 -16.3 -2.7 -17.35 L-2.65 -17.1 Q-2.5 -16.45 -2.85 -15.75 L-3.15 -15.15 -3.65 -14.05 0.0 -12.7 Q1.95 -12.15 3.95 -12.65 5.9 -13.3 7.15 -14.65 L7.45 -15.0 7.6 -15.25 6.55 -17.15 6.15 -17.6 Q5.8 -17.75 5.95 -18.05 L6.4 -17.8 6.45 -17.8 6.7 -17.65 7.0 -17.45 7.05 -17.4 7.45 -17.15 7.55 -17.05 Q8.3 -16.45 9.25 -16.25 L11.65 -16.8 Q12.85 -17.0 13.75 -18.05 14.35 -19.1 14.3 -20.3 L14.1 -22.55 13.0 -21.65 12.95 -21.65 12.7 -21.4 12.5 -21.65 16.55 -26.7 16.65 -26.85 Q16.8 -27.2 16.5 -27.35 L16.1 -27.55 15.9 -27.75 15.7 -28.3 Q15.45 -28.55 15.85 -28.8 L16.05 -28.6 16.55 -28.4 20.3 -28.5 Q21.0 -29.8 22.55 -29.65 24.05 -29.5 24.15 -31.0 L24.15 -31.95 23.9 -32.2 23.4 -32.3 Q22.35 -32.2 21.85 -33.05 20.4 -32.5 19.45 -33.85 18.5 -35.25 17.1 -34.75 L16.55 -32.85 16.05 -32.75 15.9 -32.85 15.9 -33.0 Q16.0 -34.5 15.7 -35.75 L15.6 -36.15 Q15.05 -37.65 15.5 -39.3 L16.9 -42.55 Q17.45 -44.2 16.95 -46.05 L16.95 -46.15 17.95 -48.2 Q18.35 -49.25 17.75 -50.35 16.05 -49.4 14.15 -49.3 L12.05 -49.5 10.8 -50.55 10.3 -51.45 10.7 -50.95 10.85 -51.3 Q11.35 -50.4 12.65 -50.1 16.1 -49.8 18.7 -52.3 L19.2 -54.15 Q19.4 -55.15 18.8 -55.95 L18.4 -56.25 Q16.45 -57.75 14.1 -57.7 L13.65 -57.65 12.65 -57.55 12.55 -57.5 Q11.9 -57.2 11.35 -56.7 11.2 -57.1 10.55 -57.05 M-11.65 -54.05 L-11.7 -53.75 -11.9 -53.15 Q-12.45 -51.35 -14.05 -50.15 L-17.4 -48.55 -17.45 -48.55 -17.8 -48.65 -18.05 -48.55 -17.95 -49.2 Q-16.75 -49.4 -15.5 -50.2 -13.85 -51.3 -12.95 -52.9 L-12.7 -53.9 -11.65 -54.05 M14.65 -55.55 L14.45 -56.05 14.75 -56.1 Q15.3 -56.15 15.65 -55.65 L16.4 -54.65 Q16.8 -53.15 15.6 -52.55 L14.6 -52.7 Q15.05 -54.2 14.65 -55.55 M26.75 -47.25 L26.5 -47.25 23.1 -46.5 Q20.2 -45.6 18.25 -43.45 L17.75 -41.75 17.0 -39.75 Q16.5 -38.75 16.6 -37.7 16.6 -36.8 17.05 -35.9 18.45 -36.3 19.4 -35.05 20.3 -33.8 21.6 -34.1 L21.65 -34.25 21.7 -34.25 Q22.0 -33.6 22.9 -33.5 L23.0 -33.5 22.95 -33.35 23.7 -33.15 25.0 -32.85 26.5 -33.55 27.1 -33.7 27.1 -33.55 27.15 -33.3 Q25.75 -33.1 24.85 -31.9 25.3 -31.4 25.15 -30.75 L25.05 -30.35 25.05 -29.55 26.45 -28.7 26.35 -28.3 Q25.5 -28.65 24.7 -29.3 24.55 -28.75 23.95 -28.65 L22.95 -28.65 22.95 -28.25 21.95 -28.0 21.15 -27.5 21.0 -27.55 20.7 -27.4 Q19.1 -26.8 17.9 -26.9 17.15 -25.15 15.6 -23.9 15.5 -22.65 15.7 -21.3 L15.8 -20.4 15.7 -20.15 Q19.0 -16.6 18.5 -11.95 L19.7 -11.45 20.1 -11.25 20.2 -11.15 21.45 -10.5 21.65 -10.4 23.3 -9.3 22.4 -9.9 22.8 -10.8 Q23.2 -11.65 23.9 -12.3 L24.45 -12.75 Q25.3 -13.35 26.3 -13.5 L26.2 -13.6 26.8 -13.5 27.1 -13.45 27.15 -13.4 Q28.1 -9.75 26.85 -6.25 26.1 -4.2 25.05 -2.3 L23.4 0.25 23.05 0.45 22.55 0.75 22.3 0.4 22.05 0.15 21.85 -0.15 21.75 -0.4 Q21.05 -1.75 21.15 -3.25 L21.05 -3.25 18.65 -3.55 17.9 -3.7 15.9 -4.35 Q14.55 -2.25 12.65 -0.8 L12.1 -1.5 12.15 -1.7 11.9 -1.4 14.75 -4.65 Q16.7 -7.9 17.15 -11.5 17.6 -15.1 15.25 -18.3 L14.45 -17.05 Q13.9 -15.75 12.8 -15.2 L12.15 -14.95 10.8 -14.6 9.1 -14.35 6.65 -11.55 6.55 -11.5 6.35 -11.4 5.7 -11.1 3.9 -10.6 3.85 -10.6 2.45 -10.6 1.95 -10.7 1.5 -10.8 1.45 -10.8 1.3 -10.85 1.1 -10.9 0.9 -10.95 Q-1.15 -11.55 -3.0 -12.5 L-3.55 -12.8 Q-5.6 -11.95 -7.35 -12.85 -9.15 -13.75 -10.75 -15.15 -11.15 -16.2 -11.85 -15.6 -12.55 -15.1 -13.35 -15.25 -16.15 -15.75 -17.8 -17.95 L-18.0 -18.2 -18.05 -18.3 -18.05 -18.25 -18.65 -17.25 -18.85 -16.35 -18.95 -15.8 Q-19.55 -12.35 -18.45 -9.0 L-18.4 -8.95 -18.3 -8.65 Q-17.7 -6.9 -16.65 -5.3 L-15.95 -4.3 -14.0 -2.1 -13.95 -2.1 -13.75 -2.35 -13.85 -2.1 -14.3 -0.95 -14.65 -0.05 -15.3 0.65 Q-16.45 1.8 -16.5 3.35 L-16.45 5.6 -16.4 6.35 Q-16.15 7.45 -15.25 7.95 L-15.05 8.05 -12.85 8.75 Q-13.25 10.55 -12.35 12.1 -9.7 13.35 -9.75 16.3 L-9.6 16.65 -9.55 16.75 -9.4 17.0 -9.35 17.05 Q-8.8 17.1 -8.6 16.55 -8.25 11.95 -8.7 7.25 -9.15 5.8 -10.1 4.65 L-8.6 2.95 -8.55 2.8 -8.6 2.8 -8.5 2.75 -8.5 2.6 -8.25 1.7 -8.25 1.4 -8.25 1.8 Q-1.8 4.6 5.25 2.15 L5.8 2.45 5.95 3.15 6.05 3.1 6.1 3.25 6.2 3.45 Q6.7 4.25 7.7 4.4 8.9 4.55 8.75 6.15 L8.25 8.65 8.6 12.1 Q8.55 13.9 9.05 15.5 9.55 15.55 9.9 15.0 9.85 12.05 11.0 9.55 L11.2 9.0 12.4 5.55 12.5 5.05 Q15.7 10.45 11.55 15.85 L10.0 17.5 Q0.8 22.5 -9.85 18.6 -13.35 17.3 -15.3 14.95 L-15.55 14.7 -15.6 14.65 -18.0 12.35 -18.15 12.2 Q-19.7 11.0 -20.8 9.25 L-22.45 6.6 -24.25 3.3 -24.75 1.8 -24.65 1.8 -23.25 1.75 -23.0 1.7 -20.2 -0.3 -19.95 -0.6 Q-19.5 -1.95 -19.9 -3.1 L-20.0 -3.8 -20.1 -4.2 -20.2 -4.55 -18.5 -4.8 -17.75 -4.4 -17.8 -4.7 -18.4 -5.85 -19.5 -8.7 -19.9 -10.1 -20.05 -10.85 -20.05 -11.4 -20.05 -11.65 -20.15 -12.3 -20.2 -12.3 -20.15 -12.15 -22.1 -11.5 -22.15 -11.85 -22.15 -11.8 -22.2 -12.1 -22.25 -12.2 -22.4 -12.5 -22.35 -12.65 Q-23.15 -14.15 -24.4 -14.9 L-27.1 -14.85 -27.15 -14.8 -27.25 -14.75 -27.55 -14.5 Q-27.1 -14.25 -26.45 -14.3 -24.9 -13.45 -24.55 -11.85 -24.45 -11.35 -24.0 -11.2 L-24.55 -11.05 -26.95 -10.05 -27.55 -9.65 -27.6 -9.6 -29.9 -8.7 -29.8 -7.8 -29.7 -7.8 -29.75 -7.5 -29.95 -9.15 -29.9 -11.0 Q-29.65 -12.7 -28.3 -13.95 L-28.05 -14.05 -27.8 -14.3 -28.15 -16.45 -28.75 -16.2 -30.65 -15.35 -30.85 -15.15 -32.6 -14.6 -32.75 -14.55 -35.1 -14.0 -39.0 -13.55 -40.8 -13.5 -43.35 -13.6 -43.55 -13.6 -43.95 -13.1 -44.6 -11.45 -44.7 -11.0 -44.7 -10.9 -44.6 -5.9 -44.2 -1.55 -44.15 -1.25 -43.65 1.7 -42.35 7.55 -40.55 13.45 -39.85 15.45 -38.85 18.1 -38.5 18.95 -37.15 21.9 -35.25 25.75 -34.65 26.85 -33.75 28.55 -33.7 28.6 -32.95 29.95 -31.7 31.95 Q-30.5 33.75 -28.85 35.25 L-28.6 35.55 -28.4 35.75 Q-25.65 38.65 -21.9 40.1 L-21.8 40.15 -21.5 40.25 -21.55 40.25 -16.0 41.85 -13.1 42.4 -11.1 42.5 -5.25 42.75 2.25 43.55 9.05 42.9 Q13.25 42.3 17.1 40.55 L17.4 40.45 22.65 37.8 23.35 37.4 23.4 37.4 23.5 37.3 26.75 34.9 29.7 31.7 30.1 31.25 30.45 30.9 30.35 30.9 Q32.85 27.75 34.75 24.5 36.85 20.8 38.2 16.5 L39.7 11.45 41.15 6.2 42.5 0.75 43.4 -3.3 43.95 -6.3 44.2 -10.85 44.15 -11.6 43.85 -14.85 43.85 -14.9 43.65 -15.9 43.55 -16.35 43.1 -17.4 39.15 -16.7 38.3 -16.7 37.7 -16.7 37.35 -16.7 35.55 -16.7 34.95 -16.75 33.2 -16.85 32.8 -16.9 31.5 -17.05 30.3 -17.25 28.55 -17.55 28.0 -17.65 27.65 -17.75 26.3 -18.05 25.8 -18.15 17.45 -20.05 16.55 -20.3 16.6 -20.5 16.75 -20.55 18.65 -20.35 21.0 -20.0 21.05 -20.0 21.35 -19.95 21.5 -19.9 23.1 -19.55 25.95 -18.95 26.7 -18.8 26.85 -18.8 28.55 -18.45 29.85 -18.2 30.3 -18.15 31.95 -17.8 32.1 -17.8 33.2 -17.55 33.9 -17.5 34.6 -17.35 38.45 -17.65 42.55 -18.3 Q45.15 -20.4 45.2 -23.75 45.25 -27.05 44.3 -30.05 L42.9 -33.6 41.85 -35.75 41.15 -37.05 41.15 -37.0 40.3 -38.5 40.1 -38.85 39.85 -39.2 39.05 -40.4 38.75 -40.8 37.55 -42.3 Q34.15 -46.05 28.9 -47.35 L26.75 -47.25 M9.8 -37.45 L9.95 -37.5 10.0 -37.5 10.1 -37.5 10.5 -37.4 10.7 -37.35 10.85 -37.2 11.2 -37.0 12.1 -35.95 12.35 -35.45 12.4 -35.25 12.45 -33.95 12.2 -33.4 Q12.0 -32.85 11.5 -32.45 L11.45 -32.4 Q10.9 -32.5 10.6 -32.75 L10.5 -32.85 10.3 -33.0 Q9.25 -33.95 9.0 -35.3 8.7 -35.95 8.95 -36.65 L9.15 -36.9 9.35 -37.05 9.8 -37.45 M16.9 -29.9 L17.05 -30.0 Q17.4 -30.05 17.7 -30.25 L18.55 -30.6 18.8 -30.65 Q19.3 -30.8 19.45 -31.25 L19.5 -31.25 Q19.95 -31.6 20.25 -31.1 L20.45 -31.1 19.15 -30.4 19.1 -30.35 19.05 -30.25 19.0 -30.25 18.45 -29.75 18.3 -29.7 16.9 -29.9 M-1.8 -26.65 L-2.0 -27.15 Q-2.7 -28.8 -2.65 -30.7 -2.65 -32.6 -1.7 -34.15 L-0.75 -34.75 0.1 -34.65 0.15 -34.6 0.25 -34.4 0.3 -34.3 1.05 -31.65 1.1 -31.15 Q1.4 -29.4 0.85 -27.75 L-0.25 -26.25 -1.3 -26.35 -1.8 -26.65 M-9.65 -29.9 L-9.75 -30.05 Q-10.1 -30.55 -10.1 -31.15 -10.15 -33.25 -9.2 -35.1 L-8.95 -35.55 Q-8.6 -36.6 -7.6 -36.8 L-7.45 -36.75 Q-6.85 -36.65 -6.85 -36.05 L-6.7 -35.8 -6.7 -35.7 -6.6 -35.2 Q-6.05 -33.0 -6.55 -30.9 -7.3 -29.8 -8.4 -29.1 L-8.5 -29.1 Q-8.85 -29.05 -9.1 -29.4 L-9.25 -29.6 -9.65 -29.9 M5.95 -26.8 Q4.4 -28.8 5.3 -31.25 5.6 -31.9 6.25 -32.0 L6.4 -32.0 7.15 -31.15 7.5 -30.45 7.75 -28.4 7.65 -28.0 7.45 -27.35 7.25 -27.1 7.1 -26.85 6.2 -26.6 6.1 -26.65 5.95 -26.8 M-10.35 -7.05 L-8.55 -6.35 -7.35 -5.75 -7.25 -5.7 -5.8 -3.95 -5.55 -3.5 -5.8 -3.55 Q-7.4 -5.3 -9.6 -6.0 L-9.65 -5.95 -10.15 -6.1 Q-10.25 -6.3 -10.65 -6.3 L-10.8 -6.2 -11.25 -5.9 -12.75 -4.45 -12.85 -4.2 -12.85 -4.15 -12.9 -4.15 -12.85 -4.5 -12.85 -4.55 -12.85 -5.3 -12.9 -5.5 -12.9 -5.6 -12.5 -6.25 -12.35 -6.35 -11.55 -6.7 -10.35 -7.05 M9.4 -6.0 L9.75 -5.3 9.65 -4.35 9.65 -4.2 9.45 -4.3 8.55 -5.4 8.05 -5.9 7.45 -6.4 9.25 -6.05 9.4 -6.0 M2.35 -2.85 L2.7 -2.25 2.8 -2.1 Q3.05 -1.45 3.6 -1.25 L3.7 -0.55 3.95 -0.05 2.7 -0.1 Q1.55 -0.65 1.0 -1.85 L0.95 -2.05 0.95 -2.2 1.3 -2.1 1.9 -2.25 2.35 -2.85 M21.4 -9.5 L21.2 -9.6 21.0 -9.7 20.2 -10.0 19.6 -10.2 19.3 -10.45 18.4 -10.8 Q18.1 -9.0 17.45 -7.3 L16.4 -5.05 Q17.05 -4.9 18.05 -5.05 18.15 -4.75 18.6 -4.8 L20.05 -4.75 20.2 -4.65 20.55 -4.7 20.95 -5.0 21.15 -5.55 20.95 -5.0 20.7 -4.45 21.25 -4.25 22.3 -4.15 22.45 -3.95 Q22.85 -3.8 23.1 -3.95 L23.2 -3.9 23.6 -3.8 Q24.05 -3.75 24.3 -4.1 L25.0 -5.45 25.3 -6.9 Q25.35 -7.55 24.85 -7.75 L24.8 -7.85 24.5 -8.0 24.45 -8.05 24.15 -8.2 23.95 -8.15 24.05 -8.2 23.2 -8.45 22.85 -8.65 22.8 -8.65 22.2 -8.9 22.15 -8.95 21.8 -9.25 21.45 -9.5 21.4 -9.5 M51.8 -19.8 Q52.1 -19.0 52.7 -18.3 L53.1 -18.15 54.8 -18.0 Q57.6 -18.95 58.95 -21.65 60.75 -24.9 60.6 -28.8 60.4 -32.75 58.55 -35.9 54.4 -40.35 49.0 -42.45 L48.1 -42.75 47.0 -42.8 47.0 -42.85 46.5 -42.9 46.35 -42.9 Q46.25 -42.95 46.25 -42.95 L46.0 -42.95 45.8 -42.95 45.45 -42.85 44.95 -42.6 44.9 -42.55 45.2 -42.2 Q50.15 -35.85 51.45 -28.05 51.95 -25.65 51.5 -23.0 51.2 -21.3 51.8 -19.8 M46.7 -37.8 L45.3 -39.75 44.15 -41.65 Q42.55 -41.8 41.15 -41.05 L43.8 -36.3 44.05 -35.9 44.35 -35.2 45.0 -33.85 45.1 -33.65 45.2 -33.3 45.8 -31.45 46.2 -30.1 46.25 -29.65 46.6 -26.9 46.65 -26.45 46.7 -25.95 46.45 -23.2 45.85 -20.35 45.3 -18.7 45.15 -18.15 44.95 -17.75 Q44.7 -16.85 44.95 -16.0 45.95 -12.9 45.8 -9.55 L45.65 -8.75 Q45.35 -7.65 45.6 -6.8 45.2 -6.15 45.35 -5.2 L45.45 -5.1 45.2 -4.3 Q49.75 -5.05 53.6 -7.65 57.5 -10.3 60.1 -14.15 61.25 -17.1 61.9 -20.45 62.4 -23.45 62.0 -26.1 L61.85 -26.75 61.75 -26.2 Q61.1 -23.5 59.8 -20.9 58.35 -18.0 55.15 -16.9 53.2 -16.3 51.75 -17.3 L51.15 -18.3 Q50.5 -19.7 50.6 -21.25 L50.6 -21.55 50.7 -23.05 Q50.8 -27.6 49.6 -31.6 L49.55 -31.75 48.85 -33.65 48.55 -34.35 46.7 -37.8 M31.55 -21.75 L31.55 -21.65 31.55 -21.7 31.55 -21.75 M-16.7 -55.9 L-16.1 -55.75 Q-17.0 -54.75 -16.55 -53.55 -16.2 -52.35 -17.5 -52.1 -18.1 -52.65 -18.15 -53.2 -18.25 -53.8 -17.85 -54.4 L-17.2 -55.55 -16.7 -55.9 M-46.7 -42.95 Q-49.5 -42.65 -51.95 -41.15 L-56.5 -37.85 Q-58.75 -36.4 -59.5 -34.1 -60.35 -31.8 -60.65 -29.35 -60.75 -26.3 -59.8 -23.5 L-59.6 -22.95 Q-58.45 -19.9 -55.45 -18.2 L-52.65 -18.4 Q-51.35 -19.7 -51.5 -21.5 -52.55 -33.3 -45.05 -42.15 L-45.05 -42.75 -46.2 -42.95 -46.65 -42.95 -46.7 -42.95 M-54.6 -16.7 L-54.7 -16.7 -55.0 -16.75 Q-58.25 -17.85 -59.7 -20.75 -61.2 -23.7 -61.85 -26.75 -62.8 -22.5 -61.45 -18.25 -61.1 -16.65 -60.4 -15.2 L-59.2 -13.05 -57.0 -10.45 -56.8 -10.25 -55.95 -9.45 -55.05 -8.7 Q-51.0 -5.55 -46.05 -4.4 L-46.3 -6.85 Q-46.1 -7.5 -46.2 -8.2 L-46.2 -8.5 -45.55 -12.6 -45.05 -13.15 Q-44.85 -13.35 -44.95 -13.6 L-45.45 -14.5 -45.45 -14.55 -45.85 -15.6 -45.9 -15.75 -46.5 -17.9 Q-47.1 -20.5 -47.0 -23.3 L-46.9 -27.5 -46.9 -27.55 -46.85 -27.65 -46.85 -27.7 -46.9 -27.65 Q-45.25 -34.9 -41.15 -41.05 -42.55 -41.8 -44.15 -41.65 L-47.65 -36.15 Q-49.35 -33.35 -50.0 -30.2 -51.05 -27.15 -50.6 -23.55 L-50.55 -22.7 Q-50.4 -19.7 -51.9 -17.2 -52.35 -16.95 -52.85 -16.8 L-53.75 -16.65 -54.05 -16.65 -54.4 -16.7 -54.6 -16.7 M-25.5 -45.45 L-25.6 -45.45 -25.65 -45.5 -29.8 -46.15 -30.2 -46.1 -34.55 -44.8 Q-37.35 -43.55 -39.65 -41.15 -43.25 -36.35 -44.95 -30.55 -46.0 -27.1 -46.0 -23.45 L-45.95 -21.85 -45.9 -21.45 -45.5 -18.35 -45.35 -18.05 -45.4 -18.1 -45.25 -17.8 -45.15 -17.6 -44.6 -16.25 -44.6 -16.2 Q-44.2 -15.25 -43.3 -14.7 L-43.2 -14.65 -43.0 -14.55 -41.0 -14.3 -40.35 -14.3 Q-36.7 -14.15 -33.2 -15.25 L-32.75 -15.4 -32.7 -15.4 -31.8 -15.7 -31.8 -15.75 -31.65 -15.8 -30.9 -16.1 -28.95 -16.85 -28.2 -17.2 -28.3 -23.2 -28.2 -23.2 -28.1 -23.2 Q-26.9 -23.7 -26.05 -24.75 L-25.9 -24.95 Q-25.25 -25.65 -24.9 -26.55 L-24.85 -26.7 -24.5 -27.6 -24.45 -27.65 -24.45 -27.75 -25.45 -27.85 -25.5 -27.9 -25.6 -27.85 -25.8 -27.85 -25.95 -27.9 Q-26.8 -28.05 -27.3 -28.45 -28.1 -27.1 -29.2 -26.2 L-29.35 -26.15 -29.85 -26.0 -30.1 -25.9 -30.1 -25.95 -30.15 -26.1 Q-29.1 -26.7 -28.3 -27.7 -27.65 -28.55 -28.45 -29.35 -29.3 -30.1 -28.7 -31.15 L-29.0 -31.35 -29.3 -31.55 -30.7 -32.1 -31.0 -32.2 -30.95 -32.7 -28.85 -31.95 -28.6 -31.85 Q-28.7 -32.75 -28.1 -32.75 -27.5 -32.75 -27.05 -33.1 L-26.85 -33.2 -26.45 -33.35 Q-25.95 -33.6 -25.5 -33.8 L-25.25 -33.95 -25.35 -34.05 -25.55 -34.4 -26.25 -35.55 -26.3 -35.65 Q-25.0 -39.2 -21.2 -40.05 L-20.3 -39.8 -20.2 -40.2 -20.65 -41.2 -20.95 -42.3 -21.0 -42.7 -21.05 -43.25 Q-22.05 -43.75 -22.95 -44.5 L-25.5 -45.45 M-30.7 -37.55 L-31.0 -37.3 -31.75 -36.4 Q-32.05 -36.0 -31.7 -35.85 L-31.8 -35.75 Q-32.35 -35.2 -32.35 -34.5 L-32.3 -34.45 -32.3 -34.4 -32.25 -34.4 -32.15 -34.45 -31.5 -34.9 -32.05 -32.75 -32.1 -30.9 -31.9 -28.0 -31.6 -26.55 -32.1 -27.5 -32.1 -27.55 -32.2 -27.65 -32.3 -27.65 -32.35 -27.65 -32.35 -27.6 -32.4 -27.5 -32.4 -27.45 -32.5 -26.55 -32.3 -25.75 Q-31.8 -24.5 -30.9 -23.55 L-30.2 -23.0 -30.55 -23.1 -31.1 -23.2 -31.15 -23.3 -31.45 -23.65 -31.55 -23.75 -31.7 -24.0 -31.7 -23.95 Q-32.95 -25.75 -33.15 -27.95 -33.45 -31.5 -32.65 -35.0 L-32.6 -35.0 Q-32.3 -36.35 -31.1 -37.3 L-30.7 -37.55 M-14.5 -35.0 L-14.5 -35.65 -14.3 -35.95 -14.15 -36.2 -12.85 -38.35 -12.75 -38.45 -11.65 -39.0 -11.55 -39.05 -11.45 -39.05 -11.2 -39.1 -11.25 -38.85 Q-10.95 -38.6 -11.35 -38.05 L-11.75 -37.45 -12.0 -37.05 -12.15 -36.7 Q-12.65 -35.55 -13.5 -34.8 L-13.75 -34.7 Q-14.35 -34.65 -14.5 -35.0 M-17.85 -32.2 L-17.75 -32.05 -17.8 -31.95 -17.85 -32.2 M-32.55 -8.4 L-32.4 -8.0 -32.35 -7.8 -32.45 -7.75 -32.5 -8.0 -32.55 -8.4 M-28.7 -3.8 L-28.8 -3.75 -28.85 -3.85 -28.7 -3.8 M-9.55 -2.4 L-8.15 -4.45 Q-8.0 -4.2 -8.25 -3.95 -7.5 -3.2 -8.3 -2.7 L-9.15 -2.05 -9.5 -1.55 Q-9.9 -0.75 -10.65 -0.5 L-9.55 -2.4 M-11.8 0.25 L-11.95 0.2 -11.85 0.15 -11.8 0.25 M-11.05 5.35 L-11.0 5.25 -10.95 5.45 -10.8 5.7 -11.05 5.35 M-9.55 12.25 L-9.5 12.45 -9.55 12.4 -9.55 12.25 M-22.0 -3.9 Q-22.4 -3.6 -22.0 -2.95 L-21.95 -2.05 Q-21.8 -0.75 -22.55 0.45 -23.1 1.25 -24.05 1.25 -24.7 1.25 -24.9 1.65 -27.2 0.0 -28.35 -2.55 L-28.05 -2.55 Q-26.95 -2.65 -25.95 -3.15 L-25.9 -3.15 -26.05 -3.1 -25.85 -3.2 -23.0 -3.75 -22.75 -3.75 -22.75 -3.8 -22.5 -3.7 -22.4 -3.65 -22.2 -3.6 -22.0 -3.9 M9.85 39.95 L8.35 38.8 7.6 37.65 Q7.25 36.85 7.2 35.9 7.3 33.95 9.15 32.7 10.95 31.7 13.1 31.9 15.25 32.05 16.45 33.85 L16.75 35.0 16.75 35.45 16.7 36.15 16.75 36.15 Q15.45 39.05 12.35 39.7 L10.7 40.25 10.55 40.2 9.85 39.95 M-17.3 34.85 L-16.75 36.8 Q-15.6 38.3 -14.0 38.8 L-10.5 39.15 Q-8.5 38.2 -7.4 36.15 -6.95 34.75 -6.95 33.55 -7.05 31.5 -8.6 29.8 -9.9 28.3 -12.0 28.35 L-13.45 28.6 Q-14.0 28.75 -14.55 29.05 -15.95 29.55 -16.9 30.95 -17.85 32.45 -17.5 33.95 L-17.45 34.15 -17.3 34.85 M-11.55 27.4 Q-9.75 27.75 -8.3 29.05 -5.8 31.3 -6.3 35.0 -6.65 36.75 -7.9 38.2 L-8.2 38.5 -8.25 38.55 -9.4 39.45 -9.65 39.55 -9.85 39.65 -14.55 39.3 -15.7 38.7 -16.15 38.45 -17.15 37.85 -17.25 37.9 -17.75 37.2 -18.25 36.5 -19.1 35.0 Q-19.85 31.75 -17.75 29.15 -15.35 26.3 -11.55 27.4 M-18.4 43.95 L-19.45 43.6 Q-20.0 43.15 -20.65 43.1 L-23.1 41.3 Q-24.5 43.55 -23.05 45.7 L-20.15 49.65 -18.0 51.95 Q-16.05 53.8 -13.65 55.1 L-13.0 55.4 -12.55 55.65 Q-9.8 56.9 -6.9 57.45 L-5.6 57.65 -6.6 56.8 Q-8.6 55.1 -10.15 52.95 L-10.7 52.25 Q-12.8 49.15 -13.4 45.5 L-18.4 43.95 M6.5 44.65 L-1.6 45.05 -2.0 45.05 -6.45 44.95 -6.5 44.95 -11.15 44.55 -12.7 44.35 Q-11.85 48.55 -9.4 51.95 L-9.05 52.45 Q-6.9 55.45 -3.85 57.45 -0.8 59.4 2.7 59.25 L2.8 59.25 2.85 59.25 3.0 59.25 3.1 59.25 Q5.2 59.15 6.8 57.75 8.55 56.2 9.95 54.3 14.05 49.0 15.3 42.9 13.2 43.95 11.0 44.15 L8.1 44.55 6.5 44.65 M21.55 -3.2 L21.4 -3.2 21.55 -3.2 M7.15 2.65 L7.15 2.6 7.15 2.65 M5.6 -0.1 L5.5 -0.1 5.25 0.25 5.55 -0.15 5.6 -0.1 M5.6 -2.55 L4.45 -3.75 Q4.95 -3.95 4.9 -4.25 L5.4 -4.15 6.2 -2.95 6.2 -2.9 Q6.65 -2.3 6.55 -1.6 L5.6 -2.55 M-5.75 0.95 Q-6.85 1.0 -7.85 0.45 L-7.9 0.5 -7.4 -0.8 -6.35 -1.7 -6.2 -1.85 -5.45 -2.65 -5.35 -2.85 -5.3 -3.0 -5.25 -2.85 -4.9 -1.4 Q-4.65 -0.35 -5.35 0.5 L-5.75 0.95 M2.8 30.8 L2.75 31.0 Q2.5 31.55 3.0 32.0 3.45 32.4 4.05 32.3 L5.15 32.1 6.2 31.2 Q6.65 30.75 6.5 30.0 6.1 28.8 4.75 28.85 L4.7 28.9 4.0 28.9 3.8 28.95 3.7 28.9 Q3.45 28.9 3.25 29.05 3.05 29.15 3.0 29.4 2.7 29.7 2.65 30.2 L2.75 30.75 2.8 30.8 M4.4 28.15 L5.35 28.15 6.3 28.55 Q7.5 29.45 7.25 30.9 6.3 32.8 4.2 33.0 2.5 33.0 1.75 31.45 1.3 30.35 1.75 29.3 2.75 28.6 4.1 28.25 L4.4 28.15 M10.85 33.45 L10.25 33.45 Q9.05 33.7 8.85 34.85 8.75 35.35 9.0 35.75 8.65 36.6 8.7 37.7 L8.6 37.6 8.65 37.7 9.4 38.75 Q10.45 39.5 11.8 39.35 13.9 39.05 15.35 37.5 16.15 36.0 15.8 34.35 15.05 33.25 14.0 32.8 L12.75 32.75 12.7 32.75 11.85 32.95 11.25 33.15 11.2 33.2 10.85 33.45 M25.65 43.0 Q26.9 40.7 26.5 38.1 L25.9 38.9 Q21.4 42.5 16.2 44.3 14.35 51.6 8.9 57.35 16.85 54.1 22.45 47.35 L22.75 47.25 25.65 43.0" fill="#000000" fill-rule="evenodd" stroke="none"/>
    <path d="M-11.65 -57.55 L-9.05 -57.5 Q-8.35 -56.6 -8.55 -55.45 -8.0 -55.6 -7.85 -56.25 L-7.8 -57.4 -4.35 -59.0 Q-2.6 -59.85 -0.75 -58.95 L1.5 -57.75 Q2.55 -57.0 3.95 -57.5 5.5 -58.2 6.95 -57.8 L6.3 -56.75 Q5.9 -56.15 6.35 -55.45 6.9 -55.8 6.95 -56.5 7.05 -57.25 7.8 -57.5 9.25 -58.05 10.6 -57.1 L10.55 -57.05 Q8.7 -55.2 9.35 -52.35 L9.65 -51.85 9.3 -52.0 9.3 -52.05 8.55 -52.3 8.15 -52.2 7.55 -51.7 7.3 -51.1 6.3 -53.05 Q5.2 -53.15 4.25 -53.55 L3.75 -53.8 3.5 -53.3 Q3.45 -54.8 2.15 -54.55 L2.15 -54.85 Q1.8 -56.0 0.7 -56.4 L-0.95 -56.75 -1.0 -56.65 -1.25 -56.75 -1.4 -56.35 Q-1.65 -56.6 -2.0 -56.65 L-2.4 -56.6 -2.95 -56.3 -3.65 -55.5 -3.7 -55.5 -3.9 -55.15 -4.1 -54.95 -4.55 -53.75 -4.45 -53.4 -5.8 -53.8 -5.65 -53.95 -5.3 -54.6 -4.15 -56.0 -4.2 -56.25 -4.15 -56.35 -4.25 -56.3 -4.75 -56.4 -5.4 -56.3 Q-6.55 -56.1 -7.2 -55.15 L-7.3 -55.05 Q-7.8 -54.6 -7.5 -53.95 L-7.45 -53.85 -7.3 -53.8 -7.55 -53.75 -7.7 -53.95 -7.75 -54.0 -7.85 -54.2 -8.2 -54.5 -8.4 -54.6 -8.6 -54.7 -10.45 -55.0 -10.7 -54.95 -11.1 -54.75 -11.45 -54.5 -11.6 -54.05 -11.7 -53.75 -11.65 -54.05 -11.55 -55.2 Q-11.55 -56.35 -12.15 -57.1 L-12.15 -57.3 -11.65 -57.55 M16.05 -32.75 L16.55 -32.85 17.1 -34.75 Q18.5 -35.25 19.45 -33.85 20.4 -32.5 21.85 -33.05 22.35 -32.2 23.4 -32.3 L23.9 -32.2 24.15 -31.95 18.65 -31.95 17.65 -32.05 Q17.1 -32.7 16.3 -32.65 L16.15 -32.55 16.05 -32.7 16.05 -32.75 M-18.6 -26.2 L-18.8 -27.5 -18.8 -27.6 -18.8 -27.7 -18.8 -28.25 Q-18.75 -30.15 -17.8 -31.95 L-17.75 -32.05 -17.85 -32.2 -19.15 -34.7 -19.5 -35.45 Q-19.9 -36.55 -19.75 -37.85 L-19.55 -39.4 -18.2 -37.95 Q-17.85 -39.6 -18.95 -40.55 -20.1 -41.55 -20.05 -43.05 L-19.95 -45.3 Q-19.85 -46.25 -20.8 -47.1 -21.05 -48.15 -20.9 -49.3 -19.55 -48.35 -18.15 -48.45 L-18.2 -48.4 -18.3 -48.15 -18.4 -47.75 -18.3 -46.9 Q-18.1 -46.25 -17.5 -46.1 L-17.4 -45.8 -17.05 -44.45 -16.55 -41.5 -16.3 -38.55 -16.15 -35.7 Q-16.1 -35.3 -15.85 -35.15 L-15.65 -33.9 -15.0 -33.35 Q-14.45 -33.25 -14.45 -33.8 L-14.5 -34.75 -14.5 -35.0 Q-14.35 -34.65 -13.75 -34.7 L-13.5 -34.8 Q-12.65 -35.55 -12.15 -36.7 L-12.0 -37.05 -11.75 -37.45 -11.35 -38.05 Q-10.95 -38.6 -11.25 -38.85 L-11.2 -39.1 -11.45 -39.05 -10.95 -39.85 -10.7 -39.8 -10.6 -40.05 -10.25 -39.6 -10.5 -38.6 Q-10.7 -36.8 -11.5 -35.15 L-11.8 -34.7 -12.1 -34.3 Q-12.55 -33.25 -13.65 -33.1 L-13.7 -33.1 -14.85 -33.1 -15.3 -33.25 -15.35 -33.25 -16.4 -31.55 -16.4 -31.5 -17.0 -30.1 Q-17.65 -28.5 -17.9 -26.65 L-17.95 -26.4 -17.95 -26.35 -18.15 -26.0 -18.15 -25.95 -18.4 -25.75 -18.45 -25.75 -18.6 -26.2 M-26.5 -32.1 L-26.3 -32.2 -26.15 -32.35 -26.25 -32.25 -26.2 -32.0 -26.5 -32.1 M-24.7 -32.55 L-24.25 -32.6 -24.6 -32.55 -24.65 -32.55 -24.7 -32.55 M-22.95 -32.9 L-21.75 -33.7 -20.6 -33.9 -20.05 -33.45 -19.55 -32.75 -19.35 -32.55 -19.35 -32.5 -18.9 -31.75 -18.85 -31.6 -18.95 -31.45 Q-19.25 -30.85 -19.8 -31.25 L-19.85 -31.3 -20.35 -31.5 -23.0 -31.5 -23.1 -31.5 -22.9 -32.2 -22.95 -32.85 -22.95 -32.9 M-7.5 -43.6 L-7.95 -44.1 -7.95 -44.2 Q-7.85 -45.25 -7.35 -46.15 L-6.9 -47.0 Q-6.2 -48.35 -4.85 -49.05 L-4.5 -49.2 -3.9 -49.35 -1.85 -49.2 -1.75 -49.05 -1.7 -48.9 -1.7 -48.5 -1.85 -47.8 Q-3.45 -44.85 -6.35 -43.35 L-7.0 -43.3 -7.2 -43.4 -7.3 -43.45 -7.5 -43.6 M0.2 -35.5 L0.45 -35.15 0.5 -35.15 Q0.95 -35.05 1.1 -34.6 L1.1 -34.55 Q2.4 -33.0 2.45 -30.95 L2.45 -30.65 Q2.7 -28.35 1.7 -26.3 L0.75 -25.05 Q0.4 -24.7 -0.15 -24.65 -1.6 -24.45 -2.3 -25.55 L-2.35 -25.85 -2.3 -26.1 -2.05 -26.4 -1.8 -26.65 -1.3 -26.35 -0.25 -26.25 0.85 -27.75 Q1.4 -29.4 1.1 -31.15 L1.05 -31.65 0.3 -34.3 0.25 -34.4 0.15 -34.6 0.1 -34.65 -0.25 -34.9 0.2 -35.5 M-9.65 -29.9 L-9.25 -29.6 -9.1 -29.4 Q-8.85 -29.05 -8.5 -29.1 L-8.4 -29.1 Q-7.3 -29.8 -6.55 -30.9 -6.05 -33.0 -6.6 -35.2 L-6.7 -35.7 -6.7 -35.8 -6.85 -36.05 Q-6.85 -36.65 -7.45 -36.75 L-7.4 -36.9 -6.95 -37.6 -6.3 -37.1 Q-5.25 -35.25 -5.2 -33.2 L-5.2 -31.75 Q-5.25 -30.25 -6.05 -28.85 -6.4 -28.25 -7.1 -27.95 -7.45 -27.8 -7.8 -27.75 L-9.2 -27.85 Q-10.15 -28.2 -10.05 -28.95 L-10.15 -29.1 -9.8 -29.75 -9.65 -29.9 M4.8 -39.75 L5.05 -39.4 5.65 -38.6 6.1 -37.1 Q6.55 -35.65 5.55 -34.65 4.95 -34.05 4.1 -34.35 3.65 -34.45 3.45 -34.9 3.25 -35.3 3.5 -35.5 L3.45 -35.6 3.6 -35.85 3.75 -35.85 4.1 -35.85 4.65 -35.7 4.7 -35.65 4.8 -35.7 Q5.6 -35.85 5.35 -36.9 L5.2 -37.75 Q5.1 -38.7 4.25 -38.75 L4.25 -38.8 Q4.35 -39.4 4.8 -39.75 M5.95 -32.55 L5.95 -32.65 6.0 -32.7 6.05 -32.75 6.6 -32.9 Q7.9 -32.6 8.6 -31.35 9.15 -30.35 9.1 -29.2 L9.1 -28.85 Q9.2 -26.95 7.8 -25.65 L6.9 -25.15 Q5.55 -24.85 4.95 -25.95 L4.95 -26.4 5.05 -26.55 Q5.35 -26.9 5.8 -26.8 L5.95 -26.8 6.1 -26.65 6.2 -26.6 7.1 -26.85 7.25 -27.1 7.45 -27.35 7.65 -28.0 7.75 -28.4 7.5 -30.45 7.15 -31.15 6.4 -32.0 6.25 -32.0 6.1 -32.25 5.95 -32.45 5.95 -32.55 M-15.2 -37.55 L-15.0 -37.85 -15.2 -37.55 M-15.1 6.5 L-15.3 6.1 -15.45 5.7 -15.5 5.2 -15.5 5.1 -15.5 5.05 -15.35 2.5 Q-14.75 1.4 -13.85 0.55 -13.0 -0.3 -12.9 -1.55 -12.55 -2.9 -11.35 -3.85 L-11.3 -3.9 Q-11.1 -3.3 -10.25 -2.8 L-10.35 -2.6 -11.55 -0.75 Q-13.85 2.15 -14.9 5.7 L-15.1 6.5 M9.15 3.75 L8.8 3.7 Q7.65 3.45 7.15 2.65 L7.15 2.6 7.1 2.55 7.05 2.45 7.0 2.4 7.0 2.15 7.0 2.0 Q7.0 1.1 7.3 0.15 L7.35 0.05 7.4 -0.15 Q9.4 0.35 9.15 2.8 L9.15 3.75" fill="#ffb243" fill-rule="evenodd" stroke="none"/>
    <path d="M10.55 -57.05 Q11.2 -57.1 11.35 -56.7 L10.7 -56.1 10.6 -56.0 Q9.9 -55.2 9.95 -54.1 10.1 -53.2 10.4 -52.35 L10.7 -51.6 10.7 -51.55 10.85 -51.3 10.7 -50.95 10.3 -51.45 9.75 -51.8 9.7 -51.85 9.65 -51.85 9.35 -52.35 Q8.7 -55.2 10.55 -57.05 M14.15 -49.3 Q16.05 -49.4 17.75 -50.35 18.35 -49.25 17.95 -48.2 L16.95 -46.15 16.95 -46.05 Q17.45 -44.2 16.9 -42.55 L15.5 -39.3 Q15.05 -37.65 15.6 -36.15 L15.7 -35.75 Q16.0 -34.5 15.9 -33.0 L15.9 -32.85 16.05 -32.75 16.05 -32.7 16.15 -32.55 Q15.55 -32.15 15.45 -31.4 L15.45 -30.75 Q15.55 -30.1 16.2 -29.9 L16.8 -29.9 16.9 -29.9 18.3 -29.7 18.45 -29.75 19.0 -30.25 19.05 -30.25 19.1 -30.35 19.15 -30.4 20.45 -31.1 20.25 -31.1 Q19.95 -31.6 19.5 -31.25 L19.45 -31.25 19.45 -31.45 19.35 -31.65 18.65 -31.95 24.15 -31.95 24.15 -31.0 Q24.05 -29.5 22.55 -29.65 21.0 -29.8 20.3 -28.5 L16.55 -28.4 16.05 -28.6 15.85 -28.8 Q15.45 -28.55 15.7 -28.3 L15.9 -27.75 16.1 -27.55 16.5 -27.35 Q16.8 -27.2 16.65 -26.85 L16.55 -26.7 12.5 -21.65 12.7 -21.4 12.95 -21.65 13.0 -21.65 14.1 -22.55 14.3 -20.3 Q14.35 -19.1 13.75 -18.05 12.85 -17.0 11.65 -16.8 L9.25 -16.25 Q8.3 -16.45 7.55 -17.05 L7.45 -17.15 7.05 -17.4 7.0 -17.45 6.7 -17.65 6.45 -17.8 6.4 -17.8 5.95 -18.05 Q5.8 -17.75 6.15 -17.6 L6.55 -17.15 7.6 -15.25 7.45 -15.0 7.15 -14.65 Q5.9 -13.3 3.95 -12.65 1.95 -12.15 0.0 -12.7 L-3.65 -14.05 -3.15 -15.15 -2.85 -15.75 Q-2.5 -16.45 -2.65 -17.1 L-2.7 -17.35 Q-3.2 -16.3 -3.95 -15.4 L-4.0 -15.3 -4.75 -14.55 -4.9 -14.55 -7.75 -14.8 Q-9.25 -15.05 -10.3 -16.15 L-10.25 -16.4 -8.3 -18.75 -8.55 -19.1 -8.7 -18.95 -9.7 -18.15 Q-11.75 -16.8 -14.15 -17.15 -15.65 -17.5 -16.8 -18.65 -17.95 -19.9 -19.35 -20.3 -20.4 -21.55 -20.35 -23.2 -20.2 -24.45 -19.55 -25.5 -18.85 -24.7 -18.95 -23.5 L-18.5 -24.2 -18.3 -23.8 -18.2 -23.5 -17.75 -22.85 -17.5 -22.55 -17.15 -22.15 Q-16.25 -21.3 -15.05 -20.95 -14.9 -20.8 -14.65 -20.75 L-14.25 -20.5 Q-13.1 -19.95 -11.75 -19.7 L-8.9 -19.9 Q-7.8 -20.2 -6.9 -20.9 L-6.55 -21.2 -6.3 -21.4 -6.2 -21.45 -6.15 -21.4 Q-5.65 -21.2 -5.95 -20.7 L-6.55 -19.65 -6.7 -19.45 -7.0 -18.9 -7.0 -18.45 -6.95 -18.35 -6.7 -17.85 Q-6.4 -17.35 -5.65 -17.3 L-4.65 -17.35 Q-3.45 -17.65 -2.5 -18.35 L-2.05 -18.75 -1.9 -18.95 -1.2 -19.7 -1.05 -19.9 -0.85 -20.15 Q-0.35 -20.7 -0.15 -21.3 L0.1 -20.85 -0.55 -19.05 -0.65 -17.85 -0.65 -17.75 -0.65 -17.7 -0.5 -17.2 -0.45 -17.05 -0.05 -16.6 Q0.2 -16.45 0.5 -16.35 1.75 -15.95 3.0 -16.35 L3.1 -16.35 3.35 -16.45 3.8 -16.75 4.15 -17.0 4.45 -17.4 Q5.25 -18.65 4.45 -19.85 L4.15 -20.3 4.1 -20.4 4.45 -20.3 5.15 -20.1 5.35 -19.85 6.05 -19.45 6.15 -19.4 6.5 -19.3 7.1 -19.1 7.15 -19.1 8.8 -19.1 Q10.0 -19.25 10.7 -20.25 L11.4 -21.6 11.7 -22.25 11.9 -22.7 12.2 -23.65 Q12.7 -25.35 12.1 -27.25 L11.7 -28.6 11.4 -29.85 12.85 -31.35 13.1 -32.0 13.2 -32.15 13.6 -33.25 13.5 -35.25 13.15 -36.3 12.1 -37.65 Q11.0 -38.5 9.7 -38.8 9.0 -41.05 9.7 -42.9 L9.75 -43.0 8.9 -43.25 8.35 -43.8 Q7.35 -44.5 6.85 -45.45 L6.55 -46.1 6.4 -46.6 6.35 -47.5 6.2 -48.05 6.2 -48.45 6.3 -48.55 6.45 -48.6 6.75 -48.6 6.85 -48.6 6.9 -48.5 7.05 -48.35 7.05 -48.25 7.05 -48.15 Q7.9 -46.75 9.45 -45.9 L9.65 -45.8 9.8 -45.7 10.1 -45.7 10.45 -45.45 11.0 -45.35 Q11.8 -45.2 12.6 -45.35 14.05 -45.7 14.8 -47.05 15.1 -47.7 15.05 -48.4 14.95 -49.2 14.2 -49.25 L14.2 -49.2 14.15 -49.3 M-18.8 -27.5 L-19.05 -27.4 Q-20.2 -27.2 -20.35 -27.95 L-20.35 -28.0 -20.15 -27.9 -20.1 -27.9 -19.5 -30.35 -23.0 -30.9 Q-21.85 -31.5 -20.2 -31.4 L-20.05 -31.4 -19.8 -31.25 Q-19.25 -30.85 -18.95 -31.45 L-18.85 -31.6 -18.85 -31.95 -18.95 -32.05 -19.3 -32.5 -19.55 -32.75 -20.05 -33.45 -20.6 -33.9 -20.6 -34.0 -20.3 -34.6 -19.5 -35.45 -19.15 -34.7 -17.85 -32.2 -17.8 -31.95 Q-18.75 -30.15 -18.8 -28.25 L-18.8 -27.7 -18.8 -27.6 -18.8 -27.5 M-23.5 -29.4 L-23.7 -29.35 -24.05 -29.25 -25.25 -29.05 -25.4 -29.05 Q-26.65 -29.05 -27.6 -29.7 L-27.65 -29.75 -27.75 -29.8 -27.8 -29.85 Q-27.5 -30.3 -27.65 -30.8 L-27.6 -31.85 -26.5 -32.1 -26.2 -32.0 -26.15 -32.0 -25.7 -31.9 -25.4 -31.85 -23.1 -31.5 -23.0 -31.5 -23.15 -31.25 -23.4 -30.2 -23.5 -29.4 M-20.9 -49.3 L-20.9 -49.15 -20.9 -49.6 -20.85 -50.1 -20.7 -50.45 -20.65 -50.4 -20.6 -50.4 Q-19.9 -49.55 -18.8 -49.2 L-17.95 -49.2 -18.05 -48.55 -18.15 -48.45 Q-19.55 -48.35 -20.9 -49.3 M-13.1 -56.75 L-11.85 -57.55 -11.65 -57.55 -12.15 -57.3 -12.25 -57.25 -12.15 -57.1 Q-11.55 -56.35 -11.55 -55.2 L-11.65 -54.05 -12.7 -53.9 Q-12.55 -54.75 -12.7 -55.5 L-12.95 -56.35 -12.95 -56.45 -13.0 -56.55 -13.05 -56.65 -13.1 -56.75 M-7.3 -53.8 L-7.45 -53.85 -7.5 -53.95 Q-7.8 -54.6 -7.3 -55.05 L-7.2 -55.15 Q-6.55 -56.1 -5.4 -56.3 L-4.75 -56.4 -4.25 -56.3 -4.15 -56.35 -4.2 -56.25 -4.15 -56.0 -5.3 -54.6 -5.65 -53.95 -5.8 -53.8 -5.9 -53.75 -7.15 -53.7 -7.25 -53.75 -7.3 -53.8 M-1.4 -56.35 L-1.25 -56.75 -1.0 -56.65 -0.95 -56.75 0.7 -56.4 Q1.8 -56.0 2.15 -54.85 L2.15 -54.55 2.15 -54.3 2.1 -54.2 1.85 -53.7 1.05 -53.6 0.65 -53.75 0.55 -53.8 0.1 -54.2 -0.1 -54.2 -0.1 -54.7 -0.35 -54.95 -0.8 -55.7 -0.8 -55.75 -1.05 -56.0 -1.25 -56.2 -1.3 -56.25 -1.4 -56.35 M12.5 5.05 L12.4 5.55 11.2 9.0 11.0 9.55 Q9.85 12.05 9.9 15.0 9.55 15.55 9.05 15.5 8.55 13.9 8.6 12.1 L8.25 8.65 8.75 6.15 Q8.9 4.55 7.7 4.4 6.7 4.25 6.2 3.45 L6.1 3.25 6.05 3.1 5.95 3.15 5.8 2.45 5.25 2.15 5.6 2.0 5.65 2.0 5.6 1.9 4.8 0.85 4.45 0.35 3.95 -0.05 3.7 -0.55 3.6 -1.25 Q3.05 -1.45 2.8 -2.1 L2.7 -2.25 2.35 -2.85 2.35 -2.95 2.55 -3.75 2.6 -3.8 2.55 -3.85 Q4.15 -5.6 6.3 -6.45 L6.35 -6.4 6.45 -6.55 6.5 -6.6 6.6 -6.65 6.85 -6.6 7.35 -6.45 7.45 -6.4 8.05 -5.9 8.55 -5.4 9.45 -4.3 9.65 -4.2 10.15 -4.0 Q10.1 -3.6 10.55 -3.2 L10.6 -3.15 Q11.5 -2.4 11.9 -1.4 L12.15 -1.7 12.1 -1.5 12.65 -0.8 12.4 -0.6 12.55 0.1 13.1 1.9 Q13.4 2.8 13.05 3.7 L12.7 4.35 12.5 5.05 M-8.25 1.4 L-8.25 1.7 -8.5 2.6 -8.5 2.75 -8.6 2.8 -8.7 2.8 -8.6 2.95 -10.1 4.65 Q-9.15 5.8 -8.7 7.25 -8.25 11.95 -8.6 16.55 -8.8 17.1 -9.35 17.05 L-9.4 17.0 -9.55 16.75 -9.6 16.65 -9.75 16.3 Q-9.7 13.35 -12.35 12.1 -13.25 10.55 -12.85 8.75 L-15.05 8.05 -15.25 7.95 Q-16.15 7.45 -16.4 6.35 L-16.45 5.6 -16.5 3.35 Q-16.45 1.8 -15.3 0.65 L-14.65 -0.05 -14.3 -0.95 -13.85 -2.1 -13.75 -2.35 -13.2 -3.2 -12.9 -4.15 -12.85 -4.15 -12.85 -4.2 -12.75 -4.45 -11.25 -5.9 -10.8 -6.2 -10.65 -6.3 Q-10.25 -6.3 -10.15 -6.1 L-9.65 -5.95 -9.6 -6.0 Q-7.4 -5.3 -5.8 -3.55 L-5.55 -3.5 -5.3 -3.25 -5.3 -3.0 -5.35 -2.85 -5.45 -2.65 -6.2 -1.85 -6.35 -1.7 -7.4 -0.8 -7.9 0.5 -8.2 1.05 -8.25 1.2 -8.25 1.4 M10.6 -32.75 Q10.2 -32.45 10.15 -31.9 L9.95 -31.9 Q7.65 -34.45 8.6 -37.55 L8.95 -38.0 Q9.15 -37.75 9.55 -37.8 L9.6 -37.75 9.8 -37.6 9.8 -37.5 9.8 -37.45 9.35 -37.05 9.15 -36.9 8.95 -36.65 Q8.7 -35.95 9.0 -35.3 9.25 -33.95 10.3 -33.0 L10.5 -32.85 10.6 -32.75 M-9.2 -51.75 L-9.2 -51.15 -9.25 -50.9 -9.7 -49.2 -9.9 -48.55 -10.05 -48.2 -10.05 -48.15 -10.1 -48.05 -10.35 -47.55 -10.35 -47.5 Q-11.05 -46.3 -12.05 -45.3 L-12.2 -45.1 -13.85 -44.75 -14.9 -44.7 -15.6 -44.75 -16.45 -45.2 -16.75 -45.45 -16.8 -45.5 -16.9 -45.55 -16.95 -45.7 -16.95 -46.0 -14.75 -46.15 -14.65 -46.3 -14.4 -46.4 -13.55 -46.7 Q-12.45 -47.5 -11.6 -48.6 -10.65 -49.7 -9.85 -50.95 -9.55 -51.45 -9.4 -52.05 L-9.2 -51.75 M-13.9 -38.85 L-13.35 -39.2 -13.05 -39.35 -13.0 -39.35 -13.0 -39.4 -12.95 -39.4 -12.8 -39.45 -12.7 -39.5 -11.85 -39.75 -11.75 -39.7 -10.95 -39.85 -11.45 -39.05 -11.55 -39.05 -11.65 -39.0 -12.75 -38.45 -12.85 -38.35 -14.15 -36.2 -14.3 -35.95 -14.5 -35.65 -14.5 -35.0 -14.5 -34.75 -14.45 -33.8 Q-14.45 -33.25 -15.0 -33.35 L-15.65 -33.9 -15.85 -35.15 -15.75 -36.3 -15.2 -37.55 -15.0 -37.85 -14.95 -37.95 -14.45 -38.45 -13.9 -38.85 M-2.3 -26.1 Q-4.55 -29.05 -3.65 -32.75 L-2.65 -34.8 Q-2.05 -35.85 -0.85 -35.95 -0.1 -36.05 0.2 -35.5 L-0.25 -34.9 0.1 -34.65 -0.75 -34.75 -1.7 -34.15 Q-2.65 -32.6 -2.65 -30.7 -2.7 -28.8 -2.0 -27.15 L-1.8 -26.65 -2.05 -26.4 -2.3 -26.1 M-7.45 -36.75 L-7.6 -36.8 Q-8.6 -36.6 -8.95 -35.55 L-9.2 -35.1 Q-10.15 -33.25 -10.1 -31.15 -10.1 -30.55 -9.75 -30.05 L-9.65 -29.9 -9.8 -29.75 -10.15 -29.1 Q-11.1 -30.45 -11.25 -32.25 -11.1 -33.95 -10.4 -35.6 -9.8 -37.25 -8.1 -37.85 L-6.95 -37.6 -7.4 -36.9 -7.45 -36.75 M3.45 -35.6 L3.35 -35.75 Q2.65 -36.7 2.8 -37.7 L3.2 -39.7 4.8 -39.75 Q4.35 -39.4 4.25 -38.8 L4.25 -38.75 4.05 -38.75 Q3.1 -37.95 3.6 -36.75 L3.85 -36.25 4.1 -35.85 3.75 -35.85 3.6 -35.85 3.45 -35.6 M4.95 -26.4 Q3.9 -27.55 3.85 -29.2 3.55 -31.05 4.65 -32.35 5.3 -32.85 5.95 -32.55 L5.95 -32.45 6.1 -32.25 6.25 -32.0 Q5.6 -31.9 5.3 -31.25 4.4 -28.8 5.95 -26.8 L5.8 -26.8 Q5.35 -26.9 5.05 -26.55 L4.95 -26.4 M-10.25 -2.8 Q-11.1 -3.3 -11.3 -3.9 L-11.35 -3.85 Q-12.55 -2.9 -12.9 -1.55 -13.0 -0.3 -13.85 0.55 -14.75 1.4 -15.35 2.5 L-15.5 5.05 -15.5 5.1 -15.5 5.2 -15.45 5.7 -15.3 6.1 -15.1 6.5 -14.45 7.2 -12.85 7.65 Q-11.95 7.8 -12.0 8.75 -12.05 12.05 -9.5 13.35 L-9.55 12.4 -9.5 12.45 -9.55 12.25 -9.65 9.0 -9.7 8.5 -9.7 8.25 Q-9.9 7.1 -10.5 6.1 L-10.8 5.7 -10.95 5.45 -11.0 5.25 -11.05 5.35 -11.2 5.15 -11.35 5.05 -11.45 5.45 -11.85 6.15 Q-12.35 6.7 -12.8 6.25 L-12.1 5.55 Q-11.95 3.75 -12.75 2.1 L-12.4 1.05 Q-12.35 0.5 -11.95 0.2 L-11.8 0.25 -11.7 0.35 Q-12.15 2.3 -10.85 4.0 L-10.7 3.85 Q-10.05 3.0 -9.7 2.0 L-9.5 1.3 Q-9.2 -0.05 -8.35 -1.1 L-8.65 -1.5 -9.15 -2.05 -8.3 -2.7 Q-7.5 -3.2 -8.25 -3.95 -8.0 -4.2 -8.15 -4.45 L-9.55 -2.4 -9.9 -2.6 -10.25 -2.8 M9.15 3.75 L9.25 3.75 Q9.3 2.75 9.75 1.95 10.35 2.9 10.15 4.1 L9.4 4.9 9.45 4.95 9.4 4.9 Q9.85 6.45 9.3 7.9 8.9 8.95 9.2 10.05 L9.55 10.9 9.6 9.95 Q10.5 8.95 10.65 7.7 10.8 6.35 11.2 5.15 12.4 3.9 11.85 2.4 11.4 1.1 11.25 -0.1 L11.2 -0.55 9.85 -2.2 9.2 -2.95 8.15 -4.2 6.2 -2.9 6.2 -2.95 5.4 -4.15 4.9 -4.25 Q4.95 -3.95 4.45 -3.75 L5.6 -2.55 5.35 -2.4 4.7 -1.8 4.65 -1.7 Q4.95 -0.85 5.55 -0.15 L5.25 0.25 5.5 -0.1 5.6 -0.1 6.4 0.7 Q6.75 -0.45 7.55 -1.25 L7.75 -1.05 7.4 -0.15 7.35 0.05 7.3 0.15 Q7.0 1.1 7.0 2.0 L7.0 2.15 7.0 2.4 7.05 2.45 7.1 2.55 7.15 2.6 7.15 2.65 Q7.65 3.45 8.8 3.7 L9.15 3.75" fill="#b6440e" fill-rule="evenodd" stroke="none"/>
    <path d="M-18.35 -25.3 L-18.6 -26.2 -18.45 -25.75 -18.4 -25.75 -18.15 -25.95 -18.35 -25.3 M-8.2 -54.5 L-7.85 -54.2 -7.75 -54.0 -7.7 -53.95 -7.55 -53.75 -7.5 -53.5 -7.5 -53.2 Q-7.15 -52.45 -6.35 -52.05 L-5.2 -52.35 -4.85 -52.0 -2.0 -52.05 Q-0.35 -53.3 -0.7 -55.3 L-0.8 -55.7 -0.35 -54.95 -0.1 -54.7 -0.1 -54.2 -0.2 -54.15 -0.45 -53.9 -0.45 -53.1 Q-0.15 -52.25 0.85 -52.15 L0.9 -52.1 2.55 -52.3 2.65 -52.35 2.7 -52.4 3.5 -53.3 3.75 -53.8 4.25 -53.55 Q5.2 -53.15 6.3 -53.05 L7.3 -51.1 7.55 -51.7 8.15 -52.2 7.8 -51.05 7.25 -49.6 6.85 -48.6 6.75 -48.6 6.45 -48.6 6.3 -48.55 6.2 -48.45 6.2 -48.05 6.35 -47.5 6.4 -46.6 6.55 -46.1 6.75 -45.65 6.75 -45.45 6.3 -45.0 6.85 -45.45 Q7.35 -44.5 8.35 -43.8 L8.9 -43.25 9.6 -43.0 9.7 -42.9 Q9.0 -41.05 9.7 -38.8 11.0 -38.5 12.1 -37.65 L13.15 -36.3 13.5 -35.25 13.6 -33.25 13.2 -32.15 13.1 -32.0 12.85 -31.35 11.4 -29.85 11.7 -28.6 12.1 -27.25 Q12.7 -25.35 12.2 -23.65 L11.9 -22.7 11.7 -22.25 11.4 -21.6 10.7 -20.25 Q10.0 -19.25 8.8 -19.1 L7.15 -19.1 Q8.1 -19.15 9.05 -19.75 10.55 -20.7 9.85 -22.3 8.55 -25.15 5.35 -24.9 L4.85 -24.7 Q3.7 -24.3 3.55 -23.15 3.3 -21.4 4.45 -20.3 L4.1 -20.4 4.15 -20.3 4.45 -19.85 Q5.25 -18.65 4.45 -17.4 L4.15 -17.0 3.9 -17.05 3.35 -16.45 3.1 -16.35 3.0 -16.35 Q1.75 -15.95 0.5 -16.35 0.2 -16.45 -0.05 -16.6 1.25 -16.4 1.6 -17.95 L2.05 -18.5 Q2.95 -18.95 3.25 -20.0 3.8 -22.1 1.65 -22.6 L1.25 -22.5 Q-0.55 -21.5 -1.2 -19.7 L-1.9 -18.95 -2.05 -18.75 -2.5 -18.35 Q-3.45 -17.65 -4.65 -17.35 L-5.65 -17.3 Q-6.4 -17.35 -6.7 -17.85 L-4.85 -17.8 -4.45 -18.2 Q-2.75 -19.7 -2.1 -21.8 -1.5 -23.65 -3.2 -24.05 L-4.0 -23.8 -6.15 -21.4 -6.2 -21.45 -6.3 -21.4 -6.55 -21.2 -6.9 -20.9 Q-7.8 -20.2 -8.9 -19.9 L-11.75 -19.7 Q-13.1 -19.95 -14.25 -20.5 L-14.65 -20.75 Q-14.9 -20.8 -15.05 -20.95 -16.25 -21.3 -17.15 -22.15 -15.7 -21.5 -13.95 -22.4 -12.55 -23.05 -11.35 -24.1 -10.35 -24.95 -10.15 -26.15 -9.95 -27.3 -10.85 -27.9 -12.25 -28.9 -13.95 -29.0 -16.3 -29.3 -17.5 -27.4 L-17.9 -26.65 Q-17.65 -28.5 -17.0 -30.1 L-16.4 -31.5 -16.4 -31.55 -16.25 -31.8 -15.2 -33.2 -14.85 -33.1 -13.7 -33.1 -13.65 -33.1 Q-12.55 -33.25 -12.1 -34.3 L-11.8 -34.7 -11.5 -35.15 Q-10.7 -36.8 -10.5 -38.6 L-10.25 -39.6 -10.6 -40.05 -10.7 -39.8 -10.95 -39.85 -11.75 -39.7 -11.85 -39.75 -12.7 -39.5 -12.8 -39.45 -12.95 -39.4 -13.0 -39.4 -13.0 -39.35 -13.05 -39.35 -13.35 -39.2 -13.9 -38.85 Q-14.05 -41.6 -14.95 -44.15 L-13.85 -44.75 -12.2 -45.1 -12.05 -45.3 Q-11.05 -46.3 -10.35 -47.5 L-10.35 -47.55 -10.1 -48.05 -10.05 -48.15 -10.05 -48.2 -9.9 -48.55 -9.7 -49.2 -9.25 -50.9 -9.2 -51.15 -9.2 -51.75 -8.9 -52.95 -8.2 -54.5 M10.6 -32.75 Q10.9 -32.5 11.45 -32.4 L11.5 -32.45 Q12.0 -32.85 12.2 -33.4 L12.45 -33.95 12.4 -35.25 12.35 -35.45 12.1 -35.95 11.2 -37.0 10.85 -37.2 10.7 -37.35 10.5 -37.4 10.1 -37.5 10.0 -37.5 9.95 -37.5 9.8 -37.45 9.8 -37.5 9.8 -37.6 9.6 -37.75 9.55 -37.8 Q9.15 -37.75 8.95 -38.0 L8.6 -37.55 Q7.65 -34.45 9.95 -31.9 L10.15 -31.9 Q10.2 -32.45 10.6 -32.75 M-7.5 -43.6 L-7.55 -43.65 Q-8.0 -42.15 -6.7 -40.7 L-6.05 -40.05 Q-5.5 -39.65 -4.8 -39.55 L-2.45 -39.65 Q0.3 -40.25 2.15 -42.5 L2.8 -43.55 Q3.2 -44.85 2.9 -46.15 2.15 -49.4 -1.35 -49.05 L-1.7 -48.9 -1.75 -49.05 -1.8 -49.25 -1.85 -49.2 -3.9 -49.35 -4.5 -49.2 -4.85 -49.05 Q-6.2 -48.35 -6.9 -47.0 L-7.35 -46.15 Q-7.85 -45.25 -7.95 -44.2 L-7.95 -44.1 -7.5 -43.6 M-0.2 -38.95 L-0.5 -38.7 -0.1 -38.7 -0.2 -38.95 M0.2 -35.5 Q-0.1 -36.05 -0.85 -35.95 -2.05 -35.85 -2.65 -34.8 L-3.65 -32.75 Q-4.55 -29.05 -2.3 -26.1 L-2.35 -25.85 -2.3 -25.55 Q-1.6 -24.45 -0.15 -24.65 0.4 -24.7 0.75 -25.05 L1.7 -26.3 Q2.7 -28.35 2.45 -30.65 L2.45 -30.95 Q2.4 -33.0 1.1 -34.55 L1.1 -34.6 Q0.95 -35.05 0.5 -35.15 L0.45 -35.15 0.2 -35.5 M-6.95 -37.6 L-8.1 -37.85 Q-9.8 -37.25 -10.4 -35.6 -11.1 -33.95 -11.25 -32.25 -11.1 -30.45 -10.15 -29.1 L-10.05 -28.95 Q-10.15 -28.2 -9.2 -27.85 L-7.8 -27.75 Q-7.45 -27.8 -7.1 -27.95 -6.4 -28.25 -6.05 -28.85 -5.25 -30.25 -5.2 -31.75 L-5.2 -33.2 Q-5.25 -35.25 -6.3 -37.1 L-6.95 -37.6 M3.45 -35.6 L3.5 -35.5 Q3.25 -35.3 3.45 -34.9 3.65 -34.45 4.1 -34.35 4.95 -34.05 5.55 -34.65 6.55 -35.65 6.1 -37.1 L5.65 -38.6 5.05 -39.4 4.8 -39.75 3.2 -39.7 2.8 -37.7 Q2.65 -36.7 3.35 -35.75 L3.45 -35.6 M5.95 -32.55 Q5.3 -32.85 4.65 -32.35 3.55 -31.05 3.85 -29.2 3.9 -27.55 4.95 -26.4 L4.95 -25.95 Q5.55 -24.85 6.9 -25.15 L7.8 -25.65 Q9.2 -26.95 9.1 -28.85 L9.1 -29.2 Q9.15 -30.35 8.6 -31.35 7.9 -32.6 6.6 -32.9 L6.05 -32.75 6.0 -32.7 5.95 -32.65 5.95 -32.55 M-18.45 -24.4 L-18.4 -24.5 -18.4 -24.35 -18.3 -24.05 -18.45 -24.4" fill="#e85700" fill-rule="evenodd" stroke="none"/>
    <path d="M10.3 -51.45 L10.8 -50.55 12.05 -49.5 14.15 -49.3 14.2 -49.2 14.2 -49.25 Q14.95 -49.2 15.05 -48.4 15.1 -47.7 14.8 -47.05 14.05 -45.7 12.6 -45.35 11.8 -45.2 11.0 -45.35 L10.45 -45.45 10.1 -45.7 9.8 -45.7 9.65 -45.8 9.45 -45.9 Q7.9 -46.75 7.05 -48.15 L7.05 -48.25 7.05 -48.35 6.9 -48.5 6.85 -48.6 7.25 -49.6 7.8 -51.05 8.15 -52.2 8.55 -52.3 9.3 -52.05 9.3 -52.0 9.65 -51.85 9.7 -51.85 9.75 -51.8 10.3 -51.45 M-10.3 -16.15 L-10.4 -16.25 -10.25 -16.4 -10.3 -16.15 M-18.5 -24.2 L-18.4 -24.5 -18.35 -24.7 -18.35 -24.8 -18.3 -25.0 -18.3 -25.1 -18.3 -25.15 -18.35 -25.3 -18.15 -25.95 -18.15 -26.0 -17.95 -26.35 -17.95 -26.4 -17.9 -26.65 -17.5 -27.4 Q-16.3 -29.3 -13.95 -29.0 -12.25 -28.9 -10.85 -27.9 -9.95 -27.3 -10.15 -26.15 -10.35 -24.95 -11.35 -24.1 -12.55 -23.05 -13.95 -22.4 -15.7 -21.5 -17.15 -22.15 L-17.5 -22.55 -17.75 -22.85 -18.2 -23.5 -18.3 -23.8 -18.5 -24.2 M-20.35 -27.95 Q-21.3 -28.25 -22.0 -28.95 -22.6 -29.6 -23.5 -29.4 L-23.4 -30.2 -23.15 -31.25 -23.0 -31.5 -20.35 -31.5 -19.85 -31.3 -19.8 -31.25 -20.05 -31.4 -20.2 -31.4 Q-21.85 -31.5 -23.0 -30.9 L-19.5 -30.35 -20.1 -27.9 -20.15 -27.9 -20.35 -28.0 -20.35 -27.95 M-26.15 -32.35 L-24.7 -32.55 -24.65 -32.55 -24.6 -32.55 -24.25 -32.6 -23.9 -32.65 -22.95 -32.9 -22.95 -32.85 -22.9 -32.2 -23.1 -31.5 -25.4 -31.85 -25.7 -31.9 -26.15 -32.0 -26.2 -32.0 -26.25 -32.25 -26.15 -32.35 M-12.15 -57.3 L-12.15 -57.1 -12.25 -57.25 -12.15 -57.3 M-11.7 -53.75 L-11.6 -54.05 -11.45 -54.5 -11.1 -54.75 -10.7 -54.95 -10.45 -55.0 -8.6 -54.7 -8.4 -54.6 -8.2 -54.5 -8.9 -52.95 -9.2 -51.75 -9.4 -52.05 Q-9.55 -51.45 -9.85 -50.95 -10.65 -49.7 -11.6 -48.6 -12.45 -47.5 -13.55 -46.7 L-14.4 -46.4 -14.65 -46.3 -14.75 -46.15 -16.95 -46.0 -16.95 -45.7 -16.9 -45.55 -16.8 -45.5 -16.75 -45.45 -16.45 -45.2 -15.6 -44.75 -14.9 -44.7 -13.85 -44.75 -14.95 -44.15 Q-14.05 -41.6 -13.9 -38.85 L-14.45 -38.45 -14.95 -37.95 -15.0 -37.85 -15.2 -37.55 -15.75 -36.3 -15.85 -35.15 Q-16.1 -35.3 -16.15 -35.7 L-16.3 -38.55 -16.55 -41.5 -17.05 -44.45 -17.4 -45.8 -17.5 -46.1 Q-18.1 -46.25 -18.3 -46.9 L-18.4 -47.75 -18.3 -48.15 -18.2 -48.4 -18.15 -48.45 -18.05 -48.55 -17.8 -48.65 -17.45 -48.55 -17.4 -48.55 -14.05 -50.15 Q-12.45 -51.35 -11.9 -53.15 L-11.7 -53.75 M-7.55 -53.75 L-7.3 -53.8 -7.25 -53.75 -7.15 -53.7 -5.9 -53.75 -5.8 -53.8 -4.45 -53.4 -4.55 -53.75 -4.1 -54.95 -3.9 -55.15 -3.7 -55.5 -3.65 -55.5 -2.95 -56.3 -2.4 -56.6 -2.0 -56.65 Q-1.65 -56.6 -1.4 -56.35 L-1.3 -56.25 -1.25 -56.2 -1.05 -56.0 -0.8 -55.75 -0.8 -55.7 -0.7 -55.3 Q-0.35 -53.3 -2.0 -52.05 L-4.85 -52.0 -5.2 -52.35 -6.35 -52.05 Q-7.15 -52.45 -7.5 -53.2 L-7.5 -53.5 -7.55 -53.75 M2.15 -54.55 Q3.45 -54.8 3.5 -53.3 L2.7 -52.4 2.65 -52.35 2.55 -52.3 0.9 -52.1 0.85 -52.15 Q-0.15 -52.25 -0.45 -53.1 L-0.45 -53.9 -0.2 -54.15 -0.1 -54.2 0.1 -54.2 0.55 -53.8 0.65 -53.75 1.05 -53.6 1.85 -53.7 2.1 -54.2 2.15 -54.3 2.15 -54.55 M6.55 -46.1 L6.85 -45.45 6.3 -45.0 6.75 -45.45 6.75 -45.65 6.55 -46.1 M8.9 -43.25 L9.75 -43.0 9.7 -42.9 9.6 -43.0 8.9 -43.25 M7.15 -19.1 L7.1 -19.1 6.5 -19.3 6.15 -19.4 6.05 -19.45 5.35 -19.85 5.15 -20.1 4.45 -20.3 Q3.3 -21.4 3.55 -23.15 3.7 -24.3 4.85 -24.7 L5.35 -24.9 Q8.55 -25.15 9.85 -22.3 10.55 -20.7 9.05 -19.75 8.1 -19.15 7.15 -19.1 M4.15 -17.0 L3.8 -16.75 3.35 -16.45 3.9 -17.05 4.15 -17.0 M-0.05 -16.6 L-0.45 -17.05 -0.5 -17.2 -0.65 -17.7 -0.65 -17.75 -0.65 -17.85 -0.55 -19.05 0.1 -20.85 -0.15 -21.3 Q-0.35 -20.7 -0.85 -20.15 L-1.05 -19.9 -1.2 -19.7 Q-0.55 -21.5 1.25 -22.5 L1.65 -22.6 Q3.8 -22.1 3.25 -20.0 2.95 -18.95 2.05 -18.5 L1.6 -17.95 Q1.25 -16.4 -0.05 -16.6 M-6.7 -17.85 L-6.95 -18.35 -7.0 -18.45 -7.0 -18.9 -6.7 -19.45 -6.55 -19.65 -5.95 -20.7 Q-5.65 -21.2 -6.15 -21.4 L-4.0 -23.8 -3.2 -24.05 Q-1.5 -23.65 -2.1 -21.8 -2.75 -19.7 -4.45 -18.2 L-4.85 -17.8 -6.7 -17.85 M16.15 -32.55 L16.3 -32.65 Q17.1 -32.7 17.65 -32.05 L18.65 -31.95 19.35 -31.65 19.45 -31.45 19.45 -31.25 Q19.3 -30.8 18.8 -30.65 L18.55 -30.6 17.7 -30.25 Q17.4 -30.05 17.05 -30.0 L16.9 -29.9 16.8 -29.9 16.2 -29.9 Q15.55 -30.1 15.45 -30.75 L15.45 -31.4 Q15.55 -32.15 16.15 -32.55 M-1.7 -48.9 L-1.35 -49.05 Q2.15 -49.4 2.9 -46.15 3.2 -44.85 2.8 -43.55 L2.15 -42.5 Q0.3 -40.25 -2.45 -39.65 L-4.8 -39.55 Q-5.5 -39.65 -6.05 -40.05 L-6.7 -40.7 Q-8.0 -42.15 -7.55 -43.65 L-7.5 -43.6 -7.3 -43.45 -7.2 -43.4 -7.0 -43.3 -6.35 -43.35 Q-3.45 -44.85 -1.85 -47.8 L-1.7 -48.5 -1.7 -48.9 M-1.85 -49.2 L-1.8 -49.25 -1.75 -49.05 -1.85 -49.2 M-14.85 -33.1 L-15.2 -33.2 -16.25 -31.8 -16.4 -31.55 -15.35 -33.25 -15.3 -33.25 -14.85 -33.1 M-0.2 -38.95 L-0.1 -38.7 -0.5 -38.7 -0.2 -38.95 M-19.55 -32.75 L-19.3 -32.5 -18.95 -32.05 -18.85 -31.95 -18.85 -31.6 -18.9 -31.75 -19.35 -32.5 -19.35 -32.55 -19.55 -32.75 M-18.45 -24.4 L-18.3 -24.05 -18.4 -24.35 -18.4 -24.5 -18.45 -24.4 M-15.1 6.5 L-14.9 5.7 Q-13.85 2.15 -11.55 -0.75 L-10.35 -2.6 -10.25 -2.8 -9.9 -2.6 -9.55 -2.4 -10.65 -0.5 Q-9.9 -0.75 -9.5 -1.55 L-9.15 -2.05 -8.65 -1.5 -8.35 -1.1 Q-9.2 -0.05 -9.5 1.3 L-9.7 2.0 Q-10.05 3.0 -10.7 3.85 L-10.85 4.0 Q-12.15 2.3 -11.7 0.35 L-11.8 0.25 -11.85 0.15 -11.95 0.2 Q-12.35 0.5 -12.4 1.05 L-12.75 2.1 Q-11.95 3.75 -12.1 5.55 L-12.8 6.25 Q-12.35 6.7 -11.85 6.15 L-11.45 5.45 -11.35 5.05 -11.2 5.15 -11.05 5.35 -10.8 5.7 -10.5 6.1 Q-9.9 7.1 -9.7 8.25 L-9.7 8.5 -9.65 9.0 -9.55 12.25 -9.55 12.4 -9.5 13.35 Q-12.05 12.05 -12.0 8.75 -11.95 7.8 -12.85 7.65 L-14.45 7.2 -15.1 6.5 M6.2 -2.9 L8.15 -4.2 9.2 -2.95 9.85 -2.2 11.2 -0.55 11.25 -0.1 Q11.4 1.1 11.85 2.4 12.4 3.9 11.2 5.15 10.8 6.35 10.65 7.7 10.5 8.95 9.6 9.95 L9.55 10.9 9.2 10.05 Q8.9 8.95 9.3 7.9 9.85 6.45 9.4 4.9 L9.45 4.95 9.4 4.9 10.15 4.1 Q10.35 2.9 9.75 1.95 9.3 2.75 9.25 3.75 L9.15 3.75 9.15 2.8 Q9.4 0.35 7.4 -0.15 L7.75 -1.05 7.55 -1.25 Q6.75 -0.45 6.4 0.7 L5.6 -0.1 5.55 -0.15 Q4.95 -0.85 4.65 -1.7 L4.7 -1.8 5.35 -2.4 5.6 -2.55 6.55 -1.6 Q6.65 -2.3 6.2 -2.9" fill="#ff7119" fill-rule="evenodd" stroke="none"/>
    <path d="M11.35 -56.7 Q11.9 -57.2 12.55 -57.5 L12.65 -57.55 13.65 -57.65 14.1 -57.7 Q14.8 -57.0 14.75 -56.1 L14.45 -56.05 14.65 -55.55 14.2 -54.75 13.35 -54.0 11.95 -54.0 Q10.55 -54.85 10.6 -56.0 L10.7 -56.1 11.35 -56.7 M-20.9 -54.0 L-19.75 -55.8 -19.65 -55.9 -19.4 -56.15 -19.15 -56.45 -19.1 -56.5 -17.8 -57.35 -17.5 -57.45 Q-16.7 -56.85 -16.7 -55.9 L-17.2 -55.55 -17.85 -54.4 Q-18.25 -53.8 -18.15 -53.2 L-19.8 -53.3 -20.9 -54.0 M25.05 -30.35 L25.15 -30.75 Q25.3 -31.4 24.85 -31.9 25.75 -33.1 27.15 -33.3 L27.1 -33.55 27.1 -33.7 26.5 -33.55 25.0 -32.85 23.7 -33.15 Q23.85 -33.8 24.45 -34.3 L24.65 -34.4 24.9 -34.5 24.95 -34.6 Q28.4 -34.75 27.9 -31.55 27.8 -30.9 27.3 -30.4 L25.05 -30.35 M5.6 1.9 L5.65 2.0 5.6 2.0 5.6 1.9 M21.4 -9.5 L21.45 -9.5 21.8 -9.25 22.15 -8.95 22.2 -8.9 22.8 -8.65 22.85 -8.65 23.2 -8.45 24.05 -8.2 23.95 -8.15 24.15 -8.2 24.45 -8.05 24.5 -8.0 24.8 -7.85 24.75 -7.85 24.6 -7.8 24.4 -7.85 21.75 -8.3 21.25 -8.5 21.15 -8.55 21.1 -8.55 21.05 -8.6 21.05 -8.55 19.85 -9.05 19.9 -9.15 19.55 -9.3 19.4 -9.35 19.4 -9.25 19.25 -9.35 19.15 -9.6 19.35 -9.85 19.4 -9.9 19.55 -9.9 21.4 -9.5 M-28.85 -31.95 L-30.95 -32.7 -31.0 -32.2 -30.7 -32.1 -29.3 -31.55 -29.0 -31.35 -29.05 -31.3 Q-29.25 -30.75 -29.6 -30.35 -29.7 -29.5 -30.6 -29.8 -31.05 -29.95 -31.15 -30.45 -31.45 -31.4 -31.25 -32.45 L-31.05 -33.55 Q-30.8 -34.7 -29.85 -35.2 -28.65 -35.2 -28.65 -34.1 -28.6 -33.0 -28.85 -31.95 M-27.1 -8.6 L-27.05 -8.65 -26.4 -8.8 -25.75 -8.9 -24.5 -9.35 -24.5 -9.3 -23.1 -9.95 -22.7 -10.1 -21.95 -10.45 -21.6 -10.55 -20.8 -10.85 -20.85 -10.85 -21.1 -10.7 Q-21.8 -9.55 -23.2 -9.05 L-24.6 -8.4 Q-26.1 -7.65 -27.7 -7.55 L-27.75 -7.65 -27.85 -7.7 -27.85 -7.8 -27.85 -7.9 -27.85 -7.95 -27.85 -8.05 -27.1 -8.6 M21.55 -3.2 L21.4 -3.2 21.55 -3.2 M8.65 37.7 L8.6 37.6 8.7 37.7 8.65 37.7" fill="#ffffff" fill-rule="evenodd" stroke="none"/>
    <path d="M14.1 -57.7 Q16.45 -57.75 18.4 -56.25 L18.3 -55.45 Q17.95 -53.5 16.2 -52.5 15.5 -52.15 14.75 -52.1 L10.4 -52.35 Q10.1 -53.2 9.95 -54.1 9.9 -55.2 10.6 -56.0 10.55 -54.85 11.95 -54.0 L13.35 -54.0 14.2 -54.75 14.65 -55.55 Q15.05 -54.2 14.6 -52.7 L15.6 -52.55 Q16.8 -53.15 16.4 -54.65 L15.65 -55.65 Q15.3 -56.15 14.75 -56.1 14.8 -57.0 14.1 -57.7 M-20.7 -50.45 L-21.1 -51.05 Q-21.45 -52.6 -20.9 -54.0 L-19.8 -53.3 -18.15 -53.2 Q-18.1 -52.65 -17.5 -52.1 -16.2 -52.35 -16.55 -53.55 -17.0 -54.75 -16.1 -55.75 L-16.7 -55.9 Q-16.7 -56.85 -17.5 -57.45 L-16.35 -57.8 -14.4 -57.6 Q-14.3 -56.65 -14.65 -55.25 -15.3 -53.0 -17.25 -51.65 -19.0 -50.45 -20.6 -50.4 L-20.65 -50.4 -20.7 -50.45" fill="#ffcc00" fill-rule="evenodd" stroke="none"/>
    <path d="M18.4 -56.25 L18.8 -55.95 Q19.4 -55.15 19.2 -54.15 L18.7 -52.3 Q16.1 -49.8 12.65 -50.1 11.35 -50.4 10.85 -51.3 L10.7 -51.55 10.7 -51.6 10.4 -52.35 14.75 -52.1 Q15.5 -52.15 16.2 -52.5 17.95 -53.5 18.3 -55.45 L18.4 -56.25 M-14.4 -57.6 L-13.1 -56.75 -13.05 -56.65 -13.0 -56.55 -12.95 -56.45 -12.95 -56.35 -12.7 -55.5 Q-12.55 -54.75 -12.7 -53.9 L-12.95 -52.9 Q-13.85 -51.3 -15.5 -50.2 -16.75 -49.4 -17.95 -49.2 L-18.8 -49.2 Q-19.9 -49.55 -20.6 -50.4 -19.0 -50.45 -17.25 -51.65 -15.3 -53.0 -14.65 -55.25 -14.3 -56.65 -14.4 -57.6" fill="#cc9900" fill-rule="evenodd" stroke="none"/>
    <path d="M33.0 -30.15 L33.1 -28.6 33.0 -27.75 Q32.9 -25.4 32.3 -23.15 L32.45 -22.5 33.55 -22.15 Q37.4 -20.35 40.3 -23.45 41.15 -24.35 41.25 -25.6 41.75 -31.3 39.0 -36.5 36.65 -40.95 32.65 -43.2 L29.95 -44.55 29.15 -44.95 28.3 -45.85 Q29.25 -45.05 29.85 -43.85 L30.05 -43.4 Q31.8 -40.85 32.3 -37.6 L32.8 -33.3 33.0 -30.15 M26.75 -47.25 L28.9 -47.35 Q34.15 -46.05 37.55 -42.3 L38.75 -40.8 39.05 -40.4 39.85 -39.2 40.1 -38.85 40.3 -38.5 41.15 -37.0 41.15 -37.05 41.85 -35.75 42.9 -33.6 44.3 -30.05 Q45.25 -27.05 45.2 -23.75 45.15 -20.4 42.55 -18.3 L38.45 -17.65 34.6 -17.35 33.9 -17.5 33.2 -17.55 32.1 -17.8 31.95 -17.8 30.3 -18.15 29.85 -18.2 30.45 -23.8 30.65 -25.25 Q31.05 -27.2 30.4 -28.9 L30.2 -28.3 30.65 -30.55 30.7 -31.5 30.75 -32.55 30.7 -33.25 30.55 -34.0 30.05 -35.45 29.85 -35.95 29.3 -36.7 29.05 -36.9 28.75 -37.0 Q28.65 -37.05 28.65 -37.05 L28.6 -37.1 28.4 -37.3 28.3 -37.45 26.7 -39.6 25.7 -40.3 Q23.65 -42.95 19.45 -42.65 L18.35 -42.2 17.75 -41.75 18.25 -43.45 Q20.2 -45.6 23.1 -46.5 L26.5 -47.25 26.65 -47.05 26.75 -47.25 M28.55 -17.55 L30.3 -17.25 31.5 -17.05 32.8 -16.9 33.2 -16.85 34.95 -16.75 35.55 -16.7 37.35 -16.7 37.7 -16.7 38.3 -16.7 39.15 -16.7 43.1 -17.4 43.55 -16.35 43.65 -15.9 43.85 -14.9 43.85 -14.85 44.15 -11.6 44.2 -10.85 43.95 -6.3 43.4 -3.3 42.5 0.75 41.15 6.2 39.7 11.45 38.2 16.5 Q36.85 20.8 34.75 24.5 32.85 27.75 30.35 30.9 28.0 30.5 25.9 29.3 L25.4 29.0 26.7 27.7 29.15 24.7 Q32.75 19.3 35.2 13.35 36.6 10.0 37.55 6.5 L38.6 1.25 Q38.7 0.1 38.95 -0.95 39.6 -4.25 39.55 -7.65 L39.55 -7.8 39.55 -7.85 39.35 -9.1 39.3 -9.65 Q38.85 -12.0 37.05 -13.55 36.5 -14.05 35.75 -14.1 L33.45 -13.8 Q30.95 -11.7 29.95 -8.35 L29.5 -7.1 28.6 -2.5 28.15 -1.45 Q26.75 6.5 22.65 13.5 L20.4 16.6 19.6 17.65 17.75 19.75 17.55 19.25 17.05 18.05 16.95 17.85 17.2 17.6 20.8 13.35 21.85 11.4 22.9 9.95 Q24.8 6.35 25.2 2.5 26.3 -0.8 27.0 -4.25 L28.05 -10.1 Q28.65 -13.75 28.55 -17.45 L28.55 -17.55 M30.1 31.25 L29.7 31.7 26.75 34.9 23.5 37.3 23.4 37.4 23.35 37.4 22.65 37.8 17.4 40.45 17.1 40.55 Q13.25 42.3 9.05 42.9 L2.25 43.55 -5.25 42.75 -11.1 42.5 -13.1 42.4 -16.0 41.85 -21.55 40.25 -21.5 40.25 -21.8 40.15 -21.9 40.1 Q-25.65 38.65 -28.4 35.75 L-28.6 35.55 -28.85 35.25 Q-30.5 33.75 -31.7 31.95 L-32.95 29.95 -33.7 28.6 -33.4 28.75 -33.0 28.8 -31.8 28.9 -28.55 32.3 -25.15 34.95 Q-23.05 36.35 -20.75 37.4 L-15.2 39.35 -9.7 40.55 -5.95 41.0 -3.1 41.05 2.0 40.95 7.7 40.4 9.85 39.95 10.55 40.2 10.7 40.25 12.35 39.7 Q15.45 39.05 16.75 36.15 L16.7 36.15 16.75 36.05 Q21.05 33.1 24.9 29.5 L26.65 30.35 Q27.95 30.95 29.4 31.2 L30.05 31.3 30.1 31.25 M-33.75 28.55 L-34.65 26.85 -35.25 25.75 -37.15 21.9 -37.4 21.35 -37.2 21.75 -35.55 24.1 Q-35.05 24.65 -34.7 25.35 L-33.8 26.5 -32.8 27.75 -32.5 28.1 -32.15 28.55 -32.6 28.5 -33.75 28.55 M-38.85 18.1 L-39.85 15.45 Q-39.55 15.75 -39.4 16.3 L-38.85 18.1 M-43.65 1.7 L-44.15 -1.25 -44.2 -1.55 -44.6 -5.9 -44.7 -10.9 -44.7 -11.0 -44.6 -11.45 -43.95 -13.1 -43.55 -13.6 -43.35 -13.6 -40.8 -13.5 -39.0 -13.55 -35.1 -14.0 -32.75 -14.55 -32.7 -14.35 -32.95 -11.55 -32.85 -9.8 -32.6 -8.4 -32.5 -8.0 -32.45 -7.75 Q-31.45 -3.55 -29.5 0.25 L-25.5 7.65 Q-24.0 10.25 -22.1 12.65 L-18.8 16.4 -19.0 16.85 -20.0 19.0 -23.45 15.65 -24.55 14.25 Q-28.05 10.9 -30.5 6.55 -32.65 2.8 -34.2 -1.1 L-36.5 -7.7 -37.15 -8.8 Q-37.9 -10.0 -39.2 -10.5 -41.7 -10.4 -42.75 -8.2 -43.6 -6.35 -43.6 -4.2 L-43.7 -3.15 -43.5 -0.6 -43.35 0.85 -43.3 1.75 -43.55 2.3 -43.65 1.7 M-24.0 -11.2 Q-24.45 -11.35 -24.55 -11.85 -24.9 -13.45 -26.45 -14.3 -27.1 -14.25 -27.55 -14.5 L-27.25 -14.75 -27.15 -14.8 -27.1 -14.85 -24.4 -14.9 Q-23.15 -14.15 -22.35 -12.65 L-22.4 -12.5 -22.25 -12.2 -22.2 -12.1 -22.15 -11.8 -22.15 -11.75 Q-22.55 -11.35 -23.25 -11.25 L-23.35 -11.25 -24.0 -11.2 M-19.5 -8.7 L-18.4 -5.85 -18.25 -5.55 -19.65 -5.7 -19.95 -5.7 -20.2 -5.65 -20.85 -6.85 -21.4 -7.95 -21.55 -8.25 -19.5 -8.7 M-20.1 -4.2 L-20.0 -3.8 -19.9 -3.1 Q-19.5 -1.95 -19.95 -0.6 L-20.2 -0.3 -23.0 1.7 -23.25 1.75 -24.65 1.8 -24.75 1.7 -24.9 1.65 Q-24.7 1.25 -24.05 1.25 -23.1 1.25 -22.55 0.45 -21.8 -0.75 -21.95 -2.05 L-22.0 -2.95 Q-22.4 -3.6 -22.0 -3.9 L-21.6 -4.1 -20.35 -4.3 -20.1 -4.2 M-18.3 -8.65 L-18.4 -8.95 -18.25 -8.7 -18.3 -8.65 M0.9 -10.95 L1.1 -10.9 0.95 -10.85 0.9 -10.95 M5.9 -11.05 L5.75 -11.1 5.85 -11.15 5.9 -11.05 M25.0 -5.45 L24.3 -4.1 Q24.05 -3.75 23.6 -3.8 L23.2 -3.9 23.1 -3.95 23.0 -4.1 23.0 -4.15 23.15 -4.9 23.55 -5.85 24.35 -5.65 25.0 -5.45 M22.3 -4.15 L21.25 -4.25 20.7 -4.45 20.95 -5.0 21.15 -5.55 21.4 -6.3 22.0 -6.2 23.0 -6.0 22.6 -4.6 22.3 -4.15 M20.05 -4.75 L18.6 -4.8 19.4 -6.85 19.95 -6.7 20.8 -6.45 20.15 -4.95 20.05 -4.75 M18.05 -5.05 Q17.05 -4.9 16.4 -5.05 L17.45 -7.3 18.9 -6.95 18.85 -6.8 18.2 -5.25 18.1 -5.05 18.05 -5.05 M31.55 -21.75 L31.55 -21.7 31.55 -21.65 31.55 -21.75 M-46.9 -27.65 L-46.85 -27.7 -46.85 -27.65 -46.9 -27.65 M-25.5 -45.45 L-25.6 -45.4 Q-28.0 -45.05 -29.95 -43.65 L-30.6 -43.1 -31.65 -42.1 -31.75 -42.05 -31.85 -41.95 -31.85 -41.9 -32.45 -41.3 -32.6 -41.05 -32.55 -41.2 -32.45 -41.45 -32.7 -41.15 -32.8 -41.0 -32.85 -40.95 -32.9 -40.9 -33.35 -40.2 Q-34.1 -39.05 -34.5 -37.7 L-34.5 -37.65 -34.7 -37.5 -34.55 -37.45 -35.65 -33.45 -36.15 -26.05 -36.15 -26.0 -36.15 -25.35 Q-36.15 -22.9 -35.55 -20.5 L-35.3 -19.2 -34.5 -17.25 -34.3 -16.5 Q-34.0 -15.5 -33.15 -15.4 L-32.75 -15.4 -33.2 -15.25 Q-36.7 -14.15 -40.35 -14.3 L-41.0 -14.3 -43.0 -14.55 -43.2 -14.65 -43.3 -14.7 Q-44.2 -15.25 -44.6 -16.2 L-44.6 -16.25 -45.15 -17.6 -45.25 -17.8 -45.4 -18.1 -45.35 -18.05 -45.5 -18.35 -45.9 -21.45 -45.9 -21.85 -45.95 -21.85 -46.0 -23.45 -45.55 -22.3 Q-44.9 -20.2 -43.1 -19.05 -38.35 -19.15 -38.75 -23.75 -39.3 -29.7 -37.45 -35.3 -36.2 -38.9 -33.9 -42.05 -33.1 -43.2 -34.0 -44.3 L-35.05 -44.55 -34.55 -44.8 -30.2 -46.1 -29.8 -46.15 -25.65 -45.5 -25.6 -45.45 -25.5 -45.45 M-26.3 -35.65 L-26.25 -35.55 -25.55 -34.4 -25.35 -34.05 -25.25 -33.95 -25.5 -33.8 Q-25.95 -33.6 -26.45 -33.35 L-26.5 -33.65 Q-26.7 -34.35 -27.25 -34.9 L-27.55 -35.2 -29.05 -36.1 -30.0 -36.4 -28.95 -36.85 -28.2 -36.9 -26.3 -35.65 M-25.8 -27.85 L-25.6 -27.85 -25.5 -27.9 -25.45 -27.85 -24.45 -27.75 -24.45 -27.65 -24.5 -27.6 -24.85 -26.7 -24.9 -26.55 Q-25.25 -25.65 -25.9 -24.95 L-26.05 -24.75 Q-26.9 -23.7 -28.1 -23.2 L-28.2 -23.2 -28.3 -23.2 -28.9 -23.3 -28.9 -23.35 -28.1 -23.8 -27.85 -24.05 -26.65 -25.55 -26.25 -26.25 -25.75 -27.7 -25.7 -27.8 -25.8 -27.85 M-25.8 -6.8 L-25.35 -7.0 -24.4 -7.3 -24.3 -6.85 -24.05 -5.95 -24.0 -5.8 -23.65 -4.9 -23.6 -4.85 Q-24.85 -4.5 -25.4 -5.5 L-25.55 -5.8 -25.8 -6.8 M-23.8 -7.5 L-22.25 -8.0 -21.65 -6.65 -20.9 -5.4 -22.75 -5.1 -23.3 -6.05 -23.8 -7.5 M-28.55 -5.45 L-28.25 -4.5 -28.1 -4.3 -28.05 -4.2 -28.7 -3.8 -28.85 -3.85 -28.9 -4.0 -29.35 -5.45 -28.6 -5.65 -28.55 -5.45 M-26.35 -5.95 L-26.05 -5.45 -26.0 -5.35 -25.95 -5.3 -25.8 -5.1 Q-25.5 -4.5 -26.15 -4.3 L-26.2 -4.3 -26.25 -4.2 Q-26.9 -4.1 -27.3 -4.65 L-27.55 -5.0 -27.65 -5.15 -27.95 -5.85 -26.75 -6.4 -26.55 -6.5 -26.35 -5.95 M-9.85 -12.6 L-9.95 -12.55 -10.0 -12.6 -9.85 -12.6 M-19.45 19.5 L-18.2 17.0 -18.1 17.1 -18.05 17.15 -16.85 18.2 -13.5 20.85 Q-11.65 22.05 -9.6 23.05 -5.55 25.1 -1.3 25.05 L-1.25 25.05 -0.9 25.05 4.55 24.45 6.35 24.1 Q9.05 23.45 11.35 22.1 L14.5 20.0 16.4 18.4 16.65 19.1 17.2 20.25 16.45 21.0 15.7 21.65 12.85 23.5 Q11.6 24.3 10.25 24.65 7.15 25.8 3.9 26.3 L2.55 26.45 Q0.15 26.65 -2.1 26.4 L-1.45 26.4 Q-5.7 26.4 -10.05 25.0 -15.3 23.4 -19.45 19.5 M-9.05 52.45 L-9.4 51.95 -9.35 51.9 -8.95 52.4 -9.05 52.45 M28.4 -3.15 L28.3 -3.15 27.55 -0.6 27.1 0.6 27.55 -0.6 28.4 -3.15 M-3.9 -1.9 L-3.9 -1.75 -3.95 -1.9 -3.9 -1.9 M-8.7 42.3 L-8.7 42.35 -8.45 42.35 -8.7 42.3" fill="#5e6777" fill-rule="evenodd" stroke="none"/>
    <path d="M32.8 -33.3 L32.3 -37.6 Q31.8 -40.85 30.05 -43.4 L29.85 -43.85 Q29.25 -45.05 28.3 -45.85 L29.15 -44.95 29.95 -44.55 32.65 -43.2 Q36.65 -40.95 39.0 -36.5 41.75 -31.3 41.25 -25.6 41.15 -24.35 40.3 -23.45 37.4 -20.35 33.55 -22.15 L32.45 -22.5 32.3 -23.15 Q32.9 -25.4 33.0 -27.75 L33.1 -28.6 33.0 -30.15 33.0 -30.7 33.0 -31.15 33.25 -31.4 32.95 -31.55 32.8 -33.3 M-37.15 21.9 L-38.5 18.95 -38.85 18.1 -39.4 16.3 Q-39.55 15.75 -39.85 15.45 L-40.55 13.45 -42.35 7.55 -43.65 1.7 -43.55 2.3 -43.3 1.75 -43.35 0.85 -43.5 -0.6 -43.7 -3.15 -43.6 -4.2 Q-43.6 -6.35 -42.75 -8.2 -41.7 -10.4 -39.2 -10.5 -37.9 -10.0 -37.15 -8.8 L-36.5 -7.7 -34.2 -1.1 Q-32.65 2.8 -30.5 6.55 -28.05 10.9 -24.55 14.25 L-23.45 15.65 -20.0 19.0 -21.0 20.7 Q-22.4 23.05 -24.4 24.85 L-27.35 26.9 Q-29.45 28.1 -31.85 28.5 L-32.15 28.55 -32.5 28.1 -32.8 27.75 -33.8 26.5 -34.7 25.35 Q-35.05 24.65 -35.55 24.1 L-37.2 21.75 -37.4 21.35 -37.15 21.9 M-29.75 -7.5 L-29.7 -7.8 -29.45 -7.8 -29.4 -7.85 -28.75 -8.05 -28.05 -8.4 -27.8 -8.5 -27.6 -8.5 -27.1 -8.6 -27.85 -8.05 -27.85 -7.95 -27.85 -7.9 -27.85 -7.8 -27.85 -7.7 -27.75 -7.65 -27.7 -7.55 Q-26.1 -7.65 -24.6 -8.4 L-23.2 -9.05 Q-21.8 -9.55 -21.1 -10.7 L-20.85 -10.85 -20.8 -10.85 -20.1 -11.15 -19.9 -10.1 -19.5 -8.7 -21.55 -8.25 -21.9 -9.45 -22.15 -9.4 -22.4 -9.3 -22.25 -8.0 -23.8 -7.5 -23.95 -8.65 -24.4 -8.45 -24.25 -8.5 -24.5 -8.15 -24.5 -8.35 -24.3 -6.85 -24.4 -7.3 -25.35 -7.0 -25.8 -6.8 -25.85 -7.6 -25.9 -7.6 -26.45 -7.45 -26.5 -7.45 -26.6 -6.7 -26.35 -5.95 -26.55 -6.5 -26.75 -6.4 -27.95 -5.85 -28.05 -6.9 -28.3 -6.8 -28.8 -6.7 -28.55 -5.45 -28.6 -5.65 -29.35 -5.45 -29.75 -7.5 M-18.05 -18.25 L-18.05 -18.3 -18.0 -18.2 -18.05 -18.25 M5.7 -11.1 L6.35 -11.4 5.85 -11.15 5.75 -11.1 5.7 -11.1 M-13.35 -4.75 L-13.35 -4.8 -13.0 -4.55 -13.35 -4.75 M17.75 19.75 L19.6 17.65 20.4 16.6 22.65 13.5 Q26.75 6.5 28.15 -1.45 L28.6 -2.5 29.5 -7.1 29.95 -8.35 Q30.95 -11.7 33.45 -13.8 L35.75 -14.1 Q36.5 -14.05 37.05 -13.55 38.85 -12.0 39.3 -9.65 L39.35 -9.1 39.55 -7.85 39.55 -7.8 39.55 -7.65 Q39.6 -4.25 38.95 -0.95 38.7 0.1 38.6 1.25 L37.55 6.5 Q36.6 10.0 35.2 13.35 32.75 19.3 29.15 24.7 L26.7 27.7 25.4 29.0 22.95 27.25 Q20.95 25.45 19.55 23.1 L17.75 19.75 M17.45 -7.3 Q18.1 -9.0 18.4 -10.8 L19.3 -10.45 19.6 -10.2 20.2 -10.0 21.0 -9.7 21.2 -9.6 21.4 -9.5 19.55 -9.9 19.4 -9.9 19.35 -9.85 19.15 -9.6 19.25 -9.35 19.4 -9.25 18.9 -6.95 17.45 -7.3 M24.8 -7.85 L24.85 -7.75 Q25.35 -7.55 25.3 -6.9 L25.0 -5.45 24.35 -5.65 23.55 -5.85 23.6 -6.3 23.7 -7.2 23.1 -7.35 23.1 -6.25 23.0 -6.0 22.0 -6.2 21.4 -6.3 21.7 -8.15 21.65 -8.2 21.25 -8.5 21.75 -8.3 24.4 -7.85 24.6 -7.8 24.75 -7.85 24.8 -7.85 M19.85 -9.05 L21.05 -8.55 Q20.8 -7.55 20.85 -6.65 L20.8 -6.45 19.95 -6.7 19.4 -6.85 19.85 -9.05 M34.3 -38.85 Q33.6 -38.55 33.65 -37.8 L34.05 -30.6 Q34.15 -28.9 35.15 -27.6 35.35 -27.25 35.7 -27.35 38.55 -28.05 38.05 -31.55 L37.55 -34.95 Q37.05 -38.1 34.3 -38.85 M46.7 -37.8 L45.3 -37.85 44.3 -37.0 43.8 -36.3 41.15 -41.05 Q42.55 -41.8 44.15 -41.65 L45.3 -39.75 46.7 -37.8 M33.0 -27.75 L33.05 -28.1 33.0 -27.75 M33.3 -10.65 L33.7 -11.35 33.3 -10.65 M34.5 -9.55 L34.45 -9.5 34.35 -9.45 34.15 -9.4 Q31.2 -5.35 30.2 -0.4 L29.25 2.65 Q26.25 9.1 24.9 15.95 L24.7 16.2 24.65 16.45 24.7 16.65 24.9 16.9 25.45 16.9 26.85 16.1 28.2 14.85 Q30.15 12.15 31.5 9.1 35.3 0.45 35.85 -8.75 L35.5 -9.25 35.3 -9.5 34.5 -9.55 M-46.7 -42.95 L-46.65 -42.95 -46.7 -42.95 M-54.6 -16.7 L-54.4 -16.7 -54.5 -16.55 -54.6 -16.7 M-45.9 -15.75 L-45.85 -15.6 -45.95 -15.65 -45.9 -15.75 M-55.05 -8.7 L-55.95 -9.45 -55.05 -8.75 -55.05 -8.7 M-34.55 -44.8 L-35.05 -44.55 -34.0 -44.3 Q-33.1 -43.2 -33.9 -42.05 -36.2 -38.9 -37.45 -35.3 -39.3 -29.7 -38.75 -23.75 -38.35 -19.15 -43.1 -19.05 -44.9 -20.2 -45.55 -22.3 L-46.0 -23.45 Q-46.0 -27.1 -44.95 -30.55 -43.25 -36.35 -39.65 -41.15 -37.35 -43.55 -34.55 -44.8 M-40.35 -35.85 L-40.4 -35.8 -41.1 -35.45 -41.75 -34.2 -42.65 -32.7 Q-44.45 -30.05 -42.75 -27.8 L-41.8 -27.8 -41.5 -28.05 Q-40.75 -29.0 -40.6 -30.2 L-40.45 -30.45 Q-39.0 -32.9 -39.7 -35.45 L-39.9 -35.65 -40.35 -35.85 M17.2 20.25 L18.65 23.05 19.85 24.8 Q21.25 26.55 22.9 28.0 L24.9 29.5 Q21.05 33.1 16.75 36.05 L16.7 36.15 16.75 35.45 16.75 35.0 16.45 33.85 Q15.25 32.05 13.1 31.9 10.95 31.7 9.15 32.7 7.3 33.95 7.2 35.9 7.25 36.85 7.6 37.65 L8.35 38.8 9.85 39.95 7.7 40.4 2.0 40.95 -3.1 41.05 -5.95 41.0 -9.7 40.55 -15.2 39.35 -20.75 37.4 Q-23.05 36.35 -25.15 34.95 L-28.55 32.3 -31.8 28.9 -30.85 28.8 Q-29.4 28.55 -28.1 27.95 -26.05 27.1 -24.35 25.6 L-21.3 22.4 -20.1 20.65 -19.45 19.5 Q-15.3 23.4 -10.05 25.0 -5.7 26.4 -1.45 26.4 L-2.1 26.4 Q0.15 26.65 2.55 26.45 L3.9 26.3 Q7.15 25.8 10.25 24.65 11.6 24.3 12.85 23.5 L15.7 21.65 16.45 21.0 17.2 20.25 M-38.9 -3.1 L-38.95 -3.55 -39.1 -3.8 -39.25 -4.0 -39.7 -4.2 -40.1 -4.1 -40.35 -3.95 -40.7 -3.25 Q-41.35 0.25 -40.45 3.7 -40.4 6.65 -39.35 9.5 L-38.7 11.3 Q-37.2 15.4 -35.0 19.2 -33.65 21.6 -31.15 21.7 -30.9 21.7 -30.85 21.55 -29.95 19.15 -31.7 16.55 -35.05 11.55 -36.35 5.75 -37.35 1.2 -38.9 -3.1 M-11.55 27.4 Q-15.35 26.3 -17.75 29.15 -19.85 31.75 -19.1 35.0 L-18.25 36.5 -17.75 37.2 -17.25 37.9 -17.15 37.85 -16.15 38.45 -15.7 38.7 -14.55 39.3 -9.85 39.65 -9.65 39.55 -9.4 39.45 -8.25 38.55 -8.2 38.5 -7.9 38.2 Q-6.65 36.75 -6.3 35.0 -5.8 31.3 -8.3 29.05 -9.75 27.75 -11.55 27.4 M-6.6 56.8 L-5.6 57.65 -6.9 57.45 -6.05 57.6 -6.05 57.3 -6.6 56.8 M4.4 28.15 L4.1 28.25 Q2.75 28.6 1.75 29.3 1.3 30.35 1.75 31.45 2.5 33.0 4.2 33.0 6.3 32.8 7.25 30.9 7.5 29.45 6.3 28.55 L5.35 28.15 4.4 28.15 M-8.7 42.3 L-8.45 42.35 -8.7 42.35 -8.7 42.3" fill="#8b94a3" fill-rule="evenodd" stroke="none"/>
    <path d="M32.95 -31.55 L33.25 -31.4 33.0 -31.15 33.0 -30.7 32.95 -31.55 M26.5 -47.25 L26.75 -47.25 26.65 -47.05 26.5 -47.25 M-32.75 -14.55 L-32.6 -14.6 -32.7 -14.35 -32.75 -14.55 M22.95 -28.25 L22.95 -28.65 23.95 -28.65 Q24.55 -28.75 24.7 -29.3 25.5 -28.65 26.35 -28.3 L26.45 -28.7 25.05 -29.55 25.05 -30.35 27.3 -30.4 Q27.8 -30.9 27.9 -31.55 28.4 -34.75 24.95 -34.6 L24.9 -34.5 24.65 -34.4 24.45 -34.3 Q23.85 -33.8 23.7 -33.15 L22.95 -33.35 23.0 -33.5 23.75 -34.55 23.85 -34.7 23.85 -34.75 24.9 -35.8 26.5 -36.55 Q28.05 -36.75 28.7 -35.5 L29.1 -34.35 Q29.6 -33.05 29.5 -31.6 29.3 -29.35 28.4 -27.2 28.05 -26.3 27.25 -25.7 26.8 -25.35 26.25 -25.2 L25.05 -25.3 Q24.35 -25.45 23.8 -26.0 22.9 -26.7 22.95 -27.7 L22.95 -28.25 M33.3 -10.65 L33.7 -11.35 33.3 -10.65 M62.0 -26.1 L61.75 -26.2 61.85 -26.75 62.0 -26.1 M-45.95 -21.85 L-45.9 -21.85 -45.9 -21.45 -45.95 -21.85 M-34.55 -37.45 L-34.7 -37.5 -34.5 -37.65 -34.5 -37.7 -34.55 -37.45 M-26.45 -33.35 L-26.85 -33.2 -27.05 -33.1 Q-27.5 -32.75 -28.1 -32.75 -28.7 -32.75 -28.6 -31.85 L-28.85 -31.95 Q-28.6 -33.0 -28.65 -34.1 -28.65 -35.2 -29.85 -35.2 -30.8 -34.7 -31.05 -33.55 L-31.25 -32.45 Q-31.45 -31.4 -31.15 -30.45 -31.05 -29.95 -30.6 -29.8 -29.7 -29.5 -29.6 -30.35 -29.25 -30.75 -29.05 -31.3 L-29.0 -31.35 -28.7 -31.15 Q-29.3 -30.1 -28.45 -29.35 -27.65 -28.55 -28.3 -27.7 -29.1 -26.7 -30.15 -26.1 L-30.1 -25.95 -30.1 -25.9 -29.85 -26.0 -29.35 -26.15 -29.2 -26.2 Q-28.1 -27.1 -27.3 -28.45 -26.8 -28.05 -25.95 -27.9 L-25.8 -27.85 -25.7 -27.8 -25.75 -27.7 -26.25 -26.25 -26.65 -25.55 -27.85 -24.05 -28.1 -23.8 -28.9 -23.35 -28.9 -23.3 -29.8 -23.7 -30.0 -23.9 -30.65 -24.6 -31.6 -26.55 -31.9 -28.0 -32.1 -30.9 -32.05 -32.75 -31.5 -34.9 -31.05 -35.45 -30.0 -36.4 -29.05 -36.1 -27.55 -35.2 -27.25 -34.9 Q-26.7 -34.35 -26.5 -33.65 L-26.45 -33.35 M-26.5 -7.45 L-26.45 -7.45 -26.5 -7.4 -26.5 -7.45 M-8.6 2.95 L-8.7 2.8 -8.6 2.8 -8.6 2.95" fill="#a7adb8" fill-rule="evenodd" stroke="none"/>
    <path d="M29.85 -18.2 L28.55 -18.45 26.85 -18.8 26.7 -18.8 25.95 -18.95 Q26.5 -22.1 26.25 -25.2 26.8 -25.35 27.25 -25.7 28.05 -26.3 28.4 -27.2 29.3 -29.35 29.5 -31.6 29.6 -33.05 29.1 -34.35 L28.7 -35.5 Q28.05 -36.75 26.5 -36.55 L24.9 -35.8 23.85 -34.75 23.85 -34.7 Q22.15 -38.25 17.85 -38.0 L17.55 -37.95 16.6 -37.7 Q16.5 -38.75 17.0 -39.75 L17.75 -41.75 18.35 -42.2 19.45 -42.65 Q23.65 -42.95 25.7 -40.3 L26.7 -39.6 28.3 -37.45 28.4 -37.3 28.6 -37.1 28.65 -37.05 Q28.65 -37.05 28.75 -37.0 L29.05 -36.9 29.3 -36.7 29.85 -35.95 30.05 -35.45 30.55 -34.0 30.7 -33.25 30.75 -32.55 30.7 -31.5 30.65 -30.55 30.2 -28.3 30.4 -28.9 Q31.05 -27.2 30.65 -25.25 L30.45 -23.8 29.85 -18.2 M25.8 -18.15 L26.3 -18.05 27.65 -17.75 28.0 -17.65 28.55 -17.55 28.55 -17.45 Q28.65 -13.75 28.05 -10.1 L27.0 -4.25 Q26.3 -0.8 25.2 2.5 24.8 6.35 22.9 9.95 L21.85 11.4 20.8 13.35 17.2 17.6 16.95 17.85 17.05 18.05 17.55 19.25 17.75 19.75 19.55 23.1 Q20.95 25.45 22.95 27.25 L25.4 29.0 25.9 29.3 Q28.0 30.5 30.35 30.9 L30.45 30.9 30.1 31.25 30.05 31.3 29.4 31.2 Q27.95 30.95 26.65 30.35 L24.9 29.5 22.9 28.0 Q21.25 26.55 19.85 24.8 L18.65 23.05 17.2 20.25 16.65 19.1 16.4 18.4 14.5 20.0 11.35 22.1 Q9.05 23.45 6.35 24.1 L4.55 24.45 -0.9 25.05 -1.25 25.05 -1.3 25.05 Q-5.55 25.1 -9.6 23.05 -11.65 22.05 -13.5 20.85 L-16.85 18.2 -18.05 17.15 -18.1 17.1 -18.2 17.0 -19.45 19.5 -20.1 20.65 -21.3 22.4 -24.35 25.6 Q-26.05 27.1 -28.1 27.95 -29.4 28.55 -30.85 28.8 L-31.8 28.9 -33.0 28.8 -33.4 28.75 -33.7 28.6 -33.75 28.55 -32.6 28.5 -32.15 28.55 -31.85 28.5 Q-29.45 28.1 -27.35 26.9 L-24.4 24.85 Q-22.4 23.05 -21.0 20.7 L-20.0 19.0 -19.0 16.85 -18.8 16.4 -22.1 12.65 Q-24.0 10.25 -25.5 7.65 L-29.5 0.25 Q-31.45 -3.55 -32.45 -7.75 L-32.35 -7.8 -32.4 -8.0 -32.55 -8.4 -32.6 -8.4 -32.85 -9.8 -32.95 -11.55 -32.7 -14.35 -32.6 -14.6 -30.85 -15.15 -30.65 -15.35 -30.65 -15.3 -29.9 -11.0 -29.95 -9.15 -29.75 -7.5 -29.35 -5.45 -28.9 -4.0 -28.85 -3.85 -28.8 -3.75 -28.7 -3.8 -28.05 -4.2 -28.1 -4.3 -28.25 -4.5 -28.55 -5.45 -28.8 -6.7 -28.3 -6.8 -28.05 -6.9 -27.95 -5.85 -27.65 -5.15 -27.55 -5.0 -27.3 -4.65 Q-26.9 -4.1 -26.25 -4.2 L-26.2 -4.3 -26.15 -4.3 Q-25.5 -4.5 -25.8 -5.1 L-25.95 -5.3 -26.0 -5.35 -26.05 -5.45 -26.35 -5.95 -26.6 -6.7 -26.5 -7.45 -26.5 -7.4 -26.45 -7.45 -25.9 -7.6 -25.85 -7.6 -25.8 -6.8 -25.55 -5.8 -25.4 -5.5 Q-24.85 -4.5 -23.6 -4.85 L-23.65 -4.9 -24.0 -5.8 -24.05 -5.95 -24.3 -6.85 -24.5 -8.35 -24.5 -8.15 -24.25 -8.5 -24.4 -8.45 -23.95 -8.65 -23.8 -7.5 -23.3 -6.05 -22.75 -5.1 -20.9 -5.4 -21.65 -6.65 -22.25 -8.0 -22.4 -9.3 -22.15 -9.4 -21.9 -9.45 -21.55 -8.25 -21.4 -7.95 -20.85 -6.85 -20.2 -5.65 -19.95 -5.7 -19.65 -5.7 -18.25 -5.55 -18.4 -5.85 -17.8 -4.7 -17.75 -4.4 -18.5 -4.8 -20.2 -4.55 -20.1 -4.2 -20.35 -4.3 -21.6 -4.1 -22.0 -3.9 -22.2 -3.6 -22.4 -3.65 -22.5 -3.7 -22.75 -3.8 -22.75 -3.75 -23.0 -3.75 -25.85 -3.2 -26.05 -3.1 -25.9 -3.15 -25.95 -3.15 Q-26.95 -2.65 -28.05 -2.55 L-28.35 -2.55 Q-27.2 0.0 -24.9 1.65 L-24.75 1.7 -24.75 1.8 -24.25 3.3 -22.45 6.6 -20.8 9.25 Q-19.7 11.0 -18.15 12.2 L-18.0 12.35 -15.6 14.65 -15.55 14.7 -15.3 14.95 Q-13.35 17.3 -9.85 18.6 0.8 22.5 10.0 17.5 L11.55 15.85 11.55 15.9 12.45 15.35 14.15 13.55 14.95 12.7 14.95 12.5 15.15 11.4 15.4 11.4 15.45 11.45 15.5 11.5 15.55 12.0 Q19.25 7.55 20.65 1.9 L21.75 -0.4 21.85 -0.15 22.05 0.15 22.3 0.4 22.55 0.75 23.05 0.45 23.4 0.25 25.05 -2.3 Q26.1 -4.2 26.85 -6.25 28.1 -9.75 27.15 -13.4 L27.1 -13.45 26.8 -13.5 26.2 -13.6 26.3 -13.5 Q25.3 -13.35 24.45 -12.75 L25.3 -16.05 25.8 -18.15 M-29.7 -7.8 L-29.8 -7.8 -29.9 -8.7 -27.6 -9.6 -27.55 -9.65 -26.95 -10.05 -24.55 -11.05 -24.0 -11.2 -23.35 -11.25 -23.25 -11.25 Q-22.55 -11.35 -22.15 -11.75 L-22.15 -11.8 -22.15 -11.85 -22.1 -11.5 -20.15 -12.15 -20.2 -12.3 -20.15 -12.3 -20.05 -11.65 -20.05 -11.4 -20.05 -10.85 -19.9 -10.1 -20.1 -11.15 -20.8 -10.85 -21.6 -10.55 -21.95 -10.45 -22.7 -10.1 -23.1 -9.95 -24.5 -9.3 -24.5 -9.35 -25.75 -8.9 -26.4 -8.8 -27.05 -8.65 -27.1 -8.6 -27.6 -8.5 -27.8 -8.5 -28.05 -8.4 -28.75 -8.05 -29.4 -7.85 -29.45 -7.8 -29.7 -7.8 M23.1 -3.95 Q22.85 -3.8 22.45 -3.95 L22.3 -4.15 22.6 -4.6 23.0 -6.0 23.1 -6.25 23.1 -7.35 23.7 -7.2 23.6 -6.3 23.55 -5.85 23.15 -4.9 23.0 -4.15 23.0 -4.1 23.1 -3.95 M20.95 -5.0 L20.55 -4.7 20.2 -4.65 20.05 -4.75 20.15 -4.95 20.8 -6.45 20.85 -6.65 Q20.8 -7.55 21.05 -8.55 L21.05 -8.6 21.1 -8.55 21.15 -8.55 21.25 -8.5 21.65 -8.2 21.7 -8.15 21.4 -6.3 21.15 -5.55 20.95 -5.0 M18.6 -4.8 Q18.15 -4.75 18.05 -5.05 L18.1 -5.05 18.2 -5.25 18.85 -6.8 18.9 -6.95 19.4 -9.25 19.4 -9.35 19.55 -9.3 19.9 -9.15 19.85 -9.05 19.4 -6.85 18.6 -4.8 M-32.6 -41.05 L-32.45 -41.3 -31.85 -41.9 -31.85 -41.95 -31.75 -42.05 -31.65 -42.1 -30.6 -43.1 -29.95 -43.65 Q-28.0 -45.05 -25.6 -45.4 L-25.5 -45.45 -22.95 -44.5 Q-22.05 -43.75 -21.05 -43.25 L-21.0 -42.7 Q-22.15 -43.4 -23.75 -43.25 L-26.55 -42.4 Q-29.2 -41.1 -30.2 -38.25 L-30.3 -37.8 -30.7 -37.55 -31.1 -37.3 Q-32.3 -36.35 -32.6 -35.0 L-32.65 -35.0 Q-33.45 -31.5 -33.15 -27.95 -32.95 -25.75 -31.7 -23.95 L-31.7 -21.65 -31.55 -19.35 Q-31.5 -17.65 -30.9 -16.1 L-31.65 -15.8 -31.8 -15.75 -31.8 -15.7 -32.7 -15.4 -32.75 -15.4 -33.15 -15.4 Q-34.0 -15.5 -34.3 -16.5 L-34.5 -17.25 -35.3 -19.2 -35.55 -20.5 Q-36.15 -22.9 -36.15 -25.35 L-36.15 -26.0 -36.15 -26.05 -35.65 -33.45 -34.55 -37.45 -34.5 -37.7 Q-34.1 -39.05 -33.35 -40.2 L-32.9 -40.9 -32.85 -40.95 -32.8 -41.0 -32.7 -41.15 -32.6 -41.05" fill="#414652" fill-rule="evenodd" stroke="none"/>
    <path d="M25.95 -18.95 L23.1 -19.55 21.5 -19.9 21.35 -19.95 21.05 -20.0 21.0 -20.0 18.65 -20.35 16.75 -20.55 16.6 -20.5 16.55 -20.3 17.45 -20.05 25.8 -18.15 25.3 -16.05 24.45 -12.75 23.9 -12.3 Q23.2 -11.65 22.8 -10.8 L22.4 -9.9 23.3 -9.3 21.65 -10.4 21.45 -10.5 20.2 -11.15 20.1 -11.25 19.7 -11.45 18.5 -11.95 Q19.0 -16.6 15.7 -20.15 L15.8 -20.4 15.7 -21.3 Q15.5 -22.65 15.6 -23.9 17.15 -25.15 17.9 -26.9 19.1 -26.8 20.7 -27.4 L21.0 -27.55 21.15 -27.5 21.95 -28.0 22.95 -28.25 22.95 -27.7 Q22.9 -26.7 23.8 -26.0 24.35 -25.45 25.05 -25.3 L26.25 -25.2 Q26.5 -22.1 25.95 -18.95 M-30.65 -15.35 L-28.75 -16.2 -28.15 -16.45 -27.8 -14.3 -28.05 -14.05 -28.3 -13.95 Q-29.65 -12.7 -29.9 -11.0 L-30.65 -15.3 -30.65 -15.35 M-24.65 1.8 L-24.75 1.8 -24.75 1.7 -24.65 1.8 M11.55 15.85 Q15.7 10.45 12.5 5.05 L12.7 4.35 13.05 3.7 Q13.4 2.8 13.1 1.9 L12.55 0.1 12.4 -0.6 12.65 -0.8 Q14.55 -2.25 15.9 -4.35 L17.9 -3.7 18.65 -3.55 21.05 -3.25 21.15 -3.25 Q21.05 -1.75 21.75 -0.4 L20.65 1.9 Q19.25 7.55 15.55 12.0 L15.5 11.5 15.45 11.45 15.4 11.4 15.15 11.4 14.95 12.5 14.95 12.7 14.15 13.55 12.45 15.35 11.55 15.9 11.55 15.85 M23.0 -33.5 L22.9 -33.5 Q22.0 -33.6 21.7 -34.25 L21.65 -34.25 21.6 -34.1 Q20.3 -33.8 19.4 -35.05 18.45 -36.3 17.05 -35.9 16.6 -36.8 16.6 -37.7 L17.55 -37.95 17.85 -38.0 Q22.15 -38.25 23.85 -34.7 L23.75 -34.55 23.0 -33.5 M19.95 -12.05 L20.0 -11.95 20.25 -11.65 19.95 -12.05 M-21.0 -42.7 L-20.95 -42.3 -20.65 -41.2 -20.2 -40.2 -20.3 -39.8 -21.2 -40.05 Q-25.0 -39.2 -26.3 -35.65 L-28.2 -36.9 -28.95 -36.85 -30.0 -36.4 -31.05 -35.45 -31.5 -34.9 -32.15 -34.45 -32.25 -34.4 -32.3 -34.4 -32.3 -34.45 -32.35 -34.5 Q-32.35 -35.2 -31.8 -35.75 L-31.7 -35.85 Q-32.05 -36.0 -31.75 -36.4 L-31.0 -37.3 -30.7 -37.55 -30.3 -37.8 -30.2 -38.25 Q-29.2 -41.1 -26.55 -42.4 L-23.75 -43.25 Q-22.15 -43.4 -21.0 -42.7 M-28.3 -23.2 L-28.2 -17.2 -28.95 -16.85 -30.9 -16.1 Q-31.5 -17.65 -31.55 -19.35 L-31.7 -21.65 -31.7 -23.95 -31.7 -24.0 -31.55 -23.75 -31.45 -23.65 -31.15 -23.3 -31.1 -23.2 -30.55 -23.1 -30.2 -23.0 -30.9 -23.55 Q-31.8 -24.5 -32.3 -25.75 L-32.5 -26.55 -32.4 -27.45 -32.4 -27.5 -32.35 -27.6 -32.35 -27.65 -32.3 -27.65 -32.2 -27.65 -32.1 -27.55 -32.1 -27.5 -31.6 -26.55 -30.65 -24.6 -30.0 -23.9 -29.8 -23.7 -28.9 -23.3 -28.3 -23.2 M17.7 -3.1 L17.7 -2.95 17.75 -2.8 17.75 -3.1 17.7 -3.1" fill="#23252e" fill-rule="evenodd" stroke="none"/>
    <path d="M4.25 -38.75 Q5.1 -38.7 5.2 -37.75 L5.35 -36.9 Q5.6 -35.85 4.8 -35.7 L4.7 -35.65 4.65 -35.7 4.1 -35.85 3.85 -36.25 3.6 -36.75 Q3.1 -37.95 4.05 -38.75 L4.25 -38.75" fill="#5f2407" fill-rule="evenodd" stroke="none"/>
    <path d="M5.25 2.15 Q-1.8 4.6 -8.25 1.8 L-8.25 1.4 -8.25 1.2 -8.2 1.05 -7.9 0.5 -7.85 0.45 Q-6.85 1.0 -5.75 0.95 L-4.6 0.75 Q-3.65 -0.4 -3.9 -1.75 L-3.9 -1.9 0.95 -2.05 1.0 -1.85 Q1.55 -0.65 2.7 -0.1 L3.95 -0.05 4.45 0.35 4.8 0.85 5.6 1.9 5.6 2.0 5.25 2.15 M-14.0 -2.1 L-15.95 -4.3 -16.65 -5.3 Q-17.7 -6.9 -18.3 -8.65 L-18.25 -8.7 -17.6 -8.0 Q-15.95 -6.35 -14.1 -5.2 L-14.1 -5.0 Q-14.15 -4.3 -13.5 -4.4 L-13.45 -4.5 -13.35 -4.75 -13.0 -4.55 -13.35 -4.8 -12.8 -5.9 -12.5 -6.25 -12.9 -5.6 -12.9 -5.5 -12.85 -5.3 -12.85 -4.55 -12.85 -4.5 -12.9 -4.15 -13.2 -3.2 -13.75 -2.35 -14.0 -2.1 M-17.8 -17.95 Q-16.15 -15.75 -13.35 -15.25 -12.55 -15.1 -11.85 -15.6 -11.15 -16.2 -10.75 -15.15 -9.15 -13.75 -7.35 -12.85 -5.6 -11.95 -3.55 -12.8 L-3.0 -12.5 Q-1.15 -11.55 0.9 -10.95 L0.95 -10.85 -0.3 -10.4 -3.25 -10.1 -6.1 -10.55 -7.45 -11.0 -9.05 -11.9 -9.2 -12.1 -9.85 -12.6 -10.0 -12.6 -11.8 -12.9 -11.95 -12.95 -13.85 -13.4 -13.95 -13.45 -14.9 -13.95 -16.35 -14.95 -16.95 -15.6 -17.4 -16.6 -17.6 -16.85 Q-18.0 -17.45 -17.85 -17.95 L-17.8 -17.95 M6.35 -11.4 L6.55 -11.5 6.65 -11.55 9.1 -14.35 10.8 -14.6 12.15 -14.95 12.8 -15.2 Q13.9 -15.75 14.45 -17.05 L15.25 -18.3 Q17.6 -15.1 17.15 -11.5 16.7 -7.9 14.75 -4.65 L11.9 -1.4 Q11.5 -2.4 10.6 -3.15 L10.55 -3.2 Q10.1 -3.6 10.15 -4.0 10.2 -4.45 10.95 -4.95 L10.8 -6.2 10.3 -7.05 10.2 -7.35 10.15 -7.45 10.25 -7.8 Q10.9 -9.5 11.05 -11.25 L10.2 -11.0 8.75 -10.7 5.9 -11.05 5.85 -11.15 6.35 -11.4 M-10.35 -7.05 L-9.5 -7.15 Q-9.2 -7.15 -9.15 -7.45 L-9.25 -7.75 -8.2 -7.25 -7.95 -7.05 -7.15 -6.35 -7.05 -6.2 Q-7.05 -5.85 -7.35 -5.8 L-7.35 -5.75 -8.55 -6.35 -10.35 -7.05 M-9.4 -7.8 L-9.45 -7.8 -10.5 -7.9 -9.4 -7.8 M-13.85 -6.0 L-13.85 -5.9 -13.95 -5.65 -13.85 -6.0 M0.95 -2.2 L0.95 -2.25 Q0.9 -3.35 1.75 -4.25 3.45 -5.95 5.4 -6.95 6.8 -7.75 8.5 -7.6 L8.45 -7.4 Q8.6 -6.7 9.25 -6.25 L9.45 -6.05 9.55 -5.95 9.75 -5.95 9.4 -6.0 9.25 -6.05 7.45 -6.4 7.35 -6.45 6.85 -6.6 6.6 -6.65 6.5 -6.6 6.45 -6.55 6.35 -6.4 6.3 -6.45 Q4.15 -5.6 2.55 -3.85 L2.6 -3.8 2.55 -3.75 2.35 -2.95 2.35 -2.85 1.9 -2.25 1.3 -2.1 0.95 -2.2" fill="#4a5c93" fill-rule="evenodd" stroke="none"/>
    <path d="M-18.4 -8.95 L-18.45 -9.0 Q-19.55 -12.35 -18.95 -15.8 L-18.85 -15.8 -18.6 -16.5 -18.85 -16.35 -18.65 -17.25 -18.05 -18.25 -18.0 -18.2 -18.4 -17.05 -17.85 -17.95 Q-18.0 -17.45 -17.6 -16.85 L-17.4 -16.6 -16.95 -15.6 -16.35 -14.95 -14.9 -13.95 -13.95 -13.45 -13.85 -13.4 -11.95 -12.95 -11.8 -12.9 -10.0 -12.6 -9.95 -12.55 -9.85 -12.6 -9.2 -12.1 -9.05 -11.9 -7.45 -11.0 -6.1 -10.55 -3.25 -10.1 -0.3 -10.4 0.95 -10.85 1.1 -10.9 1.3 -10.85 1.45 -10.8 1.5 -10.8 1.95 -10.7 2.45 -10.6 3.85 -10.6 3.85 -10.55 3.9 -10.6 5.7 -11.1 5.75 -11.1 5.9 -11.05 8.75 -10.7 10.2 -11.0 11.05 -11.25 Q10.9 -9.5 10.25 -7.8 L10.15 -7.45 10.2 -7.35 10.3 -7.05 10.8 -6.2 10.95 -4.95 Q10.2 -4.45 10.15 -4.0 L9.65 -4.2 9.65 -4.35 9.75 -5.3 9.4 -6.0 9.75 -5.95 9.55 -5.95 9.45 -6.05 9.25 -6.25 Q8.6 -6.7 8.45 -7.4 L8.5 -7.6 Q6.8 -7.75 5.4 -6.95 3.45 -5.95 1.75 -4.25 0.9 -3.35 0.95 -2.25 L0.95 -2.2 0.95 -2.05 -3.9 -1.9 -3.95 -1.9 -3.9 -1.75 Q-3.65 -0.4 -4.6 0.75 L-5.75 0.95 -5.35 0.5 Q-4.65 -0.35 -4.9 -1.4 L-5.25 -2.85 -5.3 -3.0 -5.3 -3.25 -5.55 -3.5 -5.8 -3.95 -7.25 -5.7 -7.35 -5.75 -7.35 -5.8 Q-7.05 -5.85 -7.05 -6.2 L-7.15 -6.35 -7.95 -7.05 -8.2 -7.25 -9.25 -7.75 -9.4 -7.8 -10.5 -7.9 -11.05 -7.95 Q-12.15 -7.9 -13.05 -7.2 L-13.5 -6.85 -13.65 -6.7 Q-13.95 -6.4 -13.85 -6.0 L-13.95 -5.65 -14.1 -5.2 Q-15.95 -6.35 -17.6 -8.0 L-18.25 -8.7 -18.4 -8.95 M-12.75 -12.05 Q-13.15 -12.9 -13.85 -13.3 L-15.55 -13.6 -16.25 -12.8 Q-16.7 -11.4 -16.65 -9.95 -16.55 -8.5 -15.35 -7.7 L-13.4 -7.65 Q-11.1 -8.9 -12.35 -11.25 L-12.75 -12.05" fill="#7a8bbc" fill-rule="evenodd" stroke="none"/>
    <path d="M-9.25 -7.75 L-9.15 -7.45 Q-9.2 -7.15 -9.5 -7.15 L-10.35 -7.05 -11.55 -6.7 -12.35 -6.35 -12.5 -6.25 -12.8 -5.9 -13.35 -4.8 -13.35 -4.75 -13.45 -4.5 -13.5 -4.4 Q-14.15 -4.3 -14.1 -5.0 L-14.1 -5.2 -13.95 -5.65 -13.85 -5.9 -13.85 -6.0 Q-13.95 -6.4 -13.65 -6.7 L-13.5 -6.85 -13.05 -7.2 Q-12.15 -7.9 -11.05 -7.95 L-10.5 -7.9 -9.45 -7.8 -9.4 -7.8 -9.25 -7.75" fill="#586dab" fill-rule="evenodd" stroke="none"/>
    <path d="M3.85 -10.6 L3.9 -10.6 3.85 -10.55 3.85 -10.6" fill="#a8a8a8" fill-rule="evenodd" stroke="none"/>
    <path d="M17.9 -3.7 L18.65 -3.55 17.9 -3.7 M19.95 -12.05 L20.25 -11.65 20.0 -11.95 19.95 -12.05 M33.0 -27.75 L33.05 -28.1 33.0 -27.75 M28.4 -3.15 L27.55 -0.6 27.1 0.6 27.55 -0.6 28.3 -3.15 28.4 -3.15" fill="#676767" fill-rule="evenodd" stroke="none"/>
    <path d="M51.8 -19.8 Q52.85 -20.15 53.2 -21.4 54.4 -25.35 53.9 -29.7 53.55 -33.1 52.6 -36.5 51.6 -40.05 49.0 -42.45 54.4 -40.35 58.55 -35.9 60.4 -32.75 60.6 -28.8 60.75 -24.9 58.95 -21.65 57.6 -18.95 54.8 -18.0 L53.1 -18.15 52.7 -18.3 Q52.1 -19.0 51.8 -19.8 M62.0 -26.1 Q62.4 -23.45 61.9 -20.45 61.25 -17.1 60.1 -14.15 57.5 -10.3 53.6 -7.65 49.75 -5.05 45.2 -4.3 L45.45 -5.1 45.35 -5.2 Q45.2 -6.15 45.6 -6.8 45.35 -7.65 45.65 -8.75 L45.8 -9.55 Q45.95 -12.9 44.95 -16.0 44.7 -16.85 44.95 -17.75 L45.15 -18.15 45.3 -18.7 45.85 -20.35 Q46.65 -19.05 48.05 -18.65 L51.15 -18.3 51.75 -17.3 Q53.2 -16.3 55.15 -16.9 58.35 -18.0 59.8 -20.9 61.1 -23.5 61.75 -26.2 L62.0 -26.1 M-46.65 -42.95 L-46.2 -42.95 -45.05 -42.75 -45.05 -42.15 Q-52.55 -33.3 -51.5 -21.5 -51.35 -19.7 -52.65 -18.4 L-55.45 -18.2 Q-58.45 -19.9 -59.6 -22.95 L-59.8 -23.5 Q-59.1 -23.05 -58.5 -22.2 -57.45 -20.8 -55.75 -20.35 -54.65 -20.7 -53.8 -21.5 L-53.65 -21.7 Q-54.15 -23.9 -54.25 -26.2 L-53.95 -27.5 Q-52.9 -33.95 -49.5 -39.6 -48.35 -41.55 -46.65 -42.95 M-54.4 -16.7 L-54.05 -16.65 -53.75 -16.65 -52.85 -16.8 Q-52.35 -16.95 -51.9 -17.2 -50.4 -19.7 -50.55 -22.7 L-50.6 -23.55 Q-51.05 -27.15 -50.0 -30.2 -49.35 -33.35 -47.65 -36.15 L-44.15 -41.65 Q-42.55 -41.8 -41.15 -41.05 -45.25 -34.9 -46.9 -27.65 L-46.85 -27.65 -46.9 -27.55 -46.9 -27.5 -47.0 -23.3 Q-47.1 -20.5 -46.5 -17.9 L-45.9 -15.75 -45.95 -15.65 -45.85 -15.6 -45.45 -14.55 -45.45 -14.5 -44.95 -13.6 Q-44.85 -13.35 -45.05 -13.15 L-45.55 -12.6 -46.2 -8.5 -46.2 -8.2 Q-46.1 -7.5 -46.3 -6.85 L-46.05 -4.4 Q-51.0 -5.55 -55.05 -8.7 L-55.05 -8.75 -55.95 -9.45 -56.8 -10.25 -57.0 -10.45 -59.2 -13.05 -60.4 -15.2 -59.65 -14.65 -59.05 -14.2 Q-56.7 -14.85 -54.75 -16.4 L-54.5 -16.55 -54.4 -16.7 M-18.4 43.95 L-13.4 45.5 Q-12.8 49.15 -10.7 52.25 L-10.15 52.95 Q-8.6 55.1 -6.6 56.8 L-6.05 57.3 -6.05 57.6 -6.9 57.45 Q-9.8 56.9 -12.55 55.65 L-13.0 55.4 -13.65 55.1 Q-16.05 53.8 -18.0 51.95 -19.35 48.05 -18.4 43.95 M6.5 44.65 L8.1 44.55 11.0 44.15 Q13.2 43.95 15.3 42.9 14.05 49.0 9.95 54.3 8.55 56.2 6.8 57.75 5.2 59.15 3.1 59.25 L3.0 59.25 2.85 59.25 2.8 59.25 2.7 59.25 Q-0.8 59.4 -3.85 57.45 -6.9 55.45 -9.05 52.45 L-8.95 52.4 Q-7.55 53.85 -5.75 54.55 1.8 57.45 6.2 50.95 L7.0 49.1 Q7.5 46.4 6.5 44.65 M25.65 43.0 L22.75 47.25 22.45 47.35 Q16.85 54.1 8.9 57.35 14.35 51.6 16.2 44.3 21.4 42.5 25.9 38.9 L26.5 38.1 Q26.9 40.7 25.65 43.0" fill="#5e6781" fill-rule="evenodd" stroke="none"/>
    <path d="M49.0 -42.45 Q51.6 -40.05 52.6 -36.5 53.55 -33.1 53.9 -29.7 54.4 -25.35 53.2 -21.4 52.85 -20.15 51.8 -19.8 51.2 -21.3 51.5 -23.0 51.95 -25.65 51.45 -28.05 50.15 -35.85 45.2 -42.2 L44.95 -42.6 45.45 -42.85 45.8 -42.95 46.0 -42.95 46.25 -42.95 Q46.25 -42.95 46.35 -42.9 L46.5 -42.9 47.0 -42.85 47.0 -42.8 48.1 -42.75 49.0 -42.45 M45.8 -31.45 L45.95 -30.95 Q47.35 -30.45 49.1 -31.3 L49.3 -31.55 49.6 -31.6 Q50.8 -27.6 50.7 -23.05 L50.6 -21.55 50.6 -21.25 Q50.5 -19.7 51.15 -18.3 L48.05 -18.65 Q46.65 -19.05 45.85 -20.35 L46.45 -23.2 46.7 -25.95 46.65 -26.45 46.6 -26.9 46.25 -29.65 46.2 -30.1 45.8 -31.45 M-58.9 -32.75 Q-59.85 -29.35 -56.35 -29.05 -55.3 -29.9 -54.4 -31.05 -51.65 -34.55 -55.4 -36.05 -58.15 -35.6 -58.9 -32.75 M-59.8 -23.5 Q-60.75 -26.3 -60.65 -29.35 -60.35 -31.8 -59.5 -34.1 -58.75 -36.4 -56.5 -37.85 L-51.95 -41.15 Q-49.5 -42.65 -46.7 -42.95 L-46.65 -42.95 Q-48.35 -41.55 -49.5 -39.6 -52.9 -33.95 -53.95 -27.5 L-54.25 -26.2 Q-54.15 -23.9 -53.65 -21.7 L-53.8 -21.5 Q-54.65 -20.7 -55.75 -20.35 -57.45 -20.8 -58.5 -22.2 -59.1 -23.05 -59.8 -23.5 M-60.4 -15.2 Q-61.1 -16.65 -61.45 -18.25 -62.8 -22.5 -61.85 -26.75 -61.2 -23.7 -59.7 -20.75 -58.25 -17.85 -55.0 -16.75 L-54.75 -16.4 Q-56.7 -14.85 -59.05 -14.2 L-59.65 -14.65 -60.4 -15.2 M-18.0 51.95 L-20.15 49.65 -23.05 45.7 Q-24.5 43.55 -23.1 41.3 L-20.65 43.1 Q-20.0 43.15 -19.45 43.6 L-18.4 43.95 Q-19.35 48.05 -18.0 51.95 M-9.4 51.95 Q-11.85 48.55 -12.7 44.35 L-11.15 44.55 -6.5 44.95 -6.45 44.95 -2.0 45.05 -1.6 45.05 6.5 44.65 Q7.5 46.4 7.0 49.1 L6.2 50.95 Q1.8 57.45 -5.75 54.55 -7.55 53.85 -8.95 52.4 L-9.35 51.9 -9.4 51.95 M-2.1 49.75 L-2.6 48.35 Q-3.7 45.85 -6.4 46.0 L-6.5 46.05 -7.05 46.55 Q-9.25 49.55 -6.2 52.0 L-5.5 52.3 -3.25 51.95 Q-1.7 51.4 -2.1 49.75" fill="#878eb0" fill-rule="evenodd" stroke="none"/>
    <path d="M44.95 -42.6 L45.2 -42.2 44.9 -42.55 44.95 -42.6 M49.3 -31.55 L49.55 -31.75 49.6 -31.6 49.3 -31.55 M-55.0 -16.75 L-54.7 -16.7 -54.6 -16.7 -54.5 -16.55 -54.75 -16.4 -55.0 -16.75" fill="#8b94ab" fill-rule="evenodd" stroke="none"/>
    <path d="M34.3 -38.85 Q37.05 -38.1 37.55 -34.95 L38.05 -31.55 Q38.55 -28.05 35.7 -27.35 35.35 -27.25 35.15 -27.6 34.15 -28.9 34.05 -30.6 L33.65 -37.8 Q33.6 -38.55 34.3 -38.85 M34.5 -9.55 L35.3 -9.5 35.5 -9.25 35.85 -8.75 Q35.3 0.45 31.5 9.1 30.15 12.15 28.2 14.85 L26.85 16.1 25.45 16.9 24.9 16.9 24.7 16.65 24.65 16.45 24.7 16.2 24.9 15.95 Q26.25 9.1 29.25 2.65 L30.2 -0.4 Q31.2 -5.35 34.15 -9.4 L34.35 -9.45 34.45 -9.5 34.5 -9.55 M-40.35 -35.85 L-39.9 -35.65 -39.7 -35.45 Q-39.0 -32.9 -40.45 -30.45 L-40.6 -30.2 Q-40.75 -29.0 -41.5 -28.05 L-41.8 -27.8 -42.75 -27.8 Q-44.45 -30.05 -42.65 -32.7 L-41.75 -34.2 -41.1 -35.45 -40.4 -35.8 -40.35 -35.85 M-38.9 -3.1 Q-37.35 1.2 -36.35 5.75 -35.05 11.55 -31.7 16.55 -29.95 19.15 -30.85 21.55 -30.9 21.7 -31.15 21.7 -33.65 21.6 -35.0 19.2 -37.2 15.4 -38.7 11.3 L-39.35 9.5 Q-40.4 6.65 -40.45 3.7 -41.35 0.25 -40.7 -3.25 L-40.35 -3.95 -40.1 -4.1 -39.7 -4.2 -39.25 -4.0 -39.1 -3.8 -38.95 -3.55 -38.9 -3.1" fill="#b3b9c1" fill-rule="evenodd" stroke="none"/>
    <path d="M33.0 -30.15 L32.8 -33.3 32.95 -31.55 33.0 -30.7 33.0 -30.15" fill="#707070" fill-rule="evenodd" stroke="none"/>
    <path d="M43.8 -36.3 L44.3 -37.0 45.3 -37.85 46.7 -37.8 48.55 -34.35 48.85 -33.65 49.55 -31.75 49.3 -31.55 49.1 -31.3 Q47.35 -30.45 45.95 -30.95 L45.8 -31.45 45.2 -33.3 45.1 -33.65 45.0 -33.85 44.35 -35.2 44.05 -35.9 43.8 -36.3 M-58.9 -32.75 Q-58.15 -35.6 -55.4 -36.05 -51.65 -34.55 -54.4 -31.05 -55.3 -29.9 -56.35 -29.05 -59.85 -29.35 -58.9 -32.75 M-2.1 49.75 Q-1.7 51.4 -3.25 51.95 L-5.5 52.3 -6.2 52.0 Q-9.25 49.55 -7.05 46.55 L-6.5 46.05 -6.4 46.0 Q-3.7 45.85 -2.6 48.35 L-2.1 49.75" fill="#b3b9ce" fill-rule="evenodd" stroke="none"/>
    <path d="M-8.6 2.8 L-8.55 2.8 -8.6 2.95 -8.6 2.8 M-32.7 -41.15 L-32.45 -41.45 -32.55 -41.2 -32.6 -41.05 -32.7 -41.15 M17.7 -3.1 L17.75 -3.1 17.75 -2.8 17.7 -2.95 17.7 -3.1" fill="#444444" fill-rule="evenodd" stroke="none"/>
    <path d="M-32.6 -8.4 L-32.55 -8.4 -32.5 -8.0 -32.6 -8.4" fill="#5c5c5c" fill-rule="evenodd" stroke="none"/>
    <path d="M-18.95 -15.8 L-18.85 -16.35 -18.6 -16.5 -18.85 -15.8 -18.95 -15.8 M-18.0 -18.2 L-17.8 -17.95 -17.85 -17.95 -18.4 -17.05 -18.0 -18.2" fill="#8d8d8d" fill-rule="evenodd" stroke="none"/>
    <path d="M-12.75 -12.05 L-12.35 -11.25 Q-11.1 -8.9 -13.4 -7.65 L-15.35 -7.7 Q-16.55 -8.5 -16.65 -9.95 -16.7 -11.4 -16.25 -12.8 L-15.55 -13.6 -13.85 -13.3 Q-13.15 -12.9 -12.75 -12.05" fill="#a0accf" fill-rule="evenodd" stroke="none"/>
    <path d="M-13.75 -2.35 L-13.95 -2.1 -14.0 -2.1 -13.75 -2.35 M-7.85 0.45 L-7.9 0.5 -7.85 0.45" fill="#b9bec4" fill-rule="evenodd" stroke="none"/>
    <path d="M-12.5 32.65 Q-11.9 30.05 -14.7 30.15 -15.8 30.6 -15.75 31.95 -15.65 34.3 -13.25 33.45 -12.65 33.3 -12.5 32.65 M-13.45 28.6 L-13.4 28.75 Q-10.7 28.4 -9.75 30.8 -9.45 31.65 -9.45 32.55 -9.55 35.8 -12.8 36.7 -15.95 37.55 -17.2 34.8 L-17.3 34.85 -17.45 34.15 -17.5 33.95 Q-17.85 32.45 -16.9 30.95 -15.95 29.55 -14.55 29.05 -14.0 28.75 -13.45 28.6 M4.7 28.9 Q5.2 29.0 5.35 29.65 5.6 30.65 4.65 31.1 3.45 31.7 2.8 30.8 L2.75 30.75 2.65 30.2 Q2.7 29.7 3.0 29.4 L2.95 29.55 Q2.95 30.8 4.2 30.4 L4.2 30.35 Q4.9 29.3 3.8 28.95 L4.0 28.9 4.7 28.9 M10.85 33.45 L11.2 33.2 11.25 33.15 11.85 32.95 12.7 32.75 12.75 32.75 Q14.0 33.0 14.1 34.4 L14.05 34.95 12.8 36.9 11.6 37.85 9.0 37.95 8.65 37.7 8.7 37.7 Q8.65 36.6 9.0 35.75 L9.15 35.9 11.3 35.95 Q11.85 35.55 11.9 34.9 12.0 33.55 10.85 33.45" fill="#57acd5" fill-rule="evenodd" stroke="none"/>
    <path d="M-12.5 32.65 Q-12.65 33.3 -13.25 33.45 -15.65 34.3 -15.75 31.95 -15.8 30.6 -14.7 30.15 -11.9 30.05 -12.5 32.65 M3.0 29.4 Q3.05 29.15 3.25 29.05 3.45 28.9 3.7 28.9 L3.8 28.95 Q4.9 29.3 4.2 30.35 L4.2 30.4 Q2.95 30.8 2.95 29.55 L3.0 29.4 M9.0 35.75 Q8.75 35.35 8.85 34.85 9.05 33.7 10.25 33.45 L10.85 33.45 Q12.0 33.55 11.9 34.9 11.85 35.55 11.3 35.95 L9.15 35.9 9.0 35.75" fill="#99ffff" fill-rule="evenodd" stroke="none"/>
    <path d="M-13.45 28.6 L-12.0 28.35 Q-9.9 28.3 -8.6 29.8 -7.05 31.5 -6.95 33.55 -6.95 34.75 -7.4 36.15 -8.5 38.2 -10.5 39.15 L-14.0 38.8 Q-15.6 38.3 -16.75 36.8 L-17.3 34.85 -17.2 34.8 Q-15.95 37.55 -12.8 36.7 -9.55 35.8 -9.45 32.55 -9.45 31.65 -9.75 30.8 -10.7 28.4 -13.4 28.75 L-13.45 28.6 M4.7 28.9 L4.75 28.85 Q6.1 28.8 6.5 30.0 6.65 30.75 6.2 31.2 L5.15 32.1 4.05 32.3 Q3.45 32.4 3.0 32.0 2.5 31.55 2.75 31.0 L2.8 30.8 Q3.45 31.7 4.65 31.1 5.6 30.65 5.35 29.65 5.2 29.0 4.7 28.9 M12.75 32.75 L14.0 32.8 Q15.05 33.25 15.8 34.35 16.15 36.0 15.35 37.5 13.9 39.05 11.8 39.35 10.45 39.5 9.4 38.75 L8.65 37.7 9.0 37.95 11.6 37.85 12.8 36.9 14.05 34.95 14.1 34.4 Q14.0 33.0 12.75 32.75" fill="#006699" fill-rule="evenodd" stroke="none"/>
  </g>
</svg>
