<?xml version="1.0" encoding="UTF-8" standalone="no"?>
<svg xmlns:xlink="http://www.w3.org/1999/xlink" height="151.5px" width="106.1px" xmlns="http://www.w3.org/2000/svg">
  <g transform="matrix(1.0, 0.0, 0.0, 1.0, 53.0, 82.8)">
    <path d="M11.2 -67.35 L10.85 -67.9 9.15 -70.3 7.1 -72.4 4.85 -74.2 3.95 -74.9 2.05 -76.1 0.75 -76.9 -1.8 -78.35 -3.2 -79.0 -5.95 -80.0 -7.15 -80.4 -8.05 -80.65 -9.1 -80.85 -12.0 -81.4 -14.9 -81.7 -17.85 -81.9 -20.25 -82.1 -20.3 -82.05 -21.5 -82.0 -25.35 -81.65 -26.35 -81.4 -26.55 -81.3 -28.15 -80.3 -28.3 -80.0 -28.25 -79.95 -28.3 -79.95 -28.25 -79.9 -28.05 -79.95 -28.5 -79.9 Q-28.55 -79.5 -28.2 -79.15 L-28.05 -79.15 -27.8 -79.1 Q-22.6 -78.3 -18.0 -76.15 L-15.75 -75.0 Q-12.35 -73.1 -9.3 -70.35 L-9.15 -70.25 -8.25 -69.4 -7.95 -69.1 -7.25 -68.45 -6.4 -67.55 -6.15 -67.45 -7.15 -65.85 -7.55 -65.45 -7.6 -65.45 -8.4 -64.7 -8.3 -64.65 -8.7 -64.5 -9.45 -64.1 -9.5 -64.05 -9.45 -64.05 -10.35 -63.3 -12.0 -61.6 -12.6 -60.8 -13.45 -59.1 -13.65 -58.75 -13.95 -58.05 -14.4 -57.2 Q-14.55 -57.0 -14.75 -56.95 L-14.85 -56.95 -14.95 -57.0 -15.15 -57.25 -15.7 -57.5 -15.9 -57.65 Q-17.3 -59.05 -18.75 -60.15 -19.05 -60.7 -19.5 -60.85 L-19.55 -60.9 -20.55 -61.75 -20.6 -61.8 -20.95 -62.15 -21.55 -62.8 -21.85 -63.25 -22.4 -63.7 Q-23.5 -65.5 -25.15 -67.0 L-25.15 -66.95 -25.4 -67.0 -25.55 -66.85 Q-25.95 -66.25 -26.0 -65.45 -26.2 -64.0 -25.85 -62.55 L-25.8 -62.15 -25.75 -61.95 -25.6 -61.45 -25.55 -60.75 Q-25.5 -60.0 -25.1 -59.35 L-24.8 -58.2 -24.45 -57.75 -23.85 -56.05 -23.65 -55.75 -23.25 -55.0 -23.2 -54.9 -23.05 -54.5 -21.45 -52.15 -20.45 -50.9 -19.7 -49.9 -19.45 -49.7 -19.45 -49.65 -19.1 -49.3 -18.3 -48.3 -16.9 -46.5 -17.1 -46.8 -16.6 -46.0 Q-15.45 -43.75 -13.4 -42.15 L-12.7 -41.9 -12.5 -41.8 -11.0 -41.6 -10.15 -41.6 -8.7 -41.75 -8.45 -41.8 -6.55 -42.6 -6.15 -43.0 Q-5.25 -44.35 -5.2 -45.95 -5.1 -47.35 -5.35 -48.7 L-5.95 -50.4 -6.1 -50.8 -6.55 -51.55 Q-7.45 -52.75 -8.75 -53.55 L-8.85 -53.6 Q-10.1 -54.3 -11.5 -54.25 L-11.55 -54.25 -12.85 -54.1 -13.4 -53.9 -13.55 -53.85 -13.65 -53.8 -12.5 -54.95 -11.05 -55.25 -10.9 -55.2 -10.85 -55.2 -10.7 -55.25 -10.45 -55.3 -9.35 -55.4 -9.1 -56.05 -9.35 -55.4 -8.85 -55.4 -5.25 -60.35 -5.7 -59.6 -3.2 -61.4 -2.85 -61.55 -1.45 -62.05 0.4 -61.95 1.7 -60.35 1.7 -60.3 2.55 -59.3 2.75 -59.3 2.8 -59.3 3.15 -59.0 Q3.9 -58.4 4.8 -58.05 6.15 -57.45 7.6 -57.2 L9.15 -57.2 10.45 -57.5 11.1 -57.85 Q12.4 -58.6 12.9 -60.0 L13.05 -60.65 13.1 -63.2 12.9 -63.9 12.85 -64.05 12.35 -65.3 11.2 -67.35 M10.65 -63.5 L10.5 -62.25 Q10.1 -61.45 9.35 -61.0 L9.05 -60.8 Q7.7 -60.7 6.55 -61.35 L5.4 -62.25 Q4.8 -62.95 4.8 -63.7 L5.9 -64.25 6.2 -64.2 9.9 -64.25 10.65 -63.65 10.65 -63.5 M-19.95 33.9 L-19.95 33.85 -20.05 33.45 -20.3 32.45 -20.8 28.7 -20.8 28.25 Q-21.15 26.0 -20.6 23.8 -20.15 22.15 -19.05 20.85 L-20.65 19.6 -22.65 17.05 -23.1 16.4 -24.35 14.5 -25.5 12.65 -26.0 13.7 -26.2 14.2 Q-26.7 15.2 -27.6 16.0 -29.35 17.45 -31.25 18.25 L-33.85 18.95 -39.95 18.75 -42.1 18.15 -43.4 17.5 -43.95 17.2 -44.0 17.2 Q-46.35 15.75 -47.85 13.5 L-48.8 11.8 -49.1 10.7 -49.2 10.35 -49.25 9.65 -49.95 9.15 Q-51.15 8.3 -51.65 6.95 L-52.0 6.1 Q-52.85 3.95 -52.95 1.7 -53.15 -0.6 -52.75 -2.8 -52.45 -4.75 -51.65 -6.5 -51.4 -7.4 -50.7 -8.05 L-50.5 -8.15 -50.5 -8.25 Q-50.45 -9.9 -49.35 -11.1 L-49.2 -11.1 -49.8 -12.2 -50.35 -13.7 Q-50.8 -15.1 -50.7 -16.55 -50.55 -19.0 -49.9 -21.25 L-49.6 -22.3 -49.45 -22.6 -48.15 -24.9 -46.0 -27.55 -45.4 -28.0 Q-43.8 -29.35 -42.0 -30.4 L-40.9 -30.9 -40.25 -31.1 -36.95 -31.9 -36.65 -31.9 -35.75 -31.85 -35.6 -31.8 Q-34.3 -31.5 -33.1 -30.85 -31.4 -29.85 -30.05 -28.5 L-29.45 -27.8 -29.3 -28.2 -29.2 -28.45 -29.1 -28.8 -29.0 -28.95 -28.2 -30.55 -27.85 -31.05 -27.75 -31.2 -27.0 -32.5 -26.95 -32.55 -26.8 -32.8 -25.8 -34.05 -23.25 -36.55 -20.15 -38.75 Q-17.3 -40.45 -14.2 -41.55 -15.9 -42.35 -16.65 -44.05 -17.55 -46.2 -19.25 -47.7 L-19.5 -48.0 -22.15 -51.5 -24.35 -55.3 Q-25.4 -57.3 -25.95 -59.45 -26.5 -61.6 -26.65 -63.8 L-26.8 -64.85 -26.8 -64.95 -26.8 -65.65 -26.6 -67.05 -26.55 -67.15 -26.25 -67.65 -25.45 -68.15 -25.05 -68.0 -24.7 -67.9 -24.5 -67.75 -23.15 -65.95 -22.5 -65.15 -19.25 -61.75 -18.5 -60.9 Q-18.0 -60.2 -17.3 -59.85 L-17.15 -59.75 -16.85 -59.3 -16.75 -59.15 Q-16.25 -58.4 -15.45 -58.0 L-15.1 -58.0 -15.05 -58.0 -14.8 -58.3 -14.75 -58.35 -14.5 -58.75 -14.1 -59.6 -13.8 -60.15 -13.05 -61.25 -12.9 -61.45 -10.7 -63.9 -10.35 -64.2 -8.6 -65.6 -8.05 -66.05 -7.85 -66.35 Q-7.45 -66.9 -8.0 -67.05 L-7.95 -67.1 -8.8 -67.9 -9.45 -68.65 -10.8 -70.0 -13.75 -72.4 -16.5 -74.1 Q-18.45 -75.2 -20.45 -76.1 L-21.6 -76.6 -25.8 -77.9 -26.4 -78.1 -27.5 -78.4 -28.65 -78.7 -29.05 -80.0 -27.4 -81.45 Q-24.9 -82.7 -21.8 -82.65 L-21.65 -82.8 Q-4.95 -83.25 7.45 -73.4 10.85 -70.0 13.1 -66.1 L13.9 -64.2 14.5 -61.9 14.6 -61.8 14.95 -61.4 15.75 -60.15 15.95 -59.7 16.15 -58.85 16.15 -58.8 16.25 -58.4 16.6 -57.95 17.55 -57.15 18.05 -56.65 18.55 -56.2 19.3 -55.25 19.65 -54.8 21.7 -51.5 21.75 -51.25 21.9 -50.9 22.6 -48.55 22.7 -47.4 22.6 -46.2 22.55 -45.75 Q21.65 -42.9 18.85 -40.85 17.9 -40.25 16.55 -40.1 L19.05 -38.75 22.15 -36.55 Q24.1 -34.95 25.55 -32.9 L25.75 -32.6 26.75 -31.35 27.55 -30.05 Q28.45 -28.5 28.75 -26.8 L28.7 -26.55 28.85 -26.6 28.95 -26.65 Q30.55 -26.9 31.8 -26.25 L32.55 -26.05 34.1 -28.0 35.2 -29.2 Q36.35 -30.4 37.95 -30.85 L38.55 -31.05 39.0 -31.1 Q41.7 -30.4 43.55 -28.35 44.4 -27.35 44.85 -26.15 45.05 -25.7 44.8 -25.35 L44.75 -24.7 Q44.25 -23.6 43.4 -22.75 L41.05 -20.65 43.1 -18.45 45.3 -15.25 49.9 -16.3 50.1 -16.3 50.35 -16.3 50.6 -16.3 Q51.65 -15.4 52.2 -14.05 52.95 -12.15 53.1 -10.15 53.2 -8.9 52.5 -7.95 L52.3 -7.9 Q52.4 -7.65 52.1 -7.2 51.75 -6.8 51.2 -6.65 L49.05 -6.05 49.4 -4.5 Q49.6 -3.45 49.15 -2.55 L48.9 -2.5 48.65 -2.3 48.35 -1.95 Q47.5 -1.15 46.35 -0.7 L41.15 0.75 35.65 1.0 33.75 0.85 31.6 0.75 Q31.05 0.6 30.8 0.25 L30.1 1.35 30.2 1.7 30.15 2.05 30.1 3.55 29.95 4.95 29.75 5.9 Q29.0 8.55 27.7 11.05 26.05 14.15 24.0 17.05 L21.95 19.6 20.25 20.95 Q21.35 21.65 21.8 23.05 L21.9 23.45 22.3 25.75 22.35 27.55 22.3 28.7 21.85 32.45 20.8 35.8 20.65 36.3 20.75 36.3 20.5 36.7 20.3 37.2 20.3 37.15 19.65 38.65 20.25 39.2 Q20.8 39.85 21.5 40.0 22.85 41.05 23.7 42.6 25.0 44.8 25.25 47.35 25.2 55.05 19.5 60.35 16.7 62.2 13.15 62.5 9.55 62.75 6.4 61.5 5.85 64.0 4.55 66.65 3.2 68.8 0.45 68.7 L-1.6 68.45 Q-2.65 68.15 -3.0 67.0 L-4.85 62.15 Q-8.1 63.65 -11.5 63.05 -14.9 62.35 -17.85 60.75 -21.25 57.85 -22.8 54.0 -24.4 50.2 -23.5 46.1 -22.25 41.95 -19.5 39.15 L-19.55 39.1 -19.2 38.9 -18.95 38.5 -18.75 37.75 -18.6 37.85 -18.7 37.5 -18.85 37.1 -18.95 36.9 -18.95 36.75 -19.15 36.3 -19.15 36.25 -19.15 36.15 -19.3 35.8 -19.75 34.5 -19.95 33.9 M8.6 -63.95 L7.8 -63.85 7.75 -63.85 6.85 -63.85 6.4 -63.85 5.75 -63.75 Q5.35 -63.65 5.3 -63.3 5.2 -62.8 5.5 -62.45 L5.8 -62.1 Q5.95 -61.95 6.1 -61.95 7.45 -60.95 9.3 -61.45 10.4 -62.1 10.25 -63.15 9.55 -64.15 8.6 -63.95 M6.8 -56.45 Q5.75 -56.6 4.75 -57.05 2.65 -57.9 1.25 -59.7 L0.6 -60.2 Q0.2 -61.05 -0.95 -60.95 L-3.5 -60.45 Q-4.85 -59.6 -4.95 -58.75 L-4.95 -58.7 -5.0 -58.7 -5.1 -58.65 -5.15 -58.65 -5.55 -58.25 -6.05 -57.65 -7.65 -55.4 -7.85 -54.95 -7.75 -54.3 -7.05 -53.55 -6.75 -53.2 -5.55 -51.7 -5.5 -51.6 Q-4.6 -50.35 -4.4 -48.8 -4.25 -47.45 -4.45 -46.1 L-4.85 -43.85 -5.05 -43.15 -5.7 -42.15 -5.85 -42.0 -6.45 -41.6 -7.05 -41.35 -9.15 -40.75 -10.7 -40.65 -10.75 -40.6 -11.1 -40.9 -11.1 -40.8 -11.15 -40.6 -11.35 -39.35 -11.4 -39.05 -11.55 -38.7 -12.1 -37.6 -13.75 -35.2 -13.75 -35.1 -13.8 -35.1 -14.2 -34.7 -14.45 -34.45 -14.55 -34.4 -14.6 -33.5 -14.7 -33.0 -14.8 -32.15 Q-15.1 -30.05 -14.25 -28.1 L-14.35 -28.05 Q-13.4 -26.0 -11.9 -24.65 L-11.9 -24.6 -11.8 -24.7 -11.8 -24.65 -10.85 -23.5 -8.65 -22.1 -8.35 -21.9 -7.85 -21.65 -6.9 -21.25 -6.75 -21.2 -6.5 -21.15 -6.4 -21.15 -6.45 -21.2 -6.3 -21.1 -1.6 -20.55 -0.25 -20.45 0.15 -20.4 3.65 -20.4 4.25 -20.75 4.55 -20.8 5.05 -20.95 5.35 -21.0 5.3 -21.3 5.3 -21.35 5.3 -21.3 5.7 -21.2 5.75 -21.2 6.0 -21.2 5.9 -21.65 6.05 -21.15 7.5 -21.6 7.5 -21.65 8.3 -22.05 8.45 -22.15 8.55 -22.0 Q9.3 -22.2 9.45 -22.8 L9.55 -22.85 Q9.95 -22.95 10.25 -23.3 L10.65 -23.85 10.7 -23.95 10.65 -23.9 12.45 -25.5 12.45 -25.55 12.5 -25.65 12.5 -25.7 12.65 -25.7 13.05 -26.2 13.3 -26.8 13.35 -26.75 13.6 -27.3 13.75 -27.6 14.05 -28.1 14.0 -28.5 14.05 -28.6 14.25 -29.2 14.3 -29.45 14.0 -29.55 14.25 -30.05 14.5 -31.4 14.35 -32.2 14.4 -32.4 13.8 -33.35 13.65 -33.5 12.95 -31.45 12.85 -31.3 12.65 -30.7 12.5 -30.15 12.15 -29.45 11.85 -28.8 11.8 -28.65 11.05 -27.9 10.25 -27.0 10.25 -26.9 9.8 -27.05 9.6 -26.85 9.9 -26.05 9.6 -26.9 9.45 -26.85 8.5 -26.65 8.1 -26.5 6.95 -26.15 5.15 -26.4 5.65 -25.85 4.75 -26.55 4.55 -26.65 4.25 -26.7 3.3 -26.7 3.25 -26.7 2.45 -27.2 2.3 -27.45 2.25 -27.45 2.1 -27.6 2.05 -27.8 1.7 -28.05 1.65 -28.05 1.4 -28.35 0.8 -28.85 0.6 -28.9 0.45 -29.0 0.1 -29.15 0.15 -29.15 0.15 -29.2 -0.2 -29.5 -0.3 -29.5 -0.2 -29.6 -0.65 -30.05 -0.7 -30.0 -0.8 -30.15 -2.1 -31.7 -2.65 -32.3 -3.0 -32.7 -3.8 -33.55 -4.05 -34.1 -3.9 -33.8 -3.95 -34.1 -4.25 -35.55 Q-4.4 -36.2 -4.7 -36.65 L-4.7 -37.2 -4.75 -37.7 -4.55 -38.5 -3.8 -39.85 Q-3.15 -40.85 -2.0 -41.2 L-1.65 -41.05 -1.0 -41.15 -0.65 -40.75 0.35 -42.3 0.55 -42.5 1.35 -43.3 1.9 -43.6 2.2 -43.9 2.25 -43.9 2.6 -44.45 3.45 -45.3 4.55 -45.6 5.05 -45.6 7.3 -45.7 7.3 -45.65 9.15 -45.8 9.2 -47.55 9.25 -48.35 9.8 -49.45 Q11.1 -51.75 13.4 -52.95 L14.45 -53.4 Q14.55 -53.95 14.3 -54.35 L14.25 -54.35 14.35 -54.95 14.35 -55.1 14.45 -55.1 12.95 -58.25 Q11.75 -56.3 9.5 -56.1 L9.65 -56.15 7.85 -56.4 7.8 -56.4 6.8 -56.45 M16.45 -55.85 L16.3 -56.85 Q16.15 -58.3 15.4 -59.55 L14.95 -60.25 14.2 -61.3 Q13.8 -60.65 14.0 -60.15 L13.85 -59.9 Q13.75 -59.25 14.1 -58.7 L14.2 -58.35 14.4 -58.0 14.9 -56.45 14.95 -56.2 15.25 -55.4 Q15.2 -55.15 15.3 -54.95 15.5 -54.45 16.05 -54.65 L16.45 -55.75 16.5 -56.2 16.45 -55.85 M16.3 -53.5 L14.65 -52.4 Q12.6 -51.6 11.1 -49.8 10.2 -47.95 10.65 -45.8 L13.25 -42.5 13.4 -42.35 Q14.6 -40.9 16.9 -41.2 18.6 -41.65 19.4 -42.6 L17.0 -43.4 Q15.7 -44.0 14.5 -44.7 12.05 -47.9 14.8 -49.7 16.5 -50.9 17.65 -52.3 L18.85 -54.15 17.55 -55.55 16.3 -53.5 M20.65 -51.3 Q20.7 -52.4 19.65 -53.1 L17.85 -51.0 Q16.95 -50.0 15.65 -49.45 14.45 -49.0 14.6 -47.7 14.35 -47.2 14.55 -46.45 L14.75 -46.1 14.6 -45.65 Q17.45 -43.35 20.9 -44.25 22.6 -46.95 21.45 -50.0 L21.35 -49.9 21.35 -49.95 Q21.55 -51.1 20.65 -51.3 M17.25 -21.55 L17.45 -21.65 17.65 -21.75 Q19.35 -22.65 21.3 -22.75 L21.75 -22.7 Q22.55 -23.85 23.75 -24.7 25.35 -25.85 27.25 -26.3 L28.1 -26.45 27.7 -26.85 27.65 -27.1 26.4 -29.8 26.15 -30.4 26.1 -30.45 25.6 -31.15 23.4 -33.5 20.5 -35.95 19.85 -36.35 15.9 -38.6 15.85 -38.65 14.65 -39.2 Q14.55 -38.7 14.8 -37.9 L14.8 -37.8 14.75 -37.65 14.95 -37.5 15.6 -37.0 16.15 -36.45 14.8 -34.6 14.45 -34.15 14.65 -33.55 14.75 -33.15 15.0 -30.25 14.85 -28.85 14.35 -27.35 Q13.85 -25.9 12.85 -24.7 L12.45 -24.25 10.7 -22.75 Q9.65 -21.95 8.45 -21.5 L6.95 -21.0 4.1 -20.45 4.05 -20.45 0.9 -17.85 0.15 -17.8 -1.45 -17.9 -3.3 -18.15 -4.25 -18.3 -7.9 -19.4 -9.6 -20.15 Q-12.05 -21.3 -13.85 -23.1 -15.9 -25.2 -17.1 -27.7 -17.65 -28.85 -17.8 -30.0 L-17.85 -30.6 -17.85 -32.0 -17.6 -33.25 -17.55 -33.35 -17.55 -33.5 -17.5 -33.6 -17.2 -34.5 -16.25 -36.0 -15.85 -36.45 -15.35 -37.0 Q-14.35 -37.9 -13.15 -38.4 L-12.7 -39.45 -12.25 -40.5 -13.7 -40.1 -13.7 -40.05 -14.8 -39.6 Q-18.45 -38.2 -21.65 -35.95 L-24.5 -33.5 -26.5 -31.45 -26.9 -30.8 -28.15 -28.9 -28.6 -28.05 -29.05 -27.35 -28.6 -26.8 -27.9 -27.0 -27.05 -27.1 -25.5 -26.85 Q-23.9 -26.4 -22.85 -25.1 L-22.8 -25.0 -22.65 -24.8 -21.8 -23.35 -21.65 -22.4 -21.15 -22.6 -20.75 -22.65 -20.1 -22.75 Q-18.15 -22.65 -16.4 -21.75 -15.1 -21.1 -13.95 -20.1 L-11.2 -17.4 -11.05 -17.25 -10.8 -17.0 -10.1 -16.25 -8.45 -14.7 -6.2 -13.2 -4.9 -12.65 -4.75 -12.6 -4.15 -12.4 -4.05 -12.4 -3.55 -12.25 -1.15 -11.95 0.2 -11.9 1.05 -11.9 2.35 -11.95 4.75 -12.25 5.3 -12.4 Q6.35 -12.75 7.4 -13.2 8.65 -13.8 9.7 -14.7 L12.0 -17.0 12.4 -17.4 15.2 -20.1 17.25 -21.55 M31.5 -25.05 L30.15 -25.55 29.35 -25.5 29.25 -25.5 28.8 -25.45 28.3 -25.3 27.5 -25.2 Q25.35 -24.75 23.6 -23.25 L23.05 -22.8 23.0 -22.75 22.7 -22.5 22.95 -22.4 24.4 -21.35 25.8 -19.85 27.6 -17.65 28.15 -17.0 28.25 -16.85 30.25 -13.5 30.3 -13.3 30.55 -12.75 31.5 -10.2 31.75 -9.4 31.95 -8.55 32.15 -6.6 32.2 -5.7 32.1 -4.75 32.05 -4.3 32.05 -4.15 32.0 -3.1 31.9 -2.65 31.85 -2.4 31.8 -2.05 31.8 -1.9 31.75 -1.85 31.7 -1.8 31.1 -0.3 31.15 -0.25 31.25 -0.2 Q36.4 0.35 41.55 -0.35 L43.35 -0.8 Q45.5 -1.5 47.45 -2.6 L47.85 -2.8 48.05 -2.85 48.1 -2.85 48.3 -2.8 48.6 -3.05 48.05 -5.15 47.9 -5.8 46.65 -5.6 44.35 -5.3 41.85 -5.05 39.75 -4.85 36.0 -5.05 35.9 -5.1 35.8 -5.1 Q35.15 -5.35 34.85 -5.9 L34.8 -5.95 34.8 -6.15 34.7 -6.45 Q34.25 -7.5 34.15 -8.55 34.1 -9.6 34.4 -10.6 L34.5 -10.8 34.7 -11.15 34.7 -11.3 37.45 -12.85 38.1 -13.1 38.8 -13.35 38.95 -13.4 40.05 -13.75 40.65 -13.95 43.2 -14.7 43.55 -14.8 44.05 -14.95 43.6 -15.65 42.4 -17.3 40.1 -19.9 39.25 -19.2 38.8 -18.9 38.65 -18.8 37.75 -18.15 35.65 -16.55 34.4 -15.9 33.8 -15.7 33.8 -15.55 33.75 -15.5 33.7 -15.5 33.6 -15.45 32.75 -15.35 Q32.65 -15.4 32.65 -15.4 L32.45 -15.4 32.35 -15.45 Q31.7 -15.65 31.2 -16.3 L30.65 -17.0 30.45 -17.2 30.05 -17.6 30.05 -17.7 30.0 -17.8 Q28.65 -18.85 29.05 -20.45 L29.05 -20.55 29.2 -20.75 29.2 -20.95 29.25 -20.95 29.3 -21.05 29.35 -21.2 29.4 -21.55 31.7 -24.9 31.7 -24.95 31.5 -25.05 M32.9 -24.8 L32.75 -24.75 30.85 -22.3 30.25 -21.5 30.25 -21.4 30.25 -21.35 30.15 -21.25 30.05 -21.15 30.0 -20.95 29.8 -20.65 29.8 -20.35 29.6 -20.05 29.6 -19.95 29.65 -19.65 Q29.9 -18.75 30.8 -18.1 L30.9 -18.0 31.8 -17.1 31.9 -17.0 32.15 -16.75 Q32.5 -16.4 33.0 -16.25 34.9 -16.9 36.4 -18.25 37.5 -19.25 38.7 -20.1 39.2 -20.35 39.6 -20.85 L40.2 -21.5 40.6 -21.75 41.75 -22.85 42.85 -24.0 43.4 -24.8 43.95 -25.5 43.9 -25.6 Q43.3 -27.5 41.9 -28.65 L40.5 -29.55 38.9 -30.25 38.2 -30.15 38.1 -30.0 38.0 -29.95 37.65 -29.7 36.5 -29.0 36.15 -28.75 35.95 -28.45 35.65 -28.3 34.1 -26.45 33.9 -26.15 33.5 -25.65 33.55 -25.65 33.2 -25.15 33.05 -24.9 33.0 -24.9 32.9 -24.8 M1.6 -29.35 Q2.6 -28.35 3.95 -27.75 L4.0 -27.75 Q4.15 -27.6 4.35 -27.55 L6.75 -27.3 7.25 -27.2 7.65 -27.15 9.55 -27.55 10.3 -28.25 10.55 -28.5 10.55 -28.55 11.75 -30.65 12.6 -32.9 13.05 -34.0 13.5 -35.45 Q13.8 -36.85 13.55 -38.25 L13.45 -38.65 12.85 -40.85 12.2 -42.3 11.3 -43.55 10.6 -44.4 10.55 -44.45 10.3 -44.45 10.15 -44.25 9.7 -44.6 9.5 -44.6 8.85 -44.7 8.5 -44.75 8.45 -44.75 6.4 -44.8 4.7 -44.55 4.5 -44.55 4.0 -44.3 3.8 -44.0 3.4 -43.85 2.6 -43.15 0.9 -41.25 0.5 -40.75 -0.1 -39.85 -0.3 -39.9 -0.4 -39.95 -2.25 -40.2 -2.4 -40.15 -2.6 -40.05 -2.95 -39.75 -3.1 -39.4 -3.55 -38.6 -3.55 -38.15 -3.6 -38.05 Q-3.75 -37.2 -3.35 -36.3 L-3.3 -36.4 -3.35 -36.2 Q-3.4 -35.7 -3.0 -35.55 L-2.75 -34.8 -2.7 -34.85 -2.6 -34.65 -2.05 -34.0 -1.95 -33.8 -1.95 -33.85 -1.25 -32.9 -1.15 -32.65 -1.05 -32.4 -0.5 -31.55 0.05 -30.95 Q0.3 -30.55 0.7 -30.3 L1.25 -29.7 1.45 -29.45 1.6 -29.35 M1.15 -27.35 L1.1 -27.3 1.1 -27.35 1.15 -27.35 M1.75 -25.8 L1.75 -25.7 1.75 -25.65 1.55 -25.1 1.75 -25.8 M-6.35 3.8 Q-5.45 3.15 -4.4 2.9 L-3.3 2.7 -0.05 2.2 2.55 2.3 4.6 2.75 5.75 3.1 Q7.0 3.4 8.1 4.0 L8.8 4.15 10.55 4.6 10.8 4.7 10.9 4.7 10.95 4.7 15.85 5.4 15.95 5.4 22.5 4.55 Q25.85 3.9 28.55 1.85 L29.2 1.25 29.2 1.2 30.55 -1.05 30.75 -1.65 30.9 -2.25 31.0 -3.25 31.15 -4.15 31.2 -4.7 31.2 -5.4 31.15 -6.45 31.15 -6.5 31.0 -7.95 30.9 -8.55 30.4 -10.25 30.3 -10.35 30.25 -10.6 30.25 -10.65 29.85 -11.65 28.75 -13.95 26.85 -16.8 26.75 -17.0 25.05 -19.1 22.8 -21.25 22.4 -21.4 22.3 -21.4 21.9 -21.55 21.6 -21.8 20.2 -21.7 19.35 -21.45 17.55 -20.55 Q15.9 -19.6 14.55 -18.2 L13.35 -17.0 11.85 -15.5 10.8 -14.4 9.05 -13.0 8.55 -12.7 8.35 -12.6 Q8.3 -12.2 7.75 -12.1 L7.55 -12.05 6.1 -11.6 5.9 -11.55 3.35 -11.05 2.65 -10.95 0.6 -10.95 -1.45 -10.95 -2.15 -11.05 -4.65 -11.55 -4.9 -11.6 -6.3 -12.05 -6.55 -12.1 Q-7.1 -12.2 -7.15 -12.6 L-9.55 -14.4 -10.65 -15.5 -12.15 -17.0 -13.3 -18.2 -16.35 -20.55 -18.2 -21.45 -19.0 -21.7 -20.4 -21.8 Q-20.7 -21.45 -21.15 -21.4 L-21.55 -21.25 -23.85 -19.1 -25.5 -17.0 -25.6 -16.8 -27.55 -13.95 -28.6 -11.65 -29.05 -10.65 -29.05 -10.6 -29.15 -10.35 -29.2 -10.25 -29.75 -7.95 -29.9 -6.5 -29.95 -6.45 -30.0 -5.4 -30.0 -4.7 -29.8 -3.25 -29.7 -2.25 -29.5 -1.65 -29.4 -1.2 -29.35 -1.05 -28.0 1.2 -28.0 1.25 -27.35 1.85 Q-24.65 3.9 -21.25 4.55 L-14.75 5.4 -14.6 5.4 -10.85 4.9 -9.7 4.7 -9.65 4.7 -9.6 4.7 -9.3 4.6 -7.55 4.15 -7.1 4.05 -6.6 4.0 -6.35 3.8 M48.4 -14.75 L45.9 -14.25 45.85 -14.25 45.9 -14.2 44.65 -13.95 44.6 -14.0 43.8 -13.75 Q41.1 -13.15 38.55 -12.15 L35.4 -10.6 35.15 -10.25 35.1 -10.15 35.1 -9.95 35.15 -8.75 35.2 -8.55 35.45 -7.6 35.95 -6.2 35.95 -5.95 Q36.25 -5.75 36.7 -5.7 L44.35 -6.3 47.6 -6.9 47.5 -7.15 48.7 -7.25 48.7 -7.2 50.0 -7.55 51.75 -8.2 Q51.65 -8.4 51.7 -8.7 51.95 -10.0 51.7 -11.25 L51.05 -13.7 50.4 -15.3 49.05 -14.85 48.6 -14.8 48.4 -14.75 M-10.8 -45.1 Q-12.75 -45.25 -13.95 -46.75 -14.9 -48.4 -14.5 -49.4 -14.1 -50.4 -13.4 -50.55 L-12.65 -50.65 -11.4 -49.8 Q-12.55 -50.1 -13.25 -49.15 L-13.4 -48.85 -13.5 -48.65 -13.2 -47.4 -13.0 -47.05 -12.05 -45.8 -12.0 -45.75 -11.95 -45.7 Q-11.25 -45.55 -10.8 -45.1 M-44.95 -27.35 L-46.9 -25.5 -47.0 -25.4 -47.15 -25.2 Q-48.5 -23.0 -49.2 -20.55 L-49.35 -20.15 Q-49.65 -18.25 -49.45 -16.3 L-49.45 -15.95 Q-49.45 -14.7 -49.1 -13.5 L-49.0 -13.25 -48.7 -12.6 -48.1 -11.55 -48.65 -10.35 -48.75 -10.2 -48.75 -9.95 -49.7 -8.15 -49.55 -8.0 Q-49.95 -7.6 -50.0 -7.05 L-50.05 -7.2 -50.3 -6.75 -50.6 -6.1 -50.75 -5.7 Q-51.5 -3.8 -51.7 -1.75 L-51.8 0.8 -51.55 2.8 -51.0 4.9 -50.3 6.55 -50.0 7.15 -49.65 7.6 Q-49.25 8.2 -48.5 8.6 L-48.4 8.65 -48.35 8.95 -47.9 8.95 -47.8 9.05 -47.25 9.35 -45.05 10.1 -44.35 10.35 -43.75 10.5 -43.45 10.55 -43.2 10.6 -42.85 10.7 -40.25 11.35 -37.4 11.4 -35.75 11.0 Q-34.9 10.8 -34.5 10.15 L-34.2 9.5 -34.1 9.2 Q-33.6 7.0 -33.65 4.7 L-33.65 4.6 -33.65 4.35 -33.8 3.1 Q-33.15 3.9 -33.1 5.15 -33.0 7.0 -33.7 8.8 -34.15 10.0 -34.95 11.0 -35.8 12.15 -37.2 12.4 L-38.6 12.65 -38.65 12.6 -40.55 12.55 -41.2 12.5 -42.75 12.1 -44.5 11.6 Q-45.1 11.35 -45.7 11.25 L-46.95 10.75 -47.1 10.75 -48.05 10.1 -48.05 10.15 -47.95 10.45 -48.1 10.35 -48.05 10.5 -47.7 11.3 -47.45 11.85 -46.2 13.55 -44.2 15.5 -43.95 15.65 -43.85 15.75 -43.05 16.25 Q-42.95 16.3 -42.8 16.4 -41.3 17.2 -39.55 17.6 -36.35 18.3 -33.25 17.5 L-32.55 17.3 Q-30.3 16.5 -28.6 14.9 -28.0 14.35 -27.7 13.7 L-27.65 13.5 Q-27.5 12.95 -27.2 12.75 L-27.0 11.95 -27.0 11.9 -26.8 11.0 -26.7 10.45 Q-27.8 8.25 -28.4 5.9 L-28.6 4.75 -28.65 4.55 -28.75 3.95 -28.85 2.4 -28.9 1.75 -28.9 1.3 -29.6 0.2 -29.8 -0.2 -29.85 -0.25 -29.9 -0.3 -30.5 -1.8 -30.55 -1.85 -30.6 -1.9 -30.6 -2.05 -30.65 -2.65 -30.75 -3.1 -30.85 -4.3 -30.95 -6.6 -30.55 -9.4 -30.3 -10.2 -30.2 -10.6 -29.15 -13.3 -27.05 -16.85 -26.95 -17.0 -26.4 -17.65 -23.2 -21.35 -23.05 -21.45 -23.0 -21.5 -22.8 -21.7 -23.25 -22.65 Q-23.8 -25.25 -26.45 -25.9 L-27.3 -26.1 -27.5 -26.15 -28.3 -26.35 -28.1 -25.9 -28.1 -25.75 Q-26.9 -23.7 -27.7 -21.25 L-28.7 -19.0 -29.95 -17.0 -31.8 -14.8 -31.95 -14.75 -32.0 -14.75 -32.0 -14.65 -32.1 -14.5 -32.15 -14.45 -32.35 -14.3 -32.35 -14.2 -32.35 -14.05 -32.45 -13.9 -32.5 -13.85 -32.65 -13.8 -33.05 -13.3 -33.55 -12.25 -33.6 -12.2 -35.1 -9.3 -35.3 -9.0 -35.5 -8.65 -35.65 -8.35 -36.4 -7.15 -36.65 -7.15 -36.75 -7.25 -36.75 -7.35 -36.7 -7.4 -36.25 -7.8 -36.0 -8.3 -35.7 -9.0 -34.0 -12.45 -32.35 -15.05 -32.2 -15.3 -31.05 -17.0 -30.0 -18.35 -29.6 -19.15 Q-28.7 -20.1 -28.5 -21.4 L-28.35 -23.2 Q-28.45 -24.85 -29.35 -26.1 L-29.4 -26.2 -29.65 -26.55 Q-30.05 -27.25 -30.65 -27.45 L-31.45 -28.2 -33.55 -29.75 -34.45 -30.25 -35.45 -30.7 -35.6 -30.75 -36.05 -30.8 -36.3 -30.85 -36.65 -30.85 -36.7 -30.85 -37.5 -30.8 -37.85 -30.75 -38.75 -30.45 -40.9 -29.8 -41.2 -29.65 -43.5 -28.45 -44.95 -27.35 M-41.3 -1.5 L-41.05 -1.5 -40.3 -1.4 -39.15 -1.15 -39.45 -1.2 -41.05 -1.45 -41.3 -1.5 M-13.9 -28.45 L-13.9 -28.4 -13.9 -28.5 -13.9 -28.45 M-15.65 -32.85 L-15.7 -32.8 -15.75 -32.5 -15.65 -32.45 -15.65 -32.85 M-6.25 -25.45 L-6.35 -25.25 -6.4 -25.05 -6.3 -25.45 -6.25 -25.45 M-5.65 16.2 L-3.1 15.65 -3.9 14.55 -5.55 10.95 -5.85 10.2 -6.0 9.85 -5.95 9.85 -6.85 6.15 -6.9 5.1 -7.5 5.2 -8.9 5.6 -9.05 5.65 -10.05 5.9 -10.4 5.95 -12.0 6.2 -12.1 6.2 -12.55 6.25 -12.85 6.25 -13.6 6.25 -17.3 6.1 -17.4 6.05 -19.55 5.75 -23.85 4.75 -24.8 4.35 -25.0 4.25 -26.45 3.45 -26.5 3.45 -27.55 2.7 -27.55 3.0 -27.55 3.2 -27.55 3.9 -27.45 4.6 -27.4 5.4 -27.1 6.1 -27.1 6.15 -25.6 9.9 -25.65 9.9 -25.3 10.55 -25.0 11.15 -24.9 11.4 -24.8 11.4 -24.7 11.75 -24.65 11.85 -24.75 11.75 -24.3 12.55 -24.1 12.85 -23.6 13.65 -22.0 15.95 -20.5 17.85 -20.2 18.2 -19.85 18.55 -18.75 19.55 Q-17.05 20.4 -14.95 20.3 L-14.6 20.2 -14.4 20.2 -14.3 20.15 -11.9 18.65 Q-10.5 17.8 -8.95 17.25 L-5.65 16.2 M3.45 3.4 L2.95 3.3 Q0.45 3.0 -1.95 3.4 -3.95 3.65 -5.75 4.35 L-5.85 4.4 -6.2 4.65 -6.3 4.75 -6.2 5.0 -6.35 5.0 -6.3 5.3 -5.25 8.8 -4.95 9.65 -4.95 9.7 -4.4 10.9 -4.3 11.05 -4.0 11.7 -3.9 12.0 -3.1 13.45 -2.25 14.8 -1.95 15.45 -1.85 15.4 -0.3 15.25 0.65 15.15 1.6 15.25 3.0 15.4 3.1 15.2 3.8 14.25 4.85 12.2 5.2 11.8 5.9 10.15 6.15 9.25 6.6 8.3 7.2 6.65 7.2 6.6 7.65 5.0 7.5 5.0 7.6 4.8 6.15 4.35 5.2 4.0 3.6 3.45 3.45 3.4 M-12.6 30.4 L-12.85 30.1 -13.4 29.25 -13.8 28.85 -13.85 28.75 -13.9 28.75 -13.9 28.7 -14.05 28.45 Q-15.45 26.65 -16.05 24.55 L-17.3 22.05 -17.45 21.65 -17.55 21.45 -17.85 21.4 -18.45 22.2 Q-19.15 23.15 -19.4 24.35 L-19.6 25.35 -19.95 25.55 -20.15 27.05 -20.15 27.1 -19.95 28.1 -19.95 28.25 -19.8 30.3 -19.5 32.1 -19.05 33.7 -18.55 35.15 -18.45 35.5 -18.4 35.55 -18.5 35.65 -18.25 36.8 -18.05 36.45 -17.4 38.0 -16.45 40.0 -16.45 40.2 -16.35 40.35 -14.95 43.25 -14.75 43.6 -13.45 46.0 -13.75 46.45 -13.5 46.65 -13.25 46.3 -12.45 47.5 -11.35 49.0 -11.05 49.45 -9.55 51.25 -8.4 52.5 -6.8 53.95 -5.8 54.75 -5.55 54.95 -4.1 55.85 -1.85 56.55 -1.7 56.5 -1.25 56.5 -1.0 56.5 0.75 56.75 2.3 56.55 2.55 56.5 3.25 56.5 3.4 56.55 5.6 55.85 7.1 54.95 7.75 54.45 8.35 53.95 8.6 53.7 8.75 53.55 9.95 52.5 11.55 50.75 12.6 49.45 13.9 47.6 14.0 47.45 14.9 46.05 16.25 43.65 16.3 43.6 17.9 40.3 18.0 40.2 18.0 40.0 18.95 38.0 19.15 37.55 19.95 35.5 21.05 32.1 21.35 30.3 21.45 27.9 Q22.0 25.95 21.5 23.9 L21.3 25.6 21.25 25.05 20.8 23.35 19.8 21.65 19.45 21.3 19.15 21.4 19.05 21.65 19.0 21.65 18.65 22.3 17.5 24.65 17.15 24.75 17.4 24.8 17.15 25.25 17.1 25.55 Q16.45 27.2 15.4 28.65 L15.4 28.75 15.35 28.85 14.95 29.25 14.45 30.0 14.4 30.1 13.85 30.7 13.55 31.05 12.7 32.05 11.9 32.95 11.15 33.7 10.5 34.3 10.05 34.65 9.75 34.9 9.55 34.9 9.55 34.85 Q9.45 34.7 9.7 34.55 L10.15 33.85 10.2 33.7 10.65 33.1 10.85 32.9 11.0 32.75 11.05 32.65 11.05 32.6 11.75 31.7 11.85 31.6 11.6 31.6 Q10.6 31.7 9.75 31.25 L8.3 30.15 8.05 30.0 5.9 28.45 5.65 28.35 4.35 27.85 2.6 27.65 2.6 27.7 0.75 27.75 -1.05 27.7 -1.1 27.65 -2.8 27.85 -4.35 28.45 -6.25 29.75 -6.5 30.0 -6.75 30.15 -8.2 31.25 -10.1 31.6 -10.3 31.55 -10.7 31.5 -10.7 31.55 -10.65 31.6 -9.15 33.1 -8.7 33.7 -8.6 33.85 -8.1 34.55 Q-7.9 34.7 -8.05 34.85 L-8.05 34.9 -8.2 34.9 -9.65 33.7 -10.4 32.95 -11.2 32.05 -12.1 31.0 -12.0 30.95 -13.65 27.75 -12.4 30.3 -12.6 30.4 M8.5 29.25 L8.85 29.55 Q9.6 30.3 10.55 30.7 L12.3 31.0 12.35 30.95 14.45 28.1 14.55 27.95 16.7 23.35 17.0 22.75 Q17.2 22.1 17.55 21.55 L15.65 21.2 15.55 21.15 13.15 19.95 Q10.05 18.15 6.65 17.2 L1.75 16.4 1.55 16.45 0.6 16.4 0.4 16.4 -0.25 16.45 -0.45 16.4 Q-2.95 16.5 -5.3 17.2 -8.75 18.15 -11.8 19.95 L-14.25 21.15 -14.3 21.2 -16.05 21.55 -15.8 22.05 -15.6 22.75 -15.2 23.5 -15.05 23.9 -14.9 24.35 -14.0 26.25 -13.9 26.7 -11.1 30.75 -10.9 30.9 -10.75 31.0 -9.0 30.7 Q-8.1 30.3 -7.35 29.55 L-5.2 27.85 -4.6 27.55 Q-3.8 27.0 -2.85 26.85 L-0.95 26.65 0.75 26.75 2.5 26.65 4.4 26.85 Q5.35 27.0 6.15 27.55 L6.75 27.85 8.5 29.25 M-18.5 40.05 L-18.65 39.9 -20.95 42.95 -20.65 42.9 -21.05 43.5 -21.7 44.55 -21.8 44.9 -21.85 44.95 -22.2 45.6 -22.4 46.15 -22.55 46.8 -22.6 48.2 -22.7 49.5 -22.7 49.65 -22.6 49.5 -22.55 49.45 -22.55 50.65 -22.35 51.4 -22.25 51.55 -22.35 52.05 -21.5 54.45 -20.2 56.7 -19.9 57.05 -19.85 57.15 -19.85 57.0 -18.35 58.7 -18.25 58.9 -18.2 59.0 Q-12.2 62.95 -5.1 61.2 L-5.4 60.5 -5.4 60.3 Q-5.4 60.05 -5.55 59.85 L-5.85 59.25 -6.9 56.55 -7.05 56.0 -7.35 55.45 -7.7 54.35 -8.9 53.25 -10.3 51.85 -11.4 50.55 -12.2 49.55 -13.4 47.75 -14.0 46.85 -14.6 45.85 -16.05 43.1 -16.45 42.35 -16.7 41.8 -17.8 40.85 -18.5 40.05 M-18.35 38.15 L-18.55 37.7 -18.6 37.9 -18.35 38.15 M-0.95 57.6 L-1.9 57.45 Q-3.7 57.15 -5.25 56.25 L-6.05 55.75 Q-3.5 61.05 -2.0 67.0 L2.6 67.45 3.4 66.65 Q5.0 60.95 7.65 55.65 L6.75 56.25 Q5.2 57.15 3.45 57.45 L2.15 57.65 0.75 57.7 -0.95 57.6 M25.25 12.5 L24.7 12.6 25.35 12.45 25.45 12.4 25.8 11.8 Q27.15 9.55 28.05 7.15 L28.75 4.75 28.75 4.7 28.75 4.6 28.95 3.75 28.9 3.35 28.95 3.05 Q28.9 2.8 29.0 2.6 L29.0 2.5 28.95 2.55 28.7 2.75 27.7 3.45 25.0 4.75 24.2 5.0 24.1 5.05 24.0 5.05 20.75 5.75 20.35 5.8 19.25 5.95 18.5 6.1 17.8 6.2 14.8 6.25 14.05 6.25 13.75 6.25 13.3 6.2 10.95 5.8 10.85 5.8 10.1 5.6 8.75 5.2 8.25 5.15 8.15 5.65 8.1 5.7 7.35 8.5 6.95 9.7 6.95 9.75 7.1 9.75 Q6.8 10.25 6.8 10.9 L6.5 10.9 5.6 12.95 5.15 13.9 4.9 14.3 4.1 15.55 Q7.25 16.15 10.3 17.25 11.85 17.8 13.2 18.65 L15.65 20.15 15.75 20.2 15.95 20.2 16.3 20.3 19.15 19.95 21.15 18.1 22.05 17.15 22.25 16.95 22.25 16.9 24.8 13.4 24.85 13.3 24.85 13.35 25.0 13.2 25.0 13.15 25.35 12.55 25.4 12.45 25.25 12.5 M21.65 42.1 L19.8 39.65 18.65 40.9 18.0 42.35 17.8 42.65 17.0 44.25 16.2 45.7 16.1 45.85 15.7 46.55 14.45 48.5 13.9 49.3 13.7 49.55 10.4 53.25 9.6 54.0 9.5 54.15 9.15 54.65 8.85 55.25 8.7 55.6 8.35 56.4 8.0 57.2 Q7.35 58.35 7.2 59.6 L7.05 59.55 6.85 60.35 Q9.1 61.75 12.05 61.55 15.0 61.35 17.5 60.2 L17.9 59.85 18.45 59.7 Q19.65 59.15 20.3 58.1 L20.6 57.85 21.45 56.95 23.3 53.55 Q23.7 52.65 23.7 51.75 L23.7 51.45 23.65 51.05 23.8 50.55 23.8 50.2 23.85 49.9 23.85 49.75 23.8 48.95 23.8 47.2 23.65 46.0 23.75 46.2 23.7 45.95 Q23.3 44.05 22.15 42.65 L21.65 42.1" fill="#000000" fill-rule="evenodd" stroke="none"/>
    <path d="M-28.25 -79.95 L-28.3 -80.0 -28.15 -80.3 -26.55 -81.3 -26.35 -81.4 -25.35 -81.65 -21.5 -82.0 -20.3 -82.05 -20.25 -82.1 -17.85 -81.9 -14.9 -81.7 -12.0 -81.4 -9.1 -80.85 -8.05 -80.65 -7.15 -80.4 -5.95 -80.0 -3.2 -79.0 -1.8 -78.35 0.75 -76.9 2.05 -76.1 3.95 -74.9 4.85 -74.2 7.1 -72.4 9.15 -70.3 10.85 -67.9 11.2 -67.35 11.75 -65.45 Q12.45 -63.3 11.9 -61.1 11.55 -59.7 10.1 -59.45 L8.3 -59.2 6.85 -59.35 5.75 -59.7 5.45 -59.95 Q4.15 -60.7 3.2 -61.9 L1.4 -64.2 -0.45 -66.5 -2.4 -68.7 -4.55 -70.7 -6.8 -72.55 -7.65 -73.25 Q-8.85 -74.1 -10.15 -74.75 L-11.4 -75.3 -12.4 -75.75 Q-14.45 -76.6 -16.6 -77.25 L-20.85 -78.5 -25.2 -79.6 -28.0 -79.95 -28.05 -79.95 -28.25 -79.95 M-11.05 -55.25 L-12.5 -54.95 -12.5 -55.05 -12.65 -55.4 -14.5 -57.05 -14.75 -56.95 Q-14.55 -57.0 -14.4 -57.2 L-13.95 -58.05 -13.65 -58.75 -13.45 -59.1 -12.6 -60.8 -12.0 -61.6 -10.35 -63.3 -9.45 -64.05 -8.25 -63.75 -5.65 -62.0 -5.75 -61.9 Q-8.85 -58.95 -10.85 -55.25 L-11.0 -55.25 -11.05 -55.25 M-13.4 -53.9 L-12.85 -54.1 -11.55 -54.25 -11.5 -54.25 Q-12.2 -53.85 -12.05 -53.0 L-11.95 -52.85 -9.35 -53.05 -8.95 -53.4 -8.85 -53.6 -8.75 -53.55 Q-7.45 -52.75 -6.55 -51.55 L-6.1 -50.8 -7.1 -51.0 -7.1 -50.95 -7.65 -50.7 -7.7 -50.65 Q-8.4 -49.85 -7.9 -48.8 L-7.4 -47.45 Q-6.7 -44.95 -8.4 -42.9 L-10.3 -41.8 -10.65 -41.6 -10.15 -41.6 -11.0 -41.6 -12.5 -41.8 -12.7 -41.9 -13.4 -42.15 Q-15.45 -43.75 -16.6 -46.0 L-17.1 -46.8 -16.9 -46.5 -18.3 -48.3 -19.1 -49.3 -19.45 -49.65 -19.45 -49.7 -19.7 -49.9 -20.45 -50.9 -21.45 -52.15 -23.05 -54.5 -23.2 -54.9 -23.25 -55.0 -23.65 -55.75 -23.6 -56.45 -23.65 -56.3 -23.5 -57.5 -23.25 -58.2 Q-22.75 -59.55 -21.55 -60.35 L-21.25 -60.5 -21.05 -60.1 -20.5 -59.35 -16.4 -55.3 -15.25 -54.25 Q-14.55 -53.5 -13.65 -53.7 L-13.45 -53.85 -13.4 -53.9 M-24.45 -57.75 L-24.8 -58.2 -25.1 -59.35 -25.1 -59.4 Q-25.3 -60.95 -24.0 -61.9 L-22.85 -62.35 -22.7 -62.35 -22.35 -61.55 Q-22.15 -61.0 -21.6 -60.9 L-21.55 -60.85 -22.3 -60.45 Q-23.7 -59.2 -23.95 -57.5 L-24.05 -57.65 -24.15 -57.65 -24.45 -57.75 M-25.6 -61.45 L-25.75 -61.95 -25.8 -62.15 -25.85 -62.55 Q-26.2 -64.0 -26.0 -65.45 -25.95 -66.25 -25.55 -66.85 L-25.4 -67.0 -25.05 -66.15 -24.35 -64.85 -23.6 -63.4 -23.05 -62.75 -24.1 -62.4 -24.7 -61.9 -25.05 -61.55 -25.55 -61.4 -25.6 -61.45 M-8.3 -64.65 L-8.4 -64.7 -7.6 -65.45 -7.55 -65.45 -3.85 -65.45 -2.55 -64.4 -1.7 -63.6 Q-3.4 -63.5 -4.8 -62.6 L-4.9 -62.5 -8.3 -64.65 M-15.75 -75.0 L-18.0 -76.15 -16.7 -75.55 -15.75 -75.0 M10.65 -63.5 L10.65 -63.65 9.9 -64.25 6.2 -64.2 5.9 -64.25 4.8 -63.7 Q4.8 -62.95 5.4 -62.25 L6.55 -61.35 Q7.7 -60.7 9.05 -60.8 L9.35 -61.0 Q10.1 -61.45 10.5 -62.25 L10.65 -63.5 M6.05 -70.3 L0.7 -70.05 0.0 -69.1 7.45 -69.5 6.05 -70.3 M4.5 -67.0 L9.65 -66.6 7.75 -68.0 3.0 -67.8 1.5 -66.3 4.5 -67.0 M13.4 -42.35 L13.25 -42.5 10.65 -45.8 Q10.2 -47.95 11.1 -49.8 12.6 -51.6 14.65 -52.4 L16.3 -53.5 17.35 -52.7 17.65 -52.3 Q16.5 -50.9 14.8 -49.7 12.05 -47.9 14.5 -44.7 15.7 -44.0 17.0 -43.4 L16.1 -43.05 13.65 -42.4 13.4 -42.35 M-4.9 -12.65 L-6.2 -13.2 -8.45 -14.7 -10.1 -16.25 -10.8 -17.0 -11.05 -17.25 -11.2 -17.4 -13.95 -20.1 Q-15.1 -21.1 -16.4 -21.75 -18.15 -22.65 -20.1 -22.75 L-20.75 -22.65 -21.15 -22.6 -21.65 -22.4 -21.8 -23.35 -22.65 -24.8 Q-21.05 -25.65 -19.85 -27.05 -18.65 -28.45 -17.8 -30.0 -17.65 -28.85 -17.1 -27.7 -15.9 -25.2 -13.85 -23.1 -12.05 -21.3 -9.6 -20.15 L-7.9 -19.4 -4.25 -18.3 -3.3 -18.15 -1.45 -17.9 -2.85 -17.4 -3.25 -17.0 -4.0 -16.15 -4.25 -15.7 Q-4.85 -14.25 -4.9 -12.65 M-25.5 -26.85 L-27.05 -27.1 -27.9 -27.0 -28.6 -26.8 -29.05 -27.35 -28.6 -28.05 -28.15 -28.9 -26.9 -30.8 -26.5 -31.45 -24.5 -33.5 -21.65 -35.95 Q-18.45 -38.2 -14.8 -39.6 L-13.7 -40.05 -13.7 -40.1 -12.25 -40.5 -12.7 -39.45 -13.15 -38.4 Q-14.35 -37.9 -15.35 -37.0 L-15.85 -36.45 -16.25 -36.0 -15.85 -36.5 -16.85 -36.5 Q-22.15 -34.85 -24.8 -30.05 -25.75 -28.3 -25.5 -26.85 M15.85 -38.65 L15.9 -38.6 15.8 -38.55 15.85 -38.65 M23.05 -22.8 L23.6 -23.25 Q25.35 -24.75 27.5 -25.2 L28.3 -25.3 28.8 -25.45 29.25 -25.5 29.35 -25.5 30.15 -25.55 31.5 -25.05 31.7 -24.9 29.4 -21.55 29.35 -21.2 29.3 -21.05 29.25 -20.95 29.2 -20.95 29.2 -20.75 29.05 -20.55 29.05 -20.45 Q28.65 -18.85 30.0 -17.8 L30.05 -17.7 30.05 -17.6 30.45 -17.2 30.65 -17.0 31.2 -16.3 Q31.7 -15.65 32.35 -15.45 L31.6 -14.5 Q31.05 -14.0 30.3 -13.85 L30.1 -13.8 30.25 -13.5 28.25 -16.85 28.15 -17.0 27.6 -17.65 25.8 -19.85 24.4 -21.35 22.95 -22.4 23.0 -22.7 23.05 -22.8 M1.6 -29.35 L1.45 -29.45 1.25 -29.7 0.7 -30.3 Q0.3 -30.55 0.05 -30.95 L-0.5 -31.55 -1.05 -32.4 -1.15 -32.65 -1.25 -32.9 -1.25 -33.0 -1.4 -33.15 -0.95 -34.3 -0.65 -34.6 Q0.0 -35.25 -0.2 -35.9 L-1.05 -35.05 -1.65 -34.25 -1.95 -33.85 -1.95 -33.8 -2.05 -34.0 Q-2.25 -34.5 -1.95 -35.0 L-1.6 -35.4 -1.25 -35.8 Q-0.85 -36.45 -1.1 -37.1 L-2.7 -34.85 -2.75 -34.8 -3.0 -35.55 -2.65 -36.4 -2.6 -36.45 Q-2.05 -37.05 -1.95 -37.7 L-1.95 -37.85 -3.3 -36.4 -3.35 -36.3 Q-3.75 -37.2 -3.6 -38.05 L-3.55 -38.15 -3.55 -38.6 -3.1 -39.4 -2.95 -39.75 -2.6 -40.05 -2.4 -40.15 -2.25 -40.2 -0.4 -39.95 -0.3 -39.9 -0.1 -39.85 0.85 -37.75 1.9 -35.0 2.15 -34.3 2.6 -31.4 2.6 -30.65 Q2.5 -29.9 2.0 -29.35 L1.8 -29.15 1.6 -29.35 M4.5 -44.55 L4.7 -44.55 6.4 -44.8 8.45 -44.75 8.5 -44.75 8.85 -44.7 9.5 -44.6 10.2 -43.65 11.05 -41.15 Q11.55 -38.25 11.45 -35.3 L11.35 -34.2 10.35 -30.3 10.6 -30.7 9.55 -29.25 8.75 -29.2 5.9 -29.25 6.0 -29.25 6.1 -29.95 6.2 -30.65 Q6.55 -32.45 6.5 -34.5 L6.15 -38.35 5.85 -40.55 5.7 -41.55 5.25 -43.4 4.5 -44.55 M7.35 -44.5 Q6.95 -44.5 6.75 -44.15 6.05 -43.15 6.65 -42.0 L7.4 -41.4 Q9.15 -40.9 9.15 -42.65 9.15 -44.2 7.65 -44.5 L7.35 -44.5 M-3.5 -77.6 L-10.0 -79.5 -8.45 -78.85 Q-5.45 -77.55 -3.05 -75.75 -1.1 -74.35 -0.65 -71.75 L5.3 -71.95 -3.5 -77.6 M-25.45 -80.7 L-25.45 -80.1 Q-14.35 -79.05 -4.75 -74.2 -14.15 -80.15 -25.45 -80.7 M-10.3 -49.5 L-11.0 -50.25 Q-12.85 -52.0 -15.3 -51.35 -16.15 -50.25 -15.85 -48.75 -15.5 -46.05 -13.35 -44.8 L-12.4 -44.35 Q-10.6 -43.85 -9.5 -45.35 -9.1 -47.65 -10.3 -49.5 M-47.0 -25.4 L-46.9 -25.5 -44.95 -27.35 -45.4 -27.0 -46.85 -25.25 -47.0 -25.4 M-49.55 -8.0 L-49.7 -8.15 -48.75 -9.95 -48.7 -10.0 -48.6 -10.3 Q-48.0 -9.55 -47.2 -8.95 L-45.7 -7.95 -43.6 -7.05 -42.1 -6.6 -41.95 -6.55 -41.75 -6.5 -41.5 -6.45 -41.35 -6.45 -40.25 -6.25 -38.95 -6.15 -39.15 -3.6 -39.0 -2.45 -40.1 -2.6 -41.15 -2.8 -41.3 -2.85 -41.45 -2.9 -41.75 -3.0 -41.85 -3.05 -42.25 -3.15 -42.65 -3.3 Q-44.8 -4.1 -46.7 -5.45 L-47.85 -6.35 -49.55 -8.0 M-15.8 -23.05 L-15.55 -22.75 -15.55 -22.95 -15.8 -23.05 M-18.2 30.75 Q-18.3 28.75 -17.45 27.0 L-17.15 27.05 -17.0 27.25 -16.6 28.9 -16.55 29.25 -15.25 32.0 -16.55 33.1 -18.2 30.75 M-8.05 34.85 Q-7.9 34.7 -8.1 34.55 L-8.6 33.85 -8.7 33.7 -9.15 33.1 -10.65 31.6 -10.65 31.55 -10.3 31.55 -10.1 31.6 -8.2 31.25 -6.75 30.15 -6.5 30.0 -6.25 29.75 Q-5.95 30.1 -5.8 30.75 L-5.7 32.2 -5.9 33.6 Q-6.1 34.35 -6.6 34.9 L-8.05 34.85 M-20.65 42.9 L-20.95 42.95 -18.65 39.9 -18.5 40.05 Q-19.35 41.1 -19.8 42.45 L-19.9 42.75 -20.65 42.9 M-17.8 40.85 L-16.7 41.8 -16.45 42.35 -16.05 43.1 -17.45 42.7 -17.8 42.65 -17.9 42.05 -17.85 41.0 -17.8 40.85 M-14.0 46.85 L-13.4 47.75 -13.4 48.0 -13.35 48.3 -13.95 48.5 -14.05 48.55 -14.5 48.6 -14.95 48.7 -15.4 47.75 Q-15.75 47.1 -16.35 46.6 L-16.75 46.2 -16.05 46.05 -15.3 46.0 -15.15 46.1 -14.0 46.85 M-11.4 50.55 L-10.3 51.85 -9.7 53.05 Q-9.45 53.8 -9.5 54.5 -9.65 55.65 -10.15 56.6 L-10.3 56.65 -12.45 57.25 -12.95 57.3 -13.4 57.2 -12.9 57.45 -14.6 56.75 -15.95 56.0 -16.3 55.75 Q-17.5 54.15 -17.45 52.15 L-17.1 51.6 -16.9 51.95 Q-16.25 53.45 -14.8 54.25 L-13.2 54.3 Q-12.45 53.9 -12.15 53.1 L-11.8 51.4 -12.0 50.9 Q-12.65 50.0 -13.65 49.55 L-13.9 49.25 -13.75 49.2 Q-12.75 49.55 -11.9 50.15 L-11.4 50.55 M-22.6 49.5 L-22.7 49.65 -22.6 49.5 M-22.2 45.6 L-21.85 44.95 -21.8 44.95 -21.55 44.65 -21.4 44.45 -21.3 44.35 -20.65 43.8 Q-20.55 44.2 -20.8 44.75 L-20.85 44.85 Q-21.05 46.1 -20.25 47.0 L-20.2 47.05 -20.5 47.25 -21.3 47.95 -22.25 46.85 -22.3 46.55 -22.3 46.2 -22.2 45.6 M-17.1 45.7 Q-17.25 45.35 -17.05 44.95 -17.35 44.2 -17.1 43.5 -16.25 43.8 -15.45 44.35 -15.55 45.55 -16.7 45.65 L-17.1 45.7 M-18.05 32.2 L-17.0 33.3 -17.65 34.35 -18.05 32.2 M-17.35 35.35 L-15.7 33.3 -15.6 33.2 -14.95 32.7 -12.95 37.35 Q-12.55 38.3 -12.7 39.25 -12.75 39.85 -13.25 40.2 -15.9 39.7 -16.9 36.95 L-17.35 35.35 M-19.8 47.75 Q-19.6 48.05 -19.55 48.5 -19.35 49.9 -18.1 50.6 L-17.6 51.0 -18.7 52.5 -19.8 52.45 -19.85 52.4 Q-21.5 51.65 -21.2 49.9 L-21.15 49.8 -21.05 49.05 -19.8 47.75 M20.0 42.75 Q19.65 42.25 19.7 41.55 L19.65 41.2 18.3 42.6 17.8 42.65 18.0 42.35 18.65 40.9 19.8 39.65 21.65 42.1 21.95 43.35 21.9 43.7 21.9 43.75 21.9 43.7 Q21.25 43.25 20.55 42.95 L20.45 42.9 20.15 42.75 20.0 42.75 M13.9 49.3 Q14.75 49.4 15.5 49.85 L15.45 49.9 Q15.2 50.4 14.7 50.6 13.65 51.0 12.7 51.75 11.0 53.05 11.4 54.95 L13.2 54.85 Q15.0 54.05 16.1 52.35 L17.1 51.4 18.35 52.7 18.7 53.55 18.6 53.65 18.5 53.85 18.35 54.25 18.05 54.7 Q17.75 55.7 16.85 56.4 L15.85 57.25 Q13.55 58.45 10.9 57.7 9.6 57.35 8.8 56.2 L8.7 55.9 8.7 55.6 8.85 55.25 9.15 54.65 9.5 54.15 9.6 54.0 10.4 53.25 13.7 49.55 13.9 49.3 M19.95 43.75 L20.5 43.95 Q21.35 44.25 22.1 45.1 L22.55 45.65 22.6 45.75 22.9 46.2 Q22.95 47.2 22.6 48.15 L22.35 48.65 Q21.4 47.2 19.95 46.3 L20.15 45.95 20.15 45.85 20.15 45.65 20.15 45.45 Q19.85 44.6 19.95 43.75 M17.1 45.7 L16.2 45.7 17.0 44.25 17.15 44.2 17.85 43.85 17.8 44.0 17.1 45.7 M15.7 46.55 L17.0 46.45 17.0 46.5 Q15.95 47.7 15.85 49.15 L15.35 48.9 14.45 48.5 15.7 46.55 M19.85 47.3 L20.25 47.6 20.4 47.7 Q21.5 48.85 22.05 50.2 L22.05 50.7 Q22.15 51.65 21.65 52.45 20.95 53.6 19.65 53.4 18.95 51.9 17.7 50.65 19.1 49.95 19.55 48.45 L19.8 47.35 19.85 47.3" fill="#999999" fill-rule="evenodd" stroke="none"/>
    <path d="M11.2 -67.35 L12.35 -65.3 12.85 -64.05 12.9 -63.9 13.1 -63.2 13.05 -60.65 12.9 -60.0 Q12.4 -58.6 11.1 -57.85 L10.45 -57.5 9.15 -57.2 7.6 -57.2 Q6.15 -57.45 4.8 -58.05 3.9 -58.4 3.15 -59.0 L2.8 -59.3 2.75 -59.3 2.55 -59.3 1.7 -60.3 1.7 -60.35 0.4 -61.95 -1.45 -62.05 -2.85 -61.55 -3.2 -61.4 -5.7 -59.6 -5.25 -60.35 -8.85 -55.4 -9.35 -55.4 -9.1 -56.05 -9.35 -55.4 -10.45 -55.3 -10.7 -55.25 -10.85 -55.2 -10.85 -55.25 Q-8.85 -58.95 -5.75 -61.9 L-5.65 -62.0 -8.25 -63.75 -9.45 -64.05 -9.5 -64.05 -9.45 -64.1 -8.7 -64.5 -8.3 -64.65 -4.9 -62.5 -4.8 -62.6 Q-3.4 -63.5 -1.7 -63.6 L-2.55 -64.4 -3.85 -65.45 -7.55 -65.45 -7.15 -65.85 -6.15 -67.45 -6.4 -67.55 -7.25 -68.45 -7.95 -69.1 -8.25 -69.4 -9.15 -70.25 -9.3 -70.35 Q-12.35 -73.1 -15.75 -75.0 L-16.7 -75.55 -18.0 -76.15 Q-22.6 -78.3 -27.8 -79.1 L-28.05 -79.15 -28.2 -79.15 Q-28.55 -79.5 -28.5 -79.9 L-28.05 -79.95 -28.25 -79.9 -28.3 -79.95 -28.25 -79.95 -28.05 -79.95 -28.0 -79.95 -25.2 -79.6 -20.85 -78.5 -16.6 -77.25 Q-14.45 -76.6 -12.4 -75.75 L-11.4 -75.3 -10.15 -74.75 Q-8.85 -74.1 -7.65 -73.25 L-6.8 -72.55 -4.55 -70.7 -2.4 -68.7 -0.45 -66.5 1.4 -64.2 3.2 -61.9 Q4.15 -60.7 5.45 -59.95 L5.75 -59.7 6.85 -59.35 8.3 -59.2 10.1 -59.45 Q11.55 -59.7 11.9 -61.1 12.45 -63.3 11.75 -65.45 L11.2 -67.35 M-10.9 -55.2 L-11.05 -55.25 -11.0 -55.25 -10.85 -55.25 -10.9 -55.2 M-12.5 -54.95 L-13.65 -53.8 -13.55 -53.85 -13.4 -53.9 -13.45 -53.85 -13.65 -53.7 Q-14.55 -53.5 -15.25 -54.25 L-16.4 -55.3 -20.5 -59.35 -21.05 -60.1 -21.25 -60.5 -20.7 -60.75 -20.65 -60.75 -20.1 -60.9 -19.55 -60.85 -19.55 -60.9 -19.5 -60.85 Q-19.05 -60.7 -18.75 -60.15 -17.3 -59.05 -15.9 -57.65 L-15.7 -57.5 -15.15 -57.25 -14.95 -57.0 -14.85 -56.95 -14.75 -56.95 -14.5 -57.05 -12.65 -55.4 -12.5 -55.05 -12.5 -54.95 M-6.1 -50.8 L-5.95 -50.4 -5.35 -48.7 Q-5.1 -47.35 -5.2 -45.95 -5.25 -44.35 -6.15 -43.0 L-6.55 -42.6 -8.45 -41.8 -8.7 -41.75 -10.15 -41.6 -10.65 -41.6 -10.3 -41.8 -8.4 -42.9 Q-6.7 -44.95 -7.4 -47.45 L-7.9 -48.8 Q-8.4 -49.85 -7.7 -50.65 L-7.65 -50.7 -7.1 -50.95 -7.1 -51.0 -6.1 -50.8 M-25.4 -67.0 L-25.15 -66.95 -25.15 -67.0 Q-23.5 -65.5 -22.4 -63.7 L-22.3 -63.5 Q-22.15 -63.35 -22.3 -63.15 -22.5 -62.85 -22.9 -62.85 L-22.9 -62.8 -23.05 -62.75 -23.6 -63.4 -24.35 -64.85 -25.05 -66.15 -25.4 -67.0 M-20.95 -62.15 L-20.6 -61.8 -20.55 -61.75 -20.6 -61.65 -20.7 -61.55 -21.55 -60.85 -21.6 -60.9 Q-22.15 -61.0 -22.35 -61.55 L-22.7 -62.35 -22.3 -62.4 Q-21.55 -62.55 -21.0 -62.1 L-20.95 -62.15 M-19.95 33.9 L-19.75 34.5 -19.85 34.4 -19.95 33.9 M16.45 -55.85 L16.5 -56.2 16.45 -55.75 16.05 -54.65 Q15.5 -54.45 15.3 -54.95 15.2 -55.15 15.25 -55.4 L14.95 -56.2 14.9 -56.45 14.4 -58.0 14.2 -58.35 14.1 -58.7 Q13.75 -59.25 13.85 -59.9 L14.0 -60.15 Q13.8 -60.65 14.2 -61.3 L14.95 -60.25 15.4 -59.55 Q16.15 -58.3 16.3 -56.85 L16.45 -55.85 M16.3 -53.5 L17.55 -55.55 18.85 -54.15 17.65 -52.3 17.35 -52.7 16.3 -53.5 M17.0 -43.4 L19.4 -42.6 Q18.6 -41.65 16.9 -41.2 14.6 -40.9 13.4 -42.35 L13.65 -42.4 16.1 -43.05 17.0 -43.4 M19.85 -36.35 Q20.1 -35.65 20.8 -35.1 L21.45 -32.75 22.05 -28.95 Q20.85 -26.0 18.9 -23.4 L18.6 -23.05 16.85 -21.3 17.25 -21.55 15.2 -20.1 12.4 -17.4 12.0 -17.0 9.7 -14.7 Q8.65 -13.8 7.4 -13.2 6.35 -12.75 5.3 -12.4 L4.75 -12.25 2.35 -11.95 1.05 -11.9 0.2 -11.9 -1.15 -11.95 -3.55 -12.25 -4.05 -12.4 -4.15 -12.4 -4.15 -12.7 Q-4.0 -14.5 -2.8 -15.85 -1.75 -16.5 -0.5 -16.55 L2.6 -17.0 3.0 -17.1 3.15 -17.2 2.8 -17.15 5.35 -17.6 Q8.0 -18.05 10.4 -19.2 L11.6 -19.85 Q14.25 -21.35 16.35 -23.65 L16.35 -23.7 17.05 -24.55 17.8 -25.6 Q19.0 -27.6 19.25 -29.9 L19.25 -31.3 Q19.2 -33.2 18.7 -34.95 18.0 -37.5 15.8 -38.55 L15.9 -38.6 19.85 -36.35 M16.15 -36.45 L15.6 -37.0 14.95 -37.5 14.75 -37.65 14.8 -37.8 14.8 -37.9 15.2 -37.5 15.75 -36.85 16.45 -36.1 16.15 -36.45 M9.5 -44.6 L9.7 -44.6 10.15 -44.25 10.3 -44.45 10.55 -44.45 10.6 -44.4 11.3 -43.55 12.2 -42.3 12.85 -40.85 13.45 -38.65 13.55 -38.25 Q13.8 -36.85 13.5 -35.45 L13.05 -34.0 12.6 -32.9 11.75 -30.65 10.55 -28.55 10.55 -28.5 10.3 -28.25 9.55 -27.55 7.65 -27.15 7.25 -27.2 6.75 -27.3 4.35 -27.55 Q4.15 -27.6 4.0 -27.75 L3.95 -27.75 Q2.6 -28.35 1.6 -29.35 L1.8 -29.15 2.0 -29.35 Q2.5 -29.9 2.6 -30.65 L2.6 -31.4 2.15 -34.3 1.9 -35.0 0.85 -37.75 -0.1 -39.85 -0.3 -39.9 -0.1 -39.85 0.5 -40.75 0.9 -41.25 2.6 -43.15 4.25 -40.05 Q5.1 -38.45 5.5 -36.75 L6.1 -33.1 6.2 -30.65 6.1 -29.95 6.0 -29.25 5.9 -29.25 8.75 -29.2 9.55 -29.25 10.6 -30.7 10.35 -30.3 11.35 -34.2 11.45 -35.3 Q11.55 -38.25 11.05 -41.15 L10.2 -43.65 9.5 -44.6 M-1.25 -32.9 L-1.95 -33.85 -1.65 -34.25 -1.05 -35.05 -0.2 -35.9 Q0.0 -35.25 -0.65 -34.6 L-0.95 -34.3 -1.4 -33.15 -1.25 -33.0 -1.25 -32.9 M-2.05 -34.0 L-2.6 -34.65 -2.7 -34.85 -1.1 -37.1 Q-0.85 -36.45 -1.25 -35.8 L-1.6 -35.4 -1.95 -35.0 Q-2.25 -34.5 -2.05 -34.0 M-3.0 -35.55 Q-3.4 -35.7 -3.35 -36.2 L-3.3 -36.4 -1.95 -37.85 -1.95 -37.7 Q-2.05 -37.05 -2.6 -36.45 L-2.65 -36.4 -3.0 -35.55 M33.4 -14.3 L35.1 -14.05 37.0 -14.3 36.8 -14.25 36.8 -14.2 37.2 -14.35 40.0 -15.35 40.65 -13.95 40.05 -13.75 38.95 -13.4 38.8 -13.35 38.1 -13.1 37.4 -12.8 37.45 -12.85 34.7 -11.3 34.7 -11.15 34.5 -10.8 34.4 -10.6 Q34.1 -9.6 34.15 -8.55 34.25 -7.5 34.7 -6.45 L34.8 -6.15 34.8 -5.95 34.85 -5.9 Q35.15 -5.35 35.8 -5.1 L32.1 -4.75 32.2 -5.7 32.15 -6.6 31.95 -8.55 31.75 -9.4 31.5 -10.2 30.55 -12.75 31.15 -12.85 Q31.75 -13.0 32.2 -13.3 L33.4 -14.3 M-34.45 -30.25 L-33.55 -29.75 -34.45 -30.25 M-46.2 13.55 L-47.45 11.85 -47.7 11.3 -48.05 10.5 -47.95 10.45 -47.35 10.65 -47.1 10.75 -46.95 10.75 -45.7 11.25 Q-45.1 11.35 -44.5 11.6 L-42.75 12.1 -41.2 12.5 -40.55 12.55 -38.65 12.6 -38.6 12.65 -35.25 12.75 -34.35 12.45 Q-32.35 11.5 -31.6 9.4 L-31.35 8.55 Q-30.8 6.15 -31.35 3.7 -31.6 2.5 -32.2 1.45 -32.9 0.1 -34.05 -0.5 L-34.25 -1.0 -34.9 -1.55 -35.1 -1.75 -35.15 -1.75 -35.15 -1.8 -35.4 -1.95 -36.0 -2.3 -36.6 -2.35 -37.75 -2.4 -37.85 -2.4 -39.0 -2.45 -39.15 -3.6 -38.95 -6.15 -36.75 -6.25 -36.5 -6.45 Q-35.5 -5.85 -34.15 -5.85 L-32.95 -5.1 -32.4 -4.75 -32.25 -3.05 Q-31.65 -0.4 -30.65 2.15 -29.75 4.55 -29.6 7.15 -29.5 9.85 -30.6 12.25 -32.25 15.75 -36.25 16.0 L-38.15 15.95 Q-42.45 15.6 -46.2 13.55 M-41.1 -12.7 L-41.1 -12.75 -41.05 -12.8 -41.1 -12.7 M-5.85 4.4 L-6.3 5.3 -6.35 5.0 -6.2 5.0 -6.3 4.75 -6.2 4.65 -5.85 4.4 M3.55 3.5 L3.45 3.4 3.6 3.45 3.55 3.5 M-19.6 25.35 L-19.4 24.35 Q-19.15 23.15 -18.45 22.2 L-17.85 21.4 -17.55 21.45 -17.45 21.65 -17.3 22.05 -16.05 24.55 Q-15.45 26.65 -14.05 28.45 L-13.9 28.7 -13.9 28.75 -13.85 28.75 -13.8 28.85 -13.4 29.25 -12.85 30.1 -12.6 30.4 -15.25 32.0 -16.55 29.25 -16.6 28.9 -17.0 27.25 -17.15 27.05 -17.45 27.0 Q-18.3 28.75 -18.2 30.75 -19.15 29.05 -19.65 27.2 L-19.4 26.55 Q-18.5 24.9 -16.7 24.9 L-16.05 24.6 -16.4 24.4 Q-18.15 24.4 -19.6 25.35 M-12.1 31.0 L-11.2 32.05 -10.4 32.95 -9.65 33.7 -8.2 34.9 -8.05 34.9 -8.05 34.85 -6.6 34.9 Q-6.1 34.35 -5.9 33.6 L-5.7 32.2 -5.8 30.75 Q-5.95 30.1 -6.25 29.75 L-4.35 28.45 -2.8 27.85 -1.1 27.65 -1.05 27.7 0.75 27.75 2.6 27.7 2.6 27.65 4.35 27.85 5.65 28.35 5.7 29.7 Q6.05 32.1 4.9 34.45 4.95 33.0 4.35 31.65 3.5 30.3 2.0 30.05 L-0.95 29.95 -2.8 30.85 -3.3 31.15 Q-4.45 31.85 -4.8 33.15 -5.15 34.95 -4.1 36.3 -3.3 37.4 -2.3 38.15 L-2.5 40.45 Q-5.75 41.15 -8.75 42.65 -10.2 42.95 -11.45 43.9 -12.65 44.8 -13.45 46.0 L-14.75 43.6 -14.95 43.25 -16.35 40.35 -16.45 40.2 -16.45 40.0 -17.4 38.0 -18.05 36.45 -17.35 35.35 -16.9 36.95 Q-15.9 39.7 -13.25 40.2 -12.75 39.85 -12.7 39.25 -12.55 38.3 -12.95 37.35 L-14.95 32.7 -12.1 31.0 M-10.65 31.6 L-10.7 31.55 -10.7 31.5 -10.3 31.55 -10.65 31.55 -10.65 31.6 M10.5 34.3 L11.15 33.7 11.9 32.95 12.7 32.05 13.55 31.05 14.55 31.6 16.75 33.05 17.0 33.3 17.5 33.75 17.05 35.15 Q15.25 40.05 12.65 44.45 10.1 41.85 6.75 40.7 9.25 37.85 10.5 34.3 M13.85 30.7 L14.4 30.1 14.45 30.0 Q16.5 29.8 17.85 31.45 L17.65 32.95 16.35 31.95 Q15.15 31.15 13.85 30.7 M-11.35 49.0 L-12.45 47.5 -13.25 46.3 -12.35 45.3 -11.35 44.6 Q-7.25 42.15 -2.55 40.95 L-2.6 41.3 -2.9 46.6 -3.1 48.7 -3.15 49.5 -3.45 51.7 -3.4 52.4 -3.45 52.75 -3.4 52.7 -3.35 53.0 -6.85 52.05 -8.3 51.25 Q-9.3 50.9 -10.1 50.15 L-10.65 49.75 -11.0 49.2 -11.35 49.0 M-18.4 35.55 L-18.45 35.5 -18.55 35.15 -19.05 33.7 -19.5 32.1 -19.8 30.3 -19.95 28.25 -19.95 28.1 -19.8 28.7 Q-19.3 30.65 -18.05 32.2 L-17.65 34.35 -18.4 35.55 M-16.05 43.1 L-14.6 45.85 -14.0 46.85 -15.15 46.1 -15.3 46.0 -16.05 46.05 -16.75 46.2 -18.35 46.8 -19.8 47.75 -21.05 49.05 -21.15 49.8 -21.2 49.9 Q-21.5 51.65 -19.85 52.4 L-19.8 52.45 -18.7 52.5 -17.6 51.0 -15.3 48.85 -14.5 48.6 -14.05 48.55 -13.95 48.5 -13.35 48.3 -13.4 48.0 -13.4 47.75 -12.2 49.55 -11.4 50.55 -11.9 50.15 Q-12.75 49.55 -13.75 49.2 L-13.9 49.25 Q-14.95 49.55 -15.8 49.95 L-17.1 51.6 -17.45 52.15 Q-17.5 54.15 -16.3 55.75 L-15.95 56.0 -14.6 56.75 -12.9 57.45 -13.4 57.2 -12.95 57.3 -12.45 57.25 -10.3 56.65 -10.15 56.6 Q-9.65 55.65 -9.5 54.5 -9.45 53.8 -9.7 53.05 L-10.3 51.85 -8.9 53.25 -7.7 54.35 -7.35 55.45 -7.05 56.0 -6.9 56.55 -5.85 59.25 -5.55 59.85 Q-5.4 60.05 -5.4 60.3 L-5.4 60.5 -5.1 61.2 Q-12.2 62.95 -18.2 59.0 L-18.25 58.9 -18.35 58.7 -19.85 57.0 Q-19.85 56.75 -20.2 56.7 L-21.5 54.45 -22.35 52.05 -22.25 51.55 -22.35 51.4 -22.55 50.65 -22.55 49.45 -22.6 49.5 -22.7 49.5 -22.6 48.2 -22.55 46.8 -22.4 46.15 -22.3 46.2 -22.3 46.55 -22.25 46.85 -21.3 47.95 -20.5 47.25 -20.2 47.05 -18.8 46.2 Q-18.05 45.8 -17.1 45.7 L-16.7 45.65 Q-15.55 45.55 -15.45 44.35 -16.25 43.8 -17.1 43.5 L-18.4 43.25 Q-19.65 43.15 -20.65 43.8 L-21.3 44.35 -21.4 44.45 -21.55 44.65 -21.7 44.55 -21.05 43.5 -20.65 42.9 -19.9 42.75 -17.8 42.65 -17.45 42.7 -16.05 43.1 M-21.85 44.95 L-21.8 44.9 -21.8 44.95 -21.85 44.95 M-1.85 40.9 L-1.85 40.8 -1.75 40.75 -1.4 40.7 -1.6 40.8 -0.4 40.5 0.1 40.4 0.75 40.4 0.2 41.05 Q-0.25 41.6 0.25 42.1 1.8 43.75 3.5 43.25 L3.5 43.3 3.75 45.95 3.8 48.45 Q3.75 50.65 4.0 52.3 L4.05 52.35 4.05 52.6 -2.5 53.1 -2.45 52.9 Q-2.4 52.5 -2.5 52.15 L-2.45 48.45 -2.35 45.9 -2.0 41.95 -1.9 41.9 -1.95 41.7 -1.85 41.05 -1.7 40.85 -1.85 40.9 M-1.75 38.55 L-1.15 38.7 Q0.45 38.9 1.8 38.1 L2.95 37.35 3.0 37.6 1.2 39.9 -1.8 40.3 -1.75 38.55 M2.15 57.65 Q1.75 58.55 1.9 59.65 L-0.55 59.4 -0.95 57.6 0.75 57.7 2.15 57.65 M6.25 41.25 Q9.45 42.4 11.85 44.95 L12.15 45.25 8.85 49.9 Q7.75 51.3 6.1 51.9 L4.95 52.35 4.9 52.05 4.75 51.6 Q4.4 50.3 4.55 49.5 L4.6 48.6 4.4 46.95 4.05 43.65 4.0 43.05 5.25 42.2 6.25 41.25 M18.3 42.6 L20.0 42.75 20.15 42.75 20.45 42.9 20.55 42.95 Q21.25 43.25 21.9 43.7 L21.9 43.75 21.9 43.7 21.95 43.35 21.65 42.1 22.15 42.65 Q23.3 44.05 23.7 45.95 L23.65 46.0 23.8 47.2 23.8 48.95 23.85 49.75 23.85 49.9 23.8 50.2 23.8 50.55 23.65 51.05 23.7 51.45 23.7 51.75 Q23.7 52.65 23.3 53.55 L21.45 56.95 20.6 57.85 20.3 58.1 Q19.65 59.15 18.45 59.7 L17.9 59.85 17.5 60.2 Q15.0 61.35 12.05 61.55 9.1 61.75 6.85 60.35 L7.05 59.55 7.2 59.6 Q7.35 58.35 8.0 57.2 L8.35 56.4 8.7 55.6 8.7 55.9 8.8 56.2 Q9.6 57.35 10.9 57.7 13.55 58.45 15.85 57.25 L16.85 56.4 Q17.75 55.7 18.05 54.7 L18.35 54.25 18.5 53.85 18.6 53.65 18.7 53.55 18.35 52.7 17.1 51.4 16.15 50.4 15.5 49.85 Q14.75 49.4 13.9 49.3 L14.45 48.5 15.35 48.9 Q16.55 49.5 17.65 50.6 L17.7 50.65 Q18.95 51.9 19.65 53.4 20.95 53.6 21.65 52.45 22.15 51.65 22.05 50.7 L22.05 50.2 Q21.5 48.85 20.4 47.7 L20.25 47.6 19.85 47.3 Q18.55 46.5 17.15 46.45 L17.0 46.5 17.0 46.45 15.7 46.55 16.1 45.85 16.2 45.7 17.1 45.7 19.5 46.0 19.95 46.3 Q21.4 47.2 22.35 48.65 L22.6 48.15 Q22.95 47.2 22.9 46.2 L22.6 45.75 22.55 45.65 22.1 45.1 Q21.35 44.25 20.5 43.95 L19.95 43.75 18.25 43.7 17.85 43.85 17.15 44.2 17.0 44.25 17.8 42.65 18.3 42.6" fill="#666666" fill-rule="evenodd" stroke="none"/>
    <path d="M-10.85 -55.2 L-10.9 -55.2 -10.85 -55.25 -10.85 -55.2 M-23.65 -55.75 L-23.85 -56.05 -24.45 -57.75 -24.15 -57.65 -24.05 -57.65 -23.95 -57.5 Q-23.7 -59.2 -22.3 -60.45 L-21.55 -60.85 -20.7 -61.55 -20.6 -61.65 -20.55 -61.75 -19.55 -60.9 -19.55 -60.85 -20.1 -60.9 -20.65 -60.75 -20.7 -60.75 -21.25 -60.5 -21.55 -60.35 Q-22.75 -59.55 -23.25 -58.2 L-23.5 -57.5 -23.65 -56.3 -23.6 -56.45 -23.65 -55.75 M-25.1 -59.35 Q-25.5 -60.0 -25.55 -60.75 L-25.6 -61.45 -25.55 -61.4 -25.05 -61.55 -24.7 -61.9 -24.1 -62.4 -23.05 -62.75 -22.9 -62.8 -22.9 -62.85 Q-22.5 -62.85 -22.3 -63.15 -22.15 -63.35 -22.3 -63.5 L-22.4 -63.7 -21.85 -63.25 -21.55 -62.8 -20.95 -62.15 -21.0 -62.1 Q-21.55 -62.55 -22.3 -62.4 L-22.7 -62.35 -22.85 -62.35 -24.0 -61.9 Q-25.3 -60.95 -25.1 -59.4 L-25.1 -59.35 M-18.85 37.1 L-18.7 37.5 -18.6 37.85 -18.75 37.75 -18.85 37.15 -18.85 37.1 M4.5 -67.0 L1.5 -66.3 3.0 -67.8 7.75 -68.0 9.65 -66.6 4.5 -67.0 M6.05 -70.3 L7.45 -69.5 0.0 -69.1 0.7 -70.05 6.05 -70.3 M-4.15 -12.4 L-4.75 -12.6 -4.9 -12.65 Q-4.85 -14.25 -4.25 -15.7 L-4.0 -16.15 -3.25 -17.0 -2.85 -17.4 -1.45 -17.9 0.15 -17.8 0.9 -17.85 4.5 -18.3 Q7.4 -18.9 9.9 -20.15 12.3 -21.3 14.15 -23.1 16.15 -25.2 17.35 -27.7 L17.7 -28.55 17.9 -29.45 17.95 -29.5 17.95 -29.55 18.05 -30.4 18.05 -30.5 18.05 -30.6 18.1 -32.0 17.85 -33.25 17.75 -33.5 Q17.4 -34.95 16.45 -36.1 L15.75 -36.85 15.2 -37.5 14.8 -37.9 Q14.55 -38.7 14.65 -39.2 L15.85 -38.65 15.8 -38.55 Q18.0 -37.5 18.7 -34.95 19.2 -33.2 19.25 -31.3 L19.25 -29.9 Q19.0 -27.6 17.8 -25.6 L17.05 -24.55 16.35 -23.7 16.35 -23.65 Q14.25 -21.35 11.6 -19.85 L10.4 -19.2 Q8.0 -18.05 5.35 -17.6 L2.8 -17.15 3.15 -17.2 3.0 -17.1 2.6 -17.0 -0.5 -16.55 Q-1.75 -16.5 -2.8 -15.85 -4.0 -14.5 -4.15 -12.7 L-4.15 -12.4 M30.25 -13.5 L30.1 -13.8 30.3 -13.85 Q31.05 -14.0 31.6 -14.5 L32.35 -15.45 32.45 -15.4 32.65 -15.4 32.65 -15.3 32.9 -14.75 33.4 -14.3 32.2 -13.3 Q31.75 -13.0 31.15 -12.85 L30.55 -12.75 30.3 -13.3 30.25 -13.5 M-3.5 -77.6 L5.3 -71.95 -0.65 -71.75 Q-1.1 -74.35 -3.05 -75.75 -5.45 -77.55 -8.45 -78.85 L-10.0 -79.5 -3.5 -77.6 M-19.85 57.0 L-19.85 57.15 -19.9 57.05 -20.2 56.7 Q-19.85 56.75 -19.85 57.0 M-22.7 49.65 L-22.7 49.5 -22.6 49.5 -22.7 49.65 M-22.4 46.15 L-22.2 45.6 -22.3 46.2 -22.4 46.15 M-21.8 44.9 L-21.7 44.55 -21.55 44.65 -21.8 44.95 -21.8 44.9 M-18.35 38.15 L-18.6 37.9 -18.55 37.7 -18.35 38.15 M2.15 57.65 L3.45 57.45 Q5.2 57.15 6.75 56.25 L7.65 55.65 Q5.0 60.95 3.4 66.65 L2.6 67.45 -2.0 67.0 Q-3.5 61.05 -6.05 55.75 L-5.25 56.25 Q-3.7 57.15 -1.9 57.45 L-0.95 57.6 -0.55 59.4 1.9 59.65 Q1.75 58.55 2.15 57.65 M23.65 46.0 L23.7 45.95 23.75 46.2 23.65 46.0" fill="#4d4f4d" fill-rule="evenodd" stroke="none"/>
    <path d="M6.4 -63.85 L6.85 -63.85 7.75 -63.85 7.8 -63.85 8.6 -63.95 8.7 -63.85 8.75 -63.4 Q8.65 -62.75 8.05 -62.4 7.2 -61.85 6.5 -62.55 6.15 -62.85 6.2 -63.3 L6.3 -63.55 6.25 -63.6 6.3 -63.8 6.4 -63.85 M-2.3 9.15 Q-3.8 9.25 -4.1 7.85 -4.7 4.9 -2.15 4.35 0.7 4.65 -0.15 7.35 -0.65 9.0 -2.3 9.15 M-0.7 31.75 Q1.3 31.95 0.55 33.85 0.15 35.0 -1.1 34.5 -2.35 34.05 -2.0 32.7 L-1.9 32.5 -0.7 31.75" fill="#00cccc" fill-rule="evenodd" stroke="none"/>
    <path d="M8.6 -63.95 Q9.55 -64.15 10.25 -63.15 10.4 -62.1 9.3 -61.45 7.45 -60.95 6.1 -61.95 5.95 -61.95 5.8 -62.1 L5.5 -62.45 Q5.2 -62.8 5.3 -63.3 5.35 -63.65 5.75 -63.75 L6.4 -63.85 6.3 -63.8 6.25 -63.6 6.3 -63.55 6.2 -63.3 Q6.15 -62.85 6.5 -62.55 7.2 -61.85 8.05 -62.4 8.65 -62.75 8.75 -63.4 L8.7 -63.85 8.6 -63.95 M-5.85 4.4 L-5.75 4.35 Q-3.95 3.65 -1.95 3.4 0.45 3.0 2.95 3.3 L3.45 3.4 3.55 3.5 Q4.15 4.0 4.45 4.85 6.45 10.25 1.1 12.65 -2.0 13.1 -4.0 11.7 L-4.3 11.05 -4.4 10.9 -4.95 9.7 -4.95 9.65 -5.25 8.8 -6.3 5.3 -5.85 4.4 M-2.3 9.15 Q-0.65 9.0 -0.15 7.35 0.7 4.65 -2.15 4.35 -4.7 4.9 -4.1 7.85 -3.8 9.25 -2.3 9.15 M-0.7 31.75 L0.45 31.5 Q3.15 31.8 2.85 34.5 2.75 35.65 1.75 36.3 0.7 37.0 -0.25 37.0 -1.45 36.9 -2.45 35.7 -3.2 34.75 -2.7 33.65 L-2.25 32.85 -1.9 32.5 -2.0 32.7 Q-2.35 34.05 -1.1 34.5 0.15 35.0 0.55 33.85 1.3 31.95 -0.7 31.75" fill="#009966" fill-rule="evenodd" stroke="none"/>
    <path d="M6.8 -56.45 L6.4 -56.3 Q5.15 -56.95 4.15 -56.05 L3.4 -55.6 3.2 -55.55 2.2 -55.55 2.15 -55.6 1.95 -55.65 2.2 -55.95 3.35 -57.2 2.65 -57.65 2.6 -57.7 2.4 -57.8 2.1 -57.9 1.95 -58.0 1.65 -58.1 -0.2 -58.4 Q-0.8 -58.25 -1.25 -57.6 -1.65 -57.15 -2.0 -57.25 L-2.3 -57.4 Q-1.85 -57.7 -1.85 -58.25 -0.9 -59.9 0.75 -59.7 L0.65 -60.05 0.6 -60.1 0.6 -60.2 1.25 -59.7 Q2.65 -57.9 4.75 -57.05 5.75 -56.6 6.8 -56.45 M9.45 -55.65 Q8.8 -55.7 8.2 -56.15 L7.8 -56.4 7.85 -56.4 9.65 -56.15 9.5 -56.1 9.45 -56.1 10.0 -55.7 10.0 -55.65 9.45 -55.65 M8.1 -51.6 L8.5 -50.65 8.3 -50.05 8.25 -50.05 7.85 -49.45 7.3 -49.0 7.1 -48.9 7.0 -48.8 6.85 -48.85 Q5.45 -49.35 4.25 -50.2 3.15 -51.2 1.7 -51.3 L-1.1 -51.85 Q-0.15 -52.9 1.0 -52.35 2.15 -51.75 3.35 -51.7 L6.1 -50.0 Q6.8 -49.9 7.2 -50.75 L7.3 -51.85 Q7.95 -52.2 8.1 -51.6 M1.4 -49.25 L0.85 -49.45 0.7 -49.5 0.6 -49.55 0.0 -49.7 -0.6 -49.75 -1.05 -49.75 -2.05 -49.55 -2.1 -49.5 Q-2.35 -49.25 -2.2 -48.8 L-1.85 -48.2 3.8 -48.05 1.9 -49.05 1.4 -49.25 M-3.8 -33.55 L-3.0 -32.7 -2.65 -32.3 -2.1 -31.7 -0.8 -30.15 -0.7 -30.0 -0.8 -29.95 -1.1 -29.8 -1.3 -29.65 -2.75 -28.95 -2.7 -29.0 -2.8 -29.95 -2.85 -30.45 -3.45 -32.8 -3.75 -33.25 -3.8 -33.55 M0.15 -29.2 L0.15 -29.15 0.1 -29.15 0.15 -29.2 M0.6 -28.9 L0.8 -28.85 0.75 -28.8 0.7 -28.85 0.6 -28.9 M5.65 -25.85 L5.15 -26.4 6.95 -26.15 6.9 -26.15 6.85 -26.15 6.9 -26.1 7.95 -24.9 Q8.5 -24.25 8.05 -23.35 L7.7 -23.1 8.45 -22.15 8.3 -22.05 7.5 -21.65 7.5 -21.6 6.05 -21.15 5.9 -21.65 6.0 -21.2 5.75 -21.2 5.7 -21.2 5.3 -21.3 5.3 -21.35 5.2 -21.7 Q5.2 -22.95 5.95 -23.85 L5.9 -24.9 5.85 -25.05 5.65 -25.85 M9.9 -26.05 L9.6 -26.85 9.8 -27.05 10.25 -26.9 10.3 -26.75 10.35 -24.75 9.9 -26.05 M11.8 -28.65 L11.85 -28.8 12.15 -29.45 12.5 -30.15 12.65 -30.7 12.85 -31.3 12.95 -31.45 Q13.9 -30.7 14.0 -29.55 L14.0 -29.2 14.0 -29.05 14.0 -28.6 14.0 -28.5 14.05 -28.1 13.75 -27.6 13.6 -27.3 13.35 -26.75 13.3 -26.8 13.1 -27.2 Q12.75 -28.25 12.0 -28.85 L11.8 -28.65 M-1.6 -20.55 L-6.3 -21.1 -6.45 -21.2 Q-6.9 -23.1 -6.45 -24.9 L-6.4 -25.05 -6.35 -25.25 -6.25 -25.45 Q-5.8 -25.55 -5.4 -25.8 L-5.35 -25.85 -5.2 -26.15 -3.65 -26.6 -2.85 -26.75 -3.2 -25.65 -3.65 -25.05 -4.35 -24.15 Q-4.15 -22.5 -3.45 -20.9 L-2.7 -20.9 Q-3.2 -23.05 -2.2 -24.7 L-2.15 -24.85 Q-2.4 -23.65 -1.9 -22.45 -1.5 -21.55 -1.6 -20.55 M-14.25 -28.1 Q-15.1 -30.05 -14.8 -32.15 L-14.7 -33.0 -14.55 -32.95 Q-14.5 -31.95 -14.05 -31.05 L-13.7 -31.7 Q-13.0 -32.65 -12.55 -33.7 L-12.45 -34.3 -12.35 -34.75 Q-11.95 -36.65 -10.35 -37.8 L-10.55 -39.9 -10.55 -40.1 -10.55 -40.25 -10.5 -40.3 -9.95 -40.4 -9.5 -40.45 -8.9 -40.2 -9.05 -39.95 -9.25 -39.55 -9.3 -39.55 -9.45 -39.0 -9.6 -38.45 -9.6 -38.3 -9.6 -38.25 -10.1 -36.85 -10.55 -36.4 -10.65 -36.3 -10.7 -35.55 -11.0 -33.0 -11.1 -32.35 -10.3 -32.75 -10.05 -32.9 -9.45 -33.5 -9.4 -33.55 -9.1 -34.2 -9.05 -34.65 -9.0 -35.0 -8.8 -36.4 Q-8.45 -37.45 -7.5 -38.15 L-7.15 -39.55 -6.85 -40.1 -6.4 -40.1 -6.4 -40.0 -6.35 -39.95 -6.3 -39.7 -6.3 -38.9 -6.45 -38.4 -6.95 -37.7 -6.95 -37.65 -6.9 -37.4 -6.8 -36.9 -7.4 -37.15 -7.45 -37.15 -7.95 -36.2 -8.0 -35.65 -7.95 -35.4 -7.95 -35.3 -8.05 -35.05 Q-8.3 -33.8 -9.1 -32.85 L-9.75 -32.25 -9.8 -32.2 -13.15 -29.2 -13.9 -28.45 -13.9 -28.5 -13.9 -28.4 -14.25 -28.1 M-5.5 -51.6 L-5.55 -51.7 -6.75 -53.2 -7.05 -53.55 -7.75 -54.3 -7.85 -54.95 -7.65 -55.4 -6.05 -57.65 -5.55 -58.25 -5.15 -58.65 -5.1 -58.65 -5.0 -58.7 -4.95 -58.7 -4.95 -58.75 Q-4.8 -58.6 -4.9 -58.3 L-5.05 -57.9 Q-5.8 -56.55 -5.45 -55.05 -5.1 -53.6 -5.35 -52.15 L-5.5 -51.6 M2.55 -46.15 L0.15 -46.2 -0.05 -46.3 -1.3 -46.75 Q-2.25 -47.15 -2.7 -48.05 L-2.8 -49.05 -2.55 -49.55 -2.45 -49.45 -2.3 -49.65 Q-1.55 -50.35 -0.2 -50.35 L4.9 -48.8 5.0 -47.7 Q4.0 -47.25 3.1 -46.55 L2.75 -46.25 2.6 -46.15 2.55 -46.15 M-6.2 -33.7 L-6.25 -33.7 -6.35 -34.45 -6.2 -33.7" fill="#533022" fill-rule="evenodd" stroke="none"/>
    <path d="M3.4 -55.6 L4.15 -56.05 Q5.15 -56.95 6.4 -56.3 L6.8 -56.45 7.8 -56.4 8.2 -56.15 Q8.8 -55.7 9.45 -55.65 L7.3 -55.25 5.45 -55.3 3.9 -55.4 3.55 -55.55 3.4 -55.6 M-2.0 -57.25 Q-1.65 -57.15 -1.25 -57.6 -0.8 -58.25 -0.2 -58.4 L1.65 -58.1 1.5 -57.95 1.5 -57.9 0.5 -57.35 Q-0.35 -56.65 -0.55 -55.55 L-0.55 -54.8 -0.35 -54.65 Q0.65 -54.45 1.4 -55.05 L1.45 -55.0 1.3 -54.95 4.3 -54.2 3.75 -54.35 5.35 -53.9 5.85 -53.8 7.15 -53.4 9.45 -53.65 9.6 -53.65 10.25 -54.0 10.8 -54.05 11.3 -54.2 12.45 -54.1 12.5 -53.85 12.55 -53.75 12.55 -53.7 11.95 -53.1 9.85 -51.5 9.75 -51.4 9.45 -52.15 9.45 -50.75 8.9 -51.1 8.6 -51.3 8.1 -51.6 Q7.95 -52.2 7.3 -51.85 L7.2 -50.75 Q6.8 -49.9 6.1 -50.0 L3.35 -51.7 Q2.15 -51.75 1.0 -52.35 -0.15 -52.9 -1.1 -51.85 L1.7 -51.3 Q3.15 -51.2 4.25 -50.2 5.45 -49.35 6.85 -48.85 L6.75 -48.0 6.8 -47.6 6.45 -47.45 4.75 -46.25 4.7 -46.2 4.05 -46.15 Q3.6 -46.0 3.3 -45.65 L3.3 -45.6 3.2 -45.45 -1.1 -44.95 -1.65 -45.05 -1.7 -45.0 -1.9 -44.65 Q-1.9 -44.15 -1.35 -43.9 L-1.2 -43.8 -0.4 -42.95 -0.25 -42.85 -1.35 -41.65 -1.45 -41.9 -1.95 -42.6 -2.3 -42.7 Q-3.55 -43.65 -3.85 -44.75 L-3.95 -46.15 Q-3.65 -48.1 -4.05 -50.0 L-3.95 -50.15 -2.75 -51.9 Q-2.1 -52.75 -2.5 -54.05 -2.6 -55.0 -3.05 -55.85 L-2.9 -56.25 -2.5 -56.7 -2.3 -56.95 -2.0 -57.25 M9.5 -50.75 L9.45 -50.75 9.5 -50.75 M-4.55 -38.5 L-4.75 -37.7 -4.7 -37.2 -4.7 -36.65 Q-4.8 -35.15 -5.65 -33.85 L-5.8 -33.6 -6.2 -33.7 -6.35 -34.45 -6.25 -33.7 -5.95 -32.5 -5.95 -32.35 -6.0 -31.95 -6.0 -31.85 -6.0 -31.6 -5.9 -30.95 -5.85 -30.9 -5.85 -30.85 -5.8 -30.8 Q-5.45 -29.8 -5.85 -29.0 L-5.95 -28.85 Q-7.75 -27.85 -7.9 -25.9 L-8.1 -25.85 -8.1 -25.75 -8.15 -25.6 -8.2 -25.5 -8.25 -25.45 -8.35 -25.45 -8.4 -25.45 -8.45 -25.5 -8.55 -25.55 -8.55 -25.65 -8.55 -25.7 -8.5 -25.85 Q-9.05 -26.95 -8.85 -28.2 L-9.4 -27.65 -9.55 -27.7 -9.8 -27.9 -10.0 -28.1 -10.1 -28.05 -10.3 -28.25 -10.8 -28.65 -11.45 -28.35 -12.05 -27.75 -12.5 -27.35 -12.45 -27.0 Q-11.45 -26.15 -11.8 -24.7 L-11.9 -24.65 Q-13.4 -26.0 -14.35 -28.05 L-14.25 -28.1 -13.9 -28.4 -13.9 -28.45 -13.15 -29.2 -9.8 -32.2 -9.75 -32.25 -9.1 -32.85 Q-8.3 -33.8 -8.05 -35.05 L-7.95 -35.3 -7.95 -35.4 -8.0 -35.65 -7.95 -36.2 -7.45 -37.15 -7.4 -37.15 -6.8 -36.9 -6.9 -37.4 -6.95 -37.65 -6.95 -37.7 -6.45 -38.4 -6.3 -38.9 -6.3 -39.7 -6.35 -39.95 -6.4 -40.0 -6.4 -40.1 -6.85 -40.1 -7.15 -39.55 -7.5 -38.15 Q-8.45 -37.45 -8.8 -36.4 L-9.0 -35.0 -9.05 -34.65 -9.1 -34.2 -9.4 -33.55 -9.45 -33.5 -10.05 -32.9 -10.3 -32.75 -11.1 -32.35 -11.0 -33.0 -10.7 -35.55 -10.5 -36.4 -10.55 -36.4 -10.1 -36.85 -9.6 -38.25 -9.6 -38.3 -9.6 -38.45 -9.45 -39.0 -9.3 -39.55 -9.25 -39.55 -8.85 -40.0 -8.4 -40.4 -8.35 -40.4 -8.05 -40.5 -7.9 -40.55 -7.7 -40.65 -7.45 -40.75 -7.0 -40.95 -6.5 -41.35 -6.25 -41.4 -6.05 -41.5 -5.95 -41.6 -5.55 -41.95 -5.0 -42.45 -4.9 -42.6 -4.75 -42.4 -4.6 -42.2 -4.45 -41.95 -4.45 -41.9 -4.4 -40.95 -4.45 -39.15 -4.5 -38.95 -4.6 -38.45 -4.55 -38.5 M-4.05 -34.1 L-3.8 -33.55 -3.75 -33.25 -3.45 -32.8 -2.85 -30.45 -2.8 -29.95 -2.7 -29.0 -2.75 -28.95 -1.3 -29.65 -1.1 -29.8 -0.8 -29.95 -0.7 -30.0 -0.65 -30.05 -0.2 -29.6 -0.3 -29.5 -0.55 -29.2 -0.7 -29.0 -0.85 -28.75 -1.35 -28.0 -1.75 -27.3 -1.8 -27.1 Q-2.4 -25.95 -2.6 -24.6 L-2.3 -24.6 -1.65 -26.2 -1.65 -26.25 -1.35 -26.8 -1.2 -27.15 -1.1 -27.35 -0.95 -27.65 -0.9 -27.7 -0.7 -28.1 -0.6 -28.25 -0.4 -28.55 -0.35 -28.6 -0.3 -28.7 -0.15 -28.9 -0.05 -29.05 0.0 -29.2 0.1 -29.15 0.45 -29.0 0.6 -28.9 0.7 -28.85 0.75 -28.8 1.25 -28.1 1.15 -27.35 1.1 -27.35 1.1 -27.3 1.05 -27.2 1.0 -27.15 0.9 -26.85 0.75 -26.5 0.5 -26.35 -0.25 -24.15 -0.2 -23.95 Q-0.5 -23.45 -0.4 -22.75 0.3 -22.2 0.2 -21.5 L0.15 -20.4 -0.25 -20.45 -1.6 -20.55 Q-1.5 -21.55 -1.9 -22.45 -2.4 -23.65 -2.15 -24.85 L-2.2 -24.85 -2.2 -24.7 Q-3.2 -23.05 -2.7 -20.9 L-3.45 -20.9 Q-4.15 -22.5 -4.35 -24.15 L-3.65 -25.05 -3.2 -25.65 -2.85 -26.75 -3.65 -26.6 -5.2 -26.15 -5.75 -25.85 Q-6.95 -26.0 -6.45 -27.1 L-6.15 -27.5 -4.95 -27.9 -4.95 -27.95 -5.0 -28.6 -5.0 -28.65 -4.95 -30.7 -4.95 -31.05 -5.1 -32.3 -5.1 -32.95 Q-4.95 -33.75 -4.25 -34.35 L-4.2 -34.3 -4.1 -34.15 -4.05 -34.1 M2.25 -27.45 L2.3 -27.45 2.45 -27.2 3.25 -26.7 3.3 -26.7 3.3 -26.1 Q3.1 -24.55 2.25 -23.25 L2.0 -23.05 1.85 -23.05 Q0.8 -23.2 0.9 -24.25 L1.0 -24.65 1.5 -25.05 1.55 -25.1 1.75 -25.65 1.75 -25.7 1.75 -25.8 1.75 -25.9 Q1.7 -26.75 2.15 -27.3 L2.25 -27.45 M11.05 -27.9 L11.8 -28.65 12.0 -28.85 Q12.75 -28.25 13.1 -27.2 L13.3 -26.8 13.05 -26.2 12.65 -25.7 12.5 -25.7 12.5 -25.65 12.45 -25.55 12.45 -25.5 12.05 -25.95 11.35 -27.3 11.05 -27.9 M-6.45 -21.2 L-6.4 -21.15 -6.5 -21.15 -6.45 -21.2 M-8.35 -21.9 L-8.65 -22.1 -8.55 -22.35 -8.35 -21.9 M-14.45 -34.45 L-14.2 -34.7 -13.8 -35.1 -13.75 -35.1 -13.75 -35.2 -12.1 -37.6 -11.55 -38.7 -11.4 -39.05 -11.35 -39.35 -11.15 -40.6 -11.1 -40.8 -11.1 -40.9 -10.75 -40.6 -10.55 -40.25 -10.55 -40.1 -10.55 -39.9 -10.35 -37.8 Q-11.95 -36.65 -12.35 -34.75 L-12.45 -34.3 -12.55 -33.7 Q-13.0 -32.65 -13.7 -31.7 L-14.05 -31.05 Q-14.5 -31.95 -14.55 -32.95 L-14.5 -33.05 -14.45 -34.45 M2.55 -46.15 L2.45 -46.05 3.1 -46.45 3.1 -46.55 Q4.0 -47.25 5.0 -47.7 L4.9 -48.8 -0.2 -50.35 Q-1.55 -50.35 -2.3 -49.65 L-2.55 -49.55 -2.8 -49.05 -2.7 -48.05 Q-2.25 -47.15 -1.3 -46.75 L-0.05 -46.3 0.15 -46.2 2.55 -46.15 M6.9 -26.15 L6.9 -26.1 6.85 -26.15 6.9 -26.15 M-4.9 -30.1 L-4.85 -30.1 -4.9 -30.1" fill="#a35e43" fill-rule="evenodd" stroke="none"/>
    <path d="M2.4 -57.8 L2.6 -57.7 2.65 -57.65 3.35 -57.2 2.2 -55.95 2.15 -56.2 2.15 -56.7 2.2 -57.05 Q2.1 -57.35 2.3 -57.55 L1.9 -58.0 1.95 -58.0 2.1 -57.9 2.4 -57.8 M10.0 -55.7 L9.45 -56.1 9.5 -56.1 Q11.75 -56.3 12.95 -58.25 L14.45 -55.1 14.35 -55.1 14.35 -54.95 14.25 -54.35 14.3 -54.35 Q14.55 -53.95 14.45 -53.4 L13.4 -52.95 13.15 -54.5 12.95 -55.15 12.7 -55.75 11.0 -55.55 10.0 -55.7 M1.45 -55.0 L1.95 -55.2 2.95 -55.25 3.0 -55.25 3.15 -55.15 Q5.3 -54.1 7.55 -54.55 L7.6 -54.55 9.4 -54.45 9.7 -54.55 10.45 -54.75 11.5 -54.85 10.65 -54.25 10.25 -54.0 9.6 -53.65 9.45 -53.65 7.15 -53.4 5.85 -53.8 4.3 -54.2 1.3 -54.95 1.45 -55.0 M9.75 -51.4 L9.7 -50.75 9.5 -50.75 9.45 -50.75 9.45 -52.15 9.75 -51.4 M6.8 -47.6 L6.95 -47.65 7.65 -47.8 8.85 -47.65 9.2 -47.55 9.15 -45.8 7.3 -45.65 7.3 -45.7 5.05 -45.6 4.55 -45.6 3.45 -45.3 3.4 -45.35 3.3 -45.6 3.3 -45.65 Q3.6 -46.0 4.05 -46.15 L4.7 -46.2 4.75 -46.25 6.45 -47.45 6.8 -47.6 M2.25 -43.9 L2.2 -43.9 1.35 -43.3 0.55 -42.5 0.35 -42.3 -0.65 -40.75 -1.0 -41.15 -1.3 -41.55 -1.35 -41.65 -0.25 -42.85 -0.4 -42.95 -1.2 -43.8 -1.35 -43.9 Q-1.9 -44.15 -1.9 -44.65 L-1.7 -45.0 -1.65 -45.05 -1.1 -44.95 -1.25 -44.9 -1.45 -44.85 Q0.05 -43.6 2.25 -43.9 M-4.7 -36.65 Q-4.4 -36.2 -4.25 -35.55 L-3.95 -34.1 -3.9 -33.8 -4.05 -34.1 -4.1 -34.15 -4.2 -34.3 -4.25 -34.35 Q-4.95 -33.75 -5.1 -32.95 L-5.1 -32.3 -4.95 -31.05 -4.95 -30.7 -5.0 -28.65 -5.0 -28.6 -4.95 -27.95 -4.95 -27.9 -6.15 -27.5 -6.75 -27.35 Q-7.15 -26.25 -7.95 -25.5 L-7.9 -25.9 Q-7.75 -27.85 -5.95 -28.85 L-5.85 -29.0 Q-5.45 -29.8 -5.8 -30.8 L-5.85 -30.85 -5.85 -30.9 -5.9 -30.95 -6.0 -31.6 -6.0 -31.85 -6.0 -31.95 -5.95 -32.35 -5.95 -32.5 -6.25 -33.7 -6.2 -33.7 -5.8 -33.6 -5.65 -33.85 Q-4.8 -35.15 -4.7 -36.65 M0.8 -28.85 L1.4 -28.35 1.65 -28.05 1.7 -28.05 2.05 -27.8 2.1 -27.6 2.25 -27.45 2.15 -27.3 Q1.7 -26.75 1.75 -25.9 L1.75 -25.8 1.55 -25.1 1.5 -25.05 1.0 -24.65 0.9 -24.25 Q0.8 -23.2 1.85 -23.05 L2.0 -23.05 Q2.3 -22.2 2.1 -21.2 L2.1 -21.1 2.2 -21.15 2.7 -21.4 2.95 -22.3 3.0 -22.45 4.15 -25.65 4.5 -26.5 4.55 -26.65 4.75 -26.55 4.65 -25.8 Q4.3 -23.45 3.45 -21.0 L3.3 -20.6 4.25 -20.75 3.65 -20.4 0.15 -20.4 0.2 -21.5 Q0.3 -22.2 -0.4 -22.75 -0.5 -23.45 -0.2 -23.95 L-0.25 -24.15 0.5 -26.35 0.75 -26.5 0.9 -26.85 1.0 -27.15 1.05 -27.2 1.1 -27.3 1.15 -27.35 1.25 -28.1 0.75 -28.8 0.8 -28.85 M10.25 -26.9 L10.25 -27.0 11.05 -27.9 11.35 -27.3 12.05 -25.95 12.45 -25.5 10.65 -23.9 10.7 -23.95 10.65 -23.85 10.25 -23.3 Q9.95 -22.95 9.55 -22.85 L9.45 -22.8 9.5 -23.0 9.45 -23.3 9.2 -23.7 Q10.0 -23.5 10.45 -24.3 L10.55 -24.55 10.75 -25.25 Q10.9 -26.3 10.3 -26.75 L10.25 -26.9 M12.95 -31.45 L13.65 -33.5 13.8 -33.35 14.4 -32.4 14.35 -32.2 14.5 -31.4 14.25 -30.05 14.0 -29.55 14.3 -29.45 14.25 -29.2 14.05 -28.6 14.0 -28.6 14.0 -29.05 14.0 -29.2 14.0 -29.55 Q13.9 -30.7 12.95 -31.45 M-8.65 -22.1 L-10.85 -23.5 -11.8 -24.65 -11.8 -24.7 Q-11.45 -26.15 -12.45 -27.0 L-12.5 -27.35 -12.05 -27.75 -11.45 -28.35 -10.8 -28.65 -10.3 -28.25 -10.1 -28.05 -10.0 -28.0 -10.0 -28.1 -9.8 -27.9 -9.55 -27.7 -9.4 -27.65 -8.85 -28.2 Q-9.05 -26.95 -8.5 -25.85 L-8.55 -25.7 -8.55 -25.65 -8.55 -25.55 -8.45 -25.5 -8.4 -25.45 -8.35 -24.85 Q-8.05 -23.6 -8.55 -22.35 L-8.65 -22.1 M-14.7 -33.0 L-14.6 -33.5 -14.55 -32.95 -14.7 -33.0 M-10.75 -40.6 L-10.7 -40.65 -9.15 -40.75 -7.05 -41.35 -6.45 -41.6 -5.85 -42.0 -5.7 -42.15 -5.05 -43.15 -4.9 -43.6 Q-4.75 -43.85 -4.45 -43.85 L-4.45 -43.9 Q-3.95 -43.75 -4.2 -43.3 L-4.4 -43.05 -4.75 -42.4 -4.9 -42.6 -5.0 -42.45 -5.55 -41.95 -5.95 -41.6 -6.05 -41.5 -6.25 -41.4 -6.5 -41.35 -7.0 -40.95 -7.45 -40.75 -7.7 -40.65 -7.75 -40.7 -7.8 -40.7 -7.9 -40.7 -7.9 -40.55 -8.05 -40.5 -8.35 -40.4 -8.4 -40.4 -8.85 -40.0 -9.05 -39.95 -8.9 -40.2 -9.5 -40.45 -9.95 -40.4 -10.5 -40.3 -10.55 -40.25 -10.75 -40.6 M3.1 -46.55 L3.1 -46.45 2.45 -46.05 2.55 -46.15 2.6 -46.15 2.75 -46.25 3.1 -46.55 M-2.55 -49.55 L-2.3 -49.65 -2.45 -49.45 -2.55 -49.55" fill="#71412f" fill-rule="evenodd" stroke="none"/>
    <path d="M0.6 -60.2 L0.6 -60.1 0.65 -60.05 0.75 -59.7 Q-0.9 -59.9 -1.85 -58.25 -1.85 -57.7 -2.3 -57.4 L-2.0 -57.25 -2.3 -56.95 -2.5 -56.7 -2.9 -56.25 -3.05 -55.85 Q-2.6 -55.0 -2.5 -54.05 -2.1 -52.75 -2.75 -51.9 L-3.95 -50.15 -4.05 -50.0 Q-3.65 -48.1 -3.95 -46.15 L-3.85 -44.75 Q-3.55 -43.65 -2.3 -42.7 L-1.95 -42.6 -1.45 -41.9 -1.35 -41.65 -1.3 -41.55 -1.0 -41.15 -1.65 -41.05 -2.0 -41.2 Q-3.15 -40.85 -3.8 -39.85 L-4.55 -38.5 -4.6 -38.45 -4.5 -38.95 -4.45 -39.15 -4.4 -40.95 -4.45 -41.9 -4.45 -41.95 -4.6 -42.2 -4.75 -42.4 -4.4 -43.05 -4.2 -43.3 Q-3.95 -43.75 -4.45 -43.9 L-4.45 -43.85 Q-4.75 -43.85 -4.9 -43.6 L-5.05 -43.15 -4.85 -43.85 -4.45 -46.1 Q-4.25 -47.45 -4.4 -48.8 -4.6 -50.35 -5.5 -51.6 L-5.35 -52.15 Q-5.1 -53.6 -5.45 -55.05 -5.8 -56.55 -5.05 -57.9 L-4.9 -58.3 Q-4.8 -58.6 -4.95 -58.75 -4.85 -59.6 -3.5 -60.45 L-0.95 -60.95 Q0.2 -61.05 0.6 -60.2 M1.65 -58.1 L1.95 -58.0 2.1 -57.9 2.4 -57.8 2.1 -57.9 1.95 -58.0 1.9 -58.0 2.3 -57.55 Q2.1 -57.35 2.2 -57.05 L2.15 -56.7 2.15 -56.2 2.2 -55.95 1.95 -55.65 2.15 -55.6 2.2 -55.55 3.2 -55.55 3.4 -55.6 3.55 -55.55 3.9 -55.4 5.45 -55.3 7.3 -55.25 9.45 -55.65 10.0 -55.65 10.0 -55.7 11.0 -55.55 12.7 -55.75 12.95 -55.15 13.15 -54.5 13.4 -52.95 Q11.1 -51.75 9.8 -49.45 L9.25 -48.35 9.2 -47.55 8.85 -47.65 7.65 -47.8 6.95 -47.65 6.8 -47.6 6.75 -48.0 6.85 -48.85 7.0 -48.8 7.1 -48.9 7.3 -49.0 7.85 -49.45 8.25 -50.05 8.3 -50.05 8.5 -50.65 8.1 -51.6 8.6 -51.3 8.9 -51.1 9.45 -50.75 9.5 -50.75 9.7 -50.75 9.75 -51.4 9.85 -51.5 11.95 -53.1 12.55 -53.7 12.55 -53.75 12.5 -53.85 12.45 -54.1 11.3 -54.2 10.8 -54.05 10.25 -54.0 10.65 -54.25 11.5 -54.85 10.45 -54.75 9.7 -54.55 9.4 -54.45 7.6 -54.55 7.55 -54.55 Q5.3 -54.1 3.15 -55.15 L3.0 -55.25 2.95 -55.25 1.95 -55.2 1.45 -55.0 1.4 -55.05 Q0.65 -54.45 -0.35 -54.65 L-0.55 -54.8 -0.55 -55.55 Q-0.35 -56.65 0.5 -57.35 L1.5 -57.9 1.5 -57.95 1.65 -58.1 M4.3 -54.2 L5.85 -53.8 5.35 -53.9 3.75 -54.35 4.3 -54.2 M3.45 -45.3 L2.6 -44.45 2.25 -43.9 Q0.05 -43.6 -1.45 -44.85 L-1.25 -44.9 -1.1 -44.95 3.2 -45.45 3.3 -45.6 3.4 -45.35 3.45 -45.3 M2.2 -43.9 L1.9 -43.6 1.35 -43.3 2.2 -43.9 M-0.3 -29.5 L-0.2 -29.5 0.15 -29.2 0.1 -29.15 0.0 -29.2 -0.05 -29.05 -0.15 -28.9 -0.3 -28.7 -0.35 -28.6 -0.4 -28.55 -0.6 -28.25 -0.7 -28.1 -0.9 -27.7 -0.95 -27.65 -1.1 -27.35 -1.2 -27.15 -1.35 -26.8 -1.65 -26.25 -1.65 -26.2 -2.3 -24.6 -2.6 -24.6 Q-2.4 -25.95 -1.8 -27.1 L-1.75 -27.3 -1.35 -28.0 -0.85 -28.75 -0.7 -29.0 -0.55 -29.2 -0.3 -29.5 M3.3 -26.7 L4.25 -26.7 4.55 -26.65 4.5 -26.5 4.15 -25.65 3.0 -22.45 2.95 -22.35 2.95 -22.3 2.7 -21.4 2.2 -21.15 2.1 -21.1 2.1 -21.2 Q2.3 -22.2 2.0 -23.05 L2.25 -23.25 Q3.1 -24.55 3.3 -26.1 L3.3 -26.7 M4.75 -26.55 L5.65 -25.85 5.85 -25.05 5.9 -24.9 5.95 -23.85 Q5.2 -22.95 5.2 -21.7 L5.3 -21.35 5.3 -21.3 5.35 -21.0 5.05 -20.95 4.55 -20.8 4.25 -20.75 3.3 -20.6 3.45 -21.0 Q4.3 -23.45 4.65 -25.8 L4.75 -26.55 M6.95 -26.15 L8.1 -26.5 8.5 -26.65 9.45 -26.85 9.6 -26.9 9.9 -26.05 10.35 -24.75 10.3 -26.75 Q10.9 -26.3 10.75 -25.25 L10.55 -24.55 10.45 -24.3 Q10.0 -23.5 9.2 -23.7 L9.45 -23.3 9.5 -23.0 9.45 -22.8 Q9.3 -22.2 8.55 -22.0 L8.45 -22.15 7.7 -23.1 8.05 -23.35 Q8.5 -24.25 7.95 -24.9 L6.9 -26.1 6.9 -26.15 6.95 -26.15 M14.05 -28.6 L14.0 -28.5 14.0 -28.6 14.05 -28.6 M-6.5 -21.15 L-6.75 -21.2 -6.9 -21.25 -7.85 -21.65 -8.35 -21.9 -8.55 -22.35 Q-8.05 -23.6 -8.35 -24.85 L-8.4 -25.45 -8.35 -25.45 -8.25 -25.45 -8.2 -25.5 -8.15 -25.6 -8.1 -25.75 -8.1 -25.85 -7.9 -25.9 -7.95 -25.5 Q-7.15 -26.25 -6.75 -27.35 L-6.15 -27.5 -6.45 -27.1 Q-6.95 -26.0 -5.75 -25.85 L-5.2 -26.15 -5.35 -25.85 -5.4 -25.8 Q-5.8 -25.55 -6.25 -25.45 L-6.3 -25.45 -6.4 -25.05 -6.45 -24.9 Q-6.9 -23.1 -6.45 -21.2 L-6.5 -21.15 M-11.4 -49.8 Q-10.05 -48.55 -9.95 -46.45 -9.95 -45.65 -10.55 -45.1 L-10.8 -45.1 Q-11.25 -45.55 -11.95 -45.7 L-12.0 -45.75 -12.05 -45.8 -13.0 -47.05 -13.2 -47.4 -13.5 -48.65 -13.4 -48.85 -13.25 -49.15 Q-12.55 -50.1 -11.4 -49.8 M-7.7 -40.65 L-7.9 -40.55 -7.9 -40.7 -7.8 -40.7 -7.75 -40.7 -7.7 -40.65 M-8.85 -40.0 L-9.25 -39.55 -9.05 -39.95 -8.85 -40.0 M-10.55 -36.4 L-10.5 -36.4 -10.7 -35.55 -10.65 -36.3 -10.55 -36.4 M-10.0 -28.1 L-10.0 -28.0 -10.1 -28.05 -10.0 -28.1" fill="#91533c" fill-rule="evenodd" stroke="none"/>
    <path d="M0.0 -49.7 L0.6 -49.55 0.7 -49.5 0.85 -49.45 1.4 -49.25 1.3 -48.8 1.05 -48.55 Q0.3 -48.3 -0.05 -48.85 L-0.15 -49.45 0.0 -49.7 M1.9 -49.05 L3.8 -48.05 -1.85 -48.2 -2.2 -48.8 Q-2.35 -49.25 -2.1 -49.5 L-2.05 -49.55 -1.05 -49.75 -0.6 -49.75 -0.7 -49.6 Q-1.15 -48.5 -0.05 -48.0 L0.25 -47.85 Q0.8 -47.6 1.35 -47.85 1.85 -48.05 1.9 -48.55 L1.9 -49.05" fill="#66b4d9" fill-rule="evenodd" stroke="none"/>
    <path d="M14.6 -47.7 Q14.45 -49.0 15.65 -49.45 16.95 -50.0 17.85 -51.0 L19.65 -53.1 Q20.7 -52.4 20.65 -51.3 L20.6 -50.7 18.8 -48.9 17.85 -49.25 Q16.85 -48.9 16.45 -47.8 L14.6 -47.5 14.6 -47.7 M30.8 -18.1 L31.65 -19.0 31.8 -18.85 32.05 -18.9 32.5 -19.3 33.85 -20.55 34.05 -20.75 34.1 -20.75 35.5 -21.05 36.15 -22.25 36.25 -23.2 37.25 -24.05 Q38.5 -24.9 39.65 -25.9 L39.85 -26.15 Q40.05 -26.8 39.75 -27.5 39.2 -28.8 38.15 -29.8 L38.05 -29.9 38.0 -29.95 38.1 -30.0 38.2 -30.15 38.9 -30.25 40.5 -29.55 41.9 -28.65 Q43.3 -27.5 43.9 -25.6 L43.95 -25.5 43.4 -24.8 42.85 -24.0 41.75 -22.85 40.6 -21.75 40.2 -21.5 39.6 -20.85 Q39.2 -20.35 38.7 -20.1 37.5 -19.25 36.4 -18.25 34.9 -16.9 33.0 -16.25 32.5 -16.4 32.15 -16.75 L31.9 -17.0 31.8 -17.1 30.9 -18.0 30.8 -18.1 M-29.4 -1.2 L-29.5 -1.65 -29.7 -2.25 -29.8 -3.25 -30.0 -4.7 -30.0 -5.4 -29.95 -6.45 -29.9 -6.5 -29.75 -7.95 -29.2 -10.25 -29.15 -10.35 -29.05 -10.6 -29.05 -10.65 -28.6 -11.65 -27.55 -13.95 -25.6 -16.8 -25.5 -17.0 -23.85 -19.1 -21.55 -21.25 -21.15 -21.4 Q-20.7 -21.45 -20.4 -21.8 L-19.0 -21.7 -18.2 -21.45 -16.35 -20.55 -13.3 -18.2 -12.15 -17.0 -10.65 -15.5 -10.2 -14.6 Q-8.3 -12.35 -5.8 -10.65 -4.5 -9.7 -2.85 -9.35 L-2.35 -9.3 3.7 -9.5 4.6 -9.8 Q7.15 -10.55 8.95 -12.6 L9.55 -13.35 9.05 -13.0 10.8 -14.4 11.85 -15.5 13.35 -17.0 14.55 -18.2 15.75 -18.8 20.6 -18.95 21.35 -18.35 22.5 -17.5 22.65 -17.45 23.15 -17.0 25.1 -15.15 26.1 -14.05 Q28.25 -11.6 28.95 -8.5 29.55 -5.9 29.05 -3.3 L28.85 -2.4 28.75 -2.15 28.15 -0.75 Q26.85 1.55 24.35 2.6 17.45 5.55 10.35 3.25 L5.6 1.6 2.95 0.55 1.4 0.3 1.35 0.3 -0.75 0.15 -3.45 0.55 Q-6.7 1.25 -9.5 2.95 L-11.0 3.25 -12.5 3.65 -16.9 4.15 Q-20.25 3.85 -23.45 2.95 L-24.9 2.35 -27.05 1.1 Q-28.2 0.3 -29.05 -0.75 L-29.4 -1.2 M18.45 -12.8 Q19.75 -15.5 16.9 -16.05 12.0 -14.9 9.9 -10.0 8.85 -7.65 10.3 -5.9 L11.45 -5.85 12.6 -6.45 15.15 -9.25 15.6 -9.65 Q17.5 -10.8 18.45 -12.8 M35.45 -7.6 L36.95 -7.85 36.5 -7.75 Q36.5 -7.3 37.05 -7.4 L37.55 -7.5 41.5 -8.15 45.75 -9.05 49.3 -9.85 49.35 -9.9 49.55 -10.2 49.75 -11.65 49.5 -13.1 48.8 -14.8 48.6 -14.8 49.05 -14.85 50.4 -15.3 51.05 -13.7 51.7 -11.25 Q51.95 -10.0 51.7 -8.7 51.65 -8.4 51.75 -8.2 L50.0 -7.55 48.7 -7.2 48.7 -7.25 47.5 -7.15 47.6 -6.9 44.35 -6.3 36.7 -5.7 Q36.25 -5.75 35.95 -5.95 L35.95 -6.2 35.45 -7.6 M-33.55 -29.75 L-31.45 -28.2 -30.65 -27.45 Q-30.05 -27.25 -29.65 -26.55 L-29.4 -26.2 -29.35 -26.1 Q-28.45 -24.85 -28.35 -23.2 L-28.5 -21.4 Q-28.7 -20.1 -29.6 -19.15 L-30.0 -18.35 -31.05 -17.0 -32.2 -15.3 -32.35 -15.05 -34.0 -12.45 -35.7 -9.0 -36.0 -8.3 -36.25 -7.8 -36.7 -7.4 -36.75 -7.35 -36.9 -7.25 Q-38.05 -6.9 -39.3 -7.25 L-39.8 -7.3 -41.7 -7.65 Q-44.25 -8.35 -46.35 -9.9 L-46.4 -9.9 -46.9 -10.3 -47.1 -10.45 -48.1 -11.55 -48.7 -12.6 Q-45.0 -11.8 -41.1 -12.7 L-41.05 -12.8 -40.6 -12.9 Q-39.2 -13.1 -37.95 -13.65 -35.9 -14.95 -34.8 -17.0 L-34.15 -18.4 Q-32.9 -21.9 -32.75 -25.6 -32.65 -27.85 -33.55 -29.75 M-33.8 3.1 L-33.65 4.35 -33.65 4.6 -33.65 4.7 Q-33.6 7.0 -34.1 9.2 L-34.2 9.5 -34.5 10.15 Q-34.9 10.8 -35.75 11.0 L-37.4 11.4 -40.25 11.35 -42.85 10.7 -43.2 10.6 -43.45 10.55 -45.05 10.1 -47.25 9.35 -47.8 9.05 -47.9 8.95 -48.0 8.85 -48.4 8.65 -48.5 8.6 Q-49.25 8.2 -49.65 7.6 L-50.0 7.15 -50.3 6.55 -50.15 6.65 -48.35 7.5 -40.85 7.3 Q-38.1 6.15 -37.9 3.1 -37.8 1.2 -38.3 -0.55 L-38.5 -1.1 -37.2 -1.05 -36.5 -1.05 -36.25 -1.05 Q-35.9 -0.9 -35.55 -1.05 L-35.15 -0.45 -35.05 -0.3 Q-34.3 0.95 -33.95 2.4 L-33.8 3.1 M-23.65 -5.9 L-22.5 -5.85 -21.35 -6.45 -18.8 -9.25 -18.35 -9.65 Q-16.45 -10.8 -15.5 -12.8 -14.2 -15.5 -17.05 -16.05 -21.95 -14.9 -24.05 -10.0 -25.1 -7.65 -23.65 -5.9 M-9.75 6.35 L-9.15 7.0 -8.85 7.25 -8.8 7.55 -8.4 8.45 -8.4 8.75 Q-9.25 10.05 -8.0 10.95 L-7.65 11.25 -7.0 11.85 -6.4 12.25 -5.9 12.85 -5.85 12.95 -5.75 13.1 -5.75 13.15 -5.85 13.5 -5.35 14.8 Q-5.15 15.6 -5.65 16.2 L-8.95 17.25 Q-10.5 17.8 -11.9 18.65 L-14.3 20.15 -14.4 20.2 -14.6 20.2 -14.95 20.3 Q-17.05 20.4 -18.75 19.55 L-19.85 18.55 -20.2 18.2 -20.5 17.85 -22.0 15.95 -23.6 13.65 -24.1 12.85 -24.3 12.55 -24.75 11.75 -24.65 11.85 -24.7 11.75 -24.8 11.4 -24.9 11.4 -25.0 11.15 -25.3 10.55 -25.65 9.9 -25.6 9.9 -27.1 6.15 -27.1 6.1 -27.4 5.4 -27.45 4.6 -27.55 3.9 -27.55 3.2 -27.55 3.0 -27.55 2.7 -26.5 3.45 -26.45 3.45 -25.0 4.25 Q-25.45 5.0 -25.3 5.9 L-25.25 6.1 Q-25.0 7.65 -24.15 8.9 L-23.55 9.65 -22.0 10.85 -21.45 11.2 -20.45 11.5 -19.15 11.4 -18.55 11.1 -18.25 10.75 -17.9 10.05 -17.85 10.05 -16.6 9.9 -15.25 9.65 -12.2 8.85 -10.8 8.25 -10.45 8.05 -10.4 8.0 -10.4 7.85 -10.35 7.75 Q-11.0 6.85 -12.0 6.25 L-12.0 6.2 -10.4 5.95 -9.75 6.35 M-13.5 16.15 L-9.6 14.4 -8.95 14.25 -8.7 14.15 -7.5 13.55 -7.15 13.4 -8.2 12.05 -8.35 11.75 -8.35 11.6 -9.35 11.85 -14.9 12.95 -16.0 13.15 -16.25 13.2 -19.35 13.45 -19.95 14.9 Q-20.05 15.8 -19.55 16.55 L-18.6 17.65 Q-17.2 18.85 -15.2 18.5 L-14.55 18.35 -14.4 18.25 -14.05 17.9 -14.0 17.85 -13.55 16.8 -13.5 16.15 M-22.75 11.05 L-22.7 11.05 -23.6 10.85 -22.75 11.05 M24.2 5.0 Q24.65 5.7 25.6 6.05 26.1 7.65 26.0 9.25 L24.9 10.8 Q23.6 11.9 21.8 12.1 21.4 12.45 21.3 12.95 21.15 13.95 22.1 14.4 L22.35 15.65 22.25 16.45 22.05 17.15 21.15 18.1 19.15 19.95 16.3 20.3 15.95 20.2 15.75 20.2 15.65 20.15 13.2 18.65 Q11.85 17.8 10.3 17.25 7.25 16.15 4.1 15.55 L4.9 14.3 5.3 14.3 5.15 13.9 5.6 12.95 6.5 10.9 6.8 10.9 Q6.8 10.25 7.1 9.75 L6.95 9.7 7.35 8.5 8.1 5.7 8.15 5.65 8.25 5.15 8.75 5.2 10.1 5.6 10.85 5.8 10.5 5.7 10.15 5.6 Q9.85 6.6 10.4 7.8 L10.9 8.7 Q11.75 10.0 13.45 10.3 L14.6 10.2 15.3 9.95 15.35 10.0 15.35 9.95 15.95 9.6 16.15 9.45 16.3 9.3 16.7 9.45 17.8 9.6 17.9 9.65 17.95 9.7 21.0 9.35 21.25 9.2 Q20.9 7.5 19.55 6.3 L19.25 5.95 20.35 5.8 20.75 5.75 24.0 5.05 24.05 5.1 24.1 5.05 24.2 5.0 M14.05 12.3 L12.25 11.9 11.95 11.85 10.25 11.4 9.2 11.15 9.1 11.2 Q7.25 12.9 8.1 14.9 L8.65 15.9 9.05 16.15 11.3 16.2 11.95 16.05 12.25 15.85 12.35 15.8 13.0 15.3 13.9 15.9 14.35 16.2 16.35 16.8 18.85 16.65 Q19.2 15.2 18.45 13.9 L17.9 13.05 14.05 12.3" fill="#990000" fill-rule="evenodd" stroke="none"/>
    <path d="M20.65 -51.3 Q21.55 -51.1 21.35 -49.95 L21.35 -49.9 19.25 -48.2 18.8 -48.9 20.6 -50.7 20.65 -51.3 M14.75 -46.1 L14.55 -46.45 Q14.35 -47.2 14.6 -47.7 L14.6 -47.5 16.45 -47.8 16.4 -47.7 Q16.25 -47.25 16.45 -46.9 L15.7 -46.75 Q15.0 -46.65 14.75 -46.1 M14.55 -18.2 Q15.9 -19.6 17.55 -20.55 L19.35 -21.45 20.2 -21.7 21.6 -21.8 21.9 -21.55 22.3 -21.4 22.4 -21.4 22.8 -21.25 25.05 -19.1 26.75 -17.0 26.85 -16.8 28.75 -13.95 29.85 -11.65 30.25 -10.65 30.25 -10.6 30.3 -10.35 30.4 -10.25 30.9 -8.55 31.0 -7.95 31.15 -6.5 31.15 -6.45 31.2 -5.4 31.2 -4.7 31.15 -4.15 31.0 -3.25 30.9 -2.25 30.75 -1.65 30.55 -1.05 29.2 1.2 29.2 1.25 28.55 1.85 Q25.85 3.9 22.5 4.55 L15.95 5.4 15.85 5.4 10.95 4.7 10.9 4.7 10.8 4.7 10.55 4.6 8.8 4.15 8.1 4.0 Q7.0 3.4 5.75 3.1 L4.6 2.75 2.55 2.3 -0.05 2.2 -3.3 2.7 -4.4 2.9 Q-5.45 3.15 -6.35 3.8 L-7.1 4.05 -7.55 4.15 -9.3 4.6 -9.6 4.7 -9.65 4.7 -9.7 4.7 -10.85 4.9 -14.6 5.4 -14.75 5.4 -21.25 4.55 Q-24.65 3.9 -27.35 1.85 L-28.0 1.25 -28.0 1.2 -29.35 -1.05 -29.4 -1.2 -29.05 -0.75 Q-28.2 0.3 -27.05 1.1 L-24.9 2.35 -23.45 2.95 Q-20.25 3.85 -16.9 4.15 L-12.5 3.65 -11.0 3.25 -9.5 2.95 Q-6.7 1.25 -3.45 0.55 L-0.75 0.15 1.35 0.3 1.4 0.3 2.95 0.55 5.6 1.6 10.35 3.25 Q17.45 5.55 24.35 2.6 26.85 1.55 28.15 -0.75 L28.75 -2.15 28.85 -2.4 29.05 -3.3 Q29.55 -5.9 28.95 -8.5 28.25 -11.6 26.1 -14.05 L25.1 -15.15 23.15 -17.0 22.65 -17.45 22.5 -17.5 21.35 -18.35 20.6 -18.95 15.75 -18.8 14.55 -18.2 M-10.65 -15.5 L-9.55 -14.4 -7.15 -12.6 Q-7.1 -12.2 -6.55 -12.1 L-6.3 -12.05 -4.9 -11.6 -4.65 -11.55 -2.15 -11.05 -1.45 -10.95 0.6 -10.95 2.65 -10.95 3.35 -11.05 5.9 -11.55 6.1 -11.6 7.55 -12.05 7.75 -12.1 Q8.3 -12.2 8.35 -12.6 L8.55 -12.7 9.05 -13.0 9.55 -13.35 8.95 -12.6 Q7.15 -10.55 4.6 -9.8 L3.7 -9.5 -2.35 -9.3 -2.85 -9.35 Q-4.5 -9.7 -5.8 -10.65 -8.3 -12.35 -10.2 -14.6 L-10.65 -15.5 M32.75 -15.35 L32.65 -15.3 32.65 -15.4 Q32.65 -15.4 32.75 -15.35 M-35.3 -9.0 L-35.1 -9.3 -35.15 -8.95 -35.3 -9.0 M-30.2 -10.6 L-30.3 -10.2 -30.4 -10.3 -30.2 -10.6 M-30.6 -1.9 L-30.55 -1.85 -30.5 -1.8 -30.6 -1.9 M-47.95 10.45 L-48.05 10.15 -48.05 10.1 -47.1 10.75 -47.35 10.65 -47.95 10.45 M-38.6 12.65 L-37.2 12.4 Q-35.8 12.15 -34.95 11.0 -34.15 10.0 -33.7 8.8 -33.0 7.0 -33.1 5.15 -33.15 3.9 -33.8 3.1 L-33.95 2.4 Q-34.3 0.95 -35.05 -0.3 L-35.15 -0.45 -35.55 -1.05 Q-35.9 -0.9 -36.25 -1.05 L-36.5 -1.05 -37.2 -1.05 -38.5 -1.1 -38.9 -1.15 -39.15 -1.15 -40.3 -1.4 -41.05 -1.5 -41.3 -1.5 -42.2 -1.75 -44.15 -2.5 Q-45.55 -3.2 -46.8 -4.05 L-47.7 -4.7 -48.5 -5.35 -48.65 -5.45 -49.65 -6.55 -49.75 -6.7 -50.0 -7.05 Q-49.95 -7.6 -49.55 -8.0 L-47.85 -6.35 -46.7 -5.45 Q-44.8 -4.1 -42.65 -3.3 L-42.25 -3.15 -41.85 -3.05 -41.75 -3.0 -41.45 -2.9 -41.3 -2.85 -41.15 -2.8 -40.1 -2.6 -39.0 -2.45 -37.85 -2.4 -37.75 -2.4 -36.6 -2.35 -36.0 -2.3 -35.4 -1.95 -35.15 -1.8 -35.15 -1.75 -35.1 -1.75 -34.9 -1.55 -34.25 -1.0 -34.05 -0.5 Q-32.9 0.1 -32.2 1.45 -31.6 2.5 -31.35 3.7 -30.8 6.15 -31.35 8.55 L-31.6 9.4 Q-32.35 11.5 -34.35 12.45 L-35.25 12.75 -38.6 12.65 M-43.45 10.55 L-43.75 10.5 -44.35 10.35 -45.05 10.1 -43.45 10.55 M-47.9 8.95 L-48.35 8.95 -48.4 8.65 -48.0 8.85 -47.9 8.95 M-48.75 -9.95 L-48.75 -10.2 -48.65 -10.35 -48.6 -10.3 -48.7 -10.0 -48.75 -9.95 M-10.05 5.9 L-9.75 6.35 -10.4 5.95 -10.05 5.9 M6.95 9.7 L7.1 9.75 6.95 9.75 6.95 9.7" fill="#5b1e00" fill-rule="evenodd" stroke="none"/>
    <path d="M21.35 -49.9 L21.45 -50.0 Q22.6 -46.95 20.9 -44.25 17.45 -43.35 14.6 -45.65 L14.75 -46.1 Q15.0 -46.65 15.7 -46.75 L16.45 -46.9 16.55 -46.7 Q17.15 -45.9 18.15 -46.2 19.3 -46.5 19.3 -47.7 L19.25 -48.2 21.35 -49.9 M30.8 -18.1 Q29.9 -18.75 29.65 -19.65 L29.6 -19.95 29.6 -20.05 29.8 -20.35 29.8 -20.65 30.0 -20.95 30.05 -21.15 30.15 -21.25 30.25 -21.35 30.25 -21.4 30.25 -21.5 30.85 -22.3 32.75 -24.75 32.9 -24.8 Q31.95 -23.95 32.25 -22.65 32.55 -21.35 33.4 -20.9 L31.65 -19.0 30.8 -18.1 M33.05 -24.9 L33.2 -25.15 33.55 -25.65 33.5 -25.65 33.9 -26.15 34.1 -26.45 35.65 -28.3 35.95 -28.45 36.15 -28.75 36.5 -29.0 37.65 -29.7 38.05 -28.9 38.7 -27.75 39.2 -26.75 36.15 -23.95 Q35.75 -25.05 34.1 -25.15 L33.55 -25.15 33.2 -24.95 33.05 -24.9 M18.45 -12.8 Q17.5 -10.8 15.6 -9.65 L15.15 -9.25 12.6 -6.45 11.45 -5.85 10.3 -5.9 Q8.85 -7.65 9.9 -10.0 12.0 -14.9 16.9 -16.05 19.75 -15.5 18.45 -12.8 M42.25 -9.25 L42.4 -9.75 Q43.15 -12.75 39.9 -12.65 L39.9 -12.6 39.6 -12.45 Q38.2 -11.55 38.7 -9.9 39.0 -8.9 39.75 -8.55 L37.7 -8.05 36.95 -7.85 35.45 -7.6 35.2 -8.55 35.15 -8.75 35.1 -9.95 35.1 -10.15 35.15 -10.25 35.4 -10.6 38.55 -12.15 Q41.1 -13.15 43.8 -13.75 L44.6 -14.0 44.65 -13.95 45.9 -14.2 45.9 -14.25 48.4 -14.75 Q49.05 -12.85 49.15 -10.85 L48.3 -10.65 48.15 -10.65 46.2 -10.25 45.35 -10.05 44.7 -9.9 42.65 -9.35 42.4 -9.3 42.25 -9.25 M-23.65 -5.9 Q-25.1 -7.65 -24.05 -10.0 -21.95 -14.9 -17.05 -16.05 -14.2 -15.5 -15.5 -12.8 -16.45 -10.8 -18.35 -9.65 L-18.8 -9.25 -21.35 -6.45 -22.5 -5.85 -23.65 -5.9 M-17.3 6.1 L-13.6 6.25 -12.85 6.25 -12.55 6.25 -12.1 6.2 -12.0 6.25 Q-11.0 6.85 -10.35 7.75 L-10.4 7.85 -10.4 8.0 -10.45 8.05 -10.8 8.25 -12.2 8.85 -15.25 9.65 -16.6 9.9 -17.85 10.05 -17.7 9.2 -17.55 8.7 Q-17.0 7.4 -17.4 6.1 L-17.3 6.1 M-14.9 12.95 L-9.35 11.85 -8.35 11.6 -8.35 11.75 -8.2 12.05 -7.15 13.4 -7.5 13.55 -8.7 14.15 -8.95 14.25 -9.6 14.4 -13.5 16.15 Q-13.5 14.95 -14.5 14.05 L-14.75 13.15 -14.9 12.95 M19.25 5.95 L19.55 6.3 Q20.9 7.5 21.25 9.2 L21.0 9.35 17.95 9.7 17.9 9.65 17.8 9.6 16.7 9.45 16.3 9.3 Q17.35 8.35 17.45 6.7 L17.8 6.2 18.5 6.1 19.25 5.95 M13.0 15.3 L13.15 15.1 Q13.95 14.3 14.05 13.2 L14.05 12.3 17.9 13.05 18.45 13.9 Q19.2 15.2 18.85 16.65 L16.35 16.8 14.35 16.2 13.9 15.9 13.0 15.3" fill="#cc0000" fill-rule="evenodd" stroke="none"/>
    <path d="M19.85 -36.35 L20.5 -35.95 23.4 -33.5 25.6 -31.15 26.1 -30.45 26.15 -30.4 26.4 -29.8 27.65 -27.1 27.7 -26.85 28.1 -26.45 27.25 -26.3 Q25.35 -25.85 23.75 -24.7 22.55 -23.85 21.75 -22.7 L21.3 -22.75 Q19.35 -22.65 17.65 -21.75 L17.45 -21.65 17.25 -21.55 16.85 -21.3 18.6 -23.05 18.9 -23.4 Q20.85 -26.0 22.05 -28.95 L21.45 -32.75 20.8 -35.1 Q20.1 -35.65 19.85 -36.35 M0.9 -17.85 L4.05 -20.45 4.1 -20.45 6.95 -21.0 8.45 -21.5 Q9.65 -21.95 10.7 -22.75 L12.45 -24.25 12.85 -24.7 Q13.85 -25.9 14.35 -27.35 L14.85 -28.85 15.0 -30.25 14.75 -33.15 14.65 -33.55 14.45 -34.15 14.8 -34.6 16.15 -36.45 16.45 -36.1 Q17.4 -34.95 17.75 -33.5 L17.85 -33.25 18.1 -32.0 18.05 -30.6 18.05 -30.5 18.05 -30.4 17.95 -29.55 17.95 -29.5 17.9 -29.45 17.7 -28.55 17.35 -27.7 Q16.15 -25.2 14.15 -23.1 12.3 -21.3 9.9 -20.15 7.4 -18.9 4.5 -18.3 L0.9 -17.85 M32.75 -15.35 L33.6 -15.45 33.7 -15.5 33.75 -15.5 33.8 -15.55 33.8 -15.7 34.4 -15.9 35.65 -16.55 37.75 -18.15 38.65 -18.8 38.8 -18.9 39.25 -19.2 40.1 -19.9 42.4 -17.3 43.6 -15.65 44.05 -14.95 43.55 -14.8 43.2 -14.7 40.65 -13.95 40.0 -15.35 37.2 -14.35 37.0 -14.3 35.1 -14.05 33.4 -14.3 32.9 -14.75 32.65 -15.3 32.75 -15.35 M35.8 -5.1 L35.9 -5.1 36.0 -5.05 39.75 -4.85 41.85 -5.05 44.35 -5.3 46.65 -5.6 47.9 -5.8 48.05 -5.15 48.6 -3.05 48.3 -2.8 48.1 -2.85 48.05 -2.85 47.85 -2.8 47.45 -2.6 Q45.5 -1.5 43.35 -0.8 L41.55 -0.35 Q36.4 0.35 31.25 -0.2 L31.15 -0.25 31.1 -0.3 31.7 -1.8 31.75 -1.85 31.8 -1.9 31.8 -2.05 31.85 -2.4 31.9 -2.65 32.0 -3.1 32.05 -4.15 32.05 -4.3 32.1 -4.75 35.8 -5.1 M-11.4 -49.8 L-12.65 -50.65 -13.4 -50.55 Q-14.1 -50.4 -14.5 -49.4 -14.9 -48.4 -13.95 -46.75 -12.75 -45.25 -10.8 -45.1 L-10.55 -45.1 Q-9.95 -45.65 -9.95 -46.45 -10.05 -48.55 -11.4 -49.8 M-10.3 -49.5 Q-9.1 -47.65 -9.5 -45.35 -10.6 -43.85 -12.4 -44.35 L-13.35 -44.8 Q-15.5 -46.05 -15.85 -48.75 -16.15 -50.25 -15.3 -51.35 -12.85 -52.0 -11.0 -50.25 L-10.3 -49.5 M-36.75 -7.35 L-36.75 -7.25 -36.65 -7.15 -36.4 -7.15 -35.65 -8.35 -35.5 -8.65 -35.3 -9.0 -35.15 -8.95 -35.1 -9.3 -33.6 -12.2 -33.55 -12.25 -33.05 -13.3 -32.65 -13.8 -32.5 -13.85 -32.45 -13.9 -32.35 -14.05 -32.35 -14.2 -32.35 -14.3 -32.15 -14.45 -32.1 -14.5 -32.0 -14.65 -32.0 -14.75 -31.95 -14.75 -31.8 -14.8 -29.95 -17.0 -28.7 -19.0 -27.7 -21.25 Q-26.9 -23.7 -28.1 -25.75 L-28.1 -25.9 -28.3 -26.35 -27.5 -26.15 -27.3 -26.1 -26.45 -25.9 Q-23.8 -25.25 -23.25 -22.65 L-22.8 -21.7 -22.95 -21.6 -23.0 -21.5 -23.05 -21.45 -23.2 -21.35 -26.4 -17.65 -26.95 -17.0 -27.05 -16.85 -29.15 -13.3 -30.2 -10.6 -30.4 -10.3 -30.3 -10.2 -30.55 -9.4 -30.95 -6.6 -30.85 -4.3 -30.75 -3.1 -30.65 -2.65 -30.6 -2.05 -30.6 -1.9 -30.5 -1.8 -29.9 -0.3 -29.85 -0.25 -29.8 -0.2 -29.6 0.2 -28.9 1.3 -28.9 1.75 -28.85 2.4 -28.75 3.95 -28.65 4.55 -28.6 4.75 -28.4 5.9 Q-27.8 8.25 -26.7 10.45 L-26.8 11.0 -27.0 11.9 -27.0 11.95 -27.2 12.75 Q-27.5 12.95 -27.65 13.5 L-27.7 13.7 Q-28.0 14.35 -28.6 14.9 -30.3 16.5 -32.55 17.3 L-33.25 17.5 Q-36.35 18.3 -39.55 17.6 -41.3 17.2 -42.8 16.4 -42.95 16.3 -43.05 16.25 L-43.85 15.75 -43.95 15.65 -44.2 15.5 -46.2 13.55 Q-42.45 15.6 -38.15 15.95 L-36.25 16.0 Q-32.25 15.75 -30.6 12.25 -29.5 9.85 -29.6 7.15 -29.75 4.55 -30.65 2.15 -31.65 -0.4 -32.25 -3.05 L-32.4 -4.75 -32.95 -5.1 -34.15 -5.85 Q-35.5 -5.85 -36.5 -6.45 L-36.75 -6.25 -38.95 -6.15 -40.25 -6.25 -41.35 -6.45 -41.5 -6.45 -41.75 -6.5 -41.95 -6.55 -42.1 -6.6 -43.6 -7.05 -45.7 -7.95 -47.2 -8.95 Q-48.0 -9.55 -48.6 -10.3 L-48.65 -10.35 -48.1 -11.55 -47.1 -10.45 -46.9 -10.3 -46.4 -9.9 -46.35 -9.9 Q-44.25 -8.35 -41.7 -7.65 L-39.8 -7.3 -39.3 -7.25 Q-38.05 -6.9 -36.9 -7.25 L-36.75 -7.35 M-30.75 -9.75 L-30.85 -9.8 -30.8 -9.65 -30.75 -9.75" fill="#333333" fill-rule="evenodd" stroke="none"/>
    <path d="M16.45 -47.8 Q16.85 -48.9 17.85 -49.25 L18.8 -48.9 19.25 -48.2 19.3 -47.7 Q19.3 -46.5 18.15 -46.2 17.15 -45.9 16.55 -46.7 L16.45 -46.9 Q16.25 -47.25 16.4 -47.7 L16.45 -47.8 M33.4 -20.9 Q32.55 -21.35 32.25 -22.65 31.95 -23.95 32.9 -24.8 L33.05 -24.9 33.2 -24.95 33.55 -25.15 34.1 -25.15 Q35.75 -25.05 36.15 -23.95 L36.25 -23.2 36.15 -22.25 35.5 -21.05 34.1 -20.75 34.05 -20.75 33.4 -20.9 M39.75 -8.55 Q39.0 -8.9 38.7 -9.9 38.2 -11.55 39.6 -12.45 L39.9 -12.6 39.9 -12.65 Q43.15 -12.75 42.4 -9.75 L42.25 -9.25 Q42.0 -8.9 41.6 -8.7 L39.75 -8.55 M-46.85 -25.25 L-45.4 -27.0 -44.95 -27.35 Q-43.65 -28.45 -41.85 -28.95 L-40.9 -28.8 Q-38.05 -28.25 -38.85 -25.15 -39.25 -23.5 -40.9 -22.7 L-41.1 -22.6 -42.75 -21.3 Q-45.2 -18.35 -47.65 -21.05 -48.45 -21.95 -48.0 -23.1 L-46.85 -25.25 M-51.8 0.8 L-51.7 -1.75 Q-51.5 -3.8 -50.75 -5.7 L-49.9 -6.4 -49.65 -6.55 -48.65 -5.45 -48.5 -5.35 -47.7 -4.7 -46.8 -4.05 Q-46.9 -3.55 -47.15 -3.1 L-48.0 -2.0 -48.7 -1.35 Q-49.4 1.85 -51.8 0.8" fill="#ff6600" fill-rule="evenodd" stroke="none"/>
    <path d="M-11.5 -54.25 Q-10.1 -54.3 -8.85 -53.6 L-8.95 -53.4 -9.35 -53.05 -11.95 -52.85 -12.05 -53.0 Q-12.2 -53.85 -11.5 -54.25 M-22.65 -24.8 L-22.8 -25.0 -22.85 -25.1 Q-23.9 -26.4 -25.5 -26.85 -25.75 -28.3 -24.8 -30.05 -22.15 -34.85 -16.85 -36.5 L-15.85 -36.5 -16.25 -36.0 -17.2 -34.5 -17.5 -33.6 -17.55 -33.5 -17.55 -33.35 -17.6 -33.25 -17.85 -32.0 -17.85 -30.6 -17.8 -30.0 Q-18.65 -28.45 -19.85 -27.05 -21.05 -25.65 -22.65 -24.8 M32.9 -24.8 L33.0 -24.9 33.05 -24.9 32.9 -24.8 M2.6 -43.15 L3.4 -43.85 3.8 -44.0 4.0 -44.3 4.5 -44.55 5.25 -43.4 5.7 -41.55 5.85 -40.55 6.15 -38.35 6.5 -34.5 Q6.55 -32.45 6.2 -30.65 L6.1 -33.1 5.5 -36.75 Q5.1 -38.45 4.25 -40.05 L2.6 -43.15 M7.35 -44.5 L7.65 -44.5 Q9.15 -44.2 9.15 -42.65 9.15 -40.9 7.4 -41.4 L6.65 -42.0 Q6.05 -43.15 6.75 -44.15 6.95 -44.5 7.35 -44.5 M-25.45 -80.7 Q-14.15 -80.15 -4.75 -74.2 -14.35 -79.05 -25.45 -80.1 L-25.45 -80.7 M-18.5 40.05 L-17.8 40.85 -17.85 41.0 -17.9 42.05 -17.8 42.65 -19.9 42.75 -19.8 42.45 Q-19.35 41.1 -18.5 40.05 M-20.2 47.05 L-20.25 47.0 Q-21.05 46.1 -20.85 44.85 L-20.8 44.75 Q-20.55 44.2 -20.65 43.8 -19.65 43.15 -18.4 43.25 L-17.1 43.5 Q-17.35 44.2 -17.05 44.95 -17.25 45.35 -17.1 45.7 -18.05 45.8 -18.8 46.2 L-20.2 47.05 M-16.75 46.2 L-16.35 46.6 Q-15.75 47.1 -15.4 47.75 L-14.95 48.7 -14.5 48.6 -15.3 48.85 -17.6 51.0 -18.1 50.6 Q-19.35 49.9 -19.55 48.5 -19.6 48.05 -19.8 47.75 L-18.35 46.8 -16.75 46.2 M-17.1 51.6 L-15.8 49.95 Q-14.95 49.55 -13.9 49.25 L-13.65 49.55 Q-12.65 50.0 -12.0 50.9 L-11.8 51.4 -12.15 53.1 Q-12.45 53.9 -13.2 54.3 L-14.8 54.25 Q-16.25 53.45 -16.9 51.95 L-17.1 51.6 M18.3 42.6 L19.65 41.2 19.7 41.55 Q19.65 42.25 20.0 42.75 L18.3 42.6 M15.5 49.85 L16.15 50.4 17.1 51.4 16.1 52.35 Q15.0 54.05 13.2 54.85 L11.4 54.95 Q11.0 53.05 12.7 51.75 13.65 51.0 14.7 50.6 15.2 50.4 15.45 49.9 L15.5 49.85 M17.85 43.85 L18.25 43.7 19.95 43.75 Q19.85 44.6 20.15 45.45 L20.15 45.65 20.15 45.85 20.15 45.95 19.95 46.3 19.5 46.0 17.1 45.7 17.8 44.0 17.85 43.85 M17.0 46.5 L17.15 46.45 Q18.55 46.5 19.85 47.3 L19.8 47.35 19.55 48.45 Q19.1 49.95 17.7 50.65 L17.65 50.6 Q16.55 49.5 15.35 48.9 L15.85 49.15 Q15.95 47.7 17.0 46.5" fill="#cccccc" fill-rule="evenodd" stroke="none"/>
    <path d="M31.65 -19.0 L33.4 -20.9 34.05 -20.75 33.85 -20.55 32.5 -19.3 32.05 -18.9 31.8 -18.85 31.65 -19.0 M37.65 -29.7 L38.0 -29.95 38.05 -29.9 38.15 -29.8 Q39.2 -28.8 39.75 -27.5 40.05 -26.8 39.85 -26.15 L39.65 -25.9 Q38.5 -24.9 37.25 -24.05 L36.25 -23.2 36.15 -23.95 39.2 -26.75 38.7 -27.75 38.05 -28.9 37.65 -29.7 M42.25 -9.25 L42.4 -9.3 42.65 -9.35 44.7 -9.9 45.35 -10.05 46.2 -10.25 48.15 -10.65 48.3 -10.65 49.15 -10.85 Q49.05 -12.85 48.4 -14.75 L48.6 -14.8 48.8 -14.8 49.5 -13.1 49.75 -11.65 49.55 -10.2 49.35 -9.9 49.3 -9.85 45.75 -9.05 41.5 -8.15 37.55 -7.5 37.05 -7.4 Q36.5 -7.3 36.5 -7.75 L36.95 -7.85 37.7 -8.05 39.75 -8.55 41.6 -8.7 Q42.0 -8.9 42.25 -9.25 M-36.05 -30.8 L-35.6 -30.75 -35.45 -30.7 -34.45 -30.25 -33.55 -29.75 Q-32.65 -27.85 -32.75 -25.6 -32.9 -21.9 -34.15 -18.4 L-34.8 -17.0 Q-35.9 -14.95 -37.95 -13.65 -39.2 -13.1 -40.6 -12.9 L-41.05 -12.8 -41.1 -12.75 -41.1 -12.7 Q-45.0 -11.8 -48.7 -12.6 L-49.0 -13.25 Q-47.5 -12.4 -45.2 -12.5 -39.15 -12.75 -36.25 -17.0 -35.45 -18.25 -34.9 -19.8 -34.0 -22.4 -33.6 -25.1 -33.3 -27.1 -34.35 -28.85 -35.1 -30.1 -36.05 -30.8 M-50.3 6.55 L-51.0 4.9 -50.2 5.5 Q-46.5 8.05 -42.1 6.7 -39.7 5.95 -38.7 3.55 -38.3 2.55 -38.5 1.55 -38.75 0.0 -39.45 -1.2 L-39.15 -1.15 -38.9 -1.15 -38.5 -1.1 -38.3 -0.55 Q-37.8 1.2 -37.9 3.1 -38.1 6.15 -40.85 7.3 L-48.35 7.5 -50.15 6.65 -50.3 6.55 M-12.1 6.2 L-12.0 6.2 -12.0 6.25 -12.1 6.2 M15.35 9.95 L15.35 10.0 15.3 9.95 15.35 9.95" fill="#cc6600" fill-rule="evenodd" stroke="none"/>
    <path d="M0.0 -49.7 L-0.15 -49.45 -0.05 -48.85 Q0.3 -48.3 1.05 -48.55 L1.3 -48.8 1.4 -49.25 1.9 -49.05 1.9 -48.55 Q1.85 -48.05 1.35 -47.85 0.8 -47.6 0.25 -47.85 L-0.05 -48.0 Q-1.15 -48.5 -0.7 -49.6 L-0.6 -49.75 0.0 -49.7 M-11.8 -24.7 L-11.9 -24.6 -11.9 -24.65 -11.8 -24.7 M-4.9 -30.1 L-4.85 -30.1 -4.9 -30.1" fill="#ffffff" fill-rule="evenodd" stroke="none"/>
    <path d="M17.95 -29.55 L17.95 -29.5 17.95 -29.55 M-47.0 -25.4 L-46.85 -25.25 -48.0 -23.1 Q-48.45 -21.95 -47.65 -21.05 -45.2 -18.35 -42.75 -21.3 L-41.1 -22.6 -40.9 -22.7 Q-39.25 -23.5 -38.85 -25.15 -38.05 -28.25 -40.9 -28.8 L-41.85 -28.95 Q-43.65 -28.45 -44.95 -27.35 L-43.5 -28.45 -41.2 -29.65 -40.9 -29.8 -38.75 -30.45 -37.85 -30.75 -37.5 -30.8 -36.7 -30.85 -36.65 -30.85 -36.3 -30.85 -36.05 -30.8 Q-35.1 -30.1 -34.35 -28.85 -33.3 -27.1 -33.6 -25.1 -34.0 -22.4 -34.9 -19.8 -35.45 -18.25 -36.25 -17.0 -39.15 -12.75 -45.2 -12.5 -47.5 -12.4 -49.0 -13.25 L-49.1 -13.5 Q-49.45 -14.7 -49.45 -15.95 L-49.45 -16.3 Q-49.65 -18.25 -49.35 -20.15 L-49.2 -20.55 Q-48.5 -23.0 -47.15 -25.2 L-47.0 -25.4 M-51.0 4.9 L-51.55 2.8 -51.8 0.8 Q-49.4 1.85 -48.7 -1.35 L-48.0 -2.0 -47.15 -3.1 Q-46.9 -3.55 -46.8 -4.05 -45.55 -3.2 -44.15 -2.5 L-42.2 -1.75 -41.3 -1.5 -41.05 -1.45 -39.45 -1.2 Q-38.75 0.0 -38.5 1.55 -38.3 2.55 -38.7 3.55 -39.7 5.95 -42.1 6.7 -46.5 8.05 -50.2 5.5 L-51.0 4.9 M-50.75 -5.7 L-50.6 -6.1 -50.3 -6.75 -50.05 -7.2 -50.0 -7.05 -49.75 -6.7 -49.65 -6.55 -49.9 -6.4 -50.75 -5.7 M13.0 15.3 L12.35 15.8 12.25 15.85 11.95 16.05 11.3 16.2 9.05 16.15 8.65 15.9 8.1 14.9 Q7.25 12.9 9.1 11.2 L9.2 11.15 10.25 11.4 11.95 11.85 12.25 11.9 14.05 12.3 14.05 13.2 Q13.95 14.3 13.15 15.1 L13.0 15.3" fill="#cc3300" fill-rule="evenodd" stroke="none"/>
    <path d="M-14.6 -33.5 L-14.55 -34.4 -14.45 -34.45 -14.5 -33.05 -14.55 -32.95 -14.6 -33.5 M3.0 -22.45 L2.95 -22.3 2.95 -22.35 3.0 -22.45 M-2.2 -24.7 L-2.2 -24.85 -2.15 -24.85 -2.2 -24.7" fill="#c2846c" fill-rule="evenodd" stroke="none"/>
    <path d="M37.0 -14.3 L37.2 -14.35 36.8 -14.2 36.8 -14.25 37.0 -14.3 M38.1 -13.1 L37.45 -12.85 37.4 -12.8 38.1 -13.1 M-22.8 -21.7 L-23.0 -21.5 -22.95 -21.6 -22.8 -21.7 M-25.0 4.25 L-24.8 4.35 -23.85 4.75 -19.55 5.75 -17.4 6.05 -17.4 6.1 Q-17.0 7.4 -17.55 8.7 L-17.7 9.2 -17.85 10.05 -17.9 10.05 -18.25 10.75 -18.55 11.1 -19.15 11.4 -20.45 11.5 -21.45 11.2 -22.0 10.85 -23.55 9.65 -24.15 8.9 Q-25.0 7.65 -25.25 6.1 L-25.3 5.9 Q-25.45 5.0 -25.0 4.25 M-13.5 16.15 L-13.55 16.8 -14.0 17.85 -14.05 17.9 -14.4 18.25 -14.55 18.35 -15.2 18.5 Q-17.2 18.85 -18.6 17.65 L-19.55 16.55 Q-20.05 15.8 -19.95 14.9 L-19.35 13.45 -16.25 13.2 -16.0 13.15 -14.9 12.95 -14.75 13.15 -14.5 14.05 Q-13.5 14.95 -13.5 16.15 M-6.85 24.25 L-6.9 24.9 Q-5.35 27.0 -7.6 28.05 -8.85 28.6 -9.6 27.65 -10.9 26.05 -11.0 24.0 -11.15 21.55 -9.0 21.3 -6.9 21.8 -6.85 24.25 M29.0 2.6 L28.95 2.55 29.0 2.5 29.0 2.6" fill="#b93d00" fill-rule="evenodd" stroke="none"/>
    <path d="M23.05 -22.8 L23.0 -22.7 22.95 -22.4 22.7 -22.5 23.0 -22.75 23.05 -22.8 M-6.35 3.8 L-6.6 4.0 -7.1 4.05 -6.35 3.8 M-48.05 10.5 L-48.1 10.35 -47.95 10.45 -48.05 10.5 M-40.1 -2.6 L-39.0 -2.45 -40.1 -2.6 M-17.4 6.05 L-17.3 6.1 -17.4 6.1 -17.4 6.05 M8.5 29.25 L6.75 27.85 6.15 27.55 Q5.35 27.0 4.4 26.85 L2.5 26.65 0.75 26.75 -0.95 26.65 -2.85 26.85 Q-3.8 27.0 -4.6 27.55 L-5.2 27.85 -7.35 29.55 Q-8.1 30.3 -9.0 30.7 L-10.75 31.0 -10.9 30.9 -11.1 30.75 -13.9 26.7 -14.0 26.25 -14.9 24.35 -15.05 23.9 -15.2 23.5 Q-6.65 18.55 3.4 19.8 6.95 20.25 10.05 21.25 11.4 21.75 11.95 23.2 L10.45 26.5 8.5 29.25 M-6.85 24.25 Q-6.9 21.8 -9.0 21.3 -11.15 21.55 -11.0 24.0 -10.9 26.05 -9.6 27.65 -8.85 28.6 -7.6 28.05 -5.35 27.0 -6.9 24.9 L-6.85 24.25 M-22.75 11.05 L-23.6 10.85 -22.7 11.05 -22.75 11.05 M10.5 5.7 L10.85 5.8 10.95 5.8 10.5 5.7 M5.15 13.9 L5.3 14.3 4.9 14.3 5.15 13.9 M24.0 5.05 L24.1 5.05 24.05 5.1 24.0 5.05" fill="#842b00" fill-rule="evenodd" stroke="none"/>
    <path d="M-15.65 -32.85 L-15.65 -32.45 -15.75 -32.5 -15.7 -32.8 -15.65 -32.85 M-15.8 -23.05 L-15.55 -22.95 -15.55 -22.75 -15.8 -23.05" fill="#999933" fill-rule="evenodd" stroke="none"/>
    <path d="M-30.75 -9.75 L-30.8 -9.65 -30.85 -9.8 -30.75 -9.75 M-15.2 23.5 L-15.6 22.75 -15.8 22.05 -16.05 21.55 -14.3 21.2 -14.25 21.15 -11.8 19.95 Q-8.75 18.15 -5.3 17.2 -2.95 16.5 -0.45 16.4 L-0.25 16.45 0.4 16.4 0.6 16.4 1.55 16.45 1.75 16.4 6.65 17.2 Q10.05 18.15 13.15 19.95 L15.55 21.15 15.65 21.2 17.55 21.55 Q17.2 22.1 17.0 22.75 L16.7 23.35 14.55 27.95 14.45 28.1 12.35 30.95 12.3 31.0 10.55 30.7 Q9.6 30.3 8.85 29.55 L8.5 29.25 10.45 26.5 11.95 23.2 Q11.4 21.75 10.05 21.25 6.95 20.25 3.4 19.8 -6.65 18.55 -15.2 23.5 M25.35 12.55 L25.25 12.5 25.4 12.45 25.35 12.55" fill="#330000" fill-rule="evenodd" stroke="none"/>
    <path d="M-10.05 5.9 L-9.05 5.65 -8.9 5.6 -7.5 5.2 -6.9 5.1 -6.85 6.15 -5.95 9.85 -6.0 9.85 -5.85 10.2 -5.55 10.95 -3.9 14.55 -3.1 15.65 -5.65 16.2 Q-5.15 15.6 -5.35 14.8 L-5.85 13.5 -5.75 13.15 -5.75 13.1 -5.85 12.95 -5.9 12.85 -6.4 12.25 -7.0 11.85 -7.65 11.25 -8.0 10.95 Q-9.25 10.05 -8.4 8.75 L-8.4 8.45 -8.8 7.55 -8.85 7.25 -9.15 7.0 -9.75 6.35 -10.05 5.9 M29.0 2.6 Q28.9 2.8 28.95 3.05 L28.9 3.35 28.95 3.75 28.75 4.6 28.75 4.7 28.75 4.75 28.05 7.15 Q27.15 9.55 25.8 11.8 L25.45 12.4 25.35 12.45 24.7 12.6 25.25 12.5 25.35 12.55 25.0 13.15 25.0 13.2 24.85 13.35 24.85 13.3 24.8 13.4 22.25 16.9 22.25 16.95 22.05 17.15 22.25 16.45 22.35 15.65 22.1 14.4 Q21.15 13.95 21.3 12.95 21.4 12.45 21.8 12.1 23.6 11.9 24.9 10.8 L26.0 9.25 Q26.1 7.65 25.6 6.05 24.65 5.7 24.2 5.0 L25.0 4.75 27.7 3.45 28.7 2.75 28.95 2.55 29.0 2.6" fill="#660000" fill-rule="evenodd" stroke="none"/>
    <path d="M-4.0 11.7 Q-2.0 13.1 1.1 12.65 6.45 10.25 4.45 4.85 4.15 4.0 3.55 3.5 L3.6 3.45 5.2 4.0 6.15 4.35 7.6 4.8 7.5 5.0 7.65 5.0 7.2 6.6 7.2 6.65 6.6 8.3 6.15 9.25 5.9 10.15 5.2 11.8 4.85 12.2 3.8 14.25 3.1 15.2 3.0 15.4 1.6 15.25 0.65 15.15 -0.3 15.25 -1.85 15.4 -1.95 15.45 -2.25 14.8 -3.1 13.45 -3.9 12.0 -4.0 11.7" fill="#006666" fill-rule="evenodd" stroke="none"/>
    <path d="M-19.6 25.35 Q-18.15 24.4 -16.4 24.4 L-16.05 24.6 -16.7 24.9 Q-18.5 24.9 -19.4 26.55 L-19.65 27.2 Q-19.15 29.05 -18.2 30.75 L-16.55 33.1 -15.25 32.0 -12.6 30.4 -12.4 30.3 -13.65 27.75 -12.0 30.95 -12.1 31.0 -14.95 32.7 -15.6 33.2 -15.7 33.3 -17.35 35.35 -18.05 36.45 -18.25 36.8 -18.5 35.65 -18.4 35.55 -17.65 34.35 -17.0 33.3 -18.05 32.2 Q-19.3 30.65 -19.8 28.7 L-19.95 28.1 -20.15 27.1 -20.15 27.05 -19.95 25.55 -19.6 25.35 M5.65 28.35 L5.9 28.45 8.05 30.0 8.3 30.15 9.75 31.25 Q10.6 31.7 11.6 31.6 L11.75 31.7 11.05 32.6 11.05 32.65 11.0 32.75 10.85 32.9 10.65 33.1 10.2 33.7 10.15 33.85 9.7 34.55 Q9.45 34.7 9.55 34.85 L9.55 34.9 9.75 34.9 10.05 34.65 10.5 34.3 Q9.25 37.85 6.75 40.7 10.1 41.85 12.65 44.45 15.25 40.05 17.05 35.15 L17.5 33.75 17.0 33.3 16.75 33.05 14.55 31.6 13.55 31.05 13.85 30.7 Q15.15 31.15 16.35 31.95 L17.65 32.95 17.85 31.45 Q16.5 29.8 14.45 30.0 L14.95 29.25 15.35 28.85 15.4 28.75 15.4 28.65 Q16.45 27.2 17.1 25.55 L17.15 25.25 17.4 24.8 17.15 24.75 17.5 24.65 18.65 22.3 19.0 21.65 19.05 21.65 19.15 21.4 19.45 21.3 19.8 21.65 20.8 23.35 21.25 25.05 21.3 25.6 21.5 23.9 Q22.0 25.95 21.45 27.9 L21.35 30.3 21.05 32.1 19.95 35.5 19.15 37.55 18.95 38.0 18.0 40.0 18.0 40.2 17.9 40.3 16.3 43.6 16.25 43.65 14.9 46.05 14.0 47.45 13.9 47.6 12.6 49.45 11.55 50.75 9.95 52.5 8.75 53.55 8.6 53.7 8.35 53.95 7.75 54.45 7.1 54.95 5.6 55.85 3.4 56.55 3.25 56.5 2.55 56.5 2.3 56.55 0.75 56.75 -1.0 56.5 -1.25 56.5 -1.7 56.5 -1.85 56.55 -4.1 55.85 -5.55 54.95 -5.8 54.75 -6.8 53.95 -8.4 52.5 -9.55 51.25 -11.05 49.45 -11.35 49.0 -11.0 49.2 -10.65 49.75 -10.1 50.15 Q-9.3 50.9 -8.3 51.25 L-6.85 52.05 -3.35 53.0 -3.4 52.7 -3.45 52.75 -3.4 52.4 -3.45 51.7 -3.15 49.5 -3.1 48.7 -2.9 46.6 -2.6 41.3 -2.55 40.95 Q-7.25 42.15 -11.35 44.6 L-12.35 45.3 -13.25 46.3 -13.5 46.65 -13.75 46.45 -13.45 46.0 Q-12.65 44.8 -11.45 43.9 -10.2 42.95 -8.75 42.65 -5.75 41.15 -2.5 40.45 L-2.3 38.15 Q-3.3 37.4 -4.1 36.3 -5.15 34.95 -4.8 33.15 -4.45 31.85 -3.3 31.15 L-2.8 30.85 -0.95 29.95 2.0 30.05 Q3.5 30.3 4.35 31.65 4.95 33.0 4.9 34.45 6.05 32.1 5.7 29.7 L5.65 28.35 M-1.9 32.5 L-2.25 32.85 -2.7 33.65 Q-3.2 34.75 -2.45 35.7 -1.45 36.9 -0.25 37.0 0.7 37.0 1.75 36.3 2.75 35.65 2.85 34.5 3.15 31.8 0.45 31.5 L-0.7 31.75 -1.9 32.5 M-1.75 38.55 L-1.8 40.3 1.2 39.9 3.0 37.6 2.95 37.35 1.8 38.1 Q0.45 38.9 -1.15 38.7 L-1.75 38.55 M-1.85 40.9 L-1.7 40.85 -1.85 41.05 -1.95 41.7 -1.9 41.9 -2.0 41.95 -2.35 45.9 -2.45 48.45 -2.5 52.15 Q-2.4 52.5 -2.45 52.9 L-2.5 53.1 4.05 52.6 4.05 52.35 4.0 52.3 Q3.75 50.65 3.8 48.45 L3.75 45.95 3.5 43.3 3.5 43.25 Q1.8 43.75 0.25 42.1 -0.25 41.6 0.2 41.05 L0.75 40.4 0.1 40.4 -0.4 40.5 -1.6 40.8 -1.4 40.7 -1.75 40.75 -1.85 40.8 -1.85 40.9 M6.25 41.25 L5.25 42.2 4.0 43.05 4.05 43.65 4.4 46.95 4.6 48.6 4.55 49.5 Q4.4 50.3 4.75 51.6 L4.9 52.05 4.95 52.35 6.1 51.9 Q7.75 51.3 8.85 49.9 L12.15 45.25 11.85 44.95 Q9.45 42.4 6.25 41.25" fill="#363836" fill-rule="evenodd" stroke="none"/>
    <path d="M16.3 9.3 L16.15 9.45 15.95 9.6 15.35 9.95 15.3 9.95 14.6 10.2 13.45 10.3 Q11.75 10.0 10.9 8.7 L10.4 7.8 Q9.85 6.6 10.15 5.6 L10.5 5.7 10.95 5.8 13.3 6.2 13.75 6.25 14.05 6.25 14.8 6.25 17.8 6.2 17.45 6.7 Q17.35 8.35 16.3 9.3" fill="#ff0000" fill-rule="evenodd" stroke="none"/>
  </g>
</svg>
