<?xml version="1.0" encoding="UTF-8" standalone="no"?>
<svg xmlns:xlink="http://www.w3.org/1999/xlink" height="108.4px" width="41.05px" xmlns="http://www.w3.org/2000/svg">
  <g transform="matrix(1.0, 0.0, 0.0, 1.0, 24.15, 6.25)">
    <path d="M-10.7 2.4 L-9.7 2.3 -9.45 2.05 -9.3 1.75 -9.3 1.3 -9.55 0.5 -9.85 0.05 -9.8 -0.05 -9.6 -1.1 -8.05 -1.2 Q-7.2 -1.55 -7.25 -2.4 L-7.25 -3.4 Q-4.95 -5.25 -2.1 -6.05 L-2.0 -6.1 -0.8 -6.05 -1.55 -5.75 -0.65 -6.05 -1.05 -5.8 -0.75 -6.0 -0.5 -6.15 0.85 -6.2 Q3.8 -6.25 6.0 -5.05 L7.15 -4.6 7.25 -4.55 Q10.05 -3.25 11.15 -0.4 L12.0 2.45 12.25 4.45 12.25 4.5 12.3 8.1 11.9 8.6 11.85 8.6 11.8 8.6 11.65 8.65 10.95 8.8 10.8 8.9 Q9.95 10.2 11.35 11.2 L11.55 11.95 11.4 13.05 11.0 13.2 9.9 13.05 9.9 13.1 9.75 13.15 9.65 13.2 Q9.25 13.5 9.25 14.05 9.3 14.6 9.7 14.9 L9.85 15.35 10.15 15.8 10.25 15.95 10.05 17.0 9.75 17.2 9.75 17.25 9.05 17.1 9.0 17.15 8.85 17.2 8.8 17.25 Q8.3 17.6 8.4 18.2 L8.8 19.85 8.75 20.15 Q8.3 20.6 8.2 21.1 L7.6 21.0 7.6 21.05 7.45 21.1 7.35 21.15 7.25 21.25 Q6.95 21.55 7.0 21.9 L7.45 23.1 7.55 24.35 7.45 24.95 6.5 25.4 5.3 25.6 Q4.6 26.0 4.95 26.85 L5.45 28.25 Q5.05 29.35 3.6 29.8 L3.85 30.7 3.9 31.65 Q3.75 32.35 3.0 32.75 L1.7 33.35 2.5 35.15 Q2.5 35.9 1.65 36.45 L0.35 37.45 0.8 38.35 1.1 39.3 Q0.8 40.95 -0.75 41.8 L1.1 44.15 Q2.7 51.65 -2.55 57.8 -1.95 58.15 -2.05 58.9 L-2.2 60.15 Q-3.1 60.85 -2.55 61.6 -1.75 62.7 -1.7 63.1 -2.1 64.25 -1.35 65.7 L-0.15 68.05 2.65 68.05 2.65 67.85 3.35 67.95 4.3 68.2 Q4.55 68.55 5.15 68.8 6.9 69.45 7.15 70.1 L7.25 69.75 8.5 70.6 8.4 71.05 10.8 73.25 Q12.2 74.55 13.55 74.95 14.85 75.5 15.25 76.55 15.5 77.3 15.4 78.8 15.2 80.45 15.3 81.1 15.45 82.15 16.3 82.85 L16.8 85.0 16.9 85.2 16.65 85.15 15.9 88.15 15.15 89.4 Q14.7 90.15 14.0 90.15 13.9 89.05 12.55 88.4 11.0 87.6 10.7 86.9 L10.7 86.75 10.4 84.7 Q9.75 82.65 7.95 81.8 L7.8 82.05 Q7.4 81.55 6.4 81.65 5.95 81.8 5.8 82.2 5.35 81.85 4.5 81.95 5.0 84.35 5.6 85.6 L5.8 86.3 Q6.2 87.35 7.3 87.35 L7.35 87.7 8.0 87.2 8.7 87.25 Q10.1 90.15 9.15 93.5 L12.15 93.15 Q13.75 92.85 14.8 92.05 L15.05 91.05 Q15.1 90.4 15.75 90.5 L15.85 90.65 16.05 90.95 Q16.5 91.7 16.45 92.5 L15.85 94.4 14.95 96.35 Q14.6 97.5 14.95 98.6 14.75 100.0 13.15 99.9 11.1 99.8 10.6 100.25 9.65 100.75 8.85 99.7 7.85 98.45 7.15 98.6 L7.15 99.1 Q6.35 98.65 5.2 98.75 4.5 99.0 4.15 99.85 L4.0 100.3 3.7 100.6 Q2.5 101.55 2.15 102.15 L-0.95 101.85 Q-2.8 101.45 -3.75 100.5 -3.65 99.5 -4.5 98.95 L-6.05 98.25 Q-6.95 98.0 -8.85 96.45 -10.55 95.1 -11.85 95.05 -12.1 93.95 -13.45 93.5 -15.15 92.95 -15.55 92.4 L-16.0 92.4 Q-16.6 91.65 -16.75 90.55 L-16.85 88.6 Q-16.95 85.95 -18.3 85.05 -18.4 84.75 -18.0 84.0 -17.7 83.35 -18.2 83.0 -17.75 81.65 -17.8 79.8 L-18.1 76.5 Q-18.45 72.4 -16.95 70.4 -18.15 69.1 -17.8 66.8 L-16.95 63.1 Q-18.3 63.1 -18.65 61.85 L-18.5 59.8 Q-21.55 56.9 -22.7 55.05 -24.5 52.05 -24.1 48.8 -22.95 43.2 -18.95 39.6 L-19.5 38.65 -20.2 37.8 Q-21.0 36.75 -20.4 35.7 L-18.65 33.55 Q-20.65 32.05 -20.95 30.6 L-19.4 29.25 Q-18.45 28.35 -17.55 28.15 -17.35 27.45 -18.15 26.3 -19.0 25.2 -18.5 24.4 L-17.25 23.25 Q-16.5 22.45 -16.0 22.25 L-16.85 21.0 Q-17.4 20.25 -17.1 19.55 L-16.6 18.45 -15.7 17.4 Q-14.9 16.1 -16.2 15.2 -16.35 14.2 -15.5 13.7 L-13.95 12.9 -14.45 11.3 Q-14.65 10.35 -13.95 9.75 L-13.3 9.75 Q-12.9 9.8 -12.75 9.45 L-13.4 8.15 Q-13.75 7.4 -13.2 6.8 L-11.65 5.7 Q-12.7 4.65 -12.1 3.25 L-10.85 2.5 -10.7 2.4 M5.7 -3.7 L5.55 -3.8 5.2 -4.0 3.1 -4.6 -0.85 -4.7 -3.6 -3.85 -5.95 -2.75 -6.15 -1.95 Q-6.5 -1.1 -7.35 -0.6 L-7.8 -0.2 -7.9 -0.15 -8.3 -0.05 Q-8.15 0.65 -8.15 1.4 L-8.25 2.4 -8.65 3.2 -10.1 3.3 -10.7 3.35 -11.15 3.8 Q-11.3 4.3 -11.05 4.6 -11.3 4.95 -11.2 5.5 L-11.2 5.75 Q-11.35 6.35 -10.95 6.85 L-10.7 6.65 -11.95 7.7 -11.85 7.9 -11.8 8.0 -11.75 8.15 -11.7 8.3 -11.7 8.4 -11.65 8.5 -11.65 8.55 -11.65 8.6 -11.65 9.5 Q-11.85 10.45 -12.8 10.9 L-13.55 11.15 -13.2 11.95 -13.45 12.45 -13.35 13.1 -13.15 13.7 -13.55 14.1 Q-14.65 15.05 -14.65 15.65 -14.0 16.45 -14.75 17.65 L-16.0 19.55 Q-15.1 20.7 -15.1 21.6 -15.25 23.5 -16.3 23.75 -17.6 24.35 -17.0 25.35 L-16.5 26.25 Q-16.3 26.85 -16.5 27.35 -16.9 28.75 -19.3 30.6 L-17.3 32.5 Q-17.3 33.45 -18.1 34.65 L-19.3 36.7 -18.35 37.8 Q-17.75 38.5 -17.75 39.15 L-15.2 37.9 -10.05 37.5 -9.55 37.55 -8.3 37.8 -6.95 38.2 -6.85 38.25 Q-5.8 38.6 -4.85 39.1 L-3.7 39.8 -2.75 40.55 -2.2 41.05 Q-2.25 40.35 -1.5 40.05 L-0.3 39.5 Q-0.25 39.0 -0.7 38.05 L-1.2 36.5 Q-1.15 35.8 -0.3 35.55 0.7 35.2 0.95 34.9 L0.55 33.4 0.35 31.8 Q1.75 30.9 2.8 30.75 L2.35 30.0 Q2.1 29.45 2.15 29.0 2.3 28.35 3.0 28.1 L4.25 27.65 Q3.7 26.8 3.7 25.85 L3.7 25.5 Q4.1 24.5 4.7 24.05 5.45 23.4 6.55 23.6 L6.25 22.85 6.25 22.75 Q6.7 22.4 6.6 21.7 L5.95 19.5 6.2 20.15 7.2 19.25 Q7.2 18.55 7.45 17.9 L7.7 17.35 Q8.0 16.45 8.8 15.9 8.25 14.65 8.6 13.4 L8.95 12.75 Q9.1 12.5 9.4 12.45 L10.3 12.25 Q9.55 11.35 9.55 10.15 9.5 8.95 10.45 8.15 10.7 7.9 11.05 7.8 L11.5 7.65 11.75 5.35 11.75 5.4 11.55 5.7 11.45 5.25 11.4 5.15 Q10.9 3.0 10.05 0.95 9.35 -0.65 8.25 -1.95 7.25 -3.1 5.9 -3.75 L5.8 -3.8 6.3 -4.25 5.7 -3.7 M8.1 32.3 L8.15 32.15 8.1 32.35 8.1 32.3 M-1.95 45.4 Q-2.45 43.1 -3.4 42.15 -8.85 38.95 -14.75 39.95 -17.4 39.75 -19.2 42.05 -20.15 43.15 -21.6 46.45 -23.25 51.0 -20.55 56.1 -20.15 56.15 -19.55 56.65 L-18.55 57.5 Q-17.35 58.3 -16.75 56.7 -14.05 55.05 -10.0 55.2 -6.1 55.35 -3.3 57.05 -0.6 53.85 -0.75 48.8 -1.45 47.9 -1.95 45.4 M-3.75 58.45 L-3.75 58.25 -3.85 58.45 Q-7.45 56.1 -12.75 58.15 -14.2 58.65 -15.7 59.5 -16.2 59.75 -16.7 60.1 L-16.75 60.15 -17.05 60.7 Q-17.35 61.45 -17.1 62.15 L-16.05 61.95 -15.3 61.8 -14.35 61.7 -11.45 61.4 -10.45 61.35 -3.75 60.8 -3.75 58.45 M-11.35 68.85 Q-8.3 68.55 -5.75 67.15 L-3.85 66.1 Q-2.8 65.3 -2.95 64.35 L-3.85 62.6 -9.6 63.45 -11.75 63.8 -15.2 64.35 -15.75 65.95 -15.8 66.15 -15.8 68.05 -15.55 68.7 -15.3 68.7 -15.25 68.75 -14.35 68.8 -14.05 68.85 -11.35 68.85 M-6.0 69.1 Q-9.3 70.7 -12.85 70.75 L-13.1 70.75 -14.15 70.7 -15.35 71.1 Q-16.1 71.2 -16.0 71.8 L-15.7 71.9 -16.05 72.7 -16.25 74.25 -16.3 74.6 -16.3 74.65 -16.15 76.1 Q-16.45 79.85 -17.4 84.9 L-16.75 84.9 Q-16.0 85.7 -15.7 87.25 L-15.6 88.1 -15.6 88.25 -15.6 88.45 Q-15.95 89.15 -15.7 90.0 L-15.15 91.1 -15.15 91.2 -14.95 91.6 -14.55 91.6 -13.35 91.85 -13.25 91.9 Q-12.2 92.45 -11.5 93.9 L-9.2 94.05 -9.25 93.95 -9.15 93.95 -8.05 93.9 -7.2 93.35 Q-6.55 93.55 -6.05 94.5 -5.5 95.6 -4.3 95.15 L-2.9 94.65 -2.8 94.55 -2.4 94.35 -2.75 93.7 -2.7 93.7 -2.2 94.2 -1.8 93.7 -1.75 93.65 -1.45 93.55 Q-0.8 93.35 -0.6 92.75 L-0.45 92.25 Q0.6 92.3 1.9 91.55 L2.5 91.25 Q4.35 90.2 5.15 90.15 L5.1 88.4 Q4.95 87.35 4.25 86.9 2.45 82.4 4.35 80.5 L5.45 80.4 6.55 80.7 7.05 79.35 Q7.65 79.9 8.85 79.9 L9.05 80.2 10.15 81.25 Q11.7 82.5 11.35 83.85 L11.5 85.8 Q11.45 87.0 12.25 86.9 13.5 87.0 14.15 89.15 L14.15 89.25 Q14.75 88.9 14.85 87.9 15.0 86.8 15.25 86.5 15.5 85.1 14.5 82.5 13.5 79.95 14.0 78.35 13.65 77.5 12.45 76.9 L12.35 76.85 11.9 76.0 11.2 75.3 10.0 74.65 10.15 74.45 6.55 71.35 Q5.6 70.7 3.3 70.7 0.95 70.7 0.0 70.1 -0.85 69.7 -1.35 68.55 L-2.3 66.7 Q-4.1 68.15 -6.0 69.1 M-7.6 71.5 L-7.75 71.15 Q-11.55 72.6 -14.55 72.2 L-14.6 74.95 -14.55 75.65 -14.3 76.0 -14.45 76.05 -14.35 76.5 -14.25 76.8 -14.1 76.85 -13.65 76.95 -11.6 77.2 -8.65 77.05 -6.45 76.65 -6.05 76.15 Q-6.1 75.0 -6.7 73.6 L-7.6 71.5 M-7.1 71.35 L-6.95 71.55 -6.55 72.25 -6.4 72.65 -5.9 74.4 -5.65 75.6 -5.5 76.8 Q-5.1 77.3 -5.7 77.6 L-5.75 77.7 -9.8 78.2 -10.95 78.2 Q-12.6 78.15 -14.0 77.35 L-14.15 77.15 -14.15 77.2 Q-14.45 77.35 -14.7 76.95 L-14.85 76.6 -15.2 74.15 -15.1 72.7 -14.8 71.9 -14.35 71.75 -14.0 71.75 -10.75 71.4 -9.7 71.3 -8.3 71.15 -7.75 71.15 -7.1 71.35 M1.9 97.5 Q2.35 98.2 3.5 98.25 3.55 97.85 4.15 97.65 L5.15 97.35 8.05 97.65 Q9.35 98.2 10.25 99.5 10.7 99.05 11.6 98.95 L13.05 98.75 13.35 96.1 13.5 95.35 Q13.8 94.4 14.35 93.7 9.9 95.4 7.15 94.35 L5.75 93.25 Q4.9 92.4 4.35 92.4 L2.5 93.05 Q1.4 93.45 1.1 94.05 L1.55 95.4 1.65 96.7 Q1.7 97.15 1.9 97.5 M-8.45 95.1 L-9.3 95.25 Q-7.85 96.6 -5.55 97.65 L-4.85 97.95 -5.35 97.3 -5.75 96.6 Q-7.4 96.0 -7.65 95.25 L-8.45 95.1 M0.5 97.85 L-0.15 97.5 Q-0.65 97.0 -0.3 96.3 L0.0 95.05 Q-0.8 95.15 -2.25 95.8 L-4.5 96.6 Q-2.75 98.25 -2.75 100.15 L-2.75 100.25 -0.75 100.55 Q0.4 100.7 1.1 101.25 1.8 101.55 2.25 100.75 L3.15 99.4 0.75 98.0 0.5 97.85 M7.6 89.25 Q7.35 89.85 6.3 90.3 5.4 90.7 5.3 91.4 L6.55 92.35 Q7.3 92.95 7.95 92.95 8.3 91.8 7.6 89.25" fill="#000000" fill-rule="evenodd" stroke="none"/>
    <path d="M-10.85 2.5 L-10.9 2.35 -10.7 2.4 -10.85 2.5 M4.3 68.2 L5.45 68.35 5.95 68.4 6.15 68.45 7.25 69.75 7.15 70.1 Q6.9 69.45 5.15 68.8 4.55 68.55 4.3 68.2 M-9.55 37.55 L-10.05 37.5 -15.2 37.9 -17.75 39.15 Q-17.75 38.5 -18.35 37.8 L-19.3 36.7 -18.1 34.65 Q-17.3 33.45 -17.3 32.5 L-19.3 30.6 Q-16.9 28.75 -16.5 27.35 -16.3 26.85 -16.5 26.25 L-17.0 25.35 Q-17.6 24.35 -16.3 23.75 -15.25 23.5 -15.1 21.6 -15.1 20.7 -16.0 19.55 L-14.75 17.65 Q-14.0 16.45 -14.65 15.65 -14.65 15.05 -13.55 14.1 L-13.15 13.7 -13.35 13.1 -13.45 12.45 -13.2 11.95 -13.55 11.15 -12.8 10.9 Q-11.85 10.45 -11.65 9.5 L-11.65 8.6 -11.65 8.55 -11.65 8.5 -11.7 8.4 -11.7 8.3 -11.75 8.15 -11.8 8.0 -11.85 7.9 -11.95 7.7 -10.7 6.65 -10.95 6.85 Q-11.35 6.35 -11.2 5.75 L-11.2 5.5 Q-11.3 4.95 -11.05 4.6 -11.3 4.3 -11.15 3.8 L-10.7 3.35 -10.1 3.3 -8.65 3.2 -8.25 2.4 -8.15 1.4 Q-8.15 0.65 -8.3 -0.05 L-7.9 -0.15 -7.8 -0.2 -7.35 -0.6 Q-6.5 -1.1 -6.15 -1.95 L-5.95 -2.75 -3.6 -3.85 -0.85 -4.7 3.1 -4.6 5.2 -4.0 5.55 -3.8 5.7 -3.7 4.75 -2.75 4.65 -2.8 Q3.0 -4.25 0.75 -4.6 -0.6 -4.55 -0.55 -3.3 -0.55 -2.9 -0.15 -2.75 L0.5 -2.5 Q2.1 -1.65 3.75 -1.6 L2.25 0.5 2.15 0.45 Q0.1 -0.75 -2.2 -1.05 L-3.95 -0.8 -5.1 -0.1 Q-5.05 0.75 -3.95 0.75 -2.9 0.75 -2.05 1.2 -0.65 2.0 0.9 2.65 L-0.9 5.5 Q-3.3 3.95 -6.2 3.95 -6.65 3.9 -7.1 4.2 L-7.55 4.7 -7.55 4.8 -7.55 5.0 -7.5 5.1 -6.8 5.65 -5.95 5.85 Q-4.65 6.1 -3.5 6.7 L-2.1 7.6 -2.3 8.6 -2.3 8.75 -2.35 8.8 -2.3 8.8 -2.3 8.9 -2.4 8.8 -3.3 10.2 -3.5 10.7 -3.55 10.65 -5.1 9.8 Q-6.55 9.0 -8.2 9.05 L-8.7 9.15 -9.55 9.4 Q-10.5 10.1 -9.55 10.75 L-7.25 11.0 Q-6.65 11.15 -6.15 11.5 L-4.3 12.65 -5.2 15.0 -5.8 14.7 Q-8.0 13.7 -10.4 13.75 -11.25 13.85 -11.95 14.45 -12.3 14.75 -12.1 15.15 -11.8 15.85 -10.9 15.65 L-8.95 15.75 -5.65 17.1 -5.95 17.0 -6.7 19.4 -10.95 18.5 -11.7 18.55 Q-12.8 18.6 -13.6 19.25 -13.8 19.45 -13.65 19.65 -13.15 20.3 -12.2 20.25 L-10.8 20.35 -7.3 21.4 -7.4 21.65 -8.25 25.05 Q-10.05 24.25 -12.2 24.4 L-13.4 24.6 Q-14.6 24.75 -15.0 25.85 L-14.95 26.15 Q-14.2 26.9 -13.0 26.65 L-9.35 26.9 -8.75 27.15 -9.4 30.75 -12.5 30.4 -15.95 30.8 -16.35 31.55 Q-16.35 32.85 -15.0 32.65 L-12.25 32.55 -9.7 32.65 -9.8 33.4 -9.9 34.3 -12.2 34.15 -12.2 34.2 -14.05 34.35 -14.5 34.45 -15.65 34.8 Q-16.45 35.0 -16.8 35.65 -17.05 36.05 -16.85 36.45 -16.3 37.55 -15.0 36.95 -13.45 36.2 -11.7 36.2 L-10.35 36.4 -9.3 36.65 -10.0 36.5 -9.95 37.5 -9.55 37.55 M11.75 5.4 L11.75 5.35 11.5 7.65 11.05 7.8 Q10.7 7.9 10.45 8.15 9.5 8.95 9.55 10.15 9.55 11.35 10.3 12.25 L9.4 12.45 Q9.1 12.5 8.95 12.75 L8.6 13.4 Q8.25 14.65 8.8 15.9 8.0 16.45 7.7 17.35 L7.45 17.9 Q7.2 18.55 7.2 19.25 L6.2 20.15 5.95 19.5 6.6 21.7 Q6.7 22.4 6.25 22.75 L6.25 22.85 6.55 23.6 Q5.45 23.4 4.7 24.05 4.1 24.5 3.7 25.5 L3.7 25.85 Q3.7 26.8 4.25 27.65 L3.0 28.1 Q2.3 28.35 2.15 29.0 2.1 29.45 2.35 30.0 L2.8 30.75 Q1.75 30.9 0.35 31.8 L0.55 33.4 0.95 34.9 Q0.7 35.2 -0.3 35.55 -1.15 35.8 -1.2 36.5 L-0.7 38.05 Q-0.25 39.0 -0.3 39.5 L-1.5 40.05 Q-2.25 40.35 -2.2 41.05 L-2.75 40.55 -3.7 39.8 Q-3.55 39.2 -2.75 38.55 L-1.85 37.5 Q-3.05 34.8 -1.05 32.5 L-0.2 31.65 Q-0.6 30.4 -0.45 29.0 L-0.05 28.05 Q0.95 26.6 2.4 25.5 2.35 22.75 4.3 20.75 L4.55 20.3 Q4.85 19.2 5.65 18.65 L5.4 18.15 5.85 18.0 6.0 17.8 Q6.8 17.05 6.9 16.05 7.05 14.1 7.85 12.25 L8.65 10.75 9.45 9.25 11.75 5.4 M-2.3 84.35 L-2.55 84.1 -1.75 83.8 Q-4.2 76.9 -5.75 69.7 -5.8 69.35 -6.0 69.1 -4.1 68.15 -2.3 66.7 L-1.35 68.55 Q-0.85 69.7 0.0 70.1 0.95 70.7 3.3 70.7 5.6 70.7 6.55 71.35 L10.15 74.45 10.0 74.65 8.1 77.45 7.05 79.35 6.55 80.7 5.45 80.4 4.35 80.5 Q2.45 82.4 4.25 86.9 4.95 87.35 5.1 88.4 L5.15 90.15 Q4.35 90.2 2.5 91.25 L1.9 91.55 Q0.6 92.3 -0.45 92.25 L-1.15 92.1 -1.4 92.05 Q-2.25 92.4 -2.65 91.7 L-3.3 90.35 Q-2.55 89.7 -2.95 89.1 -1.4 89.9 0.05 88.6 1.45 87.35 0.55 85.7 -0.35 84.05 -2.3 84.35 M-12.6 89.15 L-11.95 88.05 -11.4 89.25 -11.65 89.35 Q-11.75 89.9 -10.95 90.2 L-9.75 90.6 -9.65 90.6 -9.75 90.6 -9.75 90.65 -9.7 92.4 -9.25 93.95 -9.2 94.05 -11.5 93.9 Q-12.2 92.45 -13.25 91.9 L-13.35 91.85 -13.1 91.8 -12.55 91.45 Q-11.35 90.05 -12.6 89.15 M-7.25 87.05 L-7.15 86.85 -6.9 87.4 -6.45 87.7 -5.9 87.8 -6.15 88.0 -6.2 88.05 -5.9 88.45 -5.8 88.6 -4.7 89.6 Q-3.65 90.45 -3.85 91.6 L-3.15 93.05 Q-2.6 93.9 -1.7 93.6 L-1.75 93.65 -1.8 93.7 -2.2 94.2 -2.7 93.7 -2.85 93.55 -2.75 93.7 -2.4 94.35 -2.8 94.55 -2.9 94.65 -4.3 95.15 Q-5.5 95.6 -6.05 94.5 -6.55 93.55 -7.2 93.35 L-7.75 93.25 Q-8.5 92.6 -8.9 91.4 L-9.15 90.5 -9.2 89.8 Q-8.3 90.95 -6.65 90.6 -5.65 89.7 -6.2 88.5 -6.65 87.6 -7.25 87.05 M-4.5 87.9 L-4.05 87.8 -4.05 87.85 -3.8 88.4 -4.1 88.2 -4.5 87.9 M-14.45 22.85 L-14.4 22.9 -14.35 22.8 -14.45 22.85 M-14.55 91.6 L-14.95 91.6 -15.15 91.2 -15.15 91.1 -14.55 91.6" fill="#4e4e4e" fill-rule="evenodd" stroke="none"/>
    <path d="M-9.3 36.65 L-10.35 36.4 -11.7 36.2 Q-13.45 36.2 -15.0 36.95 -16.3 37.55 -16.85 36.45 -17.05 36.05 -16.8 35.65 -16.45 35.0 -15.65 34.8 L-14.5 34.45 -14.05 34.35 -12.2 34.2 -12.2 34.15 -9.9 34.3 Q-8.65 34.5 -7.5 35.1 -7.15 35.25 -6.95 35.55 L-6.8 35.85 -6.75 35.9 -6.65 36.0 -6.6 36.1 -6.55 36.15 -6.55 36.25 -6.55 36.3 -6.55 36.4 -6.6 36.45 -6.7 36.6 -6.8 36.65 -6.95 36.7 -7.15 36.65 -7.25 36.65 -9.3 36.65 M-9.7 32.65 L-12.25 32.55 -15.0 32.65 Q-16.35 32.85 -16.35 31.55 L-15.95 30.8 -12.5 30.4 -9.4 30.75 -8.65 31.05 -7.9 31.45 Q-7.35 31.75 -7.65 32.25 -7.95 32.7 -8.5 32.7 L-9.7 32.65 M-8.75 27.15 L-9.35 26.9 -13.0 26.65 Q-14.2 26.9 -14.95 26.15 L-15.0 25.85 Q-14.6 24.75 -13.4 24.6 L-12.2 24.4 Q-10.05 24.25 -8.25 25.05 -7.4 25.4 -6.6 26.0 L-5.75 26.55 Q-5.25 26.85 -5.05 27.3 -4.9 27.7 -5.15 27.95 L-5.4 28.15 -8.2 27.3 -8.4 27.25 -8.75 27.15 M-7.3 21.4 L-10.8 20.35 -12.2 20.25 Q-13.15 20.3 -13.65 19.65 -13.8 19.45 -13.6 19.25 -12.8 18.6 -11.7 18.55 L-10.95 18.5 -6.7 19.4 -5.3 19.9 Q-3.75 20.5 -2.5 21.65 -2.3 21.8 -2.35 22.1 -2.5 23.4 -3.85 22.8 L-5.2 22.2 -5.35 22.15 -6.6 21.65 -7.3 21.4 M-5.65 17.1 L-8.95 15.75 -10.9 15.65 Q-11.8 15.85 -12.1 15.15 -12.3 14.75 -11.95 14.45 -11.25 13.85 -10.4 13.75 -8.0 13.7 -5.8 14.7 L-5.2 15.0 Q-3.9 15.6 -2.65 16.35 -1.4 17.1 -0.9 18.3 L-0.9 18.7 -1.2 19.15 Q-2.3 19.4 -3.25 18.6 -3.75 18.1 -4.4 17.75 L-4.5 17.7 Q-5.1 17.35 -5.65 17.1 M-4.3 12.65 L-6.15 11.5 Q-6.65 11.15 -7.25 11.0 L-9.55 10.75 Q-10.5 10.1 -9.55 9.4 L-8.7 9.15 -8.2 9.05 Q-6.55 9.0 -5.1 9.8 L-3.55 10.65 -3.5 10.7 Q-2.6 11.15 -1.95 11.95 L-1.75 12.3 Q-1.4 12.55 -1.35 12.95 -1.2 13.5 -1.75 13.8 L-2.2 13.8 -2.2 13.75 -2.65 13.45 -2.7 13.4 -4.3 12.65 M-2.1 7.6 L-3.5 6.7 Q-4.65 6.1 -5.95 5.85 L-6.8 5.65 -7.5 5.1 -7.55 5.0 -7.55 4.8 -7.55 4.7 -7.1 4.2 Q-6.65 3.9 -6.2 3.95 -3.3 3.95 -0.9 5.5 L-0.45 5.8 1.05 7.15 2.15 9.05 Q2.35 9.55 1.95 9.95 1.05 10.85 0.2 9.85 -0.8 8.55 -2.1 7.6 M0.9 2.65 Q-0.65 2.0 -2.05 1.2 -2.9 0.75 -3.95 0.75 -5.05 0.75 -5.1 -0.1 L-3.95 -0.8 -2.2 -1.05 Q0.1 -0.75 2.15 0.45 L2.25 0.5 3.05 0.95 Q4.45 1.75 4.55 3.25 L4.4 3.65 4.2 3.8 3.8 3.85 Q3.2 3.85 2.9 3.35 L0.9 2.65 M3.75 -1.6 Q2.1 -1.65 0.5 -2.5 L-0.15 -2.75 Q-0.55 -2.9 -0.55 -3.3 -0.6 -4.55 0.75 -4.6 3.0 -4.25 4.65 -2.8 L4.75 -2.75 Q5.35 -2.15 4.5 -1.75 L3.9 -1.6 3.75 -1.6 M-6.0 69.1 Q-5.8 69.35 -5.75 69.7 -4.2 76.9 -1.75 83.8 L-2.55 84.1 -2.3 84.35 -2.5 84.4 -2.5 84.45 -3.2 84.7 -3.35 84.75 Q-4.5 86.0 -4.05 87.8 L-4.5 87.9 -4.85 87.5 -5.6 87.7 -5.9 87.8 -6.45 87.7 -6.9 87.4 -7.15 86.85 -7.25 87.05 Q-7.85 86.55 -8.55 86.3 -10.6 86.8 -9.8 88.8 L-10.35 88.85 -11.4 89.25 -11.95 88.05 -12.6 89.15 -13.1 88.85 -13.1 88.75 Q-13.3 87.6 -14.3 87.5 L-14.35 87.5 -14.35 87.55 -15.05 87.7 -15.6 88.45 -15.6 88.25 -15.6 88.1 -15.7 87.25 Q-16.0 85.7 -16.75 84.9 L-17.4 84.9 Q-16.45 79.85 -16.15 76.1 L-16.15 76.0 -16.15 75.95 -16.1 75.65 -16.25 75.0 -16.3 74.65 -16.3 74.6 -16.25 74.25 -16.05 72.7 -15.7 71.9 -16.0 71.8 Q-16.1 71.2 -15.35 71.1 L-14.15 70.7 -13.1 70.75 -12.85 70.75 Q-9.3 70.7 -6.0 69.1 M-7.1 71.35 L-7.75 71.15 -8.3 71.15 -9.7 71.3 -10.75 71.4 -14.0 71.75 -14.35 71.75 -14.8 71.9 -15.1 72.7 -15.2 74.15 -14.85 76.6 -14.7 76.95 Q-14.45 77.35 -14.15 77.2 L-14.15 77.15 -14.0 77.35 Q-12.6 78.15 -10.95 78.2 L-9.8 78.2 -5.75 77.7 -5.7 77.6 Q-5.1 77.3 -5.5 76.8 L-5.65 75.6 -5.9 74.4 -6.4 72.65 -6.55 72.25 -6.95 71.55 -7.1 71.35 M-16.0 76.05 L-16.0 76.0 -16.0 76.05" fill="#666666" fill-rule="evenodd" stroke="none"/>
    <path d="M5.7 -3.7 L6.3 -4.25 5.8 -3.8 5.9 -3.75 Q7.25 -3.1 8.25 -1.95 9.35 -0.65 10.05 0.95 10.9 3.0 11.4 5.15 L11.45 5.25 11.55 5.7 11.75 5.4 9.45 9.25 8.65 10.75 7.85 12.25 Q7.05 14.1 6.9 16.05 6.8 17.05 6.0 17.8 L5.85 18.0 5.4 18.15 5.65 18.65 Q4.85 19.2 4.55 20.3 L4.3 20.75 Q2.35 22.75 2.4 25.5 0.95 26.6 -0.05 28.05 L-0.45 29.0 Q-0.6 30.4 -0.2 31.65 L-1.05 32.5 Q-3.05 34.8 -1.85 37.5 L-2.75 38.55 Q-3.55 39.2 -3.7 39.8 L-4.85 39.1 Q-5.8 38.6 -6.85 38.25 L-6.95 38.2 -8.3 37.8 -9.55 37.55 -9.95 37.5 -10.0 36.5 -9.3 36.65 -7.25 36.65 -7.15 36.65 -6.95 36.7 -6.8 36.65 -6.7 36.6 -6.6 36.45 -6.55 36.4 -6.55 36.3 -6.55 36.25 -6.55 36.15 -6.6 36.1 -6.65 36.0 -6.75 35.9 -6.8 35.85 -6.95 35.55 Q-7.15 35.25 -7.5 35.1 -8.65 34.5 -9.9 34.3 L-9.8 33.4 -9.7 32.65 -8.5 32.7 Q-7.95 32.7 -7.65 32.25 -7.35 31.75 -7.9 31.45 L-8.65 31.05 -9.4 30.75 -8.75 27.15 -8.4 27.25 -8.2 27.3 -5.4 28.15 -5.15 27.95 Q-4.9 27.7 -5.05 27.3 -5.25 26.85 -5.75 26.55 L-6.6 26.0 Q-7.4 25.4 -8.25 25.05 L-7.4 21.65 -7.3 21.4 -6.6 21.65 -5.35 22.15 -5.2 22.2 -3.85 22.8 Q-2.5 23.4 -2.35 22.1 -2.3 21.8 -2.5 21.65 -3.75 20.5 -5.3 19.9 L-6.7 19.4 -5.95 17.0 -5.65 17.1 Q-5.1 17.35 -4.5 17.7 L-4.4 17.75 Q-3.75 18.1 -3.25 18.6 -2.3 19.4 -1.2 19.15 L-0.9 18.7 -0.9 18.3 Q-1.4 17.1 -2.65 16.35 -3.9 15.6 -5.2 15.0 L-4.3 12.65 -2.7 13.4 -2.65 13.45 -2.2 13.75 -2.2 13.8 -1.75 13.8 Q-1.2 13.5 -1.35 12.95 -1.4 12.55 -1.75 12.3 L-1.95 11.95 Q-2.6 11.15 -3.5 10.7 L-3.3 10.2 -2.4 8.8 -2.3 8.9 -2.3 8.8 -2.2 8.8 -2.3 8.75 -2.3 8.6 -2.1 7.6 Q-0.8 8.55 0.2 9.85 1.05 10.85 1.95 9.95 2.35 9.55 2.15 9.05 L1.05 7.15 -0.45 5.8 -0.9 5.5 0.9 2.65 2.9 3.35 Q3.2 3.85 3.8 3.85 L4.2 3.8 4.4 3.65 4.55 3.25 Q4.45 1.75 3.05 0.95 L2.25 0.5 3.75 -1.6 3.9 -1.6 4.5 -1.75 Q5.35 -2.15 4.75 -2.75 L5.7 -3.7 M3.2 21.8 L3.1 21.7 3.1 21.75 3.15 21.8 3.25 21.9 3.2 21.8 M-16.3 74.65 L-16.25 75.0 -16.1 75.65 -16.15 75.95 -16.15 76.0 -16.15 76.1 -16.3 74.65 M-11.4 89.25 L-10.35 88.85 -9.8 88.8 -9.2 89.8 -9.15 90.5 -8.9 91.4 Q-8.5 92.6 -7.75 93.25 L-7.2 93.35 -8.05 93.9 -9.15 93.95 -9.25 93.95 -9.7 92.4 -9.75 90.65 -9.75 90.6 -9.65 90.6 -9.75 90.6 -10.95 90.2 Q-11.75 89.9 -11.65 89.35 L-11.4 89.25 M-5.9 87.8 L-5.6 87.7 -4.85 87.5 -4.5 87.9 -4.1 88.2 -3.8 88.4 -3.35 88.85 -2.95 89.1 Q-2.55 89.7 -3.3 90.35 L-2.65 91.7 Q-2.25 92.4 -1.4 92.05 L-1.15 92.1 -0.45 92.25 -0.6 92.75 Q-0.8 93.35 -1.45 93.55 L-1.75 93.65 -1.7 93.6 Q-2.6 93.9 -3.15 93.05 L-3.85 91.6 Q-3.65 90.45 -4.7 89.6 L-5.8 88.6 -5.9 88.45 -6.2 88.05 -6.15 88.0 -5.9 87.8 M7.05 79.35 L8.1 77.45 10.0 74.65 11.2 75.3 11.9 76.0 12.35 76.85 10.6 75.7 9.85 77.0 8.7 78.95 8.85 79.9 Q7.65 79.9 7.05 79.35 M-13.45 76.4 L-13.4 76.45 -13.4 76.5 -13.45 76.4 M-16.0 76.05 L-16.0 76.0 -16.0 76.05 M-2.7 93.7 L-2.75 93.7 -2.85 93.55 -2.7 93.7" fill="#333333" fill-rule="evenodd" stroke="none"/>
    <path d="M-2.3 8.8 L-2.35 8.8 -2.3 8.75 -2.2 8.8 -2.3 8.8" fill="#414141" fill-rule="evenodd" stroke="none"/>
    <path d="M3.2 21.8 L3.25 21.9 3.15 21.8 3.1 21.75 3.1 21.7 3.2 21.8 M-15.6 88.45 L-15.05 87.7 -14.35 87.55 -14.3 87.5 Q-13.3 87.6 -13.1 88.75 L-13.1 88.85 -12.6 89.15 Q-11.35 90.05 -12.55 91.45 L-13.1 91.8 -13.35 91.85 -14.55 91.6 -15.15 91.1 -15.7 90.0 Q-15.95 89.15 -15.6 88.45 M-9.8 88.8 Q-10.6 86.8 -8.55 86.3 -7.85 86.55 -7.25 87.05 -6.65 87.6 -6.2 88.5 -5.65 89.7 -6.65 90.6 -8.3 90.95 -9.2 89.8 L-9.8 88.8 M-4.05 87.8 Q-4.5 86.0 -3.35 84.75 L-3.2 84.7 -2.5 84.45 -2.5 84.4 -2.3 84.35 Q-0.35 84.05 0.55 85.7 1.45 87.35 0.05 88.6 -1.4 89.9 -2.95 89.1 L-3.35 88.85 -3.8 88.4 -4.05 87.85 -4.05 87.8 M-14.45 22.85 L-14.35 22.8 -14.4 22.9 -14.45 22.85" fill="#999999" fill-rule="evenodd" stroke="none"/>
    <path d="M-1.95 45.4 Q-1.45 47.9 -0.75 48.8 -0.6 53.85 -3.3 57.05 -6.1 55.35 -10.0 55.2 -14.05 55.05 -16.75 56.7 -17.35 58.3 -18.55 57.5 L-19.55 56.65 Q-20.15 56.15 -20.55 56.1 -23.25 51.0 -21.6 46.45 -20.15 43.15 -19.2 42.05 -17.4 39.75 -14.75 39.95 -8.85 38.95 -3.4 42.15 -2.45 43.1 -1.95 45.4 M-3.85 58.45 L-3.75 58.45 -3.75 60.8 -10.45 61.35 -11.45 61.4 Q-11.65 59.25 -12.75 58.15 -7.45 56.1 -3.85 58.45 M-11.75 63.8 L-9.6 63.45 -3.85 62.6 -2.95 64.35 Q-2.8 65.3 -3.85 66.1 L-5.75 67.15 Q-8.3 68.55 -11.35 68.85 L-11.1 66.85 Q-10.65 64.75 -11.75 63.8 M-20.3 46.2 Q-20.65 47.7 -20.3 49.5 L-19.75 50.9 Q-16.7 55.8 -11.0 53.0 L-9.25 51.1 Q-6.65 48.45 -7.4 44.9 -8.4 40.15 -13.65 40.75 L-15.0 40.95 Q-16.0 41.1 -16.85 41.6 L-18.45 42.8 -18.45 42.85 Q-19.95 44.25 -20.3 46.2" fill="#400040" fill-rule="evenodd" stroke="none"/>
    <path d="M5.8 82.2 L5.7 82.4 Q5.4 83.3 5.8 84.15 L5.6 85.2 5.6 85.6 Q5.0 84.35 4.5 81.95 5.35 81.85 5.8 82.2 M-3.85 58.45 L-3.75 58.25 -3.75 58.45 -3.85 58.45" fill="#ffffff" fill-rule="evenodd" stroke="none"/>
    <path d="M-13.65 76.95 L-14.1 76.85 -14.25 76.8 -14.35 76.5 -14.45 76.05 -14.3 76.0 -14.55 75.65 -14.6 74.95 -14.55 72.2 Q-11.55 72.6 -7.75 71.15 L-7.6 71.5 -7.8 71.65 -8.95 72.95 Q-9.9 73.45 -11.2 73.55 L-13.95 73.35 Q-13.65 73.9 -13.55 74.9 L-13.4 76.45 -13.45 76.4 Q-13.75 76.55 -13.65 76.95 M14.15 89.15 L13.9 87.1 13.5 83.65 13.15 82.0 11.8 78.35 11.65 78.25 9.85 77.0 10.6 75.7 12.35 76.85 12.45 76.9 Q13.65 77.5 14.0 78.35 13.5 79.95 14.5 82.5 15.5 85.1 15.25 86.5 15.0 86.8 14.85 87.9 14.75 88.9 14.15 89.25 L14.15 89.15 M13.5 95.35 L13.35 96.1 13.05 98.75 11.6 98.95 Q10.7 99.05 10.25 99.5 9.35 98.2 8.05 97.65 L5.15 97.35 4.15 97.65 Q3.55 97.85 3.5 98.25 2.35 98.2 1.9 97.5 2.1 96.95 2.55 96.55 4.35 95.1 6.55 96.0 L7.8 96.3 11.65 96.7 11.75 96.65 Q12.6 95.9 13.5 95.35 M0.5 97.85 L0.75 98.0 3.15 99.4 2.25 100.75 Q1.8 101.55 1.1 101.25 0.4 100.7 -0.75 100.55 L-2.75 100.25 -2.75 100.15 -2.75 99.7 -2.45 99.35 Q-1.8 98.85 -1.0 98.7 L-0.75 98.55 Q-0.3 98.05 0.2 97.7 L0.5 97.85" fill="#666633" fill-rule="evenodd" stroke="none"/>
    <path d="M-13.65 76.95 Q-13.75 76.55 -13.45 76.4 L-13.4 76.5 -13.4 76.45 -13.55 74.9 Q-13.65 73.9 -13.95 73.35 L-11.2 73.55 Q-9.9 73.45 -8.95 72.95 L-7.8 71.65 -7.6 71.5 -6.7 73.6 Q-6.1 75.0 -6.05 76.15 L-6.45 76.65 -8.65 77.05 -11.6 77.2 -13.65 76.95 M9.85 77.0 L11.65 78.25 11.8 78.35 13.15 82.0 13.5 83.65 13.9 87.1 14.15 89.15 Q13.5 87.0 12.25 86.9 11.45 87.0 11.5 85.8 L11.35 83.85 Q11.7 82.5 10.15 81.25 L9.05 80.2 8.85 79.9 8.7 78.95 9.85 77.0 M1.9 97.5 Q1.7 97.15 1.65 96.7 L1.55 95.4 1.1 94.05 Q1.4 93.45 2.5 93.05 L4.35 92.4 Q4.9 92.4 5.75 93.25 L7.15 94.35 Q9.9 95.4 14.35 93.7 13.8 94.4 13.5 95.35 12.6 95.9 11.75 96.65 L11.65 96.7 7.8 96.3 6.55 96.0 Q4.35 95.1 2.55 96.55 2.1 96.95 1.9 97.5 M-8.45 95.1 L-7.65 95.25 Q-7.4 96.0 -5.75 96.6 L-5.35 97.3 -4.85 97.95 -5.55 97.65 Q-7.85 96.6 -9.3 95.25 L-8.45 95.1 M-2.75 100.15 Q-2.75 98.25 -4.5 96.6 L-2.25 95.8 Q-0.8 95.15 0.0 95.05 L-0.3 96.3 Q-0.65 97.0 -0.15 97.5 L0.5 97.85 0.2 97.7 Q-0.3 98.05 -0.75 98.55 L-1.0 98.7 Q-1.8 98.85 -2.45 99.35 L-2.75 99.7 -2.75 100.15 M7.6 89.25 Q8.3 91.8 7.95 92.95 7.3 92.95 6.55 92.35 L5.3 91.4 Q5.4 90.7 6.3 90.3 7.35 89.85 7.6 89.25" fill="#999966" fill-rule="evenodd" stroke="none"/>
    <path d="M-11.45 61.4 L-14.35 61.7 Q-13.2 60.2 -15.65 59.5 L-15.7 59.5 Q-14.2 58.65 -12.75 58.15 -11.65 59.25 -11.45 61.4 M-16.05 61.95 L-17.1 62.15 Q-17.35 61.45 -17.05 60.7 L-16.75 60.15 -16.7 60.1 -16.95 60.5 -17.05 60.7 Q-17.35 61.45 -16.6 62.05 L-16.05 61.95 M-11.35 68.85 L-14.05 68.85 -13.5 68.2 Q-12.6 66.75 -13.85 65.8 L-13.9 65.65 -14.05 65.5 -14.45 65.3 -14.8 65.4 -15.05 65.5 -15.05 65.55 -15.35 65.5 -15.75 65.95 -15.2 64.35 -11.75 63.8 Q-10.65 64.75 -11.1 66.85 L-11.35 68.85 M-15.3 68.7 L-15.55 68.7 -15.8 68.05 -15.6 68.6 -15.3 68.7 M-18.45 42.8 L-16.85 41.6 Q-16.0 41.1 -15.0 40.95 L-13.65 40.75 Q-8.4 40.15 -7.4 44.9 -6.65 48.45 -9.25 51.1 L-11.0 53.0 Q-16.7 55.8 -19.75 50.9 L-20.3 49.5 Q-20.65 47.7 -20.3 46.2 L-20.3 46.4 Q-19.65 50.45 -15.4 49.15 -14.05 47.9 -13.5 46.05 -12.35 41.9 -16.9 41.95 L-18.45 42.8" fill="#54035a" fill-rule="evenodd" stroke="none"/>
    <path d="M-14.35 61.7 L-15.3 61.8 -16.05 61.95 -16.6 62.05 Q-17.35 61.45 -17.05 60.7 L-16.95 60.5 -16.7 60.1 Q-16.2 59.75 -15.7 59.5 L-15.65 59.5 Q-13.2 60.2 -14.35 61.7 M-14.05 68.85 L-14.35 68.8 -15.25 68.75 -15.3 68.7 -15.6 68.6 -15.8 68.05 -15.8 66.15 -15.75 65.95 -15.35 65.5 -15.05 65.55 -15.05 65.5 -14.8 65.4 -14.45 65.3 -14.05 65.5 -13.9 65.65 -13.85 65.8 Q-12.6 66.75 -13.5 68.2 L-14.05 68.85 M-18.45 42.8 L-16.9 41.95 Q-12.35 41.9 -13.5 46.05 -14.05 47.9 -15.4 49.15 -19.65 50.45 -20.3 46.4 L-20.3 46.2 Q-19.95 44.25 -18.45 42.85 L-18.45 42.8" fill="#663399" fill-rule="evenodd" stroke="none"/>
    <path d="M-14.35 87.55 L-14.35 87.5 -14.3 87.5 -14.35 87.55" fill="#cccccc" fill-rule="evenodd" stroke="none"/>
  </g>
</svg>
