<?xml version="1.0" encoding="UTF-8" standalone="no"?>
<svg xmlns:xlink="http://www.w3.org/1999/xlink" height="103.1px" width="52.4px" xmlns="http://www.w3.org/2000/svg">
  <g transform="matrix(1.0, 0.0, 0.0, 1.0, 38.7, 15.5)">
    <path d="M11.7 -9.05 Q14.25 -3.6 13.55 2.4 12.9 8.4 9.15 13.05 L3.2 19.65 Q0.3 22.85 -1.9 26.8 -2.2 28.1 -2.8 29.4 -3.4 30.65 -2.85 32.0 -1.15 34.45 -0.75 37.55 -0.4 40.6 -0.7 43.85 L-2.15 51.7 -0.2 55.75 Q0.7 57.8 2.95 58.8 4.0 60.3 4.35 62.2 4.65 64.1 5.7 65.65 6.85 66.95 7.15 68.65 6.95 69.7 6.25 70.6 L4.9 72.3 Q2.55 73.9 -0.35 74.5 -3.25 75.1 -5.5 76.95 -6.8 78.15 -7.45 79.7 -10.35 83.15 -14.8 82.55 -16.55 84.35 -19.1 84.6 -21.65 84.8 -22.95 87.05 L-23.0 87.15 Q-23.4 87.8 -24.15 87.55 -24.6 85.8 -24.35 84.0 -24.25 81.25 -23.25 78.7 L-25.9 77.2 Q-27.35 76.6 -28.85 77.2 -30.9 78.6 -33.35 78.9 -35.85 79.2 -38.05 80.1 -38.45 80.05 -38.7 79.7 -38.25 77.7 -36.95 76.05 -35.6 74.4 -34.75 72.6 -33.7 71.7 -32.4 71.35 -30.35 68.9 -27.9 67.6 -25.1 68.3 -22.95 66.6 L-22.5 66.25 Q-20.2 64.15 -17.65 62.8 -15.75 61.85 -14.7 60.15 -15.85 58.0 -17.45 56.1 L-22.35 49.3 -22.95 48.45 Q-24.95 45.35 -25.95 41.9 -28.4 38.35 -27.75 33.85 -29.1 29.0 -28.65 23.8 -28.25 18.5 -27.4 13.85 -26.9 11.1 -25.45 8.75 -24.05 6.35 -23.35 3.8 L-22.95 3.0 Q-19.85 -3.35 -14.45 -8.7 -8.7 -14.45 -0.75 -15.35 3.1 -15.95 6.4 -14.15 9.65 -12.35 11.7 -9.05 M-22.9 82.65 L-22.95 82.75 -23.1 83.2 Q-23.65 84.4 -23.25 85.85 L-20.5 83.5 Q-18.8 83.6 -17.6 82.6 L-15.1 80.75 Q-14.35 81.2 -13.95 80.55 -13.55 79.85 -12.85 79.85 -12.85 80.5 -13.15 81.25 L-11.35 81.25 Q-9.0 80.1 -7.75 77.8 -5.8 75.6 -3.25 74.2 0.35 73.4 3.55 71.7 L5.15 70.3 Q6.0 69.5 5.8 68.35 L4.2 65.5 3.35 64.15 Q3.25 62.25 2.5 60.65 0.55 58.95 -0.55 56.75 L-2.85 52.4 Q-2.95 48.6 -1.95 45.3 -1.55 42.2 -1.75 38.9 -1.95 35.55 -4.8 33.45 L-6.0 34.4 -5.0 35.3 Q-4.15 36.35 -4.4 37.55 L-6.4 35.4 -6.75 35.0 Q-7.15 35.05 -7.45 35.5 -7.8 35.85 -8.2 35.5 -6.25 34.0 -5.05 32.1 -4.3 30.9 -3.85 29.5 L-1.75 22.45 Q0.15 17.95 3.05 14.1 L3.15 14.2 2.1 16.3 Q0.95 18.85 0.4 21.55 2.65 18.35 5.45 15.65 8.2 12.9 10.2 9.6 12.7 4.5 12.55 -0.9 12.4 -6.3 8.45 -10.65 L7.6 -11.4 Q4.55 -13.8 0.9 -14.1 L-0.6 -13.9 -0.75 -13.9 -3.85 -13.2 Q-8.05 -11.95 -11.6 -9.25 -19.9 -2.5 -22.95 7.4 L-23.25 8.4 -23.25 8.6 -24.55 11.25 -24.7 11.7 -25.5 13.3 -25.65 13.9 -25.75 14.2 -25.85 14.5 -25.95 14.8 -26.15 15.55 -26.2 15.8 -27.05 20.2 -27.25 21.7 -27.35 22.65 -27.45 24.9 -27.45 25.3 -27.45 25.5 -27.45 25.7 Q-27.35 28.25 -26.7 30.85 L-26.4 32.05 -26.05 31.75 -26.0 31.6 -25.85 31.35 -25.6 31.25 -25.6 31.3 -25.6 31.4 Q-25.45 31.95 -25.7 32.75 -26.8 34.75 -26.4 36.95 L-26.4 37.0 Q-26.0 39.15 -24.85 41.0 -23.8 41.35 -22.95 42.0 -21.7 42.85 -20.8 44.25 L-20.15 45.55 Q-19.75 46.2 -19.7 46.9 L-21.4 45.7 -22.95 43.9 -24.0 42.85 -24.35 42.85 -24.25 43.0 -22.95 45.35 Q-20.45 49.65 -17.45 53.65 L-15.05 57.0 Q-13.8 58.6 -13.4 60.7 L-13.75 60.95 -13.8 60.95 -14.5 61.55 -15.1 62.2 -16.2 63.0 -20.05 65.9 -22.95 67.8 -25.3 69.0 -25.5 68.8 -27.8 69.1 -27.85 69.1 -28.25 69.25 -28.65 69.35 -28.75 69.55 -28.85 69.6 -28.9 69.65 -28.95 69.65 -29.7 70.3 -29.95 70.55 -30.05 70.6 -30.6 70.95 -31.25 71.8 -30.85 71.7 -31.3 71.8 Q-32.8 72.15 -33.6 73.2 L-35.15 75.55 -36.05 76.9 -36.3 77.35 -36.4 77.55 -36.4 77.6 -36.5 78.1 -36.5 78.3 -36.5 78.4 -36.45 78.4 -32.35 77.6 Q-31.4 76.45 -29.85 76.25 -29.2 76.15 -28.65 75.75 L-28.3 75.7 -27.95 75.6 -27.9 75.6 Q-25.1 76.0 -22.95 77.8 L-22.5 78.15 -22.5 78.1 Q-22.35 78.7 -21.5 78.75 L-21.6 78.95 -22.55 80.65 -22.7 81.8 -22.9 82.65 M-27.25 21.7 L-27.25 21.75 -27.25 21.7 M-8.75 14.7 L-8.8 14.7 -8.8 14.65 -8.75 14.7 M-13.65 44.85 L-13.45 45.4 -13.0 46.3 -12.8 46.65 -10.0 50.4 -10.0 50.7 Q-11.65 50.0 -12.6 48.5 -13.55 47.05 -14.1 45.45 L-14.2 45.15 -14.3 44.25 -14.3 44.2 Q-14.25 43.85 -14.35 43.45 L-14.35 43.0 -14.35 42.65 -14.2 42.15 -13.65 44.85 M-10.5 73.4 L-10.5 73.45 -10.5 73.4 M-23.05 28.95 L-23.1 28.9 -23.05 28.9 -23.05 28.95 M-27.8 69.25 L-27.3 69.95 -27.6 69.5 -28.05 69.3 Q-28.3 69.35 -28.5 69.5 L-27.8 69.25" fill="#000000" fill-rule="evenodd" stroke="none"/>
    <path d="M-3.85 -13.2 L-0.75 -13.9 -0.6 -13.9 0.9 -14.1 Q4.55 -13.8 7.6 -11.4 L8.45 -10.65 Q12.4 -6.3 12.55 -0.9 12.7 4.5 10.2 9.6 8.2 12.9 5.45 15.65 2.65 18.35 0.4 21.55 0.95 18.85 2.1 16.3 L3.15 14.2 3.05 14.1 Q0.15 17.95 -1.75 22.45 L-3.85 29.5 Q-4.3 30.9 -5.05 32.1 -6.25 34.0 -8.2 35.5 -7.8 35.85 -7.45 35.5 -7.15 35.05 -6.75 35.0 L-6.4 35.4 -4.4 37.55 Q-4.15 36.35 -5.0 35.3 L-6.0 34.4 -4.8 33.45 Q-1.95 35.55 -1.75 38.9 -1.55 42.2 -1.95 45.3 -2.95 48.6 -2.85 52.4 L-0.55 56.75 Q0.55 58.95 2.5 60.65 3.25 62.25 3.35 64.15 L4.2 65.5 5.8 68.35 Q6.0 69.5 5.15 70.3 L3.55 71.7 Q0.35 73.4 -3.25 74.2 -5.8 75.6 -7.75 77.8 -9.0 80.1 -11.35 81.25 L-13.15 81.25 Q-12.85 80.5 -12.85 79.85 -13.55 79.85 -13.95 80.55 -14.35 81.2 -15.1 80.75 L-17.6 82.6 Q-18.8 83.6 -20.5 83.5 L-23.25 85.85 Q-23.65 84.4 -23.1 83.2 L-22.95 82.75 -22.9 82.65 Q-20.9 81.6 -18.55 81.25 L-18.55 81.2 -18.2 80.8 -17.65 79.7 Q-18.0 79.2 -17.7 78.9 -17.55 78.95 -17.45 78.8 L-17.2 78.6 -16.55 77.95 -16.5 77.85 -16.55 77.65 -16.6 77.6 -16.65 77.4 -16.65 77.3 -16.65 77.25 Q-16.3 76.9 -16.7 76.4 L-16.75 76.5 -16.55 76.3 -16.15 76.35 Q-15.45 76.55 -15.1 77.25 L-14.8 77.95 -14.65 77.75 -13.7 76.95 Q-12.4 74.95 -10.55 73.4 L-10.5 73.45 -10.5 73.4 Q-10.5 73.1 -10.8 73.05 L-7.95 69.65 Q-6.5 68.1 -4.8 67.25 L-4.7 67.45 Q-4.35 67.9 -3.85 67.65 L-2.85 67.45 Q-4.7 68.3 -5.65 70.15 L-6.0 70.55 -5.6 70.45 -5.1 70.35 -4.6 70.1 Q-3.05 68.75 -1.3 68.0 L-2.25 67.4 Q-4.05 66.15 -3.0 64.4 -2.6 63.7 -1.85 63.75 L-1.45 63.9 -1.55 64.0 -1.8 64.35 Q-1.25 65.5 -0.1 65.55 L0.1 65.55 Q1.85 65.2 2.45 64.05 L1.15 64.65 1.0 64.7 0.65 64.75 0.6 64.75 0.25 64.75 0.25 64.55 0.95 63.7 Q0.2 60.3 -2.2 57.9 L-2.25 57.85 -2.3 57.95 -2.45 58.4 -3.85 57.5 -4.05 57.8 -3.3 59.1 -3.65 59.1 -4.15 59.05 Q-5.05 58.6 -5.55 57.75 L-6.0 56.75 -6.2 56.4 Q-10.0 55.45 -10.85 51.3 L-10.9 50.75 Q-13.6 49.35 -14.55 46.35 -14.75 45.8 -14.4 45.4 L-14.1 45.45 Q-13.55 47.05 -12.6 48.5 -11.65 50.0 -10.0 50.7 L-10.0 50.4 -12.8 46.65 -13.0 46.3 -13.45 45.4 -13.65 44.85 -12.95 44.7 -11.9 45.2 -11.75 45.35 Q-10.95 46.25 -9.9 46.5 L-9.5 46.55 -9.4 46.6 -8.95 46.9 -8.85 46.7 -8.75 46.7 -8.55 46.65 -7.8 46.1 -6.95 45.0 Q-6.2 43.75 -5.7 42.35 L-5.35 41.05 -5.1 40.55 -5.35 40.05 -5.4 39.85 -5.85 39.1 -6.7 38.45 -6.8 38.35 Q-10.9 37.35 -14.95 37.15 L-14.95 37.6 -15.3 39.45 -15.85 41.3 -16.45 43.15 Q-15.45 45.85 -18.1 46.4 -19.1 46.55 -19.55 45.6 -20.85 42.7 -20.35 39.55 L-19.95 36.7 Q-19.8 35.4 -20.35 34.2 L-20.95 32.65 Q-21.6 30.7 -21.55 28.7 L-21.75 28.4 -22.95 29.1 -23.0 29.1 -23.3 29.25 -23.05 28.95 -23.05 28.9 -23.1 28.9 Q-24.85 29.35 -25.1 30.9 L-25.0 31.05 -25.55 31.4 -25.6 31.3 -25.6 31.25 -25.85 31.35 -26.0 31.6 -26.05 31.75 -26.45 31.6 -26.5 31.55 -26.7 30.85 Q-27.35 28.25 -27.45 25.7 L-27.45 25.5 -27.45 25.3 -27.45 24.9 Q-26.4 25.2 -26.75 26.45 L-26.75 27.05 -26.45 27.45 -26.3 27.55 -24.7 27.85 Q-24.35 27.0 -23.65 26.35 L-23.05 25.5 -22.95 25.2 -22.95 24.8 -22.8 24.05 -22.75 23.25 -22.95 22.9 -23.15 22.4 -23.45 22.25 -24.1 19.55 -24.6 16.3 -24.7 15.0 -24.7 14.9 -24.7 11.7 -24.55 11.25 -23.25 8.6 -23.55 14.4 -23.6 15.0 -23.6 15.1 -23.65 15.35 -23.65 15.65 -23.6 16.65 -23.4 17.2 -22.95 17.75 -22.9 17.8 Q-22.1 18.5 -21.05 18.8 L-20.9 18.85 -18.45 18.45 -17.65 18.0 Q-16.4 17.25 -15.5 16.2 -10.3 11.7 -7.05 5.7 -3.8 -0.4 -2.1 -7.1 -1.15 -10.85 -3.85 -13.2 M-28.65 75.75 Q-29.2 76.15 -29.85 76.25 -31.4 76.45 -32.35 77.6 L-36.45 78.4 -36.5 78.3 -36.5 78.1 -36.4 77.6 -36.4 77.55 -36.3 77.45 Q-35.85 76.9 -34.95 76.6 L-29.1 74.35 -28.5 73.65 -28.75 73.3 -28.65 72.95 -28.75 72.85 -28.55 72.6 -28.05 72.55 -27.95 72.5 -26.95 71.8 -27.55 71.1 -28.85 69.75 -28.75 69.7 -28.65 69.6 -28.5 69.5 Q-28.3 69.35 -28.05 69.3 L-27.6 69.5 -27.3 69.95 -27.0 70.45 Q-26.85 70.2 -26.6 70.25 -25.25 70.5 -25.05 71.8 L-25.0 72.05 -24.95 72.0 Q-24.35 71.55 -23.6 71.25 L-22.95 71.1 -21.7 71.0 Q-17.85 70.45 -16.15 73.5 L-15.9 74.2 -16.15 74.3 -16.5 74.4 -17.0 74.55 Q-18.05 73.1 -19.6 73.15 L-22.75 73.55 -22.95 73.55 -24.4 73.5 -27.65 74.45 -27.7 74.5 -28.35 75.5 -28.65 75.75 M-1.1 11.35 L-1.25 11.55 -2.35 12.9 -2.35 13.0 -2.35 13.25 -2.35 13.35 -2.15 13.55 -2.0 13.7 -1.5 13.7 -1.4 13.65 -0.7 12.95 Q0.4 11.7 -1.1 11.35 M-17.95 22.6 L-18.15 22.65 -18.65 22.9 -18.15 22.7 -18.05 22.8 -18.1 23.1 -17.9 22.45 -17.95 22.6 M-12.4 29.0 L-10.55 30.4 -9.1 30.25 -7.85 29.3 -7.85 28.9 -7.45 28.9 -7.45 29.0 -7.1 28.7 Q-5.0 25.0 -4.1 20.95 L-3.75 19.65 -3.75 18.65 Q-4.7 17.65 -6.2 17.4 L-7.0 17.25 -11.3 20.55 -11.8 20.9 -12.6 22.35 -12.65 22.4 -13.2 22.4 -13.3 22.5 -13.8 22.85 Q-16.3 26.0 -14.85 29.85 L-14.4 30.3 Q-12.55 31.1 -12.6 29.25 L-12.4 29.0 M-8.8 14.7 L-8.8 14.75 -8.75 14.7 -8.8 14.65 -8.8 14.7 M-15.4 35.2 L-15.7 34.95 -15.4 35.2 M-13.75 63.25 L-13.5 63.05 -13.25 62.95 -13.2 62.9 Q-12.5 63.1 -12.75 63.75 L-13.2 64.6 Q-14.0 66.1 -15.45 67.0 L-16.35 67.6 -17.5 68.15 Q-18.8 68.85 -20.3 68.6 -20.85 68.55 -20.7 68.05 L-20.6 67.9 -20.4 67.8 -19.75 67.65 -17.35 66.1 -17.3 66.05 -17.2 66.0 -17.15 65.95 -17.1 65.9 -16.15 65.4 -15.3 65.1 -14.85 64.55 -14.7 64.35 -13.75 63.25 M-16.25 70.85 L-16.05 70.65 -15.35 70.25 -13.55 68.65 -13.25 68.3 Q-11.95 66.95 -10.25 66.2 L-10.05 65.95 -9.65 65.4 -8.85 64.75 Q-8.0 64.75 -8.2 65.55 L-8.6 66.35 -9.15 67.1 -10.65 68.6 -12.9 70.25 -13.8 70.85 -15.45 71.65 Q-16.3 72.0 -16.4 71.25 L-16.45 71.15 -16.35 71.1 -16.25 70.85 M4.5 7.5 Q3.75 8.2 3.95 9.15 4.75 9.6 5.45 8.95 L6.05 8.2 6.55 7.0 Q6.7 6.5 6.35 6.3 L6.05 6.2 5.75 6.45 5.4 6.7 5.35 6.75 4.5 7.5 M4.3 2.5 Q4.95 1.25 3.55 1.0 2.15 1.45 1.9 2.95 1.8 3.3 2.1 3.4 3.5 3.9 4.3 2.5" fill="#495c0a" fill-rule="evenodd" stroke="none"/>
    <path d="M-22.9 82.65 L-22.7 81.8 -21.2 79.85 -20.15 78.85 -19.25 77.8 -18.85 78.0 -18.75 78.15 -17.7 78.9 Q-18.0 79.2 -17.65 79.7 L-18.2 80.8 -18.55 81.2 -18.55 81.25 Q-20.9 81.6 -22.9 82.65 M-13.75 60.95 L-13.4 60.7 Q-13.8 58.6 -15.05 57.0 L-17.45 53.65 Q-20.45 49.65 -22.95 45.35 L-24.25 43.0 -24.0 42.85 -22.95 43.9 -21.4 45.7 -19.7 46.9 Q-19.75 46.2 -20.15 45.55 L-20.8 44.25 Q-21.7 42.85 -22.95 42.0 -23.8 41.35 -24.85 41.0 -26.0 39.15 -26.4 37.0 L-26.4 36.95 Q-26.8 34.75 -25.7 32.75 -25.45 31.95 -25.6 31.4 L-25.55 31.4 -25.0 31.05 -24.45 30.45 -23.3 29.3 -23.3 29.25 -23.0 29.1 -22.95 29.1 -21.75 28.4 -21.55 28.7 Q-21.6 30.7 -20.95 32.65 L-20.35 34.2 Q-19.8 35.4 -19.95 36.7 L-20.35 39.55 Q-20.85 42.7 -19.55 45.6 -19.1 46.55 -18.1 46.4 -15.45 45.85 -16.45 43.15 L-15.85 41.3 -15.3 39.45 -14.95 37.6 -14.95 37.15 Q-10.9 37.35 -6.8 38.35 L-6.7 38.45 -5.85 39.1 -5.4 39.85 -5.35 40.05 -5.1 40.55 -5.35 41.05 -5.7 42.35 Q-6.2 43.75 -6.95 45.0 L-7.8 46.1 -8.55 46.65 -8.75 46.7 -8.85 46.7 -8.95 46.9 -9.4 46.6 -9.5 46.55 -9.9 46.5 Q-10.95 46.25 -11.75 45.35 L-11.9 45.2 -12.95 44.7 -13.65 44.85 -14.2 42.15 -14.35 42.65 -14.35 43.0 -14.35 43.45 Q-14.25 43.85 -14.3 44.2 L-14.3 44.25 -14.2 45.15 -14.3 45.25 -14.4 45.4 Q-14.75 45.8 -14.55 46.35 -13.6 49.35 -10.9 50.75 L-10.85 51.3 Q-10.0 55.45 -6.2 56.4 L-6.0 56.75 -5.55 57.75 Q-6.45 58.7 -5.95 59.95 -5.75 60.55 -5.2 60.65 -3.75 60.85 -3.8 59.3 L-3.65 59.1 -3.3 59.1 -3.05 59.45 Q-2.5 60.25 -2.3 61.15 -3.05 61.15 -3.25 61.8 -2.05 61.9 -1.0 61.05 -1.0 59.85 -1.9 58.9 L-2.45 58.4 -2.3 57.95 -2.2 57.9 Q0.2 60.3 0.95 63.7 L0.25 64.55 -0.7 64.2 -1.15 63.85 -1.55 64.0 -1.45 63.9 -1.85 63.75 Q-2.6 63.7 -3.0 64.4 -4.05 66.15 -2.25 67.4 L-1.3 68.0 Q-3.05 68.75 -4.6 70.1 L-5.1 70.35 -5.6 70.45 -5.65 70.15 Q-4.7 68.3 -2.85 67.45 L-3.85 67.65 Q-4.35 67.9 -4.7 67.45 L-4.5 67.05 -4.8 67.25 Q-6.5 68.1 -7.95 69.65 L-10.8 73.05 Q-10.5 73.1 -10.5 73.4 L-10.55 73.4 Q-12.4 74.95 -13.7 76.95 L-14.65 77.75 -14.8 77.95 -15.1 77.25 Q-15.45 76.55 -16.15 76.35 L-16.55 76.3 -16.75 76.5 -17.0 76.1 -17.05 76.1 -17.15 76.15 -17.3 75.85 Q-16.8 75.45 -16.15 75.35 L-15.8 75.3 -15.5 75.25 Q-14.7 75.05 -14.2 74.4 -14.85 73.95 -15.6 74.15 L-15.9 74.2 -16.15 73.5 Q-17.85 70.45 -21.7 71.0 L-22.95 71.1 -23.6 71.25 Q-24.35 71.55 -24.95 72.0 L-25.05 71.8 Q-25.25 70.5 -26.6 70.25 L-26.6 70.0 -25.5 69.85 -25.45 69.8 -25.35 69.7 -23.45 69.3 -22.95 69.1 -20.9 67.8 -20.75 67.7 -20.6 67.9 -20.7 68.05 Q-20.85 68.55 -20.3 68.6 -18.8 68.85 -17.5 68.15 L-16.35 67.6 -15.45 67.0 Q-14.0 66.1 -13.2 64.6 L-12.75 63.75 Q-12.5 63.1 -13.2 62.9 L-13.25 62.95 -13.4 62.65 Q-12.65 61.35 -13.75 60.95 M-27.45 24.9 L-27.35 22.65 -27.25 21.7 -27.05 20.2 -26.2 15.8 -26.15 15.55 -25.95 14.8 -25.85 14.5 -25.75 14.2 -25.65 13.9 -25.5 13.3 -24.7 11.7 -24.7 14.9 -24.7 15.0 -24.6 16.3 -24.1 19.55 -23.45 22.25 -23.15 22.4 -22.95 22.9 -22.75 23.25 -22.8 24.05 -22.95 24.8 -22.95 25.2 -23.05 25.5 -23.65 26.35 Q-24.35 27.0 -24.7 27.85 L-26.3 27.55 -26.45 27.45 -26.75 27.05 -26.75 26.45 Q-26.4 25.2 -27.45 24.9 M-23.25 8.6 L-23.25 8.4 -22.95 7.4 Q-19.9 -2.5 -11.6 -9.25 -8.05 -11.95 -3.85 -13.2 -1.15 -10.85 -2.1 -7.1 -3.8 -0.4 -7.05 5.7 -10.3 11.7 -15.5 16.2 -16.4 17.25 -17.65 18.0 L-18.45 18.45 -20.9 18.85 -21.05 18.8 Q-22.1 18.5 -22.9 17.8 L-22.95 17.75 -23.4 17.2 -23.6 16.65 -23.65 15.65 -23.65 15.35 -23.6 15.1 -23.6 15.0 -23.55 14.4 -23.25 8.6 M-12.45 -6.55 L-14.9 -3.95 Q-17.35 -1.1 -19.25 2.05 -20.85 4.65 -21.5 7.65 -22.05 10.1 -21.5 12.55 L-21.05 12.55 -21.0 12.5 -20.65 11.4 -19.9 8.65 -19.6 8.2 -19.25 7.3 -18.6 6.15 -16.4 2.25 -12.25 -3.25 -7.55 -8.1 -7.1 -8.3 -6.7 -8.5 Q-5.25 -9.35 -4.95 -10.85 L-5.05 -10.95 -5.2 -11.0 -5.85 -11.1 -6.8 -10.85 -7.9 -10.2 Q-10.35 -8.55 -12.45 -6.55 M-6.75 -1.6 L-7.5 -1.7 -7.6 -1.7 Q-9.2 -0.75 -9.55 1.3 L-9.45 1.5 Q-8.45 1.9 -7.65 1.1 L-6.6 -0.3 -6.25 -1.1 -6.25 -1.15 -6.4 -1.35 -6.75 -1.6 M-1.1 11.35 Q0.4 11.7 -0.7 12.95 L-1.4 13.65 -1.5 13.7 -2.0 13.7 -2.15 13.55 -2.35 13.35 -2.35 13.25 -2.35 13.0 -2.35 12.9 -1.25 11.55 -1.1 11.35 M-14.1 2.5 L-15.1 3.8 -15.15 4.25 -15.0 4.4 -14.9 4.5 -14.25 4.45 -13.6 3.95 Q-13.05 3.4 -12.95 2.65 L-13.2 2.4 -13.6 2.35 -13.65 2.35 -14.1 2.5 M-15.2 12.3 Q-14.15 11.75 -13.55 10.8 L-13.45 10.35 -13.8 9.6 -13.85 9.55 -14.25 9.55 -14.6 9.85 Q-15.45 10.55 -15.45 11.65 L-15.2 12.3 M-12.6 22.35 L-11.8 20.9 -11.3 20.55 -7.0 17.25 -6.2 17.4 Q-4.7 17.65 -3.75 18.65 L-3.75 19.65 -4.1 20.95 Q-5.0 25.0 -7.1 28.7 L-7.45 29.0 -7.45 28.9 -7.85 28.9 -7.85 29.3 -9.1 30.25 -10.55 30.4 -12.4 29.0 -12.55 28.9 -12.65 28.85 -12.75 28.25 Q-13.2 26.25 -12.25 24.5 -11.55 23.25 -12.5 22.4 L-12.6 22.35 M-23.2 30.45 L-23.8 30.65 Q-25.4 31.95 -25.65 34.05 -25.8 35.5 -24.55 35.9 -23.75 36.15 -23.5 35.35 L-22.95 33.7 -22.8 33.25 -22.3 32.05 Q-21.8 30.8 -22.95 30.5 L-23.2 30.45 M-14.95 51.7 L-15.15 51.25 Q-15.4 50.6 -16.05 50.55 L-16.3 50.95 -16.3 51.45 -15.9 52.5 -15.2 53.1 Q-15.0 53.15 -14.95 53.0 -14.5 52.4 -14.95 51.7 M-8.85 64.75 Q-8.55 63.95 -9.5 63.75 -10.5 64.8 -11.75 65.45 L-12.25 65.7 Q-14.35 66.65 -15.8 68.35 L-16.55 69.15 Q-17.3 69.9 -16.9 70.8 L-16.7 70.9 -16.25 70.85 -16.35 71.1 -16.45 71.15 -16.6 71.25 -16.4 71.25 Q-16.3 72.0 -15.45 71.65 L-13.8 70.85 -12.9 70.25 -10.65 68.6 -9.15 67.1 -8.6 66.35 -8.2 65.55 Q-8.0 64.75 -8.85 64.75 M-35.95 77.0 L-35.5 76.5 -35.15 76.05 Q-33.9 74.6 -32.3 73.55 -32.1 73.4 -31.9 73.4 -30.5 73.45 -30.0 72.3 -29.9 72.05 -30.1 71.95 L-30.05 71.85 Q-29.9 71.9 -29.75 72.05 L-28.75 72.85 -28.65 72.95 -28.75 73.3 -28.5 73.65 -29.1 74.35 -34.95 76.6 Q-35.85 76.9 -36.3 77.45 L-36.3 77.35 -35.95 77.0 M4.3 2.5 Q3.5 3.9 2.1 3.4 1.8 3.3 1.9 2.95 2.15 1.45 3.55 1.0 4.95 1.25 4.3 2.5 M4.5 7.5 L5.35 6.75 5.4 6.7 5.75 6.45 6.05 6.2 6.35 6.3 Q6.7 6.5 6.55 7.0 L6.05 8.2 5.45 8.95 Q4.75 9.6 3.95 9.15 3.75 8.2 4.5 7.5" fill="#67820b" fill-rule="evenodd" stroke="none"/>
    <path d="M-22.7 81.8 L-22.55 80.65 -21.6 78.95 -21.5 78.75 Q-21.05 78.05 -21.0 77.1 L-20.65 77.25 -20.7 77.2 -20.8 76.95 Q-20.7 76.3 -20.0 76.3 L-19.95 76.3 -20.2 76.4 -19.45 76.2 -19.15 76.05 -18.95 76.1 -18.15 76.1 -18.1 76.1 -18.05 76.15 -18.0 76.15 -17.75 75.95 -17.65 75.8 -17.3 75.85 -17.15 76.15 -16.85 76.45 -16.8 76.55 -16.75 76.5 -16.7 76.4 Q-16.3 76.9 -16.65 77.25 L-16.65 77.2 -16.7 77.15 -16.65 77.3 -16.65 77.4 -16.6 77.6 -16.55 77.65 -16.55 77.95 -17.2 78.6 -17.45 78.8 Q-17.55 78.95 -17.7 78.9 L-18.75 78.15 -18.85 78.0 -19.25 77.8 -20.15 78.85 -21.2 79.85 -22.7 81.8 M-22.5 78.1 L-22.5 78.15 -22.95 77.8 Q-25.1 76.0 -27.9 75.6 L-27.95 75.6 -28.3 75.7 -28.65 75.75 -28.35 75.5 -27.7 74.5 -27.65 74.45 -24.4 73.5 -22.95 73.55 -22.75 73.55 -19.6 73.15 Q-18.05 73.1 -17.0 74.55 L-16.95 74.65 -17.35 74.7 -17.8 74.75 -17.75 74.8 Q-18.2 75.2 -18.75 75.05 L-19.85 75.1 Q-20.65 75.4 -21.4 75.85 -22.2 76.3 -22.3 77.3 L-22.5 78.1 M-36.05 76.9 L-35.15 75.55 -33.6 73.2 Q-32.8 72.15 -31.3 71.8 L-30.85 71.7 -30.6 71.7 -30.1 71.95 Q-29.9 72.05 -30.0 72.3 -30.5 73.45 -31.9 73.4 -32.1 73.4 -32.3 73.55 -33.9 74.6 -35.15 76.05 L-35.5 76.5 -35.95 77.0 -36.05 76.9 M-29.95 70.55 L-29.7 70.3 -28.95 69.65 -28.85 69.75 -27.55 71.1 -26.95 71.8 -27.95 72.5 -28.05 72.55 -28.55 72.6 -28.85 72.2 Q-29.05 71.45 -29.8 71.25 L-30.4 71.1 -29.95 70.55 M-27.8 69.1 L-25.5 68.8 -25.3 69.0 -22.95 67.8 -20.05 65.9 -16.2 63.0 -15.1 62.2 -14.5 61.55 -13.8 60.95 -13.75 60.95 Q-12.65 61.35 -13.4 62.65 L-13.75 63.25 -14.7 64.35 -14.85 64.55 -15.3 65.1 -16.15 65.4 -17.1 65.9 -17.2 66.0 -17.3 66.05 -17.35 66.1 -19.75 67.65 -20.4 67.8 -20.6 67.9 -20.75 67.7 -20.25 67.35 -20.9 67.8 -22.95 69.1 -23.45 69.3 -25.35 69.7 -25.45 69.8 -25.5 69.85 -26.6 70.0 -27.2 70.05 -27.3 69.95 -27.8 69.25 -27.8 69.1 M-12.45 -6.55 Q-10.35 -8.55 -7.9 -10.2 L-6.8 -10.85 -5.85 -11.1 -5.2 -11.0 -5.05 -10.95 -4.95 -10.85 Q-5.25 -9.35 -6.7 -8.5 L-7.1 -8.3 -7.55 -8.1 -12.25 -3.25 -16.4 2.25 -18.6 6.15 -19.25 7.3 -19.6 8.2 -19.9 8.65 -20.65 11.4 -21.0 12.5 -21.05 12.55 -21.5 12.55 Q-22.05 10.1 -21.5 7.65 -20.85 4.65 -19.25 2.05 -17.35 -1.1 -14.9 -3.95 L-12.45 -6.55 M-6.25 -1.1 L-6.6 -0.3 -7.65 1.1 Q-8.45 1.9 -9.45 1.5 L-9.55 1.3 Q-9.2 -0.75 -7.6 -1.7 L-7.5 -1.7 -6.75 -1.6 -6.4 -1.3 -6.25 -1.1 M-15.2 12.3 L-15.45 11.65 Q-15.45 10.55 -14.6 9.85 L-14.25 9.55 -13.85 9.55 -13.8 9.6 -13.45 10.35 -13.55 10.8 Q-14.15 11.75 -15.2 12.3 M-14.1 2.5 L-13.65 2.35 -13.6 2.35 -13.2 2.4 -12.95 2.65 Q-13.05 3.4 -13.6 3.95 L-14.25 4.45 -14.9 4.5 -15.0 4.4 -15.15 4.25 -15.1 3.8 -14.1 2.5 M-12.5 22.4 Q-11.55 23.25 -12.25 24.5 -13.2 26.25 -12.75 28.25 L-12.65 28.85 -12.6 29.25 Q-12.55 31.1 -14.4 30.3 L-14.85 29.85 Q-16.3 26.0 -13.8 22.85 L-13.3 22.5 -13.2 22.4 -12.65 22.4 -12.5 22.4 M-5.55 57.75 Q-5.05 58.6 -4.15 59.05 L-3.65 59.1 -3.8 59.3 Q-3.75 60.85 -5.2 60.65 -5.75 60.55 -5.95 59.95 -6.45 58.7 -5.55 57.75 M-23.2 30.45 L-22.95 30.5 Q-21.8 30.8 -22.3 32.05 L-22.8 33.25 -22.95 33.7 -23.5 35.35 Q-23.75 36.15 -24.55 35.9 -25.8 35.5 -25.65 34.05 -25.4 31.95 -23.8 30.65 L-23.2 30.45 M-14.95 51.7 Q-14.5 52.4 -14.95 53.0 -15.0 53.15 -15.2 53.1 L-15.9 52.5 -16.3 51.45 -16.3 50.95 -16.05 50.55 Q-15.4 50.6 -15.15 51.25 L-14.95 51.7 M-16.25 70.85 L-16.7 70.9 -16.9 70.8 Q-17.3 69.9 -16.55 69.15 L-15.8 68.35 Q-14.35 66.65 -12.25 65.7 L-11.75 65.45 Q-10.5 64.8 -9.5 63.75 -8.55 63.95 -8.85 64.75 L-9.65 65.4 -10.05 65.95 -10.25 66.2 Q-11.95 66.95 -13.25 68.3 L-13.55 68.65 -15.35 70.25 -16.05 70.65 -16.25 70.85 M-17.0 77.45 L-17.0 77.5 -16.9 77.4 -17.0 77.45" fill="#81a20d" fill-rule="evenodd" stroke="none"/>
    <path d="M-36.45 78.4 L-36.5 78.4 -36.5 78.3 -36.45 78.4 M-30.85 71.7 L-31.25 71.8 -30.6 70.95 -30.05 70.6 -29.95 70.55 -30.4 71.1 -29.8 71.25 Q-29.05 71.45 -28.85 72.2 L-28.55 72.6 -28.75 72.85 -29.75 72.05 Q-29.9 71.9 -30.05 71.85 L-30.6 71.7 -30.85 71.7 M-28.75 69.55 L-28.65 69.35 -28.25 69.25 -28.55 69.4 -28.75 69.55 M-12.65 28.85 L-12.55 28.9 -12.4 29.0 -12.6 29.25 -12.65 28.85 M-8.8 14.7 L-8.75 14.7 -8.8 14.75 -8.8 14.7 M-14.1 45.45 L-14.4 45.4 -14.3 45.25 -14.2 45.15 -14.1 45.45 M0.25 64.55 L0.25 64.75 0.2 64.7 -0.1 64.6 -0.7 64.2 0.25 64.55 M-4.7 67.45 L-4.8 67.25 -4.5 67.05 -4.7 67.45 M-10.5 73.45 L-10.55 73.4 -10.5 73.4 -10.5 73.45 M-25.1 30.9 L-24.45 30.45 -25.0 31.05 -25.1 30.9 M-16.4 71.25 L-16.6 71.25 -16.45 71.15 -16.4 71.25 M-17.0 77.45 L-16.9 77.4 -17.0 77.5 -17.0 77.45" fill="#406507" fill-rule="evenodd" stroke="none"/>
    <path d="M-21.5 78.75 Q-22.35 78.7 -22.5 78.1 L-22.3 77.3 Q-22.2 76.3 -21.4 75.85 -20.65 75.4 -19.85 75.1 L-18.75 75.05 Q-18.2 75.2 -17.75 74.8 L-17.8 74.75 -17.35 74.7 -16.95 74.65 -16.9 74.6 -16.5 74.4 -16.15 74.3 -15.9 74.2 -15.6 74.15 Q-14.85 73.95 -14.2 74.4 -14.7 75.05 -15.5 75.25 L-15.8 75.3 -16.15 75.35 Q-16.8 75.45 -17.3 75.85 L-17.65 75.8 -17.75 75.95 -18.0 76.15 -18.05 76.15 -18.1 76.1 -18.15 76.1 -18.95 76.1 -19.15 76.05 -19.45 76.2 -20.2 76.4 -19.95 76.3 -20.0 76.3 Q-20.7 76.3 -20.8 76.95 L-20.7 77.2 -20.65 77.25 -21.0 77.1 Q-21.05 78.05 -21.5 78.75 M-3.3 59.1 L-4.05 57.8 -3.85 57.5 -2.45 58.4 -1.9 58.9 Q-1.0 59.85 -1.0 61.05 -2.05 61.9 -3.25 61.8 -3.05 61.15 -2.3 61.15 -2.5 60.25 -3.05 59.45 L-3.3 59.1 M0.25 64.75 L0.6 64.75 0.65 64.75 1.0 64.7 1.15 64.65 2.45 64.05 Q1.85 65.2 0.1 65.55 L-0.1 65.55 Q-1.25 65.5 -1.8 64.35 L-1.55 64.0 -1.15 63.85 -0.7 64.2 -0.1 64.6 0.2 64.7 0.25 64.75 M-23.3 29.25 L-23.3 29.3 -24.45 30.45 -25.1 30.9 Q-24.85 29.35 -23.1 28.9 L-23.05 28.95 -23.3 29.25" fill="#253c04" fill-rule="evenodd" stroke="none"/>
    <path d="M-36.4 77.55 L-36.3 77.35 -36.3 77.45 -36.4 77.55 M-28.85 69.6 L-28.75 69.55 -28.55 69.4 -28.5 69.5 -28.65 69.6 -28.85 69.6 M-26.05 31.75 L-26.4 32.05 -26.7 30.85 -26.5 31.55 -26.45 31.6 -26.05 31.75 M-17.95 22.6 L-17.9 22.45 -18.1 23.1 -18.05 22.8 -18.15 22.7 -18.65 22.9 -18.15 22.65 -17.95 22.6 M-12.6 22.35 L-12.5 22.4 -12.65 22.4 -12.6 22.35 M-2.3 57.95 L-2.25 57.85 -2.2 57.9 -2.3 57.95 M-5.6 70.45 L-6.0 70.55 -5.65 70.15 -5.6 70.45 M-16.65 77.25 L-16.65 77.3 -16.7 77.15 -16.65 77.2 -16.65 77.25 M-16.55 77.65 L-16.5 77.85 -16.55 77.95 -16.55 77.65 M-15.4 35.2 L-15.7 34.95 -15.4 35.2 M-13.25 62.95 L-13.5 63.05 -13.75 63.25 -13.4 62.65 -13.25 62.95 M-17.15 76.15 L-17.05 76.1 -17.0 76.1 -16.75 76.5 -16.8 76.55 -16.85 76.45 -17.15 76.15 M-30.05 71.85 L-30.1 71.95 -30.6 71.7 -30.05 71.85 M-20.9 67.8 L-20.25 67.35 -20.75 67.7 -20.9 67.8 M-27.3 69.95 L-27.2 70.05 -26.6 70.0 -26.6 70.25 Q-26.85 70.2 -27.0 70.45 L-27.3 69.95 M-24.95 72.0 L-25.0 72.05 -25.05 71.8 -24.95 72.0" fill="#538409" fill-rule="evenodd" stroke="none"/>
    <path d="M-27.25 21.7 L-27.25 21.75 -27.25 21.7" fill="#67a50c" fill-rule="evenodd" stroke="none"/>
    <path d="M-36.3 77.35 L-36.05 76.9 -35.95 77.0 -36.3 77.35 M-28.95 69.65 L-28.9 69.65 -28.85 69.6 -28.65 69.6 -28.75 69.7 -28.85 69.75 -28.95 69.65 M-27.85 69.1 L-27.8 69.1 -27.8 69.25 -27.85 69.1 M-25.6 31.4 L-25.6 31.3 -25.55 31.4 -25.6 31.4 M-17.1 65.9 L-17.15 65.95 -17.2 66.0 -17.1 65.9 M-16.95 74.65 L-17.0 74.55 -16.9 74.6 -16.95 74.65" fill="#69a70c" fill-rule="evenodd" stroke="none"/>
    <path d="M-28.25 69.25 L-27.85 69.1 -27.8 69.25 -28.5 69.5 -28.55 69.4 -28.25 69.25 M-24.25 43.0 L-24.35 42.85 -24.0 42.85 -24.25 43.0 M-17.0 74.55 L-16.5 74.4 -16.9 74.6 -17.0 74.55" fill="#669966" fill-rule="evenodd" stroke="none"/>
  </g>
</svg>
