<?xml version="1.0" encoding="UTF-8" standalone="no"?>
<svg xmlns:xlink="http://www.w3.org/1999/xlink" height="108.4px" width="41.05px" xmlns="http://www.w3.org/2000/svg">
  <g transform="matrix(1.0, 0.0, 0.0, 1.0, 24.95, 7.35)">
    <path d="M-11.5 1.3 L-10.5 1.2 -10.25 0.95 -10.1 0.65 -10.1 0.2 -10.35 -0.6 -10.65 -1.05 -10.6 -1.15 -10.4 -2.2 -8.85 -2.3 Q-8.0 -2.65 -8.05 -3.5 L-8.05 -4.5 Q-5.75 -6.35 -2.9 -7.15 L-2.8 -7.2 -1.6 -7.15 -2.35 -6.85 -1.45 -7.15 -1.85 -6.9 -1.55 -7.1 -1.3 -7.25 0.05 -7.3 Q3.0 -7.35 5.2 -6.15 L6.35 -5.7 6.45 -5.65 Q9.25 -4.35 10.35 -1.5 L11.2 1.35 11.45 3.35 11.45 3.4 11.5 7.0 11.1 7.5 11.05 7.5 11.0 7.5 10.85 7.55 10.15 7.7 10.0 7.8 Q9.15 9.1 10.55 10.1 L10.75 10.85 10.6 11.95 10.2 12.1 9.1 11.95 9.1 12.0 8.95 12.05 8.85 12.1 Q8.45 12.4 8.45 12.95 8.5 13.5 8.9 13.8 L9.05 14.25 9.35 14.7 9.45 14.85 9.25 15.9 8.95 16.1 8.95 16.15 8.25 16.0 8.2 16.05 8.05 16.1 8.0 16.15 Q7.5 16.5 7.6 17.1 L8.0 18.75 7.95 19.05 Q7.5 19.5 7.4 20.0 L6.8 19.9 6.8 19.95 6.65 20.0 6.55 20.05 6.45 20.15 Q6.15 20.45 6.2 20.8 6.3 21.45 6.65 22.0 L6.75 23.25 6.65 23.85 5.7 24.3 4.5 24.5 Q3.8 24.9 4.15 25.75 L4.65 27.15 Q4.25 28.25 2.8 28.7 L3.05 29.6 3.1 30.55 Q2.95 31.25 2.2 31.65 L0.9 32.25 1.7 34.05 Q1.7 34.8 0.85 35.35 L-0.45 36.35 0.0 37.25 0.3 38.2 Q0.0 39.85 -1.55 40.7 L0.3 43.05 Q1.9 50.55 -3.35 56.7 -2.75 57.05 -2.85 57.8 L-3.0 59.05 Q-3.9 59.75 -3.35 60.5 -2.55 61.6 -2.5 62.0 -2.9 63.15 -2.15 64.6 L-0.95 66.95 1.85 66.95 1.85 66.75 2.55 66.85 3.5 67.1 4.35 67.7 Q6.1 68.35 6.35 69.0 L6.45 68.65 7.7 69.5 7.6 69.95 10.0 72.15 Q11.4 73.45 12.75 73.85 14.05 74.4 14.45 75.45 14.7 76.2 14.6 77.7 14.4 79.35 14.5 80.0 14.65 81.05 15.5 81.75 L16.0 83.9 16.1 84.1 15.85 84.05 15.1 87.05 14.35 88.3 Q13.9 89.05 13.2 89.05 13.1 87.95 11.75 87.3 10.2 86.5 9.9 85.8 L9.9 85.65 9.6 83.6 Q8.95 81.55 7.15 80.7 L7.0 80.95 Q6.6 80.45 5.6 80.55 5.15 80.7 5.0 81.1 4.55 80.75 3.7 80.85 4.2 83.25 4.8 84.5 L5.0 85.2 Q5.4 86.25 6.5 86.25 L6.55 86.6 7.2 86.1 7.9 86.15 Q9.3 89.05 8.35 92.4 L11.35 92.05 Q12.95 91.75 14.0 90.95 L14.25 89.95 Q14.3 89.3 14.95 89.4 L15.05 89.55 15.25 89.85 Q15.7 90.6 15.65 91.4 L15.05 93.3 14.15 95.25 Q13.8 96.4 14.15 97.5 13.95 98.9 12.35 98.8 10.3 98.7 9.8 99.15 8.85 99.65 8.05 98.6 7.05 97.35 6.35 97.5 L6.35 98.0 Q5.55 97.55 4.4 97.65 3.7 97.9 3.35 98.75 L3.2 99.2 2.9 99.5 Q1.7 100.45 1.35 101.05 L-1.75 100.75 Q-3.6 100.35 -4.55 99.4 -4.45 98.4 -5.3 97.85 L-6.85 97.15 Q-7.75 96.9 -9.65 95.35 -11.35 94.0 -12.65 93.95 -12.9 92.85 -14.25 92.4 -15.95 91.85 -16.35 91.3 L-16.8 91.3 Q-17.4 90.55 -17.55 89.45 L-17.65 87.5 Q-17.75 84.85 -19.1 83.95 L-18.8 82.9 Q-18.5 82.25 -19.0 81.9 -18.55 80.55 -18.6 78.7 L-18.9 75.4 Q-19.25 71.3 -17.75 69.3 -18.95 68.0 -18.6 65.7 L-17.75 62.0 Q-19.1 62.0 -19.45 60.75 L-19.3 58.7 Q-22.35 55.8 -23.5 53.95 -25.3 50.95 -24.9 47.7 -23.75 42.1 -19.75 38.5 L-20.3 37.55 -21.0 36.7 Q-21.8 35.65 -21.2 34.6 L-19.45 32.45 Q-21.45 30.95 -21.75 29.5 L-20.2 28.15 Q-19.25 27.25 -18.35 27.05 -18.15 26.35 -18.95 25.2 -19.8 24.1 -19.3 23.3 L-18.05 22.15 Q-17.3 21.35 -16.8 21.15 L-17.65 19.9 Q-18.2 19.15 -17.9 18.45 L-17.4 17.35 -16.5 16.3 Q-15.7 15.0 -17.0 14.1 -17.15 13.1 -16.3 12.6 L-14.75 11.8 -15.25 10.2 Q-15.45 9.25 -14.75 8.65 L-14.1 8.65 Q-13.7 8.7 -13.55 8.35 L-14.2 7.05 Q-14.55 6.3 -14.0 5.7 L-12.45 4.6 Q-13.5 3.55 -12.9 2.15 L-11.65 1.4 -11.5 1.3 M4.9 -4.8 L4.75 -4.9 4.4 -5.1 2.3 -5.7 -1.65 -5.8 -4.4 -4.95 Q-5.65 -4.5 -6.75 -3.85 L-6.95 -3.05 Q-7.3 -2.2 -8.15 -1.7 L-8.6 -1.3 -8.7 -1.25 -9.1 -1.15 -8.95 0.3 -9.05 1.3 -9.45 2.1 -10.9 2.2 -11.5 2.25 -11.95 2.7 Q-12.1 3.2 -11.85 3.5 -12.1 3.85 -12.0 4.4 L-12.0 4.65 Q-12.15 5.25 -11.75 5.75 L-11.5 5.55 -12.75 6.6 -12.65 6.8 -12.6 6.9 -12.55 7.05 -12.5 7.2 -12.5 7.3 -12.45 7.4 -12.45 7.45 -12.45 7.5 -12.45 8.4 Q-12.65 9.35 -13.6 9.8 L-14.35 10.05 -14.0 10.85 -14.25 11.35 -14.15 12.0 -13.95 12.6 -14.35 13.0 Q-15.45 13.95 -15.45 14.55 -14.8 15.35 -15.55 16.55 L-16.8 18.45 Q-15.9 19.6 -15.9 20.5 -16.05 22.4 -17.1 22.65 -18.4 23.25 -17.8 24.25 L-17.3 25.15 Q-17.1 25.75 -17.3 26.25 -17.7 27.65 -20.1 29.5 L-18.1 31.4 Q-18.1 32.35 -18.9 33.55 L-20.1 35.6 -19.15 36.7 Q-18.55 37.4 -18.55 38.05 L-16.0 36.8 -10.85 36.4 -10.35 36.45 -9.1 36.7 -7.75 37.1 -7.65 37.15 Q-6.6 37.5 -5.65 38.0 -5.05 38.3 -4.5 38.7 L-3.55 39.45 -3.0 39.95 Q-3.05 39.25 -2.3 38.95 L-1.1 38.4 Q-1.05 37.9 -1.5 36.95 L-2.0 35.4 Q-1.95 34.7 -1.1 34.45 -0.1 34.1 0.15 33.8 L-0.25 32.3 -0.45 30.7 Q0.95 29.8 2.0 29.65 L1.55 28.9 Q1.3 28.35 1.35 27.9 1.5 27.25 2.2 27.0 L3.45 26.55 Q2.9 25.7 2.9 24.75 L2.9 24.4 Q3.3 23.4 3.9 22.95 4.65 22.3 5.75 22.5 L5.45 21.75 5.45 21.65 Q5.9 21.3 5.8 20.6 L5.15 18.4 5.4 19.05 6.4 18.15 Q6.4 17.45 6.65 16.8 L6.9 16.25 Q7.2 15.35 8.0 14.8 7.45 13.55 7.8 12.3 L8.15 11.65 Q8.3 11.4 8.6 11.35 L9.5 11.15 Q8.75 10.25 8.75 9.05 8.7 7.85 9.65 7.05 9.9 6.8 10.25 6.7 L10.7 6.55 10.95 4.25 10.95 4.3 10.75 4.6 10.65 4.15 10.6 4.05 Q10.1 1.9 9.25 -0.15 8.55 -1.75 7.45 -3.05 L5.1 -4.85 5.0 -4.9 5.5 -5.35 4.9 -4.8 M7.3 31.2 L7.35 31.05 7.3 31.25 7.3 31.2 M-2.75 44.3 Q-3.25 42.0 -4.2 41.05 -9.65 37.85 -15.55 38.85 -18.2 38.65 -20.0 40.95 -20.95 42.05 -22.4 45.35 -24.05 49.9 -21.35 55.0 -20.95 55.05 -20.35 55.55 L-19.35 56.4 Q-18.15 57.2 -17.55 55.6 -14.85 53.95 -10.8 54.1 -6.9 54.25 -4.1 55.95 -1.4 52.75 -1.55 47.7 -2.25 46.8 -2.75 44.3 M-4.55 57.35 L-4.55 57.15 -4.65 57.35 Q-8.25 55.0 -13.55 57.05 -15.0 57.55 -16.5 58.4 L-17.5 59.0 -17.55 59.05 -17.85 59.6 Q-18.15 60.35 -17.9 61.05 L-16.85 60.85 -16.1 60.7 -15.15 60.6 -12.25 60.3 -11.25 60.25 -4.55 59.7 -4.55 57.35 M-12.15 67.75 Q-9.1 67.45 -6.55 66.05 L-4.65 65.0 Q-3.6 64.2 -3.75 63.25 L-4.65 61.5 -10.4 62.35 -12.55 62.7 -16.0 63.25 -16.55 64.85 -16.6 65.05 -16.6 66.95 -16.35 67.6 -16.1 67.6 -16.05 67.65 -15.15 67.7 -14.85 67.75 -12.15 67.75 M-6.8 68.0 Q-10.1 69.6 -13.65 69.65 L-13.9 69.65 -14.95 69.6 Q-15.2 69.8 -16.15 70.0 -16.9 70.1 -16.8 70.7 L-16.5 70.8 -16.85 71.6 -17.05 73.15 -17.1 73.5 -17.1 73.55 -16.95 75.0 Q-17.25 78.75 -18.2 83.8 L-17.55 83.8 Q-16.8 84.6 -16.5 86.15 L-16.4 87.0 -16.4 87.15 -16.4 87.35 Q-16.75 88.05 -16.5 88.9 L-15.95 90.0 -15.95 90.1 -15.75 90.5 -15.35 90.5 -14.15 90.75 -14.05 90.8 Q-13.0 91.35 -12.3 92.8 L-10.0 92.95 -10.05 92.85 -9.95 92.85 -8.85 92.8 -8.0 92.25 Q-7.35 92.45 -6.85 93.4 -6.3 94.5 -5.1 94.05 L-3.7 93.55 -3.6 93.45 -3.2 93.25 -3.55 92.6 -3.5 92.6 -3.0 93.1 -2.6 92.6 -2.55 92.55 -2.25 92.45 Q-1.6 92.25 -1.4 91.65 L-1.25 91.15 Q-0.2 91.2 1.1 90.45 L1.7 90.15 Q3.55 89.1 4.35 89.05 L4.3 87.3 Q4.15 86.25 3.45 85.8 1.65 81.3 3.55 79.4 L4.65 79.3 5.75 79.6 6.25 78.25 Q6.85 78.8 8.05 78.8 L8.25 79.1 9.35 80.15 Q10.9 81.4 10.55 82.75 L10.7 84.7 Q10.65 85.9 11.45 85.8 12.7 85.9 13.35 88.05 L13.35 88.15 Q13.95 87.8 14.05 86.8 14.2 85.7 14.45 85.4 14.7 84.0 13.7 81.4 12.7 78.85 13.2 77.25 12.85 76.4 11.65 75.8 L11.55 75.75 11.1 74.9 10.4 74.2 9.2 73.55 9.35 73.35 5.75 70.25 Q4.8 69.6 2.5 69.6 0.15 69.6 -0.8 69.0 -1.65 68.6 -2.15 67.45 L-3.1 65.6 Q-4.9 67.05 -6.8 68.0 M-8.4 70.4 L-8.55 70.05 Q-12.35 71.5 -15.35 71.1 L-15.4 73.85 -15.35 74.55 -15.1 74.9 -15.25 74.95 -15.15 75.4 -15.05 75.7 -14.9 75.75 -14.45 75.85 -12.4 76.1 -9.45 75.95 -7.25 75.55 -6.85 75.05 Q-6.9 73.9 -7.5 72.5 L-8.4 70.4 M-7.9 70.25 L-7.75 70.45 -7.35 71.15 -7.2 71.55 -6.7 73.3 -6.45 74.5 -6.3 75.7 Q-5.9 76.2 -6.5 76.5 L-6.55 76.6 -10.6 77.1 -11.75 77.1 Q-13.4 77.05 -14.8 76.25 L-14.95 76.05 -14.95 76.1 Q-15.25 76.25 -15.5 75.85 L-15.65 75.5 -16.0 73.05 -15.9 71.6 -15.6 70.8 -15.15 70.65 -14.8 70.65 -11.55 70.3 -10.5 70.2 -9.1 70.05 -8.55 70.05 -7.9 70.25 M1.1 96.4 Q1.55 97.1 2.7 97.15 2.75 96.75 3.35 96.55 L4.35 96.25 Q5.8 95.95 7.25 96.55 8.55 97.1 9.45 98.4 9.9 97.95 10.8 97.85 L12.25 97.65 12.55 95.0 12.7 94.25 Q13.0 93.3 13.55 92.6 9.1 94.3 6.35 93.25 5.85 93.1 4.95 92.15 4.1 91.3 3.55 91.3 L1.7 91.95 Q0.6 92.35 0.3 92.95 L0.75 94.3 0.85 95.6 1.1 96.4 M-9.25 94.0 L-10.1 94.15 Q-8.65 95.5 -6.35 96.55 L-5.65 96.85 -6.15 96.2 -6.55 95.5 Q-8.2 94.9 -8.45 94.15 -8.8 93.85 -9.25 94.0 M-0.3 96.75 L-0.95 96.4 Q-1.45 95.9 -1.1 95.2 L-0.8 93.95 Q-1.6 94.05 -3.05 94.7 L-5.3 95.5 Q-3.55 97.15 -3.55 99.05 L-3.55 99.15 -1.55 99.45 Q-0.4 99.6 0.3 100.15 1.0 100.45 1.45 99.65 L2.35 98.3 -0.05 96.9 Q-0.2 96.8 -0.3 96.75 M6.8 88.15 Q6.55 88.75 5.5 89.2 4.6 89.6 4.5 90.3 L5.75 91.25 Q6.5 91.85 7.15 91.85 7.5 90.7 6.8 88.15" fill="#000000" fill-rule="evenodd" stroke="none"/>
    <path d="M-11.65 1.4 L-11.7 1.25 -11.5 1.3 -11.65 1.4 M3.5 67.1 L4.65 67.25 5.15 67.3 5.35 67.35 6.45 68.65 6.35 69.0 Q6.1 68.35 4.35 67.7 L3.5 67.1 M-10.35 36.45 L-10.85 36.4 -16.0 36.8 -18.55 38.05 Q-18.55 37.4 -19.15 36.7 L-20.1 35.6 -18.9 33.55 Q-18.1 32.35 -18.1 31.4 L-20.1 29.5 Q-17.7 27.65 -17.3 26.25 -17.1 25.75 -17.3 25.15 L-17.8 24.25 Q-18.4 23.25 -17.1 22.65 -16.05 22.4 -15.9 20.5 -15.9 19.6 -16.8 18.45 L-15.55 16.55 Q-14.8 15.35 -15.45 14.55 -15.45 13.95 -14.35 13.0 L-13.95 12.6 -14.15 12.0 -14.25 11.35 -14.0 10.85 -14.35 10.05 -13.6 9.8 Q-12.65 9.35 -12.45 8.4 L-12.45 7.5 -12.45 7.45 -12.45 7.4 -12.5 7.3 -12.5 7.2 -12.55 7.05 -12.6 6.9 -12.65 6.8 -12.75 6.6 -11.5 5.55 -11.75 5.75 Q-12.15 5.25 -12.0 4.65 L-12.0 4.4 Q-12.1 3.85 -11.85 3.5 -12.1 3.2 -11.95 2.7 L-11.5 2.25 -10.9 2.2 -9.45 2.1 -9.05 1.3 -8.95 0.3 -9.1 -1.15 -8.7 -1.25 -8.6 -1.3 -8.15 -1.7 Q-7.3 -2.2 -6.95 -3.05 L-6.75 -3.85 Q-5.65 -4.5 -4.4 -4.95 L-1.65 -5.8 2.3 -5.7 4.4 -5.1 4.75 -4.9 4.9 -4.8 3.95 -3.85 3.85 -3.9 Q2.2 -5.35 -0.05 -5.7 -1.4 -5.65 -1.35 -4.4 -1.35 -4.0 -0.95 -3.85 L-0.3 -3.6 Q1.3 -2.75 2.95 -2.7 L1.45 -0.6 1.35 -0.65 Q-0.7 -1.85 -3.0 -2.15 L-4.75 -1.9 Q-5.45 -1.8 -5.9 -1.2 -5.85 -0.35 -4.75 -0.35 -3.7 -0.35 -2.85 0.1 L0.1 1.55 -1.7 4.4 Q-4.1 2.85 -7.0 2.85 -7.45 2.8 -7.9 3.1 L-8.35 3.6 -8.35 3.7 -8.35 3.9 -8.3 4.0 Q-8.05 4.35 -7.6 4.55 L-6.75 4.75 Q-5.45 5.0 -4.3 5.6 L-2.9 6.5 -3.1 7.5 -3.1 7.65 -3.15 7.7 -3.1 7.7 -3.1 7.8 -3.2 7.7 -4.1 9.1 -4.3 9.6 -4.35 9.55 -5.9 8.7 Q-7.35 7.9 -9.0 7.95 L-9.5 8.05 -10.35 8.3 Q-11.3 9.0 -10.35 9.65 L-8.05 9.9 Q-7.45 10.05 -6.95 10.4 L-5.1 11.55 -6.0 13.9 -6.6 13.6 Q-8.8 12.6 -11.2 12.65 -12.05 12.75 -12.75 13.35 -13.1 13.65 -12.9 14.05 -12.6 14.75 -11.7 14.55 L-9.75 14.65 Q-8.05 15.2 -6.45 16.0 L-6.75 15.9 -7.5 18.3 Q-9.6 17.65 -11.75 17.4 L-12.5 17.45 Q-13.6 17.5 -14.4 18.15 -14.6 18.35 -14.45 18.55 -13.95 19.2 -13.0 19.15 L-11.6 19.25 Q-9.85 19.65 -8.1 20.3 L-8.2 20.55 -9.05 23.95 Q-10.85 23.15 -13.0 23.3 L-14.2 23.5 Q-15.4 23.65 -15.8 24.75 L-15.75 25.05 Q-15.0 25.8 -13.8 25.55 L-10.15 25.8 -9.55 26.05 -10.2 29.65 -13.3 29.3 -16.75 29.7 Q-17.1 30.0 -17.15 30.45 -17.15 31.75 -15.8 31.55 L-13.05 31.45 -10.5 31.55 -10.6 32.3 -10.7 33.2 -13.0 33.05 -13.0 33.1 -14.85 33.25 -15.3 33.35 -16.45 33.7 Q-17.25 33.9 -17.6 34.55 -17.85 34.95 -17.65 35.35 -17.1 36.45 -15.8 35.85 -14.25 35.1 -12.5 35.1 L-11.15 35.3 -10.1 35.55 -10.8 35.4 -10.75 36.4 -10.35 36.45 M10.95 4.3 L10.95 4.25 10.7 6.55 10.25 6.7 Q9.9 6.8 9.65 7.05 8.7 7.85 8.75 9.05 8.75 10.25 9.5 11.15 L8.6 11.35 Q8.3 11.4 8.15 11.65 L7.8 12.3 Q7.45 13.55 8.0 14.8 7.2 15.35 6.9 16.25 L6.65 16.8 Q6.4 17.45 6.4 18.15 L5.4 19.05 5.15 18.4 5.8 20.6 Q5.9 21.3 5.45 21.65 L5.45 21.75 5.75 22.5 Q4.65 22.3 3.9 22.95 3.3 23.4 2.9 24.4 L2.9 24.75 Q2.9 25.7 3.45 26.55 L2.2 27.0 Q1.5 27.25 1.35 27.9 1.3 28.35 1.55 28.9 L2.0 29.65 Q0.95 29.8 -0.45 30.7 L-0.25 32.3 0.15 33.8 Q-0.1 34.1 -1.1 34.45 -1.95 34.7 -2.0 35.4 L-1.5 36.95 Q-1.05 37.9 -1.1 38.4 L-2.3 38.95 Q-3.05 39.25 -3.0 39.95 L-3.55 39.45 -4.5 38.7 Q-4.35 38.1 -3.55 37.45 L-2.65 36.4 Q-3.85 33.7 -1.85 31.4 L-1.0 30.55 Q-1.4 29.3 -1.25 27.9 L-0.85 26.95 Q0.15 25.5 1.6 24.4 1.55 21.65 3.5 19.65 L3.75 19.2 Q4.05 18.1 4.85 17.55 L4.6 17.05 5.05 16.9 5.2 16.7 Q6.0 15.95 6.1 14.95 6.25 13.0 7.05 11.15 L7.85 9.65 8.65 8.15 10.95 4.3 M-3.1 83.25 L-3.35 83.0 -2.55 82.7 Q-5.0 75.8 -6.55 68.6 L-6.8 68.0 Q-4.9 67.05 -3.1 65.6 L-2.15 67.45 Q-1.65 68.6 -0.8 69.0 0.15 69.6 2.5 69.6 4.8 69.6 5.75 70.25 L9.35 73.35 9.2 73.55 7.3 76.35 6.25 78.25 5.75 79.6 4.65 79.3 3.55 79.4 Q1.65 81.3 3.45 85.8 4.15 86.25 4.3 87.3 L4.35 89.05 Q3.55 89.1 1.7 90.15 L1.1 90.45 Q-0.2 91.2 -1.25 91.15 L-1.95 91.0 -2.2 90.95 Q-3.05 91.3 -3.45 90.6 L-4.1 89.25 Q-3.35 88.6 -3.75 88.0 -2.2 88.8 -0.75 87.5 0.65 86.25 -0.25 84.6 -1.15 82.95 -3.1 83.25 M-13.4 88.05 L-12.75 86.95 -12.2 88.15 -12.45 88.25 Q-12.55 88.8 -11.75 89.1 L-10.55 89.5 -10.45 89.5 -10.55 89.5 -10.55 89.55 -10.5 91.3 -10.05 92.85 -10.0 92.95 -12.3 92.8 Q-13.0 91.35 -14.05 90.8 L-14.15 90.75 -13.9 90.7 -13.35 90.35 Q-12.15 88.95 -13.4 88.05 M-8.05 85.95 L-7.95 85.75 -7.7 86.3 -7.25 86.6 -6.7 86.7 -6.95 86.9 -7.0 86.95 -6.7 87.35 -6.6 87.5 -5.5 88.5 Q-4.45 89.35 -4.65 90.5 L-3.95 91.95 Q-3.4 92.8 -2.5 92.5 L-2.55 92.55 -2.6 92.6 -3.0 93.1 -3.5 92.6 -3.65 92.45 -3.55 92.6 -3.2 93.25 -3.6 93.45 -3.7 93.55 -5.1 94.05 Q-6.3 94.5 -6.85 93.4 -7.35 92.45 -8.0 92.25 L-8.55 92.15 Q-9.3 91.5 -9.7 90.3 L-9.95 89.4 -10.0 88.7 Q-9.1 89.85 -7.45 89.5 -6.45 88.6 -7.0 87.4 -7.45 86.5 -8.05 85.95 M-5.3 86.8 L-4.85 86.7 -4.85 86.75 -4.6 87.3 -4.9 87.1 -5.3 86.8 M-15.25 21.75 L-15.2 21.8 -15.15 21.7 -15.25 21.75 M-15.35 90.5 L-15.75 90.5 -15.95 90.1 -15.95 90.0 -15.35 90.5" fill="#4e4e4e" fill-rule="evenodd" stroke="none"/>
    <path d="M-10.1 35.55 L-11.15 35.3 -12.5 35.1 Q-14.25 35.1 -15.8 35.85 -17.1 36.45 -17.65 35.35 -17.85 34.95 -17.6 34.55 -17.25 33.9 -16.45 33.7 L-15.3 33.35 -14.85 33.25 -13.0 33.1 -13.0 33.05 -10.7 33.2 Q-9.45 33.4 -8.3 34.0 -7.95 34.15 -7.75 34.45 L-7.6 34.75 -7.55 34.8 -7.45 34.9 -7.4 35.0 -7.35 35.05 -7.35 35.15 -7.35 35.2 -7.35 35.3 -7.4 35.35 -7.5 35.5 -7.6 35.55 -7.75 35.6 -7.95 35.55 -8.05 35.55 -10.1 35.55 M-10.5 31.55 L-13.05 31.45 -15.8 31.55 Q-17.15 31.75 -17.15 30.45 -17.1 30.0 -16.75 29.7 L-13.3 29.3 -10.2 29.65 -9.45 29.95 -8.7 30.35 Q-8.15 30.65 -8.45 31.15 -8.75 31.6 -9.3 31.6 L-10.5 31.55 M-9.55 26.05 L-10.15 25.8 -13.8 25.55 Q-15.0 25.8 -15.75 25.05 L-15.8 24.75 Q-15.4 23.65 -14.2 23.5 L-13.0 23.3 Q-10.85 23.15 -9.05 23.95 -8.2 24.3 -7.4 24.9 L-6.55 25.45 Q-6.05 25.75 -5.85 26.2 -5.7 26.6 -5.95 26.85 L-6.2 27.05 -9.0 26.2 -9.2 26.15 -9.55 26.05 M-8.1 20.3 Q-9.85 19.65 -11.6 19.25 L-13.0 19.15 Q-13.95 19.2 -14.45 18.55 -14.6 18.35 -14.4 18.15 -13.6 17.5 -12.5 17.45 L-11.75 17.4 Q-9.6 17.65 -7.5 18.3 L-6.1 18.8 Q-4.55 19.4 -3.3 20.55 -3.1 20.7 -3.15 21.0 -3.3 22.3 -4.65 21.7 L-6.0 21.1 -6.15 21.05 -7.4 20.55 -8.1 20.3 M-6.45 16.0 Q-8.05 15.2 -9.75 14.65 L-11.7 14.55 Q-12.6 14.75 -12.9 14.05 -13.1 13.65 -12.75 13.35 -12.05 12.75 -11.2 12.65 -8.8 12.6 -6.6 13.6 L-6.0 13.9 -3.45 15.25 Q-2.2 16.0 -1.7 17.2 L-1.7 17.6 -2.0 18.05 Q-3.1 18.3 -4.05 17.5 L-5.2 16.65 -5.3 16.6 -6.45 16.0 M-5.1 11.55 L-6.95 10.4 Q-7.45 10.05 -8.05 9.9 L-10.35 9.65 Q-11.3 9.0 -10.35 8.3 L-9.5 8.05 -9.0 7.95 Q-7.35 7.9 -5.9 8.7 L-4.35 9.55 -4.3 9.6 Q-3.4 10.05 -2.75 10.85 L-2.55 11.2 Q-2.2 11.45 -2.15 11.85 -2.0 12.4 -2.55 12.7 L-3.0 12.7 -3.0 12.65 -3.45 12.35 -3.5 12.3 -5.1 11.55 M-2.9 6.5 L-4.3 5.6 Q-5.45 5.0 -6.75 4.75 L-7.6 4.55 Q-8.05 4.35 -8.3 4.0 L-8.35 3.9 -8.35 3.7 -8.35 3.6 -7.9 3.1 Q-7.45 2.8 -7.0 2.85 -4.1 2.85 -1.7 4.4 L-1.25 4.7 0.25 6.05 1.35 7.95 Q1.55 8.45 1.15 8.85 0.25 9.75 -0.6 8.75 -1.6 7.45 -2.9 6.5 M0.1 1.55 L-2.85 0.1 Q-3.7 -0.35 -4.75 -0.35 -5.85 -0.35 -5.9 -1.2 -5.45 -1.8 -4.75 -1.9 L-3.0 -2.15 Q-0.7 -1.85 1.35 -0.65 L1.45 -0.6 2.25 -0.15 Q3.65 0.65 3.75 2.15 L3.6 2.55 3.4 2.7 3.0 2.75 Q2.4 2.75 2.1 2.25 L0.1 1.55 M2.95 -2.7 Q1.3 -2.75 -0.3 -3.6 L-0.95 -3.85 Q-1.35 -4.0 -1.35 -4.4 -1.4 -5.65 -0.05 -5.7 2.2 -5.35 3.85 -3.9 L3.95 -3.85 Q4.55 -3.25 3.7 -2.85 L3.1 -2.7 2.95 -2.7 M-6.8 68.0 L-6.55 68.6 Q-5.0 75.8 -2.55 82.7 L-3.35 83.0 -3.1 83.25 -3.3 83.3 -3.3 83.35 -4.0 83.6 -4.15 83.65 Q-5.3 84.9 -4.85 86.7 L-5.3 86.8 -5.65 86.4 -6.4 86.6 -6.7 86.7 -7.25 86.6 -7.7 86.3 -7.95 85.75 -8.05 85.95 Q-8.65 85.45 -9.35 85.2 -11.4 85.7 -10.6 87.7 L-11.15 87.75 -12.2 88.15 -12.75 86.95 -13.4 88.05 -13.9 87.75 -13.9 87.65 Q-14.1 86.5 -15.1 86.4 L-15.15 86.4 -15.15 86.45 -15.85 86.6 -16.4 87.35 -16.4 87.15 -16.4 87.0 -16.5 86.15 Q-16.8 84.6 -17.55 83.8 L-18.2 83.8 Q-17.25 78.75 -16.95 75.0 L-16.95 74.9 -16.95 74.85 -16.9 74.55 -17.05 73.9 -17.1 73.55 -17.1 73.5 -17.05 73.15 -16.85 71.6 -16.5 70.8 -16.8 70.7 Q-16.9 70.1 -16.15 70.0 -15.2 69.8 -14.95 69.6 L-13.9 69.65 -13.65 69.65 Q-10.1 69.6 -6.8 68.0 M-7.9 70.25 L-8.55 70.05 -9.1 70.05 -10.5 70.2 -11.55 70.3 -14.8 70.65 -15.15 70.65 -15.6 70.8 -15.9 71.6 -16.0 73.05 -15.65 75.5 -15.5 75.85 Q-15.25 76.25 -14.95 76.1 L-14.95 76.05 -14.8 76.25 Q-13.4 77.05 -11.75 77.1 L-10.6 77.1 -6.55 76.6 -6.5 76.5 Q-5.9 76.2 -6.3 75.7 L-6.45 74.5 -6.7 73.3 -7.2 71.55 -7.35 71.15 -7.75 70.45 -7.9 70.25 M-16.8 74.95 L-16.8 74.9 -16.8 74.95" fill="#666666" fill-rule="evenodd" stroke="none"/>
    <path d="M4.9 -4.8 L5.5 -5.35 5.0 -4.9 5.1 -4.85 7.45 -3.05 Q8.55 -1.75 9.25 -0.15 10.1 1.9 10.6 4.05 L10.65 4.15 10.75 4.6 10.95 4.3 8.65 8.15 7.85 9.65 7.05 11.15 Q6.25 13.0 6.1 14.95 6.0 15.95 5.2 16.7 L5.05 16.9 4.6 17.05 4.85 17.55 Q4.05 18.1 3.75 19.2 L3.5 19.65 Q1.55 21.65 1.6 24.4 0.15 25.5 -0.85 26.95 L-1.25 27.9 Q-1.4 29.3 -1.0 30.55 L-1.85 31.4 Q-3.85 33.7 -2.65 36.4 L-3.55 37.45 Q-4.35 38.1 -4.5 38.7 -5.05 38.3 -5.65 38.0 -6.6 37.5 -7.65 37.15 L-7.75 37.1 -9.1 36.7 -10.35 36.45 -10.75 36.4 -10.8 35.4 -10.1 35.55 -8.05 35.55 -7.95 35.55 -7.75 35.6 -7.6 35.55 -7.5 35.5 -7.4 35.35 -7.35 35.3 -7.35 35.2 -7.35 35.15 -7.35 35.05 -7.4 35.0 -7.45 34.9 -7.55 34.8 -7.6 34.75 -7.75 34.45 Q-7.95 34.15 -8.3 34.0 -9.45 33.4 -10.7 33.2 L-10.6 32.3 -10.5 31.55 -9.3 31.6 Q-8.75 31.6 -8.45 31.15 -8.15 30.65 -8.7 30.35 L-9.45 29.95 -10.2 29.65 -9.55 26.05 -9.2 26.15 -9.0 26.2 -6.2 27.05 -5.95 26.85 Q-5.7 26.6 -5.85 26.2 -6.05 25.75 -6.55 25.45 L-7.4 24.9 Q-8.2 24.3 -9.05 23.95 L-8.2 20.55 -8.1 20.3 -7.4 20.55 -6.15 21.05 -6.0 21.1 -4.65 21.7 Q-3.3 22.3 -3.15 21.0 -3.1 20.7 -3.3 20.55 -4.55 19.4 -6.1 18.8 L-7.5 18.3 -6.75 15.9 -6.45 16.0 -5.3 16.6 -5.2 16.65 -4.05 17.5 Q-3.1 18.3 -2.0 18.05 L-1.7 17.6 -1.7 17.2 Q-2.2 16.0 -3.45 15.25 L-6.0 13.9 -5.1 11.55 -3.5 12.3 -3.45 12.35 -3.0 12.65 -3.0 12.7 -2.55 12.7 Q-2.0 12.4 -2.15 11.85 -2.2 11.45 -2.55 11.2 L-2.75 10.85 Q-3.4 10.05 -4.3 9.6 L-4.1 9.1 -3.2 7.7 -3.1 7.8 -3.1 7.7 -3.0 7.7 -3.1 7.65 -3.1 7.5 -2.9 6.5 Q-1.6 7.45 -0.6 8.75 0.25 9.75 1.15 8.85 1.55 8.45 1.35 7.95 L0.25 6.05 -1.25 4.7 -1.7 4.4 0.1 1.55 2.1 2.25 Q2.4 2.75 3.0 2.75 L3.4 2.7 3.6 2.55 3.75 2.15 Q3.65 0.65 2.25 -0.15 L1.45 -0.6 2.95 -2.7 3.1 -2.7 3.7 -2.85 Q4.55 -3.25 3.95 -3.85 L4.9 -4.8 M2.4 20.7 L2.3 20.6 2.3 20.65 2.35 20.7 2.45 20.8 2.4 20.7 M-17.1 73.55 L-17.05 73.9 -16.9 74.55 -16.95 74.85 -16.95 74.9 -16.95 75.0 -17.1 73.55 M-12.2 88.15 L-11.15 87.75 -10.6 87.7 -10.0 88.7 -9.95 89.4 -9.7 90.3 Q-9.3 91.5 -8.55 92.15 L-8.0 92.25 -8.85 92.8 -9.95 92.85 -10.05 92.85 -10.5 91.3 -10.55 89.55 -10.55 89.5 -10.45 89.5 -10.55 89.5 -11.75 89.1 Q-12.55 88.8 -12.45 88.25 L-12.2 88.15 M-6.7 86.7 L-6.4 86.6 -5.65 86.4 -5.3 86.8 -4.9 87.1 -4.6 87.3 -4.15 87.75 -3.75 88.0 Q-3.35 88.6 -4.1 89.25 L-3.45 90.6 Q-3.05 91.3 -2.2 90.95 L-1.95 91.0 -1.25 91.15 -1.4 91.65 Q-1.6 92.25 -2.25 92.45 L-2.55 92.55 -2.5 92.5 Q-3.4 92.8 -3.95 91.95 L-4.65 90.5 Q-4.45 89.35 -5.5 88.5 L-6.6 87.5 -6.7 87.35 -7.0 86.95 -6.95 86.9 -6.7 86.7 M6.25 78.25 L7.3 76.35 9.2 73.55 10.4 74.2 11.1 74.9 11.55 75.75 9.8 74.6 9.05 75.9 7.9 77.85 8.05 78.8 Q6.85 78.8 6.25 78.25 M-14.25 75.3 L-14.2 75.35 -14.2 75.4 -14.25 75.3 M-16.8 74.95 L-16.8 74.9 -16.8 74.95 M-3.5 92.6 L-3.55 92.6 -3.65 92.45 -3.5 92.6" fill="#333333" fill-rule="evenodd" stroke="none"/>
    <path d="M-3.1 7.7 L-3.15 7.7 -3.1 7.65 -3.0 7.7 -3.1 7.7" fill="#414141" fill-rule="evenodd" stroke="none"/>
    <path d="M2.4 20.7 L2.45 20.8 2.35 20.7 2.3 20.65 2.3 20.6 2.4 20.7 M-16.4 87.35 L-15.85 86.6 -15.15 86.45 -15.1 86.4 Q-14.1 86.5 -13.9 87.65 L-13.9 87.75 -13.4 88.05 Q-12.15 88.95 -13.35 90.35 L-13.9 90.7 -14.15 90.75 -15.35 90.5 -15.95 90.0 -16.5 88.9 Q-16.75 88.05 -16.4 87.35 M-10.6 87.7 Q-11.4 85.7 -9.35 85.2 -8.65 85.45 -8.05 85.95 -7.45 86.5 -7.0 87.4 -6.45 88.6 -7.45 89.5 -9.1 89.85 -10.0 88.7 L-10.6 87.7 M-4.85 86.7 Q-5.3 84.9 -4.15 83.65 L-4.0 83.6 -3.3 83.35 -3.3 83.3 -3.1 83.25 Q-1.15 82.95 -0.25 84.6 0.65 86.25 -0.75 87.5 -2.2 88.8 -3.75 88.0 L-4.15 87.75 -4.6 87.3 -4.85 86.75 -4.85 86.7 M-15.25 21.75 L-15.15 21.7 -15.2 21.8 -15.25 21.75" fill="#999999" fill-rule="evenodd" stroke="none"/>
    <path d="M-2.75 44.3 Q-2.25 46.8 -1.55 47.7 -1.4 52.75 -4.1 55.95 -6.9 54.25 -10.8 54.1 -14.85 53.95 -17.55 55.6 -18.15 57.2 -19.35 56.4 L-20.35 55.55 Q-20.95 55.05 -21.35 55.0 -24.05 49.9 -22.4 45.35 -20.95 42.05 -20.0 40.95 -18.2 38.65 -15.55 38.85 -9.65 37.85 -4.2 41.05 -3.25 42.0 -2.75 44.3 M-4.65 57.35 L-4.55 57.35 -4.55 59.7 -11.25 60.25 -12.25 60.3 Q-12.45 58.15 -13.55 57.05 -8.25 55.0 -4.65 57.35 M-12.55 62.7 L-10.4 62.35 -4.65 61.5 -3.75 63.25 Q-3.6 64.2 -4.65 65.0 L-6.55 66.05 Q-9.1 67.45 -12.15 67.75 L-11.9 65.75 Q-11.45 63.65 -12.55 62.7 M-21.1 45.1 Q-21.45 46.6 -21.1 48.4 L-20.55 49.8 Q-17.5 54.7 -11.8 51.9 L-10.05 50.0 Q-7.45 47.35 -8.2 43.8 -9.2 39.05 -14.45 39.65 L-15.8 39.85 Q-16.8 40.0 -17.65 40.5 L-19.25 41.7 -19.25 41.75 Q-20.75 43.15 -21.1 45.1" fill="#400040" fill-rule="evenodd" stroke="none"/>
    <path d="M5.0 81.1 L4.9 81.3 Q4.6 82.2 5.0 83.05 L4.8 84.1 4.8 84.5 Q4.2 83.25 3.7 80.85 4.55 80.75 5.0 81.1 M-4.65 57.35 L-4.55 57.15 -4.55 57.35 -4.65 57.35" fill="#ffffff" fill-rule="evenodd" stroke="none"/>
    <path d="M-14.45 75.85 L-14.9 75.75 -15.05 75.7 -15.15 75.4 -15.25 74.95 -15.1 74.9 -15.35 74.55 -15.4 73.85 -15.35 71.1 Q-12.35 71.5 -8.55 70.05 L-8.4 70.4 -8.6 70.55 -9.75 71.85 Q-10.7 72.35 -12.0 72.45 L-14.75 72.25 Q-14.45 72.8 -14.35 73.8 L-14.2 75.35 -14.25 75.3 Q-14.55 75.45 -14.45 75.85 M13.35 88.05 L13.1 86.0 12.7 82.55 12.35 80.9 11.0 77.25 10.85 77.15 9.05 75.9 9.8 74.6 11.55 75.75 11.65 75.8 Q12.85 76.4 13.2 77.25 12.7 78.85 13.7 81.4 14.7 84.0 14.45 85.4 14.2 85.7 14.05 86.8 13.95 87.8 13.35 88.15 L13.35 88.05 M12.7 94.25 L12.55 95.0 12.25 97.65 10.8 97.85 Q9.9 97.95 9.45 98.4 8.55 97.1 7.25 96.55 5.8 95.95 4.35 96.25 L3.35 96.55 Q2.75 96.75 2.7 97.15 1.55 97.1 1.1 96.4 L1.75 95.45 Q3.55 94.0 5.75 94.9 L7.0 95.2 10.85 95.6 10.95 95.55 12.7 94.25 M-0.3 96.75 Q-0.2 96.8 -0.05 96.9 L2.35 98.3 1.45 99.65 Q1.0 100.45 0.3 100.15 -0.4 99.6 -1.55 99.45 L-3.55 99.15 -3.55 99.05 -3.55 98.6 -3.25 98.25 Q-2.6 97.75 -1.8 97.6 L-1.55 97.45 -0.6 96.6 -0.3 96.75" fill="#666633" fill-rule="evenodd" stroke="none"/>
    <path d="M-14.45 75.85 Q-14.55 75.45 -14.25 75.3 L-14.2 75.4 -14.2 75.35 -14.35 73.8 Q-14.45 72.8 -14.75 72.25 L-12.0 72.45 Q-10.7 72.35 -9.75 71.85 L-8.6 70.55 -8.4 70.4 -7.5 72.5 Q-6.9 73.9 -6.85 75.05 L-7.25 75.55 -9.45 75.95 -12.4 76.1 -14.45 75.85 M9.05 75.9 L10.85 77.15 11.0 77.25 12.35 80.9 12.7 82.55 13.1 86.0 13.35 88.05 Q12.7 85.9 11.45 85.8 10.65 85.9 10.7 84.7 L10.55 82.75 Q10.9 81.4 9.35 80.15 L8.25 79.1 8.05 78.8 7.9 77.85 9.05 75.9 M1.1 96.4 L0.85 95.6 0.75 94.3 0.3 92.95 Q0.6 92.35 1.7 91.95 L3.55 91.3 Q4.1 91.3 4.95 92.15 5.85 93.1 6.35 93.25 9.1 94.3 13.55 92.6 13.0 93.3 12.7 94.25 L10.95 95.55 10.85 95.6 7.0 95.2 5.75 94.9 Q3.55 94.0 1.75 95.45 L1.1 96.4 M-9.25 94.0 Q-8.8 93.85 -8.45 94.15 -8.2 94.9 -6.55 95.5 L-6.15 96.2 -5.65 96.85 -6.35 96.55 Q-8.65 95.5 -10.1 94.15 L-9.25 94.0 M-3.55 99.05 Q-3.55 97.15 -5.3 95.5 L-3.05 94.7 Q-1.6 94.05 -0.8 93.95 L-1.1 95.2 Q-1.45 95.9 -0.95 96.4 L-0.3 96.75 -0.6 96.6 -1.55 97.45 -1.8 97.6 Q-2.6 97.75 -3.25 98.25 L-3.55 98.6 -3.55 99.05 M6.8 88.15 Q7.5 90.7 7.15 91.85 6.5 91.85 5.75 91.25 L4.5 90.3 Q4.6 89.6 5.5 89.2 6.55 88.75 6.8 88.15" fill="#999966" fill-rule="evenodd" stroke="none"/>
    <path d="M-12.25 60.3 L-15.15 60.6 Q-14.0 59.1 -16.45 58.4 L-16.5 58.4 Q-15.0 57.55 -13.55 57.05 -12.45 58.15 -12.25 60.3 M-16.85 60.85 L-17.9 61.05 Q-18.15 60.35 -17.85 59.6 L-17.55 59.05 -17.5 59.0 -17.75 59.4 -17.85 59.6 Q-18.15 60.35 -17.4 60.95 L-16.85 60.85 M-12.15 67.75 L-14.85 67.75 -14.3 67.1 Q-13.4 65.65 -14.65 64.7 L-14.7 64.55 -14.85 64.4 -15.25 64.2 -15.6 64.3 -15.85 64.4 -15.85 64.45 -16.15 64.4 -16.55 64.85 -16.0 63.25 -12.55 62.7 Q-11.45 63.65 -11.9 65.75 L-12.15 67.75 M-16.1 67.6 L-16.35 67.6 -16.6 66.95 -16.4 67.5 -16.1 67.6 M-19.25 41.7 L-17.65 40.5 Q-16.8 40.0 -15.8 39.85 L-14.45 39.65 Q-9.2 39.05 -8.2 43.8 -7.45 47.35 -10.05 50.0 L-11.8 51.9 Q-17.5 54.7 -20.55 49.8 L-21.1 48.4 Q-21.45 46.6 -21.1 45.1 L-21.1 45.3 Q-20.45 49.35 -16.2 48.05 -14.85 46.8 -14.3 44.95 -13.15 40.8 -17.7 40.85 L-19.25 41.7" fill="#54035a" fill-rule="evenodd" stroke="none"/>
    <path d="M-15.15 60.6 L-16.1 60.7 -16.85 60.85 -17.4 60.95 Q-18.15 60.35 -17.85 59.6 L-17.75 59.4 -17.5 59.0 -16.5 58.4 -16.45 58.4 Q-14.0 59.1 -15.15 60.6 M-14.85 67.75 L-15.15 67.7 -16.05 67.65 -16.1 67.6 -16.4 67.5 -16.6 66.95 -16.6 65.05 -16.55 64.85 -16.15 64.4 -15.85 64.45 -15.85 64.4 -15.6 64.3 -15.25 64.2 -14.85 64.4 -14.7 64.55 -14.65 64.7 Q-13.4 65.65 -14.3 67.1 L-14.85 67.75 M-19.25 41.7 L-17.7 40.85 Q-13.15 40.8 -14.3 44.95 -14.85 46.8 -16.2 48.05 -20.45 49.35 -21.1 45.3 L-21.1 45.1 Q-20.75 43.15 -19.25 41.75 L-19.25 41.7" fill="#663399" fill-rule="evenodd" stroke="none"/>
    <path d="M-15.15 86.45 L-15.15 86.4 -15.1 86.4 -15.15 86.45" fill="#cccccc" fill-rule="evenodd" stroke="none"/>
  </g>
</svg>
