<?xml version="1.0" encoding="UTF-8" standalone="no"?>
<svg xmlns:xlink="http://www.w3.org/1999/xlink" height="105.95px" width="35.5px" xmlns="http://www.w3.org/2000/svg">
  <g transform="matrix(1.0, 0.0, 0.0, 1.0, 10.4, 9.25)">
    <path d="M13.2 -0.5 L13.1 -0.6 13.25 -0.65 13.2 -0.5 M-1.35 -4.6 Q0.25 -4.65 1.85 -5.5 L2.5 -5.75 Q2.9 -5.9 2.9 -6.3 2.95 -7.55 1.6 -7.6 -0.65 -7.25 -2.3 -5.8 L-2.35 -5.75 -3.3 -6.7 -3.2 -6.8 -2.85 -7.0 -0.75 -7.6 3.2 -7.7 5.95 -6.85 8.3 -5.75 8.5 -4.95 Q8.85 -4.1 9.7 -3.6 L10.15 -3.2 10.25 -3.15 10.65 -3.05 10.5 -1.6 10.6 -0.6 10.65 -0.6 Q10.75 -0.15 11.0 0.2 L12.45 0.3 13.05 0.35 13.5 0.8 Q13.65 1.3 13.4 1.6 13.65 1.95 13.55 2.5 L13.55 2.75 Q13.7 3.35 13.35 3.85 L13.1 3.65 14.35 4.7 14.2 4.9 14.15 5.0 14.15 5.15 14.1 5.3 14.05 5.4 14.05 5.5 14.05 5.55 14.05 5.6 Q13.95 6.1 14.0 6.5 14.2 7.45 15.2 7.9 L15.9 8.15 15.55 8.95 15.8 9.45 15.7 10.1 15.5 10.7 15.95 11.1 Q17.0 12.05 17.0 12.65 16.35 13.45 17.1 14.65 L18.4 16.55 Q17.45 17.7 17.45 18.6 17.6 20.5 18.7 20.75 19.95 21.35 19.35 22.35 L18.9 23.25 Q18.65 23.85 18.9 24.35 19.25 25.75 21.7 27.6 L19.65 29.5 Q19.65 30.45 20.5 31.65 L21.7 33.7 20.7 34.8 Q20.1 35.5 20.1 36.15 L19.85 37.55 19.9 37.6 19.85 37.65 19.85 37.85 19.7 38.15 18.75 37.85 18.2 37.75 16.55 37.4 15.6 37.25 15.5 37.2 14.8 37.1 14.5 37.1 12.2 36.95 12.15 36.95 12.5 35.1 12.35 34.5 12.35 33.5 11.65 33.65 12.7 33.4 14.05 33.2 Q15.8 33.2 17.35 33.95 18.65 34.55 19.2 33.45 L19.15 32.65 Q18.8 32.0 18.0 31.8 L16.85 31.45 16.4 31.35 14.55 31.2 14.55 31.15 12.25 31.3 12.15 30.4 12.05 29.65 14.6 29.55 17.35 29.65 Q18.7 29.85 18.7 28.55 L18.3 27.8 14.85 27.4 11.8 27.75 11.1 24.15 11.7 23.9 15.35 23.65 Q16.55 23.9 17.3 23.15 L17.35 22.85 Q16.95 21.75 15.75 21.6 L14.55 21.4 Q12.4 21.25 10.65 22.05 L9.75 18.65 9.7 18.4 13.15 17.35 14.55 17.25 Q15.5 17.3 16.0 16.65 L15.95 16.25 Q15.15 15.6 14.05 15.55 L13.3 15.5 Q11.15 15.75 9.1 16.4 L8.3 14.0 8.05 14.1 Q9.6 13.3 11.3 12.75 L13.25 12.65 Q14.15 12.85 14.45 12.15 14.65 11.75 14.3 11.45 13.6 10.85 12.75 10.75 10.35 10.7 8.15 11.7 L7.6 12.0 6.7 9.65 8.5 8.5 9.6 8.0 11.9 7.75 Q12.85 7.1 11.9 6.4 L11.05 6.15 10.55 6.05 Q8.9 6.0 7.45 6.8 L5.9 7.65 5.85 7.7 5.65 7.2 4.75 5.8 4.65 5.9 4.65 5.8 4.75 5.8 4.7 5.75 4.65 5.75 4.65 5.6 4.45 4.6 5.85 3.7 Q7.0 3.1 8.3 2.85 L9.15 2.65 9.85 2.1 9.9 2.0 9.9 1.8 9.9 1.7 9.45 1.2 Q9.0 0.9 8.55 0.95 5.65 0.95 3.25 2.5 L1.45 -0.35 Q3.0 -1.0 4.4 -1.8 5.25 -2.25 6.3 -2.25 7.4 -2.25 7.45 -3.1 7.0 -3.7 6.3 -3.8 L4.55 -4.05 Q2.25 -3.75 0.2 -2.55 L0.15 -2.5 -1.35 -4.6 M16.7 19.8 L16.75 19.9 16.8 19.85 16.7 19.8 M6.35 37.5 L6.1 37.55 6.05 37.6 5.65 37.7 5.35 37.75 4.9 37.75 4.95 37.7 4.8 37.85 Q4.65 37.9 4.55 38.05 L4.55 37.9 Q4.5 37.3 3.85 37.05 L2.65 36.5 Q2.6 36.0 3.05 35.05 L3.6 33.5 Q3.5 32.8 2.65 32.55 1.65 32.2 1.45 31.9 L1.85 30.4 2.0 28.8 Q0.6 27.9 -0.45 27.75 L0.0 27.0 0.2 26.0 Q0.05 25.35 -0.65 25.1 L-1.85 24.65 Q-1.35 23.8 -1.35 22.85 L-1.35 22.5 Q-1.75 21.5 -2.35 21.05 -3.1 20.4 -4.2 20.6 L-3.85 19.85 -3.9 19.75 Q-4.35 19.4 -4.25 18.7 L-3.6 16.5 -3.85 17.15 -4.85 16.25 Q-4.85 15.55 -5.1 14.9 L-5.35 14.35 Q-5.65 13.45 -6.45 12.9 -5.9 11.65 -6.25 10.4 L-6.6 9.75 Q-6.75 9.5 -7.05 9.45 L-7.95 9.25 Q-7.2 8.35 -7.2 7.15 -7.15 5.95 -8.1 5.15 -8.35 4.9 -8.7 4.8 L-9.15 4.65 -9.4 2.35 -9.35 2.4 -7.1 6.25 -6.3 7.75 -5.5 9.25 Q-4.7 11.1 -4.55 13.05 -4.45 14.05 -3.65 14.8 L-3.5 15.0 -3.05 15.15 -3.25 15.65 Q-2.5 16.2 -2.2 17.3 L-1.95 17.75 Q0.0 19.75 -0.05 22.5 1.4 23.6 2.4 25.05 L2.8 26.0 Q2.95 27.4 2.55 28.65 L3.4 29.5 Q5.4 31.8 4.2 34.5 L5.1 35.55 5.95 36.45 6.0 36.8 6.35 37.5 M9.25 68.3 Q10.7 68.75 12.3 69.8 L14.3 69.55 16.35 69.6 Q16.95 70.1 16.7 71.0 L16.4 71.9 15.65 71.5 15.5 71.4 13.7 71.05 10.75 70.9 10.6 70.95 10.4 71.0 9.1 71.75 9.4 69.45 9.25 68.3 M15.45 75.95 L15.4 76.1 15.1 76.15 15.45 75.95 M8.6 73.25 L8.55 73.25 8.6 73.05 8.6 73.25 M8.1 74.35 L8.1 74.7 8.4 75.9 8.65 76.1 9.8 76.25 12.2 76.9 15.9 77.05 16.05 77.0 16.45 76.45 16.5 76.05 16.55 75.9 Q17.0 78.85 16.7 81.85 16.15 85.95 14.15 88.95 L14.15 91.7 Q12.85 93.25 11.5 93.25 L11.45 93.2 11.55 93.15 Q12.5 92.5 12.75 91.45 12.95 90.45 12.7 89.85 L12.5 88.65 Q11.95 87.4 10.5 87.65 L9.05 88.75 Q7.85 90.05 8.7 91.55 L9.0 91.8 8.4 92.45 Q7.5 93.5 6.4 93.15 L6.25 93.2 Q7.15 92.2 7.4 90.9 7.6 89.85 7.2 89.25 7.15 88.7 6.7 88.25 L6.4 87.85 Q5.55 86.75 4.1 86.75 L3.2 87.0 3.45 86.25 Q5.65 80.25 8.1 74.35 M2.9 92.8 L2.8 93.55 Q3.5 94.15 4.35 93.9 2.9 95.7 -0.95 94.8 L-1.35 94.0 -0.9 93.8 1.4 90.6 Q1.6 91.35 2.1 92.0 L2.8 92.55 2.9 92.8" fill="#4e4e4e" fill-rule="evenodd" stroke="none"/>
    <path d="M13.2 -0.5 L14.45 0.25 Q15.05 1.65 14.05 2.7 L15.6 3.8 Q16.1 4.4 15.75 5.15 L15.15 6.45 Q15.25 6.8 15.65 6.75 L16.35 6.75 Q17.0 7.35 16.8 8.3 L16.35 9.9 17.9 10.7 Q18.7 11.2 18.55 12.2 17.25 13.1 18.1 14.4 L18.95 15.45 19.45 16.55 Q19.75 17.25 19.2 18.0 18.45 18.95 18.4 19.25 L19.65 20.25 20.9 21.4 Q21.35 22.2 20.55 23.3 19.7 24.45 19.95 25.15 20.8 25.35 21.75 26.25 L23.35 27.6 Q23.0 29.05 21.05 30.55 L22.75 32.7 Q23.35 33.75 22.6 34.8 L21.85 35.65 21.35 36.6 22.4 37.65 22.35 37.65 22.5 38.4 22.4 39.1 22.2 39.6 Q23.15 40.35 23.8 41.45 25.0 43.3 24.95 45.8 25.4 48.35 24.3 51.15 L21.8 55.8 Q19.6 56.0 19.75 58.25 L19.95 60.25 Q20.0 61.35 19.6 62.0 19.45 63.45 18.5 65.1 L16.6 67.9 Q16.45 68.35 17.1 68.7 17.85 69.0 17.95 69.45 17.6 71.3 17.9 73.95 L18.35 78.45 Q17.95 84.25 15.6 88.95 16.2 90.5 15.0 91.9 L13.95 93.0 13.05 94.2 10.3 93.85 7.6 94.0 Q6.9 94.05 6.1 94.7 L4.8 95.9 Q3.15 97.3 1.7 96.25 L-0.7 96.0 -1.25 95.55 -3.5 93.7 -5.75 90.95 Q-6.2 90.25 -6.85 89.95 L-7.15 88.65 -7.95 87.8 -7.7 87.35 -10.0 82.45 Q-10.6 81.15 -10.35 79.85 L-10.3 79.75 -10.35 79.75 -8.85 78.2 -8.45 77.75 -8.2 77.8 -6.7 77.15 Q-5.8 76.75 -5.45 76.15 -5.9 75.25 -5.0 74.75 L-3.65 73.9 -1.75 73.3 -1.7 73.35 -0.95 73.0 -0.5 72.8 -0.1 72.6 -0.05 72.55 1.55 71.6 Q3.2 70.25 2.15 68.05 L4.7 66.35 4.35 65.7 Q4.65 63.25 4.1 60.5 L2.8 55.8 Q1.35 54.75 0.45 53.1 -0.55 51.35 -0.75 49.55 -1.35 41.95 2.25 38.9 L2.85 38.6 Q1.5 37.8 1.25 36.3 1.25 35.85 1.55 35.35 L2.0 34.45 0.7 33.45 Q-0.15 32.9 -0.1 32.15 L0.7 30.35 -0.6 29.75 Q-1.4 29.35 -1.5 28.65 L-1.45 27.7 -1.2 26.8 Q-2.7 26.35 -3.1 25.25 L-2.55 23.85 Q-2.25 23.0 -2.9 22.6 L-4.1 22.4 -5.1 21.95 -5.15 21.35 -5.05 20.1 -4.65 18.9 Q-4.6 18.55 -4.9 18.25 L-5.0 18.15 -5.1 18.1 -5.25 18.05 -5.25 18.0 -5.85 18.1 Q-5.95 17.6 -6.4 17.15 L-6.45 16.85 -6.05 15.2 Q-5.95 14.6 -6.45 14.25 L-6.5 14.2 -6.65 14.15 -6.7 14.1 -7.35 14.25 -7.4 14.2 -7.65 14.0 -7.9 12.95 -7.8 12.8 -7.5 12.35 -7.3 11.9 Q-6.95 11.6 -6.9 11.05 -6.9 10.5 -7.3 10.2 L-7.4 10.15 -7.55 10.1 -7.55 10.05 -8.6 10.2 -9.05 10.05 -9.2 8.95 -9.0 8.2 Q-7.6 7.2 -8.45 5.9 -8.55 5.8 -8.6 5.8 L-9.25 5.65 -9.4 5.6 -9.5 5.6 -9.55 5.6 -9.9 5.1 -9.9 1.5 -9.9 1.45 -9.65 -0.55 -8.8 -3.4 Q-7.7 -6.25 -4.9 -7.55 L-4.8 -7.6 -3.65 -8.05 Q-1.45 -9.25 1.55 -9.2 L2.85 -9.15 3.1 -9.0 3.4 -8.8 3.05 -9.05 3.95 -8.75 3.2 -9.05 4.35 -9.1 4.45 -9.05 Q7.3 -8.25 9.65 -6.4 L9.6 -5.4 Q9.55 -4.55 10.4 -4.2 L11.95 -4.1 12.15 -3.05 12.2 -2.95 11.9 -2.5 11.65 -1.7 Q11.6 -1.45 11.7 -1.25 L11.8 -0.95 12.05 -0.7 13.1 -0.6 13.2 -0.5 M12.15 36.95 L12.2 36.95 14.5 37.1 14.8 37.1 15.5 37.2 15.6 37.25 16.55 37.4 18.2 37.75 18.75 37.85 19.7 38.15 19.85 37.85 19.85 37.65 20.0 37.65 19.9 37.6 19.85 37.55 20.1 36.15 Q20.1 35.5 20.7 34.8 L21.7 33.7 20.5 31.65 Q19.65 30.45 19.65 29.5 L21.7 27.6 Q19.25 25.75 18.9 24.35 18.65 23.85 18.9 23.25 L19.35 22.35 Q19.95 21.35 18.7 20.75 17.6 20.5 17.45 18.6 17.45 17.7 18.4 16.55 L17.1 14.65 Q16.35 13.45 17.0 12.65 17.0 12.05 15.95 11.1 L15.5 10.7 15.7 10.1 15.8 9.45 15.55 8.95 15.9 8.15 15.2 7.9 Q14.2 7.45 14.0 6.5 13.95 6.1 14.05 5.6 L14.05 5.55 14.05 5.5 14.05 5.4 14.1 5.3 14.15 5.15 14.15 5.0 14.2 4.9 14.35 4.7 13.1 3.65 13.35 3.85 Q13.7 3.35 13.55 2.75 L13.55 2.5 Q13.65 1.95 13.4 1.6 13.65 1.3 13.5 0.8 L13.05 0.35 12.45 0.3 11.0 0.2 Q10.75 -0.15 10.65 -0.6 L10.6 -0.6 10.5 -1.6 10.65 -3.05 10.25 -3.15 10.15 -3.2 9.7 -3.6 Q8.85 -4.1 8.5 -4.95 L8.3 -5.75 5.95 -6.85 3.2 -7.7 -0.75 -7.6 -2.85 -7.0 -3.2 -6.8 -3.3 -6.7 -3.95 -7.25 -3.45 -6.8 -3.55 -6.75 Q-4.9 -6.1 -5.9 -4.95 -7.0 -3.65 -7.7 -2.05 -8.55 0.0 -9.05 2.15 L-9.05 2.25 -9.15 2.7 -9.35 2.4 -9.4 2.35 -9.15 4.65 -8.7 4.8 Q-8.35 4.9 -8.1 5.15 -7.15 5.95 -7.2 7.15 -7.2 8.35 -7.95 9.25 L-7.05 9.45 Q-6.75 9.5 -6.6 9.75 L-6.25 10.4 Q-5.9 11.65 -6.45 12.9 -5.65 13.45 -5.35 14.35 L-5.1 14.9 Q-4.85 15.55 -4.85 16.25 L-3.85 17.15 -3.6 16.5 -4.25 18.7 Q-4.35 19.4 -3.9 19.75 L-3.85 19.85 -4.2 20.6 Q-3.1 20.4 -2.35 21.05 -1.75 21.5 -1.35 22.5 L-1.35 22.85 Q-1.35 23.8 -1.85 24.65 L-0.65 25.1 Q0.05 25.35 0.2 26.0 L0.0 27.0 -0.45 27.75 Q0.6 27.9 2.0 28.8 L1.85 30.4 1.45 31.9 Q1.65 32.2 2.65 32.55 3.5 32.8 3.6 33.5 L3.05 35.05 Q2.6 36.0 2.65 36.5 L3.85 37.05 Q4.5 37.3 4.55 37.9 L4.55 38.05 Q4.65 37.9 4.8 37.85 L4.95 37.7 4.9 37.75 5.35 37.75 5.65 37.7 6.05 37.6 6.1 37.55 6.35 37.5 12.15 36.95 M8.35 38.6 L8.2 38.6 8.05 38.65 7.85 38.65 7.7 38.7 7.6 38.7 7.4 38.75 7.25 38.75 7.15 38.8 7.0 38.8 6.7 38.85 5.55 39.15 Q3.9 39.6 2.5 40.35 0.1 44.3 0.95 48.6 L2.0 52.1 Q2.8 54.05 4.35 54.7 L8.2 53.55 12.15 53.15 14.35 53.5 16.6 53.75 Q19.2 54.1 20.4 55.6 22.7 53.7 23.25 50.05 23.65 46.95 22.7 43.5 21.25 40.7 19.5 39.45 15.1 38.3 10.85 38.4 L8.35 38.6 M9.05 51.15 L8.8 50.3 8.4 47.8 8.35 45.1 Q8.55 42.75 9.2 40.6 L11.25 40.5 13.5 40.5 14.8 40.5 17.65 40.9 Q19.3 41.2 20.6 42.15 L21.05 43.65 21.5 46.45 21.5 49.0 Q21.3 50.85 20.35 52.6 L19.75 52.4 17.85 52.05 15.05 51.75 9.15 51.5 9.05 51.15 M11.0 55.5 L5.15 56.25 Q5.75 58.1 5.9 61.05 L5.9 65.9 7.5 66.05 7.65 66.1 10.45 66.65 11.8 66.8 16.15 67.25 17.3 65.1 17.45 64.05 Q17.4 63.4 17.7 63.05 L17.95 56.65 Q15.2 55.4 11.6 55.45 L11.0 55.5 M9.25 68.3 Q7.25 67.6 5.45 67.9 4.55 67.8 4.65 68.6 L4.8 69.25 4.8 69.9 Q3.65 72.1 1.0 73.55 L-3.85 75.5 Q-2.1 77.05 -1.95 80.7 L-1.7 80.8 Q-0.95 82.1 0.6 81.45 -0.15 81.75 0.05 82.85 0.3 84.15 0.05 84.6 L-0.45 87.2 Q-0.85 88.25 -2.65 87.7 -3.65 88.85 -3.85 90.95 -2.8 91.45 -2.05 92.65 L-2.0 92.75 -1.95 92.8 -1.8 93.05 -1.7 93.3 -1.5 93.65 -1.35 94.0 -0.95 94.8 Q2.9 95.7 4.35 93.9 3.5 94.15 2.8 93.55 L2.9 92.8 Q3.9 94.45 5.95 93.45 L6.25 93.2 6.4 93.15 Q7.5 93.5 8.4 92.45 L9.0 91.8 9.4 91.5 9.25 91.65 Q8.85 92.1 9.15 92.7 9.9 94.2 11.45 93.2 L11.5 93.25 Q12.85 93.25 14.15 91.7 L14.15 88.95 Q16.15 85.95 16.7 81.85 17.0 78.85 16.55 75.9 L16.5 76.05 16.45 76.45 16.05 77.0 15.9 77.05 12.2 76.9 9.8 76.25 8.65 76.1 8.4 75.9 8.1 74.7 8.1 74.35 8.25 73.95 8.55 73.25 8.6 73.25 Q8.5 74.1 8.85 75.35 L9.35 75.35 10.5 75.55 10.7 75.65 12.55 76.25 12.65 76.25 15.1 76.15 15.4 76.1 15.45 75.95 15.6 75.8 15.85 75.5 15.85 74.25 16.05 74.25 15.95 73.95 15.9 73.45 16.0 73.5 16.0 73.45 Q15.85 72.95 16.05 72.5 L14.65 72.35 Q13.65 72.1 13.05 71.6 L10.8 71.65 Q9.8 71.65 8.95 72.2 L9.1 71.75 10.4 71.0 10.6 70.95 10.75 70.9 13.7 71.05 15.5 71.4 15.65 71.5 16.4 71.9 16.7 71.0 Q16.95 70.1 16.35 69.6 L14.3 69.55 12.3 69.8 Q10.7 68.75 9.25 68.3 M16.35 72.35 L16.35 72.55 16.45 72.5 16.35 72.35 M-5.75 29.35 L-5.8 29.15 -5.75 29.3 -5.75 29.35 M-6.7 83.4 L-6.45 83.7 -5.85 84.6 -5.65 84.15 -5.3 83.8 Q-4.9 83.4 -4.45 82.6 L-3.75 81.45 Q-3.1 80.35 -3.6 79.1 -3.85 78.45 -4.85 77.05 -4.65 78.2 -5.5 79.15 L-5.6 79.3 -7.15 80.8 Q-8.1 81.7 -7.2 82.8 L-6.7 83.4 M-4.25 84.15 L-5.1 85.15 Q-5.1 85.75 -5.7 86.5 L-6.65 87.7 -5.8 88.4 -4.95 89.05 -4.5 88.3 -3.8 87.55 Q-3.1 86.65 -4.3 86.15 -4.15 86.0 -4.0 86.0 L-2.95 86.05 -1.7 86.55 Q-1.55 85.75 -1.55 84.4 L-1.4 82.2 Q-2.5 81.7 -3.45 82.9 L-3.45 82.95 -3.5 82.95 -3.5 83.0 -4.25 84.15" fill="#000000" fill-rule="evenodd" stroke="none"/>
    <path d="M-2.35 -5.75 L-2.3 -5.8 Q-0.65 -7.25 1.6 -7.6 2.95 -7.55 2.9 -6.3 2.9 -5.9 2.5 -5.75 L1.85 -5.5 Q0.25 -4.65 -1.35 -4.6 L-1.55 -4.6 -2.15 -4.75 Q-3.0 -5.15 -2.35 -5.75 M0.15 -2.5 L0.2 -2.55 Q2.25 -3.75 4.55 -4.05 L6.3 -3.8 Q7.0 -3.7 7.45 -3.1 7.4 -2.25 6.3 -2.25 5.25 -2.25 4.4 -1.8 3.0 -1.0 1.45 -0.35 L-0.55 0.35 Q-0.85 0.85 -1.45 0.85 L-1.85 0.8 -2.05 0.65 -2.2 0.25 Q-2.1 -1.25 -0.7 -2.05 L0.15 -2.5 M3.25 2.5 Q5.65 0.95 8.55 0.95 9.0 0.9 9.45 1.2 L9.9 1.7 9.9 1.8 9.9 2.0 9.85 2.1 9.15 2.65 8.3 2.85 Q7.0 3.1 5.85 3.7 L4.45 4.6 Q3.15 5.55 2.15 6.85 1.3 7.85 0.4 6.95 0.0 6.55 0.2 6.05 L1.3 4.15 Q1.95 3.35 2.8 2.8 L3.25 2.5 M5.85 7.7 L5.9 7.65 7.45 6.8 Q8.9 6.0 10.55 6.05 L11.05 6.15 11.9 6.4 Q12.85 7.1 11.9 7.75 L9.6 8.0 8.5 8.5 6.7 9.65 5.05 10.4 5.0 10.45 4.55 10.75 4.55 10.8 4.1 10.8 Q3.55 10.5 3.7 9.95 3.75 9.55 4.1 9.3 L4.3 8.95 Q4.95 8.15 5.85 7.7 M7.6 12.0 L8.15 11.7 Q10.35 10.7 12.75 10.75 13.6 10.85 14.3 11.45 14.65 11.75 14.45 12.15 14.15 12.85 13.25 12.65 L11.3 12.75 Q9.6 13.3 8.05 14.1 7.45 14.35 6.9 14.7 L6.75 14.75 5.6 15.6 Q4.65 16.4 3.55 16.15 L3.25 15.7 3.25 15.3 Q3.75 14.1 5.0 13.35 6.25 12.6 7.6 12.0 M9.1 16.4 Q11.15 15.75 13.3 15.5 L14.05 15.55 Q15.15 15.6 15.95 16.25 L16.0 16.65 Q15.5 17.3 14.55 17.25 L13.15 17.35 9.7 18.4 8.95 18.65 7.7 19.15 7.55 19.2 6.2 19.8 Q4.85 20.4 4.7 19.1 4.65 18.8 4.85 18.65 6.1 17.5 7.65 16.9 L9.1 16.4 M10.65 22.05 Q12.4 21.25 14.55 21.4 L15.75 21.6 Q16.95 21.75 17.35 22.85 L17.3 23.15 Q16.55 23.9 15.35 23.65 L11.7 23.9 11.1 24.15 10.75 24.25 10.55 24.3 7.75 25.15 7.5 24.95 Q7.25 24.7 7.4 24.3 7.6 23.85 8.1 23.55 L8.95 23.0 Q9.75 22.4 10.65 22.05 M11.8 27.75 L14.85 27.4 18.3 27.8 18.7 28.55 Q18.7 29.85 17.35 29.65 L14.6 29.55 12.05 29.65 10.85 29.7 Q10.3 29.7 10.0 29.25 9.7 28.75 10.25 28.45 L11.0 28.05 11.8 27.75 M12.25 31.3 L14.55 31.15 14.55 31.2 16.4 31.35 16.85 31.45 18.0 31.8 Q18.8 32.0 19.15 32.65 L19.2 33.45 Q18.65 34.55 17.35 33.95 15.8 33.2 14.05 33.2 L12.7 33.4 11.65 33.65 9.6 33.65 9.5 33.65 9.3 33.7 9.15 33.65 9.05 33.6 8.95 33.45 8.9 33.4 8.9 33.3 8.9 33.25 8.9 33.15 8.95 33.1 9.0 33.0 9.1 32.9 9.15 32.85 9.3 32.55 9.85 32.1 Q11.0 31.5 12.25 31.3 M-1.35 94.0 L-1.5 93.65 -1.7 93.3 -1.8 93.05 -1.95 92.8 -2.0 92.75 -2.05 92.65 Q-2.8 91.45 -3.85 90.95 -3.65 88.85 -2.65 87.7 -0.85 88.25 -0.45 87.2 L0.05 84.6 Q0.3 84.15 0.05 82.85 -0.15 81.75 0.6 81.45 -0.95 82.1 -1.7 80.8 L-1.95 80.7 Q-2.1 77.05 -3.85 75.5 L1.0 73.55 Q3.65 72.1 4.8 69.9 L4.8 69.25 4.65 68.6 Q4.55 67.8 5.45 67.9 7.25 67.6 9.25 68.3 L9.4 69.45 9.1 71.75 8.95 72.2 8.85 72.25 Q8.65 72.6 8.6 73.05 L8.55 73.25 8.25 73.95 8.1 74.35 Q5.65 80.25 3.45 86.25 L3.2 87.0 4.1 86.75 Q5.55 86.75 6.4 87.85 L6.7 88.25 Q7.15 88.7 7.2 89.25 6.7 88.65 5.55 88.55 3.4 89.2 2.65 91.45 2.5 92.0 2.75 92.5 L2.8 92.55 2.1 92.0 Q1.6 91.35 1.4 90.6 L-0.9 93.8 -1.35 94.0 M9.4 91.5 L9.0 91.8 8.7 91.55 Q7.85 90.05 9.05 88.75 L10.5 87.65 Q11.95 87.4 12.5 88.65 L12.7 89.85 Q12.35 89.2 11.5 88.9 L11.1 89.0 Q10.1 89.45 10.1 90.65 L9.4 91.5 M1.4 83.05 L0.6 85.8 0.8 85.8 Q3.05 84.6 2.95 81.1 L2.65 80.45 Q2.35 80.15 2.05 80.15 L1.4 83.05" fill="#666666" fill-rule="evenodd" stroke="none"/>
    <path d="M-1.35 -4.6 L0.15 -2.5 -0.7 -2.05 Q-2.1 -1.25 -2.2 0.25 L-2.05 0.65 -1.85 0.8 -1.45 0.85 Q-0.85 0.85 -0.55 0.35 L1.45 -0.35 3.25 2.5 2.8 2.8 Q1.95 3.35 1.3 4.15 L0.2 6.05 Q0.0 6.55 0.4 6.95 1.3 7.85 2.15 6.85 3.15 5.55 4.45 4.6 L4.65 5.6 4.65 5.75 4.55 5.8 4.65 5.8 4.65 5.9 4.75 5.8 5.65 7.2 5.85 7.7 Q4.95 8.15 4.3 8.95 L4.1 9.3 Q3.75 9.55 3.7 9.95 3.55 10.5 4.1 10.8 L4.55 10.8 4.55 10.75 5.0 10.45 5.05 10.4 6.7 9.65 7.6 12.0 Q6.25 12.6 5.0 13.35 3.75 14.1 3.25 15.3 L3.25 15.7 3.55 16.15 Q4.65 16.4 5.6 15.6 L6.75 14.75 6.9 14.7 Q7.45 14.35 8.05 14.1 L8.3 14.0 9.1 16.4 7.65 16.9 Q6.1 17.5 4.85 18.65 4.65 18.8 4.7 19.1 4.85 20.4 6.2 19.8 L7.55 19.2 7.7 19.15 8.95 18.65 9.7 18.4 9.75 18.65 10.65 22.05 Q9.75 22.4 8.95 23.0 L8.1 23.55 Q7.6 23.85 7.4 24.3 7.25 24.7 7.5 24.95 L7.75 25.15 10.55 24.3 10.75 24.25 11.1 24.15 11.8 27.75 11.0 28.05 10.25 28.45 Q9.7 28.75 10.0 29.25 10.3 29.7 10.85 29.7 L12.05 29.65 12.15 30.4 12.25 31.3 Q11.0 31.5 9.85 32.1 L9.3 32.55 9.15 32.85 9.1 32.9 9.0 33.0 8.95 33.1 8.9 33.15 8.9 33.25 8.9 33.3 8.9 33.4 8.95 33.45 9.05 33.6 9.15 33.65 9.3 33.7 9.5 33.65 9.6 33.65 11.65 33.65 12.35 33.5 12.35 34.5 12.5 35.1 12.15 36.95 6.35 37.5 6.0 36.8 5.95 36.45 5.1 35.55 4.2 34.5 Q5.4 31.8 3.4 29.5 L2.55 28.65 Q2.95 27.4 2.8 26.0 L2.4 25.05 Q1.4 23.6 -0.05 22.5 0.0 19.75 -1.95 17.75 L-2.2 17.3 Q-2.5 16.2 -3.25 15.65 L-3.05 15.15 -3.5 15.0 -3.65 14.8 Q-4.45 14.05 -4.55 13.05 -4.7 11.1 -5.5 9.25 L-6.3 7.75 -7.1 6.25 -9.35 2.4 -9.15 2.7 -9.05 2.25 -9.05 2.15 Q-8.55 0.0 -7.7 -2.05 -7.0 -3.65 -5.9 -4.95 -4.9 -6.1 -3.55 -6.75 L-3.45 -6.8 -3.95 -7.25 -3.3 -6.7 -2.35 -5.75 Q-3.0 -5.15 -2.15 -4.75 L-1.55 -4.6 -1.35 -4.6 M16.35 72.35 L16.45 72.5 16.35 72.55 16.35 72.35 M1.4 83.05 L2.05 80.15 Q2.35 80.15 2.65 80.45 L2.95 81.1 Q3.05 84.6 0.8 85.8 L0.6 85.8 1.4 83.05 M-0.8 18.8 L-0.7 18.75 -0.75 18.7 -0.8 18.8 -0.85 18.9 -0.8 18.8" fill="#333333" fill-rule="evenodd" stroke="none"/>
    <path d="M16.7 19.8 L16.8 19.85 16.75 19.9 16.7 19.8 M11.45 93.2 Q9.9 94.2 9.15 92.7 8.85 92.1 9.25 91.65 L9.4 91.5 10.1 90.65 Q10.1 89.45 11.1 89.0 L11.5 88.9 Q12.35 89.2 12.7 89.85 12.95 90.45 12.75 91.45 12.5 92.5 11.55 93.15 L11.45 93.2 M6.25 93.2 L5.95 93.45 Q3.9 94.45 2.9 92.8 L2.8 92.55 2.75 92.5 Q2.5 92.0 2.65 91.45 3.4 89.2 5.55 88.55 6.7 88.65 7.2 89.25 7.6 89.85 7.4 90.9 7.15 92.2 6.25 93.2 M-0.8 18.8 L-0.85 18.9 -0.8 18.8 -0.75 18.7 -0.7 18.75 -0.8 18.8" fill="#999999" fill-rule="evenodd" stroke="none"/>
    <path d="M5.55 39.15 L6.7 38.85 7.0 38.8 7.15 38.8 7.25 38.75 7.4 38.75 7.6 38.7 7.7 38.7 7.85 38.65 8.05 38.65 8.2 38.6 8.35 38.6 Q11.55 38.8 13.5 40.5 L11.25 40.5 9.2 40.6 Q8.55 42.75 8.35 45.1 L8.4 47.8 8.8 50.3 9.05 51.15 Q3.75 51.3 2.15 46.0 L2.05 45.6 1.95 44.5 1.95 44.4 1.95 44.15 2.0 43.75 2.0 43.7 Q2.3 40.8 4.45 39.5 L5.55 39.15 M11.0 55.5 L11.45 59.65 Q11.9 63.35 10.95 66.7 L10.45 66.65 7.65 66.1 7.5 66.05 5.9 65.9 5.9 61.05 Q5.75 58.1 5.15 56.25 L11.0 55.5 M8.85 55.85 Q8.45 55.9 8.2 56.15 6.45 58.0 6.65 60.85 6.7 61.5 7.15 62.0 8.95 63.95 10.1 61.65 L10.55 60.45 Q11.55 57.1 8.85 55.85" fill="#54035a" fill-rule="evenodd" stroke="none"/>
    <path d="M19.85 37.65 L19.9 37.6 20.0 37.65 19.85 37.65 M8.35 38.6 L10.85 38.4 Q15.1 38.3 19.5 39.45 21.25 40.7 22.7 43.5 23.65 46.95 23.25 50.05 22.7 53.7 20.4 55.6 19.2 54.1 16.6 53.75 L14.35 53.5 12.15 53.15 8.2 53.55 4.35 54.7 Q2.8 54.05 2.0 52.1 L0.95 48.6 Q0.1 44.3 2.5 40.35 3.9 39.6 5.55 39.15 L4.45 39.5 Q2.3 40.8 2.0 43.7 L2.0 43.75 1.95 44.15 1.95 44.4 1.95 44.5 2.05 45.6 2.15 46.0 Q3.75 51.3 9.05 51.15 L9.15 51.5 15.05 51.75 17.85 52.05 19.75 52.4 20.35 52.6 Q21.3 50.85 21.5 49.0 L21.5 46.45 21.05 43.65 20.6 42.15 Q19.3 41.2 17.65 40.9 L14.8 40.5 13.5 40.5 Q11.55 38.8 8.35 38.6 M10.45 66.65 L10.95 66.7 Q11.9 63.35 11.45 59.65 L11.0 55.5 11.6 55.45 Q15.2 55.4 17.95 56.65 L17.7 63.05 Q17.4 63.4 17.45 64.05 L17.3 65.1 16.15 67.25 11.8 66.8 10.45 66.65" fill="#400040" fill-rule="evenodd" stroke="none"/>
    <path d="M4.65 5.75 L4.7 5.75 4.75 5.8 4.65 5.8 4.55 5.8 4.65 5.75" fill="#414141" fill-rule="evenodd" stroke="none"/>
    <path d="M8.85 55.85 Q11.55 57.1 10.55 60.45 L10.1 61.65 Q8.95 63.95 7.15 62.0 6.7 61.5 6.65 60.85 6.45 58.0 8.2 56.15 8.45 55.9 8.85 55.85" fill="#663399" fill-rule="evenodd" stroke="none"/>
    <path d="M8.95 72.2 Q9.8 71.65 10.8 71.65 L13.05 71.6 Q13.65 72.1 14.65 72.35 L16.05 72.5 Q15.85 72.95 16.0 73.45 L16.0 73.5 15.9 73.45 14.65 73.3 11.95 73.25 Q10.6 72.65 9.9 73.75 L9.75 73.8 9.6 74.0 9.6 74.15 9.55 74.35 9.35 74.65 9.25 75.05 9.25 75.15 9.3 75.25 9.35 75.35 8.85 75.35 Q8.5 74.1 8.6 73.25 L8.6 73.05 Q8.65 72.6 8.85 72.25 L8.95 72.2 M-5.6 79.3 L-5.5 79.15 Q-4.65 78.2 -4.85 77.05 -3.85 78.45 -3.6 79.1 -3.1 80.35 -3.75 81.45 L-4.45 82.6 Q-4.9 83.4 -5.3 83.8 L-5.65 84.15 -5.85 84.6 -6.45 83.7 -6.7 83.4 -5.1 80.75 -5.6 79.3 M-4.25 84.15 L-3.5 83.0 -3.5 82.95 -3.45 82.95 -3.45 82.9 Q-2.5 81.7 -1.4 82.2 L-1.55 84.4 Q-1.55 85.75 -1.7 86.55 L-2.95 86.05 -4.0 86.0 -4.25 85.3 -4.3 84.2 -4.25 84.15" fill="#666633" fill-rule="evenodd" stroke="none"/>
    <path d="M15.9 73.45 L15.95 73.95 16.05 74.25 15.85 74.25 15.85 75.5 15.6 75.8 15.45 75.95 15.1 76.15 12.65 76.25 12.55 76.25 10.7 75.65 10.5 75.55 9.35 75.35 9.3 75.25 9.25 75.15 9.25 75.05 9.35 74.65 9.55 74.35 9.6 74.15 9.6 74.0 9.75 73.8 9.9 73.75 Q10.6 72.65 11.95 73.25 L14.65 73.3 15.9 73.45 M14.4 74.95 L14.45 74.95 14.45 74.45 14.4 74.95 M-6.7 83.4 L-7.2 82.8 Q-8.1 81.7 -7.15 80.8 L-5.6 79.3 -5.1 80.75 -6.7 83.4 M-4.0 86.0 Q-4.15 86.0 -4.3 86.15 -3.1 86.65 -3.8 87.55 L-4.5 88.3 -4.95 89.05 -5.8 88.4 -6.65 87.7 -5.7 86.5 Q-5.1 85.75 -5.1 85.15 L-4.25 84.15 -4.3 84.2 -4.25 85.3 -4.0 86.0 M-3.45 82.95 L-3.45 82.9 -3.45 82.95" fill="#999966" fill-rule="evenodd" stroke="none"/>
    <path d="M14.4 74.95 L14.45 74.45 14.45 74.95 14.4 74.95" fill="#ffffff" fill-rule="evenodd" stroke="none"/>
  </g>
</svg>
