<?xml version="1.0" encoding="UTF-8" standalone="no"?>
<svg xmlns:xlink="http://www.w3.org/1999/xlink" height="131.45px" width="105.9px" xmlns="http://www.w3.org/2000/svg">
  <g transform="matrix(1.0, 0.0, 0.0, 1.0, 52.95, 65.7)">
    <path d="M-27.7 37.4 L-28.55 37.3 -28.85 37.55 -29.15 37.5 -29.4 37.15 -29.3 37.05 -29.55 36.7 Q-30.5 35.75 -30.85 34.4 L-31.45 32.05 -31.75 30.35 -32.0 29.2 -32.1 28.35 -32.0 28.1 Q-31.6 27.25 -30.6 27.15 L-29.9 27.0 -28.6 26.75 -28.4 26.7 -28.4 25.3 -28.8 24.8 Q-28.85 23.7 -29.45 22.65 L-29.65 22.15 -29.95 21.3 Q-30.15 20.4 -30.6 19.6 -31.45 17.95 -31.9 16.1 L-32.4 14.65 Q-33.35 12.5 -33.6 10.2 -33.7 9.2 -34.25 8.7 L-34.25 8.55 Q-34.3 8.2 -34.55 8.0 -36.1 6.5 -37.95 5.3 -41.05 3.35 -44.35 1.75 -47.75 0.1 -50.0 -2.9 -50.55 -3.65 -51.25 -3.95 L-51.5 -4.25 Q-52.5 -5.45 -52.95 -6.5 L-49.2 -11.55 Q-46.8 -14.4 -44.25 -15.7 L-44.2 -17.85 Q-44.1 -19.1 -43.3 -19.75 L-49.05 -28.3 Q-48.7 -29.45 -47.7 -28.75 -46.35 -27.75 -45.95 -27.8 L-40.2 -25.5 -38.05 -27.6 Q-39.3 -34.35 -39.25 -37.3 -38.4 -36.5 -35.05 -34.35 -32.35 -32.6 -31.05 -30.9 -29.05 -30.85 -26.55 -33.15 L-24.6 -34.8 Q-23.45 -35.65 -22.3 -35.75 L-21.6 -35.9 Q-21.1 -35.95 -20.95 -36.15 -24.05 -37.9 -24.95 -41.55 L-25.5 -44.95 -25.85 -48.35 Q-25.55 -49.45 -25.35 -51.7 L-25.2 -53.3 -24.5 -55.0 -24.4 -55.35 -23.35 -57.3 -21.5 -59.0 Q-20.1 -60.0 -18.4 -60.55 -17.35 -60.85 -16.4 -61.35 L-16.1 -61.55 -14.8 -61.85 Q-15.0 -62.2 -14.85 -62.65 -14.6 -63.35 -13.95 -63.8 L-13.95 -63.85 -13.65 -64.25 -13.1 -64.7 -10.05 -65.5 -7.95 -65.65 Q-6.75 -65.85 -5.7 -65.25 L-3.8 -63.8 -3.6 -63.6 -2.8 -63.75 -1.9 -63.7 5.0 -63.1 9.05 -62.5 14.35 -61.5 15.0 -61.35 17.2 -60.6 22.15 -56.3 Q24.95 -53.75 26.4 -51.3 L27.35 -50.7 27.55 -50.35 29.65 -47.4 29.75 -47.15 30.0 -46.9 29.95 -46.8 31.4 -46.05 Q31.55 -47.35 31.2 -50.25 30.85 -53.05 31.2 -54.6 L31.9 -54.15 32.15 -53.3 33.0 -48.3 Q33.25 -45.45 32.75 -43.15 32.05 -42.95 31.5 -41.6 L31.5 -41.1 31.25 -40.65 29.45 -38.95 28.45 -37.95 27.8 -37.7 28.35 -38.25 26.85 -37.05 25.05 -36.0 Q24.05 -35.35 23.75 -34.5 L23.05 -34.0 22.5 -33.4 26.35 -31.7 Q28.55 -30.6 29.65 -28.95 33.55 -29.0 37.0 -27.1 40.6 -25.15 42.3 -21.75 43.1 -21.0 43.4 -19.75 L43.6 -17.4 Q43.7 -16.0 44.1 -15.25 44.6 -14.25 46.0 -13.8 51.75 -9.4 52.85 -4.3 L52.95 -4.3 51.05 -1.75 48.8 0.65 48.9 0.7 48.65 1.05 Q46.9 3.45 44.65 5.4 L44.6 5.5 40.15 8.8 38.85 10.2 Q36.75 11.9 34.8 13.85 L33.8 14.8 33.7 14.9 33.1 15.5 31.85 16.85 32.2 17.25 32.15 17.5 Q31.5 19.2 31.0 20.95 L30.95 20.85 Q29.6 24.2 28.4 25.4 L29.4 26.2 Q30.3 27.8 29.65 28.95 L30.15 28.85 31.85 30.2 Q31.25 33.65 29.65 36.7 L28.6 40.0 28.25 40.3 25.85 40.05 25.9 40.35 25.65 42.2 25.35 43.25 Q24.65 43.65 24.05 44.15 L21.25 46.3 20.95 46.55 21.45 43.4 18.85 44.0 Q13.95 45.25 9.1 46.8 L6.5 46.65 5.65 46.45 3.5 46.05 3.5 46.15 Q2.95 45.45 1.85 45.3 L1.65 44.85 Q1.55 44.15 1.95 43.65 L0.2 43.6 -0.05 43.6 -0.15 43.6 -0.65 43.65 -0.85 43.7 -1.3 43.6 -1.55 43.55 -1.7 43.55 -1.9 43.75 -2.05 43.95 -2.25 44.25 -2.3 44.25 -2.3 44.3 -2.45 44.6 Q-2.9 45.4 -2.85 46.45 L-2.85 47.05 -2.7 49.45 -2.5 49.3 -4.25 50.75 -6.05 52.2 Q-6.65 52.65 -6.9 53.4 -7.6 55.25 -9.2 55.75 L-9.8 55.5 -8.9 55.85 Q-7.9 56.55 -7.3 57.85 L-6.4 60.1 -6.45 61.1 -6.75 61.95 -7.05 61.95 -10.5 56.0 -11.75 56.4 -12.0 56.3 -12.05 56.3 -12.1 56.3 Q-15.55 55.75 -18.15 53.7 -16.35 53.5 -14.65 52.45 L-14.75 52.3 Q-8.3 48.65 -3.15 41.75 L-9.95 41.45 -16.55 40.6 -18.0 42.05 -18.55 42.5 -18.15 42.2 Q-19.45 41.2 -21.25 41.35 L-22.4 42.0 Q-23.9 42.65 -23.85 44.3 L-23.8 44.8 -23.85 44.8 -24.1 45.0 -24.2 44.95 -24.15 43.85 Q-23.95 42.2 -24.7 41.5 L-22.7 39.05 -24.0 38.4 Q-25.65 37.4 -26.2 36.3 L-27.7 37.4 M18.3 -57.75 L17.4 -58.7 Q15.2 -59.85 12.1 -60.65 L6.5 -61.85 -2.25 -62.35 -1.2 -60.3 -1.15 -60.2 -1.1 -60.15 Q-0.45 -58.95 -0.35 -58.15 9.3 -58.5 15.95 -56.6 19.0 -55.7 21.35 -53.75 24.15 -51.35 24.4 -48.5 25.15 -51.65 22.35 -54.3 L19.8 -56.5 18.3 -57.75 M17.75 -51.4 L17.7 -51.5 Q9.95 -53.25 4.4 -53.65 -3.25 -54.2 -9.25 -52.55 -9.9 -52.0 -11.35 -51.4 L-13.85 -50.55 Q-16.55 -49.35 -15.6 -46.8 -15.35 -46.3 -15.2 -45.4 L-15.15 -43.7 Q-15.1 -42.55 -14.5 -42.0 L-14.55 -42.0 Q-15.3 -41.9 -15.25 -41.05 L-15.15 -40.6 -15.75 -41.2 -16.7 -45.55 Q-17.2 -48.35 -16.05 -50.05 -9.65 -54.8 0.4 -55.0 8.55 -55.15 17.85 -52.4 L18.5 -51.8 18.4 -51.8 17.8 -51.45 17.75 -51.4 M29.8 -56.4 Q30.1 -57.4 31.05 -57.5 32.0 -57.7 32.15 -56.6 32.3 -55.85 31.75 -55.4 31.6 -55.25 30.65 -54.85 30.05 -54.95 29.8 -55.45 29.5 -56.0 29.8 -56.4 M29.55 -41.05 L30.65 -41.8 30.8 -43.95 Q30.8 -45.1 30.15 -45.6 L30.4 -45.4 Q29.7 -46.35 28.55 -46.8 L28.5 -46.8 27.8 -47.35 Q27.5 -48.7 26.85 -49.6 L26.75 -43.55 Q26.75 -39.7 25.95 -37.75 L27.25 -39.3 28.0 -39.55 28.6 -40.05 29.55 -41.05 M20.5 -52.7 L16.95 -54.7 Q-6.4 -60.2 -17.95 -50.85 -18.9 -43.95 -17.3 -39.3 -15.3 -40.0 -13.4 -38.25 -13.05 -37.35 -13.75 -36.45 L-15.15 -34.95 Q-15.85 -34.2 -15.85 -33.15 L-15.3 -31.25 Q-14.45 -30.55 -12.85 -30.55 L-10.3 -30.75 Q-9.8 -30.7 -8.7 -31.75 -7.85 -32.65 -6.95 -32.05 -5.95 -31.8 -5.5 -30.55 -5.0 -29.15 -4.4 -28.75 L5.7 -29.05 6.3 -32.7 Q6.55 -34.95 7.6 -35.95 L13.5 -36.55 Q16.95 -36.95 18.95 -38.25 20.8 -39.0 21.5 -41.05 L22.2 -45.05 21.95 -49.15 Q21.7 -51.5 20.5 -52.7 M8.2 -28.95 L15.9 -31.05 Q20.3 -32.55 22.95 -34.95 24.2 -36.95 24.45 -40.15 L24.4 -45.7 23.35 -41.6 Q22.55 -39.25 21.25 -37.75 18.85 -36.35 15.25 -35.55 L8.6 -34.5 8.45 -31.55 7.9 -29.0 7.85 -28.95 8.2 -28.95 M22.85 -21.65 L23.35 -21.5 Q26.55 -20.2 27.95 -15.7 29.6 -17.85 30.0 -20.95 30.4 -23.95 29.55 -26.7 28.4 -30.25 22.8 -32.05 L21.3 -32.15 20.8 -31.9 19.25 -30.6 19.85 -30.05 19.9 -30.0 20.15 -29.6 20.45 -28.95 20.6 -28.55 21.1 -27.05 21.1 -26.9 21.1 -25.75 20.95 -24.95 20.95 -24.9 20.85 -24.65 20.15 -22.5 21.5 -22.3 Q22.25 -22.2 22.65 -21.75 22.65 -21.75 22.75 -21.7 L22.85 -21.65 M37.2 -25.25 L37.0 -25.35 Q35.4 -26.35 33.55 -26.9 L33.25 -27.0 32.6 -27.15 Q32.85 -23.3 31.35 -19.4 L31.35 -19.35 31.25 -19.1 31.15 -18.9 31.05 -18.65 31.0 -18.5 30.9 -18.3 29.4 -15.45 27.65 -12.7 Q27.3 -11.5 27.9 -9.9 L29.05 -7.4 30.4 -5.9 Q31.2 -5.0 32.0 -5.05 L32.05 -5.8 Q32.35 -4.6 33.5 -4.75 L33.5 -4.1 33.5 -1.15 Q33.4 0.5 32.75 1.6 L32.85 1.6 32.6 1.9 Q32.45 2.25 32.6 2.6 L32.8 2.85 32.5 2.85 Q31.1 6.35 28.0 8.8 24.55 11.45 20.8 11.25 L20.95 11.55 20.35 11.2 20.0 11.3 19.9 11.35 19.7 11.6 19.4 11.4 13.7 10.7 8.0 10.3 7.15 10.1 6.6 10.2 6.35 10.25 6.2 10.3 5.85 9.85 Q4.1 9.0 2.0 8.85 L0.4 8.85 Q-2.55 8.95 -5.05 10.15 L-5.15 10.9 -5.55 10.75 -6.15 10.95 -7.85 11.25 -9.0 11.45 -9.5 11.4 -9.5 11.7 Q-9.8 11.5 -10.25 11.4 L-10.35 11.5 -10.65 11.85 -10.65 11.4 -12.1 11.55 -12.15 11.55 -12.65 11.3 -13.05 11.4 -13.1 11.4 -15.75 11.0 -15.8 11.0 Q-21.7 9.65 -25.55 4.8 L-25.95 4.2 Q-26.3 3.9 -26.75 3.85 L-26.2 3.75 -28.1 0.8 Q-29.25 -0.95 -29.6 -2.25 L-30.1 -4.15 -30.25 -4.9 -30.1 -4.95 -29.5 -5.75 -29.15 -5.05 -27.95 -5.85 -26.85 -6.95 Q-25.9 -9.8 -27.0 -13.05 -28.0 -16.0 -30.35 -18.5 -31.9 -20.95 -31.35 -24.2 -31.1 -25.6 -29.85 -28.9 L-29.5 -29.8 Q-31.95 -29.8 -34.4 -28.2 L-38.5 -24.85 -38.45 -24.8 -39.45 -23.7 -41.9 -24.55 -45.05 -25.65 Q-44.65 -24.45 -43.05 -21.6 L-41.95 -19.35 Q-42.45 -18.9 -42.55 -18.2 L-42.6 -17.85 -42.75 -18.15 -42.8 -16.9 -42.7 -15.0 -44.4 -13.8 -44.5 -13.7 -44.5 -13.8 Q-48.95 -10.35 -51.5 -6.4 -50.3 -4.75 -47.75 -2.85 L-47.65 -2.8 -43.5 0.4 Q-38.6 3.8 -35.85 4.55 L-37.35 -0.1 -37.25 -0.8 -37.35 -1.55 -37.6 -4.25 -37.5 -5.5 -37.4 -5.4 -36.95 -6.35 -37.15 -5.9 Q-36.95 -5.1 -36.3 -5.0 L-36.15 -5.55 -36.3 -4.95 Q-35.1 2.65 -31.8 7.4 L-31.55 7.05 -31.6 7.3 Q-31.7 8.1 -31.0 8.3 L-30.75 7.9 -31.05 8.4 -28.6 10.65 -26.35 12.95 -26.25 13.05 -26.05 13.15 -25.95 13.2 -24.5 13.9 -24.35 13.95 -23.25 14.4 -21.75 14.8 -21.25 14.9 -21.2 14.9 -19.85 15.1 -14.2 15.3 -15.5 15.35 -15.45 15.35 -13.45 15.65 -12.75 15.65 -11.65 15.6 -11.55 15.6 -11.1 15.55 -9.6 15.25 -9.5 15.25 -8.45 15.1 -6.4 14.7 -5.55 14.5 -4.3 14.2 -3.3 13.95 -3.1 13.9 Q-1.4 14.6 -1.3 16.7 L-1.25 18.35 -1.25 18.55 -1.15 19.25 -0.7 20.45 Q0.25 21.05 1.6 21.1 L3.95 20.85 3.4 17.6 Q3.25 15.65 3.85 14.4 4.35 14.05 5.05 14.05 5.75 14.0 6.2 14.4 L6.35 14.15 8.25 14.1 8.3 14.1 8.2 14.4 13.85 15.45 19.75 16.5 19.95 16.25 20.15 16.55 Q20.75 17.2 21.6 16.8 L24.35 16.7 27.3 16.2 Q34.05 13.2 37.4 7.95 L37.45 7.65 37.55 7.6 38.15 6.5 39.85 4.75 40.2 4.35 Q45.95 2.25 51.4 -3.85 51.2 -4.9 50.4 -6.25 L48.95 -8.5 48.65 -8.15 Q48.8 -9.1 48.1 -9.35 L48.15 -9.45 47.4 -10.3 45.35 -12.6 Q44.55 -13.4 43.85 -13.5 L43.25 -14.8 42.45 -15.75 Q42.4 -18.3 41.5 -20.5 40.45 -23.0 37.8 -24.85 L37.2 -25.25 M2.5 -26.3 L0.85 -26.25 -1.3 -26.25 -2.8 -26.55 -2.85 -26.55 -2.95 -26.25 -2.85 -26.55 -3.95 -26.85 Q-5.7 -28.3 -7.85 -28.75 -10.25 -29.25 -12.15 -28.3 L-12.65 -28.3 -13.7 -28.55 -14.05 -28.65 -15.5 -29.55 Q-16.7 -30.6 -17.3 -32.05 L-17.45 -32.45 -17.7 -32.2 -17.9 -31.4 -17.7 -30.5 Q-18.25 -30.3 -18.1 -29.6 L-17.95 -29.05 -17.85 -28.9 -18.3 -29.5 Q-18.9 -29.35 -19.0 -28.7 L-19.05 -27.5 -18.75 -27.15 Q-18.65 -26.25 -17.85 -25.45 -16.6 -24.2 -15.15 -23.15 -14.7 -22.85 -14.25 -22.65 L-13.3 -22.15 -12.45 -22.0 -14.4 -22.4 -11.25 -20.75 -9.2 -20.05 -9.75 -20.2 -9.65 -20.15 Q-8.5 -19.5 -7.25 -19.0 L-5.7 -18.5 -5.95 -18.3 Q-5.15 -17.9 -3.7 -17.75 L-1.3 -17.5 -1.15 -17.55 2.55 -17.45 4.25 -17.9 4.15 -17.7 Q4.55 -17.1 5.55 -17.25 L7.1 -17.7 7.1 -18.1 7.2 -18.1 Q8.55 -17.85 8.6 -19.3 L12.25 -20.0 14.05 -20.05 14.7 -20.55 15.2 -20.5 16.35 -21.4 17.4 -22.5 16.95 -22.55 17.95 -22.95 18.8 -23.75 19.15 -24.3 19.25 -25.2 19.25 -25.3 19.15 -25.2 19.3 -26.55 Q19.5 -27.0 19.3 -27.5 L19.3 -27.65 Q19.25 -28.9 18.25 -29.1 L18.6 -29.4 18.5 -29.8 16.1 -28.65 16.05 -28.65 Q14.8 -28.85 13.65 -28.25 L13.5 -28.4 12.6 -28.25 11.1 -28.0 7.05 -26.8 6.2 -26.65 2.5 -26.3 M18.2 -20.7 L18.15 -20.65 18.1 -20.65 17.45 -20.05 11.0 -16.75 10.5 -16.6 9.65 -16.35 9.3 -16.25 10.65 -15.45 11.35 -14.75 11.95 -13.8 12.1 -13.6 12.15 -13.45 12.2 -13.45 13.05 -11.0 13.4 -8.5 Q13.55 -5.3 12.1 -3.4 16.7 -5.0 20.65 -7.15 L24.55 -10.55 Q26.6 -12.7 26.5 -15.05 26.15 -17.6 23.85 -19.5 L22.2 -20.6 Q20.75 -21.4 19.1 -21.75 L19.0 -21.65 18.65 -21.2 18.2 -20.75 18.2 -20.7 M12.05 -10.7 L11.85 -11.6 11.6 -12.25 11.5 -12.55 Q10.65 -14.85 7.6 -16.0 0.85 -14.8 -4.7 -16.15 L-7.15 -16.4 -9.6 -16.95 -12.65 -17.2 -12.85 -17.15 -14.3 -16.85 -14.5 -16.75 -15.1 -16.35 Q-16.55 -15.35 -17.65 -13.05 L-17.65 -12.95 Q-18.65 -9.1 -13.95 -3.85 -8.9 -1.65 -1.95 -1.55 4.1 -1.45 10.4 -2.9 11.95 -4.7 12.2 -7.55 12.35 -9.2 12.05 -10.7 M20.3 -4.5 L19.4 -4.0 Q14.6 -1.15 11.5 -1.05 L10.6 -0.8 Q2.45 1.4 -7.0 -0.4 L-9.3 -0.85 Q-14.9 -2.2 -21.5 -4.95 L-24.95 -3.8 Q-26.65 -3.05 -27.0 -1.4 L-27.15 -1.3 -27.25 -1.25 -27.55 -1.85 -27.1 -0.95 Q-25.35 2.2 -22.55 4.9 -18.15 9.15 -13.25 9.85 L-9.15 9.85 Q-6.75 9.75 -5.35 8.6 -4.95 7.45 -3.25 7.05 L-0.5 6.4 Q4.55 5.8 7.1 8.95 L9.95 8.75 16.55 9.65 Q20.3 10.05 22.95 9.7 25.8 8.75 27.95 6.3 29.6 3.5 30.05 0.3 30.5 -2.7 28.1 -4.75 L26.35 -6.3 25.6 -6.95 23.1 -6.05 20.3 -4.5 M27.85 24.65 L27.6 25.05 27.65 25.05 28.2 24.0 27.85 24.65 M4.85 21.55 L4.75 21.6 4.6 21.75 Q3.6 22.55 2.6 22.7 L1.45 22.6 1.15 22.75 1.2 22.6 -0.15 22.75 Q-1.55 22.25 -2.25 21.6 L-2.35 21.5 -3.0 20.15 -3.05 19.95 -9.85 20.6 -10.05 20.6 -10.2 20.6 -13.4 20.95 -18.4 22.1 Q-20.6 22.7 -23.55 23.85 L-26.35 24.95 Q-27.05 25.55 -27.0 26.75 L-26.95 28.65 -26.2 30.95 -25.7 33.4 -25.0 35.4 -24.3 36.6 -23.45 37.5 -23.4 37.55 -19.25 38.15 -18.5 38.25 -17.75 38.35 -17.35 38.4 -16.9 38.45 -16.25 38.5 -15.6 38.6 -15.05 38.65 -13.7 38.8 -10.8 39.05 -8.25 39.3 -3.65 39.6 1.85 39.85 1.95 38.65 1.9 39.5 3.05 39.75 3.2 39.75 3.2 39.85 4.05 39.9 9.2 39.75 11.25 39.6 13.1 39.4 14.8 39.15 15.35 39.05 18.05 38.65 22.65 37.85 24.05 37.1 Q26.55 32.2 26.85 26.65 26.45 26.05 25.5 25.7 24.5 25.4 24.15 25.05 L24.05 24.95 Q17.85 22.4 15.45 21.6 10.5 20.0 6.3 19.65 5.75 20.75 4.85 21.55 M1.55 24.05 L1.75 24.0 2.0 23.95 Q3.5 24.0 4.85 24.6 L6.25 25.35 Q7.2 25.95 7.95 26.8 9.0 27.85 9.55 29.25 L9.85 30.3 9.95 31.75 Q10.0 33.3 9.05 34.5 L7.4 36.15 7.4 36.1 7.1 36.4 Q5.55 37.55 3.65 38.0 L2.55 38.15 2.05 38.2 0.8 38.3 0.05 38.25 -0.75 38.15 -2.6 37.65 -2.9 37.5 -3.75 37.1 -4.65 36.5 -5.2 35.9 -6.2 34.65 Q-6.9 33.35 -6.9 31.85 L-6.9 31.55 -6.9 31.15 -6.85 31.5 -6.9 30.5 Q-6.9 29.75 -6.5 29.15 L-5.6 27.5 -4.3 26.25 Q-3.1 25.3 -1.65 24.75 L-0.05 24.25 1.5 24.05 1.55 24.05 M2.35 24.75 L0.6 24.75 0.5 24.75 Q-1.55 25.1 -3.35 26.45 -5.75 28.25 -5.95 31.1 L-5.95 32.15 Q-5.75 35.1 -2.95 36.6 0.55 38.45 4.45 37.15 7.65 36.1 8.7 33.35 L9.15 31.4 Q9.3 30.2 8.75 29.2 6.75 25.35 2.75 24.8 L2.35 24.75 M14.75 52.1 Q15.0 50.4 16.45 49.5 L17.25 49.7 14.75 52.1 M5.1 64.55 L4.85 64.9 -0.95 65.75 -1.3 65.65 -5.15 65.45 -5.55 65.25 Q-6.5 64.7 -7.5 64.55 L-7.8 64.3 -8.15 63.55 Q-7.15 63.65 -6.6 64.15 L-6.15 64.1 Q-5.55 63.45 -4.4 63.4 L-2.4 63.35 -2.25 63.45 -1.35 63.5 -1.1 63.35 -1.3 63.35 0.75 63.2 Q1.45 63.75 3.0 64.0 L5.1 64.55 M-8.3 63.25 L-9.6 60.6 Q-8.3 61.85 -8.3 63.25 M-10.55 -59.45 L-11.7 -60.8 Q-17.7 -59.9 -20.85 -57.45 -22.85 -55.95 -23.7 -53.8 -24.2 -50.05 -23.85 -42.6 -23.65 -40.45 -21.4 -38.35 L-17.45 -35.15 Q-17.05 -36.8 -14.7 -37.5 L-15.15 -38.05 -15.5 -38.05 -15.75 -37.95 Q-18.45 -37.45 -19.05 -38.7 -20.5 -43.9 -20.4 -47.7 -20.3 -49.3 -19.55 -50.6 -18.8 -51.95 -17.35 -53.0 L-16.05 -53.85 -12.25 -55.55 -8.65 -56.95 -8.65 -57.2 -10.55 -59.45 M-3.15 -60.55 L-3.75 -61.55 -4.85 -62.6 -4.2 -62.05 -4.5 -62.55 Q-5.25 -63.6 -6.25 -64.45 L-6.8 -64.45 -10.3 -64.5 -10.4 -64.5 -11.0 -64.45 Q-12.8 -64.15 -13.65 -62.25 L-13.5 -62.2 -11.35 -62.4 -11.3 -62.45 -11.25 -62.4 -8.7 -59.8 Q-7.85 -58.65 -7.35 -57.35 L-6.75 -57.35 Q-6.45 -57.35 -6.25 -57.5 L-3.85 -57.75 -1.6 -58.15 -3.15 -60.55 M-7.5 -39.8 L-7.55 -39.7 -7.7 -39.85 -7.5 -39.8 M-19.0 -31.5 L-18.55 -33.0 -18.05 -33.6 -17.95 -33.7 -19.95 -35.15 Q-23.0 -33.9 -24.15 -33.15 -26.25 -31.8 -27.3 -29.7 -28.7 -27.55 -28.95 -25.2 -29.25 -22.55 -28.05 -20.5 L-27.6 -20.5 -24.8 -22.3 -22.95 -23.1 -19.2 -23.5 -20.15 -26.0 Q-20.75 -27.55 -20.3 -28.75 -19.25 -29.4 -19.05 -31.2 L-19.0 -31.5 M-37.4 -33.85 L-37.4 -33.9 -37.85 -34.2 -37.6 -31.95 -37.6 -31.7 -37.25 -28.4 -33.05 -30.6 -37.4 -33.85 M-20.7 -23.0 L-21.3 -22.9 -22.85 -22.5 -24.6 -21.8 Q-25.95 -21.25 -26.95 -20.25 L-27.35 -19.35 Q-27.5 -18.5 -26.9 -17.9 -26.6 -17.65 -26.25 -17.9 L-26.1 -17.9 -24.85 -19.05 -23.8 -19.95 -23.0 -20.4 -20.95 -21.1 -18.45 -21.55 Q-18.2 -21.8 -18.3 -22.1 L-18.05 -22.05 -18.35 -22.15 -18.45 -22.3 -18.5 -22.35 -18.9 -22.75 -20.7 -23.0 M-21.8 -20.15 L-23.2 -19.3 -23.4 -19.2 -23.5 -19.1 -23.7 -18.95 -23.85 -18.8 -24.65 -17.95 -25.0 -17.5 -25.1 -17.4 Q-25.6 -16.15 -24.95 -13.7 -24.25 -11.1 -24.6 -9.75 -22.35 -7.05 -18.4 -6.4 -18.9 -7.45 -19.2 -11.15 -19.3 -12.8 -18.4 -14.35 L-17.9 -15.15 -17.85 -15.25 -17.45 -15.8 -15.45 -17.75 -13.6 -18.95 -14.95 -19.75 -16.25 -20.6 -21.15 -20.4 -21.8 -20.15 M-7.0 -12.6 L-6.9 -12.1 Q-7.0 -11.5 -7.55 -11.2 L-7.75 -10.95 Q-7.95 -10.75 -8.25 -10.65 -9.45 -10.6 -9.65 -11.7 L-9.7 -12.15 Q-9.6 -13.15 -8.65 -13.45 -7.55 -13.5 -7.0 -12.6 M-7.65 -6.45 L-7.7 -6.3 Q-7.85 -5.25 -8.65 -4.8 L-9.95 -4.7 Q-10.65 -5.0 -10.8 -5.6 -10.9 -7.05 -9.4 -8.2 L-8.35 -7.95 Q-7.85 -7.8 -7.7 -7.25 L-7.65 -6.55 -7.65 -6.45 M-29.25 34.2 L-29.15 34.45 -29.35 33.85 -29.25 34.2 M-29.2 27.6 L-29.3 27.6 -29.9 27.6 -30.2 27.7 -30.3 27.8 -30.35 27.85 -30.6 27.85 -30.85 28.05 Q-31.25 28.55 -31.15 29.25 -30.9 31.45 -30.15 33.55 L-29.75 34.65 -29.0 36.1 -28.6 36.5 -28.2 36.2 -28.45 35.85 -27.8 35.95 -27.4 35.8 -27.4 35.4 -27.4 35.85 -26.85 35.55 Q-26.95 34.8 -27.8 32.05 -28.5 29.9 -28.5 28.4 L-28.5 28.35 Q-28.55 27.8 -28.95 27.5 L-29.2 27.6" fill="#000000" fill-rule="evenodd" stroke="none"/>
    <path d="M7.7 -51.5 L6.4 -51.65 6.15 -51.65 Q0.95 -52.3 -4.3 -51.5 L-4.7 -51.45 -8.75 -50.35 Q-10.4 -49.7 -11.65 -48.45 L-13.15 -46.3 -13.15 -46.2 -13.1 -45.9 Q-12.9 -43.9 -11.2 -42.9 -10.5 -42.2 -9.6 -41.85 L-9.1 -41.7 -7.7 -41.2 -7.45 -41.15 -6.2 -40.8 -5.95 -40.75 4.0 -40.3 5.25 -40.45 6.15 -40.6 6.2 -40.6 Q8.6 -40.75 10.85 -41.4 14.2 -42.4 14.55 -45.7 14.8 -48.25 12.65 -49.7 10.4 -51.15 7.7 -51.5 M-14.55 -42.0 L-14.5 -42.0 Q-15.1 -42.55 -15.15 -43.7 L-15.2 -45.4 Q-15.35 -46.3 -15.6 -46.8 -16.55 -49.35 -13.85 -50.55 L-11.35 -51.4 Q-9.9 -52.0 -9.25 -52.55 -3.25 -54.2 4.4 -53.65 9.95 -53.25 17.7 -51.5 L17.75 -51.4 Q19.15 -49.55 19.4 -46.6 19.6 -43.75 18.6 -41.6 12.55 -38.9 5.0 -38.6 L5.8 -38.65 5.25 -38.6 1.55 -38.25 0.75 -38.2 -2.55 -38.4 -5.6 -38.8 -8.5 -39.35 -11.35 -40.1 -12.65 -40.45 -12.9 -40.6 -13.15 -40.75 Q-13.85 -40.9 -14.3 -41.4 L-14.35 -41.5 -14.55 -42.0 M-7.5 -39.8 L-7.7 -39.85 -7.55 -39.7 -7.5 -39.8" fill="#000066" fill-rule="evenodd" stroke="none"/>
    <path d="M7.7 -51.5 Q10.4 -51.15 12.65 -49.7 14.8 -48.25 14.55 -45.7 14.2 -42.4 10.85 -41.4 8.6 -40.75 6.2 -40.6 L6.15 -40.6 5.25 -40.45 4.0 -40.3 -5.95 -40.75 -6.2 -40.8 -7.45 -41.15 -7.7 -41.2 -9.1 -41.7 -9.6 -41.85 Q-10.5 -42.2 -11.2 -42.9 -12.9 -43.9 -13.1 -45.9 L-13.15 -46.2 -13.15 -46.3 -11.65 -48.45 Q-10.4 -49.7 -8.75 -50.35 L-4.7 -51.45 -4.3 -51.5 Q0.95 -52.3 6.15 -51.65 L6.4 -51.65 7.7 -51.5 M-4.7 -51.35 L-4.75 -51.25 Q-5.9 -50.7 -5.6 -49.5 -5.2 -47.95 -3.35 -48.55 -2.7 -48.75 -2.6 -49.45 -2.35 -51.5 -4.7 -51.35 M-6.3 -47.4 Q-7.55 -49.05 -9.75 -48.65 L-10.45 -48.35 -10.6 -48.3 -11.15 -47.65 Q-12.1 -46.0 -10.75 -44.65 -9.7 -43.6 -8.15 -43.85 -6.85 -44.15 -6.2 -45.3 -5.55 -46.4 -6.3 -47.4" fill="#003399" fill-rule="evenodd" stroke="none"/>
    <path d="M-1.1 -60.15 L-1.15 -60.2 -1.2 -60.3 -2.25 -62.35 6.5 -61.85 12.1 -60.65 Q15.2 -59.85 17.4 -58.7 L18.3 -57.75 13.05 -58.85 2.65 -59.95 -1.1 -60.15 M-19.55 -50.6 Q-20.3 -49.3 -20.4 -47.7 -20.5 -43.9 -19.05 -38.7 -18.45 -37.45 -15.75 -37.95 L-15.5 -38.05 -15.15 -38.05 -14.7 -37.5 Q-17.05 -36.8 -17.45 -35.15 L-21.4 -38.35 Q-23.65 -40.45 -23.85 -42.6 -24.2 -50.05 -23.7 -53.8 -22.85 -55.95 -20.85 -57.45 -17.7 -59.9 -11.7 -60.8 L-10.55 -59.45 Q-13.75 -58.4 -16.75 -56.75 L-18.8 -55.7 -18.95 -55.65 -19.1 -55.55 -19.25 -55.45 Q-20.45 -54.25 -20.25 -52.45 L-19.95 -51.3 -19.55 -50.6 M-10.2 -8.4 L-9.6 -8.6 -8.65 -8.45 Q-7.75 -8.35 -7.1 -7.65 L-6.7 -6.55 -6.9 -5.45 Q-7.15 -4.7 -7.85 -4.25 L-8.7 -3.95 -10.4 -4.2 Q-10.9 -4.25 -11.2 -4.8 -11.5 -5.45 -11.45 -6.15 -11.35 -7.45 -10.4 -8.3 L-10.2 -8.4 M-7.65 -6.45 L-7.65 -6.55 -7.7 -7.25 Q-7.85 -7.8 -8.35 -7.95 L-9.4 -8.2 Q-10.9 -7.05 -10.8 -5.6 -10.65 -5.0 -9.95 -4.7 L-8.65 -4.8 Q-7.85 -5.25 -7.7 -6.3 L-7.65 -6.45" fill="#73047b" fill-rule="evenodd" stroke="none"/>
    <path d="M-1.1 -60.15 L2.65 -59.95 13.05 -58.85 18.3 -57.75 19.8 -56.5 22.35 -54.3 Q25.15 -51.65 24.4 -48.5 24.15 -51.35 21.35 -53.75 19.0 -55.7 15.95 -56.6 9.3 -58.5 -0.35 -58.15 -0.45 -58.95 -1.1 -60.15 M7.9 -29.0 L8.45 -31.55 8.6 -34.5 15.25 -35.55 Q18.85 -36.35 21.25 -37.75 22.55 -39.25 23.35 -41.6 L24.4 -45.7 24.45 -40.15 Q24.2 -36.95 22.95 -34.95 20.3 -32.55 15.9 -31.05 L8.2 -28.95 7.9 -29.0 M20.6 -28.55 L20.45 -28.95 20.15 -29.6 19.9 -30.0 19.85 -30.05 19.25 -30.6 20.8 -31.9 21.3 -32.15 22.8 -32.05 Q28.4 -30.25 29.55 -26.7 30.4 -23.95 30.0 -20.95 29.6 -17.85 27.95 -15.7 26.55 -20.2 23.35 -21.5 L22.85 -21.65 Q23.15 -23.75 22.65 -25.75 22.1 -27.75 20.6 -28.55 M18.2 -20.7 L18.15 -20.65 18.2 -20.7 M13.05 -11.0 L13.5 -11.15 13.55 -11.2 15.5 -12.3 15.35 -10.85 Q15.35 -10.05 15.95 -9.6 16.45 -8.7 17.4 -8.3 L19.25 -8.05 21.1 -9.7 Q22.1 -10.75 22.05 -11.8 L21.85 -12.75 Q21.65 -13.35 21.1 -13.05 20.9 -12.75 20.65 -11.3 20.45 -10.2 19.75 -9.75 17.85 -9.25 17.05 -10.4 16.6 -11.4 16.95 -13.05 L17.2 -13.15 20.85 -17.05 Q21.9 -18.05 22.15 -19.4 L22.2 -20.6 23.85 -19.5 Q26.15 -17.6 26.5 -15.05 26.6 -12.7 24.55 -10.55 L20.65 -7.15 Q16.7 -5.0 12.1 -3.4 13.55 -5.3 13.4 -8.5 L13.05 -11.0 M18.75 -14.25 Q18.0 -13.55 18.15 -13.05 18.1 -12.55 18.5 -12.25 L19.4 -12.05 Q20.15 -12.65 20.05 -13.6 19.2 -14.45 18.75 -14.25 M-17.65 -12.95 L-17.35 -12.7 Q-15.6 -11.35 -13.2 -11.1 L-10.5 -10.65 -10.3 -10.6 -10.3 -9.9 Q-9.7 -8.8 -7.35 -9.25 -6.9 -9.4 -6.8 -9.85 L-6.7 -9.85 -0.15 -9.2 7.1 -9.25 12.2 -9.85 12.05 -10.7 Q12.35 -9.2 12.2 -7.55 11.95 -4.7 10.4 -2.9 4.1 -1.45 -1.95 -1.55 -8.9 -1.65 -13.95 -3.85 -18.65 -9.1 -17.65 -12.95 M21.6 -14.25 L23.4 -14.4 Q24.6 -14.4 24.85 -15.05 L24.4 -16.9 Q21.6 -15.8 21.6 -14.25 M2.35 24.75 L2.75 24.8 Q6.75 25.35 8.75 29.2 9.3 30.2 9.15 31.4 L8.7 33.35 Q7.65 36.1 4.45 37.15 0.55 38.45 -2.95 36.6 -5.75 35.1 -5.95 32.15 L-5.95 31.1 Q-5.75 28.25 -3.35 26.45 -1.55 25.1 0.5 24.75 L0.6 24.75 2.35 24.75 M4.6 32.15 Q5.45 31.0 5.3 29.6 4.8 26.0 1.1 25.6 -0.7 25.65 -2.35 26.6 -5.3 28.45 -4.05 31.35 -3.8 33.3 -1.85 33.95 2.2 35.2 4.6 32.15 M-10.55 -59.45 L-8.65 -57.2 -8.65 -56.95 -12.25 -55.55 -16.05 -53.85 -17.35 -53.0 Q-18.8 -51.95 -19.55 -50.6 L-19.95 -51.3 -20.25 -52.45 Q-20.45 -54.25 -19.25 -55.45 L-19.1 -55.55 -18.95 -55.65 -18.8 -55.7 -16.75 -56.75 Q-13.75 -58.4 -10.55 -59.45 M-19.0 -31.5 L-19.05 -31.2 Q-19.25 -29.4 -20.3 -28.75 -20.75 -27.55 -20.15 -26.0 L-19.2 -23.5 -22.95 -23.1 -23.9 -24.05 Q-24.7 -25.7 -23.75 -27.4 L-23.0 -28.5 Q-21.45 -30.55 -19.1 -31.5 L-19.0 -31.5 M-23.1 -21.7 L-23.75 -21.35 -23.1 -21.7 M-21.8 -20.15 L-21.15 -20.4 -16.25 -20.6 -14.95 -19.75 -13.6 -18.95 -15.45 -17.75 -15.1 -18.0 Q-15.7 -18.9 -17.2 -19.0 L-17.2 -19.05 -19.0 -19.8 -21.2 -20.4 -21.8 -20.15 M-18.4 -14.35 Q-19.3 -12.8 -19.2 -11.15 -18.9 -7.45 -18.4 -6.4 -22.35 -7.05 -24.6 -9.75 -24.25 -11.1 -24.95 -13.7 -25.6 -16.15 -25.1 -17.4 L-25.0 -17.5 Q-24.85 -16.65 -23.8 -16.05 L-22.9 -15.5 Q-20.9 -14.25 -18.8 -13.5 L-18.4 -14.35 M-10.2 -8.4 L-10.4 -8.3 Q-11.35 -7.45 -11.45 -6.15 -11.5 -5.45 -11.2 -4.8 -10.9 -4.25 -10.4 -4.2 L-8.7 -3.95 -7.85 -4.25 Q-7.15 -4.7 -6.9 -5.45 L-6.7 -6.55 -7.1 -7.65 Q-7.75 -8.35 -8.65 -8.45 L-9.6 -8.6 -10.2 -8.4" fill="#400040" fill-rule="evenodd" stroke="none"/>
    <path d="M18.5 -51.8 L17.85 -52.4 Q8.55 -55.15 0.4 -55.0 -9.65 -54.8 -16.05 -50.05 -17.2 -48.35 -16.7 -45.55 L-15.75 -41.2 -15.15 -40.6 Q-13.85 -39.45 -11.3 -38.7 L-7.3 -37.85 3.6 -37.05 Q11.6 -37.3 18.15 -39.8 20.05 -41.7 20.7 -44.4 21.25 -47.0 20.65 -49.6 20.55 -50.6 19.5 -51.15 L18.5 -51.8 M20.5 -52.7 Q21.7 -51.5 21.95 -49.15 L22.2 -45.05 21.5 -41.05 Q20.8 -39.0 18.95 -38.25 16.95 -36.95 13.5 -36.55 L7.6 -35.95 Q6.55 -34.95 6.3 -32.7 L5.7 -29.05 -4.4 -28.75 Q-5.0 -29.15 -5.5 -30.55 -5.95 -31.8 -6.95 -32.05 -7.85 -32.65 -8.7 -31.75 -9.8 -30.7 -10.3 -30.75 L-12.85 -30.55 Q-14.45 -30.55 -15.3 -31.25 L-15.85 -33.15 Q-15.85 -34.2 -15.15 -34.95 L-13.75 -36.45 Q-13.05 -37.35 -13.4 -38.25 -15.3 -40.0 -17.3 -39.3 -18.9 -43.95 -17.95 -50.85 -6.4 -60.2 16.95 -54.7 L20.5 -52.7 M30.15 -45.6 Q30.8 -45.1 30.8 -43.95 L30.65 -41.8 29.55 -41.05 29.95 -45.7 30.15 -45.6 M27.25 -39.3 L25.95 -37.75 Q26.75 -39.7 26.75 -43.55 L26.85 -49.6 Q27.5 -48.7 27.8 -47.35 L28.05 -44.95 27.65 -39.95 27.25 -39.3 M29.4 -15.45 L30.9 -18.3 31.0 -18.5 31.05 -18.65 31.15 -18.9 31.25 -19.1 31.35 -19.35 31.35 -19.4 Q32.85 -23.3 32.6 -27.15 L33.25 -27.0 33.55 -26.9 Q35.4 -26.35 37.0 -25.35 L37.2 -25.25 Q37.8 -24.15 38.0 -22.6 L38.15 -20.95 Q38.4 -15.95 33.9 -13.5 30.85 -11.8 29.0 -14.7 L29.0 -14.75 29.4 -15.45 M43.85 -13.5 Q44.55 -13.4 45.35 -12.6 L47.4 -10.3 Q47.7 -9.15 47.6 -7.7 47.25 -3.55 43.75 -1.6 41.95 -1.4 40.85 -2.0 L40.85 -2.1 40.9 -2.2 41.4 -2.55 40.85 -2.15 40.3 -5.4 Q41.85 -6.9 42.75 -9.15 43.35 -10.8 43.8 -13.5 L43.85 -13.5 M-1.25 18.35 L-1.3 16.7 Q-1.4 14.6 -3.1 13.9 L-3.3 13.95 -4.3 14.2 -4.4 14.1 -4.6 13.55 -5.1 11.75 -5.15 11.4 -5.15 10.9 -5.05 10.15 Q-2.55 8.95 0.4 8.85 L2.0 8.85 Q2.8 9.15 3.15 10.0 L3.6 11.8 3.05 12.7 Q2.3 13.5 2.0 14.4 1.9 14.65 1.95 14.9 2.25 16.2 2.05 17.45 L2.05 18.2 2.05 18.25 1.65 18.75 0.25 18.85 -0.5 18.7 -1.25 18.35 M-5.55 14.5 L-6.4 14.7 -8.45 15.1 -8.45 15.05 -8.5 14.75 -8.75 14.05 Q-9.15 12.8 -9.0 11.45 L-7.85 11.25 -6.15 10.95 -6.3 12.1 -6.3 12.15 -6.35 12.15 Q-6.4 13.25 -5.75 14.1 L-5.6 14.4 -5.55 14.5 M-9.6 15.25 L-11.1 15.55 -11.55 15.6 -11.3 15.6 -11.55 15.15 -11.7 14.95 -11.7 14.9 -11.75 14.9 -11.7 14.85 -12.05 14.3 -12.2 13.8 Q-12.4 12.65 -12.1 11.55 L-10.65 11.4 -10.65 11.85 Q-10.65 12.75 -10.0 13.9 L-9.9 14.25 -10.0 14.35 -9.9 14.35 -9.6 15.25 M-12.75 15.65 L-13.45 15.65 -15.45 15.35 -15.5 15.35 -14.2 15.3 -19.85 15.1 -21.2 14.9 -21.25 14.9 -21.75 14.8 -23.25 14.4 -24.35 13.95 -24.5 13.9 -25.95 13.2 -26.05 13.15 -26.25 13.05 -26.35 12.95 -28.6 10.65 -31.05 8.4 -30.75 7.9 -30.5 7.55 -30.5 7.5 -29.9 6.85 -29.2 6.2 Q-28.15 6.65 -27.5 7.75 -26.15 9.9 -23.55 10.65 L-16.15 11.05 -15.8 11.0 -15.75 11.0 -13.1 11.4 -13.15 11.4 -13.25 11.9 -13.55 12.85 Q-13.7 13.7 -13.4 14.4 L-13.2 14.65 -13.05 15.1 -12.75 15.65 M-31.55 7.05 L-31.8 7.4 Q-35.1 2.65 -36.3 -4.95 L-36.15 -5.55 -36.3 -5.0 Q-36.95 -5.1 -37.15 -5.9 L-36.95 -6.35 -35.65 -8.45 -35.6 -8.5 -35.45 -8.65 -35.35 -8.75 Q-33.75 -10.55 -31.95 -10.5 -30.45 -9.85 -30.55 -8.85 -30.1 -8.35 -29.8 -6.95 L-29.5 -5.75 -30.1 -4.95 -30.25 -4.9 -30.55 -6.2 Q-31.3 -8.5 -33.35 -8.5 L-34.6 -7.9 -34.45 -7.3 Q-32.85 -0.7 -28.85 4.7 L-28.8 4.75 Q-30.25 5.55 -31.55 7.05 M-47.75 -2.85 Q-50.3 -4.75 -51.5 -6.4 -48.95 -10.35 -44.5 -13.8 L-44.5 -13.7 -44.15 -12.4 -43.95 -10.85 -42.35 -7.6 -47.75 -2.85 M-42.7 -15.0 L-42.8 -16.9 -42.45 -17.6 -42.0 -17.2 -41.35 -16.85 -40.75 -16.65 -40.65 -16.65 -40.5 -16.6 Q-39.2 -16.6 -38.05 -17.3 -36.9 -18.05 -36.5 -19.25 -35.95 -20.0 -36.0 -21.1 L-36.5 -23.0 -38.45 -24.8 -38.5 -24.85 -34.4 -28.2 Q-31.95 -29.8 -29.5 -29.8 L-29.85 -28.9 Q-30.85 -28.5 -31.5 -27.6 -35.45 -22.7 -33.75 -16.5 -33.55 -15.75 -33.75 -15.0 -34.75 -10.4 -39.65 -11.1 -41.3 -11.3 -42.25 -12.75 L-42.7 -15.0 M-41.95 -19.35 L-43.05 -21.6 -43.0 -21.5 Q-42.15 -21.0 -41.1 -21.1 L-40.75 -21.45 Q-40.35 -21.9 -40.2 -22.55 -39.7 -24.25 -41.65 -24.25 L-41.75 -24.35 -41.9 -24.55 -39.45 -23.7 -37.85 -23.15 Q-36.9 -22.2 -37.6 -20.7 -38.55 -18.75 -38.5 -18.15 -38.95 -17.6 -39.85 -17.45 L-41.25 -17.5 -41.95 -19.35 M8.0 10.3 L13.7 10.7 19.4 11.4 19.7 11.6 Q20.55 12.35 20.8 14.45 L13.1 13.35 8.35 12.55 7.85 10.3 8.0 10.3 M20.95 11.55 L20.8 11.25 Q24.55 11.45 28.0 8.8 31.1 6.35 32.5 2.85 L32.8 2.85 34.55 3.15 34.4 3.95 Q33.7 6.8 31.8 9.15 27.45 13.25 21.85 13.5 L21.8 13.25 21.75 12.95 21.55 12.6 21.0 11.55 20.95 11.55 M32.85 1.6 L32.75 1.6 Q33.4 0.5 33.5 -1.15 L33.5 -4.1 33.5 -4.75 Q32.35 -4.6 32.05 -5.8 L32.15 -6.25 32.25 -6.75 32.3 -6.9 32.6 -7.8 32.6 -7.9 34.8 -9.95 Q36.1 -10.85 37.65 -10.4 38.35 -9.95 38.85 -8.85 L39.6 -7.45 39.5 -7.2 38.85 -6.3 38.35 -6.1 37.65 -8.05 Q36.55 -9.25 35.55 -9.2 37.4 -3.55 35.55 2.2 L35.5 2.35 Q34.3 1.7 32.85 1.6 M4.4 -31.3 L5.25 -33.3 Q4.75 -35.65 1.05 -36.35 L-1.75 -34.9 Q-3.35 -33.95 -3.3 -32.45 -1.5 -29.35 2.7 -30.0 3.7 -30.3 4.4 -31.3 M-2.25 21.6 L-2.4 21.6 -5.35 22.05 -6.95 22.15 Q-8.35 22.35 -9.5 23.15 -13.5 25.95 -14.15 30.75 -14.5 33.4 -13.7 35.9 L-13.2 37.0 -13.85 37.05 -14.2 37.05 -15.25 37.25 -16.25 35.55 Q-17.1 33.8 -17.25 31.9 -17.5 29.05 -15.95 26.65 -14.5 24.4 -12.15 23.1 -9.7 21.7 -7.0 20.75 L-5.05 20.35 -3.0 20.15 -2.35 21.5 -2.25 21.6 M-13.4 20.95 L-14.25 21.1 -14.95 21.55 Q-18.85 24.2 -19.6 28.7 -20.15 32.1 -19.1 35.4 L-18.75 36.25 -25.0 35.4 -25.7 33.4 -26.2 30.95 -26.95 28.65 -27.0 26.75 Q-27.05 25.55 -26.35 24.95 L-23.55 23.85 Q-20.6 22.7 -18.4 22.1 L-13.4 20.95 M10.05 22.15 L9.9 22.1 9.45 22.05 8.55 21.9 4.85 21.55 Q5.75 20.75 6.3 19.65 10.5 20.0 15.45 21.6 17.85 22.4 24.05 24.95 L24.15 25.05 18.4 23.55 16.6 23.25 16.3 23.2 13.4 22.65 12.9 22.6 12.75 22.55 10.05 22.15 M-10.3 -64.5 L-6.8 -64.45 -6.25 -64.45 Q-5.25 -63.6 -4.5 -62.55 L-4.2 -62.05 -4.85 -62.6 -3.75 -61.55 -3.15 -60.55 -8.7 -59.8 -11.25 -62.4 -10.95 -62.15 -8.85 -61.95 -8.7 -62.05 Q-8.4 -62.25 -8.45 -62.65 -8.7 -64.3 -10.3 -64.5 M-11.35 -62.4 L-13.5 -62.2 -13.65 -62.25 Q-12.8 -64.15 -11.0 -64.45 L-11.4 -64.35 -11.95 -63.75 -11.95 -63.15 -11.45 -62.5 -11.4 -62.5 -11.35 -62.4 M-11.4 -62.5 L-11.7 -62.35 -11.4 -62.5 M-10.15 -35.55 L-12.05 -35.75 Q-13.35 -35.2 -13.6 -34.5 -14.1 -33.45 -13.15 -32.45 -11.6 -31.75 -10.8 -32.15 -8.85 -33.25 -9.05 -34.35 -9.0 -35.5 -10.15 -35.55 M-37.6 -31.7 L-37.5 -30.95 Q-37.0 -30.8 -36.5 -31.25 -35.3 -32.25 -36.8 -33.05 L-37.25 -33.55 -37.4 -33.85 -33.05 -30.6 -37.25 -28.4 -37.6 -31.7 M-0.8 9.95 Q-2.3 10.1 -2.65 11.6 -2.9 12.8 -1.9 13.45 -0.35 14.5 0.35 12.95 1.4 10.65 -0.8 9.95 M-19.3 24.75 L-18.9 24.65 -19.55 24.8 -19.55 25.15 -19.3 24.75 M-29.2 27.6 L-28.95 27.5 Q-28.55 27.8 -28.5 28.35 L-28.5 28.4 Q-28.5 29.9 -27.8 32.05 -26.95 34.8 -26.85 35.55 L-27.4 35.85 -27.4 35.4 -27.4 35.8 -27.8 35.95 -28.45 35.85 -28.2 36.2 -28.6 36.5 -29.0 36.1 -29.75 34.65 -30.15 33.55 Q-30.9 31.45 -31.15 29.25 -31.25 28.55 -30.85 28.05 L-30.6 27.85 -30.35 27.85 -30.3 27.8 -30.2 27.7 -29.9 27.6 -29.3 27.6 -29.2 27.6 M-29.25 34.2 L-29.35 33.85 -29.15 34.45 -29.25 34.2" fill="#666666" fill-rule="evenodd" stroke="none"/>
    <path d="M-24.2 44.95 L-24.1 45.0 -23.85 44.8 -23.8 44.8 -23.85 44.3 Q-23.9 42.65 -22.4 42.0 L-21.25 41.35 Q-19.45 41.2 -18.15 42.2 L-18.55 42.5 -18.0 42.05 Q-14.5 43.6 -11.3 45.75 L-12.4 46.7 Q-13.95 48.25 -15.8 49.4 L-16.6 49.9 -16.7 49.75 Q-18.35 50.65 -20.05 51.35 L-20.25 51.45 -20.6 51.0 -22.1 49.4 -23.3 47.85 -23.65 47.35 -24.2 44.95 M32.2 17.25 L31.85 16.85 33.1 15.5 33.7 14.9 Q32.85 15.75 32.35 16.9 L32.2 17.25 M17.75 -51.4 L17.8 -51.45 18.4 -51.8 18.5 -51.8 19.5 -51.15 Q20.55 -50.6 20.65 -49.6 21.25 -47.0 20.7 -44.4 20.05 -41.7 18.15 -39.8 11.6 -37.3 3.6 -37.05 L-7.3 -37.85 -11.3 -38.7 Q-13.85 -39.45 -15.15 -40.6 L-15.25 -41.05 Q-15.3 -41.9 -14.55 -42.0 L-14.35 -41.5 -14.3 -41.4 Q-13.85 -40.9 -13.15 -40.75 L-12.9 -40.6 -12.65 -40.45 -11.35 -40.1 -8.5 -39.35 -5.6 -38.8 -2.55 -38.4 0.75 -38.2 1.55 -38.25 5.25 -38.6 5.8 -38.65 5.0 -38.6 Q12.55 -38.9 18.6 -41.6 19.6 -43.75 19.4 -46.6 19.15 -49.55 17.75 -51.4 M29.55 -41.05 L28.6 -40.05 28.0 -39.55 27.25 -39.3 27.65 -39.95 28.05 -44.95 27.8 -47.35 28.5 -46.8 28.55 -46.8 Q29.7 -46.35 30.4 -45.4 L30.15 -45.6 29.95 -45.7 29.55 -41.05 M37.2 -25.25 L37.8 -24.85 Q40.45 -23.0 41.5 -20.5 42.4 -18.3 42.45 -15.75 L42.35 -13.9 42.3 -13.6 Q41.8 -9.95 39.75 -7.25 L39.6 -7.45 38.85 -8.85 Q38.35 -9.95 37.65 -10.4 36.1 -10.85 34.8 -9.95 L32.6 -7.9 32.6 -7.8 32.3 -6.9 32.25 -6.75 32.15 -6.25 32.05 -5.8 32.0 -5.05 Q31.2 -5.0 30.4 -5.9 L29.05 -7.4 27.9 -9.9 Q27.3 -11.5 27.65 -12.7 L29.4 -15.45 29.0 -14.75 29.0 -14.7 Q30.85 -11.8 33.9 -13.5 38.4 -15.95 38.15 -20.95 L38.0 -22.6 Q37.8 -24.15 37.2 -25.25 M37.45 7.65 L37.4 7.95 Q34.05 13.2 27.3 16.2 L24.35 16.7 21.6 16.8 21.25 16.7 Q22.1 15.15 21.85 13.5 27.45 13.25 31.8 9.15 33.7 6.8 34.4 3.95 L34.55 3.15 Q36.05 3.65 36.95 5.3 L37.1 5.7 37.45 7.65 M19.95 16.25 L19.75 16.5 13.85 15.45 8.2 14.4 8.3 14.1 8.35 12.55 13.1 13.35 20.8 14.45 20.8 14.5 Q20.95 15.15 20.55 15.7 L19.95 16.25 M6.35 14.15 L6.2 14.4 Q5.75 14.0 5.05 14.05 4.35 14.05 3.85 14.4 3.25 15.65 3.4 17.6 L3.95 20.85 1.6 21.1 Q0.25 21.05 -0.7 20.45 L-1.15 19.25 -1.25 18.55 -1.25 18.35 -0.5 18.7 0.25 18.85 1.65 18.75 2.05 18.25 2.05 18.2 2.05 17.45 Q2.25 16.2 1.95 14.9 1.9 14.65 2.0 14.4 2.3 13.5 3.05 12.7 L3.6 11.8 3.15 10.0 Q2.8 9.15 2.0 8.85 4.1 9.0 5.85 9.85 L6.2 10.3 6.95 11.25 6.7 12.9 6.7 13.0 6.6 13.4 6.6 13.45 6.35 14.15 M-36.95 -6.35 L-37.4 -5.4 -37.5 -5.5 Q-40.25 -7.9 -41.65 -11.1 L-42.25 -12.75 Q-41.3 -11.3 -39.65 -11.1 -34.75 -10.4 -33.75 -15.0 -33.55 -15.75 -33.75 -16.5 -35.45 -22.7 -31.5 -27.6 -30.85 -28.5 -29.85 -28.9 -31.1 -25.6 -31.35 -24.2 -31.9 -20.95 -30.35 -18.5 -28.0 -16.0 -27.0 -13.05 -25.9 -9.8 -26.85 -6.95 L-27.95 -5.85 -29.15 -5.05 -29.5 -5.75 -29.8 -6.95 Q-30.1 -8.35 -30.55 -8.85 -30.45 -9.85 -31.95 -10.5 -33.75 -10.55 -35.35 -8.75 L-35.45 -8.65 -35.6 -8.5 -35.65 -8.45 -36.95 -6.35 M-42.8 -16.9 L-42.75 -18.15 -42.6 -17.85 -42.0 -17.2 -42.45 -17.6 -42.8 -16.9 M-30.25 -4.9 L-30.1 -4.15 -29.6 -2.25 Q-29.25 -0.95 -28.1 0.8 L-26.2 3.75 -26.75 3.85 Q-27.8 4.1 -28.8 4.75 L-28.85 4.7 Q-32.85 -0.7 -34.45 -7.3 L-34.6 -7.9 -33.35 -8.5 Q-31.3 -8.5 -30.55 -6.2 L-30.25 -4.9 M-25.55 4.8 Q-21.7 9.65 -15.8 11.0 L-16.15 11.05 -23.55 10.65 Q-26.15 9.9 -27.5 7.75 -28.15 6.65 -29.2 6.2 L-28.75 5.9 Q-27.3 4.9 -25.6 4.75 L-25.55 4.8 M0.7 -32.35 Q2.05 -32.8 2.05 -34.15 L1.7 -34.9 0.4 -35.1 -0.75 -34.35 Q-1.3 -33.75 -0.95 -33.05 -0.5 -32.0 0.7 -32.35 M4.4 -31.3 Q3.7 -30.3 2.7 -30.0 -1.5 -29.35 -3.3 -32.45 -3.35 -33.95 -1.75 -34.9 L1.05 -36.35 Q4.75 -35.65 5.25 -33.3 L4.4 -31.3 M35.5 2.35 L35.55 2.2 Q37.4 -3.55 35.55 -9.2 36.55 -9.25 37.65 -8.05 L38.35 -6.1 Q38.95 -3.95 39.05 -1.4 39.15 1.95 38.3 5.15 L38.2 5.5 Q37.65 3.8 36.1 2.7 L35.5 2.35 M-2.25 21.6 Q-1.55 22.25 -0.15 22.75 L1.2 22.6 1.15 22.75 1.45 22.6 2.6 22.7 Q3.6 22.55 4.6 21.75 L4.75 21.6 4.85 21.55 8.55 21.9 9.45 22.05 9.9 22.1 10.05 22.15 Q12.25 23.65 13.55 26.25 L13.9 27.05 Q15.6 30.35 14.95 34.1 14.65 35.75 13.65 37.1 L12.5 38.45 11.25 39.6 9.2 39.75 4.05 39.9 3.2 39.85 3.2 39.75 3.05 39.75 1.9 39.5 1.95 38.65 1.85 39.85 -3.65 39.6 -8.25 39.3 -10.8 39.05 -13.7 38.8 -15.05 38.65 -15.6 38.6 -16.25 38.5 -16.9 38.45 -17.35 38.4 -17.75 38.35 -18.5 38.25 -19.25 38.15 -23.4 37.55 -23.45 37.5 -24.3 36.6 -25.0 35.4 -18.75 36.25 -19.1 35.4 Q-20.15 32.1 -19.6 28.7 -18.85 24.2 -14.95 21.55 L-14.25 21.1 -13.4 20.95 -10.2 20.6 -10.05 20.6 -9.85 20.6 -3.05 19.95 -3.0 20.15 -5.05 20.35 -7.0 20.75 Q-9.7 21.7 -12.15 23.1 -14.5 24.4 -15.95 26.65 -17.5 29.05 -17.25 31.9 -17.1 33.8 -16.25 35.55 L-15.25 37.25 -14.2 37.05 -13.85 37.05 -13.2 37.0 -13.7 35.9 Q-14.5 33.4 -14.15 30.75 -13.5 25.95 -9.5 23.15 -8.35 22.35 -6.95 22.15 L-5.35 22.05 -2.4 21.6 -2.25 21.6 M18.05 38.65 L15.35 39.05 14.8 39.15 15.95 37.65 Q17.95 34.8 17.65 31.3 17.4 28.35 16.1 25.7 L15.4 24.75 12.75 22.55 12.9 22.6 13.4 22.65 16.3 23.2 16.6 23.25 Q18.85 25.5 19.3 28.75 L19.55 30.65 Q20.0 34.45 18.45 37.8 L18.05 38.65 M1.55 24.05 L1.5 24.05 -0.05 24.25 -1.65 24.75 Q-3.1 25.3 -4.3 26.25 L-5.6 27.5 -6.5 29.15 Q-6.9 29.75 -6.9 30.5 L-6.85 31.5 -6.9 31.15 -6.9 31.55 -6.9 31.85 Q-6.9 33.35 -6.2 34.65 L-5.2 35.9 -4.65 36.5 -3.75 37.1 -2.9 37.5 -2.6 37.65 -0.75 38.15 0.05 38.25 0.8 38.3 2.05 38.2 2.55 38.15 3.65 38.0 Q5.55 37.55 7.1 36.4 L7.4 36.1 7.4 36.15 9.05 34.5 Q10.0 33.3 9.95 31.75 L9.85 30.3 9.55 29.25 Q9.0 27.85 7.95 26.8 7.2 25.95 6.25 25.35 L4.85 24.6 Q3.5 24.0 2.0 23.95 L1.75 24.0 1.55 24.05 M-3.15 -60.55 L-1.6 -58.15 -3.85 -57.75 -6.25 -57.5 Q-6.45 -57.35 -6.75 -57.35 L-7.35 -57.35 Q-7.85 -58.65 -8.7 -59.8 L-3.15 -60.55 M-10.15 -35.55 Q-9.0 -35.5 -9.05 -34.35 -8.85 -33.25 -10.8 -32.15 -11.6 -31.75 -13.15 -32.45 -14.1 -33.45 -13.6 -34.5 -13.35 -35.2 -12.05 -35.75 L-10.15 -35.55 M-11.1 -34.8 Q-11.4 -35.6 -12.35 -35.4 -13.4 -34.9 -13.0 -33.9 L-12.8 -33.6 Q-12.1 -33.05 -11.4 -33.6 -10.8 -34.1 -11.1 -34.8 M-19.3 24.75 L-19.55 25.15 -19.55 24.8 -18.9 24.65 -19.3 24.75" fill="#4e4e4e" fill-rule="evenodd" stroke="none"/>
    <path d="M22.85 -21.65 L22.75 -21.7 Q22.65 -21.75 22.65 -21.75 22.25 -22.2 21.5 -22.3 L20.15 -22.5 20.85 -24.65 20.95 -24.9 20.95 -24.95 21.1 -25.75 21.1 -26.9 21.1 -27.05 20.6 -28.55 Q22.1 -27.75 22.65 -25.75 23.15 -23.75 22.85 -21.65 M18.15 -20.65 L18.2 -20.7 18.2 -20.75 18.65 -21.2 19.0 -21.65 19.1 -21.75 Q20.75 -21.4 22.2 -20.6 L22.15 -19.4 Q21.9 -18.05 20.85 -17.05 L17.2 -13.15 16.95 -13.05 17.1 -13.55 17.15 -13.9 17.2 -13.95 17.15 -14.0 17.25 -14.4 Q17.4 -15.1 16.7 -15.15 L14.3 -15.3 13.4 -15.0 Q13.1 -14.8 13.3 -14.5 13.6 -14.1 14.0 -14.2 L14.45 -14.2 Q15.15 -14.1 15.4 -13.65 L15.5 -12.35 15.5 -12.3 13.55 -11.2 13.5 -11.15 13.05 -11.0 12.2 -13.45 12.15 -13.45 12.1 -13.6 11.95 -13.8 11.35 -14.75 10.65 -15.45 9.3 -16.25 9.65 -16.35 10.5 -16.6 11.0 -16.75 17.45 -20.05 18.1 -20.65 18.15 -20.65 M18.25 -17.25 Q17.7 -16.6 18.6 -16.0 19.25 -15.85 19.75 -16.45 20.3 -17.35 19.55 -17.5 18.9 -17.7 18.25 -17.25 M12.05 -10.7 L12.2 -9.85 7.1 -9.25 -0.15 -9.2 -6.7 -9.85 -6.8 -9.85 Q-6.9 -9.4 -7.35 -9.25 -9.7 -8.8 -10.3 -9.9 L-10.3 -10.6 -10.5 -10.65 -13.2 -11.1 Q-15.6 -11.35 -17.35 -12.7 L-17.65 -12.95 -17.65 -13.05 Q-16.55 -15.35 -15.1 -16.35 L-15.25 -16.25 Q-16.1 -15.35 -15.25 -14.4 -14.15 -13.25 -12.65 -14.05 -11.9 -14.45 -11.75 -15.25 -11.4 -16.75 -12.65 -17.2 L-9.6 -16.95 -7.15 -16.4 -4.7 -16.15 Q0.85 -14.8 7.6 -16.0 10.65 -14.85 11.5 -12.55 L11.6 -12.25 11.85 -11.6 12.05 -10.7 M4.6 32.15 Q2.2 35.2 -1.85 33.95 -3.8 33.3 -4.05 31.35 -5.3 28.45 -2.35 26.6 -0.7 25.65 1.1 25.6 4.8 26.0 5.3 29.6 5.45 31.0 4.6 32.15 M-22.95 -23.1 L-24.8 -22.3 -27.6 -20.5 -28.05 -20.5 Q-29.25 -22.55 -28.95 -25.2 -28.7 -27.55 -27.3 -29.7 -26.25 -31.8 -24.15 -33.15 -23.0 -33.9 -19.95 -35.15 L-17.95 -33.7 -18.05 -33.6 -18.55 -33.0 -19.0 -31.5 -19.1 -31.5 Q-21.45 -30.55 -23.0 -28.5 L-23.75 -27.4 Q-24.7 -25.7 -23.9 -24.05 L-22.95 -23.1 M-26.85 -28.0 Q-26.9 -26.6 -25.45 -26.8 L-25.15 -27.0 -23.65 -29.8 Q-23.2 -29.9 -23.05 -30.35 -22.55 -31.75 -24.2 -31.85 -25.65 -31.5 -26.35 -30.1 -26.85 -29.1 -26.85 -28.0 M-20.7 -23.0 L-18.9 -22.75 -18.5 -22.35 -18.45 -22.3 -18.35 -22.15 -18.05 -22.05 -18.3 -22.1 Q-18.2 -21.8 -18.45 -21.55 L-20.95 -21.1 -23.0 -20.4 -23.8 -19.95 -24.85 -19.05 -26.1 -17.9 -26.25 -17.9 Q-26.6 -17.65 -26.9 -17.9 -27.5 -18.5 -27.35 -19.35 L-26.95 -20.25 Q-25.95 -21.25 -24.6 -21.8 L-22.85 -22.5 -21.3 -22.9 -20.7 -23.0 M-23.1 -21.7 L-23.75 -21.35 -23.1 -21.7 M-15.45 -17.75 L-17.45 -15.8 -17.85 -15.25 -17.9 -15.15 -18.4 -14.35 -18.8 -13.5 Q-20.9 -14.25 -22.9 -15.5 L-23.8 -16.05 Q-24.85 -16.65 -25.0 -17.5 L-24.65 -17.95 -23.85 -18.8 -23.7 -18.95 -23.5 -19.1 -23.4 -19.2 -23.2 -19.3 -23.15 -18.25 -22.85 -17.7 Q-21.4 -16.25 -19.55 -17.75 -18.4 -18.7 -19.0 -19.8 L-17.2 -19.05 -17.2 -19.0 Q-15.7 -18.9 -15.1 -18.0 L-15.45 -17.75 M-7.0 -12.6 Q-7.55 -13.5 -8.65 -13.45 -9.6 -13.15 -9.7 -12.15 L-9.65 -11.7 Q-9.45 -10.6 -8.25 -10.65 -7.95 -10.75 -7.75 -10.95 L-7.55 -11.2 Q-7.0 -11.5 -6.9 -12.1 L-7.0 -12.6" fill="#54035a" fill-rule="evenodd" stroke="none"/>
    <path d="M-43.05 -21.6 Q-44.65 -24.45 -45.05 -25.65 L-41.9 -24.55 -41.75 -24.35 -41.65 -24.25 Q-39.7 -24.25 -40.2 -22.55 -40.35 -21.9 -40.75 -21.45 L-41.1 -21.1 Q-42.15 -21.0 -43.0 -21.5 L-43.05 -21.6 M0.7 -32.35 Q-0.5 -32.0 -0.95 -33.05 -1.3 -33.75 -0.75 -34.35 L0.4 -35.1 1.7 -34.9 2.05 -34.15 Q2.05 -32.8 0.7 -32.35 M-11.25 -62.4 L-11.3 -62.45 -11.35 -62.4 -11.4 -62.5 -11.45 -62.5 -11.95 -63.15 -11.95 -63.75 -11.4 -64.35 -11.0 -64.45 -10.4 -64.5 -10.3 -64.5 Q-8.7 -64.3 -8.45 -62.65 -8.4 -62.25 -8.7 -62.05 L-8.85 -61.95 -10.95 -62.15 -11.25 -62.4 M-11.1 -34.8 Q-10.8 -34.1 -11.4 -33.6 -12.1 -33.05 -12.8 -33.6 L-13.0 -33.9 Q-13.4 -34.9 -12.35 -35.4 -11.4 -35.6 -11.1 -34.8 M-37.6 -31.7 L-37.6 -31.95 -37.85 -34.2 -37.4 -33.9 -37.4 -33.85 -37.25 -33.55 -36.8 -33.05 Q-35.3 -32.25 -36.5 -31.25 -37.0 -30.8 -37.5 -30.95 L-37.6 -31.7 M-0.8 9.95 Q1.4 10.65 0.35 12.95 -0.35 14.5 -1.9 13.45 -2.9 12.8 -2.65 11.6 -2.3 10.1 -0.8 9.95" fill="#999999" fill-rule="evenodd" stroke="none"/>
    <path d="M-27.7 37.4 L-26.2 36.3 Q-25.65 37.4 -24.0 38.4 L-22.7 39.05 -24.7 41.5 Q-25.15 41.1 -25.8 41.0 L-25.9 40.9 -26.75 39.4 -26.9 39.15 Q-26.6 37.7 -27.7 37.4 M-18.0 42.05 L-16.55 40.6 -9.95 41.45 -3.15 41.75 Q-8.3 48.65 -14.75 52.3 L-14.65 52.45 Q-16.35 53.5 -18.15 53.7 L-18.3 53.55 -20.25 51.45 -20.05 51.35 Q-18.35 50.65 -16.7 49.75 L-16.6 49.9 -15.8 49.4 Q-13.95 48.25 -12.4 46.7 L-11.3 45.75 Q-14.5 43.6 -18.0 42.05 M-11.75 56.4 L-10.5 56.0 -7.05 61.95 -6.75 61.95 -6.45 61.1 -6.4 60.1 -7.3 57.85 Q-7.9 56.55 -8.9 55.85 L-9.8 55.5 -9.2 55.75 Q-7.6 55.25 -6.9 53.4 -6.65 52.65 -6.05 52.2 L-4.25 50.75 -2.5 49.3 -2.45 49.25 -2.4 50.0 -2.05 55.55 Q-1.45 57.15 -1.7 59.5 L-2.4 63.35 -4.4 63.4 Q-5.55 63.45 -6.15 64.1 L-6.6 64.15 Q-7.15 63.65 -8.15 63.55 L-8.3 63.25 Q-8.3 61.85 -9.6 60.6 L-10.8 58.4 Q-10.8 57.55 -11.5 56.65 L-11.75 56.4 M-0.85 43.7 L-0.65 43.65 -0.15 43.6 -0.05 43.6 0.2 43.6 1.95 43.65 Q1.55 44.15 1.65 44.85 L1.85 45.3 2.15 45.6 Q1.8 47.5 2.05 49.65 2.3 52.6 3.5 55.3 L3.0 58.6 Q2.5 60.6 2.6 61.75 3.2 61.6 3.35 60.85 3.45 59.9 3.7 59.65 4.75 57.95 4.7 55.9 4.7 54.55 4.1 52.2 3.45 49.6 3.35 48.5 3.25 47.25 3.5 46.15 L3.5 46.05 5.65 46.45 6.5 46.65 9.1 46.8 Q13.95 45.25 18.85 44.0 L21.45 43.4 20.95 46.55 Q19.05 48.05 17.25 49.7 L16.45 49.5 Q15.0 50.4 14.75 52.1 L14.65 52.15 12.05 54.85 9.55 57.85 7.75 59.85 Q6.6 61.25 6.35 62.55 L5.1 64.55 3.0 64.0 Q1.45 63.75 0.75 63.2 L-1.3 63.35 Q-0.55 60.95 -0.45 58.45 -0.4 55.55 -1.3 53.55 L-1.45 45.9 -1.45 45.25 -1.2 45.05 -1.1 45.0 -1.05 44.9 -0.9 44.75 Q-0.45 44.1 -0.85 43.7 M42.45 -15.75 L43.25 -14.8 43.85 -13.5 43.8 -13.5 Q43.35 -10.8 42.75 -9.15 41.85 -6.9 40.3 -5.4 L40.85 -2.15 41.4 -2.55 40.9 -2.2 40.85 -2.1 40.85 -2.0 Q41.95 -1.4 43.75 -1.6 47.25 -3.55 47.6 -7.7 47.7 -9.15 47.4 -10.3 L48.15 -9.45 48.1 -9.35 Q48.8 -9.1 48.65 -8.15 L48.95 -8.5 50.4 -6.25 Q51.2 -4.9 51.4 -3.85 45.95 2.25 40.2 4.35 L39.85 4.75 38.15 6.5 37.55 7.6 37.45 7.65 37.1 5.7 36.95 5.3 Q36.05 3.65 34.55 3.15 L32.8 2.85 32.6 2.6 Q32.45 2.25 32.6 1.9 L32.85 1.6 Q34.3 1.7 35.5 2.35 L36.1 2.7 Q37.65 3.8 38.2 5.5 L38.3 5.15 Q39.15 1.95 39.05 -1.4 38.95 -3.95 38.35 -6.1 L38.85 -6.3 39.5 -7.2 39.6 -7.45 39.75 -7.25 Q41.8 -9.95 42.3 -13.6 L42.35 -13.9 42.45 -15.75 M21.6 16.8 Q20.75 17.2 20.15 16.55 L19.95 16.25 20.55 15.7 Q20.95 15.15 20.8 14.5 L20.8 14.45 Q20.55 12.35 19.7 11.6 L19.9 11.35 20.0 11.3 20.35 11.2 20.95 11.55 21.0 11.55 21.55 12.6 21.75 12.95 21.8 13.25 21.85 13.5 Q22.1 15.15 21.25 16.7 L21.6 16.8 M8.3 14.1 L8.25 14.1 6.35 14.15 6.6 13.45 6.6 13.4 6.7 13.0 6.7 12.9 6.95 11.25 6.2 10.3 6.35 10.25 6.6 10.2 7.15 10.1 8.0 10.3 7.85 10.3 8.35 12.55 8.3 14.1 M-4.3 14.2 L-5.55 14.5 -5.6 14.4 -5.75 14.1 Q-6.4 13.25 -6.35 12.15 L-6.3 12.15 -6.3 12.1 -6.15 10.95 -5.55 10.75 -5.15 10.9 -5.15 11.4 -5.1 11.75 -4.6 13.55 -4.4 14.1 -4.3 14.2 M-8.45 15.1 L-9.5 15.25 -9.6 15.25 -9.9 14.35 -10.0 14.35 -9.9 14.25 -10.0 13.9 Q-10.65 12.75 -10.65 11.85 L-10.35 11.5 -10.25 11.4 Q-9.8 11.5 -9.5 11.7 L-9.5 11.4 -9.0 11.45 Q-9.15 12.8 -8.75 14.05 L-8.5 14.75 -8.45 15.05 -8.45 15.1 M-11.55 15.6 L-11.65 15.6 -12.75 15.65 -13.05 15.1 -13.2 14.65 -13.4 14.4 Q-13.7 13.7 -13.55 12.85 L-13.25 11.9 -13.15 11.4 -13.1 11.4 -13.05 11.4 -12.65 11.3 -12.15 11.55 -12.1 11.55 Q-12.4 12.65 -12.2 13.8 L-12.05 14.3 -11.7 14.85 -11.75 14.9 -11.7 14.9 -11.7 14.95 -11.55 15.15 -11.3 15.6 -11.55 15.6 M-30.75 7.9 L-31.0 8.3 Q-31.7 8.1 -31.6 7.3 L-31.55 7.05 Q-30.25 5.55 -28.8 4.75 -27.8 4.1 -26.75 3.85 -26.3 3.9 -25.95 4.2 L-25.55 4.8 -25.6 4.75 Q-27.3 4.9 -28.75 5.9 L-29.2 6.2 -29.9 6.85 -30.5 7.5 -30.5 7.55 -30.75 7.9 M-37.5 -5.5 L-37.6 -4.25 -37.35 -1.55 -37.25 -0.8 -37.35 -0.1 -35.85 4.55 Q-38.6 3.8 -43.5 0.4 L-47.65 -2.8 -47.75 -2.85 -42.35 -7.6 -43.95 -10.85 -44.15 -12.4 -44.5 -13.7 -44.4 -13.8 -42.7 -15.0 -42.25 -12.75 -41.65 -11.1 Q-40.25 -7.9 -37.5 -5.5 M-42.6 -17.85 L-42.55 -18.2 Q-42.45 -18.9 -41.95 -19.35 L-41.25 -17.5 -39.85 -17.45 Q-38.95 -17.6 -38.5 -18.15 -38.55 -18.75 -37.6 -20.7 -36.9 -22.2 -37.85 -23.15 L-39.45 -23.7 -38.45 -24.8 -36.5 -23.0 -36.0 -21.1 Q-35.95 -20.0 -36.5 -19.25 -36.9 -18.05 -38.05 -17.3 -39.2 -16.6 -40.5 -16.6 L-40.65 -16.65 -40.75 -16.65 -41.35 -16.85 -42.0 -17.2 -42.6 -17.85 M2.5 -26.3 L6.2 -26.65 7.05 -26.8 11.1 -28.0 12.6 -28.25 12.25 -28.15 10.95 -27.8 11.75 -26.4 Q11.35 -25.85 12.1 -25.25 L12.3 -25.1 13.65 -23.75 Q14.25 -23.1 13.95 -21.9 L13.65 -21.15 14.4 -20.65 14.7 -20.55 14.05 -20.05 12.25 -20.0 12.2 -20.0 12.7 -20.2 13.05 -20.4 12.5 -20.95 10.4 -20.4 8.2 -20.05 8.2 -19.55 Q8.2 -19.25 8.4 -19.25 L8.6 -19.3 Q8.55 -17.85 7.2 -18.1 L7.1 -18.1 Q7.3 -21.1 4.6 -22.8 L3.55 -23.55 Q3.25 -23.9 3.05 -24.35 2.65 -25.45 3.05 -26.4 L3.0 -26.4 2.35 -26.3 2.5 -26.3 M13.65 -28.25 Q14.8 -28.85 16.05 -28.65 L16.1 -28.65 15.9 -28.55 15.1 -28.5 14.0 -28.25 Q15.1 -27.9 15.4 -26.6 L15.45 -26.4 16.0 -26.65 Q16.75 -27.05 16.55 -27.8 17.3 -28.3 18.25 -29.1 19.25 -28.9 19.3 -27.65 L19.3 -27.5 19.3 -27.6 19.25 -27.6 18.45 -26.95 17.35 -26.45 16.85 -26.15 16.75 -26.05 Q16.45 -25.6 17.2 -24.85 17.3 -25.1 18.75 -26.0 L18.9 -26.1 19.2 -26.4 19.3 -26.55 19.15 -25.2 17.5 -23.9 Q17.55 -23.85 18.25 -23.5 L18.8 -23.75 17.95 -22.95 16.95 -22.55 Q16.2 -22.75 16.15 -23.5 16.0 -24.85 15.65 -25.15 14.45 -25.25 14.2 -26.45 L14.2 -26.5 13.7 -28.2 13.65 -28.25 M4.25 -17.9 L2.55 -17.45 -1.15 -17.55 Q-0.25 -18.05 -0.05 -19.35 L0.4 -21.6 Q0.65 -21.8 0.45 -22.3 L0.4 -22.45 0.4 -22.5 0.55 -22.85 0.75 -23.0 Q1.45 -23.1 2.6 -22.15 L4.1 -20.1 Q4.85 -18.95 4.25 -17.9 M-5.7 -18.5 L-7.25 -19.0 Q-8.5 -19.5 -9.65 -20.15 L-9.75 -20.2 -9.2 -20.05 -8.1 -19.9 -7.9 -19.85 -7.8 -19.85 -7.85 -19.9 -10.05 -22.05 -10.4 -21.95 -12.45 -22.0 -13.3 -22.15 -14.25 -22.65 Q-14.7 -22.85 -15.15 -23.15 -16.6 -24.2 -17.85 -25.45 -18.65 -26.25 -18.75 -27.15 -17.3 -25.25 -15.05 -24.2 L-14.75 -24.05 -14.15 -23.85 Q-12.25 -23.15 -10.05 -23.25 L-7.85 -21.15 Q-6.6 -20.0 -5.35 -20.05 L-3.7 -21.25 Q-2.85 -22.1 -3.45 -23.0 -4.55 -23.05 -5.85 -23.85 L-5.9 -23.9 -7.95 -25.15 Q-10.8 -24.8 -13.25 -25.65 L-13.9 -25.9 -14.0 -25.95 -15.05 -26.5 -15.5 -26.75 Q-16.8 -27.6 -17.8 -28.8 L-17.85 -28.9 -17.95 -29.05 -18.1 -29.6 Q-18.25 -30.3 -17.7 -30.5 L-17.65 -30.25 -17.6 -30.2 Q-16.8 -28.85 -15.3 -28.05 L-14.85 -27.85 -14.8 -27.85 -14.7 -27.8 -14.05 -27.6 -13.4 -27.45 -13.0 -27.35 -10.75 -27.1 -8.15 -26.85 Q-7.2 -25.9 -4.7 -24.7 -3.65 -24.1 -3.3 -24.9 L-2.95 -26.25 -2.85 -26.55 -2.8 -26.55 -1.3 -26.25 -1.45 -26.25 -1.45 -23.9 -1.45 -22.8 Q-1.75 -21.45 -3.45 -20.2 L-3.6 -20.05 -5.7 -18.5 M4.3 -25.8 Q4.1 -25.25 4.65 -24.75 L5.55 -24.05 8.15 -24.5 Q9.65 -24.75 10.4 -25.5 L10.2 -25.95 4.3 -25.8 M10.35 -21.55 Q11.8 -21.85 12.5 -22.4 11.8 -24.1 9.95 -23.6 L8.4 -23.1 6.85 -23.0 7.55 -22.1 Q8.1 -21.55 8.05 -20.95 L10.35 -21.55 M0.85 -18.15 L3.2 -18.15 Q2.9 -19.9 1.5 -21.25 1.65 -20.2 0.85 -18.15 M20.3 -4.5 L23.1 -6.05 25.6 -6.95 26.35 -6.3 28.1 -4.75 Q30.5 -2.7 30.05 0.3 29.6 3.5 27.95 6.3 25.8 8.75 22.95 9.7 20.3 10.05 16.55 9.65 L9.95 8.75 7.1 8.95 Q4.55 5.8 -0.5 6.4 L-3.25 7.05 Q-4.95 7.45 -5.35 8.6 -6.75 9.75 -9.15 9.85 L-13.25 9.85 Q-18.15 9.15 -22.55 4.9 L-20.05 5.95 Q-16.0 7.25 -12.45 5.25 L-11.1 4.3 Q-8.75 2.2 -9.3 -0.85 L-7.0 -0.4 Q2.45 1.4 10.6 -0.8 9.05 0.5 9.0 2.6 L9.2 4.0 Q9.95 6.85 13.0 6.65 L16.85 6.0 16.75 5.6 16.8 5.15 16.85 4.85 17.4 3.5 Q20.55 0.05 23.4 0.4 L24.35 1.4 Q24.9 0.45 25.0 -0.7 L24.8 -1.6 Q23.25 -4.25 20.3 -4.5 M-27.1 -0.95 L-27.55 -1.85 -27.25 -1.25 -27.15 -1.3 -27.0 -1.4 -27.1 -0.95 M21.0 5.95 L22.9 4.55 Q23.95 3.6 23.95 2.5 23.4 1.1 22.4 1.3 18.05 2.9 17.7 5.3 18.0 6.05 19.15 6.15 L21.0 5.95 M27.85 24.65 L28.2 24.0 27.65 25.05 27.6 25.05 27.85 24.65 M11.25 39.6 L12.5 38.45 13.65 37.1 Q14.65 35.75 14.95 34.1 15.6 30.35 13.9 27.05 L13.55 26.25 Q12.25 23.65 10.05 22.15 L12.75 22.55 15.4 24.75 16.1 25.7 Q17.4 28.35 17.65 31.3 17.95 34.8 15.95 37.65 L14.8 39.15 13.1 39.4 11.25 39.6 M24.15 25.05 Q24.5 25.4 25.5 25.7 26.45 26.05 26.85 26.65 26.55 32.2 24.05 37.1 L22.65 37.85 18.05 38.65 18.45 37.8 Q20.0 34.45 19.55 30.65 L19.3 28.75 Q18.85 25.5 16.6 23.25 L18.4 23.55 24.15 25.05 M12.1 53.1 L11.95 52.95 Q5.45 57.6 5.1 61.5 6.6 60.35 8.6 57.4 10.65 54.3 12.1 53.1" fill="#333333" fill-rule="evenodd" stroke="none"/>
    <path d="M-2.5 49.3 L-2.7 49.45 -2.85 47.05 -2.85 46.45 Q-2.9 45.4 -2.45 44.6 L-2.3 44.3 -2.3 44.25 -2.25 44.25 -2.05 43.95 -1.9 43.75 -1.7 43.55 -1.55 43.55 -1.3 43.6 -0.85 43.7 Q-0.45 44.1 -0.9 44.75 L-1.05 44.9 -1.1 45.0 -1.2 45.05 -1.45 45.25 -1.45 45.9 -1.3 53.55 Q-0.4 55.55 -0.45 58.45 -0.55 60.95 -1.3 63.35 L-1.1 63.35 -1.35 63.5 -2.25 63.45 -2.4 63.35 -1.7 59.5 Q-1.45 57.15 -2.05 55.55 L-2.4 50.0 -2.45 49.25 -2.5 49.3 M1.85 45.3 Q2.95 45.45 3.5 46.15 3.25 47.25 3.35 48.5 3.45 49.6 4.1 52.2 4.7 54.55 4.7 55.9 4.75 57.95 3.7 59.65 3.45 59.9 3.35 60.85 3.2 61.6 2.6 61.75 2.5 60.6 3.0 58.6 L3.5 55.3 Q2.3 52.6 2.05 49.65 1.8 47.5 2.15 45.6 L1.85 45.3 M16.1 -28.65 L18.5 -29.8 18.6 -29.4 18.25 -29.1 Q17.3 -28.3 16.55 -27.8 16.75 -27.05 16.0 -26.65 L15.45 -26.4 15.4 -26.6 Q15.1 -27.9 14.0 -28.25 L15.1 -28.5 15.9 -28.55 16.1 -28.65 M19.3 -27.5 Q19.5 -27.0 19.3 -26.55 L19.2 -26.4 18.9 -26.1 18.75 -26.0 Q17.3 -25.1 17.2 -24.85 16.45 -25.6 16.75 -26.05 L16.85 -26.15 17.35 -26.45 18.45 -26.95 19.25 -27.6 19.3 -27.6 19.3 -27.5 M19.25 -25.2 L19.15 -24.3 18.8 -23.75 18.25 -23.5 Q17.55 -23.85 17.5 -23.9 L19.15 -25.2 19.25 -25.2 M12.25 -20.0 L8.6 -19.3 8.4 -19.25 Q8.2 -19.25 8.2 -19.55 L8.2 -20.05 10.4 -20.4 12.5 -20.95 13.05 -20.4 12.7 -20.2 12.2 -20.0 12.25 -20.0 M-9.2 -20.05 L-11.25 -20.75 -14.4 -22.4 -12.45 -22.0 -10.4 -21.95 -10.05 -22.05 -7.85 -19.9 -7.9 -19.85 -8.1 -19.9 -9.2 -20.05 M-17.7 -32.2 L-17.45 -32.45 -17.3 -32.05 -17.7 -32.2 M-13.7 -28.55 L-12.65 -28.3 -12.15 -28.3 Q-10.25 -29.25 -7.85 -28.75 -5.7 -28.3 -3.95 -26.85 L-2.85 -26.55 -2.95 -26.25 -3.3 -24.9 Q-3.65 -24.1 -4.7 -24.7 -7.2 -25.9 -8.15 -26.85 L-10.75 -27.1 -13.0 -27.35 -13.4 -27.45 -14.05 -27.6 -14.05 -27.85 -13.7 -28.55 M4.3 -25.8 L10.2 -25.95 10.4 -25.5 Q9.65 -24.75 8.15 -24.5 L5.55 -24.05 4.65 -24.75 Q4.1 -25.25 4.3 -25.8 M10.35 -21.55 L8.05 -20.95 Q8.1 -21.55 7.55 -22.1 L6.85 -23.0 8.4 -23.1 9.95 -23.6 Q11.8 -24.1 12.5 -22.4 11.8 -21.85 10.35 -21.55 M0.85 -18.15 Q1.65 -20.2 1.5 -21.25 2.9 -19.9 3.2 -18.15 L0.85 -18.15 M10.6 -0.8 L11.5 -1.05 Q14.6 -1.15 19.4 -4.0 L20.3 -4.5 Q23.25 -4.25 24.8 -1.6 L25.0 -0.7 Q24.9 0.45 24.35 1.4 L23.4 0.4 Q20.55 0.05 17.4 3.5 L16.85 4.85 16.8 5.15 16.75 5.6 16.85 6.0 13.0 6.65 Q9.95 6.85 9.2 4.0 L9.0 2.6 Q9.05 0.5 10.6 -0.8 M-22.55 4.9 Q-25.35 2.2 -27.1 -0.95 L-27.0 -1.4 Q-26.65 -3.05 -24.95 -3.8 L-21.5 -4.95 Q-14.9 -2.2 -9.3 -0.85 -8.75 2.2 -11.1 4.3 L-12.45 5.25 Q-16.0 7.25 -20.05 5.95 L-22.55 4.9 M12.1 53.1 Q10.65 54.3 8.6 57.4 6.6 60.35 5.1 61.5 5.45 57.6 11.95 52.95 L12.1 53.1 M9.55 57.85 L7.2 61.2 6.35 62.55 Q6.6 61.25 7.75 59.85 L9.55 57.85 M-14.0 -25.95 L-13.9 -25.9 -13.25 -25.65 Q-10.8 -24.8 -7.95 -25.15 L-5.9 -23.9 -5.85 -23.85 Q-4.55 -23.05 -3.45 -23.0 -2.85 -22.1 -3.7 -21.25 L-5.35 -20.05 Q-6.6 -20.0 -7.85 -21.15 L-10.05 -23.25 Q-12.25 -23.15 -14.15 -23.85 L-14.75 -24.05 Q-14.9 -25.2 -14.15 -26.0 L-14.0 -25.95 M-14.8 -27.85 L-14.7 -27.9 -14.7 -27.8 -14.8 -27.85" fill="#424220" fill-rule="evenodd" stroke="none"/>
    <path d="M-1.3 -26.25 L0.85 -26.25 2.5 -26.3 2.35 -26.3 3.0 -26.4 3.05 -26.4 Q2.65 -25.45 3.05 -24.35 3.25 -23.9 3.55 -23.55 L4.6 -22.8 Q7.3 -21.1 7.1 -18.1 L7.1 -17.7 5.55 -17.25 Q4.55 -17.1 4.15 -17.7 L4.25 -17.9 Q4.85 -18.95 4.1 -20.1 L2.6 -22.15 Q1.45 -23.1 0.75 -23.0 L0.55 -22.85 0.4 -22.5 0.4 -22.45 0.45 -22.3 Q0.65 -21.8 0.4 -21.6 L-0.05 -19.35 Q-0.25 -18.05 -1.15 -17.55 L-1.3 -17.5 -3.7 -17.75 Q-5.15 -17.9 -5.95 -18.3 L-5.7 -18.5 -3.6 -20.05 -3.6 -19.75 -3.5 -19.65 -3.4 -19.55 -1.65 -19.45 -1.35 -20.3 -1.05 -20.8 Q-0.6 -22.25 -0.5 -23.75 L-0.55 -24.7 -0.95 -24.5 -1.45 -23.9 -1.45 -26.25 -1.3 -26.25 M12.6 -28.25 L13.5 -28.4 13.65 -28.25 13.7 -28.2 14.2 -26.5 14.2 -26.45 Q14.45 -25.25 15.65 -25.15 16.0 -24.85 16.15 -23.5 16.2 -22.75 16.95 -22.55 L17.4 -22.5 16.35 -21.4 15.2 -20.5 14.7 -20.55 14.4 -20.65 13.65 -21.15 13.95 -21.9 14.05 -21.9 Q14.9 -22.7 14.65 -23.85 14.35 -25.3 13.1 -25.85 12.35 -25.65 12.25 -25.15 L12.3 -25.1 12.1 -25.25 Q11.35 -25.85 11.75 -26.4 L10.95 -27.8 12.25 -28.15 12.6 -28.25 M19.15 -25.2 L19.25 -25.3 19.25 -25.2 19.15 -25.2 M-18.75 -27.15 L-19.05 -27.5 -19.0 -28.7 Q-18.9 -29.35 -18.3 -29.5 L-17.85 -28.9 -17.8 -28.8 Q-16.8 -27.6 -15.5 -26.75 L-15.05 -26.5 -14.0 -25.95 -14.15 -26.0 Q-14.9 -25.2 -14.75 -24.05 L-15.05 -24.2 Q-17.3 -25.25 -18.75 -27.15 M-17.7 -30.5 L-17.9 -31.4 -17.7 -32.2 -17.3 -32.05 Q-16.7 -30.6 -15.5 -29.55 L-14.05 -28.65 -13.7 -28.55 -14.05 -27.85 -14.05 -27.6 -14.7 -27.8 -14.7 -27.9 -14.8 -27.85 -14.85 -27.85 -15.3 -28.05 Q-16.8 -28.85 -17.6 -30.2 L-17.65 -30.25 -17.7 -30.5 M21.0 5.95 L19.15 6.15 Q18.0 6.05 17.7 5.3 18.05 2.9 22.4 1.3 23.4 1.1 23.95 2.5 23.95 3.6 22.9 4.55 L21.0 5.95 M-7.9 -19.85 L-7.85 -19.9 -7.8 -19.85 -7.9 -19.85" fill="#666633" fill-rule="evenodd" stroke="none"/>
    <path d="M8.2 -28.95 L7.85 -28.95 7.9 -29.0 8.2 -28.95 M-11.4 -62.5 L-11.7 -62.35 -11.4 -62.5" fill="#ffffff" fill-rule="evenodd" stroke="none"/>
    <path d="M-1.45 -23.9 L-0.95 -24.5 -0.55 -24.7 -0.5 -23.75 Q-0.6 -22.25 -1.05 -20.8 L-1.35 -20.3 -1.65 -19.45 -3.4 -19.55 -3.5 -19.65 -3.6 -19.75 -3.6 -20.05 -3.45 -20.2 Q-1.75 -21.45 -1.45 -22.8 L-1.45 -23.9 M12.3 -25.1 L12.25 -25.15 Q12.35 -25.65 13.1 -25.85 14.35 -25.3 14.65 -23.85 14.9 -22.7 14.05 -21.9 L13.95 -21.9 Q14.25 -23.1 13.65 -23.75 L12.3 -25.1" fill="#999900" fill-rule="evenodd" stroke="none"/>
    <path d="M19.25 -25.2 L19.15 -25.2 19.25 -25.2" fill="#545429" fill-rule="evenodd" stroke="none"/>
    <path d="M15.5 -12.3 L15.5 -12.35 15.4 -13.65 Q15.15 -14.1 14.45 -14.2 L14.0 -14.2 Q13.6 -14.1 13.3 -14.5 13.1 -14.8 13.4 -15.0 L14.3 -15.3 16.7 -15.15 Q17.4 -15.1 17.25 -14.4 L17.15 -14.0 17.2 -13.95 17.15 -13.9 17.1 -13.55 16.95 -13.05 Q16.6 -11.4 17.05 -10.4 17.85 -9.25 19.75 -9.75 20.45 -10.2 20.65 -11.3 20.9 -12.75 21.1 -13.05 21.65 -13.35 21.85 -12.75 L22.05 -11.8 Q22.1 -10.75 21.1 -9.7 L19.25 -8.05 17.4 -8.3 Q16.45 -8.7 15.95 -9.6 15.35 -10.05 15.35 -10.85 L15.5 -12.3 M18.25 -17.25 Q18.9 -17.7 19.55 -17.5 20.3 -17.35 19.75 -16.45 19.25 -15.85 18.6 -16.0 17.7 -16.6 18.25 -17.25 M18.75 -14.25 Q19.2 -14.45 20.05 -13.6 20.15 -12.65 19.4 -12.05 L18.5 -12.25 Q18.1 -12.55 18.15 -13.05 18.0 -13.55 18.75 -14.25 M21.6 -14.25 Q21.6 -15.8 24.4 -16.9 L24.85 -15.05 Q24.6 -14.4 23.4 -14.4 L21.6 -14.25" fill="#9933cc" fill-rule="evenodd" stroke="none"/>
    <path d="M-4.7 -51.35 Q-2.35 -51.5 -2.6 -49.45 -2.7 -48.75 -3.35 -48.55 -5.2 -47.95 -5.6 -49.5 -5.9 -50.7 -4.75 -51.25 L-4.7 -51.35 M-6.3 -47.4 Q-5.55 -46.4 -6.2 -45.3 -6.85 -44.15 -8.15 -43.85 -9.7 -43.6 -10.75 -44.65 -12.1 -46.0 -11.15 -47.65 L-10.6 -48.3 -10.45 -48.35 -9.75 -48.65 Q-7.55 -49.05 -6.3 -47.4" fill="#6633cc" fill-rule="evenodd" stroke="none"/>
    <path d="M-12.65 -17.2 Q-11.4 -16.75 -11.75 -15.25 -11.9 -14.45 -12.65 -14.05 -14.15 -13.25 -15.25 -14.4 -16.1 -15.35 -15.25 -16.25 L-15.1 -16.35 -14.5 -16.75 -14.3 -16.85 -12.85 -17.15 -12.65 -17.2 M-26.85 -28.0 Q-26.85 -29.1 -26.35 -30.1 -25.65 -31.5 -24.2 -31.85 -22.55 -31.75 -23.05 -30.35 -23.2 -29.9 -23.65 -29.8 L-25.15 -27.0 -25.45 -26.8 Q-26.9 -26.6 -26.85 -28.0 M-23.2 -19.3 L-21.8 -20.15 -21.2 -20.4 -19.0 -19.8 Q-18.4 -18.7 -19.55 -17.75 -21.4 -16.25 -22.85 -17.7 L-23.15 -18.25 -23.2 -19.3" fill="#663399" fill-rule="evenodd" stroke="none"/>
  </g>
</svg>
