<?xml version="1.0" encoding="UTF-8" standalone="no"?>
<svg xmlns:xlink="http://www.w3.org/1999/xlink" height="138.9px" width="61.0px" xmlns="http://www.w3.org/2000/svg">
  <g transform="matrix(1.0, 0.0, 0.0, 1.0, 42.2, 8.55)">
    <path d="M-7.65 -4.75 L-7.5 -4.9 -7.0 -5.25 -6.95 -5.3 -5.35 -6.2 -4.55 -6.55 Q-2.6 -5.8 -1.35 -4.15 0.15 -2.75 1.2 -0.95 2.35 1.0 2.65 3.3 3.1 6.6 2.9 9.9 2.65 14.35 1.45 18.65 L-1.1 27.2 Q-1.9 29.8 -3.15 32.3 L-5.0 36.1 Q-6.9 40.25 -11.05 42.35 L-12.05 42.7 Q-13.55 43.05 -14.75 42.25 L-14.2 42.1 -14.8 42.25 -15.95 42.3 -16.3 42.25 -16.1 42.2 -16.15 42.15 -14.2 41.45 Q-12.4 40.65 -10.85 39.3 -8.35 37.1 -8.5 33.95 L-8.4 33.6 -8.4 33.45 -8.55 33.25 -8.65 33.1 -9.05 33.1 -9.15 33.15 -9.2 33.15 -10.45 34.15 -11.9 35.8 -14.0 37.5 Q-15.15 38.2 -16.4 38.7 L-17.15 38.95 -17.6 39.05 -17.95 39.15 -19.15 39.4 -20.4 39.5 -21.0 39.15 Q-22.9 37.75 -24.25 35.6 -24.85 34.65 -24.85 33.5 -24.95 29.2 -23.5 25.2 L-22.9 22.85 -22.35 21.1 -21.4 19.15 -19.35 14.45 -18.55 13.0 -15.2 8.0 -14.45 6.65 Q-13.1 4.6 -11.3 3.1 L-10.7 2.8 -9.8 2.5 Q-6.45 2.45 -5.05 5.25 L-4.9 5.5 -4.5 6.8 -3.4 8.9 -3.3 9.45 Q-3.2 10.3 -3.25 11.1 L-3.15 11.45 -3.2 11.7 -3.2 11.8 -3.2 11.9 -3.1 12.0 -2.85 12.1 -2.7 12.05 -2.65 12.05 Q-0.9 9.8 -1.15 6.95 L-1.45 5.15 Q-2.55 0.85 -5.15 -2.75 -6.15 -4.15 -7.55 -4.7 L-7.65 -4.75 M-28.0 37.95 L-27.95 37.35 -28.0 37.8 -27.9 38.0 -28.0 37.95 M-3.75 -1.45 L-3.8 -1.45 -3.85 -1.35 -3.75 -1.45 M4.0 11.35 L4.0 11.4 3.5 10.8 3.35 10.65 3.4 10.6 4.0 11.35 M-8.65 75.45 L-13.3 76.55 Q-19.05 77.45 -24.95 76.7 -28.2 76.6 -30.9 74.6 L-32.0 66.5 -30.8 65.75 -29.75 66.75 -29.3 66.8 -29.85 66.75 -30.05 66.9 Q-29.65 67.35 -28.95 67.55 L-28.65 67.75 -28.1 67.9 -27.95 68.0 -23.9 69.0 Q-17.2 69.05 -10.7 67.7 L-9.4 67.4 -10.05 67.55 -10.0 69.45 Q-9.55 71.55 -9.25 73.7 L-8.65 75.45 M-29.3 62.8 L-29.5 62.0 Q-30.35 59.65 -31.55 57.25 -32.0 56.35 -31.95 55.35 L-31.55 52.3 -31.0 50.4 -30.05 49.8 -29.6 49.7 Q-30.8 51.1 -31.4 52.95 -31.9 54.55 -30.8 55.7 -29.6 56.9 -28.25 55.9 L-27.0 54.55 Q-26.0 52.85 -26.2 50.9 -26.3 49.5 -27.4 49.25 L-23.8 49.1 -18.35 49.65 Q-16.9 49.85 -15.6 50.75 L-15.7 51.05 -16.5 53.15 Q-18.55 57.65 -16.95 62.45 L-16.7 63.1 -15.7 62.95 -25.5 64.1 Q-26.3 63.5 -27.35 63.2 L-27.7 63.05 Q-28.55 62.4 -29.4 62.3 L-29.3 62.8 M-5.65 91.8 L-7.75 92.5 Q-11.65 93.6 -15.45 94.1 -18.7 94.8 -22.0 94.05 L-22.55 93.95 -24.95 92.9 -26.2 87.35 -25.55 86.35 -24.85 86.7 -23.55 87.2 -23.8 87.2 -23.4 87.4 Q-22.0 88.3 -20.65 88.6 L-15.95 88.55 Q-12.65 88.35 -9.5 87.2 L-7.85 86.65 -7.35 89.05 Q-7.0 90.6 -6.2 92.0 L-5.65 91.8 M-16.45 87.5 L-17.1 87.55 -16.6 87.4 -16.45 87.5 M-19.35 99.75 L-15.55 99.6 Q-11.55 99.95 -8.2 101.6 L-7.3 102.0 -7.95 101.75 -12.35 105.7 -11.8 105.6 -12.4 105.7 -12.85 105.65 -14.15 106.45 -17.1 109.15 Q-17.6 109.6 -17.75 110.15 L-19.35 110.05 -23.6 109.5 -28.55 109.1 Q-26.8 107.8 -25.65 106.1 -24.95 106.8 -23.55 106.3 L-19.95 101.75 -19.45 100.7 -19.35 99.75 M-20.9 128.4 L-30.05 128.8 -31.85 128.8 Q-35.1 128.6 -38.05 127.1 L-40.25 125.75 -41.05 125.1 -40.8 123.1 -40.3 122.85 Q-40.9 120.15 -40.1 117.75 -39.8 116.85 -39.15 116.15 L-36.45 113.9 Q-37.5 115.0 -37.7 116.4 L-37.6 117.5 -37.35 117.95 -36.7 119.4 Q-36.35 119.9 -35.85 119.9 L-35.65 120.1 -35.2 120.25 -34.65 120.05 -34.65 119.45 -35.2 116.95 -35.05 117.75 -33.0 116.8 -33.45 118.0 Q-33.7 118.85 -33.55 119.7 -33.45 120.3 -32.95 120.3 L-32.95 120.45 -32.05 120.9 -29.7 117.15 -28.95 116.4 Q-28.55 116.15 -28.35 115.4 L-28.9 114.5 -29.25 114.5 -29.35 114.3 -29.4 114.2 -28.9 113.75 Q-27.4 112.55 -28.35 111.05 L-28.7 110.8 -30.5 110.55 -31.0 110.65 -30.8 110.5 -30.3 110.55 -29.75 110.1 Q-23.45 109.85 -17.65 112.15 -19.8 114.05 -21.4 116.55 -23.25 119.4 -24.2 122.6 -24.45 123.4 -24.1 124.1 L-23.75 124.75 -24.15 124.8 -30.15 125.35 -35.95 124.15 -38.25 123.4 -39.05 123.25 -38.4 123.8 Q-34.85 125.8 -30.95 126.2 L-24.75 126.4 -19.75 125.7 Q-21.1 127.0 -20.9 128.4 M-12.45 7.0 L-12.4 7.0 -12.45 6.95 -12.5 7.1 -12.45 7.0 M-22.9 117.05 Q-22.75 116.75 -22.95 116.45 -23.05 116.35 -23.1 116.35 L-23.9 116.25 -25.45 116.55 -26.85 117.25 Q-28.25 118.05 -28.9 119.45 L-29.0 119.75 -29.15 120.9 Q-29.1 121.4 -28.65 121.4 L-28.6 121.5 -28.35 121.7 -28.05 121.65 Q-26.4 120.1 -24.6 119.05 L-23.0 118.1 -22.65 117.6 -22.9 117.05" fill="#404040" fill-rule="evenodd" stroke="none"/>
    <path d="M-5.35 -6.2 L-6.95 -5.3 -7.0 -5.25 -7.5 -4.9 -7.65 -4.75 -7.9 -4.6 -8.55 -4.15 -8.65 -4.25 -8.8 -4.35 -8.7 -4.2 -9.35 -3.55 -10.1 -2.7 -10.35 -2.4 -10.4 -2.35 -10.55 -2.15 -11.1 -1.45 -11.45 -0.75 -11.6 -0.6 -12.7 0.8 -13.0 1.2 -14.1 2.5 Q-15.85 4.8 -17.2 7.3 L-16.95 6.85 Q-17.15 7.7 -17.65 8.5 L-18.4 9.7 -18.2 9.25 -19.55 11.8 -19.75 12.1 -19.85 12.3 -21.15 14.95 -23.3 20.2 -24.25 23.05 Q-24.55 24.05 -25.1 24.8 L-25.1 24.95 -25.65 26.35 Q-27.2 31.4 -27.85 36.65 L-27.95 37.35 -28.0 37.95 -28.1 38.7 -28.15 39.35 -28.2 39.85 -28.2 39.9 -28.35 41.7 -28.2 41.9 Q-26.3 43.4 -23.7 43.4 L-23.25 43.5 -21.4 43.95 -21.1 44.05 -13.85 46.3 -10.85 46.85 Q-8.2 46.5 -6.15 45.05 L-5.75 44.85 -5.45 44.5 -5.25 44.3 -4.2 43.15 -3.55 42.3 -3.25 41.85 -2.6 41.05 -0.85 37.8 1.15 33.1 2.2 30.9 2.2 30.95 4.2 26.7 5.55 23.3 6.1 21.65 6.5 21.05 6.8 19.9 7.15 18.05 7.45 15.75 7.45 12.8 7.5 10.6 7.5 9.85 7.45 9.2 Q7.35 7.2 6.85 5.3 L5.65 1.05 Q4.9 -1.25 3.55 -3.2 2.2 -5.15 0.15 -6.4 L-0.05 -6.5 Q-1.15 -7.1 -2.3 -7.0 L-3.85 -6.8 -5.35 -6.2 M2.2 -8.3 L1.15 -8.2 -0.6 -7.85 -0.3 -7.75 Q0.45 -7.5 1.2 -7.05 L2.7 -6.0 Q5.7 -3.75 7.35 -0.35 9.0 3.0 9.05 6.75 L9.05 7.55 9.2 8.0 9.5 9.5 9.35 8.65 9.4 10.35 9.35 11.45 9.1 14.15 9.1 14.2 8.8 17.3 8.75 17.4 Q8.65 19.45 8.15 21.4 L7.7 22.3 7.9 21.45 Q7.25 24.25 6.1 26.9 L2.75 34.2 2.8 34.4 2.65 34.65 1.8 36.1 1.6 36.4 1.45 36.65 -0.25 39.8 -0.65 40.3 -0.7 40.4 -0.8 40.85 -0.85 40.85 -1.85 42.5 Q-3.0 44.4 -4.65 45.8 -2.5 45.95 -0.7 47.0 L-0.4 47.2 Q2.0 48.7 4.0 50.7 L5.8 52.75 6.05 53.05 Q7.55 47.45 9.35 42.1 10.55 38.45 12.0 34.9 L12.15 34.25 13.55 30.15 15.2 26.0 16.7 21.7 17.4 19.0 17.7 17.7 Q18.05 17.65 18.1 17.0 18.3 14.8 18.65 12.6 L18.65 12.1 18.75 9.7 18.65 5.2 Q18.5 3.0 17.75 0.9 L17.2 -0.35 17.55 0.15 18.3 1.35 18.35 1.5 18.8 2.5 18.8 17.7 18.05 20.85 17.2 23.65 16.4 25.85 Q15.85 27.2 15.45 28.65 L15.05 29.55 13.55 33.6 12.2 37.7 11.8 38.75 Q11.65 39.2 11.65 39.55 11.05 41.3 10.6 43.15 9.6 46.9 8.9 50.7 8.45 53.1 6.9 54.6 L5.85 54.15 5.15 53.55 Q2.2 50.8 -0.8 48.75 L-6.4 58.2 Q-4.55 59.05 -3.25 60.45 L-2.6 61.2 -2.2 61.6 -1.7 62.2 -1.7 62.15 -1.45 62.2 -0.45 63.05 -0.45 63.2 -0.2 64.4 0.75 67.25 0.65 70.45 0.5 71.8 0.35 72.15 0.4 72.2 0.25 72.65 0.15 73.5 0.0 73.65 Q-1.1 75.0 -2.75 75.4 -2.15 76.05 -2.25 77.1 L-2.45 80.5 Q-1.7 80.8 -1.1 81.65 0.35 83.7 0.8 86.45 1.15 88.5 0.75 90.35 L0.05 90.9 1.8 94.85 2.8 97.35 Q3.6 99.6 2.6 101.7 L2.75 102.35 Q4.2 103.65 4.95 105.8 L6.15 109.4 Q7.15 112.6 5.65 115.35 L5.2 115.4 4.2 116.8 Q1.0 119.95 -3.4 120.95 L-4.05 120.6 Q-6.9 120.35 -8.45 122.9 -9.7 125.0 -11.6 126.55 -11.9 128.1 -13.5 128.55 -24.0 131.45 -34.9 129.65 -39.3 128.9 -42.15 125.35 L-41.6 122.05 Q-42.2 120.65 -42.2 119.1 -42.15 116.7 -40.35 115.0 -36.25 111.0 -30.75 109.5 -29.95 107.9 -28.7 106.65 -26.75 104.7 -25.65 102.3 L-24.9 101.6 Q-24.05 101.2 -24.2 100.8 L-24.7 99.9 -24.35 98.3 Q-23.55 96.1 -23.35 94.55 L-25.85 93.65 -26.1 93.35 -26.55 92.55 Q-27.95 89.2 -27.0 86.3 L-26.75 86.7 -25.8 84.0 -27.5 77.65 Q-30.6 76.9 -32.25 74.25 -33.4 69.95 -32.9 65.6 L-30.7 64.2 Q-30.9 61.8 -32.2 59.7 -33.4 57.75 -33.3 55.5 -33.1 52.05 -31.25 49.25 L-28.75 48.4 Q-29.05 45.75 -27.5 43.7 L-28.25 43.2 -28.5 43.1 -28.75 42.55 -28.95 42.05 -29.15 40.05 -29.15 38.4 Q-28.95 33.95 -27.75 29.7 -26.6 25.5 -25.0 21.5 L-24.95 21.35 -23.75 18.55 -21.3 13.35 -19.75 10.3 -19.4 9.65 -18.6 8.0 -18.15 7.1 -17.55 6.2 -17.05 5.4 -14.25 1.1 -13.8 0.4 -13.35 -0.25 -13.3 -0.25 -10.45 -3.9 -9.45 -4.75 -9.3 -4.85 -5.75 -6.95 Q-3.9 -7.75 -1.95 -8.15 L-1.35 -8.05 -1.35 -8.3 -0.7 -8.4 0.25 -8.55 2.2 -8.3 M-19.85 48.7 L-18.1 49.0 -17.85 49.05 -16.75 49.25 -15.35 49.6 Q-13.2 50.3 -11.8 52.35 L-11.3 53.25 Q-10.1 56.35 -7.2 57.5 -5.85 53.95 -4.05 50.85 -6.55 50.15 -8.85 49.05 L-9.95 48.2 -13.75 48.05 -14.35 48.0 -14.75 48.0 -15.85 47.5 Q-16.75 47.05 -17.65 46.7 L-18.9 46.15 Q-20.6 45.5 -22.4 44.95 L-26.35 44.05 -26.35 44.5 -28.05 48.2 -25.4 47.9 -19.85 48.7 M-8.65 75.45 L-8.15 75.3 Q-4.05 74.25 -0.35 72.1 L-0.2 70.5 Q-0.2 67.15 -1.15 64.0 L-1.95 63.85 -2.2 63.65 Q-2.35 63.45 -2.5 63.4 L-2.65 63.25 -3.05 62.65 -3.85 60.5 -6.55 59.15 -7.5 59.3 Q-9.7 58.9 -11.1 57.0 -11.9 55.95 -12.15 54.7 L-12.4 53.45 -12.65 53.2 -15.35 50.9 -15.6 50.75 Q-16.9 49.85 -18.35 49.65 L-23.8 49.1 -27.4 49.25 -29.6 49.7 -30.05 49.8 -31.0 50.4 -31.55 52.3 -31.95 55.35 Q-32.0 56.35 -31.55 57.25 -30.35 59.65 -29.5 62.0 L-29.3 62.8 -29.3 64.4 -29.35 64.55 -29.6 65.45 -29.9 65.6 -30.35 65.7 -30.5 65.55 -30.8 65.75 -32.0 66.5 -30.9 74.6 Q-28.2 76.6 -24.95 76.7 -19.05 77.45 -13.3 76.55 L-8.65 75.45 M-3.65 75.8 L-3.6 75.7 -3.65 75.75 -6.1 76.75 -10.75 77.95 Q-17.5 79.25 -24.3 78.3 L-26.0 78.0 -25.6 79.15 -25.4 79.6 -25.4 79.65 Q-23.95 83.15 -25.55 86.35 L-26.2 87.35 -24.95 92.9 -22.55 93.95 -22.0 94.05 Q-18.7 94.8 -15.45 94.1 -11.65 93.6 -7.75 92.5 L-5.65 91.8 -0.7 89.4 -0.55 89.3 -0.2 89.05 -0.15 89.0 Q-0.95 85.95 -2.25 83.15 L-2.35 82.95 -2.6 82.4 Q-4.0 79.55 -3.65 75.8 M-0.65 92.35 L-0.85 91.4 -2.8 92.4 Q-5.75 93.8 -9.05 94.5 L-12.3 95.15 -17.8 95.35 -22.0 95.1 -23.05 99.45 -22.0 98.95 Q-19.65 98.2 -17.4 98.25 L-15.55 98.25 Q-12.6 98.35 -10.1 99.45 L-8.45 100.3 Q-3.8 102.65 1.4 101.6 L1.6 98.0 Q0.1 95.45 -0.65 92.35 M-7.3 102.0 L-8.2 101.6 Q-11.55 99.95 -15.55 99.6 L-19.35 99.75 -22.4 100.55 -23.45 101.45 -23.55 101.55 -24.6 104.0 -25.65 106.1 Q-26.8 107.8 -28.55 109.1 L-23.6 109.5 -19.35 110.05 -17.75 110.15 Q-17.6 109.6 -17.1 109.15 L-14.15 106.45 -12.85 105.65 -12.4 105.7 -11.8 105.6 -10.25 105.8 Q-8.05 106.15 -6.3 107.45 -3.5 109.4 -2.2 112.5 -2.5 113.1 -1.9 112.95 L-1.85 113.1 -2.2 113.8 -3.35 114.55 Q-5.45 115.5 -7.65 116.0 -10.05 115.7 -10.2 117.3 L-10.75 117.2 -10.8 117.2 -11.4 117.0 -11.8 116.45 Q-13.0 113.6 -15.95 112.75 L-16.2 112.75 -17.65 112.15 Q-23.45 109.85 -29.75 110.1 L-30.3 110.55 -30.8 110.5 -31.0 110.65 -32.4 111.4 -33.3 111.9 -33.45 111.95 -33.6 112.05 -36.25 113.75 -36.45 113.9 -39.15 116.15 Q-39.8 116.85 -40.1 117.75 -40.9 120.15 -40.3 122.85 L-40.8 123.1 -41.05 125.1 -40.25 125.75 -38.05 127.1 Q-35.1 128.6 -31.85 128.8 L-30.05 128.8 -20.9 128.4 -20.45 128.35 Q-16.35 127.95 -12.6 126.15 L-11.3 124.35 -8.75 121.0 -7.4 119.7 Q-5.25 118.0 -3.15 119.7 -0.75 118.55 1.45 117.15 3.5 115.75 4.65 114.35 L4.85 113.45 Q5.7 107.45 1.7 102.75 L-0.7 103.2 -4.9 102.65 -5.25 102.6 -7.3 102.0 M-14.35 112.05 Q-12.65 113.1 -11.25 114.7 -10.55 115.5 -10.25 116.25 L-6.15 114.25 -6.35 113.15 Q-6.85 110.85 -8.7 109.75 L-10.0 108.65 Q-11.35 107.7 -12.85 107.1 L-17.0 110.8 -16.95 110.8 Q-15.6 111.3 -14.35 112.05 M-12.45 6.95 L-12.4 7.0 -12.45 7.0 -12.45 6.95 M-20.2 40.55 L-20.0 40.9 -20.35 40.7 -20.2 40.55 M-29.4 114.2 L-29.35 114.3 -29.25 114.5 -29.5 114.45 Q-32.8 116.3 -33.0 119.95 L-32.95 120.3 Q-33.45 120.3 -33.55 119.7 -33.7 118.85 -33.45 118.0 L-33.0 116.8 -32.95 116.6 -32.1 115.35 -30.75 114.35 -30.0 114.1 -29.4 114.2 M-35.85 119.9 Q-36.35 119.9 -36.7 119.4 L-37.35 117.95 -37.55 116.6 Q-37.55 115.35 -36.6 114.55 L-36.45 114.55 Q-36.05 114.6 -36.0 114.95 L-36.05 114.9 -36.65 116.1 Q-37.2 117.7 -36.35 119.2 L-35.85 119.9 M-28.65 121.4 Q-29.1 121.4 -29.15 120.9 L-29.0 119.75 -28.9 119.45 Q-28.25 118.05 -26.85 117.25 L-25.45 116.55 -23.9 116.25 -23.1 116.35 Q-23.05 116.35 -22.95 116.45 -22.75 116.75 -22.9 117.05 L-22.95 116.95 -24.15 116.9 Q-26.25 117.6 -27.7 119.35 L-28.65 120.5 Q-28.85 121.05 -28.65 121.4 M-23.75 124.75 L-18.15 123.3 -15.4 122.35 -13.25 121.5 -12.75 121.75 -12.7 122.25 -12.95 122.6 -13.8 123.25 -17.65 125.0 -17.8 125.1 -18.75 125.4 -19.7 125.65 -19.75 125.7 -24.75 126.4 -30.95 126.2 Q-34.85 125.8 -38.4 123.8 L-39.05 123.25 -38.25 123.4 -35.95 124.15 -30.15 125.35 -24.15 124.8 -23.75 124.75" fill="#000000" fill-rule="evenodd" stroke="none"/>
    <path d="M-4.9 5.5 L-5.05 5.25 Q-6.45 2.45 -9.8 2.5 L-10.7 2.8 -11.3 3.1 Q-13.1 4.6 -14.45 6.65 L-15.2 8.0 -18.55 13.0 -19.35 14.45 -21.4 19.15 -22.35 21.1 -22.9 22.85 -23.5 25.2 Q-24.95 29.2 -24.85 33.5 -24.85 34.65 -24.25 35.6 -22.9 37.75 -21.0 39.15 L-20.4 39.5 -19.15 39.4 Q-20.75 39.6 -22.45 39.45 L-22.6 39.45 -22.7 39.45 -22.8 39.45 -22.95 39.4 -23.15 39.4 -23.3 39.35 Q-24.65 39.2 -25.85 38.5 L-25.85 38.65 Q-26.9 38.2 -27.9 38.0 L-28.0 37.8 -27.95 37.35 -27.85 36.65 Q-27.2 31.4 -25.65 26.35 L-25.1 24.95 -25.1 24.8 Q-24.55 24.05 -24.25 23.05 L-23.3 20.2 -21.15 14.95 -19.85 12.3 -19.75 12.1 -19.55 11.8 -18.45 9.8 -18.4 9.75 -18.4 9.7 -17.65 8.5 Q-17.15 7.7 -16.95 6.85 L-17.2 7.3 Q-15.85 4.8 -14.1 2.5 L-13.0 1.2 -12.7 0.8 -11.6 -0.6 -11.45 -0.75 -11.1 -1.45 -10.55 -2.15 -10.4 -2.35 -10.0 -2.0 -8.8 -1.3 -8.85 -1.15 -7.05 0.7 -6.6 1.65 -5.4 3.7 -5.0 5.2 -4.9 5.5 M-16.15 42.15 L-16.1 42.2 -16.3 42.25 -16.4 42.2 -16.15 42.15 M-8.7 -4.2 L-8.8 -4.35 -8.65 -4.25 -8.7 -4.2 M-29.6 49.7 L-27.4 49.25 Q-26.3 49.5 -26.2 50.9 -26.0 52.85 -27.0 54.55 L-28.25 55.9 Q-29.6 56.9 -30.8 55.7 -31.9 54.55 -31.4 52.95 -30.8 51.1 -29.6 49.7 M-29.3 66.8 L-22.65 67.15 Q-14.45 67.05 -6.7 64.9 L-6.35 65.05 -6.3 65.1 -5.65 65.35 -5.55 65.8 -5.8 66.35 -6.1 66.45 -6.5 66.6 -9.4 67.4 -10.7 67.7 Q-17.2 69.05 -23.9 69.0 L-27.95 68.0 -28.1 67.9 -28.65 67.75 -28.95 67.55 Q-29.65 67.35 -30.05 66.9 L-29.85 66.75 -29.3 66.8 M-16.45 87.5 L-14.3 87.15 -11.0 86.15 -7.7 85.1 Q-6.75 84.8 -5.95 84.1 L-5.35 84.1 -5.0 84.3 -4.75 84.55 -4.95 85.45 -7.85 86.65 -9.5 87.2 Q-12.65 88.35 -15.95 88.55 L-20.65 88.6 Q-22.0 88.3 -23.4 87.4 L-23.8 87.2 -23.55 87.2 -19.45 87.45 -17.15 87.55 -17.1 87.55 -16.45 87.5 M-36.45 113.9 L-36.25 113.75 -33.6 112.05 -33.45 111.95 -33.3 111.9 -32.4 111.4 -31.0 110.65 -30.5 110.55 -28.7 110.8 -28.35 111.05 Q-27.4 112.55 -28.9 113.75 L-29.4 114.2 -30.0 114.1 -30.75 114.35 -32.1 115.35 -32.95 116.6 -33.0 116.8 -35.05 117.75 -35.2 116.95 -34.65 119.45 -34.65 120.05 -35.2 120.25 -35.65 120.1 -35.85 119.9 -36.35 119.2 Q-37.2 117.7 -36.65 116.1 L-36.05 114.9 -36.0 114.95 Q-36.05 114.6 -36.45 114.55 L-36.6 114.55 Q-37.55 115.35 -37.55 116.6 L-37.35 117.95 -37.6 117.5 -37.7 116.4 Q-37.5 115.0 -36.45 113.9 M-25.65 106.1 L-24.6 104.0 -23.55 101.55 -23.45 101.45 -22.4 100.55 -19.35 99.75 -19.45 100.7 -19.95 101.75 -23.55 106.3 Q-24.95 106.8 -25.65 106.1 M-29.25 114.5 L-28.9 114.5 -28.35 115.4 Q-28.55 116.15 -28.95 116.4 L-29.7 117.15 -32.05 120.9 -32.95 120.45 -32.95 120.3 -33.0 119.95 Q-32.8 116.3 -29.5 114.45 L-29.25 114.5 M-22.9 117.05 L-22.65 117.6 -23.0 118.1 -24.6 119.05 Q-26.4 120.1 -28.05 121.65 L-28.35 121.7 -28.6 121.5 -28.65 121.4 Q-28.85 121.05 -28.65 120.5 L-27.7 119.35 Q-26.25 117.6 -24.15 116.9 L-22.95 116.95 -22.9 117.05" fill="#666666" fill-rule="evenodd" stroke="none"/>
    <path d="M-7.65 -4.75 L-7.55 -4.7 Q-6.15 -4.15 -5.15 -2.75 -2.55 0.85 -1.45 5.15 L-1.15 6.95 Q-0.9 9.8 -2.65 12.05 L-2.7 12.05 -2.85 12.1 -3.1 12.0 -3.2 11.9 -3.2 11.8 -3.2 11.7 -3.15 11.45 -3.25 11.1 Q-3.2 10.3 -3.3 9.45 L-3.4 8.9 -4.5 6.8 -4.9 5.5 -5.0 5.2 -5.4 3.7 -6.6 1.65 -7.05 0.7 -8.85 -1.15 -8.8 -1.3 -10.0 -2.0 -10.4 -2.35 -10.35 -2.4 -10.1 -2.7 -9.35 -3.55 -8.7 -4.2 -8.65 -4.25 -8.55 -4.15 -7.9 -4.6 -7.65 -4.75 M-19.15 39.4 L-17.95 39.15 -17.6 39.05 -17.15 38.95 -16.4 38.7 Q-15.15 38.2 -14.0 37.5 L-11.9 35.8 -10.45 34.15 -9.2 33.15 -9.15 33.15 -9.05 33.1 -8.65 33.1 -8.55 33.25 -8.4 33.45 -8.4 33.6 -8.5 33.95 Q-8.35 37.1 -10.85 39.3 -12.4 40.65 -14.2 41.45 L-16.15 42.15 -16.4 42.2 -16.3 42.25 -15.95 42.3 -14.8 42.25 -14.2 42.1 -14.75 42.25 Q-13.55 43.05 -12.05 42.7 L-11.05 42.35 Q-6.9 40.25 -5.0 36.1 L-3.15 32.3 Q-1.9 29.8 -1.1 27.2 L1.45 18.65 Q2.65 14.35 2.9 9.9 3.1 6.6 2.65 3.3 2.35 1.0 1.2 -0.95 0.15 -2.75 -1.35 -4.15 -2.6 -5.8 -4.55 -6.55 L-5.35 -6.2 -3.85 -6.8 -2.3 -7.0 Q-1.15 -7.1 -0.05 -6.5 L0.15 -6.4 Q2.2 -5.15 3.55 -3.2 4.9 -1.25 5.65 1.05 L6.85 5.3 Q7.35 7.2 7.45 9.2 L7.5 9.85 7.5 10.6 7.45 12.8 7.45 15.75 7.15 18.05 6.8 19.9 6.5 21.05 6.1 21.65 5.55 23.3 4.2 26.7 2.2 30.95 2.2 30.9 1.15 33.1 -0.85 37.8 -2.6 41.05 -3.25 41.85 -3.55 42.3 -4.2 43.15 -5.25 44.3 -5.45 44.5 -5.75 44.85 -6.15 45.05 Q-8.2 46.5 -10.85 46.85 L-13.85 46.3 -21.1 44.05 -21.4 43.95 -23.25 43.5 -23.7 43.4 Q-26.3 43.4 -28.2 41.9 L-28.35 41.7 -28.2 39.9 -28.2 39.85 -28.15 39.35 -28.1 38.7 -28.0 37.95 -27.9 38.0 Q-26.9 38.2 -25.85 38.65 L-25.85 38.5 Q-24.65 39.2 -23.3 39.35 L-23.15 39.4 -22.95 39.4 -22.8 39.45 -22.7 39.45 -22.6 39.45 -22.45 39.45 Q-20.75 39.6 -19.15 39.4 M-3.75 -1.45 L-3.85 -1.35 -3.8 -1.45 -3.75 -1.45 M4.0 11.35 L3.4 10.6 3.35 10.65 3.5 10.8 4.0 11.4 4.0 11.35 M-15.6 50.75 L-15.35 50.9 -12.65 53.2 -12.4 53.45 -12.15 54.7 Q-11.9 55.95 -11.1 57.0 -9.7 58.9 -7.5 59.3 L-6.55 59.15 -3.85 60.5 -3.05 62.65 -2.65 63.25 -2.5 63.4 Q-2.35 63.45 -2.2 63.65 L-1.95 63.85 -1.15 64.0 Q-0.2 67.15 -0.2 70.5 L-0.35 72.1 Q-4.05 74.25 -8.15 75.3 L-8.65 75.45 -9.25 73.7 Q-9.55 71.55 -10.0 69.45 L-10.05 67.55 -9.4 67.4 -6.5 66.6 -6.1 66.45 -5.8 66.35 -5.55 65.8 -5.65 65.35 -6.3 65.1 -6.35 65.05 -6.7 64.9 Q-14.45 67.05 -22.65 67.15 L-29.3 66.8 -29.75 66.75 -30.8 65.75 -30.5 65.55 -30.35 65.7 -29.9 65.6 -29.6 65.45 -29.35 64.55 -29.3 64.4 -29.3 62.8 -29.4 62.3 Q-28.55 62.4 -27.7 63.05 L-27.35 63.2 Q-26.3 63.5 -25.5 64.1 L-15.7 62.95 -16.7 63.1 -16.95 62.45 Q-18.55 57.65 -16.5 53.15 L-15.7 51.05 -15.6 50.75 M-3.65 75.8 Q-4.0 79.55 -2.6 82.4 L-2.35 82.95 -2.25 83.15 Q-0.95 85.95 -0.15 89.0 L-0.2 89.05 -0.55 89.3 -0.7 89.4 -5.65 91.8 -6.2 92.0 Q-7.0 90.6 -7.35 89.05 L-7.85 86.65 -4.95 85.45 -4.75 84.55 -5.0 84.3 -5.35 84.1 -5.95 84.1 Q-6.75 84.8 -7.7 85.1 L-11.0 86.15 -14.3 87.15 -16.45 87.5 -16.6 87.4 -17.1 87.55 -17.15 87.55 -19.45 87.45 -23.55 87.2 -24.85 86.7 -25.55 86.35 Q-23.95 83.15 -25.4 79.65 L-25.4 79.6 -25.6 79.15 -26.0 78.0 -24.3 78.3 Q-17.5 79.25 -10.75 77.95 L-6.1 76.75 -3.65 75.75 -3.65 75.8 M-0.65 92.35 Q0.1 95.45 1.6 98.0 L1.4 101.6 Q-3.8 102.65 -8.45 100.3 L-10.1 99.45 Q-12.6 98.35 -15.55 98.25 L-17.4 98.25 Q-19.65 98.2 -22.0 98.95 L-23.05 99.45 -22.0 95.1 -17.8 95.35 -12.3 95.15 -9.05 94.5 Q-5.75 93.8 -2.8 92.4 L-0.85 91.4 -0.65 92.35 M-7.3 102.0 L-5.25 102.6 -4.9 102.65 -0.7 103.2 1.7 102.75 Q5.7 107.45 4.85 113.45 L4.65 114.35 Q3.5 115.75 1.45 117.15 -0.75 118.55 -3.15 119.7 -5.25 118.0 -7.4 119.7 L-8.75 121.0 -11.3 124.35 -12.6 126.15 Q-16.35 127.95 -20.45 128.35 L-20.9 128.4 Q-21.1 127.0 -19.75 125.7 L-19.7 125.65 -18.75 125.4 -17.8 125.1 -17.65 125.0 -13.8 123.25 -12.95 122.6 -12.7 122.25 -12.75 121.75 -13.25 121.5 -15.4 122.35 -18.15 123.3 -23.75 124.75 -24.1 124.1 Q-24.45 123.4 -24.2 122.6 -23.25 119.4 -21.4 116.55 -19.8 114.05 -17.65 112.15 L-16.2 112.75 -15.95 112.75 Q-13.0 113.6 -11.8 116.45 L-11.4 117.0 -10.8 117.2 -10.75 117.2 -10.2 117.3 Q-10.05 115.7 -7.65 116.0 -5.45 115.5 -3.35 114.55 L-2.2 113.8 -1.85 113.1 -1.9 112.95 Q-2.5 113.1 -2.2 112.5 -3.5 109.4 -6.3 107.45 -8.05 106.15 -10.25 105.8 L-11.8 105.6 -12.35 105.7 -7.95 101.75 -7.3 102.0 M-20.2 40.55 L-20.35 40.7 -20.0 40.9 -20.2 40.55" fill="#333333" fill-rule="evenodd" stroke="none"/>
    <path d="M-0.7 47.0 Q-2.5 45.95 -4.65 45.8 -3.0 44.4 -1.85 42.5 L-0.85 40.85 -0.8 40.85 -0.7 40.4 -0.65 40.3 -0.25 39.8 1.45 36.65 1.6 36.4 1.8 36.1 2.65 34.65 2.8 34.4 2.75 34.2 6.1 26.9 Q7.25 24.25 7.9 21.45 L7.7 22.3 8.15 21.4 Q8.65 19.45 8.75 17.4 L8.8 17.3 9.1 14.2 9.1 14.15 9.35 11.45 9.4 10.35 9.35 8.65 9.5 9.5 9.2 8.0 9.05 7.55 9.05 6.75 Q9.0 3.0 7.35 -0.35 5.7 -3.75 2.7 -6.0 L1.2 -7.05 Q0.45 -7.5 -0.3 -7.75 L-0.6 -7.85 1.15 -8.2 2.2 -8.3 4.15 -7.95 7.15 -7.3 Q10.8 -6.45 13.7 -4.1 15.95 -2.25 17.55 0.15 L17.2 -0.35 17.75 0.9 Q18.5 3.0 18.65 5.2 L18.75 9.7 18.65 12.1 18.65 12.6 Q18.3 14.8 18.1 17.0 18.05 17.65 17.7 17.7 L17.4 19.0 16.7 21.7 15.2 26.0 13.55 30.15 12.15 34.25 12.0 34.9 Q10.55 38.45 9.35 42.1 7.55 47.45 6.05 53.05 L5.8 52.75 4.0 50.7 4.1 50.3 Q5.6 44.6 7.5 38.9 9.65 32.6 12.5 26.65 13.6 24.4 14.9 22.3 L14.2 22.0 13.2 23.4 Q8.25 30.65 4.0 38.3 L3.5 39.2 -0.7 47.0 M-1.35 -8.3 L-1.35 -8.05 -1.95 -8.15 -1.35 -8.3" fill="#2f2e1c" fill-rule="evenodd" stroke="none"/>
    <path d="M-13.75 48.05 L-9.95 48.2 -8.85 49.05 Q-6.55 50.15 -4.05 50.85 -5.85 53.95 -7.2 57.5 -10.1 56.35 -11.3 53.25 L-11.8 52.35 Q-13.2 50.3 -15.35 49.6 L-16.75 49.25 -17.85 49.05 -18.1 49.0 -19.85 48.7 -18.9 46.15 -17.65 46.7 Q-16.75 47.05 -15.85 47.5 L-14.75 48.0 -14.35 48.0 -14.35 48.05 -13.75 48.05 M-10.0 108.65 L-8.7 109.75 Q-6.85 110.85 -6.35 113.15 L-6.15 114.25 -10.25 116.25 Q-10.55 115.5 -11.25 114.7 -12.65 113.1 -14.35 112.05 L-14.25 111.95 Q-12.6 110.45 -10.85 109.4 L-10.0 108.65 M-12.45 7.0 L-12.5 7.1 -12.45 6.95 -12.45 7.0" fill="#330000" fill-rule="evenodd" stroke="none"/>
    <path d="M-19.55 11.8 L-18.2 9.25 -18.4 9.7 -18.4 9.75 -18.45 9.8 -19.55 11.8 M-19.85 48.7 L-25.4 47.9 -28.05 48.2 -26.35 44.5 -26.35 44.05 -22.4 44.95 Q-20.6 45.5 -18.9 46.15 L-19.85 48.7 M-14.35 112.05 Q-15.6 111.3 -16.95 110.8 L-17.0 110.8 -12.85 107.1 Q-11.35 107.7 -10.0 108.65 L-10.85 109.4 Q-12.6 110.45 -14.25 111.95 L-14.35 112.05" fill="#5a361f" fill-rule="evenodd" stroke="none"/>
    <path d="M-14.35 48.0 L-13.75 48.05 -14.35 48.05 -14.35 48.0" fill="#333300" fill-rule="evenodd" stroke="none"/>
    <path d="M4.0 50.7 Q2.0 48.7 -0.4 47.2 L-0.7 47.0 3.5 39.2 4.0 38.3 Q8.25 30.65 13.2 23.4 L14.2 22.0 14.9 22.3 Q13.6 24.4 12.5 26.65 9.65 32.6 7.5 38.9 5.6 44.6 4.1 50.3 L4.0 50.7" fill="#424128" fill-rule="evenodd" stroke="none"/>
  </g>
</svg>
