<?xml version="1.0" encoding="UTF-8" standalone="no"?>
<svg xmlns:xlink="http://www.w3.org/1999/xlink" height="103.1px" width="52.4px" xmlns="http://www.w3.org/2000/svg">
  <g transform="matrix(1.0, 0.0, 0.0, 1.0, 10.35, 15.6)">
    <path d="M6.75 -13.3 L10.8 -9.75 12.2 -7.95 13.75 -6.25 15.7 -4.0 15.6 -3.95 Q15.2 -2.5 16.55 -1.4 L17.65 -0.4 18.3 0.0 Q20.1 3.35 21.0 7.25 L21.15 7.8 Q21.2 11.25 20.55 14.7 19.95 17.85 16.9 16.95 L16.75 16.95 16.75 16.8 16.9 16.65 17.3 15.85 17.2 15.65 16.35 14.2 16.15 13.3 15.2 12.25 12.1 7.2 8.65 0.15 8.55 -0.1 7.4 -1.0 7.15 -1.25 7.0 -1.15 6.5 -0.9 Q6.45 3.55 8.8 7.6 L8.7 7.7 Q6.7 4.4 5.2 0.8 3.75 -2.65 3.0 -6.3 L3.1 -6.95 3.1 -7.15 2.8 -7.55 2.6 -7.75 1.95 -7.8 1.45 -7.35 Q1.2 -7.0 1.25 -6.6 -0.1 -4.65 -0.1 -2.05 -0.1 0.25 0.75 2.4 L2.2 6.05 Q3.8 9.95 6.6 13.15 L6.7 13.55 7.7 14.8 7.85 15.15 12.55 20.3 14.8 23.05 15.3 25.05 15.35 25.65 15.65 26.25 16.1 28.1 Q15.85 28.65 15.35 28.5 L15.05 30.25 13.95 31.35 13.7 31.0 13.4 30.2 12.6 29.6 11.95 28.85 8.45 21.15 8.25 20.9 Q7.6 19.45 6.3 18.75 L6.0 18.8 5.75 18.95 Q6.1 23.4 7.2 28.0 7.5 29.25 8.1 30.15 L7.3 29.6 7.25 29.4 5.15 22.35 Q3.85 19.35 2.1 16.6 L2.0 16.25 1.45 15.5 1.3 15.35 0.3 14.0 0.25 14.1 0.55 14.65 0.5 14.65 -3.7 9.85 -4.8 8.45 Q-7.25 5.5 -8.5 1.85 L-9.2 -0.75 -9.2 -1.0 Q-9.05 -6.4 -5.1 -10.75 -1.7 -13.9 2.5 -14.2 L6.55 -13.45 6.75 -13.3 M9.35 35.8 Q10.65 36.85 12.9 37.0 L13.35 37.0 14.25 37.3 Q13.8 40.25 13.85 43.35 12.25 46.55 9.6 49.2 L9.45 49.3 Q8.9 49.8 8.65 50.45 7.35 53.3 10.45 53.5 L10.75 53.3 Q13.35 51.25 15.9 49.65 L16.95 48.7 Q17.8 47.9 18.25 46.8 L18.45 46.95 18.65 47.15 18.75 48.15 18.95 49.2 Q18.55 50.75 17.7 52.1 L13.65 57.85 Q12.4 59.3 12.2 61.35 12.05 63.15 13.65 64.0 L15.8 65.1 17.1 65.7 18.35 66.3 18.3 66.4 18.4 66.7 19.35 67.85 19.95 68.75 Q20.6 69.8 21.7 70.3 23.05 70.9 24.55 70.8 L25.4 70.7 25.7 70.65 29.4 72.75 29.3 72.85 28.55 72.85 Q26.45 72.15 24.25 72.1 L21.4 71.3 19.15 71.8 18.8 71.9 18.4 71.6 18.9 71.4 19.3 71.1 18.95 71.05 19.75 71.15 19.95 71.15 19.45 70.75 Q19.55 70.3 18.8 69.75 18.05 69.25 17.3 68.9 L16.6 68.2 14.6 66.6 14.55 66.55 Q13.5 65.7 12.25 65.25 L11.75 65.35 11.55 65.55 11.45 65.75 12.65 67.5 12.6 68.0 13.1 69.35 Q14.25 71.1 15.8 72.55 16.7 73.45 17.75 73.65 L17.75 73.7 17.8 74.15 17.55 74.3 17.85 74.6 18.25 74.9 Q18.8 75.35 19.9 75.45 L20.8 75.95 Q20.45 76.0 20.25 76.35 20.0 76.65 20.05 76.95 L20.35 77.4 20.45 77.3 21.1 76.7 21.3 76.3 21.3 76.2 21.35 76.05 22.8 76.1 23.55 76.3 23.8 76.4 Q23.1 76.45 22.25 77.05 L21.35 77.7 20.65 78.2 20.7 78.7 Q22.25 77.8 23.9 77.2 L24.3 77.05 24.35 77.0 24.35 77.1 24.35 77.25 24.45 77.7 24.7 78.4 25.0 78.85 25.05 78.9 24.55 78.75 Q23.95 78.95 23.75 79.65 23.5 80.6 24.2 81.3 L24.1 81.5 21.6 80.15 Q21.1 79.9 20.5 79.8 L13.85 78.5 Q13.15 76.8 11.85 75.5 10.0 73.85 7.95 72.3 7.0 71.6 5.85 71.2 L3.4 70.4 Q0.5 69.35 -2.45 69.0 L-2.45 69.05 -2.3 69.55 -2.45 68.25 -1.5 66.55 0.0 66.25 0.1 66.15 Q0.8 65.3 0.3 64.8 L0.6 64.8 1.0 64.15 Q1.6 65.05 3.1 65.4 L3.15 65.5 3.5 66.2 4.2 66.8 Q5.45 67.6 6.5 67.5 L6.55 67.45 6.7 67.55 6.7 67.6 7.0 67.75 8.6 69.35 8.65 69.4 8.9 69.8 9.05 70.05 Q9.8 71.05 10.95 71.05 12.3 72.5 13.9 73.35 13.85 73.0 14.15 72.95 L11.35 69.55 Q9.85 68.0 8.2 67.15 L7.85 66.95 7.7 66.9 8.35 66.15 Q9.1 65.75 9.5 64.95 10.5 62.9 9.25 61.8 8.85 61.4 8.25 61.15 L7.55 61.25 7.0 61.55 6.7 61.6 6.6 61.65 6.5 61.45 6.15 61.15 6.0 61.1 5.65 61.05 Q5.85 60.15 6.45 59.35 L7.4 57.7 7.25 57.4 7.2 57.4 Q6.15 57.9 5.25 58.8 4.35 59.75 4.4 60.95 5.25 61.65 6.25 61.7 4.6 62.25 3.55 63.75 L3.55 63.8 3.45 63.95 3.25 63.85 Q3.75 62.9 3.2 61.95 L3.65 61.4 Q3.85 60.7 3.45 60.25 L3.8 59.7 4.85 58.05 Q6.4 55.5 7.0 52.85 L6.95 52.75 6.55 52.5 6.3 52.55 6.2 52.3 Q6.3 48.5 5.3 45.2 4.9 42.1 5.1 38.8 5.25 35.65 7.85 33.6 L8.55 35.0 8.35 35.2 Q7.5 36.25 7.75 37.45 L9.35 35.8 M34.2 71.6 Q33.65 71.55 33.1 71.95 32.35 72.4 31.8 73.1 30.0 72.55 28.55 71.4 L29.25 71.3 29.95 71.5 Q30.25 70.2 31.15 69.15 31.75 69.2 32.2 69.65 L32.3 69.55 33.1 70.2 33.75 71.0 33.2 71.15 34.0 71.25 34.1 71.35 34.2 71.6 M6.85 -10.45 Q7.3 -9.95 8.0 -9.75 8.65 -9.55 8.8 -10.15 L8.75 -10.45 Q8.25 -11.15 7.35 -11.1 6.85 -11.1 6.8 -10.55 L6.85 -10.45 M10.05 -3.5 L10.2 -3.3 Q10.65 -2.8 11.2 -2.95 L11.25 -2.95 11.7 -2.95 Q11.85 -3.65 11.2 -4.15 L10.55 -4.65 10.45 -4.45 10.35 -4.4 10.3 -4.4 9.85 -4.35 10.0 -3.9 10.05 -3.5 M16.95 3.5 L16.95 3.55 16.9 3.4 16.7 3.7 Q16.95 5.0 18.3 5.65 L19.1 5.75 Q19.55 5.7 19.55 5.15 L18.85 4.15 18.15 3.65 17.3 3.2 17.0 3.3 16.95 3.5 M9.0 40.95 L8.15 40.9 8.15 40.95 7.9 41.05 Q7.35 41.8 7.05 42.7 L6.45 45.1 Q6.0 48.25 8.85 49.0 L9.4 48.95 9.65 48.5 Q10.05 46.55 9.9 44.45 9.8 42.5 9.0 40.95 M24.3 34.3 L24.2 34.1 Q23.75 33.65 23.05 33.7 L22.65 33.8 22.5 33.8 21.85 34.3 Q20.5 35.4 21.0 37.05 L21.25 37.25 21.95 37.25 22.15 37.2 22.65 36.8 Q24.0 35.8 24.3 34.3 M21.4 33.0 L21.6 33.05 24.6 32.6 26.2 32.2 25.6 32.35 25.95 33.6 25.55 36.3 Q25.3 37.9 23.9 38.8 21.95 40.05 21.4 41.6 L21.35 41.55 Q20.55 40.75 20.55 39.7 20.5 38.6 19.95 37.75 20.15 35.6 21.25 33.9 L21.2 33.85 21.4 33.0 M31.7 70.25 L31.55 70.3 31.5 70.45 31.95 69.95 31.7 70.25 M21.15 77.4 L21.15 77.45 21.2 77.4 21.15 77.4" fill="#67820b" fill-rule="evenodd" stroke="none"/>
    <path d="M7.55 30.2 L8.4 31.95 Q9.55 33.9 11.6 35.4 11.15 35.75 10.85 35.4 L10.15 34.9 9.35 35.8 7.75 37.45 Q7.5 36.25 8.35 35.2 L8.55 35.0 9.35 34.3 8.15 33.35 7.85 33.6 Q5.25 35.65 5.1 38.8 4.9 42.1 5.3 45.2 6.3 48.5 6.2 52.3 L6.0 52.7 5.8 53.05 4.15 56.15 3.9 56.65 2.35 59.05 0.9 60.55 Q0.25 61.9 0.05 63.45 L0.0 64.05 -0.1 64.25 -0.25 64.5 -1.5 66.55 -2.45 68.25 -2.3 69.55 -2.0 70.0 -1.85 70.15 -1.8 70.2 -0.2 71.6 Q3.0 73.3 6.6 74.1 9.15 75.5 11.1 77.7 12.35 80.0 14.75 81.15 L16.5 81.15 Q16.2 80.4 16.2 79.75 16.9 79.75 17.3 80.45 17.7 81.1 18.45 80.65 L20.95 82.5 Q22.15 83.5 23.85 83.4 L26.6 85.75 Q27.0 84.3 26.5 83.1 L26.3 82.6 Q25.95 81.6 25.9 80.55 L25.05 78.9 25.0 78.85 24.7 78.4 25.1 78.4 25.25 78.35 25.75 77.5 25.9 78.05 Q28.0 76.15 30.8 75.6 L31.75 75.45 31.35 74.95 Q32.05 75.95 33.25 76.15 L33.6 76.2 Q34.55 76.4 35.35 77.1 L35.75 77.5 39.85 78.3 Q39.9 77.35 39.4 76.8 L38.5 75.45 36.95 73.1 Q36.15 72.05 34.65 71.7 L34.2 71.6 34.1 71.35 34.0 71.25 33.2 71.15 33.75 71.0 33.1 70.2 32.3 69.55 Q31.8 69.2 31.25 69.0 L28.85 68.7 28.7 68.9 Q25.95 67.75 23.45 65.8 L18.45 62.1 Q17.8 61.3 16.8 60.6 17.15 58.5 18.45 56.9 L20.85 53.55 22.5 51.2 26.7 44.55 27.35 43.4 27.65 42.9 27.7 42.75 27.4 42.75 27.0 43.1 24.75 45.6 23.1 46.8 Q23.1 46.1 23.5 45.45 L24.15 44.15 Q25.7 41.8 28.2 40.9 29.35 39.05 29.8 36.85 30.15 34.65 29.05 32.65 L28.9 31.9 29.0 31.15 Q29.3 31.15 29.4 31.5 L29.65 31.85 29.75 31.95 29.8 31.85 Q31.1 27.25 30.7 22.55 30.3 17.8 28.85 13.2 L28.1 11.6 Q28.35 17.0 26.8 22.15 L26.4 22.25 26.25 21.95 Q27.25 18.5 27.0 15.0 L26.6 8.3 Q23.65 -2.3 14.95 -9.35 11.25 -12.2 6.8 -13.4 L6.55 -13.45 2.5 -14.2 Q-1.7 -13.9 -5.1 -10.75 -9.05 -6.4 -9.2 -1.0 L-9.2 -0.75 Q-9.3 4.5 -6.85 9.5 -4.85 12.8 -2.05 15.55 0.55 18.1 2.7 21.1 L2.95 21.45 2.85 20.95 2.75 20.55 2.65 20.2 2.6 20.0 Q2.05 17.9 1.15 15.95 L0.55 14.65 0.25 14.1 0.3 14.0 1.3 15.35 2.1 16.6 Q3.85 19.35 5.15 22.35 L7.25 29.4 7.55 30.2 M17.8 74.15 L17.95 74.1 17.85 74.6 17.55 74.3 17.8 74.15 M4.15 -15.45 Q12.05 -14.55 17.8 -8.8 23.55 -3.1 26.7 3.7 27.45 6.25 28.85 8.65 30.25 11.0 30.75 13.75 31.6 18.4 32.05 23.7 32.45 28.9 31.15 33.75 31.75 38.25 29.3 41.8 28.15 45.75 25.7 49.2 L20.85 56.0 Q19.2 57.9 18.1 60.05 19.1 61.75 21.05 62.7 23.55 64.05 25.9 66.15 28.2 68.3 31.25 67.5 33.75 68.8 35.75 71.25 37.05 71.6 38.15 72.5 38.95 74.3 40.3 75.95 41.6 77.6 42.05 79.6 L41.45 80.0 Q39.2 79.1 36.75 78.8 34.25 78.5 32.25 77.1 30.7 76.5 29.25 77.1 27.8 77.7 26.65 78.6 27.6 81.15 27.7 83.9 27.95 85.7 27.5 87.45 26.75 87.7 26.35 87.05 25.05 84.7 22.5 84.5 19.9 84.25 18.2 82.45 13.7 83.05 10.8 79.6 10.15 78.05 8.85 76.85 6.6 75.0 3.7 74.4 0.8 73.8 -1.55 72.2 L-2.85 70.5 Q-3.6 69.6 -3.8 68.55 -3.5 66.85 -2.3 65.55 -1.3 64.0 -0.95 62.1 -0.65 60.2 0.4 58.7 2.65 57.7 3.6 55.65 4.5 53.55 5.55 51.6 L4.05 43.75 Q3.75 40.5 4.15 37.45 4.5 34.35 6.25 31.9 6.75 30.55 6.15 29.3 5.55 28.0 5.25 26.7 3.05 22.75 0.15 19.55 L-5.75 12.95 Q-9.55 8.3 -10.2 2.3 -10.9 -3.7 -8.35 -9.15 -6.3 -12.45 -3.0 -14.25 0.25 -16.05 4.15 -15.45 M20.85 28.85 Q21.1 26.85 20.4 24.85 21.2 25.6 21.65 26.6 22.0 27.5 22.0 28.7 L22.0 28.8 21.6 31.05 20.8 32.25 Q20.45 32.5 20.05 32.7 L18.9 32.55 Q19.05 31.9 19.55 31.6 L20.35 30.85 20.4 30.75 20.7 29.8 20.9 28.85 20.9 28.8 20.85 28.85 M6.0 61.1 L6.15 61.15 6.05 61.15 6.0 61.1 M10.3 50.05 L11.3 49.05 Q13.75 46.35 14.55 42.95 14.7 45.65 13.5 47.9 12.3 50.05 10.3 51.8 L9.8 51.2 Q9.75 50.45 10.3 50.05 M31.7 70.25 L31.95 69.95 31.5 70.45 31.55 70.3 31.7 70.25 M6.45 67.45 L6.25 67.35 6.35 67.35 6.45 67.45 M21.15 77.4 L21.2 77.4 21.15 77.45 21.15 77.4" fill="#000000" fill-rule="evenodd" stroke="none"/>
    <path d="M6.75 -13.3 L6.8 -13.4 Q11.25 -12.2 14.95 -9.35 23.65 -2.3 26.6 8.3 L27.0 15.0 Q27.25 18.5 26.25 21.95 L26.4 22.25 26.8 22.15 Q28.35 17.0 28.1 11.6 L28.85 13.2 Q30.3 17.8 30.7 22.55 31.1 27.25 29.8 31.85 L29.65 31.85 29.4 31.5 Q29.3 31.15 29.0 31.15 L28.9 31.9 29.05 32.65 Q30.15 34.65 29.8 36.85 29.35 39.05 28.2 40.9 25.7 41.8 24.15 44.15 L23.5 45.45 Q23.1 46.1 23.1 46.8 L24.75 45.6 27.0 43.1 27.05 43.1 27.35 43.4 26.7 44.55 22.5 51.2 20.85 53.55 18.45 56.9 Q17.15 58.5 16.8 60.6 17.8 61.3 18.45 62.1 L23.45 65.8 Q25.95 67.75 28.7 68.9 L28.85 68.7 31.25 69.0 31.15 69.15 Q30.25 70.2 29.95 71.5 L29.25 71.3 28.55 71.4 Q30.0 72.55 31.8 73.1 32.35 72.4 33.1 71.95 33.65 71.55 34.2 71.6 L34.65 71.7 Q36.15 72.05 36.95 73.1 L38.5 75.45 39.4 76.8 Q39.9 77.35 39.85 78.3 L35.75 77.5 35.35 77.1 Q34.55 76.4 33.6 76.2 L33.25 76.15 Q32.05 75.95 31.35 74.95 L31.05 74.35 27.8 73.4 27.35 73.35 26.1 73.45 23.0 73.05 22.8 73.05 22.55 73.05 22.45 73.05 21.15 73.6 20.7 74.0 20.55 74.2 20.35 74.45 18.95 74.05 17.95 74.1 17.8 74.15 17.75 73.7 17.75 73.65 Q16.7 73.45 15.8 72.55 14.25 71.1 13.1 69.35 L12.6 68.0 12.65 67.5 12.85 67.7 13.7 68.65 Q15.5 70.6 17.95 71.5 L18.4 71.6 18.8 71.9 19.15 71.8 21.4 71.3 24.25 72.1 Q26.45 72.15 28.55 72.85 L29.3 72.85 29.55 72.8 29.4 72.75 25.7 70.65 25.4 70.7 25.35 70.45 25.35 70.35 25.4 70.15 25.4 70.05 25.4 69.95 25.3 69.85 25.15 69.7 25.0 69.6 24.4 69.0 23.9 68.5 23.85 68.25 23.9 68.3 23.9 68.25 23.7 67.9 23.65 67.9 23.05 67.2 Q20.2 65.0 16.7 64.2 L16.35 64.35 Q15.8 64.75 15.8 65.1 L13.65 64.0 Q12.05 63.15 12.2 61.35 12.4 59.3 13.65 57.85 L17.7 52.1 Q18.55 50.75 18.95 49.2 L18.75 48.15 18.65 47.15 18.45 46.95 18.25 46.8 Q17.8 47.9 16.95 48.7 L15.9 49.65 Q13.35 51.25 10.75 53.3 L10.45 53.5 Q7.35 53.3 8.65 50.45 8.9 49.8 9.45 49.3 L9.6 49.2 Q12.25 46.55 13.85 43.35 13.8 40.25 14.25 37.3 L13.35 37.0 12.9 37.0 Q10.65 36.85 9.35 35.8 L10.15 34.9 10.85 35.4 Q11.15 35.75 11.6 35.4 9.55 33.9 8.4 31.95 L7.55 30.2 7.3 29.6 8.1 30.15 Q9.6 32.4 13.05 31.95 L13.35 32.0 13.4 31.95 13.95 31.35 15.05 30.25 15.35 28.5 Q15.85 28.65 16.1 28.1 L15.65 26.25 15.35 25.65 15.3 25.05 14.8 23.05 12.55 20.3 7.85 15.15 7.7 14.8 6.7 13.55 6.6 13.15 Q3.8 9.95 2.2 6.05 L0.75 2.4 Q-0.1 0.25 -0.1 -2.05 -0.1 -4.65 1.25 -6.6 1.2 -7.0 1.45 -7.35 L1.95 -7.8 2.6 -7.75 2.8 -7.55 3.1 -7.15 3.1 -6.95 3.0 -6.3 Q3.75 -2.65 5.2 0.8 6.7 4.4 8.7 7.7 L11.2 11.4 12.45 13.0 13.75 14.55 14.8 15.65 15.65 16.5 15.85 16.7 16.65 16.9 16.75 16.95 16.9 16.95 Q19.95 17.85 20.55 14.7 21.2 11.25 21.15 7.8 L21.0 7.25 Q20.1 3.35 18.3 0.0 L18.95 0.0 Q19.45 -0.75 19.05 -1.6 L17.5 -3.2 Q16.7 -3.9 15.75 -3.95 L15.7 -4.0 13.75 -6.25 12.2 -7.95 10.8 -9.75 6.75 -13.3 M-9.2 -0.75 L-8.5 1.85 Q-7.25 5.5 -4.8 8.45 L-3.7 9.85 0.5 14.65 1.15 15.95 Q2.05 17.9 2.6 20.0 L2.65 20.2 2.75 20.55 2.85 20.95 2.7 21.1 Q0.55 18.1 -2.05 15.55 -4.85 12.8 -6.85 9.5 -9.3 4.5 -9.2 -0.75 M26.05 22.25 L26.0 22.3 26.05 22.25 M18.8 36.7 L18.75 36.6 18.7 36.65 18.8 36.7 M20.9 28.85 L20.7 29.8 20.4 30.75 20.35 30.85 19.55 31.6 Q19.05 31.9 18.9 32.55 L20.05 32.7 Q20.45 32.5 20.8 32.25 L21.6 31.05 22.0 28.8 22.0 28.7 Q22.0 27.5 21.65 26.6 21.2 25.6 20.4 24.85 21.1 26.85 20.85 28.85 L20.9 28.85 M3.55 63.75 Q4.6 62.25 6.25 61.7 5.25 61.65 4.4 60.95 4.35 59.75 5.25 58.8 6.15 57.9 7.2 57.4 L7.25 57.4 7.4 57.7 6.45 59.35 Q5.85 60.15 5.65 61.05 L6.0 61.1 6.05 61.15 6.15 61.15 6.5 61.45 6.6 61.65 6.7 61.6 7.0 61.55 7.55 61.25 8.25 61.15 Q8.85 61.4 9.25 61.8 10.5 62.9 9.5 64.95 9.1 65.75 8.35 66.15 L7.7 66.9 6.85 67.4 6.7 67.6 6.7 67.55 6.55 67.45 6.45 67.45 6.35 67.35 6.25 67.35 6.5 67.5 Q5.45 67.6 4.2 66.8 L3.5 66.2 3.15 65.5 3.1 65.4 3.2 65.45 3.3 65.45 Q4.35 65.45 4.95 64.65 L5.15 64.25 Q5.0 63.8 4.55 63.75 L3.75 64.35 3.5 64.5 3.35 64.55 3.2 64.65 3.15 64.65 3.45 63.95 3.55 63.75 M8.2 67.15 Q9.85 68.0 11.35 69.55 L14.15 72.95 Q13.85 73.0 13.9 73.35 12.3 72.5 10.95 71.05 9.8 71.05 9.05 70.05 L8.9 69.8 8.65 69.4 8.6 69.35 7.0 67.75 7.1 67.5 7.25 67.55 Q7.7 67.8 8.05 67.35 L8.0 67.25 8.2 67.15 M10.3 50.05 Q9.75 50.45 9.8 51.2 L10.3 51.8 Q12.3 50.05 13.5 47.9 14.7 45.65 14.55 42.95 13.75 46.35 11.3 49.05 L10.3 50.05 M21.6 33.05 L21.45 32.9 21.4 33.0 21.2 33.85 20.7 33.75 21.25 33.9 Q20.15 35.6 19.95 37.75 20.5 38.6 20.55 39.7 20.55 40.75 21.35 41.55 L21.4 41.7 21.4 41.6 Q21.95 40.05 23.9 38.8 25.3 37.9 25.55 36.3 L25.95 33.6 25.6 32.35 26.2 32.2 24.6 32.6 21.6 33.05 M20.6 41.65 L20.6 41.6 20.5 41.45 20.6 41.65 20.65 42.05 20.8 42.2 20.6 41.65" fill="#495c0a" fill-rule="evenodd" stroke="none"/>
    <path d="M6.8 -13.4 L6.75 -13.3 6.55 -13.45 6.8 -13.4 M25.35 70.45 L25.4 70.7 24.55 70.8 Q23.05 70.9 21.7 70.3 20.6 69.8 19.95 68.75 L19.35 67.85 18.4 66.7 18.3 66.4 18.35 66.3 18.55 66.4 20.85 67.5 25.3 70.45 25.35 70.45 M31.15 69.15 L31.25 69.0 Q31.8 69.2 32.3 69.55 L32.2 69.65 Q31.75 69.2 31.15 69.15 M27.05 43.1 L27.0 43.1 27.4 42.75 27.05 43.1 M1.3 15.35 L1.45 15.5 2.0 16.25 2.1 16.6 1.3 15.35 M2.85 20.95 L2.95 21.45 2.7 21.1 2.85 20.95 M20.85 28.85 L20.9 28.8 20.9 28.85 20.85 28.85 M7.85 33.6 L8.15 33.35 9.35 34.3 8.55 35.0 7.85 33.6 M3.45 63.95 L3.55 63.8 3.55 63.75 3.45 63.95 M7.85 66.95 L8.2 67.15 8.0 67.25 7.85 66.95 M7.0 67.75 L6.7 67.6 6.85 67.4 7.1 67.5 7.0 67.75 M-2.3 69.55 L-2.45 69.05 -2.45 69.0 Q0.5 69.35 3.4 70.4 L5.85 71.2 Q7.0 71.6 7.95 72.3 10.0 73.85 11.85 75.5 13.15 76.8 13.85 78.5 L20.5 79.8 Q21.1 79.9 21.6 80.15 L24.1 81.5 24.2 81.55 24.2 81.3 Q23.5 80.6 23.75 79.65 23.95 78.95 24.55 78.75 L25.05 78.9 25.9 80.55 Q25.95 81.6 26.3 82.6 L26.5 83.1 Q27.0 84.3 26.6 85.75 L23.85 83.4 Q22.15 83.5 20.95 82.5 L18.45 80.65 Q17.7 81.1 17.3 80.45 16.9 79.75 16.2 79.75 16.2 80.4 16.5 81.15 L14.75 81.15 Q12.35 80.0 11.1 77.7 9.15 75.5 6.6 74.1 3.0 73.3 -0.2 71.6 L-1.8 70.2 -1.85 70.15 -2.0 70.0 -2.3 69.55 M20.8 75.95 L19.9 75.45 Q18.8 75.35 18.25 74.9 L19.15 75.2 Q20.05 75.3 20.75 75.75 L20.95 75.9 20.8 75.95 M20.6 41.65 L20.5 41.45 20.6 41.6 20.6 41.65" fill="#406507" fill-rule="evenodd" stroke="none"/>
    <path d="M15.75 -3.95 Q16.7 -3.9 17.5 -3.2 L19.05 -1.6 Q19.45 -0.75 18.95 0.0 L18.3 0.0 17.65 -0.4 16.55 -1.4 Q15.2 -2.5 15.6 -3.95 L15.75 -3.95 M15.65 16.5 L14.8 15.65 13.75 14.55 12.45 13.0 11.2 11.4 8.8 7.6 Q6.45 3.55 6.5 -0.9 L7.0 -1.15 7.15 -1.25 7.4 -1.0 8.55 -0.1 8.65 0.15 12.1 7.2 15.2 12.25 16.15 13.3 16.35 14.2 17.2 15.65 17.3 15.85 16.9 16.65 16.75 16.8 15.65 16.5 M13.95 31.35 L13.4 31.95 13.35 32.0 13.05 31.95 Q9.6 32.4 8.1 30.15 7.5 29.25 7.2 28.0 6.1 23.4 5.75 18.95 L6.0 18.8 6.3 18.75 Q7.6 19.45 8.25 20.9 L8.45 21.15 11.95 28.85 12.6 29.6 13.4 30.2 13.7 31.0 13.95 31.35 M15.8 65.1 Q15.8 64.75 16.35 64.35 L16.7 64.2 Q20.2 65.0 23.05 67.2 L23.65 67.9 23.7 67.9 23.9 68.25 23.85 68.25 23.9 68.5 24.4 69.0 25.0 69.6 25.15 69.7 25.3 69.85 25.4 69.95 25.4 70.05 25.4 70.15 25.35 70.35 25.3 70.45 20.85 67.5 18.55 66.4 18.35 66.3 17.1 65.7 15.8 65.1 M18.4 71.6 L17.95 71.5 Q15.5 70.6 13.7 68.65 L12.85 67.7 12.65 67.5 11.45 65.75 11.55 65.55 11.75 65.35 12.25 65.25 Q13.5 65.7 14.55 66.55 L14.6 66.6 16.6 68.2 17.3 68.9 Q18.05 69.25 18.8 69.75 19.55 70.3 19.45 70.75 L19.95 71.15 19.75 71.15 18.95 71.05 19.3 71.1 18.9 71.4 18.4 71.6 M20.55 74.2 L20.7 74.0 21.15 73.6 22.45 73.05 22.55 73.05 22.8 73.05 23.0 73.05 26.1 73.45 27.35 73.35 27.8 73.4 31.05 74.35 31.35 74.95 31.75 75.45 30.8 75.6 Q28.0 76.15 25.9 78.05 L25.75 77.5 25.75 77.45 25.7 77.2 Q25.55 76.2 24.8 75.75 L23.2 75.0 22.15 74.95 21.5 74.95 Q20.75 75.15 20.5 74.3 L20.5 74.25 20.55 74.2 M6.85 -10.45 L6.8 -10.55 Q6.85 -11.1 7.35 -11.1 8.25 -11.15 8.75 -10.45 L8.8 -10.15 Q8.65 -9.55 8.0 -9.75 7.3 -9.95 6.85 -10.45 M10.05 -3.5 L10.0 -3.9 9.85 -4.35 10.3 -4.4 10.35 -4.4 10.45 -4.45 10.55 -4.65 11.2 -4.15 Q11.85 -3.65 11.7 -2.95 L11.25 -2.95 11.2 -2.95 Q10.65 -2.8 10.2 -3.3 L10.05 -3.5 M16.95 3.5 L17.0 3.3 17.3 3.2 18.15 3.65 18.85 4.15 19.55 5.15 Q19.55 5.7 19.1 5.75 L18.3 5.65 Q16.95 5.0 16.7 3.7 L16.9 3.4 16.95 3.55 16.95 3.5 M10.8 28.8 L10.8 29.2 11.2 29.2 11.2 28.8 10.8 28.8 M9.0 40.95 Q9.8 42.5 9.9 44.45 10.05 46.55 9.65 48.5 L9.4 48.95 8.85 49.0 Q6.0 48.25 6.45 45.1 L7.05 42.7 Q7.35 41.8 7.9 41.05 L8.15 40.95 8.15 40.9 9.0 40.95 M6.3 52.55 L6.55 52.5 6.95 52.75 7.0 52.85 Q6.4 55.5 4.85 58.05 L3.8 59.7 3.45 60.25 Q3.85 60.7 3.65 61.4 L3.2 61.95 Q3.75 62.9 3.25 63.85 L2.65 64.45 2.05 64.45 1.7 64.3 1.4 64.15 1.15 63.95 1.1 64.05 0.9 63.95 1.0 64.15 0.6 64.8 0.3 64.8 Q0.8 65.3 0.1 66.15 L0.0 66.25 -1.5 66.55 -0.25 64.5 -0.15 64.5 -0.1 64.25 0.0 64.05 0.05 63.45 0.35 62.65 Q0.2 61.7 1.1 60.6 1.55 60.1 2.05 59.95 L1.65 60.15 2.35 59.05 3.9 56.65 4.15 56.15 5.8 53.05 6.0 52.7 6.3 52.55 M24.3 34.3 Q24.0 35.8 22.65 36.8 L22.15 37.2 21.95 37.25 21.25 37.25 21.0 37.05 Q20.5 35.4 21.85 34.3 L22.5 33.8 22.65 33.8 23.05 33.7 Q23.75 33.65 24.2 34.1 L24.3 34.3" fill="#81a20d" fill-rule="evenodd" stroke="none"/>
    <path d="M15.7 -4.0 L15.75 -3.95 15.6 -3.95 15.7 -4.0 M16.75 16.95 L16.65 16.9 15.85 16.7 15.65 16.5 16.75 16.8 16.75 16.95 M12.45 13.0 L11.2 11.4 8.7 7.7 8.8 7.6 11.2 11.4 12.45 13.0 M7.3 29.6 L7.55 30.2 7.25 29.4 7.3 29.6 M29.4 72.75 L29.55 72.8 29.3 72.85 29.4 72.75 M27.35 43.4 L27.05 43.1 27.4 42.75 27.65 42.9 27.35 43.4 M29.65 31.85 L29.8 31.85 29.75 31.95 29.65 31.85 M0.5 14.65 L0.55 14.65 1.15 15.95 0.5 14.65 M26.05 22.25 L26.0 22.3 26.05 22.25 M18.8 36.7 L18.7 36.65 18.75 36.6 18.8 36.7 M6.2 52.3 L6.3 52.55 6.0 52.7 6.2 52.3 M3.25 63.85 L3.45 63.95 3.15 64.65 2.2 64.55 2.05 64.45 2.65 64.45 3.25 63.85 M7.7 66.9 L7.85 66.95 8.0 67.25 8.05 67.35 Q7.7 67.8 7.25 67.55 L7.1 67.5 6.85 67.4 7.7 66.9 M6.55 67.45 L6.5 67.5 6.25 67.35 6.45 67.45 6.55 67.45 M24.1 81.5 L24.2 81.3 24.2 81.55 24.1 81.5 M21.4 33.0 L21.45 32.9 21.6 33.05 21.4 33.0 M21.4 41.6 L21.4 41.7 21.35 41.55 21.4 41.6 M21.25 33.9 L20.7 33.75 21.2 33.85 21.25 33.9 M20.6 41.65 L20.8 42.2 20.65 42.05 20.6 41.65 M2.35 59.05 L1.65 60.15 2.05 59.95 Q1.55 60.1 1.1 60.6 0.2 61.7 0.35 62.65 L0.05 63.45 Q0.25 61.9 0.9 60.55 L2.35 59.05 M-0.1 64.25 L-0.15 64.5 -0.25 64.5 -0.1 64.25 M1.7 64.3 L1.1 64.05 1.15 63.95 1.4 64.15 1.7 64.3" fill="#538409" fill-rule="evenodd" stroke="none"/>
    <path d="M10.8 28.8 L11.2 28.8 11.2 29.2 10.8 29.2 10.8 28.8" fill="#999900" fill-rule="evenodd" stroke="none"/>
    <path d="M27.4 42.75 L27.7 42.75 27.65 42.9 27.4 42.75" fill="#669966" fill-rule="evenodd" stroke="none"/>
    <path d="M23.9 68.25 L23.9 68.3 23.85 68.25 23.9 68.25 M17.95 74.1 L18.95 74.05 20.35 74.45 20.55 74.2 20.5 74.25 20.5 74.3 Q20.75 75.15 21.5 74.95 L22.15 74.95 23.2 75.0 24.8 75.75 Q25.55 76.2 25.7 77.2 L25.75 77.45 25.75 77.5 25.25 78.35 25.1 78.4 24.7 78.4 24.45 77.7 24.35 77.25 24.35 77.1 24.35 77.0 24.3 77.05 23.9 77.2 Q22.25 77.8 20.7 78.7 L20.65 78.2 21.35 77.7 22.25 77.05 Q23.1 76.45 23.8 76.4 L23.55 76.3 22.8 76.1 21.35 76.05 21.3 76.2 21.3 76.3 21.1 76.7 20.45 77.3 20.35 77.4 20.05 76.95 Q20.0 76.65 20.25 76.35 20.45 76.0 20.8 75.95 L20.95 75.9 20.75 75.75 Q20.05 75.3 19.15 75.2 L18.25 74.9 17.85 74.6 17.95 74.1 M3.1 65.4 Q1.6 65.05 1.0 64.15 L0.9 63.95 1.1 64.05 1.7 64.3 2.05 64.45 2.2 64.55 3.15 64.65 3.2 64.65 3.35 64.55 3.5 64.5 3.75 64.35 4.55 63.75 Q5.0 63.8 5.15 64.25 L4.95 64.65 Q4.35 65.45 3.3 65.45 L3.2 65.45 3.1 65.4 M14.6 66.6 L14.55 66.55 14.6 66.6" fill="#253c04" fill-rule="evenodd" stroke="none"/>
    <path d="M25.35 70.35 L25.35 70.45 25.3 70.45 25.35 70.35" fill="#63a608" fill-rule="evenodd" stroke="none"/>
  </g>
</svg>
