<?xml version="1.0" encoding="UTF-8" standalone="no"?>
<svg xmlns:xlink="http://www.w3.org/1999/xlink" height="95.75px" width="15.8px" xmlns="http://www.w3.org/2000/svg">
  <g transform="matrix(1.0, 0.0, 0.0, 1.0, 3.95, 7.65)">
    <path d="M5.6 5.15 L5.4 3.8 4.85 -0.4 Q4.35 -0.85 4.2 -1.45 L4.5 -1.65 Q4.1 -3.15 3.1 -4.05 L2.05 -5.8 Q1.4 -6.7 0.3 -6.8 0.2 -5.4 1.1 -4.35 L1.6 -3.65 1.95 -2.15 1.95 -1.95 Q1.2 -2.1 1.1 -2.95 L0.95 -3.75 0.65 -4.4 -1.8 -6.2 -1.85 -6.05 -2.0 -5.65 -2.35 -4.4 Q-2.65 -2.95 -2.4 -1.35 -1.95 1.15 -1.0 3.3 L-1.15 3.7 -2.15 2.75 Q-2.65 4.15 -2.05 5.45 L-1.15 8.1 Q-0.8 8.1 -0.85 8.45 L-0.7 8.9 Q0.0 8.5 0.4 9.1 L0.6 9.55 0.8 10.3 Q1.0 11.0 0.5 11.85 2.0 12.05 2.05 13.8 L2.4 16.6 Q1.35 17.65 2.3 18.5 L2.75 18.35 2.85 18.25 2.9 18.05 2.3 21.1 2.35 21.95 2.8 23.8 2.8 23.85 3.15 24.55 3.3 24.9 3.35 25.0 3.95 24.8 4.15 24.4 4.15 24.5 4.15 24.65 4.15 24.75 4.15 24.95 4.15 25.3 4.25 26.95 4.8 29.5 4.8 29.6 4.85 29.7 4.8 29.75 4.65 30.0 Q4.1 30.8 4.0 31.9 L4.0 32.2 4.3 31.9 4.75 31.95 4.95 32.5 Q4.9 32.85 5.3 33.0 L4.55 35.75 Q4.95 35.45 5.3 36.05 L5.3 36.15 5.1 37.5 5.05 38.6 5.05 38.65 5.05 38.75 5.1 38.7 5.15 38.6 4.6 39.85 3.65 44.2 3.4 45.25 3.4 45.3 3.55 45.25 4.0 44.95 3.95 46.05 4.05 48.35 4.05 48.65 4.2 49.95 Q4.35 55.25 3.05 60.5 2.0 62.2 1.15 64.1 L-1.0 67.6 Q-1.9 70.8 -0.5 73.6 0.7 70.7 0.05 67.6 L0.25 67.6 Q0.9 69.1 0.9 71.0 0.85 72.8 0.05 74.35 L-0.5 75.15 -1.65 76.25 -2.75 76.8 -3.95 76.85 -3.95 75.95 Q-3.7 76.15 -3.55 76.5 L-2.95 76.6 -3.15 76.5 -3.15 76.3 Q-2.35 76.35 -1.85 75.7 L-0.95 74.35 Q-2.5 71.1 -1.8 67.35 3.65 60.55 3.35 51.35 L3.55 47.8 3.4 47.6 Q3.0 46.8 2.95 45.9 2.75 43.0 3.75 40.35 L4.35 39.3 Q3.95 38.45 4.2 37.55 L3.7 37.7 3.55 37.2 Q4.35 36.5 4.1 35.45 3.85 34.35 4.3 33.45 L3.45 33.6 3.35 30.95 Q4.15 29.6 3.9 28.2 L3.65 26.5 3.15 25.85 Q1.25 22.7 1.7 19.1 L2.0 18.3 Q1.15 15.75 1.0 13.0 0.05 13.0 -0.65 12.25 0.05 11.35 -0.05 10.35 L-0.8 10.5 -0.8 10.1 Q-1.9 8.8 -2.25 7.25 L-3.1 4.2 Q-3.4 2.0 -2.85 0.2 -3.9 -3.0 -2.95 -6.15 -2.9 -7.2 -2.15 -7.4 L-0.5 -7.65 Q0.85 -7.75 1.85 -6.9 L3.65 -5.25 Q3.3 -4.7 3.8 -4.65 L4.55 -4.25 Q4.65 -3.9 4.4 -3.5 4.85 -3.2 5.5 -3.1 L6.35 -1.85 5.6 -1.15 6.7 -0.05 Q7.35 0.5 7.1 1.45 L6.65 1.35 Q6.5 1.15 6.3 1.35 6.15 2.1 6.35 2.7 L6.45 3.55 Q7.3 3.95 7.75 5.0 8.85 7.55 9.3 10.3 L9.6 13.45 Q9.65 14.95 9.2 16.3 9.85 17.2 10.05 18.3 9.75 19.35 10.25 20.2 L10.85 22.15 Q10.85 22.65 10.4 22.65 9.95 22.55 9.75 22.8 10.1 23.45 10.05 24.15 L9.35 24.15 Q9.9 28.2 10.75 32.25 11.35 35.1 11.05 37.95 L11.25 38.45 Q12.25 42.05 11.65 45.8 L10.95 48.15 10.2 50.7 Q8.25 53.0 8.4 55.6 8.45 58.15 9.0 60.85 9.55 63.5 9.05 66.15 L9.65 67.0 10.45 66.35 Q10.55 66.9 10.05 67.3 8.7 67.25 8.65 68.55 L8.3 70.95 7.0 74.6 Q6.45 76.45 5.15 78.0 4.55 80.1 5.85 81.85 L6.35 81.8 6.6 81.75 Q6.35 82.35 5.65 82.2 4.15 80.8 4.25 78.95 L4.25 78.9 4.4 78.05 4.65 77.6 Q6.9 73.7 7.3 69.75 L7.4 69.8 7.45 69.8 7.45 69.75 Q8.75 64.8 8.05 59.7 L8.0 59.55 7.9 59.7 7.8 59.7 7.8 58.9 7.9 58.9 Q7.25 56.5 7.9 54.25 8.35 52.4 9.2 50.8 L9.45 50.3 9.65 49.95 9.95 49.1 10.2 47.95 10.6 46.5 11.1 47.5 Q11.45 44.4 10.9 41.25 L10.75 39.75 10.1 38.35 10.3 38.35 10.35 37.15 10.3 35.7 Q10.2 33.35 9.7 31.0 8.95 27.9 8.65 24.85 L8.5 23.5 Q9.15 23.35 8.95 22.9 8.8 22.4 8.95 21.95 L8.85 21.85 9.7 21.75 Q9.7 20.8 9.1 19.9 8.45 18.95 9.15 18.55 L8.8 17.3 8.7 17.0 8.05 15.95 7.8 16.0 8.4 14.7 Q8.4 13.4 8.55 12.1 9.1 7.7 6.45 4.2 L5.85 7.3 5.7 6.0 5.7 5.8 5.65 5.6 5.6 5.3 5.6 5.15 M2.4 7.8 L2.5 7.75 2.75 8.2 2.4 7.8 M8.0 20.65 Q7.8 20.25 8.25 20.0 8.7 20.7 8.65 21.65 7.95 22.35 6.9 22.2 L6.85 22.2 Q6.35 22.0 6.3 21.55 L6.5 21.55 6.8 21.65 Q7.35 21.85 7.95 21.3 L8.0 20.65 M6.95 24.15 L6.25 23.5 6.45 23.3 7.0 23.85 7.0 23.9 7.2 23.95 Q7.75 24.05 7.95 24.5 L7.6 24.4 7.15 24.25 7.05 24.2 7.0 24.15 6.95 24.15 M6.1 24.7 L5.95 25.2 5.95 24.55 6.0 24.65 6.1 24.7 M2.45 77.9 L2.35 78.5 1.95 80.8 1.4 83.6 Q1.05 85.85 2.25 87.5 3.1 87.7 3.7 87.0 L3.7 87.3 3.65 87.55 3.15 88.0 Q2.35 88.25 1.7 87.75 L1.6 87.55 Q0.75 85.8 0.85 83.75 L1.15 81.0 1.5 79.6 1.55 79.35 1.6 79.2 1.7 78.8 1.7 78.85 2.25 75.45 Q2.45 73.3 3.15 71.5 L3.45 71.85 2.45 77.9 M-0.4 79.1 L0.35 77.25 0.7 76.4 0.9 76.4 0.6 77.7 -0.1 80.0 -0.25 80.6 -0.5 82.0 -0.5 82.25 -0.35 83.7 -0.55 83.7 Q-0.95 82.75 -1.0 81.8 L-1.0 81.65 -0.7 79.95 -0.4 79.1" fill="#000000" fill-rule="evenodd" stroke="none"/>
    <path d="M-2.35 -4.4 L-2.0 -5.65 -1.85 -6.05 -1.8 -6.2 0.65 -4.4 0.95 -3.75 1.1 -2.95 Q1.2 -2.1 1.95 -1.95 L1.95 -2.15 1.6 -3.65 1.1 -4.35 Q0.2 -5.4 0.3 -6.8 1.4 -6.7 2.05 -5.8 L3.1 -4.05 Q4.1 -3.15 4.5 -1.65 L4.2 -1.45 Q4.35 -0.85 4.85 -0.4 L5.4 3.8 5.6 5.15 Q5.2 6.05 5.05 7.05 L4.6 9.25 4.5 8.7 4.5 8.65 3.55 4.7 2.8 2.7 2.25 1.3 2.3 1.1 2.05 0.65 2.15 0.3 Q1.1 -3.05 -2.3 -4.4 L-2.35 -4.4 M8.7 17.0 L8.8 17.3 9.15 18.55 Q8.45 18.95 9.1 19.9 9.7 20.8 9.7 21.75 L8.85 21.85 8.95 21.95 Q8.8 22.4 8.95 22.9 9.15 23.35 8.5 23.5 L8.65 24.85 Q8.95 27.9 9.7 31.0 10.2 33.35 10.3 35.7 L10.25 35.55 8.65 31.4 8.2 30.25 6.95 26.2 6.95 26.15 Q6.95 25.45 6.35 25.3 L6.25 25.3 6.15 24.85 6.1 24.7 6.0 24.65 5.85 24.3 5.3 24.4 Q4.85 25.2 4.15 25.3 L4.15 24.95 4.15 24.75 4.2 24.75 4.25 24.6 4.45 24.25 4.75 23.9 5.45 22.15 6.75 19.4 Q7.45 18.05 8.6 17.05 L8.7 17.0 M9.45 50.3 L9.2 50.8 Q8.35 52.4 7.9 54.25 7.25 56.5 7.9 58.9 L7.8 58.9 7.8 59.7 7.9 59.7 8.0 59.55 8.05 59.7 Q8.75 64.8 7.45 69.75 L7.3 69.75 Q6.9 73.7 4.65 77.6 L4.4 78.05 4.25 78.9 4.2 78.95 Q3.15 79.4 2.55 80.55 L2.4 80.75 1.95 80.8 2.35 78.5 2.45 77.9 Q4.0 75.9 4.9 73.65 L5.55 71.55 6.55 66.7 6.85 64.15 6.95 64.0 7.05 59.05 7.0 58.4 7.0 58.35 7.0 58.15 7.4 53.75 8.05 49.35 8.35 46.95 8.25 46.3 8.25 46.05 8.3 45.6 8.2 45.9 8.25 45.3 8.25 45.25 8.0 44.9 7.55 44.95 7.55 44.65 7.5 43.6 7.5 43.55 7.0 42.3 6.8 45.15 Q5.8 45.55 5.2 46.75 L4.85 47.7 4.7 48.2 4.4 48.6 4.05 48.65 4.05 48.35 3.95 46.05 4.1 45.65 4.15 45.7 4.45 45.7 5.3 44.65 Q6.2 43.1 7.4 41.7 L8.0 42.25 8.85 44.0 Q9.7 46.05 9.45 48.3 L9.3 50.6 9.45 50.3 M3.65 1.85 Q3.8 3.95 4.3 5.95 L4.65 6.0 4.35 1.75 Q4.15 -0.3 3.05 -2.1 L3.65 1.85 M2.75 8.2 L2.65 8.45 Q2.45 8.2 2.4 7.8 L2.75 8.2 M2.9 18.05 L2.75 18.35 2.7 18.1 2.9 18.05 M5.25 11.1 L5.4 11.15 5.3 11.25 5.25 11.1 M8.0 20.65 L7.95 21.3 Q7.35 21.85 6.8 21.65 L6.5 21.55 6.3 21.55 Q6.35 22.0 6.85 22.2 L6.9 22.2 Q7.95 22.35 8.65 21.65 8.7 20.7 8.25 20.0 7.8 20.25 8.0 20.65 M6.95 24.15 L7.0 24.15 7.05 24.2 7.15 24.25 7.6 24.4 7.95 24.5 Q7.75 24.05 7.2 23.95 L7.0 23.9 7.0 23.85 6.45 23.3 6.25 23.5 6.95 24.15 M7.85 40.4 L7.55 40.35 7.6 40.25 7.85 40.4 M1.7 78.85 L1.7 78.8 1.6 79.2 1.55 79.35 1.5 79.6 1.15 81.0 0.7 81.4 0.5 81.5 0.3 81.9 0.25 82.0 0.1 81.8 Q-0.25 81.4 0.05 80.95 L1.7 78.85" fill="#4f7500" fill-rule="evenodd" stroke="none"/>
    <path d="M6.45 4.2 Q9.1 7.7 8.55 12.1 8.4 13.4 8.4 14.7 L7.8 16.0 5.65 17.85 5.6 17.9 5.0 20.35 4.95 20.35 4.15 24.35 4.15 24.4 3.95 24.8 3.35 25.0 3.3 24.9 3.15 24.55 2.8 23.85 2.8 23.8 3.5 20.95 4.35 18.5 Q4.65 17.65 5.25 17.0 5.55 16.35 6.15 15.8 L6.5 15.5 6.55 15.15 6.75 14.4 6.45 13.1 6.1 12.35 4.9 12.6 5.3 11.25 5.4 11.15 5.25 11.1 5.1 10.85 5.45 11.05 6.45 4.2 M10.1 38.35 L10.75 39.75 10.9 41.25 Q11.45 44.4 11.1 47.5 L10.6 46.5 10.2 47.95 10.1 47.95 9.95 45.25 9.8 45.25 9.8 45.0 Q9.65 42.4 8.1 40.65 L7.85 40.4 7.6 40.25 7.55 40.35 7.25 40.6 6.55 41.4 Q5.0 43.25 4.1 45.65 L3.95 46.05 4.0 44.95 3.55 45.25 3.4 45.25 3.65 44.2 3.75 43.7 4.2 42.85 6.15 39.9 6.35 39.65 8.6 39.55 8.85 39.75 Q9.25 40.15 9.45 40.7 L9.7 40.6 9.95 40.35 9.8 39.9 9.7 39.5 Q8.55 36.65 7.85 33.65 7.35 31.6 7.45 29.55 L7.45 29.3 8.2 31.8 8.2 31.85 8.5 32.9 9.35 36.0 9.6 36.9 10.1 38.35 M4.25 78.9 L4.25 78.95 4.2 78.95 4.25 78.9 M-2.35 -4.4 L-2.3 -4.4 -2.35 -4.4 M7.0 58.15 L7.0 58.35 6.95 58.15 7.0 58.15" fill="#669933" fill-rule="evenodd" stroke="none"/>
    <path d="M-2.75 76.8 L-1.65 76.25 -0.5 75.15 0.05 74.35 Q0.85 72.8 0.9 71.0 0.9 69.1 0.25 67.6 L0.05 67.6 Q0.7 70.7 -0.5 73.6 -1.9 70.8 -1.0 67.6 L1.15 64.1 Q2.0 62.2 3.05 60.5 4.35 55.25 4.2 49.95 L4.05 48.65 4.4 48.6 4.7 48.2 4.85 47.7 5.2 46.75 Q5.8 45.55 6.8 45.15 L6.15 47.9 5.8 48.9 5.25 50.1 Q4.85 51.8 4.95 53.7 5.45 51.15 6.6 48.75 7.5 46.85 7.55 44.65 L7.55 44.95 8.0 44.9 8.25 45.25 8.25 45.3 8.2 45.9 6.8 51.6 Q6.05 54.6 6.55 57.95 L6.7 61.65 Q6.65 63.45 5.45 64.95 4.6 66.5 4.2 68.3 L6.85 64.15 6.55 66.7 5.55 71.55 4.9 73.65 Q4.0 75.9 2.45 77.9 L3.45 71.85 3.15 71.5 Q2.45 73.3 2.25 75.45 L1.7 78.85 0.05 80.95 Q-0.25 81.4 0.1 81.8 L0.25 82.0 0.0 82.3 -0.2 82.2 -0.25 82.3 -0.5 82.25 -0.5 82.0 -0.25 80.6 -0.1 80.0 0.6 77.7 0.9 76.4 0.7 76.4 0.35 77.25 -0.4 79.1 -0.65 79.0 Q-0.65 78.0 -1.45 77.4 -1.7 77.2 -2.0 77.25 -2.75 77.3 -2.75 76.8 M5.3 36.15 L5.3 36.05 Q4.95 35.45 4.55 35.75 L5.3 33.0 Q4.9 32.85 4.95 32.5 L4.75 31.95 4.3 31.9 4.0 32.2 4.0 31.9 4.3 31.9 4.3 30.7 4.65 30.0 4.8 29.75 4.85 29.7 4.8 29.6 4.8 29.5 5.05 29.35 Q6.2 29.35 6.85 29.8 L6.95 30.35 6.25 33.2 5.95 34.3 5.3 36.15 M2.4 16.6 L2.05 13.8 Q2.0 12.05 0.5 11.85 1.0 11.0 0.8 10.3 L0.6 9.55 0.4 9.1 Q0.0 8.5 -0.7 8.9 L-0.85 8.45 Q-0.8 8.1 -1.15 8.1 L-2.05 5.45 Q-2.65 4.15 -2.15 2.75 L-1.15 3.7 -1.0 3.3 Q-1.95 1.15 -2.4 -1.35 -2.65 -2.95 -2.35 -4.4 L-2.3 -4.4 Q1.1 -3.05 2.15 0.3 L2.05 0.65 2.3 1.1 2.25 1.3 2.8 2.7 3.55 4.7 4.5 8.65 4.5 8.7 3.8 7.4 Q3.55 6.65 2.95 6.4 3.9 8.35 4.0 10.8 L4.35 12.95 Q3.3 14.75 2.6 16.7 L2.45 16.95 2.45 16.8 2.4 16.6 M2.5 7.75 L2.4 7.6 Q1.9 6.5 1.75 5.15 L1.65 3.65 Q1.7 1.0 0.2 -0.95 L-1.25 -2.95 Q-1.3 -2.4 -0.8 -1.8 L-0.3 -1.1 -0.1 -0.6 Q0.55 0.45 0.85 1.7 L1.1 3.9 Q1.05 6.1 2.4 7.8 2.45 8.2 2.65 8.45 L2.75 8.2 2.5 7.75 M8.25 46.3 L8.35 46.95 8.05 49.35 7.4 53.75 7.0 58.15 6.95 58.15 Q6.55 55.35 7.1 52.25 7.95 49.35 8.25 46.3 M2.95 70.1 Q3.5 68.65 3.05 67.2 2.6 65.65 4.3 64.75 5.75 62.05 5.25 58.95 4.7 62.8 2.65 66.0 L2.95 70.1" fill="#58852c" fill-rule="evenodd" stroke="none"/>
    <path d="M5.6 5.15 L5.6 5.3 5.65 5.6 5.7 5.8 5.7 6.0 5.85 7.3 5.45 11.05 5.1 10.85 5.25 11.1 5.3 11.25 4.9 12.6 4.25 14.8 3.95 15.8 3.0 17.9 2.9 18.05 2.7 18.1 2.75 18.35 2.9 18.05 2.85 18.25 2.75 18.35 2.3 18.5 Q1.35 17.65 2.4 16.6 L2.45 16.8 2.45 16.95 2.6 16.7 Q3.3 14.75 4.35 12.95 L4.0 10.8 Q3.9 8.35 2.95 6.4 3.55 6.65 3.8 7.4 L4.5 8.7 4.6 9.25 5.05 7.05 Q5.2 6.05 5.6 5.15 M7.8 16.0 L8.05 15.95 8.7 17.0 8.6 17.05 Q7.45 18.05 6.75 19.4 L5.45 22.15 4.75 23.9 4.45 24.25 4.25 24.6 4.2 24.75 4.15 24.75 4.15 24.65 4.15 24.5 4.15 24.4 4.15 24.35 4.95 20.35 5.0 20.35 5.6 17.9 5.65 17.9 5.65 17.85 7.8 16.0 M10.3 35.7 L10.35 37.15 10.3 38.35 10.1 38.35 9.6 36.9 9.35 36.0 8.5 32.9 8.2 31.85 8.2 31.8 8.15 31.45 7.55 29.5 6.45 25.85 6.35 25.55 6.25 25.3 6.35 25.3 Q6.95 25.45 6.95 26.15 L6.95 26.2 8.2 30.25 8.65 31.4 10.25 35.55 10.3 35.7 M9.95 49.1 L9.65 49.95 9.45 50.3 9.3 50.6 9.45 48.3 Q9.7 46.05 8.85 44.0 L8.0 42.25 7.4 41.7 Q6.2 43.1 5.3 44.65 L4.45 45.7 4.15 45.7 4.1 45.65 Q5.0 43.25 6.55 41.4 L7.25 40.6 7.55 40.35 7.85 40.4 8.1 40.65 Q9.65 42.4 9.8 45.0 L9.8 45.25 9.85 45.45 9.75 45.5 9.85 45.6 9.9 45.45 9.95 45.25 10.1 47.95 Q9.95 48.5 9.95 49.1 M5.15 38.6 L5.1 38.7 5.05 38.65 5.05 38.6 5.1 37.5 5.3 36.15 5.95 34.3 6.25 33.2 6.95 30.35 7.0 31.2 Q7.25 34.25 6.0 37.2 L5.95 37.35 5.9 37.45 5.25 38.5 5.15 38.6 M3.65 1.85 L3.05 -2.1 Q4.15 -0.3 4.35 1.75 L4.65 6.0 4.3 5.95 Q3.8 3.95 3.65 1.85 M2.4 7.8 Q1.05 6.1 1.1 3.9 L0.85 1.7 Q0.55 0.45 -0.1 -0.6 L-0.3 -1.1 -0.8 -1.8 Q-1.3 -2.4 -1.25 -2.95 L0.2 -0.95 Q1.7 1.0 1.65 3.65 L1.75 5.15 Q1.9 6.5 2.4 7.6 L2.5 7.75 2.4 7.8 M6.8 45.15 L7.0 42.3 7.5 43.55 7.5 43.6 7.55 44.65 Q7.5 46.85 6.6 48.75 5.45 51.15 4.95 53.7 4.85 51.8 5.25 50.1 L5.8 48.9 6.15 47.9 6.8 45.15 M8.2 45.9 L8.3 45.6 8.25 46.05 8.25 46.3 Q7.95 49.35 7.1 52.25 6.55 55.35 6.95 58.15 L7.0 58.35 7.0 58.4 7.05 59.05 6.95 64.0 6.85 64.15 4.2 68.3 Q4.6 66.5 5.45 64.95 6.65 63.45 6.7 61.65 L6.55 57.95 Q6.05 54.6 6.8 51.6 L8.2 45.9 M2.95 70.1 L2.65 66.0 Q4.7 62.8 5.25 58.95 5.75 62.05 4.3 64.75 2.6 65.65 3.05 67.2 3.5 68.65 2.95 70.1" fill="#2b5500" fill-rule="evenodd" stroke="none"/>
    <path d="M5.85 7.3 L6.45 4.2 5.45 11.05 5.85 7.3 M3.65 44.2 L4.6 39.85 5.15 38.6 5.25 38.5 5.9 37.45 5.95 37.35 6.0 37.2 Q7.25 34.25 7.0 31.2 L6.95 30.35 6.85 29.8 5.95 25.2 6.1 24.7 6.15 24.85 6.25 25.3 6.35 25.55 6.45 25.85 7.45 29.3 7.45 29.55 Q7.35 31.6 7.85 33.65 8.55 36.65 9.7 39.5 L9.8 39.9 9.95 40.35 9.7 40.6 9.45 40.7 Q9.25 40.15 8.85 39.75 L8.6 39.55 6.35 39.65 6.15 39.9 4.2 42.85 3.75 43.7 3.65 44.2 M2.8 23.8 L2.35 21.95 2.3 21.1 2.9 18.05 3.0 17.9 3.95 15.8 4.25 14.8 4.9 12.6 6.1 12.35 6.45 13.1 6.75 14.4 6.55 15.15 6.5 15.5 6.15 15.8 Q5.55 16.35 5.25 17.0 4.65 17.65 4.35 18.5 L3.5 20.95 2.8 23.8" fill="#66cc33" fill-rule="evenodd" stroke="none"/>
    <path d="M5.1 38.7 L5.05 38.75 5.05 38.65 5.1 38.7 M4.0 31.9 Q4.1 30.8 4.65 30.0 L4.3 30.7 4.3 31.9 4.0 31.9 M4.8 29.5 L4.25 26.95 4.15 25.3 Q4.85 25.2 5.3 24.4 L5.85 24.3 6.0 24.65 5.95 24.55 5.95 25.2 6.85 29.8 Q6.2 29.35 5.05 29.35 L4.8 29.5 M5.65 17.85 L5.65 17.9 5.6 17.9 5.65 17.85 M6.45 25.85 L7.55 29.5 8.15 31.45 8.2 31.8 7.45 29.3 6.45 25.85" fill="#669900" fill-rule="evenodd" stroke="none"/>
    <path d="M3.55 45.25 L3.4 45.3 3.4 45.25 3.55 45.25 M9.95 45.25 L9.9 45.45 9.85 45.6 9.75 45.5 9.85 45.45 9.8 45.25 9.95 45.25" fill="#717100" fill-rule="evenodd" stroke="none"/>
    <path d="M10.2 47.95 L9.95 49.1 Q9.95 48.5 10.1 47.95 L10.2 47.95" fill="#66cc00" fill-rule="evenodd" stroke="none"/>
    <path d="M7.4 69.8 L7.3 69.75 7.45 69.75 7.4 69.8 M-0.65 79.0 L-0.4 79.1 -0.7 79.95 -0.65 79.0" fill="#ffffff" fill-rule="evenodd" stroke="none"/>
  </g>
</svg>
