<?xml version="1.0" encoding="UTF-8" standalone="no"?>
<svg xmlns:xlink="http://www.w3.org/1999/xlink" height="130.55px" width="48.15px" xmlns="http://www.w3.org/2000/svg">
  <g transform="matrix(1.0, 0.0, 0.0, 1.0, 9.7, 11.65)">
    <path d="M0.05 -10.35 L0.25 -10.3 2.65 -8.4 Q2.25 -7.65 2.6 -6.9 L2.95 -6.2 2.45 -6.25 2.05 -6.2 1.95 -6.2 Q1.5 -5.95 1.5 -5.5 L1.6 -4.65 Q0.6 -3.8 1.8 -2.8 2.3 -3.3 3.2 -3.25 L3.6 -3.2 3.75 -3.45 3.85 -3.75 3.95 -3.75 4.15 -3.1 4.1 -3.05 Q4.9 -2.7 4.75 -1.6 4.7 -1.0 4.1 -0.85 3.25 0.5 2.15 -0.25 L1.55 0.35 1.7 0.3 2.2 0.2 2.6 0.3 2.8 0.4 3.0 0.9 Q2.25 1.2 2.15 2.05 2.1 2.35 2.35 2.55 L3.9 2.45 5.35 2.5 5.5 2.45 Q5.25 2.95 5.55 3.45 L5.2 3.4 5.15 3.45 Q4.05 3.6 4.2 4.7 4.35 5.7 5.3 5.55 L5.3 5.65 5.65 6.1 5.7 6.4 5.55 6.45 5.45 6.5 5.15 6.95 Q4.8 8.0 5.85 8.3 L6.7 8.1 7.35 8.5 6.95 8.65 6.7 8.7 6.7 9.2 7.0 8.9 7.1 8.85 6.85 9.2 Q6.5 9.65 6.65 10.25 6.8 10.9 7.25 11.05 L7.35 11.6 Q6.35 11.4 6.4 10.3 L5.65 11.25 Q6.2 11.95 5.8 13.15 L5.7 13.4 Q7.1 14.05 6.3 15.7 L6.0 16.2 Q6.9 16.55 6.75 17.65 L7.05 17.05 7.2 16.75 7.25 17.05 Q7.4 17.85 7.8 18.4 L7.4 19.3 6.45 21.05 5.55 22.3 5.0 22.95 4.75 23.3 4.6 23.45 4.5 23.65 Q3.9 24.35 3.6 25.2 L3.5 25.4 3.6 25.85 3.55 26.05 2.55 27.8 2.4 27.2 2.3 26.95 2.25 27.05 2.1 27.25 2.1 27.45 1.6 28.35 1.5 28.5 1.15 29.05 0.65 29.2 Q0.05 29.25 -0.4 28.75 L-0.6 28.35 Q-1.8 27.75 -1.3 26.5 L-0.8 25.9 -0.65 25.8 -0.6 25.8 -0.45 25.75 -0.3 25.75 -0.15 25.2 0.05 25.05 1.05 25.1 1.15 25.0 1.8 25.15 1.75 24.9 1.0 24.85 Q-0.7 23.8 0.25 22.4 L-0.4 22.45 -0.6 22.65 -1.5 22.6 Q-1.55 23.25 -2.35 24.1 L-2.45 24.2 -2.1 24.1 Q-1.3 24.45 -1.9 25.2 L-1.95 25.25 -2.0 25.3 Q-1.75 26.1 -2.6 27.2 -3.15 27.95 -3.7 27.9 -4.2 27.8 -4.65 27.1 L-4.8 26.8 Q-5.0 26.15 -4.45 25.55 L-4.35 24.9 -5.05 24.2 -5.35 23.7 -5.65 23.6 -5.85 23.4 -6.0 22.95 -5.9 22.55 -5.85 22.45 -5.9 22.4 Q-6.2 21.95 -5.8 21.5 L-5.75 21.35 -5.65 21.35 -5.55 21.25 -5.25 21.25 -5.1 21.25 Q-4.6 21.35 -4.5 21.95 L-4.5 22.0 Q-3.7 21.45 -2.8 21.2 L-3.95 20.85 Q-3.55 19.85 -4.05 19.3 L-3.8 18.95 -3.55 18.2 -3.4 18.0 Q-2.95 17.4 -2.9 16.9 L-2.55 16.7 -2.1 16.7 -2.8 17.45 -2.8 18.2 -2.75 18.35 -2.55 18.55 -2.4 18.75 -1.65 18.75 -1.45 18.7 -1.1 18.35 Q-0.05 17.5 -1.05 16.6 L-1.7 16.55 -1.35 16.05 -1.3 15.75 -0.75 15.7 0.0 14.9 0.45 14.1 Q0.9 13.75 1.45 13.5 L2.0 13.15 2.05 12.95 2.15 12.2 Q1.45 12.05 1.2 11.35 L-0.1 11.25 -0.25 11.55 -0.3 11.6 -0.35 11.35 -0.6 11.75 -0.45 11.8 -0.95 12.55 -1.05 12.5 -1.4 12.7 Q-2.1 12.9 -2.35 13.55 L-2.5 13.9 -2.6 13.9 -2.6 13.95 -2.85 14.05 -2.95 14.25 -3.9 14.45 Q-4.8 14.8 -4.7 15.75 L-5.1 15.9 -5.1 15.25 Q-5.2 14.65 -5.75 14.3 L-6.5 14.25 -6.7 14.45 -7.15 14.9 -7.15 14.15 -6.5 14.1 -6.05 13.8 -5.9 13.7 Q-4.95 15.05 -3.95 13.5 L-3.8 13.25 -3.0 12.8 -2.9 12.05 -2.9 11.8 -2.4 11.2 -1.6 11.2 -0.55 11.0 Q0.05 10.65 -0.05 9.9 -0.3 8.4 -2.05 8.9 L-2.1 8.9 -2.6 9.4 -2.7 9.35 -2.75 8.45 -2.55 8.4 -2.1 7.9 -1.95 7.45 -1.9 7.75 -1.8 7.95 0.15 8.2 0.6 7.65 0.6 7.45 0.35 6.9 0.15 6.7 -1.2 6.65 -1.8 7.0 -1.95 7.2 -1.95 7.3 -2.0 7.15 -2.15 6.95 Q-1.8 5.3 -3.45 4.2 -3.85 4.25 -4.05 4.6 -4.7 5.8 -4.45 6.85 L-4.55 7.0 -4.6 7.4 -4.65 7.55 -4.65 7.75 -4.35 8.05 -5.2 8.8 -5.55 9.25 -5.75 10.05 -6.15 10.7 -7.45 10.95 -7.6 10.85 Q-8.8 9.9 -8.3 8.4 L-7.75 7.4 -8.75 6.95 Q-9.4 6.4 -9.4 5.15 -9.4 4.0 -8.8 3.25 L-7.55 2.25 -7.05 2.25 Q-7.45 1.7 -6.85 1.4 L-6.75 1.35 -6.6 1.25 -6.55 1.25 -6.75 1.05 -7.0 0.05 Q-7.45 -0.65 -6.85 -1.65 -6.45 -2.35 -5.7 -2.45 L-5.15 -2.45 -4.9 -2.75 -4.3 -3.2 -3.55 -2.95 -3.55 -2.9 -3.25 -3.35 -2.95 -3.45 Q-2.15 -6.3 -0.55 -9.0 L0.05 -10.35 M11.95 20.35 L12.15 21.95 Q11.7 21.45 11.25 21.45 L11.65 20.8 11.95 20.35 M17.95 76.75 Q18.6 77.2 18.55 78.35 L18.35 79.0 18.0 79.3 16.3 79.15 15.95 79.95 15.7 80.2 15.0 80.1 14.45 80.85 14.15 81.15 14.7 81.5 Q14.3 81.95 14.6 82.45 L14.8 82.8 14.95 82.1 Q15.15 81.55 15.55 81.3 15.85 81.05 16.3 81.05 L16.7 81.2 Q17.3 81.45 17.5 81.95 L17.65 82.35 17.45 83.55 16.85 84.2 Q15.6 86.45 16.45 89.0 L17.5 92.15 Q15.85 92.35 14.5 93.45 L14.5 93.5 14.5 91.7 14.5 91.65 14.6 91.65 Q14.6 91.25 14.9 91.0 L14.95 91.0 15.05 90.85 15.1 90.85 Q15.5 90.45 15.8 90.45 L15.8 90.3 15.45 90.3 Q15.0 90.4 14.75 90.7 L14.5 91.0 13.9 87.35 12.5 83.2 Q11.65 81.15 11.3 79.0 10.95 76.8 11.1 74.55 11.25 72.4 11.65 70.25 L11.75 69.75 11.7 70.2 12.35 70.25 12.2 70.5 Q11.9 71.85 13.15 72.25 12.95 71.8 13.4 71.5 13.9 71.15 14.35 71.1 L14.75 71.2 14.95 71.3 15.15 72.0 15.05 72.45 14.75 72.75 15.35 72.95 15.6 72.9 15.45 73.0 Q15.95 73.3 16.0 73.8 16.05 73.45 16.45 73.05 L16.9 72.7 Q18.55 72.95 17.8 74.25 L17.7 74.4 17.7 74.45 17.15 74.85 16.45 74.85 Q16.05 74.5 16.0 74.15 L15.7 75.05 15.5 75.45 15.2 75.55 15.2 75.4 15.2 74.85 14.9 74.5 14.75 74.3 14.1 74.25 13.85 74.35 13.6 74.75 13.45 75.0 13.4 74.85 13.3 74.9 13.25 74.8 13.35 74.8 13.2 74.1 Q13.1 73.45 13.65 73.0 L13.35 72.65 13.0 72.8 Q12.55 72.95 12.35 73.4 L12.3 73.75 12.3 73.95 12.3 74.15 12.5 74.4 12.2 74.4 12.2 74.45 11.95 74.5 11.8 74.7 11.65 74.9 Q11.55 75.15 11.6 75.45 L11.6 75.65 11.85 76.0 12.1 76.2 12.45 76.25 12.45 76.3 12.45 76.5 12.65 76.7 13.25 75.85 13.35 76.05 13.55 76.25 13.55 76.6 13.55 76.8 13.75 77.2 14.25 77.75 14.85 77.75 15.05 77.7 15.25 77.5 15.35 77.3 15.45 76.75 15.45 76.55 15.4 76.5 15.55 76.5 16.1 76.7 Q16.25 76.5 16.55 76.4 17.45 76.4 17.95 76.75 M19.75 95.7 Q19.0 96.0 18.55 96.7 L19.65 96.6 19.85 96.95 20.75 98.35 19.45 98.15 Q18.15 98.55 17.3 99.5 L17.1 99.9 17.0 99.8 16.0 98.0 15.5 97.3 Q16.3 96.0 17.6 95.05 L17.65 95.15 17.75 94.95 18.3 94.55 18.7 94.25 18.35 94.55 18.6 95.05 19.2 96.0 19.75 95.7 M23.65 101.85 L24.4 102.5 24.65 103.05 25.35 103.9 26.4 104.95 Q25.7 105.65 25.5 106.55 25.25 106.2 24.9 106.2 L24.7 105.65 24.3 105.35 24.1 104.8 Q23.85 104.45 23.4 104.45 L23.35 104.4 22.9 104.0 23.2 103.9 23.5 103.9 24.7 103.7 24.4 103.2 23.5 103.15 Q22.65 103.2 21.85 103.85 L22.15 103.6 22.2 103.45 Q22.3 103.05 21.95 102.75 L21.45 102.5 Q22.15 102.0 23.1 101.8 L23.5 101.8 23.65 101.85 M26.0 106.85 L26.05 106.6 Q26.15 105.8 26.9 105.4 L29.6 108.05 31.8 110.05 32.45 110.5 Q32.6 109.8 33.1 110.0 L34.1 110.35 34.2 110.5 32.45 110.6 32.4 110.6 31.7 110.3 31.65 110.3 Q30.4 109.55 29.05 109.75 27.75 110.35 26.8 111.45 25.55 111.1 24.4 110.4 L23.5 110.0 Q22.75 109.8 21.95 110.0 L21.8 108.95 21.75 108.0 21.75 107.85 21.75 107.7 21.75 107.35 21.9 107.35 21.95 107.4 23.45 107.55 23.55 107.6 24.55 107.85 24.85 108.1 25.9 108.4 Q26.1 108.7 26.5 108.7 L26.85 108.75 28.4 108.9 28.8 108.75 Q29.25 108.0 28.35 107.75 L28.3 107.7 Q27.65 107.25 26.85 107.2 26.45 106.95 26.0 106.85 M19.55 111.25 Q19.75 112.15 20.5 112.95 21.85 114.85 23.5 116.0 L23.6 116.1 24.4 116.9 23.5 116.9 Q21.95 116.75 21.05 115.65 L16.5 115.35 15.95 114.4 15.7 113.35 15.7 113.25 Q15.6 112.0 14.8 111.05 14.05 111.55 14.4 112.2 L15.0 113.4 Q13.9 113.7 13.9 112.85 13.95 112.0 13.6 111.45 L12.35 109.6 11.9 109.1 Q11.35 108.7 10.7 108.55 L10.5 108.55 10.35 108.65 10.25 108.75 Q10.15 108.9 10.2 109.1 11.85 110.3 12.85 112.05 11.8 112.65 11.15 111.8 L11.05 111.65 Q10.35 110.55 9.65 110.0 L8.2 109.9 8.85 108.15 9.0 106.35 9.3 105.6 9.55 104.9 Q9.65 104.15 9.25 103.9 10.6 103.0 12.35 103.05 L12.9 103.3 13.3 103.4 14.35 105.85 13.35 105.7 12.7 105.9 12.1 106.05 Q11.1 106.5 11.5 107.45 L11.9 107.75 14.05 107.85 14.45 107.85 17.05 107.9 17.1 107.9 16.8 107.75 18.05 108.4 Q19.25 109.35 19.45 110.65 L19.55 111.25 M11.85 113.25 L12.15 113.7 Q10.85 114.15 10.05 115.25 L8.4 116.85 8.4 116.8 8.1 117.0 8.0 117.1 7.5 116.35 6.75 115.65 7.3 114.95 7.0 114.75 8.95 116.0 Q9.25 115.25 8.65 114.65 L7.85 114.1 8.75 112.3 9.1 111.3 9.15 110.75 Q9.8 110.9 10.4 111.35 L11.05 111.9 11.8 113.2 11.8 113.25 11.85 113.25 M6.9 117.35 L4.2 118.0 4.4 117.7 4.55 117.35 Q4.65 116.75 4.0 116.8 L3.7 116.85 Q3.7 116.45 4.35 116.1 L4.4 116.1 Q5.4 116.05 6.2 116.6 L6.25 116.65 6.9 117.35 M7.1 111.5 L7.2 110.65 7.2 110.55 7.25 110.55 7.3 110.45 7.2 110.65 7.4 110.65 7.55 110.6 7.3 111.05 7.1 111.5 M5.45 108.35 Q4.25 108.75 3.3 108.15 L2.6 107.95 Q2.0 108.0 1.55 108.9 1.0 109.2 1.25 109.6 L1.55 110.35 -1.6 109.95 -3.8 109.85 Q-3.1 109.4 -2.3 109.1 -1.25 108.8 -1.2 107.95 L0.4 108.75 Q0.5 107.65 -0.3 107.0 L-0.65 106.75 -0.05 105.75 0.25 105.1 0.45 104.55 0.0 104.35 1.2 104.85 Q1.3 104.0 0.7 103.3 L0.9 103.55 1.7 101.1 1.9 100.9 2.6 101.25 3.6 101.8 3.45 102.05 3.4 102.1 2.6 103.55 2.45 103.85 2.35 104.15 2.6 103.95 3.95 102.4 3.5 103.0 Q3.45 103.95 4.5 103.85 L4.75 103.6 5.7 102.25 5.8 102.2 Q5.05 103.05 4.55 104.05 L4.5 104.2 4.1 104.6 3.5 105.65 Q3.3 106.3 3.6 106.85 L3.85 107.05 4.45 107.05 5.55 106.1 6.15 106.3 6.1 106.4 6.05 106.5 5.8 107.0 5.45 108.35 M2.5 94.6 L2.6 94.15 2.85 92.8 2.75 93.3 2.9 94.15 2.5 94.6 M3.65 82.5 L3.65 80.65 3.75 79.8 3.7 80.2 3.75 80.35 Q4.15 81.1 3.85 81.9 L3.65 82.5 M4.1 75.9 L3.6 75.3 Q3.4 74.8 3.7 74.05 L3.6 73.9 3.55 73.85 Q3.25 73.35 3.25 72.8 L2.75 72.35 2.6 72.35 2.0 72.25 1.9 72.15 Q0.15 70.75 1.4 69.15 L1.95 68.55 2.35 68.2 2.55 68.15 2.9 68.1 2.95 68.1 3.05 67.95 3.9 68.05 Q3.4 68.8 3.4 69.5 3.2 70.0 3.65 70.5 L4.1 71.1 4.5 71.1 Q3.5 72.0 4.0 73.4 4.15 73.95 4.7 73.75 7.05 72.85 5.65 70.75 L5.35 70.75 Q7.45 69.4 5.6 68.25 L5.55 68.05 5.5 67.7 5.35 67.5 5.1 67.3 4.6 67.25 4.65 67.1 5.65 67.3 6.0 66.95 6.3 66.25 6.55 66.15 7.1 66.2 7.6 66.2 7.75 66.35 7.9 66.35 Q8.75 66.1 8.85 65.45 L8.15 65.65 Q7.6 65.5 7.35 65.0 L7.5 64.25 Q7.55 64.65 7.95 65.0 L9.25 64.95 9.3 64.9 8.75 67.05 Q8.2 69.2 8.05 71.45 L7.95 72.05 7.85 73.45 7.45 71.4 6.75 72.0 6.65 72.05 6.45 73.05 Q7.3 73.95 6.5 75.55 6.05 76.45 5.05 76.2 L4.1 75.9 M1.3 66.7 Q0.3 65.4 1.9 64.4 L1.8 63.9 1.8 63.65 Q1.75 61.85 4.0 61.8 L4.35 61.8 4.55 62.25 4.15 62.7 3.55 62.65 3.1 63.05 Q1.25 64.4 2.75 66.05 L2.85 66.2 2.35 67.1 Q2.25 67.5 2.55 67.65 L2.65 67.75 2.15 67.2 1.75 67.2 1.3 66.7 M3.4 55.5 L3.05 51.4 3.3 51.85 3.45 52.55 3.65 55.35 3.4 55.5 M5.2 0.5 L5.35 0.3 5.45 0.6 5.25 0.55 5.2 0.55 5.2 0.5 M8.6 9.3 L8.65 9.15 8.7 9.25 8.6 9.3 M4.95 6.6 L5.15 6.65 4.95 6.6 M4.55 5.8 L4.55 5.65 4.45 5.75 4.55 5.8 M7.5 15.0 L7.3 15.1 7.25 15.4 7.0 15.2 7.2 15.1 7.5 15.0 M1.7 -2.65 Q1.15 -2.35 1.05 -1.5 1.0 -0.95 1.55 -0.8 L1.6 -0.8 Q1.25 -1.2 1.35 -1.8 1.45 -2.3 1.7 -2.65 M-4.2 -1.85 L-4.2 -1.8 -4.5 -1.65 -4.75 -1.4 Q-4.65 -0.55 -3.7 -0.35 L-3.35 -0.5 -3.0 -1.05 -3.1 -1.2 Q-3.4 -1.85 -4.2 -1.85 M-4.1 0.9 L-3.5 0.7 -3.4 0.3 -3.45 -0.1 -3.6 -0.25 -3.95 -0.4 -4.25 -0.3 -4.3 -0.25 Q-4.7 -0.65 -5.55 -0.85 L-6.2 -0.1 Q-6.7 0.75 -6.55 1.25 L-6.3 1.3 Q-5.95 1.6 -6.05 1.9 L-5.05 2.15 -4.45 1.65 -4.1 0.9 M-6.2 2.5 L-6.6 3.0 Q-7.55 4.6 -6.4 5.15 L-6.3 5.2 -6.15 5.25 -5.2 5.4 -4.6 4.8 -4.45 4.55 -4.15 3.95 -4.3 3.6 Q-4.45 3.05 -5.15 2.6 L-6.2 2.5 M0.25 2.25 L0.35 2.15 0.2 2.0 0.25 2.25 M-6.05 5.65 L-6.65 6.3 Q-7.2 7.15 -6.95 8.15 L-6.6 8.5 -6.4 8.7 -5.55 8.7 -5.3 8.45 Q-3.75 6.25 -6.05 5.65 M-1.7 21.85 L-1.6 21.65 -1.95 21.05 -2.65 21.2 -1.7 21.85 M-5.15 19.4 L-5.15 19.45 -5.2 20.4 -5.25 20.35 Q-6.85 19.6 -6.5 18.05 L-6.25 18.05 Q-6.3 19.15 -5.15 19.4 M4.2 30.9 L4.05 31.45 4.15 31.7 4.05 31.45 4.05 31.4 4.2 30.9 M9.1 25.85 L9.05 25.8 9.1 25.95 9.1 26.5 Q8.65 26.55 8.3 26.75 7.7 27.2 7.8 27.95 8.0 29.7 9.45 29.45 L9.5 29.55 9.85 29.6 8.95 29.5 9.5 29.65 9.7 30.15 9.4 30.55 Q9.05 31.15 9.05 31.6 L8.25 31.7 8.25 32.2 9.1 31.9 Q9.3 32.45 10.3 32.6 9.7 32.7 9.2 33.15 L9.05 33.15 Q8.6 33.25 8.2 33.5 7.75 33.75 8.0 34.35 L8.55 33.75 Q8.0 34.4 8.25 35.1 L7.55 34.9 Q6.85 35.0 6.25 35.55 L5.35 36.65 5.3 36.8 4.6 34.25 4.45 33.55 4.45 33.5 5.05 31.75 5.15 31.5 5.65 30.0 6.1 29.05 Q7.05 27.1 8.3 25.35 L9.2 24.15 9.1 25.85 M6.1 40.25 L6.9 40.2 Q7.45 40.15 7.9 39.75 8.65 39.1 9.0 38.1 L9.2 37.45 Q10.0 38.0 10.45 37.75 L10.0 38.45 Q9.35 39.95 10.55 40.25 L10.5 40.65 Q10.15 43.2 10.1 45.85 L10.1 45.95 Q9.35 44.3 9.3 42.35 L9.0 44.1 Q8.5 43.5 7.75 43.55 L6.75 43.6 6.1 40.25 M7.85 48.15 L7.35 46.3 Q7.75 45.6 8.45 45.55 L8.5 45.55 8.4 45.45 Q7.7 45.25 7.15 45.75 6.45 44.75 6.9 43.8 8.1 43.65 9.0 44.4 9.05 45.8 9.55 46.95 L9.4 47.0 8.75 47.4 7.85 48.15 M11.25 49.7 L11.2 50.6 10.75 54.8 10.4 54.8 Q10.1 54.95 9.9 55.25 L9.75 55.6 Q9.95 54.85 9.15 54.65 9.65 54.0 9.2 52.9 9.7 51.2 11.0 50.0 L11.25 49.7 M7.75 55.0 L7.45 55.45 Q7.15 57.1 8.85 56.55 L9.55 55.95 9.65 55.75 Q9.35 56.55 10.1 57.1 9.25 58.6 8.85 60.15 8.5 60.6 8.3 61.15 L8.1 62.25 8.1 62.75 7.65 63.25 7.55 63.5 7.1 63.85 7.55 63.55 7.5 63.65 7.05 64.05 7.0 64.15 6.85 64.4 Q7.4 64.6 7.2 65.45 L6.9 65.75 6.65 65.8 6.25 65.65 6.15 65.95 Q5.9 65.45 5.3 65.35 L4.9 65.45 4.8 65.5 5.35 64.4 Q6.3 63.65 6.55 62.5 L6.5 62.35 Q6.2 61.7 5.55 61.65 L5.2 61.75 5.1 61.8 5.55 61.25 Q5.9 60.85 6.3 60.65 L6.75 60.7 6.65 60.55 6.0 60.5 5.45 60.55 5.65 60.3 5.9 60.1 5.5 60.0 Q4.6 59.7 4.75 58.75 4.0 58.25 4.05 56.8 4.1 55.25 5.65 54.7 L5.9 54.65 5.6 54.6 5.35 54.4 5.05 54.05 5.0 53.85 5.0 53.5 5.0 53.35 5.0 53.3 5.05 53.15 5.65 52.55 5.8 52.6 Q6.85 52.75 7.0 53.3 L7.05 53.4 Q7.1 53.8 6.55 54.45 L6.55 54.5 6.6 54.5 6.8 54.5 7.2 54.65 7.75 55.0 M12.0 89.7 L12.1 90.1 Q12.65 92.25 12.75 94.5 L12.85 95.15 12.75 95.3 12.0 96.55 11.5 98.0 Q11.1 96.75 11.0 95.55 L11.6 95.55 Q11.3 95.0 10.6 95.15 L10.95 95.1 10.9 94.15 12.05 94.45 Q11.55 93.8 10.95 93.7 L11.25 92.25 12.0 89.7 M14.45 99.45 Q15.1 100.6 16.45 101.25 L16.3 101.95 Q16.05 102.8 16.3 103.5 16.6 102.4 17.05 101.35 L17.1 101.35 17.3 101.2 17.05 102.05 Q16.8 103.3 18.05 103.55 L18.35 103.8 19.15 103.9 19.1 103.95 19.05 104.1 18.85 104.45 18.75 104.7 18.25 106.7 18.85 106.6 19.4 105.1 20.25 105.15 20.45 105.1 21.2 104.9 21.3 104.85 21.3 105.0 21.15 105.15 Q20.7 105.8 20.8 106.55 L21.1 107.2 Q20.9 108.0 21.05 109.05 20.15 109.05 19.8 108.35 L18.85 107.15 18.2 106.7 Q16.75 105.7 15.15 105.3 L14.15 102.1 14.2 101.05 Q14.2 100.2 14.45 99.45 M17.4 100.9 L17.3 100.8 17.3 100.75 17.7 99.9 Q18.5 99.0 19.8 99.0 L21.2 99.1 22.35 101.2 Q21.0 101.75 20.0 102.85 L19.95 102.9 19.7 103.15 20.1 102.7 20.15 102.45 20.75 101.65 Q21.0 101.2 20.7 100.75 L20.7 100.7 20.75 100.55 20.8 100.5 20.7 100.35 20.6 100.3 20.4 100.35 20.2 100.35 20.1 100.15 19.9 100.0 18.6 99.8 Q18.15 99.8 17.85 100.15 L17.4 100.9 M10.8 37.45 L10.7 37.55 10.8 37.35 10.8 37.45 M5.1 51.4 L5.4 51.85 5.2 52.35 5.2 52.4 Q4.3 52.7 4.3 51.75 L4.5 51.4 4.85 51.3 5.1 51.4 M8.5 58.75 L8.6 58.75 8.6 58.65 8.5 58.75 M6.7 59.75 L6.65 59.8 6.7 59.8 6.7 59.75 M16.55 72.95 L15.95 72.85 16.3 72.7 16.45 72.65 16.55 72.95 M12.45 78.75 L12.45 79.3 12.85 78.9 13.45 78.5 14.25 78.5 14.75 78.95 14.8 78.8 14.9 78.65 14.45 78.25 12.9 78.15 12.75 78.05 12.45 78.75 M12.2 87.35 L12.4 87.95 12.2 87.85 12.2 87.35 M14.7 88.65 L14.8 88.8 15.55 88.5 15.45 88.35 Q14.95 88.2 14.7 88.65 M8.4 101.15 L7.9 101.4 7.15 101.85 6.85 102.1 Q7.3 101.65 7.9 101.25 L8.4 101.15 M11.3 99.4 L11.25 99.4 11.3 99.35 11.3 99.4 M6.7 97.1 L6.3 97.35 Q5.15 98.2 4.75 99.4 L4.7 99.5 4.45 100.2 4.0 101.15 3.8 101.55 3.7 101.2 Q4.25 99.05 6.0 97.45 L6.6 96.8 6.7 97.1 M6.95 101.05 L6.8 101.2 6.8 101.1 6.95 101.05 M1.65 116.8 Q1.6 117.25 1.85 117.45 L2.1 118.15 Q1.4 118.0 1.35 117.3 L0.2 116.9 1.65 116.8" fill="#4f7500" fill-rule="evenodd" stroke="none"/>
    <path d="M17.25 81.0 L17.5 81.95 Q17.3 81.45 16.7 81.2 L16.95 80.85 17.25 81.0 M25.5 106.55 Q25.35 107.1 25.45 107.75 L26.0 106.85 Q26.45 106.95 26.85 107.2 27.65 107.25 28.3 107.7 L28.35 107.75 Q29.25 108.0 28.8 108.75 L28.4 108.9 26.85 108.75 26.5 108.7 Q26.1 108.7 25.9 108.4 L24.85 108.1 24.55 107.85 23.55 107.6 23.45 107.55 21.95 107.4 21.9 107.35 21.75 107.35 Q21.9 106.4 22.6 105.7 L23.3 104.95 22.8 104.85 Q21.45 105.8 21.1 107.2 L20.8 106.55 Q20.7 105.8 21.15 105.15 L21.3 105.0 21.3 105.1 21.3 105.25 21.3 105.2 21.35 105.15 22.4 104.2 22.85 104.0 22.9 104.0 23.35 104.4 23.4 104.45 Q23.85 104.45 24.1 104.8 L24.3 105.35 24.7 105.65 24.9 106.2 Q25.25 106.2 25.5 106.55 M5.85 115.25 L5.15 115.1 5.15 115.05 5.3 114.75 5.65 114.4 5.95 114.35 6.9 114.65 7.0 114.75 7.3 114.95 6.75 115.65 6.6 115.6 6.55 115.55 Q6.2 115.35 5.85 115.25 M6.4 113.4 L6.3 113.4 7.05 111.75 7.1 111.5 7.3 111.05 7.55 110.6 7.85 110.6 9.15 110.75 9.1 111.3 8.75 112.3 7.85 114.1 6.4 113.4 M7.2 110.55 L7.1 109.8 6.5 108.65 6.45 108.55 6.45 108.5 6.3 107.8 6.5 107.1 7.15 105.9 8.45 104.25 8.25 104.05 Q6.85 104.95 6.15 106.3 L5.55 106.1 4.45 107.05 3.85 107.05 3.6 106.85 Q3.3 106.3 3.5 105.65 L4.1 104.6 4.5 104.2 4.55 104.15 Q4.2 104.7 4.1 105.3 L4.05 106.45 4.1 106.6 Q4.8 105.75 5.0 104.75 L5.2 104.25 5.25 104.15 6.85 102.1 7.15 101.85 7.9 101.4 8.4 101.15 10.8 100.65 Q12.25 101.5 13.05 102.95 L13.3 103.4 12.9 103.3 12.35 103.05 Q10.6 103.0 9.25 103.9 9.65 104.15 9.55 104.9 L9.3 105.6 9.0 106.35 8.85 108.15 8.2 109.9 7.75 110.0 7.65 110.05 7.6 110.1 7.4 110.25 7.3 110.45 7.25 110.55 7.2 110.55 M-3.8 109.85 L-4.3 109.9 -4.75 110.0 -4.85 110.0 -6.6 110.3 Q-6.05 109.45 -4.9 108.75 L-2.65 107.3 -1.2 107.95 Q-1.25 108.8 -2.3 109.1 -3.1 109.4 -3.8 109.85 M-0.65 106.75 L-2.05 105.9 -2.7 106.0 Q-2.95 105.0 -2.45 104.15 L-1.6 103.95 -0.6 104.1 -0.45 104.15 0.0 104.35 0.45 104.55 0.25 105.1 -0.05 105.75 -0.65 106.75 M-0.4 102.6 L-1.15 102.6 Q-0.5 101.3 0.5 100.3 L0.7 100.35 1.9 100.9 1.7 101.1 0.9 103.55 0.7 103.3 0.45 103.05 0.4 103.0 -0.4 102.6 M2.05 98.2 Q1.95 96.6 2.4 94.95 L2.5 94.6 2.9 94.15 2.75 93.3 2.85 92.8 3.0 91.35 3.0 91.15 3.0 90.95 Q4.3 88.55 3.95 85.95 L3.7 83.05 3.65 82.5 3.85 81.9 Q4.15 81.1 3.75 80.35 L3.7 80.2 3.75 79.8 3.75 79.45 3.85 78.25 Q3.95 78.85 4.5 79.3 5.1 77.45 4.1 75.9 L5.05 76.2 Q6.05 76.45 6.5 75.55 7.3 73.95 6.45 73.05 L6.65 72.05 6.75 72.0 7.45 71.4 7.85 73.45 7.65 74.65 Q7.55 75.7 7.75 76.75 L7.7 77.0 7.8 77.45 Q7.8 79.5 8.1 81.55 L8.05 83.6 7.2 86.4 6.3 87.25 Q4.8 88.5 4.8 90.45 L5.0 92.45 5.05 92.75 Q5.4 93.65 4.7 94.15 L4.45 94.15 3.7 94.0 Q3.2 94.05 3.35 94.55 L3.55 95.0 4.35 95.85 5.75 95.8 Q7.2 94.55 7.3 92.6 L7.3 92.3 7.45 89.65 7.8 88.7 7.85 88.65 8.35 88.0 9.55 86.35 10.5 84.7 11.6 88.05 12.05 89.4 12.0 89.7 11.25 92.25 10.95 93.7 10.1 93.75 8.85 93.6 Q8.15 93.1 7.75 94.05 9.25 94.9 9.6 96.7 8.1 96.25 6.7 97.1 L6.6 96.8 6.0 97.45 Q4.25 99.05 3.7 101.2 3.45 100.25 2.85 99.65 L2.6 99.4 2.15 99.1 2.05 98.2 M3.6 75.3 L3.1 74.45 3.6 73.9 3.7 74.05 Q3.4 74.8 3.6 75.3 M2.6 72.35 L1.85 72.9 1.9 72.15 2.0 72.25 2.6 72.35 M1.4 69.15 L1.5 68.8 Q1.7 68.05 1.25 67.4 L1.3 66.7 1.75 67.2 2.15 67.2 2.65 67.75 2.55 67.65 Q2.25 67.5 2.35 67.1 L2.85 66.2 2.75 66.05 Q1.25 64.4 3.1 63.05 L3.55 62.65 4.15 62.7 Q3.8 63.3 3.95 64.1 L4.15 64.3 4.35 64.45 5.1 64.55 5.3 64.4 5.35 64.4 4.8 65.5 4.9 65.45 5.3 65.35 Q5.9 65.45 6.15 65.95 L6.25 65.65 6.65 65.8 7.1 66.2 6.55 66.15 6.3 66.25 6.0 66.95 5.65 67.3 4.65 67.1 4.6 67.25 4.55 67.25 4.4 67.3 4.35 67.35 4.15 67.5 4.0 67.85 3.9 68.05 3.05 67.95 2.9 67.85 2.9 68.1 2.55 68.15 2.35 68.2 1.95 68.55 1.4 69.15 M1.8 63.65 L1.65 63.75 Q1.55 61.55 2.95 59.8 L3.1 59.6 Q3.9 58.45 3.75 57.05 L3.4 55.5 3.65 55.35 3.45 52.55 3.3 51.85 3.05 51.4 3.05 51.35 2.9 50.25 2.2 45.8 2.0 44.8 1.6 43.0 1.75 43.65 2.1 41.05 Q2.1 39.95 2.25 38.85 L2.4 37.7 2.5 37.15 2.95 38.3 4.25 39.95 4.55 40.15 6.1 40.25 6.75 43.6 6.4 43.6 5.95 41.3 Q5.55 43.75 6.45 46.05 L7.55 49.45 7.85 50.7 8.25 48.95 9.15 48.1 8.45 48.2 7.95 48.55 7.85 48.15 8.75 47.4 9.4 47.0 9.55 46.95 10.55 48.5 10.75 48.8 11.25 49.7 11.0 50.0 Q9.7 51.2 9.2 52.9 9.65 54.0 9.15 54.65 L8.7 54.6 Q8.25 54.6 7.75 54.95 L7.75 55.0 7.2 54.65 7.05 53.4 7.0 53.3 6.35 51.2 4.25 46.9 4.6 45.75 3.95 46.15 Q3.05 43.45 3.35 40.5 L3.0 43.6 Q2.75 45.8 3.6 47.8 L5.1 51.4 4.85 51.3 4.5 51.4 4.3 51.75 Q4.3 52.7 5.2 52.4 L5.2 52.35 5.4 51.85 5.8 52.6 5.65 52.55 5.05 53.15 5.0 53.3 5.0 53.35 Q4.65 53.45 4.3 53.7 4.55 54.2 4.95 53.9 L5.0 53.85 5.05 54.05 5.35 54.4 5.6 54.6 5.9 54.65 5.65 54.7 Q4.1 55.25 4.05 56.8 4.0 58.25 4.75 58.75 4.6 59.7 5.5 60.0 L5.9 60.1 5.65 60.3 5.45 60.55 6.0 60.5 6.65 60.55 6.75 60.7 6.3 60.65 Q5.9 60.85 5.55 61.25 L5.1 61.8 4.55 62.25 4.35 61.8 4.0 61.8 Q1.75 61.85 1.8 63.65 M-1.4 33.5 L-3.4 28.55 -3.7 27.9 Q-3.15 27.95 -2.6 27.2 -1.75 26.1 -2.0 25.3 L-1.95 25.25 -1.9 25.2 Q-1.3 24.45 -2.1 24.1 L-2.45 24.2 -2.35 24.1 Q-1.55 23.25 -1.5 22.6 L-0.6 22.65 -0.4 22.45 0.25 22.4 Q-0.7 23.8 1.0 24.85 L1.75 24.9 1.8 25.15 1.15 25.0 1.05 25.1 0.05 25.05 -0.15 25.2 -0.3 25.75 -0.45 25.75 -0.6 25.8 -0.8 25.75 -0.8 25.9 -1.3 26.5 Q-1.8 27.75 -0.6 28.35 L-0.4 28.75 Q0.05 29.25 0.65 29.2 L-0.85 31.3 Q-1.4 32.1 -1.6 32.95 L-1.4 33.5 M-4.8 26.8 L-5.15 26.9 -5.25 24.25 -5.25 24.2 -5.05 24.2 -4.35 24.9 -4.45 25.55 Q-5.0 26.15 -4.8 26.8 M-5.85 23.4 L-6.7 23.4 Q-6.95 21.8 -6.4 20.5 L-6.6 20.3 -6.8 20.5 -7.45 19.4 -7.55 19.2 -7.65 17.85 -7.6 17.65 -7.55 17.0 Q-7.55 16.45 -7.7 15.95 L-8.35 14.95 Q-8.8 14.1 -8.7 13.3 L-8.7 12.25 -8.15 11.35 -8.15 11.1 Q-8.2 10.45 -8.65 9.8 L-8.75 6.95 -7.75 7.4 -8.3 8.4 Q-8.8 9.9 -7.6 10.85 L-7.45 10.95 -6.15 10.7 -6.45 11.8 Q-6.5 12.7 -6.1 13.4 L-5.9 13.7 -6.05 13.8 -6.5 14.1 -7.15 14.15 -7.15 14.9 -6.7 14.45 -6.5 14.25 -5.75 14.3 Q-5.2 14.65 -5.1 15.25 L-5.1 15.9 -4.7 15.75 Q-4.8 14.8 -3.9 14.45 L-2.95 14.25 -3.0 14.25 -3.15 14.4 -3.25 15.15 -3.2 16.1 -2.95 16.45 -2.7 16.65 -2.55 16.7 -2.9 16.9 Q-2.95 17.4 -3.4 18.0 L-3.55 18.2 -3.8 18.95 -4.05 19.3 Q-4.25 19.05 -4.55 18.9 L-4.85 18.95 -5.05 19.05 -5.15 19.4 Q-6.3 19.15 -6.25 18.05 L-6.5 18.05 Q-6.85 19.6 -5.25 20.35 L-5.2 20.4 -4.95 21.15 -4.1 21.1 -4.0 20.9 -3.95 20.85 -2.8 21.2 Q-3.7 21.45 -4.5 22.0 L-4.5 21.95 Q-4.6 21.35 -5.1 21.25 L-5.15 21.15 -5.25 21.25 -5.55 21.25 -5.65 21.35 -5.75 21.35 -5.8 21.5 Q-6.2 21.95 -5.9 22.4 L-5.9 22.55 -6.0 22.95 -5.85 23.4 M-8.8 3.25 Q-8.4 -0.3 -6.8 -3.35 L-6.7 -3.5 Q-5.55 -6.3 -3.8 -8.85 L-1.95 -10.15 -1.45 -10.35 Q-0.8 -10.55 0.05 -10.35 L-0.55 -9.0 Q-2.15 -6.3 -2.95 -3.45 L-3.25 -3.35 -3.3 -3.35 -3.55 -2.95 -4.3 -3.2 -4.9 -2.75 -5.15 -2.45 -5.7 -2.45 Q-6.45 -2.35 -6.85 -1.65 -7.45 -0.65 -7.0 0.05 L-6.75 1.05 -6.8 1.3 -6.85 1.4 Q-7.45 1.7 -7.05 2.25 L-7.55 2.25 -8.8 3.25 M4.4 -3.4 L4.8 -3.9 4.8 -4.25 5.05 -4.45 5.6 -4.65 5.9 -4.85 Q8.05 -4.6 6.8 -3.0 L6.65 -2.8 Q6.7 -3.8 5.15 -4.1 L4.25 -3.2 4.25 -3.35 4.4 -3.4 M7.9 3.45 L7.95 3.35 7.9 3.5 7.9 3.45 M7.1 -0.05 L7.4 -0.25 7.7 -0.1 7.0 0.05 7.1 -0.05 M-0.3 11.6 L-0.25 11.55 -0.1 11.25 1.2 11.35 Q1.45 12.05 2.15 12.2 L2.05 12.95 2.0 13.15 1.45 13.5 Q0.9 13.75 0.45 14.1 L0.0 14.9 -0.75 15.7 -1.3 15.75 Q-1.15 14.7 -1.8 13.95 L-2.5 13.9 -2.35 13.55 Q-2.1 12.9 -1.4 12.7 L-1.05 12.5 -0.95 12.55 -0.45 11.8 -0.3 11.6 M-1.7 16.55 L-1.05 16.6 Q-0.05 17.5 -1.1 18.35 L-1.45 18.7 -1.65 18.75 -2.4 18.75 -2.55 18.55 -2.75 18.35 -2.8 18.2 -2.8 17.45 -2.1 16.7 -1.95 16.7 -1.75 16.6 -1.7 16.55 M7.2 15.1 L7.8 14.55 7.75 14.7 7.5 15.0 7.2 15.1 M-4.2 -1.85 Q-3.4 -1.85 -3.1 -1.2 L-3.0 -1.05 -3.35 -0.5 -3.7 -0.35 Q-4.65 -0.55 -4.75 -1.4 L-4.5 -1.65 -4.2 -1.8 -4.2 -1.85 M-4.1 0.9 L-4.45 1.65 -5.05 2.15 -6.05 1.9 Q-5.95 1.6 -6.3 1.3 L-6.55 1.25 Q-6.7 0.75 -6.2 -0.1 L-5.55 -0.85 Q-4.7 -0.65 -4.3 -0.25 L-4.45 -0.2 -4.55 0.2 -4.4 0.75 -4.1 0.9 M-6.2 2.5 L-5.15 2.6 Q-4.45 3.05 -4.3 3.6 L-4.15 3.95 -4.45 4.55 -4.6 4.8 -5.2 5.4 -6.15 5.25 -6.3 5.2 -6.4 5.15 Q-7.55 4.6 -6.6 3.0 L-6.2 2.5 M-4.45 6.85 L-3.65 8.3 -2.85 8.3 -2.6 8.05 -2.15 6.95 -2.0 7.15 -1.95 7.3 -1.95 7.2 -1.8 7.0 -1.2 6.65 0.15 6.7 0.35 6.9 0.6 7.45 0.6 7.65 0.15 8.2 -1.8 7.95 -1.9 7.75 -1.95 7.45 -2.1 7.9 -2.55 8.4 -2.75 8.45 -2.7 9.35 -2.6 9.4 -2.1 8.9 -2.05 8.9 Q-0.3 8.4 -0.05 9.9 0.05 10.65 -0.55 11.0 L-1.6 11.2 -2.4 11.2 -2.9 11.8 -2.9 12.05 -3.0 12.8 -3.8 13.25 -3.45 12.1 Q-3.05 9.85 -5.15 9.55 L-5.75 10.05 -5.55 9.25 -5.2 8.8 -4.35 8.05 -4.65 7.75 -4.65 7.55 -4.6 7.4 -4.55 7.0 -4.45 6.85 M-6.05 5.65 Q-3.75 6.25 -5.3 8.45 L-5.55 8.7 -6.4 8.7 -6.6 8.5 -6.95 8.15 Q-7.2 7.15 -6.65 6.3 L-6.05 5.65 M-1.7 21.85 L-2.65 21.2 -1.95 21.05 -1.6 21.65 -1.7 21.85 M2.1 27.45 L2.1 27.25 2.25 27.05 2.3 26.95 2.4 27.2 2.1 27.45 M4.05 31.45 L4.05 31.4 4.05 31.45 M2.55 33.2 L2.6 32.9 2.65 33.05 2.55 33.15 2.55 33.2 M7.55 63.5 L7.55 63.55 7.1 63.85 7.55 63.5 M7.5 63.65 L7.5 64.25 7.35 65.0 7.25 64.65 7.0 64.15 7.05 64.05 7.5 63.65 M12.75 95.3 Q12.75 97.5 14.25 99.05 L14.5 99.3 14.45 99.45 Q14.2 100.2 14.2 101.05 L14.15 102.1 14.15 102.0 Q13.7 100.3 11.9 99.4 L11.3 99.4 11.3 99.35 11.25 99.4 Q11.6 98.25 10.75 97.5 9.95 96.75 10.3 95.55 L11.0 95.55 Q11.1 96.75 11.5 98.0 L12.0 96.55 12.75 95.3 M17.3 101.2 L17.35 100.95 17.4 100.95 17.4 100.9 17.85 100.15 Q18.15 99.8 18.6 99.8 L19.9 100.0 20.1 100.15 20.2 100.35 20.4 100.35 20.6 100.3 20.7 100.35 20.8 100.5 20.75 100.55 20.7 100.7 20.7 100.75 Q21.0 101.2 20.75 101.65 L20.15 102.45 20.1 102.7 19.7 103.15 19.95 102.9 20.0 102.85 19.5 103.4 19.45 103.5 19.4 103.6 19.15 103.9 19.05 104.1 19.1 103.95 19.15 103.9 18.35 103.8 18.05 103.55 Q16.8 103.3 17.05 102.05 L17.3 101.2 M19.4 105.1 L20.3 103.6 Q20.8 102.9 21.45 102.5 L21.95 102.75 Q22.3 103.05 22.2 103.45 L22.15 103.6 21.85 103.85 21.75 103.9 Q21.35 104.35 21.3 104.85 L21.2 104.9 20.45 105.1 20.25 105.15 19.4 105.1 M11.0 47.5 L10.6 46.9 Q12.1 47.2 11.65 48.8 L11.0 47.5 M8.5 58.75 L8.6 58.65 8.6 58.75 8.5 58.75 M6.6 54.5 L6.55 54.5 6.55 54.45 6.6 54.5 M6.7 59.75 L6.7 59.8 6.65 59.8 6.7 59.75 M5.6 68.25 Q7.45 69.4 5.35 70.75 L5.65 70.75 Q7.05 72.85 4.7 73.75 4.15 73.95 4.0 73.4 3.5 72.0 4.5 71.1 L5.0 71.1 5.25 70.7 5.5 70.3 5.4 69.95 5.35 69.75 5.6 69.15 5.75 68.6 5.6 68.25 M14.5 93.5 L14.5 93.45 Q15.85 92.35 17.5 92.15 L17.55 92.15 17.6 92.15 Q19.65 92.3 18.85 93.95 L18.85 94.05 18.7 94.25 18.3 94.55 17.75 94.95 18.15 94.35 18.65 93.85 18.65 93.55 18.35 93.55 Q17.5 94.2 17.6 95.05 16.3 96.0 15.5 97.3 L15.3 96.9 Q14.6 95.5 14.4 94.0 L14.3 93.65 14.5 93.5 M13.25 75.85 L12.65 76.7 12.45 76.5 12.45 76.3 12.45 76.25 12.1 76.2 11.85 76.0 11.6 75.65 11.6 75.45 Q11.55 75.15 11.65 74.9 L11.8 74.7 11.95 74.5 12.2 74.45 12.2 74.4 12.5 74.4 12.3 74.15 12.3 73.95 12.3 73.75 12.35 73.4 Q12.55 72.95 13.0 72.8 L13.35 72.65 13.65 73.0 Q13.1 73.45 13.2 74.1 L13.35 74.8 13.25 74.8 13.3 74.9 13.4 74.85 13.45 75.0 13.15 75.3 13.2 75.65 13.25 75.85 M12.45 78.75 L12.75 78.05 12.9 78.15 14.45 78.25 14.9 78.65 14.8 78.8 14.75 78.95 14.25 78.5 13.45 78.5 12.85 78.9 12.45 79.3 12.45 78.75 M10.0 82.5 L10.0 82.4 10.05 82.5 10.0 82.5 M6.2 77.6 L5.95 77.4 6.05 77.7 7.1 81.65 7.55 83.6 7.7 82.45 Q7.75 81.1 7.25 79.8 7.1 78.4 6.2 77.6 M9.7 90.9 Q9.35 90.5 8.9 90.6 8.0 90.7 8.0 91.45 L8.45 91.85 8.4 91.15 Q8.95 90.6 9.7 90.9 M14.7 81.5 L14.7 81.45 15.2 80.95 15.55 81.3 Q15.15 81.55 14.95 82.1 L14.8 82.8 14.6 82.45 Q14.3 81.95 14.7 81.5 M15.85 93.25 L15.65 93.0 15.55 93.1 15.5 93.4 15.75 93.85 15.85 93.25 M10.6 95.15 L10.55 95.15 Q9.8 95.35 9.8 94.45 L10.9 94.15 10.95 95.1 10.6 95.15 M3.95 102.4 L4.5 101.35 4.6 101.15 4.65 101.05 Q5.35 99.15 7.0 97.75 9.15 97.4 10.5 99.2 L10.6 99.5 Q8.55 99.7 7.0 101.0 L6.95 101.05 6.8 101.1 6.8 101.2 5.8 102.2 5.7 102.25 4.75 103.6 4.5 103.85 Q3.45 103.95 3.5 103.0 L3.95 102.4 M16.8 107.75 L17.1 107.9 17.05 107.9 14.45 107.85 14.05 107.85 11.9 107.75 11.5 107.45 Q11.1 106.5 12.1 106.05 L12.7 105.9 12.35 106.0 Q11.7 106.35 11.45 107.1 13.1 106.0 14.8 106.75 L15.15 106.9 Q15.95 107.25 16.7 107.7 L16.8 107.75" fill="#58852c" fill-rule="evenodd" stroke="none"/>
    <path d="M2.65 -8.4 L0.25 -10.3 0.05 -10.35 Q-0.8 -10.55 -1.45 -10.35 L-1.95 -10.15 -3.8 -8.85 Q-5.55 -6.3 -6.7 -3.5 L-6.8 -3.35 Q-8.4 -0.3 -8.8 3.25 -9.4 4.0 -9.4 5.15 -9.4 6.4 -8.75 6.95 L-8.65 9.8 Q-8.2 10.45 -8.15 11.1 L-8.15 11.35 -8.7 12.25 -8.7 13.3 Q-8.8 14.1 -8.35 14.95 L-7.7 15.95 Q-7.55 16.45 -7.55 17.0 L-7.6 17.65 -7.65 17.85 -7.55 19.2 -7.45 19.4 -6.8 20.5 -6.6 20.3 -6.4 20.5 Q-6.95 21.8 -6.7 23.4 L-5.85 23.4 -5.65 23.6 -5.35 24.15 -5.25 24.25 -5.15 26.9 -4.8 26.8 -4.65 27.1 Q-4.2 27.8 -3.7 27.9 L-3.4 28.55 -1.4 33.5 -1.05 34.45 -1.4 35.8 -1.6 37.1 Q-1.3 38.9 -1.3 40.95 -1.3 42.15 -0.45 43.05 L-0.05 43.55 0.0 43.55 0.15 43.8 0.85 44.8 1.25 41.35 1.35 41.95 1.35 42.05 1.55 42.75 1.6 43.0 2.0 44.8 2.2 45.8 2.9 50.25 3.05 51.35 3.05 51.4 3.4 55.5 3.75 57.05 Q3.9 58.45 3.1 59.6 L2.95 59.8 Q1.55 61.55 1.65 63.75 L1.8 63.65 1.8 63.9 1.9 64.4 Q0.3 65.4 1.3 66.7 L1.15 67.25 1.25 67.4 Q1.7 68.05 1.5 68.8 L1.4 69.15 Q0.15 70.75 1.9 72.15 L1.85 72.9 2.6 72.35 2.75 72.35 3.25 72.8 Q3.25 73.35 3.55 73.85 L3.6 73.9 3.1 74.45 3.6 75.3 4.1 75.9 Q5.1 77.45 4.5 79.3 3.95 78.85 3.85 78.25 L3.75 79.45 3.75 79.8 3.65 80.65 3.65 82.5 3.7 83.05 3.95 85.95 Q4.3 88.55 3.0 90.95 L3.0 91.15 3.0 91.35 2.85 92.8 2.6 94.15 2.5 94.6 2.4 94.95 Q1.95 96.6 2.05 98.2 L1.85 98.3 Q0.95 99.0 0.7 100.05 L0.7 100.35 0.5 100.3 Q-0.5 101.3 -1.15 102.6 L-0.4 102.6 -1.2 102.85 Q-1.7 103.0 -1.7 103.45 L-1.6 103.95 -2.45 104.15 Q-2.95 105.0 -2.7 106.0 L-2.05 105.9 -0.65 106.75 -0.3 107.0 Q0.5 107.65 0.4 108.75 L-1.2 107.95 -2.65 107.3 -4.9 108.75 Q-6.05 109.45 -6.6 110.3 L-4.85 110.0 -4.75 110.0 -4.3 109.9 -3.8 109.85 -1.6 109.95 1.55 110.35 1.25 109.6 Q1.0 109.2 1.55 108.9 2.0 108.0 2.6 107.95 L3.3 108.15 Q4.25 108.75 5.45 108.35 L5.35 108.4 Q5.5 108.7 6.05 108.75 L6.45 108.65 6.5 108.65 7.1 109.8 7.2 110.55 7.2 110.65 7.1 111.5 7.05 111.75 6.3 113.4 6.4 113.4 6.3 113.45 6.1 113.75 5.9 114.1 5.95 114.35 5.65 114.4 5.3 114.75 5.15 115.05 5.15 115.1 5.85 115.25 5.4 115.15 4.8 115.55 4.4 116.1 4.35 116.1 Q3.7 116.45 3.7 116.85 L3.7 117.0 3.7 117.1 Q3.9 117.6 3.2 118.15 L4.2 118.0 6.9 117.35 8.25 117.1 8.4 116.85 10.05 115.25 Q10.85 114.15 12.15 113.7 L11.85 113.25 13.6 113.4 13.8 113.45 Q14.15 114.15 14.85 114.45 L15.95 114.4 16.5 115.35 21.05 115.65 Q21.95 116.75 23.5 116.9 L24.4 116.9 23.6 116.1 23.5 116.0 Q21.85 114.85 20.5 112.95 19.75 112.15 19.55 111.25 L20.45 111.15 21.65 109.85 21.85 109.45 21.8 108.95 21.95 110.0 Q22.75 109.8 23.5 110.0 L24.4 110.4 Q25.55 111.1 26.8 111.45 27.75 110.35 29.05 109.75 30.4 109.55 31.65 110.3 L31.7 110.3 32.4 110.6 32.45 110.6 34.2 110.5 34.1 110.35 33.1 110.0 Q32.6 109.8 32.45 110.5 L31.8 110.05 29.6 108.05 26.9 105.4 Q26.15 105.8 26.05 106.6 L26.0 106.85 25.45 107.75 Q25.35 107.1 25.5 106.55 25.7 105.65 26.4 104.95 L25.35 103.9 24.65 103.05 24.4 102.5 23.65 101.85 23.65 101.8 Q23.95 100.95 23.45 100.7 22.8 98.9 21.6 97.35 L21.5 97.3 21.4 97.2 19.65 96.6 18.55 96.7 Q19.0 96.0 19.75 95.7 L20.5 95.55 Q20.55 93.55 19.8 91.9 L19.7 91.65 18.95 90.85 Q18.35 90.45 18.25 89.65 L18.05 88.6 Q17.75 88.0 18.55 87.85 L18.85 88.75 Q18.85 89.65 19.7 90.1 L19.2 83.65 17.95 82.65 17.9 82.6 17.65 82.35 17.5 81.95 17.25 81.0 Q17.4 80.75 17.7 80.65 L18.15 81.25 19.4 81.15 Q19.05 79.95 18.35 79.0 L18.55 78.35 Q18.6 77.2 17.95 76.75 L18.3 76.15 18.35 76.5 19.1 76.6 Q18.9 74.8 18.25 73.1 L17.3 71.7 Q17.55 71.05 16.75 70.55 L16.2 68.4 Q16.0 66.9 15.45 65.6 L14.85 64.35 14.65 64.1 14.35 63.6 14.25 63.6 14.9 62.25 14.4 61.4 14.4 58.65 13.8 57.8 13.45 57.35 13.05 56.8 13.0 57.0 11.9 60.5 11.85 60.5 11.9 58.95 Q11.95 57.3 12.25 55.7 L12.45 54.85 12.75 53.55 Q13.2 51.3 12.75 49.1 L11.85 44.75 Q12.0 41.75 12.5 38.8 L12.65 37.8 Q12.9 35.4 12.6 33.0 L12.3 28.6 12.3 28.55 Q11.95 26.25 12.25 24.15 L11.85 23.6 Q11.55 23.4 11.9 22.95 L10.8 22.0 Q10.7 21.7 10.95 21.5 L11.25 21.45 Q11.7 21.45 12.15 21.95 L11.95 20.35 11.95 20.3 11.8 19.85 11.6 19.45 11.4 19.1 11.35 19.05 11.3 18.95 11.6 17.3 11.55 17.2 11.65 16.85 11.65 16.75 11.95 15.05 Q12.2 13.4 11.5 11.65 L11.3 11.0 10.2 12.25 10.45 10.6 10.45 10.5 10.4 9.8 10.1 8.3 9.2 6.5 8.5 5.75 Q8.85 5.15 9.6 5.25 L8.7 3.2 8.85 2.45 Q9.0 2.0 9.5 2.05 L9.35 1.5 9.3 1.35 9.15 0.8 8.05 -1.35 8.9 -1.7 Q8.35 -3.95 6.25 -5.0 L5.4 -5.85 4.6 -6.65 2.65 -8.4 M0.05 44.5 L-0.25 44.2 Q-1.4 43.0 -1.85 41.4 L-2.45 38.5 -2.65 35.9 -2.6 33.85 -2.55 33.6 Q-3.45 30.9 -4.95 28.55 L-5.25 28.2 Q-6.55 28.45 -6.7 27.35 L-6.6 24.65 -6.8 24.7 -7.5 24.85 Q-7.95 23.65 -7.55 22.35 -7.2 21.1 -8.15 20.2 -9.3 16.85 -9.7 13.15 L-9.7 2.3 Q-8.8 -2.1 -6.8 -5.75 L-6.7 -5.9 -6.6 -5.8 Q-4.85 -9.55 -1.25 -11.65 1.05 -11.7 2.75 -9.95 4.45 -8.15 6.25 -7.0 L8.25 -5.0 Q9.3 -4.05 9.65 -2.6 9.95 -1.45 9.45 -0.7 L10.25 1.15 Q10.7 2.1 10.0 3.0 11.2 4.95 10.9 7.2 L11.2 9.15 11.3 9.35 12.05 11.45 12.7 14.3 12.7 15.8 12.45 17.2 12.1 18.4 13.4 22.4 13.05 22.9 13.2 28.55 13.4 31.25 Q13.85 35.4 13.3 39.85 L12.75 44.95 Q14.75 50.15 13.15 55.4 L13.2 55.45 14.7 58.0 Q15.35 59.35 15.3 60.85 L15.2 62.65 Q16.2 64.55 16.6 66.7 17.1 69.7 18.85 72.15 19.95 74.65 19.8 77.5 L19.7 77.5 20.45 79.55 Q20.9 80.7 19.9 81.45 19.75 82.15 20.2 82.85 20.7 83.5 20.1 84.15 20.1 87.4 20.55 90.55 20.95 93.75 22.5 96.45 L25.5 102.45 32.25 109.05 33.4 108.95 34.65 109.4 35.7 110.2 Q37.3 109.95 38.45 110.8 L38.25 111.25 35.35 111.05 34.0 111.55 32.25 111.9 Q31.35 111.95 30.85 111.05 29.9 110.6 29.1 111.2 L27.45 111.95 27.1 112.95 Q25.4 111.6 23.5 110.9 L23.3 110.85 21.05 111.2 Q21.5 111.8 21.15 112.45 21.9 113.8 23.25 114.75 L23.5 114.95 25.65 117.0 Q25.75 117.65 25.05 117.85 L23.5 117.7 22.4 117.6 Q21.15 117.5 20.3 116.4 L16.7 116.2 Q14.95 115.95 13.6 114.6 12.55 114.1 11.55 114.6 10.6 115.5 10.05 116.5 9.5 117.55 8.15 117.85 L4.95 118.6 2.6 118.9 1.65 118.85 Q0.4 117.1 -1.75 117.4 -2.1 116.8 -1.6 116.75 L-0.85 116.4 0.7 116.1 Q1.3 115.9 2.2 116.1 L2.4 116.7 2.6 116.6 Q3.9 115.95 4.65 114.6 5.4 113.15 6.45 111.95 6.8 111.1 6.45 110.4 L5.6 109.05 Q4.2 108.75 3.45 109.65 L2.6 110.6 1.8 111.25 -0.5 111.2 Q-2.35 110.45 -4.4 110.75 L-6.8 111.2 -8.25 111.5 Q-7.75 110.2 -6.8 109.4 L-6.15 108.9 -3.4 106.95 Q-3.9 105.45 -3.3 104.1 -1.65 102.65 -0.8 100.7 0.05 98.7 1.15 96.9 1.8 94.65 2.1 92.3 2.2 90.9 2.6 89.55 L3.2 87.75 Q3.15 84.95 2.7 82.4 2.2 79.8 3.4 77.2 L2.55 75.9 Q2.1 75.25 2.2 74.35 L2.55 73.9 1.75 74.0 0.95 73.95 1.1 71.55 0.5 71.55 Q0.15 70.65 0.65 69.65 1.15 68.65 -0.1 68.65 0.05 66.8 1.1 65.15 0.55 65.1 0.3 64.65 0.75 61.55 2.35 58.75 2.7 52.1 1.35 45.8 L1.25 45.55 1.0 45.35 0.55 44.95 0.1 44.55 0.05 44.5 M7.7 39.25 L7.7 39.15 7.75 39.15 7.7 39.25 M8.45 45.55 L8.4 45.45 8.5 45.55 8.45 45.55 M17.7 74.45 L17.7 74.4 17.8 74.25 17.95 74.7 17.7 74.45 M9.55 67.4 L9.35 68.05 9.55 67.4 M6.2 77.6 L6.05 77.7 5.95 77.4 6.2 77.6 M4.45 100.2 L4.15 100.85 4.0 101.15 4.45 100.2 M2.45 103.85 L2.6 103.95 2.35 104.15 2.45 103.85 M4.5 101.35 L4.45 101.25 4.45 101.2 4.6 101.15 4.65 101.05 4.6 101.15 4.5 101.35 M7.3 110.45 L7.4 110.65 7.2 110.65 7.3 110.45 M21.3 105.1 L21.35 105.15 21.3 105.2 21.3 105.25 21.3 105.1 M1.65 116.8 L0.2 116.9 1.35 117.3 Q1.4 118.0 2.1 118.15 L1.85 117.45 Q1.6 117.25 1.65 116.8" fill="#000000" fill-rule="evenodd" stroke="none"/>
    <path d="M2.65 -8.4 L4.6 -6.65 5.4 -5.85 6.25 -5.0 Q8.35 -3.95 8.9 -1.7 L8.05 -1.35 9.15 0.8 9.3 1.35 9.35 1.5 9.5 2.05 Q9.0 2.0 8.85 2.45 L8.7 3.2 9.6 5.25 Q8.85 5.15 8.5 5.75 L9.2 6.5 10.1 8.3 10.4 9.8 10.45 10.5 10.45 10.6 10.2 12.25 9.25 15.9 8.4 18.35 8.35 18.4 8.1 18.95 7.95 19.3 7.85 19.6 7.7 19.85 6.15 22.45 4.05 25.55 4.05 25.1 3.6 25.85 3.5 25.4 3.6 25.2 Q3.9 24.35 4.5 23.65 L4.6 23.45 4.75 23.3 5.0 22.95 5.55 22.3 6.45 21.05 7.4 19.3 7.8 18.4 Q7.4 17.85 7.25 17.05 L7.2 16.75 7.05 17.05 6.75 17.65 Q6.9 16.55 6.0 16.2 L6.3 15.7 Q7.1 14.05 5.7 13.4 L5.8 13.15 Q6.2 11.95 5.65 11.25 L6.4 10.3 Q6.35 11.4 7.35 11.6 L7.25 11.05 Q6.8 10.9 6.65 10.25 6.5 9.65 6.85 9.2 L7.1 8.85 7.0 8.9 6.7 9.2 6.7 8.7 6.95 8.65 7.35 8.5 6.7 8.1 5.85 8.3 Q4.8 8.0 5.15 6.95 L5.45 6.5 5.55 6.45 5.7 6.4 5.65 6.1 5.3 5.65 5.3 5.55 Q4.35 5.7 4.2 4.7 4.05 3.6 5.15 3.45 L5.2 3.4 5.55 3.45 Q5.25 2.95 5.5 2.45 L5.35 2.5 3.9 2.45 2.35 2.55 Q2.1 2.35 2.15 2.05 2.25 1.2 3.0 0.9 L2.8 0.4 2.6 0.3 2.2 0.2 1.7 0.3 1.55 0.35 2.15 -0.25 Q3.25 0.5 4.1 -0.85 4.7 -1.0 4.75 -1.6 4.9 -2.7 4.1 -3.05 L4.15 -3.1 3.95 -3.75 3.85 -3.75 3.75 -3.45 3.6 -3.2 3.2 -3.25 Q2.3 -3.3 1.8 -2.8 0.6 -3.8 1.6 -4.65 L1.5 -5.5 Q1.5 -5.95 1.95 -6.2 L2.05 -6.2 2.45 -6.25 2.95 -6.2 2.6 -6.9 Q2.25 -7.65 2.65 -8.4 M11.3 18.95 L11.35 19.05 11.4 19.1 11.6 19.45 11.8 19.85 11.95 20.3 11.95 20.35 11.65 20.8 11.25 21.45 10.95 21.5 Q10.7 21.7 10.8 22.0 L11.9 22.95 Q11.55 23.4 11.85 23.6 L12.25 24.15 Q11.95 26.25 12.3 28.55 L12.3 28.6 12.6 33.0 Q12.9 35.4 12.65 37.8 L12.5 38.8 Q12.0 41.75 11.85 44.75 L12.75 49.1 Q13.2 51.3 12.75 53.55 L12.45 54.85 12.25 55.7 Q11.95 57.3 11.9 58.95 L11.85 60.5 12.0 60.55 11.75 61.25 11.6 61.55 10.6 64.4 9.55 67.4 9.35 68.05 8.95 70.15 8.55 74.05 8.5 75.75 8.55 76.95 8.5 77.0 8.6 77.55 8.8 79.8 9.0 81.65 Q9.2 83.35 8.55 85.0 L7.95 86.05 7.15 87.0 5.85 88.65 Q5.45 89.2 5.4 89.85 L5.4 90.2 5.4 90.25 5.4 90.55 5.8 92.6 Q6.15 94.4 4.7 94.95 L4.35 94.75 Q4.05 94.75 3.9 94.55 L3.65 94.35 3.6 94.35 3.7 94.7 4.0 95.4 4.8 95.7 Q5.95 95.4 6.35 94.35 L6.6 93.1 6.4 89.9 6.35 89.45 6.35 89.3 Q6.4 88.7 6.9 88.25 L8.3 86.85 8.4 86.75 Q9.6 85.5 9.95 83.9 L9.95 83.7 10.0 82.5 10.05 82.5 12.2 87.35 12.2 87.85 12.4 87.95 12.5 88.4 12.55 88.55 13.05 91.5 13.3 94.65 13.3 95.25 Q13.45 97.1 14.65 98.9 L15.1 99.35 15.45 99.7 16.35 100.2 14.95 98.2 14.2 96.3 13.65 94.25 13.65 92.65 13.55 89.7 12.85 86.85 11.8 84.5 11.8 84.45 11.75 84.45 10.9 82.15 Q10.35 80.65 10.15 79.05 L10.1 78.85 10.1 78.65 10.0 78.1 9.95 77.85 9.9 77.05 9.9 76.55 9.95 75.2 Q10.0 73.85 10.3 72.65 10.75 70.7 11.5 68.85 L12.25 67.15 12.7 66.15 14.05 63.95 14.25 63.6 14.35 63.6 14.65 64.1 14.85 64.35 15.45 65.6 Q16.0 66.9 16.2 68.4 L16.75 70.55 Q17.55 71.05 17.3 71.7 L18.25 73.1 Q18.9 74.8 19.1 76.6 L18.35 76.5 18.3 76.15 17.95 76.75 Q17.45 76.4 16.55 76.4 16.25 76.5 16.1 76.7 L15.55 76.5 15.4 76.5 15.3 76.35 15.2 76.2 15.2 75.55 15.5 75.45 15.7 75.05 16.0 74.15 Q16.05 74.5 16.45 74.85 L17.15 74.85 17.7 74.45 17.95 74.7 17.8 74.25 Q18.55 72.95 16.9 72.7 L16.45 73.05 Q16.05 73.45 16.0 73.8 15.95 73.3 15.45 73.0 L15.6 72.9 15.35 72.95 14.75 72.75 15.05 72.45 15.15 72.0 14.95 71.3 14.75 71.2 14.35 71.1 Q13.9 71.15 13.4 71.5 12.95 71.8 13.15 72.25 11.9 71.85 12.2 70.5 L12.35 70.25 11.7 70.2 11.75 69.75 11.65 70.25 Q11.25 72.4 11.1 74.55 10.95 76.8 11.3 79.0 11.65 81.15 12.5 83.2 L13.9 87.35 14.5 91.0 14.75 90.7 Q15.0 90.4 15.45 90.3 L15.8 90.3 15.8 90.45 Q15.5 90.45 15.1 90.85 L15.05 90.85 14.9 91.0 Q14.6 91.25 14.6 91.65 L14.5 91.65 14.5 91.7 14.5 93.5 14.3 93.65 14.4 94.0 Q14.6 95.5 15.3 96.9 L15.5 97.3 16.0 98.0 17.0 99.8 17.1 99.9 17.3 99.5 Q18.15 98.55 19.45 98.15 L20.75 98.35 19.85 96.95 19.65 96.6 21.4 97.2 21.5 97.3 21.6 97.35 Q22.8 98.9 23.45 100.7 23.95 100.95 23.65 101.8 L23.65 101.85 23.5 101.8 23.1 101.8 Q22.15 102.0 21.45 102.5 20.8 102.9 20.3 103.6 L19.4 105.1 18.85 106.6 18.25 106.7 18.75 104.7 18.85 104.45 19.05 104.1 19.15 103.9 19.4 103.6 19.45 103.5 19.5 103.4 20.0 102.85 Q21.0 101.75 22.35 101.2 L21.2 99.1 19.8 99.0 Q18.5 99.0 17.7 99.9 L17.3 100.75 17.3 100.8 17.4 100.9 17.4 100.95 17.35 100.95 17.3 101.2 17.1 101.35 17.05 101.35 Q16.6 102.4 16.3 103.5 16.05 102.8 16.3 101.95 L16.45 101.25 Q15.1 100.6 14.45 99.45 L14.5 99.3 14.25 99.05 Q12.75 97.5 12.75 95.3 L12.85 95.15 12.75 94.5 Q12.65 92.25 12.1 90.1 L12.0 89.7 12.05 89.4 11.6 88.05 10.5 84.7 9.55 86.35 8.35 88.0 7.85 88.65 7.8 88.7 7.45 89.65 7.3 92.3 7.3 92.6 Q7.2 94.55 5.75 95.8 L4.35 95.85 3.55 95.0 3.35 94.55 Q3.2 94.05 3.7 94.0 L4.45 94.15 4.7 94.15 Q5.4 93.65 5.05 92.75 L5.0 92.45 4.8 90.45 Q4.8 88.5 6.3 87.25 L7.2 86.4 8.05 83.6 8.1 81.55 Q7.8 79.5 7.8 77.45 L7.7 77.0 7.75 76.75 Q7.55 75.7 7.65 74.65 L7.85 73.45 7.95 72.05 8.05 71.45 Q8.2 69.2 8.75 67.05 L9.3 64.9 9.25 64.95 7.95 65.0 Q7.55 64.65 7.5 64.25 L7.5 63.65 7.55 63.55 7.55 63.5 7.65 63.25 8.1 62.75 8.1 62.25 8.3 61.15 Q8.5 60.6 8.85 60.15 9.25 58.6 10.1 57.1 9.35 56.55 9.65 55.75 L9.55 55.95 8.85 56.55 Q7.15 57.1 7.45 55.45 L7.75 55.0 7.75 54.95 Q8.25 54.6 8.7 54.6 L9.15 54.65 Q9.95 54.85 9.75 55.6 L9.9 55.25 Q10.1 54.95 10.4 54.8 L10.75 54.8 11.2 50.6 11.25 49.7 10.75 48.8 10.55 48.5 9.55 46.95 Q9.05 45.8 9.0 44.4 8.1 43.65 6.9 43.8 6.45 44.75 7.15 45.75 7.7 45.25 8.4 45.45 L8.45 45.55 Q7.75 45.6 7.35 46.3 L7.85 48.15 7.95 48.55 8.45 48.2 9.15 48.1 8.25 48.95 7.85 50.7 7.55 49.45 6.45 46.05 Q5.55 43.75 5.95 41.3 L6.4 43.6 6.75 43.6 7.75 43.55 Q8.5 43.5 9.0 44.1 L9.3 42.35 Q9.35 44.3 10.1 45.95 L10.1 45.85 Q10.15 43.2 10.5 40.65 L10.55 40.25 Q9.35 39.95 10.0 38.45 L10.45 37.75 Q10.0 38.0 9.2 37.45 L9.0 38.1 Q8.65 39.1 7.9 39.75 7.45 40.15 6.9 40.2 L6.1 40.25 4.55 40.15 4.25 39.95 2.95 38.3 2.5 37.15 2.4 37.7 2.25 38.85 Q2.1 39.95 2.1 41.05 L1.75 43.65 1.6 43.0 1.55 42.75 1.35 42.05 1.35 41.95 1.25 41.35 1.2 38.2 Q1.2 36.8 1.7 35.5 L2.05 34.7 2.55 33.2 2.55 33.15 2.65 33.05 2.7 33.7 2.7 33.75 2.85 34.6 2.9 34.75 3.0 35.2 3.6 37.8 Q4.1 39.85 6.05 39.9 L6.45 39.8 7.7 39.25 7.75 39.15 Q8.5 38.5 8.65 37.6 8.85 36.3 7.7 35.25 L6.7 35.65 Q5.65 36.15 5.85 36.85 L5.95 36.8 6.35 36.7 7.0 35.95 Q7.85 36.0 7.65 37.05 L7.1 38.45 Q6.55 39.15 5.75 38.7 4.35 38.2 4.1 36.55 L3.95 34.65 4.0 33.25 4.0 33.2 4.05 31.45 4.15 31.7 4.05 31.45 4.2 30.9 4.5 30.0 Q5.1 28.45 5.95 27.05 L8.0 23.85 8.35 23.35 8.4 23.3 9.1 22.15 10.2 20.5 11.15 19.2 11.3 18.95 M18.35 79.0 Q19.05 79.95 19.4 81.15 L18.15 81.25 17.7 80.65 Q17.4 80.75 17.25 81.0 L16.95 80.85 16.7 81.2 16.3 81.05 Q15.85 81.05 15.55 81.3 L15.2 80.95 14.7 81.45 14.7 81.5 14.15 81.15 14.45 80.85 15.0 80.1 15.7 80.2 15.95 79.95 16.3 79.15 18.0 79.3 18.35 79.0 M17.65 82.35 L17.9 82.6 17.95 82.65 19.2 83.65 19.7 90.1 Q18.85 89.65 18.85 88.75 L18.55 87.85 Q17.75 88.0 18.05 88.6 L18.25 89.65 Q18.35 90.45 18.95 90.85 L19.7 91.65 19.8 91.9 Q20.55 93.55 20.5 95.55 L19.75 95.7 19.2 96.0 18.6 95.05 18.35 94.55 18.7 94.25 18.85 94.05 18.85 93.95 Q19.65 92.3 17.6 92.15 L17.55 92.15 17.5 92.15 16.45 89.0 Q15.6 86.45 16.85 84.2 L17.45 83.55 17.65 82.35 M21.8 108.95 L21.85 109.45 21.65 109.85 20.45 111.15 19.55 111.25 19.45 110.65 Q19.25 109.35 18.05 108.4 L16.8 107.75 16.7 107.7 Q15.95 107.25 15.15 106.9 L14.8 106.75 Q13.1 106.0 11.45 107.1 11.7 106.35 12.35 106.0 L12.7 105.9 13.35 105.7 14.35 105.85 13.3 103.4 13.05 102.95 Q12.25 101.5 10.8 100.65 L8.4 101.15 7.9 101.25 Q7.3 101.65 6.85 102.1 L5.25 104.15 5.2 104.25 5.0 104.75 Q4.8 105.75 4.1 106.6 L4.05 106.45 4.1 105.3 Q4.2 104.7 4.55 104.15 L4.5 104.2 4.55 104.05 Q5.05 103.05 5.8 102.2 L6.8 101.2 6.95 101.05 7.0 101.0 Q8.55 99.7 10.6 99.5 L10.5 99.2 Q9.15 97.4 7.0 97.75 5.35 99.15 4.65 101.05 L4.6 101.15 4.45 101.2 4.45 101.25 4.5 101.35 3.95 102.4 2.6 103.95 2.45 103.85 2.6 103.55 3.4 102.1 3.45 102.05 3.6 101.8 2.6 101.25 1.9 100.9 0.7 100.35 0.7 100.05 Q0.95 99.0 1.85 98.3 L2.05 98.2 2.15 99.1 2.6 99.4 2.85 99.65 Q3.45 100.25 3.7 101.2 L3.8 101.55 4.0 101.15 4.15 100.85 4.45 100.2 4.7 99.5 4.75 99.4 Q5.15 98.2 6.3 97.35 L6.7 97.1 Q8.1 96.25 9.6 96.7 9.25 94.9 7.75 94.05 8.15 93.1 8.85 93.6 L10.1 93.75 10.95 93.7 Q11.55 93.8 12.05 94.45 L10.9 94.15 9.8 94.45 Q9.8 95.35 10.55 95.15 L10.6 95.15 Q11.3 95.0 11.6 95.55 L11.0 95.55 10.3 95.55 Q9.95 96.75 10.75 97.5 11.6 98.25 11.25 99.4 L11.3 99.4 11.9 99.4 Q13.7 100.3 14.15 102.0 L14.15 102.1 15.15 105.3 Q16.75 105.7 18.2 106.7 L18.85 107.15 19.8 108.35 Q20.15 109.05 21.05 109.05 20.9 108.0 21.1 107.2 21.45 105.8 22.8 104.85 L23.3 104.95 22.6 105.7 Q21.9 106.4 21.75 107.35 L21.75 107.7 21.75 107.85 21.75 108.0 21.8 108.95 M15.95 114.4 L14.85 114.45 Q14.15 114.15 13.8 113.45 L13.6 113.4 11.85 113.25 11.8 113.25 11.8 113.2 11.05 111.9 10.4 111.35 Q9.8 110.9 9.15 110.75 L7.85 110.6 7.55 110.6 7.4 110.65 7.3 110.45 7.4 110.25 7.6 110.1 7.65 110.05 7.75 110.0 8.2 109.9 9.65 110.0 Q10.35 110.55 11.05 111.65 L11.15 111.8 Q11.8 112.65 12.85 112.05 11.85 110.3 10.2 109.1 10.15 108.9 10.25 108.75 L10.35 108.65 10.5 108.55 10.7 108.55 Q11.35 108.7 11.9 109.1 L12.35 109.6 13.6 111.45 Q13.95 112.0 13.9 112.85 13.9 113.7 15.0 113.4 L14.4 112.2 Q14.05 111.55 14.8 111.05 15.6 112.0 15.7 113.25 L15.7 113.35 15.95 114.4 M8.4 116.85 L8.25 117.1 6.9 117.35 6.25 116.65 6.2 116.6 Q5.4 116.05 4.4 116.1 L4.8 115.55 5.4 115.15 5.85 115.25 Q6.2 115.35 6.55 115.55 L6.6 115.6 6.75 115.65 7.5 116.35 8.0 117.1 8.1 117.0 8.4 116.8 8.4 116.85 M4.2 118.0 L3.2 118.15 Q3.9 117.6 3.7 117.1 L3.7 117.0 3.7 116.85 4.0 116.8 Q4.65 116.75 4.55 117.35 L4.4 117.7 4.2 118.0 M5.95 114.35 L5.9 114.1 6.1 113.75 6.3 113.45 6.4 113.4 7.85 114.1 8.65 114.65 Q9.25 115.25 8.95 116.0 L7.0 114.75 6.9 114.65 5.95 114.35 M6.5 108.65 L6.45 108.65 6.05 108.75 Q5.5 108.7 5.35 108.4 L5.45 108.35 5.8 107.0 6.05 106.5 6.1 106.4 6.15 106.3 Q6.85 104.95 8.25 104.05 L8.45 104.25 7.15 105.9 6.5 107.1 6.3 107.8 6.45 108.5 6.45 108.55 6.5 108.65 M-1.6 103.95 L-1.7 103.45 Q-1.7 103.0 -1.2 102.85 L-0.4 102.6 0.4 103.0 0.45 103.05 0.7 103.3 Q1.3 104.0 1.2 104.85 L0.0 104.35 -0.45 104.15 -0.6 104.1 -1.6 103.95 M-1.05 34.45 L-1.4 33.5 -1.6 32.95 Q-1.4 32.1 -0.85 31.3 L0.65 29.2 1.15 29.05 1.5 28.5 1.6 28.35 2.1 27.45 2.4 27.2 2.55 27.8 Q1.35 29.45 0.55 31.2 L-1.0 34.55 -1.05 34.45 M-5.25 24.25 L-5.35 24.15 -5.65 23.6 -5.35 23.7 -5.05 24.2 -5.25 24.2 -5.25 24.25 M-3.25 -3.35 L-3.55 -2.9 -3.55 -2.95 -3.3 -3.35 -3.25 -3.35 M-6.75 1.05 L-6.55 1.25 -6.6 1.25 -6.75 1.35 -6.85 1.4 -6.8 1.3 -6.75 1.05 M4.4 -3.4 L4.25 -3.35 4.25 -3.2 5.15 -4.1 Q6.7 -3.8 6.65 -2.8 L6.8 -3.0 Q8.05 -4.6 5.9 -4.85 L5.6 -4.65 5.05 -4.45 4.8 -4.25 4.8 -3.9 4.4 -3.4 M5.2 0.5 L5.2 0.55 5.25 0.55 5.45 0.6 5.35 0.3 5.2 0.5 M7.1 -0.05 L7.0 0.05 7.7 -0.1 7.4 -0.25 7.1 -0.05 M7.9 3.45 L7.9 3.5 7.95 3.35 7.9 3.45 M4.55 5.8 L4.45 5.75 4.55 5.65 4.55 5.8 M4.95 6.6 L5.15 6.65 4.95 6.6 M8.6 9.3 L8.7 9.25 8.65 9.15 8.6 9.3 M-0.3 11.6 L-0.45 11.8 -0.6 11.75 -0.35 11.35 -0.3 11.6 M-5.1 21.25 L-5.25 21.25 -5.15 21.15 -5.1 21.25 M-5.9 22.4 L-5.85 22.45 -5.9 22.55 -5.9 22.4 M7.2 15.1 L7.0 15.2 7.25 15.4 7.3 15.1 7.5 15.0 7.75 14.7 7.8 14.55 7.2 15.1 M1.7 -2.65 Q1.45 -2.3 1.35 -1.8 1.25 -1.2 1.6 -0.8 L1.55 -0.8 Q1.0 -0.95 1.05 -1.5 1.15 -2.35 1.7 -2.65 M0.25 2.25 L0.2 2.0 0.35 2.15 0.25 2.25 M-0.6 25.8 L-0.65 25.8 -0.8 25.9 -0.8 25.75 -0.6 25.8 M9.1 25.85 L9.2 24.15 8.3 25.35 Q7.05 27.1 6.1 29.05 L5.65 30.0 5.15 31.5 5.05 31.75 4.45 33.5 4.45 33.55 4.6 34.25 5.3 36.8 5.35 36.65 6.25 35.55 Q6.85 35.0 7.55 34.9 L8.25 35.1 Q8.0 34.4 8.55 33.75 L8.0 34.35 Q7.75 33.75 8.2 33.5 8.6 33.25 9.05 33.15 L9.2 33.15 Q9.7 32.7 10.3 32.6 9.3 32.45 9.1 31.9 L8.25 32.2 8.25 31.7 9.05 31.6 Q9.05 31.15 9.4 30.55 L9.7 30.15 9.5 29.65 8.95 29.5 9.85 29.6 9.5 29.55 9.45 29.45 Q8.0 29.7 7.8 27.95 7.7 27.2 8.3 26.75 8.65 26.55 9.1 26.5 L9.1 25.95 9.05 25.8 9.1 25.85 M10.8 37.45 L10.8 37.35 10.7 37.55 10.8 37.45 M11.0 47.5 L11.65 48.8 Q12.1 47.2 10.6 46.9 L11.0 47.5 M5.1 51.4 L3.6 47.8 Q2.75 45.8 3.0 43.6 L3.35 40.5 Q3.05 43.45 3.95 46.15 L4.6 45.75 4.25 46.9 6.35 51.2 7.0 53.3 Q6.85 52.75 5.8 52.6 L5.4 51.85 5.1 51.4 M7.05 53.4 L7.2 54.65 6.8 54.5 6.6 54.5 6.55 54.45 Q7.1 53.8 7.05 53.4 M5.0 53.35 L5.0 53.5 5.0 53.85 4.95 53.9 Q4.55 54.2 4.3 53.7 4.65 53.45 5.0 53.35 M6.65 65.8 L6.9 65.75 7.2 65.45 Q7.4 64.6 6.85 64.4 L7.0 64.15 7.25 64.65 7.35 65.0 Q7.6 65.5 8.15 65.65 L8.85 65.45 Q8.75 66.1 7.9 66.35 L7.75 66.35 7.6 66.2 7.1 66.2 6.65 65.8 M2.9 68.1 L2.9 67.85 3.05 67.95 2.95 68.1 2.9 68.1 M16.55 72.95 L16.45 72.65 16.3 72.7 15.95 72.85 16.55 72.95 M6.05 77.7 L6.2 77.6 Q7.1 78.4 7.25 79.8 7.75 81.1 7.7 82.45 L7.55 83.6 7.1 81.65 6.05 77.7 M9.7 90.9 Q8.95 90.6 8.4 91.15 L8.45 91.85 8.0 91.45 Q8.0 90.7 8.9 90.6 9.35 90.5 9.7 90.9 M14.7 88.65 Q14.95 88.2 15.45 88.35 L15.55 88.5 14.8 88.8 14.7 88.65 M18.0 92.05 L17.5 91.25 18.0 92.05 M17.6 95.05 Q17.5 94.2 18.35 93.55 L18.65 93.55 18.65 93.85 18.15 94.35 17.75 94.95 17.65 95.15 17.6 95.05 M15.85 93.25 L15.75 93.85 15.5 93.4 15.55 93.1 15.65 93.0 15.85 93.25 M21.85 103.85 Q22.65 103.2 23.5 103.15 L24.4 103.2 24.7 103.7 23.5 103.9 23.2 103.9 22.9 104.0 22.85 104.0 22.4 104.2 21.35 105.15 21.3 105.1 21.3 105.0 21.3 104.85 Q21.35 104.35 21.75 103.9 L21.85 103.85" fill="#2b5500" fill-rule="evenodd" stroke="none"/>
    <path d="M10.2 12.25 L11.3 11.0 11.5 11.65 Q12.2 13.4 11.95 15.05 L11.65 16.75 11.65 16.85 11.55 17.2 11.6 17.3 11.3 18.95 11.15 19.2 10.2 20.5 9.1 22.15 8.4 23.3 8.35 23.35 8.0 23.85 5.95 27.05 Q5.1 28.45 4.5 30.0 L4.2 30.9 4.05 31.4 4.05 31.45 4.0 33.2 3.85 32.4 3.9 31.75 Q4.0 29.0 5.25 26.55 L5.45 26.1 5.75 25.6 Q6.5 23.7 7.85 22.1 L8.7 21.15 8.65 20.65 7.7 19.85 7.85 19.6 7.95 19.3 8.1 18.95 8.35 18.4 8.4 18.35 9.25 15.9 10.2 12.25 M11.9 60.5 L13.0 57.0 13.15 56.95 13.45 57.35 13.8 57.8 14.4 58.65 14.4 61.4 14.9 62.25 14.25 63.6 14.05 63.95 12.7 66.15 12.25 67.15 11.5 68.85 Q10.75 70.7 10.3 72.65 10.0 73.85 9.95 75.2 L9.9 72.55 Q9.9 71.1 10.15 69.75 10.4 68.45 10.9 67.25 L11.0 67.0 Q11.35 66.05 11.85 65.25 L11.15 64.7 10.6 64.4 11.6 61.55 11.75 61.25 12.0 60.55 11.9 60.5 M1.25 41.35 L0.85 44.8 0.15 43.8 0.0 43.55 Q-0.3 42.5 -0.25 41.35 L-0.25 40.8 Q-0.4 37.75 0.55 35.05 0.95 33.4 2.1 32.25 L2.3 32.1 2.45 32.05 2.8 32.3 2.85 32.4 2.7 33.7 2.65 33.05 2.6 32.9 2.55 33.2 2.05 34.7 1.7 35.5 Q1.2 36.8 1.2 38.2 L1.25 41.35 M0.55 44.95 Q0.15 44.9 0.05 44.5 L0.1 44.55 0.55 44.95" fill="#669933" fill-rule="evenodd" stroke="none"/>
    <path d="M-2.5 13.9 L-1.8 13.95 Q-1.15 14.7 -1.3 15.75 L-1.35 16.05 -1.7 16.55 -1.75 16.6 -1.95 16.7 -2.1 16.7 -2.55 16.7 -2.7 16.65 -2.95 16.45 -3.2 16.1 -3.25 15.15 -3.15 14.4 -3.0 14.25 -2.95 14.25 -2.85 14.05 -2.6 13.95 -2.6 13.9 -2.5 13.9 M-4.05 19.3 Q-3.55 19.85 -3.95 20.85 L-4.0 20.9 -4.1 21.1 -4.95 21.15 -5.2 20.4 -5.15 19.45 -5.15 19.4 -5.05 19.05 -4.85 18.95 -4.55 18.9 Q-4.25 19.05 -4.05 19.3 M-4.3 -0.25 L-4.25 -0.3 -3.95 -0.4 -3.6 -0.25 -3.45 -0.1 -3.4 0.3 -3.5 0.7 -4.1 0.9 -4.4 0.75 -4.55 0.2 -4.45 -0.2 -4.3 -0.25 M-4.45 6.85 Q-4.7 5.8 -4.05 4.6 -3.85 4.25 -3.45 4.2 -1.8 5.3 -2.15 6.95 L-2.6 8.05 -2.85 8.3 -3.65 8.3 -4.45 6.85 M-3.8 13.25 L-3.95 13.5 Q-4.95 15.05 -5.9 13.7 L-6.1 13.4 Q-6.5 12.7 -6.45 11.8 L-6.15 10.7 -5.75 10.05 -5.15 9.55 Q-3.05 9.85 -3.45 12.1 L-3.8 13.25 M5.1 61.8 L5.2 61.75 5.55 61.65 Q6.2 61.7 6.5 62.35 L6.55 62.5 Q6.3 63.65 5.35 64.4 L5.3 64.4 5.1 64.55 4.35 64.45 4.15 64.3 3.95 64.1 Q3.8 63.3 4.15 62.7 L4.55 62.25 5.1 61.8 M3.9 68.05 L4.0 67.85 4.15 67.5 4.35 67.35 4.4 67.3 4.55 67.25 4.6 67.25 5.1 67.3 5.35 67.5 5.5 67.7 5.55 68.05 5.6 68.25 5.75 68.6 5.6 69.15 5.35 69.75 5.4 69.95 5.5 70.3 5.25 70.7 5.0 71.1 4.5 71.1 4.1 71.1 3.65 70.5 Q3.2 70.0 3.4 69.5 3.4 68.8 3.9 68.05 M13.45 75.0 L13.6 74.75 13.85 74.35 14.1 74.25 14.75 74.3 14.9 74.5 15.2 74.85 15.2 75.4 15.2 75.55 15.2 76.2 15.3 76.35 15.4 76.5 15.45 76.55 15.45 76.75 15.35 77.3 15.25 77.5 15.05 77.7 14.85 77.75 14.25 77.75 13.75 77.2 13.55 76.8 13.55 76.6 13.55 76.25 13.35 76.05 13.25 75.85 13.2 75.65 13.15 75.3 13.45 75.0" fill="#6ba235" fill-rule="evenodd" stroke="none"/>
    <path d="M13.0 57.0 L13.05 56.8 13.45 57.35 13.15 56.95 13.0 57.0 M0.0 43.55 L-0.05 43.55 -0.45 43.05 Q-1.3 42.15 -1.3 40.95 -1.3 38.9 -1.6 37.1 L-1.4 35.8 -1.05 34.45 -1.0 34.55 0.55 31.2 Q1.35 29.45 2.55 27.8 L3.55 26.05 3.6 25.85 4.05 25.1 4.05 25.55 6.15 22.45 7.7 19.85 8.65 20.65 8.7 21.15 7.85 22.1 Q6.5 23.7 5.75 25.6 L5.45 26.1 5.25 26.55 Q4.0 29.0 3.9 31.75 L3.85 32.4 4.0 33.2 4.0 33.25 3.95 34.65 4.1 36.55 Q4.35 38.2 5.75 38.7 6.55 39.15 7.1 38.45 L7.65 37.05 Q7.85 36.0 7.0 35.95 L6.35 36.7 5.95 36.8 5.85 36.85 Q5.65 36.15 6.7 35.65 L7.7 35.25 Q8.85 36.3 8.65 37.6 8.5 38.5 7.75 39.15 L7.7 39.15 7.7 39.25 6.45 39.8 6.05 39.9 Q4.1 39.85 3.6 37.8 L3.0 35.2 2.9 34.75 2.85 34.6 2.7 33.75 2.7 33.7 2.85 32.4 2.8 32.3 2.45 32.05 2.3 32.1 2.1 32.25 Q0.95 33.4 0.55 35.05 -0.4 37.75 -0.25 40.8 L-0.25 41.35 Q-0.3 42.5 0.0 43.55 M10.6 64.4 L11.15 64.7 11.85 65.25 Q11.35 66.05 11.0 67.0 L10.9 67.25 Q10.4 68.45 10.15 69.75 9.9 71.1 9.9 72.55 L9.95 75.2 9.9 76.55 9.9 77.05 9.95 77.85 10.0 78.1 10.1 78.65 10.1 78.85 10.15 79.05 Q10.35 80.65 10.9 82.15 L11.75 84.45 11.8 84.45 11.8 84.5 12.85 86.85 13.55 89.7 13.65 92.65 13.65 94.25 14.2 96.3 14.95 98.2 16.35 100.2 15.45 99.7 15.1 99.35 14.65 98.9 Q13.45 97.1 13.3 95.25 L13.3 94.65 13.05 91.5 12.55 88.55 12.5 88.4 12.4 87.95 12.2 87.35 10.05 82.5 10.0 82.4 10.0 82.5 9.95 83.7 9.95 83.9 Q9.6 85.5 8.4 86.75 L8.3 86.85 6.9 88.25 Q6.4 88.7 6.35 89.3 L6.35 89.45 6.4 89.9 6.6 93.1 6.35 94.35 Q5.95 95.4 4.8 95.7 L4.0 95.4 3.7 94.7 3.6 94.35 3.65 94.35 3.9 94.55 Q4.05 94.75 4.35 94.75 L4.7 94.95 Q6.15 94.4 5.8 92.6 L5.4 90.55 5.4 90.25 5.4 90.2 5.4 89.85 Q5.45 89.2 5.85 88.65 L7.15 87.0 7.95 86.05 8.55 85.0 Q9.2 83.35 9.0 81.65 L8.8 79.8 8.6 77.55 8.55 76.95 8.5 75.75 8.55 74.05 8.95 70.15 9.35 68.05 9.55 67.4 10.6 64.4" fill="#66cc33" fill-rule="evenodd" stroke="none"/>
    <path d="M11.85 60.5 L11.9 60.5 12.0 60.55 11.85 60.5" fill="#ffffff" fill-rule="evenodd" stroke="none"/>
    <path d="M1.25 67.4 L1.15 67.25 1.3 66.7 1.25 67.4 M15.05 90.85 L14.95 91.0 14.9 91.0 15.05 90.85 M8.55 76.95 L8.6 77.55 8.5 77.0 8.55 76.95 M10.1 78.65 L10.0 78.1 10.1 78.65 M18.0 92.05 L17.5 91.25 18.0 92.05" fill="#669900" fill-rule="evenodd" stroke="none"/>
  </g>
</svg>
