<?xml version="1.0" encoding="UTF-8" standalone="no"?>
<svg xmlns:xlink="http://www.w3.org/1999/xlink" height="9.0px" width="9.0px" xmlns="http://www.w3.org/2000/svg">
  <g transform="matrix(1.0, 0.0, 0.0, 1.0, 26.5, 28.5)">
    <path d="M-19.2 -21.2 Q-20.35 -20.0 -22.0 -20.0 -23.65 -20.0 -24.85 -21.2 -26.0 -22.35 -26.0 -24.0 -26.0 -25.65 -24.85 -26.85 -23.65 -28.0 -22.0 -28.0 -20.35 -28.0 -19.2 -26.85 -18.0 -25.65 -18.0 -24.0 -18.0 -22.35 -19.2 -21.2" fill="#0066cc" fill-rule="evenodd" stroke="none"/>
    <path d="M-19.2 -21.2 Q-20.35 -20.0 -22.0 -20.0 -23.65 -20.0 -24.85 -21.2 -26.0 -22.35 -26.0 -24.0 -26.0 -25.65 -24.85 -26.85 -23.65 -28.0 -22.0 -28.0 -20.35 -28.0 -19.2 -26.85 -18.0 -25.65 -18.0 -24.0 -18.0 -22.35 -19.2 -21.2 Z" fill="none" stroke="#000000" stroke-linecap="round" stroke-linejoin="round" stroke-width="1.0"/>
  </g>
</svg>
