<?xml version="1.0" encoding="UTF-8" standalone="no"?>
<svg xmlns:xlink="http://www.w3.org/1999/xlink" height="117.6px" width="43.2px" xmlns="http://www.w3.org/2000/svg">
  <g transform="matrix(1.0, 0.0, 0.0, 1.0, 14.85, 13.85)">
    <path d="M-3.55 -12.75 L-3.55 -11.3 -3.05 -12.75 -3.55 -12.75 M-7.15 -12.75 Q1.7 -16.15 9.0 -9.1 9.5 -8.25 10.55 -7.5 L11.25 -7.5 Q10.65 -6.3 11.75 -5.9 12.8 -5.5 12.15 -4.3 L12.95 -2.9 Q13.2 -3.3 13.85 -3.1 L13.85 -2.7 Q12.4 -2.35 13.05 -1.4 13.7 -0.45 13.65 0.55 L13.85 3.35 14.55 3.85 Q13.4 3.95 13.55 5.7 L13.85 8.65 Q17.4 14.85 19.65 20.7 20.15 20.65 20.55 20.2 L20.85 20.5 Q19.15 20.8 19.7 22.15 20.2 23.45 19.65 24.65 18.5 26.6 19.1 28.8 19.7 31.0 19.65 33.05 L19.8 33.05 19.75 33.2 19.35 33.45 Q19.2 36.45 20.95 38.6 22.7 40.7 22.1 43.4 23.35 46.4 25.65 49.25 27.9 52.05 26.2 55.65 L27.95 60.5 Q28.9 62.95 27.6 65.6 24.9 68.9 25.7 72.85 L27.4 74.25 22.6 74.45 Q23.65 77.2 24.15 80.8 24.65 84.3 23.0 87.0 L23.05 90.75 Q23.05 92.8 20.85 93.55 20.6 96.45 18.4 97.75 16.2 99.0 15.05 101.25 13.85 102.15 12.3 102.05 10.7 102.0 9.5 103.0 7.2 102.45 5.35 103.3 L1.6 103.4 Q2.05 101.85 3.8 100.55 5.55 99.3 6.4 97.35 6.45 96.55 7.45 95.9 8.45 95.25 7.1 94.55 7.9 91.2 7.1 88.2 6.3 88.0 6.0 88.65 L4.9 88.7 Q3.35 90.45 3.75 92.5 4.1 94.55 4.9 96.45 1.0 95.25 -1.1 91.3 -1.15 89.6 -1.6 87.8 -2.05 86.0 -0.8 84.9 -1.4 83.3 -0.3 81.95 0.8 80.5 1.3 79.05 0.7 77.55 0.65 75.65 0.5 73.7 -1.35 73.75 -0.95 71.35 -1.65 68.6 -2.3 65.8 -0.8 63.4 L-3.05 62.4 Q0.0 60.05 1.3 56.7 L0.6 56.0 Q2.1 53.6 2.95 50.85 3.8 48.1 6.4 46.55 6.75 41.7 3.2 38.95 -0.35 36.2 -1.5 31.85 -2.0 31.2 -2.55 31.45 -1.65 30.85 -2.2 29.95 -2.85 29.0 -2.75 27.95 -3.9 27.0 -3.55 25.05 -4.25 18.7 -8.5 13.9 -12.8 9.0 -14.1 2.95 -16.25 -3.8 -12.35 -9.1 -10.8 -9.85 -9.85 -11.45 -8.9 -13.05 -7.15 -12.75 M-3.95 -11.15 L-4.25 -12.75 Q-5.05 -12.7 -4.95 -11.85 -5.05 -10.9 -3.95 -11.15 M-0.65 -6.7 L-0.6 -6.3 Q-3.3 -8.9 -6.65 -10.8 -6.15 -11.4 -5.45 -11.3 L-5.65 -12.3 Q-10.85 -9.95 -13.2 -4.6 L-13.0 -4.6 Q-13.45 -3.3 -13.55 -1.85 L-13.5 -1.35 -13.25 -1.1 Q-13.3 1.15 -12.5 3.3 L-9.9 9.6 -9.9 9.65 -9.5 10.35 -9.55 10.4 Q-8.75 11.25 -8.35 12.3 L-8.3 12.25 -7.85 12.85 -7.75 12.95 -7.85 12.8 -7.4 13.4 -7.4 13.5 -7.15 13.85 -6.85 14.15 -6.45 14.45 -5.75 15.15 -5.65 15.15 -5.65 15.2 -5.25 15.7 -5.15 15.75 -4.8 16.05 -4.7 16.2 -4.7 16.15 -4.35 16.45 -3.6 17.35 -3.25 17.85 -3.25 17.6 -3.2 18.0 -3.2 18.3 -2.95 21.05 -2.9 21.25 -2.9 21.35 -2.75 22.45 -2.45 23.95 -2.3 24.55 Q-1.4 28.55 0.4 32.55 L0.45 32.0 0.6 33.45 0.65 33.85 0.95 34.5 0.9 35.0 1.65 35.0 1.75 35.25 2.35 36.05 Q2.3 36.35 2.7 36.7 L3.0 36.9 Q3.35 37.95 4.0 38.45 4.7 38.9 5.65 38.8 L7.8 38.9 7.95 38.95 8.8 39.3 7.3 39.7 7.25 39.7 Q6.65 39.95 6.1 40.3 7.95 42.45 8.25 45.2 L8.3 45.6 8.3 46.0 8.25 46.1 7.8 46.5 7.35 46.9 Q4.25 50.0 3.4 54.05 2.4 58.7 -0.6 62.0 3.6 59.6 5.4 55.45 L5.7 55.65 Q4.8 60.2 0.9 62.9 -1.05 67.45 0.4 72.05 1.75 69.65 2.5 67.0 L2.75 68.5 2.8 68.65 2.2 71.4 1.9 71.95 Q0.45 74.15 1.8 76.65 L2.3 76.65 Q4.3 74.5 4.5 72.05 L6.15 76.8 6.4 77.65 6.9 77.3 7.1 77.15 8.5 75.5 8.8 74.8 8.85 74.6 9.0 72.9 8.95 72.3 8.9 72.25 8.9 72.15 8.85 71.6 Q8.75 69.7 9.9 68.25 L9.95 68.15 10.5 67.6 11.45 66.8 11.95 67.3 12.15 68.25 12.1 68.3 10.05 71.1 Q8.9 72.5 9.7 74.45 10.9 76.9 12.45 76.65 11.75 74.7 12.7 73.15 13.0 72.6 13.55 72.15 L13.65 72.05 Q14.05 71.7 14.45 71.85 L14.85 72.05 15.35 72.35 15.75 72.35 15.75 72.3 16.4 71.15 16.35 71.15 17.25 69.45 17.75 69.95 17.5 70.8 17.25 72.35 17.25 72.4 17.2 72.45 16.8 73.35 16.6 73.55 Q15.95 74.3 14.85 74.25 L14.85 73.25 Q13.1 74.55 13.15 76.45 14.25 76.95 15.05 77.65 14.7 78.05 14.15 78.1 L13.95 78.0 11.45 77.7 11.15 77.8 10.55 77.15 Q7.5 77.65 5.7 80.1 4.95 79.35 5.3 78.55 L5.45 78.1 Q5.6 77.5 5.4 76.85 2.5 77.1 2.25 79.6 L2.2 79.8 2.2 80.0 2.2 80.1 2.15 80.2 2.15 80.3 Q1.75 82.15 0.65 83.6 L0.4 83.9 0.65 83.9 0.4 84.4 0.4 84.65 0.25 84.6 0.1 84.6 0.1 84.65 0.1 84.95 0.1 85.1 0.1 85.25 0.1 87.4 0.2 90.15 Q0.25 93.2 3.3 94.75 1.5 92.5 2.65 90.7 L3.45 89.15 4.2 86.9 4.2 86.8 2.65 85.4 2.8 85.45 Q3.6 86.15 4.6 86.25 L4.8 86.35 5.2 86.5 5.4 87.7 6.9 86.3 6.95 86.4 7.05 86.5 7.1 86.6 7.15 86.65 7.2 86.7 7.25 86.75 7.3 86.85 7.35 86.9 7.4 87.0 7.45 87.05 7.45 87.1 7.5 87.15 7.55 87.2 7.55 87.25 7.6 87.3 Q8.7 89.2 8.65 91.35 L8.65 91.65 8.1 94.05 8.6 94.65 8.95 95.05 Q8.7 95.35 8.6 95.8 L8.5 96.2 8.45 96.6 8.45 96.65 8.45 96.7 9.25 97.25 8.7 96.9 8.3 96.65 7.5 97.5 Q6.6 98.55 6.1 99.9 L5.0 101.5 3.35 102.45 Q6.6 101.35 9.3 101.3 L9.5 101.25 9.45 101.2 9.35 100.95 10.5 100.4 11.3 100.0 12.45 99.35 11.35 99.65 11.75 99.35 11.95 99.35 12.1 99.35 12.15 99.35 12.55 99.15 12.85 98.8 13.25 97.9 13.9 96.65 14.05 96.05 14.35 95.75 Q14.7 95.9 14.55 96.45 L14.9 96.35 14.3 97.7 14.3 97.95 Q13.7 98.05 13.65 98.65 13.45 99.55 12.7 100.35 L12.45 100.55 12.7 100.55 13.35 100.55 Q14.85 99.9 15.4 98.5 16.15 98.45 16.65 97.65 L16.85 97.3 16.9 97.25 16.45 96.7 16.95 97.35 Q18.45 96.35 18.85 95.1 L19.1 94.35 19.05 93.0 19.05 92.95 19.1 92.95 21.0 91.3 21.15 91.15 21.1 91.6 21.8 91.15 22.2 88.8 22.05 88.0 22.1 87.85 22.25 87.15 22.2 86.55 22.75 82.75 22.8 82.65 23.0 81.4 22.85 80.9 23.0 80.8 22.75 79.7 22.75 79.55 22.6 78.85 22.0 76.15 22.2 75.65 22.0 75.2 Q21.55 74.85 21.05 74.8 L21.4 73.75 Q20.4 73.4 20.35 74.05 20.3 74.65 19.65 74.95 18.35 73.8 16.75 74.25 L17.2 73.85 17.9 73.35 17.95 73.35 18.05 73.3 18.25 73.2 18.65 73.05 18.75 73.0 19.35 72.85 19.35 72.8 19.35 72.1 19.35 71.2 19.35 71.05 19.05 68.05 18.95 67.7 19.15 67.9 Q20.15 69.0 20.35 70.85 L21.1 69.45 21.8 66.8 Q22.8 68.45 22.05 70.25 21.2 72.05 22.8 73.55 L25.2 73.55 Q23.2 71.5 24.4 69.3 L26.4 65.1 Q27.5 62.4 26.4 59.75 25.3 57.1 24.0 54.75 24.3 54.15 25.0 54.25 25.55 51.25 23.95 48.85 L22.65 46.75 22.5 46.5 22.3 46.25 22.25 46.1 21.6 44.9 21.4 44.5 21.2 44.2 21.1 43.9 Q21.2 39.8 18.45 36.9 L18.5 35.45 18.5 35.3 18.5 35.15 18.4 34.0 18.25 32.85 18.2 32.65 18.2 32.55 18.1 32.15 Q17.75 30.35 17.05 28.7 16.05 26.4 15.55 24.0 L15.05 21.0 Q14.15 19.85 13.7 18.7 L13.35 17.6 Q14.75 18.55 15.8 19.8 L16.25 20.35 Q17.45 21.9 18.05 23.9 L18.05 24.0 18.15 24.35 Q19.0 19.35 16.05 15.2 13.75 13.15 12.15 10.55 L12.15 10.45 12.3 8.55 Q12.35 5.45 11.45 2.45 11.8 1.95 12.15 1.95 L12.15 1.25 12.15 1.1 12.15 0.55 12.05 0.3 12.0 0.2 11.8 -0.1 10.75 -0.45 11.75 -1.5 Q10.5 -6.05 6.9 -9.4 3.1 -12.55 -1.35 -12.0 -2.25 -10.65 -1.65 -9.3 L-1.5 -9.0 -1.0 -7.85 -0.65 -6.7 M-3.95 14.5 L-4.7 14.05 -4.7 14.0 -4.95 14.4 -4.75 14.05 -4.9 13.95 -5.0 13.85 -5.4 13.55 -5.6 13.45 -5.85 13.05 -6.3 12.65 -6.85 12.3 -7.15 12.1 -7.2 12.1 -7.55 11.55 -7.6 11.45 -8.3 10.55 -8.5 10.2 -8.9 9.8 Q-9.1 9.6 -9.35 9.5 -10.3 7.9 -10.25 6.25 -8.25 9.2 -5.5 11.7 L-4.25 12.8 Q-1.9 13.0 0.2 13.7 L1.1 14.0 0.7 14.1 -3.95 14.5 M-2.45 -4.1 L-3.55 -4.1 -1.9 -4.45 -1.15 -4.4 -0.7 -4.3 -0.25 -4.15 -0.2 -4.15 -0.25 -4.15 -0.1 -4.1 -0.15 -4.1 -2.45 -4.1 M4.2 -9.6 Q8.65 -7.5 10.05 -2.4 8.45 -4.2 7.35 -6.25 6.25 -8.35 4.2 -9.6 M-0.3 -5.3 L-6.15 -6.7 Q-3.2 -6.4 -0.3 -5.5 L-0.3 -5.3 M3.45 2.85 L3.65 3.55 Q4.0 4.8 4.8 5.85 L4.85 5.95 6.2 7.3 7.1 7.95 4.2 6.25 Q3.35 8.5 2.8 11.4 L2.1 10.55 2.8 4.85 1.6 -1.2 Q0.65 -0.55 -0.1 -0.7 L1.6 -1.65 1.6 -1.7 Q2.7 0.45 3.45 2.85 M0.4 -2.9 Q-0.35 -2.25 -1.5 -2.2 -1.0 -2.85 0.4 -2.9 M9.9 5.35 L10.25 1.75 Q10.9 3.4 11.05 5.1 L11.05 5.25 Q11.1 6.8 10.75 8.4 L10.65 8.85 10.4 9.7 10.25 10.15 10.55 10.4 Q9.6 10.35 9.5 9.35 L9.55 8.85 9.7 7.25 9.9 5.35 M10.75 16.3 L10.75 16.2 10.75 16.3 M17.75 39.8 L17.95 37.4 Q19.9 39.45 19.15 42.4 L19.1 42.4 Q18.0 42.5 17.4 42.05 16.85 41.6 16.75 40.7 L16.75 40.0 16.8 40.0 17.75 40.0 17.75 39.8 M9.0 40.85 Q10.2 40.95 10.75 39.8 11.15 40.25 10.25 41.0 11.3 43.45 13.65 43.85 L14.35 43.9 Q13.95 44.7 11.75 44.3 10.95 46.2 11.45 48.1 L11.7 48.8 Q12.0 49.6 12.6 50.4 L12.95 50.85 Q12.35 51.05 11.75 50.0 L11.55 49.7 10.8 48.15 10.75 48.0 10.75 47.95 10.95 45.3 Q9.7 46.05 9.05 44.7 L9.0 44.6 7.8 41.9 Q7.85 40.75 9.0 40.85 M13.15 39.3 L13.35 39.5 13.55 39.75 Q14.75 41.1 15.55 42.9 13.75 42.05 13.25 39.9 L13.25 39.8 13.15 39.3 M17.45 46.95 L17.4 47.05 16.55 46.55 16.95 46.7 17.45 46.95 M8.3 56.9 L8.3 56.85 8.3 56.95 8.3 56.9 M7.25 64.05 L7.2 64.05 7.2 64.0 7.25 64.05 M16.3 91.45 L16.3 91.4 16.3 91.45 M17.3 94.5 L17.35 94.5 17.3 94.5 M19.3 86.9 L19.25 86.9 19.25 86.85 19.3 86.9" fill="#000000" fill-rule="evenodd" stroke="none"/>
    <path d="M-3.55 -12.75 L-3.05 -12.75 -3.55 -11.3 -3.55 -12.75 M-3.95 -11.15 Q-5.05 -10.9 -4.95 -11.85 -5.05 -12.7 -4.25 -12.75 L-3.95 -11.15 M-0.65 -6.7 L-1.0 -7.85 Q-0.7 -8.0 -0.3 -8.3 1.0 -8.5 2.05 -7.5 L2.5 -6.9 Q3.7 -4.65 4.55 -2.2 L5.1 0.1 Q5.35 1.85 4.2 3.2 L4.05 3.2 3.45 2.85 Q2.7 0.45 1.6 -1.7 L1.6 -1.65 0.9 -2.85 -0.15 -4.1 -0.05 -4.0 -0.2 -5.15 -0.5 -6.2 -0.65 -6.7 M16.25 20.35 L15.8 19.8 16.0 19.9 16.05 20.05 16.25 20.35 M12.7 100.55 L12.45 100.55 12.7 100.35 12.7 100.55 M9.45 101.2 L9.5 101.25 9.3 101.3 9.45 101.2 M5.0 101.5 L6.1 99.9 Q6.6 98.55 7.5 97.5 L7.7 97.85 Q8.2 99.1 9.3 99.85 L8.2 100.35 5.0 101.5 M8.6 94.65 L8.1 94.05 8.65 91.65 9.05 90.7 9.15 89.3 9.2 86.75 Q9.05 84.2 8.45 81.75 8.2 80.5 7.0 80.45 L6.5 80.9 6.35 81.35 Q4.85 82.6 4.3 84.55 L4.2 84.9 Q3.6 84.4 2.8 84.1 L2.4 84.05 0.75 83.95 0.65 83.6 Q1.75 82.15 2.15 80.3 L2.15 80.2 2.2 80.1 2.2 80.0 2.2 79.8 2.25 79.6 Q2.5 77.1 5.4 76.85 5.6 77.5 5.45 78.1 L5.3 78.55 Q4.95 79.35 5.7 80.1 7.5 77.65 10.55 77.15 L11.15 77.8 11.35 78.0 11.45 78.05 11.45 79.25 11.75 87.3 12.45 88.0 Q10.35 89.55 10.05 92.15 10.05 93.8 11.1 94.9 L11.0 94.9 10.9 94.9 10.45 94.75 10.35 94.7 10.3 94.7 9.95 94.55 8.85 94.5 8.6 94.65 M3.45 89.15 L2.65 90.7 Q1.5 92.5 3.3 94.75 0.25 93.2 0.2 90.15 L0.1 87.4 Q1.3 87.05 2.4 87.8 3.2 88.35 3.45 89.15 M0.1 84.65 L0.1 84.6 0.25 84.6 0.1 84.65 M7.25 39.7 L7.3 39.7 7.3 39.75 7.25 39.7 M0.45 32.0 L0.4 32.55 Q-1.4 28.55 -2.3 24.55 L-2.45 23.95 -2.75 22.45 -2.9 21.35 -2.9 21.25 -2.0 20.3 -0.6 19.45 0.1 19.25 Q1.6 19.0 2.6 20.05 3.45 20.95 3.35 22.15 3.15 23.35 3.85 24.2 L3.8 24.5 3.8 25.9 Q3.9 27.3 2.95 28.1 L2.55 28.55 Q1.65 29.6 1.35 30.95 L1.3 30.85 Q0.6 31.2 0.45 32.0 M-10.8 -4.75 L-10.65 -5.1 -10.55 -5.3 Q-10.4 -5.1 -10.8 -4.75 M-8.5 -6.8 L-8.35 -6.8 -7.75 -6.8 Q-5.95 -6.05 -5.35 -4.0 -4.7 -1.5 -5.05 1.1 L-5.3 3.4 Q-5.45 5.45 -7.2 6.55 L-7.7 6.55 -10.85 4.0 -11.4 2.85 Q-12.0 0.3 -11.5 -2.15 -10.55 -1.85 -9.95 -0.7 L-9.75 -0.7 Q-9.35 -4.05 -8.5 -6.8 M4.8 19.75 L4.9 19.75 4.9 19.8 4.85 19.75 4.8 19.75 M5.55 26.3 L5.55 26.25 6.1 25.2 Q6.4 23.0 7.2 21.0 L7.3 20.7 8.7 25.15 9.0 27.25 9.1 29.9 8.65 29.75 Q7.3 29.4 6.4 27.95 L5.55 26.3 M8.8 31.5 L8.65 33.6 8.45 34.85 8.5 34.5 Q6.95 36.05 4.7 36.5 L4.0 36.65 3.9 36.55 3.2 35.6 2.95 35.25 3.3 34.0 Q4.3 33.05 4.0 31.4 3.65 29.8 5.4 29.65 6.0 30.0 6.3 30.7 6.5 31.2 6.95 31.05 L7.1 31.0 7.15 31.0 7.15 30.95 8.8 31.5 M19.2 44.45 L19.3 44.55 19.1 44.3 19.2 44.45 M20.9 48.3 L20.9 48.35 20.85 48.4 20.9 48.3 M2.4 33.75 L1.8 35.0 1.65 35.0 2.2 34.1 2.4 33.75 M15.2 80.15 Q14.9 80.4 14.9 80.85 14.8 81.7 14.85 83.2 L14.85 83.9 15.3 83.95 15.35 84.35 Q15.6 85.75 14.55 85.9 L14.15 85.8 13.35 82.0 13.2 82.6 Q13.3 81.05 13.55 79.55 13.7 78.8 14.3 78.5 L14.3 78.45 Q14.35 78.35 14.5 78.35 L14.5 78.3 14.8 78.35 15.2 80.15 M17.65 80.3 L17.85 80.7 17.8 80.85 Q17.4 81.2 16.8 81.2 L16.7 81.25 Q16.15 81.45 16.05 82.05 L15.55 82.85 15.5 82.9 15.45 82.95 15.45 82.9 15.45 82.8 15.45 82.75 15.5 82.6 15.55 82.45 15.55 82.2 15.55 81.45 15.5 81.4 15.5 81.35 Q15.45 80.85 15.7 80.6 15.95 80.4 16.3 80.4 L16.45 80.3 16.75 80.3 17.65 80.3 M21.25 79.4 L21.5 79.35 21.95 79.3 Q22.9 79.6 22.35 80.4 L21.85 80.85 20.9 81.1 20.4 79.9 20.8 79.6 21.25 79.4 M19.65 80.3 L20.55 81.7 19.85 82.5 19.65 80.3 M16.15 91.1 L16.05 90.55 Q16.0 89.4 16.9 88.7 L17.7 88.2 17.75 88.15 17.8 88.15 17.85 88.1 Q19.15 88.05 19.0 89.2 L18.65 89.6 Q17.85 89.75 17.4 90.45 L16.7 91.2 16.15 91.1 M20.55 88.1 L20.8 87.85 21.05 87.75 21.1 87.7 21.15 87.7 21.2 87.7 21.35 87.65 21.65 87.65 21.65 87.7 21.65 87.85 21.65 88.1 Q20.75 88.8 20.55 88.1 M13.0 89.3 Q14.3 89.4 13.85 90.6 L13.5 91.05 13.2 91.6 Q13.0 92.55 12.25 93.25 L11.45 93.15 11.55 92.65 12.55 89.9 12.9 89.3 12.95 89.25 13.0 89.3" fill="#3399cc" fill-rule="evenodd" stroke="none"/>
    <path d="M-13.0 -4.6 L-13.2 -4.6 Q-10.85 -9.95 -5.65 -12.3 L-5.45 -11.3 Q-6.15 -11.4 -6.65 -10.8 -3.3 -8.9 -0.6 -6.3 L-0.65 -6.7 -0.5 -6.2 -0.2 -5.15 -0.05 -4.0 -0.15 -4.1 -0.1 -4.1 -0.25 -4.15 -0.2 -4.15 -0.25 -4.15 -1.0 -4.7 -1.55 -4.6 -1.9 -4.45 -3.55 -4.1 -2.45 -4.1 Q-2.8 -3.7 -2.75 -3.15 -2.7 -2.55 -2.25 -2.1 L-1.65 -1.55 -1.25 -0.05 -0.8 1.4 Q-0.35 2.95 -0.5 4.5 L-0.6 5.2 -0.75 5.8 -1.05 7.65 Q-2.8 9.85 -5.15 11.4 L-5.5 11.7 Q-8.25 9.2 -10.25 6.25 -10.3 7.9 -9.35 9.5 -9.1 9.6 -8.9 9.8 L-8.5 10.2 -8.3 10.55 -7.6 11.45 -7.55 11.55 -7.2 12.1 -7.15 12.1 -6.85 12.3 -6.3 12.65 -5.85 13.05 -5.6 13.45 -5.4 13.55 -5.0 13.85 -4.9 13.95 -4.75 14.05 -4.95 14.4 -4.7 14.0 -4.7 14.05 -3.95 14.5 Q-4.4 16.4 -3.25 17.4 L-3.25 17.6 -3.25 17.85 -3.6 17.35 -4.35 16.45 -4.7 16.15 -4.7 16.2 -4.8 16.05 -5.15 15.75 -5.25 15.7 -5.65 15.2 -5.65 15.15 -5.75 15.15 -6.45 14.45 -6.85 14.15 -7.15 13.85 -7.4 13.5 -7.4 13.4 -7.85 12.8 -7.75 12.95 -7.85 12.85 -8.3 12.25 -8.35 12.3 Q-8.75 11.25 -9.55 10.4 L-9.5 10.35 -9.9 9.65 -9.9 9.6 -12.5 3.3 Q-13.3 1.15 -13.25 -1.1 L-13.2 -2.25 -11.5 -2.15 Q-12.0 0.3 -11.4 2.85 L-10.85 4.0 -7.7 6.55 -7.2 6.55 Q-5.45 5.45 -5.3 3.4 L-5.05 1.1 Q-4.7 -1.5 -5.35 -4.0 -5.95 -6.05 -7.75 -6.8 L-8.35 -6.8 -8.5 -6.8 -8.4 -7.05 -8.35 -7.2 -9.8 -6.35 Q-10.4 -5.55 -11.15 -6.5 L-11.45 -6.3 Q-11.3 -5.6 -10.7 -5.4 L-10.6 -5.35 -10.55 -5.3 -10.65 -5.1 -10.8 -4.75 -10.95 -4.6 -13.0 -4.6 M-1.0 -7.85 L-1.5 -9.0 -1.65 -9.3 1.15 -9.4 Q4.65 -8.1 6.65 -4.85 L8.35 -1.45 Q9.15 0.7 9.15 3.05 L9.1 5.3 Q9.0 6.65 7.85 6.7 7.7 6.4 7.4 6.35 L5.95 5.9 4.8 5.85 Q4.0 4.8 3.65 3.55 L3.45 2.85 4.05 3.2 4.2 3.2 Q5.35 1.85 5.1 0.1 L4.55 -2.2 Q3.7 -4.65 2.5 -6.9 L2.05 -7.5 Q1.0 -8.5 -0.3 -8.3 -0.7 -8.0 -1.0 -7.85 M17.2 73.85 L16.75 74.25 Q18.35 73.8 19.65 74.95 20.3 74.65 20.35 74.05 20.4 73.4 21.4 73.75 L21.05 74.8 20.7 75.25 19.2 76.1 18.95 76.1 Q16.95 76.4 15.55 77.65 L18.35 77.25 Q19.9 76.8 20.85 77.65 L20.85 77.75 20.1 78.75 19.0 79.0 Q17.55 78.95 16.55 79.55 15.6 79.75 15.2 80.15 L14.8 78.35 14.5 78.3 14.5 78.35 Q14.35 78.35 14.3 78.45 L14.3 78.5 Q13.7 78.8 13.55 79.55 13.3 81.05 13.2 82.6 L13.15 82.85 13.15 83.1 13.15 83.15 Q13.0 85.05 14.15 86.5 L19.65 85.6 Q18.35 84.95 16.95 85.6 L14.55 85.9 Q15.6 85.75 15.35 84.35 L15.3 83.95 Q18.25 84.2 21.05 83.25 L22.8 82.5 22.8 82.65 22.75 82.75 22.2 86.55 22.1 87.0 Q22.15 86.55 21.6 86.5 20.35 86.55 19.65 87.5 L19.65 87.35 19.1 87.85 Q19.35 88.0 19.45 88.5 19.65 89.45 20.0 90.2 L20.15 90.55 18.9 92.6 18.45 93.0 18.4 92.95 17.95 92.85 17.85 92.8 17.65 92.75 Q16.7 92.35 16.3 91.45 L16.3 91.4 16.15 91.1 16.7 91.2 17.4 90.45 Q17.85 89.75 18.65 89.6 L19.0 89.2 Q19.15 88.05 17.85 88.1 L17.8 88.15 17.75 88.15 17.7 88.2 16.9 88.7 16.35 89.35 Q15.65 89.5 15.65 88.7 15.65 88.4 15.9 88.15 L16.2 87.9 Q15.05 88.05 14.35 89.7 15.75 90.3 15.75 91.85 15.05 93.6 13.7 94.6 L13.15 94.95 Q14.85 95.5 15.75 94.05 L15.75 93.75 Q16.5 94.35 17.3 94.5 L17.35 94.5 18.95 94.25 18.95 94.35 18.85 95.1 Q18.45 96.35 16.95 97.35 L16.45 96.7 16.9 97.25 16.85 97.3 16.65 97.65 Q16.15 98.45 15.4 98.5 14.85 99.9 13.35 100.55 L12.7 100.55 12.7 100.35 Q13.45 99.55 13.65 98.65 13.7 98.05 14.3 97.95 L14.3 97.7 14.9 96.35 14.55 96.45 Q14.7 95.9 14.35 95.75 L14.05 96.05 13.9 96.65 13.25 97.9 12.85 98.8 12.55 99.15 12.15 99.35 12.1 99.35 11.95 99.35 11.75 99.35 11.35 99.65 12.45 99.35 11.3 100.0 10.5 100.4 9.35 100.95 9.45 101.2 9.3 101.3 Q6.6 101.35 3.35 102.45 L5.0 101.5 8.2 100.35 9.3 99.85 Q8.2 99.1 7.7 97.85 L7.5 97.5 8.3 96.65 8.7 96.9 9.25 97.25 8.45 96.7 8.45 96.65 8.45 96.6 8.5 96.2 8.6 95.8 Q8.7 95.35 8.95 95.05 L8.6 94.65 8.85 94.5 9.95 94.55 10.3 94.7 10.35 94.7 10.45 94.75 10.9 94.9 11.0 94.9 11.1 94.9 11.45 95.25 11.4 94.95 Q11.35 94.0 11.45 93.15 L12.25 93.25 Q13.0 92.55 13.2 91.6 L13.5 91.05 13.85 90.6 Q14.3 89.4 13.0 89.3 L12.95 89.25 13.85 88.0 12.65 86.8 Q12.05 83.1 12.85 79.75 L13.35 78.05 14.15 78.1 Q14.7 78.05 15.05 77.65 14.25 76.95 13.15 76.45 13.1 74.55 14.85 73.25 L14.85 74.25 Q15.95 74.3 16.6 73.55 L17.2 73.85 M22.75 79.7 L23.0 80.8 22.85 80.9 Q22.15 81.35 21.25 81.45 L21.1 81.5 20.9 81.1 21.85 80.85 22.35 80.4 Q22.9 79.6 21.95 79.3 L21.5 79.35 21.45 79.3 22.6 78.85 22.75 79.7 M22.05 88.0 L22.2 88.8 21.8 91.15 21.1 91.6 21.15 91.15 Q21.05 90.3 20.55 89.35 20.1 88.55 20.55 88.1 20.75 88.8 21.65 88.1 L21.65 87.85 21.65 87.7 22.05 88.0 M8.65 91.65 L8.65 91.35 Q8.7 89.2 7.6 87.3 L7.55 87.25 7.55 87.2 7.5 87.15 7.45 87.1 7.45 87.05 7.4 87.0 7.35 86.9 7.3 86.85 7.25 86.75 7.2 86.7 7.15 86.65 7.1 86.6 7.05 86.5 6.95 86.4 6.9 86.3 5.4 87.7 5.2 86.5 4.8 86.35 4.6 86.25 Q3.6 86.15 2.8 85.45 L2.65 85.4 4.2 86.8 4.2 86.9 3.45 89.15 Q3.2 88.35 2.4 87.8 1.3 87.05 0.1 87.4 L0.1 85.25 0.1 85.1 0.1 84.95 0.1 84.65 0.25 84.6 0.4 84.65 0.4 84.4 0.65 83.9 0.75 83.95 2.4 84.05 2.8 84.1 Q3.6 84.4 4.2 84.9 L4.3 84.55 Q4.85 82.6 6.35 81.35 L6.5 80.9 7.0 80.45 Q8.2 80.5 8.45 81.75 9.05 84.2 9.2 86.75 L9.15 89.3 9.05 90.7 8.65 91.65 M8.25 45.2 Q7.95 42.45 6.1 40.3 6.65 39.95 7.25 39.7 L7.3 39.75 7.3 39.7 8.8 39.3 7.95 38.95 7.8 38.9 5.65 38.8 Q4.7 38.9 4.0 38.45 3.35 37.95 3.0 36.9 L2.7 36.7 Q2.3 36.35 2.35 36.05 L2.65 35.6 2.95 35.25 3.2 35.6 3.9 36.55 4.0 36.65 4.7 36.5 Q6.95 36.05 8.5 34.5 L8.45 34.85 8.65 33.6 8.8 31.5 10.25 31.9 10.65 32.15 10.9 32.1 11.25 31.95 11.05 31.0 11.25 31.05 11.05 30.9 10.75 30.7 Q9.95 30.2 9.1 29.9 L9.0 27.25 8.7 25.15 7.3 20.7 7.2 21.0 Q6.4 23.0 6.1 25.2 L5.55 26.25 5.55 26.3 Q4.8 24.05 5.9 21.7 L5.75 20.75 4.9 19.8 4.9 19.75 4.8 19.75 4.3 19.4 4.4 19.6 4.45 19.75 3.95 19.8 3.8 19.85 Q3.7 20.25 3.9 20.6 L4.1 21.55 3.85 24.2 Q3.15 23.35 3.35 22.15 3.45 20.95 2.6 20.05 1.6 19.0 0.1 19.25 L-0.6 19.45 -2.0 20.3 -2.9 21.25 -2.95 21.05 -3.2 18.3 Q-3.05 16.65 -1.65 16.05 -0.25 15.35 1.2 14.95 L2.1 14.65 Q5.2 13.1 7.9 15.05 L10.5 18.85 10.45 18.9 10.65 19.15 10.75 19.25 10.75 16.3 10.8 16.45 10.9 16.75 Q11.45 18.85 12.35 20.9 L13.3 22.95 13.65 23.7 Q14.85 26.7 14.35 30.35 L15.5 32.6 15.6 32.9 Q16.15 34.5 16.25 36.3 L16.25 36.7 16.2 36.65 Q16.05 37.6 16.7 38.4 L17.75 39.8 17.75 40.0 16.8 40.0 Q16.3 38.4 15.0 37.9 L15.05 37.7 15.55 35.9 15.5 35.8 15.2 34.7 15.2 34.45 Q15.15 33.0 14.55 31.85 13.15 34.0 13.35 36.9 12.8 36.45 12.7 35.65 L12.65 35.9 12.3 36.45 11.9 37.1 Q11.2 37.35 10.55 37.7 L10.95 32.75 Q10.45 35.0 10.3 37.0 L10.25 37.85 10.0 38.0 Q9.0 38.5 8.8 39.25 L8.8 39.3 Q8.6 39.9 8.95 40.7 L9.0 40.85 Q7.85 40.75 7.8 41.9 L9.0 44.6 9.05 44.7 8.95 44.75 8.25 45.2 M-13.2 -2.25 L-13.35 -2.2 -13.15 -2.4 -12.9 -3.9 Q-11.15 -4.3 -10.75 -2.9 -12.25 -3.1 -13.15 -2.4 L-13.2 -2.25 M-9.25 -8.2 L-9.75 -8.2 -8.75 -7.5 -9.25 -8.2 M-0.3 -5.3 L-0.3 -5.5 Q-3.2 -6.4 -6.15 -6.7 L-0.3 -5.3 M11.15 5.15 L11.2 5.15 11.15 5.15 M10.25 41.0 Q11.7 40.6 13.05 40.0 13.4 41.0 14.05 41.9 14.55 42.55 14.6 43.35 L14.6 43.6 14.3 43.7 13.65 43.85 Q11.3 43.45 10.25 41.0 M7.8 18.8 Q8.65 18.65 9.35 18.1 8.1 17.95 7.8 18.8 M22.3 77.85 Q21.25 77.95 21.1 76.85 21.4 75.65 21.8 76.4 L22.3 77.85 M15.45 82.95 L15.5 82.9 15.55 82.85 16.05 82.05 Q16.15 81.45 16.7 81.25 L16.8 81.2 Q17.4 81.2 17.8 80.85 L17.85 80.7 17.65 80.3 18.95 80.3 19.15 82.7 Q17.1 82.6 15.35 83.2 L15.45 82.95 M19.3 86.9 L19.25 86.85 19.25 86.9 19.3 86.9 M8.8 86.8 L9.0 86.5 Q8.15 84.6 6.1 83.7 6.6 82.55 7.35 83.2 8.15 83.75 8.5 83.7 L6.9 82.0 4.9 85.3 5.7 84.6 Q7.5 84.75 8.8 86.8" fill="#297ca5" fill-rule="evenodd" stroke="none"/>
    <path d="M-1.65 -9.3 Q-2.25 -10.65 -1.35 -12.0 3.1 -12.55 6.9 -9.4 10.5 -6.05 11.75 -1.5 L10.75 -0.45 11.8 -0.1 12.0 0.2 12.05 0.3 12.15 0.55 12.15 1.1 12.15 1.25 12.15 1.95 Q11.8 1.95 11.45 2.45 12.35 5.45 12.3 8.55 L12.15 10.45 12.15 10.55 Q13.75 13.15 16.05 15.2 19.0 19.35 18.15 24.35 L18.05 24.0 18.05 23.9 Q17.45 21.9 16.25 20.35 L16.05 20.05 16.0 19.9 15.8 19.8 Q14.75 18.55 13.35 17.6 L13.7 18.7 Q14.15 19.85 15.05 21.0 L15.55 24.0 Q16.05 26.4 17.05 28.7 17.75 30.35 18.1 32.15 L18.2 32.55 18.2 32.65 18.25 32.85 18.4 34.0 18.5 35.15 18.5 35.3 18.5 35.45 18.45 36.9 Q21.2 39.8 21.1 43.9 L21.2 44.2 20.8 44.25 20.7 44.25 20.35 44.35 20.15 44.45 20.1 44.45 20.05 44.5 20.0 44.45 19.7 44.2 Q18.7 43.4 17.45 42.9 L19.0 44.2 18.75 44.1 17.6 43.7 16.4 43.5 14.6 43.6 14.6 43.35 Q14.55 42.55 14.05 41.9 13.4 41.0 13.05 40.0 11.7 40.6 10.25 41.0 11.15 40.25 10.75 39.8 10.2 40.95 9.0 40.85 L8.95 40.7 Q8.6 39.9 8.8 39.3 L8.8 39.25 Q9.0 38.5 10.0 38.0 L10.25 37.85 10.25 37.9 10.55 37.9 10.55 37.7 Q11.2 37.35 11.9 37.1 L12.3 36.45 12.65 35.9 12.7 35.65 Q12.8 36.45 13.35 36.9 13.15 34.0 14.55 31.85 15.15 33.0 15.2 34.45 L15.2 34.7 15.5 35.8 15.55 35.9 15.05 37.7 15.0 37.9 Q16.3 38.4 16.8 40.0 L16.75 40.0 16.75 40.7 Q16.85 41.6 17.4 42.05 18.0 42.5 19.1 42.4 L19.15 42.4 Q19.9 39.45 17.95 37.4 L17.75 39.8 16.7 38.4 Q16.05 37.6 16.2 36.65 L16.25 36.7 16.25 36.3 Q16.15 34.5 15.6 32.9 L15.5 32.6 14.35 30.35 Q14.85 26.7 13.65 23.7 L13.3 22.95 12.35 20.9 Q11.45 18.85 10.9 16.75 L10.8 16.45 10.75 16.3 10.75 19.25 10.65 19.15 10.45 18.9 10.5 18.85 7.9 15.05 Q5.2 13.1 2.1 14.65 L1.2 14.95 Q-0.25 15.35 -1.65 16.05 -3.05 16.65 -3.2 18.3 L-3.2 18.0 -3.25 17.6 -3.25 17.4 Q-4.4 16.4 -3.95 14.5 L0.7 14.1 1.1 14.0 0.2 13.7 Q-1.9 13.0 -4.25 12.8 L-5.5 11.7 -5.15 11.4 Q-2.8 9.85 -1.05 7.65 L-0.75 5.8 -0.6 5.2 -0.5 4.5 Q-0.35 2.95 -0.8 1.4 L-1.25 -0.05 -1.65 -1.55 -2.25 -2.1 Q-2.7 -2.55 -2.75 -3.15 -2.8 -3.7 -2.45 -4.1 L-0.15 -4.1 0.9 -2.85 1.6 -1.65 -0.1 -0.7 Q0.65 -0.55 1.6 -1.2 L2.8 4.85 2.1 10.55 2.8 11.4 Q3.35 8.5 4.2 6.25 L7.1 7.95 6.2 7.3 4.85 5.95 4.8 5.85 5.95 5.9 7.4 6.35 Q7.7 6.4 7.85 6.7 9.0 6.65 9.1 5.3 L9.15 3.05 Q9.15 0.7 8.35 -1.45 L6.65 -4.85 Q4.65 -8.1 1.15 -9.4 L-1.65 -9.3 M21.05 74.8 Q21.55 74.85 22.0 75.2 L22.2 75.65 22.0 76.15 22.6 78.85 21.45 79.3 21.25 79.4 20.8 79.6 20.35 79.75 20.4 79.9 20.9 81.1 21.1 81.5 21.25 81.45 Q22.15 81.35 22.85 80.9 L23.0 81.4 22.8 82.65 22.8 82.5 21.05 83.25 Q18.25 84.2 15.3 83.95 L14.85 83.9 14.85 83.2 Q14.8 81.7 14.9 80.85 14.9 80.4 15.2 80.15 15.6 79.75 16.55 79.55 17.55 78.95 19.0 79.0 L20.1 78.75 20.85 77.75 20.85 77.65 Q19.9 76.8 18.35 77.25 L15.55 77.65 Q16.95 76.4 18.95 76.1 L19.2 76.1 20.7 75.25 21.05 74.8 M22.2 86.55 L22.25 87.15 22.1 87.85 22.05 88.0 21.65 87.7 21.65 87.65 21.35 87.65 21.2 87.7 21.15 87.7 21.1 87.7 21.05 87.75 20.8 87.85 20.55 88.1 Q20.1 88.55 20.55 89.35 21.05 90.3 21.15 91.15 L21.0 91.3 19.1 92.95 19.05 92.95 19.05 93.0 19.1 94.35 18.85 95.1 18.95 94.35 18.95 94.25 17.35 94.5 17.3 94.5 Q16.5 94.35 15.75 93.75 L15.75 94.05 Q14.85 95.5 13.15 94.95 L13.7 94.6 Q15.05 93.6 15.75 91.85 15.75 90.3 14.35 89.7 15.05 88.05 16.2 87.9 L15.9 88.15 Q15.65 88.4 15.65 88.7 15.65 89.5 16.35 89.35 L16.9 88.7 Q16.0 89.4 16.05 90.55 L16.15 91.1 16.3 91.4 16.3 91.45 Q16.7 92.35 17.65 92.75 L17.85 92.8 17.95 92.85 18.4 92.95 18.45 93.0 18.9 92.6 20.15 90.55 20.0 90.2 Q19.65 89.45 19.45 88.5 19.35 88.0 19.1 87.85 L19.65 87.35 19.65 87.5 Q20.35 86.55 21.6 86.5 22.15 86.55 22.1 87.0 L22.2 86.55 M11.15 77.8 L11.45 77.7 13.95 78.0 14.15 78.1 13.35 78.05 12.85 79.75 Q12.05 83.1 12.65 86.8 L13.85 88.0 12.95 89.25 12.9 89.3 12.55 89.9 11.55 92.65 11.45 93.15 Q11.35 94.0 11.4 94.95 L11.45 95.25 11.1 94.9 Q10.05 93.8 10.05 92.15 10.35 89.55 12.45 88.0 L11.75 87.3 11.45 79.25 11.45 78.05 11.35 78.0 11.15 77.8 M2.35 36.05 L1.75 35.25 1.65 35.0 1.8 35.0 2.4 33.75 Q3.0 32.15 3.0 30.35 3.4 29.25 4.15 28.85 L4.25 28.9 Q4.9 29.0 5.4 29.4 L6.15 30.05 6.4 30.4 6.4 30.65 6.8 31.1 6.95 31.05 Q6.5 31.2 6.3 30.7 6.0 30.0 5.4 29.65 3.65 29.8 4.0 31.4 4.3 33.05 3.3 34.0 L2.95 35.25 2.65 35.6 2.35 36.05 M0.95 34.5 L0.65 33.85 0.6 33.45 0.45 32.0 Q0.6 31.2 1.3 30.85 L1.35 30.95 1.35 31.0 1.45 31.2 1.55 32.65 1.45 32.9 1.4 33.0 Q1.0 33.8 0.95 34.5 M-13.25 -1.1 L-13.5 -1.35 -13.55 -1.85 Q-13.45 -3.3 -13.0 -4.6 L-10.95 -4.6 -10.8 -4.75 Q-10.4 -5.1 -10.55 -5.3 L-10.6 -5.35 -10.7 -5.4 Q-11.3 -5.6 -11.45 -6.3 L-11.15 -6.5 Q-10.4 -5.55 -9.8 -6.35 L-8.35 -7.2 -8.4 -7.05 -8.5 -6.8 Q-9.35 -4.05 -9.75 -0.7 L-9.95 -0.7 Q-10.55 -1.85 -11.5 -2.15 L-13.2 -2.25 -13.25 -1.1 M-13.2 -2.25 L-13.15 -2.4 Q-12.25 -3.1 -10.75 -2.9 -11.15 -4.3 -12.9 -3.9 L-13.15 -2.4 -13.35 -2.2 -13.2 -2.25 M-9.25 -8.2 L-8.75 -7.5 -9.75 -8.2 -9.25 -8.2 M-1.9 -4.45 L-1.55 -4.6 -1.0 -4.7 -0.25 -4.15 -0.7 -4.3 -1.15 -4.4 -1.9 -4.45 M4.2 -9.6 Q6.25 -8.35 7.35 -6.25 8.45 -4.2 10.05 -2.4 8.65 -7.5 4.2 -9.6 M9.9 5.35 L9.7 7.25 9.55 8.85 9.5 9.35 Q9.6 10.35 10.55 10.4 L10.25 10.15 10.4 9.7 10.65 8.85 10.75 8.4 Q11.1 6.8 11.05 5.25 L11.05 5.1 Q10.9 3.4 10.25 1.75 L9.9 5.35 M0.4 -2.9 Q-1.0 -2.85 -1.5 -2.2 -0.35 -2.25 0.4 -2.9 M11.15 5.15 L11.2 5.15 11.15 5.15 M4.45 19.75 L4.4 19.6 4.3 19.4 4.8 19.75 4.85 19.75 4.9 19.8 5.75 20.75 5.9 21.7 Q4.8 24.05 5.55 26.3 L6.4 27.95 Q7.3 29.4 8.65 29.75 L9.1 29.9 Q9.95 30.2 10.75 30.7 L11.05 30.9 11.25 31.05 11.05 31.0 10.9 30.95 10.75 30.9 10.75 30.95 Q9.4 30.5 8.0 29.65 L7.0 29.0 Q6.0 28.3 5.4 27.3 L5.15 26.95 Q4.65 26.0 4.5 24.85 5.25 22.75 4.85 20.9 L4.45 19.75 M10.75 16.3 L10.75 16.2 10.75 16.3 M19.1 44.3 L19.0 44.2 19.2 44.45 19.1 44.3 M13.15 39.3 L13.25 39.8 13.25 39.9 Q13.75 42.05 15.55 42.9 14.75 41.1 13.55 39.75 L13.35 39.5 13.15 39.3 M22.3 77.85 L21.8 76.4 Q21.4 75.65 21.1 76.85 21.25 77.95 22.3 77.85 M15.45 82.95 L15.35 83.2 Q17.1 82.6 19.15 82.7 L18.95 80.3 17.65 80.3 16.75 80.3 16.45 80.3 Q15.95 80.35 15.7 80.6 15.45 80.85 15.5 81.35 L15.5 81.4 15.55 81.45 15.55 82.2 15.55 82.45 15.5 82.6 15.45 82.75 15.45 82.8 15.45 82.9 15.45 82.95 M19.65 80.3 L19.85 82.5 20.55 81.7 19.65 80.3 M13.2 82.6 L13.35 82.0 14.15 85.8 14.55 85.9 16.95 85.6 Q18.35 84.95 19.65 85.6 L14.15 86.5 Q13.0 85.05 13.15 83.15 L13.15 83.1 13.2 82.85 13.2 82.6 M8.8 86.8 Q7.5 84.75 5.7 84.6 L4.9 85.3 6.9 82.0 8.5 83.7 Q8.15 83.75 7.35 83.2 6.6 82.55 6.1 83.7 8.15 84.6 9.0 86.5 L8.8 86.8" fill="#1e5a77" fill-rule="evenodd" stroke="none"/>
    <path d="M1.65 35.0 L0.9 35.0 0.95 34.5 Q1.0 33.8 1.4 33.0 L1.45 32.9 1.55 32.65 1.45 31.2 1.35 31.0 1.35 30.95 Q1.65 29.6 2.55 28.55 L2.95 28.1 Q3.9 27.3 3.8 25.9 L3.8 24.5 3.85 24.2 4.1 21.55 3.9 20.6 Q3.7 20.25 3.8 19.85 L3.95 19.8 4.45 19.75 4.85 20.9 Q5.25 22.75 4.5 24.85 4.65 26.0 5.15 26.95 L5.4 27.3 Q6.0 28.3 7.0 29.0 L8.0 29.65 Q9.4 30.5 10.75 30.95 L10.75 30.9 10.9 30.95 11.05 31.0 11.25 31.95 10.9 32.1 10.65 32.15 10.25 31.9 8.8 31.5 7.15 30.95 7.15 31.0 7.1 31.0 6.95 31.05 6.8 31.1 6.4 30.65 6.4 30.4 6.15 30.05 5.4 29.4 Q4.9 29.0 4.25 28.9 L4.15 28.85 Q3.4 29.25 3.0 30.35 3.0 32.15 2.4 33.75 L2.2 34.1 1.65 35.0" fill="#66b4d9" fill-rule="evenodd" stroke="none"/>
    <path d="M10.55 37.7 L10.55 37.9 10.25 37.9 10.25 37.85 10.3 37.0 Q10.45 35.0 10.95 32.75 L10.55 37.7 M7.8 18.8 Q8.1 17.95 9.35 18.1 8.65 18.65 7.8 18.8" fill="#1a4e66" fill-rule="evenodd" stroke="none"/>
    <path d="M22.65 46.75 L23.95 48.85 Q25.55 51.25 25.0 54.25 24.3 54.15 24.0 54.75 25.3 57.1 26.4 59.75 27.5 62.4 26.4 65.1 L24.4 69.3 Q23.2 71.5 25.2 73.55 L22.8 73.55 Q21.2 72.05 22.05 70.25 22.8 68.45 21.8 66.8 L21.1 69.45 20.35 70.85 Q20.15 69.0 19.15 67.9 L18.95 67.7 19.05 68.05 19.35 71.05 19.35 71.2 19.35 72.1 19.35 72.8 19.35 72.85 18.75 73.0 18.65 73.05 18.25 73.2 18.05 73.3 18.0 73.3 17.95 73.35 17.9 73.35 17.2 73.85 16.6 73.55 16.8 73.35 17.2 72.45 17.25 72.4 17.25 72.35 17.5 70.8 17.75 69.95 17.25 69.45 16.35 71.15 16.4 71.15 15.75 72.3 15.75 72.35 15.35 72.35 15.6 71.25 15.7 70.5 15.85 68.35 15.85 68.25 15.85 67.95 15.85 67.75 15.85 67.6 15.85 67.45 15.85 67.2 Q15.8 65.25 15.25 63.35 L15.35 63.1 15.4 63.0 15.4 62.9 15.5 62.6 15.55 62.6 Q16.0 61.0 15.6 59.4 L15.6 59.3 15.55 59.15 15.5 58.95 15.4 58.65 15.35 58.5 15.45 58.45 16.05 58.25 Q17.95 58.95 18.0 61.25 18.0 62.85 18.5 64.3 L18.0 64.6 17.95 64.6 18.45 65.1 18.65 64.9 19.0 64.55 19.15 64.3 Q20.65 62.35 20.55 60.0 20.3 62.6 19.05 63.85 L18.75 64.15 18.9 63.55 18.9 63.35 18.9 63.4 19.25 61.3 19.25 61.2 19.25 61.1 19.15 61.2 Q18.25 60.05 18.2 58.45 18.1 56.8 16.75 55.65 L16.95 55.15 16.75 54.95 Q17.75 55.0 18.85 55.9 L19.35 56.35 19.8 56.8 19.85 56.85 19.7 55.65 19.4 54.5 19.4 54.45 Q18.4 51.6 15.75 49.15 17.95 50.65 19.65 52.8 L19.8 53.0 Q21.1 54.6 21.05 56.7 L21.05 56.8 21.15 56.7 21.2 56.7 21.25 56.65 21.25 56.4 21.95 56.3 Q23.9 56.95 24.4 59.2 L24.85 61.65 25.05 61.75 Q25.9 60.15 24.8 58.15 24.3 57.2 24.15 56.2 L22.7 53.65 22.3 52.8 Q22.35 53.8 22.0 54.75 L21.85 55.05 Q21.45 53.1 20.7 51.3 L20.45 50.75 21.8 52.35 21.6 50.85 Q20.8 49.55 19.8 48.6 L17.45 46.95 16.95 46.7 Q16.25 46.0 15.9 45.05 15.55 44.0 16.4 43.5 L17.6 43.7 18.75 44.1 19.0 44.2 19.1 44.3 19.3 44.55 20.55 47.5 20.35 47.75 20.9 48.3 20.85 48.4 20.9 48.35 Q23.05 50.8 23.5 53.95 L24.0 53.95 Q24.0 52.2 23.05 50.85 22.05 49.45 22.3 47.55 L22.05 47.05 21.7 46.45 21.0 45.5 21.9 46.2 22.65 46.75 M14.45 71.85 Q14.05 71.7 13.65 72.05 L13.55 72.15 Q13.0 72.6 12.7 73.15 11.75 74.7 12.45 76.65 10.9 76.9 9.7 74.45 8.9 72.5 10.05 71.1 L12.1 68.3 12.15 68.25 11.95 67.3 12.05 67.2 Q12.5 66.8 12.95 66.55 L14.1 66.6 Q15.4 68.05 14.75 70.2 14.45 70.95 14.45 71.85 M12.95 50.85 L12.6 50.4 Q12.65 49.7 13.4 49.2 L14.35 49.25 Q16.25 51.2 17.4 53.6 L17.5 53.75 17.45 53.9 17.35 54.0 17.35 54.05 Q16.2 55.15 14.85 54.35 L14.05 53.8 12.8 51.45 12.65 50.9 12.95 50.85 M8.3 56.95 L8.3 57.0 8.35 57.15 8.35 57.3 8.35 57.5 7.4 60.45 7.1 60.8 6.35 61.65 Q4.15 63.65 4.7 66.8 3.65 63.85 5.15 61.35 6.6 59.0 8.1 57.15 L8.3 56.9 8.3 56.95 M7.35 62.85 Q7.4 61.2 8.3 59.9 L8.3 59.75 8.35 59.55 9.45 58.9 9.75 58.85 9.8 58.85 Q10.7 59.45 10.9 60.5 L10.75 61.7 10.8 61.7 10.9 60.9 10.8 62.05 Q10.3 63.85 11.45 65.5 L11.6 66.05 11.3 66.75 10.65 67.2 10.55 67.2 10.55 67.1 10.55 67.0 10.6 66.8 10.6 66.65 10.6 66.45 10.6 66.4 10.45 65.85 10.25 65.6 9.8 66.0 9.65 66.05 9.15 66.15 8.15 65.95 7.55 64.8 7.55 64.3 7.75 63.45 7.75 63.4 7.8 63.25 7.85 63.2 7.85 63.15 7.9 63.0 Q8.6 61.5 8.55 60.0 L7.85 61.0 7.65 61.55 7.6 61.65 7.55 61.75 7.35 62.85 M8.5 51.35 Q9.3 54.25 6.9 56.7 L8.5 51.35 M24.4 61.5 L24.2 60.7 Q23.75 58.6 22.3 57.15 23.0 59.3 23.3 61.6 L23.5 64.4 23.8 64.6 24.5 63.2 25.4 65.6 Q25.4 65.0 25.7 64.6 24.85 63.15 24.4 61.5" fill="#0b3d66" fill-rule="evenodd" stroke="none"/>
    <path d="M15.35 72.35 L14.85 72.05 14.45 71.85 Q14.45 70.95 14.75 70.2 15.4 68.05 14.1 66.6 L12.95 66.55 Q12.5 66.8 12.05 67.2 L11.95 67.3 11.45 66.8 11.3 66.75 11.6 66.05 11.45 65.5 Q10.3 63.85 10.8 62.05 L10.9 60.9 11.1 59.7 11.1 59.65 10.95 59.85 10.9 60.5 Q10.7 59.45 9.8 58.85 L9.75 58.85 9.45 58.9 8.35 59.55 8.3 59.75 8.3 59.9 Q7.4 61.2 7.35 62.85 L7.2 63.45 7.1 63.45 Q6.95 62.15 7.1 60.85 L7.1 60.8 7.4 60.45 8.35 57.5 8.4 57.35 8.35 57.3 8.35 57.15 8.3 57.0 8.3 56.95 8.3 56.85 8.3 56.9 8.1 57.15 Q7.85 56.95 7.9 56.55 8.3 53.65 11.25 53.05 L11.75 53.1 11.9 53.25 12.1 53.55 11.8 54.1 12.1 53.95 12.45 53.85 Q14.0 54.6 14.2 56.45 14.5 59.75 13.4 62.8 L13.35 62.95 14.1 64.5 14.3 65.95 14.45 65.5 14.7 64.65 14.8 64.15 14.55 64.6 14.9 60.15 15.0 58.8 15.05 57.9 15.35 58.5 15.4 58.65 15.5 58.95 15.55 59.15 15.6 59.3 15.6 59.4 Q16.0 61.0 15.55 62.6 L15.5 62.6 15.4 62.9 15.4 63.0 15.35 63.1 15.25 63.35 Q15.8 65.25 15.85 67.2 L15.85 67.45 15.85 67.6 15.85 67.75 15.85 67.95 15.85 68.25 15.85 68.35 15.7 70.5 15.6 71.25 15.35 72.35 M9.9 68.25 Q8.75 69.7 8.85 71.6 L8.9 72.15 8.9 72.25 8.95 72.3 9.0 72.9 8.85 74.6 8.8 74.8 8.5 75.5 7.1 77.15 6.9 77.3 6.15 76.8 4.5 72.05 Q4.3 74.5 2.3 76.65 L1.8 76.65 Q0.45 74.15 1.9 71.95 L2.2 71.4 2.8 68.65 2.75 68.5 Q3.6 67.6 4.75 66.9 L4.95 66.75 5.65 66.55 Q7.8 67.1 7.0 69.3 6.65 70.15 6.9 71.05 L6.9 71.1 7.0 71.05 7.4 70.9 Q7.7 69.45 8.75 68.5 L9.1 68.2 9.9 68.15 9.9 68.25 M19.0 44.2 L17.45 42.9 Q18.7 43.4 19.7 44.2 L20.0 44.45 20.05 44.5 20.25 44.7 20.3 44.75 21.0 45.5 21.7 46.45 22.05 47.05 22.3 47.55 Q22.05 49.45 23.05 50.85 24.0 52.2 24.0 53.95 L23.5 53.95 Q23.05 50.8 20.9 48.35 L20.9 48.3 20.35 47.75 20.55 47.75 20.55 47.55 20.55 47.5 19.3 44.55 19.2 44.45 19.0 44.2 M11.7 48.8 Q11.9 48.3 12.55 47.95 L13.65 48.05 13.75 47.75 Q14.05 47.2 14.65 47.25 16.6 47.35 18.0 49.05 19.4 50.75 19.65 52.8 17.95 50.65 15.75 49.15 18.4 51.6 19.4 54.45 L19.25 54.55 18.95 54.4 18.8 54.3 18.65 54.0 17.1 52.45 17.5 53.55 17.4 53.6 Q16.25 51.2 14.35 49.25 L13.4 49.2 Q12.65 49.7 12.6 50.4 12.0 49.6 11.7 48.8 M21.25 56.4 L21.65 55.4 Q21.7 55.2 21.9 55.1 L21.85 55.05 22.0 54.75 Q22.35 53.8 22.3 52.8 L22.7 53.65 24.15 56.2 Q24.3 57.2 24.8 58.15 25.9 60.15 25.05 61.75 L24.85 61.65 24.4 59.2 Q23.9 56.95 21.95 56.3 L21.25 56.4" fill="#0e508f" fill-rule="evenodd" stroke="none"/>
    <path d="M21.4 44.5 L21.6 44.9 22.25 46.1 22.3 46.25 22.5 46.5 22.65 46.75 21.9 46.2 21.0 45.5 20.3 44.75 20.25 44.7 20.05 44.5 20.1 44.45 20.15 44.45 20.35 44.35 20.7 44.25 20.8 44.25 21.4 44.5 M11.45 66.8 L10.5 67.6 10.55 67.2 10.65 67.2 11.3 66.75 11.45 66.8 M9.95 68.15 L9.9 68.25 9.9 68.15 9.95 68.15 M18.65 48.1 L18.65 48.15 18.75 48.2 19.85 49.65 19.95 49.8 Q19.0 48.25 17.5 47.15 L17.15 46.9 17.4 47.05 18.65 48.1 M11.55 49.7 L11.75 50.0 Q12.35 51.05 12.95 50.85 L12.65 50.9 12.8 51.45 14.05 53.8 Q12.25 52.4 11.65 50.2 L11.55 49.7 M17.4 53.6 L17.5 53.55 17.5 53.75 17.4 53.6 M19.25 54.55 L19.4 54.45 19.4 54.5 19.25 54.55 M18.85 55.9 Q19.05 55.75 19.45 55.7 L19.7 55.65 19.85 56.85 19.8 56.8 19.35 56.35 18.85 55.9 M14.9 60.15 L14.8 59.7 Q14.65 59.1 15.0 58.8 L14.9 60.15 M7.1 63.45 L7.2 63.45 7.25 64.05 7.2 64.0 7.1 63.45 M7.55 64.9 L7.55 64.8 8.15 65.95 7.6 65.25 7.55 64.9" fill="#0e5085" fill-rule="evenodd" stroke="none"/>
    <path d="M21.2 44.2 L21.4 44.5 20.8 44.25 21.2 44.2 M18.05 73.3 L17.95 73.35 18.0 73.3 18.05 73.3 M10.5 67.6 L9.95 68.15 9.9 68.15 9.1 68.2 8.75 68.5 Q7.7 69.45 7.4 70.9 L7.0 71.05 6.9 71.1 6.9 71.05 Q6.65 70.15 7.0 69.3 7.8 67.1 5.65 66.55 L4.95 66.75 4.75 66.9 4.7 66.8 Q4.15 63.65 6.35 61.65 L7.1 60.8 7.1 60.85 Q6.95 62.15 7.1 63.45 L7.2 64.0 7.2 64.05 7.45 65.25 7.85 66.3 Q7.65 65.75 7.6 65.2 L7.55 64.9 7.6 65.25 8.15 65.95 9.15 66.15 9.65 66.05 9.8 66.0 10.25 65.6 10.45 65.85 10.6 66.4 10.6 66.45 10.6 66.65 10.6 66.8 10.55 67.0 10.55 67.1 10.55 67.2 10.5 67.6 M6.9 77.3 L6.4 77.65 6.15 76.8 6.9 77.3 M21.05 56.7 L21.15 56.7 21.05 56.8 21.05 56.7 M14.7 64.65 L14.55 64.6 14.8 64.15 14.7 64.65 M19.25 61.2 L19.15 61.2 19.25 61.1 19.25 61.2 M8.35 57.3 L8.4 57.35 8.35 57.5 8.35 57.3 M10.9 60.5 L10.95 59.85 11.1 59.65 11.1 59.7 10.9 60.9 10.8 61.7 10.75 61.7 10.9 60.5" fill="#1060a0" fill-rule="evenodd" stroke="none"/>
    <path d="M20.55 47.5 L20.55 47.55 20.55 47.75 20.35 47.75 20.55 47.5 M13.65 43.85 L14.3 43.7 14.35 43.9 13.65 43.85" fill="#0033cc" fill-rule="evenodd" stroke="none"/>
    <path d="M2.75 68.5 L2.5 67.0 Q1.75 69.65 0.4 72.05 -1.05 67.45 0.9 62.9 4.8 60.2 5.7 55.65 L5.4 55.45 Q3.6 59.6 -0.6 62.0 2.4 58.7 3.4 54.05 4.25 50.0 7.35 46.9 L7.8 46.5 8.25 46.1 8.3 46.0 8.3 45.6 8.25 45.2 8.95 44.75 9.05 44.7 Q9.7 46.05 10.95 45.3 L10.75 47.95 10.75 48.0 10.8 48.15 11.55 49.7 11.65 50.2 Q12.25 52.4 14.05 53.8 L14.85 54.35 Q16.2 55.15 17.35 54.05 L17.35 54.0 17.45 53.9 17.5 53.75 17.5 53.55 17.1 52.45 18.65 54.0 18.8 54.3 18.95 54.4 19.25 54.55 19.4 54.5 19.7 55.65 19.45 55.7 Q19.05 55.75 18.85 55.9 17.75 55.0 16.75 54.95 L16.95 55.15 16.75 55.65 Q18.1 56.8 18.2 58.45 18.25 60.05 19.15 61.2 L19.25 61.2 19.25 61.3 18.9 63.4 18.9 63.35 18.9 63.55 18.75 64.15 19.05 63.85 Q20.3 62.6 20.55 60.0 20.65 62.35 19.15 64.3 L19.0 64.55 18.65 64.9 18.45 65.1 17.95 64.6 18.0 64.6 18.5 64.3 Q18.0 62.85 18.0 61.25 17.95 58.95 16.05 58.25 L15.45 58.45 15.35 58.5 15.05 57.9 15.0 58.8 Q14.65 59.1 14.8 59.7 L14.9 60.15 14.55 64.6 14.7 64.65 14.45 65.5 14.3 65.95 14.1 64.5 13.35 62.95 13.4 62.8 Q14.5 59.75 14.2 56.45 14.0 54.6 12.45 53.85 L12.1 53.95 11.8 54.1 12.1 53.55 11.9 53.25 11.75 53.1 11.25 53.05 Q8.3 53.65 7.9 56.55 7.85 56.95 8.1 57.15 6.6 59.0 5.15 61.35 3.65 63.85 4.7 66.8 L4.75 66.9 Q3.6 67.6 2.75 68.5 M14.6 43.6 L16.4 43.5 Q15.55 44.0 15.9 45.05 16.25 46.0 16.95 46.7 L16.55 46.55 17.4 47.05 17.45 46.95 19.8 48.6 Q20.8 49.55 21.6 50.85 L21.8 52.35 20.45 50.75 20.7 51.3 Q21.45 53.1 21.85 55.05 L21.9 55.1 Q21.7 55.2 21.65 55.4 L21.25 56.4 21.25 56.65 21.2 56.7 21.15 56.7 21.05 56.7 Q21.1 54.6 19.8 53.0 L19.65 52.8 Q19.4 50.75 18.0 49.05 16.6 47.35 14.65 47.25 14.05 47.2 13.75 47.75 L13.65 48.05 12.55 47.95 Q11.9 48.3 11.7 48.8 L11.45 48.1 Q10.95 46.2 11.75 44.3 13.95 44.7 14.35 43.9 L14.3 43.7 14.6 43.6 M18.65 48.1 L17.4 47.05 17.15 46.9 17.5 47.15 Q19.0 48.25 19.95 49.8 L19.85 49.65 18.75 48.2 18.65 48.15 18.65 48.1 M7.2 63.45 L7.35 62.85 7.55 61.75 7.6 61.65 7.65 61.55 7.85 61.0 8.55 60.0 Q8.6 61.5 7.9 63.0 L7.85 63.15 7.85 63.2 7.8 63.25 7.75 63.4 7.75 63.45 7.55 64.3 7.55 64.8 7.55 64.9 7.6 65.2 Q7.65 65.75 7.85 66.3 L7.45 65.25 7.2 64.05 7.25 64.05 7.2 63.45 M8.5 51.35 L6.9 56.7 Q9.3 54.25 8.5 51.35 M24.4 61.5 Q24.85 63.15 25.7 64.6 25.4 65.0 25.4 65.6 L24.5 63.2 23.8 64.6 23.5 64.4 23.3 61.6 Q23.0 59.3 22.3 57.15 23.75 58.6 24.2 60.7 L24.4 61.5" fill="#126ab1" fill-rule="evenodd" stroke="none"/>
    <path d="M22.6 78.85 L22.75 79.55 22.75 79.7 22.6 78.85 M22.8 82.65 L22.75 82.75 22.8 82.65" fill="#313a53" fill-rule="evenodd" stroke="none"/>
    <path d="M16.45 80.3 L16.3 80.4 Q15.95 80.4 15.7 80.6 15.95 80.35 16.45 80.3 M21.45 79.3 L21.5 79.35 21.25 79.4 21.45 79.3 M20.8 79.6 L20.4 79.9 20.35 79.75 20.8 79.6" fill="#53648a" fill-rule="evenodd" stroke="none"/>
    <path d="M0.65 83.9 L0.4 83.9 0.65 83.6 0.75 83.95 0.65 83.9 M17.8 88.15 L17.85 88.1 17.8 88.15 M12.95 89.25 L13.0 89.3 12.95 89.25 M13.15 83.1 L13.15 82.85 13.2 82.6 13.2 82.85 13.15 83.1" fill="#6c7fb0" fill-rule="evenodd" stroke="none"/>
  </g>
</svg>
