<?xml version="1.0" encoding="UTF-8" standalone="no"?>
<svg xmlns:xlink="http://www.w3.org/1999/xlink" height="110.65px" width="44.4px" xmlns="http://www.w3.org/2000/svg">
  <g transform="matrix(1.0, 0.0, 0.0, 1.0, 31.0, 16.55)">
    <path d="M-9.25 -6.55 L-9.05 -6.6 Q-8.2 -6.45 -8.3 -5.5 -8.4 -4.8 -8.65 -4.15 L-9.2 -2.8 Q-9.5 -2.15 -10.0 -1.65 L-10.4 -1.35 Q-10.95 -1.0 -11.35 -1.5 L-11.6 -2.05 -11.6 -2.25 -11.3 -3.3 -11.0 -4.35 -10.35 -5.5 -9.5 -6.4 -9.25 -6.55 M-13.45 4.15 L-12.9 3.85 -12.85 3.8 Q-12.05 3.8 -11.9 4.65 -11.75 5.45 -12.0 6.25 L-12.2 6.75 -12.35 7.0 -12.45 7.25 -13.6 12.0 -14.25 16.4 -14.4 19.5 Q-14.45 20.15 -15.0 20.5 L-15.75 20.5 -16.95 18.55 Q-17.85 16.15 -16.9 13.4 L-16.4 11.9 -16.35 11.75 -16.3 11.2 -16.1 10.55 -15.45 8.25 -15.0 7.0 -14.45 5.85 -14.45 5.8 -14.35 5.55 -14.3 5.5 Q-14.1 4.65 -13.45 4.15 M-17.65 28.15 Q-17.15 27.85 -16.55 27.7 L-16.1 27.85 -15.8 28.0 Q-15.55 28.4 -15.6 28.9 L-15.7 29.4 -17.15 31.1 -17.25 31.25 Q-17.6 33.75 -19.85 33.0 -20.3 32.85 -20.25 32.35 L-20.15 31.75 Q-19.75 29.2 -17.65 28.15 M-6.95 -5.9 L-6.85 -5.95 -6.9 -5.9 -6.95 -5.9 M-17.45 43.95 L-17.05 43.9 -17.05 43.85 -16.65 44.0 -16.55 44.15 Q-16.3 44.6 -16.7 45.05 L-16.8 45.2 -16.8 45.4 -16.75 45.7 Q-17.5 46.85 -17.85 48.15 L-17.95 48.5 -18.15 48.65 -18.9 48.65 -18.95 48.65 Q-20.0 46.3 -18.1 44.5 L-17.45 43.95 M-16.7 65.45 L-16.55 65.3 -16.25 65.25 -16.25 65.2 -16.1 65.2 -15.7 65.3 -16.0 66.35 -16.65 68.05 -16.8 68.35 -17.55 68.5 -17.65 68.45 -17.7 68.45 -17.85 68.4 -18.05 68.25 -18.15 68.05 -18.15 68.0 -18.25 67.55 -18.25 67.2 -16.7 65.45 M-28.05 82.3 L-28.1 82.25 -28.15 82.05 Q-28.0 81.2 -27.45 80.5 L-26.55 79.45 -26.2 79.15 -24.85 78.7 Q-24.25 78.6 -24.1 79.05 L-24.0 79.35 -24.05 79.6 -25.1 80.5 Q-25.85 80.8 -26.35 81.5 L-26.9 82.15 -26.95 82.2 -28.05 82.3 M-17.75 86.55 Q-18.05 86.25 -17.95 85.8 -17.75 84.65 -17.0 83.75 L-16.0 82.85 -15.65 82.6 Q-14.8 82.05 -13.8 81.9 L-13.4 81.9 -12.9 81.85 -12.75 81.9 Q-12.55 81.95 -12.65 82.2 L-12.7 82.25 -13.1 82.8 -14.45 83.7 -15.35 84.3 Q-16.5 84.9 -17.1 86.1 L-17.55 86.6 -17.75 86.6 -17.75 86.55" fill="#ffffff" fill-rule="evenodd" stroke="none"/>
    <path d="M-18.35 68.35 L-18.15 68.0 -18.15 68.05 -18.05 68.25 -17.85 68.4 -17.7 68.45 -18.35 68.35" fill="#8787c2" fill-rule="evenodd" stroke="none"/>
    <path d="M-21.1 37.85 L-21.35 38.05 -22.1 38.1 -22.35 37.35 -22.65 34.95 -22.65 34.8 -22.65 34.7 -22.65 34.55 -22.65 34.35 Q-22.0 31.6 -20.65 29.2 -19.8 27.65 -19.6 25.85 L-19.3 25.65 -19.55 25.35 Q-19.5 24.55 -19.6 23.7 -19.95 18.85 -18.9 14.4 L-17.0 5.5 -15.0 0.55 Q-13.9 -1.85 -13.45 -4.5 -11.25 -8.85 -7.45 -12.1 L-7.35 -12.15 -7.1 -12.25 -6.75 -12.35 -4.95 -12.8 -4.6 -12.85 -4.0 -12.95 -3.8 -13.0 -2.25 -13.05 -3.0 -12.65 -4.2 -11.95 Q-7.25 -9.65 -9.25 -6.55 L-9.5 -6.4 -10.35 -5.5 -11.0 -4.35 -11.3 -3.3 -11.6 -2.25 -11.6 -2.05 Q-12.55 0.25 -13.1 2.75 L-13.45 4.15 Q-14.1 4.65 -14.3 5.5 L-14.35 5.55 -14.45 5.8 -14.45 5.85 -15.0 7.0 -15.45 8.25 -16.1 10.55 -16.3 11.2 -16.35 11.75 -16.4 11.9 -16.9 13.4 Q-17.85 16.15 -16.95 18.55 -17.0 20.8 -16.35 23.1 -15.1 22.8 -14.1 23.55 -13.8 23.7 -13.95 24.1 L-14.4 24.95 -15.05 25.65 Q-16.1 26.45 -16.95 27.4 L-17.65 28.15 Q-19.75 29.2 -20.15 31.75 L-20.4 32.3 Q-20.9 33.7 -21.0 35.25 L-21.0 37.3 -21.1 37.85 M-6.35 19.4 Q-6.1 21.1 -6.5 22.55 L-6.85 22.8 Q-8.6 23.2 -8.7 21.6 L-9.05 19.05 Q-9.25 17.5 -8.1 16.85 -6.3 16.95 -6.35 18.9 L-6.35 19.4 M-22.05 45.55 Q-20.6 43.0 -18.4 41.2 -16.2 39.4 -13.25 39.8 L-12.95 39.8 Q-14.05 41.2 -15.8 41.75 -16.2 41.85 -16.4 42.1 L-17.7 43.8 -18.1 44.5 Q-20.0 46.3 -18.95 48.65 L-18.9 48.65 -18.65 50.15 -18.35 51.2 -18.75 51.5 -19.1 51.9 -19.85 52.65 -19.9 52.75 -19.95 52.85 -20.0 52.9 -20.05 53.05 -20.0 53.8 -20.05 53.85 Q-21.4 53.05 -22.15 51.35 -23.25 48.4 -22.05 45.55 M-4.7 50.7 L-4.2 50.0 -4.2 50.05 -4.05 49.9 -3.85 49.8 -3.65 49.65 -3.1 49.35 Q-1.5 49.55 -1.7 51.35 -1.75 51.75 -2.1 51.9 L-2.3 52.0 Q-3.8 53.85 -5.2 52.0 L-5.35 51.8 -4.7 50.7 M-15.65 63.55 L-16.55 64.9 -16.75 65.1 -16.7 65.45 -18.25 67.2 -18.25 67.55 -18.15 68.0 -18.35 68.35 -18.5 68.7 -17.45 70.55 -17.5 70.6 Q-18.8 70.25 -19.6 69.25 L-20.65 67.55 -20.9 67.15 Q-21.55 64.05 -19.5 62.2 L-19.25 62.3 -19.1 62.35 -17.15 63.1 -15.65 63.5 -15.65 63.55 M-29.65 83.95 L-29.7 83.95 -29.45 82.75 -28.7 80.85 -28.6 80.7 Q-26.9 77.4 -23.8 75.2 -23.05 75.45 -22.45 75.85 L-21.75 76.45 -21.35 76.85 -21.2 77.1 -21.35 77.7 -21.4 77.95 -21.4 78.0 Q-22.85 78.35 -24.1 79.05 -24.25 78.6 -24.85 78.7 L-26.2 79.15 -26.55 79.45 -27.45 80.5 Q-28.0 81.2 -28.15 82.05 L-28.1 82.25 -28.05 82.3 -28.4 82.75 -29.65 83.95 M-18.9 83.15 L-18.8 83.05 Q-17.85 82.1 -16.5 81.5 -13.95 79.85 -10.9 79.9 -10.6 80.65 -11.3 81.25 L-12.7 81.85 -12.75 81.9 -12.9 81.85 -13.4 81.9 -13.8 81.9 Q-14.8 82.05 -15.65 82.6 L-16.0 82.85 -17.0 83.75 Q-17.75 84.65 -17.95 85.8 -18.05 86.25 -17.75 86.55 L-17.85 86.95 Q-18.3 88.8 -19.2 90.35 L-20.25 89.9 -20.4 89.8 -21.0 89.45 -21.75 89.0 -22.1 88.8 -22.0 88.5 -21.65 87.6 -21.65 87.55 -21.35 86.95 -19.95 84.4 -18.9 83.15" fill="#c274a3" fill-rule="evenodd" stroke="none"/>
    <path d="M7.65 -14.55 Q10.15 -13.3 11.6 -10.55 13.3 -6.55 13.2 -1.7 13.1 3.15 12.25 7.4 11.15 10.75 8.9 13.65 6.65 16.5 4.95 19.65 3.1 23.95 1.95 29.05 0.8 34.1 3.6 38.5 L4.5 40.2 Q4.9 41.05 4.6 42.15 4.35 43.3 3.3 43.95 4.95 46.05 4.4 48.8 3.85 51.6 4.5 54.15 L7.5 60.85 Q9.05 64.15 7.9 68.1 10.45 70.7 12.2 73.85 13.95 77.0 13.1 80.7 11.45 83.5 8.75 85.05 6.05 86.65 3.05 87.15 1.8 89.25 -0.6 90.0 L-2.75 90.25 -4.85 90.45 Q-5.7 92.7 -7.7 93.3 L-11.6 94.1 -17.5 93.5 Q-20.5 93.0 -22.5 90.6 -26.35 90.9 -29.85 88.85 -31.3 87.2 -30.95 85.05 -30.6 82.85 -29.85 81.05 -27.85 77.05 -24.05 74.45 -24.95 70.9 -22.2 68.3 -21.35 68.1 -21.65 67.5 L-21.85 66.35 Q-21.95 63.35 -19.85 61.4 -21.1 59.95 -21.35 58.05 -21.6 56.1 -20.95 54.35 -22.8 53.1 -23.2 51.05 -23.65 49.05 -23.35 46.95 -22.85 45.95 -22.75 44.95 -23.9 44.05 -23.8 42.75 -23.4 40.9 -22.3 39.4 -23.05 37.4 -23.25 35.1 -23.5 32.8 -22.3 30.9 -20.45 28.25 -20.6 25.05 -20.8 21.8 -20.55 18.55 L-18.7 8.65 Q-17.75 3.75 -15.6 -0.7 -14.25 -7.35 -9.0 -12.3 -6.5 -14.25 -3.75 -15.55 -1.05 -16.95 2.4 -16.35 5.15 -15.85 7.65 -14.55 M3.25 43.1 Q3.7 42.05 3.5 40.9 L0.25 35.05 0.1 34.45 Q-0.45 31.7 0.25 28.9 L1.15 25.95 2.5 23.05 Q5.55 15.75 10.3 9.2 12.4 4.2 12.1 -1.75 11.85 -7.7 9.0 -12.25 5.75 -15.45 1.25 -15.75 L0.75 -15.7 -2.05 -15.1 -2.7 -14.9 -2.65 -14.9 Q-4.9 -14.1 -6.85 -12.6 L-7.15 -12.3 -7.45 -12.1 Q-11.25 -8.85 -13.45 -4.5 -13.9 -1.85 -15.0 0.55 L-17.0 5.5 -18.9 14.4 Q-19.95 18.85 -19.6 23.7 -19.5 24.55 -19.55 25.35 L-19.6 25.85 Q-19.8 27.65 -20.65 29.2 -22.0 31.6 -22.65 34.35 L-22.65 34.55 -22.65 34.7 -22.65 34.8 -22.65 34.95 -22.35 37.35 -21.95 38.65 -21.85 38.55 -21.35 38.05 -21.1 37.85 Q-18.8 35.8 -15.9 34.8 L-11.1 34.45 -10.75 34.5 -9.05 34.9 -7.2 35.6 -6.9 35.8 -4.8 36.95 Q-1.75 38.7 1.0 40.75 L3.1 43.05 3.2 43.2 3.25 43.1 M-20.05 38.05 L-20.85 38.7 -21.2 39.15 -22.4 41.3 Q-23.1 42.65 -22.3 44.2 L-21.85 43.45 -22.15 44.0 -22.2 44.1 -21.6 43.15 -21.2 42.65 -20.05 41.15 -19.4 40.55 -19.25 40.5 Q-18.15 39.85 -17.0 39.55 L-16.45 39.4 -15.1 39.15 -14.95 39.15 -14.65 39.0 -11.65 39.3 Q-10.25 39.7 -8.9 40.3 L-8.65 40.5 -7.85 41.25 Q-7.05 42.1 -6.6 43.2 -6.15 44.3 -6.25 45.55 L-6.5 48.35 -6.6 48.85 -7.0 50.6 -7.0 50.65 -7.1 50.95 -7.45 51.85 -7.75 52.5 -8.3 53.45 -9.0 54.35 -9.35 54.7 -10.95 55.95 -11.5 56.2 -13.05 56.65 -13.75 56.75 -14.0 56.75 -15.85 56.8 -17.85 56.45 -18.0 56.4 -18.65 56.0 -18.7 56.0 -19.9 55.55 -20.45 55.3 -20.65 56.4 Q-20.6 58.0 -20.0 59.5 -19.55 60.5 -18.7 61.15 L-18.85 61.35 -18.2 61.5 -17.95 61.65 -17.9 61.65 -16.95 61.9 -16.85 61.9 -15.5 62.4 -14.2 62.75 -13.7 63.05 -11.45 63.1 -7.95 62.75 -6.1 62.5 -4.65 62.45 -4.5 62.5 -1.25 62.8 -1.15 62.85 -0.85 62.9 -0.75 62.95 Q0.1 63.2 0.55 63.9 L0.8 64.45 1.15 65.55 1.25 66.55 1.05 67.75 Q0.65 69.25 -0.55 70.45 L-0.9 70.7 Q-2.7 72.05 -4.9 72.45 L-5.9 72.55 Q-9.9 72.95 -13.65 72.4 L-16.7 71.6 -18.45 70.8 -20.05 69.9 -20.35 69.7 -21.2 68.9 -21.45 68.65 -21.5 68.65 -21.65 68.8 Q-23.55 71.15 -23.15 74.25 L-22.9 74.35 -22.15 74.8 -21.9 74.9 -21.65 75.25 -19.7 78.0 Q-19.1 78.8 -18.65 79.7 L-18.4 80.25 -18.35 80.45 -18.1 81.0 -18.0 81.35 -17.8 81.25 -17.7 81.2 -17.35 81.0 -17.1 80.85 Q-15.25 79.8 -13.25 79.1 L-11.25 78.75 -10.7 78.7 Q-6.65 78.25 -2.6 78.9 -1.6 79.05 -0.75 79.55 -0.4 79.75 -0.05 80.05 1.35 81.0 2.45 82.3 3.3 83.3 3.75 84.55 L3.9 85.15 3.95 85.3 3.9 85.95 3.65 86.1 3.95 85.95 4.4 85.5 4.3 85.0 4.5 85.85 7.2 84.9 10.9 82.0 Q12.7 80.25 12.5 77.7 11.05 72.9 7.35 69.1 7.85 64.85 6.55 61.0 4.75 58.4 3.8 55.4 2.8 52.35 3.45 49.0 4.0 47.35 3.25 45.9 L2.8 45.1 2.65 44.85 1.6 43.4 1.5 43.3 -1.2 40.95 -1.85 40.4 -2.95 39.4 Q-5.3 37.4 -7.9 36.15 -11.35 34.9 -14.8 35.7 -17.75 36.4 -20.05 38.05 M-22.05 45.55 L-22.05 45.6 -22.05 45.55 Q-23.25 48.4 -22.15 51.35 -21.4 53.05 -20.05 53.85 L-19.95 53.9 -19.65 54.05 -19.8 54.0 -19.15 54.4 -17.25 55.5 -14.9 55.9 -12.0 55.35 -11.4 55.15 Q-9.95 54.6 -9.2 53.25 L-7.85 50.55 Q-7.35 49.1 -7.2 47.65 L-7.15 47.45 -7.1 46.9 Q-6.9 45.4 -7.2 43.75 L-7.35 43.2 -7.65 42.8 -7.7 42.7 -7.85 42.5 -9.45 41.05 -10.1 40.6 -10.15 40.6 Q-11.4 39.95 -12.95 39.8 L-13.25 39.8 Q-16.2 39.4 -18.4 41.2 -20.6 43.0 -22.05 45.55 M-4.2 50.0 L-4.15 49.9 -3.85 49.35 -3.0 48.45 Q-2.1 47.6 -0.95 47.65 0.45 47.75 1.15 49.05 2.2 51.15 1.6 53.4 L0.85 55.25 Q-0.1 56.85 -1.8 57.15 L-3.4 57.1 -4.0 56.65 Q-5.0 56.1 -5.2 55.15 L-5.2 55.0 -5.2 54.95 -5.2 54.45 -5.05 54.9 -4.7 55.5 -4.1 55.9 -2.25 56.25 -2.1 56.25 Q-0.75 55.95 0.0 54.75 0.8 53.4 0.8 51.8 L0.65 50.7 0.35 49.75 Q-0.25 48.55 -1.5 48.8 L-2.7 49.15 -3.1 49.35 -3.65 49.65 -3.85 49.8 -4.05 49.9 -4.2 50.05 -4.2 50.0 M-0.35 57.1 L-0.35 57.05 -0.25 57.0 -0.35 57.1 M0.4 65.6 L0.4 65.55 Q0.2 64.0 -1.1 63.8 L-1.65 63.65 -2.9 63.4 -3.05 63.4 -3.5 63.3 -9.45 64.2 -15.65 63.55 -15.65 63.5 -17.15 63.1 -19.1 62.35 -19.25 62.2 -19.25 62.3 -19.5 62.2 Q-21.55 64.05 -20.9 67.15 L-20.65 67.55 -19.6 69.25 Q-18.8 70.25 -17.5 70.6 L-17.45 70.6 -15.7 71.05 -10.6 71.9 -10.0 71.95 Q-6.4 72.15 -2.7 70.4 -1.4 69.6 -0.45 68.4 0.45 67.2 0.4 65.6 M-21.2 77.1 L-21.35 76.85 -21.75 76.45 -22.45 75.85 Q-23.05 75.45 -23.8 75.2 -26.9 77.4 -28.6 80.7 L-28.7 80.85 -29.45 82.75 -29.7 83.95 -29.65 83.95 -29.75 86.45 -29.55 87.95 Q-26.65 89.65 -23.1 89.65 L-23.1 89.55 Q-22.6 89.8 -22.15 89.55 -22.1 90.5 -21.35 91.3 -18.3 92.7 -14.5 93.1 -10.8 93.5 -7.55 92.05 -6.0 90.6 -5.45 88.5 -4.0 86.45 -1.6 86.3 -2.15 87.05 -3.0 87.5 -3.95 88.35 -3.55 89.5 -0.55 89.5 1.75 87.35 L2.35 85.8 2.8 84.55 Q1.95 82.8 0.5 81.35 -1.0 79.85 -3.0 79.65 L-3.25 79.7 -3.55 79.75 -4.9 79.95 -5.5 80.0 -5.75 80.05 -7.25 80.0 -9.05 79.9 -10.25 79.95 -10.5 79.9 -10.6 79.9 -10.9 79.9 Q-13.95 79.85 -16.5 81.5 -17.85 82.1 -18.8 83.05 L-18.9 83.15 -18.9 83.0 -18.9 82.7 Q-18.9 82.2 -19.2 82.0 -19.7 80.0 -20.65 78.0 L-20.7 77.95 -21.2 77.05 -21.2 77.1" fill="#000000" fill-rule="evenodd" stroke="none"/>
    <path d="M-6.85 -12.6 Q-4.9 -14.1 -2.65 -14.9 L-2.7 -14.9 -2.05 -15.1 0.75 -15.7 1.25 -15.75 Q5.75 -15.45 9.0 -12.25 11.85 -7.7 12.1 -1.75 12.4 4.2 10.3 9.2 5.55 15.75 2.5 23.05 L1.15 25.95 0.25 28.9 Q-0.45 31.7 0.1 34.45 L0.25 35.05 3.5 40.9 Q3.7 42.05 3.25 43.1 L3.1 43.05 1.0 40.75 Q-1.75 38.7 -4.8 36.95 L-4.8 36.9 -4.25 36.35 Q-3.3 35.0 -3.65 33.6 L-3.55 33.6 -3.55 33.55 -3.65 33.25 -3.8 32.9 -3.85 32.85 -4.05 32.65 -4.15 32.5 Q-4.45 31.95 -4.9 31.7 L-5.45 31.25 Q-6.45 30.0 -7.05 28.45 L-7.05 28.4 -7.6 27.15 -8.05 26.45 -8.0 26.45 Q-8.85 24.65 -10.4 23.95 L-8.6 24.2 Q-6.65 24.65 -5.2 26.15 L-4.75 25.8 -4.6 25.35 -4.55 24.45 -4.75 21.15 Q-5.45 16.5 -4.35 12.05 -3.3 7.85 -0.6 4.5 0.05 3.25 0.85 2.05 2.0 0.3 3.4 -1.25 L3.5 -1.45 4.2 -3.25 4.25 -3.8 4.1 -7.95 3.8 -9.4 3.55 -10.05 Q1.95 -12.65 -1.1 -13.0 L-1.4 -13.0 -2.25 -13.05 -3.8 -13.0 -4.0 -12.95 -4.6 -12.85 -4.95 -12.8 -6.75 -12.35 -6.85 -12.6 M-4.0 15.55 L-3.95 15.05 -4.05 16.8 -4.0 15.55 M-7.85 42.5 L-7.7 42.7 -7.65 42.8 -7.35 43.2 -7.2 43.75 Q-6.9 45.4 -7.1 46.9 L-7.15 47.45 -7.2 47.65 Q-7.35 49.1 -7.85 50.55 L-9.2 53.25 Q-9.95 54.6 -11.4 55.15 L-12.0 55.35 -14.9 55.9 -17.25 55.5 -19.15 54.4 -19.8 54.0 -19.65 54.05 -19.95 53.9 -20.0 53.8 -20.05 53.05 -20.0 52.9 -19.95 52.85 -19.9 52.75 -19.85 52.65 -19.1 51.9 -18.0 52.15 Q-15.95 53.15 -13.65 53.4 -10.5 53.65 -9.45 50.7 -8.45 47.9 -7.9 45.0 L-7.85 43.2 -7.85 42.5 M-5.05 54.9 L-4.1 54.65 -3.85 54.55 Q-1.1 53.3 0.55 50.9 L0.65 50.7 0.8 51.8 Q0.8 53.4 0.0 54.75 -0.75 55.95 -2.1 56.25 L-2.25 56.25 -4.1 55.9 -4.7 55.5 -5.05 54.9 M-17.55 68.5 L-11.05 69.95 -7.35 70.2 Q-5.35 69.9 -3.65 68.9 L-1.05 66.9 -0.5 66.05 0.15 65.55 0.4 65.6 Q0.45 67.2 -0.45 68.4 -1.4 69.6 -2.7 70.4 -6.4 72.15 -10.0 71.95 L-10.6 71.9 -15.7 71.05 -17.45 70.6 -17.45 70.55 -18.5 68.7 -18.35 68.35 -17.7 68.45 -17.65 68.45 -17.55 68.5 M-21.2 77.1 L-21.2 77.05 -20.7 77.95 -20.65 78.0 Q-19.7 80.0 -19.2 82.0 -18.9 82.2 -18.9 82.7 L-18.9 83.0 -18.9 83.15 -19.95 84.4 -21.35 86.95 -21.65 87.55 -21.65 87.6 -22.0 88.5 -22.1 88.8 -21.75 89.0 -21.0 89.45 -20.4 89.8 -20.25 89.9 -19.2 90.35 Q-17.15 91.2 -15.05 91.2 L-13.75 91.1 -13.35 91.05 -12.85 90.95 -12.75 91.0 Q-11.85 91.1 -11.0 90.5 L-10.65 90.3 -8.8 89.05 -7.75 88.1 -7.3 87.5 Q-6.25 86.4 -5.65 85.0 L-5.3 83.6 Q-5.3 83.15 -5.55 82.95 -5.35 82.15 -6.2 81.6 L-7.35 80.9 -7.75 80.8 -10.0 80.05 -10.0 80.0 -5.75 80.05 -5.5 80.0 -4.9 79.95 -3.55 79.75 -3.25 79.7 -3.0 79.65 Q-1.0 79.85 0.5 81.35 1.95 82.8 2.8 84.55 L2.35 85.8 1.75 87.35 Q-0.55 89.5 -3.55 89.5 -3.95 88.35 -3.0 87.5 -2.15 87.05 -1.6 86.3 -4.0 86.45 -5.45 88.5 -6.0 90.6 -7.55 92.05 -10.8 93.5 -14.5 93.1 -18.3 92.7 -21.35 91.3 -22.1 90.5 -22.15 89.55 -22.6 89.8 -23.1 89.55 L-23.1 89.65 Q-26.65 89.65 -29.55 87.95 L-29.75 86.45 -27.7 86.15 Q-23.8 85.6 -21.9 82.15 L-21.6 81.6 Q-21.1 80.6 -21.3 79.35 L-21.35 77.7 -21.2 77.1" fill="#52527c" fill-rule="evenodd" stroke="none"/>
    <path d="M-4.8 36.95 L-6.9 35.8 -7.2 35.6 -9.05 34.9 -10.75 34.5 -11.1 34.45 -15.9 34.8 Q-18.8 35.8 -21.1 37.85 L-21.0 37.3 -21.0 35.25 Q-20.9 33.7 -20.4 32.3 L-20.25 32.35 Q-20.3 32.85 -19.85 33.0 -17.6 33.75 -17.25 31.25 L-17.15 31.1 -15.7 29.4 -15.6 28.9 Q-15.55 28.4 -15.8 28.0 L-16.1 27.85 -16.55 27.7 Q-17.15 27.85 -17.65 28.15 L-16.95 27.4 Q-16.1 26.45 -15.05 25.65 L-14.4 24.95 -13.95 24.1 Q-13.8 23.7 -14.1 23.55 -15.1 22.8 -16.35 23.1 -17.0 20.8 -16.95 18.55 L-15.75 20.5 -15.0 20.5 Q-14.45 20.15 -14.4 19.5 L-14.25 16.4 -13.6 12.0 -12.45 7.25 -12.35 7.0 -12.2 6.75 -12.0 6.25 Q-11.75 5.45 -11.9 4.65 -12.05 3.8 -12.85 3.8 L-12.9 3.85 -13.45 4.15 -13.1 2.75 Q-12.55 0.25 -11.6 -2.05 L-11.35 -1.5 Q-10.95 -1.0 -10.4 -1.35 L-10.0 -1.65 Q-9.5 -2.15 -9.2 -2.8 L-8.65 -4.15 Q-8.4 -4.8 -8.3 -5.5 -8.2 -6.45 -9.05 -6.6 L-9.25 -6.55 Q-7.25 -9.65 -4.2 -11.95 L-3.0 -12.65 -2.25 -13.05 -1.4 -13.0 -1.1 -13.0 Q1.95 -12.65 3.55 -10.05 L3.8 -9.4 4.1 -7.95 4.25 -3.8 4.2 -3.25 3.5 -1.45 3.4 -1.25 Q2.0 0.3 0.85 2.05 0.05 3.25 -0.6 4.5 -3.3 7.85 -4.35 12.05 -5.45 16.5 -4.75 21.15 L-4.55 24.45 -4.6 25.35 -4.75 25.8 -5.2 26.15 Q-6.65 24.65 -8.6 24.2 L-10.4 23.95 Q-8.85 24.65 -8.0 26.45 L-8.05 26.45 -7.6 27.15 -7.05 28.4 -7.05 28.45 Q-6.45 30.0 -5.45 31.25 L-4.9 31.7 Q-4.45 31.95 -4.15 32.5 L-4.05 32.65 -3.85 32.85 -3.8 32.9 -3.65 33.25 -3.55 33.55 -3.65 33.6 Q-3.3 35.0 -4.25 36.35 L-4.8 36.9 -4.8 36.95 M-6.95 -5.9 L-6.9 -5.9 -6.85 -5.95 -6.95 -5.9 M-6.35 19.4 L-6.35 18.9 Q-6.3 16.95 -8.1 16.85 -9.25 17.5 -9.05 19.05 L-8.7 21.6 Q-8.6 23.2 -6.85 22.8 L-6.5 22.55 Q-6.1 21.1 -6.35 19.4 M-12.95 39.8 Q-11.4 39.95 -10.15 40.6 L-10.1 40.6 -9.45 41.05 -7.85 42.5 -7.85 43.2 -7.9 45.0 Q-8.45 47.9 -9.45 50.7 -10.5 53.65 -13.65 53.4 -15.95 53.15 -18.0 52.15 L-19.1 51.9 -18.75 51.5 -18.35 51.2 -18.65 50.15 -18.9 48.65 -18.15 48.65 -17.95 48.5 -17.85 48.15 Q-17.5 46.85 -16.75 45.7 L-16.8 45.4 -16.8 45.2 -16.7 45.05 Q-16.3 44.6 -16.55 44.15 L-16.65 44.0 -17.05 43.85 -17.05 43.9 -17.45 43.95 -17.7 43.8 -16.4 42.1 Q-16.2 41.85 -15.8 41.75 -14.05 41.2 -12.95 39.8 M-3.1 49.35 L-2.7 49.15 -1.5 48.8 Q-0.25 48.55 0.35 49.75 L0.65 50.7 0.55 50.9 Q-1.1 53.3 -3.85 54.55 L-4.1 54.65 -5.05 54.9 -5.2 54.45 Q-5.6 53.35 -5.45 52.05 L-5.35 51.8 -5.2 52.0 Q-3.8 53.85 -2.3 52.0 L-2.1 51.9 Q-1.75 51.75 -1.7 51.35 -1.5 49.55 -3.1 49.35 M-16.7 65.45 L-16.75 65.1 -16.55 64.9 -15.65 63.55 -9.45 64.2 -3.5 63.3 -3.05 63.4 -2.9 63.4 -1.65 63.65 -1.1 63.8 Q0.2 64.0 0.4 65.55 L0.4 65.6 0.15 65.55 -0.5 66.05 -1.05 66.9 -3.65 68.9 Q-5.35 69.9 -7.35 70.2 L-11.05 69.95 -17.55 68.5 -16.8 68.35 -16.65 68.05 -16.0 66.35 -15.7 65.3 -16.1 65.2 -16.25 65.2 -16.25 65.25 -16.55 65.3 -16.7 65.45 M-10.9 79.9 L-10.6 79.9 -10.5 79.9 -10.25 79.95 -10.0 80.05 -7.75 80.8 -7.35 80.9 -6.2 81.6 Q-5.35 82.15 -5.55 82.95 -5.3 83.15 -5.3 83.6 L-5.65 85.0 Q-6.25 86.4 -7.3 87.5 L-7.75 88.1 -8.8 89.05 -10.65 90.3 -11.0 90.5 Q-11.85 91.1 -12.75 91.0 L-12.85 90.95 -13.35 91.05 -13.75 91.1 -15.05 91.2 Q-17.15 91.2 -19.2 90.35 -18.3 88.8 -17.85 86.95 L-17.75 86.55 -17.75 86.6 -17.55 86.6 -17.1 86.1 Q-16.5 84.9 -15.35 84.3 L-14.45 83.7 -13.1 82.8 -12.7 82.25 -12.65 82.2 Q-12.55 81.95 -12.75 81.9 L-12.7 81.85 -11.3 81.25 Q-10.6 80.65 -10.9 79.9 M-29.75 86.45 L-29.65 83.95 -28.4 82.75 -28.05 82.3 -26.95 82.2 -26.9 82.15 -26.35 81.5 Q-25.85 80.8 -25.1 80.5 L-24.05 79.6 -24.0 79.35 -24.1 79.05 Q-22.85 78.35 -21.4 78.0 L-21.4 77.95 -21.35 77.7 -21.3 79.35 Q-21.1 80.6 -21.6 81.6 L-21.9 82.15 Q-23.8 85.6 -27.7 86.15 L-29.75 86.45" fill="#8282bf" fill-rule="evenodd" stroke="none"/>
    <path d="M-7.45 -12.1 L-7.15 -12.3 -7.35 -12.15 -7.45 -12.1 M-4.0 15.55 L-4.05 16.8 -3.95 15.05 -4.0 15.55 M-19.95 53.9 L-20.05 53.85 -20.0 53.8 -19.95 53.9 M-17.5 70.6 L-17.45 70.55 -17.45 70.6 -17.5 70.6" fill="#c5eeff" fill-rule="evenodd" stroke="none"/>
    <path d="M-7.35 -12.15 L-7.15 -12.3 -7.1 -12.25 -7.35 -12.15 M-20.15 31.75 L-20.25 32.35 -20.4 32.3 -20.15 31.75 M-17.45 43.95 L-18.1 44.5 -17.7 43.8 -17.45 43.95 M-10.0 80.0 L-10.0 80.05 -10.0 80.0" fill="#98b5c5" fill-rule="evenodd" stroke="none"/>
    <path d="M-7.15 -12.3 L-6.85 -12.6 -6.75 -12.35 -7.1 -12.25 -7.15 -12.3" fill="#50788d" fill-rule="evenodd" stroke="none"/>
    <path d="M-1.85 40.4 L-1.2 40.95 1.5 43.3 1.6 43.4 2.65 44.85 2.8 45.1 3.25 45.9 Q4.0 47.35 3.45 49.0 2.8 52.35 3.8 55.4 4.75 58.4 6.55 61.0 7.85 64.85 7.35 69.1 11.05 72.9 12.5 77.7 12.7 80.25 10.9 82.0 L7.2 84.9 4.5 85.85 4.3 85.0 4.4 85.5 3.95 85.95 3.65 86.1 3.9 85.95 3.95 85.3 3.9 85.15 3.75 84.55 Q3.3 83.3 2.45 82.3 1.35 81.0 -0.05 80.05 -0.4 79.75 -0.75 79.55 L2.25 79.25 4.7 80.7 5.05 80.75 5.55 80.65 6.3 80.7 6.6 80.6 Q8.35 79.7 8.5 77.8 L8.55 77.35 Q8.4 75.5 7.15 74.55 L7.0 74.25 6.55 73.6 Q5.55 72.55 4.2 72.25 L1.35 72.2 -2.7 73.3 -3.35 73.45 -3.6 73.55 Q-4.8 74.1 -6.2 74.15 -10.85 74.35 -15.3 73.2 L-16.8 72.7 -16.95 72.65 -16.7 72.35 Q-16.55 71.9 -16.7 71.6 L-13.65 72.4 Q-9.9 72.95 -5.9 72.55 L-4.9 72.45 Q-2.7 72.05 -0.9 70.7 L-0.55 70.45 Q0.65 69.25 1.05 67.75 L1.25 66.55 1.15 65.55 0.8 64.45 0.55 63.9 0.8 64.4 1.5 64.3 1.7 64.2 Q2.55 63.6 2.65 62.6 L2.6 62.0 2.5 61.1 1.85 59.9 Q1.05 59.15 -0.05 58.9 L-1.5 58.6 -3.3 58.0 -4.7 56.95 Q-5.15 56.0 -5.2 55.0 L-5.2 55.15 Q-5.0 56.1 -4.0 56.65 L-3.4 57.1 -1.8 57.15 Q-0.1 56.85 0.85 55.25 L1.6 53.4 Q2.2 51.15 1.15 49.05 0.45 47.75 -0.95 47.65 -2.1 47.6 -3.0 48.45 L-3.85 49.35 -4.15 49.9 -4.2 50.0 -4.7 50.7 -4.0 48.7 -2.7 46.35 -2.6 46.1 -2.55 46.05 -2.5 46.0 -2.35 45.9 Q-1.3 44.6 -1.2 42.9 -1.1 41.5 -1.85 40.4 M-18.2 61.5 L-18.85 61.35 -18.7 61.15 -18.2 61.5 M-7.0 50.6 L-6.6 48.85 -6.5 48.35 -6.25 45.55 Q-6.15 44.3 -6.6 43.2 -7.05 42.1 -7.85 41.25 L-8.65 40.5 -8.9 40.3 Q-10.25 39.7 -11.65 39.3 L-14.65 39.0 -14.95 39.15 -15.1 39.15 -16.45 39.4 -17.0 39.55 Q-18.15 39.85 -19.25 40.5 L-19.4 40.55 -20.05 41.15 -19.7 40.65 -19.5 40.5 -19.3 40.3 -19.2 40.2 -18.35 39.45 -17.4 38.9 Q-16.35 38.35 -15.05 38.15 L-11.8 38.55 -10.8 38.7 -9.45 39.2 Q-7.8 40.0 -6.55 41.35 L-6.25 41.7 -5.85 42.25 -5.3 44.8 -5.3 45.4 -5.5 46.75 -6.15 48.75 -6.3 49.05 -6.85 50.25 -7.0 50.6 M-21.2 42.65 L-21.6 43.15 -22.2 44.1 -22.15 44.0 -21.85 43.45 -21.2 42.65 M-0.35 57.1 L-0.25 57.0 -0.35 57.05 -0.35 57.1 M-19.1 62.35 L-19.25 62.3 -19.25 62.2 -19.1 62.35 M-10.25 79.95 L-9.05 79.9 -7.25 80.0 -5.75 80.05 -10.0 80.0 -10.05 80.0 -10.25 79.95" fill="#007f8a" fill-rule="evenodd" stroke="none"/>
    <path d="M3.25 43.1 L3.2 43.2 3.1 43.05 3.25 43.1" fill="#666699" fill-rule="evenodd" stroke="none"/>
    <path d="M-20.05 38.05 Q-17.75 36.4 -14.8 35.7 -11.35 34.9 -7.9 36.15 -5.3 37.4 -2.95 39.4 L-1.85 40.4 Q-1.1 41.5 -1.2 42.9 -1.3 44.6 -2.35 45.9 L-2.5 46.0 -2.55 46.05 -2.6 46.1 -2.7 46.35 -4.0 48.7 -4.7 50.7 -5.35 51.8 -5.45 52.05 Q-5.6 53.35 -5.2 54.45 L-5.2 54.95 -5.2 55.0 Q-5.15 56.0 -4.7 56.95 L-3.3 58.0 -1.5 58.6 -0.05 58.9 Q1.05 59.15 1.85 59.9 L2.5 61.1 2.6 62.0 2.65 62.6 Q2.55 63.6 1.7 64.2 L1.5 64.3 0.8 64.4 0.55 63.9 Q0.1 63.2 -0.75 62.95 L-0.85 62.9 -1.15 62.85 -1.25 62.8 -4.5 62.5 -4.65 62.45 -6.1 62.5 -7.95 62.75 -11.45 63.1 -11.7 62.65 -12.45 62.0 -12.95 61.55 Q-13.95 60.45 -14.2 59.0 -14.4 57.8 -13.65 56.9 L-13.5 56.7 -13.75 56.75 -13.05 56.65 -11.5 56.2 -10.95 55.95 -9.35 54.7 -9.0 54.35 -8.3 53.45 -7.75 52.5 -7.45 51.85 -7.1 50.95 -7.0 50.65 -7.0 50.6 -6.85 50.25 -6.3 49.05 -6.15 48.75 -5.5 46.75 -5.3 45.4 -5.3 44.8 -5.85 42.25 -6.25 41.7 -6.55 41.35 Q-7.8 40.0 -9.45 39.2 L-10.8 38.7 -11.8 38.55 -15.05 38.15 Q-16.35 38.35 -17.4 38.9 L-18.35 39.45 -19.2 40.2 -19.3 40.3 -19.5 40.5 -19.7 40.65 Q-20.05 39.95 -20.0 39.05 -19.95 38.5 -20.05 38.05 M-0.75 79.55 Q-1.6 79.05 -2.6 78.9 -6.65 78.25 -10.7 78.7 L-11.25 78.75 -13.25 79.1 Q-15.25 79.8 -17.1 80.85 -17.35 79.4 -17.75 78.0 L-17.85 76.85 -17.65 75.0 -17.3 73.85 -17.2 73.45 -16.8 72.7 -15.3 73.2 Q-10.85 74.35 -6.2 74.15 -4.8 74.1 -3.6 73.55 L-3.35 73.45 -2.7 73.3 1.35 72.2 4.2 72.25 Q5.55 72.55 6.55 73.6 L7.0 74.25 7.15 74.55 Q8.4 75.5 8.55 77.35 L8.5 77.8 Q8.35 79.7 6.6 80.6 L6.3 80.7 5.55 80.65 5.05 80.75 4.7 80.7 2.25 79.25 -0.75 79.55 M-17.8 81.25 L-18.0 81.35 -18.1 81.0 -17.8 81.25 M-18.4 80.25 L-18.65 79.7 -18.55 79.55 -18.4 80.25 M-0.9 62.65 L-0.85 62.65 -1.15 62.5 -0.9 62.65 M2.45 62.5 L2.45 62.45 2.4 62.55 2.45 62.5" fill="#66b299" fill-rule="evenodd" stroke="none"/>
    <path d="M2.45 62.5 L2.4 62.55 2.45 62.45 2.45 62.5" fill="#996633" fill-rule="evenodd" stroke="none"/>
    <path d="M-20.25 32.35 L-20.4 32.3 -20.25 32.35 M-10.25 79.95 L-10.05 80.0 -10.0 80.0 -10.0 80.05 -10.25 79.95" fill="#9999cc" fill-rule="evenodd" stroke="none"/>
    <path d="M-21.35 38.05 L-21.85 38.55 -21.95 38.65 -22.35 37.35 -22.1 38.1 -21.35 38.05 M-19.6 25.85 L-19.55 25.35 -19.3 25.65 -19.6 25.85 M-3.55 33.55 L-3.55 33.6 -3.65 33.6 -3.55 33.55 M-4.8 36.9 L-4.8 36.95 -4.8 36.9 M-13.75 91.1 L-15.05 91.2 -13.75 91.1" fill="#9da9c4" fill-rule="evenodd" stroke="none"/>
    <path d="M-21.85 43.45 L-22.3 44.2 Q-23.1 42.65 -22.4 41.3 L-21.2 39.15 -20.85 38.7 -20.05 38.05 Q-19.95 38.5 -20.0 39.05 -20.05 39.95 -19.7 40.65 L-20.05 41.15 -21.2 42.65 -21.85 43.45 M-17.1 80.85 L-17.35 81.0 -17.7 81.2 -17.8 81.25 -18.1 81.0 -18.35 80.45 -18.4 80.25 -18.55 79.55 -18.65 79.7 Q-19.1 78.8 -19.7 78.0 L-21.65 75.25 -21.9 74.9 -22.15 74.8 -22.9 74.35 -23.15 74.25 Q-23.55 71.15 -21.65 68.8 L-21.6 68.8 -21.45 68.65 -21.2 68.9 -20.35 69.7 -20.05 69.9 -18.45 70.8 -16.7 71.6 Q-16.55 71.9 -16.7 72.35 L-16.95 72.65 -16.8 72.7 -17.2 73.45 -17.3 73.85 -17.65 75.0 -17.85 76.85 -17.75 78.0 Q-17.35 79.4 -17.1 80.85 M-11.45 63.1 L-13.7 63.05 -14.2 62.75 -15.5 62.4 -16.85 61.9 -16.95 61.9 -17.9 61.65 -17.95 61.65 -18.2 61.5 -18.7 61.15 Q-19.55 60.5 -20.0 59.5 -20.6 58.0 -20.65 56.4 L-20.45 55.3 -19.9 55.55 -18.7 56.0 -18.65 56.0 -18.0 56.4 -17.85 56.45 -15.85 56.8 -14.0 56.75 -13.75 56.75 -13.5 56.7 -13.65 56.9 Q-14.4 57.8 -14.2 59.0 -13.95 60.45 -12.95 61.55 L-12.45 62.0 -11.7 62.65 -11.45 63.1 M-13.0 62.65 L-13.25 62.25 -13.6 62.55 -13.0 62.65 M-21.9 74.9 L-21.15 75.45 -21.6 75.1 -21.9 74.9" fill="#99ff99" fill-rule="evenodd" stroke="none"/>
    <path d="M-18.7 56.0 L-18.65 56.0 -18.7 56.0 M-22.05 45.55 L-22.05 45.6 -22.05 45.55" fill="#414163" fill-rule="evenodd" stroke="none"/>
    <path d="M-13.0 62.65 L-13.6 62.55 -13.25 62.25 -13.0 62.65" fill="#bcfb00" fill-rule="evenodd" stroke="none"/>
    <path d="M-0.9 62.65 L-1.15 62.5 -0.85 62.65 -0.9 62.65" fill="#996666" fill-rule="evenodd" stroke="none"/>
    <path d="M-21.5 68.65 L-21.45 68.65 -21.6 68.8 -21.5 68.65 M-17.5 70.6 L-17.45 70.6 -17.5 70.6" fill="#3a3aaf" fill-rule="evenodd" stroke="none"/>
    <path d="M-21.65 68.8 L-21.5 68.65 -21.6 68.8 -21.65 68.8" fill="#8383d6" fill-rule="evenodd" stroke="none"/>
    <path d="M-21.9 74.9 L-21.6 75.1 -21.15 75.45 -21.9 74.9" fill="#6666cc" fill-rule="evenodd" stroke="none"/>
  </g>
</svg>
