<?xml version="1.0" encoding="UTF-8" standalone="no"?>
<svg xmlns:xlink="http://www.w3.org/1999/xlink" height="124.8px" width="47.65px" xmlns="http://www.w3.org/2000/svg">
  <g transform="matrix(1.0, 0.0, 0.0, 1.0, 30.6, 13.35)">
    <path d="M2.3 9.9 L2.35 9.9 2.7 10.1 3.05 10.25 Q8.15 12.7 12.8 15.95 L13.45 16.4 14.2 16.9 14.4 15.95 Q15.1 11.85 15.0 7.5 14.85 2.6 13.7 -1.7 L11.65 -5.6 Q10.55 -7.5 8.65 -9.1 L7.35 -10.15 Q4.8 -11.9 1.55 -12.0 L-6.3 -11.45 Q-10.4 -10.65 -12.65 -7.25 -14.95 -3.9 -16.5 -0.55 -18.35 4.25 -19.75 9.25 -15.4 7.75 -10.25 7.45 -3.55 7.2 2.3 9.9 M15.1 -2.55 Q16.45 2.75 16.65 8.65 16.35 10.6 16.3 12.7 16.2 14.75 15.65 16.6 15.35 17.65 16.0 18.35 L17.05 19.75 Q16.35 28.9 12.4 36.95 L10.8 38.25 10.35 40.45 Q9.85 41.5 9.65 42.65 9.1 43.5 9.35 44.55 9.95 45.2 9.7 46.2 9.4 47.2 10.2 47.85 12.0 48.4 12.75 50.2 13.45 51.95 13.7 53.7 L14.1 60.05 Q14.3 63.3 12.5 65.9 L13.55 66.5 Q14.2 66.75 14.3 67.4 14.75 71.3 14.7 75.5 L14.7 83.45 Q14.05 85.35 12.7 86.65 14.9 90.25 15.65 94.5 16.4 98.75 15.6 102.75 16.0 103.25 15.6 103.6 L15.1 104.35 Q12.4 105.65 9.3 106.55 6.25 107.45 3.3 106.45 1.25 108.45 -1.15 109.95 -8.25 112.05 -15.9 111.25 -23.55 110.4 -30.25 107.5 -30.7 106.95 -30.55 106.3 L-30.45 104.95 Q-29.15 105.05 -29.5 104.1 -29.9 103.2 -29.65 102.35 -29.65 101.05 -29.25 99.75 -28.85 98.35 -27.45 97.6 -24.1 96.6 -21.45 94.15 -18.85 91.7 -16.75 88.8 L-15.55 87.6 Q-16.0 86.45 -15.6 85.45 -15.2 84.45 -15.9 83.45 -16.9 82.3 -16.75 80.9 -18.6 79.75 -19.0 77.9 -19.35 76.0 -19.15 74.15 -17.85 73.25 -18.4 71.9 -18.95 70.55 -18.25 69.3 -17.2 68.1 -18.5 67.3 -19.8 66.45 -20.25 65.35 L-20.6 63.7 Q-20.55 62.8 -21.35 62.25 L-21.9 59.35 Q-22.15 57.9 -21.55 56.55 -20.75 55.95 -20.75 54.95 L-19.9 51.3 Q-19.45 49.35 -17.3 49.0 -17.6 46.95 -18.7 45.0 -19.8 43.0 -18.7 40.8 -18.95 38.55 -19.9 36.55 -20.85 34.55 -20.35 32.2 -23.55 29.7 -23.35 25.55 L-23.2 17.6 Q-22.7 13.95 -21.25 10.4 -20.6 10.0 -20.95 9.25 L-18.0 -0.2 -15.2 -5.35 Q-13.9 -8.05 -11.25 -9.9 -8.45 -11.85 -5.15 -12.8 L1.7 -13.05 Q4.05 -13.25 5.95 -12.25 L9.65 -10.05 Q11.7 -8.65 12.8 -6.6 L15.1 -2.55 M-22.0 27.75 L-21.75 28.8 -20.25 31.0 Q-17.5 29.35 -14.25 28.95 -10.95 28.5 -7.85 28.95 -3.3 29.35 0.75 31.2 L2.0 31.85 Q6.55 34.2 10.75 37.2 L10.8 37.15 Q12.8 33.25 14.2 29.0 15.6 24.65 15.75 20.1 12.05 16.25 7.3 13.5 L5.1 12.3 Q1.35 10.4 -2.6 9.25 -11.15 7.55 -19.4 10.15 -21.25 11.55 -21.55 13.7 L-22.05 17.9 -22.2 23.45 Q-22.35 25.65 -22.0 27.75 M2.05 33.5 Q-2.85 31.1 -8.4 30.25 -14.25 29.4 -19.45 32.2 -19.6 33.9 -18.9 35.55 -18.25 37.1 -17.85 38.85 -17.5 38.05 -16.75 37.55 L-16.55 37.75 -18.0 41.3 Q-18.2 43.45 -17.15 45.25 -16.2 47.0 -16.4 49.2 -14.7 49.4 -13.4 50.6 -12.8 50.5 -12.5 50.05 L-9.2 49.7 -8.6 49.7 -6.85 49.75 -4.65 49.75 Q-4.2 49.9 -4.05 50.35 L-3.4 51.1 2.8 49.8 6.5 48.8 8.1 47.9 Q8.75 47.25 8.45 46.05 7.3 44.1 8.25 42.3 9.15 40.45 8.85 38.5 6.05 35.4 2.4 33.7 L2.05 33.5 M9.65 48.8 L9.35 48.8 9.0 48.95 8.8 49.05 8.6 49.15 8.25 49.3 8.05 49.4 7.35 49.75 6.7 49.95 2.85 51.15 2.1 51.4 1.0 51.6 -0.15 51.75 -1.3 51.9 -2.55 52.0 -2.95 52.05 -3.6 51.8 -3.75 51.9 -3.65 51.8 -3.7 51.75 -4.6 51.0 -5.3 51.05 -5.1 50.8 -10.05 50.6 -10.45 50.6 Q-11.8 50.3 -12.5 51.25 L-13.9 52.95 Q-14.75 53.75 -14.55 54.95 -14.5 55.6 -14.75 56.15 L-15.3 56.8 -15.8 56.85 -16.15 56.9 -18.75 56.65 -20.35 56.25 Q-21.3 58.6 -20.65 61.25 -20.0 62.7 -18.35 62.75 -16.75 62.75 -15.4 63.35 L-15.4 63.65 -19.5 63.35 -19.35 64.15 -19.05 64.8 -18.6 65.5 -18.1 66.05 -18.0 66.1 -18.0 66.15 -17.75 66.6 -17.8 66.65 Q-17.9 67.0 -17.55 67.15 -17.0 67.65 -16.95 68.4 L-17.0 68.5 -17.3 69.6 -17.25 71.4 Q-17.1 72.35 -17.4 73.35 L-16.7 73.55 -15.3 74.1 -14.7 74.25 -14.7 73.6 -14.6 72.3 -14.15 70.4 -13.65 69.15 -13.6 69.1 -13.65 69.05 Q-13.55 68.7 -13.95 68.5 L-14.05 68.45 -15.3 66.85 -15.35 66.7 -15.4 66.55 -15.45 65.05 -15.3 63.7 -15.3 63.65 -14.9 64.45 Q-15.1 65.6 -14.4 66.35 L-13.9 66.95 -13.1 67.95 Q-12.9 68.55 -13.0 69.2 L-13.2 69.85 -13.25 69.95 -13.75 71.15 -13.9 71.55 -13.9 71.65 -13.9 71.85 -13.85 72.25 Q-13.65 74.15 -13.9 75.85 L-14.25 75.8 -14.45 75.6 Q-14.55 74.8 -15.4 74.85 L-16.9 74.55 Q-17.7 74.7 -18.25 74.25 -18.7 75.25 -18.25 76.2 L-18.05 76.65 Q-17.8 77.4 -17.7 78.2 -16.7 79.15 -15.95 80.4 L-13.6 80.5 Q-12.35 80.5 -12.35 81.7 L-12.1 83.7 -11.75 84.0 -11.85 84.2 Q-12.15 84.65 -12.75 84.65 L-14.3 84.65 -14.45 84.9 Q-14.7 85.3 -14.6 85.85 -14.4 86.55 -14.7 87.0 L-11.75 87.1 -8.85 87.3 Q-1.4 87.65 3.25 92.8 L3.75 93.35 4.9 94.85 5.0 95.05 Q6.35 97.6 6.25 100.55 L6.15 102.8 6.1 103.75 6.0 106.15 10.25 105.1 Q12.2 104.25 14.3 103.45 15.2 99.35 14.5 95.25 13.8 91.25 12.1 87.9 L11.95 87.6 10.45 89.1 Q9.0 89.8 7.35 90.1 L7.1 90.1 Q5.25 89.85 3.95 88.8 L3.8 88.7 1.6 87.05 0.55 86.4 -2.5 85.0 Q-3.95 84.2 -5.65 84.35 L-5.85 84.25 Q-6.45 83.9 -6.5 83.2 L-5.75 83.2 -5.65 83.55 -4.2 83.55 -3.45 83.35 -3.4 83.25 -3.3 83.7 -2.15 83.95 Q-1.1 84.3 -0.4 84.7 L0.8 85.35 2.45 86.4 3.55 87.3 5.15 88.3 6.2 88.65 9.75 88.5 10.95 87.25 Q11.4 86.5 12.25 86.15 L13.5 83.3 Q13.35 79.5 13.5 75.4 13.65 71.65 13.05 68.1 L12.95 67.35 11.25 66.9 11.35 66.15 10.75 66.3 11.8 64.9 12.5 62.85 12.8 60.65 12.8 59.45 12.8 58.35 12.7 57.15 12.7 56.2 12.65 55.2 12.6 54.3 12.4 53.35 11.85 51.6 11.2 49.85 11.1 49.95 Q11.25 49.4 10.7 49.2 L9.65 48.8 M4.45 102.35 Q4.6 100.35 4.35 98.35 3.9 95.5 2.35 93.3 L0.55 91.6 Q-6.1 86.9 -14.7 88.25 L-15.35 88.95 -17.15 90.9 Q-19.6 95.05 -23.9 97.35 L-25.85 98.15 Q-26.9 98.45 -27.65 99.35 -28.65 101.55 -28.45 104.0 L-28.3 104.8 -28.25 105.2 -27.8 105.75 -27.45 105.8 -29.05 105.65 Q-29.8 106.05 -29.55 106.95 L-25.95 108.2 Q-20.3 109.65 -14.3 110.25 -8.3 110.85 -2.55 109.15 -0.3 108.75 1.15 107.0 2.6 105.25 4.2 104.0 L4.45 102.35 M-4.2 58.6 L-4.25 58.6 -4.2 58.55 -4.2 58.6 M-13.95 51.1 L-14.8 50.65 -15.8 50.4 -16.85 50.25 -17.8 49.9 -18.2 50.25 -18.5 50.55 -18.65 50.8 -18.7 51.05 -18.7 51.15 -18.95 52.25 -19.4 54.05 -19.95 55.7 -15.8 56.45 -15.65 55.0 -15.2 53.7 -14.8 52.9 -13.8 51.2 -13.75 51.1 -13.95 51.1 M-15.7 81.4 L-15.7 81.65 Q-15.1 82.35 -14.8 83.3 -14.5 84.2 -13.2 83.55 L-13.6 81.5 -15.7 81.4" fill="#000000" fill-rule="evenodd" stroke="none"/>
    <path d="M2.3 9.9 Q-3.55 7.2 -10.25 7.45 -15.4 7.75 -19.75 9.25 -18.35 4.25 -16.5 -0.55 -14.95 -3.9 -12.65 -7.25 -10.4 -10.65 -6.3 -11.45 L1.55 -12.0 Q4.8 -11.9 7.35 -10.15 6.2 -4.0 3.75 1.85 3.1 3.4 3.15 4.95 3.15 6.1 2.75 7.15 2.1 8.75 2.3 9.9 M-22.0 27.75 Q-22.35 25.65 -22.2 23.45 L-22.05 17.9 -21.55 13.7 Q-21.25 11.55 -19.4 10.15 -11.15 7.55 -2.6 9.25 1.35 10.4 5.1 12.3 4.15 18.0 2.15 23.4 1.5 25.15 1.45 26.9 L-1.4 26.25 -13.7 25.25 Q-18.15 25.6 -22.0 27.75 M2.05 33.5 Q1.65 34.55 1.55 35.7 0.95 41.9 2.2 47.9 L2.75 49.65 2.8 49.8 -3.4 51.1 -4.05 50.35 Q-4.2 49.9 -4.65 49.75 L-6.85 49.75 -6.05 49.5 Q-3.15 48.55 -2.65 45.7 L-2.6 44.1 -2.1 41.9 Q-2.6 39.7 -4.6 38.4 L-5.0 36.7 Q-5.2 35.8 -6.1 35.55 -5.6 36.5 -5.65 37.75 -5.75 39.0 -4.9 39.8 -3.5 41.0 -3.5 42.35 -4.1 41.8 -5.1 41.5 -5.9 41.45 -6.4 42.05 -8.15 44.0 -10.5 45.3 -11.5 45.85 -11.25 46.95 -10.8 49.15 -9.2 49.7 L-12.5 50.05 Q-12.8 50.5 -13.4 50.6 -14.7 49.4 -16.4 49.2 -16.2 47.0 -17.15 45.25 -18.2 43.45 -18.0 41.3 L-16.55 37.75 -16.75 37.55 Q-17.5 38.05 -17.85 38.85 -18.25 37.1 -18.9 35.55 -19.6 33.9 -19.45 32.2 -14.25 29.4 -8.4 30.25 -2.85 31.1 2.05 33.5" fill="#993300" fill-rule="evenodd" stroke="none"/>
    <path d="M7.35 -10.15 L8.65 -9.1 Q10.55 -7.5 11.65 -5.6 L13.7 -1.7 Q14.85 2.6 15.0 7.5 15.1 11.85 14.4 15.95 L14.2 16.9 13.45 16.4 12.8 15.95 Q8.15 12.7 3.05 10.25 L2.7 10.1 2.35 9.9 2.3 9.9 Q2.1 8.75 2.75 7.15 3.15 6.1 3.15 4.95 3.1 3.4 3.75 1.85 6.2 -4.0 7.35 -10.15 M5.1 12.3 L7.3 13.5 Q12.05 16.25 15.75 20.1 15.6 24.65 14.2 29.0 12.8 33.25 10.8 37.15 L10.75 37.2 Q6.55 34.2 2.0 31.85 L0.75 31.2 Q-3.3 29.35 -7.85 28.95 -10.95 28.5 -14.25 28.95 -17.5 29.35 -20.25 31.0 L-21.75 28.8 -22.0 27.75 Q-18.15 25.6 -13.7 25.25 L-1.4 26.25 1.45 26.9 Q1.5 25.15 2.15 23.4 4.15 18.0 5.1 12.3 M2.8 49.8 L2.75 49.65 2.2 47.9 Q0.95 41.9 1.55 35.7 1.65 34.55 2.05 33.5 L2.4 33.7 Q6.05 35.4 8.85 38.5 9.15 40.45 8.25 42.3 7.3 44.1 8.45 46.05 8.75 47.25 8.1 47.9 L6.5 48.8 2.8 49.8 M-9.2 49.7 Q-10.8 49.15 -11.25 46.95 -11.5 45.85 -10.5 45.3 -8.15 44.0 -6.4 42.05 -5.9 41.45 -5.1 41.5 -4.1 41.8 -3.5 42.35 -3.5 41.0 -4.9 39.8 -5.75 39.0 -5.65 37.75 -5.6 36.5 -6.1 35.55 -5.2 35.8 -5.0 36.7 L-4.6 38.4 Q-2.6 39.7 -2.1 41.9 L-2.6 44.1 -2.65 45.7 Q-3.15 48.55 -6.05 49.5 L-6.85 49.75 -8.6 49.7 -9.2 49.7" fill="#772600" fill-rule="evenodd" stroke="none"/>
    <path d="M8.05 49.4 L8.25 49.3 8.6 49.15 8.8 49.05 9.0 48.95 9.35 48.8 9.65 48.8 8.05 49.4 M11.1 49.95 L11.2 49.85 11.85 51.6 12.4 53.35 12.6 54.3 12.65 55.2 12.7 56.2 12.7 57.15 12.8 58.35 12.8 59.45 12.8 60.65 12.5 62.85 11.8 64.9 10.75 66.3 11.35 66.15 11.25 66.9 9.9 67.6 8.9 68.05 7.75 68.45 5.95 69.0 4.3 69.45 3.45 69.55 1.65 69.85 0.65 69.95 -0.35 70.0 -1.4 70.05 -3.75 69.8 -4.15 70.6 -4.65 71.4 -5.15 72.6 -5.65 74.4 0.25 74.1 0.5 75.7 0.6 76.55 0.85 78.05 Q1.05 79.35 0.6 80.7 L-1.5 81.5 -3.55 81.9 -3.4 83.25 -3.45 83.35 -4.2 83.55 -5.65 83.55 -5.75 83.2 -6.5 83.2 -6.5 81.55 -1.7 80.9 -1.65 78.7 -1.75 77.9 -1.95 76.25 -2.05 75.75 -2.2 75.05 -5.2 75.2 -6.15 75.6 -6.3 75.4 -6.35 75.25 -6.6 75.3 -7.95 75.45 Q-8.55 75.1 -8.5 74.3 L-8.45 73.55 -7.95 71.55 -7.35 70.3 -7.15 69.9 -7.05 69.7 -6.9 69.5 -6.5 69.25 -6.45 69.2 -7.05 68.4 -7.0 68.95 -7.3 67.7 -7.8 66.4 -8.0 65.4 -8.05 64.25 -7.55 64.0 -2.8 63.85 Q-2.9 63.1 -2.4 62.65 L-2.15 62.15 -2.1 60.45 -2.35 58.5 -2.3 58.45 -3.85 58.6 -4.2 58.6 -4.2 58.55 -4.25 58.6 -4.9 58.5 -4.9 58.45 -5.2 58.8 -7.15 58.9 -7.85 58.9 -7.9 57.75 -7.95 56.5 -7.85 55.15 -7.6 53.45 -5.3 51.05 -4.6 51.0 -3.7 51.75 -3.75 51.9 -3.6 51.8 -2.95 52.05 -3.2 52.15 -4.1 53.55 -4.45 54.6 -4.65 55.6 -4.7 57.8 -1.65 57.3 Q-0.2 58.25 0.55 59.65 1.05 60.55 1.0 61.35 L0.65 62.9 0.25 63.55 -0.55 64.1 -1.15 64.5 -1.9 64.75 -2.9 64.9 -3.6 64.95 -4.3 64.95 -5.15 65.05 -4.15 68.4 -3.7 68.45 -1.3 68.35 -1.3 68.15 -1.3 68.1 3.1 67.5 3.1 67.6 3.85 66.55 Q4.35 65.85 4.45 65.0 L4.6 63.7 4.65 62.6 4.7 61.45 4.55 60.4 4.3 59.3 4.05 58.25 3.7 57.15 3.35 56.2 2.75 54.6 3.65 53.85 4.55 53.45 Q5.35 53.0 6.2 52.65 L7.9 51.85 8.8 51.35 9.65 50.8 11.1 49.95 M13.05 68.1 Q13.65 71.65 13.5 75.4 13.35 79.5 13.5 83.3 L12.25 86.15 Q11.4 86.5 10.95 87.25 L9.75 88.5 6.2 88.65 5.15 88.3 3.55 87.3 3.8 86.0 4.05 85.55 3.9 84.95 4.15 84.15 4.5 82.05 4.65 80.55 4.7 79.1 4.75 77.6 4.75 76.1 4.7 74.25 4.45 72.6 4.25 72.3 5.8 71.4 6.95 71.0 8.1 70.65 9.15 70.3 10.85 69.4 12.35 68.55 13.05 68.1 M1.6 87.05 L3.8 88.7 3.95 88.8 2.75 88.1 1.6 87.05 M7.1 90.1 L7.35 90.1 7.3 90.2 7.1 90.1 M-15.4 66.55 L-15.35 66.7 -15.3 66.85 -14.05 68.45 -13.95 68.5 Q-13.55 68.7 -13.65 69.05 L-13.6 69.1 -13.65 69.15 -17.0 68.5 -16.95 68.4 Q-17.0 67.65 -17.55 67.15 -17.9 67.0 -17.8 66.65 L-17.75 66.6 -18.0 66.15 -18.0 66.1 -18.1 66.05 -17.75 66.1 -16.55 66.45 -15.4 66.55 M7.0 82.15 Q6.65 83.7 7.85 84.6 L9.7 84.7 Q11.45 83.8 11.2 81.95 10.9 79.85 8.75 79.9 7.35 80.55 7.0 82.15 M4.45 102.35 L4.2 104.0 Q2.6 105.25 1.15 107.0 -0.3 108.75 -2.55 109.15 -8.3 110.85 -14.3 110.25 -20.3 109.65 -25.95 108.2 L-29.55 106.95 Q-29.8 106.05 -29.05 105.65 L-27.45 105.8 -27.35 105.8 Q-26.45 105.8 -25.8 106.35 L-24.65 106.55 -16.5 108.1 Q-12.0 108.9 -7.3 108.3 L-3.2 108.0 -1.45 106.5 -0.6 105.9 4.45 102.35 M-28.3 104.8 L-28.45 104.0 Q-28.65 101.55 -27.65 99.35 -26.9 98.45 -25.85 98.15 L-23.9 97.35 Q-19.6 95.05 -17.15 90.9 L-15.35 88.95 -15.6 89.2 -15.1 89.15 -4.9 89.6 Q-1.9 90.3 0.45 92.3 L1.55 93.65 0.75 94.55 -2.4 97.55 -4.2 99.3 Q-4.85 100.0 -5.3 100.85 L-5.55 101.05 Q-6.1 101.75 -6.2 102.65 L-6.3 102.8 -6.15 107.8 -16.45 107.45 -20.95 106.55 Q-23.25 105.8 -25.6 105.75 -26.35 105.3 -27.45 105.25 L-27.55 105.25 -27.8 105.2 -28.3 104.75 -28.3 104.8 M-5.6 107.3 L-5.15 107.75 -5.6 107.75 -5.6 107.3 M-9.15 79.8 Q-10.0 80.4 -10.95 80.1 -12.0 79.15 -11.65 77.8 L-10.95 76.75 Q-10.75 76.15 -9.95 76.15 -8.8 76.55 -8.5 77.75 -8.15 78.95 -9.15 79.8 M-11.35 92.5 Q-10.0 90.65 -12.15 90.1 -14.35 90.85 -15.95 92.8 L-16.65 93.9 Q-17.45 96.0 -15.25 96.3 L-13.25 94.65 Q-12.15 93.7 -11.35 92.5 M-12.6 101.65 L-12.45 101.55 -11.6 101.35 Q-11.0 101.15 -11.05 100.5 -11.1 99.35 -12.35 99.45 L-12.45 99.45 -22.0 98.3 Q-23.35 98.55 -23.2 99.85 L-22.8 100.35 Q-17.9 101.7 -12.6 101.65" fill="#666666" fill-rule="evenodd" stroke="none"/>
    <path d="M9.65 48.8 L10.7 49.2 Q11.25 49.4 11.1 49.95 L9.65 50.8 8.8 51.35 7.9 51.85 6.2 52.65 Q5.35 53.0 4.55 53.45 L3.65 53.85 -2.5 54.5 -2.7 54.0 -3.65 53.75 -3.25 53.5 -4.1 53.55 -3.2 52.15 -2.55 52.0 -1.3 51.9 -0.15 51.75 1.0 51.6 2.1 51.4 2.85 51.15 6.7 49.95 7.35 49.75 8.05 49.4 9.65 48.8 M11.25 66.9 L12.95 67.35 13.05 68.1 12.35 68.55 10.85 69.4 9.15 70.3 8.1 70.65 6.95 71.0 5.8 71.4 4.25 72.3 Q3.7 73.0 3.45 72.45 L3.25 72.65 1.8 72.7 0.1 72.75 -1.45 72.55 -2.6 72.05 Q-1.8 71.25 -1.4 70.05 L-0.35 70.0 0.65 69.95 1.65 69.85 3.45 69.55 4.3 69.45 5.95 69.0 7.75 68.45 8.9 68.05 9.9 67.6 11.25 66.9 M-6.5 83.2 Q-6.45 83.9 -5.85 84.25 L-5.85 84.5 -5.75 84.65 -5.2 84.9 Q-4.35 85.7 -3.05 85.9 L-2.55 86.05 -2.95 85.8 -1.75 86.65 -1.15 87.15 0.5 88.4 Q1.9 89.9 2.95 91.7 L2.9 91.85 2.85 92.1 2.75 92.25 3.25 92.8 Q-1.4 87.65 -8.85 87.3 L-11.75 87.1 -14.7 87.0 Q-14.4 86.55 -14.6 85.85 -14.7 85.3 -14.45 84.9 L-14.6 85.2 -14.55 85.3 -14.4 85.4 -12.15 85.25 -12.0 85.1 -11.8 84.7 Q-11.75 84.35 -11.85 84.2 L-11.75 84.0 -12.1 83.7 -12.35 81.7 Q-12.35 80.5 -13.6 80.5 L-15.95 80.4 Q-16.7 79.15 -17.7 78.2 -17.8 77.4 -18.05 76.65 L-16.95 76.9 -15.45 76.65 -14.25 75.8 -13.9 75.85 Q-13.65 74.15 -13.85 72.25 L-13.8 72.4 -13.6 73.3 Q-13.4 73.95 -12.8 74.0 -10.85 74.25 -11.6 72.25 L-11.4 71.8 -11.15 71.35 Q-10.55 70.35 -10.75 69.45 L-11.2 69.4 -10.65 69.45 -7.15 69.9 -7.35 70.3 -7.95 71.55 -8.45 73.55 -8.5 74.3 Q-8.55 75.1 -7.95 75.45 L-6.6 75.3 -6.65 76.2 -6.3 76.6 -2.15 76.3 -1.95 76.25 -1.75 77.9 -1.65 78.7 -1.7 80.9 -6.5 81.55 -6.5 83.2 M6.1 103.75 L6.15 102.8 6.6 102.8 7.2 102.6 6.15 102.9 6.15 102.95 6.1 103.75 M-13.9 71.85 L-13.9 71.65 -13.9 71.55 -13.9 71.85 M-13.9 66.95 L-14.4 66.35 Q-15.1 65.6 -14.9 64.45 L-15.3 63.65 -15.4 63.35 Q-16.75 62.75 -18.35 62.75 -20.0 62.7 -20.65 61.25 -21.3 58.6 -20.35 56.25 L-18.75 56.65 -18.75 56.8 Q-18.6 58.65 -16.5 58.25 -15.85 58.1 -15.75 57.5 -15.7 57.1 -15.8 56.85 L-15.3 56.8 -14.75 56.15 Q-14.3 56.95 -12.85 56.85 L-12.4 56.15 Q-12.1 54.9 -11.2 54.05 L-8.95 51.35 -9.0 51.2 -9.4 50.6 -10.05 50.6 -5.1 50.8 -5.3 51.05 -7.6 53.45 -7.85 55.15 -7.95 56.5 -7.9 57.75 -7.85 58.9 -7.15 58.9 -7.6 58.9 -7.65 58.95 Q-7.8 59.5 -7.45 59.85 -4.9 62.1 -2.6 59.9 L-2.75 59.55 -3.85 58.6 -2.3 58.45 -2.35 58.5 -2.1 60.45 -2.15 62.15 -2.4 62.65 Q-2.9 63.1 -2.8 63.85 L-7.55 64.0 -8.05 64.25 -8.0 65.4 -7.8 66.4 -7.3 67.7 -11.35 67.35 -11.95 67.25 -13.9 66.95 M9.15 97.8 L8.4 97.45 8.2 97.3 8.2 97.25 Q6.8 96.0 6.6 94.1 6.4 91.85 8.5 91.55 9.5 91.95 10.1 92.9 L10.35 93.35 10.55 93.9 10.55 93.95 10.6 94.1 11.0 96.1 Q11.3 98.1 9.15 97.8 M-13.95 51.1 L-13.8 51.2 -14.8 52.9 -16.5 52.45 -16.4 52.6 -16.5 52.8 -18.7 51.15 -18.7 51.05 -18.65 50.8 -18.5 50.55 -18.2 50.25 -17.8 49.9 -16.85 50.25 -15.8 50.4 -14.8 50.65 -13.95 51.1 M-9.15 79.8 Q-8.15 78.95 -8.5 77.75 -8.8 76.55 -9.95 76.15 -10.75 76.15 -10.95 76.75 L-11.65 77.8 Q-12.0 79.15 -10.95 80.1 -10.0 80.4 -9.15 79.8" fill="#cccccc" fill-rule="evenodd" stroke="none"/>
    <path d="M3.55 87.3 L2.45 86.4 0.8 85.35 -0.4 84.7 Q-1.1 84.3 -2.15 83.95 L-3.3 83.7 -3.4 83.25 -3.55 81.9 -1.5 81.5 0.6 80.7 Q1.05 79.35 0.85 78.05 L0.6 76.55 0.5 75.7 0.25 74.1 -5.65 74.4 -5.15 72.6 -4.65 71.4 -4.15 70.6 -3.75 69.8 -1.4 70.05 Q-1.8 71.25 -2.6 72.05 L-1.45 72.55 0.1 72.75 1.8 72.7 3.25 72.65 3.45 72.45 Q3.7 73.0 4.25 72.3 L4.45 72.6 4.7 74.25 4.75 76.1 4.75 77.6 4.7 79.1 4.65 80.55 4.5 82.05 4.15 84.15 3.9 84.95 4.05 85.55 3.8 86.0 3.55 87.3 M-5.85 84.25 L-5.65 84.35 Q-3.95 84.2 -2.5 85.0 L0.55 86.4 1.6 87.05 2.75 88.1 3.95 88.8 Q5.25 89.85 7.1 90.1 L7.3 90.2 7.35 90.1 Q9.0 89.8 10.45 89.1 L11.95 87.6 12.1 87.9 Q13.8 91.25 14.5 95.25 15.2 99.35 14.3 103.45 12.2 104.25 10.25 105.1 L6.0 106.15 6.1 103.75 6.15 102.95 6.15 102.9 7.2 102.6 6.6 102.8 6.15 102.8 6.25 100.55 Q6.35 97.6 5.0 95.05 L4.9 94.85 3.75 93.35 3.25 92.8 2.75 92.25 2.85 92.1 2.9 91.85 2.95 91.7 Q1.9 89.9 0.5 88.4 L-1.15 87.15 -1.75 86.65 -2.95 85.8 -2.55 86.05 -3.05 85.9 Q-4.35 85.7 -5.2 84.9 L-5.75 84.65 -5.85 84.5 -5.85 84.25 M-14.45 84.9 L-14.3 84.65 -12.75 84.65 Q-12.15 84.65 -11.85 84.2 -11.75 84.35 -11.8 84.7 L-12.0 85.1 -12.15 85.25 -14.4 85.4 -14.55 85.3 -14.6 85.2 -14.45 84.9 M-13.0 69.2 Q-12.9 68.55 -13.1 67.95 L-13.9 66.95 -11.95 67.25 -11.35 67.35 -7.3 67.7 -7.0 68.95 -7.05 68.4 -6.45 69.2 -6.5 69.25 -6.9 69.5 -7.05 69.7 -7.15 69.9 -10.65 69.45 -11.2 69.4 -12.6 69.2 -13.0 69.2 M-15.3 63.7 L-15.45 65.05 -15.4 66.55 -16.55 66.45 -17.75 66.1 -18.1 66.05 -18.6 65.5 -19.05 64.8 -19.35 64.15 -19.5 63.35 -15.4 63.65 -15.3 63.7 M-13.65 69.15 L-14.15 70.4 -14.6 72.3 -14.7 73.6 -14.7 74.25 -15.3 74.1 -16.7 73.55 -17.4 73.35 Q-17.1 72.35 -17.25 71.4 L-17.3 69.6 -17.0 68.5 -13.65 69.15 M-3.7 51.75 L-3.65 51.8 -3.75 51.9 -3.7 51.75 M-2.95 52.05 L-2.55 52.0 -3.2 52.15 -2.95 52.05 M3.65 53.85 L2.75 54.6 3.35 56.2 3.7 57.15 4.05 58.25 4.3 59.3 4.55 60.4 4.7 61.45 4.65 62.6 4.6 63.7 4.45 65.0 Q4.35 65.85 3.85 66.55 L3.1 67.6 3.1 67.5 -1.3 68.1 -1.3 68.15 -1.3 68.35 -3.7 68.45 -4.15 68.4 -5.15 65.05 -4.3 64.95 -3.6 64.95 -2.9 64.9 -1.9 64.75 -1.15 64.5 -0.55 64.1 0.25 63.55 0.65 62.9 1.0 61.35 Q1.05 60.55 0.55 59.65 -0.2 58.25 -1.65 57.3 L-4.7 57.8 -4.65 55.6 -4.45 54.6 -4.1 53.55 -3.25 53.5 -3.65 53.75 -2.7 54.0 -2.5 54.5 3.65 53.85 M7.0 82.15 Q7.35 80.55 8.75 79.9 10.9 79.85 11.2 81.95 11.45 83.8 9.7 84.7 L7.85 84.6 Q6.65 83.7 7.0 82.15 M-27.45 105.8 L-27.8 105.75 -28.25 105.2 -28.3 104.8 -28.3 104.75 -27.8 105.2 -27.55 105.25 -27.45 105.25 Q-26.35 105.3 -25.6 105.75 -23.25 105.8 -20.95 106.55 L-16.45 107.45 -6.15 107.8 -6.3 102.8 -6.2 102.65 -6.0 102.35 Q-5.65 104.7 -5.6 107.3 L-5.6 107.75 -5.15 107.75 Q-3.8 107.6 -2.65 106.5 -1.4 105.2 0.15 104.75 L0.05 104.85 -1.25 106.3 -1.45 106.5 -3.2 108.0 -7.3 108.3 Q-12.0 108.9 -16.5 108.1 L-24.65 106.55 -25.8 106.35 Q-26.45 105.8 -27.35 105.8 L-27.45 105.8 M9.15 97.8 Q11.3 98.1 11.0 96.1 L10.6 94.1 10.55 93.95 10.55 93.9 10.35 93.35 10.1 92.9 Q9.5 91.95 8.5 91.55 6.4 91.85 6.6 94.1 6.8 96.0 8.2 97.25 L8.2 97.3 8.4 97.45 9.15 97.8 M-18.7 51.15 L-16.5 52.8 -16.4 52.6 -16.5 52.45 -14.8 52.9 -15.2 53.7 -15.65 55.0 -15.8 56.45 -19.95 55.7 -19.4 54.05 -18.95 52.25 -18.7 51.15 M-15.7 81.4 L-13.6 81.5 -13.2 83.55 Q-14.5 84.2 -14.8 83.3 -15.1 82.35 -15.7 81.65 L-15.7 81.4 M-11.35 92.5 Q-12.15 93.7 -13.25 94.65 L-15.25 96.3 Q-17.45 96.0 -16.65 93.9 L-15.95 92.8 Q-14.35 90.85 -12.15 90.1 -10.0 90.65 -11.35 92.5 M-12.6 101.65 Q-17.9 101.7 -22.8 100.35 L-23.2 99.85 Q-23.35 98.55 -22.0 98.3 L-12.45 99.45 -12.35 99.45 Q-11.1 99.35 -11.05 100.5 -11.0 101.15 -11.6 101.35 L-12.45 101.55 -12.6 101.65" fill="#999999" fill-rule="evenodd" stroke="none"/>
    <path d="M-15.35 88.95 L-14.7 88.25 Q-6.1 86.9 0.55 91.6 L2.35 93.3 Q3.9 95.5 4.35 98.35 4.6 100.35 4.45 102.35 L-0.6 105.9 -1.45 106.5 -1.25 106.3 0.05 104.85 0.15 104.75 Q-1.4 105.2 -2.65 106.5 -3.8 107.6 -5.15 107.75 L-5.6 107.3 Q-5.65 104.7 -6.0 102.35 L-6.2 102.65 Q-6.1 101.75 -5.55 101.05 L-5.3 100.85 Q-4.85 100.0 -4.2 99.3 L-2.4 97.55 0.75 94.55 1.55 93.65 0.45 92.3 Q-1.9 90.3 -4.9 89.6 L-15.1 89.15 -15.6 89.2 -15.35 88.95" fill="#575757" fill-rule="evenodd" stroke="none"/>
    <path d="M-18.05 76.65 L-18.25 76.2 Q-18.7 75.25 -18.25 74.25 -17.7 74.7 -16.9 74.55 L-15.4 74.85 Q-14.55 74.8 -14.45 75.6 L-14.25 75.8 -15.45 76.65 -16.95 76.9 -18.05 76.65 M-13.85 72.25 L-13.9 71.85 -13.9 71.55 -13.75 71.15 -13.25 69.95 -13.2 69.85 -13.0 69.2 -12.6 69.2 -11.2 69.4 -10.75 69.45 Q-10.55 70.35 -11.15 71.35 L-11.4 71.8 -11.6 72.25 Q-10.85 74.25 -12.8 74.0 -13.4 73.95 -13.6 73.3 L-13.8 72.4 -13.85 72.25 M-15.3 63.65 L-15.3 63.7 -15.4 63.65 -15.4 63.35 -15.3 63.65 M-18.75 56.65 L-16.15 56.9 -15.8 56.85 Q-15.7 57.1 -15.75 57.5 -15.85 58.1 -16.5 58.25 -18.6 58.65 -18.75 56.8 L-18.75 56.65 M-14.75 56.15 Q-14.5 55.6 -14.55 54.95 -14.75 53.75 -13.9 52.95 L-12.5 51.25 Q-11.8 50.3 -10.45 50.6 L-10.05 50.6 -9.4 50.6 -9.0 51.2 -8.95 51.35 -11.2 54.05 Q-12.1 54.9 -12.4 56.15 L-12.85 56.85 Q-14.3 56.95 -14.75 56.15 M-7.15 58.9 L-5.2 58.8 -4.9 58.45 -4.9 58.5 -4.25 58.6 -4.2 58.6 -3.85 58.6 -2.75 59.55 -2.6 59.9 Q-4.9 62.1 -7.45 59.85 -7.8 59.5 -7.65 58.95 L-7.6 58.9 -7.15 58.9 M-13.8 51.2 L-13.95 51.1 -13.75 51.1 -13.8 51.2 M-1.95 76.25 L-2.15 76.3 -6.3 76.6 -6.65 76.2 -6.6 75.3 -6.35 75.25 -6.3 75.4 -6.15 75.6 -5.2 75.2 -2.2 75.05 -2.05 75.75 -1.95 76.25" fill="#ffffff" fill-rule="evenodd" stroke="none"/>
  </g>
</svg>
