<?xml version="1.0" encoding="UTF-8" standalone="no"?>
<svg xmlns:xlink="http://www.w3.org/1999/xlink" height="103.55px" width="47.2px" xmlns="http://www.w3.org/2000/svg">
  <g transform="matrix(1.0, 0.0, 0.0, 1.0, 36.4, 13.35)">
    <path d="M-0.6 -12.0 L-0.7 -12.1 -0.6 -12.1 -0.6 -12.0 M-15.75 77.35 L-15.9 77.05 -15.55 76.65 -15.3 76.45 -14.8 76.35 -14.55 76.35 Q-13.8 76.3 -13.35 76.75 L-13.15 76.7 Q-12.8 77.0 -12.9 77.75 L-13.2 78.95 -13.65 79.4 -13.75 79.45 -13.9 79.6 -14.05 79.75 -14.4 79.75 -14.55 79.5 Q-15.95 79.7 -15.85 77.75 L-15.7 77.55 -15.65 77.55 -15.55 77.45 -15.6 77.45 -15.7 77.35 -15.75 77.35 M-24.5 73.5 Q-23.75 73.6 -23.4 74.3 L-23.35 74.5 Q-24.05 76.8 -26.3 75.95 L-26.5 75.05 Q-26.55 74.0 -25.15 73.65 L-24.95 73.6 -24.85 73.6 -24.75 73.55 -24.55 73.5 -24.5 73.5 M-21.3 76.4 L-20.5 75.5 -20.0 75.1 Q-17.25 75.85 -19.55 78.25 -20.85 79.6 -21.3 77.85 -21.5 77.15 -21.3 76.4" fill="#ffffff" fill-rule="evenodd" stroke="none"/>
    <path d="M-0.6 -12.1 L-0.7 -12.1 -0.6 -12.0 Q-4.15 -11.05 -6.45 -7.95 -8.8 -4.65 -9.6 -0.75 -10.4 3.15 -13.2 6.2 -14.75 7.8 -15.95 9.65 L-16.1 9.9 -16.65 10.85 -17.0 11.45 -17.05 11.55 -17.25 12.4 -18.9 17.25 -19.05 17.65 -19.25 18.2 -20.8 22.8 -21.3 24.85 -20.45 26.8 -19.7 27.95 -18.55 29.4 -18.3 29.65 -16.7 31.1 -16.55 30.65 -16.5 30.55 Q-16.35 31.8 -15.1 32.15 L-14.6 32.2 Q-14.5 32.7 -13.9 32.8 -13.25 33.25 -12.5 33.3 L-12.5 33.4 -10.2 34.1 -10.2 34.05 Q-10.3 33.65 -10.0 33.3 -9.1 34.5 -7.4 34.2 L-7.15 34.1 -7.2 34.55 -6.3 34.6 -4.1 34.6 -0.85 29.55 -0.7 29.25 0.1 27.85 0.9 26.45 1.15 25.9 1.65 24.95 2.1 24.05 2.15 23.9 2.2 23.85 Q3.3 20.1 3.8 16.3 L4.0 13.5 5.0 12.0 Q6.85 8.9 8.2 5.55 9.85 1.4 9.5 -3.45 9.4 -6.1 8.4 -8.3 6.75 -10.65 4.15 -11.35 L-0.6 -12.1 M-2.9 42.2 L-1.85 43.2 -1.5 43.05 -1.5 43.55 -3.3 47.0 Q-3.2 47.75 -2.65 48.2 -3.1 49.35 -2.85 50.5 -2.6 51.6 -3.6 52.45 -2.55 53.65 -3.05 55.1 L-3.7 57.85 Q-4.75 58.1 -4.6 59.1 L-4.0 59.3 Q-3.6 59.15 -3.4 59.6 L-2.95 61.35 Q-2.65 62.15 -3.0 63.05 -0.95 63.55 0.15 65.55 L0.6 67.25 Q0.8 68.2 0.25 69.0 1.15 69.95 1.7 71.1 2.25 72.25 1.75 73.55 1.9 74.55 2.6 75.35 3.2 76.2 2.95 77.35 2.1 78.55 0.85 79.4 -1.7 79.45 -3.0 77.45 -3.7 75.35 -5.2 73.75 -5.25 75.1 -5.95 76.35 -6.7 77.6 -6.1 79.0 -6.2 80.55 -7.35 81.65 -7.1 82.85 -5.95 83.4 -4.85 83.85 -4.6 85.1 -4.75 87.4 -5.45 89.5 L-9.5 89.65 Q-11.4 88.45 -13.3 87.75 -14.95 88.6 -16.95 88.2 -17.9 87.3 -18.35 86.25 L-20.4 86.05 Q-21.5 85.95 -22.15 85.1 -23.1 82.1 -25.6 80.45 -27.55 79.1 -27.65 76.75 -27.5 74.3 -26.25 72.25 -25.85 70.2 -25.75 68.2 -25.7 66.1 -24.7 64.35 -25.05 63.4 -25.75 62.85 L-25.65 60.65 Q-25.7 59.5 -24.95 58.9 -24.55 57.65 -25.4 57.0 -26.25 56.3 -26.15 55.15 -27.3 54.45 -27.3 53.1 L-27.45 50.75 Q-27.6 48.3 -26.1 46.25 -26.5 44.3 -26.25 42.2 L-27.65 40.85 Q-28.5 40.1 -28.85 39.25 L-30.95 39.1 -33.15 38.9 -33.15 38.6 Q-31.75 37.2 -29.9 36.05 L-30.4 33.9 -30.7 33.65 -31.25 33.2 -33.15 32.0 -34.0 31.3 -35.6 30.0 -36.35 29.1 -36.3 29.0 Q-36.5 28.8 -36.3 28.5 L-36.25 28.4 -35.7 28.25 -35.55 28.25 -35.35 28.2 -35.25 28.2 -32.75 27.65 -30.5 27.1 -29.25 26.75 -28.35 25.05 Q-29.55 22.9 -31.2 21.0 L-31.05 20.2 Q-28.9 20.95 -26.9 22.05 -24.6 18.55 -20.45 17.8 -19.85 16.25 -19.5 14.5 -18.6 10.45 -15.5 7.55 -12.35 4.6 -11.0 0.8 -10.3 -5.95 -5.1 -10.6 -3.35 -12.9 -0.7 -13.25 L4.45 -12.85 Q7.1 -11.8 8.95 -9.4 11.35 -4.65 10.6 0.9 9.85 6.45 6.7 10.6 5.65 12.15 5.1 13.95 5.05 19.55 3.0 24.45 0.85 29.3 -2.4 33.65 -1.35 34.0 -1.2 35.15 -0.9 38.9 -3.7 41.15 L-3.9 41.3 -2.9 42.2 M-17.75 38.15 L-14.2 37.9 -13.75 37.9 -10.0 38.8 -5.7 40.3 -4.55 40.8 -4.35 40.9 -4.2 40.75 Q-1.65 37.95 -2.85 34.35 L-3.5 34.85 Q-3.8 37.15 -5.75 36.65 L-9.3 36.25 -10.2 36.1 -10.5 36.05 Q-13.85 35.3 -16.5 33.0 L-17.2 32.3 -17.2 32.35 -17.75 31.8 Q-19.95 29.4 -21.4 26.75 L-21.55 26.5 -21.85 26.0 -21.9 25.85 -22.5 24.6 -22.95 23.55 -23.05 22.7 Q-23.05 22.0 -22.65 21.5 -22.1 21.55 -22.3 21.95 L-22.3 22.0 -22.35 22.35 -22.3 22.45 -22.3 22.5 -22.25 22.6 -22.15 22.4 -20.75 18.8 Q-23.75 19.65 -25.85 22.4 L-25.9 22.4 -25.8 22.45 -26.1 22.7 -26.35 23.1 -29.45 21.9 -28.7 23.0 Q-28.1 23.8 -27.65 24.85 L-27.6 25.0 -27.85 25.7 -27.9 25.65 -28.2 26.45 -28.5 27.85 -28.6 27.85 -29.8 28.2 -29.85 28.4 -29.8 28.15 -35.15 28.8 -35.35 29.0 -35.45 29.1 -35.5 29.2 -35.45 29.25 -34.95 29.7 -34.25 30.2 -33.65 30.5 -33.5 30.6 -33.45 30.55 -33.0 30.8 -32.0 31.25 Q-31.3 31.65 -30.7 32.15 L-30.65 32.15 -29.65 33.1 -29.3 33.3 -29.3 33.35 -29.25 34.4 -29.25 34.65 -29.2 35.55 -29.05 35.45 -29.1 35.95 -28.9 36.3 -31.45 38.3 -29.35 38.2 -27.95 38.15 -27.8 38.55 -27.6 38.8 -27.1 38.7 -27.7 38.8 Q-27.1 40.4 -25.75 41.5 L-24.5 40.2 -24.4 40.15 -23.9 39.8 -23.5 39.6 Q-21.55 38.45 -19.3 38.25 L-17.75 38.15 M-11.85 39.15 L-12.3 39.0 -12.6 39.0 -12.85 38.95 -19.2 39.25 Q-20.75 39.5 -22.1 40.05 L-25.35 41.95 -25.4 42.0 -25.4 42.4 -25.0 45.45 -24.95 45.55 -22.6 44.75 -19.15 43.85 -12.8 44.0 -12.25 44.1 -11.95 44.15 -11.65 44.2 -11.15 44.3 -10.85 44.35 -10.7 44.35 -10.5 44.4 Q-8.4 44.9 -6.55 45.95 L-5.85 46.4 -5.55 46.65 -5.4 46.75 -4.9 47.15 -4.8 47.05 -4.6 46.75 -2.7 43.55 Q-5.3 41.3 -8.35 40.05 L-11.85 39.15 M-10.65 49.1 L-9.7 49.15 -6.35 49.6 Q-5.3 49.95 -4.65 50.75 L-4.6 50.75 Q-3.95 50.95 -3.85 50.1 L-3.6 48.65 -4.4 47.75 -4.95 47.45 -5.1 47.35 -5.75 47.05 -5.95 46.95 -6.05 46.9 -6.2 46.85 -6.4 46.75 -7.15 46.45 Q-8.1 46.05 -9.05 45.75 L-10.2 45.45 -10.6 45.35 -10.8 45.3 -12.25 45.0 -13.6 44.85 Q-17.8 44.4 -22.0 45.55 L-23.2 45.9 -23.4 45.95 -24.2 46.35 -24.7 46.6 -25.45 46.9 -25.6 46.95 Q-26.35 48.6 -26.35 50.6 -26.4 52.6 -25.85 54.35 L-25.5 54.1 -25.05 53.75 -24.95 53.7 -21.85 51.8 Q-19.35 50.5 -16.6 49.8 L-12.35 49.15 -10.85 49.1 -10.65 49.1 M-11.75 51.05 L-11.75 51.0 -12.25 50.95 -12.55 50.9 -15.6 50.65 Q-18.15 51.2 -20.45 52.2 -22.8 53.15 -24.9 54.55 L-25.5 54.95 Q-25.35 56.0 -24.7 56.9 L-24.45 56.9 -24.3 56.85 -24.05 56.85 -23.9 56.8 -23.85 56.8 -22.55 56.5 -22.4 56.5 -20.8 56.3 -20.15 56.3 Q-17.1 55.4 -14.05 55.8 L-13.7 55.85 -13.55 55.9 -13.1 55.95 -11.95 56.15 -6.95 56.9 -6.75 57.0 -5.55 57.4 -4.6 57.4 -4.15 55.45 Q-3.95 54.4 -4.3 53.65 L-5.2 53.2 -6.9 52.45 -8.45 51.85 -8.65 51.8 -9.1 51.65 -11.75 51.05 M-9.25 57.75 L-12.95 57.0 Q-16.35 56.45 -19.45 57.4 L-19.4 57.4 -20.25 57.45 -21.3 57.65 -22.9 57.9 Q-23.8 57.95 -23.75 58.8 L-23.5 59.1 -22.6 59.3 -20.9 59.6 -20.3 59.7 -19.85 59.75 -19.8 59.55 -19.85 59.8 Q-16.65 60.15 -13.75 59.85 L-8.6 59.5 -8.65 59.4 -6.4 59.35 Q-6.15 59.35 -5.95 59.15 -5.65 58.85 -5.8 58.5 L-6.0 58.35 -6.35 58.3 -7.95 57.9 -8.25 57.8 -9.25 57.75 M-21.65 64.05 L-13.0 64.85 -12.75 64.85 -11.3 64.8 -11.0 64.8 -10.35 64.65 -5.35 63.5 -4.55 63.1 -4.3 63.0 -3.85 62.8 -3.8 62.75 -3.8 62.55 -3.85 62.5 -4.3 60.9 Q-4.5 59.95 -5.5 60.1 L-6.05 60.25 -6.85 60.4 -7.15 60.45 -10.05 60.65 -10.8 60.65 -11.95 60.7 -13.2 60.8 -14.75 61.0 -19.85 60.5 -22.45 59.95 -22.55 59.95 -22.95 59.85 -23.4 59.8 -24.3 59.6 -24.5 59.6 -24.7 62.05 Q-24.05 63.55 -22.7 63.85 L-21.65 64.05 M-20.0 71.2 L-20.45 71.05 -21.1 70.8 -22.8 70.15 -24.8 69.25 -26.3 73.95 -26.35 74.0 -26.65 75.05 -26.7 75.7 -26.75 75.75 -26.55 77.05 -26.0 78.35 -25.95 78.45 -25.85 78.6 -25.2 79.1 -24.2 80.05 -24.15 80.1 -24.1 80.15 -24.05 80.2 -24.0 80.25 -23.95 80.3 -22.85 80.65 -22.0 80.45 -22.25 80.2 Q-23.15 78.9 -22.6 77.2 L-22.15 76.85 Q-21.65 76.25 -22.05 75.55 L-22.8 74.25 -23.0 73.85 -21.25 74.15 -21.2 74.25 -20.95 74.6 -20.2 74.5 -18.75 74.55 -18.95 74.7 -20.05 74.95 -20.65 75.35 -21.35 76.45 Q-21.95 77.75 -21.5 79.35 L-20.5 80.65 -19.65 81.6 -19.1 82.1 -17.6 82.65 -17.2 82.65 -17.05 82.3 -17.1 82.15 Q-17.15 81.8 -16.75 81.85 -17.55 80.7 -17.2 79.6 L-16.55 77.35 -16.9 76.75 -17.55 75.5 -17.2 75.35 -17.05 75.3 -16.5 75.1 Q-16.1 75.15 -16.05 75.65 L-15.95 75.55 -16.05 75.85 -16.0 76.65 -16.0 76.8 -15.9 77.05 -15.75 77.35 -15.8 77.5 -15.85 77.75 -16.0 78.25 -16.05 78.35 -16.15 78.85 -16.5 80.2 -16.05 81.3 -15.65 82.05 -15.65 82.1 -15.55 82.2 -15.05 82.85 -14.4 83.25 -14.35 83.25 -14.0 83.35 -13.6 83.3 -13.55 83.3 -13.05 83.15 Q-12.15 82.8 -11.4 82.05 -10.7 81.05 -10.8 79.8 -10.95 78.55 -10.75 77.4 L-10.6 77.4 -10.45 77.75 Q-9.3 80.15 -10.6 82.55 L-8.3 82.15 -7.65 80.85 Q-7.1 80.25 -7.15 79.45 -8.0 77.8 -7.15 76.55 -6.35 75.25 -6.2 73.75 -7.5 74.0 -8.65 73.75 L-10.2 73.15 -9.5 73.05 -8.75 73.2 Q-8.25 73.3 -8.0 72.95 L-7.6 72.95 -5.8 72.65 -5.25 71.75 Q-5.05 71.25 -4.45 71.75 L-2.15 70.55 Q-0.9 69.8 -0.35 68.55 -0.35 66.95 -1.25 65.75 -2.15 64.55 -3.45 63.85 L-3.8 64.25 Q-6.15 65.35 -8.7 65.8 L-11.0 66.1 -13.65 66.1 -22.65 65.0 -23.9 64.75 -24.2 65.8 -24.55 68.1 -24.6 68.4 -23.15 69.05 -20.7 70.1 -16.2 72.05 -20.0 71.2 M-20.65 81.7 Q-21.65 81.05 -22.7 81.85 L-21.5 84.05 Q-20.35 85.2 -18.55 85.0 -19.0 84.15 -19.05 83.15 -19.7 82.3 -20.65 81.7 M-14.1 87.1 L-14.45 85.55 -14.9 84.05 Q-16.85 84.4 -18.6 83.4 -18.55 84.5 -17.95 85.35 L-16.8 87.1 -16.45 87.15 -14.8 87.15 -14.1 87.1 M-10.45 84.1 Q-12.45 84.7 -14.4 84.05 L-14.0 85.95 Q-12.75 87.4 -10.9 87.8 -10.05 88.05 -9.0 88.6 -7.95 89.05 -6.9 89.2 -5.95 88.85 -5.85 87.75 L-5.7 86.55 -5.6 85.75 -6.15 85.0 -6.2 84.95 -6.2 84.9 -6.8 84.35 -7.9 83.55 Q-8.7 84.0 -9.75 83.85 L-10.45 84.1 M0.75 73.9 L0.7 73.6 0.7 73.55 Q1.1 71.8 -0.15 70.4 -1.25 71.05 -2.35 71.85 -3.4 72.6 -4.7 72.85 L-3.0 74.9 -2.85 75.45 Q-2.55 76.5 -1.65 77.2 -0.6 78.05 0.6 78.4 2.7 77.7 1.75 76.3 0.9 75.05 0.75 73.9" fill="#000000" fill-rule="evenodd" stroke="none"/>
    <path d="M-0.6 -12.1 L4.15 -11.35 Q6.75 -10.65 8.4 -8.3 9.4 -6.1 9.5 -3.45 9.85 1.4 8.2 5.55 6.85 8.9 5.0 12.0 L4.2 11.9 4.2 11.95 Q3.85 12.05 3.6 12.3 L3.5 12.4 2.0 12.45 1.75 12.75 1.55 13.9 0.65 13.15 Q-1.1 11.75 -3.2 11.2 L-4.35 10.95 -6.2 10.9 -12.75 11.45 -12.85 11.35 -13.2 11.05 -13.55 10.9 -13.65 10.85 -13.7 10.8 -13.75 10.7 -13.8 10.65 -13.85 10.65 -13.9 10.6 -13.9 10.55 -14.5 10.1 Q-15.15 9.7 -15.95 9.65 -14.75 7.8 -13.2 6.2 -10.4 3.15 -9.6 -0.75 -8.8 -4.65 -6.45 -7.95 -4.15 -11.05 -0.6 -12.0 L-0.6 -12.1 M2.15 23.9 L2.1 24.05 1.65 24.95 2.15 23.9 M-20.8 22.8 L-19.25 18.2 -19.05 17.65 -18.9 17.25 -17.25 12.4 -17.05 11.55 -17.0 11.45 -16.6 12.45 -16.2 13.1 -15.45 14.05 Q-16.85 15.05 -17.0 17.05 L-17.1 17.65 Q-18.15 20.45 -18.25 23.4 L-18.5 23.95 Q-19.3 23.15 -20.5 22.8 L-20.8 22.8 M-14.55 23.4 L-14.45 22.85 -13.95 20.15 -13.9 19.7 -13.95 19.75 -14.15 19.25 -14.1 19.35 -13.3 17.25 Q-12.65 16.5 -12.4 15.5 L-12.3 14.9 -12.1 14.8 -11.2 14.55 -9.9 13.95 -7.15 13.75 -2.85 17.4 -2.85 17.85 Q-2.85 19.25 -3.15 20.55 -4.2 25.4 -7.7 29.0 -10.35 29.3 -12.5 27.8 -13.1 27.4 -13.8 27.2 L-14.0 27.05 -14.55 26.35 -14.65 26.0 -14.6 25.55 -14.45 24.65 -14.45 24.5 -14.5 24.4 -14.5 23.4 -14.55 23.4 M-5.85 87.75 Q-5.95 88.85 -6.9 89.2 -7.95 89.05 -9.0 88.6 -10.05 88.05 -10.9 87.8 -12.75 87.4 -14.0 85.95 L-14.4 84.05 Q-12.45 84.7 -10.45 84.1 -10.95 85.2 -10.4 86.35 L-10.55 85.85 -10.1 86.2 -9.95 86.3 -7.25 87.45 -5.95 88.05 -5.85 87.9 -5.85 87.75 M-6.2 84.95 L-6.15 85.0 -6.2 85.0 -6.2 84.95 M0.75 73.9 Q0.9 75.05 1.75 76.3 2.7 77.7 0.6 78.4 -0.6 78.05 -1.65 77.2 -2.55 76.5 -2.85 75.45 -1.3 75.7 0.35 74.25 L0.75 73.9" fill="#e3c29d" fill-rule="evenodd" stroke="none"/>
    <path d="M5.0 12.0 L4.0 13.5 3.8 16.3 Q3.4 15.3 2.05 15.2 1.2 14.2 0.1 13.45 L-3.05 11.3 -3.2 11.2 Q-1.1 11.75 0.65 13.15 L1.55 13.9 1.75 12.75 2.0 12.45 3.5 12.4 3.6 12.3 Q3.85 12.05 4.2 11.95 L4.2 11.9 5.0 12.0 M-6.3 34.6 L-7.2 34.55 -7.15 34.1 Q-7.15 33.0 -8.65 32.75 -9.3 32.75 -9.85 33.1 L-9.85 33.15 -10.0 33.3 Q-10.3 33.65 -10.2 34.05 L-10.2 34.1 -12.5 33.4 -12.5 33.3 Q-13.25 33.25 -13.9 32.8 -14.5 32.7 -14.6 32.2 L-14.65 32.0 -14.75 30.85 -14.7 29.5 -14.65 28.1 -14.65 26.0 -14.55 26.35 -14.0 27.05 -13.8 27.2 Q-13.1 27.4 -12.5 27.8 -10.35 29.3 -7.7 29.0 -4.2 25.4 -3.15 20.55 -2.85 19.25 -2.85 17.85 L-2.85 17.4 -7.15 13.75 -9.9 13.95 -11.2 14.55 -12.1 14.8 -12.3 14.9 -12.4 15.5 Q-12.65 16.5 -13.3 17.25 L-14.1 19.35 -14.15 19.25 -13.95 19.75 -13.9 19.7 -13.95 20.15 -14.45 22.85 -14.55 23.4 Q-15.25 24.9 -15.6 26.65 -16.35 28.4 -16.35 30.25 L-16.35 30.4 -16.5 30.55 -16.55 30.65 -16.7 31.1 -18.3 29.65 -18.55 29.4 -19.7 27.95 -20.45 26.8 -21.3 24.85 -20.8 22.8 -20.5 22.8 Q-19.3 23.15 -18.5 23.95 L-18.25 23.4 Q-18.15 20.45 -17.1 17.65 L-17.0 17.05 Q-16.85 15.05 -15.45 14.05 L-16.2 13.1 -16.6 12.45 -17.0 11.45 -16.65 10.85 -16.1 9.9 -15.95 9.65 Q-15.15 9.7 -14.5 10.1 L-15.1 9.85 Q-15.15 10.85 -14.6 11.8 -14.85 12.35 -14.7 12.95 -14.55 13.75 -13.8 13.85 -12.25 14.05 -11.05 12.95 -9.5 11.45 -7.55 12.35 -4.4 13.75 -1.6 15.75 0.4 17.2 0.55 19.75 0.7 21.4 0.0 23.05 L-2.7 29.5 -3.05 30.25 Q-4.15 32.75 -6.3 34.6 M-20.65 81.7 Q-19.7 82.3 -19.05 83.15 -19.0 84.15 -18.55 85.0 -20.35 85.2 -21.5 84.05 L-22.7 81.85 Q-21.65 81.05 -20.65 81.7 M-14.1 87.1 L-14.8 87.15 -16.45 87.15 -16.8 87.1 -17.95 85.35 Q-18.55 84.5 -18.6 83.4 -16.85 84.4 -14.9 84.05 L-14.45 85.55 -14.1 87.1 M-10.45 84.1 L-9.75 83.85 Q-8.7 84.0 -7.9 83.55 L-6.8 84.35 -6.2 84.9 -6.2 84.95 -6.2 85.0 -6.15 85.0 -5.6 85.75 -5.7 86.55 -5.85 87.75 -5.85 87.9 -5.95 88.05 -7.25 87.45 -9.95 86.3 -10.1 86.2 -10.55 85.85 -10.4 86.35 Q-10.95 85.2 -10.45 84.1 M-2.85 75.45 L-3.0 74.9 -4.7 72.85 Q-3.4 72.6 -2.35 71.85 -1.25 71.05 -0.15 70.4 1.1 71.8 0.7 73.55 L0.7 73.6 0.75 73.9 0.35 74.25 Q-1.3 75.7 -2.85 75.45" fill="#c28f66" fill-rule="evenodd" stroke="none"/>
    <path d="M3.8 16.3 Q3.3 20.1 2.2 23.85 L2.15 23.9 1.65 24.95 1.15 25.9 0.9 26.45 0.1 27.85 -0.7 29.25 -0.85 29.55 -4.1 34.6 -6.3 34.6 Q-4.15 32.75 -3.05 30.25 L-2.7 29.5 0.0 23.05 Q0.7 21.4 0.55 19.75 0.4 17.2 -1.6 15.75 -4.4 13.75 -7.55 12.35 -9.5 11.45 -11.05 12.95 -12.25 14.05 -13.8 13.85 -14.55 13.75 -14.7 12.95 -14.85 12.35 -14.6 11.8 -15.15 10.85 -15.1 9.85 L-14.5 10.1 -13.9 10.55 -13.9 10.6 -13.85 10.65 -13.8 10.65 -13.75 10.7 -13.7 10.8 -13.65 10.85 -13.55 10.9 -13.2 11.05 -12.85 11.35 -12.75 11.45 -6.2 10.9 -4.35 10.95 -3.2 11.2 -3.05 11.3 0.1 13.45 Q1.2 14.2 2.05 15.2 3.4 15.3 3.8 16.3 M-7.15 34.1 L-7.4 34.2 Q-9.1 34.5 -10.0 33.3 L-9.85 33.15 -9.85 33.1 Q-9.3 32.75 -8.65 32.75 -7.15 33.0 -7.15 34.1 M-14.6 32.2 L-15.1 32.15 Q-16.35 31.8 -16.5 30.55 L-16.35 30.4 -16.35 30.25 Q-16.35 28.4 -15.6 26.65 -15.25 24.9 -14.55 23.4 L-14.5 23.4 -14.5 24.4 -14.45 24.5 -14.45 24.65 -14.6 25.55 -14.65 26.0 -14.65 28.1 -14.7 29.5 -14.75 30.85 -14.65 32.0 -14.6 32.2" fill="#94501b" fill-rule="evenodd" stroke="none"/>
    <path d="M-17.2 32.35 L-17.2 32.3 -16.5 33.0 Q-13.85 35.3 -10.5 36.05 L-10.2 36.1 -9.3 36.25 -5.75 36.65 Q-3.8 37.15 -3.5 34.85 L-2.85 34.35 Q-1.65 37.95 -4.2 40.75 L-4.35 40.9 -4.55 40.8 -5.7 40.3 -10.0 38.8 -13.75 37.9 -14.2 37.9 -17.75 38.15 -18.55 38.2 Q-17.65 36.9 -17.35 35.15 -17.1 33.75 -17.2 32.35 M-23.9 39.8 L-24.4 40.15 -24.5 40.2 -25.75 41.5 Q-27.1 40.4 -27.7 38.8 L-27.1 38.7 -27.6 38.8 -27.8 38.55 -27.95 38.15 -25.1 37.4 Q-24.75 36.7 -24.85 35.95 L-25.1 35.2 Q-25.45 34.65 -26.1 34.55 -27.55 35.3 -28.9 36.3 L-29.1 35.95 -29.05 35.45 -29.2 35.55 -29.25 34.65 -29.25 34.4 -29.3 33.35 -29.3 33.3 -29.65 33.1 -30.65 32.15 -30.65 32.1 -30.55 31.95 -30.4 31.25 -30.35 30.75 -30.15 29.6 -30.05 29.15 -29.95 28.65 -29.9 28.5 -29.85 28.4 -29.8 28.2 -28.6 27.85 -28.5 27.85 -28.2 26.45 -27.9 25.65 -27.85 25.7 -27.6 25.0 Q-27.15 25.85 -26.1 26.15 -25.0 25.55 -24.65 24.5 L-24.65 23.7 -26.35 23.1 -26.1 22.7 -25.8 22.45 -25.85 22.4 Q-23.75 19.65 -20.75 18.8 L-22.15 22.4 -22.3 22.45 -22.35 22.35 -22.3 22.0 -22.3 21.95 Q-22.1 21.55 -22.65 21.5 -23.05 22.0 -23.05 22.7 L-22.95 23.55 -22.5 24.6 Q-22.8 24.3 -23.2 24.15 L-23.25 24.85 -23.8 26.1 Q-24.55 26.85 -25.25 26.6 L-25.3 26.65 Q-26.0 27.15 -26.5 26.85 L-26.7 26.7 -26.85 26.6 -26.9 26.65 -27.45 27.95 Q-27.9 29.1 -28.0 30.4 -28.15 32.15 -27.45 33.7 L-27.15 34.35 -26.75 34.2 -25.55 33.9 -25.45 33.85 -25.1 34.1 -25.1 34.05 -24.95 33.9 -24.9 33.9 Q-24.45 34.0 -24.1 34.25 -23.2 34.85 -23.2 36.15 -23.2 37.5 -24.15 38.5 -24.9 38.55 -25.1 38.2 L-25.35 38.3 -24.7 39.0 -24.1 39.5 -23.9 39.8 M-23.15 69.05 L-24.6 68.4 -24.55 68.1 -24.2 65.8 -23.9 64.75 -22.65 65.0 -13.65 66.1 -11.0 66.1 -8.7 65.8 Q-6.15 65.35 -3.8 64.25 L-3.45 63.85 Q-2.15 64.55 -1.25 65.75 -0.35 66.95 -0.35 68.55 -0.9 69.8 -2.15 70.55 L-4.45 71.75 Q-5.05 71.25 -5.25 71.75 L-5.8 72.65 -7.6 72.95 Q-7.0 72.15 -7.1 71.0 -7.15 70.6 -7.35 70.25 L-7.75 69.45 -8.55 69.4 -15.25 68.45 -16.85 68.05 -19.9 67.15 -20.8 66.85 -22.55 66.15 Q-23.45 67.15 -23.2 68.85 L-23.15 69.05 M-10.2 73.15 L-8.65 73.75 Q-7.5 74.0 -6.2 73.75 -6.35 75.25 -7.15 76.55 -8.0 77.8 -7.15 79.45 -7.1 80.25 -7.65 80.85 L-8.3 82.15 -10.6 82.55 Q-9.3 80.15 -10.45 77.75 L-10.55 77.4 -10.6 77.3 -10.75 77.0 -11.15 76.5 -11.35 76.3 -11.05 75.15 -10.9 74.55 -10.75 74.05 Q-10.65 73.35 -10.2 73.15 M-26.65 75.05 L-26.35 74.0 -26.3 73.95 -24.8 69.25 -22.8 70.15 Q-24.6 71.0 -24.55 73.3 L-24.5 73.5 -24.55 73.5 -24.6 73.5 -24.75 73.55 -24.85 73.6 -24.95 73.6 -25.15 73.65 Q-26.55 74.0 -26.5 75.05 L-26.65 75.05 M-15.6 77.45 L-15.65 77.55 -15.7 77.35 -15.6 77.45" fill="#666666" fill-rule="evenodd" stroke="none"/>
    <path d="M-22.1 40.05 Q-20.75 39.5 -19.2 39.25 L-12.85 38.95 -12.6 39.0 -12.3 39.0 -11.85 39.15 -11.8 40.75 -11.75 43.0 -11.95 44.15 -12.25 44.1 -12.8 44.0 -19.15 43.85 -22.6 44.75 -21.8 44.5 -21.65 42.0 Q-21.6 40.95 -22.1 40.1 L-22.1 40.05 M-25.4 42.4 L-25.4 42.0 -25.35 41.95 -25.4 42.4 M-10.6 45.35 L-10.45 45.4 -10.45 45.5 -10.55 47.65 -10.65 49.1 -10.85 49.1 -12.35 49.15 -16.6 49.8 Q-19.35 50.5 -21.85 51.8 L-21.85 51.35 -22.0 46.9 -21.95 46.35 Q-21.8 45.8 -22.0 45.55 -17.8 44.4 -13.6 44.85 L-12.25 45.0 -10.8 45.3 -10.6 45.35 M-20.45 52.2 Q-18.15 51.2 -15.6 50.65 L-12.55 50.9 -12.25 50.95 -11.75 51.0 -11.75 51.05 -11.7 51.2 -11.55 52.15 Q-11.55 54.15 -11.95 56.15 L-13.1 55.95 -13.55 55.9 -13.7 55.85 -14.05 55.8 Q-17.1 55.4 -20.15 56.3 L-20.8 56.3 -20.75 56.0 -20.35 53.0 -20.45 52.2 M-24.05 56.85 L-24.05 56.75 -23.9 56.8 -24.05 56.85 M-10.35 64.65 L-11.0 64.8 -11.3 64.8 -12.75 64.85 -13.0 64.85 -21.65 64.05 -21.6 63.8 -21.55 61.45 -21.6 60.4 -21.6 60.15 -22.95 59.85 -22.55 59.95 -22.45 59.95 -19.85 60.5 -14.75 61.0 -13.2 60.8 -11.95 60.7 -10.8 60.65 -10.65 61.35 -10.35 64.25 -10.35 64.65 M-3.85 62.5 L-3.8 62.55 -3.8 62.75 -3.85 62.8 -3.85 62.5" fill="#999966" fill-rule="evenodd" stroke="none"/>
    <path d="M-3.7 41.15 L-3.65 41.25 -3.6 41.3 -2.9 42.2 -3.9 41.3 -3.7 41.15 M-11.85 39.15 L-8.35 40.05 Q-5.3 41.3 -2.7 43.55 L-4.6 46.75 -4.8 47.05 -4.9 47.15 -5.4 46.75 -5.55 46.65 -5.85 46.4 -6.55 45.95 Q-8.4 44.9 -10.5 44.4 L-10.7 44.35 -10.85 44.35 -11.15 44.3 -11.65 44.2 -11.95 44.15 -11.75 43.0 -11.8 40.75 -11.85 39.15 M-10.65 49.1 L-10.55 47.65 -10.45 45.5 -10.45 45.4 -10.6 45.35 -10.2 45.45 -9.05 45.75 Q-8.1 46.05 -7.15 46.45 L-6.4 46.75 -6.2 46.85 -6.05 46.9 -5.95 46.95 -5.75 47.05 -5.1 47.35 -4.95 47.45 -4.4 47.75 -3.6 48.65 -3.85 50.1 Q-3.95 50.95 -4.6 50.75 L-4.65 50.75 Q-5.3 49.95 -6.35 49.6 L-9.7 49.15 -10.65 49.1 M-11.95 56.15 Q-11.55 54.15 -11.55 52.15 L-11.7 51.2 -11.75 51.05 -9.1 51.65 -8.65 51.8 -8.45 51.85 -6.9 52.45 -5.2 53.2 -4.3 53.65 Q-3.95 54.4 -4.15 55.45 L-4.6 57.4 -5.55 57.4 -6.75 57.0 -6.95 56.9 -11.95 56.15 M-9.25 57.75 L-8.25 57.8 -7.95 57.9 -6.35 58.3 -6.0 58.35 -5.8 58.5 Q-5.65 58.85 -5.95 59.15 -6.15 59.35 -6.4 59.35 L-8.65 59.4 -8.6 59.5 -13.75 59.85 Q-16.65 60.15 -19.85 59.8 L-19.8 59.55 -19.85 59.75 -20.3 59.7 -20.9 59.6 -22.6 59.3 -23.5 59.1 -23.75 58.8 Q-23.8 57.95 -22.9 57.9 L-21.3 57.65 -20.25 57.45 -19.4 57.4 -19.45 57.4 Q-16.35 56.45 -12.95 57.0 L-9.25 57.75 M-10.8 60.65 L-10.05 60.65 -7.15 60.45 -6.85 60.4 -6.05 60.25 -5.5 60.1 Q-4.5 59.95 -4.3 60.9 L-3.85 62.5 -3.85 62.8 -4.3 63.0 -4.55 63.1 -5.35 63.5 -10.35 64.65 -10.35 64.25 -10.65 61.35 -10.8 60.65" fill="#686846" fill-rule="evenodd" stroke="none"/>
    <path d="M-27.95 38.15 L-29.35 38.2 -31.45 38.3 -28.9 36.3 Q-27.55 35.3 -26.1 34.55 -25.45 34.65 -25.1 35.2 L-24.85 35.95 Q-24.75 36.7 -25.1 37.4 L-27.95 38.15 M-30.65 32.15 L-30.7 32.15 Q-31.3 31.65 -32.0 31.25 L-33.0 30.8 -33.45 30.55 -33.5 30.6 -33.65 30.5 -34.25 30.2 -34.95 29.7 -35.45 29.25 -35.5 29.2 -35.45 29.1 -35.35 29.0 -35.15 28.8 -29.8 28.15 -29.85 28.4 -29.9 28.5 -29.95 28.65 -30.05 29.15 -30.2 29.75 -30.15 29.6 -30.35 30.75 -30.4 31.25 -30.55 31.95 -30.65 32.1 -30.65 32.15 M-27.6 25.0 L-27.65 24.85 Q-28.1 23.8 -28.7 23.0 L-29.45 21.9 -26.35 23.1 -24.65 23.7 -24.65 24.5 Q-25.0 25.55 -26.1 26.15 -27.15 25.85 -27.6 25.0 M-22.5 24.6 L-21.9 25.85 -21.85 26.0 -21.55 26.5 -21.4 26.75 Q-21.05 28.45 -21.55 30.2 -22.3 32.65 -24.1 34.25 -24.45 34.0 -24.9 33.9 L-24.95 33.9 -25.1 34.05 -25.1 34.1 -25.45 33.85 -25.55 33.9 -26.75 34.2 -27.15 34.35 -27.45 33.7 Q-28.15 32.15 -28.0 30.4 -27.9 29.1 -27.45 27.95 L-26.9 26.65 -26.7 26.7 -26.5 26.85 Q-26.0 27.15 -25.3 26.65 L-25.25 26.6 Q-24.55 26.85 -23.8 26.1 L-23.25 24.85 -23.2 24.15 Q-22.8 24.3 -22.5 24.6 M-30.35 30.75 L-30.35 30.65 -30.4 30.75 -30.35 30.75 M-22.8 70.15 L-21.1 70.8 -20.45 71.05 -20.0 71.2 Q-19.75 71.85 -20.0 72.85 -20.3 74.05 -20.95 74.6 L-21.2 74.25 -21.25 74.15 -23.0 73.85 -22.8 74.25 -22.05 75.55 Q-21.65 76.25 -22.15 76.85 L-22.6 76.8 -23.05 77.25 -23.7 78.9 -24.8 78.95 Q-25.05 78.95 -25.2 79.1 L-25.85 78.6 -25.95 78.45 -26.0 78.35 -26.55 77.05 -26.75 75.75 -26.7 75.7 -26.5 75.05 -26.3 75.95 Q-24.05 76.8 -23.35 74.5 L-23.4 74.3 Q-23.75 73.6 -24.5 73.5 L-24.55 73.3 Q-24.6 71.0 -22.8 70.15 M-20.7 70.1 L-23.15 69.05 -23.2 68.85 Q-23.45 67.15 -22.55 66.15 L-20.8 66.85 -19.9 67.15 -19.95 67.95 Q-20.1 69.1 -20.7 70.1 M-13.6 83.3 L-14.0 83.35 -14.35 83.25 -13.6 83.3 M-15.65 82.05 L-16.05 81.3 -16.15 80.95 Q-16.35 79.8 -16.15 78.85 L-16.05 78.35 -16.0 78.25 -15.85 77.75 Q-15.95 79.7 -14.55 79.5 L-14.4 79.75 -14.05 79.75 -13.9 79.6 -13.75 79.45 -13.65 79.4 -13.2 78.95 -12.9 77.75 Q-12.8 77.0 -13.15 76.7 L-13.35 76.75 Q-13.8 76.3 -14.55 76.35 L-14.8 76.35 -15.3 76.45 -15.55 76.65 -15.9 77.05 -16.0 76.8 -16.0 76.65 -15.85 76.4 -15.7 76.25 -15.3 75.75 -15.25 75.75 -14.95 75.6 Q-14.4 75.3 -13.8 75.35 -12.5 75.15 -11.65 75.95 L-11.4 76.3 -11.35 76.3 -11.15 76.5 -11.3 76.5 -11.3 76.55 -11.55 76.75 -12.0 78.15 -12.9 81.75 -15.25 81.65 -15.3 81.65 -15.4 81.75 -15.45 81.75 -15.65 82.05 M-15.8 77.5 L-15.75 77.35 -15.7 77.35 -15.65 77.55 -15.8 77.5 M-17.05 75.3 L-17.2 75.35 -17.55 75.5 -16.9 76.75 -16.95 76.75 Q-18.05 78.1 -18.5 79.9 L-18.65 80.55 -19.9 80.4 Q-20.3 80.45 -20.5 80.65 L-21.5 79.35 Q-21.95 77.75 -21.35 76.45 L-21.3 76.4 Q-21.5 77.15 -21.3 77.85 -20.85 79.6 -19.55 78.25 -17.25 75.85 -20.0 75.1 L-20.05 74.95 -18.95 74.7 -18.8 74.6 Q-17.8 74.75 -17.05 75.3" fill="#cccccc" fill-rule="evenodd" stroke="none"/>
    <path d="M-25.8 22.45 L-25.9 22.4 -25.85 22.4 -25.8 22.45 M-22.3 22.5 L-22.3 22.45 -22.15 22.4 -22.3 22.5 M-26.7 75.7 L-26.65 75.05 -26.5 75.05 -26.7 75.7" fill="#5f5f70" fill-rule="evenodd" stroke="none"/>
    <path d="M-26.7 26.7 L-26.9 26.65 -26.85 26.6 -26.7 26.7" fill="#b4b4b4" fill-rule="evenodd" stroke="none"/>
    <path d="M-30.15 29.6 L-30.2 29.75 -30.05 29.15 -30.15 29.6 M-30.35 30.75 L-30.4 30.75 -30.35 30.65 -30.35 30.75" fill="#666678" fill-rule="evenodd" stroke="none"/>
    <path d="M-22.15 22.4 L-22.25 22.6 -22.3 22.5 -22.15 22.4" fill="#919191" fill-rule="evenodd" stroke="none"/>
    <path d="M-17.75 38.15 L-19.3 38.25 Q-21.55 38.45 -23.5 39.6 L-23.9 39.8 -24.1 39.5 -24.7 39.0 -25.35 38.3 -25.1 38.2 Q-24.9 38.55 -24.15 38.5 -23.2 37.5 -23.2 36.15 -23.2 34.85 -24.1 34.25 -22.3 32.65 -21.55 30.2 -21.05 28.45 -21.4 26.75 -19.95 29.4 -17.75 31.8 L-17.2 32.35 Q-17.1 33.75 -17.35 35.15 -17.65 36.9 -18.55 38.2 L-17.75 38.15 M-25.1 34.1 L-25.1 34.05 -25.1 34.1 M-20.0 71.2 L-16.2 72.05 -20.7 70.1 Q-20.1 69.1 -19.95 67.95 L-19.9 67.15 -16.85 68.05 -15.25 68.45 -8.55 69.4 -7.75 69.45 -7.35 70.25 Q-7.15 70.6 -7.1 71.0 -7.0 72.15 -7.6 72.95 L-8.0 72.95 Q-8.25 73.3 -8.75 73.2 L-9.5 73.05 -10.2 73.15 Q-10.65 73.35 -10.75 74.05 L-10.9 74.55 -11.05 75.15 -11.35 76.3 -11.4 76.3 -11.65 75.95 Q-12.5 75.15 -13.8 75.35 -14.4 75.3 -14.95 75.6 L-15.25 75.75 -15.3 75.75 -15.7 76.25 -15.85 76.4 -16.0 76.65 -16.05 75.85 -15.95 75.55 -16.05 75.65 Q-16.1 75.15 -16.5 75.1 L-17.05 75.3 Q-17.8 74.75 -18.8 74.6 L-18.95 74.7 -18.75 74.55 -20.2 74.5 -20.95 74.6 Q-20.3 74.05 -20.0 72.85 -19.75 71.85 -20.0 71.2 M-10.45 77.75 L-10.6 77.4 -10.75 77.4 Q-10.95 78.55 -10.8 79.8 -10.7 81.05 -11.4 82.05 -12.15 82.8 -13.05 83.15 L-13.55 83.3 -13.6 83.3 -14.35 83.25 -14.4 83.25 -15.05 82.85 -15.55 82.2 -15.65 82.1 -15.65 82.05 -15.45 81.75 -15.4 81.75 -15.3 81.65 -15.25 81.65 -12.9 81.75 -12.0 78.15 -11.55 76.75 -11.3 76.55 -11.3 76.5 -11.15 76.5 -10.75 77.0 -10.6 77.3 -10.55 77.4 -10.45 77.75 M-16.05 81.3 L-16.5 80.2 -16.15 78.85 Q-16.35 79.8 -16.15 80.95 L-16.05 81.3 M-16.9 76.75 L-16.55 77.35 -17.2 79.6 Q-17.55 80.7 -16.75 81.85 -17.15 81.8 -17.1 82.15 L-17.05 82.3 -17.2 82.65 -17.6 82.65 -19.1 82.1 -19.65 81.6 -20.5 80.65 Q-20.3 80.45 -19.9 80.4 L-18.65 80.55 -18.5 79.9 Q-18.05 78.1 -16.95 76.75 L-16.9 76.75 M-22.15 76.85 L-22.6 77.2 Q-23.15 78.9 -22.25 80.2 L-22.0 80.45 -22.85 80.65 -23.95 80.3 -24.0 80.25 -24.05 80.2 -24.1 80.15 -24.15 80.1 -24.2 80.05 -25.2 79.1 Q-25.05 78.95 -24.8 78.95 L-23.7 78.9 -23.05 77.25 -22.6 76.8 -22.15 76.85" fill="#999999" fill-rule="evenodd" stroke="none"/>
    <path d="M-22.1 40.05 L-22.1 40.1 -22.1 40.05" fill="#a6a679" fill-rule="evenodd" stroke="none"/>
    <path d="M-22.6 44.75 L-24.95 45.55 -25.0 45.45 -25.4 42.4 -25.35 41.95 -22.1 40.05 -22.1 40.1 Q-21.6 40.95 -21.65 42.0 L-21.8 44.5 -22.6 44.75 M-22.0 45.55 Q-21.8 45.8 -21.95 46.35 L-22.0 46.9 -21.85 51.35 -21.85 51.8 -24.95 53.7 -25.05 53.75 -25.5 54.1 -25.85 54.35 Q-26.4 52.6 -26.35 50.6 -26.35 48.6 -25.6 46.95 L-25.45 46.9 -24.7 46.6 -24.2 46.35 -23.4 45.95 -23.2 45.9 -22.0 45.55 M-20.45 52.2 L-20.35 53.0 -20.75 56.0 -20.8 56.3 -22.4 56.5 -22.55 56.5 -23.85 56.8 -23.9 56.8 -24.05 56.75 -24.05 56.85 -24.3 56.85 -24.45 56.9 -24.7 56.9 Q-25.35 56.0 -25.5 54.95 L-24.9 54.55 Q-22.8 53.15 -20.45 52.2 M-21.65 64.05 L-22.7 63.85 Q-24.05 63.55 -24.7 62.05 L-24.5 59.6 -24.3 59.6 -23.4 59.8 -22.95 59.85 -21.6 60.15 -21.6 60.4 -21.55 61.45 -21.6 63.8 -21.65 64.05" fill="#c5b707" fill-rule="evenodd" stroke="none"/>
    <path d="M-15.85 77.75 L-15.8 77.5 -15.65 77.55 -15.6 77.45 -15.55 77.45 -15.65 77.55 -15.7 77.55 -15.85 77.75 M-21.35 76.45 L-20.65 75.35 -20.05 74.95 -20.0 75.1 -20.5 75.5 -21.3 76.4 -21.35 76.45 M-24.75 73.55 L-24.6 73.5 -24.55 73.5 -24.75 73.55" fill="#9c9cab" fill-rule="evenodd" stroke="none"/>
  </g>
</svg>
