<?xml version="1.0" encoding="UTF-8" standalone="no"?>
<svg xmlns:xlink="http://www.w3.org/1999/xlink" height="114.2px" width="44.4px" xmlns="http://www.w3.org/2000/svg">
  <g transform="matrix(1.0, 0.0, 0.0, 1.0, 10.8, 13.9)">
    <path d="M7.6 -6.3 L9.3 -3.2 11.45 1.55 13.05 2.9 14.5 4.25 Q14.3 4.6 13.55 4.8 12.6 5.0 12.35 5.25 16.15 12.35 17.25 18.8 18.25 19.4 18.75 20.85 L19.65 23.2 18.5 23.35 17.25 23.2 Q16.85 27.9 17.15 30.0 17.7 33.8 20.45 35.55 L20.7 36.4 Q20.75 36.95 21.2 37.1 22.15 36.7 22.95 38.25 22.65 39.35 23.85 39.9 L24.75 40.4 Q25.2 40.75 25.25 41.3 L26.15 44.05 Q26.6 45.55 27.4 46.55 L27.4 47.25 25.25 46.7 26.15 50.5 27.0 54.45 Q29.75 56.55 31.6 59.45 30.6 60.4 28.5 60.25 28.3 60.4 28.55 60.8 28.8 61.25 28.65 61.55 L28.4 66.25 Q30.15 66.95 31.05 69.1 L31.75 70.95 32.5 72.7 32.35 74.05 30.45 74.1 Q29.2 73.85 28.95 74.7 L28.35 77.3 Q28.2 79.15 30.4 80.6 L32.15 81.75 33.55 83.2 33.6 83.8 33.25 84.2 Q31.55 84.1 30.5 84.6 31.05 86.7 29.4 88.95 L27.75 90.85 26.15 92.65 Q24.65 94.05 21.95 94.2 L19.6 94.3 17.25 94.7 Q16.95 95.8 16.1 96.55 L14.25 97.65 12.3 98.7 Q11.35 99.35 10.95 100.3 10.5 100.35 10.05 99.65 L9.4 98.5 8.95 98.1 Q7.65 99.5 6.65 99.5 L6.0 98.05 5.55 96.55 3.25 96.5 Q1.8 96.3 1.4 95.15 0.2 96.0 -2.3 96.05 -5.15 96.1 -6.25 96.65 L-9.1 96.85 Q-9.7 95.8 -8.85 94.45 L-7.9 91.55 Q-7.3 89.85 -6.35 88.9 -3.2 87.4 -2.95 85.5 -1.85 85.2 -2.2 84.2 L-2.5 83.35 Q-2.7 82.8 -2.5 82.4 -2.3 79.3 -1.1 77.65 L-2.55 77.95 -4.05 78.05 -4.05 77.4 -1.2 73.5 -1.95 67.9 -2.45 62.2 Q-2.85 62.05 -3.95 62.7 L-5.4 62.65 Q-5.05 60.6 -4.15 58.5 L-3.95 51.9 Q-4.0 47.5 -3.5 45.25 -4.1 44.5 -5.4 44.85 L-6.4 45.15 -7.35 45.15 Q-7.25 43.95 -6.1 42.5 L-4.15 40.25 -3.95 40.15 -4.3 39.6 Q-4.5 39.3 -4.3 39.05 L-2.6 38.0 Q-1.6 37.35 -0.9 37.15 -0.55 35.15 0.2 34.35 -1.85 32.7 -2.0 29.35 L-1.9 26.5 -1.9 23.75 -3.45 24.0 Q-4.4 24.2 -4.85 23.5 L-4.15 21.55 -3.25 19.65 Q-2.3 17.3 -3.5 15.6 -4.15 13.35 -5.5 10.55 L-7.95 5.65 Q-9.4 2.8 -10.05 0.65 -10.9 -2.2 -10.8 -4.95 -10.5 -8.55 -7.55 -11.7 -3.35 -14.45 0.1 -13.75 3.3 -12.95 5.7 -9.45 L7.6 -6.3 M-3.7 -12.25 L-4.4 -12.05 Q-6.45 -11.35 -8.0 -9.75 -9.85 -6.85 -9.55 -2.45 -9.3 1.05 -7.75 4.9 -5.05 7.8 -3.45 11.75 -2.0 15.55 -1.9 19.6 L-2.4 20.45 -2.9 21.35 -3.85 23.05 -3.1 23.1 -2.9 23.05 -2.3 22.9 -1.65 22.9 Q-1.25 23.05 -1.1 23.6 -0.95 24.4 -0.9 27.75 -0.85 30.35 -0.1 31.7 0.25 32.9 1.45 33.4 L1.5 33.45 1.55 33.45 1.95 33.65 2.5 33.95 2.5 33.9 2.85 34.1 3.5 34.55 Q3.5 35.85 4.85 36.05 L6.05 36.15 6.95 36.45 7.1 36.55 7.05 36.85 6.8 37.1 4.05 37.25 3.7 37.1 2.9 36.3 2.1 35.2 0.4 36.9 -0.3 37.55 Q-1.75 38.8 -3.2 39.15 L-3.1 39.9 -3.05 40.0 -2.75 39.95 -2.5 39.8 -2.2 40.0 Q-2.0 40.1 -2.1 40.35 -4.45 41.25 -5.75 43.75 L-5.85 43.9 -5.95 44.05 -5.65 44.05 -5.5 43.95 Q-3.35 43.5 -2.75 44.5 L-2.85 47.3 -2.95 50.15 Q-3.1 53.6 -2.2 55.8 L-2.25 55.8 Q-2.65 55.8 -2.9 56.15 L-3.1 56.65 -3.2 57.85 -3.15 58.55 -3.65 60.05 -4.15 62.0 Q-3.85 61.8 -3.0 61.55 L-2.05 61.1 -2.1 61.55 Q-2.15 62.55 -1.25 62.95 L-0.15 63.1 -0.45 64.85 -0.3 66.75 -0.3 68.45 Q-0.75 68.75 -0.5 69.4 L-0.35 69.6 -0.45 69.8 -0.15 71.65 -0.15 72.3 0.15 72.95 0.0 72.95 -0.65 73.85 -2.85 76.95 -1.5 76.4 0.35 76.05 0.3 76.3 1.7 76.05 1.85 76.0 2.1 76.0 2.25 76.2 2.3 76.35 1.95 76.55 1.9 76.55 1.85 76.6 1.4 76.8 0.8 77.0 0.85 77.0 0.7 77.05 0.2 77.2 Q-1.7 81.65 -1.1 84.5 L0.85 83.9 1.15 84.25 1.15 84.6 Q0.15 84.6 -0.75 85.2 L-1.6 85.85 -2.1 86.6 Q-0.85 86.75 -0.1 87.9 L0.1 88.45 0.2 88.7 0.1 89.0 Q-1.25 87.45 -2.25 87.65 L-2.45 87.7 -3.3 87.95 Q-4.2 88.2 -4.9 88.85 L-6.4 90.85 -6.4 90.95 -6.45 91.0 -6.45 91.05 -7.35 93.65 -7.7 94.7 -8.1 96.0 -5.5 95.75 -3.6 95.4 -1.65 95.3 Q0.75 95.1 1.85 93.8 2.1 92.6 1.4 91.15 L0.2 88.65 Q0.25 88.55 0.45 88.55 L0.75 88.45 Q1.85 89.3 2.5 90.6 L2.65 90.95 2.7 91.15 2.95 91.75 3.0 91.95 3.2 92.9 3.2 94.35 Q3.55 95.0 4.6 95.55 L4.8 95.7 5.5 95.05 5.55 94.65 5.7 93.05 7.55 91.35 7.6 91.3 9.6 89.45 Q11.3 88.9 13.1 90.55 L14.5 90.55 Q16.35 90.8 17.95 93.8 L19.1 93.55 19.45 93.45 19.6 93.4 19.75 93.4 19.85 93.35 19.95 93.35 20.2 93.35 21.0 93.5 Q23.55 93.85 25.9 91.45 L27.25 89.75 27.25 89.8 27.55 89.4 29.2 86.95 Q29.9 82.75 27.7 79.7 L27.0 78.8 26.75 79.15 Q25.85 80.2 25.0 80.35 L24.7 80.35 24.7 80.05 Q25.95 78.95 26.75 77.55 27.45 76.2 27.45 74.95 L27.45 74.9 27.65 74.85 Q28.1 74.85 28.3 74.45 L28.45 73.9 28.4 73.9 28.35 73.9 28.35 73.65 26.6 72.8 26.3 72.6 26.1 72.5 25.35 71.4 Q25.25 71.15 25.5 70.95 25.7 70.8 25.85 70.8 L26.25 71.05 26.4 71.25 Q27.0 71.9 28.0 72.35 L28.1 72.4 28.2 72.45 28.5 72.55 31.7 73.25 31.05 71.25 31.0 71.15 30.15 69.3 28.25 67.7 28.1 67.55 27.85 67.35 27.4 67.0 27.65 66.45 27.6 65.45 27.8 65.6 27.55 65.0 27.5 64.9 27.45 63.9 27.05 63.15 27.0 63.2 27.1 62.9 26.85 62.65 27.4 61.3 27.65 59.9 27.35 59.9 27.1 59.8 27.1 59.45 27.35 59.15 27.5 59.05 27.65 59.15 27.9 58.9 30.3 59.25 28.4 56.85 27.7 56.15 27.35 56.1 26.75 56.1 25.95 55.95 Q25.6 55.7 25.7 55.0 26.1 53.0 25.2 50.5 L23.4 46.35 22.9 46.5 23.4 46.35 23.45 46.15 Q23.65 45.35 23.0 44.9 L23.1 44.8 20.4 43.65 20.3 43.55 20.3 43.5 20.35 43.3 20.4 43.25 20.55 43.25 20.85 43.2 20.9 43.15 20.95 43.15 22.45 43.7 23.1 44.0 23.2 44.1 25.7 45.6 25.05 43.75 Q24.55 42.55 24.5 41.85 23.8 40.9 22.4 40.4 L22.35 40.0 Q22.2 39.55 21.85 39.55 L21.95 39.15 21.0 38.25 20.6 38.05 20.7 37.85 Q21.05 36.95 20.15 36.75 L19.9 36.85 20.0 36.7 19.05 35.35 17.85 34.05 17.25 33.4 Q16.35 32.15 16.3 31.0 L16.3 30.95 15.85 30.7 Q15.45 29.45 15.65 27.65 L15.7 27.2 15.95 23.5 15.75 22.8 Q15.65 22.35 16.05 22.2 17.75 21.8 18.6 22.65 18.5 21.6 17.2 20.1 15.95 18.65 16.15 17.5 14.7 11.9 11.95 7.0 L11.6 6.0 11.35 4.9 Q11.2 3.6 12.55 3.5 L11.25 2.65 Q9.15 -0.25 8.65 -2.75 L7.25 -5.45 5.8 -8.05 Q3.9 -11.0 1.4 -12.35 -1.2 -12.95 -3.65 -12.3 L-3.7 -12.25 M24.3 69.6 L24.3 69.55 24.6 68.95 24.35 69.5 24.3 69.6 M5.8 55.1 L5.15 55.2 4.85 54.55 5.15 53.65 5.45 53.9 6.0 52.6 6.65 51.4 Q6.85 51.0 7.6 50.15 L8.25 49.35 8.15 50.3 7.9 50.5 7.75 50.85 7.9 50.85 7.8 51.0 7.2 52.05 7.15 52.1 7.15 52.15 7.0 52.2 6.9 52.4 Q6.5 52.95 6.25 53.8 L6.2 53.9 6.15 54.05 5.8 55.1 M21.1 62.35 L21.1 62.95 20.75 63.3 18.75 60.8 18.55 60.6 18.4 60.4 17.45 59.15 17.25 59.1 17.1 59.05 16.9 58.8 16.7 58.55 16.65 58.45 16.15 58.1 15.85 57.85 15.9 57.45 16.3 56.9 16.5 56.9 16.6 56.95 17.4 57.5 17.7 57.45 17.9 57.6 17.95 57.6 17.95 57.7 17.6 57.8 19.6 60.25 20.45 61.25 20.4 60.65 20.5 60.75 21.15 61.65 21.1 62.35 M10.1 69.8 L10.05 69.85 10.15 70.35 10.2 70.95 10.0 71.7 8.45 71.1 8.9 69.75 9.2 70.0 Q9.45 68.6 9.9 68.0 10.65 67.5 10.95 66.3 L11.2 65.45 11.45 65.45 11.55 65.55 11.7 65.8 10.95 68.1 10.75 68.35 10.1 69.8 M17.7 86.5 L16.95 87.8 16.65 87.85 16.5 87.75 16.5 87.55 16.45 87.4 18.25 84.55 18.35 84.5 18.5 84.45 18.7 84.5 18.75 84.7 18.8 84.75 18.55 85.15 17.95 86.1 17.7 86.5 M7.8 92.2 L7.65 92.3 7.55 92.4 7.5 92.45 6.55 93.35 6.75 94.55 6.75 95.95 Q6.7 97.7 7.55 98.3 L9.9 94.8 12.0 91.15 Q10.8 89.5 9.15 90.85 L7.8 92.2 M10.8 95.5 L10.45 96.1 Q10.2 96.75 10.5 97.55 L11.15 98.75 Q11.75 97.85 13.5 97.05 15.2 96.2 15.85 95.35 16.1 94.35 15.85 93.45 L15.05 91.7 Q13.05 90.7 12.0 92.75 L11.8 93.2 11.75 93.25 11.75 93.3 11.6 93.65 11.3 94.4 11.25 94.55 11.2 94.65 11.15 94.75 11.1 94.9 10.8 95.5 M31.35 83.65 Q32.5 83.4 33.05 83.9 32.1 82.3 29.5 81.25 L30.05 83.35 Q30.3 83.9 31.35 83.65 M-2.0 59.85 L-1.95 60.1 -1.9 60.1 -1.9 60.2 -1.9 60.65 -2.0 59.85" fill="#000000" fill-rule="evenodd" stroke="none"/>
    <path d="M1.9 -8.35 L1.9 -8.3 2.0 -8.2 3.9 -5.35 4.55 -4.0 4.5 -4.0 3.85 -3.5 3.15 -2.45 Q3.05 -2.1 3.3 -1.95 2.95 -1.4 3.05 -0.65 2.95 -0.1 3.1 0.45 3.4 1.45 4.45 1.2 L5.05 1.15 5.25 1.1 5.6 1.45 6.4 2.15 6.45 2.45 7.75 6.3 8.0 6.95 Q7.15 7.25 6.55 7.9 L6.1 8.55 6.1 8.75 6.2 8.85 5.75 9.2 Q4.85 10.0 4.75 11.2 L4.9 11.55 4.95 11.6 4.8 11.8 Q5.05 12.45 6.3 12.55 7.35 12.65 8.4 13.85 L9.85 15.6 10.3 14.3 10.3 14.25 11.55 19.4 11.95 21.15 Q12.65 24.4 12.2 27.7 L11.65 28.15 11.05 28.6 Q9.75 29.45 9.3 30.7 L8.65 32.2 Q8.45 33.0 9.3 33.4 L9.6 34.3 9.9 34.8 Q10.1 35.5 9.6 36.0 L10.1 36.05 9.75 36.1 9.45 36.35 Q9.05 36.35 8.9 36.7 8.5 37.75 9.75 37.8 L10.65 37.75 Q12.35 37.45 13.45 36.35 16.05 37.8 17.5 40.65 L17.8 41.4 17.7 41.2 17.9 40.5 18.5 39.3 18.5 39.25 18.5 39.55 18.5 39.6 19.15 39.2 19.65 38.5 19.9 38.25 20.4 38.05 20.6 38.05 21.0 38.25 21.95 39.15 21.85 39.55 21.6 39.8 21.45 39.9 Q20.8 40.25 20.75 40.45 20.2 41.0 19.85 41.9 L19.45 43.15 19.45 43.3 Q20.1 44.25 22.5 45.05 L20.65 45.8 19.7 45.9 18.65 45.45 18.95 46.15 19.6 46.55 20.0 46.55 22.2 51.6 22.7 54.05 Q22.55 54.75 22.75 55.5 L23.2 57.75 23.25 57.95 22.95 63.15 22.85 66.25 22.85 66.4 22.9 66.25 23.8 64.6 Q24.45 63.7 25.5 63.5 L25.9 63.5 27.0 64.4 27.55 65.0 27.8 65.6 27.6 65.45 27.3 65.4 Q26.95 65.35 26.85 65.05 L26.8 65.1 26.0 65.65 25.8 65.95 25.75 65.95 25.75 66.0 25.25 67.05 24.6 68.95 24.3 69.55 24.3 69.6 24.85 71.2 Q25.15 72.2 25.8 72.7 25.95 72.35 26.3 72.6 L26.6 72.8 28.35 73.65 28.35 73.9 28.15 73.95 26.85 74.1 25.65 74.0 25.6 73.9 24.65 73.7 24.1 73.45 23.35 72.9 23.25 72.8 Q23.1 71.85 22.45 70.95 L22.3 70.75 Q22.15 71.15 22.25 71.65 L21.1 73.75 20.15 75.1 Q19.55 75.8 19.3 76.6 L18.95 77.4 18.8 77.9 Q18.5 79.0 18.55 80.15 L18.55 80.9 18.9 81.05 17.7 80.45 Q16.3 79.9 15.3 80.9 L15.3 80.85 15.8 80.2 15.35 80.35 14.6 81.05 14.4 81.3 Q13.8 82.3 13.7 83.45 L13.75 83.95 13.85 84.0 14.05 84.25 14.1 84.5 14.05 84.6 14.45 85.05 Q13.9 85.4 14.2 86.1 14.45 86.75 14.85 87.1 L14.3 87.1 8.7 86.8 7.65 85.55 6.25 84.5 Q3.8 83.15 3.3 85.7 L3.3 86.05 Q3.3 86.5 3.7 86.75 L3.65 86.7 4.15 86.8 3.8 86.75 3.8 86.8 4.05 87.15 Q4.65 87.85 5.05 89.05 L5.5 90.95 4.7 91.85 4.65 91.9 4.55 91.9 3.55 92.05 3.0 91.95 2.95 91.75 2.7 91.15 2.65 90.95 2.5 90.6 Q1.85 89.3 0.75 88.45 L0.45 88.55 Q0.25 88.55 0.2 88.65 L0.2 88.7 0.1 88.45 -0.1 87.9 Q-0.85 86.75 -2.1 86.6 L-1.6 85.85 Q-0.9 86.4 0.3 86.1 1.55 85.75 1.5 84.4 1.45 82.75 2.0 81.0 L2.85 77.65 Q2.55 77.65 2.35 77.45 2.7 77.8 3.3 77.45 6.1 75.85 5.85 72.65 5.7 70.9 4.15 70.15 L3.9 70.25 Q3.6 70.35 3.6 70.6 L3.2 70.0 3.45 70.3 3.3 68.3 3.0 66.6 1.6 61.35 2.35 60.4 2.65 59.25 Q2.55 57.9 1.8 56.65 1.2 55.7 0.2 55.6 L0.05 55.7 -0.3 54.55 Q-0.65 48.05 1.7 42.15 L3.05 38.85 Q3.4 38.05 3.35 37.45 L3.7 37.1 4.05 37.25 6.8 37.1 7.05 36.85 7.1 36.55 6.95 36.45 7.1 36.2 Q8.1 34.7 6.6 33.55 L6.75 33.35 Q7.75 31.6 5.75 31.05 4.35 30.85 3.45 31.9 2.8 32.6 2.8 33.5 L2.85 34.1 2.5 33.9 Q0.35 30.3 1.15 25.95 1.75 22.7 1.55 19.45 1.15 12.7 -2.35 6.85 L-4.9 2.5 -4.2 2.3 Q-3.4 2.0 -3.3 1.15 -3.2 0.5 -3.45 -0.15 L-3.45 -0.2 Q-4.05 -1.7 -5.65 -1.75 L-6.3 -1.65 -6.65 -1.45 -6.55 -1.55 Q-6.8 -2.9 -6.65 -4.35 -6.3 -7.75 -4.8 -10.75 -4.4 -11.5 -4.4 -12.05 L-3.7 -12.25 -3.65 -12.25 Q-1.75 -11.4 -0.1 -10.15 L-0.1 -10.1 1.3 -9.0 1.75 -8.5 1.9 -8.35 M22.45 70.95 L22.45 70.9 22.45 70.95 M1.4 3.55 L0.7 3.45 -0.75 4.25 -0.65 4.05 Q-1.1 4.1 -1.4 4.5 -1.75 4.85 -1.55 5.2 L-1.75 5.75 -1.95 6.25 Q-2.1 7.15 -1.2 7.3 L-0.75 7.4 -0.3 7.45 -0.15 7.8 0.75 8.65 1.0 8.55 Q1.35 9.05 1.9 8.7 3.25 7.95 3.45 6.4 3.6 5.2 2.95 4.65 L3.05 4.5 Q3.3 4.1 3.05 3.8 2.85 3.35 2.2 3.2 1.5 3.0 1.4 3.5 L1.4 3.55 M3.15 25.45 Q2.8 24.8 2.95 24.15 L2.8 24.3 Q2.2 25.35 2.95 26.35 L3.8 26.7 4.55 26.8 4.15 26.8 5.0 26.95 5.1 26.85 5.25 26.75 6.0 27.8 Q5.8 28.2 6.5 28.6 7.1 28.9 6.85 29.45 L7.15 29.3 8.2 29.35 8.35 29.1 8.95 28.25 Q9.6 27.1 9.05 26.25 L8.5 26.7 9.3 25.9 9.95 24.35 10.0 24.35 9.75 23.85 9.6 23.65 9.6 23.6 9.55 23.55 9.3 23.0 9.3 22.75 7.85 22.55 Q6.3 22.75 4.85 23.4 L3.5 24.25 Q2.9 24.75 3.15 25.45 M6.8 44.25 L7.0 44.05 Q6.2 43.9 5.35 44.45 4.55 44.85 4.05 45.6 3.55 46.6 3.8 48.45 4.0 50.15 3.5 51.05 2.65 52.05 3.7 53.2 L4.6 54.15 4.85 54.55 5.15 55.2 5.8 55.1 5.95 54.8 6.2 53.9 6.6 54.35 Q7.25 54.5 7.7 54.1 9.2 52.85 9.65 51.1 L9.1 51.4 Q9.4 51.2 10.0 50.95 L10.85 50.15 9.7 50.65 9.65 50.7 9.6 50.7 10.35 50.4 10.6 50.05 10.75 49.65 Q10.8 48.6 10.35 47.6 9.75 46.2 8.7 45.15 7.9 44.35 6.8 44.25 M18.5 50.95 L17.6 50.9 Q17.05 50.95 16.6 51.3 L15.2 52.65 15.0 52.85 Q14.0 53.75 13.55 55.0 L13.35 56.0 13.0 55.65 12.9 56.7 13.4 57.45 13.7 57.8 13.85 57.9 14.35 58.25 Q15.35 58.8 16.4 58.75 17.4 59.3 18.55 60.6 L18.75 60.8 20.75 63.3 21.1 62.95 21.1 62.35 Q21.1 61.55 21.45 60.6 L22.1 58.25 21.35 55.55 Q20.95 54.0 21.3 52.7 20.3 51.05 18.25 50.7 L18.5 50.95 M13.45 64.3 L13.35 64.05 Q12.9 62.55 11.45 61.9 L10.95 61.65 9.65 61.45 7.95 61.6 Q6.95 61.85 6.4 62.7 L6.3 62.85 6.1 62.85 Q5.4 63.6 5.55 64.4 5.55 64.9 6.05 65.85 L6.55 67.35 Q6.65 68.25 6.1 69.1 L8.0 70.8 8.45 71.1 10.0 71.7 10.3 71.7 10.15 70.35 10.05 69.85 10.1 69.8 Q10.35 70.75 11.7 70.4 L13.35 66.6 13.5 66.15 13.65 65.95 13.8 64.95 Q13.8 64.4 13.45 64.3 M19.75 70.0 L19.5 70.55 19.5 70.5 Q20.4 69.85 20.1 68.75 19.9 67.95 19.2 67.5 18.5 67.0 17.55 67.1 L17.4 67.15 17.2 67.15 Q16.6 67.25 16.3 67.65 L16.0 68.4 Q15.95 68.9 16.15 69.35 L16.3 69.65 16.95 70.05 17.8 72.05 Q18.6 72.0 19.15 71.15 L19.75 70.0 M5.0 78.3 L5.0 78.25 4.55 78.6 Q4.15 78.95 4.05 79.45 L4.0 79.8 4.1 80.2 4.5 80.6 4.55 80.1 4.35 81.3 Q4.1 82.35 4.35 82.95 L5.8 82.2 5.85 82.5 Q6.0 82.8 6.3 82.85 7.8 83.05 8.65 81.6 L8.85 81.1 9.2 80.75 Q10.0 79.7 9.65 78.4 L9.55 78.2 9.15 77.9 9.05 78.3 9.2 77.75 Q8.0 76.9 6.55 77.1 L5.65 77.5 Q5.1 77.8 5.0 78.3" fill="#cc7a00" fill-rule="evenodd" stroke="none"/>
    <path d="M2.0 -8.2 L1.9 -8.3 1.9 -8.35 2.0 -8.2 M-3.65 -12.25 L-3.7 -12.25 -3.65 -12.3 -3.65 -12.25 M3.0 91.95 L3.55 92.05 Q3.3 92.35 3.2 92.75 L3.2 92.9 3.0 91.95 M3.8 86.8 L3.8 86.75 4.15 86.8 4.2 86.85 3.8 86.8 M22.45 70.95 L22.45 70.9 22.45 70.95 M24.1 73.45 L24.65 73.7 25.6 73.9 25.65 74.0 26.85 74.1 Q25.25 74.15 24.1 73.45 M25.75 66.0 L25.75 65.95 25.8 65.95 26.0 65.65 25.75 66.0 M22.9 66.25 L22.85 66.4 22.85 66.25 22.9 66.25 M6.45 2.45 L6.4 2.15 6.7 2.35 6.45 2.45 M7.55 91.35 L7.55 91.3 7.6 91.3 7.55 91.35 M4.6 95.55 Q5.2 95.55 5.5 95.05 L4.8 95.7 4.6 95.55 M26.75 79.15 L27.0 78.8 27.7 79.7 26.75 79.15" fill="#a47b00" fill-rule="evenodd" stroke="none"/>
    <path d="M2.0 -8.2 L1.9 -8.35 1.75 -8.5 1.3 -9.0 -0.1 -10.1 -0.1 -10.15 Q-1.75 -11.4 -3.65 -12.25 L-3.65 -12.3 Q-1.2 -12.95 1.4 -12.35 3.9 -11.0 5.8 -8.05 L7.25 -5.45 8.65 -2.75 Q9.15 -0.25 11.25 2.65 L12.55 3.5 Q11.2 3.6 11.35 4.9 L11.6 6.0 11.95 7.0 Q14.7 11.9 16.15 17.5 15.95 18.65 17.2 20.1 18.5 21.6 18.6 22.65 17.75 21.8 16.05 22.2 15.65 22.35 15.75 22.8 L15.95 23.5 15.7 27.2 15.65 27.65 Q14.7 28.45 14.0 29.55 13.7 29.65 13.45 29.85 11.9 30.95 13.0 32.75 L13.05 33.05 12.7 34.5 Q12.5 35.25 13.1 35.7 14.3 36.5 15.2 35.5 L16.2 35.85 Q17.3 36.0 18.1 36.8 18.35 37.1 18.75 37.25 L19.45 37.5 19.0 38.1 Q18.55 38.75 18.5 39.3 L17.9 40.5 17.7 41.2 17.8 41.4 17.5 40.65 Q16.05 37.8 13.45 36.35 12.35 37.45 10.65 37.75 L9.75 37.8 Q8.5 37.75 8.9 36.7 9.05 36.35 9.45 36.35 L9.75 36.1 10.1 36.05 9.6 36.0 Q10.1 35.5 9.9 34.8 L9.6 34.3 9.3 33.4 Q8.45 33.0 8.65 32.2 L9.3 30.7 Q9.75 29.45 11.05 28.6 L11.65 28.15 12.2 27.7 Q12.65 24.4 11.95 21.15 L11.55 19.4 10.3 14.25 10.3 14.05 10.3 13.95 10.3 12.1 Q10.85 11.7 10.95 10.85 L10.95 9.65 10.9 9.6 10.75 9.35 10.5 8.95 10.45 8.95 9.95 8.55 9.85 8.45 Q9.4 8.1 8.95 8.3 L8.65 8.35 8.5 8.35 8.6 8.65 8.5 8.35 Q7.55 8.3 6.7 8.75 L6.2 8.85 6.1 8.75 6.1 8.55 6.55 7.9 Q7.15 7.25 8.0 6.95 L7.75 6.3 6.45 2.45 6.7 2.35 7.1 2.5 Q7.55 1.85 7.55 0.1 L7.25 -0.7 7.35 -1.15 7.3 -1.6 Q7.1 -2.35 6.55 -2.65 L5.55 -2.75 5.5 -2.75 4.5 -2.6 3.7 -2.4 3.3 -1.95 Q3.05 -2.1 3.15 -2.45 L3.85 -3.5 4.5 -4.0 4.55 -4.0 3.9 -5.35 2.0 -8.2 M4.15 86.8 L3.65 86.7 3.7 86.75 Q3.3 86.5 3.3 86.05 L3.3 85.7 Q3.8 83.15 6.25 84.5 L7.65 85.55 8.7 86.8 14.3 87.1 14.85 87.1 Q14.45 86.75 14.2 86.1 13.9 85.4 14.45 85.05 L14.65 85.2 15.5 85.5 15.75 86.6 16.1 87.5 16.35 87.75 16.65 87.85 16.95 87.8 17.7 86.5 17.75 86.5 17.7 86.6 18.9 86.35 19.5 86.1 19.95 85.8 19.9 85.7 20.5 84.85 20.8 84.35 Q20.95 83.3 20.6 82.25 L20.15 81.4 20.15 81.55 18.9 81.05 18.55 80.9 18.55 80.15 Q18.5 79.0 18.8 77.9 L18.95 77.4 19.3 76.6 Q19.55 75.8 20.15 75.1 L21.1 73.75 22.25 71.65 22.45 72.4 22.65 72.8 22.7 72.95 Q23.3 73.9 24.35 74.7 L27.4 74.6 27.45 74.95 Q27.45 76.2 26.75 77.55 25.95 78.95 24.7 80.05 L24.7 80.35 25.0 80.35 Q25.05 80.85 25.55 81.45 28.6 85.0 27.4 89.35 L27.25 89.75 25.9 91.45 Q23.55 93.85 21.0 93.5 L20.2 93.35 20.8 93.4 20.8 92.75 Q20.7 90.3 18.2 89.4 17.45 89.5 17.55 90.3 17.65 91.0 18.1 91.55 L18.5 92.3 18.75 93.6 19.1 93.55 17.95 93.8 Q16.35 90.8 14.5 90.55 L13.1 90.55 Q11.3 88.9 9.6 89.45 L7.6 91.3 7.55 91.3 7.4 89.7 Q6.55 87.3 4.2 86.85 L4.15 86.8 M25.9 63.5 L25.5 63.5 Q24.45 63.7 23.8 64.6 L22.9 66.25 22.85 66.25 22.95 63.15 23.25 57.95 23.2 57.75 22.75 55.5 Q22.55 54.75 22.7 54.05 L22.2 51.6 20.0 46.55 21.6 46.55 21.75 46.55 22.9 46.5 23.4 46.35 25.2 50.5 Q26.1 53.0 25.7 55.0 25.6 55.7 25.95 55.95 L26.75 56.1 27.35 56.1 27.35 56.4 27.4 56.7 27.65 57.7 27.8 59.0 27.9 58.9 27.65 59.15 27.5 59.05 27.35 59.15 27.1 59.45 27.1 59.8 27.35 59.9 27.65 59.9 27.4 61.3 26.85 62.65 27.1 62.9 27.0 63.2 Q26.4 63.15 25.9 63.5" fill="#c16100" fill-rule="evenodd" stroke="none"/>
    <path d="M-4.4 -12.05 Q-4.4 -11.5 -4.8 -10.75 -6.3 -7.75 -6.65 -4.35 -6.8 -2.9 -6.55 -1.55 L-6.65 -1.45 -6.8 -1.35 -7.15 -0.75 -7.1 0.0 -6.9 0.25 -7.0 0.5 Q-7.45 1.35 -7.1 2.0 L-6.65 1.9 -6.2 2.15 -5.9 2.25 -5.85 2.3 -5.8 2.3 -5.7 2.35 -4.9 2.45 -4.9 2.5 -2.35 6.85 Q1.15 12.7 1.55 19.45 1.75 22.7 1.15 25.95 0.35 30.3 2.5 33.9 L2.5 33.95 1.95 33.65 1.55 33.45 1.5 33.45 1.45 33.4 Q0.25 32.9 -0.1 31.7 -0.85 30.35 -0.9 27.75 -0.95 24.4 -1.1 23.6 -1.25 23.05 -1.65 22.9 L-2.3 22.9 -2.9 23.05 -2.9 22.1 -2.9 21.35 -2.4 20.45 -1.9 19.6 Q-2.0 15.55 -3.45 11.75 -5.05 7.8 -7.75 4.9 -9.3 1.05 -9.55 -2.45 -9.85 -6.85 -8.0 -9.75 -6.45 -11.35 -4.4 -12.05 M2.85 34.1 L2.8 33.5 Q2.8 32.6 3.45 31.9 4.35 30.85 5.75 31.05 7.75 31.6 6.75 33.35 L6.6 33.55 Q8.1 34.7 7.1 36.2 L6.95 36.45 6.05 36.15 4.85 36.05 Q3.5 35.85 3.5 34.55 L2.85 34.1 M3.7 37.1 L3.35 37.45 Q3.4 38.05 3.05 38.85 L1.7 42.15 Q-0.65 48.05 -0.3 54.55 L0.05 55.7 -0.15 55.85 -0.25 56.0 -0.25 56.65 -0.1 56.95 Q-0.85 56.15 -1.95 55.85 L-2.2 55.9 -2.2 55.85 -2.2 55.8 Q-3.1 53.6 -2.95 50.15 L-2.85 47.3 -2.75 44.5 Q-3.35 43.5 -5.5 43.95 L-5.65 44.05 -5.95 44.05 -5.85 43.9 -5.75 43.75 Q-4.45 41.25 -2.1 40.35 -2.0 40.1 -2.2 40.0 L-2.5 39.8 -2.75 39.95 -3.05 40.0 -3.1 39.9 0.55 37.0 0.4 36.9 2.1 35.2 2.9 36.3 3.7 37.1 M1.6 61.35 L3.0 66.6 3.3 68.3 3.45 70.3 3.2 70.0 2.95 69.7 2.9 69.6 2.8 69.55 Q0.85 67.95 -0.35 68.55 L-0.3 68.45 -0.3 66.75 -0.45 64.85 -0.15 63.1 0.35 62.25 1.1 61.65 1.1 61.6 1.15 61.6 1.6 61.3 1.6 61.35 M2.35 77.45 Q2.55 77.65 2.85 77.65 L2.0 81.0 Q1.45 82.75 1.5 84.4 1.55 85.75 0.3 86.1 -0.9 86.4 -1.6 85.85 L-0.75 85.2 Q0.15 84.6 1.15 84.6 L1.15 84.25 0.85 83.9 -1.1 84.5 Q-1.7 81.65 0.2 77.2 L0.7 77.05 0.85 77.0 1.0 77.05 2.1 77.2 2.2 77.3 2.35 77.45" fill="#e6a233" fill-rule="evenodd" stroke="none"/>
    <path d="M-6.65 -1.45 L-6.3 -1.65 -5.65 -1.75 Q-4.05 -1.7 -3.45 -0.2 L-3.45 -0.15 Q-3.2 0.5 -3.3 1.15 -3.4 2.0 -4.2 2.3 L-4.9 2.5 -4.9 2.45 -5.7 2.35 -5.8 2.3 -5.85 2.3 -5.9 2.25 -6.2 2.15 -6.65 1.9 -5.35 1.6 -4.9 1.5 -4.25 1.35 Q-4.35 1.15 -4.55 1.1 -4.35 0.45 -4.75 -0.1 L-4.8 -0.2 Q-5.25 -0.8 -6.1 -0.8 L-6.25 -0.7 -6.3 -0.6 -6.35 -0.95 -6.35 -0.9 -6.9 0.25 -7.1 0.0 -7.15 -0.75 -6.8 -1.35 -6.65 -1.45 M14.45 85.05 L14.05 84.6 14.1 84.5 14.05 84.25 13.85 84.0 13.75 83.95 13.7 83.45 Q13.8 82.3 14.4 81.3 L14.6 81.05 15.35 80.35 15.8 80.2 15.3 80.85 15.3 80.9 Q16.3 79.9 17.7 80.45 L18.9 81.05 20.15 81.55 20.15 81.4 20.6 82.25 Q20.95 83.3 20.8 84.35 L20.5 84.85 19.9 85.7 19.95 85.8 19.5 86.1 18.9 86.35 17.7 86.6 17.75 86.5 17.95 86.1 18.55 85.15 18.8 84.75 Q19.5 83.5 18.3 83.15 L16.15 82.95 Q15.15 83.3 15.3 84.6 L15.4 85.05 15.5 85.5 14.65 85.2 14.45 85.05 M4.95 11.6 L4.9 11.55 4.75 11.2 Q4.85 10.0 5.75 9.2 L6.2 8.85 6.7 8.75 Q7.55 8.3 8.5 8.35 L8.6 8.65 8.5 8.35 8.65 8.35 8.95 8.3 Q9.4 8.1 9.85 8.45 L9.95 8.55 Q10.35 9.45 10.4 10.7 L9.8 11.65 9.3 10.9 9.25 10.75 9.9 10.7 9.4 10.3 9.1 10.15 8.05 9.85 Q7.2 9.7 6.65 10.15 7.0 10.35 6.75 10.95 L6.7 11.0 6.5 11.5 6.25 11.95 5.55 11.7 5.1 11.7 4.95 11.6 M5.25 1.1 L5.05 1.15 4.45 1.2 Q3.4 1.45 3.1 0.45 2.95 -0.1 3.05 -0.65 2.95 -1.4 3.3 -1.95 L3.7 -2.4 4.5 -2.6 5.5 -2.75 5.55 -2.75 6.55 -2.65 Q7.1 -2.35 7.3 -1.6 L7.35 -1.15 7.25 -0.7 6.85 -0.9 6.8 -0.9 6.8 -0.7 6.7 -0.8 5.55 -1.05 5.45 -1.05 Q4.95 -0.85 4.8 -0.35 L4.75 0.2 5.25 0.5 Q4.65 0.05 4.25 0.1 L5.25 1.1 M1.85 3.65 L1.9 3.7 1.95 3.75 2.0 3.75 2.2 4.0 2.25 4.1 2.3 4.15 2.4 4.4 2.55 4.65 2.6 4.8 2.65 5.0 2.7 5.15 2.9 4.8 Q3.0 6.15 1.95 7.05 L1.5 7.3 1.65 6.55 1.45 6.2 1.5 5.85 1.35 5.25 Q1.05 4.65 0.25 4.8 L-0.45 5.25 Q-0.9 5.6 -0.7 6.05 L-0.9 6.55 -0.3 7.45 -0.75 7.4 -1.2 7.3 Q-2.1 7.15 -1.95 6.25 L-1.75 5.75 -1.55 5.2 -1.55 5.25 -1.0 4.7 -0.75 4.25 0.7 3.45 1.4 3.55 1.65 3.55 1.7 3.55 1.8 3.6 1.85 3.65 M3.15 25.45 Q2.9 24.75 3.5 24.25 L4.85 23.4 Q6.3 22.75 7.85 22.55 L9.3 22.75 9.3 23.0 9.55 23.55 9.6 23.6 9.6 23.65 9.75 23.85 10.0 24.35 9.95 24.35 9.3 25.9 8.5 26.7 7.9 27.1 8.05 26.45 Q8.25 25.15 7.55 24.7 6.05 24.9 5.15 26.15 L5.25 26.15 5.7 25.9 5.25 26.15 5.2 26.25 5.2 26.45 5.3 26.6 5.15 26.55 5.25 26.75 5.1 26.85 5.0 26.95 4.15 26.8 4.55 26.8 4.75 26.8 4.8 26.8 Q3.85 26.6 3.3 25.8 L3.15 25.55 3.15 25.45 M-2.2 55.9 L-1.95 55.85 Q-0.85 56.15 -0.1 56.95 L0.35 57.55 Q1.0 58.65 1.1 59.9 L0.2 61.7 Q-0.45 62.65 -1.4 62.55 L-1.55 62.1 Q-0.35 60.35 -0.9 59.05 -0.95 58.6 -1.3 58.2 L-2.05 57.45 Q-2.85 56.6 -2.2 55.9 M6.8 44.25 Q7.9 44.35 8.7 45.15 9.75 46.2 10.35 47.6 10.8 48.6 10.75 49.65 L10.6 50.05 10.35 50.4 9.6 50.7 8.4 50.9 8.1 50.85 8.0 50.85 7.95 50.85 7.9 50.5 8.15 50.3 8.2 50.3 Q8.75 50.55 9.05 49.75 9.35 48.75 9.75 48.65 8.85 48.95 8.1 48.2 L7.5 47.45 6.8 46.9 5.0 47.0 Q5.25 47.35 4.9 47.55 L4.7 47.45 4.55 47.05 Q4.35 46.15 5.25 45.45 L6.2 44.75 6.8 44.25 M18.5 50.95 L20.55 52.8 20.55 53.85 20.55 54.15 20.5 54.2 20.35 54.55 20.35 54.65 20.3 54.65 Q20.1 54.6 20.15 54.35 L20.0 54.0 Q19.45 53.75 18.75 54.0 L17.6 54.45 16.05 55.8 Q15.25 56.6 15.3 57.5 L14.05 56.7 13.35 56.0 13.55 55.0 Q14.0 53.75 15.0 52.85 L15.2 52.65 16.6 51.3 Q17.05 50.95 17.6 50.9 L18.5 50.95 M13.85 57.9 L13.7 57.8 13.4 57.45 13.85 57.9 M6.3 62.85 L6.4 62.7 Q6.95 61.85 7.95 61.6 L9.65 61.45 10.95 61.65 11.45 61.9 Q12.9 62.55 13.35 64.05 L13.45 64.3 13.35 64.3 13.0 65.9 Q12.7 66.75 11.95 66.95 L11.8 65.6 11.75 65.4 11.8 65.45 11.85 65.45 11.9 65.4 11.75 65.35 11.8 65.25 12.05 64.75 12.1 64.75 12.3 64.6 11.6 64.15 10.45 63.4 Q7.85 62.4 7.1 63.85 7.5 64.0 7.15 64.45 6.7 65.1 6.8 65.4 6.2 64.95 6.2 64.2 L6.3 62.85 M2.3 76.35 L3.35 75.2 Q3.55 74.5 3.0 73.75 L1.95 72.5 Q0.9 71.55 -0.1 71.85 L-0.15 71.65 -0.45 69.8 -0.35 69.75 -0.35 69.7 -0.3 69.55 -0.2 69.45 -0.15 69.45 Q1.0 69.45 2.05 70.2 L3.8 71.85 3.85 71.6 4.8 73.9 Q4.55 74.05 4.55 74.45 L4.55 74.55 4.55 74.65 4.55 74.8 4.55 74.85 Q4.65 75.85 4.15 76.1 L4.2 76.1 4.25 76.15 4.55 76.2 3.85 76.85 3.8 76.9 3.75 76.9 2.1 77.2 1.0 77.05 0.85 77.0 0.8 77.0 1.4 76.8 1.85 76.6 1.9 76.55 1.95 76.55 2.3 76.35 M19.6 69.7 L19.5 69.05 19.35 68.7 Q18.85 67.8 17.75 67.95 L17.65 68.05 17.45 68.4 17.45 68.55 17.35 68.75 17.35 69.15 17.15 69.0 16.7 69.65 16.95 70.05 16.3 69.65 16.15 69.35 Q15.95 68.9 16.0 68.4 L16.3 67.65 Q16.6 67.25 17.2 67.15 L17.4 67.15 17.55 67.1 Q18.5 67.0 19.2 67.5 19.9 67.95 20.1 68.75 20.4 69.85 19.5 70.5 L19.5 70.55 19.75 70.0 19.9 69.65 19.6 69.7 M6.9 77.5 L6.95 77.5 Q7.85 77.55 9.05 78.3 L9.15 77.9 9.55 78.2 9.65 78.4 Q10.0 79.7 9.2 80.75 L8.85 81.1 8.55 81.3 7.25 81.55 6.75 81.45 8.4 80.25 Q8.05 78.95 6.75 78.95 L5.45 79.2 5.4 79.15 5.35 79.15 5.1 79.35 4.8 79.45 4.6 79.6 4.6 79.7 4.6 79.8 4.55 80.1 4.5 80.6 4.1 80.2 4.0 79.8 4.05 79.45 Q4.15 78.95 4.55 78.6 L5.0 78.25 5.0 78.3 5.8 77.8 5.95 77.75 6.9 77.5" fill="#e8ae00" fill-rule="evenodd" stroke="none"/>
    <path d="M3.2 70.0 L3.6 70.6 3.85 71.4 3.85 71.5 3.85 71.6 3.8 71.85 2.05 70.2 Q1.0 69.45 -0.15 69.45 L-0.25 69.45 -0.35 69.6 -0.5 69.4 Q-0.75 68.75 -0.3 68.45 L-0.35 68.55 Q0.85 67.95 2.8 69.55 L2.9 69.6 2.95 69.7 3.2 70.0 M22.25 71.65 Q22.15 71.15 22.3 70.75 L22.45 70.95 Q23.1 71.85 23.25 72.8 L23.35 72.9 24.1 73.45 Q25.25 74.15 26.85 74.1 L28.15 73.95 28.35 73.9 28.4 73.9 28.45 73.9 28.3 74.45 Q28.1 74.85 27.65 74.85 L27.45 74.9 27.45 74.95 27.4 74.6 24.35 74.7 Q23.3 73.9 22.7 72.95 L22.65 72.8 22.45 72.4 22.25 71.65 M26.3 72.6 Q25.95 72.35 25.8 72.7 25.15 72.2 24.85 71.2 L24.3 69.6 24.35 69.5 24.6 68.95 25.25 67.05 25.75 66.0 26.0 65.65 26.8 65.1 26.85 65.05 Q26.95 65.35 27.3 65.4 L27.6 65.45 27.65 66.45 27.4 67.0 26.8 66.45 25.8 68.2 Q25.3 69.25 25.7 70.05 L26.25 71.05 25.85 70.8 Q25.7 70.8 25.5 70.95 25.25 71.15 25.35 71.4 L26.1 72.5 26.3 72.6 M27.55 65.0 L27.0 64.4 25.9 63.5 Q26.4 63.15 27.0 63.2 L27.05 63.15 27.45 63.9 27.5 64.9 27.55 65.0 M20.0 46.55 L19.6 46.55 18.95 46.15 18.65 45.45 19.7 45.9 20.65 45.8 22.5 45.05 Q20.1 44.25 19.45 43.3 L19.45 43.15 19.85 41.9 Q20.2 41.0 20.75 40.45 20.8 40.25 21.45 39.9 L21.6 39.8 21.85 39.55 Q22.2 39.55 22.35 40.0 L22.4 40.4 21.95 40.25 Q20.55 41.35 20.55 43.05 L20.75 43.1 20.95 43.15 20.9 43.15 20.85 43.2 20.55 43.25 20.4 43.25 20.35 43.3 20.3 43.5 20.3 43.55 20.4 43.65 23.1 44.8 23.0 44.9 Q23.65 45.35 23.45 46.15 L23.4 46.35 22.9 46.5 21.75 46.55 21.6 46.55 20.0 46.55 M20.6 38.05 L20.4 38.05 19.9 38.25 19.65 38.5 19.15 39.2 18.5 39.6 18.5 39.55 18.5 39.25 18.5 39.3 Q18.55 38.75 19.0 38.1 L19.45 37.5 19.9 36.85 20.15 36.75 Q21.05 36.95 20.7 37.85 L20.6 38.05 M10.3 14.25 L10.3 14.3 9.85 15.6 8.4 13.85 Q7.35 12.65 6.3 12.55 5.05 12.45 4.8 11.8 L5.1 11.7 5.55 11.7 6.25 11.95 6.5 11.5 6.75 10.95 Q7.0 10.35 6.65 10.15 7.2 9.7 8.05 9.85 L9.1 10.15 9.4 10.3 9.9 10.7 9.25 10.75 9.1 10.7 9.05 10.7 9.0 10.7 7.9 10.45 Q6.65 10.3 6.8 11.8 L8.35 13.15 9.75 14.85 Q9.95 13.5 9.75 12.1 L9.5 12.1 9.8 11.65 10.4 10.7 Q10.35 9.45 9.95 8.55 L10.45 8.95 10.5 8.95 10.75 9.35 10.9 9.6 10.95 9.65 10.95 10.85 Q10.85 11.7 10.3 12.1 L10.3 13.95 10.3 14.05 10.3 14.25 M6.4 2.15 L5.6 1.45 5.25 1.1 4.25 0.1 Q4.65 0.05 5.25 0.5 L5.3 0.55 6.3 1.3 6.35 1.3 6.4 1.2 6.45 1.15 6.55 1.05 6.9 0.1 6.85 -0.7 6.8 -0.7 6.8 -0.9 6.85 -0.9 7.25 -0.7 7.55 0.1 Q7.55 1.85 7.1 2.5 L6.7 2.35 6.4 2.15 M1.85 3.65 L1.8 3.6 1.7 3.55 1.4 3.5 Q1.5 3.0 2.2 3.2 2.85 3.35 3.05 3.8 3.3 4.1 3.05 4.5 L2.95 4.65 2.9 4.8 2.7 5.15 2.65 5.0 2.6 4.8 2.55 4.65 2.4 4.4 2.3 4.15 2.25 4.1 2.2 4.0 2.0 3.75 1.85 3.65 M-0.75 4.25 L-1.0 4.7 -1.55 5.25 -1.55 5.2 Q-1.75 4.85 -1.4 4.5 -1.1 4.1 -0.65 4.05 L-0.75 4.25 M-0.3 7.45 L-0.9 6.55 -0.7 6.05 -0.65 5.95 -0.35 6.3 0.15 6.6 0.3 6.85 0.75 7.55 1.0 6.65 1.05 6.45 1.15 6.4 1.35 6.0 1.45 6.2 1.65 6.55 1.5 7.3 1.45 7.8 1.0 8.55 0.75 8.65 -0.15 7.8 -0.3 7.45 M4.55 26.8 L3.8 26.7 2.95 26.35 Q2.2 25.35 2.8 24.3 L2.95 24.15 Q2.8 24.8 3.15 25.45 L3.15 25.55 3.3 25.8 Q3.85 26.6 4.8 26.8 L4.75 26.8 4.55 26.8 M7.15 29.3 L6.85 29.45 Q7.1 28.9 6.5 28.6 5.8 28.2 6.0 27.8 L5.25 26.75 5.15 26.55 5.3 26.6 6.1 27.4 7.0 28.35 7.4 26.9 7.55 25.35 6.55 25.55 6.35 25.6 6.2 25.7 5.7 25.9 5.25 26.15 5.15 26.15 Q6.05 24.9 7.55 24.7 8.25 25.15 8.05 26.45 L7.9 27.1 7.55 28.5 7.35 29.1 7.3 29.15 7.15 29.3 M-2.2 55.8 L-2.2 55.85 -2.2 55.9 Q-2.85 56.6 -2.05 57.45 L-1.3 58.2 Q-0.95 58.6 -0.9 59.05 -0.35 60.35 -1.55 62.1 L-1.4 62.55 Q-0.45 62.65 0.2 61.7 L1.1 59.9 Q1.35 60.2 1.25 60.75 L1.1 61.6 1.1 61.65 0.35 62.25 -0.15 63.1 -1.25 62.95 Q-2.15 62.55 -2.1 61.55 L-2.05 61.1 -1.95 61.0 -1.9 60.65 -1.9 60.2 -1.9 60.1 -1.95 60.1 -2.0 59.85 -2.2 59.45 -3.05 58.2 -3.15 58.55 -3.2 57.85 -3.1 56.65 -2.9 56.15 Q-2.65 55.8 -2.25 55.8 L-2.2 55.8 M4.85 54.55 L4.6 54.15 3.7 53.2 Q2.65 52.05 3.5 51.05 4.0 50.15 3.8 48.45 3.55 46.6 4.05 45.6 4.55 44.85 5.35 44.45 6.2 43.9 7.0 44.05 L6.8 44.25 6.2 44.75 5.25 45.45 Q4.35 46.15 4.55 47.05 L4.7 47.45 4.9 47.55 Q5.25 47.35 5.0 47.0 L6.8 46.9 7.5 47.45 8.1 48.2 Q8.85 48.95 9.75 48.65 9.35 48.75 9.05 49.75 8.75 50.55 8.2 50.3 L8.15 50.3 8.25 49.35 8.4 49.0 7.05 48.15 Q6.25 47.35 5.7 47.35 L5.1 49.0 5.05 49.05 4.45 50.75 4.3 51.6 4.3 51.75 Q4.3 52.85 5.15 53.65 L4.85 54.55 M9.6 50.7 L9.65 50.7 9.7 50.65 10.85 50.15 10.0 50.95 Q9.4 51.2 9.1 51.4 L8.85 51.6 Q7.9 51.4 7.2 52.05 L7.8 51.0 7.9 50.85 7.95 50.85 8.0 50.85 8.1 50.85 8.4 50.9 9.6 50.7 M6.2 53.9 L5.95 54.8 5.8 55.1 6.15 54.05 6.2 53.9 M20.5 54.2 L20.55 54.15 20.55 53.85 20.55 52.8 18.5 50.95 18.25 50.7 Q20.3 51.05 21.3 52.7 20.95 54.0 21.35 55.55 L22.1 58.25 21.45 60.6 Q21.1 61.55 21.1 62.35 L21.15 61.65 20.5 60.75 20.4 60.65 20.55 59.65 20.95 58.0 Q21.2 56.1 19.45 55.55 19.35 54.4 18.45 54.75 L16.95 55.65 16.4 56.25 Q16.15 56.65 16.5 56.9 L16.3 56.9 15.9 57.45 15.85 57.85 16.15 58.1 16.65 58.45 16.7 58.55 16.9 58.8 17.1 59.05 17.25 59.1 17.45 59.15 18.4 60.4 18.55 60.6 Q17.4 59.3 16.4 58.75 15.35 58.8 14.35 58.25 L13.85 57.9 13.4 57.45 12.9 56.7 13.0 55.65 13.35 56.0 14.05 56.7 15.3 57.5 Q15.25 56.6 16.05 55.8 L17.6 54.45 18.75 54.0 Q19.45 53.75 20.0 54.0 L20.15 54.35 Q20.1 54.6 20.3 54.65 L20.35 54.65 20.5 54.2 M17.9 57.6 L17.7 57.45 17.7 57.4 17.85 57.55 17.9 57.6 M6.9 52.4 L7.0 52.2 7.15 52.15 6.9 52.4 M13.45 64.3 Q13.8 64.4 13.8 64.95 L13.65 65.95 13.5 66.15 12.95 67.0 12.0 67.9 Q11.4 67.7 10.95 68.1 L11.7 65.8 11.55 65.55 11.45 65.45 11.2 65.45 11.55 64.4 Q9.85 63.75 7.95 63.75 7.5 64.5 7.3 65.7 L7.2 66.75 7.2 67.0 7.2 67.2 7.2 68.1 8.9 69.75 8.45 71.1 8.0 70.8 6.1 69.1 Q6.65 68.25 6.55 67.35 L6.05 65.85 Q5.55 64.9 5.55 64.4 5.4 63.6 6.1 62.85 L6.3 62.85 6.2 64.2 Q6.2 64.95 6.8 65.4 6.7 65.1 7.15 64.45 7.5 64.0 7.1 63.85 7.85 62.4 10.45 63.4 L11.6 64.15 12.3 64.6 12.1 64.75 12.05 64.75 11.8 65.25 11.75 65.35 11.75 65.4 11.8 65.6 11.95 66.95 Q12.7 66.75 13.0 65.9 L13.35 64.3 13.45 64.3 M10.15 70.35 L10.3 71.7 10.0 71.7 10.2 70.95 10.15 70.35 M0.35 76.05 L0.7 76.0 1.05 76.0 1.15 76.0 Q2.1 75.6 2.7 74.7 L1.45 73.5 Q0.95 73.1 0.5 73.0 L0.15 72.95 -0.15 72.3 -0.15 71.65 -0.1 71.85 Q0.9 71.55 1.95 72.5 L3.0 73.75 Q3.55 74.5 3.35 75.2 L2.3 76.35 2.25 76.2 2.1 76.0 1.85 76.0 1.7 76.05 0.3 76.3 0.35 76.05 M19.6 69.7 L19.9 69.65 19.75 70.0 19.15 71.15 Q18.6 72.0 17.8 72.05 L16.95 70.05 16.7 69.65 17.15 69.0 17.35 69.15 17.35 69.2 17.6 69.6 17.8 70.1 17.9 70.35 18.05 70.8 18.35 71.3 18.45 71.2 19.15 70.1 19.6 69.75 19.6 69.7 M16.65 87.85 L16.35 87.75 16.1 87.5 15.75 86.6 15.5 85.5 15.4 85.05 15.3 84.6 Q15.15 83.3 16.15 82.95 L18.3 83.15 Q19.5 83.5 18.8 84.75 L18.55 85.15 18.8 84.75 18.75 84.7 18.7 84.5 18.5 84.45 18.35 84.5 18.25 84.55 16.45 87.4 16.5 87.55 16.5 87.75 16.65 87.85 M18.35 84.45 Q18.2 83.85 17.45 83.75 L16.15 83.5 Q16.05 84.2 16.35 85.2 L16.85 86.8 Q17.75 84.9 18.35 84.45 M9.05 78.3 Q7.85 77.55 6.95 77.5 L6.9 77.5 6.1 77.65 5.8 77.8 5.0 78.3 Q5.1 77.8 5.65 77.5 L6.55 77.1 Q8.0 76.9 9.2 77.75 L9.05 78.3 M4.55 80.1 L4.6 79.8 4.6 79.7 4.6 79.6 4.8 79.45 5.1 79.35 5.45 79.2 6.75 78.95 Q8.05 78.95 8.4 80.25 L6.75 81.45 6.55 81.65 5.8 82.2 4.35 82.95 Q4.1 82.35 4.35 81.3 L4.55 80.1 M7.35 79.85 L6.85 79.6 Q5.75 79.1 5.45 80.3 L5.25 81.35 4.9 82.25 7.85 80.15 Q7.7 79.95 7.35 79.85 M-6.9 0.25 L-6.35 -0.9 -6.35 -0.95 -6.3 -0.6 -6.4 0.1 -6.8 1.2 -5.4 1.1 -4.75 1.05 -4.55 1.1 Q-4.35 1.15 -4.25 1.35 L-4.9 1.5 -4.85 1.5 -5.35 1.6 -6.65 1.9 -7.1 2.0 Q-7.45 1.35 -7.0 0.5 L-6.9 0.25" fill="#793600" fill-rule="evenodd" stroke="none"/>
    <path d="M5.25 0.5 L4.75 0.2 4.8 -0.35 Q4.95 -0.85 5.45 -1.05 L5.55 -1.05 6.7 -0.8 6.8 -0.7 6.85 -0.7 6.9 0.1 6.85 0.4 6.65 0.55 6.7 0.75 6.55 1.05 6.45 1.15 6.4 1.2 6.35 1.3 6.3 1.3 5.3 0.55 5.25 0.5 M-0.7 6.05 Q-0.9 5.6 -0.45 5.25 L0.25 4.8 Q1.05 4.65 1.35 5.25 L1.5 5.85 1.45 6.2 1.35 6.0 1.15 6.4 1.05 6.45 1.0 6.65 0.75 7.55 0.3 6.85 0.15 6.6 -0.35 6.3 -0.65 5.95 -0.7 6.05 M9.8 11.65 L9.5 12.1 9.75 12.1 Q9.95 13.5 9.75 14.85 L8.35 13.15 6.8 11.8 Q6.65 10.3 7.9 10.45 L9.0 10.7 9.05 10.7 9.1 10.7 9.15 10.75 9.3 10.9 9.8 11.65 M6.55 25.55 L7.55 25.35 7.4 26.9 7.0 28.35 6.1 27.4 5.3 26.6 5.2 26.45 5.2 26.25 5.25 26.15 5.7 25.9 6.2 25.7 6.55 25.55 M4.3 51.75 L4.3 51.6 4.4 51.7 4.3 51.75 M5.05 49.05 L5.1 49.0 5.1 49.05 5.05 49.05 M22.4 40.4 Q23.8 40.9 24.5 41.85 24.55 42.55 25.05 43.75 L25.7 45.6 23.2 44.1 23.1 44.0 22.45 43.7 20.95 43.15 20.75 43.1 20.55 43.05 Q20.55 41.35 21.95 40.25 L22.4 40.4 M27.35 56.1 L27.7 56.15 28.4 56.85 30.3 59.25 27.9 58.9 27.8 59.0 27.65 57.7 27.4 56.7 27.35 56.4 27.35 56.1 M7.35 65.75 L7.2 66.75 7.2 67.0 7.2 66.75 7.3 65.7 7.35 65.75 M0.5 73.0 L0.45 73.2 -0.65 73.85 0.0 72.95 0.15 72.95 0.5 73.0 M17.35 69.15 L17.35 68.75 17.45 68.55 17.45 68.4 17.65 68.05 17.75 67.95 Q18.85 67.8 19.35 68.7 L19.5 69.05 19.6 69.7 19.6 69.75 19.15 70.1 18.45 71.2 18.25 71.15 18.05 70.8 17.9 70.35 17.8 70.1 17.6 69.6 17.35 69.2 17.35 69.15 M18.35 84.45 Q17.75 84.9 16.85 86.8 L16.35 85.2 Q16.05 84.2 16.15 83.5 L17.45 83.75 Q18.2 83.85 18.35 84.45 M7.35 79.85 Q7.7 79.95 7.85 80.15 L4.9 82.25 5.25 81.35 5.45 80.3 Q5.75 79.1 6.85 79.6 L7.35 79.85 M-4.9 88.85 Q-4.2 88.2 -3.3 87.95 L-2.45 87.7 -2.25 87.65 -2.25 87.8 -3.3 88.0 -4.25 88.4 -4.9 88.85 M10.8 95.5 L11.1 94.9 10.9 95.4 10.8 95.5 M31.35 83.65 Q30.3 83.9 30.05 83.35 L29.5 81.25 Q32.1 82.3 33.05 83.9 32.5 83.4 31.35 83.65 M-6.3 -0.6 L-6.25 -0.7 -6.1 -0.8 Q-5.25 -0.8 -4.8 -0.2 L-4.75 -0.1 Q-4.35 0.45 -4.55 1.1 L-4.75 1.05 -5.4 1.1 -6.8 1.2 -6.4 0.1 -6.3 -0.6 M-3.15 58.55 L-3.05 58.2 -2.2 59.45 -2.0 59.85 -1.9 60.65 -1.95 61.0 -2.05 61.1 -3.0 61.55 Q-3.85 61.8 -4.15 62.0 L-3.65 60.05 -3.15 58.55" fill="#cccccc" fill-rule="evenodd" stroke="none"/>
    <path d="M4.8 11.8 L4.95 11.6 5.1 11.7 4.8 11.8 M6.9 0.1 L6.55 1.05 6.7 0.75 6.65 0.55 6.85 0.4 6.9 0.1 M2.0 3.75 L1.95 3.75 1.9 3.7 1.85 3.65 2.0 3.75 M1.7 3.55 L1.65 3.55 1.4 3.55 1.4 3.5 1.7 3.55 M9.1 10.7 L9.25 10.75 9.3 10.9 9.15 10.75 9.1 10.7 M6.75 10.95 L6.5 11.5 6.7 11.0 6.75 10.95 M3.15 25.55 L3.15 25.45 3.15 25.55 M6.55 25.55 L6.2 25.7 6.35 25.6 6.55 25.55 M20.35 54.65 L20.35 54.55 20.5 54.2 20.35 54.65 M7.9 50.85 L7.75 50.85 7.9 50.5 7.9 50.85 M11.75 65.35 L11.9 65.4 11.85 65.45 11.8 65.45 11.75 65.4 11.75 65.35 M-0.15 69.45 L-0.2 69.45 -0.3 69.55 -0.35 69.7 -0.35 69.75 -0.45 69.8 -0.35 69.6 -0.25 69.45 -0.15 69.45 M18.05 70.8 L18.25 71.15 18.45 71.2 18.35 71.3 18.05 70.8 M17.75 86.5 L17.7 86.5 17.95 86.1 17.75 86.5 M6.9 77.5 L5.95 77.75 5.8 77.8 6.1 77.65 6.9 77.5 M5.1 79.35 L5.35 79.15 5.4 79.15 5.45 79.2 5.1 79.35 M-4.9 1.5 L-5.35 1.6 -4.85 1.5 -4.9 1.5" fill="#cc9900" fill-rule="evenodd" stroke="none"/>
    <path d="M0.05 55.7 L0.2 55.6 Q1.2 55.7 1.8 56.65 2.55 57.9 2.65 59.25 L2.35 60.4 1.6 61.35 1.6 61.3 1.15 61.6 1.1 61.6 1.25 60.75 Q1.35 60.2 1.1 59.9 1.0 58.65 0.35 57.55 L-0.1 56.95 -0.25 56.65 -0.25 56.0 -0.15 55.85 0.05 55.7 M3.6 70.6 Q3.6 70.35 3.9 70.25 L4.15 70.15 Q5.7 70.9 5.85 72.65 6.1 75.85 3.3 77.45 2.7 77.8 2.35 77.45 L2.2 77.3 2.1 77.2 3.75 76.9 3.8 76.9 3.85 76.85 4.55 76.2 4.25 76.15 4.2 76.1 4.15 76.1 Q4.65 75.85 4.55 74.85 L4.55 74.8 4.55 74.65 4.55 74.55 4.55 74.45 Q4.55 74.05 4.8 73.9 L3.85 71.6 3.85 71.5 3.85 71.4 3.6 70.6 M1.5 7.3 L1.95 7.05 Q3.0 6.15 2.9 4.8 L2.95 4.65 Q3.6 5.2 3.45 6.4 3.25 7.95 1.9 8.7 1.35 9.05 1.0 8.55 L1.45 7.8 1.5 7.3 M8.5 26.7 L9.05 26.25 Q9.6 27.1 8.95 28.25 L8.35 29.1 8.2 29.35 7.15 29.3 7.3 29.15 7.35 29.1 7.55 28.5 7.9 27.1 8.5 26.7 M9.1 51.4 L9.65 51.1 Q9.2 52.85 7.7 54.1 7.25 54.5 6.6 54.35 L6.2 53.9 6.25 53.8 Q6.5 52.95 6.9 52.4 L7.15 52.15 7.15 52.1 7.2 52.05 Q7.9 51.4 8.85 51.6 L9.1 51.4 M7.9 50.85 L7.9 50.5 7.95 50.85 7.9 50.85 M13.5 66.15 L13.35 66.6 11.7 70.4 Q10.35 70.75 10.1 69.8 L10.75 68.35 10.95 68.1 Q11.4 67.7 12.0 67.9 L12.95 67.0 13.5 66.15 M6.75 81.45 L7.25 81.55 8.55 81.3 8.85 81.1 8.65 81.6 Q7.8 83.05 6.3 82.85 6.0 82.8 5.85 82.5 L5.8 82.2 6.55 81.65 6.75 81.45" fill="#cc6600" fill-rule="evenodd" stroke="none"/>
    <path d="M3.55 92.05 L4.55 91.9 4.65 91.9 4.7 91.85 5.5 90.95 5.05 89.05 Q4.65 87.85 4.05 87.15 L4.2 86.85 Q6.55 87.3 7.4 89.7 L7.55 91.3 7.55 91.35 5.7 93.05 5.55 94.65 5.5 95.05 Q5.2 95.55 4.6 95.55 3.55 95.0 3.2 94.35 L3.2 92.9 3.2 92.75 Q3.3 92.35 3.55 92.05 M15.65 27.65 Q15.45 29.45 15.85 30.7 L16.3 30.95 16.3 31.0 Q16.35 32.15 17.25 33.4 L17.85 34.05 19.05 35.35 20.0 36.7 19.9 36.85 19.45 37.5 18.75 37.25 Q18.35 37.1 18.1 36.8 17.3 36.0 16.2 35.85 L15.2 35.5 Q14.3 36.5 13.1 35.7 12.5 35.25 12.7 34.5 L13.05 33.05 13.0 32.75 Q11.9 30.95 13.45 29.85 13.7 29.65 14.0 29.55 14.7 28.45 15.65 27.65 M19.1 93.55 L18.75 93.6 18.5 92.3 18.1 91.55 Q17.65 91.0 17.55 90.3 17.45 89.5 18.2 89.4 20.7 90.3 20.8 92.75 L20.8 93.4 20.2 93.35 19.95 93.35 19.85 93.35 19.75 93.4 19.6 93.4 19.45 93.45 19.1 93.55 M27.4 89.35 Q28.6 85.0 25.55 81.45 25.05 80.85 25.0 80.35 25.85 80.2 26.75 79.15 L27.7 79.7 Q29.9 82.75 29.2 86.95 L27.55 89.4 27.4 89.35" fill="#9b4600" fill-rule="evenodd" stroke="none"/>
    <path d="M-2.9 23.05 L-3.1 23.1 -3.85 23.05 -2.9 21.35 -2.9 22.1 -2.9 23.05 M0.4 36.9 L0.55 37.0 -3.1 39.9 -3.2 39.15 Q-1.75 38.8 -0.3 37.55 L0.4 36.9" fill="#e68a00" fill-rule="evenodd" stroke="none"/>
    <path d="M0.2 88.7 L0.2 88.65 1.4 91.15 Q2.1 92.6 1.85 93.8 0.75 95.1 -1.65 95.3 L-3.6 95.4 -5.5 95.75 -8.1 96.0 -7.7 94.7 -7.0 94.95 -6.65 94.8 Q-4.7 92.05 -1.9 90.15 L-1.4 89.55 Q-0.75 88.15 -2.25 87.8 L-2.25 87.65 Q-1.25 87.45 0.1 89.0 L0.2 88.7 M5.15 53.65 Q4.3 52.85 4.3 51.75 L4.4 51.7 4.5 51.8 5.0 51.75 5.15 51.55 5.6 50.55 5.8 50.2 6.45 49.2 6.65 49.15 6.7 49.1 6.8 48.95 6.8 48.85 6.75 48.75 Q6.45 48.45 5.95 48.4 L5.9 48.45 5.1 49.05 5.1 49.0 5.7 47.35 Q6.25 47.35 7.05 48.15 L8.4 49.0 8.25 49.35 7.6 50.15 Q6.85 51.0 6.65 51.4 L6.0 52.6 5.45 53.9 5.15 53.65 M20.4 60.65 L20.45 61.25 19.6 60.25 19.85 60.1 20.0 59.8 19.35 58.1 19.0 57.3 Q18.75 56.2 17.85 55.8 L17.65 55.85 17.45 56.05 Q17.25 56.75 17.4 57.5 L16.6 56.95 16.5 56.9 Q16.15 56.65 16.4 56.25 L16.95 55.65 18.45 54.75 Q19.35 54.4 19.45 55.55 21.2 56.1 20.95 58.0 L20.55 59.65 20.4 60.65 M27.4 67.0 L27.85 67.35 27.6 67.15 27.25 67.1 Q26.65 67.3 26.25 67.85 26.05 68.2 26.3 68.5 26.8 69.15 27.8 68.85 L31.0 71.15 31.05 71.25 31.7 73.25 28.5 72.55 28.2 72.45 28.1 72.4 28.0 72.35 Q27.0 71.9 26.4 71.25 L26.25 71.05 25.7 70.05 Q25.3 69.25 25.8 68.2 L26.8 66.45 27.4 67.0 M7.2 67.2 Q7.2 67.95 7.65 68.4 L8.15 68.4 8.3 68.2 9.35 64.25 9.25 64.15 9.15 64.05 8.85 64.0 8.35 64.05 Q7.6 64.7 7.35 65.75 L7.3 65.7 Q7.5 64.5 7.95 63.75 9.85 63.75 11.55 64.4 L11.2 65.45 10.95 66.3 Q10.65 67.5 9.9 68.0 9.45 68.6 9.2 70.0 L8.9 69.75 7.2 68.1 7.2 67.2 M0.5 73.0 Q0.95 73.1 1.45 73.5 L2.7 74.7 Q2.1 75.6 1.15 76.0 L1.05 76.0 0.7 76.0 0.35 76.05 -1.5 76.4 0.9 74.6 0.95 74.5 Q1.65 73.45 0.45 73.2 L0.5 73.0 M7.8 92.2 L9.15 90.85 Q10.8 89.5 12.0 91.15 L9.9 94.8 7.55 98.3 Q6.7 97.7 6.75 95.95 L6.75 94.55 6.55 93.35 7.5 92.45 7.05 93.15 Q6.85 93.7 7.25 94.15 L7.6 94.25 Q9.3 93.55 10.7 92.3 L11.0 92.05 Q11.9 91.0 10.6 90.6 9.0 90.95 7.8 92.2 M11.75 93.3 L11.75 93.25 11.8 93.2 12.0 92.75 Q13.05 90.7 15.05 91.7 L15.85 93.45 Q16.1 94.35 15.85 95.35 15.2 96.2 13.5 97.05 11.75 97.85 11.15 98.75 L10.5 97.55 Q10.2 96.75 10.45 96.1 L10.8 95.5 10.9 95.4 11.05 95.6 11.7 95.6 13.1 94.75 14.8 93.65 Q15.9 92.85 14.65 92.3 13.1 92.45 11.75 93.3" fill="#a8a8a8" fill-rule="evenodd" stroke="none"/>
    <path d="M4.3 51.6 L4.45 50.75 5.05 49.05 5.1 49.05 5.9 48.45 5.95 48.4 Q6.45 48.45 6.75 48.75 L6.8 48.85 6.8 48.95 6.7 49.1 6.65 49.15 6.45 49.2 5.8 50.2 5.6 50.55 5.15 51.55 5.0 51.75 4.5 51.8 4.4 51.7 4.3 51.6 M19.6 60.25 L17.6 57.8 17.95 57.7 17.95 57.6 17.9 57.6 17.85 57.55 17.7 57.4 17.7 57.45 17.4 57.5 Q17.25 56.75 17.45 56.05 L17.65 55.85 17.85 55.8 Q18.75 56.2 19.0 57.3 L19.35 58.1 20.0 59.8 19.85 60.1 19.6 60.25 M27.85 67.35 L28.1 67.55 28.25 67.7 30.15 69.3 31.0 71.15 27.8 68.85 Q26.8 69.15 26.3 68.5 26.05 68.2 26.25 67.85 26.65 67.3 27.25 67.1 L27.6 67.15 27.85 67.35 M7.35 65.75 Q7.6 64.7 8.35 64.05 L8.85 64.0 9.15 64.05 9.25 64.15 9.35 64.25 8.3 68.2 8.15 68.4 7.65 68.4 Q7.2 67.95 7.2 67.2 L7.2 67.0 7.2 66.75 7.35 65.75 M0.45 73.2 Q1.65 73.45 0.95 74.5 L0.9 74.6 -1.5 76.4 -2.85 76.95 -0.65 73.85 0.45 73.2 M7.5 92.45 L7.55 92.4 7.65 92.3 7.8 92.2 Q9.0 90.95 10.6 90.6 11.9 91.0 11.0 92.05 L10.7 92.3 Q9.3 93.55 7.6 94.25 L7.25 94.15 Q6.85 93.7 7.05 93.15 L7.5 92.45 M-7.7 94.7 L-7.35 93.65 -6.45 91.05 -6.45 91.0 -6.4 90.95 -6.4 90.85 -4.9 88.85 -4.25 88.4 -3.3 88.0 -2.25 87.8 Q-0.75 88.15 -1.4 89.55 L-1.9 90.15 Q-4.7 92.05 -6.65 94.8 L-7.0 94.95 -7.7 94.7 M11.1 94.9 L11.15 94.75 11.2 94.65 11.25 94.55 11.3 94.4 11.6 93.65 11.75 93.3 Q13.1 92.45 14.65 92.3 15.9 92.85 14.8 93.65 L13.1 94.75 11.7 95.6 11.05 95.6 10.9 95.4 11.1 94.9" fill="#ffffff" fill-rule="evenodd" stroke="none"/>
    <path d="M4.05 87.15 L3.8 86.8 4.2 86.85 4.05 87.15 M27.25 89.75 L27.4 89.35 27.55 89.4 27.25 89.8 27.25 89.75" fill="#846300" fill-rule="evenodd" stroke="none"/>
  </g>
</svg>
