<?xml version="1.0" encoding="UTF-8" standalone="no"?>
<svg xmlns:xlink="http://www.w3.org/1999/xlink" height="94.4px" width="36.95px" xmlns="http://www.w3.org/2000/svg">
  <g transform="matrix(1.0, 0.0, 0.0, 1.0, 33.25, 11.3)">
    <path d="M0.75 48.1 L0.7 48.1 0.55 47.5 0.65 47.85 0.75 48.1 M-29.0 42.0 L-28.75 41.65 -28.9 41.9 -29.0 42.0 M-27.95 40.95 L-27.25 40.5 -27.15 40.45 -27.15 40.55 -27.3 40.55 -27.35 40.6 -27.95 40.95 M-10.85 42.55 L-10.8 42.55 -10.5 42.65 -10.85 42.55 M-19.7 35.4 L-19.65 35.5 -19.8 35.6 -20.2 35.9 -19.7 35.4 M-12.0 20.85 L-12.1 20.8 -11.95 20.7 -12.0 20.85 M-4.55 -1.45 L-4.75 -1.45 -4.5 -1.7 -4.55 -1.45 M-5.55 -3.15 L-5.45 -3.15 -5.45 -3.05 -5.55 -3.15 M-4.35 -3.75 L-4.35 -4.1 -4.35 -3.7 -4.35 -3.75 M-11.85 2.65 L-11.7 2.75 -11.85 2.8 -11.85 2.65 M-11.2 18.3 Q-11.0 18.5 -10.95 18.85 L-11.1 19.55 -11.1 19.6 -11.0 19.15 Q-10.9 18.65 -11.2 18.3 M-29.15 43.15 L-29.35 43.3 -29.35 43.1 -29.15 43.15 M-7.4 41.05 L-7.5 40.95 -7.4 41.0 -7.4 41.05 M-20.55 51.25 L-20.45 51.25 -20.55 51.6 -20.55 51.25 M-18.45 63.85 L-18.5 63.9 Q-18.75 64.4 -18.6 65.15 L-18.5 65.45 -18.75 65.15 Q-18.95 64.6 -18.55 63.95 L-18.45 63.85 M-3.95 72.15 L-4.0 72.2 -4.1 72.05 Q-4.0 72.05 -3.95 72.15" fill="#cc9900" fill-rule="evenodd" stroke="none"/>
    <path d="M-6.55 36.8 L-6.3 37.05 -6.45 37.1 Q-6.9 37.2 -7.15 37.45 L-6.6 36.7 -6.55 36.8 M-4.6 38.55 L-4.6 38.6 -4.65 38.6 -4.6 38.55 M-1.55 45.65 L-0.9 46.0 -0.45 46.1 -0.35 46.1 0.3 46.55 1.5 47.75 0.75 48.1 0.65 47.85 0.55 47.5 0.7 48.1 0.3 48.3 Q-0.15 48.55 -0.4 48.85 L-0.45 48.7 -0.5 48.5 -1.5 46.0 -1.55 45.75 -1.55 45.65 M-15.05 -2.65 L-16.0 -3.75 -14.35 -4.4 -15.05 -2.65 M-5.75 -3.35 L-6.1 -3.8 -6.05 -4.1 Q-5.75 -4.5 -5.2 -4.6 -4.25 -4.7 -4.0 -3.9 L-4.1 -3.85 -4.25 -3.6 -4.4 -3.3 Q-4.65 -2.55 -4.85 -2.35 L-5.45 -3.05 -5.45 -3.15 -5.55 -3.15 -5.75 -3.35 M-4.35 -3.75 L-4.35 -3.7 -4.35 -4.1 -4.35 -3.75 M-2.3 7.4 Q-2.15 8.25 -2.5 9.3 L-3.1 11.0 -4.1 9.6 -2.3 7.4 M-11.9 1.25 L-11.75 0.75 Q-11.6 0.35 -11.25 0.4 L-11.15 0.35 Q-10.75 0.3 -10.6 0.7 L-10.55 0.7 Q-10.0 1.2 -10.4 1.85 L-10.55 2.1 -10.75 2.4 -10.95 2.4 -11.2 2.5 -11.7 2.75 -11.85 2.65 -11.8 1.8 -11.8 1.7 -11.9 1.25 M-17.8 24.4 L-17.95 24.15 -17.95 23.95 -17.85 24.15 -18.5 22.5 -17.6 22.45 -16.7 22.4 -16.8 22.4 -16.7 22.25 -16.5 22.1 -16.45 22.2 -16.2 22.2 Q-16.1 22.55 -16.35 23.1 L-16.85 23.9 -17.45 24.3 -17.5 24.3 -17.65 24.35 -17.8 24.4 M-11.7 19.05 L-11.75 19.05 -12.3 19.6 -12.4 19.7 -12.6 19.9 -13.3 20.4 -13.3 19.7 -13.4 19.75 -13.5 18.8 -13.5 17.6 -12.05 18.75 -12.1 18.8 -11.7 19.05 M-8.25 24.15 Q-8.25 23.6 -8.0 23.6 -7.8 23.55 -7.55 24.05 L-8.25 24.15 M-13.55 29.1 L-13.8 29.15 -13.95 29.15 -14.15 28.9 -14.25 28.25 -14.25 28.15 -14.2 28.0 -14.15 27.7 -13.85 27.4 -12.2 27.95 Q-13.05 28.35 -13.55 29.1 M-14.2 28.0 L-14.05 27.75 -14.2 28.0 M-17.5 39.85 L-17.65 40.15 -18.1 41.5 -18.1 41.55 -18.15 41.5 Q-18.9 40.9 -19.25 40.0 -19.6 39.05 -19.4 38.05 L-18.1 37.95 -17.0 38.9 -17.5 39.85 M-15.45 65.25 L-15.65 66.5 Q-15.8 67.15 -16.3 67.45 L-16.35 67.3 Q-16.7 66.6 -17.4 66.2 L-18.05 65.8 -17.75 65.6 Q-17.5 65.1 -16.7 65.15 L-16.15 65.2 -15.65 65.15 -15.45 65.25 M-8.0 66.95 L-6.9 67.05 Q-6.6 67.15 -6.7 67.45 L-6.55 68.4 Q-6.5 68.8 -6.8 69.1 L-6.85 69.15 -6.75 69.0 -7.0 69.15 -7.0 69.2 -7.05 69.15 -7.3 69.1 -7.55 68.85 -7.8 68.55 -8.65 67.75 Q-9.05 67.45 -8.75 67.05 L-8.65 66.95 -8.0 66.95 M-26.85 67.05 L-27.95 68.65 Q-28.55 64.9 -27.4 59.7 -26.65 61.15 -25.45 65.6 L-26.85 67.05" fill="#cccccc" fill-rule="evenodd" stroke="none"/>
    <path d="M-7.85 -9.75 L-11.1 -7.7 -11.35 -7.5 -11.6 -7.25 Q-13.75 -4.3 -14.65 -0.25 -15.4 3.05 -15.45 7.75 L-15.45 8.25 Q-15.5 10.25 -17.2 12.45 L-18.85 14.4 -20.35 16.5 Q-20.7 16.85 -21.35 16.8 L-22.35 16.7 Q-22.3 18.1 -23.05 20.25 L-24.1 23.7 Q-25.0 25.45 -25.0 27.75 L-24.7 31.7 -24.7 31.75 -24.65 32.35 -24.6 35.55 Q-24.8 37.6 -25.95 39.25 L-25.8 39.3 -25.9 39.3 Q-26.3 39.35 -26.55 39.65 L-27.0 40.0 -27.35 40.55 -27.25 40.5 -27.95 40.95 -28.75 41.65 -29.0 42.0 -29.35 43.05 -29.75 43.4 -29.8 43.85 -29.5 44.35 -29.55 44.4 Q-30.45 45.75 -31.05 47.8 L-32.0 52.5 -32.1 53.35 -27.25 50.6 -26.3 50.9 -25.75 50.9 -26.05 50.95 -26.1 50.95 -26.55 51.35 Q-26.85 51.7 -26.75 52.1 L-26.85 52.6 Q-27.65 52.9 -27.75 53.8 L-27.8 55.05 -27.8 55.3 -27.6 56.1 -27.15 58.35 Q-25.3 61.75 -24.75 65.05 -23.7 67.6 -21.0 69.65 L-21.05 69.65 -20.5 70.0 -19.6 70.6 -19.5 70.55 -18.5 71.25 -18.45 71.5 Q-18.45 72.3 -18.95 73.1 L-19.5 73.8 -20.3 74.45 -21.1 74.8 -21.3 74.85 -21.8 75.0 -22.0 75.1 -22.2 75.3 -22.25 75.3 -22.25 75.95 -22.15 76.55 -19.6 76.3 -17.55 74.95 -17.05 74.6 Q-16.1 73.9 -15.45 73.7 L-15.4 73.7 Q-14.4 73.35 -13.35 73.7 L-13.05 73.8 -13.0 73.9 -12.9 74.2 -12.9 74.3 -12.9 74.4 -12.9 74.5 -12.95 75.65 -13.0 75.7 -13.1 76.1 -14.05 78.9 Q-14.25 79.45 -15.0 80.05 -15.75 80.6 -15.9 81.1 -16.45 82.05 -15.75 82.35 -14.3 82.15 -12.8 80.65 L-11.55 79.25 -10.3 77.95 -9.6 76.0 -8.55 74.15 -7.25 73.9 -6.15 73.45 -5.2 73.25 Q-4.7 73.3 -4.35 73.95 L-4.05 74.8 -3.95 75.05 -3.35 76.0 Q-2.6 76.55 -2.5 77.35 L-2.65 78.9 -2.9 80.5 Q-2.9 81.35 -2.3 81.95 L-2.25 82.0 -1.75 82.0 -1.65 81.95 -1.15 81.9 Q-0.4 78.55 -0.15 75.3 L-1.1 72.6 -1.15 72.45 -1.15 72.35 -1.25 71.95 -1.35 71.6 -1.45 70.95 -1.45 69.6 -1.15 68.8 -0.6 66.35 -0.25 62.95 -2.35 61.15 Q-1.75 60.85 -1.75 60.2 L-1.75 60.4 -2.6 59.5 Q-3.1 59.0 -3.7 58.65 L-3.85 58.3 -3.65 57.95 -3.55 57.75 Q-2.7 57.9 -2.0 58.55 L-1.1 59.55 0.45 60.8 Q2.35 62.05 2.9 62.95 L2.6 59.45 2.35 59.25 2.0 58.85 1.4 57.9 1.05 57.2 1.05 57.15 0.65 56.1 0.9 55.8 Q1.2 55.4 0.8 55.1 L0.7 53.8 0.75 53.45 0.55 52.15 0.05 51.3 -0.6 49.2 -0.4 48.85 Q-0.15 48.55 0.3 48.3 L0.7 48.1 0.75 48.1 1.5 47.75 0.3 46.55 -0.35 46.1 -0.45 46.1 -0.9 46.0 -1.55 45.65 -2.05 45.15 -3.0 43.45 Q-3.55 42.25 -4.05 41.8 -4.8 41.05 -5.9 41.1 L-6.0 41.15 -5.95 41.1 -6.45 40.95 -7.4 40.7 -8.25 40.5 -8.4 40.35 -8.45 40.3 -8.45 40.1 -8.35 39.9 -8.2 39.8 -7.95 39.8 -7.9 39.8 -7.95 39.9 -7.85 39.9 -7.4 39.9 -6.7 40.0 -6.3 40.1 -6.4 40.0 -5.65 40.1 -3.0 40.25 -4.6 38.6 -4.6 38.55 -4.75 38.45 -6.3 37.05 -6.55 36.8 -6.5 36.6 Q-6.15 35.7 -6.95 35.65 L-8.05 34.7 -9.55 34.1 -12.4 33.1 -12.4 33.0 -12.4 32.9 Q-12.4 32.15 -11.9 31.25 L-11.9 31.15 -11.2 29.3 Q-9.75 26.35 -9.25 22.2 -8.95 19.7 -8.9 14.6 -8.25 12.5 -5.4 9.2 L-3.25 6.6 -2.2 4.95 -1.7 3.8 Q-0.9 1.95 -0.5 0.15 L-0.4 -0.15 -0.3 -0.7 -0.1 -2.15 -0.1 -2.3 -0.05 -2.65 -0.15 -5.1 -0.15 -5.15 Q-0.5 -7.4 -1.8 -9.0 -3.85 -10.9 -6.9 -10.05 L-7.85 -9.75 M-11.0 -10.1 Q-10.3 -10.6 -8.75 -10.7 -7.2 -10.85 -6.45 -11.3 -1.4 -11.3 0.2 -8.2 3.55 -2.7 -2.0 6.65 -1.2 9.15 -3.1 11.8 L-3.85 11.0 Q-4.15 10.15 -4.4 9.95 L-5.85 11.45 -7.2 13.0 Q-8.55 14.9 -7.7 16.8 -7.4 17.65 -7.55 18.85 L-7.95 20.85 Q-8.15 22.0 -7.9 22.75 -7.6 23.7 -6.45 24.35 L-6.45 24.6 Q-8.35 24.0 -9.05 25.95 L-9.5 27.75 -10.2 29.3 -10.5 30.85 Q-10.6 31.8 -11.0 32.35 L-8.9 33.05 Q-7.65 33.5 -6.95 34.1 L-6.25 35.15 Q-5.9 35.75 -5.85 36.25 -2.5 39.4 -1.55 40.8 L-1.55 41.3 Q-1.85 41.0 -2.3 41.05 L-3.2 41.1 Q-1.6 43.85 -1.15 45.25 0.1 45.3 1.2 46.35 L2.9 48.45 2.9 48.75 2.85 49.0 Q1.85 48.4 0.95 48.75 0.2 49.35 0.5 50.5 L0.85 51.5 0.95 52.5 Q1.65 53.2 1.65 54.45 L1.75 56.65 Q3.1 57.6 3.35 59.9 L3.5 61.8 3.7 63.6 3.5 63.95 3.25 64.15 2.05 63.35 0.95 62.4 Q0.6 67.05 -0.45 69.45 0.1 72.75 0.95 74.35 L0.45 78.1 -0.25 81.8 Q-0.35 82.7 -1.25 82.7 L-2.05 82.65 -2.8 82.9 Q-3.7 81.6 -3.75 80.4 L-3.2 77.5 Q-5.15 75.7 -5.3 74.0 L-6.85 74.6 Q-7.9 74.9 -8.1 75.45 -8.5 77.45 -10.2 79.3 L-13.7 82.45 -15.05 82.85 -16.3 83.1 Q-16.75 82.85 -16.85 82.25 L-17.0 81.35 Q-17.1 80.65 -16.7 80.15 L-15.75 79.4 -14.85 78.6 Q-14.5 78.1 -14.6 77.4 L-13.8 74.45 Q-14.1 74.15 -14.6 74.25 L-15.45 74.45 Q-16.15 76.0 -18.25 76.65 L-20.05 77.1 -21.8 77.65 Q-22.2 77.55 -23.1 76.85 -23.25 76.3 -23.0 75.6 L-22.7 74.45 -20.9 73.35 Q-19.85 72.75 -19.5 71.8 L-22.65 69.75 Q-24.15 68.45 -24.75 66.7 L-25.05 66.35 Q-25.9 66.8 -26.8 68.35 -27.7 69.9 -28.5 70.3 -29.0 69.15 -28.95 67.25 L-28.8 64.05 -28.6 62.3 -28.2 60.45 Q-27.75 58.2 -28.5 56.95 L-28.75 54.7 Q-28.9 53.4 -28.55 52.5 L-28.8 52.25 -30.8 53.6 -32.65 55.1 -33.05 54.95 -33.25 54.55 Q-33.1 50.4 -30.75 45.25 -30.15 44.75 -30.25 43.7 -30.45 42.4 -30.1 41.95 -28.9 40.1 -27.15 39.55 -26.15 38.4 -25.85 37.0 -25.65 35.9 -25.75 34.3 L-26.05 31.4 Q-26.15 29.7 -25.85 28.45 L-27.05 24.9 Q-26.8 24.3 -26.2 24.6 L-25.3 25.15 -24.0 20.7 Q-23.35 18.1 -23.25 16.15 -22.9 15.6 -22.4 15.75 L-21.35 15.85 -19.6 13.8 -17.7 11.65 Q-15.6 8.9 -16.2 6.35 L-17.3 5.8 -18.2 5.0 Q-17.95 4.45 -17.3 4.05 L-16.2 3.3 -15.2 -2.1 Q-15.75 -2.15 -16.15 -2.75 L-16.75 -3.65 Q-16.05 -4.75 -14.05 -4.95 L-12.45 -7.2 -10.65 -9.3 -10.95 -9.65 -11.0 -10.1 M-12.25 3.35 L-12.4 3.35 -12.35 3.2 -12.25 3.35 M-23.55 40.2 L-23.35 40.3 -23.9 40.1 -23.55 40.2 M-17.6 42.15 L-18.1 42.95 -18.15 42.9 -18.4 42.7 -18.4 42.65 -18.15 41.5 -18.1 41.55 -18.1 41.5 -18.05 41.2 -17.75 40.35 -17.65 40.15 -17.5 39.85 -17.15 39.65 Q-16.95 39.65 -16.85 39.85 L-16.85 39.9 Q-16.9 40.4 -17.1 40.9 L-17.35 41.65 -17.35 41.7 -17.6 42.15 M-15.05 -2.65 L-14.35 -4.4 -16.0 -3.75 -15.05 -2.65 M-2.3 7.4 L-4.1 9.6 -3.1 11.0 -2.5 9.3 Q-2.15 8.25 -2.3 7.4 M-17.4 4.9 L-16.3 5.55 -16.3 3.9 -16.95 4.35 Q-17.4 4.5 -17.4 4.9 M-8.25 24.15 L-7.55 24.05 Q-7.8 23.55 -8.0 23.6 -8.25 23.6 -8.25 24.15 M-25.6 40.8 L-25.45 40.7 -25.25 40.8 -24.95 40.95 -25.6 40.8 M-22.3 44.65 L-22.35 44.6 -22.3 44.65 M-14.2 28.0 L-14.05 27.75 -14.2 28.0 M-14.05 58.95 L-14.45 60.4 -14.5 60.5 -14.7 61.35 -15.05 61.35 -15.35 60.9 -15.0 59.6 -14.9 59.7 Q-14.2 57.5 -14.0 56.3 L-13.65 55.8 -13.55 55.7 Q-13.15 55.85 -13.3 56.2 L-13.35 56.25 -14.05 58.95 M-3.5 58.9 L-3.7 58.65 -3.5 58.85 -3.5 58.9 M-14.45 49.65 L-14.45 49.75 -13.9 49.8 -14.6 49.75 -14.5 49.7 -14.45 49.65 M-16.45 68.75 L-16.75 68.0 -16.35 67.3 -16.3 67.45 Q-15.8 67.15 -15.65 66.5 L-15.6 66.1 -15.3 65.85 -15.1 66.05 -15.05 66.05 -15.1 66.25 -15.15 66.3 Q-15.3 67.0 -15.75 67.6 L-16.05 68.05 -16.45 68.75 M-10.8 72.4 L-10.35 72.45 Q-9.7 72.65 -9.65 73.25 L-10.65 73.45 -11.75 73.15 Q-12.1 72.95 -11.85 72.7 L-11.55 72.25 -10.8 72.4 M-4.2 71.95 Q-4.2 71.25 -3.55 70.95 L-2.3 70.85 Q-2.25 71.3 -2.95 71.5 -3.8 71.75 -3.95 72.15 -4.0 72.05 -4.1 72.05 L-4.2 71.95 M-26.85 67.05 L-25.45 65.6 Q-26.65 61.15 -27.4 59.7 -28.55 64.9 -27.95 68.65 L-26.85 67.05" fill="#000000" fill-rule="evenodd" stroke="none"/>
    <path d="M-6.95 35.65 Q-6.15 35.7 -6.5 36.6 L-6.55 36.8 -6.6 36.7 -7.15 37.45 -7.25 37.7 -7.3 37.75 -7.35 37.9 -7.45 38.25 -7.9 39.8 -7.95 39.8 -8.2 39.8 -8.35 39.9 -8.45 40.1 -8.45 40.3 -8.4 40.35 -8.65 40.15 -9.0 39.35 -9.0 39.3 Q-8.85 37.1 -6.95 35.65 M-6.4 40.0 L-6.3 40.1 -6.7 40.0 -7.4 39.9 -6.4 40.0 M-8.25 40.5 L-7.4 40.7 -6.45 40.95 -5.95 41.1 -6.0 41.15 -6.15 41.4 -6.55 41.75 -6.65 41.85 -7.45 42.4 -8.5 42.8 -9.55 42.75 -9.55 42.7 -8.75 42.1 -7.4 41.05 -7.4 41.0 -7.5 40.95 -8.25 40.5 M0.05 51.3 L0.55 52.15 0.75 53.45 0.7 53.8 0.55 53.5 0.45 53.4 0.4 53.35 Q-0.55 52.5 -1.5 52.05 L-2.2 51.75 -2.9 51.6 -3.0 51.6 -3.0 51.4 -3.0 51.35 -2.85 51.15 Q-2.55 50.85 -2.0 50.8 L-1.4 50.85 0.1 51.4 0.05 51.25 0.05 51.3 M0.8 55.1 Q1.2 55.4 0.9 55.8 L0.65 56.1 -0.55 56.05 -1.7 56.2 -1.8 56.2 -1.7 56.3 -2.3 56.95 Q-2.65 57.75 -2.0 58.5 L-2.0 58.55 Q-2.7 57.9 -3.55 57.75 L-3.4 57.5 -2.9 56.55 Q-2.35 55.5 -1.8 55.0 L-1.35 54.85 -1.15 54.8 -0.65 54.8 -0.5 54.8 0.8 55.1 M-3.7 58.65 Q-3.1 59.0 -2.6 59.5 L-1.75 60.4 -1.75 60.2 Q-1.75 60.85 -2.35 61.15 L-2.65 60.85 -2.7 60.9 Q-3.6 61.5 -4.5 61.3 L-4.75 61.25 Q-6.25 60.5 -6.7 59.45 L-6.25 58.9 -6.2 58.9 -5.75 59.3 Q-4.95 60.4 -4.4 60.35 L-3.3 60.35 -2.25 60.0 -3.1 59.2 -3.5 58.9 -3.5 58.85 -3.7 58.65 M-26.85 52.6 L-26.75 52.1 Q-26.85 51.7 -26.55 51.35 L-26.1 50.95 -26.05 50.95 -25.75 50.9 -25.6 50.85 -25.5 50.75 -25.45 50.7 Q-25.25 48.4 -25.95 44.15 L-26.3 43.5 -28.0 43.55 -29.5 44.35 -29.8 43.85 -29.75 43.4 -29.35 43.05 -29.35 43.1 -29.35 43.3 -29.15 43.15 Q-27.9 42.15 -25.5 42.95 -24.8 44.2 -24.5 45.5 -24.15 46.95 -24.35 48.5 L-24.45 50.25 Q-24.6 51.25 -25.05 51.8 L-25.65 51.8 -26.05 52.05 -25.6 52.65 -24.75 53.1 -24.6 53.15 Q-24.5 53.15 -24.45 53.25 L-24.45 53.3 -24.65 53.6 -24.65 53.65 Q-26.4 53.55 -26.85 52.6 M-27.25 40.5 L-27.35 40.55 -27.0 40.0 -26.55 39.65 Q-26.3 39.35 -25.9 39.3 L-25.8 39.3 -25.75 39.3 -25.3 39.5 -25.15 39.6 -24.5 39.85 -24.15 40.0 -23.9 40.1 -23.35 40.3 -23.2 40.85 -23.1 41.6 -23.2 42.15 -23.35 42.45 -23.65 42.65 -23.8 42.45 -23.8 42.2 Q-24.0 41.25 -24.95 40.95 L-25.25 40.8 -25.45 40.7 -25.6 40.8 -25.65 40.8 -25.85 40.8 -26.6 40.75 Q-27.05 40.85 -27.15 40.55 L-27.15 40.45 -27.25 40.5 M-10.9 2.9 Q-11.5 3.35 -12.25 3.35 L-12.35 3.2 -12.3 2.3 -12.3 2.1 -12.15 0.85 -11.9 1.25 -11.8 1.7 -11.8 1.8 -11.85 2.65 -11.85 2.8 -11.7 2.75 -11.2 2.5 -10.95 2.4 -10.55 2.5 -10.9 2.9 M-18.4 42.65 Q-19.15 41.95 -19.55 40.8 L-20.05 39.15 -20.3 38.35 Q-20.2 37.85 -19.6 37.65 L-18.65 37.25 Q-17.85 37.35 -17.25 37.9 L-16.7 38.6 -16.75 40.1 Q-15.85 40.45 -15.15 38.8 -14.8 38.05 -15.3 37.2 L-16.2 35.7 Q-15.4 35.9 -14.6 37.25 -14.2 38.45 -15.15 39.9 L-15.15 39.95 -16.85 40.85 -17.35 41.65 -17.1 40.9 Q-16.9 40.4 -16.85 39.9 L-16.85 39.85 Q-16.95 39.65 -17.15 39.65 L-17.5 39.85 -17.0 38.9 -18.1 37.95 -19.4 38.05 Q-19.6 39.05 -19.25 40.0 -18.9 40.9 -18.15 41.5 L-18.4 42.65 M-14.0 19.15 L-13.7 17.05 Q-13.1 17.3 -12.5 17.95 L-12.35 18.1 -12.05 18.45 -11.8 18.65 -11.55 18.9 -11.65 18.95 -11.7 19.0 -11.7 19.05 -12.1 18.8 -12.05 18.75 -13.5 17.6 -13.5 18.8 -13.4 19.75 -13.3 19.7 -13.3 20.4 -13.95 20.4 -14.0 19.6 -14.0 19.15 M-4.75 -1.45 Q-5.2 -1.6 -5.4 -2.25 L-5.8 -3.1 -5.9 -3.3 -6.4 -3.85 -6.3 -3.95 -5.75 -3.35 -5.55 -3.15 -5.45 -3.05 -4.85 -2.35 Q-4.65 -2.55 -4.4 -3.3 L-4.25 -3.6 -4.1 -3.85 -4.0 -3.9 -4.0 -3.95 -3.75 -4.05 Q-3.5 -3.55 -3.7 -2.95 L-3.85 -2.6 -4.05 -2.3 -4.5 -1.75 -4.5 -1.7 -4.75 -1.45 M-10.0 1.25 L-10.85 0.3 Q-10.15 0.25 -9.9 0.95 L-10.0 1.25 M-18.55 23.75 L-18.75 23.3 -19.05 22.05 -17.6 21.85 -17.1 21.8 -16.9 21.85 -16.5 22.1 -16.7 22.25 -16.8 22.4 -16.7 22.4 -17.6 22.45 -18.5 22.5 -17.85 24.15 -17.95 23.95 -17.95 24.15 -17.8 24.4 -18.1 24.35 -18.2 24.2 -18.25 24.15 -18.55 23.75 M-13.05 27.15 L-11.95 27.5 -11.85 27.7 -11.85 27.75 -11.7 27.8 Q-11.3 28.15 -11.85 28.45 L-12.05 28.55 -12.7 29.05 -12.95 29.05 -13.3 29.25 -13.55 29.35 -13.6 29.3 -13.6 29.15 -13.55 29.1 Q-13.05 28.35 -12.2 27.95 L-13.85 27.4 -13.95 27.35 Q-13.8 27.15 -13.55 27.1 L-13.05 27.15 M-17.65 40.15 L-17.75 40.35 -18.05 41.2 -18.1 41.5 -17.65 40.15 M-13.35 49.4 Q-12.9 49.45 -12.45 49.8 L-11.6 50.6 -10.85 51.5 Q-10.7 52.85 -11.25 53.95 L-11.35 54.1 -11.4 54.2 -13.25 56.4 -14.0 58.85 -14.05 58.95 -13.35 56.25 -13.3 56.2 Q-13.15 55.85 -13.55 55.7 L-13.65 55.8 -14.0 56.3 -13.95 55.75 Q-13.35 55.2 -13.55 54.3 L-14.05 52.8 Q-14.4 51.75 -15.55 51.7 L-17.55 51.95 Q-18.95 52.85 -18.4 55.55 L-17.85 56.2 -17.85 56.25 -15.7 58.75 -15.0 59.6 -15.35 60.9 Q-18.1 56.95 -20.6 55.85 -21.25 54.7 -21.15 52.95 -21.1 51.45 -20.5 50.05 L-20.55 51.25 -20.55 51.6 -20.55 52.8 -20.5 53.55 -20.45 53.85 -20.2 54.6 -19.85 55.25 -19.8 55.3 -19.5 55.3 -19.45 54.9 -19.3 53.8 -19.25 53.5 -19.2 53.1 -19.2 53.0 Q-19.0 51.65 -18.3 51.25 L-16.95 50.65 Q-16.05 50.4 -15.45 50.95 L-14.25 51.1 Q-13.6 51.2 -13.4 51.8 L-13.4 51.95 -13.05 53.5 Q-12.85 54.45 -12.95 55.1 -12.25 54.95 -11.9 54.1 L-11.55 52.6 -11.55 52.55 -11.55 52.5 -11.6 52.2 -11.8 51.65 -12.15 50.75 -12.4 50.35 Q-12.8 49.75 -13.35 49.4 M-14.5 60.5 L-14.6 61.35 -14.7 61.35 -14.5 60.5 M-13.55 64.4 L-13.5 64.2 -13.5 63.95 -13.15 63.95 -13.25 64.65 -13.5 65.3 -14.0 66.0 -14.15 66.15 Q-14.9 66.25 -15.35 67.15 L-15.4 67.3 Q-16.0 68.5 -16.45 68.75 L-16.05 68.05 -15.75 67.6 Q-15.3 67.0 -15.15 66.3 L-15.1 66.25 -15.05 66.05 -15.1 66.05 -15.3 65.85 -15.6 66.1 -15.65 66.5 -15.45 65.25 -15.2 65.8 Q-14.95 66.05 -14.65 65.8 -13.8 65.55 -13.6 64.7 L-13.55 64.4 M-16.75 68.0 L-17.25 67.4 -18.6 66.45 -19.6 65.35 Q-19.85 64.65 -19.2 63.75 L-18.55 63.35 Q-18.15 63.05 -17.85 63.05 L-18.0 63.25 -18.45 63.85 -18.55 63.95 Q-18.95 64.6 -18.75 65.15 L-18.5 65.45 -18.05 65.8 -17.4 66.2 Q-16.7 66.6 -16.35 67.3 L-16.75 68.0 M-10.5 66.5 L-10.25 66.75 -10.2 66.8 -10.15 66.85 -10.0 67.05 -9.95 67.05 -9.75 67.1 -9.7 67.05 -9.2 66.75 -9.0 66.7 -8.95 66.65 Q-8.55 66.45 -8.5 66.15 L-6.45 66.1 Q-5.4 65.55 -5.75 64.3 -5.3 64.25 -5.3 65.25 -5.05 66.5 -6.3 67.55 L-6.4 69.0 -6.7 70.55 Q-8.45 68.4 -10.75 66.8 L-10.75 66.5 -10.5 66.5 M-17.75 65.6 Q-18.0 65.15 -17.0 64.7 L-16.3 64.8 -15.8 65.0 -15.75 65.05 -15.65 65.15 -16.15 65.2 -16.7 65.15 Q-17.5 65.1 -17.75 65.6 M-8.0 66.95 L-8.65 66.95 -8.75 67.05 Q-9.05 67.45 -8.65 67.75 L-7.8 68.55 -7.55 68.85 -7.3 69.1 -7.05 69.15 -7.0 69.2 -7.0 69.15 -6.75 69.0 -6.85 69.15 -6.8 69.1 Q-6.5 68.8 -6.55 68.4 L-6.7 67.45 Q-6.6 67.15 -6.9 67.05 L-8.0 66.95" fill="#793600" fill-rule="evenodd" stroke="none"/>
    <path d="M-11.9 31.25 Q-12.4 32.15 -12.4 32.9 L-12.4 33.0 -12.4 33.1 -9.55 34.1 -8.05 34.7 -8.85 34.7 -10.25 35.9 Q-11.75 35.45 -12.95 34.3 -13.45 33.8 -13.4 33.1 -13.25 31.7 -12.0 31.2 L-11.9 31.25 M-6.0 41.15 L-5.9 41.1 Q-4.8 41.05 -4.05 41.8 -3.55 42.25 -3.0 43.45 L-2.05 45.15 -1.55 45.65 -1.55 45.75 -1.5 46.0 -0.5 48.5 -0.45 48.7 -0.4 48.85 -0.6 49.2 0.05 51.3 0.05 51.25 0.1 51.4 -1.4 50.85 -2.0 50.8 Q-3.0 46.85 -5.5 43.45 L-6.55 41.8 -6.55 41.75 -6.15 41.4 -6.0 41.15 M-2.35 61.15 L-0.25 62.95 -0.6 66.35 -1.15 68.8 -2.4 68.7 Q-3.65 69.05 -4.25 70.25 -4.75 71.15 -4.2 71.95 L-4.1 72.05 -4.0 72.2 -3.9 72.3 -5.2 73.25 -6.15 73.45 -7.25 73.9 -7.1 73.45 -7.1 72.95 -7.15 72.75 -7.55 72.05 -8.1 71.55 Q-6.75 71.35 -5.35 70.7 L-4.2 68.35 -2.35 65.15 -2.35 64.95 -2.35 64.8 -2.35 64.45 Q-3.9 63.85 -4.45 62.35 L-4.5 61.3 Q-3.6 61.5 -2.7 60.9 L-2.65 60.85 -2.35 61.15 M-12.9 74.2 L-13.0 73.9 -13.05 73.8 -13.35 73.7 -13.3 73.6 Q-13.0 73.3 -13.05 72.85 L-13.1 72.6 -13.25 72.1 -13.5 71.75 Q-12.3 71.1 -10.8 71.4 L-10.1 71.55 -10.8 72.35 -10.8 72.4 -11.55 72.25 -11.85 72.7 Q-12.1 72.95 -11.75 73.15 L-10.65 73.45 -10.95 73.35 -10.85 74.05 -10.75 74.35 -12.8 74.2 -12.9 74.2" fill="#9b4600" fill-rule="evenodd" stroke="none"/>
    <path d="M-8.05 34.7 L-6.95 35.65 Q-8.85 37.1 -9.0 39.3 L-9.0 39.35 -8.65 40.15 -8.4 40.35 -8.25 40.5 -7.5 40.95 -7.4 41.05 -8.75 42.1 -9.35 41.7 -9.9 41.0 -10.75 39.65 -10.9 39.2 -11.05 38.95 -11.05 38.9 -11.1 38.85 -11.25 38.3 -11.05 37.3 -10.6 36.4 -10.25 35.9 -8.85 34.7 -8.05 34.7 M0.7 53.8 L0.8 55.1 -0.5 54.8 -0.65 54.8 -1.15 54.8 -1.25 54.55 -1.35 54.85 -1.8 55.0 Q-2.35 55.5 -2.9 56.55 L-3.4 57.5 -3.55 57.75 -3.65 57.95 -3.85 58.3 -3.7 58.65 -3.5 58.9 -3.1 59.2 -2.25 60.0 -3.3 60.35 -4.4 60.35 Q-4.95 60.4 -5.75 59.3 L-6.2 58.9 -6.25 58.9 -6.2 57.15 -6.0 56.35 -5.7 57.05 -6.0 56.4 -6.05 55.4 Q-5.95 54.25 -5.25 53.25 L-3.65 51.65 -3.0 51.4 -3.0 51.6 -2.9 51.6 -2.2 51.75 -1.5 52.05 Q-0.55 52.5 0.4 53.35 L0.45 53.4 0.55 53.5 0.7 53.8 M-27.6 56.1 L-27.8 55.3 -27.8 55.05 -27.75 55.35 -27.6 56.1 M-24.65 32.35 L-24.7 31.75 -24.7 31.85 -24.5 32.65 -24.6 32.25 -24.65 32.35 M-9.95 67.05 L-10.0 67.05 -10.15 66.85 -10.2 66.8 -10.25 66.75 -10.5 66.5 -10.6 66.1 -9.6 64.7 -9.25 64.05 -8.15 63.7 -7.6 63.65 Q-6.45 63.55 -5.75 64.3 -5.4 65.55 -6.45 66.1 L-8.5 66.15 Q-8.55 66.45 -8.95 66.65 L-9.0 66.7 -9.2 66.75 -9.7 67.05 -9.95 67.05" fill="#e68a00" fill-rule="evenodd" stroke="none"/>
    <path d="M-4.6 38.6 L-3.0 40.25 -5.65 40.1 -6.4 40.0 -7.4 39.9 -7.85 39.9 -7.95 39.9 -7.9 39.8 -7.45 38.25 -7.35 37.9 -7.2 38.1 -5.55 38.35 -5.45 38.45 -4.65 38.6 -4.6 38.6 M0.65 56.1 L1.05 57.15 -0.25 56.35 -0.55 56.4 -1.05 56.7 -1.0 57.05 0.05 58.1 0.5 58.7 Q1.15 59.6 2.05 59.65 L2.25 59.35 2.35 59.25 2.6 59.45 2.9 62.95 Q2.35 62.05 0.45 60.8 L-1.1 59.55 -2.0 58.55 -2.0 58.5 Q-2.65 57.75 -2.3 56.95 L-1.7 56.3 -1.7 56.2 -0.55 56.05 0.65 56.1 M-25.75 50.9 L-26.3 50.9 -27.25 50.6 -32.1 53.35 -32.0 52.5 -31.65 52.5 -31.4 52.3 -31.15 51.85 Q-29.8 48.35 -27.15 45.75 -26.2 44.85 -27.4 44.4 -28.85 44.85 -29.85 46.1 L-30.7 47.25 -31.05 47.8 Q-30.45 45.75 -29.55 44.4 L-29.5 44.35 -28.0 43.55 -26.3 43.5 -25.95 44.15 Q-25.25 48.4 -25.45 50.7 L-25.5 50.75 -25.6 50.85 -25.75 50.9 M-17.4 4.9 Q-17.4 4.5 -16.95 4.35 L-16.3 3.9 -16.3 5.55 -17.4 4.9 M-17.85 56.2 L-18.4 55.55 Q-18.95 52.85 -17.55 51.95 L-15.55 51.7 Q-14.4 51.75 -14.05 52.8 L-13.55 54.3 Q-13.35 55.2 -13.95 55.75 L-14.0 56.3 Q-14.2 57.5 -14.9 59.7 L-15.0 59.6 -15.7 58.75 Q-15.15 58.65 -15.5 57.65 L-16.05 55.95 -17.5 52.85 -17.85 52.8 -18.0 53.0 Q-18.3 54.7 -17.85 56.2" fill="#a8a8a8" fill-rule="evenodd" stroke="none"/>
    <path d="M-6.3 37.05 L-4.75 38.45 -4.6 38.55 -4.65 38.6 -5.45 38.45 -5.55 38.35 -7.2 38.1 -7.35 37.9 -7.3 37.75 -7.25 37.7 -7.15 37.45 Q-6.9 37.2 -6.45 37.1 L-6.3 37.05 M1.05 57.15 L1.05 57.2 1.4 57.9 2.0 58.85 2.35 59.25 2.25 59.35 2.05 59.65 Q1.15 59.6 0.5 58.7 L0.05 58.1 -1.0 57.05 -1.05 56.7 -0.55 56.4 -0.25 56.35 1.05 57.15 M-32.0 52.5 L-31.05 47.8 -30.7 47.25 -29.85 46.1 Q-28.85 44.85 -27.4 44.4 -26.2 44.85 -27.15 45.75 -29.8 48.35 -31.15 51.85 L-31.4 52.3 -31.65 52.5 -32.0 52.5 M-1.7 56.3 L-1.8 56.2 -1.7 56.2 -1.7 56.3 M-17.85 56.2 Q-18.3 54.7 -18.0 53.0 L-17.85 52.8 -17.5 52.85 -16.05 55.95 -15.5 57.65 Q-15.15 58.65 -15.7 58.75 L-17.85 56.25 -17.85 56.2" fill="#ffffff" fill-rule="evenodd" stroke="none"/>
    <path d="M-24.7 31.75 L-24.7 31.7 -25.0 27.75 Q-25.0 25.45 -24.1 23.7 L-23.05 20.25 Q-22.3 18.1 -22.35 16.7 L-21.35 16.8 Q-20.7 16.85 -20.35 16.5 L-18.85 14.4 -17.2 12.45 Q-15.5 10.25 -15.45 8.25 L-15.45 7.75 Q-15.4 3.05 -14.65 -0.25 -13.75 -4.3 -11.6 -7.25 L-11.35 -7.5 -11.1 -7.7 -7.85 -9.75 Q-6.7 -8.3 -8.4 -6.85 -9.7 -5.75 -10.6 -4.3 -11.65 -2.3 -12.15 -0.15 L-12.15 -0.1 -12.3 0.05 -12.4 0.2 -12.45 0.2 -12.7 0.65 Q-12.95 1.35 -12.55 1.95 L-12.5 2.0 Q-12.75 3.75 -12.6 5.6 -12.5 6.7 -13.15 7.6 L-14.0 8.4 -13.65 8.2 Q-13.4 11.2 -15.3 13.45 L-18.95 17.45 Q-21.55 20.1 -22.35 23.6 L-22.55 25.2 Q-22.55 27.25 -22.7 29.3 L-22.65 31.4 -22.65 32.4 Q-21.8 33.1 -21.85 34.6 -21.85 37.7 -23.55 40.2 L-23.9 40.1 -24.15 40.0 -24.5 39.85 -25.15 39.6 -25.3 39.5 -25.75 39.3 -25.8 39.3 -25.95 39.25 Q-24.8 37.6 -24.6 35.55 L-24.65 32.35 -24.6 32.25 -24.5 32.65 -24.7 31.85 -24.7 31.75 M-21.0 69.65 Q-23.7 67.6 -24.75 65.05 -25.3 61.75 -27.15 58.35 L-27.6 56.1 -27.75 55.35 -27.8 55.05 -27.75 53.8 Q-27.65 52.9 -26.85 52.6 -26.4 53.55 -24.65 53.65 L-24.65 53.6 -24.55 53.5 Q-23.8 54.4 -23.9 55.95 L-23.95 57.05 Q-24.0 60.85 -22.8 64.35 L-22.0 65.85 -18.95 69.7 -19.5 69.65 -21.0 69.65" fill="#e6a233" fill-rule="evenodd" stroke="none"/>
    <path d="M-7.85 -9.75 L-6.9 -10.05 -4.8 -8.55 -4.4 -6.25 -4.35 -5.85 -4.35 -5.55 -6.1 -5.9 Q-6.8 -5.7 -7.3 -5.15 L-7.5 -4.8 Q-7.7 -3.85 -6.9 -3.2 L-6.8 -3.1 -5.9 -3.1 -5.8 -3.1 -5.4 -2.25 Q-5.2 -1.6 -4.75 -1.45 L-4.55 -1.45 Q-4.95 1.3 -6.05 3.95 L-7.1 5.4 -8.1 6.5 -8.85 7.1 Q-10.15 7.85 -11.15 8.95 L-11.3 9.15 -12.0 10.3 -12.3 11.2 -12.45 12.8 -12.15 14.7 -12.1 14.8 -11.95 18.0 -12.25 18.0 -12.35 18.1 -12.5 17.95 Q-13.1 17.3 -13.7 17.05 L-14.0 19.15 -14.05 19.2 Q-14.7 19.85 -14.65 20.7 L-14.55 21.0 Q-13.9 21.7 -12.95 21.25 L-12.1 20.8 -12.0 20.85 Q-12.35 23.65 -13.05 26.4 L-13.5 26.3 Q-14.15 26.45 -14.65 26.95 L-15.3 27.7 -15.5 28.4 Q-15.6 29.45 -14.8 30.0 L-17.35 30.4 -17.6 30.45 -18.45 30.6 -18.6 30.6 Q-20.5 30.55 -21.6 31.55 -22.1 32.1 -22.05 32.7 L-22.0 33.0 -21.7 32.8 -21.65 33.05 -21.55 33.1 Q-19.35 32.85 -17.4 33.55 L-16.35 34.0 -16.7 33.75 -15.9 34.4 -17.4 34.35 -17.75 34.4 Q-18.6 34.55 -18.9 35.2 L-19.65 35.5 -19.7 35.4 -19.25 35.25 -19.85 35.35 -20.6 35.85 -21.35 37.25 Q-21.7 38.1 -21.15 38.7 L-21.05 38.5 -20.75 39.0 Q-20.55 39.3 -20.2 39.2 L-20.05 39.15 -19.55 40.8 Q-19.15 41.95 -18.4 42.65 L-18.4 42.7 -18.15 42.9 -18.1 42.95 -17.6 42.15 -16.25 42.2 -16.2 42.15 -15.75 42.15 Q-13.4 40.7 -13.3 38.4 L-12.05 40.15 -11.7 40.65 -11.7 40.6 -11.45 41.15 -10.85 42.5 -10.8 42.55 -10.85 42.55 Q-9.2 46.45 -7.95 50.5 -7.1 53.25 -7.45 56.2 -7.8 59.4 -8.7 62.5 L-9.3 64.1 -9.6 64.65 -10.6 66.1 Q-12.2 67.95 -14.8 68.85 L-17.35 69.5 -18.95 69.7 -22.0 65.85 -22.8 64.35 Q-24.0 60.85 -23.95 57.05 L-23.9 55.95 Q-23.8 54.4 -24.55 53.5 L-24.65 53.6 -24.45 53.3 Q-23.4 53.2 -22.95 52.05 L-22.55 50.85 -22.2 49.2 -22.25 49.55 -21.95 49.55 Q-21.4 49.3 -21.2 48.7 -20.1 45.9 -20.9 42.9 -21.35 41.2 -22.95 40.85 L-23.2 40.85 -23.35 40.3 -23.55 40.2 Q-21.85 37.7 -21.85 34.6 -21.8 33.1 -22.65 32.4 L-22.65 31.4 -22.7 29.3 Q-22.55 27.25 -22.55 25.2 L-22.35 23.6 Q-21.55 20.1 -18.95 17.45 L-15.3 13.45 Q-13.4 11.2 -13.65 8.2 L-14.0 8.4 -13.15 7.6 Q-12.5 6.7 -12.6 5.6 -12.75 3.75 -12.5 2.0 L-12.3 2.3 -12.35 3.2 -12.4 3.35 -12.25 3.35 Q-11.5 3.35 -10.9 2.9 L-10.65 2.9 -9.8 2.9 -9.6 2.65 Q-9.05 1.75 -9.6 0.8 L-9.85 0.35 Q-10.4 -0.5 -11.4 -0.45 L-12.15 -0.15 Q-11.65 -2.3 -10.6 -4.3 -9.7 -5.75 -8.4 -6.85 -6.7 -8.3 -7.85 -9.75 M-17.1 21.8 L-17.6 21.85 -19.05 22.05 -18.75 23.3 -18.55 23.75 -18.65 24.3 Q-18.75 24.8 -18.35 25.1 -17.9 25.5 -17.3 25.35 -16.2 24.9 -15.8 23.75 -15.55 23.15 -15.6 22.45 -15.7 21.6 -16.55 21.65 L-17.1 21.8 M-13.35 49.4 L-13.65 49.4 Q-15.0 48.55 -16.75 48.8 -17.7 49.0 -18.55 49.35 -19.95 49.95 -20.45 51.25 L-20.55 51.25 -20.5 50.05 Q-21.1 51.45 -21.15 52.95 -21.25 54.7 -20.6 55.85 -18.1 56.95 -15.35 60.9 L-15.05 61.35 -14.7 61.35 -14.6 61.35 -14.5 60.5 -14.45 60.4 -14.05 58.95 -14.0 58.85 -12.3 58.9 Q-10.95 57.15 -11.05 54.95 L-11.25 53.95 Q-10.7 52.85 -10.85 51.5 L-11.6 50.6 -12.45 49.8 Q-12.9 49.45 -13.35 49.4 M-13.5 64.2 L-13.7 64.05 -13.65 64.15 Q-14.6 62.55 -16.6 62.75 L-17.35 62.85 -18.0 63.25 -17.85 63.05 Q-18.15 63.05 -18.55 63.35 L-19.2 63.75 Q-19.85 64.65 -19.6 65.35 L-18.6 66.45 -17.25 67.4 -16.75 68.0 -16.45 68.75 Q-16.0 68.5 -15.4 67.3 L-15.35 67.15 -15.3 67.75 -15.05 68.0 Q-13.75 68.2 -13.5 66.8 L-13.25 65.55 Q-13.1 65.05 -13.25 64.65 L-13.15 63.95 -13.5 63.95 -13.5 64.2" fill="#cc7a00" fill-rule="evenodd" stroke="none"/>
    <path d="M-1.15 68.8 L-1.45 69.6 -1.45 70.95 -1.35 71.6 -1.25 71.95 -1.15 72.35 -1.15 72.45 -1.1 72.6 -0.15 75.3 Q-0.4 78.55 -1.15 81.9 L-1.65 81.95 -1.75 82.0 -2.25 82.0 -2.3 81.95 Q-2.9 81.35 -2.9 80.5 L-2.65 78.9 -2.5 77.35 Q-2.6 76.55 -3.35 76.0 L-3.95 75.05 -3.75 74.7 -4.05 74.8 -4.35 73.95 Q-4.7 73.3 -5.2 73.25 L-3.9 72.3 -4.0 72.2 -3.95 72.15 Q-3.8 71.75 -2.95 71.5 -2.25 71.3 -2.3 70.85 L-3.55 70.95 Q-4.2 71.25 -4.2 71.95 -4.75 71.15 -4.25 70.25 -3.65 69.05 -2.4 68.7 L-1.15 68.8 M-7.25 73.9 L-8.55 74.15 -9.6 76.0 -10.3 77.95 -11.55 79.25 -12.8 80.65 Q-14.3 82.15 -15.75 82.35 -16.45 82.05 -15.9 81.1 -15.75 80.6 -15.0 80.05 -14.25 79.45 -14.05 78.9 L-13.1 76.1 -13.0 75.7 -12.95 75.65 -12.9 74.5 -12.9 74.4 -12.9 74.3 -12.9 74.2 -12.8 74.2 -10.75 74.35 -10.85 74.05 -10.95 73.35 -10.65 73.45 -9.65 73.25 Q-9.7 72.65 -10.35 72.45 L-10.8 72.4 -10.8 72.35 -10.1 71.55 -9.7 71.25 Q-8.25 71.15 -7.55 72.05 L-7.15 72.75 -7.1 72.95 -7.1 73.45 -7.25 73.9 M-13.35 73.7 Q-14.4 73.35 -15.4 73.7 L-15.45 73.7 Q-16.1 73.9 -17.05 74.6 L-17.55 74.95 -19.6 76.3 -22.15 76.55 -22.25 75.95 -22.25 75.3 -22.2 75.3 -22.0 75.1 -21.8 75.0 -21.4 74.95 -21.15 74.85 -21.1 74.8 -20.3 74.45 -19.5 73.8 -18.95 73.1 Q-18.45 72.3 -18.45 71.5 -18.0 71.55 -17.8 72.0 L-17.8 72.1 Q-16.65 72.3 -15.95 73.15 L-16.0 72.75 Q-16.0 71.7 -15.0 71.3 -14.0 71.25 -13.5 71.75 L-13.25 72.1 -13.1 72.6 -13.05 72.85 Q-13.0 73.3 -13.3 73.6 L-13.35 73.7 M-29.35 43.05 L-29.0 42.0 -28.9 41.9 -28.75 41.65 -27.95 40.95 -27.35 40.6 -27.3 40.55 -27.15 40.55 Q-27.05 40.85 -26.6 40.75 L-25.85 40.8 -25.65 40.8 -25.6 40.8 -24.95 40.95 Q-24.0 41.25 -23.8 42.2 L-23.8 42.45 -23.65 42.65 -23.35 42.45 -23.2 42.15 -22.8 42.8 -22.7 43.0 Q-22.35 43.8 -22.15 44.6 -21.9 45.85 -22.0 47.15 L-22.15 48.8 -22.2 49.2 -22.55 50.85 -22.95 52.05 Q-23.4 53.2 -24.45 53.3 L-24.45 53.25 Q-24.5 53.15 -24.6 53.15 L-24.75 53.1 -25.6 52.65 -26.05 52.05 -25.65 51.8 -25.05 51.8 Q-24.6 51.25 -24.45 50.25 L-24.35 48.5 Q-24.15 46.95 -24.5 45.5 -24.8 44.2 -25.5 42.95 -27.9 42.15 -29.15 43.15 L-29.35 43.1 -29.35 43.05 M-12.15 -0.15 L-11.4 -0.45 Q-10.4 -0.5 -9.85 0.35 L-9.6 0.8 Q-9.05 1.75 -9.6 2.65 L-9.8 2.9 -10.65 2.9 -10.9 2.9 -10.55 2.5 -10.95 2.4 -10.75 2.4 -10.55 2.1 -10.4 1.85 Q-10.0 1.2 -10.55 0.7 L-10.6 0.7 Q-10.75 0.3 -11.15 0.35 L-11.25 0.4 Q-11.6 0.35 -11.75 0.75 L-11.9 1.25 -12.15 0.85 -12.3 2.1 -12.3 2.3 -12.5 2.0 -12.55 1.95 Q-12.95 1.35 -12.7 0.65 L-12.45 0.2 -12.4 0.2 -12.3 0.05 -12.15 -0.1 -12.15 -0.15 M-20.05 39.15 L-20.2 39.2 Q-20.55 39.3 -20.75 39.0 L-21.05 38.5 -21.15 38.7 Q-21.7 38.1 -21.35 37.25 L-20.6 35.85 -19.85 35.35 -19.25 35.25 -19.7 35.4 -20.2 35.9 -19.8 35.6 -19.65 35.5 -18.9 35.2 -18.3 35.1 Q-17.05 35.1 -16.2 35.7 L-15.3 37.2 Q-14.8 38.05 -15.15 38.8 -15.85 40.45 -16.75 40.1 L-16.7 38.6 -17.25 37.9 Q-17.85 37.35 -18.65 37.25 L-19.6 37.65 Q-20.2 37.85 -20.3 38.35 L-20.05 39.15 M-14.8 30.0 Q-15.6 29.45 -15.5 28.4 L-15.3 27.7 -14.65 26.95 Q-14.15 26.45 -13.5 26.3 L-13.05 26.4 -13.25 27.0 -13.25 27.1 -13.05 27.15 -13.55 27.1 Q-13.8 27.15 -13.95 27.35 L-13.85 27.4 -14.15 27.7 -14.2 28.0 -14.25 28.15 -14.3 28.3 -14.25 28.25 -14.15 28.9 -13.95 29.15 -13.8 29.15 -13.9 29.15 -14.2 30.05 -14.15 29.95 -14.8 30.0 M-12.1 20.8 L-12.95 21.25 Q-13.9 21.7 -14.55 21.0 L-14.65 20.7 Q-14.7 19.85 -14.05 19.2 L-14.0 19.15 -14.0 19.6 -13.95 20.4 -13.3 20.4 -12.6 19.9 -12.4 19.7 -12.3 19.6 -11.75 19.05 -11.7 19.05 -11.7 19.0 -11.65 18.95 -11.55 18.9 -11.8 18.65 -12.05 18.45 -12.35 18.1 -12.25 18.0 -11.95 18.0 -11.9 18.1 -11.9 18.15 -11.9 18.1 -11.75 18.05 -11.65 18.05 -11.6 18.1 -11.55 18.15 -11.2 18.3 Q-10.9 18.65 -11.0 19.15 L-11.1 19.6 -11.55 20.25 -11.9 20.4 -11.95 20.55 -11.95 20.7 -12.1 20.8 M-5.8 -3.1 L-5.9 -3.1 -6.8 -3.1 -6.9 -3.2 Q-7.7 -3.85 -7.5 -4.8 L-7.3 -5.15 Q-6.8 -5.7 -6.1 -5.9 L-4.35 -5.55 -4.35 -5.85 -3.4 -5.05 Q-2.95 -4.25 -3.1 -3.45 L-3.2 -3.2 -3.7 -2.95 Q-3.5 -3.55 -3.75 -4.05 L-4.0 -3.95 -4.0 -3.9 Q-4.25 -4.7 -5.2 -4.6 -5.75 -4.5 -6.05 -4.1 L-6.1 -3.8 -5.75 -3.35 -6.3 -3.95 -6.4 -3.85 -5.9 -3.3 -5.8 -3.1 M-10.0 1.25 L-9.9 0.95 Q-10.15 0.25 -10.85 0.3 L-10.0 1.25 M-18.55 23.75 L-18.25 24.15 -18.2 24.2 -18.1 24.35 -17.8 24.4 -17.65 24.35 -17.5 24.3 -17.45 24.3 -16.85 23.9 -16.35 23.1 Q-16.1 22.55 -16.2 22.2 L-16.45 22.2 -16.5 22.1 -16.9 21.85 -17.1 21.8 -16.55 21.65 Q-15.7 21.6 -15.6 22.45 -15.55 23.15 -15.8 23.75 -16.2 24.9 -17.3 25.35 -17.9 25.5 -18.35 25.1 -18.75 24.8 -18.65 24.3 L-18.55 23.75 M-21.05 38.5 L-21.0 38.4 -21.05 38.45 -21.05 38.5 M-22.3 44.65 L-22.35 44.6 -22.3 44.65 M-20.45 51.25 Q-19.95 49.95 -18.55 49.35 -17.7 49.0 -16.75 48.8 -15.0 48.55 -13.65 49.4 L-13.35 49.4 Q-12.8 49.75 -12.4 50.35 L-12.15 50.75 -11.8 51.65 -11.6 52.2 -11.55 52.5 -11.55 52.55 -11.55 52.6 -11.9 54.1 Q-12.25 54.95 -12.95 55.1 -12.85 54.45 -13.05 53.5 L-13.4 51.95 -13.4 51.8 Q-13.6 51.2 -14.25 51.1 L-15.45 50.95 Q-16.05 50.4 -16.95 50.65 L-18.3 51.25 Q-19.0 51.65 -19.2 53.0 L-19.2 53.1 -19.25 53.5 -19.3 53.8 -19.45 54.9 -19.5 55.3 -19.8 55.3 -19.85 55.25 -20.2 54.6 -20.45 53.85 -20.5 53.55 -20.55 52.8 -20.55 51.6 -20.45 51.25 M-14.45 49.65 L-14.5 49.7 -14.6 49.75 -13.9 49.8 -14.45 49.75 -14.45 49.65 M-13.65 64.15 L-13.65 64.2 -13.55 64.4 -13.6 64.7 Q-13.8 65.55 -14.65 65.8 -14.95 66.05 -15.2 65.8 L-15.45 65.25 -15.65 65.15 -15.75 65.05 -15.8 65.0 -16.3 64.8 -17.0 64.7 Q-18.0 65.15 -17.75 65.6 L-18.05 65.8 -18.5 65.45 -18.6 65.15 Q-18.75 64.4 -18.5 63.9 L-18.45 63.85 -18.0 63.25 -17.35 62.85 -16.6 62.75 Q-14.6 62.55 -13.65 64.15" fill="#e8ae00" fill-rule="evenodd" stroke="none"/>
    <path d="M-6.9 -10.05 Q-3.85 -10.9 -1.8 -9.0 -0.5 -7.4 -0.15 -5.15 L-0.25 -5.1 -0.15 -5.1 -0.05 -2.65 -0.1 -2.3 -0.1 -2.15 -0.3 -0.7 -0.4 -0.15 -0.5 0.15 Q-0.9 1.95 -1.7 3.8 L-2.2 4.95 -3.25 6.6 -5.4 9.2 Q-8.25 12.5 -8.9 14.6 -8.95 19.7 -9.25 22.2 -9.75 26.35 -11.2 29.3 L-11.9 31.15 -12.0 31.2 Q-13.25 31.7 -13.4 33.1 -13.45 33.8 -12.95 34.3 -11.75 35.45 -10.25 35.9 L-10.6 36.4 -11.05 37.3 -11.25 38.3 -11.1 38.85 -11.05 38.9 -11.05 38.95 -10.9 39.2 -10.75 39.65 -9.9 41.0 -9.35 41.7 -8.75 42.1 -9.55 42.7 -9.55 42.75 -8.5 42.8 -7.45 42.4 -6.65 41.85 -6.55 41.8 -5.5 43.45 Q-3.0 46.85 -2.0 50.8 -2.55 50.85 -2.85 51.15 L-3.0 51.35 -3.0 51.4 -3.65 51.65 -5.25 53.25 Q-5.95 54.25 -6.05 55.4 L-6.0 56.4 -6.0 56.35 -6.2 57.15 -6.25 58.9 -6.7 59.45 Q-6.25 60.5 -4.75 61.25 L-4.5 61.3 -4.45 62.35 Q-3.9 63.85 -2.35 64.45 L-2.35 64.8 -2.35 64.95 -2.35 65.15 -4.2 68.35 -5.35 70.7 Q-6.75 71.35 -8.1 71.55 L-7.55 72.05 Q-8.25 71.15 -9.7 71.25 L-10.1 71.55 -10.8 71.4 Q-12.3 71.1 -13.5 71.75 -14.0 71.25 -15.0 71.3 -16.0 71.7 -16.0 72.75 L-15.95 73.15 Q-16.65 72.3 -17.8 72.1 L-17.8 72.0 Q-18.0 71.55 -18.45 71.5 L-18.5 71.25 -19.5 70.55 -19.6 70.6 -20.5 70.0 -21.05 69.65 -21.0 69.65 -19.5 69.65 -18.95 69.7 -17.35 69.5 -14.8 68.85 Q-12.2 67.95 -10.6 66.1 L-10.5 66.5 -10.75 66.5 -10.75 66.8 Q-8.45 68.4 -6.7 70.55 L-6.4 69.0 -6.3 67.55 Q-5.05 66.5 -5.3 65.25 -5.3 64.25 -5.75 64.3 -6.45 63.55 -7.6 63.65 L-8.15 63.7 -9.25 64.05 -9.3 64.1 -8.7 62.5 Q-7.8 59.4 -7.45 56.2 -7.1 53.25 -7.95 50.5 -9.2 46.45 -10.85 42.55 L-10.5 42.65 -10.8 42.55 -10.85 42.5 -11.45 41.15 -11.7 40.6 -11.7 40.65 -12.05 40.15 -13.3 38.4 Q-13.4 40.7 -15.75 42.15 L-16.2 42.15 -16.25 42.2 -17.6 42.15 -17.35 41.7 -17.35 41.65 -16.85 40.85 -15.15 39.95 -15.15 39.9 Q-14.2 38.45 -14.6 37.25 -15.4 35.9 -16.2 35.7 -17.05 35.1 -18.3 35.1 L-18.9 35.2 Q-18.6 34.55 -17.75 34.4 L-17.4 34.35 -15.9 34.4 -16.7 33.75 -16.35 34.0 -17.4 33.55 Q-19.35 32.85 -21.55 33.1 L-21.65 33.05 -21.7 32.8 -22.05 32.7 Q-22.1 32.1 -21.6 31.55 -20.5 30.55 -18.6 30.6 L-18.45 30.6 -17.6 30.45 -17.35 30.4 -14.8 30.0 -14.15 29.95 -14.2 30.05 -13.9 29.15 -13.8 29.15 -13.55 29.1 -13.6 29.15 -13.6 29.3 -13.55 29.35 -13.3 29.25 -12.95 29.05 -12.7 29.05 -12.05 28.55 -11.85 28.45 Q-11.3 28.15 -11.7 27.8 L-11.85 27.75 -11.85 27.7 -11.95 27.5 -13.05 27.15 -13.25 27.1 -13.25 27.0 -13.05 26.4 Q-12.35 23.65 -12.0 20.85 L-11.95 20.7 -11.95 20.55 -11.9 20.4 -11.55 20.25 -11.1 19.6 -11.1 19.55 -10.95 18.85 Q-11.0 18.5 -11.2 18.3 L-11.55 18.15 -11.6 18.1 -11.65 18.05 -11.75 18.05 -11.9 18.1 -11.95 18.0 -12.1 14.8 -12.15 14.7 -12.45 12.8 -12.3 11.2 -12.0 10.3 -11.3 9.15 -11.15 8.95 Q-10.15 7.85 -8.85 7.1 L-8.1 6.5 -7.1 5.4 -6.05 3.95 Q-4.95 1.3 -4.55 -1.45 L-4.5 -1.7 -4.5 -1.75 -4.05 -2.3 -3.85 -2.6 -3.7 -2.95 -3.2 -3.2 -3.1 -3.45 Q-2.95 -4.25 -3.4 -5.05 L-4.35 -5.85 -4.4 -6.25 -4.8 -8.55 -6.9 -10.05" fill="#c16100" fill-rule="evenodd" stroke="none"/>
    <path d="M-11.9 31.15 L-11.9 31.25 -12.0 31.2 -11.9 31.15 M-3.95 75.05 L-4.05 74.8 -3.75 74.7 -3.95 75.05 M-21.8 75.0 L-21.3 74.85 -21.1 74.8 -21.15 74.85 -21.4 74.95 -21.8 75.0 M-10.6 66.1 L-9.6 64.65 -9.3 64.1 -9.25 64.05 -9.6 64.7 -10.6 66.1 M-21.7 32.8 L-22.0 33.0 -22.05 32.7 -21.7 32.8 M-11.95 18.0 L-11.9 18.1 -11.9 18.15 -11.9 18.1 -11.95 18.0 M-6.55 41.75 L-6.55 41.8 -6.65 41.85 -6.55 41.75 M-6.0 56.4 L-5.7 57.05 -6.0 56.35 -6.0 56.4 M-1.15 54.8 L-1.35 54.85 -1.25 54.55 -1.15 54.8 M-9.7 67.05 L-9.75 67.1 -9.95 67.05 -9.7 67.05" fill="#a47b00" fill-rule="evenodd" stroke="none"/>
    <path d="M-0.15 -5.15 L-0.15 -5.1 -0.25 -5.1 -0.15 -5.15" fill="#755800" fill-rule="evenodd" stroke="none"/>
    <path d="M-21.05 38.5 L-21.05 38.45 -21.0 38.4 -21.05 38.5 M-14.25 28.15 L-14.25 28.25 -14.3 28.3 -14.25 28.15" fill="#fbbc00" fill-rule="evenodd" stroke="none"/>
    <path d="M-23.2 40.85 L-22.95 40.85 Q-21.35 41.2 -20.9 42.9 -20.1 45.9 -21.2 48.7 -21.4 49.3 -21.95 49.55 L-22.25 49.55 -22.2 49.2 -22.15 48.8 -22.0 47.15 Q-21.9 45.85 -22.15 44.6 -22.35 43.8 -22.7 43.0 L-22.8 42.8 -23.2 42.15 -23.1 41.6 -23.2 40.85 M-11.25 53.95 L-11.05 54.95 Q-10.95 57.15 -12.3 58.9 L-14.0 58.85 -13.25 56.4 -11.4 54.2 -11.35 54.1 -11.25 53.95 M-13.65 64.15 L-13.7 64.05 -13.5 64.2 -13.55 64.4 -13.65 64.2 -13.65 64.15 M-13.25 64.65 Q-13.1 65.05 -13.25 65.55 L-13.5 66.8 Q-13.75 68.2 -15.05 68.0 L-15.3 67.75 -15.35 67.15 Q-14.9 66.25 -14.15 66.15 L-14.0 66.0 -13.65 65.55 -13.5 65.3 -13.25 64.65" fill="#cc6600" fill-rule="evenodd" stroke="none"/>
    <path d="M-13.5 65.3 L-13.65 65.55 -14.0 66.0 -13.5 65.3" fill="#fdbe00" fill-rule="evenodd" stroke="none"/>
  </g>
</svg>
