<?xml version="1.0" encoding="UTF-8" standalone="no"?>
<svg xmlns:xlink="http://www.w3.org/1999/xlink" height="146.1px" width="50.35px" xmlns="http://www.w3.org/2000/svg">
  <g transform="matrix(1.0, 0.0, 0.0, 1.0, 7.95, 8.5)">
    <path d="M23.65 9.55 L24.0 10.7 25.15 13.8 26.1 16.35 26.3 17.0 26.7 18.3 27.1 19.6 27.45 20.95 27.75 22.25 28.0 23.65 28.25 24.95 28.5 26.35 28.65 27.75 28.85 29.1 29.0 30.5 29.05 31.9 29.15 33.45 Q28.75 33.95 28.6 34.55 28.3 35.3 28.4 36.05 L28.5 37.55 28.6 39.05 28.35 40.55 27.95 42.1 27.3 42.6 26.95 43.05 27.05 43.45 27.35 43.8 28.15 44.65 28.75 45.5 29.45 47.25 30.0 48.95 30.3 50.6 30.4 52.2 30.3 53.9 30.0 55.5 29.45 57.15 28.75 58.8 30.15 59.9 31.6 60.95 33.15 61.8 34.75 62.6 31.85 62.9 36.9 68.2 36.8 69.9 36.95 71.55 37.4 73.25 37.95 75.0 38.05 76.35 38.0 77.7 37.85 79.1 37.65 80.45 37.4 81.8 37.05 83.15 36.65 84.45 36.15 85.8 36.4 86.3 36.9 87.25 37.55 88.0 38.4 88.5 39.8 88.9 39.7 89.45 39.4 89.65 39.05 89.75 34.95 89.6 35.1 91.05 35.4 92.4 36.0 93.65 36.75 94.85 37.65 96.1 38.5 97.3 39.3 98.55 40.0 99.75 39.85 101.35 39.75 103.2 39.6 104.15 39.35 105.0 38.95 105.75 38.4 106.5 38.55 107.45 38.6 109.1 38.25 110.75 37.45 112.25 36.9 113.0 37.55 115.0 38.3 116.95 39.2 118.8 39.75 119.75 40.55 121.15 41.2 122.5 41.7 124.45 41.85 126.5 41.75 127.6 41.5 128.7 42.4 130.1 41.35 131.2 38.55 133.55 36.0 135.05 35.35 135.4 34.0 135.9 32.55 136.45 31.1 136.8 29.7 137.2 28.2 137.45 26.7 137.55 25.25 137.6 23.75 137.55 22.25 137.35 20.75 137.0 19.5 136.25 18.3 134.9 17.85 135.35 17.3 135.75 16.7 135.65 15.0 134.9 13.3 132.3 12.45 132.75 11.6 132.95 10.7 132.75 9.65 132.3 9.65 131.4 9.45 130.65 9.05 130.0 8.45 129.4 7.75 129.6 7.05 129.7 6.5 128.85 5.9 128.15 5.15 127.75 4.3 127.45 3.5 127.15 2.75 126.75 2.2 126.15 1.75 125.25 1.3 125.4 0.55 125.7 -0.2 125.55 -0.9 125.25 -2.4 123.35 -2.6 123.65 -2.95 124.0 -3.35 124.15 -3.75 124.0 -4.4 123.55 -5.0 122.8 -5.2 122.0 -5.0 120.75 -4.3 119.25 -4.5 118.1 -4.65 117.1 -4.75 116.75 -5.05 116.45 -5.5 116.2 -6.2 116.1 -5.85 115.85 -5.25 115.3 -4.5 114.3 -4.1 113.5 -5.0 112.95 -5.7 112.25 -6.15 111.4 -6.5 110.4 -6.0 110.2 -5.15 109.6 -4.9 109.2 -4.75 107.45 -4.85 105.75 -4.95 104.45 -4.95 103.05 -5.05 101.6 -5.25 100.1 -5.3 98.65 -5.1 97.25 -4.55 95.95 -3.8 94.75 -4.5 93.9 -5.1 92.95 -5.6 91.9 -6.0 90.8 -5.5 90.55 -3.4 89.0 -3.1 88.6 -2.3 87.35 -1.9 86.45 -1.65 85.45 -1.5 84.35 -1.35 83.25 -1.1 82.2 -0.75 81.2 -0.3 80.15 0.2 79.25 0.85 78.35 1.6 77.5 2.45 76.65 2.4 75.0 2.2 73.45 2.0 71.95 2.05 71.15 2.2 70.3 2.65 68.85 3.2 67.4 3.85 66.0 4.65 64.6 4.6 64.3 Q4.6 63.85 4.75 63.5 4.8 63.2 5.0 63.0 L5.45 62.6 6.45 61.8 7.45 61.0 Q5.9 59.95 5.1 58.25 4.35 56.65 4.65 54.95 L4.7 54.1 4.45 52.5 3.85 50.75 3.65 49.85 3.3 47.95 3.05 46.8 2.75 45.65 2.5 44.45 2.25 43.2 2.1 42.0 2.0 40.7 1.95 39.4 1.9 38.1 1.25 37.6 0.95 36.3 0.65 35.05 0.2 33.85 -0.25 32.6 -0.95 31.25 -1.7 29.95 -2.6 28.65 -3.6 27.4 -2.9 26.75 -3.05 26.55 -3.2 26.4 -3.4 26.3 -3.6 26.25 -3.8 26.45 -5.05 24.75 -6.05 23.0 -6.75 21.15 -7.1 19.05 -7.3 17.5 -7.45 15.9 -7.5 14.8 -7.65 13.25 -7.8 11.65 -7.9 10.55 -7.6 10.2 -7.5 10.05 -7.4 9.85 -7.7 9.2 -7.9 8.5 -7.9 7.65 -7.0 0.2 -6.4 -0.8 -5.85 -1.8 -5.4 -2.9 -4.95 -4.1 -4.45 -5.2 -3.8 -6.2 -2.95 -7.0 -1.85 -7.7 -0.6 -8.15 0.6 -8.5 1.85 -8.5 3.1 -8.2 4.35 -7.8 5.6 -7.6 Q6.55 -7.45 7.6 -7.6 L8.9 -7.4 10.15 -7.05 12.5 -5.95 13.05 -5.6 14.1 -4.85 15.1 -4.0 16.15 -3.1 17.05 -2.1 18.0 -1.1 18.8 0.0 19.5 1.1 20.15 2.25 20.75 3.45 21.2 4.65 21.6 5.9 21.9 7.15 22.3 7.25 Q22.6 7.4 22.9 7.65 L23.25 8.05 23.45 8.55 23.65 9.55 M2.8 -7.35 L2.95 -7.45 Q1.45 -7.45 0.15 -6.85 -0.75 -6.5 -1.5 -5.95 L-2.95 -4.65 Q-3.9 -3.6 -4.3 -2.3 L-4.8 -0.8 -5.3 0.8 -5.7 2.35 -6.0 3.95 -6.15 4.7 -6.2 5.15 -6.2 5.25 -6.25 5.55 -6.4 7.15 -6.45 8.8 -6.45 10.5 -6.4 11.6 -6.4 11.8 -6.4 12.15 -6.25 13.75 -6.15 15.35 -6.0 17.0 -5.8 18.55 -5.55 20.15 -5.45 20.8 -5.3 21.65 -5.15 21.4 -5.15 21.9 Q-5.05 23.1 -4.25 23.3 L-4.2 23.45 -4.1 23.85 -3.8 24.6 -3.4 24.35 Q-3.0 25.55 -1.9 26.35 L-1.05 26.95 -1.0 27.0 -2.2 27.95 -1.3 29.1 -0.5 30.25 0.3 31.4 0.95 32.6 1.85 34.2 2.25 35.0 2.6 35.8 3.05 36.8 3.5 38.25 3.5 38.5 3.5 38.8 3.5 38.9 3.5 40.9 Q3.5 41.85 3.65 42.8 L4.15 45.5 4.6 45.2 Q4.15 45.9 4.2 46.75 4.2 47.1 4.5 47.35 L4.8 47.5 4.65 48.15 4.8 48.6 5.3 49.35 6.05 50.9 Q6.35 49.9 6.85 49.25 7.3 48.45 8.05 47.95 L9.75 46.8 10.6 46.4 11.75 46.1 12.45 45.95 15.0 46.05 15.3 46.15 16.5 46.35 19.5 46.3 22.4 45.75 22.65 43.8 22.7 44.15 Q22.85 44.85 23.25 45.35 L23.35 45.5 23.45 45.75 Q24.2 45.65 24.75 45.2 L25.55 44.1 25.85 43.15 25.6 43.1 Q26.65 42.7 26.25 41.6 L26.75 41.7 27.7 37.0 Q28.15 36.25 28.0 35.2 L28.0 34.65 27.9 32.85 27.8 32.85 27.8 32.8 28.25 32.8 27.95 30.8 27.95 29.3 27.75 27.4 27.7 27.2 27.5 26.8 Q28.45 26.0 27.85 24.75 L27.6 24.15 26.85 22.95 25.6 18.8 25.6 18.75 25.55 18.5 25.5 18.5 24.85 17.05 24.8 16.85 24.85 16.85 24.05 13.9 23.4 11.6 23.05 10.85 21.7 8.4 20.7 8.25 21.05 8.3 21.15 7.95 Q21.2 6.3 20.15 4.95 L19.9 4.6 19.5 4.1 19.2 3.5 18.55 2.2 17.85 0.95 17.05 -0.2 16.2 -1.35 15.3 -2.5 14.75 -3.1 14.25 -4.0 13.85 -4.7 Q12.45 -6.1 10.45 -5.6 L7.45 -6.35 6.6 -6.45 5.9 -6.8 2.8 -7.35 M-3.75 1.15 L-3.55 1.4 -3.45 1.25 -3.6 1.5 -3.8 1.2 -3.75 1.15 M19.75 41.1 L21.0 41.0 21.3 41.0 19.7 41.2 19.75 41.1 M15.35 47.3 L14.45 47.3 12.45 47.75 Q11.55 47.95 10.7 48.45 L10.1 48.7 9.05 49.3 8.25 49.85 8.1 50.4 7.55 51.9 6.7 53.8 Q6.3 54.75 6.15 55.75 L6.05 57.8 6.1 57.9 6.45 58.3 7.3 59.15 7.85 59.6 8.2 59.9 9.15 60.55 10.15 61.05 11.2 61.5 12.3 61.9 12.7 62.0 13.45 62.15 14.65 62.3 15.85 62.4 16.45 62.45 17.05 62.45 18.25 62.4 20.0 62.25 21.75 61.95 23.4 61.45 25.15 60.5 26.15 59.75 27.0 58.95 27.35 58.5 27.7 58.05 28.0 57.55 28.3 57.0 28.5 56.45 28.7 55.9 28.9 55.3 29.0 54.0 28.9 53.35 29.0 52.9 28.95 51.35 28.9 50.85 28.95 50.9 28.85 50.15 28.5 48.7 28.35 48.2 28.05 47.35 27.4 46.15 27.05 45.55 26.4 45.95 25.1 46.55 23.8 47.1 23.45 47.25 22.4 47.55 20.7 47.95 19.15 48.0 18.3 47.95 18.1 47.95 17.2 47.9 16.9 47.65 15.45 47.3 15.5 47.25 15.4 47.3 15.35 47.25 15.35 47.3 M10.55 49.1 L10.4 49.1 10.55 49.1 M34.8 84.65 L34.85 83.85 35.05 82.35 35.05 80.85 34.95 79.5 34.65 78.15 34.1 77.0 33.6 75.9 32.9 74.3 32.7 73.8 33.75 75.25 34.7 76.65 35.55 78.1 36.3 79.5 36.45 77.9 36.45 76.8 36.4 75.65 36.3 74.5 36.1 73.3 35.8 72.1 35.3 70.25 34.9 69.0 34.65 68.4 34.1 67.3 33.4 66.2 32.6 65.15 32.4 64.9 31.75 64.15 31.7 64.1 31.5 63.95 30.2 62.8 29.1 61.95 29.1 61.45 30.9 61.5 28.7 60.25 27.2 62.45 27.7 62.45 28.7 63.15 29.7 63.9 30.25 64.35 30.5 64.55 30.7 64.7 30.75 64.75 31.4 65.35 31.7 65.6 32.5 66.6 33.1 67.6 33.4 68.7 33.5 69.85 32.75 68.65 31.9 67.55 31.05 66.5 30.5 65.9 30.35 65.8 30.3 65.7 30.1 65.5 29.1 64.65 28.95 64.55 28.05 63.85 26.95 63.1 25.75 62.45 26.15 62.2 25.9 62.05 25.8 62.05 24.5 62.15 24.05 62.45 Q24.35 62.9 24.2 63.4 L23.95 63.85 23.45 64.15 Q22.55 64.15 22.0 64.9 L21.95 65.0 21.95 65.05 21.9 65.2 21.9 65.4 22.0 66.15 20.95 63.85 Q20.3 63.9 19.8 64.3 L19.7 64.35 Q19.05 64.75 18.85 65.55 L18.55 67.3 18.7 68.45 18.95 69.15 19.15 69.65 19.35 70.0 19.5 70.4 19.7 70.7 19.7 70.8 20.2 71.7 20.35 71.95 20.45 72.1 20.35 72.0 19.65 71.4 19.55 71.3 19.2 70.9 18.4 69.9 18.0 69.15 Q17.45 67.95 17.3 66.6 17.15 65.5 17.35 64.35 L17.0 64.35 16.35 64.35 Q15.85 65.1 15.5 65.95 15.0 67.0 14.95 68.15 L14.95 68.65 Q14.45 67.9 14.3 67.15 14.0 65.95 14.3 64.8 L14.45 64.15 13.5 63.95 13.05 63.85 Q12.1 64.6 11.5 65.6 10.75 66.7 10.5 68.05 L10.4 68.4 10.35 68.85 10.35 68.95 10.3 69.2 10.25 68.8 10.15 67.95 10.15 67.45 Q10.15 66.25 10.6 65.2 L10.8 64.65 9.4 65.05 8.6 66.5 8.5 66.75 8.45 66.95 8.4 66.95 8.4 67.05 8.05 68.45 Q7.8 69.6 7.9 70.65 L7.85 70.6 Q7.35 69.85 7.15 69.0 6.8 67.8 7.2 66.55 L7.45 65.75 7.5 65.55 7.7 65.0 8.35 63.4 8.6 62.65 7.55 62.55 Q6.75 62.65 6.15 63.3 L5.95 63.45 5.8 63.65 6.2 64.65 4.9 66.35 Q4.1 67.6 3.95 69.0 L3.75 72.15 3.8 72.65 3.8 75.5 5.9 73.7 Q6.6 73.15 7.4 72.7 7.75 72.45 8.2 72.35 L8.7 72.2 8.85 72.2 9.6 72.1 9.35 72.35 2.85 78.3 Q1.95 79.55 1.35 80.95 0.45 82.8 -0.05 84.8 L-1.05 87.7 -1.95 89.4 -3.2 90.8 -4.05 91.55 -4.2 91.7 -4.55 92.0 -4.65 92.05 -3.85 93.55 -2.0 93.7 -0.85 93.4 0.2 92.75 0.65 92.35 0.95 92.55 1.7 91.85 0.95 93.55 -0.9 95.25 -2.1 96.05 Q-3.2 96.7 -3.75 97.9 -4.15 98.8 -4.15 99.8 L-2.45 99.8 -3.35 101.5 -3.55 102.4 -3.65 103.4 -1.75 101.9 -1.7 101.8 -1.5 101.6 -1.25 101.3 -1.2 101.25 -0.1 99.6 0.1 99.15 0.5 98.4 0.5 98.9 0.35 99.8 0.35 99.85 0.15 100.45 0.1 100.55 -0.8 102.25 -1.4 102.9 -2.5 104.05 Q-3.55 105.1 -3.5 106.6 -3.5 107.85 -2.95 108.95 -3.6 110.15 -4.65 111.1 L-5.35 111.65 -3.6 111.75 Q-2.3 111.6 -1.2 110.95 L0.5 109.55 0.75 109.25 0.95 109.0 0.95 108.95 1.15 109.25 1.15 109.3 0.75 110.35 0.7 110.4 0.1 111.3 -0.95 112.2 -2.2 113.0 -2.95 113.25 -1.65 113.3 -0.05 113.0 0.4 112.75 0.55 112.7 0.75 112.5 1.05 112.2 1.1 112.15 Q1.65 111.4 2.6 111.65 L2.5 112.45 1.95 113.35 1.1 114.05 1.05 114.1 0.95 114.15 0.9 114.2 0.4 114.45 0.15 114.55 0.1 114.55 -0.4 114.55 -2.3 114.5 -2.6 114.6 -2.9 114.8 -3.65 115.65 -2.25 116.7 -2.3 117.05 -3.05 117.2 -3.2 117.3 -3.4 117.4 -3.55 117.95 -3.5 118.1 -3.45 118.4 -3.4 118.55 -3.25 118.7 -3.35 119.1 Q-3.5 120.35 -2.5 121.05 L-2.6 121.1 -3.65 120.5 -4.35 121.7 -3.85 122.35 -3.45 122.9 -3.0 122.55 -2.8 122.35 -1.85 122.3 -1.4 122.5 -1.25 122.55 -0.95 123.4 Q-0.55 124.2 0.2 124.6 L0.5 124.35 Q1.0 124.25 1.5 123.9 L2.45 124.15 2.55 124.25 3.2 125.05 3.9 125.7 4.6 126.35 4.6 126.15 5.65 127.0 6.3 127.6 Q6.65 128.0 7.1 128.15 L7.75 128.5 8.4 128.35 8.85 128.4 10.1 129.55 10.45 129.9 10.5 130.0 10.75 130.4 11.05 131.85 12.3 130.95 12.4 130.9 Q13.0 130.6 13.45 131.15 L13.75 131.45 14.15 132.1 14.95 133.1 15.85 133.9 16.85 134.55 17.15 133.05 17.15 133.0 18.0 133.6 18.25 133.2 Q19.3 134.85 21.1 135.8 L23.3 136.3 24.05 136.3 25.35 136.3 27.3 136.15 29.25 135.9 31.1 135.55 32.9 135.0 34.7 134.4 36.4 133.6 38.05 132.7 39.65 131.65 41.2 130.45 Q41.2 129.85 40.85 129.45 L40.55 129.3 40.6 128.4 40.6 128.1 40.3 127.25 40.25 125.55 40.2 125.0 39.9 123.3 38.65 120.2 37.35 118.1 36.25 116.85 35.05 115.65 34.85 115.4 33.8 114.45 32.3 113.95 30.75 113.25 30.0 113.1 29.3 113.05 Q28.9 113.15 28.65 113.4 L27.95 114.05 27.55 114.85 27.5 115.1 27.25 115.95 27.25 116.0 27.35 116.05 27.1 116.7 27.0 116.9 26.7 117.3 26.25 118.05 Q25.25 119.65 23.65 120.35 L22.65 120.7 21.85 120.85 20.6 120.35 20.65 120.3 20.65 120.25 20.65 120.2 20.7 120.15 20.8 120.0 20.85 119.85 22.35 118.1 22.55 118.4 22.65 118.9 22.5 119.0 Q22.1 119.2 21.85 119.65 L21.85 119.8 21.9 119.8 Q23.1 119.6 24.2 118.9 25.4 118.0 25.8 116.5 L25.9 116.1 Q25.85 115.9 25.95 115.75 L25.95 115.7 Q26.15 114.5 26.75 113.45 L27.6 112.35 28.2 111.75 30.05 110.7 30.9 110.45 31.75 110.65 32.6 110.95 32.95 111.1 33.0 111.1 33.0 111.15 30.6 112.05 31.4 112.2 Q32.3 112.3 33.15 112.65 34.0 112.95 34.75 113.5 L35.1 113.75 34.6 111.7 34.05 110.6 32.5 107.75 36.3 111.65 36.75 111.1 37.1 109.7 37.1 108.4 36.7 107.15 36.05 105.8 35.35 104.2 34.7 102.4 34.6 102.05 Q34.25 101.0 34.6 99.95 L34.9 99.1 35.2 99.9 Q35.8 101.7 36.8 103.3 L37.4 104.2 37.8 104.75 37.85 104.8 37.85 104.75 38.0 104.15 38.0 104.1 38.25 102.5 38.25 102.25 38.05 100.25 38.05 100.15 38.0 99.95 37.15 97.8 36.85 97.35 36.1 96.25 35.2 95.1 34.8 94.35 34.3 93.3 34.05 92.35 33.85 90.85 33.55 89.95 33.0 89.1 32.15 88.3 31.15 87.05 30.95 86.3 30.95 86.2 31.05 85.15 31.1 84.65 31.4 85.15 31.45 85.2 31.8 85.8 32.2 86.35 Q33.15 87.5 34.5 88.2 35.7 88.9 37.15 88.95 L36.6 88.5 Q35.1 87.25 34.85 85.3 L34.8 84.65 M26.4 64.55 Q27.5 64.9 28.55 65.75 L29.25 66.35 29.65 66.75 29.1 66.4 28.9 66.25 28.6 66.05 27.5 65.45 25.8 64.65 25.75 64.6 25.5 64.5 25.15 64.35 25.2 64.35 25.4 64.35 25.45 64.4 25.55 64.4 25.65 64.4 25.75 64.45 25.8 64.45 25.85 64.45 26.0 64.45 26.05 64.5 26.1 64.5 26.2 64.55 26.3 64.55 26.35 64.55 26.4 64.55 M11.4 98.1 L11.35 97.95 11.3 97.6 11.4 97.95 11.4 98.1 11.45 98.4 11.5 98.7 11.4 98.7 11.4 98.1 M11.8 114.7 L11.9 114.6 12.75 113.25 13.45 113.25 Q13.0 113.85 13.2 114.5 L13.15 114.5 13.25 114.75 13.3 114.75 13.55 114.4 13.8 114.05 Q14.6 113.1 15.55 112.8 16.35 112.55 17.25 112.8 L17.8 113.0 18.05 113.1 18.3 113.25 Q15.3 113.2 13.3 114.75 L12.0 116.0 Q11.55 116.5 11.25 117.1 L11.05 117.4 11.0 117.4 11.0 117.45 10.95 117.5 10.9 117.55 10.85 117.6 10.8 117.65 10.75 117.7 9.25 118.8 9.15 118.85 9.1 118.85 9.05 118.9 8.95 118.95 8.9 118.95 8.85 119.0 8.8 119.0 8.75 119.05 6.65 119.6 6.35 119.65 4.85 119.6 4.7 119.55 Q3.05 118.9 1.5 117.85 L0.75 117.35 0.55 117.15 0.2 116.85 -0.15 116.85 -0.5 116.85 -0.4 116.8 Q1.15 115.6 2.95 114.95 3.05 116.15 1.4 116.85 2.5 117.85 3.8 118.3 L4.55 118.5 4.6 118.5 7.75 118.4 Q10.1 117.0 11.8 114.7 M19.55 112.9 L19.5 112.85 19.4 112.75 18.65 112.1 18.25 111.85 18.3 111.85 18.35 111.8 18.45 111.8 Q19.2 111.7 19.75 112.1 L20.25 112.65 21.45 114.45 21.5 114.65 Q21.75 117.2 19.95 119.1 L19.4 119.65 19.25 119.8 19.35 119.6 19.75 119.0 19.8 118.85 20.2 117.8 20.45 116.55 20.45 114.95 20.45 114.9 20.2 114.0 20.15 113.85 19.55 112.9 M32.8 78.55 Q31.65 76.1 29.95 74.0 32.05 75.9 33.2 78.25 L33.65 79.3 Q34.45 81.4 34.5 83.85 L34.45 84.65 34.35 83.9 33.65 80.9 33.6 80.7 32.8 78.55 M30.9 92.4 L31.05 92.6 31.15 92.7 31.1 92.7 30.9 92.55 30.85 92.5 30.9 92.4 M29.2 77.45 L29.15 77.4 29.2 77.45 M28.95 83.1 L28.95 83.2 28.85 83.25 28.9 83.15 28.95 83.1 M27.5 83.55 L27.5 83.6 27.45 83.55 27.5 83.55 M27.85 108.0 L27.85 107.95 27.9 108.0 27.85 108.0 M24.5 112.25 L24.6 112.3 24.3 113.75 24.25 114.2 24.2 113.75 24.2 113.6 24.5 112.25 M12.85 68.6 L12.9 68.55 13.05 68.25 13.35 68.55 13.75 68.95 13.7 69.0 11.4 71.0 11.4 71.05 11.35 71.05 11.5 70.85 12.85 68.6 M1.2 88.6 L1.2 88.65 1.15 88.8 1.1 88.8 1.2 88.45 1.2 88.6 M9.7 84.4 L9.65 84.6 9.7 84.4 M5.9 107.65 L5.65 107.15 5.9 107.65 5.95 107.7 6.2 108.25 6.15 108.25 5.9 107.65 M1.55 107.8 L1.4 107.7 1.55 107.75 1.6 107.8 1.55 107.8 M12.9 128.8 L13.3 129.15 12.85 128.85 12.9 128.8 M16.4 131.2 L16.35 131.15 16.5 131.25 16.4 131.15 16.4 131.2 M0.8 122.15 L0.75 122.1 0.8 122.1 0.8 122.15 M38.4 127.35 L38.35 127.2 38.45 127.25 38.4 127.35" fill="#000000" fill-rule="evenodd" stroke="none"/>
    <path d="M-6.2 5.15 Q-4.95 2.15 -3.0 -0.45 L-2.9 -0.55 -3.75 1.15 -3.8 1.2 -3.6 1.5 -3.45 1.25 -2.5 0.05 -1.3 -1.35 -1.15 -1.3 -1.05 -1.65 -1.2 -1.5 0.0 -2.8 1.5 -4.25 3.1 -5.45 3.7 -5.85 Q3.95 -3.85 5.15 -2.35 L5.3 -2.45 4.8 -2.1 3.65 -1.2 2.45 -0.3 1.35 0.75 0.3 1.75 -0.75 2.85 -1.7 3.9 -3.1 5.55 -4.1 6.85 -4.4 7.15 -4.35 7.2 -5.5 8.9 -5.3 9.2 -4.65 8.3 -3.6 7.05 -2.55 5.85 -2.15 5.45 -1.4 4.65 -0.6 3.95 0.2 3.2 1.0 2.45 2.2 1.45 3.1 0.8 4.35 -0.05 Q4.15 0.95 5.15 2.0 L5.45 2.95 4.05 3.2 2.65 3.55 1.3 4.0 0.0 4.55 -1.2 5.25 -2.4 6.0 -1.8 5.9 -1.5 5.8 -1.5 6.1 Q-1.4 6.85 -0.6 6.75 L0.5 6.6 Q3.2 6.3 6.0 6.5 L9.45 6.85 10.4 8.05 9.7 8.35 9.3 8.5 8.05 9.0 7.75 9.15 6.45 9.8 4.9 10.6 3.35 11.55 1.9 12.6 0.5 13.75 -0.75 15.0 -2.5 16.95 -3.95 19.15 -4.0 19.15 -4.0 19.25 -4.05 19.35 -4.2 19.55 -5.0 21.1 -5.15 21.4 -5.3 21.65 -5.45 20.8 -5.55 20.15 -5.8 18.55 -6.0 17.0 -6.15 15.35 -6.25 13.75 -6.4 12.15 -6.4 11.8 -6.4 11.6 -6.45 10.5 -6.45 8.8 -6.4 7.15 -6.25 5.55 -6.2 5.25 -6.2 5.15 M-5.5 8.9 L-5.6 8.8 -5.65 8.85 -5.5 8.9 M-4.25 23.3 L-4.3 23.15 -4.35 22.5 -4.05 21.2 -3.3 19.9 -3.25 19.8 -2.6 19.3 -2.5 19.2 0.2 17.15 2.3 15.75 5.05 20.25 4.95 20.3 4.5 20.5 3.35 20.95 2.25 21.45 2.15 21.5 1.15 21.9 0.8 22.1 0.6 22.2 0.05 22.5 -0.75 22.95 -1.6 23.35 -3.4 24.35 -3.8 24.6 -4.1 23.85 -4.2 23.45 -4.25 23.3 M11.75 46.1 L10.6 46.4 9.75 46.8 8.05 47.95 Q7.3 48.45 6.85 49.25 6.35 49.9 6.05 50.9 L5.3 49.35 4.8 48.6 4.65 48.15 4.8 47.5 4.9 47.45 5.35 46.95 6.75 45.8 7.3 45.4 8.5 45.7 11.75 46.1 M3.5 38.25 L3.05 36.8 2.6 35.8 2.25 35.0 1.85 34.2 2.6 34.0 Q3.45 33.15 3.0 32.05 1.7 29.1 1.6 25.95 L1.55 25.4 3.5 25.25 Q4.55 24.7 5.65 24.4 L8.15 23.0 Q9.6 22.35 11.25 21.9 L11.5 21.85 Q11.5 22.3 11.8 22.85 L13.05 25.55 13.45 26.25 12.45 26.8 Q11.5 27.3 10.65 27.95 L9.35 28.9 8.5 29.6 8.1 29.95 7.7 30.3 6.9 31.05 6.85 31.1 6.3 31.8 5.55 32.85 4.45 33.7 4.55 34.15 4.0 34.9 4.85 34.3 5.25 34.3 6.1 33.8 7.1 33.5 8.0 33.05 8.9 32.65 9.9 32.55 11.55 32.4 13.15 32.3 13.35 32.3 Q12.75 32.9 13.0 34.2 13.1 34.75 13.5 35.2 L13.9 35.55 12.75 35.9 11.7 36.25 10.7 36.7 Q10.2 36.85 9.65 37.1 L11.5 36.85 13.5 36.35 13.45 36.7 13.4 37.7 13.5 38.0 13.65 39.1 13.75 39.9 14.2 38.7 14.35 37.45 14.3 36.2 14.3 36.1 14.55 36.05 14.55 35.9 14.55 35.85 Q14.95 35.85 15.25 35.5 L15.9 35.45 16.0 38.45 16.05 41.35 14.9 41.4 13.9 41.5 Q13.1 41.35 12.35 41.5 L11.25 41.85 10.2 42.3 9.65 42.5 9.15 42.75 8.1 43.2 7.1 43.75 6.1 44.3 5.1 44.85 5.05 44.9 Q5.45 43.6 5.4 42.15 L5.6 40.25 7.4 39.1 8.1 38.25 8.05 38.55 9.1 37.35 9.0 37.25 8.8 37.15 8.55 37.2 7.7 37.55 7.3 37.3 Q6.1 37.5 5.15 38.1 L4.0 37.85 Q3.7 38.0 3.5 38.25 M12.35 17.6 L10.1 18.4 9.65 18.55 9.1 16.7 8.95 16.3 8.5 15.1 7.7 12.95 10.7 12.05 12.0 15.85 12.35 17.6 M9.15 18.8 Q8.5 19.1 7.85 19.5 L7.65 19.7 7.3 19.8 Q6.5 19.75 5.85 20.25 L5.75 20.1 4.2 17.9 2.55 15.6 4.2 14.6 6.75 18.9 6.95 18.9 6.6 18.15 5.9 16.85 5.4 15.65 4.8 14.25 Q6.15 13.55 7.55 13.0 L7.6 13.35 7.7 14.2 8.2 16.4 9.15 18.8 M19.8 32.4 L20.25 32.5 19.8 32.4 M26.25 34.45 L26.75 34.65 26.2 34.65 26.25 34.45 M15.9 35.05 L15.85 35.05 15.55 35.1 15.7 34.85 15.9 34.8 15.9 35.05 M15.8 42.7 L15.75 42.75 15.3 42.75 15.8 42.7" fill="#999966" fill-rule="evenodd" stroke="none"/>
    <path d="M-2.9 -0.55 L-2.9 -0.6 -1.85 -2.3 -0.55 -3.95 0.35 -4.95 1.35 -6.0 2.4 -6.95 2.8 -7.35 5.9 -6.8 6.6 -6.45 6.4 -6.5 5.7 -6.5 3.7 -5.85 3.1 -5.45 1.5 -4.25 0.0 -2.8 -1.2 -1.5 -1.3 -1.35 -2.5 0.05 -3.45 1.25 -3.55 1.4 -3.75 1.15 -2.9 -0.55 M4.35 -0.05 L3.1 0.8 2.2 1.45 1.0 2.45 0.2 3.2 -0.6 3.95 -1.4 4.65 -2.15 5.45 -2.55 5.85 -3.6 7.05 -4.65 8.3 -5.3 9.2 -5.5 8.9 -4.35 7.2 -4.1 6.85 -3.1 5.55 -1.7 3.9 -0.75 2.85 0.3 1.75 1.35 0.75 2.45 -0.3 3.65 -1.2 4.8 -2.1 5.3 -2.45 6.0 -2.85 7.15 -3.55 8.4 -4.15 9.65 -4.65 10.95 -5.05 11.55 -5.25 10.45 -5.6 Q12.45 -6.1 13.85 -4.7 L14.25 -4.0 14.75 -3.1 14.3 -3.5 13.3 -4.55 12.3 -4.4 11.9 -4.2 11.05 -3.65 10.05 -3.2 9.1 -2.7 8.1 -2.25 6.7 -1.5 5.85 -1.0 5.75 -0.95 4.4 -0.1 4.35 -0.05 M-1.5 5.8 L-1.8 5.9 -2.4 6.0 -1.2 5.25 0.0 4.55 1.3 4.0 2.65 3.55 4.05 3.2 5.45 2.95 6.95 2.85 8.2 2.8 8.45 2.8 10.0 2.9 11.5 3.05 12.95 3.25 14.4 3.4 15.8 3.7 17.15 4.0 18.5 4.35 19.8 4.8 19.6 4.35 19.5 4.1 19.9 4.6 20.15 4.95 Q21.2 6.3 21.15 7.95 L21.05 8.3 20.7 8.25 18.05 8.1 16.6 8.15 15.6 8.25 15.55 8.25 15.35 8.3 14.45 8.4 13.6 8.6 11.8 9.05 10.05 9.7 9.95 9.75 8.35 10.4 7.5 10.9 6.95 11.15 5.75 11.75 Q5.2 11.95 4.75 12.3 L4.15 12.8 3.95 12.9 3.9 12.9 Q3.65 13.0 3.7 13.3 L3.75 13.75 3.45 13.2 2.45 14.05 2.55 14.2 Q1.55 14.75 0.8 15.65 L-0.05 16.55 -0.9 17.45 -1.4 17.9 -2.35 18.8 -3.25 19.8 -3.3 19.9 -4.05 21.2 -4.35 22.5 -4.3 23.15 -4.25 23.3 Q-5.05 23.1 -5.15 21.9 L-5.15 21.4 -5.0 21.1 -4.2 19.55 -4.05 19.35 -4.0 19.25 -4.0 19.15 -3.95 19.15 -2.5 16.95 -0.75 15.0 0.5 13.75 1.9 12.6 3.35 11.55 4.9 10.6 6.45 9.8 7.75 9.15 8.05 9.0 9.3 8.5 9.7 8.35 10.4 8.05 10.55 8.0 11.3 7.7 12.9 7.2 14.6 6.8 16.25 6.45 17.1 6.3 14.05 5.4 10.9 4.8 8.8 4.6 8.3 4.55 7.2 4.55 6.15 4.55 5.05 4.55 3.95 4.6 2.85 4.7 1.7 4.85 0.6 5.05 -0.6 5.45 -0.65 5.5 -0.75 5.5 -1.1 5.65 -1.5 5.8 M24.8 16.85 L24.85 17.05 25.5 18.5 25.2 18.45 24.4 18.25 23.55 18.1 21.65 17.85 19.75 17.85 17.85 17.85 17.35 17.9 16.0 18.1 15.1 18.3 14.15 18.5 13.2 18.8 12.35 19.1 9.75 20.25 7.15 21.55 Q5.9 22.2 4.7 23.0 L3.1 24.0 1.6 25.1 1.35 25.25 0.05 26.2 -1.0 27.0 -1.05 26.95 -1.9 26.35 Q-3.0 25.55 -3.4 24.35 L-1.6 23.35 -0.75 22.95 0.05 22.5 0.6 22.2 0.8 22.1 1.15 21.9 2.15 21.5 2.25 21.45 3.35 20.95 4.5 20.5 4.95 20.3 5.55 20.35 5.7 20.15 5.75 20.1 5.85 20.25 Q6.5 19.75 7.3 19.8 L7.65 19.7 7.85 19.5 Q8.5 19.1 9.15 18.8 9.65 19.1 10.05 18.55 L10.1 18.4 12.35 17.6 13.3 17.35 16.1 16.75 17.0 16.65 18.0 16.6 19.6 16.55 19.95 16.55 21.85 16.55 23.85 16.7 23.9 16.7 24.8 16.85 M26.85 22.95 L27.6 24.15 27.85 24.75 Q28.45 26.0 27.5 26.8 L27.7 27.2 27.75 27.4 27.95 29.3 27.95 30.8 27.6 28.9 27.25 27.9 26.8 26.9 26.3 25.85 25.75 25.05 Q25.4 24.7 25.0 24.6 L24.1 24.6 23.1 24.85 22.95 24.75 22.8 24.75 22.3 24.8 22.2 24.85 22.2 24.8 20.7 24.95 20.2 25.05 19.4 25.25 19.05 25.35 18.45 25.55 18.1 25.85 18.05 25.95 17.75 26.0 17.45 26.15 17.1 26.2 17.1 26.25 17.05 26.25 15.85 26.9 15.8 26.95 15.55 27.05 15.55 27.1 14.65 27.6 13.4 28.35 12.2 29.1 Q11.6 29.45 11.05 29.9 L9.85 30.7 9.25 31.15 9.2 31.2 9.1 31.25 8.1 31.8 7.35 32.3 5.95 33.45 4.85 34.3 4.0 34.9 4.55 34.15 4.8 33.85 5.55 32.85 6.3 31.8 6.85 31.1 6.9 31.05 7.7 30.3 8.1 29.95 8.5 29.6 9.35 28.9 10.65 27.95 Q11.5 27.3 12.45 26.8 L13.45 26.25 13.85 26.0 14.85 25.55 15.25 25.35 15.7 25.15 15.85 25.1 16.85 24.7 18.45 24.1 18.6 24.1 18.9 24.0 18.95 24.0 19.3 23.9 19.5 23.85 20.05 23.7 20.45 23.6 21.55 23.35 21.85 23.3 22.95 23.15 24.5 23.2 Q25.75 23.25 27.05 23.65 L26.85 22.95 M27.8 32.8 L27.8 32.85 27.9 32.85 28.0 34.65 28.0 35.2 Q28.15 36.25 27.7 37.0 L27.75 36.85 25.75 36.45 23.65 36.15 22.1 36.0 21.0 35.95 20.55 35.9 19.9 35.9 19.35 35.85 18.45 35.7 16.85 35.45 16.8 35.45 16.1 35.45 15.9 35.45 15.25 35.5 15.05 35.6 14.65 35.65 14.55 35.75 14.55 35.85 14.55 35.9 14.55 36.05 14.3 36.1 14.3 36.2 13.5 36.45 13.45 36.7 13.5 36.35 11.5 36.85 9.65 37.1 Q10.2 36.85 10.7 36.7 L11.7 36.25 12.75 35.9 13.9 35.55 14.3 35.45 15.25 35.2 15.55 35.1 15.85 35.05 15.9 35.05 16.4 34.95 16.9 34.85 18.5 34.6 20.1 34.45 20.35 34.4 21.75 34.45 23.4 34.45 25.05 34.5 26.2 34.65 26.75 34.65 26.25 34.45 25.3 34.0 23.9 33.45 22.5 33.0 21.05 32.7 20.25 32.5 19.8 32.4 19.4 32.35 19.2 32.3 18.3 32.25 17.35 32.15 15.9 32.15 15.3 32.15 14.95 32.2 13.75 32.3 13.35 32.3 13.15 32.3 11.55 32.4 9.9 32.55 8.9 32.65 8.1 32.7 8.0 32.7 9.05 32.1 9.85 31.7 10.35 31.5 11.7 31.15 13.05 30.9 14.45 30.75 15.9 30.75 16.15 30.75 17.35 30.85 18.8 31.05 18.8 30.95 20.45 31.05 21.25 31.35 22.5 31.65 24.0 32.05 25.2 32.4 26.1 32.6 26.35 32.65 27.6 32.8 27.8 32.8 M26.25 41.6 Q26.65 42.7 25.6 43.1 L23.95 42.8 23.7 42.55 22.15 42.5 21.1 42.6 19.5 42.55 18.9 42.55 17.8 42.55 16.2 42.65 15.8 42.7 15.3 42.75 15.0 42.8 14.85 42.8 14.6 42.8 14.55 42.8 12.95 43.05 11.3 43.45 9.7 44.05 8.2 44.85 7.3 45.4 6.75 45.8 5.35 46.95 4.9 47.45 4.8 47.5 4.5 47.35 Q4.2 47.1 4.2 46.75 4.15 45.9 4.6 45.2 L4.85 45.05 5.05 44.9 5.1 44.85 6.1 44.3 7.1 43.75 8.1 43.2 9.15 42.75 9.65 42.5 10.2 42.3 11.25 41.85 12.35 41.5 Q13.1 41.35 13.9 41.5 L14.9 41.4 16.05 41.35 16.85 41.3 18.15 41.25 19.6 41.1 19.75 41.1 19.7 41.2 21.3 41.0 23.5 41.25 25.55 41.5 26.25 41.6" fill="#43432e" fill-rule="evenodd" stroke="none"/>
    <path d="M-1.3 -1.35 L-1.2 -1.5 -1.05 -1.65 -1.15 -1.3 -1.3 -1.35 M-5.5 8.9 L-5.65 8.85 -5.6 8.8 -5.5 8.9 M-4.35 7.2 L-4.4 7.15 -4.1 6.85 -4.35 7.2 M4.6 45.2 L4.15 45.5 3.65 42.8 Q3.5 41.85 3.5 40.9 L3.5 38.9 3.5 38.8 3.5 38.5 3.5 38.25 Q3.7 38.0 4.0 37.85 L5.15 38.1 Q6.1 37.5 7.3 37.3 L7.7 37.55 8.55 37.2 8.8 37.15 9.0 37.25 9.1 37.35 8.05 38.55 8.1 38.25 7.4 39.1 5.6 40.25 5.4 42.15 Q5.45 43.6 5.05 44.9 L4.85 45.05 4.6 45.2 M1.85 34.2 L0.95 32.6 0.3 31.4 -0.5 30.25 -1.3 29.1 -2.2 27.95 -1.0 27.0 0.05 26.2 1.35 25.25 1.55 25.4 1.6 25.95 Q1.7 29.1 3.0 32.05 3.45 33.15 2.6 34.0 L1.85 34.2" fill="#b3b38c" fill-rule="evenodd" stroke="none"/>
    <path d="M2.8 -7.35 L2.4 -6.95 1.35 -6.0 0.35 -4.95 -0.55 -3.95 -1.85 -2.3 -2.9 -0.6 -2.9 -0.55 -3.0 -0.45 Q-4.95 2.15 -6.2 5.15 L-6.15 4.7 -6.0 3.95 -5.7 2.35 -5.3 0.8 -4.8 -0.8 -4.3 -2.3 Q-3.9 -3.6 -2.95 -4.65 L-1.5 -5.95 Q-0.75 -6.5 0.15 -6.85 1.45 -7.45 2.95 -7.45 L2.8 -7.35 M3.7 -5.85 L5.7 -6.5 6.4 -6.5 6.6 -6.45 7.45 -6.35 10.45 -5.6 11.55 -5.25 10.95 -5.05 9.65 -4.65 8.4 -4.15 7.15 -3.55 6.0 -2.85 5.3 -2.45 5.15 -2.35 Q3.95 -3.85 3.7 -5.85 M-1.5 5.8 L-1.1 5.65 -0.75 5.5 -0.65 5.5 -0.6 5.45 0.6 5.05 1.7 4.85 2.85 4.7 3.95 4.6 5.05 4.55 6.15 4.55 7.2 4.55 8.3 4.55 8.8 4.6 10.9 4.8 14.05 5.4 17.1 6.3 16.25 6.45 14.6 6.8 12.9 7.2 11.3 7.7 10.55 8.0 10.4 8.05 9.45 6.85 6.0 6.5 Q3.2 6.3 0.5 6.6 L-0.6 6.75 Q-1.4 6.85 -1.5 6.1 L-1.5 5.8 M-3.25 19.8 L-2.35 18.8 -1.4 17.9 -0.9 17.45 -0.05 16.55 0.8 15.65 Q1.55 14.75 2.55 14.2 L2.45 14.05 3.45 13.2 3.75 13.75 3.7 13.3 Q3.65 13.0 3.9 12.9 L3.95 12.9 4.15 12.8 4.75 12.3 Q5.2 11.95 5.75 11.75 L6.95 11.15 7.5 10.9 8.35 10.4 9.95 9.75 10.05 9.7 11.8 9.05 13.6 8.6 14.45 8.4 15.35 8.3 15.55 8.25 15.6 8.25 16.6 8.15 18.05 8.1 20.7 8.25 21.7 8.4 23.05 10.85 23.4 11.6 24.05 13.9 24.85 16.85 24.8 16.85 23.9 16.7 23.85 16.7 21.85 16.55 19.95 16.55 19.6 16.55 18.0 16.6 17.0 16.65 16.1 16.75 13.3 17.35 12.35 17.6 12.0 15.85 10.7 12.05 7.7 12.95 8.5 15.1 8.95 16.3 9.1 16.7 9.65 18.55 10.1 18.4 10.05 18.55 Q9.65 19.1 9.15 18.8 L8.2 16.4 7.7 14.2 7.6 13.35 7.55 13.0 Q6.15 13.55 4.8 14.25 L5.4 15.65 5.9 16.85 6.6 18.15 6.95 18.9 6.75 18.9 4.2 14.6 2.55 15.6 4.2 17.9 5.75 20.1 5.7 20.15 5.55 20.35 4.95 20.3 5.05 20.25 2.3 15.75 0.2 17.15 -2.5 19.2 -2.6 19.3 -3.25 19.8 M19.5 4.1 L19.6 4.35 19.8 4.8 18.5 4.35 17.15 4.0 15.8 3.7 14.4 3.4 12.95 3.25 11.5 3.05 10.0 2.9 8.45 2.8 8.2 2.8 6.95 2.85 5.45 2.95 5.15 2.0 Q4.15 0.95 4.35 -0.05 L4.4 -0.1 5.75 -0.95 5.85 -1.0 6.7 -1.5 8.1 -2.25 9.1 -2.7 10.05 -3.2 11.05 -3.65 11.9 -4.2 12.3 -4.4 13.3 -4.55 14.3 -3.5 14.75 -3.1 15.3 -2.5 16.2 -1.35 17.05 -0.2 17.85 0.95 18.55 2.2 19.2 3.5 19.5 4.1 M25.5 18.5 L25.55 18.5 25.6 18.75 25.6 18.8 26.85 22.95 27.05 23.65 Q25.75 23.25 24.5 23.2 L22.95 23.15 21.85 23.3 21.55 23.35 20.45 23.6 20.05 23.7 19.5 23.85 19.3 23.9 18.95 24.0 18.9 24.0 18.6 24.1 18.45 24.1 16.85 24.7 15.85 25.1 15.7 25.15 15.25 25.35 14.85 25.55 13.85 26.0 13.45 26.25 13.05 25.55 11.8 22.85 Q11.5 22.3 11.5 21.85 L11.25 21.9 Q9.6 22.35 8.15 23.0 L5.65 24.4 Q4.55 24.7 3.5 25.25 L1.55 25.4 1.35 25.25 1.6 25.1 3.1 24.0 4.7 23.0 Q5.9 22.2 7.15 21.55 L9.75 20.25 12.35 19.1 13.2 18.8 14.15 18.5 15.1 18.3 16.0 18.1 17.35 17.9 17.85 17.85 19.75 17.85 21.65 17.85 23.55 18.1 24.4 18.25 25.2 18.45 25.5 18.5 M27.95 30.8 L28.25 32.8 27.8 32.8 27.6 32.8 26.35 32.65 26.1 32.6 25.2 32.4 24.0 32.05 22.5 31.65 21.25 31.35 20.45 31.05 18.8 30.95 18.8 31.05 17.35 30.85 16.15 30.75 15.9 30.75 14.45 30.75 13.05 30.9 11.7 31.15 10.35 31.5 9.85 31.7 9.05 32.1 8.0 32.7 8.1 32.7 8.9 32.65 8.0 33.05 7.1 33.5 6.1 33.8 5.25 34.3 4.85 34.3 5.95 33.45 7.35 32.3 8.1 31.8 9.1 31.25 9.2 31.2 9.25 31.15 9.85 30.7 11.05 29.9 Q11.6 29.45 12.2 29.1 L13.4 28.35 14.65 27.6 15.55 27.1 15.55 27.05 15.8 26.95 15.85 26.9 17.05 26.25 17.1 26.25 17.1 26.2 17.45 26.15 17.75 26.0 18.05 25.95 18.1 25.85 18.45 25.55 19.05 25.35 19.4 25.25 20.2 25.05 20.7 24.95 22.2 24.8 22.2 24.85 22.3 24.8 22.8 24.75 22.95 24.75 23.1 24.85 24.1 24.6 25.0 24.6 Q25.4 24.7 25.75 25.05 L26.3 25.85 26.8 26.9 27.25 27.9 27.6 28.9 27.95 30.8 M27.7 37.0 L26.75 41.7 26.25 41.6 25.55 41.5 23.5 41.25 21.3 41.0 21.0 41.0 19.75 41.1 19.6 41.1 18.15 41.25 16.85 41.3 16.05 41.35 16.0 38.45 15.9 35.45 16.1 35.45 16.8 35.45 16.85 35.45 18.45 35.7 19.35 35.85 19.9 35.9 20.55 35.9 21.0 35.95 22.1 36.0 23.65 36.15 25.75 36.45 27.75 36.85 27.7 37.0 M25.6 43.1 L25.85 43.15 25.55 44.1 24.75 45.2 Q24.2 45.65 23.45 45.75 L23.35 45.5 23.25 45.35 Q22.85 44.85 22.7 44.15 L22.65 43.8 22.4 45.75 19.5 46.3 16.5 46.35 15.3 46.15 15.0 46.05 12.45 45.95 11.75 46.1 8.5 45.7 7.3 45.4 8.2 44.85 9.7 44.05 11.3 43.45 12.95 43.05 14.55 42.8 14.6 42.8 14.85 42.8 15.0 42.8 15.3 42.75 15.75 42.75 15.8 42.7 16.2 42.65 17.8 42.55 18.9 42.55 19.5 42.55 21.1 42.6 22.15 42.5 23.7 42.55 23.95 42.8 25.6 43.1 M5.55 32.85 L4.8 33.85 4.55 34.15 4.45 33.7 5.55 32.85 M13.35 32.3 L13.75 32.3 14.95 32.2 15.3 32.15 15.9 32.15 17.35 32.15 18.3 32.25 19.2 32.3 19.4 32.35 19.8 32.4 20.25 32.5 21.05 32.7 22.5 33.0 23.9 33.45 25.3 34.0 26.25 34.45 26.2 34.65 25.05 34.5 23.4 34.45 21.75 34.45 20.35 34.4 20.1 34.45 18.5 34.6 16.9 34.85 16.4 34.95 15.9 35.05 15.9 34.8 15.7 34.85 15.55 35.1 15.25 35.2 14.3 35.45 13.9 35.55 13.5 35.2 Q13.1 34.75 13.0 34.2 12.75 32.9 13.35 32.3 M13.45 36.7 L13.5 36.45 14.3 36.2 14.35 37.45 14.2 38.7 13.75 39.9 13.65 39.1 13.5 38.0 13.4 37.7 13.45 36.7 M14.55 35.85 L14.55 35.75 14.65 35.65 15.05 35.6 15.25 35.5 Q14.95 35.85 14.55 35.85" fill="#7b7b53" fill-rule="evenodd" stroke="none"/>
    <path d="M10.1 48.7 L10.7 48.45 Q11.55 47.95 12.45 47.75 L14.45 47.3 15.35 47.3 15.4 47.3 15.5 47.25 15.45 47.3 15.1 47.7 14.45 48.75 14.35 49.05 14.3 49.4 Q13.8 50.05 13.7 50.95 13.65 51.3 13.9 51.6 14.5 52.35 15.55 52.05 L16.65 51.55 Q16.25 52.4 16.15 53.55 15.95 54.8 16.25 56.05 L16.65 58.0 15.9 57.1 Q15.0 55.95 14.45 54.65 L14.4 54.55 14.4 54.5 14.25 54.1 Q13.75 52.8 13.55 51.3 L13.5 51.2 13.5 50.95 13.45 50.85 13.35 50.6 Q12.8 49.45 12.1 49.1 L10.9 49.1 11.85 49.3 11.9 49.35 11.95 49.5 Q14.3 53.7 13.2 58.0 L13.0 57.9 Q12.35 57.6 12.35 56.85 12.35 54.15 11.15 51.8 L10.7 51.35 10.7 51.4 10.35 51.4 Q10.0 51.45 9.75 51.75 L9.35 52.1 9.25 52.35 8.95 52.8 8.9 56.05 8.85 56.5 8.85 56.9 8.85 56.95 Q8.9 58.6 10.65 59.8 L10.35 60.0 Q9.05 59.25 8.45 58.25 L7.85 59.6 7.3 59.15 6.45 58.3 6.1 57.9 6.45 56.7 6.95 55.85 7.1 55.5 Q7.7 53.25 9.05 51.4 L10.05 50.35 10.4 49.85 10.55 49.1 10.1 48.7 M16.6 47.9 L16.3 48.0 15.85 48.2 15.6 48.35 15.1 48.65 15.35 48.45 Q15.7 48.15 16.1 48.0 L16.6 47.9 M18.3 47.95 L19.15 48.0 20.7 47.95 22.4 47.55 23.45 47.25 23.75 47.75 23.6 47.8 24.15 48.05 24.9 48.5 25.1 48.65 19.15 49.1 18.9 49.2 18.85 48.75 18.3 47.95 M-2.25 116.7 L-2.15 116.7 -2.1 116.75 Q-1.8 117.5 -1.0 117.85 L-0.8 118.1 0.65 118.9 3.4 119.9 5.25 120.35 5.1 120.7 4.8 121.45 4.75 121.55 4.5 121.85 Q4.3 121.9 4.15 122.0 L3.85 122.05 3.05 121.95 1.7 121.35 -0.75 120.3 -1.85 119.85 -2.8 119.2 -3.25 118.7 -3.4 118.55 -3.45 118.4 -3.5 118.1 -3.55 117.95 -3.5 117.85 -3.2 117.3 -3.05 117.2 -2.3 117.05 -2.25 116.7 M14.5 120.95 L14.0 120.8 10.7 121.05 10.45 120.8 10.15 120.45 Q10.0 120.2 10.45 119.65 L10.85 119.5 11.2 119.3 Q12.4 118.65 13.8 118.5 16.1 118.7 16.15 119.95 17.05 121.85 15.25 121.3 L14.8 121.05 14.5 120.95 M15.15 121.7 L15.65 122.3 Q16.45 123.0 17.5 122.8 L18.15 122.7 18.7 122.1 19.15 122.55 Q22.2 125.7 24.6 129.4 L24.6 130.3 24.15 130.85 23.95 131.05 23.15 131.05 23.05 130.95 22.5 131.15 22.45 131.1 22.0 130.95 21.9 130.95 20.25 130.65 Q16.9 129.7 13.85 128.1 12.1 127.15 10.7 125.75 L9.9 125.1 9.55 124.3 Q9.15 123.25 9.3 122.15 L9.6 120.9 Q10.4 121.5 11.45 121.5 L15.15 121.7" fill="#b7b7b7" fill-rule="evenodd" stroke="none"/>
    <path d="M7.85 59.6 L8.45 58.25 Q9.05 59.25 10.35 60.0 L10.65 59.8 Q8.9 58.6 8.85 56.95 L8.85 56.9 8.85 56.5 8.9 56.05 8.95 52.8 9.25 52.35 9.35 52.1 9.75 51.75 Q10.0 51.45 10.35 51.4 L10.7 51.4 10.7 51.35 11.15 51.8 Q12.35 54.15 12.35 56.85 12.35 57.6 13.0 57.9 L13.2 58.0 12.25 60.45 Q13.55 59.3 14.1 57.4 L14.1 57.3 14.15 57.15 14.3 56.55 14.35 56.7 14.65 57.1 15.25 57.85 17.1 59.5 17.25 59.6 18.3 60.3 14.65 61.05 13.55 61.35 Q12.9 61.55 12.7 62.0 L12.3 61.9 11.2 61.5 10.15 61.05 9.15 60.55 8.2 59.9 7.85 59.6 M16.65 58.0 L16.25 56.05 Q15.95 54.8 16.15 53.55 16.25 52.4 16.65 51.55 17.35 50.05 18.9 49.2 L19.15 49.1 25.1 48.65 24.9 48.5 24.15 48.05 23.6 47.8 23.75 47.75 24.05 47.7 24.85 47.65 25.6 47.9 26.3 48.25 26.5 48.45 26.6 48.55 28.9 50.85 28.95 51.35 29.0 52.9 28.9 53.35 28.75 52.95 28.6 52.5 28.35 52.0 27.75 51.1 27.1 50.3 26.4 49.55 25.6 49.0 25.9 50.65 Q26.45 52.7 25.95 54.6 L25.75 53.5 25.4 53.05 25.05 52.6 23.65 51.25 22.85 50.4 Q21.55 49.25 19.95 49.7 21.9 49.8 23.65 51.25 L25.4 53.05 Q26.1 54.4 25.3 55.7 23.2 55.85 21.5 54.15 L18.75 50.9 18.75 51.1 Q19.75 52.9 21.35 54.5 23.0 56.15 25.3 55.9 L25.35 55.95 24.85 56.75 23.25 58.2 Q21.25 59.3 19.1 60.05 L16.65 58.0 M14.3 49.4 L14.35 49.05 14.45 48.75 15.1 47.7 15.45 47.3 16.9 47.65 17.2 47.9 17.05 47.9 16.95 47.9 16.6 47.9 16.1 48.0 Q15.7 48.15 15.35 48.45 L15.1 48.65 15.05 48.65 15.0 48.75 14.95 48.8 14.9 48.85 14.7 49.2 14.45 49.7 14.3 49.4 M15.4 47.3 L15.35 47.3 15.35 47.25 15.4 47.3 M-2.15 116.7 L-0.4 116.8 -0.5 116.85 -0.15 116.85 0.55 117.15 0.75 117.35 1.5 117.85 Q3.05 118.9 4.7 119.55 L4.85 119.6 6.35 119.65 9.2 119.45 10.85 118.95 Q13.3 118.0 15.3 116.2 15.5 116.0 15.8 115.95 L19.5 116.3 19.65 116.5 19.7 116.55 20.1 116.55 20.2 116.5 20.45 116.55 20.2 117.8 19.8 118.85 19.75 119.0 19.35 119.6 19.25 119.8 19.4 119.65 19.55 119.8 Q19.25 119.95 19.2 120.4 L19.2 120.55 Q19.95 121.35 21.1 121.55 L21.4 121.65 22.4 121.9 24.5 121.65 25.75 121.35 27.5 120.5 28.45 121.3 Q29.75 123.0 30.5 125.0 30.9 126.25 30.6 127.5 L30.65 127.7 30.4 128.15 30.3 128.3 30.25 128.4 28.95 130.25 27.8 131.3 26.7 131.8 26.1 131.95 22.7 132.25 23.05 132.35 24.3 132.7 25.6 133.0 26.85 132.8 27.95 132.45 28.35 132.3 28.45 132.2 29.05 131.85 30.1 131.1 31.1 130.3 32.05 129.4 32.5 128.95 Q32.55 126.05 31.45 123.35 L30.75 121.85 28.9 118.95 27.65 117.6 27.0 116.9 27.1 116.7 27.35 116.05 Q29.1 117.3 30.5 119.05 L32.2 121.65 33.3 124.55 33.75 127.2 33.8 128.85 33.65 130.55 33.55 131.15 Q31.5 132.9 28.8 133.55 L26.7 133.75 24.5 133.65 24.4 133.65 23.4 133.45 23.85 135.3 24.0 136.05 24.05 136.3 23.3 136.3 21.1 135.8 Q19.3 134.85 18.25 133.2 L18.15 133.05 17.55 131.8 16.5 131.25 16.35 131.15 16.4 131.2 16.65 131.5 17.05 132.25 17.15 133.0 17.15 133.05 16.85 134.55 15.85 133.9 14.95 133.1 14.15 132.1 13.75 131.45 13.5 130.9 12.8 128.85 12.75 128.7 12.85 128.85 13.3 129.15 12.9 128.8 12.2 128.2 12.15 128.05 Q12.2 127.65 12.4 127.5 L11.15 126.75 10.3 126.15 9.8 125.8 8.35 124.75 8.2 124.6 7.35 123.7 5.3 120.8 4.8 121.45 5.1 120.7 5.25 120.35 3.4 119.9 0.65 118.9 -0.8 118.1 -1.0 117.85 Q-1.8 117.5 -2.1 116.75 L-2.15 116.7 M20.15 113.85 L20.2 114.0 20.2 113.95 20.1 113.9 20.15 113.85 M14.5 120.95 L14.8 121.05 15.25 121.3 Q17.05 121.85 16.15 119.95 16.1 118.7 13.8 118.5 12.4 118.65 11.2 119.3 L10.85 119.5 10.45 119.65 Q10.0 120.2 10.15 120.45 L10.45 120.8 10.7 121.05 14.0 120.8 14.5 120.95 M15.15 121.7 L11.45 121.5 Q10.4 121.5 9.6 120.9 L9.3 122.15 Q9.15 123.25 9.55 124.3 L9.9 125.1 10.7 125.75 Q12.1 127.15 13.85 128.1 16.9 129.7 20.25 130.65 L21.9 130.95 22.0 130.95 22.45 131.1 22.5 131.15 23.05 130.95 23.15 131.05 23.95 131.05 24.15 130.85 24.6 130.3 24.6 129.4 Q22.2 125.7 19.15 122.55 L18.7 122.1 18.15 122.7 17.5 122.8 Q16.45 123.0 15.65 122.3 L15.15 121.7 M10.5 130.0 L9.9 129.3 Q9.4 128.85 9.3 128.15 9.2 127.35 9.45 126.6 L9.45 126.5 Q10.75 127.1 11.6 128.2 L12.0 128.8 12.6 130.65 12.3 130.95 11.05 131.85 10.75 130.4 10.5 130.0 M8.4 128.35 L7.75 128.5 7.1 128.15 7.05 128.1 6.45 127.0 6.0 125.85 5.85 125.3 6.25 124.1 6.9 124.6 7.85 125.4 8.1 125.6 8.65 126.1 8.65 128.2 8.4 128.35 M4.6 126.15 L4.6 126.35 3.9 125.7 3.2 125.05 2.55 124.25 2.45 124.15 2.3 123.95 1.95 123.35 1.75 122.7 1.7 122.5 5.0 123.4 4.85 123.85 4.8 124.15 4.7 124.85 4.6 125.6 4.6 126.15 M0.5 124.35 L0.2 124.6 Q-0.55 124.2 -0.95 123.4 L-1.25 122.55 -1.4 121.5 0.7 122.0 0.75 122.1 0.8 122.15 Q1.1 122.75 0.95 123.35 L0.5 124.35 M-2.8 122.35 L-3.0 122.55 -3.45 122.9 -3.85 122.35 -4.35 121.7 -3.65 120.5 -2.6 121.1 -2.25 121.3 Q-2.35 121.85 -2.8 122.35 M-3.55 117.95 L-3.4 117.4 -3.2 117.3 -3.5 117.85 -3.55 117.95 M27.95 114.05 L28.5 114.35 28.55 114.4 29.05 114.6 30.45 115.15 Q31.1 115.45 31.6 116.2 L31.9 116.65 32.0 116.9 33.1 118.45 33.15 118.55 33.1 117.5 33.4 117.15 34.1 117.0 Q37.55 118.45 38.2 122.25 L38.35 123.1 Q38.75 124.5 38.45 125.85 L38.1 126.25 37.9 126.35 36.75 126.05 36.7 126.1 36.45 125.7 35.9 124.7 35.05 123.3 34.1 121.95 33.15 120.55 32.05 119.3 30.9 118.05 30.75 117.9 29.7 116.9 29.35 116.55 29.1 116.3 28.9 116.1 28.15 115.5 27.95 115.3 27.55 114.95 27.5 115.1 27.55 114.85 27.95 114.05" fill="#787878" fill-rule="evenodd" stroke="none"/>
    <path d="M10.1 48.7 L10.55 49.1 10.4 49.85 10.05 50.35 9.05 51.4 Q7.7 53.25 7.1 55.5 L6.95 55.85 6.45 56.7 6.1 57.9 6.05 57.8 6.15 55.75 Q6.3 54.75 6.7 53.8 L7.55 51.9 8.1 50.4 8.25 49.85 9.05 49.3 10.1 48.7 M16.65 51.55 L15.55 52.05 Q14.5 52.35 13.9 51.6 13.65 51.3 13.7 50.95 13.8 50.05 14.3 49.4 L14.45 49.7 14.7 49.2 14.9 48.85 14.95 48.8 15.0 48.75 15.05 48.65 15.1 48.65 15.6 48.35 15.85 48.2 16.3 48.0 16.6 47.9 16.95 47.9 17.05 47.9 17.2 47.9 18.1 47.95 18.3 47.95 18.85 48.75 18.9 49.2 Q17.35 50.05 16.65 51.55 M10.55 49.1 L10.4 49.1 10.55 49.1" fill="#ffffff" fill-rule="evenodd" stroke="none"/>
    <path d="M13.2 58.0 Q14.3 53.7 11.95 49.5 L11.9 49.35 11.85 49.3 10.9 49.1 12.1 49.1 Q12.8 49.45 13.35 50.6 L13.45 50.85 13.5 50.95 13.5 51.2 13.55 51.3 Q13.75 52.8 14.25 54.1 L14.4 54.5 14.4 54.55 14.45 54.65 Q15.0 55.95 15.9 57.1 L16.65 58.0 19.1 60.05 Q21.25 59.3 23.25 58.2 L24.85 56.75 25.35 55.95 25.3 55.9 Q23.0 56.15 21.35 54.5 19.75 52.9 18.75 51.1 L18.75 50.9 21.5 54.15 Q23.2 55.85 25.3 55.7 26.1 54.4 25.4 53.05 L23.65 51.25 Q21.9 49.8 19.95 49.7 21.55 49.25 22.85 50.4 L23.65 51.25 25.05 52.6 25.4 53.05 25.75 53.5 25.95 54.6 Q26.45 52.7 25.9 50.65 L25.6 49.0 26.4 49.55 27.1 50.3 27.75 51.1 28.35 52.0 28.6 52.5 28.75 52.95 28.9 53.35 29.0 54.0 28.9 55.3 28.7 55.9 28.5 56.45 28.3 57.0 28.0 57.55 27.7 58.05 27.35 58.5 27.0 58.95 26.15 59.75 25.15 60.5 23.4 61.45 21.75 61.95 20.0 62.25 18.25 62.4 17.05 62.45 16.45 62.45 15.85 62.4 14.65 62.3 13.45 62.15 12.7 62.0 Q12.9 61.55 13.55 61.35 L14.65 61.05 18.3 60.3 17.25 59.6 17.1 59.5 15.25 57.85 14.65 57.1 14.35 56.7 14.3 56.55 14.15 57.15 14.1 57.3 14.1 57.4 Q13.55 59.3 12.25 60.45 L13.2 58.0 M23.45 47.25 L23.8 47.1 25.1 46.55 26.4 45.95 27.05 45.55 27.4 46.15 28.05 47.35 28.35 48.2 28.5 48.7 28.85 50.15 28.95 50.9 28.9 50.85 26.6 48.55 26.5 48.45 26.3 48.25 25.6 47.9 24.85 47.65 24.05 47.7 23.75 47.75 23.45 47.25" fill="#606060" fill-rule="evenodd" stroke="none"/>
    <path d="M8.85 56.95 L8.85 56.9 8.85 56.95" fill="#8b9ac5" fill-rule="evenodd" stroke="none"/>
    <path d="M24.2 63.4 Q24.35 62.9 24.05 62.45 L24.5 62.15 25.8 62.05 25.9 62.05 26.15 62.2 25.75 62.45 26.95 63.1 28.05 63.85 28.95 64.55 29.1 64.65 30.1 65.5 30.3 65.7 30.35 65.8 30.5 65.9 31.05 66.5 31.9 67.55 32.75 68.65 33.5 69.85 33.4 68.7 33.1 67.6 32.5 66.6 31.7 65.6 31.4 65.35 30.75 64.75 30.7 64.7 30.5 64.55 30.25 64.35 29.7 63.9 28.7 63.15 27.7 62.45 27.2 62.45 28.7 60.25 30.9 61.5 29.1 61.45 29.1 61.95 30.2 62.8 31.5 63.95 31.7 64.1 31.75 64.15 32.4 64.9 32.6 65.15 33.4 66.2 34.1 67.3 34.65 68.4 34.9 69.0 35.3 70.25 35.8 72.1 36.1 73.3 36.3 74.5 36.4 75.65 36.45 76.8 36.45 77.9 36.3 79.5 35.55 78.1 34.7 76.65 33.75 75.25 32.7 73.8 32.9 74.3 33.6 75.9 34.1 77.0 34.65 78.15 34.95 79.5 35.05 80.85 35.05 82.35 34.85 83.85 34.8 84.65 34.45 84.65 34.5 83.85 Q34.45 81.4 33.65 79.3 L33.35 78.1 33.2 78.25 Q32.05 75.9 29.95 74.0 31.65 76.1 32.8 78.55 L32.6 78.6 32.0 79.85 32.35 80.5 31.9 80.1 31.75 80.95 31.6 82.55 Q31.5 84.15 31.95 85.6 L32.2 86.35 31.8 85.8 31.45 85.2 31.4 85.15 31.1 84.65 31.05 85.15 30.95 86.2 30.95 86.3 31.15 87.05 32.15 88.3 33.0 89.1 33.55 89.95 33.85 90.85 34.05 92.35 34.3 93.3 34.8 94.35 35.2 95.1 36.1 96.25 36.85 97.35 37.15 97.8 37.6 99.0 38.0 99.95 38.05 100.15 38.05 100.25 38.25 102.25 38.25 102.5 38.0 104.1 38.0 104.15 37.85 104.75 37.85 104.8 37.8 104.75 37.4 104.2 36.8 103.3 Q35.8 101.7 35.2 99.9 L34.9 99.1 34.6 99.95 Q34.25 101.0 34.6 102.05 L34.7 102.4 35.35 104.2 36.05 105.8 36.7 107.15 37.1 108.4 37.1 109.7 36.75 111.1 36.3 111.65 32.5 107.75 34.05 110.6 34.6 111.7 35.1 113.75 34.75 113.5 Q34.0 112.95 33.15 112.65 32.3 112.3 31.4 112.2 L30.6 112.05 33.0 111.15 33.0 111.1 32.95 111.1 Q32.2 107.95 29.25 105.95 L28.6 105.2 28.5 105.0 27.35 105.7 26.7 106.3 25.45 106.7 25.4 106.7 25.3 106.75 25.25 106.8 Q22.55 108.05 21.6 111.45 21.15 113.1 21.55 114.45 L21.6 114.6 21.5 114.85 21.5 114.65 21.45 114.45 20.25 112.65 19.75 112.1 Q19.2 111.7 18.45 111.8 L18.35 111.8 18.3 111.85 18.25 111.85 18.65 112.1 19.4 112.75 19.5 112.85 19.55 112.9 19.4 112.85 19.0 112.75 18.15 112.95 18.1 113.0 17.8 113.0 17.25 112.8 Q16.35 112.55 15.55 112.8 14.6 113.1 13.8 114.05 L13.55 114.4 13.3 114.75 13.25 114.75 13.15 114.5 13.2 114.5 Q13.0 113.85 13.45 113.25 L12.75 113.25 11.9 114.6 11.8 114.7 11.8 114.55 11.55 113.45 Q12.2 111.85 11.95 110.0 L11.65 108.6 11.6 108.45 11.15 107.15 10.9 106.2 Q10.05 104.95 9.75 103.7 11.65 101.3 11.5 98.7 L11.45 98.4 11.4 98.1 11.4 97.95 11.3 97.6 11.35 97.95 11.4 98.1 11.35 97.95 11.15 96.9 11.6 95.7 Q11.85 94.35 12.85 93.35 L12.95 93.1 13.0 92.9 13.05 92.65 13.2 92.45 13.8 91.95 14.1 92.0 Q14.7 94.7 14.3 97.25 L13.9 99.0 12.85 101.4 11.05 103.9 12.5 102.2 13.0 101.45 14.2 98.6 14.6 96.65 14.7 95.0 14.2 92.0 Q15.75 92.45 15.75 94.45 15.75 98.65 13.7 102.45 15.15 103.4 16.05 104.7 L16.2 104.25 18.0 98.6 Q18.5 96.65 18.55 94.6 18.55 93.8 19.25 93.5 20.05 93.55 20.5 94.05 L20.5 98.3 Q20.35 100.6 19.8 102.9 L20.95 98.9 20.4 102.95 20.7 102.75 21.25 101.5 21.15 102.5 Q21.85 102.15 22.65 101.95 L22.75 101.6 22.8 99.15 22.1 96.45 21.2 93.4 21.0 91.85 20.85 91.35 20.7 91.1 20.7 91.05 20.65 90.85 20.55 90.65 20.4 90.4 19.5 88.75 19.7 89.4 Q19.05 91.35 17.55 92.75 L17.35 92.85 17.05 92.9 17.35 92.75 17.15 89.45 17.35 89.25 18.3 84.7 Q18.4 83.6 19.15 82.9 L19.2 82.35 Q19.85 77.05 19.6 71.75 L19.55 71.4 19.65 71.4 20.35 72.0 20.45 72.1 20.35 71.95 20.2 71.7 19.7 70.8 19.85 70.7 19.75 70.65 19.55 70.4 19.5 70.35 19.45 69.55 19.15 69.65 18.95 69.15 18.7 68.45 18.55 67.3 18.85 65.55 Q19.05 64.75 19.7 64.35 L19.8 64.3 Q20.3 63.9 20.95 63.85 L22.0 66.15 21.9 65.4 21.9 65.2 21.95 65.05 21.95 65.0 22.05 65.05 Q25.25 66.2 27.55 68.6 L28.05 69.2 28.45 69.2 29.3 69.9 29.15 68.5 29.15 68.3 29.2 68.05 29.2 67.7 29.2 67.65 29.1 67.35 28.95 67.0 28.9 66.85 28.75 66.4 28.6 66.05 28.9 66.25 29.1 66.4 29.65 66.75 29.25 66.35 28.55 65.75 Q27.5 64.9 26.4 64.55 L24.25 63.35 24.2 63.4 M29.25 77.05 L29.05 76.35 29.05 76.2 Q28.55 74.45 26.8 73.95 L26.35 74.05 26.05 74.35 Q25.75 74.7 25.75 75.1 L25.95 75.35 26.5 76.15 26.55 76.25 26.65 76.45 27.75 81.0 27.75 81.15 27.7 82.35 27.6 83.15 28.45 84.5 27.95 86.7 27.95 87.0 Q28.2 88.45 28.7 89.65 L28.8 89.85 29.1 90.45 29.1 90.5 Q29.75 91.6 30.7 92.4 L30.85 92.5 30.9 92.55 31.1 92.7 31.15 92.7 31.05 92.6 30.9 92.4 Q29.95 91.2 29.45 89.85 L29.25 89.1 29.15 88.7 29.15 88.4 29.2 86.6 29.2 85.45 29.7 86.0 30.45 86.0 Q30.8 85.7 30.75 85.3 L30.6 84.7 30.35 84.2 30.35 83.9 30.35 83.1 Q30.25 80.3 29.5 77.75 L29.2 77.45 29.35 77.5 29.45 77.55 29.5 77.55 29.95 77.8 29.25 77.05 M26.65 78.85 Q26.6 77.35 26.1 76.05 L26.1 76.15 26.25 77.05 26.5 79.4 Q26.55 80.15 26.75 80.9 L26.65 78.85 M27.5 83.55 L27.45 83.55 27.5 83.6 27.5 83.55 M33.65 80.9 L33.55 80.85 33.6 80.7 33.65 80.9 M31.35 97.9 Q30.4 99.75 31.15 101.7 32.0 103.65 33.75 104.4 31.05 101.5 32.35 97.9 L32.55 97.4 32.0 97.45 31.4 97.85 31.35 97.9 M26.8 88.65 L26.8 88.9 26.85 89.35 Q26.9 91.3 28.25 91.85 27.75 90.45 27.4 88.95 L26.75 85.55 26.8 88.65 M30.85 107.0 L31.15 106.85 Q29.0 104.95 28.45 102.4 28.3 105.3 30.85 107.0 M17.0 64.35 L17.05 66.2 17.1 67.05 18.0 69.95 18.15 70.35 Q18.6 73.5 18.2 76.6 L17.9 76.85 Q16.75 76.95 16.2 76.3 L15.85 75.75 15.65 75.1 15.6 75.0 15.4 74.05 15.25 73.8 Q13.75 71.55 13.75 69.0 L13.7 69.0 13.75 68.95 13.35 68.55 Q13.15 66.3 13.5 63.95 L14.45 64.15 14.3 64.8 Q14.0 65.95 14.3 67.15 14.45 67.9 14.95 68.65 L14.95 68.15 Q15.0 67.0 15.5 65.95 15.85 65.1 16.35 64.35 L17.0 64.35 M12.85 68.6 L11.5 70.85 11.35 71.05 11.4 71.05 11.1 71.45 11.05 71.45 Q10.3 72.2 9.35 72.35 L9.6 72.1 8.85 72.2 8.7 72.2 8.2 72.35 7.55 71.8 7.4 71.6 6.85 70.75 7.15 70.7 7.75 70.65 7.8 70.6 7.9 70.65 Q7.8 69.6 8.05 68.45 L8.4 67.05 8.4 66.95 8.45 66.95 8.55 66.8 8.5 66.75 8.6 66.5 9.4 65.05 10.8 64.65 10.6 65.2 Q10.15 66.25 10.15 67.45 L10.15 67.95 10.1 68.0 9.85 68.45 10.0 68.7 10.25 68.8 10.3 69.2 10.35 68.95 10.35 68.85 11.45 69.8 11.75 68.55 12.7 68.85 12.85 68.6 M3.85 101.7 Q7.0 99.1 8.45 95.5 8.15 98.9 5.7 100.7 L3.85 101.7 M10.5 82.35 L10.35 82.65 9.75 84.2 9.75 84.35 9.7 84.4 Q10.3 80.95 12.25 78.05 L12.55 78.5 12.55 79.05 Q11.4 80.5 10.6 82.15 L10.5 82.35 M9.7 86.65 Q10.5 84.65 11.95 83.4 10.65 84.95 9.7 86.75 L9.7 86.65 M8.45 90.05 L8.45 92.45 Q7.75 92.05 8.0 91.2 8.15 90.6 8.45 90.05 M8.6 92.55 Q8.95 90.8 9.6 89.25 L9.8 88.7 Q10.55 86.85 11.7 85.15 L11.7 85.1 12.0 84.7 12.2 84.4 13.75 82.6 Q14.6 81.95 15.55 81.45 L15.6 81.45 15.65 81.6 Q18.15 82.6 16.0 84.65 L15.95 84.7 15.9 84.75 15.75 86.35 15.75 86.55 14.1 88.3 12.3 90.1 Q11.75 90.6 11.2 90.35 L11.15 90.45 9.2 92.55 8.7 92.55 8.6 92.55 M8.25 75.7 Q6.15 78.2 3.45 79.8 5.65 77.7 8.25 75.7 M15.65 81.65 L15.9 84.65 15.65 81.6 15.65 81.65 M0.5 109.55 L0.5 109.4 1.15 107.85 Q1.35 107.45 1.7 107.3 L2.15 106.85 2.7 106.45 Q4.65 106.7 5.9 107.65 L6.15 108.25 6.5 111.3 6.5 111.35 Q6.25 113.75 5.35 115.25 6.4 114.2 6.75 112.85 7.2 110.35 6.2 108.25 L5.95 107.7 Q8.0 109.25 7.9 112.7 7.75 115.8 5.05 117.55 L3.8 118.3 Q2.5 117.85 1.4 116.85 3.05 116.15 2.95 114.95 1.15 115.6 -0.4 116.8 L-2.15 116.7 -2.25 116.7 -3.65 115.65 -2.9 114.8 -2.6 114.6 -2.3 114.5 -0.4 114.55 0.1 114.55 0.15 114.55 0.4 114.45 0.9 114.2 0.95 114.15 1.05 114.1 1.1 114.05 1.95 113.35 2.5 112.45 2.6 111.65 Q1.65 111.4 1.1 112.15 L1.05 112.2 0.75 112.5 0.55 112.7 0.5 112.65 0.9 111.5 0.8 110.45 0.75 110.35 1.15 109.3 1.15 109.25 0.95 108.95 0.95 109.0 0.75 109.25 0.5 109.55 M1.7 107.3 L1.65 107.5 1.7 107.3 M1.6 107.8 L1.55 107.75 1.4 107.7 1.55 107.8 Q4.7 110.5 3.85 114.2 5.1 112.65 4.35 110.8 3.6 108.8 1.6 107.8 M8.45 88.25 L8.45 88.75 Q7.05 90.85 7.05 93.55 6.55 90.75 8.45 88.25 M19.3 94.25 L16.9 104.8 Q18.95 99.7 19.3 94.25 M14.0 112.05 L14.3 112.05 Q15.05 109.05 13.05 106.85 14.35 109.25 14.0 112.05" fill="#0b3d66" fill-rule="evenodd" stroke="none"/>
    <path d="M28.6 66.05 L28.75 66.4 28.9 66.85 28.85 66.85 27.5 65.45 28.6 66.05 M29.15 68.3 L29.15 68.5 29.3 69.9 28.45 69.2 28.75 69.2 29.15 68.3 M19.5 70.35 L19.55 70.4 19.75 70.65 19.7 70.7 19.5 70.4 19.5 70.35 M20.55 90.65 L20.65 90.85 20.7 91.05 20.55 90.65 M11.6 108.45 L11.65 108.6 11.95 110.0 Q12.2 111.85 11.55 113.45 11.2 111.2 11.4 108.7 L11.4 108.5 11.6 108.45 M38.0 99.95 L37.6 99.0 37.15 97.8 38.0 99.95 M33.2 78.25 L33.35 78.1 33.65 79.3 33.2 78.25 M29.25 77.05 L29.95 77.8 29.5 77.55 29.45 77.55 29.25 77.05 M24.25 114.2 L24.2 114.2 24.2 113.75 24.25 114.2 M17.0 64.35 L17.35 64.35 Q17.15 65.5 17.3 66.6 17.45 67.95 18.0 69.15 L18.4 69.9 18.1 69.95 18.15 70.35 18.0 69.95 17.1 67.05 17.05 66.2 17.0 64.35 M10.25 68.8 L10.0 68.7 9.85 68.45 10.1 68.0 10.15 67.95 10.25 68.8 M6.85 70.75 L7.4 71.6 7.55 71.8 8.2 72.35 Q7.75 72.45 7.4 72.7 6.6 73.15 5.9 73.7 L3.8 75.5 3.8 72.65 3.75 72.15 Q5.1 71.05 6.85 70.75 M5.95 63.45 L6.15 63.3 Q6.75 62.65 7.55 62.55 L8.6 62.65 8.35 63.4 7.7 65.0 7.5 65.55 7.45 65.75 Q6.5 64.7 5.95 63.45 M3.9 101.85 L3.85 101.7 5.7 100.7 5.75 100.8 3.9 101.85 M10.6 82.15 L10.5 82.35 10.4 82.65 Q10.05 83.5 9.85 84.45 L9.7 84.4 9.75 84.35 9.75 84.2 10.35 82.65 10.5 82.35 10.6 82.15 M13.75 82.6 L14.95 81.25 15.0 81.15 15.35 81.25 15.6 81.4 15.6 81.45 15.55 81.45 Q14.6 81.95 13.75 82.6 M15.75 86.55 L15.6 87.4 15.5 89.5 Q15.55 90.4 15.9 91.25 L14.45 88.25 14.25 88.45 14.1 88.3 15.75 86.55 M1.7 107.3 L1.65 107.5 1.7 107.3 M0.5 112.65 L0.55 112.7 0.4 112.75 0.5 112.65 M9.6 95.25 L9.55 95.4 9.6 95.25 M11.4 98.7 Q11.35 100.55 10.05 102.0 10.95 100.55 11.4 98.7 M21.9 119.8 L21.85 119.8 21.85 119.65 21.9 119.8" fill="#0e5085" fill-rule="evenodd" stroke="none"/>
    <path d="M24.2 63.4 L24.25 63.35 24.2 63.4 M22.05 65.05 L21.95 65.0 22.05 65.05 M19.15 69.65 L19.45 69.55 19.5 70.35 19.5 70.4 19.35 70.0 19.15 69.65 M17.35 89.25 L17.15 89.45 17.15 89.25 17.35 89.25 M26.35 64.55 L26.4 64.55 26.35 64.55 M26.65 78.85 L26.75 80.9 Q26.55 80.15 26.5 79.4 L26.25 77.05 26.1 76.15 26.1 76.05 Q26.6 77.35 26.65 78.85 M26.35 109.2 L26.4 109.25 25.3 110.6 26.35 109.2 M8.5 66.75 L8.55 66.8 8.45 66.95 8.5 66.75 M7.9 70.65 L7.8 70.6 7.85 70.6 7.9 70.65 M-1.2 101.25 L-0.2 99.7 -0.1 99.6 -1.2 101.25 M0.4 99.8 L0.35 99.85 0.35 99.8 0.4 99.8 M10.6 82.15 L10.5 82.35 10.6 82.15 M15.65 81.65 L15.65 81.6 15.9 84.65 15.65 81.65 M5.45 106.1 L5.5 106.05 5.5 106.15 5.45 106.1 M11.3 108.7 L11.4 108.5 11.4 108.7 11.3 108.7 M0.75 110.35 L0.8 110.45 0.7 110.4 0.75 110.35" fill="#1060a0" fill-rule="evenodd" stroke="none"/>
    <path d="M24.25 63.35 L26.4 64.55 26.35 64.55 26.3 64.55 26.2 64.55 26.1 64.5 26.05 64.5 26.0 64.45 25.85 64.45 25.8 64.45 25.75 64.45 25.65 64.4 25.55 64.4 25.45 64.4 25.4 64.35 25.2 64.35 25.15 64.35 25.5 64.5 25.75 64.6 25.8 64.65 27.5 65.45 28.85 66.85 28.9 66.85 28.95 67.0 29.1 67.35 29.2 67.65 29.2 67.7 29.2 68.05 29.15 68.3 28.75 69.2 28.45 69.2 28.05 69.2 27.55 68.6 Q25.25 66.2 22.05 65.05 L21.95 65.0 22.0 64.9 Q22.55 64.15 23.45 64.15 L23.95 63.85 24.2 63.4 24.25 63.35 M19.55 71.4 L19.6 71.75 Q19.85 77.05 19.2 82.35 L19.15 82.9 Q18.4 83.6 18.3 84.7 L17.35 89.25 17.15 89.25 17.15 89.45 17.35 92.75 17.05 92.9 16.85 93.05 16.55 92.85 Q14.75 91.4 14.25 88.45 L14.45 88.25 15.9 91.25 Q15.55 90.4 15.5 89.5 L15.6 87.4 15.75 86.55 15.75 86.35 15.9 84.75 15.95 84.7 16.0 84.65 Q18.15 82.6 15.65 81.6 L15.6 81.45 15.6 81.4 15.35 81.25 15.0 81.15 14.95 81.25 13.75 82.6 12.2 84.4 12.0 84.7 11.7 85.1 11.7 85.15 Q10.55 86.85 9.8 88.7 L9.6 89.25 Q8.95 90.8 8.6 92.55 L8.45 93.25 8.45 92.45 8.45 90.05 8.45 88.75 8.65 88.95 8.7 88.85 8.95 88.2 9.7 86.75 Q10.65 84.95 11.95 83.4 10.5 84.65 9.7 86.65 9.65 85.5 9.85 84.45 10.05 83.5 10.4 82.65 L10.5 82.35 10.6 82.15 Q11.4 80.5 12.55 79.05 L12.55 78.5 13.85 76.6 13.8 76.45 Q13.55 75.9 13.0 75.85 9.9 76.25 8.25 79.05 L7.05 79.15 Q6.65 79.2 6.5 79.55 L5.75 82.2 3.9 83.45 Q2.8 84.2 2.5 85.5 2.1 87.2 1.2 88.6 L1.2 88.45 1.1 88.8 1.15 88.8 Q0.6 91.45 -2.4 93.05 L-3.1 93.05 Q-0.2 91.85 1.1 88.8 L-0.75 90.8 -4.05 91.55 -3.2 90.8 -1.95 89.4 -1.05 87.7 -0.05 84.8 Q0.45 82.8 1.35 80.95 1.95 79.55 2.85 78.3 L9.35 72.35 Q10.3 72.2 11.05 71.45 L11.1 71.45 11.4 71.05 11.4 71.0 13.7 69.0 13.75 69.0 Q13.75 71.55 15.25 73.8 L15.4 74.05 15.6 75.0 15.65 75.1 15.85 75.75 16.2 76.3 Q16.75 76.95 17.9 76.85 L18.2 76.6 Q18.6 73.5 18.15 70.35 L18.1 69.95 18.4 69.9 19.2 70.9 19.55 71.3 19.55 71.4 M19.7 89.4 L19.5 88.75 20.4 90.4 20.55 90.65 20.7 91.05 20.7 91.1 20.85 91.35 21.0 91.85 21.2 93.4 21.15 97.5 20.95 98.9 19.8 102.9 Q20.35 100.6 20.5 98.3 L20.5 94.05 Q20.3 91.7 19.7 89.4 M11.15 96.9 L11.35 97.95 11.4 98.1 11.4 98.7 11.5 98.7 Q11.65 101.3 9.75 103.7 L9.4 104.1 Q8.1 105.7 6.2 105.85 L7.4 104.6 6.2 105.25 Q5.65 105.5 5.5 106.05 L5.45 106.1 Q4.1 104.7 1.75 104.05 L1.35 104.25 Q0.05 105.5 1.4 106.95 L1.2 107.15 Q0.3 108.1 0.5 109.4 L0.5 109.55 -1.2 110.95 Q-2.3 111.6 -3.6 111.75 L-5.35 111.65 -4.65 111.1 Q-3.6 110.15 -2.95 108.95 -3.5 107.85 -3.5 106.6 -3.55 105.1 -2.5 104.05 L-1.4 102.9 -0.8 102.25 Q-0.75 103.15 0.35 103.5 L1.35 103.4 3.9 101.85 5.75 100.8 6.3 100.5 8.25 98.75 Q9.2 97.35 9.5 95.65 L9.6 95.0 9.6 95.25 Q9.95 94.5 10.55 93.95 L10.8 94.95 11.0 95.95 11.15 96.9 M11.55 113.45 L11.8 114.55 11.8 114.7 Q10.1 117.0 7.75 118.4 L4.6 118.5 6.3 117.2 Q9.1 114.7 10.05 111.15 10.45 109.75 11.3 108.7 L11.4 108.7 Q11.2 111.2 11.55 113.45 M21.6 114.6 L21.55 114.45 Q21.15 113.1 21.6 111.45 22.55 108.05 25.25 106.8 L25.3 106.75 25.4 106.7 25.45 106.7 26.7 106.3 27.6 106.1 Q29.45 106.75 28.2 108.2 27.45 109.05 26.4 109.25 L26.35 109.2 26.55 109.0 26.95 108.65 27.65 108.15 27.7 108.1 27.8 108.05 27.85 108.0 27.9 108.0 27.85 107.95 Q27.1 107.15 26.2 107.8 L25.75 108.2 25.15 109.15 25.1 109.25 24.5 112.25 24.2 113.6 24.2 113.75 24.2 114.2 24.25 115.4 24.15 115.7 Q23.6 116.45 22.65 116.2 21.9 115.45 21.6 114.6 M30.85 92.5 L30.7 92.4 Q29.75 91.6 29.1 90.5 L29.1 90.45 28.8 89.85 28.7 89.65 Q28.2 88.45 27.95 87.0 L27.95 86.7 28.45 84.5 27.6 83.15 27.7 82.35 27.75 81.15 27.75 81.0 26.65 76.45 26.55 76.25 26.5 76.15 25.95 75.35 25.75 75.1 Q25.75 74.7 26.05 74.35 L26.35 74.05 26.8 73.95 Q28.55 74.45 29.05 76.2 L29.05 76.35 29.25 77.05 29.45 77.55 29.35 77.5 29.2 77.45 29.5 77.75 Q30.25 80.3 30.35 83.1 L30.35 83.9 30.35 84.2 30.6 84.7 30.75 85.3 Q30.8 85.7 30.45 86.0 L29.7 86.0 29.2 85.45 29.2 86.6 29.15 88.4 29.15 88.7 29.25 89.1 29.45 89.85 Q29.95 91.2 30.9 92.4 L30.85 92.5 M29.2 77.45 L29.15 77.4 29.2 77.45 M28.95 83.1 L28.9 83.15 28.85 83.25 28.95 83.2 28.95 83.1 M26.8 88.65 L26.75 85.55 27.4 88.95 Q27.75 90.45 28.25 91.85 26.9 91.3 26.85 89.35 L26.8 88.9 26.8 88.65 M31.35 97.9 L31.4 97.85 32.0 97.45 32.55 97.4 32.35 97.9 Q31.05 101.5 33.75 104.4 32.0 103.65 31.15 101.7 30.4 99.75 31.35 97.9 M30.85 107.0 Q28.3 105.3 28.45 102.4 29.0 104.95 31.15 106.85 L30.85 107.0 M7.8 70.6 L7.75 70.65 7.15 70.7 6.85 70.75 Q5.1 71.05 3.75 72.15 L3.95 69.0 Q4.1 67.6 4.9 66.35 L6.2 64.65 5.8 63.65 5.95 63.45 Q6.5 64.7 7.45 65.75 L7.2 66.55 Q6.8 67.8 7.15 69.0 7.35 69.85 7.85 70.6 L7.8 70.6 M0.5 98.9 L3.3 95.05 3.4 95.0 4.05 94.85 5.3 94.35 Q4.85 96.15 3.55 97.7 1.9 98.6 0.4 99.8 L0.35 99.8 0.5 98.9 M8.25 75.7 Q5.65 77.7 3.45 79.8 6.15 78.2 8.25 75.7 M0.8 110.45 L0.9 111.5 0.5 112.65 0.4 112.75 -0.05 113.0 -1.65 113.3 -2.95 113.25 -2.2 113.0 -0.95 112.2 0.1 111.3 0.7 110.4 0.8 110.45 M9.6 95.25 L9.55 95.4 9.6 95.25 M11.4 98.7 Q10.95 100.55 10.05 102.0 11.35 100.55 11.4 98.7 M19.3 94.25 Q18.95 99.7 16.9 104.8 L19.3 94.25 M14.0 112.05 Q14.35 109.25 13.05 106.85 15.05 109.05 14.3 112.05 L14.0 112.05" fill="#126ab1" fill-rule="evenodd" stroke="none"/>
    <path d="M19.75 70.65 L19.85 70.7 19.7 70.8 19.7 70.7 19.75 70.65 M19.65 71.4 L19.55 71.4 19.55 71.3 19.65 71.4 M17.05 92.9 L17.35 92.85 17.55 92.75 Q19.05 91.35 19.7 89.4 20.3 91.7 20.5 94.05 20.05 93.55 19.25 93.5 18.55 93.8 18.55 94.6 18.5 96.65 18.0 98.6 L16.2 104.25 16.05 104.7 Q15.15 103.4 13.7 102.45 15.75 98.65 15.75 94.45 15.75 92.45 14.2 92.0 L14.7 95.0 14.6 96.65 14.2 98.6 13.0 101.45 12.5 102.2 11.05 103.9 12.85 101.4 13.9 99.0 14.3 97.25 Q14.7 94.7 14.1 92.0 L13.8 91.95 13.2 92.45 13.05 92.65 13.0 92.9 12.95 93.1 12.85 93.35 Q11.85 94.35 11.6 95.7 L11.15 96.9 11.0 95.95 10.8 94.95 10.55 93.95 Q9.95 94.5 9.6 95.25 L9.6 95.0 9.5 95.65 Q9.2 97.35 8.25 98.75 L6.3 100.5 5.75 100.8 5.7 100.7 Q8.15 98.9 8.45 95.5 7.0 99.1 3.85 101.7 L3.9 101.85 1.35 103.4 0.35 103.5 Q-0.75 103.15 -0.8 102.25 L0.1 100.55 0.15 100.45 0.35 99.85 0.4 99.8 Q1.9 98.6 3.55 97.7 4.85 96.15 5.3 94.35 L4.05 94.85 3.4 95.0 3.3 95.05 0.5 98.9 0.5 98.4 0.1 99.15 -0.1 99.6 -0.2 99.7 -1.2 101.25 -1.25 101.3 -1.5 101.6 -1.7 101.8 -1.75 101.9 -3.65 103.4 -3.55 102.4 -3.35 101.5 -2.45 99.8 -4.15 99.8 Q-4.15 98.8 -3.75 97.9 -3.2 96.7 -2.1 96.05 L-0.9 95.25 0.95 93.55 1.7 91.85 0.95 92.55 0.65 92.35 0.2 92.75 -0.85 93.4 -2.0 93.7 -3.85 93.55 -4.65 92.05 -4.55 92.0 -4.2 91.7 -4.05 91.55 -0.75 90.8 1.1 88.8 Q-0.2 91.85 -3.1 93.05 L-2.4 93.05 Q0.6 91.45 1.15 88.8 L1.2 88.65 1.2 88.6 Q2.1 87.2 2.5 85.5 2.8 84.2 3.9 83.45 L5.75 82.2 6.5 79.55 Q6.65 79.2 7.05 79.15 L8.25 79.05 Q9.9 76.25 13.0 75.85 13.55 75.9 13.8 76.45 L13.85 76.6 12.55 78.5 12.25 78.05 Q10.3 80.95 9.7 84.4 L9.65 84.6 9.7 84.4 9.85 84.45 Q9.65 85.5 9.7 86.65 L9.7 86.75 8.95 88.2 8.7 88.85 8.65 88.95 8.45 88.75 8.45 90.05 Q8.15 90.6 8.0 91.2 7.75 92.05 8.45 92.45 L8.45 93.25 8.6 92.55 8.7 92.55 9.2 92.55 11.15 90.45 11.2 90.35 Q11.75 90.6 12.3 90.1 L14.1 88.3 14.25 88.45 Q14.75 91.4 16.55 92.85 L16.85 93.05 17.05 92.9 M21.2 93.4 L22.1 96.45 22.8 99.15 22.75 101.6 22.65 101.95 Q21.85 102.15 21.15 102.5 L21.25 101.5 20.7 102.75 20.4 102.95 20.95 98.9 21.15 97.5 21.2 93.4 M9.75 103.7 Q10.05 104.95 10.9 106.2 L11.15 107.15 11.6 108.45 11.4 108.5 11.3 108.7 Q10.45 109.75 10.05 111.15 9.1 114.7 6.3 117.2 L4.6 118.5 4.55 118.5 3.8 118.3 5.05 117.55 Q7.75 115.8 7.9 112.7 8.0 109.25 5.95 107.7 L5.9 107.65 5.65 107.15 5.9 107.65 Q4.65 106.7 2.7 106.45 L2.15 106.85 1.7 107.3 Q1.35 107.45 1.15 107.85 L0.5 109.4 Q0.3 108.1 1.2 107.15 L1.4 106.95 Q0.05 105.5 1.35 104.25 L1.75 104.05 Q4.1 104.7 5.45 106.1 L5.5 106.15 5.5 106.05 Q5.65 105.5 6.2 105.25 L7.4 104.6 6.2 105.85 Q8.1 105.7 9.4 104.1 L9.75 103.7 M21.5 114.65 L21.5 114.85 21.6 114.6 Q21.9 115.45 22.65 116.2 23.6 116.45 24.15 115.7 L24.25 115.4 24.2 114.2 24.25 114.2 24.3 113.75 24.6 112.3 24.5 112.25 25.1 109.25 25.15 109.15 25.75 108.2 26.2 107.8 Q27.1 107.15 27.85 107.95 L27.85 108.0 27.8 108.05 27.7 108.1 27.65 108.15 26.95 108.65 26.55 109.0 26.35 109.2 25.3 110.6 26.4 109.25 Q27.45 109.05 28.2 108.2 29.45 106.75 27.6 106.1 L26.7 106.3 27.35 105.7 28.5 105.0 28.6 105.2 29.25 105.95 Q32.2 107.95 32.95 111.1 L32.6 110.95 31.75 110.65 30.9 110.45 30.05 110.7 28.2 111.75 27.6 112.35 26.75 113.45 Q26.15 114.5 25.95 115.7 L25.95 115.75 Q25.85 115.9 25.9 116.1 L25.8 116.5 Q25.4 118.0 24.2 118.9 23.1 119.6 21.9 119.8 L21.85 119.65 Q22.1 119.2 22.5 119.0 L22.65 118.9 22.55 118.4 22.35 118.1 20.85 119.85 19.95 119.1 Q21.75 117.2 21.5 114.65 M32.2 86.35 L31.95 85.6 Q31.5 84.15 31.6 82.55 L31.75 80.95 31.9 80.1 32.35 80.5 32.0 79.85 32.6 78.6 32.8 78.55 33.6 80.7 33.55 80.85 33.65 80.9 34.35 83.9 34.45 84.65 34.8 84.65 34.85 85.3 Q35.1 87.25 36.6 88.5 L37.15 88.95 Q35.7 88.9 34.5 88.2 33.15 87.5 32.2 86.35 M10.35 68.85 L10.4 68.4 10.5 68.05 Q10.75 66.7 11.5 65.6 12.1 64.6 13.05 63.85 L13.5 63.95 Q13.15 66.3 13.35 68.55 L13.05 68.25 12.9 68.55 12.85 68.6 12.7 68.85 11.75 68.55 11.45 69.8 10.35 68.85 M1.6 107.8 Q3.6 108.8 4.35 110.8 5.1 112.65 3.85 114.2 4.7 110.5 1.55 107.8 L1.6 107.8 M8.45 88.25 Q6.55 90.75 7.05 93.55 7.05 90.85 8.45 88.75 L8.45 88.25 M6.15 108.25 L6.2 108.25 Q7.2 110.35 6.75 112.85 6.4 114.2 5.35 115.25 6.25 113.75 6.5 111.35 L6.5 111.3 6.15 108.25" fill="#0e508f" fill-rule="evenodd" stroke="none"/>
    <path d="M17.8 113.0 L18.1 113.0 18.15 112.95 19.0 112.75 19.4 112.85 19.55 112.9 20.15 113.85 20.1 113.9 20.2 113.95 20.2 114.0 20.45 114.9 20.45 114.95 20.45 116.55 20.2 116.5 20.1 116.55 19.7 116.55 19.65 116.5 19.5 116.3 15.8 115.95 Q15.5 116.0 15.3 116.2 13.3 118.0 10.85 118.95 L9.2 119.45 6.35 119.65 6.65 119.6 8.75 119.05 8.8 119.0 8.85 119.0 8.9 118.95 8.95 118.95 9.05 118.9 9.1 118.85 9.15 118.85 9.25 118.8 10.75 117.7 10.8 117.65 10.85 117.6 10.9 117.55 10.95 117.5 11.0 117.45 11.0 117.4 11.05 117.4 11.25 117.1 Q11.55 116.5 12.0 116.0 L13.3 114.75 Q15.3 113.2 18.3 113.25 L18.05 113.1 17.8 113.0 M19.4 119.65 L19.95 119.1 20.85 119.85 20.8 120.0 20.7 120.15 20.65 120.2 20.65 120.25 20.65 120.3 20.6 120.35 21.85 120.85 22.65 120.7 23.65 120.35 Q25.25 119.65 26.25 118.05 L26.7 117.3 27.0 116.9 27.65 117.6 28.9 118.95 30.75 121.85 31.45 123.35 Q32.55 126.05 32.5 128.95 L32.05 129.4 31.1 130.3 30.1 131.1 29.05 131.85 28.45 132.2 28.35 132.3 27.95 132.45 26.85 132.8 25.6 133.0 24.3 132.7 23.05 132.35 22.7 132.25 26.1 131.95 26.7 131.8 27.8 131.3 28.95 130.25 30.25 128.4 30.3 128.3 30.4 128.15 30.65 127.7 30.6 127.5 Q30.9 126.25 30.5 125.0 29.75 123.0 28.45 121.3 L27.5 120.5 25.75 121.35 24.5 121.65 22.4 121.9 21.4 121.65 21.1 121.55 Q19.95 121.35 19.2 120.55 L19.2 120.4 Q19.25 119.95 19.55 119.8 L19.4 119.65 M-3.25 118.7 L-2.8 119.2 -1.85 119.85 -0.75 120.3 1.7 121.35 3.05 121.95 3.85 122.05 4.15 122.0 Q4.3 121.9 4.5 121.85 L4.75 121.55 4.8 121.45 5.3 120.8 7.35 123.7 8.2 124.6 8.35 124.75 9.8 125.8 10.3 126.15 11.15 126.75 12.4 127.5 Q12.2 127.65 12.15 128.05 L12.2 128.2 12.9 128.8 12.85 128.85 12.75 128.7 12.8 128.85 13.5 130.9 13.75 131.45 13.45 131.15 Q13.0 130.6 12.4 130.9 L12.3 130.95 12.6 130.65 12.0 128.8 11.6 128.2 Q10.75 127.1 9.45 126.5 L9.45 126.6 Q9.2 127.35 9.3 128.15 9.4 128.85 9.9 129.3 L10.5 130.0 10.45 129.9 10.1 129.55 8.85 128.4 8.4 128.35 8.65 128.2 8.65 126.1 8.1 125.6 7.85 125.4 6.9 124.6 6.25 124.1 5.85 125.3 6.0 125.85 6.45 127.0 7.05 128.1 7.1 128.15 Q6.65 128.0 6.3 127.6 L5.65 127.0 4.6 126.15 4.6 125.6 4.7 124.85 4.8 124.15 4.85 123.85 5.0 123.4 1.7 122.5 1.75 122.7 1.95 123.35 2.3 123.95 2.45 124.15 1.5 123.9 Q1.0 124.25 0.5 124.35 L0.95 123.35 Q1.1 122.75 0.8 122.15 L0.8 122.1 0.75 122.1 0.7 122.0 -1.4 121.5 -1.25 122.55 -1.4 122.5 -1.85 122.3 -2.8 122.35 Q-2.35 121.85 -2.25 121.3 L-2.6 121.1 -2.5 121.05 Q-3.5 120.35 -3.35 119.1 L-3.25 118.7 M17.15 133.0 L17.05 132.25 16.65 131.5 16.4 131.2 16.4 131.15 16.5 131.25 17.55 131.8 18.15 133.05 18.25 133.2 18.0 133.6 17.15 133.0 M24.05 136.3 L24.0 136.05 23.85 135.3 23.4 133.45 24.4 133.65 24.5 133.65 26.7 133.75 28.8 133.55 Q31.5 132.9 33.55 131.15 L33.65 130.55 33.8 128.85 33.75 127.2 33.3 124.55 32.2 121.65 30.5 119.05 Q29.1 117.3 27.35 116.05 L27.25 116.0 27.25 115.95 27.5 115.1 27.55 114.95 27.95 115.3 28.15 115.5 28.9 116.1 29.1 116.3 29.35 116.55 29.7 116.9 30.75 117.9 30.9 118.05 32.05 119.3 33.15 120.55 34.1 121.95 35.05 123.3 35.9 124.7 36.45 125.7 36.7 126.1 36.75 126.05 37.9 126.35 38.1 126.25 38.45 125.85 Q38.75 124.5 38.35 123.1 L38.2 122.25 Q37.55 118.45 34.1 117.0 L33.4 117.15 33.1 117.5 33.15 118.55 33.1 118.45 32.0 116.9 31.9 116.65 31.6 116.2 Q31.1 115.45 30.45 115.15 L29.05 114.6 28.55 114.4 28.5 114.35 27.95 114.05 28.65 113.4 Q28.9 113.15 29.3 113.05 L30.0 113.1 30.75 113.25 32.3 113.95 33.8 114.45 34.85 115.4 35.05 115.65 36.25 116.85 37.35 118.1 38.65 120.2 39.9 123.3 40.2 125.0 40.25 125.55 40.3 127.25 40.6 128.1 40.6 128.4 40.55 129.3 40.85 129.45 Q41.2 129.85 41.2 130.45 L39.65 131.65 38.05 132.7 36.4 133.6 34.7 134.4 32.9 135.0 31.1 135.55 29.25 135.9 27.3 136.15 25.35 136.3 24.05 136.3 M38.4 127.35 L38.45 127.25 38.35 127.2 38.4 127.35" fill="#515151" fill-rule="evenodd" stroke="none"/>
    <path d="M1.5 117.85 L0.75 117.35 1.5 117.85 M0.55 117.15 L-0.15 116.85 0.2 116.85 0.55 117.15" fill="#3399cc" fill-rule="evenodd" stroke="none"/>
  </g>
</svg>
