<?xml version="1.0" encoding="UTF-8" standalone="no"?>
<svg xmlns:xlink="http://www.w3.org/1999/xlink" height="87.5px" width="26.35px" xmlns="http://www.w3.org/2000/svg">
  <g transform="matrix(1.0, 0.0, 0.0, 1.0, 19.05, 8.75)">
    <path d="M4.55 -7.2 L5.7 -6.9 7.1 -5.0 6.75 -4.25 Q7.75 -2.8 7.0 -1.25 L7.2 1.5 6.75 3.2 Q5.7 5.2 4.8 7.35 L3.75 9.3 2.3 10.35 1.95 11.8 1.4 12.3 -0.25 19.35 -1.3 20.55 -1.3 21.3 -2.55 22.3 -2.55 22.85 -3.0 23.15 Q-3.65 25.45 -5.65 26.75 L-5.9 28.7 -4.6 29.9 -4.65 30.6 -4.1 31.0 -4.05 31.4 Q-4.05 32.3 -3.45 33.05 -2.4 34.3 -2.85 35.75 -1.45 37.25 -1.9 39.3 L-2.4 40.05 -0.95 47.25 Q0.45 48.25 -0.45 49.8 L-0.6 50.7 Q-0.5 52.15 0.2 53.4 1.3 55.4 1.1 57.65 L0.55 62.5 Q0.4 64.0 1.2 65.35 2.05 66.7 1.0 67.85 -0.6 69.6 -0.65 72.0 L-0.85 73.9 Q-0.95 74.8 -1.5 75.4 -2.95 76.95 -4.85 78.0 L-6.25 78.75 -8.05 78.15 Q-9.55 77.45 -11.35 77.5 L-11.1 77.15 -10.65 76.95 -8.8 76.75 Q-6.85 75.95 -6.35 74.35 L-6.55 72.1 -7.8 71.65 -11.75 73.75 -12.75 73.2 -13.85 71.5 -16.95 71.2 Q-17.8 66.75 -16.55 62.4 L-16.1 63.25 Q-15.4 65.25 -13.6 66.45 -11.95 65.4 -11.15 63.8 -10.55 62.6 -10.8 61.3 L-11.6 55.2 -9.95 51.9 Q-11.45 50.85 -10.4 49.35 L-11.35 48.4 -11.3 47.5 Q-13.55 46.65 -13.1 44.35 L-13.3 43.95 -14.4 43.6 Q-15.6 41.95 -15.65 39.9 L-16.05 39.75 Q-16.4 37.75 -17.1 35.8 -17.85 33.9 -17.65 31.75 L-18.4 29.15 -18.75 28.35 -19.05 25.9 -18.1 22.15 -17.6 18.05 -16.95 17.25 -15.75 14.1 -15.3 13.8 -14.8 13.8 -14.75 13.2 -14.25 12.4 Q-13.15 11.5 -13.15 10.0 L-11.55 8.0 -11.55 7.25 -8.45 3.0 -7.7 1.45 -6.9 1.55 Q-7.6 0.0 -6.65 -1.75 L-5.55 -3.9 -5.45 -4.85 -4.35 -6.05 -3.7 -6.6 -3.15 -6.8 Q0.0 -9.65 4.0 -8.35 L4.55 -7.2 M5.65 -4.8 L5.65 -5.15 5.4 -5.15 3.55 -7.15 3.05 -7.45 2.8 -8.05 0.6 -7.8 -0.3 -7.75 -3.0 -5.7 -4.65 -4.1 -5.1 -3.2 -5.25 -2.15 -5.7 -1.6 -5.7 -0.85 -6.0 -0.45 -6.85 1.55 Q-7.1 3.3 -8.65 4.75 L-9.6 6.1 -10.5 7.5 -10.55 8.45 -12.2 10.3 -12.6 11.3 -13.25 12.05 -13.95 12.7 -14.1 14.2 -14.9 14.35 -16.05 17.6 -16.5 18.6 -17.25 21.65 -17.8 24.3 -17.5 24.75 -18.15 26.15 -18.05 27.05 -17.85 27.65 -18.0 28.05 -17.55 28.15 -17.1 28.95 -17.1 29.4 -17.2 29.5 -16.75 29.65 -16.55 29.95 -16.55 30.15 -16.65 30.4 -16.65 30.45 -16.85 30.55 Q-17.2 30.9 -16.75 31.25 L-16.8 31.3 -16.7 31.25 -15.5 30.35 -15.45 30.25 -15.5 30.3 Q-16.4 30.45 -16.1 29.6 L-15.95 29.4 -15.2 30.1 Q-14.45 30.6 -13.85 29.7 L-13.6 29.65 -13.15 29.4 -12.7 29.3 -13.35 28.8 -13.15 28.75 -10.1 28.15 -10.25 28.65 -9.95 28.3 -9.95 28.1 -7.2 27.95 -6.85 27.9 -6.6 27.8 -6.05 27.15 -6.3 27.4 Q-5.75 26.85 -6.0 26.05 L-6.0 25.9 -5.95 25.75 -5.1 25.0 -4.5 24.9 -3.9 24.05 -4.1 23.6 -4.05 23.35 -3.25 22.45 -3.1 21.95 -2.55 21.75 -2.0 20.8 -1.95 20.25 -2.25 20.15 -2.3 20.05 -2.25 20.0 -2.2 19.95 -2.1 19.9 Q-1.4 20.25 -1.3 19.1 L-1.1 18.8 -0.85 17.4 -1.05 17.6 Q-1.45 17.85 -1.85 17.25 -1.85 15.85 -0.75 16.1 L-0.65 16.25 -0.55 16.45 -0.3 16.15 -0.9 15.5 -1.05 14.9 -1.45 13.85 -0.3 13.35 -0.25 12.45 -0.55 11.6 0.6 10.9 1.5 11.35 1.1 10.1 2.0 9.9 1.75 9.75 1.55 9.6 Q0.95 9.1 1.35 8.35 L2.4 8.3 2.4 8.0 Q2.75 6.95 3.6 7.3 L3.7 7.35 3.75 7.3 Q4.0 7.2 3.4 6.85 L4.0 5.85 4.3 5.2 4.9 5.5 4.65 4.4 5.45 4.3 5.6 4.15 5.8 3.45 6.0 2.8 6.3 1.8 6.4 1.15 6.6 0.55 6.5 0.1 6.55 -0.75 Q6.85 -1.05 6.65 -1.4 L6.5 -1.65 6.7 -3.05 6.4 -4.0 5.65 -4.8 M2.9 3.3 L2.8 3.3 2.85 3.25 2.9 3.3 M-0.15 14.45 L0.3 14.7 Q0.1 13.9 -0.15 14.45 M-1.4 18.0 L-1.35 18.25 -1.4 18.5 -1.55 18.6 -1.7 18.5 -1.75 18.25 -1.7 18.0 -1.55 17.9 Q-1.45 17.9 -1.4 18.0 M-5.65 30.2 L-5.55 30.2 -5.6 29.55 -5.65 29.35 -6.6 29.25 -8.55 29.25 -8.9 29.25 -9.25 29.3 Q-13.5 29.7 -17.1 32.8 L-16.05 37.0 -15.3 36.3 Q-15.4 37.2 -14.85 37.95 L-14.65 38.85 -14.65 38.9 -14.5 39.9 -14.4 40.1 -14.9 40.5 -14.15 42.15 -13.6 42.8 -12.95 43.3 -12.2 42.75 -12.75 43.2 -12.65 43.7 -12.5 44.15 -12.55 44.15 -12.0 46.2 -10.6 46.65 -10.15 49.0 Q-10.2 49.45 -9.75 49.6 L-9.6 49.65 -10.05 50.05 -9.85 51.15 Q-6.9 49.25 -3.8 49.65 L-1.9 50.1 -1.55 47.7 -1.65 47.7 -1.65 47.5 Q-1.7 47.15 -1.9 46.95 L-2.1 45.1 -3.2 44.9 -2.8 44.95 -2.85 44.35 Q-2.8 43.6 -2.9 42.85 L-3.3 40.55 -3.35 39.95 -3.8 39.9 -2.9 39.95 Q-2.15 39.1 -2.6 38.1 L-3.15 36.8 -3.45 35.5 -3.5 34.8 Q-4.15 33.95 -4.25 32.85 L-4.35 32.4 -4.55 31.9 -4.85 31.55 -5.25 31.05 -5.35 31.05 Q-5.25 30.6 -5.65 30.2 M-3.0 50.1 L-2.65 50.3 Q-2.3 51.3 -2.5 50.35 L-3.0 50.1 M-4.8 50.15 L-4.8 50.7 -4.4 50.7 -4.4 50.15 -4.8 50.15 M-1.25 52.8 L-2.15 51.65 -2.75 51.85 -2.85 51.4 -4.0 51.3 Q-4.1 51.9 -4.6 51.65 L-5.05 51.15 -6.35 52.45 -6.95 51.65 -7.5 51.55 -7.6 51.4 Q-7.9 50.75 -8.05 51.6 L-8.2 51.65 -8.9 51.9 -9.75 52.35 -10.65 55.9 Q-10.0 58.45 -9.75 61.35 -9.6 63.0 -10.75 64.35 L-12.95 66.5 -14.8 66.65 -15.4 66.05 -16.3 63.85 -16.65 68.9 -16.3 70.25 -13.35 70.5 -12.95 70.75 -12.85 71.3 -11.25 72.65 -7.25 70.95 Q-6.35 71.45 -5.45 71.9 L-5.65 72.9 -5.45 74.25 Q-6.45 76.45 -8.65 77.05 L-5.85 77.8 -5.95 77.85 -5.55 77.85 -1.9 75.05 -1.45 71.3 -1.35 70.95 -1.3 70.8 -0.4 68.85 0.55 66.6 -0.1 65.25 -0.25 64.75 -0.35 64.0 -0.35 63.9 -0.3 62.3 0.35 61.05 0.1 60.35 0.55 59.2 0.3 58.7 Q0.6 58.4 0.45 57.8 L0.25 57.3 0.25 57.2 0.1 55.65 0.15 55.2 -0.2 54.75 -0.45 54.0 -0.75 53.2 -1.25 52.8 M-3.55 49.85 Q-3.1 50.55 -3.05 50.1 L-3.55 49.85 M-9.2 68.15 L-8.85 68.0 -8.75 68.05 -9.2 68.15 M-3.05 67.3 L-2.85 67.35 Q-3.6 67.95 -3.15 67.35 L-3.05 67.3 M-3.5 68.65 L-3.55 68.65 -3.5 68.6 -3.5 68.65 M-1.55 69.1 L-1.7 69.45 Q-2.4 69.75 -1.7 69.15 L-1.55 69.1 M-14.45 27.9 Q-14.1 28.1 -14.75 28.55 -14.95 28.8 -15.05 28.45 L-14.45 27.9 M-16.4 34.6 L-16.35 34.65 -16.5 34.7 -16.4 34.6 M-11.6 29.35 Q-11.2 28.85 -11.8 29.15 -12.25 29.3 -11.8 29.35 L-11.6 29.35 M-14.2 29.15 L-14.25 29.05 Q-14.1 28.3 -13.55 28.7 L-14.2 29.15 M-7.1 32.75 L-6.9 32.8 -7.5 32.95 -7.1 32.75 M-6.5 50.55 Q-6.75 51.35 -6.35 50.95 -5.85 50.4 -6.5 50.55 M-6.25 51.85 L-6.2 51.85 -6.2 51.8 -6.25 51.85" fill="#000000" fill-rule="evenodd" stroke="none"/>
    <path d="M5.4 -5.15 L5.65 -5.15 5.65 -4.8 5.65 -4.0 4.5 -4.0 4.5 -5.15 5.4 -5.15 M6.4 -4.0 L6.7 -3.05 6.0 -2.75 6.2 -2.3 6.2 -1.8 6.5 -1.65 6.65 -1.4 Q6.85 -1.05 6.55 -0.75 L4.95 -0.5 4.8 0.25 4.15 0.35 3.85 -0.3 4.55 -1.15 4.8 -1.75 4.75 -2.65 5.5 -3.0 5.5 -3.3 Q5.55 -4.4 6.4 -4.0 M6.5 0.1 L6.6 0.55 6.4 1.15 5.8 1.35 Q5.45 1.35 5.25 1.15 L5.0 0.55 Q5.0 0.2 5.25 0.0 5.45 -0.25 5.8 -0.25 L6.4 0.0 6.5 0.1 M6.3 1.8 L6.0 2.8 5.8 2.85 Q5.65 3.25 5.8 3.45 L5.6 4.15 5.45 4.3 4.65 4.4 4.9 5.5 4.3 5.2 4.0 5.85 3.4 6.85 Q4.0 7.2 3.75 7.3 L3.6 7.3 Q2.75 6.95 2.4 8.0 L2.4 8.3 1.35 8.35 Q0.95 9.1 1.55 9.6 L1.75 9.75 2.0 9.9 1.1 10.1 1.5 11.35 0.6 10.9 -0.55 11.6 -0.25 12.45 -0.3 13.35 -1.45 13.85 -1.05 14.9 -0.9 15.5 -0.3 16.15 -0.55 16.45 -0.65 16.25 -0.75 16.1 Q-1.85 15.85 -1.85 17.25 -1.45 17.85 -1.05 17.6 L-0.85 17.4 -1.1 18.8 -1.3 19.1 Q-1.4 20.25 -2.1 19.9 L-2.2 19.95 -2.25 20.0 -2.3 20.05 -2.25 20.15 -1.95 20.25 -2.0 20.8 -2.55 21.75 -3.1 21.95 -3.25 22.05 -3.25 22.45 -4.05 23.35 -4.2 23.35 -4.1 23.6 -3.9 24.05 -4.5 24.9 -5.05 24.75 -5.1 25.0 -5.95 25.75 -6.1 25.9 -6.05 25.95 -6.0 26.05 Q-5.75 26.85 -6.3 27.4 L-6.5 27.6 -6.65 27.65 -6.85 27.9 -7.65 27.85 -6.9 27.85 -6.15 26.75 -6.6 26.05 -7.05 25.95 -7.6 25.65 -7.5 26.1 -8.1 26.65 -8.35 26.4 -8.3 25.9 -7.5 24.9 -7.95 25.0 -8.55 24.55 -8.15 23.5 -6.95 23.8 -7.4 22.55 -8.2 22.1 -8.15 21.65 -6.95 21.05 -6.7 21.7 -6.1 20.55 -4.95 20.8 -4.4 20.8 -3.9 21.7 -4.1 21.15 -3.15 19.6 -3.9 20.15 -5.3 20.65 -5.45 20.3 Q-5.45 19.75 -6.05 20.15 L-6.75 19.55 -6.0 19.2 -5.85 19.25 -5.5 19.5 -5.4 19.45 -5.2 19.25 -5.25 18.8 -4.5 18.85 -3.9 19.25 -3.8 18.6 -4.65 17.85 -3.75 17.35 -3.15 17.5 -2.7 16.9 -2.2 16.75 -2.7 16.25 -2.1 14.35 -2.25 14.15 Q-2.5 14.5 -2.95 14.5 L-3.7 14.15 -3.55 13.35 -4.25 12.95 Q-4.85 11.95 -3.85 11.35 L-3.55 10.55 -2.95 10.4 -2.5 9.55 -2.0 10.05 -2.35 10.6 -1.8 11.3 -1.1 11.25 -1.05 11.15 Q-1.1 11.05 -1.2 11.05 L-1.45 10.95 -1.7 10.6 -1.55 9.45 -2.75 9.25 -2.95 9.35 -3.65 9.5 -3.85 9.2 -2.75 8.15 -1.95 8.7 -1.8 8.3 -1.75 8.2 -1.85 8.0 Q-1.9 7.1 -1.15 7.3 L-0.6 7.75 -0.1 7.35 0.55 6.8 -0.6 7.3 -1.1 6.75 -0.5 6.2 0.0 6.45 0.4 6.2 Q0.8 6.0 0.65 6.5 L1.35 5.95 1.8 5.95 1.8 5.85 Q0.7 6.2 0.8 4.95 L0.95 4.7 1.9 4.35 2.25 3.9 2.75 3.75 3.55 4.1 2.9 3.3 2.85 3.25 2.8 3.3 2.5 3.6 Q1.35 3.55 2.1 2.7 L2.85 2.75 3.4 2.1 2.95 1.3 3.3 0.4 Q4.5 0.4 5.15 1.4 L4.4 2.75 5.6 1.6 6.3 1.8 M-9.95 28.1 L-9.95 28.3 -10.25 28.65 -10.1 28.15 -9.95 28.0 -9.95 28.1 M-13.35 28.8 L-12.7 29.3 -13.15 29.4 -13.6 29.65 -14.35 29.45 -14.4 29.65 Q-14.65 30.45 -15.2 30.1 L-15.95 29.4 Q-16.05 28.75 -16.4 28.7 L-16.05 27.95 -16.05 28.15 Q-15.8 27.95 -15.45 28.15 L-15.05 28.45 Q-14.95 28.8 -14.75 28.55 -14.1 28.1 -14.45 27.9 L-15.3 27.7 -14.3 25.45 -14.4 25.45 -14.4 25.0 -14.1 24.75 -13.8 24.55 -13.35 24.55 -13.05 23.85 -13.15 23.65 -13.45 23.5 -13.95 23.35 -14.4 22.55 -12.65 21.65 -13.35 21.15 -13.95 21.3 -14.25 20.15 -13.2 20.05 -11.8 21.3 -12.65 21.65 Q-11.75 22.05 -12.4 22.4 L-13.5 22.85 -12.5 23.35 -11.8 24.4 -10.95 23.9 -11.0 24.7 -10.85 25.1 -11.1 25.55 -11.15 25.05 -11.75 24.6 Q-12.35 25.0 -11.9 25.95 L-11.95 26.5 -12.0 26.7 -12.8 27.1 Q-12.95 28.05 -12.05 27.9 L-12.0 27.85 -12.0 27.95 -12.05 28.0 -12.05 28.15 -12.65 28.6 Q-13.1 28.15 -13.35 28.8 M4.05 -5.55 L3.9 -5.2 3.55 -5.1 3.2 -5.2 3.05 -5.55 3.2 -5.85 3.55 -6.0 3.9 -5.85 4.05 -5.55 M3.6 -3.8 L3.7 -4.05 3.95 -4.15 4.2 -4.05 4.3 -3.8 4.2 -3.55 3.95 -3.45 Q3.8 -3.45 3.7 -3.55 L3.6 -3.8 M3.85 -2.3 L3.75 -3.05 4.15 -3.4 4.75 -3.05 4.15 -2.15 4.2 -1.6 3.45 -1.65 3.45 -2.0 3.7 -2.25 3.85 -2.3 M1.25 1.5 L1.65 1.3 2.1 1.5 2.25 1.95 2.1 2.4 1.65 2.6 Q1.4 2.6 1.25 2.4 L1.05 1.95 1.25 1.5 M-2.55 6.9 L-2.45 6.7 -2.65 7.4 -2.55 6.9 M-5.8 9.8 L-5.15 9.1 -5.35 10.0 -5.8 9.8 M-5.05 10.7 L-4.0 10.65 -5.1 11.95 -5.05 10.7 M-10.5 22.4 L-10.5 22.7 -10.65 22.7 -10.5 22.4 M-11.1 25.75 L-10.3 25.1 -10.25 24.9 -9.75 24.8 -9.55 25.85 -10.35 26.55 -11.1 25.75 M-9.8 26.5 L-9.55 26.15 -9.1 26.05 -8.45 26.45 -8.4 27.05 -8.6 27.5 -9.55 27.5 -9.8 26.5 M4.3 -6.05 Q4.65 -5.6 4.2 -6.0 L4.3 -6.05 M0.25 8.6 L0.55 9.35 0.35 9.5 Q-0.3 9.85 0.3 9.75 L0.9 9.2 1.0 7.9 0.25 8.6 M-0.15 14.45 Q0.1 13.9 0.3 14.7 L-0.15 14.45 M-1.75 12.7 L-1.7 12.8 -1.65 13.05 Q-1.3 13.1 -1.55 12.85 -2.0 12.25 -2.0 12.6 L-1.85 12.6 -1.75 12.7 M-2.7 15.9 L-2.95 16.05 -3.2 15.9 -3.3 15.45 -3.2 15.05 -2.95 14.85 -2.7 15.05 -2.6 15.45 -2.7 15.9 M-3.75 16.0 Q-3.55 16.0 -3.4 16.15 -3.25 16.3 -3.25 16.5 L-3.4 16.85 -3.75 17.0 -4.1 16.85 -4.25 16.5 -4.1 16.15 Q-3.95 16.0 -3.75 16.0 M-4.5 15.35 L-4.5 15.7 Q-4.65 16.35 -5.0 16.05 L-4.5 15.35 M-4.6 14.3 L-4.2 14.1 Q-3.95 14.1 -3.8 14.3 -3.65 14.45 -3.65 14.7 L-3.8 15.15 Q-3.95 15.3 -4.2 15.3 L-4.6 15.15 -4.75 14.7 -4.6 14.3 M-1.4 18.0 Q-1.45 17.9 -1.55 17.9 L-1.7 18.0 -1.75 18.25 -1.7 18.5 -1.55 18.6 -1.4 18.5 -1.35 18.25 -1.4 18.0 M-5.65 22.35 L-5.65 22.05 -6.25 22.05 -6.25 22.35 -5.65 22.35 M-5.55 17.2 Q-5.3 17.2 -5.15 17.35 L-5.0 17.7 -5.15 18.05 Q-5.3 18.2 -5.55 18.2 L-5.95 18.05 -6.1 17.7 -5.95 17.35 -5.55 17.2 M-5.75 24.15 L-5.65 24.05 -6.2 24.1 -7.1 24.05 -7.35 24.8 -7.1 24.4 -6.05 24.3 -5.75 24.15 M-3.0 50.1 L-2.5 50.35 Q-2.3 51.3 -2.65 50.3 L-3.0 50.1 M-8.05 51.6 Q-7.9 50.75 -7.6 51.4 L-7.5 51.55 -6.95 51.65 -6.35 52.45 -5.05 51.15 -4.6 51.65 Q-4.1 51.9 -4.0 51.3 L-2.85 51.4 -2.75 51.85 -2.15 51.65 -1.25 52.8 -1.25 53.0 -0.75 53.2 -0.45 54.0 -0.65 54.3 Q-0.9 53.75 -1.55 53.95 L-1.75 54.2 -1.9 54.65 -1.6 53.45 -2.45 52.65 -3.15 52.85 -3.3 53.5 -2.55 52.75 -1.9 53.45 -2.75 54.85 -3.65 54.25 -4.15 54.4 -5.45 54.25 -5.7 53.9 -6.45 54.05 -7.25 53.8 -7.7 53.25 -7.9 52.3 -7.95 52.4 Q-8.95 53.0 -8.9 51.9 L-8.2 51.65 -8.1 51.65 -8.05 51.6 M-4.8 50.15 L-4.4 50.15 -4.4 50.7 -4.8 50.7 -4.8 50.15 M-3.55 49.85 L-3.05 50.1 Q-3.1 50.55 -3.55 49.85 M-1.8 55.1 L-1.85 55.15 -1.9 55.15 -1.8 55.1 M-4.6 57.05 L-5.8 56.75 -4.8 56.05 -4.45 56.6 -4.45 56.65 -4.6 57.05 M-6.2 63.35 L-5.7 62.65 -6.2 62.3 -5.9 60.8 -5.9 60.75 Q-4.7 60.05 -4.0 61.5 L-4.95 62.85 -4.75 63.35 Q-4.6 63.9 -5.15 64.35 L-6.05 64.15 -6.25 63.35 -6.2 63.35 M-6.0 59.5 L-5.85 59.2 -5.3 59.3 -5.3 58.55 -4.15 58.55 -4.0 59.45 -5.05 59.95 -5.35 60.45 -5.85 60.45 -5.75 59.9 -6.0 59.5 M-5.85 67.1 L-5.75 67.6 -5.8 67.1 -5.25 67.3 -5.0 67.75 -5.05 68.45 Q-5.35 69.15 -4.7 69.45 L-3.85 69.25 Q-3.55 69.0 -3.55 68.65 L-3.5 68.65 -3.4 69.1 -4.05 69.6 -3.9 70.45 -3.45 70.65 -2.8 70.55 Q-2.45 71.35 -1.75 70.35 -1.05 69.3 -1.5 68.0 L-1.6 67.75 -1.7 67.4 -1.6 67.35 -0.7 67.85 -0.4 68.85 -1.3 70.8 -1.4 70.9 -1.85 71.45 -2.1 72.3 -3.1 72.4 -3.9 71.9 -4.1 71.45 -4.0 71.75 -4.75 71.25 -4.9 70.8 -4.65 70.0 -5.85 69.85 -4.95 69.5 -6.0 69.85 -6.35 70.4 -7.25 70.4 -8.0 69.8 -8.65 70.0 -9.0 68.95 -7.2 69.35 -7.0 68.75 -6.15 68.55 -5.85 67.1 M-5.05 57.5 L-5.55 57.9 -5.7 57.65 Q-5.55 56.9 -5.05 57.5 M-2.5 59.15 L-3.1 58.85 -3.35 58.1 -3.1 57.35 Q-2.85 57.05 -2.5 57.05 -2.15 57.05 -1.9 57.35 -1.65 57.65 -1.65 58.1 L-1.9 58.85 Q-2.15 59.15 -2.5 59.15 M-2.8 60.75 L-3.15 60.35 -2.9 59.3 -1.0 60.5 -1.05 61.35 -0.7 62.0 -1.4 63.5 Q-3.8 63.4 -2.8 61.35 L-2.8 60.85 -2.75 60.8 -2.75 60.75 -2.8 60.75 M-8.25 12.3 L-8.2 11.7 Q-7.85 10.8 -7.3 11.35 L-7.5 12.15 -8.25 12.3 M-7.05 10.65 L-7.15 10.5 Q-7.15 9.6 -6.65 10.1 L-7.05 10.65 M-6.2 7.95 L-6.3 8.35 -6.65 8.5 -6.95 8.35 -7.1 7.95 -6.95 7.55 -6.65 7.4 Q-6.45 7.4 -6.3 7.55 L-6.2 7.95 M-8.5 8.45 L-8.6 8.3 -8.5 8.15 -8.3 8.1 -8.1 8.15 -8.0 8.3 -8.1 8.45 -8.3 8.5 -8.5 8.45 M-9.5 15.65 L-9.0 14.7 -8.7 15.45 -9.5 15.65 M-11.5 16.65 L-11.6 17.7 -11.0 18.3 -12.1 19.2 -11.85 19.25 -11.65 19.45 -11.55 19.65 -12.7 19.95 -12.95 18.75 -12.6 17.8 -12.0 17.1 -11.7 15.75 Q-11.15 13.65 -9.3 12.45 L-11.5 16.65 M-9.55 17.45 Q-8.95 17.3 -9.45 17.55 L-9.55 17.45 M-11.45 22.1 Q-10.6 22.1 -11.45 22.45 L-11.65 22.35 Q-11.75 22.1 -11.45 22.1 M-9.15 22.55 L-8.9 22.45 -8.65 22.55 -8.55 22.8 -8.65 23.05 -8.9 23.15 -9.15 23.05 -9.25 22.8 -9.15 22.55 M-9.6 23.15 Q-9.15 22.75 -9.45 23.3 L-9.6 23.15 M-8.65 25.0 Q-9.05 25.65 -8.95 24.8 L-8.65 25.0 M-12.6 25.5 L-12.65 25.55 -12.6 25.55 -12.6 25.5 M-13.6 23.7 L-13.5 24.0 -13.6 24.35 -13.9 24.45 -14.15 24.35 -14.3 24.0 -14.15 23.7 -13.9 23.55 Q-13.75 23.55 -13.6 23.7 M-11.6 29.35 L-11.8 29.35 Q-12.25 29.3 -11.8 29.15 -11.2 28.85 -11.6 29.35 M-14.2 29.15 L-13.55 28.7 Q-14.1 28.3 -14.25 29.05 L-14.2 29.15 M-6.5 50.55 Q-5.85 50.4 -6.35 50.95 -6.75 51.35 -6.5 50.55" fill="#754d00" fill-rule="evenodd" stroke="none"/>
    <path d="M5.65 -4.8 L6.4 -4.0 Q5.55 -4.4 5.5 -3.3 L5.5 -3.0 4.75 -2.65 4.8 -1.75 4.55 -1.15 3.85 -0.3 4.15 0.35 4.8 0.25 4.95 -0.5 6.55 -0.75 6.5 0.1 6.4 0.0 5.8 -0.25 Q5.45 -0.25 5.25 0.0 5.0 0.2 5.0 0.55 L5.25 1.15 Q5.45 1.35 5.8 1.35 L6.4 1.15 6.3 1.8 5.6 1.6 4.4 2.75 5.15 1.4 Q4.5 0.4 3.3 0.4 L2.95 1.3 3.4 2.1 2.85 2.75 2.1 2.7 Q1.35 3.55 2.5 3.6 L2.8 3.3 2.9 3.3 3.55 4.1 2.75 3.75 2.25 3.9 1.9 4.35 0.95 4.7 0.8 4.95 Q0.7 6.2 1.8 5.85 L1.8 5.95 1.35 5.95 0.65 6.5 Q0.8 6.0 0.4 6.2 L0.0 6.45 -0.5 6.2 -1.1 6.75 -0.6 7.3 0.55 6.8 -0.1 7.35 -0.6 7.75 -1.15 7.3 Q-1.9 7.1 -1.85 8.0 L-1.75 8.2 -1.8 8.3 -1.95 8.7 -2.75 8.15 -3.85 9.2 -3.65 9.5 -2.95 9.35 -2.75 9.25 -1.55 9.45 -1.7 10.6 -1.45 10.95 -1.2 11.05 Q-1.1 11.05 -1.05 11.15 L-1.1 11.25 -1.8 11.3 -2.35 10.6 -2.0 10.05 -2.5 9.55 -2.95 10.4 -3.55 10.55 -3.85 11.35 Q-4.85 11.95 -4.25 12.95 L-3.55 13.35 -3.7 14.15 -2.95 14.5 Q-2.5 14.5 -2.25 14.15 L-2.1 14.35 -2.7 16.25 -2.2 16.75 -2.7 16.9 -3.15 17.5 -3.75 17.35 -4.65 17.85 -3.8 18.6 -3.9 19.25 -4.5 18.85 -5.25 18.8 -5.2 19.25 -5.4 19.45 -5.5 19.5 -5.85 19.25 -6.0 19.2 -6.75 19.55 -6.05 20.15 Q-5.45 19.75 -5.45 20.3 L-5.3 20.65 -3.9 20.15 -3.15 19.6 -4.1 21.15 -3.9 21.7 -4.4 20.8 -4.95 20.8 -6.1 20.55 -6.7 21.7 -6.95 21.05 -8.15 21.65 -8.2 22.1 -7.4 22.55 -6.95 23.8 -8.15 23.5 -8.55 24.55 -7.95 25.0 -7.5 24.9 -8.3 25.9 -8.35 26.4 -8.45 26.45 -9.1 26.05 -9.55 26.15 -9.8 26.5 Q-9.9 26.7 -10.05 26.65 L-10.35 26.55 -9.55 25.85 -9.75 24.8 -10.25 24.9 -10.3 25.1 -11.1 25.75 -11.1 25.65 -11.1 25.55 -10.85 25.1 -11.0 24.7 -10.95 23.9 -10.9 23.75 Q-11.35 23.1 -10.5 22.7 L-10.5 22.4 -9.35 21.6 -8.85 19.75 -9.05 18.85 -8.45 17.95 -7.25 17.9 -7.55 17.35 -7.5 16.8 -6.45 17.4 -5.9 16.75 -6.45 15.7 -6.55 15.7 -6.5 15.3 -5.1 14.85 -5.25 13.85 -5.75 13.3 -5.1 11.95 -4.0 10.65 -5.05 10.7 -5.35 10.0 -5.15 9.1 -5.8 9.8 -6.35 9.9 -5.9 8.6 Q-6.45 7.7 -5.6 6.9 L-4.0 7.3 -4.05 7.1 Q-3.3 7.65 -2.55 6.9 L-2.65 7.4 -2.45 6.7 -2.45 5.85 -2.75 5.3 -1.85 5.05 -1.5 4.5 -1.65 4.1 -0.75 2.95 -1.75 2.45 -0.95 1.9 -0.65 1.15 0.25 0.8 0.0 -0.05 0.75 -0.75 0.7 -1.7 Q1.0 -2.1 0.45 -2.4 L0.65 -3.3 1.4 -3.25 1.25 -3.7 1.4 -4.3 0.75 -4.7 0.95 -5.6 Q1.9 -5.9 1.75 -6.15 L0.6 -6.15 1.1 -7.1 0.6 -7.8 2.8 -8.05 3.05 -7.45 3.55 -7.15 5.4 -5.15 4.5 -5.15 4.5 -4.0 5.65 -4.0 5.65 -4.8 M6.7 -3.05 L6.5 -1.65 6.2 -1.8 6.2 -2.3 6.0 -2.75 6.7 -3.05 M6.0 2.8 L5.8 3.45 Q5.65 3.25 5.8 2.85 L6.0 2.8 M3.75 7.3 L3.7 7.35 3.6 7.3 3.75 7.3 M-3.1 21.95 L-3.25 22.45 -3.25 22.05 -3.1 21.95 M-4.05 23.35 L-4.1 23.6 -4.2 23.35 -4.05 23.35 M-4.5 24.9 L-5.1 25.0 -5.05 24.75 -4.5 24.9 M-5.95 25.75 L-6.0 25.9 -6.05 25.95 -6.1 25.9 -5.95 25.75 M-13.6 29.65 L-13.85 29.7 Q-14.45 30.6 -15.2 30.1 -14.65 30.45 -14.4 29.65 L-14.35 29.45 -13.6 29.65 M-15.5 30.3 L-15.45 30.25 -15.5 30.35 -15.5 30.3 M-2.75 -2.75 L-2.35 -2.9 -1.95 -2.75 -1.8 -2.35 Q-1.8 -2.1 -1.95 -1.95 -2.1 -1.8 -2.35 -1.8 L-2.75 -1.95 -2.9 -2.35 -2.75 -2.75 M-1.45 -4.7 L-1.35 -4.4 -1.45 -4.05 -1.8 -3.95 -2.1 -4.05 -2.25 -4.4 -2.1 -4.7 -1.8 -4.85 -1.45 -4.7 M4.05 -5.55 L3.9 -5.85 3.55 -6.0 3.2 -5.85 3.05 -5.55 3.2 -5.2 3.55 -5.1 3.9 -5.2 4.05 -5.55 M3.6 -3.8 L3.7 -3.55 Q3.8 -3.45 3.95 -3.45 L4.2 -3.55 4.3 -3.8 4.2 -4.05 3.95 -4.15 3.7 -4.05 3.6 -3.8 M1.85 -2.95 L1.7 -3.05 Q1.55 -2.7 1.75 -2.5 1.85 -2.4 1.85 -2.45 2.55 -2.9 1.85 -2.95 M3.85 -2.3 L3.7 -2.25 3.45 -2.0 3.45 -1.65 4.2 -1.6 4.15 -2.15 4.75 -3.05 4.15 -3.4 3.75 -3.05 3.85 -2.3 M1.25 1.5 L1.05 1.95 1.25 2.4 Q1.4 2.6 1.65 2.6 L2.1 2.4 2.25 1.95 2.1 1.5 1.65 1.3 1.25 1.5 M-4.0 3.8 Q-4.3 3.8 -4.5 3.6 L-4.7 3.1 -4.5 2.6 -4.0 2.4 -3.5 2.6 -3.3 3.1 -3.5 3.6 -4.0 3.8 M-5.45 1.35 L-5.0 1.55 -4.8 2.05 -5.0 2.55 -5.45 2.75 Q-5.7 2.75 -5.9 2.55 L-6.1 2.05 -5.9 1.55 Q-5.7 1.35 -5.45 1.35 M-4.45 0.3 L-3.95 0.05 Q-3.65 0.05 -3.45 0.3 L-3.25 0.8 -3.45 1.35 Q-3.65 1.55 -3.95 1.55 L-4.45 1.35 -4.65 0.8 -4.45 0.3 M-4.35 -1.35 L-3.95 -1.15 -3.8 -0.75 -3.95 -0.3 Q-4.1 -0.15 -4.35 -0.15 L-4.75 -0.3 -4.9 -0.75 -4.75 -1.15 -4.35 -1.35 M-3.15 -1.6 L-2.8 -1.45 -2.7 -1.05 -2.8 -0.65 Q-2.95 -0.5 -3.15 -0.5 -3.35 -0.5 -3.45 -0.65 L-3.6 -1.05 -3.45 -1.45 -3.15 -1.6 M-2.55 0.75 Q-2.25 0.75 -2.0 0.95 L-1.8 1.45 -2.0 1.95 Q-2.25 2.15 -2.55 2.15 L-3.05 1.95 -3.3 1.45 -3.05 0.95 -2.55 0.75 M0.25 8.6 L1.0 7.9 0.9 9.2 0.3 9.75 Q-0.3 9.85 0.35 9.5 L0.55 9.35 0.25 8.6 M4.3 -6.05 L4.2 -6.0 Q4.65 -5.6 4.3 -6.05 M-1.75 12.7 L-1.85 12.6 -2.0 12.6 Q-2.0 12.25 -1.55 12.85 -1.3 13.1 -1.65 13.05 L-1.7 12.8 -1.75 12.7 M-4.6 14.3 L-4.75 14.7 -4.6 15.15 -4.2 15.3 Q-3.95 15.3 -3.8 15.15 L-3.65 14.7 Q-3.65 14.45 -3.8 14.3 -3.95 14.1 -4.2 14.1 L-4.6 14.3 M-4.5 15.35 L-5.0 16.05 Q-4.65 16.35 -4.5 15.7 L-4.5 15.35 M-3.75 16.0 Q-3.95 16.0 -4.1 16.15 L-4.25 16.5 -4.1 16.85 -3.75 17.0 -3.4 16.85 -3.25 16.5 Q-3.25 16.3 -3.4 16.15 -3.55 16.0 -3.75 16.0 M-2.7 15.9 L-2.6 15.45 -2.7 15.05 -2.95 14.85 -3.2 15.05 -3.3 15.45 -3.2 15.9 -2.95 16.05 -2.7 15.9 M-5.55 17.2 L-5.95 17.35 -6.1 17.7 -5.95 18.05 -5.55 18.2 Q-5.3 18.2 -5.15 18.05 L-5.0 17.7 -5.15 17.35 Q-5.3 17.2 -5.55 17.2 M-5.65 22.35 L-6.25 22.35 -6.25 22.05 -5.65 22.05 -5.65 22.35 M-5.75 24.15 L-6.05 24.3 -7.1 24.4 -7.35 24.8 -7.1 24.05 -6.2 24.1 -5.65 24.05 -5.75 24.15 M-7.25 53.8 L-6.45 54.05 -5.7 53.9 -5.45 54.25 -4.15 54.4 -3.9 54.4 -3.65 54.25 -2.75 54.85 -1.9 53.45 -2.55 52.75 -3.3 53.5 -3.15 52.85 -2.45 52.65 -1.6 53.45 -1.9 54.65 -1.75 54.2 -1.55 53.95 Q-0.9 53.75 -0.65 54.3 L-0.2 54.75 0.15 55.2 0.1 55.65 0.25 57.2 0.2 57.25 0.25 57.3 0.45 57.8 Q0.6 58.4 0.3 58.7 L0.55 59.2 0.1 60.35 0.35 61.05 -0.3 62.3 -0.35 63.9 -0.4 64.0 -0.35 64.0 -0.25 64.75 -0.35 64.95 -0.1 65.25 0.55 66.6 -0.4 68.85 -0.7 67.85 -1.6 67.35 -1.7 67.4 -1.6 67.75 -1.9 67.55 -2.85 67.35 -3.05 67.3 Q-3.75 67.3 -4.2 67.95 -4.7 68.55 -4.7 69.45 -5.35 69.15 -5.05 68.45 L-5.0 67.75 -5.25 67.3 -5.8 67.1 -5.75 67.6 -5.85 67.1 -7.15 66.4 Q-8.35 66.7 -8.75 68.05 L-8.85 68.0 -9.2 68.15 -10.55 67.45 -10.1 66.15 -9.95 66.1 -9.95 66.15 -9.85 66.1 -9.5 66.05 -7.4 65.25 -7.5 64.15 -8.0 63.3 -7.6 62.8 -6.95 63.05 -6.9 63.7 -6.6 63.65 -6.25 63.35 -6.05 64.15 -5.15 64.35 Q-4.6 63.9 -4.75 63.35 L-4.95 62.85 -4.0 61.5 Q-4.7 60.05 -5.9 60.75 L-5.85 60.45 -5.35 60.45 -5.05 59.95 -4.0 59.45 -4.15 58.55 -5.3 58.55 -5.3 59.3 -5.85 59.2 -6.0 59.5 -6.05 59.4 -6.2 60.0 -6.25 60.15 -5.9 60.8 -6.2 62.3 -5.7 62.65 -6.2 63.35 -6.4 62.6 -7.6 62.05 -7.6 61.5 -8.15 61.05 -7.15 58.5 -6.1 59.0 -5.3 57.9 -5.05 57.6 -4.2 57.1 -3.8 56.1 -4.45 56.6 -4.8 56.05 -5.8 56.75 -4.6 57.05 -5.05 57.5 Q-5.55 56.9 -5.7 57.65 L-5.55 57.9 -6.2 58.35 -7.3 57.35 -6.4 55.5 -7.1 56.05 -8.35 55.15 -7.75 53.85 -7.25 53.8 M-1.9 55.15 L-1.85 55.15 -1.8 55.1 -1.85 55.05 -1.9 55.15 M-2.5 59.15 Q-2.15 59.15 -1.9 58.85 L-1.65 58.1 Q-1.65 57.65 -1.9 57.35 -2.15 57.05 -2.5 57.05 -2.85 57.05 -3.1 57.35 L-3.35 58.1 -3.1 58.85 -2.5 59.15 M-3.25 59.45 Q-3.25 58.8 -3.65 59.1 L-3.3 60.0 -3.25 59.45 M-2.8 60.75 L-3.1 61.0 Q-3.9 61.7 -3.1 61.75 L-2.8 60.85 -2.8 61.35 Q-3.8 63.4 -1.4 63.5 L-0.7 62.0 -1.05 61.35 -1.0 60.5 -2.9 59.3 -3.15 60.35 -2.8 60.75 M-2.1 65.3 L-1.6 64.9 -2.0 65.0 -2.1 65.3 M-3.95 64.2 L-3.7 64.1 -3.6 63.8 -3.7 63.55 -3.95 63.4 Q-4.1 63.4 -4.2 63.55 L-4.3 63.8 -4.2 64.1 -3.95 64.2 M-8.65 70.0 L-8.0 69.8 -7.25 70.4 -6.35 70.4 -6.0 69.85 -4.95 69.5 -5.85 69.85 -4.65 70.0 -4.9 70.8 -4.75 71.25 -4.0 71.75 Q-4.0 72.25 -4.45 72.6 L-5.65 72.9 -5.45 71.9 Q-6.35 71.45 -7.25 70.95 L-11.25 72.65 -12.85 71.3 -8.65 70.0 M-3.9 71.9 L-3.1 72.4 -2.1 72.3 -1.85 71.45 -1.4 70.9 -1.3 70.8 -1.35 70.95 -1.4 70.95 -1.4 70.9 -1.45 71.3 -1.9 75.05 -5.55 77.85 -5.95 77.85 -5.85 77.8 -3.9 75.25 -3.9 71.9 M-10.8 11.1 Q-10.65 11.1 -10.5 11.25 L-10.4 11.6 -10.5 11.95 -10.8 12.1 -11.05 11.95 -11.2 11.6 -11.05 11.25 -10.8 11.1 M-13.7 15.3 L-13.9 14.85 -13.7 14.45 -13.3 14.25 -12.85 14.45 -12.7 14.85 -12.85 15.3 -13.3 15.45 -13.7 15.3 M-13.2 12.7 Q-13.0 12.45 -12.7 12.45 -12.4 12.45 -12.15 12.7 L-11.95 13.2 -12.15 13.75 -12.05 13.7 -11.75 13.85 -11.65 14.1 -11.75 14.4 -12.05 14.5 -12.3 14.4 -12.45 14.1 -12.35 13.9 -12.7 13.95 -13.2 13.75 -13.45 13.2 -13.2 12.7 M-14.2 18.35 L-14.3 18.65 -14.6 18.75 -14.85 18.65 -15.0 18.35 -14.85 18.1 Q-14.75 17.95 -14.6 17.95 -14.45 17.95 -14.3 18.1 L-14.2 18.35 M-9.15 22.55 L-9.25 22.8 -9.15 23.05 -8.9 23.15 -8.65 23.05 -8.55 22.8 -8.65 22.55 -8.9 22.45 -9.15 22.55 M-15.45 28.15 L-15.3 27.7 -14.45 27.9 -15.05 28.45 -15.45 28.15 M-9.6 23.15 L-9.45 23.3 Q-9.15 22.75 -9.6 23.15 M-8.65 25.0 L-8.95 24.8 Q-9.05 25.65 -8.65 25.0 M-16.65 68.9 L-12.75 67.7 -11.3 68.3 -11.3 69.15 -13.35 70.5 -16.3 70.25 -16.65 68.9 M-6.85 65.5 L-6.65 65.6 Q-5.6 65.2 -6.25 64.9 L-6.85 65.5" fill="#a67400" fill-rule="evenodd" stroke="none"/>
    <path d="M-15.95 29.4 L-16.1 29.6 Q-16.4 30.45 -15.5 30.3 L-15.5 30.35 -16.7 31.25 -16.75 31.25 Q-17.2 30.9 -16.85 30.55 L-16.65 30.45 -16.65 30.4 -16.55 30.15 -16.55 29.95 -16.75 29.65 -17.2 29.5 -17.1 29.4 -17.1 28.95 -17.55 28.15 -18.0 28.05 -17.85 27.65 -18.05 27.05 -18.15 26.15 -17.5 24.75 -17.8 24.3 -17.25 21.65 -16.5 18.6 -16.05 17.6 -14.9 14.35 -14.1 14.2 -13.95 12.7 -13.25 12.05 -12.6 11.3 -12.2 10.3 -10.55 8.45 -10.5 7.5 -9.6 6.1 -8.65 4.75 Q-7.1 3.3 -6.85 1.55 L-6.0 -0.45 -5.7 -0.85 -5.7 -1.6 -5.25 -2.15 -5.1 -3.2 -4.65 -4.1 -3.0 -5.7 -0.3 -7.75 0.6 -7.8 1.1 -7.1 0.6 -6.15 1.75 -6.15 Q1.9 -5.9 0.95 -5.6 L0.75 -4.7 1.4 -4.3 1.25 -3.7 1.4 -3.25 0.65 -3.3 0.45 -2.4 Q1.0 -2.1 0.7 -1.7 L0.75 -0.75 0.0 -0.05 0.25 0.8 -0.65 1.15 -0.95 1.9 -1.75 2.45 -0.75 2.95 -1.65 4.1 -1.5 4.5 -1.85 5.05 -2.75 5.3 -2.45 5.85 -2.45 6.7 -2.55 6.9 Q-3.3 7.65 -4.05 7.1 L-4.0 7.3 -5.6 6.9 Q-6.45 7.7 -5.9 8.6 L-6.35 9.9 -5.8 9.8 -5.35 10.0 -5.05 10.7 -5.1 11.95 -5.75 13.3 -5.25 13.85 -5.1 14.85 -6.5 15.3 -6.55 15.7 -6.45 15.7 -5.9 16.75 -6.45 17.4 -7.5 16.8 -7.55 17.35 -7.25 17.9 -8.45 17.95 -9.05 18.85 -8.85 19.75 -9.35 21.6 -10.5 22.4 -10.65 22.7 -10.5 22.7 Q-11.35 23.1 -10.9 23.75 L-10.95 23.9 -11.8 24.4 -12.5 23.35 -13.5 22.85 -12.4 22.4 Q-11.75 22.05 -12.65 21.65 L-11.8 21.3 -13.2 20.05 -14.25 20.15 -13.95 21.3 -13.35 21.15 -12.65 21.65 -14.4 22.55 -13.95 23.35 -13.45 23.5 -13.15 23.65 -13.05 23.85 -13.35 24.55 -13.8 24.55 -14.1 24.75 -14.4 25.0 -14.4 25.45 -14.3 25.45 -15.3 27.7 -15.45 28.15 Q-15.8 27.95 -16.05 28.15 L-16.05 27.95 -16.4 28.7 Q-16.05 28.75 -15.95 29.4 M-1.45 -4.7 L-1.8 -4.85 -2.1 -4.7 -2.25 -4.4 -2.1 -4.05 -1.8 -3.95 -1.45 -4.05 -1.35 -4.4 -1.45 -4.7 M-2.75 -2.75 L-2.9 -2.35 -2.75 -1.95 -2.35 -1.8 Q-2.1 -1.8 -1.95 -1.95 -1.8 -2.1 -1.8 -2.35 L-1.95 -2.75 -2.35 -2.9 -2.75 -2.75 M1.85 -2.95 Q2.55 -2.9 1.85 -2.45 1.85 -2.4 1.75 -2.5 1.55 -2.7 1.7 -3.05 L1.85 -2.95 M-0.3 -1.05 L-0.4 -0.95 -0.55 -0.7 -0.5 -0.55 -0.35 -0.4 0.0 -0.4 0.15 -0.55 0.2 -0.7 0.15 -0.85 0.0 -1.05 -0.25 -1.1 -0.3 -1.05 M-2.55 0.75 L-3.05 0.95 -3.3 1.45 -3.05 1.95 -2.55 2.15 Q-2.25 2.15 -2.0 1.95 L-1.8 1.45 -2.0 0.95 Q-2.25 0.75 -2.55 0.75 M-3.15 -1.6 L-3.45 -1.45 -3.6 -1.05 -3.45 -0.65 Q-3.35 -0.5 -3.15 -0.5 -2.95 -0.5 -2.8 -0.65 L-2.7 -1.05 -2.8 -1.45 -3.15 -1.6 M-4.35 -1.35 L-4.75 -1.15 -4.9 -0.75 -4.75 -0.3 -4.35 -0.15 Q-4.1 -0.15 -3.95 -0.3 L-3.8 -0.75 -3.95 -1.15 -4.35 -1.35 M-4.45 0.3 L-4.65 0.8 -4.45 1.35 -3.95 1.55 Q-3.65 1.55 -3.45 1.35 L-3.25 0.8 -3.45 0.3 Q-3.65 0.05 -3.95 0.05 L-4.45 0.3 M-5.45 1.35 Q-5.7 1.35 -5.9 1.55 L-6.1 2.05 -5.9 2.55 Q-5.7 2.75 -5.45 2.75 L-5.0 2.55 -4.8 2.05 -5.0 1.55 -5.45 1.35 M-4.0 3.8 L-3.5 3.6 -3.3 3.1 -3.5 2.6 -4.0 2.4 -4.5 2.6 -4.7 3.1 -4.5 3.6 Q-4.3 3.8 -4.0 3.8 M-8.05 51.6 L-8.1 51.65 -8.2 51.65 -8.05 51.6 M-8.9 51.9 Q-8.95 53.0 -7.95 52.4 L-7.9 52.3 -7.7 53.25 -7.25 53.8 -7.75 53.85 -8.35 55.15 -7.1 56.05 -6.4 55.5 -7.3 57.35 -6.2 58.35 -5.55 57.9 -5.05 57.5 -4.6 57.05 -4.45 56.65 -4.45 56.6 -3.8 56.1 -4.2 57.1 -5.05 57.6 -5.3 57.9 -6.1 59.0 -7.15 58.5 -8.15 61.05 -7.6 61.5 -7.6 62.05 -6.4 62.6 -6.2 63.35 -6.25 63.35 -6.6 63.65 -6.9 63.7 -6.95 63.05 -7.6 62.8 -8.0 63.3 -7.5 64.15 -7.4 65.25 -9.5 66.05 -9.85 66.1 -9.95 66.15 -9.95 66.1 -10.1 66.15 -10.55 67.45 -9.2 68.15 -8.75 68.05 Q-8.35 66.7 -7.15 66.4 L-5.85 67.1 -6.15 68.55 -7.0 68.75 -7.2 69.35 -9.0 68.95 -8.65 70.0 -12.85 71.3 -12.95 70.75 -13.35 70.5 -11.3 69.15 -11.3 68.3 -12.75 67.7 -16.65 68.9 -16.3 63.85 -15.4 66.05 -14.8 66.65 -12.95 66.5 -10.75 64.35 Q-9.6 63.0 -9.75 61.35 -10.0 58.45 -10.65 55.9 L-9.75 52.35 -8.9 51.9 M-4.15 54.4 L-3.65 54.25 -3.9 54.4 -4.15 54.4 M-0.65 54.3 L-0.45 54.0 -0.2 54.75 -0.65 54.3 M-0.75 53.2 L-1.25 53.0 -1.25 52.8 -0.75 53.2 M-1.8 55.1 L-1.9 55.15 -1.85 55.05 -1.8 55.1 M-5.9 60.8 L-6.25 60.15 -6.2 60.0 -6.05 59.4 -6.0 59.5 -5.75 59.9 -5.85 60.45 -5.9 60.75 -5.9 60.8 M-4.7 69.45 Q-4.7 68.55 -4.2 67.95 -3.75 67.3 -3.05 67.3 L-3.15 67.35 Q-3.6 67.95 -2.85 67.35 L-1.9 67.55 -1.6 67.75 -1.5 68.0 Q-1.05 69.3 -1.75 70.35 -2.45 71.35 -2.8 70.55 L-3.45 70.65 -3.9 70.45 -4.05 69.6 -3.4 69.1 -3.5 68.65 -3.5 68.6 -3.55 68.65 Q-3.55 69.0 -3.85 69.25 L-4.7 69.45 M-0.1 65.25 L-0.35 64.95 -0.25 64.75 -0.1 65.25 M-0.35 64.0 L-0.4 64.0 -0.35 63.9 -0.35 64.0 M0.25 57.3 L0.2 57.25 0.25 57.2 0.25 57.3 M-3.25 59.45 L-3.3 60.0 -3.65 59.1 Q-3.25 58.8 -3.25 59.45 M-2.8 60.85 L-3.1 61.75 Q-3.9 61.7 -3.1 61.0 L-2.8 60.75 -2.75 60.75 -2.75 60.8 -2.8 60.85 M-3.95 64.2 L-4.2 64.1 -4.3 63.8 -4.2 63.55 Q-4.1 63.4 -3.95 63.4 L-3.7 63.55 -3.6 63.8 -3.7 64.1 -3.95 64.2 M-2.1 65.3 L-2.0 65.0 -1.6 64.9 -2.1 65.3 M-5.65 72.9 L-4.45 72.6 Q-4.0 72.25 -4.0 71.75 L-4.1 71.45 -3.9 71.9 -3.9 75.25 -5.85 77.8 -8.65 77.05 Q-6.45 76.45 -5.45 74.25 L-5.65 72.9 M-1.35 70.95 L-1.45 71.3 -1.4 70.9 -1.4 70.95 -1.35 70.95 M-1.55 69.1 L-1.7 69.15 Q-2.4 69.75 -1.7 69.45 L-1.55 69.1 M-6.45 5.15 L-7.15 5.1 -7.35 5.25 Q-8.45 6.75 -6.5 7.0 L-6.15 6.6 Q-5.6 5.7 -6.45 5.15 M-8.5 8.45 L-8.3 8.5 -8.1 8.45 -8.0 8.3 -8.1 8.15 -8.3 8.1 -8.5 8.15 -8.6 8.3 -8.5 8.45 M-6.2 7.95 L-6.3 7.55 Q-6.45 7.4 -6.65 7.4 L-6.95 7.55 -7.1 7.95 -6.95 8.35 -6.65 8.5 -6.3 8.35 -6.2 7.95 M-7.05 10.65 L-6.65 10.1 Q-7.15 9.6 -7.15 10.5 L-7.05 10.65 M-8.25 12.3 L-7.5 12.15 -7.3 11.35 Q-7.85 10.8 -8.2 11.7 L-8.25 12.3 M-10.8 11.1 L-11.05 11.25 -11.2 11.6 -11.05 11.95 -10.8 12.1 -10.5 11.95 -10.4 11.6 -10.5 11.25 Q-10.65 11.1 -10.8 11.1 M-9.5 15.65 L-8.7 15.45 -9.0 14.7 -9.5 15.65 M-7.2 14.45 L-7.2 14.5 -7.5 14.7 -7.6 14.85 -7.55 15.2 -7.4 15.45 -7.3 15.5 -6.7 15.55 -6.5 15.25 Q-6.35 14.8 -6.75 14.5 L-7.2 14.45 M-13.2 12.7 L-13.45 13.2 -13.2 13.75 -12.7 13.95 -12.35 13.9 -12.45 14.1 -12.3 14.4 -12.05 14.5 -11.75 14.4 -11.65 14.1 -11.75 13.85 -12.05 13.7 -12.15 13.75 -11.95 13.2 -12.15 12.7 Q-12.4 12.45 -12.7 12.45 -13.0 12.45 -13.2 12.7 M-13.7 15.3 L-13.3 15.45 -12.85 15.3 -12.7 14.85 -12.85 14.45 -13.3 14.25 -13.7 14.45 -13.9 14.85 -13.7 15.3 M-11.5 16.65 L-9.3 12.45 Q-11.15 13.65 -11.7 15.75 L-12.0 17.1 -12.6 17.8 -12.95 18.75 -12.7 19.95 -11.55 19.65 -11.65 19.45 -11.85 19.25 -12.1 19.2 -11.0 18.3 -11.6 17.7 -11.5 16.65 M-14.2 18.35 L-14.3 18.1 Q-14.45 17.95 -14.6 17.95 -14.75 17.95 -14.85 18.1 L-15.0 18.35 -14.85 18.65 -14.6 18.75 -14.3 18.65 -14.2 18.35 M-15.85 21.05 L-16.0 21.1 -16.5 21.5 -16.5 21.85 -16.5 22.0 -16.4 22.1 -16.25 22.25 -15.85 22.3 -15.65 22.2 Q-15.2 22.05 -15.15 21.6 L-15.25 21.35 -15.4 21.1 -15.85 21.05 M-11.45 22.1 Q-11.75 22.1 -11.65 22.35 L-11.45 22.45 Q-10.6 22.1 -11.45 22.1 M-9.45 17.55 Q-8.95 17.3 -9.55 17.45 L-9.95 17.15 Q-10.95 17.45 -10.3 18.35 L-10.0 18.45 Q-9.0 18.05 -9.45 17.55 M-13.6 23.7 Q-13.75 23.55 -13.9 23.55 L-14.15 23.7 -14.3 24.0 -14.15 24.35 -13.9 24.45 -13.6 24.35 -13.5 24.0 -13.6 23.7 M-6.25 51.85 L-6.2 51.8 -6.2 51.85 -6.25 51.85 M-6.85 65.5 L-6.25 64.9 Q-5.6 65.2 -6.65 65.6 L-6.85 65.5" fill="#cc9900" fill-rule="evenodd" stroke="none"/>
    <path d="M-0.3 -1.05 L-0.25 -1.1 0.0 -1.05 0.15 -0.85 0.2 -0.7 0.15 -0.55 0.0 -0.4 -0.35 -0.4 -0.5 -0.55 -0.55 -0.7 -0.4 -0.95 -0.3 -1.05 M-6.45 5.15 Q-5.6 5.7 -6.15 6.6 L-6.5 7.0 Q-8.45 6.75 -7.35 5.25 L-7.15 5.1 -6.45 5.15 M-7.2 14.45 L-6.75 14.5 Q-6.35 14.8 -6.5 15.25 L-6.7 15.55 -7.3 15.5 -7.4 15.45 -7.55 15.2 -7.6 14.85 -7.5 14.7 -7.2 14.5 -7.2 14.45 M-15.85 21.05 L-15.4 21.1 -15.25 21.35 -15.15 21.6 Q-15.2 22.05 -15.65 22.2 L-15.85 22.3 -16.25 22.25 -16.4 22.1 -16.5 22.0 -16.5 21.85 -16.5 21.5 -16.0 21.1 -15.85 21.05 M-9.55 17.45 L-9.45 17.55 Q-9.0 18.05 -10.0 18.45 L-10.3 18.35 Q-10.95 17.45 -9.95 17.15 L-9.55 17.45" fill="#ffcc00" fill-rule="evenodd" stroke="none"/>
    <path d="M-5.6 29.55 L-5.55 30.2 -5.65 30.2 -8.7 30.5 -9.25 30.3 -9.4 30.05 -9.25 29.3 -8.9 29.25 -8.55 29.25 -6.6 29.25 -5.9 29.35 -5.6 29.55 M-5.35 31.05 L-5.25 31.05 -4.85 31.55 -4.55 31.9 -4.35 32.4 -4.25 32.85 Q-4.15 33.95 -3.5 34.8 L-3.45 35.5 -3.15 36.8 -2.6 38.1 Q-2.15 39.1 -2.9 39.95 L-3.8 39.9 -4.2 39.85 -5.2 39.95 -5.6 39.5 -5.7 39.0 Q-5.65 38.25 -5.9 37.55 L-6.25 36.1 -7.05 32.85 -6.9 32.8 -7.1 32.75 -7.55 31.2 -5.35 31.05 M-3.2 44.9 L-2.1 45.1 -1.9 46.95 -1.9 47.25 -4.0 47.15 -4.25 47.15 -4.4 47.15 -4.65 47.2 -5.4 47.3 -5.4 47.25 -5.45 47.15 Q-5.65 46.1 -5.4 45.15 L-5.25 44.8 -4.75 44.75 -4.5 44.75 -3.2 44.9 M-1.65 47.7 L-1.55 47.7 -1.9 50.1 -3.8 49.65 Q-4.25 48.7 -3.8 47.65 L-1.95 47.7 -1.8 47.7 -1.65 47.7 M-5.0 40.75 L-4.25 40.65 -4.15 40.65 -4.05 40.6 -4.0 40.6 -3.7 40.55 -3.35 41.15 -3.2 41.6 -3.15 41.75 Q-3.05 42.35 -3.1 43.1 L-3.15 43.65 -3.25 43.65 -3.4 43.85 -3.45 43.85 -4.9 43.9 -5.8 44.0 -6.9 44.25 -7.3 43.65 Q-7.65 42.5 -7.35 41.35 L-5.75 40.9 -5.0 40.75" fill="#754900" fill-rule="evenodd" stroke="none"/>
    <path d="M-3.8 49.65 Q-6.9 49.25 -9.85 51.15 L-10.05 50.05 -9.6 49.65 -9.3 49.35 Q-6.75 47.8 -3.8 47.65 -4.25 48.7 -3.8 49.65 M-10.15 49.0 L-10.6 46.65 -12.0 46.2 -12.55 44.15 -12.5 44.15 -11.35 43.35 -7.8 41.5 -7.55 41.4 -7.35 41.35 Q-7.65 42.5 -7.3 43.65 L-6.9 44.25 Q-8.55 44.75 -9.85 45.85 L-9.05 45.9 -8.3 45.5 Q-6.75 44.9 -5.25 44.8 L-5.4 45.15 Q-5.65 46.1 -5.45 47.15 L-5.4 47.25 Q-7.85 47.65 -10.15 49.0 M-12.2 42.75 L-12.95 43.3 -13.6 42.8 -14.15 42.15 -14.9 40.5 -14.4 40.1 Q-10.95 37.45 -6.65 36.85 L-8.8 36.7 Q-11.95 37.25 -14.6 39.1 L-14.65 38.9 -14.65 38.85 -14.85 37.95 -15.0 37.4 -14.9 37.3 -8.6 33.3 -7.55 33.0 -7.5 32.95 -6.9 32.8 -7.05 32.85 -6.25 36.1 -5.9 37.55 Q-5.65 38.25 -5.7 39.0 L-5.6 39.5 -5.2 39.95 -6.1 40.1 -6.2 40.15 -12.2 42.75 M-15.3 36.3 L-16.05 37.0 -17.1 32.8 Q-13.5 29.7 -9.25 29.3 L-9.4 30.05 -9.25 30.3 -8.7 30.5 -9.4 30.65 Q-13.65 31.4 -16.4 34.6 L-16.5 34.7 -16.35 34.65 Q-12.25 31.75 -7.55 31.2 L-7.1 32.75 -7.4 32.6 -9.75 33.25 -10.75 33.6 -14.95 36.05 -15.3 36.3 M-6.6 29.25 L-5.65 29.35 -5.6 29.55 -5.9 29.35 -6.6 29.25 M-4.0 40.6 L-4.05 40.6 -4.15 40.65 -4.25 40.65 -5.0 40.75 -4.0 40.6 M-3.4 43.85 L-3.25 43.65 -3.15 43.65 -3.1 43.1 -3.2 43.8 -3.4 43.85" fill="#a66600" fill-rule="evenodd" stroke="none"/>
    <path d="M-6.0 25.9 L-6.0 26.05 -6.05 25.95 -6.0 25.9 M-6.3 27.4 L-6.05 27.15 -6.6 27.8 -6.85 27.9 -7.2 27.95 -9.95 28.1 -9.95 28.0 -10.1 28.15 -13.15 28.75 -13.35 28.8 Q-13.1 28.15 -12.65 28.6 L-12.05 28.15 -12.05 28.0 -12.0 27.95 -12.0 27.85 -12.05 27.9 Q-12.95 28.05 -12.8 27.1 L-12.0 26.7 -11.95 26.5 -11.9 25.95 Q-12.35 25.0 -11.75 24.6 L-11.15 25.05 -11.1 25.55 -11.1 25.65 -11.1 25.75 -10.35 26.55 -10.05 26.65 Q-9.9 26.7 -9.8 26.5 L-9.55 27.5 -8.6 27.5 -8.4 27.05 -8.45 26.45 -8.35 26.4 -8.1 26.65 -7.5 26.1 -7.6 25.65 -7.05 25.95 -6.6 26.05 -6.15 26.75 -6.9 27.85 -7.65 27.85 -6.85 27.9 -6.65 27.65 -6.5 27.6 -6.3 27.4 M-5.65 30.2 Q-5.25 30.6 -5.35 31.05 L-7.55 31.2 Q-12.25 31.75 -16.35 34.65 L-16.4 34.6 Q-13.65 31.4 -9.4 30.65 L-8.7 30.5 -5.65 30.2 M-3.8 39.9 L-3.35 39.95 -3.3 40.55 -2.9 42.85 Q-2.8 43.6 -2.85 44.35 L-2.8 44.95 -3.2 44.9 -4.5 44.75 -4.75 44.75 -5.25 44.8 Q-6.75 44.9 -8.3 45.5 L-9.05 45.9 -9.85 45.85 Q-8.55 44.75 -6.9 44.25 L-5.8 44.0 -4.9 43.9 -3.45 43.85 -3.4 43.85 -3.2 43.8 -3.1 43.1 Q-3.05 42.35 -3.15 41.75 L-3.2 41.6 -3.35 41.15 -3.7 40.55 -4.0 40.6 -5.0 40.75 -5.75 40.9 -7.35 41.35 -7.55 41.4 -7.8 41.5 -11.35 43.35 -12.5 44.15 -12.65 43.7 -12.75 43.2 -12.2 42.75 -6.2 40.15 -6.1 40.1 -5.2 39.95 -4.2 39.85 -3.8 39.9 M-1.9 46.95 Q-1.7 47.15 -1.65 47.5 L-1.65 47.7 -1.8 47.7 -1.95 47.7 -3.8 47.65 Q-6.75 47.8 -9.3 49.35 L-9.6 49.65 -9.75 49.6 Q-10.2 49.45 -10.15 49.0 -7.85 47.65 -5.4 47.25 L-5.4 47.3 -4.65 47.2 -4.4 47.15 -4.25 47.15 -4.0 47.15 -1.9 47.25 -1.9 46.95 M-14.4 40.1 L-14.5 39.9 -14.65 38.9 -14.6 39.1 Q-11.95 37.25 -8.8 36.7 L-6.65 36.85 Q-10.95 37.45 -14.4 40.1 M-14.85 37.95 Q-15.4 37.2 -15.3 36.3 L-14.95 36.05 -10.75 33.6 -9.75 33.25 -7.4 32.6 -7.1 32.75 -7.5 32.95 -7.55 33.0 -8.6 33.3 -14.9 37.3 -15.0 37.4 -14.85 37.95" fill="#5e3a00" fill-rule="evenodd" stroke="none"/>
    <path d="M-16.7 31.25 L-16.8 31.3 -16.75 31.25 -16.7 31.25 M-12.6 25.5 L-12.6 25.55 -12.65 25.55 -12.6 25.5" fill="#ffffff" fill-rule="evenodd" stroke="none"/>
  </g>
</svg>
