<?xml version="1.0" encoding="UTF-8" standalone="no"?>
<svg xmlns:xlink="http://www.w3.org/1999/xlink" height="133.8px" width="46.1px" xmlns="http://www.w3.org/2000/svg">
  <g transform="matrix(1.0, 0.0, 0.0, 1.0, 9.8, 17.2)">
    <path d="M-9.7 -4.75 L-9.2 -9.15 -8.5 -11.55 Q-7.3 -14.3 -4.5 -16.15 -2.3 -17.2 0.35 -17.2 2.95 -17.25 5.05 -15.85 6.75 -14.95 8.35 -13.65 9.95 -12.35 10.85 -10.55 16.65 -0.55 17.65 10.85 21.3 19.0 22.05 28.2 L21.8 29.0 22.3 29.2 Q25.55 42.85 24.7 58.25 L24.9 62.85 Q25.05 65.2 24.5 67.3 L22.3 70.6 22.65 71.2 Q21.7 73.4 21.8 75.85 L22.45 77.5 Q21.7 84.25 21.7 90.9 L21.4 91.5 Q23.7 94.35 25.45 97.2 25.55 98.35 24.6 98.95 L26.1 101.25 Q26.7 102.3 28.1 102.9 L31.85 109.75 Q33.55 110.65 35.0 111.95 36.45 113.2 36.3 115.45 35.9 116.05 34.9 116.05 L32.9 116.2 27.4 116.55 Q24.6 116.35 22.3 114.75 L16.3 110.2 Q13.3 107.75 9.8 106.65 L8.9 106.0 Q8.8 101.3 9.45 96.4 8.5 93.65 9.45 90.9 10.4 88.15 9.9 85.25 9.5 79.35 7.95 73.85 7.2 73.15 7.5 72.25 L7.85 70.45 3.8 65.75 3.5 65.4 Q1.7 63.25 2.65 60.0 L3.15 57.2 Q3.65 55.0 4.4 52.95 5.65 49.55 6.05 45.8 4.1 43.3 4.2 40.15 4.25 36.95 2.65 34.3 L1.7 32.2 Q1.05 31.1 1.5 29.95 0.2 28.65 -0.5 26.8 L-2.0 23.25 -2.25 22.15 Q-2.3 21.55 -2.95 21.75 -5.1 17.0 -6.7 12.05 L-6.35 13.0 -5.8 13.05 -4.85 14.6 -4.4 15.25 -3.5 17.65 -2.35 20.7 -1.95 20.7 -2.0 20.8 -1.8 21.3 -1.2 21.75 -1.5 21.75 -0.15 25.7 0.1 25.7 0.0 26.5 0.3 26.85 0.55 26.95 1.2 28.7 1.25 28.8 1.6 29.2 2.4 29.8 2.35 29.85 2.3 30.5 2.5 30.9 2.45 30.9 4.2 36.05 5.1 40.75 Q5.5 43.2 7.3 44.85 7.1 47.35 6.35 49.6 5.55 51.85 4.9 54.2 3.8 57.85 3.8 61.8 4.15 64.0 5.4 65.95 L8.15 69.65 Q8.4 68.7 7.75 67.9 7.15 67.05 7.2 66.1 L8.9 68.05 10.6 69.95 10.9 69.65 Q14.05 71.0 17.05 70.05 L17.5 69.75 18.2 69.15 18.4 69.0 Q19.05 68.35 19.85 68.8 L19.35 69.7 21.5 70.4 Q23.0 68.55 23.7 66.45 L23.5 59.2 Q24.65 46.35 22.2 34.5 21.95 33.3 22.0 32.05 21.95 30.75 21.5 29.75 L21.2 29.8 21.45 29.3 Q21.85 28.2 21.1 27.9 20.95 25.5 20.25 23.25 L20.25 23.0 20.05 21.85 19.7 22.2 20.25 21.65 Q20.05 19.0 19.1 16.6 L17.35 11.8 17.1 11.8 17.1 11.4 17.1 11.25 16.45 7.05 16.35 6.65 16.3 6.4 16.25 6.45 16.2 6.5 16.15 6.55 16.25 6.0 Q16.35 4.7 15.55 4.3 L15.5 4.35 15.8 4.05 Q14.3 0.05 13.05 -4.1 L11.95 -6.95 Q10.8 -9.5 8.95 -11.7 L4.5 -15.05 Q2.2 -16.5 -0.75 -16.4 -5.2 -15.75 -7.55 -11.7 L-8.5 -9.1 Q-9.1 -7.1 -9.2 -5.05 -9.55 -5.05 -9.7 -4.75 M-8.2 6.45 L-8.35 6.3 -8.5 5.7 -8.55 5.5 -8.5 5.65 -8.2 6.45 M4.35 4.35 L4.4 4.4 4.3 4.35 4.35 4.35 M19.25 71.55 Q19.15 71.1 18.65 70.7 L18.35 70.95 17.8 71.35 16.9 72.05 16.85 72.05 16.25 72.15 Q13.3 72.55 10.9 71.3 L10.9 71.25 10.2 70.85 9.5 70.4 8.9 69.9 8.65 70.9 Q8.5 71.65 8.6 72.4 L8.65 72.65 8.85 73.25 9.8 76.5 Q10.45 80.6 10.75 84.9 11.05 89.15 9.95 93.3 L10.35 95.05 10.45 95.3 10.65 95.9 Q10.7 96.55 10.35 97.2 L10.3 97.35 9.45 104.15 11.7 104.95 11.8 105.0 12.3 105.1 13.85 105.65 Q16.85 106.35 18.85 108.8 20.8 111.2 23.3 113.15 25.65 114.65 28.55 114.6 L29.0 114.55 35.1 114.25 35.2 113.65 Q34.4 112.55 33.2 112.0 31.95 111.4 31.05 110.3 L30.9 110.0 Q28.95 106.0 26.45 102.35 L26.25 101.75 25.7 101.3 24.95 100.3 24.0 99.25 Q24.75 99.0 24.55 98.15 L24.4 98.0 24.15 97.9 24.55 97.95 24.55 97.85 Q22.85 95.0 20.7 92.4 L20.7 91.9 20.65 91.9 20.9 91.3 21.0 90.8 21.05 90.55 20.85 90.75 21.1 90.35 Q20.75 84.55 21.35 78.35 L21.1 77.5 21.05 77.2 20.95 76.4 20.85 76.1 20.9 76.1 Q20.45 74.6 20.9 73.2 21.6 71.65 19.95 71.3 19.6 70.9 18.9 70.85 L18.85 70.85 19.25 71.55 M22.2 113.7 Q24.95 115.85 28.6 115.8 L35.5 115.35 35.25 114.75 27.4 114.95 Q23.45 114.75 20.65 111.45 18.5 108.45 15.7 107.05 12.8 105.6 9.45 104.9 L9.55 105.4 Q13.2 106.55 16.2 108.95 L22.2 113.7" fill="#000000" fill-rule="evenodd" stroke="none"/>
    <path d="M-9.7 -4.75 Q-9.55 -5.05 -9.2 -5.05 -9.1 -7.1 -8.5 -9.1 L-7.55 -11.7 Q-5.2 -15.75 -0.75 -16.4 2.2 -16.5 4.5 -15.05 L8.95 -11.7 Q10.8 -9.5 11.95 -6.95 L11.9 -6.75 12.0 -6.05 11.9 -6.05 12.05 -5.5 11.5 -7.35 Q10.55 -10.4 7.6 -10.5 7.05 -10.1 6.2 -10.05 L5.7 -9.95 Q4.9 -9.3 4.95 -8.3 5.05 -6.45 5.75 -5.05 3.7 -6.4 2.45 -4.5 L1.25 -4.15 Q0.75 -3.95 0.55 -3.4 -0.05 -1.55 1.0 0.3 L3.65 5.35 6.65 11.05 4.95 12.0 4.95 12.2 6.75 11.3 7.75 13.05 8.2 12.75 6.15 14.1 8.0 13.45 Q9.95 12.55 11.65 11.15 14.05 9.05 16.15 6.55 L16.2 6.5 16.35 6.65 16.25 6.45 16.3 6.4 16.35 6.65 16.45 7.05 17.1 11.25 17.1 11.4 17.1 11.8 17.35 11.8 19.1 16.6 Q20.05 19.0 20.25 21.65 L19.7 22.2 17.35 24.65 Q15.7 26.15 13.4 26.95 L13.4 27.25 Q17.4 26.4 20.25 23.25 20.95 25.5 21.1 27.9 L21.1 27.95 21.1 28.1 Q18.7 28.85 16.5 29.85 L13.75 30.45 13.45 29.25 11.8 23.9 13.85 22.3 13.85 22.2 Q13.1 22.1 12.65 22.65 L11.65 23.35 9.95 18.85 9.95 18.8 10.15 18.7 13.0 16.45 14.45 14.7 14.55 14.55 14.65 14.4 14.05 14.4 Q12.05 16.7 9.65 18.1 L9.35 17.4 Q8.9 16.35 8.85 15.2 L8.85 14.9 8.2 13.8 7.9 13.85 Q3.75 15.2 -0.2 16.9 L-2.05 17.05 -2.9 17.15 -3.65 17.25 -3.5 17.65 -4.4 15.25 -4.85 14.6 -5.8 13.05 -6.35 13.0 -6.7 12.05 -7.2 10.45 -7.1 10.45 Q-6.6 10.2 -6.45 9.7 -6.3 9.25 -6.55 8.9 -7.3 7.6 -8.2 6.45 L-8.5 5.65 -8.55 5.5 -9.75 -0.3 -9.7 -4.75 M17.5 69.75 L17.05 70.05 Q14.05 71.0 10.9 69.65 L10.6 69.95 8.9 68.05 7.2 66.1 Q7.15 67.05 7.75 67.9 8.4 68.7 8.15 69.65 L5.4 65.95 Q4.15 64.0 3.8 61.8 3.8 57.85 4.9 54.2 5.55 51.85 6.35 49.6 7.1 47.35 7.3 44.85 5.5 43.2 5.1 40.75 L4.2 36.05 2.45 30.9 2.5 30.9 3.7 30.95 4.2 31.0 Q4.45 32.55 5.25 34.05 L6.0 36.0 Q6.75 39.95 10.35 39.2 L10.3 38.7 Q9.9 34.5 8.1 30.8 L7.3 30.7 10.4 30.95 13.95 31.1 Q15.15 35.9 15.9 40.8 L16.6 45.1 Q17.5 50.55 18.05 55.95 L18.0 56.65 18.25 55.85 18.1 56.4 18.05 60.55 17.6 65.15 Q17.1 66.0 16.95 66.8 L17.5 66.35 17.05 70.05 17.5 69.75 M2.4 29.8 L1.6 29.2 1.9 29.45 4.05 30.1 4.1 30.45 2.95 30.0 2.4 29.8 M-0.45 12.35 L-0.65 12.35 -1.2 12.55 -1.35 13.05 Q-1.65 13.8 -1.3 14.4 0.05 16.95 1.6 15.85 L1.55 15.6 Q1.0 13.7 -0.45 12.35 M13.3 55.3 Q12.9 54.4 11.95 54.3 11.7 54.3 11.6 54.5 8.9 58.3 10.45 63.2 L10.7 63.5 11.0 63.75 12.35 63.65 12.6 63.4 12.8 63.1 12.95 62.3 13.4 55.55 13.3 55.3 M7.8 59.2 Q7.35 60.25 7.25 61.4 7.2 62.8 7.65 64.1 7.95 65.15 8.55 66.1 9.1 66.95 10.0 66.85 L10.05 66.8 Q10.45 66.15 10.15 65.65 L9.75 64.85 Q9.2 63.6 8.95 62.2 8.8 61.65 8.8 61.1 8.85 60.4 9.05 59.75 L9.2 58.9 9.2 58.75 9.35 58.35 9.2 58.7 9.6 56.2 9.55 56.15 9.55 56.1 9.6 56.05 9.65 55.8 9.0 56.5 7.8 59.2" fill="#990000" fill-rule="evenodd" stroke="none"/>
    <path d="M11.95 -6.95 L13.05 -4.1 Q14.3 0.05 15.8 4.05 L15.5 4.35 15.45 4.4 Q14.85 5.15 14.45 6.05 L13.9 6.05 14.25 6.05 13.9 6.95 13.5 7.5 Q12.25 9.65 10.3 11.2 L10.1 11.35 9.65 11.7 8.2 12.75 7.75 13.05 6.75 11.3 8.05 10.4 Q9.55 9.25 10.35 7.65 L7.85 10.05 6.65 11.05 3.65 5.35 1.0 0.3 Q-0.05 -1.55 0.55 -3.4 0.75 -3.95 1.25 -4.15 L2.45 -4.5 Q3.7 -6.4 5.75 -5.05 5.05 -6.45 4.95 -8.3 4.9 -9.3 5.7 -9.95 L6.2 -10.05 Q7.05 -10.1 7.6 -10.5 10.55 -10.4 11.5 -7.35 L12.05 -5.5 11.9 -6.05 12.0 -6.05 11.9 -6.75 11.95 -6.95 M16.2 6.5 L16.25 6.45 16.35 6.65 16.2 6.5 M21.2 29.8 L21.5 29.75 Q21.95 30.75 22.0 32.05 21.95 33.3 22.2 34.5 24.65 46.35 23.5 59.2 L23.7 66.45 Q23.0 68.55 21.5 70.4 L19.35 69.7 19.85 68.8 Q19.05 68.35 18.4 69.0 L18.2 69.15 17.5 69.75 17.05 70.05 17.5 66.35 Q18.85 64.95 19.55 63.1 19.75 61.5 18.9 60.3 L17.85 64.75 17.6 65.15 18.05 60.55 18.1 56.4 18.25 55.85 18.0 56.65 18.05 55.95 Q17.5 50.55 16.6 45.1 L15.9 40.8 Q15.15 35.9 13.95 31.1 L15.75 30.85 21.2 29.8 M4.35 4.35 L4.3 4.35 4.4 4.4 4.35 4.35" fill="#820000" fill-rule="evenodd" stroke="none"/>
    <path d="M15.5 4.35 L15.55 4.3 Q16.35 4.7 16.25 6.0 L16.15 6.55 Q14.05 9.05 11.65 11.15 9.95 12.55 8.0 13.45 L6.15 14.1 8.2 12.75 9.65 11.7 10.1 11.35 10.3 11.2 Q12.25 9.65 13.5 7.5 L13.9 6.95 14.25 6.05 13.9 6.05 14.45 6.05 Q14.85 5.15 15.45 4.4 L15.5 4.35 M19.7 22.2 L20.05 21.85 20.25 23.0 20.25 23.25 Q17.4 26.4 13.4 27.25 L13.4 26.95 Q15.7 26.15 17.35 24.65 L19.7 22.2 M21.1 27.9 Q21.85 28.2 21.45 29.3 L21.2 29.8 15.75 30.85 13.95 31.1 10.4 30.95 10.3 30.9 10.2 30.9 13.35 30.45 13.75 30.45 16.5 29.85 Q18.7 28.85 21.1 28.1 L21.1 27.95 21.1 27.9 M2.5 30.9 L2.3 30.5 2.35 29.85 2.4 29.8 2.95 30.0 4.1 30.45 Q4.6 30.65 5.05 31.0 L4.9 31.3 4.2 31.0 3.7 30.95 2.5 30.9 M0.55 26.95 L0.3 26.85 0.0 26.5 0.1 25.7 5.75 25.55 Q8.8 25.0 11.4 23.45 L11.65 23.35 12.65 22.65 Q13.1 22.1 13.85 22.2 L13.85 22.3 11.8 23.9 Q9.85 25.25 7.55 26.0 4.0 27.1 0.35 26.55 L0.55 26.95 M-1.2 21.75 L-1.8 21.3 -2.0 20.8 -1.95 20.7 Q2.55 20.8 6.75 19.45 L9.65 18.1 Q12.05 16.7 14.05 14.4 L14.65 14.4 14.55 14.55 14.45 14.7 13.0 16.45 10.15 18.7 9.95 18.8 7.5 20.05 Q3.25 21.75 -1.2 21.75 M6.65 11.05 L7.85 10.05 10.35 7.65 Q9.55 9.25 8.05 10.4 L6.75 11.3 4.95 12.2 4.95 12.0 6.65 11.05 M7.8 59.2 L9.0 56.5 9.65 55.8 9.6 56.05 9.55 56.1 9.55 56.15 9.6 56.2 9.2 58.7 9.35 58.35 9.2 58.75 9.2 58.9 9.05 59.75 Q8.85 60.4 8.8 61.1 8.8 61.65 8.95 62.2 9.2 63.6 9.75 64.85 L10.15 65.65 Q10.45 66.15 10.05 66.8 L10.0 66.85 Q9.1 66.95 8.55 66.1 7.95 65.15 7.65 64.1 7.2 62.8 7.25 61.4 7.35 60.25 7.8 59.2 M17.6 65.15 L17.85 64.75 18.9 60.3 Q19.75 61.5 19.55 63.1 18.85 64.95 17.5 66.35 L16.95 66.8 Q17.1 66.0 17.6 65.15" fill="#660000" fill-rule="evenodd" stroke="none"/>
    <path d="M1.6 29.2 L1.25 28.8 1.2 28.7 0.55 26.95 0.35 26.55 Q4.0 27.1 7.55 26.0 9.85 25.25 11.8 23.9 L13.45 29.25 13.75 30.45 13.35 30.45 10.2 30.9 10.3 30.9 10.4 30.95 7.3 30.7 8.1 30.8 Q9.9 34.5 10.3 38.7 L10.35 39.2 Q6.75 39.95 6.0 36.0 L5.25 34.05 Q4.45 32.55 4.2 31.0 L4.9 31.3 5.05 31.0 Q4.6 30.65 4.1 30.45 L4.05 30.1 1.9 29.45 1.6 29.2 M0.1 25.7 L-0.15 25.7 -1.5 21.75 -1.2 21.75 Q3.25 21.75 7.5 20.05 L9.95 18.8 9.95 18.85 11.65 23.35 11.4 23.45 Q8.8 25.0 5.75 25.55 L0.1 25.7 M-1.95 20.7 L-2.35 20.7 -3.5 17.65 -3.65 17.25 -2.9 17.15 -2.05 17.05 -0.2 16.9 Q3.75 15.2 7.9 13.85 L8.2 13.8 8.85 14.9 8.85 15.2 Q8.9 16.35 9.35 17.4 L9.65 18.1 6.75 19.45 Q2.55 20.8 -1.95 20.7 M-0.45 12.35 Q1.0 13.7 1.55 15.6 L1.6 15.85 Q0.05 16.95 -1.3 14.4 -1.65 13.8 -1.35 13.05 L-1.2 12.55 -0.65 12.35 -0.45 12.35 M13.3 55.3 L13.4 55.55 12.95 62.3 12.8 63.1 12.6 63.4 12.35 63.65 11.0 63.75 10.7 63.5 10.45 63.2 Q8.9 58.3 11.6 54.5 11.7 54.3 11.95 54.3 12.9 54.4 13.3 55.3" fill="#b30000" fill-rule="evenodd" stroke="none"/>
    <path d="M18.35 70.95 L18.65 70.7 Q19.15 71.1 19.25 71.55 L19.2 72.25 19.1 72.4 18.35 74.25 Q18.9 75.1 18.95 76.2 L17.85 76.55 16.95 76.75 16.85 76.8 16.55 76.8 16.5 76.65 16.6 76.4 16.6 76.15 16.75 73.15 16.8 72.8 16.85 72.05 16.9 72.05 17.8 71.35 18.35 70.95 M19.95 71.3 Q21.6 71.65 20.9 73.2 20.45 74.6 20.9 76.1 L20.85 76.1 19.75 76.2 Q19.4 75.05 19.65 73.8 L19.8 72.7 19.95 71.3 M21.1 77.5 L21.35 78.35 Q20.75 84.55 21.1 90.35 L20.85 90.75 20.8 90.7 20.15 90.55 20.0 90.6 20.0 90.65 18.2 91.2 18.05 91.25 18.05 91.2 Q18.65 90.65 18.55 89.8 L18.5 88.35 Q18.5 85.4 18.8 82.45 L18.85 82.1 18.85 81.8 18.85 78.55 18.85 78.2 18.85 78.45 19.15 78.4 21.25 78.05 21.1 77.5 M20.65 91.9 L20.7 91.9 20.7 92.4 Q22.85 95.0 24.55 97.85 L24.55 97.95 24.15 97.9 18.55 98.3 18.0 98.4 Q17.6 98.65 17.8 99.1 17.05 99.8 17.05 100.5 L16.75 99.9 17.0 100.4 16.8 99.15 Q16.6 97.7 16.7 96.2 L16.75 93.25 16.8 92.95 Q16.95 92.4 16.7 92.05 L16.65 92.0 16.15 91.8 15.95 91.7 13.95 90.5 Q13.4 88.65 14.6 87.2 L15.7 87.45 16.35 87.5 16.7 87.4 Q16.9 84.4 16.7 81.3 L15.7 81.1 14.05 80.45 Q13.45 79.7 13.45 78.7 13.95 78.05 13.95 77.1 13.9 76.1 15.0 76.4 15.4 76.7 15.95 76.8 L16.4 76.8 16.55 76.8 16.55 76.95 16.35 77.75 16.35 77.8 16.4 78.0 16.35 78.0 Q15.6 77.6 14.7 77.5 L14.7 79.95 14.85 80.05 14.9 80.1 16.7 80.6 Q17.8 80.7 17.7 82.05 L17.75 85.4 17.75 85.5 17.75 85.8 17.7 86.65 17.7 86.7 17.7 86.75 17.55 87.7 17.25 88.6 Q15.9 88.9 14.8 88.2 14.15 88.5 14.3 89.25 14.35 89.95 14.9 90.15 L15.85 90.8 16.85 91.25 16.85 91.3 16.8 91.95 16.8 92.0 16.75 92.0 18.0 91.95 18.0 92.0 18.1 92.05 18.3 92.15 19.3 92.1 20.0 91.9 20.55 91.9 20.65 91.9 M26.45 102.35 Q28.95 106.0 30.9 110.0 L31.05 110.3 Q31.95 111.4 33.2 112.0 34.4 112.55 35.2 113.65 L35.1 114.25 29.0 114.55 28.55 114.6 27.95 112.8 25.6 112.5 Q25.35 112.5 25.25 112.3 22.95 108.45 20.05 105.05 L18.85 103.5 18.45 103.2 18.4 103.1 18.35 102.8 17.35 101.55 17.25 101.45 Q16.65 101.1 17.15 100.65 17.3 100.5 17.5 100.5 L18.0 100.5 Q18.4 101.8 19.5 102.6 L19.65 102.7 19.65 102.5 19.7 102.45 19.7 102.85 19.6 103.2 19.55 103.4 20.55 102.85 20.85 102.85 20.9 102.85 26.4 102.3 26.45 102.35" fill="#660045" fill-rule="evenodd" stroke="none"/>
    <path d="M19.25 71.55 L18.85 70.85 18.9 70.85 Q19.6 70.9 19.95 71.3 L19.8 72.7 19.65 73.8 Q19.4 75.05 19.75 76.2 L20.85 76.1 20.95 76.4 21.05 77.2 21.1 77.5 21.25 78.05 19.15 78.4 18.85 78.45 18.85 78.2 18.85 78.55 17.45 78.05 16.35 77.8 16.35 77.75 16.55 76.95 16.55 76.8 16.4 76.8 15.95 76.8 Q15.4 76.7 15.0 76.4 13.9 76.1 13.95 77.1 13.95 78.05 13.45 78.7 13.45 79.7 14.05 80.45 L15.7 81.1 16.7 81.3 Q16.9 84.4 16.7 87.4 L16.35 87.5 15.7 87.45 14.6 87.2 Q13.4 88.65 13.95 90.5 L15.95 91.7 16.15 91.8 16.65 92.0 16.7 92.05 Q16.95 92.4 16.8 92.95 L16.75 93.25 16.7 96.2 Q16.6 97.7 16.8 99.15 L17.0 100.4 16.75 99.9 17.05 100.5 Q17.05 99.8 17.8 99.1 17.6 98.65 18.0 98.4 L18.55 98.3 24.15 97.9 24.4 98.0 24.55 98.15 Q24.75 99.0 24.0 99.25 L23.8 99.15 18.3 99.4 18.0 100.5 17.5 100.5 Q17.3 100.5 17.15 100.65 16.65 101.1 17.25 101.45 L17.35 101.55 18.35 102.8 18.4 103.1 18.45 103.2 18.85 103.5 20.05 105.05 Q22.95 108.45 25.25 112.3 25.35 112.5 25.6 112.5 L27.95 112.8 28.55 114.6 Q25.65 114.65 23.3 113.15 20.8 111.2 18.85 108.8 16.85 106.35 13.85 105.65 L12.3 105.1 Q12.65 104.45 12.6 103.3 12.55 102.5 12.75 101.7 13.6 98.55 11.1 97.15 L11.45 97.0 11.75 96.65 11.95 96.25 12.4 95.0 12.55 94.3 Q12.65 92.65 11.6 91.05 L11.55 89.75 Q11.35 85.9 12.1 82.25 L12.1 82.1 Q12.75 81.4 13.0 80.5 L13.05 80.4 13.05 80.3 13.1 80.2 13.1 80.05 Q13.45 78.15 12.75 76.25 L12.4 75.5 Q11.85 74.4 11.65 73.15 11.5 72.0 10.9 71.3 13.3 72.55 16.25 72.15 L16.85 72.05 16.8 72.8 16.75 73.15 16.6 76.15 16.6 76.4 16.5 76.65 16.55 76.8 16.85 76.8 16.95 76.75 17.85 76.55 18.95 76.2 Q18.9 75.1 18.35 74.25 L19.1 72.4 19.2 72.25 19.25 71.55 M20.85 90.75 L21.05 90.55 21.0 90.8 20.9 91.3 20.65 91.9 20.55 91.9 20.0 91.9 19.3 92.1 18.3 92.15 18.1 92.05 18.0 92.0 18.0 91.95 16.75 92.0 16.8 92.0 16.8 91.95 17.5 91.8 18.15 91.25 18.2 91.2 20.0 90.65 20.0 90.6 20.15 90.55 20.8 90.7 20.85 90.75 M25.7 101.3 L26.25 101.75 26.45 102.35 26.4 102.3 20.9 102.85 20.85 102.85 20.55 102.85 19.55 103.4 19.6 103.2 19.7 102.85 19.7 102.45 Q22.95 101.6 26.1 101.65 L25.7 101.3 M17.8 71.35 L18.35 70.95 17.8 71.35 M10.9 97.25 L11.05 97.15 11.05 97.2 10.9 97.25" fill="#99409f" fill-rule="evenodd" stroke="none"/>
    <path d="M12.3 105.1 L11.8 105.0 11.7 104.95 9.45 104.15 10.3 97.35 10.35 97.2 Q10.7 96.55 10.65 95.9 L10.7 96.05 11.45 97.0 11.75 96.65 11.45 97.0 11.1 97.15 Q13.6 98.55 12.75 101.7 12.55 102.5 12.6 103.3 12.65 104.45 12.3 105.1 M10.35 95.05 L9.95 93.3 Q11.05 89.15 10.75 84.9 10.45 80.6 9.8 76.5 L8.85 73.25 8.65 72.65 8.6 72.4 Q8.5 71.65 8.65 70.9 L8.9 69.9 9.5 70.4 10.2 70.85 10.9 71.25 10.9 71.3 Q11.5 72.0 11.65 73.15 11.85 74.4 12.4 75.5 L12.75 76.25 Q12.45 76.0 12.0 75.85 10.55 76.4 10.8 78.2 L11.2 81.0 Q11.35 81.9 12.1 82.25 11.35 85.9 11.55 89.75 L11.6 91.05 Q12.65 92.65 12.55 94.3 L11.65 93.1 11.1 93.1 Q10.2 93.95 10.35 95.05 M16.8 91.95 L16.85 91.3 16.85 91.25 15.85 90.8 14.9 90.15 Q14.35 89.95 14.3 89.25 14.15 88.5 14.8 88.2 15.9 88.9 17.25 88.6 L17.55 87.7 17.7 86.75 17.7 86.7 17.7 86.65 17.75 85.8 17.75 85.5 17.75 85.4 17.7 82.05 Q17.8 80.7 16.7 80.6 L14.9 80.1 14.85 80.05 14.7 79.95 14.7 77.5 Q15.6 77.6 16.35 78.0 L16.4 78.0 16.35 77.8 17.45 78.05 18.85 78.55 18.85 81.8 18.85 82.1 18.8 82.45 Q18.5 85.4 18.5 88.35 L18.55 89.8 Q18.65 90.65 18.05 91.2 L18.05 91.25 18.2 91.2 18.15 91.25 17.5 91.8 16.8 91.95 M22.2 113.7 L16.2 108.95 Q13.2 106.55 9.55 105.4 L9.45 104.9 Q12.8 105.6 15.7 107.05 18.5 108.45 20.65 111.45 23.45 114.75 27.4 114.95 L35.25 114.75 35.5 115.35 28.6 115.8 Q24.95 115.85 22.2 113.7 M10.9 97.25 L11.05 97.2 11.05 97.15 10.9 97.25" fill="#cc66ff" fill-rule="evenodd" stroke="none"/>
    <path d="M10.65 95.9 L10.45 95.3 10.35 95.05 Q10.2 93.95 11.1 93.1 L11.65 93.1 12.55 94.3 12.4 95.0 11.95 96.25 11.75 96.65 11.45 97.0 10.7 96.05 10.65 95.9 M12.75 76.25 Q13.45 78.15 13.1 80.05 L13.1 80.2 13.05 80.3 13.05 80.4 13.0 80.5 Q12.75 81.4 12.1 82.1 L12.1 82.25 Q11.35 81.9 11.2 81.0 L10.8 78.2 Q10.55 76.4 12.0 75.85 12.45 76.0 12.75 76.25" fill="#ffccff" fill-rule="evenodd" stroke="none"/>
    <path d="M24.0 99.25 L24.95 100.3 25.7 101.3 26.1 101.65 Q22.95 101.6 19.7 102.45 L19.65 102.5 19.5 102.6 Q18.4 101.8 18.0 100.5 L18.3 99.4 23.8 99.15 24.0 99.25" fill="#e3c29d" fill-rule="evenodd" stroke="none"/>
    <path d="M19.5 102.6 L19.65 102.5 19.65 102.7 19.5 102.6" fill="#ffffff" fill-rule="evenodd" stroke="none"/>
  </g>
</svg>
