<?xml version="1.0" encoding="UTF-8" standalone="no"?>
<svg xmlns:xlink="http://www.w3.org/1999/xlink" height="131.3px" width="27.5px" xmlns="http://www.w3.org/2000/svg">
  <g transform="matrix(1.0, 0.0, 0.0, 1.0, 18.05, 9.35)">
    <path d="M-2.55 -9.3 Q2.55 -9.75 5.95 -5.95 9.65 -1.2 9.05 5.05 L7.8 17.05 Q7.25 20.8 6.25 24.35 6.7 26.0 6.05 27.55 5.35 29.1 5.0 30.7 5.9 32.5 5.5 34.75 6.55 35.95 6.45 37.6 6.0 40.9 6.75 43.85 L8.35 49.65 Q9.15 52.5 9.45 55.45 9.0 59.8 7.85 63.9 L5.5 72.05 Q4.6 72.65 5.0 73.5 5.4 76.45 3.95 78.7 3.2 83.55 3.1 88.3 2.95 93.0 4.1 97.65 4.55 98.45 4.3 99.55 4.0 100.65 4.15 101.9 4.4 104.85 5.25 107.6 6.15 110.3 5.95 113.4 6.4 114.5 5.5 115.5 4.1 118.65 1.3 120.35 -1.45 122.05 -4.9 121.9 -11.05 122.2 -16.55 120.7 -17.45 120.15 -17.35 119.1 L-17.0 117.2 -13.2 113.25 Q-12.3 111.8 -11.65 110.15 -11.0 108.45 -9.4 107.6 -8.3 106.25 -9.4 105.0 L-9.7 104.65 Q-8.6 102.85 -7.85 100.8 -7.1 98.8 -7.55 96.6 L-7.95 96.6 Q-9.95 89.25 -10.0 81.6 -8.75 79.55 -9.3 77.15 L-10.65 75.4 Q-11.35 74.4 -10.75 73.3 L-10.65 73.15 Q-12.4 72.35 -13.95 71.1 -14.75 67.0 -16.05 63.15 -17.1 58.25 -17.75 53.4 -18.45 48.55 -17.5 43.45 -16.65 38.25 -16.1 32.75 L-16.35 32.05 Q-15.95 28.3 -16.1 24.45 -16.25 20.5 -15.3 16.75 L-15.55 16.2 Q-15.1 10.55 -13.85 5.2 -12.65 -0.25 -10.0 -5.0 -8.65 -6.95 -6.8 -8.2 -4.95 -9.45 -2.55 -9.3 M6.95 16.35 L7.5 13.45 Q7.65 9.9 7.95 6.3 8.15 2.75 7.6 -0.7 6.75 -3.05 5.1 -5.0 1.35 -9.6 -4.45 -8.15 -8.1 -7.15 -9.85 -3.95 -11.65 -0.8 -12.65 2.4 -13.2 7.35 -14.1 12.25 -14.75 15.4 -14.8 18.65 L-14.8 21.85 -14.8 22.05 -14.85 22.6 -14.3 24.45 Q-14.65 24.8 -14.5 25.2 L-14.9 25.2 Q-14.85 27.4 -15.3 29.45 L-15.25 29.45 Q-15.5 29.8 -15.25 30.15 L-14.65 29.95 -15.3 30.2 -15.4 30.45 Q-15.6 31.5 -15.4 32.35 L-15.3 33.85 -15.0 34.5 -15.1 34.55 Q-15.1 35.95 -15.4 37.05 -15.75 38.15 -15.55 39.5 -16.7 44.8 -17.35 50.3 L-16.25 55.8 Q-15.15 62.65 -13.15 69.15 -12.55 70.65 -11.15 71.2 -9.75 71.75 -8.55 72.8 L-7.45 72.6 -8.75 71.15 Q-9.5 70.4 -9.6 69.55 L-6.5 72.15 Q-5.15 73.75 -3.2 74.1 L-0.2 74.6 -0.2 74.65 0.2 74.7 0.3 74.7 0.45 74.75 0.35 74.45 0.15 72.35 Q0.05 71.65 0.2 71.1 L0.45 70.45 Q1.1 71.9 1.15 73.7 2.2 73.6 3.05 73.1 L4.4 71.75 6.95 63.4 Q8.2 59.2 8.75 54.75 6.95 49.6 5.95 44.15 L5.2 46.05 4.75 45.3 5.5 39.7 5.35 37.6 5.35 37.55 5.35 37.45 Q5.3 36.3 4.4 35.5 L4.35 31.85 Q4.2 29.95 5.0 28.45 L4.5 28.1 4.55 28.0 4.8 27.3 4.85 27.05 5.3 25.95 5.15 25.7 Q5.45 25.35 5.35 24.9 L5.25 24.45 5.3 24.5 6.95 16.35 M5.4 113.2 L5.2 112.65 Q4.65 109.15 3.45 105.65 2.25 102.15 3.7 98.45 L2.5 94.5 Q1.7 87.9 2.35 81.45 2.45 79.5 3.4 78.0 4.3 76.45 3.85 74.55 L1.45 75.1 1.45 75.35 Q-0.75 75.55 -2.6 76.6 -3.9 76.05 -4.9 74.9 L-4.9 75.3 -5.25 75.15 Q-4.9 74.55 -5.5 74.35 L-6.6 73.6 Q-6.85 72.85 -7.35 73.35 L-8.2 74.1 -9.8 73.6 -9.75 74.9 -9.5 75.25 Q-8.15 77.3 -8.5 80.1 L-8.35 80.15 -8.6 81.1 -8.6 81.25 -8.85 81.15 -8.85 81.45 -8.85 81.85 -8.8 83.05 Q-8.55 89.6 -7.5 95.9 L-6.95 95.95 -6.9 95.95 -6.3 95.95 Q-6.75 96.45 -6.4 97.15 L-6.3 97.25 Q-6.1 99.15 -6.95 100.85 L-8.6 104.4 -8.45 104.55 -8.4 105.1 -8.15 105.75 -8.0 106.3 -9.1 107.85 -9.05 107.75 -9.4 108.0 -9.65 108.55 -9.65 108.9 -9.75 108.9 -9.8 108.95 -9.95 109.3 -10.3 110.0 -10.85 111.05 -10.9 111.15 -11.25 111.75 -12.3 113.55 Q-13.65 115.8 -16.3 117.05 L-16.5 117.55 Q-16.7 118.35 -15.95 118.5 L-14.2 119.0 -7.9 119.75 -4.6 119.75 -1.8 119.25 Q0.75 118.45 1.65 116.05 2.1 114.75 3.05 114.1 3.9 113.4 5.25 113.25 L5.4 113.4 5.4 113.2 M0.15 107.15 L0.4 107.25 0.85 107.45 -0.1 109.75 -0.25 109.85 0.1 108.9 0.3 108.4 Q0.6 107.9 0.05 107.75 L-0.1 107.75 -0.2 107.85 0.15 107.15 M2.6 117.9 Q3.25 116.75 4.35 116.0 5.35 115.25 5.5 113.95 4.0 114.05 3.0 115.0 2.3 116.65 1.15 118.15 -0.1 119.6 -2.0 120.05 -9.45 120.9 -16.5 119.0 L-16.65 119.5 -8.85 120.9 -0.95 120.55 Q1.0 119.5 2.6 117.9 M-6.95 24.9 L-7.0 24.8 -7.0 24.65 -6.5 24.9 -6.95 24.9 M-2.7 84.8 L-3.25 84.85 -3.85 85.05 -2.75 84.8 -2.7 84.8 M-4.05 85.2 L-4.35 85.95 -4.4 86.55 -4.45 85.8 -4.05 85.2" fill="#000000" fill-rule="evenodd" stroke="none"/>
    <path d="M-14.8 18.65 Q-14.75 15.4 -14.1 12.25 -13.2 7.35 -12.65 2.4 -11.65 -0.8 -9.85 -3.95 -8.1 -7.15 -4.45 -8.15 1.35 -9.6 5.1 -5.0 6.75 -3.05 7.6 -0.7 8.15 2.75 7.95 6.3 7.65 9.9 7.5 13.45 L6.95 16.35 6.25 15.5 6.3 13.3 Q6.4 11.1 4.15 11.1 L4.5 9.45 Q5.45 6.7 3.2 5.65 L3.4 4.35 Q4.1 1.65 1.8 0.9 L1.8 0.95 0.85 1.2 0.45 1.6 -0.05 2.8 -1.25 12.4 -1.9 18.45 -4.7 17.55 -7.15 17.65 -6.5 17.8 -10.4 17.8 -10.05 17.8 Q-9.15 13.0 -10.05 8.45 L-10.25 8.5 -10.45 8.75 Q-10.95 8.9 -11.05 9.35 -12.45 11.7 -13.05 14.4 -13.75 16.2 -13.65 18.2 L-13.25 18.15 -13.8 18.2 Q-14.4 18.3 -14.8 18.65 M5.15 25.7 L5.3 25.95 4.85 27.05 4.75 27.2 -0.4 24.05 -1.25 23.75 -2.45 23.05 -2.0 19.0 Q-0.35 19.7 1.15 21.05 L1.2 21.1 Q3.5 23.2 5.15 25.7 M4.5 28.1 L5.0 28.45 Q4.2 29.95 4.35 31.85 L4.4 35.5 Q5.3 36.3 5.35 37.45 L5.35 37.55 5.35 37.6 Q4.7 38.05 3.75 37.3 L-0.15 34.55 Q-1.55 33.7 -3.15 33.2 L-3.25 33.2 -3.3 34.75 Q-3.45 39.8 -3.05 44.8 L-1.8 56.5 Q-1.6 58.0 -1.55 59.45 -1.5 62.65 -0.95 65.75 L0.2 71.1 Q0.05 71.65 0.15 72.35 L0.35 74.45 0.3 74.7 0.2 74.7 -0.2 74.65 -0.2 74.6 -3.2 74.1 Q-5.15 73.75 -6.5 72.15 L-9.6 69.55 Q-9.5 70.4 -8.75 71.15 L-7.45 72.6 -8.55 72.8 Q-9.75 71.75 -11.15 71.2 -12.55 70.65 -13.15 69.15 -15.15 62.65 -16.25 55.8 L-17.35 50.3 Q-16.7 44.8 -15.55 39.5 -15.75 38.15 -15.4 37.05 -15.1 35.95 -15.1 34.55 L-15.0 34.5 -13.1 33.35 -13.15 35.2 -13.25 37.3 Q-13.4 38.45 -12.55 39.1 -12.25 39.3 -12.0 39.1 -10.55 37.85 -10.65 35.65 L-10.65 32.6 -10.65 32.45 -5.15 32.15 -4.25 32.7 -3.25 33.15 -3.05 30.0 Q-1.1 30.5 0.65 31.55 L0.55 31.45 Q-1.1 30.05 -3.0 29.25 L-2.55 24.2 -1.9 24.4 Q-0.9 24.75 0.1 25.4 L0.25 25.5 0.35 25.55 Q2.5 26.6 4.5 28.1 M-2.5 23.4 L-4.25 23.1 -2.45 23.25 -2.5 23.4 M-14.3 32.25 L-15.3 32.6 -15.35 32.55 -14.3 32.25 M-9.55 51.65 L-9.65 51.65 -9.7 51.6 -9.75 51.65 -9.85 51.75 -9.85 53.05 -9.8 54.3 Q-9.6 56.6 -10.75 58.6 -11.9 60.55 -11.7 62.85 L-11.5 63.95 Q-11.05 65.4 -9.55 65.9 L-9.4 65.85 -9.35 65.7 -9.4 65.2 -9.35 64.8 Q-9.85 63.65 -9.6 62.4 L-8.9 59.9 Q-8.3 58.1 -8.55 56.55 L-8.5 56.8 Q-8.35 55.6 -8.55 54.45 L-8.85 53.2 -8.85 53.15 Q-9.0 52.3 -9.55 51.65 M-15.25 54.3 Q-15.45 57.1 -12.8 57.45 -11.7 56.85 -11.8 55.7 L-11.7 53.95 Q-11.25 51.55 -12.5 49.55 -14.15 50.05 -14.75 51.85 L-15.25 54.3 M-6.95 59.8 L-7.55 60.8 Q-8.9 65.5 -4.9 68.35 L-3.95 68.15 Q-2.95 67.9 -3.1 66.85 -3.3 65.1 -4.25 63.55 L-4.4 62.8 Q-4.05 60.65 -5.4 59.4 L-6.4 59.4 -6.95 59.8" fill="#990000" fill-rule="evenodd" stroke="none"/>
    <path d="M6.95 16.35 L5.3 24.5 5.25 24.45 Q2.5 20.2 -1.9 18.45 L-1.25 12.4 -0.05 2.8 0.45 1.6 0.85 1.2 1.8 0.95 1.8 0.9 Q4.1 1.65 3.4 4.35 L3.2 5.65 Q5.45 6.7 4.5 9.45 L4.15 11.1 Q6.4 11.1 6.3 13.3 L6.25 15.5 6.95 16.35 M5.35 37.6 L5.5 39.7 4.75 45.3 5.2 46.05 5.95 44.15 Q6.95 49.6 8.75 54.75 8.2 59.2 6.95 63.4 L4.4 71.75 3.05 73.1 Q2.2 73.6 1.15 73.7 1.1 71.9 0.45 70.45 L0.2 71.1 -0.95 65.75 Q-1.5 62.65 -1.55 59.45 -1.6 58.0 -1.8 56.5 L-3.05 44.8 Q-3.45 39.8 -3.3 34.75 L-3.25 33.2 -3.15 33.2 Q-1.55 33.7 -0.15 34.55 L3.75 37.3 Q4.7 38.05 5.35 37.6 M1.55 59.85 L1.45 59.9 1.45 60.45 1.4 60.5 1.35 60.6 1.25 62.8 1.25 63.25 0.95 65.55 0.85 65.7 Q0.5 66.35 0.7 66.95 L0.75 66.85 Q0.4 67.55 0.35 68.4 L1.1 67.75 1.3 67.5 1.45 67.5 1.9 67.15 Q3.8 64.6 2.55 61.7 L2.5 61.65 2.0 60.7 1.85 60.45 1.85 60.35 1.8 60.25 1.6 60.1 1.6 60.05 1.55 59.85 M-2.45 23.05 L-1.25 23.75 -0.4 24.05 -2.5 23.4 -2.45 23.25 -2.45 23.05" fill="#820000" fill-rule="evenodd" stroke="none"/>
    <path d="M-15.4 32.35 Q-15.6 31.5 -15.4 30.45 L-15.3 30.2 -14.65 29.95 -10.5 29.1 -10.1 29.05 -4.6 29.75 -3.05 30.0 -3.25 33.15 -4.25 32.7 -5.15 32.15 -4.55 32.25 Q-7.05 31.05 -9.9 31.4 L-14.05 32.2 -14.3 32.25 -15.35 32.55 -15.4 32.35 M-15.25 29.45 L-15.3 29.45 Q-14.85 27.4 -14.9 25.2 L-14.5 25.2 -14.25 25.15 -14.15 25.15 -10.8 25.05 -6.95 24.9 -6.5 24.9 -7.0 24.65 -8.8 24.2 -9.25 24.15 -9.85 24.1 -10.0 24.1 -10.2 24.1 -14.15 24.3 -14.5 22.75 Q-13.5 21.9 -12.2 21.65 L-9.8 21.05 Q-12.55 20.75 -14.8 22.1 L-14.8 22.05 -14.8 21.85 -14.8 18.65 Q-14.4 18.3 -13.8 18.2 L-13.25 18.15 -13.65 18.2 Q-13.75 16.2 -13.05 14.4 -12.45 11.7 -11.05 9.35 -10.95 8.9 -10.45 8.75 L-10.25 8.5 -10.05 8.45 Q-9.15 13.0 -10.05 17.8 L-10.4 17.8 -6.5 17.8 -4.45 18.25 -4.2 18.3 Q-3.05 18.5 -2.0 19.0 L-2.45 23.05 -2.45 23.25 -4.25 23.1 -4.35 23.1 -4.9 23.0 -5.5 22.95 -5.65 22.95 -5.8 23.05 -5.9 23.35 -5.8 23.4 -2.7 24.15 -1.9 24.4 -2.55 24.2 -3.0 29.25 Q-4.85 28.45 -6.95 28.25 L-7.6 28.15 Q-11.15 27.85 -14.35 29.05 L-15.25 29.4 -15.25 29.45 M-10.65 32.45 L-10.65 32.6 -10.65 35.65 Q-10.55 37.85 -12.0 39.1 -12.25 39.3 -12.55 39.1 -13.4 38.45 -13.25 37.3 L-13.15 35.2 -13.1 33.35 -10.65 32.45 M-6.95 59.8 L-6.4 59.4 -5.4 59.4 Q-4.05 60.65 -4.4 62.8 L-4.25 63.55 Q-3.3 65.1 -3.1 66.85 -2.95 67.9 -3.95 68.15 L-4.9 68.35 Q-8.9 65.5 -7.55 60.8 L-6.95 59.8 M-15.25 54.3 L-14.75 51.85 Q-14.15 50.05 -12.5 49.55 -11.25 51.55 -11.7 53.95 L-11.8 55.7 Q-11.7 56.85 -12.8 57.45 -15.45 57.1 -15.25 54.3" fill="#b30000" fill-rule="evenodd" stroke="none"/>
    <path d="M5.25 24.45 L5.35 24.9 Q5.45 25.35 5.15 25.7 3.5 23.2 1.2 21.1 L1.15 21.05 Q-0.35 19.7 -2.0 19.0 -3.05 18.5 -4.2 18.3 L-4.45 18.25 -6.5 17.8 -7.15 17.65 -4.7 17.55 -1.9 18.45 Q2.5 20.2 5.25 24.45 M4.85 27.05 L4.8 27.3 4.55 28.0 4.5 28.1 Q2.5 26.6 0.35 25.55 L0.25 25.5 0.1 25.4 Q-0.9 24.75 -1.9 24.4 L-2.7 24.15 -5.8 23.4 -5.9 23.35 -5.8 23.05 -5.65 22.95 -5.5 22.95 -4.9 23.0 -4.35 23.1 -4.25 23.1 -2.5 23.4 -0.4 24.05 4.75 27.2 4.85 27.05 M-15.0 34.5 L-15.3 33.85 -15.4 32.35 -15.35 32.55 -15.3 32.6 -14.3 32.25 -14.05 32.2 -9.9 31.4 Q-7.05 31.05 -4.55 32.25 L-5.15 32.15 -10.65 32.45 -13.1 33.35 -15.0 34.5 M-14.65 29.95 L-15.25 30.15 Q-15.5 29.8 -15.25 29.45 L-15.25 29.4 -14.35 29.05 Q-11.15 27.85 -7.6 28.15 L-6.95 28.25 Q-4.85 28.45 -3.0 29.25 -1.1 30.05 0.55 31.45 L0.65 31.55 Q-1.1 30.5 -3.05 30.0 L-4.6 29.75 -10.1 29.05 -10.5 29.1 -14.65 29.95 M-14.5 25.2 Q-14.65 24.8 -14.3 24.45 L-14.85 22.6 -14.8 22.05 -14.8 22.1 Q-12.55 20.75 -9.8 21.05 L-12.2 21.65 Q-13.5 21.9 -14.5 22.75 L-14.15 24.3 -10.2 24.1 -10.0 24.1 -9.85 24.1 -9.25 24.15 -8.8 24.2 -7.0 24.65 -7.0 24.8 -6.95 24.9 -10.8 25.05 -14.15 25.15 -14.25 25.15 -14.5 25.2 M1.55 59.85 L1.6 60.05 1.6 60.1 1.8 60.25 1.85 60.35 1.85 60.45 2.0 60.7 2.5 61.65 2.55 61.7 Q3.8 64.6 1.9 67.15 L1.45 67.5 1.3 67.5 1.1 67.75 0.35 68.4 Q0.4 67.55 0.75 66.85 L0.7 66.95 Q0.5 66.35 0.85 65.7 L0.95 65.55 1.25 63.25 1.25 62.8 1.35 60.6 1.4 60.5 1.45 60.45 1.45 59.9 1.55 59.85 M-9.55 51.65 Q-9.0 52.3 -8.85 53.15 L-8.85 53.2 -8.55 54.45 Q-8.35 55.6 -8.5 56.8 L-8.55 56.55 Q-8.3 58.1 -8.9 59.9 L-9.6 62.4 Q-9.85 63.65 -9.35 64.8 L-9.4 65.2 -9.35 65.7 -9.4 65.85 -9.55 65.9 Q-11.05 65.4 -11.5 63.95 L-11.7 62.85 Q-11.9 60.55 -10.75 58.6 -9.6 56.6 -9.8 54.3 L-9.85 53.05 -9.85 51.75 -9.75 51.65 -9.7 51.6 -9.65 51.65 -9.55 51.65" fill="#660000" fill-rule="evenodd" stroke="none"/>
    <path d="M-9.5 75.25 L-9.75 74.9 -9.8 73.6 -8.2 74.1 -7.35 73.35 Q-6.85 72.85 -6.6 73.6 L-5.5 74.35 Q-4.9 74.55 -5.25 75.15 L-4.9 75.3 -4.9 74.9 Q-3.9 76.05 -2.6 76.6 -0.75 75.55 1.45 75.35 L1.45 75.1 3.85 74.55 Q4.3 76.45 3.4 78.0 2.45 79.5 2.35 81.45 1.7 87.9 2.5 94.5 L3.7 98.45 Q2.25 102.15 3.45 105.65 4.65 109.15 5.2 112.65 L5.4 113.2 5.25 113.25 Q3.9 113.4 3.05 114.1 2.1 114.75 1.65 116.05 0.75 118.45 -1.8 119.25 L-4.6 119.75 Q-4.85 119.35 -4.5 118.75 -4.9 116.85 -3.35 115.5 L-2.7 114.8 Q-1.4 113.15 -1.1 111.15 L-1.1 111.1 -1.0 110.65 -1.0 110.6 -0.95 110.55 -0.9 110.4 -0.75 110.05 -0.8 110.05 -0.85 110.05 -1.25 109.75 -7.2 109.05 -9.05 108.9 -9.6 108.9 -9.65 108.9 -9.65 108.55 -9.4 108.0 -9.05 107.75 -9.1 107.85 Q-4.75 107.8 -1.0 109.35 L-0.8 109.45 -0.45 108.45 -0.2 107.85 -0.1 107.75 0.05 107.75 Q0.6 107.9 0.3 108.4 L0.1 108.9 -0.25 109.85 -0.1 109.75 0.85 107.45 0.4 107.25 0.15 107.15 0.2 107.05 Q-1.7 106.15 -3.75 106.3 L-7.85 106.15 -8.0 106.3 -8.15 105.75 -8.4 105.1 -8.45 104.55 Q-7.95 104.95 -7.35 104.85 L-6.85 104.8 -6.0 104.9 -2.1 105.25 Q-0.55 105.35 0.4 106.45 L1.1 104.9 1.65 103.45 Q1.8 101.85 2.6 100.45 1.55 99.4 1.05 98.05 L-0.1 94.45 -0.1 95.15 Q-1.2 96.9 -2.85 96.95 L-5.15 97.0 -6.3 97.1 -6.3 97.25 -6.4 97.15 Q-6.75 96.45 -6.3 95.95 L-3.5 95.85 -2.9 95.75 -2.4 95.7 -1.25 95.5 -1.1 95.45 -1.1 93.0 -2.3 93.0 -3.25 92.75 -3.9 92.4 -4.0 92.35 -4.4 86.55 -4.35 85.95 -4.05 85.2 -3.85 85.05 -3.25 84.85 -2.7 84.8 -2.65 84.8 -1.9 84.8 Q-1.25 84.7 -0.7 84.4 -0.65 83.3 -0.9 82.45 L-1.0 82.1 -2.15 82.2 -2.3 82.2 -6.85 81.75 Q-7.35 81.45 -8.0 81.45 L-8.6 81.25 -8.6 81.1 -8.35 80.15 -6.9 80.45 -4.65 80.65 Q-4.6 80.0 -4.85 79.5 -4.5 78.3 -5.15 77.5 -5.8 76.75 -5.5 75.7 L-7.9 75.55 -9.5 75.25 M1.75 78.95 L1.95 77.15 Q-0.95 77.45 -4.05 77.05 L-4.5 76.9 -4.8 76.5 Q-4.15 77.3 -4.15 78.4 L-4.05 80.75 Q-2.65 81.05 -1.15 80.75 0.0 81.05 0.05 82.2 L0.05 82.3 Q0.2 81.6 0.5 81.0 0.75 80.4 1.25 79.9 L1.75 78.95 M-1.45 85.6 L-3.7 85.9 -3.4 90.9 Q-3.35 91.8 -2.5 91.7 L-0.95 91.65 Q-0.35 92.65 -0.15 93.8 L0.1 93.15 -0.05 92.75 -0.1 92.45 0.0 90.1 -0.25 85.05 Q-0.75 85.5 -1.45 85.6" fill="#660045" fill-rule="evenodd" stroke="none"/>
    <path d="M-16.5 117.55 L-16.3 117.05 Q-13.65 115.8 -12.3 113.55 L-11.25 111.75 Q-10.5 112.1 -9.7 111.35 L-8.0 110.2 Q-6.7 109.65 -7.2 109.05 L-1.25 109.75 -0.85 110.05 -0.8 110.05 -0.75 110.05 -0.9 110.4 -0.95 110.55 -1.0 110.6 -1.0 110.65 -1.1 111.1 -1.1 111.15 -2.05 111.05 -2.55 110.85 -4.6 110.5 -8.8 110.7 -9.3 111.4 -10.1 113.05 -11.6 115.05 -11.95 115.35 -16.45 118.15 -16.5 117.55 M-9.95 109.3 L-9.8 108.95 -9.6 108.9 -9.05 108.9 -9.95 109.3 M-8.45 104.55 L-8.6 104.4 -6.95 100.85 Q-6.1 99.15 -6.3 97.25 L-6.3 97.1 -5.15 97.0 -5.15 97.1 Q-5.0 99.35 -5.4 101.5 -5.65 102.75 -6.3 103.8 L-6.55 104.2 -6.85 104.8 -7.35 104.85 Q-7.95 104.95 -8.45 104.55 M-6.3 95.95 L-6.9 95.95 -6.9 95.9 -6.95 95.95 -7.5 95.9 Q-8.55 89.6 -8.8 83.05 L-8.75 84.25 -6.85 84.3 -6.2 83.8 Q-5.6 82.85 -6.4 82.1 L-6.85 81.75 -2.3 82.2 -2.85 82.2 -2.95 82.75 -2.75 84.45 -2.85 84.45 -3.9 84.7 -5.05 84.7 -5.9 84.85 -6.2 85.4 -6.45 86.65 -6.5 88.3 -6.25 91.15 -5.9 92.65 Q-5.75 93.15 -5.2 93.15 L-4.8 93.2 -4.25 93.3 -3.65 93.4 -3.5 93.45 -3.5 95.3 -3.35 95.8 -2.9 95.75 -3.5 95.85 -6.3 95.95 M-8.85 81.45 L-8.85 81.15 -8.6 81.25 -8.0 81.45 -8.7 81.45 -8.85 81.45 M-8.35 80.15 L-8.5 80.1 Q-8.15 77.3 -9.5 75.25 L-7.9 75.55 -7.3 75.6 -7.05 76.35 Q-6.75 78.4 -6.9 80.45 L-8.35 80.15 M2.6 117.9 Q1.0 119.5 -0.95 120.55 L-8.85 120.9 -16.65 119.5 -16.5 119.0 Q-9.45 120.9 -2.0 120.05 -0.1 119.6 1.15 118.15 2.3 116.65 3.0 115.0 4.0 114.05 5.5 113.95 5.35 115.25 4.35 116.0 3.25 116.75 2.6 117.9" fill="#cc66ff" fill-rule="evenodd" stroke="none"/>
    <path d="M-4.6 119.75 L-7.9 119.75 -14.2 119.0 -15.95 118.5 Q-16.7 118.35 -16.5 117.55 L-16.45 118.15 -11.95 115.35 -11.6 115.05 -10.1 113.05 -9.3 111.4 -8.8 110.7 -4.6 110.5 -2.55 110.85 -2.05 111.05 -1.1 111.15 Q-1.4 113.15 -2.7 114.8 L-3.35 115.5 Q-4.9 116.85 -4.5 118.75 -4.85 119.35 -4.6 119.75 M-10.9 111.15 L-10.85 111.05 -10.9 111.15 M-9.8 108.95 L-9.75 108.9 -9.65 108.9 -9.6 108.9 -9.8 108.95 M-6.9 95.95 L-6.95 95.95 -6.9 95.9 -6.9 95.95 M-7.9 75.55 L-5.5 75.7 Q-5.8 76.75 -5.15 77.5 -4.5 78.3 -4.85 79.5 -4.6 80.0 -4.65 80.65 L-6.9 80.45 Q-6.75 78.4 -7.05 76.35 L-7.3 75.6 -7.9 75.55 M1.75 78.95 L1.25 79.9 Q0.75 80.4 0.5 81.0 0.2 81.6 0.05 82.3 L0.05 82.2 Q0.0 81.05 -1.15 80.75 -2.65 81.05 -4.05 80.75 L-4.15 78.4 Q-4.15 77.3 -4.8 76.5 L-4.5 76.9 -4.05 77.05 Q-0.95 77.45 1.95 77.15 L1.75 78.95 M-5.15 97.0 L-2.85 96.95 Q-1.2 96.9 -0.1 95.15 L-0.1 94.45 1.05 98.05 Q1.55 99.4 2.6 100.45 1.8 101.85 1.65 103.45 L1.1 104.9 0.4 106.45 Q-0.55 105.35 -2.1 105.25 L-6.0 104.9 -6.85 104.8 -6.55 104.2 -6.3 103.8 Q-5.65 102.75 -5.4 101.5 -5.0 99.35 -5.15 97.1 L-5.15 97.0 M-2.3 82.2 L-2.15 82.2 -1.0 82.1 -0.9 82.45 Q-0.65 83.3 -0.7 84.4 -1.25 84.7 -1.9 84.8 L-2.65 84.8 -2.7 84.8 -2.75 84.8 -3.85 85.05 -4.05 85.2 -4.45 85.8 -4.4 86.55 -4.0 92.35 -3.9 92.4 -3.25 92.75 -2.3 93.0 -1.1 93.0 -1.1 95.45 -1.25 95.5 -2.4 95.7 -2.9 95.75 -3.35 95.8 -3.5 95.3 -3.5 93.45 -3.65 93.4 -4.25 93.3 -4.8 93.2 -5.2 93.15 Q-5.75 93.15 -5.9 92.65 L-6.25 91.15 -6.5 88.3 -6.45 86.65 -6.2 85.4 -5.9 84.85 -5.05 84.7 -3.9 84.7 -2.85 84.45 -2.75 84.45 -2.95 82.75 -2.85 82.2 -2.3 82.2 M-1.45 85.6 Q-0.75 85.5 -0.25 85.05 L0.0 90.1 -0.1 92.45 -0.05 92.75 0.1 93.15 -0.15 93.8 Q-0.35 92.65 -0.95 91.65 L-2.5 91.7 Q-3.35 91.8 -3.4 90.9 L-3.7 85.9 -1.45 85.6 M-0.9 110.4 L-0.75 110.05 -0.8 110.05 -0.75 110.05 -0.9 110.4" fill="#99409f" fill-rule="evenodd" stroke="none"/>
    <path d="M0.35 74.45 L0.45 74.75 0.3 74.7 0.35 74.45 M5.4 113.2 L5.4 113.4 5.25 113.25 5.4 113.2" fill="#ffffff" fill-rule="evenodd" stroke="none"/>
    <path d="M-11.25 111.75 L-10.9 111.15 -10.85 111.05 -10.3 110.0 -9.95 109.3 -9.05 108.9 -7.2 109.05 Q-6.7 109.65 -8.0 110.2 L-9.7 111.35 Q-10.5 112.1 -11.25 111.75 M-8.8 83.05 L-8.85 81.85 -8.85 81.45 -8.7 81.45 -8.0 81.45 Q-7.35 81.45 -6.85 81.75 L-6.4 82.1 Q-5.6 82.85 -6.2 83.8 L-6.85 84.3 -8.75 84.25 -8.8 83.05" fill="#ffccff" fill-rule="evenodd" stroke="none"/>
    <path d="M-9.1 107.85 L-8.0 106.3 -7.85 106.15 -3.75 106.3 Q-1.7 106.15 0.2 107.05 L0.15 107.15 -0.2 107.85 -0.45 108.45 -0.8 109.45 -1.0 109.35 Q-4.75 107.8 -9.1 107.85" fill="#e3c29d" fill-rule="evenodd" stroke="none"/>
  </g>
</svg>
