<?xml version="1.0" encoding="UTF-8" standalone="no"?>
<svg xmlns:xlink="http://www.w3.org/1999/xlink" height="108.3px" width="56.4px" xmlns="http://www.w3.org/2000/svg">
  <g transform="matrix(1.0, 0.0, 0.0, 1.0, 7.0, 4.65)">
    <path d="M7.5 -1.85 L6.7 -1.15 Q5.45 0.35 5.65 1.9 L0.8 -1.1 -0.1 -1.8 Q1.25 -3.0 3.05 -3.65 5.6 -3.25 7.5 -1.85 M14.35 7.35 L15.25 7.9 19.9 10.5 20.45 11.05 Q20.35 12.75 20.5 14.45 L20.6 15.05 Q18.0 14.15 15.55 12.7 L12.95 10.9 13.4 10.45 Q14.0 10.05 14.65 10.05 14.8 8.8 14.4 7.5 L14.35 7.35 M5.35 22.2 L6.6 24.25 8.4 27.75 8.55 28.0 Q9.55 29.2 10.0 30.7 L10.2 31.3 10.45 32.1 12.75 38.0 12.75 38.05 12.75 39.1 12.7 39.25 12.25 39.2 Q11.55 39.85 11.2 40.7 L10.85 40.55 10.5 40.6 10.4 40.65 Q9.25 41.3 9.3 42.6 L9.35 43.0 9.15 42.95 8.85 43.05 8.2 43.2 7.6 43.7 9.15 42.35 Q9.0 41.25 9.5 40.2 L9.65 40.25 Q10.45 40.55 10.5 39.8 L10.5 39.7 10.55 39.25 10.6 38.95 11.2 38.85 Q12.85 37.65 11.2 36.3 L10.5 36.3 10.25 36.5 Q9.3 32.45 7.95 28.6 L7.7 28.0 7.2 26.6 6.2 24.1 6.1 23.85 6.0 23.65 5.35 22.2 M11.5 44.0 L11.75 44.0 11.3 44.5 10.85 44.65 10.75 44.55 10.7 44.45 10.75 44.45 11.2 44.35 11.45 44.0 11.5 44.0 M-0.4 58.2 L-0.05 58.45 -0.65 58.05 -0.8 58.15 Q-1.55 59.05 -1.45 60.05 L-3.2 60.2 -3.2 59.95 Q-3.55 57.85 -4.5 56.05 L-3.85 55.3 -3.75 55.15 Q-3.25 56.4 -2.05 57.15 L-0.4 58.2 M-1.25 64.85 L-1.25 65.05 -1.3 65.25 -1.35 65.5 -1.15 66.1 Q-1.0 66.9 -0.4 67.5 1.4 69.7 2.65 72.15 3.9 74.6 3.75 77.5 L2.35 81.75 2.35 79.9 Q2.4 78.1 2.0 76.35 L1.75 75.35 1.05 72.6 0.05 70.35 -0.3 69.4 -1.6 67.4 -2.1 66.75 -2.45 65.7 Q-2.5 65.35 -2.2 65.15 L-2.2 65.1 -2.35 65.1 -1.85 64.75 -1.25 64.85 M-3.5 64.55 L-3.1 61.2 -3.05 61.1 Q-1.8 60.85 -1.0 61.5 -1.55 61.75 -1.95 62.3 L-2.25 62.75 Q-2.75 63.55 -2.7 64.4 L-2.6 64.7 -3.5 64.95 -3.5 64.65 -3.5 64.55 M7.5 39.05 L6.9 38.6 7.45 38.15 7.5 39.05 M3.7 31.05 L2.5 26.25 Q1.75 22.65 0.35 19.35 L0.4 19.4 0.6 19.6 2.1 21.1 2.75 22.15 4.1 24.9 4.65 26.05 Q6.0 28.75 6.6 31.7 L5.3 30.2 4.6 30.2 3.8 30.9 3.7 31.05 M26.25 40.6 Q25.85 38.2 27.55 36.45 28.1 35.9 28.9 35.85 L29.95 35.75 30.55 35.9 31.1 36.1 31.75 36.85 Q33.1 38.5 33.65 40.5 L33.95 41.85 33.95 41.95 34.05 42.85 34.05 43.0 34.05 43.3 33.9 43.4 32.7 44.05 31.35 44.1 Q30.6 43.95 29.85 43.45 L29.75 43.35 26.25 40.6 M28.7 25.7 L27.4 24.5 25.45 22.7 24.95 22.2 Q24.25 20.9 22.95 20.25 L22.65 20.55 20.05 18.9 17.1 16.75 15.5 13.8 17.4 14.85 18.05 15.15 22.1 17.05 23.05 17.55 24.65 18.7 Q28.8 21.85 32.0 26.1 35.7 31.1 38.35 36.5 40.25 40.55 40.3 45.1 L40.3 45.4 39.1 44.45 Q38.6 43.7 37.95 44.2 38.05 45.7 37.75 47.35 L37.5 48.35 37.4 49.35 36.7 49.25 Q35.8 49.65 35.7 50.65 L35.85 51.65 Q36.4 53.15 37.7 53.75 L37.6 53.95 Q37.4 54.25 37.35 54.6 37.25 54.95 37.3 55.35 L37.2 55.35 Q33.8 55.5 31.0 53.85 30.4 51.95 32.2 50.9 L34.3 51.45 33.85 49.95 35.3 51.55 35.4 51.65 35.5 51.5 34.2 49.0 Q33.8 48.25 33.8 47.45 L34.05 46.4 34.25 46.4 34.45 46.35 35.55 45.75 35.6 45.7 35.85 45.4 35.85 45.25 Q35.8 43.2 35.25 41.35 L35.05 40.8 Q34.45 39.2 33.4 37.8 L32.8 37.0 33.8 37.75 34.75 38.75 34.7 38.7 34.15 37.25 31.2 30.45 30.35 28.7 30.6 28.75 31.2 28.75 31.25 28.75 Q30.65 26.55 28.7 25.7 M11.7 7.9 L11.8 8.0 11.85 8.1 11.85 8.15 11.9 8.25 12.05 9.65 11.95 9.0 11.7 7.9 M19.05 17.15 Q18.75 17.85 19.55 18.35 L20.3 18.15 Q20.0 17.35 19.05 17.15 M35.05 34.2 L35.25 34.0 Q35.2 33.05 34.3 32.7 34.1 33.65 35.05 34.2 M40.6 47.7 Q41.3 48.75 40.95 49.95 L40.3 50.55 40.0 50.55 38.85 50.05 Q37.95 49.1 38.35 48.0 L38.85 45.7 40.6 47.65 40.6 47.7 M36.35 56.85 L36.45 56.85 Q35.6 57.3 34.85 57.85 32.35 59.7 31.05 62.7 L30.95 62.65 Q29.25 62.2 27.7 61.35 L27.45 61.2 26.8 60.8 26.1 60.3 26.35 60.25 27.35 60.35 Q26.7 57.35 29.2 55.15 30.0 54.45 30.9 54.4 L31.45 54.85 32.65 55.8 Q34.25 56.9 36.35 56.85 M29.55 63.65 L27.5 65.65 26.45 67.6 25.7 67.6 Q24.1 67.55 22.75 66.95 L22.6 66.9 22.1 66.65 21.1 65.95 21.1 65.25 Q21.7 61.2 25.65 60.35 27.3 62.45 29.75 63.45 L29.7 63.5 29.5 63.65 29.55 63.65 M25.4 68.95 L25.7 68.95 Q25.9 70.05 25.45 70.65 L24.55 71.2 Q22.3 71.5 20.15 71.25 19.7 70.45 19.65 69.35 19.6 67.25 21.05 66.5 L21.4 66.85 22.3 67.7 22.45 67.8 22.75 68.05 22.85 68.1 22.9 68.15 23.0 68.2 23.75 68.6 24.6 68.85 24.5 68.85 25.4 68.95 M26.3 77.15 L26.15 77.6 27.5 78.6 27.7 79.05 28.4 80.4 Q29.35 81.95 29.8 83.65 30.35 85.75 31.2 87.75 L30.45 88.05 Q29.4 88.2 28.9 88.9 L28.35 86.75 Q27.1 82.7 23.65 80.35 L23.05 79.65 22.55 78.35 Q20.15 76.35 20.6 73.55 L20.65 73.65 21.4 74.05 23.7 74.2 Q23.75 75.65 25.0 76.25 L25.7 76.7 26.3 77.15 M46.55 92.9 Q47.35 96.25 48.45 99.55 46.95 98.55 46.65 96.7 45.75 95.6 44.4 95.4 L43.7 95.15 Q43.0 94.7 42.9 93.75 43.1 92.9 43.6 92.3 L43.85 92.6 Q44.9 93.45 46.25 93.5 L46.7 93.45 46.55 92.9 M35.05 95.8 L35.45 97.4 Q35.8 99.9 36.3 102.4 L31.65 96.85 31.25 96.45 Q31.0 95.15 31.6 94.05 31.5 94.35 31.7 94.65 32.3 95.7 33.6 95.4 L34.6 94.75 35.05 95.8 M30.05 97.0 L28.9 97.4 27.95 97.4 Q26.95 96.3 26.75 94.75 26.85 93.6 27.4 92.8 L27.1 93.35 27.2 93.4 30.4 93.5 30.8 93.4 30.9 93.4 31.15 93.0 Q30.0 94.85 30.05 97.0 M22.7 96.7 L21.0 96.5 Q20.9 95.15 22.05 94.3 L21.95 94.4 22.2 94.75 22.55 94.9 Q24.4 94.9 26.0 94.1 L25.95 94.6 26.05 95.7 23.8 95.85 Q22.95 95.95 22.7 96.7 M25.55 79.3 L24.1 76.2 Q24.5 79.0 25.85 81.3 27.35 81.75 28.0 83.05 L29.45 85.35 Q29.15 83.35 27.95 81.75 26.25 80.85 25.55 79.3 M23.45 85.3 Q24.05 84.85 25.0 84.9 28.2 85.4 27.95 88.55 L27.9 89.75 Q26.85 90.0 26.15 90.9 25.15 92.1 23.75 92.7 L23.5 92.45 Q21.15 89.8 22.55 86.5 L22.6 86.35 22.95 86.95 23.35 88.95 23.35 89.05 23.35 89.15 23.35 89.35 23.35 89.4 23.6 89.4 23.45 85.3 M39.25 90.9 Q40.1 91.5 41.15 91.45 L43.1 91.55 Q42.05 92.7 41.8 94.4 40.2 93.95 39.1 92.7 39.0 91.75 39.25 90.9 M38.1 91.6 L38.2 92.35 36.75 92.35 36.6 92.4 38.1 91.6 M35.75 92.65 L35.35 92.9 35.0 93.25 34.8 92.8 35.75 92.65 M-2.7 54.55 Q-1.2 55.1 -0.85 53.35 L1.95 50.25 Q4.0 48.15 6.3 46.45 7.5 45.6 8.8 45.1 L9.7 44.5 9.95 44.1 10.2 44.25 9.55 44.7 Q7.5 46.1 5.85 47.95 L1.6 53.45 0.65 54.65 Q0.1 55.25 -0.15 56.0 L-0.45 57.1 -0.45 57.35 Q-1.3 57.0 -1.95 56.2 L-2.05 56.05 -2.2 55.75 -2.7 54.55" fill="#990000" fill-rule="evenodd" stroke="none"/>
    <path d="M5.65 1.9 Q5.45 0.35 6.7 -1.15 L7.5 -1.85 Q8.95 -0.75 10.05 0.95 L19.9 10.5 15.25 7.9 14.35 7.35 13.85 6.45 12.45 5.5 Q11.15 5.0 9.95 4.15 8.85 3.35 7.55 2.8 L5.65 1.9 M0.35 19.35 Q-0.55 17.3 -1.6 15.4 -3.05 12.85 -4.95 10.45 L-6.0 10.0 Q-6.65 9.85 -6.15 9.1 -5.75 8.4 -5.2 8.7 L-4.2 9.2 -2.15 11.45 Q0.05 13.8 1.9 16.35 3.85 19.1 5.3 22.15 L5.35 22.2 6.0 23.65 6.1 23.85 6.2 24.1 7.2 26.6 7.7 28.0 7.95 28.6 Q9.3 32.45 10.25 36.5 L10.45 37.2 10.55 37.8 10.65 38.8 10.65 38.85 10.6 38.95 10.55 39.25 10.5 39.7 10.5 39.8 Q10.45 40.55 9.65 40.25 L9.5 40.2 9.25 40.1 9.0 39.95 7.5 39.05 7.45 38.15 6.95 34.0 6.8 33.1 6.6 31.7 Q6.0 28.75 4.65 26.05 L4.1 24.9 2.75 22.15 2.1 21.1 0.6 19.6 0.4 19.4 0.35 19.35 M12.7 39.25 Q13.25 39.35 13.35 39.95 13.45 40.7 13.85 41.25 13.9 42.15 13.25 42.75 L11.95 44.0 11.5 44.0 11.45 44.0 11.4 43.95 11.35 43.95 11.3 43.95 10.95 43.7 10.75 43.35 10.75 43.3 Q10.65 41.95 11.1 40.9 L11.2 40.7 Q11.55 39.85 12.25 39.2 L12.7 39.25 M10.85 44.65 L11.15 45.0 11.15 45.5 5.55 51.25 Q3.0 54.05 1.6 57.35 L2.0 56.5 Q2.35 57.3 1.55 58.05 L1.05 58.25 -0.4 58.2 -2.05 57.15 Q-3.25 56.4 -3.75 55.15 L-3.85 55.3 Q-3.85 54.65 -3.35 54.0 L-3.05 53.65 -2.85 53.65 -2.8 54.1 -2.7 54.55 -2.2 55.75 -2.05 56.05 -1.95 56.2 Q-1.3 57.0 -0.45 57.35 L-0.45 57.1 -0.15 56.0 Q0.1 55.25 0.65 54.65 L1.6 53.45 5.85 47.95 Q7.5 46.1 9.55 44.7 L10.2 44.25 10.4 44.1 10.45 44.1 10.5 44.2 10.65 44.4 10.7 44.45 10.75 44.55 10.85 44.65 M-0.05 58.45 L0.15 58.6 0.3 58.7 Q0.3 60.0 -0.4 60.15 L0.0 60.0 0.1 60.8 Q0.05 61.35 -0.35 61.65 L-0.6 61.85 -0.5 62.0 Q-0.65 63.35 -1.55 64.35 L-1.25 64.85 -1.85 64.75 -2.35 65.1 -3.8 65.95 -3.95 65.2 Q-3.9 64.75 -3.5 64.55 L-3.5 64.65 -3.5 64.95 -2.6 64.7 -2.7 64.4 Q-2.75 63.55 -2.25 62.75 L-1.95 62.3 Q-1.55 61.75 -1.0 61.5 -1.8 60.85 -3.05 61.1 L-3.1 61.2 Q-3.6 60.65 -3.2 59.95 L-3.2 60.2 -1.45 60.05 Q-1.55 59.05 -0.8 58.15 L-0.65 58.05 -0.05 58.45 M29.75 34.75 L24.85 29.6 Q26.25 30.15 27.65 31.5 L28.7 32.45 Q30.95 34.6 32.8 37.0 L33.4 37.8 Q34.45 39.2 35.05 40.8 L35.25 41.35 Q35.8 43.2 35.85 45.25 L35.85 45.4 35.6 45.7 35.55 45.75 34.45 46.35 34.25 46.4 33.9 46.4 33.8 47.45 Q33.8 48.25 34.2 49.0 L35.5 51.5 35.4 51.65 35.3 51.55 33.85 49.95 Q32.85 48.4 32.7 46.4 L32.25 46.7 31.85 46.9 Q32.05 46.3 32.75 45.9 L33.0 45.9 32.8 45.7 32.4 45.35 Q31.6 44.8 31.35 44.1 L32.7 44.05 33.9 43.4 34.05 43.3 34.05 43.0 34.05 42.85 33.95 41.95 34.0 41.95 33.95 41.85 33.65 40.5 Q33.1 38.5 31.75 36.85 L30.85 35.85 29.75 34.75 M22.5 15.65 L22.25 15.6 22.0 15.5 20.6 15.05 20.5 14.45 Q20.35 12.75 20.45 11.05 L20.8 11.4 Q21.75 12.2 22.05 13.45 22.3 14.65 22.85 15.75 L22.5 15.65 M12.05 9.65 L12.05 9.7 11.95 10.05 11.85 10.4 11.45 11.15 11.3 11.35 Q10.6 12.4 9.3 12.5 5.9 12.85 4.05 10.2 3.3 9.15 3.5 7.85 2.45 6.3 3.25 4.7 3.95 3.3 5.45 3.35 L5.85 3.45 Q7.8 3.95 9.3 5.4 L10.65 6.65 10.8 6.8 10.9 6.85 10.95 6.9 11.05 7.0 11.15 7.1 11.25 7.2 11.3 7.25 11.45 7.45 11.6 7.65 11.6 7.7 11.7 7.85 11.7 7.9 11.95 9.0 12.05 9.65 M31.0 53.85 Q33.8 55.5 37.2 55.35 L37.2 55.5 Q37.15 56.4 36.35 56.85 34.25 56.9 32.65 55.8 L31.45 54.85 30.9 54.4 29.55 53.1 29.75 53.0 31.0 53.85 M37.7 53.75 Q36.4 53.15 35.85 51.65 L35.7 50.65 Q35.8 49.65 36.7 49.25 L37.4 49.35 37.5 48.35 37.75 47.35 Q38.05 45.7 37.95 44.2 38.6 43.7 39.1 44.45 L40.3 45.4 40.3 45.1 40.45 45.85 40.6 47.7 40.6 47.65 38.85 45.7 38.35 48.0 Q37.95 49.1 38.85 50.05 L40.0 50.55 40.3 50.55 40.2 50.8 39.55 51.6 39.4 51.7 38.05 53.35 37.9 53.5 37.85 53.6 37.8 53.65 37.7 53.75 M30.95 62.65 Q30.7 63.55 29.6 63.65 L29.55 63.65 29.5 63.65 29.7 63.5 29.75 63.45 Q27.3 62.45 25.65 60.35 L25.25 59.85 25.4 59.7 26.8 60.8 27.45 61.2 27.7 61.35 Q29.25 62.2 30.95 62.65 M25.7 67.6 L26.15 67.6 Q26.1 68.45 25.4 68.95 L24.5 68.85 24.6 68.85 23.75 68.6 23.0 68.2 22.9 68.15 22.85 68.1 22.75 68.05 22.45 67.8 22.3 67.7 21.4 66.85 21.05 66.5 19.6 65.05 19.85 64.8 21.1 65.95 22.1 66.65 22.6 66.9 22.75 66.95 Q24.1 67.55 25.7 67.6 M25.45 70.65 L25.55 70.9 25.6 72.0 25.6 71.95 Q26.15 74.45 27.5 76.7 26.65 76.6 26.3 77.15 L25.7 76.7 25.0 76.25 Q23.75 75.65 23.7 74.2 L21.4 74.05 20.65 73.65 20.6 73.55 20.8 72.65 21.05 72.1 Q19.8 71.95 18.85 71.2 L19.0 71.0 20.15 71.25 Q22.3 71.5 24.55 71.2 L25.45 70.65 M27.5 78.6 Q29.75 80.45 31.25 82.95 L34.25 87.95 34.65 88.65 34.65 88.7 34.7 89.15 34.7 90.15 34.8 89.95 35.6 90.95 34.55 91.8 34.6 91.9 34.8 92.8 35.0 93.25 35.35 92.9 35.75 92.65 36.6 92.4 36.75 92.35 38.2 92.35 38.1 91.6 Q38.1 90.5 38.5 89.4 L38.55 89.25 38.35 89.35 37.15 89.95 Q38.15 88.15 40.55 88.85 L41.05 89.15 40.85 89.15 40.35 89.15 40.3 89.15 39.45 90.4 39.25 90.9 Q39.0 91.75 39.1 92.7 40.2 93.95 41.8 94.4 42.05 92.7 43.1 91.55 L44.35 90.45 43.2 90.15 Q44.8 89.8 45.6 91.25 L45.0 91.05 Q44.1 91.55 43.6 92.3 43.1 92.9 42.9 93.75 43.0 94.7 43.7 95.15 L42.15 95.1 Q40.75 94.45 39.25 94.3 L38.8 94.3 38.85 94.35 Q38.0 94.3 37.4 94.7 L36.05 94.9 36.15 94.95 35.4 95.6 35.05 95.8 34.6 94.75 33.3 92.9 32.55 92.7 32.5 92.75 32.45 92.8 31.95 93.4 31.6 94.0 31.6 94.05 Q31.0 95.15 31.25 96.45 L31.65 96.85 32.05 97.3 30.05 97.0 Q30.0 94.85 31.15 93.0 L31.65 92.2 30.8 91.8 28.7 91.45 28.6 91.5 28.35 91.7 28.3 91.75 28.25 91.8 28.2 91.85 28.15 91.9 28.1 91.95 28.05 92.0 27.5 92.65 27.4 92.8 Q26.85 93.6 26.75 94.75 26.95 96.3 27.95 97.4 L28.9 97.4 26.7 97.45 27.05 98.0 23.55 97.0 23.5 96.95 22.7 96.7 Q22.95 95.95 23.8 95.85 L26.05 95.7 25.95 94.6 26.0 94.1 26.25 93.0 26.9 91.65 24.6 93.2 23.95 93.6 23.8 93.65 23.35 93.95 22.85 94.2 22.7 94.3 22.4 94.0 Q22.75 93.35 23.45 92.8 L23.75 92.7 Q25.15 92.1 26.15 90.9 26.85 90.0 27.9 89.75 L29.0 89.65 28.9 88.9 Q29.4 88.2 30.45 88.05 L31.2 87.75 Q30.35 85.75 29.8 83.65 29.35 81.95 28.4 80.4 L27.7 79.05 27.5 78.6 M25.55 79.3 Q26.25 80.85 27.95 81.75 29.15 83.35 29.45 85.35 L28.0 83.05 Q27.35 81.75 25.85 81.3 24.5 79.0 24.1 76.2 L25.55 79.3 M23.45 85.3 L23.6 89.4 23.35 89.4 23.35 89.35 23.35 89.15 23.35 89.05 23.35 88.95 22.95 86.95 22.3 85.9 22.75 81.75 23.05 82.05 23.45 85.3" fill="#660000" fill-rule="evenodd" stroke="none"/>
    <path d="M7.5 -1.85 Q5.6 -3.25 3.05 -3.65 1.25 -3.0 -0.1 -1.8 -1.8 -0.35 -2.75 2.0 -3.35 5.0 -1.0 7.1 8.45 15.15 16.15 24.8 18.6 29.95 21.65 34.95 23.55 38.05 26.25 40.6 L29.75 43.35 29.85 43.45 Q30.6 43.95 31.35 44.1 31.6 44.8 32.4 45.35 L32.8 45.7 33.0 45.9 32.75 45.9 Q32.05 46.3 31.85 46.9 L32.25 46.7 30.35 47.4 Q29.0 47.65 27.95 48.4 27.55 50.6 25.9 52.3 L23.35 54.35 23.3 54.35 22.9 54.6 22.3 54.9 Q22.2 57.0 20.5 58.2 L17.2 60.35 17.3 61.45 17.25 62.65 17.25 62.7 16.9 64.9 Q15.8 66.05 15.5 67.4 L15.4 68.55 15.4 68.65 15.4 69.1 15.3 69.6 Q14.95 71.1 13.45 72.25 12.75 77.85 17.2 81.0 19.9 85.2 18.55 89.85 L18.25 90.7 19.05 94.25 19.6 96.55 21.0 96.5 22.7 96.7 23.5 96.95 23.55 97.0 27.05 98.0 26.7 97.45 28.9 97.4 30.05 97.0 32.05 97.3 31.65 96.85 36.3 102.4 Q35.8 99.9 35.45 97.4 L35.05 95.8 35.4 95.6 36.15 94.95 36.05 94.9 37.4 94.7 Q38.0 94.3 38.85 94.35 L38.8 94.3 39.25 94.3 Q40.75 94.45 42.15 95.1 L43.7 95.15 44.4 95.4 Q45.75 95.6 46.65 96.7 46.95 98.55 48.45 99.55 47.35 96.25 46.55 92.9 L46.5 92.7 Q46.35 91.65 45.6 91.25 44.8 89.8 43.2 90.15 L42.9 90.0 42.3 89.65 Q41.7 89.25 41.05 89.15 L40.55 88.85 Q38.15 88.15 37.15 89.95 L35.6 90.95 34.8 89.95 34.95 89.2 34.65 88.7 34.65 88.65 34.25 87.95 31.25 82.95 Q29.75 80.45 27.5 78.6 L26.15 77.6 26.3 77.15 Q26.65 76.6 27.5 76.7 26.15 74.45 25.6 71.95 L25.6 72.0 25.55 70.9 25.45 70.65 Q25.9 70.05 25.7 68.95 L25.4 68.95 Q26.1 68.45 26.15 67.6 L25.7 67.6 26.45 67.6 27.5 65.65 29.55 63.65 29.6 63.65 Q30.7 63.55 30.95 62.65 L31.05 62.7 Q32.35 59.7 34.85 57.85 35.6 57.3 36.45 56.85 L36.35 56.85 Q37.15 56.4 37.2 55.5 L37.2 55.35 37.3 55.35 Q37.25 54.95 37.35 54.6 37.4 54.25 37.6 53.95 L37.7 53.75 37.8 53.65 37.85 53.6 37.9 53.5 38.05 53.35 39.4 51.7 39.55 51.6 40.2 50.8 40.3 50.55 40.95 49.95 Q41.3 48.75 40.6 47.7 L40.45 45.85 40.3 45.1 Q40.25 40.55 38.35 36.5 35.7 31.1 32.0 26.1 28.8 21.85 24.65 18.7 24.45 17.85 23.8 17.1 L22.5 15.65 22.85 15.75 Q22.3 14.65 22.05 13.45 21.75 12.2 20.8 11.4 L20.45 11.05 19.9 10.5 10.05 0.95 Q8.95 -0.75 7.5 -1.85 M0.2 -4.4 Q5.85 -5.6 9.5 -1.3 13.15 2.95 17.35 6.35 21.65 9.15 23.05 13.35 24.35 17.5 28.05 20.3 33.75 25.65 37.6 32.0 41.45 38.3 41.45 45.95 42.95 47.6 42.5 49.7 42.3 50.45 41.65 50.75 41.0 51.0 40.55 51.6 38.9 52.8 39.0 54.9 39.05 56.9 37.15 57.6 33.3 59.25 32.7 63.4 30.15 64.0 28.65 65.95 27.0 68.35 27.25 71.35 27.5 74.35 28.35 76.95 30.0 77.9 30.45 79.7 32.1 81.9 33.1 84.35 34.15 86.8 35.65 89.05 37.4 88.65 38.95 87.6 42.1 87.15 44.15 89.65 46.9 89.6 47.15 91.9 47.4 94.2 48.15 96.1 48.5 97.25 49.15 98.4 49.8 99.5 48.75 100.55 46.9 99.2 45.8 96.95 43.75 96.8 41.9 95.85 40.05 94.85 38.2 96.1 37.0 95.95 36.1 96.5 36.2 98.35 36.65 100.1 37.1 101.85 36.95 103.65 34.15 101.7 32.7 98.55 31.2 97.45 29.4 98.3 26.75 100.25 24.05 98.9 21.3 97.5 18.65 97.4 L17.3 92.9 Q16.6 90.6 17.45 88.15 17.3 84.0 14.75 80.85 12.2 77.7 12.4 73.4 12.3 71.9 13.3 70.7 14.25 69.45 13.85 67.75 15.9 65.8 15.4 62.6 14.9 59.4 18.1 58.65 20.3 57.05 20.9 54.5 25.4 52.85 26.4 48.2 27.45 47.0 28.85 46.7 30.25 46.4 31.5 45.65 L27.3 43.15 Q21.55 38.95 19.2 33.1 16.9 27.2 12.25 22.45 8.75 17.5 3.95 13.75 -0.8 10.0 -3.7 5.0 -4.55 2.1 -3.2 -0.25 -1.9 -2.65 0.2 -4.4 M-4.55 7.55 Q10.05 22.25 14.6 41.1 14.7 44.3 12.35 46.25 9.95 48.2 7.9 50.35 4.5 53.85 2.7 57.95 0.6 58.1 0.7 60.0 0.8 61.95 0.05 63.35 L-0.45 64.25 Q-0.8 64.8 -0.3 65.25 3.5 69.85 4.95 75.4 3.3 82.3 0.05 88.5 L-0.3 88.5 Q1.7 82.85 0.5 76.95 -0.75 71.0 -5.3 66.85 -6.25 66.25 -5.45 65.45 -4.7 64.6 -4.45 63.75 -3.6 61.0 -4.8 58.45 -6.0 55.85 -4.0 53.65 -4.1 51.1 -2.15 50.25 -0.3 49.4 1.2 47.95 5.2 44.8 8.25 40.95 7.25 39.25 5.55 38.2 3.85 37.05 3.45 35.15 1.15 23.7 -4.75 13.65 L-6.2 11.35 Q-7.0 10.25 -7.0 8.95 -6.15 7.5 -4.55 7.55 M5.35 22.2 L5.3 22.15 Q3.85 19.1 1.9 16.35 0.05 13.8 -2.15 11.45 L-4.2 9.2 -5.2 8.7 Q-5.75 8.4 -6.15 9.1 -6.65 9.85 -6.0 10.0 L-4.95 10.45 Q-3.05 12.85 -1.6 15.4 -0.55 17.3 0.35 19.35 1.75 22.65 2.5 26.25 L3.7 31.05 4.4 34.25 Q4.9 36.9 6.9 38.6 L7.5 39.05 9.0 39.95 9.25 40.1 9.5 40.2 Q9.0 41.25 9.15 42.35 L7.6 43.7 1.9 48.75 -0.6 50.25 Q-2.0 50.8 -2.7 52.05 L-2.85 53.65 -3.05 53.65 -3.35 54.0 Q-3.85 54.65 -3.85 55.3 L-4.5 56.05 Q-3.55 57.85 -3.2 59.95 -3.6 60.65 -3.1 61.2 L-3.5 64.55 Q-3.9 64.75 -3.95 65.2 L-3.8 65.95 -4.15 66.55 Q-0.6 69.8 0.8 74.15 2.15 78.45 1.8 82.95 L2.35 81.75 3.75 77.5 Q3.9 74.6 2.65 72.15 1.4 69.7 -0.4 67.5 -1.0 66.9 -1.15 66.1 L-1.35 65.5 -1.3 65.25 -1.25 65.05 -1.25 64.85 -1.55 64.35 Q-0.65 63.35 -0.5 62.0 L-0.6 61.85 -0.35 61.65 Q0.05 61.35 0.1 60.8 L0.0 60.0 -0.4 60.15 Q0.3 60.0 0.3 58.7 L0.15 58.6 -0.05 58.45 -0.4 58.2 1.05 58.25 1.55 58.05 Q2.35 57.3 2.0 56.5 L1.6 57.35 Q3.0 54.05 5.55 51.25 L11.15 45.5 11.15 45.0 10.85 44.65 11.3 44.5 11.75 44.0 11.5 44.0 11.95 44.0 13.25 42.75 Q13.9 42.15 13.85 41.25 13.45 40.7 13.35 39.95 13.25 39.35 12.7 39.25 L12.75 39.1 12.75 38.05 12.75 38.0 10.45 32.1 10.2 31.3 10.0 30.7 Q9.55 29.2 8.55 28.0 L8.4 27.75 6.6 24.25 5.35 22.2 M31.25 28.75 L31.2 28.75 31.25 28.75 M33.95 41.85 L34.0 41.95 33.95 41.95 33.95 41.85" fill="#000000" fill-rule="evenodd" stroke="none"/>
    <path d="M-0.1 -1.8 L0.8 -1.1 5.65 1.9 7.55 2.8 Q8.85 3.35 9.95 4.15 11.15 5.0 12.45 5.5 L13.85 6.45 14.35 7.35 14.4 7.5 Q14.8 8.8 14.65 10.05 14.0 10.05 13.4 10.45 L12.95 10.9 15.55 12.7 Q18.0 14.15 20.6 15.05 L22.0 15.5 22.25 15.6 22.5 15.65 23.8 17.1 Q24.45 17.85 24.65 18.7 L23.05 17.55 22.1 17.05 18.05 15.15 17.4 14.85 15.5 13.8 17.1 16.75 20.05 18.9 22.65 20.55 22.5 20.7 23.55 21.9 Q24.15 22.5 24.95 22.2 L25.45 22.7 27.4 24.5 28.7 25.7 28.15 25.5 27.85 25.1 27.25 24.55 Q26.5 23.85 25.6 23.45 24.3 23.65 24.75 24.9 L26.0 27.55 26.25 28.25 28.0 31.05 28.7 32.45 27.65 31.5 Q26.25 30.15 24.85 29.6 L29.75 34.75 30.1 35.8 30.55 35.9 29.95 35.75 28.9 35.85 Q28.1 35.9 27.55 36.45 25.85 38.2 26.25 40.6 23.55 38.05 21.65 34.95 18.6 29.95 16.15 24.8 8.45 15.15 -1.0 7.1 -3.35 5.0 -2.75 2.0 -1.8 -0.35 -0.1 -1.8 M2.35 81.75 L1.8 82.95 Q2.15 78.45 0.8 74.15 -0.6 69.8 -4.15 66.55 L-3.8 65.95 -2.35 65.1 -2.2 65.1 -2.2 65.15 Q-2.5 65.35 -2.45 65.7 L-2.1 66.75 -1.6 67.4 -0.3 69.4 0.05 70.35 1.05 72.6 1.75 75.35 2.0 76.35 Q2.4 78.1 2.35 79.9 L2.35 81.75 M-2.85 53.65 L-2.7 52.05 Q-2.0 50.8 -0.6 50.25 L1.9 48.75 7.6 43.7 8.2 43.2 8.85 43.05 9.15 42.95 9.35 43.0 9.3 42.6 Q9.25 41.3 10.4 40.65 L10.5 40.6 10.85 40.55 11.2 40.7 11.1 40.9 Q10.65 41.95 10.75 43.3 L10.75 43.35 10.95 43.7 11.3 43.95 11.35 43.95 11.4 43.95 11.45 44.0 11.2 44.35 10.75 44.45 10.7 44.45 10.65 44.4 10.5 44.2 10.45 44.1 10.4 44.1 10.2 44.25 9.95 44.1 9.7 44.5 8.8 45.1 Q7.5 45.6 6.3 46.45 4.0 48.15 1.95 50.25 L-0.85 53.35 Q-1.2 55.1 -2.7 54.55 L-2.8 54.1 -2.85 53.65 M6.9 38.6 Q4.9 36.9 4.4 34.25 L3.7 31.05 3.8 30.9 4.6 30.2 5.3 30.2 6.6 31.7 6.8 33.1 6.95 34.0 7.45 38.15 6.9 38.6 M11.7 7.9 L11.7 7.85 11.6 7.7 11.6 7.65 11.45 7.45 11.3 7.25 11.25 7.2 11.15 7.1 11.05 7.0 10.95 6.9 10.9 6.85 10.8 6.8 10.65 6.65 9.3 5.4 Q7.8 3.95 5.85 3.45 L5.45 3.35 Q3.95 3.3 3.25 4.7 2.45 6.3 3.5 7.85 3.3 9.15 4.05 10.2 5.9 12.85 9.3 12.5 10.6 12.4 11.3 11.35 L11.45 11.15 11.85 10.4 11.95 10.05 12.05 9.7 12.05 9.65 11.9 8.25 11.85 8.15 11.85 8.1 11.8 8.0 11.7 7.9 M10.25 36.5 L10.5 36.3 11.2 36.3 Q12.85 37.65 11.2 38.85 L10.6 38.95 10.65 38.85 10.65 38.8 10.55 37.8 10.45 37.2 10.25 36.5 M34.15 37.25 L34.7 38.7 34.75 38.75 33.8 37.75 34.35 38.3 34.35 37.75 34.15 37.25 M34.25 46.4 L34.05 46.4 33.8 47.45 33.9 46.4 34.25 46.4 M33.85 49.95 L34.3 51.45 32.2 50.9 Q30.4 51.95 31.0 53.85 L29.75 53.0 29.55 53.1 30.9 54.4 Q30.0 54.45 29.2 55.15 26.7 57.35 27.35 60.35 L26.35 60.25 26.1 60.3 26.8 60.8 25.4 59.7 25.25 59.85 25.65 60.35 Q21.7 61.2 21.1 65.25 L21.1 65.95 19.85 64.8 19.6 65.05 21.05 66.5 Q19.6 67.25 19.65 69.35 19.7 70.45 20.15 71.25 L19.0 71.0 18.85 71.2 Q19.8 71.95 21.05 72.1 L20.8 72.65 20.6 73.55 Q20.15 76.35 22.55 78.35 L23.05 79.65 23.65 80.35 Q27.1 82.7 28.35 86.75 L28.9 88.9 29.0 89.65 27.9 89.75 27.95 88.55 Q28.2 85.4 25.0 84.9 24.05 84.85 23.45 85.3 L23.05 82.05 22.75 81.75 22.3 85.9 22.95 86.95 22.6 86.35 22.55 86.5 Q21.15 89.8 23.5 92.45 L23.75 92.7 23.45 92.8 Q22.75 93.35 22.4 94.0 L22.7 94.3 22.85 94.2 23.35 93.95 23.8 93.65 23.95 93.6 24.6 93.2 26.9 91.65 26.25 93.0 26.0 94.1 Q24.4 94.9 22.55 94.9 L22.2 94.75 21.95 94.4 22.05 94.3 Q20.9 95.15 21.0 96.5 L19.6 96.55 19.05 94.25 Q20.35 94.85 21.25 93.1 22.75 90.05 20.1 88.85 19.15 89.15 18.55 89.85 19.9 85.2 17.2 81.0 12.75 77.85 13.45 72.25 14.95 71.1 15.3 69.6 L15.65 69.85 16.15 70.15 Q17.05 70.9 17.75 70.15 L17.85 69.7 Q17.45 68.6 16.25 68.2 L16.25 68.15 Q16.3 67.4 15.5 67.4 15.8 66.05 16.9 64.9 L17.25 62.7 Q17.5 63.8 18.7 63.9 19.1 63.6 19.0 63.05 18.85 62.35 19.05 61.65 19.35 60.55 18.3 60.25 L18.05 60.35 Q17.45 60.75 17.3 61.45 L17.2 60.35 20.5 58.2 Q22.2 57.0 22.3 54.9 L22.9 54.6 22.5 55.25 Q22.35 55.9 22.5 56.5 L22.75 57.4 Q23.15 58.9 24.6 58.6 L24.8 58.2 Q24.95 57.05 24.25 55.95 L24.25 55.55 Q24.65 54.5 23.6 54.25 L23.35 54.35 25.9 52.3 Q27.55 50.6 27.95 48.4 29.0 47.65 30.35 47.4 L32.25 46.7 32.7 46.4 Q32.85 48.4 33.85 49.95 M34.65 88.7 L34.95 89.2 34.8 89.95 34.7 90.15 34.7 89.15 34.65 88.7 M35.6 90.95 L37.15 89.95 38.35 89.35 38.55 89.25 38.5 89.4 Q38.1 90.5 38.1 91.6 L36.6 92.4 35.75 92.65 34.8 92.8 34.6 91.9 34.55 91.8 35.6 90.95 M42.9 90.0 L43.2 90.15 44.35 90.45 43.1 91.55 41.15 91.45 Q40.1 91.5 39.25 90.9 L39.45 90.4 39.6 90.5 Q40.0 90.85 40.5 90.9 L42.2 90.65 42.9 90.0 M45.6 91.25 Q46.35 91.65 46.5 92.7 L46.55 92.9 46.7 93.45 46.25 93.5 Q44.9 93.45 43.85 92.6 L43.6 92.3 Q44.1 91.55 45.0 91.05 L45.6 91.25 M29.7 50.1 Q29.7 48.9 28.75 48.45 28.55 48.45 28.35 48.6 27.3 49.4 27.65 50.75 28.05 52.15 29.5 51.75 30.1 51.15 29.8 50.4 L29.7 50.1 M15.6 71.3 Q15.0 71.25 14.6 71.75 13.3 73.15 13.6 75.05 13.9 77.05 15.85 77.25 16.5 78.55 17.9 78.2 L18.15 78.0 Q18.75 76.8 17.9 75.6 18.35 74.5 18.05 73.35 17.5 71.45 15.6 71.3 M31.6 94.05 L31.6 94.0 31.95 93.4 32.45 92.8 32.5 92.75 32.55 92.7 33.3 92.9 34.6 94.75 33.6 95.4 Q32.3 95.7 31.7 94.65 31.5 94.35 31.6 94.05 M30.8 91.8 L31.65 92.2 31.15 93.0 30.9 93.4 30.8 93.4 30.4 93.5 27.2 93.4 27.1 93.35 27.4 92.8 27.5 92.65 27.8 92.8 28.05 93.15 Q28.65 93.75 29.55 93.65 L29.7 93.55 30.8 92.8 Q31.05 92.35 30.85 91.9 L30.8 91.8" fill="#cc0000" fill-rule="evenodd" stroke="none"/>
    <path d="M30.55 35.9 L30.1 35.8 29.75 34.75 30.85 35.85 31.75 36.85 31.1 36.1 30.55 35.9 M28.7 32.45 L28.0 31.05 26.25 28.25 26.0 27.55 24.75 24.9 Q24.3 23.65 25.6 23.45 26.5 23.85 27.25 24.55 L27.85 25.1 28.15 25.5 28.7 25.7 Q30.65 26.55 31.25 28.75 L31.2 28.75 30.6 28.75 30.35 28.7 31.2 30.45 34.15 37.25 34.35 37.75 34.35 38.3 33.8 37.75 32.8 37.0 Q30.95 34.6 28.7 32.45 M24.95 22.2 Q24.15 22.5 23.55 21.9 L22.5 20.7 22.65 20.55 22.95 20.25 Q24.25 20.9 24.95 22.2 M14.4 7.5 L14.35 7.35 14.4 7.5 M19.05 17.15 Q20.0 17.35 20.3 18.15 L19.55 18.35 Q18.75 17.85 19.05 17.15 M35.05 34.2 Q34.1 33.65 34.3 32.7 35.2 33.05 35.25 34.0 L35.05 34.2 M41.05 89.15 Q41.7 89.25 42.3 89.65 L42.9 90.0 42.2 90.65 40.5 90.9 Q40.0 90.85 39.6 90.5 L39.45 90.4 40.3 89.15 40.35 89.15 40.85 89.15 41.05 89.15 M19.05 94.25 L18.25 90.7 18.55 89.85 Q19.15 89.15 20.1 88.85 22.75 90.05 21.25 93.1 20.35 94.85 19.05 94.25 M15.3 69.6 L15.4 69.1 15.4 68.65 15.4 68.55 15.5 67.4 Q16.3 67.4 16.25 68.15 L16.25 68.2 Q17.45 68.6 17.85 69.7 L17.75 70.15 Q17.05 70.9 16.15 70.15 L15.65 69.85 15.3 69.6 M17.25 62.7 L17.25 62.65 17.3 61.45 Q17.45 60.75 18.05 60.35 L18.3 60.25 Q19.35 60.55 19.05 61.65 18.85 62.35 19.0 63.05 19.1 63.6 18.7 63.9 17.5 63.8 17.25 62.7 M22.9 54.6 L23.3 54.35 23.35 54.35 23.6 54.25 Q24.65 54.5 24.25 55.55 L24.25 55.95 Q24.95 57.05 24.8 58.2 L24.6 58.6 Q23.15 58.9 22.75 57.4 L22.5 56.5 Q22.35 55.9 22.5 55.25 L22.9 54.6 M29.7 50.1 L29.8 50.4 Q30.1 51.15 29.5 51.75 28.05 52.15 27.65 50.75 27.3 49.4 28.35 48.6 28.55 48.45 28.75 48.45 29.7 48.9 29.7 50.1 M15.6 71.3 Q17.5 71.45 18.05 73.35 18.35 74.5 17.9 75.6 18.75 76.8 18.15 78.0 L17.9 78.2 Q16.5 78.55 15.85 77.25 13.9 77.05 13.6 75.05 13.3 73.15 14.6 71.75 15.0 71.25 15.6 71.3 M27.5 92.65 L28.05 92.0 28.1 91.95 28.15 91.9 28.2 91.85 28.25 91.8 28.3 91.75 28.35 91.7 28.6 91.5 28.7 91.45 30.8 91.8 30.85 91.9 Q31.05 92.35 30.8 92.8 L29.7 93.55 29.55 93.65 Q28.65 93.75 28.05 93.15 L27.8 92.8 27.5 92.65" fill="#ff6633" fill-rule="evenodd" stroke="none"/>
  </g>
</svg>
