<?xml version="1.0" encoding="UTF-8" standalone="no"?>
<svg xmlns:xlink="http://www.w3.org/1999/xlink" height="108.5px" width="32.6px" xmlns="http://www.w3.org/2000/svg">
  <g transform="matrix(1.0, 0.0, 0.0, 1.0, 19.6, 12.0)">
    <path d="M-3.85 -9.1 L-4.5 -8.95 -4.75 -8.85 -5.3 -8.15 -5.9 -7.65 -6.0 -7.5 Q-6.45 -7.1 -6.4 -6.65 L-7.35 -5.5 Q-8.25 -3.45 -7.85 -1.25 L-6.9 -3.9 Q-6.3 -5.4 -4.75 -6.2 L-1.4 -6.3 Q-0.3 -5.95 0.45 -5.35 1.65 -4.4 1.9 -2.85 L2.25 -0.05 2.5 2.15 Q2.65 3.45 3.4 4.4 4.1 5.25 5.4 5.85 L6.6 6.1 Q9.25 5.8 10.75 3.95 11.95 1.8 11.95 -0.7 11.9 -3.2 10.95 -5.4 9.95 -7.3 8.0 -8.55 6.05 -9.85 3.95 -10.35 L2.4 -10.65 1.7 -10.65 Q-1.8 -10.9 -4.6 -8.95 L-3.85 -9.1 M4.8 -11.45 Q6.05 -11.15 7.1 -10.45 L10.9 -7.9 Q12.7 -5.65 12.95 -2.5 13.25 0.65 12.25 3.3 10.45 7.0 6.6 7.5 5.3 8.6 3.8 9.1 5.65 10.8 4.7 12.85 3.7 14.9 3.25 16.9 3.0 18.55 2.15 20.05 1.3 21.55 1.0 23.15 1.95 23.5 2.1 24.75 2.65 27.45 0.9 29.7 0.1 30.75 -1.0 31.1 -1.6 32.9 -2.85 34.35 L-1.3 36.5 Q-0.55 37.65 -0.9 39.1 L-2.1 40.3 Q-2.0 41.5 -1.1 42.35 -0.2 43.2 0.35 44.3 3.55 49.75 3.8 56.4 4.1 63.0 1.65 68.85 0.8 69.4 1.3 69.95 L1.9 71.25 Q2.0 72.3 2.85 73.15 3.65 73.95 4.1 75.0 3.95 76.4 4.85 77.75 5.7 79.05 5.1 80.7 6.05 83.9 4.15 86.6 3.4 87.6 2.45 87.0 1.2 85.0 1.3 82.75 L0.25 82.3 0.15 84.7 Q0.15 85.9 -0.95 86.6 0.1 88.75 0.05 90.7 1.55 92.65 1.0 95.15 0.75 96.3 -0.35 96.5 L-2.75 94.6 Q-3.15 96.05 -4.65 96.45 -6.0 95.5 -6.95 94.25 -7.9 93.0 -9.6 93.0 L-12.6 89.2 Q-14.45 84.5 -15.85 79.5 -17.3 74.5 -15.5 69.4 -17.6 67.7 -18.25 65.1 L-19.4 59.95 Q-20.25 53.0 -17.55 46.95 -17.15 43.15 -14.6 40.55 -15.2 39.3 -14.5 38.05 -14.2 37.55 -14.7 37.15 L-15.4 36.15 Q-14.1 34.05 -12.05 32.7 -12.4 27.6 -10.45 22.95 -11.6 20.35 -11.4 17.4 -11.15 14.45 -9.5 12.1 -8.55 10.9 -7.35 10.4 L-6.45 8.05 Q-6.1 6.8 -6.4 5.6 -7.3 4.3 -7.6 2.75 -7.95 1.15 -8.95 -0.1 -9.8 -4.7 -7.15 -8.3 -5.1 -10.1 -2.65 -11.25 -0.25 -12.4 2.75 -11.8 L3.1 -11.8 4.8 -11.45 M-6.15 -3.1 Q-7.15 0.15 -6.05 3.75 L-5.3 4.9 Q-4.85 5.45 -4.85 6.1 -2.9 7.6 -0.45 8.3 2.0 9.0 4.35 7.75 L2.5 6.65 Q0.75 4.3 0.95 1.25 L0.9 1.25 0.95 1.05 1.0 0.75 0.95 0.25 1.0 0.25 0.55 -2.35 0.5 -2.6 0.35 -2.9 Q-0.2 -4.55 -1.55 -5.5 -4.25 -5.65 -5.85 -3.8 L-5.9 -3.8 Q-6.3 -3.55 -6.15 -3.1 M2.0 16.95 L3.3 12.6 Q3.7 12.2 3.6 11.7 L3.75 11.6 3.6 10.8 Q0.35 11.1 -2.95 10.0 L-3.1 9.8 Q-3.4 9.55 -3.85 9.55 L-3.8 9.35 -5.3 8.35 -7.35 14.0 -7.3 14.2 -7.5 14.85 -7.9 16.2 -7.6 16.45 Q-7.8 17.25 -7.3 18.05 -6.9 18.85 -6.65 19.75 L-6.65 19.85 -6.6 19.75 -6.5 19.95 -6.4 20.2 -6.25 20.4 -6.3 20.45 -5.55 21.75 -3.7 23.9 -3.2 24.3 -3.2 24.2 -2.95 24.6 -2.7 24.85 -2.55 24.9 -2.6 25.0 Q-1.85 25.85 -0.85 25.55 L-0.5 24.3 Q0.25 21.75 1.3 19.35 L1.2 19.65 1.5 19.2 1.65 18.6 1.65 18.45 1.65 18.3 2.0 16.95 M-8.6 16.55 L-8.5 16.4 -8.6 16.05 -8.7 15.95 -8.55 15.95 Q-8.65 13.75 -7.8 11.95 -9.65 13.55 -9.95 16.05 L-9.95 16.1 -10.0 16.1 -10.0 16.15 -10.0 16.5 -9.75 16.75 -9.7 16.75 Q-10.65 17.75 -10.05 19.45 L-10.0 19.45 -10.0 19.5 -9.8 19.75 -9.75 19.8 Q-10.05 21.85 -8.95 23.6 L-8.85 23.75 -8.9 23.55 -8.45 24.25 -8.25 24.35 -8.1 24.45 -7.95 24.05 -8.2 24.55 -6.85 26.35 -6.8 26.4 -6.85 26.55 -6.7 26.9 -6.65 26.9 -6.65 26.85 Q-5.75 28.45 -4.0 29.4 L-3.4 28.55 -3.95 29.4 -3.85 29.6 -3.4 29.7 -3.5 29.8 -2.95 30.3 Q-1.1 30.9 0.05 29.35 L0.2 28.85 0.35 28.45 0.4 27.85 0.5 28.05 Q1.15 26.4 0.6 24.6 L-0.2 26.15 -0.15 26.25 -0.4 26.25 -0.7 26.65 -0.7 26.7 -2.45 26.2 -3.05 25.85 -3.1 25.8 -3.35 25.65 -3.2 26.0 Q-3.45 25.3 -4.2 24.8 L-4.25 24.65 -4.6 24.35 -4.55 24.3 -6.35 21.85 -6.45 21.9 -6.55 21.7 -6.8 21.4 -7.4 21.6 -6.8 21.4 -7.75 19.15 -7.75 19.05 Q-7.65 18.5 -8.15 18.4 L-8.5 18.55 -8.05 18.35 -8.45 16.9 -8.6 16.55 M-1.1 15.2 L-1.15 15.3 -1.25 15.3 -1.1 14.95 -1.1 15.2 M-15.2 43.5 L-15.75 44.0 -16.3 45.6 -17.05 48.2 -17.15 48.75 -17.35 50.0 -17.5 51.05 -17.65 51.65 -17.95 53.5 -18.0 53.3 Q-18.3 55.3 -18.2 57.35 L-18.25 57.45 -18.15 58.8 -18.0 60.15 -17.95 60.6 -17.9 60.85 -17.75 61.9 -16.2 66.95 -15.65 68.1 -13.8 66.85 Q-12.85 66.1 -11.75 65.85 L-6.3 66.1 Q-3.6 67.2 -1.4 68.85 L0.2 68.95 1.3 67.05 1.4 67.0 1.55 66.9 2.0 65.1 2.05 64.85 2.1 64.15 2.45 61.95 2.5 61.5 2.15 61.75 2.55 61.45 2.55 58.75 2.6 58.45 2.7 57.6 Q2.8 55.65 2.35 53.45 L2.4 53.3 Q2.5 52.7 2.05 52.7 1.7 50.05 0.55 47.25 L0.15 47.55 0.5 47.3 0.25 46.75 Q-0.6 44.4 -2.05 42.6 L-2.1 42.6 -2.2 42.4 -2.25 42.3 -2.35 42.2 -2.95 42.15 -2.25 42.1 -2.4 41.85 -6.05 41.6 -6.55 41.6 -6.75 41.6 -6.85 41.6 -7.35 41.95 -7.15 42.2 -8.2 42.15 -8.4 42.15 -8.7 42.3 Q-9.9 41.2 -11.4 41.05 L-12.15 41.05 -12.4 41.1 -12.55 41.1 Q-14.6 41.7 -15.2 43.5 M-3.95 34.2 Q-3.2 33.45 -2.75 32.4 L-3.65 32.05 Q-3.85 31.7 -4.15 31.6 L-4.95 31.2 -5.7 30.65 -5.85 30.55 -7.05 29.45 -7.65 28.7 -7.85 28.5 -8.3 27.8 -8.7 26.95 -8.95 26.6 Q-9.1 25.8 -9.65 25.15 L-9.8 25.05 -9.8 25.25 -10.2 26.9 -10.3 27.5 -10.85 29.5 Q-11.55 31.6 -10.25 33.9 -7.85 35.6 -4.7 34.8 L-3.95 34.2 M-7.3 33.45 L-7.6 33.3 -7.7 33.35 -7.65 33.25 -7.55 33.25 -7.45 33.35 -7.3 33.45 M-3.6 35.0 L-3.95 35.25 Q-4.7 35.15 -5.25 35.65 -5.85 36.15 -6.55 36.05 -5.3 36.3 -4.0 37.05 -2.7 37.7 -2.05 38.9 L-1.8 38.6 Q-1.9 37.7 -2.55 36.85 L-3.6 35.0 M-8.25 37.35 L-8.5 37.3 -10.85 36.9 Q-11.6 37.35 -12.55 37.5 -13.6 37.55 -13.6 38.75 L-13.75 39.5 Q-13.9 39.85 -13.4 40.0 -10.9 39.1 -8.4 40.7 L-8.1 40.65 -7.75 40.8 -6.75 40.75 -4.8 40.65 -4.65 40.7 -3.75 40.9 -4.05 40.5 -3.05 41.15 -3.35 39.65 Q-3.4 39.2 -3.6 38.8 L-3.7 38.65 -4.3 38.3 -4.5 38.1 Q-5.05 37.75 -5.7 37.6 L-8.25 37.35 M-12.0 33.6 L-13.75 35.35 Q-14.85 36.35 -13.45 37.25 -10.8 35.4 -7.45 35.85 -9.8 34.9 -12.0 33.6 M-6.5 67.65 Q-7.6 68.45 -8.7 68.5 -10.75 68.35 -12.4 67.0 -13.1 67.2 -13.25 67.85 L-13.2 67.9 -13.45 68.55 -13.5 68.55 -13.9 69.15 Q-11.7 70.4 -8.7 70.7 L-5.1 70.5 -3.15 69.9 -3.85 69.4 -3.85 68.95 Q-3.9 68.3 -4.45 68.05 L-4.35 68.0 Q-5.4 66.9 -6.5 67.65 M-4.45 86.85 L-4.4 86.85 -4.45 86.95 -4.55 87.9 -4.95 87.85 Q-5.05 88.95 -4.5 90.05 L-4.15 90.25 -3.95 90.7 -3.05 92.25 -3.15 92.25 -3.15 92.6 -0.45 95.25 -0.15 95.25 0.0 94.8 Q0.3 93.1 -0.6 91.75 L-0.7 91.15 -0.75 90.8 -0.75 90.75 -0.95 89.3 -1.25 88.1 -1.3 87.0 -1.4 86.4 -1.45 86.15 Q-0.95 85.55 -1.05 84.65 -1.15 83.25 -0.8 82.05 L-0.9 81.95 -1.55 81.15 -1.65 81.0 -1.65 80.95 -1.75 80.35 -1.8 79.8 Q-1.95 78.35 -1.45 77.0 L-1.15 76.4 -1.05 76.3 -1.15 76.6 -1.15 77.05 -1.15 78.3 -1.1 78.45 -1.1 78.75 Q-0.95 80.0 -0.25 80.8 L-0.2 80.55 -0.15 80.45 0.15 81.25 0.55 81.3 0.65 81.35 1.5 81.6 1.25 81.55 1.6 81.8 1.8 82.05 2.0 82.25 2.2 84.35 Q2.35 85.75 3.55 86.25 L3.7 86.05 3.75 85.85 Q4.8 83.4 4.1 81.0 L4.25 80.7 Q4.55 80.35 4.35 79.95 L4.35 79.9 4.4 79.9 4.2 79.0 3.35 77.3 3.45 77.5 3.5 77.3 Q3.55 76.7 3.15 76.6 L3.0 75.1 Q2.35 73.85 1.15 73.35 L1.15 73.3 Q1.2 72.6 0.65 72.55 L0.75 72.5 Q0.75 71.0 -0.15 70.05 L-1.3 69.95 -6.15 71.45 -6.3 71.45 -6.45 71.45 -6.95 71.5 -7.3 71.55 -7.55 71.5 Q-11.15 71.45 -14.0 69.7 L-14.45 69.35 -14.45 69.4 -15.05 74.1 Q-15.2 78.2 -14.0 82.4 L-14.0 82.3 -13.7 83.4 -13.4 83.9 -13.15 84.25 -13.05 84.5 -12.8 85.0 -12.0 87.0 -12.0 87.05 -11.9 87.55 -11.45 88.75 -11.35 88.9 -10.55 89.8 -10.2 90.4 -9.8 90.95 Q-9.15 92.05 -7.95 92.5 L-7.8 92.5 -7.9 92.35 -8.0 92.0 -8.15 91.55 Q-9.45 90.75 -9.65 89.2 L-9.9 87.25 -9.9 86.7 -9.9 86.6 -9.85 86.5 -9.8 86.35 -9.9 85.9 -9.85 86.0 -9.6 86.15 -9.5 86.15 -9.45 86.35 -9.25 87.35 -9.25 87.4 -9.1 88.25 -8.85 89.25 -8.8 89.5 -8.6 89.65 -8.35 90.05 -8.15 90.35 -8.05 90.7 -7.8 91.0 -7.45 91.65 -7.35 91.65 -7.05 92.1 -6.3 93.3 -5.7 94.35 -4.7 95.0 -4.5 95.05 -4.5 95.1 Q-4.15 95.2 -3.8 94.55 -3.45 93.45 -3.8 92.35 L-3.85 92.25 Q-4.1 91.75 -4.45 91.65 L-4.85 91.0 -4.9 90.8 -5.3 89.9 -5.5 87.5 -5.4 87.25 -5.35 87.05 -5.3 87.05 -4.45 86.85 M-9.05 84.0 L-9.0 82.9 -9.1 83.85 -9.05 84.0 M-5.1 72.3 L-5.1 72.25 -5.0 72.15 -5.1 72.3 M-10.2 84.1 L-10.15 83.8 -10.1 84.0 -10.05 84.15 -10.15 83.95 -10.2 84.1 M0.7 78.75 L0.55 79.0 0.45 79.2 0.4 79.2 0.7 78.75 M-10.1 84.55 L-10.05 84.8 -10.1 84.4 -10.1 84.55 M-7.25 91.7 L-7.1 91.7 -7.0 91.8 -7.25 91.7" fill="#000000" fill-rule="evenodd" stroke="none"/>
    <path d="M3.4 4.4 L4.05 4.15 Q4.65 3.55 4.5 2.8 4.4 2.55 4.45 2.3 4.55 -0.35 3.9 -2.85 L3.65 -4.4 Q3.35 -5.95 2.45 -7.25 L1.55 -8.3 1.2 -8.5 0.95 -8.65 Q-1.35 -9.5 -3.85 -9.1 L-4.6 -8.95 Q-1.8 -10.9 1.7 -10.65 L2.4 -10.65 3.95 -10.35 Q6.05 -9.85 8.0 -8.55 9.95 -7.3 10.95 -5.4 11.9 -3.2 11.95 -0.7 11.95 1.8 10.75 3.95 9.25 5.8 6.6 6.1 L5.4 5.85 Q4.1 5.25 3.4 4.4 M1.4 -7.15 L1.4 -7.1 1.35 -7.15 1.4 -7.15 M7.85 3.7 Q9.1 3.1 8.9 1.65 8.4 0.05 6.75 0.0 6.05 0.35 5.55 1.0 4.85 2.25 6.0 3.3 L6.85 3.75 7.85 3.7 M0.9 1.25 L0.95 1.25 Q0.75 4.3 2.5 6.65 L4.35 7.75 Q2.0 9.0 -0.45 8.3 -2.9 7.6 -4.85 6.1 -4.85 5.45 -5.3 4.9 L-6.05 3.75 Q-7.15 0.15 -6.15 -3.1 L-6.15 -3.15 -4.0 -0.85 -4.55 -0.85 Q-5.35 -0.45 -5.4 0.45 -5.8 3.7 -3.25 5.65 L-2.55 5.6 -2.2 5.3 -2.05 4.75 Q-2.55 2.85 -2.55 0.95 L-2.6 0.25 Q-1.05 1.3 0.9 1.25 M-5.85 -3.8 Q-4.25 -5.65 -1.55 -5.5 -0.2 -4.55 0.35 -2.9 L0.5 -2.6 0.55 -2.35 1.0 0.25 0.95 0.25 -1.55 -0.25 -2.2 -0.5 -1.45 -2.05 Q-0.75 -3.65 -2.45 -4.0 -3.25 -3.9 -3.8 -3.1 L-4.3 -1.95 -4.65 -2.3 -5.85 -3.8 M-5.0 -7.9 L-4.85 -8.0 -4.65 -8.05 -5.0 -7.9 M-6.75 41.6 L-6.55 41.6 -6.65 41.7 -6.75 41.6 M-17.9 60.85 L-17.95 60.6 -18.0 60.15 -18.15 58.8 -18.25 57.45 -18.2 57.35 -18.1 57.2 Q-18.4 55.75 -17.95 54.45 L-17.8 54.25 -17.45 55.35 Q-17.0 57.05 -16.15 58.7 L-16.05 58.9 Q-14.75 61.55 -11.95 62.8 L-10.85 62.6 -10.75 62.7 -10.55 62.4 -10.25 62.05 -10.1 61.9 -9.9 61.75 Q-9.35 61.35 -9.05 60.6 -8.55 59.25 -8.4 57.75 L-8.4 57.35 -8.45 57.45 -7.95 55.6 -6.8 51.35 -5.6 47.1 -5.45 46.6 Q-5.15 46.3 -4.85 46.3 -3.95 46.15 -3.35 46.8 L-3.05 47.15 -3.0 47.4 -3.1 47.8 -3.2 47.4 -3.05 48.1 -3.1 48.1 -3.1 48.2 -3.0 48.4 -2.7 51.55 Q-2.6 55.25 -2.85 58.95 L-2.9 59.8 Q-3.25 62.65 -5.4 64.15 L-6.0 64.4 -9.45 64.2 -10.1 64.25 -11.25 64.5 -10.75 64.4 Q-12.6 64.6 -14.3 65.2 L-15.4 65.05 Q-17.4 64.05 -17.6 61.85 -17.65 61.25 -17.85 60.85 L-17.95 60.75 -17.9 60.85 M-12.05 43.5 L-12.15 43.5 -12.8 43.5 -12.05 43.5 M-11.4 61.75 L-11.45 61.85 -11.45 61.75 -11.4 61.75 M-8.15 60.8 L-8.0 60.55 -8.15 60.6 -8.15 60.8 M-6.5 67.65 Q-5.4 66.9 -4.35 68.0 L-4.45 68.05 Q-3.9 68.3 -3.85 68.95 L-3.85 69.4 -3.15 69.9 -5.1 70.5 -5.15 70.35 -5.35 70.0 -4.8 69.7 Q-6.7 70.65 -8.85 70.15 -11.3 69.55 -13.45 68.55 L-13.2 67.9 Q-10.15 69.5 -6.65 69.45 L-5.65 69.05 -6.2 68.4 -6.5 67.7 -6.5 67.65 M-4.3 83.7 L-4.25 83.45 Q-4.65 82.85 -4.55 81.85 -4.45 79.05 -5.55 76.7 -6.35 75.1 -8.0 74.25 -9.5 73.45 -11.25 73.55 L-12.35 73.55 Q-13.65 74.4 -15.05 74.75 L-15.05 74.1 -14.45 69.4 -14.4 69.4 -14.0 69.7 Q-11.15 71.45 -7.55 71.5 L-7.3 71.55 -6.95 71.5 -6.45 71.45 -6.3 71.45 -6.15 71.45 -1.3 69.95 -0.15 70.05 Q0.75 71.0 0.75 72.5 L0.65 72.55 Q-2.2 74.5 -2.5 78.15 L-2.5 78.3 -2.5 78.4 Q-2.4 79.8 -1.65 80.95 L-1.65 81.0 -1.55 81.15 -0.9 81.95 -0.8 82.05 Q-1.15 83.25 -1.05 84.65 -0.95 85.55 -1.45 86.15 L-2.2 86.8 -4.4 86.85 -4.45 86.85 -4.4 86.8 -4.05 85.85 Q-3.9 84.75 -4.25 83.75 L-4.3 83.7 M-5.1 72.3 L-5.0 72.15 -5.1 72.25 -5.1 72.3 M-12.15 79.55 L-11.9 79.2 -11.85 79.25 -11.6 79.7 -12.15 79.55 M-7.9 86.95 L-7.85 86.95 -7.9 87.0 -7.9 86.95 M-5.5 87.1 L-5.45 87.05 -5.5 87.2 -5.5 87.1 M3.75 85.85 L3.7 86.05 3.65 85.8 3.75 85.85 M0.8 78.65 L0.7 78.75 0.7 78.55 0.8 78.65 M1.15 79.5 L1.25 79.35 1.3 79.4 1.15 79.5 M-5.1 86.3 L-5.05 86.2 -5.05 86.25 -5.1 86.3 M-7.35 91.65 L-7.4 91.6 -7.25 91.7 -7.0 91.8 Q-6.2 92.2 -5.35 91.8 L-4.45 91.65 Q-4.1 91.75 -3.85 92.25 L-3.8 92.35 Q-3.45 93.45 -3.8 94.55 -4.15 95.2 -4.5 95.1 L-4.05 94.9 -4.25 94.1 Q-4.7 92.6 -5.8 92.0 L-6.8 91.9 -7.05 92.1 -7.35 91.65 M-7.9 92.35 L-7.8 92.5 -7.95 92.5 -7.9 92.35" fill="#666666" fill-rule="evenodd" stroke="none"/>
    <path d="M-3.85 -9.1 Q-1.35 -9.5 0.95 -8.65 L1.2 -8.5 1.55 -8.3 2.45 -7.25 Q3.35 -5.95 3.65 -4.4 L3.9 -2.85 Q4.55 -0.35 4.45 2.3 4.4 2.55 4.5 2.8 4.65 3.55 4.05 4.15 L3.4 4.4 Q2.65 3.45 2.5 2.15 L2.25 -0.05 1.9 -2.85 Q1.65 -4.4 0.45 -5.35 -0.3 -5.95 -1.4 -6.3 L-4.75 -6.2 Q-6.3 -5.4 -6.9 -3.9 L-7.85 -1.25 Q-8.25 -3.45 -7.35 -5.5 L-6.4 -6.65 Q-6.45 -7.1 -6.0 -7.5 L-5.9 -7.65 -5.3 -8.15 -4.75 -8.85 -4.5 -8.95 -3.85 -9.1 M1.4 -7.15 L1.35 -7.15 1.4 -7.1 1.4 -7.15 M8.25 2.55 L8.05 1.4 Q7.25 0.1 6.2 1.2 5.65 2.25 6.65 3.0 7.5 3.4 8.25 2.55 M7.85 3.7 L6.85 3.75 6.0 3.3 Q4.85 2.25 5.55 1.0 6.05 0.35 6.75 0.0 8.4 0.05 8.9 1.65 9.1 3.1 7.85 3.7 M-2.6 0.25 L-2.55 0.95 Q-2.55 2.85 -2.05 4.75 L-2.2 5.3 -2.55 5.6 -3.25 5.65 Q-5.8 3.7 -5.4 0.45 -5.35 -0.45 -4.55 -0.85 L-4.0 -0.85 -3.9 -0.75 -3.1 -0.1 -3.1 -0.05 -3.0 0.05 -2.6 0.25 M-5.0 -7.9 L-4.65 -8.05 -4.85 -8.0 -5.0 -7.9 M-4.3 -1.95 L-3.8 -3.1 Q-3.25 -3.9 -2.45 -4.0 -0.75 -3.65 -1.45 -2.05 L-2.2 -0.5 -2.5 -0.65 -4.3 -1.95 M-12.8 43.5 L-12.15 43.5 -12.05 43.5 Q-10.15 43.6 -8.6 44.75 L-8.55 44.85 Q-8.5 46.1 -9.0 47.4 L-9.7 47.1 -12.95 46.85 -13.55 47.05 -13.8 47.1 Q-14.65 48.65 -14.8 50.55 -15.0 52.5 -14.25 54.1 L-13.3 54.2 -10.85 53.85 -10.6 53.75 -10.5 53.7 -10.6 55.95 Q-10.5 57.2 -11.95 57.5 L-13.75 57.7 -14.7 57.55 -15.15 57.4 -15.25 57.35 -16.9 52.75 -16.75 50.3 -16.7 50.15 Q-16.45 47.2 -15.75 44.55 L-15.5 44.35 -12.8 43.5 M-15.05 74.1 L-15.05 74.75 Q-13.65 74.4 -12.35 73.55 L-11.25 73.55 Q-9.5 73.45 -8.0 74.25 -6.35 75.1 -5.55 76.7 -4.45 79.05 -4.55 81.85 -4.65 82.85 -4.25 83.45 L-4.3 83.7 -4.4 83.5 -4.45 83.3 -5.3 80.8 Q-5.85 79.55 -7.0 79.3 L-7.1 79.3 -7.95 80.0 -8.05 79.95 -8.15 80.05 -8.2 80.2 -9.0 82.9 -9.05 84.0 -9.1 84.7 -9.1 84.8 -9.1 84.85 -9.45 84.9 -9.45 84.7 Q-9.4 83.45 -9.65 82.3 -10.1 80.4 -11.5 79.0 L-11.95 78.55 -12.3 78.55 -12.35 78.7 -12.45 78.85 -12.55 79.0 -13.45 80.4 -13.5 80.45 -13.5 80.5 Q-14.0 81.3 -14.0 82.2 L-14.0 82.25 -14.0 82.3 -14.0 82.4 Q-15.2 78.2 -15.05 74.1 M-14.0 69.7 L-14.4 69.4 -14.45 69.4 -14.45 69.35 -14.0 69.7 M-10.85 81.3 Q-10.35 82.6 -10.2 84.1 L-10.1 84.9 -10.1 85.0 Q-11.2 85.85 -12.4 85.5 L-12.45 85.45 -12.5 85.4 -12.8 85.0 -13.05 84.5 -11.85 84.25 Q-11.5 83.95 -11.3 83.35 L-11.0 81.8 -10.85 81.3 M-10.9 86.4 L-10.85 86.35 Q-10.45 86.0 -10.05 86.05 L-9.85 86.1 -9.9 86.6 -9.9 86.7 -9.9 87.25 -9.65 89.2 Q-9.45 90.75 -8.15 91.55 L-8.0 92.0 -7.9 92.35 -7.95 92.5 Q-9.15 92.05 -9.8 90.95 L-10.2 90.4 -10.3 88.7 -10.35 87.75 Q-10.35 86.75 -10.9 86.4 M-7.85 86.95 L-7.1 87.4 -5.5 87.1 -5.5 87.2 -5.5 87.5 -5.3 89.9 -4.95 90.95 Q-6.1 91.35 -7.05 90.95 -7.15 89.95 -7.5 89.15 -7.35 88.7 -7.55 88.4 L-7.95 87.75 -7.9 87.0 -7.85 86.95 M1.15 73.35 Q2.35 73.85 3.0 75.1 L3.15 76.6 3.3 77.25 3.2 77.4 Q3.3 77.3 3.35 77.3 L4.2 79.0 4.4 79.9 4.35 79.9 Q3.3 80.05 2.6 80.55 2.5 79.7 1.3 79.4 L1.25 79.35 1.5 79.05 3.2 77.4 2.05 77.45 1.95 77.5 1.85 77.6 1.75 77.7 1.65 77.8 1.55 77.85 0.8 78.65 0.7 78.55 Q0.4 76.8 -1.15 76.65 L-1.15 77.05 -1.15 76.6 -1.05 76.3 -0.45 74.65 Q-0.15 73.7 0.95 73.2 L1.15 73.35 M4.1 81.0 Q4.8 83.4 3.75 85.85 L3.65 85.8 3.7 84.0 Q3.7 82.15 2.2 81.8 2.9 80.95 4.0 80.75 L4.1 81.0 M-7.7 85.7 L-7.45 85.5 Q-6.25 84.75 -6.4 83.25 -6.05 82.95 -5.95 82.45 -5.8 80.55 -7.7 80.8 -7.5 80.35 -7.1 80.25 L-6.45 80.3 Q-4.95 82.95 -5.0 85.95 L-5.05 86.2 -5.1 86.3 -6.3 86.45 -7.45 85.95 -7.7 85.7 M-7.7 80.8 L-7.75 80.8 -7.7 80.8 M-3.85 88.0 L-2.35 87.75 Q-1.65 87.55 -1.25 88.1 L-0.95 89.3 -0.75 90.75 Q-1.45 91.55 -2.35 91.45 -2.3 91.1 -2.6 90.45 L-3.85 88.0 M-2.3 92.3 Q-1.45 92.15 -0.8 91.55 L-0.7 91.6 -0.6 91.75 Q0.3 93.1 0.0 94.8 -0.2 93.9 -0.75 93.15 -1.2 92.45 -1.75 92.15 L-2.3 92.3" fill="#818181" fill-rule="evenodd" stroke="none"/>
    <path d="M8.25 2.55 Q7.5 3.4 6.65 3.0 5.65 2.25 6.2 1.2 7.25 0.1 8.05 1.4 L8.25 2.55 M-6.15 -3.1 Q-6.3 -3.55 -5.9 -3.8 L-5.85 -3.8 -4.65 -2.3 -4.3 -1.95 -2.5 -0.65 -2.2 -0.5 -1.55 -0.25 0.95 0.25 1.0 0.75 0.95 1.05 0.9 1.25 Q-1.05 1.3 -2.6 0.25 L-3.0 0.05 -3.1 -0.05 -3.1 -0.1 -3.9 -0.75 -4.0 -0.85 -6.15 -3.15 -6.15 -3.1" fill="#363836" fill-rule="evenodd" stroke="none"/>
    <path d="M-7.5 14.85 L-7.3 14.2 -7.35 14.0 -5.3 8.35 -3.8 9.35 -3.85 9.55 Q-3.4 9.55 -3.1 9.8 L-2.95 10.0 Q0.35 11.1 3.6 10.8 L3.75 11.6 3.6 11.7 Q3.7 12.2 3.3 12.6 L2.0 16.95 -0.1 16.95 -0.65 18.55 1.6 18.45 1.65 18.45 1.65 18.6 1.5 19.2 1.2 19.65 1.3 19.35 1.35 19.1 -0.95 19.3 -2.25 23.75 -1.9 23.9 -0.5 24.3 -0.85 25.55 Q-1.85 25.85 -2.6 25.0 L-2.55 24.9 -2.7 24.85 -2.95 24.6 -3.2 24.2 -3.2 24.3 -3.7 23.9 -3.55 23.1 -2.85 20.85 -5.05 20.15 -5.55 21.75 -6.3 20.45 -6.25 20.4 -6.4 20.2 -6.5 19.95 -6.6 19.75 -6.4 19.15 -5.6 16.2 -6.55 15.9 -7.6 15.25 -7.5 14.85 M-0.45 12.7 L-0.45 12.5 Q-0.85 11.75 -1.75 11.75 L-1.75 11.7 -2.25 11.65 -2.3 11.65 -2.4 11.8 -3.05 13.5 Q-3.1 13.85 -2.8 14.05 L-1.0 14.3 -0.75 13.9 -0.45 12.7 M-1.3 15.3 L-1.45 15.25 -1.5 15.2 Q-1.9 14.75 -2.55 14.85 L-3.3 14.7 -3.45 14.95 -3.65 15.4 -3.75 15.8 -4.0 16.55 -2.8 16.8 -2.65 16.85 -1.8 17.1 -1.45 15.8 -1.4 15.6 -1.3 15.35 -1.3 15.3 M-1.1 15.2 L-1.1 14.95 -1.25 15.3 -1.15 15.3 -1.1 15.2 M-2.85 17.5 L-3.3 17.3 -4.1 17.0 -4.9 19.5 -4.95 19.7 -2.65 20.3 -2.7 20.25 -2.0 17.75 Q-2.35 17.5 -2.85 17.5 M-18.2 57.35 Q-18.3 55.3 -18.0 53.3 L-17.95 53.5 -17.65 51.65 -17.5 51.05 -17.35 50.0 -17.15 48.75 -17.05 48.2 -16.3 45.6 -15.75 44.0 -15.2 43.5 -15.15 43.5 -15.2 43.5 Q-13.75 42.9 -12.0 42.95 L-11.65 43.0 Q-9.85 43.15 -8.55 44.3 L-8.3 44.5 -8.35 42.65 -8.7 42.3 -8.4 42.15 -8.2 42.15 -7.15 42.2 -7.35 41.95 -6.85 41.6 -6.75 41.6 -6.65 41.7 -6.55 41.6 -6.05 41.6 -2.4 41.85 -2.25 42.1 -2.95 42.15 -2.35 42.2 -2.25 42.3 -2.2 42.4 -2.1 42.6 -2.05 42.6 Q-0.6 44.4 0.25 46.75 L0.5 47.3 0.15 47.55 0.55 47.25 Q1.7 50.05 2.05 52.7 2.5 52.7 2.4 53.3 L2.35 53.45 Q2.8 55.65 2.7 57.6 L2.6 58.45 2.55 58.75 2.55 61.45 2.15 61.75 2.5 61.5 2.45 61.95 2.1 64.15 2.05 64.85 2.0 65.1 1.55 66.9 1.4 67.0 1.3 67.05 0.2 68.95 -1.4 68.85 Q-3.6 67.2 -6.3 66.1 L-11.75 65.85 Q-12.85 66.1 -13.8 66.85 L-15.65 68.1 -16.2 66.95 -17.75 61.9 -17.9 60.85 -17.95 60.75 -17.85 60.85 Q-17.65 61.25 -17.6 61.85 -17.4 64.05 -15.4 65.05 L-14.3 65.2 Q-12.6 64.6 -10.75 64.4 L-11.25 64.5 -10.1 64.25 -9.45 64.2 -6.0 64.4 -5.4 64.15 Q-3.25 62.65 -2.9 59.8 L-2.85 58.95 Q-2.6 55.25 -2.7 51.55 L-3.0 48.4 -3.1 48.2 -3.1 48.1 -3.05 48.1 -3.2 47.4 -3.1 47.8 -3.0 47.4 -3.05 47.15 -3.35 46.8 Q-3.95 46.15 -4.85 46.3 -5.15 46.3 -5.45 46.6 L-5.6 47.1 -6.8 51.35 -7.95 55.6 -8.45 57.45 -8.4 57.35 -8.4 57.75 Q-8.55 59.25 -9.05 60.6 -9.35 61.35 -9.9 61.75 L-10.1 61.9 -10.25 62.05 -10.55 62.4 -10.75 62.7 -10.85 62.6 -11.95 62.8 Q-14.75 61.55 -16.05 58.9 L-16.15 58.7 Q-17.0 57.05 -17.45 55.35 L-17.8 54.25 -17.95 54.45 Q-18.4 55.75 -18.1 57.2 L-18.2 57.35 M-7.05 29.45 L-5.85 30.55 -5.7 30.65 -4.95 31.2 -4.15 31.6 Q-3.85 31.7 -3.65 32.05 L-2.75 32.4 Q-3.2 33.45 -3.95 34.2 L-4.1 34.15 -4.4 33.95 -5.5 33.05 -5.6 33.1 -6.2 33.4 -6.95 33.55 -7.1 33.5 -7.15 33.5 -7.3 33.45 -7.45 33.35 -7.55 33.25 -7.65 33.25 -7.7 33.35 -8.65 32.8 -9.25 31.95 -9.35 31.45 -9.3 30.5 -9.15 29.15 -9.35 28.95 -10.3 27.5 -10.2 26.9 -9.8 25.25 -9.65 25.15 Q-9.1 25.8 -8.95 26.6 L-8.7 26.95 -8.3 27.8 -7.85 28.5 -7.65 28.7 -7.95 29.7 -6.5 30.2 -7.05 29.45 M-6.05 31.0 L-8.05 30.25 -8.15 31.75 -7.85 32.2 -6.5 32.05 Q-6.15 31.75 -6.1 31.35 L-6.05 31.0 M-3.6 35.0 L-2.55 36.85 Q-1.9 37.7 -1.8 38.6 L-2.05 38.9 Q-2.7 37.7 -4.0 37.05 -5.3 36.3 -6.55 36.05 -5.85 36.15 -5.25 35.65 -4.7 35.15 -3.95 35.25 L-3.6 35.0 M-12.0 33.6 Q-9.8 34.9 -7.45 35.85 -10.8 35.4 -13.45 37.25 -14.85 36.35 -13.75 35.35 L-12.0 33.6 M-8.25 37.35 L-5.7 37.6 Q-5.05 37.75 -4.5 38.1 L-4.3 38.3 -3.7 38.65 -3.6 38.8 Q-3.4 39.2 -3.35 39.65 L-3.05 41.15 -4.05 40.5 -3.75 40.9 -4.65 40.7 -4.8 40.65 -6.75 40.75 -7.75 40.8 -8.1 40.65 -8.4 40.7 Q-10.9 39.1 -13.4 40.0 -13.9 39.85 -13.75 39.5 L-13.6 38.75 Q-13.6 37.55 -12.55 37.5 -11.6 37.35 -10.85 36.9 L-8.5 37.3 -8.25 37.35 M-12.05 43.5 L-12.8 43.5 -15.5 44.35 -15.75 44.55 Q-16.45 47.2 -16.7 50.15 L-16.75 50.3 -16.9 52.75 -15.25 57.35 -15.15 57.4 -14.7 57.55 -13.75 57.7 -11.95 57.5 Q-10.5 57.2 -10.6 55.95 L-10.5 53.7 -10.5 53.65 -10.6 53.75 -10.85 53.85 -13.3 54.2 -14.25 54.1 Q-15.0 52.5 -14.8 50.55 -14.65 48.65 -13.8 47.1 L-13.55 47.05 -12.95 46.85 -9.7 47.1 -9.0 47.4 Q-8.5 46.1 -8.55 44.85 L-8.6 44.75 Q-10.15 43.6 -12.05 43.5 M-9.35 47.8 L-9.85 47.6 -12.85 47.4 Q-13.85 48.35 -13.95 49.75 L-14.05 52.35 Q-14.2 53.75 -13.05 53.65 L-11.25 53.5 Q-10.05 52.5 -9.85 50.9 L-9.35 47.8 M-11.4 61.75 Q-10.55 61.1 -10.65 59.85 L-10.7 57.3 -12.15 57.95 -14.9 58.0 -13.75 60.5 Q-13.05 61.8 -11.5 61.85 L-11.45 61.85 -11.4 61.75 M-8.15 60.8 L-8.15 60.6 -8.0 60.55 -8.15 60.8 M-4.3 83.7 L-4.25 83.75 Q-3.9 84.75 -4.05 85.85 L-4.4 86.8 -4.45 86.85 -5.3 87.05 -5.35 87.05 -5.4 87.25 -5.5 87.5 -5.5 87.2 -5.45 87.05 -5.5 87.1 -7.1 87.4 -7.85 86.95 -7.9 86.95 -8.75 85.95 -8.9 85.7 -9.5 86.15 -9.6 86.15 -9.85 86.0 -9.9 85.9 -9.8 86.35 -9.85 86.5 -9.9 86.6 -9.85 86.1 -10.05 86.05 Q-10.45 86.0 -10.85 86.35 L-10.9 86.4 -11.0 86.45 -11.05 86.5 -11.5 86.6 -11.8 86.55 -11.85 86.6 -12.0 86.8 -12.0 87.0 -12.8 85.0 -12.5 85.4 -12.45 85.45 -12.4 85.5 Q-11.2 85.85 -10.1 85.0 L-10.1 84.9 -10.2 84.1 Q-10.35 82.6 -10.85 81.3 L-11.6 79.7 -11.85 79.25 -11.9 79.2 -12.15 79.55 -12.8 80.6 -13.2 83.25 -13.2 83.65 -13.1 84.25 -13.15 84.25 -13.4 83.9 -13.7 83.4 -14.0 82.3 -14.0 82.25 -14.0 82.2 Q-14.0 81.3 -13.5 80.5 L-13.5 80.45 -13.45 80.4 -12.55 79.0 -12.45 78.85 -12.35 78.7 -12.3 78.55 -11.95 78.55 -11.5 79.0 Q-10.1 80.4 -9.65 82.3 -9.4 83.45 -9.45 84.7 L-9.45 84.9 -9.1 84.85 -9.1 84.8 -9.1 84.7 -9.05 84.0 -9.1 83.85 -9.0 82.9 -8.2 80.2 -8.15 80.05 -8.05 79.95 -7.95 80.0 -7.1 79.3 -7.0 79.3 Q-5.85 79.55 -5.3 80.8 L-4.45 83.3 -4.4 83.5 -4.3 83.7 M-4.4 86.85 L-2.2 86.8 -1.45 86.15 -1.4 86.4 -1.3 87.0 -1.25 88.1 Q-1.65 87.55 -2.35 87.75 L-3.85 88.0 -4.35 87.95 -4.55 87.9 -4.45 86.95 -4.4 86.85 M-1.65 80.95 Q-2.4 79.8 -2.5 78.4 L-2.5 78.3 -2.5 78.15 Q-2.2 74.5 0.65 72.55 1.2 72.6 1.15 73.3 L1.15 73.35 0.95 73.2 Q-0.15 73.7 -0.45 74.65 L-1.05 76.3 -1.15 76.4 -1.45 77.0 Q-1.95 78.35 -1.8 79.8 L-1.75 80.35 -1.65 80.95 M-10.2 84.1 L-10.15 83.95 -10.05 84.15 -10.1 84.0 -10.15 83.8 -10.2 84.1 M3.15 76.6 Q3.55 76.7 3.5 77.3 L3.45 77.5 3.35 77.3 3.3 77.25 3.15 76.6 M4.35 79.9 L4.35 79.95 Q4.55 80.35 4.25 80.7 L4.1 81.0 4.0 80.75 Q2.9 80.95 2.2 81.8 L2.0 82.05 2.0 82.25 1.8 82.05 1.6 81.8 1.25 81.55 1.5 81.6 2.6 80.55 Q3.3 80.05 4.35 79.9 M0.65 81.35 L0.55 81.3 0.15 81.25 -0.15 80.45 Q0.05 79.75 0.4 79.2 L0.45 79.2 0.55 79.0 0.7 78.75 0.8 78.65 1.55 77.85 1.65 77.8 1.75 77.7 1.85 77.6 1.95 77.5 2.05 77.45 3.2 77.4 1.5 79.05 1.25 79.35 1.15 79.5 Q0.65 80.25 0.65 81.35 M-10.1 84.55 L-10.1 84.4 -10.05 84.8 -10.1 84.55 M-8.85 89.25 L-8.6 89.65 -8.8 89.5 -8.85 89.25 M-8.15 90.35 L-7.55 90.7 -7.05 90.95 Q-6.1 91.35 -4.95 90.95 L-5.3 89.9 -4.9 90.8 -4.85 91.0 -4.45 91.65 -5.35 91.8 Q-6.2 92.2 -7.0 91.8 L-7.1 91.7 -7.25 91.7 -7.4 91.6 -7.35 91.65 -7.45 91.65 -7.8 91.0 -8.05 90.7 -8.15 90.35 M-7.7 85.7 L-7.45 85.95 -6.3 86.45 -5.1 86.3 -5.05 86.25 -5.05 86.2 -5.0 85.95 Q-4.95 82.95 -6.45 80.3 L-7.1 80.25 Q-7.5 80.35 -7.7 80.8 L-7.75 80.8 -8.25 83.55 Q-8.45 84.65 -7.7 85.7 M-3.05 92.25 L-3.95 90.7 -4.15 90.25 -3.75 90.85 Q-3.6 91.35 -2.85 91.3 L-2.8 91.3 -2.35 91.45 Q-1.45 91.55 -0.75 90.75 L-0.75 90.8 -0.7 91.15 -0.6 91.75 -0.7 91.6 -0.8 91.55 Q-1.45 92.15 -2.3 92.3 L-2.9 92.3 -3.05 92.25" fill="#4d4f4d" fill-rule="evenodd" stroke="none"/>
    <path d="M-8.7 15.95 L-8.6 16.05 -8.5 16.4 -8.6 16.55 -9.65 16.7 -9.7 16.75 -9.75 16.75 -10.0 16.5 -10.0 16.15 -9.95 16.15 -8.7 15.95 M-8.5 18.55 L-8.15 18.4 Q-7.65 18.5 -7.75 19.05 L-7.75 19.15 Q-8.9 19.15 -9.75 19.75 L-9.8 19.75 -10.0 19.5 -9.95 19.45 -9.75 19.3 -8.5 18.55 M-7.4 21.6 L-6.8 21.4 -6.55 21.7 -6.45 21.9 -6.65 21.95 Q-7.45 22.15 -8.05 22.95 L-8.25 23.3 -8.3 23.35 -8.45 23.8 -8.45 24.25 -8.9 23.55 -8.8 22.95 -8.7 22.7 -7.4 21.6 M-4.6 24.35 L-4.25 24.65 -4.35 24.7 -6.65 26.85 -6.7 26.9 -6.85 26.55 -6.8 26.4 -6.75 26.45 -4.6 24.35 M-3.2 26.0 L-3.35 25.65 -3.1 25.8 -3.05 25.85 -2.45 26.2 -2.45 26.5 -2.45 26.65 -2.4 26.75 -2.85 28.65 -3.4 29.7 -3.85 29.6 -3.95 29.4 -3.4 28.55 -3.1 27.6 -3.1 27.5 -3.15 27.4 -3.1 27.25 -3.05 27.1 -3.1 26.5 -3.2 26.0 M-0.7 26.65 L-0.4 26.25 -0.15 26.25 0.3 27.45 0.3 27.55 0.4 27.85 0.35 28.45 0.2 28.85 Q0.25 28.35 -0.05 27.9 L-0.7 26.7 -0.7 26.65" fill="#00cccc" fill-rule="evenodd" stroke="none"/>
    <path d="M-8.6 16.55 L-8.45 16.9 -8.05 18.35 -8.5 18.55 -9.75 19.3 -9.95 19.45 -10.0 19.45 -10.05 19.45 Q-10.65 17.75 -9.7 16.75 L-9.65 16.7 -8.6 16.55 M-7.75 19.15 L-6.8 21.4 -7.4 21.6 -8.7 22.7 -8.8 22.95 -8.9 23.55 -8.95 23.6 Q-10.05 21.85 -9.75 19.8 L-9.75 19.75 Q-8.9 19.15 -7.75 19.15 M-6.45 21.9 L-6.35 21.85 -4.55 24.3 -4.6 24.35 -6.75 26.45 -6.85 26.35 -8.2 24.55 -7.95 24.05 -8.1 24.45 -8.25 24.35 -8.45 24.25 -8.45 23.8 -8.3 23.35 -8.25 23.3 -8.05 22.95 Q-7.45 22.15 -6.65 21.95 L-6.45 21.9 M-4.2 24.8 Q-3.45 25.3 -3.2 26.0 L-3.1 26.5 -3.05 27.1 -3.1 27.25 -3.15 27.4 -3.1 27.5 -3.1 27.6 -3.4 28.55 -4.0 29.4 Q-5.75 28.45 -6.65 26.85 L-4.35 24.7 -4.2 24.8 M-2.45 26.2 L-0.7 26.7 -0.05 27.9 Q0.25 28.35 0.2 28.85 L0.05 29.35 Q-1.1 30.9 -2.95 30.3 L-3.5 29.8 -3.4 29.7 -2.85 28.65 -2.4 26.75 -2.45 26.65 -2.45 26.5 -2.45 26.2 M-0.15 26.25 L-0.2 26.15 0.6 24.6 Q1.15 26.4 0.5 28.05 L0.4 27.85 0.3 27.55 0.3 27.45 -0.15 26.25 M-9.95 16.05 Q-9.65 13.55 -7.8 11.95 -8.65 13.75 -8.55 15.95 L-8.7 15.95 -9.95 16.15 -9.95 16.05" fill="#009966" fill-rule="evenodd" stroke="none"/>
    <path d="M-10.0 19.5 L-10.0 19.45 -9.95 19.45 -10.0 19.5 M-10.0 16.15 L-10.0 16.1 -9.95 16.15 -10.0 16.15" fill="#336600" fill-rule="evenodd" stroke="none"/>
    <path d="M-6.6 19.75 L-6.65 19.85 -6.65 19.75 -6.6 19.75 M-4.25 24.65 L-4.2 24.8 -4.35 24.7 -4.25 24.65 M-0.7 26.7 L-0.7 26.65 -0.7 26.7 M-6.65 26.85 L-6.65 26.9 -6.7 26.9 -6.65 26.85 M-6.8 26.4 L-6.85 26.35 -6.75 26.45 -6.8 26.4 M-9.75 19.8 L-9.8 19.75 -9.75 19.75 -9.75 19.8 M-10.0 16.1 L-9.95 16.1 -9.95 16.05 -9.95 16.15 -10.0 16.1" fill="#53648a" fill-rule="evenodd" stroke="none"/>
    <path d="M-8.9 23.55 L-8.85 23.75 -8.95 23.6 -8.9 23.55 M-9.95 16.1 L-9.95 16.05 -9.95 16.1" fill="#8b9ac5" fill-rule="evenodd" stroke="none"/>
    <path d="M-1.3 15.3 L-1.3 15.35 -1.3 15.3 M-9.8 25.25 L-9.8 25.05 -9.65 25.15 -9.8 25.25" fill="#006666" fill-rule="evenodd" stroke="none"/>
    <path d="M1.65 18.3 L1.65 18.45 1.6 18.45 1.65 18.3 M-1.45 15.25 L-1.3 15.3 -1.3 15.35 -1.4 15.35 -1.45 15.25" fill="#3c4764" fill-rule="evenodd" stroke="none"/>
    <path d="M2.0 16.95 L1.65 18.3 1.6 18.45 -0.65 18.55 -0.1 16.95 2.0 16.95 M1.3 19.35 Q0.25 21.75 -0.5 24.3 L-1.9 23.9 -2.25 23.75 -0.95 19.3 1.35 19.1 1.3 19.35 M-6.65 19.75 Q-6.9 18.85 -7.3 18.05 -7.8 17.25 -7.6 16.45 L-7.9 16.2 -7.5 14.85 -7.6 15.25 -6.55 15.9 -5.6 16.2 -6.4 19.15 -6.6 19.75 -6.65 19.75 M-15.2 43.5 Q-14.6 41.7 -12.55 41.1 L-12.4 41.1 -12.15 41.05 -11.4 41.05 Q-9.9 41.2 -8.7 42.3 L-8.35 42.65 -8.3 44.5 -8.55 44.3 Q-9.85 43.15 -11.65 43.0 L-12.0 42.95 Q-13.75 42.9 -15.2 43.5 L-15.15 43.5 -15.2 43.5 M-3.95 34.2 L-4.7 34.8 Q-7.85 35.6 -10.25 33.9 -11.55 31.6 -10.85 29.5 L-10.3 27.5 -9.35 28.95 -9.15 29.15 -9.3 30.5 -9.35 31.45 -9.25 31.95 -8.65 32.8 -7.7 33.35 -7.6 33.3 -7.3 33.45 -7.15 33.5 -7.1 33.5 -6.95 33.55 -6.2 33.4 -5.6 33.1 -5.5 33.05 -4.4 33.95 -4.1 34.15 -3.95 34.2 M-10.5 53.7 L-10.6 53.75 -10.5 53.65 -10.5 53.7 M-9.35 47.8 L-9.85 50.9 Q-10.05 52.5 -11.25 53.5 L-13.05 53.65 Q-14.2 53.75 -14.05 52.35 L-13.95 49.75 Q-13.85 48.35 -12.85 47.4 L-9.85 47.6 -9.35 47.8 M-11.45 61.85 L-11.5 61.85 Q-13.05 61.8 -13.75 60.5 L-14.9 58.0 -12.15 57.95 -10.7 57.3 -10.65 59.85 Q-10.55 61.1 -11.4 61.75 L-11.45 61.75 -11.45 61.85 M-13.2 67.9 L-13.25 67.85 Q-13.1 67.2 -12.4 67.0 -10.75 68.35 -8.7 68.5 -7.6 68.45 -6.5 67.65 L-6.5 67.7 -6.2 68.4 -5.65 69.05 -6.65 69.45 Q-10.15 69.5 -13.2 67.9 M-5.1 70.5 L-8.7 70.7 Q-11.7 70.4 -13.9 69.15 L-13.5 68.55 -13.45 68.55 Q-11.3 69.55 -8.85 70.15 -6.7 70.65 -4.8 69.7 L-5.35 70.0 -5.15 70.35 -5.1 70.5 M-12.0 87.0 L-12.0 86.8 -11.85 86.6 -11.8 86.55 -11.5 86.6 -11.05 86.5 -11.0 86.45 -10.9 86.4 Q-10.35 86.75 -10.35 87.75 L-10.3 88.7 -10.2 90.4 -10.55 89.8 -11.35 88.9 -11.45 88.75 -11.9 87.55 -12.0 87.05 -12.0 87.0 M-9.5 86.15 L-8.9 85.7 -8.75 85.95 -7.9 86.95 -7.9 87.0 -7.95 87.75 -7.55 88.4 Q-7.35 88.7 -7.5 89.15 -7.15 89.95 -7.05 90.95 L-7.55 90.7 -8.15 90.35 -8.35 90.05 -8.6 89.65 -8.85 89.25 -9.1 88.25 -9.25 87.4 -9.25 87.35 -9.45 86.35 -9.5 86.15 M3.7 86.05 L3.55 86.25 Q2.35 85.75 2.2 84.35 L2.0 82.25 2.0 82.05 2.2 81.8 Q3.7 82.15 3.7 84.0 L3.65 85.8 3.7 86.05 M1.5 81.6 L0.65 81.35 Q0.65 80.25 1.15 79.5 L1.3 79.4 Q2.5 79.7 2.6 80.55 L1.5 81.6 M-0.15 80.45 L-0.2 80.55 -0.25 80.8 Q-0.95 80.0 -1.1 78.75 L-1.1 78.45 -1.15 78.3 -1.15 77.05 -1.15 76.65 Q0.4 76.8 0.7 78.55 L0.7 78.75 0.4 79.2 Q0.05 79.75 -0.15 80.45 M-4.55 87.9 L-4.35 87.95 -3.85 88.0 -2.6 90.45 Q-2.3 91.1 -2.35 91.45 L-2.8 91.3 -2.85 91.3 Q-3.6 91.35 -3.75 90.85 L-4.15 90.25 -4.5 90.05 Q-5.05 88.95 -4.95 87.85 L-4.55 87.9 M-7.05 92.1 L-6.8 91.9 -5.8 92.0 Q-4.7 92.6 -4.25 94.1 L-4.05 94.9 -4.5 95.1 -4.5 95.05 -4.7 95.0 -5.7 94.35 -6.3 93.3 -7.05 92.1 M-3.05 92.25 L-2.9 92.3 -2.3 92.3 -1.75 92.15 Q-1.2 92.45 -0.75 93.15 -0.2 93.9 0.0 94.8 L-0.15 95.25 -0.45 95.25 -3.15 92.6 -3.15 92.25 -3.05 92.25" fill="#999999" fill-rule="evenodd" stroke="none"/>
    <path d="M-6.65 19.75 L-6.6 19.75 -6.65 19.75" fill="#669999" fill-rule="evenodd" stroke="none"/>
    <path d="M-13.15 84.25 L-13.1 84.25 -13.15 84.25 M3.35 77.3 Q3.3 77.3 3.2 77.4 L3.3 77.25 3.35 77.3" fill="#ffffff" fill-rule="evenodd" stroke="none"/>
    <path d="M-13.1 84.25 L-13.2 83.65 -13.2 83.25 -12.8 80.6 -12.15 79.55 -11.6 79.7 -10.85 81.3 -11.0 81.8 -11.3 83.35 Q-11.5 83.95 -11.85 84.25 L-13.05 84.5 -13.15 84.25 -13.1 84.25 M-7.7 80.8 Q-5.8 80.55 -5.95 82.45 -6.05 82.95 -6.4 83.25 -6.25 84.75 -7.45 85.5 L-7.7 85.7 Q-8.45 84.65 -8.25 83.55 L-7.75 80.8 -7.7 80.8" fill="#cfcfcf" fill-rule="evenodd" stroke="none"/>
  </g>
</svg>
