<?xml version="1.0" encoding="UTF-8" standalone="no"?>
<svg xmlns:xlink="http://www.w3.org/1999/xlink" height="127.15px" width="47.1px" xmlns="http://www.w3.org/2000/svg">
  <g transform="matrix(1.0, 0.0, 0.0, 1.0, 35.2, 11.95)">
    <path d="M5.0 10.15 L8.05 10.4 7.75 11.8 Q6.65 15.2 4.9 18.15 L4.55 18.35 2.9 17.2 0.65 16.05 0.2 15.85 0.05 15.8 -1.75 23.05 -3.6 29.95 Q-4.5 33.4 -6.7 36.35 -7.8 37.7 -9.55 37.7 L-9.8 37.7 -10.2 37.7 -11.3 37.7 -12.3 37.1 Q-12.95 36.65 -12.85 35.85 L-13.1 35.55 Q-14.95 29.35 -14.6 22.45 -14.2 15.65 -12.6 9.55 -11.8 8.35 -10.75 7.85 -10.85 7.0 -10.25 6.2 L-9.5 6.15 Q-5.5 5.9 -2.45 7.95 L-2.1 8.2 -1.85 8.35 -1.75 8.45 -1.3 8.8 -1.15 8.95 -0.9 9.15 -0.6 9.5 -0.35 9.75 -0.05 10.05 0.2 10.0 0.4 10.0 Q2.35 9.7 4.2 10.05 L5.0 10.15 M1.15 10.95 L0.8 11.0 Q0.0 11.2 0.05 12.05 -0.9 14.65 1.25 15.4 L1.3 15.4 Q2.95 15.95 4.25 16.7 5.5 15.95 6.1 14.45 6.65 13.1 6.6 11.75 L6.5 11.55 1.15 10.95 M-5.75 7.85 L-6.1 7.9 -8.2 8.0 -8.35 8.2 Q-9.9 8.8 -10.8 10.35 L-11.2 10.85 -12.1 13.1 -12.25 13.35 Q-12.95 14.8 -13.0 16.4 L-13.1 16.85 -13.3 20.25 -13.5 23.75 -13.3 27.25 -12.8 30.8 -12.55 31.4 -11.8 33.7 -11.4 34.4 -9.85 35.9 -9.3 36.15 -8.5 36.35 Q-7.2 35.8 -6.3 34.3 -1.85 23.5 -1.0 11.15 -1.9 8.6 -4.4 8.05 L-5.75 7.85 M1.55 -6.85 L1.6 -6.65 1.6 -6.35 1.4 -5.9 1.1 -5.3 0.8 -5.0 0.65 -4.9 -0.2 -4.4 -1.2 -3.15 -3.1 -0.45 -4.8 2.35 -5.15 2.75 -6.05 3.2 -6.3 2.8 Q-6.95 1.55 -6.4 0.25 -4.7 -4.0 -0.9 -6.95 L0.3 -7.3 1.55 -6.85 M-18.9 72.15 L-18.9 69.4 -17.95 69.25 Q-18.35 70.0 -18.25 71.0 -18.1 72.25 -17.45 72.7 L-17.5 72.85 -18.9 72.2 -18.9 72.15 M-14.5 68.9 L-12.05 68.5 Q-11.45 69.1 -11.2 70.15 -11.05 71.05 -11.4 71.95 -12.2 73.95 -14.45 73.65 -15.55 73.55 -16.15 72.95 L-15.6 72.8 Q-14.4 71.9 -14.3 70.45 -14.15 69.45 -14.5 68.9 M-16.1 79.1 L-16.6 78.75 -16.3 78.65 Q-14.75 77.95 -14.7 76.3 -14.65 74.95 -15.4 74.55 L-12.8 75.15 Q-11.9 77.65 -14.1 79.25 L-14.95 79.55 -15.3 79.55 -16.1 79.1 M-18.55 76.05 L-18.55 73.75 -18.25 73.85 -18.2 73.9 -16.6 74.25 Q-18.05 74.5 -18.55 76.05" fill="#666633" fill-rule="evenodd" stroke="none"/>
    <path d="M-9.5 6.15 L-10.4 6.2 Q-9.0 1.25 -6.3 -3.7 -3.6 -8.65 2.1 -10.1 4.55 -10.85 6.55 -9.45 8.4 -8.05 9.4 -6.05 L10.3 2.9 10.1 3.25 9.9 4.05 9.35 5.55 8.45 7.9 8.0 8.5 Q6.7 9.45 5.35 10.0 L5.0 10.15 4.2 10.05 Q2.35 9.7 0.4 10.0 L0.2 10.0 -0.05 10.05 -0.35 9.75 -0.6 9.5 -0.9 9.15 -1.15 8.95 -1.3 8.8 -1.75 8.45 -1.85 8.35 -2.1 8.2 -2.45 7.95 Q-5.5 5.9 -9.5 6.15 M2.9 17.2 L2.95 17.3 3.25 18.4 Q3.5 19.95 3.1 21.45 L3.0 22.45 3.1 22.9 0.65 28.7 Q-1.75 33.7 -3.1 39.15 -4.0 40.3 -5.5 40.0 L-8.5 39.65 -10.85 39.45 Q-11.05 38.55 -10.75 37.7 L-10.2 37.7 -9.8 37.7 -9.55 37.7 Q-7.8 37.7 -6.7 36.35 -4.5 33.4 -3.6 29.95 L-1.75 23.05 0.05 15.8 0.2 15.85 0.65 16.05 2.9 17.2 M1.55 -6.85 L0.3 -7.3 -0.9 -6.95 Q-4.7 -4.0 -6.4 0.25 -6.95 1.55 -6.3 2.8 L-6.05 3.2 -5.15 2.75 -4.8 2.35 -3.1 -0.45 -1.2 -3.15 -0.2 -4.4 0.65 -4.9 0.8 -5.0 1.1 -5.3 1.4 -5.9 1.6 -6.35 1.6 -6.65 1.55 -6.85 M-5.75 7.85 L-4.4 8.05 Q-1.9 8.6 -1.0 11.15 -1.85 23.5 -6.3 34.3 -7.2 35.8 -8.5 36.35 L-9.3 36.15 -9.85 35.9 -11.4 34.4 -11.8 33.7 -12.55 31.4 -12.8 30.8 -13.3 27.25 -13.5 23.75 -13.3 20.25 -13.1 16.85 -13.0 16.4 Q-12.95 14.8 -12.25 13.35 L-12.1 13.1 -11.2 10.85 -10.8 10.35 Q-9.9 8.8 -8.35 8.2 L-8.2 8.0 -6.1 7.9 -5.75 7.85 M1.15 10.95 L6.5 11.55 6.6 11.75 Q6.65 13.1 6.1 14.45 5.5 15.95 4.25 16.7 2.95 15.95 1.3 15.4 L1.25 15.4 Q-0.9 14.65 0.05 12.05 0.0 11.2 0.8 11.0 L1.15 10.95 M-18.9 72.15 L-18.9 72.2 -17.5 72.85 -17.45 72.7 -15.6 72.8 -16.15 72.95 Q-15.55 73.55 -14.45 73.65 -12.2 73.95 -11.4 71.95 -11.05 71.05 -11.2 70.15 -11.45 69.1 -12.05 68.5 L-9.6 67.95 -10.4 74.55 -10.75 74.55 -10.6 74.6 -10.4 75.05 Q-10.3 75.45 -10.55 75.7 L-10.5 75.7 Q-11.0 78.2 -12.3 80.8 -14.2 80.2 -16.1 79.1 L-15.3 79.55 -14.95 79.55 -14.1 79.25 Q-11.9 77.65 -12.8 75.15 L-15.4 74.55 -15.65 74.5 -15.9 74.45 -16.55 74.25 -16.6 74.25 -18.2 73.9 -18.25 73.85 -18.95 72.8 -18.95 72.25 -18.9 72.15 M8.15 10.35 L8.3 10.0 8.15 10.4 8.1 10.4 8.15 10.35" fill="#333300" fill-rule="evenodd" stroke="none"/>
    <path d="M5.0 10.15 L5.35 10.0 Q6.7 9.45 8.0 8.5 L8.45 7.9 9.35 5.55 9.9 4.05 10.1 3.25 10.3 2.9 9.4 -6.05 Q8.4 -8.05 6.55 -9.45 4.55 -10.85 2.1 -10.1 -3.6 -8.65 -6.3 -3.7 -9.0 1.25 -10.4 6.2 L-9.5 6.15 -10.25 6.2 Q-10.85 7.0 -10.75 7.85 -11.8 8.35 -12.6 9.55 -14.2 15.65 -14.6 22.45 -14.95 29.35 -13.1 35.55 L-12.85 35.85 Q-12.95 36.65 -12.3 37.1 L-11.3 37.7 -10.2 37.7 -10.75 37.7 Q-11.05 38.55 -10.85 39.45 L-8.5 39.65 -5.5 40.0 Q-4.0 40.3 -3.1 39.15 -1.75 33.7 0.65 28.7 L3.1 22.9 3.0 22.45 3.1 21.45 Q3.5 19.95 3.25 18.4 L2.95 17.3 2.9 17.2 4.55 18.35 4.9 18.15 Q6.65 15.2 7.75 11.8 L8.05 10.4 5.0 10.15 M8.45 -10.7 Q11.05 -8.25 11.15 -4.95 11.35 -1.75 11.9 1.6 10.5 9.65 7.25 16.95 3.95 24.15 0.8 31.55 -0.3 36.85 -3.0 41.65 -5.7 46.4 -4.4 52.35 -4.1 56.35 -5.35 59.9 L-8.2 66.75 Q-7.3 67.55 -7.9 68.25 -8.6 68.95 -8.6 69.8 -7.9 74.8 -10.15 78.75 -12.4 82.7 -11.65 87.65 -12.4 89.2 -11.75 90.65 -11.1 92.05 -11.1 93.7 -11.45 97.75 -10.15 101.5 -8.8 105.15 -10.9 108.85 -18.3 116.75 -28.75 114.85 L-34.6 112.75 Q-35.65 111.45 -34.9 109.9 -32.45 108.35 -31.45 105.85 -30.4 103.35 -28.45 101.35 -26.5 93.95 -20.5 88.7 -21.05 84.5 -20.15 80.3 -19.3 76.05 -20.4 71.8 -20.3 69.75 -18.9 68.25 -20.65 61.15 -18.9 54.55 -17.3 47.85 -14.45 41.85 L-14.05 38.05 Q-13.8 36.1 -14.7 34.4 -16.55 28.3 -16.0 21.65 -15.55 14.95 -13.8 9.1 -12.1 8.05 -11.7 6.45 L-11.1 3.05 Q-9.7 -2.15 -5.75 -6.5 -1.85 -10.95 3.65 -11.9 6.5 -12.2 8.45 -10.7 M-16.1 67.6 L-13.7 67.55 Q-11.0 67.6 -9.55 66.15 L-8.6 64.6 -8.45 64.25 Q-7.45 60.75 -6.25 57.85 L-6.25 49.35 -6.25 49.05 -6.2 48.1 -5.75 44.95 -5.35 43.35 -4.9 42.25 -4.6 41.6 -4.6 41.55 -4.5 41.3 -4.7 41.25 Q-7.5 40.35 -10.7 40.35 L-12.25 40.4 Q-15.6 46.45 -17.5 53.5 -19.45 60.5 -17.45 67.65 L-16.1 67.6 M-17.95 69.25 L-18.9 69.4 -18.9 72.15 -18.95 72.25 -18.95 72.8 -18.25 73.85 -18.55 73.75 -18.55 76.05 -18.55 77.35 -18.35 77.5 -17.3 78.35 Q-17.0 78.5 -16.7 78.75 L-16.6 78.75 -16.1 79.1 Q-14.2 80.2 -12.3 80.8 -11.0 78.2 -10.5 75.7 L-10.55 75.7 Q-10.3 75.45 -10.4 75.05 L-10.6 74.6 -10.75 74.55 -10.4 74.55 -9.6 67.95 -12.05 68.5 -14.5 68.9 -17.95 69.25 M-15.5 80.55 L-17.35 79.45 -18.55 78.85 -18.85 78.75 -19.0 78.65 Q-18.95 80.9 -19.55 83.25 -20.15 85.6 -19.6 87.95 L-19.5 88.0 -19.45 88.05 -18.1 88.65 -15.65 88.85 -13.85 88.65 -13.8 88.65 Q-13.2 88.35 -13.0 87.75 L-13.0 86.85 -13.1 86.55 Q-13.7 83.95 -12.8 82.25 L-13.15 82.0 -15.5 80.55 M-24.4 95.9 Q-25.9 99.25 -27.8 102.45 L-18.9 103.3 Q-14.4 103.75 -12.5 108.65 -11.95 108.7 -11.6 108.25 -11.75 99.45 -13.15 90.45 L-20.3 89.8 Q-23.05 92.55 -24.4 95.9 M-24.65 106.9 L-17.3 107.8 Q-15.85 109.0 -14.1 109.6 -13.5 108.8 -14.1 107.8 -15.7 104.45 -18.95 104.3 L-24.1 103.85 -25.3 103.7 -28.45 104.05 -28.75 104.15 Q-30.4 104.45 -30.65 106.6 L-28.4 106.65 -28.1 106.65 -26.4 106.75 -24.7 106.9 -24.65 106.9 M-26.05 108.35 L-26.35 108.25 -28.45 108.05 -31.15 108.25 Q-33.25 109.05 -34.15 111.7 -32.15 112.85 -29.9 113.6 -26.05 114.2 -22.1 113.75 -18.25 113.3 -15.65 110.55 -17.75 108.8 -20.45 108.65 L-26.05 108.35 M8.15 10.35 L8.1 10.4 8.15 10.4 8.3 10.0 8.15 10.35" fill="#000000" fill-rule="evenodd" stroke="none"/>
    <path d="M-10.9 40.9 L-8.5 41.15 -8.35 41.35 -8.0 41.95 -7.8 42.2 -7.85 42.35 -7.85 42.5 -7.9 42.65 -8.45 43.95 -8.65 44.2 -8.9 44.35 Q-10.25 44.9 -10.4 46.3 L-10.2 46.9 -8.35 49.45 Q-8.05 51.5 -8.15 53.5 L-8.9 60.5 -9.25 62.75 -9.8 65.45 -10.0 66.5 -9.55 66.15 Q-11.0 67.6 -13.7 67.55 L-16.1 67.6 -16.1 67.45 -15.7 64.05 -15.5 62.55 -14.2 55.65 -13.4 52.25 -11.3 45.35 -11.0 44.75 Q-9.8 43.0 -10.85 41.3 L-10.9 40.9 M-5.75 44.95 L-5.5 43.95 -5.35 43.35 -5.75 44.95 M-4.6 41.55 L-4.7 41.35 -4.7 41.25 -4.5 41.3 -4.6 41.55 M-15.5 80.55 L-16.25 80.05 Q-16.15 81.7 -14.9 82.9 -15.55 84.85 -15.55 86.95 -15.55 87.75 -14.95 88.25 -14.4 88.65 -13.85 88.65 L-15.65 88.85 -18.1 88.65 -17.4 88.75 -16.85 82.1 -16.7 79.9 -17.35 79.45 -15.5 80.55" fill="#e3b18b" fill-rule="evenodd" stroke="none"/>
    <path d="M-9.55 66.15 L-10.0 66.5 -9.8 65.45 -9.25 62.75 -8.9 60.5 -8.15 53.5 Q-8.05 51.5 -8.35 49.45 L-10.2 46.9 -10.4 46.3 Q-10.25 44.9 -8.9 44.35 L-8.65 44.2 -8.45 43.95 -7.9 42.65 -7.85 42.5 -7.85 42.35 -7.8 42.2 -8.0 41.95 -8.35 41.35 -8.5 41.15 -10.9 40.9 -10.7 40.35 Q-7.5 40.35 -4.7 41.25 L-4.7 41.35 -4.6 41.55 -4.6 41.6 -4.9 42.25 -5.35 43.35 -5.5 43.95 -5.75 44.95 -6.2 48.1 -6.25 49.05 -6.25 49.35 -6.25 57.85 Q-7.45 60.75 -8.45 64.25 L-8.6 64.6 -9.55 66.15 M-13.85 88.65 Q-14.4 88.65 -14.95 88.25 -15.55 87.75 -15.55 86.95 -15.55 84.85 -14.9 82.9 -16.15 81.7 -16.25 80.05 L-15.5 80.55 -13.15 82.0 -12.8 82.25 Q-13.7 83.95 -13.1 86.55 L-13.0 86.85 -13.0 87.75 Q-13.2 88.35 -13.8 88.65 L-13.85 88.65" fill="#ad7a3f" fill-rule="evenodd" stroke="none"/>
    <path d="M-10.9 40.9 L-10.85 41.3 Q-9.8 43.0 -11.0 44.75 L-11.3 45.35 -13.4 52.25 -14.2 55.65 -15.5 62.55 -15.7 64.05 -16.1 67.45 -16.1 67.6 -17.45 67.65 Q-19.45 60.5 -17.5 53.5 -15.6 46.45 -12.25 40.4 L-10.7 40.35 -10.9 40.9 M-17.35 79.45 L-16.7 79.9 -16.85 82.1 -17.4 88.75 -18.1 88.65 -19.45 88.05 -19.5 88.0 -19.6 87.95 Q-20.15 85.6 -19.55 83.25 -18.95 80.9 -19.0 78.65 L-18.85 78.75 -18.55 78.85 -17.35 79.45" fill="#edcdb6" fill-rule="evenodd" stroke="none"/>
    <path d="M-17.45 72.7 Q-18.1 72.25 -18.25 71.0 -18.35 70.0 -17.95 69.25 L-14.5 68.9 Q-14.15 69.45 -14.3 70.45 -14.4 71.9 -15.6 72.8 L-17.45 72.7 M-16.6 78.75 L-16.7 78.75 Q-17.0 78.5 -17.3 78.35 L-18.35 77.5 -18.55 77.35 -18.55 76.05 Q-18.05 74.5 -16.6 74.25 L-16.55 74.25 -15.9 74.45 -15.65 74.5 -15.4 74.55 Q-14.65 74.95 -14.7 76.3 -14.75 77.95 -16.3 78.65 L-16.6 78.75" fill="#999999" fill-rule="evenodd" stroke="none"/>
    <path d="M-24.55 96.5 Q-25.3 98.0 -24.95 99.65 L-24.7 100.05 Q-23.2 101.05 -21.7 100.05 L-21.65 99.95 -21.2 99.65 -20.15 98.3 Q-19.3 97.0 -19.7 95.45 -20.05 93.55 -22.15 93.95 -23.7 94.85 -24.55 96.5 M-24.4 95.9 Q-23.05 92.55 -20.3 89.8 L-13.15 90.45 Q-11.75 99.45 -11.6 108.25 -11.95 108.7 -12.5 108.65 -14.4 103.75 -18.9 103.3 L-27.8 102.45 Q-25.9 99.25 -24.4 95.9 M-13.4 93.75 Q-13.55 92.55 -14.5 92.15 -17.05 94.55 -15.85 98.25 -15.5 99.2 -14.4 99.15 -12.4 97.1 -13.4 93.75" fill="#333366" fill-rule="evenodd" stroke="none"/>
    <path d="M-24.55 96.5 Q-23.7 94.85 -22.15 93.95 -20.05 93.55 -19.7 95.45 -19.3 97.0 -20.15 98.3 L-21.2 99.65 -21.65 99.95 -21.7 100.05 Q-23.2 101.05 -24.7 100.05 L-24.95 99.65 Q-25.3 98.0 -24.55 96.5 M-24.65 106.9 L-24.3 106.4 Q-23.4 105.1 -24.1 103.85 L-18.95 104.3 Q-15.7 104.45 -14.1 107.8 -13.5 108.8 -14.1 109.6 -15.85 109.0 -17.3 107.8 L-24.65 106.9 M-28.45 104.05 L-28.6 104.3 Q-29.15 105.35 -28.6 106.3 L-28.4 106.65 -30.65 106.6 Q-30.4 104.45 -28.75 104.15 L-28.45 104.05 M-31.15 108.25 L-31.4 108.7 Q-31.75 109.6 -31.15 110.3 -30.1 111.65 -28.25 111.55 L-27.0 111.35 Q-24.8 110.35 -26.05 108.35 L-20.45 108.65 Q-17.75 108.8 -15.65 110.55 -18.25 113.3 -22.1 113.75 -26.05 114.2 -29.9 113.6 -32.15 112.85 -34.15 111.7 -33.25 109.05 -31.15 108.25 M-15.25 96.45 Q-15.5 94.4 -14.45 93.4 L-13.8 95.75 Q-13.75 97.05 -14.35 98.0 -15.2 97.6 -15.25 96.45" fill="#336699" fill-rule="evenodd" stroke="none"/>
    <path d="M-24.1 103.85 Q-23.4 105.1 -24.3 106.4 L-24.65 106.9 -24.7 106.9 -26.4 106.75 -28.1 106.65 -28.4 106.65 -28.6 106.3 Q-29.15 105.35 -28.6 104.3 L-28.45 104.05 -25.3 103.7 -24.1 103.85 M-31.15 108.25 L-28.45 108.05 -26.35 108.25 -26.05 108.35 Q-24.8 110.35 -27.0 111.35 L-28.25 111.55 Q-30.1 111.65 -31.15 110.3 -31.75 109.6 -31.4 108.7 L-31.15 108.25 M-13.4 93.75 Q-12.4 97.1 -14.4 99.15 -15.5 99.2 -15.85 98.25 -17.05 94.55 -14.5 92.15 -13.55 92.55 -13.4 93.75 M-15.25 96.45 Q-15.2 97.6 -14.35 98.0 -13.75 97.05 -13.8 95.75 L-14.45 93.4 Q-15.5 94.4 -15.25 96.45" fill="#9999ff" fill-rule="evenodd" stroke="none"/>
  </g>
</svg>
