<?xml version="1.0" encoding="UTF-8" standalone="no"?>
<svg xmlns:xlink="http://www.w3.org/1999/xlink" height="127.25px" width="51.8px" xmlns="http://www.w3.org/2000/svg">
  <g transform="matrix(1.0, 0.0, 0.0, 1.0, 8.45, 16.45)">
    <path d="M7.1 -11.4 Q12.3 -3.7 14.05 5.35 14.9 6.35 16.0 6.6 18.1 10.25 19.1 14.75 20.1 19.2 18.0 23.35 L18.5 28.5 Q21.55 28.75 23.35 31.2 L23.8 33.55 24.15 34.25 Q24.8 35.9 24.6 37.7 24.5 39.0 23.85 40.15 L23.5 40.6 22.8 41.4 22.45 42.9 Q21.85 43.8 20.85 44.15 23.05 51.0 23.4 58.6 L24.0 73.9 Q25.3 80.0 27.8 85.7 33.75 93.7 38.25 102.2 41.85 104.15 43.35 107.95 43.5 109.7 42.55 110.6 L33.55 110.8 Q28.8 110.8 24.9 109.2 22.15 108.95 21.0 106.55 19.8 104.15 16.9 104.35 15.85 101.15 16.75 97.75 17.9 93.3 17.8 88.3 17.05 86.75 17.35 84.95 L17.65 81.4 Q16.2 74.3 12.75 68.1 9.2 61.9 6.8 55.2 6.8 49.3 8.2 44.05 5.95 42.7 4.4 41.0 4.4 39.05 5.6 37.6 6.75 36.1 5.55 34.2 L2.35 25.1 Q0.7 23.75 -0.05 21.65 -0.75 19.55 -1.6 17.6 L-0.95 15.2 Q-3.0 8.5 -6.3 2.35 -9.6 -3.9 -7.85 -11.6 -7.2 -14.45 -4.5 -15.65 L2.1 -15.85 Q5.4 -14.5 7.1 -11.4 M14.4 7.5 Q14.0 7.15 13.45 7.1 13.15 6.1 12.5 5.4 L12.6 5.8 12.45 5.8 10.8 6.35 10.95 6.1 11.6 4.45 11.7 3.55 11.65 2.1 10.95 -0.25 10.4 -1.45 10.35 -1.8 7.8 -7.25 Q4.4 -13.75 -3.05 -15.05 -4.95 -14.3 -6.1 -12.6 -8.1 -7.5 -6.45 -3.1 -4.9 1.2 -2.55 5.45 -0.2 9.65 0.15 14.5 L0.85 14.1 Q0.25 15.1 0.45 16.1 0.0 16.6 -0.3 17.35 L1.9 23.2 2.55 22.8 2.7 23.0 3.1 23.45 4.45 26.5 4.8 27.65 Q4.8 28.3 5.1 29.0 L5.6 29.65 5.5 29.65 6.75 35.2 9.45 32.8 Q11.7 29.3 16.1 28.85 L15.55 27.4 15.3 27.0 16.5 26.9 16.8 26.8 17.25 27.4 Q17.55 26.7 17.35 25.6 L16.65 22.45 17.7 21.2 Q18.2 14.7 15.45 9.1 L15.4 9.0 Q15.0 8.0 14.4 7.5 M3.75 24.3 L3.75 23.95 Q7.0 21.6 10.7 20.3 L10.9 20.2 11.25 20.6 Q10.8 21.7 9.25 22.0 6.45 22.9 3.9 24.25 L3.75 24.3 M21.5 41.3 L21.5 41.2 Q22.4 40.75 22.7 39.65 L22.95 39.05 Q23.6 37.85 23.5 36.55 23.35 34.75 22.6 33.1 22.3 32.5 21.7 32.45 L22.0 33.0 21.55 32.3 21.55 31.8 Q20.3 29.5 17.5 30.2 12.75 30.25 9.7 33.7 L9.4 34.15 7.65 36.35 Q6.25 38.35 5.4 40.45 L5.1 41.1 6.15 41.7 6.6 41.9 Q8.0 42.55 9.55 42.9 10.2 43.55 10.95 44.05 12.7 45.1 14.85 44.5 17.7 43.6 20.5 43.25 L20.55 43.25 20.65 43.25 Q21.75 42.8 21.75 41.95 L21.55 41.3 21.5 41.3 M10.7 51.9 L8.55 51.9 Q7.35 54.55 9.0 57.2 L8.95 57.35 9.1 58.4 Q9.2 59.0 9.7 59.4 10.3 60.9 11.4 62.05 L12.1 61.8 12.15 61.8 12.75 61.5 14.5 60.7 15.0 60.5 19.1 58.25 21.6 56.7 20.85 56.75 21.2 56.6 21.55 56.1 21.4 55.5 21.7 55.5 21.55 53.7 18.5 52.85 16.75 52.55 14.8 52.25 13.7 52.15 11.3 51.95 10.7 51.9 M9.1 44.65 L8.3 50.65 17.25 51.8 21.3 52.45 21.0 49.1 Q21.2 45.1 18.9 45.0 L13.75 45.55 Q10.8 46.2 9.1 44.65 M15.2 62.3 L13.1 63.55 12.85 63.65 12.6 63.8 15.1 69.2 17.3 74.7 17.8 75.9 20.9 75.9 21.0 75.9 23.3 75.9 21.9 58.8 Q18.45 60.35 15.2 62.3 M18.85 77.05 L18.1 77.15 Q17.9 78.4 18.6 79.4 L18.75 79.4 18.7 79.4 Q18.1 79.75 18.45 80.35 L18.55 80.45 18.7 80.5 18.7 80.9 18.7 80.95 18.55 82.4 Q18.3 83.45 18.85 84.4 L22.2 83.9 25.3 83.4 Q24.85 81.6 24.0 80.0 L23.1 79.9 23.8 80.0 23.95 79.6 Q24.0 79.0 23.65 78.85 L23.4 77.35 22.5 77.1 20.6 76.85 20.5 76.85 18.85 77.05 M27.45 100.45 L35.25 100.0 Q32.5 94.3 28.2 89.35 L26.3 85.25 Q22.6 85.3 19.35 86.15 L18.75 92.2 18.25 94.6 Q17.3 98.8 17.55 103.25 L19.7 103.45 Q20.9 103.5 21.6 104.5 22.65 101.4 25.05 100.7 25.2 100.55 25.45 100.55 L26.85 100.4 27.25 100.45 27.4 100.45 27.45 100.45 M28.35 101.5 L27.85 101.5 Q25.8 101.5 24.25 102.55 L23.65 103.3 Q22.8 104.7 23.35 106.5 L23.9 106.5 Q25.4 102.95 29.25 102.7 L36.75 102.55 Q36.2 101.2 34.6 101.4 L31.75 101.3 28.35 101.5 M27.4 104.7 L25.8 105.3 Q24.8 106.55 24.9 108.0 28.95 109.55 33.45 109.3 38.0 109.1 42.45 109.25 42.25 108.05 41.55 107.1 39.15 102.9 34.2 103.75 L32.2 103.75 Q29.65 103.85 27.4 104.7" fill="#000000" fill-rule="evenodd" stroke="none"/>
    <path d="M10.8 6.35 L12.45 5.8 12.6 5.8 12.5 5.4 Q13.15 6.1 13.45 7.1 14.0 7.15 14.4 7.5 L14.7 8.0 14.7 8.05 14.8 8.05 14.85 8.1 14.85 8.15 14.85 8.3 14.9 8.35 15.4 9.0 15.45 9.1 Q18.2 14.7 17.7 21.2 L16.65 22.45 17.35 25.6 Q17.55 26.7 17.25 27.4 L16.8 26.8 16.5 26.9 15.3 27.0 Q10.1 27.55 5.6 29.65 L5.1 29.0 Q4.8 28.3 4.8 27.65 L4.45 26.5 3.1 23.45 2.7 23.0 2.55 22.8 Q6.45 20.45 10.4 18.8 9.8 15.5 8.1 12.65 5.6 13.0 3.2 14.0 1.45 14.65 0.45 16.1 0.25 15.1 0.85 14.1 4.15 12.3 7.75 11.45 7.15 10.25 7.4 8.65 8.95 7.15 10.8 6.35 M2.55 2.3 Q0.5 1.2 0.55 -1.25 L0.45 -2.15 Q-0.05 -4.25 -1.25 -5.95 -2.6 -7.8 -1.25 -9.5 L-1.05 -9.55 -0.3 -9.7 Q2.2 -9.4 3.3 -6.9 5.2 -3.05 4.35 1.1 L4.0 1.8 3.75 1.85 3.25 2.15 3.15 2.3 3.0 2.3 2.55 2.3 M10.6 7.7 Q9.5 8.1 8.65 8.75 8.95 12.2 10.6 15.35 11.55 17.15 11.95 19.3 12.4 21.4 14.2 22.7 L14.8 22.8 16.5 21.3 Q17.3 20.3 17.1 19.0 L16.5 15.65 16.0 13.9 14.55 10.55 Q14.0 9.5 13.1 8.6 L12.6 8.3 Q11.6 7.85 10.6 7.7 M3.75 24.3 L3.9 24.25 Q6.45 22.9 9.25 22.0 10.8 21.7 11.25 20.6 L10.9 20.2 10.7 20.3 Q7.0 21.6 3.75 23.95 L3.75 24.3 M11.8 22.5 Q8.3 22.8 5.2 24.8 L5.35 25.4 5.5 25.8 6.0 28.15 Q10.95 26.65 16.05 25.75 L15.8 24.25 Q13.7 24.3 11.95 23.05 L11.8 22.5 M10.7 51.9 L10.6 52.1 Q10.15 53.1 10.5 54.05 10.45 54.7 10.7 55.4 11.1 56.5 11.95 56.75 L9.1 57.25 9.0 57.2 Q7.35 54.55 8.55 51.9 L10.7 51.9 M13.95 56.15 Q14.25 55.55 14.2 54.8 L14.1 53.35 13.8 52.25 13.8 52.2 13.9 52.15 14.8 52.25 16.75 52.55 18.5 52.85 18.7 53.7 Q18.6 55.0 17.8 55.9 L14.65 56.35 14.25 56.4 14.2 56.4 13.95 56.15 M19.1 58.25 L15.0 60.5 14.55 60.35 14.55 59.8 Q14.4 57.95 13.05 57.5 L18.55 56.9 18.7 56.95 19.05 57.55 19.1 58.25 M12.1 61.8 L11.4 62.05 Q10.3 60.9 9.7 59.4 L9.5 58.85 11.1 57.8 11.25 57.7 Q9.9 59.05 11.1 60.95 L12.1 61.8 M18.85 77.05 Q18.5 77.4 18.5 78.05 18.5 78.8 19.2 79.15 L20.25 79.25 20.8 78.4 Q21.0 77.4 20.55 76.9 L20.6 76.85 22.5 77.1 23.05 78.05 23.1 78.95 22.9 79.0 20.85 79.3 20.6 79.3 20.25 79.4 19.3 79.4 18.75 79.4 18.6 79.4 Q17.9 78.4 18.1 77.15 L18.85 77.05 M18.7 80.5 L18.6 80.35 19.6 80.15 19.1 80.3 18.7 80.9 18.7 80.5 M21.1 80.15 L21.45 80.1 Q23.9 80.5 23.2 82.85 23.0 83.45 22.6 83.7 L22.6 83.8 22.2 83.9 18.85 84.4 Q18.3 83.45 18.55 82.4 L18.8 82.75 Q19.4 83.4 20.0 83.35 L20.85 82.7 21.15 82.1 Q21.55 80.95 21.1 80.15" fill="#666633" fill-rule="evenodd" stroke="none"/>
    <path d="M14.4 7.5 Q15.0 8.0 15.4 9.0 L14.9 8.35 14.85 8.3 14.85 8.15 14.85 8.1 14.8 8.05 14.7 8.05 14.7 8.0 14.4 7.5 M15.3 27.0 L15.55 27.4 16.1 28.85 Q11.7 29.3 9.45 32.8 L6.75 35.2 5.5 29.65 5.6 29.65 Q10.1 27.55 15.3 27.0 M2.55 22.8 L1.9 23.2 -0.3 17.35 Q0.0 16.6 0.45 16.1 1.45 14.65 3.2 14.0 5.6 13.0 8.1 12.65 9.8 15.5 10.4 18.8 6.45 20.45 2.55 22.8 M0.85 14.1 L0.15 14.5 Q-0.2 9.65 -2.55 5.45 -4.9 1.2 -6.45 -3.1 -8.1 -7.5 -6.1 -12.6 -4.95 -14.3 -3.05 -15.05 4.4 -13.75 7.8 -7.25 L10.35 -1.8 10.4 -1.45 10.95 -0.25 11.65 2.1 11.7 3.55 11.6 4.45 10.95 6.1 10.8 6.35 Q8.95 7.15 7.4 8.65 7.15 10.25 7.75 11.45 4.15 12.3 0.85 14.1 M10.6 7.7 Q11.6 7.85 12.6 8.3 L13.1 8.6 Q14.0 9.5 14.55 10.55 L16.0 13.9 16.5 15.65 17.1 19.0 Q17.3 20.3 16.5 21.3 L14.8 22.8 14.2 22.7 Q12.4 21.4 11.95 19.3 11.55 17.15 10.6 15.35 8.95 12.2 8.65 8.75 9.5 8.1 10.6 7.7 M2.55 2.3 L3.0 2.3 3.15 2.3 3.25 2.15 3.75 1.85 4.0 1.8 4.35 1.1 Q5.2 -3.05 3.3 -6.9 2.2 -9.4 -0.3 -9.7 L-1.05 -9.55 -1.25 -9.5 Q-2.6 -7.8 -1.25 -5.95 -0.05 -4.25 0.45 -2.15 L0.55 -1.25 Q0.5 1.2 2.55 2.3 M11.8 22.5 L11.95 23.05 Q13.7 24.3 15.8 24.25 L16.05 25.75 Q10.95 26.65 6.0 28.15 L5.5 25.8 5.35 25.4 5.2 24.8 Q8.3 22.8 11.8 22.5 M9.0 57.2 L9.1 57.25 11.95 56.75 13.65 56.5 13.7 56.5 13.95 56.15 14.2 56.4 14.25 56.4 14.65 56.35 17.8 55.9 Q18.6 55.0 18.7 53.7 L18.5 52.85 21.55 53.7 21.7 55.5 21.4 55.5 21.55 56.1 21.2 56.6 20.85 56.75 21.6 56.7 19.1 58.25 19.05 57.55 18.7 56.95 18.55 56.9 13.05 57.5 13.0 57.5 11.25 57.7 11.1 57.8 9.5 58.85 9.7 59.4 Q9.2 59.0 9.1 58.4 L8.95 57.35 9.0 57.2 M13.8 52.25 L13.7 52.15 14.8 52.25 13.9 52.15 13.8 52.2 13.8 52.25 M9.1 44.65 Q10.8 46.2 13.75 45.55 L18.9 45.0 Q21.2 45.1 21.0 49.1 L21.3 52.45 17.25 51.8 8.3 50.65 9.1 44.65 M15.0 60.5 L14.5 60.7 14.55 60.35 15.0 60.5 M18.75 79.4 L19.3 79.4 20.25 79.4 20.6 79.3 20.85 79.3 22.9 79.0 23.1 78.95 23.05 78.05 22.5 77.1 23.4 77.35 23.65 78.85 Q24.0 79.0 23.95 79.6 L23.8 80.0 23.1 79.9 24.0 80.0 Q24.85 81.6 25.3 83.4 L22.2 83.9 22.6 83.8 22.6 83.7 Q23.0 83.45 23.2 82.85 23.9 80.5 21.45 80.1 L21.1 80.15 21.0 80.0 20.9 80.0 19.6 80.15 18.6 80.35 18.7 80.5 18.55 80.45 18.45 80.35 Q18.1 79.75 18.7 79.4 L18.75 79.4 M20.6 76.85 L20.55 76.9 20.5 76.85 20.6 76.85" fill="#333300" fill-rule="evenodd" stroke="none"/>
    <path d="M14.6 35.15 L14.3 35.9 Q14.05 36.65 14.5 37.4 14.65 37.7 15.1 37.75 16.35 37.85 17.35 36.95 L17.65 36.85 18.8 35.7 Q19.05 35.2 18.9 34.75 18.6 33.7 17.6 33.5 L17.7 33.5 17.8 33.5 18.75 33.35 Q20.95 33.3 22.05 35.35 L22.1 35.7 Q22.35 36.95 22.2 38.4 L21.9 38.9 Q20.85 40.6 18.85 41.2 L16.0 41.15 Q14.55 41.0 14.05 39.4 13.3 37.3 14.3 35.65 L14.6 35.15 M21.55 32.3 L21.55 32.7 Q17.55 31.5 14.4 33.95 12.75 35.6 12.4 37.7 12.5 41.0 15.45 42.35 18.8 43.0 21.5 41.3 L21.55 41.3 21.75 41.95 Q21.75 42.8 20.65 43.25 L20.55 43.25 20.5 43.25 Q17.7 43.6 14.85 44.5 12.7 45.1 10.95 44.05 L10.95 41.05 Q11.0 38.6 10.0 36.4 L9.0 34.55 9.4 34.15 9.7 33.7 Q12.75 30.25 17.5 30.2 20.3 29.5 21.55 31.8 L21.55 32.3" fill="#666666" fill-rule="evenodd" stroke="none"/>
    <path d="M17.6 33.5 Q16.2 33.8 15.2 34.6 L15.1 34.7 14.9 34.8 14.85 34.9 14.65 35.1 14.6 35.15 14.3 35.65 Q13.3 37.3 14.05 39.4 14.55 41.0 16.0 41.15 L18.85 41.2 Q20.85 40.6 21.9 38.9 L22.2 38.4 Q22.35 36.95 22.1 35.7 L22.05 35.35 Q20.95 33.3 18.75 33.35 L17.8 33.5 17.7 33.5 17.6 33.5 M21.5 41.3 Q18.8 43.0 15.45 42.35 12.5 41.0 12.4 37.7 12.75 35.6 14.4 33.95 17.55 31.5 21.55 32.7 L21.55 32.3 22.0 33.0 21.7 32.45 Q22.3 32.5 22.6 33.1 23.35 34.75 23.5 36.55 23.6 37.85 22.95 39.05 L22.7 39.65 Q22.4 40.75 21.5 41.2 L21.5 41.3 M9.4 34.15 L9.0 34.55 10.0 36.4 Q11.0 38.6 10.95 41.05 L10.95 44.05 Q10.2 43.55 9.55 42.9 8.0 42.55 6.6 41.9 L8.1 41.65 8.55 40.9 8.7 40.6 Q9.4 39.5 9.3 38.15 9.2 36.4 7.65 36.35 L9.4 34.15 M20.5 43.25 L20.55 43.25 20.5 43.25 M11.95 56.75 Q11.1 56.5 10.7 55.4 10.45 54.7 10.5 54.05 10.15 53.1 10.6 52.1 L10.7 51.9 11.3 51.95 13.7 52.15 13.8 52.25 14.1 53.35 14.2 54.8 Q14.25 55.55 13.95 56.15 L13.7 56.5 13.65 56.5 11.95 56.75 M14.5 60.7 L12.75 61.5 12.15 61.8 12.1 61.8 11.1 60.95 Q9.9 59.05 11.25 57.7 L13.0 57.5 13.05 57.5 Q14.4 57.95 14.55 59.8 L14.55 60.35 14.5 60.7 M20.55 76.9 Q21.0 77.4 20.8 78.4 L20.25 79.25 19.2 79.15 Q18.5 78.8 18.5 78.05 18.5 77.4 18.85 77.05 L20.5 76.85 20.55 76.9 M19.6 80.15 L20.9 80.0 21.0 80.0 21.1 80.15 Q21.55 80.95 21.15 82.1 L20.85 82.7 20.0 83.35 Q19.4 83.4 18.8 82.75 L18.55 82.4 18.7 80.95 18.7 80.9 19.1 80.3 19.6 80.15" fill="#999999" fill-rule="evenodd" stroke="none"/>
    <path d="M17.6 33.5 Q18.6 33.7 18.9 34.75 19.05 35.2 18.8 35.7 L17.65 36.85 17.35 36.95 Q16.35 37.85 15.1 37.75 14.65 37.7 14.5 37.4 14.05 36.65 14.3 35.9 L14.6 35.15 14.65 35.1 14.85 34.9 14.9 34.8 15.1 34.7 15.2 34.6 Q16.2 33.8 17.6 33.5 M7.65 36.35 Q9.2 36.4 9.3 38.15 9.4 39.5 8.7 40.6 L8.55 40.9 8.1 41.65 6.6 41.9 6.15 41.7 5.1 41.1 5.4 40.45 Q6.25 38.35 7.65 36.35" fill="#cccccc" fill-rule="evenodd" stroke="none"/>
    <path d="M15.2 62.3 Q18.45 60.35 21.9 58.8 L23.3 75.9 21.0 75.9 20.8 74.35 Q20.25 70.85 20.1 67.3 L20.05 61.7 Q18.15 62.05 16.15 62.9 L15.5 63.0 15.2 62.3" fill="#ad7a3f" fill-rule="evenodd" stroke="none"/>
    <path d="M15.1 69.2 L12.6 63.8 12.85 63.65 13.1 63.55 15.2 62.3 15.5 63.0 Q16.7 65.9 18.3 68.5 L19.2 70.25 Q20.3 73.0 20.9 75.9 L17.8 75.9 17.3 74.7 17.0 73.85 Q16.35 71.4 15.1 69.2" fill="#edcdb6" fill-rule="evenodd" stroke="none"/>
    <path d="M21.0 75.9 L20.9 75.9 Q20.3 73.0 19.2 70.25 L18.3 68.5 Q16.7 65.9 15.5 63.0 L16.15 62.9 Q18.15 62.05 20.05 61.7 L20.1 67.3 Q20.25 70.85 20.8 74.35 L21.0 75.9 M17.3 74.7 L15.1 69.2 Q16.35 71.4 17.0 73.85 L17.3 74.7" fill="#e3b18b" fill-rule="evenodd" stroke="none"/>
    <path d="M22.05 90.4 Q21.6 89.4 20.65 89.5 19.65 90.8 19.35 92.3 19.0 93.8 19.2 95.5 19.7 96.35 20.65 96.3 22.9 93.95 22.05 90.4 M25.05 100.7 Q22.65 101.4 21.6 104.5 20.9 103.5 19.7 103.45 L17.55 103.25 Q17.3 98.8 18.25 94.6 L18.75 92.2 19.35 86.15 Q22.6 85.3 26.3 85.25 L28.2 89.35 Q32.5 94.3 35.25 100.0 L27.45 100.45 27.75 99.8 Q28.05 99.0 27.7 98.3 L26.6 95.8 Q25.65 93.85 23.6 93.85 21.8 94.85 22.65 96.8 L24.15 99.8 25.05 100.7" fill="#333366" fill-rule="evenodd" stroke="none"/>
    <path d="M22.05 90.4 Q22.9 93.95 20.65 96.3 19.7 96.35 19.2 95.5 19.0 93.8 19.35 92.3 19.65 90.8 20.65 89.5 21.6 89.4 22.05 90.4 M20.25 95.1 L20.6 95.1 Q21.6 93.6 21.5 91.55 L20.95 90.5 Q19.65 92.35 20.25 95.1 M23.65 103.3 L24.25 102.55 Q25.8 101.5 27.85 101.5 L28.35 101.5 28.4 102.7 28.4 102.8 Q26.25 103.2 24.9 104.75 L23.95 103.85 23.65 103.3 M32.2 103.75 Q33.0 104.35 33.5 105.55 33.9 106.55 33.2 107.4 L32.35 108.1 Q30.0 108.5 28.15 107.45 26.9 106.75 27.2 105.25 L27.4 104.7 Q29.65 103.85 32.2 103.75" fill="#9999ff" fill-rule="evenodd" stroke="none"/>
    <path d="M27.45 100.45 L27.4 100.45 27.25 100.45 26.85 100.4 25.45 100.55 Q25.2 100.55 25.05 100.7 L24.15 99.8 22.65 96.8 Q21.8 94.85 23.6 93.85 25.65 93.85 26.6 95.8 L27.7 98.3 Q28.05 99.0 27.75 99.8 L27.45 100.45 M20.25 95.1 Q19.65 92.35 20.95 90.5 L21.5 91.55 Q21.6 93.6 20.6 95.1 L20.25 95.1 M23.65 103.3 L23.95 103.85 24.9 104.75 Q26.25 103.2 28.4 102.8 L28.4 102.7 28.35 101.5 31.75 101.3 34.6 101.4 Q36.2 101.2 36.75 102.55 L29.25 102.7 Q25.4 102.95 23.9 106.5 L23.35 106.5 Q22.8 104.7 23.65 103.3 M27.4 104.7 L27.2 105.25 Q26.9 106.75 28.15 107.45 30.0 108.5 32.35 108.1 L33.2 107.4 Q33.9 106.55 33.5 105.55 33.0 104.35 32.2 103.75 L34.2 103.75 Q39.15 102.9 41.55 107.1 42.25 108.05 42.45 109.25 38.0 109.1 33.45 109.3 28.95 109.55 24.9 108.0 24.8 106.55 25.8 105.3 L27.4 104.7" fill="#336699" fill-rule="evenodd" stroke="none"/>
  </g>
</svg>
