<?xml version="1.0" encoding="UTF-8" standalone="no"?>
<svg xmlns:xlink="http://www.w3.org/1999/xlink" height="78.1px" width="28.5px" xmlns="http://www.w3.org/2000/svg">
  <g transform="matrix(1.0, 0.0, 0.0, 1.0, 22.55, 6.05)">
    <path d="M-5.45 10.4 L-5.15 9.65 -4.7 7.7 Q-3.9 5.2 -2.45 3.0 L-1.85 2.25 -0.3 0.7 Q1.1 -0.6 2.85 -0.95 2.25 -0.1 2.55 1.3 2.75 2.3 2.35 3.25 0.9 7.2 -2.65 9.5 L-3.9 9.95 Q-4.75 10.15 -5.15 10.6 L-5.45 10.4 M-15.65 29.2 L-15.8 29.45 Q-16.4 30.55 -15.7 31.45 L-17.0 31.4 -17.65 31.6 -17.55 31.4 -17.1 29.5 -17.05 28.85 -17.85 28.7 Q-16.7 28.8 -15.65 29.2 M-8.65 70.95 L-11.05 70.5 -13.45 70.6 Q-14.65 71.25 -15.5 70.15 -13.5 69.0 -10.85 69.75 L-9.35 69.9 -8.95 70.65 -8.65 70.95" fill="#e3b18b" fill-rule="evenodd" stroke="none"/>
    <path d="M-5.15 10.6 Q-4.75 10.15 -3.9 9.95 L-2.65 9.5 Q0.9 7.2 2.35 3.25 2.75 2.3 2.55 1.3 2.25 -0.1 2.85 -0.95 L3.85 -1.1 4.05 -1.15 Q4.75 1.45 4.1 4.3 2.6 6.55 1.3 9.15 0.0 11.65 -2.95 12.45 L-3.25 12.15 -4.65 11.0 -5.15 10.6 M-15.7 31.45 Q-16.4 30.55 -15.8 29.45 L-15.65 29.2 Q-14.3 29.7 -13.1 30.65 -13.3 32.1 -14.6 31.7 L-15.7 31.45 M-5.35 61.1 Q-4.55 62.35 -4.9 64.05 -5.75 64.55 -6.2 63.6 -6.15 61.95 -5.35 61.1 M-9.35 69.9 Q-7.8 69.75 -6.85 68.05 -6.5 66.85 -7.85 65.85 -9.25 64.75 -6.85 64.95 L-5.2 66.6 -6.05 70.85 -6.45 70.9 -8.65 70.95 -8.95 70.65 -9.35 69.9" fill="#ad7a3f" fill-rule="evenodd" stroke="none"/>
    <path d="M2.85 -0.95 Q1.1 -0.6 -0.3 0.7 L-1.85 2.25 -2.45 3.0 Q-3.9 5.2 -4.7 7.7 L-5.15 9.65 -5.45 10.4 Q-5.6 10.25 -5.75 10.2 L-7.85 8.95 -5.95 2.4 -3.6 2.2 Q-2.75 1.8 -2.2 1.1 -1.1 -0.55 -1.15 -2.5 -1.25 -3.9 -2.15 -4.45 0.1 -5.3 2.8 -4.15 L4.05 -1.15 3.85 -1.1 2.85 -0.95 M-17.85 28.7 L-17.05 28.85 -17.1 29.5 -17.55 31.4 -17.65 31.6 -19.3 31.9 -18.85 28.65 -18.55 28.65 -17.85 28.7 M-19.35 60.95 Q-19.1 61.4 -18.3 61.45 -17.3 61.5 -17.1 60.5 -17.0 59.55 -17.6 59.2 L-17.35 59.25 Q-15.7 59.65 -14.3 59.25 L-13.6 59.85 Q-13.15 61.6 -13.45 63.3 L-17.15 62.85 Q-18.85 62.7 -19.35 60.95" fill="#edcdb6" fill-rule="evenodd" stroke="none"/>
    <path d="M-5.45 10.4 L-5.15 10.6 -4.65 11.0 -3.25 12.15 -2.95 12.45 Q0.0 11.65 1.3 9.15 2.6 6.55 4.1 4.3 4.75 1.45 4.05 -1.15 L2.8 -4.15 Q0.1 -5.3 -2.15 -4.45 -3.3 -4.0 -4.3 -3.05 L-4.7 -2.7 -5.85 2.1 -5.95 2.4 -7.85 8.95 -5.75 10.2 Q-5.6 10.25 -5.45 10.4 M5.95 2.85 Q3.85 9.15 -1.45 13.6 -3.6 17.4 -6.05 20.95 -5.5 22.25 -6.2 23.4 L-7.35 25.75 Q-9.1 26.8 -9.75 28.65 -10.35 30.5 -12.05 31.45 -12.1 32.25 -11.3 32.2 -10.5 32.2 -10.3 33.1 -10.7 36.35 -10.65 39.85 -10.6 43.3 -11.8 46.3 L-10.6 50.0 Q-10.05 51.95 -11.25 53.7 -10.15 55.9 -8.15 57.25 -6.1 58.6 -4.55 60.55 L-4.15 66.1 Q-4.05 68.85 -5.05 71.35 -7.0 72.45 -9.15 71.8 L-13.55 71.55 Q-15.25 72.15 -16.25 71.0 -17.3 69.9 -18.65 69.4 -20.35 67.55 -19.95 64.85 -19.65 62.1 -20.45 60.1 -19.65 57.55 -20.1 55.2 L-20.95 54.5 Q-21.8 49.45 -21.9 44.4 L-22.55 34.2 Q-21.9 32.35 -19.95 31.45 L-19.8 28.95 Q-19.8 27.75 -20.95 26.85 -20.35 22.8 -18.5 19.3 L-14.85 12.3 -12.8 10.05 Q-11.65 9.0 -9.95 9.4 L-8.8 7.7 Q-7.8 4.1 -7.2 0.1 -6.6 -4.0 -2.25 -5.2 -0.55 -6.3 1.6 -5.95 3.7 -5.65 4.9 -4.2 5.95 -2.75 5.8 -0.85 5.6 1.1 5.95 2.85 M-5.5 12.05 Q-7.15 10.65 -9.0 9.8 L-9.35 10.5 -9.25 10.55 -9.35 10.5 Q-10.15 10.55 -10.45 11.15 L-12.0 11.0 -12.85 12.05 -13.05 12.3 -13.2 12.5 -13.35 12.65 -15.4 15.95 -16.45 18.15 -16.4 18.2 -16.65 18.45 -16.9 19.05 Q-18.6 21.4 -19.35 24.0 L-19.75 26.0 -15.0 27.75 -14.95 27.85 -14.35 28.25 -13.65 28.3 Q-13.65 28.8 -13.05 29.05 -12.35 29.25 -11.85 29.6 -10.9 29.6 -10.6 28.5 -10.4 27.5 -9.8 26.75 -8.95 26.25 -8.7 25.6 L-8.45 25.55 Q-7.35 24.1 -7.1 22.3 L-7.3 22.05 -6.9 21.35 -6.65 20.5 -6.6 20.05 Q-4.45 17.25 -3.4 14.0 L-5.5 12.05 M-14.5 20.05 L-15.0 19.8 -13.75 20.35 -14.5 20.05 M-15.65 29.2 Q-16.7 28.8 -17.85 28.7 L-18.55 28.65 -18.85 28.65 -19.3 31.9 -17.65 31.6 -17.0 31.4 -15.7 31.45 -14.6 31.7 Q-13.3 32.1 -13.1 30.65 -14.3 29.7 -15.65 29.2 M-9.1 68.7 L-7.95 68.05 Q-7.8 67.05 -8.5 66.35 -9.3 65.6 -9.45 64.65 -8.65 63.8 -7.3 63.8 -7.0 62.2 -7.0 60.6 -7.0 58.95 -8.95 58.4 -11.25 56.35 -11.9 53.8 L-11.85 53.85 -11.7 53.4 Q-11.65 52.95 -11.75 52.7 -10.85 52.2 -11.5 50.9 L-11.65 50.9 Q-11.6 50.0 -12.0 49.15 L-12.05 49.05 -12.05 48.9 -12.35 48.2 -12.4 47.8 -12.5 47.5 -12.65 46.55 -12.55 46.3 -12.65 46.15 -12.7 45.6 -12.8 45.9 Q-12.6 45.35 -12.7 44.85 L-12.7 44.8 -12.6 44.85 Q-11.9 42.3 -12.05 39.65 -12.25 36.95 -11.55 34.45 L-11.9 33.6 Q-13.7 32.8 -15.45 32.65 -18.35 32.4 -21.25 33.95 -20.55 39.4 -20.4 44.85 L-19.9 44.65 -20.4 44.85 -20.45 46.1 -20.5 46.15 -20.6 47.45 Q-20.8 48.0 -20.4 48.3 L-20.45 48.55 -20.5 48.85 Q-20.65 49.3 -20.45 49.6 L-20.45 49.65 -20.4 49.75 -20.35 49.6 Q-20.65 52.05 -19.85 54.35 L-19.7 54.35 -19.55 54.85 -19.3 55.1 -18.9 55.2 Q-19.3 55.45 -19.1 56.0 -18.8 56.95 -18.8 57.75 -17.6 58.6 -16.0 58.4 L-13.2 58.7 Q-11.7 61.45 -12.7 64.3 L-18.6 63.5 Q-19.3 65.5 -18.8 67.7 -17.9 69.65 -15.65 69.2 -14.0 67.8 -11.85 68.6 L-9.1 68.7 M-5.35 61.1 Q-6.15 61.95 -6.2 63.6 -5.75 64.55 -4.9 64.05 -4.55 62.35 -5.35 61.1 M-17.6 59.2 Q-19.05 58.9 -19.45 60.55 L-19.35 60.95 Q-18.85 62.7 -17.15 62.85 L-13.45 63.3 Q-13.15 61.6 -13.6 59.85 L-14.3 59.25 Q-15.7 59.65 -17.35 59.25 L-17.6 59.2 M-9.35 69.9 L-10.85 69.75 Q-13.5 69.0 -15.5 70.15 -14.65 71.25 -13.45 70.6 L-11.05 70.5 -8.65 70.95 -6.45 70.9 -6.05 70.85 -5.2 66.6 -6.85 64.95 Q-9.25 64.75 -7.85 65.85 -6.5 66.85 -6.85 68.05 -7.8 69.75 -9.35 69.9" fill="#000000" fill-rule="evenodd" stroke="none"/>
    <path d="M-2.15 -4.45 Q-1.25 -3.9 -1.15 -2.5 -1.1 -0.55 -2.2 1.1 -2.75 1.8 -3.6 2.2 L-5.95 2.4 -5.85 2.1 -4.7 -2.7 -4.3 -3.05 Q-3.3 -4.0 -2.15 -4.45 M-19.35 60.95 L-19.45 60.55 Q-19.05 58.9 -17.6 59.2 -17.0 59.55 -17.1 60.5 -17.3 61.5 -18.3 61.45 -19.1 61.4 -19.35 60.95" fill="#ffffff" fill-rule="evenodd" stroke="none"/>
    <path d="M-9.25 10.55 L-9.35 10.5 -9.0 9.8 Q-7.15 10.65 -5.5 12.05 -5.4 12.65 -5.65 13.45 L-5.9 13.95 -6.8 14.0 -6.85 13.4 Q-7.6 11.65 -9.25 10.55 M-15.0 27.75 L-19.75 26.0 -19.35 24.0 Q-18.35 24.85 -16.8 24.35 -15.6 23.85 -14.7 22.9 -13.45 21.65 -14.4 20.15 L-14.5 20.05 -13.75 20.35 -11.55 21.4 Q-12.35 24.55 -14.4 27.45 L-14.7 27.85 -15.0 27.75 M-16.4 18.2 L-16.45 18.15 -15.4 15.95 -15.8 16.75 Q-13.7 17.65 -11.6 16.4 L-10.5 15.65 Q-8.65 14.25 -9.85 12.4 L-9.85 12.35 -10.15 11.25 Q-9.3 11.65 -8.65 12.65 -7.25 14.7 -8.4 16.75 L-10.55 20.65 Q-12.6 20.15 -14.55 19.2 L-14.8 19.1 -16.0 18.45 -16.4 18.2" fill="#999999" fill-rule="evenodd" stroke="none"/>
    <path d="M-19.35 24.0 Q-18.6 21.4 -16.9 19.05 L-16.8 18.95 -15.05 19.75 -15.0 19.8 -14.5 20.05 -14.4 20.15 Q-13.45 21.65 -14.7 22.9 -15.6 23.85 -16.8 24.35 -18.35 24.85 -19.35 24.0 M-15.4 15.95 L-13.35 12.65 -13.2 12.5 -13.05 12.3 -12.85 12.05 -12.0 11.0 -10.45 11.15 -10.15 11.25 -9.85 12.35 -9.85 12.4 Q-8.65 14.25 -10.5 15.65 L-11.6 16.4 Q-13.7 17.65 -15.8 16.75 L-15.4 15.95" fill="#cccccc" fill-rule="evenodd" stroke="none"/>
    <path d="M-6.6 20.05 L-6.65 20.5 -6.9 21.35 -7.3 22.05 Q-8.15 21.3 -9.4 21.0 -11.0 22.75 -11.4 24.75 L-10.9 25.1 -10.7 25.2 Q-9.75 25.7 -8.7 25.6 -8.95 26.25 -9.8 26.75 L-9.75 26.7 Q-10.8 25.9 -12.2 25.75 -12.75 27.0 -13.65 28.2 L-13.65 28.3 -14.35 28.25 -14.95 27.85 -15.0 27.75 -14.7 27.85 -14.4 27.45 Q-12.35 24.55 -11.55 21.4 L-13.75 20.35 -15.0 19.8 -15.05 19.75 -16.8 18.95 -16.9 19.05 -16.65 18.45 -16.4 18.2 -16.0 18.45 -14.8 19.1 -14.55 19.2 Q-12.6 20.15 -10.55 20.65 L-8.4 16.75 Q-7.25 14.7 -8.65 12.65 -9.3 11.65 -10.15 11.25 L-10.45 11.15 Q-10.15 10.55 -9.35 10.5 L-9.25 10.55 Q-7.6 11.65 -6.85 13.4 L-6.8 14.0 Q-6.7 15.45 -7.45 16.7 L-9.0 19.75 Q-8.15 20.5 -7.05 20.6 L-6.6 20.05" fill="#333333" fill-rule="evenodd" stroke="none"/>
    <path d="M-5.5 12.05 L-3.4 14.0 Q-4.45 17.25 -6.6 20.05 L-7.05 20.6 Q-8.15 20.5 -9.0 19.75 L-7.45 16.7 Q-6.7 15.45 -6.8 14.0 L-5.9 13.95 -5.65 13.45 Q-5.4 12.65 -5.5 12.05 M-7.3 22.05 L-7.1 22.3 Q-7.35 24.1 -8.45 25.55 L-8.7 25.6 Q-9.75 25.7 -10.7 25.2 L-10.9 25.1 -11.4 24.75 Q-11.0 22.75 -9.4 21.0 -8.15 21.3 -7.3 22.05 M-9.8 26.75 Q-10.4 27.5 -10.6 28.5 -10.9 29.6 -11.85 29.6 -12.35 29.25 -13.05 29.05 -13.65 28.8 -13.65 28.3 L-13.65 28.2 Q-12.75 27.0 -12.2 25.75 -10.8 25.9 -9.75 26.7 L-9.8 26.75" fill="#666666" fill-rule="evenodd" stroke="none"/>
    <path d="M-15.45 32.65 Q-13.7 32.8 -11.9 33.6 L-11.55 34.45 Q-12.25 36.95 -12.05 39.65 -11.9 42.3 -12.6 44.85 L-12.7 44.8 -12.7 44.85 Q-12.6 45.35 -12.8 45.9 L-12.7 45.6 -12.65 46.15 -12.55 46.3 -12.65 46.55 -12.5 47.5 -12.4 47.8 -12.35 48.2 -12.05 48.9 -12.05 49.05 -12.0 49.15 Q-11.6 50.0 -11.65 50.9 L-11.5 50.9 Q-10.85 52.2 -11.75 52.7 -11.65 52.95 -11.7 53.4 L-11.85 53.85 -11.9 53.8 Q-11.25 56.35 -8.95 58.4 -7.0 58.95 -7.0 60.6 -7.0 62.2 -7.3 63.8 -8.65 63.8 -9.45 64.65 -9.3 65.6 -8.5 66.35 -7.8 67.05 -7.95 68.05 L-9.1 68.7 -9.25 68.55 Q-10.55 67.0 -10.6 65.1 -10.6 64.2 -10.0 63.5 -10.35 61.75 -10.3 59.85 L-10.55 59.0 -11.8 58.2 Q-13.55 58.0 -14.05 56.4 L-14.25 55.65 -14.35 54.75 -14.3 54.5 -14.95 54.55 -18.1 54.95 -18.6 55.0 -18.9 55.2 -19.3 55.1 -19.55 54.85 -19.7 54.35 -15.05 53.75 -15.8 50.8 -15.8 50.25 -20.35 49.6 -20.4 49.75 -20.45 49.65 -20.35 49.6 -20.45 49.6 Q-20.65 49.3 -20.5 48.85 L-20.45 48.55 -20.4 48.3 -20.35 48.35 -20.2 48.4 -16.8 47.85 -17.0 44.9 -17.5 44.95 Q-19.2 45.2 -20.45 46.1 L-20.4 44.85 -19.9 44.65 -16.5 44.05 -16.35 44.05 -16.2 44.05 -15.75 44.1 -15.85 41.1 -15.7 36.2 -15.65 34.95 -15.45 32.65 M-16.0 48.4 Q-17.1 48.55 -17.75 49.1 L-14.4 49.6 Q-14.8 48.9 -14.65 48.35 L-16.0 48.4" fill="#333366" fill-rule="evenodd" stroke="none"/>
    <path d="M-9.1 68.7 L-11.85 68.6 Q-14.0 67.8 -15.65 69.2 -17.9 69.65 -18.8 67.7 -19.3 65.5 -18.6 63.5 L-12.7 64.3 Q-11.7 61.45 -13.2 58.7 L-16.0 58.4 Q-17.6 58.6 -18.8 57.75 -18.8 56.95 -19.1 56.0 -19.3 55.45 -18.9 55.2 L-18.6 55.0 -18.1 54.95 -14.95 54.55 -14.3 54.5 -14.35 54.75 -14.25 55.65 -14.05 56.4 Q-13.55 58.0 -11.8 58.2 L-10.55 59.0 -10.3 59.85 Q-10.35 61.75 -10.0 63.5 -10.6 64.2 -10.6 65.1 -10.55 67.0 -9.25 68.55 L-9.1 68.7 M-19.7 54.35 L-19.85 54.35 Q-20.65 52.05 -20.35 49.6 L-15.8 50.25 -15.8 50.8 -15.05 53.75 -19.7 54.35 M-20.4 48.3 Q-20.8 48.0 -20.6 47.45 L-20.5 46.15 -20.45 46.1 Q-19.2 45.2 -17.5 44.95 L-17.0 44.9 -16.8 47.85 -20.2 48.4 -20.35 48.35 -20.4 48.3 M-19.9 44.65 L-20.4 44.85 Q-20.55 39.4 -21.25 33.95 -18.35 32.4 -15.45 32.65 L-15.65 34.95 -15.7 36.2 -15.85 41.1 -15.75 44.1 -16.2 44.05 -16.35 44.05 -16.5 44.05 -19.9 44.65 M-16.0 48.4 L-14.65 48.35 Q-14.8 48.9 -14.4 49.6 L-17.75 49.1 Q-17.1 48.55 -16.0 48.4" fill="#9999ff" fill-rule="evenodd" stroke="none"/>
    <path d="M-20.45 49.65 L-20.45 49.6 -20.35 49.6 -20.45 49.65" fill="#666633" fill-rule="evenodd" stroke="none"/>
  </g>
</svg>
