<?xml version="1.0" encoding="UTF-8" standalone="no"?>
<svg xmlns:xlink="http://www.w3.org/1999/xlink" height="52.85px" width="61.6px" xmlns="http://www.w3.org/2000/svg">
  <g transform="matrix(1.0, 0.0, 0.0, 1.0, 31.3, 26.4)">
    <path d="M-3.6 14.95 Q-4.55 14.85 -5.2 14.0 L-6.8 11.9 Q-8.35 9.45 -9.15 6.65 -9.9 7.25 -10.4 8.3 -10.8 9.3 -11.9 9.65 -13.25 9.95 -14.1 9.0 -15.45 7.5 -14.6 5.9 -14.1 4.85 -13.1 4.1 -12.2 3.3 -13.2 2.1 L-14.1 2.15 -15.05 2.1 Q-16.65 1.25 -16.0 -0.35 -15.35 -1.45 -14.3 -1.75 -13.25 -2.0 -12.9 -3.35 -11.85 -3.8 -12.15 -4.55 L-12.4 -6.15 Q-14.15 -7.4 -14.65 -9.25 -15.15 -11.15 -16.9 -12.4 -17.2 -13.3 -18.05 -13.75 L-19.65 -13.75 Q-20.35 -13.75 -20.55 -12.7 L-21.35 -8.85 Q-21.75 -6.8 -20.05 -5.35 L-19.3 -1.25 Q-18.85 0.75 -19.35 2.9 -18.7 4.6 -19.05 6.55 -19.35 8.45 -17.6 9.75 -16.85 12.95 -16.9 16.35 -18.9 19.65 -20.35 23.15 -22.0 24.65 -24.1 24.15 -25.9 23.9 -27.05 22.55 -28.2 21.2 -29.5 20.2 -32.1 14.4 -30.6 7.85 -31.6 4.95 -31.15 2.15 L-30.05 -3.45 Q-30.3 -8.3 -27.05 -11.7 L-22.4 -16.7 -21.65 -16.95 Q-21.4 -16.95 -21.3 -17.1 L-18.8 -20.25 -18.45 -20.75 -16.85 -21.2 -15.45 -21.45 Q-15.5 -20.95 -14.9 -20.8 L-14.3 -20.85 -12.3 -22.05 -11.8 -22.15 Q-9.95 -22.8 -8.25 -21.6 -6.5 -20.45 -5.9 -23.25 -4.35 -23.7 -2.9 -22.9 -1.45 -22.15 -0.1 -21.85 3.05 -24.55 6.55 -26.4 L7.35 -26.2 7.3 -25.35 7.0 -23.9 Q6.7 -22.35 6.8 -20.85 6.9 -20.4 7.25 -20.35 L7.5 -20.3 7.55 -20.15 Q9.55 -20.7 11.25 -19.35 13.8 -20.0 15.8 -18.6 17.85 -19.1 19.4 -18.05 21.0 -17.05 22.7 -16.25 24.6 -13.6 25.9 -10.65 L26.65 -6.65 26.9 -5.3 26.95 -5.0 Q26.55 -4.45 27.0 -3.75 L28.1 -0.95 28.35 -0.15 28.15 3.1 28.45 4.05 Q28.65 4.95 28.35 5.75 L28.0 6.5 27.95 6.75 27.4 8.75 Q27.7 9.8 28.5 10.75 30.35 12.85 30.3 15.7 29.25 19.8 27.8 23.6 26.3 25.7 24.05 26.45 L23.25 26.15 18.8 21.45 Q19.65 18.3 18.7 15.5 17.7 12.6 18.6 9.65 L19.3 7.45 19.55 7.2 19.9 6.5 Q20.05 5.65 19.6 5.4 L19.35 2.3 Q20.15 -0.75 21.35 -3.5 22.55 -6.35 22.45 -9.7 L20.55 -9.5 Q19.6 -8.8 18.6 -8.45 17.6 -6.9 15.8 -6.95 14.7 -6.6 14.1 -5.65 13.5 -4.7 12.55 -4.25 11.3 -3.95 11.15 -2.85 11.95 -1.8 11.7 -0.45 11.45 0.85 11.45 2.1 11.0 2.95 10.95 3.9 12.45 4.4 12.55 6.0 12.95 8.65 10.8 9.75 9.5 10.15 8.35 9.75 7.7 9.05 7.1 8.85 L5.05 12.4 3.5 14.05 3.5 14.0 2.75 14.6 1.9 15.0 Q3.75 13.1 5.05 10.85 L6.9 6.35 Q9.5 5.45 10.25 2.8 11.0 0.15 9.9 -2.15 L9.85 -2.25 Q9.8 -3.2 10.2 -4.05 L10.3 -4.3 10.35 -4.35 Q12.35 -4.45 13.6 -6.25 L13.65 -6.35 14.3 -7.8 15.5 -7.85 15.65 -8.0 15.75 -8.1 16.55 -8.2 16.75 -8.45 17.0 -8.4 17.85 -9.05 18.85 -10.15 19.15 -9.7 Q19.95 -10.05 20.4 -10.75 L20.55 -10.75 21.3 -10.95 21.5 -11.1 21.5 -10.9 22.35 -10.9 22.4 -10.9 Q23.6 -11.85 23.4 -13.6 L23.3 -13.8 22.95 -14.4 Q22.3 -15.15 21.3 -15.5 L21.4 -14.8 21.3 -15.4 21.15 -15.55 20.0 -16.0 20.25 -15.45 19.6 -16.75 18.15 -17.45 Q17.4 -17.75 16.8 -17.05 L16.9 -17.15 16.7 -17.2 15.75 -17.25 14.55 -18.25 12.65 -18.35 11.8 -18.55 11.25 -18.0 11.25 -17.95 10.55 -18.65 Q9.6 -19.5 8.35 -19.05 7.3 -18.75 7.25 -17.8 L7.4 -17.65 7.7 -17.3 10.1 -14.6 10.4 -14.1 Q11.75 -12.15 11.15 -9.4 L9.9 -9.75 4.8 -11.15 Q3.2 -10.3 2.2 -8.6 L1.9 -7.7 1.75 -7.75 1.3 -8.1 0.6 -8.6 -0.8 -9.8 -1.2 -10.2 Q-2.35 -11.1 -3.65 -11.15 -4.6 -10.25 -4.9 -8.85 L-4.95 -8.75 -5.15 -8.2 -5.75 -7.7 -5.95 -7.7 -6.45 -7.7 -6.8 -8.15 -9.15 -10.6 -9.35 -10.85 -9.5 -11.0 -10.4 -11.7 Q-11.0 -12.15 -11.7 -12.3 L-13.1 -12.5 -13.45 -12.5 -13.5 -12.5 -13.6 -12.45 -13.1 -13.4 -13.2 -13.25 -12.85 -13.65 -12.0 -14.6 -8.9 -16.55 -8.5 -16.65 Q-7.75 -18.35 -7.7 -20.05 L-7.95 -19.95 Q-8.1 -20.75 -9.2 -20.95 L-9.55 -21.25 -10.6 -21.35 -12.75 -21.05 -13.6 -20.4 -14.0 -20.45 -14.9 -20.35 -15.7 -20.15 -15.45 -20.65 -15.9 -20.6 Q-17.25 -20.4 -18.2 -19.55 -18.85 -18.65 -19.85 -17.85 L-19.9 -17.8 -20.1 -17.6 -20.3 -17.25 Q-20.6 -16.65 -20.25 -15.8 -19.9 -14.85 -19.1 -14.7 L-18.65 -14.65 -18.15 -14.7 -18.1 -14.7 -18.1 -14.85 -16.85 -14.65 -16.8 -14.65 -16.7 -15.2 -16.85 -14.4 Q-16.4 -12.6 -14.95 -11.6 L-14.8 -12.05 -13.95 -12.2 -13.75 -12.25 -14.0 -11.8 -14.15 -10.95 -14.1 -10.75 -13.7 -8.9 Q-12.95 -7.7 -11.6 -6.95 L-11.65 -6.6 Q-11.85 -4.9 -10.65 -3.75 L-10.55 -3.6 Q-11.35 -2.55 -12.6 -2.05 L-12.65 -1.45 Q-13.0 1.95 -10.7 4.0 L-10.3 4.15 Q-8.05 5.1 -7.6 7.6 -7.15 10.25 -5.35 12.25 L-3.05 14.9 -3.6 14.95 M10.2 -4.05 L10.2 -4.0 10.2 -4.05 M5.55 -24.3 Q2.75 -23.05 0.5 -20.6 L-0.35 -20.75 -2.1 -21.3 -2.2 -21.35 -2.35 -21.45 Q-3.75 -22.1 -5.25 -22.0 L-7.05 -16.8 -7.15 -16.55 -7.8 -15.75 Q-8.65 -15.0 -9.75 -14.75 -11.45 -14.45 -12.3 -12.9 L-9.8 -13.05 -9.7 -13.05 -9.5 -13.0 -8.65 -12.6 Q-8.05 -12.2 -7.75 -11.3 L-7.7 -11.2 -7.3 -10.2 -6.75 -9.25 -6.35 -8.7 -5.95 -9.5 -5.65 -9.95 -4.15 -11.85 -3.2 -11.9 -1.45 -11.4 -1.1 -11.2 1.75 -9.35 2.1 -10.3 Q2.4 -11.2 2.8 -11.7 L3.3 -12.3 5.65 -12.25 7.3 -11.4 Q8.8 -10.75 10.35 -10.75 10.45 -12.25 9.65 -13.4 8.15 -14.85 7.15 -16.6 6.6 -17.5 6.2 -18.5 L6.0 -19.1 Q5.65 -19.95 5.6 -20.75 5.4 -22.35 5.9 -24.1 L6.0 -24.45 5.55 -24.3 M7.75 -3.1 L7.85 -2.85 7.85 -2.6 6.25 -2.4 5.5 -2.2 Q4.65 -2.0 4.05 -1.5 L3.15 -0.6 3.45 -0.65 4.1 -0.6 4.1 -0.5 Q4.25 -0.2 4.55 -0.15 5.5 0.05 5.55 -0.85 L5.55 -1.05 6.45 -1.7 7.0 -1.55 5.65 0.0 2.8 -0.1 2.35 -0.2 2.4 -0.45 Q2.6 -1.3 3.4 -2.0 L4.65 -2.75 6.1 -3.2 7.75 -3.1 M-3.45 -1.9 L-2.45 -0.4 -2.45 -0.15 Q-2.55 -0.05 -2.8 -0.05 L-2.9 -0.05 -2.95 -0.1 -3.85 -1.2 -4.15 -1.45 -4.85 -1.85 -5.6 -2.15 -6.2 -2.35 -6.35 -2.35 -7.95 -2.55 -8.0 -2.8 -7.8 -3.05 -7.15 -3.1 -6.2 -3.15 -4.8 -2.7 -3.5 -1.95 -3.45 -1.9 M0.5 5.05 L0.95 5.25 0.95 5.6 0.95 5.75 0.45 5.95 0.25 6.0 -0.85 5.75 -1.25 5.45 Q-1.05 4.9 -0.2 4.95 L-0.1 4.95 0.5 5.05 M3.3 9.0 L3.25 9.5 Q2.55 10.9 1.45 12.0 L0.85 12.5 0.8 12.5 0.7 12.6 0.3 12.6 0.3 12.65 0.2 12.7 Q-0.6 12.8 -0.95 12.3 L0.3 12.15 0.9 11.85 1.95 10.9 3.3 9.0 M3.6 -5.9 Q4.95 -7.15 7.1 -6.65 6.2 -6.0 4.7 -5.9 L1.4 -3.1 Q2.25 -4.65 3.6 -5.9 M25.05 -9.7 L24.55 -11.45 24.5 -11.6 Q23.35 -9.85 23.55 -7.35 L23.7 -7.25 23.55 -7.05 Q23.35 -6.45 23.45 -5.95 22.95 -5.3 22.95 -4.45 L22.95 -4.4 22.35 -3.4 22.15 -2.6 20.55 2.1 20.75 3.85 20.7 3.45 20.7 4.0 20.85 5.7 Q20.85 6.9 20.3 7.8 L20.1 8.4 Q19.2 10.2 19.3 11.9 19.35 13.45 20.15 14.9 L20.3 14.35 Q20.35 16.15 20.0 18.0 L20.0 18.6 19.55 21.0 19.8 21.3 20.0 21.6 22.7 24.35 22.75 24.55 Q22.9 25.0 23.35 25.1 L24.65 24.9 Q25.9 24.4 26.75 23.2 L26.75 23.1 26.95 22.7 27.35 21.2 27.6 20.25 28.75 17.6 Q29.25 16.1 28.7 14.6 L28.65 14.45 27.5 12.3 26.85 10.95 26.0 9.25 25.85 9.0 25.95 7.4 26.05 6.9 26.15 6.55 26.2 6.5 27.25 6.45 Q27.6 6.2 27.75 5.6 28.05 4.85 27.8 4.35 27.6 3.8 26.85 3.55 L26.95 3.25 27.15 2.25 27.15 2.0 27.2 2.0 27.5 0.0 Q27.2 -1.9 26.4 -3.6 L26.4 -3.65 26.35 -3.65 25.95 -4.4 Q26.05 -5.1 25.65 -5.9 L25.6 -6.0 25.8 -5.95 25.4 -8.15 25.05 -9.7 M-21.4 -13.1 L-20.9 -14.6 Q-21.15 -15.5 -21.95 -15.55 L-22.0 -15.55 -23.05 -13.5 -22.7 -14.25 -23.3 -14.25 -24.15 -13.45 -24.75 -12.45 -24.6 -12.85 -25.25 -12.25 Q-26.95 -10.6 -28.05 -8.6 L-27.8 -8.1 -28.35 -6.65 Q-28.6 -4.95 -29.15 -3.05 L-29.3 -2.2 -29.55 -1.65 -30.0 0.3 -30.05 0.45 Q-30.4 1.3 -30.35 2.3 L-30.35 2.8 -30.25 3.35 -30.15 5.7 Q-29.9 7.35 -30.15 9.0 L-30.1 11.1 -29.8 15.0 -29.8 15.05 -29.8 15.4 Q-29.7 17.6 -28.5 19.25 L-28.0 20.15 -26.85 21.45 -27.15 21.0 -26.85 21.45 Q-26.45 22.15 -25.8 22.1 L-24.25 22.55 -24.45 22.2 -24.1 22.8 -22.3 23.1 Q-21.45 23.0 -21.25 22.35 -20.8 21.95 -20.55 21.15 L-20.0 19.55 -18.75 17.2 -18.55 16.75 -18.25 16.1 -18.0 15.0 -17.95 14.35 -18.0 14.05 -18.2 13.4 -18.7 11.2 -20.05 9.55 -20.0 8.7 -20.0 7.5 -20.1 6.75 -20.1 5.05 -20.3 4.65 -20.3 -0.1 -20.3 -0.7 -20.3 -0.8 Q-20.35 -2.6 -20.9 -4.3 L-22.05 -6.65 -22.2 -9.45 -22.1 -9.85 Q-21.3 -11.25 -21.35 -12.75 L-21.4 -13.1 M-14.65 -0.8 L-15.05 -0.95 Q-15.65 -0.95 -15.7 -0.35 -15.75 0.05 -15.4 0.2 L-15.4 0.85 Q-14.9 1.55 -14.1 1.5 -13.55 0.85 -13.7 -0.05 -13.9 -0.75 -14.6 -0.85 L-14.65 -0.8 M-7.65 -5.55 Q-8.7 -5.55 -9.5 -6.15 L-9.2 -6.45 Q-5.2 -6.5 -3.05 -3.15 L-3.05 -2.7 -5.95 -5.05 Q-6.7 -5.6 -7.65 -5.55 M-7.3 -1.85 L-7.2 -1.85 -6.0 -1.4 -6.1 -1.1 -6.15 -1.0 Q-6.2 -0.25 -5.4 -0.15 L-5.05 -0.15 -5.0 -0.15 -4.85 -0.25 Q-4.6 -0.35 -4.55 -0.7 L-3.9 -0.45 -3.85 -0.35 -3.95 0.0 -5.3 0.05 -5.75 0.05 -7.3 -1.85 M-13.4 5.25 L-13.9 5.95 Q-14.3 6.6 -14.25 7.6 -13.5 9.25 -11.85 8.9 -10.3 7.8 -10.45 5.95 -11.5 5.05 -12.65 4.65 L-13.4 5.25 M8.55 6.95 Q7.95 7.1 8.1 7.85 8.5 9.45 10.3 9.15 11.75 8.85 11.75 7.6 L11.55 5.25 Q10.75 4.3 10.45 5.05 L10.25 5.45 9.8 5.35 Q8.6 5.4 8.55 6.55 L8.55 6.95" fill="#000000" fill-rule="evenodd" stroke="none"/>
    <path d="M-19.1 -14.7 Q-19.9 -14.85 -20.25 -15.8 -20.6 -16.65 -20.3 -17.25 L-20.35 -17.1 Q-18.45 -16.9 -16.95 -18.05 L-16.9 -18.1 -16.65 -18.6 -15.8 -20.0 -15.9 -20.6 -15.45 -20.65 -15.7 -20.15 -14.9 -20.35 -14.0 -20.45 -13.6 -20.4 Q-15.0 -19.25 -15.8 -17.8 -15.2 -16.45 -13.55 -16.8 L-12.3 -17.15 -10.2 -19.4 -9.35 -20.15 -9.35 -20.35 -9.55 -21.25 -9.2 -20.95 Q-8.1 -20.75 -7.95 -19.95 L-10.6 -18.1 -10.7 -18.0 -11.1 -17.55 -11.2 -17.4 -11.4 -17.1 -12.75 -14.4 -14.05 -15.4 -17.7 -15.65 Q-18.6 -15.4 -19.1 -14.7 M-11.7 -12.3 Q-11.0 -12.15 -10.4 -11.7 L-10.6 -11.2 -11.55 -12.2 -11.7 -12.3 M11.25 -17.95 L11.25 -18.0 11.8 -18.55 12.65 -18.35 12.45 -18.25 12.2 -18.05 Q13.45 -16.4 14.15 -14.5 L15.05 -14.45 Q16.05 -14.55 16.65 -15.2 L16.2 -16.35 15.75 -17.25 16.7 -17.2 16.9 -17.15 16.8 -17.05 17.3 -15.55 17.9 -14.0 20.0 -13.65 20.75 -13.8 20.25 -15.45 20.0 -16.0 21.15 -15.55 21.3 -15.4 21.4 -14.8 21.5 -13.0 22.3 -12.95 22.9 -13.05 23.3 -13.8 23.4 -13.6 Q23.6 -11.85 22.4 -10.9 L22.35 -10.9 Q21.45 -12.6 19.25 -12.2 L18.65 -11.8 18.25 -11.65 Q15.95 -11.5 13.65 -11.7 L13.4 -12.45 13.3 -12.9 13.2 -13.05 Q12.7 -14.1 11.75 -14.5 12.75 -14.8 13.0 -15.5 L12.35 -16.85 11.25 -17.95 M5.9 -24.1 L5.55 -24.3 6.0 -24.45 5.9 -24.1 M-0.35 -20.75 L-0.35 -19.2 Q-0.3 -18.9 -0.05 -18.75 1.5 -17.65 3.15 -19.15 3.95 -19.9 4.9 -20.3 L5.6 -20.75 Q5.65 -19.95 6.0 -19.1 L5.75 -19.8 5.45 -19.8 5.4 -19.75 4.9 -19.55 4.65 -19.4 4.2 -18.75 Q3.65 -17.7 4.45 -16.85 5.5 -15.8 7.05 -16.55 L7.15 -16.6 Q8.15 -14.85 9.65 -13.4 10.45 -12.25 10.35 -10.75 8.8 -10.75 7.3 -11.4 7.7 -12.8 6.8 -14.15 L6.5 -14.6 Q5.4 -16.15 3.6 -16.2 L3.2 -15.9 2.75 -15.35 Q2.35 -13.45 3.3 -12.3 L2.8 -11.7 Q2.45 -12.4 1.5 -12.8 1.05 -13.0 0.8 -13.5 0.05 -15.0 -1.45 -15.2 -2.45 -15.35 -3.0 -14.35 -3.6 -13.05 -3.2 -11.9 L-4.15 -11.85 -5.65 -9.95 -5.55 -10.45 Q-5.25 -12.8 -7.4 -13.5 -8.4 -13.4 -8.65 -12.6 L-9.5 -13.0 -7.75 -13.55 -7.5 -13.8 Q-7.15 -14.15 -7.25 -14.7 -7.4 -15.4 -7.8 -15.75 L-7.15 -16.55 -7.05 -16.8 -6.75 -16.5 -4.35 -16.55 Q-3.25 -17.65 -2.8 -19.1 L-2.2 -20.65 -2.0 -21.25 -2.1 -21.3 -0.35 -20.75 M-5.95 -9.5 L-6.35 -8.7 -6.75 -9.25 -6.2 -9.3 -5.95 -9.5 M25.05 -9.7 L25.4 -8.15 25.35 -8.15 25.0 -8.05 24.95 -7.75 25.0 -8.2 25.15 -9.15 25.05 -9.7 M19.8 21.3 L19.55 21.0 20.0 18.6 20.0 18.0 Q20.35 16.15 20.3 14.35 L20.15 14.9 Q19.35 13.45 19.3 11.9 L20.45 11.7 21.35 11.2 21.6 10.45 Q21.75 9.45 21.15 8.55 L20.45 7.75 20.1 8.4 20.3 7.8 Q20.85 6.9 20.85 5.7 L20.7 4.0 20.7 3.45 20.75 3.85 Q21.1 6.4 22.05 8.75 L22.2 9.15 22.3 9.35 23.3 11.45 24.3 10.95 25.05 12.85 Q24.45 13.4 24.55 14.4 24.75 15.8 25.85 16.1 L25.9 16.65 26.0 18.7 25.25 16.95 25.0 16.95 Q24.4 18.5 24.15 20.05 22.8 20.75 21.2 20.9 L19.95 21.2 19.8 21.3 M22.15 -2.6 L22.35 -3.4 22.95 -4.4 22.95 -4.25 24.5 -2.3 24.55 -2.3 24.95 -2.4 25.0 -2.2 25.55 0.05 25.25 0.7 25.5 1.25 24.35 -0.95 24.0 -0.85 Q23.05 1.25 24.05 3.15 L24.1 3.25 Q24.25 3.15 24.45 3.1 L24.15 4.4 24.0 5.1 23.95 5.0 22.65 2.1 Q22.55 1.4 22.7 0.8 L22.55 0.75 22.9 0.1 23.3 -0.85 Q24.05 -2.3 22.4 -3.35 L22.15 -2.6 M-21.4 -13.1 L-21.35 -12.75 Q-21.3 -11.25 -22.1 -9.85 L-22.2 -9.45 -22.05 -6.65 -22.25 -7.0 -22.5 -7.0 Q-23.4 -4.9 -22.45 -3.05 L-22.9 -4.15 -23.3 -2.7 -23.5 -3.05 -23.5 -3.1 -23.7 -2.95 Q-25.25 -0.05 -23.85 2.45 L-23.5 3.05 -23.7 4.35 -25.05 2.0 Q-27.2 -2.15 -28.35 -6.65 L-27.8 -8.1 Q-26.55 -7.85 -25.7 -8.7 L-24.85 -11.8 -24.75 -12.45 -24.15 -13.45 -23.3 -14.25 -22.7 -14.25 -23.05 -13.5 -25.15 -8.0 -25.2 -7.7 Q-26.4 -5.45 -26.05 -3.3 -25.85 -2.0 -25.1 -0.75 -23.5 -7.05 -21.4 -13.1 M-30.1 11.1 L-30.15 9.0 Q-29.9 7.35 -30.15 5.7 L-30.25 3.35 -30.35 2.8 -30.35 2.3 -30.0 2.35 Q-29.2 2.4 -28.95 1.9 -29.15 0.95 -29.8 0.1 L-29.85 0.2 -30.0 0.3 -29.55 -1.65 -29.3 -2.2 Q-29.45 -0.85 -28.7 0.45 L-26.65 3.55 -24.15 7.2 -23.3 6.55 -23.1 7.05 -23.0 7.2 Q-23.35 7.7 -23.0 8.3 L-22.3 8.9 -21.8 10.5 Q-22.3 10.95 -22.2 11.9 -22.1 12.85 -21.25 13.0 L-21.15 13.7 -21.25 13.7 -21.4 13.8 Q-22.2 14.55 -22.55 15.6 -22.9 16.6 -22.8 17.7 L-23.85 20.3 -24.0 20.35 -24.2 20.15 Q-23.4 19.3 -23.85 17.85 -23.55 17.4 -23.55 16.85 -23.35 14.5 -25.9 14.5 L-25.9 14.55 -26.25 14.7 -26.4 14.8 Q-27.05 15.45 -27.15 16.25 L-27.35 17.95 -27.35 18.6 Q-28.05 18.55 -28.45 18.9 -27.4 12.2 -26.0 5.55 L-26.7 4.65 Q-26.85 4.0 -27.45 3.75 -27.65 3.6 -27.8 3.6 L-28.25 4.3 -30.0 10.1 -30.1 11.0 -30.1 11.1 M-29.5 5.0 L-29.7 5.1 -29.5 5.0 M-22.8 12.35 Q-22.35 11.4 -22.5 10.35 -22.85 8.55 -24.85 8.85 -26.6 9.85 -26.4 12.05 -26.35 12.85 -25.65 13.3 -23.6 14.5 -22.8 12.35 M23.6 16.75 L24.35 15.05 Q23.45 12.95 22.15 11.15 21.0 14.15 20.25 17.4 L20.7 17.6 Q22.55 18.45 23.6 16.75" fill="#990000" fill-rule="evenodd" stroke="none"/>
    <path d="M-20.3 -17.25 L-20.1 -17.6 -19.9 -17.8 -19.85 -17.85 Q-18.85 -18.65 -18.2 -19.55 -17.25 -20.4 -15.9 -20.6 L-15.8 -20.0 -16.65 -18.6 -16.9 -18.1 -16.95 -18.05 Q-18.45 -16.9 -20.35 -17.1 L-20.3 -17.25 M-13.6 -20.4 L-12.75 -21.05 -10.6 -21.35 -9.55 -21.25 -9.35 -20.35 -9.35 -20.15 -10.2 -19.4 -12.3 -17.15 -13.55 -16.8 Q-15.2 -16.45 -15.8 -17.8 -15.0 -19.25 -13.6 -20.4 M-7.95 -19.95 L-7.7 -20.05 Q-7.75 -18.35 -8.5 -16.65 L-8.9 -16.55 -12.0 -14.6 -12.85 -13.65 -13.0 -13.7 -12.95 -13.95 -12.75 -14.4 -11.4 -17.1 -11.2 -17.4 -11.1 -17.55 -10.7 -18.0 -10.6 -18.1 -7.95 -19.95 M10.1 -14.6 L7.7 -17.3 7.4 -17.65 7.25 -17.8 Q7.3 -18.75 8.35 -19.05 9.6 -19.5 10.55 -18.65 L11.25 -17.95 12.35 -16.85 13.0 -15.5 Q12.75 -14.8 11.75 -14.5 L10.4 -14.15 10.1 -14.6 M12.65 -18.35 L14.55 -18.25 15.75 -17.25 16.2 -16.35 16.65 -15.2 Q16.05 -14.55 15.05 -14.45 L14.15 -14.5 Q13.45 -16.4 12.2 -18.05 L12.45 -18.25 12.65 -18.35 M16.8 -17.05 Q17.4 -17.75 18.15 -17.45 L19.6 -16.75 20.25 -15.45 20.75 -13.8 20.0 -13.65 17.9 -14.0 17.3 -15.55 16.8 -17.05 M21.4 -14.8 L21.3 -15.5 Q22.3 -15.15 22.95 -14.4 L23.3 -13.8 22.9 -13.05 22.3 -12.95 21.5 -13.0 21.4 -14.8 M10.2 -4.05 L10.2 -4.0 10.2 -4.05 M5.55 -24.3 L5.9 -24.1 Q5.4 -22.35 5.6 -20.75 L4.9 -20.3 Q3.95 -19.9 3.15 -19.15 1.5 -17.65 -0.05 -18.75 -0.3 -18.9 -0.35 -19.2 L-0.35 -20.75 0.5 -20.6 Q2.75 -23.05 5.55 -24.3 M3.3 -12.3 Q2.35 -13.45 2.75 -15.35 L3.2 -15.9 3.6 -16.2 Q5.4 -16.15 6.5 -14.6 L6.8 -14.15 Q7.7 -12.8 7.3 -11.4 L5.65 -12.25 3.3 -12.3 M2.8 -11.7 Q2.4 -11.2 2.1 -10.3 L1.75 -9.35 -1.1 -11.2 -1.45 -11.4 -3.2 -11.9 Q-3.6 -13.05 -3.0 -14.35 -2.45 -15.35 -1.45 -15.2 0.05 -15.0 0.8 -13.5 1.05 -13.0 1.5 -12.8 2.45 -12.4 2.8 -11.7 M-5.65 -9.95 L-5.95 -9.5 -6.2 -9.3 -6.75 -9.25 -7.3 -10.2 -7.7 -11.2 -7.75 -11.3 Q-8.05 -12.2 -8.65 -12.6 -8.4 -13.4 -7.4 -13.5 -5.25 -12.8 -5.55 -10.45 L-5.65 -9.95 M-9.5 -13.0 L-9.7 -13.05 -9.8 -13.05 -12.3 -12.9 Q-11.45 -14.45 -9.75 -14.75 -8.65 -15.0 -7.8 -15.75 -7.4 -15.4 -7.25 -14.7 -7.15 -14.15 -7.5 -13.8 L-7.75 -13.55 -9.5 -13.0 M-7.05 -16.8 L-5.25 -22.0 Q-3.75 -22.1 -2.35 -21.45 L-2.2 -21.35 -2.1 -21.3 -2.0 -21.25 -2.2 -20.65 -2.8 -19.1 Q-3.25 -17.65 -4.35 -16.55 L-6.75 -16.5 -7.05 -16.8 M5.55 -1.05 L5.55 -0.85 Q5.5 0.05 4.55 -0.15 4.25 -0.2 4.1 -0.5 L4.1 -0.6 Q3.85 -1.3 4.55 -1.7 L4.8 -1.75 Q5.5 -1.7 5.55 -1.05 M23.7 -7.25 L23.55 -7.35 Q23.35 -9.85 24.5 -11.6 L24.55 -11.45 25.05 -9.7 25.15 -9.15 25.0 -8.2 24.95 -7.75 24.8 -7.5 24.75 -7.5 24.4 -7.3 23.8 -7.15 23.7 -7.25 M25.95 -4.4 L26.35 -3.65 26.4 -3.65 26.4 -3.6 Q26.0 -2.75 24.95 -2.4 L24.55 -2.3 24.5 -2.3 22.95 -4.25 22.95 -4.4 22.95 -4.45 Q22.95 -5.3 23.45 -5.95 25.05 -5.55 25.95 -4.4 M26.85 3.55 Q27.6 3.8 27.8 4.35 28.05 4.85 27.75 5.6 27.6 6.2 27.25 6.45 L26.2 6.5 25.95 6.45 Q24.85 6.15 24.95 5.0 25.05 3.55 26.45 3.45 L26.85 3.55 M25.85 9.0 L26.0 9.25 25.85 9.45 25.8 9.5 25.05 10.45 24.35 10.95 24.3 10.95 23.3 11.45 22.3 9.35 22.2 9.15 22.05 8.75 Q21.1 6.4 20.75 3.85 L20.55 2.1 22.15 -2.6 22.4 -3.35 Q24.05 -2.3 23.3 -0.85 L22.9 0.1 22.55 0.75 22.7 0.8 Q22.55 1.4 22.65 2.1 L23.95 5.0 24.0 5.1 24.3 5.85 24.55 6.35 24.6 6.45 25.85 9.0 M27.5 12.3 L28.65 14.45 28.7 14.6 28.75 14.8 Q28.45 15.9 27.25 16.1 L25.85 16.1 Q24.75 15.8 24.55 14.4 24.45 13.4 25.05 12.85 L25.9 12.35 26.7 12.15 27.5 12.3 M26.75 23.1 L26.75 23.2 Q25.9 24.4 24.65 24.9 L24.0 25.1 24.0 21.3 24.2 20.05 24.15 20.05 Q24.4 18.5 25.0 16.95 L25.25 16.95 26.0 18.7 Q26.7 20.8 26.75 23.1 M19.3 11.9 Q19.2 10.2 20.1 8.4 L20.45 7.75 21.15 8.55 Q21.75 9.45 21.6 10.45 L21.35 11.2 20.45 11.7 19.3 11.9 M24.45 3.1 Q24.25 3.15 24.1 3.25 L24.05 3.15 Q23.05 1.25 24.0 -0.85 L24.35 -0.95 25.5 1.25 25.85 1.85 24.5 3.05 24.45 3.1 M-23.05 -13.5 L-22.0 -15.55 -21.95 -15.55 Q-21.15 -15.5 -20.9 -14.6 L-21.4 -13.1 Q-23.5 -7.05 -25.1 -0.75 -25.85 -2.0 -26.05 -3.3 -26.4 -5.45 -25.2 -7.7 L-25.15 -8.0 -23.05 -13.5 M-22.05 -6.65 L-20.9 -4.3 Q-21.2 -3.35 -21.9 -2.6 L-22.15 -2.45 -22.25 -2.6 -22.3 -2.7 -22.45 -3.05 Q-23.4 -4.9 -22.5 -7.0 L-22.25 -7.0 -22.05 -6.65 M-28.5 19.25 Q-29.7 17.6 -29.8 15.4 L-29.8 15.05 -29.8 15.0 -30.1 11.1 -30.1 11.0 -30.0 10.1 -28.25 4.3 -27.8 3.6 Q-27.65 3.6 -27.45 3.75 -26.85 4.0 -26.7 4.65 L-26.0 5.55 Q-27.4 12.2 -28.45 18.9 L-28.5 19.25 M-30.35 2.3 Q-30.4 1.3 -30.05 0.45 L-30.0 0.3 -29.85 0.2 -29.8 0.1 Q-29.15 0.95 -28.95 1.9 -29.2 2.4 -30.0 2.35 L-30.35 2.3 M-29.3 -2.2 L-29.15 -3.05 Q-28.6 -4.95 -28.35 -6.65 -27.2 -2.15 -25.05 2.0 L-23.7 4.35 -22.9 5.65 -22.9 5.75 -23.15 6.35 -23.3 6.55 -24.15 7.2 -26.65 3.55 -28.7 0.45 Q-29.45 -0.85 -29.3 -2.2 M-27.8 -8.1 L-28.05 -8.6 Q-26.95 -10.6 -25.25 -12.25 L-24.6 -12.85 -24.75 -12.45 -24.85 -11.8 -25.7 -8.7 Q-26.55 -7.85 -27.8 -8.1 M-23.5 -3.05 L-23.3 -2.7 Q-22.35 -1.05 -21.8 0.9 L-21.35 2.25 Q-21.75 3.05 -22.55 3.4 L-23.25 3.45 -23.5 3.05 -23.85 2.45 Q-25.25 -0.05 -23.7 -2.95 L-23.5 -3.05 M-6.1 -1.1 L-5.55 -1.75 -5.35 -1.75 Q-4.55 -1.7 -4.55 -0.85 -4.55 -0.4 -4.85 -0.25 L-5.0 -0.15 -5.05 -0.15 -5.4 -0.15 Q-6.2 -0.25 -6.15 -1.0 L-6.1 -1.1 M-23.0 7.2 L-23.0 7.15 -22.15 6.35 Q-20.6 6.25 -20.7 7.7 -20.75 8.3 -21.15 8.7 -21.85 9.1 -22.3 8.9 L-23.0 8.3 Q-23.35 7.7 -23.0 7.2 M-21.8 10.5 L-20.9 10.1 Q-19.55 10.15 -19.5 11.5 -19.4 12.95 -20.8 13.0 L-20.9 13.0 -21.25 13.0 Q-22.1 12.85 -22.2 11.9 -22.3 10.95 -21.8 10.5 M-21.15 13.7 Q-19.7 13.45 -19.2 14.75 -19.05 15.15 -19.15 15.65 -19.4 17.05 -20.15 18.25 L-20.2 18.3 Q-20.6 19.0 -21.05 18.9 -21.65 19.0 -22.3 18.55 L-22.8 17.75 -22.8 17.7 Q-22.9 16.6 -22.55 15.6 -22.2 14.55 -21.4 13.8 L-21.25 13.7 -21.15 13.7 M-24.2 20.15 L-25.15 20.7 Q-26.1 21.0 -26.65 20.35 -27.3 19.6 -27.35 18.6 L-27.35 17.95 -27.15 16.25 Q-27.05 15.45 -26.4 14.8 L-26.25 14.7 -25.9 14.55 -25.9 14.5 Q-23.35 14.5 -23.55 16.85 -23.55 17.4 -23.85 17.85 -23.4 19.3 -24.2 20.15 M-22.8 12.35 Q-23.6 14.5 -25.65 13.3 -26.35 12.85 -26.4 12.05 -26.6 9.85 -24.85 8.85 -22.85 8.55 -22.5 10.35 -22.35 11.4 -22.8 12.35 M23.6 16.75 Q22.55 18.45 20.7 17.6 L20.25 17.4 Q21.0 14.15 22.15 11.15 23.45 12.95 24.35 15.05 L23.6 16.75" fill="#ff0000" fill-rule="evenodd" stroke="none"/>
    <path d="M-23.5 -3.05 L-23.7 -2.95 -23.5 -3.1 -23.5 -3.05 M-20.45 20.55 L-20.45 20.75 -20.6 20.75 -20.45 20.55 M-29.5 5.0 L-29.7 5.1 -29.5 5.0" fill="#999900" fill-rule="evenodd" stroke="none"/>
    <path d="M-11.65 -6.6 L-11.6 -6.95 Q-12.95 -7.7 -13.7 -8.9 L-14.1 -10.75 -14.15 -10.95 -14.0 -11.8 -13.75 -12.25 -13.95 -12.2 -14.8 -12.05 -14.95 -11.6 Q-16.4 -12.6 -16.85 -14.4 L-16.7 -15.2 -16.8 -14.65 -16.85 -14.65 -18.1 -14.85 -18.1 -14.7 -18.15 -14.7 -18.65 -14.65 -19.1 -14.7 Q-18.6 -15.4 -17.7 -15.65 L-14.05 -15.4 -12.75 -14.4 -12.95 -13.95 -13.0 -13.7 -12.85 -13.65 -13.2 -13.25 -13.1 -13.4 -13.6 -12.45 -13.6 -12.4 -13.7 -12.3 -13.5 -12.4 -13.45 -12.5 -13.1 -12.5 -11.7 -12.3 -11.55 -12.2 -10.6 -11.2 -10.6 -11.15 -10.8 -10.55 -11.2 -8.7 -11.2 -8.6 -11.2 -8.55 Q-11.25 -8.2 -11.45 -7.8 L-11.45 -7.55 -11.6 -7.15 -11.65 -6.6 M9.9 -9.75 L11.15 -9.4 Q11.75 -12.15 10.4 -14.1 L10.1 -14.6 10.4 -14.15 11.75 -14.5 Q12.7 -14.1 13.2 -13.05 L13.3 -12.9 13.4 -12.45 13.65 -11.7 Q15.95 -11.5 18.25 -11.65 L18.65 -11.8 19.25 -12.2 Q21.45 -12.6 22.35 -10.9 L21.5 -10.9 21.5 -11.1 21.3 -10.95 20.55 -10.75 20.4 -10.75 Q19.95 -10.05 19.15 -9.7 L18.85 -10.15 17.85 -9.05 17.0 -8.4 16.75 -8.45 16.55 -8.2 15.75 -8.1 15.65 -8.0 15.5 -7.85 14.3 -7.8 14.4 -8.2 14.05 -7.25 13.9 -6.9 13.65 -6.35 13.6 -6.25 Q12.35 -4.45 10.35 -4.35 L10.3 -4.3 10.2 -4.05 9.9 -9.55 9.9 -9.75 M7.15 -16.6 L7.05 -16.55 Q5.5 -15.8 4.45 -16.85 3.65 -17.7 4.2 -18.75 L4.65 -19.4 4.9 -19.55 5.4 -19.75 5.45 -19.8 5.75 -19.8 6.0 -19.1 6.2 -18.5 Q6.6 -17.5 7.15 -16.6 M7.85 -2.6 L7.0 -1.55 6.45 -1.7 5.55 -1.05 Q5.5 -1.7 4.8 -1.75 L4.55 -1.7 Q3.85 -1.3 4.1 -0.6 L3.45 -0.65 3.15 -0.6 4.05 -1.5 Q4.65 -2.0 5.5 -2.2 L6.25 -2.4 7.85 -2.6 M25.4 -8.15 L25.8 -5.95 25.6 -6.0 25.65 -5.9 Q26.05 -5.1 25.95 -4.4 25.05 -5.55 23.45 -5.95 23.35 -6.45 23.55 -7.05 L23.7 -7.25 23.8 -7.15 24.4 -7.3 24.75 -7.5 24.8 -7.5 24.95 -7.75 25.0 -8.05 25.35 -8.15 25.4 -8.15 M26.4 -3.6 Q27.2 -1.9 27.5 0.0 L27.2 2.0 27.15 2.0 27.15 2.25 26.95 3.25 26.85 3.55 26.45 3.45 Q25.05 3.55 24.95 5.0 24.85 6.15 25.95 6.45 L26.2 6.5 26.15 6.55 26.05 6.9 25.95 7.4 25.85 9.0 24.6 6.45 24.55 6.35 24.3 5.85 24.0 5.1 24.15 4.4 24.45 3.1 24.5 3.05 25.85 1.85 25.5 1.25 25.25 0.7 25.55 0.05 25.0 -2.2 24.95 -2.4 Q26.0 -2.75 26.4 -3.6 M26.0 9.25 L26.85 10.95 27.5 12.3 26.7 12.15 25.9 12.35 25.05 12.85 24.3 10.95 24.35 10.95 25.05 10.45 25.8 9.5 25.85 9.45 26.0 9.25 M28.7 14.6 Q29.25 16.1 28.75 17.6 L27.6 20.25 27.35 21.2 26.95 22.7 26.75 23.1 Q26.7 20.8 26.0 18.7 L25.9 16.65 25.85 16.1 27.25 16.1 Q28.45 15.9 28.75 14.8 L28.7 14.6 M24.65 24.9 L23.35 25.1 Q22.9 25.0 22.75 24.55 L22.7 24.35 20.0 21.6 19.8 21.3 19.95 21.2 21.2 20.9 Q22.8 20.75 24.15 20.05 L24.2 20.05 24.0 21.3 24.0 25.1 24.65 24.9 M-20.9 -4.3 Q-20.35 -2.6 -20.3 -0.8 L-20.3 -0.7 -20.3 -0.1 -20.3 4.65 -20.1 5.05 -20.1 6.75 -20.0 7.5 -20.0 8.7 -20.05 9.55 -18.7 11.2 -18.2 13.4 -18.2 13.35 -18.2 13.4 -18.15 14.1 -18.1 14.4 -17.95 14.35 -18.0 15.0 -18.25 16.1 -18.55 16.75 -18.75 17.2 -20.0 19.55 -20.55 21.15 Q-20.8 21.95 -21.25 22.35 -21.45 23.0 -22.3 23.1 L-24.1 22.8 -24.45 22.2 -24.25 22.55 -25.8 22.1 Q-26.45 22.15 -26.85 21.45 L-27.15 21.0 -26.85 21.45 -28.0 20.15 -28.5 19.25 -28.45 18.9 Q-28.05 18.55 -27.35 18.6 -27.3 19.6 -26.65 20.35 -26.1 21.0 -25.15 20.7 L-24.2 20.15 -24.0 20.35 -23.85 20.3 -22.8 17.7 -22.8 17.75 -22.3 18.55 Q-21.65 19.0 -21.05 18.9 -20.6 19.0 -20.2 18.3 L-20.15 18.25 Q-19.4 17.05 -19.15 15.65 -19.05 15.15 -19.2 14.75 -19.7 13.45 -21.15 13.7 L-21.25 13.0 -20.9 13.0 -20.8 13.0 Q-19.4 12.95 -19.5 11.5 -19.55 10.15 -20.9 10.1 L-21.8 10.5 -22.3 8.9 Q-21.85 9.1 -21.15 8.7 -20.75 8.3 -20.7 7.7 -20.6 6.25 -22.15 6.35 L-23.0 7.15 -23.0 7.2 -23.1 7.05 -23.3 6.55 -23.15 6.35 -22.9 5.75 -22.9 5.65 -23.7 4.35 -23.5 3.05 -23.25 3.45 -22.55 3.4 Q-21.75 3.05 -21.35 2.25 L-21.8 0.9 Q-22.35 -1.05 -23.3 -2.7 L-22.9 -4.15 -22.45 -3.05 -22.3 -2.7 -22.25 -2.6 -22.15 -2.45 -21.9 -2.6 Q-21.2 -3.35 -20.9 -4.3 M-7.95 -2.55 L-6.35 -2.35 -6.2 -2.35 -5.6 -2.15 -4.85 -1.85 -4.15 -1.45 -3.85 -1.2 -2.95 -0.1 -2.9 -0.05 -3.95 0.0 -3.85 -0.35 -3.9 -0.45 -4.55 -0.7 Q-4.6 -0.35 -4.85 -0.25 -4.55 -0.4 -4.55 -0.85 -4.55 -1.7 -5.35 -1.75 L-5.55 -1.75 -6.1 -1.1 -6.0 -1.4 -7.2 -1.85 -7.3 -1.85 -7.95 -2.55 M-20.45 20.55 L-20.6 20.75 -20.45 20.75 -20.45 20.55" fill="#660000" fill-rule="evenodd" stroke="none"/>
    <path d="M3.5 14.05 L3.35 14.3 1.9 15.9 1.5 16.1 -1.65 16.15 -1.05 16.35 -0.75 15.7 -0.6 15.65 -0.4 15.55 -0.3 15.55 Q0.1 15.15 0.15 14.6 L0.3 12.65 0.3 12.6 0.7 12.6 0.8 12.5 0.85 12.5 1.45 12.0 Q2.55 10.9 3.25 9.5 L3.3 9.0 3.8 8.15 3.65 7.95 0.4 8.25 0.45 6.65 0.45 6.55 0.75 6.45 Q1.45 6.05 0.95 5.6 L0.95 5.25 0.5 5.05 0.5 4.65 0.75 4.5 0.95 4.05 Q1.0 3.45 0.45 3.35 L0.4 2.95 0.45 1.85 0.15 1.5 0.1 1.4 -0.05 1.2 -0.05 1.1 -0.25 0.7 -0.45 0.65 -0.85 0.65 -1.3 0.9 -1.0 0.75 -1.1 0.5 -1.25 0.35 -2.15 0.3 -2.15 0.25 -2.8 -0.05 Q-2.55 -0.05 -2.45 -0.15 L-2.45 -0.4 -3.45 -1.9 0.7 -1.85 0.5 -3.85 Q0.4 -5.05 0.45 -6.3 L0.5 -7.05 0.45 -6.5 0.4 -6.55 -2.3 -8.7 -3.45 -7.95 -4.15 -7.0 Q-4.5 -6.1 -5.45 -6.45 -5.85 -6.6 -5.9 -6.95 L-5.35 -6.9 Q-4.25 -6.95 -4.0 -8.05 L-2.6 -9.2 -1.2 -10.2 -0.8 -9.8 0.6 -8.6 1.3 -8.1 2.95 -8.05 3.55 -8.3 5.6 -9.55 8.8 -8.65 8.8 -8.6 8.85 -8.55 8.85 -8.5 8.45 -7.1 7.85 -5.6 Q7.45 -4.65 7.65 -3.65 L7.5 -3.15 7.75 -3.1 6.1 -3.2 4.65 -2.75 3.4 -2.0 Q2.6 -1.3 2.4 -0.45 L2.25 -0.2 2.2 -0.15 1.25 1.05 1.65 1.65 2.15 2.25 2.5 2.45 3.45 2.95 3.35 3.05 Q2.85 3.8 3.2 4.5 L3.55 4.85 Q4.9 5.25 5.85 4.3 L5.95 4.2 Q6.65 3.55 6.65 2.55 6.65 2.0 6.25 1.85 L6.9 1.05 7.45 0.35 Q8.45 -0.5 8.55 -1.8 L8.6 -2.05 9.9 -2.15 Q11.0 0.15 10.25 2.8 9.5 5.45 6.9 6.35 L5.05 10.85 Q3.75 13.1 1.9 15.0 L2.75 14.6 3.5 14.0 3.5 14.05 M-10.3 4.15 L-10.7 4.0 Q-13.0 1.95 -12.65 -1.45 L-12.2 -1.65 Q-11.45 -1.5 -10.95 -0.9 L-11.65 -0.45 -11.75 -0.25 Q-12.05 1.15 -11.15 2.25 -10.65 2.85 -9.85 2.6 L-9.45 2.4 -9.75 3.55 -10.3 4.15 M-14.0 -11.8 L-13.75 -12.25 -14.0 -11.8 M-13.6 -12.45 L-13.5 -12.5 -13.45 -12.5 -13.5 -12.4 -13.7 -12.3 -13.6 -12.4 -13.6 -12.45 M-6.8 -8.15 L-6.45 -7.7 -5.95 -7.7 -7.1 -7.8 -6.8 -8.15 M14.3 -7.8 L13.65 -6.35 13.9 -6.9 14.05 -7.25 14.4 -8.2 14.3 -7.8 M3.6 -5.9 Q2.25 -4.65 1.4 -3.1 L4.7 -5.9 Q6.2 -6.0 7.1 -6.65 4.95 -7.15 3.6 -5.9 M-7.15 -3.1 L-7.3 -3.15 -8.05 -3.2 Q-8.35 -3.5 -8.9 -3.5 L-9.5 -2.85 Q-9.3 -3.8 -8.05 -3.85 -5.6 -3.75 -3.8 -2.15 L-3.5 -1.95 -4.8 -2.7 -6.2 -3.15 -7.15 -3.1 M9.65 2.7 L9.85 1.7 Q10.05 0.45 8.85 0.4 8.45 0.65 8.4 1.15 L8.15 2.0 Q7.75 2.75 7.85 3.45 7.85 3.8 8.2 3.8 9.3 3.85 9.65 2.7" fill="#e3b18b" fill-rule="evenodd" stroke="none"/>
    <path d="M-10.65 -3.75 Q-11.85 -4.9 -11.65 -6.6 L-11.6 -7.15 -11.45 -7.55 -11.45 -7.8 Q-11.25 -8.2 -11.2 -8.55 L-11.2 -8.6 -11.2 -8.7 -10.8 -10.55 -10.6 -11.15 -10.6 -11.2 -10.4 -11.7 -9.5 -11.0 -9.35 -10.85 -9.15 -10.6 -6.8 -8.15 -7.1 -7.8 -7.25 -8.0 -7.35 -8.1 Q-8.75 -8.3 -10.15 -8.1 L-10.35 -6.3 -10.65 -3.8 -10.65 -3.75 M-5.75 -7.7 L-5.15 -8.2 -4.95 -8.75 -4.9 -8.85 Q-4.6 -10.25 -3.65 -11.15 -2.35 -11.1 -1.2 -10.2 L-2.6 -9.2 -4.0 -8.05 Q-4.25 -6.95 -5.35 -6.9 L-5.9 -6.95 -5.9 -7.1 -5.75 -7.7 M1.3 -8.1 L1.75 -7.75 1.9 -7.7 2.2 -8.6 Q3.2 -10.3 4.8 -11.15 L9.9 -9.75 9.9 -9.55 10.2 -4.05 Q9.8 -3.2 9.85 -2.25 L9.9 -2.15 8.6 -2.05 8.55 -1.8 Q8.45 -0.5 7.45 0.35 L6.9 1.05 6.25 1.85 5.85 1.75 Q5.0 1.85 4.3 2.25 L4.05 2.4 3.45 2.95 2.5 2.45 2.15 2.25 1.65 1.65 1.25 1.05 2.2 -0.15 2.25 -0.2 2.4 -0.45 2.35 -0.2 2.8 -0.1 5.65 0.0 7.0 -1.55 7.85 -2.6 7.85 -2.85 7.75 -3.1 7.5 -3.15 7.65 -3.65 Q7.45 -4.65 7.85 -5.6 L8.45 -7.1 8.85 -8.5 8.85 -8.55 8.8 -8.6 8.8 -8.65 5.6 -9.55 3.55 -8.3 2.95 -8.05 1.3 -8.1 M-2.8 -0.05 L-2.15 0.25 -2.15 0.3 -1.25 0.35 -1.1 0.5 -1.0 0.75 -1.3 0.9 -0.85 0.65 -0.8 0.65 -1.0 0.85 -1.55 1.35 Q-2.6 2.45 -4.1 3.0 L-5.05 3.2 -5.25 2.9 Q-6.2 1.95 -7.6 1.9 L-7.75 1.95 -8.85 0.35 -9.35 -1.05 -9.55 -2.25 -9.5 -2.85 -8.9 -3.5 Q-8.35 -3.5 -8.05 -3.2 L-7.3 -3.15 -7.15 -3.1 -7.8 -3.05 -8.0 -2.8 -7.95 -2.55 -7.3 -1.85 -5.75 0.05 -5.3 0.05 -3.95 0.0 -2.9 -0.05 -2.8 -0.05 M0.95 5.6 Q1.45 6.05 0.75 6.45 L0.45 6.55 0.45 6.65 -1.15 6.5 Q-1.45 6.3 -1.4 5.9 L-1.15 5.55 -0.85 5.75 0.25 6.0 0.45 5.95 0.95 5.75 0.95 5.6 M-9.45 2.4 L-9.85 2.6 Q-10.65 2.85 -11.15 2.25 -12.05 1.15 -11.75 -0.25 L-11.65 -0.45 -10.95 -0.9 -10.85 -0.75 -10.05 0.65 Q-9.45 1.5 -9.45 2.4 M9.65 2.7 Q9.3 3.85 8.2 3.8 7.85 3.8 7.85 3.45 7.75 2.75 8.15 2.0 L8.4 1.15 Q8.45 0.65 8.85 0.4 10.05 0.45 9.85 1.7 L9.65 2.7" fill="#ad7a3f" fill-rule="evenodd" stroke="none"/>
    <path d="M-1.65 16.15 L-2.35 15.8 -3.6 14.95 -3.05 14.9 -5.35 12.25 Q-7.15 10.25 -7.6 7.6 -8.05 5.1 -10.3 4.15 L-9.75 3.55 -9.45 2.4 Q-9.45 1.5 -10.05 0.65 L-10.85 -0.75 -10.95 -0.9 Q-11.45 -1.5 -12.2 -1.65 L-12.65 -1.45 -12.6 -2.05 Q-11.35 -2.55 -10.55 -3.6 L-10.65 -3.75 -10.65 -3.8 -10.35 -6.3 -10.15 -8.1 Q-8.75 -8.3 -7.35 -8.1 L-7.25 -8.0 -7.1 -7.8 -5.95 -7.7 -5.75 -7.7 -5.9 -7.1 -5.9 -6.95 Q-5.85 -6.6 -5.45 -6.45 -4.5 -6.1 -4.15 -7.0 L-3.45 -7.95 -2.3 -8.7 0.4 -6.55 0.45 -6.5 0.5 -7.05 0.45 -6.3 Q0.4 -5.05 0.5 -3.85 L0.7 -1.85 -3.45 -1.9 -3.5 -1.95 -3.8 -2.15 Q-5.6 -3.75 -8.05 -3.85 -9.3 -3.8 -9.5 -2.85 L-9.55 -2.25 -9.35 -1.05 -8.85 0.35 -7.75 1.95 -7.85 2.0 Q-8.7 2.35 -8.6 3.35 L-8.15 4.3 Q-7.5 5.05 -6.45 5.2 L-5.9 5.1 Q-4.85 4.4 -5.05 3.2 L-4.1 3.0 Q-2.6 2.45 -1.55 1.35 L-1.0 0.85 -0.8 0.65 -0.85 0.65 -0.45 0.65 -0.25 0.7 -0.05 1.1 -0.05 1.2 0.1 1.4 0.15 1.5 0.45 1.85 0.4 2.95 0.45 3.35 0.15 3.35 0.15 3.4 0.05 3.4 0.0 3.45 Q-0.9 3.5 -0.85 4.35 L-0.6 4.7 0.5 4.65 0.5 5.05 -0.1 4.95 -0.2 4.95 Q-1.05 4.9 -1.25 5.45 L-0.85 5.75 -1.15 5.55 -1.4 5.9 Q-1.45 6.3 -1.15 6.5 L0.45 6.65 0.4 8.25 -0.1 8.2 Q-2.0 7.95 -3.55 9.2 -2.6 10.9 -1.05 12.3 L-0.95 12.3 Q-0.6 12.8 0.2 12.7 L0.3 12.65 0.15 14.6 Q0.1 15.15 -0.3 15.55 L-0.4 15.55 -0.6 15.65 -0.75 15.7 -1.05 16.35 -1.65 16.15 M3.45 2.95 L4.05 2.4 4.3 2.25 Q5.0 1.85 5.85 1.75 L6.25 1.85 Q6.65 2.0 6.65 2.55 6.65 3.55 5.95 4.2 L5.85 4.3 Q4.9 5.25 3.55 4.85 L3.2 4.5 Q2.85 3.8 3.35 3.05 L3.45 2.95 M-7.65 -5.55 Q-6.7 -5.6 -5.95 -5.05 L-3.05 -2.7 -3.05 -3.15 Q-5.2 -6.5 -9.2 -6.45 L-9.5 -6.15 Q-8.7 -5.55 -7.65 -5.55" fill="#edcdb6" fill-rule="evenodd" stroke="none"/>
    <path d="M-15.4 0.2 L-15.3 0.25 Q-14.65 0.45 -14.5 -0.1 -14.35 -0.6 -14.65 -0.8 L-14.6 -0.85 Q-13.9 -0.75 -13.7 -0.05 -13.55 0.85 -14.1 1.5 -14.9 1.55 -15.4 0.85 L-15.4 0.2 M-13.9 5.95 L-13.95 6.25 Q-14.05 7.25 -13.1 7.5 -11.85 7.85 -11.55 6.7 -11.2 5.25 -12.7 5.05 L-13.4 5.25 -12.65 4.65 Q-11.5 5.05 -10.45 5.95 -10.3 7.8 -11.85 8.9 -13.5 9.25 -14.25 7.6 -14.3 6.6 -13.9 5.95 M10.25 5.45 L10.45 5.05 Q10.75 4.3 11.55 5.25 L11.75 7.6 Q11.75 8.85 10.3 9.15 8.5 9.45 8.1 7.85 7.95 7.1 8.55 6.95 8.65 7.6 9.4 7.8 10.65 8.2 10.95 7.05 11.3 5.75 10.25 5.45" fill="#999999" fill-rule="evenodd" stroke="none"/>
    <path d="M-14.65 -0.8 Q-14.35 -0.6 -14.5 -0.1 -14.65 0.45 -15.3 0.25 L-15.4 0.2 Q-15.75 0.05 -15.7 -0.35 -15.65 -0.95 -15.05 -0.95 L-14.65 -0.8 M-13.4 5.25 L-12.7 5.05 Q-11.2 5.25 -11.55 6.7 -11.85 7.85 -13.1 7.5 -14.05 7.25 -13.95 6.25 L-13.9 5.95 -13.4 5.25 M10.25 5.45 Q11.3 5.75 10.95 7.05 10.65 8.2 9.4 7.8 8.65 7.6 8.55 6.95 L8.55 6.55 Q8.6 5.4 9.8 5.35 L10.25 5.45" fill="#cccccc" fill-rule="evenodd" stroke="none"/>
    <path d="M0.45 3.35 Q1.0 3.45 0.95 4.05 L0.75 4.5 0.5 4.65 -0.6 4.7 -0.85 4.35 Q-0.9 3.5 0.0 3.45 L0.05 3.4 0.15 3.4 0.15 3.35 0.45 3.35 M-7.75 1.95 L-7.6 1.9 Q-6.2 1.95 -5.25 2.9 L-5.05 3.2 Q-4.85 4.4 -5.9 5.1 L-6.45 5.2 Q-7.5 5.05 -8.15 4.3 L-8.6 3.35 Q-8.7 2.35 -7.85 2.0 L-7.75 1.95" fill="#ffffff" fill-rule="evenodd" stroke="none"/>
    <path d="M0.4 8.25 L3.65 7.95 3.8 8.15 3.3 9.0 1.95 10.9 0.9 11.85 0.3 12.15 -0.95 12.3 -1.05 12.3 Q-2.6 10.9 -3.55 9.2 -2.0 7.95 -0.1 8.2 L0.4 8.25 M-1.55 10.25 Q-1.85 10.6 -1.55 11.0 -0.85 12.05 0.3 11.4 L0.75 10.85 Q0.9 9.85 -0.15 9.9 L-0.2 9.9 -0.3 9.95 -0.35 10.05 -0.6 9.95 Q-1.25 9.75 -1.55 10.25" fill="#9933cc" fill-rule="evenodd" stroke="none"/>
    <path d="M-1.55 10.25 Q-1.25 9.75 -0.6 9.95 L-0.35 10.05 -0.3 9.95 -0.2 9.9 -0.15 9.9 Q0.9 9.85 0.75 10.85 L0.3 11.4 Q-0.85 12.05 -1.55 11.0 -1.85 10.6 -1.55 10.25" fill="#cc66ff" fill-rule="evenodd" stroke="none"/>
    <path d="M-18.2 13.4 L-18.0 14.05 -17.95 14.35 -18.1 14.4 -18.15 14.1 -18.2 13.4 -18.2 13.35 -18.2 13.4 M-30.05 0.45 L-30.0 0.3 -30.05 0.45" fill="#cc0000" fill-rule="evenodd" stroke="none"/>
  </g>
</svg>
