<?xml version="1.0" encoding="UTF-8" standalone="no"?>
<svg xmlns:xlink="http://www.w3.org/1999/xlink" height="263.95px" width="137.05px" xmlns="http://www.w3.org/2000/svg">
  <g transform="matrix(1.0, 0.0, 0.0, 1.0, 65.0, 106.15)">
    <path d="M9.6 -98.4 Q9.4 -98.9 8.65 -98.95 L6.5 -98.85 6.3 -99.5 Q5.95 -101.1 4.25 -101.05 L3.7 -100.95 1.2 -100.55 -0.2 -100.0 Q-0.6 -99.8 -0.55 -99.4 L-1.8 -98.55 -2.15 -98.1 -2.3 -98.05 -2.2 -98.0 -2.35 -97.65 Q-1.4 -98.6 -0.05 -98.7 L0.15 -98.7 0.55 -98.75 Q1.9 -98.65 2.9 -97.8 L3.75 -96.6 Q4.0 -96.0 4.65 -95.85 5.25 -95.7 5.8 -95.85 L6.45 -96.0 6.6 -96.0 6.9 -96.1 7.1 -96.15 7.4 -96.3 7.55 -96.35 8.8 -97.15 Q9.15 -97.2 9.45 -97.45 L9.65 -97.8 10.2 -98.0 Q10.0 -98.35 9.6 -98.4 M-5.7 -101.8 L-5.45 -102.05 -5.4 -102.1 -3.9 -103.15 -2.55 -103.85 Q3.1 -105.9 8.6 -104.05 L10.5 -103.3 12.15 -100.75 13.2 -98.85 13.85 -97.3 Q14.1 -96.95 13.9 -96.4 13.7 -95.9 13.15 -96.0 L11.9 -96.25 Q10.9 -96.45 10.05 -95.8 L9.85 -95.6 7.15 -93.75 Q6.7 -93.4 6.1 -93.25 L4.45 -93.15 4.2 -93.15 Q3.45 -93.45 2.95 -94.15 L1.25 -96.25 -1.05 -95.95 -1.35 -95.8 -3.3 -95.6 -3.55 -95.8 -3.65 -96.1 -3.65 -96.15 -3.4 -96.35 -3.3 -96.45 -3.35 -96.7 -3.35 -96.85 -3.75 -98.4 -3.85 -98.95 -4.25 -101.5 -5.45 -101.8 -5.7 -101.8 M17.65 -87.0 L17.7 -86.7 17.9 -86.0 17.9 -85.75 17.85 -85.7 17.8 -85.5 Q17.25 -85.95 16.45 -85.85 14.85 -85.55 13.6 -84.45 L13.45 -84.3 14.05 -83.05 14.8 -80.95 14.85 -80.95 Q14.75 -80.45 15.0 -79.65 L15.65 -79.2 14.0 -75.5 13.65 -74.1 13.25 -73.95 12.6 -73.75 10.75 -73.6 10.45 -73.65 8.15 -74.05 4.8 -74.3 -1.5 -73.7 -1.8 -73.6 -1.85 -73.5 -1.8 -73.4 -1.85 -73.4 -2.1 -73.7 -3.55 -75.75 -4.1 -76.75 -5.2 -79.3 Q-5.7 -80.5 -5.75 -81.8 L-5.7 -82.35 -6.05 -82.55 -6.3 -82.8 -6.35 -82.9 -7.25 -83.6 -7.4 -83.25 -7.5 -83.0 -7.65 -82.7 -7.65 -80.95 -7.65 -80.3 -7.05 -78.1 -6.9 -77.65 -7.95 -79.2 -8.1 -79.4 Q-8.55 -80.3 -8.55 -81.15 -9.25 -81.1 -9.2 -81.85 L-9.2 -81.95 -8.95 -82.4 -8.8 -82.8 -8.9 -82.45 -9.0 -83.05 Q-8.8 -84.15 -8.85 -85.2 L-8.9 -86.2 -9.0 -87.15 Q-9.15 -89.45 -10.4 -91.35 L-10.9 -92.1 -11.15 -92.15 -10.85 -92.45 -9.85 -92.7 -9.6 -92.7 -9.5 -92.6 -9.0 -91.85 -8.5 -90.8 -8.4 -90.55 -8.3 -90.25 -7.35 -87.05 -7.25 -86.75 Q-6.95 -86.35 -6.5 -86.4 L-6.4 -85.8 -6.0 -85.55 -6.0 -85.45 -5.75 -85.0 Q-5.35 -84.05 -4.6 -83.35 L-4.45 -83.15 -4.15 -82.7 -3.6 -82.3 -3.4 -82.35 -2.8 -82.55 -2.65 -82.6 -2.35 -82.8 -2.35 -82.85 Q-2.0 -83.2 -2.05 -83.85 L-2.1 -84.2 -2.15 -84.4 -2.45 -85.0 -0.2 -84.7 0.05 -84.65 Q-0.25 -83.7 -1.05 -82.9 -1.9 -82.15 -2.3 -81.1 L-2.05 -79.05 -1.85 -77.55 -1.7 -78.55 -1.5 -78.3 -0.8 -78.2 0.95 -79.1 Q1.85 -79.7 2.9 -79.65 L5.6 -79.55 8.7 -79.6 Q9.35 -79.65 9.95 -80.05 10.6 -80.0 11.05 -80.4 L11.7 -80.75 11.7 -80.8 11.85 -80.95 11.95 -81.1 11.85 -81.45 11.45 -81.6 11.3 -81.6 11.05 -81.75 10.8 -81.8 11.0 -81.85 12.65 -82.05 11.2 -82.55 11.25 -82.65 11.15 -82.65 10.7 -82.7 10.7 -82.65 Q8.0 -82.2 5.6 -81.2 L5.25 -81.25 4.6 -81.35 4.2 -81.45 3.85 -81.5 3.25 -81.55 2.65 -81.65 2.0 -81.75 Q0.2 -81.95 -1.1 -80.3 L-1.1 -81.0 -0.75 -81.9 -0.55 -82.2 0.8 -83.75 0.85 -83.75 2.1 -83.4 1.0 -83.7 1.1 -83.85 1.3 -83.9 3.95 -83.15 5.4 -82.85 7.25 -83.0 8.6 -83.5 9.1 -83.9 10.6 -85.0 11.15 -84.85 11.6 -84.95 12.35 -85.1 12.75 -85.05 12.9 -85.3 Q13.4 -86.15 14.35 -86.7 L15.3 -87.1 15.4 -87.1 16.15 -87.25 16.3 -87.25 16.4 -87.25 16.55 -87.25 16.95 -87.2 17.25 -87.1 17.65 -86.8 17.6 -86.95 17.65 -87.0 M11.0 -81.85 L11.3 -81.65 11.0 -81.85 M5.6 -90.5 L6.05 -90.6 6.5 -91.0 Q6.2 -90.5 5.6 -90.5 M3.95 -89.8 L3.95 -89.85 4.0 -89.85 3.95 -89.8 M5.8 -89.55 L5.7 -89.8 Q6.75 -89.5 7.65 -88.5 L7.65 -88.4 7.7 -88.0 7.8 -87.4 8.3 -86.2 8.25 -86.0 8.2 -85.9 8.15 -85.95 Q7.65 -85.5 7.6 -84.8 L7.7 -84.35 Q7.8 -84.1 8.0 -84.0 L7.5 -83.75 6.9 -83.4 5.85 -83.15 5.8 -83.15 5.55 -83.45 5.45 -83.8 Q4.95 -84.6 5.45 -85.4 L5.75 -85.85 6.0 -86.05 6.15 -86.1 6.2 -86.2 6.5 -86.3 6.75 -86.35 6.3 -86.3 Q6.9 -87.4 6.35 -88.65 L6.2 -89.05 5.8 -89.55 M1.5 -77.6 Q2.7 -76.7 4.1 -76.25 6.45 -75.5 8.2 -77.2 L8.65 -77.4 Q9.8 -77.45 9.7 -78.45 L9.95 -78.45 9.7 -78.6 9.3 -78.95 7.7 -79.1 Q6.65 -79.0 5.85 -78.25 5.4 -77.85 4.95 -77.8 L3.55 -78.3 3.5 -78.35 Q2.45 -79.2 1.25 -78.85 1.0 -78.8 0.9 -78.55 0.5 -77.75 1.5 -77.6 M-9.4 -90.4 L-9.35 -90.3 -9.4 -90.4 M-11.3 -90.25 L-11.3 -90.3 -11.25 -90.3 -11.3 -90.25 M-56.85 36.5 L-56.75 36.45 -51.5 38.75 -51.15 38.9 -49.95 39.3 -49.7 39.4 -49.9 39.5 Q-51.35 40.35 -50.0 41.4 -49.55 41.75 -49.15 41.4 L-48.65 40.9 -48.65 40.95 -47.55 44.4 -47.5 44.6 -48.15 43.4 Q-48.6 44.6 -47.8 46.3 -47.0 47.9 -49.35 47.9 -50.1 46.8 -50.15 45.6 -50.7 43.3 -51.85 41.7 L-52.2 42.05 -51.1 46.2 Q-53.1 46.2 -53.35 44.3 -53.55 42.65 -54.05 41.35 L-52.9 41.3 -52.8 41.2 Q-51.1 39.1 -53.65 38.3 L-54.2 38.35 -54.4 38.4 Q-54.95 38.75 -55.05 39.35 -55.25 40.5 -54.75 41.0 -55.1 41.85 -54.65 43.1 -55.4 43.25 -55.85 42.5 -56.55 40.15 -56.75 37.65 L-56.85 36.5 M55.2 38.05 L56.1 38.0 Q56.35 38.55 56.1 39.45 L55.3 42.85 54.8 44.65 Q54.5 45.45 54.0 45.85 52.8 45.65 52.35 44.45 52.3 42.7 53.1 41.3 53.85 39.9 53.35 38.1 L53.75 38.1 55.2 38.05" fill="#9900cc" fill-rule="evenodd" stroke="none"/>
    <path d="M-0.55 -99.4 Q-0.6 -99.8 -0.2 -100.0 L1.2 -100.55 3.7 -100.95 4.25 -101.05 Q5.95 -101.1 6.3 -99.5 L6.5 -98.85 8.65 -98.95 Q9.4 -98.9 9.6 -98.4 L9.1 -98.4 Q8.35 -98.35 7.6 -97.95 L7.35 -97.85 6.05 -97.8 5.85 -97.8 5.45 -97.85 4.8 -99.05 Q3.85 -100.45 2.05 -100.15 0.6 -100.05 -0.55 -99.4 M9.65 -97.8 L9.45 -97.45 Q9.15 -97.2 8.8 -97.15 L9.25 -97.6 9.45 -97.75 9.5 -97.75 9.6 -97.8 9.65 -97.8 M0.55 -98.75 L0.15 -98.7 -0.05 -98.7 0.55 -98.75 M-5.7 -101.8 L-5.45 -101.8 -4.25 -101.5 -3.85 -98.95 -3.75 -98.4 -3.35 -96.85 -3.35 -96.7 -3.3 -96.45 -3.4 -96.35 -3.65 -96.15 -3.65 -96.1 -3.55 -95.8 -3.3 -95.6 -1.35 -95.8 -1.05 -95.95 1.25 -96.25 2.95 -94.15 Q3.45 -93.45 4.2 -93.15 L4.45 -93.15 6.1 -93.25 Q6.7 -93.4 7.15 -93.75 L9.85 -95.6 10.05 -95.8 Q10.9 -96.45 11.9 -96.25 L13.15 -96.0 Q13.7 -95.9 13.9 -96.4 14.1 -96.95 13.85 -97.3 L13.2 -98.85 12.15 -100.75 10.5 -103.3 Q14.65 -101.35 17.35 -97.05 18.4 -94.8 18.5 -92.5 18.5 -90.25 17.6 -87.95 L17.65 -87.2 17.65 -87.0 17.6 -86.95 17.65 -86.8 17.25 -87.1 16.95 -87.2 16.55 -87.25 16.4 -87.25 16.3 -87.25 16.15 -87.25 15.4 -87.1 15.3 -87.1 15.2 -87.05 15.6 -87.6 Q16.0 -88.4 16.05 -89.3 L16.1 -89.4 15.6 -92.15 14.85 -93.15 14.15 -93.8 13.65 -94.15 9.55 -94.3 7.95 -93.15 Q7.15 -92.5 6.25 -92.75 L6.3 -92.35 6.05 -92.1 6.45 -91.9 6.7 -91.7 6.65 -91.45 6.5 -91.0 6.05 -90.6 5.6 -90.5 5.0 -90.6 Q4.3 -90.55 4.25 -91.1 L4.0 -91.9 3.9 -92.05 4.2 -92.15 4.65 -92.3 4.6 -92.35 4.4 -92.6 Q3.0 -92.75 2.0 -93.7 0.35 -95.25 -2.1 -94.75 L-2.9 -94.5 -3.4 -94.3 -3.75 -94.1 -4.85 -93.3 -4.95 -93.25 -5.0 -93.2 -5.1 -93.15 -5.15 -93.05 -6.45 -91.2 -6.55 -90.85 -6.55 -90.8 -6.6 -90.45 Q-6.8 -88.9 -6.15 -87.6 L-5.8 -86.95 -5.75 -86.9 -5.7 -86.85 -5.5 -86.55 -5.95 -86.6 -6.25 -86.65 -6.35 -86.65 -6.5 -86.5 -6.5 -86.4 Q-6.95 -86.35 -7.25 -86.75 L-7.35 -87.05 -8.3 -90.25 -8.4 -90.55 -8.35 -90.6 -8.4 -90.6 -8.55 -91.1 -8.45 -90.8 -8.5 -90.8 -9.0 -91.85 -9.5 -92.6 -9.25 -92.25 -9.1 -92.15 -8.95 -91.95 Q-8.55 -91.6 -7.95 -91.8 -7.3 -92.1 -7.4 -92.8 L-7.5 -93.1 -7.35 -93.95 Q-7.05 -96.15 -5.8 -98.05 L-5.05 -99.05 -5.05 -99.15 Q-5.15 -100.0 -5.8 -100.55 L-5.9 -100.6 -6.75 -100.65 -5.7 -101.8 M17.9 -85.75 L17.9 -85.7 18.0 -85.3 18.25 -84.65 18.6 -83.85 18.7 -83.6 18.9 -83.3 Q18.1 -82.45 16.9 -82.1 L16.1 -81.9 15.75 -81.85 15.3 -81.65 Q14.95 -81.4 14.85 -80.95 L14.8 -80.95 14.05 -83.05 13.45 -84.3 13.6 -84.45 Q14.85 -85.55 16.45 -85.85 17.25 -85.95 17.8 -85.5 L17.85 -85.7 17.9 -85.75 M15.65 -79.2 L17.0 -79.15 19.35 -79.65 Q18.1 -76.5 16.05 -73.65 L13.75 -72.75 9.2 -72.4 Q5.4 -72.75 2.1 -71.8 L-1.5 -72.05 -1.65 -72.8 -1.85 -73.4 -1.8 -73.4 -1.85 -73.5 -1.8 -73.6 -1.5 -73.7 4.8 -74.3 8.15 -74.05 10.45 -73.65 10.75 -73.6 12.6 -73.75 13.25 -73.95 13.65 -74.1 14.0 -75.5 15.65 -79.2 M0.85 -83.75 L0.8 -83.75 -0.55 -82.2 -0.75 -81.9 -1.1 -81.0 -1.1 -80.4 -1.5 -79.8 -1.75 -79.4 -2.05 -79.05 -2.3 -81.1 Q-1.9 -82.15 -1.05 -82.9 -0.25 -83.7 0.05 -84.65 L-0.2 -84.7 0.0 -84.8 Q0.95 -84.8 0.85 -83.9 L0.85 -83.75 M-2.1 -84.2 L-2.05 -83.85 Q-2.0 -83.2 -2.35 -82.85 -2.1 -83.5 -2.1 -84.2 M1.5 -77.6 Q0.5 -77.75 0.9 -78.55 1.0 -78.8 1.25 -78.85 2.45 -79.2 3.5 -78.35 L3.55 -78.3 4.95 -77.8 Q5.4 -77.85 5.85 -78.25 6.65 -79.0 7.7 -79.1 L9.3 -78.95 9.7 -78.6 9.95 -78.45 9.7 -78.45 Q9.8 -77.45 8.65 -77.4 L8.2 -77.2 Q6.45 -75.5 4.1 -76.25 2.7 -76.7 1.5 -77.6 M-3.75 -94.1 L-3.7 -94.15 -3.75 -94.15 -3.75 -94.1 M-11.25 -90.3 L-11.2 -90.25 -10.7 -90.15 -10.3 -89.8 -10.15 -89.35 -9.95 -88.5 Q-9.65 -87.7 -10.15 -87.15 L-10.15 -86.95 Q-9.9 -86.5 -9.9 -85.85 L-9.85 -85.6 Q-9.6 -84.75 -9.85 -83.95 L-10.1 -83.65 Q-10.55 -83.35 -11.1 -83.3 -11.5 -83.3 -11.8 -83.6 -12.25 -84.15 -12.25 -84.9 L-12.25 -85.1 Q-12.45 -85.7 -12.15 -86.3 -12.15 -87.05 -11.65 -87.65 L-11.15 -88.05 -11.2 -88.3 -11.35 -88.95 -11.9 -89.3 Q-12.2 -89.7 -11.9 -90.05 L-11.45 -90.25 -11.3 -90.25 -11.25 -90.3 M-10.35 -84.3 L-10.4 -84.3 -10.4 -84.2 -10.35 -84.3 M-56.85 36.5 L-56.85 36.4 -56.75 36.45 -56.85 36.5 M-49.65 39.4 L-45.65 39.7 Q-45.8 41.75 -44.65 44.05 -43.55 46.3 -46.6 46.65 L-47.5 44.6 -47.55 44.4 -48.65 40.95 -48.65 40.9 -49.4 39.45 -49.5 39.45 -49.65 39.4 M59.65 37.1 L59.95 37.0 66.15 34.55 65.75 37.05 Q65.5 36.6 64.55 36.4 63.85 36.45 63.35 37.05 62.85 37.6 63.25 38.25 L65.15 38.3 65.65 37.65 65.55 38.95 Q65.4 41.25 63.55 42.55 63.6 41.8 63.95 41.1 64.3 40.4 64.0 39.65 62.85 41.25 62.4 43.45 61.9 45.7 59.55 46.2 60.3 43.3 61.55 40.75 L61.55 39.2 60.1 41.65 58.95 45.2 Q58.3 47.0 56.7 48.2 55.75 48.05 55.35 47.2 56.8 44.0 57.35 40.25 L57.0 40.0 Q56.35 40.6 56.25 41.6 56.1 42.6 55.45 43.35 55.4 44.8 54.35 45.85 L54.0 45.85 Q54.5 45.45 54.8 44.65 L55.3 42.85 56.1 39.45 Q56.35 38.55 56.1 38.0 L55.2 38.05 58.5 37.45 Q57.7 38.35 58.35 39.4 58.9 40.25 59.7 39.55 61.45 37.95 59.65 37.1" fill="#7c00a6" fill-rule="evenodd" stroke="none"/>
    <path d="M9.8 -104.95 Q12.95 -103.3 15.7 -100.85 19.65 -96.45 19.6 -90.6 23.7 -88.25 24.5 -83.6 L24.05 -82.4 29.8 -80.3 Q32.65 -79.3 34.9 -76.95 L48.5 -72.65 61.85 -69.85 Q65.1 -68.3 66.0 -64.9 L65.05 -60.3 Q64.45 -58.1 64.75 -55.5 68.25 -38.0 70.2 -19.85 70.5 -11.55 69.4 -3.6 71.2 -3.35 71.6 -1.55 72.25 6.45 71.95 14.85 71.7 23.15 69.75 30.65 67.65 31.7 67.3 33.75 L66.75 37.75 Q66.0 41.55 63.1 44.4 62.55 46.7 60.55 47.1 58.5 47.45 57.35 49.25 55.65 49.7 55.0 48.5 54.35 47.25 53.15 46.95 50.75 45.4 51.45 42.75 52.3 41.25 52.0 39.75 51.7 38.15 52.05 36.65 50.7 35.75 49.0 35.1 47.3 34.4 47.15 32.45 46.1 26.05 48.7 20.4 48.35 13.95 48.3 7.2 48.2 0.4 46.85 -5.75 46.65 -7.3 47.5 -8.55 48.35 -9.85 47.75 -11.35 47.65 -12.4 48.2 -13.45 48.7 -14.5 48.25 -15.65 46.25 -17.75 46.25 -20.65 46.2 -23.55 45.6 -26.2 44.5 -23.2 44.2 -19.75 43.85 -16.35 42.95 -13.15 41.6 -7.05 39.75 -1.25 37.9 4.6 34.3 9.75 L35.2 12.9 Q35.65 14.5 34.9 16.1 L33.35 18.4 Q35.95 25.3 36.65 33.0 37.35 40.65 38.65 48.15 39.3 54.1 39.0 60.1 L38.3 71.95 38.45 90.4 Q38.95 91.35 38.45 92.1 33.7 94.95 28.35 96.5 28.7 104.85 28.05 113.0 27.3 121.05 26.7 129.15 28.65 130.0 29.45 131.9 28.5 135.4 30.7 137.95 32.8 140.5 34.0 143.4 36.5 146.55 40.0 148.2 41.1 149.7 40.75 151.45 40.35 153.2 40.95 155.0 38.05 157.25 34.1 157.35 L26.35 157.8 Q18.05 157.6 12.0 152.05 L8.75 152.5 Q6.5 151.6 4.55 150.2 2.3 151.1 0.35 152.5 L-2.5 152.45 Q-3.95 152.25 -4.6 153.8 -8.3 158.1 -13.75 157.25 L-24.3 156.25 -29.75 155.15 Q-32.55 154.75 -34.6 152.8 -34.7 151.65 -34.25 150.8 -33.8 149.9 -34.35 148.8 -34.25 147.05 -32.75 146.65 L-30.15 145.55 Q-27.95 143.35 -26.45 140.9 -24.95 138.4 -22.85 136.1 -24.2 133.4 -22.4 131.15 -23.05 129.8 -22.75 128.35 -20.3 127.2 -20.9 125.05 -21.5 122.85 -21.45 120.95 -22.4 115.4 -22.95 109.6 -23.55 103.8 -22.75 98.15 L-28.5 96.35 Q-31.5 95.55 -33.7 93.65 -33.05 85.45 -33.6 77.15 L-34.4 47.1 Q-34.8 32.15 -29.05 19.05 -30.95 17.7 -30.75 15.55 L-30.15 11.75 Q-38.85 -0.45 -40.8 -15.35 L-41.15 -15.65 -42.3 -12.5 Q-43.05 -11.0 -43.0 -9.15 -41.75 -7.8 -42.2 -6.05 -42.85 -5.35 -42.35 -4.7 L-41.6 -3.4 Q-42.2 9.05 -41.15 21.2 -41.95 24.0 -41.1 27.1 -40.3 30.2 -40.35 32.9 -40.45 35.5 -43.9 37.0 -45.05 38.55 -44.4 40.55 L-43.5 43.45 Q-43.05 44.9 -43.65 46.4 -44.35 47.9 -45.8 47.95 -47.25 48.0 -48.3 48.95 -49.65 49.05 -50.55 48.05 -51.45 47.05 -52.75 47.05 -54.35 46.5 -54.6 45.05 -54.85 43.65 -56.5 43.3 -57.8 41.7 -57.8 39.55 -57.85 37.4 -58.15 35.45 -61.5 33.8 -62.4 30.7 -63.35 27.55 -63.8 24.3 -65.65 10.8 -64.7 -2.65 L-63.9 -3.85 -62.2 -29.65 Q-61.25 -42.55 -58.05 -54.4 -57.05 -59.0 -57.75 -63.65 -58.45 -68.3 -55.05 -71.85 -44.0 -72.55 -34.05 -75.95 -24.15 -79.35 -13.25 -80.5 L-12.95 -80.85 Q-15.95 -84.85 -14.8 -90.0 -13.6 -92.0 -11.85 -93.7 -10.15 -95.35 -10.15 -97.85 -8.5 -101.7 -5.0 -103.7 -1.6 -105.75 2.55 -105.95 6.6 -106.6 9.8 -104.95 M10.5 -103.3 L8.6 -104.05 Q3.1 -105.9 -2.55 -103.85 L-3.9 -103.15 -5.4 -102.1 -5.45 -102.05 -5.7 -101.8 -6.75 -100.65 -7.65 -99.3 Q-8.9 -96.95 -9.35 -94.3 L-9.5 -92.7 -9.6 -92.7 -9.85 -92.7 -10.85 -92.45 -11.15 -92.15 -11.95 -91.8 -12.85 -90.7 Q-14.35 -87.6 -13.4 -84.05 L-12.3 -81.95 Q-11.5 -80.95 -10.1 -81.1 L-9.2 -81.95 -9.2 -81.85 Q-9.25 -81.1 -8.55 -81.15 -8.55 -80.3 -8.1 -79.4 L-7.95 -79.2 -6.9 -77.65 -5.45 -75.7 -4.2 -74.15 -4.0 -73.9 Q-2.9 -72.6 -1.5 -72.05 L2.1 -71.8 Q5.4 -72.75 9.2 -72.4 L13.75 -72.75 16.05 -73.65 Q18.1 -76.5 19.35 -79.65 L17.0 -79.15 15.65 -79.2 15.0 -79.65 Q14.75 -80.45 14.85 -80.95 14.95 -81.4 15.3 -81.65 L15.75 -81.85 16.1 -81.9 16.9 -82.1 Q18.1 -82.45 18.9 -83.3 L18.7 -83.6 18.6 -83.85 18.25 -84.65 18.0 -85.3 17.9 -85.7 17.9 -85.75 17.9 -86.0 17.7 -86.7 17.65 -87.0 17.65 -87.2 17.6 -87.95 Q18.5 -90.25 18.5 -92.5 18.4 -94.8 17.35 -97.05 14.65 -101.35 10.5 -103.3 M64.55 -64.45 L64.65 -64.85 64.2 -66.05 62.85 -67.75 62.75 -67.85 49.55 -70.3 49.5 -70.3 42.9 -72.75 38.05 -74.35 37.55 -74.5 35.4 -75.25 34.9 -75.4 34.9 -74.85 34.9 -74.3 34.9 -74.15 33.75 -68.3 32.65 -63.75 31.55 -60.8 31.35 -60.4 31.2 -60.15 31.15 -60.0 30.3 -58.5 29.3 -56.85 Q26.25 -52.15 22.0 -48.35 18.0 -44.8 13.15 -42.65 L9.55 -41.35 9.4 -41.3 7.65 -40.85 Q6.35 -38.45 6.15 -36.1 L6.05 -34.55 6.0 -33.9 5.55 -25.2 Q5.0 -8.55 7.3 8.1 L8.55 16.75 18.55 15.9 Q25.75 14.45 31.5 10.2 33.15 9.0 34.25 7.1 37.25 1.8 39.2 -3.9 40.8 -8.65 41.65 -13.7 L43.1 -21.15 43.2 -21.5 43.4 -22.6 Q44.8 -29.4 44.35 -36.25 44.25 -37.7 44.6 -39.1 44.9 -40.5 45.5 -41.8 L47.0 -44.2 47.95 -45.4 46.4 -39.3 47.75 -40.5 48.05 -40.75 Q47.9 -39.6 47.2 -38.65 L46.85 -38.2 46.7 -38.05 46.65 -37.95 Q45.4 -36.7 46.05 -34.65 L46.2 -33.8 46.95 -28.2 Q47.3 -24.0 47.3 -19.65 L49.05 -16.0 Q49.8 -14.1 48.5 -12.2 49.45 -10.95 49.0 -9.55 L47.95 -6.9 Q49.55 -1.15 49.55 5.35 49.55 11.85 50.25 18.0 L53.8 10.55 55.1 8.45 56.35 6.5 Q58.5 1.9 62.45 -1.15 L63.1 -1.65 63.65 -2.0 Q65.6 -3.25 67.75 -3.7 69.7 -16.05 67.7 -28.45 L65.15 -44.9 63.8 -54.65 Q63.5 -56.8 63.8 -59.05 L64.45 -63.7 64.55 -64.35 64.55 -64.45 M34.95 -35.75 L34.25 -34.05 31.4 -29.15 31.25 -28.95 30.55 -28.05 29.9 -27.3 26.6 -24.0 Q24.95 -22.55 22.35 -23.2 L21.65 -24.25 Q20.0 -26.75 18.85 -29.5 L16.7 -34.15 15.7 -36.1 Q15.35 -37.3 15.8 -38.35 L16.05 -38.8 16.75 -39.45 17.85 -39.35 Q21.5 -39.2 25.35 -39.4 29.7 -39.7 33.8 -39.2 35.0 -38.25 35.35 -36.85 L34.95 -35.75 M51.95 -13.1 L51.75 -13.15 50.8 -13.7 Q52.2 -15.55 54.9 -15.9 L56.25 -15.85 56.8 -15.8 Q58.95 -15.6 60.9 -14.8 L58.25 -14.65 57.15 -14.5 Q55.0 -14.1 52.9 -13.3 L52.8 -13.25 52.35 -13.05 51.95 -13.1 M23.4 -84.3 L22.7 -85.95 22.2 -86.65 Q20.85 -88.35 19.2 -89.3 19.45 -87.75 20.85 -86.45 22.25 -85.15 22.1 -83.4 L18.35 -81.9 16.1 -80.95 Q15.95 -80.45 16.45 -80.2 L16.6 -80.2 18.4 -80.65 Q21.1 -81.45 23.55 -83.1 L23.4 -84.3 M20.5 -83.95 Q20.85 -83.85 21.15 -84.15 20.75 -85.7 19.25 -86.6 19.6 -85.2 20.5 -83.95 M31.0 -78.35 L25.35 -80.65 22.95 -81.6 Q20.25 -80.7 19.65 -78.15 19.0 -75.6 17.55 -73.5 16.2 -71.8 14.25 -71.6 L11.65 -71.15 10.6 -70.95 10.45 -70.95 Q8.55 -67.3 5.65 -63.95 L4.9 -63.4 4.55 -63.15 4.35 -63.0 3.95 -62.7 3.75 -62.6 3.6 -62.5 3.3 -62.3 2.95 -62.05 2.45 -61.75 0.5 -61.05 -4.45 -59.15 -9.1 -57.4 Q-14.6 -56.45 -20.65 -57.25 -22.65 -56.0 -22.65 -53.6 L-22.85 -48.95 Q-23.35 -40.95 -23.15 -33.0 L-22.95 -27.4 -22.9 -27.1 -22.85 -26.2 -22.85 -25.7 -22.7 -23.4 -22.5 -21.0 -22.4 -20.3 Q-21.05 -6.05 -19.3 7.9 L-18.75 10.65 -18.75 10.7 -18.55 11.25 Q-17.9 13.2 -16.8 14.95 L-16.7 15.05 -16.55 15.35 -13.5 16.5 Q-9.5 17.85 -4.9 18.45 0.25 19.1 4.9 17.6 L7.0 16.75 Q4.5 3.5 3.95 -10.7 3.35 -24.95 4.7 -38.85 5.65 -40.35 4.85 -41.25 L3.0 -43.2 Q3.75 -43.25 4.5 -42.7 L5.1 -42.4 6.1 -42.1 6.95 -42.3 8.6 -42.75 8.85 -42.8 Q10.9 -43.45 12.9 -44.4 16.35 -46.05 19.45 -48.55 24.25 -52.5 27.85 -57.6 L29.45 -60.1 29.85 -60.95 30.5 -62.5 32.25 -67.2 32.55 -68.25 Q33.9 -72.45 33.2 -76.95 L32.75 -77.6 31.0 -78.35 M8.35 -92.45 L8.0 -91.95 Q7.9 -91.6 8.05 -91.3 7.0 -91.35 7.35 -90.0 L7.8 -89.8 8.15 -89.4 8.2 -89.25 8.25 -89.0 8.25 -88.95 8.35 -87.65 8.75 -87.05 9.0 -86.85 8.8 -86.6 Q9.5 -86.65 10.05 -86.2 10.6 -85.8 11.25 -85.95 L11.45 -85.95 12.3 -86.2 12.3 -86.15 Q13.1 -86.2 13.6 -86.8 L14.05 -87.1 14.7 -87.8 Q15.2 -88.15 15.2 -88.85 L15.15 -88.85 15.15 -88.9 15.25 -89.55 15.35 -89.55 15.35 -90.0 15.3 -90.85 15.3 -91.05 Q15.35 -92.15 14.45 -92.9 L13.6 -93.1 Q13.05 -93.5 12.3 -93.55 L12.05 -93.6 11.95 -93.6 11.95 -93.5 11.2 -93.65 11.05 -93.65 10.45 -93.55 Q9.15 -93.4 8.35 -92.45 M6.5 -91.0 L6.65 -91.45 6.7 -91.7 6.45 -91.9 6.05 -92.1 6.3 -92.35 6.25 -92.75 Q7.15 -92.5 7.95 -93.15 L9.55 -94.3 13.65 -94.15 14.15 -93.8 14.85 -93.15 15.6 -92.15 16.1 -89.4 16.05 -89.3 Q16.0 -88.4 15.6 -87.6 L15.2 -87.05 15.3 -87.1 14.35 -86.7 Q13.4 -86.15 12.9 -85.3 L12.35 -85.1 11.6 -84.95 11.15 -84.85 10.6 -85.0 9.1 -83.9 8.6 -83.5 7.25 -83.0 5.4 -82.85 3.95 -83.15 1.3 -83.9 1.1 -83.85 1.0 -83.7 2.1 -83.4 0.85 -83.75 0.85 -83.9 Q0.95 -84.8 0.0 -84.8 L-0.2 -84.7 -2.45 -85.0 -2.55 -85.1 -3.65 -85.35 -5.05 -86.1 -5.3 -86.3 -5.5 -86.55 -5.7 -86.85 -5.75 -86.9 -5.8 -86.95 -6.15 -87.6 Q-6.8 -88.9 -6.6 -90.45 L-6.55 -90.8 -6.55 -90.85 -6.45 -91.2 -5.15 -93.05 -5.1 -93.15 -5.0 -93.2 -4.95 -93.25 -4.85 -93.3 -3.75 -94.1 -3.4 -94.3 -2.9 -94.5 -2.1 -94.75 Q0.35 -95.25 2.0 -93.7 3.0 -92.75 4.4 -92.6 L4.6 -92.35 4.65 -92.3 4.2 -92.15 3.9 -92.05 4.0 -91.9 4.25 -91.1 Q4.3 -90.55 5.0 -90.6 L5.6 -90.5 Q6.2 -90.5 6.5 -91.0 M-1.1 -81.0 L-1.1 -80.3 Q0.2 -81.95 2.0 -81.75 L2.65 -81.65 3.25 -81.55 3.85 -81.5 4.2 -81.45 4.6 -81.35 5.25 -81.25 5.6 -81.2 Q8.0 -82.2 10.7 -82.65 L10.7 -82.7 11.15 -82.65 11.25 -82.65 11.2 -82.55 12.65 -82.05 11.0 -81.85 10.8 -81.8 10.3 -81.75 Q6.25 -79.85 1.9 -81.25 L-0.55 -79.9 Q-1.4 -79.4 -1.7 -78.55 L-1.85 -77.55 -2.05 -79.05 -1.75 -79.4 -1.5 -79.8 -1.1 -80.4 -1.1 -81.0 M3.25 -90.8 L3.2 -91.1 2.5 -92.15 2.65 -91.9 2.5 -92.1 2.25 -92.5 0.55 -93.7 -0.25 -93.95 -0.65 -94.0 -1.45 -94.15 -2.1 -93.7 -2.15 -93.65 -2.3 -93.8 -2.65 -93.7 Q-4.2 -93.25 -5.1 -91.8 L-4.3 -91.65 -5.0 -91.75 -5.35 -91.3 -5.5 -90.95 -5.85 -90.05 -5.8 -90.05 -5.85 -88.95 -5.4 -87.55 -5.1 -87.2 Q-4.1 -86.0 -2.7 -86.0 L-0.45 -85.9 Q-0.1 -85.8 0.45 -86.15 L0.7 -86.3 2.4 -86.55 2.55 -86.85 2.6 -86.85 2.65 -86.85 2.6 -86.95 2.85 -87.25 3.25 -87.6 3.35 -87.5 3.5 -87.8 Q4.05 -88.75 3.95 -89.8 L4.0 -89.85 3.95 -89.85 3.9 -89.85 3.25 -90.8 M-0.85 -89.8 L-0.35 -89.6 -0.9 -89.8 -1.0 -89.8 -1.0 -89.9 -0.85 -89.8 M5.8 -89.55 L5.05 -89.3 4.95 -89.25 4.6 -88.6 4.65 -89.1 4.1 -86.95 3.7 -86.5 3.7 -86.35 3.6 -85.95 2.35 -85.95 Q1.4 -85.6 1.8 -84.4 L2.45 -84.4 4.3 -83.7 Q4.95 -83.15 5.8 -83.15 L5.85 -83.15 6.9 -83.4 7.5 -83.75 8.0 -84.0 8.45 -84.15 Q9.35 -84.5 9.5 -85.4 8.65 -85.55 8.2 -85.9 L8.25 -86.0 8.3 -86.2 7.8 -87.4 7.7 -88.0 7.65 -88.4 7.65 -88.5 Q6.75 -89.5 5.7 -89.8 L5.8 -89.55 M-11.0 -58.4 L-10.8 -58.45 -8.35 -58.9 -8.15 -58.95 -7.9 -59.0 -4.65 -59.9 Q-3.05 -60.45 -1.5 -61.15 L-0.85 -61.45 Q0.65 -62.2 2.0 -63.1 L3.95 -64.65 Q6.35 -66.8 8.15 -69.85 L8.2 -69.9 2.35 -69.9 Q-2.05 -69.5 -4.9 -72.7 -7.7 -75.95 -9.75 -79.1 L-10.0 -79.1 -11.9 -79.15 -12.2 -79.15 -14.8 -79.05 -15.95 -78.95 -23.0 -77.7 -24.7 -77.2 -27.75 -76.25 -38.9 -72.85 Q-45.6 -70.9 -53.25 -71.4 L-54.2 -71.45 -56.2 -68.7 -56.15 -66.95 -56.1 -64.75 -56.2 -58.3 -56.4 -55.45 -56.45 -55.05 Q-56.95 -51.65 -58.2 -48.45 -61.3 -31.85 -62.1 -14.5 L-62.35 -7.6 -62.4 -4.3 -62.3 -4.25 -60.25 -3.25 -58.7 -2.55 -58.4 -2.4 Q-56.35 -1.5 -54.75 0.55 -50.95 6.0 -48.2 12.05 L-47.95 12.5 -46.85 14.7 -42.25 23.75 Q-43.3 14.5 -43.2 5.3 L-43.25 2.55 -43.4 0.0 -43.45 -0.4 Q-43.6 -2.05 -44.05 -3.65 L-44.35 -5.05 -43.15 -6.1 -43.05 -6.85 -44.25 -8.6 Q-43.4 -14.55 -42.95 -20.65 L-42.7 -24.45 -42.65 -25.7 -42.55 -33.25 -42.55 -33.8 -42.7 -38.2 Q-42.85 -41.55 -44.25 -44.5 L-45.55 -47.3 -45.7 -47.7 -46.4 -49.65 -46.45 -49.8 -46.05 -49.55 Q-44.8 -48.65 -43.95 -47.45 -43.2 -46.45 -42.75 -45.2 -41.75 -42.3 -41.35 -39.25 L-41.2 -34.05 Q-40.85 -24.8 -39.5 -15.85 L-39.4 -15.15 Q-38.75 -10.95 -37.65 -6.9 -35.75 0.35 -32.5 7.05 L-31.9 8.4 Q-30.05 11.75 -26.2 12.9 -22.4 14.2 -18.55 14.75 L-19.8 10.05 -20.8 6.25 -21.35 2.45 Q-22.0 -4.0 -22.9 -10.3 L-23.55 -17.0 -23.8 -20.5 -24.1 -24.4 -24.45 -32.8 Q-24.65 -40.9 -24.35 -48.95 L-24.3 -50.1 Q-23.95 -52.25 -23.9 -54.45 L-23.9 -54.6 -23.85 -55.15 -23.6 -56.15 -23.35 -56.85 -22.45 -58.3 Q-17.6 -58.95 -12.7 -58.2 L-11.0 -58.4 M33.7 -36.7 L33.35 -37.75 32.8 -37.75 26.8 -37.95 23.7 -38.1 18.35 -38.45 18.1 -38.45 17.25 -38.55 Q16.55 -36.5 17.65 -34.6 L19.4 -30.8 19.75 -30.2 20.05 -29.65 20.95 -27.65 21.0 -27.5 21.25 -26.8 21.5 -26.1 22.2 -24.8 Q22.6 -24.35 23.15 -24.05 L23.25 -24.0 24.15 -23.75 25.1 -23.7 25.45 -23.7 31.2 -30.9 Q31.95 -32.6 33.1 -34.3 33.9 -35.45 33.7 -36.7 M56.2 -12.05 Q54.95 -11.3 53.7 -11.7 L53.4 -11.8 53.3 -11.85 53.6 -11.9 56.2 -12.05 M70.8 -0.05 L70.75 -1.25 70.3 -2.15 Q65.5 -2.55 62.25 0.3 59.55 4.05 57.15 7.9 52.25 15.8 48.6 24.2 47.7 26.45 48.05 28.75 48.4 31.05 48.3 33.5 50.0 34.25 51.6 35.25 53.05 36.15 54.85 36.25 L55.25 36.25 Q63.0 35.15 68.85 29.95 71.25 15.3 70.8 -0.05 M-9.4 -90.4 L-9.35 -90.3 -9.4 -90.4 M-10.35 -84.3 L-10.4 -84.2 -10.4 -84.3 -10.35 -84.3 M-46.25 -45.45 Q-44.55 -43.7 -44.15 -41.55 L-45.2 -42.8 -48.8 -47.0 -48.1 -47.0 -47.35 -46.65 -46.35 -45.55 -46.25 -45.45 M-55.4 1.7 L-55.6 1.4 Q-56.8 -0.85 -59.0 -1.4 L-63.3 -2.3 -63.55 -0.15 Q-64.1 6.25 -63.65 12.7 L-62.95 22.7 Q-62.7 27.65 -60.85 32.05 -55.0 35.55 -48.5 37.35 L-47.65 37.35 Q-46.6 37.3 -45.7 36.7 -44.45 35.9 -43.05 35.45 -41.4 33.65 -41.9 31.35 -42.4 29.05 -42.4 26.8 -46.1 20.55 -48.95 14.05 L-49.5 12.85 -49.65 12.4 -49.65 12.45 Q-52.2 6.9 -55.4 1.7 M-55.0 -10.6 L-53.9 -10.85 -50.95 -10.9 Q-48.7 -10.55 -46.8 -9.2 L-46.6 -9.05 -47.4 -9.1 -54.7 -9.85 -55.0 -10.6 M-48.15 -6.8 L-49.25 -6.7 -50.05 -6.8 Q-51.25 -7.0 -52.25 -7.7 L-48.15 -6.8 M-12.5 23.2 L-11.0 23.6 -11.2 23.2 -10.95 23.7 2.1 24.6 15.05 23.7 Q16.5 23.6 17.3 22.85 L17.55 23.1 18.35 23.2 19.1 22.65 20.15 22.45 20.2 22.4 20.7 22.5 21.5 22.15 Q24.65 21.7 27.45 20.4 L27.6 20.0 Q27.9 20.5 28.65 20.35 L28.85 20.2 29.2 19.65 Q31.7 19.15 32.8 17.05 L34.05 14.0 34.45 12.4 Q34.05 11.55 33.25 11.35 L32.3 12.15 30.1 13.55 29.35 13.95 Q28.5 14.3 28.25 14.8 L27.3 14.55 27.05 14.75 Q26.75 15.0 26.8 15.35 23.7 15.9 21.0 17.0 L20.4 16.75 20.1 16.85 Q19.7 16.95 19.6 17.35 L19.55 17.6 Q19.25 17.4 18.8 17.35 L18.8 17.5 18.8 17.65 Q18.45 17.4 17.9 17.4 L17.45 17.75 17.4 17.85 17.65 18.2 17.25 17.6 7.75 18.05 Q1.4 20.4 -5.85 19.95 L-8.85 19.6 -10.0 19.65 Q-10.85 19.15 -11.8 19.0 -14.9 18.0 -17.5 16.05 -24.1 16.55 -29.2 12.95 L-29.5 14.95 -29.5 15.05 -29.55 15.55 -29.75 16.7 Q-22.1 22.15 -12.5 23.35 L-12.5 23.2 M-18.2 30.5 L-16.75 24.75 Q-23.1 23.35 -28.35 19.95 L-29.75 23.5 -31.2 30.6 Q-32.25 34.8 -32.55 39.3 -33.1 52.55 -32.45 66.1 L-32.35 68.7 -32.3 69.15 Q-32.1 77.0 -32.4 84.7 L-32.85 92.45 -32.9 92.75 -31.3 93.8 -30.2 94.35 -30.25 94.35 -29.1 94.8 -27.9 95.15 -27.75 95.2 Q-23.75 96.5 -19.7 96.6 L-19.75 96.25 -20.25 93.55 Q-20.6 91.9 -21.1 90.3 -23.1 76.65 -22.95 62.7 -22.5 54.05 -21.0 45.85 L-18.2 30.5 M-15.5 26.05 Q-16.6 29.75 -17.0 33.85 -21.05 48.7 -21.3 65.25 -21.5 80.75 -18.5 95.0 L-18.1 96.9 Q-6.9 98.75 4.55 98.25 1.95 79.6 3.0 60.3 4.2 43.05 5.9 26.25 L-4.75 26.0 Q-10.05 25.95 -15.0 24.55 L-15.05 24.75 -15.5 26.05 M-56.75 36.45 L-56.85 36.4 -56.85 36.5 -56.75 37.65 Q-56.55 40.15 -55.85 42.5 -55.4 43.25 -54.65 43.1 -55.1 41.85 -54.75 41.0 L-54.55 40.65 -54.5 40.6 -54.2 40.95 -54.05 41.35 Q-53.55 42.65 -53.35 44.3 -53.1 46.2 -51.1 46.2 L-52.2 42.05 -51.85 41.7 Q-50.7 43.3 -50.15 45.6 -50.1 46.8 -49.35 47.9 -47.0 47.9 -47.8 46.3 -48.6 44.6 -48.15 43.4 L-47.5 44.6 -46.6 46.65 Q-43.55 46.3 -44.65 44.05 -45.8 41.75 -45.65 39.7 L-49.65 39.4 -49.7 39.4 -49.95 39.3 -51.15 38.9 -51.5 38.75 -56.75 36.45 M-7.45 125.35 L-3.8 125.05 Q-3.25 123.05 -3.7 120.9 -4.0 119.5 -3.9 118.1 L-4.4 117.75 Q-5.2 117.05 -4.95 116.05 -4.45 113.95 -3.0 112.35 L-2.85 112.05 Q-1.45 106.8 -5.75 103.5 -6.65 102.75 -7.85 102.4 L-10.6 101.85 -10.6 101.6 -10.55 101.6 Q-11.6 100.8 -13.4 101.1 L-14.0 101.2 -13.85 101.4 -13.85 101.8 -17.35 102.35 Q-17.95 102.5 -18.4 102.95 -19.9 104.35 -20.8 106.25 L-21.3 106.75 -21.15 100.05 -20.95 99.9 -21.15 99.85 Q-21.9 113.8 -19.3 126.95 L-21.4 129.5 -20.95 130.05 Q-20.6 131.0 -21.3 131.65 -22.05 132.3 -22.4 133.05 L-22.05 134.4 -21.8 135.3 -21.25 135.75 -21.0 135.8 Q-19.5 134.75 -17.1 135.25 L-1.65 135.7 -0.75 136.65 Q2.8 140.75 3.8 146.1 L2.15 146.5 -0.1 147.0 Q-4.15 148.75 -7.75 151.45 -11.35 154.2 -16.2 153.85 L-24.6 153.0 Q-28.8 152.45 -32.3 150.45 L-32.35 150.25 Q-32.85 150.5 -33.0 151.05 -33.2 151.85 -32.85 152.3 L-31.85 152.4 Q-30.75 153.0 -29.65 153.05 L-18.45 154.5 Q-12.6 155.1 -7.45 152.85 -4.9 150.95 -2.2 149.35 -0.2 148.05 2.15 147.45 L2.3 147.4 2.5 147.35 2.75 147.3 3.15 147.2 Q3.55 147.75 3.75 148.6 L3.4 149.35 5.0 149.3 Q4.65 148.2 5.2 146.95 L5.6 147.05 5.9 147.1 6.1 147.15 Q10.55 148.3 14.3 151.05 18.35 154.1 23.3 155.15 31.9 155.65 39.9 154.05 40.3 153.6 40.35 152.85 40.5 151.4 39.55 150.9 L39.55 151.35 39.5 151.55 39.45 151.9 39.45 152.0 Q36.6 153.7 33.15 154.1 L26.25 154.45 25.5 154.45 21.65 153.95 Q20.35 151.3 23.2 149.8 L23.3 149.75 22.9 149.7 23.4 148.95 23.6 149.8 24.25 149.95 29.05 150.05 29.9 149.95 36.5 149.25 26.1 148.85 27.7 148.7 34.4 148.15 34.8 148.05 32.05 144.7 Q29.85 142.0 28.4 138.85 L27.65 138.2 25.2 137.4 22.95 137.5 22.45 137.45 14.8 138.55 13.3 138.4 12.1 139.5 Q8.65 142.35 5.55 145.5 L5.15 145.8 Q4.7 142.9 6.9 140.9 L8.5 139.4 8.6 139.1 9.1 138.85 11.1 136.85 Q12.95 135.4 15.35 135.35 L20.05 134.95 26.85 135.3 27.8 136.4 Q28.4 135.7 28.05 134.65 L27.6 133.8 15.6 133.4 13.05 133.85 12.85 133.75 12.75 133.75 12.5 134.05 Q9.3 135.1 6.9 137.9 L6.3 138.45 Q5.35 139.8 3.8 139.65 L3.5 140.0 3.35 139.75 3.15 139.45 3.15 139.4 2.05 138.0 1.9 137.65 1.9 137.6 1.25 136.85 -0.85 134.65 -1.05 134.45 Q-5.8 133.3 -10.9 133.45 L-18.6 133.65 -19.2 133.15 Q-20.35 131.45 -18.6 130.35 L-17.8 130.1 -16.3 130.0 Q-18.05 128.05 -15.95 126.5 -15.55 126.25 -15.05 126.15 L-14.25 126.0 -14.2 126.0 -5.65 126.7 -4.95 126.7 -4.15 126.7 -4.15 126.35 Q-5.75 125.6 -7.45 125.35 M-13.3 148.8 L-14.15 148.65 Q-13.25 147.65 -11.6 147.8 -10.45 147.85 -9.45 147.3 -7.7 142.65 -4.15 139.2 L-2.75 138.0 -3.35 138.5 Q-4.95 137.5 -7.05 137.8 L-7.5 137.8 Q-12.55 136.55 -17.75 136.8 L-21.8 136.6 -21.45 136.2 -22.4 137.55 Q-23.95 140.7 -25.95 143.0 -28.1 145.8 -31.1 147.35 -28.75 147.15 -26.35 147.4 L-26.55 147.4 Q-21.65 148.9 -16.5 149.05 L-16.0 149.25 -14.75 149.6 -14.45 149.05 -12.4 148.95 -13.3 148.8 M-15.45 125.5 L-16.0 125.55 -15.9 125.8 -15.25 125.9 -16.55 125.7 -16.7 125.6 -15.45 125.5 M-12.0 130.05 Q-15.15 129.8 -18.0 130.65 L-10.9 130.9 Q-8.85 131.8 -6.55 132.0 -8.85 130.3 -12.0 130.05 M65.75 37.05 L66.15 34.55 59.95 37.0 59.65 37.1 58.5 37.45 55.2 38.05 53.75 38.1 53.35 38.1 Q53.85 39.9 53.1 41.3 52.3 42.7 52.35 44.45 52.8 45.65 54.0 45.85 L54.35 45.85 Q55.4 44.8 55.45 43.35 56.1 42.6 56.25 41.6 56.35 40.6 57.0 40.0 L57.35 40.25 Q56.8 44.0 55.35 47.2 55.75 48.05 56.7 48.2 58.3 47.0 58.95 45.2 L60.1 41.65 61.55 39.2 61.55 40.75 Q60.3 43.3 59.55 46.2 61.9 45.7 62.4 43.45 62.85 41.25 64.0 39.65 64.3 40.4 63.95 41.1 63.6 41.8 63.55 42.55 65.4 41.25 65.55 38.95 L65.65 37.65 65.75 37.1 65.75 37.05 M22.05 24.25 Q14.95 26.45 7.45 27.1 L7.0 31.0 6.75 33.2 6.75 33.25 6.7 33.65 Q5.65 43.5 4.75 53.5 L4.6 55.0 Q3.3 69.0 4.85 83.15 L4.9 83.35 Q5.4 86.95 5.35 90.9 L5.35 91.35 5.35 92.15 5.4 92.2 Q5.45 95.35 6.1 98.35 L8.65 98.2 10.5 98.1 10.75 98.05 Q19.35 97.35 27.35 95.2 L27.6 95.1 37.2 91.9 Q36.15 82.5 36.85 72.95 37.4 66.0 37.4 58.85 37.35 47.65 35.85 36.65 L34.5 28.3 32.8 20.05 32.75 19.85 32.65 19.9 30.2 21.1 Q26.2 22.95 22.05 24.25 M20.75 103.35 L20.95 102.4 20.75 102.25 20.7 100.2 20.65 99.7 20.55 99.7 19.7 99.6 19.7 99.55 18.0 99.8 17.7 99.85 Q17.3 99.95 17.0 100.2 L17.05 100.6 17.15 101.05 14.25 101.35 Q11.25 102.15 8.85 103.95 7.8 104.75 7.25 105.9 L6.25 107.75 5.7 108.0 5.7 108.15 Q6.55 114.55 5.95 120.7 6.2 120.4 6.6 120.2 8.85 120.15 9.5 122.4 L9.8 123.4 Q10.35 125.65 8.0 126.55 7.3 126.8 6.65 127.2 L6.5 127.45 5.6 131.45 5.65 131.55 6.1 132.1 6.25 132.2 6.65 132.05 7.9 132.2 Q8.9 132.05 9.65 131.35 L9.55 131.9 Q9.5 131.4 9.85 130.95 10.65 129.95 11.95 129.4 13.0 128.95 14.15 128.65 L22.35 127.95 22.05 127.75 21.85 127.6 21.8 127.6 21.65 127.5 19.9 126.8 Q19.45 124.8 19.45 122.75 L19.6 122.4 19.6 122.35 Q20.75 112.95 20.75 103.35 M2.95 100.45 Q3.2 105.55 2.7 110.55 2.2 115.5 2.5 120.45 2.65 122.65 3.55 124.35 L4.05 124.0 Q5.8 118.95 4.8 113.8 3.8 108.55 4.2 103.25 4.0 102.15 4.25 100.8 4.45 99.4 2.95 100.45 M10.45 149.8 L10.75 149.9 10.05 149.4 9.55 149.5 10.45 149.8" fill="#000000" fill-rule="evenodd" stroke="none"/>
    <path d="M-0.55 -99.4 Q0.6 -100.05 2.05 -100.15 3.85 -100.45 4.8 -99.05 L5.45 -97.85 5.85 -97.8 6.05 -97.8 7.35 -97.85 7.6 -97.95 Q8.35 -98.35 9.1 -98.4 L9.6 -98.4 Q10.0 -98.35 10.2 -98.0 L9.65 -97.8 9.6 -97.8 9.5 -97.75 9.45 -97.75 9.25 -97.6 8.8 -97.15 7.55 -96.35 7.4 -96.3 7.1 -96.15 6.9 -96.1 6.6 -96.0 6.45 -96.0 5.8 -95.85 Q5.25 -95.7 4.65 -95.85 4.0 -96.0 3.75 -96.6 L2.9 -97.8 Q1.9 -98.65 0.55 -98.75 L-0.05 -98.7 Q-1.4 -98.6 -2.35 -97.65 L-2.2 -98.0 -2.3 -98.05 -2.15 -98.1 -1.8 -98.55 -0.55 -99.4 M-1.5 -72.05 Q-2.9 -72.6 -4.0 -73.9 L-4.2 -74.15 -5.45 -75.7 -6.9 -77.65 -7.05 -78.1 -7.65 -80.3 -7.65 -80.95 -7.65 -82.7 -7.5 -83.0 -7.4 -83.25 -7.25 -83.6 -6.35 -82.9 -6.3 -82.8 -6.05 -82.55 -5.7 -82.35 -5.75 -81.8 Q-5.7 -80.5 -5.2 -79.3 L-4.1 -76.75 -3.55 -75.75 -2.1 -73.7 -1.85 -73.4 -1.65 -72.8 -1.5 -72.05 M-9.2 -81.95 L-10.1 -81.1 Q-11.5 -80.95 -12.3 -81.95 L-13.4 -84.05 Q-14.35 -87.6 -12.85 -90.7 L-11.95 -91.8 -11.15 -92.15 -10.9 -92.1 -10.4 -91.35 Q-9.15 -89.45 -9.0 -87.15 L-8.9 -86.2 -8.85 -85.2 Q-8.8 -84.15 -9.0 -83.05 L-8.9 -82.45 -8.8 -82.8 -8.95 -82.4 -9.2 -81.95 M-9.6 -92.7 L-9.5 -92.7 -9.35 -94.3 Q-8.9 -96.95 -7.65 -99.3 L-6.75 -100.65 -5.9 -100.6 -5.8 -100.55 Q-5.15 -100.0 -5.05 -99.15 L-5.05 -99.05 -5.8 -98.05 Q-7.05 -96.15 -7.35 -93.95 L-7.5 -93.1 -7.4 -92.8 Q-7.3 -92.1 -7.95 -91.8 -8.55 -91.6 -8.95 -91.95 L-9.1 -92.15 -9.25 -92.25 -9.5 -92.6 -9.6 -92.7 M10.8 -81.8 L11.05 -81.75 11.3 -81.6 11.45 -81.6 11.85 -81.45 11.95 -81.1 11.85 -80.95 11.7 -80.8 11.7 -80.75 11.05 -80.4 Q10.6 -80.0 9.95 -80.05 9.35 -79.65 8.7 -79.6 L5.6 -79.55 2.9 -79.65 Q1.85 -79.7 0.95 -79.1 L-0.8 -78.2 -1.5 -78.3 -1.7 -78.55 Q-1.4 -79.4 -0.55 -79.9 L1.9 -81.25 Q6.25 -79.85 10.3 -81.75 L10.8 -81.8 M-2.45 -85.0 L-2.15 -84.4 -2.1 -84.2 Q-2.1 -83.5 -2.35 -82.85 L-2.35 -82.8 -2.65 -82.6 -2.8 -82.55 -3.4 -82.35 -3.6 -82.3 -4.15 -82.7 -4.45 -83.15 -4.6 -83.35 Q-5.35 -84.05 -5.75 -85.0 L-6.0 -85.45 -6.0 -85.55 -6.4 -85.8 -6.5 -86.4 -6.5 -86.5 -6.35 -86.65 -6.25 -86.65 -5.95 -86.6 -5.5 -86.55 -5.3 -86.3 -5.05 -86.1 -3.65 -85.35 -2.55 -85.1 -2.45 -85.0 M5.8 -83.15 Q4.95 -83.15 4.3 -83.7 L2.45 -84.4 1.8 -84.4 Q1.4 -85.6 2.35 -85.95 L3.6 -85.95 3.7 -86.35 3.7 -86.5 4.1 -86.95 4.65 -89.1 4.6 -88.6 4.95 -89.25 5.05 -89.3 5.8 -89.55 6.2 -89.05 6.35 -88.65 Q6.9 -87.4 6.3 -86.3 L6.75 -86.35 6.5 -86.3 6.2 -86.2 6.15 -86.1 6.0 -86.05 5.75 -85.85 5.45 -85.4 Q4.95 -84.6 5.45 -83.8 L5.55 -83.45 5.8 -83.15 M8.2 -85.9 Q8.65 -85.55 9.5 -85.4 9.35 -84.5 8.45 -84.15 L8.0 -84.0 Q7.8 -84.1 7.7 -84.35 L7.6 -84.8 Q7.65 -85.5 8.15 -85.95 L8.2 -85.9 M-11.3 -90.25 L-11.45 -90.25 -11.9 -90.05 Q-12.2 -89.7 -11.9 -89.3 L-11.35 -88.95 -11.2 -88.3 -11.15 -88.05 -11.65 -87.65 Q-12.15 -87.05 -12.15 -86.3 -12.45 -85.7 -12.25 -85.1 L-12.25 -84.9 Q-12.25 -84.15 -11.8 -83.6 -11.5 -83.3 -11.1 -83.3 -10.55 -83.35 -10.1 -83.65 L-9.85 -83.95 Q-9.6 -84.75 -9.85 -85.6 L-9.9 -85.85 Q-9.9 -86.5 -10.15 -86.95 L-10.15 -87.15 Q-9.65 -87.7 -9.95 -88.5 L-10.15 -89.35 -10.3 -89.8 -10.7 -90.15 -11.2 -90.25 -11.25 -90.3 -11.3 -90.3 -11.3 -90.25" fill="#b997ff" fill-rule="evenodd" stroke="none"/>
    <path d="M12.9 -85.3 L12.75 -85.05 12.35 -85.1 12.9 -85.3 M11.0 -81.85 L11.3 -81.65 11.0 -81.85 M-8.4 -90.55 L-8.5 -90.8 -8.45 -90.8 -8.4 -90.55 M-3.75 -94.1 L-3.75 -94.15 -3.7 -94.15 -3.75 -94.1" fill="#660066" fill-rule="evenodd" stroke="none"/>
    <path d="M8.35 -92.45 L8.05 -92.05 8.85 -91.9 Q10.65 -91.6 11.05 -93.0 L10.7 -93.6 10.45 -93.55 11.05 -93.65 11.2 -93.65 11.95 -93.5 11.8 -92.25 12.4 -92.05 14.4 -92.35 14.3 -92.5 14.15 -92.65 14.1 -92.7 14.05 -92.75 13.95 -92.85 13.6 -93.1 14.45 -92.9 Q15.35 -92.15 15.3 -91.05 L15.3 -90.85 Q15.1 -91.45 14.35 -91.45 L12.5 -91.4 12.05 -91.45 Q11.55 -90.9 11.8 -90.05 L11.7 -89.9 11.5 -88.75 11.55 -88.2 Q11.5 -87.9 11.75 -87.7 12.0 -87.5 12.25 -87.7 L12.5 -87.9 12.2 -88.0 14.4 -87.65 14.5 -87.65 14.7 -87.8 14.05 -87.1 13.6 -86.8 13.8 -87.1 13.85 -87.25 12.25 -87.3 11.95 -87.5 Q11.45 -87.4 11.4 -86.9 L11.4 -86.2 11.45 -85.95 11.25 -85.95 11.25 -86.45 Q11.25 -87.3 10.15 -87.3 L9.9 -87.25 9.7 -87.25 Q9.2 -87.15 9.0 -86.85 L8.75 -87.05 8.35 -87.65 8.25 -88.95 8.25 -89.0 8.2 -89.25 8.15 -89.4 7.8 -89.8 8.75 -89.55 9.15 -89.5 9.5 -89.5 9.75 -89.5 10.4 -89.55 10.45 -89.55 Q11.15 -89.75 11.1 -90.35 11.2 -91.75 9.8 -91.45 L9.05 -91.3 8.05 -91.3 Q7.9 -91.6 8.0 -91.95 L8.35 -92.45 M12.6 -89.55 Q13.7 -89.15 15.25 -89.55 L15.15 -88.9 15.15 -88.85 13.2 -89.0 12.6 -89.05 12.6 -89.45 12.6 -89.55 M10.55 -87.9 Q11.3 -87.75 11.25 -88.55 10.3 -89.15 8.9 -89.0 L9.35 -87.75 10.55 -87.9 M3.25 -90.8 L1.95 -90.9 Q0.5 -90.45 -0.4 -91.25 L2.8 -91.6 2.75 -91.7 2.7 -91.8 2.65 -91.9 2.5 -92.15 3.2 -91.1 3.25 -90.8 M-0.35 -89.6 L0.7 -89.55 0.95 -89.55 1.1 -89.6 1.15 -89.6 Q2.55 -90.0 3.6 -89.25 L2.2 -89.15 2.1 -89.15 1.9 -89.1 1.85 -89.05 1.3 -88.95 -0.4 -88.8 -1.05 -88.95 Q-1.15 -88.5 -0.85 -88.15 L-0.55 -88.15 0.8 -88.1 2.8 -87.85 3.2 -87.6 3.25 -87.6 2.85 -87.25 2.6 -86.95 2.65 -86.85 Q2.5 -86.95 2.55 -87.2 1.65 -87.5 0.75 -87.2 L0.7 -87.2 0.45 -87.15 -0.35 -87.2 -0.75 -87.35 -0.9 -87.45 -1.1 -86.85 -0.5 -85.95 -0.45 -85.9 -2.7 -86.0 -2.35 -86.05 -2.0 -86.1 -2.0 -86.15 -2.0 -87.2 Q-3.3 -87.8 -4.35 -87.55 L-5.1 -87.2 -5.4 -87.55 -5.85 -88.95 -5.8 -90.05 -4.85 -90.0 -3.5 -89.95 Q-3.1 -90.0 -2.7 -89.6 -2.35 -89.25 -1.95 -89.75 -2.15 -90.8 -3.3 -90.8 L-4.55 -90.9 -4.95 -90.95 -5.4 -91.05 -5.5 -90.95 -5.35 -91.3 -5.0 -91.75 -4.3 -91.65 -4.15 -91.65 -4.0 -91.6 -3.75 -91.55 -2.35 -91.3 -2.1 -91.25 -2.05 -92.7 -2.0 -93.45 -2.15 -93.65 -2.1 -93.7 -1.45 -94.15 -0.65 -94.0 -0.7 -94.0 -0.85 -94.05 -1.1 -92.9 -1.2 -90.05 -1.0 -89.9 -1.0 -89.8 -0.9 -89.8 -0.35 -89.6 M0.7 -86.3 L0.75 -86.35 1.4 -86.65 2.5 -86.85 2.55 -86.85 2.4 -86.55 0.7 -86.3 M-4.85 -89.3 L-5.8 -88.95 -5.85 -88.95 -5.7 -88.7 Q-5.4 -88.15 -4.6 -88.1 L-4.15 -88.1 -1.95 -88.15 -2.1 -88.8 -3.1 -88.9 Q-3.6 -88.65 -3.95 -89.15 L-4.85 -89.3 M20.55 99.7 L20.65 99.7 20.7 100.2 20.55 99.7" fill="#999999" fill-rule="evenodd" stroke="none"/>
    <path d="M10.45 -93.55 L10.7 -93.6 11.05 -93.0 Q10.65 -91.6 8.85 -91.9 L8.05 -92.05 8.35 -92.45 Q9.15 -93.4 10.45 -93.55 M8.05 -91.3 L9.05 -91.3 Q8.6 -90.65 8.45 -89.9 L8.4 -89.65 8.75 -89.55 7.8 -89.8 7.35 -90.0 Q7.0 -91.35 8.05 -91.3 M13.6 -93.1 L13.95 -92.85 14.05 -92.75 14.1 -92.7 14.15 -92.65 14.3 -92.5 14.4 -92.35 14.35 -92.4 14.3 -92.45 Q13.45 -93.05 12.45 -93.0 L12.6 -93.5 12.3 -93.55 Q13.05 -93.5 13.6 -93.1 M2.5 -92.1 L2.3 -92.05 Q1.25 -91.95 0.45 -92.55 L-0.05 -92.8 -0.4 -92.85 -0.35 -93.15 -0.25 -93.9 -0.25 -93.95 0.55 -93.7 2.25 -92.5 2.5 -92.1 M9.8 -92.15 L9.55 -91.95 9.5 -91.85 Q10.45 -91.9 10.85 -92.6 L9.8 -92.15 M-2.7 -86.0 Q-4.1 -86.0 -5.1 -87.2 L-4.35 -87.55 Q-3.6 -86.3 -2.05 -86.15 L-2.0 -86.15 -2.0 -86.1 -2.35 -86.05 -2.7 -86.0 M-5.8 -90.05 L-5.85 -90.05 -5.5 -90.95 -5.4 -91.05 -4.95 -90.95 -4.5 -90.9 -4.85 -90.0 -5.8 -90.05 M-4.3 -91.65 L-5.1 -91.8 Q-4.2 -93.25 -2.65 -93.7 L-2.3 -93.8 -2.15 -93.65 -2.0 -93.45 -2.05 -92.7 -3.25 -92.0 -3.75 -91.55 -4.0 -91.6 -4.15 -91.65 -4.3 -91.65 M-4.6 -88.1 Q-5.4 -88.15 -5.7 -88.7 L-5.85 -88.95 -5.8 -88.95 -4.85 -89.3 -4.6 -88.1" fill="#99ffff" fill-rule="evenodd" stroke="none"/>
    <path d="M23.4 -84.3 L23.5 -83.7 23.45 -83.7 23.4 -83.65 23.3 -83.65 22.75 -83.45 22.1 -83.4 Q22.25 -85.15 20.85 -86.45 19.45 -87.75 19.2 -89.3 20.85 -88.35 22.2 -86.65 L22.7 -85.95 23.4 -84.3 M-16.65 -39.45 L-16.3 -39.0 Q-16.25 -37.05 -18.15 -36.55 L-18.5 -36.7 Q-19.0 -37.0 -19.2 -37.65 L-19.05 -38.2 -18.15 -38.15 Q-17.5 -38.3 -17.4 -38.95 -17.25 -39.9 -17.85 -40.25 L-17.05 -40.0 -16.65 -39.45 M30.85 -73.55 L30.1 -73.05 Q28.7 -73.1 28.55 -74.25 L28.7 -75.05 Q28.8 -74.6 29.5 -74.5 30.0 -74.45 30.2 -74.9 30.65 -75.8 29.95 -76.1 30.95 -75.9 31.3 -74.85 L31.35 -74.8 Q31.3 -74.0 30.85 -73.55 M11.45 -85.95 L11.4 -86.2 11.4 -86.9 Q11.45 -87.4 11.95 -87.5 L12.25 -87.3 12.1 -87.25 Q12.0 -86.65 12.3 -86.2 L11.45 -85.95 M12.2 -88.0 L12.5 -87.9 12.25 -87.7 Q12.0 -87.5 11.75 -87.7 11.5 -87.9 11.55 -88.2 L11.5 -88.75 11.7 -89.9 11.8 -90.05 Q11.55 -90.9 12.05 -91.45 L12.5 -91.4 12.2 -89.9 12.15 -89.75 12.6 -89.55 12.6 -89.45 12.6 -89.05 Q12.05 -88.9 11.95 -88.1 L12.2 -88.0 M12.4 -92.05 L11.8 -92.25 11.95 -93.5 11.95 -93.6 12.05 -93.6 12.3 -93.55 12.6 -93.5 12.45 -93.0 12.4 -92.4 12.4 -92.05 M-0.4 -92.85 L-0.55 -92.9 -0.6 -92.9 -0.8 -92.9 -0.55 -92.85 -0.85 -89.95 -0.85 -89.8 -1.0 -89.9 -1.2 -90.05 -1.1 -92.9 -0.85 -94.05 -0.7 -94.0 -0.65 -94.0 -0.25 -93.95 -0.25 -93.9 -0.35 -93.15 -0.4 -92.85 M-0.4 -88.8 L-0.4 -88.65 -0.55 -88.15 -0.85 -88.15 Q-1.15 -88.5 -1.05 -88.95 L-0.4 -88.8 M12.95 -69.5 L13.45 -69.7 Q14.35 -69.8 14.85 -68.9 15.05 -67.55 13.9 -66.9 12.25 -66.3 11.55 -67.7 L11.9 -68.55 Q11.9 -68.1 12.5 -67.9 13.35 -67.65 13.55 -68.4 13.75 -69.35 12.95 -69.5 M7.55 -62.05 L7.65 -62.15 Q8.85 -62.25 9.5 -61.15 9.8 -59.45 8.4 -58.85 7.05 -58.9 6.65 -60.15 L6.75 -60.65 7.25 -60.35 Q8.05 -60.1 8.25 -60.85 8.55 -61.85 7.55 -62.05 M8.6 -49.85 Q9.5 -49.6 9.95 -48.55 9.85 -47.05 8.4 -46.7 7.45 -46.6 6.95 -47.35 L7.05 -48.45 Q7.45 -47.95 8.4 -48.3 L8.7 -48.85 Q8.85 -49.5 8.6 -49.85 M18.15 -56.65 Q19.3 -57.15 19.85 -56.0 L19.85 -55.9 19.9 -55.7 19.9 -55.6 Q20.0 -54.6 19.4 -54.05 L19.1 -53.8 18.8 -53.65 Q17.55 -53.5 17.05 -54.65 L17.0 -55.35 Q17.2 -54.7 18.2 -54.85 L18.7 -55.35 Q19.0 -56.45 18.15 -56.65 M25.05 -65.2 L25.25 -65.5 Q26.7 -65.7 27.1 -64.4 27.15 -62.9 25.9 -62.5 24.9 -62.6 24.45 -63.4 L24.55 -64.1 Q24.7 -63.75 25.25 -63.65 25.65 -63.6 25.9 -63.9 26.5 -64.9 25.35 -65.25 L25.05 -65.2 M-0.5 -85.95 L-1.1 -86.85 -0.9 -87.45 -0.75 -87.35 -0.35 -87.2 -0.4 -87.1 -0.5 -85.95 M-18.25 -53.2 L-18.1 -53.3 Q-16.8 -53.15 -16.35 -51.85 -16.2 -50.05 -17.75 -49.55 -18.95 -49.65 -19.45 -50.65 L-19.25 -52.0 Q-19.15 -51.5 -18.45 -51.45 -17.85 -51.45 -17.7 -52.0 -17.45 -52.95 -18.25 -53.2 M-4.15 -53.8 L-3.6 -53.4 Q-2.8 -53.15 -2.6 -53.9 -2.35 -54.85 -3.35 -55.0 L-3.45 -55.0 -3.4 -55.05 Q-2.1 -55.0 -1.65 -53.8 -1.4 -52.15 -2.75 -51.6 -3.95 -51.75 -4.3 -53.05 L-4.15 -53.8 M-2.45 -39.4 L-2.05 -39.8 Q-0.55 -39.75 -0.25 -38.1 -0.15 -36.7 -1.5 -36.25 -2.55 -36.2 -3.05 -37.35 L-3.05 -37.45 Q-2.5 -36.75 -1.6 -37.3 -1.25 -37.5 -1.2 -37.9 -0.95 -39.35 -2.45 -39.4 M-18.7 -25.15 Q-18.4 -24.6 -17.5 -24.8 -16.9 -24.95 -16.8 -25.6 -16.7 -26.55 -17.35 -26.8 -16.25 -26.85 -15.8 -25.8 -15.3 -24.35 -16.55 -23.5 -18.0 -23.0 -18.7 -24.25 L-18.7 -25.15 M-2.65 -24.95 Q-2.35 -23.8 -1.05 -24.3 L-0.75 -24.85 Q-0.45 -26.3 -1.8 -26.3 -0.2 -27.0 0.85 -24.95 1.0 -23.05 -0.85 -22.65 -2.0 -22.7 -2.6 -23.75 L-2.65 -24.95 M-2.2 -12.5 Q-1.8 -11.7 -0.75 -12.15 L-0.45 -12.7 Q-0.1 -14.1 -1.5 -14.2 L-1.35 -14.4 Q0.2 -14.35 0.95 -12.85 1.1 -11.25 -0.35 -10.75 -1.7 -10.7 -2.35 -11.85 L-2.2 -12.5 M-18.0 -12.8 Q-17.65 -12.3 -16.75 -12.5 -16.1 -12.65 -16.05 -13.3 -15.85 -14.65 -17.05 -14.75 L-16.75 -15.05 Q-15.25 -15.05 -14.75 -13.7 -14.4 -12.1 -15.65 -11.35 -17.45 -11.2 -18.0 -12.7 L-18.0 -12.8 M-15.4 -3.55 L-15.2 -3.7 Q-13.7 -3.9 -13.0 -2.6 -12.8 -0.9 -14.1 -0.15 -15.6 0.15 -16.3 -1.05 L-16.35 -2.05 -16.3 -1.95 Q-15.85 -1.25 -15.0 -1.65 -14.65 -1.8 -14.6 -2.2 -14.35 -3.45 -15.4 -3.55 M-2.4 -1.05 L-1.4 -0.85 -1.1 -1.35 Q-0.9 -2.4 -1.8 -2.5 0.0 -3.45 1.05 -1.3 0.9 -0.05 -0.25 0.55 -1.8 0.65 -2.4 -0.65 L-2.4 -1.05 M-0.4 8.55 L-0.8 9.0 Q-1.05 9.65 -0.45 9.95 0.25 10.3 0.55 9.65 0.9 8.9 0.35 8.65 1.45 8.85 2.05 10.1 2.55 11.05 1.6 11.8 -0.25 12.4 -1.3 11.0 -1.3 9.5 -0.5 8.55 L-0.4 8.55 M-13.3 7.3 L-13.05 7.25 Q-12.05 7.4 -11.65 8.35 L-11.65 9.1 Q-11.8 10.05 -12.65 10.5 L-12.7 10.55 -13.05 10.7 Q-14.25 10.6 -14.75 9.6 L-14.75 9.55 Q-14.9 8.65 -14.6 8.1 L-14.6 8.15 Q-14.6 9.35 -13.3 9.1 -12.9 9.05 -12.75 8.6 -12.5 7.55 -13.3 7.3 M2.3 37.55 L2.0 37.9 Q1.35 38.85 0.0 38.7 -1.2 37.85 -0.6 36.35 L-0.5 36.15 Q-0.6 36.85 0.3 36.95 0.75 37.0 0.95 36.6 1.45 35.5 0.45 35.25 L0.9 35.2 Q1.85 35.25 2.45 35.85 L2.65 36.1 2.65 36.2 2.5 37.1 2.3 37.55 M-13.4 32.35 Q-12.65 32.5 -12.25 33.25 -11.9 35.3 -13.55 36.1 L-14.3 36.2 Q-15.35 36.15 -16.0 35.0 -15.95 34.1 -15.5 33.45 -15.4 34.3 -14.35 34.35 -13.45 34.4 -13.25 33.55 -13.05 32.75 -13.4 32.35 M-13.05 93.7 L-13.55 94.45 -13.8 94.65 -14.0 94.75 Q-15.15 94.85 -15.8 94.1 L-16.0 93.85 -15.95 92.9 -15.05 92.95 Q-14.6 92.9 -14.5 92.45 -14.3 91.55 -14.8 91.25 L-14.75 91.2 Q-13.25 91.05 -12.9 92.45 -12.85 93.15 -13.05 93.7 M1.25 93.95 Q1.05 94.7 0.35 95.1 L-2.0 94.35 -1.95 93.7 Q-0.85 93.85 -0.65 92.7 -0.5 92.05 -0.75 91.75 L-0.45 91.55 Q0.35 91.2 0.7 91.8 L1.1 92.55 1.25 92.9 1.3 93.65 1.25 93.95 M0.3 84.2 Q0.0 84.9 -0.85 85.3 -2.3 85.5 -2.85 84.25 L-2.9 83.05 Q-2.65 83.6 -1.8 83.45 -1.2 83.35 -1.1 82.7 -0.8 81.45 -1.85 81.3 L-0.75 81.35 0.2 82.3 0.5 82.8 0.3 84.2 M-17.4 47.15 Q-17.1 47.7 -16.15 47.5 -15.5 47.35 -15.4 46.7 -15.3 45.75 -15.85 45.45 -14.9 45.55 -14.45 46.35 -14.3 47.95 -15.55 48.8 -17.05 49.05 -17.45 47.8 L-17.4 47.15 M-0.3 47.95 Q0.4 47.95 1.0 48.85 1.3 50.75 0.05 51.5 -1.0 51.65 -1.3 50.75 L-1.55 49.5 -1.45 49.5 Q-0.45 49.8 -0.25 48.9 -0.1 48.3 -0.3 47.95 M-1.8 59.95 Q-0.7 60.05 -0.45 61.2 -0.25 62.65 -1.35 63.05 -2.75 63.15 -3.5 61.95 L-3.6 61.3 Q-3.2 61.95 -2.25 61.55 L-1.85 60.85 -1.8 59.95 M-17.45 58.5 L-17.1 58.1 Q-15.75 58.15 -15.25 59.4 -15.0 61.45 -16.65 62.0 -17.95 61.9 -18.35 60.75 L-18.25 60.15 -17.2 60.35 Q-16.75 60.25 -16.65 59.85 -16.3 58.65 -17.45 58.5 M-17.65 70.05 Q-17.3 70.9 -16.15 70.5 L-15.8 69.9 Q-15.6 68.85 -16.3 68.55 -15.3 68.55 -14.8 69.5 -14.65 71.25 -15.9 72.3 -17.3 72.75 -17.8 71.2 L-17.65 70.05 M-4.0 71.4 L-3.4 71.4 -2.85 70.9 Q-2.65 70.05 -3.15 69.7 L-2.75 69.55 Q-1.45 69.4 -0.9 70.45 -0.6 72.05 -1.65 72.8 -3.2 72.9 -4.0 71.55 L-4.0 71.4 M-15.6 80.35 Q-14.65 80.7 -14.3 81.95 -14.3 83.1 -15.2 83.6 -16.65 83.85 -17.3 82.6 L-17.2 81.7 -16.75 81.95 Q-15.75 82.25 -15.55 81.35 -15.4 80.7 -15.6 80.35 M-7.45 125.35 Q-5.75 125.6 -4.15 126.35 L-4.15 126.7 -4.95 126.7 -5.65 126.7 -14.2 126.0 -14.25 126.0 -15.25 125.9 -15.9 125.8 -16.0 125.55 -15.45 125.5 -11.65 125.25 -11.0 125.2 -10.65 125.2 -10.25 125.15 -7.45 125.35 M-18.6 133.65 L-10.9 133.45 Q-5.8 133.3 -1.05 134.45 L-0.85 134.65 1.25 136.85 1.9 137.6 1.9 137.65 2.05 138.0 3.15 139.4 3.15 139.45 3.35 139.75 3.95 140.8 5.35 140.0 6.9 137.9 Q9.3 135.1 12.5 134.05 L13.05 133.85 15.6 133.4 27.6 133.8 28.05 134.65 Q28.4 135.7 27.8 136.4 L26.85 135.3 20.05 134.95 15.35 135.35 Q12.95 135.4 11.1 136.85 L9.1 138.85 8.6 139.1 8.5 139.4 6.9 140.9 Q4.7 142.9 5.15 145.8 L5.15 145.95 6.0 146.1 6.15 146.15 8.05 146.7 8.7 146.95 Q12.3 148.3 15.45 150.8 18.25 153.05 21.65 153.95 L25.5 154.45 26.25 154.45 33.15 154.1 Q36.6 153.7 39.45 152.0 L39.45 151.9 39.5 151.55 39.55 151.35 39.55 150.9 Q40.5 151.4 40.35 152.85 40.3 153.6 39.9 154.05 31.9 155.65 23.3 155.15 18.35 154.1 14.3 151.05 10.55 148.3 6.1 147.15 L5.9 147.1 5.6 147.05 5.2 146.95 Q4.65 148.2 5.0 149.3 L3.4 149.35 3.8 148.5 3.65 147.25 3.65 147.1 2.75 147.3 2.5 147.35 2.3 147.4 2.15 147.45 Q-0.2 148.05 -2.2 149.35 -4.9 150.95 -7.45 152.85 -12.6 155.1 -18.45 154.5 L-29.65 153.05 Q-30.75 153.0 -31.85 152.4 L-32.85 152.3 Q-33.2 151.85 -33.0 151.05 -32.85 150.5 -32.35 150.25 L-32.3 150.45 Q-28.8 152.45 -24.6 153.0 L-16.2 153.85 Q-11.35 154.2 -7.75 151.45 -4.15 148.75 -0.1 147.0 L2.15 146.5 3.8 146.1 Q2.8 140.75 -0.75 136.65 L-1.65 135.7 -17.1 135.25 Q-19.5 134.75 -21.0 135.8 L-21.25 135.75 -21.8 135.3 -22.05 134.4 -21.6 135.05 Q-20.95 135.0 -21.05 134.5 L-20.95 133.7 -18.6 133.65 M26.1 148.85 L36.5 149.25 29.9 149.95 29.05 150.05 24.25 149.95 23.6 149.8 23.4 148.95 Q23.65 148.75 24.0 148.7 L26.1 148.85 M-13.85 101.8 L-13.85 101.4 -14.0 101.2 -13.4 101.1 Q-11.6 100.8 -10.55 101.6 L-10.6 101.6 -10.6 101.85 Q-11.45 111.35 -11.55 120.95 L-12.0 121.4 Q-12.5 120.7 -12.65 119.85 -12.9 115.2 -13.4 110.6 -13.95 106.15 -13.85 101.8 M-13.3 148.8 L-12.4 148.95 -14.45 149.05 -16.5 149.05 Q-21.65 148.9 -26.55 147.4 L-26.35 147.4 -19.5 147.6 -13.3 148.8 M-12.0 130.05 Q-8.85 130.3 -6.55 132.0 -8.85 131.8 -10.9 130.9 L-18.0 130.65 Q-15.15 129.8 -12.0 130.05 M20.75 103.35 Q20.75 112.95 19.6 122.35 L19.6 122.4 19.45 122.75 Q19.3 122.95 19.0 122.95 18.75 111.65 17.15 101.05 L17.05 100.6 17.0 100.2 Q17.3 99.95 17.7 99.85 L18.0 99.8 19.7 99.55 19.7 99.6 20.55 99.7 20.7 100.2 20.75 102.25 20.75 103.35 M19.9 126.8 L21.65 127.5 21.8 127.6 21.85 127.6 22.05 127.75 22.35 127.95 14.15 128.65 12.85 128.85 10.4 129.6 Q11.9 128.05 14.0 127.65 L18.05 126.5 19.9 126.8 M10.45 149.8 L9.55 149.5 10.05 149.4 10.75 149.9 10.45 149.8" fill="#666666" fill-rule="evenodd" stroke="none"/>
    <path d="M22.1 -83.4 L22.75 -83.45 23.3 -83.65 23.4 -83.65 23.45 -83.7 23.5 -83.7 23.4 -84.3 23.55 -83.1 Q21.1 -81.45 18.4 -80.65 L18.8 -80.8 18.85 -81.45 18.6 -81.8 18.35 -81.9 22.1 -83.4 M-0.55 -92.9 L-0.55 -92.85 -0.8 -92.9 -0.6 -92.9 -0.55 -92.9 M-4.95 -90.95 L-4.55 -90.9 -4.5 -90.9 -4.95 -90.95" fill="#cccccc" fill-rule="evenodd" stroke="none"/>
    <path d="M9.05 -91.3 L9.8 -91.45 Q11.2 -91.75 11.1 -90.35 11.15 -89.75 10.45 -89.55 L10.4 -89.55 9.75 -89.5 9.5 -89.5 9.15 -89.5 8.75 -89.55 8.4 -89.65 8.45 -89.9 Q8.6 -90.65 9.05 -91.3 M9.0 -86.85 Q9.2 -87.15 9.7 -87.25 L9.9 -87.25 10.15 -87.3 Q11.25 -87.3 11.25 -86.45 L11.25 -85.95 Q10.6 -85.8 10.05 -86.2 9.5 -86.65 8.8 -86.6 L9.0 -86.85 M12.25 -87.3 L13.85 -87.25 13.8 -87.1 13.6 -86.8 Q13.1 -86.2 12.3 -86.15 L12.3 -86.2 Q12.0 -86.65 12.1 -87.25 L12.25 -87.3 M14.7 -87.8 L14.5 -87.65 14.4 -87.65 12.2 -88.0 11.95 -88.1 Q12.05 -88.9 12.6 -89.05 L13.2 -89.0 15.15 -88.85 15.2 -88.85 Q15.2 -88.15 14.7 -87.8 M12.5 -91.4 L14.35 -91.45 Q15.1 -91.45 15.3 -90.85 L15.35 -90.0 15.35 -89.55 15.25 -89.55 Q13.7 -89.15 12.6 -89.55 L12.15 -89.75 12.2 -89.9 12.5 -91.4 M14.4 -92.35 L12.4 -92.05 12.4 -92.4 12.45 -93.0 Q13.45 -93.05 14.3 -92.45 L14.35 -92.4 14.4 -92.35 M10.55 -87.9 L9.35 -87.75 8.9 -89.0 Q10.3 -89.15 11.25 -88.55 11.3 -87.75 10.55 -87.9 M2.65 -91.9 L2.7 -91.8 2.75 -91.7 2.8 -91.6 -0.4 -91.25 Q0.5 -90.45 1.95 -90.9 L3.25 -90.8 3.9 -89.85 3.95 -89.85 3.95 -89.8 Q4.05 -88.75 3.5 -87.8 L3.35 -87.5 3.25 -87.6 3.2 -87.6 2.8 -87.85 0.8 -88.1 -0.55 -88.15 -0.4 -88.65 -0.4 -88.8 1.3 -88.95 1.85 -89.05 1.9 -89.1 2.1 -89.15 2.2 -89.15 3.6 -89.25 Q2.55 -90.0 1.15 -89.6 L1.1 -89.6 0.95 -89.55 0.7 -89.55 -0.35 -89.6 -0.85 -89.8 -0.85 -89.95 -0.55 -92.85 -0.55 -92.9 -0.4 -92.85 -0.05 -92.8 0.45 -92.55 Q1.25 -91.95 2.3 -92.05 L2.5 -92.1 2.65 -91.9 M-0.35 -87.2 L0.45 -87.15 0.7 -87.2 0.75 -87.2 Q1.65 -87.5 2.55 -87.2 2.5 -86.95 2.65 -86.85 L2.6 -86.85 2.55 -86.85 2.5 -86.85 1.4 -86.65 0.75 -86.35 0.7 -86.3 0.45 -86.15 Q-0.1 -85.8 -0.45 -85.9 L-0.5 -85.95 -0.4 -87.1 -0.35 -87.2 M9.8 -92.15 L10.85 -92.6 Q10.45 -91.9 9.5 -91.85 L9.55 -91.95 9.8 -92.15 M-2.05 -92.7 L-2.1 -91.25 -2.35 -91.3 -3.75 -91.55 -3.25 -92.0 -2.05 -92.7 M-4.55 -90.9 L-3.3 -90.8 Q-2.15 -90.8 -1.95 -89.75 -2.35 -89.25 -2.7 -89.6 -3.1 -90.0 -3.5 -89.95 L-4.85 -90.0 -4.5 -90.9 -4.55 -90.9 M-4.85 -89.3 L-3.95 -89.15 Q-3.6 -88.65 -3.1 -88.9 L-2.1 -88.8 -1.95 -88.15 -4.15 -88.1 -4.6 -88.1 -4.85 -89.3 M-4.35 -87.55 Q-3.3 -87.8 -2.0 -87.2 L-2.0 -86.15 -2.05 -86.15 Q-3.6 -86.3 -4.35 -87.55" fill="#ccffff" fill-rule="evenodd" stroke="none"/>
    <path d="M-8.45 -90.8 L-8.55 -91.1 -8.4 -90.6 -8.35 -90.6 -8.4 -90.55 -8.45 -90.8 M-49.7 39.4 L-49.65 39.4 -49.5 39.45 -49.4 39.45 -48.65 40.9 -49.15 41.4 Q-49.55 41.75 -50.0 41.4 -51.35 40.35 -49.9 39.5 L-49.7 39.4 M-54.05 41.35 L-54.2 40.95 -54.5 40.6 -54.55 40.65 -54.75 41.0 Q-55.25 40.5 -55.05 39.35 -54.95 38.75 -54.4 38.4 L-54.2 38.35 -53.65 38.3 Q-51.1 39.1 -52.8 41.2 L-52.9 41.3 -54.05 41.35 M59.65 37.1 Q61.45 37.95 59.7 39.55 58.9 40.25 58.35 39.4 57.7 38.35 58.5 37.45 L59.65 37.1 M65.65 37.65 L65.15 38.3 63.25 38.25 Q62.85 37.6 63.35 37.05 63.85 36.45 64.55 36.4 65.5 36.6 65.75 37.05 L65.75 37.1 65.65 37.65" fill="#9966ff" fill-rule="evenodd" stroke="none"/>
    <path d="M64.2 -66.05 L56.25 -65.8 Q52.15 -66.1 49.55 -69.1 49.1 -69.65 49.5 -70.25 L49.55 -70.3 62.75 -67.85 62.85 -67.75 64.2 -66.05 M32.55 -60.35 L37.35 -57.9 38.85 -56.55 Q40.05 -54.7 40.45 -52.55 L40.95 -49.2 40.55 -49.55 40.25 -50.05 Q39.55 -50.45 39.2 -51.15 38.55 -52.4 38.3 -53.8 L38.15 -54.55 Q33.85 -56.1 29.3 -56.85 L30.3 -58.5 31.15 -60.0 31.2 -60.15 31.35 -60.4 31.5 -60.7 31.85 -60.65 32.55 -60.35 M54.05 8.9 Q52.7 9.35 51.85 8.2 L50.8 6.6 50.55 6.1 50.55 6.15 50.2 5.35 49.45 1.95 49.45 1.8 49.45 1.6 49.45 1.2 49.45 1.1 49.5 0.65 49.55 0.45 49.55 0.35 49.6 0.1 Q49.2 -6.3 51.25 -12.55 L51.6 -12.6 51.95 -13.1 52.35 -13.05 52.8 -13.25 52.9 -13.3 53.0 -12.05 52.95 -11.15 Q52.65 -5.35 51.55 0.45 52.55 1.8 53.1 3.65 53.75 6.0 54.0 8.4 L54.05 8.9 M52.15 -18.3 Q49.45 -19.85 48.5 -23.0 L48.2 -23.7 Q46.6 -27.3 47.0 -31.35 47.25 -34.15 47.8 -36.9 48.25 -39.35 49.1 -41.75 50.3 -45.3 52.3 -48.4 L52.45 -46.7 Q52.45 -42.95 51.8 -39.35 L50.65 -32.1 Q50.0 -27.0 50.95 -22.0 L52.15 -18.3 M-60.25 -3.25 L-62.3 -4.25 Q-61.0 -7.15 -58.7 -9.5 L-59.0 -9.8 -57.95 -8.85 Q-58.1 -7.8 -58.6 -6.7 L-59.55 -4.45 Q-59.85 -3.65 -60.25 -3.25 M-56.1 -64.75 L-56.15 -66.95 -56.2 -68.7 -54.2 -71.45 -53.25 -71.4 Q-45.6 -70.9 -38.9 -72.85 L-27.75 -76.25 -24.7 -77.2 -23.0 -77.7 -15.95 -78.95 -14.8 -79.05 -12.2 -79.15 Q-12.85 -77.45 -12.75 -75.65 L-13.75 -75.75 -15.45 -75.9 Q-21.1 -75.9 -26.5 -74.45 -29.9 -73.55 -33.0 -72.15 L-39.25 -69.6 Q-42.75 -68.25 -46.5 -67.65 L-50.85 -67.3 -51.7 -67.0 Q-53.25 -65.85 -53.1 -64.0 L-53.75 -64.25 -56.0 -64.7 -56.1 -64.75 M-40.4 -48.85 L-40.1 -49.65 -39.75 -50.15 -39.7 -50.15 -39.55 -50.2 -39.45 -50.2 -39.35 -50.05 -39.25 -49.95 -39.25 -49.65 -39.3 -49.55 -38.0 -42.15 Q-37.6 -40.25 -36.35 -38.75 L-33.95 -35.9 -30.8 -32.3 -30.0 -31.05 -32.8 -31.35 -34.05 -33.9 Q-38.4 -35.7 -39.65 -40.8 -40.65 -44.85 -40.4 -48.85 M-39.85 -61.25 Q-38.35 -63.9 -35.45 -64.3 -29.45 -65.05 -23.85 -66.4 -18.15 -66.5 -13.2 -64.05 -12.4 -63.7 -12.55 -62.8 -13.0 -60.45 -15.75 -60.55 -24.8 -60.85 -33.1 -57.75 L-36.8 -56.4 Q-38.8 -55.65 -39.8 -57.3 -41.0 -59.25 -39.85 -61.25 M-52.65 -49.6 L-52.8 -49.65 -52.65 -49.65 -52.65 -49.6 M-56.85 -14.25 Q-58.55 -14.45 -59.6 -16.1 -60.9 -18.15 -60.95 -20.6 -61.1 -25.4 -60.75 -30.2 -60.35 -35.3 -59.35 -40.25 -58.55 -44.2 -56.65 -47.65 -55.9 -49.05 -54.5 -49.7 L-52.95 -49.55 Q-53.55 -47.2 -55.15 -45.0 L-56.35 -43.0 Q-59.4 -36.4 -58.6 -28.95 -58.25 -25.3 -58.2 -21.55 -58.2 -19.8 -57.55 -18.15 -56.85 -16.2 -56.85 -14.25 M-63.55 -0.15 L-63.3 -2.3 -59.0 -1.4 Q-56.8 -0.85 -55.6 1.4 L-55.4 1.7 -55.2 2.05 -55.25 2.1 Q-56.75 2.45 -57.75 1.25 -57.95 1.05 -58.15 1.0 L-58.35 0.95 -60.25 0.3 -60.75 0.2 -63.55 -0.15 M-32.4 84.7 Q-32.1 77.0 -32.3 69.15 L-32.35 68.7 -32.3 65.4 Q-32.7 54.75 -31.95 44.2 -31.3 35.35 -25.7 29.3 L-25.8 29.7 -26.15 30.7 -28.15 35.05 -29.4 40.6 -29.95 44.85 -30.1 47.05 Q-30.2 51.45 -29.7 55.75 -29.2 60.1 -29.25 64.55 L-29.6 71.2 Q-29.8 73.75 -30.4 76.2 L-31.35 80.55 -32.4 84.7" fill="#cc0000" fill-rule="evenodd" stroke="none"/>
    <path d="M38.05 -74.35 L38.05 -72.5 Q37.75 -70.15 36.85 -68.05 41.2 -67.4 44.95 -65.1 47.95 -63.3 49.75 -60.3 51.4 -57.5 51.9 -54.35 L53.65 -57.7 Q54.7 -59.65 56.35 -61.1 L58.55 -63.0 59.25 -63.3 Q60.7 -64.25 62.2 -64.55 L64.55 -64.45 64.55 -64.35 64.45 -63.7 63.8 -59.05 Q63.5 -56.8 63.8 -54.65 L65.15 -44.9 67.7 -28.45 Q69.7 -16.05 67.75 -3.7 65.6 -3.25 63.65 -2.0 L64.25 -3.75 64.7 -5.4 Q65.6 -9.15 64.1 -12.7 L63.6 -13.5 Q60.9 -16.3 56.8 -15.8 L56.25 -15.85 54.9 -15.9 Q52.2 -15.55 50.8 -13.7 L51.75 -13.15 51.95 -13.1 51.6 -12.6 51.25 -12.55 Q49.2 -6.3 49.6 0.1 L49.55 0.35 49.55 0.45 49.5 0.65 49.45 1.1 49.45 1.2 49.45 1.6 49.45 1.8 49.45 1.95 50.2 5.35 50.55 6.15 50.55 6.1 50.8 6.6 51.85 8.2 Q52.7 9.35 54.05 8.9 L54.3 8.8 55.1 8.45 53.8 10.55 50.25 18.0 Q49.55 11.85 49.55 5.35 49.55 -1.15 47.95 -6.9 L49.0 -9.55 Q49.45 -10.95 48.5 -12.2 49.8 -14.1 49.05 -16.0 L47.3 -19.65 Q47.3 -24.0 46.95 -28.2 L46.2 -33.8 46.05 -34.65 Q45.4 -36.7 46.65 -37.95 L46.7 -38.05 46.85 -38.2 47.2 -38.65 Q47.9 -39.6 48.05 -40.75 L47.75 -40.5 46.4 -39.3 47.95 -45.4 47.0 -44.2 45.5 -41.8 Q44.9 -40.5 44.6 -39.1 44.25 -37.7 44.35 -36.25 44.8 -29.4 43.4 -22.6 L43.2 -21.5 43.0 -21.25 43.1 -21.15 41.65 -13.7 Q40.8 -8.65 39.2 -3.9 37.25 1.8 34.25 7.1 33.15 9.0 31.5 10.2 25.75 14.45 18.55 15.9 L8.55 16.75 7.3 8.1 Q5.0 -8.55 5.55 -25.2 L6.0 -33.9 6.05 -34.55 6.15 -36.1 Q6.35 -38.45 7.65 -40.85 L9.4 -41.3 9.55 -41.35 13.15 -42.65 13.0 -42.25 11.8 -38.35 11.9 -38.15 12.0 -37.9 12.05 -37.7 12.1 -37.45 12.15 -37.25 12.2 -37.0 13.8 -35.1 14.05 -34.85 16.7 -34.15 18.85 -29.5 Q20.0 -26.75 21.65 -24.25 L22.35 -23.2 Q24.95 -22.55 26.6 -24.0 L29.9 -27.3 30.55 -28.05 31.25 -28.95 31.4 -29.15 34.25 -34.05 34.95 -35.75 Q39.05 -38.35 40.7 -43.15 41.1 -44.4 41.15 -45.75 L40.95 -49.2 40.45 -52.55 Q40.05 -54.7 38.85 -56.55 L37.35 -57.9 32.55 -60.35 31.55 -60.8 32.65 -63.75 33.75 -68.3 34.9 -74.15 34.9 -74.3 34.9 -74.85 34.9 -75.4 35.4 -75.25 37.55 -74.5 38.05 -74.35 M52.15 -18.3 L53.25 -17.8 Q55.9 -16.7 57.9 -18.25 60.05 -20.0 60.65 -22.75 61.5 -26.5 61.8 -30.35 L61.9 -31.55 61.75 -30.6 61.95 -32.0 Q62.15 -33.6 62.75 -34.9 L62.85 -37.7 Q63.15 -42.85 62.45 -47.7 L61.95 -49.6 61.05 -51.1 60.95 -51.25 60.1 -51.35 60.05 -51.25 Q58.95 -52.95 56.65 -52.5 54.6 -52.3 53.5 -50.45 L52.3 -48.45 52.3 -48.4 Q50.3 -45.3 49.1 -41.75 48.25 -39.35 47.8 -36.9 47.25 -34.15 47.0 -31.35 46.6 -27.3 48.2 -23.7 L48.5 -23.0 Q49.45 -19.85 52.15 -18.3 M-12.2 -79.15 L-11.9 -79.15 -10.0 -79.1 -9.75 -79.1 Q-7.7 -75.95 -4.9 -72.7 -2.05 -69.5 2.35 -69.9 L8.2 -69.9 8.15 -69.85 Q6.35 -66.8 3.95 -64.65 L2.0 -63.1 Q0.65 -62.2 -0.85 -61.45 L-1.5 -61.15 Q-3.05 -60.45 -4.65 -59.9 L-7.9 -59.0 -8.15 -58.95 -8.35 -58.9 -10.8 -58.45 -11.0 -58.4 -10.4 -58.85 Q-7.7 -60.6 -5.85 -63.2 L-5.55 -63.8 Q-6.65 -66.35 -8.75 -68.2 L-8.8 -68.3 Q-11.75 -70.65 -12.6 -74.55 L-12.75 -75.65 Q-12.85 -77.45 -12.2 -79.15 M-24.45 -32.8 L-24.1 -24.4 -23.8 -20.5 Q-25.15 -20.15 -26.35 -19.45 L-27.75 -18.55 -31.45 -15.6 -33.8 -13.4 Q-35.75 -5.3 -31.45 2.15 -30.05 4.7 -28.0 6.7 L-26.15 8.35 -23.45 10.25 -19.8 10.05 -18.55 14.75 Q-22.4 14.2 -26.2 12.9 -30.05 11.75 -31.9 8.4 L-32.5 7.05 Q-35.75 0.35 -37.65 -6.9 -38.75 -10.95 -39.4 -15.15 L-39.5 -15.85 Q-40.85 -24.8 -41.2 -34.05 L-41.35 -39.25 Q-41.75 -42.3 -42.75 -45.2 -43.2 -46.45 -43.95 -47.45 -44.8 -48.65 -46.05 -49.55 L-46.45 -49.8 -46.4 -49.65 -45.7 -47.7 -45.55 -47.3 -44.25 -44.5 Q-42.85 -41.55 -42.7 -38.2 L-42.55 -33.8 -42.6 -33.8 -42.55 -33.25 -42.65 -25.7 -42.7 -24.45 -42.95 -20.65 Q-43.4 -14.55 -44.25 -8.6 L-43.05 -6.85 -43.15 -6.1 -44.35 -5.05 -44.05 -3.65 Q-43.6 -2.05 -43.45 -0.4 L-43.4 0.0 -43.25 2.55 -43.2 5.3 Q-43.3 14.5 -42.25 23.75 L-46.85 14.7 -46.75 8.35 -46.7 6.05 Q-46.75 -1.0 -51.35 -6.05 L-51.75 -6.45 -51.1 -6.5 Q-53.15 -6.2 -55.5 -7.35 -56.8 -7.95 -57.95 -8.85 L-59.0 -9.8 -58.7 -9.5 Q-61.0 -7.15 -62.3 -4.25 L-62.4 -4.3 -62.35 -7.6 -62.1 -14.5 Q-61.3 -31.85 -58.2 -48.45 -56.95 -51.65 -56.45 -55.05 L-56.25 -55.15 -56.4 -55.45 -56.2 -58.3 -56.1 -64.75 -56.0 -64.7 -53.75 -64.25 -53.1 -64.0 Q-50.3 -62.85 -48.35 -60.0 -47.0 -58.0 -45.25 -56.25 L-45.25 -56.35 -44.35 -55.7 Q-41.9 -54.35 -39.4 -54.65 -40.2 -51.75 -40.4 -48.85 -40.65 -44.85 -39.65 -40.8 -38.4 -35.7 -34.05 -33.9 L-32.8 -31.35 -30.0 -31.05 -28.0 -31.05 Q-26.3 -32.4 -24.45 -32.8 M8.0 -10.9 Q6.85 -2.9 8.85 4.9 L9.45 7.2 9.85 9.25 10.1 9.5 10.7 10.25 13.2 10.55 Q19.75 11.1 25.9 8.6 L26.45 8.05 Q30.7 -0.45 32.7 -9.85 L33.65 -14.65 33.85 -14.45 Q31.15 -17.95 27.05 -19.95 L25.75 -20.5 20.5 -22.45 Q16.95 -22.55 13.35 -21.5 L13.0 -21.3 Q10.45 -19.1 9.0 -15.9 L8.8 -15.45 8.7 -14.7 Q8.55 -12.75 8.0 -10.9 M54.85 36.25 L56.65 18.65 57.1 11.55 58.2 10.2 58.7 9.35 Q59.75 7.45 61.1 5.8 L64.1 1.7 Q64.55 1.1 65.15 0.65 65.5 0.35 65.95 0.3 L70.8 -0.05 Q71.25 15.3 68.85 29.95 63.0 35.15 55.25 36.25 L54.85 36.25 M-52.95 -49.55 L-54.5 -49.7 Q-55.9 -49.05 -56.65 -47.65 -58.55 -44.2 -59.35 -40.25 -60.35 -35.3 -60.75 -30.2 -61.1 -25.4 -60.95 -20.6 -60.9 -18.15 -59.6 -16.1 -58.55 -14.45 -56.85 -14.25 L-55.4 -14.35 -56.3 -14.65 Q-55.05 -14.15 -53.6 -14.1 -53.05 -14.45 -52.6 -15.1 L-51.95 -15.9 Q-49.05 -23.5 -48.7 -31.65 -48.55 -35.55 -49.2 -39.35 L-49.4 -40.4 Q-49.4 -43.25 -50.0 -46.15 -50.55 -49.05 -52.95 -49.55 M-52.65 -49.6 L-52.65 -49.65 -52.8 -49.65 -52.65 -49.6 M-46.25 -45.45 L-46.35 -45.55 -47.35 -46.65 -48.1 -47.0 -48.8 -47.0 -45.2 -42.8 -44.15 -41.55 Q-44.55 -43.7 -46.25 -45.45 M-55.4 1.7 Q-52.2 6.9 -49.65 12.45 L-49.65 12.4 -49.5 12.85 -48.95 14.05 Q-46.1 20.55 -42.4 26.8 -42.4 29.05 -41.9 31.35 -41.4 33.65 -43.05 35.45 -44.45 35.9 -45.7 36.7 -46.6 37.3 -47.65 37.35 -49.4 33.2 -49.85 28.6 -50.4 23.0 -50.1 17.5 L-51.0 15.55 -52.95 11.65 -54.85 8.1 -55.75 6.4 -57.65 2.15 Q-57.8 1.7 -58.1 1.35 L-58.35 0.95 -58.15 1.0 Q-57.95 1.05 -57.75 1.25 -56.75 2.45 -55.25 2.1 L-55.2 2.05 -55.4 1.7 M-55.0 -10.6 L-54.7 -9.85 -47.4 -9.1 -46.6 -9.05 -46.8 -9.2 Q-48.7 -10.55 -50.95 -10.9 L-53.9 -10.85 -55.0 -10.6 M-48.15 -6.8 L-52.25 -7.7 Q-51.25 -7.0 -50.05 -6.8 L-49.25 -6.7 -48.15 -6.8 M-32.35 68.7 L-32.45 66.1 Q-33.1 52.55 -32.55 39.3 -32.25 34.8 -31.2 30.6 L-29.75 23.5 -28.35 19.95 Q-23.1 23.35 -16.75 24.75 L-18.2 30.5 -18.6 30.1 -22.55 27.6 -23.25 27.0 -25.7 29.3 Q-31.3 35.35 -31.95 44.2 -32.7 54.75 -32.3 65.4 L-32.35 68.7 M-20.25 93.55 L-19.75 96.25 -19.7 96.6 Q-23.75 96.5 -27.75 95.2 L-27.9 95.15 -29.1 94.8 -30.25 94.35 -30.2 94.35 Q-25.15 95.15 -20.25 93.55 M-31.3 93.8 L-32.9 92.75 -32.85 92.45 -32.85 92.25 -31.85 93.2 -31.3 93.8 M22.05 24.25 Q26.2 22.95 30.2 21.1 L32.65 19.9 32.75 19.85 32.8 20.05 34.5 28.3 35.85 36.65 Q37.35 47.65 37.4 58.85 37.4 66.0 36.85 72.95 36.15 82.5 37.2 91.9 L27.6 95.1 27.35 95.2 Q19.35 97.35 10.75 98.05 L10.5 98.1 8.65 98.2 6.1 98.35 Q5.45 95.35 5.4 92.2 L5.35 92.15 5.35 91.35 5.35 90.9 Q5.4 86.95 4.9 83.35 L4.85 83.15 Q3.3 69.0 4.6 55.0 L4.75 53.5 Q5.65 43.5 6.7 33.65 L6.75 33.25 6.75 33.2 7.0 31.0 7.45 27.1 Q14.95 26.45 22.05 24.25 M12.75 32.15 Q11.6 33.6 10.75 35.2 7.15 41.85 7.1 49.5 L6.7 76.0 6.8 78.95 7.1 86.55 6.85 86.1 7.6 87.85 Q8.0 88.95 8.75 90.0 9.3 90.75 9.4 91.65 18.75 93.9 25.75 88.0 L26.0 89.4 Q24.7 81.6 26.15 73.65 28.55 60.35 27.75 46.85 L26.95 38.3 Q26.7 36.25 25.7 34.4 L23.65 30.4 Q18.2 30.45 13.15 31.65 L12.75 32.15" fill="#660000" fill-rule="evenodd" stroke="none"/>
    <path d="M64.55 -64.45 L62.2 -64.55 Q60.7 -64.25 59.25 -63.3 L58.55 -63.0 56.35 -61.1 Q54.7 -59.65 53.65 -57.7 L51.9 -54.35 Q51.4 -57.5 49.75 -60.3 47.95 -63.3 44.95 -65.1 41.2 -67.4 36.85 -68.05 37.75 -70.15 38.05 -72.5 L38.05 -74.35 42.9 -72.75 49.5 -70.3 49.55 -70.3 49.5 -70.25 Q49.1 -69.65 49.55 -69.1 52.15 -66.1 56.25 -65.8 L64.2 -66.05 64.65 -64.85 64.55 -64.45 M31.55 -60.8 L32.55 -60.35 31.85 -60.65 31.5 -60.7 31.35 -60.4 31.55 -60.8 M40.95 -49.2 L41.15 -45.75 Q41.1 -44.4 40.7 -43.15 39.05 -38.35 34.95 -35.75 L35.35 -36.85 Q35.0 -38.25 33.8 -39.2 29.7 -39.7 25.35 -39.4 21.5 -39.2 17.85 -39.35 L16.75 -39.45 16.05 -38.8 15.8 -38.35 Q15.35 -37.3 15.7 -36.1 L16.7 -34.15 14.05 -34.85 13.8 -35.1 12.2 -37.0 12.15 -37.25 12.1 -37.45 12.05 -37.7 12.0 -37.9 11.9 -38.15 11.8 -38.35 13.0 -42.25 13.15 -42.65 Q18.0 -44.8 22.0 -48.35 26.25 -52.15 29.3 -56.85 33.85 -56.1 38.15 -54.55 L38.3 -53.8 Q38.55 -52.4 39.2 -51.15 39.55 -50.45 40.25 -50.05 L40.55 -49.55 40.95 -49.2 M43.1 -21.15 L43.0 -21.25 43.2 -21.5 43.1 -21.15 M55.1 8.45 L54.3 8.8 54.05 8.9 54.0 8.4 Q53.75 6.0 53.1 3.65 52.55 1.8 51.55 0.45 52.65 -5.35 52.95 -11.15 L53.0 -12.05 52.9 -13.3 Q55.0 -14.1 57.15 -14.5 L58.25 -14.65 60.9 -14.8 Q58.95 -15.6 56.8 -15.8 60.9 -16.3 63.6 -13.5 L64.1 -12.7 Q65.6 -9.15 64.7 -5.4 L64.25 -3.75 63.65 -2.0 63.1 -1.65 62.45 -1.15 Q58.5 1.9 56.35 6.5 L55.1 8.45 M52.3 -48.4 L52.3 -48.45 53.5 -50.45 Q54.6 -52.3 56.65 -52.5 58.95 -52.95 60.05 -51.25 L60.1 -51.35 60.95 -51.25 61.05 -51.1 61.95 -49.6 62.45 -47.7 Q63.15 -42.85 62.85 -37.7 L62.75 -34.9 Q62.15 -33.6 61.95 -32.0 L61.75 -30.6 61.9 -31.55 61.8 -30.35 Q61.5 -26.5 60.65 -22.75 60.05 -20.0 57.9 -18.25 55.9 -16.7 53.25 -17.8 L52.15 -18.3 50.95 -22.0 Q50.0 -27.0 50.65 -32.1 L51.8 -39.35 Q52.45 -42.95 52.45 -46.7 L52.3 -48.4 M-11.0 -58.4 L-12.7 -58.2 Q-17.6 -58.95 -22.45 -58.3 L-23.35 -56.85 -23.6 -56.15 -23.85 -55.15 -23.9 -54.6 -23.9 -54.45 Q-23.95 -52.25 -24.3 -50.1 L-24.35 -48.95 Q-24.65 -40.9 -24.45 -32.8 -26.3 -32.4 -28.0 -31.05 L-30.0 -31.05 -30.8 -32.3 -33.95 -35.9 -36.35 -38.75 Q-37.6 -40.25 -38.0 -42.15 L-39.3 -49.55 -39.25 -49.65 -39.25 -49.95 -39.35 -50.05 -39.45 -50.2 -39.55 -50.2 -39.7 -50.15 -39.75 -50.15 -40.1 -49.65 -40.4 -48.85 Q-40.2 -51.75 -39.4 -54.65 -41.9 -54.35 -44.35 -55.7 L-45.25 -56.35 -45.25 -56.25 Q-47.0 -58.0 -48.35 -60.0 -50.3 -62.85 -53.1 -64.0 -53.25 -65.85 -51.7 -67.0 L-50.85 -67.3 -46.5 -67.65 Q-42.75 -68.25 -39.25 -69.6 L-33.0 -72.15 Q-29.9 -73.55 -26.5 -74.45 -21.1 -75.9 -15.45 -75.9 L-13.75 -75.75 -12.75 -75.65 -12.6 -74.55 Q-11.75 -70.65 -8.8 -68.3 L-8.75 -68.2 Q-6.65 -66.35 -5.55 -63.8 L-5.85 -63.2 Q-7.7 -60.6 -10.4 -58.85 L-11.0 -58.4 M-23.8 -20.5 L-23.55 -17.0 -22.9 -10.3 Q-22.0 -4.0 -21.35 2.45 L-20.8 6.25 -19.8 10.05 -23.45 10.25 -26.15 8.35 -28.0 6.7 Q-30.05 4.7 -31.45 2.15 -35.75 -5.3 -33.8 -13.4 L-31.45 -15.6 -27.75 -18.55 -26.35 -19.45 Q-25.15 -20.15 -23.8 -20.5 M-42.55 -33.8 L-42.55 -33.25 -42.6 -33.8 -42.55 -33.8 M-46.85 14.7 L-47.95 12.5 -48.2 12.05 Q-50.95 6.0 -54.75 0.55 -56.35 -1.5 -58.4 -2.4 L-58.7 -2.55 -60.25 -3.25 Q-59.85 -3.65 -59.55 -4.45 L-58.6 -6.7 Q-58.1 -7.8 -57.95 -8.85 -56.8 -7.95 -55.5 -7.35 -53.15 -6.2 -51.1 -6.5 L-51.75 -6.45 -51.35 -6.05 Q-46.75 -1.0 -46.7 6.05 L-46.75 8.35 -46.85 14.7 M-56.45 -55.05 L-56.4 -55.45 -56.25 -55.15 -56.45 -55.05 M8.0 -10.9 Q8.55 -12.75 8.7 -14.7 L8.8 -15.45 9.0 -15.9 Q10.45 -19.1 13.0 -21.3 L13.35 -21.5 Q16.95 -22.55 20.5 -22.45 L25.75 -20.5 27.05 -19.95 Q31.15 -17.95 33.85 -14.45 L33.65 -14.65 32.7 -9.85 Q30.7 -0.45 26.45 8.05 L25.9 8.6 Q19.75 11.1 13.2 10.55 L10.7 10.25 10.1 9.5 9.85 9.25 9.45 7.2 8.85 4.9 Q6.85 -2.9 8.0 -10.9 M56.2 -12.05 L53.6 -11.9 53.3 -11.85 53.4 -11.8 53.7 -11.7 Q54.95 -11.3 56.2 -12.05 M54.85 36.25 Q53.05 36.15 51.6 35.25 50.0 34.25 48.3 33.5 48.4 31.05 48.05 28.75 47.7 26.45 48.6 24.2 52.25 15.8 57.15 7.9 59.55 4.05 62.25 0.3 65.5 -2.55 70.3 -2.15 L70.75 -1.25 70.8 -0.05 65.95 0.3 Q65.5 0.35 65.15 0.65 64.55 1.1 64.1 1.7 L61.1 5.8 Q59.75 7.45 58.7 9.35 L58.2 10.2 57.1 11.55 56.65 18.65 54.85 36.25 M-39.85 -61.25 Q-41.0 -59.25 -39.8 -57.3 -38.8 -55.65 -36.8 -56.4 L-33.1 -57.75 Q-24.8 -60.85 -15.75 -60.55 -13.0 -60.45 -12.55 -62.8 -12.4 -63.7 -13.2 -64.05 -18.15 -66.5 -23.85 -66.4 -29.45 -65.05 -35.45 -64.3 -38.35 -63.9 -39.85 -61.25 M-52.95 -49.55 Q-50.55 -49.05 -50.0 -46.15 -49.4 -43.25 -49.4 -40.4 L-49.2 -39.35 Q-48.55 -35.55 -48.7 -31.65 -49.05 -23.5 -51.95 -15.9 L-52.6 -15.1 Q-53.05 -14.45 -53.6 -14.1 -55.05 -14.15 -56.3 -14.65 L-55.4 -14.35 -56.85 -14.25 Q-56.85 -16.2 -57.55 -18.15 -58.2 -19.8 -58.2 -21.55 -58.25 -25.3 -58.6 -28.95 -59.4 -36.4 -56.35 -43.0 L-55.15 -45.0 Q-53.55 -47.2 -52.95 -49.55 M-47.65 37.35 L-48.5 37.35 Q-55.0 35.55 -60.85 32.05 -62.7 27.65 -62.95 22.7 L-63.65 12.7 Q-64.1 6.25 -63.55 -0.15 L-60.75 0.2 -60.25 0.3 -58.35 0.95 -58.1 1.35 Q-57.8 1.7 -57.65 2.15 L-55.75 6.4 -54.85 8.1 -52.95 11.65 -51.0 15.55 -50.1 17.5 Q-50.4 23.0 -49.85 28.6 -49.4 33.2 -47.65 37.35 M-18.2 30.5 L-21.0 45.85 Q-22.5 54.05 -22.95 62.7 -23.1 76.65 -21.1 90.3 -20.6 91.9 -20.25 93.55 -25.15 95.15 -30.2 94.35 L-31.3 93.8 -31.85 93.2 -32.85 92.25 -32.85 92.45 -32.4 84.7 -31.35 80.55 -30.4 76.2 Q-29.8 73.75 -29.6 71.2 L-29.25 64.55 Q-29.2 60.1 -29.7 55.75 -30.2 51.45 -30.1 47.05 L-29.95 44.85 -29.4 40.6 -28.15 35.05 -26.15 30.7 -25.8 29.7 -25.7 29.3 -23.25 27.0 -22.55 27.6 -18.6 30.1 -18.2 30.5 M12.75 32.15 L13.15 31.65 Q18.2 30.45 23.65 30.4 L25.7 34.4 Q26.7 36.25 26.95 38.3 L27.75 46.85 Q28.55 60.35 26.15 73.65 24.7 81.6 26.0 89.4 L25.75 88.0 Q18.75 93.9 9.4 91.65 9.3 90.75 8.75 90.0 8.0 88.95 7.6 87.85 L6.85 86.1 7.1 86.55 6.8 78.95 6.7 76.0 7.1 49.5 Q7.15 41.85 10.75 35.2 11.6 33.6 12.75 32.15" fill="#990000" fill-rule="evenodd" stroke="none"/>
    <path d="M10.6 -67.6 Q9.8 -65.85 8.45 -64.45 L5.35 -61.4 Q3.9 -60.05 2.15 -59.15 -0.7 -57.8 -3.75 -56.95 L-9.7 -55.55 -11.75 -55.2 Q-12.6 -53.9 -13.1 -52.2 -14.0 -49.05 -14.5 -45.7 -15.05 -42.3 -16.65 -39.45 L-17.05 -40.0 -17.85 -40.25 -18.85 -40.45 Q-19.75 -40.05 -19.6 -39.05 -19.5 -38.4 -19.05 -38.2 L-19.2 -37.65 Q-19.0 -37.0 -18.5 -36.7 L-19.4 -35.65 Q-19.4 -34.35 -19.65 -33.0 -20.45 -28.3 -20.45 -23.55 L-20.45 -20.8 -15.3 -21.05 Q-14.5 -20.55 -13.55 -20.3 L-12.2 -19.7 -11.9 -19.55 -11.15 -19.0 Q-10.9 -17.5 -9.7 -16.4 L-8.6 -13.0 -7.65 -9.65 Q-6.3 -5.25 -7.5 -0.8 L-8.15 0.8 -9.75 3.2 -10.95 4.1 Q-13.55 5.3 -16.25 5.6 -16.9 5.65 -17.0 6.3 -17.15 7.95 -16.55 9.5 L-16.65 9.5 -16.45 10.2 Q-15.6 13.0 -14.1 15.5 L-13.6 16.35 -13.5 16.5 -16.55 15.35 -16.7 15.05 -16.8 14.95 Q-17.9 13.2 -18.55 11.25 L-18.75 10.7 -18.75 10.65 -19.3 7.9 Q-21.05 -6.05 -22.4 -20.3 L-22.5 -21.0 -22.7 -23.4 -22.85 -25.7 -22.85 -26.2 -22.9 -27.1 -22.95 -27.4 -23.15 -33.0 Q-23.35 -40.95 -22.85 -48.95 L-22.65 -53.6 Q-22.65 -56.0 -20.65 -57.25 -14.6 -56.45 -9.1 -57.4 L-4.45 -59.15 -3.3 -59.5 Q-1.7 -60.1 -0.1 -60.8 L0.5 -61.05 2.45 -61.75 2.95 -62.05 3.3 -62.3 3.6 -62.5 3.75 -62.6 3.95 -62.7 4.35 -63.0 4.55 -63.15 4.9 -63.4 5.65 -63.95 Q8.55 -67.3 10.45 -70.95 L10.6 -70.95 11.65 -71.15 11.1 -69.0 11.05 -68.85 10.6 -67.6 M19.75 -30.2 L19.4 -30.8 17.65 -34.6 Q16.55 -36.5 17.25 -38.55 L18.1 -38.45 18.35 -38.45 23.7 -38.1 26.8 -37.95 32.8 -37.75 33.35 -37.75 33.7 -36.7 32.15 -36.4 31.95 -36.4 32.05 -36.55 29.15 -36.6 29.05 -36.6 29.0 -36.6 28.65 -36.9 Q29.8 -35.95 30.5 -34.35 L30.6 -34.15 30.8 -33.35 Q31.25 -30.9 29.85 -29.25 L28.85 -28.35 Q27.75 -27.5 26.35 -27.2 L25.95 -27.15 25.75 -27.15 25.7 -27.15 23.45 -27.35 23.8 -26.7 24.35 -25.65 24.4 -25.7 Q24.8 -25.5 24.7 -24.9 L24.6 -23.8 24.6 -23.7 24.15 -23.75 23.25 -24.0 23.15 -24.05 Q22.6 -24.35 22.2 -24.8 L21.25 -26.8 21.0 -27.5 20.95 -27.65 20.05 -29.65 20.05 -29.7 19.75 -30.2 M27.6 -32.0 Q28.5 -34.85 25.35 -35.2 22.7 -34.9 23.0 -32.25 23.15 -30.85 24.55 -30.45 26.9 -29.8 27.6 -32.0 M28.8 -32.8 Q28.65 -29.5 25.15 -29.4 21.45 -29.3 21.4 -32.8 21.35 -34.65 23.0 -35.7 L24.0 -36.25 Q26.75 -36.85 28.25 -34.8 28.85 -33.9 28.8 -32.8 M21.5 -36.85 L18.75 -36.8 19.25 -34.9 19.75 -33.35 20.0 -34.6 Q20.5 -36.1 21.8 -37.05 L21.5 -36.85 M24.8 -37.05 Q20.8 -36.9 20.35 -33.0 20.15 -31.45 21.15 -30.25 22.2 -28.95 23.9 -28.4 26.35 -27.65 28.05 -29.3 30.65 -31.75 29.1 -35.0 27.85 -37.6 24.8 -37.05 M-19.25 -52.0 L-19.45 -50.65 Q-18.95 -49.65 -17.75 -49.55 -16.2 -50.05 -16.35 -51.85 -16.8 -53.15 -18.1 -53.3 L-18.25 -53.2 -18.5 -53.25 Q-19.2 -53.25 -19.3 -52.55 L-19.25 -52.0 M-10.5 -50.5 L-10.25 -50.8 -9.75 -51.05 -9.75 -51.1 Q-6.1 -50.9 -3.3 -48.45 -1.85 -47.15 -3.15 -46.05 L-3.55 -46.0 Q-5.55 -46.8 -7.25 -48.1 L-10.55 -50.35 -10.5 -50.5 M-17.05 -14.75 L-17.5 -14.8 Q-18.35 -14.4 -18.2 -13.4 L-18.0 -12.8 -18.0 -12.7 Q-17.45 -11.2 -15.65 -11.35 -14.4 -12.1 -14.75 -13.7 -15.25 -15.05 -16.75 -15.05 L-17.05 -14.75 M-15.4 -3.55 L-15.85 -3.6 -16.0 -3.5 Q-16.85 -2.9 -16.35 -2.05 L-16.3 -1.05 Q-15.6 0.15 -14.1 -0.15 -12.8 -0.9 -13.0 -2.6 -13.7 -3.9 -15.2 -3.7 L-15.4 -3.55 M-15.75 26.95 L-15.85 27.35 -15.6 27.55 -13.05 29.5 Q-13.0 30.95 -13.4 32.35 -13.7 32.0 -14.35 31.9 -15.45 31.95 -15.55 33.1 L-15.5 33.45 Q-15.95 34.1 -16.0 35.0 -15.35 36.15 -14.3 36.2 L-14.0 36.8 Q-12.15 39.9 -8.95 37.8 L-8.45 37.7 Q-6.1 37.35 -3.8 36.45 L-4.0 43.85 Q-3.95 45.15 -4.2 46.4 -5.1 51.1 -6.4 55.7 -8.4 62.8 -8.9 70.15 L-9.6 84.9 -9.6 85.85 Q-9.5 89.4 -10.8 92.6 -11.0 93.25 -11.65 93.4 L-13.05 93.7 Q-12.85 93.15 -12.9 92.45 -13.25 91.05 -14.75 91.2 L-14.8 91.25 -15.7 91.05 Q-16.3 91.3 -16.3 91.95 -16.35 92.65 -15.95 92.9 L-16.0 93.85 -15.8 94.1 -16.35 94.15 Q-17.35 94.25 -18.05 94.65 L-18.5 95.0 Q-21.5 80.75 -21.3 65.25 -21.05 48.7 -17.0 33.85 -16.6 29.75 -15.5 26.05 L-15.75 26.95 M-15.85 45.45 L-16.9 45.2 Q-17.75 45.6 -17.6 46.6 L-17.4 47.15 -17.45 47.8 Q-17.05 49.05 -15.55 48.8 -14.3 47.95 -14.45 46.35 -14.9 45.55 -15.85 45.45 M-18.25 60.15 L-18.35 60.75 Q-17.95 61.9 -16.65 62.0 -15.0 61.45 -15.25 59.4 -15.75 58.15 -17.1 58.1 L-17.45 58.5 -17.85 58.45 Q-18.45 58.7 -18.45 59.35 L-18.25 60.15 M-16.3 68.55 L-17.1 68.45 -17.3 68.55 -17.4 68.6 Q-17.95 69.05 -17.75 69.7 L-17.65 70.05 -17.8 71.2 Q-17.3 72.75 -15.9 72.3 -14.65 71.25 -14.8 69.5 -15.3 68.55 -16.3 68.55 M-15.6 80.35 Q-15.9 79.95 -16.75 79.95 -17.5 80.3 -17.4 81.2 L-17.2 81.7 -17.3 82.6 Q-16.65 83.85 -15.2 83.6 -14.3 83.1 -14.3 81.95 -14.65 80.7 -15.6 80.35" fill="#ffcc00" fill-rule="evenodd" stroke="none"/>
    <path d="M18.35 -81.9 L18.6 -81.8 18.85 -81.45 18.8 -80.8 18.4 -80.65 16.6 -80.2 16.45 -80.2 Q15.95 -80.45 16.1 -80.95 L18.35 -81.9 M28.7 -75.05 L28.75 -75.7 Q28.95 -76.3 29.5 -76.25 L29.95 -76.1 Q30.65 -75.8 30.2 -74.9 30.0 -74.45 29.5 -74.5 28.8 -74.6 28.7 -75.05 M11.9 -68.55 L11.9 -68.95 Q12.05 -69.55 12.7 -69.55 L12.95 -69.5 Q13.75 -69.35 13.55 -68.4 13.35 -67.65 12.5 -67.9 11.9 -68.1 11.9 -68.55 M6.75 -60.65 Q6.55 -61.0 6.65 -61.45 6.8 -62.05 7.45 -62.05 L7.55 -62.05 Q8.55 -61.85 8.25 -60.85 8.05 -60.1 7.25 -60.35 L6.75 -60.65 M7.05 -48.45 L6.75 -49.05 Q6.6 -49.75 7.15 -50.2 L7.25 -50.2 7.4 -50.3 Q8.3 -50.35 8.6 -49.85 8.85 -49.5 8.7 -48.85 L8.4 -48.3 Q7.45 -47.95 7.05 -48.45 M18.15 -56.65 Q19.0 -56.45 18.7 -55.35 L18.2 -54.85 Q17.2 -54.7 17.0 -55.35 L16.95 -55.85 Q17.0 -56.5 17.55 -56.7 L18.15 -56.65 M24.55 -64.1 Q24.45 -64.4 24.65 -64.85 L25.05 -65.2 25.35 -65.25 Q26.5 -64.9 25.9 -63.9 25.65 -63.6 25.25 -63.65 24.7 -63.75 24.55 -64.1 M-19.25 -52.0 L-19.3 -52.55 Q-19.2 -53.25 -18.5 -53.25 L-18.25 -53.2 Q-17.45 -52.95 -17.7 -52.0 -17.85 -51.45 -18.45 -51.45 -19.15 -51.5 -19.25 -52.0 M-3.45 -55.0 L-3.35 -55.0 Q-2.35 -54.85 -2.6 -53.9 -2.8 -53.15 -3.6 -53.4 L-4.15 -53.8 -4.2 -54.2 Q-4.15 -54.9 -3.45 -55.0 M-3.05 -37.45 L-3.2 -37.65 Q-3.65 -38.35 -3.1 -39.0 L-2.65 -39.4 -2.45 -39.4 Q-0.95 -39.35 -1.2 -37.9 -1.25 -37.5 -1.6 -37.3 -2.5 -36.75 -3.05 -37.45 M-19.05 -38.2 Q-19.5 -38.4 -19.6 -39.05 -19.75 -40.05 -18.85 -40.45 L-17.85 -40.25 Q-17.25 -39.9 -17.4 -38.95 -17.5 -38.3 -18.15 -38.15 L-19.05 -38.2 M-17.35 -26.8 Q-16.7 -26.55 -16.8 -25.6 -16.9 -24.95 -17.5 -24.8 -18.4 -24.6 -18.7 -25.15 L-18.85 -25.65 Q-19.0 -26.55 -18.2 -26.9 L-17.35 -26.8 M-1.8 -26.3 Q-0.45 -26.3 -0.75 -24.85 L-1.05 -24.3 Q-2.35 -23.8 -2.65 -24.95 L-2.7 -25.05 Q-2.85 -25.75 -2.3 -26.2 L-2.2 -26.2 -2.05 -26.3 -1.8 -26.3 M-2.2 -12.5 L-2.4 -12.95 Q-2.6 -13.85 -1.65 -14.2 L-1.5 -14.2 Q-0.1 -14.1 -0.45 -12.7 L-0.75 -12.15 Q-1.8 -11.7 -2.2 -12.5 M-17.05 -14.75 Q-15.85 -14.65 -16.05 -13.3 -16.1 -12.65 -16.75 -12.5 -17.65 -12.3 -18.0 -12.8 L-18.2 -13.4 Q-18.35 -14.4 -17.5 -14.8 L-17.05 -14.75 M-16.35 -2.05 Q-16.85 -2.9 -16.0 -3.5 L-15.85 -3.6 -15.4 -3.55 Q-14.35 -3.45 -14.6 -2.2 -14.65 -1.8 -15.0 -1.65 -15.85 -1.25 -16.3 -1.95 L-16.35 -2.05 M-1.8 -2.5 Q-0.9 -2.4 -1.1 -1.35 L-1.4 -0.85 -2.4 -1.05 Q-2.65 -1.35 -2.5 -2.0 L-2.3 -2.35 -2.05 -2.5 -1.8 -2.5 M-0.4 8.55 L-0.05 8.5 0.35 8.65 Q0.9 8.9 0.55 9.65 0.25 10.3 -0.45 9.95 -1.05 9.65 -0.8 9.0 L-0.4 8.55 M-14.6 8.1 Q-14.55 7.45 -13.95 7.2 L-13.3 7.3 Q-12.5 7.55 -12.75 8.6 -12.9 9.05 -13.3 9.1 -14.6 9.35 -14.6 8.15 L-14.6 8.1 M-0.5 36.15 L-0.45 35.75 Q-0.3 35.2 0.3 35.2 L0.45 35.25 Q1.45 35.5 0.95 36.6 0.75 37.0 0.3 36.95 -0.6 36.85 -0.5 36.15 M-1.95 93.7 L-2.3 93.6 -2.65 93.15 Q-2.95 91.95 -1.75 91.45 -1.05 91.45 -0.75 91.75 -0.5 92.05 -0.65 92.7 -0.85 93.85 -1.95 93.7 M-2.9 83.05 L-3.0 82.45 Q-3.0 81.6 -2.3 81.25 L-1.85 81.3 Q-0.8 81.45 -1.1 82.7 -1.2 83.35 -1.8 83.45 -2.65 83.6 -2.9 83.05 M-15.5 33.45 L-15.55 33.1 Q-15.45 31.95 -14.35 31.9 -13.7 32.0 -13.4 32.35 -13.05 32.75 -13.25 33.55 -13.45 34.4 -14.35 34.35 -15.4 34.3 -15.5 33.45 M-17.4 47.15 L-17.6 46.6 Q-17.75 45.6 -16.9 45.2 L-15.85 45.45 Q-15.3 45.75 -15.4 46.7 -15.5 47.35 -16.15 47.5 -17.1 47.7 -17.4 47.15 M-1.55 49.5 Q-2.0 49.3 -2.1 48.75 -2.2 47.85 -1.45 47.5 -0.6 47.5 -0.3 47.95 -0.1 48.3 -0.25 48.9 -0.45 49.8 -1.45 49.5 L-1.55 49.5 M-3.6 61.3 L-3.8 60.85 -3.8 60.05 -3.35 59.35 -3.2 59.35 -3.1 59.25 Q-2.0 59.25 -1.8 59.95 L-1.85 60.85 -2.25 61.55 Q-3.2 61.95 -3.6 61.3 M-17.45 58.5 Q-16.3 58.65 -16.65 59.85 -16.75 60.25 -17.2 60.35 L-18.25 60.15 -18.45 59.35 Q-18.45 58.7 -17.85 58.45 L-17.45 58.5 M-17.65 70.05 L-17.75 69.7 Q-17.95 69.05 -17.4 68.6 L-17.3 68.55 -17.1 68.45 -16.3 68.55 Q-15.6 68.85 -15.8 69.9 L-16.15 70.5 Q-17.3 70.9 -17.65 70.05 M-3.15 69.7 Q-2.65 70.05 -2.85 70.9 L-3.4 71.4 -4.0 71.4 Q-4.65 71.25 -4.6 70.35 -4.55 69.75 -4.05 69.5 L-3.15 69.7 M-17.2 81.7 L-17.4 81.2 Q-17.5 80.3 -16.75 79.95 -15.9 79.95 -15.6 80.35 -15.4 80.7 -15.55 81.35 -15.75 82.25 -16.75 81.95 L-17.2 81.7 M-14.8 91.25 Q-14.3 91.55 -14.5 92.45 -14.6 92.9 -15.05 92.95 L-15.95 92.9 Q-16.35 92.65 -16.3 91.95 -16.3 91.3 -15.7 91.05 L-14.8 91.25" fill="#ffffff" fill-rule="evenodd" stroke="none"/>
    <path d="M10.6 -67.6 L10.0 -66.45 Q12.25 -64.95 15.2 -65.8 15.75 -65.95 16.1 -66.3 19.15 -69.15 21.8 -72.45 23.4 -73.1 24.3 -74.55 L24.9 -75.3 Q27.25 -77.65 25.5 -80.4 L25.35 -80.65 31.0 -78.35 Q30.95 -77.4 31.5 -76.25 L31.25 -75.1 31.3 -74.85 Q30.95 -75.9 29.95 -76.1 L29.5 -76.25 Q28.95 -76.3 28.75 -75.7 L28.7 -75.05 28.55 -74.25 Q28.7 -73.1 30.1 -73.05 L30.85 -73.55 Q29.5 -67.55 27.15 -61.9 L27.25 -62.2 25.4 -59.1 25.8 -59.55 25.05 -58.7 Q24.35 -57.95 24.4 -57.0 L22.6 -54.6 Q18.05 -49.75 12.75 -45.8 L12.6 -45.65 4.9 -44.3 4.4 -43.75 Q3.25 -45.5 1.2 -46.05 0.1 -45.25 0.55 -43.8 2.25 -38.45 2.15 -32.7 L1.85 -29.5 Q0.85 -23.0 1.2 -16.25 L1.8 -2.95 Q2.05 3.7 2.7 10.3 2.95 12.8 3.8 15.15 L3.6 14.55 Q2.5 15.4 1.1 15.75 -5.35 17.3 -11.5 15.3 -13.2 14.75 -14.1 15.5 -15.6 13.0 -16.45 10.2 L-16.65 9.5 -16.55 9.5 Q-17.15 7.95 -17.0 6.3 -16.9 5.65 -16.25 5.6 -13.55 5.3 -10.95 4.1 L-9.75 3.2 -8.15 0.8 -7.5 -0.8 Q-6.3 -5.25 -7.65 -9.65 L-8.6 -13.0 -9.7 -16.4 Q-10.9 -17.5 -11.15 -19.0 L-11.9 -19.55 -12.2 -19.7 -13.55 -20.3 Q-14.5 -20.55 -15.3 -21.05 L-20.45 -20.8 -20.45 -23.55 Q-20.45 -28.3 -19.65 -33.0 -19.4 -34.35 -19.4 -35.65 L-18.5 -36.7 -18.15 -36.55 Q-16.25 -37.05 -16.3 -39.0 L-16.65 -39.45 Q-15.05 -42.3 -14.5 -45.7 -14.0 -49.05 -13.1 -52.2 -12.6 -53.9 -11.75 -55.2 L-9.7 -55.55 -3.75 -56.95 Q-0.7 -57.8 2.15 -59.15 3.9 -60.05 5.35 -61.4 L8.45 -64.45 Q9.8 -65.85 10.6 -67.6 M0.5 -61.05 L-0.1 -60.8 Q-1.7 -60.1 -3.3 -59.5 L-4.45 -59.15 0.5 -61.05 M6.75 -60.65 L6.65 -60.15 Q7.05 -58.9 8.4 -58.85 9.8 -59.45 9.5 -61.15 8.85 -62.25 7.65 -62.15 L7.55 -62.05 7.45 -62.05 Q6.8 -62.05 6.65 -61.45 6.55 -61.0 6.75 -60.65 M8.6 -49.85 Q8.3 -50.35 7.4 -50.3 L7.25 -50.2 7.15 -50.2 Q6.6 -49.75 6.75 -49.05 L7.05 -48.45 6.95 -47.35 Q7.45 -46.6 8.4 -46.7 9.85 -47.05 9.95 -48.55 9.5 -49.6 8.6 -49.85 M17.0 -55.35 L17.05 -54.65 Q17.55 -53.5 18.8 -53.65 L19.1 -53.8 19.4 -54.05 Q20.0 -54.6 19.9 -55.6 L19.9 -55.7 19.85 -55.9 19.85 -56.0 Q19.3 -57.15 18.15 -56.65 L17.55 -56.7 Q17.0 -56.5 16.95 -55.85 L17.0 -55.35 M25.05 -65.2 L24.65 -64.85 Q24.45 -64.4 24.55 -64.1 L24.45 -63.4 Q24.9 -62.6 25.9 -62.5 27.15 -62.9 27.1 -64.4 26.7 -65.7 25.25 -65.5 L25.05 -65.2 M22.2 -24.8 L21.5 -26.1 21.25 -26.8 22.2 -24.8 M20.05 -29.65 L19.75 -30.2 20.05 -29.7 20.05 -29.65 M27.6 -32.0 Q26.9 -29.8 24.55 -30.45 23.15 -30.85 23.0 -32.25 22.7 -34.9 25.35 -35.2 28.5 -34.85 27.6 -32.0 M30.6 -34.15 L30.5 -34.35 Q29.8 -35.95 28.65 -36.9 L29.0 -36.6 29.05 -36.6 29.15 -36.6 32.05 -36.55 31.95 -36.4 31.1 -35.0 30.6 -34.15 M21.5 -36.85 L21.8 -37.05 Q20.5 -36.1 20.0 -34.6 L19.75 -33.35 19.25 -34.9 18.75 -36.8 21.5 -36.85 M28.8 -32.8 Q28.85 -33.9 28.25 -34.8 26.75 -36.85 24.0 -36.25 L23.0 -35.7 Q21.35 -34.65 21.4 -32.8 21.45 -29.3 25.15 -29.4 28.65 -29.5 28.8 -32.8 M24.8 -37.05 Q27.85 -37.6 29.1 -35.0 30.65 -31.75 28.05 -29.3 26.35 -27.65 23.9 -28.4 22.2 -28.95 21.15 -30.25 20.15 -31.45 20.35 -33.0 20.8 -36.9 24.8 -37.05 M24.4 -25.7 L24.35 -25.65 23.8 -26.7 23.45 -27.35 25.7 -27.15 24.4 -25.7 M-10.5 -50.5 L-10.55 -50.35 -7.25 -48.1 Q-5.55 -46.8 -3.55 -46.0 L-3.15 -46.05 Q-1.85 -47.15 -3.3 -48.45 -6.1 -50.9 -9.75 -51.1 L-9.75 -51.05 -10.25 -50.8 -10.5 -50.5 M-3.45 -55.0 Q-4.15 -54.9 -4.2 -54.2 L-4.15 -53.8 -4.3 -53.05 Q-3.95 -51.75 -2.75 -51.6 -1.4 -52.15 -1.65 -53.8 -2.1 -55.0 -3.4 -55.05 L-3.45 -55.0 M-2.45 -39.4 L-2.65 -39.4 -3.1 -39.0 Q-3.65 -38.35 -3.2 -37.65 L-3.05 -37.45 -3.05 -37.35 Q-2.55 -36.2 -1.5 -36.25 -0.15 -36.7 -0.25 -38.1 -0.55 -39.75 -2.05 -39.8 L-2.45 -39.4 M-17.35 -26.8 L-18.2 -26.9 Q-19.0 -26.55 -18.85 -25.65 L-18.7 -25.15 -18.7 -24.25 Q-18.0 -23.0 -16.55 -23.5 -15.3 -24.35 -15.8 -25.8 -16.25 -26.85 -17.35 -26.8 M-1.8 -26.3 L-2.05 -26.3 -2.2 -26.2 -2.3 -26.2 Q-2.85 -25.75 -2.7 -25.05 L-2.65 -24.95 -2.6 -23.75 Q-2.0 -22.7 -0.85 -22.65 1.0 -23.05 0.85 -24.95 -0.2 -27.0 -1.8 -26.3 M-1.5 -14.2 L-1.65 -14.2 Q-2.6 -13.85 -2.4 -12.95 L-2.2 -12.5 -2.35 -11.85 Q-1.7 -10.7 -0.35 -10.75 1.1 -11.25 0.95 -12.85 0.2 -14.35 -1.35 -14.4 L-1.5 -14.2 M-1.8 -2.5 L-2.05 -2.5 -2.3 -2.35 -2.5 -2.0 Q-2.65 -1.35 -2.4 -1.05 L-2.4 -0.65 Q-1.8 0.65 -0.25 0.55 0.9 -0.05 1.05 -1.3 0.0 -3.45 -1.8 -2.5 M0.35 8.65 L-0.05 8.5 -0.4 8.55 -0.5 8.55 Q-1.3 9.5 -1.3 11.0 -0.25 12.4 1.6 11.8 2.55 11.05 2.05 10.1 1.45 8.85 0.35 8.65 M-14.6 8.1 Q-14.9 8.65 -14.75 9.55 L-14.75 9.6 Q-14.25 10.6 -13.05 10.7 L-12.7 10.55 -12.65 10.5 Q-11.8 10.05 -11.65 9.1 L-11.65 8.35 Q-12.05 7.4 -13.05 7.25 L-13.3 7.3 -13.95 7.2 Q-14.55 7.45 -14.6 8.1 M-12.5 23.2 L-12.15 20.6 -12.6 20.5 -17.15 19.45 -22.8 18.1 -24.4 17.7 Q-26.6 17.1 -28.65 16.05 L-29.55 15.55 -29.5 15.05 -29.5 14.95 -29.2 12.95 Q-24.1 16.55 -17.5 16.05 -14.9 18.0 -11.8 19.0 -10.85 19.15 -10.0 19.65 L-8.85 19.6 -5.85 19.95 Q1.4 20.4 7.75 18.05 L17.25 17.6 17.65 18.2 17.4 17.85 17.45 17.75 17.9 17.4 Q18.45 17.4 18.8 17.65 L18.8 17.5 18.8 17.35 Q19.25 17.4 19.55 17.6 L19.6 17.35 Q19.7 16.95 20.1 16.85 L20.4 16.75 21.0 17.0 Q23.7 15.9 26.8 15.35 26.75 15.0 27.05 14.75 L27.3 14.55 28.25 14.8 Q28.5 14.3 29.35 13.95 L30.1 13.55 32.3 12.15 33.25 11.35 Q34.05 11.55 34.45 12.4 L34.05 14.0 30.4 16.25 28.7 16.8 Q29.4 18.2 28.9 19.7 L29.2 19.65 28.85 20.2 28.65 20.35 Q27.9 20.5 27.6 20.0 L27.65 19.7 27.95 17.45 27.95 17.35 22.4 18.8 21.4 19.0 Q21.8 20.45 21.4 22.15 L21.5 22.15 20.7 22.5 20.2 22.4 Q20.7 20.9 20.55 19.3 L20.0 19.7 19.1 19.85 19.15 20.0 Q19.45 21.35 18.95 22.65 L19.1 22.65 18.35 23.2 17.55 23.1 17.3 22.85 Q17.95 22.15 18.15 21.05 L18.15 19.9 18.05 19.9 12.4 20.65 7.5 21.05 3.65 21.15 0.3 21.25 -5.65 21.5 -11.4 21.15 -11.3 20.8 -11.4 21.2 -11.45 21.45 -11.2 23.2 -11.0 23.6 -12.5 23.2 M-0.5 36.15 L-0.6 36.35 Q-1.2 37.85 0.0 38.7 1.35 38.85 2.0 37.9 L2.3 37.55 1.7 46.65 1.05 61.45 0.35 72.5 Q0.0 77.4 0.2 82.3 L-0.75 81.35 -1.85 81.3 -2.3 81.25 Q-3.0 81.6 -3.0 82.45 L-2.9 83.05 -2.85 84.25 Q-2.3 85.5 -0.85 85.3 0.0 84.9 0.3 84.2 L0.55 86.95 1.1 92.55 0.7 91.8 Q0.35 91.2 -0.45 91.55 L-0.75 91.75 Q-1.05 91.45 -1.75 91.45 -2.95 91.95 -2.65 93.15 L-2.3 93.6 -1.95 93.7 -2.0 94.35 0.35 95.1 Q1.05 94.7 1.25 93.95 L1.3 94.9 0.95 95.5 Q-2.4 96.75 -6.15 97.1 -11.45 95.4 -17.1 94.7 L-18.05 94.65 Q-17.35 94.25 -16.35 94.15 L-15.8 94.1 Q-15.15 94.85 -14.0 94.75 L-13.8 94.65 -13.55 94.45 -13.05 93.7 -11.65 93.4 Q-11.0 93.25 -10.8 92.6 -9.5 89.4 -9.6 85.85 L-9.6 84.9 -8.9 70.15 Q-8.4 62.8 -6.4 55.7 -5.1 51.1 -4.2 46.4 -3.95 45.15 -4.0 43.85 L-3.8 36.45 Q-6.1 37.35 -8.45 37.7 L-8.95 37.8 Q-12.15 39.9 -14.0 36.8 L-14.3 36.2 -13.55 36.1 Q-11.9 35.3 -12.25 33.25 -12.65 32.5 -13.4 32.35 -13.0 30.95 -13.05 29.5 L-15.6 27.55 -15.85 27.35 -15.75 26.95 Q-12.1 28.65 -7.8 28.65 L2.85 28.55 Q3.0 30.25 2.8 31.85 L2.45 35.85 Q1.85 35.25 0.9 35.2 L0.45 35.25 0.3 35.2 Q-0.3 35.2 -0.45 35.75 L-0.5 36.15 M-0.3 47.95 Q-0.6 47.5 -1.45 47.5 -2.2 47.85 -2.1 48.75 -2.0 49.3 -1.55 49.5 L-1.3 50.75 Q-1.0 51.65 0.05 51.5 1.3 50.75 1.0 48.85 0.4 47.95 -0.3 47.95 M-1.8 59.95 Q-2.0 59.25 -3.1 59.25 L-3.2 59.35 -3.35 59.35 -3.8 60.05 -3.8 60.85 -3.6 61.3 -3.5 61.95 Q-2.75 63.15 -1.35 63.05 -0.25 62.65 -0.45 61.2 -0.7 60.05 -1.8 59.95 M-3.15 69.7 L-4.05 69.5 Q-4.55 69.75 -4.6 70.35 -4.65 71.25 -4.0 71.4 L-4.0 71.55 Q-3.2 72.9 -1.65 72.8 -0.6 72.05 -0.9 70.45 -1.45 69.4 -2.75 69.55 L-3.15 69.7" fill="#cc9900" fill-rule="evenodd" stroke="none"/>
    <path d="M25.35 -80.65 L25.5 -80.4 Q27.25 -77.65 24.9 -75.3 L24.3 -74.55 Q23.4 -73.1 21.8 -72.45 19.15 -69.15 16.1 -66.3 15.75 -65.95 15.2 -65.8 12.25 -64.95 10.0 -66.45 L10.6 -67.6 11.05 -68.85 11.1 -69.0 11.65 -71.15 14.25 -71.6 Q16.2 -71.8 17.55 -73.5 19.0 -75.6 19.65 -78.15 20.25 -80.7 22.95 -81.6 L25.35 -80.65 M-14.1 15.5 Q-13.2 14.75 -11.5 15.3 -5.35 17.3 1.1 15.75 2.5 15.4 3.6 14.55 L3.8 15.15 Q2.95 12.8 2.7 10.3 2.05 3.7 1.8 -2.95 L1.2 -16.25 Q0.85 -23.0 1.85 -29.5 L2.15 -32.7 Q2.25 -38.45 0.55 -43.8 0.1 -45.25 1.2 -46.05 3.25 -45.5 4.4 -43.75 L4.9 -44.3 12.6 -45.65 12.75 -45.8 Q18.05 -49.75 22.6 -54.6 L24.4 -57.0 Q24.35 -57.95 25.05 -58.7 L25.8 -59.55 25.4 -59.1 27.25 -62.2 27.15 -61.9 Q29.5 -67.55 30.85 -73.55 31.3 -74.0 31.35 -74.8 L31.3 -74.85 31.25 -75.1 31.5 -76.25 Q30.95 -77.4 31.0 -78.35 L32.75 -77.6 33.2 -76.95 Q33.9 -72.45 32.55 -68.25 L32.25 -67.2 30.5 -62.5 29.85 -60.95 29.45 -60.1 27.85 -57.6 Q24.25 -52.5 19.45 -48.55 16.35 -46.05 12.9 -44.4 10.9 -43.45 8.85 -42.8 L8.6 -42.75 6.95 -42.3 6.1 -42.1 5.1 -42.4 4.5 -42.7 Q3.75 -43.25 3.0 -43.2 L4.85 -41.25 Q5.65 -40.35 4.7 -38.85 3.35 -24.95 3.95 -10.7 4.5 3.5 7.0 16.75 L4.9 17.6 Q0.25 19.1 -4.9 18.45 -9.5 17.85 -13.5 16.5 L-13.6 16.35 -14.1 15.5 M12.95 -69.5 L12.7 -69.55 Q12.05 -69.55 11.9 -68.95 L11.9 -68.55 11.55 -67.7 Q12.25 -66.3 13.9 -66.9 15.05 -67.55 14.85 -68.9 14.35 -69.8 13.45 -69.7 L12.95 -69.5 M33.7 -36.7 Q33.9 -35.45 33.1 -34.3 31.95 -32.6 31.2 -30.9 L25.45 -23.7 25.1 -23.7 24.15 -23.75 24.6 -23.7 24.6 -23.8 24.7 -24.9 Q24.8 -25.5 24.4 -25.7 L25.7 -27.15 25.75 -27.15 25.95 -27.15 26.35 -27.2 Q27.75 -27.5 28.85 -28.35 L29.85 -29.25 Q31.25 -30.9 30.8 -33.35 L30.6 -34.15 31.1 -35.0 31.95 -36.4 32.15 -36.4 33.7 -36.7 M-29.55 15.55 L-28.65 16.05 Q-26.6 17.1 -24.4 17.7 L-22.8 18.1 -17.15 19.45 -12.6 20.5 -12.15 20.6 -12.5 23.2 -12.5 23.35 Q-22.1 22.15 -29.75 16.7 L-29.55 15.55 M-11.2 23.2 L-11.45 21.45 -11.4 21.2 -11.3 20.8 -11.4 21.15 -5.65 21.5 0.3 21.25 3.65 21.15 7.5 21.05 12.4 20.65 18.05 19.9 18.15 19.9 18.15 21.05 Q17.95 22.15 17.3 22.85 16.5 23.6 15.05 23.7 L2.1 24.6 -10.95 23.7 -11.2 23.2 M19.1 22.65 L18.95 22.65 Q19.45 21.35 19.15 20.0 L19.1 19.85 20.0 19.7 20.55 19.3 Q20.7 20.9 20.2 22.4 L20.15 22.45 19.1 22.65 M21.5 22.15 L21.4 22.15 Q21.8 20.45 21.4 19.0 L22.4 18.8 27.95 17.35 27.95 17.45 27.65 19.7 27.6 20.0 27.45 20.4 Q24.65 21.7 21.5 22.15 M29.2 19.65 L28.9 19.7 Q29.4 18.2 28.7 16.8 L30.4 16.25 34.05 14.0 32.8 17.05 Q31.7 19.15 29.2 19.65 M2.45 35.85 L2.8 31.85 Q3.0 30.25 2.85 28.55 L-7.8 28.65 Q-12.1 28.65 -15.75 26.95 L-15.5 26.05 -15.05 24.75 -15.0 24.55 Q-10.05 25.95 -4.75 26.0 L5.9 26.25 Q4.2 43.05 3.0 60.3 1.95 79.6 4.55 98.25 -6.9 98.75 -18.1 96.9 L-18.5 95.0 -18.05 94.65 -17.1 94.7 Q-11.45 95.4 -6.15 97.1 -2.4 96.75 0.95 95.5 L1.3 94.9 1.25 93.95 1.3 93.65 1.25 92.9 1.1 92.55 0.55 86.95 0.3 84.2 0.5 82.8 0.2 82.3 Q0.0 77.4 0.35 72.5 L1.05 61.45 1.7 46.65 2.3 37.55 2.5 37.1 2.65 36.2 2.65 36.1 2.45 35.85" fill="#996600" fill-rule="evenodd" stroke="none"/>
    <path d="M-10.6 101.85 L-7.85 102.4 Q-6.65 102.75 -5.75 103.5 -1.45 106.8 -2.85 112.05 L-3.0 112.35 Q-4.45 113.95 -4.95 116.05 -5.2 117.05 -4.4 117.75 L-3.9 118.1 Q-4.0 119.5 -3.7 120.9 -3.25 123.05 -3.8 125.05 L-7.45 125.35 -10.25 125.15 -10.65 125.2 -11.0 125.2 -11.65 125.25 -15.45 125.5 -16.7 125.6 -16.55 125.7 -15.25 125.9 -14.25 126.0 -15.05 126.15 Q-15.55 126.25 -15.95 126.5 -18.05 128.05 -16.3 130.0 L-17.8 130.1 -18.6 130.35 Q-20.35 131.45 -19.2 133.15 L-18.6 133.65 -20.95 133.7 -21.05 134.5 Q-20.95 135.0 -21.6 135.05 L-22.05 134.4 -22.4 133.05 Q-22.05 132.3 -21.3 131.65 -20.6 131.0 -20.95 130.05 L-21.4 129.5 -19.3 126.95 Q-21.9 113.8 -21.15 99.85 L-20.95 99.9 -21.15 100.05 -21.3 106.75 -20.8 106.25 Q-19.9 104.35 -18.4 102.95 -17.95 102.5 -17.35 102.35 L-13.85 101.8 Q-13.95 106.15 -13.4 110.6 -12.9 115.2 -12.65 119.85 -12.5 120.7 -12.0 121.4 L-11.55 120.95 Q-11.45 111.35 -10.6 101.85 M3.35 139.75 L3.5 140.0 3.8 139.65 Q5.35 139.8 6.3 138.45 L6.9 137.9 5.35 140.0 3.95 140.8 3.35 139.75 M12.5 134.05 L12.75 133.75 12.85 133.75 13.05 133.85 12.5 134.05 M5.15 145.8 L5.55 145.5 Q8.65 142.35 12.1 139.5 L13.3 138.4 14.8 138.55 22.45 137.45 22.95 137.5 25.2 137.4 27.65 138.2 28.4 138.85 Q29.85 142.0 32.05 144.7 L34.8 148.05 34.4 148.15 27.7 148.7 26.1 148.85 24.0 148.7 Q23.65 148.75 23.4 148.95 L22.9 149.7 23.3 149.75 23.2 149.8 Q20.35 151.3 21.65 153.95 18.25 153.05 15.45 150.8 12.3 148.3 8.7 146.95 L8.05 146.7 6.15 146.15 6.0 146.1 5.15 145.95 5.15 145.8 M3.4 149.35 L3.75 148.6 Q3.55 147.75 3.15 147.2 L2.75 147.3 3.65 147.1 3.65 147.25 3.8 148.5 3.4 149.35 M-26.35 147.4 Q-28.75 147.15 -31.1 147.35 -28.1 145.8 -25.95 143.0 -23.95 140.7 -22.4 137.55 L-21.45 136.2 -21.8 136.6 -17.75 136.8 Q-12.55 136.55 -7.5 137.8 L-7.05 137.8 Q-4.95 137.5 -3.35 138.5 L-2.75 138.0 -4.15 139.2 Q-7.7 142.65 -9.45 147.3 -10.45 147.85 -11.6 147.8 -13.25 147.65 -14.15 148.65 L-13.3 148.8 -19.5 147.6 -26.35 147.4 M-14.45 149.05 L-14.75 149.6 -16.0 149.25 -16.5 149.05 -14.45 149.05 M20.75 102.25 L20.95 102.4 20.75 103.35 20.75 102.25 M19.45 122.75 Q19.45 124.8 19.9 126.8 L18.05 126.5 14.0 127.65 Q11.9 128.05 10.4 129.6 L12.85 128.85 14.15 128.65 Q13.0 128.95 11.95 129.4 10.65 129.95 9.85 130.95 9.5 131.4 9.55 131.9 L9.65 131.35 Q8.9 132.05 7.9 132.2 L6.65 132.05 6.25 132.2 6.1 132.1 5.65 131.55 5.6 131.45 6.5 127.45 6.65 127.2 Q7.3 126.8 8.0 126.55 10.35 125.65 9.8 123.4 L9.5 122.4 Q8.85 120.15 6.6 120.2 6.2 120.4 5.95 120.7 6.55 114.55 5.7 108.15 L5.7 108.0 6.25 107.75 7.25 105.9 Q7.8 104.75 8.85 103.95 11.25 102.15 14.25 101.35 L17.15 101.05 Q18.75 111.65 19.0 122.95 19.3 122.95 19.45 122.75" fill="#333333" fill-rule="evenodd" stroke="none"/>
  </g>
</svg>
