<?xml version="1.0" encoding="UTF-8" standalone="no"?>
<svg xmlns:xlink="http://www.w3.org/1999/xlink" height="52.0px" width="34.3px" xmlns="http://www.w3.org/2000/svg">
  <g transform="matrix(1.0, 0.0, 0.0, 1.0, 14.55, 24.3)">
    <path d="M12.8 -21.4 L13.15 -21.15 Q13.3 -19.65 13.6 -18.05 13.85 -16.45 15.4 -15.9 L19.75 -15.05 Q19.7 -14.2 19.0 -14.05 18.25 -13.9 17.85 -13.35 16.05 -11.4 15.0 -9.0 13.9 -6.7 14.95 -4.05 L15.0 -4.05 Q15.95 -3.85 16.05 -2.7 16.15 -1.85 15.45 -1.35 L15.25 -1.2 15.2 -1.1 15.2 -0.75 15.3 1.55 15.25 1.75 Q15.0 1.9 15.0 2.2 L14.8 2.65 Q14.6 3.25 14.9 3.85 L14.9 4.0 Q15.5 5.45 14.95 7.0 L14.0 9.5 Q13.5 10.85 13.35 12.35 L13.1 15.45 13.0 16.95 Q12.45 17.85 12.15 18.9 11.0 19.8 8.75 20.0 8.25 20.25 8.35 20.75 9.8 21.35 10.2 22.8 10.2 24.7 8.65 25.7 L5.75 27.25 Q-0.55 28.75 -5.55 25.05 -7.65 22.9 -7.0 19.9 L-6.1 18.6 -5.85 13.85 Q-5.7 11.2 -8.3 10.35 -9.55 9.1 -9.4 7.55 -9.3 6.0 -10.0 4.6 -9.35 2.7 -11.0 1.55 -10.5 -4.8 -14.55 -9.3 L-13.5 -16.65 -13.05 -17.05 -11.6 -14.75 Q-11.0 -13.5 -9.6 -12.75 -8.55 -14.7 -9.3 -16.7 -10.05 -18.75 -10.2 -20.85 L-5.95 -20.75 Q-3.6 -20.85 -2.05 -19.1 -1.45 -19.6 -1.35 -20.5 -1.3 -21.45 -0.5 -21.7 0.65 -20.0 2.35 -19.2 3.0 -20.45 3.1 -21.85 3.2 -23.2 4.0 -24.3 5.05 -23.2 6.45 -22.8 7.85 -22.4 8.75 -21.4 8.55 -20.1 9.3 -19.1 10.4 -19.15 11.2 -20.05 11.85 -21.0 12.8 -21.4 M11.8 -9.8 L12.65 -10.6 Q13.55 -10.05 13.9 -8.9 14.35 -10.35 15.45 -11.5 16.5 -12.65 17.05 -13.95 L15.35 -14.4 16.05 -14.2 Q16.6 -15.3 15.05 -15.55 L14.6 -15.3 14.3 -15.05 Q11.95 -16.85 12.05 -20.0 L11.15 -19.3 9.75 -18.15 9.05 -17.85 Q8.45 -17.8 8.0 -18.3 L8.05 -18.55 8.1 -18.75 8.1 -18.8 7.75 -20.25 Q7.5 -20.65 6.95 -20.75 L5.95 -21.05 Q5.0 -21.35 4.2 -21.95 L4.15 -21.75 Q3.65 -19.95 2.65 -18.6 L2.5 -18.4 Q1.65 -18.65 0.95 -19.1 L0.4 -19.6 0.1 -19.95 0.05 -20.0 Q-0.95 -20.05 -1.0 -18.85 -1.05 -17.6 -2.0 -17.4 L-2.9 -18.3 -3.05 -18.45 -4.7 -20.3 -5.45 -20.2 -5.65 -20.2 -7.55 -20.0 -8.8 -19.9 -8.7 -19.65 -8.55 -19.15 -8.45 -18.8 -8.4 -18.4 -8.35 -18.25 Q-7.95 -16.5 -8.15 -14.5 L-8.2 -13.95 -8.2 -13.8 -8.4 -13.4 Q-8.85 -12.6 -9.6 -12.15 L-10.25 -11.9 Q-11.1 -12.25 -11.7 -12.95 L-11.75 -13.0 -12.8 -13.9 -12.95 -13.95 -13.4 -11.5 -13.4 -10.4 -12.85 -9.9 Q-11.85 -8.85 -11.35 -7.6 L-10.85 -5.95 -10.75 -4.9 -10.75 -4.5 -10.7 -4.2 -10.7 -3.6 -10.65 -2.5 -10.5 1.45 -10.4 1.6 -9.8 2.1 Q-9.25 2.4 -8.6 2.1 -7.55 1.6 -6.45 1.7 L-4.0 4.55 Q-3.35 3.05 -4.2 1.85 -5.1 0.65 -5.4 -0.7 L-5.5 -1.1 -5.55 -1.4 -5.65 -1.9 -5.7 -2.1 -5.7 -2.65 -5.3 -3.25 Q-3.5 -3.85 -4.75 -4.7 -6.1 -5.65 -6.15 -6.75 L-4.4 -8.3 -4.25 -8.4 -3.9 -8.7 -3.2 -9.15 -2.1 -9.75 0.1 -10.7 0.35 -10.8 2.05 -10.05 2.4 -9.85 4.05 -8.75 5.45 -7.75 Q6.5 -7.05 7.7 -6.45 L10.0 -8.25 11.8 -9.8 M2.5 -8.6 L1.2 -9.45 Q-0.35 -9.65 -1.75 -8.8 L-1.95 -8.65 -4.45 -6.55 -4.4 -6.45 -3.6 -5.2 -3.0 -3.35 Q-3.25 -2.85 -3.85 -2.85 -4.45 -2.85 -4.65 -2.4 -4.8 -0.95 -4.05 0.15 -3.25 1.2 -2.85 2.4 L-2.8 4.55 Q-2.7 5.75 -3.4 6.55 L-3.45 6.55 -3.6 6.45 -3.65 6.45 -3.7 6.4 -4.7 5.6 -5.55 4.2 Q-6.2 2.6 -7.85 2.7 L-8.05 2.75 -8.25 2.8 -8.3 2.85 -9.0 3.45 -9.3 4.0 -9.35 4.1 -9.3 4.2 -8.9 4.9 Q-8.5 5.95 -8.5 7.15 L-8.5 7.25 Q-8.55 9.1 -7.05 10.2 -6.2 10.5 -5.45 9.95 L-4.0 9.05 Q-4.15 10.2 -4.9 11.35 -4.5 15.4 -4.45 19.6 -3.65 20.55 -2.65 21.0 L-1.5 21.35 Q0.2 21.65 1.8 22.35 L5.0 21.95 6.85 21.55 7.85 20.9 7.25 20.8 7.75 20.9 Q8.1 20.55 7.85 20.1 L7.7 20.0 6.4 19.9 4.0 19.95 Q3.3 19.7 2.75 19.2 L1.65 18.35 -0.7 16.3 -1.6 15.2 -2.1 14.65 -2.4 10.2 -2.0 9.85 Q-1.45 11.2 -1.3 12.65 -1.15 14.15 0.05 15.1 L0.15 15.3 Q0.95 16.6 2.05 17.45 3.2 18.25 4.7 18.6 L10.6 18.75 Q12.8 17.3 12.65 15.0 L12.55 13.4 12.55 12.1 12.65 10.3 12.85 9.75 Q13.25 8.8 13.8 8.0 14.45 6.95 14.35 5.6 L14.35 5.4 14.05 5.05 14.3 4.35 14.15 4.1 14.05 4.1 14.05 4.05 Q14.45 3.8 14.4 3.3 L14.4 2.7 Q14.45 2.05 14.05 1.9 L14.05 1.8 13.95 1.85 13.65 1.8 13.55 1.9 13.2 1.85 Q12.95 2.1 13.1 2.5 L13.1 3.2 12.95 3.25 12.7 3.55 12.55 3.65 12.55 3.7 11.5 3.65 11.4 3.5 10.9 3.05 10.8 2.95 10.65 2.9 10.6 2.95 10.55 3.0 10.55 3.05 10.6 2.7 10.65 2.6 10.65 2.45 10.65 2.4 10.7 2.35 10.7 2.3 10.9 2.15 10.9 2.1 11.0 2.05 11.7 1.6 12.5 1.4 13.6 1.25 Q14.3 1.3 14.65 0.8 L14.7 0.55 Q14.9 -0.35 14.55 -1.05 L14.05 -1.15 Q13.5 -1.3 13.25 -1.85 L13.2 -2.0 Q12.65 -3.25 13.9 -3.9 L14.0 -3.95 Q13.4 -5.05 13.35 -6.4 13.3 -7.95 12.35 -9.0 10.8 -8.25 9.55 -6.85 L8.0 -5.55 Q7.35 -5.2 6.65 -5.0 4.8 -7.15 2.5 -8.6 M-2.5 -0.25 Q-3.25 -0.35 -3.25 -1.35 -3.25 -1.95 -2.8 -2.25 L-2.4 -2.4 -2.0 -2.4 Q-0.95 -2.35 -1.05 -1.2 -1.1 -0.45 -1.85 -0.3 L-2.5 -0.25 M0.4 -3.5 L0.8 -3.9 0.9 -3.9 1.25 -4.05 Q2.85 -4.15 3.1 -2.65 L3.15 -2.1 3.15 -2.05 2.75 -1.1 0.8 -1.25 Q0.25 -1.4 -0.05 -1.9 L-0.1 -1.95 -0.1 -2.0 -0.1 -2.15 0.0 -2.7 0.1 -3.05 0.4 -3.5 M4.15 -1.25 Q4.4 -1.6 4.9 -1.75 6.0 -1.95 6.2 -0.95 6.3 -0.5 6.05 -0.15 L5.65 0.2 4.45 0.1 4.4 0.05 Q3.7 -0.35 4.05 -1.1 L4.15 -1.25 M9.85 0.2 L9.65 0.1 9.6 0.05 Q8.9 -0.35 9.25 -1.1 L9.35 -1.25 Q9.6 -1.6 10.1 -1.75 11.05 -1.9 11.35 -1.25 L11.3 -1.2 11.4 -1.0 11.4 -0.95 Q11.5 -0.5 11.25 -0.15 L11.1 0.0 11.0 0.15 10.85 0.2 10.65 0.3 9.85 0.2 M1.3 -3.7 L0.8 -3.5 Q0.25 -3.0 0.6 -2.35 1.0 -1.35 2.05 -1.55 2.8 -1.75 2.75 -2.45 2.7 -3.65 1.3 -3.7 M9.8 -1.35 Q9.3 -0.85 9.75 -0.3 10.15 0.15 10.7 -0.2 L10.9 -0.45 Q11.25 -1.55 10.05 -1.55 L9.8 -1.35 M4.85 -1.55 L4.6 -1.35 Q4.1 -0.85 4.55 -0.3 4.95 0.15 5.5 -0.2 L5.75 -0.45 Q6.05 -1.55 4.85 -1.55 M13.45 -2.9 Q13.35 -2.55 13.55 -2.3 14.2 -1.45 15.2 -2.1 15.55 -2.4 15.45 -2.95 15.2 -3.95 14.15 -3.7 13.6 -3.45 13.45 -2.9 M12.45 2.35 L12.5 2.4 12.5 2.35 12.45 2.35 M5.5 8.4 L5.5 8.5 5.4 8.45 5.5 8.4 M5.5 3.45 L5.45 3.35 Q5.15 2.85 4.55 2.75 L4.4 2.75 4.4 2.65 Q3.5 1.75 3.1 2.45 L2.3 3.4 1.4 3.35 0.8 3.25 0.75 3.3 0.75 3.25 0.7 3.25 0.4 3.2 0.3 2.6 Q0.35 1.75 -0.4 1.75 L-0.55 1.9 -0.15 1.2 0.85 1.1 1.35 1.1 2.35 1.2 2.8 1.3 Q4.25 1.75 5.5 3.0 L5.5 3.45 M3.45 11.1 L4.7 11.55 9.25 12.3 5.8 12.4 Q3.95 12.35 2.65 11.25 L1.45 11.55 Q1.75 10.35 2.95 10.1 2.8 10.9 3.45 11.1 M-2.95 25.1 Q0.25 27.25 4.15 26.0 L4.2 26.0 4.8 26.0 5.1 25.85 5.8 25.85 6.9 25.4 7.15 25.2 6.9 25.4 7.1 25.45 Q7.7 25.75 8.0 25.15 L8.25 24.35 8.45 24.5 Q9.45 24.05 9.75 23.2 9.6 22.35 8.75 22.1 L8.05 22.1 7.75 22.15 7.7 22.2 7.45 22.35 7.3 22.45 7.3 22.55 6.55 22.35 6.4 22.45 6.1 22.75 5.45 22.8 Q5.05 22.9 4.9 23.15 L4.5 23.0 Q4.1 23.05 3.95 23.35 L2.3 23.2 -0.4 22.55 -1.45 22.4 Q-1.9 21.9 -2.65 21.95 -3.2 21.55 -3.65 21.6 -3.9 20.8 -4.8 20.75 -5.3 20.2 -5.85 20.0 -6.45 21.05 -6.05 22.15 L-6.05 22.3 -5.85 22.8 -5.4 23.15 Q-5.55 24.05 -4.8 24.35 L-4.75 24.0 -4.8 24.4 Q-4.45 25.05 -3.9 24.9 -3.6 25.2 -3.0 25.1 L-2.95 25.1 M-2.35 -2.15 L-2.4 -2.15 -2.4 -2.1 -2.5 -2.05 -2.55 -2.05 Q-3.0 -1.75 -2.85 -1.25 -2.65 -0.3 -1.65 -0.7 L-1.45 -1.1 Q-1.25 -2.2 -2.35 -2.15" fill="#000000" fill-rule="evenodd" stroke="none"/>
    <path d="M11.6 -15.1 L11.7 -15.25 11.95 -15.65 11.8 -16.3 11.6 -17.4 Q11.65 -18.6 11.15 -19.3 L12.05 -20.0 Q11.95 -16.85 14.3 -15.05 L15.35 -14.4 17.05 -13.95 Q16.5 -12.65 15.45 -11.5 14.35 -10.35 13.9 -8.9 13.55 -10.05 12.65 -10.6 L11.8 -9.8 11.75 -9.85 11.5 -10.15 11.25 -10.3 13.1 -12.3 13.8 -12.9 Q12.95 -13.9 11.8 -14.45 11.55 -14.6 11.5 -14.9 L11.5 -15.05 11.6 -15.1 M9.05 -17.85 L9.1 -17.55 Q9.3 -16.25 10.15 -15.55 L10.0 -15.55 8.2 -15.3 Q6.5 -15.5 6.55 -17.2 L6.9 -19.25 7.1 -20.65 7.1 -20.7 7.75 -20.25 8.1 -18.8 8.1 -18.75 8.05 -18.55 8.0 -18.3 Q8.45 -17.8 9.05 -17.85 M2.8 -17.05 L2.65 -16.75 Q1.95 -14.9 0.2 -15.2 L0.25 -15.45 0.25 -15.5 0.9 -18.05 0.95 -19.1 Q1.65 -18.65 2.5 -18.4 L2.65 -18.6 2.8 -17.1 2.8 -17.05 M-3.3 -16.15 L-3.4 -16.1 Q-5.25 -16.35 -5.55 -18.2 L-5.65 -20.2 -5.45 -20.2 -4.7 -20.3 -3.05 -18.45 -3.0 -17.9 -3.1 -17.6 -3.15 -17.3 -3.3 -16.15 M-9.1 -6.25 L-7.55 -6.0 -7.25 -5.85 -7.2 -5.95 -7.1 -6.1 -7.05 -6.15 Q-7.05 -7.4 -5.75 -7.95 L-5.05 -8.4 -4.4 -8.3 -6.15 -6.75 Q-6.1 -5.65 -4.75 -4.7 -3.5 -3.85 -5.3 -3.25 L-5.7 -2.65 -6.05 -3.05 Q-6.75 -3.9 -7.65 -4.45 L-9.1 -5.2 Q-9.7 -5.2 -10.2 -4.75 L-10.35 -4.55 -10.5 -4.2 -10.6 -4.25 -10.7 -4.2 -10.75 -4.5 -10.75 -4.9 -10.85 -5.95 -9.35 -6.05 -9.25 -6.1 -9.2 -6.15 -9.1 -6.25 M-4.35 -12.15 L-4.65 -12.3 -4.65 -12.7 -4.3 -13.4 -4.25 -13.45 Q-2.45 -13.85 -1.15 -12.45 L-0.2 -11.75 -0.15 -11.75 0.05 -11.9 0.05 -11.95 0.2 -12.0 1.1 -12.0 Q1.05 -11.75 1.15 -11.45 L1.2 -11.4 1.2 -11.35 2.05 -10.05 0.35 -10.8 0.1 -10.7 -2.1 -9.75 -2.7 -9.45 -3.05 -9.8 -3.2 -10.25 -3.45 -10.4 -3.9 -11.05 -3.85 -11.25 Q-3.85 -11.7 -4.0 -11.9 L-4.35 -12.15 M3.1 -11.95 L3.8 -11.7 6.35 -9.5 6.35 -9.45 6.55 -9.5 6.6 -9.55 6.6 -9.6 Q8.05 -10.25 8.7 -8.95 9.0 -8.5 8.95 -7.9 L10.1 -9.1 10.05 -8.6 10.0 -8.25 7.7 -6.45 Q6.5 -7.05 5.45 -7.75 L5.45 -7.85 Q5.55 -8.5 5.2 -9.0 L5.15 -9.4 Q4.4 -10.85 3.1 -11.95 M-5.5 -1.1 L-5.4 -0.7 Q-5.1 0.65 -4.2 1.85 -3.35 3.05 -4.0 4.55 L-6.45 1.7 Q-7.55 1.6 -8.6 2.1 -9.25 2.4 -9.8 2.1 -8.25 1.9 -7.8 -0.25 L-7.75 -0.4 Q-6.4 0.2 -5.5 -1.1" fill="#333366" fill-rule="evenodd" stroke="none"/>
    <path d="M11.15 -19.3 Q11.65 -18.6 11.6 -17.4 L11.8 -16.3 11.95 -15.65 11.7 -15.25 11.6 -15.1 11.25 -14.95 10.15 -15.55 Q9.3 -16.25 9.1 -17.55 L9.05 -17.85 9.75 -18.15 11.15 -19.3 M11.25 -10.3 L11.5 -10.15 11.75 -9.85 11.8 -9.8 10.0 -8.25 10.05 -8.6 10.1 -9.1 10.15 -10.15 10.25 -10.25 10.6 -10.55 10.6 -10.6 11.25 -10.3 M15.35 -14.4 L14.3 -15.05 14.6 -15.3 15.05 -15.55 Q16.6 -15.3 16.05 -14.2 L15.35 -14.4 M5.95 -21.05 L6.15 -18.2 Q6.3 -17.1 6.0 -16.0 5.45 -14.05 3.55 -15.1 2.9 -15.5 2.85 -16.25 L2.8 -17.05 2.8 -17.1 2.65 -18.6 Q3.65 -19.95 4.15 -21.75 L4.2 -21.95 Q5.0 -21.35 5.95 -21.05 M0.2 -15.2 Q-0.5 -13.3 -2.55 -13.95 -3.2 -14.15 -3.3 -14.8 L-3.3 -16.15 -3.15 -17.3 -3.1 -17.6 -3.0 -17.9 -2.9 -18.3 -2.0 -17.4 Q-1.05 -17.6 -1.0 -18.85 -0.95 -20.05 0.05 -20.0 L0.1 -19.95 0.4 -19.6 0.95 -19.1 0.9 -18.05 0.25 -15.5 0.25 -15.45 0.2 -15.2 M-7.55 -20.0 Q-6.3 -17.4 -6.2 -14.55 -6.1 -12.95 -7.55 -13.05 L-7.9 -13.4 -8.2 -13.95 -8.15 -14.5 Q-7.95 -16.5 -8.35 -18.25 L-8.4 -18.4 -8.45 -18.8 -8.55 -19.15 -8.7 -19.65 -8.8 -19.9 -7.55 -20.0 M-8.4 -13.4 L-7.9 -12.9 -7.75 -12.75 Q-6.9 -10.85 -8.75 -11.0 L-9.25 -11.4 -9.6 -12.15 Q-8.85 -12.6 -8.4 -13.4 M-11.75 -13.0 Q-11.45 -10.95 -10.35 -9.1 -10.0 -8.5 -10.2 -8.15 L-9.5 -7.3 -9.2 -6.9 -9.1 -6.8 -9.0 -6.65 -9.1 -6.25 -9.2 -6.15 -9.25 -6.1 -9.35 -6.05 -10.85 -5.95 -11.35 -7.6 Q-11.85 -8.85 -12.85 -9.9 L-13.4 -10.4 -13.4 -11.5 -12.95 -13.95 -12.8 -13.9 -11.75 -13.0 M-4.25 -8.4 Q-5.85 -10.0 -5.1 -11.95 L-4.9 -12.3 -4.35 -12.15 -4.0 -11.9 Q-3.85 -11.7 -3.85 -11.25 L-3.9 -11.05 -3.45 -10.4 -3.2 -9.15 -3.9 -8.7 -4.25 -8.4 M1.1 -12.0 L1.1 -12.1 1.15 -12.4 1.2 -12.55 1.45 -12.75 1.55 -12.8 2.0 -12.75 3.1 -11.95 Q4.4 -10.85 5.15 -9.4 L5.2 -9.0 Q5.55 -8.5 5.45 -7.85 L5.45 -7.75 4.05 -8.75 2.4 -9.85 2.05 -10.05 1.2 -11.35 1.2 -11.4 1.15 -11.45 Q1.05 -11.75 1.1 -12.0 M-9.8 2.1 L-10.4 1.6 -10.5 1.45 -10.65 -2.5 -10.7 -3.6 -10.7 -4.2 -10.6 -4.25 -10.5 -4.2 -10.35 -4.55 -10.2 -4.75 Q-9.7 -5.2 -9.1 -5.2 L-7.65 -4.45 Q-6.75 -3.9 -6.05 -3.05 L-5.7 -2.65 -5.7 -2.1 -5.65 -1.9 -5.55 -1.4 -5.5 -1.1 Q-6.4 0.2 -7.75 -0.4 L-7.8 -0.25 Q-8.25 1.9 -9.8 2.1" fill="#cc66ff" fill-rule="evenodd" stroke="none"/>
    <path d="M11.6 -15.1 L11.5 -15.05 11.5 -14.9 Q11.55 -14.6 11.8 -14.45 12.95 -13.9 13.8 -12.9 L13.1 -12.3 11.25 -10.3 10.6 -10.6 10.6 -10.55 10.25 -10.25 10.15 -10.15 10.1 -9.1 8.95 -7.9 Q9.0 -8.5 8.7 -8.95 8.05 -10.25 6.6 -9.6 L6.6 -9.55 6.55 -9.5 6.35 -9.45 6.35 -9.5 3.8 -11.7 3.1 -11.95 2.0 -12.75 1.55 -12.8 1.45 -12.75 1.2 -12.55 1.15 -12.4 1.1 -12.1 1.1 -12.0 0.2 -12.0 0.05 -11.95 0.05 -11.9 -0.15 -11.75 -0.2 -11.75 -1.15 -12.45 Q-2.45 -13.85 -4.25 -13.45 L-4.3 -13.4 -4.65 -12.7 -4.65 -12.3 -4.35 -12.15 -4.9 -12.3 -5.1 -11.95 Q-5.85 -10.0 -4.25 -8.4 L-4.4 -8.3 -5.05 -8.4 -5.75 -7.95 Q-7.05 -7.4 -7.05 -6.15 L-7.1 -6.1 -7.2 -5.95 -7.25 -5.85 -7.55 -6.0 -9.1 -6.25 -9.0 -6.65 -9.1 -6.8 -9.2 -6.9 -9.5 -7.3 -10.2 -8.15 Q-10.0 -8.5 -10.35 -9.1 -11.45 -10.95 -11.75 -13.0 L-11.7 -12.95 Q-11.1 -12.25 -10.25 -11.9 L-9.6 -12.15 -9.25 -11.4 -8.75 -11.0 Q-6.9 -10.85 -7.75 -12.75 L-7.9 -12.9 -8.4 -13.4 -8.2 -13.8 -8.2 -13.95 -7.9 -13.4 -7.55 -13.05 Q-6.1 -12.95 -6.2 -14.55 -6.3 -17.4 -7.55 -20.0 L-5.65 -20.2 -5.55 -18.2 Q-5.25 -16.35 -3.4 -16.1 L-3.3 -16.15 -3.3 -14.8 Q-3.2 -14.15 -2.55 -13.95 -0.5 -13.3 0.2 -15.2 1.95 -14.9 2.65 -16.75 L2.8 -17.05 2.85 -16.25 Q2.9 -15.5 3.55 -15.1 5.45 -14.05 6.0 -16.0 6.3 -17.1 6.15 -18.2 L5.95 -21.05 6.95 -20.75 Q7.5 -20.65 7.75 -20.25 L7.1 -20.7 7.1 -20.65 6.9 -19.25 6.55 -17.2 Q6.5 -15.5 8.2 -15.3 L10.0 -15.55 10.15 -15.55 11.25 -14.95 11.6 -15.1 M-2.9 -18.3 L-3.0 -17.9 -3.05 -18.45 -2.9 -18.3 M-2.1 -9.75 L-3.2 -9.15 -3.45 -10.4 -3.2 -10.25 -3.05 -9.8 -2.7 -9.45 -2.1 -9.75" fill="#0033cc" fill-rule="evenodd" stroke="none"/>
    <path d="M-0.5 -7.45 L-0.4 -7.5 Q0.65 -7.7 1.55 -8.2 L2.5 -8.6 Q4.8 -7.15 6.65 -5.0 7.35 -5.2 8.0 -5.55 8.5 -5.2 9.45 -5.55 10.45 -6.45 11.6 -6.5 L12.05 -4.75 12.35 -2.95 Q12.45 -2.45 12.7 -2.2 L12.55 -2.2 12.4 -2.05 11.4 -1.3 11.35 -1.25 Q11.05 -1.9 10.1 -1.75 9.6 -1.6 9.35 -1.25 L9.25 -1.1 Q8.9 -0.35 9.6 0.05 L9.65 0.1 9.85 0.2 8.55 1.2 6.5 0.95 6.0 0.65 5.65 0.2 6.05 -0.15 Q6.3 -0.5 6.2 -0.95 6.0 -1.95 4.9 -1.75 4.4 -1.6 4.15 -1.25 L3.35 -1.9 3.15 -2.05 3.15 -2.1 3.1 -2.65 Q2.85 -4.15 1.25 -4.05 L0.9 -3.9 0.8 -3.9 0.4 -3.5 0.1 -5.6 Q-0.05 -6.65 -0.5 -7.45 M14.05 5.05 L14.35 5.4 14.35 5.6 Q14.45 6.95 13.8 8.0 13.25 8.8 12.85 9.75 L12.7 9.65 12.3 9.6 11.95 10.0 11.8 10.55 Q11.2 11.95 12.15 13.25 L12.3 13.35 12.55 13.4 12.65 15.0 Q12.8 17.3 10.6 18.75 L4.7 18.6 Q3.2 18.25 2.05 17.45 0.95 16.6 0.15 15.3 L0.25 14.75 Q-0.05 11.65 -0.7 8.7 L-0.7 7.5 -0.55 7.15 Q0.15 7.65 1.05 7.35 L1.45 6.85 1.15 5.55 1.55 5.65 1.7 5.75 5.4 5.5 Q6.2 4.9 6.15 3.95 L6.15 3.75 9.4 4.0 Q9.2 4.5 9.55 5.0 L9.6 5.25 9.8 5.5 9.85 5.75 10.3 7.05 10.35 7.3 10.5 7.65 10.5 8.0 9.4 8.45 9.85 8.05 Q10.35 7.55 10.2 6.95 9.75 5.55 8.15 5.95 7.6 6.15 7.35 6.7 7.05 7.3 7.4 7.85 L8.4 8.65 7.4 8.7 Q6.35 8.2 5.5 8.4 L5.4 8.45 5.5 8.5 Q5.2 8.75 5.4 9.15 6.0 10.15 6.95 10.7 L8.7 10.85 9.5 10.2 Q9.95 9.8 9.8 9.45 L10.2 9.35 Q11.1 8.95 11.05 8.05 L11.35 7.95 Q11.7 7.6 11.55 7.2 11.3 6.45 11.6 5.8 L11.85 5.45 Q12.7 5.05 13.55 4.85 L13.7 4.85 14.05 5.05 M-1.6 15.2 L-0.7 16.3 1.65 18.35 2.75 19.2 Q3.3 19.7 4.0 19.95 L6.4 19.9 6.4 20.35 6.65 21.0 6.65 21.25 6.85 21.55 5.0 21.95 1.8 22.35 Q0.2 21.65 -1.5 21.35 L-2.65 21.0 -2.65 20.95 -2.4 20.0 -2.2 14.9 -1.6 15.2 M-9.3 4.2 L-9.35 4.1 -9.3 4.0 -9.3 4.2 M-3.65 6.45 L-3.6 6.45 -3.65 6.45 M11.0 0.15 L10.9 0.2 10.85 0.2 11.0 0.15 M3.45 11.1 Q2.8 10.9 2.95 10.1 1.75 10.35 1.45 11.55 L2.65 11.25 Q3.95 12.35 5.8 12.4 L9.25 12.3 4.7 11.55 3.45 11.1 M5.3 13.25 L5.25 13.3 4.85 13.15 3.25 12.9 3.1 12.9 2.95 12.95 Q2.35 13.1 2.4 13.65 L2.7 14.4 Q3.25 15.3 4.3 15.4 L4.6 15.45 4.95 15.65 6.0 15.95 6.85 16.05 7.6 15.85 Q8.3 15.4 8.0 14.65 L7.95 14.5 Q7.7 13.7 7.05 13.45 L5.3 13.25" fill="#e3b18b" fill-rule="evenodd" stroke="none"/>
    <path d="M-3.4 6.55 Q-2.7 5.75 -2.8 4.55 L-2.85 2.4 Q-3.25 1.2 -4.05 0.15 -4.8 -0.95 -4.65 -2.4 -4.45 -2.85 -3.85 -2.85 -3.25 -2.85 -3.0 -3.35 L-3.6 -5.2 -4.4 -6.45 -4.45 -6.55 -1.95 -8.65 -1.75 -8.8 Q-0.35 -9.65 1.2 -9.45 L2.5 -8.6 1.55 -8.2 Q0.65 -7.7 -0.4 -7.5 L-0.5 -7.45 -0.6 -7.55 -1.8 -6.5 -2.4 -6.0 -1.5 -4.7 Q-1.0 -3.3 -2.0 -2.4 L-2.4 -2.4 -2.8 -2.25 Q-3.25 -1.95 -3.25 -1.35 -3.25 -0.35 -2.5 -0.25 L-2.5 -0.2 Q-1.0 1.9 -2.1 4.35 L-2.2 4.7 Q-2.4 6.1 -3.4 6.55 M8.0 -5.55 L9.55 -6.85 Q10.8 -8.25 12.35 -9.0 13.3 -7.95 13.35 -6.4 13.4 -5.05 14.0 -3.95 L13.9 -3.9 Q12.65 -3.25 13.2 -2.0 L13.15 -2.0 13.1 -2.0 Q12.85 -2.05 12.7 -2.2 12.45 -2.45 12.35 -2.95 L12.05 -4.75 11.6 -6.5 Q10.45 -6.45 9.45 -5.55 8.5 -5.2 8.0 -5.55 M14.7 0.55 L14.65 0.8 Q14.3 1.3 13.6 1.25 L12.5 1.4 11.7 1.6 11.0 2.05 10.9 2.1 10.9 2.15 10.7 2.3 10.7 2.35 10.65 2.4 10.65 2.45 10.65 2.6 10.6 2.7 10.55 3.05 10.6 3.75 10.65 3.95 12.55 4.0 12.6 4.0 12.45 4.1 13.55 4.1 13.6 4.1 14.0 4.1 14.05 4.1 14.15 4.1 14.3 4.35 14.05 5.05 13.7 4.85 13.55 4.85 Q12.7 5.05 11.85 5.45 L11.6 5.8 Q11.3 6.45 11.55 7.2 11.7 7.6 11.35 7.95 L11.05 8.05 Q11.1 8.95 10.2 9.35 L9.8 9.45 Q9.95 9.8 9.5 10.2 L8.7 10.85 6.95 10.7 Q6.0 10.15 5.4 9.15 5.2 8.75 5.5 8.5 L5.5 8.4 Q6.35 8.2 7.4 8.7 L8.4 8.65 9.4 8.45 10.5 8.0 10.5 7.65 10.35 7.3 10.3 7.05 9.85 5.75 9.8 5.5 9.6 5.25 9.55 5.0 Q9.2 4.5 9.4 4.0 L9.7 4.0 9.7 3.0 Q9.75 1.9 10.8 1.45 L11.2 1.25 12.5 1.05 12.7 1.05 14.65 0.55 14.7 0.55 M12.85 9.75 L12.65 10.3 12.55 12.1 12.55 13.4 12.3 13.35 12.15 13.25 Q11.2 11.95 11.8 10.55 L11.95 10.0 12.3 9.6 12.7 9.65 12.85 9.75 M6.4 19.9 L7.7 20.0 7.85 20.1 Q8.1 20.55 7.75 20.9 L7.25 20.8 7.85 20.9 6.85 21.55 6.65 21.25 6.65 21.0 6.4 20.35 6.4 19.9 M-4.7 5.6 L-3.7 6.4 -3.65 6.45 -3.6 6.45 -3.45 6.55 -4.15 6.7 Q-4.8 6.1 -5.0 5.3 L-4.7 5.6 M5.5 3.45 L5.5 3.5 6.15 3.75 6.15 3.95 Q6.2 4.9 5.4 5.5 L1.7 5.75 1.55 5.65 1.15 5.55 0.35 4.9 0.5 4.75 Q-0.2 4.35 -0.55 3.55 -0.95 2.65 -0.55 1.9 L-0.4 1.75 Q0.35 1.75 0.3 2.6 L0.4 3.2 0.25 3.2 0.25 3.25 0.2 3.25 0.15 3.2 0.15 3.3 0.1 3.45 0.15 3.55 0.2 3.55 Q0.2 3.8 0.35 3.95 L4.2 4.25 Q4.1 3.9 4.4 3.65 L4.4 2.75 4.55 2.75 Q5.15 2.85 5.45 3.35 L5.5 3.45 M5.3 13.25 L7.05 13.45 Q7.7 13.7 7.95 14.5 L8.0 14.65 Q8.3 15.4 7.6 15.85 L6.85 16.05 6.0 15.95 4.95 15.65 4.6 15.45 4.3 15.4 Q3.25 15.3 2.7 14.4 L2.4 13.65 Q2.35 13.1 2.95 12.95 L3.1 12.9 3.25 12.9 4.85 13.15 5.25 13.3 5.3 13.25 M-7.75 4.55 Q-6.05 5.1 -5.4 6.9 -5.25 7.5 -5.7 7.7 -6.3 7.95 -6.0 8.6 -6.5 8.7 -6.85 8.3 L-6.85 8.25 -7.0 7.75 -6.85 7.2 -6.8 7.0 -7.25 6.0 -7.35 5.8 Q-7.45 5.4 -7.15 5.25 L-7.75 4.55" fill="#ad7a3f" fill-rule="evenodd" stroke="none"/>
    <path d="M1.3 -3.7 Q2.7 -3.65 2.75 -2.45 2.8 -1.75 2.05 -1.55 1.0 -1.35 0.6 -2.35 0.25 -3.0 0.8 -3.5 L1.3 -3.7 M4.85 -1.55 Q6.05 -1.55 5.75 -0.45 L5.5 -0.2 Q4.95 0.15 4.55 -0.3 4.1 -0.85 4.6 -1.35 L4.85 -1.55 M9.8 -1.35 L10.05 -1.55 Q11.25 -1.55 10.9 -0.45 L10.7 -0.2 Q10.15 0.15 9.75 -0.3 9.3 -0.85 9.8 -1.35 M13.45 -2.9 Q13.6 -3.45 14.15 -3.7 15.2 -3.95 15.45 -2.95 15.55 -2.4 15.2 -2.1 14.2 -1.45 13.55 -2.3 13.35 -2.55 13.45 -2.9 M-2.4 -2.1 L-2.35 -2.15 Q-1.25 -2.2 -1.45 -1.1 L-1.65 -0.7 Q-2.65 -0.3 -2.85 -1.25 -3.0 -1.75 -2.55 -2.05 L-2.5 -2.05 -2.4 -2.1" fill="#00ff33" fill-rule="evenodd" stroke="none"/>
    <path d="M-3.4 6.55 Q-2.4 6.1 -2.2 4.7 L-2.1 4.35 Q-1.0 1.9 -2.5 -0.2 L-2.5 -0.25 -1.85 -0.3 Q-1.1 -0.45 -1.05 -1.2 -0.95 -2.35 -2.0 -2.4 -1.0 -3.3 -1.5 -4.7 L-2.4 -6.0 -1.8 -6.5 -0.6 -7.55 -0.5 -7.45 Q-0.05 -6.65 0.1 -5.6 L0.4 -3.5 0.1 -3.05 0.0 -2.7 -0.1 -2.15 -0.1 -2.0 -0.1 -1.95 -0.05 -1.9 Q0.25 -1.4 0.8 -1.25 L2.75 -1.1 3.15 -2.05 3.35 -1.9 4.15 -1.25 4.05 -1.1 Q3.7 -0.35 4.4 0.05 L4.45 0.1 5.65 0.2 6.0 0.65 6.5 0.95 8.55 1.2 9.85 0.2 10.65 0.3 10.85 0.2 10.9 0.2 11.0 0.15 11.1 0.0 11.25 -0.15 Q11.5 -0.5 11.4 -0.95 L11.4 -1.0 11.3 -1.2 11.35 -1.25 11.4 -1.3 12.4 -2.05 12.55 -2.2 12.7 -2.2 Q12.85 -2.05 13.1 -2.0 L13.15 -2.0 13.2 -2.0 13.25 -1.85 Q13.5 -1.3 14.05 -1.15 L14.55 -1.05 Q14.9 -0.35 14.7 0.55 L14.65 0.55 12.7 1.05 12.5 1.05 11.2 1.25 10.8 1.45 Q9.75 1.9 9.7 3.0 L9.7 4.0 9.4 4.0 6.15 3.75 5.5 3.5 5.5 3.45 5.5 3.0 Q4.25 1.75 2.8 1.3 L2.35 1.2 1.35 1.1 0.85 1.1 -0.15 1.2 -0.55 1.9 Q-0.95 2.65 -0.55 3.55 -0.2 4.35 0.5 4.75 L0.35 4.9 -0.8 4.7 Q-2.1 4.95 -1.45 6.15 L-1.0 6.8 Q-0.8 7.0 -0.55 7.15 L-0.7 7.5 -0.7 8.7 Q-0.05 11.65 0.25 14.75 L0.15 15.3 0.05 15.1 Q-1.15 14.15 -1.3 12.65 -1.45 11.2 -2.0 9.85 L-2.4 10.2 -2.1 14.65 -1.6 15.2 -2.2 14.9 -2.4 20.0 -2.65 20.95 -2.65 21.0 Q-3.65 20.55 -4.45 19.6 -4.5 15.4 -4.9 11.35 -4.15 10.2 -4.0 9.05 L-5.45 9.95 Q-6.2 10.5 -7.05 10.2 -8.55 9.1 -8.5 7.25 L-8.5 7.15 Q-8.5 5.95 -8.9 4.9 L-9.3 4.2 -9.3 4.0 -9.0 3.45 -8.3 2.85 -8.25 2.8 -8.05 2.75 -7.85 2.7 Q-6.2 2.6 -5.55 4.2 L-4.7 5.6 -5.0 5.3 Q-4.8 6.1 -4.15 6.7 L-3.45 6.55 -3.4 6.55 M9.4 8.45 L8.4 8.65 7.4 7.85 Q7.05 7.3 7.35 6.7 7.6 6.15 8.15 5.95 9.75 5.55 10.2 6.95 10.35 7.55 9.85 8.05 L9.4 8.45 M-7.75 4.55 L-7.15 5.25 Q-7.45 5.4 -7.35 5.8 L-7.25 6.0 -6.8 7.0 -6.85 7.2 -7.0 7.75 -6.85 8.25 -6.85 8.3 Q-6.5 8.7 -6.0 8.6 -6.3 7.95 -5.7 7.7 -5.25 7.5 -5.4 6.9 -6.05 5.1 -7.75 4.55" fill="#edcdb6" fill-rule="evenodd" stroke="none"/>
    <path d="M10.55 3.05 L10.55 3.0 10.6 2.95 10.65 2.9 10.8 2.95 10.9 3.05 11.4 3.5 11.5 3.65 12.55 3.7 12.55 3.65 12.7 3.55 12.95 3.25 13.1 3.2 13.1 2.5 Q12.95 2.1 13.2 1.85 L13.55 1.9 13.65 1.8 13.95 1.85 14.05 1.8 14.05 1.9 Q14.45 2.05 14.4 2.7 L14.4 3.3 Q14.45 3.8 14.05 4.05 L14.05 4.1 14.0 4.1 13.6 4.1 13.55 4.1 12.45 4.1 12.6 4.0 12.55 4.0 10.65 3.95 10.6 3.75 10.55 3.05 M12.45 2.35 L12.5 2.35 12.5 2.4 12.45 2.35 M0.4 3.2 L0.7 3.25 0.75 3.25 0.75 3.3 0.8 3.25 1.4 3.35 2.3 3.4 3.1 2.45 Q3.5 1.75 4.4 2.65 L4.4 2.75 4.4 3.65 Q4.1 3.9 4.2 4.25 L0.35 3.95 Q0.2 3.8 0.2 3.55 L0.15 3.55 0.1 3.45 0.15 3.3 0.15 3.2 0.2 3.25 0.25 3.25 0.25 3.2 0.4 3.2 M1.15 5.55 L1.45 6.85 1.05 7.35 Q0.15 7.65 -0.55 7.15 -0.8 7.0 -1.0 6.8 L-1.45 6.15 Q-2.1 4.95 -0.8 4.7 L0.35 4.9 1.15 5.55" fill="#ffffff" fill-rule="evenodd" stroke="none"/>
    <path d="M-2.9 24.35 L-2.6 24.45 1.9 24.35 Q2.35 23.95 2.3 23.25 L2.3 23.2 3.95 23.35 4.0 23.35 Q4.5 24.55 4.15 26.0 0.25 27.25 -2.95 25.1 L-3.0 25.1 -2.9 24.35 M5.1 25.85 L4.9 25.85 4.95 24.75 Q5.5 25.05 6.3 24.75 L7.1 24.0 7.25 24.35 7.2 25.15 7.15 25.2 6.9 25.4 5.8 25.85 5.1 25.85 M7.4 23.05 L7.7 23.75 8.1 23.35 8.3 23.2 8.5 22.8 8.4 22.05 8.05 22.1 8.75 22.1 Q9.6 22.35 9.75 23.2 9.45 24.05 8.45 24.5 L8.25 24.35 Q7.65 23.85 7.4 23.05 M-5.4 23.15 L-5.4 23.05 Q-4.15 23.65 -3.25 22.55 L-3.1 21.85 -3.15 21.7 -3.85 21.6 -3.65 21.6 Q-3.2 21.55 -2.65 21.95 L-2.5 22.1 Q-3.35 23.35 -3.7 24.85 L-3.9 24.9 Q-4.45 25.05 -4.8 24.4 L-4.75 24.0 -4.8 24.35 Q-5.55 24.05 -5.4 23.15" fill="#999999" fill-rule="evenodd" stroke="none"/>
    <path d="M2.3 23.2 L2.3 23.25 Q2.35 23.95 1.9 24.35 L-2.6 24.45 -2.9 24.35 Q-2.6 22.55 -1.45 22.4 L-0.4 22.55 2.3 23.2 M4.95 24.75 L4.8 24.05 4.8 24.0 4.75 23.45 4.9 23.15 Q5.05 22.9 5.45 22.8 L6.1 22.75 6.65 23.15 7.1 24.0 6.3 24.75 Q5.5 25.05 4.95 24.75 M8.05 22.1 L8.4 22.05 8.5 22.8 8.3 23.2 8.1 23.35 7.7 23.75 7.4 23.05 7.3 22.6 7.3 22.55 7.3 22.45 7.45 22.35 7.7 22.2 7.75 22.15 8.05 22.1 M-2.4 -2.1 L-2.4 -2.15 -2.35 -2.15 -2.4 -2.1 M-4.8 20.75 L-4.7 20.9 Q-5.2 21.8 -6.05 22.2 L-6.05 22.15 Q-6.45 21.05 -5.85 20.0 -5.3 20.2 -4.8 20.75 M-5.4 23.05 L-5.4 22.95 Q-5.3 22.35 -4.7 22.25 L-4.45 21.95 -4.4 21.9 -4.2 21.75 -4.15 21.75 -4.1 21.7 -3.85 21.6 -3.15 21.7 -3.1 21.85 -3.25 22.55 Q-4.15 23.65 -5.4 23.05" fill="#cccccc" fill-rule="evenodd" stroke="none"/>
    <path d="M-2.9 24.35 L-3.0 25.1 -2.95 25.1 -3.0 25.1 Q-3.6 25.2 -3.9 24.9 L-3.7 24.85 Q-3.35 23.35 -2.5 22.1 L-2.65 21.95 Q-1.9 21.9 -1.45 22.4 -2.6 22.55 -2.9 24.35 M4.15 26.0 Q4.5 24.55 4.0 23.35 L3.95 23.35 Q4.1 23.05 4.5 23.0 L4.9 23.15 4.75 23.45 4.8 24.0 4.8 24.05 4.95 24.75 4.9 25.85 5.1 25.85 4.8 26.0 4.2 26.0 4.15 26.0 M7.15 25.2 L7.2 25.15 7.25 24.35 7.1 24.0 6.65 23.15 6.1 22.75 6.4 22.45 6.55 22.35 7.3 22.55 7.3 22.6 7.4 23.05 Q7.65 23.85 8.25 24.35 L8.0 25.15 Q7.7 25.75 7.1 25.45 L6.9 25.4 7.15 25.2 M-6.05 22.15 L-6.05 22.2 Q-5.2 21.8 -4.7 20.9 L-4.8 20.75 Q-3.9 20.8 -3.65 21.6 L-3.85 21.6 -4.1 21.7 -4.15 21.75 -4.2 21.75 -4.4 21.9 -4.45 21.95 -4.7 22.25 Q-5.3 22.35 -5.4 22.95 L-5.4 23.05 -5.4 23.15 -5.85 22.8 -6.05 22.3 -6.05 22.15" fill="#666666" fill-rule="evenodd" stroke="none"/>
  </g>
</svg>
