<?xml version="1.0" encoding="UTF-8" standalone="no"?>
<svg xmlns:xlink="http://www.w3.org/1999/xlink" height="229.45px" width="62.5px" xmlns="http://www.w3.org/2000/svg">
  <g transform="matrix(1.0, 0.0, 0.0, 1.0, 32.55, 75.65)">
    <path d="M1.95 -74.3 L1.05 -74.85 -6.4 -74.1 Q-9.85 -72.15 -10.0 -68.45 L-10.3 -61.15 -10.25 -61.05 -9.85 -60.35 -9.8 -60.25 -9.15 -58.6 -8.75 -56.6 -8.7 -55.6 -8.65 -54.7 -8.65 -53.2 -8.65 -49.5 Q-7.4 -46.25 -5.3 -43.35 L-4.5 -42.3 -4.2 -41.85 -2.9 -41.05 Q-2.35 -40.75 -1.7 -40.55 L-0.35 -40.4 Q0.25 -40.4 0.75 -40.75 L1.9 -41.85 2.45 -42.6 3.05 -43.6 3.6 -44.6 4.1 -45.7 4.5 -46.8 4.85 -47.95 5.15 -49.05 5.4 -50.25 5.5 -50.95 5.6 -52.05 5.65 -52.7 5.7 -53.0 5.75 -54.25 5.7 -56.5 5.6 -57.35 5.7 -58.0 5.75 -58.3 Q6.75 -60.6 6.45 -63.15 L6.15 -65.1 5.9 -67.0 5.75 -68.0 5.5 -69.15 5.3 -69.75 4.75 -71.25 Q3.8 -73.1 1.95 -74.3 M2.35 -57.95 L5.15 -57.85 4.8 -56.9 4.1 -56.8 4.0 -57.0 Q3.7 -57.35 3.05 -57.3 L1.45 -57.05 0.25 -55.85 0.25 -55.65 0.0 -55.5 -0.2 -55.5 -0.3 -55.55 -0.4 -55.55 -0.45 -55.65 -0.5 -55.75 0.1 -56.65 0.25 -56.9 0.25 -56.95 0.35 -57.15 0.4 -57.2 Q1.0 -57.8 1.9 -57.9 L2.35 -57.95 M2.75 -55.8 L1.7 -55.55 1.6 -55.7 Q1.45 -55.9 1.45 -56.15 1.4 -56.95 2.2 -56.95 2.9 -56.75 2.8 -56.05 L2.75 -55.8 M-3.5 -57.15 L-3.45 -56.9 -3.3 -56.65 Q-2.85 -56.3 -2.7 -55.75 L-2.75 -55.65 -2.8 -55.55 -2.9 -55.55 -3.0 -55.5 -3.2 -55.5 -3.45 -55.65 -3.45 -55.85 -4.65 -57.05 -6.25 -57.3 Q-6.9 -57.35 -7.15 -57.0 L-7.3 -56.8 -8.0 -56.9 -8.35 -57.85 Q-6.7 -58.15 -5.1 -57.9 -4.2 -57.8 -3.55 -57.2 L-3.5 -57.15 M-4.85 -55.55 L-5.95 -55.8 -6.0 -56.05 Q-6.1 -56.75 -5.4 -56.95 -4.6 -56.95 -4.65 -56.15 -4.65 -55.9 -4.8 -55.7 L-4.85 -55.55 M0.3 112.0 L-0.1 112.45 Q0.1 120.05 -0.2 127.65 -0.55 135.25 1.65 142.2 2.7 143.55 2.4 145.25 L1.4 148.35 Q-2.25 149.65 -5.5 152.0 -8.75 154.35 -13.1 153.6 -17.7 153.1 -21.7 150.9 -22.4 149.7 -21.7 148.55 -20.1 146.8 -18.0 145.55 -16.0 144.25 -14.45 142.2 -12.0 137.0 -8.9 132.25 -9.0 122.6 -9.45 113.5 -10.55 112.5 -11.75 111.8 -13.0 111.1 -13.55 109.6 -13.7 103.55 -12.8 97.45 -12.0 91.35 -12.9 85.15 -14.95 74.95 -15.0 64.1 -15.05 53.2 -13.85 42.7 -13.65 40.85 -14.6 39.5 -15.6 38.05 -15.05 36.2 -14.2 33.2 -12.65 30.5 -13.85 27.15 -13.85 23.4 -13.85 19.6 -12.9 16.3 -13.65 14.95 -15.0 14.15 -16.4 13.35 -16.7 11.75 -17.15 8.35 -17.05 5.0 -16.95 1.6 -17.3 -1.95 L-18.05 -4.35 Q-19.7 -1.05 -19.6 3.2 -19.55 7.4 -20.8 10.85 L-21.1 11.2 Q-21.1 16.1 -20.15 21.1 -19.25 26.05 -21.95 30.35 L-21.55 46.35 Q-21.45 47.2 -20.65 47.4 L-18.4 52.05 -18.05 58.4 Q-18.7 59.1 -19.45 58.85 -20.1 58.0 -20.2 56.95 -20.25 55.85 -21.1 55.1 -22.25 58.45 -21.4 62.2 -20.5 64.55 -20.45 67.35 -21.4 68.25 -22.5 67.9 -23.75 64.45 -25.8 61.25 -27.85 58.05 -28.5 54.3 L-27.9 46.0 Q-28.95 40.7 -29.3 34.9 -29.7 29.1 -32.55 24.45 -32.15 20.9 -30.95 17.7 -29.8 14.5 -29.4 11.0 -31.6 6.35 -30.05 1.65 -28.55 -3.05 -28.5 -8.0 -27.9 -13.05 -28.0 -18.4 -28.2 -23.75 -26.5 -28.35 -24.5 -30.2 -21.95 -31.0 -19.45 -31.75 -17.0 -32.7 L-9.45 -36.25 Q-8.65 -36.15 -8.35 -35.5 -8.05 -34.85 -7.2 -34.85 -5.55 -36.3 -5.8 -38.55 L-5.9 -42.5 -8.65 -46.9 Q-10.25 -47.55 -11.9 -48.65 -13.55 -49.7 -13.75 -51.75 -15.15 -56.75 -11.35 -60.15 L-11.0 -68.05 Q-10.7 -72.0 -7.4 -74.4 -4.25 -75.8 -0.25 -75.65 3.75 -75.55 5.55 -71.7 7.2 -68.45 6.8 -64.25 6.45 -61.1 8.6 -59.15 L9.1 -58.35 9.6 -57.25 10.1 -55.65 10.05 -52.85 Q10.0 -50.1 7.95 -48.3 5.55 -47.4 4.7 -45.0 L3.55 -42.25 3.8 -36.35 Q5.35 -35.1 7.25 -35.5 L10.05 -34.2 Q11.45 -33.45 12.85 -34.75 13.55 -35.05 13.85 -34.45 14.1 -33.9 14.7 -33.8 16.85 -31.55 20.1 -31.3 23.25 -31.1 24.8 -28.05 25.9 -23.95 25.8 -19.5 25.65 -15.05 26.0 -10.6 27.85 -0.55 27.35 9.65 29.0 13.95 29.6 18.75 30.6 23.95 28.6 28.55 28.55 36.5 27.5 44.4 L28.85 47.1 Q29.4 50.3 29.25 53.9 29.1 57.5 26.35 59.9 24.85 63.9 23.75 68.1 22.4 68.5 21.5 67.6 L22.35 62.05 Q22.65 59.15 21.6 56.6 L20.4 58.3 19.4 58.4 Q18.8 58.5 18.6 57.95 L19.0 53.35 Q19.0 50.95 20.1 49.05 21.8 44.2 21.15 38.9 20.5 33.6 20.4 28.55 17.4 25.85 18.55 22.5 19.65 19.1 19.55 15.7 19.45 13.5 19.5 11.3 19.55 9.05 18.0 7.55 L17.25 0.5 Q15.95 3.35 16.1 6.7 16.25 10.0 15.15 13.0 13.0 13.8 13.7 15.25 14.4 16.7 14.7 18.1 14.4 20.95 14.55 24.0 14.65 27.0 13.75 29.6 L16.65 37.3 Q16.7 39.75 15.15 41.5 L16.6 61.45 Q17.25 71.65 15.9 81.5 15.6 87.85 16.6 93.65 17.55 99.45 18.0 105.5 16.9 109.95 13.75 113.35 13.7 120.2 13.3 126.95 12.95 130.3 15.0 132.7 L18.9 137.5 22.2 143.45 Q23.95 146.45 27.2 148.2 28.0 149.5 27.2 150.8 22.45 153.75 16.65 152.75 11.7 149.0 5.65 148.2 L4.7 147.6 Q4.55 142.35 5.65 137.35 6.75 132.35 5.95 126.95 L5.0 112.75 Q4.05 112.05 3.6 111.1 3.15 110.1 2.3 109.75 L1.65 110.45 Q1.8 109.85 1.35 109.2 L1.95 108.65 2.05 108.7 2.3 108.85 3.1 109.35 3.1 109.3 Q4.3 110.2 5.15 111.65 6.9 112.5 8.5 111.6 10.05 110.6 11.95 110.9 11.8 111.15 11.8 111.35 11.7 111.95 12.35 112.25 L13.9 112.45 15.8 109.25 16.9 106.6 Q15.75 100.9 15.1 95.1 L14.65 90.2 14.6 89.7 14.2 83.45 Q15.7 73.65 15.4 63.5 L15.3 61.4 Q14.9 52.25 14.0 43.3 11.1 45.8 9.15 49.05 7.95 51.4 5.95 52.25 L3.85 52.7 -3.05 52.8 -3.95 52.1 -5.25 51.0 -8.75 47.6 -8.75 47.55 -11.95 43.65 -12.4 43.65 -12.8 49.65 -12.9 50.6 -13.15 52.7 -13.3 53.3 -13.35 53.5 -13.9 57.1 -14.1 59.65 Q-14.4 63.65 -14.05 67.8 -13.4 75.5 -12.2 82.7 -10.35 89.0 -11.6 95.3 -12.9 101.55 -12.55 108.1 -11.55 111.1 -8.65 112.25 L-8.45 112.3 -8.45 112.1 -8.45 112.0 -8.3 111.55 -7.9 111.75 -7.15 112.6 Q-5.9 113.65 -5.2 112.45 -3.75 111.85 -2.4 111.9 L-3.25 111.95 Q-4.7 113.2 -6.0 114.6 L-8.4 114.2 Q-8.9 115.9 -8.45 117.35 L-8.6 117.55 -8.6 118.2 -8.55 118.4 -8.45 118.5 -8.5 118.75 -8.4 119.5 Q-8.3 123.65 -7.8 127.7 -7.7 127.75 -7.55 127.85 L-7.6 127.95 -7.55 128.75 -7.85 128.65 -8.0 130.8 -7.95 130.85 -8.05 131.0 Q-8.7 132.15 -7.9 133.05 L-7.2 133.15 -8.6 133.0 Q-9.9 134.65 -10.65 136.45 L-10.75 136.5 -10.95 136.8 -11.3 137.3 -11.4 137.6 -11.45 137.6 -13.45 142.15 -15.4 145.15 -16.3 145.65 -16.7 145.85 -17.35 146.55 Q-18.95 147.05 -20.35 148.3 -21.0 149.5 -20.7 150.75 -16.6 152.4 -11.95 152.85 L-11.65 152.8 Q-8.25 152.5 -5.65 150.2 -2.95 147.8 0.65 147.45 2.2 146.3 1.85 144.1 L-0.3 136.15 -0.8 133.9 -0.95 133.35 -1.05 132.8 -1.25 132.75 -1.3 132.75 -1.3 132.7 Q-0.9 131.95 -1.3 131.0 L-1.3 130.95 -1.35 130.55 -1.4 130.7 Q-1.3 129.9 -1.45 129.3 L-1.3 129.1 Q-0.95 128.6 -1.2 127.95 L-1.45 127.7 -1.45 118.95 Q-1.25 118.6 -1.3 118.05 L-1.45 117.45 Q-1.25 117.05 -1.3 116.45 -1.5 115.15 -1.2 114.2 L-3.55 114.6 -2.95 114.5 -0.75 112.7 0.3 112.0 M7.45 -59.1 L6.95 -59.2 6.7 -59.05 6.7 -58.95 6.65 -58.85 6.6 -55.55 6.6 -55.45 6.55 -52.8 6.5 -52.2 6.25 -50.4 Q6.2 -49.6 6.65 -49.1 7.4 -49.05 7.9 -49.6 9.2 -51.05 9.2 -52.95 L9.2 -53.05 9.35 -54.65 9.3 -55.3 9.3 -55.4 9.3 -55.7 9.2 -56.75 9.15 -57.0 9.05 -57.2 9.05 -57.5 8.75 -57.85 8.7 -57.9 8.5 -58.2 8.45 -58.25 8.4 -58.35 8.35 -58.45 8.25 -58.55 7.45 -59.1 M22.95 -28.3 Q21.65 -29.5 20.0 -30.0 17.4 -30.8 15.15 -32.15 14.35 -32.4 13.95 -33.1 L13.7 -33.4 Q13.3 -33.8 12.75 -33.8 7.8 -31.2 3.05 -28.05 -1.65 -25.85 -4.9 -21.8 -8.15 -17.75 -10.65 -13.4 -12.3 -11.45 -14.35 -10.05 -16.4 -8.65 -17.2 -6.3 L-17.15 -6.2 -16.75 -5.3 Q-14.4 0.5 -16.1 6.95 L-16.3 8.05 -16.3 8.1 -16.3 8.25 Q-16.35 9.2 -16.0 10.05 L-15.95 10.15 -15.75 10.6 -15.5 11.0 -15.05 11.65 Q-14.0 13.05 -12.45 14.2 L-10.2 12.5 -10.65 12.15 -11.6 11.5 Q-8.5 12.0 -5.65 13.45 L-5.6 13.45 -5.4 13.55 -5.25 13.6 -4.05 14.15 -1.75 14.9 -0.55 15.2 0.65 15.4 1.7 15.45 2.35 15.4 5.2 14.65 5.65 14.4 Q7.75 13.15 10.0 12.05 11.55 11.55 12.9 12.05 L13.0 12.05 12.75 12.25 Q12.4 12.45 12.1 12.7 L12.15 12.75 13.0 13.9 Q15.25 12.9 15.25 10.4 14.25 4.0 15.9 -2.1 L16.2 -4.1 16.15 -6.35 16.2 -8.1 16.2 -8.05 16.35 -8.7 Q16.5 -9.6 16.95 -10.4 L17.25 -10.1 17.25 -9.5 17.25 -9.3 17.25 -9.15 17.35 -6.55 17.6 -4.9 17.7 -4.25 Q18.6 -2.1 18.6 0.5 L18.6 5.45 19.05 7.3 19.15 7.6 19.4 7.95 19.75 8.25 19.85 8.3 20.05 8.4 19.85 8.3 Q20.2 9.95 21.25 10.75 L21.05 10.7 21.0 11.35 20.95 12.9 Q20.75 16.8 20.05 20.6 L19.8 22.0 19.2 24.55 19.8 25.3 19.8 25.35 Q20.65 27.45 22.65 27.7 L22.95 27.7 23.0 27.75 23.85 27.85 26.2 28.45 26.45 28.5 Q28.8 28.05 28.7 25.8 28.55 23.5 28.85 21.7 L28.2 18.1 Q27.35 14.0 26.1 10.15 L26.05 10.1 26.25 8.9 26.25 8.5 25.9 8.8 26.35 8.4 26.75 7.85 Q26.8 3.0 26.0 -1.65 L24.65 -11.0 24.2 -26.85 22.95 -28.3 M2.65 -40.75 L2.65 -40.9 2.55 -40.8 2.05 -40.1 1.85 -39.9 Q0.9 -39.25 -0.35 -39.15 L-1.4 -39.45 -3.05 -39.85 -3.1 -39.85 Q-3.7 -40.05 -4.15 -40.4 L-4.55 -40.8 -4.55 -40.55 -4.5 -39.1 -4.35 -38.0 Q-4.05 -35.5 -6.45 -34.25 -5.9 -33.9 -5.25 -33.65 L-4.05 -33.25 -3.9 -33.2 -2.25 -33.05 -1.85 -33.0 1.25 -33.2 3.8 -34.0 4.05 -34.1 4.15 -34.15 4.7 -34.45 Q2.35 -35.25 2.55 -37.75 L2.65 -40.75 M-9.55 -17.1 L-9.25 -17.65 -8.4 -19.1 -6.45 -21.75 -4.2 -24.2 Q-0.35 -27.7 3.95 -30.2 L9.5 -33.5 Q8.8 -34.3 7.9 -34.45 L6.9 -34.4 5.35 -33.55 4.65 -33.05 Q1.75 -31.8 -1.8 -31.7 -3.85 -31.65 -5.55 -32.3 -6.85 -32.8 -8.0 -33.7 L-8.9 -34.9 -9.45 -34.6 -10.35 -34.2 -11.2 -33.8 Q-16.7 -31.35 -22.6 -29.9 L-24.45 -29.5 Q-26.0 -28.35 -26.3 -26.6 L-26.4 -22.15 -26.55 -14.7 Q-26.65 -8.8 -27.9 -3.3 L-28.85 1.3 -29.4 3.3 -29.45 3.45 -29.75 5.15 -29.7 6.7 Q-29.55 8.25 -28.65 9.75 L-27.45 9.3 Q-26.4 11.5 -24.95 10.6 -23.9 9.95 -22.6 10.2 L-21.9 10.4 Q-21.15 9.4 -21.15 8.25 -21.1 3.15 -20.25 -2.0 L-19.9 -3.55 -19.2 -5.95 -18.4 -7.85 -17.75 -7.6 -15.75 -9.75 -13.75 -11.75 -12.25 -13.5 -12.2 -13.55 -10.95 -15.1 -9.55 -17.1 M19.0 -18.3 L19.0 -18.25 19.05 -18.35 18.65 -17.45 16.85 -12.95 16.5 -12.15 Q15.95 -11.5 15.25 -11.4 L15.85 -13.35 Q16.55 -15.15 17.65 -16.7 L17.75 -16.8 19.0 -18.3 M19.65 -12.15 L20.3 -12.85 Q20.2 -11.95 19.7 -11.1 L18.45 -9.65 Q18.65 -10.9 19.65 -12.15 M-9.9 -56.9 L-9.9 -56.95 -10.0 -57.25 -11.0 -59.3 -11.35 -58.95 -11.35 -58.85 -11.45 -58.85 -11.7 -58.7 -12.15 -58.05 -12.2 -58.05 -12.25 -57.9 -12.3 -57.9 -13.1 -56.1 -13.1 -55.95 -13.15 -55.75 -13.15 -55.65 -13.15 -55.6 -13.2 -55.5 -13.2 -55.4 -13.2 -55.25 -13.15 -53.3 -12.75 -51.75 Q-12.4 -50.75 -11.65 -50.05 L-11.45 -49.9 -11.4 -49.8 -11.4 -49.85 -11.35 -49.8 Q-10.85 -49.4 -10.45 -49.55 L-9.85 -49.35 -9.75 -54.2 -9.75 -54.55 Q-9.65 -55.8 -9.9 -56.9 M-0.9 -50.95 L-0.75 -50.9 Q0.05 -50.55 0.3 -49.8 L-0.25 -49.65 -2.3 -49.5 -2.6 -49.5 -2.85 -49.95 -2.25 -50.5 -1.95 -50.8 -1.85 -50.9 -1.6 -50.85 -1.45 -51.0 -1.4 -51.05 -0.9 -50.95 M-3.6 -46.95 L0.45 -46.8 Q-1.6 -45.9 -3.8 -46.8 L-3.6 -46.95 M-3.15 -37.6 Q-2.2 -36.05 -1.5 -34.15 -3.1 -35.4 -3.15 -37.6 M-11.95 16.1 Q-12.65 18.7 -12.7 21.5 L-12.7 22.05 -12.75 22.55 -12.75 22.7 Q-12.85 26.4 -11.8 29.55 L-11.75 29.7 Q-7.8 31.95 -3.4 33.8 0.95 35.6 5.6 33.45 7.75 32.5 10.15 31.6 L10.5 31.5 10.55 31.5 Q13.15 30.55 13.45 27.45 L13.6 22.15 13.6 21.3 13.6 20.75 Q13.6 17.35 12.4 14.5 10.95 12.0 9.25 13.7 L5.95 16.55 Q2.85 17.85 0.0 16.85 L-5.65 14.85 -11.6 15.05 -11.95 16.1 M-23.4 11.7 L-23.45 11.7 -23.8 11.95 -24.15 12.25 -26.25 12.15 -28.05 11.0 -28.25 12.6 Q-28.75 15.1 -29.7 17.35 -31.0 20.35 -31.7 23.6 L-30.6 26.5 -30.45 26.95 Q-29.95 28.2 -28.65 29.1 L-25.35 30.0 Q-23.6 30.3 -22.2 29.1 -20.9 26.45 -21.1 23.25 -21.35 20.0 -22.0 17.25 L-22.6 11.95 -22.65 11.65 -23.4 11.7 M-25.85 31.8 L-28.2 31.35 Q-28.65 33.65 -27.75 35.65 L-27.65 35.7 -27.75 35.85 Q-28.0 36.3 -27.65 36.7 L-27.6 36.75 -27.95 36.6 -27.6 41.15 -27.35 41.45 Q-27.6 42.2 -27.25 42.9 L-27.15 43.0 -27.3 44.35 Q-27.35 46.0 -26.1 46.75 L-24.2 46.8 Q-23.25 46.5 -22.5 45.7 -22.2 44.35 -22.65 43.0 L-22.6 43.05 -22.6 43.0 Q-22.35 42.45 -22.5 41.75 -22.25 41.2 -22.45 40.45 L-22.95 36.95 -23.2 37.0 -22.85 35.6 Q-22.8 35.25 -22.9 35.0 L-22.9 34.25 -23.35 31.7 -25.85 31.8 M-23.1 47.9 L-23.4 48.15 Q-25.2 48.45 -26.85 47.75 L-27.05 47.7 -27.15 49.3 -27.5 53.1 -27.5 53.15 -27.25 55.3 Q-26.75 57.95 -25.15 60.15 -22.95 63.25 -21.9 66.8 -21.45 66.95 -21.15 66.55 -21.45 64.7 -22.1 62.95 L-22.2 62.7 -22.25 62.65 -22.3 62.5 Q-22.8 60.95 -22.65 59.25 -22.6 56.2 -21.9 53.4 -20.4 54.2 -19.95 56.0 L-19.2 58.05 -19.2 53.25 Q-20.15 50.6 -21.45 48.1 L-21.95 47.2 -22.0 47.05 -23.1 47.9 M13.55 40.75 L15.9 37.9 Q14.95 34.25 13.1 31.25 8.7 32.9 4.75 35.45 0.2 37.8 -4.05 35.55 L-4.5 35.3 -11.7 31.15 -12.15 30.9 -14.0 35.05 Q-15.1 37.15 -13.65 39.2 L-4.45 49.65 Q-2.6 51.95 0.2 51.5 L5.55 51.3 6.7 50.2 Q9.9 45.35 13.55 40.75 M-5.45 87.3 Q-4.3 88.45 -4.65 90.2 -5.25 91.7 -6.75 92.1 L-7.25 92.2 -6.6 90.65 -6.5 90.5 -6.15 89.4 -6.1 89.2 -5.6 87.15 -5.45 87.3 M1.25 101.8 L1.25 101.7 0.85 100.35 Q-1.75 86.8 -1.1 72.75 -0.7 69.05 0.25 65.6 1.2 62.15 1.8 58.5 L2.1 58.5 2.85 63.65 4.5 73.2 4.7 74.35 5.3 79.65 Q5.55 83.9 5.15 88.45 4.55 94.85 2.6 100.8 L2.15 102.2 1.95 102.8 Q1.3 102.5 1.25 101.8 M22.5 30.2 L21.6 30.0 Q21.9 31.7 21.75 33.8 21.65 34.85 22.15 35.5 21.75 36.25 22.2 37.0 L22.0 36.9 22.2 43.7 Q22.95 44.8 24.25 44.95 L25.35 44.9 Q26.95 43.7 26.9 41.5 L26.85 37.4 26.9 37.35 27.2 36.35 27.15 35.5 27.1 35.35 27.1 30.35 22.5 30.2 M24.85 60.95 L25.65 59.25 Q27.3 57.55 27.85 55.55 L28.0 54.8 28.0 54.7 28.05 52.75 Q27.8 49.9 27.2 47.35 L26.7 45.55 25.1 46.3 Q23.9 46.6 22.5 46.3 L22.35 46.7 22.2 47.05 22.2 47.1 20.45 50.45 Q19.15 52.45 19.95 54.95 19.4 56.35 19.75 57.65 20.5 57.05 20.7 55.9 20.95 54.75 22.0 54.2 23.85 56.95 23.3 60.35 L22.2 66.8 Q22.5 67.25 23.05 67.15 23.6 63.9 24.85 60.95 M1.95 63.35 Q1.05 66.45 0.45 69.7 -0.4 85.4 1.8 100.35 4.8 91.75 4.0 82.05 3.2 72.3 1.95 63.35 M9.8 93.45 Q8.75 91.7 8.35 89.85 L8.15 88.9 Q9.55 90.15 10.05 91.65 L10.1 91.85 Q10.4 92.95 10.25 94.2 L10.15 94.05 10.05 93.9 9.8 93.45 M9.2 114.05 L6.65 114.55 6.9 120.0 6.95 120.0 Q6.65 120.25 6.75 120.8 6.8 121.15 7.0 121.3 L6.85 121.3 Q6.6 125.2 7.35 128.7 L7.5 128.7 Q7.3 128.9 7.25 129.35 L7.3 129.9 7.55 130.3 7.2 130.2 Q7.35 134.7 6.2 138.7 4.95 142.7 5.4 147.0 8.6 147.05 11.25 148.5 L16.45 151.65 Q22.15 152.55 26.5 149.7 26.5 148.45 25.5 147.8 L23.7 146.8 23.55 146.55 22.55 145.65 22.45 145.45 22.55 145.45 22.5 145.4 19.6 140.85 Q18.35 138.6 16.45 136.65 L16.2 136.25 15.55 135.75 15.1 135.35 Q13.4 133.05 12.35 130.4 L12.75 129.45 Q12.85 128.65 12.5 128.25 L12.45 128.2 Q12.35 126.25 12.55 124.35 12.75 122.4 12.35 120.6 L12.4 120.85 12.55 120.65 12.5 119.65 12.2 119.4 12.2 113.95 9.5 113.9 9.2 114.05 M8.95 129.0 L9.8 129.0 9.25 129.0 9.05 129.05 8.95 129.0" fill="#000000" fill-rule="evenodd" stroke="none"/>
    <path d="M-9.15 -58.6 L-9.8 -60.25 -9.85 -60.35 -10.25 -61.05 -10.3 -61.15 -10.0 -68.45 Q-9.85 -72.15 -6.4 -74.1 L1.05 -74.85 1.95 -74.3 1.95 -74.25 Q2.6 -72.9 2.85 -71.35 L3.65 -65.6 Q3.85 -64.15 3.45 -62.75 L2.75 -61.4 1.6 -60.3 Q0.8 -59.75 -0.1 -59.6 0.05 -59.4 -0.25 -58.9 L-0.65 -58.45 -0.7 -58.2 -0.95 -57.9 Q-2.2 -57.9 -2.45 -59.25 L-2.65 -59.65 -2.75 -59.8 -8.45 -60.1 -8.5 -59.8 -8.6 -58.85 Q-8.65 -58.25 -9.0 -58.0 L-9.15 -58.6 M3.15 -53.4 Q3.9 -52.7 3.25 -51.1 3.05 -50.55 2.5 -50.5 -0.15 -50.15 0.3 -52.7 0.35 -53.2 0.8 -53.45 L1.1 -53.6 1.25 -53.75 1.3 -53.9 1.95 -53.9 Q2.6 -53.9 3.15 -53.4 M-5.0 -53.45 Q-4.5 -52.8 -4.75 -51.45 -4.9 -50.8 -5.35 -50.35 -7.95 -49.35 -8.55 -51.8 -8.85 -53.05 -7.85 -53.85 L-7.65 -53.9 -7.35 -54.05 -7.35 -54.1 -6.8 -54.1 -6.15 -54.05 Q-5.5 -53.9 -5.0 -53.45 M-4.25 -71.65 L-4.1 -72.0 -4.1 -72.15 -4.25 -72.25 -4.95 -72.4 Q-6.05 -72.2 -7.0 -71.35 L-7.55 -70.65 Q-8.95 -67.9 -7.55 -65.0 L-7.3 -64.85 -6.7 -64.85 Q-6.3 -65.25 -6.15 -65.85 -5.7 -68.25 -5.6 -70.75 -5.05 -71.4 -4.25 -71.65 M-2.25 -50.5 L-2.35 -51.0 -2.45 -52.75 -2.4 -53.65 -1.95 -54.3 Q-1.0 -54.15 -0.9 -53.05 L-0.9 -50.95 -1.4 -51.05 Q-1.05 -51.7 -1.65 -52.0 L-1.8 -52.0 -1.85 -51.95 -2.05 -51.65 Q-2.35 -51.1 -1.85 -50.9 L-1.95 -50.8 -2.25 -50.5 M-0.8 -37.35 Q0.05 -37.05 0.15 -36.15 0.25 -35.4 -0.3 -34.95 -1.5 -34.6 -1.7 -35.8 -1.85 -36.6 -1.45 -37.15 L-1.0 -37.3 -0.8 -37.35 M-22.3 62.5 L-22.25 62.65 -22.2 62.7 -22.1 62.95 Q-21.45 64.7 -21.15 66.55 -21.45 66.95 -21.9 66.8 -22.95 63.25 -25.15 60.15 -26.75 57.95 -27.25 55.3 L-27.1 54.7 -27.3 54.3 -27.35 53.6 -27.4 53.5 -27.45 53.4 -27.5 53.15 -27.5 53.1 -27.15 49.3 -26.6 49.6 -23.8 49.9 -23.4 49.9 -24.0 52.0 -25.1 55.95 -24.9 56.35 -24.7 57.0 -24.7 56.95 -24.95 56.9 -25.0 56.9 -25.35 56.95 -25.75 57.6 -25.7 57.95 Q-25.0 58.75 -24.15 58.6 L-24.1 59.1 -24.05 59.8 Q-23.05 60.8 -22.45 62.05 L-22.3 62.5 M22.2 47.1 Q22.7 48.25 24.4 47.9 L25.4 47.8 25.25 50.6 Q24.85 53.45 25.0 56.45 L25.05 57.5 25.0 59.2 24.85 60.95 Q23.6 63.9 23.05 67.15 22.5 67.25 22.2 66.8 L23.3 60.35 Q23.85 56.95 22.0 54.2 20.95 54.75 20.7 55.9 20.5 57.05 19.75 57.65 19.4 56.35 19.95 54.95 19.15 52.45 20.45 50.45 L22.2 47.1" fill="#edcdb6" fill-rule="evenodd" stroke="none"/>
    <path d="M4.0 -57.0 L4.15 -56.65 Q3.5 -56.1 2.75 -55.8 L2.8 -56.05 Q2.9 -56.75 2.2 -56.95 1.4 -56.95 1.45 -56.15 1.45 -55.9 1.6 -55.7 L1.7 -55.55 0.25 -55.55 0.25 -55.65 0.25 -55.85 1.45 -57.05 3.05 -57.3 Q3.7 -57.35 4.0 -57.0 M-3.45 -55.65 L-3.45 -55.55 -4.85 -55.55 -4.8 -55.7 Q-4.65 -55.9 -4.65 -56.15 -4.6 -56.95 -5.4 -56.95 -6.1 -56.75 -6.0 -56.05 L-5.95 -55.8 Q-6.7 -56.1 -7.35 -56.65 L-7.15 -57.0 Q-6.9 -57.35 -6.25 -57.3 L-4.65 -57.05 -3.45 -55.85 -3.45 -55.65 M-4.25 -71.65 Q-5.05 -71.4 -5.6 -70.75 -5.7 -68.25 -6.15 -65.85 -6.3 -65.25 -6.7 -64.85 L-7.3 -64.85 -7.55 -65.0 Q-8.95 -67.9 -7.55 -70.65 L-7.0 -71.35 Q-6.05 -72.2 -4.95 -72.4 L-4.25 -72.25 -4.1 -72.15 -4.1 -72.0 -4.25 -71.65 M-11.4 -49.85 L-11.4 -49.8 -11.45 -49.9 -11.65 -50.05 -11.4 -49.9 -11.4 -49.85 M-1.85 -50.9 Q-2.35 -51.1 -2.05 -51.65 L-1.85 -51.95 -1.8 -52.0 -1.65 -52.0 Q-1.05 -51.7 -1.4 -51.05 L-1.45 -51.0 -1.6 -50.85 -1.85 -50.9 M-24.7 57.0 L-24.3 58.05 -24.15 58.6 Q-25.0 58.75 -25.7 57.95 L-25.75 57.6 -25.35 56.95 -25.0 56.9 -24.95 56.9 -24.7 56.95 -24.7 57.0 M25.05 57.5 L25.05 56.9 25.4 56.55 Q27.0 56.9 25.85 58.25 L25.0 59.2 25.05 57.5 M27.85 55.55 L27.55 55.75 27.4 55.9 27.3 55.95 26.9 55.95 26.7 55.8 26.65 55.7 26.65 55.3 27.25 54.6 27.4 54.5 27.8 54.5 27.95 54.65 28.0 54.7 28.0 54.8 27.85 55.55" fill="#ffffff" fill-rule="evenodd" stroke="none"/>
    <path d="M6.7 -58.95 L7.15 -59.15 7.45 -59.1 8.25 -58.55 8.35 -58.45 8.4 -58.35 8.45 -58.25 8.5 -58.2 8.7 -57.9 8.75 -57.85 9.05 -57.5 9.05 -57.2 9.15 -57.0 9.2 -56.75 8.65 -55.9 8.35 -55.55 6.6 -55.45 6.6 -55.55 6.65 -58.85 6.7 -58.95 M-13.15 -55.65 L-13.15 -55.75 -13.1 -55.95 -13.1 -56.1 -12.3 -57.9 -12.25 -57.9 -12.2 -58.05 -12.15 -58.05 -11.7 -58.7 -11.45 -58.85 -11.35 -58.85 -11.35 -58.95 -11.0 -59.3 -10.0 -57.25 -9.9 -56.95 -9.9 -56.9 -10.25 -56.5 -10.4 -55.95 Q-10.65 -55.3 -11.25 -55.15 -12.65 -54.9 -13.15 -55.65" fill="#cccccc" fill-rule="evenodd" stroke="none"/>
    <path d="M7.45 -59.1 L7.15 -59.15 6.7 -58.95 6.7 -59.05 6.95 -59.2 7.45 -59.1 M6.6 -55.45 L8.35 -55.55 8.65 -55.9 9.2 -56.75 9.3 -55.7 9.3 -55.4 9.3 -55.3 9.35 -54.65 9.25 -54.55 8.1 -53.35 Q7.3 -52.8 6.55 -52.8 L6.6 -55.45 M-14.9 6.9 L-14.9 6.75 -14.6 6.0 -14.25 5.0 -14.05 4.7 -12.8 4.0 -12.35 3.9 Q-11.35 4.55 -11.45 6.15 L-11.65 7.5 -11.7 7.5 -12.3 8.75 -13.3 9.7 -13.5 9.8 -13.65 9.9 Q-14.35 9.65 -14.8 9.05 L-14.95 8.75 Q-15.1 7.8 -14.9 6.9 M-9.9 -56.9 Q-9.65 -55.8 -9.75 -54.55 L-9.75 -54.2 -11.05 -52.9 Q-11.45 -52.6 -11.9 -52.55 L-13.0 -52.65 -13.15 -53.3 -13.2 -55.25 -13.2 -55.4 -13.2 -55.5 -13.15 -55.6 -13.15 -55.65 Q-12.65 -54.9 -11.25 -55.15 -10.65 -55.3 -10.4 -55.95 L-10.25 -56.5 -9.9 -56.9" fill="#999999" fill-rule="evenodd" stroke="none"/>
    <path d="M-8.45 112.0 L-8.45 112.1 -8.65 112.25 Q-11.55 111.1 -12.55 108.1 -12.9 101.55 -11.6 95.3 -10.35 89.0 -12.2 82.7 -13.4 75.5 -14.05 67.8 -14.4 63.65 -14.1 59.65 L-13.6 58.5 -13.55 58.1 Q-13.2 55.9 -12.0 54.15 -11.6 53.6 -10.95 53.4 L-9.7 53.05 Q-7.0 52.95 -5.35 54.95 -4.7 55.65 -4.35 56.55 -4.05 57.3 -4.2 57.85 L-3.9 58.8 Q-2.4 63.45 -3.85 68.35 L-4.9 72.4 Q-5.7 76.25 -5.8 80.1 L-5.1 79.15 -4.45 78.85 -4.4 78.8 Q-2.1 79.6 -2.2 82.4 L-2.25 84.1 Q-2.35 87.1 -5.2 86.1 L-5.25 86.1 -5.6 85.9 -5.45 87.3 -5.6 87.15 -6.1 89.2 -7.1 89.3 Q-7.8 88.25 -9.25 87.65 L-9.75 87.75 -9.9 87.75 Q-11.2 88.85 -10.7 90.5 -10.25 91.9 -9.2 92.3 L-9.8 92.0 -9.85 92.1 -10.0 92.55 Q-10.25 93.6 -9.9 94.6 -9.5 95.8 -8.7 96.35 L-5.2 96.5 -4.25 98.45 Q-2.4 104.0 -3.05 109.9 L-3.65 110.35 -3.95 110.6 -4.75 110.75 -4.9 110.3 Q-5.35 109.2 -6.05 108.2 -7.15 106.7 -8.75 106.1 L-9.25 106.2 Q-9.75 106.3 -9.95 106.75 -11.1 110.0 -8.45 112.0 M9.35 -54.65 L9.2 -53.05 9.2 -52.95 Q9.2 -51.05 7.9 -49.6 7.4 -49.05 6.65 -49.1 6.2 -49.6 6.25 -50.4 L6.5 -52.2 6.55 -52.8 Q7.3 -52.8 8.1 -53.35 L9.25 -54.55 9.35 -54.65 M22.6 -26.15 Q22.2 -26.8 21.3 -27.3 L21.3 -27.35 Q20.6 -28.1 19.55 -27.9 18.05 -27.3 16.8 -26.2 14.85 -24.55 16.15 -22.5 16.45 -22.0 17.0 -21.95 L18.7 -21.85 Q20.8 -21.85 22.05 -23.45 L22.6 -24.35 22.6 -24.3 22.6 -23.9 20.8 -21.9 20.3 -21.25 Q19.4 -19.85 18.85 -18.3 L18.7 -18.25 18.5 -17.95 17.45 -17.95 Q14.5 -16.25 12.3 -13.15 L10.7 -10.7 Q9.0 -8.0 5.75 -8.2 1.05 -8.55 -3.5 -7.5 -5.3 -7.1 -5.8 -5.65 L-5.9 -4.7 -6.0 -4.25 -5.9 -4.1 -5.6 -3.75 Q-0.05 -4.0 5.4 -2.9 L7.0 -2.3 8.5 -0.9 10.65 -0.7 9.8 2.6 Q8.6 6.1 9.65 9.5 6.5 11.35 3.45 13.55 L2.7 14.2 3.1 13.85 1.1 13.85 -2.1 13.5 -2.45 13.4 -6.4 11.8 -6.0 12.6 Q-7.85 8.75 -11.65 7.5 L-11.45 6.15 Q-11.35 4.55 -12.35 3.9 L-12.8 4.0 -14.05 4.7 -14.25 5.0 -14.6 6.0 -14.9 6.75 -14.9 6.9 -14.95 6.9 -15.65 7.4 -16.3 8.05 -16.1 6.95 Q-14.4 0.5 -16.75 -5.3 L-17.15 -6.2 -17.2 -6.3 Q-16.4 -8.65 -14.35 -10.05 -12.3 -11.45 -10.65 -13.4 -8.15 -17.75 -4.9 -21.8 -1.65 -25.85 3.05 -28.05 7.8 -31.2 12.75 -33.8 13.3 -33.8 13.7 -33.4 L13.95 -33.1 Q14.35 -32.4 15.15 -32.15 17.4 -30.8 20.0 -30.0 21.65 -29.5 22.95 -28.3 L22.75 -27.95 Q22.6 -27.05 22.6 -26.15 M8.65 -26.3 L9.15 -26.75 Q11.25 -28.2 12.05 -30.45 L12.0 -30.6 11.45 -31.0 Q10.3 -30.9 9.3 -30.3 7.3 -29.1 5.65 -27.5 L4.7 -26.8 Q2.8 -25.9 1.75 -24.2 L1.75 -24.1 1.7 -23.85 1.7 -23.75 1.9 -23.5 2.05 -23.4 2.6 -23.4 2.75 -23.5 2.85 -23.6 3.55 -23.55 Q5.6 -24.15 7.2 -25.4 L8.65 -26.3 M19.65 -12.15 L19.6 -13.0 19.65 -13.1 19.9 -13.25 Q20.95 -14.1 21.25 -15.5 L21.45 -15.5 22.0 -14.9 Q22.25 -13.15 22.85 -11.45 24.35 -7.25 24.6 -2.8 24.85 1.25 25.5 5.2 L25.25 5.8 25.05 6.5 24.5 6.85 Q23.55 7.55 22.5 7.6 L22.45 7.6 21.7 8.5 21.85 8.65 22.7 9.5 23.75 9.65 24.1 9.6 25.9 8.8 26.25 8.5 26.25 8.9 26.05 10.1 26.1 10.15 25.7 10.0 24.95 10.55 Q23.95 11.15 23.0 10.95 L22.9 10.95 22.85 10.95 22.7 10.9 21.3 10.75 21.25 10.75 Q20.2 9.95 19.85 8.3 L20.05 8.4 19.85 8.3 19.75 8.2 19.75 8.25 19.4 7.95 19.15 7.6 19.05 7.3 18.6 5.45 18.6 0.5 Q18.6 -2.1 17.7 -4.25 L17.6 -4.9 18.8 -5.1 19.3 -5.7 Q19.4 -3.85 19.95 -2.1 L19.7 -1.55 Q19.25 0.05 20.15 1.2 L20.25 1.55 20.55 2.1 20.5 2.4 19.9 3.3 19.75 3.8 19.7 4.0 Q19.2 5.75 20.35 7.15 L21.25 7.3 21.5 7.1 21.75 6.8 21.7 6.65 21.35 6.1 21.45 5.6 Q21.4 5.05 21.65 4.55 L21.75 4.45 21.85 4.3 22.0 4.0 Q22.65 1.7 21.95 -0.55 L22.3 -1.05 Q22.65 -2.6 21.8 -3.85 L21.75 -4.35 21.0 -7.35 20.9 -7.5 19.85 -8.35 19.85 -8.3 19.65 -8.25 19.7 -11.1 Q20.2 -11.95 20.3 -12.85 L19.65 -12.15 M7.65 -23.75 Q4.55 -23.15 2.0 -21.0 L1.2 -20.05 Q0.35 -19.4 -0.25 -18.35 -0.95 -17.05 -0.65 -15.45 L-0.55 -14.8 Q0.0 -14.35 0.2 -13.45 L0.45 -12.95 1.05 -12.2 Q2.45 -12.75 3.25 -14.1 L3.35 -14.25 5.85 -16.8 Q6.65 -17.65 7.6 -18.15 9.15 -18.9 9.8 -20.4 L9.85 -21.5 9.4 -22.2 8.25 -23.6 7.65 -23.75 M-9.75 -54.2 L-9.85 -49.35 -10.45 -49.55 Q-10.85 -49.4 -11.35 -49.8 L-11.4 -49.85 -11.4 -49.9 -11.65 -50.05 Q-12.4 -50.75 -12.75 -51.75 L-13.15 -53.3 -13.0 -52.65 -11.9 -52.55 Q-11.45 -52.6 -11.05 -52.9 L-9.75 -54.2 M-7.25 -13.15 L-7.9 -13.2 -13.4 -9.1 Q-16.2 -6.95 -15.05 -3.7 L-14.7 -3.35 Q-12.8 -2.8 -13.05 -4.8 L-12.9 -5.0 Q-12.15 -6.35 -10.8 -7.05 L-10.7 -7.15 Q-10.0 -7.95 -9.05 -8.25 L-7.65 -9.85 Q-5.9 -11.5 -7.25 -13.15 M-3.8 -20.6 L-4.45 -20.35 Q-5.95 -19.35 -6.65 -17.65 -7.45 -15.8 -6.35 -14.3 L-5.85 -14.3 -5.55 -14.4 Q-4.05 -16.1 -3.25 -18.3 L-3.1 -18.45 Q-1.7 -19.9 -3.35 -20.65 L-3.8 -20.6 M-1.75 14.9 L-1.45 15.0 -1.0 15.1 -0.9 15.1 -0.55 15.2 -1.75 14.9 M-23.4 11.7 L-22.65 11.65 -22.6 11.95 -23.4 11.7 M-30.45 26.95 L-30.6 26.5 -31.7 23.6 Q-31.0 20.35 -29.7 17.35 -28.75 15.1 -28.25 12.6 -28.0 13.3 -27.35 13.8 -26.05 14.8 -24.55 14.95 -24.65 17.3 -24.05 19.45 L-23.4 20.9 Q-22.1 22.95 -22.4 25.2 -22.5 26.3 -23.15 27.0 L-23.15 26.95 Q-22.85 24.75 -24.85 24.3 -25.65 24.6 -25.65 25.5 L-25.4 26.75 Q-26.6 25.95 -28.1 25.85 L-27.75 25.55 -28.0 23.65 -28.1 23.1 Q-28.2 21.3 -27.3 19.8 L-26.55 18.1 -26.55 18.0 Q-26.55 17.5 -26.7 17.05 -26.8 16.7 -27.05 16.6 -27.75 16.85 -28.2 17.4 L-28.45 17.8 -29.7 20.4 -30.2 21.75 -30.35 23.3 -30.15 24.1 -30.05 24.35 -29.5 25.25 -29.0 25.9 -29.4 25.9 Q-29.8 25.95 -30.1 26.3 L-30.45 26.95 M-23.95 27.6 L-24.2 27.7 -24.35 27.55 -24.0 27.6 -23.95 27.6 M-9.8 35.8 L-9.7 36.15 Q-6.8 38.45 -3.35 39.4 4.75 41.55 10.3 35.1 L11.15 35.2 11.2 35.35 12.4 38.65 Q12.8 40.0 13.55 40.75 9.9 45.35 6.7 50.2 L5.55 51.3 0.2 51.5 Q-2.6 51.95 -4.45 49.65 L-13.65 39.2 Q-15.1 37.15 -14.0 35.05 L-12.15 30.9 -11.7 31.15 -11.85 32.55 -11.5 34.1 -11.85 34.45 -12.5 35.35 Q-13.55 37.7 -11.9 39.75 L-9.85 42.25 -7.5 44.35 -7.3 44.7 -7.15 44.85 -6.55 44.85 -6.4 44.5 Q-6.75 41.15 -9.05 38.6 -9.1 38.15 -9.3 37.75 L-9.8 35.8 M-9.9 54.8 L-9.95 54.65 -10.1 54.2 -10.4 53.5 -10.5 53.5 -10.7 53.55 -10.85 53.7 -11.1 54.05 -11.15 54.25 -11.2 54.6 -11.65 56.65 -12.5 61.85 -12.6 64.0 -12.2 73.8 Q-12.2 74.25 -11.85 74.5 -9.55 76.15 -9.3 73.4 L-9.25 71.1 Q-9.3 67.95 -9.6 64.9 -9.9 61.7 -9.6 58.3 -9.4 56.45 -9.9 54.8 M2.85 63.65 Q2.95 60.3 2.05 57.0 L2.1 57.05 2.15 57.05 2.25 57.05 2.35 57.2 2.3 56.95 3.35 55.9 Q4.95 53.05 7.85 53.15 L9.85 53.5 Q10.95 55.7 11.4 58.1 12.45 63.55 12.45 69.2 L12.35 73.95 12.5 73.3 Q10.95 79.35 11.15 85.6 L10.0 85.05 10.0 85.1 Q9.3 85.05 8.75 85.4 7.3 86.9 8.0 88.95 L8.35 89.85 Q8.75 91.7 9.8 93.45 L9.35 92.7 Q9.2 93.25 9.2 93.95 9.2 95.55 10.7 95.85 11.6 96.05 12.3 95.85 L12.85 101.5 Q13.25 107.5 7.75 109.0 L6.75 108.4 4.35 108.0 Q5.5 107.1 5.45 105.4 5.4 103.85 5.9 102.4 6.85 99.75 3.95 99.75 3.15 100.3 2.65 101.0 L2.6 100.8 Q4.55 94.85 5.15 88.45 5.55 83.9 5.3 79.65 L4.7 74.35 4.5 73.2 2.85 63.65 M20.95 12.9 Q22.6 13.9 24.85 13.65 25.8 15.0 26.05 16.6 L26.35 19.55 26.6 24.15 26.5 24.3 26.15 24.85 25.7 25.2 23.75 24.6 Q24.05 23.4 23.75 22.05 L23.7 21.35 Q23.7 19.5 24.35 17.8 24.65 17.05 24.2 16.7 22.8 17.75 21.8 19.15 L21.3 20.15 Q20.75 22.1 21.1 24.05 L21.2 24.4 Q20.3 24.6 19.8 25.35 L19.8 25.3 19.2 24.55 19.8 22.0 20.05 20.6 Q20.75 16.8 20.95 12.9 M8.65 39.6 L7.4 39.6 Q5.1 41.05 4.6 44.0 3.95 47.65 7.65 47.6 8.8 47.1 9.25 45.95 L9.55 45.15 Q10.9 41.85 8.65 39.6" fill="#666666" fill-rule="evenodd" stroke="none"/>
    <path d="M1.95 -74.3 Q3.8 -73.1 4.75 -71.25 L4.55 -69.45 4.5 -68.35 4.5 -67.25 4.55 -66.15 4.75 -64.55 Q4.95 -63.65 5.3 -62.7 L5.95 -61.0 5.45 -59.45 4.5 -58.85 3.65 -58.45 3.15 -58.2 2.75 -58.05 2.35 -57.95 1.9 -57.9 Q1.0 -57.8 0.4 -57.2 L0.35 -57.15 0.25 -56.95 -3.5 -57.15 -3.55 -57.2 Q-4.2 -57.8 -5.1 -57.9 -6.7 -58.15 -8.35 -57.85 L-8.0 -56.9 -8.55 -56.8 -8.75 -56.6 -9.15 -58.6 -9.0 -58.0 Q-8.65 -58.25 -8.6 -58.85 L-8.5 -59.8 -8.45 -60.1 -2.75 -59.8 -2.65 -59.65 -2.45 -59.25 Q-2.2 -57.9 -0.95 -57.9 L-0.7 -58.2 -0.65 -58.45 -0.25 -58.9 Q0.05 -59.4 -0.1 -59.6 0.8 -59.75 1.6 -60.3 L2.75 -61.4 3.45 -62.75 Q3.85 -64.15 3.65 -65.6 L2.85 -71.35 Q2.6 -72.9 1.95 -74.25 L1.95 -74.3 M5.7 -53.0 L5.65 -52.7 5.6 -52.05 5.5 -50.95 5.45 -50.85 Q5.15 -49.9 4.65 -49.25 L4.2 -48.7 3.3 -47.45 2.6 -46.15 2.15 -45.15 1.75 -44.15 1.35 -43.15 1.05 -42.15 -4.2 -41.85 -4.5 -42.3 -5.3 -43.35 Q-7.4 -46.25 -8.65 -49.5 L-8.65 -53.2 -8.65 -54.7 -8.7 -55.6 -8.45 -55.2 -8.4 -55.25 -6.8 -54.1 -7.35 -54.1 -7.35 -54.05 -7.65 -53.9 -7.85 -53.85 Q-8.85 -53.05 -8.55 -51.8 -7.95 -49.35 -5.35 -50.35 -4.9 -50.8 -4.75 -51.45 -4.5 -52.8 -5.0 -53.45 L-3.2 -53.65 -2.75 -53.8 -2.45 -53.95 -2.25 -54.65 -2.15 -54.9 -1.7 -54.85 Q-1.2 -54.65 -0.75 -54.1 -0.45 -53.75 0.05 -53.55 L0.8 -53.45 Q0.35 -53.2 0.3 -52.7 -0.15 -50.15 2.5 -50.5 3.05 -50.55 3.25 -51.1 3.9 -52.7 3.15 -53.4 L3.5 -53.65 4.2 -54.25 4.9 -54.25 5.6 -52.95 5.7 -53.0 M0.5 -44.45 Q0.9 -44.9 0.35 -45.55 L-0.2 -45.55 -2.2 -45.4 Q-3.3 -45.75 -3.25 -44.8 L-2.9 -44.5 -2.7 -44.4 -2.7 -44.35 -0.8 -44.3 0.5 -44.45 M2.55 -40.8 L2.65 -40.9 2.65 -40.75 2.55 -40.8 M1.25 -33.2 L-1.85 -33.0 -1.95 -33.15 Q-2.75 -34.2 -4.0 -34.45 L-4.1 -34.5 Q-4.4 -34.75 -4.8 -34.65 L-4.8 -34.6 -4.9 -34.55 -5.0 -34.55 Q-5.4 -34.1 -5.25 -33.65 -5.9 -33.9 -6.45 -34.25 -4.05 -35.5 -4.35 -38.0 L-4.5 -39.1 -4.05 -38.75 Q-3.6 -38.5 -3.05 -38.4 L-2.35 -38.2 Q-0.3 -37.6 1.4 -38.7 1.4 -37.9 1.55 -37.05 L1.55 -36.8 Q1.6 -35.65 1.25 -34.65 L0.7 -33.8 0.3 -33.1 1.25 -33.2 M-4.55 -40.55 L-4.55 -40.8 -4.15 -40.4 -4.45 -40.65 -4.55 -40.55 M-0.9 -50.95 L-0.9 -53.05 Q-1.0 -54.15 -1.95 -54.3 L-2.4 -53.65 -2.45 -52.75 -2.35 -51.0 -2.25 -50.5 -2.85 -49.95 -2.6 -49.5 -2.3 -49.5 -2.45 -49.1 -2.4 -48.8 Q-2.1 -48.05 -1.0 -48.05 L-0.75 -48.1 Q0.2 -48.75 -0.25 -49.65 L0.3 -49.8 Q0.05 -50.55 -0.75 -50.9 L-0.9 -50.95 M-3.6 -46.95 L-3.8 -46.8 Q-1.6 -45.9 0.45 -46.8 L-3.6 -46.95 M-0.8 -37.35 L-1.0 -37.3 -1.45 -37.15 Q-1.85 -36.6 -1.7 -35.8 -1.5 -34.6 -0.3 -34.95 0.25 -35.4 0.15 -36.15 0.05 -37.05 -0.8 -37.35 M-3.15 -37.6 Q-3.1 -35.4 -1.5 -34.15 -2.2 -36.05 -3.15 -37.6 M-27.15 49.3 L-27.05 47.7 -26.85 47.75 Q-25.2 48.45 -23.4 48.15 L-23.1 47.9 -23.15 48.5 -23.3 49.3 -22.85 49.75 Q-21.75 49.8 -21.0 49.0 L-21.45 48.1 Q-20.15 50.6 -19.2 53.25 L-19.2 58.05 -19.95 56.0 Q-20.4 54.2 -21.9 53.4 -22.6 56.2 -22.65 59.25 -22.8 60.95 -22.3 62.5 L-22.45 62.05 Q-23.05 60.8 -24.05 59.8 L-24.1 59.1 -24.15 58.6 -24.3 58.05 -24.7 57.0 -24.9 56.35 -25.1 55.95 -24.0 52.0 -23.4 49.9 -23.8 49.9 -26.6 49.6 -27.15 49.3 M-22.25 62.65 L-22.2 62.7 -22.25 62.65 M-27.25 55.3 L-27.5 53.15 -27.45 53.4 -27.4 53.5 -27.35 53.6 -27.3 54.3 -27.1 54.7 -27.25 55.3 M25.05 57.5 L25.0 56.45 Q24.85 53.45 25.25 50.6 L25.4 47.8 24.4 47.9 Q22.7 48.25 22.2 47.1 L22.2 47.05 22.35 46.7 22.5 46.3 Q23.9 46.6 25.1 46.3 L25.25 46.85 25.3 47.0 25.35 47.6 26.25 47.6 27.2 47.35 Q27.8 49.9 28.05 52.75 L28.0 54.7 27.95 54.65 27.8 54.5 27.4 54.5 27.25 54.6 26.65 55.3 26.65 55.7 26.7 55.8 26.9 55.95 27.3 55.95 27.4 55.9 27.55 55.75 27.85 55.55 Q27.3 57.55 25.65 59.25 L24.85 60.95 25.0 59.2 25.85 58.25 Q27.0 56.9 25.4 56.55 L25.05 56.9 25.05 57.5" fill="#e3b18b" fill-rule="evenodd" stroke="none"/>
    <path d="M4.75 -71.25 L5.3 -69.75 5.5 -69.15 5.75 -68.0 5.9 -67.0 6.15 -65.1 6.45 -63.15 Q6.75 -60.6 5.75 -58.3 L5.7 -58.0 5.6 -57.35 5.7 -56.5 5.75 -54.25 5.7 -53.0 5.6 -52.95 4.9 -54.25 4.2 -54.25 3.5 -53.65 3.15 -53.4 Q2.6 -53.9 1.95 -53.9 L1.3 -53.9 1.25 -53.75 1.1 -53.6 0.8 -53.45 0.05 -53.55 Q-0.45 -53.75 -0.75 -54.1 -1.2 -54.65 -1.7 -54.85 L-2.15 -54.9 -2.25 -54.65 -2.45 -53.95 -2.75 -53.8 -3.2 -53.65 -5.0 -53.45 Q-5.5 -53.9 -6.15 -54.05 L-6.8 -54.1 -8.4 -55.25 -8.45 -55.2 -8.7 -55.6 -8.75 -56.6 -8.55 -56.8 -8.0 -56.9 -7.3 -56.8 -7.15 -57.0 -7.35 -56.65 Q-6.7 -56.1 -5.95 -55.8 L-4.85 -55.55 -3.45 -55.55 -3.45 -55.65 -3.2 -55.5 -3.0 -55.5 -2.9 -55.55 -2.8 -55.55 -2.75 -55.65 -2.7 -55.75 Q-2.85 -56.3 -3.3 -56.65 L-3.45 -56.9 -3.5 -57.15 0.25 -56.95 0.25 -56.9 0.1 -56.65 -0.5 -55.75 -0.45 -55.65 -0.4 -55.55 -0.3 -55.55 -0.2 -55.5 0.0 -55.5 0.25 -55.65 0.25 -55.55 1.7 -55.55 2.75 -55.8 Q3.5 -56.1 4.15 -56.65 L4.0 -57.0 4.1 -56.8 4.8 -56.9 5.15 -57.85 2.35 -57.95 2.75 -58.05 3.15 -58.2 3.65 -58.45 4.5 -58.85 5.45 -59.45 5.95 -61.0 5.3 -62.7 Q4.95 -63.65 4.75 -64.55 L4.55 -66.15 4.5 -67.25 4.5 -68.35 4.55 -69.45 4.75 -71.25 M5.5 -50.95 L5.4 -50.25 5.15 -49.05 4.85 -47.95 4.5 -46.8 4.1 -45.7 3.6 -44.6 3.05 -43.6 2.45 -42.6 1.9 -41.85 0.75 -40.75 Q0.25 -40.4 -0.35 -40.4 L-1.7 -40.55 Q-2.35 -40.75 -2.9 -41.05 L-4.2 -41.85 1.05 -42.15 1.35 -43.15 1.75 -44.15 2.15 -45.15 2.6 -46.15 3.3 -47.45 4.2 -48.7 4.65 -49.25 Q5.15 -49.9 5.45 -50.85 L5.5 -50.95 M0.5 -44.45 L-0.8 -44.3 -2.7 -44.35 -2.7 -44.4 -2.9 -44.5 -3.25 -44.8 Q-3.3 -45.75 -2.2 -45.4 L-0.2 -45.55 0.35 -45.55 Q0.9 -44.9 0.5 -44.45 M-23.1 47.9 L-22.0 47.05 -21.95 47.2 -21.45 48.1 -21.0 49.0 Q-21.75 49.8 -22.85 49.75 L-23.3 49.3 -23.15 48.5 -23.1 47.9 M27.2 47.35 L26.25 47.6 25.35 47.6 25.3 47.0 25.25 46.85 25.1 46.3 26.7 45.55 27.2 47.35" fill="#ad7a3f" fill-rule="evenodd" stroke="none"/>
    <path d="M-1.25 132.75 L-1.05 132.8 -0.95 133.35 -1.25 132.75 M-0.8 133.9 L-0.3 136.15 -0.35 136.15 -0.8 134.15 -0.8 133.9 M-11.65 152.8 L-11.95 152.85 Q-16.6 152.4 -20.7 150.75 -21.0 149.5 -20.35 148.3 -18.95 147.05 -17.35 146.55 L-14.55 146.25 -12.4 146.7 Q-10.85 146.95 -9.4 148.0 L-8.55 148.35 -8.95 148.25 Q-10.85 150.15 -11.65 152.8 M-10.65 136.45 Q-9.9 134.65 -8.6 133.0 L-7.2 133.15 -4.25 133.1 -4.1 133.1 -3.55 133.0 Q-3.95 134.9 -3.4 136.75 L-3.9 137.7 -4.05 138.35 -4.65 137.3 -9.65 136.8 -10.7 136.55 -10.65 136.45 M-7.95 130.85 L-8.0 130.8 -7.85 128.65 -7.55 128.75 -4.2 129.3 Q-4.4 130.9 -3.4 131.45 L-2.1 131.05 -7.95 130.85 M-8.45 117.35 Q-8.9 115.9 -8.4 114.2 L-6.0 114.6 -4.35 114.65 -4.5 117.0 -4.45 118.25 -4.4 118.5 -8.15 118.1 -8.2 118.05 -8.45 117.35 M2.65 -40.75 L2.55 -37.75 Q2.35 -35.25 4.7 -34.45 L4.15 -34.15 4.05 -34.1 3.8 -34.0 1.25 -33.2 0.3 -33.1 0.7 -33.8 1.25 -34.65 Q1.6 -35.65 1.55 -36.8 L1.55 -37.05 Q1.4 -37.9 1.4 -38.7 -0.3 -37.6 -2.35 -38.2 L-3.05 -38.4 Q-3.6 -38.5 -4.05 -38.75 L-4.5 -39.1 -4.55 -40.55 -4.45 -40.65 -4.15 -40.4 Q-3.7 -40.05 -3.1 -39.85 L-3.05 -39.85 -1.4 -39.45 -0.35 -39.15 Q0.9 -39.25 1.85 -39.9 L2.05 -40.1 2.55 -40.8 2.65 -40.75 M-1.85 -33.0 L-2.25 -33.05 -3.9 -33.2 -4.05 -33.25 -5.25 -33.65 Q-5.4 -34.1 -5.0 -34.55 L-4.9 -34.55 -4.8 -34.6 -4.8 -34.65 Q-4.4 -34.75 -4.1 -34.5 L-4.0 -34.45 Q-2.75 -34.2 -1.95 -33.15 L-1.85 -33.0 M-0.25 -49.65 Q0.2 -48.75 -0.75 -48.1 L-1.0 -48.05 Q-2.1 -48.05 -2.4 -48.8 L-2.45 -49.1 -2.3 -49.5 -0.25 -49.65 M-11.95 16.1 L-11.55 16.1 Q-8.4 15.85 -5.5 17.0 L-4.75 17.35 -1.7 18.75 -1.65 18.8 Q-4.25 19.7 -5.05 22.85 L-5.35 25.2 -5.3 24.25 -5.9 24.1 -6.0 24.05 -8.3 23.65 -9.05 23.45 -10.6 22.8 -10.75 22.7 -12.3 22.0 -12.4 21.9 -12.7 21.65 -12.7 22.05 -12.7 21.5 Q-12.65 18.7 -11.95 16.1 M4.75 19.65 L4.95 19.6 Q7.3 19.35 9.1 17.8 9.85 17.2 10.6 16.85 L10.7 17.05 11.4 18.75 Q11.95 20.45 12.1 22.2 L11.6 22.5 9.85 23.15 7.2 24.3 6.9 23.1 Q6.2 20.8 4.75 19.65 M-12.75 22.7 L-12.7 22.7 -12.5 22.9 -11.2 23.4 -10.05 24.05 -9.75 24.15 Q-8.1 24.85 -6.35 25.0 L-5.35 25.2 Q-5.4 26.7 -4.95 28.2 L-4.4 29.85 Q-3.75 31.9 -2.2 32.7 L-3.9 32.3 -6.05 31.55 -7.75 30.75 -9.1 30.15 -9.55 29.95 -11.65 28.9 -12.0 28.75 -11.8 29.55 Q-12.85 26.4 -12.75 22.7 M2.75 32.85 Q4.05 32.3 5.15 31.05 7.5 28.45 7.35 25.35 L7.95 25.1 10.6 23.95 10.8 23.9 11.6 23.55 Q11.75 26.15 11.1 28.65 L10.75 29.9 10.7 29.9 7.75 31.7 6.1 32.15 4.95 32.4 2.75 32.85 M-0.2 23.55 L0.25 23.4 0.65 23.3 1.15 23.2 Q2.1 23.25 2.8 24.0 3.8 25.0 3.35 26.4 3.4 27.75 2.1 28.2 L0.3 28.25 Q-0.1 28.2 -0.35 27.95 L-0.8 27.35 -1.0 26.75 -1.05 25.35 -1.0 25.05 -0.85 24.7 Q-0.9 23.9 -0.2 23.55 M-25.85 31.8 L-25.8 33.35 -25.6 36.4 Q-26.7 36.3 -27.65 35.7 L-27.75 35.65 Q-28.65 33.65 -28.2 31.35 L-25.85 31.8 M-27.15 42.85 Q-25.85 43.6 -24.55 43.55 L-24.4 46.05 -24.2 46.8 -26.1 46.75 Q-27.35 46.0 -27.3 44.35 L-27.15 43.0 -27.15 42.85 M24.25 44.95 Q22.95 44.8 22.2 43.7 L22.0 36.9 22.2 37.0 Q23.5 37.55 24.85 37.6 L24.55 40.9 24.25 44.95 M9.9 121.05 L9.95 122.0 10.1 124.95 10.2 127.85 10.35 128.95 9.8 129.0 8.95 129.0 7.5 128.7 7.35 128.7 Q6.6 125.2 6.85 121.3 L7.0 121.3 9.9 121.05 M16.45 151.65 L11.25 148.5 Q8.6 147.05 5.4 147.0 4.95 142.7 6.2 138.7 7.35 134.7 7.2 130.2 L7.55 130.3 10.5 130.55 Q10.35 131.45 10.55 132.45 10.9 134.45 12.1 136.1 L11.8 136.05 Q9.7 135.65 9.15 137.95 7.7 141.1 8.15 144.55 12.2 146.25 16.15 148.2 18.25 146.95 20.6 146.7 20.95 147.6 22.0 148.3 20.0 148.15 18.2 148.95 16.1 149.9 16.45 151.65" fill="#996633" fill-rule="evenodd" stroke="none"/>
    <path d="M-29.7 6.7 L-29.75 5.15 -29.45 3.45 -29.4 3.3 -28.85 1.3 Q-28.15 0.1 -27.05 -0.85 -26.9 -1.05 -26.6 -1.05 -24.15 -0.4 -25.05 2.1 L-25.8 4.95 -26.1 6.45 Q-26.9 9.15 -29.3 7.5 L-29.65 7.15 -29.7 6.7 M-26.4 -22.15 L-26.3 -26.6 Q-26.0 -28.35 -24.45 -29.5 L-22.6 -29.9 Q-21.05 -29.2 -21.95 -27.1 -22.25 -26.45 -22.9 -26.1 L-23.7 -25.3 -23.9 -24.95 Q-23.9 -23.85 -24.25 -22.9 L-24.9 -22.1 -26.4 -22.15 M-11.2 -33.8 L-10.35 -34.2 -9.45 -34.6 -8.9 -34.9 -8.0 -33.7 Q-6.85 -32.8 -5.55 -32.3 L-5.6 -32.1 Q-5.8 -31.4 -6.5 -31.05 -9.6 -29.6 -11.1 -32.55 -11.45 -33.15 -11.2 -33.8 M-18.65 -21.55 L-17.45 -21.8 Q-16.0 -23.3 -15.4 -25.35 L-15.2 -26.6 -14.6 -26.9 -13.6 -27.15 Q-10.25 -27.15 -11.25 -24.1 -11.7 -22.75 -13.0 -22.25 L-14.1 -21.4 Q-14.95 -17.9 -17.95 -19.55 -18.7 -19.95 -18.7 -20.9 L-18.65 -21.55" fill="#ac5757" fill-rule="evenodd" stroke="none"/>
    <path d="M-3.55 114.6 L-1.2 114.2 Q-1.5 115.15 -1.3 116.45 -1.25 117.05 -1.45 117.45 L-2.25 118.1 -4.4 118.5 -4.45 118.25 -4.5 117.0 -4.35 114.65 -4.15 114.65 -3.55 114.6 M-1.45 129.3 Q-1.3 129.9 -1.4 130.7 L-1.65 130.85 -2.1 131.05 -3.4 131.45 Q-4.4 130.9 -4.2 129.3 L-1.5 129.0 -1.45 129.3 M-1.3 132.75 L-1.25 132.75 -0.95 133.35 -0.8 133.9 -0.8 134.15 -0.35 136.15 -0.3 136.15 1.85 144.1 Q2.2 146.3 0.65 147.45 -2.95 147.8 -5.65 150.2 -8.25 152.5 -11.65 152.8 -10.85 150.15 -8.95 148.25 L-8.55 148.35 -7.25 148.1 -7.15 148.05 -7.05 148.0 -6.95 147.9 -6.8 147.8 -6.75 147.7 -6.7 147.65 -6.65 147.6 -6.5 147.5 -6.45 147.45 Q-5.05 146.55 -3.05 146.05 -1.05 145.6 -1.95 143.05 L-2.15 142.4 Q-2.95 140.35 -4.05 138.35 L-3.9 137.7 -3.4 136.75 Q-3.95 134.9 -3.55 133.0 L-1.5 132.65 -1.3 132.75 M-15.4 145.15 L-13.45 142.15 -11.45 137.6 -11.4 137.6 -4.95 138.35 -4.25 139.75 Q-6.65 141.95 -7.55 145.15 -8.15 145.8 -8.4 146.6 L-8.5 147.15 -11.65 145.9 Q-12.7 145.4 -13.85 145.25 L-15.4 145.15 M-7.55 127.85 Q-7.7 127.75 -7.8 127.7 -8.3 123.65 -8.4 119.5 L-8.4 119.4 -6.8 119.35 -4.95 119.55 -4.15 119.45 -4.2 120.0 Q-4.3 124.0 -4.0 127.9 L-3.9 128.4 Q-5.75 128.6 -7.55 127.85 M5.35 -33.55 L6.05 -32.5 2.4 -29.55 1.2 -28.75 -2.0 -27.5 Q-5.2 -26.1 -7.3 -23.5 L-8.25 -21.95 -8.7 -20.15 Q-8.95 -18.5 -9.55 -17.1 L-10.95 -15.1 -12.2 -13.55 -12.25 -13.5 -13.2 -12.7 -16.5 -12.85 -16.55 -12.85 Q-17.5 -15.2 -19.3 -17.25 -20.25 -18.3 -21.55 -17.6 L-22.05 -16.55 -21.8 -16.4 -22.2 -16.6 -23.2 -16.35 -23.7 -15.55 Q-22.95 -12.3 -22.5 -9.05 -22.25 -7.35 -22.3 -5.55 -22.3 -4.25 -22.6 -2.95 L-23.6 2.85 Q-23.95 6.1 -23.95 9.4 L-24.95 10.6 Q-26.4 11.5 -27.45 9.3 L-28.65 9.75 Q-29.55 8.25 -29.7 6.7 L-29.65 7.15 -29.3 7.5 Q-26.9 9.15 -26.1 6.45 L-25.8 4.95 -25.05 2.1 Q-24.15 -0.4 -26.6 -1.05 -26.9 -1.05 -27.05 -0.85 -28.15 0.1 -28.85 1.3 L-27.9 -3.3 Q-26.65 -8.8 -26.55 -14.7 L-26.4 -22.15 -24.9 -22.1 -24.25 -22.9 Q-23.9 -23.85 -23.9 -24.95 L-23.7 -25.3 -22.9 -26.1 Q-22.25 -26.45 -21.95 -27.1 -21.05 -29.2 -22.6 -29.9 -16.7 -31.35 -11.2 -33.8 -11.45 -33.15 -11.1 -32.55 -9.6 -29.6 -6.5 -31.05 -5.8 -31.4 -5.6 -32.1 L-5.55 -32.3 Q-3.85 -31.65 -1.8 -31.7 1.75 -31.8 4.65 -33.05 L5.35 -33.55 M-15.2 -26.6 Q-15.3 -28.0 -16.95 -28.4 L-17.95 -28.15 -18.5 -27.55 -18.8 -26.8 Q-19.1 -26.0 -19.65 -25.35 -20.4 -24.4 -20.2 -23.25 -20.0 -21.55 -18.65 -21.55 L-18.7 -20.9 Q-18.7 -19.95 -17.95 -19.55 -14.95 -17.9 -14.1 -21.4 L-13.0 -22.25 Q-11.7 -22.75 -11.25 -24.1 -10.25 -27.15 -13.6 -27.15 L-14.6 -26.9 -15.2 -26.6 M-25.6 36.4 L-25.8 33.35 -25.85 31.8 -23.35 31.7 -22.9 34.25 -22.9 35.0 Q-23.0 35.7 -23.6 36.1 L-23.8 36.2 -25.6 36.4 M-27.35 41.45 L-27.6 41.15 -27.95 36.6 -27.6 36.75 -25.2 37.2 -25.2 37.6 Q-25.1 40.15 -24.5 42.65 -26.25 42.65 -27.35 41.45 M-24.55 43.55 L-22.65 43.0 Q-22.2 44.35 -22.5 45.7 -23.25 46.5 -24.2 46.8 L-24.4 46.05 -24.55 43.55 M-1.25 27.45 L-0.55 28.15 Q0.05 28.6 0.9 28.7 L1.95 28.65 Q3.2 28.4 3.65 27.1 4.0 26.1 3.9 25.0 3.85 24.05 3.2 23.4 L2.8 23.1 Q1.85 22.6 0.65 22.75 -0.95 22.95 -1.45 24.5 L-1.7 25.9 -1.45 26.95 -1.25 27.45 M-4.35 23.25 Q-3.15 19.65 0.55 19.35 5.55 19.35 6.4 24.4 6.65 25.85 6.25 27.3 5.35 30.7 2.4 31.95 L0.8 32.2 Q-3.0 31.9 -4.3 28.15 -5.2 25.7 -4.35 23.25 M22.15 35.5 Q21.65 34.85 21.75 33.8 21.9 31.7 21.6 30.0 L22.5 30.2 Q23.45 31.1 24.95 31.25 25.35 32.85 25.3 34.6 25.3 35.65 25.95 36.45 L23.55 36.35 Q22.6 36.1 22.15 35.5 M26.85 37.4 L26.9 41.5 Q26.95 43.7 25.35 44.9 L24.25 44.95 24.55 40.9 24.85 37.6 26.85 37.35 26.85 37.4 M27.1 35.55 L27.1 35.85 26.95 35.95 27.1 35.55 M9.2 114.05 L9.25 114.15 10.5 115.3 10.2 116.35 9.9 119.6 9.95 120.25 10.35 120.15 6.95 120.0 6.9 120.0 6.65 114.55 9.2 114.05 M10.35 128.95 L10.2 127.85 10.1 124.95 9.95 122.0 9.9 121.05 12.35 120.55 12.35 120.6 Q12.75 122.4 12.55 124.35 12.35 126.25 12.45 128.2 L12.45 128.25 10.35 128.95 M10.5 130.55 L12.15 130.45 12.35 130.4 Q13.4 133.05 15.1 135.35 L15.05 135.35 14.55 135.7 14.0 135.95 12.1 136.1 Q10.9 134.45 10.55 132.45 10.35 131.45 10.5 130.55 M23.7 146.8 L25.5 147.8 Q26.5 148.45 26.5 149.7 22.15 152.55 16.45 151.65 16.1 149.9 18.2 148.95 20.0 148.15 22.0 148.3 20.95 147.6 20.6 146.7 L21.65 146.6 23.5 146.7 23.7 146.8 M15.5 139.25 Q17.3 142.75 19.95 145.8 18.1 146.2 16.5 147.1 L9.4 144.1 Q8.45 140.4 10.7 137.15 L13.75 136.95 Q14.8 137.9 15.5 139.25" fill="#993333" fill-rule="evenodd" stroke="none"/>
    <path d="M-1.3 129.1 L-1.45 129.3 -1.5 129.0 -1.3 129.1 M-1.3 132.7 L-1.3 132.75 -1.5 132.65 -1.3 132.7 M5.35 -33.55 L6.9 -34.4 7.9 -34.45 Q8.8 -34.3 9.5 -33.5 L3.95 -30.2 Q-0.35 -27.7 -4.2 -24.2 L-6.45 -21.75 -8.4 -19.1 -9.25 -17.65 -9.55 -17.1 Q-8.95 -18.5 -8.7 -20.15 L-8.25 -21.95 -7.3 -23.5 Q-5.2 -26.1 -2.0 -27.5 L1.2 -28.75 2.4 -29.55 6.05 -32.5 5.35 -33.55 M-12.25 -13.5 L-13.75 -11.75 -16.05 -12.6 -16.5 -12.85 -13.2 -12.7 -12.25 -13.5 M-19.9 -3.55 L-20.25 -2.0 Q-21.1 3.15 -21.15 8.25 -21.15 9.4 -21.9 10.4 L-22.6 10.2 Q-23.9 9.95 -24.95 10.6 L-23.95 9.4 Q-23.95 6.1 -23.6 2.85 L-22.6 -2.95 Q-22.3 -4.25 -22.3 -5.55 -22.25 -7.35 -22.5 -9.05 -22.95 -12.3 -23.7 -15.55 L-23.2 -16.35 -22.2 -16.6 -21.8 -16.4 Q-22.7 -15.9 -22.75 -14.65 -22.8 -12.3 -21.6 -10.25 L-21.75 -9.25 Q-22.15 -5.55 -20.1 -2.7 L-19.9 -3.55 M-18.65 -21.55 Q-20.0 -21.55 -20.2 -23.25 -20.4 -24.4 -19.65 -25.35 -19.1 -26.0 -18.8 -26.8 L-18.5 -27.55 -17.95 -28.15 -16.95 -28.4 Q-15.3 -28.0 -15.2 -26.6 L-15.4 -25.35 Q-16.0 -23.3 -17.45 -21.8 L-18.65 -21.55 M-16.55 -12.85 L-17.2 -13.7 Q-18.5 -16.55 -21.5 -16.6 L-21.8 -16.4 -22.05 -16.55 -21.55 -17.6 Q-20.25 -18.3 -19.3 -17.25 -17.5 -15.2 -16.55 -12.85 M-17.25 -10.95 L-18.4 -10.15 -18.45 -10.15 Q-20.05 -10.15 -21.45 -13.9 L-19.9 -13.9 Q-16.6 -11.2 -17.25 -10.95 M-1.65 18.8 L-1.7 18.75 -4.75 17.35 -5.5 17.0 Q-8.4 15.85 -11.55 16.1 L-11.95 16.1 -11.6 15.05 -5.65 14.85 0.0 16.85 Q2.85 17.85 5.95 16.55 L9.25 13.7 Q10.95 12.0 12.4 14.5 13.6 17.35 13.6 20.75 L13.6 21.3 12.1 22.2 Q11.95 20.45 11.4 18.75 L10.7 17.05 10.6 16.85 Q9.85 17.2 9.1 17.8 7.3 19.35 4.95 19.6 L4.75 19.65 4.7 19.65 4.05 19.2 3.35 18.85 0.2 18.4 0.0 18.4 -1.65 18.8 M-11.8 29.55 L-12.0 28.75 -11.65 28.9 -9.55 29.95 -9.1 30.15 -7.75 30.75 -6.05 31.55 -3.9 32.3 -2.2 32.7 -0.2 33.25 2.75 32.85 4.95 32.4 6.1 32.15 7.75 31.7 10.7 29.9 10.75 29.9 11.1 28.65 Q11.75 26.15 11.6 23.55 L12.85 22.65 13.6 22.15 13.45 27.45 Q13.15 30.55 10.55 31.5 L10.5 31.5 10.15 31.6 Q7.75 32.5 5.6 33.45 0.95 35.6 -3.4 33.8 -7.8 31.95 -11.75 29.7 L-11.8 29.55 M-27.25 42.9 L-27.15 42.85 -27.15 43.0 -27.25 42.9 M-22.65 43.0 L-22.6 43.0 -22.6 43.05 -22.65 43.0 M-8.15 118.1 L-8.2 118.05 -8.15 118.1 M27.1 35.35 L27.15 35.5 27.1 35.55 27.1 35.35 M26.9 37.35 L26.85 37.4 26.85 37.35 26.9 37.35 M9.25 114.15 L9.2 114.05 9.5 113.9 9.25 114.15 M12.45 128.25 L12.45 128.2 12.5 128.25 12.45 128.25 M12.35 120.6 L12.35 120.55 12.55 120.65 12.4 120.85 12.35 120.6 M22.5 145.4 L22.55 145.45 22.45 145.45 22.5 145.4 M23.55 146.55 L23.7 146.8 23.5 146.7 23.55 146.55" fill="#7d0000" fill-rule="evenodd" stroke="none"/>
    <path d="M-1.45 117.45 L-1.3 118.05 Q-1.25 118.6 -1.45 118.95 L-1.45 127.7 -1.2 127.95 Q-0.95 128.6 -1.3 129.1 L-1.5 129.0 -4.2 129.3 -7.55 128.75 -7.6 127.95 -7.55 127.85 Q-5.75 128.6 -3.9 128.4 L-4.0 127.9 Q-4.3 124.0 -4.2 120.0 L-4.15 119.45 -4.95 119.55 -6.8 119.35 -8.4 119.4 -8.4 119.5 -8.5 118.75 -8.45 118.5 -8.2 118.1 -8.2 118.05 -8.15 118.1 -4.4 118.5 -2.25 118.1 -1.45 117.45 M-1.4 130.7 L-1.35 130.55 -1.3 130.95 -1.3 131.0 Q-0.9 131.95 -1.3 132.7 L-1.5 132.65 -3.55 133.0 -4.1 133.1 -4.25 133.1 -7.2 133.15 -7.9 133.05 Q-8.7 132.15 -8.05 131.0 L-7.95 130.85 -2.1 131.05 -1.65 130.85 -1.4 130.7 M-17.35 146.55 L-16.7 145.85 -16.3 145.65 -15.4 145.15 -13.85 145.25 Q-12.7 145.4 -11.65 145.9 L-8.5 147.15 -8.4 146.6 Q-8.15 145.8 -7.55 145.15 -6.65 141.95 -4.25 139.75 L-4.95 138.35 -11.4 137.6 -11.3 137.3 -10.95 136.8 -10.75 136.5 -10.65 136.45 -10.7 136.55 -9.65 136.8 -4.65 137.3 -4.05 138.35 Q-2.95 140.35 -2.15 142.4 L-1.95 143.05 Q-1.05 145.6 -3.05 146.05 -5.05 146.55 -6.45 147.45 L-6.5 147.5 -6.65 147.6 -6.7 147.65 -6.75 147.7 -6.8 147.8 -6.95 147.9 -7.05 148.0 -7.15 148.05 -7.25 148.1 -8.55 148.35 -9.4 148.0 Q-10.85 146.95 -12.4 146.7 L-14.55 146.25 -17.35 146.55 M-13.75 -11.75 L-15.75 -9.75 -17.75 -7.6 -18.4 -7.85 -19.2 -5.95 -19.9 -3.55 -20.1 -2.7 Q-22.15 -5.55 -21.75 -9.25 L-21.6 -10.25 Q-22.8 -12.3 -22.75 -14.65 -22.7 -15.9 -21.8 -16.4 L-21.5 -16.6 Q-18.5 -16.55 -17.2 -13.7 L-16.55 -12.85 -16.5 -12.85 -16.05 -12.6 -13.75 -11.75 M-17.25 -10.95 Q-16.6 -11.2 -19.9 -13.9 L-21.45 -13.9 Q-20.05 -10.15 -18.45 -10.15 L-18.4 -10.15 -17.25 -10.95 M-12.7 22.05 L-12.7 21.65 -12.4 21.9 -12.3 22.0 -10.75 22.7 -10.6 22.8 -9.05 23.45 -8.3 23.65 -6.0 24.05 -5.9 24.1 -5.3 24.25 -5.35 25.2 -5.05 22.85 Q-4.25 19.7 -1.65 18.8 L0.0 18.4 0.2 18.4 3.35 18.85 4.05 19.2 4.7 19.65 4.75 19.65 Q6.2 20.8 6.9 23.1 L7.2 24.3 9.85 23.15 11.6 22.5 12.1 22.2 13.6 21.3 13.6 22.15 12.85 22.65 11.6 23.55 10.8 23.9 10.6 23.95 7.95 25.1 7.35 25.35 Q7.5 28.45 5.15 31.05 4.05 32.3 2.75 32.85 L-0.2 33.25 -2.2 32.7 Q-3.75 31.9 -4.4 29.85 L-4.95 28.2 Q-5.4 26.7 -5.35 25.2 L-6.35 25.0 Q-8.1 24.85 -9.75 24.15 L-10.05 24.05 -11.2 23.4 -12.5 22.9 -12.7 22.7 -12.75 22.7 -12.75 22.55 -12.7 22.05 M-0.2 23.55 Q-0.9 23.9 -0.85 24.7 L-1.0 25.05 -1.05 25.35 -1.0 26.75 -0.8 27.35 -0.35 27.95 Q-0.1 28.2 0.3 28.25 L2.1 28.2 Q3.4 27.75 3.35 26.4 3.8 25.0 2.8 24.0 2.1 23.25 1.15 23.2 L0.65 23.3 0.25 23.4 -0.2 23.55 M-27.65 35.7 Q-26.7 36.3 -25.6 36.4 L-23.8 36.2 -23.6 36.1 Q-23.0 35.7 -22.9 35.0 -22.8 35.25 -22.85 35.6 L-23.2 37.0 -22.95 36.95 -22.45 40.45 Q-22.25 41.2 -22.5 41.75 -22.35 42.45 -22.6 43.0 L-22.65 43.0 -24.55 43.55 Q-25.85 43.6 -27.15 42.85 L-27.25 42.9 Q-27.6 42.2 -27.35 41.45 -26.25 42.65 -24.5 42.65 -25.1 40.15 -25.2 37.6 L-25.2 37.2 -27.6 36.75 -27.65 36.7 Q-28.0 36.3 -27.75 35.85 L-27.65 35.7 M-1.25 27.45 L-1.45 26.95 -1.7 25.9 -1.45 24.5 Q-0.95 22.95 0.65 22.75 1.85 22.6 2.8 23.1 L3.2 23.4 Q3.85 24.05 3.9 25.0 4.0 26.1 3.65 27.1 3.2 28.4 1.95 28.65 L0.9 28.7 Q0.05 28.6 -0.55 28.15 L-1.25 27.45 M-4.35 23.25 Q-5.2 25.7 -4.3 28.15 -3.0 31.9 0.8 32.2 L2.4 31.95 Q5.35 30.7 6.25 27.3 6.65 25.85 6.4 24.4 5.55 19.35 0.55 19.35 -3.15 19.65 -4.35 23.25 M22.5 30.2 L27.1 30.35 27.1 35.35 27.1 35.55 27.15 35.5 27.2 36.35 26.9 37.35 26.85 37.35 24.85 37.6 Q23.5 37.55 22.2 37.0 21.75 36.25 22.15 35.5 22.6 36.1 23.55 36.35 L25.95 36.45 Q25.3 35.65 25.3 34.6 25.35 32.85 24.95 31.25 23.45 31.1 22.5 30.2 M27.1 35.55 L26.95 35.95 27.1 35.85 27.1 35.55 M6.95 120.0 L10.35 120.15 9.95 120.25 9.9 119.6 10.2 116.35 10.5 115.3 9.25 114.15 9.5 113.9 12.2 113.95 12.2 119.4 12.5 119.65 12.55 120.65 12.35 120.55 9.9 121.05 7.0 121.3 Q6.8 121.15 6.75 120.8 6.65 120.25 6.95 120.0 M7.5 128.7 L8.95 129.0 9.05 129.05 9.25 129.0 9.8 129.0 10.35 128.95 12.45 128.25 12.5 128.25 Q12.85 128.65 12.75 129.45 L12.35 130.4 12.15 130.45 10.5 130.55 7.55 130.3 7.3 129.9 7.25 129.35 Q7.3 128.9 7.5 128.7 M15.1 135.35 L15.55 135.75 16.2 136.25 16.45 136.65 Q18.35 138.6 19.6 140.85 L22.5 145.4 22.45 145.45 22.55 145.65 23.55 146.55 23.5 146.7 21.65 146.6 20.6 146.7 Q18.25 146.95 16.15 148.2 12.2 146.25 8.15 144.55 7.7 141.1 9.15 137.95 9.7 135.65 11.8 136.05 L12.1 136.1 14.0 135.95 14.55 135.7 15.05 135.35 15.1 135.35 M15.5 139.25 Q14.8 137.9 13.75 136.95 L10.7 137.15 Q8.45 140.4 9.4 144.1 L16.5 147.1 Q18.1 146.2 19.95 145.8 17.3 142.75 15.5 139.25" fill="#660000" fill-rule="evenodd" stroke="none"/>
    <path d="M-8.45 112.1 L-8.45 112.3 -8.65 112.25 -8.45 112.1 M8.65 -26.3 L7.2 -25.4 Q5.6 -24.15 3.55 -23.55 L2.85 -23.6 2.75 -23.5 2.6 -23.4 2.05 -23.4 1.9 -23.5 1.7 -23.75 1.7 -23.85 1.75 -24.1 1.75 -24.2 Q2.8 -25.9 4.7 -26.8 L5.65 -27.5 Q7.3 -29.1 9.3 -30.3 10.3 -30.9 11.45 -31.0 L12.0 -30.6 12.05 -30.45 Q11.25 -28.2 9.15 -26.75 L8.65 -26.3 M19.75 8.25 L19.75 8.2 19.85 8.3 19.75 8.25 M-3.8 -20.6 L-3.35 -20.65 Q-1.7 -19.9 -3.1 -18.45 L-3.25 -18.3 Q-4.05 -16.1 -5.55 -14.4 L-5.85 -14.3 -6.35 -14.3 Q-7.45 -15.8 -6.65 -17.65 -5.95 -19.35 -4.45 -20.35 L-3.8 -20.6 M-7.25 -13.15 Q-5.9 -11.5 -7.65 -9.85 L-9.05 -8.25 Q-10.0 -7.95 -10.7 -7.15 L-10.8 -7.05 Q-12.15 -6.35 -12.9 -5.0 L-13.05 -4.8 Q-12.8 -2.8 -14.7 -3.35 L-15.05 -3.7 Q-16.2 -6.95 -13.4 -9.1 L-7.9 -13.2 -7.25 -13.15 M-9.8 35.8 L-9.8 35.75 -9.75 35.65 Q-8.75 33.75 -10.75 33.4 L-11.3 33.85 -11.5 34.1 -11.85 32.55 -11.7 31.15 -4.5 35.3 -4.05 35.55 Q0.2 37.8 4.75 35.45 8.7 32.9 13.1 31.25 14.95 34.25 15.9 37.9 L13.55 40.75 Q12.8 40.0 12.4 38.65 L11.2 35.35 11.15 35.2 10.3 35.1 Q4.75 41.55 -3.35 39.4 -6.8 38.45 -9.7 36.15 L-9.8 35.8 M-6.6 90.65 L-6.8 89.95 -7.1 89.3 -6.1 89.2 -6.15 89.4 -6.5 90.5 -6.6 90.65" fill="#515151" fill-rule="evenodd" stroke="none"/>
    <path d="M-7.9 111.75 L-8.3 111.55 -8.45 112.0 Q-11.1 110.0 -9.95 106.75 -9.75 106.3 -9.25 106.2 L-8.75 106.1 Q-7.15 106.7 -6.05 108.2 -5.35 109.2 -4.9 110.3 L-4.75 110.75 -5.7 110.9 Q-6.85 111.2 -7.9 111.75 M22.6 -24.35 L22.05 -23.45 Q20.8 -21.85 18.7 -21.85 L17.0 -21.95 Q16.45 -22.0 16.15 -22.5 14.85 -24.55 16.8 -26.2 18.05 -27.3 19.55 -27.9 20.6 -28.1 21.3 -27.35 L21.3 -27.3 Q22.2 -26.8 22.6 -26.15 L22.75 -25.75 22.6 -24.35 M19.65 -8.25 L19.85 -8.3 19.85 -8.35 20.9 -7.5 21.0 -7.35 21.75 -4.35 21.8 -3.85 Q22.65 -2.6 22.3 -1.05 L21.95 -0.55 Q22.65 1.7 22.0 4.0 L21.85 4.3 21.75 4.45 21.65 4.55 Q21.4 5.05 21.45 5.6 L21.35 6.1 21.7 6.65 21.75 6.8 21.5 7.1 21.25 7.3 20.35 7.15 Q19.2 5.75 19.7 4.0 L19.75 3.8 19.9 3.3 20.5 2.4 20.55 2.1 20.25 1.55 20.15 1.2 Q19.25 0.05 19.7 -1.55 L19.95 -2.1 Q19.4 -3.85 19.3 -5.7 L19.25 -5.95 19.25 -6.45 Q18.95 -6.85 19.15 -7.35 L19.2 -7.85 19.25 -8.05 19.45 -8.2 19.65 -8.25 M7.65 -23.75 L8.25 -23.6 9.4 -22.2 9.85 -21.5 9.8 -20.4 Q9.15 -18.9 7.6 -18.15 6.65 -17.65 5.85 -16.8 L3.35 -14.25 3.25 -14.1 Q2.45 -12.75 1.05 -12.2 L0.45 -12.95 0.2 -13.45 Q0.0 -14.35 -0.55 -14.8 L-0.65 -15.45 Q-0.95 -17.05 -0.25 -18.35 0.35 -19.4 1.2 -20.05 L2.0 -21.0 Q4.55 -23.15 7.65 -23.75 M-23.15 27.0 Q-23.3 27.7 -23.95 27.6 L-24.0 27.6 -24.35 27.55 Q-25.1 27.35 -25.4 26.75 L-25.65 25.5 Q-25.65 24.6 -24.85 24.3 -22.85 24.75 -23.15 26.95 L-23.15 27.0 M-28.1 25.85 L-28.15 25.85 -28.45 25.95 -28.8 25.95 -28.9 25.95 -29.0 25.9 -29.5 25.25 -30.05 24.35 -30.15 24.1 -30.35 23.3 -30.2 21.75 -29.7 20.4 -28.45 17.8 -28.2 17.4 Q-27.75 16.85 -27.05 16.6 -26.8 16.7 -26.7 17.05 -26.55 17.5 -26.55 18.0 L-26.55 18.1 -27.3 19.8 Q-28.2 21.3 -28.1 23.1 L-28.0 23.65 -27.75 25.55 -28.1 25.85 M-11.5 34.1 L-11.3 33.85 -10.75 33.4 Q-8.75 33.75 -9.75 35.65 L-9.8 35.75 -9.8 35.8 -9.3 37.75 Q-9.1 38.15 -9.05 38.6 -6.75 41.15 -6.4 44.5 L-6.55 44.85 -7.15 44.85 -7.3 44.7 -7.5 44.35 -9.85 42.25 -11.9 39.75 Q-13.55 37.7 -12.5 35.35 L-11.85 34.45 -11.5 34.1 M-9.9 54.8 Q-9.4 56.45 -9.6 58.3 -9.9 61.7 -9.6 64.9 -9.3 67.95 -9.25 71.1 L-9.3 73.4 Q-9.55 76.15 -11.85 74.5 -12.2 74.25 -12.2 73.8 L-12.6 64.0 -12.5 61.85 -11.65 56.65 -11.2 54.6 -11.15 54.25 -11.1 54.05 -10.85 53.7 -10.7 53.55 -10.5 53.5 -10.4 53.5 -10.1 54.2 -9.95 54.65 -9.9 54.8 M-4.45 78.85 L-4.45 78.8 -4.4 78.8 -4.45 78.85 M-7.1 89.3 L-6.8 89.95 -6.6 90.65 -7.25 92.2 -6.75 92.1 Q-6.95 92.3 -7.25 92.35 L-7.45 92.4 -7.55 92.4 -7.65 92.45 -8.7 92.45 -9.0 92.35 -9.05 92.35 -9.2 92.3 Q-10.25 91.9 -10.7 90.5 -11.2 88.85 -9.9 87.75 L-9.75 87.75 -9.25 87.65 Q-7.8 88.25 -7.1 89.3 M11.15 85.6 Q12.3 86.35 13.05 87.85 L13.15 88.05 Q13.6 89.1 13.45 90.0 L13.0 91.1 12.5 91.7 12.15 91.8 10.2 91.7 10.05 91.65 Q9.55 90.15 8.15 88.9 L8.35 89.85 8.0 88.95 Q7.3 86.9 8.75 85.4 9.3 85.05 10.0 85.1 L10.0 85.05 11.15 85.6 M23.75 24.6 L23.15 25.85 22.8 25.9 Q22.15 25.75 21.6 25.35 L21.2 24.4 21.1 24.05 Q20.75 22.1 21.3 20.15 L21.8 19.15 Q22.8 17.75 24.2 16.7 24.65 17.05 24.35 17.8 23.7 19.5 23.7 21.35 L23.75 22.05 Q24.05 23.4 23.75 24.6 M8.65 39.6 Q10.9 41.85 9.55 45.15 L9.25 45.95 Q8.8 47.1 7.65 47.6 3.95 47.65 4.6 44.0 5.1 41.05 7.4 39.6 L8.65 39.6 M27.9 27.2 L27.9 27.4 Q26.65 28.35 25.6 27.05 25.45 26.2 25.9 25.5 L26.4 24.9 Q28.25 25.25 27.9 27.2 M2.65 101.0 Q3.15 100.3 3.95 99.75 6.85 99.75 5.9 102.4 5.4 103.85 5.45 105.4 5.5 107.1 4.35 108.0 L3.45 107.95 3.4 107.95 3.4 107.05 3.4 107.0 3.0 102.65 2.65 101.0" fill="#868686" fill-rule="evenodd" stroke="none"/>
    <path d="M-2.4 111.9 Q-3.75 111.85 -5.2 112.45 -5.9 113.65 -7.15 112.6 L-7.9 111.75 Q-6.85 111.2 -5.7 110.9 L-4.75 110.75 -3.95 110.6 -3.65 110.35 -3.05 109.9 Q-2.4 104.0 -4.25 98.45 L-5.2 96.5 -8.7 96.35 Q-7.05 96.75 -5.35 96.4 -4.55 96.25 -4.0 95.55 -2.05 92.85 -5.2 91.95 L-6.75 92.1 Q-5.25 91.7 -4.65 90.2 -4.3 88.45 -5.45 87.3 L-5.6 85.9 -5.25 86.1 -5.2 86.1 Q-2.35 87.1 -2.25 84.1 L-2.2 82.4 Q-2.1 79.6 -4.4 78.8 L-4.45 78.8 -4.45 78.85 -5.1 79.15 -5.8 80.1 Q-5.7 76.25 -4.9 72.4 L-3.85 68.35 Q-2.4 63.45 -3.9 58.8 L-4.2 57.85 Q-4.05 57.3 -4.35 56.55 -4.7 55.65 -5.35 54.95 -7.0 52.95 -9.7 53.05 L-10.95 53.4 Q-11.6 53.6 -12.0 54.15 -13.2 55.9 -13.55 58.1 L-13.6 58.5 -14.1 59.65 -13.9 57.1 -13.35 53.5 -13.3 53.3 -13.15 52.7 -12.9 50.6 -12.8 49.65 Q-11.6 50.8 -9.65 49.25 -8.8 49.6 -8.1 50.25 -6.1 52.05 -3.65 52.35 L-3.95 52.1 -3.05 52.8 3.85 52.7 5.95 52.25 Q8.05 51.6 9.8 49.9 L11.9 49.8 12.2 49.8 12.25 49.95 12.45 50.15 13.95 56.1 14.15 57.8 Q14.35 59.85 15.3 61.4 L15.4 63.5 Q15.7 73.65 14.2 83.45 L14.6 89.7 13.45 90.0 Q13.6 89.1 13.15 88.05 L13.05 87.85 Q12.3 86.35 11.15 85.6 10.95 79.35 12.5 73.3 L12.35 73.95 12.45 69.2 Q12.45 63.55 11.4 58.1 10.95 55.7 9.85 53.5 L7.85 53.15 Q4.95 53.05 3.35 55.9 L2.3 56.95 2.35 57.2 2.25 57.05 2.15 57.05 2.1 57.05 2.05 57.0 Q2.95 60.3 2.85 63.65 L2.1 58.5 1.8 58.5 Q1.2 62.15 0.25 65.6 -0.7 69.05 -1.1 72.75 -1.75 86.8 0.85 100.35 L1.25 101.7 1.25 101.8 1.15 101.8 Q0.65 101.95 0.6 102.35 L-0.75 109.9 -0.95 111.2 -1.85 112.0 -1.95 111.95 -2.4 111.9 M15.1 95.1 Q15.75 100.9 16.9 106.6 L15.8 109.25 Q15.45 108.8 14.85 108.45 13.3 108.85 12.4 110.4 L11.8 111.35 Q11.8 111.15 11.95 110.9 10.05 110.6 8.5 111.6 6.9 112.5 5.15 111.65 4.3 110.2 3.1 109.3 L3.3 107.85 3.4 107.05 3.4 107.95 3.45 107.95 4.35 108.0 6.75 108.4 7.75 109.0 Q13.25 107.5 12.85 101.5 L12.3 95.85 Q11.6 96.05 10.7 95.85 9.2 95.55 9.2 93.95 9.2 93.25 9.35 92.7 L9.8 93.45 10.05 93.9 9.85 93.55 9.85 93.75 Q10.0 95.1 11.35 95.45 L15.15 95.6 15.1 95.1 M22.6 -26.15 Q22.6 -27.05 22.75 -27.95 L22.95 -28.3 24.2 -26.85 24.65 -11.0 26.0 -1.65 Q26.8 3.0 26.75 7.85 L26.35 8.4 25.9 8.8 24.1 9.6 23.75 9.65 22.7 9.5 21.85 8.65 21.7 8.5 22.45 7.6 22.5 7.6 Q23.55 7.55 24.5 6.85 L25.05 6.5 25.25 5.8 25.5 5.2 Q24.85 1.25 24.6 -2.8 24.35 -7.25 22.85 -11.45 22.25 -13.15 22.0 -14.9 L21.45 -15.5 21.25 -15.5 Q20.95 -14.1 19.9 -13.25 L19.65 -13.1 19.6 -13.0 19.65 -12.15 Q18.65 -10.9 18.45 -9.65 L19.7 -11.1 19.65 -8.25 19.45 -8.2 19.25 -8.05 19.2 -7.85 19.15 -7.35 Q18.95 -6.85 19.25 -6.45 L19.25 -5.95 19.3 -5.7 18.8 -5.1 17.6 -4.9 17.35 -6.55 17.45 -7.8 17.6 -8.35 Q18.45 -9.95 18.75 -11.7 L18.8 -12.4 19.15 -13.6 19.4 -14.45 Q20.45 -17.15 21.8 -19.75 L22.3 -20.5 Q23.1 -21.5 22.6 -22.55 L22.65 -22.6 22.6 -22.75 22.5 -22.75 22.3 -22.65 21.6 -22.5 20.9 -21.8 19.0 -18.35 19.0 -18.3 17.75 -16.8 17.65 -16.7 Q16.55 -15.15 15.85 -13.35 14.65 -12.45 13.85 -10.95 L13.7 -10.65 12.85 -6.65 12.55 -6.45 12.0 -6.35 Q10.05 -6.4 9.0 -5.3 9.8 -2.75 12.6 -2.55 L14.6 -2.85 13.95 -2.65 13.65 -1.35 13.4 -0.3 Q13.3 0.3 13.35 0.95 L13.55 5.3 Q13.65 8.2 13.35 11.0 L13.1 11.7 12.9 12.05 Q11.55 11.55 10.0 12.05 7.75 13.15 5.65 14.4 L5.2 14.65 2.35 15.4 1.7 15.45 0.65 15.4 -0.55 15.2 -0.9 15.1 -1.0 15.1 -1.45 15.0 -1.75 14.9 -4.05 14.15 -5.25 13.6 -5.4 13.55 -5.6 13.45 -5.65 13.45 Q-8.5 12.0 -11.6 11.5 L-10.65 12.15 Q-11.95 11.35 -13.7 11.0 -14.15 11.0 -14.6 11.3 L-15.05 11.65 -15.5 11.0 -15.75 10.6 -15.95 10.15 -16.0 10.05 Q-16.35 9.2 -16.3 8.25 L-16.3 8.1 -16.3 8.05 -15.65 7.4 -14.95 6.9 -14.9 6.9 Q-15.1 7.8 -14.95 8.75 L-14.8 9.05 Q-14.35 9.65 -13.65 9.9 L-13.5 9.8 -13.3 9.7 -12.3 8.75 -11.7 7.5 -11.65 7.5 Q-7.85 8.75 -6.0 12.6 L-6.4 11.8 -2.45 13.4 -2.1 13.5 1.1 13.85 3.1 13.85 2.7 14.2 3.45 13.55 Q6.5 11.35 9.65 9.5 8.6 6.1 9.8 2.6 L10.65 -0.7 8.5 -0.9 7.0 -2.3 5.4 -2.9 Q-0.05 -4.0 -5.6 -3.75 L-5.9 -4.1 -6.0 -4.25 -5.9 -4.7 -5.8 -5.65 Q-5.3 -7.1 -3.5 -7.5 1.05 -8.55 5.75 -8.2 9.0 -8.0 10.7 -10.7 L12.3 -13.15 Q14.5 -16.25 17.45 -17.95 L18.5 -17.95 18.7 -18.25 18.85 -18.3 Q19.4 -19.85 20.3 -21.25 L20.8 -21.9 22.6 -23.9 22.6 -24.3 22.6 -24.35 22.75 -25.75 22.6 -26.15 M12.75 12.25 L12.4 12.5 12.15 12.75 12.1 12.7 Q12.4 12.45 12.75 12.25 M-28.25 12.6 L-28.05 11.0 -26.25 12.15 -24.15 12.25 -23.8 11.95 -23.45 11.7 -23.4 11.7 -22.6 11.95 -22.0 17.25 Q-21.35 20.0 -21.1 23.25 -20.9 26.45 -22.2 29.1 -23.6 30.3 -25.35 30.0 L-28.65 29.1 Q-29.95 28.2 -30.45 26.95 L-30.1 26.3 Q-29.8 25.95 -29.4 25.9 L-29.0 25.9 -28.9 25.95 -28.8 25.95 -28.45 25.95 -28.15 25.85 -28.1 25.85 Q-26.6 25.95 -25.4 26.75 -25.1 27.35 -24.35 27.55 L-24.2 27.7 -23.95 27.6 Q-23.3 27.7 -23.15 27.0 -22.5 26.3 -22.4 25.2 -22.1 22.95 -23.4 20.9 L-24.05 19.45 Q-24.65 17.3 -24.55 14.95 -26.05 14.8 -27.35 13.8 -28.0 13.3 -28.25 12.6 M-9.2 92.3 L-9.05 92.35 -9.4 92.4 -10.0 92.55 -9.85 92.1 -9.8 92.0 -9.2 92.3 M21.0 11.35 L21.0 12.0 Q22.9 13.55 25.3 12.3 L26.0 13.8 26.6 15.4 Q26.95 16.5 27.65 17.4 L27.85 17.9 28.2 18.1 28.85 21.7 Q28.55 23.5 28.7 25.8 28.8 28.05 26.45 28.5 L26.2 28.45 23.85 27.85 23.0 27.75 22.95 27.7 22.65 27.7 Q20.65 27.45 19.8 25.35 20.3 24.6 21.2 24.4 L21.6 25.35 Q22.15 25.75 22.8 25.9 L23.15 25.85 23.75 24.6 25.7 25.2 26.15 24.85 26.5 24.3 26.6 24.15 26.35 19.55 26.05 16.6 Q25.8 15.0 24.85 13.65 22.6 13.9 20.95 12.9 L21.0 11.35 M27.9 27.2 Q28.25 25.25 26.4 24.9 L25.9 25.5 Q25.45 26.2 25.6 27.05 26.65 28.35 27.9 27.4 L27.9 27.2 M2.6 100.8 L2.65 101.0 3.0 102.65 2.25 102.0 2.15 102.2 2.6 100.8 M10.05 91.65 L10.2 91.7 10.1 91.85 10.05 91.65" fill="#4a4a4a" fill-rule="evenodd" stroke="none"/>
    <path d="M1.65 110.45 L0.3 112.0 -0.75 112.7 -2.95 114.5 -3.55 114.6 -4.15 114.65 -4.35 114.65 -6.0 114.6 Q-4.7 113.2 -3.25 111.95 L-2.4 111.9 -1.95 111.95 -1.85 112.0 -0.95 111.2 -0.75 109.9 0.6 102.35 Q0.65 101.95 1.15 101.8 L1.25 101.8 Q1.3 102.5 1.95 102.8 L2.15 102.2 2.25 102.0 3.0 102.65 3.4 107.0 3.4 107.05 3.3 107.85 3.1 109.3 3.1 109.35 2.3 108.85 2.05 108.7 1.95 108.65 1.35 109.2 Q1.8 109.85 1.65 110.45 M-8.45 118.5 L-8.55 118.4 -8.6 118.2 -8.6 117.55 -8.45 117.35 -8.2 118.05 -8.2 118.1 -8.45 118.5 M-12.8 49.65 L-12.4 43.65 -11.95 43.65 -8.75 47.55 -8.75 47.6 -5.25 51.0 -3.95 52.1 -3.65 52.35 Q-6.1 52.05 -8.1 50.25 -8.8 49.6 -9.65 49.25 -11.6 50.8 -12.8 49.65 M5.95 52.25 Q7.95 51.4 9.15 49.05 11.1 45.8 14.0 43.3 14.9 52.25 15.3 61.4 14.35 59.85 14.15 57.8 L13.95 56.1 12.45 50.15 12.25 49.95 12.2 49.8 11.9 49.8 9.8 49.9 Q8.05 51.6 5.95 52.25 M14.6 89.7 L14.65 90.2 15.1 95.1 15.15 95.6 11.35 95.45 Q10.0 95.1 9.85 93.75 L9.85 93.55 10.05 93.9 10.15 94.05 10.25 94.2 Q10.4 92.95 10.1 91.85 L10.2 91.7 12.15 91.8 12.5 91.7 13.0 91.1 13.45 90.0 14.6 89.7 M15.8 109.25 L13.9 112.45 12.35 112.25 Q11.7 111.95 11.8 111.35 L12.4 110.4 Q13.3 108.85 14.85 108.45 15.45 108.8 15.8 109.25 M15.85 -13.35 L15.25 -11.4 Q15.95 -11.5 16.5 -12.15 L16.85 -12.95 18.65 -17.45 19.05 -18.35 19.0 -18.25 19.0 -18.3 19.0 -18.35 20.9 -21.8 21.6 -22.5 22.3 -22.65 22.5 -22.75 22.6 -22.75 22.65 -22.6 22.6 -22.55 Q23.1 -21.5 22.3 -20.5 L21.8 -19.75 Q20.45 -17.15 19.4 -14.45 L19.15 -13.6 18.8 -12.4 18.75 -11.7 Q18.45 -9.95 17.6 -8.35 L17.45 -7.8 17.35 -6.55 17.25 -9.15 17.25 -9.3 17.25 -9.5 17.25 -10.1 16.95 -10.4 Q16.5 -9.6 16.35 -8.7 L16.2 -8.05 16.2 -8.1 16.15 -6.35 16.2 -4.1 15.9 -2.1 Q14.25 4.0 15.25 10.4 15.25 12.9 13.0 13.9 L12.15 12.75 12.4 12.5 12.75 12.25 13.0 12.05 12.9 12.05 13.1 11.7 13.35 11.0 Q13.65 8.2 13.55 5.3 L13.35 0.95 Q13.3 0.3 13.4 -0.3 L13.65 -1.35 13.95 -2.65 14.6 -2.85 12.6 -2.55 Q9.8 -2.75 9.0 -5.3 10.05 -6.4 12.0 -6.35 L12.55 -6.45 12.85 -6.65 13.7 -10.65 13.85 -10.95 Q14.65 -12.45 15.85 -13.35 M21.25 10.75 L21.3 10.75 22.7 10.9 22.85 10.95 22.9 10.95 23.0 10.95 Q23.95 11.15 24.95 10.55 L25.7 10.0 26.1 10.15 Q27.35 14.0 28.2 18.1 L27.85 17.9 27.65 17.4 Q26.95 16.5 26.6 15.4 L26.0 13.8 25.3 12.3 Q22.9 13.55 21.0 12.0 L21.0 11.35 21.05 10.7 21.25 10.75 M-15.05 11.65 L-14.6 11.3 Q-14.15 11.0 -13.7 11.0 -11.95 11.35 -10.65 12.15 L-10.2 12.5 -12.45 14.2 Q-14.0 13.05 -15.05 11.65 M-6.75 92.1 L-5.2 91.95 Q-2.05 92.85 -4.0 95.55 -4.55 96.25 -5.35 96.4 -7.05 96.75 -8.7 96.35 -9.5 95.8 -9.9 94.6 -10.25 93.6 -10.0 92.55 L-9.4 92.4 -9.05 92.35 -9.0 92.35 -8.7 92.45 -7.65 92.45 -7.55 92.4 -7.45 92.4 -7.25 92.35 Q-6.95 92.3 -6.75 92.1" fill="#333333" fill-rule="evenodd" stroke="none"/>
  </g>
</svg>
