<?xml version="1.0" encoding="UTF-8" standalone="no"?>
<svg xmlns:xlink="http://www.w3.org/1999/xlink" height="8.0px" width="3.15px" xmlns="http://www.w3.org/2000/svg">
  <g transform="matrix(1.0, 0.0, 0.0, 1.0, 1.6, 4.0)">
    <path d="M-1.4 -3.2 L-1.25 -3.4 -1.15 -3.55 Q-0.7 -4.0 -0.1 -4.0 L-0.05 -4.0 0.15 -3.95 0.65 -3.2 Q0.75 -2.75 0.45 -2.35 0.0 -1.6 -0.85 -1.9 -1.6 -2.15 -1.55 -2.85 L-1.4 -3.2 M0.1 1.0 L0.3 1.05 Q0.7 1.25 0.8 1.8 0.9 2.25 0.6 2.65 0.15 3.4 -0.7 3.1 -1.45 2.85 -1.4 2.15 L-1.25 1.8 -1.1 1.6 -1.0 1.45 Q-0.55 1.0 0.05 1.0 L0.1 1.0" fill="#ff0000" fill-rule="evenodd" stroke="none"/>
    <path d="M-0.05 -4.0 L0.95 -3.55 1.4 -2.5 Q1.4 -1.9 0.95 -1.45 0.5 -1.0 -0.1 -1.0 -0.7 -1.0 -1.15 -1.45 -1.6 -1.9 -1.6 -2.5 L-1.4 -3.2 -1.55 -2.85 Q-1.6 -2.15 -0.85 -1.9 0.0 -1.6 0.45 -2.35 0.75 -2.75 0.65 -3.2 L0.15 -3.95 -0.05 -4.0 M-1.25 1.8 L-1.4 2.15 Q-1.45 2.85 -0.7 3.1 0.15 3.4 0.6 2.65 0.9 2.25 0.8 1.8 0.7 1.25 0.3 1.05 L0.1 1.0 Q0.65 1.0 1.1 1.45 1.55 1.9 1.55 2.5 1.55 3.1 1.1 3.55 0.65 4.0 0.05 4.0 -0.55 4.0 -1.0 3.55 L-1.45 2.5 -1.25 1.8" fill="#990000" fill-rule="evenodd" stroke="none"/>
  </g>
</svg>
