<?xml version="1.0" encoding="UTF-8" standalone="no"?>
<svg xmlns:xlink="http://www.w3.org/1999/xlink" height="3.0px" width="8.6px" xmlns="http://www.w3.org/2000/svg">
  <g transform="matrix(1.0, 0.0, 0.0, 1.0, 4.3, 1.5)">
    <path d="M-2.75 -1.5 Q-2.2 -1.5 -1.75 -1.05 -1.3 -0.6 -1.3 0.0 -1.3 0.6 -1.75 1.05 -2.2 1.5 -2.8 1.5 -3.4 1.5 -3.85 1.05 L-4.3 0.0 -4.1 -0.7 -4.25 -0.35 Q-4.3 0.35 -3.55 0.6 -2.7 0.9 -2.25 0.15 -1.95 -0.25 -2.05 -0.7 -2.15 -1.25 -2.55 -1.45 L-2.75 -1.5" fill="#990000" fill-rule="evenodd" stroke="none"/>
    <path d="M-2.75 -1.5 L-2.55 -1.45 Q-2.15 -1.25 -2.05 -0.7 -1.95 -0.25 -2.25 0.15 -2.7 0.9 -3.55 0.6 -4.3 0.35 -4.25 -0.35 L-4.1 -0.7 -3.95 -0.9 -3.85 -1.05 Q-3.4 -1.5 -2.8 -1.5 L-2.75 -1.5" fill="#ff0000" fill-rule="evenodd" stroke="none"/>
    <path d="M2.85 -1.5 L3.05 -1.45 3.55 -0.7 Q3.65 -0.25 3.35 0.15 2.9 0.9 2.05 0.6 1.3 0.35 1.35 -0.35 L1.5 -0.7 1.65 -0.9 1.75 -1.05 Q2.2 -1.5 2.8 -1.5 L2.85 -1.5" fill="#ff0000" fill-rule="evenodd" stroke="none"/>
    <path d="M2.85 -1.5 L3.85 -1.05 4.3 0.0 3.85 1.05 Q3.4 1.5 2.8 1.5 2.2 1.5 1.75 1.05 1.3 0.6 1.3 0.0 L1.5 -0.7 1.35 -0.35 Q1.3 0.35 2.05 0.6 2.9 0.9 3.35 0.15 3.65 -0.25 3.55 -0.7 L3.05 -1.45 2.85 -1.5" fill="#990000" fill-rule="evenodd" stroke="none"/>
  </g>
</svg>
