<?xml version="1.0" encoding="UTF-8" standalone="no"?>
<svg xmlns:xlink="http://www.w3.org/1999/xlink" height="216.2px" width="88.8px" xmlns="http://www.w3.org/2000/svg">
  <g transform="matrix(1.0, 0.0, 0.0, 1.0, 45.6, 45.15)">
    <path d="M23.1 -42.65 L21.85 -43.4 20.45 -43.85 Q17.2 -44.85 14.65 -42.8 12.0 -40.75 10.1 -38.15 L12.0 -37.55 15.4 -35.65 15.65 -35.45 17.6 -33.75 24.5 -40.8 24.35 -41.0 23.1 -42.65 M19.95 -32.7 L22.35 -31.45 23.15 -30.8 23.45 -30.5 Q24.25 -29.85 25.0 -29.35 L25.15 -29.3 Q27.8 -33.3 31.6 -36.65 L30.4 -38.4 29.9 -38.8 29.15 -39.35 27.6 -40.1 27.15 -40.25 26.9 -40.3 26.6 -40.35 26.4 -40.35 25.75 -40.5 19.15 -33.15 19.95 -32.7 M29.9 -38.8 L29.95 -38.8 29.9 -38.8 M16.95 -20.0 L18.95 -18.95 Q19.8 -19.1 20.2 -20.1 L21.0 -22.05 24.2 -28.6 24.05 -28.8 22.95 -30.05 22.75 -30.2 21.7 -30.95 21.05 -31.4 20.95 -31.4 20.0 -31.8 17.95 -32.2 Q15.85 -30.7 14.35 -28.7 12.85 -26.75 11.0 -25.1 L10.95 -25.15 10.8 -25.3 12.25 -27.1 Q14.65 -30.1 16.65 -33.05 L16.6 -33.2 15.5 -34.5 15.05 -34.85 14.85 -35.05 Q13.05 -36.55 10.85 -37.1 L10.35 -37.2 9.5 -37.4 Q7.5 -35.75 6.1 -33.75 L2.75 -30.15 3.6 -29.35 7.35 -26.3 7.35 -26.25 10.2 -24.2 12.25 -22.85 Q14.55 -21.35 16.95 -20.0 M34.3 -35.25 L33.7 -35.5 33.6 -35.55 33.55 -35.55 33.45 -35.6 33.4 -35.6 33.05 -35.7 32.8 -35.75 32.5 -35.8 32.35 -35.8 Q25.85 -29.0 22.25 -20.8 L21.65 -20.0 21.45 -19.8 20.7 -18.15 20.7 -18.1 20.7 -18.05 22.3 -17.0 22.7 -16.8 23.5 -16.4 25.7 -15.55 26.25 -16.7 27.55 -19.8 28.05 -20.45 27.75 -19.55 Q27.25 -17.45 27.45 -15.05 27.65 -12.05 26.5 -9.75 26.7 -3.5 28.05 2.7 28.35 2.45 28.7 2.35 L28.8 2.35 29.25 2.15 32.3 1.45 35.4 1.55 32.25 1.95 30.25 2.7 Q29.05 3.25 28.05 4.2 28.2 5.85 28.7 7.25 L29.7 7.1 32.9 6.95 35.4 7.25 35.4 7.45 33.2 7.4 29.55 8.0 28.7 8.25 Q28.35 8.75 28.8 9.45 29.45 11.45 28.2 12.8 26.9 14.15 27.0 16.0 29.6 16.6 32.0 17.75 L34.85 19.85 34.8 19.85 Q32.3 18.65 29.5 17.95 L26.2 17.7 16.6 17.95 14.2 17.55 12.8 17.2 Q13.85 18.65 13.9 20.4 14.0 22.35 15.7 22.05 L15.95 22.0 18.55 22.25 Q18.0 22.9 17.2 22.8 L16.5 22.8 Q16.15 22.85 15.9 23.05 16.1 23.8 16.85 24.25 17.85 26.25 18.35 28.45 L22.45 28.05 27.25 27.55 Q27.7 27.65 27.7 28.1 25.2 29.05 22.5 29.5 L19.25 29.8 18.7 30.3 Q19.6 33.05 22.15 34.75 L22.3 34.85 22.45 34.95 22.55 35.05 22.8 35.25 22.85 35.35 22.95 35.4 23.05 35.45 Q24.35 36.7 24.8 38.5 L24.95 39.5 25.1 39.35 40.15 27.2 Q41.85 26.3 42.15 24.45 L42.1 24.3 Q41.7 22.95 41.7 21.4 L41.7 20.8 Q41.8 18.8 41.5 17.1 39.8 3.25 38.45 -10.4 37.6 -16.5 37.2 -22.75 36.8 -29.05 35.05 -34.75 L34.3 -35.25 M25.45 -17.9 L25.4 -17.9 25.4 -18.0 25.35 -18.05 Q24.95 -19.75 26.15 -20.85 L25.7 -17.9 25.45 -17.9 M29.9 -40.1 Q31.85 -38.95 32.6 -36.8 35.35 -36.6 36.1 -34.4 L37.55 -30.1 Q38.75 -21.95 39.2 -13.65 39.7 -5.35 41.35 2.6 L42.9 14.15 Q43.6 19.95 42.75 25.95 38.85 30.75 33.85 34.55 33.55 41.85 33.85 49.4 34.05 52.9 35.0 56.1 35.85 59.3 36.35 62.8 30.95 65.2 26.8 70.0 26.55 75.35 27.4 80.85 28.4 91.45 30.25 101.75 L30.25 101.8 Q31.3 109.15 32.6 116.35 34.15 125.0 36.1 133.45 L36.6 135.2 37.2 138.25 37.9 141.2 38.5 142.7 38.75 143.25 38.8 143.5 40.2 146.2 41.0 147.7 41.2 147.9 41.25 148.25 41.65 149.75 42.25 151.65 Q42.35 153.35 41.5 154.85 35.8 158.8 30.75 164.9 27.65 167.25 23.75 167.15 19.8 167.0 16.4 168.35 11.65 170.7 6.35 171.0 0.95 171.3 -4.05 169.9 L-9.0 169.45 Q-11.5 169.45 -13.55 168.2 -18.85 163.25 -24.5 159.35 -30.15 155.35 -35.55 150.6 -36.3 149.05 -36.05 147.1 L-36.0 146.55 -35.7 146.1 -35.5 145.65 -34.9 145.05 Q-33.9 143.6 -33.2 141.95 -32.65 140.85 -32.45 139.7 L-32.1 137.5 -31.8 134.7 -31.8 133.8 -31.7 132.75 -31.5 132.4 -31.45 132.4 -30.75 128.3 Q-30.6 127.5 -30.75 127.0 L-30.25 123.7 -30.2 123.2 -29.2 116.35 -26.8 103.0 -26.5 101.8 -26.5 101.75 -26.4 101.3 -25.55 98.75 Q-24.85 96.75 -25.35 94.55 -27.7 94.5 -29.8 93.5 L-33.95 91.45 Q-35.8 90.25 -37.15 88.5 -36.6 87.05 -36.7 85.25 -36.85 83.45 -36.45 81.95 -34.75 69.75 -34.65 57.05 -34.55 44.3 -34.9 31.85 -37.95 29.0 -41.75 26.5 -45.5 24.0 -45.6 19.35 -45.25 15.35 -44.1 11.7 -43.8 -9.8 -38.1 -29.4 -39.25 -31.65 -39.5 -34.25 -37.7 -35.55 -35.4 -35.75 -33.15 -35.95 -31.8 -38.15 -28.2 -40.65 -24.25 -42.45 -20.3 -44.25 -15.6 -43.85 -13.8 -44.85 -11.85 -44.75 L-10.45 -43.4 Q-5.2 -45.2 0.95 -45.1 7.1 -45.0 12.35 -43.0 14.55 -44.25 16.95 -44.95 L20.75 -44.85 24.2 -43.75 25.85 -41.4 Q28.0 -41.25 29.9 -40.1 M1.9 -30.85 L11.35 -42.15 Q6.55 -43.75 1.0 -43.7 -4.55 -43.7 -9.4 -42.25 -4.5 -36.0 1.9 -30.85 M7.4 -24.15 L5.25 -25.8 2.0 -28.45 Q-0.9 -30.9 -3.5 -33.5 L-5.45 -35.45 -5.6 -35.65 -7.45 -37.6 -12.6 -43.7 Q-14.05 -43.15 -15.65 -43.05 L-17.6 -43.35 -18.45 -42.8 -20.3 -42.1 -23.65 -41.1 -23.8 -41.05 Q-27.55 -39.95 -30.8 -37.45 -33.15 -35.6 -35.85 -34.65 L-38.5 -33.5 -37.4 -30.75 Q-32.6 -20.75 -28.15 -10.5 -23.15 0.95 -23.8 14.8 L-23.35 15.6 -16.1 15.8 Q-12.6 15.9 -9.3 14.85 -6.0 13.75 -2.65 15.4 L0.35 15.2 Q1.85 14.55 3.35 14.05 L3.65 14.05 Q8.15 14.1 12.35 15.45 L12.7 15.6 Q15.65 16.55 18.85 16.5 L21.25 16.35 22.5 16.15 23.1 15.8 23.8 3.6 Q23.75 1.0 24.55 -1.25 25.35 -3.5 25.3 -6.1 L24.65 -8.0 Q24.05 -9.0 25.3 -9.4 25.0 -10.75 25.7 -11.7 L25.75 -11.8 Q26.5 -12.75 26.5 -13.85 L25.35 -14.35 22.7 -15.4 21.15 -16.05 Q19.25 -16.9 17.45 -17.9 12.25 -20.6 7.4 -24.15 M31.9 -20.4 L29.15 -15.6 Q28.2 -16.25 28.7 -17.3 30.1 -19.15 31.9 -20.4 M25.55 -0.8 L25.55 2.3 Q25.0 5.6 25.0 9.25 24.95 12.85 24.45 16.05 L25.7 15.95 26.3 13.7 Q26.5 12.55 27.55 11.65 L26.7 5.4 Q26.45 2.15 25.55 -0.8 M30.05 15.1 L29.6 15.0 29.7 14.6 30.6 14.65 32.6 15.1 Q34.8 15.85 36.45 17.8 L34.85 16.95 34.05 16.45 32.4 15.8 30.05 15.1 M1.3 8.8 L1.3 8.6 1.95 8.75 1.3 8.8 M12.7 18.9 L12.6 18.3 Q10.1 14.9 6.2 15.45 2.25 15.9 -0.8 17.7 -4.85 15.05 -9.4 16.6 -10.65 17.5 -11.35 18.6 -12.3 20.05 -12.3 21.85 L-12.3 22.0 -12.35 22.25 Q-12.4 22.85 -11.9 23.15 L-11.55 23.35 -10.7 23.45 -12.45 23.25 -13.15 24.15 -16.05 27.4 -16.8 28.2 Q-18.15 29.9 -18.25 32.15 L-18.2 32.15 -18.3 32.25 Q-18.95 32.75 -18.8 33.6 L-18.7 33.95 -19.6 33.65 -21.95 36.1 Q-22.95 37.45 -22.6 39.15 -18.65 42.6 -15.25 46.3 L-12.2 50.0 -2.65 61.25 Q-1.5 62.65 -0.6 64.25 L-0.35 64.5 Q0.55 65.85 2.1 66.2 L2.85 65.1 3.05 64.8 3.25 64.4 13.85 50.6 14.2 50.2 18.0 46.2 Q20.85 43.3 23.9 40.55 24.2 36.95 21.35 35.05 L21.15 34.9 20.75 34.6 Q18.4 32.8 17.65 30.15 L17.2 30.2 17.35 29.1 17.05 28.15 14.7 28.35 14.65 28.4 12.8 28.5 Q8.75 28.7 4.5 28.55 L0.5 28.5 -1.2 28.4 3.45 28.5 Q9.45 28.75 15.0 28.3 L17.2 28.1 Q17.2 25.0 14.55 23.3 L13.75 22.0 Q13.6 21.8 13.45 21.8 L12.7 18.9 M31.85 47.75 L31.95 47.75 Q31.55 41.8 32.5 36.05 L28.7 38.75 Q27.65 39.55 26.7 40.4 L26.7 40.5 26.5 40.65 26.5 40.8 26.35 42.8 Q26.15 45.85 26.2 49.1 L26.25 49.15 Q26.15 49.5 26.2 50.0 L26.15 50.35 Q26.0 50.85 26.1 51.3 L26.1 51.35 26.2 51.65 26.2 51.3 26.2 52.05 26.3 54.95 26.35 56.45 Q26.2 56.6 26.2 56.9 26.1 57.55 26.5 57.75 26.25 58.05 26.15 58.6 26.0 59.15 26.2 60.0 L26.25 60.0 26.25 60.45 Q26.4 60.95 26.75 61.1 L26.35 62.0 26.35 62.15 Q26.25 62.55 26.3 63.0 L26.3 63.45 26.5 67.85 Q29.75 65.15 33.4 63.35 L34.9 62.6 Q34.65 60.35 33.9 58.35 L33.55 57.3 33.7 56.95 33.75 56.9 33.75 56.45 33.6 56.0 33.45 55.9 Q33.5 54.85 32.95 54.85 L33.25 54.9 Q33.3 54.2 32.75 53.9 L32.75 54.0 32.7 53.25 32.65 53.0 31.95 49.0 31.85 49.05 31.95 48.55 31.85 47.75 M24.95 75.25 Q24.15 65.5 24.2 55.65 24.15 49.2 24.5 42.7 20.3 46.25 16.75 50.35 L14.5 52.9 10.35 57.2 9.3 58.2 Q7.35 60.5 5.8 63.05 L5.75 63.15 5.6 63.4 4.6 64.85 4.35 65.15 3.25 66.35 3.15 66.45 1.95 67.55 Q0.85 67.9 -0.05 67.1 -5.95 59.6 -12.6 52.2 -14.7 49.2 -17.2 46.45 L-18.45 45.15 -18.85 44.75 -18.9 44.7 -21.7 42.1 -21.6 45.65 -21.45 54.35 -21.65 61.1 -21.7 63.15 Q-22.9 72.45 -22.9 82.3 -23.0 92.05 -23.7 101.3 L-23.7 101.6 -23.75 101.75 -23.75 101.8 -23.9 103.85 -24.3 110.2 Q-24.55 116.7 -25.55 123.25 L-26.1 126.75 -25.65 109.65 -25.8 107.15 -26.4 110.05 -27.0 114.2 Q-28.35 123.95 -30.55 133.55 L-30.7 134.05 -30.7 134.1 -30.75 134.1 -30.75 134.2 -30.75 134.3 -30.9 134.45 -31.0 134.55 -31.0 134.6 -31.0 134.7 -31.0 134.75 -30.8 134.9 -30.75 135.0 -31.0 137.35 -31.5 140.4 -31.7 141.15 -32.45 141.0 -32.6 141.1 -32.65 141.2 -32.65 141.4 -32.05 142.05 -32.9 143.9 -34.55 146.3 -33.55 150.85 -33.2 151.5 -26.25 156.2 -21.65 159.65 Q-18.0 162.55 -14.5 165.9 L-10.9 166.95 Q-6.75 166.95 -2.95 168.1 L4.7 170.1 15.15 166.75 Q20.3 164.85 26.2 165.9 L29.45 163.2 31.65 160.75 Q34.15 157.55 37.25 156.05 39.65 154.45 40.0 151.55 L40.0 151.45 40.1 149.8 40.15 148.5 39.85 147.8 39.3 146.8 38.45 145.25 Q37.55 147.1 36.1 148.45 34.7 149.8 32.8 150.55 31.9 150.95 31.25 151.65 L30.05 152.6 30.05 152.65 29.25 153.4 28.65 153.95 Q28.5 154.05 28.3 154.1 28.15 154.1 28.1 154.2 24.7 155.5 20.9 155.9 L19.85 155.85 19.1 156.0 16.75 156.6 14.85 157.1 15.05 157.2 15.0 157.2 13.5 157.55 11.6 158.1 9.25 158.55 2.2 158.75 1.1 158.45 -1.15 157.4 -1.5 157.2 Q-2.65 156.55 -3.9 156.2 L-7.65 155.6 -7.9 155.6 -11.45 156.2 -12.15 156.35 -14.4 156.55 -17.5 156.35 -18.25 156.05 -18.75 155.9 -18.7 155.85 -18.75 155.85 Q-20.0 155.5 -20.9 154.5 L-23.5 151.4 -23.95 150.9 -23.9 150.85 Q-25.5 149.4 -26.5 147.5 L-27.05 146.45 -28.4 144.05 -28.5 143.75 -30.5 143.4 -31.25 143.15 -32.05 143.1 -31.2 142.4 -29.4 143.0 -29.4 143.05 -29.35 143.0 -27.5 143.65 -27.3 144.1 -25.45 147.45 -23.65 150.2 -20.8 153.3 -18.1 155.1 -17.75 155.25 -15.9 155.65 -7.45 154.85 Q-6.55 154.65 -5.6 154.85 L-4.95 155.05 -1.85 156.2 -0.65 156.85 Q2.05 158.5 5.1 157.55 L6.35 157.5 6.3 157.45 6.15 157.2 6.15 157.15 7.35 156.8 9.45 156.5 12.45 156.3 11.9 156.5 13.3 156.25 14.05 156.15 21.75 155.05 Q25.45 154.35 28.75 152.45 L28.8 152.4 29.05 152.1 Q29.9 150.1 32.0 149.5 35.45 148.5 36.2 145.25 L37.2 144.2 37.75 143.75 38.05 142.9 37.65 142.5 37.25 142.5 37.2 142.4 37.15 142.2 Q36.6 140.75 36.35 139.25 L36.05 137.85 36.05 137.7 36.0 137.8 35.6 138.6 35.4 138.2 35.45 138.35 34.8 139.65 34.25 140.45 33.7 140.85 33.05 141.3 30.15 142.2 30.05 142.25 29.95 142.25 29.6 141.6 29.2 140.95 29.5 140.8 30.6 140.5 Q33.5 139.8 35.0 137.35 L35.05 137.25 35.1 137.15 35.2 137.0 35.4 136.65 35.9 136.8 35.75 136.25 35.65 135.8 35.8 135.35 Q36.1 134.35 35.35 133.95 L35.1 134.0 34.95 133.6 34.95 133.5 34.9 133.6 34.75 133.55 Q32.6 125.05 30.85 116.35 29.45 109.15 28.35 101.8 L28.35 101.75 Q27.15 95.25 26.3 88.6 25.4 81.95 24.95 75.25 M0.15 147.35 L0.8 147.5 Q3.0 148.3 5.5 148.5 L8.4 148.35 10.5 147.95 13.5 146.95 14.8 147.05 14.15 146.95 14.15 146.7 15.8 146.2 20.9 145.2 21.0 145.15 22.05 144.9 Q23.9 144.3 25.05 142.8 L25.5 142.4 28.65 141.1 28.8 141.05 29.0 141.45 29.25 142.1 29.2 142.1 29.15 142.05 28.9 141.95 28.8 142.2 Q26.9 142.75 25.3 144.15 24.1 145.2 22.55 145.7 L21.4 146.1 21.1 146.2 21.05 145.95 21.0 145.7 17.2 146.75 15.95 147.2 15.9 147.2 15.6 147.15 14.9 147.35 14.55 147.45 Q12.35 148.65 9.95 148.95 L9.7 148.85 9.55 149.1 8.6 149.3 Q6.4 149.75 4.15 149.35 L4.0 149.35 2.75 148.8 0.85 148.55 -3.75 148.45 -5.2 148.65 -6.75 148.8 -9.9 148.7 -10.55 148.65 Q-11.1 148.55 -11.25 148.3 L-11.35 148.3 -11.4 148.35 -11.65 148.25 -11.75 148.15 -11.55 147.75 -11.8 148.15 -13.5 147.8 -14.1 147.5 Q-15.75 146.9 -17.15 145.95 L-18.25 144.9 -19.1 144.25 -20.6 143.2 -20.55 143.1 -23.35 140.85 Q-24.75 139.7 -26.25 138.8 L-27.15 138.15 -27.25 138.0 -26.95 137.15 -25.9 138.0 -24.75 138.85 -22.45 140.65 -20.2 142.4 -18.9 143.3 -17.95 144.1 -16.6 145.1 Q-14.65 146.55 -12.4 147.25 L-12.0 147.35 -11.4 147.4 -10.1 147.45 -5.95 147.2 Q-3.05 146.8 -0.1 147.3 L0.1 147.35 0.15 147.35 M-31.25 -5.2 L-29.85 -5.05 Q-28.6 -5.55 -28.65 -7.05 -32.55 -17.45 -37.35 -27.4 L-38.35 -23.4 -39.4 -19.0 Q-41.15 -11.1 -41.75 -2.65 L-42.35 4.15 -43.1 10.05 -43.7 14.0 Q-43.8 16.6 -44.45 19.35 -45.15 22.05 -43.2 24.25 -38.6 27.9 -33.7 31.05 -29.4 33.75 -25.25 36.95 L-24.2 37.8 Q-23.55 37.9 -23.35 37.2 L-22.95 36.05 Q-22.6 35.25 -21.7 34.55 -20.85 33.8 -20.8 32.95 L-22.3 32.4 Q-26.25 30.9 -30.0 29.2 L-25.45 29.65 -21.45 30.9 Q-21.25 30.9 -21.1 31.05 -19.6 32.0 -19.1 30.75 L-18.15 28.6 -17.55 27.5 -17.1 27.0 -15.8 25.85 Q-14.3 24.75 -14.05 23.05 L-14.35 23.05 -16.05 22.9 Q-18.2 22.7 -20.2 21.95 L-14.8 21.85 -13.9 21.8 Q-12.7 19.65 -11.9 17.3 L-12.4 17.4 -19.05 17.25 -23.85 16.85 -28.75 16.6 Q-30.25 16.25 -31.25 16.95 L-31.95 17.65 -32.45 18.15 -34.6 19.95 Q-35.2 20.4 -35.7 20.15 L-35.55 20.0 -33.35 17.55 -31.85 16.15 -31.75 16.1 -31.7 16.05 -30.8 15.65 -30.45 15.55 -30.65 15.3 Q-31.9 13.9 -31.95 12.15 -31.55 11.0 -30.65 10.2 -31.1 7.4 -30.55 4.7 -30.1 2.1 -30.2 -0.4 L-31.2 -0.3 -34.6 0.0 Q-32.95 -0.7 -31.0 -1.0 -29.85 -1.1 -29.7 -2.0 L-29.65 -2.2 -29.65 -2.7 -29.55 -4.25 -31.2 -4.55 -33.3 -5.15 -31.25 -5.2 M-38.65 21.15 L-39.25 21.7 -40.7 22.35 -39.45 20.9 -38.85 20.7 -38.05 20.65 -38.65 21.15 M-33.65 14.5 L-38.75 14.15 Q-37.65 13.4 -36.05 13.5 -34.5 13.55 -33.65 14.5 M-29.35 10.6 Q-30.9 11.65 -30.25 13.05 -29.55 14.45 -29.2 15.7 L-25.35 15.35 Q-25.4 11.25 -25.8 6.95 -26.1 0.35 -28.1 -5.5 L-29.35 10.6 M-31.05 34.7 L-31.2 34.6 -33.75 32.85 Q-32.45 51.3 -33.2 70.0 L-33.15 70.05 -33.2 70.1 -33.3 70.65 -33.25 71.0 -33.0 71.45 -33.3 71.35 -33.5 72.7 -33.7 74.15 -34.0 76.5 -34.05 76.85 -34.0 76.9 -34.15 77.45 -34.15 77.85 -34.05 78.2 -34.25 78.1 -34.35 78.8 -34.5 79.65 -34.7 80.9 -34.65 80.95 -34.7 81.45 -34.75 81.6 -34.75 82.0 -34.7 82.1 -34.9 82.8 -35.25 83.9 -35.45 84.75 -36.4 88.55 -33.1 90.7 Q-31.0 91.85 -28.65 92.5 L-25.2 93.15 Q-24.85 90.15 -24.8 87.0 L-24.75 85.8 -25.15 85.75 -25.0 85.7 Q-24.6 85.2 -24.75 84.65 L-24.8 84.45 -24.85 84.35 -24.9 84.3 -24.75 81.55 -24.95 81.3 Q-24.55 81.05 -24.75 80.5 L-24.75 80.45 -24.55 78.85 -24.45 75.25 -24.5 74.1 -24.5 73.8 -24.6 73.8 -24.4 73.7 Q-24.1 73.45 -24.2 73.05 L-24.25 72.85 Q-24.2 68.85 -23.7 65.1 -23.15 61.35 -23.05 57.4 L-22.6 40.95 -25.4 38.75 -31.05 34.7 M-27.6 85.1 L-28.55 84.85 -27.85 85.05 -27.6 85.1 M-30.65 136.15 L-30.6 135.15 -30.35 135.15 -29.6 135.5 -28.05 136.4 -27.75 136.65 -27.95 137.35 -30.15 136.4 -30.65 136.15" fill="#000000" fill-rule="evenodd" stroke="none"/>
    <path d="M21.85 -43.4 L23.1 -42.65 21.15 -41.1 18.2 -38.45 15.4 -35.65 12.0 -37.55 13.15 -38.85 16.2 -41.85 16.6 -42.05 Q17.9 -42.7 19.35 -43.0 L21.85 -43.4 M19.95 -32.7 L22.1 -34.8 24.4 -37.35 24.85 -37.7 Q25.55 -38.1 25.55 -38.9 L25.75 -39.05 25.95 -39.2 26.1 -39.3 26.55 -39.3 28.65 -39.1 Q28.7 -38.95 28.85 -38.95 L29.9 -38.8 30.4 -38.4 Q26.9 -35.6 24.15 -32.0 L23.85 -31.65 23.15 -30.8 22.35 -31.45 19.95 -32.7 M22.25 -29.6 Q19.8 -26.65 17.95 -23.25 L17.75 -22.8 Q17.0 -21.45 16.95 -20.0 14.55 -21.35 12.25 -22.85 L12.6 -23.35 15.45 -27.1 18.55 -30.4 20.95 -30.15 22.25 -29.6 M3.6 -29.35 L6.4 -32.3 9.55 -35.45 9.85 -35.6 11.6 -35.8 13.65 -35.4 14.85 -35.05 15.0 -34.8 13.65 -33.95 13.4 -33.7 7.5 -26.5 7.35 -26.3 3.6 -29.35 M12.7 18.9 L12.6 18.85 Q10.95 19.0 10.0 20.55 9.4 21.65 9.6 22.4 -1.4 22.95 -12.3 22.0 L-12.3 21.85 -9.05 20.95 Q-8.4 21.65 -7.5 21.2 -7.05 21.0 -6.9 20.45 L-6.95 20.25 Q-8.0 18.0 -10.65 18.35 L-11.35 18.6 Q-10.65 17.5 -9.4 16.6 -4.85 15.05 -0.8 17.7 2.25 15.9 6.2 15.45 10.1 14.9 12.6 18.3 L12.7 18.9 M15.0 28.3 Q9.45 28.75 3.45 28.5 L-1.2 28.4 -1.3 28.4 -10.4 28.85 -12.15 28.75 -12.0 28.75 -11.35 28.55 Q-7.4 27.15 -10.2 24.5 L-11.4 24.4 -13.15 24.15 -12.45 23.25 -10.7 23.45 11.85 23.25 Q11.7 25.9 14.3 26.95 L15.0 28.3 M20.75 34.6 L21.15 34.9 20.65 34.8 20.75 34.6 M2.85 65.1 L2.1 66.2 Q0.55 65.85 -0.35 64.5 L-0.2 64.75 2.85 65.1 M-15.25 46.3 Q-18.65 42.6 -22.6 39.15 L-22.45 39.2 -13.6 41.55 -11.75 42.5 Q-10.5 43.05 -9.15 42.9 -5.85 42.6 -6.9 39.35 -7.4 37.85 -8.95 37.35 L-11.35 36.5 Q-0.9 39.75 10.3 41.45 L10.55 41.1 Q7.75 40.15 4.6 39.6 L-8.85 35.25 -8.6 35.15 -7.95 34.3 Q-7.05 32.85 -8.3 31.75 -9.8 30.35 -11.7 29.7 L-14.75 28.7 -13.85 28.8 -12.7 28.85 -12.45 29.2 -9.2 29.6 -8.1 29.75 -7.05 29.85 Q4.3 31.05 15.8 30.3 L15.7 30.9 Q14.35 31.8 12.85 32.35 8.9 33.8 9.5 37.75 9.7 39.3 11.15 39.9 L14.7 41.05 10.1 43.85 Q5.25 47.15 2.6 52.25 1.0 55.4 1.9 58.85 -0.1 58.1 -1.5 56.6 -4.85 53.0 -8.7 49.95 L-12.15 46.95 Q-13.2 45.95 -14.6 46.15 L-15.25 46.3 M29.4 48.55 L31.85 47.75 31.95 48.55 31.85 49.05 31.7 49.05 31.55 49.1 31.45 49.1 31.3 49.15 30.6 49.3 Q28.15 49.85 26.2 51.3 L26.1 51.3 Q26.0 50.85 26.15 50.35 L26.2 50.0 Q26.15 49.5 26.25 49.15 L26.5 49.4 29.4 48.55 M32.65 53.0 L32.7 53.25 32.75 54.0 32.75 53.9 Q33.3 54.2 33.25 54.9 L32.95 54.85 32.6 54.9 32.55 54.95 31.4 55.4 30.8 55.55 Q29.35 56.4 27.55 57.05 26.9 57.3 26.5 57.75 26.1 57.55 26.2 56.9 26.2 56.6 26.35 56.45 L26.3 54.95 30.65 53.65 30.85 53.6 32.65 53.0 M33.6 56.0 L33.75 56.45 33.75 56.9 33.7 56.95 33.55 57.3 33.9 58.35 32.15 59.1 32.05 59.15 30.3 60.05 26.5 62.05 26.35 62.0 26.75 61.1 Q26.4 60.95 26.25 60.45 L26.25 60.0 Q29.35 58.6 32.15 56.85 L32.35 56.7 33.1 56.15 33.2 56.15 33.25 56.1 33.6 56.0 M-31.2 34.6 L-31.15 34.85 -31.0 36.15 -30.85 37.4 -30.8 38.55 -30.75 40.4 Q-30.6 45.85 -30.85 51.3 -31.15 56.7 -31.75 62.05 L-32.75 70.3 Q-30.85 71.65 -28.7 72.3 L-26.8 72.7 -24.55 72.85 -24.25 72.85 -24.2 73.05 Q-24.1 73.45 -24.4 73.7 L-24.6 73.8 -24.5 73.8 -24.5 74.1 -24.45 75.25 -25.75 74.95 -28.6 74.4 -29.75 74.15 Q-31.7 73.65 -33.5 72.7 L-33.3 71.35 -33.0 71.45 -33.25 71.0 -33.3 70.65 -33.2 70.1 -33.15 70.05 -33.2 70.0 Q-32.45 51.3 -33.75 32.85 L-31.2 34.6 M-33.7 74.15 L-33.65 74.15 -33.7 74.15 M-28.9 78.0 L-27.55 78.2 -24.55 78.85 -24.75 80.45 -24.75 80.5 Q-24.55 81.05 -24.95 81.3 L-25.3 81.2 -28.75 80.55 Q-30.5 80.0 -32.1 79.25 L-32.15 79.25 -32.15 79.45 -34.35 78.8 -34.25 78.1 -34.05 78.2 -34.15 77.85 -34.15 77.45 -34.0 76.9 -34.05 76.85 -34.0 76.5 Q-33.1 76.55 -32.2 77.05 -30.85 77.8 -29.3 77.95 L-28.9 78.0 M-31.4 72.3 L-31.95 72.05 -31.4 72.3 M-34.75 81.6 L-33.5 82.2 -32.3 82.55 -28.65 84.0 -24.95 84.6 -24.9 84.6 -24.75 84.65 Q-24.6 85.2 -25.0 85.7 L-25.15 85.75 -24.75 85.8 -24.8 87.0 -27.55 86.2 -29.0 85.85 -32.1 85.0 -34.3 84.3 -35.25 83.9 -34.9 82.8 -34.7 82.1 -34.75 82.0 -34.75 81.6 M-27.6 85.1 L-27.85 85.05 -28.55 84.85 -27.6 85.1 M-33.2 82.9 L-33.3 82.85 -33.55 82.75 -33.8 82.6 -33.3 82.9 -33.2 82.95 -33.15 82.9 -33.2 82.9" fill="#6f006f" fill-rule="evenodd" stroke="none"/>
    <path d="M12.0 -37.55 L10.1 -38.15 Q12.0 -40.75 14.65 -42.8 17.2 -44.85 20.45 -43.85 L21.85 -43.4 19.35 -43.0 Q17.9 -42.7 16.6 -42.05 L16.2 -41.85 13.15 -38.85 12.0 -37.55 M29.9 -38.8 L28.85 -38.95 Q28.7 -38.95 28.65 -39.1 L26.55 -39.3 26.1 -39.3 25.95 -39.2 25.75 -39.05 25.55 -38.9 Q25.55 -38.1 24.85 -37.7 L24.4 -37.35 22.1 -34.8 19.95 -32.7 19.15 -33.15 25.75 -40.5 26.4 -40.35 26.6 -40.35 26.9 -40.3 27.15 -40.25 27.6 -40.1 29.15 -39.35 29.9 -38.8 M22.5 -29.9 L22.25 -29.6 20.95 -30.15 18.55 -30.4 15.45 -27.1 12.6 -23.35 12.25 -22.85 10.2 -24.2 10.75 -24.8 10.95 -25.1 11.0 -25.1 Q12.85 -26.75 14.35 -28.7 15.85 -30.7 17.95 -32.2 L20.0 -31.8 19.75 -31.55 19.9 -31.6 20.95 -31.4 21.05 -31.4 21.7 -30.95 22.75 -30.2 22.5 -29.9 M3.6 -29.35 L2.75 -30.15 6.1 -33.75 Q7.5 -35.75 9.5 -37.4 L10.35 -37.2 10.85 -37.1 Q13.05 -36.55 14.85 -35.05 L13.65 -35.4 11.6 -35.8 9.85 -35.6 9.65 -35.55 9.55 -35.45 6.4 -32.3 3.6 -29.35 M-12.3 22.0 Q-1.4 22.95 9.6 22.4 L13.15 22.2 13.5 21.85 13.45 21.8 Q13.6 21.8 13.75 22.0 L14.55 23.3 14.4 23.25 11.85 23.25 -10.7 23.45 -11.55 23.35 -11.9 23.15 Q-12.4 22.85 -12.35 22.25 L-12.3 22.0 M-1.2 28.4 L0.5 28.5 4.5 28.55 Q8.75 28.7 12.8 28.5 L14.65 28.4 14.7 28.35 17.05 28.15 17.35 29.1 17.2 30.2 16.85 30.2 15.8 30.3 Q4.3 31.05 -7.05 29.85 L-8.1 29.75 -9.2 29.6 -12.45 29.2 -12.7 28.85 -12.15 28.75 -10.4 28.85 -1.3 28.4 -1.2 28.4 M-18.7 33.95 L-18.8 33.6 Q-18.95 32.75 -18.3 32.25 L-18.2 32.15 -8.85 35.25 4.6 39.6 Q7.75 40.15 10.55 41.1 L10.3 41.45 Q-0.9 39.75 -11.35 36.5 L-18.7 33.95 M32.7 53.25 L32.65 53.0 32.7 53.25 M26.35 62.0 L26.5 62.05 26.35 62.15 26.35 62.0 M26.1 51.3 L26.2 51.3 26.1 51.35 26.1 51.3 M-30.9 134.45 L-30.75 134.3 -30.55 134.3 -30.9 134.45 M-24.85 84.35 L-24.8 84.45 -24.75 84.65 -24.9 84.6 -24.9 84.35 -24.85 84.35" fill="#7300aa" fill-rule="evenodd" stroke="none"/>
    <path d="M29.9 -38.8 L29.95 -38.8 29.9 -38.8" fill="#6666cc" fill-rule="evenodd" stroke="none"/>
    <path d="M23.1 -42.65 L24.35 -41.0 24.5 -40.8 17.6 -33.75 15.65 -35.45 15.4 -35.65 18.2 -38.45 21.15 -41.1 23.1 -42.65 M23.15 -30.8 L23.85 -31.65 24.15 -32.0 Q26.9 -35.6 30.4 -38.4 L31.6 -36.65 Q27.8 -33.3 25.15 -29.3 L25.0 -29.35 Q24.25 -29.85 23.45 -30.5 L23.15 -30.8 M22.25 -29.6 L22.5 -29.9 22.75 -30.2 22.95 -30.05 24.05 -28.8 24.2 -28.6 21.0 -22.05 20.2 -20.1 Q19.8 -19.1 18.95 -18.95 L16.95 -20.0 Q17.0 -21.45 17.75 -22.8 L17.95 -23.25 Q19.8 -26.65 22.25 -29.6 M10.95 -25.1 L10.75 -24.8 10.2 -24.2 7.35 -26.25 7.5 -26.5 13.4 -33.7 13.65 -33.95 15.0 -34.8 15.05 -34.85 15.5 -34.5 16.6 -33.2 16.65 -33.05 Q14.65 -30.1 12.25 -27.1 L10.8 -25.3 10.95 -25.15 10.95 -25.1 M9.6 22.4 Q9.4 21.65 10.0 20.55 10.95 19.0 12.6 18.85 L12.7 18.9 13.45 21.8 13.5 21.85 13.15 22.2 9.6 22.4 M-11.35 18.6 L-10.65 18.35 Q-8.0 18.0 -6.95 20.25 L-6.9 20.45 Q-7.05 21.0 -7.5 21.2 -8.4 21.65 -9.05 20.95 L-12.3 21.85 Q-12.3 20.05 -11.35 18.6 M14.55 23.3 Q17.2 25.0 17.2 28.1 L15.0 28.3 14.3 26.95 Q11.7 25.9 11.85 23.25 L14.4 23.25 14.55 23.3 M17.2 30.2 L17.65 30.15 Q18.4 32.8 20.75 34.6 L20.65 34.8 21.15 34.9 21.35 35.05 Q24.2 36.95 23.9 40.55 20.85 43.3 18.0 46.2 L14.2 50.2 13.85 50.6 3.25 64.4 3.05 64.8 2.85 65.1 -0.2 64.75 -0.35 64.5 -0.6 64.25 Q-1.5 62.65 -2.65 61.25 L-12.2 50.0 -15.25 46.3 -14.6 46.15 Q-13.2 45.95 -12.15 46.95 L-8.7 49.95 Q-4.85 53.0 -1.5 56.6 -0.1 58.1 1.9 58.85 1.0 55.4 2.6 52.25 5.25 47.15 10.1 43.85 L14.7 41.05 11.15 39.9 Q9.7 39.3 9.5 37.75 8.9 33.8 12.85 32.35 14.35 31.8 15.7 30.9 L15.8 30.3 16.85 30.2 17.2 30.2 M-22.6 39.15 Q-22.95 37.45 -21.95 36.1 L-19.6 33.65 -18.7 33.95 -11.35 36.5 -8.95 37.35 Q-7.4 37.85 -6.9 39.35 -5.85 42.6 -9.15 42.9 -10.5 43.05 -11.75 42.5 L-13.6 41.55 -22.45 39.2 -22.6 39.15 M-18.2 32.15 L-18.25 32.15 Q-18.15 29.9 -16.8 28.2 L-16.05 27.4 -13.15 24.15 -11.4 24.4 -10.2 24.5 Q-7.4 27.15 -11.35 28.55 L-12.0 28.75 -12.15 28.75 -12.7 28.85 -13.85 28.8 -14.75 28.7 -11.7 29.7 Q-9.8 30.35 -8.3 31.75 -7.05 32.85 -7.95 34.3 L-8.6 35.15 -8.85 35.25 -18.2 32.15 M28.7 38.75 Q28.55 43.8 29.4 48.55 L26.5 49.4 26.25 49.15 26.2 49.1 Q26.15 45.85 26.35 42.8 L26.5 40.8 26.7 40.5 26.7 40.4 Q27.65 39.55 28.7 38.75 M30.85 53.6 L30.65 53.65 26.3 54.95 26.2 52.05 27.25 51.6 29.65 50.65 30.1 50.55 30.8 53.5 30.85 53.6 M32.15 56.85 Q29.35 58.6 26.25 60.0 L26.2 60.0 Q26.0 59.15 26.15 58.6 L26.4 58.5 28.8 57.3 29.6 56.9 31.4 56.1 Q31.5 56.7 32.15 56.85 M33.4 63.35 Q29.75 65.15 26.5 67.85 L26.3 63.45 26.35 63.85 27.0 63.4 28.85 62.2 30.55 61.25 32.35 60.3 33.2 62.8 33.4 63.35 M-31.15 34.85 L-31.05 34.7 -25.4 38.75 Q-25.5 43.55 -26.25 48.45 -28.0 60.25 -28.7 72.3 -30.85 71.65 -32.75 70.3 L-31.75 62.05 Q-31.15 56.7 -30.85 51.3 -30.6 45.85 -30.75 40.4 L-30.8 38.55 -30.85 37.4 -31.0 36.15 -31.15 34.85 M-24.45 75.25 L-24.5 74.1 -24.45 75.25 M-33.7 74.15 L-33.65 74.15 -30.25 75.15 -29.75 75.3 -28.7 75.65 -28.9 78.0 -29.3 77.95 Q-30.85 77.8 -32.2 77.05 -33.1 76.55 -34.0 76.5 L-33.7 74.15 M-34.5 79.65 L-33.65 79.8 -33.55 79.85 Q-31.5 80.9 -29.25 81.6 L-28.95 81.7 -29.0 81.75 Q-29.25 83.05 -28.65 84.0 L-32.3 82.55 -33.5 82.2 -34.75 81.6 -34.7 81.45 -34.65 80.95 -34.7 80.9 -34.5 79.65 M-35.45 84.75 L-35.1 84.9 -30.55 86.75 -29.05 87.25 Q-29.05 89.9 -28.65 92.5 -31.0 91.85 -33.1 90.7 L-36.4 88.55 -35.45 84.75" fill="#5b005b" fill-rule="evenodd" stroke="none"/>
    <path d="M22.5 -29.9 L22.25 -29.6 22.5 -29.9 M20.95 -31.4 L19.9 -31.6 19.75 -31.55 20.0 -31.8 20.95 -31.4 M25.35 -18.05 Q24.7 -19.3 24.8 -20.8 L24.85 -21.4 Q25.85 -26.0 28.6 -29.75 L30.3 -31.65 34.6 -35.05 34.3 -35.25 35.05 -34.75 Q36.8 -29.05 37.2 -22.75 37.6 -16.5 38.45 -10.4 39.8 3.25 41.5 17.1 41.8 18.8 41.7 20.8 L41.7 21.4 41.6 21.5 40.6 23.7 Q39.4 25.8 37.65 27.45 L36.35 28.6 25.85 35.95 Q24.7 33.15 22.15 31.7 L22.05 31.55 21.9 31.15 21.85 31.05 22.25 30.0 22.5 29.5 Q25.2 29.05 27.7 28.1 27.7 27.65 27.25 27.55 L22.45 28.05 Q21.85 26.6 20.1 27.3 19.25 26.85 18.65 26.05 L18.4 25.7 17.3 23.85 16.5 22.8 17.2 22.8 Q18.0 22.9 18.55 22.25 L15.95 22.0 14.9 20.2 14.55 18.35 14.2 17.55 16.6 17.95 16.15 20.05 29.8 19.9 26.2 17.7 29.5 17.95 Q32.3 18.65 34.8 19.85 L34.85 19.85 37.6 21.25 38.7 22.25 39.55 21.6 36.45 17.8 Q34.8 15.85 32.6 15.1 L32.05 13.2 33.2 7.4 35.4 7.45 35.4 7.25 32.9 6.95 31.75 5.5 31.65 3.15 32.25 1.95 35.4 1.55 32.3 1.45 29.45 -15.55 28.15 2.25 28.7 2.35 Q28.35 2.45 28.05 2.7 26.7 -3.5 26.5 -9.75 27.65 -12.05 27.45 -15.05 27.25 -17.45 27.75 -19.55 L29.8 -19.25 29.95 -25.35 27.55 -19.8 26.25 -16.7 25.85 -17.3 25.45 -17.9 25.7 -17.9 26.15 -20.85 Q24.95 -19.75 25.35 -18.05 M25.1 39.35 L24.95 39.5 24.8 38.5 24.95 39.3 25.1 39.35 M9.55 -35.45 L9.65 -35.55 9.55 -35.45 M15.05 -34.85 L15.5 -34.5 15.05 -34.85 M7.5 -26.5 L7.35 -26.25 7.35 -26.3 7.5 -26.5 M2.0 -28.45 L1.9 -28.45 1.7 -28.4 2.75 -27.4 4.05 -25.85 4.0 -25.55 2.25 -25.5 Q0.75 -25.7 -0.75 -26.4 L-1.85 -27.0 -2.5 -27.4 -3.05 -27.45 Q5.45 -20.3 14.8 -14.8 L17.65 -13.2 18.2 -12.85 17.85 -13.1 Q18.8 -13.95 20.15 -14.4 20.65 -14.5 20.95 -14.8 L20.65 -16.25 21.15 -16.05 22.7 -15.4 25.35 -14.35 26.5 -13.85 Q26.5 -12.75 25.75 -11.8 L25.7 -11.7 24.4 -11.75 23.45 -11.45 22.75 -10.75 Q21.5 -8.85 23.55 -7.75 24.05 -7.55 24.05 -7.0 L24.0 -5.45 Q23.95 -3.25 22.0 -2.45 L21.3 -1.85 Q20.15 0.15 21.85 1.95 22.2 3.9 22.1 5.85 21.85 9.75 21.25 13.65 21.05 15.0 21.25 16.35 L18.85 16.5 Q18.9 14.85 19.3 13.3 20.7 8.3 19.65 3.2 L19.4 3.0 19.35 2.9 Q17.25 2.05 15.4 0.9 12.25 -1.1 9.75 -4.0 L9.65 -4.15 Q8.95 -5.05 8.95 -6.2 L9.05 -6.75 Q9.25 -8.0 10.4 -8.55 L10.6 -8.6 10.95 -8.35 Q7.4 -11.25 4.4 -14.8 L11.85 -8.9 Q13.0 -8.9 13.95 -7.85 L15.35 -6.5 17.95 -4.8 Q19.7 -3.9 21.45 -3.4 L21.95 -6.65 Q19.1 -8.2 16.4 -9.9 13.75 -11.55 11.25 -13.35 9.25 -14.75 7.7 -16.65 L6.95 -17.6 6.6 -18.25 6.2 -18.55 6.05 -18.65 5.8 -18.8 Q2.55 -21.0 -0.35 -23.7 -3.1 -26.2 -5.5 -29.05 L-5.95 -29.5 -6.3 -29.85 -6.7 -30.35 -7.05 -30.9 -7.1 -30.95 -7.35 -31.3 -7.15 -31.1 -7.25 -31.4 Q-5.35 -31.7 -3.95 -33.4 L-3.5 -33.5 Q-0.9 -30.9 2.0 -28.45 M7.85 -19.25 L8.8 -18.7 9.4 -18.2 7.7 -19.3 7.85 -19.25 M31.9 -20.4 Q30.1 -19.15 28.7 -17.3 28.2 -16.25 29.15 -15.6 L31.9 -20.4 M-7.25 -5.0 L-5.65 -5.05 -1.9 -4.5 2.45 -3.2 Q5.1 -2.2 7.55 -0.75 L7.7 -0.65 8.7 -0.05 10.3 1.05 10.3 1.15 11.3 2.55 8.6 1.85 5.8 0.85 5.45 0.75 3.45 0.3 -0.15 -0.05 Q-6.05 -1.45 -11.8 -1.2 L-13.3 -0.8 Q-14.75 -0.7 -15.25 -1.65 L-15.35 -2.35 Q-14.6 -3.4 -13.35 -3.85 -10.45 -4.85 -7.25 -5.0 M4.15 4.3 L4.85 4.5 4.75 5.05 4.4 5.1 3.65 5.25 2.85 5.45 -1.0 6.65 Q-3.3 7.5 -5.7 8.0 -8.6 8.6 -11.4 9.55 L-12.5 9.85 -12.8 9.95 Q-13.55 8.6 -12.5 7.25 L-11.6 6.55 Q-7.25 4.85 -2.55 4.25 L2.95 4.0 4.15 4.3 M-8.05 -6.15 L-9.3 -5.55 Q-13.3 -5.85 -11.4 -9.1 L-10.9 -9.85 Q-7.95 -14.05 -4.15 -17.7 L-3.15 -17.8 -3.15 -17.85 Q-1.85 -17.2 -1.1 -16.35 0.4 -14.5 -0.45 -11.45 -1.5 -7.7 -5.6 -6.9 L-6.2 -6.7 -6.3 -6.7 -7.8 -6.2 -8.05 -6.15 M-37.4 -30.75 L-38.5 -33.5 -35.85 -34.65 Q-33.15 -35.6 -30.8 -37.45 -27.55 -39.95 -23.8 -41.05 L-23.65 -41.1 -20.3 -42.1 -20.1 -42.1 Q-21.55 -41.55 -21.65 -39.85 L-21.65 -39.45 Q-22.8 -39.0 -23.0 -37.55 -23.2 -36.15 -22.2 -35.15 -21.25 -34.25 -20.05 -34.6 L-25.45 -27.15 -25.45 -27.1 -26.15 -26.2 -25.9 -25.85 -25.75 -25.5 -25.5 -25.2 -25.35 -24.9 -25.25 -24.6 -25.0 -24.2 -24.9 -23.95 -24.75 -23.7 -24.6 -23.4 -24.45 -23.1 -24.35 -22.8 -24.25 -22.5 -23.85 -21.4 -23.75 -21.2 -23.7 -20.95 -23.55 -20.6 -23.5 -20.35 -23.45 -20.2 -23.35 -19.9 -23.35 -19.75 Q-22.6 -16.7 -22.75 -13.45 -22.8 -11.9 -23.1 -10.35 L-24.1 -10.35 -24.9 -12.45 Q-24.5 -10.2 -24.4 -7.8 -26.0 -14.45 -28.95 -20.55 -31.45 -25.8 -32.85 -31.4 L-37.4 -30.75 M26.5 40.8 L26.5 40.65 26.7 40.5 26.5 40.8 M8.8 63.2 L10.25 61.15 Q10.75 60.35 11.35 59.65 L13.7 57.45 Q15.75 54.45 18.25 51.8 19.75 50.25 21.5 50.65 L22.7 52.65 23.0 53.5 Q23.25 54.6 24.05 55.5 L24.2 55.65 Q24.15 65.5 24.95 75.25 L24.65 76.85 Q23.75 82.8 24.0 88.9 24.1 90.95 24.55 92.85 25.25 95.55 25.3 98.4 25.4 103.8 26.55 108.95 28.9 119.35 32.15 129.6 L32.65 131.5 30.15 125.1 28.3 120.1 Q25.5 112.45 23.65 104.6 21.85 96.55 22.05 88.1 L21.95 85.25 21.65 80.9 21.1 72.15 21.0 69.45 20.9 63.2 20.8 55.75 20.8 54.95 Q18.65 55.5 16.4 57.3 L14.75 58.55 13.85 64.4 13.15 67.6 12.5 70.3 11.2 74.55 10.3 75.0 9.95 75.2 9.35 74.85 9.2 74.75 10.0 62.25 8.8 63.2 M3.25 66.35 L3.35 66.45 3.85 66.45 3.15 66.45 3.25 66.35 M-19.2 46.9 L-19.15 46.65 -18.15 47.5 -17.05 48.2 -17.05 48.65 -16.7 53.6 -16.7 53.65 -16.35 58.85 -15.6 69.2 -15.3 73.6 -14.95 78.05 -16.0 74.95 -16.7 73.1 Q-19.85 63.6 -19.7 53.75 -19.65 50.35 -19.2 46.9 M-20.1 113.2 L-20.4 117.05 -21.05 124.8 Q-14.9 117.05 -10.7 108.3 -8.5 103.65 -5.65 99.45 L-5.3 100.25 Q-4.4 102.5 -4.8 105.15 L-4.85 105.4 -5.15 106.8 Q-5.45 108.0 -6.05 109.3 L-16.75 134.2 -19.7 141.15 -20.4 140.6 -21.1 139.85 -21.9 139.0 -23.1 137.45 Q-24.55 136.05 -26.3 135.15 -24.2 127.75 -24.5 119.85 -25.3 127.4 -27.25 134.75 L-30.55 134.3 -30.55 133.55 Q-28.35 123.95 -27.0 114.2 L-26.4 110.05 -25.65 109.65 -26.1 126.75 -25.55 123.25 Q-24.55 116.7 -24.3 110.2 L-23.4 111.15 -23.35 111.7 -22.65 98.3 -23.35 101.55 -23.9 103.85 -23.75 101.8 -23.7 101.75 -23.7 101.6 -23.7 101.3 Q-23.0 92.05 -22.9 82.3 -22.9 72.45 -21.7 63.15 L-21.65 61.1 Q-20.0 62.6 -19.55 65.45 -18.55 71.45 -19.05 77.5 L-19.45 80.45 Q-20.7 88.9 -22.4 97.35 -20.35 102.8 -20.1 109.15 L-20.1 113.2 M0.95 93.2 L1.05 92.0 Q1.25 88.8 4.0 87.45 11.15 87.0 14.3 93.55 L17.35 100.6 18.05 104.55 18.05 104.6 20.3 117.8 Q20.45 118.85 20.75 119.9 L16.2 113.2 13.65 109.6 Q13.35 108.1 12.6 106.7 10.55 102.6 9.4 98.3 8.15 93.35 2.85 93.7 L2.85 93.75 2.4 93.95 2.35 93.95 2.1 94.1 0.5 95.5 0.55 95.3 0.95 93.2 M-9.0 92.35 L-9.3 94.4 Q-9.65 96.35 -10.8 97.9 -11.65 99.1 -12.15 100.55 -12.75 102.35 -14.2 103.5 -14.9 104.05 -15.55 103.3 -16.3 102.55 -16.15 101.55 L-15.9 100.6 Q-14.95 98.3 -14.95 95.65 L-14.85 92.8 -14.7 91.5 Q-14.3 88.35 -12.95 85.5 L-12.4 84.8 Q-11.7 81.35 -10.55 78.1 L-10.3 77.75 -9.65 77.85 -9.4 78.05 -9.25 78.3 Q-9.55 82.3 -9.1 86.3 -8.7 89.35 -9.0 92.35 M-11.1 134.6 Q-8.15 132.45 -3.95 132.0 1.3 131.3 4.7 134.9 L5.15 135.65 4.5 136.45 3.5 137.25 2.9 137.6 Q-4.55 135.35 -11.45 137.95 L-13.9 139.05 -14.75 138.6 Q-13.3 136.15 -11.1 134.6 M-7.9 146.05 L-6.6 145.2 -6.3 145.15 -4.05 145.55 -5.45 145.75 -7.9 146.05 M-27.25 138.0 L-27.15 138.15 -26.25 138.8 Q-24.75 139.7 -23.35 140.85 L-20.55 143.1 -22.3 147.2 -24.05 145.65 -24.95 144.6 Q-25.9 143.1 -27.45 142.4 -28.15 142.05 -28.8 141.85 L-27.25 138.0 M35.45 136.45 L35.5 136.3 35.65 135.8 35.75 136.25 35.9 136.8 35.4 136.65 35.2 137.0 35.4 136.6 35.45 136.45 M36.05 137.85 L36.0 137.8 36.05 137.7 36.05 137.85 M-26.25 156.2 L-33.2 151.5 -31.7 148.1 -33.55 150.85 -34.55 146.3 -32.9 143.9 -32.05 143.1 -31.25 143.15 -30.5 143.4 -28.5 143.75 -28.4 144.05 -27.05 146.45 -26.5 147.5 Q-25.5 149.4 -23.9 150.85 L-23.95 150.9 -26.25 156.2 M12.45 156.3 L14.05 156.15 13.3 156.25 11.9 156.5 12.45 156.3 M5.1 157.55 L5.6 157.35 6.15 157.2 6.3 157.45 6.35 157.5 5.1 157.55 M-32.3 -31.5 L-32.5 -32.1 -32.3 -31.5 M-28.5 -22.7 L-29.0 -24.6 -29.6 -24.95 -28.5 -22.7 M-37.8 -22.0 L-39.75 1.25 Q-38.9 1.35 -38.1 0.6 -36.75 -0.85 -37.05 -2.7 -37.95 -8.4 -36.6 -14.25 L-36.1 -16.95 -35.75 -18.7 Q-35.05 -21.1 -37.3 -22.1 L-37.8 -22.0 M-38.35 -23.4 L-37.35 -23.25 Q-36.05 -21.75 -35.2 -20.05 -32.3 -14.5 -31.45 -8.35 L-31.25 -5.25 -31.25 -5.2 -33.3 -5.15 -31.2 -4.55 Q-31.0 -3.1 -29.65 -2.7 L-29.65 -2.2 -29.7 -2.0 -30.35 -2.05 -30.4 -2.05 -30.8 -1.6 -31.05 -1.0 -31.0 -1.0 Q-32.95 -0.7 -34.6 0.0 L-31.2 -0.3 -31.4 0.9 Q-31.7 3.6 -31.45 6.4 -31.4 7.15 -31.65 7.8 -31.9 8.65 -32.5 9.45 -33.8 11.3 -33.15 13.4 L-32.45 15.45 -40.05 17.45 -41.6 16.9 Q-43.85 19.0 -42.9 21.95 -42.05 24.6 -39.45 23.8 L-39.25 21.7 -38.65 21.15 -38.4 21.35 -37.5 21.25 Q-36.45 20.75 -35.55 20.0 L-35.7 20.15 Q-35.2 20.4 -34.6 19.95 L-32.45 18.15 Q-31.85 17.9 -31.4 17.5 L-31.25 17.1 -31.25 16.95 Q-30.25 16.25 -28.75 16.6 L-23.85 16.85 -30.15 18.35 -30.4 20.4 -17.8 19.3 -19.05 17.25 -12.4 17.4 -12.75 17.4 -13.0 17.7 Q-13.4 18.35 -13.4 19.15 -14.75 20.25 -15.7 21.75 L-15.75 21.85 -14.8 21.85 -20.2 21.95 Q-18.2 22.7 -16.05 22.9 L-16.05 23.15 Q-15.85 24.75 -16.55 26.15 L-17.1 27.0 -17.55 27.5 -19.05 28.95 -20.35 29.85 -21.45 30.9 -25.45 29.65 -30.0 29.2 Q-26.25 30.9 -22.3 32.4 -22.7 33.4 -22.65 34.6 -23.7 35.95 -25.1 36.8 L-25.25 36.95 Q-29.4 33.75 -33.7 31.05 -38.6 27.9 -43.2 24.25 -45.15 22.05 -44.45 19.35 -43.8 16.6 -43.7 14.0 L-43.1 10.05 Q-42.55 12.7 -39.85 11.6 L-39.55 11.5 Q-38.95 8.75 -38.8 5.95 L-38.65 5.15 Q-38.1 3.6 -38.95 2.4 -39.3 1.85 -40.05 1.85 L-40.75 1.75 -42.35 4.15 -41.75 -2.65 Q-41.15 -11.1 -39.4 -19.0 L-38.35 -23.4 M-3.9 -28.2 L-3.95 -28.3 -4.05 -28.3 -3.9 -28.2 M-30.65 15.3 L-30.45 15.55 -30.8 15.65 -30.7 15.35 -30.65 15.3 M-31.7 16.05 L-31.75 16.1 -31.85 16.05 -31.85 16.15 -31.9 16.0 -31.7 16.05 M-33.65 14.5 Q-34.5 13.55 -36.05 13.5 -37.65 13.4 -38.75 14.15 L-33.65 14.5 M-38.85 20.7 L-39.45 20.9 Q-39.45 19.5 -37.65 18.55 -36.95 18.1 -36.15 17.9 L-36.6 18.05 -36.8 18.2 -38.05 19.2 Q-38.95 19.8 -38.85 20.7 M-31.4 72.3 L-31.95 72.05 -31.4 72.3 M-33.2 82.9 L-33.2 82.95 -33.3 82.9 -33.8 82.6 -33.55 82.75 -33.3 82.85 -33.2 82.9 M-30.65 136.15 L-30.15 136.4 -27.95 137.35 -29.0 140.55 -30.2 140.55 -30.8 139.8 -30.65 136.15" fill="#003366" fill-rule="evenodd" stroke="none"/>
    <path d="M34.3 -35.25 L34.6 -35.05 30.3 -31.65 28.6 -29.75 Q25.85 -26.0 24.85 -21.4 L24.8 -20.8 Q24.7 -19.3 25.35 -18.05 L25.4 -18.0 25.4 -17.9 25.45 -17.9 25.85 -17.3 26.25 -16.7 25.7 -15.55 23.5 -16.4 22.7 -16.8 22.3 -17.0 20.7 -18.05 20.7 -18.1 20.7 -18.15 21.45 -19.8 21.65 -20.0 22.25 -20.8 Q25.85 -29.0 32.35 -35.8 L32.5 -35.8 32.8 -35.75 33.05 -35.7 33.4 -35.6 33.45 -35.6 33.55 -35.55 33.6 -35.55 33.7 -35.5 34.3 -35.25 M41.7 21.4 Q41.7 22.95 42.1 24.3 L42.15 24.45 Q41.85 26.3 40.15 27.2 L25.1 39.35 24.95 39.3 24.8 38.5 Q24.35 36.7 23.05 35.45 L22.95 35.4 22.85 35.35 22.8 35.25 22.55 35.05 22.45 34.95 22.3 34.85 22.15 34.75 Q19.6 33.05 18.7 30.3 L19.25 29.8 22.5 29.5 22.25 30.0 21.85 31.05 21.9 31.15 22.05 31.55 22.15 31.7 Q24.7 33.15 25.85 35.95 L36.35 28.6 37.65 27.45 Q39.4 25.8 40.6 23.7 L41.6 21.5 41.7 21.4 M22.45 28.05 L18.35 28.45 Q17.85 26.25 16.85 24.25 16.1 23.8 15.9 23.05 16.15 22.85 16.5 22.8 L17.3 23.85 18.4 25.7 18.65 26.05 Q19.25 26.85 20.1 27.3 21.85 26.6 22.45 28.05 M15.95 22.0 L15.7 22.05 Q14.0 22.35 13.9 20.4 13.85 18.65 12.8 17.2 L14.2 17.55 14.55 18.35 14.9 20.2 15.95 22.0 M34.85 19.85 L32.0 17.75 33.5 16.4 36.45 17.8 39.55 21.6 38.7 22.25 37.6 21.25 34.85 19.85 M-3.5 -33.5 L-3.95 -33.4 Q-5.35 -31.7 -7.25 -31.4 L-7.15 -31.1 -7.35 -31.3 -7.1 -30.95 -7.05 -30.9 -6.7 -30.35 -6.3 -29.85 -5.95 -29.5 -5.5 -29.05 Q-6.1 -28.0 -7.1 -27.3 -9.1 -25.95 -10.15 -27.9 -11.25 -27.8 -12.4 -29.0 L-12.8 -29.55 -14.35 -29.2 -15.5 -29.0 Q-16.6 -29.2 -17.6 -29.85 -18.6 -30.5 -18.9 -31.6 -20.9 -33.3 -19.35 -35.25 L-19.5 -35.4 -20.05 -34.6 Q-21.25 -34.25 -22.2 -35.15 -23.2 -36.15 -23.0 -37.55 -22.8 -39.0 -21.65 -39.45 L-21.65 -39.85 Q-21.55 -41.55 -20.1 -42.1 L-18.9 -42.0 -18.45 -42.8 -17.6 -43.35 -15.65 -43.05 -15.35 -42.9 Q-11.75 -42.75 -12.5 -39.7 -11.3 -39.1 -11.35 -37.65 L-11.45 -37.0 -10.4 -36.9 Q-9.15 -36.75 -8.6 -35.95 L-7.45 -37.6 -5.6 -35.65 -5.7 -35.5 -5.45 -35.45 -3.5 -33.5 M21.25 16.35 Q21.05 15.0 21.25 13.65 21.85 9.75 22.1 5.85 22.2 3.9 21.85 1.95 20.15 0.15 21.3 -1.85 L22.0 -2.45 Q23.95 -3.25 24.0 -5.45 L24.05 -7.0 Q24.05 -7.55 23.55 -7.75 21.5 -8.85 22.75 -10.75 L23.45 -11.45 24.4 -11.75 25.7 -11.7 Q25.0 -10.75 25.3 -9.4 24.05 -9.0 24.65 -8.0 L25.3 -6.1 Q25.35 -3.5 24.55 -1.25 23.75 1.0 23.8 3.6 L23.1 15.8 22.5 16.15 21.25 16.35 M23.2 -10.7 L23.6 -10.25 23.2 -10.7 M32.4 15.8 L32.0 16.45 31.75 16.65 30.9 16.65 Q30.2 16.0 30.05 15.1 L32.4 15.8 M24.2 55.65 L24.05 55.5 Q23.25 54.6 23.0 53.5 L22.7 52.65 21.5 50.65 Q19.75 50.25 18.25 51.8 15.75 54.45 13.7 57.45 L11.35 59.65 Q10.75 60.35 10.25 61.15 L8.8 63.2 8.25 63.7 7.55 64.2 5.5 65.85 5.9 65.55 5.4 66.2 4.65 67.0 4.4 67.25 4.2 67.45 Q3.5 68.55 2.35 69.0 L1.15 69.1 0.4 68.7 0.15 68.5 0.1 68.45 Q-2.35 66.9 -3.55 64.2 -4.2 62.85 -5.2 61.8 L-5.65 61.25 -9.8 56.65 -14.0 51.95 -14.95 50.75 Q-15.55 49.85 -16.45 49.2 L-17.05 48.65 -17.05 48.2 -18.15 47.5 -19.15 46.65 -19.2 46.9 -19.65 46.45 -20.55 45.75 -21.6 45.65 -21.7 42.1 -18.9 44.7 -18.85 44.75 -18.45 45.15 -17.2 46.45 Q-14.7 49.2 -12.6 52.2 -5.95 59.6 -0.05 67.1 0.85 67.9 1.95 67.55 L3.15 66.45 3.85 66.45 3.35 66.45 3.25 66.35 4.35 65.15 4.6 64.85 5.6 63.4 5.75 63.15 5.8 63.05 Q7.35 60.5 9.3 58.2 L10.35 57.2 14.5 52.9 16.75 50.35 Q20.3 46.25 24.5 42.7 24.15 49.2 24.2 55.65 M32.65 131.5 L32.15 129.6 Q28.9 119.35 26.55 108.95 25.4 103.8 25.3 98.4 25.25 95.55 24.55 92.85 24.1 90.95 24.0 88.9 23.75 82.8 24.65 76.85 L24.95 75.25 Q25.4 81.95 26.3 88.6 27.15 95.25 28.35 101.75 L28.35 101.8 Q29.45 109.15 30.85 116.35 32.6 125.05 34.75 133.55 L34.9 133.6 34.95 133.5 34.95 133.6 35.1 134.0 35.35 133.95 Q36.1 134.35 35.8 135.35 L35.65 135.8 35.5 136.3 35.45 136.45 34.15 136.05 34.25 135.9 34.4 135.7 32.65 131.5 M-11.4 148.35 L-11.35 148.3 -11.25 148.3 Q-11.1 148.55 -10.55 148.65 L-9.9 148.7 -6.75 148.8 -5.2 148.65 -3.75 148.45 0.85 148.55 2.75 148.8 4.0 149.35 Q6.25 150.35 8.65 151.15 L8.9 151.25 11.4 151.9 Q13.85 152.4 16.3 151.8 L17.1 151.8 17.25 152.0 17.45 152.15 17.6 152.3 Q18.3 152.45 18.65 153.05 L14.35 153.45 Q9.2 153.6 4.2 154.8 L2.6 154.85 Q0.55 154.5 -1.25 153.45 -4.35 151.8 -7.8 152.2 L-9.7 152.35 -9.9 152.2 -15.05 152.15 -15.15 152.15 -15.3 152.0 -15.6 151.6 -15.7 151.45 Q-14.0 149.6 -12.15 148.7 L-11.4 148.35 M35.3 143.85 L35.1 143.75 Q33.95 142.8 33.75 141.3 L33.7 140.85 34.25 140.45 34.8 139.65 35.45 138.35 35.4 138.2 35.6 138.6 36.0 137.8 36.05 137.85 36.35 139.25 Q36.6 140.75 37.15 142.2 L37.2 142.4 37.25 142.5 Q36.4 142.55 35.7 143.4 L35.3 143.85 M26.55 157.85 L26.45 157.75 26.45 157.5 26.45 156.95 30.3 154.75 30.6 154.6 33.25 153.25 37.55 150.55 37.3 150.35 Q36.35 149.4 36.1 148.45 37.55 147.1 38.45 145.25 L39.3 146.8 39.85 147.8 39.2 149.45 39.3 149.4 39.7 149.5 39.95 149.8 39.9 150.25 39.8 150.5 39.65 151.65 Q39.05 153.9 36.8 155.45 32.9 158.15 28.35 158.6 L28.05 158.65 Q27.1 158.65 26.55 157.85 M29.45 163.2 L26.2 165.9 Q20.3 164.85 15.15 166.75 L4.7 170.1 -2.95 168.1 Q-6.75 166.95 -10.9 166.95 L-14.5 165.9 Q-18.0 162.55 -21.65 159.65 L-21.6 159.55 Q-19.65 160.05 -17.75 160.7 -13.2 162.3 -8.4 162.45 -0.6 162.65 7.1 163.8 14.9 165.0 22.15 162.45 24.95 161.5 27.2 159.6 L27.4 159.45 Q26.65 161.3 29.25 163.05 L29.45 163.2 M-5.35 -33.9 L-5.35 -33.85 -5.3 -33.85 -5.35 -33.9 M-18.45 -9.45 L-19.6 -10.4 -19.95 -11.3 -19.9 -12.3 -19.2 -13.8 -19.6 -14.3 -19.7 -14.55 -19.6 -14.6 Q-21.95 -14.25 -22.35 -16.45 -22.7 -18.0 -21.4 -19.15 -20.85 -19.75 -20.05 -19.8 L-19.5 -19.75 Q-17.95 -19.6 -17.2 -18.05 L-16.3 -18.2 -15.1 -19.35 -14.4 -19.8 Q-11.9 -19.8 -10.95 -17.5 -10.65 -16.55 -11.3 -15.75 -12.45 -14.4 -14.2 -14.4 L-14.6 -13.95 -14.2 -12.9 Q-13.9 -11.75 -14.6 -10.75 -15.45 -9.5 -17.0 -9.35 L-18.45 -9.45 M-31.25 -5.2 L-31.25 -5.25 -31.45 -8.35 Q-32.3 -14.5 -35.2 -20.05 -36.05 -21.75 -37.35 -23.25 L-38.35 -23.4 -37.35 -27.4 Q-32.55 -17.45 -28.65 -7.05 -28.6 -5.55 -29.85 -5.05 L-31.25 -5.2 M-25.25 36.95 L-25.1 36.8 Q-23.7 35.95 -22.65 34.6 -22.7 33.4 -22.3 32.4 L-20.8 32.95 Q-20.85 33.8 -21.7 34.55 -22.6 35.25 -22.95 36.05 L-23.35 37.2 Q-23.55 37.9 -24.2 37.8 L-25.25 36.95 M-21.45 30.9 L-20.35 29.85 -19.05 28.95 -17.55 27.5 -18.15 28.6 -19.1 30.75 Q-19.6 32.0 -21.1 31.05 -21.25 30.9 -21.45 30.9 M-17.1 27.0 L-16.55 26.15 Q-15.85 24.75 -16.05 23.15 L-16.05 22.9 -14.35 23.05 -14.05 23.05 Q-14.3 24.75 -15.8 25.85 L-17.1 27.0 M-14.8 21.85 L-15.75 21.85 -15.7 21.75 Q-14.75 20.25 -13.4 19.15 -13.4 18.35 -13.0 17.7 L-12.75 17.4 -12.4 17.4 -11.9 17.3 Q-12.7 19.65 -13.9 21.8 L-14.8 21.85 M-31.25 16.95 L-31.25 17.1 -31.4 17.5 Q-31.85 17.9 -32.45 18.15 L-31.95 17.65 -31.25 16.95 M-35.55 20.0 Q-36.45 20.75 -37.5 21.25 L-38.4 21.35 -38.65 21.15 -38.05 20.65 -38.85 20.7 Q-38.95 19.8 -38.05 19.2 L-36.8 18.2 -36.6 18.05 -36.15 17.9 -34.2 17.55 -33.95 17.55 -33.35 17.55 -35.55 20.0 M-32.45 15.45 L-33.15 13.4 Q-33.8 11.3 -32.5 9.45 -31.9 8.65 -31.65 7.8 -31.4 7.15 -31.45 6.4 -31.7 3.6 -31.4 0.9 L-31.2 -0.3 -30.2 -0.4 Q-30.1 2.1 -30.55 4.7 -31.1 7.4 -30.65 10.2 -31.55 11.0 -31.95 12.15 -31.9 13.9 -30.65 15.3 L-30.7 15.35 -30.8 15.65 -31.7 16.05 -31.9 16.0 -32.15 15.35 -32.45 15.45 M-31.0 -1.0 L-31.05 -1.0 -30.8 -1.6 -30.4 -2.05 -30.35 -2.05 -29.7 -2.0 Q-29.85 -1.1 -31.0 -1.0 M-29.65 -2.7 Q-31.0 -3.1 -31.2 -4.55 L-29.55 -4.25 -29.65 -2.7 M-17.7 -14.05 L-17.9 -13.95 -18.5 -13.2 Q-19.1 -10.5 -16.4 -10.9 -15.9 -11.35 -15.75 -11.9 -15.3 -14.15 -17.7 -14.05 M-13.8 -19.2 Q-14.45 -19.25 -14.85 -18.7 -16.35 -16.95 -14.3 -16.0 -13.15 -15.5 -12.55 -16.6 -11.45 -18.75 -13.8 -19.2 M-19.9 -19.25 L-20.95 -19.0 Q-21.45 -18.65 -21.55 -17.9 -21.65 -15.1 -18.85 -15.95 L-18.5 -16.5 Q-17.5 -18.8 -19.9 -19.25 M-31.75 16.1 L-31.85 16.15 -31.85 16.05 -31.75 16.1" fill="#000033" fill-rule="evenodd" stroke="none"/>
    <path d="M11.0 -25.1 L10.95 -25.1 10.95 -25.15 11.0 -25.1 M9.65 -35.55 L9.85 -35.6 9.55 -35.45 9.65 -35.55 M33.2 56.15 L33.45 55.95 33.45 55.9 33.6 56.0 33.25 56.1 33.2 56.15 M26.2 51.3 L26.2 51.65 26.1 51.35 26.2 51.3 M-24.9 84.35 L-24.9 84.3 -24.85 84.35 -24.9 84.35" fill="#004b97" fill-rule="evenodd" stroke="none"/>
    <path d="M14.85 -35.05 L15.05 -34.85 15.0 -34.8 14.85 -35.05" fill="#6633ff" fill-rule="evenodd" stroke="none"/>
    <path d="M32.0 17.75 Q29.6 16.6 27.0 16.0 26.9 14.15 28.2 12.8 29.45 11.45 28.8 9.45 28.35 8.75 28.7 8.25 L29.55 8.0 30.6 14.65 29.7 14.6 29.6 15.0 30.05 15.1 Q30.2 16.0 30.9 16.65 L31.75 16.65 32.0 16.45 32.4 15.8 34.05 16.45 34.85 16.95 33.5 16.4 32.0 17.75 M29.7 7.1 L28.7 7.25 Q28.2 5.85 28.05 4.2 29.05 3.25 30.25 2.7 L29.2 3.3 30.25 4.5 29.7 7.1 M1.9 -30.85 Q-4.5 -36.0 -9.4 -42.25 -4.55 -43.7 1.0 -43.7 6.55 -43.75 11.35 -42.15 L1.9 -30.85 M25.55 -0.8 Q26.45 2.15 26.7 5.4 L27.55 11.65 Q26.5 12.55 26.3 13.7 L25.7 15.95 24.45 16.05 Q24.95 12.85 25.0 9.25 25.0 5.6 25.55 2.3 L25.55 -0.8 M29.4 48.55 Q28.55 43.8 28.7 38.75 L32.5 36.05 Q31.55 41.8 31.95 47.75 L31.85 47.75 29.4 48.55 M32.65 53.0 L30.85 53.6 30.8 53.5 30.1 50.55 29.65 50.65 27.25 51.6 26.2 52.05 26.2 51.3 Q28.15 49.85 30.6 49.3 L31.3 49.15 31.45 49.1 31.55 49.1 31.7 49.05 31.85 49.05 31.95 49.0 32.65 53.0 M26.5 57.75 Q26.9 57.3 27.55 57.05 29.35 56.4 30.8 55.55 L31.4 55.4 32.55 54.95 32.6 54.9 32.95 54.85 Q33.5 54.85 33.45 55.9 L33.45 55.95 33.2 56.15 33.1 56.15 32.35 56.7 32.15 56.85 Q31.5 56.7 31.4 56.1 L29.6 56.9 28.8 57.3 26.4 58.5 26.15 58.6 Q26.25 58.05 26.5 57.75 M26.5 62.05 L30.3 60.05 32.05 59.15 32.15 59.1 33.9 58.35 Q34.65 60.35 34.9 62.6 L33.4 63.35 33.2 62.8 32.35 60.3 30.55 61.25 28.85 62.2 27.0 63.4 26.35 63.85 26.3 63.45 26.3 63.0 Q26.25 62.55 26.35 62.15 L26.5 62.05 M-29.35 10.6 L-28.1 -5.5 Q-26.1 0.35 -25.8 6.95 -25.4 11.25 -25.35 15.35 L-29.2 15.7 Q-29.55 14.45 -30.25 13.05 -30.9 11.65 -29.35 10.6 M-33.5 72.7 Q-31.7 73.65 -29.75 74.15 L-28.6 74.4 -25.75 74.95 -24.45 75.25 -24.55 78.85 -27.55 78.2 -28.9 78.0 -28.7 75.65 -29.75 75.3 -30.25 75.15 -33.65 74.15 -33.7 74.15 -33.5 72.7 M-24.25 72.85 L-24.55 72.85 -26.8 72.7 -28.7 72.3 Q-28.0 60.25 -26.25 48.45 -25.5 43.55 -25.4 38.75 L-22.6 40.95 -23.05 57.4 Q-23.15 61.35 -23.7 65.1 -24.2 68.85 -24.25 72.85 M-32.1 79.25 Q-30.5 80.0 -28.75 80.55 L-25.3 81.2 -24.95 81.3 -24.75 81.55 -24.9 84.3 -24.9 84.35 -24.95 84.6 -28.65 84.0 Q-29.25 83.05 -29.0 81.75 L-28.95 81.7 -29.25 81.6 Q-31.5 80.9 -33.55 79.85 L-33.65 79.8 -34.5 79.65 -34.35 78.8 -32.15 79.45 -32.1 79.25 M-28.65 92.5 Q-29.05 89.9 -29.05 87.25 L-30.55 86.75 -35.1 84.9 -35.45 84.75 -35.25 83.9 -34.3 84.3 -32.1 85.0 -29.0 85.85 -27.55 86.2 -24.8 87.0 Q-24.85 90.15 -25.2 93.15 L-28.65 92.5" fill="#330033" fill-rule="evenodd" stroke="none"/>
    <path d="M-0.75 -26.4 Q0.75 -25.7 2.25 -25.5 L4.0 -25.55 4.05 -25.85 2.75 -27.4 1.7 -28.4 1.9 -28.45 2.0 -28.45 5.25 -25.8 7.4 -24.15 7.25 -22.4 Q7.0 -21.1 6.05 -20.45 L-0.85 -25.65 -0.75 -26.4 M16.4 -9.9 Q19.1 -8.2 21.95 -6.65 L21.45 -3.4 Q19.7 -3.9 17.95 -4.8 L15.35 -6.5 Q14.95 -8.1 16.1 -9.6 L16.4 -9.9 M9.05 -6.75 L8.95 -6.2 Q8.95 -5.05 9.65 -4.15 L9.75 -4.0 Q12.25 -1.1 15.4 0.9 17.25 2.05 19.35 2.9 L19.4 3.0 19.65 3.2 Q20.7 8.3 19.3 13.3 18.9 14.85 18.85 16.5 15.65 16.55 12.7 15.6 L12.35 15.45 Q8.15 14.1 3.65 14.05 L3.3 12.95 2.05 8.85 Q1.6 7.35 2.45 6.05 L2.9 5.45 3.65 5.25 4.4 5.1 4.75 5.05 4.85 4.5 4.15 4.3 4.3 4.25 Q3.95 2.45 5.45 0.75 L5.8 0.85 8.6 1.85 11.3 2.55 10.3 1.15 10.3 1.05 8.7 -0.05 7.7 -0.65 7.55 -0.75 Q5.1 -2.2 2.45 -3.2 L-1.9 -4.5 -5.65 -5.05 -7.25 -5.0 Q-7.75 -5.5 -8.05 -6.15 L-7.8 -6.2 -6.3 -6.7 -6.2 -6.7 -5.6 -6.9 Q-1.5 -7.7 -0.45 -11.45 0.4 -14.5 -1.1 -16.35 3.85 -15.75 4.75 -10.1 5.05 -8.4 4.7 -7.0 L4.9 -8.15 Q7.9 -8.2 9.05 -6.75 M21.15 -16.05 L20.65 -16.25 20.95 -14.8 Q20.65 -14.5 20.15 -14.4 18.8 -13.95 17.85 -13.1 L18.2 -12.85 17.65 -13.2 14.8 -14.8 14.35 -15.1 14.35 -15.3 Q14.8 -17.8 17.45 -17.9 19.25 -16.9 21.15 -16.05 M10.3 7.25 L10.3 7.35 10.25 7.4 10.35 7.4 10.4 7.35 10.4 7.3 10.3 7.25 M8.8 63.2 L10.0 62.25 9.2 74.75 9.35 74.85 4.1 74.35 2.65 74.35 -0.4 74.6 Q-2.1 77.15 -3.35 79.85 -5.4 84.0 -6.55 88.5 -7.25 91.35 -9.0 92.35 -8.7 89.35 -9.1 86.3 -9.55 82.3 -9.25 78.3 L-9.4 78.05 -9.65 77.85 -10.3 77.75 -10.55 78.1 Q-11.7 81.35 -12.4 84.8 L-12.95 85.5 Q-14.3 88.35 -14.7 91.5 L-14.75 91.4 Q-16.8 86.75 -14.45 82.0 -13.0 79.05 -12.45 75.8 -11.85 72.65 -11.55 69.5 -14.35 64.3 -16.35 58.85 L-16.7 53.65 -16.7 53.6 -17.05 48.65 -16.45 49.2 Q-15.55 49.85 -14.95 50.75 L-14.0 51.95 -9.8 56.65 -5.65 61.25 -5.2 61.8 Q-4.2 62.85 -3.55 64.2 -2.35 66.9 0.1 68.45 L0.15 68.5 0.4 68.7 1.15 69.1 2.35 69.0 Q3.5 68.55 4.2 67.45 L4.4 67.25 4.65 67.0 5.4 66.2 5.9 65.55 5.5 65.85 7.55 64.2 7.6 64.2 7.6 64.15 8.25 63.7 8.8 63.2 M10.3 75.0 L11.2 74.55 12.5 70.3 13.15 67.6 13.85 64.4 14.75 58.55 16.4 57.3 Q18.65 55.5 20.8 54.95 L20.8 55.75 20.9 63.2 21.0 69.45 21.1 72.15 21.65 80.9 20.9 80.85 Q20.0 80.8 19.15 80.15 16.55 78.1 13.7 76.35 L13.35 75.9 10.3 75.0 M30.15 125.1 L32.65 131.5 34.4 135.7 34.25 135.9 34.15 136.05 33.8 136.5 Q32.7 137.65 31.2 138.3 L30.65 138.5 27.8 139.3 Q26.5 139.7 25.3 140.25 24.15 140.7 23.25 141.6 L22.95 141.8 Q21.8 142.6 20.5 143.05 L19.8 138.75 18.4 132.1 17.45 129.25 Q15.95 125.8 17.2 123.0 L17.45 123.65 16.7 121.65 13.25 114.8 10.35 110.7 7.9 108.05 Q6.6 106.7 4.7 106.25 L1.35 105.9 -0.3 109.3 -0.45 109.6 -0.65 109.9 -0.8 110.2 -4.5 118.3 -4.55 118.4 -4.55 118.45 -5.3 120.3 -7.0 123.95 -7.4 124.85 -7.5 124.95 -7.55 125.05 -7.6 125.15 Q-9.55 128.9 -10.9 132.8 L-10.95 132.65 -11.05 132.6 -11.1 132.35 -11.25 132.45 -11.15 132.6 -10.9 132.9 -11.3 133.75 -11.1 134.6 Q-13.3 136.15 -14.75 138.6 L-13.9 139.05 -11.45 137.95 Q-11.9 139.0 -12.85 139.95 L-13.75 141.15 Q-10.15 143.1 -10.85 146.15 L-11.6 146.1 -11.95 146.05 -12.9 145.65 Q-16.55 143.65 -19.7 141.15 L-16.75 134.2 -6.05 109.3 Q-5.45 108.0 -5.15 106.8 L-4.85 105.4 -4.8 105.15 Q-4.4 102.5 -5.3 100.25 -3.2 97.0 -0.45 94.4 L0.2 93.7 0.55 93.75 0.85 92.85 1.0 92.45 0.95 93.2 0.55 95.3 0.5 95.5 2.1 94.1 2.35 93.95 2.4 93.95 2.85 93.75 2.85 93.7 Q8.15 93.35 9.4 98.3 10.55 102.6 12.6 106.7 13.35 108.1 13.65 109.6 L16.2 113.2 20.75 119.9 Q20.45 118.85 20.3 117.8 L18.05 104.6 Q21.2 108.9 22.55 114.35 L23.55 117.7 Q24.4 120.0 24.5 122.45 L24.5 122.5 Q25.6 123.85 25.9 126.25 26.0 127.2 26.4 128.0 27.35 129.8 27.65 131.7 28.15 128.25 29.5 125.05 L29.85 124.35 30.15 125.1 M-21.6 45.65 L-20.55 45.75 -19.65 46.45 -19.2 46.9 Q-19.65 50.35 -19.7 53.75 -20.6 54.25 -21.45 54.35 L-21.6 45.65 M-20.55 143.1 L-20.6 143.2 -19.1 144.25 -18.25 144.9 -17.15 145.95 Q-15.75 146.9 -14.1 147.5 L-13.5 147.8 -11.8 148.15 -11.55 147.75 -11.95 148.4 -12.15 148.7 Q-14.0 149.6 -15.7 151.45 L-15.6 151.6 -15.3 152.0 -15.4 152.1 -17.05 151.2 -22.3 147.2 -20.55 143.1 M9.55 149.1 L9.7 148.85 9.95 148.95 Q12.35 148.65 14.55 147.45 L14.9 147.35 15.6 147.15 15.9 147.2 15.95 147.2 19.9 147.45 20.3 147.15 21.15 146.55 21.1 146.2 21.4 146.1 22.55 145.7 Q24.1 145.2 25.3 144.15 26.9 142.75 28.8 142.2 L28.9 141.95 29.15 142.05 29.2 142.1 29.5 142.85 30.5 145.7 Q31.1 145.35 31.75 145.1 L30.05 142.25 30.15 142.2 33.05 141.3 33.7 140.85 33.75 141.3 Q33.95 142.8 35.1 143.75 L35.3 143.85 Q34.3 144.9 32.7 145.25 L31.35 145.6 Q27.8 146.55 26.3 149.6 24.3 151.45 21.75 152.25 L18.65 153.05 Q18.3 152.45 17.6 152.3 L17.45 152.15 17.25 152.0 17.1 151.8 16.3 151.8 Q13.85 152.4 11.4 151.9 L8.9 151.25 8.9 151.0 Q9.1 149.9 9.55 149.1 M15.0 157.2 L15.05 157.2 14.85 157.1 16.75 156.6 19.1 156.0 19.85 155.85 20.9 155.9 Q24.7 155.5 28.1 154.2 28.15 154.1 28.3 154.1 28.5 154.05 28.65 153.95 L29.25 153.4 30.05 152.65 30.05 152.6 31.25 151.65 Q31.9 150.95 32.8 150.55 34.7 149.8 36.1 148.45 36.35 149.4 37.3 150.35 L37.55 150.55 33.25 153.25 30.6 154.6 30.3 154.75 26.45 156.95 26.45 157.5 26.45 157.75 26.55 157.85 26.1 158.0 21.8 158.55 Q18.0 158.5 15.0 157.2 M40.0 151.55 Q39.65 154.45 37.25 156.05 34.15 157.55 31.65 160.75 L29.45 163.2 29.25 163.05 Q26.65 161.3 27.4 159.45 27.55 159.0 27.85 158.65 L28.05 158.65 28.35 158.6 Q32.9 158.15 36.8 155.45 39.05 153.9 39.65 151.65 L40.0 151.55 M-21.65 159.65 L-26.25 156.2 -23.95 150.9 -23.5 151.4 -20.9 154.5 Q-20.0 155.5 -18.75 155.85 L-18.7 155.85 -18.75 155.9 -21.6 159.55 -21.65 159.65 M-11.35 -37.65 L-10.4 -36.9 -11.45 -37.0 -11.35 -37.65 M-20.05 -34.6 L-19.5 -35.4 -19.35 -35.25 Q-20.9 -33.3 -18.9 -31.6 -18.6 -30.5 -17.6 -29.85 -16.6 -29.2 -15.5 -29.0 L-17.55 -28.35 Q-15.85 -26.55 -14.6 -24.25 -13.35 -22.0 -15.1 -20.1 -17.1 -18.0 -19.15 -20.1 L-20.25 -21.2 -22.8 -24.15 -25.45 -27.1 -25.45 -27.15 -20.05 -34.6 M-0.2 106.0 L-0.4 105.95 -0.6 107.35 0.05 106.3 -0.2 106.0" fill="#2d2d86" fill-rule="evenodd" stroke="none"/>
    <path d="M-0.75 -26.4 L-0.85 -25.65 6.05 -20.45 Q7.0 -21.1 7.25 -22.4 L7.4 -24.15 Q12.25 -20.6 17.45 -17.9 14.8 -17.8 14.35 -15.3 L14.35 -15.1 14.8 -14.8 Q5.45 -20.3 -3.05 -27.45 L-2.5 -27.4 -1.85 -27.0 -0.75 -26.4 M-5.5 -29.05 Q-3.1 -26.2 -0.35 -23.7 L-1.2 -24.45 -1.9 -24.15 -2.4 -23.7 Q-2.65 -21.5 -0.8 -20.15 2.05 -18.0 5.3 -16.6 9.05 -15.0 12.0 -12.45 L15.35 -10.1 16.1 -9.6 Q14.95 -8.1 15.35 -6.5 L13.95 -7.85 Q13.0 -8.9 11.85 -8.9 L4.4 -14.8 Q7.4 -11.25 10.95 -8.35 L10.6 -8.6 10.4 -8.55 Q9.25 -8.0 9.05 -6.75 7.9 -8.2 4.9 -8.15 L4.7 -7.0 Q5.05 -8.4 4.75 -10.1 3.85 -15.75 -1.1 -16.35 -1.85 -17.2 -3.15 -17.85 L-3.15 -17.8 -4.15 -17.7 Q-7.95 -14.05 -10.9 -9.85 L-11.4 -9.1 Q-13.3 -5.85 -9.3 -5.55 L-8.05 -6.15 Q-7.75 -5.5 -7.25 -5.0 -10.45 -4.85 -13.35 -3.85 -14.6 -3.4 -15.35 -2.35 L-15.25 -1.65 Q-14.75 -0.7 -13.3 -0.8 L-11.8 -1.2 Q-6.05 -1.45 -0.15 -0.05 L3.45 0.3 5.45 0.75 Q3.95 2.45 4.3 4.25 L4.15 4.3 2.95 4.0 -2.55 4.25 Q-3.5 3.55 -4.8 3.3 L-5.95 3.45 Q-13.7 4.05 -18.95 9.5 L-19.0 9.8 -19.0 10.9 -19.05 11.75 -18.65 12.35 -18.25 12.65 -16.85 12.55 -16.35 12.05 -12.8 9.95 -12.5 9.85 -11.4 9.55 Q-8.6 8.6 -5.7 8.0 -3.3 7.5 -1.0 6.65 L2.85 5.45 3.65 5.25 2.9 5.45 2.45 6.05 Q1.6 7.35 2.05 8.85 L3.3 12.95 3.65 14.05 3.35 14.05 Q1.85 14.55 0.35 15.2 L-2.65 15.4 Q-6.0 13.75 -9.3 14.85 -12.6 15.9 -16.1 15.8 L-23.35 15.6 -23.8 14.8 Q-23.15 0.95 -28.15 -10.5 -32.6 -20.75 -37.4 -30.75 L-32.85 -31.4 Q-31.45 -25.8 -28.95 -20.55 -26.0 -14.45 -24.4 -7.8 -24.5 -10.2 -24.9 -12.45 L-24.1 -10.35 -23.1 -10.35 Q-22.8 -11.9 -22.75 -13.45 L-22.8 -12.55 Q-22.0 -10.55 -20.75 -8.85 L-19.05 -8.85 Q-18.6 -9.1 -18.45 -9.45 L-17.0 -9.35 Q-15.45 -9.5 -14.6 -10.75 -13.9 -11.75 -14.2 -12.9 L-14.6 -13.95 -14.2 -14.4 Q-12.45 -14.4 -11.3 -15.75 -10.65 -16.55 -10.95 -17.5 -11.9 -19.8 -14.4 -19.8 L-15.1 -19.35 -16.3 -18.2 -17.2 -18.05 Q-17.95 -19.6 -19.5 -19.75 L-19.85 -20.75 -19.9 -20.85 -20.25 -21.2 -19.15 -20.1 Q-17.1 -18.0 -15.1 -20.1 -13.35 -22.0 -14.6 -24.25 -15.85 -26.55 -17.55 -28.35 L-15.5 -29.0 -14.35 -29.2 -12.8 -29.55 -12.4 -29.0 Q-11.25 -27.8 -10.15 -27.9 -9.1 -25.95 -7.1 -27.3 -6.1 -28.0 -5.5 -29.05 M7.85 -19.25 L7.7 -19.3 9.4 -18.2 8.8 -18.7 7.85 -19.25 M23.2 -10.7 L23.6 -10.25 23.2 -10.7 M1.95 8.75 L1.3 8.6 1.3 8.8 1.95 8.8 1.95 8.75 M-20.3 -42.1 L-18.45 -42.8 -18.9 -42.0 -20.1 -42.1 -20.3 -42.1 M-15.65 -43.05 Q-14.05 -43.15 -12.6 -43.7 L-7.45 -37.6 -8.6 -35.95 Q-9.15 -36.75 -10.4 -36.9 L-11.35 -37.65 Q-11.3 -39.1 -12.5 -39.7 -11.75 -42.75 -15.35 -42.9 L-15.65 -43.05 M-5.6 -35.65 L-5.45 -35.45 -5.7 -35.5 -5.6 -35.65 M9.35 74.85 L9.95 75.2 10.3 75.0 13.35 75.9 13.7 76.35 Q16.55 78.1 19.15 80.15 20.0 80.8 20.9 80.85 L21.65 80.9 21.95 85.25 22.05 88.1 Q21.85 96.55 23.65 104.6 25.5 112.45 28.3 120.1 L30.15 125.1 29.85 124.35 29.5 125.05 Q28.15 128.25 27.65 131.7 27.35 129.8 26.4 128.0 26.0 127.2 25.9 126.25 25.6 123.85 24.5 122.5 L24.5 122.45 Q24.4 120.0 23.55 117.7 L22.55 114.35 Q21.2 108.9 18.05 104.6 L18.05 104.55 17.35 100.6 14.3 93.55 Q11.15 87.0 4.0 87.45 1.25 88.8 1.05 92.0 L0.95 93.2 1.0 92.45 0.85 92.85 0.55 93.75 0.2 93.7 -0.45 94.4 Q-3.2 97.0 -5.3 100.25 L-5.65 99.45 Q-8.5 103.65 -10.7 108.3 -14.9 117.05 -21.05 124.8 L-20.4 117.05 -20.1 113.2 -19.9 113.15 -19.6 113.05 -18.3 111.75 -17.6 110.95 -15.6 108.15 -7.55 96.75 Q-1.65 88.6 1.6 79.1 L2.15 78.65 Q4.35 77.3 5.0 75.15 L4.4 74.6 4.1 74.35 9.35 74.85 M7.55 64.2 L8.25 63.7 7.6 64.15 7.6 64.2 7.55 64.2 M2.65 74.35 Q0.7 75.15 -0.95 76.8 L-2.85 79.05 -3.35 79.85 Q-2.1 77.15 -0.4 74.6 L2.65 74.35 M-16.15 101.55 Q-18.3 105.2 -20.1 109.15 -20.35 102.8 -22.4 97.35 -20.7 88.9 -19.45 80.45 L-19.05 77.5 -17.45 77.65 Q-16.55 77.4 -16.15 76.6 L-15.8 75.7 -16.0 74.95 -14.95 78.05 -15.3 73.6 Q-15.1 72.5 -15.3 71.35 L-15.6 69.2 -16.35 58.85 Q-14.35 64.3 -11.55 69.5 -11.85 72.65 -12.45 75.8 -13.0 79.05 -14.45 82.0 -16.8 86.75 -14.75 91.4 L-14.7 91.5 -14.85 92.8 -14.95 95.65 Q-14.95 98.3 -15.9 100.6 L-16.15 101.55 M-4.55 118.45 Q-5.45 121.8 -7.4 124.85 L-7.0 123.95 -5.3 120.3 -4.55 118.45 M-7.6 125.15 L-7.6 125.7 -7.6 125.95 -7.5 126.25 Q-7.1 126.85 -6.4 126.9 L-5.25 126.9 Q-1.1 124.85 0.0 120.5 1.4 115.15 3.8 110.2 L5.35 110.15 10.35 110.7 13.25 114.8 16.7 121.65 17.45 123.65 17.2 123.0 Q15.95 125.8 17.45 129.25 L18.4 132.1 19.8 138.75 20.5 143.05 18.0 143.55 16.8 143.75 Q14.4 144.15 12.05 145.05 L12.1 144.95 11.9 144.9 11.9 145.1 11.45 145.3 9.25 146.2 7.85 146.4 Q5.9 146.6 3.95 146.35 L2.5 146.1 Q-0.8 145.2 -4.05 145.55 L-6.3 145.15 -6.6 145.2 -7.9 146.05 -10.85 146.15 Q-10.15 143.1 -13.75 141.15 L-12.85 139.95 Q-11.9 139.0 -11.45 137.95 -4.55 135.35 2.9 137.6 L3.5 137.25 4.5 136.45 5.15 135.65 4.7 134.9 Q1.3 131.3 -3.95 132.0 -8.15 132.45 -11.1 134.6 L-11.3 133.75 -10.9 132.9 -10.95 132.65 -10.9 132.8 Q-9.55 128.9 -7.6 125.15 M0.15 147.35 L0.1 147.35 0.15 147.35 M-11.55 147.75 L-11.75 148.15 -11.65 148.25 -11.4 148.35 -12.15 148.7 -11.95 148.4 -11.55 147.75 M4.0 149.35 L4.15 149.35 Q6.4 149.75 8.6 149.3 L9.55 149.1 Q9.1 149.9 8.9 151.0 L8.9 151.25 8.65 151.15 Q6.25 150.35 4.0 149.35 M15.95 147.2 L17.2 146.75 21.0 145.7 21.05 145.95 21.1 146.2 21.15 146.55 20.3 147.15 19.9 147.45 15.95 147.2 M29.2 142.1 L29.25 142.1 29.0 141.45 28.8 141.05 29.2 140.95 29.6 141.6 29.95 142.25 30.05 142.25 31.75 145.1 Q31.1 145.35 30.5 145.7 L29.5 142.85 29.2 142.1 M14.15 146.7 L14.15 146.95 14.8 147.05 13.5 146.95 13.85 146.8 14.15 146.7 M15.0 157.2 Q18.0 158.5 21.8 158.55 L26.1 158.0 26.55 157.85 Q27.1 158.65 28.05 158.65 L27.85 158.65 Q27.55 159.0 27.4 159.45 L27.2 159.6 Q24.95 161.5 22.15 162.45 14.9 165.0 7.1 163.8 -0.6 162.65 -8.4 162.45 -13.2 162.3 -17.75 160.7 -19.65 160.05 -21.6 159.55 L-18.75 155.9 -18.25 156.05 -17.5 156.35 -14.4 156.55 -12.15 156.35 -11.45 156.2 -7.9 155.6 -7.65 155.6 -3.9 156.2 Q-2.65 156.55 -1.5 157.2 L-1.15 157.4 1.1 158.45 2.2 158.75 9.25 158.55 11.6 158.1 13.5 157.55 15.0 157.2 M39.85 147.8 L40.15 148.5 40.1 149.8 40.0 151.45 40.0 151.55 39.65 151.65 39.8 150.5 39.9 150.25 39.95 149.8 39.7 149.5 39.3 149.4 39.2 149.45 39.85 147.8 M-24.3 110.2 L-23.9 103.85 -23.35 101.55 -22.65 98.3 -23.35 111.7 -23.4 111.15 -24.3 110.2 M-9.7 152.35 L-14.0 152.3 -15.05 152.15 -9.9 152.2 -9.7 152.35 M-15.15 152.15 L-15.4 152.1 -15.3 152.0 -15.15 152.15 M-3.9 -28.2 L-4.05 -28.3 -3.95 -28.3 -3.9 -28.2" fill="#333399" fill-rule="evenodd" stroke="none"/>
    <path d="M29.55 8.0 L33.2 7.4 32.05 13.2 32.6 15.1 30.6 14.65 29.55 8.0 M32.9 6.95 L29.7 7.1 30.25 4.5 29.2 3.3 30.25 2.7 32.25 1.95 31.65 3.15 31.75 5.5 32.9 6.95 M32.3 1.45 L29.25 2.15 28.8 2.35 28.7 2.35 28.15 2.25 29.45 -15.55 32.3 1.45 M27.75 -19.55 L28.05 -20.45 27.55 -19.8 29.95 -25.35 29.8 -19.25 27.75 -19.55 M-0.35 -23.7 Q2.55 -21.0 5.8 -18.8 L6.05 -18.65 6.2 -18.55 6.6 -18.25 6.95 -17.6 7.7 -16.65 Q9.25 -14.75 11.25 -13.35 13.75 -11.55 16.4 -9.9 L16.1 -9.6 15.35 -10.1 12.0 -12.45 Q9.05 -15.0 5.3 -16.6 2.05 -18.0 -0.8 -20.15 -2.65 -21.5 -2.4 -23.7 L-1.9 -24.15 -1.2 -24.45 -0.35 -23.7 M-2.55 4.25 Q-7.25 4.85 -11.6 6.55 L-12.5 7.25 Q-13.55 8.6 -12.8 9.95 L-16.35 12.05 -16.85 12.55 -18.25 12.65 -18.65 12.35 -19.05 11.75 -19.0 10.9 -19.0 9.8 -18.95 9.5 Q-13.7 4.05 -5.95 3.45 L-4.8 3.3 Q-3.5 3.55 -2.55 4.25 M4.1 74.35 L4.4 74.6 5.0 75.15 Q4.35 77.3 2.15 78.65 L1.6 79.1 Q-1.65 88.6 -7.55 96.75 L-15.6 108.15 -17.6 110.95 -18.3 111.75 -19.6 113.05 -19.9 113.15 -20.1 113.2 -20.1 109.15 Q-18.3 105.2 -16.15 101.55 -16.3 102.55 -15.55 103.3 -14.9 104.05 -14.2 103.5 -12.75 102.35 -12.15 100.55 -11.65 99.1 -10.8 97.9 -9.65 96.35 -9.3 94.4 L-9.0 92.35 Q-7.25 91.35 -6.55 88.5 -5.4 84.0 -3.35 79.85 L-2.85 79.05 -0.95 76.8 Q0.7 75.15 2.65 74.35 L4.1 74.35 M-4.55 118.45 L-4.55 118.4 -4.5 118.3 -0.8 110.2 -0.65 109.9 -0.45 109.6 -0.3 109.3 1.35 105.9 4.7 106.25 Q6.6 106.7 7.9 108.05 L10.35 110.7 5.35 110.15 3.8 110.2 Q1.4 115.15 0.0 120.5 -1.1 124.85 -5.25 126.9 L-6.4 126.9 Q-7.1 126.85 -7.5 126.25 L-7.6 125.95 -7.6 125.7 -7.6 125.15 -7.55 125.05 -7.5 124.95 -7.4 124.85 Q-5.45 121.8 -4.55 118.45 M-21.65 61.1 L-21.45 54.35 Q-20.6 54.25 -19.7 53.75 -19.85 63.6 -16.7 73.1 L-16.0 74.95 -15.8 75.7 -16.15 76.6 Q-16.55 77.4 -17.45 77.65 L-19.05 77.5 Q-18.55 71.45 -19.55 65.45 -20.0 62.6 -21.65 61.1 M-25.45 -27.1 L-22.8 -24.15 -20.25 -21.2 -19.9 -20.85 -19.85 -20.75 -19.5 -19.75 -20.05 -19.8 Q-20.85 -19.75 -21.4 -19.15 -22.7 -18.0 -22.35 -16.45 -21.95 -14.25 -19.6 -14.6 L-19.7 -14.55 -19.6 -14.3 -19.2 -13.8 -19.9 -12.3 -19.95 -11.3 -19.6 -10.4 -18.45 -9.45 Q-18.6 -9.1 -19.05 -8.85 L-20.75 -8.85 Q-22.0 -10.55 -22.8 -12.55 L-22.75 -13.45 Q-22.6 -16.7 -23.35 -19.75 L-23.35 -19.9 -23.45 -20.2 -23.5 -20.35 -23.55 -20.6 -23.7 -20.95 -23.75 -21.2 -23.85 -21.4 -24.25 -22.5 -24.35 -22.8 -24.45 -23.1 -24.6 -23.4 -24.75 -23.7 -24.9 -23.95 -25.0 -24.2 -25.25 -24.6 -25.35 -24.9 -25.5 -25.2 -25.75 -25.5 -25.9 -25.85 -26.15 -26.2 -25.45 -27.1 M-37.8 -22.0 L-37.3 -22.1 Q-35.05 -21.1 -35.75 -18.7 L-36.1 -16.95 -36.6 -14.25 Q-37.95 -8.4 -37.05 -2.7 -36.75 -0.85 -38.1 0.6 -38.9 1.35 -39.75 1.25 L-37.8 -22.0 M-42.35 4.15 L-40.75 1.75 -40.05 1.85 Q-39.3 1.85 -38.95 2.4 -38.1 3.6 -38.65 5.15 L-38.8 5.95 Q-38.95 8.75 -39.55 11.5 L-39.85 11.6 Q-42.55 12.7 -43.1 10.05 L-42.35 4.15 M-19.05 17.25 L-17.8 19.3 -30.4 20.4 -30.15 18.35 -23.85 16.85 -19.05 17.25 M-39.25 21.7 L-39.45 23.8 Q-42.05 24.6 -42.9 21.95 -43.85 19.0 -41.6 16.9 L-40.05 17.45 -32.45 15.45 -32.15 15.35 -31.9 16.0 -31.85 16.15 -33.35 17.55 -33.95 17.55 -34.2 17.55 -36.15 17.9 Q-36.95 18.1 -37.65 18.55 -39.45 19.5 -39.45 20.9 L-40.7 22.35 -39.25 21.7" fill="#3300ff" fill-rule="evenodd" stroke="none"/>
    <path d="M16.6 17.95 L26.2 17.7 29.8 19.9 16.15 20.05 16.6 17.95 M34.85 16.95 L36.45 17.8 33.5 16.4 34.85 16.95 M20.5 143.05 Q21.8 142.6 22.95 141.8 L23.25 141.6 Q24.15 140.7 25.3 140.25 26.5 139.7 27.8 139.3 L30.65 138.5 31.2 138.3 Q32.7 137.65 33.8 136.5 L34.15 136.05 35.45 136.45 35.4 136.6 35.2 137.0 35.1 137.15 35.05 137.25 35.0 137.35 Q33.5 139.8 30.6 140.5 L29.5 140.8 29.2 140.95 28.8 141.05 28.65 141.1 25.5 142.4 25.05 142.8 Q23.9 144.3 22.05 144.9 L21.0 145.15 20.9 145.2 15.8 146.2 14.15 146.7 13.85 146.8 13.5 146.95 10.5 147.95 8.4 148.35 5.5 148.5 Q3.0 148.3 0.8 147.5 L0.15 147.35 0.1 147.35 -0.1 147.3 Q-3.05 146.8 -5.95 147.2 L-10.1 147.45 -11.4 147.4 -12.0 147.35 -12.4 147.25 Q-14.65 146.55 -16.6 145.1 L-17.95 144.1 -18.9 143.3 -20.2 142.4 -22.45 140.65 -24.75 138.85 -25.9 138.0 -26.95 137.15 -27.75 136.65 -28.05 136.4 -29.6 135.5 -30.35 135.15 -30.6 135.15 -30.65 135.1 -30.75 135.0 -30.8 134.9 -31.0 134.75 -31.0 134.7 -31.0 134.6 -31.0 134.55 -30.9 134.45 -30.55 134.3 -27.25 134.75 -26.7 134.9 -26.55 135.05 -26.3 135.15 Q-24.55 136.05 -23.1 137.45 L-21.9 139.0 -21.1 139.85 -20.4 140.6 -19.7 141.15 Q-16.55 143.65 -12.9 145.65 L-11.95 146.05 -11.6 146.1 -10.85 146.15 -7.9 146.05 -5.45 145.75 -4.05 145.55 Q-0.8 145.2 2.5 146.1 L3.95 146.35 Q5.9 146.6 7.85 146.4 L9.25 146.2 11.45 145.3 11.9 145.1 12.05 145.05 Q14.4 144.15 16.8 143.75 L18.0 143.55 20.5 143.05 M18.65 153.05 L21.75 152.25 Q24.3 151.45 26.3 149.6 27.8 146.55 31.35 145.6 L32.7 145.25 Q34.3 144.9 35.3 143.85 L35.7 143.4 Q36.4 142.55 37.25 142.5 L37.65 142.5 38.05 142.9 37.75 143.75 37.2 144.2 36.2 145.25 Q35.45 148.5 32.0 149.5 29.9 150.1 29.05 152.1 L28.8 152.4 28.75 152.45 Q25.45 154.35 21.75 155.05 L14.05 156.15 12.45 156.3 9.45 156.5 7.35 156.8 6.15 157.15 6.15 157.2 5.6 157.35 5.1 157.55 Q2.05 158.5 -0.65 156.85 L-1.85 156.2 -4.95 155.05 -5.6 154.85 Q-6.55 154.65 -7.45 154.85 L-15.9 155.65 -17.75 155.25 -18.1 155.1 -20.8 153.3 -23.65 150.2 -25.45 147.45 -27.3 144.1 -27.5 143.65 -29.35 143.0 -29.4 143.0 -31.2 142.4 -31.7 142.2 -32.05 142.05 -32.65 141.4 -32.65 141.2 -32.6 141.1 -32.45 141.0 -31.7 141.15 -29.8 141.6 -28.8 141.85 Q-28.15 142.05 -27.45 142.4 -25.9 143.1 -24.95 144.6 L-24.05 145.65 -22.3 147.2 -17.05 151.2 -15.4 152.1 -15.15 152.15 -15.05 152.15 -14.0 152.3 -9.7 152.35 -7.8 152.2 Q-4.35 151.8 -1.25 153.45 0.55 154.5 2.6 154.85 L4.2 154.8 Q9.2 153.6 14.35 153.45 L18.65 153.05" fill="#003dbb" fill-rule="evenodd" stroke="none"/>
    <path d="M1.95 8.75 L1.95 8.8 1.3 8.8 1.95 8.75 M10.3 7.25 L10.4 7.3 10.4 7.35 10.35 7.4 10.25 7.4 10.3 7.35 10.3 7.25 M11.9 145.1 L11.9 144.9 12.1 144.95 12.05 145.05 11.9 145.1 M-5.35 -33.9 L-5.3 -33.85 -5.35 -33.85 -5.35 -33.9 M-0.2 106.0 L0.05 106.3 -0.6 107.35 -0.4 105.95 -0.2 106.0 M-10.95 132.65 L-10.9 132.9 -11.15 132.6 -11.25 132.45 -11.1 132.35 -11.05 132.6 -10.95 132.65" fill="#003d79" fill-rule="evenodd" stroke="none"/>
    <path d="M26.2 60.0 L26.25 60.0 26.2 60.0 M-26.95 137.15 L-27.25 138.0 -28.8 141.85 -29.8 141.6 -31.7 141.15 -31.5 140.4 -31.0 137.35 -30.75 135.0 -30.65 135.1 -30.6 135.15 -30.65 136.15 -30.8 139.8 -30.2 140.55 -29.0 140.55 -27.95 137.35 -27.75 136.65 -26.95 137.15 M-33.2 151.5 L-33.55 150.85 -31.7 148.1 -33.2 151.5 M-32.9 143.9 L-32.05 142.05 -31.7 142.2 -31.2 142.4 -32.05 143.1 -32.9 143.9 M-30.75 134.3 L-30.75 134.2 -30.7 134.1 -30.7 134.05 -30.55 133.55 -30.55 134.3 -30.75 134.3 M-26.4 110.05 L-25.8 107.15 -25.65 109.65 -26.4 110.05 M-32.3 -31.5 L-32.5 -32.1 -32.3 -31.5 M-28.5 -22.7 L-29.6 -24.95 -29.0 -24.6 -28.5 -22.7 M-26.3 135.15 L-26.55 135.05 -26.7 134.9 -27.25 134.75 Q-25.3 127.4 -24.5 119.85 -24.2 127.75 -26.3 135.15 M-29.4 143.0 L-29.35 143.0 -29.4 143.05 -29.4 143.0" fill="#002953" fill-rule="evenodd" stroke="none"/>
    <path d="M-19.9 -19.25 Q-17.5 -18.8 -18.5 -16.5 L-18.85 -15.95 Q-21.65 -15.1 -21.55 -17.9 -21.45 -18.65 -20.95 -19.0 L-19.9 -19.25 M-13.8 -19.2 Q-11.45 -18.75 -12.55 -16.6 -13.15 -15.5 -14.3 -16.0 -16.35 -16.95 -14.85 -18.7 -14.45 -19.25 -13.8 -19.2 M-17.7 -14.05 Q-15.3 -14.15 -15.75 -11.9 -15.9 -11.35 -16.4 -10.9 -19.1 -10.5 -18.5 -13.2 L-17.9 -13.95 -17.7 -14.05" fill="#cc6699" fill-rule="evenodd" stroke="none"/>
    <path d="M-30.75 134.2 L-30.75 134.1 -30.7 134.1 -30.75 134.2 M-31.15 34.85 L-31.2 34.6 -31.05 34.7 -31.15 34.85 M-24.95 84.6 L-24.9 84.35 -24.9 84.6 -24.95 84.6 M-32.15 79.45 L-32.15 79.25 -32.1 79.25 -32.15 79.45" fill="#660099" fill-rule="evenodd" stroke="none"/>
    <path d="M-15.3 73.6 L-15.6 69.2 -15.3 71.35 Q-15.1 72.5 -15.3 73.6" fill="#996666" fill-rule="evenodd" stroke="none"/>
    <path d="M-33.2 82.95 L-33.2 82.9 -33.15 82.9 -33.2 82.95" fill="#3399cc" fill-rule="evenodd" stroke="none"/>
    <path d="M-23.75 101.75 L-23.7 101.6 -23.7 101.75 -23.75 101.75" fill="#666699" fill-rule="evenodd" stroke="none"/>
    <path d="M-23.75 101.8 L-23.75 101.75 -23.7 101.75 -23.75 101.8" fill="#496149" fill-rule="evenodd" stroke="none"/>
  </g>
</svg>
