<?xml version="1.0" encoding="UTF-8" standalone="no"?>
<svg xmlns:xlink="http://www.w3.org/1999/xlink" height="123.85px" width="37.5px" xmlns="http://www.w3.org/2000/svg">
  <g transform="matrix(1.0, 0.0, 0.0, 1.0, 24.15, 5.1)">
    <path d="M3.6 -4.4 L3.6 -4.45 3.95 -4.3 4.0 -4.3 Q6.55 -3.25 8.1 -1.05 9.8 1.35 10.75 4.15 11.7 6.95 12.1 9.85 L12.45 12.7 12.6 12.65 12.85 13.4 12.8 13.45 Q14.15 16.5 12.2 19.55 10.55 20.25 10.9 21.85 11.25 23.45 10.45 24.5 11.4 25.7 11.1 27.65 L10.35 31.15 9.1 32.1 Q8.35 32.45 8.85 33.35 9.2 34.6 9.05 36.0 8.9 37.35 9.7 38.6 L9.8 41.8 Q9.85 43.35 8.65 44.4 8.9 46.55 10.25 48.25 10.65 54.55 6.15 58.9 6.9 64.15 6.95 69.65 L8.5 69.8 Q9.35 69.55 10.1 70.15 8.85 70.55 8.55 71.85 L7.4 74.1 7.5 82.8 8.85 84.25 Q9.6 84.9 9.45 85.6 7.2 87.0 8.1 89.25 8.9 91.45 8.55 93.65 8.5 95.05 9.9 96.5 11.3 97.95 8.75 98.85 8.25 98.8 7.95 99.3 8.45 100.35 8.4 101.75 8.3 103.15 9.0 104.25 L8.95 108.35 Q8.85 110.4 6.65 111.25 2.95 112.0 -0.45 113.55 -3.8 115.05 -7.3 116.35 -11.1 118.15 -15.55 118.65 -20.05 119.15 -24.15 117.4 -24.3 113.45 -22.2 110.35 -20.15 107.2 -17.45 104.4 -18.25 102.5 -17.9 100.75 -15.25 100.25 -15.7 97.95 -16.25 95.65 -15.2 93.85 L-19.45 92.45 Q-18.25 90.1 -16.0 88.6 L-15.55 82.6 -17.55 80.5 Q-18.55 79.35 -17.7 77.8 -16.1 77.25 -14.65 75.9 L-14.25 73.65 Q-13.95 72.55 -14.95 71.75 -14.85 69.65 -16.25 68.3 -17.65 66.9 -18.3 65.1 -17.4 64.5 -16.25 64.6 -15.1 64.7 -14.15 64.2 L-13.5 58.85 -16.4 54.65 Q-17.8 52.45 -16.4 49.8 -14.95 46.95 -14.1 43.75 -15.5 42.65 -15.4 41.25 L-15.25 38.35 Q-14.95 36.35 -13.55 35.1 -14.1 32.75 -13.85 30.15 -15.2 29.6 -15.35 28.4 L-15.75 26.0 Q-15.35 23.9 -13.8 22.7 L-13.6 16.7 -14.2 16.1 -14.15 11.5 Q-13.95 9.05 -11.6 7.95 L-11.5 7.4 Q-11.85 6.75 -11.7 5.9 L-11.0 3.2 Q-10.05 0.6 -8.4 -1.55 -6.15 -4.5 -2.4 -5.1 L-0.85 -4.95 -2.1 -4.95 Q-3.25 -4.7 -4.25 -4.05 -7.3 -1.95 -9.0 1.4 -9.95 3.3 -10.2 5.35 L-10.15 5.3 -10.15 5.4 -10.35 6.25 -10.25 8.05 Q-4.35 8.75 1.3 10.15 6.9 11.6 11.65 14.95 L11.85 14.3 11.65 14.85 11.55 14.45 11.6 14.15 Q10.95 12.75 10.85 11.2 10.6 8.45 9.85 5.8 L9.15 2.95 8.2 0.05 Q7.15 -2.5 4.65 -3.8 L3.65 -4.4 3.6 -4.4 M-11.65 15.3 Q-4.8 14.6 1.7 16.45 L2.05 16.8 -5.05 16.45 -12.2 17.0 Q-12.1 19.8 -12.75 22.3 L-5.65 21.85 1.35 22.1 4.5 23.1 4.2 22.65 Q3.95 21.7 4.55 20.9 L4.45 18.7 Q4.25 17.3 5.75 17.25 L7.5 17.8 7.55 17.75 Q8.15 17.0 8.1 16.1 8.1 14.65 7.3 13.45 L7.25 13.4 1.95 11.3 -5.25 9.75 Q-8.9 8.95 -12.5 9.65 L-13.3 15.5 -11.65 15.3 M5.45 24.5 L4.55 24.3 -3.75 23.55 -12.25 23.1 Q-14.9 23.4 -14.95 26.15 -14.85 28.05 -13.65 29.35 L-12.55 29.2 Q-8.85 28.6 -4.5 29.0 L4.95 30.15 Q6.6 27.65 5.9 24.5 L5.45 24.5 M-12.45 42.6 Q-5.55 41.6 1.5 42.8 L2.6 42.85 Q5.55 43.05 7.1 45.2 L7.2 44.2 7.55 43.9 Q9.1 43.7 9.0 42.0 8.85 40.3 9.05 39.05 8.05 37.25 5.95 37.0 6.85 40.4 4.75 43.15 4.6 41.95 5.1 40.95 5.6 39.9 5.4 38.55 L4.95 37.3 4.7 36.7 Q1.85 35.85 -1.05 35.65 -3.75 35.4 -6.45 35.7 L-10.8 36.1 Q-12.95 36.0 -14.45 37.6 L-13.8 42.85 -12.65 42.65 -12.45 42.6 M3.8 35.65 L4.2 33.8 Q4.45 32.65 3.9 31.55 L3.8 31.15 4.75 31.3 -2.45 30.5 Q-7.9 30.1 -12.75 30.7 -12.4 32.9 -12.75 34.95 L-12.5 34.95 Q-4.15 33.75 3.8 35.65 M-13.85 45.95 L-14.05 46.6 -14.05 46.65 Q-14.45 48.1 -15.25 49.5 -16.05 50.95 -15.4 52.45 -14.85 54.55 -13.55 56.35 L-12.75 57.35 -12.65 57.15 Q-12.75 56.45 -12.1 56.35 L-11.0 55.95 -11.45 54.95 Q-11.75 54.45 -11.1 54.05 -8.85 55.1 -6.9 56.85 -5.0 58.55 -2.55 59.3 L-1.95 58.9 Q-1.9 57.7 -0.7 57.15 L-0.05 56.75 Q2.9 54.8 6.0 53.1 L6.0 53.0 6.0 52.15 5.75 51.2 5.65 51.0 4.55 50.0 Q2.6 47.6 0.1 46.15 L-1.3 46.0 -3.15 45.45 Q-4.55 44.6 -3.9 43.4 L-13.8 44.1 -13.85 45.95 M5.65 70.7 Q6.25 67.8 5.45 65.15 4.8 63.2 4.85 61.15 L4.95 59.65 5.0 59.3 Q1.7 58.7 -0.85 60.35 -3.5 61.75 -5.45 59.8 -7.4 57.75 -10.1 58.35 L-10.2 58.35 -10.65 58.35 -10.75 58.35 -10.8 58.35 -10.95 58.4 Q-12.6 58.7 -12.9 60.35 L-12.95 60.9 -12.95 61.1 Q-13.05 62.75 -13.45 64.15 L-13.8 65.1 -13.85 65.25 -13.9 65.3 -14.05 65.4 -16.05 65.95 -16.2 66.0 -16.3 66.0 -16.2 66.2 -15.7 67.1 -14.8 68.45 -14.75 68.65 -14.6 68.95 -14.25 69.6 Q-14.5 70.05 -14.0 70.5 L-13.9 70.55 -13.65 71.8 -13.55 72.15 -13.6 72.85 -14.05 75.05 -14.05 75.1 -14.65 76.45 -15.15 77.2 -15.2 77.25 -15.45 77.55 -16.6 78.75 -17.0 79.1 -16.8 79.3 -16.6 79.6 -15.1 81.65 -14.95 81.9 -14.65 82.3 -14.8 82.15 -14.55 82.45 -14.5 82.55 -14.45 82.9 -14.4 83.15 Q-14.2 85.5 -14.7 87.75 L-14.8 88.25 -15.0 88.85 -15.0 88.9 -14.85 88.9 -15.0 89.05 -15.0 89.4 -14.7 89.75 Q-16.45 90.35 -17.95 91.6 L-18.3 91.9 -14.25 92.65 Q-14.55 93.15 -14.2 93.75 L-13.75 93.65 -14.35 93.8 -14.35 94.15 -14.4 94.85 -14.45 95.15 -14.65 98.05 -14.65 98.5 -14.75 98.65 -14.85 99.1 -14.9 100.1 -14.85 100.45 -15.15 100.55 -17.0 101.1 Q-17.3 102.05 -16.6 103.05 -10.7 101.8 -5.25 103.3 L-4.55 103.5 Q-3.3 103.85 -2.05 104.55 L-1.4 104.9 -0.8 105.3 -0.6 105.45 0.1 105.95 Q2.55 107.85 3.1 110.7 L3.15 110.8 3.45 110.6 4.45 110.05 5.6 109.75 Q6.8 109.6 7.9 108.45 8.05 106.25 7.35 104.15 6.6 101.95 7.15 99.55 L7.45 99.15 Q7.95 98.55 8.7 98.35 L9.25 98.25 Q8.85 96.55 7.15 95.6 L7.1 95.6 6.45 90.3 Q6.25 89.15 6.55 88.15 6.9 86.7 8.2 85.55 L7.45 84.75 6.7 83.45 6.6 83.1 Q6.2 79.9 6.25 76.6 6.3 75.15 6.65 73.85 L6.9 73.1 7.25 72.3 7.3 72.15 7.4 71.9 7.8 71.2 7.85 71.15 8.0 70.9 8.2 70.65 8.05 70.7 5.6 70.9 5.65 70.7 M-23.6 115.6 L-23.65 115.7 Q-24.0 116.85 -22.8 117.2 -16.15 118.5 -10.35 116.35 -4.65 114.2 0.65 111.05 L0.1 108.65 -3.4 105.45 Q-6.65 104.45 -10.15 104.05 -13.8 103.6 -16.85 105.2 L-20.25 109.3 Q-22.1 111.2 -23.05 113.7 L-23.6 115.6 M8.75 50.45 L8.7 50.4 8.75 50.7 8.75 50.45 M8.5 24.3 L7.55 24.05 6.8 24.25 Q7.3 27.65 5.85 30.55 L6.4 30.7 8.05 31.05 Q8.9 31.35 9.35 30.6 L9.8 28.0 Q10.1 26.6 9.15 25.6 L9.05 24.8 Q8.7 24.65 8.5 24.3 M8.65 14.05 Q9.3 16.35 8.3 18.2 L9.9 19.4 10.35 19.9 Q12.25 18.4 11.75 16.1 10.45 14.7 8.65 14.05" fill="#000000" fill-rule="evenodd" stroke="none"/>
    <path d="M3.6 -4.4 L3.65 -4.4 4.65 -3.8 Q7.15 -2.5 8.2 0.05 L9.15 2.95 9.85 5.8 Q10.6 8.45 10.85 11.2 10.95 12.75 11.6 14.15 L11.55 14.45 11.65 14.85 11.85 14.3 11.65 14.95 Q6.9 11.6 1.3 10.15 -4.35 8.75 -10.25 8.05 L-10.35 6.25 -10.05 5.65 -9.85 5.25 -10.15 5.3 -10.2 5.35 Q-9.95 3.3 -9.0 1.4 -7.3 -1.95 -4.25 -4.05 -3.25 -4.7 -2.1 -4.95 L-0.85 -4.95 3.3 -4.5 3.6 -4.4 M-11.65 15.3 Q-11.25 14.75 -11.2 14.0 L-10.95 12.75 Q-10.65 12.05 -10.65 11.3 L-10.6 11.15 -5.7 10.85 Q0.3 11.6 6.1 13.2 L7.3 13.45 Q8.1 14.65 8.1 16.1 8.15 17.0 7.55 17.75 L7.5 17.8 5.75 17.25 Q4.25 17.3 4.45 18.7 L4.55 20.9 Q3.95 21.7 4.2 22.65 L4.5 23.1 1.35 22.1 -5.65 21.85 -12.75 22.3 Q-12.1 19.8 -12.2 17.0 L-5.05 16.45 2.05 16.8 1.7 16.45 Q-4.8 14.6 -11.65 15.3 M-12.55 29.2 Q-12.2 27.95 -12.45 26.55 -12.55 25.75 -12.25 25.0 -10.9 24.4 -9.4 24.2 -5.15 23.7 -0.9 24.1 L2.65 24.65 5.3 24.6 5.45 24.5 5.9 24.5 Q6.6 27.65 4.95 30.15 L-4.5 29.0 Q-8.85 28.6 -12.55 29.2 M-12.45 42.6 L-12.4 42.35 -11.75 38.45 Q-11.2 37.85 -10.4 37.6 -6.05 36.4 -1.65 36.35 L-1.6 36.3 0.4 36.6 3.4 37.1 3.9 37.2 4.95 37.3 5.4 38.55 Q5.6 39.9 5.1 40.95 4.6 41.95 4.75 43.15 6.85 40.4 5.95 37.0 8.05 37.25 9.05 39.05 8.85 40.3 9.0 42.0 9.1 43.7 7.55 43.9 L7.2 44.2 7.1 45.2 Q5.55 43.05 2.6 42.85 L1.5 42.8 Q-5.55 41.6 -12.45 42.6 M3.8 35.65 Q-4.15 33.75 -12.5 34.95 L-12.75 34.95 Q-12.4 32.9 -12.75 30.7 -7.9 30.1 -2.45 30.5 L4.75 31.3 3.8 31.15 3.9 31.55 Q4.45 32.65 4.2 33.8 L3.8 35.65 M-13.55 56.35 L-13.35 56.35 Q-12.85 55.95 -12.85 55.35 -12.95 53.65 -13.7 52.05 -14.05 51.3 -13.7 50.6 -12.55 48.15 -13.0 45.7 L-13.25 45.6 -13.55 45.45 -13.55 45.5 -13.8 45.55 -13.85 45.95 -13.8 44.1 -3.9 43.4 Q-4.55 44.6 -3.15 45.45 L-1.3 46.0 0.1 46.15 Q2.6 47.6 4.55 50.0 L5.65 51.0 5.75 51.2 6.0 52.15 6.0 53.0 6.0 53.1 Q2.9 54.8 -0.05 56.75 L-0.7 57.15 Q-1.9 57.7 -1.95 58.9 L-2.55 59.3 Q-5.0 58.55 -6.9 56.85 -8.85 55.1 -11.1 54.05 -11.75 54.45 -11.45 54.95 L-11.0 55.95 -12.1 56.35 Q-12.75 56.45 -12.65 57.15 L-12.75 57.35 -13.55 56.35 M-3.6 57.1 Q-2.4 55.75 -3.45 54.3 L-4.75 53.7 -5.1 53.6 -6.1 53.25 -7.5 52.6 -9.2 51.45 -9.3 51.35 -9.8 52.1 -9.7 52.8 -7.65 55.15 -6.95 55.85 Q-5.55 57.6 -3.6 57.1 M-10.15 104.05 Q-6.65 104.45 -3.4 105.45 L0.1 108.65 0.65 111.05 Q-4.65 114.2 -10.35 116.35 -16.15 118.5 -22.8 117.2 -24.0 116.85 -23.65 115.7 L-23.6 115.6 Q-23.35 115.95 -22.55 115.9 L-21.65 114.75 -18.75 109.3 -17.5 107.9 -16.2 106.6 Q-13.4 104.95 -10.25 104.25 L-10.05 104.05 -10.15 104.05 M-11.15 110.75 Q-11.1 108.5 -13.45 108.5 -15.35 109.0 -16.35 110.65 -17.1 111.8 -16.25 112.8 -15.3 113.95 -13.7 113.25 -12.7 112.8 -11.85 112.15 -11.15 111.65 -11.15 110.75 M8.65 14.05 Q10.45 14.7 11.75 16.1 12.25 18.4 10.35 19.9 L9.9 19.4 8.3 18.2 Q9.3 16.35 8.65 14.05 M8.5 24.3 Q8.7 24.65 9.05 24.8 L9.15 25.6 Q10.1 26.6 9.8 28.0 L9.35 30.6 Q8.9 31.35 8.05 31.05 L6.4 30.7 5.85 30.55 Q7.3 27.65 6.8 24.25 L7.55 24.05 8.5 24.3 M8.75 50.45 L8.75 50.7 8.7 50.4 8.75 50.45" fill="#003333" fill-rule="evenodd" stroke="none"/>
    <path d="M-10.35 6.25 L-10.15 5.4 -10.15 5.3 -9.85 5.25 -10.05 5.65 -10.35 6.25 M7.3 13.45 L6.1 13.2 Q0.3 11.6 -5.7 10.85 L-10.6 11.15 -10.65 11.3 Q-10.65 12.05 -10.95 12.75 L-11.2 14.0 Q-11.25 14.75 -11.65 15.3 L-13.3 15.5 -12.5 9.65 Q-8.9 8.95 -5.25 9.75 L1.95 11.3 7.25 13.4 7.3 13.45 M5.45 24.5 L5.3 24.6 2.65 24.65 -0.9 24.1 Q-5.15 23.7 -9.4 24.2 -10.9 24.4 -12.25 25.0 -12.55 25.75 -12.45 26.55 -12.2 27.95 -12.55 29.2 L-13.65 29.35 Q-14.85 28.05 -14.95 26.15 -14.9 23.4 -12.25 23.1 L-3.75 23.55 4.55 24.3 5.45 24.5 M4.95 37.3 L3.9 37.2 3.4 37.1 0.4 36.6 -1.6 36.3 -1.65 36.35 Q-6.05 36.4 -10.4 37.6 -11.2 37.85 -11.75 38.45 L-12.4 42.35 -12.45 42.6 -12.65 42.65 -13.8 42.85 -14.45 37.6 Q-12.95 36.0 -10.8 36.1 L-6.45 35.7 Q-3.75 35.4 -1.05 35.65 1.85 35.85 4.7 36.7 L4.95 37.3 M-13.55 56.35 Q-14.85 54.55 -15.4 52.45 -16.05 50.95 -15.25 49.5 -14.45 48.1 -14.05 46.65 L-14.05 46.6 -13.85 45.95 -13.8 45.55 -13.55 45.5 -13.55 45.45 -13.25 45.6 -13.0 45.7 Q-12.55 48.15 -13.7 50.6 -14.05 51.3 -13.7 52.05 -12.95 53.65 -12.85 55.35 -12.85 55.95 -13.35 56.35 L-13.55 56.35 M-3.6 57.1 Q-5.55 57.6 -6.95 55.85 L-7.65 55.15 -9.7 52.8 -9.8 52.1 -9.3 51.35 -9.2 51.45 -7.5 52.6 -6.1 53.25 -5.1 53.6 -4.75 53.7 -3.45 54.3 Q-2.4 55.75 -3.6 57.1" fill="#606060" fill-rule="evenodd" stroke="none"/>
    <path d="M-12.9 60.35 Q-12.6 58.7 -10.95 58.4 L-10.8 58.35 -10.75 58.35 -10.65 58.35 -10.2 58.35 -10.1 58.35 Q-7.4 57.75 -5.45 59.8 -3.5 61.75 -0.85 60.35 1.7 58.7 5.0 59.3 L4.95 59.65 4.85 61.15 Q4.8 63.2 5.45 65.15 6.25 67.8 5.65 70.7 L5.35 71.15 5.3 71.2 5.2 71.9 5.4 72.75 Q5.65 73.4 6.4 73.8 L6.65 73.9 6.65 73.85 Q6.3 75.15 6.25 76.6 6.2 79.9 6.6 83.1 L6.7 83.45 6.3 83.45 Q5.35 84.15 5.05 85.1 L4.9 85.8 4.9 86.85 5.1 87.35 5.15 87.4 5.25 87.55 Q5.75 88.1 6.55 88.15 6.25 89.15 6.45 90.3 L7.1 95.6 7.15 95.6 Q6.9 96.65 6.95 97.7 L7.15 98.65 7.45 99.15 7.15 99.55 Q6.6 101.95 7.35 104.15 8.05 106.25 7.9 108.45 6.8 109.6 5.6 109.75 L4.45 110.05 3.45 110.6 3.4 110.5 3.1 110.7 Q2.55 107.85 0.1 105.95 L-0.6 105.45 -0.8 105.3 -1.4 104.9 -2.05 104.55 -1.5 103.75 -0.65 103.0 -0.2 103.3 0.1 103.5 0.8 103.95 1.0 104.1 2.5 105.05 2.9 105.3 4.3 106.1 2.2 103.6 2.15 103.55 0.3 101.85 0.15 101.7 0.15 101.75 0.1 101.65 0.05 101.65 Q-0.25 101.5 -0.5 101.5 L-0.55 101.5 -1.25 101.6 -1.6 101.85 -2.95 101.45 -3.85 101.25 -4.9 100.6 -3.85 100.85 Q-4.7 100.3 -5.65 100.0 L-6.95 99.7 -6.8 99.45 Q-6.3 99.0 -5.65 99.05 L-1.25 99.65 1.0 100.4 Q-0.4 96.4 -0.25 92.05 L-0.25 91.95 -0.15 91.9 Q1.35 91.25 1.25 89.6 L1.15 88.4 1.15 88.35 0.9 87.7 0.5 87.2 0.45 87.2 0.05 86.95 0.05 86.9 0.1 86.45 Q0.25 81.3 -0.05 76.25 L-0.25 73.4 -0.4 71.25 -0.45 71.0 0.0 70.95 -0.25 71.75 Q0.55 71.45 0.8 70.7 L0.9 69.9 Q0.35 68.45 1.2 67.25 L1.85 66.05 1.95 65.8 2.05 64.75 1.85 64.9 1.85 64.85 1.7 65.0 -0.6 65.95 -0.85 66.0 -1.15 62.85 -0.4 62.7 Q-3.5 63.25 -6.8 62.55 L-7.45 62.15 -8.6 61.3 -8.75 61.15 -9.1 61.2 -10.35 61.25 -11.0 61.2 -12.9 60.35" fill="#9b4600" fill-rule="evenodd" stroke="none"/>
    <path d="M3.45 110.6 L3.15 110.8 3.1 110.7 3.4 110.5 3.45 110.6 M-2.05 104.55 Q-3.3 103.85 -4.55 103.5 -4.45 102.75 -3.75 102.4 L-3.75 102.25 -3.7 101.85 -3.65 101.4 -3.65 101.35 -3.85 101.25 -2.95 101.45 -1.6 101.85 -1.25 101.6 -1.9 102.2 -0.65 103.0 -1.5 103.75 -2.05 104.55 M-15.15 100.55 L-14.85 100.45 -14.7 100.4 -11.55 99.3 Q-12.0 98.4 -12.9 98.55 L-14.65 98.5 -14.65 98.05 -13.85 97.7 Q-11.45 96.95 -8.85 97.15 L-7.4 97.05 -8.1 97.15 Q-8.45 96.1 -8.3 95.0 -7.45 87.65 -6.05 80.45 L-5.8 79.15 -5.85 78.3 -8.6 78.6 -9.3 78.4 Q-11.0 77.45 -11.2 75.65 L-11.05 74.5 Q-11.15 75.6 -10.35 76.6 -9.3 77.8 -8.0 78.1 L-8.0 78.2 Q-6.65 78.7 -5.75 77.65 -4.8 76.9 -4.95 76.0 -4.45 74.75 -4.8 73.3 -5.05 72.45 -5.5 71.9 -6.15 71.2 -7.15 70.95 L-8.3 71.15 -7.9 70.9 -5.9 71.0 -5.55 66.1 -5.6 65.7 Q-5.8 64.35 -5.35 63.25 L-6.8 62.55 Q-3.5 63.25 -0.4 62.7 L-1.15 62.85 -0.85 66.0 -3.35 66.1 Q-3.35 66.55 -3.15 66.6 L-3.45 67.55 -3.35 68.7 -2.9 69.7 Q-1.95 71.15 -0.4 71.25 L-0.25 73.4 -0.05 76.25 Q0.25 81.3 0.1 86.45 -0.75 85.95 -1.7 85.55 L-2.0 85.5 -3.65 85.4 -4.7 86.0 -5.35 86.85 -5.55 87.7 -5.45 87.15 -5.55 87.2 -5.75 87.75 -5.9 88.45 -5.9 89.2 Q-5.8 90.35 -5.1 91.25 L-4.4 91.85 -3.05 92.45 -1.5 92.65 -1.5 92.6 -1.45 92.55 -0.85 92.6 -0.7 92.45 -0.65 92.4 -0.55 92.35 -0.4 92.35 -0.55 92.3 -0.65 92.25 -0.65 92.2 -0.25 92.05 Q-0.4 96.4 1.0 100.4 L-1.25 99.65 -5.65 99.05 Q-6.3 99.0 -6.8 99.45 L-6.95 99.7 -8.1 99.55 Q-8.7 99.55 -8.75 100.1 L-10.1 100.15 -12.5 100.55 -14.7 100.7 -15.15 100.55 M-14.45 95.15 L-14.4 94.85 -14.3 95.0 -13.35 95.55 -12.55 95.65 Q-13.7 95.8 -14.45 95.15 M-14.05 75.1 L-14.05 75.05 Q-13.65 75.1 -13.3 75.3 L-13.95 75.1 -14.05 75.1 M-13.6 72.85 L-13.55 72.15 -13.55 72.0 Q-12.35 71.15 -11.75 70.0 L-11.9 69.8 -11.65 68.9 -11.55 68.1 -11.55 68.05 -11.55 67.95 -11.55 67.85 Q-11.55 67.2 -11.7 66.6 L-11.75 66.4 Q-11.9 65.75 -12.2 65.2 L-12.55 64.55 Q-12.85 64.0 -13.4 63.9 L-13.3 63.6 Q-11.6 63.85 -10.65 65.45 -10.1 66.4 -9.95 67.5 -9.65 70.2 -11.85 72.05 L-13.1 72.75 -13.6 72.85 M-12.95 61.1 L-12.95 60.9 -12.9 60.35 -11.0 61.2 -10.35 61.25 -12.95 61.1 M-3.25 71.4 Q-3.35 70.25 -3.9 69.25 -4.5 70.45 -3.25 71.4 M-5.05 88.55 L-5.0 88.35 -5.25 88.35 -5.0 88.3 -5.05 88.55" fill="#c16100" fill-rule="evenodd" stroke="none"/>
    <path d="M6.9 73.1 L6.65 73.85 6.65 73.9 6.9 73.1 M-4.55 103.5 L-5.25 103.3 Q-10.7 101.8 -16.6 103.05 -17.3 102.05 -17.0 101.1 L-15.15 100.55 -14.7 100.7 -12.5 100.55 -10.1 100.15 -8.75 100.1 -8.75 100.2 -4.9 100.6 -3.85 101.25 -3.65 101.35 -3.65 101.4 -3.7 101.85 -3.75 102.25 -3.75 102.4 Q-4.45 102.75 -4.55 103.5 M-14.65 98.05 L-14.45 95.15 Q-13.7 95.8 -12.55 95.65 L-12.4 95.65 -12.0 95.5 -11.95 95.5 -10.85 94.9 -11.2 95.0 -13.1 95.15 -13.5 94.8 -13.8 94.4 Q-14.0 94.05 -14.35 94.15 L-14.35 93.8 -13.75 93.65 -12.3 92.6 -12.0 91.95 Q-12.05 90.25 -12.35 88.65 -11.35 88.8 -10.45 89.3 L-10.1 89.45 -9.85 89.55 -10.1 89.05 Q-10.55 88.15 -11.25 87.75 L-11.6 87.5 Q-12.5 86.9 -13.5 86.9 L-14.3 87.0 -14.55 87.15 -14.55 87.2 -14.7 87.75 Q-14.2 85.5 -14.4 83.15 L-13.1 82.95 Q-12.05 82.25 -11.55 81.35 L-12.0 81.6 -12.55 81.95 Q-13.4 82.4 -14.35 82.65 L-14.5 82.5 -14.55 82.45 -14.8 82.15 -14.65 82.3 -14.5 82.5 -14.35 80.25 -14.2 77.35 Q-12.65 77.35 -11.75 78.3 L-11.55 78.95 -11.45 79.45 -11.25 80.05 -11.25 80.0 -11.25 79.55 -11.25 79.0 -11.3 78.75 -11.45 78.3 -11.45 78.25 -11.5 78.15 -11.55 78.0 -11.9 77.0 -11.95 76.8 Q-12.45 75.7 -13.3 75.3 -13.65 75.1 -14.05 75.05 L-13.6 72.85 -13.1 72.75 -11.85 72.05 Q-9.65 70.2 -9.95 67.5 -10.1 66.4 -10.65 65.45 -11.6 63.85 -13.3 63.6 L-13.4 63.9 -13.45 64.15 Q-13.05 62.75 -12.95 61.1 L-10.35 61.25 -9.1 61.2 -8.75 61.15 -8.6 61.3 -7.45 62.15 -6.8 62.55 -5.35 63.25 Q-5.8 64.35 -5.6 65.7 L-5.55 66.1 -5.9 71.0 -7.9 70.9 -8.3 71.15 -8.35 71.15 Q-8.85 71.4 -9.25 71.75 L-11.0 74.25 -11.0 74.35 -11.05 74.4 -11.05 74.5 -11.2 75.65 Q-11.0 77.45 -9.3 78.4 L-8.6 78.6 -5.85 78.3 -5.8 79.15 -6.05 80.45 Q-7.45 87.65 -8.3 95.0 -8.45 96.1 -8.1 97.15 L-7.4 97.05 -8.85 97.15 Q-11.45 96.95 -13.85 97.7 L-14.65 98.05 M-15.0 88.9 L-15.0 88.85 -15.0 88.9 M-13.9 70.55 L-14.0 70.5 Q-14.5 70.05 -14.25 69.6 L-13.9 69.2 Q-13.15 68.6 -13.3 67.85 L-13.35 67.7 -13.45 67.8 Q-13.2 67.25 -13.2 66.55 L-13.3 65.8 -13.25 65.8 -13.15 65.8 Q-12.3 65.8 -11.8 66.25 L-11.75 66.4 -11.7 66.6 Q-11.55 67.2 -11.55 67.85 L-11.55 67.95 -11.55 68.05 -11.55 68.1 -11.65 68.9 -11.9 69.8 -12.05 69.65 Q-12.6 69.85 -12.95 70.4 -13.4 70.9 -13.9 70.55 M-16.2 66.2 L-16.3 66.0 -16.2 66.0 -16.05 65.95 -16.2 66.2 M0.45 87.2 L0.5 87.2 0.9 87.7 1.15 88.35 1.15 88.4 1.25 89.6 Q1.35 91.25 -0.15 91.9 L-0.25 91.95 -0.25 92.05 -0.65 92.2 -1.4 92.25 -1.45 92.25 -2.2 92.1 -2.3 92.1 Q-3.35 91.4 -3.6 90.25 L-3.55 90.25 -3.3 90.35 -2.75 90.55 -1.3 90.95 -0.2 91.2 0.65 91.4 0.7 90.6 -0.05 89.3 -0.25 89.05 -1.4 87.55 -2.25 87.35 -1.2 86.95 Q-0.25 86.85 0.45 87.2 M-7.85 77.75 L-8.7 76.9 -8.95 76.5 -9.05 75.8 -8.45 76.1 -7.85 76.15 -7.7 76.15 Q-6.15 75.5 -6.2 73.65 -6.75 72.55 -8.0 72.55 L-7.6 72.15 -6.45 71.75 -5.6 71.85 -5.5 71.9 Q-5.05 72.45 -4.8 73.3 -4.45 74.75 -4.95 76.0 L-5.0 75.85 -6.05 77.35 Q-6.45 77.95 -7.25 77.75 L-7.85 77.75" fill="#cc7a00" fill-rule="evenodd" stroke="none"/>
    <path d="M-14.85 88.9 L-15.0 88.9 -15.0 88.85 -14.8 88.25 Q-14.65 87.95 -14.35 87.85 L-13.5 87.5 -13.4 87.5 -13.3 87.45 -13.2 87.45 -13.05 87.45 -11.65 87.6 -11.25 87.8 -11.25 87.75 Q-10.55 88.15 -10.1 89.05 L-9.85 89.55 -10.1 89.45 -10.45 89.3 Q-11.35 88.8 -12.35 88.65 L-12.4 88.35 -14.85 88.9 M-14.45 82.9 L-14.5 82.55 -14.55 82.45 -14.5 82.5 -14.35 82.65 -14.45 82.65 -14.45 82.9 M-15.15 77.2 L-14.65 76.45 -15.15 77.2 M-13.85 65.25 L-13.8 65.1 -13.45 64.15 -13.4 63.9 Q-12.85 64.0 -12.55 64.55 L-12.2 65.2 Q-11.9 65.75 -11.75 66.4 L-11.8 66.25 Q-12.3 65.8 -13.15 65.8 L-13.25 65.8 -13.3 65.8 Q-13.45 65.4 -13.8 65.15 L-13.85 65.25 M0.0 70.95 L-0.45 71.0 -0.4 71.25 Q-1.95 71.15 -2.9 69.7 L-3.35 68.7 -3.45 67.55 -3.15 66.6 -2.95 66.55 -2.1 66.5 -2.0 67.85 -0.55 69.5 0.25 70.0 0.0 70.95 M0.05 86.9 L0.05 86.95 0.45 87.2 Q-0.25 86.85 -1.2 86.95 L-2.25 87.35 -2.9 87.5 Q-3.5 87.7 -3.95 88.35 -4.2 89.35 -3.65 90.15 L-3.6 90.25 Q-3.35 91.4 -2.3 92.1 L-2.2 92.1 -3.15 91.8 Q-5.15 90.9 -5.05 88.65 L-5.05 88.55 -5.0 88.3 Q-4.8 87.25 -3.95 86.5 L-3.2 86.0 Q-1.2 85.7 0.05 86.9 M-8.3 71.15 L-7.15 70.95 Q-6.15 71.2 -5.5 71.9 L-5.6 71.85 -6.45 71.75 -7.6 72.15 -8.0 72.55 -8.05 72.55 Q-9.35 73.5 -9.6 74.95 L-9.05 75.8 -8.95 76.5 -8.7 76.9 -7.85 77.75 -8.0 78.1 Q-9.3 77.8 -10.35 76.6 -11.15 75.6 -11.05 74.5 L-11.05 74.4 -11.0 74.35 -11.0 74.25 -9.25 71.75 Q-8.85 71.4 -8.35 71.15 L-8.3 71.15 M-14.35 76.45 L-14.25 76.4 -14.2 76.35 -14.15 76.25 -14.05 76.15 -14.0 76.15 Q-13.45 76.05 -13.0 76.4 -12.35 76.85 -12.05 77.55 L-11.75 78.3 Q-12.65 77.35 -14.2 77.35 L-14.2 77.3 Q-14.2 76.75 -14.35 76.45 M-11.25 79.55 L-11.3 78.75 -11.25 79.0 -11.25 79.55" fill="#e8ae00" fill-rule="evenodd" stroke="none"/>
    <path d="M8.05 70.7 L8.2 70.65 8.0 70.9 7.85 71.15 7.8 71.2 7.4 71.9 7.3 72.15 7.25 72.3 6.9 73.1 6.65 73.9 6.4 73.8 Q5.65 73.4 5.4 72.75 L5.2 71.9 5.3 71.2 5.3 71.25 Q5.4 71.95 6.15 72.0 7.15 72.05 7.8 71.15 L8.05 70.7 M7.45 84.75 L8.2 85.55 Q6.9 86.7 6.55 88.15 5.75 88.1 5.25 87.55 L5.15 87.4 5.1 87.35 4.9 86.85 4.9 85.8 Q5.1 86.3 6.0 86.15 L6.85 85.45 7.45 84.75 M7.15 95.6 Q8.85 96.55 9.25 98.25 L8.7 98.35 Q7.95 98.55 7.45 99.15 L7.15 98.65 6.95 97.7 Q6.9 96.65 7.15 95.6 M-14.25 92.65 L-18.3 91.9 -17.95 91.6 -17.95 91.7 -17.7 91.9 Q-15.7 91.95 -13.9 91.0 L-13.75 90.85 Q-13.45 89.9 -14.05 89.55 L-13.35 89.4 -12.9 90.35 Q-12.65 92.15 -14.15 92.7 L-14.25 92.65 M-14.65 82.3 L-14.95 81.9 -15.1 81.65 -16.6 79.6 Q-16.05 79.75 -15.4 79.3 L-14.95 78.8 Q-14.45 77.85 -15.45 77.55 L-15.2 77.25 -15.15 77.2 -14.65 76.45 -14.55 76.25 -14.35 76.45 Q-14.2 76.75 -14.2 77.3 L-14.2 77.35 -14.35 80.25 -14.5 82.5 -14.65 82.3 M-14.8 68.45 L-15.7 67.1 -14.35 66.85 Q-13.75 66.35 -13.9 65.65 L-14.05 65.4 -13.9 65.3 -13.85 65.25 -13.8 65.15 Q-13.45 65.4 -13.3 65.8 L-13.2 66.55 Q-13.2 67.25 -13.45 67.8 L-14.7 68.55 -14.8 68.45 M-8.0 73.35 Q-7.25 73.4 -7.05 74.15 -7.05 75.05 -8.0 75.4 -8.55 75.4 -8.8 75.0 L-8.8 74.4 -8.65 74.5 -7.9 74.4 Q-7.35 73.8 -7.65 73.45 L-8.0 73.35 M-0.75 68.7 Q-1.3 68.2 -1.35 67.45 L0.95 66.1 Q0.6 67.6 -0.75 68.7 M-0.65 89.65 L-0.3 90.55 Q-2.05 90.0 -3.4 89.15 L-3.25 88.65 Q-2.55 90.05 -0.8 89.8 L-0.65 89.65" fill="#a8a8a8" fill-rule="evenodd" stroke="none"/>
    <path d="M5.65 70.7 L5.6 70.9 8.05 70.7 7.8 71.15 Q7.15 72.05 6.15 72.0 5.4 71.95 5.3 71.25 L5.3 71.2 5.35 71.15 5.65 70.7 M6.7 83.45 L7.45 84.75 6.85 85.45 6.0 86.15 Q5.1 86.3 4.9 85.8 L5.05 85.1 Q5.35 84.15 6.3 83.45 L6.7 83.45 M-17.95 91.6 Q-16.45 90.35 -14.7 89.75 L-14.05 89.55 Q-13.45 89.9 -13.75 90.85 L-13.9 91.0 Q-15.7 91.95 -17.7 91.9 L-17.95 91.7 -17.95 91.6 M-16.6 79.6 L-16.8 79.3 -17.0 79.1 -16.6 78.75 -15.45 77.55 Q-14.45 77.85 -14.95 78.8 L-15.4 79.3 Q-16.05 79.75 -16.6 79.6 M-15.7 67.1 L-16.2 66.2 -16.05 65.95 -14.05 65.4 -13.9 65.65 Q-13.75 66.35 -14.35 66.85 L-15.7 67.1 M-8.0 73.35 L-7.65 73.45 Q-7.35 73.8 -7.9 74.4 L-8.65 74.5 -8.8 74.4 -8.55 74.1 Q-8.05 73.8 -8.1 73.35 L-8.0 73.35 M-3.25 88.65 Q-2.95 88.0 -2.2 87.8 -1.2 88.55 -0.65 89.65 L-0.8 89.8 Q-2.55 90.05 -3.25 88.65" fill="#ffffff" fill-rule="evenodd" stroke="none"/>
    <path d="M-14.85 100.45 L-14.9 100.1 -14.85 99.1 -14.75 98.65 -14.65 98.5 -12.9 98.55 Q-12.0 98.4 -11.55 99.3 L-14.7 100.4 -14.85 100.45 M-14.4 94.85 L-14.35 94.15 Q-14.0 94.05 -13.8 94.4 L-13.5 94.8 -13.1 95.15 -11.2 95.0 -10.85 94.9 -11.95 95.5 -12.0 95.5 -12.4 95.65 -12.55 95.65 -13.35 95.55 -14.3 95.0 -14.4 94.85 M-13.75 93.65 L-14.2 93.75 Q-14.55 93.15 -14.25 92.65 L-14.15 92.7 Q-12.65 92.15 -12.9 90.35 L-13.35 89.4 -14.05 89.55 -14.7 89.75 -15.0 89.4 -15.0 89.05 -14.85 88.9 -12.4 88.35 -12.35 88.65 Q-12.05 90.25 -12.0 91.95 L-12.3 92.6 -13.75 93.65 M-14.8 88.25 L-14.7 87.75 -14.55 87.2 -14.55 87.15 -14.3 87.0 -13.5 86.9 Q-12.5 86.9 -11.6 87.5 L-11.25 87.75 -11.25 87.8 -11.65 87.6 -13.05 87.45 -13.2 87.45 -13.3 87.45 -13.4 87.5 -13.5 87.5 -14.35 87.85 Q-14.65 87.95 -14.8 88.25 M-14.4 83.15 L-14.45 82.9 -14.45 82.65 -14.35 82.65 Q-13.4 82.4 -12.55 81.95 L-12.0 81.6 -11.55 81.35 Q-12.05 82.25 -13.1 82.95 L-14.4 83.15 M-14.65 76.45 L-14.05 75.1 -13.95 75.1 -13.3 75.3 Q-12.45 75.7 -11.95 76.8 L-11.9 77.0 -11.55 78.0 -11.5 78.15 -11.45 78.25 -11.45 78.3 -11.3 78.75 -11.25 79.55 -11.25 80.0 -11.25 80.05 -11.45 79.45 -11.55 78.95 -11.75 78.3 -12.05 77.55 Q-12.35 76.85 -13.0 76.4 -13.45 76.05 -14.0 76.15 L-14.05 76.15 -14.15 76.25 -14.2 76.35 -14.25 76.4 -14.35 76.45 -14.55 76.25 -14.65 76.45 M-13.55 72.15 L-13.65 71.8 -13.9 70.55 Q-13.4 70.9 -12.95 70.4 -12.6 69.85 -12.05 69.65 L-11.9 69.8 -11.75 70.0 Q-12.35 71.15 -13.55 72.0 L-13.55 72.15 M-14.25 69.6 L-14.6 68.95 -14.75 68.65 -14.8 68.45 -14.7 68.55 -13.45 67.8 -13.35 67.7 -13.3 67.85 Q-13.15 68.6 -13.9 69.2 L-14.25 69.6 M-0.85 66.0 L-0.6 65.95 1.7 65.0 1.85 64.85 1.85 64.9 2.05 64.75 1.95 65.8 1.85 66.05 1.2 67.25 Q0.35 68.45 0.9 69.9 L0.8 70.7 Q0.55 71.45 -0.25 71.75 L0.0 70.95 0.25 70.0 -0.55 69.5 -2.0 67.85 -2.1 66.5 -2.95 66.55 -3.15 66.6 Q-3.35 66.55 -3.35 66.1 L-0.85 66.0 M0.1 86.45 L0.05 86.9 Q-1.2 85.7 -3.2 86.0 L-3.95 86.5 Q-4.8 87.25 -5.0 88.3 L-5.25 88.35 -5.0 88.35 -5.05 88.55 -5.05 88.65 Q-5.15 90.9 -3.15 91.8 L-2.2 92.1 -1.45 92.25 -1.4 92.25 -0.65 92.2 -0.65 92.25 -0.55 92.3 -0.4 92.35 -0.55 92.35 -0.65 92.4 -0.7 92.45 -0.85 92.6 -1.45 92.55 -1.5 92.6 -1.5 92.65 -3.05 92.45 -4.4 91.85 -5.1 91.25 Q-5.8 90.35 -5.9 89.2 L-5.9 88.45 -5.75 87.75 -5.55 87.2 -5.45 87.15 -5.55 87.7 -5.35 86.85 -4.7 86.0 -3.65 85.4 -2.0 85.5 -1.7 85.55 Q-0.75 85.95 0.1 86.45 M-6.95 99.7 L-5.65 100.0 Q-4.7 100.3 -3.85 100.85 L-4.9 100.6 -8.75 100.2 -8.75 100.1 Q-8.7 99.55 -8.1 99.55 L-6.95 99.7 M-1.25 101.6 L-0.55 101.5 -0.5 101.5 Q-0.25 101.5 0.05 101.65 L0.1 101.65 0.15 101.75 0.15 101.7 0.3 101.85 2.15 103.55 2.2 103.6 4.3 106.1 2.9 105.3 2.5 105.05 1.0 104.1 0.8 103.95 0.1 103.5 -0.2 103.3 -0.65 103.0 -1.9 102.2 -1.25 101.6 M-8.0 78.1 L-7.85 77.75 -7.25 77.75 Q-6.45 77.95 -6.05 77.35 L-5.0 75.85 -4.95 76.0 Q-4.8 76.9 -5.75 77.65 -6.65 78.7 -8.0 78.2 L-8.0 78.1 M-9.05 75.8 L-9.6 74.95 Q-9.35 73.5 -8.05 72.55 L-8.0 72.55 Q-6.75 72.55 -6.2 73.65 -6.15 75.5 -7.7 76.15 L-7.85 76.15 -8.45 76.1 -9.05 75.8 M-8.8 74.4 L-8.8 75.0 Q-8.55 75.4 -8.0 75.4 -7.05 75.05 -7.05 74.15 -7.25 73.4 -8.0 73.35 L-8.1 73.35 Q-8.05 73.8 -8.55 74.1 L-8.8 74.4 M-3.25 71.4 Q-4.5 70.45 -3.9 69.25 -3.35 70.25 -3.25 71.4 M-0.75 68.7 Q0.6 67.6 0.95 66.1 L-1.35 67.45 Q-1.3 68.2 -0.75 68.7 M-2.25 87.35 L-1.4 87.55 -0.25 89.05 -0.05 89.3 0.7 90.6 0.65 91.4 -0.2 91.2 -1.3 90.95 -2.75 90.55 -3.3 90.35 -3.55 90.25 -3.6 90.25 -3.65 90.15 Q-4.2 89.35 -3.95 88.35 -3.5 87.7 -2.9 87.5 L-2.25 87.35 M-0.65 89.65 Q-1.2 88.55 -2.2 87.8 -2.95 88.0 -3.25 88.65 L-3.4 89.15 Q-2.05 90.0 -0.3 90.55 L-0.65 89.65" fill="#793600" fill-rule="evenodd" stroke="none"/>
    <path d="M-10.15 104.05 L-10.05 104.05 -10.25 104.25 Q-13.4 104.95 -16.2 106.6 L-17.5 107.9 -18.75 109.3 -21.65 114.75 -22.55 115.9 Q-23.35 115.95 -23.6 115.6 L-23.05 113.7 Q-22.1 111.2 -20.25 109.3 L-16.85 105.2 Q-13.8 103.6 -10.15 104.05 M-11.15 110.75 Q-11.15 111.65 -11.85 112.15 -12.7 112.8 -13.7 113.25 -15.3 113.95 -16.25 112.8 -17.1 111.8 -16.35 110.65 -15.35 109.0 -13.45 108.5 -11.1 108.5 -11.15 110.75" fill="#666666" fill-rule="evenodd" stroke="none"/>
  </g>
</svg>
