<?xml version="1.0" encoding="UTF-8" standalone="no"?>
<svg xmlns:xlink="http://www.w3.org/1999/xlink" height="77.75px" width="46.1px" xmlns="http://www.w3.org/2000/svg">
  <g transform="matrix(1.0, 0.0, 0.0, 1.0, 24.2, 34.1)">
    <path d="M3.5 -29.7 L3.95 -30.05 4.8 -30.3 5.3 -30.45 Q7.85 -30.55 9.8 -28.95 10.45 -28.1 10.4 -26.85 L9.1 -27.1 5.9 -26.7 Q5.65 -26.9 5.7 -27.2 6.95 -28.05 8.6 -28.05 7.0 -29.55 4.85 -29.25 4.9 -28.65 4.35 -28.8 L3.45 -28.95 Q3.35 -29.4 3.5 -29.7 M8.5 -25.65 L9.75 -24.45 9.75 -24.0 8.95 -24.45 Q7.75 -25.05 6.45 -25.1 7.95 -23.95 8.9 -22.7 10.25 -21.0 10.5 -19.05 L8.25 -21.85 8.2 -21.85 7.3 -22.8 6.7 -23.35 5.7 -24.2 6.15 -25.2 5.25 -25.4 Q6.2 -26.7 7.65 -26.1 L8.5 -25.65 M7.3 -21.4 L8.25 -19.95 Q8.5 -18.2 9.75 -16.6 10.95 -15.05 10.65 -12.9 10.15 -12.25 10.5 -11.6 L10.95 -10.35 11.9 -8.55 Q10.85 -7.9 10.4 -7.05 11.95 -7.85 14.15 -7.45 15.9 -6.9 17.15 -5.2 L17.6 -3.9 17.45 -4.05 Q15.2 -6.75 11.9 -6.7 11.5 -6.5 11.6 -6.15 L10.65 -6.4 10.65 -2.5 13.5 -3.15 13.45 -1.65 13.25 1.95 Q13.0 4.65 10.4 6.05 L8.55 10.05 Q7.5 11.95 7.4 14.35 6.15 15.95 6.5 17.75 L7.35 20.75 7.5 21.2 Q9.0 23.5 9.45 26.15 9.75 27.55 9.45 28.75 L9.2 29.55 8.8 30.3 8.75 30.4 Q7.45 32.2 7.5 34.3 L13.4 30.25 15.15 26.0 15.9 23.8 Q16.3 25.95 15.9 28.2 L17.7 28.0 19.65 27.7 Q20.8 25.55 20.9 22.95 L20.9 22.65 20.9 21.55 20.75 17.6 20.75 17.15 20.5 16.9 18.25 14.8 Q16.85 13.65 17.15 11.9 18.2 8.75 17.8 5.8 L16.95 -0.4 17.3 -1.0 Q18.1 1.65 18.35 4.7 18.7 6.8 18.65 9.1 L18.6 10.55 Q18.35 13.6 20.9 15.5 22.2 19.8 21.8 24.85 21.3 27.1 19.2 28.45 L16.1 29.1 Q14.5 29.45 13.65 31.0 L9.9 33.45 Q7.85 34.5 7.05 36.7 L6.45 37.45 Q5.8 36.95 6.3 35.95 6.45 33.7 7.15 31.45 7.8 29.15 7.95 26.9 L7.05 26.05 Q3.9 28.35 0.6 29.95 3.0 35.25 1.6 41.2 0.85 41.65 0.95 42.5 1.05 43.4 0.1 43.65 -0.3 41.7 -1.35 40.1 L-3.35 36.7 -7.8 34.35 Q-12.55 32.05 -17.6 30.7 -21.0 29.55 -21.05 26.3 -21.15 23.0 -21.95 20.05 -21.95 18.7 -22.25 17.45 -23.45 18.15 -24.2 19.4 L-24.2 14.65 -20.25 7.75 Q-18.3 4.3 -17.9 0.2 -17.4 -0.4 -17.3 -1.15 -17.85 -1.6 -18.35 -1.7 -18.9 -1.85 -18.95 -2.65 L-14.9 -6.45 -13.2 -7.7 Q-11.85 -8.4 -10.2 -8.4 -10.9 -9.7 -10.3 -11.15 -9.7 -12.65 -10.65 -13.9 L-9.85 -16.5 Q-9.3 -17.8 -7.85 -18.0 -7.2 -18.7 -7.2 -19.35 L-7.65 -19.35 Q-6.85 -19.9 -6.15 -20.75 L-6.0 -20.95 -5.9 -21.1 Q-5.15 -22.2 -3.75 -21.6 -2.95 -21.2 -2.55 -20.35 L-1.9 -19.65 -1.55 -19.55 -1.2 -19.5 -0.85 -18.65 -0.1 -17.0 0.1 -16.5 0.3 -17.65 0.2 -18.55 0.15 -18.8 0.1 -18.95 0.05 -19.0 -0.1 -20.15 -0.1 -20.6 0.0 -21.45 0.3 -21.1 0.7 -19.85 Q0.65 -18.9 1.2 -18.2 L1.8 -19.8 Q2.25 -19.35 2.05 -18.75 1.8 -18.2 2.1 -17.7 L2.65 -18.6 Q2.85 -19.25 3.45 -18.95 L5.55 -22.7 5.65 -22.7 5.7 -22.7 6.55 -22.35 7.15 -21.7 7.15 -21.65 7.25 -21.55 7.3 -21.4 M17.9 -2.45 L18.15 -1.45 18.8 -0.6 18.1 -1.35 Q16.55 -2.95 14.7 -4.15 14.75 -4.7 15.35 -4.8 17.15 -4.15 17.85 -2.55 L17.9 -2.45 M-7.25 -21.8 L-8.45 -20.25 Q-8.6 -24.0 -5.95 -26.15 -5.05 -26.25 -4.2 -26.7 L-3.85 -26.9 -3.8 -26.9 -5.2 -28.55 -6.95 -30.35 -3.05 -30.25 -2.7 -29.9 -2.6 -29.85 -1.65 -29.0 -1.55 -29.2 -1.0 -30.05 0.7 -32.0 1.15 -32.35 2.05 -33.05 2.05 -33.0 2.65 -33.35 2.85 -33.45 3.1 -33.55 3.15 -33.55 Q4.05 -33.95 5.1 -34.0 L4.55 -33.75 4.05 -33.5 1.35 -31.7 0.95 -31.4 -0.2 -30.2 -1.55 -28.4 Q-2.75 -29.75 -4.7 -29.5 -3.55 -28.05 -3.05 -26.3 L-3.15 -26.3 Q-4.9 -26.15 -6.3 -25.0 L-7.1 -24.2 -7.45 -22.5 -7.35 -22.6 -5.85 -23.8 Q-5.0 -24.4 -3.95 -24.05 -4.15 -23.35 -4.85 -23.35 -5.65 -23.35 -6.05 -22.85 L-7.25 -21.8 M5.35 -33.35 L5.45 -33.95 6.8 -34.1 5.95 -33.2 6.35 -32.7 5.45 -32.3 5.25 -32.15 4.65 -31.45 3.25 -29.95 2.95 -29.7 2.95 -29.6 2.6 -29.6 Q3.05 -30.9 4.2 -31.75 5.05 -32.45 5.35 -33.35 M7.3 -18.0 L7.5 -18.3 6.1 -19.8 Q4.45 -19.8 4.3 -18.4 4.1 -17.05 3.3 -16.05 1.6 -15.15 -0.45 -15.3 -0.9 -15.65 -0.75 -16.15 L-2.3 -18.75 -3.0 -19.65 Q-4.05 -19.05 -5.15 -18.7 -6.35 -18.4 -7.2 -17.55 L-7.2 -17.5 -7.5 -17.4 Q-8.3 -16.9 -8.55 -16.25 L-9.1 -16.1 -9.35 -16.05 -9.75 -14.75 Q-9.85 -13.9 -9.45 -13.05 L-9.35 -12.9 Q-9.5 -12.1 -9.25 -11.3 L-9.45 -11.5 -9.8 -9.9 -7.35 -7.55 -4.95 -5.3 Q-2.45 -3.05 -0.75 -0.25 -0.4 2.95 -3.25 4.4 -6.1 5.75 -7.65 8.15 -7.4 8.75 -7.4 9.4 -7.15 10.15 -6.35 10.15 L-5.15 9.4 Q-2.55 7.95 0.6 7.7 4.5 7.35 7.8 9.2 L8.25 8.4 8.7 7.6 Q7.6 5.75 5.95 4.8 4.25 3.8 3.0 2.15 L2.9 2.0 2.7 1.6 2.55 1.15 Q2.25 0.1 2.55 -1.0 5.35 -6.25 10.65 -8.85 L9.75 -10.9 9.4 -10.55 Q9.65 -11.2 9.25 -11.9 L9.15 -12.05 8.95 -11.8 9.95 -13.0 Q9.5 -14.15 9.4 -15.5 9.3 -16.65 8.2 -17.0 8.2 -17.85 7.3 -18.0 M9.65 -4.1 Q9.5 -5.1 9.5 -6.15 L9.4 -6.1 9.05 -5.95 8.65 -5.8 Q6.85 -5.05 5.45 -3.45 4.45 -2.35 3.95 -1.1 L4.05 -1.2 Q5.5 -2.0 7.15 -2.35 L7.4 -2.4 7.55 -2.4 8.65 -2.6 Q9.25 -2.6 9.15 -2.05 8.95 -0.6 7.8 0.35 L8.0 0.0 8.25 -0.35 8.45 -0.6 8.55 -0.75 8.8 -1.7 8.6 -2.05 7.1 -1.8 Q5.9 -1.45 4.9 -0.65 L4.2 -0.05 4.05 0.15 4.0 0.15 3.8 0.35 3.5 0.75 Q3.45 0.95 3.55 1.15 L3.6 1.2 Q3.8 1.7 4.15 1.9 L4.2 1.9 6.2 1.35 6.85 1.05 6.95 1.0 7.05 0.9 6.65 1.3 6.65 1.35 5.25 2.15 4.85 2.5 8.1 5.5 9.2 6.65 9.5 6.65 9.7 6.2 Q12.0 4.8 12.1 2.45 12.15 0.1 12.5 -2.05 L10.8 -1.2 10.45 -1.0 Q9.85 -2.45 9.65 -4.05 L9.65 -4.1 M17.35 20.6 L17.25 20.7 17.3 20.6 17.35 20.6 M4.15 11.8 L4.15 11.85 -2.6 12.8 -2.75 13.25 -2.8 13.2 Q-3.45 12.85 -3.5 11.75 L-3.35 10.7 -3.1 10.7 -2.9 10.7 -2.75 11.1 -2.85 11.05 Q-3.05 11.4 -2.6 11.8 L-2.25 11.85 -2.15 11.85 Q-0.95 12.15 0.25 11.85 L2.4 11.5 1.9 11.4 2.4 11.4 3.05 11.45 4.15 11.5 4.15 11.8 M-3.3 9.95 L-4.9 10.95 -5.2 11.15 Q-4.0 15.35 -1.1 18.55 -0.5 19.6 0.7 19.9 L0.9 19.85 Q4.15 18.95 5.25 15.9 6.35 12.8 6.85 9.85 4.0 8.8 0.7 8.95 -1.45 9.05 -3.3 9.95 M5.25 18.9 L5.25 17.85 5.1 18.05 3.5 19.65 3.1 19.9 Q1.95 20.5 0.45 20.55 -2.25 19.15 -4.2 16.45 -4.6 16.9 -4.35 17.4 -3.95 18.95 -4.0 20.65 -4.05 21.3 -3.7 21.75 L-3.75 22.35 -3.75 22.4 -3.85 22.3 -4.05 22.4 Q-4.7 24.25 -3.15 24.95 -1.65 25.55 -0.7 26.65 -0.4 28.15 0.65 29.15 1.95 28.15 3.45 27.45 L4.8 26.6 6.05 25.4 6.75 23.6 Q7.05 22.65 6.05 21.95 L5.75 22.2 Q6.05 21.2 5.55 20.9 5.7 20.3 5.45 19.65 L5.4 19.6 5.25 18.9 M-5.65 15.15 L-5.65 15.1 Q-5.55 14.35 -5.8 13.55 L-6.5 12.35 -6.65 12.0 -6.75 11.6 Q-7.0 10.65 -7.8 10.15 L-8.2 9.9 Q-8.25 9.1 -8.6 8.75 L-8.8 7.1 Q-11.75 5.7 -12.0 2.7 L-12.7 -3.15 -12.25 -3.75 Q-10.7 -3.6 -9.7 -2.25 L-9.7 -6.75 -9.75 -6.75 -10.8 -6.9 -11.45 -6.9 Q-12.85 -6.8 -13.95 -5.85 L-17.65 -2.65 -17.65 -2.4 Q-16.6 -2.15 -15.7 -2.4 -16.2 0.5 -17.05 3.35 L-18.6 7.05 -18.65 7.1 Q-19.3 8.95 -20.85 10.35 L-22.75 13.55 Q-23.6 14.9 -23.25 16.5 L-23.1 17.1 -21.85 15.8 Q-21.25 15.0 -20.35 15.05 -20.4 15.85 -21.1 16.35 -21.3 19.7 -20.35 22.55 -19.95 25.6 -18.4 28.25 -16.5 29.5 -14.3 29.8 -12.2 30.1 -10.75 32.05 L-7.8 33.45 -6.85 33.85 -4.7 34.55 -3.35 34.9 Q-2.5 35.3 -1.85 35.9 -0.9 36.8 -0.55 38.2 L0.4 42.25 0.95 40.75 Q1.95 36.85 0.85 33.35 -0.25 29.8 -1.75 26.45 -3.3 26.4 -4.55 25.7 -4.1 26.3 -4.75 26.75 -6.2 26.8 -7.05 26.0 L-7.55 25.4 -7.3 24.95 -7.8 24.0 -9.25 20.3 -8.2 16.35 Q-7.9 17.3 -8.1 18.35 -8.35 19.3 -8.05 20.15 L-7.8 20.85 Q-7.2 22.1 -6.25 22.9 L-5.65 21.6 Q-5.3 20.95 -5.6 20.15 -4.95 19.1 -5.25 18.05 L-5.9 15.95 -5.75 15.6 -5.65 15.15 M-7.85 0.55 L-7.9 0.45 -8.05 0.0 -8.0 -1.7 -7.95 -2.35 Q-6.75 -2.25 -5.6 -1.75 L-2.95 -0.35 Q-2.25 0.05 -1.7 0.55 L-1.5 0.75 Q-2.25 -1.55 -4.3 -3.1 -6.05 -4.45 -7.8 -5.45 L-8.7 -5.95 -8.65 -2.9 -8.7 -2.85 Q-9.0 -2.65 -8.9 -2.2 L-8.95 -2.1 -9.0 -0.45 -8.95 -0.3 -9.1 0.1 -9.5 -0.3 -10.5 -1.15 -10.9 -1.4 -11.05 -1.5 -11.55 -1.8 -11.7 -1.85 -11.0 2.85 -10.95 3.05 -10.3 4.75 -9.65 5.6 -9.65 5.55 -8.35 6.55 -6.6 5.35 -6.3 5.15 Q-4.35 4.05 -2.85 2.7 L-2.9 2.7 Q-3.9 2.4 -4.75 1.8 -6.2 0.75 -7.85 0.55 M-4.9 1.45 Q-3.75 1.75 -2.45 1.45 L-2.1 1.35 Q-3.8 -1.35 -7.35 -1.5 L-7.5 -0.55 -7.0 0.35 -5.6 1.25 -5.1 1.4 -4.9 1.45" fill="#000000" fill-rule="evenodd" stroke="none"/>
    <path d="M9.1 -27.1 Q9.05 -26.25 8.5 -25.65 L7.65 -26.1 Q6.2 -26.7 5.25 -25.4 L6.15 -25.2 5.7 -24.2 6.7 -23.35 7.3 -22.8 7.15 -21.7 6.55 -22.35 5.7 -22.7 5.65 -22.7 5.55 -22.7 3.45 -18.95 Q2.85 -19.25 2.65 -18.6 L2.1 -17.7 Q1.8 -18.2 2.05 -18.75 2.25 -19.35 1.8 -19.8 L1.2 -18.2 Q0.65 -18.9 0.7 -19.85 L0.3 -21.1 0.6 -21.6 Q-0.05 -22.35 -0.1 -23.3 L0.15 -24.8 Q0.45 -25.6 1.15 -26.1 -0.1 -29.1 1.35 -31.7 L4.05 -33.5 4.55 -33.75 5.35 -33.35 Q5.05 -32.45 4.2 -31.75 3.05 -30.9 2.6 -29.6 L2.95 -29.6 2.95 -29.7 3.25 -29.95 3.5 -29.7 Q3.35 -29.4 3.45 -28.95 L4.35 -28.8 Q4.9 -28.65 4.85 -29.25 7.0 -29.55 8.6 -28.05 6.95 -28.05 5.7 -27.2 5.65 -26.9 5.9 -26.7 L9.1 -27.1 M17.45 -4.05 L17.85 -2.6 17.85 -2.55 Q17.15 -4.15 15.35 -4.8 14.75 -4.7 14.7 -4.15 16.55 -2.95 18.1 -1.35 L18.5 0.3 Q19.65 4.8 18.65 9.1 18.7 6.8 18.35 4.7 18.1 1.65 17.3 -1.0 L16.95 -0.4 17.8 5.8 Q18.2 8.75 17.15 11.9 16.85 13.65 18.25 14.8 L20.5 16.9 20.75 17.6 20.9 21.55 20.9 22.65 20.9 22.95 Q20.8 25.55 19.65 27.7 L17.7 28.0 15.9 28.2 Q16.3 25.95 15.9 23.8 L15.15 26.0 13.4 30.25 7.5 34.3 Q7.45 32.2 8.75 30.4 L8.8 30.3 9.2 29.55 9.5 28.75 11.7 27.1 11.85 26.35 Q12.0 25.5 12.8 25.1 L13.8 25.15 14.05 25.15 15.2 24.0 15.25 24.25 14.9 22.0 Q12.65 20.4 13.35 18.1 13.7 17.15 14.7 17.35 16.0 17.65 17.15 18.55 L17.3 19.2 17.3 20.4 17.3 20.6 17.25 20.7 17.35 20.6 17.4 20.6 Q18.5 19.5 18.15 17.5 17.8 16.6 16.95 15.9 16.0 15.1 15.3 16.2 L15.2 16.3 14.9 15.9 Q14.1 14.85 14.25 13.5 L14.2 13.55 Q13.2 11.85 13.0 9.85 12.8 8.2 13.1 6.5 L13.1 6.4 13.45 6.1 13.85 6.1 Q14.3 6.6 14.15 7.4 L14.15 7.65 Q14.1 9.35 14.6 11.0 L15.3 6.1 15.8 2.7 14.15 -0.65 13.45 -1.65 13.5 -3.15 10.65 -2.5 10.65 -6.4 11.6 -6.15 Q11.5 -6.5 11.9 -6.7 15.2 -6.75 17.45 -4.05 M-1.15 -27.55 Q-1.75 -28.15 -1.0 -28.55 L-0.85 -28.6 Q0.2 -28.35 0.5 -27.25 0.7 -26.5 0.45 -25.85 L0.3 -25.65 Q-0.75 -25.5 -0.8 -26.65 -0.8 -27.2 -1.15 -27.55 M-0.8 -23.55 Q-1.5 -23.6 -2.1 -24.1 L-2.25 -24.2 Q-3.05 -24.3 -3.6 -24.85 L-3.6 -25.05 Q-3.45 -25.45 -3.0 -25.4 -1.75 -25.2 -0.75 -24.45 L-0.5 -23.9 -0.4 -23.8 -0.25 -23.6 -0.25 -23.55 -0.25 -23.5 -0.25 -23.35 Q-0.45 -23.2 -0.65 -23.35 L-0.8 -23.55 M10.95 13.1 Q10.25 15.1 10.1 17.3 9.95 19.5 10.6 21.65 L11.3 23.6 11.3 23.9 11.0 24.15 10.65 24.15 Q9.55 22.85 9.2 21.1 8.8 18.9 9.05 16.7 9.2 15.15 9.75 13.75 10.0 13.05 10.65 12.85 L10.95 13.05 10.95 13.1 M15.1 21.4 L15.3 21.2 15.3 18.8 15.1 21.4 M-11.45 -6.9 L-10.8 -6.9 -9.75 -6.75 -9.7 -6.75 -9.7 -2.25 Q-10.7 -3.6 -12.25 -3.75 L-12.7 -3.15 -12.0 2.7 Q-11.75 5.7 -8.8 7.1 L-8.6 8.75 Q-8.25 9.1 -8.2 9.9 L-7.8 10.15 Q-7.0 10.65 -6.75 11.6 L-6.65 12.0 -6.5 12.35 -5.8 13.55 Q-5.55 14.35 -5.65 15.1 L-5.65 15.15 -5.9 15.4 -6.2 15.1 -5.75 15.6 -5.9 15.95 -5.25 18.05 Q-4.95 19.1 -5.6 20.15 -5.3 20.95 -5.65 21.6 L-6.25 22.9 Q-7.2 22.1 -7.8 20.85 L-8.05 20.15 Q-8.35 19.3 -8.1 18.35 -7.9 17.3 -8.2 16.35 L-9.25 20.3 -7.8 24.0 -7.3 24.95 -7.55 25.4 -7.05 26.0 Q-6.2 26.8 -4.75 26.75 -4.1 26.3 -4.55 25.7 -3.3 26.4 -1.75 26.45 -0.25 29.8 0.85 33.35 1.95 36.85 0.95 40.75 L0.4 42.25 -0.55 38.2 Q-0.9 36.8 -1.85 35.9 L-2.05 30.55 Q-3.95 29.75 -5.8 28.55 L-7.65 27.0 -7.65 26.9 -7.65 26.85 -7.8 26.35 -7.9 26.1 -8.6 25.15 Q-9.7 24.25 -10.85 24.4 L-10.9 24.5 -11.6 23.6 Q-14.55 22.05 -13.35 18.5 L-13.15 17.35 -13.05 15.0 Q-14.3 12.9 -13.55 10.45 -13.3 9.7 -13.4 8.9 -13.7 6.4 -13.1 4.1 L-12.8 2.4 Q-15.45 -0.55 -13.25 -3.7 L-11.8 -4.9 Q-11.95 -5.7 -11.7 -6.45 L-11.45 -6.9 M-18.6 7.05 Q-17.5 5.95 -16.0 5.55 -15.65 5.55 -15.55 5.9 L-15.5 5.95 -17.45 7.9 -18.3 8.7 -21.05 12.1 Q-21.7 13.0 -22.15 14.05 L-22.85 15.35 -23.0 15.7 -23.25 16.5 Q-23.6 14.9 -22.75 13.55 L-20.85 10.35 Q-19.3 8.95 -18.65 7.1 L-18.6 7.05 M-6.85 33.85 Q-7.95 32.1 -9.5 30.75 L-10.25 30.2 -11.15 29.45 -11.25 29.0 -10.95 28.65 Q-8.7 29.1 -7.15 30.85 -6.0 32.1 -5.15 33.6 L-4.7 34.55 -6.85 33.85 M-16.5 13.1 Q-16.65 13.55 -16.35 13.85 -17.55 18.5 -16.6 23.15 -17.7 23.05 -17.65 21.95 -19.1 19.55 -18.1 17.3 -17.1 15.1 -16.9 12.6 -16.35 12.55 -16.5 13.1 M-15.05 20.55 Q-14.7 23.7 -12.65 26.45 -15.35 24.05 -15.05 20.55" fill="#cc6633" fill-rule="evenodd" stroke="none"/>
    <path d="M8.25 -21.85 L8.1 -21.75 8.2 -21.85 8.25 -21.85 M17.85 -2.6 L17.9 -2.45 17.85 -2.55 17.85 -2.6 M5.45 -32.3 L5.35 -32.05 5.25 -32.15 5.45 -32.3" fill="#99cccc" fill-rule="evenodd" stroke="none"/>
    <path d="M5.35 -32.05 L5.25 -32.15 5.35 -32.05" fill="#999966" fill-rule="evenodd" stroke="none"/>
    <path d="M-6.15 -20.75 Q-7.0 -21.1 -7.25 -21.8 L-6.05 -22.85 Q-5.65 -23.35 -4.85 -23.35 -4.15 -23.35 -3.95 -24.05 -5.0 -24.4 -5.85 -23.8 L-7.35 -22.6 -7.1 -23.8 -6.6 -24.7 -6.3 -25.0 Q-4.9 -26.15 -3.15 -26.3 L-3.05 -26.3 Q-3.55 -28.05 -4.7 -29.5 -2.75 -29.75 -1.55 -28.4 L-0.2 -30.2 0.95 -31.4 1.35 -31.7 Q-0.1 -29.1 1.15 -26.1 0.45 -25.6 0.15 -24.8 L-0.1 -23.3 Q-0.05 -22.35 0.6 -21.6 L0.3 -21.1 0.0 -21.45 -0.1 -20.6 -0.1 -20.15 0.05 -19.0 0.1 -18.95 0.15 -18.8 0.2 -18.55 0.3 -17.65 0.2 -16.85 -0.1 -17.0 -0.85 -18.65 -1.2 -19.5 -1.55 -19.55 -1.6 -19.8 -1.9 -19.65 -2.55 -20.35 Q-2.95 -21.2 -3.75 -21.6 -5.15 -22.2 -5.9 -21.1 L-6.0 -20.95 -6.15 -20.75 M-0.8 -23.55 L-0.65 -23.35 Q-0.45 -23.2 -0.25 -23.35 L-0.25 -23.5 -0.25 -23.55 -0.25 -23.6 -0.4 -23.8 -0.5 -23.9 -0.75 -24.45 Q-1.75 -25.2 -3.0 -25.4 -3.45 -25.45 -3.6 -25.05 L-3.6 -24.85 Q-3.05 -24.3 -2.25 -24.2 L-2.1 -24.1 Q-1.5 -23.6 -0.8 -23.55 M-1.15 -27.55 Q-0.8 -27.2 -0.8 -26.65 -0.75 -25.5 0.3 -25.65 L0.45 -25.85 Q0.7 -26.5 0.5 -27.25 0.2 -28.35 -0.85 -28.6 L-1.0 -28.55 Q-1.75 -28.15 -1.15 -27.55 M13.45 -1.65 L14.15 -0.65 15.8 2.7 15.3 6.1 14.6 11.0 Q14.1 9.35 14.15 7.65 L14.15 7.4 Q14.3 6.6 13.85 6.1 L13.45 6.1 13.1 6.4 13.1 6.5 Q12.8 8.2 13.0 9.85 13.2 11.85 14.2 13.55 L14.25 13.65 14.25 13.5 Q14.1 14.85 14.9 15.9 L15.2 16.3 17.1 18.4 Q16.65 17.1 15.3 16.2 16.0 15.1 16.95 15.9 17.8 16.6 18.15 17.5 18.5 19.5 17.4 20.6 L17.35 20.6 17.3 20.6 17.3 20.4 17.3 19.2 17.15 18.55 Q16.0 17.65 14.7 17.35 13.7 17.15 13.35 18.1 12.65 20.4 14.9 22.0 L15.25 24.25 15.2 24.0 14.05 25.15 13.8 25.15 12.8 25.1 Q12.0 25.5 11.85 26.35 L11.7 27.1 9.5 28.75 9.45 28.75 Q9.75 27.55 9.45 26.15 9.0 23.5 7.5 21.2 L7.35 20.75 6.5 17.75 Q6.15 15.95 7.4 14.35 7.5 11.95 8.55 10.05 L10.4 6.05 Q13.0 4.65 13.25 1.95 L13.45 -1.65 M10.95 13.1 L10.95 13.05 10.65 12.85 Q10.0 13.05 9.75 13.75 9.2 15.15 9.05 16.7 8.8 18.9 9.2 21.1 9.55 22.85 10.65 24.15 L11.0 24.15 11.3 23.9 11.3 23.6 10.6 21.65 Q9.95 19.5 10.1 17.3 10.25 15.1 10.95 13.1 M-11.45 -6.9 L-11.7 -6.45 Q-11.95 -5.7 -11.8 -4.9 L-13.25 -3.7 Q-15.45 -0.55 -12.8 2.4 L-13.1 4.1 Q-13.7 6.4 -13.4 8.9 -13.3 9.7 -13.55 10.45 -14.3 12.9 -13.05 15.0 L-13.15 17.35 -13.35 18.5 Q-14.55 22.05 -11.6 23.6 L-10.9 24.5 -10.7 24.75 -10.85 24.4 Q-9.7 24.25 -8.6 25.15 L-7.9 26.1 -7.8 26.35 -7.65 26.85 -7.8 26.9 -7.75 26.9 -7.65 27.0 -5.8 28.55 Q-3.95 29.75 -2.05 30.55 L-1.85 35.9 Q-2.5 35.3 -3.35 34.9 L-4.7 34.55 -5.15 33.6 Q-6.0 32.1 -7.15 30.85 -8.7 29.1 -10.95 28.65 L-11.25 29.0 -11.15 29.45 -10.25 30.2 -9.5 30.75 Q-7.95 32.1 -6.85 33.85 L-7.8 33.45 -10.75 32.05 Q-12.2 30.1 -14.3 29.8 -16.5 29.5 -18.4 28.25 -19.95 25.6 -20.35 22.55 -21.3 19.7 -21.1 16.35 -20.4 15.85 -20.35 15.05 -21.25 15.0 -21.85 15.8 L-23.1 17.1 -23.25 16.5 -23.0 15.7 -22.85 15.35 -22.15 14.05 Q-21.7 13.0 -21.05 12.1 L-18.3 8.7 -17.45 7.9 -15.5 5.95 -15.55 5.9 Q-15.65 5.55 -16.0 5.55 -17.5 5.95 -18.6 7.05 L-17.05 3.35 Q-16.2 0.5 -15.7 -2.4 -16.6 -2.15 -17.65 -2.4 L-17.65 -2.65 -13.95 -5.85 Q-12.85 -6.8 -11.45 -6.9 M-16.5 13.1 Q-16.35 12.55 -16.9 12.6 -17.1 15.1 -18.1 17.3 -19.1 19.55 -17.65 21.95 -17.7 23.05 -16.6 23.15 -17.55 18.5 -16.35 13.85 -16.65 13.55 -16.5 13.1 M-15.05 20.55 Q-15.35 24.05 -12.65 26.45 -14.7 23.7 -15.05 20.55" fill="#ffcc00" fill-rule="evenodd" stroke="none"/>
    <path d="M8.1 -21.75 Q7.8 -21.5 7.3 -21.4 L7.25 -21.55 7.15 -21.65 7.15 -21.7 7.3 -22.8 8.2 -21.85 8.1 -21.75 M17.3 19.2 L17.15 18.55 17.3 19.2 M9.5 28.75 L9.2 29.55 9.45 28.75 9.5 28.75 M-5.75 15.6 L-6.2 15.1 -5.9 15.4 -5.65 15.15 -5.75 15.6" fill="#ffcc33" fill-rule="evenodd" stroke="none"/>
    <path d="M-2.3 -18.75 L-0.75 -16.15 Q-0.9 -15.65 -0.45 -15.3 1.6 -15.15 3.3 -16.05 4.1 -17.05 4.3 -18.4 4.45 -19.8 6.1 -19.8 L7.5 -18.3 7.3 -18.0 Q4.9 -14.5 1.95 -11.4 1.4 -9.1 1.75 -7.05 L1.95 -6.15 2.65 -6.35 Q6.35 -7.65 9.4 -10.55 L9.75 -10.9 10.65 -8.85 Q5.35 -6.25 2.55 -1.0 2.25 0.1 2.55 1.15 2.0 2.3 2.95 3.45 L4.5 5.25 4.9 5.8 Q6.0 7.3 7.65 8.1 L8.25 8.4 7.8 9.2 Q4.5 7.35 0.6 7.7 -2.55 7.95 -5.15 9.4 -5.6 8.3 -6.2 7.3 L-2.95 4.85 -1.65 4.05 Q-0.5 3.45 0.1 2.4 L0.5 1.4 0.55 0.15 Q0.1 -1.7 -1.25 -3.05 L-1.8 -3.7 -5.0 -6.95 -4.85 -7.6 -4.85 -7.65 Q-3.1 -6.55 -1.1 -6.15 -0.45 -7.05 -0.65 -8.45 L-0.9 -11.1 -3.9 -13.75 -5.4 -15.2 -5.2 -15.5 Q-4.05 -17.4 -2.3 -18.75 M5.1 18.05 L5.2 18.15 5.25 18.9 5.4 19.6 5.45 19.65 Q5.7 20.3 5.55 20.9 6.05 21.2 5.75 22.2 L6.05 21.95 Q7.05 22.65 6.75 23.6 L6.05 25.4 4.8 26.6 Q3.8 26.05 3.05 25.1 L2.6 24.55 2.2 23.95 Q-1.15 24.3 -3.75 22.4 L-3.75 22.35 -3.7 21.75 Q-3.25 22.45 -1.95 22.65 1.15 23.65 3.8 22.35 3.2 21.25 3.1 19.95 L3.1 19.9 3.5 19.65 5.1 18.05" fill="#663300" fill-rule="evenodd" stroke="none"/>
    <path d="M7.3 -18.0 Q8.2 -17.85 8.2 -17.0 L8.1 -17.05 7.9 -17.1 7.85 -17.1 7.25 -16.3 Q5.05 -13.45 2.6 -10.9 L2.35 -8.95 2.3 -8.5 Q2.2 -7.75 2.6 -7.15 L3.7 -7.65 4.6 -8.2 5.0 -8.45 8.95 -11.8 9.15 -12.05 9.25 -11.9 Q9.65 -11.2 9.4 -10.55 6.35 -7.65 2.65 -6.35 L1.95 -6.15 1.75 -7.05 Q1.4 -9.1 1.95 -11.4 4.9 -14.5 7.3 -18.0 M-9.25 -11.3 Q-9.5 -12.1 -9.35 -12.9 L-9.35 -12.95 -8.6 -12.05 -5.95 -9.5 -5.75 -9.3 Q-3.65 -7.55 -1.2 -7.0 -1.55 -8.3 -1.5 -9.65 L-1.5 -10.1 Q-1.45 -11.35 -2.5 -11.95 L-3.35 -12.3 Q-5.05 -13.3 -6.2 -15.0 L-6.75 -15.65 -6.85 -15.7 Q-7.4 -16.2 -8.05 -16.25 L-8.55 -16.25 Q-8.3 -16.9 -7.5 -17.4 L-7.2 -17.5 -5.4 -15.2 -3.9 -13.75 -0.9 -11.1 -0.65 -8.45 Q-0.45 -7.05 -1.1 -6.15 -3.1 -6.55 -4.85 -7.65 L-5.4 -8.05 -5.6 -8.2 -6.95 -9.3 -8.4 -10.55 -9.25 -11.3" fill="#402000" fill-rule="evenodd" stroke="none"/>
    <path d="M8.2 -17.0 Q9.3 -16.65 9.4 -15.5 9.5 -14.15 9.95 -13.0 L8.95 -11.8 5.0 -8.45 4.6 -8.2 3.7 -7.65 2.6 -7.15 Q2.2 -7.75 2.3 -8.5 4.7 -9.5 6.65 -11.3 L7.55 -12.15 Q8.65 -13.25 8.05 -14.6 L7.25 -16.3 7.85 -17.1 7.9 -17.1 8.1 -17.05 8.2 -17.0 M2.55 1.15 L2.7 1.6 2.9 2.0 3.0 2.15 Q4.25 3.8 5.95 4.8 7.6 5.75 8.7 7.6 L8.25 8.4 7.65 8.1 Q6.0 7.3 4.9 5.8 L4.5 5.25 2.95 3.45 Q2.0 2.3 2.55 1.15 M-5.15 9.4 L-6.35 10.15 Q-7.15 10.15 -7.4 9.4 -7.4 8.75 -7.65 8.15 -6.1 5.75 -3.25 4.4 -0.4 2.95 -0.75 -0.25 -2.45 -3.05 -4.95 -5.3 L-7.35 -7.55 -9.8 -9.9 -9.45 -11.5 -9.25 -11.3 -8.4 -10.55 -6.95 -9.3 -5.6 -8.2 -5.4 -8.05 -4.85 -7.65 -4.85 -7.6 -5.0 -6.95 -1.8 -3.7 -1.25 -3.05 Q0.1 -1.7 0.55 0.15 L0.5 1.4 0.1 2.4 Q-0.5 3.45 -1.65 4.05 L-2.95 4.85 -6.2 7.3 Q-5.6 8.3 -5.15 9.4 M-9.35 -12.9 L-9.45 -13.05 Q-9.85 -13.9 -9.75 -14.75 L-9.3 -14.3 -8.95 -13.9 Q-7.75 -12.8 -6.8 -11.5 L-6.65 -11.35 -2.9 -9.2 -2.95 -10.95 Q-3.0 -11.55 -2.55 -11.95 L-2.5 -11.95 Q-1.45 -11.35 -1.5 -10.1 L-1.5 -9.65 Q-1.55 -8.3 -1.2 -7.0 -3.65 -7.55 -5.75 -9.3 L-5.95 -9.5 -8.6 -12.05 -9.35 -12.95 -9.35 -12.9 M-7.2 -17.5 L-7.2 -17.55 Q-6.35 -18.4 -5.15 -18.7 -4.05 -19.05 -3.0 -19.65 L-2.3 -18.75 Q-4.05 -17.4 -5.2 -15.5 L-5.4 -15.2 -7.2 -17.5 M5.25 18.9 L5.2 18.15 5.1 18.05 5.25 17.85 5.25 18.9 M3.1 19.9 L3.1 19.95 Q3.2 21.25 3.8 22.35 1.15 23.65 -1.95 22.65 -3.25 22.45 -3.7 21.75 -4.05 21.3 -4.0 20.65 -3.95 18.95 -4.35 17.4 -4.6 16.9 -4.2 16.45 -2.25 19.15 0.45 20.55 1.95 20.5 3.1 19.9 M-3.75 22.4 Q-1.15 24.3 2.2 23.95 L2.6 24.55 3.05 25.1 Q3.8 26.05 4.8 26.6 L3.45 27.45 Q1.95 28.15 0.65 29.15 -0.4 28.15 -0.7 26.65 -1.65 25.55 -3.15 24.95 -4.7 24.25 -4.05 22.4 L-3.85 22.3 -3.75 22.4" fill="#996600" fill-rule="evenodd" stroke="none"/>
    <path d="M-9.75 -14.75 L-9.35 -16.05 -9.1 -16.1 -8.55 -16.25 -8.05 -16.25 Q-7.4 -16.2 -6.85 -15.7 L-6.75 -15.65 -6.2 -15.0 Q-5.05 -13.3 -3.35 -12.3 L-2.5 -11.95 -2.55 -11.95 Q-3.0 -11.55 -2.95 -10.95 L-2.9 -9.2 -6.65 -11.35 -6.8 -11.5 Q-7.75 -12.8 -8.95 -13.9 L-9.3 -14.3 -9.75 -14.75 M7.25 -16.3 L8.05 -14.6 Q8.65 -13.25 7.55 -12.15 L6.65 -11.3 Q4.7 -9.5 2.3 -8.5 L2.35 -8.95 2.6 -10.9 Q5.05 -13.45 7.25 -16.3" fill="#cc9900" fill-rule="evenodd" stroke="none"/>
    <path d="M8.65 -5.8 L9.05 -5.95 9.4 -6.1 9.5 -6.15 Q9.5 -5.1 9.65 -4.1 L9.6 -4.05 9.65 -4.05 Q9.85 -2.45 10.45 -1.0 L10.8 -1.2 10.6 -0.9 9.2 0.45 9.1 0.4 9.05 0.4 7.9 0.65 6.9 1.15 6.65 1.35 6.65 1.3 7.05 0.9 7.7 0.5 8.0 0.0 7.8 0.35 Q8.95 -0.6 9.15 -2.05 9.25 -2.6 8.65 -2.6 L7.55 -2.4 7.4 -2.4 7.65 -2.45 7.75 -2.75 8.0 -3.9 8.35 -5.1 8.65 -5.8 M0.05 14.85 L-1.8 14.45 -1.75 14.4 -1.6 13.85 0.45 14.0 0.5 13.95 1.85 13.8 2.3 13.9 2.35 13.9 2.6 14.0 2.6 14.3 0.35 14.75 0.05 14.85 M4.15 11.5 L3.05 11.45 2.4 11.4 1.9 11.4 0.0 11.05 Q-1.3 10.85 -2.25 11.8 L-2.15 11.85 -2.25 11.85 -2.6 11.8 Q-3.05 11.4 -2.85 11.05 L-2.75 11.1 Q0.8 9.45 4.15 11.45 L4.15 11.5" fill="#6633cc" fill-rule="evenodd" stroke="none"/>
    <path d="M8.65 -5.8 L8.35 -5.1 8.0 -3.9 7.75 -2.75 7.65 -2.45 7.4 -2.4 7.15 -2.35 Q5.5 -2.0 4.05 -1.2 L3.95 -1.1 Q4.45 -2.35 5.45 -3.45 6.85 -5.05 8.65 -5.8 M9.2 0.45 L10.6 -0.9 10.8 -1.2 12.5 -2.05 Q12.15 0.1 12.1 2.45 12.0 4.8 9.7 6.2 L9.5 6.65 9.2 6.65 8.1 5.5 8.45 5.25 10.55 2.95 Q11.15 2.05 10.45 1.25 9.95 0.6 9.2 0.45 M9.65 -4.05 L9.6 -4.05 9.65 -4.1 9.65 -4.05 M2.35 13.9 L2.65 13.85 3.55 13.6 Q4.8 13.1 4.2 11.9 L4.15 11.8 4.15 11.5 4.15 11.45 Q0.8 9.45 -2.75 11.1 L-2.9 10.7 -3.1 10.7 -3.3 9.95 Q-1.45 9.05 0.7 8.95 4.0 8.8 6.85 9.85 6.35 12.8 5.25 15.9 4.15 18.95 0.9 19.85 L0.6 19.25 0.4 18.85 1.75 18.7 2.35 18.1 Q3.0 17.15 2.35 16.2 1.6 15.0 0.1 15.05 L0.05 14.85 0.35 14.75 2.6 14.3 2.6 14.0 2.35 13.9 M-9.5 -0.3 L-9.1 0.1 -8.95 -0.3 -9.0 -0.45 -8.95 -2.1 -8.9 -2.2 Q-9.0 -2.65 -8.7 -2.85 L-8.65 -2.9 -8.7 -5.95 -7.8 -5.45 Q-6.05 -4.45 -4.3 -3.1 -2.25 -1.55 -1.5 0.75 L-1.7 0.55 Q-2.25 0.05 -2.95 -0.35 L-5.6 -1.75 Q-6.75 -2.25 -7.95 -2.35 L-8.0 -1.7 -8.05 0.0 -7.9 0.45 -7.85 0.55 -8.25 0.5 -8.6 0.8 -8.7 1.0 Q-9.15 3.0 -7.65 4.55 L-6.6 5.35 -8.35 6.55 -9.65 5.55 -9.95 2.8 -9.85 2.3 Q-9.3 0.9 -9.5 -0.3" fill="#6666ff" fill-rule="evenodd" stroke="none"/>
    <path d="M6.65 1.35 L6.9 1.15 7.9 0.65 9.05 0.4 9.1 0.4 9.2 0.45 Q9.95 0.6 10.45 1.25 11.15 2.05 10.55 2.95 L8.45 5.25 8.1 5.5 4.85 2.5 5.25 2.15 6.65 1.35 M2.35 13.9 L2.3 13.9 1.85 13.8 0.5 13.95 0.45 14.0 -1.6 13.85 -1.75 14.4 -1.8 14.45 0.05 14.85 0.1 15.05 Q1.6 15.0 2.35 16.2 3.0 17.15 2.35 18.1 L1.75 18.7 0.4 18.85 0.6 19.25 0.9 19.85 0.7 19.9 Q-0.5 19.6 -1.1 18.55 -4.0 15.35 -5.2 11.15 L-4.9 10.95 -3.3 9.95 -3.1 10.7 -3.35 10.7 -3.5 11.75 Q-3.45 12.85 -2.8 13.2 L-2.75 13.25 -2.6 12.8 4.15 11.85 4.15 11.8 4.2 11.9 Q4.8 13.1 3.55 13.6 L2.65 13.85 2.35 13.9 M-7.85 0.55 Q-6.2 0.75 -4.75 1.8 -3.9 2.4 -2.9 2.7 L-2.85 2.7 Q-4.35 4.05 -6.3 5.15 L-6.6 5.35 -7.65 4.55 Q-9.15 3.0 -8.7 1.0 L-8.6 0.8 -8.25 0.5 -7.85 0.55" fill="#9999ff" fill-rule="evenodd" stroke="none"/>
    <path d="M8.0 0.0 L7.7 0.5 7.05 0.9 6.95 1.0 6.85 1.05 6.2 1.35 4.2 1.9 4.15 1.9 Q3.8 1.7 3.6 1.2 L3.55 1.15 Q3.45 0.95 3.5 0.75 L3.8 0.35 4.0 0.15 4.05 0.15 4.2 -0.05 4.9 -0.65 Q5.9 -1.45 7.1 -1.8 L8.6 -2.05 8.8 -1.7 8.55 -0.75 8.45 -0.6 8.25 -0.35 8.0 0.0 M6.1 -0.75 L5.5 -0.8 5.15 -0.65 Q5.05 -0.55 4.95 -0.55 L4.6 -0.1 4.55 0.3 4.8 0.9 4.95 1.1 6.15 1.2 6.6 0.75 Q6.9 0.45 6.8 0.05 L6.3 -0.65 6.1 -0.75 M-5.6 1.25 L-7.0 0.35 -7.5 -0.55 -7.35 -1.5 Q-3.8 -1.35 -2.1 1.35 L-2.45 1.45 Q-3.75 1.75 -4.9 1.45 L-4.9 1.35 -4.45 1.2 Q-4.05 1.0 -3.95 0.6 L-3.9 0.3 -3.9 0.25 Q-4.0 -0.6 -4.75 -0.7 L-5.4 -0.85 -5.65 -0.8 -5.8 -0.75 -6.0 -0.55 -6.2 -0.15 -6.05 0.75 -5.7 1.0 -5.6 1.25" fill="#cc6666" fill-rule="evenodd" stroke="none"/>
    <path d="M3.55 1.15 L3.6 1.2 3.55 1.15 M-4.9 1.45 L-5.1 1.4 -4.9 1.35 -4.9 1.45" fill="#ff99cc" fill-rule="evenodd" stroke="none"/>
    <path d="M6.1 -0.75 L6.3 -0.65 6.8 0.05 Q6.9 0.45 6.6 0.75 L6.15 1.2 4.95 1.1 4.8 0.9 4.55 0.3 4.6 -0.1 4.95 -0.55 Q5.05 -0.55 5.15 -0.65 L5.5 -0.8 6.1 -0.75 M-5.1 1.4 L-5.6 1.25 -5.7 1.0 -6.05 0.75 -6.2 -0.15 -6.0 -0.55 -5.8 -0.75 -5.65 -0.8 -5.4 -0.85 -4.75 -0.7 Q-4.0 -0.6 -3.9 0.25 L-3.9 0.3 -3.95 0.6 Q-4.05 1.0 -4.45 1.2 L-4.9 1.35 -5.1 1.4" fill="#ffff33" fill-rule="evenodd" stroke="none"/>
    <path d="M1.9 11.4 L2.4 11.5 0.25 11.85 Q-0.95 12.15 -2.15 11.85 L-2.25 11.8 Q-1.3 10.85 0.0 11.05 L1.9 11.4 M14.2 13.55 L14.25 13.5 14.25 13.65 14.2 13.55 M15.1 21.4 L15.3 18.8 15.3 21.2 15.1 21.4" fill="#ffcc99" fill-rule="evenodd" stroke="none"/>
    <path d="M14.2 13.55 L14.25 13.5 14.2 13.55 M-7.65 26.85 L-7.65 26.9 -7.75 26.9 -7.8 26.9 -7.65 26.85" fill="#ffffcc" fill-rule="evenodd" stroke="none"/>
    <path d="M15.2 16.3 L15.3 16.2 Q16.65 17.1 17.1 18.4 L15.2 16.3 M-10.9 24.5 L-10.85 24.4 -10.7 24.75 -10.9 24.5 M-7.65 26.9 L-7.65 27.0 -7.75 26.9 -7.65 26.9" fill="#ff9933" fill-rule="evenodd" stroke="none"/>
    <path d="M-9.65 5.55 L-9.65 5.6 -10.3 4.75 -10.95 3.05 -11.0 2.85 -11.7 -1.85 -11.55 -1.8 -11.05 -1.5 -10.9 -1.4 -10.5 -1.15 -9.5 -0.3 Q-9.3 0.9 -9.85 2.3 L-9.95 2.8 -9.65 5.55" fill="#99ccff" fill-rule="evenodd" stroke="none"/>
    <path d="M-18.65 7.1 L-18.6 7.05 -18.65 7.1" fill="#ff9966" fill-rule="evenodd" stroke="none"/>
  </g>
</svg>
