<?xml version="1.0" encoding="UTF-8" standalone="no"?>
<svg xmlns:xlink="http://www.w3.org/1999/xlink" height="128.25px" width="61.15px" xmlns="http://www.w3.org/2000/svg">
  <g transform="matrix(1.0, 0.0, 0.0, 1.0, 45.55, 9.15)">
    <path d="M4.2 -7.9 Q-1.3 -8.1 -5.45 -4.7 -10.0 -1.05 -13.75 3.45 -21.0 12.55 -24.45 22.9 -26.45 28.4 -24.45 33.9 L-23.25 35.8 Q-22.85 36.5 -22.05 36.7 L-21.55 36.75 Q-20.2 37.7 -18.2 38.1 L-14.35 38.3 Q-10.5 36.55 -7.75 33.0 -4.55 28.65 -3.35 23.75 -2.2 18.85 0.1 14.2 1.65 10.9 4.2 8.6 L9.25 3.55 9.3 3.4 9.4 3.3 9.9 1.95 10.1 1.05 10.2 -1.3 Q10.05 -4.05 8.55 -5.95 7.0 -7.45 5.05 -7.85 L4.2 -7.9 M11.3 -0.2 Q11.2 2.75 9.6 5.0 1.0 11.9 -1.85 22.15 L-1.6 22.35 Q2.4 21.65 6.1 22.85 9.8 24.05 12.1 27.55 14.9 32.75 15.5 38.75 L15.6 41.85 Q15.55 49.65 13.15 56.6 L10.35 64.95 Q12.0 72.55 10.8 80.1 9.55 87.6 5.0 93.55 7.0 96.4 7.05 99.95 7.1 103.5 5.55 106.6 1.65 110.5 -3.2 112.8 -8.1 115.0 -13.7 114.35 -13.85 115.05 -14.45 115.45 L-15.55 116.2 Q-19.6 118.1 -24.1 119.1 -27.45 118.95 -30.45 117.95 -33.5 116.95 -36.35 115.65 -37.1 115.2 -37.1 114.35 -37.1 113.45 -38.25 113.7 -40.25 113.1 -42.1 112.15 -43.9 111.2 -45.1 109.25 -45.85 107.15 -45.3 105.0 -44.75 102.8 -43.75 101.0 -40.05 94.1 -34.7 88.1 -37.4 80.7 -35.35 73.4 -33.4 66.05 -29.5 59.9 L-25.45 54.6 Q-22.6 46.6 -17.35 39.6 L-19.7 38.75 -21.75 38.05 Q-24.05 37.2 -25.15 34.85 -27.05 31.0 -26.3 26.5 -25.6 22.0 -23.9 18.3 -18.35 5.8 -7.85 -4.4 -4.9 -6.8 -1.5 -8.25 1.9 -9.7 6.05 -8.85 8.55 -7.95 9.9 -5.5 11.35 -3.2 11.3 -0.2 M7.25 24.55 Q6.6 24.2 5.95 24.0 3.15 23.1 -0.1 23.0 L-1.6 23.35 Q-2.45 23.45 -2.35 24.55 L0.55 24.75 Q1.45 24.95 2.1 25.4 L2.65 25.4 Q3.8 26.15 4.4 27.1 L4.35 27.1 4.55 27.45 4.8 28.0 Q5.65 29.5 5.2 31.0 4.7 32.45 3.75 33.6 1.1 37.0 -2.5 38.75 L-5.5 39.9 Q-11.05 41.45 -16.75 39.85 L-16.8 39.95 -20.65 46.5 -20.75 46.7 -21.25 47.25 -21.45 47.55 -21.3 47.55 -21.2 47.55 -21.25 47.65 -21.4 47.95 -21.55 47.95 Q-24.35 53.85 -26.4 60.0 L-26.6 60.5 -28.8 69.0 -30.5 75.6 -30.95 77.95 -31.35 81.25 Q-31.6 82.95 -30.4 84.4 -29.45 84.3 -29.75 83.8 -30.1 83.3 -29.65 82.7 L-25.5 82.65 -25.45 82.45 -24.6 82.65 -16.75 83.0 -16.7 82.95 -16.1 83.05 -15.75 83.0 -13.0 83.35 -12.75 83.35 -9.85 83.7 Q-9.6 80.3 -8.75 77.2 L-8.05 76.4 -8.0 76.4 -7.7 76.7 -8.35 80.35 -8.35 80.55 -8.4 80.55 -8.45 81.55 -8.55 84.5 Q-8.45 87.55 -7.65 90.55 -6.9 93.45 -3.95 94.8 0.45 95.95 3.95 93.35 9.05 86.95 10.0 78.65 10.9 70.3 9.05 62.55 8.7 60.3 7.5 58.25 L7.25 57.8 Q6.3 56.05 4.25 55.65 L4.05 55.6 3.95 55.6 Q2.2 56.2 1.0 58.0 L0.6 58.6 -1.25 61.3 -1.35 60.8 1.05 56.65 Q1.85 55.35 3.05 54.9 L4.6 54.65 4.7 54.65 Q6.3 55.1 7.4 56.15 8.15 56.85 8.65 57.85 L8.7 58.0 Q9.9 60.55 10.25 63.05 10.9 59.9 11.85 56.75 L12.45 54.7 12.7 54.2 12.8 53.9 Q13.1 53.3 13.0 52.8 14.5 46.8 14.35 40.25 L14.25 38.75 Q13.8 32.75 11.05 27.6 L10.8 27.3 10.4 26.85 Q8.9 25.35 7.25 24.55 M-2.75 25.7 Q-4.45 29.9 -6.95 33.8 -9.2 37.25 -13.15 38.75 L-14.05 39.1 Q-10.45 39.9 -6.85 39.05 L-5.7 38.75 Q-2.8 37.9 -0.3 36.3 L2.45 33.65 Q3.75 32.2 4.25 30.25 L3.5 28.1 Q2.3 26.5 0.35 26.0 L0.35 25.9 -2.75 25.7 M-32.2 79.3 Q-30.65 68.45 -26.95 58.35 L-28.0 59.4 Q-32.25 65.7 -34.25 72.85 -35.2 76.25 -35.2 79.7 -35.2 82.3 -34.7 84.95 L-34.65 85.15 -34.1 87.4 -31.0 85.0 Q-32.15 83.2 -32.45 81.15 L-32.2 79.3 M-2.65 96.3 L-4.5 95.95 -4.95 95.7 -7.65 93.75 -9.7 87.75 -9.8 87.05 Q-9.95 85.4 -11.4 84.95 L-12.15 85.2 -26.45 84.35 Q-28.45 84.05 -29.95 85.3 L-33.0 87.8 Q-41.1 95.9 -44.6 106.3 L-44.75 106.7 Q-44.2 109.55 -41.85 110.95 -39.65 112.25 -37.3 112.9 -37.05 113.3 -36.3 113.25 L-36.2 113.2 -36.15 113.15 -36.05 112.95 Q-36.7 114.45 -35.3 115.3 -32.4 116.05 -29.6 117.1 -26.8 118.15 -23.75 118.4 -19.45 116.8 -15.25 114.75 L-14.45 114.4 -12.95 113.4 Q-9.2 113.75 -5.55 112.55 0.6 110.4 4.95 105.65 6.2 103.05 6.05 99.85 5.9 96.6 4.35 94.15 2.55 95.7 0.2 96.15 L0.05 96.2 -2.65 96.3 M-16.25 81.85 L-16.3 81.85 -16.25 81.85 M-21.95 104.35 L-22.0 104.35 -21.95 104.3 -21.95 104.35" fill="#000000" fill-rule="evenodd" stroke="none"/>
    <path d="M-22.05 36.7 Q-16.15 35.4 -13.25 29.55 L-8.45 19.55 Q-5.4 12.9 -1.2 6.85 L0.95 4.2 0.35 4.8 Q1.7 3.05 3.3 1.55 L5.95 -1.65 Q6.65 -3.8 5.9 -5.7 L5.4 -6.35 Q4.5 -7.1 4.2 -7.9 L5.05 -7.85 Q7.0 -7.45 8.55 -5.95 10.05 -4.05 10.2 -1.3 L10.1 1.05 10.05 1.05 9.9 1.95 9.4 3.3 9.3 3.4 9.25 3.55 4.2 8.6 Q1.65 10.9 0.1 14.2 -2.2 18.85 -3.35 23.75 -4.55 28.65 -7.75 33.0 -10.5 36.55 -14.35 38.3 L-18.2 38.1 Q-20.2 37.7 -21.55 36.75 L-22.05 36.7 M-1.25 61.3 L0.6 58.6 0.8 58.7 0.8 58.75 -1.2 61.35 -1.25 61.3 M-26.6 60.5 L-26.4 60.0 -26.25 60.4 -26.6 60.5 M-21.4 47.95 L-21.25 47.65 -21.4 47.95 M-7.2 60.4 L-7.15 60.4 -7.15 60.45 -7.2 60.4 M0.3 52.7 L-0.4 53.3 0.35 52.65 0.3 52.7" fill="#5e6777" fill-rule="evenodd" stroke="none"/>
    <path d="M4.2 -7.9 Q4.5 -7.1 5.4 -6.35 L5.9 -5.7 Q6.65 -3.8 5.95 -1.65 L3.3 1.55 Q1.7 3.05 0.35 4.8 L0.95 4.2 -1.2 6.85 Q-5.4 12.9 -8.45 19.55 L-13.25 29.55 Q-16.15 35.4 -22.05 36.7 -22.85 36.5 -23.25 35.8 L-24.45 33.9 Q-26.45 28.4 -24.45 22.9 -21.0 12.55 -13.75 3.45 -10.0 -1.05 -5.45 -4.7 -1.3 -8.1 4.2 -7.9 M-8.55 6.4 L-8.8 5.7 Q-11.7 6.1 -13.6 8.4 L-16.3 11.65 Q-18.5 14.5 -20.15 17.8 -22.8 23.25 -21.7 29.05 -21.15 29.8 -20.35 29.35 L-20.25 29.0 -19.95 26.75 -19.85 26.55 -19.25 24.7 -17.55 21.25 -15.45 17.95 Q-11.5 12.55 -8.55 6.55 L-8.55 6.4 M-8.35 80.55 L-8.35 80.35 -8.25 80.35 -8.35 80.55 M-19.15 48.65 L-19.2 48.75 -19.25 48.8 -19.15 48.65 M-14.95 77.95 L-15.15 78.0 -15.05 77.95 -14.95 77.95" fill="#8b94a3" fill-rule="evenodd" stroke="none"/>
    <path d="M9.9 1.95 L10.05 1.05 10.1 1.05 9.9 1.95" fill="#a7adb8" fill-rule="evenodd" stroke="none"/>
    <path d="M4.4 27.1 Q5.6 28.1 6.05 30.15 6.5 32.4 5.7 34.7 4.9 36.8 3.7 38.75 L3.45 39.1 Q-2.4 45.5 -11.45 43.75 -13.7 43.3 -15.6 41.65 -16.5 40.8 -16.8 39.95 L-16.75 39.85 Q-11.05 41.45 -5.5 39.9 L-2.5 38.75 Q1.1 37.0 3.75 33.6 4.7 32.45 5.2 31.0 5.65 29.5 4.8 28.0 L4.55 27.45 4.35 27.1 4.4 27.1 M-25.95 77.5 L-24.1 78.1 -23.35 78.3 -22.8 78.4 -22.65 78.35 -21.8 78.4 -19.2 78.75 -19.35 79.05 -19.15 78.95 -19.05 78.8 -18.95 78.8 -18.35 78.85 Q-16.55 78.75 -15.05 77.95 L-15.15 78.0 -14.95 77.95 -13.8 77.8 -13.5 77.55 Q-11.65 76.75 -10.85 74.6 L-8.8 69.1 -8.3 67.65 -6.65 63.55 -5.35 60.9 -3.9 58.25 Q-2.5 55.65 -0.4 53.6 L0.3 52.7 0.35 52.65 2.15 50.8 Q2.5 50.5 2.9 50.3 L4.35 49.1 6.4 50.0 6.55 50.1 6.75 50.25 8.05 51.45 Q8.7 52.0 8.95 52.8 L9.1 52.65 9.1 52.6 9.15 52.7 9.95 54.1 10.8 55.6 11.05 56.4 Q11.15 56.8 11.5 56.85 L11.7 56.75 11.75 56.55 Q11.95 56.15 11.7 55.7 L10.4 53.5 10.4 53.45 10.2 53.2 10.2 53.05 9.9 52.7 9.9 52.65 9.65 52.45 9.65 52.4 9.6 52.3 9.45 52.1 9.4 52.05 9.25 51.8 9.25 51.75 7.2 49.95 Q6.1 49.1 4.85 48.6 L5.75 47.6 Q7.7 43.35 8.75 38.75 L9.25 36.25 10.0 31.9 Q9.6 29.8 8.8 27.8 L7.25 24.55 Q8.9 25.35 10.4 26.85 L10.8 27.3 11.05 27.6 Q13.8 32.75 14.25 38.75 L14.35 40.25 Q14.5 46.8 13.0 52.8 13.1 53.3 12.8 53.9 L12.7 54.2 12.45 54.7 11.85 56.75 Q10.9 59.9 10.25 63.05 9.9 60.55 8.7 58.0 L8.65 57.85 Q8.15 56.85 7.4 56.15 6.3 55.1 4.7 54.65 L4.6 54.65 3.05 54.9 Q1.85 55.35 1.05 56.65 L-1.35 60.8 -1.25 61.3 -1.2 61.35 Q-3.35 64.3 -5.1 67.6 -6.85 71.05 -7.7 74.8 L-8.05 76.4 -8.75 77.2 Q-9.6 80.3 -9.85 83.7 L-12.75 83.35 -13.0 83.35 -15.75 83.0 -16.1 83.05 -16.7 82.95 -16.75 83.0 -24.6 82.65 -25.45 82.45 -25.5 82.65 -29.65 82.7 Q-30.1 83.3 -29.75 83.8 -29.45 84.3 -30.4 84.4 -31.6 82.95 -31.35 81.25 L-30.95 77.95 -30.5 75.6 -28.8 69.0 -28.9 71.6 -28.85 73.9 Q-28.6 75.85 -27.1 76.85 L-26.25 77.35 -26.95 79.05 -26.75 78.95 -26.6 78.65 -25.95 77.5 M0.6 58.6 L1.0 58.0 Q2.2 56.2 3.95 55.6 L4.05 55.6 4.25 55.65 Q6.3 56.05 7.25 57.8 L7.5 58.25 Q8.7 60.3 9.05 62.55 10.9 70.3 10.0 78.65 9.05 86.95 3.95 93.35 0.45 95.95 -3.95 94.8 -6.9 93.45 -7.65 90.55 -8.45 87.55 -8.55 84.5 L-8.45 81.55 -8.4 80.55 -8.35 80.55 -8.25 80.35 -7.95 80.0 -7.85 81.35 -7.25 83.9 Q-6.25 87.05 -3.2 88.0 -1.2 87.25 0.3 85.75 1.5 84.65 2.3 83.25 3.75 80.8 4.6 78.15 L5.45 75.2 6.35 71.2 6.85 67.1 7.0 65.0 6.7 62.05 5.75 58.45 4.65 56.3 Q2.4 56.75 0.8 58.7 L0.6 58.6 M-2.75 25.7 L0.35 25.9 0.35 26.0 Q2.3 26.5 3.5 28.1 L4.25 30.25 Q3.75 32.2 2.45 33.65 L-0.3 36.3 Q-2.8 37.9 -5.7 38.75 L-6.85 39.05 Q-10.45 39.9 -14.05 39.1 L-13.15 38.75 Q-9.2 37.25 -6.95 33.8 -4.45 29.9 -2.75 25.7 M-32.2 79.3 L-32.45 81.15 Q-32.15 83.2 -31.0 85.0 L-34.1 87.4 -34.65 85.15 -34.7 84.95 Q-35.2 82.3 -35.2 79.7 L-34.4 78.85 -34.1 78.8 -33.4 78.7 Q-32.75 78.95 -32.2 79.3 M-2.65 96.3 L0.05 96.2 0.2 96.15 Q2.55 95.7 4.35 94.15 5.9 96.6 6.05 99.85 6.2 103.05 4.95 105.65 0.6 110.4 -5.55 112.55 -9.2 113.75 -12.95 113.4 L-12.9 113.15 -12.9 112.85 -12.9 112.6 -12.95 111.15 -12.95 111.0 -10.6 110.7 Q-8.7 107.95 -7.5 104.8 L-5.8 100.85 -3.3 96.25 -2.65 96.3 M-15.25 114.75 Q-19.45 116.8 -23.75 118.4 -26.8 118.15 -29.6 117.1 -32.4 116.05 -35.3 115.3 -36.7 114.45 -36.05 112.95 L-36.05 112.9 Q-33.75 107.45 -29.15 103.45 L-28.05 103.25 -27.6 103.35 -24.6 103.9 -24.25 103.95 -22.45 104.25 -22.0 104.35 -21.95 104.35 -20.35 104.85 -19.4 105.35 -17.8 106.65 -17.7 106.7 -17.65 106.8 -17.55 106.9 -17.5 107.0 Q-15.6 110.45 -14.6 114.4 L-14.7 114.45 -15.2 114.7 -15.3 114.75 -15.25 114.75 M-37.3 112.9 Q-39.65 112.25 -41.85 110.95 -44.2 109.55 -44.75 106.7 L-44.6 106.3 -40.75 107.6 Q-38.15 108.55 -35.4 109.15 -36.4 110.85 -37.0 112.75 L-37.1 112.95 -37.3 112.9 M-16.25 81.85 L-16.3 81.85 -16.25 81.85 M-19.85 106.85 Q-20.65 106.35 -21.5 105.95 -23.9 104.95 -26.5 104.6 L-28.65 104.5 Q-31.6 106.5 -33.4 110.05 L-34.2 111.7 -33.5 112.25 -31.9 113.25 Q-29.3 114.45 -26.55 115.15 L-25.45 115.2 -24.5 115.15 -24.3 115.05 -24.15 115.0 Q-22.45 110.85 -20.05 107.1 L-19.85 106.85" fill="#5e6781" fill-rule="evenodd" stroke="none"/>
    <path d="M4.4 27.1 Q3.8 26.15 2.65 25.4 L2.1 25.4 Q1.45 24.95 0.55 24.75 L-2.35 24.55 Q-2.45 23.45 -1.6 23.35 L-0.1 23.0 Q3.15 23.1 5.95 24.0 6.6 24.2 7.25 24.55 L8.8 27.8 Q9.6 29.8 10.0 31.9 L9.25 36.25 8.75 38.75 Q7.7 43.35 5.75 47.6 L4.85 48.6 Q3.35 47.9 1.7 47.65 L1.55 47.65 Q-1.8 47.1 -5.1 47.8 L-5.35 47.85 -5.85 47.95 -5.8 47.85 -6.15 48.0 -7.1 48.25 -19.2 78.75 -21.8 78.4 -22.65 78.35 -22.8 78.4 -23.35 78.3 -24.1 78.1 -25.95 77.5 -24.65 75.3 -24.9 76.05 Q-19.85 62.5 -14.4 49.05 L-14.75 48.45 -14.75 48.35 -14.85 48.55 -14.95 48.5 -15.0 48.45 -15.0 48.4 -15.1 48.3 -15.3 48.2 -14.5 46.4 Q-14.8 45.5 -16.4 45.05 L-17.2 45.8 -18.1 46.8 -18.25 46.75 -19.45 46.5 -20.65 46.5 -16.8 39.95 Q-16.5 40.8 -15.6 41.65 -13.7 43.3 -11.45 43.75 -2.4 45.5 3.45 39.1 L3.7 38.75 Q4.9 36.8 5.7 34.7 6.5 32.4 6.05 30.15 5.6 28.1 4.4 27.1 M-8.35 80.35 L-7.7 76.7 -8.0 76.4 -8.05 76.4 -7.7 74.8 Q-6.85 71.05 -5.1 67.6 -3.35 64.3 -1.2 61.35 L0.8 58.75 0.8 58.7 Q2.4 56.75 4.65 56.3 L5.75 58.45 6.7 62.05 7.0 65.0 6.85 67.1 6.35 71.2 5.45 75.2 4.6 78.15 Q3.75 80.8 2.3 83.25 1.5 84.65 0.3 85.75 -1.2 87.25 -3.2 88.0 -6.25 87.05 -7.25 83.9 L-7.85 81.35 -7.95 80.0 -8.25 80.35 -8.35 80.35 M-28.8 69.0 L-26.6 60.5 -26.25 60.4 -26.4 60.0 Q-24.35 53.85 -21.55 47.95 L-21.4 47.95 -21.25 47.65 -21.2 47.55 -18.55 47.6 -18.65 47.75 -18.75 47.85 -19.1 48.35 -19.05 48.35 -19.15 48.65 -19.25 48.8 Q-20.05 50.0 -20.5 51.45 L-21.55 54.2 -22.55 57.0 -23.5 59.85 -24.4 62.65 -25.25 65.5 -25.75 67.35 -25.9 67.05 -25.2 68.1 Q-24.35 69.0 -23.35 68.25 L-22.3 67.45 -26.25 77.35 -27.1 76.85 Q-28.6 75.85 -28.85 73.9 L-28.9 71.6 -28.8 69.0 M-18.0 56.5 L-17.2 53.5 -16.8 52.35 -16.2 50.2 -16.15 50.1 -15.9 49.5 -15.85 49.45 -15.45 48.6 -15.1 48.85 -15.0 48.95 -18.0 56.5 M-19.05 78.8 L-19.0 78.65 -17.05 75.3 -17.3 76.05 Q-12.25 62.5 -6.8 49.05 L-6.3 48.9 -6.35 48.9 -6.35 48.85 -6.3 48.9 -6.25 48.9 -5.15 48.6 Q-1.5 47.7 2.05 48.45 L4.35 49.1 2.9 50.3 Q2.5 50.5 2.15 50.8 L0.35 52.65 -0.4 53.3 0.3 52.7 -0.4 53.6 Q-2.5 55.65 -3.9 58.25 L-5.35 60.9 -6.65 63.55 -8.3 67.65 -8.8 69.1 -10.85 74.6 Q-11.65 76.75 -13.5 77.55 L-13.8 77.8 -14.95 77.95 -15.05 77.95 Q-16.55 78.75 -18.35 78.85 L-18.95 78.8 -19.05 78.8 M-7.2 60.4 L-7.15 60.45 -7.15 60.4 -7.2 60.4 M-3.65 71.05 L-3.65 73.05 Q-3.25 75.4 -0.75 74.55 L-0.3 74.1 Q0.85 70.2 2.8 66.65 L3.35 65.2 Q4.1 62.65 1.35 62.7 -2.95 65.7 -3.65 71.05 M-44.6 106.3 Q-41.1 95.9 -33.0 87.8 L-29.95 85.3 Q-28.45 84.05 -26.45 84.35 L-12.15 85.2 -11.4 84.95 Q-9.95 85.4 -9.8 87.05 L-9.7 87.75 -7.65 93.75 -4.95 95.7 -4.5 95.95 -2.65 96.3 -3.3 96.25 -5.8 100.85 -7.5 104.8 Q-8.7 107.95 -10.6 110.7 L-12.95 111.0 Q-13.2 109.7 -13.75 108.5 L-14.35 107.45 -17.3 102.55 -17.55 102.5 Q-21.25 101.7 -25.1 101.45 L-29.1 101.05 -29.35 101.45 Q-31.8 104.1 -33.95 106.9 L-35.4 109.15 Q-38.15 108.55 -40.75 107.6 L-44.6 106.3 M-24.45 88.3 Q-25.55 86.6 -27.8 87.05 -28.8 87.2 -29.55 87.85 -34.55 92.3 -37.45 98.35 -38.15 99.8 -37.35 101.1 -37.0 101.75 -36.35 101.5 -34.05 100.8 -32.55 98.9 L-28.9 94.5 -24.55 89.2 Q-24.2 88.75 -24.45 88.3 M-19.85 106.85 L-20.05 107.1 Q-22.45 110.85 -24.15 115.0 L-24.3 115.05 -24.5 115.15 -25.45 115.2 -26.55 115.15 Q-29.3 114.45 -31.9 113.25 L-33.5 112.25 -34.2 111.7 -33.4 110.05 Q-31.6 106.5 -28.65 104.5 L-26.5 104.6 Q-23.9 104.95 -21.5 105.95 -20.65 106.35 -19.85 106.85 M-27.1 109.2 Q-25.85 107.0 -28.05 106.25 -30.05 106.6 -30.55 108.75 -31.1 111.35 -28.45 110.95 L-27.1 109.2" fill="#878eb0" fill-rule="evenodd" stroke="none"/>
    <path d="M-8.55 6.4 L-8.55 6.55 Q-11.5 12.55 -15.45 17.95 L-17.55 21.25 -19.25 24.7 -19.85 26.55 -19.95 26.75 -20.25 29.0 -20.35 29.35 Q-21.15 29.8 -21.7 29.05 -22.8 23.25 -20.15 17.8 -18.5 14.5 -16.3 11.65 L-13.6 8.4 Q-11.7 6.1 -8.8 5.7 L-8.55 6.4" fill="#b3b9c1" fill-rule="evenodd" stroke="none"/>
    <path d="M-20.65 46.5 L-19.45 46.5 -18.25 46.75 -18.1 46.8 -16.15 47.55 -15.85 47.85 -15.3 48.2 -15.1 48.3 -15.0 48.4 -15.0 48.45 -14.95 48.5 -14.85 48.55 -14.75 48.35 -14.75 48.45 -14.4 49.05 Q-19.85 62.5 -24.9 76.05 L-24.65 75.3 -25.95 77.5 -26.6 78.65 -26.75 78.95 -26.95 79.05 -26.25 77.35 -22.3 67.45 -18.0 56.5 -15.0 48.95 -15.1 48.85 -15.45 48.6 -15.8 48.35 -15.85 48.3 -16.75 48.0 -18.55 47.6 -21.2 47.55 -21.3 47.55 -21.45 47.55 -21.25 47.25 -20.75 46.7 -20.65 46.5 M-19.2 78.75 L-7.1 48.25 -6.15 48.0 -5.8 47.85 -5.85 47.95 -5.35 47.85 -5.1 47.8 Q-1.8 47.1 1.55 47.65 L1.7 47.65 Q3.35 47.9 4.85 48.6 6.1 49.1 7.2 49.95 L9.25 51.75 9.25 51.8 9.4 52.05 9.45 52.1 9.6 52.3 9.65 52.4 9.65 52.45 9.9 52.65 9.9 52.7 10.2 53.05 10.2 53.2 10.4 53.45 10.4 53.5 11.7 55.7 Q11.95 56.15 11.75 56.55 L11.7 56.75 11.5 56.85 Q11.15 56.8 11.05 56.4 L10.8 55.6 9.95 54.1 9.15 52.7 9.1 52.6 9.1 52.65 8.95 52.8 Q8.7 52.0 8.05 51.45 L6.75 50.25 6.55 50.1 6.4 50.0 4.35 49.1 2.05 48.45 Q-1.5 47.7 -5.15 48.6 L-6.25 48.9 -6.3 48.9 -6.35 48.85 -6.35 48.9 -6.3 48.9 -6.8 49.05 Q-12.25 62.5 -17.3 76.05 L-17.05 75.3 -19.0 78.65 -19.05 78.8 -19.15 78.95 -19.35 79.05 -19.2 78.75" fill="#414652" fill-rule="evenodd" stroke="none"/>
    <path d="M-18.1 46.8 L-17.2 45.8 -16.4 45.05 Q-14.8 45.5 -14.5 46.4 L-15.3 48.2 -15.85 47.85 -16.15 47.55 -18.1 46.8 M-19.15 48.65 L-19.05 48.35 -19.1 48.35 -18.75 47.85 -18.65 47.75 -18.55 47.6 -16.75 48.0 -15.85 48.3 -15.8 48.35 -15.45 48.6 -15.85 49.45 -15.9 49.5 -16.15 50.1 -16.2 50.2 -16.8 52.35 -17.2 53.5 -18.0 56.5 -22.3 67.45 -23.35 68.25 Q-24.35 69.0 -25.2 68.1 L-25.9 67.05 -25.75 67.35 -25.25 65.5 -24.4 62.65 -23.5 59.85 -22.55 57.0 -21.55 54.2 -20.5 51.45 Q-20.05 50.0 -19.25 48.8 L-19.2 48.75 -19.15 48.65 M-3.65 71.05 Q-2.95 65.7 1.35 62.7 4.1 62.65 3.35 65.2 L2.8 66.65 Q0.85 70.2 -0.3 74.1 L-0.75 74.55 Q-3.25 75.4 -3.65 73.05 L-3.65 71.05 M-24.45 88.3 Q-24.2 88.75 -24.55 89.2 L-28.9 94.5 -32.55 98.9 Q-34.05 100.8 -36.35 101.5 -37.0 101.75 -37.35 101.1 -38.15 99.8 -37.45 98.35 -34.55 92.3 -29.55 87.85 -28.8 87.2 -27.8 87.05 -25.55 86.6 -24.45 88.3 M-27.1 109.2 L-28.45 110.95 Q-31.1 111.35 -30.55 108.75 -30.05 106.6 -28.05 106.25 -25.85 107.0 -27.1 109.2" fill="#b3b9ce" fill-rule="evenodd" stroke="none"/>
    <path d="M-35.2 79.7 Q-35.2 76.25 -34.25 72.85 -32.25 65.7 -28.0 59.4 L-26.95 58.35 Q-30.65 68.45 -32.2 79.3 -32.75 78.95 -33.4 78.7 L-34.1 78.8 -34.4 78.85 -35.2 79.7" fill="#8b94ab" fill-rule="evenodd" stroke="none"/>
    <path d="M-12.95 113.4 L-14.45 114.4 -15.25 114.75 -15.3 114.75 -15.2 114.7 -14.7 114.45 -14.6 114.4 Q-15.6 110.45 -17.5 107.0 L-17.55 106.9 -17.65 106.8 -17.7 106.7 -17.8 106.65 -19.4 105.35 -20.35 104.85 -21.95 104.35 -21.95 104.3 -22.0 104.35 -22.45 104.25 -24.25 103.95 -24.6 103.9 -27.6 103.35 -28.05 103.25 -29.15 103.45 Q-33.75 107.45 -36.05 112.9 L-36.05 112.95 -36.15 113.15 -36.2 113.2 -36.3 113.25 Q-37.05 113.3 -37.3 112.9 L-37.1 112.95 -37.0 112.75 Q-36.4 110.85 -35.4 109.15 L-33.95 106.9 Q-31.8 104.1 -29.35 101.45 L-29.1 101.05 -25.1 101.45 Q-21.25 101.7 -17.55 102.5 L-17.3 102.55 -14.35 107.45 -13.75 108.5 Q-13.2 109.7 -12.95 111.0 L-12.95 111.15 -12.9 112.6 -12.9 112.85 -12.9 113.15 -12.95 113.4" fill="#3c4764" fill-rule="evenodd" stroke="none"/>
  </g>
</svg>
