<?xml version="1.0" encoding="UTF-8" standalone="no"?>
<svg xmlns:xlink="http://www.w3.org/1999/xlink" height="124.65px" width="147.3px" xmlns="http://www.w3.org/2000/svg">
  <g transform="matrix(1.0, 0.0, 0.0, 1.0, 73.65, 62.3)">
    <path d="M49.0 -58.25 L49.75 -58.45 53.0 -58.25 53.75 -57.6 54.35 -56.45 54.65 -55.55 54.7 -54.6 54.65 -53.6 53.35 -49.75 53.15 -49.2 53.1 -49.15 53.15 -49.15 Q53.1 -48.95 53.2 -48.75 L53.5 -48.45 Q54.25 -48.15 55.15 -48.15 L55.2 -48.15 Q55.6 -47.9 56.05 -47.75 L58.9 -46.5 60.0 -46.55 60.1 -46.6 60.2 -46.55 61.1 -46.65 Q63.2 -46.85 64.75 -45.45 L65.4 -44.65 65.75 -44.3 Q66.5 -42.4 66.4 -40.3 66.35 -39.4 66.45 -38.5 L67.2 -35.45 67.25 -34.95 Q67.45 -33.6 67.25 -32.3 L68.1 -32.2 69.2 -32.8 Q71.45 -33.15 73.05 -32.0 74.15 -29.9 73.2 -27.85 72.3 -25.85 71.05 -24.1 65.85 -17.9 59.35 -12.95 52.85 -8.05 44.45 -7.75 43.55 -6.15 42.95 -4.4 42.35 -2.7 41.05 -1.3 42.75 4.75 41.3 10.5 39.9 16.25 36.8 21.15 37.45 30.95 29.2 37.15 L27.6 44.4 Q26.7 48.0 24.1 50.9 L15.9 58.5 Q11.6 62.15 5.85 62.35 3.0 62.05 2.85 59.4 2.65 56.85 0.1 57.3 L0.1 57.35 0.0 57.3 -0.1 57.35 -0.1 57.3 Q-2.7 56.85 -2.85 59.4 -3.05 62.05 -5.85 62.35 -11.65 62.15 -15.9 58.5 L-24.1 50.9 Q-26.75 48.0 -27.6 44.4 L-29.2 37.15 Q-37.45 30.95 -36.8 21.15 -39.9 16.25 -41.3 10.5 -42.75 4.75 -41.05 -1.3 -42.4 -2.7 -42.95 -4.4 -43.55 -6.15 -44.45 -7.75 -52.85 -8.05 -59.35 -12.95 -65.9 -17.9 -71.05 -24.1 -72.3 -25.85 -73.2 -27.85 -74.1 -29.75 -73.25 -31.7 L-72.85 -32.0 -72.3 -32.45 -69.2 -32.8 -68.1 -32.2 Q-67.55 -31.8 -67.15 -32.45 L-67.25 -34.4 -67.25 -34.55 Q-66.95 -36.4 -66.2 -38.1 L-66.05 -38.4 -66.45 -40.1 -66.5 -41.15 Q-66.5 -42.6 -65.65 -43.8 L-64.55 -45.0 Q-63.35 -46.0 -61.85 -46.25 L-60.1 -46.0 Q-58.5 -47.25 -56.65 -48.0 L-56.15 -48.1 -55.85 -48.15 Q-54.35 -48.5 -53.1 -49.15 L-53.8 -50.85 -53.8 -51.35 -54.25 -53.75 Q-54.55 -55.15 -54.15 -56.5 -53.75 -57.8 -52.4 -58.15 L-51.35 -58.4 -50.95 -58.5 -49.2 -58.6 -47.7 -57.85 -47.25 -57.6 -45.85 -55.9 Q-44.25 -53.25 -43.3 -50.55 -39.45 -51.2 -35.8 -49.6 -33.65 -48.4 -32.4 -46.6 L-31.0 -47.45 -29.7 -48.05 Q-28.2 -48.75 -26.6 -48.95 L-22.65 -48.8 -20.1 -48.1 -20.15 -48.15 -20.6 -49.1 Q-20.7 -50.5 -20.3 -51.8 -19.9 -53.1 -20.6 -54.5 -20.8 -56.5 -19.5 -57.85 L-16.85 -60.1 -16.1 -60.45 -14.3 -60.8 Q-12.8 -60.85 -11.35 -59.85 -10.3 -60.7 -9.0 -60.65 L-7.25 -60.3 -6.9 -60.05 -6.85 -60.1 -3.45 -61.9 -1.35 -62.3 0.75 -61.95 Q2.35 -61.4 3.65 -60.25 L6.3 -60.85 7.15 -60.9 Q8.15 -60.95 9.05 -60.35 L10.15 -60.45 Q11.4 -60.5 12.4 -59.75 14.2 -60.6 16.05 -60.6 18.1 -60.6 20.1 -59.6 L21.45 -58.1 Q22.1 -56.95 21.95 -55.3 L21.45 -54.05 21.4 -53.8 Q21.15 -53.0 20.3 -52.6 20.9 -51.5 20.5 -50.35 L19.5 -48.25 19.5 -48.2 21.95 -48.8 25.9 -48.65 29.3 -47.7 Q30.8 -47.25 32.1 -46.1 33.3 -48.25 35.8 -49.6 39.4 -51.2 43.3 -50.55 L43.35 -50.7 43.4 -50.75 44.85 -53.2 Q45.8 -54.9 47.05 -56.4 L47.85 -57.3 49.0 -58.25 M51.1 -57.75 L50.5 -57.75 50.45 -57.75 50.4 -57.7 Q48.45 -57.3 47.4 -55.7 L45.5 -52.55 Q42.4 -45.05 40.4 -37.05 39.3 -32.85 38.55 -28.45 38.1 -23.8 37.95 -18.9 37.85 -16.25 38.7 -13.9 39.2 -12.4 40.15 -11.05 L40.75 -10.2 Q42.5 -8.95 44.85 -8.9 L44.95 -8.9 45.25 -8.9 45.45 -8.9 45.6 -8.9 47.3 -9.05 47.5 -9.1 49.3 -9.6 Q57.9 -12.85 64.45 -18.85 L64.4 -18.9 Q67.35 -21.65 69.9 -24.95 L70.75 -26.05 71.1 -26.6 71.25 -26.75 72.1 -28.0 72.15 -28.1 72.25 -28.3 72.3 -28.5 Q72.9 -30.2 71.6 -31.4 L70.75 -31.55 70.6 -31.6 70.2 -31.6 69.7 -31.6 68.7 -31.4 67.6 -31.0 67.0 -30.6 66.8 -30.1 66.25 -28.75 66.15 -28.55 Q64.85 -25.85 63.0 -23.4 L59.8 -19.9 55.85 -16.65 Q52.5 -14.3 48.75 -12.85 L48.1 -12.75 47.2 -12.7 45.9 -12.65 45.7 -12.65 Q44.55 -12.8 43.85 -13.7 L43.8 -13.75 43.8 -13.8 Q43.1 -15.55 42.8 -17.35 L42.6 -18.8 Q42.4 -21.35 42.95 -23.9 L42.95 -23.95 43.0 -23.9 43.35 -25.6 44.75 -32.45 44.75 -32.5 44.7 -32.45 44.7 -32.5 45.0 -33.95 45.0 -34.0 45.8 -37.1 46.8 -39.75 46.8 -39.8 Q47.95 -42.55 49.75 -45.1 L50.15 -45.7 50.2 -45.65 Q51.55 -47.8 52.3 -50.1 L52.75 -51.75 52.65 -51.75 52.95 -53.45 53.05 -54.35 53.1 -55.0 53.1 -56.6 52.65 -57.1 52.3 -57.35 52.3 -57.4 51.1 -57.75 M12.0 -59.05 L12.05 -59.1 Q11.2 -59.7 10.35 -59.7 L9.25 -59.5 Q8.5 -59.25 8.4 -58.5 8.35 -57.9 7.9 -57.55 L7.8 -57.45 Q7.35 -58.15 7.75 -58.75 L8.4 -59.8 7.4 -59.95 5.4 -59.5 4.35 -59.3 3.65 -59.4 Q3.25 -59.55 2.95 -59.75 L2.45 -60.05 0.7 -60.95 -1.1 -61.4 -2.9 -61.0 -6.35 -59.4 -6.4 -58.25 Q-6.5 -57.75 -6.85 -57.55 L-6.95 -57.5 -7.1 -57.45 Q-6.9 -58.6 -7.6 -59.5 L-8.9 -59.75 -10.2 -59.55 -10.25 -59.55 -10.4 -59.55 Q-11.15 -59.35 -11.55 -58.85 L-11.65 -58.75 -12.8 -59.55 -12.95 -59.6 -14.05 -59.85 -14.2 -59.85 -14.9 -59.8 -16.05 -59.45 -16.1 -59.45 -16.35 -59.35 -17.65 -58.5 -17.7 -58.45 -17.95 -58.15 -18.2 -57.9 -18.3 -57.8 -19.45 -56.0 Q-20.0 -54.6 -19.65 -53.05 L-19.25 -52.45 -19.4 -52.1 -19.45 -51.6 -19.45 -51.15 -19.45 -51.3 Q-19.6 -50.15 -19.35 -49.1 -18.5 -48.4 -18.5 -47.55 L-18.5 -47.3 -18.6 -46.6 -18.6 -46.05 -18.6 -45.05 Q-18.65 -44.1 -18.2 -43.4 L-17.5 -42.55 Q-16.8 -41.95 -16.7 -41.05 -16.65 -40.6 -16.75 -40.15 L-16.75 -39.95 -17.65 -41.05 -17.95 -41.3 -18.1 -41.4 -18.1 -41.05 -18.3 -39.85 Q-18.45 -38.55 -18.05 -37.45 L-18.5 -36.95 -18.5 -36.8 -18.7 -36.6 -19.0 -36.0 -19.0 -35.9 -20.15 -35.7 -21.0 -35.1 -21.7 -34.9 -22.75 -34.75 -23.5 -34.65 -24.6 -34.6 -25.15 -34.55 -27.95 -34.35 -28.3 -34.2 -28.65 -34.1 -29.5 -33.9 -29.45 -33.8 Q-29.5 -33.1 -29.15 -32.4 L-29.0 -31.85 -28.95 -31.5 -28.85 -31.45 -28.75 -31.2 -26.5 -31.05 -26.2 -31.05 -23.8 -31.25 -23.15 -31.35 -22.75 -31.4 -21.0 -31.35 Q-20.65 -31.25 -20.4 -30.95 -19.7 -30.25 -18.75 -29.95 -18.6 -29.2 -17.45 -29.4 -17.3 -29.4 -17.2 -29.5 L-17.0 -28.2 -16.75 -27.3 -16.7 -27.15 -16.7 -27.1 -16.7 -27.0 -16.75 -26.8 -16.75 -26.7 -16.8 -26.5 -16.9 -26.2 -17.35 -25.5 Q-17.25 -26.7 -17.95 -27.5 -18.6 -26.45 -18.75 -25.2 -18.8 -23.55 -17.75 -22.3 -16.4 -21.9 -15.25 -20.75 L-11.5 -22.05 -4.8 -23.3 -4.4 -23.35 -0.6 -23.5 -0.1 -23.5 0.1 -23.5 1.55 -23.5 4.9 -23.3 5.4 -23.25 11.15 -22.15 12.05 -21.9 15.55 -20.65 15.55 -20.7 15.65 -20.65 Q15.95 -21.45 15.9 -22.3 L15.7 -24.55 14.6 -23.65 14.55 -23.65 14.3 -23.4 14.1 -23.65 18.15 -28.7 18.25 -28.85 18.1 -29.35 17.7 -29.55 17.5 -29.75 17.3 -30.3 17.2 -30.45 17.2 -30.25 17.15 -30.3 Q16.9 -30.55 17.25 -30.75 L17.2 -30.6 17.45 -30.8 17.65 -30.6 18.15 -30.4 Q19.75 -29.8 21.45 -30.35 L21.9 -30.5 22.35 -31.1 28.15 -31.65 28.9 -31.6 28.85 -31.45 28.95 -31.5 28.95 -31.6 29.0 -31.85 29.15 -32.4 29.4 -33.8 29.45 -33.9 29.55 -34.3 Q27.15 -34.4 25.85 -35.05 L22.35 -34.9 Q21.85 -35.0 21.45 -35.35 L21.05 -35.85 Q20.1 -37.25 18.7 -36.75 L18.15 -34.85 18.05 -34.75 18.7 -36.8 18.55 -36.75 18.0 -34.85 17.75 -34.7 17.65 -34.7 17.5 -34.75 17.35 -34.85 17.35 -35.0 Q17.45 -36.5 17.15 -37.75 L17.05 -38.15 Q16.5 -39.65 16.95 -41.3 17.8 -42.85 18.35 -44.55 L18.55 -45.3 18.65 -46.65 18.5 -47.75 18.4 -48.05 18.4 -48.15 19.4 -50.2 Q19.8 -51.25 19.25 -52.25 L19.2 -52.35 Q17.5 -51.4 15.6 -51.3 L15.15 -51.3 13.5 -51.5 12.25 -52.55 11.75 -53.45 12.15 -52.95 12.2 -53.1 12.3 -53.3 12.4 -53.15 Q12.9 -52.35 14.1 -52.1 L15.0 -52.05 Q17.9 -52.1 20.15 -54.3 L20.65 -56.15 Q20.85 -57.15 20.25 -57.95 L20.0 -58.15 19.85 -58.25 Q17.95 -59.75 15.7 -59.7 L15.55 -59.7 15.1 -59.65 14.1 -59.55 14.0 -59.5 Q13.4 -59.25 12.9 -58.8 L12.8 -58.7 Q12.65 -59.05 12.15 -59.05 L12.0 -59.05 M-10.2 -56.05 L-10.2 -55.95 -10.25 -55.75 -10.45 -55.15 Q-11.0 -53.35 -12.6 -52.15 L-12.95 -52.0 -14.45 -51.3 -15.45 -50.8 -15.9 -50.55 -15.95 -50.55 -16.0 -50.55 -16.1 -50.6 -16.25 -50.65 -16.35 -50.65 -16.45 -50.6 -16.6 -50.55 -16.5 -51.2 -16.3 -51.25 -16.25 -51.25 -16.1 -51.3 -15.1 -51.6 Q-14.6 -51.85 -14.05 -52.2 L-12.95 -53.05 Q-12.05 -53.9 -11.5 -54.9 -11.3 -55.45 -11.25 -55.9 L-11.1 -55.9 -10.85 -55.9 -10.2 -56.05 M16.2 -58.1 L16.35 -58.1 17.1 -57.65 17.85 -56.65 Q18.2 -55.15 17.1 -54.55 L17.05 -54.55 16.05 -54.7 Q16.45 -56.1 16.15 -57.35 L16.1 -57.55 15.9 -58.05 16.2 -58.1 M39.2 -38.65 Q39.65 -40.25 40.25 -41.75 41.6 -45.1 42.25 -48.45 42.15 -48.5 42.15 -48.5 L40.95 -48.95 40.35 -49.1 38.7 -49.15 Q35.4 -49.0 34.05 -46.2 L34.0 -46.05 33.75 -44.45 33.6 -43.1 33.25 -40.9 33.1 -39.6 32.65 -36.75 32.45 -36.4 32.15 -35.25 32.0 -35.2 31.8 -34.3 31.7 -33.9 31.0 -31.7 Q28.25 -23.45 22.35 -16.4 L25.35 -13.6 25.55 -13.45 25.75 -13.25 26.45 -12.6 27.5 -9.85 27.75 -8.8 27.8 -8.5 27.95 -4.6 27.9 -4.05 27.6 -2.25 27.35 -1.45 26.25 1.95 Q24.85 5.7 22.9 9.1 26.0 8.3 28.8 6.85 L33.65 3.65 34.75 2.75 Q40.1 -2.05 42.0 -8.2 41.25 -8.85 40.5 -9.15 L40.35 -9.3 39.9 -9.75 38.4 -11.7 38.35 -11.75 38.15 -12.1 37.45 -13.3 36.75 -15.05 36.3 -17.0 Q35.95 -18.8 36.1 -20.75 36.55 -27.15 37.65 -32.85 L37.8 -33.6 36.95 -34.2 36.75 -34.3 35.85 -34.85 35.55 -35.0 34.6 -35.65 33.45 -36.15 33.5 -36.15 36.1 -35.55 37.05 -35.15 37.05 -35.1 37.65 -34.8 38.0 -34.6 38.35 -34.85 38.5 -35.65 39.2 -38.65 M19.65 -45.0 Q25.15 -43.55 29.9 -41.3 L30.7 -40.9 30.6 -41.15 30.6 -41.45 30.95 -41.6 31.05 -42.75 31.2 -43.5 31.3 -44.0 31.4 -44.55 31.7 -45.3 30.2 -46.35 27.65 -47.3 27.55 -47.3 27.5 -47.35 23.35 -48.0 22.95 -47.95 19.85 -47.0 20.0 -46.25 19.95 -45.95 19.75 -45.25 19.7 -45.45 19.6 -45.0 19.2 -43.75 19.65 -45.0 M30.85 -40.85 L30.85 -40.9 30.75 -40.9 30.85 -40.85 M21.05 -33.25 L21.1 -33.25 21.45 -33.35 Q21.65 -33.4 21.85 -33.1 L22.05 -33.1 21.45 -32.9 20.75 -32.4 20.7 -32.35 20.65 -32.25 20.6 -32.25 20.05 -31.75 19.9 -31.7 18.5 -31.9 18.65 -32.0 Q19.0 -32.05 19.3 -32.25 L20.15 -32.6 20.4 -32.65 21.05 -33.25 M28.1 -29.05 L28.1 -29.4 27.95 -29.05 28.1 -29.05 M11.25 -39.45 L11.4 -39.5 11.45 -39.5 11.55 -39.5 11.95 -39.4 12.15 -39.35 12.3 -39.2 12.65 -39.0 13.55 -37.95 13.8 -37.45 13.85 -37.25 13.9 -35.95 13.65 -35.4 12.95 -34.45 12.9 -34.4 Q12.45 -34.5 12.15 -34.7 L12.05 -34.75 11.95 -34.85 11.75 -35.0 Q10.7 -35.95 10.45 -37.3 10.15 -37.95 10.4 -38.65 L10.6 -38.9 10.8 -39.05 Q10.95 -39.35 11.25 -39.45 M18.25 -39.75 Q18.05 -40.35 18.25 -41.1 L18.65 -42.2 18.45 -41.75 Q17.95 -40.75 18.05 -39.7 18.05 -38.8 18.5 -37.9 L18.5 -37.95 18.55 -38.15 18.65 -38.55 Q18.2 -38.85 18.25 -39.65 L18.25 -39.7 18.25 -39.75 M-0.35 -28.65 L-0.55 -29.15 Q-1.25 -30.8 -1.2 -32.7 -1.2 -34.6 -0.25 -36.15 L0.7 -36.75 1.15 -36.9 1.55 -36.65 1.6 -36.6 1.7 -36.4 1.75 -36.3 2.5 -33.65 2.55 -33.15 Q2.85 -31.4 2.3 -29.75 L1.2 -28.25 0.95 -28.25 0.15 -28.35 Q-0.15 -28.4 -0.3 -28.6 L-0.35 -28.65 M7.7 -34.0 L7.85 -34.0 7.9 -34.0 8.6 -33.15 8.95 -32.45 9.2 -30.4 9.1 -30.0 8.9 -29.35 8.7 -29.1 8.55 -28.85 7.75 -28.6 7.65 -28.6 7.55 -28.65 7.45 -28.8 7.4 -28.8 Q5.85 -30.8 6.75 -33.25 7.05 -33.9 7.7 -34.0 M14.6 -19.35 L12.3 -20.3 12.25 -20.35 9.35 -21.05 8.95 -21.1 8.0 -21.3 6.2 -21.6 4.8 -21.8 1.35 -22.05 0.7 -22.05 0.55 -22.05 0.1 -22.1 -0.1 -22.1 -0.3 -22.1 -1.25 -22.05 -4.85 -21.8 -12.25 -20.35 -13.9 -19.65 -14.0 -19.6 -14.1 -19.7 -15.55 -19.45 -15.55 -19.25 -18.9 -19.9 -20.5 -19.7 Q-21.9 -19.45 -23.2 -18.6 L-23.75 -18.15 -24.25 -17.8 Q-26.1 -16.15 -27.2 -13.9 L-27.9 -11.75 -28.25 -11.15 -28.0 -11.6 -28.0 -10.75 -28.0 -10.0 -27.95 -9.9 -27.75 -8.6 -27.5 -6.95 -27.65 -7.3 -27.3 -6.25 -26.7 -4.9 -26.6 -4.7 -26.55 -4.7 -26.65 -4.65 -26.15 -3.5 -25.85 -2.8 -25.75 -2.5 -25.7 -2.3 -25.85 -1.85 -25.7 -2.2 -25.65 -1.75 -25.6 -1.35 -25.3 0.1 -25.25 0.3 -25.2 0.35 -24.15 2.5 -21.4 7.4 -21.1 8.0 -20.9 8.35 -19.5 10.9 -17.55 13.25 -17.4 13.45 -16.15 14.8 -15.35 15.6 -15.3 15.7 -14.85 16.1 -14.55 16.4 -14.4 16.55 -14.05 16.9 -13.8 17.1 -13.4 17.5 -13.35 17.55 -12.9 17.9 -10.2 20.05 -9.7 20.4 -7.75 21.7 -4.9 23.35 Q-2.55 24.7 -0.1 25.1 L0.0 25.1 0.1 25.1 Q2.5 24.7 4.9 23.35 13.45 18.8 19.5 10.9 L24.15 2.5 Q26.5 -1.65 26.3 -6.85 L26.1 -7.05 26.1 -7.15 26.1 -7.35 Q26.2 -8.5 25.8 -9.15 L25.75 -9.25 Q25.15 -11.65 23.6 -13.75 L21.1 -15.65 20.6 -16.0 19.35 -16.85 Q19.25 -16.85 19.25 -16.9 L17.9 -17.7 16.8 -18.3 15.3 -19.05 15.0 -19.2 14.6 -19.35 M16.5 -7.75 L17.0 -7.1 17.05 -6.95 Q17.75 -4.8 17.1 -2.65 16.45 -0.4 14.25 0.3 L14.15 0.3 13.95 0.35 13.45 0.45 12.9 0.45 12.45 0.3 11.7 0.25 10.95 0.0 Q10.0 -0.4 9.15 -1.0 L8.55 -1.5 7.9 -2.6 Q7.3 -4.25 8.0 -5.85 9.25 -8.8 12.3 -9.1 L12.5 -9.1 12.6 -9.15 12.75 -9.15 12.85 -9.15 13.0 -9.15 13.2 -9.15 13.9 -9.15 14.05 -9.1 15.0 -8.8 15.8 -8.3 16.5 -7.75 M8.7 -2.6 L9.0 -2.2 10.15 -1.1 Q10.3 -0.95 10.55 -0.9 L10.95 -0.85 11.1 -0.85 14.55 -0.95 15.1 -1.25 15.45 -1.4 Q16.4 -2.4 16.7 -3.75 16.9 -5.15 16.5 -6.3 L15.95 -7.35 15.55 -7.9 15.2 -8.2 14.1 -8.7 13.55 -8.75 12.1 -8.6 11.4 -8.4 10.25 -7.9 Q8.65 -7.05 8.4 -5.2 8.15 -3.75 8.7 -2.6 M64.55 -38.9 L64.85 -39.7 65.3 -40.3 65.4 -40.75 65.4 -41.2 Q65.4 -42.45 64.6 -43.45 L64.2 -43.95 63.9 -44.25 63.1 -44.9 61.65 -45.35 61.15 -45.35 60.9 -45.3 60.0 -45.05 59.75 -44.75 59.65 -44.65 59.25 -44.95 58.7 -45.35 58.7 -45.3 58.55 -45.45 58.5 -45.45 58.15 -45.65 58.2 -45.7 57.75 -45.95 57.45 -46.1 56.65 -46.45 55.6 -46.75 55.25 -46.85 55.1 -46.9 54.0 -47.05 53.9 -47.05 53.65 -47.05 53.4 -47.05 53.15 -47.05 52.75 -47.05 52.3 -47.05 52.25 -47.05 52.15 -46.9 51.9 -46.55 51.1 -45.4 51.05 -45.35 49.65 -42.95 49.0 -41.6 48.85 -41.2 48.8 -41.1 48.7 -41.2 48.4 -40.65 48.05 -39.85 48.0 -39.65 47.25 -38.05 47.2 -37.9 47.4 -38.05 47.35 -37.9 47.05 -37.75 46.45 -36.65 Q45.85 -35.45 45.65 -34.05 L45.5 -33.1 45.45 -32.85 45.6 -33.1 45.25 -31.5 45.15 -31.15 44.7 -28.3 44.6 -27.75 44.05 -24.8 43.65 -22.8 43.6 -22.45 43.6 -22.25 Q43.4 -20.95 43.45 -19.65 L43.45 -19.45 43.45 -19.1 43.45 -18.05 Q43.6 -16.55 44.4 -15.2 L44.7 -14.75 Q45.05 -14.3 45.7 -14.0 L46.0 -13.9 46.2 -13.85 46.9 -13.9 47.3 -13.8 47.4 -13.8 47.9 -13.9 Q49.9 -14.85 51.8 -15.9 L51.95 -15.95 52.6 -16.25 53.05 -16.55 52.75 -16.25 53.25 -16.6 53.2 -16.65 54.35 -17.45 54.4 -17.35 54.5 -17.45 53.7 -16.55 Q54.75 -16.7 55.5 -17.45 L56.35 -18.4 56.75 -18.9 57.0 -19.2 58.6 -20.55 60.8 -22.8 61.05 -23.05 61.55 -23.65 63.5 -26.15 Q64.95 -28.1 65.65 -30.4 L65.7 -30.5 65.9 -32.25 65.8 -33.1 65.75 -33.4 65.75 -33.6 65.75 -33.85 65.75 -34.35 65.7 -34.55 65.7 -34.75 65.7 -34.8 65.45 -36.2 65.15 -37.2 65.1 -37.4 65.05 -37.55 65.1 -37.55 64.95 -38.0 64.55 -38.9 M33.75 22.0 L34.35 21.35 34.9 20.65 Q41.05 11.8 39.85 0.8 L37.2 3.3 34.1 5.65 33.95 5.75 33.5 5.95 33.05 6.15 31.35 7.1 31.3 7.1 30.4 7.8 Q26.5 9.8 22.05 10.5 L21.85 10.55 21.6 10.75 Q19.8 12.55 18.75 14.6 L18.3 15.05 18.25 15.1 18.15 15.3 18.05 15.45 18.0 15.4 17.1 16.4 15.4 18.05 Q13.05 20.25 10.5 21.95 L6.65 23.95 3.9 25.4 3.55 25.55 1.9 26.1 Q1.85 26.8 2.4 27.25 2.85 29.95 5.0 31.6 L4.95 31.6 5.6 32.05 6.3 32.45 6.6 32.6 6.85 32.7 7.4 32.75 7.6 32.75 7.8 32.75 8.15 32.75 8.6 32.75 9.1 32.75 10.25 32.7 10.65 32.7 Q18.6 32.2 25.25 28.05 L25.3 28.0 25.4 28.0 Q26.35 28.05 26.8 27.35 30.7 25.25 33.75 22.0 M28.45 35.8 Q34.95 30.65 35.1 23.05 L34.7 23.4 29.1 27.65 28.75 27.95 28.55 28.05 25.15 29.9 23.45 30.65 19.75 32.0 12.35 34.15 10.35 34.6 10.25 34.65 10.5 35.15 11.6 36.8 12.0 37.2 13.2 38.15 14.95 38.9 18.95 39.25 Q23.85 39.1 28.05 36.1 L28.45 35.8 M1.6 9.65 L1.8 10.0 2.8 10.95 3.15 11.1 3.5 11.15 3.6 11.2 Q5.4 11.9 7.05 10.8 L7.35 10.7 8.2 9.4 8.4 8.7 Q8.7 6.6 7.45 5.15 L7.15 4.9 6.2 4.45 5.75 4.35 4.5 4.55 4.1 4.6 Q3.55 4.75 3.0 5.05 L2.9 5.1 2.8 5.15 2.6 5.25 2.6 5.3 Q1.5 6.0 1.3 7.45 L1.3 8.65 1.6 9.65 M8.5 6.05 L8.65 6.45 8.8 7.2 8.85 7.3 8.85 7.9 8.6 9.05 Q7.9 11.1 5.8 11.9 L4.45 12.1 4.35 12.1 4.3 12.1 3.6 11.95 3.5 11.9 Q2.65 11.55 1.95 11.0 L1.45 10.6 0.9 9.65 Q0.35 8.25 0.95 6.9 2.0 4.35 4.65 4.1 L4.8 4.1 6.4 4.15 Q7.75 4.45 8.5 6.0 L8.5 6.05 M6.95 34.2 Q3.9 32.9 2.15 30.55 0.9 28.9 0.3 26.8 L0.2 26.4 -0.2 26.4 Q-1.7 32.25 -7.7 34.5 L-8.8 36.05 -9.3 36.75 -10.05 37.7 -10.3 37.9 -10.4 38.05 -11.1 38.6 -14.35 40.25 Q-11.3 43.8 -7.55 46.95 L-7.45 46.95 -7.35 47.0 -6.8 47.45 -6.6 47.6 -5.9 48.25 -5.5 48.7 -5.15 49.05 -5.0 49.25 -4.35 50.1 -3.6 51.2 Q-2.45 53.1 -2.0 55.35 L-1.8 55.4 -1.7 55.45 -0.5 55.7 -0.1 55.75 0.0 55.75 0.1 55.75 2.0 55.35 2.05 55.2 2.1 55.0 2.4 53.85 Q3.55 50.3 6.6 47.6 L7.15 47.1 7.4 46.95 7.55 46.95 Q11.3 43.8 14.35 40.25 L11.2 38.65 10.15 37.75 9.9 37.55 9.05 36.45 8.95 36.25 8.5 35.65 7.65 34.5 6.95 34.2 M-3.5 44.45 L-4.35 42.2 Q-4.6 41.2 -4.45 40.3 -4.25 38.45 -2.65 37.15 L-2.2 37.0 -1.45 36.6 -1.45 36.55 -1.4 36.55 Q1.65 36.45 3.2 37.6 5.2 39.15 4.4 43.05 4.1 44.6 2.95 45.7 -1.65 47.45 -3.5 44.45 M-3.75 40.7 Q-4.2 42.1 -3.7 43.3 L-3.15 44.2 -3.0 44.35 -1.8 45.3 Q-0.9 45.75 0.2 45.6 L1.3 45.3 1.55 45.2 Q2.9 44.65 3.8 43.4 4.9 41.85 4.05 40.3 L4.05 40.2 Q3.7 39.0 3.05 38.3 2.5 37.7 1.7 37.45 L-0.45 37.3 -0.65 37.4 -1.2 37.65 -2.45 38.55 -3.55 40.2 -3.6 40.35 -3.75 40.7 M14.0 42.5 L13.95 42.5 13.55 42.95 13.15 43.4 8.45 47.7 7.3 48.75 6.7 49.4 6.7 49.45 Q4.6 52.0 4.2 55.35 L4.2 55.55 4.15 55.8 Q4.2 58.55 5.3 60.85 L6.95 60.8 Q9.2 60.55 11.2 59.35 16.8 55.25 22.05 50.25 L23.3 48.95 Q27.25 44.55 27.65 38.8 L27.65 38.35 27.35 38.55 Q24.8 39.9 22.1 40.45 L15.65 40.65 15.55 40.75 14.0 42.5 M-15.25 -57.9 L-15.1 -57.9 -15.05 -57.9 -14.65 -57.75 Q-15.55 -56.75 -15.1 -55.55 L-15.05 -55.2 Q-14.95 -54.35 -15.95 -54.1 L-16.05 -54.1 -16.1 -54.1 -16.6 -54.85 -16.7 -55.15 -16.7 -55.2 Q-16.8 -55.8 -16.4 -56.4 L-16.1 -56.95 -15.75 -57.55 Q-15.55 -57.9 -15.25 -57.9 M-52.2 -57.45 L-53.2 -56.6 -53.05 -53.45 -52.3 -50.1 Q-51.55 -47.8 -50.2 -45.7 L-49.8 -45.1 Q-46.25 -40.0 -45.05 -33.95 L-44.75 -32.45 -43.0 -23.9 Q-42.35 -20.6 -42.9 -17.35 -43.2 -15.55 -43.85 -13.8 L-43.9 -13.7 Q-44.8 -12.65 -46.15 -12.65 L-48.8 -12.85 Q-54.9 -15.2 -59.9 -19.9 L-63.05 -23.4 Q-64.95 -25.85 -66.2 -28.55 L-66.3 -28.75 -66.9 -30.1 -67.1 -30.6 Q-69.05 -32.0 -71.6 -31.45 L-71.65 -31.4 Q-73.0 -30.2 -72.4 -28.5 L-72.3 -28.3 -72.2 -28.1 -72.15 -28.0 -71.3 -26.75 -71.2 -26.6 Q-62.8 -14.7 -49.3 -9.6 -47.3 -8.85 -44.95 -8.9 L-44.75 -8.9 Q-42.5 -9.0 -40.85 -10.2 -39.5 -11.95 -38.75 -13.9 -37.95 -16.25 -38.0 -18.9 -38.2 -23.8 -38.65 -28.45 -39.4 -32.85 -40.45 -37.05 -42.5 -45.05 -45.55 -52.55 L-47.5 -55.7 Q-48.55 -57.3 -50.45 -57.7 L-50.45 -57.75 -50.5 -57.75 -50.6 -57.75 -52.2 -57.45 M-40.6 -49.05 L-40.9 -48.95 -41.95 -48.6 -42.15 -48.5 -42.25 -48.45 Q-41.6 -45.1 -40.25 -41.75 L-39.05 -38.1 -38.35 -34.85 -38.0 -34.6 -37.95 -34.6 -37.25 -35.0 -35.3 -35.8 -34.7 -35.95 -34.6 -35.95 -33.35 -36.15 -34.65 -35.55 -35.1 -35.3 -35.7 -34.9 -35.8 -34.85 -35.9 -34.8 -36.35 -34.5 -37.05 -34.15 -37.5 -33.85 -37.8 -33.6 -37.15 -30.0 -36.95 -28.55 -36.1 -20.75 Q-35.95 -18.15 -36.55 -15.8 L-37.25 -13.8 -37.55 -13.1 Q-38.65 -11.05 -40.45 -9.2 L-40.5 -9.15 Q-41.3 -8.85 -42.05 -8.2 L-42.0 -8.0 -41.95 -7.85 -41.9 -7.75 -41.8 -7.5 -41.75 -7.3 -41.6 -6.95 -41.45 -6.5 -41.4 -6.45 -40.95 -5.4 -40.55 -4.5 -40.05 -3.65 Q-38.05 -0.2 -34.75 2.75 -33.0 4.3 -31.1 5.5 -27.3 8.0 -22.95 9.1 L-23.1 8.8 -25.7 3.4 -25.85 3.05 -27.35 -1.45 -27.55 -2.15 Q-28.2 -2.85 -28.5 -3.8 -29.3 -6.15 -29.4 -8.55 L-29.2 -11.8 -28.65 -14.3 -27.75 -16.4 -26.15 -18.6 -24.85 -19.65 Q-28.95 -25.35 -31.05 -31.8 L-31.1 -31.95 -32.0 -35.2 -32.05 -35.25 -32.1 -35.5 Q-32.25 -36.35 -32.65 -36.9 L-33.35 -41.35 -33.4 -41.8 -33.75 -44.35 -33.9 -45.5 -34.0 -46.05 Q-34.5 -47.15 -35.3 -47.85 L-35.3 -47.9 -35.65 -48.15 -35.95 -48.35 -36.0 -48.4 Q-37.15 -49.05 -38.7 -49.15 L-40.6 -49.05 M-45.25 -31.15 L-45.3 -31.5 -45.8 -33.5 -45.4 -32.85 -45.6 -34.05 Q-45.9 -36.05 -47.0 -37.75 L-47.25 -37.9 -48.85 -41.1 -48.9 -41.2 -50.65 -44.55 -51.95 -46.55 -52.35 -47.05 -53.05 -47.05 -53.2 -47.05 -55.9 -46.45 -55.95 -46.45 -57.45 -46.1 -57.5 -46.05 -57.8 -45.9 -58.55 -45.45 -58.75 -45.3 -58.85 -45.25 -59.5 -44.75 -60.05 -45.05 -61.0 -45.3 -61.25 -45.35 Q-62.25 -45.4 -63.05 -44.95 L-64.0 -44.25 -64.7 -43.45 Q-65.5 -42.45 -65.5 -41.2 L-65.4 -40.3 -65.25 -39.85 -65.1 -39.4 -64.9 -39.05 -64.7 -38.8 -64.6 -38.7 -64.7 -38.55 -64.9 -38.1 -65.0 -37.85 -65.05 -37.65 -65.1 -37.55 -65.15 -37.4 -65.25 -37.2 -65.4 -36.7 -65.8 -34.55 -65.8 -34.35 -65.85 -33.85 -65.85 -33.6 -65.85 -33.4 -66.0 -32.25 -66.0 -31.75 -65.75 -30.4 -65.4 -29.35 Q-64.7 -27.65 -63.6 -26.15 L-62.7 -25.0 -62.0 -24.1 -61.05 -23.0 -60.9 -22.8 -58.7 -20.55 -56.75 -18.95 -56.3 -18.4 -55.45 -17.45 Q-54.7 -16.7 -53.65 -16.55 L-54.45 -17.45 -54.15 -17.25 -53.85 -17.05 -52.7 -16.25 -51.9 -15.9 -51.35 -15.6 -48.45 -14.15 -47.95 -13.9 Q-47.45 -13.7 -47.0 -13.9 L-45.8 -14.0 Q-44.9 -14.4 -44.5 -15.2 -43.7 -16.55 -43.55 -18.05 L-43.55 -19.45 -43.55 -19.65 Q-43.5 -21.05 -43.7 -22.45 -43.95 -24.3 -44.5 -26.1 L-44.5 -26.2 -45.25 -31.15 M-10.0 -41.05 L-9.8 -41.1 -9.75 -41.1 -9.75 -41.05 -9.8 -40.85 Q-9.5 -40.6 -9.9 -40.05 L-10.3 -39.45 -10.55 -39.05 -10.7 -38.7 Q-11.2 -37.55 -12.05 -36.8 L-12.3 -36.7 -12.4 -36.7 -12.9 -36.8 -13.05 -37.0 -13.05 -37.65 -12.85 -37.95 -12.7 -38.2 -11.4 -40.35 -11.3 -40.45 -10.2 -41.0 -10.1 -41.05 -10.0 -41.05 M-8.2 -31.9 L-8.3 -32.05 Q-8.65 -32.55 -8.65 -33.15 -8.7 -35.25 -7.75 -37.1 L-7.5 -37.55 Q-7.15 -38.6 -6.15 -38.8 L-6.05 -38.75 -6.0 -38.75 Q-5.4 -38.65 -5.4 -38.05 L-5.25 -37.8 -5.25 -37.7 -5.15 -37.2 Q-4.6 -35.0 -5.1 -32.9 -5.85 -31.8 -6.95 -31.1 L-7.05 -31.1 Q-7.4 -31.05 -7.65 -31.4 L-7.8 -31.6 -8.1 -31.8 -8.2 -31.9 M-21.05 -47.5 L-25.2 -48.15 -25.6 -48.1 -29.95 -46.8 Q-30.5 -46.55 -31.0 -46.25 L-31.9 -45.75 -31.4 -44.55 -31.3 -44.0 -31.2 -43.5 -31.05 -42.75 -31.05 -42.4 Q-25.6 -44.65 -19.3 -45.9 L-19.25 -46.2 -19.2 -46.55 -19.3 -46.8 -19.3 -46.9 -20.9 -47.45 -21.0 -47.45 -21.05 -47.5 M-19.2 -42.75 L-19.0 -41.85 -18.85 -41.8 -18.75 -42.15 -18.75 -42.2 -19.2 -43.2 -19.2 -42.75 M-16.4 -34.2 L-16.3 -34.05 -16.35 -33.95 -16.4 -34.2 M-9.1 -9.3 L-9.0 -9.25 -7.95 -8.55 Q-7.05 -8.05 -6.4 -7.0 L-6.35 -6.85 Q-5.45 -4.1 -6.3 -1.3 -7.15 1.6 -10.1 2.45 L-11.0 2.65 -12.3 2.45 -13.2 2.4 -14.2 2.1 -16.55 0.8 -17.1 0.35 -17.25 0.15 Q-17.85 -0.5 -18.1 -1.3 -18.85 -3.4 -17.95 -5.4 -16.4 -9.2 -12.5 -9.6 L-12.25 -9.6 -12.05 -9.65 -11.9 -9.7 -11.8 -9.7 -11.55 -9.7 -11.3 -9.7 -9.1 -9.3 M-19.6 -20.7 L-19.6 -20.8 -19.9 -20.7 -19.15 -20.7 -19.6 -20.7 M-10.15 -9.05 L-10.85 -9.15 -12.7 -8.95 -15.1 -8.1 Q-17.15 -7.0 -17.5 -4.6 -17.8 -2.75 -17.05 -1.3 L-16.7 -0.75 -16.0 0.05 -15.2 0.7 -14.7 0.9 -14.2 0.95 -14.0 1.0 Q-11.3 2.1 -8.85 0.45 L-8.45 0.3 Q-7.2 -1.0 -6.85 -2.7 -6.4 -5.8 -8.3 -8.05 L-8.75 -8.45 -9.2 -8.75 -10.15 -9.05 M-8.0 23.45 Q-13.15 20.65 -17.4 16.1 L-17.55 15.9 -17.6 15.85 Q-17.8 14.95 -18.85 14.45 L-19.7 13.1 -20.0 12.7 -20.2 12.4 -20.25 12.35 -21.15 11.3 -21.25 11.2 -21.5 10.9 -21.85 10.55 -24.6 10.0 -28.5 8.7 -30.65 7.7 -30.1 7.95 -30.8 7.45 Q-32.35 6.4 -33.9 5.7 L-34.35 5.5 -34.95 5.05 -35.55 4.6 -39.05 1.6 -39.85 0.8 -40.0 2.25 -40.0 2.45 -39.95 7.15 -39.9 7.35 -39.75 8.8 -38.95 12.35 -38.1 14.85 -37.55 16.1 Q-36.5 18.45 -34.95 20.65 L-34.85 20.75 -34.8 20.8 -34.7 20.95 -34.3 21.45 -34.0 21.75 -31.7 23.95 -31.7 24.0 -31.15 24.45 -30.55 24.9 -27.8 26.8 -26.6 27.45 -26.6 27.3 -26.2 27.65 -25.9 27.9 -25.8 27.95 -25.8 28.0 -24.85 28.35 -25.2 28.1 Q-19.9 31.4 -13.7 32.35 L-6.85 32.7 Q-3.05 31.0 -2.4 27.25 -1.85 26.8 -1.9 26.1 L-2.25 26.0 Q-5.25 25.0 -8.0 23.45 M-35.05 23.8 L-35.05 24.0 -35.05 24.1 -35.05 24.2 -34.95 25.1 Q-34.2 30.5 -29.9 34.6 L-29.85 34.6 -29.05 35.35 -28.1 36.1 -28.05 36.1 -28.0 36.15 -27.95 36.15 -27.2 36.65 -27.0 36.8 -26.45 37.15 -26.45 37.1 -24.5 38.1 -24.35 38.15 -24.0 38.25 Q-20.6 39.5 -16.75 39.15 L-15.85 39.05 -14.95 38.9 Q-11.6 37.85 -10.25 34.65 -14.4 33.75 -18.35 32.5 L-23.45 30.65 -24.1 30.35 -24.55 30.15 -24.6 30.15 -25.05 29.95 -27.7 28.55 -28.05 28.35 -28.45 28.15 -30.15 27.05 -30.7 26.65 -31.4 26.15 -32.05 25.65 -32.1 25.65 -32.3 25.45 -34.75 23.4 -35.1 23.05 -35.05 23.8 M-20.0 40.75 L-21.0 40.65 -24.25 39.9 -24.35 39.85 -25.1 39.6 -25.65 39.35 -25.9 39.25 -27.65 38.35 Q-27.55 41.5 -26.35 44.25 -25.55 46.05 -24.35 47.7 L-24.0 48.15 -23.3 48.95 -23.2 49.05 -22.35 49.95 -22.2 50.1 -22.05 50.25 -21.5 50.8 -20.9 51.35 -20.9 51.3 -19.0 53.05 -18.25 53.7 -18.0 53.95 -11.2 59.35 Q-9.45 60.4 -7.5 60.75 L-5.3 60.85 Q-4.2 58.55 -4.15 55.8 -4.6 50.9 -8.45 47.7 L-13.95 42.55 -15.45 40.9 -15.65 40.65 -16.2 40.7 -17.1 40.8 -18.6 40.85 -18.8 40.85 -20.0 40.75" fill="#000000" fill-rule="evenodd" stroke="none"/>
    <path d="M11.75 -53.45 L12.25 -52.55 13.5 -51.5 15.15 -51.3 15.6 -51.3 15.65 -51.2 15.65 -51.25 15.8 -51.2 Q16.4 -51.15 16.5 -50.4 16.55 -49.7 16.25 -49.05 15.5 -47.7 14.05 -47.35 L13.35 -47.25 12.45 -47.35 11.9 -47.45 Q11.65 -47.55 11.55 -47.7 L11.4 -47.7 11.25 -47.7 11.1 -47.8 10.9 -47.9 Q9.35 -48.75 8.5 -50.15 L8.5 -50.25 8.5 -50.35 8.35 -50.5 8.3 -50.6 8.7 -51.6 8.85 -52.05 9.25 -53.05 9.6 -54.1 9.6 -54.2 10.0 -54.3 10.1 -54.3 10.15 -54.3 10.75 -54.05 10.75 -54.0 11.1 -53.85 11.15 -53.85 11.2 -53.8 11.75 -53.45 M11.15 -22.15 L5.4 -23.25 Q5.1 -23.85 5.1 -24.6 L4.95 -24.55 5.0 -25.15 Q5.15 -26.3 6.3 -26.7 L6.8 -26.9 7.4 -26.9 Q8.95 -26.9 10.05 -26.0 L10.15 -26.05 Q10.95 -25.4 11.45 -24.3 12.0 -23.0 11.15 -22.15 M4.9 -23.3 L1.55 -23.5 2.45 -24.25 2.3 -24.25 2.7 -24.5 3.1 -24.6 3.15 -24.6 3.8 -24.35 3.9 -24.4 Q4.7 -24.05 4.9 -23.3 M-0.6 -23.5 L-4.4 -23.35 -4.55 -23.4 -3.25 -24.9 -3.35 -24.95 -2.55 -25.8 Q-2.3 -26.1 -1.85 -26.05 L-1.75 -26.05 Q-0.35 -25.7 -0.5 -24.35 L-0.35 -24.35 -0.5 -23.8 -0.6 -23.5 M-16.9 -26.2 L-16.8 -26.5 -16.75 -26.7 -16.75 -26.8 -16.7 -27.0 -16.7 -27.1 -16.7 -27.15 -16.75 -27.3 -16.55 -27.95 -16.55 -28.0 -16.35 -28.35 -16.35 -28.4 -16.3 -28.65 -15.9 -29.4 -15.5 -29.9 -15.55 -30.0 Q-14.6 -31.05 -13.05 -31.05 L-12.5 -31.0 Q-10.8 -30.9 -9.4 -29.9 -8.5 -29.3 -8.7 -28.15 -8.9 -26.95 -9.9 -26.1 L-10.55 -25.55 -10.4 -25.55 Q-11.35 -24.85 -12.35 -24.4 -14.1 -23.5 -15.55 -24.15 L-15.9 -24.55 -16.15 -24.85 -16.6 -25.5 -16.7 -25.8 -16.9 -26.2 M-18.75 -29.95 Q-19.7 -30.25 -20.4 -30.95 -20.65 -31.25 -21.0 -31.35 L-22.75 -31.4 -22.55 -32.2 Q-22.55 -32.75 -22.05 -33.25 L-21.8 -33.5 -21.0 -33.5 -18.75 -33.5 -18.25 -33.3 -18.2 -33.25 Q-18.35 -33.25 -18.45 -33.4 L-18.6 -33.4 -21.0 -33.05 -21.8 -32.9 -21.0 -32.8 -17.9 -32.35 -18.5 -29.9 -18.55 -29.9 -18.75 -30.0 -18.75 -29.95 M-27.95 -34.35 L-25.15 -34.55 -25.0 -34.55 -24.95 -34.55 -24.6 -34.6 -23.5 -34.65 -22.75 -34.75 -21.7 -34.9 -21.65 -34.85 Q-21.4 -34.5 -21.55 -34.2 L-22.0 -33.5 -22.75 -33.55 -26.5 -33.85 -27.05 -33.9 -27.95 -34.0 -28.1 -34.0 -28.15 -34.25 -27.95 -34.35 M-10.7 -59.3 L-10.7 -59.1 -10.8 -59.25 -10.7 -59.3 M-10.25 -55.75 L-10.15 -56.0 -10.15 -56.05 -10.0 -56.5 -9.65 -56.75 -9.25 -56.95 -9.0 -57.0 -8.95 -57.0 -7.15 -56.7 -6.95 -56.6 -6.85 -56.55 -6.75 -56.5 -6.85 -56.3 -7.45 -54.95 -7.7 -53.95 -7.75 -53.75 -7.85 -53.9 -7.95 -54.05 Q-8.1 -53.45 -8.4 -52.95 -9.2 -51.7 -10.15 -50.6 -11.0 -49.5 -12.1 -48.7 L-12.95 -48.4 -13.2 -48.3 -13.2 -48.25 -13.3 -48.15 -14.6 -47.9 -15.35 -48.0 -15.4 -48.0 -15.5 -48.0 -15.5 -47.7 -15.45 -47.55 -15.35 -47.5 -15.3 -47.45 -15.0 -47.2 -14.15 -46.75 -13.45 -46.7 -13.3 -46.7 -13.05 -46.7 -12.4 -46.75 -12.45 -46.7 -13.5 -46.15 -12.75 -43.4 -12.55 -42.25 -12.45 -40.85 -13.0 -40.45 -13.5 -39.95 -13.55 -39.85 -13.75 -39.55 -14.1 -38.85 -14.3 -38.3 -14.4 -37.3 -14.4 -37.15 Q-14.65 -37.3 -14.7 -37.7 L-14.75 -38.9 -14.85 -40.55 -14.9 -41.5 -15.05 -43.4 -15.1 -43.5 -15.6 -46.45 -15.95 -47.8 -16.05 -48.1 -16.1 -48.1 Q-16.65 -48.25 -16.85 -48.9 L-16.95 -49.75 -16.85 -50.15 -16.75 -50.4 -16.7 -50.45 -16.6 -50.55 -16.45 -50.6 -16.35 -50.65 -16.25 -50.65 -16.1 -50.6 -16.0 -50.55 -15.95 -50.55 -15.9 -50.55 -15.45 -50.8 -14.45 -51.3 -12.95 -52.0 -12.6 -52.15 Q-11.0 -53.35 -10.45 -55.15 L-10.25 -55.75 M-6.1 -55.75 L-5.95 -55.75 -5.85 -55.8 -5.85 -55.75 -5.8 -55.75 -5.7 -55.7 -5.05 -55.6 -4.45 -55.75 -4.35 -55.8 -4.25 -55.75 -3.0 -55.4 -3.0 -55.5 -3.1 -55.75 -2.65 -56.95 -2.45 -57.15 -2.25 -57.5 -2.2 -57.5 -1.5 -58.3 -0.95 -58.6 -0.55 -58.65 -0.5 -58.65 0.05 -58.35 0.15 -58.25 0.2 -58.2 0.4 -58.0 0.65 -57.75 0.65 -57.7 0.65 -57.65 0.75 -57.3 Q1.1 -55.4 -0.35 -54.15 L-0.55 -54.05 -3.4 -54.0 -3.75 -54.35 -4.9 -54.05 Q-5.7 -54.45 -6.05 -55.2 L-6.05 -55.5 -6.1 -55.75 M3.6 -56.55 L3.75 -56.55 4.05 -56.55 Q4.9 -56.55 4.95 -55.3 L4.15 -54.4 4.1 -54.35 4.0 -54.3 2.35 -54.1 2.3 -54.15 Q1.5 -54.25 1.15 -54.8 L1.0 -55.1 Q0.85 -55.55 1.0 -55.9 L1.25 -56.15 1.35 -56.15 1.35 -56.2 1.55 -56.2 2.0 -55.8 2.1 -55.75 2.5 -55.6 3.3 -55.7 3.55 -56.2 3.6 -56.3 3.6 -56.55 M-0.25 -50.9 L0.1 -51.05 0.35 -51.05 1.3 -51.05 Q3.75 -50.8 4.35 -48.15 L4.5 -47.35 Q4.55 -46.45 4.25 -45.55 L3.6 -44.5 Q1.75 -42.25 -1.0 -41.65 L-2.3 -41.45 -3.35 -41.55 Q-4.05 -41.65 -4.6 -42.05 L-5.25 -42.7 -5.9 -43.6 Q-6.35 -44.45 -6.2 -45.3 L-6.1 -45.65 -6.05 -45.6 -6.0 -45.55 -5.85 -45.45 -5.75 -45.4 -5.7 -45.35 -5.55 -45.3 -4.9 -45.35 -3.5 -46.2 -2.0 -47.55 -0.4 -49.8 -0.25 -50.5 -0.25 -50.9 M-0.4 -51.2 L-0.35 -51.25 -0.3 -51.05 -0.4 -51.2 M8.0 -48.1 L8.3 -47.45 7.8 -47.1 8.2 -47.45 8.2 -47.65 8.0 -48.1 M10.35 -45.25 Q10.7 -45.05 11.2 -45.0 L11.15 -44.9 11.05 -45.0 10.35 -45.25 M18.5 -31.9 L18.4 -31.9 17.8 -31.9 17.45 -32.05 17.45 -32.0 Q17.0 -32.2 16.9 -32.75 L16.9 -33.4 Q17.0 -34.15 17.6 -34.55 L17.7 -34.6 17.75 -34.65 17.9 -34.65 18.05 -34.65 Q18.75 -34.65 19.25 -34.05 L20.25 -33.95 20.95 -33.65 21.05 -33.45 21.05 -33.25 20.4 -32.65 20.15 -32.6 19.3 -32.25 Q19.0 -32.05 18.65 -32.0 L18.5 -31.9 M0.95 -40.7 L1.25 -40.95 1.35 -40.7 0.95 -40.7 M-14.95 -33.55 L-13.9 -35.25 -13.85 -35.25 -13.75 -35.2 -13.6 -35.15 -13.75 -35.2 -14.05 -34.8 -14.8 -33.8 -14.95 -33.55 M-17.95 -34.75 L-17.7 -34.5 -17.45 -34.15 -17.25 -33.7 -17.25 -33.6 -17.3 -33.75 -17.75 -34.5 -17.75 -34.55 -17.95 -34.75 M-16.85 -26.4 L-16.7 -26.05 -16.8 -26.35 -16.8 -26.5 -16.85 -26.4" fill="#ff7119" fill-rule="evenodd" stroke="none"/>
    <path d="M12.0 -59.05 L12.15 -59.05 Q12.65 -59.05 12.8 -58.7 L12.15 -58.1 12.05 -58.0 Q11.35 -57.2 11.4 -56.1 11.55 -55.2 11.85 -54.35 L12.15 -53.6 12.15 -53.55 12.3 -53.3 12.2 -53.1 12.15 -52.95 11.75 -53.45 11.2 -53.8 11.15 -53.85 11.1 -53.85 11.05 -53.95 10.8 -54.35 Q10.15 -57.2 12.0 -59.05 M15.6 -51.3 Q17.5 -51.4 19.2 -52.35 L19.25 -52.25 Q19.8 -51.25 19.4 -50.2 L18.4 -48.15 18.4 -48.05 18.5 -47.75 18.65 -46.65 18.55 -45.3 18.35 -44.55 Q17.8 -42.85 16.95 -41.3 16.5 -39.65 17.05 -38.15 L17.15 -37.75 Q17.45 -36.5 17.35 -35.0 L17.35 -34.85 17.5 -34.75 17.5 -34.7 17.6 -34.55 Q17.0 -34.15 16.9 -33.4 L16.9 -32.75 Q17.0 -32.2 17.45 -32.0 L17.45 -32.05 17.8 -31.9 18.4 -31.9 18.5 -31.9 19.9 -31.7 20.05 -31.75 20.6 -32.25 20.65 -32.25 20.7 -32.35 20.75 -32.4 21.45 -32.9 22.05 -33.1 21.85 -33.1 Q21.65 -33.4 21.45 -33.35 L21.1 -33.25 21.05 -33.25 21.05 -33.45 20.95 -33.65 20.25 -33.95 21.45 -33.9 22.35 -33.9 29.45 -33.9 29.4 -33.8 29.15 -32.4 29.0 -31.85 28.9 -31.6 28.15 -31.65 22.35 -31.1 21.9 -30.5 21.45 -30.35 Q19.75 -29.8 18.15 -30.4 L17.65 -30.6 17.45 -30.8 17.2 -30.6 17.25 -30.75 Q16.9 -30.55 17.15 -30.3 L17.2 -30.25 17.2 -30.45 17.3 -30.3 17.5 -29.75 17.7 -29.55 18.1 -29.35 18.25 -28.85 18.15 -28.7 14.1 -23.65 14.3 -23.4 14.55 -23.65 14.6 -23.65 15.7 -24.55 15.9 -22.3 Q15.95 -21.45 15.65 -20.65 L15.55 -20.7 15.55 -20.65 12.05 -21.9 12.3 -22.25 13.0 -23.6 13.3 -24.25 13.5 -24.7 13.8 -25.65 14.05 -27.5 13.9 -27.45 13.55 -29.25 13.15 -30.6 12.85 -31.85 14.3 -33.35 14.55 -34.0 14.65 -34.15 15.05 -35.25 14.95 -37.25 14.6 -38.3 13.55 -39.65 Q12.45 -40.5 11.15 -40.8 10.45 -43.05 11.15 -44.9 L11.2 -45.0 Q10.7 -45.05 10.35 -45.25 L9.8 -45.8 8.55 -47.0 8.3 -47.4 8.3 -47.45 8.0 -48.1 7.85 -48.6 Q7.75 -49.05 7.8 -49.5 L7.65 -50.05 7.65 -50.45 7.75 -50.55 7.9 -50.6 8.05 -50.6 8.2 -50.6 8.3 -50.6 8.35 -50.5 8.5 -50.35 8.5 -50.25 8.5 -50.15 Q9.35 -48.75 10.9 -47.9 L11.1 -47.8 11.25 -47.7 11.4 -47.7 11.55 -47.7 Q11.65 -47.55 11.9 -47.45 L12.45 -47.35 13.35 -47.25 14.05 -47.35 Q15.5 -47.7 16.25 -49.05 16.55 -49.7 16.5 -50.4 16.4 -51.15 15.8 -51.2 L15.65 -51.25 15.65 -51.2 15.6 -51.3 M-4.4 -23.35 L-4.8 -23.3 -4.7 -23.4 -4.6 -23.45 -4.55 -23.4 -4.4 -23.35 M-11.5 -22.05 L-15.25 -20.75 Q-16.4 -21.9 -17.75 -22.3 -18.8 -23.55 -18.75 -25.2 -18.6 -26.45 -17.95 -27.5 -17.25 -26.7 -17.35 -25.5 L-16.9 -26.2 -16.7 -25.8 -16.6 -25.5 -16.15 -24.85 -15.9 -24.55 -15.55 -24.15 Q-14.65 -23.3 -13.45 -22.95 -13.3 -22.8 -13.05 -22.75 L-12.65 -22.5 -11.5 -22.05 M-17.2 -29.5 Q-17.3 -29.4 -17.45 -29.4 -18.6 -29.2 -18.75 -29.95 L-18.75 -30.0 -18.55 -29.9 -18.5 -29.9 -17.9 -32.35 -21.0 -32.8 -21.8 -32.9 -21.0 -33.05 -18.6 -33.4 -18.45 -33.4 Q-18.35 -33.25 -18.2 -33.25 -17.65 -32.85 -17.35 -33.45 L-17.25 -33.6 -17.25 -33.7 -17.45 -34.15 -17.7 -34.5 -17.95 -34.75 -18.45 -35.45 -19.0 -35.9 -19.0 -36.0 -18.7 -36.6 -18.5 -36.8 -18.5 -36.95 -18.05 -37.45 -18.0 -37.3 -17.7 -36.7 -16.4 -34.2 -16.35 -33.95 -16.85 -32.8 -16.75 -32.6 -17.2 -30.25 -17.2 -29.7 -17.2 -29.6 -17.2 -29.5 M-22.75 -31.4 L-23.15 -31.35 -23.8 -31.25 -26.2 -31.05 -26.5 -31.05 -28.75 -31.2 -28.85 -31.45 -28.95 -31.5 -29.0 -31.85 -29.15 -32.4 Q-29.5 -33.1 -29.45 -33.8 L-29.5 -33.9 -28.65 -34.1 -28.3 -34.2 -27.95 -34.35 -28.15 -34.25 -28.1 -34.0 -27.95 -34.0 -27.05 -33.9 -26.5 -33.85 -22.75 -33.55 -22.0 -33.5 -21.8 -33.5 -22.05 -33.25 Q-22.55 -32.75 -22.55 -32.2 L-22.75 -31.4 M-19.45 -51.3 L-19.45 -51.15 -19.45 -51.6 -19.4 -52.1 -19.25 -52.45 -19.2 -52.4 -19.15 -52.4 -19.15 -52.35 Q-18.45 -51.55 -17.35 -51.2 L-17.3 -51.2 -17.2 -51.2 -17.1 -51.2 -16.5 -51.2 -16.6 -50.55 -16.7 -50.45 -17.45 -50.45 Q-18.4 -50.6 -19.3 -51.2 L-19.45 -51.3 M-11.65 -58.75 L-11.55 -58.85 Q-11.15 -59.35 -10.4 -59.55 L-10.25 -59.55 -10.2 -59.55 -10.7 -59.3 -10.8 -59.25 -10.7 -59.1 Q-10.1 -58.35 -10.1 -57.2 L-10.2 -56.05 -10.85 -55.9 -11.1 -55.9 -11.25 -55.9 Q-11.1 -56.75 -11.25 -57.5 L-11.5 -58.35 -11.5 -58.45 -11.55 -58.55 -11.6 -58.65 -11.65 -58.75 M-5.85 -55.8 L-6.0 -55.85 -6.05 -55.95 Q-6.35 -56.6 -5.85 -57.05 L-5.75 -57.15 Q-5.1 -58.1 -3.95 -58.3 L-3.3 -58.4 -3.0 -58.4 -2.8 -58.3 -2.7 -58.35 -2.75 -58.25 -2.7 -58.0 -3.85 -56.6 -4.2 -55.95 -4.35 -55.8 -4.45 -55.75 -5.05 -55.6 -5.7 -55.7 -5.8 -55.75 -5.85 -55.75 -5.85 -55.8 M0.05 -58.35 L0.1 -58.45 0.2 -58.75 0.3 -58.7 0.45 -58.65 0.5 -58.7 0.5 -58.75 0.65 -58.75 1.3 -58.65 2.15 -58.4 2.25 -58.35 Q3.3 -57.95 3.6 -56.85 L3.6 -56.55 3.6 -56.3 3.55 -56.2 3.3 -55.7 2.5 -55.6 2.1 -55.75 2.0 -55.8 1.55 -56.2 1.35 -56.2 1.35 -56.25 1.35 -56.7 1.1 -56.95 0.65 -57.65 0.65 -57.7 0.65 -57.75 0.4 -58.0 0.2 -58.2 0.15 -58.25 0.05 -58.35 M12.05 -34.75 Q11.65 -34.45 11.6 -33.9 L11.4 -33.9 Q9.1 -36.45 10.05 -39.55 L10.4 -40.0 10.45 -39.9 11.0 -39.8 11.05 -39.75 11.25 -39.6 11.25 -39.5 11.25 -39.45 Q10.95 -39.35 10.8 -39.05 L10.6 -38.9 10.4 -38.65 Q10.15 -37.95 10.45 -37.3 10.7 -35.95 11.75 -35.0 L11.95 -34.85 12.05 -34.75 M-0.85 -28.1 Q-3.1 -31.05 -2.2 -34.75 L-1.2 -36.8 Q-0.6 -37.85 0.6 -37.95 L0.75 -37.95 0.85 -37.95 0.9 -37.95 1.65 -37.5 1.2 -36.9 1.55 -36.65 1.15 -36.9 0.7 -36.75 -0.25 -36.15 Q-1.2 -34.6 -1.2 -32.7 -1.25 -30.8 -0.55 -29.15 L-0.35 -28.65 -0.6 -28.4 -0.8 -28.2 -0.85 -28.1 M4.9 -37.6 L4.8 -37.75 Q4.1 -38.7 4.25 -39.7 L4.65 -41.7 Q5.2 -42.1 5.65 -42.05 L6.25 -41.75 Q5.8 -41.4 5.7 -40.8 L5.7 -40.75 5.65 -40.75 5.5 -40.75 Q4.55 -39.95 5.05 -38.75 L5.3 -38.25 5.55 -37.85 5.2 -37.85 5.05 -37.85 4.95 -37.7 4.9 -37.6 M6.4 -28.4 Q5.35 -29.55 5.3 -31.2 5.0 -33.05 6.1 -34.35 6.55 -34.7 7.0 -34.65 L7.4 -34.55 7.4 -34.45 7.55 -34.25 7.7 -34.0 Q7.05 -33.9 6.75 -33.25 5.85 -30.8 7.4 -28.8 L7.35 -28.8 7.25 -28.8 7.1 -28.8 Q6.75 -28.85 6.5 -28.55 L6.5 -28.5 6.4 -28.4 M-14.4 -37.15 L-14.4 -37.3 -14.3 -38.3 -14.1 -38.85 -13.75 -39.55 -13.55 -39.85 -13.5 -39.95 -13.0 -40.45 -12.45 -40.85 -11.9 -41.2 -11.6 -41.35 -11.55 -41.35 -11.55 -41.4 -11.5 -41.4 -11.35 -41.45 -11.25 -41.5 -10.4 -41.75 -10.3 -41.7 -9.5 -41.85 -10.0 -41.05 -10.1 -41.05 -10.2 -41.0 -11.3 -40.45 -11.4 -40.35 -12.7 -38.2 -12.85 -37.95 -13.05 -37.65 -13.05 -37.0 -13.05 -36.75 -13.0 -35.8 Q-13.0 -35.4 -13.3 -35.35 L-13.55 -35.35 Q-14.0 -35.45 -14.2 -35.9 L-14.4 -37.15 M-12.4 -46.75 L-13.05 -46.7 -13.3 -46.7 -13.45 -46.7 -14.15 -46.75 -15.0 -47.2 -15.3 -47.45 -15.35 -47.5 -15.45 -47.55 -15.5 -47.7 -15.5 -48.0 -15.4 -48.0 -15.35 -48.0 -14.6 -47.9 -13.3 -48.15 -13.2 -48.25 -13.2 -48.3 -12.95 -48.4 -12.1 -48.7 Q-11.0 -49.5 -10.15 -50.6 -9.2 -51.7 -8.4 -52.95 -8.1 -53.45 -7.95 -54.05 L-7.85 -53.9 -7.75 -53.75 -7.75 -53.15 -7.8 -52.9 -8.25 -51.2 -8.45 -50.55 -8.6 -50.2 -8.6 -50.15 -8.65 -50.05 -8.9 -49.55 -8.9 -49.5 Q-9.6 -48.3 -10.6 -47.3 L-10.7 -47.15 -10.75 -47.1 -12.4 -46.75 M-5.5 -39.6 L-5.95 -38.9 -6.0 -38.8 -6.0 -38.75 -6.05 -38.75 -6.15 -38.8 Q-7.15 -38.6 -7.5 -37.55 L-7.75 -37.1 Q-8.7 -35.25 -8.65 -33.15 -8.65 -32.55 -8.3 -32.05 L-8.2 -31.9 -8.35 -31.75 -8.65 -31.25 -8.7 -31.1 Q-9.65 -32.45 -9.8 -34.25 -9.65 -35.95 -8.95 -37.6 -8.35 -39.25 -6.65 -39.85 L-6.5 -39.85 -5.5 -39.6" fill="#b6440e" fill-rule="evenodd" stroke="none"/>
    <path d="M-10.2 -59.55 L-8.9 -59.75 -7.6 -59.5 Q-6.9 -58.6 -7.1 -57.45 L-6.95 -57.5 -6.85 -57.55 Q-6.5 -57.75 -6.4 -58.25 L-6.35 -59.4 -2.9 -61.0 -1.1 -61.4 0.7 -60.95 2.45 -60.05 2.95 -59.75 Q3.25 -59.55 3.65 -59.4 L4.35 -59.3 5.4 -59.5 7.4 -59.95 8.4 -59.8 7.75 -58.75 Q7.35 -58.15 7.8 -57.45 L7.9 -57.55 Q8.35 -57.9 8.4 -58.5 8.5 -59.25 9.25 -59.5 L10.35 -59.7 Q11.2 -59.7 12.05 -59.1 L12.0 -59.05 Q10.15 -57.2 10.8 -54.35 L11.05 -53.95 11.1 -53.85 10.75 -54.0 10.75 -54.05 10.15 -54.3 10.1 -54.3 10.0 -54.3 9.6 -54.2 9.0 -53.7 8.8 -53.25 8.75 -53.1 7.75 -55.05 Q6.65 -55.15 5.7 -55.55 L5.35 -55.75 5.2 -55.8 5.1 -55.55 4.95 -55.3 Q4.9 -56.55 4.05 -56.55 L3.75 -56.55 3.6 -56.55 3.6 -56.85 Q3.3 -57.95 2.25 -58.35 L2.15 -58.4 1.3 -58.65 0.65 -58.75 0.5 -58.75 0.5 -58.7 0.45 -58.65 0.3 -58.7 0.2 -58.75 0.1 -58.45 0.05 -58.35 -0.5 -58.65 -0.55 -58.65 -0.95 -58.6 -1.5 -58.3 -2.2 -57.5 -2.25 -57.5 -2.45 -57.15 -2.65 -56.95 -3.1 -55.75 -3.0 -55.5 -3.0 -55.4 -4.25 -55.75 -4.35 -55.8 -4.2 -55.95 -3.85 -56.6 -2.7 -58.0 -2.75 -58.25 -2.7 -58.35 -2.8 -58.3 -3.0 -58.4 -3.3 -58.4 -3.95 -58.3 Q-5.1 -58.1 -5.75 -57.15 L-5.85 -57.05 Q-6.35 -56.6 -6.05 -55.95 L-6.0 -55.85 -5.85 -55.8 -5.95 -55.75 -6.1 -55.75 -6.25 -55.95 -6.3 -56.0 -6.4 -56.2 -6.75 -56.5 -6.85 -56.55 -6.95 -56.6 -7.15 -56.7 -8.95 -57.0 -9.0 -57.0 -9.25 -56.95 -9.65 -56.75 -10.0 -56.5 -10.15 -56.05 -10.15 -56.0 -10.25 -55.75 -10.2 -55.95 -10.2 -56.05 -10.1 -57.2 Q-10.1 -58.35 -10.7 -59.1 L-10.7 -59.3 -10.2 -59.55 M17.5 -34.75 L17.65 -34.7 17.75 -34.7 18.0 -34.85 18.55 -36.75 18.7 -36.8 18.05 -34.75 18.15 -34.85 18.7 -36.75 Q20.1 -37.25 21.05 -35.85 L21.45 -35.35 Q21.85 -35.0 22.35 -34.9 L25.85 -35.05 Q27.15 -34.4 29.55 -34.3 L29.45 -33.9 22.35 -33.9 21.45 -33.9 20.25 -33.95 19.25 -34.05 Q18.75 -34.65 18.05 -34.65 L17.9 -34.65 17.75 -34.65 17.7 -34.6 17.6 -34.55 17.5 -34.7 17.5 -34.75 M-17.0 -28.2 L-17.2 -29.5 -17.2 -29.6 -17.2 -29.7 -17.2 -30.25 -16.75 -32.6 -16.85 -32.8 -16.35 -33.95 -16.3 -34.05 -16.4 -34.2 -17.7 -36.7 -18.0 -37.3 -18.05 -37.45 Q-18.45 -38.55 -18.3 -39.85 L-18.1 -41.05 -18.1 -41.4 -17.95 -41.3 -17.65 -41.05 -16.75 -39.95 -16.75 -40.15 Q-16.65 -40.6 -16.7 -41.05 -16.8 -41.95 -17.5 -42.55 L-18.2 -43.4 Q-18.65 -44.1 -18.6 -45.05 L-18.6 -46.05 -18.6 -46.6 -18.5 -47.3 -18.5 -47.55 Q-18.5 -48.4 -19.35 -49.1 -19.6 -50.15 -19.45 -51.3 L-19.3 -51.2 Q-18.4 -50.6 -17.45 -50.45 L-16.7 -50.45 -16.75 -50.4 -16.85 -50.15 -16.95 -49.75 -16.85 -48.9 Q-16.65 -48.25 -16.1 -48.1 L-16.05 -48.1 -15.95 -47.8 -15.6 -46.45 -15.1 -43.5 -15.05 -43.4 -14.9 -41.5 -14.85 -40.55 -14.75 -38.9 -14.7 -37.7 Q-14.65 -37.3 -14.4 -37.15 L-14.2 -35.9 Q-14.0 -35.45 -13.55 -35.35 L-13.3 -35.35 Q-13.0 -35.4 -13.0 -35.8 L-13.05 -36.75 -13.05 -37.0 -12.9 -36.8 -12.4 -36.7 -12.3 -36.7 -12.05 -36.8 Q-11.2 -37.55 -10.7 -38.7 L-10.55 -39.05 -10.3 -39.45 -9.9 -40.05 Q-9.5 -40.6 -9.8 -40.85 L-9.75 -41.05 -9.75 -41.1 -9.8 -41.1 -10.0 -41.05 -9.5 -41.85 -9.35 -41.85 -9.25 -41.8 -9.25 -41.85 -9.15 -42.05 -8.8 -41.6 -9.05 -40.6 Q-9.25 -38.8 -10.05 -37.15 L-10.35 -36.7 -10.65 -36.3 Q-11.1 -35.25 -12.2 -35.1 L-12.25 -35.1 -12.8 -35.05 -13.4 -35.1 -13.6 -35.15 -13.75 -35.2 -13.85 -35.25 -13.9 -35.25 -14.95 -33.55 -14.95 -33.5 -15.55 -32.1 -15.95 -30.95 -15.85 -30.75 -16.3 -28.65 -16.35 -28.4 -16.35 -28.35 -16.55 -28.0 -16.55 -27.95 -16.8 -27.75 -16.85 -27.75 -17.0 -28.2 M-25.15 -34.55 L-24.6 -34.6 -24.95 -34.55 -25.0 -34.55 -25.15 -34.55 M-21.7 -34.9 L-21.0 -35.1 -20.15 -35.7 -19.0 -35.9 -18.45 -35.45 -17.95 -34.75 -17.75 -34.55 -17.75 -34.5 -17.3 -33.75 -17.25 -33.6 -17.35 -33.45 Q-17.65 -32.85 -18.2 -33.25 L-18.25 -33.3 -18.75 -33.5 -21.0 -33.5 -21.8 -33.5 -22.0 -33.5 -21.55 -34.2 Q-21.4 -34.5 -21.65 -34.85 L-21.7 -34.9 M-6.05 -45.6 L-6.5 -46.1 -6.5 -46.2 -6.2 -47.45 -5.9 -48.15 -5.45 -49.0 Q-4.75 -50.35 -3.4 -51.05 L-3.05 -51.2 -2.45 -51.35 -1.55 -51.4 -0.4 -51.2 -0.3 -51.05 -0.25 -50.9 -0.25 -50.5 -0.4 -49.8 -2.0 -47.55 -3.5 -46.2 -4.9 -45.35 -5.55 -45.3 -5.7 -45.35 -5.75 -45.4 -5.85 -45.45 -6.0 -45.55 -6.05 -45.6 M1.65 -37.5 L1.7 -37.4 1.9 -37.15 1.95 -37.15 2.55 -36.6 2.55 -36.55 Q3.85 -35.0 3.9 -32.95 L3.9 -32.65 Q4.15 -30.35 3.15 -28.3 L2.2 -27.05 Q1.85 -26.7 1.3 -26.65 L0.95 -26.6 Q-0.25 -26.6 -0.85 -27.55 L-0.9 -27.85 -0.85 -28.1 -0.8 -28.2 -0.6 -28.4 -0.35 -28.65 -0.3 -28.6 Q-0.15 -28.4 0.15 -28.35 L0.95 -28.25 1.2 -28.25 2.3 -29.75 Q2.85 -31.4 2.55 -33.15 L2.5 -33.65 1.75 -36.3 1.7 -36.4 1.6 -36.6 1.55 -36.65 1.2 -36.9 1.65 -37.5 M4.9 -37.6 L4.95 -37.7 5.05 -37.85 5.2 -37.85 5.55 -37.85 Q5.75 -37.7 6.1 -37.7 L6.15 -37.65 6.25 -37.7 Q7.05 -37.85 6.8 -38.9 L6.65 -39.75 Q6.55 -40.7 5.7 -40.75 L5.7 -40.8 Q5.8 -41.4 6.25 -41.75 L6.3 -41.65 6.5 -41.4 7.1 -40.6 7.55 -39.1 Q8.0 -37.65 7.0 -36.65 6.65 -36.3 6.2 -36.25 L5.55 -36.35 Q5.1 -36.45 4.9 -36.9 4.7 -37.3 4.95 -37.5 L4.9 -37.6 M7.4 -34.55 L7.4 -34.6 7.4 -34.65 7.45 -34.7 7.5 -34.75 8.05 -34.9 8.1 -34.9 Q9.35 -34.6 10.05 -33.35 10.6 -32.35 10.55 -31.2 L10.55 -30.85 Q10.65 -28.95 9.25 -27.65 L8.35 -27.15 7.9 -27.05 Q6.9 -27.05 6.4 -27.95 L6.4 -28.4 6.5 -28.5 6.5 -28.55 Q6.75 -28.85 7.1 -28.8 L7.25 -28.8 7.35 -28.8 7.4 -28.8 7.45 -28.8 7.55 -28.65 7.65 -28.6 7.75 -28.6 8.55 -28.85 8.7 -29.1 8.9 -29.35 9.1 -30.0 9.2 -30.4 8.95 -32.45 8.6 -33.15 7.9 -34.0 7.85 -34.0 7.7 -34.0 7.55 -34.25 7.4 -34.45 7.4 -34.55 M-13.75 -39.55 L-13.55 -39.85 -13.75 -39.55 M-6.0 -38.75 L-6.0 -38.8 -5.95 -38.9 -5.5 -39.6 -5.4 -39.55 -4.85 -39.1 Q-3.8 -37.25 -3.75 -35.2 L-3.75 -33.75 Q-3.8 -32.25 -4.6 -30.85 -4.95 -30.25 -5.65 -29.95 L-6.35 -29.75 -6.8 -29.7 -7.75 -29.85 Q-8.7 -30.2 -8.6 -30.95 L-8.7 -31.1 -8.65 -31.25 -8.35 -31.75 -8.2 -31.9 -8.1 -31.8 -7.8 -31.6 -7.65 -31.4 Q-7.4 -31.05 -7.05 -31.1 L-6.95 -31.1 Q-5.85 -31.8 -5.1 -32.9 -4.6 -35.0 -5.15 -37.2 L-5.25 -37.7 -5.25 -37.8 -5.4 -38.05 Q-5.4 -38.65 -6.0 -38.75" fill="#ffb243" fill-rule="evenodd" stroke="none"/>
    <path d="M19.85 -58.25 L20.0 -58.15 20.25 -57.95 Q20.85 -57.15 20.65 -56.15 L20.15 -54.3 Q17.9 -52.1 15.0 -52.05 L14.1 -52.1 Q12.9 -52.35 12.4 -53.15 L12.3 -53.3 12.15 -53.55 12.15 -53.6 11.85 -54.35 12.0 -54.3 13.7 -54.15 15.35 -54.05 16.2 -54.1 Q16.95 -54.15 17.65 -54.5 19.4 -55.5 19.75 -57.45 L19.85 -58.25 M-12.95 -59.6 L-12.8 -59.55 -11.65 -58.75 -11.6 -58.65 -11.55 -58.55 -11.5 -58.45 -11.5 -58.35 -11.25 -57.5 Q-11.1 -56.75 -11.25 -55.9 -11.3 -55.45 -11.5 -54.9 -12.05 -53.9 -12.95 -53.05 L-14.05 -52.2 Q-14.6 -51.85 -15.1 -51.6 L-16.1 -51.3 -16.25 -51.25 -16.3 -51.25 -16.5 -51.2 -17.1 -51.2 -17.2 -51.2 -17.3 -51.2 -17.35 -51.2 Q-18.45 -51.55 -19.15 -52.35 L-19.15 -52.4 -19.0 -52.4 -17.0 -52.95 -16.5 -53.2 -16.1 -53.45 -15.8 -53.65 -14.3 -55.05 Q-13.55 -56.0 -13.2 -57.25 L-12.95 -58.6 -12.95 -59.45 -12.95 -59.6" fill="#cc9900" fill-rule="evenodd" stroke="none"/>
    <path d="M15.55 -59.7 L15.7 -59.7 Q17.95 -59.75 19.85 -58.25 L19.75 -57.45 Q19.4 -55.5 17.65 -54.5 16.95 -54.15 16.2 -54.1 L15.35 -54.05 13.7 -54.15 12.0 -54.3 11.85 -54.35 Q11.55 -55.2 11.4 -56.1 11.35 -57.2 12.05 -58.0 L12.05 -57.8 Q12.1 -56.75 13.4 -56.0 L13.55 -56.0 14.8 -56.0 15.65 -56.75 16.1 -57.55 16.15 -57.35 Q16.45 -56.1 16.05 -54.7 L17.05 -54.55 17.1 -54.55 Q18.2 -55.15 17.85 -56.65 L17.1 -57.65 16.35 -58.1 16.2 -58.1 Q16.25 -59.0 15.55 -59.7 M-19.25 -52.45 L-19.65 -53.05 Q-20.0 -54.6 -19.45 -56.0 L-19.35 -55.9 Q-18.95 -55.55 -18.35 -55.3 L-17.5 -55.05 -17.35 -55.05 -16.7 -55.2 -16.7 -55.15 -16.6 -54.85 -16.1 -54.1 -16.05 -54.1 -15.95 -54.1 Q-14.95 -54.35 -15.05 -55.2 L-15.1 -55.55 Q-15.55 -56.75 -14.65 -57.75 L-15.05 -57.9 -15.1 -57.9 -15.25 -57.9 -15.45 -58.75 -16.0 -59.4 -16.05 -59.45 -14.9 -59.8 -14.2 -59.85 -14.05 -59.85 -12.95 -59.6 -12.95 -59.45 -12.95 -58.6 -13.2 -57.25 Q-13.55 -56.0 -14.3 -55.05 L-15.8 -53.65 -16.1 -53.45 -16.5 -53.2 -17.0 -52.95 -19.0 -52.4 -19.15 -52.4 -19.2 -52.4 -19.25 -52.45" fill="#ffcc00" fill-rule="evenodd" stroke="none"/>
    <path d="M12.8 -58.7 L12.9 -58.8 Q13.4 -59.25 14.0 -59.5 L14.1 -59.55 15.1 -59.65 15.55 -59.7 Q16.25 -59.0 16.2 -58.1 L15.9 -58.05 16.1 -57.55 15.65 -56.75 14.8 -56.0 13.55 -56.0 13.4 -56.0 Q12.1 -56.75 12.05 -57.8 L12.05 -58.0 12.15 -58.1 12.8 -58.7 M29.0 -31.85 L28.95 -31.6 28.95 -31.5 28.85 -31.45 28.9 -31.6 29.0 -31.85 M-19.45 -56.0 L-18.3 -57.8 -18.2 -57.9 -17.95 -58.15 -17.7 -58.45 -17.65 -58.5 -16.35 -59.35 -16.1 -59.45 -16.05 -59.45 -16.0 -59.4 -15.45 -58.75 -15.25 -57.9 Q-15.55 -57.9 -15.75 -57.55 L-16.1 -56.95 -16.4 -56.4 Q-16.8 -55.8 -16.7 -55.2 L-17.35 -55.05 -17.5 -55.05 -18.35 -55.3 Q-18.95 -55.55 -19.35 -55.9 L-19.45 -56.0 M28.1 -29.05 L27.95 -29.05 28.1 -29.4 28.1 -29.05 M0.1 55.75 L0.0 55.75 -0.1 55.75 0.1 55.75" fill="#ffffff" fill-rule="evenodd" stroke="none"/>
    <path d="M12.05 -21.9 L11.15 -22.15 Q12.0 -23.0 11.45 -24.3 10.95 -25.4 10.15 -26.05 L10.05 -26.0 Q8.95 -26.9 7.4 -26.9 L6.8 -26.9 6.3 -26.7 Q5.15 -26.3 5.0 -25.15 L4.95 -24.55 5.1 -24.6 Q5.1 -23.85 5.4 -23.25 L4.9 -23.3 Q4.7 -24.05 3.9 -24.4 L3.8 -24.35 3.15 -24.6 3.1 -24.6 2.7 -24.5 2.3 -24.25 2.45 -24.25 1.55 -23.5 0.1 -23.5 -0.1 -23.5 -0.6 -23.5 -0.5 -23.8 -0.35 -24.35 -0.5 -24.35 Q-0.35 -25.7 -1.75 -26.05 L-1.85 -26.05 Q-2.3 -26.1 -2.55 -25.8 L-3.35 -24.95 -3.25 -24.9 -4.55 -23.4 -4.6 -23.45 -4.7 -23.4 -4.8 -23.3 -11.5 -22.05 -12.65 -22.5 -13.05 -22.75 Q-13.3 -22.8 -13.45 -22.95 -14.65 -23.3 -15.55 -24.15 -14.1 -23.5 -12.35 -24.4 -11.35 -24.85 -10.4 -25.55 L-10.55 -25.55 -9.9 -26.1 Q-8.9 -26.95 -8.7 -28.15 -8.5 -29.3 -9.4 -29.9 -10.8 -30.9 -12.5 -31.0 L-13.05 -31.05 Q-14.6 -31.05 -15.55 -30.0 L-15.5 -29.9 -15.9 -29.4 -16.3 -28.65 -15.85 -30.75 -15.95 -30.95 -15.55 -32.1 -14.95 -33.5 -14.95 -33.55 -14.8 -33.8 -14.05 -34.8 -13.75 -35.2 -13.6 -35.15 -13.4 -35.1 -12.8 -35.05 -12.25 -35.1 -12.2 -35.1 Q-11.1 -35.25 -10.65 -36.3 L-10.35 -36.7 -10.05 -37.15 Q-9.25 -38.8 -9.05 -40.6 L-8.8 -41.6 -9.15 -42.05 -9.25 -41.85 -9.25 -41.8 -9.35 -41.85 -9.5 -41.85 -10.3 -41.7 -10.4 -41.75 -11.25 -41.5 -11.35 -41.45 -11.5 -41.4 -11.55 -41.4 -11.55 -41.35 -11.6 -41.35 -11.9 -41.2 -12.45 -40.85 -12.55 -42.25 -12.75 -43.4 -13.5 -46.15 -12.45 -46.7 -12.4 -46.75 -10.75 -47.1 -10.7 -47.15 -10.6 -47.3 Q-9.6 -48.3 -8.9 -49.5 L-8.9 -49.55 -8.65 -50.05 -8.6 -50.15 -8.6 -50.2 -8.45 -50.55 -8.25 -51.2 -7.8 -52.9 -7.75 -53.15 -7.75 -53.75 -7.7 -53.95 -7.45 -54.95 -6.85 -56.3 -6.75 -56.5 -6.4 -56.2 -6.3 -56.0 -6.25 -55.95 -6.1 -55.75 -6.05 -55.5 -6.05 -55.2 Q-5.7 -54.45 -4.9 -54.05 L-3.75 -54.35 -3.4 -54.0 -0.55 -54.05 -0.35 -54.15 Q1.1 -55.4 0.75 -57.3 L0.65 -57.65 1.1 -56.95 1.35 -56.7 1.35 -56.25 1.35 -56.2 1.35 -56.15 1.25 -56.15 1.0 -55.9 Q0.85 -55.55 1.0 -55.1 L1.15 -54.8 Q1.5 -54.25 2.3 -54.15 L2.35 -54.1 4.0 -54.3 4.1 -54.35 4.15 -54.4 4.95 -55.3 5.1 -55.55 5.2 -55.8 5.35 -55.75 5.7 -55.55 Q6.65 -55.15 7.75 -55.05 L8.75 -53.1 8.8 -53.25 9.0 -53.7 9.6 -54.2 9.6 -54.1 9.25 -53.05 8.85 -52.05 8.7 -51.6 8.3 -50.6 8.2 -50.6 8.05 -50.6 7.9 -50.6 7.75 -50.55 7.65 -50.45 7.65 -50.05 7.8 -49.5 Q7.75 -49.05 7.85 -48.6 L8.0 -48.1 8.2 -47.65 8.2 -47.45 7.8 -47.1 8.3 -47.45 8.3 -47.4 8.55 -47.0 9.8 -45.8 10.35 -45.25 11.05 -45.0 11.15 -44.9 Q10.45 -43.05 11.15 -40.8 12.45 -40.5 13.55 -39.65 L14.6 -38.3 14.95 -37.25 15.05 -35.25 14.65 -34.15 14.55 -34.0 14.3 -33.35 12.85 -31.85 13.15 -30.6 13.55 -29.25 13.9 -27.45 14.05 -27.5 13.8 -25.65 13.5 -24.7 13.3 -24.25 13.0 -23.6 12.3 -22.25 12.05 -21.9 M-16.75 -27.3 L-17.0 -28.2 -16.85 -27.75 -16.8 -27.75 -16.55 -27.95 -16.75 -27.3 M-6.05 -45.6 L-6.1 -45.65 -6.2 -45.3 Q-6.35 -44.45 -5.9 -43.6 L-5.25 -42.7 -4.6 -42.05 Q-4.05 -41.65 -3.35 -41.55 L-2.3 -41.45 -1.0 -41.65 Q1.75 -42.25 3.6 -44.5 L4.25 -45.55 Q4.55 -46.45 4.5 -47.35 L4.35 -48.15 Q3.75 -50.8 1.3 -51.05 L0.35 -51.05 0.1 -51.05 -0.25 -50.9 -0.3 -51.05 -0.35 -51.25 -0.4 -51.2 -1.55 -51.4 -2.45 -51.35 -3.05 -51.2 -3.4 -51.05 Q-4.75 -50.35 -5.45 -49.0 L-5.9 -48.15 -6.2 -47.45 -6.5 -46.2 -6.5 -46.1 -6.05 -45.6 M12.05 -34.75 L12.15 -34.7 Q12.45 -34.5 12.9 -34.4 L12.95 -34.45 13.65 -35.4 13.9 -35.95 13.85 -37.25 13.8 -37.45 13.55 -37.95 12.65 -39.0 12.3 -39.2 12.15 -39.35 11.95 -39.4 11.55 -39.5 11.45 -39.5 11.4 -39.5 11.25 -39.45 11.25 -39.5 11.25 -39.6 11.05 -39.75 11.0 -39.8 10.45 -39.9 10.4 -40.0 10.05 -39.55 Q9.1 -36.45 11.4 -33.9 L11.6 -33.9 Q11.65 -34.45 12.05 -34.75 M0.95 -40.7 L1.35 -40.7 1.25 -40.95 0.95 -40.7 M1.65 -37.5 L0.9 -37.95 0.85 -37.95 0.75 -37.95 0.6 -37.95 Q-0.6 -37.85 -1.2 -36.8 L-2.2 -34.75 Q-3.1 -31.05 -0.85 -28.1 L-0.9 -27.85 -0.85 -27.55 Q-0.25 -26.6 0.95 -26.6 L1.3 -26.65 Q1.85 -26.7 2.2 -27.05 L3.15 -28.3 Q4.15 -30.35 3.9 -32.65 L3.9 -32.95 Q3.85 -35.0 2.55 -36.55 L2.55 -36.6 1.95 -37.15 1.9 -37.15 1.7 -37.4 1.65 -37.5 M6.25 -41.75 L5.65 -42.05 Q5.2 -42.1 4.65 -41.7 L4.25 -39.7 Q4.1 -38.7 4.8 -37.75 L4.9 -37.6 4.95 -37.5 Q4.7 -37.3 4.9 -36.9 5.1 -36.45 5.55 -36.35 L6.2 -36.25 Q6.65 -36.3 7.0 -36.65 8.0 -37.65 7.55 -39.1 L7.1 -40.6 6.5 -41.4 6.3 -41.65 6.25 -41.75 M6.4 -28.4 L6.4 -27.95 Q6.9 -27.05 7.9 -27.05 L8.35 -27.15 9.25 -27.65 Q10.65 -28.95 10.55 -30.85 L10.55 -31.2 Q10.6 -32.35 10.05 -33.35 9.35 -34.6 8.1 -34.9 L8.05 -34.9 7.5 -34.75 7.45 -34.7 7.4 -34.65 7.4 -34.6 7.4 -34.55 7.0 -34.65 Q6.55 -34.7 6.1 -34.35 5.0 -33.05 5.3 -31.2 5.35 -29.55 6.4 -28.4 M-5.5 -39.6 L-6.5 -39.85 -6.65 -39.85 Q-8.35 -39.25 -8.95 -37.6 -9.65 -35.95 -9.8 -34.25 -9.65 -32.45 -8.7 -31.1 L-8.6 -30.95 Q-8.7 -30.2 -7.75 -29.85 L-6.8 -29.7 -6.35 -29.75 -5.65 -29.95 Q-4.95 -30.25 -4.6 -30.85 -3.8 -32.25 -3.75 -33.75 L-3.75 -35.2 Q-3.8 -37.25 -4.85 -39.1 L-5.4 -39.55 -5.5 -39.6 M-16.85 -26.4 L-16.8 -26.5 -16.8 -26.35 -16.7 -26.05 -16.85 -26.4" fill="#e85700" fill-rule="evenodd" stroke="none"/>
    <path d="M40.15 -11.05 Q39.2 -12.4 38.7 -13.9 37.85 -16.25 37.95 -18.9 38.1 -23.8 38.55 -28.45 39.3 -32.85 40.4 -37.05 42.4 -45.05 45.5 -52.55 L47.4 -55.7 Q48.45 -57.3 50.4 -57.7 L50.45 -57.75 50.5 -57.75 51.1 -57.75 52.3 -57.35 52.65 -57.1 Q51.55 -55.85 50.75 -54.25 49.0 -50.7 47.6 -47.0 L46.45 -44.3 43.8 -37.05 43.6 -36.8 43.2 -36.1 42.6 -33.0 Q41.95 -31.6 41.65 -30.05 L40.55 -21.85 Q40.05 -17.65 41.7 -13.7 L42.25 -12.9 Q43.6 -11.55 45.6 -12.3 L45.95 -12.4 47.2 -12.7 48.1 -12.75 48.75 -12.85 Q52.5 -14.3 55.85 -16.65 L59.8 -19.9 63.0 -23.4 Q64.85 -25.85 66.15 -28.55 L66.25 -28.75 66.8 -30.1 67.0 -30.6 67.6 -31.0 68.7 -31.4 69.7 -31.6 70.2 -31.6 70.6 -31.6 70.75 -31.55 68.7 -27.2 Q66.85 -23.3 63.75 -20.5 L59.6 -16.75 Q57.25 -14.7 54.45 -13.5 L52.45 -12.65 48.05 -11.05 Q45.05 -10.0 41.9 -10.15 L40.15 -11.05 M-14.0 -19.6 L-13.9 -19.65 -12.25 -20.35 -4.85 -21.8 -1.25 -22.05 -0.3 -22.1 -0.1 -22.1 0.1 -22.1 0.55 -22.05 0.7 -22.05 1.35 -22.05 4.8 -21.8 6.2 -21.6 8.0 -21.3 8.95 -21.1 9.35 -21.05 12.25 -20.35 12.3 -20.3 14.6 -19.35 14.55 -19.4 Q14.9 -18.5 15.5 -17.7 16.85 -15.95 15.1 -14.6 14.55 -14.2 14.5 -13.6 L14.5 -13.55 14.4 -13.6 13.85 -13.7 12.8 -13.95 12.35 -14.05 8.9 -14.65 7.55 -14.85 6.4 -15.0 2.95 -15.25 2.75 -15.25 0.1 -15.3 -0.1 -15.3 -0.5 -15.3 -1.05 -15.3 -7.9 -14.8 -8.05 -14.95 -9.1 -15.9 -9.5 -16.3 -10.05 -16.7 Q-11.3 -17.75 -12.65 -18.65 L-13.25 -19.1 -14.0 -19.6 M-15.35 15.6 L-16.15 14.8 -17.4 13.45 -17.55 13.25 -19.5 10.9 -20.9 8.35 -21.1 8.0 -21.4 7.4 -24.15 2.5 -25.2 0.35 -25.25 0.3 -25.3 0.1 -25.6 -1.35 -25.65 -1.75 -25.7 -2.2 -25.85 -1.85 -25.7 -2.3 -25.5 -2.1 -24.45 -0.85 -22.8 0.75 -22.4 1.05 -21.65 1.75 -18.7 3.6 -16.65 4.7 -12.25 6.15 -8.55 6.65 -7.4 6.45 -6.85 6.3 Q-4.95 5.75 -3.5 4.6 L-2.85 3.8 Q-1.75 1.9 -1.6 -0.25 L-1.45 -1.6 -1.4 -1.7 Q-1.3 -2.5 -1.5 -3.25 L-1.5 -3.6 -1.7 -4.15 -1.7 -4.4 -1.95 -5.5 -2.15 -5.95 Q-2.65 -7.5 -3.45 -8.9 -4.6 -10.9 -6.05 -12.7 L-6.2 -12.95 -7.15 -14.1 -6.95 -14.15 -0.1 -14.25 0.1 -14.25 6.95 -14.15 7.95 -14.0 8.45 -13.95 8.5 -13.95 11.75 -13.4 12.05 -13.35 12.35 -13.3 12.85 -13.2 13.85 -12.95 14.25 -12.85 14.35 -12.75 15.5 -11.25 16.1 -9.95 16.5 -7.75 15.8 -8.3 15.0 -8.8 14.05 -9.1 13.9 -9.15 13.2 -9.15 13.0 -9.15 12.85 -9.15 12.75 -9.15 12.6 -9.15 12.5 -9.1 12.3 -9.1 Q9.25 -8.8 8.0 -5.85 7.3 -4.25 7.9 -2.6 L8.55 -1.5 9.15 -1.0 Q10.0 -0.4 10.95 0.0 L11.7 0.25 12.45 0.3 12.9 0.45 13.45 0.45 13.95 0.35 14.15 0.3 14.25 0.3 13.6 2.9 Q13.0 5.45 11.4 7.5 L9.35 9.85 Q9.8 8.3 9.2 6.75 L8.65 6.0 8.5 6.05 8.5 6.0 Q7.75 4.45 6.4 4.15 L4.8 4.1 4.65 4.1 Q2.0 4.35 0.95 6.9 0.35 8.25 0.9 9.65 L1.45 10.6 1.95 11.0 Q2.65 11.55 3.5 11.9 L3.6 11.95 4.3 12.1 4.35 12.1 4.45 12.1 4.9 12.2 4.2 12.2 4.85 12.5 6.4 12.6 5.7 13.35 3.9 15.05 Q1.5 16.8 -1.35 17.95 L-3.2 18.45 Q-6.85 19.1 -10.35 17.95 L-11.1 17.7 -14.05 16.35 -15.35 15.6 M-26.55 -4.7 L-26.6 -4.7 -26.7 -4.9 -27.3 -6.25 -27.65 -7.3 -27.5 -6.95 -27.75 -8.6 -27.95 -9.9 -28.0 -10.0 -28.0 -10.75 -28.0 -11.6 -28.25 -11.15 -27.9 -11.75 -27.2 -13.9 Q-26.1 -16.15 -24.25 -17.8 L-23.75 -18.15 -23.2 -18.6 Q-21.9 -19.45 -20.5 -19.7 L-18.9 -19.9 -15.55 -19.25 -15.15 -19.1 -13.3 -18.25 -13.0 -18.05 -12.05 -17.45 -10.0 -15.75 -9.55 -14.6 -9.35 -14.05 -9.25 -13.85 Q-8.95 -12.7 -8.95 -11.5 L-9.1 -9.3 -11.3 -9.7 -11.55 -9.7 -11.8 -9.7 -11.9 -9.7 -12.05 -9.65 -12.25 -9.6 -12.5 -9.6 Q-16.4 -9.2 -17.95 -5.4 -18.85 -3.4 -18.1 -1.3 -17.85 -0.5 -17.25 0.15 L-17.1 0.35 -19.8 0.25 -23.15 -0.65 -22.5 -0.05 Q-24.7 -1.85 -26.25 -4.2 L-26.55 -4.7 M63.1 -44.9 L63.2 -43.8 Q62.85 -39.95 59.6 -37.6 58.45 -36.75 57.05 -36.35 L56.55 -36.25 55.15 -37.35 55.05 -37.65 55.6 -38.45 55.9 -38.95 56.7 -40.4 56.95 -39.85 57.5 -39.45 Q60.0 -38.95 61.5 -41.2 L62.0 -42.3 Q62.75 -44.35 60.8 -44.95 L59.75 -44.75 60.0 -45.05 60.9 -45.3 61.15 -45.35 61.65 -45.35 63.1 -44.9 M64.75 -37.15 L65.45 -36.2 65.7 -34.8 65.7 -34.75 65.6 -33.9 Q65.2 -31.3 63.9 -29.0 62.45 -26.4 60.0 -26.15 L60.05 -27.05 59.85 -29.75 59.25 -31.95 59.4 -32.1 59.45 -32.2 59.85 -32.55 60.05 -32.65 Q59.95 -31.1 61.85 -31.25 63.0 -31.35 64.05 -32.1 65.15 -33.0 65.4 -34.3 65.7 -36.2 64.25 -36.6 L64.4 -36.8 64.75 -37.15 M57.45 -46.05 L57.45 -46.1 57.45 -46.05 M56.65 -46.45 L56.4 -44.95 55.95 -43.85 Q54.55 -41.0 51.75 -39.8 L50.7 -39.45 Q49.2 -39.05 48.05 -39.85 L48.4 -40.65 48.7 -41.2 48.8 -41.1 48.85 -41.2 49.0 -41.6 49.65 -42.95 49.85 -42.75 Q51.8 -41.4 53.6 -43.05 54.2 -43.65 54.6 -44.4 55.65 -46.35 53.65 -47.05 L53.9 -47.05 54.0 -47.05 55.1 -46.9 55.25 -46.85 55.6 -46.75 56.65 -46.45 M52.75 -47.05 L52.15 -46.9 52.25 -47.05 52.3 -47.05 52.75 -47.05 M47.55 -35.7 L48.3 -36.35 Q49.0 -36.85 49.8 -37.0 L51.45 -37.25 52.5 -37.3 53.1 -37.25 54.35 -36.65 54.7 -36.4 54.75 -36.4 54.75 -36.35 55.9 -34.45 Q57.5 -31.3 56.45 -27.95 54.4 -21.5 48.05 -19.2 L43.65 -19.05 43.45 -19.1 43.45 -19.45 43.45 -19.65 Q43.4 -20.95 43.6 -22.25 L43.6 -22.45 43.65 -22.8 44.05 -24.8 44.6 -27.75 44.7 -28.3 Q46.15 -27.1 48.05 -27.75 48.85 -28.0 49.65 -28.35 52.8 -29.8 52.75 -33.2 52.7 -36.7 48.95 -36.45 L48.2 -36.25 47.55 -35.7 M-6.85 46.5 L-6.8 46.5 -6.75 46.55 -6.85 46.5 M6.05 35.45 L6.1 35.45 6.45 36.05 6.05 35.45 M-6.5 44.35 L-6.8 44.25 Q-7.8 42.3 -7.45 39.8 -6.95 36.65 -4.25 35.2 -1.6 33.8 1.45 33.75 L2.35 33.85 2.35 33.9 Q3.35 35.05 3.25 36.8 L3.2 37.6 Q1.65 36.45 -1.4 36.55 -1.9 35.3 -3.95 35.35 -5.05 35.8 -5.75 36.85 -6.35 37.8 -5.9 38.8 -5.3 40.0 -4.45 40.3 -4.6 41.2 -4.35 42.2 L-3.5 44.45 -6.5 44.35 M-0.45 37.3 L1.7 37.45 Q2.5 37.7 3.05 38.3 3.7 39.0 4.05 40.2 L4.05 40.3 Q4.9 41.85 3.8 43.4 2.9 44.65 1.55 45.2 L1.3 45.3 0.2 45.6 Q-0.9 45.75 -1.8 45.3 L-3.0 44.35 -3.15 44.2 -3.7 43.3 Q-4.2 42.1 -3.75 40.7 L-3.7 40.7 -3.35 41.9 Q-2.5 43.5 -1.1 43.55 -0.15 43.55 1.0 42.9 L1.35 42.5 Q3.0 41.25 2.6 39.6 L2.25 38.75 Q1.4 37.2 -0.4 37.35 L-0.45 37.3 M-71.6 -31.45 Q-69.05 -32.0 -67.1 -30.6 L-66.9 -30.1 -66.3 -28.75 -66.2 -28.55 Q-64.95 -25.85 -63.05 -23.4 L-59.9 -19.9 Q-54.9 -15.2 -48.8 -12.85 L-46.15 -12.65 Q-44.8 -12.65 -43.9 -13.7 L-43.85 -13.8 Q-43.2 -15.55 -42.9 -17.35 -42.35 -20.6 -43.0 -23.9 L-44.75 -32.45 -45.05 -33.95 Q-46.25 -40.0 -49.8 -45.1 L-50.2 -45.7 Q-51.55 -47.8 -52.3 -50.1 L-53.05 -53.45 -53.2 -56.6 -52.2 -57.45 Q-50.65 -55.65 -49.35 -53.55 L-48.35 -51.75 Q-46.25 -47.15 -44.65 -42.4 -43.45 -38.85 -42.65 -35.15 -41.45 -29.65 -40.55 -24.0 L-39.9 -18.45 Q-39.6 -14.85 -41.2 -12.25 -42.45 -11.3 -43.75 -10.5 -50.05 -10.9 -55.5 -14.25 L-59.0 -16.35 Q-61.6 -17.95 -63.65 -20.25 -67.65 -24.7 -70.8 -29.7 L-70.8 -29.85 Q-71.0 -30.85 -71.6 -31.45 M-65.4 -29.35 L-65.75 -30.4 -66.0 -31.75 -65.6 -31.75 Q-63.05 -31.75 -63.1 -34.25 -63.1 -35.05 -63.35 -35.6 L-62.45 -34.65 -60.65 -33.1 Q-60.5 -31.3 -61.85 -29.8 -63.9 -28.95 -65.4 -29.35 M-65.4 -36.7 L-65.25 -37.2 -65.15 -37.4 -65.1 -37.55 -65.0 -37.4 -64.5 -36.8 -64.1 -36.35 -65.4 -36.7 M-63.05 -44.95 Q-62.25 -45.4 -61.25 -45.35 L-61.0 -45.3 -60.05 -45.05 -59.15 -43.9 -59.0 -43.65 -57.85 -41.9 Q-57.85 -40.95 -58.15 -39.85 -58.4 -38.95 -58.95 -38.2 -59.65 -37.3 -60.65 -36.65 -61.25 -36.25 -61.85 -36.05 L-62.0 -36.2 -62.1 -36.35 -62.2 -36.45 -62.75 -36.9 -63.05 -37.15 -63.6 -37.8 Q-64.05 -38.45 -64.65 -38.9 L-64.8 -39.2 -64.45 -39.25 Q-61.65 -39.6 -61.35 -42.35 -61.1 -44.6 -63.05 -44.95 M-58.75 -45.3 L-58.55 -45.45 -57.8 -45.9 -57.5 -46.05 -57.45 -46.1 -57.45 -46.05 -58.05 -45.4 -58.3 -44.7 -58.75 -45.3 M-55.9 -46.45 L-53.2 -47.05 -53.05 -47.05 Q-51.8 -46.05 -51.75 -43.8 -51.7 -42.25 -53.15 -41.55 -54.65 -40.8 -55.8 -40.85 L-57.05 -42.75 Q-55.6 -42.0 -54.7 -43.65 -53.5 -45.8 -55.9 -46.45 M-56.6 -34.5 L-56.1 -35.2 Q-54.95 -36.6 -53.2 -37.25 L-52.6 -37.3 -51.55 -37.25 -50.3 -37.1 -49.9 -37.0 Q-47.6 -35.8 -47.6 -32.3 L-47.5 -30.85 Q-46.65 -24.35 -52.15 -21.2 -53.35 -20.5 -54.8 -20.6 -56.2 -20.7 -57.25 -21.15 L-57.95 -22.6 Q-58.65 -24.25 -58.85 -26.0 -59.05 -27.95 -58.7 -29.8 L-58.5 -30.6 Q-58.6 -29.55 -58.2 -28.4 -57.95 -27.6 -57.1 -27.4 L-55.35 -27.45 Q-53.4 -27.95 -52.05 -29.5 -50.55 -31.15 -50.75 -33.25 -51.05 -35.9 -53.95 -35.75 -55.45 -35.55 -56.6 -34.5 M-24.8 -14.15 L-25.25 -13.15 Q-26.0 -11.3 -25.6 -9.75 L-25.45 -9.2 -24.8 -7.95 -24.5 -7.55 Q-23.2 -6.05 -21.65 -7.2 -19.25 -9.15 -17.75 -11.85 L-17.25 -12.8 -17.0 -13.5 Q-15.75 -16.6 -17.65 -17.85 -18.45 -18.4 -19.75 -18.6 L-20.6 -18.5 -20.9 -18.4 -22.75 -16.9 Q-24.0 -15.7 -24.8 -14.15 M-7.25 -20.5 Q-8.45 -20.4 -9.4 -19.55 -9.9 -19.1 -10.0 -18.45 -10.35 -16.95 -8.7 -16.6 L-5.45 -16.5 -4.3 -16.65 Q-3.4 -16.8 -2.75 -17.4 -2.25 -17.85 -2.5 -18.4 L-3.25 -19.45 Q-4.95 -20.95 -7.25 -20.5" fill="#7a8bbc" fill-rule="evenodd" stroke="none"/>
    <path d="M52.65 -57.1 L53.1 -56.6 53.1 -55.0 53.05 -54.35 52.95 -53.45 52.65 -51.75 52.75 -51.75 52.3 -50.1 Q51.55 -47.8 50.2 -45.65 L50.15 -45.7 49.75 -45.1 Q47.95 -42.55 46.8 -39.8 L46.8 -39.75 45.8 -37.1 45.0 -34.0 45.0 -33.95 44.7 -32.5 44.7 -32.45 44.75 -32.5 44.75 -32.45 43.35 -25.6 43.0 -23.9 42.95 -23.95 42.95 -23.9 Q42.4 -21.35 42.6 -18.8 L42.8 -17.35 Q43.1 -15.55 43.8 -13.8 L43.8 -13.75 43.85 -13.7 Q44.55 -12.8 45.7 -12.65 L45.9 -12.65 47.2 -12.7 45.95 -12.4 45.6 -12.3 Q43.6 -11.55 42.25 -12.9 L41.7 -13.7 Q40.05 -17.65 40.55 -21.85 L41.65 -30.05 Q41.95 -31.6 42.6 -33.0 L43.2 -36.1 43.6 -36.8 43.8 -37.05 46.45 -44.3 47.6 -47.0 Q49.0 -50.7 50.75 -54.25 51.55 -55.85 52.65 -57.1 M70.75 -31.55 L71.6 -31.4 Q72.9 -30.2 72.3 -28.5 L72.25 -28.3 72.15 -28.1 72.1 -28.0 71.25 -26.75 71.1 -26.6 70.75 -26.05 69.9 -24.95 Q67.35 -21.65 64.4 -18.9 57.85 -12.9 49.25 -9.6 L47.3 -9.05 45.6 -8.9 45.45 -8.9 45.25 -8.9 44.95 -8.9 44.85 -8.9 Q42.5 -8.95 40.75 -10.2 L40.15 -11.05 41.9 -10.15 Q45.05 -10.0 48.05 -11.05 L52.45 -12.65 54.45 -13.5 Q57.25 -14.7 59.6 -16.75 L63.75 -20.5 Q66.85 -23.3 68.7 -27.2 L70.75 -31.55 M14.6 -19.35 L15.0 -19.2 15.3 -19.05 16.8 -18.3 17.9 -17.7 19.25 -16.9 19.3 -16.8 Q20.0 -15.85 21.0 -15.1 L21.05 -14.9 21.15 -14.85 21.2 -14.75 Q21.9 -13.55 21.4 -12.25 L21.35 -11.8 21.25 -11.8 21.0 -11.55 20.4 -11.85 18.25 -12.6 16.9 -12.95 Q16.25 -13.05 15.55 -13.3 L14.5 -13.6 Q14.55 -14.2 15.1 -14.6 16.85 -15.95 15.5 -17.7 14.9 -18.5 14.55 -19.4 L14.6 -19.35 M-7.75 21.7 L-9.7 20.4 -10.2 20.05 -12.9 17.9 -12.85 17.8 -13.35 17.5 -13.4 17.5 -13.8 17.1 -14.05 16.9 -14.4 16.55 -14.55 16.4 -14.85 16.1 -15.3 15.7 -15.35 15.6 -14.05 16.35 -11.1 17.7 -10.35 17.95 Q-6.85 19.1 -3.2 18.45 L-1.35 17.95 Q1.5 16.8 3.9 15.05 L5.7 13.35 6.4 12.6 7.6 12.2 Q8.6 11.65 9.1 10.6 L9.35 9.85 11.4 7.5 Q13.0 5.45 13.6 2.9 L14.25 0.3 Q16.45 -0.4 17.1 -2.65 17.75 -4.8 17.05 -6.95 L17.0 -7.1 16.5 -7.75 16.1 -9.95 15.5 -11.25 14.35 -12.75 14.35 -12.8 16.2 -12.35 18.05 -11.75 18.35 -11.65 Q19.9 -11.25 21.2 -10.25 L21.6 -9.85 22.3 -9.05 Q22.9 -7.55 22.95 -5.9 23.1 -3.65 22.45 -1.5 21.8 1.0 20.8 3.4 L19.5 5.95 Q18.7 7.25 18.05 8.6 16.5 11.6 14.3 14.2 L12.9 15.8 11.45 16.85 Q6.85 19.85 1.9 22.15 L0.55 22.5 -4.1 22.55 -6.1 22.1 -7.65 21.5 -7.75 21.7 M56.55 -36.25 L57.05 -36.35 Q58.45 -36.75 59.6 -37.6 62.85 -39.95 63.2 -43.8 L63.1 -44.9 63.9 -44.25 64.2 -43.95 64.6 -43.45 Q65.4 -42.45 65.4 -41.2 L65.4 -40.75 65.3 -40.3 64.85 -39.7 64.55 -38.9 63.85 -38.25 63.5 -37.8 63.2 -37.4 62.95 -37.15 62.65 -36.9 62.1 -36.45 61.35 -35.65 61.0 -35.2 59.9 -34.05 58.85 -33.0 Q57.95 -34.95 56.55 -36.25 M55.05 -37.65 L55.15 -37.35 54.95 -37.45 54.95 -37.55 55.05 -37.65 M64.75 -37.15 L65.05 -37.55 65.1 -37.4 65.15 -37.2 65.45 -36.2 64.75 -37.15 M60.0 -26.15 Q62.45 -26.4 63.9 -29.0 65.2 -31.3 65.6 -33.9 L65.7 -34.75 65.7 -34.55 65.75 -34.35 65.75 -33.85 65.75 -33.6 65.75 -33.4 65.8 -33.1 65.9 -32.25 65.7 -30.5 65.65 -30.4 Q64.95 -28.1 63.5 -26.15 L61.55 -23.65 Q60.6 -23.65 59.7 -24.35 L59.65 -24.45 59.6 -24.35 60.0 -26.15 M57.45 -46.05 L57.75 -45.9 58.15 -45.65 58.5 -45.45 58.55 -45.45 58.7 -45.3 58.4 -44.95 58.1 -44.5 58.0 -44.3 57.3 -43.25 55.7 -40.85 55.05 -39.75 53.95 -37.95 52.8 -38.4 52.85 -38.4 52.7 -38.85 51.75 -39.8 Q54.55 -41.0 55.95 -43.85 L56.4 -44.95 56.65 -46.45 57.45 -46.1 57.45 -46.05 M47.25 -38.05 L47.3 -38.0 47.4 -38.05 47.2 -37.9 47.25 -38.05 M54.75 -36.4 L56.0 -35.2 57.5 -32.95 Q58.25 -31.45 58.6 -29.8 58.95 -27.95 58.75 -26.0 58.55 -24.25 57.85 -22.6 L57.15 -21.15 56.05 -19.5 54.7 -17.85 55.05 -18.25 Q53.7 -18.05 52.5 -17.25 49.8 -15.5 46.5 -15.9 45.0 -16.95 44.0 -18.45 L43.65 -19.05 48.05 -19.2 Q54.4 -21.5 56.45 -27.95 57.5 -31.3 55.9 -34.45 L54.75 -36.35 54.75 -36.4 M11.05 8.75 L11.1 8.85 11.1 8.8 11.05 8.75 M2.35 33.9 L2.95 33.9 3.8 34.3 4.75 34.85 5.65 35.75 6.35 36.7 6.45 36.9 6.75 37.4 6.8 37.5 7.6 39.35 7.65 40.8 7.2 43.05 Q5.75 47.15 1.5 48.75 -0.95 49.6 -3.1 48.7 L-3.4 48.6 -4.1 48.25 -4.8 47.55 -5.0 47.3 -5.6 46.4 -6.3 44.95 -6.5 44.35 -3.5 44.45 Q-1.65 47.45 2.95 45.7 4.1 44.6 4.4 43.05 5.2 39.15 3.2 37.6 L3.25 36.8 Q3.35 35.05 2.35 33.9 M-52.2 -57.45 L-50.6 -57.75 -50.5 -57.75 -50.45 -57.7 Q-48.55 -57.3 -47.5 -55.7 L-45.55 -52.55 Q-42.5 -45.05 -40.45 -37.05 -39.4 -32.85 -38.65 -28.45 -38.2 -23.8 -38.0 -18.9 -37.95 -16.25 -38.75 -13.9 -39.5 -11.95 -40.85 -10.2 -42.5 -9.0 -44.75 -8.9 L-44.95 -8.9 Q-47.3 -8.85 -49.3 -9.6 -62.8 -14.7 -71.2 -26.6 L-71.3 -26.75 -72.15 -28.0 -72.2 -28.1 -72.3 -28.3 -72.4 -28.5 Q-73.0 -30.2 -71.65 -31.4 L-71.6 -31.45 Q-71.0 -30.85 -70.8 -29.85 L-70.8 -29.7 Q-67.65 -24.7 -63.65 -20.25 -61.6 -17.95 -59.0 -16.35 L-55.5 -14.25 Q-50.05 -10.9 -43.75 -10.5 -42.45 -11.3 -41.2 -12.25 -39.6 -14.85 -39.9 -18.45 L-40.55 -24.0 Q-41.45 -29.65 -42.65 -35.15 -43.45 -38.85 -44.65 -42.4 -46.25 -47.15 -48.35 -51.75 L-49.35 -53.55 Q-50.65 -55.65 -52.2 -57.45 M-45.25 -31.15 L-44.5 -26.2 -44.5 -26.1 Q-44.2 -21.55 -46.2 -17.7 -46.65 -16.75 -47.6 -16.25 -49.55 -15.3 -51.6 -15.8 L-51.75 -15.85 -51.35 -15.6 -51.9 -15.9 -52.7 -16.25 -53.85 -17.05 -54.2 -17.4 -55.0 -18.1 -56.15 -19.5 -57.25 -21.15 Q-56.2 -20.7 -54.8 -20.6 -53.35 -20.5 -52.15 -21.2 -46.65 -24.35 -47.5 -30.85 L-47.6 -32.3 Q-47.6 -35.8 -49.9 -37.0 L-50.3 -37.1 -49.9 -37.0 -48.4 -36.35 -46.9 -34.95 -46.2 -34.1 -45.25 -31.15 M-62.7 -25.0 L-63.6 -26.15 Q-64.7 -27.65 -65.4 -29.35 -63.9 -28.95 -61.85 -29.8 -60.5 -31.3 -60.65 -33.1 L-59.95 -32.55 -59.55 -32.2 -59.45 -32.1 -59.3 -31.95 -59.95 -29.75 -60.15 -27.05 -59.85 -24.9 -59.9 -24.9 Q-60.35 -24.55 -60.9 -24.65 -61.95 -24.9 -62.95 -25.3 L-62.7 -25.0 M-53.05 -47.05 L-52.35 -47.05 -51.95 -46.55 -50.65 -44.55 -49.85 -41.7 Q-50.4 -40.0 -51.75 -38.7 L-52.9 -38.4 -54.0 -37.95 -55.15 -39.75 -55.8 -40.85 Q-54.65 -40.8 -53.15 -41.55 -51.7 -42.25 -51.75 -43.8 -51.8 -46.05 -53.05 -47.05 M-57.85 -41.9 L-57.8 -41.8 -57.55 -41.45 -56.0 -38.95 -55.7 -38.45 -55.05 -37.55 -55.0 -37.45 Q-57.65 -36.0 -58.9 -33.0 L-60.0 -34.05 -61.1 -35.2 -61.45 -35.65 -62.0 -36.2 -61.85 -36.05 Q-61.25 -36.25 -60.65 -36.65 -59.65 -37.3 -58.95 -38.2 -58.4 -38.95 -58.15 -39.85 -57.85 -40.95 -57.85 -41.9 M-22.5 -0.05 L-23.15 -0.65 -19.8 0.25 -17.1 0.35 -16.55 0.8 -14.2 2.1 -13.2 2.4 -12.3 2.45 -11.0 2.65 -10.1 2.45 Q-7.15 1.6 -6.3 -1.3 -5.45 -4.1 -6.35 -6.85 L-6.4 -7.0 Q-7.05 -8.05 -7.95 -8.55 L-9.0 -9.25 -9.1 -9.3 -8.95 -11.5 Q-8.95 -12.7 -9.25 -13.85 L-9.35 -14.05 -9.55 -14.6 -10.0 -15.75 -9.7 -15.5 -9.6 -15.4 -8.8 -14.7 -8.1 -14.0 -5.9 -11.7 -5.75 -11.55 -4.35 -9.65 Q-3.45 -7.45 -3.5 -5.05 -3.5 -2.8 -3.8 -0.6 -4.1 1.4 -5.8 2.65 -7.5 3.9 -9.55 4.2 L-11.8 4.3 -16.5 3.7 -18.85 2.4 -20.45 1.4 -21.05 1.05 -21.45 0.75 -21.8 0.5 -22.5 -0.05" fill="#4a5c93" fill-rule="evenodd" stroke="none"/>
    <path d="M-50.5 -57.75 L-50.45 -57.75 -50.45 -57.7 -50.5 -57.75" fill="#b3b9c1" fill-rule="evenodd" stroke="none"/>
    <path d="M34.05 -46.2 Q35.4 -49.0 38.7 -49.15 L40.35 -49.1 40.95 -48.95 42.15 -48.5 Q42.15 -48.5 42.25 -48.45 41.6 -45.1 40.25 -41.75 39.65 -40.25 39.2 -38.65 L39.3 -39.4 37.75 -43.05 Q36.85 -44.7 35.2 -45.55 L34.5 -46.15 34.05 -46.2 M38.15 -12.1 L38.35 -11.75 38.4 -11.7 39.9 -9.75 40.35 -9.3 40.5 -9.15 Q41.25 -8.85 42.0 -8.2 40.1 -2.05 34.75 2.75 L33.65 3.65 28.8 6.85 29.15 6.5 33.0 2.45 Q34.8 0.45 35.8 -2.1 36.8 -4.6 37.25 -7.25 L38.15 -12.1 M34.1 5.65 L37.2 3.3 39.85 0.8 Q41.05 11.8 34.9 20.65 L34.35 21.35 33.75 22.0 Q33.7 20.5 34.85 19.15 L35.85 17.8 36.9 15.5 36.95 13.9 36.55 12.2 Q36.05 11.75 36.0 11.05 L35.95 10.8 34.85 8.95 Q32.1 7.9 29.25 8.85 25.7 10.0 22.55 11.95 L21.3 12.75 19.0 14.6 18.75 14.85 18.15 15.3 18.25 15.1 18.3 15.05 18.75 14.6 Q19.8 12.55 21.6 10.75 L22.05 10.5 Q26.5 9.8 30.4 7.8 L31.45 7.25 31.55 7.35 31.65 7.15 31.45 7.25 31.35 7.1 33.05 6.15 33.5 5.95 33.95 5.75 33.95 5.8 34.05 5.7 34.1 5.65 M29.1 27.65 L34.7 23.4 35.1 23.05 Q34.95 30.65 28.45 35.8 L28.45 35.7 Q28.3 34.7 28.95 33.95 31.0 31.35 30.5 28.4 L29.1 27.65 M-7.35 47.0 L-6.85 46.5 -6.75 46.55 -6.8 46.5 Q-7.8 45.55 -8.25 44.2 -9.25 41.45 -8.1 38.75 -5.9 33.55 -0.4 33.15 3.9 32.55 6.05 35.45 L6.45 36.05 6.1 35.45 6.95 34.2 7.65 34.5 8.5 35.65 8.95 36.25 9.05 36.45 9.9 37.55 10.15 37.75 11.2 38.65 14.35 40.25 Q11.3 43.8 7.55 46.95 L7.4 46.95 7.15 47.1 6.6 47.6 Q3.55 50.3 2.4 53.85 L2.1 55.0 2.05 55.2 2.0 55.35 0.1 55.75 -0.1 55.75 -0.5 55.7 -1.7 55.45 -1.8 55.4 -2.0 55.35 Q-2.45 53.1 -3.6 51.2 L-4.35 50.1 -5.0 49.25 -5.15 49.05 -5.5 48.7 -5.9 48.25 -6.6 47.6 -6.8 47.45 -7.35 47.0 M2.35 33.9 L2.35 33.85 1.45 33.75 Q-1.6 33.8 -4.25 35.2 -6.95 36.65 -7.45 39.8 -7.8 42.3 -6.8 44.25 L-6.5 44.35 -6.3 44.95 -5.6 46.4 -5.0 47.3 -4.8 47.55 -4.1 48.25 -3.4 48.6 -3.1 48.7 Q-0.95 49.6 1.5 48.75 5.75 47.15 7.2 43.05 L7.65 40.8 7.6 39.35 6.8 37.5 6.75 37.4 6.45 36.9 6.35 36.7 5.65 35.75 4.75 34.85 3.8 34.3 2.95 33.9 2.35 33.9 M15.55 40.75 L15.65 40.65 22.1 40.45 Q24.8 39.9 27.35 38.55 L27.65 38.35 27.65 38.8 Q27.25 44.55 23.3 48.95 L23.35 48.8 23.55 48.4 23.5 48.2 23.45 46.5 23.05 44.85 Q21.65 42.55 19.1 41.65 L15.55 40.75 M-37.25 -35.0 L-37.95 -34.6 -38.0 -34.6 -38.35 -34.85 -39.05 -38.1 -40.25 -41.75 Q-41.6 -45.1 -42.25 -48.45 L-42.15 -48.5 -41.95 -48.6 -40.9 -48.95 -40.6 -49.05 -39.5 -46.45 -37.45 -39.35 -36.55 -35.35 -37.25 -35.0 M-25.85 3.05 L-25.7 3.4 -23.1 8.8 -22.95 9.1 Q-27.3 8.0 -31.1 5.5 L-27.2 5.75 -26.95 5.6 Q-26.0 4.45 -25.85 3.05 M-36.55 -15.8 Q-35.95 -18.15 -36.1 -20.75 L-36.95 -28.55 -37.15 -30.0 -37.8 -33.6 -37.5 -33.85 -37.05 -34.15 -36.35 -34.5 -35.95 -32.15 -35.2 -27.5 Q-34.7 -23.75 -35.55 -20.15 L-35.6 -18.65 Q-35.4 -17.85 -35.75 -17.1 L-36.25 -15.8 -36.55 -15.8 M-8.0 23.45 Q-5.25 25.0 -2.25 26.0 L-1.9 26.1 Q-1.85 26.8 -2.4 27.25 -3.05 31.0 -6.85 32.7 L-13.7 32.35 Q-10.0 30.3 -8.55 26.4 -8.0 24.95 -8.0 23.45 M-18.35 32.5 Q-14.4 33.75 -10.25 34.65 -11.6 37.85 -14.95 38.9 L-15.85 39.05 -16.75 39.15 -16.2 38.5 Q-15.35 37.6 -15.9 36.45 -16.95 34.35 -18.35 32.5 M-17.5 42.75 L-18.65 41.7 -18.8 40.85 -18.6 40.85 -17.1 40.8 -16.2 40.7 -15.65 40.65 -15.45 40.9 -13.95 42.55 -8.45 47.7 Q-4.6 50.9 -4.15 55.8 -4.2 58.55 -5.3 60.85 L-7.5 60.75 -8.2 60.6 Q-7.6 57.7 -7.55 54.7 -7.55 51.65 -9.25 49.1 -12.2 44.8 -17.1 42.9 L-17.5 42.75" fill="#000033" fill-rule="evenodd" stroke="none"/>
    <path d="M19.25 -16.9 Q19.25 -16.85 19.35 -16.85 L20.6 -16.0 21.1 -15.65 23.6 -13.75 Q25.15 -11.65 25.75 -9.25 L25.8 -9.15 Q26.2 -8.5 26.1 -7.35 L26.1 -7.15 26.1 -7.05 26.3 -6.85 Q26.5 -1.65 24.15 2.5 L19.5 10.9 Q13.45 18.8 4.9 23.35 2.5 24.7 0.1 25.1 L0.0 25.1 -0.1 25.1 Q-2.55 24.7 -4.9 23.35 L-7.75 21.7 -7.65 21.5 -6.1 22.1 -4.1 22.55 0.55 22.5 1.9 22.15 Q6.85 19.85 11.45 16.85 L12.9 15.8 14.3 14.2 Q16.5 11.6 18.05 8.6 18.7 7.25 19.5 5.95 L20.8 3.4 Q21.8 1.0 22.45 -1.5 23.1 -3.65 22.95 -5.9 22.9 -7.55 22.3 -9.05 L21.6 -9.85 21.2 -10.25 Q19.9 -11.25 18.35 -11.65 L18.05 -11.75 16.2 -12.35 14.35 -12.8 14.35 -12.75 14.25 -12.85 13.85 -12.95 12.85 -13.2 12.35 -13.3 12.05 -13.35 11.75 -13.4 8.5 -13.95 8.45 -13.95 7.95 -14.0 6.95 -14.15 0.1 -14.25 -0.1 -14.25 -6.95 -14.15 -7.15 -14.1 -6.2 -12.95 -6.05 -12.7 Q-4.6 -10.9 -3.45 -8.9 -2.65 -7.5 -2.15 -5.95 L-1.95 -5.5 -1.7 -4.4 -1.7 -4.15 -1.5 -3.6 -1.5 -3.25 Q-1.3 -2.5 -1.4 -1.7 L-1.45 -1.6 -1.6 -0.25 Q-1.75 1.9 -2.85 3.8 L-3.5 4.6 Q-4.95 5.75 -6.85 6.3 L-7.4 6.45 -8.55 6.65 -12.25 6.15 -16.65 4.7 -18.7 3.6 -21.65 1.75 -22.4 1.05 -22.8 0.75 -24.45 -0.85 -25.5 -2.1 -25.7 -2.3 -25.75 -2.5 -25.85 -2.8 -26.15 -3.5 -26.65 -4.65 -26.55 -4.7 -26.25 -4.2 Q-24.7 -1.85 -22.5 -0.05 L-21.8 0.5 -21.45 0.75 -21.05 1.05 -20.45 1.4 -18.85 2.4 -16.5 3.7 -11.8 4.3 -9.55 4.2 Q-7.5 3.9 -5.8 2.65 -4.1 1.4 -3.8 -0.6 -3.5 -2.8 -3.5 -5.05 -3.45 -7.45 -4.35 -9.65 L-5.75 -11.55 -5.9 -11.7 -8.1 -14.0 -8.8 -14.7 -9.6 -15.4 -9.7 -15.5 -10.0 -15.75 -12.05 -17.45 -13.0 -18.05 -13.3 -18.25 -15.15 -19.1 -15.55 -19.25 -15.55 -19.45 -14.1 -19.7 -14.0 -19.6 -13.25 -19.1 -12.65 -18.65 Q-11.3 -17.75 -10.05 -16.7 L-9.5 -16.3 -9.1 -15.9 -8.05 -14.95 -7.9 -14.8 -1.05 -15.3 -0.5 -15.3 -0.1 -15.3 0.1 -15.3 2.75 -15.25 2.95 -15.25 6.4 -15.0 7.55 -14.85 8.9 -14.65 12.35 -14.05 12.8 -13.95 13.85 -13.7 14.4 -13.6 14.5 -13.55 14.5 -13.6 15.55 -13.3 Q16.25 -13.05 16.9 -12.95 L18.25 -12.6 20.4 -11.85 21.0 -11.55 21.25 -11.8 21.35 -11.8 21.4 -12.25 Q21.9 -13.55 21.2 -14.75 L21.15 -14.85 21.05 -14.9 21.0 -15.1 Q20.0 -15.85 19.3 -16.8 L19.25 -16.9 M9.35 9.85 L9.1 10.6 Q8.6 11.65 7.6 12.2 L6.4 12.6 4.85 12.5 4.2 12.2 4.9 12.2 4.45 12.1 5.8 11.9 Q7.9 11.1 8.6 9.05 L8.85 7.9 8.85 7.3 8.8 7.2 8.65 6.45 8.5 6.05 8.65 6.0 9.2 6.75 Q9.8 8.3 9.35 9.85 M18.65 -12.3 L18.55 -12.45 18.55 -12.35 Q18.55 -12.35 18.65 -12.3 M56.55 -36.25 Q57.95 -34.95 58.85 -33.0 L59.9 -34.05 61.0 -35.2 61.35 -35.65 62.1 -36.45 62.65 -36.9 62.95 -37.15 63.2 -37.4 63.5 -37.8 63.85 -38.25 64.55 -38.9 64.95 -38.0 65.1 -37.55 65.05 -37.55 64.75 -37.15 64.4 -36.8 64.25 -36.6 63.75 -36.05 62.35 -34.65 60.05 -32.65 59.85 -32.55 59.45 -32.2 59.4 -32.1 59.25 -31.95 59.85 -29.75 60.05 -27.05 60.0 -26.15 59.6 -24.35 59.65 -24.45 59.7 -24.35 Q60.6 -23.65 61.55 -23.65 L61.05 -23.05 60.8 -22.8 58.6 -20.55 57.0 -19.2 56.65 -18.95 56.75 -18.9 56.35 -18.4 55.5 -17.45 Q54.75 -16.7 53.7 -16.55 L54.5 -17.45 54.4 -17.35 54.35 -17.45 53.2 -16.65 53.05 -16.55 52.6 -16.25 51.95 -15.95 51.8 -15.9 Q49.9 -14.85 47.9 -13.9 L47.4 -13.8 47.3 -13.8 46.9 -13.9 46.2 -13.85 46.0 -13.9 45.7 -14.0 Q45.05 -14.3 44.7 -14.75 L44.4 -15.2 Q43.6 -16.55 43.45 -18.05 L43.45 -19.1 43.65 -19.05 44.0 -18.45 Q45.0 -16.95 46.5 -15.9 49.8 -15.5 52.5 -17.25 53.7 -18.05 55.05 -18.25 L54.7 -17.85 56.05 -19.5 57.15 -21.15 57.85 -22.6 Q58.55 -24.25 58.75 -26.0 58.95 -27.95 58.6 -29.8 58.25 -31.45 57.5 -32.95 L56.0 -35.2 54.75 -36.4 54.7 -36.4 54.35 -36.65 53.1 -37.25 52.5 -37.3 51.45 -37.25 49.8 -37.0 Q49.0 -36.85 48.3 -36.35 L47.55 -35.7 47.0 -35.15 46.85 -34.95 45.9 -33.8 45.7 -33.5 45.6 -33.1 45.5 -33.1 45.65 -34.05 Q45.85 -35.45 46.45 -36.65 L47.05 -37.75 47.35 -37.9 47.4 -38.05 47.3 -38.0 47.25 -38.05 48.0 -39.65 48.05 -39.85 Q49.2 -39.05 50.7 -39.45 L51.75 -39.8 52.7 -38.85 52.85 -38.4 52.8 -38.4 53.95 -37.95 55.05 -39.75 55.7 -40.85 57.3 -43.25 58.0 -44.3 58.1 -44.5 58.4 -44.95 58.7 -45.3 58.7 -45.35 59.25 -44.95 59.65 -44.65 59.5 -44.4 59.1 -43.95 59.05 -43.9 58.9 -43.65 58.45 -42.8 57.7 -41.8 57.45 -41.45 56.7 -40.4 55.9 -38.95 55.6 -38.45 55.05 -37.65 54.95 -37.55 54.95 -37.45 55.15 -37.35 56.55 -36.25 M21.6 10.75 L21.85 10.55 22.05 10.5 21.6 10.75 M-7.35 47.0 L-7.45 46.95 -7.55 46.95 Q-11.3 43.8 -14.35 40.25 L-11.1 38.6 -10.4 38.05 -10.3 37.9 -10.05 37.7 -9.3 36.75 -8.8 36.05 -7.7 34.5 Q-1.7 32.25 -0.2 26.4 L0.2 26.4 0.3 26.8 Q0.9 28.9 2.15 30.55 3.9 32.9 6.95 34.2 L6.1 35.45 6.05 35.45 Q3.9 32.55 -0.4 33.15 -5.9 33.55 -8.1 38.75 -9.25 41.45 -8.25 44.2 -7.8 45.55 -6.8 46.5 L-6.85 46.5 -7.35 47.0 M-50.65 -44.55 L-48.9 -41.2 -48.85 -41.1 -47.25 -37.9 -47.0 -37.75 Q-45.9 -36.05 -45.6 -34.05 L-45.4 -32.85 -45.8 -33.5 -45.3 -31.5 -45.25 -31.15 -46.2 -34.1 -46.9 -34.95 -48.4 -36.35 -49.9 -37.0 -50.3 -37.1 -51.55 -37.25 -52.6 -37.3 -53.2 -37.25 Q-54.95 -36.6 -56.1 -35.2 L-56.6 -34.5 -56.65 -34.45 -57.0 -33.9 -57.6 -32.95 -58.5 -30.6 -58.7 -29.8 Q-59.05 -27.95 -58.85 -26.0 -58.65 -24.25 -57.95 -22.6 L-57.25 -21.15 -56.15 -19.5 -55.0 -18.1 -54.2 -17.4 -53.85 -17.05 -54.15 -17.25 -54.45 -17.45 -53.65 -16.55 Q-54.7 -16.7 -55.45 -17.45 L-56.3 -18.4 -56.75 -18.95 -58.7 -20.55 -60.9 -22.8 -61.05 -23.0 -62.0 -24.1 -62.7 -25.0 -62.95 -25.3 Q-61.95 -24.9 -60.9 -24.65 -60.35 -24.55 -59.9 -24.9 L-59.85 -24.9 -60.15 -27.05 -59.95 -29.75 -59.3 -31.95 -59.45 -32.1 -59.55 -32.2 -59.95 -32.55 -60.65 -33.1 -62.45 -34.65 -63.35 -35.6 -64.05 -36.3 -64.1 -36.35 -64.5 -36.8 -65.0 -37.4 -65.1 -37.55 -65.05 -37.65 -65.0 -37.85 -64.9 -38.1 -64.7 -38.55 -64.6 -38.7 -64.7 -38.8 -64.65 -38.9 Q-64.05 -38.45 -63.6 -37.8 L-63.05 -37.15 -62.75 -36.9 -62.2 -36.45 -62.1 -36.35 -62.0 -36.2 -61.45 -35.65 -61.1 -35.2 -60.0 -34.05 -58.9 -33.0 Q-57.65 -36.0 -55.0 -37.45 L-55.05 -37.55 -55.7 -38.45 -56.0 -38.95 -57.55 -41.45 -57.8 -41.8 -57.85 -41.9 -59.0 -43.65 -59.15 -43.9 -60.05 -45.05 -59.5 -44.75 -58.85 -45.25 -58.75 -45.3 -58.3 -44.7 -58.2 -44.5 -57.4 -43.25 -57.05 -42.75 -55.8 -40.85 -55.15 -39.75 -54.0 -37.95 -52.9 -38.4 -51.75 -38.7 Q-50.4 -40.0 -49.85 -41.7 L-50.65 -44.55 M-44.5 -26.1 Q-43.95 -24.3 -43.7 -22.45 -43.5 -21.05 -43.55 -19.65 L-43.55 -19.45 -43.55 -18.05 Q-43.7 -16.55 -44.5 -15.2 -44.9 -14.4 -45.8 -14.0 L-47.0 -13.9 Q-47.45 -13.7 -47.95 -13.9 L-48.45 -14.15 -51.35 -15.6 -51.75 -15.85 -51.6 -15.8 Q-49.55 -15.3 -47.6 -16.25 -46.65 -16.75 -46.2 -17.7 -44.2 -21.55 -44.5 -26.1 M-19.6 -20.7 L-19.15 -20.7 -19.9 -20.7 -19.6 -20.8 -19.6 -20.7 M-18.65 41.7 L-20.0 40.75 -18.8 40.85 -18.65 41.7" fill="#333366" fill-rule="evenodd" stroke="none"/>
    <path d="M59.75 -44.75 L60.8 -44.95 Q62.75 -44.35 62.0 -42.3 L61.5 -41.2 Q60.0 -38.95 57.5 -39.45 L56.95 -39.85 56.7 -40.4 57.45 -41.45 57.7 -41.8 58.45 -42.8 58.9 -43.65 59.05 -43.9 59.1 -43.95 59.5 -44.4 59.65 -44.65 59.75 -44.75 M64.25 -36.6 Q65.7 -36.2 65.4 -34.3 65.15 -33.0 64.05 -32.1 63.0 -31.35 61.85 -31.25 59.95 -31.1 60.05 -32.65 L62.35 -34.65 63.75 -36.05 64.25 -36.6 M52.75 -47.05 L53.15 -47.05 53.4 -47.05 53.65 -47.05 Q55.65 -46.35 54.6 -44.4 54.2 -43.65 53.6 -43.05 51.8 -41.4 49.85 -42.75 L49.65 -42.95 51.05 -45.35 51.1 -45.4 51.9 -46.55 52.15 -46.9 52.75 -47.05 M45.6 -33.1 L45.7 -33.5 45.9 -33.8 46.85 -34.95 47.0 -35.15 47.55 -35.7 48.2 -36.25 48.95 -36.45 Q52.7 -36.7 52.75 -33.2 52.8 -29.8 49.65 -28.35 48.85 -28.0 48.05 -27.75 46.15 -27.1 44.7 -28.3 L45.15 -31.15 45.25 -31.5 45.6 -33.1 M-4.45 40.3 Q-5.3 40.0 -5.9 38.8 -6.35 37.8 -5.75 36.85 -5.05 35.8 -3.95 35.35 -1.9 35.3 -1.4 36.55 L-1.45 36.55 -1.45 36.6 -2.2 37.0 -2.65 37.15 Q-4.25 38.45 -4.45 40.3 M-0.4 37.35 Q1.4 37.2 2.25 38.75 L2.6 39.6 Q3.0 41.25 1.35 42.5 L1.0 42.9 Q-0.15 43.55 -1.1 43.55 -2.5 43.5 -3.35 41.9 L-3.7 40.7 -3.7 40.65 -3.6 40.35 -3.55 40.2 -2.45 38.55 -1.2 37.65 -0.65 37.4 -0.4 37.35 M-66.0 -31.75 L-66.0 -32.25 -65.85 -33.4 -65.85 -33.6 -65.85 -33.85 -65.8 -34.35 -65.8 -34.55 -65.4 -36.7 -64.1 -36.35 -64.05 -36.3 -63.35 -35.6 Q-63.1 -35.05 -63.1 -34.25 -63.05 -31.75 -65.6 -31.75 L-66.0 -31.75 M-65.4 -40.3 L-65.5 -41.2 Q-65.5 -42.45 -64.7 -43.45 L-64.0 -44.25 -63.05 -44.95 Q-61.1 -44.6 -61.35 -42.35 -61.65 -39.6 -64.45 -39.25 L-64.8 -39.2 -64.95 -39.7 -65.4 -40.3 M-57.45 -46.1 L-55.95 -46.45 -55.9 -46.45 Q-53.5 -45.8 -54.7 -43.65 -55.6 -42.0 -57.05 -42.75 L-57.4 -43.25 -58.2 -44.5 -58.3 -44.7 -58.05 -45.4 -57.45 -46.05 -57.45 -46.1 M-56.6 -34.5 Q-55.45 -35.55 -53.95 -35.75 -51.05 -35.9 -50.75 -33.25 -50.55 -31.15 -52.05 -29.5 -53.4 -27.95 -55.35 -27.45 L-57.1 -27.4 Q-57.95 -27.6 -58.2 -28.4 -58.6 -29.55 -58.5 -30.6 L-57.6 -32.95 -57.0 -33.9 -56.65 -34.45 -56.6 -34.5 M-24.8 -14.15 Q-24.0 -15.7 -22.75 -16.9 L-20.9 -18.4 -20.6 -18.5 -19.75 -18.6 Q-18.45 -18.4 -17.65 -17.85 -15.75 -16.6 -17.0 -13.5 L-17.25 -12.8 -17.75 -11.85 Q-19.25 -9.15 -21.65 -7.2 -23.2 -6.05 -24.5 -7.55 L-24.8 -7.95 -25.45 -9.2 -25.6 -9.75 Q-26.0 -11.3 -25.25 -13.15 L-24.8 -14.15 M-7.25 -20.5 Q-4.95 -20.95 -3.25 -19.45 L-2.5 -18.4 Q-2.25 -17.85 -2.75 -17.4 -3.4 -16.8 -4.3 -16.65 L-5.45 -16.5 -8.7 -16.6 Q-10.35 -16.95 -10.0 -18.45 -9.9 -19.1 -9.4 -19.55 -8.45 -20.4 -7.25 -20.5" fill="#a0accf" fill-rule="evenodd" stroke="none"/>
    <path d="M45.5 -33.1 L45.6 -33.1 45.45 -32.85 45.5 -33.1 M56.75 -18.9 L56.65 -18.95 57.0 -19.2 56.75 -18.9 M11.05 8.75 L11.1 8.8 11.1 8.85 11.05 8.75 M-64.7 -38.8 L-64.9 -39.05 -65.1 -39.4 -65.25 -39.85 -65.4 -40.3 -64.95 -39.7 -64.8 -39.2 -64.65 -38.9 -64.7 -38.8" fill="#465784" fill-rule="evenodd" stroke="none"/>
    <path d="M39.2 -38.65 L38.5 -35.65 38.35 -34.85 38.0 -34.6 37.65 -34.8 37.05 -35.1 37.05 -35.15 36.1 -35.55 33.5 -36.15 32.75 -36.2 33.45 -36.15 34.6 -35.65 35.55 -35.0 35.85 -34.85 36.75 -34.3 36.95 -34.2 37.8 -33.6 37.65 -32.85 Q36.55 -27.15 36.1 -20.75 35.95 -18.8 36.3 -17.0 L36.75 -15.05 37.45 -13.3 38.15 -12.1 37.25 -7.25 Q36.8 -4.6 35.8 -2.1 34.8 0.45 33.0 2.45 L29.15 6.5 28.8 6.85 Q26.0 8.3 22.9 9.1 24.85 5.7 26.25 1.95 L28.75 1.65 Q34.05 0.05 35.1 -5.75 35.95 -6.7 36.25 -7.9 L36.45 -9.35 Q36.3 -12.05 34.9 -13.7 33.3 -15.65 30.2 -16.25 L30.15 -16.25 30.15 -16.2 Q28.75 -16.15 27.6 -15.55 L25.05 -13.9 25.35 -13.6 22.35 -16.4 Q28.25 -23.45 31.0 -31.7 L31.7 -33.9 31.8 -34.3 32.0 -35.2 32.15 -35.25 32.45 -36.4 32.6 -36.4 32.6 -36.35 32.65 -36.75 33.1 -39.6 33.25 -40.9 33.6 -43.1 33.75 -44.45 34.0 -46.05 34.05 -46.2 34.5 -46.15 35.2 -45.55 Q36.85 -44.7 37.75 -43.05 L39.3 -39.4 39.2 -38.65 M27.65 -47.3 L30.2 -46.35 31.7 -45.3 31.4 -44.55 31.3 -44.0 31.2 -43.5 31.05 -42.75 30.95 -41.6 30.6 -41.45 30.6 -41.15 30.7 -40.9 29.9 -41.3 Q25.15 -43.55 19.65 -45.0 L19.75 -45.25 19.95 -45.95 20.0 -46.25 19.85 -47.0 22.95 -47.95 23.35 -48.0 27.5 -47.35 27.55 -47.25 27.65 -47.3 M33.75 22.0 Q30.7 25.25 26.8 27.35 26.35 28.05 25.4 28.0 L25.3 28.0 25.25 28.05 Q18.6 32.2 10.65 32.7 L10.25 32.7 9.1 32.75 8.6 32.75 8.15 32.75 7.8 32.75 7.6 32.75 7.4 32.75 6.85 32.7 6.6 32.6 6.3 32.45 5.6 32.05 4.95 31.6 5.0 31.6 Q2.85 29.95 2.4 27.25 1.85 26.8 1.9 26.1 L3.55 25.55 3.9 25.4 6.65 23.95 Q6.15 26.1 7.45 27.75 9.4 30.2 12.95 29.05 17.45 27.65 20.45 23.95 22.4 21.6 21.15 19.0 19.85 16.45 17.1 16.4 L18.0 15.4 18.05 15.45 18.15 15.3 18.75 14.85 19.0 14.6 21.3 12.75 22.55 11.95 Q25.7 10.0 29.25 8.85 32.1 7.9 34.85 8.95 L35.95 10.8 36.0 11.05 Q36.05 11.75 36.55 12.2 L36.95 13.9 36.9 15.5 35.85 17.8 34.85 19.15 Q33.7 20.5 33.75 22.0 M28.45 35.8 L28.05 36.1 Q23.85 39.1 18.95 39.25 L14.95 38.9 13.2 38.15 12.0 37.2 11.6 36.8 10.5 35.15 10.3 34.75 10.35 34.6 12.35 34.15 12.35 34.4 Q12.55 38.9 17.55 38.6 20.95 38.4 23.75 36.65 26.3 34.9 26.45 32.0 26.5 31.1 25.9 30.5 L25.15 29.9 28.55 28.05 28.75 27.95 29.1 27.65 30.5 28.4 Q31.0 31.35 28.95 33.95 28.3 34.7 28.45 35.7 L28.45 35.8 M14.0 42.5 L15.55 40.75 19.1 41.65 Q21.65 42.55 23.05 44.85 L23.45 46.5 23.5 48.2 23.55 48.4 23.35 48.8 23.3 48.95 22.05 50.25 Q16.8 55.25 11.2 59.35 9.2 60.55 6.95 60.8 L5.3 60.85 Q4.2 58.55 4.15 55.8 L4.2 55.55 4.2 55.35 Q4.6 52.0 6.7 49.45 6.65 50.8 7.15 52.35 7.4 53.15 8.2 53.35 12.25 54.5 16.1 51.75 L17.05 50.8 18.75 48.75 Q19.9 47.6 20.0 46.0 20.25 42.6 17.0 41.9 L14.0 42.5 M-40.6 -49.05 L-38.7 -49.15 Q-37.15 -49.05 -36.0 -48.4 L-35.95 -48.35 -35.65 -48.15 -35.3 -47.9 -35.3 -47.85 Q-34.5 -47.15 -34.0 -46.05 L-33.9 -45.5 -33.75 -44.35 -33.4 -41.8 -33.35 -41.35 -32.65 -36.9 Q-32.25 -36.35 -32.1 -35.5 L-32.05 -35.25 -32.0 -35.2 -31.1 -31.95 -31.05 -31.8 Q-28.95 -25.35 -24.85 -19.65 L-26.15 -18.6 -27.75 -16.4 -28.65 -14.3 -29.2 -11.8 Q-31.65 -14.8 -36.2 -15.8 L-36.25 -15.8 -35.75 -17.1 Q-35.4 -17.85 -35.6 -18.65 L-35.55 -20.15 Q-34.7 -23.75 -35.2 -27.5 L-35.95 -32.15 -36.35 -34.5 -35.9 -34.8 -35.8 -34.85 -35.7 -34.9 -35.1 -35.3 -34.65 -35.55 -33.35 -36.15 -34.6 -35.95 -34.7 -35.95 -35.3 -35.8 -37.25 -35.0 -36.55 -35.35 -37.45 -39.35 -39.5 -46.45 -40.6 -49.05 M-27.35 -1.45 L-25.85 3.05 Q-26.0 4.45 -26.95 5.6 L-27.2 5.75 -31.1 5.5 Q-33.0 4.3 -34.75 2.75 -38.05 -0.2 -40.05 -3.65 L-40.55 -4.5 -40.95 -5.4 -41.4 -6.45 -41.45 -6.5 -41.6 -6.95 -41.75 -7.3 -41.8 -7.5 -41.9 -7.75 -41.95 -7.85 -42.0 -8.0 -42.05 -8.2 Q-41.3 -8.85 -40.5 -9.15 L-40.45 -9.2 Q-40.35 -6.0 -38.35 -2.95 -36.25 0.2 -32.95 0.95 -28.85 1.95 -27.35 -1.4 L-27.35 -1.45 M-20.9 -47.45 L-19.3 -46.9 -19.3 -46.8 -19.2 -46.55 -19.25 -46.2 -19.3 -45.9 Q-25.6 -44.65 -31.05 -42.4 L-31.05 -42.75 -31.2 -43.5 -31.3 -44.0 -31.4 -44.55 -31.9 -45.75 -31.0 -46.25 Q-30.5 -46.55 -29.95 -46.8 L-25.6 -48.1 -25.2 -48.15 -21.05 -47.5 -21.0 -47.4 -20.9 -47.45 M-33.9 5.7 Q-32.35 6.4 -30.8 7.45 L-30.1 7.95 -30.65 7.7 -28.5 8.7 -24.6 10.0 -21.85 10.55 -21.5 10.9 -21.25 11.2 -21.15 11.3 -20.25 12.35 -20.2 12.4 -20.0 12.7 -19.7 13.1 -18.85 14.45 Q-17.8 14.95 -17.6 15.85 L-17.55 15.9 -17.4 16.1 Q-13.15 20.65 -8.0 23.45 -8.0 24.95 -8.55 26.4 -10.0 30.3 -13.7 32.35 -19.9 31.4 -25.2 28.1 L-25.25 28.05 -25.3 28.0 -25.3 28.2 -25.8 28.0 -25.8 27.95 -25.9 27.9 -26.2 27.65 -26.6 27.3 -26.6 27.45 -27.8 26.8 -30.55 24.9 -31.15 24.45 -31.7 24.0 -31.7 23.95 -34.0 21.75 -34.3 21.45 -34.7 20.95 -34.8 20.8 -34.95 20.65 Q-36.5 18.45 -37.55 16.1 L-38.1 14.85 -38.95 12.35 -39.75 8.8 -39.9 7.35 -39.95 7.15 -40.0 2.45 -40.0 2.25 -39.85 0.8 -39.05 1.6 -35.55 4.6 -34.95 5.05 -34.35 5.5 -33.95 5.8 -33.9 5.7 M-18.9 15.25 L-18.9 15.35 -18.6 15.2 -18.9 15.25 M-35.65 7.0 Q-36.45 6.95 -37.2 7.55 L-37.5 7.95 Q-38.45 11.1 -37.15 14.3 -35.6 18.3 -32.15 21.2 -30.15 22.85 -27.55 22.55 -23.95 22.15 -24.65 18.3 -25.5 13.75 -28.9 10.35 -29.85 9.4 -30.9 8.75 -33.05 7.35 -35.65 7.0 M-35.05 23.8 L-35.05 23.5 -34.75 23.4 -32.3 25.45 -32.1 25.65 -32.05 25.65 -31.4 26.15 -31.95 26.3 -32.7 26.85 Q-33.95 29.75 -31.8 32.15 -30.85 33.2 -30.05 34.35 L-29.9 34.6 Q-34.2 30.5 -34.95 25.1 L-35.05 24.2 -35.05 24.1 -35.05 24.0 -35.05 23.8 M-24.1 30.35 L-23.45 30.65 -18.35 32.5 Q-16.95 34.35 -15.9 36.45 -15.35 37.6 -16.2 38.5 L-16.75 39.15 Q-20.6 39.5 -24.0 38.25 L-24.2 38.05 -24.35 38.15 -24.5 38.1 -26.45 37.1 -26.45 37.15 -27.0 36.8 -23.7 36.9 Q-22.1 35.55 -22.55 33.5 -23.0 31.55 -24.1 30.35 M-26.45 25.05 L-26.45 25.0 -26.6 24.95 -26.6 25.0 -26.45 25.05 M-19.0 53.05 Q-17.15 53.85 -15.15 53.05 -14.35 52.4 -14.15 51.5 -13.6 48.9 -14.75 46.65 -15.9 44.35 -17.5 42.75 L-17.1 42.9 Q-12.2 44.8 -9.25 49.1 -7.55 51.65 -7.55 54.7 -7.6 57.7 -8.2 60.6 L-7.5 60.75 Q-9.45 60.4 -11.2 59.35 L-18.0 53.95 -18.25 53.65 -18.25 53.7 -19.0 53.05" fill="#333384" fill-rule="evenodd" stroke="none"/>
    <path d="M18.05 -39.7 L18.2 -39.75 18.25 -39.75 18.25 -39.7 18.25 -39.65 Q18.2 -38.85 18.65 -38.55 L18.55 -38.15 18.5 -37.95 18.5 -37.9 Q18.05 -38.8 18.05 -39.7 M-19.2 -42.75 L-19.2 -43.2 -18.75 -42.2 -18.75 -42.15 -18.85 -41.8 -19.0 -41.85 -19.2 -42.75" fill="#23252e" fill-rule="evenodd" stroke="none"/>
    <path d="M19.65 -45.0 L19.2 -43.75 19.6 -45.0 19.7 -45.45 19.75 -45.25 19.65 -45.0 M27.5 -47.35 L27.55 -47.3 27.65 -47.3 27.55 -47.25 27.5 -47.35 M-21.05 -47.5 L-21.0 -47.45 -20.9 -47.45 -21.0 -47.4 -21.05 -47.5" fill="#5e6777" fill-rule="evenodd" stroke="none"/>
    <path d="M26.25 1.95 L27.35 -1.45 27.6 -2.25 27.9 -4.05 27.95 -4.6 27.8 -8.5 27.75 -8.8 27.5 -9.85 26.45 -12.6 25.75 -13.25 25.55 -13.45 25.35 -13.6 25.05 -13.9 27.6 -15.55 Q28.75 -16.15 30.15 -16.2 L30.2 -16.25 Q33.3 -15.65 34.9 -13.7 36.3 -12.05 36.45 -9.35 L36.25 -7.9 Q35.95 -6.7 35.1 -5.75 34.05 0.05 28.75 1.65 L26.25 1.95 M6.65 23.95 L10.5 21.95 Q13.05 20.25 15.4 18.05 L17.1 16.4 Q19.85 16.45 21.15 19.0 22.4 21.6 20.45 23.95 17.45 27.65 12.95 29.05 9.4 30.2 7.45 27.75 6.15 26.1 6.65 23.95 M12.35 34.15 L19.75 32.0 23.45 30.65 25.15 29.9 25.9 30.5 Q26.5 31.1 26.45 32.0 26.3 34.9 23.75 36.65 20.95 38.4 17.55 38.6 12.55 38.9 12.35 34.4 L12.35 34.15 M6.7 49.45 L6.7 49.4 7.3 48.75 8.45 47.7 13.15 43.4 13.55 42.95 13.95 42.5 14.0 42.5 17.0 41.9 Q20.25 42.6 20.0 46.0 19.9 47.6 18.75 48.75 L17.05 50.8 16.1 51.75 Q12.25 54.5 8.2 53.35 7.4 53.15 7.15 52.35 6.65 50.8 6.7 49.45 M-29.2 -11.8 L-29.4 -8.55 Q-29.3 -6.15 -28.5 -3.8 -28.2 -2.85 -27.55 -2.15 L-27.35 -1.45 -27.35 -1.4 Q-28.85 1.95 -32.95 0.95 -36.25 0.2 -38.35 -2.95 -40.35 -6.0 -40.45 -9.2 -38.65 -11.05 -37.55 -13.1 L-37.25 -13.8 -36.55 -15.8 -36.25 -15.8 -36.2 -15.8 Q-31.65 -14.8 -29.2 -11.8 M-35.65 7.0 Q-33.05 7.35 -30.9 8.75 -29.85 9.4 -28.9 10.35 -25.5 13.75 -24.65 18.3 -23.95 22.15 -27.55 22.55 -30.15 22.85 -32.15 21.2 -35.6 18.3 -37.15 14.3 -38.45 11.1 -37.5 7.95 L-37.2 7.55 Q-36.45 6.95 -35.65 7.0 M-31.1 9.9 L-31.25 10.0 -31.05 9.9 -31.1 9.9 M-30.4 9.55 L-30.35 9.55 -30.9 8.75 -30.4 9.55 M-35.25 14.75 L-35.2 15.25 -35.2 14.8 -35.2 14.7 -35.25 14.75 M-29.9 34.6 L-30.05 34.35 Q-30.85 33.2 -31.8 32.15 -33.95 29.75 -32.7 26.85 L-31.95 26.3 -31.4 26.15 -30.7 26.65 -30.15 27.05 -28.45 28.15 -28.05 28.35 -27.7 28.55 -25.05 29.95 -24.6 30.15 -24.55 30.15 -24.1 30.35 Q-23.0 31.55 -22.55 33.5 -22.1 35.55 -23.7 36.9 L-27.0 36.8 -27.2 36.65 -27.95 36.15 -28.0 36.15 -28.05 36.1 -28.1 36.1 -29.05 35.35 -29.85 34.6 -29.9 34.6 M-25.9 39.25 L-25.65 39.35 -25.1 39.6 -24.35 39.85 -24.25 39.9 -21.0 40.65 -20.0 40.75 -18.65 41.7 -17.5 42.75 Q-15.9 44.35 -14.75 46.65 -13.6 48.9 -14.15 51.5 -14.35 52.4 -15.15 53.05 -17.15 53.85 -19.0 53.05 L-20.9 51.3 -20.9 51.35 -21.5 50.8 -22.05 50.25 -22.2 50.1 -22.35 49.95 -23.2 49.05 -23.3 48.95 -24.0 48.15 -24.35 47.7 Q-25.55 46.05 -26.35 44.25 L-26.65 43.4 Q-27.05 41.85 -26.75 40.2 L-26.3 39.5 -25.9 39.25" fill="#46579f" fill-rule="evenodd" stroke="none"/>
    <path d="M10.05 -7.7 Q9.4 -7.25 9.3 -6.6 9.25 -6.3 9.35 -5.95 L9.4 -5.75 Q9.5 -5.45 9.8 -5.3 10.75 -4.7 11.7 -5.3 L12.05 -5.75 12.35 -7.1 12.05 -7.75 11.5 -8.1 11.0 -8.1 10.9 -8.1 10.05 -7.7 M14.1 -8.7 L14.55 -7.8 14.65 -7.0 Q14.45 -4.6 12.5 -3.25 10.85 -2.2 9.25 -2.55 L9.15 -2.55 8.7 -2.6 Q8.15 -3.75 8.4 -5.2 8.65 -7.05 10.25 -7.9 L11.4 -8.4 12.1 -8.6 13.55 -8.75 14.1 -8.7 M6.2 4.45 Q6.7 5.0 6.65 5.9 6.5 7.95 4.8 9.05 3.4 10.0 1.95 9.75 L1.6 9.65 1.3 8.65 1.3 7.45 Q1.5 6.0 2.6 5.3 L2.4 5.6 2.25 6.15 Q2.05 7.5 3.35 7.85 4.4 8.15 5.1 7.25 6.0 6.05 5.0 5.05 4.6 4.65 4.1 4.6 L4.5 4.55 5.75 4.35 6.2 4.45 M-13.5 -8.35 L-14.3 -8.3 -15.35 -7.8 Q-16.2 -7.25 -16.3 -6.4 L-16.15 -5.3 -15.7 -4.7 Q-14.45 -3.95 -13.25 -4.7 L-12.75 -5.3 Q-12.45 -6.15 -12.4 -7.05 L-12.75 -7.9 -13.5 -8.35 M-17.05 -1.3 Q-17.8 -2.75 -17.5 -4.6 -17.15 -7.0 -15.1 -8.1 L-12.7 -8.95 -10.85 -9.15 -10.15 -9.05 Q-9.7 -8.6 -9.55 -7.95 L-9.5 -7.55 -9.45 -6.9 Q-9.7 -3.85 -12.25 -2.1 L-13.4 -1.45 -16.45 -1.2 -16.55 -1.2 -17.05 -1.3" fill="#00ff00" fill-rule="evenodd" stroke="none"/>
    <path d="M10.05 -7.7 L10.9 -8.1 11.0 -8.1 11.5 -8.1 12.05 -7.75 12.35 -7.1 12.05 -5.75 11.7 -5.3 Q10.75 -4.7 9.8 -5.3 9.5 -5.45 9.4 -5.75 L9.35 -5.95 Q9.25 -6.3 9.3 -6.6 9.4 -7.25 10.05 -7.7 M4.1 4.6 Q4.6 4.65 5.0 5.05 6.0 6.05 5.1 7.25 4.4 8.15 3.35 7.85 2.05 7.5 2.25 6.15 L2.4 5.6 2.6 5.3 2.6 5.25 2.8 5.15 2.9 5.1 3.0 5.05 Q3.55 4.75 4.1 4.6 M-13.5 -8.35 L-12.75 -7.9 -12.4 -7.05 Q-12.45 -6.15 -12.75 -5.3 L-13.25 -4.7 Q-14.45 -3.95 -15.7 -4.7 L-16.15 -5.3 -16.3 -6.4 Q-16.2 -7.25 -15.35 -7.8 L-14.3 -8.3 -13.5 -8.35" fill="#ffffcc" fill-rule="evenodd" stroke="none"/>
    <path d="M8.7 -2.6 L9.15 -2.55 9.25 -2.55 Q10.85 -2.2 12.5 -3.25 14.45 -4.6 14.65 -7.0 L14.55 -7.8 14.1 -8.7 15.2 -8.2 15.55 -7.9 15.95 -7.35 16.5 -6.3 Q16.9 -5.15 16.7 -3.75 16.4 -2.4 15.45 -1.4 L15.1 -1.25 14.55 -0.95 11.1 -0.85 10.95 -0.85 10.55 -0.9 Q10.3 -0.95 10.15 -1.1 L9.0 -2.2 8.7 -2.6 M1.6 9.65 L1.95 9.75 Q3.4 10.0 4.8 9.05 6.5 7.95 6.65 5.9 6.7 5.0 6.2 4.45 L7.15 4.9 7.45 5.15 Q8.7 6.6 8.4 8.7 L8.2 9.4 7.35 10.7 7.05 10.8 Q5.4 11.9 3.6 11.2 L3.5 11.15 3.15 11.1 2.8 10.95 1.8 10.0 1.6 9.65 M-10.15 -9.05 L-9.2 -8.75 -8.75 -8.45 -8.3 -8.05 Q-6.4 -5.8 -6.85 -2.7 -7.2 -1.0 -8.45 0.3 L-8.85 0.45 Q-11.3 2.1 -14.0 1.0 L-14.2 0.95 -14.7 0.9 -15.2 0.7 -16.0 0.05 -16.7 -0.75 -17.05 -1.3 -16.55 -1.2 -16.45 -1.2 -13.4 -1.45 -12.25 -2.1 Q-9.7 -3.85 -9.45 -6.9 L-9.5 -7.55 -9.55 -7.95 Q-9.7 -8.6 -10.15 -9.05" fill="#006600" fill-rule="evenodd" stroke="none"/>
    <path d="M33.5 -36.15 L33.45 -36.15 32.75 -36.2 33.5 -36.15 M30.4 7.8 L31.3 7.1 31.45 7.25 30.4 7.8 M-34.35 5.5 L-33.9 5.7 -33.95 5.8 -34.35 5.5 M-18.9 15.25 L-18.6 15.2 -18.9 15.35 -18.9 15.25" fill="#383d47" fill-rule="evenodd" stroke="none"/>
    <path d="M32.45 -36.4 L32.65 -36.75 32.6 -36.35 32.6 -36.4 32.45 -36.4 M18.05 -39.7 Q17.95 -40.75 18.45 -41.75 L18.65 -42.2 18.25 -41.1 Q18.05 -40.35 18.25 -39.75 L18.2 -39.75 18.05 -39.7 M-25.2 28.1 L-24.85 28.35 -25.8 28.0 -25.3 28.2 -25.3 28.0 -25.25 28.05 -25.2 28.1" fill="#414652" fill-rule="evenodd" stroke="none"/>
    <path d="M5.55 -37.85 L5.3 -38.25 5.05 -38.75 Q4.55 -39.95 5.5 -40.75 L5.65 -40.75 5.7 -40.75 Q6.55 -40.7 6.65 -39.75 L6.8 -38.9 Q7.05 -37.85 6.25 -37.7 L6.15 -37.65 6.1 -37.7 Q5.75 -37.7 5.55 -37.85" fill="#5f2407" fill-rule="evenodd" stroke="none"/>
    <path d="M18.65 -12.3 Q18.55 -12.35 18.55 -12.35 L18.55 -12.45 18.65 -12.3 M-34.8 20.8 L-34.85 20.75 -34.95 20.65 -34.8 20.8 M-24.0 38.25 L-24.35 38.15 -24.2 38.05 -24.0 38.25" fill="#707b9f" fill-rule="evenodd" stroke="none"/>
    <path d="M30.2 -16.25 L30.15 -16.2 30.15 -16.25 30.2 -16.25" fill="#576080" fill-rule="evenodd" stroke="none"/>
    <path d="M53.05 -16.55 L53.2 -16.65 53.25 -16.6 52.75 -16.25 53.05 -16.55" fill="#b3b9ce" fill-rule="evenodd" stroke="none"/>
    <path d="M31.45 7.25 L31.65 7.15 31.55 7.35 31.45 7.25 M-30.4 9.55 L-30.9 8.75 -30.35 9.55 -30.4 9.55" fill="#3e6247" fill-rule="evenodd" stroke="none"/>
    <path d="M10.5 35.15 L10.25 34.65 10.35 34.6 10.3 34.75 10.5 35.15 M-35.25 14.75 L-35.2 14.7 -35.2 14.8 -35.2 15.25 -35.25 14.75 M-34.75 23.4 L-35.05 23.5 -35.05 23.8 -35.1 23.05 -34.75 23.4" fill="#5e6781" fill-rule="evenodd" stroke="none"/>
    <path d="M-12.9 17.9 L-13.35 17.55 -13.4 17.5 -13.35 17.5 -12.85 17.8 -12.9 17.9" fill="#5e6799" fill-rule="evenodd" stroke="none"/>
    <path d="M-25.9 39.25 L-26.3 39.5 -26.75 40.2 Q-27.05 41.85 -26.65 43.4 L-26.35 44.25 Q-27.55 41.5 -27.65 38.35 L-25.9 39.25" fill="#3c4764" fill-rule="evenodd" stroke="none"/>
    <path d="M-0.45 37.3 L-0.4 37.35 -0.65 37.4 -0.45 37.3 M-3.7 40.7 L-3.75 40.7 -3.6 40.35 -3.55 40.2 -3.6 40.35 -3.7 40.65 -3.7 40.7" fill="#ff6600" fill-rule="evenodd" stroke="none"/>
    <path d="M-18.0 53.95 L-18.25 53.7 -18.25 53.65 -18.0 53.95" fill="#568763" fill-rule="evenodd" stroke="none"/>
  </g>
</svg>
