<?xml version="1.0" encoding="UTF-8" standalone="no"?>
<svg xmlns:xlink="http://www.w3.org/1999/xlink" height="137.4px" width="106.1px" xmlns="http://www.w3.org/2000/svg">
  <g transform="matrix(1.0, 0.0, 0.0, 1.0, 53.05, 68.7)">
    <path d="M-20.0 33.9 L-20.0 33.85 -20.1 33.45 -20.35 32.45 -20.85 28.7 -20.85 28.25 Q-21.2 26.0 -20.65 23.8 -20.2 22.15 -19.1 20.85 L-20.7 19.6 -22.7 17.05 -23.15 16.4 -24.4 14.5 -25.55 12.65 -26.05 13.7 -26.25 14.2 Q-26.75 15.2 -27.65 16.0 -29.4 17.45 -31.3 18.25 L-33.9 18.95 -40.0 18.75 -42.15 18.15 -43.45 17.5 -44.0 17.2 -44.05 17.2 Q-46.4 15.75 -47.9 13.5 L-48.85 11.8 -49.15 10.7 -49.25 10.35 -49.3 9.65 -50.0 9.15 Q-51.2 8.3 -51.7 6.95 L-52.05 6.1 Q-52.9 3.95 -53.0 1.7 -53.2 -0.6 -52.8 -2.8 -52.5 -4.75 -51.7 -6.5 L-50.75 -8.05 -50.55 -8.15 -50.55 -8.25 Q-50.5 -9.9 -49.4 -11.1 L-49.25 -11.1 -49.85 -12.2 -50.4 -13.7 Q-50.85 -15.1 -50.75 -16.55 -50.6 -19.0 -49.95 -21.25 L-49.65 -22.3 -49.5 -22.6 -48.2 -24.9 -46.05 -27.55 -45.45 -28.0 -42.05 -30.4 Q-41.25 -30.85 -40.3 -31.1 L-37.0 -31.9 -36.7 -31.9 -35.8 -31.85 -35.65 -31.8 Q-34.35 -31.5 -33.15 -30.85 -31.45 -29.85 -30.1 -28.5 L-29.5 -27.8 -29.35 -28.2 -29.25 -28.45 -29.15 -28.8 -29.05 -28.95 -28.25 -30.55 -27.9 -31.05 -27.8 -31.2 -27.05 -32.5 -27.0 -32.55 -26.85 -32.8 -25.85 -34.05 -23.3 -36.55 -20.2 -38.75 Q-16.35 -41.05 -12.05 -42.25 L-12.05 -43.75 -13.95 -46.9 Q-14.85 -48.6 -13.85 -50.5 -16.05 -52.8 -16.15 -56.25 -15.9 -58.75 -14.85 -61.05 -13.8 -63.35 -11.5 -64.35 -9.6 -65.1 -7.9 -64.7 -7.4 -66.05 -6.1 -66.55 -4.85 -67.05 -4.0 -67.9 L-2.95 -67.75 -1.8 -67.8 -1.7 -68.7 Q-1.15 -67.8 -0.1 -67.85 L1.9 -67.7 2.35 -68.5 Q2.0 -67.35 3.15 -67.3 4.3 -67.35 5.0 -66.75 L5.55 -67.55 Q5.75 -67.2 5.2 -66.75 7.75 -65.8 9.8 -63.8 L10.75 -65.05 Q10.95 -64.8 10.6 -64.4 10.2 -64.05 10.15 -63.55 L11.2 -61.95 Q12.55 -61.9 13.7 -61.0 15.9 -58.15 16.45 -54.2 16.95 -50.35 15.8 -46.65 14.9 -43.9 12.5 -41.75 15.85 -40.6 19.0 -38.75 L22.1 -36.55 Q24.05 -34.95 25.5 -32.9 L25.7 -32.6 26.7 -31.35 27.5 -30.05 Q28.4 -28.5 28.7 -26.8 L28.65 -26.55 28.8 -26.6 28.9 -26.65 Q30.5 -26.9 31.75 -26.25 L32.5 -26.05 35.15 -29.2 Q36.3 -30.4 37.9 -30.85 L38.5 -31.05 38.95 -31.1 Q41.65 -30.4 43.5 -28.35 44.35 -27.35 44.8 -26.15 45.0 -25.7 44.75 -25.35 L44.7 -24.7 Q44.2 -23.6 43.35 -22.75 L41.0 -20.65 43.05 -18.45 45.25 -15.25 49.85 -16.3 50.05 -16.3 50.3 -16.3 50.55 -16.3 Q51.6 -15.4 52.15 -14.05 52.9 -12.15 53.05 -10.15 53.15 -8.9 52.45 -7.95 L52.25 -7.9 Q52.35 -7.65 52.05 -7.2 L51.15 -6.65 49.0 -6.05 49.35 -4.5 Q49.55 -3.45 49.1 -2.55 L48.85 -2.5 48.6 -2.3 48.3 -1.95 46.3 -0.7 Q43.75 0.2 41.1 0.75 L35.6 1.0 33.7 0.85 31.55 0.75 30.75 0.25 30.05 1.35 30.15 1.7 30.1 2.05 30.05 3.55 29.9 4.95 29.7 5.9 Q28.95 8.55 27.65 11.05 26.0 14.15 23.95 17.05 L21.9 19.6 20.2 20.95 Q21.3 21.65 21.75 23.05 L21.85 23.45 22.25 25.75 22.3 27.55 22.25 28.7 21.8 32.45 20.75 35.8 20.6 36.3 20.7 36.3 20.45 36.7 20.25 37.2 20.25 37.15 19.6 38.65 20.2 39.2 Q20.75 39.85 21.45 40.0 22.8 41.05 23.65 42.6 24.95 44.8 25.2 47.35 25.15 55.05 19.45 60.35 16.65 62.2 13.1 62.5 9.5 62.75 6.35 61.5 5.8 64.0 4.5 66.65 3.15 68.8 0.4 68.7 L-1.65 68.45 Q-2.7 68.15 -3.05 67.0 L-4.9 62.15 Q-8.15 63.65 -11.55 63.05 -14.95 62.35 -17.9 60.75 -21.3 57.85 -22.85 54.0 -24.45 50.2 -23.55 46.1 -22.3 41.95 -19.55 39.15 L-19.6 39.1 -19.25 38.9 -19.0 38.5 -18.8 37.75 -18.65 37.85 -18.75 37.5 -18.9 37.1 -19.0 36.9 -19.0 36.75 -19.2 36.3 -19.2 36.25 -19.2 36.15 -19.35 35.8 -19.8 34.5 -20.0 33.9 M1.35 -50.55 L1.5 -50.9 1.95 -51.8 2.95 -53.0 Q4.4 -54.35 6.45 -54.6 L6.7 -57.7 8.45 -60.15 Q9.2 -61.45 9.1 -63.1 8.55 -64.05 7.7 -63.9 7.85 -64.5 7.3 -64.65 L6.3 -65.2 Q6.15 -64.6 5.65 -64.35 5.2 -64.85 5.65 -65.4 L3.3 -66.3 3.05 -66.4 -0.6 -66.8 Q-4.0 -66.75 -6.65 -64.85 L-6.65 -64.6 -6.5 -64.6 -6.75 -64.4 -7.0 -63.85 -6.65 -63.45 -7.2 -64.0 -7.25 -64.05 -7.25 -63.95 -7.3 -63.9 -7.35 -63.8 -7.75 -63.5 -7.75 -63.45 -8.3 -63.5 -9.6 -63.8 Q-12.05 -63.6 -13.4 -61.5 -14.7 -59.55 -14.85 -57.05 -14.95 -55.75 -14.6 -54.5 L-14.6 -54.45 -14.45 -54.1 -14.3 -53.75 -13.7 -52.65 -13.65 -52.5 -13.65 -52.65 -13.45 -52.35 -13.0 -51.85 -12.85 -51.75 Q-12.8 -50.75 -13.05 -49.85 L-13.1 -49.75 -12.95 -47.7 -12.9 -47.45 -12.65 -46.95 -11.75 -45.3 -11.25 -43.75 -11.15 -42.5 -11.15 -42.45 -11.15 -40.85 -11.2 -40.6 -11.4 -39.35 -11.45 -39.05 -12.15 -37.6 -13.8 -35.2 -13.8 -35.1 -13.85 -35.1 -14.25 -34.7 -14.5 -34.45 -14.6 -34.4 -14.65 -33.5 -14.75 -33.0 -14.85 -32.15 Q-15.15 -30.05 -14.3 -28.1 L-14.4 -28.05 Q-13.45 -26.0 -11.95 -24.65 L-11.95 -24.6 -11.85 -24.7 -11.85 -24.65 -10.9 -23.5 -8.7 -22.1 -8.4 -21.9 -7.9 -21.65 -6.95 -21.25 -6.8 -21.2 -6.55 -21.15 -6.45 -21.15 -6.5 -21.2 -6.35 -21.1 -1.65 -20.55 -0.3 -20.45 0.1 -20.4 3.6 -20.4 4.2 -20.75 5.3 -21.0 5.25 -21.35 Q5.4 -21.2 5.7 -21.2 L5.95 -21.2 5.85 -21.7 6.0 -21.15 7.45 -21.6 7.45 -21.65 Q7.9 -21.8 8.25 -22.05 L8.4 -22.15 8.5 -22.0 Q9.25 -22.2 9.4 -22.8 L9.5 -22.85 10.2 -23.3 10.6 -23.85 10.65 -23.95 10.55 -23.9 12.4 -25.55 12.45 -25.65 12.45 -25.7 12.6 -25.7 13.0 -26.2 14.2 -29.2 14.25 -29.45 13.9 -29.55 14.2 -30.05 14.45 -31.4 14.3 -32.2 14.35 -32.4 Q14.1 -33.25 13.35 -33.65 L13.3 -33.75 11.85 -38.4 10.8 -38.4 10.8 -38.35 10.65 -36.6 10.6 -36.5 10.55 -35.95 10.55 -36.0 10.5 -36.1 10.45 -36.2 10.4 -36.35 10.4 -36.45 10.35 -36.5 Q10.05 -37.75 10.2 -39.2 L10.25 -39.35 10.25 -39.4 9.75 -39.25 9.7 -39.25 9.3 -39.15 9.25 -38.1 9.2 -36.55 9.2 -35.75 9.2 -35.65 8.9 -34.15 8.9 -34.05 8.85 -33.95 8.5 -33.0 8.4 -32.75 8.35 -32.6 7.05 -30.6 Q5.2 -28.35 2.65 -27.15 L1.95 -27.35 0.55 -27.15 Q-0.25 -27.25 -0.95 -27.7 -3.45 -29.1 -5.25 -31.35 L-5.65 -31.8 -6.65 -33.55 -6.9 -34.15 -7.25 -35.25 -7.5 -37.7 Q-7.1 -38.65 -7.2 -39.6 -7.25 -40.15 -7.45 -40.7 L-7.5 -40.75 -7.6 -41.4 -7.55 -41.55 -7.1 -42.7 -6.6 -43.25 -6.55 -43.3 -5.3 -44.2 Q-2.65 -45.85 0.7 -45.35 L1.05 -45.3 0.95 -45.55 Q0.5 -46.6 0.6 -47.8 L0.75 -48.65 1.05 -49.8 1.35 -50.55 M9.7 -59.55 L8.2 -57.85 8.15 -57.85 7.6 -57.55 7.6 -57.5 7.6 -57.25 7.75 -56.0 7.85 -55.55 7.85 -55.35 7.85 -54.7 7.75 -54.5 7.6 -54.25 7.5 -54.15 7.3 -53.95 Q4.9 -53.8 3.05 -52.2 2.15 -50.6 1.75 -48.85 1.55 -48.0 1.65 -47.15 L1.85 -46.2 2.1 -45.5 2.2 -45.3 2.75 -44.75 Q2.45 -44.7 2.2 -44.45 L2.15 -44.4 Q1.85 -44.1 1.55 -44.5 -2.1 -45.0 -5.0 -43.1 L-5.5 -42.8 -5.35 -42.65 -5.65 -42.75 -5.9 -42.4 -5.9 -42.15 -6.1 -42.3 -6.15 -41.7 -6.15 -41.55 -6.05 -40.65 -6.05 -40.55 Q-6.05 -40.25 -5.85 -40.1 L-6.05 -39.7 -6.15 -39.35 -6.2 -38.9 -6.2 -38.75 -6.4 -38.95 Q-7.05 -36.1 -5.55 -33.65 -4.15 -31.2 -1.8 -29.6 L-1.9 -30.5 -1.8 -29.7 -1.75 -29.65 -1.4 -29.1 -0.85 -28.7 -0.35 -28.5 -0.35 -28.4 1.45 -28.05 Q2.25 -27.95 2.95 -28.45 L2.7 -28.25 3.05 -28.3 4.35 -29.15 4.5 -29.2 4.7 -29.35 4.75 -29.4 Q7.15 -31.05 7.75 -33.85 8.25 -36.65 8.25 -39.5 L8.25 -39.75 8.2 -39.7 8.4 -40.2 8.55 -40.4 8.8 -41.1 8.85 -41.3 9.55 -41.6 10.4 -41.8 11.4 -42.1 Q12.85 -42.7 13.7 -44.35 L13.8 -44.5 Q15.6 -48.2 15.4 -52.6 15.15 -57.15 12.55 -60.7 L12.55 -60.55 Q12.15 -61.0 11.5 -61.1 L10.9 -61.25 10.8 -60.85 10.75 -60.75 9.7 -59.55 M9.1 -54.6 L9.15 -55.3 9.15 -54.6 9.1 -54.6 M17.2 -21.55 L17.4 -21.65 17.6 -21.75 Q19.3 -22.65 21.25 -22.75 L21.7 -22.7 Q22.5 -23.85 23.7 -24.7 25.3 -25.85 27.2 -26.3 L28.05 -26.45 27.65 -26.85 Q27.55 -26.95 27.6 -27.1 L26.35 -29.8 26.1 -30.4 26.05 -30.45 25.55 -31.15 23.35 -33.5 20.45 -35.95 19.8 -36.35 15.85 -38.6 15.8 -38.65 13.6 -39.6 13.4 -39.7 12.55 -40.0 12.6 -39.75 12.85 -38.65 13.15 -38.5 14.25 -37.95 14.5 -37.8 15.55 -37.0 16.4 -36.1 Q17.35 -34.95 17.7 -33.5 L17.8 -33.25 18.05 -32.0 18.0 -30.6 18.0 -30.5 18.0 -30.4 17.9 -29.5 17.85 -29.45 17.65 -28.55 17.3 -27.7 Q16.1 -25.2 14.1 -23.1 12.25 -21.3 9.85 -20.15 7.35 -18.9 4.45 -18.3 L0.1 -17.8 -1.5 -17.9 -3.35 -18.15 -4.3 -18.3 Q-6.2 -18.7 -7.95 -19.4 L-9.65 -20.15 Q-12.1 -21.3 -13.9 -23.1 -15.95 -25.2 -17.15 -27.7 -17.7 -28.85 -17.85 -30.0 L-17.9 -30.6 -17.9 -32.0 -17.65 -33.25 -17.6 -33.35 -17.6 -33.5 -17.55 -33.6 -17.25 -34.5 -16.3 -36.0 -15.9 -36.45 -15.4 -37.0 Q-14.3 -37.95 -13.0 -38.5 L-12.8 -38.6 Q-12.45 -39.55 -12.25 -40.55 L-14.85 -39.6 Q-18.5 -38.2 -21.7 -35.95 L-24.55 -33.5 -26.55 -31.45 -26.95 -30.8 -28.2 -28.9 -28.65 -28.05 -29.1 -27.35 -28.65 -26.8 -27.95 -27.0 -27.1 -27.1 -25.55 -26.85 Q-23.95 -26.4 -22.9 -25.1 L-22.85 -25.0 -22.7 -24.8 -21.85 -23.35 Q-21.7 -22.9 -21.7 -22.4 L-21.2 -22.6 -20.8 -22.65 -20.15 -22.75 Q-18.2 -22.65 -16.45 -21.75 L-14.0 -20.1 -11.25 -17.4 -11.1 -17.25 -10.15 -16.25 -8.5 -14.7 -6.25 -13.2 -4.95 -12.65 -4.8 -12.6 -4.2 -12.4 -4.1 -12.4 -3.6 -12.25 -1.2 -11.95 0.15 -11.9 1.0 -11.9 2.3 -11.95 4.7 -12.25 5.25 -12.4 7.35 -13.2 9.65 -14.7 12.35 -17.4 15.15 -20.1 17.2 -21.55 M31.45 -25.05 L30.1 -25.55 29.3 -25.5 29.2 -25.5 28.75 -25.45 28.25 -25.3 27.45 -25.2 Q25.3 -24.75 23.55 -23.25 L23.0 -22.8 22.95 -22.75 22.65 -22.5 22.9 -22.4 24.35 -21.35 25.75 -19.85 27.55 -17.65 28.2 -16.85 30.2 -13.5 30.25 -13.3 30.5 -12.75 31.45 -10.2 31.7 -9.4 31.9 -8.55 32.1 -6.6 32.15 -5.7 32.05 -4.75 32.0 -4.3 32.0 -4.15 31.95 -3.1 31.85 -2.65 31.8 -2.4 31.75 -2.05 31.75 -1.9 31.7 -1.85 31.65 -1.8 31.05 -0.3 31.1 -0.25 31.2 -0.2 Q36.35 0.35 41.5 -0.35 L43.3 -0.8 Q45.45 -1.5 47.4 -2.6 L47.8 -2.8 48.0 -2.85 48.05 -2.85 48.25 -2.8 48.55 -3.05 48.0 -5.15 47.85 -5.8 46.6 -5.6 44.3 -5.3 41.8 -5.05 39.7 -4.85 35.95 -5.05 35.85 -5.1 35.75 -5.1 Q35.1 -5.35 34.8 -5.9 L34.75 -5.95 34.75 -6.15 34.65 -6.45 Q34.2 -7.5 34.1 -8.55 34.05 -9.6 34.35 -10.6 L34.45 -10.8 34.65 -11.15 34.65 -11.3 37.4 -12.85 38.05 -13.1 38.75 -13.35 38.9 -13.4 40.0 -13.75 40.6 -13.95 43.15 -14.7 43.5 -14.8 44.0 -14.95 43.55 -15.65 42.35 -17.3 40.05 -19.9 39.2 -19.2 38.75 -18.9 38.6 -18.8 37.7 -18.15 35.6 -16.55 Q35.0 -16.1 34.35 -15.9 L33.75 -15.7 33.75 -15.55 33.7 -15.5 33.65 -15.5 33.55 -15.45 32.7 -15.35 32.6 -15.4 32.4 -15.4 32.3 -15.45 Q31.65 -15.65 31.15 -16.3 L30.4 -17.2 30.0 -17.6 30.0 -17.7 29.95 -17.8 Q28.6 -18.85 29.0 -20.45 L29.0 -20.55 29.15 -20.75 29.15 -20.95 29.2 -20.95 29.25 -21.05 29.3 -21.2 29.35 -21.55 31.65 -24.9 31.65 -24.95 31.45 -25.05 M32.85 -24.8 L32.7 -24.75 30.8 -22.3 30.2 -21.5 30.2 -21.4 30.2 -21.35 30.1 -21.25 30.0 -21.15 29.95 -20.95 29.75 -20.65 29.75 -20.35 29.55 -20.05 29.55 -19.95 29.6 -19.65 Q29.85 -18.75 30.75 -18.1 L30.85 -18.0 31.75 -17.1 32.1 -16.75 Q32.45 -16.4 32.95 -16.25 34.85 -16.9 36.35 -18.25 L38.65 -20.1 39.55 -20.85 40.15 -21.5 40.55 -21.75 41.7 -22.85 42.8 -24.0 43.35 -24.8 43.9 -25.5 43.85 -25.6 Q43.25 -27.5 41.85 -28.65 L40.45 -29.55 38.85 -30.25 38.15 -30.15 38.05 -30.0 37.95 -29.95 37.6 -29.7 36.45 -29.0 36.1 -28.75 35.9 -28.45 35.6 -28.3 33.85 -26.15 33.45 -25.65 33.5 -25.65 33.15 -25.15 33.0 -24.9 32.95 -24.9 32.85 -24.8 M9.5 -33.35 L9.4 -33.55 9.5 -33.65 9.45 -33.6 9.45 -33.55 9.5 -33.35 M8.5 -24.95 L8.45 -25.15 8.5 -25.0 8.5 -24.95 M-6.4 3.8 Q-5.5 3.15 -4.45 2.9 L-3.35 2.7 -0.1 2.2 2.5 2.3 4.55 2.75 5.7 3.1 Q6.95 3.4 8.05 4.0 L8.75 4.15 10.5 4.6 10.75 4.7 10.85 4.7 10.9 4.7 15.8 5.4 15.9 5.4 22.45 4.55 Q25.8 3.9 28.5 1.85 L29.15 1.25 29.15 1.2 30.5 -1.05 30.7 -1.65 30.85 -2.25 30.95 -3.25 31.1 -4.15 31.15 -4.7 31.15 -5.4 31.1 -6.45 31.1 -6.5 30.95 -7.95 30.85 -8.55 30.35 -10.25 30.25 -10.35 30.2 -10.6 30.2 -10.65 29.8 -11.65 28.7 -13.95 26.8 -16.8 25.0 -19.1 22.75 -21.25 22.35 -21.4 22.25 -21.4 21.85 -21.55 21.55 -21.8 20.15 -21.7 19.3 -21.45 Q18.35 -21.15 17.5 -20.55 L14.5 -18.2 11.8 -15.5 10.75 -14.4 9.0 -13.0 8.5 -12.7 8.3 -12.6 Q8.25 -12.2 7.7 -12.1 L7.5 -12.05 6.05 -11.6 5.85 -11.55 3.3 -11.05 2.6 -10.95 0.55 -10.95 -1.5 -10.95 -2.2 -11.05 -4.7 -11.55 -4.95 -11.6 -6.35 -12.05 -6.6 -12.1 Q-7.15 -12.2 -7.2 -12.6 L-9.6 -14.4 -10.7 -15.5 -13.35 -18.2 -16.4 -20.55 Q-17.3 -21.15 -18.25 -21.45 L-19.05 -21.7 -20.45 -21.8 Q-20.75 -21.45 -21.2 -21.4 L-21.6 -21.25 -23.9 -19.1 -25.65 -16.8 -27.6 -13.95 -28.65 -11.65 -29.1 -10.65 -29.1 -10.6 -29.2 -10.35 -29.25 -10.25 -29.8 -7.95 -29.95 -6.5 -30.0 -6.45 -30.05 -5.4 -30.05 -4.7 -29.85 -3.25 -29.75 -2.25 -29.55 -1.65 -29.45 -1.2 -29.4 -1.05 -28.05 1.2 -28.05 1.25 -27.4 1.85 Q-24.7 3.9 -21.3 4.55 L-14.8 5.4 -14.65 5.4 -10.9 4.9 -9.75 4.7 -9.7 4.7 -9.65 4.7 -9.35 4.6 -7.6 4.15 -7.15 4.05 -6.65 4.0 -6.4 3.8 M48.35 -14.75 L45.85 -14.25 45.8 -14.25 45.85 -14.2 44.6 -13.95 44.55 -14.0 43.75 -13.75 Q41.05 -13.15 38.5 -12.15 36.85 -11.5 35.35 -10.6 L35.1 -10.25 35.05 -10.15 35.05 -9.95 35.1 -8.75 35.15 -8.55 35.4 -7.6 35.9 -6.2 35.9 -5.95 Q36.2 -5.75 36.65 -5.7 L44.3 -6.3 47.55 -6.9 47.45 -7.15 48.65 -7.25 48.65 -7.2 49.95 -7.55 51.7 -8.2 Q51.6 -8.4 51.65 -8.7 51.9 -10.0 51.65 -11.25 L51.0 -13.7 50.35 -15.3 49.0 -14.85 48.55 -14.8 48.35 -14.75 M-47.05 -25.4 L-47.2 -25.2 Q-48.55 -23.0 -49.25 -20.55 L-49.4 -20.15 Q-49.7 -18.25 -49.5 -16.3 L-49.5 -15.95 Q-49.5 -14.7 -49.15 -13.5 L-49.05 -13.25 -48.75 -12.6 -48.15 -11.55 -48.7 -10.35 -48.8 -10.2 -48.8 -9.95 -49.75 -8.15 -49.6 -8.0 -50.05 -7.05 -50.1 -7.2 -50.35 -6.75 -50.65 -6.1 -50.8 -5.7 Q-51.55 -3.8 -51.75 -1.75 L-51.85 0.8 -51.6 2.8 -51.05 4.9 -50.35 6.55 -50.05 7.15 -49.7 7.6 Q-49.3 8.2 -48.55 8.6 L-48.45 8.65 -48.4 8.95 -47.95 8.95 -47.85 9.05 -47.3 9.35 -45.1 10.1 -44.4 10.35 -43.8 10.5 -43.5 10.55 -43.25 10.6 -42.9 10.7 -40.3 11.35 -37.45 11.4 -35.8 11.0 Q-34.95 10.8 -34.55 10.15 L-34.25 9.5 -34.15 9.2 Q-33.65 7.0 -33.7 4.7 L-33.7 4.6 -33.7 4.35 -33.85 3.1 Q-33.2 3.9 -33.15 5.15 -33.05 7.0 -33.75 8.8 -34.2 10.0 -35.0 11.0 -35.85 12.15 -37.25 12.4 L-38.65 12.65 -38.7 12.6 -40.6 12.55 -41.25 12.5 -42.8 12.1 -44.55 11.6 -45.75 11.25 -47.0 10.75 -47.15 10.75 -48.1 10.1 -48.1 10.15 -48.0 10.45 -48.15 10.35 -48.1 10.5 -47.75 11.3 -47.5 11.85 -46.25 13.55 -44.25 15.5 -44.0 15.65 -43.9 15.75 -43.1 16.25 -42.85 16.4 Q-41.35 17.2 -39.6 17.6 -36.4 18.3 -33.3 17.5 L-32.6 17.3 Q-30.35 16.5 -28.65 14.9 -28.05 14.35 -27.75 13.7 L-27.7 13.5 Q-27.55 12.95 -27.25 12.75 L-27.05 11.95 -27.05 11.9 -26.85 11.0 -26.75 10.45 Q-27.85 8.25 -28.45 5.9 L-28.65 4.75 -28.7 4.55 -28.8 3.95 -28.9 2.4 -28.95 1.75 -28.95 1.3 -29.65 0.2 -29.85 -0.2 -29.9 -0.25 -29.95 -0.3 Q-30.35 -1.0 -30.55 -1.8 L-30.6 -1.85 -30.65 -1.9 -30.65 -2.05 -30.7 -2.65 -30.8 -3.1 -30.9 -4.3 -31.0 -6.6 -30.6 -9.4 -30.35 -10.2 -30.25 -10.6 -29.2 -13.3 Q-28.35 -15.2 -27.1 -16.85 L-26.45 -17.65 -23.25 -21.35 -23.1 -21.45 -23.05 -21.5 -22.85 -21.7 -23.3 -22.65 Q-23.85 -25.25 -26.5 -25.9 L-27.35 -26.1 -27.55 -26.15 -28.35 -26.35 -28.15 -25.9 -28.15 -25.75 Q-26.95 -23.7 -27.75 -21.25 L-28.75 -19.0 Q-30.05 -16.7 -31.85 -14.8 L-32.0 -14.75 -32.05 -14.75 -32.05 -14.65 -32.15 -14.5 -32.2 -14.45 -32.4 -14.3 -32.4 -14.2 -32.4 -14.05 -32.5 -13.9 -32.55 -13.85 -32.7 -13.8 -33.1 -13.3 -33.6 -12.25 -33.65 -12.2 -35.15 -9.3 -35.35 -9.0 -35.55 -8.65 -35.7 -8.35 -36.45 -7.15 -36.7 -7.15 -36.8 -7.25 -36.8 -7.35 -36.75 -7.4 -36.3 -7.8 -36.05 -8.3 -35.75 -9.0 -34.05 -12.45 -32.4 -15.05 -32.25 -15.3 -30.05 -18.35 -29.65 -19.15 Q-28.75 -20.1 -28.55 -21.4 L-28.4 -23.2 Q-28.5 -24.85 -29.4 -26.1 L-29.45 -26.2 -29.7 -26.55 Q-30.1 -27.25 -30.7 -27.45 L-31.5 -28.2 -33.6 -29.75 -34.5 -30.25 -35.5 -30.7 -35.65 -30.75 -36.1 -30.8 -36.35 -30.85 -36.7 -30.85 -36.75 -30.85 -37.55 -30.8 -37.9 -30.75 -38.8 -30.45 -41.25 -29.65 Q-42.45 -29.15 -43.55 -28.45 L-45.0 -27.35 -46.95 -25.5 -47.05 -25.4 M-41.35 -1.5 L-41.1 -1.5 -40.35 -1.4 -39.2 -1.15 -39.5 -1.2 -41.1 -1.45 -41.35 -1.5 M-2.8 -33.8 L-2.7 -33.65 -2.7 -33.6 -2.8 -33.8 M-15.7 -32.85 L-15.75 -32.8 -15.8 -32.5 -15.7 -32.45 -15.7 -32.85 M-6.3 -25.45 L-6.4 -25.25 -6.45 -25.05 -6.35 -25.45 -6.3 -25.45 M-5.7 16.2 L-3.15 15.65 -3.95 14.55 Q-4.95 12.8 -5.6 10.95 L-5.9 10.2 -6.05 9.85 -6.0 9.85 -6.9 6.15 -6.95 5.1 -7.55 5.2 -8.95 5.6 -9.1 5.65 -10.1 5.9 -10.45 5.95 -12.05 6.2 -12.15 6.2 -12.6 6.25 -12.9 6.25 -13.65 6.25 -17.35 6.1 -17.45 6.05 -19.6 5.75 -23.9 4.75 -24.85 4.35 -25.05 4.25 -26.5 3.45 -26.55 3.45 -27.6 2.7 -27.6 3.0 -27.6 3.2 -27.6 3.9 -27.5 4.6 -27.45 5.4 -27.15 6.1 -27.15 6.15 -25.65 9.9 -25.7 9.9 -25.35 10.55 -25.05 11.15 -24.95 11.4 -24.85 11.4 -24.75 11.75 -24.7 11.85 -24.8 11.75 -24.35 12.55 -24.15 12.85 -23.65 13.65 -22.05 15.95 -20.55 17.85 -20.25 18.2 -19.9 18.55 -18.8 19.55 Q-17.1 20.4 -15.0 20.3 L-14.65 20.2 -14.45 20.2 -14.35 20.15 Q-13.2 19.35 -11.95 18.65 -10.55 17.8 -9.0 17.25 -7.4 16.65 -5.7 16.2 M3.4 3.4 L2.9 3.3 Q0.4 3.0 -2.0 3.4 -4.0 3.65 -5.8 4.35 L-5.9 4.4 -6.25 4.65 -6.35 4.75 -6.25 5.0 -6.4 5.0 -6.35 5.3 Q-6.0 7.1 -5.3 8.8 L-5.0 9.65 -5.0 9.7 -4.45 10.9 -4.35 11.05 -4.05 11.7 -3.95 12.0 -3.15 13.45 -2.3 14.8 -2.0 15.45 -1.9 15.4 -0.35 15.25 0.6 15.15 1.55 15.25 2.95 15.4 3.05 15.2 3.75 14.25 4.8 12.2 5.15 11.8 5.85 10.15 6.1 9.25 6.55 8.3 7.15 6.65 7.15 6.6 7.6 5.0 7.45 5.0 7.55 4.8 6.1 4.35 5.15 4.0 3.55 3.45 3.4 3.4 M-12.65 30.4 L-12.9 30.1 -13.45 29.25 -13.85 28.85 -13.9 28.75 -13.95 28.75 -13.95 28.7 -14.1 28.45 Q-15.5 26.65 -16.1 24.55 L-17.35 22.05 -17.5 21.65 -17.6 21.45 -17.9 21.4 -18.5 22.2 Q-19.2 23.15 -19.45 24.35 L-19.65 25.35 -20.0 25.55 -20.2 27.05 -20.2 27.1 -20.0 28.1 -20.0 28.25 -19.85 30.3 -19.55 32.1 -19.1 33.7 -18.6 35.15 -18.5 35.5 -18.45 35.55 -18.55 35.65 -18.3 36.8 -18.1 36.45 -17.45 38.0 -16.5 40.0 -16.5 40.2 -16.4 40.35 -15.0 43.25 -14.8 43.6 -13.5 46.0 -13.8 46.45 Q-13.65 46.5 -13.55 46.65 L-13.3 46.3 -12.5 47.5 -11.4 49.0 -11.1 49.45 -9.6 51.25 -8.45 52.5 -6.85 53.95 -5.85 54.75 -5.6 54.95 -4.15 55.85 -1.9 56.55 -1.75 56.5 -1.3 56.5 -1.05 56.5 0.7 56.75 2.25 56.55 2.5 56.5 3.2 56.5 3.35 56.55 5.55 55.85 7.05 54.95 7.7 54.45 8.3 53.95 8.55 53.7 8.7 53.55 9.9 52.5 11.5 50.75 12.55 49.45 13.85 47.6 13.95 47.45 14.85 46.05 16.2 43.65 16.25 43.6 17.85 40.3 17.95 40.2 17.95 40.0 18.9 38.0 19.1 37.55 19.9 35.5 21.0 32.1 21.3 30.3 21.4 27.9 Q21.95 25.95 21.45 23.9 L21.25 25.6 21.2 25.05 20.75 23.35 19.75 21.65 19.4 21.3 19.1 21.4 19.0 21.65 18.95 21.65 18.6 22.3 17.45 24.65 17.1 24.75 17.35 24.8 17.1 25.25 17.05 25.55 Q16.4 27.2 15.35 28.65 L15.35 28.75 15.3 28.85 14.9 29.25 14.4 30.0 14.35 30.1 13.8 30.7 13.5 31.05 12.65 32.05 11.85 32.95 11.1 33.7 10.45 34.3 Q10.2 34.5 10.0 34.65 L9.7 34.9 9.5 34.9 9.5 34.85 Q9.4 34.7 9.65 34.55 L10.1 33.85 10.15 33.7 10.6 33.1 10.8 32.9 10.95 32.75 11.0 32.65 11.0 32.6 11.7 31.7 11.8 31.6 11.55 31.6 Q10.55 31.7 9.7 31.25 L8.25 30.15 8.0 30.0 5.85 28.45 5.6 28.35 4.3 27.85 2.55 27.65 2.55 27.7 0.7 27.75 -1.1 27.7 -1.15 27.65 -2.85 27.85 -4.4 28.45 -6.3 29.75 -6.55 30.0 -6.8 30.15 Q-7.45 30.8 -8.25 31.25 L-10.15 31.6 -10.35 31.55 -10.75 31.5 -10.75 31.55 -10.7 31.6 -9.2 33.1 -8.75 33.7 -8.65 33.85 -8.15 34.55 Q-7.95 34.7 -8.1 34.85 L-8.1 34.9 -8.25 34.9 -9.7 33.7 -10.45 32.95 -11.25 32.05 -12.15 31.0 -12.05 30.95 -13.7 27.75 -12.45 30.3 -12.65 30.4 M8.45 29.25 L8.8 29.55 10.5 30.7 12.25 31.0 12.3 30.95 14.4 28.1 14.5 27.95 16.65 23.35 16.95 22.75 Q17.15 22.1 17.5 21.55 L15.6 21.2 15.5 21.15 13.1 19.95 Q10.0 18.15 6.6 17.2 L1.7 16.4 1.5 16.45 0.55 16.4 0.35 16.4 -0.3 16.45 -0.5 16.4 -5.35 17.2 Q-8.8 18.15 -11.85 19.95 L-14.3 21.15 -14.35 21.2 -16.1 21.55 -15.85 22.05 -15.65 22.75 -15.25 23.5 -15.1 23.9 -14.95 24.35 -14.05 26.25 -13.95 26.7 -11.15 30.75 -10.95 30.9 -10.8 31.0 -9.05 30.7 -7.4 29.55 Q-6.45 28.6 -5.25 27.85 L-4.65 27.55 Q-3.85 27.0 -2.9 26.85 L-1.0 26.65 0.7 26.75 2.45 26.65 4.35 26.85 Q5.3 27.0 6.1 27.55 L6.7 27.85 8.45 29.25 M-18.55 40.05 L-18.7 39.9 -21.0 42.95 -20.7 42.9 -21.1 43.5 -21.75 44.55 -21.85 44.9 -21.9 44.95 -22.25 45.6 -22.45 46.15 -22.6 46.8 -22.65 48.2 -22.75 49.5 -22.75 49.65 -22.65 49.5 -22.6 49.45 -22.6 50.65 -22.4 51.4 -22.3 51.55 -22.4 52.05 -21.55 54.45 -20.25 56.7 -19.95 57.05 -19.9 57.15 -19.9 57.0 -18.4 58.7 -18.3 58.9 -18.25 59.0 Q-12.25 62.95 -5.15 61.2 L-5.45 60.5 -5.45 60.3 -5.6 59.85 -5.9 59.25 -6.95 56.55 -7.1 56.0 -7.4 55.45 -7.75 54.35 -8.95 53.25 -10.35 51.85 -11.45 50.55 -12.25 49.55 -13.45 47.75 -14.05 46.85 -14.65 45.85 -16.1 43.1 -16.5 42.35 -16.75 41.8 -17.85 40.85 -18.55 40.05 M-18.65 37.9 L-18.4 38.15 -18.6 37.7 -18.65 37.9 M-1.0 57.6 L-1.95 57.45 Q-3.75 57.15 -5.3 56.25 L-6.1 55.75 Q-3.55 61.05 -2.05 67.0 L2.55 67.45 3.35 66.65 Q4.95 60.95 7.6 55.65 L6.7 56.25 Q5.15 57.15 3.4 57.45 L2.1 57.65 0.7 57.7 -1.0 57.6 M28.9 2.55 L28.65 2.75 27.65 3.45 Q26.35 4.2 24.95 4.75 L24.15 5.0 24.05 5.05 23.95 5.05 20.7 5.75 20.3 5.8 19.2 5.95 18.45 6.1 17.75 6.2 14.75 6.25 14.0 6.25 13.7 6.25 13.25 6.2 10.9 5.8 10.8 5.8 10.05 5.6 8.7 5.2 8.2 5.15 8.1 5.65 8.05 5.7 7.3 8.5 6.9 9.7 6.9 9.75 7.05 9.75 Q6.75 10.25 6.75 10.9 L6.45 10.9 5.55 12.95 5.1 13.9 4.85 14.3 4.05 15.55 Q7.2 16.15 10.25 17.25 11.8 17.8 13.15 18.65 L15.6 20.15 15.7 20.2 15.9 20.2 16.25 20.3 19.1 19.95 21.1 18.1 22.0 17.15 22.2 16.95 22.2 16.9 24.75 13.4 24.8 13.3 24.8 13.35 24.95 13.2 24.95 13.15 25.3 12.55 25.35 12.45 25.2 12.5 24.65 12.6 25.3 12.45 25.4 12.4 25.75 11.8 28.0 7.15 28.7 4.75 28.7 4.7 28.7 4.6 28.9 3.75 28.85 3.35 28.9 3.05 Q28.85 2.8 28.95 2.6 L28.95 2.5 28.9 2.55 M21.6 42.1 L19.75 39.65 18.6 40.9 17.95 42.35 17.75 42.65 16.95 44.25 16.15 45.7 16.05 45.85 15.65 46.55 14.4 48.5 13.85 49.3 13.65 49.55 10.35 53.25 9.55 54.0 9.45 54.15 9.1 54.65 8.8 55.25 8.65 55.6 8.3 56.4 7.95 57.2 Q7.3 58.35 7.15 59.6 L7.0 59.55 6.8 60.35 Q9.05 61.75 12.0 61.55 14.95 61.35 17.45 60.2 L17.85 59.85 18.4 59.7 Q19.6 59.15 20.25 58.1 L20.55 57.85 21.4 56.95 23.25 53.55 Q23.65 52.65 23.65 51.75 L23.65 51.45 23.6 51.05 23.75 50.55 23.75 50.2 23.8 49.9 23.8 49.75 23.75 48.95 23.75 47.2 23.6 46.0 23.7 46.2 23.65 45.95 Q23.25 44.05 22.1 42.65 L21.6 42.1" fill="#000000" fill-rule="evenodd" stroke="none"/>
    <path d="M-14.45 -54.1 L-14.6 -54.45 -14.6 -54.5 Q-14.95 -55.75 -14.85 -57.05 -14.7 -59.55 -13.4 -61.5 -12.05 -63.6 -9.6 -63.8 L-8.3 -63.5 -7.75 -63.45 -7.75 -63.5 -7.35 -63.8 -7.3 -63.9 -7.25 -63.85 -7.15 -63.25 -7.15 -62.7 -7.05 -61.6 -7.05 -61.05 Q-7.0 -59.9 -7.6 -58.9 L-7.8 -58.7 -8.1 -58.4 -8.15 -58.4 -8.25 -58.35 -8.25 -58.3 -8.3 -58.3 -8.6 -58.1 -9.5 -57.7 -10.55 -57.35 -10.85 -57.3 -12.1 -56.75 -13.0 -56.0 -14.1 -54.55 -14.4 -53.95 -14.45 -54.1 M7.6 -57.5 L7.6 -57.55 8.15 -57.85 8.2 -57.85 9.7 -59.55 10.35 -59.45 11.3 -58.95 Q10.5 -57.7 9.2 -57.0 L9.15 -55.3 7.85 -55.35 7.85 -55.55 7.75 -56.0 7.6 -57.25 7.75 -57.6 7.8 -57.65 7.65 -57.55 7.6 -57.5 M2.95 -28.45 Q2.25 -27.95 1.45 -28.05 L-0.35 -28.4 -0.35 -28.5 -0.4 -28.55 Q-0.2 -29.25 -0.3 -30.05 L-1.0 -34.35 -1.75 -37.35 -1.85 -37.65 Q-2.0 -38.9 -2.8 -40.05 L-3.05 -40.3 -4.35 -41.75 -5.35 -42.65 -5.5 -42.8 -5.0 -43.1 Q-2.1 -45.0 1.55 -44.5 1.85 -44.1 2.15 -44.4 L2.2 -44.45 2.25 -44.45 2.3 -44.45 2.55 -44.5 Q4.55 -44.2 6.35 -43.2 L6.65 -43.0 7.6 -42.35 8.25 -41.6 8.45 -41.15 8.45 -41.05 7.85 -40.6 7.4 -40.15 7.05 -39.65 7.0 -39.65 5.9 -38.5 5.9 -38.55 5.5 -38.0 4.75 -36.65 4.25 -35.25 3.9 -33.95 Q3.85 -31.25 3.05 -28.5 L2.95 -28.45 M-5.85 -40.1 Q-6.05 -40.25 -6.05 -40.55 L-6.05 -40.65 -6.0 -40.5 -5.8 -40.05 -5.85 -40.1 M1.65 -47.15 Q1.55 -48.0 1.75 -48.85 2.15 -50.6 3.05 -52.2 4.9 -53.8 7.3 -53.95 L7.5 -54.15 7.35 -53.95 9.25 -53.8 Q9.15 -53.85 9.15 -53.85 10.8 -53.0 12.0 -51.4 13.55 -48.3 12.0 -45.3 11.4 -44.4 10.55 -44.0 L10.0 -43.7 10.5 -44.0 10.05 -44.65 9.75 -44.9 10.9 -46.4 11.3 -47.1 Q11.85 -49.1 10.85 -51.05 10.0 -52.9 7.75 -52.6 L7.75 -52.55 7.0 -52.55 Q5.95 -52.4 5.0 -51.85 L3.75 -50.75 3.45 -50.15 Q2.75 -48.85 3.0 -47.35 L2.3 -47.25 1.65 -47.15 M9.75 -54.2 L9.75 -54.25 10.05 -53.95 9.75 -54.1 9.75 -54.2 M8.4 -52.3 L8.25 -52.3 8.2 -52.3 8.45 -52.3 8.4 -52.3 M-4.95 -12.65 L-6.25 -13.2 -8.5 -14.7 -10.15 -16.25 -11.1 -17.25 -11.25 -17.4 -14.0 -20.1 -16.45 -21.75 Q-18.2 -22.65 -20.15 -22.75 L-20.8 -22.65 -21.2 -22.6 -21.7 -22.4 Q-21.7 -22.9 -21.85 -23.35 L-22.7 -24.8 Q-21.1 -25.65 -19.9 -27.05 -18.7 -28.45 -17.85 -30.0 -17.7 -28.85 -17.15 -27.7 -15.95 -25.2 -13.9 -23.1 -12.1 -21.3 -9.65 -20.15 L-7.95 -19.4 Q-6.2 -18.7 -4.3 -18.3 L-3.35 -18.15 -1.5 -17.9 -2.9 -17.4 -4.05 -16.15 -4.3 -15.7 Q-4.9 -14.25 -4.95 -12.65 M-25.55 -26.85 L-27.1 -27.1 -27.95 -27.0 -28.65 -26.8 -29.1 -27.35 -28.65 -28.05 -28.2 -28.9 -26.95 -30.8 -26.55 -31.45 -24.55 -33.5 -21.7 -35.95 Q-18.5 -38.2 -14.85 -39.6 L-12.25 -40.55 Q-12.45 -39.55 -12.8 -38.6 L-13.0 -38.5 Q-14.3 -37.95 -15.4 -37.0 L-15.9 -36.45 -16.3 -36.0 -15.9 -36.5 -16.9 -36.5 Q-22.2 -34.85 -24.85 -30.05 -25.8 -28.3 -25.55 -26.85 M15.8 -38.65 L15.85 -38.6 15.75 -38.55 15.8 -38.65 M23.0 -22.8 L23.55 -23.25 Q25.3 -24.75 27.45 -25.2 L28.25 -25.3 28.75 -25.45 29.2 -25.5 29.3 -25.5 30.1 -25.55 31.45 -25.05 31.65 -24.9 29.35 -21.55 29.3 -21.2 29.25 -21.05 29.2 -20.95 29.15 -20.95 29.15 -20.75 29.0 -20.55 29.0 -20.45 Q28.6 -18.85 29.95 -17.8 L30.0 -17.7 30.0 -17.6 30.4 -17.2 31.15 -16.3 Q31.65 -15.65 32.3 -15.45 L31.55 -14.5 Q31.0 -14.0 30.25 -13.85 L30.05 -13.8 30.2 -13.5 28.2 -16.85 27.55 -17.65 25.75 -19.85 24.35 -21.35 22.9 -22.4 22.95 -22.7 23.0 -22.8 M3.6 -46.6 L3.65 -46.45 3.5 -46.85 3.45 -47.05 3.6 -46.6 M-47.05 -25.4 L-46.95 -25.5 -45.0 -27.35 -45.45 -27.0 -46.9 -25.25 -47.05 -25.4 M-49.6 -8.0 L-49.75 -8.15 -48.8 -9.95 -48.75 -10.0 -48.65 -10.3 -47.25 -8.95 -45.75 -7.95 -43.65 -7.05 -42.15 -6.6 -42.0 -6.55 -41.8 -6.5 -41.55 -6.45 -41.4 -6.45 -40.3 -6.25 -39.0 -6.15 -39.2 -3.6 -39.05 -2.45 -40.15 -2.6 -41.2 -2.8 -41.35 -2.85 -41.5 -2.9 -41.8 -3.0 -41.9 -3.05 -42.3 -3.15 -42.7 -3.3 Q-44.85 -4.1 -46.75 -5.45 L-47.9 -6.35 -49.6 -8.0 M-2.0 -43.8 L-3.0 -43.65 -3.75 -43.1 -3.85 -42.8 -3.8 -42.55 -3.25 -41.85 -2.55 -41.0 -2.4 -40.7 -2.0 -40.1 -1.55 -40.0 -1.55 -40.15 -1.55 -40.7 -1.45 -41.1 -1.25 -41.85 -0.5 -43.25 -0.45 -43.35 -0.35 -43.4 Q-1.0 -43.95 -2.0 -43.8 M-15.85 -23.05 L-15.6 -22.75 -15.6 -22.95 -15.85 -23.05 M-8.1 34.85 Q-7.95 34.7 -8.15 34.55 L-8.65 33.85 -8.75 33.7 -9.2 33.1 -10.7 31.6 -10.7 31.55 -10.35 31.55 -10.15 31.6 -8.25 31.25 Q-7.45 30.8 -6.8 30.15 L-6.55 30.0 -6.3 29.75 Q-6.0 30.1 -5.85 30.75 L-5.75 32.2 -5.95 33.6 Q-6.15 34.35 -6.65 34.9 L-8.1 34.85 M-18.25 30.75 Q-18.35 28.75 -17.5 27.0 L-17.2 27.05 -17.05 27.25 -16.65 28.9 -16.6 29.25 -15.3 32.0 -16.6 33.1 -18.25 30.75 M-20.7 42.9 L-21.0 42.95 -18.7 39.9 -18.55 40.05 Q-19.4 41.1 -19.85 42.45 L-19.95 42.75 -20.7 42.9 M-17.85 40.85 L-16.75 41.8 -16.5 42.35 -16.1 43.1 -17.5 42.7 -17.85 42.65 -17.95 42.05 -17.9 41.0 -17.85 40.85 M-14.05 46.85 L-13.45 47.75 -13.45 48.0 -13.4 48.3 -14.0 48.5 -14.1 48.55 -14.55 48.6 -15.0 48.7 -15.45 47.75 Q-15.8 47.1 -16.4 46.6 L-16.8 46.2 -16.1 46.05 -15.35 46.0 -15.2 46.1 Q-14.55 46.35 -14.05 46.85 M-11.45 50.55 L-10.35 51.85 -9.75 53.05 Q-9.5 53.8 -9.55 54.5 -9.7 55.65 -10.2 56.6 L-10.35 56.65 -12.5 57.25 -13.0 57.3 -13.45 57.2 -12.95 57.45 Q-13.75 57.05 -14.65 56.75 L-16.0 56.0 Q-16.2 55.85 -16.35 55.75 -17.55 54.15 -17.5 52.15 L-17.15 51.6 -16.95 51.95 Q-16.3 53.45 -14.85 54.25 L-13.25 54.3 Q-12.5 53.9 -12.2 53.1 L-11.85 51.4 -12.05 50.9 Q-12.7 50.0 -13.7 49.55 L-13.95 49.25 -13.8 49.2 -11.95 50.15 -11.45 50.55 M-22.65 49.5 L-22.75 49.65 -22.65 49.5 M-22.25 45.6 L-21.9 44.95 -21.85 44.95 -21.6 44.65 -21.45 44.45 -21.35 44.35 -20.7 43.8 Q-20.6 44.2 -20.85 44.75 L-20.9 44.85 Q-21.1 46.1 -20.3 47.0 L-20.25 47.05 -20.55 47.25 -21.35 47.95 -22.3 46.85 -22.35 46.55 -22.35 46.2 -22.25 45.6 M-17.15 43.5 Q-16.3 43.8 -15.5 44.35 -15.6 45.55 -16.75 45.65 L-17.15 45.7 Q-17.3 45.35 -17.1 44.95 -17.4 44.2 -17.15 43.5 M-17.4 35.35 L-15.75 33.3 -15.65 33.2 -15.0 32.7 -13.0 37.35 Q-12.6 38.3 -12.75 39.25 -12.8 39.85 -13.3 40.2 -15.95 39.7 -16.95 36.95 L-17.4 35.35 M-18.1 32.2 L-17.05 33.3 -17.7 34.35 -18.1 32.2 M-19.85 47.75 Q-19.65 48.05 -19.6 48.5 -19.4 49.9 -18.15 50.6 -17.85 50.75 -17.65 51.0 L-18.75 52.5 -19.85 52.45 -19.9 52.4 Q-21.55 51.65 -21.25 49.9 L-21.2 49.8 -21.1 49.05 -19.85 47.75 M19.95 42.75 Q19.6 42.25 19.65 41.55 L19.6 41.2 18.25 42.6 17.75 42.65 17.95 42.35 18.6 40.9 19.75 39.65 21.6 42.1 21.9 43.35 21.85 43.7 21.85 43.75 21.85 43.7 20.5 42.95 20.4 42.9 20.1 42.75 19.95 42.75 M13.85 49.3 Q14.7 49.4 15.45 49.85 L15.4 49.9 14.65 50.6 Q13.6 51.0 12.65 51.75 10.95 53.05 11.35 54.95 L13.15 54.85 Q14.95 54.05 16.05 52.35 L17.05 51.4 18.3 52.7 18.65 53.55 18.55 53.65 18.45 53.85 18.3 54.25 18.0 54.7 Q17.7 55.7 16.8 56.4 L15.8 57.25 Q13.5 58.45 10.85 57.7 9.55 57.35 8.75 56.2 L8.65 55.9 8.65 55.6 8.8 55.25 9.1 54.65 9.45 54.15 9.55 54.0 10.35 53.25 13.65 49.55 13.85 49.3 M19.9 43.75 L20.45 43.95 Q21.3 44.25 22.05 45.1 L22.5 45.65 22.55 45.75 22.85 46.2 Q22.9 47.2 22.55 48.15 L22.3 48.65 Q21.35 47.2 19.9 46.3 L20.1 45.95 20.1 45.85 20.1 45.65 20.1 45.45 Q19.8 44.6 19.9 43.75 M17.05 45.7 L16.15 45.7 16.95 44.25 17.1 44.2 17.8 43.85 17.75 44.0 17.05 45.7 M15.65 46.55 L16.95 46.45 16.95 46.5 Q15.9 47.7 15.8 49.15 L15.3 48.9 14.4 48.5 15.65 46.55 M19.8 47.3 L20.2 47.6 20.35 47.7 Q21.45 48.85 22.0 50.2 L22.0 50.7 Q22.1 51.65 21.6 52.45 20.9 53.6 19.6 53.4 18.9 51.9 17.65 50.65 19.05 49.95 19.5 48.45 L19.75 47.35 19.8 47.3" fill="#999999" fill-rule="evenodd" stroke="none"/>
    <path d="M3.05 -66.4 L3.3 -66.3 5.65 -65.4 Q5.2 -64.85 5.65 -64.35 6.15 -64.6 6.3 -65.2 L7.3 -64.65 Q7.85 -64.5 7.7 -63.9 8.55 -64.05 9.1 -63.1 9.2 -61.45 8.45 -60.15 L6.7 -57.7 6.45 -54.6 Q4.4 -54.35 2.95 -53.0 L1.95 -51.8 1.5 -50.9 1.35 -50.55 0.6 -50.55 0.5 -50.5 0.0 -50.4 0.1 -51.3 0.05 -51.65 -0.15 -51.65 -0.25 -51.1 -0.25 -51.2 -0.3 -50.65 -0.5 -50.6 -0.9 -50.45 -1.2 -50.35 -3.7 -50.15 -1.8 -50.65 Q-0.55 -51.0 -1.8 -51.75 -1.05 -51.85 -0.55 -52.15 -0.05 -52.4 0.2 -53.0 L0.1 -53.4 0.0 -53.3 -0.2 -53.15 -0.25 -53.05 Q-0.85 -52.7 -1.6 -52.75 L-1.9 -52.7 -2.85 -52.8 -3.85 -53.1 Q-7.0 -54.05 -9.9 -53.1 L-10.7 -52.65 -10.95 -52.25 -11.55 -52.6 -12.4 -53.35 Q-10.95 -54.4 -9.0 -54.9 L-8.55 -55.05 -8.0 -55.25 Q-6.75 -55.9 -5.85 -57.15 L-5.6 -57.85 -4.65 -60.55 Q-4.05 -62.3 -5.25 -63.75 L-5.35 -63.9 Q-5.85 -64.6 -6.5 -64.6 L-6.65 -64.6 -6.65 -64.65 -5.85 -64.8 -4.95 -64.35 -4.15 -63.75 -3.85 -63.45 -3.65 -63.25 -3.25 -62.6 Q-2.7 -61.6 -2.6 -60.25 L-2.65 -58.25 -2.5 -58.55 Q-2.2 -59.2 -1.6 -58.7 -1.7 -58.2 -1.95 -57.9 0.05 -57.5 1.65 -56.3 L1.8 -56.2 2.05 -56.1 1.4 -55.9 2.1 -56.1 2.75 -56.4 Q4.1 -57.55 5.2 -59.0 L5.4 -59.6 5.8 -61.2 Q4.95 -63.8 3.2 -65.9 L3.05 -66.4 M0.6 -47.8 Q0.5 -46.6 0.95 -45.55 L0.7 -45.35 Q-2.65 -45.85 -5.3 -44.2 L-6.65 -44.15 -8.3 -44.4 Q-9.05 -44.65 -9.65 -45.15 L-10.8 -46.35 -11.05 -46.85 -10.6 -46.6 -10.45 -46.5 Q-9.8 -46.15 -9.0 -46.05 L-9.5 -46.25 Q-7.5 -45.35 -5.3 -45.5 L-4.75 -45.8 -4.65 -45.8 Q-4.1 -45.7 -3.65 -46.0 L-2.15 -47.45 -2.0 -47.5 0.6 -47.8 M-7.6 -41.4 L-7.5 -40.75 -7.45 -40.7 Q-7.25 -40.15 -7.2 -39.6 -7.1 -38.65 -7.5 -37.7 L-7.25 -35.25 -7.05 -34.45 -7.2 -34.55 -7.25 -34.55 -7.3 -34.65 -7.35 -34.7 -7.45 -34.8 -7.45 -34.7 -8.65 -36.15 -9.55 -37.8 -9.95 -39.4 -10.0 -39.65 -9.95 -41.1 -9.9 -41.4 -9.15 -42.15 -8.45 -42.45 -7.55 -42.0 -7.6 -41.55 -7.6 -41.4 M13.9 -29.55 L14.25 -29.45 14.2 -29.2 13.0 -26.2 12.65 -27.35 12.2 -26.9 Q12.65 -26.4 12.45 -25.7 L12.45 -25.65 12.4 -25.55 10.55 -23.9 9.0 -27.8 9.6 -28.1 9.75 -28.35 9.9 -28.65 9.9 -28.75 10.1 -28.95 10.1 -28.9 10.5 -28.5 10.45 -28.6 10.2 -29.2 10.2 -29.25 10.15 -29.35 10.1 -29.4 9.75 -30.2 8.85 -32.45 8.8 -32.45 8.75 -32.85 8.75 -33.05 Q8.8 -33.55 9.25 -33.65 L9.35 -33.7 9.4 -33.7 9.5 -33.65 9.4 -33.55 9.5 -33.35 9.55 -33.3 9.9 -32.6 10.5 -31.75 11.55 -30.75 Q12.55 -29.95 13.9 -29.55 M-6.55 -21.15 L-6.8 -21.2 -6.95 -21.25 -7.9 -21.65 -8.4 -21.9 -8.6 -22.35 Q-8.1 -23.6 -8.4 -24.85 L-8.4 -27.1 -8.4 -27.45 -8.5 -28.8 -8.5 -28.95 -8.55 -29.2 -8.4 -29.55 Q-7.6 -29.95 -7.35 -30.95 L-7.35 -31.0 -7.35 -31.25 -7.4 -31.5 -7.5 -31.8 -7.5 -32.05 -7.2 -32.3 -7.2 -32.25 -7.1 -31.6 -6.5 -29.95 -6.25 -29.55 -5.95 -29.1 -5.95 -29.05 -5.75 -28.85 -5.6 -28.7 -5.2 -28.6 -5.1 -28.6 -5.1 -28.55 -4.95 -27.8 -4.75 -26.85 -4.75 -26.8 -4.75 -26.75 -4.8 -26.75 -4.85 -26.75 -5.2 -26.2 -5.4 -25.85 -5.45 -25.8 Q-5.85 -25.55 -6.3 -25.45 L-6.35 -25.45 -6.45 -25.05 -6.5 -24.9 Q-6.95 -23.1 -6.5 -21.2 L-6.55 -21.15 M-11.95 -24.65 Q-13.45 -26.0 -14.4 -28.05 L-14.3 -28.1 Q-12.8 -29.35 -12.0 -31.05 L-11.85 -31.45 -11.8 -31.6 -11.65 -32.05 -11.5 -32.6 Q-10.95 -34.55 -10.95 -36.4 L-10.25 -36.4 -9.8 -35.8 -9.25 -34.55 -9.1 -33.3 Q-9.15 -32.65 -9.45 -32.0 L-10.25 -30.3 -10.4 -30.05 Q-10.2 -30.45 -10.3 -30.8 L-10.35 -30.95 -10.4 -30.9 Q-11.1 -29.9 -11.9 -29.05 L-12.05 -28.9 Q-12.8 -28.1 -12.5 -27.0 -11.5 -26.15 -11.85 -24.7 L-11.95 -24.65 M-14.5 -34.45 L-14.25 -34.7 -13.85 -35.1 -13.8 -35.1 -12.25 -34.7 Q-12.7 -33.05 -13.75 -31.7 L-14.1 -31.05 Q-14.55 -31.95 -14.6 -32.95 L-14.55 -33.05 -14.5 -34.45 M2.05 -63.2 L2.2 -63.4 2.25 -63.4 2.3 -63.45 2.35 -63.45 Q3.35 -63.55 3.55 -62.6 3.65 -62.15 3.25 -61.95 2.7 -61.7 2.3 -62.1 1.75 -62.55 2.05 -63.2 M0.1 -59.2 Q-0.35 -59.0 -0.6 -59.35 -0.85 -59.65 -0.65 -60.05 L-0.05 -60.65 Q0.7 -60.7 0.7 -60.0 0.65 -59.4 0.1 -59.2 M2.9 -22.3 L2.65 -21.4 2.15 -21.15 2.05 -21.1 2.05 -21.2 Q2.4 -22.9 1.2 -24.15 L1.25 -24.35 1.6 -25.0 2.15 -26.15 2.2 -26.3 3.35 -26.75 4.05 -26.95 4.7 -27.15 4.45 -26.5 4.1 -25.65 2.95 -22.45 2.9 -22.35 2.9 -22.3 M-6.0 -50.15 L-5.35 -50.05 -6.05 -50.15 -6.0 -50.15 M-1.8 -51.75 L-2.15 -51.7 -2.1 -51.75 -1.8 -51.75 M-11.3 -48.15 L-11.3 -48.2 -11.05 -47.8 -11.3 -48.2 -11.3 -48.15 M-11.0 -29.15 L-9.8 -29.0 -8.85 -30.55 -8.1 -31.35 Q-8.0 -30.5 -8.75 -30.0 L-9.2 -29.8 -9.55 -28.05 -9.6 -27.7 -9.95 -27.95 -10.35 -28.25 -11.15 -28.75 -11.25 -28.75 -11.0 -29.15 M-10.8 -34.15 L-10.6 -34.85 -10.8 -34.15" fill="#91533c" fill-rule="evenodd" stroke="none"/>
    <path d="M-6.9 -34.15 L-6.65 -33.55 -5.65 -31.8 -5.25 -31.35 Q-3.45 -29.1 -0.95 -27.7 -0.25 -27.25 0.55 -27.15 L1.95 -27.35 2.65 -27.15 Q5.2 -28.35 7.05 -30.6 L8.35 -32.6 8.4 -32.75 8.5 -33.0 8.6 -33.2 8.75 -33.05 8.75 -32.85 8.8 -32.45 8.85 -32.45 9.75 -30.2 10.1 -29.4 10.15 -29.35 10.2 -29.25 10.2 -29.2 10.1 -28.9 10.1 -28.95 9.9 -28.75 9.9 -28.65 9.75 -28.35 9.6 -28.1 9.0 -27.8 10.55 -23.9 10.6 -23.85 10.2 -23.3 9.5 -22.85 9.45 -23.0 9.4 -23.3 8.5 -24.95 8.5 -25.0 8.45 -25.15 Q7.85 -26.6 7.95 -28.2 L7.95 -28.45 7.95 -28.75 8.0 -28.9 7.35 -29.1 7.3 -29.1 7.25 -29.15 7.2 -29.15 7.15 -29.05 Q6.25 -28.95 5.7 -28.1 L5.3 -27.45 4.8 -27.15 4.75 -26.7 4.6 -25.8 Q4.25 -23.45 3.4 -21.0 L3.25 -20.6 4.2 -20.75 3.6 -20.4 0.1 -20.4 0.15 -21.5 Q0.25 -22.2 -0.45 -22.75 -0.55 -23.45 -0.25 -23.95 L-0.35 -24.7 -0.5 -24.85 -0.15 -26.2 0.3 -26.85 -0.3 -26.9 -2.9 -27.7 -2.85 -27.2 Q-2.9 -26.4 -3.25 -25.65 L-3.7 -25.05 -4.4 -24.15 Q-4.2 -22.5 -3.5 -20.9 L-2.75 -20.9 Q-3.25 -23.05 -2.25 -24.7 L-2.2 -24.85 Q-2.45 -23.65 -1.95 -22.45 -1.55 -21.55 -1.65 -20.55 L-6.35 -21.1 -6.5 -21.2 Q-6.95 -23.1 -6.5 -24.9 L-6.45 -25.05 -6.4 -25.25 -6.3 -25.45 Q-5.85 -25.55 -5.45 -25.8 L-5.4 -25.85 -5.2 -26.2 -4.85 -26.75 -4.8 -26.75 -4.75 -26.75 -4.75 -26.8 -4.75 -26.85 -4.95 -27.8 -5.1 -28.55 -5.0 -28.6 -5.45 -28.7 Q-5.55 -28.7 -5.65 -28.8 L-5.75 -28.85 -5.95 -29.05 -5.95 -29.1 -6.25 -29.55 -6.5 -29.95 -6.7 -30.4 -6.85 -31.1 -7.05 -31.55 -7.1 -31.6 -7.2 -32.25 -7.2 -32.3 -7.2 -32.65 -7.3 -33.0 -7.45 -34.7 -7.45 -34.8 -7.35 -34.7 -7.3 -34.65 -7.25 -34.55 -7.2 -34.55 -7.15 -34.45 -7.05 -34.45 -6.9 -34.15 M8.85 -33.95 L8.9 -34.05 8.9 -34.15 9.2 -35.65 9.2 -35.75 9.2 -36.55 9.25 -37.0 9.25 -37.15 9.25 -37.35 9.3 -39.15 9.7 -39.25 9.75 -39.2 9.85 -39.25 10.25 -39.35 10.2 -39.2 Q10.05 -37.75 10.35 -36.5 L10.4 -36.45 10.35 -36.4 10.45 -36.25 10.45 -36.2 10.5 -36.1 10.55 -36.0 10.25 -35.45 9.95 -35.1 8.85 -33.95 M10.6 -36.5 L10.65 -36.6 10.8 -38.35 10.8 -38.4 11.85 -38.4 13.3 -33.75 Q12.45 -33.5 11.7 -34.1 11.3 -34.45 11.05 -34.9 L10.6 -36.1 10.6 -36.5 M8.4 -22.15 L8.25 -22.05 Q7.9 -21.8 7.45 -21.65 L7.45 -21.6 6.0 -21.15 5.85 -21.7 5.95 -21.2 5.7 -21.2 Q5.4 -21.2 5.25 -21.35 L5.15 -21.7 Q5.15 -23.65 6.9 -24.7 7.35 -25.2 7.85 -24.7 7.55 -24.35 7.1 -24.3 7.6 -22.95 8.4 -22.15 M-8.7 -22.1 L-10.9 -23.5 -11.85 -24.65 -11.85 -24.7 Q-11.5 -26.15 -12.5 -27.0 -12.8 -28.1 -12.05 -28.9 L-11.9 -29.05 Q-11.1 -29.9 -10.4 -30.9 L-10.3 -30.8 Q-10.2 -30.45 -10.4 -30.05 L-10.55 -29.8 -10.85 -29.35 -11.0 -29.15 -11.25 -28.75 -11.15 -28.75 -10.35 -28.25 -9.95 -27.95 -9.6 -27.7 -9.65 -27.25 -9.55 -28.05 -9.2 -29.8 -8.75 -30.0 Q-8.0 -30.5 -8.1 -31.35 L-8.2 -32.25 -8.25 -32.85 -8.2 -33.25 -7.9 -32.75 -7.5 -31.8 -7.4 -31.5 -7.35 -31.25 -7.35 -31.0 -7.35 -30.95 Q-7.6 -29.95 -8.4 -29.55 L-8.55 -29.2 -8.5 -28.95 -8.5 -28.8 -8.4 -27.45 -8.4 -27.1 -8.4 -24.85 Q-8.1 -23.6 -8.6 -22.35 L-8.7 -22.1 M-14.3 -28.1 Q-15.15 -30.05 -14.85 -32.15 L-14.75 -33.0 -14.6 -32.95 Q-14.55 -31.95 -14.1 -31.05 L-13.75 -31.7 Q-12.7 -33.05 -12.25 -34.7 L-11.65 -35.85 -11.25 -36.5 Q-11.0 -37.0 -10.95 -36.4 -10.95 -34.55 -11.5 -32.6 L-11.65 -32.05 -11.8 -31.6 -11.85 -31.45 -12.0 -31.05 Q-12.8 -29.35 -14.3 -28.1 M-13.0 -51.85 L-13.45 -52.35 -13.65 -52.65 -13.4 -53.75 Q-12.65 -55.0 -11.45 -55.6 L-10.45 -56.0 -10.25 -56.1 -10.05 -56.15 -9.85 -56.2 -7.9 -56.65 -6.9 -56.8 -6.8 -56.95 -6.8 -57.0 -6.75 -57.05 -6.5 -57.65 Q-5.95 -59.05 -5.75 -60.6 L-5.75 -60.85 -5.75 -61.05 -5.8 -61.5 -5.8 -61.65 -5.85 -61.85 Q-6.1 -62.75 -6.65 -63.45 L-7.0 -63.85 -6.75 -64.4 -6.5 -64.6 Q-5.85 -64.6 -5.35 -63.9 L-5.25 -63.75 Q-4.05 -62.3 -4.65 -60.55 L-5.6 -57.85 -5.85 -57.15 Q-6.75 -55.9 -8.0 -55.25 L-8.55 -55.05 -9.0 -54.9 Q-10.95 -54.4 -12.4 -53.35 L-12.85 -51.8 -13.0 -51.85 M-3.7 -50.15 L-1.2 -50.35 -0.9 -50.45 -0.5 -50.6 -0.3 -50.65 -0.25 -51.2 -0.25 -51.1 -0.15 -51.65 0.05 -51.65 0.1 -51.3 0.0 -50.4 -0.2 -50.1 -0.3 -49.9 -0.4 -49.85 -1.4 -49.25 -2.0 -49.0 -2.45 -48.85 -4.0 -48.15 -4.2 -48.0 -4.35 -47.9 Q-5.25 -47.3 -6.3 -47.2 -8.8 -47.75 -10.9 -48.9 L-11.8 -49.4 -10.5 -49.9 -9.15 -50.25 -7.7 -50.3 -6.15 -50.15 -6.05 -50.15 -5.35 -50.05 -3.7 -50.15 M2.95 -22.45 L4.1 -25.65 4.45 -26.5 4.7 -27.15 4.05 -26.95 3.35 -26.75 2.2 -26.3 2.15 -26.15 1.6 -25.0 1.25 -24.35 1.2 -24.15 Q2.4 -22.9 2.05 -21.2 L2.05 -21.1 2.15 -21.15 2.65 -21.4 2.9 -22.3 2.95 -22.45 M-6.0 -49.25 L-7.55 -49.35 -7.6 -49.35 -9.35 -49.2 -8.05 -48.35 -6.0 -48.2 Q-5.0 -48.6 -4.1 -49.1 L-6.0 -49.25" fill="#533022" fill-rule="evenodd" stroke="none"/>
    <path d="M0.95 -45.55 L1.05 -45.3 0.7 -45.35 0.95 -45.55 M-5.3 -44.2 L-6.55 -43.3 -6.6 -43.25 -7.1 -42.7 -7.55 -41.55 -7.6 -41.4 -7.6 -41.55 -7.55 -42.0 -8.45 -42.45 -9.15 -42.15 -9.9 -41.4 -9.95 -41.1 -10.0 -39.65 -9.95 -39.4 -9.55 -37.8 -8.65 -36.15 -7.45 -34.7 -7.3 -33.0 -7.2 -32.3 -7.5 -32.05 -7.5 -31.8 -7.9 -32.75 -8.2 -33.25 -8.25 -32.85 -8.2 -32.25 -8.1 -31.35 -8.85 -30.55 -9.8 -29.0 -11.0 -29.15 -10.85 -29.35 -10.55 -29.8 -10.4 -30.05 -10.25 -30.3 -9.45 -32.0 Q-9.15 -32.65 -9.1 -33.3 L-9.25 -34.55 -9.8 -35.8 -10.25 -36.4 -10.95 -36.4 Q-11.0 -37.0 -11.25 -36.5 L-11.65 -35.85 -12.25 -34.7 -13.8 -35.1 -13.8 -35.2 -12.15 -37.6 -11.45 -39.05 -11.4 -39.35 -11.2 -40.6 -11.15 -40.85 -11.15 -42.45 -11.15 -42.5 -11.25 -43.75 -11.75 -45.3 -12.65 -46.95 -12.8 -47.4 -12.9 -47.45 -12.95 -47.7 -13.1 -49.75 -13.05 -49.85 Q-12.8 -50.75 -12.85 -51.75 L-12.85 -51.8 -12.4 -53.35 -11.55 -52.6 -10.95 -52.25 -10.55 -52.15 -10.7 -52.0 -11.35 -51.4 -10.7 -51.3 -8.8 -51.4 -7.1 -51.5 -5.45 -51.45 -4.25 -51.65 Q-3.6 -51.65 -4.15 -51.9 L-1.8 -51.75 Q-0.55 -51.0 -1.8 -50.65 L-3.7 -50.15 -5.35 -50.05 -6.0 -50.15 -6.15 -50.15 -7.7 -50.3 -9.15 -50.25 -10.5 -49.9 -11.8 -49.4 -10.9 -48.9 -11.3 -48.2 -11.3 -48.15 -11.45 -47.8 -11.45 -47.7 -11.4 -47.4 -11.05 -46.85 -10.8 -46.35 -9.65 -45.15 Q-9.05 -44.65 -8.3 -44.4 L-6.65 -44.15 -5.3 -44.2 M-7.25 -35.25 L-6.9 -34.15 -7.05 -34.45 -7.15 -34.45 -7.2 -34.55 -7.05 -34.45 -7.25 -35.25 M9.2 -36.55 L9.25 -38.1 9.25 -37.35 9.25 -37.15 9.25 -37.0 9.2 -36.55 M9.4 -22.8 Q9.25 -22.2 8.5 -22.0 L8.4 -22.15 Q7.6 -22.95 7.1 -24.3 7.55 -24.35 7.85 -24.7 7.35 -25.2 6.9 -24.7 5.15 -23.65 5.15 -21.7 L5.25 -21.35 5.3 -21.0 4.2 -20.75 3.25 -20.6 3.4 -21.0 Q4.25 -23.45 4.6 -25.8 L4.75 -26.7 4.8 -27.15 5.3 -27.45 5.7 -28.1 Q6.25 -28.95 7.15 -29.05 L7.2 -29.15 7.25 -29.15 7.3 -29.1 7.35 -29.1 8.0 -28.9 7.95 -28.75 7.95 -28.45 7.95 -28.2 Q7.85 -26.6 8.45 -25.15 L8.5 -24.95 9.4 -23.3 9.45 -23.0 9.4 -22.8 M0.1 -20.4 L-0.3 -20.45 -1.65 -20.55 Q-1.55 -21.55 -1.95 -22.45 -2.45 -23.65 -2.2 -24.85 L-2.25 -24.85 -2.25 -24.7 Q-3.25 -23.05 -2.75 -20.9 L-3.5 -20.9 Q-4.2 -22.5 -4.4 -24.15 L-3.7 -25.05 -3.25 -25.65 Q-2.9 -26.4 -2.85 -27.2 L-2.9 -27.7 -0.3 -26.9 0.3 -26.85 -0.15 -26.2 -0.5 -24.85 -0.35 -24.7 -0.25 -23.95 Q-0.55 -23.45 -0.45 -22.75 0.25 -22.2 0.15 -21.5 L0.1 -20.4 M-6.5 -21.2 L-6.45 -21.15 -6.55 -21.15 -6.5 -21.2 M-8.4 -21.9 L-8.7 -22.1 -8.6 -22.35 -8.4 -21.9 M-6.65 -64.6 L-6.65 -64.85 Q-4.0 -66.75 -0.6 -66.8 L3.05 -66.4 3.2 -65.9 Q4.95 -63.8 5.8 -61.2 L5.4 -59.6 5.2 -59.0 Q4.1 -57.55 2.75 -56.4 L2.1 -56.1 1.4 -55.9 2.05 -56.1 1.8 -56.2 1.65 -56.3 Q0.05 -57.5 -1.95 -57.9 -1.7 -58.2 -1.6 -58.7 -2.2 -59.2 -2.5 -58.55 L-2.65 -58.25 -2.6 -60.25 Q-2.7 -61.6 -3.25 -62.6 -1.8 -62.5 -0.6 -63.2 L0.5 -63.9 Q1.1 -64.4 1.0 -65.15 L0.8 -65.4 0.6 -65.5 0.35 -65.65 -0.6 -65.7 -1.85 -65.55 -4.65 -64.6 -4.95 -64.35 -5.85 -64.8 -6.65 -64.65 -6.65 -64.6 M2.05 -63.2 Q1.75 -62.55 2.3 -62.1 2.7 -61.7 3.25 -61.95 3.65 -62.15 3.55 -62.6 3.35 -63.55 2.35 -63.45 L2.3 -63.45 2.25 -63.4 2.2 -63.4 2.05 -63.2 M0.1 -59.2 Q0.65 -59.4 0.7 -60.0 0.7 -60.7 -0.05 -60.65 L-0.65 -60.05 Q-0.85 -59.65 -0.6 -59.35 -0.35 -59.0 0.1 -59.2 M-1.8 -51.75 L-2.1 -51.75 -2.15 -51.7 -1.8 -51.75 M-9.6 -27.7 L-9.55 -28.05 -9.65 -27.25 -9.6 -27.7" fill="#a35e43" fill-rule="evenodd" stroke="none"/>
    <path d="M-18.8 37.75 L-18.9 37.15 -18.9 37.1 -18.75 37.5 -18.65 37.85 -18.8 37.75 M-13.65 -52.65 L-13.65 -52.5 -13.7 -52.65 -14.3 -53.75 -14.45 -54.1 -14.4 -53.95 -14.1 -54.55 -13.0 -56.0 -12.1 -56.75 -10.85 -57.3 -10.55 -57.35 -9.5 -57.7 -8.95 -57.9 -8.9 -57.95 -7.4 -57.55 -7.35 -57.5 -7.65 -56.7 -7.9 -56.65 -9.85 -56.2 -10.05 -56.15 -10.25 -56.1 -10.45 -56.0 -11.45 -55.6 Q-12.65 -55.0 -13.4 -53.75 L-13.65 -52.65 M-7.25 -63.95 L-7.25 -64.05 -7.2 -64.0 -7.25 -63.95 M11.5 -61.1 Q12.15 -61.0 12.55 -60.55 L12.55 -60.7 Q15.15 -57.15 15.4 -52.6 15.6 -48.2 13.8 -44.5 L13.7 -44.35 Q12.85 -42.7 11.4 -42.1 L10.4 -41.8 9.55 -41.6 8.85 -41.3 8.8 -41.1 8.55 -40.4 8.4 -40.2 8.2 -39.7 7.9 -39.3 7.85 -39.25 6.3 -37.5 Q5.4 -35.6 5.15 -33.45 L4.5 -29.2 4.35 -29.15 3.05 -28.3 2.7 -28.25 2.95 -28.45 3.05 -28.5 Q3.85 -31.25 3.9 -33.95 L4.25 -35.25 4.75 -36.65 5.5 -38.0 5.9 -38.55 5.9 -38.5 7.0 -39.65 7.05 -39.65 7.4 -40.15 7.85 -40.6 8.45 -41.05 8.5 -41.05 8.45 -41.1 8.45 -41.15 8.25 -41.6 7.95 -42.0 Q7.85 -42.5 8.45 -42.8 L8.5 -42.8 8.9 -42.95 9.0 -43.0 9.05 -43.05 9.1 -43.1 9.45 -43.35 9.5 -43.4 10.0 -43.7 10.55 -44.0 Q11.4 -44.4 12.0 -45.3 13.55 -48.3 12.0 -51.4 10.8 -53.0 9.15 -53.85 L9.1 -53.85 8.75 -54.05 Q8.85 -54.3 9.1 -54.25 L9.1 -54.6 9.15 -54.6 Q9.25 -54.2 9.75 -54.2 L9.75 -54.1 10.05 -53.95 10.1 -53.95 10.6 -53.65 Q12.25 -52.6 13.0 -50.75 L13.2 -50.25 Q13.7 -48.2 13.05 -46.35 L13.3 -47.25 13.85 -49.0 Q14.2 -50.75 14.15 -52.4 L14.15 -52.85 Q13.85 -55.1 12.7 -57.1 L11.75 -58.4 11.45 -58.8 11.25 -58.85 11.35 -59.05 11.5 -59.3 11.75 -60.5 11.5 -61.1 M4.75 -29.4 L4.7 -29.35 4.75 -29.4 M-0.35 -28.5 L-0.85 -28.7 -1.4 -29.1 -1.75 -29.65 -1.8 -29.7 -1.9 -30.5 Q-2.15 -32.1 -2.7 -33.6 L-2.7 -33.65 -2.8 -33.8 Q-3.75 -36.15 -5.5 -38.05 L-6.2 -38.75 -6.2 -38.9 -6.15 -39.35 -6.05 -39.7 -5.85 -40.1 -5.8 -40.05 -5.35 -40.0 -5.15 -39.8 Q-2.6 -37.2 -1.55 -33.8 L-1.5 -33.35 Q-1.2 -31.2 -0.55 -29.15 L-0.4 -28.55 -0.35 -28.5 M-4.2 -12.4 L-4.8 -12.6 -4.95 -12.65 Q-4.9 -14.25 -4.3 -15.7 L-4.05 -16.15 -2.9 -17.4 -1.5 -17.9 0.1 -17.8 4.45 -18.3 Q7.35 -18.9 9.85 -20.15 12.25 -21.3 14.1 -23.1 16.1 -25.2 17.3 -27.7 L17.65 -28.55 17.85 -29.45 17.9 -29.5 17.9 -29.55 18.05 -29.8 18.0 -30.4 18.0 -30.5 18.0 -30.6 18.05 -32.0 17.8 -33.25 17.7 -33.5 Q17.35 -34.95 16.4 -36.1 L15.7 -36.85 15.15 -37.5 14.7 -37.95 14.5 -37.8 14.25 -37.95 13.15 -38.5 12.85 -38.65 12.6 -39.75 13.4 -39.7 13.6 -39.6 15.8 -38.65 15.75 -38.55 Q17.95 -37.5 18.65 -34.95 19.15 -33.2 19.2 -31.3 L19.2 -29.9 Q18.95 -27.6 17.75 -25.6 L17.35 -25.15 16.3 -23.7 16.3 -23.65 Q14.2 -21.35 11.55 -19.85 L10.35 -19.2 Q7.95 -18.05 5.3 -17.6 L2.75 -17.15 3.1 -17.2 2.95 -17.1 -0.55 -16.55 Q-1.8 -16.5 -2.85 -15.85 -4.05 -14.5 -4.2 -12.7 L-4.2 -12.4 M30.2 -13.5 L30.05 -13.8 30.25 -13.85 Q31.0 -14.0 31.55 -14.5 L32.3 -15.45 32.4 -15.4 32.6 -15.4 32.6 -15.3 32.85 -14.75 33.35 -14.3 32.15 -13.3 31.1 -12.85 30.5 -12.75 30.25 -13.3 30.2 -13.5 M-19.9 57.0 L-19.9 57.15 -19.95 57.05 -20.25 56.7 Q-19.9 56.75 -19.9 57.0 M-22.75 49.65 L-22.75 49.5 -22.65 49.5 -22.75 49.65 M-22.45 46.15 L-22.25 45.6 -22.35 46.2 -22.45 46.15 M-21.85 44.9 L-21.75 44.55 -21.6 44.65 -21.85 44.95 -21.85 44.9 M-18.65 37.9 L-18.6 37.7 -18.4 38.15 -18.65 37.9 M2.1 57.65 L3.4 57.45 Q5.15 57.15 6.7 56.25 L7.6 55.65 Q4.95 60.95 3.35 66.65 L2.55 67.45 -2.05 67.0 Q-3.55 61.05 -6.1 55.75 L-5.3 56.25 Q-3.75 57.15 -1.95 57.45 L-1.0 57.6 -0.6 59.4 1.85 59.65 Q1.7 58.55 2.1 57.65 M23.6 46.0 L23.65 45.95 23.7 46.2 23.6 46.0" fill="#4d4f4d" fill-rule="evenodd" stroke="none"/>
    <path d="M-19.8 34.5 L-19.9 34.4 -20.0 33.9 -19.8 34.5 M-7.3 -63.9 L-7.25 -63.95 -7.2 -64.0 -6.65 -63.45 Q-6.1 -62.75 -5.85 -61.85 L-5.8 -61.65 -5.8 -61.5 -5.75 -61.05 -5.75 -60.85 -5.75 -60.6 Q-5.95 -59.05 -6.5 -57.65 L-6.75 -57.05 -6.8 -57.0 -6.8 -56.95 -6.9 -56.8 -7.9 -56.65 -7.65 -56.7 -7.35 -57.5 -7.4 -57.55 -8.9 -57.95 -8.95 -57.9 -9.5 -57.7 -8.6 -58.1 -8.3 -58.3 -8.25 -58.3 -8.25 -58.35 -8.15 -58.4 -8.1 -58.4 -7.8 -58.7 -7.6 -58.9 Q-7.0 -59.9 -7.05 -61.05 L-7.05 -61.6 -7.15 -62.7 -7.15 -63.25 -7.25 -63.85 -7.3 -63.9 M9.7 -59.55 L10.75 -60.75 10.8 -60.85 10.9 -61.25 11.5 -61.1 11.75 -60.5 11.5 -59.3 11.35 -59.05 11.25 -58.85 11.45 -58.8 11.75 -58.4 12.7 -57.1 Q13.85 -55.1 14.15 -52.85 L14.15 -52.4 Q14.2 -50.75 13.85 -49.0 L13.3 -47.25 13.05 -46.35 Q13.7 -48.2 13.2 -50.25 L13.0 -50.75 Q12.25 -52.6 10.6 -53.65 L10.1 -53.95 10.05 -53.95 9.75 -54.25 9.75 -54.2 Q9.25 -54.2 9.15 -54.6 L9.15 -55.3 9.1 -54.6 9.1 -54.25 Q8.85 -54.3 8.75 -54.05 L9.1 -53.85 9.15 -53.85 Q9.15 -53.85 9.25 -53.8 L7.35 -53.95 7.5 -54.15 7.6 -54.25 7.75 -54.5 7.85 -54.7 7.85 -55.35 9.15 -55.3 9.2 -57.0 Q10.5 -57.7 11.3 -58.95 L10.35 -59.45 9.7 -59.55 M8.2 -39.7 L8.25 -39.75 8.25 -39.5 Q8.25 -36.65 7.75 -33.85 7.15 -31.05 4.75 -29.4 L4.7 -29.35 4.5 -29.2 5.15 -33.45 Q5.4 -35.6 6.3 -37.5 L7.85 -39.25 7.9 -39.3 8.2 -39.7 M-1.9 -30.5 L-1.8 -29.6 Q-4.15 -31.2 -5.55 -33.65 -7.05 -36.1 -6.4 -38.95 L-6.2 -38.75 -5.5 -38.05 Q-3.75 -36.15 -2.8 -33.8 L-2.7 -33.6 Q-2.15 -32.1 -1.9 -30.5 M-5.9 -42.15 L-5.9 -42.4 -5.65 -42.75 -5.35 -42.65 -4.35 -41.75 -3.05 -40.3 -2.8 -40.05 Q-2.0 -38.9 -1.85 -37.65 L-1.8 -37.35 -1.8 -37.25 Q-2.5 -38.75 -3.5 -39.95 L-5.3 -41.7 -5.9 -42.15 M2.2 -44.45 Q2.45 -44.7 2.75 -44.75 L2.2 -45.3 2.1 -45.5 1.85 -46.2 1.65 -47.15 2.3 -47.25 3.0 -47.35 3.1 -46.75 3.1 -46.7 3.15 -46.55 3.2 -46.5 Q3.45 -45.5 4.3 -45.05 L4.9 -44.8 Q4.75 -45.4 4.2 -45.8 L3.7 -46.4 4.9 -46.75 5.35 -46.25 Q6.55 -45.4 8.05 -45.5 9.25 -45.8 9.75 -46.9 10.05 -48.4 9.4 -49.7 L9.75 -49.95 10.55 -50.55 10.95 -48.3 Q11.05 -46.8 9.95 -45.6 L10.9 -46.4 9.75 -44.9 10.05 -44.65 10.5 -44.0 10.0 -43.7 9.5 -43.4 9.45 -43.35 9.1 -43.1 9.05 -43.05 9.0 -43.0 8.9 -42.95 8.5 -42.8 8.45 -42.8 Q7.85 -42.5 7.95 -42.0 L8.25 -41.6 7.6 -42.35 6.65 -43.0 6.35 -43.2 Q4.55 -44.2 2.55 -44.5 L2.3 -44.45 2.25 -44.45 2.2 -44.45 M7.6 -57.25 L7.6 -57.5 7.65 -57.55 7.8 -57.65 7.75 -57.6 7.6 -57.25 M8.85 -49.3 Q7.9 -50.75 6.25 -50.45 4.95 -49.65 5.0 -48.15 L5.4 -47.25 5.35 -47.2 Q5.1 -46.8 4.7 -47.05 4.2 -48.0 4.5 -49.2 5.05 -50.7 6.35 -51.15 8.0 -51.35 9.1 -50.25 L9.15 -50.15 9.4 -49.75 9.15 -49.55 8.85 -49.3 M17.2 -21.55 L15.15 -20.1 12.35 -17.4 9.65 -14.7 7.35 -13.2 5.25 -12.4 4.7 -12.25 2.3 -11.95 1.0 -11.9 0.15 -11.9 -1.2 -11.95 -3.6 -12.25 -4.1 -12.4 -4.2 -12.4 -4.2 -12.7 Q-4.05 -14.5 -2.85 -15.85 -1.8 -16.5 -0.55 -16.55 L2.95 -17.1 3.1 -17.2 2.75 -17.15 5.3 -17.6 Q7.95 -18.05 10.35 -19.2 L11.55 -19.85 Q14.2 -21.35 16.3 -23.65 L16.3 -23.7 17.0 -24.55 17.75 -25.6 Q18.95 -27.6 19.2 -29.9 L19.2 -31.3 Q19.15 -33.2 18.65 -34.95 17.95 -37.5 15.75 -38.55 L15.85 -38.6 19.8 -36.35 Q20.05 -35.65 20.75 -35.1 L21.4 -32.75 22.0 -28.95 Q20.8 -26.0 18.85 -23.4 L18.55 -23.05 16.8 -21.3 17.2 -21.55 M16.4 -36.1 L15.55 -37.0 14.5 -37.8 14.7 -37.95 15.15 -37.5 15.7 -36.85 16.4 -36.1 M8.45 -41.15 L8.45 -41.1 8.5 -41.05 8.45 -41.05 8.45 -41.15 M33.35 -14.3 L35.05 -14.05 36.95 -14.3 36.75 -14.25 36.75 -14.2 37.15 -14.35 Q38.6 -14.7 39.95 -15.35 L40.6 -13.95 40.0 -13.75 38.9 -13.4 38.75 -13.35 38.05 -13.1 37.35 -12.8 37.4 -12.85 34.65 -11.3 34.65 -11.15 34.45 -10.8 34.35 -10.6 Q34.05 -9.6 34.1 -8.55 34.2 -7.5 34.65 -6.45 L34.75 -6.15 34.75 -5.95 34.8 -5.9 Q35.1 -5.35 35.75 -5.1 L32.05 -4.75 32.15 -5.7 32.1 -6.6 31.9 -8.55 31.7 -9.4 31.45 -10.2 30.5 -12.75 31.1 -12.85 32.15 -13.3 33.35 -14.3 M-34.5 -30.25 L-33.6 -29.75 -34.5 -30.25 M-46.25 13.55 L-47.5 11.85 -47.75 11.3 -48.1 10.5 -48.0 10.45 -47.4 10.65 -47.15 10.75 -47.0 10.75 -45.75 11.25 -44.55 11.6 -42.8 12.1 -41.25 12.5 -40.6 12.55 -38.7 12.6 -38.65 12.65 -35.3 12.75 -34.4 12.45 Q-32.4 11.5 -31.65 9.4 L-31.4 8.55 Q-30.85 6.15 -31.4 3.7 -31.65 2.5 -32.25 1.45 -32.95 0.1 -34.1 -0.5 L-34.3 -1.0 -34.95 -1.55 -35.15 -1.75 -35.2 -1.75 -35.2 -1.8 -35.45 -1.95 -36.05 -2.3 -36.65 -2.35 -37.8 -2.4 -37.9 -2.4 -39.05 -2.45 -39.2 -3.6 -39.0 -6.15 -36.8 -6.25 -36.55 -6.45 Q-35.55 -5.85 -34.2 -5.85 -33.75 -5.3 -33.0 -5.1 L-32.45 -4.75 -32.3 -3.05 Q-31.7 -0.4 -30.7 2.15 -29.8 4.55 -29.65 7.15 -29.55 9.85 -30.65 12.25 -32.3 15.75 -36.3 16.0 L-38.2 15.95 Q-42.5 15.6 -46.25 13.55 M-41.15 -12.7 L-41.15 -12.75 -41.1 -12.8 -41.15 -12.7 M3.4 3.4 L3.55 3.45 3.5 3.5 3.4 3.4 M-6.35 5.3 L-6.4 5.0 -6.25 5.0 -6.35 4.75 -6.25 4.65 -5.9 4.4 -6.35 5.3 M-19.65 25.35 L-19.45 24.35 Q-19.2 23.15 -18.5 22.2 L-17.9 21.4 -17.6 21.45 -17.5 21.65 -17.35 22.05 -16.1 24.55 Q-15.5 26.65 -14.1 28.45 L-13.95 28.7 -13.95 28.75 -13.9 28.75 -13.85 28.85 -13.45 29.25 -12.9 30.1 -12.65 30.4 Q-14.0 31.05 -15.3 32.0 L-16.6 29.25 -16.65 28.9 -17.05 27.25 -17.2 27.05 -17.5 27.0 Q-18.35 28.75 -18.25 30.75 L-19.7 27.2 -19.45 26.55 Q-18.55 24.9 -16.75 24.9 L-16.1 24.6 -16.45 24.4 Q-18.2 24.4 -19.65 25.35 M-12.15 31.0 L-11.25 32.05 -10.45 32.95 -9.7 33.7 -8.25 34.9 -8.1 34.9 -8.1 34.85 -6.65 34.9 Q-6.15 34.35 -5.95 33.6 L-5.75 32.2 -5.85 30.75 Q-6.0 30.1 -6.3 29.75 L-4.4 28.45 -2.85 27.85 -1.15 27.65 -1.1 27.7 0.7 27.75 2.55 27.7 2.55 27.65 4.3 27.85 5.6 28.35 5.65 29.7 Q6.0 32.1 4.85 34.45 4.9 33.0 4.3 31.65 3.45 30.3 1.95 30.05 L-1.0 29.95 -2.85 30.85 -3.35 31.15 Q-4.5 31.85 -4.85 33.15 -5.2 34.95 -4.15 36.3 -3.35 37.4 -2.35 38.15 L-2.55 40.45 Q-5.8 41.15 -8.8 42.65 -10.25 42.95 -11.5 43.9 -12.7 44.8 -13.5 46.0 L-14.8 43.6 -15.0 43.25 -16.4 40.35 -16.5 40.2 -16.5 40.0 -17.45 38.0 -18.1 36.45 -17.4 35.35 -16.95 36.95 Q-15.95 39.7 -13.3 40.2 -12.8 39.85 -12.75 39.25 -12.6 38.3 -13.0 37.35 L-15.0 32.7 Q-13.65 31.65 -12.15 31.0 M-10.7 31.6 L-10.75 31.55 -10.75 31.5 -10.35 31.55 -10.7 31.55 -10.7 31.6 M10.45 34.3 L11.1 33.7 11.85 32.95 12.65 32.05 13.5 31.05 14.5 31.6 16.7 33.05 16.95 33.3 17.45 33.75 17.0 35.15 Q15.2 40.05 12.6 44.45 10.05 41.85 6.7 40.7 9.2 37.85 10.45 34.3 M13.8 30.7 L14.35 30.1 14.4 30.0 Q16.45 29.8 17.8 31.45 L17.6 32.95 16.3 31.95 Q15.1 31.15 13.8 30.7 M-11.4 49.0 L-12.5 47.5 -13.3 46.3 -12.4 45.3 -11.4 44.6 Q-7.3 42.15 -2.6 40.95 L-2.65 41.3 -2.95 46.6 -3.15 48.7 -3.2 49.5 -3.5 51.7 -3.45 52.4 -3.5 52.75 -3.45 52.7 -3.4 53.0 Q-5.15 52.7 -6.9 52.05 L-8.35 51.25 -10.15 50.15 -10.7 49.75 -11.05 49.2 -11.4 49.0 M-18.45 35.55 L-18.5 35.5 -18.6 35.15 -19.1 33.7 -19.55 32.1 -19.85 30.3 -20.0 28.25 -20.0 28.1 -19.85 28.7 Q-19.35 30.65 -18.1 32.2 L-17.7 34.35 -18.45 35.55 M-16.1 43.1 L-14.65 45.85 -14.05 46.85 Q-14.55 46.35 -15.2 46.1 L-15.35 46.0 -16.1 46.05 -16.8 46.2 -18.4 46.8 Q-19.2 47.2 -19.85 47.75 L-21.1 49.05 -21.2 49.8 -21.25 49.9 Q-21.55 51.65 -19.9 52.4 L-19.85 52.45 -18.75 52.5 -17.65 51.0 -15.35 48.85 -14.55 48.6 -14.1 48.55 -14.0 48.5 -13.4 48.3 -13.45 48.0 -13.45 47.75 -12.25 49.55 -11.45 50.55 -11.95 50.15 -13.8 49.2 -13.95 49.25 -15.85 49.95 -17.15 51.6 -17.5 52.15 Q-17.55 54.15 -16.35 55.75 -16.2 55.85 -16.0 56.0 L-14.65 56.75 Q-13.75 57.05 -12.95 57.45 L-13.45 57.2 -13.0 57.3 -12.5 57.25 -10.35 56.65 -10.2 56.6 Q-9.7 55.65 -9.55 54.5 -9.5 53.8 -9.75 53.05 L-10.35 51.85 -8.95 53.25 -7.75 54.35 -7.4 55.45 -7.1 56.0 -6.95 56.55 -5.9 59.25 -5.6 59.85 -5.45 60.3 -5.45 60.5 -5.15 61.2 Q-12.25 62.95 -18.25 59.0 L-18.3 58.9 -18.4 58.7 -19.9 57.0 Q-19.9 56.75 -20.25 56.7 L-21.55 54.45 -22.4 52.05 -22.3 51.55 -22.4 51.4 -22.6 50.65 -22.6 49.45 -22.65 49.5 -22.75 49.5 -22.65 48.2 -22.6 46.8 -22.45 46.15 -22.35 46.2 -22.35 46.55 -22.3 46.85 -21.35 47.95 -20.55 47.25 -20.25 47.05 -18.85 46.2 Q-18.1 45.8 -17.15 45.7 L-16.75 45.65 Q-15.6 45.55 -15.5 44.35 -16.3 43.8 -17.15 43.5 L-18.45 43.25 Q-19.7 43.15 -20.7 43.8 L-21.35 44.35 -21.45 44.45 -21.6 44.65 -21.75 44.55 -21.1 43.5 -20.7 42.9 -19.95 42.75 -17.85 42.65 -17.5 42.7 -16.1 43.1 M-21.9 44.95 L-21.85 44.9 -21.85 44.95 -21.9 44.95 M-1.9 40.9 L-1.9 40.8 -1.8 40.75 -1.45 40.7 -1.65 40.8 -0.45 40.5 0.05 40.4 0.7 40.4 0.15 41.05 Q-0.3 41.6 0.2 42.1 1.75 43.75 3.45 43.25 L3.45 43.3 3.7 45.95 3.75 48.45 Q3.7 50.65 3.95 52.3 L4.0 52.35 4.0 52.6 -2.55 53.1 -2.5 52.9 Q-2.45 52.5 -2.55 52.15 L-2.5 48.45 -2.4 45.9 -2.05 41.95 -1.95 41.9 -2.0 41.7 -1.9 41.05 -1.75 40.85 -1.9 40.9 M-1.8 38.55 L-1.2 38.7 Q0.4 38.9 1.75 38.1 L2.9 37.35 2.95 37.6 1.15 39.9 -1.85 40.3 -1.8 38.55 M-1.0 57.6 L0.7 57.7 2.1 57.65 Q1.7 58.55 1.85 59.65 L-0.6 59.4 -1.0 57.6 M6.2 41.25 Q9.4 42.4 11.8 44.95 L12.1 45.25 8.8 49.9 Q7.7 51.3 6.05 51.9 L4.9 52.35 4.85 52.05 4.7 51.6 Q4.35 50.3 4.5 49.5 L4.55 48.6 4.35 46.95 4.0 43.65 3.95 43.05 5.2 42.2 6.2 41.25 M18.25 42.6 L19.95 42.75 20.1 42.75 20.4 42.9 20.5 42.95 21.85 43.7 21.85 43.75 21.85 43.7 21.9 43.35 21.6 42.1 22.1 42.65 Q23.25 44.05 23.65 45.95 L23.6 46.0 23.75 47.2 23.75 48.95 23.8 49.75 23.8 49.9 23.75 50.2 23.75 50.55 23.6 51.05 23.65 51.45 23.65 51.75 Q23.65 52.65 23.25 53.55 L21.4 56.95 20.55 57.85 20.25 58.1 Q19.6 59.15 18.4 59.7 L17.85 59.85 17.45 60.2 Q14.95 61.35 12.0 61.55 9.05 61.75 6.8 60.35 L7.0 59.55 7.15 59.6 Q7.3 58.35 7.95 57.2 L8.3 56.4 8.65 55.6 8.65 55.9 8.75 56.2 Q9.55 57.35 10.85 57.7 13.5 58.45 15.8 57.25 L16.8 56.4 Q17.7 55.7 18.0 54.7 L18.3 54.25 18.45 53.85 18.55 53.65 18.65 53.55 18.3 52.7 17.05 51.4 16.1 50.4 15.45 49.85 Q14.7 49.4 13.85 49.3 L14.4 48.5 15.3 48.9 Q16.5 49.5 17.6 50.6 L17.65 50.65 Q18.9 51.9 19.6 53.4 20.9 53.6 21.6 52.45 22.1 51.65 22.0 50.7 L22.0 50.2 Q21.45 48.85 20.35 47.7 L20.2 47.6 19.8 47.3 Q18.5 46.5 17.1 46.45 L16.95 46.5 16.95 46.45 15.65 46.55 16.05 45.85 16.15 45.7 17.05 45.7 19.45 46.0 19.9 46.3 Q21.35 47.2 22.3 48.65 L22.55 48.15 Q22.9 47.2 22.85 46.2 L22.55 45.75 22.5 45.65 22.05 45.1 Q21.3 44.25 20.45 43.95 L19.9 43.75 18.2 43.7 17.8 43.85 17.1 44.2 16.95 44.25 17.75 42.65 18.25 42.6" fill="#666666" fill-rule="evenodd" stroke="none"/>
    <path d="M-3.25 -62.6 L-3.65 -63.25 -3.85 -63.45 -4.15 -63.75 -4.95 -64.35 -4.65 -64.6 -1.85 -65.55 -0.6 -65.7 0.35 -65.65 0.6 -65.5 0.8 -65.4 1.0 -65.15 Q1.1 -64.4 0.5 -63.9 L-0.6 -63.2 Q-1.8 -62.5 -3.25 -62.6 M-10.55 -52.15 L-10.4 -52.15 -10.7 -52.0 -10.35 -52.15 -4.0 -51.95 -4.7 -51.9 -4.15 -51.9 Q-3.6 -51.65 -4.25 -51.65 L-5.45 -51.45 -7.1 -51.5 -8.8 -51.4 -10.7 -51.3 -11.35 -51.4 -10.7 -52.0 -10.55 -52.15" fill="#c58770" fill-rule="evenodd" stroke="none"/>
    <path d="M1.35 -50.55 L1.05 -49.8 0.75 -48.65 0.6 -47.8 -2.0 -47.5 -2.15 -47.45 -3.65 -46.0 Q-4.1 -45.7 -4.65 -45.8 L-4.75 -45.8 Q-4.0 -46.3 -3.65 -47.05 -6.9 -45.6 -10.1 -46.55 L-10.0 -46.5 -9.5 -46.25 -9.0 -46.05 Q-9.8 -46.15 -10.45 -46.5 L-10.6 -46.6 -11.05 -46.85 -11.4 -47.4 -11.45 -47.7 -11.45 -47.8 -11.3 -48.15 -11.3 -48.2 -11.05 -47.8 -11.3 -48.2 -10.9 -48.9 Q-8.8 -47.75 -6.3 -47.2 -5.25 -47.3 -4.35 -47.9 L-4.2 -48.0 -4.0 -48.15 -2.45 -48.85 -2.0 -49.0 -1.4 -49.25 -0.4 -49.85 -0.3 -49.9 -0.2 -50.1 0.0 -50.4 0.5 -50.5 0.6 -50.55 1.35 -50.55 M8.5 -33.0 L8.85 -33.95 9.95 -35.1 10.25 -35.45 10.55 -36.0 10.55 -35.95 10.6 -36.5 10.6 -36.1 11.05 -34.9 Q11.3 -34.45 11.7 -34.1 12.45 -33.5 13.3 -33.75 L13.35 -33.65 Q14.1 -33.25 14.35 -32.4 L14.3 -32.2 14.45 -31.4 14.2 -30.05 13.9 -29.55 Q12.55 -29.95 11.55 -30.75 L10.5 -31.75 9.9 -32.6 9.55 -33.3 9.5 -33.35 9.45 -33.55 9.45 -33.6 9.5 -33.65 9.4 -33.7 9.35 -33.7 9.25 -33.65 Q8.8 -33.55 8.75 -33.05 L8.6 -33.2 8.5 -33.0 M9.25 -38.1 L9.3 -39.15 9.25 -37.35 9.25 -38.1 M10.4 -36.45 L10.4 -36.35 10.45 -36.2 10.45 -36.25 10.35 -36.4 10.4 -36.45 M13.0 -26.2 L12.6 -25.7 12.45 -25.7 Q12.65 -26.4 12.2 -26.9 L12.65 -27.35 13.0 -26.2 M10.55 -23.9 L10.65 -23.95 10.6 -23.85 10.55 -23.9 M9.5 -22.85 L9.4 -22.8 9.45 -23.0 9.5 -22.85 M-14.75 -33.0 L-14.65 -33.5 -14.6 -32.95 -14.75 -33.0 M-12.85 -51.75 L-13.0 -51.85 -12.85 -51.8 -12.85 -51.75 M-10.95 -52.25 L-10.7 -52.65 -9.9 -53.1 Q-7.0 -54.05 -3.85 -53.1 L-2.85 -52.8 -1.9 -52.7 -1.6 -52.75 Q-0.85 -52.7 -0.25 -53.05 L-0.2 -53.15 0.0 -53.3 0.1 -53.4 0.2 -53.0 Q-0.05 -52.4 -0.55 -52.15 -1.05 -51.85 -1.8 -51.75 L-4.15 -51.9 -4.7 -51.9 -4.0 -51.95 -10.35 -52.15 -10.4 -52.15 -10.55 -52.15 -10.95 -52.25 M10.2 -29.2 L10.45 -28.6 10.5 -28.5 10.1 -28.9 10.2 -29.2 M-6.15 -50.15 L-6.0 -50.15 -6.05 -50.15 -6.15 -50.15 M-7.2 -32.3 L-7.3 -33.0 -7.2 -32.65 -7.2 -32.3 M-10.3 -30.8 L-10.4 -30.9 -10.35 -30.95 -10.3 -30.8 M-7.1 -31.6 L-7.05 -31.55 -6.85 -31.1 -6.7 -30.4 -6.5 -29.95 -7.1 -31.6 M-5.75 -28.85 L-5.65 -28.8 Q-5.55 -28.7 -5.45 -28.7 L-5.0 -28.6 -5.1 -28.55 -5.1 -28.6 -5.2 -28.6 -5.6 -28.7 -5.75 -28.85 M-4.75 -26.8 L-4.75 -26.75 -4.75 -26.8" fill="#71412f" fill-rule="evenodd" stroke="none"/>
    <path d="M9.7 -39.25 L9.75 -39.25 10.25 -39.4 10.25 -39.35 9.85 -39.25 9.75 -39.2 9.7 -39.25 M-14.65 -33.5 L-14.6 -34.4 -14.5 -34.45 -14.55 -33.05 -14.6 -32.95 -14.65 -33.5 M-12.65 -46.95 L-12.9 -47.45 -12.8 -47.4 -12.65 -46.95 M-10.4 -52.15 L-10.35 -52.15 -10.7 -52.0 -10.4 -52.15 M2.9 -22.3 L2.9 -22.35 2.95 -22.45 2.9 -22.3 M-2.25 -24.7 L-2.25 -24.85 -2.2 -24.85 -2.25 -24.7 M-10.8 -34.15 L-10.6 -34.85 -10.8 -34.15" fill="#c2846c" fill-rule="evenodd" stroke="none"/>
    <path d="M7.85 -49.5 L8.8 -49.0 9.2 -48.6 9.2 -48.55 9.3 -47.85 9.3 -47.6 9.3 -47.4 9.1 -46.8 9.05 -46.75 8.65 -46.45 Q8.35 -46.2 8.05 -46.15 L8.0 -46.15 6.7 -46.2 6.4 -46.35 6.1 -46.5 Q5.45 -47.3 5.9 -48.3 L6.0 -48.4 6.15 -48.35 Q7.25 -48.1 7.8 -49.15 L7.85 -49.45 7.85 -49.5 M17.9 -29.5 L18.0 -30.4 18.05 -29.8 17.9 -29.55 17.9 -29.5 M12.6 -39.75 L12.55 -40.0 13.4 -39.7 12.6 -39.75 M16.3 -23.7 L17.35 -25.15 17.75 -25.6 17.0 -24.55 16.3 -23.7 M-49.05 -13.25 L-49.15 -13.5 Q-49.5 -14.7 -49.5 -15.95 L-49.5 -16.3 Q-49.7 -18.25 -49.4 -20.15 L-49.25 -20.55 Q-48.55 -23.0 -47.2 -25.2 L-47.05 -25.4 -46.9 -25.25 -48.05 -23.1 Q-48.5 -21.95 -47.7 -21.05 -45.25 -18.35 -42.8 -21.3 L-41.15 -22.6 Q-39.35 -23.4 -38.9 -25.15 -38.0 -28.75 -41.9 -28.95 -43.7 -28.45 -45.0 -27.35 L-43.55 -28.45 Q-42.45 -29.15 -41.25 -29.65 L-38.8 -30.45 -37.9 -30.75 -37.55 -30.8 -36.75 -30.85 -36.7 -30.85 -36.35 -30.85 -36.1 -30.8 Q-35.15 -30.1 -34.4 -28.85 -33.35 -27.1 -33.65 -25.1 -34.05 -22.4 -34.95 -19.8 -37.45 -12.8 -45.25 -12.5 -47.55 -12.4 -49.05 -13.25 M-51.05 4.9 L-51.6 2.8 -51.85 0.8 Q-49.45 1.85 -48.75 -1.35 L-48.05 -2.0 -47.2 -3.1 -46.85 -4.05 Q-45.6 -3.2 -44.2 -2.5 -43.25 -2.05 -42.25 -1.75 L-41.35 -1.5 -41.1 -1.45 -39.5 -1.2 Q-38.8 0.0 -38.55 1.55 -38.35 2.55 -38.75 3.55 -39.75 5.95 -42.15 6.7 -46.55 8.05 -50.25 5.5 L-51.05 4.9 M-50.8 -5.7 L-50.65 -6.1 -50.35 -6.75 -50.1 -7.2 -50.05 -7.05 -49.8 -6.7 -49.7 -6.55 -49.95 -6.4 -50.8 -5.7 M12.95 15.3 L12.3 15.8 12.2 15.85 11.9 16.05 11.25 16.2 9.0 16.15 Q8.75 16.1 8.6 15.9 L8.05 14.9 Q7.2 12.9 9.05 11.2 L9.15 11.15 10.2 11.4 11.9 11.85 12.2 11.9 14.0 12.3 14.0 13.2 Q13.9 14.3 13.1 15.1 L12.95 15.3" fill="#cc3300" fill-rule="evenodd" stroke="none"/>
    <path d="M33.35 -20.9 Q32.5 -21.35 32.2 -22.65 31.9 -23.95 32.85 -24.8 L33.0 -24.9 33.15 -24.95 33.5 -25.15 Q35.6 -25.25 36.1 -23.95 L36.2 -23.2 36.1 -22.25 Q36.0 -21.55 35.45 -21.05 L34.0 -20.75 33.35 -20.9 M39.7 -8.55 Q38.95 -8.9 38.65 -9.9 38.15 -11.55 39.55 -12.45 L39.85 -12.6 39.85 -12.65 Q43.1 -12.75 42.35 -9.75 L42.2 -9.25 41.55 -8.7 39.7 -8.55 M-51.85 0.8 L-51.75 -1.75 Q-51.55 -3.8 -50.8 -5.7 L-49.95 -6.4 -49.7 -6.55 -48.7 -5.45 -48.55 -5.35 -47.75 -4.7 -46.85 -4.05 -47.2 -3.1 -48.05 -2.0 -48.75 -1.35 Q-49.45 1.85 -51.85 0.8 M-46.9 -25.25 L-45.45 -27.0 -45.0 -27.35 Q-43.7 -28.45 -41.9 -28.95 -38.0 -28.75 -38.9 -25.15 -39.35 -23.4 -41.15 -22.6 L-42.8 -21.3 Q-45.25 -18.35 -47.7 -21.05 -48.5 -21.95 -48.05 -23.1 L-46.9 -25.25" fill="#ff6600" fill-rule="evenodd" stroke="none"/>
    <path d="M31.6 -19.0 L33.35 -20.9 34.0 -20.75 33.8 -20.55 32.45 -19.3 32.0 -18.9 31.75 -18.85 31.6 -19.0 M37.6 -29.7 L37.95 -29.95 38.0 -29.9 38.1 -29.8 Q39.15 -28.8 39.7 -27.5 40.0 -26.8 39.8 -26.15 L39.6 -25.9 37.2 -24.05 36.2 -23.2 36.1 -23.95 39.15 -26.75 38.65 -27.75 38.0 -28.9 37.6 -29.7 M42.2 -9.25 L42.35 -9.3 42.6 -9.35 44.65 -9.9 45.3 -10.05 46.15 -10.25 48.1 -10.65 48.25 -10.65 49.1 -10.85 Q49.0 -12.85 48.35 -14.75 L48.55 -14.8 48.75 -14.8 49.45 -13.1 49.7 -11.65 49.5 -10.2 49.3 -9.9 49.25 -9.85 45.7 -9.05 41.45 -8.15 37.5 -7.5 37.0 -7.4 Q36.45 -7.3 36.45 -7.75 L36.9 -7.85 37.65 -8.05 39.7 -8.55 41.55 -8.7 42.2 -9.25 M-36.1 -30.8 L-35.65 -30.75 -35.5 -30.7 -34.5 -30.25 -33.6 -29.75 Q-32.7 -27.85 -32.8 -25.6 -32.95 -21.9 -34.2 -18.4 -35.3 -15.4 -38.0 -13.65 -39.25 -13.1 -40.65 -12.9 L-41.1 -12.8 -41.15 -12.75 -41.15 -12.7 Q-45.05 -11.8 -48.75 -12.6 L-49.05 -13.25 Q-47.55 -12.4 -45.25 -12.5 -37.45 -12.8 -34.95 -19.8 -34.05 -22.4 -33.65 -25.1 -33.35 -27.1 -34.4 -28.85 -35.15 -30.1 -36.1 -30.8 M-50.35 6.55 L-51.05 4.9 -50.25 5.5 Q-46.55 8.05 -42.15 6.7 -39.75 5.95 -38.75 3.55 -38.35 2.55 -38.55 1.55 -38.8 0.0 -39.5 -1.2 L-39.2 -1.15 -38.95 -1.15 -38.55 -1.1 -38.35 -0.55 Q-37.85 1.2 -37.95 3.1 -38.15 6.15 -40.9 7.3 L-48.4 7.5 -50.2 6.65 -50.35 6.55 M-12.15 6.2 L-12.05 6.2 -12.05 6.25 -12.15 6.2 M15.3 9.95 L15.3 10.0 15.25 9.95 15.3 9.95" fill="#cc6600" fill-rule="evenodd" stroke="none"/>
    <path d="M7.85 -49.5 Q7.6 -50.2 6.8 -50.05 6.45 -50.0 6.15 -49.75 5.6 -49.25 5.85 -48.55 L6.0 -48.4 5.9 -48.3 Q5.45 -47.3 6.1 -46.5 L6.4 -46.35 5.4 -47.25 5.0 -48.15 Q4.95 -49.65 6.25 -50.45 7.9 -50.75 8.85 -49.3 L9.0 -49.05 9.2 -48.6 8.8 -49.0 7.85 -49.5 M30.75 -18.1 L31.6 -19.0 31.75 -18.85 32.0 -18.9 32.45 -19.3 33.8 -20.55 34.0 -20.75 35.45 -21.05 Q36.0 -21.55 36.1 -22.25 L36.2 -23.2 37.2 -24.05 39.6 -25.9 39.8 -26.15 Q40.0 -26.8 39.7 -27.5 39.15 -28.8 38.1 -29.8 L38.0 -29.9 37.95 -29.95 38.05 -30.0 38.15 -30.15 38.85 -30.25 40.45 -29.55 41.85 -28.65 Q43.25 -27.5 43.85 -25.6 L43.9 -25.5 43.35 -24.8 42.8 -24.0 41.7 -22.85 40.55 -21.75 40.15 -21.5 39.55 -20.85 38.65 -20.1 36.35 -18.25 Q34.85 -16.9 32.95 -16.25 32.45 -16.4 32.1 -16.75 L31.75 -17.1 30.85 -18.0 30.75 -18.1 M9.3 -47.4 L9.1 -46.75 Q8.75 -46.05 8.1 -46.15 L8.05 -46.15 Q8.35 -46.2 8.65 -46.45 L9.05 -46.75 9.1 -46.8 9.3 -47.4 M-29.45 -1.2 L-29.55 -1.65 -29.75 -2.25 -29.85 -3.25 -30.05 -4.7 -30.05 -5.4 -30.0 -6.45 -29.95 -6.5 -29.8 -7.95 -29.25 -10.25 -29.2 -10.35 -29.1 -10.6 -29.1 -10.65 -28.65 -11.65 -27.6 -13.95 -25.65 -16.8 -23.9 -19.1 -21.6 -21.25 -21.2 -21.4 Q-20.75 -21.45 -20.45 -21.8 L-19.05 -21.7 -18.25 -21.45 Q-17.3 -21.15 -16.4 -20.55 L-13.35 -18.2 -10.7 -15.5 -10.25 -14.6 Q-8.35 -12.35 -5.85 -10.65 -4.55 -9.7 -2.9 -9.35 L-2.4 -9.3 3.65 -9.5 4.55 -9.8 Q7.1 -10.55 8.9 -12.6 L9.5 -13.35 9.0 -13.0 10.75 -14.4 11.8 -15.5 14.5 -18.2 Q15.05 -18.6 15.7 -18.8 L20.55 -18.95 21.3 -18.35 22.45 -17.5 22.6 -17.45 25.05 -15.15 26.05 -14.05 Q28.2 -11.6 28.9 -8.5 29.5 -5.9 29.0 -3.3 L28.8 -2.4 28.7 -2.15 28.1 -0.75 Q26.8 1.55 24.3 2.6 17.4 5.55 10.3 3.25 L5.55 1.6 2.9 0.55 1.35 0.3 1.3 0.3 -0.8 0.15 -3.5 0.55 Q-6.75 1.25 -9.55 2.95 L-11.05 3.25 -12.55 3.65 -16.95 4.15 Q-20.3 3.85 -23.5 2.95 -24.3 2.75 -24.95 2.35 L-27.1 1.1 -29.1 -0.75 -29.45 -1.2 M18.4 -12.8 Q19.7 -15.5 16.85 -16.05 11.95 -14.9 9.85 -10.0 8.8 -7.65 10.25 -5.9 L11.4 -5.85 12.55 -6.45 15.1 -9.25 15.55 -9.65 Q17.45 -10.8 18.4 -12.8 M35.4 -7.6 L36.9 -7.85 36.45 -7.75 Q36.45 -7.3 37.0 -7.4 L37.5 -7.5 41.45 -8.15 45.7 -9.05 49.25 -9.85 49.3 -9.9 49.5 -10.2 49.7 -11.65 49.45 -13.1 48.75 -14.8 48.55 -14.8 49.0 -14.85 50.35 -15.3 51.0 -13.7 51.65 -11.25 Q51.9 -10.0 51.65 -8.7 51.6 -8.4 51.7 -8.2 L49.95 -7.55 48.65 -7.2 48.65 -7.25 47.45 -7.15 47.55 -6.9 44.3 -6.3 36.65 -5.7 Q36.2 -5.75 35.9 -5.95 L35.9 -6.2 35.4 -7.6 M-33.6 -29.75 L-31.5 -28.2 -30.7 -27.45 Q-30.1 -27.25 -29.7 -26.55 L-29.45 -26.2 -29.4 -26.1 Q-28.5 -24.85 -28.4 -23.2 L-28.55 -21.4 Q-28.75 -20.1 -29.65 -19.15 L-30.05 -18.35 -32.25 -15.3 -32.4 -15.05 -34.05 -12.45 -35.75 -9.0 -36.05 -8.3 -36.3 -7.8 -36.75 -7.4 -36.8 -7.35 -36.95 -7.25 Q-38.1 -6.9 -39.35 -7.25 L-39.85 -7.3 -41.75 -7.65 Q-44.3 -8.35 -46.4 -9.9 L-46.45 -9.9 -46.95 -10.3 -47.15 -10.45 -48.15 -11.55 -48.75 -12.6 Q-45.05 -11.8 -41.15 -12.7 L-41.1 -12.8 -40.65 -12.9 Q-39.25 -13.1 -38.0 -13.65 -35.3 -15.4 -34.2 -18.4 -32.95 -21.9 -32.8 -25.6 -32.7 -27.85 -33.6 -29.75 M-33.85 3.1 L-33.7 4.35 -33.7 4.6 -33.7 4.7 Q-33.65 7.0 -34.15 9.2 L-34.25 9.5 -34.55 10.15 Q-34.95 10.8 -35.8 11.0 L-37.45 11.4 -40.3 11.35 -42.9 10.7 -43.25 10.6 -43.5 10.55 -45.1 10.1 -47.3 9.35 -47.85 9.05 -47.95 8.95 -48.05 8.85 -48.45 8.65 -48.55 8.6 Q-49.3 8.2 -49.7 7.6 L-50.05 7.15 -50.35 6.55 -50.2 6.65 -48.4 7.5 -40.9 7.3 Q-38.15 6.15 -37.95 3.1 -37.85 1.2 -38.35 -0.55 L-38.55 -1.1 -37.25 -1.05 -36.55 -1.05 -36.3 -1.05 Q-35.95 -0.9 -35.6 -1.05 L-35.2 -0.45 -35.1 -0.3 Q-34.35 0.95 -34.0 2.4 L-33.85 3.1 M-23.7 -5.9 L-22.55 -5.85 -21.4 -6.45 -18.85 -9.25 -18.4 -9.65 Q-16.5 -10.8 -15.55 -12.8 -14.25 -15.5 -17.1 -16.05 -22.0 -14.9 -24.1 -10.0 -25.15 -7.65 -23.7 -5.9 M-5.7 16.2 Q-7.4 16.65 -9.0 17.25 -10.55 17.8 -11.95 18.65 -13.2 19.35 -14.35 20.15 L-14.45 20.2 -14.65 20.2 -15.0 20.3 Q-17.1 20.4 -18.8 19.55 L-19.9 18.55 -20.25 18.2 -20.55 17.85 -22.05 15.95 -23.65 13.65 -24.15 12.85 -24.35 12.55 -24.8 11.75 -24.7 11.85 -24.75 11.75 -24.85 11.4 -24.95 11.4 -25.05 11.15 -25.35 10.55 -25.7 9.9 -25.65 9.9 -27.15 6.15 -27.15 6.1 -27.45 5.4 -27.5 4.6 -27.6 3.9 -27.6 3.2 -27.6 3.0 -27.6 2.7 -26.55 3.45 -26.5 3.45 -25.05 4.25 Q-25.5 5.0 -25.35 5.9 L-25.3 6.1 Q-25.05 7.65 -24.2 8.9 L-23.6 9.65 -22.05 10.85 -21.5 11.2 -20.5 11.5 -19.2 11.4 -18.6 11.1 -18.3 10.75 -17.95 10.05 -17.9 10.05 -16.65 9.9 -15.3 9.65 -12.25 8.85 -10.85 8.25 -10.5 8.05 -10.45 8.0 -10.45 7.85 -10.4 7.75 Q-11.05 6.85 -12.05 6.25 L-12.05 6.2 -10.45 5.95 -9.8 6.35 -9.2 7.0 -8.9 7.25 -8.85 7.55 -8.45 8.45 -8.45 8.75 Q-9.3 10.05 -8.05 10.95 L-7.7 11.25 -7.05 11.85 Q-6.7 12.0 -6.45 12.25 L-5.95 12.85 -5.9 12.95 -5.8 13.1 -5.8 13.15 -5.9 13.5 -5.4 14.8 Q-5.2 15.6 -5.7 16.2 M-13.55 16.15 L-9.65 14.4 -9.0 14.25 -8.75 14.15 -7.55 13.55 -7.2 13.4 -8.25 12.05 -8.4 11.75 -8.4 11.6 -9.4 11.85 -14.95 12.95 -16.05 13.15 -16.3 13.2 -19.4 13.45 -20.0 14.9 Q-20.1 15.8 -19.6 16.55 L-18.65 17.65 Q-17.25 18.85 -15.25 18.5 L-14.6 18.35 -14.45 18.25 -14.1 17.9 -14.05 17.85 Q-13.7 17.4 -13.6 16.8 L-13.55 16.15 M-22.8 11.05 L-22.75 11.05 -23.65 10.85 -22.8 11.05 M24.15 5.0 Q24.6 5.7 25.55 6.05 26.05 7.65 25.95 9.25 25.65 10.15 24.85 10.8 23.55 11.9 21.75 12.1 21.35 12.45 21.25 12.95 21.1 13.95 22.05 14.4 L22.3 15.65 22.2 16.45 22.0 17.15 21.1 18.1 19.1 19.95 16.25 20.3 15.9 20.2 15.7 20.2 15.6 20.15 13.15 18.65 Q11.8 17.8 10.25 17.25 7.2 16.15 4.05 15.55 L4.85 14.3 5.25 14.3 5.1 13.9 5.55 12.95 6.45 10.9 6.75 10.9 Q6.75 10.25 7.05 9.75 L6.9 9.7 7.3 8.5 8.05 5.7 8.1 5.65 8.2 5.15 8.7 5.2 10.05 5.6 10.8 5.8 10.45 5.7 10.1 5.6 Q9.8 6.6 10.35 7.8 L10.85 8.7 Q11.7 10.0 13.4 10.3 L14.55 10.2 15.25 9.95 15.3 10.0 15.3 9.95 15.9 9.6 16.1 9.45 16.25 9.3 16.65 9.45 17.75 9.6 17.85 9.65 17.9 9.7 20.95 9.35 21.2 9.2 Q20.85 7.5 19.5 6.3 L19.2 5.95 20.3 5.8 20.7 5.75 23.95 5.05 24.0 5.1 24.05 5.05 24.15 5.0 M14.0 12.3 L12.2 11.9 11.9 11.85 10.2 11.4 9.15 11.15 9.05 11.2 Q7.2 12.9 8.05 14.9 L8.6 15.9 Q8.75 16.1 9.0 16.15 L11.25 16.2 11.9 16.05 12.2 15.85 12.3 15.8 12.95 15.3 13.85 15.9 14.3 16.2 16.3 16.8 18.8 16.65 Q19.15 15.2 18.4 13.9 L17.85 13.05 14.0 12.3" fill="#990000" fill-rule="evenodd" stroke="none"/>
    <path d="M19.8 -36.35 L20.45 -35.95 23.35 -33.5 25.55 -31.15 26.05 -30.45 26.1 -30.4 26.35 -29.8 27.6 -27.1 Q27.55 -26.95 27.65 -26.85 L28.05 -26.45 27.2 -26.3 Q25.3 -25.85 23.7 -24.7 22.5 -23.85 21.7 -22.7 L21.25 -22.75 Q19.3 -22.65 17.6 -21.75 L17.4 -21.65 17.2 -21.55 16.8 -21.3 18.55 -23.05 18.85 -23.4 Q20.8 -26.0 22.0 -28.95 L21.4 -32.75 20.75 -35.1 Q20.05 -35.65 19.8 -36.35 M32.7 -15.35 L33.55 -15.45 33.65 -15.5 33.7 -15.5 33.75 -15.55 33.75 -15.7 34.35 -15.9 Q35.0 -16.1 35.6 -16.55 L37.7 -18.15 38.6 -18.8 38.75 -18.9 39.2 -19.2 40.05 -19.9 42.35 -17.3 43.55 -15.65 44.0 -14.95 43.5 -14.8 43.15 -14.7 40.6 -13.95 39.95 -15.35 Q38.6 -14.7 37.15 -14.35 L36.95 -14.3 35.05 -14.05 33.35 -14.3 32.85 -14.75 32.6 -15.3 32.7 -15.35 M35.75 -5.1 L35.85 -5.1 35.95 -5.05 39.7 -4.85 41.8 -5.05 44.3 -5.3 46.6 -5.6 47.85 -5.8 48.0 -5.15 48.55 -3.05 48.25 -2.8 48.05 -2.85 48.0 -2.85 47.8 -2.8 47.4 -2.6 Q45.45 -1.5 43.3 -0.8 L41.5 -0.35 Q36.35 0.35 31.2 -0.2 L31.1 -0.25 31.05 -0.3 31.65 -1.8 31.7 -1.85 31.75 -1.9 31.75 -2.05 31.8 -2.4 31.85 -2.65 31.95 -3.1 32.0 -4.15 32.0 -4.3 32.05 -4.75 35.75 -5.1 M-36.8 -7.35 L-36.8 -7.25 -36.7 -7.15 -36.45 -7.15 -35.7 -8.35 -35.55 -8.65 -35.35 -9.0 -35.2 -8.95 -35.15 -9.3 -33.65 -12.2 -33.6 -12.25 -33.1 -13.3 -32.7 -13.8 -32.55 -13.85 -32.5 -13.9 -32.4 -14.05 -32.4 -14.2 -32.4 -14.3 -32.2 -14.45 -32.15 -14.5 -32.05 -14.65 -32.05 -14.75 -32.0 -14.75 -31.85 -14.8 Q-30.05 -16.7 -28.75 -19.0 L-27.75 -21.25 Q-26.95 -23.7 -28.15 -25.75 L-28.15 -25.9 -28.35 -26.35 -27.55 -26.15 -27.35 -26.1 -26.5 -25.9 Q-23.85 -25.25 -23.3 -22.65 L-22.85 -21.7 -23.0 -21.6 -23.05 -21.5 -23.1 -21.45 -23.25 -21.35 -26.45 -17.65 -27.1 -16.85 Q-28.35 -15.2 -29.2 -13.3 L-30.25 -10.6 -30.45 -10.3 -30.35 -10.2 -30.6 -9.4 -31.0 -6.6 -30.9 -4.3 -30.8 -3.1 -30.7 -2.65 -30.65 -2.05 -30.65 -1.9 -30.55 -1.8 Q-30.35 -1.0 -29.95 -0.3 L-29.9 -0.25 -29.85 -0.2 -29.65 0.2 -28.95 1.3 -28.95 1.75 -28.9 2.4 -28.8 3.95 -28.7 4.55 -28.65 4.75 -28.45 5.9 Q-27.85 8.25 -26.75 10.45 L-26.85 11.0 -27.05 11.9 -27.05 11.95 -27.25 12.75 Q-27.55 12.95 -27.7 13.5 L-27.75 13.7 Q-28.05 14.35 -28.65 14.9 -30.35 16.5 -32.6 17.3 L-33.3 17.5 Q-36.4 18.3 -39.6 17.6 -41.35 17.2 -42.85 16.4 L-43.1 16.25 -43.9 15.75 -44.0 15.65 -44.25 15.5 -46.25 13.55 Q-42.5 15.6 -38.2 15.95 L-36.3 16.0 Q-32.3 15.75 -30.65 12.25 -29.55 9.85 -29.65 7.15 -29.8 4.55 -30.7 2.15 -31.7 -0.4 -32.3 -3.05 L-32.45 -4.75 -33.0 -5.1 Q-33.75 -5.3 -34.2 -5.85 -35.55 -5.85 -36.55 -6.45 L-36.8 -6.25 -39.0 -6.15 -40.3 -6.25 -41.4 -6.45 -41.55 -6.45 -41.8 -6.5 -42.0 -6.55 -42.15 -6.6 -43.65 -7.05 -45.75 -7.95 -47.25 -8.95 -48.65 -10.3 -48.7 -10.35 -48.15 -11.55 -47.15 -10.45 -46.95 -10.3 -46.45 -9.9 -46.4 -9.9 Q-44.3 -8.35 -41.75 -7.65 L-39.85 -7.3 -39.35 -7.25 Q-38.1 -6.9 -36.95 -7.25 L-36.8 -7.35 M-30.9 -9.8 L-30.85 -9.65 -30.8 -9.75 -30.9 -9.8" fill="#333333" fill-rule="evenodd" stroke="none"/>
    <path d="M14.5 -18.2 L17.5 -20.55 Q18.35 -21.15 19.3 -21.45 L20.15 -21.7 21.55 -21.8 21.85 -21.55 22.25 -21.4 22.35 -21.4 22.75 -21.25 25.0 -19.1 26.8 -16.8 28.7 -13.95 29.8 -11.65 30.2 -10.65 30.2 -10.6 30.25 -10.35 30.35 -10.25 30.85 -8.55 30.95 -7.95 31.1 -6.5 31.1 -6.45 31.15 -5.4 31.15 -4.7 31.1 -4.15 30.95 -3.25 30.85 -2.25 30.7 -1.65 30.5 -1.05 29.15 1.2 29.15 1.25 28.5 1.85 Q25.8 3.9 22.45 4.55 L15.9 5.4 15.8 5.4 10.9 4.7 10.85 4.7 10.75 4.7 10.5 4.6 8.75 4.15 8.05 4.0 Q6.95 3.4 5.7 3.1 L4.55 2.75 2.5 2.3 -0.1 2.2 -3.35 2.7 -4.45 2.9 Q-5.5 3.15 -6.4 3.8 L-7.15 4.05 -7.6 4.15 -9.35 4.6 -9.65 4.7 -9.7 4.7 -9.75 4.7 -10.9 4.9 -14.65 5.4 -14.8 5.4 -21.3 4.55 Q-24.7 3.9 -27.4 1.85 L-28.05 1.25 -28.05 1.2 -29.4 -1.05 -29.45 -1.2 -29.1 -0.75 -27.1 1.1 -24.95 2.35 Q-24.3 2.75 -23.5 2.95 -20.3 3.85 -16.95 4.15 L-12.55 3.65 -11.05 3.25 -9.55 2.95 Q-6.75 1.25 -3.5 0.55 L-0.8 0.15 1.3 0.3 1.35 0.3 2.9 0.55 5.55 1.6 10.3 3.25 Q17.4 5.55 24.3 2.6 26.8 1.55 28.1 -0.75 L28.7 -2.15 28.8 -2.4 29.0 -3.3 Q29.5 -5.9 28.9 -8.5 28.2 -11.6 26.05 -14.05 L25.05 -15.15 22.6 -17.45 22.45 -17.5 21.3 -18.35 20.55 -18.95 15.7 -18.8 Q15.05 -18.6 14.5 -18.2 M-10.7 -15.5 L-9.6 -14.4 -7.2 -12.6 Q-7.15 -12.2 -6.6 -12.1 L-6.35 -12.05 -4.95 -11.6 -4.7 -11.55 -2.2 -11.05 -1.5 -10.95 0.55 -10.95 2.6 -10.95 3.3 -11.05 5.85 -11.55 6.05 -11.6 7.5 -12.05 7.7 -12.1 Q8.25 -12.2 8.3 -12.6 L8.5 -12.7 9.0 -13.0 9.5 -13.35 8.9 -12.6 Q7.1 -10.55 4.55 -9.8 L3.65 -9.5 -2.4 -9.3 -2.9 -9.35 Q-4.55 -9.7 -5.85 -10.65 -8.35 -12.35 -10.25 -14.6 L-10.7 -15.5 M32.7 -15.35 L32.6 -15.3 32.6 -15.4 32.7 -15.35 M-35.35 -9.0 L-35.15 -9.3 -35.2 -8.95 -35.35 -9.0 M-30.25 -10.6 L-30.35 -10.2 -30.45 -10.3 -30.25 -10.6 M-30.65 -1.9 L-30.6 -1.85 -30.55 -1.8 -30.65 -1.9 M-48.0 10.45 L-48.1 10.15 -48.1 10.1 -47.15 10.75 -47.4 10.65 -48.0 10.45 M-38.65 12.65 L-37.25 12.4 Q-35.85 12.15 -35.0 11.0 -34.2 10.0 -33.75 8.8 -33.05 7.0 -33.15 5.15 -33.2 3.9 -33.85 3.1 L-34.0 2.4 Q-34.35 0.95 -35.1 -0.3 L-35.2 -0.45 -35.6 -1.05 Q-35.95 -0.9 -36.3 -1.05 L-36.55 -1.05 -37.25 -1.05 -38.55 -1.1 -38.95 -1.15 -39.2 -1.15 -40.35 -1.4 -41.1 -1.5 -41.35 -1.5 -42.25 -1.75 Q-43.25 -2.05 -44.2 -2.5 -45.6 -3.2 -46.85 -4.05 L-47.75 -4.7 -48.55 -5.35 -48.7 -5.45 -49.7 -6.55 -49.8 -6.7 -50.05 -7.05 -49.6 -8.0 -47.9 -6.35 -46.75 -5.45 Q-44.85 -4.1 -42.7 -3.3 L-42.3 -3.15 -41.9 -3.05 -41.8 -3.0 -41.5 -2.9 -41.35 -2.85 -41.2 -2.8 -40.15 -2.6 -39.05 -2.45 -37.9 -2.4 -37.8 -2.4 -36.65 -2.35 -36.05 -2.3 -35.45 -1.95 -35.2 -1.8 -35.2 -1.75 -35.15 -1.75 -34.95 -1.55 -34.3 -1.0 -34.1 -0.5 Q-32.95 0.1 -32.25 1.45 -31.65 2.5 -31.4 3.7 -30.85 6.15 -31.4 8.55 L-31.65 9.4 Q-32.4 11.5 -34.4 12.45 L-35.3 12.75 -38.65 12.65 M-43.5 10.55 L-43.8 10.5 -44.4 10.35 -45.1 10.1 -43.5 10.55 M-47.95 8.95 L-48.4 8.95 -48.45 8.65 -48.05 8.85 -47.95 8.95 M-48.8 -9.95 L-48.8 -10.2 -48.7 -10.35 -48.65 -10.3 -48.75 -10.0 -48.8 -9.95 M-10.45 5.95 L-10.1 5.9 -9.8 6.35 -10.45 5.95 M6.9 9.7 L7.05 9.75 6.9 9.75 6.9 9.7" fill="#5b1e00" fill-rule="evenodd" stroke="none"/>
    <path d="M-6.05 -40.65 L-6.15 -41.55 -6.15 -41.7 -6.1 -42.3 -5.9 -42.15 -5.3 -41.7 -3.5 -39.95 Q-2.5 -38.75 -1.8 -37.25 L-1.8 -37.35 -1.85 -37.65 -1.75 -37.35 -1.0 -34.35 -0.3 -30.05 Q-0.2 -29.25 -0.4 -28.55 L-0.55 -29.15 Q-1.2 -31.2 -1.5 -33.35 L-1.55 -33.8 Q-2.6 -37.2 -5.15 -39.8 L-5.35 -40.0 -5.8 -40.05 -6.0 -40.5 -6.05 -40.65 M-22.7 -24.8 L-22.85 -25.0 -22.9 -25.1 Q-23.95 -26.4 -25.55 -26.85 -25.8 -28.3 -24.85 -30.05 -22.2 -34.85 -16.9 -36.5 L-15.9 -36.5 -16.3 -36.0 -17.25 -34.5 -17.55 -33.6 -17.6 -33.5 -17.6 -33.35 -17.65 -33.25 -17.9 -32.0 -17.9 -30.6 -17.85 -30.0 Q-18.7 -28.45 -19.9 -27.05 -21.1 -25.65 -22.7 -24.8 M32.85 -24.8 L32.95 -24.9 33.0 -24.9 32.85 -24.8 M-2.0 -43.8 Q-1.0 -43.95 -0.35 -43.4 L-0.45 -43.35 -0.5 -43.25 -1.25 -41.85 -1.45 -41.1 -1.55 -40.7 -1.55 -40.15 -1.55 -40.0 -2.0 -40.1 -2.4 -40.7 -2.55 -41.0 -3.25 -41.85 -3.8 -42.55 -3.85 -42.8 -3.75 -43.1 -3.0 -43.65 -2.0 -43.8 M-18.55 40.05 L-17.85 40.85 -17.9 41.0 -17.95 42.05 -17.85 42.65 -19.95 42.75 -19.85 42.45 Q-19.4 41.1 -18.55 40.05 M-20.25 47.05 L-20.3 47.0 Q-21.1 46.1 -20.9 44.85 L-20.85 44.75 Q-20.6 44.2 -20.7 43.8 -19.7 43.15 -18.45 43.25 L-17.15 43.5 Q-17.4 44.2 -17.1 44.95 -17.3 45.35 -17.15 45.7 -18.1 45.8 -18.85 46.2 L-20.25 47.05 M-16.8 46.2 L-16.4 46.6 Q-15.8 47.1 -15.45 47.75 L-15.0 48.7 -14.55 48.6 -15.35 48.85 -17.65 51.0 Q-17.85 50.75 -18.15 50.6 -19.4 49.9 -19.6 48.5 -19.65 48.05 -19.85 47.75 -19.2 47.2 -18.4 46.8 L-16.8 46.2 M-17.15 51.6 L-15.85 49.95 -13.95 49.25 -13.7 49.55 Q-12.7 50.0 -12.05 50.9 L-11.85 51.4 -12.2 53.1 Q-12.5 53.9 -13.25 54.3 L-14.85 54.25 Q-16.3 53.45 -16.95 51.95 L-17.15 51.6 M18.25 42.6 L19.6 41.2 19.65 41.55 Q19.6 42.25 19.95 42.75 L18.25 42.6 M15.45 49.85 L16.1 50.4 17.05 51.4 16.05 52.35 Q14.95 54.05 13.15 54.85 L11.35 54.95 Q10.95 53.05 12.65 51.75 13.6 51.0 14.65 50.6 L15.4 49.9 15.45 49.85 M17.8 43.85 L18.2 43.7 19.9 43.75 Q19.8 44.6 20.1 45.45 L20.1 45.65 20.1 45.85 20.1 45.95 19.9 46.3 19.45 46.0 17.05 45.7 17.75 44.0 17.8 43.85 M16.95 46.5 L17.1 46.45 Q18.5 46.5 19.8 47.3 L19.75 47.35 19.5 48.45 Q19.05 49.95 17.65 50.65 L17.6 50.6 Q16.5 49.5 15.3 48.9 L15.8 49.15 Q15.9 47.7 16.95 46.5" fill="#cccccc" fill-rule="evenodd" stroke="none"/>
    <path d="M-4.75 -45.8 L-5.3 -45.5 Q-7.5 -45.35 -9.5 -46.25 L-10.0 -46.5 -10.1 -46.55 Q-6.9 -45.6 -3.65 -47.05 -4.0 -46.3 -4.75 -45.8" fill="#623828" fill-rule="evenodd" stroke="none"/>
    <path d="M-11.85 -24.7 L-11.95 -24.6 -11.95 -24.65 -11.85 -24.7 M-6.0 -49.25 Q-5.95 -48.9 -6.2 -48.6 L-6.45 -48.55 -7.3 -48.6 -7.45 -48.7 Q-7.8 -49.1 -7.6 -49.35 L-7.55 -49.35 -6.0 -49.25" fill="#ffffff" fill-rule="evenodd" stroke="none"/>
    <path d="M-7.6 -49.35 Q-7.8 -49.1 -7.45 -48.7 L-7.3 -48.6 -6.45 -48.55 -6.2 -48.6 Q-5.95 -48.9 -6.0 -49.25 L-4.1 -49.1 Q-5.0 -48.6 -6.0 -48.2 L-8.05 -48.35 -9.35 -49.2 -7.6 -49.35" fill="#53648a" fill-rule="evenodd" stroke="none"/>
    <path d="M-15.7 -32.85 L-15.7 -32.45 -15.8 -32.5 -15.75 -32.8 -15.7 -32.85 M-15.85 -23.05 L-15.6 -22.95 -15.6 -22.75 -15.85 -23.05" fill="#999933" fill-rule="evenodd" stroke="none"/>
    <path d="M36.95 -14.3 L37.15 -14.35 36.75 -14.2 36.75 -14.25 36.95 -14.3 M38.05 -13.1 L37.4 -12.85 37.35 -12.8 38.05 -13.1 M-22.85 -21.7 L-23.05 -21.5 -23.0 -21.6 -22.85 -21.7 M-25.05 4.25 L-24.85 4.35 -23.9 4.75 -19.6 5.75 -17.45 6.05 -17.45 6.1 Q-17.05 7.4 -17.6 8.7 L-17.75 9.2 -17.9 10.05 -17.95 10.05 -18.3 10.75 -18.6 11.1 -19.2 11.4 -20.5 11.5 -21.5 11.2 -22.05 10.85 -23.6 9.65 -24.2 8.9 Q-25.05 7.65 -25.3 6.1 L-25.35 5.9 Q-25.5 5.0 -25.05 4.25 M-13.55 16.15 L-13.6 16.8 Q-13.7 17.4 -14.05 17.85 L-14.1 17.9 -14.45 18.25 -14.6 18.35 -15.25 18.5 Q-17.25 18.85 -18.65 17.65 L-19.6 16.55 Q-20.1 15.8 -20.0 14.9 L-19.4 13.45 -16.3 13.2 -16.05 13.15 -14.95 12.95 -14.8 13.15 -14.55 14.05 Q-13.55 14.95 -13.55 16.15 M-6.9 24.25 L-6.95 24.9 Q-5.4 27.0 -7.65 28.05 -8.9 28.6 -9.65 27.65 -10.95 26.05 -11.05 24.0 -11.2 21.55 -9.05 21.3 -6.95 21.8 -6.9 24.25 M28.95 2.6 L28.9 2.55 28.95 2.5 28.95 2.6" fill="#b93d00" fill-rule="evenodd" stroke="none"/>
    <path d="M-30.9 -9.8 L-30.8 -9.75 -30.85 -9.65 -30.9 -9.8 M-15.25 23.5 L-15.65 22.75 -15.85 22.05 -16.1 21.55 -14.35 21.2 -14.3 21.15 -11.85 19.95 Q-8.8 18.15 -5.35 17.2 L-0.5 16.4 -0.3 16.45 0.35 16.4 0.55 16.4 1.5 16.45 1.7 16.4 6.6 17.2 Q10.0 18.15 13.1 19.95 L15.5 21.15 15.6 21.2 17.5 21.55 Q17.15 22.1 16.95 22.75 L16.65 23.35 14.5 27.95 14.4 28.1 12.3 30.95 12.25 31.0 10.5 30.7 8.8 29.55 8.45 29.25 10.4 26.5 11.9 23.2 Q11.35 21.75 10.0 21.25 6.9 20.25 3.35 19.8 -6.7 18.55 -15.25 23.5 M25.3 12.55 L25.2 12.5 25.35 12.45 25.3 12.55" fill="#330000" fill-rule="evenodd" stroke="none"/>
    <path d="M23.0 -22.8 L22.95 -22.7 22.9 -22.4 22.65 -22.5 22.95 -22.75 23.0 -22.8 M-6.4 3.8 L-6.65 4.0 -7.15 4.05 -6.4 3.8 M-48.1 10.5 L-48.15 10.35 -48.0 10.45 -48.1 10.5 M-40.15 -2.6 L-39.05 -2.45 -40.15 -2.6 M-17.45 6.05 L-17.35 6.1 -17.45 6.1 -17.45 6.05 M8.45 29.25 L6.7 27.85 6.1 27.55 Q5.3 27.0 4.35 26.85 L2.45 26.65 0.7 26.75 -1.0 26.65 -2.9 26.85 Q-3.85 27.0 -4.65 27.55 L-5.25 27.85 Q-6.45 28.6 -7.4 29.55 L-9.05 30.7 -10.8 31.0 -10.95 30.9 -11.15 30.75 -13.95 26.7 -14.05 26.25 -14.95 24.35 -15.1 23.9 -15.25 23.5 Q-6.7 18.55 3.35 19.8 6.9 20.25 10.0 21.25 11.35 21.75 11.9 23.2 L10.4 26.5 8.45 29.25 M-6.9 24.25 Q-6.95 21.8 -9.05 21.3 -11.2 21.55 -11.05 24.0 -10.95 26.05 -9.65 27.65 -8.9 28.6 -7.65 28.05 -5.4 27.0 -6.95 24.9 L-6.9 24.25 M-22.8 11.05 L-23.65 10.85 -22.75 11.05 -22.8 11.05 M10.45 5.7 L10.8 5.8 10.9 5.8 10.45 5.7 M5.1 13.9 L5.25 14.3 4.85 14.3 5.1 13.9 M23.95 5.05 L24.05 5.05 24.0 5.1 23.95 5.05" fill="#842b00" fill-rule="evenodd" stroke="none"/>
    <path d="M30.75 -18.1 Q29.85 -18.75 29.6 -19.65 L29.55 -19.95 29.55 -20.05 29.75 -20.35 29.75 -20.65 29.95 -20.95 30.0 -21.15 30.1 -21.25 30.2 -21.35 30.2 -21.4 30.2 -21.5 30.8 -22.3 32.7 -24.75 32.85 -24.8 Q31.9 -23.95 32.2 -22.65 32.5 -21.35 33.35 -20.9 L31.6 -19.0 30.75 -18.1 M33.0 -24.9 L33.15 -25.15 33.5 -25.65 33.45 -25.65 33.85 -26.15 35.6 -28.3 35.9 -28.45 36.1 -28.75 36.45 -29.0 37.6 -29.7 38.0 -28.9 38.65 -27.75 39.15 -26.75 36.1 -23.95 Q35.6 -25.25 33.5 -25.15 L33.15 -24.95 33.0 -24.9 M18.4 -12.8 Q17.45 -10.8 15.55 -9.65 L15.1 -9.25 12.55 -6.45 11.4 -5.85 10.25 -5.9 Q8.8 -7.65 9.85 -10.0 11.95 -14.9 16.85 -16.05 19.7 -15.5 18.4 -12.8 M42.2 -9.25 L42.35 -9.75 Q43.1 -12.75 39.85 -12.65 L39.85 -12.6 39.55 -12.45 Q38.15 -11.55 38.65 -9.9 38.95 -8.9 39.7 -8.55 L37.65 -8.05 36.9 -7.85 35.4 -7.6 35.15 -8.55 35.1 -8.75 35.05 -9.95 35.05 -10.15 35.1 -10.25 35.35 -10.6 Q36.85 -11.5 38.5 -12.15 41.05 -13.15 43.75 -13.75 L44.55 -14.0 44.6 -13.95 45.85 -14.2 45.85 -14.25 48.35 -14.75 Q49.0 -12.85 49.1 -10.85 L48.25 -10.65 48.1 -10.65 46.15 -10.25 45.3 -10.05 44.65 -9.9 42.6 -9.35 42.35 -9.3 42.2 -9.25 M-23.7 -5.9 Q-25.15 -7.65 -24.1 -10.0 -22.0 -14.9 -17.1 -16.05 -14.25 -15.5 -15.55 -12.8 -16.5 -10.8 -18.4 -9.65 L-18.85 -9.25 -21.4 -6.45 -22.55 -5.85 -23.7 -5.9 M-17.35 6.1 L-13.65 6.25 -12.9 6.25 -12.6 6.25 -12.15 6.2 -12.05 6.25 Q-11.05 6.85 -10.4 7.75 L-10.45 7.85 -10.45 8.0 -10.5 8.05 -10.85 8.25 -12.25 8.85 -15.3 9.65 -16.65 9.9 -17.9 10.05 -17.75 9.2 -17.6 8.7 Q-17.05 7.4 -17.45 6.1 L-17.35 6.1 M-14.95 12.95 L-9.4 11.85 -8.4 11.6 -8.4 11.75 -8.25 12.05 -7.2 13.4 -7.55 13.55 -8.75 14.15 -9.0 14.25 -9.65 14.4 -13.55 16.15 Q-13.55 14.95 -14.55 14.05 L-14.8 13.15 -14.95 12.95 M19.2 5.95 L19.5 6.3 Q20.85 7.5 21.2 9.2 L20.95 9.35 17.9 9.7 17.85 9.65 17.75 9.6 16.65 9.45 16.25 9.3 Q17.3 8.35 17.4 6.7 L17.75 6.2 18.45 6.1 19.2 5.95 M12.95 15.3 L13.1 15.1 Q13.9 14.3 14.0 13.2 L14.0 12.3 17.85 13.05 18.4 13.9 Q19.15 15.2 18.8 16.65 L16.3 16.8 14.3 16.2 13.85 15.9 12.95 15.3" fill="#cc0000" fill-rule="evenodd" stroke="none"/>
    <path d="M3.0 -47.35 Q2.75 -48.85 3.45 -50.15 L3.75 -50.75 5.0 -51.85 Q5.95 -52.4 7.0 -52.55 L7.75 -52.55 7.75 -52.6 Q10.0 -52.9 10.85 -51.05 11.85 -49.1 11.3 -47.1 L10.9 -46.4 9.95 -45.6 Q11.05 -46.8 10.95 -48.3 L10.55 -50.55 9.75 -49.95 9.4 -49.7 Q10.05 -48.4 9.75 -46.9 9.25 -45.8 8.05 -45.5 6.55 -45.4 5.35 -46.25 L4.9 -46.75 3.7 -46.4 4.2 -45.8 Q4.75 -45.4 4.9 -44.8 L4.3 -45.05 Q3.45 -45.5 3.2 -46.5 L3.15 -46.55 3.1 -46.7 3.1 -46.75 3.0 -47.35 M9.2 -48.6 L9.0 -49.05 8.85 -49.3 9.15 -49.55 9.4 -49.75 9.15 -50.15 9.1 -50.25 Q8.0 -51.35 6.35 -51.15 5.05 -50.7 4.5 -49.2 4.2 -48.0 4.7 -47.05 5.1 -46.8 5.35 -47.2 L5.4 -47.25 6.4 -46.35 6.7 -46.2 8.0 -46.15 8.05 -46.15 8.1 -46.15 Q8.75 -46.05 9.1 -46.75 L9.3 -47.4 9.3 -47.6 9.3 -47.85 9.2 -48.55 9.2 -48.6 M8.4 -52.3 L8.45 -52.3 8.2 -52.3 8.25 -52.3 8.4 -52.3 M3.6 -46.6 L3.45 -47.05 3.5 -46.85 3.65 -46.45 3.6 -46.6 M-12.65 30.4 L-12.45 30.3 -13.7 27.75 -12.05 30.95 -12.15 31.0 Q-13.65 31.65 -15.0 32.7 L-15.65 33.2 -15.75 33.3 -17.4 35.35 -18.1 36.45 -18.3 36.8 -18.55 35.65 -18.45 35.55 -17.7 34.35 -17.05 33.3 -18.1 32.2 Q-19.35 30.65 -19.85 28.7 L-20.0 28.1 -20.2 27.1 -20.2 27.05 -20.0 25.55 -19.65 25.35 Q-18.2 24.4 -16.45 24.4 L-16.1 24.6 -16.75 24.9 Q-18.55 24.9 -19.45 26.55 L-19.7 27.2 -18.25 30.75 -16.6 33.1 -15.3 32.0 Q-14.0 31.05 -12.65 30.4 M5.6 28.35 L5.85 28.45 8.0 30.0 8.25 30.15 9.7 31.25 Q10.55 31.7 11.55 31.6 L11.7 31.7 11.0 32.6 11.0 32.65 10.95 32.75 10.8 32.9 10.6 33.1 10.15 33.7 10.1 33.85 9.65 34.55 Q9.4 34.7 9.5 34.85 L9.5 34.9 9.7 34.9 10.0 34.65 Q10.2 34.5 10.45 34.3 9.2 37.85 6.7 40.7 10.05 41.85 12.6 44.45 15.2 40.05 17.0 35.15 L17.45 33.75 16.95 33.3 16.7 33.05 14.5 31.6 13.5 31.05 13.8 30.7 Q15.1 31.15 16.3 31.95 L17.6 32.95 17.8 31.45 Q16.45 29.8 14.4 30.0 L14.9 29.25 15.3 28.85 15.35 28.75 15.35 28.65 Q16.4 27.2 17.05 25.55 L17.1 25.25 17.35 24.8 17.1 24.75 17.45 24.65 18.6 22.3 18.95 21.65 19.0 21.65 19.1 21.4 19.4 21.3 19.75 21.65 20.75 23.35 21.2 25.05 21.25 25.6 21.45 23.9 Q21.95 25.95 21.4 27.9 L21.3 30.3 21.0 32.1 19.9 35.5 19.1 37.55 18.9 38.0 17.95 40.0 17.95 40.2 17.85 40.3 16.25 43.6 16.2 43.65 14.85 46.05 13.95 47.45 13.85 47.6 12.55 49.45 11.5 50.75 9.9 52.5 8.7 53.55 8.55 53.7 8.3 53.95 7.7 54.45 7.05 54.95 5.55 55.85 3.35 56.55 3.2 56.5 2.5 56.5 2.25 56.55 0.7 56.75 -1.05 56.5 -1.3 56.5 -1.75 56.5 -1.9 56.55 -4.15 55.85 -5.6 54.95 -5.85 54.75 -6.85 53.95 -8.45 52.5 -9.6 51.25 -11.1 49.45 -11.4 49.0 -11.05 49.2 -10.7 49.75 -10.15 50.15 -8.35 51.25 -6.9 52.05 Q-5.15 52.7 -3.4 53.0 L-3.45 52.7 -3.5 52.75 -3.45 52.4 -3.5 51.7 -3.2 49.5 -3.15 48.7 -2.95 46.6 -2.65 41.3 -2.6 40.95 Q-7.3 42.15 -11.4 44.6 L-12.4 45.3 -13.3 46.3 -13.55 46.65 Q-13.65 46.5 -13.8 46.45 L-13.5 46.0 Q-12.7 44.8 -11.5 43.9 -10.25 42.95 -8.8 42.65 -5.8 41.15 -2.55 40.45 L-2.35 38.15 Q-3.35 37.4 -4.15 36.3 -5.2 34.95 -4.85 33.15 -4.5 31.85 -3.35 31.15 L-2.85 30.85 -1.0 29.95 1.95 30.05 Q3.45 30.3 4.3 31.65 4.9 33.0 4.85 34.45 6.0 32.1 5.65 29.7 L5.6 28.35 M-1.95 32.5 L-2.3 32.85 -2.75 33.65 Q-3.25 34.75 -2.5 35.7 -1.5 36.9 -0.3 37.0 0.65 37.0 1.7 36.3 2.7 35.65 2.8 34.5 3.1 31.8 0.4 31.5 L-0.75 31.75 Q-1.45 31.95 -1.95 32.5 M-1.8 38.55 L-1.85 40.3 1.15 39.9 2.95 37.6 2.9 37.35 1.75 38.1 Q0.4 38.9 -1.2 38.7 L-1.8 38.55 M-1.9 40.9 L-1.75 40.85 -1.9 41.05 -2.0 41.7 -1.95 41.9 -2.05 41.95 -2.4 45.9 -2.5 48.45 -2.55 52.15 Q-2.45 52.5 -2.5 52.9 L-2.55 53.1 4.0 52.6 4.0 52.35 3.95 52.3 Q3.7 50.65 3.75 48.45 L3.7 45.95 3.45 43.3 3.45 43.25 Q1.75 43.75 0.2 42.1 -0.3 41.6 0.15 41.05 L0.7 40.4 0.05 40.4 -0.45 40.5 -1.65 40.8 -1.45 40.7 -1.8 40.75 -1.9 40.8 -1.9 40.9 M6.2 41.25 L5.2 42.2 3.95 43.05 4.0 43.65 4.35 46.95 4.55 48.6 4.5 49.5 Q4.35 50.3 4.7 51.6 L4.85 52.05 4.9 52.35 6.05 51.9 Q7.7 51.3 8.8 49.9 L12.1 45.25 11.8 44.95 Q9.4 42.4 6.2 41.25" fill="#363836" fill-rule="evenodd" stroke="none"/>
    <path d="M6.0 -48.4 L5.85 -48.55 Q5.6 -49.25 6.15 -49.75 6.45 -50.0 6.8 -50.05 7.6 -50.2 7.85 -49.5 L7.85 -49.45 7.8 -49.15 Q7.25 -48.1 6.15 -48.35 L6.0 -48.4" fill="#ff9900" fill-rule="evenodd" stroke="none"/>
    <path d="M-10.1 5.9 L-9.1 5.65 -8.95 5.6 -7.55 5.2 -6.95 5.1 -6.9 6.15 -6.0 9.85 -6.05 9.85 -5.9 10.2 -5.6 10.95 Q-4.95 12.8 -3.95 14.55 L-3.15 15.65 -5.7 16.2 Q-5.2 15.6 -5.4 14.8 L-5.9 13.5 -5.8 13.15 -5.8 13.1 -5.9 12.95 -5.95 12.85 -6.45 12.25 Q-6.7 12.0 -7.05 11.85 L-7.7 11.25 -8.05 10.95 Q-9.3 10.05 -8.45 8.75 L-8.45 8.45 -8.85 7.55 -8.9 7.25 -9.2 7.0 -9.8 6.35 -10.1 5.9 M24.15 5.0 L24.95 4.75 Q26.35 4.2 27.65 3.45 L28.65 2.75 28.9 2.55 28.95 2.6 Q28.85 2.8 28.9 3.05 L28.85 3.35 28.9 3.75 28.7 4.6 28.7 4.7 28.7 4.75 28.0 7.15 25.75 11.8 25.4 12.4 25.3 12.45 24.65 12.6 25.2 12.5 25.3 12.55 24.95 13.15 24.95 13.2 24.8 13.35 24.8 13.3 24.75 13.4 22.2 16.9 22.2 16.95 22.0 17.15 22.2 16.45 22.3 15.65 22.05 14.4 Q21.1 13.95 21.25 12.95 21.35 12.45 21.75 12.1 23.55 11.9 24.85 10.8 25.65 10.15 25.95 9.25 26.05 7.65 25.55 6.05 24.6 5.7 24.15 5.0" fill="#660000" fill-rule="evenodd" stroke="none"/>
    <path d="M16.25 9.3 L16.1 9.45 15.9 9.6 15.3 9.95 15.25 9.95 14.55 10.2 13.4 10.3 Q11.7 10.0 10.85 8.7 L10.35 7.8 Q9.8 6.6 10.1 5.6 L10.45 5.7 10.9 5.8 13.25 6.2 13.7 6.25 14.0 6.25 14.75 6.25 17.75 6.2 17.4 6.7 Q17.3 8.35 16.25 9.3" fill="#ff0000" fill-rule="evenodd" stroke="none"/>
    <path d="M3.55 3.45 L5.15 4.0 6.1 4.35 7.55 4.8 7.45 5.0 7.6 5.0 7.15 6.6 7.15 6.65 6.55 8.3 6.1 9.25 5.85 10.15 5.15 11.8 4.8 12.2 3.75 14.25 3.05 15.2 2.95 15.4 1.55 15.25 0.6 15.15 -0.35 15.25 -1.9 15.4 -2.0 15.45 -2.3 14.8 -3.15 13.45 -3.95 12.0 -4.05 11.7 Q-2.05 13.1 1.05 12.65 6.4 10.25 4.4 4.85 4.1 4.0 3.5 3.5 L3.55 3.45" fill="#006666" fill-rule="evenodd" stroke="none"/>
    <path d="M-5.9 4.4 L-5.8 4.35 Q-4.0 3.65 -2.0 3.4 0.4 3.0 2.9 3.3 L3.4 3.4 3.5 3.5 Q4.1 4.0 4.4 4.85 6.4 10.25 1.05 12.65 -2.05 13.1 -4.05 11.7 L-4.35 11.05 -4.45 10.9 -5.0 9.7 -5.0 9.65 -5.3 8.8 Q-6.0 7.1 -6.35 5.3 L-5.9 4.4 M-2.35 9.15 Q-0.7 9.0 -0.2 7.35 0.65 4.65 -2.2 4.35 -4.75 4.9 -4.15 7.85 -3.85 9.25 -2.35 9.15 M-0.75 31.75 L0.4 31.5 Q3.1 31.8 2.8 34.5 2.7 35.65 1.7 36.3 0.65 37.0 -0.3 37.0 -1.5 36.9 -2.5 35.7 -3.25 34.75 -2.75 33.65 L-2.3 32.85 -1.95 32.5 -2.05 32.7 Q-2.4 34.05 -1.15 34.5 0.1 35.0 0.5 33.85 1.25 31.95 -0.75 31.75" fill="#009966" fill-rule="evenodd" stroke="none"/>
    <path d="M-2.35 9.15 Q-3.85 9.25 -4.15 7.85 -4.75 4.9 -2.2 4.35 0.65 4.65 -0.2 7.35 -0.7 9.0 -2.35 9.15 M-1.95 32.5 Q-1.45 31.95 -0.75 31.75 1.25 31.95 0.5 33.85 0.1 35.0 -1.15 34.5 -2.4 34.05 -2.05 32.7 L-1.95 32.5" fill="#00cccc" fill-rule="evenodd" stroke="none"/>
  </g>
</svg>
