<?xml version="1.0" encoding="UTF-8" standalone="no"?>
<svg xmlns:xlink="http://www.w3.org/1999/xlink" height="101.5px" width="39.0px" xmlns="http://www.w3.org/2000/svg">
  <g transform="matrix(1.0, 0.0, 0.0, 1.0, 8.55, 14.1)">
    <path d="M-4.0 -13.9 Q0.05 -14.65 3.2 -12.65 6.35 -10.7 8.8 -7.5 L13.35 -1.55 Q18.05 6.75 20.75 16.15 21.85 15.9 22.65 16.6 L24.0 18.2 Q24.2 19.55 25.0 20.6 L26.5 22.75 Q27.15 22.85 27.8 23.25 28.75 23.95 28.75 25.3 28.0 26.75 28.6 28.4 L29.05 29.95 29.25 31.65 Q30.0 32.0 30.25 32.7 30.9 34.9 29.6 36.85 L29.05 37.0 Q28.5 37.3 28.45 37.95 L28.0 39.6 Q26.95 40.25 27.3 41.55 27.65 42.8 27.25 43.9 26.3 46.0 24.2 47.05 23.45 49.15 24.05 51.2 24.85 53.2 24.2 55.0 23.55 56.8 22.2 58.15 L22.4 58.15 22.2 58.35 22.1 58.5 21.95 58.55 Q21.8 60.6 20.85 62.6 19.95 64.55 17.9 65.35 18.45 67.75 17.65 70.0 16.75 72.25 16.35 74.45 17.1 77.2 15.5 79.15 13.9 81.1 13.9 83.8 13.3 85.65 11.6 85.8 9.95 85.95 8.7 86.9 L5.55 87.4 2.55 87.4 Q2.15 87.35 2.15 86.95 2.3 86.75 2.5 86.7 2.3 86.4 2.4 85.9 3.25 85.7 3.7 86.2 4.7 85.75 5.3 84.75 L6.55 82.85 Q8.35 82.2 8.25 80.4 L7.0 80.35 5.7 80.5 3.9 83.55 Q3.0 84.4 1.9 84.15 L-0.2 83.95 Q-1.95 84.55 -3.6 84.0 L-5.0 83.2 Q-5.95 83.3 -6.75 82.8 -6.85 82.4 -6.55 82.1 -5.1 82.2 -4.0 81.5 L-3.25 80.95 Q-1.75 80.5 -1.3 79.0 -0.85 77.5 0.2 76.7 0.65 74.65 -0.1 72.6 L-1.35 72.5 Q-3.1 73.15 -3.35 74.85 L-3.55 78.15 -4.1 78.3 Q-4.35 78.15 -4.55 78.05 L-4.75 77.85 Q-5.35 76.3 -6.25 74.95 -7.15 73.6 -7.1 71.9 -7.85 70.25 -6.45 69.45 L-6.4 69.45 Q-5.05 68.6 -4.45 67.15 -3.15 66.7 -2.65 65.45 -1.5 63.65 0.5 63.05 2.5 62.45 4.0 61.1 3.2 59.55 3.4 57.95 3.55 56.3 4.05 54.85 4.1 54.25 4.7 53.85 5.3 53.4 4.55 52.9 4.3 50.9 4.6 49.0 4.9 47.1 6.35 45.85 6.25 43.9 6.6 42.05 5.5 40.55 5.7 38.7 6.2 36.9 7.2 35.8 L6.35 33.4 Q6.0 32.15 6.95 31.05 L6.25 29.95 5.65 27.9 Q5.35 26.7 6.25 26.05 0.1 18.65 -4.5 9.85 -9.15 1.0 -8.45 -9.35 -7.2 -12.7 -4.0 -13.9 M7.45 27.0 L7.1 26.9 Q6.85 27.5 6.9 28.1 6.9 28.85 7.35 29.6 9.45 30.65 11.8 30.15 14.15 29.6 16.25 28.7 18.4 27.05 19.45 24.5 20.5 21.9 20.1 19.35 19.55 15.5 18.1 11.5 L14.85 3.8 Q13.85 1.8 12.2 0.35 10.5 -1.1 10.15 -3.4 6.25 -9.05 0.25 -12.85 L-2.45 -13.05 -3.7 -12.55 Q-5.6 -11.6 -6.6 -9.75 -7.6 -7.4 -7.3 -4.8 L-6.6 -0.2 -6.45 0.5 Q-5.7 3.6 -4.6 6.5 -3.5 9.4 -1.1 11.5 0.05 15.85 2.65 19.45 L7.35 25.55 7.65 25.9 7.9 26.25 Q7.45 26.45 7.45 27.0 M23.4 19.75 L23.35 19.3 Q22.75 18.1 21.9 17.45 L20.9 17.5 Q21.4 21.05 20.3 24.6 L18.75 27.5 18.5 27.8 17.9 28.45 15.8 30.0 Q14.3 30.8 12.25 31.1 L11.55 31.3 11.2 31.3 9.7 31.5 9.05 31.6 8.8 31.65 8.65 31.7 8.75 31.55 8.1 31.45 Q7.5 32.7 8.0 33.85 L8.1 33.95 8.1 34.0 8.1 35.45 8.05 35.7 Q7.9 36.0 8.0 36.35 L7.95 36.65 7.65 37.05 7.25 38.1 7.25 39.25 7.3 39.5 7.35 39.4 Q7.75 38.95 8.4 38.65 L8.65 38.45 8.95 38.4 10.15 37.65 10.55 37.45 10.65 37.45 10.9 37.25 10.95 37.25 12.1 37.0 Q15.6 36.65 18.9 37.9 L19.4 38.1 Q21.65 39.1 23.2 41.1 L23.3 41.25 23.45 41.45 23.95 42.25 24.0 42.4 24.05 42.5 24.1 42.6 24.5 44.4 24.5 45.15 24.7 45.1 25.6 44.35 26.45 42.95 Q26.9 41.5 26.15 40.4 L26.4 40.35 26.45 40.25 26.55 39.95 26.45 39.45 26.6 39.75 Q28.95 35.1 28.1 30.25 27.25 25.4 24.15 21.5 L24.3 21.6 24.25 21.45 24.15 21.05 24.0 20.5 Q23.9 19.85 23.4 19.75 M28.0 26.0 Q28.2 24.4 26.8 23.65 L28.0 26.0 M-1.35 65.8 L-5.0 70.15 -5.45 70.7 -5.6 71.55 -5.65 73.25 -5.35 74.45 -5.05 75.0 -4.9 75.15 -4.9 75.2 -4.65 75.45 -4.55 75.55 -4.15 76.4 Q-4.55 74.1 -2.95 72.7 -2.65 71.8 -1.9 71.5 L-0.75 70.8 Q-0.4 71.15 0.2 71.1 0.8 71.05 0.95 71.55 0.15 71.9 0.65 72.5 L1.4 73.7 1.5 74.25 1.65 73.75 1.7 73.5 2.65 70.75 2.85 71.9 Q2.9 73.2 2.2 74.45 L1.4 76.1 0.9 78.15 Q-0.35 78.7 -0.6 80.1 -0.9 81.5 -2.45 81.85 L-3.5 82.75 -3.45 82.75 -2.15 83.0 -1.5 83.0 -1.3 82.95 -1.25 82.95 0.3 82.5 0.9 82.45 1.05 82.4 0.65 82.2 1.25 82.45 Q2.65 82.6 3.6 81.65 L3.55 81.6 4.15 81.1 4.4 80.6 4.2 80.9 6.15 77.85 7.05 76.75 Q7.2 77.5 6.8 78.25 L6.45 78.95 6.05 79.8 6.3 79.85 7.45 79.6 Q8.2 79.3 8.85 79.6 L8.9 79.85 9.35 81.05 9.4 80.95 9.35 81.15 Q9.0 82.85 7.45 83.65 L5.4 86.35 6.3 86.15 10.5 84.95 Q11.0 84.55 11.65 84.4 L12.25 83.95 Q12.65 84.1 12.85 83.75 L12.95 83.4 13.1 83.45 13.4 80.6 Q14.65 79.15 15.35 77.4 L15.65 77.35 15.8 76.45 15.55 76.2 15.5 76.2 Q14.9 73.5 16.1 70.9 17.4 68.1 16.9 65.05 L16.4 64.7 16.35 64.7 Q15.35 63.8 14.15 63.2 L11.95 62.15 11.7 62.0 11.1 61.6 10.55 61.3 9.75 61.1 9.0 61.0 6.9 61.15 6.9 61.1 Q6.2 61.25 5.5 61.65 L4.2 62.5 3.75 62.9 3.05 63.1 Q1.5 64.1 -0.25 64.9 L-0.45 64.95 -0.55 65.0 -0.75 65.1 -1.35 65.8 M29.35 32.65 L29.05 35.35 28.95 36.2 29.05 36.0 29.55 34.65 Q29.8 33.6 29.35 32.65 M22.95 46.8 L23.05 46.4 23.05 46.25 23.3 43.4 Q21.9 40.95 19.5 39.5 16.95 38.3 14.1 38.2 12.5 38.15 11.05 38.65 L10.25 38.95 9.45 39.4 9.2 39.55 8.85 39.75 Q8.85 40.1 8.5 40.25 L8.4 40.35 7.8 41.85 Q7.25 43.55 7.3 45.4 L8.8 44.95 12.35 43.95 15.4 44.3 18.95 45.7 19.15 45.8 Q20.8 46.5 22.1 47.95 L22.4 48.25 22.8 47.35 22.95 46.8 M5.55 50.95 L5.55 51.45 5.75 52.9 5.65 54.45 5.5 54.65 5.45 54.75 5.4 54.8 5.05 55.5 5.0 55.6 4.95 55.75 4.9 55.95 Q4.5 57.35 4.35 58.65 L4.35 58.7 4.45 59.55 4.5 59.9 4.65 60.85 Q5.2 60.65 5.15 60.3 L8.15 60.0 11.6 60.3 Q12.85 60.65 14.05 61.3 L14.95 61.95 Q15.05 62.45 16.1 62.7 L16.15 62.65 16.6 62.95 16.5 63.1 17.45 64.2 Q19.0 63.3 19.8 61.65 L21.1 58.5 21.05 58.35 21.05 58.3 21.7 56.95 22.8 55.05 Q23.35 53.5 23.05 51.8 21.65 48.75 19.0 47.0 L18.5 46.7 17.85 46.35 17.65 46.25 Q15.95 45.5 14.1 45.35 L13.95 45.35 13.8 45.35 13.0 45.35 12.0 45.5 10.85 45.6 10.1 45.8 Q7.95 46.25 6.35 47.9 L6.3 48.0 6.25 48.1 Q5.65 49.45 5.55 50.95 M20.2 57.25 L20.4 57.05 20.25 57.25 20.2 57.25 M5.3 59.3 L5.15 59.35 5.2 59.25 5.3 59.3 M11.8 66.0 L11.85 65.95 11.8 66.05 11.8 66.0 M8.45 66.5 L8.4 66.6 8.35 66.55 8.45 66.5" fill="#000000" fill-rule="evenodd" stroke="none"/>
    <path d="M-6.6 -0.2 L-7.3 -4.8 Q-7.6 -7.4 -6.6 -9.75 -5.6 -11.6 -3.7 -12.55 L-2.45 -13.05 0.25 -12.85 Q6.25 -9.05 10.15 -3.4 10.5 -1.1 12.2 0.35 13.85 1.8 14.85 3.8 L18.1 11.5 Q19.55 15.5 20.1 19.35 20.5 21.9 19.45 24.5 18.4 27.05 16.25 28.7 14.15 29.6 11.8 30.15 9.45 30.65 7.35 29.6 6.9 28.85 6.9 28.1 6.85 27.5 7.1 26.9 L7.45 27.0 7.4 27.0 Q7.45 27.9 8.6 27.95 L12.4 27.5 Q13.85 27.1 15.0 26.3 L16.45 25.0 17.5 24.05 Q18.3 22.6 18.0 21.1 L17.95 21.1 17.7 20.05 17.5 19.4 Q17.3 18.4 16.65 18.05 L16.95 17.55 16.95 17.85 16.95 17.75 16.95 17.25 16.8 15.95 16.65 15.5 16.35 14.5 Q16.25 14.1 16.45 13.9 L16.1 12.75 14.25 7.95 13.6 6.95 Q11.6 4.65 9.2 2.65 8.15 2.6 7.2 3.2 L6.8 3.4 Q5.85 3.85 5.1 4.55 L3.75 6.6 Q2.1 8.3 -0.45 7.55 -1.4 7.25 -1.2 6.3 L-1.15 6.2 Q-0.95 5.05 -0.2 4.1 L0.25 3.6 1.55 2.15 1.55 2.05 Q1.6 1.2 2.15 0.75 L2.4 0.1 2.4 -0.2 2.55 -4.45 2.2 -5.6 1.75 -6.7 1.1 -8.0 Q-1.15 -9.35 -3.9 -8.35 L-4.35 -7.95 Q-6.5 -4.75 -6.6 -0.8 L-6.6 -0.2 M7.65 25.9 L7.35 25.55 7.85 25.55 8.45 25.55 7.85 25.7 7.65 25.9 M11.05 38.65 Q12.5 38.15 14.1 38.2 16.95 38.3 19.5 39.5 21.9 40.95 23.3 43.4 L23.05 46.25 23.05 46.4 22.95 46.8 22.8 47.35 22.4 48.25 22.1 47.95 Q20.8 46.5 19.15 45.8 L18.95 45.7 19.7 43.4 Q18.2 38.85 13.45 39.4 L12.35 39.45 12.0 38.5 11.95 38.45 11.9 38.4 11.05 38.65 M9.0 61.0 L9.75 61.1 10.55 61.3 11.1 61.6 11.7 62.0 11.95 62.15 14.15 63.2 Q15.35 63.8 16.35 64.7 L16.4 64.7 16.9 65.05 Q17.4 68.1 16.1 70.9 14.9 73.5 15.5 76.2 L15.55 76.2 15.8 76.45 15.65 77.35 15.35 77.4 Q14.65 79.15 13.4 80.6 L13.1 83.45 12.95 83.4 12.85 83.75 Q12.65 84.1 12.25 83.95 L12.3 83.6 Q10.85 82.95 9.55 83.9 L9.45 83.8 9.25 83.6 Q9.65 83.15 10.2 82.95 L11.85 82.85 11.3 82.75 12.85 79.5 13.3 78.7 13.55 78.75 13.8 78.75 Q13.75 78.4 13.5 78.2 L14.3 76.5 13.3 76.05 13.2 76.0 13.3 75.95 14.6 75.9 14.8 75.35 14.5 72.75 Q14.45 70.6 15.35 68.7 L15.2 68.5 14.9 67.95 14.85 67.5 14.8 67.3 14.45 66.85 14.15 66.3 13.95 65.55 9.05 62.5 8.85 62.15 Q8.7 61.45 9.0 61.0 M9.4 80.95 L9.35 81.05 8.9 79.85 8.85 79.6 Q8.2 79.3 7.45 79.6 L6.3 79.85 6.05 79.8 6.45 78.95 6.8 78.25 Q7.2 77.5 7.05 76.75 L6.15 77.85 4.2 80.9 4.4 80.6 4.15 81.1 3.55 81.6 3.6 81.65 Q2.65 82.6 1.25 82.45 L0.65 82.2 1.05 82.4 0.9 82.45 0.3 82.5 -1.25 82.95 -1.15 82.85 Q-0.45 82.15 0.4 81.8 L2.1 80.95 2.65 80.55 2.75 80.4 2.9 80.15 2.65 80.35 3.25 79.9 4.75 77.45 Q4.95 77.15 5.3 77.2 L5.45 77.2 5.8 77.25 6.05 77.65 6.85 76.9 6.8 76.5 6.45 76.2 4.9 75.15 6.4 75.35 6.65 75.45 6.85 75.75 6.8 74.75 6.15 74.5 Q5.4 74.05 4.7 73.9 4.4 74.55 4.6 75.25 L4.75 75.7 4.5 75.75 Q4.05 75.1 3.95 74.15 L4.2 73.45 5.6 73.7 6.9 74.1 Q6.55 73.6 7.05 73.25 L7.2 73.2 Q8.05 73.35 8.35 74.25 L8.65 74.8 8.9 75.4 9.0 76.85 8.95 77.1 Q10.0 78.35 9.8 80.1 L9.8 80.3 10.2 80.95 10.2 81.35 10.15 81.45 Q9.7 81.5 9.45 81.1 L9.4 80.95 M2.85 71.9 L2.65 70.75 1.7 73.5 1.65 73.75 1.5 74.25 1.4 73.7 0.65 72.5 Q0.15 71.9 0.95 71.55 0.8 71.05 0.2 71.1 -0.4 71.15 -0.75 70.8 L-1.9 71.5 Q-2.65 71.8 -2.95 72.7 -4.55 74.1 -4.15 76.4 L-4.55 75.55 -4.65 75.45 -4.9 75.2 -4.9 75.15 -4.9 75.0 Q-4.5 71.8 -2.25 69.8 L-0.55 68.7 Q1.5 68.7 2.95 69.9 L3.1 70.25 2.85 71.9 M1.4 73.7 L1.45 73.7 1.4 73.7" fill="#495c0a" fill-rule="evenodd" stroke="none"/>
    <path d="M-6.6 -0.2 L-6.6 -0.8 Q-6.5 -4.75 -4.35 -7.95 L-3.9 -8.35 Q-1.15 -9.35 1.1 -8.0 L1.75 -6.7 2.2 -5.6 2.55 -4.45 2.4 -0.2 2.4 0.1 2.15 0.75 Q1.6 1.2 1.55 2.05 L1.55 2.15 0.25 3.6 -0.2 4.1 Q-2.2 2.05 -1.95 -1.0 -1.8 -2.6 -2.65 -3.7 L-3.3 -3.75 -4.25 -2.85 Q-4.95 -1.9 -5.15 -0.7 -5.65 2.75 -3.35 5.2 -2.2 6.45 -1.15 6.2 L-1.2 6.3 Q-1.4 7.25 -0.45 7.55 2.1 8.3 3.75 6.6 L5.1 4.55 Q5.85 3.85 6.8 3.4 L7.2 3.2 Q8.15 2.6 9.2 2.65 11.6 4.65 13.6 6.95 L14.25 7.95 16.1 12.75 16.45 13.9 Q16.25 14.1 16.35 14.5 L16.65 15.5 16.8 15.95 16.95 17.25 16.95 17.75 16.95 17.85 16.95 17.55 16.65 18.05 Q17.3 18.4 17.5 19.4 L17.7 20.05 17.95 21.1 18.0 21.1 Q18.3 22.6 17.5 24.05 L16.45 25.0 15.0 26.3 Q13.85 27.1 12.4 27.5 L8.6 27.95 Q7.45 27.9 7.4 27.0 L7.45 27.0 Q7.45 26.45 7.9 26.25 L7.65 25.9 7.85 25.7 8.45 25.55 7.85 25.55 7.35 25.55 2.65 19.45 Q0.05 15.85 -1.1 11.5 -3.5 9.4 -4.6 6.5 -5.7 3.6 -6.45 0.5 L-6.6 -0.2 M12.4 8.65 Q12.5 10.3 13.85 11.0 14.5 10.85 14.55 10.2 14.15 8.65 12.75 8.0 12.15 8.05 12.4 8.65 M2.45 10.35 L2.05 10.8 Q0.8 13.9 2.3 17.2 4.1 21.1 6.85 24.5 7.4 25.2 8.1 25.3 L9.05 25.15 9.7 24.8 Q10.65 24.05 9.9 22.7 L9.15 21.2 7.7 19.0 Q5.4 16.45 4.95 12.9 4.6 10.55 2.45 10.35 M9.7 5.8 L9.5 5.5 9.3 5.15 Q8.9 4.7 8.4 4.65 8.1 4.8 8.05 5.1 7.85 6.05 8.5 6.75 8.85 7.1 9.35 7.15 L9.6 7.3 10.25 6.9 9.7 5.8 M12.45 17.6 Q12.65 16.9 11.9 16.25 11.5 16.0 11.3 16.4 11.05 16.8 11.4 17.15 11.8 17.7 12.45 17.6 M-5.35 74.45 L-4.9 73.4 -4.55 71.0 -4.25 70.9 -4.1 70.85 -3.85 70.45 Q-2.4 68.15 -0.15 66.65 L1.3 66.3 2.85 65.4 4.55 64.1 Q6.0 62.75 6.9 61.15 L9.0 61.0 Q8.7 61.45 8.85 62.15 L9.05 62.5 13.95 65.55 14.15 66.3 14.45 66.85 14.8 67.3 14.85 67.5 14.9 67.95 15.2 68.5 15.35 68.7 Q14.45 70.6 14.5 72.75 L14.8 75.35 14.6 75.9 13.3 75.95 13.25 75.55 Q13.05 74.8 12.25 74.7 12.0 74.7 11.8 74.85 11.15 75.4 10.9 76.3 L10.55 77.25 10.45 77.6 Q10.35 78.4 10.95 78.95 L11.05 79.05 11.6 79.35 Q12.45 79.55 12.8 78.8 L12.9 78.55 12.6 78.4 12.45 78.3 12.4 78.25 Q11.7 77.75 11.0 78.0 L10.95 77.7 Q11.2 76.2 12.45 75.5 L12.0 76.55 13.0 77.1 11.9 77.0 Q11.5 77.15 11.7 77.5 L11.95 77.45 13.1 78.0 13.3 76.05 14.3 76.5 13.5 78.2 Q13.75 78.4 13.8 78.75 L13.55 78.75 13.3 78.7 12.85 79.5 11.3 82.75 11.85 82.85 10.2 82.95 10.35 82.5 Q10.6 81.7 10.2 81.35 L10.2 80.95 9.8 80.3 9.8 80.1 Q10.0 78.35 8.95 77.1 L9.0 76.85 8.9 75.4 8.65 74.8 8.35 74.25 Q8.05 73.35 7.2 73.2 L7.05 73.25 Q6.55 73.6 6.9 74.1 L5.6 73.7 5.5 73.55 5.45 72.7 6.75 72.7 Q6.8 72.0 6.2 71.7 5.35 71.7 4.95 72.2 5.1 71.95 5.35 71.85 5.15 71.4 4.5 71.25 L4.15 71.35 Q3.8 71.5 3.65 71.8 L3.3 72.65 Q2.9 73.95 2.85 75.3 L2.95 75.9 Q3.2 76.55 3.85 76.35 L3.95 76.35 5.1 76.45 5.75 76.6 6.2 76.55 6.45 76.2 6.8 76.5 6.85 76.9 6.05 77.65 5.8 77.25 5.45 77.2 5.3 77.2 Q4.95 77.15 4.75 77.45 L3.25 79.9 2.65 80.35 2.9 80.15 2.75 80.4 2.65 80.55 2.1 80.95 0.4 81.8 Q-0.45 82.15 -1.15 82.85 L-1.25 82.95 -1.3 82.95 -1.5 83.0 -1.75 82.85 -1.85 82.75 -1.35 82.25 -0.35 81.35 -0.35 81.2 -0.35 81.0 -0.1 81.15 0.0 81.05 Q0.95 80.4 1.5 79.45 L2.35 77.5 Q2.75 76.15 1.4 76.1 L2.2 74.45 Q2.9 73.2 2.85 71.9 L3.1 70.25 2.95 69.9 Q1.5 68.7 -0.55 68.7 L-2.25 69.8 Q-4.5 71.8 -4.9 75.0 L-4.9 75.15 -5.05 75.0 -5.35 74.45 M12.35 39.45 L13.45 39.4 Q18.2 38.85 19.7 43.4 L18.95 45.7 15.4 44.3 12.35 43.95 8.8 44.95 8.85 44.75 9.1 44.85 11.25 44.25 11.5 42.75 12.15 40.65 12.35 39.45 M9.45 83.8 L9.55 83.9 Q10.85 82.95 12.3 83.6 L12.25 83.95 11.65 84.4 Q11.0 84.55 10.5 84.95 L6.3 86.15 6.3 86.1 7.75 85.1 9.45 83.8 M8.9 64.8 Q8.3 64.9 7.85 65.35 L5.15 67.7 4.8 68.15 Q4.5 69.0 5.25 69.45 L5.3 70.0 6.8 69.0 6.1 69.6 6.45 69.4 8.7 67.45 9.45 66.6 Q10.25 65.6 9.35 64.8 L8.9 64.8 M11.8 66.05 L11.85 65.95 11.8 66.0 11.75 66.05 11.55 66.1 11.2 66.65 Q9.75 68.3 8.85 70.4 8.65 71.35 9.1 72.05 L9.35 72.0 9.6 71.5 9.85 72.1 Q10.3 72.75 11.0 72.25 L12.05 71.15 12.15 71.45 12.2 70.95 12.75 69.55 13.05 67.75 Q13.25 66.35 12.05 66.0 L11.8 66.05" fill="#67820b" fill-rule="evenodd" stroke="none"/>
    <path d="M-0.2 4.1 Q-0.95 5.05 -1.15 6.2 -2.2 6.45 -3.35 5.2 -5.65 2.75 -5.15 -0.7 -4.95 -1.9 -4.25 -2.85 L-3.3 -3.75 -2.65 -3.7 Q-1.8 -2.6 -1.95 -1.0 -2.2 2.05 -0.2 4.1 M12.4 8.65 Q12.15 8.05 12.75 8.0 14.15 8.65 14.55 10.2 14.5 10.85 13.85 11.0 12.5 10.3 12.4 8.65 M9.7 5.8 L10.25 6.9 9.6 7.3 9.35 7.15 Q8.85 7.1 8.5 6.75 7.85 6.05 8.05 5.1 8.1 4.8 8.4 4.65 8.9 4.7 9.3 5.15 L9.5 5.5 9.7 5.8 M2.45 10.35 Q4.6 10.55 4.95 12.9 5.4 16.45 7.7 19.0 L9.15 21.2 9.9 22.7 Q10.65 24.05 9.7 24.8 L9.05 25.15 8.1 25.3 Q7.4 25.2 6.85 24.5 4.1 21.1 2.3 17.2 0.8 13.9 2.05 10.8 L2.45 10.35 M12.45 17.6 Q11.8 17.7 11.4 17.15 11.05 16.8 11.3 16.4 11.5 16.0 11.9 16.25 12.65 16.9 12.45 17.6 M-5.35 74.45 L-5.65 73.25 -5.6 71.55 -5.45 70.7 -5.0 70.15 -1.35 65.8 -0.8 65.15 -0.55 65.0 -0.45 64.95 -0.25 64.9 Q1.5 64.1 3.05 63.1 L3.75 62.9 4.2 62.5 5.5 61.65 Q6.2 61.25 6.9 61.1 L6.9 61.15 Q6.0 62.75 4.55 64.1 L2.85 65.4 1.3 66.3 -0.15 66.65 Q-2.4 68.15 -3.85 70.45 L-4.1 70.85 -4.25 70.9 -4.55 71.0 -4.9 73.4 -5.35 74.45 M11.05 38.65 L11.9 38.4 11.95 38.45 12.0 38.5 12.35 39.45 12.15 40.65 11.5 42.75 11.25 44.25 9.1 44.85 8.85 44.75 8.8 44.95 7.3 45.4 Q7.25 43.55 7.8 41.85 L8.4 40.35 8.5 40.25 Q8.85 40.1 8.85 39.75 L9.2 39.55 9.45 39.4 10.25 38.95 11.05 38.65 M13.3 75.95 L13.2 76.0 13.3 76.05 13.1 78.0 11.95 77.45 11.7 77.5 Q11.5 77.15 11.9 77.0 L13.0 77.1 12.0 76.55 12.45 75.5 Q11.2 76.2 10.95 77.7 L11.0 78.0 Q11.7 77.75 12.4 78.25 L12.45 78.3 12.6 78.4 12.9 78.55 12.8 78.8 Q12.45 79.55 11.6 79.35 L11.05 79.05 10.95 78.95 Q10.35 78.4 10.45 77.6 L10.55 77.25 10.9 76.3 Q11.15 75.4 11.8 74.85 12.0 74.7 12.25 74.7 13.05 74.8 13.25 75.55 L13.3 75.95 M10.2 82.95 Q9.65 83.15 9.25 83.6 L9.45 83.8 7.75 85.1 6.3 86.1 6.3 86.15 5.4 86.35 7.45 83.65 Q9.0 82.85 9.35 81.15 L9.45 81.1 Q9.7 81.5 10.15 81.45 L10.2 81.35 Q10.6 81.7 10.35 82.5 L10.2 82.95 M-2.15 83.0 L-3.45 82.75 -3.5 82.75 -2.45 81.85 Q-0.9 81.5 -0.6 80.1 -0.35 78.7 0.9 78.15 L1.4 76.1 Q2.75 76.15 2.35 77.5 L1.5 79.45 Q0.95 80.4 0.0 81.05 L-0.1 81.15 -0.35 81.0 -0.35 81.2 -0.35 81.35 -1.35 82.25 -1.85 82.75 -2.15 83.0 M8.9 64.8 L9.35 64.8 Q10.25 65.6 9.45 66.6 L8.7 67.45 6.45 69.4 6.1 69.6 6.8 69.0 5.3 70.0 5.25 69.45 Q4.5 69.0 4.8 68.15 L5.15 67.7 7.85 65.35 Q8.3 64.9 8.9 64.8 M6.45 76.2 L6.2 76.55 5.75 76.6 5.1 76.45 3.95 76.35 3.85 76.35 Q3.2 76.55 2.95 75.9 L2.85 75.3 Q2.9 73.95 3.3 72.65 L3.65 71.8 Q3.8 71.5 4.15 71.35 L4.5 71.25 Q5.15 71.4 5.35 71.85 5.1 71.95 4.95 72.2 L4.65 72.65 5.45 72.7 5.5 73.55 5.6 73.7 4.2 73.45 3.95 74.15 Q4.05 75.1 4.5 75.75 L4.75 75.7 4.6 75.25 Q4.4 74.55 4.7 73.9 5.4 74.05 6.15 74.5 L6.4 75.35 4.9 75.15 6.45 76.2 M11.8 66.05 L12.05 66.0 Q13.25 66.35 13.05 67.75 L12.75 69.55 12.2 70.95 12.15 71.45 12.05 71.15 11.0 72.25 Q10.3 72.75 9.85 72.1 L9.6 71.5 9.35 72.0 9.1 72.05 Q8.65 71.35 8.85 70.4 9.75 68.3 11.2 66.65 L11.55 66.1 11.75 66.05 11.8 66.0 11.8 66.05 M8.45 66.5 L8.35 66.55 8.4 66.6 8.45 66.5" fill="#81a20d" fill-rule="evenodd" stroke="none"/>
    <path d="M17.9 28.45 L18.5 27.8 18.75 27.5 20.3 24.6 Q21.4 21.05 20.9 17.5 L21.9 17.45 Q22.75 18.1 23.35 19.3 L23.4 19.75 Q23.7 22.5 22.7 24.95 21.65 27.45 19.95 29.75 L19.7 30.05 Q19.45 30.4 19.75 30.65 L19.85 30.7 19.95 30.6 20.05 30.5 20.15 30.45 20.15 30.4 20.3 30.3 20.4 30.25 20.4 30.2 20.5 30.1 21.1 29.5 21.3 29.3 21.7 28.8 23.0 26.8 23.15 26.5 23.05 26.35 23.45 25.6 23.55 25.15 23.85 24.55 24.15 21.8 24.15 21.5 Q27.25 25.4 28.1 30.25 28.95 35.1 26.6 39.75 L26.45 39.45 26.4 39.4 26.15 39.05 25.15 38.15 25.0 38.05 24.25 37.6 23.95 37.5 Q23.8 37.5 23.7 37.6 L25.85 40.0 26.05 40.25 26.15 40.4 Q26.9 41.5 26.45 42.95 L25.6 44.35 24.7 45.1 24.5 45.0 24.5 44.4 24.1 42.6 24.05 42.5 24.0 42.4 23.95 42.25 23.45 41.45 23.3 41.25 23.2 41.1 Q21.65 39.1 19.4 38.1 19.6 37.85 20.0 37.7 L20.0 37.3 Q19.9 36.95 20.1 36.7 17.9 35.5 15.55 34.95 13.0 34.35 10.45 35.3 L10.4 35.3 Q9.3 35.5 8.3 36.05 L8.0 36.35 Q7.9 36.0 8.05 35.7 L8.1 35.45 8.1 34.0 8.15 33.95 8.25 34.05 8.7 34.0 8.9 34.0 9.1 34.05 9.2 34.05 9.35 34.05 9.4 34.05 9.45 34.05 10.35 34.0 11.45 33.7 11.8 33.65 12.6 33.45 14.65 33.15 Q16.6 32.9 18.25 31.95 L18.5 32.4 Q17.6 32.85 17.4 33.75 18.05 35.0 19.2 35.3 19.6 35.4 19.95 35.65 L20.05 35.45 20.15 35.2 20.3 33.55 21.75 33.5 Q22.15 32.65 21.5 31.85 21.1 31.35 20.55 31.5 L20.55 31.55 20.35 31.5 Q20.05 31.55 19.9 31.8 L19.8 31.65 19.65 31.5 19.55 31.1 19.4 30.85 19.0 30.85 Q18.6 30.75 18.75 30.35 L18.9 29.8 18.55 29.0 18.05 28.6 17.9 28.45 M20.1 36.7 L20.3 36.8 20.1 36.7 M24.75 26.95 Q24.3 26.95 24.1 27.4 23.65 28.2 24.25 29.0 24.85 29.7 25.75 29.3 L25.9 29.15 Q26.55 28.75 26.3 28.05 25.9 27.0 24.75 26.95 M25.2 33.95 L25.25 34.5 25.7 34.95 26.1 34.95 Q26.95 34.7 26.85 33.85 26.75 33.05 25.95 33.1 25.3 33.3 25.2 33.95 M22.8 36.45 L22.4 36.7 22.95 36.25 22.8 36.45 M5.55 50.95 L6.0 50.25 6.15 50.05 7.6 48.55 9.45 47.35 11.05 46.9 14.95 46.8 15.5 46.9 16.95 47.0 17.1 46.75 17.2 46.45 17.2 46.4 17.15 46.4 17.15 46.25 17.65 46.35 17.85 46.35 18.5 46.7 18.6 47.25 Q18.75 47.95 18.5 48.7 L18.4 49.1 18.15 49.4 17.9 50.0 17.05 51.2 17.0 51.25 17.0 51.3 16.7 51.7 13.7 50.7 12.85 50.55 12.6 50.05 11.35 49.85 11.25 51.05 11.4 51.75 11.4 52.1 Q11.5 52.85 11.0 53.4 L10.5 54.0 9.4 55.5 9.35 55.55 7.85 55.9 7.5 55.95 Q7.25 56.1 7.3 56.35 L7.3 56.4 7.45 56.55 8.55 56.75 9.3 56.7 9.8 56.55 9.85 56.5 9.9 56.45 9.95 56.4 10.15 56.3 10.8 55.75 Q11.25 54.5 12.4 53.8 13.0 53.4 13.65 53.25 L13.95 53.25 15.1 53.6 15.15 53.65 Q15.4 53.8 15.45 54.2 L15.45 54.7 15.5 55.1 15.5 55.15 15.5 55.35 15.2 57.55 15.25 57.65 15.15 58.05 Q14.8 59.35 13.5 59.8 L13.35 59.8 11.65 59.15 Q9.15 58.25 6.5 58.55 L5.9 58.65 6.15 57.05 Q6.35 56.2 6.8 55.5 L6.6 55.0 6.65 54.65 6.9 51.9 6.95 51.8 Q7.2 51.2 7.6 50.8 L6.85 51.0 5.55 51.45 5.55 50.95 M20.25 57.3 L17.95 59.2 Q17.05 59.15 16.6 58.4 L16.05 57.85 16.1 54.25 Q16.9 53.35 17.2 52.2 L17.25 52.1 17.65 51.7 17.8 51.6 17.9 51.45 18.35 50.9 Q19.5 51.4 20.5 52.55 20.9 53.1 20.95 53.75 L20.85 54.95 Q20.6 55.75 21.0 56.3 L20.8 55.85 Q20.35 56.45 20.2 57.25 L20.25 57.3 M9.65 51.65 L10.0 50.95 9.65 51.65 M10.4 50.25 L10.25 50.2 10.3 50.4 10.4 50.25 M7.3 54.45 L7.35 54.4 7.3 54.3 7.3 54.45 M17.7 58.15 L17.5 58.1 17.6 58.2 18.15 57.85 17.7 58.15" fill="#996600" fill-rule="evenodd" stroke="none"/>
    <path d="M26.15 40.4 L26.05 40.25 25.85 40.0 23.7 37.6 Q23.8 37.5 23.95 37.5 L24.25 37.6 25.0 38.05 25.15 38.15 26.15 39.05 26.4 39.4 26.45 39.45 26.55 39.95 26.45 40.25 26.4 40.35 26.15 40.4 M24.15 21.5 L24.15 21.8 23.85 24.55 23.55 25.15 23.45 25.6 23.05 26.35 23.15 26.5 23.0 26.8 21.7 28.8 21.3 29.3 21.1 29.5 20.5 30.1 20.4 30.2 20.15 30.4 20.15 30.45 20.05 30.5 19.95 30.6 19.85 30.7 19.75 30.65 Q19.45 30.4 19.7 30.05 L19.95 29.75 Q21.65 27.45 22.7 24.95 23.7 22.5 23.4 19.75 23.9 19.85 24.0 20.5 L24.15 21.05 24.25 21.45 24.15 21.5 M5.55 51.45 L6.85 51.0 7.6 50.8 Q7.2 51.2 6.95 51.8 L6.8 52.25 6.9 51.9 6.65 54.65 6.55 54.65 6.5 53.7 Q6.0 54.0 5.65 54.45 L5.75 52.9 5.55 51.45 M5.9 58.65 L6.5 58.55 Q9.15 58.25 11.65 59.15 L13.35 59.8 13.5 59.8 Q14.8 59.35 15.15 58.05 L15.25 57.65 15.2 57.55 15.5 55.35 15.5 55.15 15.5 55.1 15.45 54.7 15.45 54.2 Q15.4 53.8 15.15 53.65 L15.15 53.6 15.1 53.6 13.95 53.25 13.65 53.25 Q13.0 53.4 12.4 53.8 11.25 54.5 10.8 55.75 L10.15 56.3 9.95 56.4 9.9 56.45 9.85 56.5 9.8 56.55 9.3 56.7 8.55 56.75 7.45 56.55 7.3 56.4 7.3 56.35 Q7.25 56.1 7.5 55.95 L7.85 55.9 9.35 55.55 9.4 55.5 10.5 54.0 11.0 53.4 Q11.5 52.85 11.4 52.1 L11.4 51.75 11.25 51.05 11.35 49.85 12.6 50.05 12.85 50.55 13.7 50.7 16.7 51.7 17.0 51.3 17.05 51.2 17.9 50.0 18.15 49.4 18.4 49.1 18.5 48.7 Q18.75 47.95 18.6 47.25 L18.5 46.7 19.0 47.0 Q21.65 48.75 23.05 51.8 23.35 53.5 22.8 55.05 L21.7 56.95 21.05 58.3 21.05 58.35 21.1 58.5 19.8 61.65 Q19.0 63.3 17.45 64.2 L16.5 63.1 16.6 62.95 16.15 62.65 16.1 62.7 Q15.05 62.45 14.95 61.95 L14.05 61.3 Q12.85 60.65 11.6 60.3 L8.15 60.0 5.15 60.3 Q5.2 60.65 4.65 60.85 L4.5 59.9 4.45 59.55 4.4 58.95 4.45 58.95 5.9 58.65 M20.2 57.25 Q20.35 56.45 20.8 55.85 L21.0 56.3 Q20.6 55.75 20.85 54.95 L20.95 53.75 Q20.9 53.1 20.5 52.55 19.5 51.4 18.35 50.9 L17.9 51.45 17.8 51.6 17.65 51.7 17.25 52.1 17.2 52.2 Q16.9 53.35 16.1 54.25 L16.05 57.85 16.6 58.4 Q17.05 59.15 17.95 59.2 L20.25 57.3 20.25 57.25 20.4 57.05 20.2 57.25 M5.3 59.3 L5.2 59.25 5.15 59.35 5.3 59.3" fill="#6f4a00" fill-rule="evenodd" stroke="none"/>
    <path d="M24.25 21.45 L24.3 21.6 24.15 21.5 24.25 21.45" fill="#663333" fill-rule="evenodd" stroke="none"/>
    <path d="M24.75 26.95 Q25.9 27.0 26.3 28.05 26.55 28.75 25.9 29.15 L25.75 29.3 Q24.85 29.7 24.25 29.0 23.65 28.2 24.1 27.4 24.3 26.95 24.75 26.95 M25.2 33.95 Q25.3 33.3 25.95 33.1 26.75 33.05 26.85 33.85 26.95 34.7 26.1 34.95 L25.7 34.95 25.25 34.5 25.2 33.95" fill="#c1c100" fill-rule="evenodd" stroke="none"/>
    <path d="M28.0 26.0 L26.8 23.65 Q28.2 24.4 28.0 26.0 M29.35 32.65 Q29.8 33.6 29.55 34.65 L29.05 36.0 28.95 36.2 29.05 35.35 29.35 32.65" fill="#777700" fill-rule="evenodd" stroke="none"/>
    <path d="M20.4 30.2 L20.4 30.25 20.3 30.3 20.15 30.4 20.4 30.2 M6.65 54.65 L6.6 55.0 6.55 54.65 6.65 54.65" fill="#495778" fill-rule="evenodd" stroke="none"/>
    <path d="M19.9 31.8 Q20.05 31.55 20.35 31.5 L20.55 31.55 20.55 31.5 Q21.1 31.35 21.5 31.85 22.15 32.65 21.75 33.5 L20.3 33.55 20.15 33.45 Q19.7 33.05 19.8 32.45 L19.8 32.4 19.75 32.3 19.75 32.0 19.9 31.8" fill="#e8e800" fill-rule="evenodd" stroke="none"/>
    <path d="M17.9 28.45 L18.05 28.6 18.55 29.0 18.9 29.8 18.75 30.35 Q18.6 30.75 19.0 30.85 L19.4 30.85 19.55 31.1 19.65 31.5 19.8 31.65 19.9 31.8 19.75 32.0 19.75 32.3 19.8 32.45 Q19.7 33.05 20.15 33.45 L20.3 33.55 20.15 35.2 20.05 35.45 19.95 35.65 Q19.6 35.4 19.2 35.3 18.05 35.0 17.4 33.75 17.6 32.85 18.5 32.4 L18.25 31.95 Q16.6 32.9 14.65 33.15 L12.6 33.45 11.8 33.65 11.45 33.7 10.35 34.0 9.45 34.05 9.4 34.05 9.35 34.05 9.2 34.05 9.1 33.8 9.1 34.05 8.9 34.0 8.7 34.0 8.25 34.05 8.15 33.95 8.1 33.95 8.0 33.85 Q7.5 32.7 8.1 31.45 L8.75 31.55 8.65 31.7 8.8 31.65 9.05 31.6 9.7 31.5 11.2 31.3 11.55 31.3 12.25 31.1 Q14.3 30.8 15.8 30.0 L17.9 28.45 M8.0 36.35 L8.3 36.05 Q9.3 35.5 10.4 35.3 L10.45 35.3 Q13.0 34.35 15.55 34.95 17.9 35.5 20.1 36.7 19.9 36.95 20.0 37.3 L20.0 37.7 Q19.6 37.85 19.4 38.1 L18.9 37.9 Q15.6 36.65 12.1 37.0 L10.95 37.25 10.9 37.25 10.65 37.45 10.55 37.45 10.15 37.65 8.95 38.4 8.65 38.45 8.4 38.65 Q7.75 38.95 7.35 39.4 L7.25 39.25 7.25 38.1 7.65 37.05 7.95 36.65 8.0 36.35 M22.8 36.45 L22.95 36.25 22.4 36.7 22.8 36.45 M17.65 46.35 L17.15 46.25 17.15 46.4 17.2 46.4 17.2 46.45 17.1 46.75 16.95 47.0 15.5 46.9 14.95 46.8 11.05 46.9 9.45 47.35 7.6 48.55 6.15 50.05 6.0 50.25 5.55 50.95 Q5.65 49.45 6.25 48.1 L6.3 48.0 6.35 47.9 Q7.95 46.25 10.1 45.8 L10.85 45.6 12.0 45.5 13.0 45.35 13.8 45.35 13.95 45.35 14.1 45.35 Q15.95 45.5 17.65 46.25 L17.65 46.35 M6.6 55.0 L6.8 55.5 Q6.35 56.2 6.15 57.05 L5.9 58.65 4.45 58.95 4.4 58.9 4.35 58.65 Q4.5 57.35 4.9 55.95 L4.95 55.75 5.0 55.6 5.05 55.5 5.35 54.9 5.4 54.8 5.45 54.75 5.5 54.65 5.65 54.45 Q6.0 54.0 6.5 53.7 L6.55 54.65 6.6 55.0" fill="#cc9900" fill-rule="evenodd" stroke="none"/>
    <path d="M9.2 34.05 L9.1 34.05 9.1 33.8 9.2 34.05 M20.1 36.7 L20.3 36.8 20.1 36.7 M24.5 44.4 L24.5 45.0 24.7 45.1 24.5 45.15 24.5 44.4 M19.8 32.45 L19.75 32.3 19.8 32.4 19.8 32.45 M15.15 53.65 L15.1 53.6 15.15 53.6 15.15 53.65 M7.25 39.25 L7.35 39.4 7.3 39.5 7.25 39.25 M9.65 51.65 L10.0 50.95 9.65 51.65 M7.3 54.45 L7.3 54.3 7.35 54.4 7.3 54.45 M5.4 54.8 L5.35 54.9 5.05 55.5 5.4 54.8 M4.35 58.65 L4.4 58.9 4.45 58.95 4.4 58.95 4.45 59.55 4.35 58.7 4.35 58.65 M17.7 58.15 L18.15 57.85 17.6 58.2 17.5 58.1 17.7 58.15" fill="#7485ab" fill-rule="evenodd" stroke="none"/>
    <path d="M17.85 46.35 L17.65 46.35 17.65 46.25 17.85 46.35 M10.4 50.25 L10.3 50.4 10.25 50.2 10.4 50.25" fill="#9da9c4" fill-rule="evenodd" stroke="none"/>
    <path d="M17.0 51.3 L17.0 51.25 17.05 51.2 17.0 51.3" fill="#666666" fill-rule="evenodd" stroke="none"/>
    <path d="M-0.55 65.0 L-0.8 65.15 -1.35 65.8 -0.75 65.1 -0.55 65.0 M22.8 47.35 L22.95 46.8 22.8 47.35 M9.35 81.15 L9.4 80.95 9.45 81.1 9.35 81.15 M6.4 75.35 L6.15 74.5 6.8 74.75 6.85 75.75 6.65 75.45 6.4 75.35 M6.3 86.15 L6.3 86.1 6.3 86.15" fill="#538409" fill-rule="evenodd" stroke="none"/>
    <path d="M8.15 33.95 L8.1 34.0 8.1 33.95 8.15 33.95 M6.95 51.8 L6.9 51.9 6.8 52.25 6.95 51.8 M20.25 57.3 L20.2 57.25 20.25 57.25 20.25 57.3" fill="#37425b" fill-rule="evenodd" stroke="none"/>
    <path d="M1.4 73.7 L1.45 73.7 1.4 73.7" fill="#669966" fill-rule="evenodd" stroke="none"/>
    <path d="M-1.5 83.0 L-2.15 83.0 -1.85 82.75 -1.75 82.85 -1.5 83.0 M5.45 72.7 L4.65 72.65 4.95 72.2 Q5.35 71.7 6.2 71.7 6.8 72.0 6.75 72.7 L5.45 72.7" fill="#406507" fill-rule="evenodd" stroke="none"/>
  </g>
</svg>
