<?xml version="1.0" encoding="UTF-8" standalone="no"?>
<svg xmlns:xlink="http://www.w3.org/1999/xlink" height="137.55px" width="127.3px" xmlns="http://www.w3.org/2000/svg">
  <g transform="matrix(1.0, 0.0, 0.0, 1.0, 63.65, 68.75)">
    <path d="M3.7 -66.5 L3.5 -66.55 2.95 -66.45 2.7 -66.4 Q2.3 -66.35 2.05 -66.15 L1.7 -66.25 0.15 -66.15 -3.7 -65.85 Q-6.2 -65.3 -8.45 -64.1 L-8.65 -64.0 -11.65 -61.35 -11.7 -61.25 -11.95 -60.9 -12.05 -60.8 -11.9 -60.9 -11.6 -60.95 Q-10.85 -61.05 -10.15 -60.4 L-9.7 -59.6 -8.1 -58.15 -5.75 -56.4 -5.75 -56.3 -6.55 -55.9 -8.45 -57.15 Q-9.55 -57.85 -10.1 -58.9 L-10.45 -59.3 -11.75 -59.55 -13.6 -59.0 -14.5 -58.85 -14.75 -58.8 -16.35 -58.9 -19.0 -59.0 -19.35 -58.0 -19.8 -57.1 Q-20.35 -56.1 -21.45 -55.7 -22.8 -54.9 -24.35 -54.9 L-24.6 -54.9 Q-26.35 -55.0 -27.35 -53.7 L-27.4 -53.3 Q-27.35 -53.1 -27.65 -53.0 L-27.55 -52.45 -27.5 -52.4 -27.4 -52.15 -27.15 -51.85 -26.5 -51.45 Q-26.0 -47.75 -27.95 -44.75 L-28.85 -43.95 Q-29.35 -43.65 -29.45 -43.0 L-29.7 -43.1 Q-30.1 -42.05 -29.45 -41.05 L-28.7 -40.75 -28.1 -40.85 -27.75 -41.05 -27.25 -41.25 -27.2 -41.3 -25.5 -41.1 -23.55 -39.95 -23.2 -39.6 -22.1 -38.25 Q-21.25 -36.9 -20.85 -35.45 L-20.7 -34.55 -20.6 -34.0 -20.6 -33.4 Q-20.25 -32.85 -19.6 -32.7 L-19.4 -32.95 -19.2 -33.15 Q-18.8 -33.8 -18.65 -34.6 L-18.5 -34.75 -16.05 -37.7 -14.4 -39.05 -14.3 -39.0 -16.0 -36.45 -16.5 -35.55 -16.65 -35.15 -16.4 -35.25 -15.6 -35.6 Q-12.85 -36.55 -10.3 -34.95 -10.05 -34.8 -10.1 -34.45 -10.15 -34.15 -9.9 -34.1 -8.9 -33.85 -8.3 -34.8 L-8.35 -35.25 -7.95 -36.85 -7.95 -36.9 -7.85 -37.1 -7.75 -37.2 -7.65 -37.35 -7.55 -37.5 -7.2 -37.95 -6.4 -38.8 -4.5 -40.45 -4.05 -40.45 -4.2 -40.25 -4.2 -40.15 -4.2 -40.05 Q-6.65 -37.6 -7.2 -34.35 -7.6 -33.7 -8.15 -33.45 L-9.0 -33.3 -9.15 -33.3 Q-9.9 -33.35 -10.55 -33.7 -10.95 -33.95 -11.25 -33.7 -12.2 -34.3 -13.85 -34.2 L-13.9 -34.15 -14.1 -34.05 -14.45 -34.85 -14.45 -34.9 -14.5 -34.9 -14.9 -34.7 -15.15 -34.6 -15.35 -34.5 Q-14.7 -32.2 -12.9 -30.7 L-10.95 -28.0 Q-7.85 -24.9 -3.65 -23.2 2.4 -20.3 8.55 -23.0 L8.5 -23.0 8.1 -22.9 7.55 -23.35 Q6.45 -24.35 5.2 -24.8 L4.5 -25.65 3.1 -26.8 Q2.6 -27.35 3.1 -27.8 L3.75 -27.6 5.2 -26.7 6.8 -25.05 9.35 -23.4 11.55 -22.6 15.85 -22.3 Q18.8 -23.1 20.15 -25.65 L20.65 -26.6 23.2 -30.45 24.35 -31.35 Q24.95 -31.7 25.15 -32.5 L25.1 -33.15 Q24.85 -34.15 24.05 -34.85 L23.85 -35.7 23.85 -35.75 23.95 -35.8 24.15 -36.15 24.2 -36.55 24.45 -36.5 25.05 -36.35 26.25 -35.7 26.5 -35.45 26.85 -35.55 26.85 -35.6 26.45 -37.1 26.7 -38.0 27.2 -39.2 Q27.95 -40.6 29.3 -41.65 L30.75 -42.2 Q31.5 -42.55 32.25 -42.0 L32.65 -42.8 33.05 -43.6 Q31.0 -46.45 30.95 -49.85 31.2 -50.7 31.8 -51.55 32.35 -52.4 31.55 -53.25 L29.9 -53.3 Q29.4 -53.45 29.1 -53.9 28.65 -54.95 29.4 -55.9 L28.1 -56.1 26.65 -55.75 Q25.5 -56.15 24.75 -56.95 L24.4 -57.35 23.0 -56.4 23.15 -55.8 Q23.4 -54.2 22.6 -52.95 L22.45 -53.65 21.75 -55.55 Q21.15 -56.85 19.65 -57.15 L19.0 -56.85 18.25 -56.5 Q17.9 -56.9 17.3 -56.8 L17.0 -57.55 Q16.0 -59.8 14.4 -61.9 12.5 -64.4 9.65 -65.3 L9.65 -65.2 9.2 -65.5 9.1 -65.55 8.85 -65.65 8.7 -66.0 8.6 -65.8 7.55 -66.0 7.45 -66.25 7.2 -66.75 6.4 -67.35 6.15 -67.35 Q4.85 -67.4 3.95 -66.75 L3.7 -66.5 M-38.6 -36.6 L-37.9 -36.85 -36.85 -37.05 -36.8 -37.05 Q-35.25 -37.1 -34.05 -36.2 L-33.95 -36.15 -28.2 -38.2 -24.4 -39.3 Q-25.2 -39.8 -26.2 -39.85 L-26.1 -39.95 -28.7 -39.85 -29.6 -39.95 -30.25 -41.4 -30.4 -41.9 -30.2 -44.45 Q-28.8 -44.8 -28.65 -46.55 L-27.85 -48.7 Q-27.5 -49.8 -27.8 -51.0 -29.15 -52.05 -28.75 -53.75 -27.85 -55.05 -26.5 -55.7 -23.65 -55.4 -21.4 -57.05 -21.45 -59.05 -19.95 -60.2 L-16.6 -59.9 Q-14.9 -59.75 -13.45 -60.4 -12.3 -63.25 -9.75 -64.65 -7.2 -66.05 -4.45 -66.55 -3.45 -68.05 -2.05 -68.75 -0.55 -68.9 0.7 -68.0 L3.4 -68.05 6.35 -68.6 Q7.9 -68.95 8.75 -67.55 8.9 -67.15 9.4 -66.9 9.9 -66.7 9.9 -66.1 13.0 -65.4 15.1 -62.95 17.1 -60.55 18.35 -57.75 L21.15 -57.55 21.9 -57.05 22.65 -57.55 22.8 -57.75 23.75 -58.5 Q24.85 -58.75 25.3 -58.0 L25.65 -57.55 Q26.0 -57.1 26.5 -56.75 L29.65 -56.9 30.35 -56.1 Q30.75 -55.75 30.6 -55.2 30.05 -54.85 30.05 -54.3 31.95 -54.4 32.85 -52.75 33.3 -51.25 32.3 -50.05 31.3 -48.9 32.1 -47.45 32.65 -45.95 33.65 -44.45 34.65 -43.0 33.35 -41.35 32.7 -40.75 31.9 -41.05 31.5 -41.55 31.15 -41.2 30.75 -40.9 30.25 -40.95 29.25 -40.4 28.6 -39.45 L28.2 -38.75 28.4 -38.7 30.05 -37.9 Q32.05 -37.0 33.85 -35.65 L37.35 -32.85 40.7 -29.85 42.15 -28.25 42.65 -27.55 42.7 -27.55 Q43.35 -27.3 43.55 -26.55 L43.7 -25.9 Q45.55 -25.65 47.25 -24.8 L48.05 -24.4 52.0 -22.15 52.65 -21.7 56.25 -18.9 57.35 -17.85 58.55 -16.35 58.65 -16.15 58.75 -16.2 59.05 -16.1 59.35 -15.9 59.45 -15.9 60.15 -15.45 62.35 -13.65 Q63.25 -12.85 63.65 -11.7 L63.55 -11.6 63.5 -11.55 63.3 -11.55 63.0 -11.55 62.95 -11.6 Q61.75 -9.25 59.35 -7.95 57.2 -6.35 54.8 -5.25 L53.85 -4.75 Q48.55 -2.15 42.7 -1.5 L42.6 -1.45 40.45 -1.2 39.15 -1.3 38.95 -0.5 Q38.3 2.45 37.05 5.2 L36.95 5.55 36.9 5.7 36.8 5.9 36.25 6.7 36.15 6.95 35.1 8.4 35.0 8.5 34.5 8.9 34.45 8.85 34.4 8.85 34.35 8.8 34.4 8.9 Q34.85 10.75 34.35 12.55 33.95 13.9 32.95 14.85 L32.95 14.95 Q33.35 15.05 33.8 15.3 36.95 16.95 37.4 20.4 L37.55 20.8 37.7 21.8 37.75 21.9 37.75 22.05 37.8 22.1 37.85 22.2 37.85 22.45 37.9 22.6 37.9 22.65 37.9 22.75 37.95 22.8 38.0 23.25 38.05 24.0 38.05 24.25 38.15 24.3 38.1 24.7 38.15 26.6 38.0 26.75 37.8 28.1 36.95 29.95 37.0 30.0 37.05 30.05 38.05 32.45 38.15 32.55 38.35 33.15 38.45 33.3 Q39.35 35.25 39.6 37.4 L39.65 37.45 39.65 37.65 39.25 39.35 38.65 40.25 Q37.7 41.35 36.9 42.55 35.15 45.0 32.85 46.95 L26.2 51.8 16.8 57.1 Q14.65 58.5 12.25 59.4 11.5 59.95 10.6 60.1 L9.2 62.8 7.05 66.65 6.95 66.85 Q6.15 67.7 5.6 68.8 L5.05 68.75 4.95 68.7 1.45 68.55 0.7 68.55 0.0 68.55 -0.7 68.55 -1.45 68.55 -4.95 68.75 -5.05 68.75 -5.6 68.8 -5.9 68.3 Q-6.3 67.5 -6.85 67.0 L-7.05 66.65 -9.2 62.8 -10.6 60.1 Q-11.5 59.95 -12.25 59.4 -14.65 58.5 -16.8 57.1 L-26.2 51.8 Q-29.7 49.55 -32.85 46.95 -35.15 45.0 -36.9 42.55 -37.7 41.35 -38.65 40.25 L-39.25 39.35 -39.65 37.65 -39.65 37.45 -39.6 37.4 Q-39.35 35.25 -38.45 33.3 L-38.35 33.15 -38.15 32.55 -38.05 32.45 -37.05 30.05 -37.0 30.0 -36.95 29.95 -37.8 28.1 -38.05 26.75 -38.15 26.6 -38.1 24.7 -38.15 24.3 -38.1 24.25 -38.05 24.0 -38.05 23.25 -37.95 22.8 -37.9 22.75 -37.9 22.65 -37.9 22.6 -37.85 22.45 -37.85 22.2 -37.8 22.1 -37.75 22.05 -37.75 21.9 -37.7 21.8 -37.55 20.8 -37.4 20.4 Q-37.0 16.95 -33.8 15.3 -33.4 15.05 -32.95 14.95 L-32.95 14.85 Q-33.95 13.9 -34.35 12.55 -34.85 10.75 -34.4 8.9 L-34.35 8.8 -34.4 8.85 -34.45 8.85 -34.5 8.9 -35.0 8.5 -35.1 8.4 -36.15 6.95 -36.25 6.7 -36.8 5.9 -36.9 5.7 -36.95 5.55 -37.05 5.2 Q-38.35 2.45 -39.0 -0.5 L-39.15 -1.3 -40.45 -1.2 -42.6 -1.45 -42.7 -1.5 Q-48.55 -2.15 -53.85 -4.75 L-54.8 -5.25 Q-57.25 -6.35 -59.35 -7.95 -61.8 -9.25 -62.95 -11.6 L-63.0 -11.55 -63.3 -11.55 -63.5 -11.55 -63.55 -11.6 -63.65 -11.7 Q-63.3 -12.85 -62.35 -13.65 L-60.15 -15.45 -59.45 -15.9 -59.35 -15.9 -59.05 -16.1 -58.65 -16.2 -58.55 -16.2 -58.65 -16.5 -58.85 -17.35 Q-59.1 -19.2 -58.6 -20.9 L-57.7 -22.2 -57.15 -23.0 -54.75 -24.85 -54.6 -24.95 Q-54.8 -26.0 -54.5 -27.0 -54.25 -27.85 -53.6 -28.5 L-53.3 -28.7 -52.9 -29.0 -51.2 -29.4 Q-50.15 -29.4 -49.25 -28.85 L-49.0 -28.65 -46.45 -30.0 -47.25 -29.6 -46.7 -29.95 -46.2 -30.25 -45.65 -30.6 -43.55 -31.9 -43.2 -32.05 Q-42.9 -32.1 -42.7 -32.3 L-40.0 -33.55 -40.0 -33.6 Q-40.05 -34.75 -39.4 -35.75 L-39.25 -35.95 -39.3 -35.75 Q-39.45 -34.85 -39.1 -34.4 L-39.15 -33.9 -39.15 -33.7 -38.95 -33.1 -38.75 -32.75 -39.95 -32.2 -42.6 -30.85 -43.45 -30.3 -46.35 -28.85 -49.05 -27.35 -49.1 -27.5 -49.4 -27.85 -49.85 -28.15 -51.3 -28.5 -52.1 -28.55 -52.25 -28.6 -52.5 -28.5 -52.55 -28.45 Q-53.55 -28.2 -53.7 -26.95 L-53.75 -26.8 -53.65 -25.75 -53.35 -25.15 -52.95 -24.85 -52.9 -24.6 -54.2 -23.55 -54.95 -22.95 -55.05 -22.8 -56.1 -21.75 -57.1 -20.4 Q-57.9 -18.25 -57.5 -15.95 L-57.45 -15.8 -57.2 -15.5 -56.9 -15.1 Q-54.6 -12.85 -51.45 -11.7 L-45.4 -9.6 Q-42.95 -8.8 -40.3 -8.85 L-39.4 -8.8 -39.35 -8.8 Q-35.2 -8.9 -31.5 -10.6 L-31.3 -10.65 -31.25 -10.7 -31.25 -10.85 -31.2 -10.95 -31.2 -11.05 -31.2 -11.1 -30.35 -12.5 Q-29.0 -14.45 -27.1 -15.95 -24.8 -17.75 -22.2 -19.05 L-20.6 -19.7 -19.65 -22.15 Q-19.25 -23.8 -19.15 -25.45 -18.95 -28.2 -19.9 -30.7 L-20.2 -31.5 -20.9 -31.9 -21.05 -32.1 -21.65 -33.75 -21.95 -34.7 -22.15 -35.0 -22.1 -35.2 -22.25 -35.7 -22.3 -35.75 -23.2 -36.9 Q-23.8 -37.6 -24.7 -37.55 L-25.4 -37.35 -29.0 -36.1 -32.05 -35.15 -33.7 -34.65 -33.75 -34.65 -33.9 -34.6 -34.05 -34.8 Q-34.15 -35.4 -34.75 -35.8 L-36.15 -36.4 -37.05 -36.25 -37.2 -36.25 -38.1 -36.7 -38.55 -36.6 -38.6 -36.6 M-4.45 -48.25 L-4.5 -48.3 -4.45 -48.25 M-6.15 -51.9 L-6.2 -51.9 -6.15 -51.95 -6.15 -51.9 M6.35 -46.7 L6.35 -46.75 7.2 -46.8 6.6 -46.75 6.35 -46.7 M13.65 -46.9 L13.8 -46.8 13.65 -46.8 13.65 -46.9 M20.0 -48.55 L20.35 -48.7 20.4 -48.65 20.45 -48.6 20.4 -48.5 20.3 -48.65 20.0 -48.55 M12.75 -52.25 L13.15 -52.4 13.65 -52.95 13.1 -52.35 12.75 -52.25 M24.35 -51.8 L24.7 -52.0 24.5 -51.75 24.35 -51.8 M23.45 -43.0 L23.05 -42.95 23.2 -43.15 23.25 -43.1 23.45 -43.0 M41.8 -26.85 L41.55 -27.25 40.4 -28.65 38.45 -30.4 37.4 -31.35 34.65 -33.6 33.85 -34.25 30.7 -36.25 27.75 -37.6 27.65 -37.3 27.55 -36.55 27.55 -36.4 27.85 -35.6 27.95 -35.35 27.65 -34.85 26.55 -34.7 Q25.95 -34.65 25.55 -35.25 L25.2 -35.55 25.0 -35.65 24.95 -35.65 24.85 -35.65 24.5 -35.6 24.8 -35.35 25.4 -34.55 Q25.95 -33.6 25.9 -32.5 L25.9 -32.4 25.85 -32.3 25.85 -32.2 25.7 -31.75 25.5 -31.2 Q23.2 -29.05 21.65 -26.1 L21.6 -26.0 Q20.0 -23.15 17.05 -22.0 14.55 -20.95 12.25 -21.3 L10.3 -21.9 Q8.9 -21.25 7.4 -20.75 L3.25 -20.0 -0.9 -20.6 -1.0 -20.65 Q-3.4 -21.35 -5.45 -22.6 -8.45 -23.95 -10.7 -26.05 L-13.2 -28.9 -14.25 -30.55 -15.1 -32.05 -15.2 -32.25 -16.05 -34.25 -16.6 -34.05 -16.65 -34.05 -17.45 -33.5 -17.9 -32.3 -18.9 -31.85 -18.2 -29.7 Q-17.8 -28.15 -17.7 -26.45 -17.5 -22.9 -19.15 -19.7 L-15.35 -19.2 -13.85 -18.8 Q-10.65 -17.7 -7.65 -16.0 L-4.25 -13.95 -4.2 -13.95 -1.85 -12.45 0.0 -11.0 1.85 -12.45 7.65 -16.0 13.35 -18.6 13.8 -18.75 13.75 -18.75 13.85 -18.8 Q16.4 -19.65 19.15 -19.7 L19.1 -19.8 20.55 -19.85 20.6 -19.7 22.2 -19.05 Q24.8 -17.75 27.1 -15.95 L27.4 -15.65 Q29.1 -14.25 30.35 -12.5 L31.15 -11.1 31.15 -11.05 31.2 -10.95 31.2 -10.85 31.25 -10.7 31.25 -10.65 31.5 -10.6 31.55 -10.55 33.85 -12.3 36.05 -14.45 39.2 -18.45 40.35 -19.75 41.6 -21.55 Q42.15 -22.4 42.35 -23.3 42.75 -24.85 42.25 -26.25 L42.15 -26.35 41.8 -26.85 M-6.15 -32.9 L-5.3 -33.45 -6.15 -31.85 Q-6.6 -31.05 -5.95 -30.2 L-5.1 -29.5 -4.85 -29.2 Q-2.95 -30.0 -0.9 -29.65 L-0.9 -29.45 -0.9 -29.35 Q-3.0 -29.4 -4.65 -28.55 -5.45 -28.45 -5.85 -29.05 L-6.2 -29.5 -6.3 -29.7 -6.7 -30.2 Q-7.15 -30.6 -6.95 -31.05 L-6.95 -31.15 -6.6 -32.15 -6.4 -32.55 -6.15 -32.9 M14.05 -41.9 L14.55 -42.8 Q15.05 -43.55 15.9 -44.1 L16.75 -43.85 16.95 -43.45 15.65 -42.55 14.5 -41.85 14.4 -41.8 13.9 -41.5 14.05 -41.85 14.05 -41.9 M4.95 -42.7 L5.0 -43.25 5.35 -43.75 7.25 -43.95 8.25 -43.45 8.5 -43.2 8.8 -42.9 Q9.45 -42.65 9.7 -42.1 L7.35 -42.5 7.25 -42.5 7.2 -42.55 5.95 -42.75 5.3 -42.75 4.95 -42.7 M27.4 -14.35 L26.75 -14.95 26.0 -15.5 25.95 -15.55 23.95 -16.85 22.45 -17.8 Q21.4 -18.35 20.35 -18.55 L19.95 -18.65 18.0 -18.65 17.95 -18.65 Q13.75 -18.0 10.05 -15.95 L7.5 -14.55 7.25 -14.35 4.3 -12.5 3.75 -12.0 2.3 -11.15 0.75 -10.1 0.5 -9.8 -0.25 -9.7 -1.15 -9.9 -1.0 -10.05 -0.9 -10.15 -0.95 -10.15 -1.2 -10.35 -4.3 -12.5 Q-5.8 -13.65 -7.5 -14.5 L-10.1 -15.85 -13.35 -17.45 -13.5 -17.5 -13.7 -17.6 -15.2 -18.05 -15.7 -18.2 -15.75 -18.2 -17.95 -18.65 -18.0 -18.65 -20.0 -18.65 -20.35 -18.55 Q-21.45 -18.35 -22.45 -17.8 L-23.95 -16.85 -25.95 -15.55 -26.0 -15.5 -26.75 -14.95 -27.65 -14.1 -27.85 -14.05 -28.15 -13.7 -29.4 -12.25 -30.35 -10.85 Q-30.35 -7.7 -28.15 -5.3 L-27.8 -4.9 -25.5 -2.5 -21.95 0.95 -16.3 7.0 -14.45 8.9 -14.2 9.2 -13.9 9.65 -13.8 9.9 -13.75 10.05 -13.4 9.8 -13.35 9.8 -13.25 9.7 -13.05 9.6 -10.6 8.7 -10.15 8.6 -10.05 8.6 -9.55 8.55 -6.45 8.75 -6.35 8.8 -4.5 8.8 -3.95 8.8 -2.15 8.65 -2.1 8.65 -1.35 8.8 -0.1 8.7 -0.1 8.75 0.1 8.75 0.1 8.7 1.2 8.65 1.2 8.7 3.9 8.8 4.5 8.8 6.35 8.8 9.55 8.55 11.1 8.8 Q12.25 9.1 13.35 9.8 L13.4 9.8 13.5 9.85 13.75 10.05 14.0 9.5 14.45 8.9 16.3 7.0 21.95 0.95 25.5 -2.5 27.8 -4.9 Q30.3 -7.45 30.35 -10.85 L30.3 -11.0 30.0 -11.45 29.4 -12.25 28.15 -13.7 28.1 -13.75 27.85 -14.05 27.65 -14.1 27.4 -14.35 M38.35 -15.5 L38.2 -15.3 36.9 -13.95 36.7 -13.75 35.15 -12.25 Q34.0 -11.15 32.6 -10.3 L32.4 -10.2 32.55 -10.15 Q35.75 -8.85 39.35 -8.8 L39.4 -8.8 40.3 -8.85 Q42.9 -8.8 45.4 -9.6 L51.45 -11.7 Q54.6 -12.85 56.9 -15.1 L57.45 -15.8 57.45 -15.85 57.35 -15.95 54.05 -19.05 52.4 -20.35 52.1 -20.55 50.95 -21.3 49.1 -22.5 48.85 -22.65 48.6 -22.8 47.4 -23.5 46.2 -24.05 44.4 -24.8 Q44.1 -24.95 43.75 -25.05 L43.6 -23.2 Q43.05 -21.05 41.5 -19.3 L41.45 -19.3 Q39.95 -17.65 38.6 -15.8 L38.35 -15.5 M26.5 -2.15 L24.3 0.2 23.8 0.75 23.3 1.25 23.15 1.4 23.3 1.4 24.55 1.45 24.65 1.5 26.65 2.15 27.2 2.3 27.7 2.5 Q29.4 3.25 30.85 4.4 32.65 5.8 34.0 7.95 L34.3 8.5 34.35 8.35 34.5 8.1 34.55 7.7 35.3 6.75 Q36.7 3.65 37.7 0.45 38.75 -3.0 37.1 -6.1 L36.8 -6.4 Q36.15 -6.8 35.85 -7.4 L35.05 -7.85 34.65 -7.95 33.5 -8.25 33.15 -8.35 31.5 -9.05 31.05 -9.3 31.0 -9.35 30.95 -9.1 30.95 -9.0 30.35 -7.15 29.5 -5.6 28.75 -4.65 26.5 -2.15 M37.75 -7.1 Q38.75 -5.7 39.05 -4.05 L39.1 -3.8 39.2 -2.35 39.85 -2.4 46.2 -3.45 46.25 -3.45 47.85 -3.85 49.0 -4.2 49.45 -4.5 52.75 -5.65 55.95 -7.15 58.1 -8.4 61.85 -11.4 61.9 -11.55 62.35 -12.1 59.0 -14.6 58.8 -14.85 58.35 -15.25 58.3 -15.25 58.2 -15.35 Q57.55 -14.15 56.35 -13.35 55.95 -13.0 55.4 -12.85 L55.35 -12.8 54.85 -12.5 54.35 -12.2 54.4 -12.2 54.2 -12.1 52.85 -11.45 52.7 -11.35 52.3 -11.2 Q50.95 -10.5 49.5 -9.95 L48.2 -9.35 45.05 -8.3 Q43.1 -7.8 41.05 -7.65 L40.55 -7.65 40.0 -7.6 37.5 -7.55 37.4 -7.55 37.75 -7.1 M21.2 19.7 L21.75 20.6 21.8 20.7 25.85 18.95 27.75 17.95 Q29.9 16.4 32.15 15.05 L32.25 14.7 32.65 14.05 32.65 14.0 33.05 13.05 33.5 11.2 33.35 9.3 31.8 6.95 Q30.45 5.45 28.7 4.45 L28.15 4.3 27.6 4.05 27.3 3.9 Q26.05 3.3 24.8 3.0 L24.75 2.95 24.35 2.85 24.1 2.8 22.55 2.5 22.25 2.35 19.65 5.1 16.55 8.45 16.45 8.6 16.45 8.55 15.95 9.1 14.6 10.7 15.4 11.5 17.05 13.4 17.65 14.2 18.25 15.25 18.55 15.6 18.6 15.65 18.65 15.75 18.85 16.05 19.85 17.4 19.9 17.55 20.55 18.6 20.75 18.95 20.95 19.35 21.2 19.7 M33.55 16.35 L32.45 15.95 32.3 15.75 30.6 17.1 29.4 18.0 29.0 18.35 28.65 18.4 28.5 18.55 27.75 19.1 27.5 19.2 Q26.75 19.4 26.2 19.85 L25.25 20.25 Q24.65 20.5 24.1 20.8 L22.9 21.35 22.2 21.65 19.65 22.8 12.7 25.75 Q10.5 26.6 8.35 27.55 L7.1 28.0 6.35 28.25 6.3 28.25 5.45 28.5 5.8 28.65 6.85 29.5 7.95 30.6 8.85 31.45 9.15 31.75 Q10.75 33.2 12.25 34.8 L12.7 35.4 13.5 36.3 15.85 38.9 16.4 39.65 17.05 40.6 17.45 41.25 17.95 42.2 17.95 42.25 18.3 42.55 18.4 42.65 19.55 42.0 26.95 37.6 30.15 35.35 32.1 33.7 Q34.8 31.85 36.35 29.05 37.7 26.45 37.5 23.6 L37.45 23.5 37.4 23.45 37.4 23.25 37.4 23.15 37.35 23.05 37.25 22.95 37.25 22.75 37.25 22.65 37.05 22.3 36.8 21.05 36.6 20.6 36.0 19.25 35.95 18.95 36.0 18.85 35.85 18.65 Q35.05 17.1 33.55 16.35 M13.05 10.85 Q11.5 9.85 9.55 9.75 L6.6 9.9 6.5 9.95 6.0 9.95 4.2 10.0 3.8 10.05 1.9 10.1 0.0 10.1 -1.9 10.1 -3.8 10.05 -4.2 10.0 -6.0 9.95 -6.5 9.95 -6.6 9.9 -9.55 9.75 Q-12.8 9.95 -14.85 12.45 L-16.05 13.95 -19.95 19.4 -21.1 20.95 -21.15 21.0 -21.05 21.05 -18.15 22.3 -18.1 22.3 -17.5 22.55 -16.75 22.9 -10.7 25.25 -8.5 26.05 Q-6.2 26.85 -4.05 27.85 L-3.6 28.05 -3.35 28.0 -2.75 27.9 -0.1 27.8 3.35 28.1 3.5 28.15 3.85 27.95 Q6.1 26.85 8.5 26.05 L10.7 25.25 17.5 22.55 18.3 22.2 21.15 21.0 19.95 19.4 16.45 14.5 16.05 13.95 15.85 13.65 14.85 12.45 13.05 10.85 M3.55 29.3 L2.2 28.9 Q-0.7 28.2 -3.55 29.25 L-3.6 29.3 -3.7 29.35 -5.65 30.8 -6.7 31.65 -8.55 33.1 -8.95 33.5 -9.1 33.6 -9.35 33.85 -10.0 34.45 -10.25 34.65 -11.0 35.45 -11.4 35.9 -11.5 36.05 -12.6 37.4 -12.8 37.65 -13.3 38.35 -14.35 39.65 -15.3 40.7 -16.4 42.05 -16.4 42.0 -16.3 42.3 -16.35 42.75 -16.3 42.7 -12.7 43.85 Q-11.65 44.05 -10.7 44.5 -10.15 44.55 -9.75 44.8 L-9.7 44.8 -0.5 45.85 2.8 45.75 4.2 45.6 8.85 44.9 11.9 44.05 13.35 43.6 15.5 42.8 15.95 42.6 16.3 42.5 16.3 42.3 14.35 39.3 13.6 38.5 11.3 35.9 8.75 33.15 8.3 32.75 6.3 30.85 4.8 29.6 Q4.5 29.4 4.1 29.35 L3.95 29.35 3.8 29.35 3.55 29.3 M16.85 44.2 L12.9 45.55 9.0 46.5 8.3 46.65 4.35 47.1 0.0 47.25 -0.1 47.25 -4.45 47.05 -6.7 46.7 -10.95 45.85 -11.4 45.65 -11.45 45.6 -11.55 45.55 -11.8 45.4 Q-13.85 45.0 -15.7 44.2 L-16.1 44.05 -17.1 43.6 -17.4 43.45 -17.5 43.4 -17.45 43.5 -16.75 45.2 -16.7 45.35 -14.65 49.95 -13.8 51.7 -13.55 52.4 -12.1 55.25 -11.5 56.3 -11.45 56.4 -10.45 58.2 Q-9.0 60.2 -8.0 62.5 L-5.5 66.8 -5.25 67.25 -5.25 67.35 -2.65 67.25 -1.45 67.3 0.0 67.3 1.45 67.3 Q3.4 67.15 5.25 67.35 6.45 64.85 8.0 62.5 8.95 60.2 10.45 58.2 L11.45 56.4 11.5 56.3 Q11.65 55.7 12.1 55.25 L13.55 52.4 13.8 51.7 14.6 49.95 17.1 44.3 17.2 44.05 16.85 44.2 M20.5 42.6 L20.2 42.75 19.85 43.05 19.65 43.2 18.55 43.35 18.55 43.4 18.45 43.5 18.35 43.6 18.0 43.6 17.75 44.9 17.55 45.5 16.45 48.5 15.9 49.8 Q14.6 53.0 12.9 56.05 L11.5 58.5 Q12.6 57.8 14.0 57.45 L15.25 56.75 16.65 56.0 Q18.35 54.9 20.2 54.05 L20.45 53.9 23.85 51.85 25.65 50.75 25.75 50.65 25.95 50.55 26.05 50.5 27.4 49.7 30.3 47.65 30.85 47.25 31.3 46.9 34.25 44.2 34.35 44.1 36.25 41.95 Q37.75 40.05 38.85 37.95 L38.8 37.9 36.7 31.4 36.75 31.45 36.75 31.4 37.0 31.2 Q37.35 30.55 36.7 30.25 L36.3 30.25 36.05 30.5 Q35.8 30.95 36.05 31.25 L35.7 31.65 35.15 32.2 35.05 32.3 33.75 33.55 33.55 33.7 31.55 35.45 27.85 38.05 27.8 38.1 23.2 41.2 22.15 41.75 20.5 42.6 M-0.25 -67.05 L-2.0 -67.7 Q-2.75 -67.45 -3.15 -66.7 L-0.3 -66.9 -0.05 -67.0 -0.25 -67.05 M-40.0 -27.2 Q-39.7 -26.75 -39.7 -26.0 -39.7 -24.2 -41.45 -23.95 -43.45 -23.6 -43.8 -24.95 L-43.8 -25.0 Q-41.95 -24.05 -40.7 -25.75 -40.1 -26.55 -40.0 -27.2 M-58.3 -15.25 L-58.35 -15.25 -58.8 -14.85 -59.0 -14.6 -62.35 -12.1 -61.9 -11.55 -61.85 -11.4 -59.5 -9.35 Q-57.85 -8.15 -55.95 -7.15 L-55.7 -7.0 -54.0 -6.2 -53.45 -5.95 -49.45 -4.5 -49.0 -4.2 -48.35 -4.0 Q-45.5 -3.2 -42.55 -2.75 L-39.2 -2.35 Q-39.3 -5.3 -37.4 -7.55 L-40.0 -7.6 -44.05 -8.05 Q-46.9 -8.65 -49.5 -9.95 L-51.15 -10.65 -52.3 -11.2 Q-53.95 -11.85 -55.35 -12.8 L-55.4 -12.85 -55.45 -12.85 Q-56.0 -13.05 -56.35 -13.35 -57.6 -14.15 -58.2 -15.35 L-58.3 -15.25 M-2.4 -34.05 L-2.45 -33.8 -2.45 -33.75 -2.45 -33.7 Q-2.55 -33.2 -2.9 -33.0 L-2.55 -33.4 -2.45 -33.7 -2.45 -34.05 -2.4 -34.05 M-23.2 -38.05 L-23.2 -38.1 -23.25 -38.1 -23.2 -38.05 M-30.95 -9.1 L-31.0 -9.35 -31.05 -9.3 -31.5 -9.05 -33.1 -8.4 -33.8 -8.15 -35.05 -7.85 -35.85 -7.4 Q-36.15 -6.8 -36.8 -6.4 L-37.1 -6.1 -37.15 -6.0 -37.25 -5.85 Q-38.0 -4.35 -38.1 -2.75 -38.25 -1.2 -37.7 0.45 -36.75 3.65 -35.3 6.75 L-34.55 7.7 -34.55 7.75 -34.5 8.1 -34.35 8.35 -34.3 8.5 -34.0 7.95 -33.45 7.15 -30.9 4.45 Q-29.95 3.65 -28.8 3.05 L-28.55 2.9 -26.65 2.15 -24.55 1.45 -23.15 1.4 -24.3 0.2 -27.4 -3.1 -28.75 -4.65 Q-29.75 -5.75 -30.3 -7.05 L-30.95 -9.1 M-26.3 18.7 L-25.85 18.95 -21.8 20.7 -21.75 20.6 -20.95 19.35 -20.75 18.95 -19.9 17.55 -19.85 17.4 -18.85 16.05 -18.65 15.75 -18.55 15.6 -18.25 15.25 -17.05 13.4 -15.4 11.5 -14.6 10.7 Q-17.05 7.8 -19.65 5.1 L-22.25 2.35 -22.55 2.5 -24.1 2.8 -24.95 3.05 -25.25 3.1 -26.8 3.65 -27.15 3.8 -28.15 4.3 -28.7 4.45 Q-30.45 5.45 -31.8 6.95 L-33.25 9.1 -33.35 9.3 -33.5 11.2 -33.05 13.05 -32.65 14.0 -32.65 14.05 -32.25 14.7 -32.15 15.05 Q-29.9 16.4 -27.75 17.95 L-27.5 18.05 -26.3 18.7 M-5.25 28.5 L-5.8 28.4 -6.9 28.1 -7.25 27.95 -8.35 27.55 Q-10.55 26.6 -12.7 25.75 L-19.65 22.8 -22.9 21.35 -26.2 19.85 -26.7 19.5 -27.5 19.2 -27.75 19.1 -28.5 18.55 -28.65 18.4 -29.0 18.35 -32.3 15.75 -32.45 15.95 -33.0 16.1 Q-34.9 16.8 -35.85 18.65 L-36.0 18.85 -35.95 18.95 -36.0 19.25 -36.6 20.6 -36.8 21.05 -37.0 21.85 -37.1 22.3 -37.25 22.65 -37.25 22.75 -37.25 22.95 -37.35 23.05 -37.4 23.15 -37.4 23.25 -37.4 23.45 -37.45 23.5 -37.5 23.6 -37.5 23.75 Q-37.65 25.3 -37.25 26.8 L-36.95 27.65 -36.35 29.05 Q-34.8 31.85 -32.15 33.7 L-30.15 35.35 -26.95 37.6 -21.55 40.85 -18.4 42.65 -17.8 42.15 -18.15 42.4 -16.05 39.65 -13.75 36.65 -12.3 34.8 -9.0 31.45 -8.9 31.4 -6.85 29.7 -6.75 29.65 -5.25 28.6 -5.15 28.55 -5.25 28.5 M-36.45 30.8 L-36.5 30.7 -36.55 30.85 -38.8 37.9 -38.85 37.95 -38.3 38.95 -36.25 41.95 -36.1 42.1 -35.5 42.8 -33.75 44.7 -30.85 47.25 -30.1 47.8 -26.05 50.5 -22.4 52.7 -20.2 54.05 Q-18.4 54.9 -16.65 56.0 L-15.25 56.75 -14.0 57.45 Q-12.65 57.8 -11.5 58.5 L-12.9 56.05 Q-14.6 53.0 -15.9 49.8 L-16.45 48.5 -17.75 44.9 -18.0 43.6 -18.35 43.6 -18.45 43.5 -18.55 43.4 -18.6 43.35 Q-19.2 43.5 -19.85 43.05 L-20.2 42.75 -21.05 42.35 -22.4 41.6 -27.8 38.1 Q-32.15 35.4 -35.7 31.65 L-36.4 30.8 -36.45 30.8" fill="#000000" fill-rule="evenodd" stroke="none"/>
    <path d="M1.7 -66.25 L1.8 -66.0 Q1.9 -64.95 0.7 -64.9 -1.75 -64.8 -3.85 -63.95 L-4.1 -63.8 -4.75 -63.4 Q-5.45 -62.95 -6.2 -62.55 L-6.1 -62.5 -6.9 -61.75 Q-7.95 -60.5 -9.3 -59.75 L-9.7 -59.6 -10.15 -60.4 Q-10.85 -61.05 -11.6 -60.95 L-11.7 -61.25 -11.65 -61.35 -8.65 -64.0 -8.45 -64.1 Q-6.2 -65.3 -3.7 -65.85 L0.15 -66.15 1.7 -66.25 M5.95 -55.65 L5.8 -55.8 7.35 -56.7 9.65 -56.55 10.5 -54.8 Q11.0 -54.65 11.35 -55.0 11.65 -55.35 11.95 -54.85 L12.0 -54.8 Q10.95 -53.8 9.75 -54.3 9.45 -55.35 8.55 -55.9 7.2 -56.15 6.0 -55.5 L5.95 -55.65 M6.95 -60.7 Q7.25 -62.05 8.65 -62.15 L8.95 -62.1 9.5 -62.1 9.6 -62.05 9.95 -61.6 Q10.1 -60.95 9.55 -60.45 L9.3 -60.25 Q8.3 -59.7 7.25 -60.25 L6.95 -60.65 6.95 -60.7 M6.15 -67.1 L6.05 -66.8 5.2 -65.5 Q3.65 -65.25 3.95 -66.7 L3.95 -66.75 Q4.85 -67.4 6.15 -67.35 L6.15 -67.1 M-6.4 -38.8 L-7.2 -37.95 -7.55 -37.5 -7.65 -37.35 -7.75 -37.2 -7.85 -37.1 -7.95 -36.9 -7.95 -36.85 -8.35 -35.25 -9.0 -34.4 -9.25 -34.2 -9.8 -34.2 Q-10.6 -35.15 -9.6 -36.0 -8.75 -36.7 -8.15 -37.6 L-7.7 -38.05 -6.65 -38.8 -6.4 -38.8 M-16.05 -37.7 L-18.5 -34.75 -18.65 -34.6 Q-18.8 -33.8 -19.2 -33.15 L-19.4 -32.95 -19.6 -32.7 Q-20.25 -32.85 -20.6 -33.4 L-20.6 -34.0 -20.7 -34.55 -20.4 -34.75 -20.35 -34.8 -19.85 -35.0 -19.4 -35.1 -17.05 -37.35 -16.85 -37.55 -16.8 -37.65 -16.6 -37.65 Q-16.1 -37.8 -15.65 -38.05 L-16.05 -37.7 M-27.2 -41.3 L-27.25 -41.25 -27.75 -41.05 -28.1 -40.85 -28.4 -40.85 -28.6 -41.1 -28.7 -40.75 -29.45 -41.05 Q-30.1 -42.05 -29.7 -43.1 L-29.45 -43.0 Q-29.35 -43.65 -28.85 -43.95 L-27.95 -44.75 Q-26.0 -47.75 -26.5 -51.45 L-27.15 -51.85 -27.4 -52.15 -27.5 -52.4 -27.55 -52.45 -27.65 -53.0 Q-27.35 -53.1 -27.4 -53.3 L-27.35 -53.7 Q-26.35 -55.0 -24.6 -54.9 L-24.35 -54.9 Q-22.8 -54.9 -21.45 -55.7 -20.35 -56.1 -19.8 -57.1 L-19.35 -58.0 -19.0 -59.0 -16.35 -58.9 -14.75 -58.8 -14.55 -58.7 -14.5 -58.85 -13.6 -59.0 -11.75 -59.55 -10.45 -59.3 -10.95 -59.05 -11.5 -58.35 -12.25 -57.85 -12.35 -57.8 -13.0 -57.65 -12.8 -57.45 -12.75 -57.35 -12.5 -57.0 -12.4 -56.9 -12.35 -56.7 -12.35 -56.65 -12.5 -56.45 -12.65 -56.4 -13.9 -56.75 Q-15.85 -57.7 -18.05 -58.15 L-18.25 -57.9 -18.35 -57.95 -18.5 -57.95 -18.65 -57.9 -19.15 -57.9 Q-19.25 -57.1 -19.95 -56.45 L-20.05 -56.35 -20.05 -56.25 -20.05 -56.15 -20.35 -55.7 -20.4 -55.6 Q-21.35 -54.75 -22.35 -54.45 L-22.4 -54.45 -19.35 -54.1 -17.85 -53.75 -13.75 -52.7 -11.3 -51.45 Q-10.45 -50.9 -9.9 -50.0 L-9.85 -49.9 -9.85 -49.8 -9.9 -49.75 -9.95 -49.6 Q-15.6 -52.5 -22.1 -52.8 L-25.75 -53.4 -26.0 -53.2 -26.1 -53.05 -25.95 -52.6 -26.1 -52.4 -25.9 -52.25 -25.75 -51.7 Q-25.1 -49.95 -25.8 -48.15 L-26.25 -46.9 Q-26.7 -45.4 -27.45 -44.05 L-27.35 -44.25 Q-26.4 -44.95 -24.95 -44.9 L-21.15 -46.6 -20.4 -46.8 -16.2 -47.3 -15.85 -47.25 -15.7 -47.15 -15.65 -47.1 -15.0 -47.1 -14.9 -47.0 -14.9 -46.9 -14.9 -46.8 -15.0 -46.7 -15.65 -46.6 -16.0 -46.4 -16.05 -46.4 -17.6 -46.15 -23.95 -44.05 -25.55 -43.15 -25.95 -43.15 -26.55 -42.5 -26.75 -42.4 -26.9 -42.4 -27.05 -42.35 -27.1 -42.3 -27.0 -42.0 -27.0 -41.95 -27.15 -41.4 -27.2 -41.3 M10.75 -51.55 L11.5 -51.75 12.1 -52.0 12.75 -52.2 12.75 -52.25 13.1 -52.35 13.65 -52.95 16.5 -55.45 16.3 -55.05 16.15 -54.9 Q16.2 -54.35 15.75 -54.0 L15.5 -53.8 Q14.6 -52.1 13.25 -50.8 13.05 -50.6 12.75 -50.55 L11.45 -50.5 11.0 -50.6 10.9 -50.65 10.8 -50.8 10.75 -51.45 10.75 -51.55 M14.45 -25.35 L14.75 -25.3 15.2 -25.1 15.25 -25.05 Q15.95 -24.2 14.9 -23.55 L13.0 -23.45 Q12.0 -23.7 11.2 -24.5 L10.95 -24.75 Q10.35 -25.45 10.95 -26.15 L11.15 -26.3 12.45 -25.75 12.85 -25.6 12.9 -25.6 13.0 -25.55 14.4 -25.35 14.45 -25.35 M13.4 -45.45 L14.0 -44.45 14.0 -44.35 Q14.8 -43.35 13.8 -42.95 L13.55 -42.9 Q13.2 -42.8 12.95 -43.05 L12.85 -43.15 12.75 -43.25 12.7 -43.6 12.4 -44.5 Q12.45 -44.95 12.85 -45.3 L13.4 -45.45 M6.5 -45.8 Q6.55 -45.45 6.05 -45.0 L4.35 -43.25 3.9 -42.75 3.7 -42.55 3.55 -42.45 3.5 -42.45 3.0 -42.5 2.75 -42.8 2.7 -42.9 2.4 -43.05 2.45 -43.35 2.5 -43.55 5.05 -45.3 5.35 -45.45 6.5 -45.8 M15.0 -39.05 L15.05 -39.05 Q16.45 -38.65 16.95 -37.15 L17.4 -35.85 Q17.6 -35.4 17.15 -35.05 L17.0 -35.05 Q15.8 -36.4 14.95 -38.05 L14.75 -38.35 14.75 -38.45 14.75 -38.65 14.75 -38.75 14.8 -38.85 14.85 -38.95 14.9 -39.0 15.0 -39.05 M5.95 -38.95 L6.1 -38.85 6.65 -39.0 Q7.45 -38.9 7.05 -38.3 L6.85 -38.15 6.3 -37.9 4.3 -37.2 Q2.5 -36.75 -0.1 -34.05 L-0.65 -33.45 -0.8 -33.3 -0.95 -33.2 Q-1.8 -33.2 -1.55 -33.95 L-1.45 -34.1 -1.5 -34.15 Q-0.6 -35.9 1.0 -37.0 3.4 -38.55 5.95 -38.95 M-12.25 -50.2 L-11.85 -50.1 -10.2 -49.6 -10.0 -49.55 Q-11.35 -49.35 -12.55 -50.25 L-12.65 -50.3 -12.25 -50.2 M-24.15 -54.25 L-23.95 -54.3 -24.1 -54.3 -24.15 -54.25 M-6.85 -54.65 L-4.9 -55.7 -4.65 -55.8 -4.45 -55.9 -4.15 -56.0 -4.05 -56.05 -3.9 -56.1 -0.75 -56.15 -0.7 -56.05 -0.55 -56.0 -0.15 -55.85 -0.1 -55.75 -0.05 -55.65 -0.1 -55.4 -0.45 -55.2 -0.5 -55.1 -0.7 -54.9 -0.85 -54.7 -0.95 -54.65 -3.4 -54.95 -3.65 -55.0 Q-5.15 -54.5 -6.65 -54.55 L-6.85 -54.65" fill="#81a20d" fill-rule="evenodd" stroke="none"/>
    <path d="M2.05 -66.15 Q2.9 -65.8 3.6 -64.8 L4.3 -64.5 Q4.65 -64.3 5.05 -64.6 L4.05 -65.3 Q3.55 -65.8 3.65 -66.5 L3.7 -66.5 3.95 -66.75 3.95 -66.7 Q3.65 -65.25 5.2 -65.5 L6.05 -66.8 6.15 -67.1 Q6.3 -65.9 6.8 -64.75 L6.8 -64.35 Q6.9 -63.55 7.6 -63.25 L9.2 -62.6 10.0 -62.1 10.2 -61.9 10.5 -61.75 9.55 -62.1 9.5 -62.1 8.95 -62.1 8.65 -62.15 Q7.25 -62.05 6.95 -60.7 6.75 -59.85 7.5 -59.4 L8.35 -59.05 8.45 -58.85 9.75 -58.55 Q10.8 -58.85 11.3 -59.85 L11.35 -60.45 11.15 -60.95 Q12.5 -59.45 13.5 -57.6 L13.55 -57.3 13.8 -56.6 13.25 -56.1 Q12.6 -55.4 11.8 -55.05 L11.95 -54.85 Q11.65 -55.35 11.35 -55.0 11.0 -54.65 10.5 -54.8 L9.65 -56.55 7.35 -56.7 5.8 -55.8 5.95 -55.65 5.7 -55.25 5.4 -55.35 3.15 -56.0 Q1.55 -56.65 -0.15 -56.75 L-0.45 -56.7 Q-2.85 -58.0 -5.45 -56.15 L-5.75 -56.15 -5.75 -56.3 -5.75 -56.4 -8.1 -58.15 -9.7 -59.6 -9.3 -59.75 Q-7.95 -60.5 -6.9 -61.75 L-6.1 -62.5 -6.2 -62.55 Q-5.45 -62.95 -4.75 -63.4 L-4.1 -63.8 -3.85 -63.95 Q-1.75 -64.8 0.7 -64.9 1.9 -64.95 1.8 -66.0 L1.7 -66.25 2.05 -66.15 M0.55 -62.3 L0.75 -62.6 Q0.85 -63.3 -0.05 -63.4 L-0.15 -63.35 -0.2 -63.35 -0.4 -63.0 Q-0.35 -62.25 0.55 -62.3 M18.25 -56.5 L19.0 -56.85 Q20.2 -56.4 20.4 -55.0 20.5 -53.85 19.35 -53.75 L18.25 -53.35 18.2 -53.35 Q17.25 -53.15 16.45 -52.55 14.85 -51.45 13.65 -49.9 13.05 -49.4 12.45 -49.75 L12.2 -49.95 Q11.6 -50.5 11.0 -50.6 L11.45 -50.5 12.75 -50.55 Q13.05 -50.6 13.25 -50.8 14.6 -52.1 15.5 -53.8 L15.75 -54.0 Q16.2 -54.35 16.15 -54.9 L16.3 -55.05 16.5 -55.45 18.25 -56.5 M23.15 -55.8 L23.0 -56.4 24.4 -57.35 24.75 -56.95 25.1 -56.6 24.35 -56.0 24.2 -55.7 23.15 -55.8 M24.05 -34.85 Q24.85 -34.15 25.1 -33.15 L25.15 -32.5 Q24.95 -31.7 24.35 -31.35 L23.2 -30.45 20.65 -26.6 20.15 -25.65 Q18.8 -23.1 15.85 -22.3 L11.55 -22.6 9.35 -23.4 6.8 -25.05 5.2 -26.7 3.75 -27.6 3.65 -27.7 Q1.9 -29.1 -0.4 -29.4 L-0.9 -29.45 -0.9 -29.65 Q-2.95 -30.0 -4.85 -29.2 L-5.1 -29.5 -5.95 -30.2 Q-6.6 -31.05 -6.15 -31.85 L-5.3 -33.45 -6.15 -32.9 -5.95 -33.65 -4.65 -36.65 -4.4 -36.95 -3.55 -38.45 -1.4 -40.1 -1.3 -40.15 -0.9 -40.15 -2.45 -37.7 -3.05 -35.45 Q-3.5 -34.3 -3.5 -33.0 L-3.4 -33.25 -2.2 -35.2 -2.0 -35.45 -1.9 -35.55 -1.2 -36.4 -0.3 -37.25 0.75 -38.45 1.65 -39.1 2.15 -39.3 2.2 -39.4 3.45 -40.15 3.85 -40.3 5.25 -40.45 5.9 -40.4 8.25 -40.25 11.75 -40.05 12.8 -40.4 15.9 -40.85 Q17.45 -41.05 18.6 -40.2 L19.85 -39.2 Q21.05 -38.25 21.55 -36.85 L21.65 -36.6 21.95 -35.3 22.0 -34.7 Q22.05 -33.7 21.6 -32.9 L21.1 -32.05 19.0 -30.0 18.85 -29.9 17.8 -29.15 16.3 -28.3 16.1 -28.2 15.9 -28.15 Q13.1 -27.7 10.55 -28.8 L6.65 -30.45 Q5.85 -30.75 5.05 -31.25 3.25 -32.35 1.25 -32.7 L0.95 -32.7 -0.2 -32.65 -0.95 -32.4 -1.2 -32.3 -1.3 -32.25 -2.8 -31.85 -3.8 -31.4 -3.8 -31.0 -2.6 -31.25 -2.2 -31.35 -2.15 -31.35 -1.95 -31.4 -0.7 -31.7 -0.3 -31.8 -0.2 -31.8 0.4 -31.75 0.45 -31.75 1.85 -31.3 3.3 -30.5 3.35 -30.45 4.0 -29.95 4.05 -29.85 5.6 -28.95 9.05 -27.15 9.2 -27.1 11.15 -26.3 10.95 -26.15 Q10.35 -25.45 10.95 -24.75 L11.2 -24.5 Q12.0 -23.7 13.0 -23.45 L14.9 -23.55 Q15.95 -24.2 15.25 -25.05 L15.2 -25.1 14.75 -25.3 14.45 -25.35 15.65 -25.45 16.05 -25.55 Q18.1 -25.95 19.3 -27.7 L19.55 -28.15 19.65 -28.25 20.95 -29.95 21.1 -30.1 22.15 -31.15 22.95 -32.05 24.2 -32.6 24.05 -32.85 24.1 -33.15 24.1 -34.1 24.05 -34.75 24.0 -34.9 23.45 -35.4 24.05 -34.85 M-4.2 -40.25 L-4.05 -40.45 -4.5 -40.45 -6.4 -38.8 -6.65 -38.8 -7.7 -38.05 -8.15 -37.6 Q-8.75 -36.7 -9.6 -36.0 -10.6 -35.15 -9.8 -34.2 L-9.25 -34.2 -9.0 -34.4 -8.35 -35.25 -8.3 -34.8 Q-8.9 -33.85 -9.9 -34.1 -10.15 -34.15 -10.1 -34.45 -10.05 -34.8 -10.3 -34.95 -12.85 -36.55 -15.6 -35.6 L-16.4 -35.25 -16.65 -35.15 -16.5 -35.55 -16.0 -36.45 -14.3 -39.0 -14.4 -39.05 -16.05 -37.7 -15.65 -38.05 Q-16.1 -37.8 -16.6 -37.65 L-16.8 -37.65 -16.85 -37.55 -17.05 -37.35 -19.4 -35.1 -19.85 -35.0 -20.35 -34.8 -20.4 -34.75 -20.7 -34.55 -20.85 -35.45 Q-21.25 -36.9 -22.1 -38.25 L-23.2 -39.6 -23.55 -39.95 -25.5 -41.1 -27.2 -41.3 -27.15 -41.4 -27.0 -41.95 -25.7 -42.05 Q-19.65 -45.1 -12.75 -46.6 L-16.0 -46.4 -15.65 -46.6 -15.0 -46.7 -14.9 -46.8 -14.9 -46.9 -14.9 -47.0 -15.0 -47.1 -15.65 -47.1 -15.7 -47.15 -15.85 -47.25 -16.2 -47.3 -20.4 -46.8 -21.15 -46.6 -24.95 -44.9 Q-26.4 -44.95 -27.35 -44.25 L-27.45 -44.05 Q-26.7 -45.4 -26.25 -46.9 L-25.8 -48.15 Q-25.1 -49.95 -25.75 -51.7 L-25.9 -52.25 -25.1 -51.9 -17.1 -51.25 -12.25 -50.2 -12.65 -50.3 -12.55 -50.25 Q-11.35 -49.35 -10.0 -49.55 L-9.5 -49.35 -9.95 -49.6 -9.9 -49.75 -9.85 -49.8 -9.85 -49.9 -9.9 -50.0 Q-10.45 -50.9 -11.3 -51.45 L-13.75 -52.7 -17.85 -53.75 -19.35 -54.1 -22.4 -54.45 -22.35 -54.45 Q-21.35 -54.75 -20.4 -55.6 L-20.35 -55.7 -20.05 -56.15 -20.05 -56.25 -20.05 -56.35 -19.95 -56.45 Q-19.25 -57.1 -19.15 -57.9 L-18.65 -57.9 -18.5 -57.95 -18.35 -57.95 -18.25 -57.9 -18.05 -58.15 -18.25 -57.85 Q-17.1 -57.0 -15.75 -56.55 L-13.1 -55.55 -9.7 -53.8 Q-11.65 -55.65 -13.9 -56.75 L-12.65 -56.4 -12.5 -56.45 -12.35 -56.65 -12.35 -56.7 -12.4 -56.9 -12.5 -57.0 -12.75 -57.35 -12.8 -57.45 -13.0 -57.65 -12.35 -57.8 -12.25 -57.85 -11.5 -58.35 -10.95 -59.05 -10.45 -59.3 -10.1 -58.9 Q-9.55 -57.85 -8.45 -57.15 L-6.55 -55.9 -6.35 -55.75 -8.0 -54.7 -7.35 -54.3 -6.85 -54.65 -6.65 -54.55 Q-5.15 -54.5 -3.65 -55.0 L-3.4 -54.95 -0.95 -54.65 -0.85 -54.7 -0.7 -54.9 -0.5 -55.1 -0.45 -55.2 -0.1 -55.4 -0.05 -55.65 -0.1 -55.75 -0.15 -55.85 -0.55 -56.0 -0.7 -56.05 -0.75 -56.15 -0.15 -55.9 0.35 -55.75 Q1.55 -55.35 2.6 -54.4 L3.0 -54.05 2.5 -53.55 2.5 -53.5 2.45 -53.45 1.95 -52.25 1.95 -52.2 Q-0.1 -53.15 -2.4 -53.5 -3.95 -53.5 -5.3 -52.9 -6.55 -52.3 -6.95 -51.1 L-6.95 -50.8 -6.75 -50.45 Q-6.15 -49.95 -5.25 -50.25 L-4.65 -50.1 -5.0 -49.55 Q-5.3 -48.8 -4.55 -48.2 L-4.25 -48.0 -4.45 -48.25 Q-2.8 -46.45 -0.1 -45.45 L0.35 -45.5 0.8 -45.55 Q0.55 -44.65 1.1 -43.85 L1.4 -43.6 1.6 -43.6 2.0 -43.6 1.8 -43.4 Q1.2 -43.0 0.35 -43.15 L0.2 -43.2 -0.05 -43.3 Q-1.05 -43.6 -1.85 -44.05 L-2.8 -44.7 -4.75 -46.8 -4.75 -46.85 Q-5.2 -46.8 -5.3 -46.6 L-5.7 -47.2 -5.75 -47.25 -5.8 -45.2 -5.75 -44.85 -5.35 -43.95 -5.35 -43.9 -4.6 -42.6 Q-3.9 -41.6 -2.8 -41.05 L-4.2 -40.25 M-28.1 -40.85 L-28.7 -40.75 -28.6 -41.1 -28.4 -40.85 -28.1 -40.85 M-14.75 -58.8 L-14.5 -58.85 -14.55 -58.7 -14.75 -58.8 M1.55 -60.15 L1.4 -59.95 Q1.2 -59.05 2.2 -58.9 2.5 -58.85 2.6 -59.15 3.0 -60.2 1.8 -60.25 L1.55 -60.15 M6.35 -46.75 Q7.1 -48.25 8.65 -49.3 L8.75 -49.4 8.7 -48.95 8.8 -48.95 Q9.4 -48.8 9.75 -48.2 L9.8 -48.05 Q10.45 -46.95 10.0 -45.75 L10.0 -45.7 Q8.9 -46.55 7.85 -46.8 L7.5 -46.85 7.45 -46.8 7.4 -46.8 7.2 -46.8 6.35 -46.75 M16.05 -50.8 L16.0 -50.8 16.05 -50.8 M24.7 -52.0 L24.35 -51.8 23.85 -51.85 Q25.1 -54.05 27.4 -55.1 L27.45 -54.8 24.7 -52.0 M29.9 -50.85 L24.5 -47.2 Q24.1 -47.25 23.85 -47.4 L26.6 -49.8 Q28.1 -50.85 29.9 -50.85 M23.2 -43.15 Q24.05 -44.05 25.25 -44.1 L27.95 -44.05 28.55 -43.9 29.8 -43.05 29.85 -42.95 29.95 -42.85 Q30.05 -42.35 29.65 -42.2 29.35 -42.3 29.3 -42.55 27.9 -43.6 26.25 -43.35 L23.45 -43.0 23.25 -43.1 23.2 -43.15 M17.9 -43.45 L18.05 -44.1 17.25 -44.05 16.75 -43.85 15.9 -44.1 Q15.05 -43.55 14.55 -42.8 L14.05 -41.9 12.9 -42.8 12.8 -43.15 12.75 -43.25 12.85 -43.15 12.95 -43.05 Q13.2 -42.8 13.55 -42.9 L13.8 -42.95 Q14.8 -43.35 14.0 -44.35 L14.0 -44.45 13.4 -45.45 14.65 -45.55 18.1 -45.1 17.9 -43.45 M14.5 -41.85 L14.45 -41.8 14.9 -41.75 14.4 -41.8 14.5 -41.85 M10.8 -44.65 L10.35 -44.75 9.8 -43.45 9.5 -42.85 8.5 -43.2 8.25 -43.45 7.25 -43.95 5.35 -43.75 5.0 -43.25 4.95 -42.7 4.95 -42.85 4.4 -42.9 3.9 -42.75 4.35 -43.25 6.05 -45.0 Q6.55 -45.45 6.5 -45.8 L7.85 -45.65 Q9.3 -44.9 10.8 -44.65 M5.95 -42.75 L5.2 -42.7 5.3 -42.75 5.95 -42.75 M12.4 -44.5 L12.05 -44.95 12.85 -45.3 Q12.45 -44.95 12.4 -44.5 M15.0 -39.05 L14.9 -39.0 14.85 -38.95 14.8 -38.85 14.75 -38.75 14.75 -38.65 14.75 -38.45 14.75 -38.35 14.95 -38.05 Q15.8 -36.4 17.0 -35.05 L17.15 -35.05 Q17.6 -35.4 17.4 -35.85 L16.95 -37.15 Q16.45 -38.65 15.05 -39.05 L15.0 -39.05 M13.8 -38.5 Q13.15 -39.55 12.3 -38.8 13.7 -36.45 14.3 -33.65 L14.7 -31.15 14.75 -31.45 15.1 -31.75 15.1 -32.95 15.05 -33.5 15.05 -33.55 15.0 -33.75 15.0 -33.85 14.8 -35.0 14.55 -36.2 14.5 -36.4 14.5 -36.55 13.8 -38.5 M19.75 -42.3 L19.55 -42.45 19.7 -42.4 19.75 -42.3 M7.4 -46.95 L7.3 -46.85 7.5 -46.85 7.4 -46.95 M2.5 -43.55 L2.45 -43.35 2.4 -43.05 Q2.25 -43.2 2.35 -43.35 L2.4 -43.5 2.5 -43.55 M2.75 -42.8 L3.0 -42.5 3.5 -42.45 3.25 -42.15 2.75 -42.8 M5.95 -38.95 Q3.4 -38.55 1.0 -37.0 -0.6 -35.9 -1.5 -34.15 L-1.45 -34.1 -1.55 -33.95 Q-1.8 -33.2 -0.95 -33.2 L-0.8 -33.3 -0.65 -33.45 -0.1 -34.05 Q2.5 -36.75 4.3 -37.2 L6.3 -37.9 6.85 -38.15 7.05 -38.3 Q7.45 -38.9 6.65 -39.0 L6.1 -38.85 5.95 -38.95 M-22.1 -52.8 L-25.8 -52.8 -25.95 -52.6 -26.1 -53.05 -26.0 -53.2 -25.75 -53.4 -22.1 -52.8 M-22.45 -50.2 L-23.45 -49.7 -23.6 -49.4 Q-23.55 -48.55 -22.75 -48.95 L-22.2 -49.4 Q-21.75 -49.95 -22.45 -50.2 M-24.15 -54.25 L-24.1 -54.3 -23.95 -54.3 -24.15 -54.25 M-11.6 -60.95 L-11.9 -60.9 -11.95 -60.9 -11.7 -61.25 -11.6 -60.95 M-3.25 -60.9 L-3.0 -61.3 -3.05 -61.45 Q-3.6 -62.3 -4.75 -62.25 -5.1 -62.2 -5.2 -61.85 L-5.1 -61.35 Q-4.35 -60.55 -3.25 -60.9 M-25.55 -43.15 L-26.35 -42.65 -26.55 -42.5 -25.95 -43.15 -25.55 -43.15 M-18.8 -42.5 L-18.85 -42.4 -19.25 -42.35 -19.45 -42.2 -19.55 -42.1 -19.55 -42.05 -19.55 -41.95 -19.55 -41.9 Q-19.15 -41.6 -18.6 -41.9 L-18.45 -42.05 -18.45 -42.35 -18.5 -42.4 -18.8 -42.5 M-15.5 -41.0 L-15.25 -41.25 Q-14.7 -41.85 -15.5 -42.0 -16.4 -41.95 -16.9 -41.15 L-16.95 -41.0 -16.95 -40.95 -16.9 -40.9 -16.9 -40.85 Q-16.15 -40.55 -15.5 -41.0 M-2.4 -34.05 L-2.45 -34.05 -2.45 -33.7 -2.55 -33.4 -2.9 -33.0 Q-2.55 -33.2 -2.45 -33.7 L-2.45 -33.75 -2.45 -33.8 -2.4 -34.05 M-6.3 -29.7 L-6.2 -29.5 -6.35 -29.65 -6.3 -29.7" fill="#67820b" fill-rule="evenodd" stroke="none"/>
    <path d="M3.7 -66.5 L3.65 -66.5 Q3.55 -65.8 4.05 -65.3 L5.05 -64.6 Q4.65 -64.3 4.3 -64.5 L3.6 -64.8 Q2.9 -65.8 2.05 -66.15 2.3 -66.35 2.7 -66.4 L2.95 -66.45 3.5 -66.55 3.7 -66.5 M-0.45 -56.7 L-0.15 -56.75 Q1.55 -56.65 3.15 -56.0 L5.4 -55.35 5.7 -55.25 5.95 -55.65 6.0 -55.5 Q7.2 -56.15 8.55 -55.9 9.45 -55.35 9.75 -54.3 10.95 -53.8 12.0 -54.8 L11.95 -54.85 11.8 -55.05 Q12.6 -55.4 13.25 -56.1 L13.8 -56.6 13.55 -57.3 13.5 -57.6 Q12.5 -59.45 11.15 -60.95 L11.35 -60.45 11.3 -59.85 Q10.8 -58.85 9.75 -58.55 L8.45 -58.85 8.35 -59.05 7.5 -59.4 Q6.75 -59.85 6.95 -60.7 L6.95 -60.65 7.25 -60.25 Q8.3 -59.7 9.3 -60.25 L9.55 -60.45 Q10.1 -60.95 9.95 -61.6 L9.6 -62.05 9.5 -62.1 9.55 -62.1 10.5 -61.75 10.2 -61.9 10.0 -62.1 9.2 -62.6 7.6 -63.25 Q6.9 -63.55 6.8 -64.35 L6.8 -64.75 Q6.3 -65.9 6.15 -67.1 L6.15 -67.35 6.4 -67.35 7.2 -66.75 7.45 -66.25 7.55 -66.0 8.6 -65.8 8.7 -66.0 8.85 -65.65 9.1 -65.55 9.2 -65.5 9.65 -65.2 9.65 -65.3 Q12.5 -64.4 14.4 -61.9 16.0 -59.8 17.0 -57.55 L17.3 -56.8 17.3 -56.75 Q15.8 -56.2 14.65 -55.15 L13.65 -54.1 Q12.4 -52.6 10.7 -51.9 L9.95 -51.65 10.0 -51.6 10.75 -51.55 10.75 -51.45 10.8 -50.8 10.9 -50.65 10.8 -50.65 Q10.45 -50.3 10.55 -50.05 L11.0 -49.7 12.1 -48.9 12.75 -48.9 Q12.6 -48.75 12.75 -48.45 13.0 -47.9 13.5 -47.8 13.9 -47.4 14.5 -47.25 L15.0 -47.1 Q16.05 -47.0 16.95 -47.5 L17.0 -47.55 17.95 -48.6 18.1 -48.7 Q18.55 -49.0 18.1 -49.35 L17.9 -49.35 17.8 -49.3 17.9 -49.4 18.25 -49.8 18.15 -49.65 18.05 -49.75 17.35 -50.3 Q18.1 -50.9 18.1 -51.9 L18.1 -52.05 20.05 -51.85 Q19.3 -52.6 18.25 -52.75 L20.05 -53.45 18.25 -53.35 19.35 -53.75 Q20.5 -53.85 20.4 -55.0 20.2 -56.4 19.0 -56.85 L19.65 -57.15 Q21.15 -56.85 21.75 -55.55 L22.45 -53.65 22.6 -52.95 Q23.4 -54.2 23.15 -55.8 L24.2 -55.7 24.35 -56.0 25.1 -56.6 24.75 -56.95 Q25.5 -56.15 26.65 -55.75 L28.1 -56.1 29.4 -55.9 Q28.65 -54.95 29.1 -53.9 29.4 -53.45 29.9 -53.3 L31.55 -53.25 Q32.35 -52.4 31.8 -51.55 31.2 -50.7 30.95 -49.85 31.0 -46.45 33.05 -43.6 L32.65 -42.8 32.25 -42.0 Q31.5 -42.55 30.75 -42.2 L29.3 -41.65 Q27.95 -40.6 27.2 -39.2 L26.7 -38.0 26.45 -37.1 26.85 -35.6 26.85 -35.55 26.5 -35.45 26.25 -35.7 25.05 -36.35 24.45 -36.5 24.4 -36.7 23.8 -38.9 23.7 -39.2 23.1 -40.2 22.5 -41.0 20.95 -42.9 20.0 -43.85 20.05 -44.05 Q20.2 -45.25 19.65 -46.3 L19.9 -47.15 19.95 -47.45 19.95 -47.85 19.65 -47.35 20.4 -48.5 20.45 -48.6 20.4 -48.65 20.35 -48.7 20.0 -48.55 19.85 -48.5 Q18.9 -48.0 18.25 -47.05 17.85 -46.45 17.25 -46.3 L16.6 -46.25 16.0 -46.4 15.9 -46.4 15.85 -46.45 14.5 -46.75 14.4 -46.75 14.35 -46.75 14.15 -46.75 13.85 -46.8 13.8 -46.8 13.65 -46.9 13.4 -47.05 Q12.4 -48.5 10.95 -48.6 L10.75 -48.4 12.6 -46.3 12.8 -46.05 12.55 -45.8 12.45 -45.75 11.65 -45.2 10.85 -45.15 10.8 -45.2 Q10.5 -45.3 10.25 -45.5 L10.2 -45.5 10.15 -45.55 10.0 -45.65 10.0 -45.7 10.0 -45.75 Q10.45 -46.95 9.8 -48.05 L9.75 -48.2 Q9.4 -48.8 8.8 -48.95 L8.7 -48.95 8.75 -49.4 8.65 -49.3 Q7.1 -48.25 6.35 -46.75 L6.35 -46.7 6.3 -46.65 Q5.3 -46.05 4.25 -45.75 3.15 -45.25 2.4 -44.15 L2.4 -43.95 2.35 -43.95 1.65 -43.8 1.4 -43.6 1.1 -43.85 Q0.55 -44.65 0.8 -45.55 L2.0 -45.9 5.0 -48.4 5.65 -48.55 8.25 -50.05 8.8 -50.65 8.9 -51.05 8.5 -50.95 6.55 -50.2 Q5.5 -49.6 4.2 -49.45 3.15 -49.9 2.2 -50.4 L0.85 -51.1 Q0.8 -51.4 0.4 -51.4 L0.35 -51.4 0.2 -51.45 -0.1 -51.65 -1.8 -52.7 -1.95 -52.8 Q-2.6 -53.4 -3.65 -53.1 -5.2 -52.85 -6.15 -51.95 L-6.2 -51.9 -6.15 -51.9 -5.55 -51.8 -5.45 -51.8 -5.4 -51.8 -5.2 -51.9 -5.15 -51.95 -5.1 -51.95 -4.15 -52.4 Q-2.5 -53.1 -1.2 -51.65 -2.65 -51.5 -3.75 -50.7 L-4.35 -50.15 -4.2 -50.1 -2.25 -50.95 -2.5 -50.85 -2.4 -50.55 Q-2.05 -50.15 -1.55 -50.05 L-2.25 -49.65 -2.2 -49.4 -1.4 -49.1 -1.95 -49.3 Q-2.2 -49.0 -1.8 -48.65 L-1.6 -48.5 -0.35 -47.6 Q-0.2 -47.45 0.05 -47.4 L1.1 -47.0 1.25 -46.9 1.45 -46.8 1.55 -46.8 0.35 -46.4 Q-0.65 -46.25 -1.6 -46.8 L-4.45 -48.25 -4.25 -48.0 -4.55 -48.2 Q-5.3 -48.8 -5.0 -49.55 L-4.65 -50.1 -5.25 -50.25 Q-6.15 -49.95 -6.75 -50.45 L-6.95 -50.8 -6.95 -51.1 Q-6.55 -52.3 -5.3 -52.9 -3.95 -53.5 -2.4 -53.5 -0.1 -53.15 1.95 -52.2 L1.95 -52.25 2.45 -53.45 2.5 -53.5 2.5 -53.55 3.0 -54.05 3.85 -53.4 Q4.45 -52.95 5.1 -52.65 6.15 -52.15 7.35 -52.9 L8.0 -53.3 7.6 -53.9 7.3 -53.95 6.0 -53.6 Q5.35 -53.3 4.7 -53.6 L4.45 -53.7 3.55 -54.25 0.35 -56.2 -0.3 -56.6 -0.45 -56.7 M0.55 -62.3 Q-0.35 -62.25 -0.4 -63.0 L-0.2 -63.35 -0.15 -63.35 -0.05 -63.4 Q0.85 -63.3 0.75 -62.6 L0.55 -62.3 M23.85 -35.75 L23.85 -35.7 24.05 -34.85 23.45 -35.4 24.0 -34.9 24.05 -34.75 24.1 -34.1 24.1 -33.15 24.05 -32.85 24.0 -32.9 23.9 -32.9 Q21.5 -31.85 19.65 -29.8 L18.7 -28.75 17.75 -27.85 17.5 -27.6 15.85 -26.2 13.9 -26.4 Q12.15 -26.65 10.65 -27.3 8.25 -27.95 5.95 -29.5 3.65 -31.05 1.25 -31.95 L0.35 -32.2 -1.3 -32.25 -1.2 -32.3 -0.95 -32.4 -0.2 -32.65 0.95 -32.7 1.25 -32.7 Q3.25 -32.35 5.05 -31.25 5.85 -30.75 6.65 -30.45 L10.55 -28.8 Q13.1 -27.7 15.9 -28.15 L16.1 -28.2 16.3 -28.3 17.8 -29.15 18.85 -29.9 19.0 -30.0 21.1 -32.05 21.6 -32.9 Q22.05 -33.7 22.0 -34.7 L21.95 -35.3 21.65 -36.6 21.55 -36.85 Q21.05 -38.25 19.85 -39.2 L18.6 -40.2 Q17.45 -41.05 15.9 -40.85 L12.8 -40.4 11.75 -40.05 8.25 -40.25 5.9 -40.4 5.25 -40.45 3.85 -40.3 3.45 -40.15 2.2 -39.4 2.15 -39.3 1.65 -39.1 0.75 -38.45 -0.3 -37.25 -1.2 -36.4 -1.9 -35.55 -2.0 -35.45 -2.2 -35.2 -3.4 -33.25 -3.5 -33.0 Q-3.5 -34.3 -3.05 -35.45 L-2.45 -37.7 -0.9 -40.15 -1.3 -40.15 -1.4 -40.1 -3.55 -38.45 -4.4 -36.95 -4.65 -36.65 -5.95 -33.65 -6.15 -32.9 -6.4 -32.55 -6.6 -32.15 -6.95 -31.15 -6.95 -31.05 Q-7.7 -31.85 -8.1 -32.9 L-8.1 -33.0 -8.1 -33.05 -8.1 -33.15 -8.15 -33.45 Q-7.6 -33.7 -7.2 -34.35 -6.65 -37.6 -4.2 -40.05 L-4.2 -40.15 -4.2 -40.25 -2.8 -41.05 Q-3.9 -41.6 -4.6 -42.6 L-5.35 -43.9 -5.35 -43.95 -5.75 -44.85 -5.8 -45.2 -5.75 -47.25 -5.7 -47.2 -5.3 -46.6 -5.3 -46.35 -5.25 -46.1 -5.2 -46.0 -5.2 -45.95 -4.6 -45.3 -3.65 -44.25 -3.5 -44.1 -2.8 -43.4 -2.75 -43.35 -1.95 -42.7 Q-1.5 -42.4 -0.95 -42.2 L-0.8 -42.2 0.25 -42.1 Q0.8 -42.05 1.25 -42.35 L1.9 -42.75 2.0 -42.55 2.05 -42.5 2.25 -42.3 2.45 -42.0 2.75 -41.6 2.7 -41.6 3.15 -41.3 Q3.5 -41.65 3.3 -42.05 L3.25 -42.15 3.5 -42.45 3.55 -42.45 3.7 -42.55 3.9 -42.75 4.4 -42.9 4.95 -42.85 4.95 -42.7 5.3 -42.75 5.2 -42.7 5.95 -42.75 7.2 -42.55 7.25 -42.5 7.35 -42.5 9.7 -42.1 Q9.45 -42.65 8.8 -42.9 L8.5 -43.2 9.5 -42.85 9.8 -43.45 10.35 -44.75 10.8 -44.65 11.5 -44.6 12.05 -44.95 12.4 -44.5 12.7 -43.6 12.75 -43.25 12.8 -43.15 12.9 -42.8 14.05 -41.9 14.05 -41.85 13.9 -41.5 14.4 -41.8 14.9 -41.75 14.45 -41.8 14.5 -41.85 15.65 -42.55 16.95 -43.45 16.75 -43.85 17.25 -44.05 18.05 -44.1 17.9 -43.45 17.7 -42.8 17.9 -42.45 18.5 -41.9 18.85 -41.7 18.95 -41.7 19.0 -41.65 19.05 -41.65 Q19.85 -41.4 20.55 -40.75 L21.35 -40.0 22.35 -38.85 Q23.35 -37.45 23.85 -35.75 M1.55 -60.15 L1.8 -60.25 Q3.0 -60.2 2.6 -59.15 2.5 -58.85 2.2 -58.9 1.2 -59.05 1.4 -59.95 L1.55 -60.15 M-4.45 -48.25 L-4.5 -48.3 -4.45 -48.25 M16.25 -50.75 L16.05 -50.8 16.15 -50.95 16.3 -50.75 16.25 -50.75 M12.45 -49.75 L12.25 -49.9 12.2 -49.95 12.45 -49.75 M24.35 -51.8 L24.5 -51.75 24.7 -52.0 27.45 -54.8 27.4 -55.1 Q25.1 -54.05 23.85 -51.85 L24.35 -51.8 M23.45 -43.0 L26.25 -43.35 Q27.9 -43.6 29.3 -42.55 29.35 -42.3 29.65 -42.2 30.05 -42.35 29.95 -42.85 L29.85 -42.95 29.8 -43.05 28.55 -43.9 27.95 -44.05 25.25 -44.1 Q24.05 -44.05 23.2 -43.15 L23.05 -42.95 23.45 -43.0 M29.9 -50.85 Q28.1 -50.85 26.6 -49.8 L23.85 -47.4 Q24.1 -47.25 24.5 -47.2 L29.9 -50.85 M22.95 -32.05 L22.15 -31.15 21.1 -30.1 20.95 -29.95 21.05 -30.1 21.65 -30.8 21.85 -31.1 22.65 -31.85 23.0 -32.05 22.95 -32.05 M1.85 -31.3 L0.45 -31.75 0.4 -31.75 -0.2 -31.8 -0.3 -31.8 0.35 -31.8 0.45 -31.8 1.3 -31.5 1.5 -31.45 1.85 -31.3 M13.8 -38.5 L14.5 -36.55 14.5 -36.4 14.55 -36.2 14.8 -35.0 15.0 -33.85 15.0 -33.75 15.05 -33.55 15.05 -33.5 15.1 -32.95 15.1 -31.75 14.75 -31.45 14.7 -31.15 14.3 -33.65 Q13.7 -36.45 12.3 -38.8 13.15 -39.55 13.8 -38.5 M2.6 -47.45 L2.85 -47.5 2.9 -47.5 3.0 -47.5 2.75 -47.35 2.6 -47.45 M-25.95 -52.6 L-25.8 -52.8 -22.1 -52.8 Q-15.6 -52.5 -9.95 -49.6 L-9.5 -49.35 -10.0 -49.55 -10.2 -49.6 -11.85 -50.1 -12.25 -50.2 -17.1 -51.25 -25.1 -51.9 -25.9 -52.25 -26.1 -52.4 -25.95 -52.6 M-16.0 -46.4 L-12.75 -46.6 Q-19.65 -45.1 -25.7 -42.05 L-27.0 -41.95 -27.0 -42.0 -27.1 -42.3 -27.05 -42.35 -26.9 -42.4 -26.75 -42.4 -26.55 -42.5 -26.35 -42.65 -25.55 -43.15 -23.95 -44.05 -17.6 -46.15 -16.05 -46.4 -16.0 -46.4 M-22.45 -50.2 Q-21.75 -49.95 -22.2 -49.4 L-22.75 -48.95 Q-23.55 -48.55 -23.6 -49.4 L-23.45 -49.7 -22.45 -50.2 M-0.25 -67.05 L-0.3 -66.9 -3.15 -66.7 Q-2.75 -67.45 -2.0 -67.7 L-0.25 -67.05 M-13.9 -56.75 Q-11.65 -55.65 -9.7 -53.8 L-13.1 -55.55 -15.75 -56.55 Q-17.1 -57.0 -18.25 -57.85 L-18.05 -58.15 Q-15.85 -57.7 -13.9 -56.75 M-3.25 -60.9 Q-4.35 -60.55 -5.1 -61.35 L-5.2 -61.85 Q-5.1 -62.2 -4.75 -62.25 -3.6 -62.3 -3.05 -61.45 L-3.0 -61.3 -3.25 -60.9 M-2.8 -44.7 L-1.85 -44.05 Q-1.05 -43.6 -0.05 -43.3 L0.2 -43.2 -0.9 -43.45 -1.95 -44.1 -2.2 -44.25 -2.8 -44.7 M-15.5 -41.0 Q-16.15 -40.55 -16.9 -40.85 L-16.9 -40.9 -16.95 -40.95 -16.95 -41.0 -16.9 -41.15 Q-16.4 -41.95 -15.5 -42.0 -14.7 -41.85 -15.25 -41.25 L-15.5 -41.0 M-18.8 -42.5 L-18.5 -42.4 -18.45 -42.35 -18.45 -42.05 -18.6 -41.9 Q-19.15 -41.6 -19.55 -41.9 L-19.55 -41.95 -19.55 -42.05 -19.55 -42.1 -19.45 -42.2 -19.25 -42.35 -18.85 -42.4 -18.8 -42.5 M-6.3 -29.7 L-6.35 -29.7 -6.3 -29.7" fill="#495c0a" fill-rule="evenodd" stroke="none"/>
    <path d="M7.4 -46.95 L7.5 -46.85 7.3 -46.85 7.4 -46.95 M-0.3 -66.9 L-0.25 -67.05 -0.05 -67.0 -0.3 -66.9" fill="#669966" fill-rule="evenodd" stroke="none"/>
    <path d="M0.05 -49.65 L0.35 -49.9 0.6 -50.15 Q1.1 -49.95 0.8 -49.45 L0.6 -49.2 0.5 -49.15 Q0.05 -49.15 0.05 -49.6 L0.05 -49.65 M14.0 -49.0 L14.05 -49.05 14.1 -48.95 13.9 -48.95 14.0 -49.0 M14.75 -49.65 L15.05 -49.9 15.3 -50.15 Q15.8 -49.95 15.5 -49.45 L15.3 -49.2 15.2 -49.15 Q14.75 -49.15 14.75 -49.6 L14.75 -49.65 M-1.55 31.45 Q-1.15 32.0 -1.55 33.05 -1.7 33.6 -2.25 33.65 -3.55 33.85 -3.9 33.05 L-4.0 32.2 Q-3.95 31.25 -3.15 30.9 -2.0 30.9 -1.55 31.45 M-11.9 -60.9 L-12.05 -60.8 -11.95 -60.9 -11.9 -60.9" fill="#ffffff" fill-rule="evenodd" stroke="none"/>
    <path d="M-5.75 -56.3 L-5.75 -56.15 -5.45 -56.15 Q-2.85 -58.0 -0.45 -56.7 L-0.3 -56.6 0.35 -56.2 3.55 -54.25 4.45 -53.7 4.7 -53.6 Q5.35 -53.3 6.0 -53.6 L7.3 -53.95 7.6 -53.9 8.0 -53.3 7.35 -52.9 Q6.15 -52.15 5.1 -52.65 4.45 -52.95 3.85 -53.4 L3.0 -54.05 2.6 -54.4 Q1.55 -55.35 0.35 -55.75 L-0.15 -55.9 -0.75 -56.15 -3.9 -56.1 -4.05 -56.05 -4.15 -56.0 -4.45 -55.9 -4.65 -55.8 -4.9 -55.7 -6.85 -54.65 -7.35 -54.3 -8.0 -54.7 -6.35 -55.75 -6.55 -55.9 -5.75 -56.3 M17.3 -56.8 Q17.9 -56.9 18.25 -56.5 L16.5 -55.45 13.65 -52.95 13.15 -52.4 12.75 -52.25 12.75 -52.2 12.1 -52.0 11.5 -51.75 10.75 -51.55 10.0 -51.6 9.95 -51.65 10.7 -51.9 Q12.4 -52.6 13.65 -54.1 L14.65 -55.15 Q15.8 -56.2 17.3 -56.75 L17.3 -56.8 M24.45 -36.5 L24.2 -36.55 24.15 -36.15 23.95 -35.8 23.85 -35.75 Q23.35 -37.45 22.35 -38.85 L21.35 -40.0 20.55 -40.75 Q19.85 -41.4 19.05 -41.65 L19.0 -41.65 18.95 -41.7 18.85 -41.7 18.5 -41.9 17.9 -42.45 17.7 -42.8 17.9 -43.45 18.1 -45.1 14.65 -45.55 13.4 -45.45 12.85 -45.3 12.05 -44.95 11.5 -44.6 10.8 -44.65 Q9.3 -44.9 7.85 -45.65 L6.5 -45.8 5.35 -45.45 5.05 -45.3 2.5 -43.55 2.4 -43.5 2.35 -43.35 Q2.25 -43.2 2.4 -43.05 L2.7 -42.9 2.75 -42.8 3.25 -42.15 3.3 -42.05 Q3.5 -41.65 3.15 -41.3 L2.7 -41.6 2.75 -41.6 2.45 -42.0 2.25 -42.3 2.05 -42.5 2.0 -42.55 1.9 -42.75 1.25 -42.35 Q0.8 -42.05 0.25 -42.1 L-0.8 -42.2 -0.95 -42.2 Q-1.5 -42.4 -1.95 -42.7 L-2.75 -43.35 -2.8 -43.4 -3.5 -44.1 -3.65 -44.25 -4.6 -45.3 -5.2 -45.95 -5.2 -46.0 -5.25 -46.1 -5.3 -46.35 -5.3 -46.6 Q-5.2 -46.8 -4.75 -46.85 L-4.75 -46.8 -2.8 -44.7 -2.2 -44.25 -1.95 -44.1 -0.9 -43.45 0.2 -43.2 0.35 -43.15 Q1.2 -43.0 1.8 -43.4 L2.0 -43.6 1.6 -43.6 1.4 -43.6 1.65 -43.8 2.35 -43.95 2.4 -43.95 2.4 -44.15 Q3.15 -45.25 4.25 -45.75 5.3 -46.05 6.3 -46.65 L6.35 -46.7 6.6 -46.75 7.2 -46.8 7.4 -46.8 7.45 -46.8 7.5 -46.85 7.85 -46.8 Q8.9 -46.55 10.0 -45.7 L10.0 -45.65 10.15 -45.55 10.2 -45.5 10.25 -45.5 Q10.5 -45.3 10.8 -45.2 L10.85 -45.15 11.65 -45.2 12.45 -45.75 12.55 -45.8 12.8 -46.05 12.6 -46.3 10.75 -48.4 10.95 -48.6 Q12.4 -48.5 13.4 -47.05 L13.65 -46.9 13.65 -46.8 13.8 -46.8 13.85 -46.8 14.15 -46.75 14.35 -46.75 14.4 -46.75 14.5 -46.75 15.85 -46.45 15.9 -46.4 16.0 -46.4 16.6 -46.25 17.25 -46.3 Q17.85 -46.45 18.25 -47.05 18.9 -48.0 19.85 -48.5 L20.0 -48.55 20.3 -48.65 20.4 -48.5 19.65 -47.35 19.95 -47.85 19.95 -47.45 19.9 -47.15 19.65 -46.3 Q20.2 -45.25 20.05 -44.05 L20.0 -43.85 20.95 -42.9 22.5 -41.0 23.1 -40.2 23.7 -39.2 23.8 -38.9 24.4 -36.7 24.45 -36.5 M5.2 -24.8 Q6.45 -24.35 7.55 -23.35 L8.1 -22.9 8.5 -23.0 8.55 -23.0 Q2.4 -20.3 -3.65 -23.2 -7.85 -24.9 -10.95 -28.0 L-12.9 -30.7 Q-14.7 -32.2 -15.35 -34.5 L-15.15 -34.6 -14.9 -34.7 -14.5 -34.9 -14.45 -34.85 -14.1 -34.05 -13.9 -34.15 -13.85 -34.2 Q-12.2 -34.3 -11.25 -33.7 -10.95 -33.95 -10.55 -33.7 -9.9 -33.35 -9.15 -33.3 L-9.0 -33.3 -8.15 -33.45 -8.1 -33.15 -8.1 -33.05 -8.2 -32.8 Q-8.4 -32.25 -8.95 -32.0 L-10.0 -31.5 -9.95 -30.75 -9.95 -30.4 -9.55 -29.9 -8.1 -28.25 -6.35 -26.7 Q-3.95 -25.35 -1.35 -24.7 L-0.8 -25.7 -0.5 -26.15 -0.3 -26.2 -0.25 -26.2 0.0 -26.35 0.1 -26.4 Q2.7 -26.5 4.6 -25.0 L5.2 -24.8 M-4.45 -48.25 L-1.6 -46.8 Q-0.65 -46.25 0.35 -46.4 L1.55 -46.8 1.45 -46.8 1.25 -46.9 1.1 -47.0 0.05 -47.4 Q-0.2 -47.45 -0.35 -47.6 L-1.6 -48.5 -1.8 -48.65 Q-2.2 -49.0 -1.95 -49.3 L-1.4 -49.1 -0.95 -48.85 -0.4 -48.55 0.05 -48.25 0.15 -48.2 0.25 -48.1 0.35 -48.05 0.45 -48.0 0.55 -47.9 0.7 -47.85 Q1.15 -47.6 1.7 -47.5 L2.6 -47.45 2.75 -47.35 3.0 -47.5 2.9 -47.5 3.1 -47.7 3.65 -48.15 3.8 -48.55 3.8 -48.6 3.75 -48.7 3.65 -48.75 3.55 -48.85 2.75 -49.3 2.5 -49.4 2.45 -49.4 2.35 -49.4 1.7 -49.75 1.5 -50.0 0.95 -50.4 0.9 -50.35 0.55 -50.6 -0.1 -50.8 -0.65 -50.55 -0.9 -50.4 -1.55 -50.05 Q-2.05 -50.15 -2.4 -50.55 L-2.5 -50.85 -2.25 -50.95 -4.2 -50.1 -4.35 -50.15 -3.75 -50.7 Q-2.65 -51.5 -1.2 -51.65 -2.5 -53.1 -4.15 -52.4 L-5.1 -51.95 -5.15 -51.95 -5.2 -51.9 -5.4 -51.8 -5.45 -51.8 -5.55 -51.8 -6.15 -51.9 -6.15 -51.95 Q-5.2 -52.85 -3.65 -53.1 -2.6 -53.4 -1.95 -52.8 L-1.8 -52.7 -0.1 -51.65 0.2 -51.45 0.35 -51.4 0.4 -51.4 Q0.8 -51.4 0.85 -51.1 L2.2 -50.4 Q3.15 -49.9 4.2 -49.45 5.5 -49.6 6.55 -50.2 L8.5 -50.95 8.9 -51.05 8.8 -50.65 8.25 -50.05 5.65 -48.55 5.0 -48.4 2.0 -45.9 0.8 -45.55 0.35 -45.5 -0.1 -45.45 Q-2.8 -46.45 -4.45 -48.25 M10.9 -50.65 L11.0 -50.6 Q11.6 -50.5 12.2 -49.95 L12.25 -49.9 12.45 -49.75 Q13.05 -49.4 13.65 -49.9 14.85 -51.45 16.45 -52.55 17.25 -53.15 18.2 -53.35 L18.25 -53.35 20.05 -53.45 18.25 -52.75 Q19.3 -52.6 20.05 -51.85 L18.1 -52.05 18.1 -51.9 Q18.1 -50.9 17.35 -50.3 L17.1 -50.45 16.3 -50.75 16.15 -50.95 16.05 -50.8 16.25 -50.75 15.65 -50.4 15.6 -50.35 15.45 -50.35 15.35 -50.2 15.3 -50.15 15.05 -49.9 14.75 -49.65 14.7 -49.6 14.35 -49.3 14.05 -49.05 14.0 -49.0 13.8 -48.9 13.75 -48.85 13.5 -48.55 13.45 -48.3 13.9 -48.15 14.4 -47.85 15.5 -47.75 15.7 -47.85 16.55 -48.3 17.8 -49.3 17.9 -49.35 18.1 -49.35 Q18.55 -49.0 18.1 -48.7 L17.95 -48.6 17.0 -47.55 16.95 -47.5 Q16.05 -47.0 15.0 -47.1 L14.5 -47.25 Q13.9 -47.4 13.5 -47.8 13.0 -47.9 12.75 -48.45 12.6 -48.75 12.75 -48.9 L12.1 -48.9 11.0 -49.7 10.55 -50.05 Q10.45 -50.3 10.8 -50.65 L10.9 -50.65 M16.05 -50.8 L16.0 -50.8 16.05 -50.8 M24.05 -32.85 L24.2 -32.6 22.95 -32.05 23.0 -32.05 22.65 -31.85 21.85 -31.1 21.65 -30.8 21.05 -30.1 20.95 -29.95 19.65 -28.25 19.55 -28.15 19.3 -27.7 Q18.1 -25.95 16.05 -25.55 L15.65 -25.45 14.45 -25.35 14.4 -25.35 13.0 -25.55 12.9 -25.6 12.85 -25.6 12.45 -25.75 11.15 -26.3 9.2 -27.1 9.05 -27.15 5.6 -28.95 4.05 -29.85 4.0 -29.95 3.35 -30.45 3.3 -30.5 1.85 -31.3 1.5 -31.45 1.3 -31.5 0.45 -31.8 0.35 -31.8 -0.3 -31.8 -0.7 -31.7 -1.95 -31.4 -2.15 -31.35 -2.2 -31.35 -2.6 -31.25 -3.8 -31.0 -3.8 -31.4 -2.8 -31.85 -1.3 -32.25 0.35 -32.2 1.25 -31.95 Q3.65 -31.05 5.95 -29.5 8.25 -27.95 10.65 -27.3 12.15 -26.65 13.9 -26.4 L15.85 -26.2 17.5 -27.6 17.75 -27.85 18.7 -28.75 19.65 -29.8 Q21.5 -31.85 23.9 -32.9 L24.0 -32.9 24.05 -32.85 M19.75 -42.3 L19.7 -42.4 19.55 -42.45 19.75 -42.3" fill="#253c04" fill-rule="evenodd" stroke="none"/>
    <path d="M-1.4 -49.1 L-2.2 -49.4 -2.25 -49.65 -1.55 -50.05 -0.9 -50.4 Q-0.85 -50.2 -0.95 -49.95 L-1.0 -49.5 -0.95 -48.85 -1.4 -49.1 M1.7 -47.5 L1.9 -48.0 2.05 -48.2 2.75 -49.3 3.55 -48.85 3.65 -48.75 3.75 -48.7 3.8 -48.6 3.8 -48.55 3.65 -48.15 3.1 -47.7 2.9 -47.5 2.85 -47.5 2.6 -47.45 1.7 -47.5 M17.8 -49.3 L16.55 -48.3 16.8 -48.75 17.1 -49.4 16.75 -50.6 Q16.9 -50.55 17.1 -50.45 L17.35 -50.3 18.05 -49.75 18.15 -49.65 18.25 -49.8 17.9 -49.4 17.8 -49.3 M13.9 -48.15 L13.45 -48.3 13.5 -48.55 13.75 -48.85 13.8 -48.9 14.2 -48.45 14.3 -47.95 13.9 -48.15" fill="#ff9900" fill-rule="evenodd" stroke="none"/>
    <path d="M-39.25 -35.95 L-38.75 -36.6 -38.6 -36.6 -38.55 -36.6 -38.1 -36.7 -37.2 -36.25 Q-36.55 -35.75 -36.85 -34.9 L-37.35 -34.15 -37.4 -34.05 -38.7 -34.1 -39.1 -34.4 Q-39.45 -34.85 -39.3 -35.75 L-39.25 -35.95 M-52.55 -28.45 L-52.5 -28.5 -52.25 -28.6 -52.1 -28.55 Q-50.95 -28.05 -51.5 -27.25 L-51.85 -26.85 Q-52.1 -26.6 -52.35 -26.65 L-52.6 -26.8 Q-53.8 -27.75 -52.55 -28.45 M0.55 -50.6 L0.1 -50.35 Q-0.4 -49.85 -0.1 -49.2 0.1 -48.75 0.55 -48.8 L0.7 -48.1 0.75 -48.0 0.8 -48.05 Q0.95 -48.1 1.15 -48.3 L1.65 -49.15 1.7 -49.55 1.7 -49.75 2.35 -49.4 2.45 -49.4 2.5 -49.4 2.75 -49.3 2.05 -48.2 1.9 -48.0 1.7 -47.5 Q1.15 -47.6 0.7 -47.85 L0.55 -47.9 0.45 -48.0 0.35 -48.05 0.25 -48.1 0.15 -48.2 0.05 -48.25 -0.4 -48.55 -0.95 -48.85 -1.0 -49.5 -0.95 -49.95 Q-0.85 -50.2 -0.9 -50.4 L-0.65 -50.55 -0.1 -50.8 0.55 -50.6 M16.55 -48.3 L15.7 -47.85 15.5 -47.75 14.4 -47.85 13.9 -48.15 14.3 -47.95 14.2 -48.45 13.8 -48.9 14.0 -49.0 13.9 -48.95 14.1 -48.95 14.05 -49.05 14.35 -49.3 14.35 -49.25 Q14.7 -48.7 15.3 -48.7 L15.4 -48.1 15.45 -48.0 15.5 -48.05 15.85 -48.3 16.35 -49.15 16.4 -49.55 16.2 -50.0 15.65 -50.4 16.25 -50.75 16.3 -50.75 17.1 -50.45 Q16.9 -50.55 16.75 -50.6 L17.1 -49.4 16.8 -48.75 16.55 -48.3 M9.1 -9.3 Q9.4 -8.9 9.1 -8.05 8.75 -6.9 7.75 -6.85 L7.2 -6.9 Q6.4 -7.1 6.35 -7.95 6.3 -9.35 7.65 -9.8 8.75 -9.85 9.1 -9.3 M0.9 -2.3 L0.95 -2.65 Q1.15 -3.3 1.75 -3.55 L2.15 -3.5 Q3.85 -3.3 3.2 -1.65 2.85 -0.65 1.75 -1.05 0.8 -1.45 0.9 -2.3 M18.35 -7.55 L18.5 -7.8 18.65 -7.95 18.85 -7.95 19.25 -7.9 Q20.05 -7.4 19.55 -6.65 L19.2 -6.3 Q17.65 -6.5 18.35 -7.55 M10.25 0.25 Q9.05 -0.25 9.6 -1.4 9.95 -2.05 10.65 -2.05 L11.45 -1.7 Q12.1 -1.15 11.4 -0.05 11.05 0.55 10.25 0.25 M-0.85 16.0 L-0.85 15.25 -0.45 14.65 -0.3 14.6 0.05 14.55 0.25 14.65 Q1.7 15.2 0.65 16.5 L0.55 16.55 Q-0.65 16.75 -0.85 16.0 M6.05 21.6 Q5.45 21.1 5.95 20.3 6.2 19.8 6.75 19.85 7.35 20.0 7.6 20.25 L7.65 20.35 Q8.0 20.8 7.35 21.65 7.0 22.1 6.45 21.85 L6.05 21.6 M3.4 52.0 L3.6 52.25 Q3.8 52.7 3.45 53.55 L3.15 54.0 Q1.45 54.25 1.5 52.75 L1.5 52.45 Q1.55 51.85 2.05 51.7 L2.45 51.65 Q3.1 51.7 3.4 52.0 M-0.8 59.95 L-0.65 59.65 -0.25 59.3 0.4 59.3 Q1.4 59.9 0.75 60.9 L0.4 61.2 -0.25 61.2 -0.5 61.05 Q-1.05 60.6 -0.8 59.95 M-44.45 -27.7 L-44.4 -28.05 -43.85 -28.85 -43.65 -28.9 -43.25 -28.95 -43.2 -28.95 Q-41.0 -28.25 -42.45 -26.45 L-42.55 -26.35 Q-44.55 -26.05 -44.45 -27.7 M-50.35 -20.35 Q-50.65 -20.85 -50.0 -21.75 L-49.8 -21.9 -49.0 -21.85 -48.95 -21.8 Q-47.95 -21.2 -48.6 -20.2 L-49.05 -19.75 Q-50.1 -19.9 -50.35 -20.35 M-31.6 -32.45 L-31.3 -32.85 Q-31.0 -33.15 -30.6 -33.15 L-30.5 -33.1 Q-28.75 -32.5 -30.0 -31.05 L-31.1 -30.95 Q-32.15 -31.6 -31.6 -32.45 M-39.0 -23.35 Q-37.35 -22.8 -38.55 -21.55 -38.95 -21.2 -39.45 -21.55 -40.65 -22.45 -39.35 -23.25 L-39.0 -23.35 M-10.6 -8.5 Q-10.1 -8.0 -10.85 -7.1 -11.2 -6.65 -11.75 -6.9 L-12.45 -7.6 Q-12.55 -7.95 -12.25 -8.45 -11.95 -8.95 -11.4 -8.9 L-10.6 -8.5 M-18.7 -10.9 Q-18.45 -10.45 -18.85 -9.65 -19.3 -8.9 -20.05 -9.25 L-20.15 -9.3 Q-21.4 -9.95 -20.45 -11.1 -20.15 -11.5 -19.7 -11.45 -18.95 -11.3 -18.7 -10.9 M-9.25 0.7 L-9.2 0.3 -8.85 -0.15 -8.8 -0.15 -8.7 -0.2 -8.35 -0.2 Q-6.7 0.4 -7.9 1.7 -9.4 1.85 -9.25 0.7 M-9.55 17.65 Q-10.5 17.15 -9.85 16.1 -9.55 15.55 -9.0 15.6 L-8.6 15.75 Q-7.45 16.2 -8.25 17.45 -8.65 18.05 -9.35 17.75 L-9.4 17.75 -9.55 17.65 M-4.25 52.85 Q-3.8 53.2 -4.1 54.1 L-4.45 54.7 Q-5.85 54.9 -5.95 53.9 L-5.9 53.15 -5.5 52.6 -5.35 52.55 Q-4.6 52.55 -4.25 52.85" fill="#ffcc00" fill-rule="evenodd" stroke="none"/>
    <path d="M-37.2 -36.25 L-37.05 -36.25 -36.15 -36.4 -34.75 -35.8 Q-34.15 -35.4 -34.05 -34.8 L-34.05 -34.55 -34.05 -34.5 Q-34.1 -33.75 -34.9 -32.7 -35.6 -31.8 -36.7 -31.95 -37.85 -32.1 -38.45 -32.5 L-38.75 -32.75 -38.95 -33.1 -39.15 -33.7 -39.15 -33.9 -39.1 -34.4 -38.7 -34.1 -37.4 -34.05 -37.35 -34.15 -36.85 -34.9 Q-36.55 -35.75 -37.2 -36.25 M-52.95 -24.85 L-53.35 -25.15 -53.65 -25.75 -53.75 -26.8 -53.7 -26.95 Q-53.55 -28.2 -52.55 -28.45 -53.8 -27.75 -52.6 -26.8 L-52.35 -26.65 Q-52.1 -26.6 -51.85 -26.85 L-51.5 -27.25 Q-50.95 -28.05 -52.1 -28.55 L-51.3 -28.5 -49.85 -28.15 -49.4 -27.85 -49.1 -27.5 -49.05 -27.35 -49.0 -27.0 Q-49.0 -26.4 -49.55 -25.45 -50.15 -24.55 -51.3 -24.5 L-52.7 -24.7 -52.95 -24.85 M-0.25 -9.7 L0.5 -9.8 0.75 -10.1 2.3 -11.15 3.75 -12.0 4.3 -12.5 7.25 -14.35 7.5 -14.55 10.05 -15.95 Q13.75 -18.0 17.95 -18.65 L18.0 -18.65 19.95 -18.65 20.35 -18.55 Q21.4 -18.35 22.45 -17.8 L23.95 -16.85 25.95 -15.55 26.0 -15.5 26.75 -14.95 27.4 -14.35 26.5 -14.5 Q24.5 -15.7 22.1 -16.05 L19.25 -15.6 Q15.0 -14.75 11.1 -13.2 L10.15 -12.65 Q8.2 -11.95 6.35 -10.95 L4.55 -9.7 0.55 -6.9 0.45 -6.6 0.35 -6.4 0.15 -6.3 -0.3 -6.3 -0.4 -6.8 Q-0.5 -8.3 -0.25 -9.7 M-14.2 9.2 L-14.45 8.9 -16.3 7.0 -21.95 0.95 -25.5 -2.5 -27.8 -4.9 -28.15 -5.3 Q-30.35 -7.7 -30.35 -10.85 L-29.4 -12.25 -28.15 -13.7 -27.85 -14.05 -27.65 -14.1 -26.75 -14.95 -26.0 -15.5 -25.95 -15.55 -23.95 -16.85 -22.45 -17.8 Q-21.45 -18.35 -20.35 -18.55 L-20.0 -18.65 -18.0 -18.65 -17.95 -18.65 -15.75 -18.2 Q-16.3 -18.0 -16.25 -17.35 L-16.0 -16.65 -17.5 -16.2 Q-21.1 -15.2 -23.8 -12.8 -25.6 -11.25 -25.0 -9.05 L-24.7 -8.35 -24.05 -7.65 -23.55 -6.8 -22.6 -5.6 -17.55 0.5 -11.6 7.0 Q-12.75 7.6 -13.7 8.55 L-14.2 9.2 M7.75 -6.85 Q8.75 -6.9 9.1 -8.05 9.4 -8.9 9.1 -9.3 L10.35 -9.15 10.55 -9.1 10.75 -8.9 Q11.9 -7.55 10.65 -6.25 8.95 -5.75 8.0 -6.6 L7.75 -6.85 M2.15 -3.5 L2.95 -3.8 Q4.65 -4.05 4.95 -2.7 L5.0 -2.3 Q5.05 -1.4 4.4 -0.75 L4.2 -0.5 Q3.6 1.0 1.9 0.3 1.25 0.0 0.95 -0.45 0.6 -1.0 0.75 -1.85 L0.9 -2.3 Q0.8 -1.45 1.75 -1.05 2.85 -0.65 3.2 -1.65 3.85 -3.3 2.15 -3.5 M18.35 -7.55 Q17.65 -6.5 19.2 -6.3 L19.55 -6.65 Q20.05 -7.4 19.25 -7.9 L18.85 -7.95 18.95 -8.0 Q20.4 -8.05 20.75 -7.15 20.95 -6.65 20.8 -5.85 20.65 -5.25 20.1 -5.05 18.7 -4.55 18.2 -5.55 L18.05 -6.0 Q17.8 -6.95 18.35 -7.55 M10.4 0.6 L10.25 0.25 Q11.05 0.55 11.4 -0.05 12.1 -1.15 11.45 -1.7 L12.1 -1.6 Q13.25 -1.25 12.9 0.3 L12.45 1.15 Q10.95 1.75 10.4 0.6 M41.45 -19.3 L41.5 -19.3 Q43.05 -21.05 43.6 -23.2 L43.75 -25.05 Q44.1 -24.95 44.4 -24.8 L46.2 -24.05 46.8 -23.75 Q47.5 -22.65 47.1 -21.2 46.75 -20.0 45.9 -19.1 43.0 -17.85 41.3 -19.1 L41.45 -19.3 M19.55 42.0 L18.4 42.65 18.3 42.55 17.75 41.6 17.45 41.25 17.05 40.6 16.4 39.65 15.85 38.9 13.5 36.3 12.7 35.4 12.25 34.8 Q10.75 33.2 9.15 31.75 L8.85 31.45 7.95 30.6 6.85 29.5 5.8 28.65 5.8 28.55 6.3 28.25 6.35 28.25 7.1 28.0 8.35 27.55 Q10.5 26.6 12.7 25.75 L19.65 22.8 22.2 21.65 23.4 22.6 22.65 23.1 Q16.25 27.45 9.15 30.15 L9.9 29.9 10.0 29.95 10.4 30.3 11.25 30.65 11.2 30.65 11.85 31.3 12.75 32.2 13.4 32.95 14.8 34.85 16.95 37.75 16.95 37.7 17.35 38.2 17.7 38.85 18.5 40.05 18.35 40.1 19.15 41.3 19.55 42.0 M13.05 10.85 Q12.55 11.45 12.4 12.3 12.3 12.8 12.6 13.15 L12.75 13.3 12.2 13.25 12.15 13.25 9.05 12.8 0.3 12.5 -6.25 12.9 -10.15 13.6 Q-12.05 14.15 -13.55 15.6 L-15.0 17.35 -15.25 17.65 -16.25 18.95 -16.35 19.2 -16.6 19.6 -17.65 19.45 -18.95 19.65 Q-20.3 20.0 -21.05 21.05 L-21.1 20.95 -19.95 19.4 -16.05 13.95 -14.85 12.45 Q-12.8 9.95 -9.55 9.75 L-6.6 9.9 -6.5 9.95 -6.0 9.95 -4.2 10.0 -3.8 10.05 -1.9 10.1 0.0 10.1 1.9 10.1 3.8 10.05 4.2 10.0 6.0 9.95 6.5 9.95 6.6 9.9 9.55 9.75 Q11.5 9.85 13.05 10.85 M0.25 14.65 L0.5 14.5 Q2.1 14.3 2.55 15.25 L2.7 16.2 Q2.7 17.0 2.0 17.45 L1.15 17.9 Q-0.3 17.95 -0.7 17.1 -0.95 16.65 -0.85 16.0 -0.65 16.75 0.55 16.55 L0.65 16.5 Q1.7 15.2 0.25 14.65 M6.35 22.8 L6.05 22.05 6.05 21.6 6.45 21.85 Q7.0 22.1 7.35 21.65 8.0 20.8 7.65 20.35 9.2 20.65 8.7 22.3 L8.15 23.15 Q6.85 23.65 6.35 22.8 M-16.6 45.3 Q-15.3 46.1 -14.5 47.4 L-12.45 49.35 Q-11.65 49.8 -10.8 49.85 L-10.65 50.55 Q-9.15 57.65 -4.75 63.8 L-3.85 65.1 -3.55 65.65 -4.25 65.7 Q-5.05 66.1 -5.5 66.8 L-8.0 62.5 Q-9.0 60.2 -10.45 58.2 L-11.45 56.4 -11.5 56.3 -12.1 55.25 -13.55 52.4 -13.8 51.7 -14.65 49.95 -16.7 45.35 -16.6 45.3 M3.6 52.25 Q4.7 52.7 4.4 54.3 4.3 54.9 3.85 55.3 L2.2 55.4 1.65 54.95 Q0.9 54.1 1.35 53.0 L1.5 52.75 Q1.45 54.25 3.15 54.0 L3.45 53.55 Q3.8 52.7 3.6 52.25 M0.9 58.85 Q2.35 59.25 1.75 60.9 L1.4 61.45 Q0.4 61.85 -0.15 61.45 L-0.5 61.05 -0.25 61.2 0.4 61.2 0.75 60.9 Q1.4 59.9 0.4 59.3 L-0.25 59.3 -0.65 59.65 -0.8 59.95 -0.25 58.95 0.55 58.8 0.55 58.75 0.9 58.85 M-44.45 -27.7 Q-44.55 -26.05 -42.55 -26.35 L-42.45 -26.45 Q-41.0 -28.25 -43.2 -28.95 L-43.25 -28.95 -42.0 -29.3 Q-39.75 -28.7 -40.0 -27.2 -40.1 -26.55 -40.7 -25.75 -41.95 -24.05 -43.8 -25.0 L-43.85 -25.0 Q-45.3 -25.75 -44.65 -27.25 L-44.45 -27.7 M-48.95 -21.8 L-48.7 -21.9 -47.15 -21.8 -46.35 -20.7 Q-45.65 -19.15 -48.2 -18.35 -50.25 -17.7 -50.45 -19.05 L-50.45 -19.9 -50.35 -20.35 Q-50.1 -19.9 -49.05 -19.75 L-48.6 -20.2 Q-47.95 -21.2 -48.95 -21.8 M-31.6 -32.45 Q-32.15 -31.6 -31.1 -30.95 L-30.0 -31.05 Q-28.75 -32.5 -30.5 -33.1 L-30.05 -33.45 Q-27.9 -33.4 -27.55 -32.35 -27.4 -31.65 -28.05 -30.45 -28.8 -29.15 -30.35 -29.05 -31.6 -29.0 -32.15 -29.45 -32.8 -30.05 -32.4 -31.45 -32.2 -32.1 -31.6 -32.45 M-39.8 -19.7 Q-40.35 -20.2 -40.6 -21.1 -41.05 -22.6 -39.65 -23.4 L-38.65 -23.95 Q-36.2 -24.15 -35.7 -22.65 -35.5 -21.95 -35.7 -20.9 -35.85 -20.1 -36.5 -19.55 L-39.8 -19.7 M-39.0 -23.35 L-39.35 -23.25 Q-40.65 -22.45 -39.45 -21.55 -38.95 -21.2 -38.55 -21.55 -37.35 -22.8 -39.0 -23.35 M-12.45 -7.6 L-11.75 -6.9 Q-11.2 -6.65 -10.85 -7.1 -10.1 -8.0 -10.6 -8.5 L-10.35 -8.45 Q-9.25 -8.25 -8.95 -7.0 -8.7 -6.1 -9.45 -5.45 L-11.7 -5.5 -12.15 -5.8 Q-12.65 -6.25 -12.55 -7.1 L-12.45 -7.6 M-20.15 -9.3 L-20.05 -9.25 Q-19.3 -8.9 -18.85 -9.65 -18.45 -10.45 -18.7 -10.9 L-18.3 -10.8 Q-16.9 -10.5 -17.15 -8.75 -17.25 -8.25 -17.6 -7.9 -19.35 -7.35 -19.95 -8.6 L-20.15 -9.15 -20.15 -9.3 M-9.25 0.7 Q-9.4 1.85 -7.9 1.7 -6.7 0.4 -8.35 -0.2 L-8.7 -0.2 -8.8 -0.15 -8.75 -0.2 -7.95 -0.35 -7.05 0.0 Q-6.3 0.5 -6.75 1.75 L-7.1 2.3 Q-8.4 2.8 -8.95 2.0 L-9.25 1.25 -9.25 0.7 M-8.6 15.75 L-8.6 15.7 -8.55 15.7 -8.2 15.7 Q-6.4 15.75 -6.75 17.7 -6.85 18.2 -7.2 18.5 -8.9 19.15 -9.4 17.75 L-9.35 17.75 Q-8.65 18.05 -8.25 17.45 -7.45 16.2 -8.6 15.75 M-35.85 18.65 Q-34.9 16.8 -33.0 16.1 L-32.45 15.95 -32.3 15.75 -29.0 18.35 -28.65 18.4 -28.5 18.55 -27.75 19.1 -27.5 19.2 -26.7 19.5 -26.2 19.85 -22.9 21.35 -19.65 22.8 -12.7 25.75 Q-10.55 26.6 -8.35 27.55 L-7.25 27.95 -6.9 28.1 -5.8 28.4 -5.25 28.5 -5.25 28.6 -6.75 29.65 Q-7.85 29.45 -8.9 28.9 L-9.1 29.05 -13.25 27.8 -16.6 26.45 -22.85 23.6 -26.6 21.6 -27.85 20.55 -27.5 20.95 -27.95 20.75 Q-29.7 20.05 -31.15 18.7 L-31.5 18.45 -31.55 18.45 -31.7 18.3 -31.75 18.35 -31.55 18.45 Q-32.6 19.4 -33.25 20.55 -34.6 22.9 -35.15 25.55 L-35.35 26.2 Q-35.65 26.85 -35.55 27.45 L-37.25 26.8 Q-37.65 25.3 -37.5 23.75 L-37.5 23.6 -37.45 23.5 -37.4 23.45 -37.4 23.25 -37.4 23.15 -37.35 23.05 -37.25 22.95 -37.25 22.75 -37.25 22.65 -37.1 22.3 -37.0 21.85 -36.8 21.05 -36.6 20.6 -36.0 19.25 -35.95 18.95 -35.85 18.65 M-5.95 53.9 Q-5.85 54.9 -4.45 54.7 L-4.1 54.1 Q-3.8 53.2 -4.25 52.85 -3.35 52.8 -2.95 53.5 L-2.75 54.2 Q-2.45 55.85 -4.1 56.2 -5.65 56.5 -6.0 55.35 L-6.1 54.65 -5.95 53.9" fill="#cc9900" fill-rule="evenodd" stroke="none"/>
    <path d="M-34.05 -34.8 L-33.9 -34.6 Q-33.4 -34.0 -33.35 -32.95 -33.2 -31.15 -35.05 -30.6 -36.55 -30.2 -37.65 -30.95 -38.7 -31.6 -38.45 -32.5 -37.85 -32.1 -36.7 -31.95 -35.6 -31.8 -34.9 -32.7 -34.1 -33.75 -34.05 -34.5 L-34.05 -34.55 -34.05 -34.8 M-21.65 -33.75 L-21.05 -32.1 -20.95 -31.75 -20.9 -31.9 -20.2 -31.5 -19.9 -30.7 Q-18.95 -28.2 -19.15 -25.45 -19.25 -23.8 -19.65 -22.15 L-20.6 -19.7 -22.2 -19.05 Q-24.8 -17.75 -27.1 -15.95 -29.0 -14.45 -30.35 -12.5 L-31.2 -11.1 -31.2 -10.95 -31.25 -10.85 -31.5 -10.6 Q-35.2 -8.9 -39.35 -8.8 L-39.4 -8.8 -40.3 -8.85 Q-42.95 -8.8 -45.4 -9.6 L-51.45 -11.7 Q-54.6 -12.85 -56.9 -15.1 L-57.2 -15.5 Q-55.95 -14.55 -54.35 -14.25 -46.05 -12.65 -37.95 -15.2 -35.05 -16.1 -32.65 -17.9 -26.8 -22.25 -23.4 -28.85 -22.15 -31.2 -21.65 -33.75 M-52.9 -24.6 L-52.95 -24.85 -52.7 -24.7 -51.3 -24.5 Q-50.15 -24.55 -49.55 -25.45 -49.0 -26.4 -49.0 -27.0 -48.2 -26.6 -48.1 -25.4 -48.05 -24.7 -48.7 -24.25 -49.4 -23.75 -50.1 -23.5 -51.75 -22.85 -52.65 -24.1 L-52.9 -24.6 M30.0 -11.45 L30.3 -11.0 30.35 -10.85 Q30.3 -7.45 27.8 -4.9 L25.5 -2.5 21.95 0.95 16.3 7.0 14.45 8.9 14.0 9.5 13.5 9.85 13.4 9.8 13.35 9.8 Q12.25 9.1 11.1 8.8 L9.55 8.55 6.35 8.8 4.5 8.8 3.9 8.8 1.2 8.7 1.2 8.65 0.1 8.7 -0.1 8.7 -1.35 8.8 -2.1 8.65 -2.15 8.65 -3.95 8.8 -4.5 8.8 -6.35 8.8 -6.45 8.75 -9.55 8.55 -10.05 8.6 -10.6 8.7 -13.05 9.6 -13.25 9.7 -13.35 9.8 -13.4 9.8 -13.75 10.05 -13.8 9.9 -13.9 9.65 -14.2 9.2 -13.7 8.55 Q-12.75 7.6 -11.6 7.0 L-11.55 7.05 -4.5 6.5 2.8 6.6 6.1 6.85 9.55 7.2 11.9 7.45 12.25 7.1 13.0 6.5 14.05 5.6 Q17.4 2.65 20.1 -0.85 L20.4 -1.2 Q22.6 -2.6 24.55 -4.45 26.9 -7.3 28.35 -10.75 L28.75 -11.35 28.9 -11.4 29.1 -11.5 29.1 -11.55 30.0 -11.45 M-15.75 -18.2 L-15.7 -18.2 -15.2 -18.05 -13.7 -17.6 -13.5 -17.5 -13.7 -17.2 -13.35 -17.45 -10.1 -15.85 -7.5 -14.5 Q-5.8 -13.65 -4.3 -12.5 L-1.2 -10.35 -1.0 -10.05 -1.15 -9.9 -0.25 -9.7 Q-0.5 -8.3 -0.4 -6.8 L-0.3 -6.3 -0.65 -6.4 Q-1.4 -6.5 -2.0 -6.95 L-2.8 -7.7 -3.2 -7.95 -4.5 -8.95 -7.3 -11.3 -9.25 -12.75 -12.4 -15.0 Q-14.05 -16.15 -15.95 -16.7 L-16.0 -16.65 -16.25 -17.35 Q-16.3 -18.0 -15.75 -18.2 M32.6 -10.3 Q34.0 -11.15 35.15 -12.25 L36.7 -13.75 36.9 -13.95 38.2 -15.3 38.35 -15.5 Q39.35 -14.85 41.05 -14.6 47.6 -13.7 51.35 -18.7 52.05 -19.6 52.1 -20.55 L52.4 -20.35 54.05 -19.05 57.35 -15.95 57.45 -15.8 56.9 -15.1 Q54.6 -12.85 51.45 -11.7 L45.4 -9.6 Q42.9 -8.8 40.3 -8.85 L39.4 -8.8 39.35 -8.8 Q35.75 -8.85 32.55 -10.15 L32.6 -10.3 M33.55 16.35 Q35.05 17.1 35.85 18.65 L35.95 18.95 36.0 19.25 36.6 20.6 36.8 21.05 37.05 22.3 37.25 22.65 37.25 22.75 37.25 22.95 37.35 23.05 37.4 23.15 37.4 23.25 37.4 23.45 37.45 23.5 37.5 23.6 Q37.7 26.45 36.35 29.05 34.8 31.85 32.1 33.7 L30.15 35.35 26.95 37.6 19.55 42.0 19.15 41.3 18.35 40.1 18.5 40.05 21.0 38.8 24.25 37.1 26.1 36.15 Q28.7 34.85 30.75 32.9 L30.25 32.55 30.4 32.4 30.45 32.4 30.8 31.9 30.9 31.75 30.95 31.65 31.2 31.25 31.6 30.35 Q32.55 28.3 30.9 26.65 29.55 25.35 28.8 23.7 28.75 23.2 29.05 22.85 30.25 21.45 32.15 21.75 33.1 22.3 33.4 23.3 L33.55 24.25 33.5 25.4 Q33.3 26.05 33.4 26.7 33.5 27.15 33.9 27.2 L34.5 27.1 Q35.6 26.3 35.45 24.8 L35.4 23.8 Q35.35 21.3 33.1 20.05 L32.9 20.0 30.65 19.85 Q29.15 20.0 28.0 21.05 27.4 21.65 27.2 22.45 26.65 24.5 28.0 26.2 L28.65 26.85 Q29.7 27.85 30.15 29.1 L29.9 29.75 29.25 30.8 28.9 30.25 28.55 29.6 27.05 27.05 26.4 25.8 Q25.85 24.7 24.9 23.95 L24.2 22.95 24.25 22.75 24.45 22.6 24.65 22.6 24.7 22.65 24.85 22.5 25.55 22.05 26.95 21.4 29.25 20.05 30.4 19.4 31.15 19.0 32.35 18.1 32.95 17.35 33.1 17.15 33.2 17.1 33.55 16.35 M12.2 13.25 L12.75 13.3 12.6 13.15 Q12.3 12.8 12.4 12.3 12.55 11.45 13.05 10.85 L14.85 12.45 15.85 13.65 16.05 13.95 16.45 14.5 19.95 19.4 21.15 21.0 18.3 22.2 17.5 22.55 10.7 25.25 8.5 26.05 Q6.1 26.85 3.85 27.95 L3.5 28.15 3.35 28.1 -0.1 27.8 -2.75 27.9 -3.35 28.0 -3.6 28.05 -4.05 27.85 Q-6.2 26.85 -8.5 26.05 L-10.7 25.25 -16.75 22.9 -17.5 22.55 -18.1 22.3 -18.1 22.2 -18.15 22.3 -21.05 21.05 Q-20.3 20.0 -18.95 19.65 L-17.65 19.45 -16.6 19.6 -16.35 19.2 -16.0 19.6 Q-12.65 22.6 -8.5 24.15 -4.6 25.6 -0.45 25.9 L3.25 25.75 Q7.65 25.0 11.75 23.25 L12.9 22.6 13.15 22.35 Q15.2 21.65 16.45 19.8 L16.15 17.7 15.55 17.0 12.2 13.3 12.2 13.25 M-3.7 29.35 L-3.6 29.3 -3.65 29.35 -3.7 29.35 M-17.1 43.6 L-16.1 44.05 -15.7 44.2 Q-13.85 45.0 -11.8 45.4 L-11.55 45.55 -11.45 45.6 -11.4 45.65 -10.95 45.85 -6.7 46.7 -4.45 47.05 -0.1 47.25 0.0 47.25 4.35 47.1 8.3 46.65 9.0 46.5 12.9 45.55 16.85 44.2 17.1 44.3 14.6 49.95 13.8 51.7 13.55 52.4 12.1 55.25 Q11.65 55.7 11.5 56.3 L11.45 56.4 10.45 58.2 Q8.95 60.2 8.0 62.5 6.45 64.85 5.25 67.35 3.4 67.15 1.45 67.3 L0.0 67.3 -1.45 67.3 -2.65 67.25 -5.25 67.35 -5.25 67.25 -5.5 66.8 Q-5.05 66.1 -4.25 65.7 L-3.55 65.65 -3.85 65.1 -2.8 65.35 -1.9 65.55 Q1.45 66.35 4.35 64.4 5.7 63.5 6.6 62.25 L7.85 60.6 Q9.65 58.1 10.85 55.3 11.3 54.3 11.05 53.25 L10.3 51.2 9.6 50.15 9.3 49.9 4.4 50.35 2.15 50.8 0.85 50.95 -10.25 50.6 -10.65 50.55 -10.8 49.85 Q-11.65 49.8 -12.45 49.35 L-14.5 47.4 Q-15.3 46.1 -16.6 45.3 L-16.75 45.2 -17.1 44.3 -17.1 43.6 M-43.8 -24.95 L-43.85 -25.0 -43.8 -25.0 -43.8 -24.95" fill="#6f4a00" fill-rule="evenodd" stroke="none"/>
    <path d="M-33.9 -34.6 L-33.75 -34.65 -33.7 -34.65 -32.05 -35.15 -29.0 -36.1 -25.4 -37.35 -24.7 -37.55 Q-23.8 -37.6 -23.2 -36.9 L-22.3 -35.75 -22.25 -35.7 -22.1 -35.2 -22.15 -35.0 -21.95 -34.7 -21.65 -33.75 Q-22.15 -31.2 -23.4 -28.85 -26.8 -22.25 -32.65 -17.9 -35.05 -16.1 -37.95 -15.2 -46.05 -12.65 -54.35 -14.25 -55.95 -14.55 -57.2 -15.5 L-57.45 -15.8 -57.5 -15.95 Q-57.9 -18.25 -57.1 -20.4 L-56.1 -21.75 -55.05 -22.8 -54.95 -22.95 -54.2 -23.55 -52.9 -24.6 -52.65 -24.1 Q-51.75 -22.85 -50.1 -23.5 -49.4 -23.75 -48.7 -24.25 -48.05 -24.7 -48.1 -25.4 -48.2 -26.6 -49.0 -27.0 L-49.05 -27.35 -46.35 -28.85 -43.45 -30.3 -42.6 -30.85 -39.95 -32.2 -38.75 -32.75 -38.45 -32.5 Q-38.7 -31.6 -37.65 -30.95 -36.55 -30.2 -35.05 -30.6 -33.2 -31.15 -33.35 -32.95 -33.4 -34.0 -33.9 -34.6 M27.4 -14.35 L27.65 -14.1 27.85 -14.05 28.1 -13.75 28.15 -13.7 29.4 -12.25 30.0 -11.45 29.1 -11.55 29.1 -11.5 28.9 -11.4 28.75 -11.35 28.35 -10.75 Q26.9 -7.3 24.55 -4.45 22.6 -2.6 20.4 -1.2 L20.1 -0.85 Q17.4 2.65 14.05 5.6 L13.0 6.5 12.25 7.1 11.9 7.45 9.55 7.2 6.1 6.85 2.8 6.6 -4.5 6.5 -11.55 7.05 -11.6 7.0 -17.55 0.5 -22.6 -5.6 -23.55 -6.8 -24.05 -7.65 -24.7 -8.35 -25.0 -9.05 Q-25.6 -11.25 -23.8 -12.8 -21.1 -15.2 -17.5 -16.2 L-16.0 -16.65 -15.95 -16.7 Q-14.05 -16.15 -12.4 -15.0 L-9.25 -12.75 -7.3 -11.3 -4.5 -8.95 -3.2 -7.95 -2.8 -7.7 -2.0 -6.95 Q-1.4 -6.5 -0.65 -6.4 L-0.3 -6.3 0.15 -6.3 0.35 -6.4 0.45 -6.6 0.55 -6.9 4.55 -9.7 6.35 -10.95 Q8.2 -11.95 10.15 -12.65 L11.1 -13.2 Q15.0 -14.75 19.25 -15.6 L22.1 -16.05 Q24.5 -15.7 26.5 -14.5 L27.4 -14.35 M13.75 10.05 L13.5 9.85 13.75 10.05 M-13.4 9.8 L-13.75 10.05 -13.4 9.8 M9.1 -9.3 Q8.75 -9.85 7.65 -9.8 6.3 -9.35 6.35 -7.95 6.4 -7.1 7.2 -6.9 L7.75 -6.85 8.0 -6.6 8.1 -6.15 Q8.4 -5.15 9.4 -4.85 11.65 -4.15 12.2 -6.2 12.85 -8.75 10.55 -9.1 L10.35 -9.15 9.1 -9.3 M2.15 -3.5 L1.75 -3.55 Q1.15 -3.3 0.95 -2.65 L0.9 -2.3 0.75 -1.85 Q0.6 -1.0 0.95 -0.45 0.85 0.3 1.2 0.95 2.25 3.05 4.6 1.85 5.85 0.9 5.8 -0.65 5.75 -2.1 4.95 -2.7 4.65 -4.05 2.95 -3.8 L2.15 -3.5 M17.6 -11.7 L17.6 -11.65 17.65 -11.7 17.6 -11.7 M18.85 -7.95 L18.65 -7.95 18.5 -7.8 18.35 -7.55 Q17.8 -6.95 18.05 -6.0 L18.2 -5.55 Q18.2 -3.4 20.5 -3.95 21.45 -4.15 21.6 -5.1 21.85 -6.7 20.75 -7.15 20.4 -8.05 18.95 -8.0 L18.85 -7.95 M10.4 0.6 Q10.3 1.9 11.5 2.6 L13.95 2.55 Q14.75 2.15 14.9 1.3 15.5 -1.8 12.25 -1.65 L12.1 -1.6 11.45 -1.7 10.65 -2.05 Q9.95 -2.05 9.6 -1.4 9.05 -0.25 10.25 0.25 L10.4 0.6 M38.35 -15.5 L38.6 -15.8 Q39.95 -17.65 41.45 -19.3 L41.3 -19.1 Q43.0 -17.85 45.9 -19.1 46.75 -20.0 47.1 -21.2 47.5 -22.65 46.8 -23.75 L46.2 -24.05 47.4 -23.5 48.6 -22.8 48.85 -22.65 49.1 -22.5 50.95 -21.3 52.1 -20.55 Q52.05 -19.6 51.35 -18.7 47.6 -13.7 41.05 -14.6 39.35 -14.85 38.35 -15.5 M25.25 20.25 L26.2 19.85 Q26.75 19.4 27.5 19.2 L27.75 19.1 28.5 18.55 28.65 18.4 29.0 18.35 29.4 18.0 30.6 17.1 32.3 15.75 32.45 15.95 33.55 16.35 33.2 17.1 33.1 17.15 32.95 17.35 32.35 18.1 31.15 19.0 30.4 19.4 29.25 20.05 26.95 21.4 25.55 22.05 24.85 22.5 24.7 22.65 24.65 22.6 24.45 22.6 24.25 22.75 24.2 22.95 24.9 23.95 Q25.85 24.7 26.4 25.8 L27.05 27.05 28.55 29.6 28.9 30.25 29.25 30.8 29.9 29.75 30.15 29.1 Q29.7 27.85 28.65 26.85 L28.0 26.2 Q26.65 24.5 27.2 22.45 27.4 21.65 28.0 21.05 29.15 20.0 30.65 19.85 L32.9 20.0 33.1 20.05 Q35.35 21.3 35.4 23.8 L35.45 24.8 Q35.6 26.3 34.5 27.1 L33.9 27.2 Q33.5 27.15 33.4 26.7 33.3 26.05 33.5 25.4 L33.55 24.25 33.4 23.3 Q33.1 22.3 32.15 21.75 30.25 21.45 29.05 22.85 28.75 23.2 28.8 23.7 29.55 25.35 30.9 26.65 32.55 28.3 31.6 30.35 L31.2 31.25 30.95 31.65 30.9 31.75 30.8 31.9 30.45 32.4 30.4 32.4 30.1 32.0 29.85 31.8 29.2 30.95 29.2 30.9 29.1 31.0 Q28.4 31.85 27.6 31.2 L27.3 30.7 27.15 28.0 Q27.15 26.85 26.15 26.35 24.6 25.6 22.85 26.05 20.3 26.65 18.35 28.3 16.55 29.85 16.2 32.05 16.1 32.5 16.4 32.85 17.05 33.65 18.15 33.4 L19.0 33.15 20.95 33.0 22.0 33.2 Q22.4 33.3 22.5 33.65 23.0 35.45 21.55 36.6 L21.55 36.9 Q21.95 37.75 22.8 37.05 24.55 35.65 24.2 33.4 L23.7 32.5 Q22.75 31.55 21.35 31.4 L18.1 31.55 Q19.85 28.8 23.05 27.9 L25.25 28.0 25.35 28.95 Q24.85 31.25 26.5 32.8 26.9 33.15 27.45 33.25 29.15 33.55 30.25 32.55 L30.75 32.9 Q28.7 34.85 26.1 36.15 L24.25 37.1 21.0 38.8 18.5 40.05 17.7 38.85 17.35 38.2 16.95 37.7 16.95 37.75 14.8 34.85 13.4 32.95 12.75 32.2 11.85 31.3 11.2 30.65 12.15 31.1 11.25 30.65 10.4 30.3 10.0 29.95 9.9 29.9 9.15 30.15 Q16.25 27.45 22.65 23.1 L23.4 22.6 22.2 21.65 22.9 21.35 24.1 20.8 24.5 20.6 25.25 20.25 M-16.35 19.2 L-16.25 18.95 -15.25 17.65 -15.0 17.35 -13.55 15.6 Q-12.05 14.15 -10.15 13.6 L-6.25 12.9 0.3 12.5 9.05 12.8 12.15 13.25 12.2 13.3 15.55 17.0 16.15 17.7 16.45 19.8 Q15.2 21.65 13.15 22.35 L12.9 22.6 11.75 23.25 Q7.65 25.0 3.25 25.75 L-0.45 25.9 Q-4.6 25.6 -8.5 24.15 -12.65 22.6 -16.0 19.6 L-16.35 19.2 M0.25 14.65 L0.05 14.55 -0.3 14.6 -0.45 14.65 -0.85 15.25 -0.85 16.0 Q-0.95 16.65 -0.7 17.1 L-0.65 18.75 -0.1 19.3 3.6 19.05 Q4.5 18.7 4.45 17.8 4.35 15.55 2.55 15.25 2.1 14.3 0.5 14.5 L0.25 14.65 M7.6 20.25 Q7.35 20.0 6.75 19.85 6.2 19.8 5.95 20.3 5.45 21.1 6.05 21.6 L6.05 22.05 6.35 22.8 Q6.85 24.7 9.05 23.95 9.55 23.5 9.7 22.85 10.4 20.2 7.6 20.25 M11.25 15.9 L11.3 15.85 11.25 15.85 11.25 15.9 M-8.95 33.5 L-8.55 33.1 -8.55 33.15 -8.95 33.5 M-10.65 50.55 L-10.25 50.6 0.85 50.95 2.15 50.8 4.4 50.35 9.3 49.9 9.6 50.15 10.3 51.2 11.05 53.25 Q11.3 54.3 10.85 55.3 9.65 58.1 7.85 60.6 L6.6 62.25 Q5.7 63.5 4.35 64.4 1.45 66.35 -1.9 65.55 L-2.8 65.35 -3.85 65.1 -4.75 63.8 Q-9.15 57.65 -10.65 50.55 M2.2 55.4 L2.55 56.0 Q3.85 57.4 5.35 56.15 6.25 55.4 6.4 54.25 6.65 51.65 3.85 51.75 L3.4 52.0 Q3.1 51.7 2.45 51.65 L2.05 51.7 Q1.55 51.85 1.5 52.45 L1.5 52.75 1.35 53.0 Q0.9 54.1 1.65 54.95 L2.2 55.4 M-0.15 61.45 Q0.2 63.05 2.15 62.4 2.8 61.75 2.9 60.85 3.25 58.65 1.15 58.7 L0.9 58.85 0.55 58.75 0.55 58.8 -0.25 58.95 -0.8 59.95 Q-1.05 60.6 -0.5 61.05 L-0.15 61.45 M-43.25 -28.95 L-43.65 -28.9 -43.85 -28.85 -44.4 -28.05 -44.45 -27.7 -44.65 -27.25 Q-45.3 -25.75 -43.85 -25.0 L-43.8 -24.95 Q-43.45 -23.6 -41.45 -23.95 -39.7 -24.2 -39.7 -26.0 -39.7 -26.75 -40.0 -27.2 -39.75 -28.7 -42.0 -29.3 L-43.25 -28.95 M-46.35 -20.7 L-47.15 -21.8 -48.7 -21.9 -48.95 -21.8 -49.0 -21.85 -49.8 -21.9 -50.0 -21.75 Q-50.65 -20.85 -50.35 -20.35 L-50.45 -19.9 -50.45 -19.05 Q-50.85 -18.35 -50.65 -17.5 -50.2 -15.55 -47.9 -16.1 L-46.2 -16.7 Q-44.95 -17.25 -44.85 -18.6 -44.75 -20.5 -46.35 -20.7 M-30.5 -33.1 L-30.6 -33.15 Q-31.0 -33.15 -31.3 -32.85 L-31.6 -32.45 Q-32.2 -32.1 -32.4 -31.45 -32.8 -30.05 -32.15 -29.45 L-32.15 -29.2 Q-32.15 -28.45 -31.45 -28.1 -29.6 -27.1 -28.25 -28.5 L-27.65 -29.05 Q-26.4 -29.85 -26.8 -31.3 L-27.55 -32.35 Q-27.9 -33.4 -30.05 -33.45 L-30.5 -33.1 M-35.7 -22.65 Q-36.2 -24.15 -38.65 -23.95 L-39.65 -23.4 Q-41.05 -22.6 -40.6 -21.1 -40.35 -20.2 -39.8 -19.7 -39.9 -19.1 -39.6 -18.35 L-39.05 -17.85 -37.1 -17.75 -35.45 -18.2 Q-33.75 -19.05 -34.25 -20.85 -34.6 -22.25 -35.7 -22.65 M-34.0 7.95 L-34.3 8.5 -34.35 8.35 -34.5 8.1 -34.0 7.95 M-10.6 -8.5 L-11.4 -8.9 Q-11.95 -8.95 -12.25 -8.45 -12.55 -7.95 -12.45 -7.6 L-12.55 -7.1 Q-12.65 -6.25 -12.15 -5.8 L-12.15 -5.75 Q-11.75 -2.8 -8.8 -3.5 -7.75 -4.25 -7.65 -5.5 -7.5 -8.5 -10.35 -8.45 L-10.6 -8.5 M-20.15 -9.3 L-20.15 -9.15 -19.95 -8.6 -19.95 -8.5 Q-19.75 -6.45 -17.55 -6.9 -16.2 -7.2 -16.05 -8.55 -15.8 -10.85 -18.2 -10.85 L-18.3 -10.8 -18.7 -10.9 Q-18.95 -11.3 -19.7 -11.45 -20.15 -11.5 -20.45 -11.1 -21.4 -9.95 -20.15 -9.3 M-8.8 -0.15 L-8.85 -0.15 -9.2 0.3 -9.25 0.7 -9.25 1.25 -8.95 2.0 Q-8.8 3.95 -6.65 3.5 -5.7 3.3 -5.6 2.3 -5.35 0.3 -7.05 0.0 L-7.95 -0.35 -8.75 -0.2 -8.8 -0.15 M-9.55 17.65 L-9.4 18.85 Q-8.6 20.85 -6.45 20.0 -5.6 19.25 -5.4 18.1 -4.9 15.5 -7.65 15.45 L-7.9 15.6 -8.15 15.65 -8.2 15.7 -8.55 15.7 -8.6 15.7 -8.6 15.75 -9.0 15.6 Q-9.55 15.55 -9.85 16.1 -10.5 17.15 -9.55 17.65 M-6.75 29.65 L-6.85 29.7 -8.9 31.4 -9.0 31.45 -12.3 34.8 -13.75 36.65 -16.05 39.65 -18.15 42.4 -17.8 42.15 -18.4 42.65 -21.55 40.85 -26.95 37.6 -30.15 35.35 -32.15 33.7 Q-34.8 31.85 -36.35 29.05 L-36.95 27.65 -37.25 26.8 -35.55 27.45 Q-35.65 26.85 -35.35 26.2 L-35.15 25.55 Q-34.6 22.9 -33.25 20.55 -32.6 19.4 -31.55 18.45 L-31.5 18.45 -31.15 18.7 Q-29.7 20.05 -27.95 20.75 L-27.5 20.95 -27.85 20.55 -26.6 21.6 -22.85 23.6 -16.6 26.45 -13.25 27.8 -9.1 29.05 -8.9 28.9 Q-7.85 29.45 -6.75 29.65 M-30.65 22.5 L-31.95 23.5 Q-32.7 24.45 -32.9 25.6 -33.05 26.7 -31.9 26.6 L-31.4 26.25 Q-30.9 25.05 -29.95 24.35 -29.1 24.55 -28.3 24.85 -27.6 25.15 -27.05 25.55 -25.55 26.65 -25.1 28.3 L-25.3 28.6 -25.7 28.9 -25.8 28.95 -27.25 27.8 Q-28.1 27.0 -29.25 27.4 -31.55 28.15 -31.95 30.45 L-31.9 31.3 Q-31.6 32.6 -30.2 33.0 L-25.1 34.65 -22.35 34.5 -21.65 33.95 Q-20.25 32.25 -19.5 30.15 -19.05 28.75 -17.8 29.6 L-17.6 29.8 Q-16.5 31.05 -16.8 32.65 L-17.1 33.2 Q-17.95 34.4 -19.2 35.25 L-20.25 36.0 Q-21.15 36.8 -20.85 37.85 L-20.8 37.9 -20.6 37.9 -17.85 36.2 Q-16.45 35.35 -15.65 34.0 -14.8 32.5 -15.2 30.85 L-15.5 29.95 Q-16.2 28.2 -17.95 27.65 -19.4 27.2 -20.3 28.3 -21.2 29.5 -21.7 30.95 L-21.95 31.35 -22.0 31.55 -22.0 31.6 -22.3 31.95 -22.9 32.8 -23.0 32.9 -23.6 33.05 -24.65 32.95 -30.3 30.9 Q-30.25 30.1 -29.65 29.55 -29.15 29.05 -28.5 29.0 L-27.25 30.05 -26.6 30.4 Q-24.65 31.05 -23.7 29.3 -22.95 27.9 -23.85 26.65 -24.15 25.65 -25.05 24.95 L-25.4 24.6 Q-27.5 22.35 -30.65 22.5 M-5.95 53.9 L-6.1 54.65 -6.0 55.35 -5.95 56.9 -5.55 57.45 Q-3.4 58.65 -2.45 56.4 L-2.25 55.85 Q-1.9 54.1 -2.95 53.5 -3.35 52.8 -4.25 52.85 -4.6 52.55 -5.35 52.55 L-5.5 52.6 -5.9 53.15 -5.95 53.9" fill="#996600" fill-rule="evenodd" stroke="none"/>
    <path d="M54.4 -12.2 L55.0 -12.55 57.15 -11.25 57.9 -10.05 58.1 -8.4 55.95 -7.15 52.75 -5.65 Q50.75 -7.95 48.2 -9.35 L49.5 -9.95 Q50.95 -10.5 52.3 -11.2 L52.7 -11.35 52.85 -11.45 54.2 -12.1 54.4 -12.2 M45.05 -8.3 L45.05 -8.2 Q45.65 -5.55 47.85 -3.85 L46.25 -3.45 46.2 -3.45 44.25 -3.6 Q43.55 -3.7 43.05 -4.15 41.2 -5.8 41.05 -7.65 43.1 -7.8 45.05 -8.3 M5.8 28.65 L5.45 28.5 6.3 28.25 5.8 28.55 5.8 28.65 M16.3 42.3 L16.3 42.5 15.95 42.6 16.3 42.3 M17.1 44.3 L16.85 44.2 17.2 44.05 17.1 44.3 M-59.5 -9.35 L-61.85 -11.4 -61.9 -11.55 -62.35 -12.1 -59.0 -14.6 -58.8 -14.85 -58.35 -15.25 -58.3 -15.25 -58.2 -15.35 Q-57.6 -14.15 -56.35 -13.35 -56.0 -13.05 -55.45 -12.85 L-55.7 -12.95 Q-58.05 -11.5 -59.5 -9.35 M-53.45 -5.95 L-52.25 -7.15 Q-51.45 -7.85 -51.15 -8.8 L-50.8 -10.45 -51.15 -10.65 -49.5 -9.95 Q-46.9 -8.65 -44.05 -8.05 L-44.35 -7.85 -44.6 -7.75 Q-45.45 -5.05 -48.05 -4.1 L-48.35 -4.0 -49.0 -4.2 -49.45 -4.5 -53.45 -5.95 M-31.55 18.45 L-31.75 18.35 -31.7 18.3 -31.55 18.45 M-17.4 43.45 L-17.45 43.5 -17.5 43.4 -17.4 43.45" fill="#666666" fill-rule="evenodd" stroke="none"/>
    <path d="M27.95 -35.35 L27.85 -35.6 27.55 -36.4 27.55 -36.55 27.65 -37.3 27.75 -37.6 30.7 -36.25 33.85 -34.25 34.65 -33.6 37.4 -31.35 38.45 -30.4 40.4 -28.65 41.55 -27.25 41.8 -26.85 41.65 -27.1 41.7 -26.3 41.55 -25.3 Q40.75 -23.3 39.5 -21.55 L37.85 -19.45 Q36.7 -18.1 35.1 -17.15 33.95 -16.5 32.65 -16.2 30.05 -15.55 27.4 -15.65 L27.1 -15.95 Q24.8 -17.75 22.2 -19.05 L20.6 -19.7 20.55 -19.85 19.1 -19.8 19.15 -19.7 Q16.4 -19.65 13.85 -18.8 L13.75 -18.75 13.1 -18.65 10.0 -17.45 6.15 -15.65 4.9 -14.9 3.55 -14.2 1.4 -13.45 -0.3 -13.15 -1.45 -13.25 -4.2 -13.95 -4.25 -13.95 -7.65 -16.0 Q-10.65 -17.7 -13.85 -18.8 L-15.35 -19.2 Q-15.25 -20.7 -15.3 -22.15 -15.35 -23.65 -15.65 -25.15 L-16.3 -27.95 Q-16.55 -29.05 -16.35 -30.15 L-16.25 -29.3 Q-15.9 -27.8 -15.2 -26.45 L-15.2 -26.4 -14.8 -25.7 -14.65 -25.45 -14.2 -24.8 -14.1 -24.65 -14.0 -24.55 -13.5 -23.95 -13.05 -23.4 -13.0 -23.4 Q-10.15 -20.4 -5.95 -19.45 L-4.3 -18.9 Q-1.05 -17.25 2.45 -17.75 3.55 -18.7 3.25 -20.0 L7.4 -20.75 Q8.9 -21.25 10.3 -21.9 L12.25 -21.3 Q14.55 -20.95 17.05 -22.0 20.0 -23.15 21.6 -26.0 25.6 -23.6 30.3 -23.2 33.05 -21.8 34.1 -24.5 L34.55 -25.35 Q35.55 -27.05 34.7 -28.85 L32.85 -31.85 Q30.8 -34.5 27.95 -35.35 M-10.05 8.6 L-10.15 8.6 -10.6 8.7 -10.05 8.6 M23.3 1.25 L23.3 1.4 23.15 1.4 23.3 1.25 M24.65 1.5 L24.7 1.3 24.8 1.35 25.75 1.8 32.65 2.1 Q33.45 1.9 33.95 1.2 36.1 -1.8 34.6 -5.35 33.4 -8.2 30.95 -9.0 L30.95 -9.1 31.05 -9.3 31.5 -9.05 33.15 -8.35 33.75 -7.75 Q35.55 -6.6 36.1 -4.55 L36.45 -1.65 Q36.4 0.55 35.1 2.3 33.15 3.75 30.85 4.35 L30.85 4.4 Q29.4 3.25 27.7 2.5 L27.2 2.3 26.65 2.15 24.65 1.5 M27.3 3.9 L28.0 4.55 Q29.15 5.5 30.0 6.75 30.75 7.8 30.75 9.15 L30.7 10.6 Q30.55 13.65 28.55 15.95 L28.0 16.5 Q25.95 18.2 23.3 19.1 L21.2 19.7 20.95 19.35 20.75 18.95 20.55 18.6 Q21.9 18.6 23.05 17.8 27.35 14.85 27.75 9.7 27.85 8.65 27.6 7.65 27.0 5.15 25.55 3.7 L25.55 3.65 25.05 3.2 24.85 3.05 24.8 3.0 Q26.05 3.3 27.3 3.9 M12.15 13.25 L12.2 13.25 12.2 13.3 12.15 13.25 M-18.1 22.3 L-18.15 22.3 -18.1 22.2 -18.1 22.3 M19.65 43.2 L19.85 43.05 20.2 42.75 20.5 42.6 Q19.75 45.85 22.5 48.7 23.95 50.2 25.65 50.75 L23.85 51.85 23.65 51.8 22.4 51.7 Q21.4 51.7 20.7 51.1 18.8 49.6 18.8 47.3 18.8 45.15 19.65 43.2 M27.85 38.05 L31.55 35.45 Q33.1 35.3 34.55 36.0 L35.2 36.75 36.15 38.05 36.25 38.45 36.1 39.5 Q35.55 41.75 34.5 43.8 L34.35 44.1 34.25 44.2 34.25 43.75 Q34.2 42.2 33.45 40.9 31.65 37.75 27.85 38.05 M33.55 33.7 L33.75 33.55 33.95 33.7 33.55 33.7 M35.05 32.3 L35.15 32.2 35.3 32.45 35.3 32.5 35.2 32.5 35.05 32.3 M-46.35 -20.7 Q-44.75 -20.5 -44.85 -18.6 -44.95 -17.25 -46.2 -16.7 L-47.9 -16.1 Q-50.2 -15.55 -50.65 -17.5 -50.85 -18.35 -50.45 -19.05 -50.25 -17.7 -48.2 -18.35 -45.65 -19.15 -46.35 -20.7 M-15.2 -32.25 L-15.1 -32.05 -15.6 -31.8 -15.2 -32.25 M-23.2 -38.05 L-23.25 -38.1 -23.2 -38.1 -23.2 -38.05 M-27.55 -32.35 L-26.8 -31.3 Q-26.4 -29.85 -27.65 -29.05 L-28.25 -28.5 Q-29.6 -27.1 -31.45 -28.1 -32.15 -28.45 -32.15 -29.2 L-32.15 -29.45 Q-31.6 -29.0 -30.35 -29.05 -28.8 -29.15 -28.05 -30.45 -27.4 -31.65 -27.55 -32.35 M-35.7 -22.65 Q-34.6 -22.25 -34.25 -20.85 -33.75 -19.05 -35.45 -18.2 L-37.1 -17.75 -39.05 -17.85 -39.6 -18.35 Q-39.9 -19.1 -39.8 -19.7 L-36.5 -19.55 Q-35.85 -20.1 -35.7 -20.9 -35.5 -21.95 -35.7 -22.65 M-30.3 -7.05 Q-29.75 -5.75 -28.75 -4.65 L-27.4 -3.1 -27.0 -1.65 Q-26.8 -0.5 -26.9 0.75 L-28.8 3.05 Q-29.95 3.65 -30.9 4.45 -29.5 2.0 -29.4 -1.05 -29.35 -3.25 -30.3 -5.3 -30.9 -6.65 -31.85 -7.5 L-30.6 -6.85 -30.0 -6.4 -30.3 -7.05 M-33.45 7.15 L-34.0 7.95 -34.5 8.1 -34.55 7.75 -34.5 7.95 -33.8 7.6 -33.45 7.15 M-4.4 -20.9 L-4.35 -20.9 -4.4 -20.85 -4.4 -20.9 M-24.95 3.05 L-24.9 3.05 -24.4 3.2 Q-22.45 3.5 -21.35 5.05 L-20.4 6.35 Q-19.05 8.05 -19.2 10.25 L-19.5 12.3 Q-19.85 14.2 -20.55 16.0 L-21.5 17.35 Q-23.3 19.15 -26.0 18.6 L-26.7 18.45 -26.3 18.7 -27.5 18.05 -26.65 17.8 Q-21.85 16.1 -21.55 11.05 -21.35 8.2 -22.75 5.7 -23.75 3.95 -25.25 3.1 L-24.95 3.05 M-22.4 41.6 L-21.05 42.35 -20.35 43.05 Q-19.5 43.95 -18.9 45.0 -17.85 46.95 -18.15 49.2 -18.45 51.55 -20.45 52.75 L-20.65 52.8 -22.4 52.7 -26.05 50.5 -30.1 47.8 -28.2 47.5 Q-24.65 46.8 -23.0 43.5 -22.55 42.55 -22.4 41.6" fill="#5a361f" fill-rule="evenodd" stroke="none"/>
    <path d="M48.2 -9.35 Q50.75 -7.95 52.75 -5.65 L49.45 -4.5 49.0 -4.2 47.85 -3.85 Q45.65 -5.55 45.05 -8.2 L45.05 -8.3 48.2 -9.35 M24.1 20.8 Q24.65 20.5 25.25 20.25 L24.5 20.6 24.1 20.8 M11.25 30.65 L12.15 31.1 11.2 30.65 11.25 30.65 M-3.6 29.3 L-3.55 29.25 Q-0.7 28.2 2.2 28.9 L3.55 29.3 Q6.95 31.15 8.35 34.45 L8.95 36.45 Q9.7 39.3 7.55 41.5 4.75 44.45 0.75 44.4 -2.5 44.4 -5.1 42.65 -6.4 41.8 -7.1 40.4 -7.85 38.85 -8.05 37.15 -8.2 35.65 -7.8 34.3 -7.4 33.0 -6.6 31.9 L-5.65 30.8 -3.7 29.35 -3.65 29.35 -3.6 29.3 M-1.55 31.45 L0.7 31.9 Q1.35 32.1 1.45 32.85 1.65 35.35 -1.2 35.75 L-1.6 35.85 Q-4.8 35.65 -3.9 33.05 -3.55 33.85 -2.25 33.65 -1.7 33.6 -1.55 33.05 -1.15 32.0 -1.55 31.45 M6.85 35.1 L6.1 33.3 Q4.85 31.45 2.85 30.5 0.75 29.45 -1.65 29.75 L-1.7 29.75 -1.8 29.7 -2.15 29.65 Q-3.75 30.0 -4.85 31.25 -6.5 33.1 -6.7 35.6 -6.75 36.95 -6.35 38.15 -5.7 39.9 -4.1 40.95 L-3.05 41.65 -3.05 41.7 -3.0 41.75 -1.85 42.15 3.0 41.95 3.1 41.9 4.2 41.6 Q5.95 40.7 6.75 38.85 7.3 37.5 7.15 36.05 L6.85 35.1 M-59.5 -9.35 Q-58.05 -11.5 -55.7 -12.95 L-55.45 -12.85 -55.4 -12.85 -55.35 -12.8 Q-53.95 -11.85 -52.3 -11.2 L-51.15 -10.65 -50.8 -10.45 -51.15 -8.8 Q-51.45 -7.85 -52.25 -7.15 L-53.45 -5.95 -54.0 -6.2 -55.7 -7.0 -55.95 -7.15 Q-57.85 -8.15 -59.5 -9.35 M-5.25 28.5 L-5.15 28.55 -5.25 28.6 -5.25 28.5" fill="#999999" fill-rule="evenodd" stroke="none"/>
    <path d="M-31.2 -11.1 L-31.2 -11.05 -31.2 -10.95 -31.2 -11.1 M37.5 -7.55 L37.45 -7.5 37.75 -7.1 37.4 -7.55 37.5 -7.55 M39.85 -2.4 Q39.8 -3.6 40.1 -4.8 L40.5 -6.35 40.55 -7.65 41.05 -7.65 Q41.2 -5.8 43.05 -4.15 43.55 -3.7 44.25 -3.6 L46.2 -3.45 39.85 -2.4 M18.3 42.55 L17.95 42.25 17.95 42.2 17.45 41.25 17.75 41.6 18.3 42.55 M-3.9 33.05 Q-4.8 35.65 -1.6 35.85 L-1.2 35.75 Q1.65 35.35 1.45 32.85 1.35 32.1 0.7 31.9 L-1.55 31.45 Q-2.0 30.9 -3.15 30.9 -3.95 31.25 -4.0 32.2 L-3.9 33.05 M6.85 35.1 L7.15 36.05 Q7.3 37.5 6.75 38.85 5.95 40.7 4.2 41.6 L3.1 41.9 3.0 41.95 -1.85 42.15 -3.0 41.75 -3.05 41.7 -3.05 41.65 -4.1 40.95 Q-5.7 39.9 -6.35 38.15 -6.75 36.95 -6.7 35.6 -6.5 33.1 -4.85 31.25 -3.75 30.0 -2.15 29.65 L-1.8 29.7 -1.7 29.75 -1.65 29.75 Q0.75 29.45 2.85 30.5 4.85 31.45 6.1 33.3 L6.85 35.1 M-48.35 -4.0 L-48.05 -4.1 Q-45.45 -5.05 -44.6 -7.75 L-44.35 -7.85 Q-42.25 -6.95 -41.0 -5.1 L-41.05 -4.8 -41.25 -4.25 -41.45 -3.8 -41.45 -3.65 -42.45 -2.85 -42.55 -2.75 Q-45.5 -3.2 -48.35 -4.0 M-31.5 18.45 L-31.55 18.45 -31.5 18.45" fill="#575757" fill-rule="evenodd" stroke="none"/>
    <path d="M37.75 -7.1 L37.45 -7.5 37.5 -7.55 40.0 -7.6 40.55 -7.65 40.5 -6.35 40.1 -4.8 Q39.8 -3.6 39.85 -2.4 L39.2 -2.35 39.1 -3.8 39.05 -4.05 Q38.75 -5.7 37.75 -7.1 M54.4 -12.2 L54.35 -12.2 54.85 -12.5 55.35 -12.8 55.4 -12.85 Q55.95 -13.0 56.35 -13.35 57.55 -14.15 58.2 -15.35 L58.3 -15.25 58.35 -15.25 58.8 -14.85 59.0 -14.6 62.35 -12.1 61.9 -11.55 61.85 -11.4 58.1 -8.4 57.9 -10.05 57.15 -11.25 55.0 -12.55 54.4 -12.2 M3.55 29.3 L3.8 29.35 3.95 29.35 4.1 29.35 Q4.5 29.4 4.8 29.6 L6.3 30.85 8.3 32.75 8.75 33.15 11.3 35.9 13.6 38.5 14.35 39.3 16.3 42.3 15.95 42.6 15.5 42.8 13.35 43.6 11.9 44.05 8.85 44.9 4.2 45.6 2.8 45.75 -0.5 45.85 -9.7 44.8 -9.75 44.8 Q-10.15 44.55 -10.7 44.5 -11.65 44.05 -12.7 43.85 L-16.3 42.7 -16.35 42.75 -16.3 42.3 -16.4 42.0 -16.4 42.05 -15.3 40.7 -14.35 39.65 -13.3 38.35 -12.8 37.65 -12.6 37.4 -11.5 36.05 -11.4 35.9 -11.0 35.45 -10.25 34.65 -10.0 34.45 -9.35 33.85 -9.1 33.6 -8.95 33.5 -8.55 33.15 -8.55 33.1 -6.7 31.65 -5.65 30.8 -6.6 31.9 Q-7.4 33.0 -7.8 34.3 -8.2 35.65 -8.05 37.15 -7.85 38.85 -7.1 40.4 -6.4 41.8 -5.1 42.65 -2.5 44.4 0.75 44.4 4.75 44.45 7.55 41.5 9.7 39.3 8.95 36.45 L8.35 34.45 Q6.95 31.15 3.55 29.3 M-44.35 -7.85 L-44.05 -8.05 -40.0 -7.6 -37.4 -7.55 Q-39.3 -5.3 -39.2 -2.35 L-42.55 -2.75 -42.45 -2.85 -41.45 -3.65 -41.45 -3.8 -41.25 -4.25 -41.05 -4.8 -41.0 -5.1 Q-42.25 -6.95 -44.35 -7.85" fill="#333333" fill-rule="evenodd" stroke="none"/>
    <path d="M-21.05 -32.1 L-20.9 -31.9 -20.95 -31.75 -21.05 -32.1 M-31.25 -10.85 L-31.25 -10.7 -31.3 -10.65 -31.5 -10.6 -31.25 -10.85 M-14.5 -34.9 L-14.45 -34.9 -14.45 -34.85 -14.5 -34.9 M27.95 -35.35 Q30.8 -34.5 32.85 -31.85 L34.7 -28.85 Q35.55 -27.05 34.55 -25.35 L34.1 -24.5 Q33.05 -21.8 30.3 -23.2 25.6 -23.6 21.6 -26.0 L21.65 -26.1 Q23.2 -29.05 25.5 -31.2 L25.7 -31.75 25.85 -32.2 25.85 -32.3 25.9 -32.4 25.9 -32.5 Q25.95 -33.6 25.4 -34.55 L24.8 -35.35 24.5 -35.6 24.85 -35.65 24.95 -35.65 25.0 -35.65 25.2 -35.55 25.55 -35.25 Q25.95 -34.65 26.55 -34.7 L27.65 -34.85 27.95 -35.35 M3.25 -20.0 Q3.55 -18.7 2.45 -17.75 -1.05 -17.25 -4.3 -18.9 L-5.95 -19.45 Q-10.15 -20.4 -13.0 -23.4 L-11.35 -23.55 Q-10.7 -24.15 -10.65 -25.0 L-10.7 -26.05 Q-8.45 -23.95 -5.45 -22.6 -3.4 -21.35 -1.0 -20.65 L-0.9 -20.6 3.25 -20.0 M-15.2 -26.45 Q-15.9 -27.8 -16.25 -29.3 L-16.35 -30.15 -16.35 -30.25 -16.35 -30.65 -16.35 -30.7 -15.6 -31.8 -15.1 -32.05 -14.25 -30.55 -13.2 -28.9 -13.3 -28.95 Q-15.35 -28.45 -15.2 -26.45 M17.6 -11.7 L17.65 -11.7 17.6 -11.65 17.6 -11.7 M25.75 1.8 L26.7 2.1 26.0 1.3 25.75 0.75 Q25.2 -0.5 26.1 -1.6 L26.5 -2.1 Q26.65 -0.2 29.4 0.0 L29.95 -0.55 31.95 -4.05 Q33.55 -7.1 30.6 -7.7 L30.35 -7.15 30.95 -9.0 Q33.4 -8.2 34.6 -5.35 36.1 -1.8 33.95 1.2 33.45 1.9 32.65 2.1 L25.75 1.8 M20.55 18.6 L19.9 17.55 19.85 17.4 18.85 16.05 18.65 15.75 18.6 15.65 18.55 15.6 18.25 15.25 17.65 14.2 17.65 14.15 17.6 13.85 16.4 11.6 16.2 10.55 16.2 9.5 16.45 8.6 16.55 8.45 16.55 8.7 Q16.5 10.7 18.45 11.25 L19.9 11.1 Q22.1 9.85 23.5 7.5 L24.9 5.15 25.55 3.7 Q27.0 5.15 27.6 7.65 27.85 8.65 27.75 9.7 27.35 14.85 23.05 17.8 21.9 18.6 20.55 18.6 M35.85 18.65 L36.0 18.85 35.95 18.95 35.85 18.65 M11.25 15.9 L11.25 15.85 11.3 15.85 11.25 15.9 M20.5 42.6 L22.15 41.75 21.8 42.2 Q19.3 46.2 24.0 48.65 L26.7 50.1 27.4 49.7 26.05 50.5 25.95 50.55 25.75 50.65 25.65 50.75 Q23.95 50.2 22.5 48.7 19.75 45.85 20.5 42.6 M23.2 41.2 L27.8 38.1 27.85 38.05 Q31.65 37.75 33.45 40.9 34.2 42.2 34.25 43.75 L34.25 44.2 31.3 46.9 Q28.15 43.2 23.75 41.15 L23.2 41.2 M5.3 55.7 L5.25 55.7 5.25 55.65 5.3 55.7 M-30.9 4.45 L-33.45 7.15 -33.8 7.6 -34.5 7.95 -34.55 7.75 -34.55 7.7 -35.3 6.75 Q-36.75 3.65 -37.7 0.45 -38.25 -1.2 -38.1 -2.75 -37.55 -1.4 -35.15 -1.5 L-33.15 -4.8 Q-31.85 -7.35 -33.8 -8.15 L-33.1 -8.4 -31.85 -7.5 Q-30.9 -6.65 -30.3 -5.3 -29.35 -3.25 -29.4 -1.05 -29.5 2.0 -30.9 4.45 M-4.4 -20.9 L-4.4 -20.85 -4.35 -20.9 -4.4 -20.9 M-25.25 3.1 Q-23.75 3.95 -22.75 5.7 -21.35 8.2 -21.55 11.05 -21.85 16.1 -26.65 17.8 L-27.5 18.05 -27.75 17.95 Q-29.9 16.4 -32.15 15.05 L-32.25 14.7 -32.65 14.05 -32.65 14.0 -33.05 13.05 -33.5 11.2 -33.35 9.3 -33.25 9.1 Q-32.95 10.6 -31.3 12.0 -28.45 12.1 -27.55 9.05 L-26.85 8.8 -26.45 8.7 -25.85 7.8 Q-24.25 4.65 -26.8 3.65 L-25.25 3.1 M-35.95 18.95 L-36.0 18.85 -35.85 18.65 -35.95 18.95 M-36.45 30.8 L-36.4 30.8 -35.7 31.65 Q-32.15 35.4 -27.8 38.1 L-22.4 41.6 Q-22.55 42.55 -23.0 43.5 -24.65 46.8 -28.2 47.5 L-30.1 47.8 -30.85 47.25 -33.75 44.7 -33.3 45.15 -33.05 45.05 Q-31.15 42.7 -30.95 39.55 -30.65 34.3 -35.8 34.35 L-35.85 34.4 -36.35 34.65 -36.7 34.8 Q-38.0 36.7 -38.3 38.95 L-38.85 37.95 -38.8 37.9 -36.55 30.85 -36.45 30.8" fill="#6d4125" fill-rule="evenodd" stroke="none"/>
    <path d="M-16.35 -30.15 Q-16.55 -29.05 -16.3 -27.95 L-15.65 -25.15 Q-15.35 -23.65 -15.3 -22.15 -15.25 -20.7 -15.35 -19.2 L-19.15 -19.7 Q-17.5 -22.9 -17.7 -26.45 -17.8 -28.15 -18.2 -29.7 L-18.9 -31.85 -17.9 -32.3 -17.45 -33.5 -16.65 -34.05 -16.6 -34.05 -16.05 -34.25 -15.2 -32.25 -15.6 -31.8 -16.35 -30.7 -16.35 -30.65 -16.35 -30.25 -16.35 -30.15 M-4.2 -13.95 L-1.45 -13.25 -0.3 -13.15 1.4 -13.45 3.55 -14.2 4.9 -14.9 6.15 -15.65 10.0 -17.45 13.1 -18.65 13.75 -18.75 13.8 -18.75 13.35 -18.6 7.65 -16.0 1.85 -12.45 0.0 -11.0 -1.85 -12.45 -4.2 -13.95 M27.4 -15.65 Q30.05 -15.55 32.65 -16.2 33.95 -16.5 35.1 -17.15 36.7 -18.1 37.85 -19.45 L39.5 -21.55 Q40.75 -23.3 41.55 -25.3 L41.7 -26.3 41.65 -27.1 41.8 -26.85 42.15 -26.35 42.25 -26.25 Q42.75 -24.85 42.35 -23.3 42.15 -22.4 41.6 -21.55 L40.35 -19.75 39.2 -18.45 36.05 -14.45 33.85 -12.3 31.55 -10.55 31.5 -10.6 31.25 -10.65 31.25 -10.7 31.2 -10.85 31.2 -10.95 31.15 -11.05 31.15 -11.1 30.35 -12.5 Q29.1 -14.25 27.4 -15.65 M26.5 -2.15 L26.5 -2.1 26.1 -1.6 Q25.2 -0.5 25.75 0.75 L26.0 1.3 26.7 2.1 25.75 1.8 24.8 1.35 24.7 1.3 24.65 1.5 24.55 1.45 23.3 1.4 23.3 1.25 23.8 0.75 24.3 0.2 26.5 -2.15 M33.15 -8.35 L33.5 -8.25 34.65 -7.95 35.05 -7.85 35.85 -7.4 Q36.15 -6.8 36.8 -6.4 L37.1 -6.1 Q38.75 -3.0 37.7 0.45 36.7 3.65 35.3 6.75 L34.55 7.7 34.5 8.1 34.35 8.35 34.3 8.5 34.0 7.95 Q32.65 5.8 30.85 4.4 L30.85 4.35 Q33.15 3.75 35.1 2.3 36.4 0.55 36.45 -1.65 L36.1 -4.55 Q35.55 -6.6 33.75 -7.75 L33.15 -8.35 M27.3 3.9 L27.6 4.05 28.15 4.3 28.7 4.45 Q30.45 5.45 31.8 6.95 L33.35 9.3 33.5 11.2 33.05 13.05 32.65 14.0 32.65 14.05 32.25 14.7 32.15 15.05 Q29.9 16.4 27.75 17.95 L25.85 18.95 21.8 20.7 21.75 20.6 21.2 19.7 23.3 19.1 Q25.95 18.2 28.0 16.5 L28.55 15.95 Q30.55 13.65 30.7 10.6 L30.75 9.15 Q30.75 7.8 30.0 6.75 29.15 5.5 28.0 4.55 L27.3 3.9 M17.65 14.2 L17.05 13.4 15.4 11.5 14.6 10.7 15.95 9.1 16.45 8.55 16.45 8.6 16.2 9.5 16.2 10.55 16.4 11.6 17.6 13.85 17.65 14.15 17.65 14.2 M31.55 35.45 L33.55 33.7 33.95 33.7 33.75 33.55 35.05 32.3 35.2 32.5 35.3 32.5 35.3 32.45 35.15 32.2 35.7 31.65 36.05 31.25 Q35.8 30.95 36.05 30.5 L36.3 30.25 36.7 30.25 Q37.35 30.55 37.0 31.2 L36.75 31.4 36.75 31.45 36.7 31.4 38.8 37.9 38.85 37.95 Q37.75 40.05 36.25 41.95 L34.35 44.1 34.5 43.8 Q35.55 41.75 36.1 39.5 L36.25 38.45 36.15 38.05 35.2 36.75 34.55 36.0 Q33.1 35.3 31.55 35.45 M23.85 51.85 L20.45 53.9 20.2 54.05 Q18.35 54.9 16.65 56.0 L15.25 56.75 14.0 57.45 Q12.6 57.8 11.5 58.5 L12.9 56.05 Q14.6 53.0 15.9 49.8 L16.45 48.5 17.55 45.5 17.75 44.9 18.0 43.6 18.35 43.6 18.45 43.5 18.55 43.4 18.55 43.35 19.65 43.2 Q18.8 45.15 18.8 47.3 18.8 49.6 20.7 51.1 21.4 51.7 22.4 51.7 L23.65 51.8 23.85 51.85 M36.5 30.7 L36.45 30.8 36.55 30.85 36.5 30.7 M-31.05 -9.3 L-30.95 -9.1 -30.3 -7.05 -30.0 -6.4 -30.6 -6.85 -31.85 -7.5 -33.1 -8.4 -31.5 -9.05 -31.05 -9.3 M-27.4 -3.1 L-24.3 0.2 -23.15 1.4 -24.55 1.45 -26.65 2.15 -28.55 2.9 -28.8 3.05 -26.9 0.75 Q-26.8 -0.5 -27.0 -1.65 L-27.4 -3.1 M-26.3 18.7 L-26.7 18.45 -26.0 18.6 Q-23.3 19.15 -21.5 17.35 L-20.55 16.0 Q-19.85 14.2 -19.5 12.3 L-19.2 10.25 Q-19.05 8.05 -20.4 6.35 L-21.35 5.05 Q-22.45 3.5 -24.4 3.2 L-24.9 3.05 -24.95 3.05 -24.1 2.8 -22.55 2.5 -22.25 2.35 -19.65 5.1 Q-17.05 7.8 -14.6 10.7 L-15.4 11.5 -17.05 13.4 -18.25 15.25 -18.55 15.6 -18.65 15.75 -18.85 16.05 -19.85 17.4 -19.9 17.55 -20.75 18.95 -20.95 19.35 -21.75 20.6 -21.8 20.7 -25.85 18.95 -26.3 18.7 M-21.05 42.35 L-20.2 42.75 -19.85 43.05 Q-19.2 43.5 -18.6 43.35 L-18.55 43.4 -18.45 43.5 -18.35 43.6 -18.0 43.6 -17.75 44.9 -16.45 48.5 -15.9 49.8 Q-14.6 53.0 -12.9 56.05 L-11.5 58.5 Q-12.65 57.8 -14.0 57.45 L-15.25 56.75 -16.65 56.0 Q-18.4 54.9 -20.2 54.05 L-22.4 52.7 -20.65 52.8 -20.45 52.75 Q-18.45 51.55 -18.15 49.2 -17.85 46.95 -18.9 45.0 -19.5 43.95 -20.35 43.05 L-21.05 42.35" fill="#330000" fill-rule="evenodd" stroke="none"/>
    <path d="M-13.0 -23.4 L-13.05 -23.4 -13.5 -23.95 -14.0 -24.55 -14.1 -24.65 -14.2 -24.8 -14.65 -25.45 -14.8 -25.7 -15.2 -26.4 -15.2 -26.45 Q-15.35 -28.45 -13.3 -28.95 L-13.2 -28.9 -10.7 -26.05 -10.65 -25.0 Q-10.7 -24.15 -11.35 -23.55 L-13.0 -23.4 M26.5 -2.1 L26.5 -2.15 28.75 -4.65 29.5 -5.6 30.35 -7.15 30.6 -7.7 Q33.55 -7.1 31.95 -4.05 L29.95 -0.55 29.4 0.0 Q26.65 -0.2 26.5 -2.1 M16.55 8.45 L19.65 5.1 22.25 2.35 22.55 2.5 24.1 2.8 24.35 2.85 24.75 2.95 24.8 3.0 24.85 3.05 25.05 3.2 25.55 3.65 25.55 3.7 24.9 5.15 23.5 7.5 Q22.1 9.85 19.9 11.1 L18.45 11.25 Q16.5 10.7 16.55 8.7 L16.55 8.45 M22.15 41.75 L23.2 41.2 23.75 41.15 Q28.15 43.2 31.3 46.9 L30.85 47.25 30.3 47.65 27.4 49.7 26.7 50.1 24.0 48.65 Q19.3 46.2 21.8 42.2 L22.15 41.75 M-13.2 -26.3 L-13.2 -26.4 -13.25 -26.35 -13.2 -26.25 -13.2 -26.3 M-38.1 -2.75 Q-38.0 -4.35 -37.25 -5.85 L-37.15 -6.0 -37.1 -6.1 -36.8 -6.4 Q-36.15 -6.8 -35.85 -7.4 L-35.05 -7.85 -33.8 -8.15 Q-31.85 -7.35 -33.15 -4.8 L-35.15 -1.5 Q-37.55 -1.4 -38.1 -2.75 M-33.25 9.1 L-31.8 6.95 Q-30.45 5.45 -28.7 4.45 L-28.15 4.3 -27.15 3.8 -26.8 3.65 Q-24.25 4.65 -25.85 7.8 L-26.45 8.7 -26.85 8.8 -27.55 9.05 Q-28.45 12.1 -31.3 12.0 -32.95 10.6 -33.25 9.1 M-33.75 44.7 L-35.5 42.8 -36.1 42.1 -36.25 41.95 -38.3 38.95 Q-38.0 36.7 -36.7 34.8 L-36.35 34.65 -35.85 34.4 -35.8 34.35 Q-30.65 34.3 -30.95 39.55 -31.15 42.7 -33.05 45.05 L-33.3 45.15 -33.75 44.7" fill="#7e4d2c" fill-rule="evenodd" stroke="none"/>
    <path d="M14.0 9.5 L13.75 10.05 13.5 9.85 14.0 9.5 M-13.5 -17.5 L-13.35 -17.45 -13.7 -17.2 -13.5 -17.5 M-1.2 -10.35 L-0.95 -10.15 -1.0 -10.05 -1.2 -10.35 M-13.2 -26.3 L-13.2 -26.25 -13.25 -26.35 -13.2 -26.4 -13.2 -26.3" fill="#7d4326" fill-rule="evenodd" stroke="none"/>
    <path d="M3.75 -27.6 L3.1 -27.8 Q2.6 -27.35 3.1 -26.8 L4.5 -25.65 5.2 -24.8 4.6 -25.0 Q2.7 -26.5 0.1 -26.4 L0.0 -26.35 -0.25 -26.2 -0.3 -26.2 -0.5 -26.15 -0.8 -25.7 -1.35 -24.7 Q-3.95 -25.35 -6.35 -26.7 L-8.1 -28.25 -9.55 -29.9 -9.95 -30.4 -9.95 -30.75 -10.0 -31.5 -8.95 -32.0 Q-8.4 -32.25 -8.2 -32.8 L-8.1 -33.05 -8.1 -33.0 -8.1 -32.9 Q-7.7 -31.85 -6.95 -31.05 -7.15 -30.6 -6.7 -30.2 L-6.3 -29.7 -6.35 -29.7 -6.3 -29.7 -6.35 -29.65 -6.2 -29.5 -5.85 -29.05 Q-5.45 -28.45 -4.65 -28.55 -3.0 -29.4 -0.9 -29.35 L-0.9 -29.45 -0.4 -29.4 Q1.9 -29.1 3.65 -27.7 L3.75 -27.6" fill="#3c4a09" fill-rule="evenodd" stroke="none"/>
    <path d="M8.0 -6.6 Q8.95 -5.75 10.65 -6.25 11.9 -7.55 10.75 -8.9 L10.55 -9.1 Q12.85 -8.75 12.2 -6.2 11.65 -4.15 9.4 -4.85 8.4 -5.15 8.1 -6.15 L8.0 -6.6 M4.95 -2.7 Q5.75 -2.1 5.8 -0.65 5.85 0.9 4.6 1.85 2.25 3.05 1.2 0.95 0.85 0.3 0.95 -0.45 1.25 0.0 1.9 0.3 3.6 1.0 4.2 -0.5 L4.4 -0.75 Q5.05 -1.4 5.0 -2.3 L4.95 -2.7 M20.75 -7.15 Q21.85 -6.7 21.6 -5.1 21.45 -4.15 20.5 -3.95 18.2 -3.4 18.2 -5.55 18.7 -4.55 20.1 -5.05 20.65 -5.25 20.8 -5.85 20.95 -6.65 20.75 -7.15 M12.1 -1.6 L12.25 -1.65 Q15.5 -1.8 14.9 1.3 14.75 2.15 13.95 2.55 L11.5 2.6 Q10.3 1.9 10.4 0.6 10.95 1.75 12.45 1.15 L12.9 0.3 Q13.25 -1.25 12.1 -1.6 M2.55 15.25 Q4.35 15.55 4.45 17.8 4.5 18.7 3.6 19.05 L-0.1 19.3 -0.65 18.75 -0.7 17.1 Q-0.3 17.95 1.15 17.9 L2.0 17.45 Q2.7 17.0 2.7 16.2 L2.55 15.25 M7.6 20.25 Q10.4 20.2 9.7 22.85 9.55 23.5 9.05 23.95 6.85 24.7 6.35 22.8 6.85 23.65 8.15 23.15 L8.7 22.3 Q9.2 20.65 7.65 20.35 L7.6 20.25 M5.3 55.7 L5.25 55.65 5.25 55.7 5.3 55.7 M3.4 52.0 L3.85 51.75 Q6.65 51.65 6.4 54.25 6.25 55.4 5.35 56.15 3.85 57.4 2.55 56.0 L2.2 55.4 3.85 55.3 Q4.3 54.9 4.4 54.3 4.7 52.7 3.6 52.25 L3.4 52.0 M-0.15 61.45 Q0.4 61.85 1.4 61.45 L1.75 60.9 Q2.35 59.25 0.9 58.85 L1.15 58.7 Q3.25 58.65 2.9 60.85 2.8 61.75 2.15 62.4 0.2 63.05 -0.15 61.45 M-12.15 -5.8 L-11.7 -5.5 -9.45 -5.45 Q-8.7 -6.1 -8.95 -7.0 -9.25 -8.25 -10.35 -8.45 -7.5 -8.5 -7.65 -5.5 -7.75 -4.25 -8.8 -3.5 -11.75 -2.8 -12.15 -5.75 L-12.15 -5.8 M-19.95 -8.6 Q-19.35 -7.35 -17.6 -7.9 -17.25 -8.25 -17.15 -8.75 -16.9 -10.5 -18.3 -10.8 L-18.2 -10.85 Q-15.8 -10.85 -16.05 -8.55 -16.2 -7.2 -17.55 -6.9 -19.75 -6.45 -19.95 -8.5 L-19.95 -8.6 M-7.05 0.0 Q-5.35 0.3 -5.6 2.3 -5.7 3.3 -6.65 3.5 -8.8 3.95 -8.95 2.0 -8.4 2.8 -7.1 2.3 L-6.75 1.75 Q-6.3 0.5 -7.05 0.0 M-8.2 15.7 L-8.15 15.65 -7.9 15.6 -7.65 15.45 Q-4.9 15.5 -5.4 18.1 -5.6 19.25 -6.45 20.0 -8.6 20.85 -9.4 18.85 L-9.55 17.65 -9.4 17.75 Q-8.9 19.15 -7.2 18.5 -6.85 18.2 -6.75 17.7 -6.4 15.75 -8.2 15.7 M-6.0 55.35 Q-5.65 56.5 -4.1 56.2 -2.45 55.85 -2.75 54.2 L-2.95 53.5 Q-1.9 54.1 -2.25 55.85 L-2.45 56.4 Q-3.4 58.65 -5.55 57.45 L-5.95 56.9 -6.0 55.35" fill="#59301c" fill-rule="evenodd" stroke="none"/>
    <path d="M0.05 -49.65 L0.05 -49.6 Q0.05 -49.15 0.5 -49.15 L0.6 -49.2 0.8 -49.45 Q1.1 -49.95 0.6 -50.15 L0.35 -49.9 0.05 -49.65 M1.7 -49.75 L1.7 -49.55 1.65 -49.15 1.15 -48.3 Q0.95 -48.1 0.8 -48.05 L0.75 -48.0 0.7 -48.1 0.55 -48.8 Q0.1 -48.75 -0.1 -49.2 -0.4 -49.85 0.1 -50.35 L0.55 -50.6 0.9 -50.35 0.95 -50.4 1.5 -50.0 1.7 -49.75 M14.35 -49.3 L14.7 -49.6 14.75 -49.65 14.75 -49.6 Q14.75 -49.15 15.2 -49.15 L15.3 -49.2 15.5 -49.45 Q15.8 -49.95 15.3 -50.15 L15.35 -50.2 15.45 -50.35 15.6 -50.35 15.65 -50.4 16.2 -50.0 16.4 -49.55 16.35 -49.15 15.85 -48.3 15.5 -48.05 15.45 -48.0 15.4 -48.1 15.3 -48.7 Q14.7 -48.7 14.35 -49.25 L14.35 -49.3" fill="#660033" fill-rule="evenodd" stroke="none"/>
    <path d="M30.4 32.4 L30.25 32.55 Q29.15 33.55 27.45 33.25 26.9 33.15 26.5 32.8 24.85 31.25 25.35 28.95 L25.25 28.0 23.05 27.9 Q19.85 28.8 18.1 31.55 L21.35 31.4 Q22.75 31.55 23.7 32.5 L24.2 33.4 Q24.55 35.65 22.8 37.05 21.95 37.75 21.55 36.9 L21.55 36.6 Q23.0 35.45 22.5 33.65 22.4 33.3 22.0 33.2 L20.95 33.0 19.0 33.15 18.15 33.4 Q17.05 33.65 16.4 32.85 16.1 32.5 16.2 32.05 16.55 29.85 18.35 28.3 20.3 26.65 22.85 26.05 24.6 25.6 26.15 26.35 27.15 26.85 27.15 28.0 L27.3 30.7 27.6 31.2 Q28.4 31.85 29.1 31.0 L29.2 30.9 29.2 30.95 29.85 31.8 30.1 32.0 30.4 32.4 M-30.65 22.5 Q-27.5 22.35 -25.4 24.6 L-25.05 24.95 Q-24.15 25.65 -23.85 26.65 -22.95 27.9 -23.7 29.3 -24.65 31.05 -26.6 30.4 L-27.25 30.05 -28.5 29.0 Q-29.15 29.05 -29.65 29.55 -30.25 30.1 -30.3 30.9 L-24.65 32.95 -23.6 33.05 -23.0 32.9 -22.9 32.8 -22.3 31.95 -22.0 31.6 -22.0 31.55 -21.95 31.35 -21.7 30.95 Q-21.2 29.5 -20.3 28.3 -19.4 27.2 -17.95 27.65 -16.2 28.2 -15.5 29.95 L-15.2 30.85 Q-14.8 32.5 -15.65 34.0 -16.45 35.35 -17.85 36.2 L-20.6 37.9 -20.8 37.9 -20.85 37.85 Q-21.15 36.8 -20.25 36.0 L-19.2 35.25 Q-17.95 34.4 -17.1 33.2 L-16.8 32.65 Q-16.5 31.05 -17.6 29.8 L-17.8 29.6 Q-19.05 28.75 -19.5 30.15 -20.25 32.25 -21.65 33.95 L-22.35 34.5 -25.1 34.65 -30.2 33.0 Q-31.6 32.6 -31.9 31.3 L-31.95 30.45 Q-31.55 28.15 -29.25 27.4 -28.1 27.0 -27.25 27.8 L-25.8 28.95 -25.7 28.9 -25.3 28.6 -25.1 28.3 Q-25.55 26.65 -27.05 25.55 -27.6 25.15 -28.3 24.85 -29.1 24.55 -29.95 24.35 -30.9 25.05 -31.4 26.25 L-31.9 26.6 Q-33.05 26.7 -32.9 25.6 -32.7 24.45 -31.95 23.5 L-30.65 22.5" fill="#b77b00" fill-rule="evenodd" stroke="none"/>
    <path d="M-21.1 20.95 L-21.05 21.05 -21.15 21.0 -21.1 20.95 M-17.1 43.6 L-17.1 44.3 -16.75 45.2 -16.6 45.3 -16.7 45.35 -16.75 45.2 -17.45 43.5 -17.4 43.45 -17.1 43.6" fill="#99502e" fill-rule="evenodd" stroke="none"/>
  </g>
</svg>
