<?xml version="1.0" encoding="UTF-8" standalone="no"?>
<svg xmlns:xlink="http://www.w3.org/1999/xlink" height="152.45px" width="48.05px" xmlns="http://www.w3.org/2000/svg">
  <g transform="matrix(1.0, 0.0, 0.0, 1.0, 33.25, 12.2)">
    <path d="M-10.5 -9.05 L-5.9 -10.45 -5.7 -10.65 -5.85 -10.45 Q-4.35 -9.95 -3.4 -8.75 L-6.75 -7.5 Q-8.0 -6.9 -9.05 -6.0 L-11.85 -3.65 -12.1 -3.05 Q-12.0 -2.05 -11.3 -2.0 L-12.25 -1.2 -12.35 -1.2 -12.4 -3.05 -12.25 -4.45 Q-12.15 -6.95 -10.6 -8.95 L-10.5 -9.05 M9.15 -5.05 L9.7 -4.7 Q11.2 -3.7 12.3 -2.45 L12.0 -2.75 11.25 -3.4 10.95 -3.45 10.9 -3.4 10.8 -3.4 10.7 -3.2 10.7 -2.6 11.5 -0.8 10.05 -2.1 Q7.25 0.3 4.15 2.0 -3.2 5.95 -10.75 4.85 L-7.75 4.0 Q-1.75 2.15 3.55 -1.15 5.4 -2.3 6.95 -3.85 L7.1 -4.0 8.7 -4.8 9.15 -5.05 M14.0 0.2 L14.7 2.4 14.8 3.3 14.8 3.55 Q14.6 1.8 14.0 0.2 M-0.4 5.5 Q0.0 5.15 0.55 5.0 L0.65 4.9 Q0.9 4.55 1.3 4.4 L1.35 4.4 2.45 4.6 Q2.55 4.45 2.75 4.4 L3.75 3.95 3.2 6.15 3.15 6.55 2.85 7.4 Q2.3 9.35 2.3 10.65 1.55 21.35 0.15 27.55 L-1.75 28.3 -2.0 28.2 -2.8 28.05 -3.0 28.05 -3.15 27.45 -2.65 27.0 -3.25 27.55 -3.0 26.35 -3.2 27.2 Q-3.35 26.0 -3.1 24.7 L-2.55 21.25 Q-2.25 17.6 -1.2 14.0 L-0.4 10.9 -0.05 9.45 -0.4 10.0 Q-1.4 11.5 -3.5 12.3 L-6.0 13.05 -8.4 13.75 -10.1 12.6 -10.7 11.9 -11.35 11.25 Q-11.5 10.4 -11.25 9.55 L-11.15 9.75 -11.0 10.0 -8.7 12.8 Q-7.75 12.05 -6.15 11.7 L-3.35 11.2 Q-2.35 10.35 -1.2 8.25 -0.05 6.05 0.95 5.2 L-0.05 5.45 -0.4 5.5 M-4.2 30.75 L-4.2 30.65 Q-2.9 30.9 0.5 29.9 3.15 26.4 3.45 19.8 L3.5 19.3 4.65 14.65 Q5.25 11.7 6.3 8.9 L8.05 10.7 Q9.55 12.05 10.25 13.15 L9.7 13.55 Q8.25 14.8 8.35 16.65 8.45 19.0 7.35 21.1 5.15 25.3 4.6 29.9 4.35 31.65 5.25 33.1 L6.05 34.75 Q5.45 39.0 5.35 43.05 4.2 46.4 3.85 49.95 L3.6 50.0 0.55 50.7 Q-0.25 51.35 -0.35 52.4 -0.4 53.0 -0.1 53.45 1.1 55.15 3.05 55.9 2.95 56.6 3.2 57.2 L3.15 57.75 0.5 60.2 Q-0.95 61.6 -0.2 63.35 0.6 65.25 2.65 65.1 2.6 66.55 3.6 67.65 L4.7 69.2 Q7.0 73.2 7.6 77.6 6.4 77.85 5.7 78.45 L4.95 78.8 1.2 80.85 Q-1.1 82.15 -2.8 82.0 L-5.7 81.5 -5.0 81.7 -3.9 81.55 Q-2.5 81.3 -2.5 79.85 -2.45 76.35 -6.0 75.15 -7.75 74.75 -8.95 75.5 -9.3 74.55 -10.15 73.5 L-9.1 69.9 Q-8.3 65.95 -11.75 64.65 -14.3 65.4 -15.0 68.5 L-15.25 69.1 Q-16.5 70.85 -16.6 72.85 -16.8 76.8 -13.95 78.75 L-13.85 78.65 -14.0 79.2 Q-13.25 79.2 -12.55 80.1 L-11.35 81.45 -13.0 81.8 Q-14.0 82.05 -14.0 82.65 L-13.7 82.65 Q-15.25 83.9 -16.7 82.2 L-17.85 80.65 -19.15 79.4 Q-19.1 76.9 -18.2 74.1 L-16.3 69.1 -14.5 64.15 Q-13.7 61.25 -13.7 58.7 -13.3 59.0 -13.15 60.2 L-12.6 61.75 Q-11.6 60.2 -12.6 57.75 L-12.9 57.05 -12.7 57.5 -12.6 57.6 Q-10.4 59.65 -7.8 58.2 L-7.45 58.0 Q-8.6 59.8 -9.8 60.9 L-8.6 60.9 Q-6.55 59.5 -5.5 56.95 L-4.2 52.2 -6.7 56.7 -6.75 56.8 -6.75 56.5 Q-6.95 51.7 -11.4 50.45 L-12.8 50.75 -13.5 51.45 -13.95 52.4 -14.0 52.85 -13.7 44.35 -14.1 43.5 -14.1 42.85 Q-13.8 39.9 -13.9 36.95 -14.0 35.45 -13.7 33.95 L-13.7 33.25 -13.7 33.2 -13.55 32.75 -13.7 31.6 -13.5 30.55 Q-13.3 29.55 -13.45 28.6 L-12.9 27.3 Q-12.25 28.35 -11.0 29.0 L-10.75 29.4 -10.8 29.4 -11.2 30.05 Q-11.35 30.7 -10.9 31.2 L-10.75 31.45 -10.75 32.4 -10.9 33.8 -10.9 34.35 -10.95 34.6 -11.0 35.3 -11.1 37.05 -11.1 37.2 -11.45 38.95 Q-11.9 41.8 -11.55 44.6 L-11.35 45.25 -11.35 45.55 -11.35 45.8 -10.5 45.9 -9.8 46.15 -7.75 46.25 Q-5.8 45.2 -5.4 43.05 L-5.15 41.65 -5.05 41.6 -4.95 41.55 -4.65 41.1 -4.25 39.75 -4.25 37.8 Q-4.45 35.65 -4.2 33.45 L-4.1 33.25 Q-3.25 31.9 -4.2 30.75 M9.55 4.95 L10.15 5.2 Q11.75 4.7 12.45 2.85 L12.55 2.6 12.5 5.3 12.25 7.8 12.05 7.3 Q11.45 6.0 10.45 5.3 L9.55 4.95 M7.8 8.45 L6.8 7.6 7.45 5.9 Q8.1 5.55 8.85 5.45 L11.75 10.4 11.05 13.0 Q11.2 11.45 9.7 10.0 L7.8 8.45 M-9.4 80.05 L-10.5 79.6 -10.05 79.2 -9.4 80.05 M-13.8 24.85 L-13.8 24.8 -13.75 24.9 -13.8 24.85 M-9.05 62.75 L-9.05 63.2 Q-7.35 62.9 -5.6 60.9 -6.3 60.85 -7.35 61.65 L-9.05 62.75 M10.65 120.35 L10.3 121.65 Q9.85 123.05 8.3 122.65 L5.9 124.6 3.45 126.25 Q2.7 126.4 1.65 127.15 L0.0 128.25 -1.6 128.75 Q-2.6 129.05 -3.25 128.55 L-4.85 126.7 Q-1.1 121.95 4.2 116.25 L3.3 115.15 2.3 113.9 0.65 113.0 1.5 112.45 2.35 111.4 2.4 111.25 2.45 111.2 2.65 110.55 Q2.95 109.85 2.4 108.4 1.8 106.95 2.3 106.1 1.25 105.25 2.05 103.65 L2.5 102.45 Q2.55 101.75 2.05 101.2 2.7 100.1 2.3 97.95 1.9 95.9 2.8 94.8 L2.05 92.45 2.1 92.4 2.15 92.35 2.75 89.4 2.5 88.45 2.4 88.3 1.05 86.85 1.3 86.8 4.0 86.85 Q5.6 87.25 6.5 88.25 6.0 92.75 7.0 99.9 8.05 107.85 7.95 111.0 9.95 112.3 10.8 114.55 11.65 116.75 11.2 119.25 10.85 119.6 10.65 120.35 M-7.1 83.45 L-5.6 84.1 Q-3.5 84.2 -1.3 83.5 L-1.2 83.75 -0.85 84.4 -0.4 84.55 -1.05 84.4 -2.8 84.65 Q-3.75 85.35 -5.4 85.35 L-8.25 85.15 Q-8.15 84.55 -9.05 84.2 -9.9 83.8 -10.85 84.6 L-12.25 86.1 -12.25 86.4 Q-13.5 86.5 -14.5 85.9 -15.05 84.5 -13.6 84.05 L-12.4 83.6 Q-11.7 83.3 -11.5 82.8 -10.3 81.6 -8.55 82.55 L-7.1 83.45 M-8.0 87.4 L-8.0 87.45 -7.95 87.4 -7.85 87.4 -6.1 87.45 -2.6 87.0 -3.25 86.85 -3.1 86.65 -3.0 86.35 Q-2.75 85.95 -2.35 85.95 L-1.8 85.9 Q-1.6 85.35 -1.1 85.8 L-0.55 86.4 -0.5 86.5 -0.5 86.55 -0.55 87.05 Q0.15 87.55 0.45 88.45 L0.7 88.5 Q1.55 88.9 1.4 89.7 1.5 90.45 1.05 91.2 L0.5 92.0 0.5 93.25 0.5 93.6 Q1.2 93.75 1.3 94.35 L0.75 96.2 0.75 96.25 0.6 96.95 0.85 98.1 0.95 98.1 Q1.05 99.25 0.7 100.2 L0.5 101.8 0.9 102.3 0.75 103.35 0.7 103.5 0.65 103.55 0.75 103.55 0.7 104.0 0.6 105.65 0.35 105.65 Q0.55 105.55 0.7 105.8 L0.95 106.1 0.55 107.1 0.55 107.4 0.6 107.6 0.75 108.95 0.95 108.75 Q1.35 109.2 1.3 109.75 L1.05 110.8 Q0.6 111.75 0.0 111.75 -0.25 111.7 -0.9 112.0 L-1.2 112.2 -1.25 112.15 Q-1.75 112.35 -2.1 111.95 L-2.1 111.9 -2.15 111.9 -3.05 111.4 -3.15 111.25 -8.3 111.1 -9.2 111.1 -9.45 111.05 -9.6 110.95 -9.65 110.95 Q-10.6 110.85 -11.5 109.4 -11.7 108.35 -11.0 107.25 L-10.85 107.0 -10.95 106.95 -10.95 106.8 -11.1 105.1 -11.3 104.9 -11.35 104.55 -11.2 103.85 -11.15 103.85 -11.35 102.05 -11.7 101.2 Q-11.65 100.45 -11.2 99.95 L-10.9 99.7 -10.9 98.95 -10.85 97.9 -10.85 97.5 Q-11.4 96.95 -10.9 96.2 L-11.15 93.9 -11.35 93.7 Q-11.5 93.25 -11.3 92.9 L-11.25 92.75 -11.15 92.65 -11.25 92.65 -11.15 91.55 -11.05 91.05 -11.5 90.1 -11.2 89.2 Q-11.1 88.85 -10.8 88.75 L-10.75 88.3 -10.4 87.4 -9.6 86.5 -9.5 87.0 -9.25 87.1 -8.0 87.4 M-7.75 88.65 L-9.15 88.75 -9.35 90.55 -9.2 90.7 -8.45 91.25 -8.35 91.25 -7.75 91.45 -6.45 91.6 -3.15 91.2 -1.8 91.1 -1.65 91.1 Q-0.8 91.1 -0.95 90.1 L-2.35 88.25 -7.75 88.65 M-20.25 122.55 L-20.9 122.5 Q-21.6 122.25 -21.55 121.6 L-21.6 121.7 -22.85 121.55 -19.25 116.2 Q-17.0 113.2 -14.5 111.9 -13.95 111.25 -14.0 110.25 L-14.4 108.4 Q-14.65 107.3 -14.3 106.8 -13.9 106.05 -12.45 105.9 -12.2 106.0 -12.2 106.25 L-12.25 106.6 -12.3 106.65 -12.75 107.55 -12.8 109.2 Q-12.8 110.05 -12.25 110.65 L-11.0 111.75 -11.05 111.75 -11.05 111.85 Q-10.25 111.7 -9.85 112.3 L-9.65 112.65 -9.8 112.7 -10.05 112.75 Q-10.55 112.85 -11.4 113.25 L-12.9 113.45 Q-14.9 114.85 -16.95 117.35 L-18.65 119.55 -20.25 121.7 -20.25 122.55 M-8.15 94.4 L-6.1 94.75 -2.6 94.65 -1.5 94.6 -1.25 94.5 Q-0.9 94.25 -1.05 93.7 L-1.15 93.6 -1.3 93.4 Q-2.35 92.2 -4.75 92.55 L-6.95 92.9 -8.25 92.9 -8.95 92.8 -9.0 92.8 -9.0 92.75 -9.05 92.75 -9.05 92.8 -9.1 93.4 -9.15 93.85 -8.15 94.4 M-6.95 98.3 L-4.6 98.4 Q-2.8 98.45 -1.6 97.9 L-1.35 97.2 Q-1.15 96.45 -1.4 96.0 L-1.6 95.75 -7.3 95.75 -8.6 95.75 Q-9.05 96.35 -8.8 97.15 -8.55 97.95 -7.8 98.25 L-6.95 98.3 M-6.85 99.45 L-8.4 99.35 -8.65 99.9 -8.75 100.2 -8.8 100.3 -8.8 100.35 -9.05 101.45 -8.5 102.25 -8.45 102.3 -8.4 102.3 -8.05 102.45 -7.5 102.55 -7.25 102.6 -6.5 102.6 -3.8 102.55 Q-2.25 102.4 -1.25 101.8 L-1.1 101.15 -1.1 100.7 -1.1 100.65 -1.15 100.55 -1.15 100.45 Q-1.35 99.9 -1.8 99.75 L-6.85 99.45 M-6.75 105.9 L-4.55 105.95 -1.25 105.65 Q-0.7 105.25 -1.1 104.65 L-1.55 104.15 -1.8 103.65 -6.95 103.65 -8.4 103.65 -8.7 104.0 -8.75 104.45 -8.6 105.0 -8.2 105.4 -8.15 105.45 -7.8 105.65 -7.35 105.8 -6.75 105.9 M-6.85 107.0 L-8.05 106.95 -8.7 109.1 -8.45 109.6 -8.1 109.9 -7.3 110.55 -7.1 110.55 -3.9 110.9 Q-1.95 110.9 -1.05 109.6 -0.55 109.15 -0.9 108.55 L-0.95 108.4 -1.7 107.2 -6.85 107.0" fill="#333333" fill-rule="evenodd" stroke="none"/>
    <path d="M-12.25 -1.2 L-11.3 -2.0 Q-12.0 -2.05 -12.1 -3.05 L-11.85 -3.65 -9.05 -6.0 Q-8.0 -6.9 -6.75 -7.5 L-3.4 -8.75 Q-4.35 -9.95 -5.85 -10.45 L-5.7 -10.65 -5.9 -10.45 -10.5 -9.05 -10.6 -9.0 -12.65 -8.25 Q-14.3 -7.6 -14.45 -5.8 L-14.5 -4.45 -14.65 -4.45 -14.65 -4.15 Q-14.6 -1.4 -15.05 -0.25 L-12.25 -1.2 M-31.25 134.2 L-31.6 134.45 Q-32.45 134.35 -32.8 133.45 L-33.25 131.8 Q-33.4 130.75 -31.85 129.65 -30.4 128.6 -30.6 127.45 -29.4 126.9 -28.0 125.45 -26.45 123.8 -25.5 123.25 L-23.6 120.45 -21.95 117.5 Q-19.9 113.9 -17.35 112.35 -16.55 111.6 -16.8 109.45 -17.15 107.35 -16.35 106.65 L-14.55 105.75 -13.05 104.45 Q-12.5 101.5 -13.5 95.9 -14.55 90.25 -14.0 87.45 L-14.35 87.75 -14.8 87.8 Q-15.4 87.35 -15.7 85.45 -16.0 83.85 -17.25 83.55 -19.95 82.4 -20.5 80.45 -20.45 76.3 -18.7 69.75 L-16.15 63.2 -15.9 61.0 -15.35 58.75 Q-14.75 56.1 -15.7 54.55 L-15.9 49.6 -15.85 47.6 -16.2 46.75 Q-16.6 43.85 -16.25 40.9 L-15.8 35.0 -15.45 33.05 Q-17.3 31.35 -17.95 28.85 -18.9 25.25 -18.85 21.5 L-18.6 14.15 -18.25 12.6 -18.3 12.5 -18.7 9.2 -18.85 9.4 -19.25 8.9 -19.3 7.1 Q-19.35 5.8 -18.85 5.2 -18.25 4.8 -18.1 4.0 L-18.0 2.45 Q-18.0 0.45 -16.15 0.2 L-16.35 -3.1 -16.35 -4.45 -16.35 -4.7 -15.9 -7.35 Q-15.2 -9.75 -12.75 -10.55 L-6.3 -12.2 Q-5.75 -12.05 -5.55 -11.75 L-5.55 -11.8 Q-4.05 -11.65 -3.0 -10.45 L-2.1 -9.1 -1.85 -8.1 -1.85 -7.65 Q-2.4 -7.9 -3.0 -7.65 L-5.6 -6.5 -5.85 -6.65 -6.15 -6.45 Q-6.4 -6.3 -6.6 -6.25 L-7.65 -5.3 -8.4 -4.45 -8.45 -4.45 -8.85 -4.25 -10.45 0.15 Q-11.3 2.7 -11.35 4.75 L-10.8 4.85 -10.75 4.85 Q-3.2 5.95 4.15 2.0 7.25 0.3 10.05 -2.1 L11.5 -0.8 10.7 -2.6 10.7 -3.2 10.8 -3.4 10.9 -3.4 10.95 -3.45 11.25 -3.4 12.0 -2.75 12.3 -2.45 14.0 0.2 Q14.6 1.8 14.8 3.55 L14.6 4.55 Q14.4 9.15 13.15 13.55 L12.25 16.2 12.05 16.85 Q10.95 18.65 10.6 21.35 6.4 34.1 7.0 47.2 L6.25 50.15 Q5.55 52.1 5.4 53.1 6.3 53.45 6.6 54.45 6.8 55.3 6.5 56.25 L6.35 57.15 5.8 58.05 Q5.2 59.1 6.5 59.45 7.5 59.7 7.65 60.2 6.25 62.9 7.75 66.25 L9.0 69.0 Q9.7 70.6 9.85 71.9 11.6 75.1 11.2 79.1 9.6 80.2 9.85 83.05 L9.95 85.25 Q9.85 86.4 9.2 87.2 7.7 87.7 7.7 89.75 L7.8 91.5 7.75 93.1 8.45 101.35 Q8.85 106.15 9.85 109.1 12.5 110.65 12.55 114.55 L12.35 117.95 12.2 121.1 Q11.6 121.75 12.3 122.75 L13.4 124.55 Q13.75 125.55 13.35 126.85 L12.6 129.0 Q11.95 130.0 10.45 130.4 8.55 130.9 8.05 131.2 L7.0 130.45 Q6.25 131.15 5.75 132.75 L-0.45 136.55 Q-4.15 138.8 -6.85 139.8 L-12.85 140.05 -19.15 139.45 Q-24.85 138.8 -30.5 136.35 L-30.55 134.4 -30.8 129.65 Q-32.1 130.15 -32.5 131.0 L-32.5 132.7 Q-32.3 133.55 -31.4 133.7 L-31.25 134.2 M-0.4 5.5 L-5.05 6.35 -11.2 5.95 -11.2 6.75 Q-12.05 8.05 -11.25 9.55 -11.5 10.4 -11.35 11.25 L-11.5 11.1 Q-11.9 14.6 -12.45 16.55 L-12.4 16.65 -12.6 17.85 -12.7 18.4 Q-12.95 19.05 -12.6 19.55 L-12.35 22.4 -12.0 24.2 -11.5 25.85 -10.35 26.8 -8.6 27.45 -7.7 27.55 -7.65 27.55 -6.95 27.65 Q-6.7 28.05 -5.9 27.9 L-5.55 27.9 -4.95 27.85 -3.0 28.05 -2.8 28.05 -2.0 28.2 -1.75 28.3 0.15 27.55 Q1.55 21.35 2.3 10.65 2.3 9.35 2.85 7.4 L3.15 6.55 3.2 6.15 3.75 3.95 2.75 4.4 Q2.55 4.45 2.45 4.6 L1.35 4.4 1.3 4.4 Q0.9 4.55 0.65 4.9 L0.55 5.0 Q0.0 5.15 -0.4 5.5 M-12.15 0.05 L-14.6 1.0 -16.6 2.25 Q-17.4 3.15 -17.15 4.55 L-16.05 4.4 Q-15.45 3.9 -15.05 3.95 L-14.4 6.35 Q-14.1 7.95 -15.05 8.75 L-16.15 8.95 -17.15 9.1 Q-17.3 9.75 -16.95 11.0 -16.65 12.15 -16.8 12.65 -17.1 13.7 -15.7 14.3 -13.95 14.95 -13.7 15.6 L-13.0 12.95 Q-12.6 11.35 -11.95 10.45 -12.6 9.8 -12.7 9.15 L-12.75 7.55 Q-11.95 6.4 -12.2 3.75 -12.4 0.8 -12.15 0.05 M-15.65 5.9 Q-15.9 5.05 -16.6 5.5 -18.0 5.35 -18.05 6.3 L-18.05 8.1 -16.8 8.0 -15.55 7.85 -15.55 7.35 -15.65 5.9 M7.8 8.45 L9.7 10.0 Q11.2 11.45 11.05 13.0 L11.75 10.4 8.85 5.45 Q8.1 5.55 7.45 5.9 L6.8 7.6 7.8 8.45 M9.55 4.95 L10.45 5.3 Q11.45 6.0 12.05 7.3 L12.25 7.8 12.5 5.3 12.55 2.6 12.45 2.85 Q11.75 4.7 10.15 5.2 L9.55 4.95 M-5.7 81.5 L-2.8 82.0 Q-1.1 82.15 1.2 80.85 L4.95 78.8 5.7 78.45 Q6.4 77.85 7.6 77.6 7.0 73.2 4.7 69.2 L3.6 67.65 Q2.6 66.55 2.65 65.1 0.6 65.25 -0.2 63.35 -0.95 61.6 0.5 60.2 L3.15 57.75 3.2 57.2 Q2.95 56.6 3.05 55.9 1.1 55.15 -0.1 53.45 -0.4 53.0 -0.35 52.4 -0.25 51.35 0.55 50.7 L3.6 50.0 3.85 49.95 Q4.2 46.4 5.35 43.05 5.45 39.0 6.05 34.75 L5.25 33.1 Q4.35 31.65 4.6 29.9 5.15 25.3 7.35 21.1 8.45 19.0 8.35 16.65 8.25 14.8 9.7 13.55 L10.25 13.15 Q9.55 12.05 8.05 10.7 L6.3 8.9 Q5.25 11.7 4.65 14.65 L3.5 19.3 3.45 19.8 Q3.15 26.4 0.5 29.9 -2.9 30.9 -4.2 30.65 L-4.2 30.75 -4.4 30.55 Q-4.55 30.4 -4.75 30.4 L-6.1 29.95 Q-8.2 29.0 -10.5 29.3 L-10.55 29.3 -10.65 29.4 -10.75 29.4 -11.0 29.0 Q-12.25 28.35 -12.9 27.3 L-13.45 28.6 Q-13.3 29.55 -13.5 30.55 L-13.7 31.6 -13.55 32.75 -13.7 33.2 -13.7 33.25 -13.7 33.95 Q-14.0 35.45 -13.9 36.95 -13.8 39.9 -14.1 42.85 L-14.1 43.5 -13.7 44.35 -14.0 52.85 -14.0 53.55 -13.5 55.7 -13.1 56.6 -12.9 57.05 -12.6 57.75 Q-11.6 60.2 -12.6 61.75 L-13.15 60.2 Q-13.3 59.0 -13.7 58.7 -13.7 61.25 -14.5 64.15 L-16.3 69.1 -18.2 74.1 Q-19.1 76.9 -19.15 79.4 L-17.85 80.65 -16.7 82.2 Q-15.25 83.9 -13.7 82.65 L-14.0 82.65 Q-14.0 82.05 -13.0 81.8 L-11.35 81.45 -12.55 80.1 Q-13.25 79.2 -14.0 79.2 L-13.85 78.65 -13.75 78.5 -13.7 78.45 -13.65 78.45 Q-13.25 78.55 -12.55 78.8 L-10.75 79.5 -10.5 79.6 -9.4 80.05 Q-8.85 80.25 -8.25 80.55 L-8.2 80.55 -6.45 81.25 -5.7 81.5 M-10.5 45.9 L-11.35 45.8 -11.35 45.55 -11.35 45.25 -10.6 45.85 -10.5 45.9 M-6.75 56.8 L-6.7 56.7 -4.2 52.2 -5.5 56.95 Q-6.55 59.5 -8.6 60.9 L-9.8 60.9 Q-8.6 59.8 -7.45 58.0 L-6.75 56.8 M-13.8 24.8 L-14.15 20.3 Q-14.25 18.7 -13.85 17.2 L-14.3 16.85 Q-15.15 16.25 -17.15 16.2 L-17.05 17.05 Q-17.7 19.1 -17.6 21.25 -17.45 25.0 -16.65 28.6 -16.3 30.1 -15.4 31.25 L-15.3 30.7 -15.0 29.25 -14.9 29.1 -14.85 29.0 -14.8 28.7 -14.45 28.4 Q-13.85 27.6 -13.85 26.6 L-13.8 26.2 Q-13.6 25.4 -13.85 24.95 L-13.8 24.85 -13.75 24.9 -13.8 24.8 M-9.05 62.75 L-7.35 61.65 Q-6.3 60.85 -5.6 60.9 -7.35 62.9 -9.05 63.2 L-9.05 62.75 M-8.2 138.05 Q-5.55 138.0 -2.5 136.3 L0.35 134.45 Q2.1 133.4 3.3 132.9 L5.4 129.35 Q6.2 128.95 7.05 129.35 L8.4 130.25 10.0 129.85 11.55 129.0 Q12.25 127.95 11.8 126.3 L11.05 123.55 10.45 123.55 Q3.25 128.85 -3.35 131.2 L-6.15 128.75 -8.0 127.15 Q-10.7 124.8 -13.25 124.55 L-19.2 123.85 -25.15 124.0 -27.3 126.65 Q-28.7 128.25 -30.05 127.8 L-29.35 131.75 -29.25 133.7 Q-29.25 134.75 -29.4 135.7 -19.85 139.1 -9.05 138.05 L-8.2 138.05 M10.65 120.35 Q10.85 119.6 11.2 119.25 11.65 116.75 10.8 114.55 9.95 112.3 7.95 111.0 8.05 107.85 7.0 99.9 6.0 92.75 6.5 88.25 5.6 87.25 4.0 86.85 L1.3 86.8 1.05 86.85 2.4 88.3 2.5 88.45 2.75 89.4 2.15 92.35 2.1 92.4 2.05 92.45 2.8 94.8 Q1.9 95.9 2.3 97.95 2.7 100.1 2.05 101.2 2.55 101.75 2.5 102.45 L2.05 103.65 Q1.25 105.25 2.3 106.1 1.8 106.95 2.4 108.4 2.95 109.85 2.65 110.55 L2.45 111.2 2.4 111.25 2.35 111.4 1.5 112.45 0.65 113.0 2.3 113.9 3.3 115.15 4.2 116.25 Q-1.1 121.95 -4.85 126.7 L-3.25 128.55 Q-2.6 129.05 -1.6 128.75 L0.0 128.25 1.65 127.15 Q2.7 126.4 3.45 126.25 L5.9 124.6 8.3 122.65 Q9.85 123.05 10.3 121.65 L10.65 120.35 M-7.1 83.45 L-8.55 82.55 Q-10.3 81.6 -11.5 82.8 -11.7 83.3 -12.4 83.6 L-13.6 84.05 Q-15.05 84.5 -14.5 85.9 -13.5 86.5 -12.25 86.4 L-12.25 86.1 -10.85 84.6 Q-9.9 83.8 -9.05 84.2 -8.15 84.55 -8.25 85.15 L-5.4 85.35 Q-3.75 85.35 -2.8 84.65 L-1.05 84.4 -0.4 84.55 -0.85 84.4 -1.2 83.75 -1.3 83.5 Q-3.5 84.2 -5.6 84.1 L-7.1 83.45 M-8.0 87.4 L-7.95 87.4 -8.0 87.45 -8.0 87.4 M-9.6 86.4 L-9.6 86.5 -10.4 87.4 -10.75 88.3 -10.8 88.75 Q-11.1 88.85 -11.2 89.2 L-11.5 90.1 -11.05 91.05 -11.15 91.55 -11.25 92.65 -11.25 92.75 -11.3 92.9 Q-11.5 93.25 -11.35 93.7 L-11.15 93.9 -10.9 96.2 Q-11.4 96.95 -10.85 97.5 L-10.85 97.9 -10.9 98.95 -10.9 99.7 -11.2 99.95 Q-11.65 100.45 -11.7 101.2 L-11.35 102.05 -11.15 103.85 -11.2 103.8 -11.2 103.85 -11.35 104.55 -11.3 104.9 -11.1 105.1 -10.95 106.8 -10.95 106.95 -11.0 107.25 Q-11.7 108.35 -11.5 109.4 -10.6 110.85 -9.65 110.95 L-9.6 110.95 -9.45 111.05 -9.2 111.1 -8.3 111.1 -3.15 111.25 -3.05 111.4 -2.15 111.9 -2.1 111.95 Q-1.75 112.35 -1.25 112.15 L-1.45 112.2 -1.2 112.2 -0.9 112.0 Q-0.25 111.7 0.0 111.75 0.6 111.75 1.05 110.8 L1.3 109.75 Q1.35 109.2 0.95 108.75 L0.75 108.95 0.6 107.6 0.55 107.4 0.55 107.1 0.95 106.1 0.7 105.8 Q0.55 105.55 0.35 105.65 L0.6 105.65 0.7 104.0 0.75 103.55 0.75 103.4 0.75 103.35 0.9 102.3 0.5 101.8 0.7 100.2 Q1.05 99.25 0.95 98.1 L0.85 98.1 0.6 96.95 0.75 96.25 0.75 96.2 1.3 94.35 Q1.2 93.75 0.5 93.6 L0.5 93.25 0.5 92.0 1.05 91.2 Q1.5 90.45 1.4 89.7 1.55 88.9 0.7 88.5 L0.45 88.45 Q0.15 87.55 -0.55 87.05 L-0.5 86.55 -0.5 86.5 -0.55 86.4 -1.1 85.8 Q-1.6 85.35 -1.8 85.9 L-2.35 85.95 Q-2.75 85.95 -3.0 86.35 L-3.1 86.65 -3.25 86.85 -9.6 86.4 M-10.9 96.2 L-10.9 96.25 -10.9 96.2 M-9.65 112.65 L-9.85 112.3 Q-10.25 111.7 -11.05 111.85 L-11.05 111.75 -11.0 111.75 -12.25 110.65 Q-12.8 110.05 -12.8 109.2 L-12.75 107.55 -12.3 106.65 -12.25 106.6 -12.2 106.25 Q-12.2 106.0 -12.45 105.9 -13.9 106.05 -14.3 106.8 -14.65 107.3 -14.4 108.4 L-14.0 110.25 Q-13.95 111.25 -14.5 111.9 -17.0 113.2 -19.25 116.2 L-22.85 121.55 -21.6 121.7 -21.55 121.6 Q-21.6 122.25 -20.9 122.5 L-20.25 122.55 -20.25 122.65 -19.45 122.75 -16.95 123.0 -16.95 122.8 -16.85 122.85 -16.2 122.95 -16.0 122.95 -16.05 123.0 Q-11.8 122.9 -6.5 126.35 L-2.45 121.35 Q0.0 118.35 2.05 116.75 L2.5 116.25 2.4 115.65 1.7 114.55 Q-2.65 112.8 -5.25 112.7 L-5.6 112.65 -6.45 112.6 -6.35 112.55 -8.1 112.55 -9.65 112.7 -9.65 112.65 M-9.05 92.75 L-9.0 92.75 -9.0 92.8 -9.05 92.75 M-8.2 105.4 L-8.6 105.0 -8.4 105.2 -8.2 105.4" fill="#000000" fill-rule="evenodd" stroke="none"/>
    <path d="M-10.6 -8.95 Q-12.15 -6.95 -12.25 -4.45 L-12.4 -3.05 -12.35 -1.2 -12.25 -1.2 -15.05 -0.25 Q-14.6 -1.4 -14.65 -4.15 L-14.65 -4.45 -14.5 -4.45 -14.45 -5.8 Q-14.3 -7.6 -12.65 -8.25 L-10.6 -9.0 -10.6 -8.95 M-1.85 -8.1 L-0.85 -8.3 1.55 -8.5 Q5.4 -8.35 7.9 -5.7 L7.3 -5.95 9.15 -5.05 8.7 -4.8 7.1 -4.0 6.95 -3.85 Q5.4 -2.3 3.55 -1.15 -1.75 2.15 -7.75 4.0 L-10.75 4.85 -10.8 4.85 -11.35 4.75 Q-11.3 2.7 -10.45 0.15 L-8.85 -4.25 -8.45 -4.45 -8.4 -4.45 -7.65 -5.3 -6.6 -6.25 Q-6.4 -6.3 -6.15 -6.45 L-5.85 -6.65 -5.6 -6.5 -3.0 -7.65 Q-2.4 -7.9 -1.85 -7.65 L-1.85 -8.1 M-12.15 0.05 Q-12.4 0.8 -12.2 3.75 -11.95 6.4 -12.75 7.55 L-12.7 9.15 Q-12.6 9.8 -11.95 10.45 -12.6 11.35 -13.0 12.95 L-13.7 15.6 Q-13.95 14.95 -15.7 14.3 -17.1 13.7 -16.8 12.65 -16.65 12.15 -16.95 11.0 -17.3 9.75 -17.15 9.1 L-16.15 8.95 -15.05 8.75 Q-14.1 7.95 -14.4 6.35 L-15.05 3.95 Q-15.45 3.9 -16.05 4.4 L-17.15 4.55 Q-17.4 3.15 -16.6 2.25 L-14.6 1.0 -12.15 0.05 M-11.25 9.55 Q-12.05 8.05 -11.2 6.75 L-11.2 5.95 -5.05 6.35 -0.4 5.5 -0.05 5.45 0.95 5.2 Q-0.05 6.05 -1.2 8.25 -2.35 10.35 -3.35 11.2 L-6.15 11.7 Q-7.75 12.05 -8.7 12.8 L-11.0 10.0 -11.15 9.75 -11.25 9.55 M-3.0 28.05 L-4.95 27.85 -5.55 27.9 -5.9 27.9 Q-6.7 28.05 -6.95 27.65 L-7.65 27.55 -7.7 27.5 -7.7 27.55 -8.6 27.45 -10.35 26.8 -11.5 25.85 -12.0 24.2 -12.35 22.4 -12.6 19.55 Q-12.95 19.05 -12.7 18.4 L-12.6 17.85 -12.4 16.65 -12.45 16.55 Q-11.9 14.6 -11.5 11.1 L-11.35 11.25 -10.7 11.9 -10.1 12.6 -8.4 13.75 -6.0 13.05 -3.5 12.3 Q-1.4 11.5 -0.4 10.0 L-0.05 9.45 -0.4 10.9 -1.2 14.0 Q-2.25 17.6 -2.55 21.25 L-3.1 24.7 Q-3.35 26.0 -3.2 27.2 L-3.0 26.35 -3.25 27.55 -2.65 27.0 -3.15 27.45 -3.0 28.05 M-15.65 5.9 L-15.55 7.35 -15.55 7.85 -16.8 8.0 -18.05 8.1 -18.05 6.3 Q-18.0 5.35 -16.6 5.5 -15.9 5.05 -15.65 5.9 M-13.8 24.85 L-13.85 24.95 Q-13.6 25.4 -13.8 26.2 L-13.85 26.6 Q-13.85 27.6 -14.45 28.4 L-14.8 28.7 -14.85 29.0 -14.9 29.1 -15.0 29.25 -15.3 30.7 -15.4 31.25 Q-16.3 30.1 -16.65 28.6 -17.45 25.0 -17.6 21.25 -17.7 19.1 -17.05 17.05 L-17.15 16.2 Q-15.15 16.25 -14.3 16.85 L-13.85 17.2 Q-14.25 18.7 -14.15 20.3 L-13.8 24.8 -13.8 24.85 M-6.15 128.75 L-3.35 131.2 Q3.25 128.85 10.45 123.55 L11.05 123.55 11.8 126.3 Q12.25 127.95 11.55 129.0 L10.0 129.85 8.4 130.25 7.05 129.35 Q6.2 128.95 5.4 129.35 L3.3 132.9 Q2.1 133.4 0.35 134.45 L-2.5 136.3 Q-5.55 138.0 -8.2 138.05 L-8.0 136.6 -7.05 132.15 -6.15 128.75 M-21.2 133.55 L-20.55 133.5 Q-19.45 133.1 -18.75 132.1 -18.45 131.65 -18.45 131.15 -18.4 130.7 -18.7 130.35 L-19.35 129.85 -19.25 129.8 Q-18.15 129.75 -17.4 130.25 -16.5 130.75 -16.5 131.8 -16.25 132.65 -16.65 133.6 L-17.35 135.1 Q-18.55 136.2 -20.85 135.7 -21.85 135.15 -22.2 134.25 -22.55 133.45 -22.3 132.75 L-22.25 132.8 Q-21.9 133.45 -21.2 133.55 M-25.25 128.8 L-25.45 128.55 Q-24.3 128.65 -23.8 130.0 -24.0 132.7 -25.5 132.9 -26.25 133.1 -26.9 132.65 L-28.15 131.8 -28.3 130.85 -28.2 130.95 Q-27.45 131.65 -26.45 131.2 L-26.3 131.0 -25.7 130.55 Q-24.9 129.75 -25.25 128.8 M-10.9 131.45 Q-10.85 130.7 -11.35 130.45 -10.3 130.4 -9.8 131.65 -9.0 133.65 -9.95 134.9 L-11.15 135.75 -12.6 135.7 -13.85 134.8 -14.5 133.35 -14.2 132.45 -14.1 133.1 -13.5 133.6 -12.65 133.55 Q-11.65 133.2 -11.1 132.2 L-10.9 131.45" fill="#4e4e4e" fill-rule="evenodd" stroke="none"/>
    <path d="M-7.65 27.55 L-7.7 27.55 -7.7 27.5 -7.65 27.55" fill="#999966" fill-rule="evenodd" stroke="none"/>
    <path d="M-4.2 30.75 Q-3.25 31.9 -4.1 33.25 L-4.2 33.45 Q-4.45 35.65 -4.25 37.8 L-4.25 39.75 -4.65 41.1 -4.95 41.55 -5.05 41.6 -5.15 41.65 -5.4 43.05 Q-5.8 45.2 -7.75 46.25 L-9.8 46.15 -10.5 45.9 -10.6 45.85 -11.35 45.25 -11.55 44.6 Q-11.9 41.8 -11.45 38.95 L-11.1 37.2 -11.1 37.05 -11.0 35.3 -10.95 34.6 -10.9 34.35 -10.9 33.8 -10.75 32.4 -10.75 31.45 -10.9 31.2 Q-11.35 30.7 -11.2 30.05 L-10.8 29.4 -10.75 29.4 -10.65 29.4 -10.55 29.3 -10.5 29.3 Q-8.2 29.0 -6.1 29.95 L-4.75 30.4 Q-4.55 30.4 -4.4 30.55 L-4.2 30.75 M-14.0 52.85 L-13.95 52.4 -13.5 51.45 -12.8 50.75 -11.4 50.45 Q-6.95 51.7 -6.75 56.5 L-6.75 56.8 -7.45 58.0 -7.8 58.2 Q-10.4 59.65 -12.6 57.6 L-12.7 57.5 -12.9 57.05 -13.1 56.6 -13.5 55.7 -14.0 53.55 -14.0 52.85 M-13.85 78.65 L-13.95 78.75 Q-16.8 76.8 -16.6 72.85 -16.5 70.85 -15.25 69.1 L-15.0 68.5 Q-14.3 65.4 -11.75 64.65 -8.3 65.95 -9.1 69.9 L-10.15 73.5 Q-9.3 74.55 -8.95 75.5 -7.75 74.75 -6.0 75.15 -2.45 76.35 -2.5 79.85 -2.5 81.3 -3.9 81.55 L-5.0 81.7 -5.7 81.5 -6.45 81.25 -8.2 80.55 -8.25 80.55 Q-8.85 80.25 -9.4 80.05 L-10.05 79.2 -10.5 79.6 -10.75 79.5 -12.55 78.8 Q-13.25 78.55 -13.65 78.45 L-13.7 78.45 -13.75 78.5 -13.85 78.65 M2.5 116.25 L2.05 116.75 Q0.0 118.35 -2.45 121.35 L-6.5 126.35 Q-11.8 122.9 -16.05 123.0 L-16.0 122.95 Q-14.85 120.45 -12.45 118.9 L-11.05 119.55 -9.6 119.35 Q-7.9 118.0 -8.4 116.6 L-8.85 116.0 Q-8.5 115.05 -7.4 114.15 L-6.5 113.5 -6.95 113.85 -4.85 114.15 -4.15 114.2 0.5 115.55 2.5 116.25 M-16.95 122.8 L-16.95 123.0 -19.45 122.75 -18.9 122.05 -18.1 120.9 Q-17.55 119.75 -16.6 118.85 L-13.4 115.75 -11.4 114.05 Q-9.45 113.45 -7.45 113.35 L-10.15 115.75 -9.55 116.75 Q-9.15 117.25 -9.35 117.8 -10.55 119.4 -11.5 118.45 -11.75 117.7 -12.45 117.8 -13.0 117.85 -13.5 118.45 L-15.6 120.55 Q-16.7 121.7 -16.95 122.8" fill="#424220" fill-rule="evenodd" stroke="none"/>
    <path d="M-30.55 134.4 L-31.25 134.2 -31.4 133.7 Q-32.3 133.55 -32.5 132.7 L-32.5 131.0 Q-32.1 130.15 -30.8 129.65 L-30.55 134.4 M-8.2 138.05 L-9.05 138.05 Q-19.85 139.1 -29.4 135.7 -29.25 134.75 -29.25 133.7 L-29.35 131.75 -30.05 127.8 Q-28.7 128.25 -27.3 126.65 L-25.15 124.0 -19.2 123.85 -13.25 124.55 Q-10.7 124.8 -8.0 127.15 L-6.15 128.75 -7.05 132.15 -8.0 136.6 -8.2 138.05 M-7.85 87.4 Q-7.5 87.2 -7.45 86.7 L-7.65 86.45 -7.85 86.4 -9.05 86.4 -9.2 86.7 -9.25 87.1 -9.5 87.0 -9.6 86.5 -9.6 86.4 -3.25 86.85 -2.6 87.0 -6.1 87.45 -7.85 87.4 M-7.75 88.65 L-2.35 88.25 -0.95 90.1 Q-0.8 91.1 -1.65 91.1 L-1.8 91.1 -3.15 91.2 -6.45 91.6 -7.75 91.45 Q-7.35 90.6 -7.65 89.65 L-7.6 89.55 Q-7.5 88.95 -7.75 88.65 M-8.25 92.9 L-6.95 92.9 -4.75 92.55 Q-2.35 92.2 -1.3 93.4 L-1.15 93.6 -1.05 93.7 Q-0.9 94.25 -1.25 94.5 L-1.5 94.6 -2.6 94.65 -6.1 94.75 -8.15 94.4 -7.95 94.4 -7.5 93.85 Q-7.25 93.25 -7.4 92.95 L-8.25 92.9 M-9.1 93.4 L-9.05 92.8 -9.0 92.8 -8.95 92.8 -9.05 92.9 -9.1 93.4 M-6.95 98.3 L-6.8 97.9 -6.75 97.35 Q-6.75 96.3 -7.3 95.75 L-1.6 95.75 -1.4 96.0 Q-1.15 96.45 -1.35 97.2 L-1.6 97.9 Q-2.8 98.45 -4.6 98.4 L-6.95 98.3 M-6.85 99.45 L-1.8 99.75 Q-1.35 99.9 -1.15 100.45 L-1.15 100.55 -1.1 100.65 -1.1 100.7 -1.1 101.15 -1.25 101.8 Q-2.25 102.4 -3.8 102.55 L-6.5 102.6 -7.25 102.6 Q-6.7 101.95 -6.9 101.0 L-6.9 100.4 -6.85 99.45 M-6.95 103.65 L-1.8 103.65 -1.55 104.15 -1.1 104.65 Q-0.7 105.25 -1.25 105.65 L-4.55 105.95 -6.75 105.9 -6.55 105.2 Q-6.4 104.1 -6.95 103.65 M-6.85 107.0 L-1.7 107.2 -0.95 108.4 -0.9 108.55 Q-0.55 109.15 -1.05 109.6 -1.95 110.9 -3.9 110.9 L-7.1 110.55 -7.05 110.4 Q-6.6 109.45 -6.85 108.4 L-6.85 108.3 Q-6.4 107.45 -6.85 107.0 M-26.05 129.1 Q-26.1 128.5 -26.75 128.65 L-26.95 128.75 -27.05 128.8 -27.55 129.15 -27.85 130.05 -27.65 130.35 Q-26.9 130.8 -26.35 130.15 -25.95 129.7 -26.05 129.1 M-21.15 130.5 L-21.6 131.15 -21.7 131.65 Q-21.6 132.55 -20.75 132.35 L-19.85 131.6 Q-19.55 131.3 -19.65 130.9 -19.75 130.15 -20.6 130.25 L-20.95 130.4 -21.15 130.5 M-25.25 128.8 Q-24.9 129.75 -25.7 130.55 L-26.3 131.0 -26.45 131.2 Q-27.45 131.65 -28.2 130.95 L-28.3 130.85 -28.15 131.8 -26.9 132.65 Q-26.25 133.1 -25.5 132.9 -24.0 132.7 -23.8 130.0 -24.3 128.65 -25.45 128.55 L-25.25 128.8 M-21.2 133.55 Q-21.9 133.45 -22.25 132.8 L-22.3 132.75 Q-22.55 133.45 -22.2 134.25 -21.85 135.15 -20.85 135.7 -18.55 136.2 -17.35 135.1 L-16.65 133.6 Q-16.25 132.65 -16.5 131.8 -16.5 130.75 -17.4 130.25 -18.15 129.75 -19.25 129.8 L-19.35 129.85 -18.7 130.35 Q-18.4 130.7 -18.45 131.15 -18.45 131.65 -18.75 132.1 -19.45 133.1 -20.55 133.5 L-21.2 133.55 M-12.8 130.6 Q-13.5 130.8 -13.6 131.55 L-13.55 131.9 Q-13.3 132.5 -12.65 132.25 L-12.2 131.75 Q-11.95 131.5 -12.0 131.2 -12.05 130.5 -12.8 130.6 M-10.9 131.45 L-11.1 132.2 Q-11.65 133.2 -12.65 133.55 L-13.5 133.6 -14.1 133.1 -14.2 132.45 -14.5 133.35 -13.85 134.8 -12.6 135.7 -11.15 135.75 -9.95 134.9 Q-9.0 133.65 -9.8 131.65 -10.3 130.4 -11.35 130.45 -10.85 130.7 -10.9 131.45" fill="#666666" fill-rule="evenodd" stroke="none"/>
    <path d="M-7.95 87.4 L-8.0 87.4 -9.25 87.1 -9.2 86.7 -9.05 86.4 -7.85 86.4 -7.65 86.45 -7.45 86.7 Q-7.5 87.2 -7.85 87.4 L-7.95 87.4 M-7.75 91.45 L-8.35 91.25 -8.45 91.25 -9.2 90.7 -9.35 90.55 -9.15 88.75 -7.75 88.65 Q-7.5 88.95 -7.6 89.55 L-7.65 89.65 Q-7.35 90.6 -7.75 91.45 M-8.15 94.4 L-9.15 93.85 -9.1 93.4 -9.05 92.9 -8.95 92.8 -8.25 92.9 -7.4 92.95 Q-7.25 93.25 -7.5 93.85 L-7.95 94.4 -8.15 94.4 M-7.3 95.75 Q-6.75 96.3 -6.75 97.35 L-6.8 97.9 -6.95 98.3 -7.8 98.25 Q-8.55 97.95 -8.8 97.15 -9.05 96.35 -8.6 95.75 L-7.3 95.75 M-7.25 102.6 L-7.5 102.55 -8.05 102.45 -8.4 102.3 -8.45 102.3 -8.5 102.25 -9.05 101.45 -8.8 100.35 -8.8 100.3 -8.75 100.2 -8.65 99.9 -8.4 99.35 -6.85 99.45 -6.9 100.4 -6.9 101.0 Q-6.7 101.95 -7.25 102.6 M-6.75 105.9 L-7.35 105.8 -7.8 105.65 -8.15 105.45 -8.2 105.4 -8.4 105.2 -8.6 105.0 -8.75 104.45 -8.7 104.0 -8.4 103.65 -6.95 103.65 Q-6.4 104.1 -6.55 105.2 L-6.75 105.9 M-7.1 110.55 L-7.3 110.55 -8.1 109.9 -8.45 109.6 -8.7 109.1 -8.05 106.95 -6.85 107.0 Q-6.4 107.45 -6.85 108.3 L-6.85 108.4 Q-6.6 109.45 -7.05 110.4 L-7.1 110.55 M-21.15 130.5 L-20.95 130.4 -20.6 130.25 Q-19.75 130.15 -19.65 130.9 -19.55 131.3 -19.85 131.6 L-20.75 132.35 Q-21.6 132.55 -21.7 131.65 L-21.6 131.15 -21.15 130.5 M-26.05 129.1 Q-25.95 129.7 -26.35 130.15 -26.9 130.8 -27.65 130.35 L-27.85 130.05 -27.55 129.15 -27.05 128.8 -26.95 128.75 -26.75 128.65 Q-26.1 128.5 -26.05 129.1 M-12.8 130.6 Q-12.05 130.5 -12.0 131.2 -11.95 131.5 -12.2 131.75 L-12.65 132.25 Q-13.3 132.5 -13.55 131.9 L-13.6 131.55 Q-13.5 130.8 -12.8 130.6" fill="#999999" fill-rule="evenodd" stroke="none"/>
    <path d="M-9.6 86.5 L-9.6 86.4 -9.6 86.5 M0.75 103.35 L0.75 103.4 0.7 103.5 0.75 103.35 M-11.2 103.85 L-11.2 103.8 -11.15 103.85 -11.2 103.85 M-9.05 92.8 L-9.05 92.75 -9.0 92.8 -9.05 92.8 M-2.15 111.9 L-2.1 111.9 -2.1 111.95 -2.15 111.9" fill="#54035a" fill-rule="evenodd" stroke="none"/>
    <path d="M0.75 103.4 L0.75 103.55 0.65 103.55 0.7 103.5 0.75 103.4 M-2.1 111.95 L-2.15 111.9 -2.1 111.95 M-11.0 107.25 L-10.95 106.95 -10.85 107.0 -11.0 107.25 M-10.9 96.2 L-10.9 96.25 -10.9 96.2 M-11.25 92.75 L-11.25 92.65 -11.15 92.65 -11.25 92.75" fill="#330000" fill-rule="evenodd" stroke="none"/>
    <path d="M-9.65 112.7 L-8.1 112.55 -6.35 112.55 -6.45 112.6 -5.6 112.65 -5.25 112.7 Q-2.65 112.8 1.7 114.55 L2.4 115.65 2.5 116.25 0.5 115.55 -4.15 114.2 -4.85 114.15 -6.95 113.85 -6.5 113.5 -7.4 114.15 Q-8.5 115.05 -8.85 116.0 L-8.4 116.6 Q-7.9 118.0 -9.6 119.35 L-11.05 119.55 -12.45 118.9 Q-14.85 120.45 -16.0 122.95 L-16.2 122.95 -16.85 122.85 -16.95 122.8 Q-16.7 121.7 -15.6 120.55 L-13.5 118.45 Q-13.0 117.85 -12.45 117.8 -11.75 117.7 -11.5 118.45 -10.55 119.4 -9.35 117.8 -9.15 117.25 -9.55 116.75 L-10.15 115.75 -7.45 113.35 Q-9.45 113.45 -11.4 114.05 L-13.4 115.75 -16.6 118.85 Q-17.55 119.75 -18.1 120.9 L-18.9 122.05 -19.45 122.75 -20.25 122.65 -20.25 122.55 -20.25 121.7 -18.65 119.55 -16.95 117.35 Q-14.9 114.85 -12.9 113.45 L-11.4 113.25 Q-10.55 112.85 -10.05 112.75 L-9.8 112.7 -9.65 112.7" fill="#666633" fill-rule="evenodd" stroke="none"/>
    <path d="M-1.2 112.2 L-1.45 112.2 -1.25 112.15 -1.2 112.2 M-9.65 112.65 L-9.65 112.7 -9.8 112.7 -9.65 112.65" fill="#400040" fill-rule="evenodd" stroke="none"/>
  </g>
</svg>
