<?xml version="1.0" encoding="UTF-8" standalone="no"?>
<svg xmlns:xlink="http://www.w3.org/1999/xlink" height="105.95px" width="35.5px" xmlns="http://www.w3.org/2000/svg">
  <g transform="matrix(1.0, 0.0, 0.0, 1.0, 9.45, 8.8)">
    <path d="M14.15 -0.05 L15.4 0.7 Q16.0 2.1 15.0 3.15 L16.55 4.25 Q17.05 4.85 16.7 5.6 L16.1 6.9 16.6 7.2 17.3 7.2 Q17.95 7.8 17.75 8.75 L17.3 10.35 18.85 11.15 Q19.65 11.65 19.5 12.65 18.2 13.55 19.05 14.85 L19.9 15.9 20.4 17.0 Q20.7 17.7 20.15 18.45 19.4 19.4 19.35 19.7 L20.6 20.7 21.85 21.85 Q22.3 22.65 21.5 23.75 20.65 24.9 20.9 25.6 21.75 25.8 22.7 26.7 L24.3 28.05 Q23.95 29.5 22.0 31.0 L23.7 33.15 Q24.3 34.2 23.55 35.25 L22.8 36.1 22.3 37.05 23.35 38.1 23.3 38.1 23.45 38.85 23.35 39.55 23.15 40.05 Q24.1 40.8 24.75 41.9 25.95 43.75 25.9 46.25 26.35 48.8 25.25 51.6 L22.75 56.25 Q20.55 56.45 20.7 58.7 L20.9 60.7 Q20.95 61.8 20.55 62.45 20.4 63.9 19.45 65.55 L17.55 68.35 Q17.4 68.8 18.05 69.15 18.8 69.45 18.9 69.9 18.55 71.75 18.85 74.4 L19.3 78.9 Q18.9 84.7 16.55 89.4 17.15 90.95 15.95 92.35 L14.9 93.45 14.0 94.65 Q13.1 95.0 11.25 94.3 L8.55 94.45 Q7.85 94.5 7.05 95.15 L5.75 96.35 Q4.1 97.75 2.65 96.7 L0.25 96.45 -0.3 96.0 -2.55 94.15 -4.8 91.4 Q-5.25 90.7 -5.9 90.4 L-6.2 89.1 -7.0 88.25 -6.75 87.8 -9.05 82.9 Q-9.65 81.6 -9.4 80.3 L-9.35 80.2 -9.4 80.2 -7.9 78.65 -7.5 78.2 -7.25 78.25 -5.75 77.6 Q-4.85 77.2 -4.5 76.6 -4.95 75.7 -4.05 75.2 L-2.7 74.35 -0.8 73.75 -0.75 73.8 0.0 73.45 0.45 73.25 0.85 73.05 0.9 73.0 2.5 72.05 Q4.15 70.7 3.1 68.5 L5.65 66.8 5.3 66.15 Q5.6 63.7 5.05 60.95 L3.75 56.25 Q2.3 55.2 1.4 53.55 0.4 51.8 0.2 50.0 -0.4 42.4 3.2 39.35 L3.8 39.05 Q2.45 38.25 2.2 36.75 2.2 36.3 2.5 35.8 L2.95 34.9 1.65 33.9 Q0.8 33.35 0.85 32.6 L1.65 30.8 0.35 30.2 Q-0.45 29.8 -0.55 29.1 L-0.5 28.15 -0.25 27.25 Q-1.75 26.8 -2.15 25.7 L-1.6 24.3 Q-1.3 23.45 -1.95 23.05 L-3.15 22.85 Q-3.8 22.7 -4.15 22.4 L-4.2 21.8 -4.1 20.55 -3.7 19.35 Q-3.65 19.0 -3.95 18.7 L-4.05 18.6 -4.15 18.55 -4.3 18.5 -4.3 18.45 -4.9 18.55 Q-5.0 18.05 -5.45 17.6 L-5.5 17.3 -5.1 15.65 Q-5.0 15.05 -5.5 14.7 L-5.55 14.65 -5.7 14.6 -5.75 14.55 -6.4 14.7 -6.45 14.65 -6.7 14.45 -6.95 13.4 -6.85 13.25 -6.55 12.8 -6.35 12.35 Q-6.0 12.05 -5.95 11.5 -5.95 10.95 -6.35 10.65 L-6.45 10.6 -6.6 10.55 -6.6 10.5 -7.65 10.65 -8.1 10.5 -8.25 9.4 -8.05 8.65 Q-6.65 7.65 -7.5 6.35 L-7.65 6.25 -8.3 6.1 -8.45 6.05 -8.55 6.05 -8.6 6.05 -8.95 5.55 -8.95 1.95 -8.95 1.9 -8.7 -0.1 -7.85 -2.95 Q-6.75 -5.8 -3.95 -7.1 L-3.85 -7.15 -2.7 -7.6 Q-0.5 -8.8 2.5 -8.75 L3.8 -8.7 Q3.95 -8.65 4.05 -8.55 L4.35 -8.35 4.0 -8.6 4.9 -8.3 4.15 -8.6 5.3 -8.65 5.4 -8.6 Q8.25 -7.8 10.6 -5.95 L10.55 -4.95 Q10.5 -4.1 11.35 -3.75 L12.9 -3.65 13.1 -2.6 13.15 -2.5 12.85 -2.05 12.6 -1.25 Q12.55 -1.0 12.65 -0.8 L12.75 -0.5 13.0 -0.25 14.05 -0.15 14.15 -0.05 M20.85 38.05 L20.8 38.0 21.05 36.6 Q21.05 35.95 21.65 35.25 L22.65 34.15 21.45 32.1 Q20.6 30.9 20.6 29.95 L22.65 28.05 Q20.2 26.2 19.85 24.8 19.6 24.3 19.85 23.7 L20.3 22.8 Q20.9 21.8 19.65 21.2 18.55 20.95 18.4 19.05 18.4 18.15 19.35 17.0 L18.05 15.1 Q17.3 13.9 17.95 13.1 17.95 12.5 16.9 11.55 L16.45 11.15 16.65 10.55 16.75 9.9 16.5 9.4 16.85 8.6 16.15 8.35 Q15.15 7.9 14.95 6.95 14.9 6.55 15.0 6.05 L15.0 6.0 15.0 5.95 15.0 5.85 15.05 5.75 15.1 5.6 15.1 5.45 15.15 5.35 15.3 5.15 14.05 4.1 14.3 4.3 Q14.65 3.8 14.5 3.2 L14.5 2.95 Q14.6 2.4 14.35 2.05 14.6 1.75 14.45 1.25 L14.0 0.8 13.4 0.75 11.95 0.65 11.6 -0.15 11.55 -0.15 11.45 -1.15 11.6 -2.6 11.2 -2.7 11.1 -2.75 10.65 -3.15 Q9.8 -3.65 9.45 -4.5 L9.25 -5.3 6.9 -6.4 4.15 -7.25 0.2 -7.15 -1.9 -6.55 -2.25 -6.35 -2.35 -6.25 -3.0 -6.8 -2.5 -6.35 -2.6 -6.3 Q-3.95 -5.65 -4.95 -4.5 -6.05 -3.2 -6.75 -1.6 -7.6 0.45 -8.1 2.6 L-8.1 2.7 -8.2 3.15 -8.4 2.85 -8.45 2.8 -8.2 5.1 -7.75 5.25 -7.15 5.6 Q-6.2 6.4 -6.25 7.6 -6.25 8.8 -7.0 9.7 L-6.1 9.9 Q-5.8 9.95 -5.65 10.2 L-5.3 10.85 Q-4.95 12.1 -5.5 13.35 -4.7 13.9 -4.4 14.8 L-4.15 15.35 Q-3.9 16.0 -3.9 16.7 L-2.9 17.6 -2.65 16.95 -3.3 19.15 Q-3.4 19.85 -2.95 20.2 L-2.9 20.3 -3.25 21.05 Q-2.15 20.85 -1.4 21.5 -0.8 21.95 -0.4 22.95 L-0.4 23.3 Q-0.4 24.25 -0.9 25.1 L0.3 25.55 Q1.0 25.8 1.15 26.45 L0.95 27.45 0.5 28.2 Q1.55 28.35 2.95 29.25 L2.8 30.85 2.4 32.35 Q2.6 32.65 3.6 33.0 4.45 33.25 4.55 33.95 L4.0 35.5 Q3.55 36.45 3.6 36.95 L4.8 37.5 Q5.45 37.75 5.5 38.35 L5.5 38.5 5.75 38.3 5.9 38.15 5.85 38.2 6.3 38.2 6.6 38.15 7.0 38.05 7.05 38.0 7.3 37.95 13.1 37.4 13.15 37.4 15.45 37.55 15.75 37.55 16.45 37.65 16.55 37.7 17.5 37.85 19.15 38.2 19.7 38.3 20.65 38.6 20.8 38.3 20.8 38.1 20.95 38.1 20.85 38.05 M9.3 39.05 L9.15 39.05 9.0 39.1 8.8 39.1 8.65 39.15 8.55 39.15 8.35 39.2 8.2 39.2 8.1 39.25 7.95 39.25 7.65 39.3 6.5 39.6 Q4.85 40.05 3.45 40.8 1.05 44.75 1.9 49.05 L2.95 52.55 Q3.75 54.5 5.3 55.15 L9.15 54.0 13.1 53.6 15.3 53.95 17.55 54.2 Q20.15 54.55 21.35 56.05 23.65 54.15 24.2 50.5 24.6 47.4 23.65 43.95 22.2 41.15 20.45 39.9 16.05 38.75 11.8 38.85 L9.3 39.05 M10.0 51.6 L9.75 50.75 9.35 48.25 9.3 45.55 Q9.5 43.2 10.15 41.05 L12.2 40.95 14.45 40.95 15.75 40.95 18.6 41.35 Q20.25 41.65 21.55 42.6 L22.0 44.1 22.45 46.9 22.45 49.45 Q22.25 51.3 21.3 53.05 L20.7 52.85 18.8 52.5 16.0 52.2 10.1 51.95 10.0 51.6 M11.4 67.1 L12.75 67.25 17.1 67.7 18.25 65.55 18.4 64.5 Q18.35 63.85 18.65 63.5 L18.9 57.1 Q16.15 55.85 12.55 55.9 L11.95 55.95 6.1 56.7 Q6.7 58.55 6.85 61.5 L6.85 66.35 8.45 66.5 8.6 66.55 11.4 67.1 M10.2 68.75 Q8.2 68.05 6.4 68.35 5.5 68.25 5.6 69.05 L5.75 69.7 5.75 70.35 Q4.6 72.55 1.95 74.0 L-2.9 75.95 Q-1.15 77.5 -1.0 81.15 L-0.75 81.25 Q0.0 82.55 1.55 81.9 0.8 82.2 1.0 83.3 1.25 84.6 1.0 85.05 L0.5 87.65 Q0.1 88.7 -1.7 88.15 -2.7 89.3 -2.9 91.4 -1.85 91.9 -1.1 93.1 L-1.05 93.2 -1.0 93.25 -0.85 93.5 -0.75 93.75 -0.55 94.1 -0.4 94.45 0.0 95.25 Q3.85 96.15 5.3 94.35 4.45 94.6 3.75 94.0 L3.85 93.25 Q4.85 94.9 6.9 93.9 L7.2 93.65 7.35 93.6 Q8.45 93.95 9.35 92.9 L9.95 92.25 10.35 91.95 10.2 92.1 Q9.8 92.55 10.1 93.15 10.85 94.65 12.4 93.65 L12.45 93.7 Q13.8 93.7 15.1 92.15 L15.1 89.4 Q17.1 86.4 17.65 82.3 17.95 79.3 17.5 76.35 L17.45 76.5 17.4 76.9 17.0 77.45 16.85 77.5 13.15 77.35 10.75 76.7 9.6 76.55 9.35 76.35 9.05 75.15 9.05 74.8 9.2 74.4 9.5 73.7 9.55 73.7 Q9.45 74.55 9.8 75.8 L10.3 75.8 11.45 76.0 11.65 76.1 13.5 76.7 13.6 76.7 16.05 76.6 16.35 76.55 16.4 76.4 16.55 76.25 16.8 75.95 16.8 74.7 17.0 74.7 16.9 74.4 16.85 73.9 16.95 73.95 16.95 73.9 Q16.8 73.4 17.0 72.95 L15.6 72.8 14.0 72.05 11.75 72.1 Q10.75 72.1 9.9 72.65 L10.05 72.2 11.35 71.45 11.55 71.4 11.7 71.35 14.65 71.5 16.45 71.85 16.6 71.95 17.35 72.35 17.65 71.45 Q17.9 70.55 17.3 70.05 L15.25 70.0 13.25 70.25 Q11.65 69.2 10.2 68.75 M17.3 73.0 L17.4 72.95 17.3 72.8 17.3 73.0 M-4.8 29.8 L-4.85 29.6 -4.8 29.75 -4.8 29.8 M-5.75 83.85 L-5.5 84.15 -4.9 85.05 -4.7 84.6 -4.35 84.25 -3.5 83.05 -2.8 81.9 Q-2.15 80.8 -2.65 79.55 -2.9 78.9 -3.9 77.5 -3.7 78.65 -4.55 79.6 L-4.65 79.75 -6.2 81.25 Q-7.15 82.15 -6.25 83.25 L-5.75 83.85 M-2.5 83.35 L-2.5 83.4 -2.55 83.4 -2.55 83.45 -3.3 84.6 -4.15 85.6 Q-4.15 86.2 -4.75 86.95 L-5.7 88.15 -4.85 88.85 -4.0 89.5 -3.55 88.75 -2.85 88.0 Q-2.15 87.1 -3.35 86.6 L-3.05 86.45 -2.0 86.5 -0.75 87.0 Q-0.6 86.2 -0.6 84.85 L-0.45 82.65 Q-1.55 82.15 -2.5 83.35" fill="#000000" fill-rule="evenodd" stroke="none"/>
    <path d="M14.15 -0.05 L14.05 -0.15 14.2 -0.2 14.15 -0.05 M-2.35 -6.25 L-2.25 -6.35 -1.9 -6.55 0.2 -7.15 4.15 -7.25 6.9 -6.4 9.25 -5.3 9.45 -4.5 Q9.8 -3.65 10.65 -3.15 L11.1 -2.75 11.2 -2.7 11.6 -2.6 11.45 -1.15 11.55 -0.15 11.6 -0.15 11.95 0.65 13.4 0.75 14.0 0.8 14.45 1.25 Q14.6 1.75 14.35 2.05 14.6 2.4 14.5 2.95 L14.5 3.2 Q14.65 3.8 14.3 4.3 L14.05 4.1 15.3 5.15 15.15 5.35 15.1 5.45 15.1 5.6 15.05 5.75 15.0 5.85 15.0 5.95 15.0 6.0 15.0 6.05 Q14.9 6.55 14.95 6.95 15.15 7.9 16.15 8.35 L16.85 8.6 16.5 9.4 16.75 9.9 16.65 10.55 16.45 11.15 16.9 11.55 Q17.95 12.5 17.95 13.1 17.3 13.9 18.05 15.1 L19.35 17.0 Q18.4 18.15 18.4 19.05 18.55 20.95 19.65 21.2 20.9 21.8 20.3 22.8 L19.85 23.7 Q19.6 24.3 19.85 24.8 20.2 26.2 22.65 28.05 L20.6 29.95 Q20.6 30.9 21.45 32.1 L22.65 34.15 21.65 35.25 Q21.05 35.95 21.05 36.6 L20.8 38.0 20.85 38.05 20.8 38.1 20.8 38.3 20.65 38.6 19.7 38.3 19.15 38.2 17.5 37.85 16.55 37.7 16.45 37.65 15.75 37.55 15.45 37.55 13.15 37.4 13.1 37.4 13.45 35.55 13.3 34.95 13.3 33.95 12.6 34.1 13.65 33.85 15.0 33.65 Q16.75 33.65 18.3 34.4 19.6 35.0 20.15 33.9 20.35 33.5 20.1 33.1 19.75 32.45 18.95 32.25 L17.8 31.9 17.35 31.8 15.5 31.65 15.5 31.6 13.2 31.75 13.1 30.85 13.0 30.1 15.55 30.0 18.3 30.1 Q19.65 30.3 19.65 29.0 L19.25 28.25 15.8 27.85 12.75 28.2 12.05 24.6 12.65 24.35 16.3 24.1 Q17.5 24.35 18.25 23.6 L18.3 23.3 Q17.9 22.2 16.7 22.05 L15.5 21.85 Q13.35 21.7 11.6 22.5 L10.7 19.1 10.65 18.85 Q12.35 18.2 14.1 17.8 L15.5 17.7 Q16.45 17.75 16.95 17.1 L16.9 16.7 Q16.1 16.05 15.0 16.0 L14.25 15.95 10.05 16.85 9.25 14.45 9.0 14.55 Q10.55 13.75 12.25 13.2 L14.2 13.1 Q15.1 13.3 15.4 12.6 15.6 12.2 15.25 11.9 14.55 11.3 13.7 11.2 11.3 11.15 9.1 12.15 L8.55 12.45 7.65 10.1 9.45 8.95 Q9.95 8.6 10.55 8.45 L12.85 8.2 Q13.8 7.55 12.85 6.85 L12.0 6.6 11.5 6.5 Q9.85 6.45 8.4 7.25 L6.85 8.1 6.8 8.15 6.6 7.65 5.7 6.25 5.6 6.35 5.6 6.25 5.7 6.25 5.65 6.2 5.6 6.2 5.6 6.05 5.4 5.05 6.8 4.15 Q7.95 3.55 9.25 3.3 L10.1 3.1 10.8 2.55 10.85 2.45 10.85 2.25 10.85 2.15 10.4 1.65 Q9.95 1.35 9.5 1.4 6.6 1.4 4.2 2.95 L2.4 0.1 5.35 -1.35 7.25 -1.8 Q8.35 -1.8 8.4 -2.65 7.95 -3.25 7.25 -3.35 L5.5 -3.6 Q3.2 -3.3 1.15 -2.1 L1.1 -2.05 -0.4 -4.15 Q1.2 -4.2 2.8 -5.05 L3.45 -5.3 Q3.85 -5.45 3.85 -5.85 3.9 -7.1 2.55 -7.15 0.3 -6.8 -1.35 -5.35 L-1.4 -5.3 -2.35 -6.25 M17.75 20.3 L17.65 20.25 17.7 20.35 17.75 20.3 M-8.4 2.85 L-6.15 6.7 -5.35 8.2 -4.55 9.7 Q-3.75 11.55 -3.6 13.5 -3.5 14.5 -2.7 15.25 L-2.55 15.45 -2.1 15.6 -2.3 16.1 Q-1.55 16.65 -1.25 17.75 L-1.0 18.2 Q0.95 20.2 0.9 22.95 2.35 24.05 3.35 25.5 L3.75 26.45 Q3.9 27.85 3.5 29.1 L4.35 29.95 Q6.35 32.25 5.15 34.95 L6.05 36.0 6.9 36.9 6.95 37.25 7.3 37.95 7.05 38.0 7.0 38.05 6.6 38.15 6.3 38.2 5.85 38.2 5.9 38.15 5.75 38.3 5.5 38.5 5.5 38.35 Q5.45 37.75 4.8 37.5 L3.6 36.95 Q3.55 36.45 4.0 35.5 L4.55 33.95 Q4.45 33.25 3.6 33.0 2.6 32.65 2.4 32.35 L2.8 30.85 2.95 29.25 Q1.55 28.35 0.5 28.2 L0.95 27.45 1.15 26.45 Q1.0 25.8 0.3 25.55 L-0.9 25.1 Q-0.4 24.25 -0.4 23.3 L-0.4 22.95 Q-0.8 21.95 -1.4 21.5 -2.15 20.85 -3.25 21.05 L-2.9 20.3 -2.95 20.2 Q-3.4 19.85 -3.3 19.15 L-2.65 16.95 -2.9 17.6 -3.9 16.7 Q-3.9 16.0 -4.15 15.35 L-4.4 14.8 Q-4.7 13.9 -5.5 13.35 -4.95 12.1 -5.3 10.85 L-5.65 10.2 Q-5.8 9.95 -6.1 9.9 L-7.0 9.7 Q-6.25 8.8 -6.25 7.6 -6.2 6.4 -7.15 5.6 L-7.75 5.25 -8.2 5.1 -8.45 2.8 -8.4 2.85 M10.2 68.75 Q11.65 69.2 13.25 70.25 L15.25 70.0 17.3 70.05 Q17.9 70.55 17.65 71.45 L17.35 72.35 16.6 71.95 16.45 71.85 14.65 71.5 11.7 71.35 11.55 71.4 11.35 71.45 10.05 72.2 10.35 69.9 10.2 68.75 M16.4 76.4 L16.35 76.55 16.05 76.6 16.4 76.4 M9.55 73.7 L9.5 73.7 9.55 73.5 9.55 73.7 M9.05 74.8 L9.05 75.15 9.35 76.35 9.6 76.55 10.75 76.7 13.15 77.35 16.85 77.5 17.0 77.45 17.4 76.9 17.45 76.5 17.5 76.35 Q17.95 79.3 17.65 82.3 17.1 86.4 15.1 89.4 L15.1 92.15 Q13.8 93.7 12.45 93.7 L12.4 93.65 12.5 93.6 Q13.45 92.95 13.7 91.9 13.9 90.9 13.65 90.3 L13.45 89.1 Q12.9 87.85 11.45 88.1 10.6 88.5 10.0 89.2 8.8 90.5 9.65 92.0 L9.95 92.25 9.35 92.9 Q8.45 93.95 7.35 93.6 L7.2 93.65 Q8.1 92.65 8.35 91.35 8.55 90.3 8.15 89.7 8.1 89.15 7.65 88.7 L7.35 88.3 Q6.5 87.2 5.05 87.2 4.55 87.25 4.15 87.45 L4.4 86.7 Q6.6 80.7 9.05 74.8 M3.85 93.25 L3.75 94.0 Q4.45 94.6 5.3 94.35 3.85 96.15 0.0 95.25 L-0.4 94.45 0.05 94.25 2.35 91.05 Q2.55 91.8 3.05 92.45 3.35 92.85 3.75 93.0 L3.85 93.25" fill="#4e4e4e" fill-rule="evenodd" stroke="none"/>
    <path d="M-2.35 -6.25 L-1.4 -5.3 Q-2.05 -4.7 -1.2 -4.3 L-0.6 -4.15 -0.4 -4.15 1.1 -2.05 0.25 -1.6 Q-1.15 -0.8 -1.25 0.7 L-1.1 1.1 -0.9 1.25 -0.5 1.3 Q0.1 1.3 0.4 0.8 L2.4 0.1 4.2 2.95 3.75 3.25 2.25 4.6 1.15 6.5 Q0.95 7.0 1.35 7.4 L3.1 7.3 Q4.1 6.0 5.4 5.05 L5.6 6.05 5.6 6.2 5.5 6.25 5.6 6.25 5.6 6.35 5.7 6.25 6.6 7.65 6.8 8.15 Q5.9 8.6 5.25 9.4 L5.05 9.75 Q4.7 10.0 4.65 10.4 4.5 10.95 5.05 11.25 L5.5 11.25 5.5 11.2 5.95 10.9 6.0 10.85 7.65 10.1 8.55 12.45 Q7.2 13.05 5.95 13.8 4.7 14.55 4.2 15.75 L4.2 16.15 4.5 16.6 Q5.6 16.85 6.55 16.05 L7.7 15.2 7.85 15.15 Q8.4 14.8 9.0 14.55 L9.25 14.45 10.05 16.85 8.6 17.35 Q7.05 17.95 5.8 19.1 5.6 19.25 5.65 19.55 5.8 20.85 7.15 20.25 L8.5 19.65 8.65 19.6 9.9 19.1 10.65 18.85 10.7 19.1 11.6 22.5 Q10.7 22.85 9.9 23.45 L9.05 24.0 Q8.55 24.3 8.35 24.75 8.2 25.15 8.45 25.4 L8.7 25.6 11.5 24.75 11.7 24.7 12.05 24.6 12.75 28.2 11.95 28.5 11.2 28.9 Q10.65 29.2 10.95 29.7 11.25 30.15 11.8 30.15 L13.0 30.1 13.1 30.85 13.2 31.75 Q11.95 31.95 10.8 32.55 10.45 32.7 10.25 33.0 L10.1 33.3 10.05 33.35 9.95 33.45 9.9 33.55 9.85 33.6 9.85 33.7 9.85 33.75 9.85 33.85 9.9 33.9 10.0 34.05 10.1 34.1 10.25 34.15 10.45 34.1 10.55 34.1 12.6 34.1 13.3 33.95 13.3 34.95 13.45 35.55 13.1 37.4 7.3 37.95 6.95 37.25 6.9 36.9 6.05 36.0 5.15 34.95 Q6.35 32.25 4.35 29.95 L3.5 29.1 Q3.9 27.85 3.75 26.45 L3.35 25.5 Q2.35 24.05 0.9 22.95 0.95 20.2 -1.0 18.2 L-1.25 17.75 Q-1.55 16.65 -2.3 16.1 L-2.1 15.6 -2.55 15.45 -2.7 15.25 Q-3.5 14.5 -3.6 13.5 -3.75 11.55 -4.55 9.7 L-5.35 8.2 -6.15 6.7 -8.4 2.85 -8.2 3.15 -8.1 2.7 -8.1 2.6 Q-7.6 0.45 -6.75 -1.6 -6.05 -3.2 -4.95 -4.5 -3.95 -5.65 -2.6 -6.3 L-2.5 -6.35 -3.0 -6.8 -2.35 -6.25 M0.15 19.25 L0.1 19.35 0.15 19.25 0.25 19.2 0.2 19.15 0.15 19.25 M17.3 73.0 L17.3 72.8 17.4 72.95 17.3 73.0 M3.9 81.55 Q4.0 85.05 1.75 86.25 L1.55 86.25 2.35 83.5 3.0 80.6 Q3.3 80.6 3.6 80.9 L3.9 81.55" fill="#333333" fill-rule="evenodd" stroke="none"/>
    <path d="M-1.4 -5.3 L-1.35 -5.35 Q0.3 -6.8 2.55 -7.15 3.9 -7.1 3.85 -5.85 3.85 -5.45 3.45 -5.3 L2.8 -5.05 Q1.2 -4.2 -0.4 -4.15 L-0.6 -4.15 -1.2 -4.3 Q-2.05 -4.7 -1.4 -5.3 M1.1 -2.05 L1.15 -2.1 Q3.2 -3.3 5.5 -3.6 L7.25 -3.35 Q7.95 -3.25 8.4 -2.65 8.35 -1.8 7.25 -1.8 L5.35 -1.35 2.4 0.1 0.4 0.8 Q0.1 1.3 -0.5 1.3 L-0.9 1.25 -1.1 1.1 -1.25 0.7 Q-1.15 -0.8 0.25 -1.6 L1.1 -2.05 M4.2 2.95 Q6.6 1.4 9.5 1.4 9.95 1.35 10.4 1.65 L10.85 2.15 10.85 2.25 10.85 2.45 10.8 2.55 10.1 3.1 9.25 3.3 Q7.95 3.55 6.8 4.15 L5.4 5.05 Q4.1 6.0 3.1 7.3 L1.35 7.4 Q0.95 7.0 1.15 6.5 L2.25 4.6 3.75 3.25 4.2 2.95 M6.8 8.15 L6.85 8.1 8.4 7.25 Q9.85 6.45 11.5 6.5 L12.0 6.6 12.85 6.85 Q13.8 7.55 12.85 8.2 L10.55 8.45 Q9.95 8.6 9.45 8.95 L7.65 10.1 6.0 10.85 5.95 10.9 5.5 11.2 5.5 11.25 5.05 11.25 Q4.5 10.95 4.65 10.4 4.7 10.0 5.05 9.75 L5.25 9.4 Q5.9 8.6 6.8 8.15 M8.55 12.45 L9.1 12.15 Q11.3 11.15 13.7 11.2 14.55 11.3 15.25 11.9 15.6 12.2 15.4 12.6 15.1 13.3 14.2 13.1 L12.25 13.2 Q10.55 13.75 9.0 14.55 8.4 14.8 7.85 15.15 L7.7 15.2 6.55 16.05 Q5.6 16.85 4.5 16.6 L4.2 16.15 4.2 15.75 Q4.7 14.55 5.95 13.8 7.2 13.05 8.55 12.45 M10.05 16.85 L14.25 15.95 15.0 16.0 Q16.1 16.05 16.9 16.7 L16.95 17.1 Q16.45 17.75 15.5 17.7 L14.1 17.8 Q12.35 18.2 10.65 18.85 L9.9 19.1 8.65 19.6 8.5 19.65 7.15 20.25 Q5.8 20.85 5.65 19.55 5.6 19.25 5.8 19.1 7.05 17.95 8.6 17.35 L10.05 16.85 M11.6 22.5 Q13.35 21.7 15.5 21.85 L16.7 22.05 Q17.9 22.2 18.3 23.3 L18.25 23.6 Q17.5 24.35 16.3 24.1 L12.65 24.35 12.05 24.6 11.7 24.7 11.5 24.75 8.7 25.6 8.45 25.4 Q8.2 25.15 8.35 24.75 8.55 24.3 9.05 24.0 L9.9 23.45 Q10.7 22.85 11.6 22.5 M12.75 28.2 L15.8 27.85 19.25 28.25 19.65 29.0 Q19.65 30.3 18.3 30.1 L15.55 30.0 13.0 30.1 11.8 30.15 Q11.25 30.15 10.95 29.7 10.65 29.2 11.2 28.9 L11.95 28.5 12.75 28.2 M13.2 31.75 L15.5 31.6 15.5 31.65 17.35 31.8 17.8 31.9 18.95 32.25 Q19.75 32.45 20.1 33.1 20.35 33.5 20.15 33.9 19.6 35.0 18.3 34.4 16.75 33.65 15.0 33.65 L13.65 33.85 12.6 34.1 10.55 34.1 10.45 34.1 10.25 34.15 10.1 34.1 10.0 34.05 9.9 33.9 9.85 33.85 9.85 33.75 9.85 33.7 9.85 33.6 9.9 33.55 9.95 33.45 10.05 33.35 10.1 33.3 10.25 33.0 Q10.45 32.7 10.8 32.55 11.95 31.95 13.2 31.75 M-0.4 94.45 L-0.55 94.1 -0.75 93.75 -0.85 93.5 -1.0 93.25 -1.05 93.2 -1.1 93.1 Q-1.85 91.9 -2.9 91.4 -2.7 89.3 -1.7 88.15 0.1 88.7 0.5 87.65 L1.0 85.05 Q1.25 84.6 1.0 83.3 0.8 82.2 1.55 81.9 0.0 82.55 -0.75 81.25 L-1.0 81.15 Q-1.15 77.5 -2.9 75.95 L1.95 74.0 Q4.6 72.55 5.75 70.35 L5.75 69.7 5.6 69.05 Q5.5 68.25 6.4 68.35 8.2 68.05 10.2 68.75 L10.35 69.9 10.05 72.2 9.9 72.65 9.8 72.7 Q9.6 73.05 9.55 73.5 L9.5 73.7 9.2 74.4 9.05 74.8 Q6.6 80.7 4.4 86.7 L4.15 87.45 Q4.55 87.25 5.05 87.2 6.5 87.2 7.35 88.3 L7.65 88.7 Q8.1 89.15 8.15 89.7 7.65 89.1 6.5 89.0 4.35 89.65 3.6 91.9 3.45 92.45 3.7 92.95 L3.75 93.0 Q3.35 92.85 3.05 92.45 2.55 91.8 2.35 91.05 L0.05 94.25 -0.4 94.45 M10.35 91.95 L9.95 92.25 9.65 92.0 Q8.8 90.5 10.0 89.2 10.6 88.5 11.45 88.1 12.9 87.85 13.45 89.1 L13.65 90.3 Q13.3 89.65 12.45 89.35 L12.05 89.45 Q11.05 89.9 11.05 91.1 L10.35 91.95 M3.9 81.55 L3.6 80.9 Q3.3 80.6 3.0 80.6 L2.35 83.5 1.55 86.25 1.75 86.25 Q4.0 85.05 3.9 81.55" fill="#666666" fill-rule="evenodd" stroke="none"/>
    <path d="M5.6 6.2 L5.65 6.2 5.7 6.25 5.6 6.25 5.5 6.25 5.6 6.2" fill="#414141" fill-rule="evenodd" stroke="none"/>
    <path d="M0.15 19.25 L0.2 19.15 0.25 19.2 0.15 19.25 0.1 19.35 0.15 19.25 M17.75 20.3 L17.7 20.35 17.65 20.25 17.75 20.3 M12.4 93.65 Q10.85 94.65 10.1 93.15 9.8 92.55 10.2 92.1 L10.35 91.95 11.05 91.1 Q11.05 89.9 12.05 89.45 L12.45 89.35 Q13.3 89.65 13.65 90.3 13.9 90.9 13.7 91.9 13.45 92.95 12.5 93.6 L12.4 93.65 M7.2 93.65 L6.9 93.9 Q4.85 94.9 3.85 93.25 L3.75 93.0 3.7 92.95 Q3.45 92.45 3.6 91.9 4.35 89.65 6.5 89.0 7.65 89.1 8.15 89.7 8.55 90.3 8.35 91.35 8.1 92.65 7.2 93.65" fill="#999999" fill-rule="evenodd" stroke="none"/>
    <path d="M6.5 39.6 L7.65 39.3 7.95 39.25 8.1 39.25 8.2 39.2 8.35 39.2 8.55 39.15 8.65 39.15 8.8 39.1 9.0 39.1 9.15 39.05 9.3 39.05 Q12.5 39.25 14.45 40.95 L12.2 40.95 10.15 41.05 Q9.5 43.2 9.3 45.55 L9.35 48.25 9.75 50.75 10.0 51.6 Q4.7 51.75 3.1 46.45 L3.0 46.05 2.9 44.95 2.9 44.85 2.9 44.6 2.95 44.2 2.95 44.15 Q3.25 41.25 5.4 39.95 L6.5 39.6 M11.4 67.1 L8.6 66.55 8.45 66.5 6.85 66.35 6.85 61.5 Q6.7 58.55 6.1 56.7 L11.95 55.95 12.4 60.1 Q12.85 63.8 11.9 67.15 L11.4 67.1 M9.15 56.6 Q7.4 58.45 7.6 61.3 7.65 61.95 8.1 62.45 9.9 64.4 11.05 62.1 L11.5 60.9 Q12.5 57.55 9.8 56.3 L9.15 56.6" fill="#54035a" fill-rule="evenodd" stroke="none"/>
    <path d="M20.8 38.1 L20.85 38.05 20.95 38.1 20.8 38.1 M9.3 39.05 L11.8 38.85 Q16.05 38.75 20.45 39.9 22.2 41.15 23.65 43.95 24.6 47.4 24.2 50.5 23.65 54.15 21.35 56.05 20.15 54.55 17.55 54.2 L15.3 53.95 13.1 53.6 9.15 54.0 5.3 55.15 Q3.75 54.5 2.95 52.55 L1.9 49.05 Q1.05 44.75 3.45 40.8 4.85 40.05 6.5 39.6 L5.4 39.95 Q3.25 41.25 2.95 44.15 L2.95 44.2 2.9 44.6 2.9 44.85 2.9 44.95 3.0 46.05 3.1 46.45 Q4.7 51.75 10.0 51.6 L10.1 51.95 16.0 52.2 18.8 52.5 20.7 52.85 21.3 53.05 Q22.25 51.3 22.45 49.45 L22.45 46.9 22.0 44.1 21.55 42.6 Q20.25 41.65 18.6 41.35 L15.75 40.95 14.45 40.95 Q12.5 39.25 9.3 39.05 M11.95 55.95 L12.55 55.9 Q16.15 55.85 18.9 57.1 L18.65 63.5 Q18.35 63.85 18.4 64.5 L18.25 65.55 17.1 67.7 12.75 67.25 11.4 67.1 11.9 67.15 Q12.85 63.8 12.4 60.1 L11.95 55.95" fill="#400040" fill-rule="evenodd" stroke="none"/>
    <path d="M9.15 56.6 L9.8 56.3 Q12.5 57.55 11.5 60.9 L11.05 62.1 Q9.9 64.4 8.1 62.45 7.65 61.95 7.6 61.3 7.4 58.45 9.15 56.6" fill="#663399" fill-rule="evenodd" stroke="none"/>
    <path d="M9.9 72.65 Q10.75 72.1 11.75 72.1 L14.0 72.05 15.6 72.8 17.0 72.95 Q16.8 73.4 16.95 73.9 L16.95 73.95 16.85 73.9 15.6 73.75 12.9 73.7 Q11.55 73.1 10.85 74.2 L10.7 74.25 10.55 74.45 10.55 74.6 10.5 74.8 10.3 75.1 10.2 75.5 10.2 75.6 10.25 75.7 10.3 75.8 9.8 75.8 Q9.45 74.55 9.55 73.7 L9.55 73.5 Q9.6 73.05 9.8 72.7 L9.9 72.65 M-4.65 79.75 L-4.55 79.6 Q-3.7 78.65 -3.9 77.5 -2.9 78.9 -2.65 79.55 -2.15 80.8 -2.8 81.9 L-3.5 83.05 -4.35 84.25 -4.7 84.6 -4.9 85.05 -5.5 84.15 -5.75 83.85 -4.15 81.2 -4.65 79.75 M-2.5 83.4 L-2.5 83.35 Q-1.55 82.15 -0.45 82.65 L-0.6 84.85 Q-0.6 86.2 -0.75 87.0 L-2.0 86.5 -3.05 86.45 -3.3 85.75 -3.35 84.65 -3.3 84.6 -2.55 83.45 -2.55 83.4 -2.5 83.4" fill="#666633" fill-rule="evenodd" stroke="none"/>
    <path d="M16.85 73.9 L16.9 74.4 17.0 74.7 16.8 74.7 16.8 75.95 16.55 76.25 16.4 76.4 16.05 76.6 13.6 76.7 13.5 76.7 11.65 76.1 11.45 76.0 10.3 75.8 10.25 75.7 10.2 75.6 10.2 75.5 10.3 75.1 10.5 74.8 10.55 74.6 10.55 74.45 10.7 74.25 10.85 74.2 Q11.55 73.1 12.9 73.7 L15.6 73.75 16.85 73.9 M15.4 75.4 L15.4 74.9 15.35 75.4 15.4 75.4 M-5.75 83.85 L-6.25 83.25 Q-7.15 82.15 -6.2 81.25 L-4.65 79.75 -4.15 81.2 -5.75 83.85 M-2.5 83.35 L-2.5 83.4 -2.5 83.35 M-3.3 84.6 L-3.35 84.65 -3.3 85.75 -3.05 86.45 -3.35 86.6 Q-2.15 87.1 -2.85 88.0 L-3.55 88.75 -4.0 89.5 -4.85 88.85 -5.7 88.15 -4.75 86.95 Q-4.15 86.2 -4.15 85.6 L-3.3 84.6" fill="#999966" fill-rule="evenodd" stroke="none"/>
    <path d="M15.4 75.4 L15.35 75.4 15.4 74.9 15.4 75.4" fill="#ffffff" fill-rule="evenodd" stroke="none"/>
  </g>
</svg>
