<?xml version="1.0" encoding="UTF-8" standalone="no"?>
<svg xmlns:xlink="http://www.w3.org/1999/xlink" height="108.4px" width="41.05px" xmlns="http://www.w3.org/2000/svg">
  <g transform="matrix(1.0, 0.0, 0.0, 1.0, 23.4, 8.0)">
    <path d="M-10.1 0.75 L-10.15 0.6 -9.95 0.65 -10.1 0.75 M5.05 66.45 L6.2 66.6 6.7 66.65 6.9 66.7 8.0 68.0 7.9 68.35 Q7.65 67.7 5.9 67.05 L5.05 66.45 M-8.8 35.8 L-9.3 35.75 -14.45 36.15 -17.0 37.4 Q-17.0 36.75 -17.6 36.05 L-18.55 34.95 -17.35 32.9 Q-16.55 31.7 -16.55 30.75 L-18.55 28.85 Q-16.15 27.0 -15.75 25.6 -15.55 25.1 -15.75 24.5 L-16.25 23.6 Q-16.85 22.6 -15.55 22.0 -14.5 21.75 -14.35 19.85 -14.35 18.95 -15.25 17.8 L-14.0 15.9 Q-13.25 14.7 -13.9 13.9 -13.9 13.3 -12.8 12.35 L-12.4 11.95 -12.6 11.35 -12.7 10.7 -12.45 10.2 -12.8 9.4 -12.05 9.15 Q-11.1 8.7 -10.9 7.75 L-10.9 6.85 -10.9 6.8 -10.9 6.75 -10.95 6.65 -10.95 6.55 -11.0 6.4 -11.05 6.25 -11.1 6.15 -11.2 5.95 -9.95 4.9 -10.2 5.1 Q-10.6 4.6 -10.45 4.0 L-10.45 3.75 Q-10.55 3.2 -10.3 2.85 -10.55 2.55 -10.4 2.05 L-9.95 1.6 -9.35 1.55 -7.9 1.45 -7.5 0.65 -7.4 -0.35 -7.55 -1.8 -7.15 -1.9 -7.05 -1.95 -6.6 -2.35 Q-5.75 -2.85 -5.4 -3.7 L-5.2 -4.5 -2.85 -5.6 -0.1 -6.45 3.85 -6.35 5.95 -5.75 6.3 -5.55 6.45 -5.45 5.5 -4.5 5.4 -4.55 Q3.75 -6.0 1.5 -6.35 0.15 -6.3 0.2 -5.05 0.2 -4.65 0.6 -4.5 L1.25 -4.25 Q2.85 -3.4 4.5 -3.35 L3.0 -1.25 2.9 -1.3 Q0.85 -2.5 -1.45 -2.8 L-3.2 -2.55 Q-3.9 -2.45 -4.35 -1.85 -4.3 -1.0 -3.2 -1.0 L-1.3 -0.55 1.65 0.9 -0.15 3.75 Q-2.55 2.2 -5.45 2.2 -5.9 2.15 -6.35 2.45 L-6.8 2.95 -6.8 3.05 -6.8 3.25 -6.75 3.35 -6.05 3.9 -5.2 4.1 Q-3.9 4.35 -2.75 4.95 L-1.35 5.85 -1.55 6.85 -1.55 7.0 -1.6 7.05 -1.55 7.05 -1.55 7.15 -1.65 7.05 -2.55 8.45 -2.75 8.95 -2.8 8.9 -4.35 8.05 Q-5.8 7.25 -7.45 7.3 L-7.95 7.4 -8.8 7.65 Q-9.75 8.35 -8.8 9.0 L-6.5 9.25 Q-5.9 9.4 -5.4 9.75 L-3.55 10.9 -4.45 13.25 -5.05 12.95 Q-7.25 11.95 -9.65 12.0 -10.5 12.1 -11.2 12.7 -11.55 13.0 -11.35 13.4 -11.05 14.1 -10.15 13.9 L-8.2 14.0 Q-6.5 14.55 -4.9 15.35 L-5.2 15.25 -5.95 17.65 -10.2 16.75 -10.95 16.8 Q-12.05 16.85 -12.85 17.5 -13.05 17.7 -12.9 17.9 -12.4 18.55 -11.45 18.5 L-10.05 18.6 -6.55 19.65 -6.65 19.9 -7.5 23.3 Q-9.3 22.5 -11.45 22.65 L-12.65 22.85 Q-13.85 23.0 -14.25 24.1 L-14.2 24.4 Q-13.45 25.15 -12.25 24.9 L-8.6 25.15 -8.0 25.4 -8.65 29.0 -11.75 28.65 -15.2 29.05 -15.6 29.8 Q-15.6 31.1 -14.25 30.9 L-11.5 30.8 -8.95 30.9 -9.05 31.65 -9.15 32.55 -11.45 32.4 -11.45 32.45 -13.3 32.6 -13.75 32.7 -14.9 33.05 Q-15.7 33.25 -16.05 33.9 -16.3 34.3 -16.1 34.7 -15.55 35.8 -14.25 35.2 -12.7 34.45 -10.95 34.45 L-9.6 34.65 -8.55 34.9 -9.25 34.75 -9.2 35.75 -8.8 35.8 M12.5 3.65 L12.5 3.6 12.25 5.9 11.8 6.05 11.2 6.4 Q10.25 7.2 10.3 8.4 10.3 9.6 11.05 10.5 L10.15 10.7 Q9.85 10.75 9.7 11.0 L9.35 11.65 Q9.0 12.9 9.55 14.15 8.75 14.7 8.45 15.6 L8.2 16.15 Q7.95 16.8 7.95 17.5 L6.95 18.4 6.7 17.75 7.35 19.95 Q7.45 20.65 7.0 21.0 L7.0 21.1 7.3 21.85 Q6.2 21.65 5.45 22.3 4.85 22.75 4.45 23.75 L4.45 24.1 Q4.45 25.05 5.0 25.9 L3.75 26.35 Q3.05 26.6 2.9 27.25 2.85 27.7 3.1 28.25 L3.55 29.0 Q2.5 29.15 1.1 30.05 L1.3 31.65 Q1.4 32.6 1.7 33.15 L0.45 33.8 Q-0.4 34.05 -0.45 34.75 L0.05 36.3 0.45 37.75 -0.75 38.3 Q-1.5 38.6 -1.45 39.3 L-2.0 38.8 -2.95 38.05 -2.0 36.8 -1.1 35.75 Q-2.3 33.05 -0.3 30.75 L0.55 29.9 Q0.15 28.65 0.3 27.25 L0.7 26.3 Q1.7 24.85 3.15 23.75 3.1 21.0 5.05 19.0 L5.3 18.55 Q5.6 17.45 6.4 16.9 L6.15 16.4 6.6 16.25 6.75 16.05 Q7.55 15.3 7.65 14.3 7.8 12.35 8.6 10.5 L9.4 9.0 10.2 7.5 12.5 3.65 M-1.55 82.6 L-1.8 82.35 -1.0 82.05 Q-3.45 75.15 -5.0 67.95 -5.05 67.6 -5.25 67.35 -3.35 66.4 -1.55 64.95 L-0.6 66.8 Q-0.1 67.95 0.75 68.35 1.7 68.95 4.05 68.95 6.35 68.95 7.3 69.6 L10.9 72.7 10.75 72.9 8.85 75.7 7.8 77.6 7.3 78.95 6.2 78.65 5.1 78.75 Q3.2 80.65 5.0 85.15 5.7 85.6 5.85 86.65 L5.9 88.4 Q5.1 88.45 3.25 89.5 L2.65 89.8 Q1.35 90.55 0.3 90.5 L-0.4 90.35 -0.65 90.3 Q-1.5 90.65 -1.9 89.95 L-2.55 88.6 Q-1.8 87.95 -2.2 87.35 -0.65 88.15 0.8 86.85 2.2 85.6 1.3 83.95 0.4 82.3 -1.55 82.6 M-11.85 87.4 L-11.2 86.3 -10.65 87.5 -10.9 87.6 Q-11.0 88.15 -10.2 88.45 L-9.0 88.85 -8.9 88.85 -9.0 88.85 -9.0 88.9 -8.95 90.65 -8.5 92.2 -8.45 92.3 -10.75 92.15 Q-11.45 90.7 -12.5 90.15 L-12.6 90.1 -12.35 90.05 -11.8 89.7 Q-10.6 88.3 -11.85 87.4 M-6.5 85.3 L-6.4 85.1 -6.15 85.65 -5.7 85.95 -5.15 86.05 -5.4 86.25 -5.45 86.3 -5.15 86.7 -5.05 86.85 -3.95 87.85 Q-2.9 88.7 -3.1 89.85 L-2.4 91.3 Q-1.85 92.15 -0.95 91.85 L-1.0 91.9 -1.05 91.95 -1.45 92.45 -1.95 91.95 -2.1 91.8 -2.0 91.95 -1.65 92.6 -2.05 92.8 -2.15 92.9 -3.55 93.4 Q-4.75 93.85 -5.3 92.75 -5.8 91.8 -6.45 91.6 L-7.0 91.5 Q-7.75 90.85 -8.15 89.65 L-8.4 88.75 -8.45 88.05 Q-7.55 89.2 -5.9 88.85 -4.9 87.95 -5.45 86.75 -5.9 85.85 -6.5 85.3 M-3.75 86.15 L-3.3 86.05 -3.3 86.1 -3.05 86.65 -3.35 86.45 -3.75 86.15 M-13.7 21.1 L-13.65 21.15 -13.6 21.05 -13.7 21.1 M-13.8 89.85 L-14.2 89.85 -14.4 89.45 -14.4 89.35 -13.8 89.85" fill="#4e4e4e" fill-rule="evenodd" stroke="none"/>
    <path d="M-9.95 0.65 L-8.95 0.55 -8.7 0.3 -8.55 0.0 -8.55 -0.45 -8.8 -1.25 -9.1 -1.7 -9.05 -1.8 -8.85 -2.85 -7.3 -2.95 Q-6.45 -3.3 -6.5 -4.15 L-6.5 -5.15 Q-4.2 -7.0 -1.35 -7.8 L-1.25 -7.85 -0.05 -7.8 -0.8 -7.5 0.1 -7.8 -0.3 -7.55 0.0 -7.75 0.25 -7.9 1.6 -7.95 Q4.55 -8.0 6.75 -6.8 L7.9 -6.35 8.0 -6.3 Q10.8 -5.0 11.9 -2.15 L12.75 0.7 13.0 2.7 13.0 2.75 13.05 6.35 12.65 6.85 12.6 6.85 12.55 6.85 12.4 6.9 11.7 7.05 Q11.65 7.05 11.55 7.15 10.7 8.45 12.1 9.45 L12.3 10.2 12.15 11.3 11.75 11.45 10.65 11.3 10.65 11.35 10.5 11.4 10.4 11.45 Q10.0 11.75 10.0 12.3 10.05 12.85 10.45 13.15 L10.6 13.6 10.9 14.05 11.0 14.2 10.8 15.25 10.5 15.45 10.5 15.5 9.8 15.35 9.75 15.4 9.6 15.45 9.55 15.5 Q9.05 15.85 9.15 16.45 L9.55 18.1 9.5 18.4 Q9.05 18.85 8.95 19.35 L8.35 19.25 8.35 19.3 8.2 19.35 8.1 19.4 8.0 19.5 Q7.7 19.8 7.75 20.15 L8.2 21.35 8.3 22.6 8.2 23.2 7.25 23.65 6.05 23.85 Q5.35 24.25 5.7 25.1 L6.2 26.5 Q5.8 27.6 4.35 28.05 L4.6 28.95 4.65 29.9 Q4.5 30.6 3.75 31.0 L2.45 31.6 3.25 33.4 Q3.25 34.15 2.4 34.7 L1.1 35.7 1.55 36.6 1.85 37.55 Q1.55 39.2 0.0 40.05 L1.85 42.4 Q3.45 49.9 -1.8 56.05 -1.2 56.4 -1.3 57.15 L-1.45 58.4 Q-2.35 59.1 -1.8 59.85 -1.0 60.95 -0.95 61.35 -1.35 62.5 -0.6 63.95 L0.6 66.3 3.4 66.3 3.4 66.1 4.1 66.2 5.05 66.45 5.9 67.05 Q7.65 67.7 7.9 68.35 L8.0 68.0 9.25 68.85 9.15 69.3 11.55 71.5 Q12.95 72.8 14.3 73.2 15.6 73.75 16.0 74.8 16.25 75.55 16.15 77.05 15.95 78.7 16.05 79.35 16.2 80.4 17.05 81.1 L17.55 83.25 17.65 83.45 17.4 83.4 16.65 86.4 15.9 87.65 Q15.45 88.4 14.75 88.4 14.65 87.3 13.3 86.65 11.75 85.85 11.45 85.15 L11.45 85.0 11.15 82.95 Q10.5 80.9 8.7 80.05 L8.55 80.3 Q8.15 79.8 7.15 79.9 L6.55 80.45 Q6.1 80.1 5.25 80.2 5.75 82.6 6.35 83.85 L6.55 84.55 Q6.95 85.6 8.05 85.6 L8.1 85.95 8.75 85.45 9.45 85.5 Q10.85 88.4 9.9 91.75 L12.9 91.4 Q14.5 91.1 15.55 90.3 L15.8 89.3 Q15.85 88.65 16.5 88.75 L16.6 88.9 16.8 89.2 Q17.25 89.95 17.2 90.75 L16.6 92.65 15.7 94.6 Q15.35 95.75 15.7 96.85 15.5 98.25 13.9 98.15 11.85 98.05 11.35 98.5 10.4 99.0 9.6 97.95 8.6 96.7 7.9 96.85 L7.9 97.35 Q7.1 96.9 5.95 97.0 5.25 97.25 4.9 98.1 L4.75 98.55 4.45 98.85 Q3.25 99.8 2.9 100.4 L-0.2 100.1 Q-2.05 99.7 -3.0 98.75 -2.9 97.75 -3.75 97.2 L-5.3 96.5 Q-6.2 96.25 -8.1 94.7 -9.8 93.35 -11.1 93.3 -11.35 92.2 -12.7 91.75 L-14.8 90.65 -15.25 90.65 Q-15.85 89.9 -16.0 88.8 L-16.1 86.85 Q-16.2 84.2 -17.55 83.3 L-17.25 82.25 Q-16.95 81.6 -17.45 81.25 -17.0 79.9 -17.05 78.05 L-17.35 74.75 Q-17.7 70.65 -16.2 68.65 -17.4 67.35 -17.05 65.05 L-16.2 61.35 Q-17.55 61.35 -17.9 60.1 L-17.75 58.05 Q-20.8 55.15 -21.95 53.3 -23.75 50.3 -23.35 47.05 -22.2 41.45 -18.2 37.85 L-18.75 36.9 -19.45 36.05 Q-20.25 35.0 -19.65 33.95 L-17.9 31.8 Q-19.9 30.3 -20.2 28.85 L-18.65 27.5 Q-17.7 26.6 -16.8 26.4 -16.6 25.7 -17.4 24.55 -18.25 23.45 -17.75 22.65 L-16.5 21.5 -15.25 20.5 Q-15.35 20.2 -16.1 19.25 -16.65 18.5 -16.35 17.8 -16.3 17.35 -15.85 16.7 L-14.95 15.65 Q-14.15 14.35 -15.45 13.45 -15.6 12.45 -14.75 11.95 L-13.2 11.15 -13.7 9.55 Q-13.9 8.6 -13.2 8.0 L-12.55 8.0 Q-12.15 8.05 -12.0 7.7 L-12.65 6.4 Q-13.0 5.65 -12.45 5.05 L-10.9 3.95 Q-11.95 2.9 -11.35 1.5 L-10.1 0.75 -9.95 0.65 M6.45 -5.45 L6.3 -5.55 5.95 -5.75 3.85 -6.35 -0.1 -6.45 -2.85 -5.6 -5.2 -4.5 -5.4 -3.7 Q-5.75 -2.85 -6.6 -2.35 L-7.05 -1.95 -7.15 -1.9 -7.55 -1.8 -7.4 -0.35 -7.5 0.65 -7.9 1.45 -9.35 1.55 -9.95 1.6 -10.4 2.05 Q-10.55 2.55 -10.3 2.85 -10.55 3.2 -10.45 3.75 L-10.45 4.0 Q-10.6 4.6 -10.2 5.1 L-9.95 4.9 -11.2 5.95 -11.1 6.15 -11.05 6.25 -11.0 6.4 -10.95 6.55 -10.95 6.65 -10.9 6.75 -10.9 6.8 -10.9 6.85 -10.9 7.75 Q-11.1 8.7 -12.05 9.15 L-12.8 9.4 -12.45 10.2 -12.7 10.7 -12.6 11.35 -12.4 11.95 -12.8 12.35 Q-13.9 13.3 -13.9 13.9 -13.25 14.7 -14.0 15.9 L-15.25 17.8 Q-14.35 18.95 -14.35 19.85 -14.5 21.75 -15.55 22.0 -16.85 22.6 -16.25 23.6 L-15.75 24.5 Q-15.55 25.1 -15.75 25.6 -16.15 27.0 -18.55 28.85 L-16.55 30.75 Q-16.55 31.7 -17.35 32.9 L-18.55 34.95 -17.6 36.05 Q-17.0 36.75 -17.0 37.4 L-14.45 36.15 -9.3 35.75 -8.8 35.8 -7.55 36.05 -6.2 36.45 -6.1 36.5 Q-5.05 36.85 -4.1 37.35 -3.5 37.65 -2.95 38.05 L-2.0 38.8 -1.45 39.3 Q-1.5 38.6 -0.75 38.3 L0.45 37.75 0.05 36.3 -0.45 34.75 Q-0.4 34.05 0.45 33.8 L1.7 33.15 Q1.4 32.6 1.3 31.65 L1.1 30.05 Q2.5 29.15 3.55 29.0 L3.1 28.25 Q2.85 27.7 2.9 27.25 3.05 26.6 3.75 26.35 L5.0 25.9 Q4.45 25.05 4.45 24.1 L4.45 23.75 Q4.85 22.75 5.45 22.3 6.2 21.65 7.3 21.85 L7.0 21.1 7.0 21.0 Q7.45 20.65 7.35 19.95 L6.7 17.75 6.95 18.4 7.95 17.5 Q7.95 16.8 8.2 16.15 L8.45 15.6 Q8.75 14.7 9.55 14.15 9.0 12.9 9.35 11.65 L9.7 11.0 Q9.85 10.75 10.15 10.7 L11.05 10.5 Q10.3 9.6 10.3 8.4 10.25 7.2 11.2 6.4 L11.8 6.05 12.25 5.9 12.5 3.6 12.5 3.65 12.3 3.95 12.2 3.5 12.15 3.4 Q11.65 1.25 10.8 -0.8 10.1 -2.4 9.0 -3.7 8.0 -4.85 6.65 -5.5 L6.55 -5.55 7.05 -6.0 6.45 -5.45 M8.85 30.55 L8.9 30.4 8.85 30.6 8.85 30.55 M-1.2 43.65 Q-1.7 41.35 -2.65 40.4 -8.1 37.2 -14.0 38.2 -16.65 38.0 -18.45 40.3 -19.4 41.4 -20.85 44.7 -22.5 49.25 -19.8 54.35 L-18.8 54.9 -17.8 55.75 Q-16.6 56.55 -16.0 54.95 -13.3 53.3 -9.25 53.45 -5.35 53.6 -2.55 55.3 0.15 52.1 0.0 47.05 -0.7 46.15 -1.2 43.65 M-3.0 56.7 L-3.0 56.5 -3.1 56.7 Q-6.7 54.35 -12.0 56.4 -13.45 56.9 -14.95 57.75 -15.45 58.0 -15.95 58.35 L-16.0 58.4 -16.3 58.95 Q-16.6 59.7 -16.35 60.4 L-15.3 60.2 -14.55 60.05 -13.6 59.95 -10.7 59.65 -9.7 59.6 -3.0 59.05 -3.0 56.7 M-10.6 67.1 Q-7.55 66.8 -5.0 65.4 L-3.1 64.35 Q-2.05 63.55 -2.2 62.6 L-3.1 60.85 -8.85 61.7 -11.0 62.05 -14.45 62.6 -15.0 64.2 -15.05 64.4 -15.05 66.3 -14.8 66.95 -14.55 66.95 -14.5 67.0 -13.6 67.05 -13.3 67.1 -10.6 67.1 M-6.35 69.6 L-6.2 69.8 -5.8 70.5 -5.65 70.9 -5.15 72.65 -4.9 73.85 -4.75 75.05 Q-4.35 75.55 -4.95 75.85 L-5.0 75.95 -9.05 76.45 -10.2 76.45 Q-11.85 76.4 -13.25 75.6 L-13.4 75.4 -13.4 75.45 Q-13.7 75.6 -13.95 75.2 L-14.1 74.85 -14.45 72.4 -14.35 70.95 -14.05 70.15 -13.6 70.0 -13.25 70.0 -10.0 69.65 -8.95 69.55 -7.55 69.4 -7.0 69.4 -6.35 69.6 M-6.85 69.75 L-7.0 69.4 Q-10.8 70.85 -13.8 70.45 L-13.85 73.2 -13.8 73.9 -13.55 74.25 -13.7 74.3 -13.6 74.75 -13.5 75.05 -13.35 75.1 -12.9 75.2 -10.85 75.45 -7.9 75.3 -5.7 74.9 -5.3 74.4 Q-5.35 73.25 -5.95 71.85 L-6.85 69.75 M-5.25 67.35 Q-8.55 68.95 -12.1 69.0 L-12.35 69.0 -13.4 68.95 -14.6 69.35 Q-15.35 69.45 -15.25 70.05 L-14.95 70.15 -15.3 70.95 -15.5 72.5 -15.55 72.85 -15.55 72.9 -15.4 74.35 Q-15.7 78.1 -16.65 83.15 L-16.0 83.15 Q-15.25 83.95 -14.95 85.5 L-14.85 86.35 -14.85 86.5 -14.85 86.7 Q-15.2 87.4 -14.95 88.25 L-14.4 89.35 -14.4 89.45 -14.2 89.85 -13.8 89.85 -12.6 90.1 -12.5 90.15 Q-11.45 90.7 -10.75 92.15 L-8.45 92.3 -8.5 92.2 -8.4 92.2 -7.3 92.15 -6.45 91.6 Q-5.8 91.8 -5.3 92.75 -4.75 93.85 -3.55 93.4 L-2.15 92.9 -2.05 92.8 -1.65 92.6 -2.0 91.95 -1.95 91.95 -1.45 92.45 -1.05 91.95 -1.0 91.9 -0.7 91.8 Q-0.05 91.6 0.15 91.0 L0.3 90.5 Q1.35 90.55 2.65 89.8 L3.25 89.5 Q5.1 88.45 5.9 88.4 L5.85 86.65 Q5.7 85.6 5.0 85.15 3.2 80.65 5.1 78.75 L6.2 78.65 7.3 78.95 7.8 77.6 Q8.4 78.15 9.6 78.15 L9.8 78.45 10.9 79.5 Q12.45 80.75 12.1 82.1 L12.25 84.05 Q12.2 85.25 13.0 85.15 14.25 85.25 14.9 87.4 L14.9 87.5 Q15.5 87.15 15.6 86.15 15.75 85.05 16.0 84.75 16.25 83.35 15.25 80.75 14.25 78.2 14.75 76.6 14.4 75.75 13.2 75.15 L13.1 75.1 12.65 74.25 11.95 73.55 Q11.35 73.15 10.75 72.9 L10.9 72.7 7.3 69.6 Q6.35 68.95 4.05 68.95 1.7 68.95 0.75 68.35 -0.1 67.95 -0.6 66.8 L-1.55 64.95 Q-3.35 66.4 -5.25 67.35 M2.65 95.75 Q3.1 96.45 4.25 96.5 4.3 96.1 4.9 95.9 L5.9 95.6 Q7.35 95.3 8.8 95.9 10.1 96.45 11.0 97.75 11.45 97.3 12.35 97.2 L13.8 97.0 14.1 94.35 14.25 93.6 Q14.55 92.65 15.1 91.95 10.65 93.65 7.9 92.6 L6.5 91.5 Q5.65 90.65 5.1 90.65 L3.25 91.3 Q2.15 91.7 1.85 92.3 L2.3 93.65 2.4 94.95 2.65 95.75 M-7.7 93.35 L-8.55 93.5 Q-7.1 94.85 -4.8 95.9 L-4.1 96.2 Q-4.15 95.9 -4.6 95.55 -5.0 95.25 -5.0 94.85 -6.65 94.25 -6.9 93.5 L-7.7 93.35 M1.25 96.1 L0.6 95.75 Q0.1 95.25 0.45 94.55 L0.75 93.3 Q-0.05 93.4 -1.5 94.05 -2.95 94.7 -3.75 94.85 -2.0 96.5 -2.0 98.4 L-2.0 98.5 0.0 98.8 Q1.15 98.95 1.85 99.5 2.55 99.8 3.0 99.0 L3.9 97.65 1.5 96.25 1.25 96.1 M8.35 87.5 Q8.1 88.1 7.05 88.55 6.15 88.95 6.05 89.65 L7.3 90.6 Q8.05 91.2 8.7 91.2 9.05 90.05 8.35 87.5" fill="#000000" fill-rule="evenodd" stroke="none"/>
    <path d="M-8.55 34.9 L-9.6 34.65 -10.95 34.45 Q-12.7 34.45 -14.25 35.2 -15.55 35.8 -16.1 34.7 -16.3 34.3 -16.05 33.9 -15.7 33.25 -14.9 33.05 L-13.75 32.7 -13.3 32.6 -11.45 32.45 -11.45 32.4 -9.15 32.55 Q-7.9 32.75 -6.75 33.35 -6.4 33.5 -6.2 33.8 L-6.05 34.1 -6.0 34.15 -5.9 34.25 -5.85 34.35 -5.8 34.4 -5.8 34.5 -5.8 34.55 -5.8 34.65 -5.85 34.7 -5.95 34.85 -6.05 34.9 -6.2 34.95 -6.4 34.9 -6.5 34.9 -8.55 34.9 M-8.95 30.9 L-11.5 30.8 -14.25 30.9 Q-15.6 31.1 -15.6 29.8 L-15.2 29.05 -11.75 28.65 -8.65 29.0 -7.9 29.3 -7.15 29.7 Q-6.6 30.0 -6.9 30.5 -7.2 30.95 -7.75 30.95 L-8.95 30.9 M-8.0 25.4 L-8.6 25.15 -12.25 24.9 Q-13.45 25.15 -14.2 24.4 L-14.25 24.1 Q-13.85 23.0 -12.65 22.85 L-11.45 22.65 Q-9.3 22.5 -7.5 23.3 -6.65 23.65 -5.85 24.25 L-5.0 24.8 Q-4.5 25.1 -4.3 25.55 -4.15 25.95 -4.4 26.2 L-4.65 26.4 -7.45 25.55 -7.65 25.5 -8.0 25.4 M-6.55 19.65 L-10.05 18.6 -11.45 18.5 Q-12.4 18.55 -12.9 17.9 -13.05 17.7 -12.85 17.5 -12.05 16.85 -10.95 16.8 L-10.2 16.75 -5.95 17.65 -4.55 18.15 Q-3.0 18.75 -1.75 19.9 -1.55 20.05 -1.6 20.35 -1.75 21.65 -3.1 21.05 L-4.45 20.45 -4.6 20.4 -5.85 19.9 -6.55 19.65 M-4.9 15.35 Q-6.5 14.55 -8.2 14.0 L-10.15 13.9 Q-11.05 14.1 -11.35 13.4 -11.55 13.0 -11.2 12.7 -10.5 12.1 -9.65 12.0 -7.25 11.95 -5.05 12.95 L-4.45 13.25 Q-3.15 13.85 -1.9 14.6 -0.65 15.35 -0.15 16.55 L-0.15 16.95 -0.45 17.4 Q-1.55 17.65 -2.5 16.85 -3.0 16.35 -3.65 16.0 L-3.75 15.95 Q-4.35 15.6 -4.9 15.35 M-3.55 10.9 L-5.4 9.75 Q-5.9 9.4 -6.5 9.25 L-8.8 9.0 Q-9.75 8.35 -8.8 7.65 L-7.95 7.4 -7.45 7.3 Q-5.8 7.25 -4.35 8.05 L-2.8 8.9 -2.75 8.95 Q-1.85 9.4 -1.2 10.2 L-1.0 10.55 Q-0.65 10.8 -0.6 11.2 -0.45 11.75 -1.0 12.05 L-1.45 12.05 -1.45 12.0 -1.9 11.7 -1.95 11.65 -3.55 10.9 M-1.35 5.85 L-2.75 4.95 Q-3.9 4.35 -5.2 4.1 L-6.05 3.9 -6.75 3.35 -6.8 3.25 -6.8 3.05 -6.8 2.95 -6.35 2.45 Q-5.9 2.15 -5.45 2.2 -2.55 2.2 -0.15 3.75 L0.3 4.05 Q1.15 4.6 1.8 5.4 L2.9 7.3 Q3.1 7.8 2.7 8.2 1.8 9.1 0.95 8.1 -0.05 6.8 -1.35 5.85 M1.65 0.9 L-1.3 -0.55 -3.2 -1.0 Q-4.3 -1.0 -4.35 -1.85 -3.9 -2.45 -3.2 -2.55 L-1.45 -2.8 Q0.85 -2.5 2.9 -1.3 L3.0 -1.25 3.8 -0.8 Q5.2 0.0 5.3 1.5 L5.15 1.9 4.95 2.05 4.55 2.1 Q3.95 2.1 3.65 1.6 L1.65 0.9 M4.5 -3.35 Q2.85 -3.4 1.25 -4.25 L0.6 -4.5 Q0.2 -4.65 0.2 -5.05 0.15 -6.3 1.5 -6.35 3.75 -6.0 5.4 -4.55 L5.5 -4.5 Q6.1 -3.9 5.25 -3.5 L4.65 -3.35 4.5 -3.35 M-6.35 69.6 L-7.0 69.4 -7.55 69.4 -8.95 69.55 -10.0 69.65 -13.25 70.0 -13.6 70.0 -14.05 70.15 -14.35 70.95 -14.45 72.4 -14.1 74.85 -13.95 75.2 Q-13.7 75.6 -13.4 75.45 L-13.4 75.4 -13.25 75.6 Q-11.85 76.4 -10.2 76.45 L-9.05 76.45 -5.0 75.95 -4.95 75.85 Q-4.35 75.55 -4.75 75.05 L-4.9 73.85 -5.15 72.65 -5.65 70.9 -5.8 70.5 -6.2 69.8 -6.35 69.6 M-5.25 67.35 Q-5.05 67.6 -5.0 67.95 -3.45 75.15 -1.0 82.05 L-1.8 82.35 -1.55 82.6 -1.75 82.65 -1.75 82.7 -2.45 82.95 -2.6 83.0 Q-3.75 84.25 -3.3 86.05 L-3.75 86.15 -4.1 85.75 -4.85 85.95 -5.15 86.05 -5.7 85.95 -6.15 85.65 -6.4 85.1 -6.5 85.3 Q-7.1 84.8 -7.8 84.55 -9.85 85.05 -9.05 87.05 L-9.6 87.1 -10.65 87.5 -11.2 86.3 -11.85 87.4 -12.35 87.1 -12.35 87.0 Q-12.55 85.85 -13.55 85.75 L-13.6 85.75 -13.6 85.8 -14.3 85.95 -14.85 86.7 -14.85 86.5 -14.85 86.35 -14.95 85.5 Q-15.25 83.95 -16.0 83.15 L-16.65 83.15 Q-15.7 78.1 -15.4 74.35 L-15.4 74.25 -15.4 74.2 -15.35 73.9 -15.5 73.25 -15.55 72.9 -15.55 72.85 -15.5 72.5 -15.3 70.95 -14.95 70.15 -15.25 70.05 Q-15.35 69.45 -14.6 69.35 L-13.4 68.95 -12.35 69.0 -12.1 69.0 Q-8.55 68.95 -5.25 67.35 M-15.25 74.25 L-15.25 74.3 -15.25 74.25" fill="#666666" fill-rule="evenodd" stroke="none"/>
    <path d="M6.45 -5.45 L7.05 -6.0 6.55 -5.55 6.65 -5.5 Q8.0 -4.85 9.0 -3.7 10.1 -2.4 10.8 -0.8 11.65 1.25 12.15 3.4 L12.2 3.5 12.3 3.95 12.5 3.65 10.2 7.5 9.4 9.0 8.6 10.5 Q7.8 12.35 7.65 14.3 7.55 15.3 6.75 16.05 L6.6 16.25 6.15 16.4 6.4 16.9 Q5.6 17.45 5.3 18.55 L5.05 19.0 Q3.1 21.0 3.15 23.75 1.7 24.85 0.7 26.3 L0.3 27.25 Q0.15 28.65 0.55 29.9 L-0.3 30.75 Q-2.3 33.05 -1.1 35.75 L-2.0 36.8 -2.95 38.05 Q-3.5 37.65 -4.1 37.35 -5.05 36.85 -6.1 36.5 L-6.2 36.45 -7.55 36.05 -8.8 35.8 -9.2 35.75 -9.25 34.75 -8.55 34.9 -6.5 34.9 -6.4 34.9 -6.2 34.95 -6.05 34.9 -5.95 34.85 -5.85 34.7 -5.8 34.65 -5.8 34.55 -5.8 34.5 -5.8 34.4 -5.85 34.35 -5.9 34.25 -6.0 34.15 -6.05 34.1 -6.2 33.8 Q-6.4 33.5 -6.75 33.35 -7.9 32.75 -9.15 32.55 L-9.05 31.65 -8.95 30.9 -7.75 30.95 Q-7.2 30.95 -6.9 30.5 -6.6 30.0 -7.15 29.7 L-7.9 29.3 -8.65 29.0 -8.0 25.4 -7.65 25.5 -7.45 25.55 -4.65 26.4 -4.4 26.2 Q-4.15 25.95 -4.3 25.55 -4.5 25.1 -5.0 24.8 L-5.85 24.25 Q-6.65 23.65 -7.5 23.3 L-6.65 19.9 -6.55 19.65 -5.85 19.9 -4.6 20.4 -4.45 20.45 -3.1 21.05 Q-1.75 21.65 -1.6 20.35 -1.55 20.05 -1.75 19.9 -3.0 18.75 -4.55 18.15 L-5.95 17.65 -5.2 15.25 -4.9 15.35 Q-4.35 15.6 -3.75 15.95 L-3.65 16.0 Q-3.0 16.35 -2.5 16.85 -1.55 17.65 -0.45 17.4 L-0.15 16.95 -0.15 16.55 Q-0.65 15.35 -1.9 14.6 -3.15 13.85 -4.45 13.25 L-3.55 10.9 -1.95 11.65 -1.9 11.7 -1.45 12.0 -1.45 12.05 -1.0 12.05 Q-0.45 11.75 -0.6 11.2 -0.65 10.8 -1.0 10.55 L-1.2 10.2 Q-1.85 9.4 -2.75 8.95 L-2.55 8.45 -1.65 7.05 -1.55 7.15 -1.55 7.05 -1.45 7.05 -1.55 7.0 -1.55 6.85 -1.35 5.85 Q-0.05 6.8 0.95 8.1 1.8 9.1 2.7 8.2 3.1 7.8 2.9 7.3 L1.8 5.4 Q1.15 4.6 0.3 4.05 L-0.15 3.75 1.65 0.9 3.65 1.6 Q3.95 2.1 4.55 2.1 L4.95 2.05 5.15 1.9 5.3 1.5 Q5.2 0.0 3.8 -0.8 L3.0 -1.25 4.5 -3.35 4.65 -3.35 5.25 -3.5 Q6.1 -3.9 5.5 -4.5 L6.45 -5.45 M3.95 20.05 L3.85 19.95 3.85 20.0 3.9 20.05 4.0 20.15 3.95 20.05 M-12.7 74.65 L-12.65 74.7 -12.65 74.75 -12.7 74.65 M-15.55 72.9 L-15.5 73.25 -15.35 73.9 -15.4 74.2 -15.4 74.25 -15.4 74.35 -15.55 72.9 M-10.65 87.5 L-9.6 87.1 -9.05 87.05 -8.45 88.05 -8.4 88.75 -8.15 89.65 Q-7.75 90.85 -7.0 91.5 L-6.45 91.6 -7.3 92.15 -8.4 92.2 -8.5 92.2 -8.95 90.65 -9.0 88.9 -9.0 88.85 -8.9 88.85 -9.0 88.85 -10.2 88.45 Q-11.0 88.15 -10.9 87.6 L-10.65 87.5 M-5.15 86.05 L-4.85 85.95 -4.1 85.75 -3.75 86.15 -3.35 86.45 -3.05 86.65 -2.6 87.1 -2.2 87.35 Q-1.8 87.95 -2.55 88.6 L-1.9 89.95 Q-1.5 90.65 -0.65 90.3 L-0.4 90.35 0.3 90.5 0.15 91.0 Q-0.05 91.6 -0.7 91.8 L-1.0 91.9 -0.95 91.85 Q-1.85 92.15 -2.4 91.3 L-3.1 89.85 Q-2.9 88.7 -3.95 87.85 L-5.05 86.85 -5.15 86.7 -5.45 86.3 -5.4 86.25 -5.15 86.05 M7.8 77.6 L8.85 75.7 10.75 72.9 Q11.35 73.15 11.95 73.55 L12.65 74.25 13.1 75.1 11.35 73.95 10.6 75.25 9.45 77.2 9.6 78.15 Q8.4 78.15 7.8 77.6 M-15.25 74.25 L-15.25 74.3 -15.25 74.25 M-1.95 91.95 L-2.0 91.95 -2.1 91.8 -1.95 91.95" fill="#333333" fill-rule="evenodd" stroke="none"/>
    <path d="M-1.55 7.05 L-1.6 7.05 -1.55 7.0 -1.45 7.05 -1.55 7.05" fill="#414141" fill-rule="evenodd" stroke="none"/>
    <path d="M3.95 20.05 L4.0 20.15 3.9 20.05 3.85 20.0 3.85 19.95 3.95 20.05 M-14.85 86.7 L-14.3 85.95 -13.6 85.8 -13.55 85.75 Q-12.55 85.85 -12.35 87.0 L-12.35 87.1 -11.85 87.4 Q-10.6 88.3 -11.8 89.7 L-12.35 90.05 -12.6 90.1 -13.8 89.85 -14.4 89.35 -14.95 88.25 Q-15.2 87.4 -14.85 86.7 M-9.05 87.05 Q-9.85 85.05 -7.8 84.55 -7.1 84.8 -6.5 85.3 -5.9 85.85 -5.45 86.75 -4.9 87.95 -5.9 88.85 -7.55 89.2 -8.45 88.05 L-9.05 87.05 M-3.3 86.05 Q-3.75 84.25 -2.6 83.0 L-2.45 82.95 -1.75 82.7 -1.75 82.65 -1.55 82.6 Q0.4 82.3 1.3 83.95 2.2 85.6 0.8 86.85 -0.65 88.15 -2.2 87.35 L-2.6 87.1 -3.05 86.65 -3.3 86.1 -3.3 86.05 M-13.7 21.1 L-13.6 21.05 -13.65 21.15 -13.7 21.1" fill="#999999" fill-rule="evenodd" stroke="none"/>
    <path d="M-1.2 43.65 Q-0.7 46.15 0.0 47.05 0.15 52.1 -2.55 55.3 -5.35 53.6 -9.25 53.45 -13.3 53.3 -16.0 54.95 -16.6 56.55 -17.8 55.75 L-18.8 54.9 -19.8 54.35 Q-22.5 49.25 -20.85 44.7 -19.4 41.4 -18.45 40.3 -16.65 38.0 -14.0 38.2 -8.1 37.2 -2.65 40.4 -1.7 41.35 -1.2 43.65 M-3.1 56.7 L-3.0 56.7 -3.0 59.05 -9.7 59.6 -10.7 59.65 Q-10.9 57.5 -12.0 56.4 -6.7 54.35 -3.1 56.7 M-11.0 62.05 L-8.85 61.7 -3.1 60.85 -2.2 62.6 Q-2.05 63.55 -3.1 64.35 L-5.0 65.4 Q-7.55 66.8 -10.6 67.1 L-10.35 65.1 Q-9.9 63.0 -11.0 62.05 M-19.55 44.45 Q-19.9 45.95 -19.55 47.75 L-19.0 49.15 Q-15.95 54.05 -10.25 51.25 L-8.5 49.35 Q-5.9 46.7 -6.65 43.15 -7.65 38.4 -12.9 39.0 L-14.25 39.2 Q-15.25 39.35 -16.1 39.85 L-17.7 41.05 -17.7 41.1 Q-19.2 42.5 -19.55 44.45" fill="#400040" fill-rule="evenodd" stroke="none"/>
    <path d="M6.55 80.45 L6.45 80.65 Q6.15 81.55 6.55 82.4 L6.35 83.45 6.35 83.85 Q5.75 82.6 5.25 80.2 6.1 80.1 6.55 80.45 M-3.1 56.7 L-3.0 56.5 -3.0 56.7 -3.1 56.7" fill="#ffffff" fill-rule="evenodd" stroke="none"/>
    <path d="M-6.85 69.75 L-7.05 69.9 -8.2 71.2 Q-9.15 71.7 -10.45 71.8 L-13.2 71.6 Q-12.9 72.15 -12.8 73.15 L-12.65 74.7 -12.7 74.65 Q-13.0 74.8 -12.9 75.2 L-13.35 75.1 -13.5 75.05 -13.6 74.75 -13.7 74.3 -13.55 74.25 -13.8 73.9 -13.85 73.2 -13.8 70.45 Q-10.8 70.85 -7.0 69.4 L-6.85 69.75 M14.9 87.4 L14.65 85.35 14.25 81.9 13.9 80.25 12.55 76.6 12.4 76.5 10.6 75.25 11.35 73.95 13.1 75.1 13.2 75.15 Q14.4 75.75 14.75 76.6 14.25 78.2 15.25 80.75 16.25 83.35 16.0 84.75 15.75 85.05 15.6 86.15 15.5 87.15 14.9 87.5 L14.9 87.4 M14.25 93.6 L14.1 94.35 13.8 97.0 12.35 97.2 Q11.45 97.3 11.0 97.75 10.1 96.45 8.8 95.9 7.35 95.3 5.9 95.6 L4.9 95.9 Q4.3 96.1 4.25 96.5 3.1 96.45 2.65 95.75 2.85 95.2 3.3 94.8 5.1 93.35 7.3 94.25 L8.55 94.55 12.4 94.95 12.5 94.9 Q13.35 94.15 14.25 93.6 M1.25 96.1 L1.5 96.25 3.9 97.65 3.0 99.0 Q2.55 99.8 1.85 99.5 1.15 98.95 0.0 98.8 L-2.0 98.5 -2.0 98.4 -2.0 97.95 -1.7 97.6 Q-1.05 97.1 -0.25 96.95 L0.0 96.8 0.95 95.95 1.25 96.1" fill="#666633" fill-rule="evenodd" stroke="none"/>
    <path d="M-12.65 74.7 L-12.8 73.15 Q-12.9 72.15 -13.2 71.6 L-10.45 71.8 Q-9.15 71.7 -8.2 71.2 L-7.05 69.9 -6.85 69.75 -5.95 71.85 Q-5.35 73.25 -5.3 74.4 L-5.7 74.9 -7.9 75.3 -10.85 75.45 -12.9 75.2 Q-13.0 74.8 -12.7 74.65 L-12.65 74.75 -12.65 74.7 M10.6 75.25 L12.4 76.5 12.55 76.6 13.9 80.25 14.25 81.9 14.65 85.35 14.9 87.4 Q14.25 85.25 13.0 85.15 12.2 85.25 12.25 84.05 L12.1 82.1 Q12.45 80.75 10.9 79.5 L9.8 78.45 9.6 78.15 9.45 77.2 10.6 75.25 M2.65 95.75 L2.4 94.95 2.3 93.65 1.85 92.3 Q2.15 91.7 3.25 91.3 L5.1 90.65 Q5.65 90.65 6.5 91.5 L7.9 92.6 Q10.65 93.65 15.1 91.95 14.55 92.65 14.25 93.6 13.35 94.15 12.5 94.9 L12.4 94.95 8.55 94.55 7.3 94.25 Q5.1 93.35 3.3 94.8 2.85 95.2 2.65 95.75 M-7.7 93.35 L-6.9 93.5 Q-6.65 94.25 -5.0 94.85 -5.0 95.25 -4.6 95.55 -4.15 95.9 -4.1 96.2 L-4.8 95.9 Q-7.1 94.85 -8.55 93.5 L-7.7 93.35 M-2.0 98.4 Q-2.0 96.5 -3.75 94.85 -2.95 94.7 -1.5 94.05 -0.05 93.4 0.75 93.3 L0.45 94.55 Q0.1 95.25 0.6 95.75 L1.25 96.1 0.95 95.95 0.0 96.8 -0.25 96.95 Q-1.05 97.1 -1.7 97.6 L-2.0 97.95 -2.0 98.4 M8.35 87.5 Q9.05 90.05 8.7 91.2 8.05 91.2 7.3 90.6 L6.05 89.65 Q6.15 88.95 7.05 88.55 8.1 88.1 8.35 87.5" fill="#999966" fill-rule="evenodd" stroke="none"/>
    <path d="M-10.7 59.65 L-13.6 59.95 Q-12.45 58.45 -14.9 57.75 L-14.95 57.75 Q-13.45 56.9 -12.0 56.4 -10.9 57.5 -10.7 59.65 M-15.3 60.2 L-16.35 60.4 Q-16.6 59.7 -16.3 58.95 L-16.0 58.4 -15.95 58.35 -16.2 58.75 -16.3 58.95 Q-16.6 59.7 -15.85 60.3 L-15.3 60.2 M-10.6 67.1 L-13.3 67.1 -12.75 66.45 Q-11.85 65.0 -13.1 64.05 L-13.15 63.9 -13.3 63.75 -13.7 63.55 -14.05 63.65 -14.3 63.75 -14.3 63.8 -14.6 63.75 -15.0 64.2 -14.45 62.6 -11.0 62.05 Q-9.9 63.0 -10.35 65.1 L-10.6 67.1 M-14.55 66.95 L-14.8 66.95 -15.05 66.3 -14.85 66.85 -14.55 66.95 M-17.7 41.05 L-16.1 39.85 Q-15.25 39.35 -14.25 39.2 L-12.9 39.0 Q-7.65 38.4 -6.65 43.15 -5.9 46.7 -8.5 49.35 L-10.25 51.25 Q-15.95 54.05 -19.0 49.15 L-19.55 47.75 Q-19.9 45.95 -19.55 44.45 L-19.55 44.65 Q-18.9 48.7 -14.65 47.4 -13.3 46.15 -12.75 44.3 -11.6 40.15 -16.15 40.2 L-17.7 41.05" fill="#54035a" fill-rule="evenodd" stroke="none"/>
    <path d="M-13.6 59.95 L-14.55 60.05 -15.3 60.2 -15.85 60.3 Q-16.6 59.7 -16.3 58.95 L-16.2 58.75 -15.95 58.35 Q-15.45 58.0 -14.95 57.75 L-14.9 57.75 Q-12.45 58.45 -13.6 59.95 M-13.3 67.1 L-13.6 67.05 -14.5 67.0 -14.55 66.95 -14.85 66.85 -15.05 66.3 -15.05 64.4 -15.0 64.2 -14.6 63.75 -14.3 63.8 -14.3 63.75 -14.05 63.65 -13.7 63.55 -13.3 63.75 -13.15 63.9 -13.1 64.05 Q-11.85 65.0 -12.75 66.45 L-13.3 67.1 M-17.7 41.05 L-16.15 40.2 Q-11.6 40.15 -12.75 44.3 -13.3 46.15 -14.65 47.4 -18.9 48.7 -19.55 44.65 L-19.55 44.45 Q-19.2 42.5 -17.7 41.1 L-17.7 41.05" fill="#663399" fill-rule="evenodd" stroke="none"/>
    <path d="M-13.6 85.8 L-13.6 85.75 -13.55 85.75 -13.6 85.8" fill="#cccccc" fill-rule="evenodd" stroke="none"/>
  </g>
</svg>
