<?xml version="1.0" encoding="UTF-8" standalone="no"?>
<svg xmlns:xlink="http://www.w3.org/1999/xlink" height="117.9px" width="43.35px" xmlns="http://www.w3.org/2000/svg">
  <g transform="matrix(1.0, 0.0, 0.0, 1.0, 28.4, 13.5)">
    <path d="M3.05 -12.1 L3.25 -10.65 3.25 -11.35 3.05 -12.1 M3.95 -12.1 L3.95 -10.5 Q4.45 -10.4 4.65 -10.65 5.0 -11.95 3.95 -12.1 M-2.5 5.0 L-2.4 6.0 Q-2.1 8.1 -2.35 10.1 L-2.45 10.6 -2.45 10.75 -2.75 12.05 -3.1 10.65 Q-3.6 8.75 -4.45 6.9 L-7.0 8.55 -5.3 7.1 -5.15 6.9 -4.9 6.6 Q-4.15 5.6 -3.7 4.4 L-1.55 -1.05 -1.05 -0.65 -0.15 -0.05 -1.0 -0.2 -1.75 -0.35 -1.8 -0.25 -1.8 -0.15 -1.85 -0.05 -1.95 0.25 -1.95 0.3 -2.0 0.4 Q-2.7 2.65 -2.5 5.0 M4.3 -5.7 L1.65 -4.85 0.65 -4.45 0.35 -4.65 0.45 -4.7 0.55 -4.75 0.65 -4.8 1.6 -5.15 4.2 -5.85 5.9 -6.05 4.3 -5.7 M12.65 -4.15 L12.9 -4.15 Q10.7 -9.6 5.5 -11.65 5.3 -10.6 6.4 -10.15 L0.65 -5.65 Q0.95 -7.3 1.85 -9.25 1.9 -11.85 -0.55 -11.9 L-0.6 -11.85 -1.05 -11.75 Q-7.6 -9.75 -11.0 -3.45 -11.15 -2.45 -11.6 -1.35 -12.05 -0.2 -10.7 0.2 L-12.2 0.65 Q-12.5 2.4 -11.7 3.3 L-12.4 3.8 -11.95 9.6 -11.95 9.75 -11.95 9.95 -11.9 10.5 -12.8 12.05 -12.95 12.3 -13.45 13.0 -13.85 13.55 -13.9 13.55 -14.1 13.85 -14.75 14.55 -15.25 15.15 -15.45 15.35 -15.5 15.35 -15.6 15.45 -16.0 15.85 -16.5 16.65 -17.3 18.15 Q-18.75 21.35 -18.2 25.0 -17.4 23.8 -17.2 22.35 L-17.1 22.15 -16.9 21.75 -16.15 20.55 -16.0 20.35 -15.5 19.75 -15.5 19.7 -15.45 19.65 -15.4 19.6 -15.05 19.25 -15.0 19.2 -14.4 18.8 -13.9 18.55 -13.5 18.45 -13.45 18.45 -13.35 18.45 -13.1 18.45 -14.8 20.85 -14.8 21.0 -14.8 21.15 -14.8 21.4 -14.8 21.5 -14.8 21.6 Q-14.95 24.2 -16.0 26.45 L-16.5 27.4 Q-18.2 30.5 -18.1 33.95 -18.1 35.65 -18.7 37.2 L-19.0 37.85 -20.25 39.7 -20.65 40.15 Q-20.65 42.1 -21.15 43.85 L-21.15 43.9 -21.3 44.35 -22.65 47.2 Q-24.05 49.4 -24.75 51.9 L-25.15 53.9 -24.75 57.2 -25.0 57.65 -24.95 57.65 -25.35 58.3 -25.4 58.3 -25.75 58.85 Q-27.0 60.8 -27.05 63.05 -26.75 66.0 -24.9 68.55 L-24.2 70.05 Q-23.7 72.0 -25.15 74.2 L-23.05 74.2 Q-21.05 72.8 -22.15 71.0 -22.85 69.8 -22.5 68.7 -22.35 68.05 -21.85 67.45 L-20.85 70.8 -20.85 70.85 -20.8 70.9 -20.8 71.05 -20.75 71.15 -20.65 71.4 -20.65 71.5 -20.55 71.15 -20.3 70.35 -20.2 70.15 -19.2 68.65 -19.15 68.6 -19.1 68.55 -19.0 68.45 -18.95 68.35 -18.95 68.5 -19.05 68.8 -19.1 69.05 -19.1 69.15 -19.15 69.35 -19.45 73.2 -19.45 73.5 -19.3 73.55 -18.75 73.85 -17.0 74.35 -16.7 74.4 -16.75 74.45 -16.8 74.65 -16.85 74.85 Q-17.05 75.2 -17.4 75.05 L-18.65 74.9 Q-19.3 75.85 -19.95 75.15 -20.55 74.45 -21.35 74.4 L-21.15 75.4 Q-22.0 76.3 -22.5 77.55 L-22.5 77.6 -22.55 77.65 Q-23.2 78.05 -23.25 78.85 -23.45 80.95 -23.3 83.1 L-23.05 83.7 Q-23.0 84.65 -22.55 85.5 -22.15 86.25 -22.15 87.0 L-22.25 87.65 -22.2 87.65 Q-22.45 88.9 -22.35 90.2 -22.2 91.75 -21.05 92.85 L-20.75 93.15 -20.55 93.3 -19.8 94.2 -19.55 94.55 -19.0 95.25 -18.9 95.3 Q-18.7 97.15 -17.05 98.0 L-16.9 97.8 -16.15 97.05 -16.1 97.05 -16.1 97.0 -16.0 97.0 -16.05 97.0 Q-16.2 97.6 -15.95 98.3 L-15.7 98.8 -15.8 98.8 Q-14.85 100.9 -12.6 101.2 L-13.7 99.2 -13.95 98.9 -14.0 98.7 Q-14.45 97.9 -14.55 96.95 L-14.6 96.75 -14.3 96.4 -13.7 96.8 -13.6 96.85 -13.25 97.95 -12.85 98.65 -12.6 99.05 -12.9 99.0 -12.5 99.1 -11.9 99.35 -11.2 99.5 -11.15 99.5 -9.5 100.0 Q-11.1 100.75 -12.2 100.0 L-12.1 100.1 -10.5 101.3 -9.3 101.6 Q-9.4 101.85 -9.65 101.9 L-6.6 102.25 -6.55 102.25 -5.55 102.45 -4.65 102.7 -4.0 102.95 -3.45 103.1 Q-5.8 101.9 -6.6 99.5 L-7.15 98.15 Q-7.75 97.1 -8.5 97.3 L-8.55 97.15 -8.55 96.2 -8.65 95.55 -9.1 96.0 Q-8.15 95.15 -8.4 93.85 -8.8 91.65 -8.6 89.35 -8.1 87.45 -6.6 87.15 L-6.35 87.45 -6.1 87.65 -5.35 88.15 -5.35 87.15 -5.2 86.85 -5.15 87.1 -5.0 87.65 Q-4.8 88.35 -4.2 88.7 L-4.05 88.9 Q-3.8 89.8 -2.95 90.55 -2.4 92.25 -2.65 93.7 -2.8 94.6 -3.25 95.4 -0.45 93.75 -0.25 90.75 L-0.1 87.25 -0.1 85.75 -0.05 85.65 Q0.35 85.0 -0.25 84.65 L-0.4 84.5 Q-1.85 82.75 -2.2 80.35 -2.55 77.8 -5.35 77.5 -5.6 79.0 -5.15 80.2 -6.15 81.2 -6.35 80.35 -6.55 79.35 -7.35 79.0 L-9.35 78.0 -9.4 77.95 -9.95 77.8 -10.2 77.8 -11.0 78.15 -11.2 78.3 -11.4 78.5 -11.4 78.6 -11.55 78.5 -11.95 78.05 Q-12.5 77.2 -13.3 76.8 L-13.4 75.9 Q-13.65 74.65 -14.8 74.2 -14.7 74.8 -15.0 75.1 L-16.0 74.65 -16.35 74.35 -16.5 74.2 -16.6 74.05 -16.65 74.0 -16.7 73.9 Q-17.7 72.0 -17.4 70.1 L-16.4 71.8 -15.8 73.2 -15.3 72.7 -15.2 72.65 -14.7 72.55 Q-13.9 72.45 -13.1 73.2 -12.4 74.15 -12.25 75.55 -12.05 76.95 -12.4 77.3 L-11.4 77.3 Q-10.55 76.4 -10.05 75.35 L-9.65 74.2 -9.65 74.05 -9.5 73.0 Q-9.6 72.45 -9.85 71.95 L-9.75 71.95 -9.4 71.4 -9.35 71.25 -8.95 72.25 -9.05 73.0 Q-9.65 75.75 -7.25 77.7 L-6.35 78.3 Q-6.55 76.65 -5.6 75.45 -4.65 74.2 -4.45 72.7 -4.0 73.5 -4.15 74.4 L-4.15 74.45 -3.7 75.75 -3.65 75.75 -3.65 75.8 -3.6 75.85 -3.6 75.9 -3.55 75.95 -2.9 76.75 -2.05 77.3 -2.05 76.6 -1.55 75.45 Q-1.05 73.8 -2.1 72.3 -3.6 70.2 -2.55 67.65 -1.95 70.6 -0.15 72.7 0.25 70.85 0.25 69.15 L0.25 68.25 Q0.1 66.35 -0.45 64.6 L-0.75 63.75 -0.8 63.6 -0.85 63.55 Q-2.3 62.7 -3.25 61.65 -5.25 59.4 -5.35 56.1 L-5.15 56.1 Q-4.2 58.8 -2.25 60.65 L-1.25 61.45 -0.5 61.95 0.65 62.65 Q-2.25 59.4 -3.35 54.75 -4.1 51.75 -5.9 49.4 -6.95 48.1 -8.3 47.0 L-8.25 46.4 Q-8.1 43.4 -6.35 40.65 L-7.95 40.2 -8.8 39.95 -8.75 39.9 -8.8 39.9 -8.3 39.35 -8.1 39.25 -7.55 39.25 -7.35 39.3 -6.85 39.45 -5.35 39.75 Q-3.55 38.75 -2.25 36.85 L-2.45 36.7 -1.95 36.3 -1.8 35.8 -1.9 35.5 -1.75 35.65 -1.55 35.85 -0.65 35.2 -0.55 35.15 -0.8 34.9 -1.0 34.7 Q-0.35 34.1 -0.3 33.15 L-0.3 33.05 1.7 27.3 2.45 24.75 2.55 24.3 2.6 24.15 2.65 24.0 2.95 21.0 2.95 20.95 2.9 20.7 Q2.8 19.45 3.3 18.5 L3.6 18.0 3.85 17.7 3.95 17.55 3.95 16.45 4.0 17.35 4.25 17.15 4.65 16.75 4.65 16.85 5.2 16.35 5.15 16.3 5.55 15.9 5.7 15.9 6.7 15.1 6.9 14.55 7.65 13.65 7.75 13.55 7.9 13.55 8.0 13.55 8.7 12.75 8.8 12.35 9.0 12.0 9.5 10.85 9.6 10.7 9.75 10.3 9.8 10.3 Q12.8 5.1 13.1 -1.25 L13.05 -1.25 13.05 -1.35 13.1 -1.75 13.1 -1.85 13.3 -2.45 13.25 -2.85 Q13.2 -3.7 12.65 -4.15 M-9.5 7.8 Q-9.15 9.5 -10.2 11.05 L-10.65 9.6 Q-11.5 6.35 -10.25 2.6 L-10.2 2.4 -10.25 2.65 Q-10.65 4.75 -9.8 6.85 L-9.5 7.8 M9.1 -6.85 L9.3 -7.55 9.8 -7.55 9.1 -6.85 M10.75 -1.25 Q10.15 -0.9 9.8 -0.05 L9.8 -0.3 9.75 -1.5 9.7 -1.9 9.7 -1.95 9.15 -3.5 Q8.3 -5.0 8.3 -6.55 L8.35 -6.55 10.2 -5.5 Q10.25 -5.0 10.55 -4.55 L10.6 -4.45 10.7 -3.95 10.75 -3.95 10.7 -3.15 Q10.35 -2.1 10.75 -1.25 M12.75 -8.25 Q16.05 -3.1 14.4 2.6 12.8 8.3 9.85 12.95 6.5 15.9 5.25 19.9 4.05 24.0 3.3 27.9 L3.5 27.9 Q2.5 29.15 2.1 31.0 L2.8 32.2 Q1.6 32.05 1.2 33.5 L0.2 36.15 Q-1.55 39.1 -4.2 41.15 -6.9 43.25 -6.35 47.2 L-3.4 50.1 Q-2.4 53.6 -0.8 56.8 L-1.5 57.35 Q0.25 60.65 3.1 63.35 L1.4 63.7 Q0.4 63.95 1.1 65.05 2.0 67.4 1.4 69.75 0.8 72.1 1.1 74.4 -0.5 74.5 -0.6 76.05 -0.65 77.6 -1.3 78.5 -1.55 80.35 -0.35 81.85 0.9 83.3 1.4 85.05 L0.9 85.55 Q1.9 86.95 1.55 88.65 L1.1 91.95 Q-0.95 95.8 -4.9 97.3 L-3.8 93.5 Q-3.15 91.3 -4.9 89.55 -6.0 89.65 -7.05 88.65 -7.85 90.15 -7.35 92.25 -7.0 94.3 -7.75 95.9 -6.4 97.75 -5.25 99.9 -4.25 102.05 -1.7 102.8 L-1.3 104.05 -5.45 103.95 Q-7.6 103.15 -9.95 103.35 -11.75 102.65 -13.9 102.3 -16.05 101.95 -16.45 99.5 -18.85 99.2 -19.8 97.1 -20.0 94.1 -22.7 93.0 -22.55 88.85 -23.9 85.6 -25.2 82.3 -23.7 78.3 -22.9 76.95 -22.5 75.4 -24.95 75.85 -27.5 74.9 -26.0 74.35 -25.4 72.7 -25.1 69.45 -27.1 67.0 -29.1 64.6 -28.0 61.15 -25.55 56.85 -26.8 51.8 L-23.35 46.35 Q-21.65 43.65 -21.8 40.45 -19.95 37.7 -19.4 34.4 L-20.3 33.9 Q-19.25 32.05 -19.1 29.1 -19.1 27.45 -19.6 25.65 -20.15 23.8 -19.6 21.85 L-20.8 21.15 Q-19.65 21.55 -19.4 20.45 -18.65 17.75 -16.45 14.15 L-14.0 9.8 Q-12.9 7.55 -13.75 4.8 L-14.55 4.8 Q-13.7 3.4 -13.7 1.65 -13.75 -0.15 -12.85 -1.55 L-13.75 -2.25 Q-12.4 -2.2 -12.35 -3.85 -12.3 -5.5 -10.95 -6.05 L-11.35 -6.55 Q-8.15 -9.45 -4.1 -11.9 0.15 -14.3 4.8 -13.05 9.5 -11.8 12.75 -8.25 M1.35 -1.75 L1.55 -1.55 -0.1 -2.15 1.35 -1.75 M1.0 -3.75 L3.45 -3.65 0.85 -3.5 -0.15 -3.45 1.0 -3.75 M6.85 12.8 L6.35 13.25 5.9 13.65 5.8 13.7 5.65 13.85 5.5 14.05 5.2 14.25 3.8 14.9 3.8 14.85 1.25 15.1 -1.05 14.65 -1.05 14.45 -0.4 14.5 -0.35 14.5 0.65 14.45 Q2.45 14.3 3.95 13.45 L5.5 12.2 9.05 8.35 10.3 6.9 Q10.4 8.55 9.3 10.0 L9.3 10.05 9.2 10.25 8.75 10.9 Q8.1 11.15 7.65 11.95 L7.45 12.1 7.4 12.15 7.15 12.3 6.85 12.8 M3.9 15.6 L3.9 15.55 3.95 15.5 3.9 15.6 M-8.75 -5.0 L-6.75 -7.35 -6.7 -7.4 -6.5 -7.6 Q-5.7 -8.15 -4.85 -8.75 L-4.75 -8.8 -4.45 -8.95 Q-7.7 -6.25 -10.0 -1.75 L-9.95 -1.85 -8.85 -4.85 -8.75 -4.95 -8.75 -5.0 M-10.95 16.9 L-10.95 16.85 -10.9 16.9 -10.95 16.9 M-15.95 37.25 L-15.95 37.35 -15.95 37.3 -16.0 37.3 -16.0 37.25 -15.95 37.25 M-17.4 42.6 L-19.45 43.05 Q-19.85 40.2 -17.9 38.05 -17.75 39.25 -18.2 40.15 -17.45 40.35 -17.1 40.8 -16.6 41.4 -17.05 42.35 L-17.4 42.6 M-9.65 41.35 L-9.1 41.6 -8.9 41.7 -8.85 41.7 -8.5 41.9 -8.1 42.05 -7.8 42.15 Q-8.2 44.0 -9.5 45.25 L-9.5 45.6 -9.5 45.95 -11.15 45.95 -11.2 45.95 -10.95 46.55 -10.95 46.6 -10.85 46.9 -10.9 49.1 -11.05 49.5 -11.1 49.6 -11.15 49.7 -11.15 49.75 -11.7 50.6 -12.7 51.45 Q-12.1 50.85 -11.8 49.75 L-11.6 48.95 -11.6 48.85 Q-11.3 46.7 -11.7 45.0 L-11.7 44.95 -11.75 45.0 -11.9 45.05 -12.3 45.15 -13.0 45.2 -13.15 45.2 -14.45 44.7 -14.6 44.6 -14.6 44.55 -14.4 44.6 -13.75 44.6 Q-12.4 44.45 -11.45 43.45 L-11.3 43.3 -10.5 41.85 -11.2 40.45 -9.8 41.3 -9.65 41.35 M-13.15 40.0 L-13.1 39.95 -13.35 41.15 Q-13.85 42.5 -15.1 43.35 L-15.5 43.55 Q-14.8 41.35 -13.15 40.0 M-8.3 57.6 L-8.3 57.5 -8.25 57.55 -8.3 57.6 M-16.0 49.8 L-16.4 50.15 -16.45 50.1 -16.0 49.8 M-8.6 60.65 Q-6.8 63.2 -7.35 66.25 L-7.8 66.95 Q-7.15 65.15 -7.85 63.65 -8.6 62.15 -8.6 60.65 M-22.6 57.9 L-22.55 57.8 -22.55 57.9 -22.6 57.9 M-5.2 85.6 L-4.95 85.95 -5.0 85.9 -5.2 85.6" fill="#000000" fill-rule="evenodd" stroke="none"/>
    <path d="M3.95 -12.1 Q5.0 -11.95 4.65 -10.65 4.45 -10.4 3.95 -10.5 L3.95 -12.1 M1.65 -4.85 L1.5 -4.6 1.0 -3.75 -0.15 -3.45 0.85 -3.5 0.55 -3.15 -0.1 -2.15 -0.9 -0.55 -1.05 -0.65 -1.55 -1.05 -3.7 4.4 Q-4.15 5.6 -4.9 6.6 L-5.15 6.9 -5.3 7.1 -7.0 8.55 -4.45 6.9 Q-3.6 8.75 -3.1 10.65 L-2.75 12.05 -2.45 10.75 -2.45 10.6 -2.35 10.1 -2.3 9.75 -1.0 9.75 Q0.3 9.65 1.6 9.15 L4.5 7.65 4.3 7.85 5.75 6.0 6.1 5.2 Q6.6 1.75 5.9 -1.65 5.45 -3.9 4.3 -5.7 L5.9 -6.05 4.2 -5.85 1.6 -5.15 0.65 -4.8 0.55 -4.75 0.45 -4.7 0.35 -4.65 0.65 -4.45 1.65 -4.85 M-2.4 4.8 L-2.5 5.0 Q-2.7 2.65 -2.0 0.4 L-1.95 0.3 -1.95 0.25 -1.85 -0.05 -1.8 -0.15 -1.8 -0.25 -1.75 -0.35 -1.0 -0.2 -1.55 2.05 Q-1.8 3.55 -2.4 4.8 M-0.6 -11.85 L-0.55 -11.9 Q1.9 -11.85 1.85 -9.25 0.95 -7.3 0.65 -5.65 L6.4 -10.15 Q5.3 -10.6 5.5 -11.65 10.7 -9.6 12.9 -4.15 L12.65 -4.15 10.75 -3.95 10.7 -3.95 10.6 -4.45 10.5 -4.85 Q11.05 -4.85 11.5 -5.35 L11.5 -5.65 Q10.9 -6.05 10.3 -5.35 L10.2 -5.5 8.35 -6.55 8.3 -6.55 Q8.3 -5.0 9.15 -3.5 L9.7 -1.95 9.7 -1.9 9.75 -1.5 9.8 -0.3 9.8 -0.05 Q10.15 -0.9 10.75 -1.25 11.6 -1.8 13.05 -1.25 L13.1 -1.25 Q12.8 5.1 9.8 10.3 L9.75 10.3 9.6 10.7 9.5 10.85 9.0 12.0 8.8 12.35 8.7 12.75 8.0 13.55 7.9 13.55 7.75 13.55 7.65 13.65 6.9 14.55 6.7 15.1 5.7 15.9 5.55 15.9 5.15 16.3 5.2 16.35 4.65 16.85 4.65 16.75 4.25 17.15 4.0 17.35 3.95 16.45 3.95 17.55 3.85 17.7 3.6 18.0 3.3 18.5 Q2.8 19.45 2.9 20.7 L2.95 20.95 2.95 21.0 2.65 24.0 2.6 24.15 2.55 24.3 2.45 24.75 1.7 27.3 -0.3 33.05 -0.3 33.15 Q-0.35 34.1 -1.0 34.7 L-1.05 34.65 Q-1.6 33.85 -1.65 33.1 L-1.9 32.25 -2.05 31.2 -1.55 30.05 Q-0.9 28.5 -0.7 26.85 L-0.7 26.35 0.0 22.0 0.1 21.9 0.3 19.85 0.15 18.5 -0.65 17.6 -0.65 17.55 Q-1.65 17.2 -2.4 16.5 L-2.55 16.35 -2.6 16.1 -3.15 15.9 -4.45 14.65 -5.75 14.1 -8.5 14.45 -9.75 14.75 -9.95 15.0 -10.3 15.55 -10.45 15.65 -10.65 15.9 -10.8 15.95 -11.8 16.05 Q-12.95 15.05 -12.5 13.55 L-13.7 13.5 -14.15 14.2 -14.6 14.75 -14.75 14.55 -14.1 13.85 -13.9 13.55 -13.85 13.55 -13.45 13.0 -12.95 12.3 -12.8 12.05 -11.9 10.5 -11.95 9.95 -11.95 9.75 -11.95 9.6 -11.45 9.65 -10.65 9.6 -10.2 11.05 Q-9.15 9.5 -9.5 7.8 L-9.25 7.7 -9.05 7.0 -7.85 6.0 -7.65 5.95 -7.3 5.7 Q-6.2 4.6 -5.5 3.35 -3.8 1.0 -2.7 -1.6 L-2.3 -2.25 -2.25 -2.5 -1.5 -4.15 Q-0.85 -6.4 -0.65 -8.7 L-0.5 -11.0 -0.6 -11.85 M13.1 -1.85 L13.1 -1.75 12.65 -2.05 11.05 -2.3 11.0 -2.3 10.95 -2.3 10.7 -2.25 Q10.55 -3.4 11.65 -3.3 12.7 -3.2 13.1 -2.75 L13.1 -1.85 M-1.9 35.5 L-1.8 35.8 -1.95 36.3 -2.45 36.7 -2.25 36.85 Q-3.55 38.75 -5.35 39.75 L-6.85 39.45 -7.35 39.3 -7.55 39.25 -8.1 39.25 Q-7.95 38.65 -7.25 38.3 L-6.15 37.6 -6.05 37.75 -5.9 38.05 -5.65 37.55 -6.1 37.55 -6.0 37.45 -5.45 36.9 -5.15 36.95 -4.95 36.6 -4.9 36.4 -4.8 36.05 -4.75 35.65 -4.2 33.8 -4.1 33.55 -4.05 33.4 -4.0 33.3 -4.0 33.25 -3.95 32.4 Q-3.7 31.0 -4.95 30.3 L-5.0 30.3 -5.25 30.3 Q-5.9 30.3 -6.1 30.9 L-6.45 31.45 -6.75 31.65 -7.05 31.7 -7.1 31.35 Q-7.05 30.45 -5.9 29.6 L-5.05 29.5 -4.3 29.55 Q-3.25 29.85 -3.2 31.3 L-3.2 31.65 -3.2 31.7 Q-3.25 33.0 -2.9 34.0 L-2.8 34.25 -2.7 34.4 -2.1 35.35 -1.9 35.5 M-8.3 39.35 L-8.8 39.9 -8.75 39.9 -8.8 39.95 -7.95 40.2 -6.35 40.65 Q-8.1 43.4 -8.25 46.4 L-9.5 45.6 -9.5 45.25 Q-8.2 44.0 -7.8 42.15 L-8.1 42.05 -8.5 41.9 -8.85 41.7 -8.9 41.7 -9.1 41.6 -9.65 41.35 -9.8 41.25 -10.2 41.05 -10.1 40.95 -11.65 39.9 -11.9 40.3 Q-13.0 41.7 -13.7 43.4 L-14.2 44.0 -14.45 44.2 -14.45 44.4 -14.5 44.4 -14.55 44.4 -14.65 44.3 -14.8 44.25 -14.85 44.25 -14.9 44.25 -14.95 44.2 -15.05 44.15 -15.25 44.1 -15.35 44.05 -15.45 44.0 -15.6 44.0 -15.75 43.95 -15.7 43.45 Q-15.4 41.8 -14.35 40.7 L-14.55 40.45 -15.15 39.45 -15.35 38.4 -15.15 38.2 -15.1 37.9 -14.85 37.65 -15.1 37.65 -14.6 37.15 -13.05 37.5 Q-13.2 34.95 -14.35 32.55 L-14.55 32.2 -14.65 32.55 -15.9 37.1 -15.95 37.25 -16.0 37.25 -16.15 36.4 -16.2 36.25 Q-16.3 35.25 -16.05 34.3 L-15.95 34.05 -15.1 32.4 -15.05 32.35 -15.05 32.3 -15.0 32.3 -15.0 32.25 -14.9 32.15 -14.9 32.1 -14.8 32.0 -14.55 31.7 Q-14.8 27.55 -13.3 24.1 L-12.1 20.95 -12.05 20.75 -12.0 20.55 -11.3 18.25 -11.05 17.35 -10.95 16.9 -10.9 16.9 -10.7 18.1 -10.7 19.1 -10.7 19.25 -10.7 19.45 -10.95 20.6 -11.0 20.8 -11.15 21.1 -11.7 22.2 -11.85 22.5 -11.9 22.55 -11.95 22.65 -12.0 22.7 -12.05 22.8 -12.1 22.9 -12.15 23.0 -12.2 23.05 Q-12.7 24.05 -12.85 25.15 L-12.9 25.35 -12.9 27.35 -12.85 27.7 -13.0 34.05 -13.05 37.5 -12.2 37.9 -11.45 38.3 -8.3 39.35 M-13.3 76.8 Q-12.5 77.2 -11.95 78.05 L-11.55 78.5 -11.4 78.6 -11.7 87.45 Q-13.1 88.8 -11.85 89.45 -10.6 90.1 -10.5 91.55 -9.8 93.5 -10.75 95.1 L-10.95 95.4 -11.4 95.9 -11.3 95.4 Q-10.95 93.45 -12.05 91.95 L-13.05 90.35 -13.8 88.35 Q-12.35 87.8 -12.6 86.3 -12.8 84.8 -12.4 83.55 L-12.8 80.5 Q-13.05 78.85 -14.6 78.7 -15.0 78.5 -15.0 78.0 -13.45 77.8 -13.3 76.8 M-19.0 95.25 L-19.55 94.55 -19.8 94.2 -20.55 93.3 -20.75 93.15 -21.05 92.85 Q-22.2 91.75 -22.35 90.2 -22.45 88.9 -22.2 87.65 L-22.05 87.4 -21.85 87.15 Q-20.7 87.2 -19.85 88.15 L-19.6 88.1 -19.3 88.05 -18.35 88.05 -18.25 88.05 -16.0 88.35 -15.7 88.5 -14.9 89.05 -14.5 89.6 -14.5 89.7 -14.75 90.15 Q-15.7 90.95 -15.8 92.5 L-15.7 92.9 -15.55 93.25 -15.45 93.5 -14.7 94.55 -14.6 94.65 -14.1 95.05 -13.35 95.5 -13.1 95.6 -13.4 95.9 Q-15.15 95.85 -16.0 94.45 L-16.0 94.4 -16.15 94.45 -16.35 94.55 -18.9 95.2 -18.95 95.2 -19.0 95.25 M-23.05 83.7 L-23.3 83.1 Q-23.45 80.95 -23.25 78.85 -23.2 78.05 -22.55 77.65 L-22.75 78.05 Q-23.1 79.15 -22.0 79.15 L-21.55 78.65 -21.45 78.45 -21.3 78.1 -21.3 78.0 Q-21.1 77.4 -21.35 76.8 L-22.15 77.3 -22.5 77.55 Q-22.0 76.3 -21.15 75.4 L-21.05 75.7 -20.7 76.2 -20.2 76.55 -20.2 76.6 -19.05 76.85 Q-16.9 76.9 -15.5 78.3 -16.65 78.7 -17.75 78.0 L-19.9 77.55 -20.4 77.45 Q-20.95 77.5 -21.0 78.25 L-21.05 78.7 Q-19.65 79.75 -17.8 79.95 -16.0 80.1 -14.6 81.15 L-15.0 84.75 -19.65 84.55 Q-20.6 83.8 -21.65 83.45 L-21.7 83.45 -21.8 83.4 -21.85 83.4 -23.0 83.15 -23.05 83.15 -23.05 83.7 M9.1 -6.85 L9.8 -7.55 9.3 -7.55 9.1 -6.85 M6.85 12.8 L7.15 12.3 7.4 12.15 7.45 12.1 7.65 11.95 Q8.1 11.15 8.75 10.9 L9.2 10.25 9.3 10.05 9.3 10.0 Q10.4 8.55 10.3 6.9 L9.05 8.35 5.5 12.2 3.95 13.45 Q2.45 14.3 0.65 14.45 L-0.35 14.5 -0.4 14.5 -1.05 14.45 -1.05 14.65 1.25 15.1 3.8 14.85 3.8 14.9 5.2 14.25 5.5 14.05 5.65 13.85 5.8 13.7 5.9 13.65 6.35 13.25 6.85 12.8 M3.9 15.6 L3.95 15.5 3.9 15.55 3.9 15.6 M-6.9 28.9 L-6.75 28.75 -6.25 28.2 -6.05 27.85 -5.9 27.7 -5.7 27.35 -5.15 25.7 -5.05 24.95 -5.05 24.8 -5.05 24.7 -5.25 24.05 -5.55 23.6 -6.05 22.6 -5.95 21.55 -5.9 21.35 -5.4 20.75 -4.7 21.2 -4.9 21.7 -5.0 21.95 -5.15 22.7 -5.05 23.7 -4.95 24.05 -4.45 24.8 -5.05 26.65 Q-5.7 28.1 -6.75 29.25 -7.75 30.25 -9.1 30.95 L-9.85 31.3 -11.0 31.7 -9.95 31.05 -9.55 30.8 -7.75 29.55 -6.9 28.9 M-11.0 34.15 L-11.0 33.6 -10.95 34.1 -10.5 36.2 -10.45 36.3 -10.4 36.4 -10.35 36.6 -10.25 37.9 -10.3 38.0 -10.5 38.55 -10.65 37.8 -10.8 36.75 -10.85 36.15 -10.9 36.15 -10.95 35.55 -11.0 34.15 M-13.15 40.0 Q-14.8 41.35 -15.5 43.55 L-15.1 43.35 Q-13.85 42.5 -13.35 41.15 L-13.1 39.95 -13.15 40.0 M-21.65 82.25 L-21.05 81.75 -20.65 80.2 -21.7 79.95 -21.85 79.95 -22.75 79.7 -22.7 80.3 -22.9 81.05 Q-23.25 81.65 -22.55 81.95 L-21.95 82.25 -21.7 82.25 -21.65 82.25 M-22.05 88.55 L-22.05 89.55 -22.05 89.6 -22.05 90.75 Q-21.95 92.1 -20.85 92.25 -21.05 90.35 -20.15 88.85 L-20.9 88.65 -21.9 88.4 -22.05 88.35 -22.05 88.55 M-5.65 84.85 L-5.55 85.05 -5.2 85.6 -5.55 85.3 -5.7 85.25 -6.35 85.15 -6.65 85.25 -7.0 85.45 -7.05 85.55 -8.8 87.45 Q-8.6 85.9 -7.35 84.95 L-6.35 84.35 -6.9 83.55 -8.6 84.55 -7.05 82.65 -5.65 84.85 M-15.9 83.85 L-15.5 84.05 -15.5 81.65 Q-16.85 80.7 -18.95 80.95 L-19.15 83.25 -19.15 83.35 -19.1 83.35 -19.0 83.35 Q-17.35 83.15 -15.9 83.85 M-13.6 86.95 Q-16.2 87.4 -18.45 86.25 L-19.65 86.45 Q-18.6 85.4 -17.2 86.1 -15.85 86.85 -14.3 86.75 L-13.6 82.65 -13.6 86.95 M-19.25 89.1 L-19.3 89.1 -20.15 91.8 -19.75 92.4 -19.65 92.5 Q-19.05 93.4 -18.2 93.7 L-17.35 93.35 Q-15.95 92.55 -16.0 90.55 -16.9 89.2 -18.35 88.8 L-19.15 88.65 -19.25 89.1 M-19.85 83.15 L-19.85 80.95 Q-21.25 82.35 -19.85 83.15" fill="#1e5a77" fill-rule="evenodd" stroke="none"/>
    <path d="M3.05 -12.1 L3.25 -11.35 3.25 -10.65 3.05 -12.1" fill="#ffffff" fill-rule="evenodd" stroke="none"/>
    <path d="M1.5 -4.6 L1.65 -4.85 4.3 -5.7 Q5.45 -3.9 5.9 -1.65 6.6 1.75 6.1 5.2 L5.75 6.0 4.3 7.85 4.5 7.65 1.6 9.15 Q0.3 9.65 -1.0 9.75 L-2.3 9.75 -2.35 10.1 Q-2.1 8.1 -2.4 6.0 L-2.5 5.0 -2.4 4.8 -2.35 4.9 Q-1.95 5.4 -1.35 5.3 0.35 4.95 -0.2 3.1 L-0.1 2.95 0.0 2.85 0.15 2.55 0.2 2.45 4.0 -1.1 Q5.0 -2.1 5.2 -3.4 5.25 -3.85 4.9 -4.15 3.7 -5.1 1.95 -4.9 L1.5 -4.6 M12.65 -4.15 Q13.2 -3.7 13.25 -2.85 L13.3 -2.45 13.1 -1.85 13.1 -2.75 Q12.7 -3.2 11.65 -3.3 10.55 -3.4 10.7 -2.25 L10.95 -2.3 11.0 -2.3 11.05 -2.3 12.65 -2.05 13.1 -1.75 13.05 -1.35 13.05 -1.25 Q11.6 -1.8 10.75 -1.25 10.35 -2.1 10.7 -3.15 L10.75 -3.95 12.65 -4.15 M7.75 13.55 L7.65 13.65 7.75 13.55 M-0.8 34.9 L-0.55 35.15 -0.65 35.2 -0.8 34.9 M-8.1 39.25 L-8.3 39.35 -11.45 38.3 -12.2 37.9 -13.05 37.5 -13.0 34.05 -10.9 36.15 -10.85 36.15 -10.8 36.75 -10.65 37.8 -10.5 38.55 -10.3 38.0 -10.25 37.9 -10.35 36.6 -10.4 36.4 -8.45 36.9 -8.8 36.85 -8.65 36.65 -5.7 32.05 -5.35 31.0 -5.25 30.3 -5.0 30.3 -4.95 30.3 Q-3.7 31.0 -3.95 32.4 L-4.0 33.25 -4.0 33.3 -4.05 33.4 -4.1 33.55 -4.2 33.8 -4.75 35.65 -4.8 36.05 -4.9 36.4 -4.95 36.6 -5.15 36.95 -5.45 36.9 -6.0 37.45 -6.1 37.55 -6.2 37.55 -6.05 37.75 -6.15 37.6 -7.25 38.3 Q-7.95 38.65 -8.1 39.25 M-11.4 78.6 L-11.4 78.5 -11.2 78.3 -11.0 78.15 -10.2 77.8 -9.95 77.8 -9.9 77.85 -9.35 78.0 -7.35 79.0 Q-6.55 79.35 -6.35 80.35 -6.15 81.2 -5.15 80.2 -5.6 79.0 -5.35 77.5 -2.55 77.8 -2.2 80.35 -1.85 82.75 -0.4 84.5 L-0.25 84.65 Q0.35 85.0 -0.05 85.65 L-0.1 85.75 -0.1 87.25 -0.25 90.75 Q-0.45 93.75 -3.25 95.4 -2.8 94.6 -2.65 93.7 L-2.1 92.95 Q-1.4 91.95 -1.35 90.65 L-1.3 90.0 -1.2 88.25 Q-2.5 88.1 -3.75 88.75 L-3.9 88.8 -3.5 88.55 -4.05 88.85 -4.0 88.9 -4.05 88.9 -4.2 88.7 Q-4.8 88.35 -5.0 87.65 L-5.15 87.1 -5.2 86.85 -5.35 87.15 -5.35 88.15 -6.1 87.65 Q-6.3 87.05 -6.15 86.45 L-6.2 87.4 -6.35 87.45 -6.6 87.15 Q-8.1 87.45 -8.6 89.35 -8.8 91.65 -8.4 93.85 -8.15 95.15 -9.1 96.0 L-8.65 95.55 -8.55 96.2 -8.55 97.15 -8.5 97.3 Q-7.75 97.1 -7.15 98.15 L-6.6 99.5 Q-5.8 101.9 -3.45 103.1 L-4.0 102.95 -4.65 102.7 -5.55 102.45 -6.55 102.25 -6.6 102.25 -6.75 102.1 -7.95 101.15 -8.65 100.3 Q-9.45 101.0 -10.5 101.3 L-12.1 100.1 -12.2 100.0 Q-11.1 100.75 -9.5 100.0 L-11.15 99.5 -11.2 99.5 -11.9 99.35 -12.5 99.1 -12.65 99.05 -12.6 99.05 -12.85 98.65 -13.25 97.95 -13.6 96.85 -13.7 96.8 -14.3 96.4 -14.6 96.75 -14.55 96.95 Q-14.45 97.9 -14.0 98.7 L-13.95 98.9 -13.7 99.2 -12.6 101.2 Q-14.85 100.9 -15.8 98.8 L-15.7 98.8 -15.95 98.3 Q-16.2 97.6 -16.05 97.0 L-16.0 97.0 -16.1 97.0 -16.15 97.05 -16.9 97.8 -17.0 97.95 -17.05 98.0 Q-18.7 97.15 -18.9 95.3 L-18.95 95.2 -18.9 95.2 -16.35 94.55 -16.15 94.45 -16.0 94.45 Q-15.15 95.85 -13.4 95.9 L-13.1 95.6 -13.35 95.5 -13.3 95.45 -13.4 95.35 -14.1 95.05 -14.6 94.65 -14.6 94.5 -14.7 94.55 -15.45 93.5 -15.3 93.35 -14.9 93.45 Q-14.3 93.5 -14.2 92.9 L-14.15 92.8 -14.05 92.4 -13.8 92.0 -13.4 91.05 -13.05 90.35 -12.05 91.95 Q-10.95 93.45 -11.3 95.4 L-11.4 95.9 -10.95 95.4 -10.75 95.35 -10.75 95.1 Q-9.8 93.5 -10.5 91.55 -10.6 90.1 -11.85 89.45 -13.1 88.8 -11.7 87.45 L-11.4 78.6 M-16.0 26.45 Q-14.95 24.2 -14.8 21.6 L-14.8 21.5 -14.8 21.4 -14.8 21.15 -14.8 21.0 -14.8 20.85 -13.1 18.45 -13.35 18.45 -13.45 18.45 -13.5 18.45 -13.9 18.55 -14.4 18.8 -15.0 19.2 -15.05 19.25 -15.4 19.6 -15.45 19.65 -15.5 19.7 -15.5 19.75 -16.0 20.35 -16.15 20.55 -16.9 21.75 -17.1 22.15 -17.1 21.9 Q-16.85 18.85 -15.15 16.4 L-15.4 16.05 -15.6 15.45 -15.5 15.35 -15.45 15.35 -15.25 15.15 -14.75 14.55 -14.6 14.75 -14.15 14.2 -13.7 13.5 -12.5 13.55 Q-12.95 15.05 -11.8 16.05 L-10.8 15.95 -10.65 15.9 -10.45 15.65 -10.3 15.55 -9.95 15.0 -9.75 14.75 -8.5 14.45 -5.75 14.1 -4.45 14.65 -3.15 15.9 -2.6 16.1 -2.55 16.35 -2.4 16.5 Q-1.65 17.2 -0.65 17.55 L-0.65 17.6 0.15 18.5 0.3 19.85 0.1 21.9 0.0 22.0 -0.7 26.35 -0.7 26.85 Q-0.9 28.5 -1.55 30.05 L-2.05 31.2 -2.1 31.1 Q-2.15 30.4 -2.55 30.1 L-2.4 29.8 -2.5 29.6 -2.55 29.5 -2.9 29.05 -3.3 28.7 Q-3.9 28.2 -4.75 28.05 -4.05 26.85 -3.85 25.55 -3.75 24.2 -4.15 23.05 L-4.25 22.3 -5.0 21.95 -4.9 21.7 -4.7 21.2 -5.4 20.75 -5.9 21.35 -5.95 21.55 -6.05 22.6 -5.55 23.6 -5.25 24.05 -5.05 24.7 -5.05 24.8 -5.05 24.95 -5.15 25.7 -5.7 27.35 -5.9 27.7 -6.05 27.85 -6.25 28.2 -6.75 28.75 -6.9 28.9 -6.65 28.45 -6.15 27.7 -5.85 26.7 -5.7 26.5 Q-5.6 25.6 -6.0 24.85 L-6.1 24.65 -6.55 23.85 -6.4 23.75 -6.2 23.25 Q-6.2 22.1 -6.75 21.15 L-6.75 21.05 -7.05 20.95 -9.65 20.75 -11.8 24.2 -12.3 25.3 -12.9 27.35 -12.9 25.35 -12.85 25.15 Q-12.7 24.05 -12.2 23.05 L-12.15 23.0 -12.1 22.9 -12.05 22.8 -12.0 22.7 -11.95 22.65 -11.9 22.55 -11.85 22.5 -11.7 22.2 -11.15 21.1 -11.0 20.8 -10.95 20.6 -10.7 19.45 -10.7 19.25 -10.7 19.1 -10.7 18.1 -10.9 16.9 -10.95 16.85 -10.95 16.9 -11.05 17.35 -11.3 18.25 -12.0 20.55 -12.05 20.75 -12.1 20.95 -13.3 24.1 Q-14.8 27.55 -14.55 31.7 L-14.8 32.0 -14.9 32.1 -14.9 32.15 -15.0 32.25 -15.0 32.3 -15.05 32.3 -15.05 32.35 -15.1 32.4 -15.95 34.05 -16.05 34.3 Q-16.9 32.2 -16.15 30.0 L-15.75 28.45 -15.5 26.95 -15.6 26.85 -16.0 26.45 M-11.95 9.6 L-12.4 3.8 -11.7 3.3 Q-12.5 2.4 -12.2 0.65 L-10.7 0.2 Q-12.05 -0.2 -11.6 -1.35 -11.15 -2.45 -11.0 -3.45 -7.6 -9.75 -1.05 -11.75 L-0.6 -11.85 -0.5 -11.0 -0.65 -8.7 Q-0.85 -6.4 -1.5 -4.15 L-2.25 -2.5 -2.3 -2.25 -2.7 -1.6 Q-3.8 1.0 -5.5 3.35 -6.2 4.6 -7.3 5.7 L-7.65 5.95 -7.85 6.0 -9.05 7.0 -9.25 7.7 -9.5 7.8 -9.8 6.85 Q-10.65 4.75 -10.25 2.65 L-10.15 2.8 Q-8.25 -0.25 -6.65 -3.4 L-5.9 -4.4 Q-4.25 -5.95 -3.6 -8.1 L-3.05 -8.7 -2.6 -8.9 Q-2.95 -9.4 -3.85 -9.55 L-4.3 -9.4 -6.7 -7.4 -6.75 -7.35 -8.75 -5.0 -9.0 -4.65 Q-11.1 -1.55 -10.4 2.25 L-10.25 2.6 Q-11.5 6.35 -10.65 9.6 L-11.45 9.65 -11.95 9.6 M10.6 -4.45 L10.55 -4.55 Q10.25 -5.0 10.2 -5.5 L10.3 -5.35 Q10.9 -6.05 11.5 -5.65 L11.5 -5.35 Q11.05 -4.85 10.5 -4.85 L10.6 -4.45 M-21.15 43.9 L-21.15 43.85 -21.1 43.9 -21.15 43.9 M-16.65 43.8 L-16.65 43.45 Q-16.75 41.4 -16.05 39.55 L-15.35 38.4 -15.15 39.45 -14.55 40.45 -14.35 40.7 Q-15.4 41.8 -15.7 43.45 L-15.75 43.95 -15.6 44.0 -16.1 43.85 -16.65 43.8 M-15.1 37.65 Q-15.7 37.6 -15.95 37.25 L-15.9 37.1 -14.65 32.55 -14.55 32.2 -14.35 32.55 Q-13.2 34.95 -13.05 37.5 L-14.6 37.15 -15.1 37.65 M-15.95 37.3 L-16.0 37.35 -16.25 37.0 -16.3 36.7 -16.25 36.4 -16.2 36.25 -16.15 36.4 -16.0 37.25 -16.0 37.3 -15.95 37.3 M-5.05 23.7 L-5.0 23.75 -4.8 24.25 -4.95 24.05 -5.05 23.7 M-9.1 30.95 L-9.5 31.4 -9.85 31.3 -9.1 30.95 M-2.75 25.45 L-2.75 25.7 -2.75 25.45 M-0.65 24.65 L-0.7 24.6 -0.7 24.7 -0.65 24.65 M-14.45 44.4 L-14.45 44.2 -14.2 44.0 -13.7 43.4 Q-13.0 41.7 -11.9 40.3 L-11.65 39.9 -10.1 40.95 -10.2 41.05 -9.8 41.25 -9.8 41.3 -11.2 40.45 -10.5 41.85 -11.3 43.3 -11.45 43.45 Q-12.4 44.45 -13.75 44.6 L-14.4 44.45 -14.45 44.4 M-22.15 77.3 L-21.35 76.8 Q-21.1 77.4 -21.3 78.0 L-21.35 78.15 -21.5 78.45 -21.55 78.5 -22.55 78.5 Q-22.5 77.75 -22.15 77.3 M-22.7 80.3 L-22.75 79.7 -21.85 79.95 -21.7 79.95 -20.65 80.2 -21.05 81.75 -21.65 82.25 -21.5 82.0 Q-21.2 81.45 -21.75 81.05 L-21.75 80.95 Q-21.9 80.2 -22.7 80.3 M-22.0 89.6 Q-21.5 89.7 -21.15 89.3 -20.85 88.9 -20.9 88.65 L-20.15 88.85 Q-21.05 90.35 -20.85 92.25 -21.95 92.1 -22.05 90.75 L-22.05 89.6 -22.0 89.6 M-5.55 85.05 Q-4.6 83.6 -3.0 83.15 L-3.25 82.8 -4.3 81.5 -6.9 81.35 -7.55 81.15 -8.0 81.15 -6.8 82.3 -6.55 82.6 Q-5.2 83.6 -5.65 84.85 L-7.05 82.65 -8.6 84.55 -6.9 83.55 -6.35 84.35 -7.35 84.95 Q-8.6 85.9 -8.8 87.45 L-7.05 85.55 -7.0 85.45 -6.65 85.25 -6.35 85.15 Q-6.1 85.25 -5.85 85.5 L-5.75 85.35 -5.7 85.25 -5.55 85.3 -5.2 85.6 -5.55 85.05 M-5.2 85.6 L-5.0 85.9 -4.95 85.95 -5.2 85.6 M-19.15 83.25 L-18.95 80.95 Q-16.85 80.7 -15.5 81.65 L-15.5 84.05 -15.9 83.85 -15.75 83.65 -15.8 83.45 Q-16.95 81.95 -18.85 81.7 L-19.0 81.7 -19.1 83.25 -19.15 83.25 M-19.25 89.1 L-19.15 88.65 -18.35 88.8 Q-16.9 89.2 -16.0 90.55 -15.95 92.55 -17.35 93.35 L-18.2 93.7 Q-19.05 93.4 -19.65 92.5 L-19.6 92.4 -18.75 91.4 -18.3 90.8 Q-17.5 89.7 -18.45 88.95 L-19.0 88.95 -19.25 89.1" fill="#297ca5" fill-rule="evenodd" stroke="none"/>
    <path d="M1.5 -4.6 L1.95 -4.9 Q3.7 -5.1 4.9 -4.15 5.25 -3.85 5.2 -3.4 5.0 -2.1 4.0 -1.1 L0.2 2.45 0.15 2.55 0.0 2.85 -0.1 2.95 -0.2 3.1 Q0.35 4.95 -1.35 5.3 -1.95 5.4 -2.35 4.9 L-2.4 4.8 Q-1.8 3.55 -1.55 2.05 L-1.0 -0.2 -0.15 -0.05 -1.05 -0.65 -0.9 -0.55 -0.1 -2.15 0.55 -3.15 0.85 -3.5 3.45 -3.65 1.0 -3.75 1.5 -4.6 M-1.0 34.7 L-0.8 34.9 -0.65 35.2 -1.55 35.85 -1.75 35.65 -1.9 35.5 -2.1 35.35 -2.7 34.4 -2.8 34.25 -2.9 34.0 Q-3.25 33.0 -3.2 31.7 L-3.2 31.65 -3.2 31.3 -3.15 31.35 -3.1 31.25 -2.95 30.95 -2.55 30.1 Q-2.15 30.4 -2.1 31.1 L-2.05 31.2 -1.9 32.25 -1.65 33.1 Q-1.6 33.85 -1.05 34.65 L-1.0 34.7 M-16.0 74.65 L-15.0 75.1 Q-14.7 74.8 -14.8 74.2 -13.65 74.65 -13.4 75.9 L-13.3 76.8 Q-13.45 77.8 -15.0 78.0 -15.0 78.5 -14.6 78.7 -13.05 78.85 -12.8 80.5 L-12.4 83.55 Q-12.8 84.8 -12.6 86.3 -12.35 87.8 -13.8 88.35 L-13.05 90.35 -13.4 91.05 -13.8 92.0 -14.05 92.4 -14.15 92.8 -14.2 92.9 Q-14.3 93.5 -14.9 93.45 L-15.3 93.35 -15.45 93.5 -15.55 93.25 -15.7 92.9 -15.8 92.5 Q-15.7 90.95 -14.75 90.15 L-14.5 89.7 -14.5 89.65 -14.5 89.6 -14.9 89.05 -15.7 88.5 -16.0 88.35 -18.25 88.05 -18.35 88.05 -19.3 88.05 -19.6 88.1 -19.85 88.15 Q-20.7 87.2 -21.85 87.15 L-22.05 87.4 -22.2 87.65 -22.25 87.65 -22.15 87.0 Q-22.15 86.25 -22.55 85.5 -23.0 84.65 -23.05 83.7 L-23.05 83.15 -23.0 83.15 -21.85 83.4 -21.8 83.4 -21.7 83.45 -21.65 83.45 Q-20.6 83.8 -19.65 84.55 L-15.0 84.75 -14.6 81.15 Q-16.0 80.1 -17.8 79.95 -19.65 79.75 -21.05 78.7 L-21.0 78.25 Q-20.95 77.5 -20.4 77.45 L-19.9 77.55 -17.75 78.0 Q-16.65 78.7 -15.5 78.3 -16.9 76.9 -19.05 76.85 L-20.2 76.6 -20.2 76.55 -20.7 76.2 -21.05 75.7 -21.15 75.4 -21.35 74.4 Q-20.55 74.45 -19.95 75.15 -19.3 75.85 -18.65 74.9 L-17.4 75.05 Q-17.05 75.2 -16.85 74.85 L-16.8 74.65 -16.85 74.8 -16.0 74.65 M-2.65 93.7 Q-2.4 92.25 -2.95 90.55 -3.8 89.8 -4.05 88.9 L-4.0 88.9 -4.05 88.85 -3.5 88.55 -3.9 88.8 -3.75 88.75 Q-2.5 88.1 -1.2 88.25 L-1.3 90.0 -1.35 90.65 Q-1.4 91.95 -2.1 92.95 L-2.65 93.7 M-6.6 102.25 L-9.65 101.9 Q-9.4 101.85 -9.3 101.6 L-10.5 101.3 Q-9.45 101.0 -8.65 100.3 L-7.95 101.15 -6.75 102.1 -6.6 102.25 M-12.5 99.1 L-12.9 99.0 -12.6 99.05 -12.65 99.05 -12.5 99.1 M-22.55 77.65 L-22.5 77.6 -22.5 77.55 -22.15 77.3 Q-22.5 77.75 -22.55 78.5 L-21.55 78.5 -21.5 78.45 -21.45 78.45 -21.55 78.65 -22.0 79.15 Q-23.1 79.15 -22.75 78.05 L-22.55 77.65 M-20.65 71.4 L-20.75 71.15 -20.65 71.1 -20.65 71.4 M-21.15 43.9 L-21.15 43.85 Q-20.65 42.1 -20.65 40.15 L-20.25 39.7 -19.0 37.85 -18.7 37.2 Q-18.1 35.65 -18.1 33.95 -18.2 30.5 -16.5 27.4 L-16.0 26.45 -15.6 26.85 -15.5 26.95 -15.75 28.45 -16.15 30.0 Q-16.9 32.2 -16.05 34.3 -16.3 35.25 -16.2 36.25 L-16.25 36.4 -16.3 36.7 -16.25 37.0 -16.0 37.35 -15.95 37.3 -15.95 37.35 -15.95 37.25 Q-15.7 37.6 -15.1 37.65 L-14.85 37.65 -15.1 37.9 -15.15 38.2 -15.35 38.4 -16.05 39.55 Q-16.75 41.4 -16.65 43.45 L-16.65 43.8 -17.35 43.8 -18.15 43.9 -17.75 43.55 -18.6 44.0 -19.0 44.1 -19.05 44.05 -19.15 44.0 Q-19.65 43.6 -20.35 43.7 L-20.8 43.8 -21.1 43.9 -21.15 43.85 -21.15 43.9 M-17.1 22.15 L-17.2 22.35 Q-17.4 23.8 -18.2 25.0 -18.75 21.35 -17.3 18.15 L-16.5 16.65 -16.0 15.85 -15.6 15.45 -15.4 16.05 -15.15 16.4 Q-16.85 18.85 -17.1 21.9 L-17.1 22.15 M1.35 -1.75 L-0.1 -2.15 1.55 -1.55 1.35 -1.75 M-10.25 2.6 L-10.4 2.25 Q-11.1 -1.55 -9.0 -4.65 L-8.75 -5.0 -8.75 -4.95 -8.85 -4.85 -9.95 -1.85 -10.0 -1.75 Q-7.7 -6.25 -4.45 -8.95 L-4.75 -8.8 -4.85 -8.75 Q-5.7 -8.15 -6.5 -7.6 L-6.7 -7.4 -4.3 -9.4 -3.85 -9.55 Q-2.95 -9.4 -2.6 -8.9 L-3.05 -8.7 -3.6 -8.1 Q-4.25 -5.95 -5.9 -4.4 L-6.65 -3.4 Q-8.25 -0.25 -10.15 2.8 L-10.25 2.65 -10.2 2.4 -10.25 2.6 M-12.9 27.35 L-12.3 25.3 -11.8 24.2 -9.65 20.75 -7.05 20.95 -6.75 21.05 -6.75 21.15 Q-6.2 22.1 -6.2 23.25 L-6.4 23.75 -6.55 23.85 -6.1 24.65 -6.0 24.85 Q-5.6 25.6 -5.7 26.5 L-5.85 26.7 -6.15 27.7 -6.65 28.45 -6.9 28.9 -7.75 29.55 -9.55 30.8 -10.4 31.15 -10.7 31.3 -11.35 32.1 Q-11.9 33.0 -11.95 34.1 L-11.65 34.6 -11.35 34.55 -11.0 34.15 -10.95 35.55 -10.9 36.15 -13.0 34.05 -12.85 27.7 -12.9 27.35 M-10.95 34.1 L-10.4 33.25 Q-9.85 32.3 -8.8 32.05 L-7.1 31.35 -7.05 31.7 -6.75 31.65 -6.45 31.45 -6.1 30.9 Q-5.9 30.3 -5.25 30.3 L-5.35 31.0 -5.7 32.05 -8.65 36.65 -8.8 36.85 -8.45 36.9 -10.4 36.4 -10.45 36.3 -10.5 36.2 -10.95 34.1 M-0.65 24.65 L-0.7 24.7 -0.7 24.6 -0.65 24.65 M-2.75 25.45 L-2.75 25.7 -2.75 25.45 M-17.4 42.6 L-17.05 42.35 Q-16.6 41.4 -17.1 40.8 -17.45 40.35 -18.2 40.15 -17.75 39.25 -17.9 38.05 -19.85 40.2 -19.45 43.05 L-17.4 42.6 M-9.8 41.25 L-9.65 41.35 -9.8 41.3 -9.8 41.25 M-11.75 45.0 L-11.7 44.95 -11.7 45.0 -11.75 45.0 M-22.7 58.8 L-22.65 58.8 -22.7 58.8 M-22.7 80.3 Q-21.9 80.2 -21.75 80.95 L-21.75 81.05 Q-21.2 81.45 -21.5 82.0 L-21.65 82.25 -21.7 82.25 -21.95 82.25 -22.55 81.95 Q-23.25 81.65 -22.9 81.05 L-22.7 80.3 M-22.05 88.55 L-21.9 88.45 -21.9 88.4 -20.9 88.65 Q-20.85 88.9 -21.15 89.3 -21.5 89.7 -22.0 89.6 L-22.05 89.55 -22.05 88.55 M-5.65 84.85 Q-5.2 83.6 -6.55 82.6 L-6.8 82.3 -8.0 81.15 -7.55 81.15 -6.9 81.35 -4.3 81.5 -3.25 82.8 -3.0 83.15 Q-4.6 83.6 -5.55 85.05 L-5.65 84.85 M-19.1 83.25 L-19.0 81.7 -18.85 81.7 Q-16.95 81.95 -15.8 83.45 L-15.75 83.65 -15.9 83.85 Q-17.35 83.15 -19.0 83.35 L-19.1 83.25 M-13.6 86.95 L-13.6 82.65 -14.3 86.75 Q-15.85 86.85 -17.2 86.1 -18.6 85.4 -19.65 86.45 L-18.45 86.25 Q-16.2 87.4 -13.6 86.95 M-19.75 92.4 L-20.15 91.8 -19.3 89.1 -19.25 89.1 -19.0 88.95 -18.45 88.95 Q-17.5 89.7 -18.3 90.8 L-18.75 91.4 -19.6 92.4 -19.75 92.4 M-14.6 94.65 L-14.7 94.55 -14.6 94.5 -14.6 94.65 M-19.85 83.15 Q-21.25 82.35 -19.85 80.95 L-19.85 83.15" fill="#3399cc" fill-rule="evenodd" stroke="none"/>
    <path d="M-8.25 46.4 L-8.3 47.0 Q-6.95 48.1 -5.9 49.4 -4.1 51.75 -3.35 54.75 -2.25 59.4 0.65 62.65 L-0.5 61.95 -1.25 61.45 -2.25 60.65 Q-4.2 58.8 -5.15 56.1 L-5.35 56.1 Q-5.25 59.4 -3.25 61.65 -2.3 62.7 -0.85 63.55 L-0.8 63.6 -0.75 63.75 -0.45 64.6 Q0.1 66.35 0.25 68.25 L0.25 69.15 Q0.25 70.85 -0.15 72.7 -1.95 70.6 -2.55 67.65 -3.6 70.2 -2.1 72.3 -1.05 73.8 -1.55 75.45 L-2.05 76.6 -2.05 77.3 -2.9 76.75 -3.55 75.95 -3.6 75.9 -3.6 75.85 -3.65 75.8 -3.65 75.75 -3.7 75.75 -4.15 74.45 -4.15 74.4 Q-4.0 73.5 -4.45 72.7 -4.65 74.2 -5.6 75.45 -6.55 76.65 -6.35 78.3 L-7.25 77.7 Q-9.65 75.75 -9.05 73.0 L-8.95 72.25 -9.35 71.25 -9.4 71.4 -9.75 71.95 -9.85 71.95 Q-9.6 72.45 -9.5 73.0 L-9.65 74.05 -9.65 74.2 -9.8 74.05 -10.0 73.5 -10.05 73.45 -10.05 73.4 -9.95 73.5 -9.95 73.4 -10.15 71.4 -11.15 70.2 -11.55 69.65 -12.4 69.4 -12.75 68.9 -12.85 68.65 -12.9 68.55 -13.55 67.35 -13.65 67.3 -13.75 67.15 -14.15 66.8 -15.1 65.25 Q-15.45 64.65 -15.15 64.2 L-14.55 65.25 -14.75 63.75 -14.45 63.55 -14.6 63.5 Q-14.45 63.05 -14.7 62.65 L-14.35 62.1 Q-14.25 60.55 -13.8 59.15 -13.8 60.15 -13.4 61.1 L-12.7 63.0 Q-12.3 64.3 -11.05 64.2 L-11.0 64.15 Q-10.85 64.2 -10.75 64.35 L-10.65 64.35 -10.8 64.1 -10.85 64.05 -10.75 63.5 -11.25 61.75 -11.9 59.55 -12.0 57.9 -12.9 58.65 -13.2 59.0 -13.75 59.1 -13.8 59.1 -14.2 59.1 Q-15.5 58.05 -14.9 56.75 -15.45 57.15 -16.15 57.35 -16.35 57.4 -16.45 57.55 L-17.1 58.1 -17.3 58.15 -17.6 58.25 -18.15 58.85 -18.25 58.9 -18.6 60.55 Q-18.45 61.0 -18.55 61.65 L-18.45 63.3 -18.25 63.3 Q-17.05 64.1 -17.5 65.55 L-16.15 68.0 -16.1 68.1 -16.0 68.2 -16.05 68.3 -16.2 68.7 -16.35 69.1 -16.25 68.8 -16.05 68.75 -15.7 68.8 Q-14.8 70.65 -15.2 72.65 L-15.3 72.7 -15.8 73.2 -16.4 71.8 -17.4 70.1 Q-17.7 72.0 -16.7 73.9 L-16.65 74.0 -16.6 74.05 -16.5 74.2 -16.35 74.35 -16.0 74.65 -16.85 74.8 -16.8 74.65 -16.75 74.45 -16.7 74.4 -17.0 74.35 -18.75 73.85 -19.3 73.55 -19.45 73.2 -19.15 69.35 -19.1 69.15 -19.1 69.05 -19.05 68.8 -18.95 68.5 -18.95 68.35 -19.0 68.45 -19.1 68.55 -19.15 68.6 -19.2 68.65 -20.2 70.15 -20.3 70.35 -20.55 71.15 -20.65 71.1 -20.75 71.15 -20.8 71.05 -20.8 70.9 -20.85 70.85 -20.85 70.8 -21.85 67.45 Q-22.35 68.05 -22.5 68.7 L-22.6 68.45 -22.9 66.5 Q-23.0 65.2 -22.75 63.95 -22.5 62.5 -21.85 61.35 L-20.65 59.7 -20.45 59.55 -20.0 59.55 -19.55 59.65 -19.5 59.4 -19.15 58.25 -19.0 57.9 -18.3 57.2 -18.25 57.15 -18.2 57.1 Q-17.75 56.75 -17.8 56.4 L-17.9 56.1 -18.0 56.2 -20.2 58.55 -20.65 59.05 Q-21.1 58.2 -21.15 57.25 L-21.2 56.95 -21.0 55.7 -20.9 55.25 -20.85 55.1 -20.75 55.0 -20.1 54.2 -17.5 51.05 -16.95 50.55 -16.9 50.3 -16.7 50.3 -16.65 50.3 -16.6 50.25 -16.45 50.1 -16.4 50.15 -16.55 50.3 -17.0 50.75 -17.75 51.7 Q-19.5 54.05 -19.8 57.35 L-19.8 57.4 -19.85 57.5 Q-19.1 56.5 -17.95 56.0 L-17.65 55.85 -16.7 55.65 -16.5 55.15 -15.75 54.25 -15.65 54.2 -15.55 54.15 -15.15 54.15 -14.75 54.4 -14.4 54.9 -13.75 54.3 -13.25 53.9 -13.1 53.75 -12.25 52.75 -12.3 52.75 -12.75 52.5 Q-13.15 52.05 -12.9 51.2 L-12.4 50.4 -11.8 49.75 Q-12.1 50.85 -12.7 51.45 L-11.7 50.6 -11.15 49.75 -11.15 49.7 -11.1 49.6 -11.05 49.5 -10.9 49.1 -10.85 46.9 -10.95 46.6 -10.95 46.55 -11.05 46.1 -11.15 45.95 -9.5 45.95 -9.5 45.6 -8.25 46.4 M-18.6 44.0 L-17.75 43.55 -18.15 43.9 -19.3 45.05 Q-20.25 46.3 -20.85 48.2 L-20.75 48.2 -20.35 48.4 -21.2 49.25 -21.7 49.9 Q-23.3 51.95 -23.45 54.6 L-23.95 54.6 Q-24.0 52.65 -22.95 51.05 -21.95 49.5 -22.05 47.4 L-21.95 47.3 -21.85 47.1 -19.1 44.3 -18.6 44.0 M-15.05 44.15 L-14.95 44.2 -14.9 44.25 -14.85 44.25 -14.8 44.25 -14.65 44.3 -14.6 44.55 -14.6 44.6 -14.55 44.75 -14.55 44.8 -14.45 44.7 -13.15 45.2 -13.0 45.2 -12.3 45.15 -12.5 45.35 -12.95 45.7 Q-14.35 47.0 -15.4 48.6 L-15.7 48.95 -16.0 49.35 Q-17.95 49.6 -17.95 48.35 L-21.4 52.7 -21.45 52.8 -21.55 53.0 Q-21.7 51.1 -20.15 49.3 L-20.1 49.25 -19.45 48.6 Q-18.7 48.05 -17.95 47.65 L-17.8 47.6 -16.95 47.25 -16.9 47.15 -16.85 47.1 -16.3 45.7 -16.2 45.15 -15.05 44.15 M-7.5 58.55 L-7.6 57.8 -7.65 57.1 -7.95 56.55 -8.15 55.95 Q-8.95 55.05 -10.2 55.2 L-10.4 55.7 -9.0 57.25 -8.25 57.95 Q-8.2 60.15 -6.55 62.1 L-6.55 64.2 -6.8 68.25 -6.85 68.8 -5.1 68.85 -4.95 68.9 Q-4.15 67.15 -4.25 65.25 L-4.25 65.2 -4.3 64.55 Q-4.4 63.2 -5.1 62.0 L-5.35 61.6 -5.5 61.4 -6.45 60.0 -6.75 59.55 -6.8 59.45 -7.5 58.55 M-7.2 56.8 L-6.6 57.35 -8.8 52.0 Q-9.15 54.2 -8.0 55.85 L-7.2 56.8 M-17.25 47.7 L-17.1 47.5 -17.35 47.7 -17.25 47.7 M-13.5 54.75 L-13.5 54.85 -13.45 54.8 -13.5 54.75 M-18.8 67.85 L-18.8 67.8 -18.9 68.15 -18.8 67.9 -18.8 67.85 M-20.15 67.6 L-20.15 67.65 -19.85 67.45 -20.0 67.15 -20.5 66.25 -20.55 66.0 Q-21.0 64.8 -21.05 63.55 -21.35 65.35 -20.65 66.8 L-20.55 67.0 -20.15 67.6 M-6.1 62.65 L-5.3 63.7 -4.95 64.35 -4.9 64.45 -6.1 62.65 M-8.6 60.65 Q-8.6 62.15 -7.85 63.65 -7.15 65.15 -7.8 66.95 L-7.35 66.25 Q-6.8 63.2 -8.6 60.65 M-7.15 68.85 L-7.0 68.85 Q-8.4 66.35 -11.0 64.9 L-8.3 67.5 -7.6 68.35 -7.15 68.85 M-23.2 59.0 L-22.95 58.5 -22.75 58.2 -22.6 57.9 -22.55 57.9 -22.65 58.5 -22.65 58.55 -22.7 58.8 -23.0 60.85 -23.75 65.25 -24.4 64.05 Q-25.5 64.9 -25.15 66.25 -26.1 64.8 -24.9 63.05 -24.25 60.95 -23.2 59.0" fill="#0b3d66" fill-rule="evenodd" stroke="none"/>
    <path d="M-22.5 68.7 Q-22.85 69.8 -22.15 71.0 -21.05 72.8 -23.05 74.2 L-25.15 74.2 Q-23.7 72.0 -24.2 70.05 L-24.2 70.0 -22.95 66.5 -22.9 66.5 -22.6 68.45 -22.5 68.7 M-25.4 58.3 L-25.35 58.3 -24.95 57.65 -25.0 57.65 -24.75 57.2 -25.15 53.9 -24.75 51.9 Q-24.05 49.4 -22.65 47.2 L-21.3 44.35 -21.15 43.9 -21.1 43.9 -20.8 43.8 -20.35 43.7 Q-19.65 43.6 -19.15 44.0 L-19.05 44.05 -19.05 44.2 -19.1 44.3 -21.85 47.1 -21.95 47.3 -22.05 47.4 Q-21.95 49.5 -22.95 51.05 -24.0 52.65 -23.95 54.6 L-23.45 54.6 Q-23.3 51.95 -21.7 49.9 L-21.45 50.0 -20.6 49.35 -20.25 49.25 -20.15 49.3 Q-21.7 51.1 -21.55 53.0 L-21.45 52.8 -21.4 52.7 -17.95 48.35 Q-17.95 49.6 -16.0 49.35 L-15.7 48.95 -15.65 49.0 -15.85 49.85 -16.0 49.8 -16.45 50.1 -16.6 50.25 -16.65 50.3 -16.7 50.3 -16.9 50.3 -16.95 50.55 -17.5 51.05 -20.1 54.2 -20.75 55.0 Q-21.05 54.55 -21.65 54.5 L-21.95 54.85 -22.05 54.85 -22.3 55.0 Q-24.3 56.55 -25.45 58.85 L-25.5 58.85 -25.5 58.8 -25.4 58.3 M-8.25 57.95 L-9.0 57.25 -10.4 55.7 -10.2 55.2 Q-8.95 55.05 -8.15 55.95 L-7.95 56.55 -7.65 57.1 -7.6 57.8 -7.5 58.55 -8.25 57.55 -8.3 57.5 -8.3 57.6 -8.3 57.65 -8.25 57.95 M-4.25 65.25 Q-4.15 67.15 -4.95 68.9 L-5.1 68.85 -6.85 68.8 -6.8 68.25 -6.55 64.2 -6.55 62.1 -6.2 62.5 -6.1 62.65 -4.9 64.45 Q-4.35 65.8 -4.65 67.15 -4.3 66.15 -4.25 65.25 M-16.1 68.1 L-16.15 68.0 -17.5 65.55 Q-17.05 64.1 -18.25 63.3 L-18.45 63.3 -18.55 61.65 Q-18.45 61.0 -18.6 60.55 L-18.25 58.9 -18.15 58.85 -17.6 58.25 -17.3 58.15 -17.1 58.1 -16.45 57.55 Q-16.35 57.4 -16.15 57.35 -15.45 57.15 -14.9 56.75 -15.5 58.05 -14.2 59.1 L-13.8 59.1 -13.8 59.15 Q-14.25 60.55 -14.35 62.1 L-14.7 62.65 -14.8 62.65 -14.8 62.6 -14.85 62.45 -14.85 62.1 -15.15 59.55 -15.25 58.55 Q-16.1 60.95 -15.5 63.15 L-15.15 64.2 Q-15.45 64.65 -15.1 65.25 L-14.15 66.8 Q-15.4 65.65 -17.0 65.15 L-16.6 66.0 -16.7 66.15 -16.45 66.3 Q-15.5 66.8 -15.9 68.0 L-16.1 68.1 M-13.75 59.1 L-13.2 59.0 -12.9 58.65 -12.0 57.9 -11.9 59.55 -11.25 61.75 -10.75 63.5 -10.85 64.05 -11.0 64.15 -11.05 64.2 Q-12.3 64.3 -12.7 63.0 L-13.4 61.1 Q-13.8 60.15 -13.8 59.15 L-13.75 59.1" fill="#0e508f" fill-rule="evenodd" stroke="none"/>
    <path d="M-5.0 21.95 L-4.25 22.3 -4.15 23.05 Q-3.75 24.2 -3.85 25.55 -4.05 26.85 -4.75 28.05 -3.9 28.2 -3.3 28.7 L-2.9 29.05 -2.55 29.5 -2.5 29.6 -2.4 29.8 -2.55 30.1 -2.95 30.95 -3.1 31.25 -3.15 31.35 -3.2 31.3 Q-3.25 29.85 -4.3 29.55 L-5.05 29.5 -5.9 29.6 Q-7.05 30.45 -7.1 31.35 L-8.8 32.05 Q-9.85 32.3 -10.4 33.25 L-10.95 34.1 -11.0 33.6 -11.0 34.15 -11.35 34.55 -11.65 34.6 -11.95 34.1 Q-11.9 33.0 -11.35 32.1 L-10.7 31.3 -10.4 31.15 -9.55 30.8 -9.95 31.05 -11.0 31.7 -9.85 31.3 -9.5 31.4 -9.1 30.95 Q-7.75 30.25 -6.75 29.25 -5.7 28.1 -5.05 26.65 L-4.45 24.8 -4.95 24.05 -4.8 24.25 -5.0 23.75 -5.05 23.7 -5.15 22.7 -5.0 21.95" fill="#66b4d9" fill-rule="evenodd" stroke="none"/>
    <path d="M-19.3 73.55 L-19.45 73.5 -19.45 73.2 -19.3 73.55 M-25.75 58.85 L-25.4 58.3 -25.5 58.8 -25.5 58.85 -25.5 58.95 -25.75 58.85 M-19.05 44.05 L-19.0 44.1 -19.05 44.2 -19.05 44.05 M-14.65 44.3 L-14.55 44.4 -14.6 44.55 -14.65 44.3 M-14.6 44.6 L-14.45 44.7 -14.55 44.8 -14.55 44.75 -14.6 44.6 M-10.95 46.55 L-11.2 45.95 -11.15 45.95 -11.05 46.1 -10.95 46.55 M-17.25 47.7 L-17.35 47.7 -17.1 47.5 -17.25 47.7 M-16.45 66.3 L-16.7 66.15 -16.45 66.25 -16.45 66.3 M-18.8 67.85 L-18.8 67.9 -18.9 68.15 -18.8 67.8 -18.8 67.85 M-16.2 68.7 L-16.05 68.75 -16.25 68.8 -16.35 69.1 -16.2 68.7 M-10.05 73.4 L-9.95 73.4 -9.95 73.5 -10.05 73.4" fill="#1060a0" fill-rule="evenodd" stroke="none"/>
    <path d="M-20.55 71.15 L-20.65 71.5 -20.65 71.4 -20.65 71.1 -20.55 71.15 M-19.0 44.1 L-18.6 44.0 -19.1 44.3 -19.05 44.2 -19.0 44.1 M-13.75 44.6 L-14.4 44.6 -14.4 44.45 -13.75 44.6 M-11.9 45.05 L-11.75 45.0 -11.7 45.0 -11.9 45.05 M-18.0 56.2 L-17.9 56.1 -17.8 56.4 -18.0 56.2" fill="#0033cc" fill-rule="evenodd" stroke="none"/>
    <path d="M-24.2 70.05 L-24.9 68.55 Q-26.75 66.0 -27.05 63.05 -27.0 60.8 -25.75 58.85 L-25.5 58.95 -25.45 58.85 Q-24.3 56.55 -22.3 55.0 L-22.05 54.85 -21.95 54.85 -21.65 54.5 Q-21.05 54.55 -20.75 55.0 L-20.85 55.1 -20.9 55.25 -21.0 55.7 -21.2 56.95 -21.15 57.25 Q-21.1 58.2 -20.65 59.05 L-20.2 58.55 -20.0 59.55 -20.45 59.55 -20.65 59.7 -21.85 61.35 Q-22.8 60.1 -22.5 58.5 L-22.35 58.05 -22.45 58.1 -22.3 57.95 -22.1 57.55 -22.05 56.1 -22.05 55.9 -22.25 56.1 -22.7 56.7 Q-22.7 57.7 -23.35 58.55 L-23.8 59.3 -23.95 59.7 -23.7 59.45 -23.2 59.0 Q-24.25 60.95 -24.9 63.05 -26.1 64.8 -25.15 66.25 -25.5 64.9 -24.4 64.05 L-23.75 65.25 -23.0 60.85 -22.7 61.45 Q-23.35 63.1 -23.4 64.95 -23.4 65.8 -22.95 66.5 L-24.2 70.0 -24.2 70.05 M-18.15 43.9 L-17.35 43.8 -16.65 43.8 -16.1 43.85 -16.15 44.15 -16.2 45.1 -16.2 45.15 -16.3 45.7 -16.85 47.1 -16.9 47.15 -16.95 47.25 -17.8 47.6 -17.95 47.65 Q-18.7 48.05 -19.45 48.6 L-20.1 49.25 -20.25 49.25 -20.6 49.35 -21.45 50.0 -21.2 49.25 -20.35 48.4 -20.75 48.2 -19.55 45.7 -19.3 45.05 -18.15 43.9 M-12.3 45.15 L-11.9 45.05 -11.7 45.0 Q-11.3 46.7 -11.6 48.85 L-11.6 48.95 -11.8 49.75 -12.4 50.4 -12.9 51.2 Q-13.15 52.05 -12.75 52.5 L-12.3 52.75 -12.25 52.75 -13.1 53.75 -13.25 53.9 -13.75 54.3 -14.4 54.9 -14.75 54.4 -15.15 54.15 -15.3 54.1 -15.55 54.15 -15.65 54.2 -15.75 54.25 -16.5 55.15 -16.7 55.65 -17.65 55.85 -17.95 56.0 -18.45 55.8 -18.45 55.85 -18.85 55.9 -19.1 56.1 Q-19.65 56.6 -19.8 57.35 -19.5 54.05 -17.75 51.7 L-16.85 50.95 Q-16.15 50.5 -15.85 49.85 L-15.65 49.0 -15.4 48.6 Q-14.35 47.0 -12.95 45.7 L-12.5 45.35 -12.3 45.15 M-8.25 57.95 L-8.3 57.65 -8.3 57.6 -8.25 57.55 -7.5 58.55 -6.8 59.45 -6.75 59.55 -6.45 60.0 -5.5 61.4 -5.35 61.6 -5.1 62.0 Q-4.4 63.2 -4.3 64.55 L-4.25 65.2 -4.25 65.25 Q-4.3 66.15 -4.65 67.15 -4.35 65.8 -4.9 64.45 L-4.95 64.35 -5.3 63.7 -6.1 62.65 -6.2 62.5 -6.55 62.1 Q-8.2 60.15 -8.25 57.95 M-7.2 56.8 L-8.0 55.85 Q-9.15 54.2 -8.8 52.0 L-6.6 57.35 -7.2 56.8 M-15.9 68.0 Q-15.5 66.8 -16.45 66.3 L-16.45 66.25 -16.6 66.0 -17.0 65.15 Q-15.4 65.65 -14.15 66.8 L-13.75 67.15 -13.65 67.3 -13.55 67.35 -12.9 68.55 -12.85 68.65 -12.75 68.9 -12.4 69.4 -11.55 69.65 -11.15 70.2 -10.15 71.4 -9.95 73.4 -10.05 73.4 -10.5 72.95 Q-11.3 72.2 -12.3 71.9 -13.9 71.35 -14.9 70.1 L-14.9 70.0 Q-14.9 69.05 -15.7 68.8 L-16.05 68.75 -16.2 68.7 -16.05 68.3 -16.0 68.2 -15.9 68.0 M-15.15 64.2 L-15.5 63.15 Q-16.1 60.95 -15.25 58.55 L-15.15 59.55 -14.85 62.1 -14.85 62.45 -14.8 62.6 -14.8 62.65 -14.75 63.45 -14.75 63.75 -14.55 65.25 -15.15 64.2 M-20.15 67.6 L-20.55 67.0 -20.65 66.8 Q-21.35 65.35 -21.05 63.55 -21.0 64.8 -20.55 66.0 L-20.5 66.25 -20.0 67.15 -19.85 67.45 -20.15 67.65 -20.15 67.6 M-12.95 70.25 Q-13.0 70.65 -12.7 70.4 L-12.7 70.3 -12.95 70.15 -12.95 70.25" fill="#126ab1" fill-rule="evenodd" stroke="none"/>
    <path d="M-9.65 74.2 L-10.05 75.35 Q-10.55 76.4 -11.4 77.3 L-12.4 77.3 Q-12.05 76.95 -12.25 75.55 -12.4 74.15 -13.1 73.2 -13.9 72.45 -14.7 72.55 L-15.2 72.65 Q-14.8 70.65 -15.7 68.8 -14.9 69.05 -14.9 70.0 L-14.9 70.1 Q-13.9 71.35 -12.3 71.9 -11.3 72.2 -10.5 72.95 L-10.05 73.4 -10.05 73.45 -10.0 73.5 -9.8 74.05 -9.65 74.2 M-15.6 44.0 L-15.45 44.0 -15.35 44.05 -15.25 44.1 -15.05 44.15 -16.2 45.15 -16.2 45.1 -16.15 44.15 -16.1 43.85 -15.6 44.0 M-15.4 48.6 L-15.65 49.0 -15.7 48.95 -15.4 48.6 M-15.85 49.85 Q-16.15 50.5 -16.85 50.95 L-17.75 51.7 -17.0 50.75 -16.55 50.3 -16.4 50.15 -16.0 49.8 -15.85 49.85 M-19.8 57.35 Q-19.65 56.6 -19.1 56.1 L-18.85 55.9 -18.45 55.85 -18.45 55.8 -17.95 56.0 Q-19.1 56.5 -19.85 57.5 L-19.8 57.4 -19.8 57.35 M-15.55 54.15 L-15.3 54.1 -15.15 54.15 -15.55 54.15 M-20.15 49.3 L-20.25 49.25 -20.1 49.25 -20.15 49.3 M-21.45 50.0 L-21.7 49.9 -21.2 49.25 -21.45 50.0 M-18.0 56.2 L-17.8 56.4 Q-17.75 56.75 -18.2 57.1 L-18.25 57.15 -18.3 57.2 -19.0 57.9 -19.15 58.25 -19.5 59.4 -19.55 59.65 -20.0 59.55 -20.2 58.55 -18.0 56.2 M-21.85 61.35 Q-22.5 62.5 -22.75 63.95 -23.0 65.2 -22.9 66.5 L-22.95 66.5 Q-23.4 65.8 -23.4 64.95 -23.35 63.1 -22.7 61.45 L-23.0 60.85 -22.7 58.8 -22.65 58.55 -22.65 58.5 -22.55 57.9 -22.55 57.8 -22.6 57.9 -22.75 58.2 -22.95 58.5 -23.2 59.0 -23.7 59.45 -23.95 59.7 -23.8 59.3 -23.35 58.55 Q-22.7 57.7 -22.7 56.7 L-22.25 56.1 -22.05 55.9 -22.05 56.1 -22.1 57.55 -22.3 57.95 -22.45 58.1 -22.35 58.05 -22.5 58.5 Q-22.8 60.1 -21.85 61.35 M-16.1 68.1 L-15.9 68.0 -16.0 68.2 -16.1 68.1 M-16.7 66.15 L-16.6 66.0 -16.45 66.25 -16.7 66.15 M-14.8 62.65 L-14.7 62.65 Q-14.45 63.05 -14.6 63.5 L-14.45 63.55 -14.75 63.75 -14.75 63.45 -14.8 62.65 M-13.8 59.15 L-13.8 59.1 -13.75 59.1 -13.8 59.15 M-10.85 64.05 L-10.8 64.1 -10.65 64.35 -10.75 64.35 Q-10.85 64.2 -11.0 64.15 L-10.85 64.05 M-13.5 54.75 L-13.45 54.8 -13.5 54.85 -13.5 54.75 M-7.15 68.85 L-7.6 68.35 -8.3 67.5 -11.0 64.9 Q-8.4 66.35 -7.0 68.85 L-7.15 68.85 M-25.45 58.85 L-25.5 58.95 -25.5 58.85 -25.45 58.85 M-20.75 48.2 L-20.85 48.2 Q-20.25 46.3 -19.3 45.05 L-19.55 45.7 -20.75 48.2 M-22.7 58.8 L-22.65 58.8 -22.7 58.8 M-12.95 70.25 L-12.95 70.15 -12.7 70.3 -12.7 70.4 Q-13.0 70.65 -12.95 70.25" fill="#0e5085" fill-rule="evenodd" stroke="none"/>
    <path d="M-14.55 44.4 L-14.5 44.4 -14.45 44.4 -14.4 44.45 -14.4 44.6 -14.6 44.55 -14.55 44.4" fill="#126fba" fill-rule="evenodd" stroke="none"/>
    <path d="M-0.3 33.05 L-0.3 33.15 -0.3 33.05 M-6.1 37.55 L-5.65 37.55 -5.9 38.05 -6.05 37.75 -6.2 37.55 -6.1 37.55" fill="#1a4e66" fill-rule="evenodd" stroke="none"/>
    <path d="M-21.3 78.0 L-21.3 78.1 -21.45 78.45 -21.5 78.45 -21.35 78.15 -21.3 78.0" fill="#99a5c1" fill-rule="evenodd" stroke="none"/>
    <path d="M-9.95 77.8 L-9.4 77.95 -9.35 78.0 -9.9 77.85 -9.95 77.8 M-6.1 87.65 L-6.35 87.45 -6.2 87.4 -6.15 86.45 Q-6.3 87.05 -6.1 87.65 M-16.9 97.8 L-17.05 98.0 -17.0 97.95 -16.9 97.8 M-22.2 87.65 L-22.25 87.65 -22.2 87.65 M-21.65 83.45 L-21.7 83.45 -21.65 83.45 M-21.9 88.4 L-21.9 88.45 -22.05 88.55 -22.05 88.35 -21.9 88.4 M-22.05 89.55 L-22.0 89.6 -22.05 89.6 -22.05 89.55 M-14.5 89.6 L-14.5 89.65 -14.5 89.7 -14.5 89.6 M-5.7 85.25 L-5.75 85.35 -5.85 85.5 Q-6.1 85.25 -6.35 85.15 L-5.7 85.25 M-19.15 83.25 L-19.1 83.25 -19.0 83.35 -19.1 83.35 -19.15 83.35 -19.15 83.25 M-19.65 92.5 L-19.75 92.4 -19.6 92.4 -19.65 92.5 M-16.0 94.45 L-16.15 94.45 -16.0 94.4 -16.0 94.45 M-10.75 95.1 L-10.75 95.35 -10.95 95.4 -10.75 95.1" fill="#6c7fb0" fill-rule="evenodd" stroke="none"/>
    <path d="M-16.1 97.0 L-16.1 97.05 -16.15 97.05 -16.1 97.0 M-13.35 95.5 L-14.1 95.05 -13.4 95.35 -13.3 95.45 -13.35 95.5 M-17.0 97.95 L-17.05 98.0 -17.0 97.95" fill="#53648a" fill-rule="evenodd" stroke="none"/>
    <path d="M-18.9 95.3 L-19.0 95.25 -18.95 95.2 -18.9 95.3" fill="#313a53" fill-rule="evenodd" stroke="none"/>
  </g>
</svg>
