<?xml version="1.0" encoding="UTF-8" standalone="no"?>
<svg xmlns:xlink="http://www.w3.org/1999/xlink" height="95.75px" width="16.3px" xmlns="http://www.w3.org/2000/svg">
  <g transform="matrix(1.0, 0.0, 0.0, 1.0, 11.15, 7.15)">
    <path d="M-3.75 82.05 L-4.4 82.7 Q-5.1 82.85 -5.35 82.25 L-5.1 82.3 -4.6 82.35 Q-3.3 80.6 -3.9 78.5 -5.2 76.95 -5.75 75.1 L-7.0 71.45 -7.4 69.05 Q-7.5 67.75 -8.8 67.8 -9.25 67.4 -9.15 66.85 L-8.4 67.5 -7.8 66.65 Q-8.35 64.0 -7.8 61.35 -7.2 58.65 -7.1 56.1 -7.05 55.2 -7.25 54.35 L-8.7 52.55 -9.95 50.1 -10.75 47.35 -11.15 44.45 Q-11.2 42.95 -10.85 41.5 L-10.2 39.35 -9.8 38.55 Q-10.05 36.3 -9.7 34.05 L-9.5 32.75 Q-8.65 28.7 -8.15 24.65 L-8.8 24.65 Q-8.85 23.95 -8.5 23.3 -8.7 23.05 -9.1 23.15 -9.6 23.15 -9.6 22.65 -9.5 21.6 -9.0 20.7 -8.55 19.85 -8.8 18.8 -8.55 17.4 -7.55 16.35 L-7.8 15.25 -8.05 12.75 -8.0 11.3 -7.55 8.35 Q-7.25 7.0 -6.55 5.8 L-5.75 4.45 -5.2 3.9 -5.1 3.2 Q-4.9 2.6 -5.0 1.85 -5.25 1.65 -5.4 1.85 L-5.85 1.95 Q-6.1 1.0 -5.45 0.45 L-4.3 -0.65 Q-4.8 -0.95 -5.1 -1.35 L-4.25 -2.6 Q-3.65 -2.7 -3.15 -3.0 -3.45 -3.4 -3.25 -3.75 L-2.5 -4.15 Q-2.05 -4.2 -2.35 -4.75 L-0.55 -6.4 Q0.4 -7.25 1.8 -7.15 L3.4 -6.9 Q4.15 -6.7 4.2 -5.65 5.15 -2.5 4.15 0.7 4.65 2.5 4.35 4.7 L3.5 7.75 Q3.15 9.3 2.1 10.6 L2.1 11.0 1.3 10.85 Q1.2 11.85 1.9 12.75 1.2 13.5 0.25 13.5 0.05 16.35 -0.85 18.9 L-0.65 20.05 -0.65 20.15 -0.6 20.3 -0.45 21.3 -0.45 21.4 Q-0.3 22.2 -0.45 22.95 L-0.8 24.3 -1.3 25.55 -1.5 25.85 -2.35 26.7 -2.6 28.7 Q-2.9 30.1 -2.1 31.45 L-2.15 34.1 -3.05 33.95 -3.0 34.05 Q-2.6 34.9 -2.85 35.95 -3.1 37.0 -2.3 37.7 L-2.45 38.2 -2.95 38.05 Q-2.75 38.75 -2.95 39.45 -2.6 40.75 -2.55 42.15 L-2.5 42.7 Q-2.05 44.75 -2.2 46.8 -2.4 49.35 -2.1 51.85 L-2.0 55.25 Q-1.75 57.95 -0.95 60.45 0.3 64.45 3.05 67.85 3.55 70.6 2.85 73.1 L2.2 74.85 3.1 76.2 Q3.5 76.7 4.1 76.8 L4.45 76.8 4.45 77.0 4.25 77.05 4.2 77.1 4.8 77.0 5.15 76.45 5.15 77.35 4.0 77.3 2.9 76.75 2.5 76.45 1.7 75.55 1.25 74.9 1.25 74.85 0.85 74.05 0.7 73.7 0.6 73.35 0.35 71.5 0.4 70.85 0.4 70.8 Q0.4 70.1 0.55 69.5 L0.6 69.45 0.6 69.35 0.7 69.0 0.75 68.8 0.9 68.35 1.0 68.1 1.25 68.1 1.2 68.25 1.1 68.95 Q0.8 70.85 1.3 72.7 L1.3 72.8 1.35 72.9 1.8 74.1 2.2 73.1 Q3.0 70.7 2.3 68.1 L2.15 67.9 Q0.95 66.3 0.1 64.6 L-1.8 61.0 -2.1 59.7 -2.6 57.0 -2.85 54.95 -2.95 50.45 -2.75 47.9 -2.7 46.2 -2.75 45.8 -2.75 45.75 -2.75 45.4 -2.8 45.1 -2.85 44.7 -3.8 38.55 -3.85 38.3 -3.9 38.1 -4.1 36.55 -4.1 36.5 -4.0 36.4 Q-3.7 36.0 -3.35 36.25 L-4.1 33.5 Q-3.75 33.35 -3.75 33.0 L-3.55 32.45 Q-3.3 32.05 -3.15 32.4 L-2.95 32.7 -2.8 32.7 -2.85 32.4 Q-2.95 31.5 -3.3 30.8 L-3.65 30.2 -3.3 28.95 -3.0 27.1 -3.0 26.7 -2.95 25.55 -2.25 25.65 -2.2 25.65 Q-0.8 23.95 -1.05 21.65 L-1.35 20.2 -0.9 19.1 -1.35 18.3 -1.3 18.15 -1.25 17.95 -1.25 17.8 -1.2 17.5 -1.2 17.45 -0.85 14.95 -0.8 14.3 -0.65 13.45 -0.3 12.85 -0.1 12.7 0.35 12.45 0.4 12.4 0.75 12.35 Q0.25 11.5 0.5 10.8 0.55 10.2 0.9 9.6 1.25 9.0 1.95 9.4 L2.15 8.95 Q2.05 8.6 2.45 8.6 2.75 7.25 3.35 5.95 L3.55 5.4 3.65 4.45 3.55 3.7 3.45 3.5 3.4 3.25 2.45 4.2 2.2 3.8 Q3.15 1.65 3.6 -0.85 4.05 -3.4 3.05 -5.7 L2.95 -5.65 2.85 -5.6 1.3 -4.45 1.1 -4.3 0.65 -3.9 Q0.25 -3.35 0.15 -2.45 0.0 -1.6 -0.7 -1.45 -0.7 -2.85 0.15 -3.85 L0.7 -4.75 0.95 -5.95 0.95 -6.3 0.9 -6.3 0.25 -6.15 -0.25 -5.85 -0.8 -5.3 -1.85 -3.55 Q-2.85 -2.65 -3.25 -1.15 L-2.9 -0.95 Q-3.1 -0.35 -3.6 0.1 L-4.25 5.2 -4.3 5.55 -4.4 6.1 -4.45 6.45 -4.8 5.1 -4.85 5.0 -5.1 4.6 -6.5 6.9 -7.05 9.9 -7.1 9.9 -7.1 9.95 -7.15 15.3 -7.15 15.85 -6.95 16.6 -7.2 16.95 -7.3 17.1 -7.35 17.2 -7.75 18.15 -7.95 19.05 Q-7.25 19.45 -7.9 20.4 -8.55 21.3 -8.5 22.25 L-7.65 22.35 -7.75 22.45 -7.8 23.4 Q-8.0 23.85 -7.3 24.0 L-7.45 25.7 -7.55 26.25 -8.5 31.5 -8.95 34.05 -9.15 36.6 -9.15 37.8 -9.1 38.4 -9.55 40.1 Q-10.4 44.05 -9.65 47.9 L-8.95 50.5 -8.8 50.95 -8.75 51.1 -8.2 52.25 -7.85 53.0 -7.5 53.7 -7.45 53.75 -7.45 53.65 -7.45 53.45 -7.45 52.95 -7.75 51.65 -7.5 52.25 -6.6 54.75 -6.55 55.0 -6.4 55.75 -6.4 55.95 -6.4 57.8 -6.45 58.65 -6.65 59.4 -6.55 59.4 -6.55 60.2 -6.65 60.2 -6.65 60.15 -6.75 60.05 -6.75 60.2 -6.95 61.65 -7.0 62.95 Q-7.15 66.65 -6.2 70.25 L-6.2 70.3 -6.15 70.3 -6.05 70.25 -5.85 71.75 -5.3 73.75 Q-4.6 76.15 -3.15 78.55 -2.7 80.55 -3.75 82.05 M1.9 84.0 L1.8 84.2 1.6 84.2 Q1.95 82.3 1.35 80.5 L0.85 78.75 0.55 77.6 0.45 77.3 0.4 77.1 0.35 77.05 0.35 76.9 0.55 76.9 0.7 77.2 1.95 80.45 Q2.55 82.2 1.9 84.0 M0.35 85.6 L-0.1 87.5 -0.45 88.25 Q-1.05 88.7 -1.7 88.55 L-1.9 88.5 -2.35 88.15 -2.45 87.8 -2.45 87.5 -2.2 87.75 -1.25 88.0 -1.0 88.0 -0.7 87.55 -0.7 87.5 Q0.1 86.0 -0.15 84.1 L-0.55 81.95 -1.4 77.3 -2.05 73.15 -2.15 72.35 -1.9 72.0 Q-1.25 73.8 -1.05 75.95 L-0.25 80.1 0.0 80.85 0.0 80.95 0.35 83.55 0.4 84.25 0.4 85.3 0.35 85.6 M-5.3 22.05 L-5.1 22.05 -5.1 22.2 -5.3 22.05 M-3.55 43.6 L-3.6 43.75 -3.65 43.65 -3.6 43.65 -3.55 43.6" fill="#000000" fill-rule="evenodd" stroke="none"/>
    <path d="M1.7 75.55 Q1.65 77.05 2.2 78.5 3.0 80.75 2.85 83.15 L2.55 85.65 2.6 85.9 2.55 86.25 2.5 86.35 2.45 86.4 2.4 86.4 2.15 86.4 2.1 86.35 2.05 86.3 1.9 84.0 Q2.55 82.2 1.95 80.45 L0.7 77.2 0.55 76.9 0.35 76.9 0.35 77.05 0.4 77.1 0.45 77.3 0.55 77.6 0.45 77.7 Q0.1 78.25 0.0 78.95 L0.35 80.9 0.0 80.95 0.0 80.85 -0.25 80.1 -1.05 75.95 Q-1.25 73.8 -1.9 72.0 L-2.15 72.35 -2.05 73.15 -1.4 77.3 -0.55 81.95 -0.15 84.1 Q0.1 86.0 -0.7 87.5 L-0.7 87.55 -1.25 88.0 -2.2 87.75 -2.15 87.65 -2.05 87.5 -0.9 85.55 -0.7 83.9 -1.0 83.6 -1.55 82.4 -2.2 80.65 -2.45 81.65 Q-2.75 82.55 -3.35 83.25 L-3.8 83.3 Q-4.25 82.95 -4.0 82.5 L-3.75 82.05 Q-2.7 80.55 -3.15 78.55 -4.6 76.15 -5.3 73.75 L-5.85 71.75 -6.05 70.25 -6.15 70.3 -6.2 70.25 Q-7.15 66.65 -7.0 62.95 L-6.95 61.65 -6.75 60.2 -6.65 60.2 -6.55 60.2 -6.55 59.4 -6.65 59.4 -6.45 58.65 -6.4 57.8 -6.4 55.95 -6.4 55.75 -6.55 55.0 -6.6 54.75 -7.5 52.25 -7.45 52.05 -7.45 51.55 Q-7.7 49.65 -6.8 48.2 L-5.85 52.75 -5.55 55.65 -5.55 56.05 -5.6 57.6 -5.7 58.3 -5.7 58.65 Q-6.0 60.65 -5.85 62.9 L-5.7 64.45 -4.1 67.0 -2.95 68.8 Q-3.4 67.0 -4.25 65.45 L-4.4 65.2 Q-5.45 63.85 -5.5 62.15 L-5.45 60.05 -5.3 58.5 -5.3 58.45 -5.25 58.05 -5.15 56.9 -5.1 56.1 Q-5.05 54.05 -5.55 52.1 L-6.6 47.9 -6.05 47.3 -5.35 49.25 -4.55 51.25 -4.55 51.35 Q-4.45 54.15 -3.95 56.95 -3.45 59.9 -2.4 62.75 L-1.45 65.0 -0.3 67.9 0.4 70.8 0.4 70.85 0.35 71.5 0.6 73.35 0.6 73.65 Q0.65 74.7 1.25 74.9 L1.7 75.55 M-9.15 36.6 L-8.95 34.05 -8.5 31.5 -7.55 26.25 -7.45 25.7 -7.3 24.0 Q-8.0 23.85 -7.8 23.4 L-7.75 22.45 -7.65 22.35 -8.5 22.25 Q-8.55 21.3 -7.9 20.4 -7.25 19.45 -7.95 19.05 L-7.75 18.15 Q-6.2 19.9 -5.7 22.2 -6.2 22.25 -6.75 21.8 -6.95 21.45 -6.75 21.15 -6.6 20.75 -7.0 20.5 -7.5 21.2 -7.45 22.15 -6.7 22.85 -5.7 22.7 L-5.65 22.7 -5.6 23.2 -5.4 23.85 -5.3 24.0 -6.0 24.45 Q-6.55 24.55 -6.75 25.0 -5.75 24.85 -5.15 24.2 L-5.4 24.45 -5.9 27.15 -6.05 27.15 -6.25 27.35 -6.55 27.7 Q-7.05 28.55 -6.7 29.15 L-6.65 29.25 -6.55 29.4 -6.55 31.6 -6.5 30.75 -6.65 31.05 Q-7.3 33.2 -8.3 35.2 L-9.15 36.6 M-4.25 5.2 L-3.6 0.1 Q-3.1 -0.35 -2.9 -0.95 L-3.25 -1.15 Q-2.85 -2.65 -1.85 -3.55 L-0.8 -5.3 -0.25 -5.85 0.7 -4.75 0.15 -3.85 Q-0.7 -2.85 -0.7 -1.45 0.0 -1.6 0.15 -2.45 0.25 -3.35 0.65 -3.9 L1.1 -4.3 1.35 -3.95 Q2.05 -3.05 2.0 -1.9 L2.0 -1.8 1.05 -0.45 Q-0.45 1.5 -0.4 4.15 -0.35 6.8 -1.45 8.7 0.2 6.85 0.15 4.4 0.1 1.9 1.3 -0.1 1.5 -0.75 2.0 -1.25 L1.75 0.9 0.75 5.15 0.85 4.8 -1.45 9.65 -2.55 12.75 -2.85 11.7 -2.75 11.3 Q-2.65 8.85 -1.65 6.9 -2.3 7.15 -2.55 7.9 L-3.25 9.2 -3.35 10.0 -3.8 6.65 -3.75 6.1 Q-3.7 5.35 -4.25 5.2 M-1.75 -1.6 Q-2.85 0.2 -3.05 2.25 L-3.4 6.5 -3.0 6.45 -2.35 2.35 Q-2.25 0.25 -1.75 -1.6 M-3.3 60.15 L-3.35 60.15 -3.3 60.2 -3.3 60.15 M-3.05 65.25 L-3.0 65.3 Q-1.4 66.2 -1.85 67.7 -2.3 69.15 -1.7 70.6 L-1.4 66.5 Q-2.65 64.6 -3.35 62.5 L-4.05 59.45 Q-4.55 62.55 -3.05 65.25" fill="#58852c" fill-rule="evenodd" stroke="none"/>
    <path d="M-0.25 -5.85 L0.25 -6.15 -0.25 -5.85 M3.65 4.45 L3.55 5.4 3.5 5.35 3.55 5.2 3.65 4.45 M-0.85 14.95 L-1.2 17.45 -1.15 17.15 -1.05 15.7 -0.85 14.95 M-3.05 14.7 L-3.0 14.75 -3.05 14.85 -3.05 14.7 M-6.05 27.15 L-5.9 27.15 -5.85 27.15 -5.85 27.2 -6.05 27.15 M-5.65 30.0 L-5.6 30.0 -5.7 30.85 -5.7 30.55 -5.65 30.0" fill="#669900" fill-rule="evenodd" stroke="none"/>
    <path d="M-7.75 18.15 L-7.35 17.2 -7.3 17.1 -7.2 16.95 -6.05 18.7 -5.25 20.15 Q-4.3 22.2 -4.0 24.5 L-3.55 28.75 -3.45 29.55 -3.3 28.95 -3.65 30.2 -3.3 30.8 -3.0 32.55 -2.95 32.7 -3.15 32.4 Q-3.3 32.05 -3.55 32.45 L-3.75 33.0 Q-3.75 33.35 -4.1 33.5 L-3.35 36.25 Q-3.7 36.0 -4.0 36.4 -4.8 34.45 -5.05 32.45 -5.35 30.2 -4.9 28.0 L-4.7 27.25 Q-4.4 26.4 -4.65 25.65 L-4.65 25.6 -4.6 25.5 -4.65 25.45 -4.7 25.4 -4.75 25.45 -4.8 25.55 -4.85 25.55 -4.75 25.05 -5.05 25.6 -5.15 25.65 -5.35 25.9 -5.9 27.15 -5.4 24.45 -5.15 24.2 -5.0 24.0 -5.2 23.8 -5.3 24.0 -5.4 23.85 -5.6 23.2 -5.65 22.7 -5.2 22.45 -5.1 22.2 -5.1 22.05 -5.3 22.05 -5.7 22.2 Q-6.2 19.9 -7.75 18.15 M0.25 -6.15 L0.9 -6.3 0.95 -6.3 0.95 -5.95 0.7 -4.75 -0.25 -5.85 0.25 -6.15 M1.1 -4.3 L1.3 -4.45 2.85 -5.6 2.95 -5.65 3.05 -5.7 Q4.05 -3.4 3.6 -0.85 3.15 1.65 2.2 3.8 L2.45 4.2 3.4 3.25 3.45 3.5 3.55 3.7 3.65 4.45 3.55 5.2 3.5 5.35 3.55 5.4 3.35 5.95 Q2.75 7.25 2.45 8.6 2.05 8.6 2.15 8.95 L1.95 9.4 Q1.25 9.0 0.9 9.6 0.55 10.2 0.5 10.8 0.25 11.5 0.75 12.35 L0.4 12.4 0.35 12.45 -0.1 12.7 -0.3 12.85 -0.65 13.45 -0.8 14.3 -0.85 14.95 -1.05 15.7 -1.15 17.15 -1.3 17.0 -1.5 16.35 -2.65 13.05 -2.55 12.75 -1.45 9.65 0.85 4.8 0.75 5.15 1.75 0.9 2.0 -1.25 2.05 -1.3 Q2.55 -1.9 2.5 -2.45 L2.0 -1.8 2.0 -1.9 Q2.05 -3.05 1.35 -3.95 L1.1 -4.3 M-2.75 47.9 L-2.95 50.45 -2.85 54.95 -2.6 57.0 -2.1 59.7 -1.8 61.0 0.1 64.6 Q0.95 66.3 2.15 67.9 L2.3 68.1 Q3.0 70.7 2.2 73.1 L1.8 74.1 1.35 72.9 1.3 72.8 1.3 72.7 Q0.8 70.85 1.1 68.95 L1.2 68.25 1.25 68.1 1.0 68.1 0.9 68.35 0.75 68.8 0.7 69.0 0.6 69.35 0.6 69.45 0.55 69.5 Q0.4 70.1 0.4 70.8 L-0.3 67.9 -1.45 65.0 -2.4 62.75 Q-3.45 59.9 -3.95 56.95 -4.45 54.15 -4.55 51.35 L-4.55 51.25 -3.75 54.2 Q-3.65 52.3 -4.05 50.6 L-4.65 49.3 -4.65 49.2 -4.75 49.05 -4.75 49.0 -5.25 47.4 -5.3 46.85 -5.3 47.1 -5.35 47.1 Q-5.85 45.05 -5.75 42.8 L-6.25 44.05 -6.25 44.5 -6.15 47.0 -6.05 47.3 -6.6 47.9 -7.0 46.1 -7.0 46.35 -6.8 48.2 Q-7.7 49.65 -7.45 51.55 L-7.45 52.05 -7.8 49.95 Q-7.9 47.8 -7.55 45.75 -7.25 44.15 -6.15 42.95 -5.8 42.6 -5.25 42.7 L-4.8 43.25 Q-4.35 43.9 -4.05 44.65 L-3.3 46.6 -3.1 47.2 -2.75 47.9 M0.6 73.35 L0.7 73.7 0.85 74.05 1.25 74.85 1.25 74.9 Q0.65 74.7 0.6 73.65 L0.6 73.35 M-2.6 16.6 L-1.75 18.3 -1.4 18.75 -1.45 18.85 -2.0 17.9 -2.05 17.85 -2.4 17.05 -2.6 16.6 M-6.05 27.15 L-5.85 27.2 -6.55 29.4 -6.65 29.25 -6.7 29.15 Q-7.05 28.55 -6.55 27.7 L-6.25 27.35 -6.05 27.15 M-5.0 37.0 L-4.15 38.65 -3.85 39.05 -3.85 39.25 -4.15 38.75 -4.2 38.65 -5.0 37.15 -5.0 37.0" fill="#4f7500" fill-rule="evenodd" stroke="none"/>
    <path d="M-7.5 52.25 L-7.75 51.65 -8.65 49.75 -8.55 48.7 -8.65 46.0 -8.6 46.1 -8.5 46.0 -8.6 45.95 Q-8.15 43.15 -6.5 40.95 L-6.25 40.85 -6.1 41.0 -5.9 41.15 -5.9 41.1 -5.65 41.35 -5.6 41.45 -3.75 43.55 -3.65 43.65 -3.6 43.75 -3.0 45.15 -2.9 45.4 -2.75 45.6 -2.75 45.4 -2.75 45.75 -2.75 45.8 -2.7 46.2 -2.75 47.9 -3.1 47.2 -3.3 46.6 -4.05 44.65 Q-4.35 43.9 -4.8 43.25 L-5.25 42.7 Q-5.8 42.6 -6.15 42.95 -7.25 44.15 -7.55 45.75 -7.9 47.8 -7.8 49.95 L-7.45 52.05 -7.5 52.25 M-9.1 38.4 L-9.15 37.8 -9.15 36.6 -8.3 35.2 Q-7.3 33.2 -6.65 31.05 L-6.5 30.75 -6.55 31.6 -8.25 37.2 -8.5 37.7 -9.1 38.85 -9.1 38.4 M-7.2 16.95 L-6.95 16.6 -6.45 16.8 -6.2 17.0 Q-5.05 18.1 -4.25 19.45 -2.9 22.0 -2.95 25.55 L-3.0 26.7 -3.0 27.1 -3.3 28.95 -3.45 29.55 -3.55 28.75 -4.0 24.5 Q-4.3 22.2 -5.25 20.15 L-6.05 18.7 -7.2 16.95 M-4.45 6.45 L-4.4 6.1 -4.3 5.55 -4.25 5.2 Q-3.7 5.35 -3.75 6.1 L-3.8 6.65 -3.35 10.0 -3.25 9.2 -2.55 7.9 Q-2.3 7.15 -1.65 6.9 -2.65 8.85 -2.75 11.3 L-2.85 11.7 -2.55 12.75 -2.65 13.05 -1.5 16.35 -1.3 17.0 -1.15 17.15 -1.2 17.45 -1.2 17.5 -1.25 17.8 -1.25 17.95 -1.3 18.15 -1.35 18.3 -1.4 18.75 -1.75 18.3 -2.6 16.6 -2.65 16.5 -2.7 16.2 -3.05 14.85 -3.0 14.75 -3.05 14.7 -4.0 11.75 -4.45 8.05 -4.45 6.45 M-3.3 30.8 Q-2.95 31.5 -2.85 32.4 L-2.8 32.7 -2.95 32.7 -3.0 32.55 -3.3 30.8 M-4.0 36.4 L-4.1 36.5 -4.1 36.55 -3.9 38.1 -3.9 38.3 -3.85 38.55 -3.85 39.05 -4.15 38.65 -5.0 37.0 -5.05 36.65 -5.2 36.55 -5.65 34.9 -5.8 31.8 -5.8 31.7 -5.8 31.6 -5.8 31.4 -5.8 31.3 -5.8 31.2 -5.75 31.1 -5.75 31.0 -5.7 30.85 -5.6 30.0 -5.65 30.0 -4.85 25.55 -4.8 25.55 -4.75 25.45 -4.7 25.4 -4.65 25.45 -4.6 25.5 -4.65 25.6 -4.65 25.65 Q-4.4 26.4 -4.7 27.25 L-4.9 28.0 Q-5.35 30.2 -5.05 32.45 -4.8 34.45 -4.0 36.4 M2.0 -1.8 L2.5 -2.45 Q2.55 -1.9 2.05 -1.3 L2.0 -1.25 Q1.5 -0.75 1.3 -0.1 0.1 1.9 0.15 4.4 0.2 6.85 -1.45 8.7 -0.35 6.8 -0.4 4.15 -0.45 1.5 1.05 -0.45 L2.0 -1.8 M-1.75 -1.6 Q-2.25 0.25 -2.35 2.35 L-3.0 6.45 -3.4 6.5 -3.05 2.25 Q-2.85 0.2 -1.75 -1.6 M-5.7 22.7 Q-6.7 22.85 -7.45 22.15 -7.5 21.2 -7.0 20.5 -6.6 20.75 -6.75 21.15 -6.95 21.45 -6.75 21.8 -6.2 22.25 -5.7 22.2 L-5.3 22.05 -5.1 22.2 -5.2 22.45 -5.65 22.7 -5.7 22.7 M-5.3 24.0 L-5.2 23.8 -5.0 24.0 -5.15 24.2 Q-5.75 24.85 -6.75 25.0 -6.55 24.55 -6.0 24.45 L-5.3 24.0 M-5.9 27.15 L-5.35 25.9 -5.15 25.65 -5.05 25.6 -5.0 25.6 -5.85 27.15 -5.9 27.15 M-6.8 48.2 L-7.0 46.35 -7.0 46.1 -6.6 47.9 -5.55 52.1 Q-5.05 54.05 -5.1 56.1 L-5.15 56.9 -5.25 58.05 -5.3 58.45 -5.3 58.5 -5.45 60.05 -5.5 62.15 Q-5.45 63.85 -4.4 65.2 L-4.25 65.45 Q-3.4 67.0 -2.95 68.8 L-4.1 67.0 -5.7 64.45 -5.85 62.9 Q-6.0 60.65 -5.7 58.65 L-5.7 58.3 -5.6 57.6 -5.55 56.05 -5.55 55.65 -5.85 52.75 -6.8 48.2 M-6.05 47.3 L-6.15 47.0 -6.25 44.5 -6.25 44.05 -5.75 42.8 Q-5.85 45.05 -5.35 47.1 L-5.25 47.4 -4.75 49.0 -4.75 49.05 -4.65 49.3 -4.05 50.6 Q-3.65 52.3 -3.75 54.2 L-4.55 51.25 -5.35 49.25 -6.05 47.3 M-3.05 65.25 Q-4.55 62.55 -4.05 59.45 L-3.35 62.5 Q-2.65 64.6 -1.4 66.5 L-1.7 70.6 Q-2.3 69.15 -1.85 67.7 -1.4 66.2 -3.0 65.3 L-3.05 65.25" fill="#2b5500" fill-rule="evenodd" stroke="none"/>
    <path d="M-8.75 51.1 L-8.8 50.95 -8.95 50.5 -8.85 50.4 -8.75 51.1 M-9.65 47.9 Q-10.4 44.05 -9.55 40.1 L-9.1 38.4 -9.1 38.85 -8.5 37.7 -8.25 37.2 -6.55 31.6 -6.55 29.4 -5.85 27.2 -5.85 27.15 -5.0 25.6 -5.05 25.6 -4.75 25.05 -4.85 25.55 -5.65 30.0 -5.7 30.55 -6.15 31.8 -6.45 33.2 Q-6.85 36.25 -5.5 38.9 L-4.9 39.95 -5.4 40.45 -5.5 40.4 -5.65 40.2 -6.35 40.1 Q-7.4 40.55 -7.95 41.6 L-8.15 42.0 -8.65 43.25 -9.1 45.05 -9.4 47.15 -9.65 47.85 -9.65 47.9 M-7.15 15.3 L-7.1 9.95 -7.05 9.9 -6.5 6.9 -5.1 4.6 -4.85 5.0 -4.8 5.1 -4.45 6.45 -4.45 8.05 -4.0 11.75 -3.05 14.7 -3.05 14.85 -2.7 16.2 -2.65 16.5 -2.6 16.6 -2.4 17.05 -2.5 17.9 -2.8 18.25 -2.95 18.65 -3.0 18.65 -4.75 16.65 -5.15 16.25 Q-6.1 15.55 -7.15 15.3 M-2.8 45.1 L-2.75 45.4 -2.9 45.4 -3.0 45.15 -2.95 45.15 -2.8 45.1" fill="#66cc33" fill-rule="evenodd" stroke="none"/>
    <path d="M-7.45 53.45 L-7.45 53.65 -7.45 53.75 -7.5 53.7 -7.55 53.5 -7.45 53.45 M-7.1 9.95 L-7.1 9.9 -7.05 9.9 -7.1 9.95 M-3.9 38.1 L-3.85 38.3 -3.8 38.55 -3.85 38.55 -3.9 38.3 -3.9 38.1 M-8.65 46.0 L-8.6 45.95 -8.5 46.0 -8.6 46.1 -8.65 46.0 M-3.65 43.65 L-3.55 43.6 -3.6 43.65 -3.65 43.65" fill="#717100" fill-rule="evenodd" stroke="none"/>
    <path d="M-6.75 60.2 L-6.75 60.05 -6.65 60.15 -6.65 60.2 -6.75 60.2 M-7.75 51.65 L-7.45 52.95 -7.45 53.45 -7.55 53.5 -8.2 52.25 -8.75 51.1 -8.85 50.4 -8.95 50.5 -9.65 47.9 -9.65 47.85 -9.4 47.15 -9.1 45.05 -8.65 43.25 -8.15 42.0 -7.95 41.6 Q-7.4 40.55 -6.35 40.1 L-5.65 40.2 -5.5 40.4 -5.4 40.45 -4.9 39.95 -5.5 38.9 Q-6.85 36.25 -6.45 33.2 L-6.15 31.8 -5.7 30.55 -5.7 30.85 -5.75 31.0 -5.75 31.1 -5.8 31.2 -5.8 31.3 -5.8 31.4 -5.8 31.6 -5.8 31.7 -5.8 31.8 -5.65 34.9 -5.2 36.55 -5.05 36.65 -5.0 37.0 -5.0 37.15 -4.2 38.65 -4.15 38.75 -3.85 39.25 -3.85 39.05 -3.85 38.55 -3.8 38.55 -2.85 44.7 -2.8 45.1 -2.95 45.15 -3.0 45.15 -3.6 43.75 -3.55 43.6 -3.65 43.65 -3.75 43.55 -5.6 41.45 -5.65 41.35 -5.9 41.1 -5.9 41.15 -6.1 41.0 -6.25 40.85 -6.5 40.95 Q-8.15 43.15 -8.6 45.95 L-8.65 46.0 -8.55 48.7 -8.65 49.75 -7.75 51.65 M-6.95 16.6 L-7.15 15.85 -7.15 15.3 Q-6.1 15.55 -5.15 16.25 L-4.75 16.65 -3.0 18.65 -2.95 18.65 -2.8 18.25 -2.5 17.9 -2.4 17.05 -2.05 17.85 -2.0 17.9 -1.45 18.85 -1.4 18.75 -1.35 18.3 -0.9 19.1 -1.35 20.2 -1.05 21.65 Q-0.8 23.95 -2.2 25.65 L-2.25 25.65 -2.95 25.55 Q-2.9 22.0 -4.25 19.45 -5.05 18.1 -6.2 17.0 L-6.45 16.8 -6.95 16.6 M-5.2 22.45 L-5.65 22.7 -5.2 22.45 M-5.7 22.7 L-5.65 22.7 -5.7 22.7 M-5.35 47.1 L-5.3 47.1 -5.3 46.85 -5.25 47.4 -5.35 47.1 M-4.75 49.05 L-4.65 49.2 -4.65 49.3 -4.75 49.05" fill="#669933" fill-rule="evenodd" stroke="none"/>
    <path d="M-2.9 45.4 L-2.75 45.4 -2.75 45.6 -2.9 45.4" fill="#66cc00" fill-rule="evenodd" stroke="none"/>
    <path d="M-2.0 55.25 Q-1.8 55.45 -1.75 55.85 L-0.95 60.45 Q-1.75 57.95 -2.0 55.25 M2.85 73.1 L2.85 73.55 Q2.8 74.5 3.2 75.35 L3.45 75.75 4.1 76.8 Q3.5 76.7 3.1 76.2 L2.2 74.85 2.85 73.1 M4.0 77.3 L3.45 77.3 2.5 76.45 2.9 76.75 4.0 77.3 M0.35 80.9 L0.55 82.95 0.45 85.3 0.35 85.6 0.4 85.3 0.4 84.25 0.35 83.55 0.0 80.95 0.35 80.9 M-1.7 88.55 L-1.75 88.6 Q-2.4 88.5 -2.35 88.15 L-1.9 88.5 -1.7 88.55 M-6.15 70.3 L-6.2 70.3 -6.2 70.25 -6.15 70.3 M-7.5 53.7 L-7.85 53.0 -8.2 52.25 -7.55 53.5 -7.5 53.7" fill="#ffffff" fill-rule="evenodd" stroke="none"/>
  </g>
</svg>
