<?xml version="1.0" encoding="UTF-8" standalone="no"?>
<svg xmlns:xlink="http://www.w3.org/1999/xlink" height="131.75px" width="31.5px" xmlns="http://www.w3.org/2000/svg">
  <g transform="matrix(1.0, 0.0, 0.0, 1.0, 22.55, 15.4)">
    <path d="M-3.1 -10.55 L-3.1 -10.35 -3.3 -10.15 -3.35 -10.2 -3.2 -10.4 -3.1 -10.55 M-10.1 35.85 L-10.2 36.95 -10.1 35.85 M-10.2 46.45 L-10.25 46.45 -10.3 45.5 -10.2 46.45" fill="#50788d" fill-rule="evenodd" stroke="none"/>
    <path d="M-3.35 -10.2 L-3.85 -9.5 -4.2 -8.95 -4.45 -8.55 Q-5.45 -6.9 -6.0 -5.05 -7.45 -0.65 -9.65 3.35 L-11.0 6.65 Q-13.1 11.35 -15.65 15.9 L-17.1 20.6 -17.1 20.65 -17.45 21.95 Q-19.65 31.05 -18.75 40.65 L-18.3 44.45 Q-17.75 47.95 -16.4 51.25 L-15.35 53.6 -14.25 56.2 Q-13.2 59.4 -13.25 63.05 L-13.25 63.4 -13.35 64.65 -13.5 65.85 -13.5 65.8 Q-14.0 69.0 -15.35 71.85 L-19.1 79.9 -19.6 81.35 Q-20.9 85.5 -21.35 90.0 L-21.45 91.15 -21.45 91.2 Q-21.65 95.8 -20.05 100.2 L-19.6 101.75 -18.9 103.4 -18.65 103.9 -18.6 104.05 -17.3 107.0 -16.6 108.2 Q-15.5 110.0 -15.0 112.05 L-15.15 112.5 -15.45 113.95 -16.5 114.1 -16.6 114.1 Q-16.65 114.05 -16.7 114.15 L-16.8 114.45 -16.75 114.6 -16.75 114.7 Q-16.3 115.25 -15.6 115.2 L-14.45 115.35 Q-13.4 114.15 -13.6 112.75 L-13.65 112.1 -13.8 111.15 -13.95 110.55 -14.05 109.85 -14.45 109.25 Q-15.05 107.8 -15.9 106.4 L-16.15 105.95 -17.3 103.2 -17.5 102.7 -17.65 102.0 Q-18.75 99.2 -19.2 96.3 L-19.7 93.5 -19.65 91.7 Q-19.5 88.6 -18.8 85.7 L-18.25 84.25 -17.7 82.6 -17.05 81.25 -15.9 78.5 Q-15.85 78.4 -15.8 78.45 L-15.55 77.85 -15.45 77.75 -15.1 76.9 -13.05 74.5 -13.05 74.55 -12.6 74.15 -12.1 73.75 -8.95 72.0 -4.35 72.2 -4.25 72.25 Q-3.35 72.6 -2.6 73.1 L-2.05 73.7 Q-0.3 75.25 1.05 77.15 L1.3 77.9 1.85 78.95 2.2 79.4 2.25 79.7 2.75 81.55 Q3.3 84.2 2.95 86.85 L2.9 87.45 2.2 90.75 Q1.85 91.3 1.65 91.95 L0.85 93.1 -0.95 95.0 -1.65 95.4 -2.65 96.0 -5.15 97.15 Q-6.65 97.7 -7.6 96.45 L-7.7 96.35 -7.75 96.1 Q-8.1 95.2 -7.55 94.4 L-7.55 94.1 -7.55 94.0 -7.7 93.85 -7.75 93.8 -8.0 93.75 -8.65 94.35 Q-9.0 94.7 -9.0 95.15 L-9.45 95.85 Q-9.65 97.3 -8.95 98.45 -7.95 99.25 -6.65 99.35 L-5.65 99.25 -3.75 99.0 -3.35 98.75 Q-0.9 98.0 1.2 96.35 L2.0 95.65 2.35 95.3 2.35 95.35 3.2 94.4 3.4 94.05 5.9 89.6 5.95 89.35 Q7.1 85.2 6.1 81.15 5.1 77.1 2.75 73.9 L-1.7 66.8 -4.35 62.3 -4.9 61.4 Q-7.55 56.65 -8.5 51.25 L-8.95 47.45 Q-9.5 42.15 -8.6 36.7 -7.65 31.25 -6.0 26.4 -3.8 20.15 -0.1 14.7 3.6 9.2 6.5 3.35 8.0 -0.55 7.9 -5.15 7.8 -9.75 5.05 -13.0 3.75 -14.2 2.0 -14.0 0.25 -13.8 -1.0 -12.85 L-1.15 -12.75 -1.8 -12.1 -2.4 -11.45 -2.5 -11.35 -2.45 -11.35 -2.8 -10.95 -3.1 -10.55 -3.2 -10.4 -3.35 -10.2 M6.85 -12.6 Q9.2 -8.55 8.95 -3.5 8.75 1.55 6.85 5.7 3.0 11.3 -0.45 17.1 -3.9 22.9 -5.95 29.3 -9.5 40.05 -7.4 51.25 L-6.6 54.6 Q-5.8 57.6 -4.35 60.35 L-2.45 63.65 Q0.35 67.75 2.7 72.15 6.55 77.55 7.3 84.1 7.55 90.75 3.2 95.65 L2.4 96.5 Q0.25 98.35 -2.5 99.35 L-8.05 99.7 Q-9.75 99.1 -10.45 97.4 -10.8 96.5 -10.35 95.85 L-9.55 94.45 Q-7.9 92.8 -5.9 92.6 L-6.8 93.85 -6.95 95.25 Q-7.05 96.2 -6.0 96.25 L-4.45 96.0 -3.15 95.5 Q-0.95 94.45 0.35 92.35 L1.25 90.5 1.85 88.3 2.0 87.55 2.2 83.8 2.15 81.9 1.85 80.2 Q0.95 77.25 -1.4 75.15 -2.75 73.85 -4.35 73.25 -5.5 72.75 -6.8 72.6 -11.35 72.9 -13.75 76.55 L-13.95 76.9 -14.05 77.1 -14.3 77.5 -14.35 77.7 -14.45 77.9 -16.3 81.85 -17.4 84.65 -18.4 88.6 -18.65 90.1 -18.85 92.2 -18.75 94.25 -18.2 97.9 -16.65 101.85 -15.95 103.4 -15.1 105.4 -14.6 106.5 Q-14.2 107.4 -13.95 108.35 -13.25 109.8 -12.85 111.3 -12.3 113.65 -13.95 116.15 -15.3 116.65 -16.45 115.9 -18.0 114.15 -18.65 111.85 L-17.7 112.6 -17.3 113.0 -16.7 113.4 -16.2 112.95 -15.95 112.65 Q-15.5 111.6 -15.9 110.55 L-16.3 109.75 -16.95 108.3 -18.0 106.75 -19.6 104.0 Q-20.7 101.95 -21.4 99.75 -23.1 94.85 -22.25 89.4 -21.6 83.95 -19.6 78.9 -18.2 75.3 -16.05 71.85 -14.75 68.0 -14.35 64.05 -14.0 60.05 -15.55 56.25 L-17.4 51.25 Q-20.35 42.0 -19.8 31.8 -19.6 25.75 -17.85 19.7 -16.1 13.6 -12.95 8.25 -11.55 4.6 -9.75 1.05 -8.0 -2.55 -6.8 -6.35 -5.75 -9.2 -3.85 -12.0 -1.95 -14.8 1.4 -15.35 5.05 -15.7 6.85 -12.6" fill="#000000" fill-rule="evenodd" stroke="none"/>
    <path d="M-3.35 -10.2 L-3.3 -10.15 -3.1 -10.35 -3.1 -10.55 -2.8 -10.95 -2.45 -11.35 -2.5 -11.35 -2.4 -11.45 -1.8 -12.1 -1.15 -12.75 -1.0 -12.75 -0.65 -12.8 -0.25 -12.75 1.3 -12.25 -0.35 -11.0 Q-1.0 -9.0 -1.9 -7.15 L-1.9 -7.75 -1.9 -7.2 Q-1.95 -6.5 -2.4 -5.7 -3.8 -3.1 -4.75 -0.25 L-5.85 2.75 -5.55 1.05 -6.45 0.95 -8.25 4.3 -10.25 7.7 Q-12.15 11.0 -12.7 14.75 L-12.65 14.85 -12.55 15.0 -12.35 14.95 Q-13.65 17.65 -14.4 20.45 L-14.4 20.5 -14.85 22.55 -14.9 22.95 Q-15.8 26.35 -16.2 29.95 L-16.8 35.55 Q-17.1 37.35 -17.0 39.25 -16.95 43.0 -16.15 46.7 -15.65 48.75 -14.1 50.35 L-13.8 50.35 -13.75 50.35 -13.75 50.55 -13.65 52.0 -12.7 60.55 Q-12.3 63.5 -13.5 65.8 L-13.5 65.85 -13.35 64.65 -13.25 63.4 -13.25 63.05 Q-13.2 59.4 -14.25 56.2 L-15.35 53.6 -16.4 51.25 Q-17.75 47.95 -18.3 44.45 L-18.75 40.65 Q-19.65 31.05 -17.45 21.95 L-17.1 20.65 -16.95 20.65 -17.1 20.6 -15.65 15.9 Q-13.1 11.35 -11.0 6.65 L-9.65 3.35 Q-7.45 -0.65 -6.0 -5.05 -5.45 -6.9 -4.45 -8.55 L-3.95 -8.8 -4.2 -8.95 -3.85 -9.5 -3.35 -10.2" fill="#c274a3" fill-rule="evenodd" stroke="none"/>
    <path d="M-4.2 -8.95 L-3.95 -8.8 -4.45 -8.55 -4.2 -8.95 M-9.3 8.5 L-9.25 8.45 -9.3 8.5 M-21.35 90.0 L-21.2 90.0 -21.45 91.15 -21.35 90.0" fill="#c5eeff" fill-rule="evenodd" stroke="none"/>
    <path d="M-14.9 22.95 L-14.85 22.55 -14.4 20.5 -14.25 20.5 -14.8 22.55 -14.9 22.95 M-1.9 -7.2 L-1.9 -7.75 -1.9 -7.15 -1.9 -7.2" fill="#98b5c5" fill-rule="evenodd" stroke="none"/>
    <path d="M-13.5 65.8 Q-12.3 63.5 -12.7 60.55 L-13.65 52.0 -13.75 50.55 -13.75 50.35 Q-13.55 50.15 -13.6 49.85 -13.3 49.1 -13.5 48.25 -14.35 44.55 -14.6 40.8 L-14.75 33.3 -14.45 25.95 -14.3 25.55 -14.25 25.1 Q-13.75 22.6 -13.55 20.1 L-13.6 20.05 -13.65 19.8 -13.7 19.8 -14.05 20.1 -14.1 20.2 -14.1 20.35 -14.25 20.5 -14.4 20.45 Q-13.65 17.65 -12.35 14.95 -11.85 14.8 -11.75 14.25 L-11.25 13.75 -10.4 12.35 -6.9 6.35 -5.95 3.25 -5.85 2.75 -4.75 -0.25 Q-3.8 -3.1 -2.4 -5.7 -1.95 -6.5 -1.9 -7.2 L-1.9 -7.15 Q-1.0 -9.0 -0.35 -11.0 L1.3 -12.25 Q2.65 -11.45 3.05 -9.55 4.05 -4.95 2.1 -0.7 1.1 1.35 0.4 3.55 L-2.5 11.95 -6.0 20.2 -8.0 24.75 -9.55 32.4 -10.1 35.85 -10.1 41.0 -9.95 42.9 Q-9.75 44.75 -10.2 46.45 L-10.3 45.5 -10.25 46.45 -10.25 46.55 -9.9 50.4 Q-9.35 55.0 -7.8 59.35 L-6.05 63.6 -5.5 65.05 -5.6 64.95 -5.5 65.1 -3.7 67.7 -1.95 70.1 -1.7 70.4 Q0.15 72.75 1.8 75.3 L3.05 77.45 3.45 78.15 3.65 78.45 Q4.6 80.25 4.9 82.3 5.2 84.8 5.0 87.3 4.75 89.95 3.85 92.5 L3.15 93.9 2.35 95.3 2.0 95.65 1.2 96.35 Q-0.9 98.0 -3.35 98.75 L-3.75 99.0 -5.65 99.25 -6.65 99.35 Q-7.95 99.25 -8.95 98.45 -9.65 97.3 -9.45 95.85 L-9.0 95.15 Q-9.0 94.7 -8.65 94.35 L-8.0 93.75 -7.75 93.8 -7.7 93.85 -7.55 94.0 -7.55 94.1 -7.55 94.4 Q-8.1 95.2 -7.75 96.1 L-7.7 96.35 -7.6 96.45 Q-6.65 97.7 -5.15 97.15 L-2.65 96.0 -1.65 95.4 -0.95 95.0 0.85 93.1 1.65 91.95 Q1.85 91.3 2.2 90.75 L2.9 87.45 2.95 86.85 Q3.3 84.2 2.75 81.55 L2.25 79.7 2.2 79.4 1.85 78.95 1.3 77.9 1.05 77.15 Q-0.3 75.25 -2.05 73.7 L-2.6 73.1 Q-3.35 72.6 -4.25 72.25 L-4.35 72.2 -8.95 72.0 -12.1 73.75 -12.6 74.15 -13.05 74.55 -13.05 74.5 -15.1 76.9 -15.45 77.75 -15.55 77.85 -15.8 78.45 Q-15.85 78.4 -15.9 78.5 L-17.05 81.25 -17.7 82.6 -18.25 84.25 -18.8 85.7 Q-19.5 88.6 -19.65 91.7 L-19.7 93.5 -19.2 96.3 Q-18.75 99.2 -17.65 102.0 L-17.5 102.7 -17.3 103.2 -16.15 105.95 -15.9 106.4 Q-15.05 107.8 -14.45 109.25 L-14.05 109.85 -13.95 110.55 -13.8 111.15 -13.65 112.1 -13.6 112.75 Q-13.4 114.15 -14.45 115.35 L-15.6 115.2 Q-16.3 115.25 -16.75 114.7 L-16.75 114.6 -16.8 114.45 -16.7 114.15 Q-16.65 114.05 -16.6 114.1 L-16.5 114.1 -15.45 113.95 -15.15 112.5 -15.0 112.05 Q-15.5 110.0 -16.6 108.2 L-17.3 107.0 -18.6 104.05 -18.65 103.9 -18.9 103.4 -19.6 101.75 -20.05 100.2 Q-21.65 95.8 -21.45 91.2 L-21.45 91.15 -21.2 90.0 -21.35 90.0 Q-20.9 85.5 -19.6 81.35 L-19.1 79.9 -15.35 71.85 Q-14.0 69.0 -13.5 65.8 M-10.1 35.85 L-10.2 36.95 -10.1 35.85 M-6.45 67.7 L-6.4 67.7 -6.55 66.8 Q-7.15 64.4 -9.9 63.9 L-10.2 63.9 -10.85 64.1 -11.3 64.8 -11.7 66.55 -11.7 66.65 -11.75 66.9 -12.15 67.1 Q-13.3 67.85 -13.6 69.1 -14.25 71.5 -11.75 71.25 -9.35 69.95 -6.8 69.25 -6.25 68.9 -6.3 68.3 L-6.45 67.7" fill="#8282bf" fill-rule="evenodd" stroke="none"/>
    <path d="M-1.0 -12.75 L-1.15 -12.75 -1.0 -12.85 -1.0 -12.75 M-10.2 46.55 L-10.25 46.55 -10.25 46.45 -10.2 46.45 -10.2 46.55 M-5.5 65.05 L-5.5 65.1 -5.6 64.95 -5.5 65.05 M3.15 93.9 L3.4 94.05 3.2 94.4 2.35 95.35 2.35 95.3 3.15 93.9" fill="#6666cc" fill-rule="evenodd" stroke="none"/>
    <path d="M1.3 -12.25 L-0.25 -12.75 -0.65 -12.8 -1.0 -12.75 -1.0 -12.85 Q0.25 -13.8 2.0 -14.0 3.75 -14.2 5.05 -13.0 7.8 -9.75 7.9 -5.15 8.0 -0.55 6.5 3.35 3.6 9.2 -0.1 14.7 -3.8 20.15 -6.0 26.4 -7.65 31.25 -8.6 36.7 -9.5 42.15 -8.95 47.45 L-8.5 51.25 Q-7.55 56.65 -4.9 61.4 L-4.35 62.3 -1.7 66.8 2.75 73.9 Q5.1 77.1 6.1 81.15 7.1 85.2 5.95 89.35 L5.9 89.6 3.4 94.05 3.15 93.9 3.85 92.5 Q4.75 89.95 5.0 87.3 5.2 84.8 4.9 82.3 4.6 80.25 3.65 78.45 L3.45 78.15 3.05 77.45 1.8 75.3 Q0.15 72.75 -1.7 70.4 L-1.95 70.1 -3.7 67.7 -5.5 65.1 -5.5 65.05 -6.05 63.6 -7.8 59.35 Q-9.35 55.0 -9.9 50.4 L-10.25 46.55 -10.2 46.55 -10.2 46.45 Q-9.75 44.75 -9.95 42.9 L-10.1 41.0 -10.1 35.85 -9.55 32.4 -8.0 24.75 -6.0 20.2 -2.5 11.95 0.4 3.55 Q1.1 1.35 2.1 -0.7 4.05 -4.95 3.05 -9.55 2.65 -11.45 1.3 -12.25" fill="#52527c" fill-rule="evenodd" stroke="none"/>
    <path d="M-13.75 50.35 L-13.8 50.35 -14.1 50.35 Q-15.65 48.75 -16.15 46.7 -16.95 43.0 -17.0 39.25 -17.1 37.35 -16.8 35.55 L-16.2 29.95 Q-15.8 26.35 -14.9 22.95 L-14.8 22.55 -14.25 20.5 -14.1 20.35 -14.1 20.2 -14.05 20.1 -13.7 19.8 -13.65 19.8 -13.6 20.05 -13.55 20.1 Q-13.75 22.6 -14.25 25.1 L-14.3 25.55 -14.45 25.95 -14.75 33.3 -14.6 40.8 Q-14.35 44.55 -13.5 48.25 -13.3 49.1 -13.6 49.85 -13.55 50.15 -13.75 50.35 M-12.35 14.95 L-12.55 15.0 -12.65 14.85 -12.7 14.75 Q-12.15 11.0 -10.25 7.7 L-8.25 4.3 -6.45 0.95 -5.55 1.05 -5.85 2.75 -5.95 3.25 -6.9 6.35 -10.4 12.35 -11.25 13.75 -11.75 14.25 Q-11.85 14.8 -12.35 14.95 M-9.3 8.5 L-9.25 8.45 -9.3 8.5 M-11.75 66.9 L-11.7 66.65 -11.7 66.55 -11.3 64.8 -10.85 64.1 -10.2 63.9 -9.9 63.9 Q-7.15 64.4 -6.55 66.8 L-6.4 67.7 -6.45 67.7 -11.95 68.05 -11.75 66.9 M-6.55 66.8 L-6.6 66.75 -6.55 66.8" fill="#ffffff" fill-rule="evenodd" stroke="none"/>
    <path d="M-14.4 20.5 L-14.4 20.45 -14.25 20.5 -14.4 20.5" fill="#9999ff" fill-rule="evenodd" stroke="none"/>
    <path d="M-17.1 20.6 L-16.95 20.65 -17.1 20.65 -17.1 20.6 M-10.2 46.45 L-10.2 46.55 -10.2 46.45 M-6.55 66.8 L-6.6 66.75 -6.55 66.8" fill="#9da9c4" fill-rule="evenodd" stroke="none"/>
    <path d="M-6.45 67.7 L-6.3 68.3 Q-6.25 68.9 -6.8 69.25 -9.35 69.95 -11.75 71.25 -14.25 71.5 -13.6 69.1 -13.3 67.85 -12.15 67.1 L-11.75 66.9 -11.95 68.05 -6.45 67.7" fill="#c77ea9" fill-rule="evenodd" stroke="none"/>
  </g>
</svg>
