<?xml version="1.0" encoding="UTF-8" standalone="no"?>
<svg xmlns:xlink="http://www.w3.org/1999/xlink" height="93.0px" width="26.9px" xmlns="http://www.w3.org/2000/svg">
  <g transform="matrix(1.0, 0.0, 0.0, 1.0, 7.1, 12.15)">
    <path d="M13.4 33.5 L13.8 33.35 17.55 32.6 Q15.3 28.15 14.05 23.4 L11.45 9.7 Q10.15 2.75 7.3 -3.45 5.75 -6.65 3.25 -9.4 2.0 -10.45 0.45 -10.85 L-1.6 -10.9 -2.2 -10.75 -2.7 -10.5 Q-5.55 -8.55 -5.85 -5.25 -7.2 1.25 -5.15 6.65 -3.2 11.8 -0.3 16.7 L-0.3 16.75 -0.1 17.0 -0.05 17.1 Q2.95 22.1 4.65 27.6 5.4 33.15 4.95 39.0 L7.5 37.0 10.75 34.85 Q12.0 34.05 13.4 33.5 M8.4 -3.05 Q10.9 2.65 12.1 8.85 13.25 15.05 14.65 21.25 16.05 27.45 19.1 33.05 19.5 33.9 19.5 34.75 19.5 35.55 19.8 36.4 L18.4 37.2 Q17.55 37.3 16.75 37.7 L17.15 38.0 Q17.55 42.2 16.9 46.3 17.8 48.3 17.25 50.65 16.65 52.95 17.35 55.05 16.55 57.0 16.9 59.05 17.25 61.05 16.1 62.95 L17.55 65.6 Q18.3 66.9 17.9 68.45 18.05 71.95 17.6 75.35 16.1 76.25 14.95 78.05 13.8 79.8 11.6 79.3 11.1 79.25 10.7 79.7 10.3 80.05 9.7 79.95 L9.0 80.65 8.25 80.6 Q8.0 80.0 7.4 79.9 L6.45 79.45 Q5.0 79.05 5.05 77.65 5.15 76.2 4.05 75.45 L3.6 74.25 Q3.8 72.7 3.6 71.15 3.35 69.6 4.45 68.45 5.8 67.3 6.5 65.8 L8.0 62.85 7.65 62.5 Q8.6 59.55 8.15 56.6 7.65 53.6 7.8 50.45 6.7 48.7 7.5 46.85 8.3 44.95 6.75 43.35 L5.75 44.2 4.7 44.95 4.35 45.25 Q3.4 41.0 3.9 36.85 4.4 32.6 3.6 28.4 2.1 23.4 -0.5 18.8 -3.1 14.15 -5.15 9.35 -7.2 4.5 -7.05 -1.3 -7.4 -6.05 -5.25 -9.8 L-2.2 -11.75 1.4 -11.95 Q4.2 -10.65 5.7 -8.1 L8.4 -3.05 M15.1 37.5 L18.8 36.25 17.9 33.15 Q17.3 33.05 16.9 33.4 16.2 33.35 15.55 33.75 L14.1 34.15 14.05 34.15 Q10.7 36.25 7.3 38.6 L5.55 39.8 4.75 40.0 4.7 43.85 7.15 41.7 Q9.15 40.15 11.4 39.1 L15.1 37.5 M12.05 45.85 L14.15 45.85 14.55 45.85 15.9 45.85 Q16.3 43.7 16.2 41.35 16.25 40.1 14.95 39.6 10.9 40.25 7.9 42.85 L8.2 44.55 8.3 44.9 8.35 45.35 Q8.35 45.8 8.8 45.85 L12.05 45.85 M10.1 46.7 L9.65 46.65 8.9 46.5 8.7 46.45 8.6 46.45 8.55 46.6 Q8.15 47.5 8.45 48.55 L8.9 50.9 8.95 50.85 8.9 51.05 8.95 51.35 8.95 51.4 8.9 51.5 9.15 51.6 8.8 51.5 8.8 51.75 8.95 54.15 9.0 54.15 8.9 54.6 8.95 54.95 8.8 54.95 9.25 57.5 9.2 57.65 Q9.1 57.95 9.3 58.2 L9.8 58.7 9.8 58.55 9.9 60.2 10.4 60.25 9.95 60.2 9.85 60.6 9.8 60.6 9.65 60.85 9.15 60.5 8.8 61.6 10.3 62.15 13.4 62.65 Q13.8 62.25 14.25 62.4 L14.35 62.4 15.35 62.5 Q15.85 61.65 15.95 60.65 L14.45 61.25 15.05 61.05 15.15 60.75 15.15 60.3 15.15 59.85 15.2 59.0 15.65 59.05 Q15.95 57.9 15.85 56.9 L15.05 56.65 15.2 56.45 15.4 55.45 15.4 55.35 15.95 53.85 14.55 53.4 14.65 52.7 14.25 52.6 14.7 52.7 14.9 50.9 15.1 50.1 16.35 50.2 16.45 50.1 16.5 48.0 Q16.65 46.9 15.55 46.75 L14.65 46.65 14.45 46.65 13.45 46.55 10.1 46.7 M8.95 51.75 L8.95 51.7 9.0 51.75 9.25 51.8 9.3 51.8 9.45 51.85 9.65 51.95 8.95 51.75 M16.55 74.75 Q17.25 71.6 17.05 68.1 17.05 66.75 16.3 65.8 15.5 64.75 15.25 63.55 L8.4 63.35 7.9 64.95 7.25 66.25 6.25 67.6 5.6 68.25 4.3 69.75 4.05 70.2 Q4.45 71.4 4.35 72.75 4.2 74.05 5.05 75.15 L5.7 73.85 Q6.9 73.45 6.7 72.35 6.5 71.2 7.5 70.4 L7.7 70.7 Q7.35 72.1 7.65 73.6 L7.75 73.9 Q8.15 75.5 7.15 76.9 6.8 76.1 7.0 75.4 L6.85 73.85 Q6.25 73.85 5.85 74.35 5.7 76.3 5.95 78.0 L7.45 78.85 7.55 78.9 Q8.25 79.0 8.9 79.4 L9.0 79.45 Q10.05 78.5 10.6 77.1 10.95 77.55 10.75 78.0 L10.45 78.9 Q11.55 78.15 13.1 78.35 L14.25 76.35 14.5 76.75 14.6 77.2 Q15.35 76.6 15.55 75.8 15.75 74.95 16.25 74.25 16.65 74.4 16.5 74.75 16.35 75.05 16.45 75.25 L16.55 74.75 M10.7 76.25 L10.7 76.4 9.8 76.35 9.5 76.2 9.85 76.15 10.3 76.1 10.7 76.1 10.7 76.25" fill="#000000" fill-rule="evenodd" stroke="none"/>
    <path d="M-1.6 -10.9 L0.45 -10.85 Q2.0 -10.45 3.25 -9.4 5.75 -6.65 7.3 -3.45 10.15 2.75 11.45 9.7 L14.05 23.4 Q15.3 28.15 17.55 32.6 L13.8 33.35 13.4 33.5 Q10.5 25.2 9.2 16.5 8.8 13.9 9.7 11.55 6.35 -0.75 -1.6 -10.9" fill="#928727" fill-rule="evenodd" stroke="none"/>
    <path d="M7.5 37.0 L4.95 39.0 Q5.4 33.15 4.65 27.6 2.95 22.1 -0.05 17.1 L-0.1 17.0 -0.3 16.75 -0.3 16.7 Q-3.2 11.8 -5.15 6.65 -7.2 1.25 -5.85 -5.25 -5.55 -8.55 -2.7 -10.5 L-2.2 -10.75 Q-2.25 -7.75 -2.7 -4.8 L-2.9 -2.4 Q-2.75 3.45 -0.45 8.75 1.15 12.55 1.75 16.5 L2.05 18.1 2.05 18.3 2.65 19.35 2.75 19.7 Q3.9 17.3 5.65 15.2 7.95 15.3 7.1 17.35 L5.8 27.0 Q5.7 27.75 5.95 28.55 7.35 31.05 7.45 33.95 L7.5 37.0" fill="#ddd380" fill-rule="evenodd" stroke="none"/>
    <path d="M13.4 33.5 Q12.0 34.05 10.75 34.85 L7.5 37.0 7.45 33.95 Q7.35 31.05 5.95 28.55 5.7 27.75 5.8 27.0 L7.1 17.35 Q7.95 15.3 5.65 15.2 3.9 17.3 2.75 19.7 L2.65 19.35 2.05 18.3 2.05 18.1 1.75 16.5 Q1.15 12.55 -0.45 8.75 -2.75 3.45 -2.9 -2.4 L-2.7 -4.8 Q-2.25 -7.75 -2.2 -10.75 L-1.6 -10.9 Q6.35 -0.75 9.7 11.55 8.8 13.9 9.2 16.5 10.5 25.2 13.4 33.5" fill="#cec24c" fill-rule="evenodd" stroke="none"/>
    <path d="M14.1 34.15 L15.55 33.75 Q16.2 33.35 16.9 33.4 17.3 33.05 17.9 33.15 L18.8 36.25 15.1 37.5 Q14.75 37.15 14.55 36.45 L14.15 34.55 14.1 34.15" fill="#9d9d4f" fill-rule="evenodd" stroke="none"/>
    <path d="M15.1 37.5 L11.4 39.1 Q9.15 40.15 7.15 41.7 L7.35 39.05 7.3 38.6 Q10.7 36.25 14.05 34.15 L14.1 34.15 14.15 34.55 14.55 36.45 Q14.75 37.15 15.1 37.5" fill="#b0b064" fill-rule="evenodd" stroke="none"/>
    <path d="M12.05 45.85 Q11.9 45.45 11.9 44.9 L12.0 41.75 11.65 41.8 Q10.25 42.1 9.25 43.1 8.4 43.9 8.3 44.9 L8.2 44.55 7.9 42.85 Q10.9 40.25 14.95 39.6 16.25 40.1 16.2 41.35 16.3 43.7 15.9 45.85 L14.55 45.85 14.15 45.85 12.05 45.85 M7.9 64.95 L8.4 63.35 15.25 63.55 Q15.5 64.75 16.3 65.8 17.05 66.75 17.05 68.1 17.25 71.6 16.55 74.75 L16.5 74.75 Q16.65 74.4 16.25 74.25 15.75 74.95 15.55 75.8 15.35 76.6 14.6 77.2 L14.5 76.75 14.25 76.35 13.1 78.35 Q11.55 78.15 10.45 78.9 L10.75 78.0 Q10.95 77.55 10.6 77.1 10.05 78.5 9.0 79.45 L8.9 79.4 9.8 76.35 10.7 76.4 10.7 76.25 11.7 76.1 Q12.4 75.85 12.45 75.2 12.65 73.75 11.6 73.4 L10.75 73.3 10.45 73.45 10.55 72.9 10.85 70.6 10.85 69.25 Q10.65 67.45 9.85 65.8 L9.7 65.6 Q9.25 64.9 8.35 64.9 L7.9 64.95 M13.3 72.95 L13.25 73.05 Q12.85 73.85 13.25 74.55 13.9 75.6 15.1 75.05 L15.45 74.6 Q16.65 73.2 15.45 71.95 L15.1 71.95 14.9 71.95 Q13.85 72.05 13.3 72.95 M10.3 76.1 L9.85 76.15 10.15 74.95 9.95 75.8 10.3 76.1" fill="#cb7a58" fill-rule="evenodd" stroke="none"/>
    <path d="M8.3 44.9 Q8.4 43.9 9.25 43.1 10.25 42.1 11.65 41.8 L12.0 41.75 11.9 44.9 Q11.9 45.45 12.05 45.85 L8.8 45.85 Q8.35 45.8 8.35 45.35 L8.3 44.9 M7.75 73.9 L7.65 73.6 7.8 73.65 7.75 73.9" fill="#e0b39e" fill-rule="evenodd" stroke="none"/>
    <path d="M7.15 41.7 L4.7 43.85 4.75 40.0 5.55 39.8 7.3 38.6 7.35 39.05 7.15 41.7" fill="#d0d0a4" fill-rule="evenodd" stroke="none"/>
    <path d="M10.1 46.7 L13.45 46.55 14.45 46.65 14.65 46.65 14.6 46.7 14.3 47.65 Q14.1 48.55 14.4 49.35 L14.35 49.35 14.05 50.1 10.9 50.4 10.85 49.75 10.7 48.2 Q10.6 47.2 10.1 46.7 M14.25 62.4 Q13.8 62.25 13.4 62.65 L10.3 62.15 10.6 61.5 10.7 60.9 10.0 60.65 13.0 61.3 14.05 61.3 Q13.85 61.8 14.05 62.35 L14.25 62.4 M8.55 46.6 L8.6 46.45 8.7 46.45 8.55 46.6 M10.75 52.25 L14.15 53.25 13.9 53.9 13.8 55.05 13.8 55.2 14.15 55.35 Q13.05 54.9 11.95 54.85 L10.3 54.65 10.45 54.3 10.7 52.65 10.75 52.25 M10.45 58.2 L10.6 57.8 10.8 55.4 14.25 56.35 Q13.8 57.45 14.3 58.65 L14.5 58.9 15.1 59.0 12.5 58.65 10.45 58.2 M11.25 59.15 L13.1 59.6 Q12.9 60.0 13.2 60.35 L13.35 60.5 10.85 60.35 11.1 59.8 11.25 59.15" fill="#999966" fill-rule="evenodd" stroke="none"/>
    <path d="M8.7 46.45 L8.9 46.5 9.65 46.65 10.1 46.7 Q10.6 47.2 10.7 48.2 L10.85 49.75 10.9 50.4 8.95 50.85 8.9 50.9 8.45 48.55 Q8.15 47.5 8.55 46.6 L8.7 46.45 M10.3 62.15 L8.8 61.6 9.15 60.5 9.65 60.85 9.8 60.6 9.85 60.6 10.0 60.65 10.7 60.9 10.6 61.5 10.3 62.15 M10.4 60.25 L9.9 60.2 9.8 58.55 11.25 59.15 11.1 59.8 10.85 60.35 10.4 60.25 M9.25 57.5 L8.8 54.95 8.95 54.95 10.8 55.4 10.6 57.8 10.45 58.2 10.25 58.15 9.45 57.85 9.3 57.8 9.25 57.5 M9.0 54.15 L8.95 54.15 8.8 51.75 8.95 51.75 9.65 51.95 10.25 52.1 10.5 52.2 10.55 52.2 10.75 52.25 10.7 52.65 10.45 54.3 10.3 54.65 9.0 54.15" fill="#c5b707" fill-rule="evenodd" stroke="none"/>
    <path d="M14.65 46.65 L15.55 46.75 Q16.65 46.9 16.5 48.0 L16.45 50.1 16.35 50.2 15.1 50.1 14.9 50.9 14.7 52.7 14.25 52.6 14.65 52.7 14.55 53.4 15.95 53.85 15.4 55.35 15.4 55.45 15.2 56.45 15.05 56.65 15.85 56.9 Q15.95 57.9 15.65 59.05 L15.2 59.0 15.15 59.85 15.15 60.3 15.15 60.75 15.05 61.05 14.45 61.25 15.95 60.65 Q15.85 61.65 15.35 62.5 L14.35 62.4 14.25 62.4 14.05 62.35 Q13.85 61.8 14.05 61.3 L13.0 61.3 10.0 60.65 9.85 60.6 9.95 60.2 10.4 60.25 10.85 60.35 13.35 60.5 13.2 60.35 Q12.9 60.0 13.1 59.6 L11.25 59.15 9.8 58.55 9.8 58.7 9.3 58.2 Q9.1 57.95 9.2 57.65 L9.25 57.5 9.3 57.8 9.45 57.85 10.25 58.15 10.45 58.2 12.5 58.65 15.1 59.0 14.5 58.9 14.3 58.65 Q13.8 57.45 14.25 56.35 L10.8 55.4 8.95 54.95 8.9 54.6 9.0 54.15 10.3 54.65 11.95 54.85 Q13.05 54.9 14.15 55.35 L13.8 55.2 13.8 55.05 13.9 53.9 14.15 53.25 10.75 52.25 10.55 52.2 10.5 52.2 10.25 52.1 9.65 51.95 9.45 51.85 9.3 51.8 9.25 51.8 9.0 51.75 8.95 51.7 8.95 51.75 8.8 51.75 8.8 51.5 9.15 51.6 8.9 51.5 8.95 51.4 8.95 51.35 8.9 51.05 8.95 50.85 10.9 50.4 14.05 50.1 14.35 49.35 14.4 49.35 Q14.1 48.55 14.3 47.65 L14.6 46.7 14.65 46.65 M10.65 51.65 L10.6 51.7 10.7 51.75 10.65 51.65" fill="#686846" fill-rule="evenodd" stroke="none"/>
    <path d="M10.65 51.65 L10.7 51.75 10.6 51.7 10.65 51.65 M16.55 74.75 L16.45 75.25 Q16.35 75.05 16.5 74.75 L16.55 74.75" fill="#ffffff" fill-rule="evenodd" stroke="none"/>
    <path d="M8.9 79.4 Q8.25 79.0 7.55 78.9 L7.45 78.85 5.95 78.0 Q5.7 76.3 5.85 74.35 6.25 73.85 6.85 73.85 L7.0 75.4 Q6.8 76.1 7.15 76.9 8.15 75.5 7.75 73.9 L7.8 73.65 7.65 73.6 Q7.35 72.1 7.7 70.7 L7.5 70.4 Q6.5 71.2 6.7 72.35 6.9 73.45 5.7 73.85 L5.05 75.15 Q4.2 74.05 4.35 72.75 4.45 71.4 4.05 70.2 L4.3 69.75 5.6 68.25 6.25 67.6 7.25 66.25 7.9 64.95 8.35 64.9 Q9.25 64.9 9.7 65.6 L9.85 65.8 Q10.65 67.45 10.85 69.25 L10.85 70.6 10.55 72.9 10.35 72.9 Q9.9 73.1 9.7 73.55 9.55 73.95 9.75 74.35 L10.2 74.95 Q10.65 75.25 11.4 74.75 L11.75 74.15 11.6 73.4 Q12.65 73.75 12.45 75.2 12.4 75.85 11.7 76.1 L10.7 76.25 10.7 76.1 10.3 76.1 9.95 75.8 10.15 74.95 9.85 76.15 9.5 76.2 9.8 76.35 8.9 79.4 M15.1 71.95 L15.45 71.95 Q16.65 73.2 15.45 74.6 L15.1 75.05 Q13.9 75.6 13.25 74.55 12.85 73.85 13.25 73.05 L13.3 72.95 13.35 73.1 Q13.75 74.2 14.85 73.6 L15.25 73.15 Q15.6 72.3 15.1 71.95" fill="#e6c0ae" fill-rule="evenodd" stroke="none"/>
    <path d="M10.55 72.9 L10.45 73.45 10.75 73.3 11.6 73.4 11.75 74.15 11.4 74.75 Q10.65 75.25 10.2 74.95 L9.75 74.35 Q9.55 73.95 9.7 73.55 9.9 73.1 10.35 72.9 L10.55 72.9 M13.3 72.95 Q13.85 72.05 14.9 71.95 L15.1 71.95 Q15.6 72.3 15.25 73.15 L14.85 73.6 Q13.75 74.2 13.35 73.1 L13.3 72.95" fill="#eed5ca" fill-rule="evenodd" stroke="none"/>
    <path d="M16.5 74.75 L16.55 74.75 16.5 74.75" fill="#eacabc" fill-rule="evenodd" stroke="none"/>
    <path d="M10.7 76.1 L10.7 76.25 10.7 76.1" fill="#d59579" fill-rule="evenodd" stroke="none"/>
  </g>
</svg>
