<?xml version="1.0" encoding="UTF-8" standalone="no"?>
<svg xmlns:xlink="http://www.w3.org/1999/xlink" height="113.8px" width="43.5px" xmlns="http://www.w3.org/2000/svg">
  <g transform="matrix(1.0, 0.0, 0.0, 1.0, 31.25, 12.35)">
    <path d="M-8.95 -4.45 L-9.15 -4.4 -9.0 -4.35 -8.55 -3.95 -8.2 -3.6 -7.75 -4.95 -8.95 -4.45 M-9.6 -4.4 Q-8.75 -5.25 -7.4 -5.5 -6.7 -7.95 -4.65 -9.9 -2.6 -11.95 -0.1 -12.35 3.1 -12.45 5.65 -11.05 8.45 -9.5 9.55 -6.65 10.55 -4.65 10.25 -1.7 L9.2 3.2 Q10.0 4.9 8.9 7.45 L8.45 6.9 8.0 6.25 6.4 10.2 Q7.15 12.2 6.55 13.55 L6.1 13.45 5.6 13.2 Q4.9 12.95 4.75 13.65 4.35 14.75 4.4 17.15 L5.4 18.15 Q5.95 18.7 5.7 19.25 5.05 19.45 4.9 20.0 4.7 20.55 5.05 21.15 L5.45 22.3 5.6 23.5 3.85 23.5 3.65 23.3 3.4 23.3 Q2.95 24.65 3.0 27.35 L2.9 31.5 Q2.45 32.05 2.15 33.75 1.85 35.25 1.1 35.75 L1.35 37.6 Q1.55 38.55 2.2 39.05 3.8 43.4 3.95 45.85 6.75 48.8 6.7 51.85 L5.55 51.6 Q4.85 51.4 4.75 52.05 4.95 55.6 4.75 59.05 6.25 60.55 6.15 63.65 L5.95 66.2 Q5.85 67.7 6.0 68.65 L5.0 68.55 4.05 67.95 2.95 71.8 Q2.3 74.3 1.35 75.6 0.4 76.6 1.55 77.55 L2.55 78.3 3.2 79.2 Q4.8 79.15 6.45 80.75 L7.75 82.15 9.1 83.35 9.0 83.9 5.3 83.8 Q4.7 84.0 5.05 84.9 L7.7 86.1 Q9.1 87.0 9.2 88.5 9.05 89.0 9.7 89.6 L10.75 90.55 11.45 94.25 12.25 97.85 12.15 98.75 11.45 98.85 10.6 98.75 8.55 98.35 6.55 97.95 Q4.15 97.5 2.55 98.35 L1.95 99.9 1.0 101.45 0.4 101.2 -0.2 100.7 Q-0.95 100.15 -1.5 100.9 L-5.25 100.25 -8.85 99.1 Q-12.55 98.6 -13.2 96.7 -13.6 96.3 -14.15 96.55 L-15.15 96.8 Q-17.9 97.0 -20.35 95.65 -22.75 94.35 -24.35 91.85 L-25.0 90.1 -25.15 88.25 Q-24.2 86.15 -24.35 82.9 L-26.05 83.45 -27.9 83.9 Q-28.1 79.15 -26.55 76.85 -27.45 73.6 -27.45 70.55 -28.45 69.65 -30.95 69.75 L-31.25 69.2 -29.4 66.0 -27.5 62.8 Q-27.85 58.65 -26.9 53.95 L-26.8 53.5 -27.4 53.85 -28.0 54.5 -29.4 54.6 -29.4 50.8 -29.3 47.25 -27.55 46.75 Q-26.5 46.5 -25.9 46.05 -25.85 45.0 -25.2 44.25 -24.75 43.75 -23.7 43.2 L-22.1 42.2 Q-21.3 41.5 -20.95 40.6 L-18.95 37.3 Q-17.7 35.65 -16.05 34.6 -16.0 32.85 -14.85 30.05 -16.2 27.85 -16.15 24.55 L-15.6 18.7 -16.55 18.85 -17.45 19.5 Q-18.0 19.85 -18.2 19.8 -18.5 19.7 -18.45 18.95 L-16.45 15.05 Q-15.3 12.7 -15.15 10.85 L-16.3 10.5 Q-16.95 10.15 -16.6 9.5 -11.6 5.5 -8.3 -2.9 L-9.6 -4.4 M-1.15 -11.0 L-2.75 -10.5 Q-5.75 -8.5 -6.4 -4.95 -6.9 -2.35 -9.3 1.3 L-11.2 4.25 Q-12.25 5.95 -12.75 7.35 L-13.55 8.0 -13.9 8.3 -14.85 9.3 -14.55 9.6 -14.4 9.65 -13.85 9.85 -13.75 10.4 -14.0 10.85 Q-14.95 14.05 -16.55 17.35 L-16.6 17.5 -16.5 17.4 Q-15.75 17.15 -15.1 17.4 -14.35 17.6 -14.6 18.5 L-15.0 23.9 Q-14.95 26.9 -13.75 29.1 -13.8 29.7 -13.05 30.9 L-13.0 31.0 -12.9 31.25 -12.85 31.25 Q-12.55 31.9 -12.6 32.45 L-12.65 32.7 -12.85 32.5 -12.9 32.5 -13.5 31.8 -13.6 31.65 -14.0 31.15 -14.3 32.25 -14.4 32.9 -14.5 33.7 -14.55 35.0 Q-14.9 35.6 -14.45 37.0 -14.05 38.3 -14.55 38.8 L-14.6 38.7 -14.85 38.1 -15.1 37.5 -15.1 37.55 -15.85 36.0 -17.4 37.5 -19.0 39.2 -20.75 42.65 -21.85 43.45 -22.65 43.9 -23.0 44.1 Q-24.4 44.85 -24.6 46.0 L-24.6 46.05 -24.5 46.05 -24.8 46.95 -24.8 47.15 -24.9 47.0 -24.95 47.0 Q-26.1 46.95 -26.9 47.45 -28.55 47.85 -28.55 50.1 L-28.5 52.0 -28.6 53.7 -26.45 52.05 Q-25.4 51.35 -24.45 51.3 L-25.05 52.95 -25.15 53.05 Q-26.9 58.1 -26.65 62.45 -26.9 63.65 -28.0 65.35 L-29.7 68.1 Q-27.4 68.1 -26.4 68.55 L-26.4 70.5 -25.8 72.15 -25.15 72.4 -25.5 73.3 -24.85 73.15 Q-25.45 73.2 -25.8 73.5 -26.7 74.6 -26.35 75.2 L-25.85 75.4 -25.95 75.75 Q-26.1 76.25 -25.7 76.65 L-25.55 76.8 -25.9 77.55 -26.3 78.75 -27.35 82.35 -26.75 82.7 -26.0 82.55 -26.0 82.5 -24.45 81.9 -24.3 81.85 -24.15 82.6 -24.2 82.3 -23.75 81.5 -23.3 81.05 -23.3 81.0 -22.35 80.0 -22.25 80.1 -22.1 80.35 -22.6 81.3 -23.25 82.1 -23.55 82.55 -23.6 82.55 -23.4 82.8 -23.6 83.25 -23.55 83.25 -22.45 83.4 Q-23.15 83.95 -23.4 85.15 L-23.85 87.25 -23.9 87.6 Q-24.85 91.2 -19.75 94.75 -18.35 95.55 -16.7 95.55 L-14.3 95.35 -13.55 95.25 -13.35 94.1 Q-13.25 93.25 -13.75 92.95 -12.4 91.95 -10.1 91.9 L-9.6 91.9 -7.35 92.05 -5.1 92.1 -4.45 92.7 Q-3.55 92.05 -2.2 92.0 L0.25 91.85 1.2 93.45 1.65 94.2 1.7 94.3 Q2.45 95.7 2.65 96.9 L3.45 96.95 4.3 96.8 4.2 96.6 4.15 96.35 4.05 96.1 Q3.7 94.75 3.7 93.5 3.7 92.8 3.85 92.1 4.25 91.2 5.7 90.85 L7.9 90.2 7.75 90.35 7.35 90.7 6.75 91.1 6.2 91.4 5.4 91.75 Q4.95 92.35 4.95 93.1 L5.1 94.1 5.95 96.35 11.25 97.1 10.25 93.25 9.85 91.65 9.3 90.95 9.25 90.9 9.2 90.9 8.7 90.45 8.55 90.3 8.4 90.15 Q7.7 89.4 8.35 88.8 8.35 87.5 6.95 86.85 L5.7 86.35 4.5 85.85 Q4.05 85.95 3.3 86.55 L2.95 86.8 2.1 87.15 2.65 86.15 Q3.8 85.9 3.8 84.6 L3.75 83.5 Q3.75 82.9 4.05 82.55 L0.8 78.2 -0.1 77.25 -0.05 77.15 0.45 75.15 Q1.4 73.9 1.85 71.65 L2.35 69.45 2.6 68.25 2.8 67.85 3.0 66.2 Q4.65 66.6 5.15 67.15 L5.15 64.7 5.15 63.55 5.15 62.45 4.65 61.25 4.5 61.1 4.55 60.4 4.45 59.85 4.3 59.15 4.0 58.15 4.05 58.2 Q3.85 57.35 3.9 56.05 L4.0 53.85 Q3.95 51.3 2.2 50.55 1.85 49.5 2.3 48.2 L3.1 45.9 2.05 42.1 1.25 40.05 0.55 38.8 0.35 37.25 0.2 36.25 0.1 35.75 0.15 35.4 Q0.15 35.1 0.3 34.9 L0.45 34.6 0.35 34.65 1.1 33.9 Q2.3 29.25 1.85 26.7 1.1 25.5 1.8 23.65 1.8 22.8 2.45 22.45 L2.75 22.35 4.5 22.3 3.85 20.95 Q3.5 20.15 3.5 19.6 L3.55 19.6 3.65 19.6 4.25 19.5 4.95 19.15 4.4 18.4 4.1 18.1 3.65 17.85 Q2.75 15.25 3.5 13.0 3.7 12.15 4.55 12.35 L5.3 12.5 6.0 12.55 Q5.95 11.35 5.4 10.3 8.0 5.95 8.75 1.25 9.6 -4.25 7.5 -8.2 L5.85 -9.6 Q4.05 -10.85 1.65 -11.1 L1.0 -11.15 -1.15 -11.0 M-4.6 55.45 L-4.75 55.6 -5.0 55.75 Q-5.75 55.0 -6.4 53.35 -6.7 52.65 -7.45 52.35 L-8.65 50.3 -8.7 50.2 -8.55 50.0 -8.4 49.75 -8.3 49.7 -7.6 50.15 -7.2 50.7 -6.85 51.25 -6.35 51.95 -5.65 53.3 -5.35 54.15 -5.25 54.0 -5.15 53.8 Q-4.8 54.6 -4.6 55.45 M-1.1 89.45 L-1.25 89.6 -2.95 88.85 -4.5 87.8 -4.6 87.7 Q-5.05 87.45 -5.45 87.35 L-5.5 87.3 -5.8 87.25 -6.55 86.7 -7.5 86.05 -7.3 85.4 -6.95 85.45 -6.65 85.5 -5.05 86.45 -5.0 86.5 -3.95 87.15 -1.1 89.45 M-2.8 76.7 L-2.6 76.75 -2.8 76.7 M-1.15 65.9 L-1.1 65.85 0.75 66.5 -0.1 66.25 -1.15 65.9 M-6.5 12.7 L-6.15 12.2 -6.5 12.75 -6.5 12.7 M8.95 4.2 L8.5 5.1 Q8.05 5.9 8.75 6.15 L9.05 4.25 9.1 3.9 8.95 4.2 M3.3 46.95 L2.9 48.55 Q2.75 49.5 3.1 50.2 L4.5 50.35 5.7 50.75 Q4.7 47.9 3.3 46.95 M-22.3 49.8 L-22.3 50.1 -22.4 50.05 -22.3 49.8 M-19.6 50.45 L-19.45 50.0 -19.45 49.55 -19.45 50.2 -19.6 50.45 M-15.8 60.65 L-16.1 60.8 -17.25 61.25 -18.95 62.65 -19.1 62.25 -19.1 62.1 -19.15 61.8 -19.2 61.55 -18.3 60.75 -18.2 61.25 -17.3 60.8 -16.55 60.25 Q-15.55 59.45 -14.75 59.35 L-14.7 59.35 -14.55 59.35 -14.55 59.4 -14.4 59.65 -14.75 60.15 -15.4 60.35 -15.5 60.45 -15.8 60.6 -15.8 60.65 M-14.0 58.1 L-14.0 58.05 -14.0 58.1 M-11.35 55.3 L-11.3 55.3 -11.35 55.3 M-9.85 69.3 L-9.9 69.35 -10.25 69.75 -10.2 69.8 -9.95 69.9 -10.6 70.4 -10.95 70.6 -11.4 70.95 -11.9 71.0 Q-13.15 71.2 -13.45 72.4 L-13.75 72.6 -14.1 72.65 -14.35 71.5 -13.25 70.7 -13.2 70.85 -11.8 69.95 -10.4 69.1 -9.9 69.15 -9.85 69.25 -9.85 69.3 M-13.45 64.9 L-13.45 64.85 -13.45 64.9 M4.6 80.3 Q4.0 79.9 3.4 80.5 L4.3 81.85 4.95 83.25 Q5.85 83.0 7.65 83.25 6.4 81.7 4.6 80.3 M-14.85 85.8 L-14.95 85.85 Q-15.6 85.1 -17.15 84.35 L-17.2 84.3 -17.4 84.2 -17.55 82.9 -17.45 82.5 -17.4 82.25 -17.4 82.15 -17.35 81.95 -17.25 81.7 -17.2 81.65 -17.15 81.6 -16.75 81.75 -16.8 81.85 -16.8 81.95 -16.8 82.05 -16.75 82.4 -16.65 82.85 -16.4 83.3 -16.0 83.9 Q-15.55 84.95 -14.7 85.7 L-14.85 85.8 M-10.45 93.45 L-12.1 93.4 Q-12.4 94.1 -12.1 95.2 L-11.65 97.0 Q-7.8 99.0 -1.95 99.75 -2.5 97.9 -2.8 97.45 L-5.55 93.65 Q-6.6 92.7 -8.7 93.1 L-10.45 93.45 M-3.05 93.95 L-2.85 94.25 -2.45 95.25 -1.75 97.2 Q-0.85 99.55 0.7 100.3 2.3 98.2 1.35 95.6 L1.0 95.05 -0.3 92.95 Q-1.05 92.7 -1.9 92.95 L-2.65 93.2 -3.35 93.4 -3.05 93.95 M-23.7 76.85 L-23.8 76.7 -23.85 76.65 -23.8 76.6 -23.75 76.75 -23.7 76.85" fill="#000000" fill-rule="evenodd" stroke="none"/>
    <path d="M-8.95 -4.45 L-7.75 -4.95 -8.2 -3.6 -8.55 -3.95 -9.0 -4.35 -8.95 -4.45 M7.75 90.35 L8.4 90.15 8.55 90.3 8.7 90.45 9.2 90.9 7.35 90.7 7.75 90.35 M2.1 1.75 L1.95 1.55 1.9 1.2 Q2.0 0.75 2.5 0.85 L2.85 0.85 2.95 0.75 3.3 0.65 Q3.85 0.7 4.15 1.05 4.35 2.25 3.65 2.85 L2.6 2.1 2.1 1.75 M-7.85 10.9 L-7.8 10.8 -7.5 10.35 -6.65 10.2 -6.45 10.2 Q-5.75 10.15 -5.35 10.7 L-5.2 11.25 Q-5.3 12.0 -5.7 12.4 L-5.65 12.25 -5.6 12.05 -6.2 12.65 -6.5 12.75 -6.15 12.2 -6.5 12.7 -6.55 12.75 -7.2 13.15 -7.6 13.5 -7.45 12.9 -7.35 12.15 Q-7.55 11.85 -7.35 11.4 L-7.25 11.0 -7.15 10.85 -7.85 10.9 M-5.65 3.8 L-7.65 4.5 -6.35 2.1 Q-5.55 2.45 -5.65 3.8 M-6.3 11.6 L-6.4 11.45 -6.4 11.6 -6.3 11.6 M-11.55 23.4 Q-11.0 23.5 -10.15 24.4 L-10.85 25.85 -11.5 27.35 -12.45 25.05 -11.55 23.4 M-4.15 20.55 Q-4.3 18.95 -2.9 18.55 L-2.1 18.6 -1.4 19.25 -1.35 19.6 -1.35 20.45 -2.05 21.15 -2.6 22.75 Q-3.2 21.7 -3.4 20.45 L-3.55 19.9 -3.2 19.5 -3.35 19.55 -3.9 20.05 -4.1 20.3 -4.15 20.55 M8.95 4.2 L9.05 4.25 8.75 6.15 Q8.05 5.9 8.5 5.1 L8.95 4.2 M-7.2 50.7 L-7.75 49.9 -7.35 49.3 -7.3 49.6 -6.85 51.25 -7.2 50.7 M3.3 46.95 Q4.7 47.9 5.7 50.75 L4.5 50.35 3.1 50.2 Q2.75 49.5 2.9 48.55 L3.3 46.95 M-24.95 47.05 L-24.95 47.0 -24.9 47.0 -24.95 47.05 M-18.55 56.5 L-18.5 55.95 -17.55 55.95 -18.0 55.9 -18.45 56.35 -18.55 56.5 M-13.2 70.85 Q-13.45 70.15 -13.3 69.1 L-13.2 67.25 Q-12.45 66.8 -11.65 67.4 -11.0 67.8 -10.5 68.65 L-10.4 69.1 -11.8 69.95 -13.2 70.85 M4.6 80.3 Q6.4 81.7 7.65 83.25 5.85 83.0 4.95 83.25 L4.3 81.85 3.4 80.5 Q4.0 79.9 4.6 80.3 M-5.05 86.4 L-5.0 86.5 -5.05 86.45 -5.05 86.4 M-16.4 83.3 L-16.65 82.85 -16.75 82.4 -16.8 82.05 -16.8 81.95 -16.8 81.85 -16.75 81.75 -16.2 81.55 -15.4 81.35 Q-14.75 82.35 -14.85 84.9 L-16.4 83.3 M-2.65 93.2 L-2.95 93.3 -3.05 93.85 -3.05 93.95 -3.35 93.4 -2.65 93.2 M-23.8 76.7 L-23.95 76.65 -24.5 76.55 -25.9 77.55 -25.55 76.8 -24.8 75.35 -23.85 76.65 -23.8 76.7 M-23.65 77.15 L-23.7 76.9 -23.6 77.1 -23.65 77.15" fill="#cccccc" fill-rule="evenodd" stroke="none"/>
    <path d="M-9.0 -4.35 L-9.15 -4.4 -8.95 -4.45 -9.0 -4.35 M-16.55 17.35 L-16.5 17.4 -16.6 17.5 -16.55 17.35 M-6.3 11.6 L-6.4 11.6 -6.4 11.45 -6.3 11.6 M9.05 4.25 L8.95 4.2 9.1 3.9 9.05 4.25 M5.15 63.55 L5.15 64.7 5.05 64.75 Q4.1 65.15 3.75 64.15 L2.7 62.6 Q2.4 62.4 2.55 62.0 2.75 61.6 3.15 61.6 4.8 62.1 5.15 63.55 M10.25 93.25 L7.25 92.7 7.1 92.8 6.85 92.95 Q5.6 92.9 6.0 91.75 L6.2 91.4 6.75 91.1 7.35 90.7 9.2 90.9 9.25 90.9 9.3 90.95 9.85 91.65 10.25 93.25 M-7.35 49.3 L-6.85 48.55 -6.65 48.5 Q-6.05 48.6 -5.95 49.2 L-5.95 49.3 Q-4.95 51.0 -5.05 52.95 L-5.25 53.3 -5.65 53.3 -6.35 51.95 -6.85 51.25 -7.3 49.6 -7.35 49.3 M-24.8 47.15 L-24.75 47.2 Q-24.45 47.5 -24.55 48.1 -24.6 48.55 -25.0 48.65 -27.0 49.15 -28.55 50.55 L-28.55 50.1 Q-28.55 47.85 -26.9 47.45 -26.1 46.95 -24.95 47.0 L-24.95 47.05 Q-24.85 47.05 -24.8 47.15 M-18.6 57.05 L-18.55 57.0 -18.55 56.5 -18.45 56.35 -18.0 55.9 -17.55 55.95 -16.9 56.1 Q-16.7 56.45 -17.05 57.0 L-17.1 57.1 Q-16.95 59.0 -17.3 60.8 L-18.2 61.25 -18.3 60.75 -18.6 57.05 M-3.05 87.7 L-3.95 87.15 -5.0 86.5 -5.05 86.4 -5.4 85.8 -5.35 85.4 -5.25 85.15 -5.25 85.05 -5.25 84.95 -5.15 84.85 -5.05 84.75 -4.9 84.7 -4.7 84.8 -4.6 84.9 -4.55 85.0 -4.55 85.2 -3.0 87.25 -2.95 87.35 -3.05 87.65 -3.05 87.7 M-6.8 95.8 L-6.9 95.7 -9.8 94.7 -10.1 94.3 Q-10.15 93.5 -9.3 93.45 L-8.45 93.4 Q-6.8 93.45 -5.75 94.55 -5.0 95.35 -5.9 96.0 -6.4 96.1 -6.8 95.8 M-3.05 93.95 L-3.05 93.85 -2.95 93.3 -2.65 93.2 -1.9 92.95 Q-1.05 92.7 -0.3 92.95 L1.0 95.05 -0.4 94.85 -0.8 94.75 -2.7 94.35 -2.85 94.25 -3.05 93.95 M-23.7 76.85 L-23.7 76.9 -23.65 77.15 -23.75 77.55 Q-25.4 79.8 -26.0 82.5 L-26.0 82.55 -26.75 82.7 -27.35 82.35 -26.3 78.75 -25.9 77.55 -24.5 76.55 -23.95 76.65 -23.8 76.7 -23.7 76.85" fill="#ffffff" fill-rule="evenodd" stroke="none"/>
    <path d="M-4.85 0.15 L-5.05 0.15 -5.1 0.15 -5.8 0.15 -6.2 0.15 Q-6.65 0.25 -7.05 0.6 L-7.45 1.1 Q-7.75 1.8 -7.45 2.55 L-7.4 2.7 -7.75 3.35 -8.85 5.3 -7.8 5.35 -9.55 8.85 -11.55 13.4 Q-12.9 17.0 -12.65 20.9 L-12.65 20.95 -13.25 21.45 -13.65 22.05 -13.65 22.1 Q-14.0 23.45 -13.3 24.3 -13.2 26.15 -11.35 28.45 L-11.15 28.1 -10.8 28.3 -10.65 28.35 -10.55 28.4 Q-10.2 29.45 -10.2 30.6 -10.2 31.1 -10.7 31.25 -11.9 31.7 -12.85 31.25 L-12.9 31.25 -13.0 31.0 -13.05 30.9 Q-13.8 29.7 -13.75 29.1 -14.95 26.9 -15.0 23.9 L-14.6 18.5 Q-14.35 17.6 -15.1 17.4 -15.75 17.15 -16.5 17.4 L-16.55 17.35 Q-14.95 14.05 -14.0 10.85 L-13.75 10.4 -13.85 9.85 -14.4 9.65 -14.55 9.6 -14.25 8.9 -13.65 8.15 -13.55 8.0 -12.75 7.35 Q-12.25 5.95 -11.2 4.25 L-9.3 1.3 Q-6.9 -2.35 -6.4 -4.95 -5.75 -8.5 -2.75 -10.5 L-1.15 -11.0 -1.35 -10.35 -1.85 -8.8 Q-2.65 -5.85 -3.6 -2.9 -4.1 -1.3 -4.85 0.15 M-13.6 31.65 L-13.5 31.8 -12.9 32.5 -12.85 32.5 -12.65 32.7 -12.6 32.45 -12.25 32.35 Q-9.15 32.65 -10.45 35.2 L-11.2 35.9 Q-10.65 37.65 -9.4 39.1 -9.05 39.5 -9.3 40.05 -9.5 40.6 -10.0 40.95 -13.7 41.5 -14.9 38.25 L-15.0 38.45 Q-16.85 43.05 -20.0 47.0 L-19.9 46.65 -19.9 46.55 -19.9 46.5 -19.9 46.4 -20.0 46.15 -20.35 45.4 Q-20.55 44.9 -21.0 44.6 -21.75 44.05 -22.65 43.9 L-21.85 43.45 -20.75 42.65 -19.0 39.2 -17.4 37.5 -15.85 36.0 -15.1 37.55 -15.1 37.5 -14.85 38.1 -14.6 38.7 -14.55 38.8 Q-14.05 38.3 -14.45 37.0 -14.9 35.6 -14.55 35.0 L-14.5 33.7 -14.2 33.35 -14.4 32.9 -14.3 32.25 -14.2 32.05 -13.8 31.6 -13.6 31.65 M-25.05 52.95 Q-24.85 52.75 -24.55 52.8 L-24.65 53.0 -24.6 53.75 -24.35 54.1 -24.2 54.2 -24.1 54.25 Q-23.6 54.65 -22.75 54.45 L-23.0 56.05 Q-23.4 59.45 -24.35 62.65 -24.85 64.35 -24.85 66.3 -24.8 69.35 -23.8 72.2 L-24.45 72.3 -24.5 72.3 -24.55 72.35 -25.15 72.4 -25.8 72.15 -26.4 70.5 -26.4 68.55 Q-27.4 68.1 -29.7 68.1 L-28.0 65.35 Q-26.9 63.65 -26.65 62.45 -26.9 58.1 -25.15 53.05 L-25.05 52.95 M-7.65 83.4 L-8.2 84.25 -8.55 85.25 -8.55 85.4 -8.6 85.55 -8.6 86.0 Q-9.9 86.0 -10.75 84.65 -11.95 82.7 -10.0 81.5 -8.75 81.45 -8.6 82.65 L-8.6 82.8 -7.65 83.4" fill="#e6a233" fill-rule="evenodd" stroke="none"/>
    <path d="M-7.4 2.7 L-7.45 2.55 Q-7.75 1.8 -7.45 1.1 L-7.05 0.6 Q-6.65 0.25 -6.2 0.15 L-5.8 0.15 -5.1 0.15 -5.05 0.15 -4.85 0.15 Q-4.35 0.25 -4.1 0.55 L-3.75 0.75 -3.5 1.0 -3.1 1.55 -3.15 1.55 Q-2.65 2.6 -3.9 4.5 L-4.1 4.6 Q-5.0 5.0 -5.85 4.6 L-6.2 4.45 -5.75 4.1 -5.6 4.0 Q-5.05 3.55 -5.0 2.95 L-5.05 2.9 -5.05 2.8 -5.35 2.35 -5.3 2.35 -5.2 2.3 -5.25 2.3 -5.4 2.25 -5.45 2.25 -5.9 1.85 -6.6 1.55 -6.65 1.55 -7.4 2.7 M-2.05 17.65 Q-0.05 18.5 -0.25 20.6 -0.35 21.95 -1.65 21.95 L-1.35 20.45 -1.35 19.6 -1.4 19.25 -2.1 18.6 -2.9 18.55 Q-4.3 18.95 -4.15 20.55 L-3.85 21.7 -4.3 21.65 Q-5.3 20.9 -5.55 19.75 L-5.65 19.6 Q-5.4 17.95 -3.7 17.5 L-2.05 17.65 M-7.0 45.5 L-6.85 45.6 Q-6.4 45.15 -5.8 44.9 L-5.15 44.75 -4.1 44.8 Q-3.65 44.9 -3.25 45.2 L-3.25 45.25 -3.0 46.1 -2.85 47.35 -2.85 47.45 -2.85 47.55 -2.9 47.85 -3.05 48.25 -3.2 48.35 -3.35 48.35 Q-3.95 46.45 -5.0 46.8 L-5.35 46.9 Q-6.4 47.2 -7.3 48.2 L-8.4 49.75 -8.55 50.0 -8.7 50.2 -8.85 50.45 -8.45 50.7 Q-8.3 50.9 -8.4 51.05 L-9.05 51.05 -9.7 50.65 -9.9 50.05 Q-10.05 49.1 -9.8 48.15 -9.55 47.15 -8.85 46.35 L-8.3 45.95 -8.0 45.85 -7.0 45.5 M-8.35 67.75 L-8.2 68.25 -8.2 68.55 Q-8.2 69.15 -8.5 69.5 -8.8 69.8 -9.35 69.9 L-9.35 69.95 -9.95 69.9 -10.2 69.8 -10.25 69.75 -9.9 69.35 -9.85 69.3 Q-9.65 69.2 -9.6 68.9 L-10.5 67.75 -11.25 66.6 -12.35 66.55 -13.55 66.85 -13.65 67.75 Q-13.6 68.3 -13.85 68.55 L-14.2 68.5 Q-14.8 67.65 -14.35 66.55 L-13.45 64.9 -12.85 64.7 -12.2 64.65 Q-10.65 64.6 -9.6 65.75 -8.8 66.65 -8.35 67.75 M2.85 3.0 L2.8 3.0 1.7 3.05 Q1.2 3.05 0.95 2.7 0.35 2.4 0.1 1.75 -0.2 0.9 0.15 0.05 L0.7 -0.75 0.85 -0.9 Q1.1 -1.35 1.7 -1.4 L2.8 -1.25 3.3 -1.15 Q3.85 -1.05 4.25 -0.7 L4.8 0.25 4.65 1.05 Q4.45 0.7 4.05 0.65 L4.15 1.05 Q3.85 0.7 3.3 0.65 L2.95 0.75 2.85 0.85 2.5 0.85 Q2.0 0.75 1.9 1.2 L1.95 1.55 2.1 1.75 1.55 1.65 2.85 3.0 M-8.1 12.65 L-8.45 12.3 Q-8.95 11.25 -8.5 10.2 L-7.8 9.5 Q-7.0 9.15 -6.1 9.15 L-5.9 9.1 Q-4.85 9.15 -4.3 9.95 L-4.45 9.95 -4.2 10.15 -4.05 10.45 -3.9 11.7 -4.2 12.75 -4.45 13.05 Q-5.2 13.65 -6.2 13.45 L-6.3 13.4 -6.05 13.1 -5.7 12.4 Q-5.3 12.0 -5.2 11.25 L-5.35 10.7 Q-5.75 10.15 -6.45 10.2 L-6.65 10.2 -7.5 10.35 -7.8 10.8 -7.85 10.9 -7.95 10.95 -8.1 12.65 M-11.05 20.5 L-9.85 21.2 -9.65 21.3 Q-9.0 21.85 -8.6 22.55 -8.2 23.3 -8.3 24.2 L-8.3 24.35 -8.35 24.45 Q-8.55 25.25 -9.25 25.6 L-9.8 25.75 -10.15 25.6 Q-9.45 24.55 -9.6 23.75 L-10.4 23.1 Q-10.85 22.8 -11.45 22.85 -12.15 22.85 -12.45 23.3 L-12.35 23.4 -12.55 23.85 -13.0 22.95 -13.0 21.85 -11.8 20.9 -11.05 20.5 M-11.8 20.45 L-11.75 20.45 -12.05 20.55 -12.1 20.6 -11.95 20.45 -11.8 20.45 M-22.65 43.9 Q-21.75 44.05 -21.0 44.6 -20.55 44.9 -20.35 45.4 L-20.0 46.15 -19.9 46.4 -19.9 46.5 -19.9 46.55 -19.9 46.65 -20.1 47.25 -19.7 47.2 -19.65 47.6 -19.65 48.2 -19.85 48.0 -20.3 48.0 -20.45 49.85 Q-20.5 50.6 -20.95 51.05 L-21.4 51.35 -22.25 51.55 -23.15 51.4 Q-22.85 50.45 -22.3 50.3 L-22.3 50.1 -22.3 49.8 Q-22.35 47.1 -24.15 46.05 L-24.5 46.05 -24.6 46.0 Q-24.4 44.85 -23.0 44.1 L-22.65 43.9 M-20.4 54.45 L-20.3 54.25 -20.05 53.9 Q-19.1 52.75 -17.65 52.35 L-17.35 52.25 -14.6 52.45 -13.55 52.7 -13.95 52.9 -14.05 53.0 -14.1 53.05 Q-13.2 53.3 -12.6 54.25 L-11.8 56.0 Q-11.45 58.05 -12.25 59.0 L-12.4 59.1 -12.95 59.25 -14.05 59.2 -14.0 59.0 -13.95 58.55 Q-13.9 58.3 -14.0 58.05 L-13.85 57.75 -14.65 56.9 -15.55 55.9 Q-16.65 54.75 -17.8 55.0 L-18.95 55.85 Q-19.45 56.4 -19.55 57.0 -19.75 57.0 -19.95 56.8 L-20.3 56.45 Q-20.65 55.2 -20.1 54.45 L-20.4 54.45 M-24.85 73.15 L-24.1 73.15 Q-23.2 73.25 -22.4 73.7 L-22.35 73.6 -22.0 73.95 Q-21.0 75.1 -20.6 76.5 L-20.35 77.6 -20.3 77.8 Q-20.0 79.25 -20.35 80.7 L-20.5 81.15 -21.1 82.15 -21.15 82.2 -21.45 82.45 -21.4 82.45 -21.75 82.65 -21.75 82.7 -21.65 82.45 Q-21.9 82.2 -22.6 82.7 L-23.4 82.8 -23.6 82.55 -23.55 82.55 -23.25 82.1 -22.4 81.15 Q-21.75 80.35 -21.75 79.5 L-21.85 78.9 -21.95 78.45 -22.05 78.1 -22.3 77.4 -22.9 76.25 -23.1 75.9 -23.45 75.45 -23.5 75.45 -23.5 75.4 -24.7 74.25 -25.45 75.05 -25.85 75.4 -26.35 75.2 Q-26.7 74.6 -25.8 73.5 -25.45 73.2 -24.85 73.15 M-11.3 55.55 L-11.25 56.0 -11.25 56.55 -11.3 55.55 M-3.4 81.5 L-2.85 82.3 Q-2.5 82.95 -2.8 83.55 L-5.1 83.35 -6.7 84.45 -7.3 85.4 -7.5 86.05 -7.5 86.15 -6.55 86.7 Q-6.9 87.1 -7.45 87.05 L-8.3 87.05 -8.35 86.95 -8.6 86.0 -8.6 85.55 -8.55 85.4 -8.55 85.25 -8.2 84.25 -7.65 83.4 Q-6.9 82.45 -5.7 81.9 L-4.55 81.65 -4.05 81.5 -3.4 81.5 M-14.35 79.4 L-14.6 79.4 Q-13.95 80.45 -13.95 81.3 L-14.3 81.35 Q-14.75 80.65 -15.55 80.8 L-16.95 81.25 -17.25 81.7 -17.35 81.95 -17.4 82.15 -17.4 82.25 -17.45 82.5 -17.8 83.25 -18.65 82.55 -19.0 82.1 -19.0 82.05 Q-19.0 81.25 -18.55 80.65 L-18.05 80.15 Q-16.85 79.4 -15.55 79.25 L-14.45 79.35 -14.35 79.4" fill="#e8ae00" fill-rule="evenodd" stroke="none"/>
    <path d="M1.65 -11.1 L1.5 -10.9 1.3 -11.1 1.0 -11.15 1.65 -11.1 M-8.35 35.5 L-8.1 35.65 -8.15 35.85 -8.35 35.5 M-8.5 69.5 L-8.5 69.75 -9.35 69.95 -9.35 69.9 Q-8.8 69.8 -8.5 69.5 M-3.05 48.25 L-3.1 48.4 -3.2 48.35 -3.05 48.25 M-11.3 55.3 L-11.2 55.45 -11.3 55.55 -11.25 56.55 -11.3 55.5 -11.35 55.3 -11.3 55.3" fill="#a47b00" fill-rule="evenodd" stroke="none"/>
    <path d="M-4.85 0.15 Q-4.1 -1.3 -3.6 -2.9 -2.65 -5.85 -1.85 -8.8 L-1.35 -10.35 -1.15 -11.0 1.0 -11.15 1.3 -11.1 1.5 -10.9 2.1 -10.45 4.35 -8.85 4.5 -8.65 Q6.65 -5.3 5.65 -1.5 L4.85 1.1 4.65 1.05 4.8 0.25 4.25 -0.7 Q3.85 -1.05 3.3 -1.15 L2.8 -1.25 1.7 -1.4 Q1.1 -1.35 0.85 -0.9 L0.7 -0.75 0.15 0.05 Q-0.2 0.9 0.1 1.75 0.35 2.4 0.95 2.7 1.2 3.05 1.7 3.05 L2.8 3.0 2.85 3.0 2.9 3.0 3.7 3.7 2.3 5.95 Q-1.4 11.3 -2.05 17.65 L-3.7 17.5 Q-5.4 17.95 -5.65 19.6 L-5.55 19.75 Q-5.3 20.9 -4.3 21.65 L-3.85 21.7 -3.05 23.4 -2.2 23.05 -2.2 23.45 Q-3.05 25.4 -4.55 27.15 L-6.65 29.55 -6.75 29.55 -8.3 30.6 -8.55 30.85 Q-9.1 31.8 -8.95 32.95 L-8.35 35.5 -8.15 35.85 -8.1 35.65 Q-8.25 36.0 -7.85 36.15 L-7.65 36.15 -7.2 35.75 -6.7 35.35 Q-5.7 34.8 -5.75 33.7 L-5.45 33.5 -5.15 33.3 Q-4.4 32.85 -3.7 33.0 L-3.55 33.4 Q-2.3 36.65 -3.0 39.85 L-4.75 40.6 -5.15 40.7 -5.6 40.9 Q-7.6 40.7 -8.65 42.1 -9.05 42.6 -8.8 43.2 -8.25 44.65 -7.0 45.5 L-8.0 45.85 -8.3 45.95 -8.85 46.35 Q-9.55 47.15 -9.8 48.15 -10.05 49.1 -9.9 50.05 L-10.05 50.05 Q-10.3 49.4 -10.15 48.9 -10.55 48.85 -10.75 49.2 L-10.95 49.9 Q-11.05 51.05 -10.5 51.55 -10.1 51.9 -9.15 52.05 L-7.55 52.3 -7.45 52.35 Q-6.7 52.65 -6.4 53.35 -5.75 55.0 -5.0 55.75 L-4.75 55.6 -4.65 55.65 Q-3.95 56.25 -3.35 55.5 L-3.25 55.35 Q-3.2 59.9 -4.9 64.25 L-7.35 68.8 -7.4 68.9 Q-7.5 68.25 -8.1 67.75 L-8.35 67.75 Q-8.8 66.65 -9.6 65.75 -10.65 64.6 -12.2 64.65 L-12.85 64.7 -13.45 64.9 -13.45 64.85 -14.0 65.15 -14.6 65.4 -15.15 66.8 Q-15.5 67.65 -15.3 68.25 -14.75 68.95 -14.5 70.3 L-14.35 71.5 -14.1 72.65 -13.75 72.6 -13.45 72.4 Q-13.15 71.2 -11.9 71.0 L-11.4 70.95 -11.25 70.95 -11.35 71.6 -10.8 72.15 -9.55 72.1 -10.65 73.15 -11.4 74.0 -11.95 74.3 Q-12.85 74.75 -13.15 75.65 L-13.5 76.35 -13.35 77.25 Q-13.3 77.7 -12.9 77.95 L-12.45 78.2 -12.2 78.35 -11.05 78.45 -9.9 78.25 -6.75 78.25 -6.5 78.4 -6.1 78.6 -4.95 79.15 Q-4.2 79.6 -3.6 80.15 L-3.15 80.7 -2.75 81.45 -3.6 81.25 -3.4 81.5 -4.05 81.5 -4.55 81.65 -5.7 81.9 Q-6.9 82.45 -7.65 83.4 L-8.6 82.8 -8.6 82.65 Q-8.75 81.45 -10.0 81.5 -11.95 82.7 -10.75 84.65 -9.9 86.0 -8.6 86.0 L-8.35 86.95 -8.3 87.05 -8.4 87.05 -8.4 87.7 -8.35 87.85 -9.5 89.0 Q-13.7 89.1 -17.85 90.35 -19.45 90.8 -20.7 89.45 -22.15 87.9 -23.85 87.25 L-23.4 85.15 Q-23.15 83.95 -22.45 83.4 L-22.2 83.2 -22.05 83.1 -21.65 82.45 -21.75 82.7 -21.75 82.65 -21.4 82.45 -21.0 82.3 Q-20.55 83.0 -19.6 82.55 L-19.55 82.55 -19.45 82.9 -17.2 84.3 -17.15 84.35 Q-15.6 85.1 -14.95 85.85 L-14.85 85.8 Q-14.45 85.65 -14.2 85.15 L-13.4 85.1 -13.35 84.95 Q-12.8 83.4 -13.0 81.7 L-13.3 80.8 -13.3 80.6 -13.8 79.75 Q-14.05 79.4 -14.35 79.4 L-14.45 79.35 -15.55 79.25 Q-16.85 79.4 -18.05 80.15 L-18.55 80.65 Q-19.0 81.25 -19.0 82.05 L-19.0 82.1 -19.15 81.85 -18.75 80.8 Q-18.2 79.3 -18.55 77.75 -18.8 76.7 -19.7 76.4 L-20.05 76.5 -20.15 76.55 -20.4 77.0 -20.4 77.35 -20.35 77.6 -20.6 76.5 Q-21.0 75.1 -22.0 73.95 L-22.35 73.6 Q-22.2 73.3 -22.5 73.0 L-23.05 72.3 -23.8 72.2 Q-24.8 69.35 -24.85 66.3 -24.85 64.35 -24.35 62.65 -23.4 59.45 -23.0 56.05 L-22.75 54.45 -22.65 54.4 -21.6 53.75 Q-20.75 52.95 -20.25 51.85 L-19.95 50.95 -20.35 51.35 -19.6 50.45 -19.45 50.2 -19.45 49.55 -19.4 49.0 Q-19.4 48.45 -19.65 48.2 L-19.65 47.6 -19.7 47.2 -20.1 47.25 -19.9 46.65 -20.0 47.0 Q-16.85 43.05 -15.0 38.45 L-14.9 38.25 Q-13.7 41.5 -10.0 40.95 -9.5 40.6 -9.3 40.05 -9.05 39.5 -9.4 39.1 -10.65 37.65 -11.2 35.9 L-10.45 35.2 Q-9.15 32.65 -12.25 32.35 L-12.6 32.45 Q-12.55 31.9 -12.85 31.25 -11.9 31.7 -10.7 31.25 -10.2 31.1 -10.2 30.6 -10.2 29.45 -10.55 28.4 L-9.9 28.2 Q-8.3 27.2 -7.9 25.4 -7.8 24.9 -7.95 24.6 L-7.95 23.95 Q-8.15 23.85 -8.25 24.05 L-8.25 24.2 -8.3 24.2 Q-8.2 23.3 -8.6 22.55 -9.0 21.85 -9.65 21.3 L-9.85 21.2 -11.05 20.5 -10.5 20.2 -11.8 20.45 -11.95 20.45 -12.1 20.6 -12.3 20.7 -12.65 20.9 Q-12.9 17.0 -11.55 13.4 L-9.55 8.85 -7.8 5.35 -7.7 5.3 -6.95 4.9 -6.95 5.1 Q-6.9 5.9 -6.1 5.75 -4.6 5.45 -3.8 4.5 -2.4 4.6 -1.95 2.55 L-2.35 1.8 Q-2.7 1.5 -3.1 1.55 L-3.5 1.0 -3.75 0.75 -4.1 0.55 Q-4.35 0.25 -4.85 0.15 M-3.9 11.7 L-4.05 10.45 -4.2 10.15 -4.45 9.95 -4.3 9.95 Q-4.85 9.15 -5.9 9.1 L-6.1 9.15 Q-7.0 9.15 -7.8 9.5 L-8.5 10.2 Q-8.95 11.25 -8.45 12.3 L-8.1 12.65 -8.3 14.55 -7.8 14.7 Q-7.45 14.4 -7.3 14.45 L-7.25 14.4 Q-7.4 15.7 -5.5 15.6 L-4.05 13.75 Q-3.2 12.45 -3.9 11.7 M-13.95 52.9 L-13.55 52.7 -14.6 52.45 -17.35 52.25 -17.65 52.35 Q-19.1 52.75 -20.05 53.9 L-20.3 54.25 -20.4 54.45 -20.55 54.45 Q-21.05 54.7 -20.95 55.75 -21.1 56.4 -20.5 57.15 L-19.45 58.25 -19.4 59.8 -19.3 61.35 -19.15 61.8 -19.1 62.1 -19.1 62.25 -18.95 62.65 -18.45 62.8 Q-17.7 61.8 -16.1 60.8 L-15.8 60.65 -15.95 61.45 -15.65 61.8 Q-13.55 62.35 -11.75 60.95 L-11.25 60.35 Q-10.1 58.5 -10.75 56.45 -10.9 55.9 -11.2 55.45 L-11.3 55.3 Q-11.55 53.9 -12.2 53.05 -12.45 52.65 -13.1 52.65 -13.65 52.65 -13.95 52.9" fill="#cc7a00" fill-rule="evenodd" stroke="none"/>
    <path d="M1.5 -10.9 L1.65 -11.1 Q4.05 -10.85 5.85 -9.6 L7.5 -8.2 Q9.6 -4.25 8.75 1.25 8.0 5.95 5.4 10.3 5.95 11.35 6.0 12.55 L5.3 12.5 4.55 12.35 Q3.7 12.15 3.5 13.0 2.75 15.25 3.65 17.85 L4.1 18.1 4.4 18.4 4.95 19.15 4.25 19.5 3.65 19.6 3.55 19.6 3.5 19.6 Q3.5 20.15 3.85 20.95 L4.5 22.3 2.75 22.35 2.45 22.45 Q2.25 22.2 1.7 22.2 1.1 22.6 1.15 23.45 L1.0 24.3 0.7 25.8 0.1 27.65 -1.5 30.25 -1.55 30.35 -1.6 30.4 -1.7 30.65 -1.8 30.55 -1.8 30.5 -2.0 31.25 -2.0 32.25 -1.8 34.05 -0.3 36.75 -0.65 38.35 -0.75 38.9 -2.55 41.1 -3.05 41.4 -5.5 41.75 Q-6.1 41.85 -6.25 42.45 -6.6 44.15 -4.8 44.45 L-4.05 44.55 Q-0.1 44.75 1.1 40.75 L1.25 40.05 2.05 42.1 3.1 45.9 2.3 48.2 Q1.85 49.5 2.2 50.55 3.95 51.3 4.0 53.85 L3.9 56.05 Q3.85 57.35 4.05 58.2 L4.0 58.15 3.3 57.6 2.4 57.65 1.9 58.05 1.8 58.05 Q0.15 58.7 -0.5 60.3 L-1.15 61.55 -1.3 61.95 -1.4 62.3 -1.5 63.7 Q-1.6 64.8 -1.1 65.85 L-1.15 65.9 Q-1.5 66.15 -1.45 66.55 L-1.1 67.15 0.35 67.75 1.85 67.8 2.0 68.0 Q2.3 67.8 2.65 68.0 L2.6 68.25 2.35 69.45 Q2.05 69.6 1.85 69.85 L1.65 70.4 1.5 70.6 0.95 71.5 Q-0.35 73.4 -2.0 75.0 -2.75 75.3 -2.85 76.05 L-2.8 76.7 -2.6 76.75 -2.8 76.7 -2.4 77.25 -1.25 78.45 1.15 82.1 Q1.55 82.85 2.1 82.9 L2.2 83.1 1.0 84.95 Q0.45 85.6 0.35 86.4 0.15 88.1 1.85 87.75 L2.2 87.4 2.3 87.35 2.95 86.8 3.3 86.55 Q4.05 85.95 4.5 85.85 L5.7 86.35 6.95 86.85 Q8.35 87.5 8.35 88.8 7.7 89.4 8.4 90.15 L7.75 90.35 7.9 90.2 5.7 90.85 Q4.25 91.2 3.85 92.1 3.7 92.8 3.7 93.5 L3.75 92.7 Q3.2 92.2 2.35 92.0 1.1 92.2 1.45 93.45 L1.65 94.2 1.2 93.45 Q1.4 92.6 0.75 92.0 L0.35 91.65 Q-1.15 90.5 -3.35 90.85 L-4.8 91.15 -5.35 91.25 -9.0 91.05 Q-11.8 90.8 -13.9 92.4 -15.05 93.3 -14.7 94.75 L-14.35 95.3 -14.3 95.35 -16.7 95.55 Q-18.35 95.55 -19.75 94.75 -24.85 91.2 -23.9 87.6 L-23.85 87.25 Q-22.15 87.9 -20.7 89.45 -19.45 90.8 -17.85 90.35 -13.7 89.1 -9.5 89.0 L-8.35 87.85 -8.0 87.8 -7.95 87.8 Q-6.95 87.05 -5.8 87.25 L-5.5 87.3 -5.45 87.35 Q-5.05 87.45 -4.6 87.7 L-4.5 87.8 -2.95 88.85 -1.25 89.6 -1.1 89.45 -0.95 89.1 -0.95 88.85 -0.9 88.25 -0.8 87.85 -0.8 87.45 -0.75 87.3 -0.8 87.25 -0.9 86.75 -1.55 85.4 -2.25 84.1 Q-2.5 83.25 -2.2 82.45 L-2.6 81.6 -2.75 81.45 -3.15 80.7 -3.6 80.15 Q-4.2 79.6 -4.95 79.15 L-6.1 78.6 -6.5 78.4 -6.75 78.25 -9.9 78.25 -11.05 78.45 -12.2 78.35 -12.45 78.2 -12.9 77.95 Q-13.3 77.7 -13.35 77.25 L-13.5 76.35 -13.15 75.65 Q-12.85 74.75 -11.95 74.3 L-11.4 74.0 -10.65 73.15 -9.55 72.1 -10.8 72.15 -11.35 71.6 -11.25 70.95 -9.6 70.75 -8.4 70.15 Q-7.7 69.7 -7.75 69.2 L-8.3 69.65 -8.5 69.75 -8.5 69.5 Q-8.2 69.15 -8.2 68.55 L-8.2 68.25 -8.35 67.75 -8.1 67.75 Q-7.5 68.25 -7.4 68.9 L-7.35 68.8 -4.9 64.25 Q-3.2 59.9 -3.25 55.35 L-3.35 55.5 Q-3.95 56.25 -4.65 55.65 L-4.75 55.6 -4.6 55.45 -4.35 54.95 -4.3 54.85 -4.0 53.7 -4.0 53.55 -4.0 53.15 -4.0 53.05 -4.0 53.0 -3.95 52.6 -3.85 52.05 -3.8 52.0 -3.75 51.95 -3.7 51.95 -3.5 51.95 -3.6 51.3 -3.2 50.35 -3.2 50.3 -3.05 50.05 -2.3 48.05 Q-2.1 47.1 -2.2 46.4 L-2.5 45.4 Q-2.7 44.85 -3.3 45.15 L-3.25 45.2 Q-3.65 44.9 -4.1 44.8 L-5.15 44.75 -5.8 44.9 Q-6.4 45.15 -6.85 45.6 L-7.0 45.5 Q-8.25 44.65 -8.8 43.2 -9.05 42.6 -8.65 42.1 -7.6 40.7 -5.6 40.9 L-5.15 40.7 -4.75 40.6 -3.0 39.85 Q-2.3 36.65 -3.55 33.4 L-3.7 33.0 Q-4.4 32.85 -5.15 33.3 L-5.45 33.5 -5.75 33.7 Q-5.7 34.8 -6.7 35.35 L-7.2 35.75 -7.65 36.15 -7.85 36.15 Q-8.25 36.0 -8.1 35.65 L-8.35 35.5 -8.95 32.95 Q-9.1 31.8 -8.55 30.85 L-8.3 30.6 -6.75 29.55 -6.65 29.55 -4.55 27.15 Q-3.05 25.4 -2.2 23.45 L-2.2 23.05 -1.65 21.95 Q-0.35 21.95 -0.25 20.6 -0.05 18.5 -2.05 17.65 -1.4 11.3 2.3 5.95 L3.7 3.7 4.3 4.0 4.4 4.05 Q4.85 3.4 4.85 1.65 L4.75 1.3 4.85 1.1 5.65 -1.5 Q6.65 -5.3 4.5 -8.65 L4.35 -8.85 2.1 -10.45 1.5 -10.9 M3.8 11.55 Q4.05 10.95 4.5 10.5 L4.7 10.25 Q4.95 9.7 4.3 9.6 3.3 9.8 2.95 10.85 L2.9 11.15 Q2.85 11.9 3.55 11.8 L3.65 11.75 3.8 11.55" fill="#c16100" fill-rule="evenodd" stroke="none"/>
    <path d="M-5.4 2.25 L-5.25 2.3 -5.2 2.3 -5.3 2.35 -5.4 2.25 M4.85 1.1 L4.75 1.3 4.65 1.05 4.85 1.1 M-0.8 87.25 L-0.75 87.3 -0.8 87.45 -0.8 87.25 M-0.8 87.85 L-0.9 88.25 -0.95 88.85 -0.95 88.5 -0.8 87.85 M1.8 58.05 L1.9 58.05 1.85 58.1 1.8 58.05 M-9.8 25.75 L-9.25 25.6 Q-8.55 25.25 -8.35 24.45 L-8.3 24.5 Q-8.45 25.1 -8.9 25.5 L-9.25 25.7 -9.8 25.75 M-9.7 50.65 L-10.0 50.15 -10.05 50.05 -9.9 50.05 -9.7 50.65 M-3.15 48.45 L-3.3 48.65 -3.35 48.35 -3.15 48.45 M-21.4 51.35 L-20.95 51.05 -21.3 51.3 -21.4 51.35 M-24.6 46.0 L-24.5 46.05 -24.6 46.05 -24.6 46.0 M-14.05 59.2 L-12.95 59.25 -12.4 59.1 -12.25 59.0 -12.9 59.5 -13.8 59.45 -14.2 59.4 -14.05 59.2 M-18.6 57.05 L-18.6 56.0 -18.5 55.95 -18.55 56.5 -18.55 57.0 -18.6 57.05 M-23.5 75.45 L-23.45 75.45 -23.1 75.9 -22.9 76.25 -23.5 75.45 M-13.95 81.35 L-14.1 82.0 -14.3 81.35 -13.95 81.35" fill="#cc9900" fill-rule="evenodd" stroke="none"/>
    <path d="M-11.15 28.1 L-11.35 28.45 Q-13.2 26.15 -13.3 24.3 -14.0 23.45 -13.65 22.1 L-13.65 22.05 -13.25 21.45 -12.65 20.95 -12.65 20.9 -12.3 20.7 -12.1 20.6 -12.05 20.55 -11.75 20.45 -11.8 20.45 -10.5 20.2 -11.05 20.5 -11.8 20.9 -13.0 21.85 -13.0 22.95 -12.55 23.85 -12.35 23.4 -12.45 23.3 Q-12.15 22.85 -11.45 22.85 -10.85 22.8 -10.4 23.1 L-9.6 23.75 Q-9.45 24.55 -10.15 25.6 L-9.8 25.75 -9.25 25.7 -8.9 25.5 Q-8.45 25.1 -8.3 24.5 L-8.3 24.4 -8.25 24.2 -8.25 24.05 Q-8.15 23.85 -7.95 23.95 L-7.95 24.6 -8.1 25.25 -8.6 26.45 -9.95 26.65 Q-10.65 26.75 -10.8 27.45 L-11.15 28.1 M-7.8 5.35 L-8.85 5.3 -7.75 3.35 -7.4 2.7 -6.65 1.55 -6.6 1.55 -5.9 1.85 -5.45 2.25 -5.4 2.25 -5.3 2.35 -5.35 2.35 -5.05 2.8 -5.05 2.9 -5.0 2.95 Q-5.05 3.55 -5.6 4.0 L-5.75 4.1 -6.2 4.45 -6.55 4.8 -6.6 4.8 -6.95 4.85 -6.95 4.9 -7.7 5.3 -7.8 5.35 M4.75 1.3 L4.85 1.65 Q4.85 3.4 4.4 4.05 L4.3 4.0 3.7 3.7 2.9 3.0 2.85 3.0 1.55 1.65 2.1 1.75 2.6 2.1 3.65 2.85 Q4.35 2.25 4.15 1.05 L4.05 0.65 Q4.45 0.7 4.65 1.05 L4.75 1.3 M-1.65 21.95 L-2.2 23.05 -3.05 23.4 -3.85 21.7 -4.15 20.55 -4.1 20.3 -3.9 20.05 -3.35 19.55 -3.2 19.5 -3.55 19.9 -3.4 20.45 Q-3.2 21.7 -2.6 22.75 L-2.05 21.15 -1.35 20.45 -1.65 21.95 M-3.25 45.2 L-3.3 45.15 Q-2.7 44.85 -2.5 45.4 L-2.2 46.4 Q-2.1 47.1 -2.3 48.05 L-3.05 50.05 -3.2 50.3 -3.2 50.35 -3.6 51.3 -3.95 52.6 -4.0 53.0 -4.0 53.05 -4.0 53.15 -4.0 53.55 -4.0 53.7 -4.3 54.85 -4.35 54.95 -4.6 55.45 Q-4.8 54.6 -5.15 53.8 L-5.25 54.0 Q-4.25 52.15 -4.0 49.65 L-4.3 48.45 Q-4.55 47.65 -5.0 47.35 -5.85 47.25 -6.6 48.25 L-6.85 48.55 -7.35 49.3 -7.75 49.9 -7.2 50.7 -7.6 50.15 -8.3 49.7 -8.4 49.75 -7.3 48.2 Q-6.4 47.2 -5.35 46.9 L-5.0 46.8 Q-3.95 46.45 -3.35 48.35 L-3.3 48.65 -3.15 48.45 -3.1 48.4 -3.05 48.25 -2.9 47.85 -2.85 47.55 -2.85 47.45 -2.85 47.35 -3.0 46.1 -3.25 45.25 -3.25 45.2 M-8.5 69.75 L-8.3 69.65 -7.75 69.2 Q-7.7 69.7 -8.4 70.15 L-9.6 70.75 -11.25 70.95 -11.4 70.95 -10.95 70.6 -10.6 70.4 -9.95 69.9 -9.35 69.95 -8.5 69.75 M-2.75 81.45 L-2.6 81.6 -2.2 82.45 Q-2.5 83.25 -2.25 84.1 L-1.55 85.4 -0.9 86.75 -0.8 87.25 -0.8 87.45 -0.8 87.85 -0.95 88.5 -0.95 88.85 -0.95 89.1 -1.1 89.45 -3.95 87.15 -3.05 87.7 -1.65 88.55 -1.5 86.15 Q-2.95 84.1 -4.9 84.2 -5.5 84.2 -5.95 84.65 L-6.65 85.5 -6.95 85.45 -7.3 85.4 -6.7 84.45 -5.1 83.35 -2.8 83.55 Q-2.5 82.95 -2.85 82.3 L-3.4 81.5 -3.6 81.25 -2.75 81.45 M-5.8 87.25 Q-6.95 87.05 -7.95 87.8 L-8.0 87.8 -8.35 87.85 -8.4 87.7 -8.4 87.05 -8.3 87.05 -7.45 87.05 Q-6.9 87.1 -6.55 86.7 L-7.5 86.15 -7.5 86.05 -6.55 86.7 -5.8 87.25 M2.6 68.25 L2.65 68.0 Q2.3 67.8 2.0 68.0 L1.85 67.8 0.35 67.75 -1.1 67.15 -1.45 66.55 Q-1.5 66.15 -1.15 65.9 L-0.1 66.25 0.75 66.5 1.65 66.75 1.85 66.8 2.1 66.85 0.8 65.75 0.7 65.05 0.55 64.3 1.6 61.6 Q2.35 60.1 3.4 59.25 L2.6 58.65 1.65 58.5 1.65 58.45 1.85 58.1 1.9 58.05 2.4 57.65 3.3 57.6 4.0 58.15 4.3 59.15 4.45 59.85 4.55 60.4 4.5 61.1 Q4.05 60.75 3.4 60.9 2.25 61.3 1.75 62.55 1.45 63.15 1.1 64.85 1.5 65.8 3.0 66.2 L2.8 67.85 2.6 68.25 M-7.25 14.4 L-7.3 14.45 Q-7.45 14.4 -7.8 14.7 L-8.3 14.55 -8.1 12.65 -7.95 10.95 -7.85 10.9 -7.15 10.85 -7.25 11.0 -7.35 11.4 Q-7.55 11.85 -7.35 12.15 L-7.45 12.9 -7.6 13.5 -7.2 13.15 -6.55 12.75 -6.5 12.7 -6.5 12.75 -6.2 12.65 -5.6 12.05 -5.65 12.25 -5.7 12.4 -6.05 13.1 -6.3 13.4 -7.25 14.4 M-5.65 3.8 Q-5.55 2.45 -6.35 2.1 L-7.65 4.5 -5.65 3.8 M-11.55 23.4 L-12.45 25.05 -11.5 27.35 -10.85 25.85 -10.15 24.4 Q-11.0 23.5 -11.55 23.4 M-7.45 52.35 L-7.55 52.3 -9.15 52.05 Q-10.1 51.9 -10.5 51.55 -11.05 51.05 -10.95 49.9 L-10.75 49.2 Q-10.55 48.85 -10.15 48.9 -10.3 49.4 -10.05 50.05 L-10.0 50.15 -9.7 50.65 -9.05 51.05 -8.4 51.05 Q-8.3 50.9 -8.45 50.7 L-8.85 50.45 -8.7 50.2 -8.65 50.3 -7.45 52.35 M-24.5 46.05 L-24.15 46.05 Q-22.35 47.1 -22.3 49.8 L-22.4 50.05 -22.3 50.1 -22.3 50.3 Q-22.85 50.45 -23.15 51.4 L-22.25 51.55 -21.4 51.35 -21.3 51.3 -20.95 51.05 Q-20.5 50.6 -20.45 49.85 L-20.3 48.0 -19.85 48.0 -19.65 48.2 Q-19.4 48.45 -19.4 49.0 L-19.45 49.55 -19.45 50.0 -19.6 50.45 -20.35 51.35 -20.75 51.6 -21.25 51.9 -21.35 51.9 -23.7 53.05 -24.45 52.85 -24.55 52.8 Q-24.85 52.75 -25.05 52.95 L-24.45 51.3 -24.1 51.3 -24.05 51.3 -23.05 50.05 Q-23.65 48.25 -24.75 47.2 L-24.8 47.15 -24.8 46.95 -24.5 46.05 M-13.95 52.9 Q-13.65 52.65 -13.1 52.65 -12.45 52.65 -12.2 53.05 -11.55 53.9 -11.3 55.3 L-11.35 55.3 -11.3 55.5 -11.25 56.55 -11.25 56.65 -11.3 57.55 -11.4 58.5 -11.5 59.05 Q-12.45 60.1 -13.85 60.3 L-14.6 60.15 -14.75 60.15 -14.4 59.65 -14.55 59.4 -14.55 59.35 -14.2 59.4 -13.8 59.45 -12.9 59.5 -12.25 59.0 Q-11.45 58.05 -11.8 56.0 L-12.6 54.25 Q-13.2 53.3 -14.1 53.05 L-14.05 53.0 -13.95 52.9 M-16.1 60.8 Q-17.7 61.8 -18.45 62.8 L-18.95 62.65 -17.25 61.25 -16.1 60.8 M-19.15 61.8 L-19.3 61.35 -19.4 59.8 -19.45 58.25 -20.5 57.15 Q-21.1 56.4 -20.95 55.75 -21.05 54.7 -20.55 54.45 L-20.4 54.45 -20.1 54.45 Q-20.65 55.2 -20.3 56.45 L-19.95 56.8 Q-19.75 57.0 -19.55 57.0 -19.45 56.4 -18.95 55.85 L-17.8 55.0 Q-16.65 54.75 -15.55 55.9 L-14.65 56.9 -13.85 57.75 -14.0 58.05 -14.0 58.1 -16.2 56.45 -16.9 56.1 -17.55 55.95 -18.5 55.95 -18.6 56.0 -18.6 57.05 -18.3 60.75 -19.2 61.55 -19.15 61.8 M-25.15 72.4 L-24.55 72.35 -24.5 72.3 -24.45 72.3 -23.8 72.2 -23.05 72.3 -22.5 73.0 Q-22.2 73.3 -22.35 73.6 L-22.4 73.7 Q-23.2 73.25 -24.1 73.15 L-24.85 73.15 -25.5 73.3 -25.15 72.4 M-25.85 75.4 L-25.45 75.05 -24.7 74.25 -23.5 75.4 -23.5 75.45 -22.9 76.25 -22.3 77.4 -22.05 78.1 -21.95 78.45 -21.85 78.9 -21.75 79.5 Q-21.75 80.35 -22.4 81.15 L-23.25 82.1 -22.6 81.3 -22.1 80.35 -22.25 80.1 -22.35 80.0 -22.3 79.95 -23.35 77.55 -23.6 77.1 -23.7 76.9 -23.7 76.85 -23.75 76.75 -23.8 76.6 -23.85 76.65 -24.8 75.35 -25.55 76.8 -25.7 76.65 Q-26.1 76.25 -25.95 75.75 L-25.85 75.4 M-23.4 82.8 L-22.6 82.7 Q-21.9 82.2 -21.65 82.45 L-22.05 83.1 -22.2 83.2 -22.45 83.4 -23.55 83.25 -23.6 83.25 -23.4 82.8 M-13.45 64.9 L-14.35 66.55 Q-14.8 67.65 -14.2 68.5 L-13.85 68.55 Q-13.6 68.3 -13.65 67.75 L-13.55 66.85 -12.35 66.55 -11.25 66.6 -10.5 67.75 -9.6 68.9 Q-9.65 69.2 -9.85 69.3 L-9.85 69.25 -9.9 69.15 -10.4 69.1 -10.5 68.65 Q-11.0 67.8 -11.65 67.4 -12.45 66.8 -13.2 67.25 L-13.3 69.1 Q-13.45 70.15 -13.2 70.85 L-13.25 70.7 -14.35 71.5 -14.5 70.3 Q-14.75 68.95 -15.3 68.25 -15.5 67.65 -15.15 66.8 L-14.6 65.4 -14.0 65.15 -13.45 64.85 -13.45 64.9 M-14.35 79.4 Q-14.05 79.4 -13.8 79.75 L-13.3 80.6 -13.3 80.8 -13.35 81.7 Q-13.45 82.3 -14.0 82.55 L-14.0 84.45 -14.2 85.15 Q-14.45 85.65 -14.85 85.8 L-14.7 85.7 Q-15.55 84.95 -16.0 83.9 L-16.4 83.3 -14.85 84.9 Q-14.75 82.35 -15.4 81.35 L-16.2 81.55 -16.75 81.75 -17.15 81.6 -17.2 81.65 -17.25 81.7 -16.95 81.25 -15.55 80.8 Q-14.75 80.65 -14.3 81.35 L-14.1 82.0 -13.95 81.35 -13.95 81.3 Q-13.95 80.45 -14.6 79.4 L-14.35 79.4 M-17.2 84.3 L-19.45 82.9 -19.55 82.55 -19.5 82.35 -19.2 81.8 -19.15 81.85 -19.0 82.1 -18.65 82.55 -17.8 83.25 -17.45 82.5 -17.55 82.9 -17.4 84.2 -17.2 84.3 M-23.75 81.5 L-24.2 82.3 -24.15 82.6 -24.3 81.85 -23.75 81.5" fill="#793600" fill-rule="evenodd" stroke="none"/>
    <path d="M-10.55 28.4 L-10.65 28.35 -10.8 28.3 -11.15 28.1 -10.8 27.45 Q-10.65 26.75 -9.95 26.65 L-8.6 26.45 -8.1 25.25 -7.95 24.6 Q-7.8 24.9 -7.9 25.4 -8.3 27.2 -9.9 28.2 L-10.55 28.4 M-6.2 4.45 L-5.85 4.6 Q-5.0 5.0 -4.1 4.6 L-3.9 4.5 Q-2.65 2.6 -3.15 1.55 L-3.1 1.55 Q-2.7 1.5 -2.35 1.8 L-1.95 2.55 Q-2.4 4.6 -3.8 4.5 -4.6 5.45 -6.1 5.75 -6.9 5.9 -6.95 5.1 L-6.95 4.9 -6.95 4.85 -6.6 4.8 -6.55 4.8 -6.2 4.45 M-3.9 11.7 Q-3.2 12.45 -4.05 13.75 L-5.5 15.6 Q-7.4 15.7 -7.25 14.4 L-6.3 13.4 -6.2 13.45 Q-5.2 13.65 -4.45 13.05 L-4.2 12.75 -3.9 11.7 M-8.3 24.2 L-8.25 24.2 -8.3 24.4 -8.3 24.5 -8.35 24.45 -8.3 24.35 -8.3 24.2 M-3.1 48.4 L-3.15 48.45 -3.35 48.35 -3.2 48.35 -3.1 48.4 M-24.55 52.8 L-24.45 52.85 -23.7 53.05 -21.35 51.9 -21.25 51.9 -20.75 51.6 -20.35 51.35 -19.95 50.95 -20.25 51.85 Q-20.75 52.95 -21.6 53.75 L-22.65 54.4 -22.75 54.45 Q-23.6 54.65 -24.1 54.25 L-24.2 54.2 -24.35 54.1 -24.6 53.75 -24.65 53.0 -24.55 52.8 M-11.2 55.45 Q-10.9 55.9 -10.75 56.45 -10.1 58.5 -11.25 60.35 L-11.75 60.95 Q-13.55 62.35 -15.65 61.8 L-15.95 61.45 -15.8 60.65 -15.8 60.6 -15.5 60.45 -15.4 60.35 -14.75 60.15 -14.6 60.15 -13.85 60.3 Q-12.45 60.1 -11.5 59.05 L-11.4 58.5 -11.3 57.55 -11.25 56.65 -11.25 56.55 -11.25 56.0 -11.3 55.55 -11.2 55.45 M-21.1 82.15 L-20.5 81.15 -20.35 80.7 Q-20.0 79.25 -20.3 77.8 L-20.35 77.6 -20.4 77.35 -20.4 77.0 -20.15 76.55 -20.05 76.5 -19.7 76.4 Q-18.8 76.7 -18.55 77.75 -18.2 79.3 -18.75 80.8 L-19.15 81.85 -19.2 81.8 -19.5 82.35 -19.55 82.55 -19.6 82.55 Q-20.55 83.0 -21.0 82.3 L-21.1 82.15 M-13.3 80.8 L-13.0 81.7 Q-12.8 83.4 -13.35 84.95 L-13.4 85.1 -14.2 85.15 -14.0 84.45 -14.0 82.55 Q-13.45 82.3 -13.35 81.7 L-13.3 80.8 M-14.3 81.35 L-13.95 81.3 -13.95 81.35 -14.3 81.35" fill="#cc6600" fill-rule="evenodd" stroke="none"/>
    <path d="M-13.55 8.0 L-13.65 8.15 -14.25 8.9 -14.55 9.6 -14.85 9.3 -13.9 8.3 -13.55 8.0 M-3.6 51.3 L-3.5 51.95 -3.7 51.95 -3.75 51.95 -3.8 52.0 -3.85 52.05 -3.95 52.6 -3.6 51.3 M-1.1 65.85 Q-1.6 64.8 -1.5 63.7 L-1.4 62.3 -1.3 61.95 -1.15 61.55 -0.5 60.3 Q0.15 58.7 1.8 58.05 L1.85 58.1 1.65 58.45 1.65 58.5 2.6 58.65 3.4 59.25 Q2.35 60.1 1.6 61.6 L0.55 64.3 0.7 65.05 0.8 65.75 2.1 66.85 1.85 66.8 1.65 66.75 0.75 66.5 -1.1 65.85 M3.8 11.55 L3.65 11.75 3.55 11.8 Q2.85 11.9 2.9 11.15 L2.95 10.85 Q3.3 9.8 4.3 9.6 4.95 9.7 4.7 10.25 L4.5 10.5 Q4.05 10.95 3.8 11.55 M-13.6 31.65 L-13.8 31.6 -14.2 32.05 -14.3 32.25 -14.0 31.15 -13.6 31.65 M-14.4 32.9 L-14.2 33.35 -14.5 33.7 -14.4 32.9" fill="#e68a00" fill-rule="evenodd" stroke="none"/>
    <path d="M-14.3 95.35 L-14.35 95.3 -14.7 94.75 Q-15.05 93.3 -13.9 92.4 -11.8 90.8 -9.0 91.05 L-5.35 91.25 -4.8 91.15 -3.35 90.85 Q-1.15 90.5 0.35 91.65 L0.25 91.85 -2.2 92.0 Q-3.55 92.05 -4.45 92.7 L-5.1 92.1 -7.35 92.05 -9.6 91.9 -10.1 91.9 Q-12.4 91.95 -13.75 92.95 -13.25 93.25 -13.35 94.1 L-13.55 95.25 -14.3 95.35 M1.65 94.2 L1.45 93.45 Q1.1 92.2 2.35 92.0 3.2 92.2 3.75 92.7 L3.7 93.5 Q3.7 94.75 4.05 96.1 L4.15 96.35 4.2 96.6 4.3 96.8 3.45 96.95 2.65 96.9 Q2.45 95.7 1.7 94.3 L1.65 94.2 M2.3 87.35 L2.2 87.4 1.85 87.75 Q0.15 88.1 0.35 86.4 0.45 85.6 1.0 84.95 L2.2 83.1 2.1 82.9 Q1.55 82.85 1.15 82.1 L-1.25 78.45 -2.4 77.25 -2.8 76.7 -2.85 76.05 Q-2.75 75.3 -2.0 75.0 -0.35 73.4 0.95 71.5 L1.5 70.6 1.65 70.4 1.85 69.85 Q2.05 69.6 2.35 69.45 L1.85 71.65 Q1.4 73.9 0.45 75.15 L-0.05 77.15 -0.1 77.25 0.8 78.2 4.05 82.55 Q3.75 82.9 3.75 83.5 L3.8 84.6 Q3.8 85.9 2.65 86.15 L2.1 87.15 2.3 87.35 M-2.6 76.75 L-2.8 76.7 -2.6 76.75 M1.25 40.05 L1.1 40.75 Q-0.1 44.75 -4.05 44.55 L-4.8 44.45 Q-6.6 44.15 -6.25 42.45 -6.1 41.85 -5.5 41.75 L-3.05 41.4 -2.55 41.1 -0.75 38.9 -0.65 38.35 -0.3 36.75 -1.8 34.05 -2.0 32.25 -2.0 31.25 -1.8 30.5 -1.8 30.55 -1.7 30.65 -1.6 30.4 -1.5 30.25 0.1 27.65 0.7 25.8 1.0 24.3 1.15 23.45 Q1.1 22.6 1.7 22.2 2.25 22.2 2.45 22.45 1.8 22.8 1.8 23.65 1.1 25.5 1.85 26.7 2.3 29.25 1.1 33.9 L0.35 34.65 0.45 34.6 0.3 34.9 Q0.15 35.1 0.15 35.4 L0.1 35.75 0.2 36.25 0.35 37.25 0.55 38.8 1.25 40.05" fill="#9b4600" fill-rule="evenodd" stroke="none"/>
    <path d="M5.15 64.7 L5.15 67.15 Q4.65 66.6 3.0 66.2 1.5 65.8 1.1 64.85 1.45 63.15 1.75 62.55 2.25 61.3 3.4 60.9 4.05 60.75 4.5 61.1 L4.65 61.25 5.15 62.45 5.15 63.55 Q4.8 62.1 3.15 61.6 2.75 61.6 2.55 62.0 2.4 62.4 2.7 62.6 L3.75 64.15 Q4.1 65.15 5.05 64.75 L5.15 64.7 M10.25 93.25 L11.25 97.1 5.95 96.35 5.1 94.1 4.95 93.1 Q4.95 92.35 5.4 91.75 L6.2 91.4 6.0 91.75 Q5.6 92.9 6.85 92.95 L7.1 92.8 7.25 92.7 10.25 93.25 M-6.85 48.55 L-6.6 48.25 Q-5.85 47.25 -5.0 47.35 -4.55 47.65 -4.3 48.45 L-4.0 49.65 Q-4.25 52.15 -5.25 54.0 L-5.35 54.15 -5.65 53.3 -5.25 53.3 -5.05 52.95 Q-4.95 51.0 -5.95 49.3 L-5.95 49.2 Q-6.05 48.6 -6.65 48.5 L-6.85 48.55 M-24.8 47.15 Q-24.85 47.05 -24.95 47.05 L-24.9 47.0 -24.8 47.15 M-28.55 50.1 L-28.55 50.55 Q-27.0 49.15 -25.0 48.65 -24.6 48.55 -24.55 48.1 -24.45 47.5 -24.75 47.2 -23.65 48.25 -23.05 50.05 L-24.05 51.3 -24.1 51.3 -24.45 51.3 Q-25.4 51.35 -26.45 52.05 L-28.6 53.7 -28.5 52.0 -28.55 50.1 M-14.0 58.05 Q-13.9 58.3 -13.95 58.55 L-14.0 59.0 -14.05 59.2 -14.2 59.4 -14.55 59.35 -14.7 59.35 -14.75 59.35 Q-15.55 59.45 -16.55 60.25 L-17.3 60.8 Q-16.95 59.0 -17.1 57.1 L-17.05 57.0 Q-16.7 56.45 -16.9 56.1 L-16.2 56.45 -14.0 58.1 -14.0 58.05 M-6.65 85.5 L-5.95 84.65 Q-5.5 84.2 -4.9 84.2 -2.95 84.1 -1.5 86.15 L-1.65 88.55 -3.05 87.7 -3.05 87.65 -2.95 87.35 -3.0 87.25 -4.55 85.2 -4.55 85.0 -4.6 84.9 -4.7 84.8 -4.9 84.7 -5.05 84.75 -5.15 84.85 -5.25 84.95 -5.25 85.05 -5.25 85.15 -5.35 85.4 -5.4 85.8 -5.05 86.4 -5.05 86.45 -6.65 85.5 M-10.45 93.45 L-8.7 93.1 Q-6.6 92.7 -5.55 93.65 L-2.8 97.45 Q-2.5 97.9 -1.95 99.75 -7.8 99.0 -11.65 97.0 L-12.1 95.2 Q-12.4 94.1 -12.1 93.4 L-10.45 93.45 M-6.8 95.8 Q-6.4 96.1 -5.9 96.0 -5.0 95.35 -5.75 94.55 -6.8 93.45 -8.45 93.4 L-9.3 93.45 Q-10.15 93.5 -10.1 94.3 L-9.8 94.7 -6.9 95.7 -6.8 95.8 M-2.85 94.25 L-2.7 94.35 -0.8 94.75 -0.4 94.85 1.0 95.05 1.35 95.6 Q2.3 98.2 0.7 100.3 -0.85 99.55 -1.75 97.2 L-2.45 95.25 -2.85 94.25 M-26.0 82.5 Q-25.4 79.8 -23.75 77.55 L-23.65 77.15 -23.6 77.1 -23.35 77.55 -22.3 79.95 -22.35 80.0 -23.3 81.0 -23.3 81.05 -23.75 81.5 -24.3 81.85 -24.45 81.9 -26.0 82.5" fill="#a8a8a8" fill-rule="evenodd" stroke="none"/>
    <path d="M0.35 91.65 L0.75 92.0 Q1.4 92.6 1.2 93.45 L0.25 91.85 0.35 91.65 M2.95 86.8 L2.3 87.35 2.1 87.15 2.95 86.8 M-1.6 30.4 L-1.55 30.35 -1.5 30.25 -1.6 30.4" fill="#846300" fill-rule="evenodd" stroke="none"/>
    <path d="M-21.4 82.45 L-21.45 82.45 -21.15 82.2 -21.1 82.15 -21.0 82.3 -21.4 82.45" fill="#ff9e0d" fill-rule="evenodd" stroke="none"/>
  </g>
</svg>
