<?xml version="1.0" encoding="UTF-8" standalone="no"?>
<svg xmlns:xlink="http://www.w3.org/1999/xlink" height="90.05px" width="33.35px" xmlns="http://www.w3.org/2000/svg">
  <g transform="matrix(1.0, 0.0, 0.0, 1.0, 4.55, 10.45)">
    <path d="M2.15 -6.85 L2.65 -7.8 3.65 -8.8 Q5.2 -9.8 7.95 -9.3 L8.1 -9.25 8.25 -9.25 Q11.4 -7.85 12.7 -6.5 15.15 -3.25 16.05 1.55 16.65 4.95 16.65 10.7 L20.05 15.6 20.15 16.0 20.55 16.6 Q20.8 17.1 21.3 17.1 L21.2 17.25 21.4 17.5 Q21.25 18.25 21.85 19.35 25.3 25.65 22.6 32.1 21.6 34.5 22.1 37.15 21.95 38.1 22.45 39.2 L23.55 42.15 Q24.15 44.2 24.35 46.4 24.8 51.2 23.25 55.5 L22.6 57.05 Q19.65 62.75 14.55 66.9 L13.65 67.55 13.4 67.75 12.3 67.55 Q11.8 67.45 11.45 67.9 L11.35 68.0 Q10.8 68.3 10.75 68.95 10.65 69.45 11.05 69.8 L11.3 70.0 Q10.85 70.1 10.85 70.6 L10.85 70.65 Q10.1 70.75 9.35 71.15 L9.0 71.3 Q8.35 71.35 7.85 71.7 L7.9 71.4 7.9 71.3 8.05 71.25 Q8.8 70.9 8.9 70.15 9.25 68.2 7.3 67.9 5.5 68.35 5.65 70.3 L5.55 70.45 5.35 70.3 4.8 70.45 4.85 70.75 4.45 70.45 3.55 69.75 3.3 69.5 3.25 69.45 3.35 69.4 2.25 69.25 2.2 68.75 2.0 67.75 1.45 67.95 0.95 67.25 0.15 65.65 -0.25 64.1 0.5 64.0 Q3.05 63.7 5.5 64.75 L6.3 64.9 11.75 61.4 11.85 61.55 12.05 61.45 12.1 61.45 12.2 61.4 12.25 61.35 13.45 60.3 14.0 59.3 14.0 59.35 14.55 59.35 14.85 59.25 Q16.35 58.2 16.05 56.3 L15.6 55.4 15.55 55.35 15.05 54.7 14.75 54.4 14.65 54.2 14.55 54.1 14.5 54.05 Q14.3 53.6 14.7 53.3 L14.95 53.15 16.3 53.65 17.05 51.4 17.75 48.6 18.15 49.9 18.3 53.15 18.3 54.05 18.65 54.05 18.85 54.05 Q18.95 53.55 19.2 53.1 L19.95 52.0 20.05 51.9 21.15 50.85 21.7 50.35 21.85 50.2 21.9 50.15 23.35 48.3 Q23.75 47.3 23.5 46.15 L23.4 45.75 23.35 45.7 23.05 45.05 Q23.0 44.6 23.25 44.1 23.85 42.8 23.55 42.15 23.2 41.5 22.25 41.15 L22.65 42.1 Q22.0 41.0 20.6 41.05 L20.65 41.15 19.7 41.05 18.7 41.2 18.25 41.35 Q18.2 38.55 17.8 35.8 16.9 34.8 16.85 33.7 L16.05 33.6 13.25 33.0 12.75 32.85 14.5 31.35 14.0 30.8 13.25 30.15 12.85 29.55 12.95 29.3 13.5 29.55 17.25 29.8 18.7 29.25 18.8 26.35 18.85 26.3 19.25 26.0 19.35 26.15 Q19.4 26.65 19.7 26.75 19.55 26.15 19.65 24.95 L19.75 23.65 19.7 23.25 19.25 23.4 19.1 23.45 18.55 23.5 18.55 23.45 Q18.2 21.55 17.3 19.85 L16.45 18.35 16.35 17.9 16.35 17.8 16.2 17.2 16.15 16.95 16.1 16.25 15.9 15.6 15.8 15.65 14.9 16.5 14.55 16.15 13.55 14.95 13.25 14.65 Q12.05 13.75 12.4 12.1 L13.0 10.5 13.15 8.7 13.0 6.2 12.9 4.15 13.55 4.2 Q13.45 3.75 13.5 2.95 L13.4 1.8 13.3 1.75 12.95 1.25 12.85 1.25 12.5 1.15 11.05 -1.35 Q9.95 -2.85 8.55 -3.95 L8.05 -4.65 Q7.3 -5.3 6.35 -5.4 L6.0 -5.6 5.1 -6.0 3.05 -6.65 2.15 -6.85 M26.6 52.0 L27.05 53.75 26.95 53.75 26.7 53.8 26.35 54.25 26.25 54.4 Q25.9 54.85 25.85 55.35 L25.95 55.55 25.75 55.3 25.4 55.3 25.3 55.65 25.0 56.7 24.7 57.55 24.35 58.35 Q24.1 57.35 24.25 56.4 L24.25 55.6 Q23.95 53.9 24.95 52.55 L26.5 51.7 26.6 52.0 M9.55 69.1 Q9.5 69.5 9.75 69.75 L9.9 68.5 Q9.6 68.75 9.55 69.1 M4.0 66.9 L3.25 66.8 2.85 67.2 Q3.3 67.25 3.85 67.65 L4.65 68.4 4.75 68.25 4.8 68.1 4.7 67.7 4.55 67.35 4.4 67.2 4.0 66.9" fill="#c16100" fill-rule="evenodd" stroke="none"/>
    <path d="M20.05 15.6 L16.65 10.7 Q16.65 4.95 16.05 1.55 15.15 -3.25 12.7 -6.5 11.4 -7.85 8.25 -9.25 L8.1 -9.25 7.95 -9.3 Q5.2 -9.8 3.65 -8.8 L2.65 -7.8 2.15 -6.85 Q0.8 -3.95 1.4 -0.15 2.0 3.75 4.25 7.2 L5.65 9.15 7.35 11.0 Q9.35 13.25 9.75 15.05 L9.65 19.95 Q9.7 22.6 10.4 24.7 10.65 24.95 10.55 25.35 L10.5 25.35 10.4 25.65 10.35 25.7 10.3 25.8 Q9.7 26.6 9.75 26.85 L10.45 27.2 10.45 27.25 10.55 27.25 10.65 27.3 10.7 27.3 10.95 27.3 11.2 27.2 12.6 29.2 12.85 29.55 13.25 30.15 14.0 30.8 14.5 31.35 12.75 32.85 10.1 34.9 Q7.2 36.95 5.9 38.9 5.45 39.0 4.8 39.7 L4.15 40.25 3.95 40.35 3.8 40.4 3.75 40.4 Q3.2 40.25 3.6 39.9 L4.1 39.2 1.7 40.85 Q1.5 41.0 1.7 41.05 L2.0 41.15 2.55 41.5 Q2.9 41.85 2.5 42.5 L1.9 43.3 Q1.6 43.8 1.7 44.15 L-0.5 52.1 -2.15 56.85 -2.2 56.95 -2.6 57.8 -3.2 59.15 -3.45 59.65 -2.8 59.25 -2.6 59.15 -1.85 58.65 Q-2.15 58.2 -1.6 57.5 L-1.6 57.4 -1.5 57.35 Q-1.35 57.15 -1.1 57.35 L-0.65 57.8 -0.85 58.05 -0.6 60.6 -0.4 63.2 -0.25 64.1 0.15 65.65 0.95 67.25 1.45 67.95 2.0 67.75 2.2 68.75 2.25 69.25 2.1 70.7 2.05 70.85 1.35 73.15 1.3 73.4 1.2 73.65 1.3 74.15 Q2.0 77.5 2.65 78.6 3.6 77.9 3.4 76.1 L3.8 73.55 Q4.2 72.1 5.2 71.7 L5.05 71.15 4.85 70.75 4.8 70.45 5.35 70.3 5.55 70.45 5.75 70.65 5.8 70.75 5.8 70.85 5.85 70.85 5.9 70.85 6.05 70.85 6.1 70.85 7.25 71.15 7.9 71.4 7.85 71.7 Q7.65 73.75 9.8 75.35 L11.85 76.65 13.7 78.05 14.0 77.95 14.0 77.9 Q13.85 77.1 13.3 76.2 L12.25 74.6 Q10.95 72.6 11.75 70.95 L11.25 70.9 10.85 70.65 10.85 70.6 Q10.85 70.1 11.3 70.0 L11.5 69.95 11.8 69.95 11.85 69.95 Q12.9 69.95 13.15 69.5 L14.05 69.25 14.3 69.3 15.05 69.85 15.45 70.8 15.75 71.8 19.05 71.55 Q19.65 71.65 20.05 71.25 20.45 70.75 20.25 70.05 L19.25 70.2 18.15 70.3 Q17.45 69.95 17.3 69.0 L17.0 67.55 17.0 67.4 Q16.9 66.75 17.6 66.35 L18.7 65.55 Q22.85 62.2 24.7 57.55 L25.0 56.7 25.3 55.65 25.4 55.3 25.75 55.3 25.95 55.55 26.05 55.85 26.05 55.9 26.05 56.05 26.0 56.2 25.75 57.15 26.7 58.2 27.9 59.2 27.05 53.75 26.6 52.0 Q26.9 51.4 26.3 51.2 L26.35 51.15 26.55 46.4 Q26.55 43.5 26.05 41.65 L25.6 40.85 Q25.1 39.75 24.65 37.9 24.35 36.75 24.5 35.4 L24.5 35.1 25.05 32.4 25.5 29.6 Q25.55 28.05 25.05 26.75 L25.35 26.3 26.05 25.25 26.05 25.2 Q25.85 25.0 25.6 24.95 L25.45 24.9 25.05 24.9 24.95 24.9 23.25 21.0 23.15 20.8 21.4 17.5 21.2 17.25 21.3 17.1 Q21.75 16.2 21.45 15.6 L20.15 15.7 20.05 15.6 M16.15 16.95 L16.2 17.2 16.35 17.8 16.35 17.9 16.45 18.35 16.3 19.3 16.25 19.35 15.85 18.25 15.4 16.6 15.4 16.45 15.5 16.15 15.6 16.05 15.6 15.95 15.65 15.9 15.7 15.9 15.8 15.9 15.9 15.95 15.95 16.0 15.95 16.2 16.0 16.3 16.0 16.4 16.15 16.95 M19.1 23.45 L19.25 23.4 19.5 23.35 19.75 23.65 19.65 24.95 Q19.55 26.15 19.7 26.75 19.4 26.65 19.35 26.15 L19.2 25.4 19.15 25.3 19.2 24.45 Q19.3 23.95 19.05 23.7 L19.1 23.45 M23.05 45.05 L23.35 45.7 23.5 46.15 Q23.75 47.3 23.35 48.3 L21.9 50.15 21.85 50.2 21.7 50.35 21.15 50.85 20.05 51.9 19.95 52.0 19.2 53.1 18.95 53.65 18.75 53.95 18.65 54.05 18.3 54.05 18.3 53.15 18.9 52.4 19.5 51.65 22.15 49.05 22.35 48.05 22.5 47.45 22.35 46.65 21.9 45.9 21.7 45.15 21.45 44.45 21.3 44.3 21.6 43.95 21.85 44.0 21.9 44.05 21.95 44.1 Q22.1 44.35 22.35 44.2 L22.85 44.7 23.05 45.05 M12.25 61.35 L12.2 61.4 12.1 61.45 12.05 61.45 Q11.9 61.45 11.85 61.3 L11.8 61.05 12.0 60.65 12.15 60.55 12.2 60.5 12.3 60.65 13.25 59.5 14.25 58.45 14.25 58.5 14.25 58.65 14.15 58.75 14.1 58.75 13.55 60.05 13.15 60.55 12.25 61.35 M6.35 -1.05 L6.15 -0.6 6.1 -0.6 6.15 -0.65 6.35 -1.05 M17.3 -2.9 Q15.65 -3.5 15.55 -3.55 L16.25 -1.95 16.7 -2.45 17.3 -2.9 M17.3 -1.9 Q16.9 -1.25 16.3 -1.15 L16.85 1.35 17.3 3.9 18.45 4.85 Q19.2 5.35 19.4 5.95 L18.15 6.8 Q17.3 7.2 17.3 7.8 L17.45 9.2 Q17.5 10.0 17.95 10.3 L21.05 14.7 21.75 14.75 22.55 14.7 Q22.85 15.25 22.75 16.3 L22.7 18.0 24.15 20.75 25.4 23.6 26.0 24.1 26.85 24.45 Q27.7 24.85 27.05 25.65 26.1 26.1 26.4 27.3 L26.7 28.3 26.7 29.35 26.45 31.65 25.95 33.95 Q25.4 36.75 26.3 38.45 27.65 41.0 27.75 45.25 L27.65 48.8 27.6 52.1 28.45 55.7 28.8 59.45 28.15 61.0 25.6 58.8 Q22.25 64.15 18.95 67.2 18.5 68.05 19.15 68.65 19.6 69.15 20.6 69.4 L21.2 69.45 21.7 69.75 Q21.05 69.8 21.25 70.45 21.45 71.25 21.2 71.55 L20.5 72.25 19.25 72.5 17.95 72.8 15.35 72.5 14.85 71.75 14.55 70.9 Q14.1 69.85 13.15 70.3 12.1 72.25 12.85 73.45 13.75 73.95 14.25 75.25 L14.9 77.6 Q15.0 78.65 13.4 78.8 11.9 78.3 10.15 77.0 L7.15 74.55 Q6.9 74.25 7.0 73.7 L7.15 72.85 Q7.35 71.9 6.15 72.0 4.8 72.95 4.45 75.25 L4.2 77.15 3.85 78.8 2.95 79.25 2.0 79.6 Q-0.6 75.55 1.0 69.2 -2.1 65.45 -1.6 59.35 L-3.0 60.2 Q-4.0 60.8 -4.55 60.65 -4.55 59.25 -3.65 57.35 L-2.3 54.2 Q-1.55 52.45 -0.4 48.2 0.6 44.3 1.55 42.4 L0.5 41.8 Q-0.15 41.45 -0.1 41.1 0.65 40.45 1.95 39.75 L4.0 38.55 Q6.4 37.05 7.55 35.15 L10.3 33.3 12.85 31.25 Q10.75 28.5 8.65 27.95 8.5 27.3 8.85 26.65 L9.65 25.55 Q8.8 23.55 8.8 19.6 8.75 15.2 8.35 13.6 L5.75 10.8 Q5.45 10.95 5.0 11.9 4.65 12.65 4.1 12.5 L3.15 10.25 Q2.75 8.85 3.2 7.75 0.75 3.15 0.1 0.4 -1.0 -4.1 1.0 -7.35 2.4 -10.05 6.15 -10.45 11.2 -10.75 15.35 -4.1 17.2 -3.8 17.95 -2.9 L17.3 -1.9 M18.1 5.2 L17.55 4.75 17.55 6.4 18.65 5.65 18.1 5.2 M9.55 50.3 L9.4 50.4 8.05 51.8 6.9 53.2 6.4 53.95 5.35 55.0 4.75 54.85 4.7 54.75 5.45 53.65 7.0 51.7 7.75 50.9 Q9.2 49.5 10.7 49.15 L10.7 49.45 10.65 49.6 10.5 49.7 10.45 49.7 10.4 49.7 10.15 49.8 9.55 50.3 M9.55 69.1 Q9.6 68.75 9.9 68.5 L9.75 69.75 Q9.5 69.5 9.55 69.1 M7.35 -3.0 L7.4 -3.05 7.45 -3.1 7.45 -3.05 7.35 -2.85 7.35 -3.0 M5.15 -3.15 L4.95 -3.05 4.95 -3.0 4.95 -3.2 5.15 -3.15 M3.55 8.25 Q3.35 9.1 3.7 10.15 L4.25 11.85 5.3 10.45 3.55 8.25 M4.95 62.9 L4.55 63.9 4.25 63.85 4.15 63.55 4.5 62.55 5.35 61.3 5.35 61.05 5.45 60.9 Q5.6 60.75 5.85 60.75 L5.85 60.65 5.9 60.65 5.95 60.6 6.0 60.65 5.95 60.8 6.0 60.9 5.8 61.35 5.55 61.9 5.3 62.35 4.95 62.9 M4.0 66.9 L4.4 67.2 4.55 67.35 4.7 67.7 4.8 68.1 4.75 68.25 4.65 68.4 3.85 67.65 Q3.3 67.25 2.85 67.2 L3.25 66.8 4.0 66.9" fill="#000000" fill-rule="evenodd" stroke="none"/>
    <path d="M6.35 -5.4 Q7.3 -5.3 8.05 -4.65 L8.55 -3.95 8.65 -3.5 8.45 -3.0 Q7.85 -2.2 6.95 -2.05 L6.9 -2.05 7.35 -2.85 7.45 -3.05 7.45 -3.1 7.4 -3.05 7.5 -3.25 Q7.8 -3.75 7.5 -4.2 L7.0 -4.55 6.35 -4.7 5.9 -4.55 5.7 -4.55 Q5.05 -4.25 5.1 -3.5 L5.15 -3.15 4.95 -3.2 4.95 -3.0 4.8 -2.1 4.2 -2.85 4.15 -3.0 4.05 -3.65 4.25 -4.45 4.8 -5.1 4.9 -5.15 5.4 -5.4 5.9 -5.45 6.35 -5.4 M18.25 41.35 L18.7 41.2 19.7 41.05 20.65 41.15 20.6 41.05 Q22.0 41.0 22.65 42.1 L22.75 42.65 Q22.85 43.5 22.45 44.15 L21.9 44.05 21.85 44.0 21.65 43.7 21.6 43.6 21.55 43.55 21.5 43.5 21.3 43.4 21.2 43.05 20.45 43.15 19.15 43.25 Q18.2 43.6 17.55 44.45 L16.85 46.05 16.7 46.05 16.65 46.05 16.45 45.85 16.2 45.55 15.9 45.2 15.85 45.15 15.65 44.9 15.45 44.7 15.45 44.3 Q15.5 43.8 15.9 43.45 16.3 42.1 17.6 41.55 L18.25 41.35 M14.55 54.1 L14.65 54.2 14.75 54.4 15.05 54.7 15.55 55.35 15.6 55.4 16.05 56.3 Q16.35 58.2 14.85 59.25 L14.55 59.35 14.0 59.35 14.2 58.8 14.25 58.65 14.35 58.5 14.4 58.35 14.55 58.0 14.65 58.1 14.8 57.6 Q13.9 56.9 12.9 56.75 11.7 56.5 10.95 57.25 L11.1 58.3 Q10.45 58.0 10.1 57.2 L10.0 56.75 Q10.1 55.4 11.1 54.4 11.65 53.85 12.4 53.75 L13.8 53.85 14.55 54.1 M3.55 69.75 L4.45 70.45 4.85 70.75 5.05 71.15 5.2 71.7 Q4.2 72.1 3.8 73.55 L3.4 76.1 Q3.6 77.9 2.65 78.6 2.0 77.5 1.3 74.15 L1.35 73.5 1.35 73.15 2.05 70.85 2.1 70.7 3.2 69.7 3.55 69.75 M5.65 70.3 Q5.5 68.35 7.3 67.9 9.25 68.2 8.9 70.15 8.8 70.9 8.05 71.25 L7.9 71.3 7.8 71.35 7.25 71.15 6.1 70.85 6.05 70.85 5.9 70.85 5.85 70.85 5.8 70.75 5.75 70.65 5.65 70.3 M7.85 71.7 Q8.35 71.35 9.0 71.3 L9.35 71.15 Q10.1 70.75 10.85 70.65 L11.25 70.9 11.75 70.95 Q10.95 72.6 12.25 74.6 L13.3 76.2 Q13.85 77.1 14.0 77.9 L13.7 78.05 11.85 76.65 9.8 75.35 Q7.65 73.75 7.85 71.7 M11.3 70.0 L11.05 69.8 Q10.65 69.45 10.75 68.95 10.8 68.3 11.35 68.0 L11.45 67.9 Q11.8 67.45 12.3 67.55 L13.4 67.75 Q14.0 68.05 14.05 69.05 L14.05 69.25 13.15 69.5 Q12.9 69.95 11.85 69.95 L11.8 69.95 11.5 69.95 11.3 70.0 M17.0 67.55 L17.3 69.0 Q17.45 69.95 18.15 70.3 L19.25 70.2 20.25 70.05 Q20.45 70.75 20.05 71.25 19.65 71.65 19.05 71.55 L15.75 71.8 15.45 70.8 15.05 69.85 14.3 69.3 17.0 67.55 M6.05 44.3 L6.45 43.85 7.0 43.6 7.05 43.55 7.45 43.35 7.45 43.3 Q9.85 43.15 11.4 44.85 13.0 46.5 12.85 48.85 12.75 50.0 12.05 50.9 L11.6 51.3 11.55 51.3 10.5 51.05 9.4 50.4 9.55 50.3 10.45 49.7 10.55 49.75 10.6 49.75 10.65 49.6 10.95 49.35 11.2 50.4 11.45 50.0 11.6 49.6 Q11.6 48.5 10.9 47.35 10.15 46.15 9.1 45.55 L8.45 45.45 8.25 45.45 6.75 45.7 6.35 45.85 6.3 45.65 6.05 45.45 Q6.1 45.1 6.3 44.75 L6.9 43.8 6.05 44.3 M3.15 61.8 L2.25 61.3 Q1.25 60.5 1.75 59.35 L2.3 58.2 2.95 57.65 4.05 57.45 4.65 57.45 Q4.95 57.2 5.45 57.15 6.25 57.0 6.6 57.7 L6.6 58.0 Q7.1 58.35 7.3 59.05 L7.35 60.55 7.1 61.2 Q6.8 61.75 6.2 61.9 L6.1 61.9 5.55 61.9 5.8 61.35 6.0 60.9 6.05 60.65 Q5.55 59.55 4.5 59.4 3.4 59.15 2.65 60.0 2.7 60.75 3.15 61.8" fill="#e8ae00" fill-rule="evenodd" stroke="none"/>
    <path d="M8.55 -3.95 Q9.95 -2.85 11.05 -1.35 L12.5 1.15 12.85 1.25 Q12.4 1.1 12.0 1.25 L11.4 1.85 Q11.45 2.6 11.85 3.3 L11.75 3.35 12.25 3.85 12.4 3.95 12.5 4.0 12.9 4.15 13.0 6.2 13.15 8.7 13.0 10.5 12.4 12.1 Q12.05 13.75 13.25 14.65 L13.55 14.95 14.55 16.15 14.9 16.5 14.75 16.75 13.8 18.2 13.8 18.25 13.75 18.3 13.6 18.5 13.55 18.65 Q13.5 19.25 14.2 19.45 L15.2 19.85 16.25 19.35 16.3 19.3 16.45 18.35 17.3 19.85 Q18.2 21.55 18.55 23.45 L18.45 23.5 Q17.6 23.5 17.4 23.9 L17.45 24.0 16.95 24.4 16.55 25.25 Q16.35 25.9 16.9 26.05 L17.15 26.2 17.65 26.3 18.8 26.35 18.7 29.25 17.25 29.8 16.55 28.7 14.35 25.95 Q12.55 23.4 12.0 20.3 L11.75 17.25 Q11.8 15.2 10.95 13.35 9.25 9.35 6.6 5.9 4.1 2.6 4.0 -1.4 L4.15 -3.0 4.2 -2.85 4.8 -2.1 5.4 -1.2 Q5.7 -0.7 6.1 -0.6 L6.15 -0.6 6.35 -1.05 6.7 -1.7 6.75 -1.75 6.8 -1.85 6.95 -2.05 Q7.85 -2.2 8.45 -3.0 L8.65 -3.5 8.55 -3.95 M16.05 33.6 L16.85 33.7 Q16.9 34.8 17.8 35.8 18.2 38.55 18.25 41.35 L17.6 41.55 Q16.3 42.1 15.9 43.45 15.5 43.8 15.45 44.3 L15.45 44.7 15.65 44.9 Q15.2 44.45 14.8 44.6 14.7 45.2 15.1 45.85 L15.9 46.85 Q17.1 47.35 17.75 48.6 L17.05 51.4 16.3 53.65 14.95 53.15 14.7 53.3 Q14.3 53.6 14.5 54.05 L14.55 54.1 13.8 53.85 12.4 53.75 Q11.65 53.85 11.1 54.4 10.1 55.4 10.0 56.75 L10.1 57.2 Q10.45 58.0 11.1 58.3 L11.4 59.45 11.8 61.05 11.85 61.3 11.85 61.35 11.75 61.4 6.3 64.9 5.5 64.75 Q3.05 63.7 0.5 64.0 L1.25 63.95 1.35 63.1 1.35 60.4 Q1.2 55.45 2.3 50.65 3.65 44.7 7.6 40.05 8.45 39.05 9.55 38.35 L10.45 37.8 10.4 38.05 12.35 37.3 14.35 36.5 14.5 35.6 14.15 34.9 14.3 35.2 15.4 34.4 16.1 34.1 16.45 33.65 16.05 33.6 M11.85 8.75 L12.0 8.25 Q11.85 8.0 11.4 8.1 L10.75 8.45 10.5 8.9 10.2 8.9 Q10.15 9.55 10.55 10.1 10.9 10.6 11.5 10.85 L12.15 9.5 Q12.45 8.6 12.05 8.15 L11.85 8.75 M11.6 51.3 L12.05 50.9 Q12.75 50.0 12.85 48.85 13.0 46.5 11.4 44.85 9.85 43.15 7.45 43.3 L7.45 43.35 7.05 43.55 7.0 43.6 6.45 43.85 6.05 44.3 5.9 44.35 5.45 45.35 Q5.15 45.9 5.2 46.4 L3.95 47.8 Q3.1 48.7 3.0 49.15 3.1 50.35 3.75 52.05 L4.75 54.85 5.35 55.0 6.4 53.95 6.5 54.1 6.95 54.35 Q10.1 54.4 11.25 51.65 L10.6 51.65 11.85 51.55 11.85 51.35 11.6 51.3 M6.2 61.9 Q6.8 61.75 7.1 61.2 L7.35 60.55 7.3 59.05 Q7.1 58.35 6.6 58.0 L6.6 57.7 Q6.25 57.0 5.45 57.15 4.95 57.2 4.65 57.45 L4.05 57.45 2.95 57.65 2.3 58.2 1.75 59.35 Q1.25 60.5 2.25 61.3 L3.15 61.8 4.2 64.05 4.5 64.05 4.55 63.9 4.95 62.9 Q5.05 63.7 5.85 63.4 L6.25 63.05 Q6.75 62.35 6.7 61.7 L6.2 61.9" fill="#cc7a00" fill-rule="evenodd" stroke="none"/>
    <path d="M12.85 1.25 L12.95 1.25 13.3 1.75 Q13.0 2.0 13.0 2.65 L13.0 3.65 12.4 3.35 11.85 3.3 Q11.45 2.6 11.4 1.85 L12.0 1.25 Q12.4 1.1 12.85 1.25 M19.25 26.0 L18.85 26.3 18.8 26.35 17.65 26.3 17.15 26.2 17.35 26.25 18.5 26.3 18.5 26.2 Q18.1 26.25 17.6 25.95 L16.65 25.45 16.9 26.05 Q16.35 25.9 16.55 25.25 L16.95 24.4 17.45 24.0 17.6 23.95 18.1 23.9 18.25 23.85 18.35 23.85 18.45 23.85 18.6 23.8 19.05 23.65 19.05 23.7 Q19.3 23.95 19.2 24.45 L19.15 25.3 19.2 25.4 19.15 25.55 19.25 26.0 M21.3 17.1 Q20.8 17.1 20.55 16.6 L20.15 16.0 20.05 15.6 20.15 15.7 21.45 15.6 Q21.75 16.2 21.3 17.1 M17.3 -2.9 L16.7 -2.45 16.25 -1.95 15.55 -3.55 Q15.65 -3.5 17.3 -2.9 M18.1 5.2 L18.65 5.65 17.55 6.4 17.55 4.75 18.1 5.2 M10.5 8.9 L10.75 8.45 11.4 8.1 Q11.85 8.0 12.0 8.25 L11.85 8.75 11.4 10.25 Q11.15 10.1 10.85 9.35 L10.8 9.25 10.7 9.05 10.5 8.9 M14.2 17.8 L14.3 17.75 15.35 16.8 16.0 19.05 15.2 19.55 14.5 18.95 14.05 18.8 13.9 18.8 13.6 18.65 13.6 18.5 13.75 18.3 13.8 18.25 13.95 18.1 14.2 17.8 M10.55 25.35 Q11.1 25.35 11.45 25.8 L11.5 26.35 11.1 27.15 11.05 27.2 10.95 27.3 10.7 27.3 10.65 27.3 10.55 27.25 10.45 27.25 10.45 27.2 9.75 26.85 Q9.7 26.6 10.3 25.8 L10.35 25.7 10.4 25.65 10.5 25.35 10.55 25.35 M25.05 24.9 L25.45 24.9 25.6 24.95 26.0 25.2 26.05 25.25 25.35 26.3 25.15 26.6 25.1 26.6 24.95 26.55 Q24.4 26.3 24.5 25.75 24.6 25.2 25.0 24.95 L25.05 24.9 M27.05 53.75 L27.9 59.2 26.7 58.2 25.75 57.15 26.0 56.2 26.05 56.05 26.05 55.9 26.05 55.85 25.95 55.55 25.85 55.35 Q25.9 54.85 26.25 54.4 L26.35 54.25 26.7 53.8 26.95 53.75 27.05 53.75 M4.15 40.25 L2.55 41.5 2.0 41.15 1.7 41.05 Q1.5 41.0 1.7 40.85 L4.1 39.2 3.6 39.9 Q3.2 40.25 3.75 40.4 L3.8 40.4 3.95 40.35 4.15 40.25 M-2.0 56.9 Q-1.6 57.0 -1.5 57.35 L-1.6 57.4 -1.6 57.5 Q-2.15 58.2 -1.85 58.65 L-2.6 59.15 -2.8 59.25 -3.35 59.6 -3.4 59.6 -3.2 59.15 -2.6 57.8 -2.2 56.95 -2.0 56.9 M12.5 35.5 Q13.1 34.55 13.8 35.6 L13.75 36.3 13.25 36.7 11.6 37.05 12.5 35.5 M18.55 44.1 L17.95 44.7 Q17.8 45.25 18.05 45.95 L18.45 47.35 18.65 47.8 18.0 46.35 Q17.35 44.85 18.55 44.1 M19.2 49.35 L19.3 49.6 19.3 49.55 19.2 49.35 M11.65 57.8 L11.65 57.75 Q11.65 57.45 11.8 57.3 L12.0 57.3 11.65 57.8 M14.25 58.45 L14.35 58.5 14.25 58.65 14.25 58.5 14.25 58.45 M5.15 -3.15 L5.1 -3.5 Q5.05 -4.25 5.7 -4.55 L5.9 -4.55 6.35 -4.7 7.0 -4.55 7.5 -4.2 Q7.8 -3.75 7.5 -3.25 L7.4 -3.05 7.35 -3.0 6.3 -1.8 6.05 -1.5 5.85 -1.75 5.6 -2.45 5.6 -2.55 5.35 -2.95 5.15 -3.15 M3.55 8.25 L5.3 10.45 4.25 11.85 3.7 10.15 Q3.35 9.1 3.55 8.25 M4.3 50.95 L4.25 50.85 4.15 50.55 4.3 50.95 M4.5 62.55 L4.4 62.65 Q3.6 60.75 3.65 60.1 L4.75 60.4 Q5.25 60.55 5.35 61.05 L5.35 61.3 4.5 62.55" fill="#cccccc" fill-rule="evenodd" stroke="none"/>
    <path d="M13.3 1.75 L13.4 1.8 13.5 2.95 Q13.45 3.75 13.55 4.2 L12.9 4.15 12.5 4.0 12.4 3.95 12.25 3.85 11.75 3.35 11.85 3.3 12.4 3.35 13.0 3.65 13.0 2.65 Q13.0 2.0 13.3 1.75 M14.9 16.5 L15.8 15.65 15.9 15.6 16.1 16.25 16.15 16.95 16.0 16.4 16.0 16.3 15.95 16.2 15.95 16.0 15.9 15.95 15.8 15.9 15.7 15.9 15.65 15.9 15.6 15.95 15.6 16.05 15.5 16.15 15.4 16.45 15.4 16.6 15.85 18.25 16.25 19.35 15.2 19.85 14.2 19.45 Q13.5 19.25 13.55 18.65 L13.9 18.8 14.05 18.8 14.5 18.95 15.2 19.55 16.0 19.05 15.35 16.8 14.3 17.75 14.2 17.8 13.8 18.2 14.75 16.75 14.9 16.5 M18.55 23.5 L19.1 23.45 19.05 23.7 19.05 23.65 18.35 23.85 18.25 23.85 18.1 23.9 17.4 23.9 Q17.6 23.5 18.45 23.5 L18.55 23.5 M19.25 23.4 L19.7 23.25 19.75 23.65 19.5 23.35 19.25 23.4 M22.65 42.1 L22.25 41.15 Q23.2 41.5 23.55 42.15 23.85 42.8 23.25 44.1 23.0 44.6 23.05 45.05 L22.85 44.7 22.35 44.2 22.45 44.15 Q22.85 43.5 22.75 42.65 L22.65 42.1 M23.35 45.7 L23.4 45.75 23.5 46.15 23.35 45.7 M19.2 53.1 Q18.95 53.55 18.85 54.05 L18.65 54.05 18.75 53.95 18.95 53.65 19.2 53.1 M18.3 53.15 L18.15 49.9 17.75 48.6 Q17.1 47.35 15.9 46.85 L15.1 45.85 Q14.7 45.2 14.8 44.6 15.2 44.45 15.65 44.9 L15.85 45.15 15.9 45.2 16.2 45.55 16.45 45.85 16.85 46.25 16.85 46.05 17.55 44.45 Q18.2 43.6 19.15 43.25 L20.45 43.15 Q20.95 43.2 21.3 43.4 L21.5 43.5 21.55 43.55 21.6 43.6 21.65 43.7 21.85 44.0 21.6 43.95 21.3 44.3 Q20.1 43.2 18.95 43.9 L18.8 43.95 18.55 44.1 Q17.35 44.85 18.0 46.35 L18.65 47.8 19.05 49.15 19.1 49.2 19.15 49.25 19.2 49.35 19.3 49.55 19.35 50.4 19.25 51.9 19.5 51.65 18.9 52.4 18.3 53.15 M14.0 59.3 L13.45 60.3 12.25 61.35 13.15 60.55 13.55 60.05 14.1 58.75 14.15 58.75 14.25 58.65 14.2 58.8 14.0 59.3 M12.05 61.45 L11.85 61.55 11.85 61.35 11.85 61.3 Q11.9 61.45 12.05 61.45 M6.95 -2.05 L6.8 -1.85 6.75 -1.75 6.7 -1.7 6.35 -1.05 6.15 -0.65 6.1 -0.6 Q5.7 -0.7 5.4 -1.2 L4.8 -2.1 4.95 -3.0 4.95 -3.05 5.15 -3.15 5.35 -2.95 5.6 -2.55 5.6 -2.45 5.85 -1.75 6.05 -1.5 6.3 -1.8 7.35 -3.0 7.35 -2.85 6.9 -2.05 6.95 -2.05 M10.5 8.9 L10.7 9.05 10.8 9.25 10.85 9.35 Q11.15 10.1 11.4 10.25 L11.85 8.75 12.05 8.15 Q12.45 8.6 12.15 9.5 L11.5 10.85 Q10.9 10.6 10.55 10.1 10.15 9.55 10.2 8.9 L10.5 8.9 M16.9 26.05 L16.65 25.45 17.6 25.95 Q18.1 26.25 18.5 26.2 L18.5 26.3 17.35 26.25 17.15 26.2 16.9 26.05 M26.3 51.2 Q26.9 51.4 26.6 52.0 L26.5 51.7 24.95 52.55 Q24.85 52.05 25.45 51.7 L26.3 51.2 M12.5 35.5 L11.6 37.05 13.25 36.7 13.75 36.3 13.8 35.6 Q13.1 34.55 12.5 35.5 M14.15 34.9 L14.5 35.6 14.35 36.5 12.35 37.3 10.4 38.05 10.45 37.8 Q10.65 36.2 13.0 34.4 L13.15 34.4 Q13.75 34.35 14.15 34.9 M6.05 44.3 L6.9 43.8 6.3 44.75 Q6.1 45.1 6.05 45.45 L6.15 46.0 6.75 45.7 8.25 45.45 8.45 45.45 9.1 45.55 Q10.15 46.15 10.9 47.35 11.6 48.5 11.6 49.6 L11.45 50.0 11.2 50.4 10.95 49.35 10.65 49.6 10.7 49.45 10.7 49.15 10.75 49.15 Q9.8 46.75 8.1 45.85 7.4 46.1 6.6 46.6 L6.5 46.6 5.85 47.0 5.2 47.5 4.95 47.65 Q3.6 48.7 4.15 50.55 L4.25 50.85 4.75 52.05 5.3 53.5 7.0 51.7 5.45 53.65 4.7 54.75 4.75 54.85 3.75 52.05 Q3.1 50.35 3.0 49.15 3.1 48.7 3.95 47.8 L5.2 46.4 Q5.15 45.9 5.45 45.35 L5.9 44.35 6.05 44.3 M10.45 49.7 L9.55 50.3 10.15 49.8 10.4 49.7 10.45 49.7 10.5 49.7 10.45 49.7 M9.4 50.4 L10.5 51.05 11.55 51.3 11.6 51.3 11.85 51.35 11.85 51.55 10.6 51.65 8.45 51.55 6.95 53.3 6.4 53.95 6.9 53.2 8.05 51.8 9.4 50.4 M21.9 45.9 L22.35 46.65 22.5 47.45 22.35 48.05 22.15 46.75 21.9 45.9 M12.0 57.3 L11.75 57.25 11.65 57.9 11.75 58.2 11.95 59.2 11.95 59.6 12.2 60.5 12.15 60.55 12.0 60.65 11.8 61.05 11.4 59.45 11.1 58.3 10.95 57.25 Q11.7 56.5 12.9 56.75 13.9 56.9 14.8 57.6 L14.65 58.1 14.55 58.0 13.35 57.6 13.0 57.5 12.0 57.3 M4.55 63.9 L4.5 64.05 4.2 64.05 3.15 61.8 Q2.7 60.75 2.65 60.0 3.4 59.15 4.5 59.4 5.55 59.55 6.05 60.65 L6.0 60.9 5.95 60.8 6.0 60.65 5.95 60.6 5.9 60.65 5.85 60.65 5.85 60.75 Q5.6 60.75 5.45 60.9 L5.35 61.05 Q5.25 60.55 4.75 60.4 L3.65 60.1 Q3.6 60.75 4.4 62.65 L4.5 62.55 4.15 63.55 4.25 63.85 4.55 63.9" fill="#793600" fill-rule="evenodd" stroke="none"/>
    <path d="M6.0 -5.6 L6.35 -5.4 5.9 -5.45 6.0 -5.6 M18.55 23.45 L18.55 23.5 18.45 23.5 18.55 23.45 M2.25 69.25 L3.35 69.4 3.25 69.45 3.3 69.5 3.55 69.75 3.2 69.7 2.1 70.7 2.25 69.25 M13.8 18.2 L14.2 17.8 13.95 18.1 13.8 18.25 13.8 18.2 M13.9 18.8 L13.55 18.65 13.6 18.5 13.6 18.65 13.9 18.8 M11.1 27.15 L11.2 27.2 10.95 27.3 11.05 27.2 11.1 27.15 M18.1 23.9 L17.6 23.95 17.45 24.0 17.4 23.9 18.1 23.9 M18.35 23.85 L19.05 23.65 18.6 23.8 18.45 23.85 18.35 23.85 M25.6 24.95 Q25.85 25.0 26.05 25.2 L26.05 25.25 26.0 25.2 25.6 24.95 M-2.15 56.85 L-2.0 56.9 -2.2 56.95 -2.15 56.85 M6.05 45.45 L6.3 45.65 6.35 45.85 6.75 45.7 6.15 46.0 6.05 45.45 M10.65 49.6 L10.6 49.75 10.55 49.75 10.45 49.7 10.5 49.7 10.65 49.6 M16.85 46.05 L16.85 46.25 16.45 45.85 16.65 46.05 16.7 46.05 16.85 46.05 M20.45 43.15 L21.2 43.05 21.3 43.4 Q20.95 43.2 20.45 43.15 M26.95 53.75 L27.05 53.75 26.95 53.75 M11.65 57.9 L11.75 57.25 12.0 57.3 11.8 57.3 Q11.65 57.45 11.65 57.75 L11.65 57.8 11.65 57.9 M-3.2 59.15 L-3.4 59.6 -3.35 59.6 -2.8 59.25 -3.45 59.65 -3.2 59.15 M1.35 73.5 L1.3 73.4 1.35 73.15 1.35 73.5" fill="#cc9900" fill-rule="evenodd" stroke="none"/>
    <path d="M2.15 -6.85 L3.05 -6.65 5.1 -6.0 4.9 -5.15 4.8 -5.1 4.25 -4.45 4.05 -3.65 4.15 -3.0 4.0 -1.4 Q4.1 2.6 6.6 5.9 9.25 9.35 10.95 13.35 11.8 15.2 11.75 17.25 L12.0 20.3 Q12.55 23.4 14.35 25.95 L16.55 28.7 17.25 29.8 13.5 29.55 12.95 29.3 12.9 29.3 12.6 29.2 11.2 27.2 11.1 27.15 11.5 26.35 11.45 25.8 Q11.1 25.35 10.55 25.35 10.65 24.95 10.4 24.7 9.7 22.6 9.65 19.95 L9.75 15.05 Q9.35 13.25 7.35 11.0 L5.65 9.15 4.25 7.2 Q2.0 3.75 1.4 -0.15 0.8 -3.95 2.15 -6.85 M12.75 32.85 L13.25 33.0 16.05 33.6 16.45 33.65 16.1 34.1 15.4 34.4 14.3 35.2 14.15 34.9 Q13.75 34.35 13.15 34.4 L13.0 34.4 Q10.65 36.2 10.45 37.8 L9.55 38.35 Q8.45 39.05 7.6 40.05 3.65 44.7 2.3 50.65 1.2 55.45 1.35 60.4 L1.35 63.1 1.25 63.95 0.5 64.0 -0.25 64.1 -0.4 63.2 -0.6 60.6 -0.85 58.05 -0.65 57.8 -1.1 57.35 Q-1.35 57.15 -1.5 57.35 -1.6 57.0 -2.0 56.9 L-2.15 56.85 -0.5 52.1 1.7 44.15 Q1.6 43.8 1.9 43.3 L2.5 42.5 Q2.9 41.85 2.55 41.5 L4.15 40.25 4.8 39.7 Q5.45 39.0 5.9 38.9 7.2 36.95 10.1 34.9 L12.75 32.85" fill="#e6a233" fill-rule="evenodd" stroke="none"/>
    <path d="M13.4 67.75 L13.65 67.55 14.55 66.9 Q19.65 62.75 22.6 57.05 L23.25 55.5 Q24.8 51.2 24.35 46.4 24.15 44.2 23.55 42.15 L22.45 39.2 Q21.95 38.1 22.1 37.15 21.6 34.5 22.6 32.1 25.3 25.65 21.85 19.35 21.25 18.25 21.4 17.5 L23.15 20.8 23.25 21.0 24.95 24.9 25.0 24.95 Q24.6 25.2 24.5 25.75 24.4 26.3 24.95 26.55 L25.1 26.65 25.05 26.75 Q25.55 28.05 25.5 29.6 L25.05 32.4 24.5 35.1 24.5 35.4 Q24.35 36.75 24.65 37.9 25.1 39.75 25.6 40.85 L26.05 41.65 Q26.55 43.5 26.55 46.4 L26.35 51.15 26.3 51.2 25.45 51.7 Q24.85 52.05 24.95 52.55 23.95 53.9 24.25 55.6 L24.25 56.4 Q24.1 57.35 24.35 58.35 L24.7 57.55 Q22.85 62.2 18.7 65.55 L17.6 66.35 Q16.9 66.75 17.0 67.4 L17.0 67.55 14.3 69.3 14.05 69.25 14.05 69.05 Q14.0 68.05 13.4 67.75" fill="#9b4600" fill-rule="evenodd" stroke="none"/>
    <path d="M24.95 24.9 L25.05 24.9 25.0 24.95 24.95 24.9 M25.35 26.3 L25.05 26.75 25.1 26.65 24.95 26.55 25.1 26.6 25.15 26.6 25.35 26.3" fill="#846300" fill-rule="evenodd" stroke="none"/>
    <path d="M19.35 26.15 L19.25 26.0 19.15 25.55 19.2 25.4 19.35 26.15 M12.95 29.3 L12.85 29.55 12.6 29.2 12.9 29.3 12.95 29.3 M14.0 59.35 L14.0 59.3 14.2 58.8 14.0 59.35 M11.85 61.55 L11.75 61.4 11.85 61.35 11.85 61.55 M5.55 70.45 L5.65 70.3 5.75 70.65 5.55 70.45 M7.9 71.3 L7.9 71.4 7.25 71.15 7.8 71.35 7.9 71.3 M21.9 44.05 L22.45 44.15 22.35 44.2 Q22.1 44.35 21.95 44.1 L21.9 44.05 M1.3 73.4 L1.35 73.5 1.3 74.15 1.2 73.65 1.3 73.4 M5.8 70.75 L5.85 70.85 5.8 70.85 5.8 70.75" fill="#a47b00" fill-rule="evenodd" stroke="none"/>
    <path d="M6.6 46.6 Q7.4 46.1 8.1 45.85 9.8 46.75 10.75 49.15 L10.7 49.15 Q9.2 49.5 7.75 50.9 L7.0 51.7 5.3 53.5 4.75 52.05 4.25 50.85 4.3 50.95 Q5.35 49.05 7.4 48.05 L7.95 48.1 8.2 47.95 Q9.0 46.75 7.4 46.3 L6.6 46.6 M19.3 49.6 L19.4 49.6 Q19.6 49.65 19.65 49.5 20.4 48.45 20.15 47.05 L19.9 45.4 Q19.7 44.35 18.95 43.9 20.1 43.2 21.3 44.3 L21.45 44.45 21.7 45.15 21.9 45.9 22.15 46.75 22.35 48.05 22.15 49.05 19.5 51.65 19.25 51.9 19.35 50.4 19.3 49.55 19.3 49.6 M13.0 57.5 L13.35 57.6 14.55 58.0 14.4 58.35 14.35 58.5 14.25 58.45 13.25 59.5 12.3 60.65 12.2 60.5 11.95 59.6 12.5 59.4 12.8 58.7 12.9 58.45 Q13.2 57.85 13.0 57.5" fill="#a8a8a8" fill-rule="evenodd" stroke="none"/>
    <path d="M18.65 47.8 L18.45 47.35 18.05 45.95 Q17.8 45.25 17.95 44.7 L18.55 44.1 18.8 43.95 18.95 43.9 Q19.7 44.35 19.9 45.4 L20.15 47.05 Q20.4 48.45 19.65 49.5 19.6 49.65 19.4 49.6 L19.3 49.6 19.2 49.35 19.15 49.25 19.1 49.2 19.05 49.15 18.65 47.8 M12.0 57.3 L13.0 57.5 Q13.2 57.85 12.9 58.45 L12.8 58.7 12.5 59.4 11.95 59.6 11.95 59.2 11.75 58.2 11.65 57.9 11.65 57.8 12.0 57.3 M14.0 77.9 L14.0 77.95 13.7 78.05 14.0 77.9 M4.15 50.55 Q3.6 48.7 4.95 47.65 L5.2 47.5 5.85 47.0 6.5 46.6 6.6 46.6 7.4 46.3 Q9.0 46.75 8.2 47.95 L7.95 48.1 7.4 48.05 Q5.35 49.05 4.3 50.95 L4.15 50.55" fill="#ffffff" fill-rule="evenodd" stroke="none"/>
    <path d="M10.6 51.65 L11.25 51.65 Q10.1 54.4 6.95 54.35 L6.5 54.1 6.4 53.95 6.95 53.3 8.45 51.55 10.6 51.65 M6.2 61.9 L6.7 61.7 Q6.75 62.35 6.25 63.05 L5.85 63.4 Q5.05 63.7 4.95 62.9 L5.3 62.35 5.55 61.9 6.1 61.9 6.2 61.9" fill="#cc6600" fill-rule="evenodd" stroke="none"/>
    <path d="M5.1 -6.0 L6.0 -5.6 5.9 -5.45 5.4 -5.4 4.9 -5.15 5.1 -6.0" fill="#e68a00" fill-rule="evenodd" stroke="none"/>
  </g>
</svg>
